<svg xmlns="http://www.w3.org/2000/svg" viewBox="0 0 400 300"><g id="_374_accountant_outline" data-name="#374_accountant_outline"><path d="M165.48,220.31s-7.2-17.62-8.32-21.75.9-7.94.66-12.85-1.78-6.2-3.94-4.09c-2,2-1.86,7.09-3.82,8s-13.1-10.44-15.14-9.06-5,4.41-4.17,7.65,11.87,13.66,11.87,13.66L152,230.94Z" fill="#ffc9b0"/><path d="M152,231.94a1,1,0,0,1-1-.69l-9.3-28.81c-1.77-1.69-11.07-10.68-12-13.95-1-3.51,1.86-6.9,4.57-8.74,1.59-1.07,4.26.89,9.24,4.76,2.07,1.61,5.18,4,6.12,4.18.56-.39,1-1.84,1.32-3.12.48-1.73,1-3.52,2.14-4.66,1.44-1.4,2.57-1.37,3.28-1.09,1.42.55,2.2,2.46,2.36,5.84a28,28,0,0,1-.53,6.1c-.4,2.37-.74,4.41-.17,6.54,1.1,4,8.22,21.45,8.29,21.63a1,1,0,0,1-.31,1.16l-13.48,10.64A1,1,0,0,1,152,231.94ZM135.4,181.46c-1.74,1.21-4.4,3.88-3.68,6.51.59,2.16,7.42,9.24,11.59,13.2a1,1,0,0,1,.26.42l9,27.67L164.27,220c-1.36-3.36-7.07-17.45-8.08-21.17-.69-2.54-.29-4.9.12-7.39a25.88,25.88,0,0,0,.51-5.68c-.14-2.94-.78-3.95-1.09-4.07s-.59.12-1.15.66c-.78.76-1.2,2.29-1.61,3.77-.54,1.93-1.05,3.75-2.47,4.43s-3.31-.7-8.13-4.45C140.14,184.36,136.45,181.49,135.4,181.46Z" fill="#093f68"/><path d="M243.91,109.6c-2.19,7.28-.79,15.09.63,22.56.85,4.46,1.72,9,3.74,13.05s5.37,7.68,9.72,9c-37.36,16.33-82.28,14.22-117.94-5.55,12.81-11.73,18.9-28.85,25.25-45,1.68-4.29,3.44-8.61,6.22-12.3C177.8,83,188.83,79,199.24,79.76s20.15,5.91,27.95,12.86c7.62,6.79,13.79,15.82,14.86,26" fill="#725858"/><path d="M204.92,166.05a135.48,135.48,0,0,1-65.35-16.53,1,1,0,0,1-.19-1.61c11.79-10.8,17.86-26.37,23.73-41.42l1.27-3.23c1.83-4.69,3.58-8.86,6.35-12.54,6.2-8.24,17.15-12.83,28.58-12,9.75.74,19.89,5.4,28.55,13.11,7.2,6.42,12.12,13.91,14.21,21.52a27.76,27.76,0,0,1,.88-4.08,1,1,0,0,1,1.25-.66,1,1,0,0,1,.67,1.24c-2.18,7.21-.67,15.11.65,22.08.83,4.33,1.68,8.82,3.65,12.79,2.14,4.29,5.46,7.38,9.12,8.47a1,1,0,0,1,.71.9,1,1,0,0,1-.6,1A133.91,133.91,0,0,1,204.92,166.05Zm-63.17-17.62c34.37,18.55,77.56,20.73,113.65,5.78a19,19,0,0,1-8-8.56c-2.09-4.22-3-8.84-3.82-13.31a85.18,85.18,0,0,1-1.76-12.78,1,1,0,0,1-.75-.87c-.93-8.81-6.08-17.8-14.52-25.32s-18.05-11.9-27.37-12.61C188.57,80,178,84.34,172.32,91.92c-2.61,3.48-4.3,7.52-6.08,12.07L165,107.22C159.19,122.05,153.21,137.38,141.75,148.43Z" fill="#093f68"/><path d="M151.07,100.19a66.27,66.27,0,0,1,4.09-21.08,28.77,28.77,0,0,1,7.33-11.2,23.07,23.07,0,0,1,5.58-3.68c.93-.44,6-1.39,6.3-2C180.6,50.87,196.62,48.11,207,50.87c15,4,29.38,12.8,36.25,27.19,3.14,6.58,6.47,15.09,5.53,22.38a56.78,56.78,0,0,1-10.67,26.94c-6.27,8.27-19.2,18.78-30.42,16.58-5.56-1.09-11-2.83-16.65-3.84a70.09,70.09,0,0,1-20.33-6.49c-8.57-4.52-16-12-18.45-21.38A43.17,43.17,0,0,1,151.07,100.19Z" fill="#725858"/><path d="M210.81,145.25a16.92,16.92,0,0,1-3.29-.31c-2.61-.51-5.24-1.18-7.77-1.82-2.88-.73-5.87-1.48-8.85-2-8.41-1.51-15-3.6-20.63-6.58-9.69-5.11-16.59-13.13-19-22a44,44,0,0,1-1.25-12.35,67,67,0,0,1,4.16-21.41,29.36,29.36,0,0,1,7.6-11.58,23.86,23.86,0,0,1,5.81-3.85,19.37,19.37,0,0,1,2.63-.76,28.85,28.85,0,0,0,3.32-1c3.79-6.78,10.38-9.89,15.26-11.31a35.37,35.37,0,0,1,18.44-.39c10.11,2.68,28.36,9.86,36.89,27.72,2.9,6.07,6.64,15.06,5.62,22.94A57.55,57.55,0,0,1,238.93,128a53.16,53.16,0,0,1-13.62,12.46C220.23,143.62,215.28,145.25,210.81,145.25ZM199,50.87c-9.29,0-19.33,3.83-23.73,11.87-.35.65-1.22.94-4.49,1.76-.89.23-2,.5-2.27.63a22,22,0,0,0-5.33,3.53,27.42,27.42,0,0,0-7.06,10.81,64.88,64.88,0,0,0-4,20.74h0A42,42,0,0,0,153.25,112c2.22,8.34,8.76,15.9,18,20.75,5.47,2.88,11.84,4.91,20,6.38,3.06.55,6.07,1.32,9,2.05,2.51.64,5.11,1.3,7.67,1.8,11,2.14,23.6-8.51,29.43-16.2a55.45,55.45,0,0,0,10.47-26.47c.95-7.35-2.64-16-5.43-21.82-3.52-7.35-12.81-20.59-35.61-26.65A30.34,30.34,0,0,0,199,50.87Zm-47.91,49.32h0Z" fill="#093f68"/><polyline points="193.36 172.96 193.36 165.08 207.06 165.08 207.06 172.96" fill="#ffc9b0"/><path d="M207.06,174a1,1,0,0,1-1-1v-6.88h-11.7V173a1,1,0,1,1-2,0v-7.88a1,1,0,0,1,1-1h13.7a1,1,0,0,1,1,1V173A1,1,0,0,1,207.06,174Z" fill="#093f68"/><rect x="159.7" y="99.14" width="7.32" height="44.66" transform="translate(-40.01 112.55) rotate(-34.12)" fill="#68e1fd"/><path d="M172.86,143a1,1,0,0,1-.83-.44L147,105.6a1,1,0,0,1-.16-.75,1.06,1.06,0,0,1,.43-.64l6.06-4.11a1,1,0,0,1,1.39.27l25.05,37a1,1,0,0,1-.27,1.39l-6.06,4.1A1,1,0,0,1,172.86,143ZM149.2,105.3l23.93,35.32,4.4-3L153.6,102.32Z" fill="#093f68"/><polygon points="143.21 91.72 147.81 105.03 153.87 100.93 143.21 91.72" fill="#fff"/><path d="M147.81,106a.87.87,0,0,1-.32-.06,1,1,0,0,1-.63-.62l-4.6-13.31a1,1,0,0,1,1.6-1.09l10.66,9.21a1,1,0,0,1,.35.82,1,1,0,0,1-.44.77l-6.06,4.1A1,1,0,0,1,147.81,106Zm-2.44-11.13,3,8.57,3.9-2.65Z" fill="#093f68"/><ellipse cx="161.06" cy="129.49" rx="13.31" ry="11.47" fill="#ffc9b0"/><path d="M161.06,142c-7.89,0-14.31-5.59-14.31-12.47S153.17,117,161.06,117s14.31,5.6,14.31,12.47S169,142,161.06,142Zm0-22.94c-6.78,0-12.31,4.7-12.31,10.47S154.28,140,161.06,140s12.31-4.69,12.31-10.47S167.85,119,161.06,119Z" fill="#093f68"/><ellipse cx="238.66" cy="129.49" rx="13.31" ry="11.47" fill="#ffc9b0"/><path d="M238.66,142c-7.89,0-14.31-5.59-14.31-12.47S230.77,117,238.66,117,253,122.62,253,129.49,246.55,142,238.66,142Zm0-22.94c-6.79,0-12.31,4.7-12.31,10.47S231.87,140,238.66,140,251,135.27,251,129.49,245.44,119,238.66,119Z" fill="#093f68"/><path d="M230.22,109c1.15.61,2.28,1.24,3.4,1.92,7.66,4.67,6.73,7.38,6.73,15.83a40.15,40.15,0,0,1-76.65,16.7c-3.89-8.51-7.39-24.8-1.24-32.83,3.09-4,7.46-6.89,11.06-10.48a36.7,36.7,0,0,0,10.53-22.23,103,103,0,0,0,31.06,23.9C220.09,104.29,225.29,106.37,230.22,109Z" fill="#ffc9b0"/><path d="M200.21,167.88a41.28,41.28,0,0,1-37.42-24c-3.91-8.55-7.68-25.3-1.12-33.86a45.3,45.3,0,0,1,6.88-6.76c1.44-1.22,2.93-2.49,4.27-3.82a36,36,0,0,0,10.24-21.62,1,1,0,0,1,.69-.85,1,1,0,0,1,1.05.29,102.82,102.82,0,0,0,30.76,23.67C217.73,102,220,103,222.17,104c2.82,1.28,5.73,2.61,8.52,4.09,1.23.65,2.36,1.29,3.44,2,7.36,4.48,7.33,7.54,7.24,14.24,0,.76,0,1.57,0,2.44A41.19,41.19,0,0,1,200.21,167.88Zm-15.44-87.7a37.51,37.51,0,0,1-10.54,20.64c-1.4,1.4-2.91,2.69-4.38,3.93a42.93,42.93,0,0,0-6.59,6.46c-5.71,7.44-2.64,23.08,1.35,31.81a39.14,39.14,0,0,0,74.74-16.29c0-.88,0-1.7,0-2.46.08-6.45.11-8.63-6.28-12.51-1.05-.64-2.14-1.26-3.34-1.9h0c-2.74-1.45-5.62-2.76-8.41-4-2.2-1-4.47-2-6.67-3.14A104.92,104.92,0,0,1,184.77,80.18Z" fill="#093f68"/><circle cx="183.96" cy="121.39" r="3.61" fill="#093f68"/><circle cx="216.47" cy="121.39" r="3.61" fill="#093f68"/><path d="M200.62,137.78a31.73,31.73,0,0,1-3.78-.23,1,1,0,1,1,.25-2,24.2,24.2,0,0,0,6.4,0c.37-1-1.14-5.49-3.3-9.82a1,1,0,0,1,.45-1.34,1,1,0,0,1,1.34.44c1.05,2.12,4.41,9.2,3.3,11.62a1.82,1.82,0,0,1-1.21,1A15.2,15.2,0,0,1,200.62,137.78Z" fill="#093f68"/><path d="M191.86,109.54l-.25,0-17.52-2.19a2,2,0,1,1,.49-4l17.53,2.19a2,2,0,0,1-.25,4Z" fill="#093f68"/><path d="M208.57,109.54a2,2,0,0,1-.25-4l17.53-2.19a2,2,0,1,1,.49,4l-17.52,2.19Z" fill="#093f68"/><path d="M199.19,148.25a24.42,24.42,0,0,1-12.11-3.12,1,1,0,0,1,1-1.74c11.28,6.34,23.34,0,23.46,0a1,1,0,1,1,.95,1.76A30.37,30.37,0,0,1,199.19,148.25Z" fill="#093f68"/><path d="M183.41,172.62H217a21.71,21.71,0,0,1,21.71,21.71v47.34a0,0,0,0,1,0,0h-77a0,0,0,0,1,0,0V194.34A21.71,21.71,0,0,1,183.41,172.62Z" fill="#68e1fd"/><path d="M238.73,242.68h-77a1,1,0,0,1-1-1V194.34a22.73,22.73,0,0,1,22.71-22.72H217a22.74,22.74,0,0,1,22.71,22.72v47.34A1,1,0,0,1,238.73,242.68Zm-76-2h75V194.34A20.74,20.74,0,0,0,217,173.62H183.41a20.74,20.74,0,0,0-20.71,20.72Z" fill="#093f68"/><path d="M177,191.19s-4.89,4.41-4.89,12.9A23.48,23.48,0,0,0,177,218.27" fill="#68e1fd"/><path d="M177,219.27a1,1,0,0,1-.75-.35,24.26,24.26,0,0,1-5.14-14.83c0-8.83,5-13.45,5.23-13.64a1,1,0,0,1,1.41.08,1,1,0,0,1-.07,1.41,17.13,17.13,0,0,0-4.57,12.15,22.7,22.7,0,0,0,4.65,13.53,1,1,0,0,1-.1,1.41A1,1,0,0,1,177,219.27Z" fill="#093f68"/><path d="M223.13,191.19s4.89,4.41,4.89,12.9a23.48,23.48,0,0,1-4.89,14.18" fill="#68e1fd"/><path d="M223.13,219.27a1,1,0,0,1-.76-1.65A22.62,22.62,0,0,0,227,204.09a17.19,17.19,0,0,0-4.56-12.15,1,1,0,0,1,1.34-1.49c.21.19,5.22,4.81,5.22,13.64a24.28,24.28,0,0,1-5.13,14.83A1,1,0,0,1,223.13,219.27Z" fill="#093f68"/><path d="M175.4,239.17a1,1,0,0,1-1-1V216a1,1,0,0,1,2,0v22.18A1,1,0,0,1,175.4,239.17Z" fill="#093f68"/><path d="M200.21,190.62c-8.38,0-20.47-18-20.47-18h40.95S208.6,190.62,200.21,190.62Z" fill="#fff"/><path d="M200.21,191.62c-8.81,0-20.8-17.69-21.3-18.44a1,1,0,0,1-.06-1,1,1,0,0,1,.89-.53h40.95a1,1,0,0,1,.88.53,1,1,0,0,1,0,1C221,173.93,209,191.62,200.21,191.62Zm-18.56-18c4,5.59,12.73,16,18.56,16s14.54-10.41,18.56-16Z" fill="#093f68"/><path d="M185.33,172.62s5.92,6,8.64,5.24,6.14-5.24,6.14-5.24Z" fill="#fff"/><path d="M193.5,178.92c-3.18,0-7.9-4.6-8.88-5.59a1,1,0,0,1,.71-1.71h14.78a1,1,0,0,1,.79,1.61c-.37.49-3.7,4.78-6.66,5.59A2.64,2.64,0,0,1,193.5,178.92Zm-5.63-5.3c2.3,2,4.79,3.56,5.83,3.28,1.33-.37,3-1.94,4.25-3.28Z" fill="#093f68"/><path d="M215.09,172.62s-5.91,6-8.63,5.24-6.14-5.24-6.14-5.24Z" fill="#fff"/><path d="M206.93,178.92a2.59,2.59,0,0,1-.74-.1c-3-.81-6.3-5.1-6.67-5.59a1,1,0,0,1-.1-1,1,1,0,0,1,.9-.56h14.77a1,1,0,0,1,.93.62,1,1,0,0,1-.22,1.09C214.83,174.31,210.11,178.92,206.93,178.92Zm-4.46-5.3c1.24,1.34,2.93,2.91,4.25,3.28,1.05.28,3.53-1.29,5.84-3.28Zm12.62,0h0Z" fill="#093f68"/><path d="M200.32,191.62a1,1,0,0,1-1-1v-18a1,1,0,0,1,2,0v18A1,1,0,0,1,200.32,191.62Z" fill="#093f68"/><path d="M270.78,211.41c.21-1.16.3-2.51-.52-3.35a2.54,2.54,0,0,0-2.77-.42,5.57,5.57,0,0,0-2.23,1.92c-1.91,2.53-5.81,12.27.22,12.42C269.36,222.08,270.31,214.09,270.78,211.41Z" fill="#ffc9b0"/><path d="M265.56,223h-.1a3.88,3.88,0,0,1-3.71-2.18c-1.68-3.49,1.3-10,2.71-11.84a6.71,6.71,0,0,1,2.65-2.25,3.55,3.55,0,0,1,3.87.65c1.15,1.19,1,2.88.78,4.22l-.13.79C271.07,215.82,269.89,223,265.56,223Zm3.06-14.56a2,2,0,0,0-.75.14,4.68,4.68,0,0,0-1.81,1.6c-1.51,2-3.6,7.5-2.51,9.78a1.93,1.93,0,0,0,2,1h0c2.64,0,3.71-6.49,4.11-8.94l.14-.8h0c.14-.81.27-2-.25-2.49A1.31,1.31,0,0,0,268.62,208.42Z" fill="#093f68"/><path d="M265.63,187.38V244.6a3.44,3.44,0,0,1-3.37,3.52H219a3.45,3.45,0,0,1-3.38-3.52V187.38a3.45,3.45,0,0,1,3.38-3.52h43.22A3.44,3.44,0,0,1,265.63,187.38Z" fill="#f56132"/><path d="M262.26,249.12H219a4.46,4.46,0,0,1-4.38-4.52V187.38a4.46,4.46,0,0,1,4.38-4.52h43.22a4.45,4.45,0,0,1,4.37,4.52V244.6A4.45,4.45,0,0,1,262.26,249.12ZM219,184.86a2.46,2.46,0,0,0-2.38,2.52V244.6a2.46,2.46,0,0,0,2.38,2.52h43.22a2.45,2.45,0,0,0,2.37-2.52V187.38a2.45,2.45,0,0,0-2.37-2.52Z" fill="#093f68"/><path d="M265.63,187.38v18h-50v-18a3.45,3.45,0,0,1,3.38-3.52h43.22A3.44,3.44,0,0,1,265.63,187.38Z" fill="#f56132"/><path d="M265.63,206.4h-50a1,1,0,0,1-1-1v-18a4.46,4.46,0,0,1,4.38-4.52h43.22a4.45,4.45,0,0,1,4.37,4.52v18A1,1,0,0,1,265.63,206.4Zm-49-2h48v-17a2.45,2.45,0,0,0-2.37-2.52H219a2.46,2.46,0,0,0-2.38,2.52Z" fill="#093f68"/><rect x="220.06" y="209.15" width="41.18" height="32.95" rx="2.38" fill="#fff"/><path d="M258.85,243.1H222.44a3.38,3.38,0,0,1-3.38-3.38V211.53a3.38,3.38,0,0,1,3.38-3.38h36.41a3.38,3.38,0,0,1,3.38,3.38v28.19A3.38,3.38,0,0,1,258.85,243.1Zm-36.41-32.95a1.38,1.38,0,0,0-1.38,1.38v28.19a1.38,1.38,0,0,0,1.38,1.38h36.41a1.38,1.38,0,0,0,1.38-1.38V211.53a1.38,1.38,0,0,0-1.38-1.38Z" fill="#093f68"/><rect x="220.06" y="188.82" width="41.18" height="13.07" fill="#fff"/><path d="M261.23,202.89H220.06a1,1,0,0,1-1-1V188.82a1,1,0,0,1,1-1h41.17a1,1,0,0,1,1,1v13.07A1,1,0,0,1,261.23,202.89Zm-40.17-2h39.17V189.82H221.06Z" fill="#093f68"/><path d="M233.63,243.1a1,1,0,0,1-1-1V209.15a1,1,0,1,1,2,0V242.1A1,1,0,0,1,233.63,243.1Z" fill="#093f68"/><path d="M247.27,243.1a1,1,0,0,1-1-1V209.15a1,1,0,0,1,2,0V242.1A1,1,0,0,1,247.27,243.1Z" fill="#093f68"/><path d="M260.84,221.31H220.06a1,1,0,0,1,0-2h40.78a1,1,0,0,1,0,2Z" fill="#093f68"/><path d="M260.84,231.94H220.06a1,1,0,0,1,0-2h40.78a1,1,0,0,1,0,2Z" fill="#093f68"/><path d="M229.3,198.73h-5a1,1,0,0,1,0-2h5a1,1,0,0,1,0,2Z" fill="#093f68"/><path d="M235.55,198.73h-2.93a1,1,0,0,1,0-2h2.93a1,1,0,0,1,0,2Z" fill="#093f68"/><rect x="252.83" y="221.84" width="19.8" height="5.51" rx="2.76" transform="translate(467.3 503.2) rotate(-166.82)" fill="#ffc9b0"/><path d="M269.69,230a3.69,3.69,0,0,1-.87-.1l-13.91-3.26h0a3.75,3.75,0,0,1,1.71-7.31l13.91,3.26a3.76,3.76,0,0,1,2.33,1.68,3.71,3.71,0,0,1,.47,2.83,3.75,3.75,0,0,1-3.65,2.9Zm-13.92-8.77a1.68,1.68,0,0,0-.92.27,1.76,1.76,0,0,0,.52,3.2h0l13.91,3.26a1.77,1.77,0,0,0,1.33-.22,1.8,1.8,0,0,0,.78-1.09,1.76,1.76,0,0,0-1.31-2.11l-13.91-3.26A1.83,1.83,0,0,0,255.77,221.21Z" fill="#093f68"/><rect x="251.57" y="227.21" width="19.8" height="5.51" rx="2.76" transform="translate(463.59 513.5) rotate(-166.82)" fill="#ffc9b0"/><path d="M268.43,235.35a3.55,3.55,0,0,1-.86-.1L253.66,232h0a3.75,3.75,0,1,1,1.71-7.31l13.91,3.26a3.75,3.75,0,0,1,2.8,4.51,3.78,3.78,0,0,1-3.65,2.9ZM254.11,230,268,233.3a1.73,1.73,0,0,0,1.33-.22,1.68,1.68,0,0,0,.78-1.09,1.75,1.75,0,0,0-1.31-2.11l-13.91-3.26a1.8,1.8,0,0,0-1.32.22,1.73,1.73,0,0,0-.78,1.09,1.77,1.77,0,0,0,.21,1.33,1.73,1.73,0,0,0,1.09.78Z" fill="#093f68"/><rect x="250.31" y="232.57" width="19.8" height="5.51" rx="2.76" transform="translate(459.89 523.81) rotate(-166.82)" fill="#ffc9b0"/><path d="M267.17,240.71a3.67,3.67,0,0,1-.86-.1l-13.91-3.26h0a3.66,3.66,0,0,1-2.33-1.67,3.76,3.76,0,0,1,4-5.64L268,233.3a3.75,3.75,0,0,1-.85,7.41Zm-14.31-5.3,13.91,3.26a1.75,1.75,0,0,0,1.32-.22,1.78,1.78,0,0,0,.79-1.09,1.76,1.76,0,0,0-1.31-2.11L253.66,232a1.76,1.76,0,0,0-2.11,1.31,1.7,1.7,0,0,0,.22,1.32,1.73,1.73,0,0,0,1.09.79Z" fill="#093f68"/><rect x="249.06" y="237.94" width="19.8" height="5.51" rx="2.76" transform="translate(456.18 534.11) rotate(-166.82)" fill="#ffc9b0"/><path d="M265.92,246.08a3.69,3.69,0,0,1-.87-.1l-13.91-3.26h0a3.75,3.75,0,1,1,1.72-7.31l13.91,3.26a3.75,3.75,0,0,1,1.12,6.84A3.67,3.67,0,0,1,265.92,246.08Zm-14.32-5.31L265.51,244a1.73,1.73,0,0,0,1.33-.22,1.76,1.76,0,0,0-.53-3.2l-13.91-3.26a1.77,1.77,0,0,0-2.11,1.31,1.73,1.73,0,0,0,.22,1.33,1.7,1.7,0,0,0,1.09.78Z" fill="#093f68"/><rect x="130.56" y="234.89" width="57.11" height="11.8" fill="#70cc40"/><path d="M187.67,247.69H130.56a1,1,0,0,1-1-1V234.9a1,1,0,0,1,1-1h57.11a1,1,0,0,1,1,1v11.79A1,1,0,0,1,187.67,247.69Zm-56.11-2h55.11V235.9H131.56Z" fill="#093f68"/><rect x="149.75" y="234.89" width="18.73" height="11.8" fill="#fff"/><path d="M168.48,247.69H149.75a1,1,0,0,1-1-1V234.9a1,1,0,0,1,1-1h18.73a1,1,0,0,1,1,1v11.79A1,1,0,0,1,168.48,247.69Zm-17.73-2h16.73V235.9H150.75Z" fill="#093f68"/><rect x="127.56" y="223.09" width="57.11" height="11.8" fill="#70cc40"/><path d="M184.67,235.9H127.56a1,1,0,0,1-1-1V223.09a1,1,0,0,1,1-1h57.11a1,1,0,0,1,1,1V234.9A1,1,0,0,1,184.67,235.9Zm-56.11-2h55.11v-9.81H128.56Z" fill="#093f68"/><rect x="146.75" y="223.09" width="18.73" height="11.8" fill="#fff"/><path d="M165.48,235.9H146.75a1,1,0,0,1-1-1V223.09a1,1,0,0,1,1-1h18.73a1,1,0,0,1,1,1V234.9A1,1,0,0,1,165.48,235.9Zm-17.73-2h16.73v-9.81H147.75Z" fill="#093f68"/><rect x="133.23" y="217.19" width="18.77" height="5.9" fill="#ffbc0e"/><path d="M152,224.09H133.23a1,1,0,0,1-1-1v-5.9a1,1,0,0,1,1-1H152a1,1,0,0,1,1,1v5.9A1,1,0,0,1,152,224.09Zm-17.78-2H151v-3.9H134.23Z" fill="#093f68"/><rect x="136.29" y="210.83" width="18.77" height="5.9" fill="#ffbc0e"/><path d="M155.06,217.73H136.29a1,1,0,0,1-1-1v-5.9a1,1,0,0,1,1-1h18.77a1,1,0,0,1,1,1v5.9A1,1,0,0,1,155.06,217.73Zm-17.77-2h16.77v-3.9H137.29Z" fill="#093f68"/><rect x="157.16" y="211.29" width="18.77" height="5.9" fill="#ffbc0e"/><path d="M175.93,218.19H157.16a1,1,0,0,1-1-1v-5.9a1,1,0,0,1,1-1h18.77a1,1,0,0,1,1,1v5.9A1,1,0,0,1,175.93,218.19Zm-17.77-2h16.77v-3.9H158.16Z" fill="#093f68"/><rect x="154.31" y="217.19" width="18.77" height="5.9" fill="#ffbc0e"/><path d="M173.08,224.09H154.31a1,1,0,0,1-1-1v-5.9a1,1,0,0,1,1-1h18.77a1,1,0,0,1,1,1v5.9A1,1,0,0,1,173.08,224.09Zm-17.77-2h16.77v-3.9H155.31Z" fill="#093f68"/><circle cx="143.56" cy="181.62" r="10.32" fill="#ffbc0e"/><path d="M143.56,193a11.33,11.33,0,1,1,11.32-11.33A11.34,11.34,0,0,1,143.56,193Zm0-20.65a9.33,9.33,0,1,0,9.32,9.32A9.34,9.34,0,0,0,143.56,172.3Z" fill="#093f68"/><path d="M148,199.47a1,1,0,0,1-.88-.52c-2.18-4,1.92-9.66,2.1-9.9a1,1,0,1,1,1.61,1.18c-1,1.35-3.26,5.38-2,7.76a1,1,0,0,1-.4,1.36A1,1,0,0,1,148,199.47Z" fill="#093f68"/></g></svg>