<svg xmlns="http://www.w3.org/2000/svg" viewBox="0 0 400 300"><g id="_279_alien_outline" data-name="#279_alien_outline"><rect x="81.91" y="61.22" width="236.18" height="177.56" fill="#fff"/><path d="M318.09,239.78H81.91a1,1,0,0,1-1-1V61.22a1,1,0,0,1,1-1H318.09a1,1,0,0,1,1,1V238.78A1,1,0,0,1,318.09,239.78Zm-235.18-2H317.09V62.22H82.91Z" fill="#093f68"/><path d="M318.09,215v23.76H81.91V215c29.77-11.49,71.67-18.64,118.09-18.64S288.32,203.53,318.09,215Z" fill="#fff"/><path d="M318.09,239.78H81.91a1,1,0,0,1-1-1V215a1,1,0,0,1,.64-.94C112.8,202,154.87,195.38,200,195.38s87.2,6.64,118.45,18.7a1,1,0,0,1,.64.94v23.76A1,1,0,0,1,318.09,239.78Zm-235.18-2H317.09V215.71c-31-11.83-72.51-18.33-117.09-18.33s-86.13,6.5-117.09,18.33Z" fill="#093f68"/><path d="M148.51,148.29h103a13.79,13.79,0,0,1,13.79,13.79v51a0,0,0,0,1,0,0H134.73a0,0,0,0,1,0,0v-51A13.79,13.79,0,0,1,148.51,148.29Z" fill="#093f68"/><path d="M265.27,214H134.73a1,1,0,0,1-1-1v-51a14.8,14.8,0,0,1,14.78-14.78h103a14.8,14.8,0,0,1,14.78,14.78v51A1,1,0,0,1,265.27,214Zm-129.54-2H264.27v-50a12.79,12.79,0,0,0-12.78-12.78h-103a12.79,12.79,0,0,0-12.78,12.78Z" fill="#093f68"/><path d="M139.81,104.87h13.6a0,0,0,0,1,0,0V144a0,0,0,0,1,0,0h-13.6a7.71,7.71,0,0,1-7.71-7.71V112.58A7.71,7.71,0,0,1,139.81,104.87Z" fill="#68e1fd"/><path d="M153.4,145H139.81a8.71,8.71,0,0,1-8.71-8.71V112.58a8.72,8.72,0,0,1,8.71-8.71H153.4a1,1,0,0,1,1,1V144A1,1,0,0,1,153.4,145Zm-13.59-39.13a6.72,6.72,0,0,0-6.71,6.71v23.71a6.72,6.72,0,0,0,6.71,6.71H152.4V105.87Z" fill="#093f68"/><path d="M246.6,104.87h13.6a7.71,7.71,0,0,1,7.71,7.71v23.71a7.71,7.71,0,0,1-7.71,7.71H246.6a0,0,0,0,1,0,0V104.87A0,0,0,0,1,246.6,104.87Z" fill="#68e1fd"/><path d="M260.19,145H246.6a1,1,0,0,1-1-1V104.87a1,1,0,0,1,1-1h13.59a8.72,8.72,0,0,1,8.71,8.71v23.71A8.71,8.71,0,0,1,260.19,145Zm-12.59-2h12.59a6.72,6.72,0,0,0,6.71-6.71V112.58a6.72,6.72,0,0,0-6.71-6.71H247.6Z" fill="#093f68"/><ellipse cx="200" cy="121.3" rx="60.89" ry="52.19" fill="#68e1fd"/><path d="M200,174.49c-34.13,0-61.89-23.86-61.89-53.19S165.87,68.11,200,68.11,261.89,92,261.89,121.3,234.13,174.49,200,174.49Zm0-104.38c-33,0-59.89,23-59.89,51.19S167,172.49,200,172.49s59.89-23,59.89-51.19S233,70.11,200,70.11Z" fill="#093f68"/><path d="M246.6,114.13c0,12.4-9,23.26-22.51,29.24a61.44,61.44,0,0,1-48.18,0c-13.49-6-22.51-16.84-22.51-29.24C153.4,95.26,174.27,80,200,80S246.6,95.26,246.6,114.13Z" fill="#093f68"/><path d="M200,149.29a61,61,0,0,1-24.5-5c-14.46-6.41-23.1-17.68-23.1-30.15C152.4,94.75,173.75,79,200,79s47.6,15.77,47.6,35.15c0,12.47-8.64,23.74-23.1,30.15A61,61,0,0,1,200,149.29ZM200,81c-25.14,0-45.6,14.87-45.6,33.15,0,11.65,8.19,22.24,21.92,28.32a60.35,60.35,0,0,0,47.36,0c13.73-6.08,21.92-16.67,21.92-28.32C245.6,95.85,225.14,81,200,81Z" fill="#093f68"/><path d="M163.52,166.08h73a36.69,36.69,0,0,1,36.69,36.69v36a0,0,0,0,1,0,0H126.82a0,0,0,0,1,0,0v-36A36.69,36.69,0,0,1,163.52,166.08Z" fill="#68e1fd"/><path d="M273.17,239.78H126.83a1,1,0,0,1-1-1v-36a37.73,37.73,0,0,1,37.69-37.69h73a37.73,37.73,0,0,1,37.69,37.69v36A1,1,0,0,1,273.17,239.78Zm-145.34-2H272.17v-35a35.73,35.73,0,0,0-35.69-35.69h-73a35.73,35.73,0,0,0-35.69,35.69Z" fill="#093f68"/><rect x="153.4" y="156.43" width="93.19" height="9.65" rx="3.77" fill="#68e1fd"/><path d="M242.82,167.08H157.18a4.78,4.78,0,0,1-4.78-4.77V160.2a4.78,4.78,0,0,1,4.78-4.77h85.64a4.78,4.78,0,0,1,4.78,4.77v2.11A4.78,4.78,0,0,1,242.82,167.08Zm-85.64-9.65a2.78,2.78,0,0,0-2.78,2.77v2.11a2.78,2.78,0,0,0,2.78,2.77h85.64a2.78,2.78,0,0,0,2.78-2.77V160.2a2.78,2.78,0,0,0-2.78-2.77Z" fill="#093f68"/><path d="M200,239.78a1,1,0,0,1-1-1v-72.7a1,1,0,0,1,2,0v72.7A1,1,0,0,1,200,239.78Z" fill="#093f68"/><path d="M152,239.78a1,1,0,0,1-1-1V190.46a1,1,0,0,1,2,0v48.32A1,1,0,0,1,152,239.78Z" fill="#093f68"/><path d="M248,239.78a1,1,0,0,1-1-1V190.46a1,1,0,0,1,2,0v48.32A1,1,0,0,1,248,239.78Z" fill="#093f68"/><path d="M224.09,143.37a61.44,61.44,0,0,1-48.18,0C170.93,119.55,142.75,89,200,89S229.07,119.55,224.09,143.37Z" fill="#70cc40"/><path d="M200,149.29a61,61,0,0,1-24.5-5,1,1,0,0,1-.57-.71c-1.07-5.12-3.28-10.67-5.41-16-4.51-11.35-8.76-22.06-3.54-29.76,4.48-6.6,15.6-9.8,34-9.8s29.54,3.2,34,9.8c5.22,7.7,1,18.41-3.54,29.76-2.13,5.37-4.34,10.92-5.41,16a1,1,0,0,1-.57.71A61,61,0,0,1,200,149.29Zm-23.22-6.63a60.54,60.54,0,0,0,46.44,0,107.77,107.77,0,0,1,5.4-15.87c4.31-10.84,8.37-21.07,3.74-27.9C228.29,92.89,217.7,90,200,90s-28.29,2.92-32.36,8.92c-4.63,6.83-.57,17.06,3.74,27.9A107.77,107.77,0,0,1,176.78,142.66Zm47.31.71h0Z" fill="#093f68"/><circle cx="200" cy="114.54" r="14.41" fill="#fff"/><path d="M200,130a15.41,15.41,0,1,1,15.41-15.41A15.42,15.42,0,0,1,200,130Zm0-28.82a13.41,13.41,0,1,0,13.41,13.41A13.43,13.43,0,0,0,200,101.13Z" fill="#093f68"/><circle cx="200" cy="114.84" r="4.48" fill="#093f68"/><path d="M200,120.31a5.48,5.48,0,1,1,5.48-5.47A5.48,5.48,0,0,1,200,120.31Zm0-9a3.48,3.48,0,1,0,3.48,3.48A3.48,3.48,0,0,0,200,111.36Z" fill="#093f68"/><circle cx="174.36" cy="119.58" r="11.23" fill="#fff"/><path d="M174.36,131.8a12.23,12.23,0,1,1,12.23-12.22A12.24,12.24,0,0,1,174.36,131.8Zm0-22.45a10.23,10.23,0,1,0,10.23,10.23A10.24,10.24,0,0,0,174.36,109.35Z" fill="#093f68"/><circle cx="174.36" cy="119.07" r="3.49" fill="#093f68"/><path d="M174.36,123.56a4.49,4.49,0,1,1,4.49-4.49A4.49,4.49,0,0,1,174.36,123.56Zm0-7a2.49,2.49,0,1,0,2.49,2.49A2.49,2.49,0,0,0,174.36,116.58Z" fill="#093f68"/><circle cx="225.64" cy="119.58" r="11.23" fill="#fff"/><path d="M225.64,131.8a12.23,12.23,0,1,1,12.23-12.22A12.23,12.23,0,0,1,225.64,131.8Zm0-22.45a10.23,10.23,0,1,0,10.23,10.23A10.24,10.24,0,0,0,225.64,109.35Z" fill="#093f68"/><circle cx="225.64" cy="119.07" r="3.49" fill="#093f68"/><path d="M225.64,123.56a4.49,4.49,0,1,1,4.48-4.49A4.5,4.5,0,0,1,225.64,123.56Zm0-7a2.49,2.49,0,1,0,2.48,2.49A2.5,2.5,0,0,0,225.64,116.58Z" fill="#093f68"/><path d="M172.07,207.89h58.29a5,5,0,0,1,5,5v25.85a0,0,0,0,1,0,0H167a0,0,0,0,1,0,0V212.94A5,5,0,0,1,172.07,207.89Z" fill="#68e1fd"/><path d="M235.4,239.78H167a1,1,0,0,1-1-1V212.94a6.06,6.06,0,0,1,6-6.05h58.29a6,6,0,0,1,6,6.05v25.84A1,1,0,0,1,235.4,239.78Zm-67.38-2H234.4V212.94a4,4,0,0,0-4-4.05H172.07a4.05,4.05,0,0,0-4,4.05Z" fill="#093f68"/><circle cx="178.05" cy="218.41" r="3.6" fill="#f56132"/><path d="M178.05,223a4.6,4.6,0,1,1,4.6-4.6A4.6,4.6,0,0,1,178.05,223Zm0-7.2a2.6,2.6,0,1,0,2.6,2.6A2.6,2.6,0,0,0,178.05,215.81Z" fill="#093f68"/><circle cx="191.24" cy="218.41" r="3.6" fill="#ffbc0e"/><path d="M191.24,223a4.6,4.6,0,1,1,4.59-4.6A4.61,4.61,0,0,1,191.24,223Zm0-7.2a2.6,2.6,0,1,0,2.59,2.6A2.61,2.61,0,0,0,191.24,215.81Z" fill="#093f68"/><path d="M235.4,190.43H212.48a1,1,0,1,1,0-2H235.4a1,1,0,1,1,0,2Z" fill="#093f68"/><path d="M91.29,216.37s-.79-10.2,1.08-11.52,16.15-6.59,18.78-5.66,5.44,8.7,5.44,8.7" fill="#fff"/><path d="M91.29,217.37a1,1,0,0,1-1-.92c-.25-3.24-.6-10.93,1.51-12.42,1.82-1.27,16.52-6.91,19.68-5.78,2.93,1.05,5.55,7.93,6,9.3a1,1,0,0,1-1.88.68c-1.11-3-3.34-7.56-4.84-8.1-.54-.19-3,0-9,2A57.11,57.11,0,0,0,93,205.67c-.74.62-1,5.58-.66,10.62a1,1,0,0,1-.92,1.08Z" fill="#093f68"/><path d="M297.43,123.66a12.27,12.27,0,1,1,12.27-12.27A12.28,12.28,0,0,1,297.43,123.66Zm0-22.53a10.27,10.27,0,1,0,10.27,10.26A10.27,10.27,0,0,0,297.43,101.13Z" fill="#dfeaef"/><circle cx="287.81" cy="182.29" r="4.64" fill="#fff"/><path d="M287.81,187.93a5.64,5.64,0,1,1,5.64-5.64A5.65,5.65,0,0,1,287.81,187.93Zm0-9.28a3.64,3.64,0,1,0,3.64,3.64A3.65,3.65,0,0,0,287.81,178.65Z" fill="#dfeaef"/><path d="M122.36,100.43a13.72,13.72,0,1,1,12.37-19.58h0a13.72,13.72,0,0,1-12.37,19.58Zm0-25.43a11.71,11.71,0,1,0,10.59,6.7h0A11.75,11.75,0,0,0,122.33,75Z" fill="#dfeaef"/><path d="M103.73,98.31c-2.12,0-2.49-.79-2.69-1.2-.35-.75-1.29-2.73,8.33-8.66a1,1,0,0,1,1,1.7c-5.6,3.46-7.25,5.43-7.51,6.07.67.22,3.27.19,9.6-2a112.44,112.44,0,0,0,11.2-4.62,109.56,109.56,0,0,0,10.66-5.73c5.71-3.51,7.38-5.5,7.63-6.15-.65-.21-3.22-.19-9.44,2a1,1,0,1,1-.65-1.89c10.67-3.67,11.61-1.69,12-1s1.3,2.75-8.45,8.75a116,116,0,0,1-10.86,5.83,115.32,115.32,0,0,1-11.39,4.7C108.31,97.79,105.44,98.31,103.73,98.31Z" fill="#dfeaef"/><path d="M300.21,142.23a1,1,0,0,1-1-1v-4.44a1,1,0,0,1,2,0v4.44A1,1,0,0,1,300.21,142.23Z" fill="#dfeaef"/><path d="M300.21,152.22a1,1,0,0,1-1-1v-4.44a1,1,0,0,1,2,0v4.44A1,1,0,0,1,300.21,152.22Z" fill="#dfeaef"/><path d="M307.43,145H303a1,1,0,0,1,0-2h4.44a1,1,0,0,1,0,2Z" fill="#dfeaef"/><path d="M297.43,145H293a1,1,0,0,1,0-2h4.43a1,1,0,0,1,0,2Z" fill="#dfeaef"/><path d="M280.39,85.19a1,1,0,0,1-1-1V79.75a1,1,0,0,1,2,0v4.44A1,1,0,0,1,280.39,85.19Z" fill="#dfeaef"/><path d="M280.39,95.19a1,1,0,0,1-1-1V89.75a1,1,0,0,1,2,0v4.44A1,1,0,0,1,280.39,95.19Z" fill="#dfeaef"/><path d="M287.61,88h-4.44a1,1,0,0,1,0-2h4.44a1,1,0,0,1,0,2Z" fill="#dfeaef"/><path d="M277.61,88h-4.44a1,1,0,0,1,0-2h4.44a1,1,0,0,1,0,2Z" fill="#dfeaef"/><path d="M102.05,137.23a1,1,0,0,1-1-1v-4.44a1,1,0,0,1,2,0v4.44A1,1,0,0,1,102.05,137.23Z" fill="#dfeaef"/><path d="M102.05,147.22a1,1,0,0,1-1-1v-4.44a1,1,0,0,1,2,0v4.44A1,1,0,0,1,102.05,147.22Z" fill="#dfeaef"/><path d="M109.27,140h-4.44a1,1,0,1,1,0-2h4.44a1,1,0,0,1,0,2Z" fill="#dfeaef"/><path d="M99.27,140H94.83a1,1,0,1,1,0-2h4.44a1,1,0,0,1,0,2Z" fill="#dfeaef"/><line x1="109.1" y1="175.17" x2="95" y2="182.29" fill="#fff"/><path d="M95,183.29a1,1,0,0,1-.45-1.89l14.09-7.13a1,1,0,0,1,.91,1.79l-14.1,7.12A.88.88,0,0,1,95,183.29Z" fill="#dfeaef"/><path d="M281.09,212s4.9-11.08,9.82-10.51,15.62,3.92,17,5.19,1.4,11.77,1.4,11.77" fill="#fff"/><path d="M309.34,219.41a1,1,0,0,1-1-1c0-4.7-.44-10.25-1.09-11-1.11-1-11.44-4.36-16.45-4.93-3.07-.33-7,5.9-8.8,9.92a1,1,0,0,1-1.32.51,1,1,0,0,1-.51-1.32c.54-1.2,5.39-11.73,10.86-11.1,4.56.52,15.83,3.87,17.58,5.45,1.51,1.37,1.73,8.43,1.73,12.51A1,1,0,0,1,309.34,219.41Z" fill="#093f68"/><path d="M290.78,205.76a17.78,17.78,0,0,0,11.45,4" fill="#fff"/><path d="M301.52,210.72a18.87,18.87,0,0,1-11.4-4.2,1,1,0,0,1,1.32-1.51,16.85,16.85,0,0,0,10.74,3.7,1,1,0,0,1,1.05.95,1,1,0,0,1-1,1C302,210.72,301.77,210.72,301.52,210.72Z" fill="#093f68"/><path d="M95,207.88s12.39.32,14.27-4.19" fill="#fff"/><path d="M95.74,208.89H95a1,1,0,0,1,0-2h0c4.51.12,12.14-.75,13.31-3.57a1,1,0,1,1,1.85.77C108.33,208.54,98.72,208.89,95.74,208.89Z" fill="#093f68"/></g></svg>