<svg xmlns="http://www.w3.org/2000/svg" viewBox="0 0 400 300"><g id="_434_american_pancake_outline" data-name="#434_american_pancake_outline"><path d="M276,116a10.73,10.73,0,0,1-3.59,7.92,12.82,12.82,0,0,1-8.64,3.28H136.2c-6.75,0-12.23-5-12.23-11.2a10.67,10.67,0,0,1,3.59-7.91,12.82,12.82,0,0,1,8.64-3.28H263.8C270.55,104.79,276,109.8,276,116Z" fill="#68e1fd"/><path d="M263.79,128.18H136.21c-7.3,0-13.24-5.47-13.24-12.2a11.66,11.66,0,0,1,3.91-8.65,13.81,13.81,0,0,1,9.33-3.54H263.79c7.3,0,13.24,5.47,13.24,12.19a11.7,11.7,0,0,1-3.91,8.66A13.8,13.8,0,0,1,263.79,128.18ZM136.21,105.79a11.76,11.76,0,0,0-8,3A9.67,9.67,0,0,0,125,116c0,5.62,5,10.2,11.24,10.2H263.79a11.76,11.76,0,0,0,8-3A9.71,9.71,0,0,0,275,116c0-5.62-5-10.19-11.24-10.19Z" fill="#093f68"/><rect x="123.98" y="127.18" width="152.04" height="22.38" rx="11.19" fill="#68e1fd"/><path d="M264.83,150.56H135.17a12.19,12.19,0,1,1,0-24.38H264.83a12.19,12.19,0,0,1,0,24.38ZM135.17,128.18a10.19,10.19,0,1,0,0,20.38H264.83a10.19,10.19,0,0,0,0-20.38Z" fill="#093f68"/><rect x="123.98" y="149.56" width="152.04" height="22.38" rx="11.19" fill="#68e1fd"/><path d="M264.83,172.94H135.17a12.19,12.19,0,1,1,0-24.38H264.83a12.19,12.19,0,0,1,0,24.38ZM135.17,150.56a10.19,10.19,0,1,0,0,20.38H264.83a10.19,10.19,0,0,0,0-20.38Z" fill="#093f68"/><rect x="123.98" y="171.94" width="152.04" height="22.38" rx="11.19" fill="#68e1fd"/><path d="M264.83,195.33H135.17a12.2,12.2,0,0,1,0-24.39H264.83a12.2,12.2,0,0,1,0,24.39ZM135.17,172.94a10.2,10.2,0,0,0,0,20.39H264.83a10.2,10.2,0,0,0,0-20.39Z" fill="#093f68"/><rect x="181.68" y="93.1" width="36.63" height="11.69" fill="#ffbc0e"/><path d="M218.32,105.79H181.68a1,1,0,0,1-1-1V93.1a1,1,0,0,1,1-1h36.64a1,1,0,0,1,1,1v11.69A1,1,0,0,1,218.32,105.79Zm-35.64-2h34.64V94.1H182.68Z" fill="#093f68"/><path d="M257.27,117.63a4.49,4.49,0,0,1-1.7,2c-5.42,2.79-12.31-.84-17.53,3.36a12.88,12.88,0,0,0-3.86,6.21c-1.29,3.78-1.92,8.12-4,11.45a12,12,0,0,1-10.5,5.62c-9.83-.53-9.09-9.14-11.19-16.76l-.09-.31c-1.76-6.25-4.89-13-12-11.83-5.5.91-7.73,6.68-8.77,11.83-.08.36-.15.73-.21,1.09l-2.85,16c-.47,2.67-1,5.46-2.77,7.63s-5.2,3.48-7.8,2.16-3.18-4.4-3.5-7.08l-2.37-19.81c-.17-1.46-.35-2.91-.52-4.37-.65-5.47-2.16-12.33-8.9-9.36-1.54.68-2.7,2.14-4.26,2.79a6.15,6.15,0,0,1-5.83-1,17.85,17.85,0,0,1-4.15-4.81c-.89-1.34-3.56-5-4.16-7.67H259.72A29.38,29.38,0,0,1,257.27,117.63Z" fill="#ffbc0e"/><path d="M176.22,157.67a6,6,0,0,1-2.74-.64c-2.91-1.48-3.66-4.65-4-7.86L166.54,125c-.37-3.16-1.13-7.52-3.38-8.8-1-.6-2.4-.52-4.12.24a9.61,9.61,0,0,0-1.87,1.24,10.5,10.5,0,0,1-2.41,1.56,7.07,7.07,0,0,1-6.8-1.15,18.8,18.8,0,0,1-4.4-5.07l-.38-.56c-1.17-1.72-3.35-4.92-3.92-7.44a1,1,0,0,1,.2-.84,1,1,0,0,1,.78-.38H259.72a1,1,0,0,1,1,.93c.26,3.46-.72,9.8-2.56,13.37a5.3,5.3,0,0,1-2.15,2.48c-2.65,1.36-5.56,1.32-8.39,1.27-3.27-.06-6.37-.11-9,2-1.51,1.2-2.6,3-3.55,5.76-.39,1.17-.72,2.38-1.07,3.66a29.42,29.42,0,0,1-3.05,8,12.93,12.93,0,0,1-11.4,6.08c-8.64-.46-9.88-6.81-11.09-12.95-.29-1.5-.6-3.05-1-4.54l-.08-.3c-2.38-8.43-5.85-12-10.93-11.12-4,.66-6.58,4.27-8,11-.08.36-.15.71-.21,1.06l-2.85,16c-.44,2.52-1,5.66-3,8.09A8.48,8.48,0,0,1,176.22,157.67ZM161.6,113.8a5.16,5.16,0,0,1,2.56.65c3,1.71,3.88,6.17,4.37,10.31l2.89,24.18c.32,2.65.9,5.25,3,6.3s5.12-.12,6.57-1.9c1.66-2,2.14-4.76,2.56-7.17l2.85-16c.06-.37.14-.76.22-1.13,1.53-7.56,4.75-11.8,9.59-12.6,9.21-1.52,12.19,9.06,13.17,12.54l.09.29c.43,1.59.74,3.18,1,4.71,1.2,6.13,2.14,11,9.23,11.34a10.9,10.9,0,0,0,9.6-5.15,28,28,0,0,0,2.81-7.46c.34-1.25.69-2.55,1.11-3.78a14,14,0,0,1,4.18-6.67c3.15-2.53,6.76-2.47,10.24-2.41,2.7,0,5.24.09,7.46-1.06a3.41,3.41,0,0,0,1.27-1.6h0a28.85,28.85,0,0,0,2.38-11.38H141.61a34.47,34.47,0,0,0,3.22,5.53l.4.59a17,17,0,0,0,3.9,4.55,5.17,5.17,0,0,0,4.87.92,9,9,0,0,0,1.94-1.28,10.73,10.73,0,0,1,2.3-1.5A8.28,8.28,0,0,1,161.6,113.8Z" fill="#093f68"/><path d="M223.3,140.14a1,1,0,0,1-.87-.5,1,1,0,0,1,.37-1.36c5.2-3,4.76-10.82,4.76-10.9a1,1,0,0,1,2-.13c0,.37.54,9.11-5.75,12.76A1,1,0,0,1,223.3,140.14Z" fill="#fff"/><path d="M180.13,141.55H180a1,1,0,0,1-.9-1.09l.75-7.32a1,1,0,0,1,1.1-.9,1,1,0,0,1,.89,1.1l-.75,7.32A1,1,0,0,1,180.13,141.55Z" fill="#fff"/><path d="M239.22,206.9H160.78A114.67,114.67,0,0,1,107,193.51H293A114.67,114.67,0,0,1,239.22,206.9Z" fill="#fff"/><path d="M239.22,207.9H160.78a116,116,0,0,1-54.23-13.51,1,1,0,0,1-.5-1.12,1,1,0,0,1,1-.76H293a1,1,0,0,1,1,.76,1,1,0,0,1-.5,1.12A116,116,0,0,1,239.22,207.9Zm-128-13.39a114.11,114.11,0,0,0,49.58,11.39h78.44a114.11,114.11,0,0,0,49.58-11.39Z" fill="#093f68"/></g></svg>