<svg xmlns="http://www.w3.org/2000/svg" viewBox="0 0 400 300"><g id="_01_analysis_outline" data-name="#01_analysis_outline"><path d="M313,243.57H87a1,1,0,1,1,0-2H313a1,1,0,0,1,0,2Z" fill="#dfeaef"/><path d="M250.09,236.53a1,1,0,0,1-1-1v-153a1,1,0,0,1,2,0v153A1,1,0,0,1,250.09,236.53Z" fill="#093f68"/><path d="M269.85,250.61a1,1,0,0,1-.58-.19l-19.18-13.67L230.9,250.42a1,1,0,0,1-1.39-.23,1,1,0,0,1,.23-1.4l19.77-14.08a1,1,0,0,1,1.16,0l19.76,14.08a1,1,0,0,1,.24,1.4A1,1,0,0,1,269.85,250.61Z" fill="#093f68"/><rect x="197.82" y="86.76" width="108.46" height="83.54" rx="4.5" fill="#fff"/><path d="M301.78,171.3H202.31a5.5,5.5,0,0,1-5.49-5.5V91.25a5.49,5.49,0,0,1,5.49-5.49h99.47a5.5,5.5,0,0,1,5.5,5.49V165.8A5.51,5.51,0,0,1,301.78,171.3ZM202.31,87.76a3.49,3.49,0,0,0-3.49,3.49V165.8a3.5,3.5,0,0,0,3.49,3.5h99.47a3.5,3.5,0,0,0,3.5-3.5V91.25a3.5,3.5,0,0,0-3.5-3.49Z" fill="#093f68"/><path d="M225.62,158.27h-9.1a1,1,0,0,1-1-1v-19.9a1,1,0,0,1,1-1h9.1a1,1,0,0,1,1,1v19.9A1,1,0,0,1,225.62,158.27Zm-8.1-2h7.1v-17.9h-7.1Z" fill="#dfeaef"/><path d="M243.53,158.27h-9.1a1,1,0,0,1-1-1V124.91a1,1,0,0,1,1-1h9.1a1,1,0,0,1,1,1v32.36A1,1,0,0,1,243.53,158.27Zm-8.1-2h7.1V125.91h-7.1Z" fill="#dfeaef"/><path d="M261.44,158.27h-9.1a1,1,0,0,1-1-1V114.63a1,1,0,0,1,1-1h9.1a1,1,0,0,1,1,1v42.64A1,1,0,0,1,261.44,158.27Zm-8.1-2h7.1V115.63h-7.1Z" fill="#dfeaef"/><path d="M270.15,158.27H210.29a1,1,0,0,1,0-2h59.86a1,1,0,0,1,0,2Z" fill="#dfeaef"/><path d="M268.22,98H209.74a1,1,0,0,1,0-2h58.48a1,1,0,0,1,0,2Z" fill="#dfeaef"/><path d="M284.68,153.78a17.14,17.14,0,1,1,17.14-17.13A17.15,17.15,0,0,1,284.68,153.78Zm0-32.27a15.14,15.14,0,1,0,15.14,15.14A15.15,15.15,0,0,0,284.68,121.51Z" fill="#dfeaef"/><path d="M300.82,137.65H284.68a1,1,0,0,1-.8-.41l-9.54-13A1,1,0,0,1,276,123l9.23,12.61h15.63a1,1,0,0,1,0,2Z" fill="#dfeaef"/><path d="M250.24,104.6H211a1,1,0,0,1,0-2h39.2a1,1,0,0,1,0,2Z" fill="#dfeaef"/><path d="M299.16,110.17H278a1,1,0,0,1-1-1V97a1,1,0,0,1,1-1h21.12a1,1,0,0,1,1,1v12.21A1,1,0,0,1,299.16,110.17Zm-20.12-2h19.12V98H279Z" fill="#dfeaef"/><path d="M201,121.51c.25-.07,2.84-5,2.84-5s-.13-4.17-.12-6.21,1.58-2.38,2-1.38a33.42,33.42,0,0,1,.8,4c.08,0,2.43-6.67,3-7s6.69,2.88,7,4.94c.15,1-.88,4.33-2.06,7.49-.33.89-3.42,2.8-3.42,2.8a21.81,21.81,0,0,1-2.3,3.68Z" fill="#ffc9b0"/><path d="M208.78,125.81a1,1,0,0,1-.39-.08l-7.77-3.3a1,1,0,0,1-.28-1.66c.32-.44,1.48-2.55,2.5-4.5,0-1-.12-4.22-.11-6s1-2.69,1.86-2.87a1.83,1.83,0,0,1,2.07,1.1,3.9,3.9,0,0,1,.24.71c1.38-3.49,1.73-4,2.21-4.21.31-.16.78-.4,3,.76,1.18.6,5.06,2.74,5.39,4.91.21,1.38-1,5.11-2.12,8-.36,1-2.31,2.35-3.58,3.16a20.71,20.71,0,0,1-2.34,3.64A1,1,0,0,1,208.78,125.81Zm-6.27-4.75,6,2.53a24.9,24.9,0,0,0,1.72-2.91.93.93,0,0,1,.37-.39,13.69,13.69,0,0,0,3-2.34c1.6-4.26,2.07-6.5,2-7-.16-1.09-4-3.48-5.55-4-.53,1-1.55,3.73-2,4.83-.71,1.85-.8,2.09-1.55,2.06s-.95-.7-1.09-1.7a21.15,21.15,0,0,0-.51-2.68,1.54,1.54,0,0,0-.17.8c0,2,.12,6.13.12,6.18a.93.93,0,0,1-.11.49C203.67,119,203,120.27,202.51,121.06Zm-1.78-.51Zm0,0Z" fill="#093f68"/><path d="M208.37,118.6a1,1,0,0,1-1-.94,6.38,6.38,0,0,0-1.52-4.07,1,1,0,0,1,0-1.41,1,1,0,0,1,1.4,0,8.24,8.24,0,0,1,2.14,5.41,1,1,0,0,1-.94,1Z" fill="#093f68"/><path d="M211.76,126.47c-1,1.48-9.19,15.37-21.07,21.18a21.92,21.92,0,0,1-9.76,2.28c-2.6,0-6-1.91-8.91-3.87-1.58-1.09-3-2.19-4-3s-1.54-1.34-1.54-1.34l0,5.35-.06,20.33H130.36V139.77c-8.9,2.33-16.79,5.61-18.29,7.86C111,150,112.83,158,117,165.22L103.41,173c-1.91-3.29-11.15-20.4-5.38-32.28,2.81-5.78,9.92-9.67,21.73-14.15,14.24-5.4,28.34-3.32,36.57-3.41a22.23,22.23,0,0,1,15.16,5.8c3.68,3.32,8.52,6.46,12.33,4.61,7-3.43,14.07-12.16,16.19-15.24Z" fill="#68e1fd"/><path d="M103.42,174a1,1,0,0,1-.87-.49c-2-3.38-11.43-20.86-5.42-33.23,3.07-6.32,10.8-10.29,22.28-14.64s22.84-3.93,31.14-3.62c2.1.08,4.09.16,5.77.14a23.14,23.14,0,0,1,15.84,6.05c3.26,2.94,7.85,6.1,11.22,4.46,6.83-3.34,13.87-12.1,15.8-14.91a1,1,0,0,1,.65-.42.93.93,0,0,1,.74.17l11.75,8.11a1,1,0,0,1,.26,1.39c-.09.12-.22.33-.4.61-6.59,10.26-13.68,17.29-21.05,20.89a22.9,22.9,0,0,1-10.2,2.39c-2.38,0-5.48-1.32-9.48-4.05-1.53-1-2.91-2.14-3.95-3l-.07,23.5a1,1,0,0,1-1,1H130.36a1,1,0,0,1-1-1V141.08c-9.18,2.51-15.22,5.44-16.41,7-.76,1.95.77,9.43,4.88,16.6a1,1,0,0,1-.37,1.37l-13.55,7.81A1,1,0,0,1,103.42,174Zm39.63-50.16c-6.9,0-14.93.63-22.93,3.67-10.71,4.06-18.41,7.94-21.19,13.64-5.18,10.66,2.28,25.82,4.86,30.48l11.81-6.81c-3.72-6.85-5.74-14.76-4.44-17.63a.64.64,0,0,1,.08-.14c1.87-2.8,10.82-6.17,18.86-8.27a1,1,0,0,1,1.26,1V166.4h34.08l.06-24.68a1,1,0,0,1,.6-.91,1,1,0,0,1,1.08.18s.57.52,1.51,1.3,2.38,1.9,3.89,2.94c4.49,3.06,7,3.7,8.35,3.7a21,21,0,0,0,9.32-2.18c4.82-2.36,12.22-7.74,20.14-20l-10.14-7c-2.67,3.65-9.3,11.48-16,14.76-3.51,1.71-8,.1-13.43-4.77a21.18,21.18,0,0,0-14.48-5.54c-1.73,0-3.74-.06-5.87-.14S145.71,123.87,143.05,123.87Z" fill="#093f68"/><path d="M144.15,119.77H152a0,0,0,0,1,0,0v4.54a3.35,3.35,0,0,1-3.35,3.35H147.5a3.35,3.35,0,0,1-3.35-3.35v-4.54A0,0,0,0,1,144.15,119.77Z" fill="#ffc9b0"/><path d="M148.69,128.66H147.5a4.35,4.35,0,0,1-4.35-4.35v-4.54a1,1,0,0,1,1-1H152a1,1,0,0,1,1,1v4.54A4.35,4.35,0,0,1,148.69,128.66Zm-3.54-7.89v3.54a2.35,2.35,0,0,0,2.35,2.35h1.19a2.35,2.35,0,0,0,2.35-2.35v-3.54Z" fill="#093f68"/><path d="M120.32,99.28s-7-29.61-4.4-34.34S122.61,62,122.61,62s5.54-16,17.78-16.64,18.27,7.66,25.12,6.69,10.11-3.43,10.11-3.43a12.59,12.59,0,0,1-1.47,13.87s5.06-3.1,5.71,4.07-3.75,32-3.75,32l-4.9-.85Z" fill="#725858"/><path d="M120.32,100.28a1,1,0,0,1-1-.77c-.73-3.07-7-30.13-4.31-35.05,2-3.65,5-4.08,7-3.68,1.41-3.51,7.15-15.81,18.32-16.41,7-.38,12.17,2.14,16.3,4.16,3.21,1.57,6,2.93,8.73,2.54,6.53-.94,9.63-3.22,9.66-3.24a1,1,0,0,1,.8-.18,1,1,0,0,1,.66.48,13.82,13.82,0,0,1,0,12.7,3.31,3.31,0,0,1,1.73.39c1.52.77,2.42,2.53,2.67,5.26.65,7.23-3.59,31.22-3.77,32.24a1,1,0,0,1-1.15.81l-4.8-.84-50.78,1.59Zm.46-37.62c-1.13,0-2.73.49-4,2.76-1.73,3.13,1.66,21.45,4.31,32.83l50.07-1.56a.74.74,0,0,1,.21,0l3.9.68c.81-4.66,4.13-24.55,3.57-30.72-.17-2-.71-3.22-1.56-3.65a3.16,3.16,0,0,0-2.63.34,1,1,0,0,1-1.3-1.48,11.47,11.47,0,0,0,1.83-11.8,27.81,27.81,0,0,1-9.55,3c-3.37.48-6.4-1-9.9-2.72-4.13-2-8.79-4.31-15.31-4-11.41.61-16.83,15.81-16.89,16a1,1,0,0,1-.54.59,1,1,0,0,1-.8,0A4,4,0,0,0,120.78,62.66Z" fill="#093f68"/><ellipse cx="125.54" cy="99.28" rx="7.67" ry="6.61" fill="#ffc9b0"/><path d="M125.54,106.88c-4.77,0-8.66-3.41-8.66-7.6s3.89-7.61,8.66-7.61,8.67,3.41,8.67,7.61S130.32,106.88,125.54,106.88Zm0-13.21c-3.67,0-6.66,2.52-6.66,5.61s3,5.6,6.66,5.6,6.67-2.51,6.67-5.6S129.22,93.67,125.54,93.67Z" fill="#093f68"/><ellipse cx="170.24" cy="99.28" rx="7.67" ry="6.61" fill="#ffc9b0"/><path d="M170.24,106.88c-4.78,0-8.67-3.41-8.67-7.6s3.89-7.61,8.67-7.61,8.66,3.41,8.66,7.61S175,106.88,170.24,106.88Zm0-13.21c-3.68,0-6.67,2.52-6.67,5.61s3,5.6,6.67,5.6,6.66-2.51,6.66-5.6S173.91,93.67,170.24,93.67Z" fill="#093f68"/><path d="M148.09,120.81h0A23.12,23.12,0,0,1,125,97.69V76.28s2.86,6,11.34-2.12c24.63,12.48,34.9,2.12,34.9,2.12V97.69A23.12,23.12,0,0,1,148.09,120.81Z" fill="#ffc9b0"/><path d="M148.09,121.81A24.15,24.15,0,0,1,124,97.69V76.28a1,1,0,0,1,1.91-.43A3.06,3.06,0,0,0,128,77.38c1.35.23,3.77-.26,7.6-3.94a1,1,0,0,1,1.14-.17c12.37,6.26,20.91,6.54,25.89,5.67,5.34-.93,7.83-3.35,7.86-3.37a1,1,0,0,1,1.09-.21,1,1,0,0,1,.61.92V97.69A24.15,24.15,0,0,1,148.09,121.81ZM126,78.72v19a22.15,22.15,0,0,0,22.12,22.12h0a22.15,22.15,0,0,0,22.12-22.12V78.29c-3.87,2.45-14.45,6.63-33.72-2.93-3.37,3.1-6.35,4.44-8.86,4A5.08,5.08,0,0,1,126,78.72Z" fill="#093f68"/><circle cx="137.39" cy="94.32" r="2.14" fill="#093f68"/><circle cx="159.47" cy="94.32" r="2.14" fill="#093f68"/><path d="M156.53,104.65a8.44,8.44,0,1,1-16.87,0Z" fill="#fff"/><path d="M148.09,114.09a9.44,9.44,0,0,1-9.43-9.44,1,1,0,0,1,1-1h16.87a1,1,0,0,1,1,1A9.44,9.44,0,0,1,148.09,114.09Zm-7.36-8.44a7.43,7.43,0,0,0,14.73,0Z" fill="#093f68"/><path d="M148,102.52a13.47,13.47,0,0,1-2.14-.18,1,1,0,1,1,.35-2,10,10,0,0,0,2.79.08,17.45,17.45,0,0,0-1.77-4.63,1,1,0,0,1,.42-1.34,1,1,0,0,1,1.35.42c1,1.84,2.47,5.14,1.82,6.58a1.49,1.49,0,0,1-1,.85A7.87,7.87,0,0,1,148,102.52Z" fill="#093f68"/><path d="M131.64,89.93a2,2,0,0,1-.37-4l10-1.89a2,2,0,0,1,.75,3.93l-10,1.9A2.43,2.43,0,0,1,131.64,89.93Z" fill="#093f68"/><path d="M166.43,89.93l-.37,0L156,88a2,2,0,0,1,.74-3.93l10,1.89a2,2,0,0,1-.37,4Z" fill="#093f68"/><rect x="130.73" y="167.4" width="11.5" height="78.46" fill="#093f68"/><path d="M142.23,246.86h-11.5a1,1,0,0,1-1-1V167.4a1,1,0,0,1,1-1h11.5a1,1,0,0,1,1,1v78.46A1,1,0,0,1,142.23,246.86Zm-10.5-2h9.5V168.4h-9.5Z" fill="#093f68"/><rect x="155" y="167.4" width="11.5" height="78.46" fill="#093f68"/><path d="M166.5,246.86H155a1,1,0,0,1-1-1V167.4a1,1,0,0,1,1-1h11.5a1,1,0,0,1,1,1v78.46A1,1,0,0,1,166.5,246.86Zm-10.5-2h9.5V168.4H156Z" fill="#093f68"/><rect x="145.36" y="128.52" width="5.85" height="4.6" rx="1.7" fill="#fff"/><path d="M149.51,134.12h-2.45a2.7,2.7,0,0,1-2.7-2.7v-1.2a2.7,2.7,0,0,1,2.7-2.7h2.45a2.7,2.7,0,0,1,2.7,2.7v1.2A2.7,2.7,0,0,1,149.51,134.12Zm-2.45-4.6a.7.7,0,0,0-.7.7v1.2a.7.7,0,0,0,.7.7h2.45a.7.7,0,0,0,.7-.7v-1.2a.7.7,0,0,0-.7-.7Z" fill="#093f68"/><polygon points="146.61 133.12 142.92 154.03 148.28 161.07 152.31 153.69 149.96 133.12 146.61 133.12" fill="#fff"/><path d="M148.29,162.07a1,1,0,0,1-.8-.4l-5.37-7a1.07,1.07,0,0,1-.19-.78L145.62,133a1,1,0,0,1,1-.83H150a1,1,0,0,1,1,.89l2.34,20.56a1,1,0,0,1-.12.6l-4,7.38a1,1,0,0,1-.8.52ZM144,153.78l4.17,5.46,3.13-5.75-2.21-19.37h-1.62Z" fill="#093f68"/><path d="M138.75,167.4h19.74a0,0,0,0,1,0,0v7.17a7,7,0,0,1-7,7h-5.73a7,7,0,0,1-7-7V167.4A0,0,0,0,1,138.75,167.4Z" fill="#093f68"/><path d="M151.48,182.58h-5.73a8,8,0,0,1-8-8V167.4a1,1,0,0,1,1-1h19.74a1,1,0,0,1,1,1v7.18A8,8,0,0,1,151.48,182.58ZM139.75,168.4v6.18a6,6,0,0,0,6,6h5.73a6,6,0,0,0,6-6V168.4Z" fill="#093f68"/><path d="M142.23,245.86v8.81H121.91s1.09-6.79,9.17-8.81Z" fill="#ad7972"/><path d="M142.23,255.67H121.91a1,1,0,0,1-1-1.16c0-.3,1.29-7.46,9.91-9.62a1.07,1.07,0,0,1,.25,0h11.15a1,1,0,0,1,1,1v8.81A1,1,0,0,1,142.23,255.67Zm-19-2h18v-6.81h-10A11,11,0,0,0,123.22,253.67Z" fill="#093f68"/><path d="M155,245.86v8.81h20.32s-1.09-6.79-9.16-8.81Z" fill="#ad7972"/><path d="M175.32,255.67H155a1,1,0,0,1-1-1v-8.81a1,1,0,0,1,1-1h11.16l.24,0c8.62,2.16,9.86,9.32,9.91,9.62a1,1,0,0,1-.22.81A1,1,0,0,1,175.32,255.67Zm-19.32-2h18a11,11,0,0,0-8-6.81H156Z" fill="#093f68"/><rect x="105.44" y="171.97" width="30.18" height="39.86" rx="2.8" transform="translate(242.05 0.64) rotate(64.56)" fill="#ffbc0e"/><path d="M110.34,214.16A3.8,3.8,0,0,1,106.9,212h0L96.34,189.8a3.81,3.81,0,0,1,1.8-5.07L129.08,170a3.8,3.8,0,0,1,5.07,1.79L144.7,194a3.8,3.8,0,0,1-1.8,5.06L112,213.79A3.75,3.75,0,0,1,110.34,214.16Zm-1.63-3a1.79,1.79,0,0,0,2.39.85l31-14.71a1.81,1.81,0,0,0,.85-2.4l-10.56-22.2a1.8,1.8,0,0,0-2.4-.85L99,186.54a1.8,1.8,0,0,0-.85,2.4Z" fill="#093f68"/><rect x="132.81" y="181.02" width="11.42" height="4.65" rx="1.41" transform="translate(244.59 -20.5) rotate(64.56)" fill="#fff"/><path d="M139.55,190a2.43,2.43,0,0,1-2.19-1.38h0l-3.69-7.76a2.4,2.4,0,0,1-.09-1.84,2.33,2.33,0,0,1,1.24-1.37l1.64-.79a2.42,2.42,0,0,1,3.22,1.14l3.69,7.76a2.43,2.43,0,0,1-1.14,3.22l-1.65.78A2.39,2.39,0,0,1,139.55,190Zm-.38-2.24a.41.41,0,0,0,.55.2l1.65-.79a.4.4,0,0,0,.19-.55l-3.69-7.76a.41.41,0,0,0-.55-.19l-1.64.78a.41.41,0,0,0-.2.55Z" fill="#093f68"/><path d="M114.72,166.52s2,5.55,2.61,6.27,4.34,1.83,2.83,2.48l-3,1.27s3.26,5.91,1.05,7.48-8.34,2.11-9.61.18-3.12-7-1.72-8.6.45-4.93.45-4.93Z" fill="#ffc9b0"/><path d="M112.54,186.44a10.32,10.32,0,0,1-2-.17,4,4,0,0,1-2.75-1.52c-1.26-1.91-3.58-7.64-1.64-9.82.78-.87.49-3.06.23-4a1,1,0,0,1,.47-1.14l7.35-4.15a1,1,0,0,1,.84-.07,1,1,0,0,1,.59.6,45.37,45.37,0,0,0,2.42,5.95,9.11,9.11,0,0,0,1.14.63c1.25.63,2.33,1.17,2.3,2.19a1.38,1.38,0,0,1-1,1.24l-2,.85c1,2,2.54,6.16.24,7.8A11.89,11.89,0,0,1,112.54,186.44Zm-4-15.27c.23,1.25.46,3.65-.84,5.1-.81.9.41,5.24,1.82,7.38a2.35,2.35,0,0,0,1.45.66c2.11.4,5.38-.14,6.73-1.1,1-.68-.18-4.09-1.33-6.19a1,1,0,0,1-.07-.81,1,1,0,0,1,.55-.59l2-.84-.46-.24a6.08,6.08,0,0,1-1.73-1.08c-.59-.65-1.7-3.52-2.41-5.49Z" fill="#093f68"/><path d="M130.36,144.92h0a1,1,0,0,1-1-1c0-4,.09-10.61,0-11.26a1,1,0,0,1,.75-1.18,1,1,0,0,1,1.21.77c.13.57.09,6.67,0,11.7A1,1,0,0,1,130.36,144.92Z" fill="#093f68"/><path d="M166.5,142.72a1,1,0,0,1-1-1v-7.95a1,1,0,1,1,2,0v7.95A1,1,0,0,1,166.5,142.72Z" fill="#093f68"/><path d="M162.49,141.16h-6a1,1,0,0,1,0-2h6a1,1,0,0,1,0,2Z" fill="#093f68"/><path d="M285,233.82s-7.94-16.17-6.83-27.1c0,0,6.38,2.89,9.45,11.41,4.7,13,3.61,15.7,3.61,15.7Z" fill="#70cc40"/><path d="M291.24,234.83H285a1,1,0,0,1-.89-.56c-.33-.67-8.05-16.55-6.93-27.64a1,1,0,0,1,.5-.76,1,1,0,0,1,.91-.05c.27.13,6.8,3.17,10,12,4.59,12.73,3.81,15.91,3.6,16.42A1,1,0,0,1,291.24,234.83Zm-5.6-2h4.72c0-1.36-.37-5.23-3.67-14.36a20.4,20.4,0,0,0-7.61-10.06C278.88,217.69,284.36,230.07,285.64,232.82Z" fill="#093f68"/><path d="M288.78,233s-6-23.06,2.61-38.5c0,0,4.92,5.64,6.11,19.3a34.49,34.49,0,0,1-3.57,18.86Z" fill="#70cc40"/><path d="M288.78,234a1,1,0,0,1-1-.75,76.62,76.62,0,0,1-1.94-13.65c-.39-7.16.1-17.4,4.64-25.58a1,1,0,0,1,.77-.51,1,1,0,0,1,.86.34c.21.24,5.16,6,6.35,19.86a35.24,35.24,0,0,1-3.69,19.45,1,1,0,0,1-.8.5l-5.16.34Zm2.73-37.57c-6.37,13.24-2.85,31.49-1.95,35.52l3.75-.25a34.51,34.51,0,0,0,3.19-17.81C295.67,204.34,292.94,198.79,291.51,196.47Z" fill="#093f68"/><path d="M291.35,232.32s1.85-15.4,14.29-25.44c0,0,3.67,11.47-6.61,26.8Z" fill="#70cc40"/><path d="M299,234.68l-.18,0-7.67-1.36a1,1,0,0,1-.82-1.1c.08-.64,2-15.92,14.65-26.1a1,1,0,0,1,.92-.18,1,1,0,0,1,.66.65c.16.49,3.7,12.11-6.73,27.67A1,1,0,0,1,299,234.68Zm-6.53-3.17,6.06,1.07c7.35-11.27,7-20.36,6.45-23.85C295.79,216.93,293.11,228.22,292.5,231.51Z" fill="#093f68"/><polygon points="299.87 249.61 284.22 249.61 281.9 230.55 302.19 230.55 299.87 249.61" fill="#68e1fd"/><path d="M299.87,250.61H284.22a1,1,0,0,1-1-.88l-2.31-19.06a1,1,0,0,1,.24-.78,1,1,0,0,1,.75-.34h20.29a1,1,0,0,1,.75.34,1,1,0,0,1,.24.78l-2.31,19.06A1,1,0,0,1,299.87,250.61Zm-14.77-2H299l2.07-17.06H283Z" fill="#093f68"/></g></svg>