<svg xmlns="http://www.w3.org/2000/svg" viewBox="0 0 400 300"><g id="_12_analysis_outline" data-name="#12_analysis_outline"><rect x="117.37" y="65.81" width="172.76" height="130.59" rx="10.61" fill="#68e1fd"/><path d="M279.52,197.4H128a11.63,11.63,0,0,1-11.61-11.61V76.42A11.63,11.63,0,0,1,128,64.81H279.52a11.62,11.62,0,0,1,11.61,11.61V185.79A11.62,11.62,0,0,1,279.52,197.4ZM128,66.81a9.62,9.62,0,0,0-9.61,9.61V185.79A9.62,9.62,0,0,0,128,195.4H279.52a9.62,9.62,0,0,0,9.61-9.61V76.42a9.62,9.62,0,0,0-9.61-9.61Z" fill="#093f68"/><polygon points="234.37 224.48 173.13 224.48 179.52 196.4 227.98 196.4 234.37 224.48" fill="#093f68"/><path d="M234.37,225.48H173.13a1,1,0,0,1-.78-.37,1,1,0,0,1-.19-.85l6.39-28.08a1,1,0,0,1,1-.78H228a1,1,0,0,1,1,.78l6.39,28.08a1,1,0,0,1-.19.85A1,1,0,0,1,234.37,225.48Zm-60-2h58.74l-5.93-26.08H180.32Z" fill="#093f68"/><rect x="129.15" y="76.69" width="149.21" height="96.93" fill="#fff"/><path d="M278.36,174.62H129.15a1,1,0,0,1-1-1V76.69a1,1,0,0,1,1-1H278.36a1,1,0,0,1,1,1v96.93A1,1,0,0,1,278.36,174.62Zm-148.21-2H277.36V77.69H130.15Z" fill="#093f68"/><path d="M167.3,132.11a.9.9,0,0,1-.42-.1,1,1,0,0,1-.48-1.33c.3-.65,7.6-16,16.83-18,4.23-.91,7.56-.15,10.51.52,3.55.8,6.61,1.49,10.77-.49,2.37-1.13,4.92-4.07,7.87-7.47,6.72-7.78,15.94-18.43,32.6-19a1,1,0,0,1,1,1,1,1,0,0,1-1,1c-15.79.56-24.67,10.83-31.16,18.32-3.1,3.58-5.77,6.67-8.52,8-4.79,2.28-8.49,1.44-12.07.63-2.88-.66-5.85-1.33-9.65-.52-8.26,1.78-15.37,16.75-15.44,16.9A1,1,0,0,1,167.3,132.11Z" fill="#dfeaef"/><rect x="160.39" y="224.48" width="86.72" height="9.71" rx="4.85" fill="#68e1fd"/><path d="M242.26,235.19h-77a5.86,5.86,0,1,1,0-11.71h77a5.86,5.86,0,0,1,0,11.71Zm-77-9.71a3.86,3.86,0,1,0,0,7.71h77a3.86,3.86,0,0,0,0-7.71Z" fill="#093f68"/><path d="M262.19,155.23H145.31a1,1,0,0,1-1-1v-67a1,1,0,0,1,2,0v66H262.19a1,1,0,0,1,0,2Z" fill="#093f68"/><rect x="158.84" y="133.92" width="18.94" height="20.3" fill="#ffbc0e"/><path d="M177.78,155.23H158.84a1,1,0,0,1-1-1V133.92a1,1,0,0,1,1-1h18.94a1,1,0,0,1,1,1v20.31A1,1,0,0,1,177.78,155.23Zm-17.94-2h16.94V134.92H159.84Z" fill="#093f68"/><rect x="194.28" y="119.68" width="18.94" height="34.54" fill="#fff"/><path d="M213.22,155.23H194.28a1,1,0,0,1-1-1V119.68a1,1,0,0,1,1-1h18.94a1,1,0,0,1,1,1v34.55A1,1,0,0,1,213.22,155.23Zm-17.94-2h16.94V120.68H195.28Z" fill="#093f68"/><rect x="229.72" y="101.36" width="18.94" height="52.87" fill="#70cc40"/><path d="M248.66,155.23H229.72a1,1,0,0,1-1-1V101.36a1,1,0,0,1,1-1h18.94a1,1,0,0,1,1,1v52.87A1,1,0,0,1,248.66,155.23Zm-17.94-2h16.94V102.36H230.72Z" fill="#093f68"/><rect x="136.98" y="168.24" width="9.71" height="17.74" transform="translate(128.17 -49.38) rotate(35.24)" fill="#093f68"/><path d="M140.68,188.15a1,1,0,0,1-.58-.18l-7.93-5.6a1,1,0,0,1-.24-1.4l10.24-14.49a1,1,0,0,1,1.39-.24l7.93,5.61a1,1,0,0,1,.24,1.39L141.5,187.73a1,1,0,0,1-.65.41Zm-6.54-6.84,6.3,4.45,9.08-12.86-6.3-4.45Z" fill="#093f68"/><rect x="142.39" y="156.9" width="14.91" height="17.74" transform="translate(123.09 -56.08) rotate(35.24)" fill="#f56132"/><path d="M150.81,178.31a1,1,0,0,1-.57-.18l-12.18-8.6a1,1,0,0,1-.24-1.39l10.24-14.49a1,1,0,0,1,.64-.41,1,1,0,0,1,.75.17l12.18,8.6a1,1,0,0,1,.24,1.39l-10.24,14.49a1,1,0,0,1-.65.41ZM140,168.47l10.54,7.45,9.09-12.86-10.55-7.44Z" fill="#093f68"/><rect x="118.97" y="178.6" width="14.91" height="40.64" rx="3.18" transform="translate(137.93 -36.5) rotate(35.24)" fill="#f56132"/><path d="M120,219.56a4.11,4.11,0,0,1-2.4-.76h0l-7-4.94a4.18,4.18,0,0,1-1-5.82l19.78-28a4.19,4.19,0,0,1,2.71-1.71,4.14,4.14,0,0,1,3.11.7l7,4.94a4.19,4.19,0,0,1,1.71,2.7,4.12,4.12,0,0,1-.71,3.12l-19.78,28A4.16,4.16,0,0,1,120,219.56Zm-1.24-2.39a2.18,2.18,0,0,0,3-.52l19.78-28a2.17,2.17,0,0,0-.52-3l-7-4.94a2.13,2.13,0,0,0-1.62-.37,2.16,2.16,0,0,0-1.41.89l-19.79,28a2.18,2.18,0,0,0,.53,3l7,4.94Z" fill="#093f68"/><path d="M188.92,110.44a35,35,0,1,0,8.41,48.84A35,35,0,0,0,188.92,110.44Zm-33.71,47.73a23.39,23.39,0,1,1,32.61-5.61A23.41,23.41,0,0,1,155.21,158.17Z" fill="#f56132"/><path d="M168.66,175.09a36,36,0,1,1,20.84-65.47h0a36,36,0,0,1-20.84,65.47Zm.1-70.06a34,34,0,1,0,19.59,6.23A34,34,0,0,0,168.76,105Zm-.09,58.42a24.24,24.24,0,0,1-14-4.47h0a24.39,24.39,0,1,1,14,4.47Zm.09-46.79a22.75,22.75,0,0,0-3.85.33,22.39,22.39,0,0,0-9.12,40.36h0a22.39,22.39,0,1,0,13-40.69Z" fill="#093f68"/><path d="M240.41,95.32a1,1,0,0,1-.54-.16,1,1,0,0,1-.3-1.38l4-6.16-7-3.42a1,1,0,1,1,.88-1.79l8,3.91A1,1,0,0,1,246,87a1,1,0,0,1-.13.81l-4.6,7.11A1,1,0,0,1,240.41,95.32Z" fill="#dfeaef"/><path d="M194.28,89.81H163.36a1,1,0,0,1,0-2h30.92a1,1,0,1,1,0,2Z" fill="#dfeaef"/><path d="M184,97.58H163.36a1,1,0,0,1,0-2H184a1,1,0,0,1,0,2Z" fill="#dfeaef"/><path d="M262.19,163.46H241a1,1,0,0,1,0-2h21.18a1,1,0,0,1,0,2Z" fill="#dfeaef"/><path d="M203.75,190.67a5.28,5.28,0,1,1,5.28-5.28A5.29,5.29,0,0,1,203.75,190.67Zm0-8.56a3.28,3.28,0,1,0,3.28,3.28A3.28,3.28,0,0,0,203.75,182.11Z" fill="#093f68"/></g></svg>