<svg xmlns="http://www.w3.org/2000/svg" viewBox="0 0 400 300"><g id="_119_analyzing_process_outline" data-name="#119_analyzing_process_outline"><rect x="91.49" y="88.84" width="199.22" height="131.24" rx="5.59" fill="#fff"/><path d="M285.12,221.08h-188a6.59,6.59,0,0,1-6.58-6.59V94.43a6.59,6.59,0,0,1,6.58-6.59H285.12a6.6,6.6,0,0,1,6.59,6.59V214.49A6.6,6.6,0,0,1,285.12,221.08ZM97.07,89.84a4.59,4.59,0,0,0-4.58,4.59V214.49a4.59,4.59,0,0,0,4.58,4.59H285.12a4.6,4.6,0,0,0,4.59-4.59V94.43a4.6,4.6,0,0,0-4.59-4.59Z" fill="#093f68"/><rect x="101.04" y="79.92" width="199.22" height="131.24" rx="5.59" fill="#68e1fd"/><path d="M294.67,212.16h-188a6.59,6.59,0,0,1-6.58-6.59V85.51a6.59,6.59,0,0,1,6.58-6.59H294.67a6.6,6.6,0,0,1,6.59,6.59V205.57A6.6,6.6,0,0,1,294.67,212.16Zm-188-131.24A4.59,4.59,0,0,0,102,85.51V205.57a4.59,4.59,0,0,0,4.58,4.59H294.67a4.6,4.6,0,0,0,4.59-4.59V85.51a4.6,4.6,0,0,0-4.59-4.59Z" fill="#093f68"/><path d="M150.32,205.75a1,1,0,0,1-1-1V99.62a1,1,0,0,1,2,0V204.75A1,1,0,0,1,150.32,205.75Z" fill="#093f68"/><path d="M200.65,205.75a1,1,0,0,1-1-1V99.62a1,1,0,1,1,2,0V204.75A1,1,0,0,1,200.65,205.75Z" fill="#093f68"/><path d="M251,205.75a1,1,0,0,1-1-1V99.62a1,1,0,0,1,2,0V204.75A1,1,0,0,1,251,205.75Z" fill="#093f68"/><path d="M123.14,189.58a1,1,0,0,1-.71-1.71l46.7-47.07a1,1,0,0,1,1.39,0l39.36,36.94L283,106.36a1,1,0,1,1,1.4,1.43l-73.79,72a1,1,0,0,1-1.38,0L169.86,142.9l-46,46.38A1,1,0,0,1,123.14,189.58Z" fill="#093f68"/><path d="M143.14,105.88H109.05a1,1,0,0,1,0-2h34.09a1,1,0,0,1,0,2Z" fill="#fff"/><path d="M143.14,113.78H109.05a1,1,0,1,1,0-2h34.09a1,1,0,0,1,0,2Z" fill="#fff"/><path d="M126.09,121.69h-17a1,1,0,0,1,0-2h17a1,1,0,0,1,0,2Z" fill="#fff"/><circle cx="123.14" cy="188.58" r="5.26" fill="#ffbc0e"/><path d="M123.14,194.84a6.26,6.26,0,1,1,6.26-6.26A6.27,6.27,0,0,1,123.14,194.84Zm0-10.52a4.26,4.26,0,1,0,4.26,4.26A4.26,4.26,0,0,0,123.14,184.32Z" fill="#093f68"/><circle cx="168.95" cy="140.28" r="5.26" fill="#f56132"/><path d="M169,146.54a6.26,6.26,0,1,1,6.26-6.26A6.27,6.27,0,0,1,169,146.54ZM169,136a4.26,4.26,0,1,0,4.26,4.26A4.26,4.26,0,0,0,169,136Z" fill="#093f68"/><circle cx="211.14" cy="176.7" r="5.26" fill="#70cc40"/><path d="M211.14,183a6.26,6.26,0,1,1,6.26-6.26A6.27,6.27,0,0,1,211.14,183Zm0-10.52a4.26,4.26,0,1,0,4.26,4.26A4.26,4.26,0,0,0,211.14,172.44Z" fill="#093f68"/><circle cx="283.68" cy="104.88" r="5.26" fill="#fff"/><path d="M283.68,111.13a6.26,6.26,0,1,1,6.26-6.25A6.26,6.26,0,0,1,283.68,111.13Zm0-10.51a4.26,4.26,0,1,0,4.26,4.26A4.26,4.26,0,0,0,283.68,100.62Z" fill="#093f68"/><rect x="275.73" y="164" width="7.89" height="14.41" transform="translate(596.25 85.71) rotate(133.41)" fill="#fff"/><path d="M282.2,180a1,1,0,0,1-.69-.27L271,169.84a1,1,0,0,1-.31-.7,1,1,0,0,1,.27-.71l5.42-5.73a1,1,0,0,1,.7-.31,1,1,0,0,1,.72.27l10.47,9.9a1,1,0,0,1,0,1.42l-5.43,5.73a1,1,0,0,1-.69.31Zm-9.06-10.94,9,8.53,4-4.28-9-8.53Z" fill="#093f68"/><rect x="265.43" y="156.25" width="12.11" height="14.41" transform="translate(576.8 78.58) rotate(133.41)" fill="#fff"/><path d="M272.56,173.8a1,1,0,0,1-.69-.27l-10.47-9.9a1,1,0,0,1,0-1.42l8.32-8.79a1,1,0,0,1,.7-.32,1.14,1.14,0,0,1,.72.28l10.47,9.9a1,1,0,0,1,0,1.42l-8.33,8.79A1,1,0,0,1,272.56,173.8Zm-9.06-10.94,9,8.53,6.94-7.34-9-8.53Z" fill="#093f68"/><rect x="289.38" y="169.6" width="12.11" height="33.01" rx="2.58" transform="translate(633.66 99.42) rotate(133.41)" fill="#fff"/><path d="M303.16,201.78a3.56,3.56,0,0,1-2.46-1l-20.24-19.15a3.59,3.59,0,0,1-.13-5.06l4.77-5a3.6,3.6,0,0,1,5.06-.14l20.24,19.15a3.52,3.52,0,0,1,1.11,2.5,3.58,3.58,0,0,1-1,2.56l-4.78,5L305,200l.73.69A3.57,3.57,0,0,1,303.16,201.78ZM287.7,172.44h0a1.54,1.54,0,0,0-1.1.49l-4.78,5a1.58,1.58,0,0,0,.06,2.23l20.23,19.14a1.58,1.58,0,0,0,2.24-.06l4.77-5a1.51,1.51,0,0,0,.43-1.13A1.54,1.54,0,0,0,309,192l-20.23-19.14A1.58,1.58,0,0,0,287.7,172.44Z" fill="#093f68"/><path d="M271.75,124.53a28.46,28.46,0,1,0,1.12,40.23A28.45,28.45,0,0,0,271.75,124.53Z" fill="#fff" stroke="#093f68" stroke-linecap="round" stroke-linejoin="round" stroke-width="2"/><ellipse cx="252.19" cy="145.2" rx="19.56" ry="19.57" fill="#68e1fd"/><path d="M252.19,165.77a20.57,20.57,0,1,1,20.56-20.57A20.6,20.6,0,0,1,252.19,165.77Zm0-39.14a18.57,18.57,0,1,0,18.56,18.57A18.59,18.59,0,0,0,252.19,126.63Z" fill="#093f68"/><path d="M253.35,158.67h0a1,1,0,0,1-.93-.75c-3.26-12.82-4.84-19.17-5.61-22.32-1.26,3.16-3.29,8.43-4.7,12.09a1,1,0,0,1-.93.65h-7.67a1,1,0,0,1,0-2h7c.47-1.23,1.55-4.05,2.65-6.86,3.21-8.25,3.21-8.25,4.12-8.09a1,1,0,0,1,.82.9c.16.89,3.07,12.49,5.43,21.79l4.41-13.47a1,1,0,0,1,.93-.69h0a1,1,0,0,1,.93.66l3.21,8.77h8.1a1,1,0,0,1,0,2h-8.8a1,1,0,0,1-.94-.66L258.88,144l-4.58,14A1,1,0,0,1,253.35,158.67Z" fill="#fff"/><path d="M300.26,85.51V93H101v-7.5a5.58,5.58,0,0,1,5.58-5.59H294.67A5.59,5.59,0,0,1,300.26,85.51Z" fill="#093f68"/><path d="M300.26,94H101a1,1,0,0,1-1-1v-7.5a6.59,6.59,0,0,1,6.58-6.59H294.67a6.6,6.6,0,0,1,6.59,6.59V93A1,1,0,0,1,300.26,94ZM102,92H299.26v-6.5a4.6,4.6,0,0,0-4.59-4.59h-188A4.59,4.59,0,0,0,102,85.51Z" fill="#093f68"/><circle cx="112.76" cy="86.63" r="2.22" fill="#f56132"/><circle cx="119.7" cy="86.63" r="2.22" fill="#ffbc0e"/><circle cx="126.64" cy="86.63" r="2.22" fill="#70cc40"/></g></svg>