<svg xmlns="http://www.w3.org/2000/svg" viewBox="0 0 400 300"><g id="_519_analytics_process_outline" data-name="#519_analytics_process_outline"><rect x="79.69" y="86.12" width="67.7" height="88.16" fill="#68e1fd"/><path d="M147.39,175.28H79.69a1,1,0,0,1-1-1V86.12a1,1,0,0,1,1-1h67.7a1,1,0,0,1,1,1v88.16A1,1,0,0,1,147.39,175.28Zm-66.7-2h65.7V87.12H80.69Z" fill="#093f68"/><rect x="87.87" y="93.62" width="67.7" height="88.16" fill="#fff"/><path d="M155.57,182.77H87.87a1,1,0,0,1-1-1V93.62a1,1,0,0,1,1-1h67.7a1,1,0,0,1,1,1v88.15A1,1,0,0,1,155.57,182.77Zm-66.7-2h65.7V94.62H88.87Z" fill="#093f68"/><rect x="98.63" y="109.26" width="4.61" height="4.61" fill="#093f68"/><rect x="108.94" y="109.26" width="4.61" height="4.61" fill="#093f68"/><rect x="119.24" y="109.26" width="4.61" height="4.61" fill="#093f68"/><path d="M137,128.37H98.63a1,1,0,0,1,0-2H137a1,1,0,0,1,0,2Z" fill="#093f68"/><path d="M146.72,137.58H98.63a1,1,0,0,1,0-2h48.09a1,1,0,0,1,0,2Z" fill="#093f68"/><path d="M142.19,146.79H98.63a1,1,0,0,1,0-2h43.56a1,1,0,0,1,0,2Z" fill="#093f68"/><path d="M119.24,156H98.63a1,1,0,0,1,0-2h20.61a1,1,0,1,1,0,2Z" fill="#093f68"/><path d="M281.29,202.78H239a1,1,0,0,1,0-2h41.34v-11a1,1,0,0,1,2,0v12A1,1,0,0,1,281.29,202.78Z" fill="#093f68"/><path d="M157.44,202.78H115.69a1,1,0,0,1-1-1v-15a1,1,0,0,1,2,0v14h40.75a1,1,0,0,1,0,2Z" fill="#093f68"/><g id="ahcQ9Z"><path d="M204.13,200.71a2.19,2.19,0,0,0-1.68-2c-.81-.17-1.63-.3-2.45-.43a.53.53,0,0,1-.49-.4c-.24-.66-.52-1.3-.8-1.94a.42.42,0,0,1,0-.49c.5-.68,1-1.35,1.46-2.06a2.15,2.15,0,0,0-.19-2.62c-.75-.83-1.56-1.6-2.34-2.39a2.31,2.31,0,0,0-3.14-.29c-.61.43-1.23.86-1.83,1.31a.44.44,0,0,1-.49,0q-1-.46-2.1-.87a.42.42,0,0,1-.32-.38c-.12-.75-.24-1.5-.37-2.25a2.27,2.27,0,0,0-2.17-1.94c-1.15,0-2.31,0-3.46,0a2.19,2.19,0,0,0-2.1,1.72c-.19.84-.32,1.69-.46,2.54a.44.44,0,0,1-.31.38c-.68.26-1.35.55-2,.85a.41.41,0,0,1-.47,0c-.66-.49-1.33-1-2-1.45a2.19,2.19,0,0,0-2.66.17c-.88.81-1.73,1.65-2.54,2.52a2.23,2.23,0,0,0-.15,3c.45.64.92,1.28,1.36,1.93a.43.43,0,0,1,0,.35c-.28.72-.57,1.45-.87,2.16a.46.46,0,0,1-.28.23l-2.24.38a2.24,2.24,0,0,0-2,2.1c0,1.21,0,2.42,0,3.62a2.17,2.17,0,0,0,1.66,2c.86.19,1.73.32,2.6.47a.4.4,0,0,1,.36.3c.27.69.56,1.36.86,2a.35.35,0,0,1,0,.43c-.45.62-.91,1.24-1.34,1.88a2.27,2.27,0,0,0,.26,3q1.08,1.11,2.19,2.19a2.27,2.27,0,0,0,3.12.24c.63-.44,1.26-.88,1.88-1.34a.35.35,0,0,1,.41,0c.64.27,1.28.55,1.93.79a.49.49,0,0,1,.36.45c.11.75.24,1.48.37,2.22a2.22,2.22,0,0,0,2.07,1.94c1.21,0,2.43,0,3.64,0a2.17,2.17,0,0,0,2-1.69c.18-.82.3-1.65.44-2.48a.48.48,0,0,1,.34-.43c.68-.26,1.36-.54,2-.84a.39.39,0,0,1,.44,0l1.88,1.34a2.34,2.34,0,0,0,1.51.46,1.93,1.93,0,0,0,1.35-.55c.79-.75,1.56-1.53,2.33-2.3a2.31,2.31,0,0,0,.29-3.19l-1.31-1.83a.37.37,0,0,1,0-.44c.29-.67.58-1.35.85-2a.42.42,0,0,1,.39-.31c.75-.11,1.49-.24,2.24-.37a2.25,2.25,0,0,0,2-2.15C204.16,203.08,204.15,201.89,204.13,200.71Zm-18.54,9.79a8,8,0,1,1,8-8A8,8,0,0,1,185.59,210.5Z" fill="#ffbc0e" stroke="#093f68" stroke-linecap="round" stroke-linejoin="round" stroke-width="2"/></g><g id="ahcQ9Z-2" data-name="ahcQ9Z"><path d="M235.15,190.37a1.61,1.61,0,0,0-1.24-1.5c-.6-.13-1.21-.23-1.82-.32a.42.42,0,0,1-.36-.3c-.18-.49-.38-1-.59-1.43a.33.33,0,0,1,0-.37c.37-.5.74-1,1.08-1.52a1.62,1.62,0,0,0-.14-2c-.56-.61-1.16-1.18-1.74-1.76a1.71,1.71,0,0,0-2.32-.22c-.45.32-.91.64-1.35,1a.33.33,0,0,1-.37,0c-.51-.23-1-.44-1.56-.64a.33.33,0,0,1-.23-.29c-.09-.55-.18-1.11-.28-1.66a1.67,1.67,0,0,0-1.6-1.44c-.86,0-1.71,0-2.57,0a1.62,1.62,0,0,0-1.55,1.27c-.14.62-.23,1.25-.34,1.88a.3.3,0,0,1-.23.28c-.5.2-1,.41-1.49.63a.29.29,0,0,1-.34,0c-.5-.37-1-.74-1.5-1.08a1.62,1.62,0,0,0-2,.13c-.65.6-1.28,1.22-1.88,1.87a1.64,1.64,0,0,0-.11,2.18l1,1.44a.31.31,0,0,1,0,.25c-.2.54-.42,1.08-.64,1.61a.34.34,0,0,1-.21.16l-1.66.28a1.69,1.69,0,0,0-1.49,1.57c0,.89,0,1.78,0,2.67a1.6,1.6,0,0,0,1.24,1.49c.63.14,1.28.24,1.92.35a.31.31,0,0,1,.27.22c.2.51.41,1,.64,1.51a.29.29,0,0,1,0,.32c-.34.46-.68.92-1,1.39a1.68,1.68,0,0,0,.19,2.25c.54.55,1.08,1.09,1.63,1.63a1.67,1.67,0,0,0,2.3.17c.47-.32.94-.65,1.4-1a.25.25,0,0,1,.3,0c.47.2,1,.41,1.43.58a.38.38,0,0,1,.27.34c.08.55.17,1.1.27,1.64a1.66,1.66,0,0,0,1.53,1.44q1.35,0,2.7,0a1.62,1.62,0,0,0,1.5-1.26c.13-.6.22-1.22.32-1.83a.35.35,0,0,1,.26-.32c.5-.19,1-.4,1.49-.62a.27.27,0,0,1,.32,0l1.39,1a1.82,1.82,0,0,0,1.12.34,1.42,1.42,0,0,0,1-.41c.59-.55,1.16-1.13,1.73-1.7a1.71,1.71,0,0,0,.21-2.36c-.31-.46-.64-.91-1-1.36a.29.29,0,0,1,0-.32c.22-.5.43-1,.63-1.52a.35.35,0,0,1,.29-.23c.56-.08,1.11-.17,1.67-.27a1.67,1.67,0,0,0,1.45-1.59C235.17,192.12,235.17,191.25,235.15,190.37Zm-13.73,7.25a5.92,5.92,0,1,1,5.94-5.91A5.92,5.92,0,0,1,221.42,197.62Z" fill="#f56132" stroke="#093f68" stroke-linecap="round" stroke-linejoin="round" stroke-width="2"/></g><path d="M152.43,208.35a1,1,0,0,1-.63-1.78l5.84-4.73-5.78-4A1,1,0,1,1,153,196.2l6.87,4.76a1,1,0,0,1,.06,1.6l-6.87,5.57A1,1,0,0,1,152.43,208.35Z" fill="#093f68"/><path d="M253.25,208.35a1,1,0,0,1-.78-.37,1,1,0,0,1,.15-1.41l5.84-4.73-5.78-4a1,1,0,1,1,1.14-1.64l6.87,4.76a1,1,0,0,1,.43.79,1,1,0,0,1-.37.81l-6.87,5.57A1,1,0,0,1,253.25,208.35Z" fill="#093f68"/><path d="M320.31,150.25v22c0,6.21-17.47,11.25-39,11.25s-39-5-39-11.25v-22Z" fill="#68e1fd"/><path d="M281.29,184.5c-26,0-40-6.31-40-12.25v-22a1,1,0,0,1,1-1h78a1,1,0,0,1,1,1v22C321.31,178.19,307.28,184.5,281.29,184.5Zm-38-33.25v21c0,4.85,15.62,10.25,38,10.25s38-5.4,38-10.25v-21Z" fill="#093f68"/><ellipse cx="281.29" cy="150.25" rx="39.02" ry="11.24" fill="#093f68"/><path d="M281.29,162.5c-26,0-40-6.31-40-12.25s14-12.24,40-12.24,40,6.31,40,12.24S307.28,162.5,281.29,162.5Zm0-22.49c-22.4,0-38,5.4-38,10.24s15.62,10.25,38,10.25,38-5.4,38-10.25S303.69,140,281.29,140Z" fill="#093f68"/><path d="M314.48,172.14a1,1,0,0,1-1-1v-8.61a1,1,0,1,1,2,0v8.61A1,1,0,0,1,314.48,172.14Z" fill="#093f68"/><path d="M320.31,120.22v22c0,6.21-17.47,11.24-39,11.24s-39-5-39-11.24v-22Z" fill="#68e1fd"/><path d="M281.29,154.46c-26,0-40-6.31-40-12.24v-22a1,1,0,0,1,1-1h78a1,1,0,0,1,1,1v22C321.31,148.15,307.28,154.46,281.29,154.46Zm-38-33.24v21c0,4.84,15.62,10.24,38,10.24s38-5.4,38-10.24v-21Z" fill="#093f68"/><ellipse cx="281.29" cy="120.22" rx="39.02" ry="11.24" fill="#093f68"/><path d="M281.29,132.46c-26,0-40-6.31-40-12.24s14-12.25,40-12.25,40,6.31,40,12.25S307.28,132.46,281.29,132.46Zm0-22.49c-22.4,0-38,5.4-38,10.25s15.62,10.24,38,10.24,38-5.4,38-10.24S303.69,110,281.29,110Z" fill="#093f68"/><path d="M314.48,142.1a1,1,0,0,1-1-1v-8.6a1,1,0,0,1,2,0v8.6A1,1,0,0,1,314.48,142.1Z" fill="#093f68"/><path d="M309.81,144.31a1,1,0,0,1-1-1v-8.6a1,1,0,1,1,2,0v8.6A1,1,0,0,1,309.81,144.31Z" fill="#093f68"/><path d="M309.81,174.32a1,1,0,0,1-1-1v-8.6a1,1,0,1,1,2,0v8.6A1,1,0,0,1,309.81,174.32Z" fill="#093f68"/><path d="M305.07,175.21a1,1,0,0,1-1-1V165.6a1,1,0,1,1,2,0v8.61A1,1,0,0,1,305.07,175.21Z" fill="#093f68"/><path d="M320.31,90.18v22c0,6.21-17.47,11.24-39,11.24s-39-5-39-11.24v-22Z" fill="#68e1fd"/><path d="M281.29,124.42c-26,0-40-6.3-40-12.24v-22a1,1,0,0,1,1-1h78a1,1,0,0,1,1,1v22C321.31,118.12,307.28,124.42,281.29,124.42Zm-38-33.24v21c0,4.85,15.62,10.24,38,10.24s38-5.39,38-10.24v-21Z" fill="#093f68"/><ellipse cx="281.29" cy="90.18" rx="39.02" ry="11.24" fill="#68e1fd"/><path d="M281.29,102.42c-26,0-40-6.3-40-12.24s14-12.24,40-12.24,40,6.31,40,12.24S307.28,102.42,281.29,102.42Zm0-22.48c-22.4,0-38,5.4-38,10.24s15.62,10.24,38,10.24,38-5.39,38-10.24S303.69,79.94,281.29,79.94Z" fill="#093f68"/><path d="M314.48,112.06a1,1,0,0,1-1-1v-8.6a1,1,0,1,1,2,0v8.6A1,1,0,0,1,314.48,112.06Z" fill="#093f68"/><path d="M147.65,156.17h0a2.29,2.29,0,0,1,2.29,2.29V183a0,0,0,0,1,0,0h-4.58a0,0,0,0,1,0,0V158.46a2.29,2.29,0,0,1,2.29-2.29Z" transform="translate(364.66 110.73) rotate(115.87)" fill="#68e1fd"/><path d="M157.66,177.74a3.32,3.32,0,0,1-1.43-.33l-22.1-10.71a1,1,0,0,1-.51-.58,1,1,0,0,1,0-.76l2-4.12a1,1,0,0,1,1.33-.46l22.1,10.71a3.29,3.29,0,0,1-1.44,6.25ZM135.9,165.33l21.2,10.28a1.29,1.29,0,0,0,1.78-1.58,1.24,1.24,0,0,0-.66-.74L137,163Z" fill="#093f68"/><circle cx="135.57" cy="163.74" r="11.14" fill="#68e1fd"/><path d="M135.55,175.87a12.12,12.12,0,0,1-5.28-1.21h0a12.15,12.15,0,0,1-5.62-16.22A12.14,12.14,0,0,1,146.49,169,12.16,12.16,0,0,1,135.55,175.87Zm-4.41-3A10.14,10.14,0,0,0,140,154.61a10.15,10.15,0,0,0-13.54,4.7,10.16,10.16,0,0,0,4.69,13.55Z" fill="#093f68"/><circle cx="135.57" cy="163.74" r="7.08" fill="#fff"/><path d="M135.55,171.82a8.08,8.08,0,1,1,7.29-4.56A8.1,8.1,0,0,1,135.55,171.82Zm0-14.16a6.07,6.07,0,1,0,2.64.6A6.09,6.09,0,0,0,135.58,157.66Z" fill="#093f68"/><path d="M213.38,103.85H188.67a1,1,0,0,1,0-2h24.71a1,1,0,0,1,0,2Z" fill="#dfeaef"/><path d="M213.38,114.14H180.63a1,1,0,0,1,0-2h32.75a1,1,0,0,1,0,2Z" fill="#dfeaef"/><path d="M213.38,124.42H180.63a1,1,0,0,1,0-2h32.75a1,1,0,0,1,0,2Z" fill="#dfeaef"/><path d="M213.38,149.51H180.63a1,1,0,0,1,0-2h32.75a1,1,0,0,1,0,2Z" fill="#dfeaef"/><path d="M202.48,159.79H180.63a1,1,0,0,1,0-2h21.85a1,1,0,0,1,0,2Z" fill="#dfeaef"/></g></svg>