<svg xmlns="http://www.w3.org/2000/svg" viewBox="0 0 400 300"><g id="_373_architect_outline" data-name="#373_architect_outline"><path d="M128,181.5s-1.13-3.3,1.58-5,7.21-.56,7.21-.56l2.53,20.36S128.92,191.42,128,181.5Z" fill="#093f68"/><path d="M139.32,197.31a1.07,1.07,0,0,1-.43-.09c-.44-.21-10.84-5.22-11.88-15.51a5.26,5.26,0,0,1,2-6.05c3-1.89,7.78-.73,8-.68a1,1,0,0,1,.75.84l2.53,20.37a1,1,0,0,1-.41.93A1,1,0,0,1,139.32,197.31Zm-5.79-20.73a6.54,6.54,0,0,0-3.42.78c-2,1.24-1.2,3.72-1.17,3.82a.59.59,0,0,1,.05.23c.64,6.86,6.23,11.24,9.09,13.05l-2.2-17.67A13.84,13.84,0,0,0,133.53,176.58Z" fill="#093f68"/><path d="M272.41,181.5s1.13-3.3-1.58-5-7.21-.56-7.21-.56l-2.53,20.36S271.49,191.42,272.41,181.5Z" fill="#093f68"/><path d="M261.09,197.31a1,1,0,0,1-.58-.19,1,1,0,0,1-.41-.93l2.53-20.37a1,1,0,0,1,.75-.84c.2,0,5-1.21,8,.68a5.26,5.26,0,0,1,2,6.05c-1,10.29-11.44,15.3-11.88,15.51A1.07,1.07,0,0,1,261.09,197.31Zm3.44-20.52-2.2,17.67c2.86-1.81,8.45-6.19,9.09-13.05a1,1,0,0,1,.05-.23c0-.11.81-2.58-1.17-3.82C268.56,176.27,265.79,176.57,264.53,176.79Z" fill="#093f68"/><path d="M125.38,205c-.2-1.16-.3-2.51.52-3.36a2.58,2.58,0,0,1,2.77-.42,5.6,5.6,0,0,1,2.23,1.93c1.92,2.53,5.81,12.26-.22,12.41C126.81,215.69,125.86,207.71,125.38,205Z" fill="#ffc9b0"/><path d="M130.6,216.6c-4.33,0-5.5-7.16-6.07-10.62l-.13-.78h0c-.24-1.34-.37-3,.78-4.22a3.53,3.53,0,0,1,3.87-.65,6.62,6.62,0,0,1,2.65,2.24c1.42,1.88,4.39,8.36,2.71,11.85a3.88,3.88,0,0,1-3.71,2.17Zm-4.23-11.75c0,.23.08.51.13.81.4,2.45,1.47,8.94,4.11,8.94h0a2,2,0,0,0,2-1c1.1-2.27-1-7.77-2.51-9.77a4.52,4.52,0,0,0-1.81-1.6,1.59,1.59,0,0,0-1.67.19c-.53.54-.4,1.67-.25,2.48Z" fill="#093f68"/><path d="M274.62,205c.2-1.16.3-2.51-.52-3.36a2.58,2.58,0,0,0-2.77-.42,5.6,5.6,0,0,0-2.23,1.93c-1.92,2.53-5.81,12.26.22,12.41C273.19,215.69,274.14,207.71,274.62,205Z" fill="#ffc9b0"/><path d="M269.4,216.6h-.11a3.87,3.87,0,0,1-3.7-2.17c-1.68-3.49,1.29-10,2.71-11.85a6.62,6.62,0,0,1,2.65-2.24,3.53,3.53,0,0,1,3.87.65c1.15,1.18,1,2.88.78,4.22h0l-.13.79C274.9,209.44,273.73,216.6,269.4,216.6ZM272.46,202a2,2,0,0,0-.75.15,4.52,4.52,0,0,0-1.81,1.6c-1.51,2-3.61,7.5-2.51,9.77a2,2,0,0,0,2,1h0c2.64,0,3.71-6.49,4.11-8.94.05-.3.09-.57.13-.81h0c.15-.81.28-1.94-.25-2.48A1.25,1.25,0,0,0,272.46,202Zm2.16,3h0Z" fill="#093f68"/><path d="M249.27,193.41v39.83H151.34V193.41c0-13.13,6.84-24.52,16.84-30.19a29,29,0,0,1,14.39-3.83H218a29.11,29.11,0,0,1,14.4,3.82C242.44,168.88,249.27,180.27,249.27,193.41Z" fill="#68e1fd"/><path d="M249.27,234.24H151.34a1,1,0,0,1-1-1V193.41c0-13.1,6.65-25,17.34-31.06a30.22,30.22,0,0,1,14.89-4H218a30.21,30.21,0,0,1,14.89,4c10.69,6.06,17.34,18,17.34,31.07v39.83A1,1,0,0,1,249.27,234.24Zm-96.93-2h95.93V193.41c0-12.38-6.26-23.62-16.33-29.33a27.86,27.86,0,0,0-13.9-3.69H182.57a27.72,27.72,0,0,0-13.9,3.7c-10.07,5.71-16.33,16.94-16.33,29.32Z" fill="#093f68"/><path d="M192.42,147.93H208.2a0,0,0,0,1,0,0v13.2a6.46,6.46,0,0,1-6.46,6.46h-2.87a6.46,6.46,0,0,1-6.46-6.46v-13.2A0,0,0,0,1,192.42,147.93Z" fill="#ffc9b0"/><path d="M201.74,168.58h-2.87a7.46,7.46,0,0,1-7.45-7.46V147.93a1,1,0,0,1,1-1H208.2a1,1,0,0,1,1,1v13.19A7.47,7.47,0,0,1,201.74,168.58Zm-8.32-19.65v12.19a5.46,5.46,0,0,0,5.45,5.46h2.87a5.47,5.47,0,0,0,5.46-5.46V148.93Z" fill="#093f68"/><ellipse cx="167.79" cy="118.09" rx="11.16" ry="13.76" fill="#ffc9b0"/><path d="M167.79,132.85c-6.7,0-12.16-6.62-12.16-14.76s5.46-14.76,12.16-14.76,12.15,6.62,12.15,14.76S174.49,132.85,167.79,132.85Zm0-27.52c-5.6,0-10.16,5.72-10.16,12.76s4.56,12.76,10.16,12.76,10.15-5.72,10.15-12.76S173.39,105.33,167.79,105.33Z" fill="#093f68"/><ellipse cx="232.83" cy="118.09" rx="11.16" ry="13.76" fill="#ffc9b0"/><path d="M232.83,132.85c-6.71,0-12.16-6.62-12.16-14.76s5.45-14.76,12.16-14.76S245,110,245,118.09,239.53,132.85,232.83,132.85Zm0-27.52c-5.61,0-10.16,5.72-10.16,12.76s4.55,12.76,10.16,12.76S243,125.13,243,118.09,238.43,105.33,232.83,105.33Z" fill="#093f68"/><path d="M222.22,75a12.71,12.71,0,0,1,12.71,12.71v34.4a33.1,33.1,0,0,1-33.1,33.11h-3a33.11,33.11,0,0,1-33.11-33.11V87.74A12.71,12.71,0,0,1,178.4,75Z" fill="#ffc9b0"/><path d="M201.83,156.25h-3a34.15,34.15,0,0,1-34.11-34.11V87.74A13.73,13.73,0,0,1,178.4,74h43.82a13.73,13.73,0,0,1,13.71,13.71v34.4A34.14,34.14,0,0,1,201.83,156.25ZM178.4,76a11.73,11.73,0,0,0-11.72,11.71v34.4a32.15,32.15,0,0,0,32.11,32.11h3a32.14,32.14,0,0,0,32.1-32.11V87.74A11.72,11.72,0,0,0,222.22,76Z" fill="#093f68"/><path d="M200.67,140.46a21.58,21.58,0,0,1-10.88-2.89,1,1,0,1,1,1.07-1.68,19.93,19.93,0,0,0,19.63,0,1,1,0,0,1,1,1.76A22.12,22.12,0,0,1,200.67,140.46Z" fill="#093f68"/><path d="M200.65,43.1h0A39.94,39.94,0,0,1,240.59,83v2.12a0,0,0,0,1,0,0H160.71a0,0,0,0,1,0,0V83A39.94,39.94,0,0,1,200.65,43.1Z" fill="#68e1fd"/><path d="M240.59,86.16H160.71a1,1,0,0,1-1-1V83a40.94,40.94,0,1,1,81.88,0v2.12A1,1,0,0,1,240.59,86.16Zm-78.88-2h77.88V83a38.94,38.94,0,1,0-77.88,0Z" fill="#093f68"/><rect x="152.04" y="85.16" width="97.23" height="15.33" rx="7.67" fill="#68e1fd"/><path d="M241.6,101.49H159.7a8.67,8.67,0,0,1,0-17.33h81.9a8.67,8.67,0,1,1,0,17.33ZM159.7,86.16a6.67,6.67,0,0,0,0,13.33h81.9a6.67,6.67,0,1,0,0-13.33Z" fill="#093f68"/><path d="M195.47,40h10.36a6.25,6.25,0,0,1,6.23,6.71l-2.82,38.48H192.06l-2.82-38.48A6.26,6.26,0,0,1,195.47,40Z" fill="#68e1fd"/><path d="M209.24,86.16H192.06a1,1,0,0,1-1-.93l-2.82-38.48A7.26,7.26,0,0,1,195.47,39h10.36a7.26,7.26,0,0,1,7.23,7.78l-2.82,38.48A1,1,0,0,1,209.24,86.16Zm-16.25-2h15.32l2.75-37.55A5.26,5.26,0,0,0,205.83,41H195.47a5.26,5.26,0,0,0-5.23,5.64Z" fill="#093f68"/><path d="M189.09,126.4H175.65a6.78,6.78,0,0,1-6.77-6.77V114.1a6.78,6.78,0,0,1,6.77-6.77h13.44a6.78,6.78,0,0,1,6.77,6.77v5.53A6.78,6.78,0,0,1,189.09,126.4Zm-13.44-17.07a4.78,4.78,0,0,0-4.77,4.77v5.53a4.78,4.78,0,0,0,4.77,4.77h13.44a4.78,4.78,0,0,0,4.77-4.77V114.1a4.78,4.78,0,0,0-4.77-4.77Z" fill="#093f68"/><path d="M224.8,126.4H211.36a6.78,6.78,0,0,1-6.77-6.77V114.1a6.78,6.78,0,0,1,6.77-6.77H224.8a6.78,6.78,0,0,1,6.77,6.77v5.53A6.78,6.78,0,0,1,224.8,126.4Zm-13.44-17.07a4.78,4.78,0,0,0-4.77,4.77v5.53a4.78,4.78,0,0,0,4.77,4.77H224.8a4.78,4.78,0,0,0,4.77-4.77V114.1a4.78,4.78,0,0,0-4.77-4.77Z" fill="#093f68"/><path d="M205.59,116.51a1,1,0,0,1-.62-.22c-3.86-3-8.63-.07-8.83.06a1,1,0,0,1-1.08-1.69c.25-.16,6.16-3.85,11.14.06a1,1,0,0,1-.61,1.79Z" fill="#093f68"/><path d="M170.32,113.4a1,1,0,0,1-.73-.32l-4.67-5a1,1,0,0,1,1.47-1.36l4.66,5a1,1,0,0,1-.73,1.68Z" fill="#093f68"/><path d="M230.29,113.4a1,1,0,0,1-.73-1.68l4.67-5a1,1,0,1,1,1.46,1.36l-4.66,5A1,1,0,0,1,230.29,113.4Z" fill="#093f68"/><path d="M169.9,216.6a1,1,0,0,1-1-1V174.51a1,1,0,0,1,2,0V215.6A1,1,0,0,1,169.9,216.6Z" fill="#093f68"/><path d="M230.71,216.6a1,1,0,0,1-1-1V174.51a1,1,0,0,1,2,0V215.6A1,1,0,0,1,230.71,216.6Z" fill="#093f68"/><path d="M201.39,129.37a20.3,20.3,0,0,1-3.51-.32,1,1,0,0,1,.39-2,14.83,14.83,0,0,0,5.42,0c.41-1-1-5.47-3-9.83a1,1,0,0,1,1.81-.85c1,2.1,4.12,9.14,3,11.57a1.85,1.85,0,0,1-1.17,1A11.44,11.44,0,0,1,201.39,129.37Z" fill="#093f68"/><circle cx="185.01" cy="115.04" r="3.36" fill="#093f68"/><path d="M190.56,106.33H174.43a2,2,0,0,1,0-4h16.13a2,2,0,0,1,0,4Z" fill="#093f68"/><circle cx="216.63" cy="115.04" r="3.36" fill="#093f68"/><path d="M227.2,106.33H211.08a2,2,0,0,1,0-4H227.2a2,2,0,0,1,0,4Z" fill="#093f68"/><rect x="193.92" y="167.58" width="11.66" height="6.93" rx="2.87" fill="#f56132"/><path d="M202.71,175.51H196.8a3.88,3.88,0,0,1-3.88-3.88v-1.18a3.88,3.88,0,0,1,3.88-3.87h5.91a3.88,3.88,0,0,1,3.88,3.87v1.18A3.88,3.88,0,0,1,202.71,175.51Zm-5.91-6.93a1.88,1.88,0,0,0-1.88,1.87v1.18a1.88,1.88,0,0,0,1.88,1.88h5.91a1.88,1.88,0,0,0,1.88-1.88v-1.18a1.88,1.88,0,0,0-1.88-1.87Z" fill="#093f68"/><polygon points="203.7 174.51 195.81 174.51 188.71 210.61 210.8 210.61 203.7 174.51" fill="#f56132"/><path d="M210.8,211.61H188.71a1,1,0,0,1-.78-.37,1,1,0,0,1-.2-.83l7.1-36.09a1,1,0,0,1,1-.81h7.89a1,1,0,0,1,1,.81l7.1,36.09a1,1,0,0,1-.21.83A1,1,0,0,1,210.8,211.61Zm-20.88-2h19.67l-6.71-34.1h-6.25Z" fill="#093f68"/><rect x="217.96" y="190.88" width="18.48" height="22.56" fill="#68e1fd"/><path d="M236.44,214.44H218a1,1,0,0,1-1-1V190.88a1,1,0,0,1,1-1h18.48a1,1,0,0,1,1,1v22.56A1,1,0,0,1,236.44,214.44Zm-17.48-2h16.48V191.88H219Z" fill="#093f68"/><path d="M225.29,201H210.63a1,1,0,0,1-1-1V181.77a1,1,0,0,1,1-1h14.66a1,1,0,0,1,1,1V200A1,1,0,0,1,225.29,201Zm-13.66-2h12.66V182.77H211.63Z" fill="#093f68"/><path d="M128,181.5l0-.32A2.39,2.39,0,0,0,128,181.5Z" fill="#fff"/><path d="M128,182.5a1,1,0,0,1-1-.85,3.68,3.68,0,0,1,0-.45,1,1,0,0,1,2-.11l0,.31a1,1,0,0,1-.87,1.09Z" fill="#093f68"/><path d="M271,184.7c-1.5,1.63-4.81,1.55-5.54,1.51H135.34s-4,.32-5.68-1.51a6,6,0,0,1-1.66-3.2L134.58,249s.38,7,6.81,7h118c6.27-.12,6.65-7,6.65-7l6.58-67.54A6.06,6.06,0,0,1,271,184.7Z" fill="#fff"/><path d="M259.38,257h-118c-5.84,0-7.66-5.19-7.81-7.94L127,181.6a1,1,0,0,1,2-.25,5.19,5.19,0,0,0,1.4,2.68c1.11,1.2,4,1.25,4.87,1.18H265.6c1.6.06,3.71-.21,4.62-1.19h0a5.13,5.13,0,0,0,1.4-2.67,1,1,0,0,1,2,.24L267,249.14c-.14,2.63-1.89,7.68-7.47,7.87Zm-130-71.19,6.16,63.1c0,.29.42,6.09,5.81,6.09h118c5.25-.1,5.66-5.79,5.67-6l6.16-63.14c-1.87,1.45-4.88,1.42-5.82,1.37h-130C135,187.24,131.51,187.47,129.42,185.84ZM271,184.7h0Z" fill="#093f68"/><path d="M272.61,181.5c0-.2,0-.32,0-.32Z" fill="#fff"/><path d="M272.62,182.5h-.13a1,1,0,0,1-.87-1.09l0-.31a1,1,0,0,1,1.05-.9,1,1,0,0,1,.95,1s0,.17,0,.45A1,1,0,0,1,272.62,182.5Z" fill="#093f68"/><rect x="255.83" y="209.33" width="19.8" height="5.51" rx="2.76" transform="translate(476.07 479.18) rotate(-166.82)" fill="#ffc9b0"/><path d="M272.68,217.47a4.29,4.29,0,0,1-.86-.1l-13.91-3.26h0a3.75,3.75,0,1,1,1.72-7.31l13.91,3.25a3.76,3.76,0,0,1-.86,7.42Zm-14.31-5.31,13.91,3.26a1.76,1.76,0,0,0,.8-3.42l-13.91-3.26a1.76,1.76,0,1,0-.8,3.42Z" fill="#093f68"/><rect x="254.57" y="214.69" width="19.8" height="5.51" rx="2.76" transform="translate(472.37 489.48) rotate(-166.82)" fill="#ffc9b0"/><path d="M271.42,222.83a3.53,3.53,0,0,1-.85-.1l-13.91-3.26h0a3.75,3.75,0,0,1,1.71-7.31l13.91,3.26a3.77,3.77,0,0,1,2.8,4.51A3.77,3.77,0,0,1,271.42,222.83Zm-13.91-8.77a1.77,1.77,0,0,0-1.71,1.36,1.8,1.8,0,0,0,.22,1.32,1.78,1.78,0,0,0,1.09.79h0L271,220.78a1.76,1.76,0,0,0,1.9-2.63,1.72,1.72,0,0,0-1.1-.78l-13.91-3.26A1.75,1.75,0,0,0,257.51,214.06Z" fill="#093f68"/><rect x="253.31" y="220.06" width="19.8" height="5.51" rx="2.76" transform="translate(468.66 499.79) rotate(-166.82)" fill="#ffc9b0"/><path d="M270.17,228.2a4.2,4.2,0,0,1-.86-.1l-13.91-3.26h0a3.75,3.75,0,1,1,1.71-7.31L271,220.78a3.76,3.76,0,0,1-.85,7.42Zm-14.31-5.31,13.91,3.26a1.76,1.76,0,0,0,.8-3.42l-13.91-3.26a1.76,1.76,0,1,0-.8,3.42Z" fill="#093f68"/><rect x="252.06" y="225.42" width="19.8" height="5.51" rx="2.76" transform="translate(464.96 510.09) rotate(-166.82)" fill="#ffc9b0"/><path d="M268.91,233.56a3.67,3.67,0,0,1-.86-.1l-13.91-3.26h0a3.75,3.75,0,1,1,1.72-7.31l13.91,3.26a3.75,3.75,0,0,1-.86,7.41Zm-14.31-5.3,13.91,3.25a1.75,1.75,0,1,0,.8-3.41l-13.91-3.26a1.76,1.76,0,1,0-.8,3.42Z" fill="#093f68"/><rect x="124.38" y="209.33" width="19.8" height="5.51" rx="2.76" transform="translate(-44.83 36.22) rotate(-13.18)" fill="#ffc9b0"/><path d="M127.32,217.47a3.77,3.77,0,0,1-3.66-2.9,3.77,3.77,0,0,1,2.8-4.52l13.91-3.25a3.75,3.75,0,0,1,1.72,7.31h0l-13.91,3.26A4.29,4.29,0,0,1,127.32,217.47Zm13.91-8.77a1.81,1.81,0,0,0-.4,0L126.92,212a1.75,1.75,0,0,0-1.09.79,1.7,1.7,0,0,0-.22,1.32,1.76,1.76,0,0,0,2.11,1.31l13.91-3.26a1.74,1.74,0,0,0,1.09-.78,1.77,1.77,0,0,0,.22-1.33,1.76,1.76,0,0,0-1.71-1.35Zm.63,4.43h0Z" fill="#093f68"/><rect x="125.63" y="214.69" width="19.8" height="5.51" rx="2.76" transform="translate(-46.03 36.65) rotate(-13.18)" fill="#ffc9b0"/><path d="M128.58,222.83a3.77,3.77,0,0,1-3.66-2.9,3.71,3.71,0,0,1,.47-2.83,3.67,3.67,0,0,1,2.33-1.68l13.91-3.26a3.73,3.73,0,0,1,2.84.47,3.77,3.77,0,0,1,1.21,5.17,3.74,3.74,0,0,1-2.34,1.67l-13.91,3.26A3.53,3.53,0,0,1,128.58,222.83Zm13.91-8.77a1.75,1.75,0,0,0-.4.05l-13.91,3.26a1.72,1.72,0,0,0-1.1.78,1.76,1.76,0,0,0,1.9,2.63l13.91-3.25h0a1.78,1.78,0,0,0,1.09-.79,1.76,1.76,0,0,0-1.49-2.68Z" fill="#093f68"/><rect x="126.89" y="220.06" width="19.8" height="5.51" rx="2.76" transform="translate(-47.22 37.07) rotate(-13.18)" fill="#ffc9b0"/><path d="M129.83,228.2a3.76,3.76,0,0,1-.85-7.42l13.91-3.25a3.76,3.76,0,0,1,4.51,2.8,3.77,3.77,0,0,1-2.8,4.51h0l-13.91,3.26A4.2,4.2,0,0,1,129.83,228.2Zm13.91-8.77a1.87,1.87,0,0,0-.4,0l-13.91,3.26a1.78,1.78,0,0,0-1.09.79,1.74,1.74,0,0,0-.22,1.32,1.77,1.77,0,0,0,2.11,1.31l13.91-3.26a1.76,1.76,0,0,0,1.31-2.11A1.75,1.75,0,0,0,143.74,219.43Zm.63,4.43h0Z" fill="#093f68"/><rect x="128.15" y="225.42" width="19.8" height="5.51" rx="2.76" transform="translate(-48.41 37.5) rotate(-13.18)" fill="#ffc9b0"/><path d="M131.09,233.56a3.75,3.75,0,0,1-3.19-5.73,3.72,3.72,0,0,1,2.33-1.68l13.91-3.26a3.75,3.75,0,1,1,1.72,7.31h0L132,233.46A3.67,3.67,0,0,1,131.09,233.56ZM145,224.79a1.83,1.83,0,0,0-.4.05l-13.91,3.26a1.7,1.7,0,0,0-1.09.78,1.73,1.73,0,0,0-.22,1.33,1.76,1.76,0,0,0,2.11,1.3l13.91-3.25a1.77,1.77,0,0,0,1.31-2.11,1.73,1.73,0,0,0-.79-1.09A1.68,1.68,0,0,0,145,224.79Zm.63,4.44h0Z" fill="#093f68"/><rect x="213.37" y="175.2" width="3.91" height="6.56" fill="#ffbc0e"/><path d="M217.28,182.77h-3.91a1,1,0,0,1-1-1V175.2a1,1,0,0,1,1-1h3.91a1,1,0,0,1,1,1v6.57A1,1,0,0,1,217.28,182.77Zm-2.91-2h1.91V176.2h-1.91Z" fill="#093f68"/><path d="M188.37,181.33H176.28a1,1,0,0,1,0-2h12.09a1,1,0,0,1,0,2Z" fill="#093f68"/><path d="M160.71,197.31H139.32a1,1,0,0,1,0-2h21.39a1,1,0,0,1,0,2Z" fill="#dfeaef"/></g></svg>