<svg xmlns="http://www.w3.org/2000/svg" viewBox="0 0 400 300"><g id="_93_artificial_intelligence_outline" data-name="#93_artificial_intelligence_outline"><path d="M274.7,176.11H257.84v21.27A19.81,19.81,0,0,1,238,217.19H220.73a9.27,9.27,0,0,0-9.28,9.28v6.37H150s1-32.55-.59-42.25c-1.11-6.77-4.52-12.69-8.11-19.46-6.51-12.29-13.59-27.4-8.45-55.59,5.87-32.14,29.84-45.45,54.22-47.94,14.81-1.51,29.77,1,40.93,5.63a63,63,0,0,1,12.74,7.09c26.37,19.06,23.6,50.88,23.6,50.88l14.09,39.63A4,4,0,0,1,274.7,176.11Z" fill="#093f68"/><path d="M211.45,233.84H150a1,1,0,0,1-.72-.3,1,1,0,0,1-.28-.73c0-.32,1-32.57-.58-42.06-1-6-3.77-11.21-7-17.28l-1-1.87c-7.08-13.36-13.57-28.71-8.55-56.24C137,87.43,157.05,69.66,187,66.6c14.2-1.44,29.3.64,41.42,5.71a65.17,65.17,0,0,1,12.94,7.2c25.35,18.32,24.2,48.63,24,51.55l14,39.43a5,5,0,0,1-4.67,6.62H258.84v20.27A20.82,20.82,0,0,1,238,218.19H220.73a8.28,8.28,0,0,0-8.28,8.28v6.37A1,1,0,0,1,211.45,233.84Zm-60.43-2h59.43v-5.37a10.29,10.29,0,0,1,10.28-10.28H238a18.83,18.83,0,0,0,18.8-18.81V176.11a1,1,0,0,1,1-1H274.7a3,3,0,0,0,2.78-4L263.4,131.54a1,1,0,0,1-.06-.43c0-.31,2.4-31.49-23.18-50a63.23,63.23,0,0,0-12.54-7c-11.83-4.94-26.57-7-40.44-5.56-17,1.74-46.6,10.18-53.34,47.13-4.91,26.93,1.14,41.35,8.34,54.94l1,1.87c3.18,6,6.19,11.6,7.21,17.9C151.82,199.25,151.18,226.13,151,231.84Z" fill="#093f68"/><path d="M240.74,80.32v90.81H141.3c-6.51-12.29-13.59-27.4-8.45-55.59,5.87-32.14,29.84-45.45,54.22-47.94,14.81-1.51,29.77,1,40.93,5.63A63,63,0,0,1,240.74,80.32Z" fill="#fff"/><path d="M240.75,172.13H141.3a1,1,0,0,1-.88-.53c-3.32-6.26-6.72-13.12-8.69-22.09-2.24-10.19-2.19-21.36.14-34.15C137,87.43,157.05,69.66,187,66.6c14.2-1.44,29.3.64,41.42,5.71a65.17,65.17,0,0,1,12.94,7.2,1,1,0,0,1,.42.81v90.81A1,1,0,0,1,240.75,172.13Zm-98.85-2h97.85V80.83a64,64,0,0,0-12.13-6.68c-11.83-4.94-26.57-7-40.44-5.56-17,1.74-46.6,10.18-53.34,47.13C129,142.29,134.83,156.69,141.9,170.13Z" fill="#093f68"/><path d="M274.7,176.11H257.84v21.27A19.81,19.81,0,0,1,238,217.19H218a16.32,16.32,0,0,1-16.32-16.33V150H187.07V67.6c14.81-1.51,29.77,1,40.93,5.63,39.93,16.7,36.34,58,36.34,58l14.09,39.63A4,4,0,0,1,274.7,176.11Z" fill="#68e1fd"/><path d="M238,218.19H218a17.34,17.34,0,0,1-17.32-17.33V151H187.07a1,1,0,0,1-1-1V67.6a1,1,0,0,1,.9-1c14.2-1.44,29.3.64,41.42,5.71,38.6,16.15,37.16,55.39,37,58.75l14,39.43a5,5,0,0,1-4.67,6.62H258.84v20.27A20.84,20.84,0,0,1,238,218.19Zm-50-69.19h13.64a1,1,0,0,1,1,1v50.86A15.34,15.34,0,0,0,218,216.19h20a18.83,18.83,0,0,0,18.81-18.81V176.11a1,1,0,0,1,1-1H274.7a3,3,0,0,0,2.78-4L263.4,131.54a1,1,0,0,1-.06-.43c0-.4,3-40.74-35.72-57-11.57-4.83-25.93-6.88-39.55-5.64Z" fill="#093f68"/><circle cx="227.64" cy="126.23" r="5.65" fill="#093f68"/><path d="M227.64,132.88a6.65,6.65,0,1,1,6.65-6.65A6.65,6.65,0,0,1,227.64,132.88Zm0-11.3a4.65,4.65,0,1,0,4.65,4.65A4.65,4.65,0,0,0,227.64,121.58Z" fill="#093f68"/><circle cx="192.86" cy="159.93" r="19.31" fill="#f56132"/><path d="M192.86,180.24a20.31,20.31,0,1,1,20.31-20.31A20.33,20.33,0,0,1,192.86,180.24Zm0-38.62a18.31,18.31,0,1,0,18.31,18.31A18.33,18.33,0,0,0,192.86,141.62Z" fill="#093f68"/><circle cx="192.86" cy="159.93" r="8.85" fill="#ffbc0e"/><path d="M192.86,169.77a9.85,9.85,0,1,1,9.85-9.84A9.85,9.85,0,0,1,192.86,169.77Zm0-17.69a7.85,7.85,0,1,0,7.85,7.85A7.85,7.85,0,0,0,192.86,152.08Z" fill="#093f68"/><path d="M146.74,138.41a1,1,0,0,1-.68-.27,1,1,0,0,1-.05-1.42l10.8-11.56V77.1a1,1,0,0,1,2,0v48.45a1,1,0,0,1-.27.68l-11.06,11.86A1,1,0,0,1,146.74,138.41Z" fill="#093f68"/><path d="M144.53,144a4.21,4.21,0,1,1,4.21-4.21A4.22,4.22,0,0,1,144.53,144Zm0-6.42a2.21,2.21,0,1,0,2.21,2.21A2.21,2.21,0,0,0,144.53,137.6Z" fill="#093f68"/><path d="M161.93,152.08a4.21,4.21,0,1,1,4.21-4.21A4.22,4.22,0,0,1,161.93,152.08Zm0-6.42a2.21,2.21,0,1,0,2.21,2.21A2.21,2.21,0,0,0,161.93,145.66Z" fill="#093f68"/><path d="M144.53,159.94a4.22,4.22,0,1,1,4.21-4.22A4.22,4.22,0,0,1,144.53,159.94Zm0-6.43a2.22,2.22,0,1,0,2.21,2.21A2.22,2.22,0,0,0,144.53,153.51Z" fill="#093f68"/><path d="M147.74,121.78a4.21,4.21,0,1,1,4.21-4.21A4.22,4.22,0,0,1,147.74,121.78Zm0-6.42a2.21,2.21,0,1,0,2.21,2.21A2.21,2.21,0,0,0,147.74,115.36Z" fill="#093f68"/><path d="M165.14,136.17a4.21,4.21,0,1,1,4.21-4.21A4.22,4.22,0,0,1,165.14,136.17Zm0-6.42a2.21,2.21,0,1,0,2.21,2.21A2.21,2.21,0,0,0,165.14,129.75Z" fill="#093f68"/><path d="M180,119.75a4.21,4.21,0,1,1,4.21-4.21A4.22,4.22,0,0,1,180,119.75Zm0-6.42a2.21,2.21,0,1,0,2.21,2.21A2.22,2.22,0,0,0,180,113.33Z" fill="#093f68"/><path d="M165.14,129.75a1,1,0,0,1-1-1V73.24a1,1,0,0,1,2,0v55.51A1,1,0,0,1,165.14,129.75Z" fill="#093f68"/><path d="M177.85,114.14a1,1,0,0,1-.64-.23l-7-5.89a1,1,0,0,1-.36-.77V71a1,1,0,0,1,2,0v35.75l6.69,5.58a1,1,0,0,1-.65,1.77Z" fill="#093f68"/><path d="M161.93,172.13a1,1,0,0,1-1-1v-20a1,1,0,1,1,2,0v20A1,1,0,0,1,161.93,172.13Z" fill="#093f68"/><path d="M152.28,171.2a1,1,0,0,1-1-1v-9.71l-4.06-2.43a1,1,0,0,1,1-1.72l4.54,2.73a1,1,0,0,1,.49.86V170.2A1,1,0,0,1,152.28,171.2Z" fill="#093f68"/><path d="M147.74,115.36a1,1,0,0,1-1-1V85.2a1,1,0,1,1,2,0v29.16A1,1,0,0,1,147.74,115.36Z" fill="#093f68"/><path d="M266.88,233.84H119.63a1,1,0,0,1,0-2H266.88a1,1,0,0,1,0,2Z" fill="#093f68"/><path d="M249.33,194.2c-5.3,0-11.8-1-15.78-5.29a1,1,0,0,1,1.46-1.37c6.69,7.18,22.46,3.88,22.62,3.85a1,1,0,0,1,1.19.76,1,1,0,0,1-.77,1.19A44.72,44.72,0,0,1,249.33,194.2Z" fill="#093f68"/></g></svg>