<svg xmlns="http://www.w3.org/2000/svg" viewBox="0 0 400 300"><g id="_25_balloon_outline" data-name="#25_balloon_outline"><path d="M191.57,207.43c-.26-.2-7.81-4.68-8.28-3.21s-1.27,9.55,1.13,9.09,7.32-3.54,7.32-3.54Z" fill="#fff"/><path d="M184.23,214.33a1.89,1.89,0,0,1-1.42-.66c-1.75-2-.84-8.6-.47-9.75a1.4,1.4,0,0,1,.92-.91c2.12-.68,8.85,3.57,8.91,3.62a1,1,0,0,1,.4.73l.16,2.34a1,1,0,0,1-.46.91c-.21.13-5.1,3.18-7.65,3.68A2.87,2.87,0,0,1,184.23,214.33Zm-.11-9.39c-.65,2.62-.29,7,.2,7.41a31,31,0,0,0,6.38-3.12l-.09-1.23C189.17,207.13,185.46,205.15,184.12,204.94Z" fill="#093f68"/><path d="M194.69,207.43c.27-.2,7.82-4.68,8.29-3.21s1.27,9.55-1.14,9.09-7.31-3.54-7.31-3.54Z" fill="#fff"/><path d="M202,214.33a2.58,2.58,0,0,1-.39,0c-2.56-.5-7.44-3.55-7.65-3.68a1,1,0,0,1-.47-.91l.17-2.34a1,1,0,0,1,.39-.73c.06,0,6.79-4.3,8.92-3.62a1.42,1.42,0,0,1,.92.91c.36,1.15,1.28,7.78-.47,9.75A1.89,1.89,0,0,1,202,214.33Zm-6.47-5.1c1.61,1,4.84,2.78,6.46,3.1.41-.37.77-4.77.11-7.39-1.33.21-5,2.19-6.48,3.06Z" fill="#093f68"/><path d="M183.43,231a1,1,0,0,1-.6-.21,1,1,0,0,1-.19-1.4c10.22-13.34,11.11-28.24,2.64-44.29a77.42,77.42,0,0,0-16.06-20.39,1,1,0,0,1,1.3-1.53c.39.34,39.28,34,13.71,67.43A1,1,0,0,1,183.43,231Z" fill="#68e1fd"/><path d="M188.07,245.15l-.25,0a1,1,0,0,1-.72-1.21c10.76-42.57,1.73-84.08,1.64-84.5a1,1,0,0,1,1.95-.43c.1.42,9.22,42.4-1.65,85.42A1,1,0,0,1,188.07,245.15Z" fill="#68e1fd"/><path d="M200.16,227a.94.94,0,0,1-.63-.23c-.11-.09-11.11-9.36-6.34-25.08,9.4-30.93,28.87-36.6,29.7-36.83a1,1,0,0,1,.53,1.93c-.19.06-19.26,5.68-28.31,35.48-4.4,14.46,5.59,22.87,5.69,23a1,1,0,0,1-.64,1.77Z" fill="#68e1fd"/><polygon points="177.89 168.9 169.87 172.93 166.15 161.78 171.19 159.26 177.89 168.9" fill="#70cc40"/><path d="M169.87,173.93a1,1,0,0,1-.38-.08,1,1,0,0,1-.57-.61L165.2,162.1a1,1,0,0,1,.5-1.21l5-2.53a1,1,0,0,1,1.27.33l6.7,9.64a1,1,0,0,1,.15.82,1,1,0,0,1-.52.64l-8,4A1,1,0,0,1,169.87,173.93Zm-2.5-11.64,3.09,9.22,5.95-3-5.55-8Z" fill="#093f68"/><ellipse cx="151.13" cy="121.71" rx="39.06" ry="46.22" transform="translate(-38.54 80.72) rotate(-26.65)" fill="#70cc40"/><path d="M156.64,167.58c-16,0-32.58-10.47-41.32-27.9C103.64,116.41,110.2,89.42,130,79.51s45.3,1,57,24.23h0a51.47,51.47,0,0,1,4.52,35c-2.75,11.41-9.55,20.34-19.14,25.15A34.73,34.73,0,0,1,156.64,167.58Zm-11-89.74a32.77,32.77,0,0,0-14.79,3.46c-18.76,9.41-24.92,35.2-13.73,57.49s35.54,32.75,54.3,23.33c9.06-4.54,15.48-13,18.09-23.83a49.5,49.5,0,0,0-4.35-33.65h0C176.75,87.91,160.93,77.84,145.63,77.84Z" fill="#093f68"/><polygon points="193.71 162.03 184.25 161.83 186.26 149.61 192.2 149.74 193.71 162.03" fill="#68e1fd"/><path d="M193.71,163h0l-9.46-.2a1,1,0,0,1-.75-.36,1,1,0,0,1-.22-.8l2-12.22a1,1,0,0,1,1-.84l5.94.13a1,1,0,0,1,1,.88l1.51,12.29a1,1,0,0,1-1,1.12Zm-8.29-2.18,7.15.15-1.26-10.28-4.2-.09Z" fill="#093f68"/><ellipse cx="191.99" cy="104.87" rx="48.72" ry="41.18" transform="translate(83.16 294.64) rotate(-88.81)" fill="#68e1fd"/><path d="M191.71,154.58H191c-23.26-.48-41.71-23.17-41.14-50.58S169.74,54.71,193,55.16c11.29.24,21.79,5.65,29.57,15.24s11.84,22.1,11.56,35.34C233.59,132.85,214.62,154.58,191.71,154.58Zm.55-97.43c-21.83,0-39.9,20.86-40.44,46.88-.55,26.31,17,48.08,39.18,48.54h.71c21.83,0,39.9-20.86,40.44-46.88l1,0-1,0c.27-12.77-3.68-24.86-11.12-34S203.67,57.38,193,57.16Z" fill="#093f68"/><polygon points="221.72 172.93 214.77 167.25 223.41 159.3 227.78 162.86 221.72 172.93" fill="#f56132"/><path d="M221.72,173.93a1,1,0,0,1-.63-.23l-7-5.67a1,1,0,0,1-.37-.75,1,1,0,0,1,.32-.76l8.65-8a1,1,0,0,1,1.3,0l4.37,3.57a1,1,0,0,1,.22,1.29l-6,10.06a1,1,0,0,1-.69.47Zm-5.43-6.72,5.17,4.21,5-8.33-3-2.47Z" fill="#093f68"/><ellipse cx="253.84" cy="129.2" rx="46.22" ry="39.06" transform="translate(-6.74 244.21) rotate(-50.79)" fill="#f56132"/><path d="M246.91,173.68A35.85,35.85,0,0,1,224,165.79c-8.32-6.79-13-17-13.21-28.71s4.06-23.46,12-33.21c16.46-20.17,43.78-25.22,60.89-11.25,8.32,6.78,13,17,13.22,28.7a51.53,51.53,0,0,1-12,33.21C274.71,167,260.4,173.68,246.91,173.68Zm13.85-87c-12.9,0-26.64,6.45-36.42,18.43A49.53,49.53,0,0,0,212.77,137c.2,11.13,4.63,20.79,12.48,27.2,16.26,13.26,42.32,8.34,58.08-11a49.48,49.48,0,0,0,11.57-31.9c-.19-11.13-4.63-20.79-12.48-27.19A33.83,33.83,0,0,0,260.76,86.71Z" fill="#093f68"/><rect x="190.23" y="205.67" width="4.86" height="5.88" rx="1.7" fill="#68e1fd"/><path d="M193.4,212.55h-1.47a2.7,2.7,0,0,1-2.7-2.7v-2.48a2.7,2.7,0,0,1,2.7-2.7h1.47a2.7,2.7,0,0,1,2.69,2.7v2.48A2.7,2.7,0,0,1,193.4,212.55Zm-1.47-5.88a.7.7,0,0,0-.7.7v2.48a.7.7,0,0,0,.7.7h1.47a.69.69,0,0,0,.69-.7v-2.48a.7.7,0,0,0-.69-.7Z" fill="#093f68"/></g></svg>