<svg xmlns="http://www.w3.org/2000/svg" viewBox="0 0 400 300"><g id="_418_banana_outline" data-name="#418_banana_outline"><polygon points="124.53 64.48 275.47 64.48 281 224.35 119 224.35 124.53 64.48" fill="#fff"/><path d="M281,225.35H119a1,1,0,0,1-1-1l5.53-159.87a1,1,0,0,1,1-1H275.47a1,1,0,0,1,1,1L282,224.31a1,1,0,0,1-1,1Zm-161-2H280L274.5,65.48h-149Z" fill="#093f68"/><path d="M245.38,106.46l-7.82,16.05a11.38,11.38,0,0,0-6.12,1.43c-3,1.74-20.8,15.37-39.71,11S159.82,112,154.13,104.7s-11-3.57-12.08,3.69-1.84,31.64,23,47.5,51.28,9.35,64.77-1.38,15.84-22.19,16-25.8l4.66-7Z" fill="#68e1fd"/><path d="M196.9,166.38a59.75,59.75,0,0,1-32.36-9.64c-26.69-17-24.24-43.39-23.48-48.5.66-4.46,2.77-7.58,5.64-8.33,1.54-.4,4.66-.4,8.22,4.18.4.51.84,1.09,1.31,1.71,6,7.84,18.5,24.15,35.73,28.15,16.44,3.81,32.25-6.51,37.45-9.9.67-.44,1.19-.78,1.53-1a12.54,12.54,0,0,1,6-1.59L244.49,106a1,1,0,0,1,1.84.12l5.08,15.25a1,1,0,0,1-.11.87L246.79,129c-.15,2.4-1.65,14.6-16.32,26.26C222.27,161.82,210.22,166.38,196.9,166.38ZM148,101.74a3,3,0,0,0-.8.1c-2,.54-3.64,3.1-4.17,6.7-.73,4.89-3.07,30.14,22.58,46.51,23.62,15.07,49.52,9.88,63.6-1.32C244,142,244.76,130,244.81,128.68a1,1,0,0,1,.17-.53l4.38-6.58-4.15-12.47L238.46,123a1,1,0,0,1-1,.55,10.59,10.59,0,0,0-5.53,1.31c-.31.18-.8.5-1.43.91-5.37,3.51-21.72,14.18-39,10.18C173.58,131.74,160.79,115,154.65,107l-1.31-1.69C151.52,103,149.66,101.74,148,101.74Z" fill="#093f68"/><path d="M245.75,110.6l-4.13,16.65s-6.46-.79-10.89,4.06c-2.6,2.86-19.35,21-40.79,20.24s-39.43-18.17-47.14-24.91-12.68-1.57-12.33,6.53,4.64,34.72,34.95,46.73,57.61-.61,70-15.08,12.54-27.4,11.91-31.35l8.5-21.79Z" fill="#68e1fd"/><path d="M189.93,185.67a67.33,67.33,0,0,1-24.88-4.84c-32.47-12.87-35.34-41.92-35.58-47.61-.21-4.94,1.4-8.73,4.31-10.13,1.57-.75,4.9-1.38,9.68,2.8l1.79,1.58c8.17,7.26,25.17,22.36,44.73,23.08s35.58-15.05,40-19.91a14.25,14.25,0,0,1,10.85-4.44l3.94-15.84a1,1,0,0,1,1.07-.76l10.08,1.08a1,1,0,0,1,.74.48,1,1,0,0,1,.08.88l-8.4,21.55c.33,2.51,1.34,16.09-12.18,31.88C226.62,176.63,209.66,185.67,189.93,185.67Zm-53.64-61.13a3.75,3.75,0,0,0-1.64.36c-2.14,1-3.36,4.18-3.18,8.23.23,5.48,3,33.43,34.32,45.84,28.84,11.42,55.91.33,68.86-14.8,13.56-15.83,11.92-29.08,11.69-30.54a1,1,0,0,1,0-.52l8-20.58-7.9-.85-3.92,15.81a1,1,0,0,1-1.1.75c-.05,0-6-.65-10,3.75-17.6,19.29-34.93,20.8-41.56,20.56-20.28-.75-37.64-16.17-46-23.58l-1.77-1.58C140,125.51,138,124.54,136.29,124.54Z" fill="#093f68"/><path d="M250.47,111.69l-3.08,16.52a14.18,14.18,0,0,0-5.35,5.71c-1.94,3.89-10.93,30.26-33.54,38.77s-48.86-1.7-59.8-5.35-13.86,3.89-10,12.16,19.94,34,56.64,33.3,59.56-25.71,66.12-46.12,1.1-33.91-1.27-37.74V113.19Z" fill="#68e1fd"/><path d="M193.84,213.82c-38.11,0-53.32-28.18-56-33.9-2.35-5-2.33-9.57,0-12.25,1.28-1.44,4.42-3.51,11.14-1.27.77.25,1.62.54,2.54.86,11.66,4,35.91,12.28,56.59,4.5,19.76-7.44,29-29.11,32.09-36.23.39-.92.69-1.62.91-2.06a15.34,15.34,0,0,1,5.34-5.89l3-16.07a1,1,0,0,1,1.14-.81l9.75,1.5a1,1,0,0,1,.84,1v15.47c1.41,2.41,8.4,16,1.23,38.32-7.08,22.05-31.09,46.11-67.05,46.82Zm-50.21-46.41a5.43,5.43,0,0,0-4.25,1.59c-1.81,2-1.71,5.89.26,10.07,2.63,5.6,17.69,33.53,55.71,32.73,35-.69,58.31-24,65.19-45.43,7.2-22.4-.3-35.49-1.18-36.91a1.08,1.08,0,0,1-.15-.52V114.05l-7.94-1.22-2.89,15.56a1,1,0,0,1-.52.7,13.34,13.34,0,0,0-4.92,5.28c-.21.41-.49,1.07-.86,1.95-3.14,7.31-12.67,29.57-33.23,37.31-21.35,8-46.06-.42-57.93-4.48l-2.54-.86A15.29,15.29,0,0,0,143.63,167.41Zm103.76-39.2h0Z" fill="#093f68"/><rect x="235.16" y="104.26" width="33.82" height="9.48" rx="4.74" fill="#68e1fd"/><path d="M264.25,114.74H239.9a5.74,5.74,0,0,1,0-11.48h24.35a5.74,5.74,0,1,1,0,11.48Zm-24.35-9.48a3.74,3.74,0,0,0,0,7.48h24.35a3.74,3.74,0,1,0,0-7.48Z" fill="#093f68"/><path d="M189.85,192.15c-11.2,0-23.44-2.44-36.64-7.34a1,1,0,1,1,.7-1.87c26,9.63,48.07,9.62,65.69,0,26.62-14.59,33.79-46.56,33.86-46.88a1,1,0,0,1,2,.42c-.07.33-7.45,33.19-34.86,48.21A62.91,62.91,0,0,1,189.85,192.15Z" fill="#093f68"/><path d="M277,74.63H123a1,1,0,1,1,0-2H277a1,1,0,0,1,0,2Z" fill="#093f68"/><rect x="134.46" y="61.65" width="20.27" height="7.18" fill="#68e1fd"/><path d="M154.73,69.83H134.46a1,1,0,0,1-1-1V61.65a1,1,0,0,1,1-1h20.27a1,1,0,0,1,1,1v7.18A1,1,0,0,1,154.73,69.83Zm-19.27-2h18.27V62.65H135.46Z" fill="#093f68"/><path d="M130.45,213.82a1,1,0,0,1-.72-1.7l11.19-11.56a1,1,0,0,1,1.44,1.4l-11.19,11.55A1,1,0,0,1,130.45,213.82Z" fill="#dfeaef"/><path d="M197.6,124.55a1,1,0,0,1-.75-1.66l36.84-42.38a1,1,0,1,1,1.51,1.31l-36.85,42.39A1,1,0,0,1,197.6,124.55Z" fill="#dfeaef"/><path d="M241.9,213.82a1,1,0,0,1-.77-1.64l27.09-32.58a1,1,0,0,1,1.4-.13,1,1,0,0,1,.13,1.41l-27.08,32.58A1,1,0,0,1,241.9,213.82Z" fill="#dfeaef"/><path d="M168,108.22a1,1,0,0,1-.77-1.65L184.73,86a1,1,0,1,1,1.52,1.29L168.8,107.87A1,1,0,0,1,168,108.22Z" fill="#dfeaef"/></g></svg>