<svg xmlns="http://www.w3.org/2000/svg" viewBox="0 0 400 300"><g id="_371_bartender_outline" data-name="#371_bartender_outline"><path d="M230.65,98.38c4.44,4.24,8.42,9.17,10.37,15,2.77,8.26,1.19,17.27,2,25.94.67,7.07,3,13.92,3.4,21A42.07,42.07,0,0,1,224,199.57c-7.77,3.94-16.63,5.32-25.34,5.53-6.93.18-14-.37-20.45-2.88-11.67-4.52-20.31-15.25-24-27.21s-2.88-25,.47-37c2.43-8.76,3.43-21.88,8.62-29.13,6-8.44,16.37-13.26,25.72-17,6.11-2.47,12.45-4.75,19.05-4.94C218,86.59,224,92,230.65,98.38Z" fill="#725858"/><path d="M196.43,206.13c-7.4,0-13.34-.95-18.54-3-11.37-4.41-20.57-14.82-24.62-27.85-3.44-11.11-3.28-24.12.46-37.61.72-2.59,1.31-5.57,1.94-8.72,1.44-7.25,3.08-15.47,6.83-20.72,6-8.43,16.14-13.33,26.16-17.37,5.76-2.32,12.47-4.81,19.4-5,10.57-.32,17,5.83,23.28,11.78h0c5.41,5.15,8.89,10.19,10.63,15.4,1.84,5.47,1.82,11.29,1.8,16.92,0,3.05,0,6.2.26,9.23a93.36,93.36,0,0,0,1.64,9.74,82.49,82.49,0,0,1,1.77,11.31,43.15,43.15,0,0,1-22.94,40.2c-7,3.54-15.41,5.38-25.78,5.64ZM208.87,87.87h-.75c-6.6.19-13.12,2.61-18.71,4.87-9.74,3.92-19.55,8.66-25.28,16.67-3.5,4.9-5.09,12.9-6.5,20-.63,3.19-1.23,6.2-2,8.87-3.64,13.12-3.81,25.73-.48,36.47,3.87,12.46,12.62,22.39,23.43,26.58,5.48,2.13,11.85,3,20.06,2.81,10.06-.25,18.22-2,24.92-5.43a41.1,41.1,0,0,0,21.86-38.29,82.18,82.18,0,0,0-1.74-11A94.71,94.71,0,0,1,242,139.4c-.29-3.13-.28-6.33-.27-9.43,0-5.72,0-11.12-1.69-16.28-1.64-4.89-5-9.66-10.12-14.58C222.86,92.34,217.49,87.87,208.87,87.87Z" fill="#093f68"/><path d="M179.15,163.11s-12.15-.88-17.1,12.2-3.35,35.87-3.35,35.87L141,195l-12.2,10.91s16.78,30.39,30.22,30.39c16.26,0,22.68-16.93,22.68-16.93Z" fill="#fff"/><path d="M159.05,237.27c-13.87,0-30.39-29.64-31.09-30.9a1,1,0,0,1,.21-1.23l12.19-10.91a1,1,0,0,1,1.34,0l15.87,14.55c-.26-6.3-.51-23.11,3.55-33.84,5.15-13.61,18-12.85,18.11-12.84a1,1,0,0,1,.92.95l2.57,56.23a.89.89,0,0,1-.06.4C182.59,219.87,175.8,237.27,159.05,237.27Zm-29-31.18c2.58,4.48,17.34,29.18,29,29.18,14.47,0,20.92-14.31,21.67-16.1L178.2,164.1c-2.79.09-11.3,1.22-15.21,11.56-4.81,12.72-3.31,35.22-3.3,35.45a1,1,0,0,1-1.67.8l-17-15.59Z" fill="#093f68"/><path d="M284.1,186.27s5.53-11.55,5.18-15.5-10.35-14.37-10.35-14.37l-9.09,19.26Z" fill="#ffc9b0"/><path d="M284.1,187.27a1,1,0,0,1-.6-.2l-14.25-10.61a1,1,0,0,1-.31-1.23L278,156a1,1,0,0,1,1.63-.26c1.05,1.09,10.25,10.8,10.63,15s-4.7,14.81-5.28,16a1,1,0,0,1-.66.54Zm-13-11.92,12.61,9.39c1.72-3.75,4.82-11.17,4.58-13.88-.22-2.4-5.33-8.65-9.09-12.71Z" fill="#093f68"/><path d="M224.74,163.11s10.29,1.57,15.6,6c6,5,15.19,18.23,15.19,18.23l16.61-19.93,12,14.63s-14.7,32.25-27.69,30.39-23.7-20.94-23.7-20.94S209,190.15,224.74,163.11Z" fill="#fff"/><path d="M257.49,213.49a8.35,8.35,0,0,1-1.22-.09c-12.33-1.76-22.39-18-24.17-21-2-.23-9.15-1.42-12.3-7.27-2.89-5.37-1.52-13,4.08-22.55a1,1,0,0,1,1-.48c.43.06,10.61,1.66,16.08,6.2,5.1,4.23,12.28,14.07,14.62,17.36l15.77-18.93a1,1,0,0,1,.78-.36,1.05,1.05,0,0,1,.77.37l11.95,14.63a1,1,0,0,1,.14,1.05C284.41,183.74,270.7,213.49,257.49,213.49Zm-32.23-49.28c-4.93,8.65-6.18,15.38-3.7,20,3.08,5.74,11.12,6.27,11.21,6.27a1,1,0,0,1,.81.51c.11.19,10.63,18.68,23,20.44,4.89.7,11-4.15,17.73-14a125,125,0,0,0,8.64-15.2L272.13,169,256.3,188a1,1,0,0,1-.81.36,1,1,0,0,1-.78-.43c-.09-.13-9.18-13.2-15-18C235.43,166.31,227.59,164.64,225.26,164.21Z" fill="#093f68"/><path d="M224.74,163.11H179.15c.41,14.53-1.32,23.06-8,28.36v45.61h61.52V191.47C226.07,186.17,224.34,177.64,224.74,163.11Z" fill="#68e1fd"/><path d="M232.71,238.08H171.19a1,1,0,0,1-1-1V191.47a1,1,0,0,1,.38-.78c6-4.76,8-12.23,7.58-27.56a1,1,0,0,1,.29-.72,1,1,0,0,1,.71-.3h45.59a1,1,0,0,1,.72.3,1,1,0,0,1,.28.72c-.42,15.33,1.63,22.8,7.59,27.56a1,1,0,0,1,.38.78v45.61A1,1,0,0,1,232.71,238.08Zm-60.52-2h59.52V191.94c-6.94-5.82-8.27-15-8-27.83H180.18c.28,12.82-1.05,22-8,27.83Z" fill="#093f68"/><polygon points="214.32 163.11 209.89 179.17 202.52 205.88 195.16 179.17 190.72 163.11 214.32 163.11" fill="#fff"/><path d="M202.52,206.88a1,1,0,0,1-1-.73l-11.8-42.78a1,1,0,0,1,.17-.87,1,1,0,0,1,.79-.39h23.61a1,1,0,0,1,.79.39,1,1,0,0,1,.17.87l-11.8,42.78A1,1,0,0,1,202.52,206.88ZM192,164.11l10.48,38,10.49-38Z" fill="#093f68"/><path d="M202.52,206.88a1,1,0,0,1-.76-.35L187,189.23a1,1,0,0,1-.15-1.07l3.55-7.7-5.8-2.89a1,1,0,0,1-.48-1.27l5.47-13.57a1,1,0,0,1,1.86.75l-5.13,12.71,5.84,2.91a1,1,0,0,1,.46,1.31l-3.68,8,14.36,16.81a1,1,0,0,1-.12,1.41A1,1,0,0,1,202.52,206.88Z" fill="#093f68"/><path d="M202.52,206.88a1,1,0,0,1-.64-.24,1,1,0,0,1-.12-1.41l14.36-16.81-3.68-8a1,1,0,0,1,.46-1.31l5.84-2.91-5.13-12.71a1,1,0,1,1,1.85-.75l5.48,13.57a1,1,0,0,1-.48,1.27l-5.8,2.89,3.55,7.7a1,1,0,0,1-.15,1.07l-14.77,17.3A1,1,0,0,1,202.52,206.88Z" fill="#093f68"/><path d="M156.26,97.14a62.37,62.37,0,0,1,3.85-19.85A26.94,26.94,0,0,1,167,66.75a21.61,21.61,0,0,1,5.25-3.46c.87-.41,5.64-1.31,5.93-1.85,5.87-10.73,20.95-13.33,30.75-10.73,14.11,3.75,27.65,12,34.12,25.6,3,6.19,6.09,14.2,5.2,21.06a53.45,53.45,0,0,1-10,25.37c-5.9,7.79-18.08,17.68-28.64,15.61-5.23-1-10.33-2.66-15.66-3.62a65.71,65.71,0,0,1-19.15-6.11c-8.07-4.25-15-11.31-17.37-20.12A40.62,40.62,0,0,1,156.26,97.14Z" fill="#725858"/><path d="M212.48,139.62a16,16,0,0,1-3.09-.29c-2.46-.49-4.93-1.11-7.32-1.72-2.71-.68-5.52-1.39-8.33-1.9-7.93-1.42-14.1-3.39-19.43-6.2-9.14-4.82-15.65-12.38-17.87-20.76a41,41,0,0,1-1.18-11.64h0a62.81,62.81,0,0,1,3.92-20.17A27.81,27.81,0,0,1,166.34,66a22.66,22.66,0,0,1,5.49-3.63,18,18,0,0,1,2.49-.72,28.85,28.85,0,0,0,3.1-.88c3.57-6.39,9.79-9.32,14.39-10.66a33.25,33.25,0,0,1,17.38-.37c9.54,2.53,26.73,9.3,34.77,26.13,2.74,5.72,6.26,14.19,5.3,21.62A54.21,54.21,0,0,1,239,123.34C233.76,130.27,222.82,139.62,212.48,139.62ZM157.26,97.17a39.28,39.28,0,0,0,1.11,11.07c2.08,7.84,8.23,14.94,16.87,19.5,5.15,2.71,11.14,4.62,18.85,6,2.88.52,5.72,1.24,8.47,1.94,2.36.59,4.8,1.21,7.22,1.68,10.28,2,22.16-8,27.64-15.22a52.2,52.2,0,0,0,9.85-24.89c.9-6.91-2.49-15-5.11-20.51-3.3-6.91-12-19.36-33.48-25.06-10.08-2.68-24.27.47-29.61,10.24-.34.63-1.17.91-4.27,1.68-.83.21-1.86.47-2.12.59a20.5,20.5,0,0,0-5,3.31,25.7,25.7,0,0,0-6.63,10.15,61,61,0,0,0-3.79,19.52Z" fill="#093f68"/><polyline points="196.07 165.65 196.07 158.22 208.97 158.22 208.97 165.65" fill="#ffc9b0"/><path d="M209,166.65a1,1,0,0,1-1-1v-6.43h-10.9v6.43a1,1,0,1,1-2,0v-7.43a1,1,0,0,1,1-1H209a1,1,0,0,1,1,1v7.43A1,1,0,0,1,209,166.65Z" fill="#093f68"/><ellipse cx="165.66" cy="124.73" rx="12.53" ry="10.8" fill="#ffc9b0"/><path d="M165.66,136.52c-7.46,0-13.52-5.29-13.52-11.79s6.06-11.8,13.52-11.8,13.53,5.29,13.53,11.8S173.12,136.52,165.66,136.52Zm0-21.59c-6.35,0-11.52,4.39-11.52,9.8s5.17,9.79,11.52,9.79,11.53-4.39,11.53-9.79S172,114.93,165.66,114.93Z" fill="#093f68"/><ellipse cx="238.71" cy="124.73" rx="12.53" ry="10.8" fill="#ffc9b0"/><path d="M238.71,136.52c-7.46,0-13.53-5.29-13.53-11.79s6.07-11.8,13.53-11.8,13.53,5.29,13.53,11.8S246.17,136.52,238.71,136.52Zm0-21.59c-6.36,0-11.53,4.39-11.53,9.8s5.17,9.79,11.53,9.79,11.53-4.39,11.53-9.79S245.07,114.93,238.71,114.93Z" fill="#093f68"/><path d="M230.77,105.41c1.08.58,2.15,1.18,3.19,1.82,7.22,4.39,6.35,6.94,6.35,14.9a37.79,37.79,0,0,1-72.16,15.72c-3.67-8-7-23.35-1.17-30.91,2.91-3.8,7-6.49,10.41-9.87a34.59,34.59,0,0,0,9.92-20.92,96.89,96.89,0,0,0,29.24,22.5C221.23,101,226.13,103,230.77,105.41Z" fill="#ffc9b0"/><path d="M202.52,160.92a38.89,38.89,0,0,1-35.28-22.66c-3.69-8-7.24-23.85-1.05-31.93a42.91,42.91,0,0,1,6.49-6.37c1.35-1.15,2.75-2.34,4-3.6a33.8,33.8,0,0,0,9.62-20.31,1,1,0,0,1,1.75-.56A96.74,96.74,0,0,0,217,97.76c2,1,4.17,2,6.23,2.93,2.65,1.2,5.39,2.45,8,3.84h0c1.18.62,2.24,1.22,3.25,1.84,7,4.24,6.92,7.13,6.85,13.46,0,.72,0,1.48,0,2.3A38.84,38.84,0,0,1,202.52,160.92ZM188,78.43a35.41,35.41,0,0,1-9.92,19.35c-1.32,1.31-2.74,2.53-4.13,3.7a40.47,40.47,0,0,0-6.19,6.07c-5.36,7-2.48,21.68,1.28,29.88a36.79,36.79,0,0,0,70.25-15.3c0-.83,0-1.6,0-2.32.07-6,.1-8.09-5.89-11.73-1-.6-2-1.18-3.14-1.78-2.57-1.36-5.29-2.6-7.91-3.8-2.07-.94-4.22-1.92-6.29-3A98.69,98.69,0,0,1,188,78.43Z" fill="#093f68"/><circle cx="187.22" cy="117.1" r="3.4" fill="#093f68"/><circle cx="217.83" cy="117.1" r="3.4" fill="#093f68"/><path d="M202.9,132.59a29.55,29.55,0,0,1-3.57-.22,1,1,0,1,1,.26-2,22.59,22.59,0,0,0,6,0c.29-1-1.12-5.18-3.12-9.17a1,1,0,0,1,.45-1.34,1,1,0,0,1,1.34.45c1,2,4.17,8.68,3.11,11a1.73,1.73,0,0,1-1.17,1A14.29,14.29,0,0,1,202.9,132.59Z" fill="#093f68"/><path d="M194.66,106.06l-.25,0L177.91,104a2,2,0,1,1,.5-4l16.5,2.06a2,2,0,0,1-.25,4Z" fill="#093f68"/><path d="M210.38,106.06a2,2,0,0,1-.24-4l16.5-2.06a2,2,0,1,1,.49,4L210.63,106Z" fill="#093f68"/><path d="M201.56,142.44a23.07,23.07,0,0,1-11.44-2.94,1,1,0,0,1,1-1.75c10.6,6,21.92,0,22,0a1,1,0,0,1,1.35.4,1,1,0,0,1-.4,1.36A28.64,28.64,0,0,1,201.56,142.44Z" fill="#093f68"/><path d="M194.57,172.23l5.35-2.39V164l-5.35-2.38a2.11,2.11,0,0,0-3,1.93v6.75A2.11,2.11,0,0,0,194.57,172.23Z" fill="#f56132"/><path d="M193.71,173.41a3.1,3.1,0,0,1-3.1-3.11v-6.75a3.1,3.1,0,0,1,4.37-2.84l5.35,2.38a1,1,0,0,1,.59.91v5.84a1,1,0,0,1-.59.92L195,173.14A3.12,3.12,0,0,1,193.71,173.41Zm0-11a1.12,1.12,0,0,0-.6.19,1.07,1.07,0,0,0-.5.93v6.75a1.1,1.1,0,0,0,1.56,1h0l4.75-2.12v-4.54l-4.75-2.12A1.23,1.23,0,0,0,193.71,162.43Z" fill="#093f68"/><path d="M211.11,172.23l-5.35-2.39V164l5.35-2.38a2.11,2.11,0,0,1,3,1.93v6.75A2.11,2.11,0,0,1,211.11,172.23Z" fill="#f56132"/><path d="M212,173.41a3.07,3.07,0,0,1-1.26-.27h0l-5.35-2.38a1,1,0,0,1-.6-.92V164a1,1,0,0,1,.6-.91l5.35-2.38a3.11,3.11,0,0,1,4.37,2.84v6.75a3.11,3.11,0,0,1-3.11,3.11Zm-.45-2.1a1.1,1.1,0,0,0,1.56-1v-6.75a1.07,1.07,0,0,0-.5-.93,1.11,1.11,0,0,0-1.06-.09l-4.76,2.12v4.54Z" fill="#093f68"/><rect x="199.16" y="163.08" width="7.37" height="7.69" rx="2.15" fill="#f56132"/><path d="M204.38,171.77h-3.07a3.15,3.15,0,0,1-3.15-3.15v-3.39a3.15,3.15,0,0,1,3.15-3.15h3.07a3.15,3.15,0,0,1,3.15,3.15v3.39A3.15,3.15,0,0,1,204.38,171.77Zm-3.07-7.69a1.14,1.14,0,0,0-1.15,1.15v3.39a1.15,1.15,0,0,0,1.15,1.15h3.07a1.16,1.16,0,0,0,1.15-1.15v-3.39a1.15,1.15,0,0,0-1.15-1.15Z" fill="#093f68"/><path d="M202.52,206.88a1,1,0,0,1-1-1V170.77a1,1,0,0,1,2,0v35.11A1,1,0,0,1,202.52,206.88Z" fill="#093f68"/><polygon points="301.6 151.33 272.88 143.27 282.18 134.89 298.01 139.33 301.6 151.33" fill="#68e1fd"/><path d="M301.59,152.33a.84.84,0,0,1-.27,0l-28.71-8.06a1,1,0,0,1-.4-1.7l9.3-8.38a1,1,0,0,1,.94-.22l15.83,4.44a1,1,0,0,1,.69.68l3.58,12a1,1,0,0,1-.24,1A1,1,0,0,1,301.59,152.33ZM274.9,142.8l25.22,7.07-2.91-9.72L282.44,136Z" fill="#093f68"/><path d="M301.59,151.33l-28.71-8.06L266.66,183a5,5,0,0,0,3.55,5.53l10.15,2.84a4.93,4.93,0,0,0,5.9-2.87Z" fill="#68e1fd"/><path d="M281.69,192.52a5.88,5.88,0,0,1-1.6-.22l-10.15-2.85a6,6,0,0,1-4.27-6.64l6.22-39.69a1,1,0,0,1,1.26-.81l28.71,8.05a1,1,0,0,1,.66,1.35l-15.34,37.13A5.94,5.94,0,0,1,281.69,192.52Zm-8-48-6,38.58a3.94,3.94,0,0,0,2.83,4.4l10.15,2.85a4,4,0,0,0,4.71-2.29L300.24,152Z" fill="#093f68"/><path d="M289.84,125.05l6.75,1.89a3.16,3.16,0,0,1,2.28,3.35l-.94,9-15.67-4.4,3.9-8.19A3.12,3.12,0,0,1,289.84,125.05Z" fill="#68e1fd"/><path d="M297.93,140.31a.84.84,0,0,1-.27,0L282,135.87a1,1,0,0,1-.64-.54,1,1,0,0,1,0-.85l3.89-8.19a4.15,4.15,0,0,1,4.86-2.21h0l6.75,1.9a4.12,4.12,0,0,1,3,4.41l-.93,9a1,1,0,0,1-.43.73A1.06,1.06,0,0,1,297.93,140.31Zm-14.26-6L297.06,138l.81-7.85a2.12,2.12,0,0,0-1.55-2.27l-6.75-1.9a2.14,2.14,0,0,0-2.51,1.14Z" fill="#093f68"/><path d="M265.47,155.17a8.57,8.57,0,0,0-1.24,3,24.27,24.27,0,0,0-.61,3.49,6.89,6.89,0,0,0,.1,2.48,2.86,2.86,0,0,0,1.47,1.91,2.9,2.9,0,0,0,3.05-.62,6.42,6.42,0,0,0,1.64-2.82c.63-1.92,1.59-5.76.67-7.73C269.53,152.69,266.65,153.53,265.47,155.17Z" fill="#ffc9b0"/><path d="M266.16,167.27a3.36,3.36,0,0,1-1.4-.3,3.9,3.9,0,0,1-2-2.56,7.88,7.88,0,0,1-.12-2.84,25.79,25.79,0,0,1,.63-3.63,9.45,9.45,0,0,1,1.4-3.36h0a4.85,4.85,0,0,1,4.17-2,3.14,3.14,0,0,1,2.63,1.89c1.13,2.44-.07,6.73-.63,8.46a7.53,7.53,0,0,1-1.92,3.26A4.21,4.21,0,0,1,266.16,167.27Zm.12-11.52a7.79,7.79,0,0,0-1.08,2.67,23.51,23.51,0,0,0-.58,3.35,6,6,0,0,0,.06,2.12,1.63,1.63,0,0,0,2.89.81,5.37,5.37,0,0,0,1.36-2.39c.75-2.31,1.4-5.53.72-7a1.16,1.16,0,0,0-1-.74,2.89,2.89,0,0,0-2.36,1.18Z" fill="#093f68"/><path d="M289.58,178.17c-.31,1.22-.53,2.63.24,3.62a2.87,2.87,0,0,0,3.5.5,6.84,6.84,0,0,0,2.57-2.78,45.26,45.26,0,0,0,4.45-12.11c.48-1.88,1.22-5-.35-6.66-1.75-1.83-3.46.18-4.37,1.79A65,65,0,0,0,289.58,178.17Z" fill="#ffc9b0"/><path d="M291.79,183.66a3.42,3.42,0,0,1-2.75-1.25c-1.05-1.33-.78-3.1-.43-4.49h0A66.35,66.35,0,0,1,294.75,162c.71-1.26,1.89-2.81,3.46-3a2.89,2.89,0,0,1,2.5,1c2,2.07,1.09,5.67.6,7.6A46.47,46.47,0,0,1,296.75,180a7.74,7.74,0,0,1-3,3.16A4.4,4.4,0,0,1,291.79,183.66ZM298.53,161h-.07c-.55.06-1.32.85-2,2a64.1,64.1,0,0,0-5.94,15.39h0c-.24,1-.45,2.12.06,2.76a1.89,1.89,0,0,0,2.26.23A6,6,0,0,0,295,179a44.27,44.27,0,0,0,4.34-11.84c.37-1.44,1.12-4.45-.1-5.73A1,1,0,0,0,298.53,161Zm-8.95,17.16h0Z" fill="#093f68"/><path d="M141,195s-8.39-9.36-10.69-12.19c-2-2.45-6.64-2.55-9.46-2.32-3.54.29-7.11.35-8.71,4.27a7.06,7.06,0,0,0,2.14,8c1.3,1,2.93,1.56,4,2.86s10.2,10.57,10.51,10.29Z" fill="#ffc9b0"/><path d="M128.81,206.89h-.08c-1.32-.11-11.09-10.56-11.18-10.66a8,8,0,0,0-2.17-1.62,15.08,15.08,0,0,1-1.69-1.09,8.09,8.09,0,0,1-2.45-9.17c1.76-4.28,5.6-4.58,9-4.84l.57,0c2.85-.23,8-.18,10.32,2.69s10.57,12.06,10.65,12.16a1,1,0,0,1,.26.72,1,1,0,0,1-.34.69L129.5,206.63A1.07,1.07,0,0,1,128.81,206.89Zm-5.94-25.51c-.75,0-1.42,0-1.91.08l-.57,0c-3.23.25-6,.47-7.3,3.61a6,6,0,0,0,1.83,6.83,12.39,12.39,0,0,0,1.47.95,9.51,9.51,0,0,1,2.7,2.06c1,1.2,7.66,8,9.66,9.67l10.87-9.73c-2.05-2.28-8.12-9.1-10.05-11.48C128.2,181.72,125.15,181.38,122.87,181.38Z" fill="#093f68"/><polygon points="122.6 176.6 103.63 160.05 141.58 160.05 122.6 176.6" fill="#ffbc0e"/><path d="M122.6,177.6a1,1,0,0,1-.65-.25L103,160.8a1,1,0,0,1,.66-1.75h38a1,1,0,0,1,.66,1.75l-19,16.55A1,1,0,0,1,122.6,177.6Zm-16.3-16.55,16.3,14.22,16.31-14.22Z" fill="#093f68"/><path d="M122.6,196a1,1,0,0,1-1-1V176.6a1,1,0,0,1,2,0V195A1,1,0,0,1,122.6,196Z" fill="#093f68"/><polygon points="122.6 192.68 110.14 197.26 135.07 197.26 122.6 192.68" fill="#ffbc0e"/><path d="M135.07,198.26H110.14a1,1,0,0,1-.35-1.93l12.47-4.59a1,1,0,0,1,.69,0l12.47,4.59a1,1,0,0,1-.35,1.93Zm-19.31-2h13.69l-6.85-2.51Z" fill="#093f68"/><path d="M132.76,186.06a10.14,10.14,0,0,0-11.1-5.76,4.35,4.35,0,0,0-2.12,1,2.12,2.12,0,0,0-.62,2.16,2.72,2.72,0,0,0,1,1.19c1.61,1.21,5.45,1.1,5.45,1.1a5.69,5.69,0,0,0,5.08,5.6" fill="#ffc9b0"/><path d="M130.47,192.35h-.13a6.55,6.55,0,0,1-5.86-5.6c-1.35-.05-3.78-.27-5.14-1.29a3.77,3.77,0,0,1-1.36-1.64,3.13,3.13,0,0,1,.86-3.23,5.29,5.29,0,0,1,2.6-1.26,11.17,11.17,0,0,1,12.24,6.35,1,1,0,0,1-.52,1.31,1,1,0,0,1-1.32-.52c-2.19-5.09-7.66-5.69-10-5.19a3.39,3.39,0,0,0-1.64.75,1.15,1.15,0,0,0-.37,1.1,2,2,0,0,0,.67.73c1,.72,3.49.93,4.84.9a1,1,0,0,1,.72.28,1,1,0,0,1,.31.72,4.61,4.61,0,0,0,4.2,4.61,1,1,0,0,1-.13,2Z" fill="#093f68"/><path d="M165.66,219a1,1,0,0,1-.69-.28l-7-6.81a1,1,0,0,1,0-1.41,1,1,0,0,1,1.42,0l7,6.81a1,1,0,0,1,0,1.41A1,1,0,0,1,165.66,219Z" fill="#093f68"/></g></svg>