<svg xmlns="http://www.w3.org/2000/svg" viewBox="0 0 400 300"><g id="_303_berlin_outline" data-name="#303_berlin_outline"><path d="M292.93,150a92.93,92.93,0,1,1-94.78-92.91l1.85,0,1.85,0A92.93,92.93,0,0,1,292.93,150Z" fill="#fff"/><path d="M200,243.93a93.93,93.93,0,0,1-1.87-187.84h.11c1.18,0,2.35,0,3.52,0h.11A93.93,93.93,0,0,1,200,243.93Zm0-185.86-1.73,0h-.1a91.93,91.93,0,0,0-10.24,183,91.93,91.93,0,0,0,104-91.14,91.93,91.93,0,0,0-90.1-91.91h-.1Z" fill="#093f68"/><path d="M176.65,108.38h-34.4c-4,0-7.23-2.61-7.23-5.83,0-2.48,1.95-4.69,4.81-5.5A8.45,8.45,0,0,1,147,92.72c.76-3.18,4.26-5.56,8.39-5.56a9,9,0,0,1,7.74,3.93,13,13,0,0,1,5.72-1.28c5.45,0,10.08,3.22,10.89,7.45a5.9,5.9,0,0,1,4.18,5.29C183.89,105.77,180.64,108.38,176.65,108.38ZM147.82,94.69c-2.94,0-5.54,1.46-6.34,3.56a1,1,0,0,1-.72.62c-2.2.49-3.74,2-3.74,3.68,0,2.11,2.34,3.83,5.23,3.83h34.4c2.89,0,5.24-1.72,5.24-3.83,0-1.57-1.35-3-3.36-3.58a1,1,0,0,1-.72-.87c-.33-3.53-4.28-6.29-9-6.29a10.85,10.85,0,0,0-5.65,1.51,1,1,0,0,1-1.46-.52c-.76-2.14-3.37-3.64-6.35-3.64-3.47,0-6.35,2-6.54,4.6a1,1,0,0,1-1,.93Zm-7.27,3.21h0Z" fill="#dfeaef"/><path d="M165.19,98.77a1,1,0,0,1-1-.83A5.63,5.63,0,0,0,162,94.49a5.72,5.72,0,0,0-4.77-.18,1,1,0,0,1-1.26-.66,1,1,0,0,1,.66-1.25c2.54-.8,4.7-.66,6.42.39a7.55,7.55,0,0,1,3.17,4.82,1,1,0,0,1-.82,1.15Z" fill="#dfeaef"/><path d="M156.25,169.48H133.84c-2.8,0-5.07-1.86-5.07-4.15a4.14,4.14,0,0,1,2.77-3.7c.65-2.86,3.7-4.95,7.4-4.95a8.77,8.77,0,0,1,3.59.74,6.2,6.2,0,0,1,5.18-2.46c2.75,0,5.09,1.54,5.74,3.64a5.88,5.88,0,0,1,4.63,2.86,4.25,4.25,0,0,1,3.24,3.87C161.32,167.62,159,169.48,156.25,169.48Zm-17.31-10.8c-2.89,0-5.31,1.66-5.51,3.79a1,1,0,0,1-.72.86c-1.16.34-1.94,1.14-1.94,2,0,1.17,1.41,2.15,3.07,2.15h22.41c1.66,0,3.07-1,3.07-2.15,0-.93-.9-1.77-2.17-2.05a1,1,0,0,1-.72-.63,4,4,0,0,0-3.79-2.09,1,1,0,0,1-1-.93c-.11-1.47-1.86-2.67-3.91-2.67a3.93,3.93,0,0,0-3.81,2.14,1,1,0,0,1-1.46.52A6.64,6.64,0,0,0,138.94,158.68Z" fill="#dfeaef"/><path d="M146.35,164.09a1,1,0,0,1-1-.94c-.14-2.25-2.77-3.46-2.8-3.47a1,1,0,0,1-.5-1.32,1,1,0,0,1,1.31-.51c.16.07,3.77,1.7,4,5.17a1,1,0,0,1-.93,1.07Z" fill="#dfeaef"/><path d="M269.57,137.29H235.16c-4,0-7.23-2.62-7.23-5.83a5.88,5.88,0,0,1,4.18-5.29c.81-4.23,5.43-7.45,10.88-7.45a13,13,0,0,1,5.73,1.28,8.94,8.94,0,0,1,7.73-3.93c4.14,0,7.64,2.38,8.4,5.56A8.48,8.48,0,0,1,272,126c2.86.81,4.81,3,4.81,5.5C276.8,134.67,273.55,137.29,269.57,137.29ZM243,120.72c-4.7,0-8.65,2.76-9,6.29a1,1,0,0,1-.72.87c-2,.58-3.36,2-3.36,3.58,0,2.11,2.35,3.83,5.23,3.83h34.41c2.88,0,5.23-1.72,5.23-3.83,0-1.68-1.54-3.19-3.75-3.68a1,1,0,0,1-.72-.62c-.79-2.1-3.39-3.56-6.31-3.56a1,1,0,0,1-1-.93c-.2-2.58-3.07-4.6-6.55-4.6-3,0-5.58,1.5-6.34,3.64a1,1,0,0,1-1.46.52A10.89,10.89,0,0,0,243,120.72Z" fill="#dfeaef"/><path d="M244.2,127.08a1,1,0,0,1-.76-1.65c5.86-6.83,12.18-2.16,12.24-2.12a1,1,0,0,1-1.21,1.6c-.21-.16-4.9-3.54-9.51,1.82A1,1,0,0,1,244.2,127.08Z" fill="#dfeaef"/><rect x="187.68" y="107.67" width="24.64" height="6.19" rx="2.67" fill="#68e1fd"/><path d="M209.65,114.86h-19.3a3.68,3.68,0,0,1-3.67-3.67v-.85a3.67,3.67,0,0,1,3.67-3.67h19.3a3.67,3.67,0,0,1,3.67,3.67v.85A3.68,3.68,0,0,1,209.65,114.86Zm-19.3-6.19a1.67,1.67,0,0,0-1.67,1.67v.85a1.67,1.67,0,0,0,1.67,1.67h19.3a1.67,1.67,0,0,0,1.67-1.67v-.85a1.67,1.67,0,0,0-1.67-1.67Z" fill="#093f68"/><rect x="189.72" y="113.86" width="20.55" height="25.64" fill="#68e1fd"/><path d="M210.28,140.5H189.72a1,1,0,0,1-1-1V113.86a1,1,0,0,1,1-1h20.56a1,1,0,0,1,1,1V139.5A1,1,0,0,1,210.28,140.5Zm-19.56-2h18.56V114.86H190.72Z" fill="#093f68"/><path d="M227.78,169A27.78,27.78,0,1,1,200,141.24,27.63,27.63,0,0,1,227.78,169Z" fill="#68e1fd"/><path d="M200,197.8a28.8,28.8,0,0,1-25.28-15,28.83,28.83,0,0,1-3.5-13.77,28.78,28.78,0,1,1,57.56,0,28.83,28.83,0,0,1-3.5,13.77A28.8,28.8,0,0,1,200,197.8Zm0-55.56a26.78,26.78,0,1,0,23.52,39.59A26.71,26.71,0,0,0,226.78,169,26.81,26.81,0,0,0,200,142.24Z" fill="#093f68"/><path d="M200,197.8c-11.74,0-21.29-12.91-21.29-28.78s9.55-28.78,21.29-28.78,21.29,12.91,21.29,28.78S211.74,197.8,200,197.8Zm0-55.56c-10.64,0-19.29,12-19.29,26.78S189.36,195.8,200,195.8s19.29-12,19.29-26.78S210.64,142.24,200,142.24Z" fill="#093f68"/><path d="M200,197.8c-7.47,0-13.32-12.64-13.32-28.78s5.85-28.78,13.32-28.78,13.32,12.64,13.32,28.78S207.47,197.8,200,197.8Zm0-55.56c-6.14,0-11.32,12.26-11.32,26.78S193.86,195.8,200,195.8s11.32-12.26,11.32-26.78S206.13,142.24,200,142.24Z" fill="#093f68"/><path d="M200,197.8c-5.2,0-5.35-25.83-5.35-28.78s.15-28.78,5.35-28.78,5.35,25.83,5.35,28.78S205.2,197.8,200,197.8Zm0-55.51c-1.41,1.19-3.35,11.07-3.35,26.73s1.94,25.54,3.35,26.73c1.41-1.19,3.35-11.07,3.35-26.73S201.41,143.48,200,142.29Z" fill="#093f68"/><rect x="187.68" y="136.41" width="24.64" height="6.19" rx="1.8" fill="#68e1fd"/><path d="M210.52,143.6h-21a2.81,2.81,0,0,1-2.8-2.8v-2.59a2.8,2.8,0,0,1,2.8-2.8h21a2.8,2.8,0,0,1,2.8,2.8v2.59A2.81,2.81,0,0,1,210.52,143.6Zm-21-6.19a.8.8,0,0,0-.8.8v2.59a.8.8,0,0,0,.8.8h21a.8.8,0,0,0,.8-.8v-2.59a.8.8,0,0,0-.8-.8Z" fill="#093f68"/><polygon points="198.73 34.98 201.27 34.98 203.17 107.67 196.83 107.67 198.73 34.98" fill="#68e1fd"/><path d="M203.17,108.67h-6.34a1,1,0,0,1-.71-.31,1,1,0,0,1-.29-.72L197.73,35a1,1,0,0,1,1-1h2.54a1,1,0,0,1,1,1l1.9,72.69a1,1,0,0,1-.29.72A1,1,0,0,1,203.17,108.67Zm-5.31-2h4.28L200.29,36h-.58Z" fill="#093f68"/><path d="M203.17,68.67h-6.34a1,1,0,0,1,0-2h6.34a1,1,0,0,1,0,2Z" fill="#093f68"/><path d="M204.36,89.23h-8.72a1,1,0,0,1,0-2h8.72a1,1,0,0,1,0,2Z" fill="#093f68"/><path d="M204.36,101h-8.72a1,1,0,0,1,0-2h8.72a1,1,0,0,1,0,2Z" fill="#093f68"/><path d="M212.2,242.13a93.42,93.42,0,0,1-24.4,0L189.23,215l.25-4.71.25-4.72.55-10.48v-.11h19.42v.11l.55,10.48.25,4.72.25,4.71Z" fill="#68e1fd"/><path d="M200,243.93a93.42,93.42,0,0,1-12.33-.81,1,1,0,0,1-.87-1l2.49-47.23a1,1,0,0,1,1-.91h19.42a1,1,0,0,1,1,.91V195l2.48,47.12a1,1,0,0,1-.87,1A93.42,93.42,0,0,1,200,243.93Zm-11.15-2.67a93.46,93.46,0,0,0,22.3,0l-2.39-45.32H191.23Z" fill="#093f68"/><rect x="186.91" y="205.53" width="26.18" height="9.43" rx="1.9" fill="#68e1fd"/><path d="M211.18,216H188.82a2.91,2.91,0,0,1-2.91-2.9v-5.63a2.91,2.91,0,0,1,2.91-2.9h22.36a2.91,2.91,0,0,1,2.91,2.9v5.63A2.91,2.91,0,0,1,211.18,216Zm-22.36-9.43a.91.91,0,0,0-.91.9v5.63a.9.9,0,0,0,.91.9h22.36a.9.9,0,0,0,.91-.9v-5.63a.91.91,0,0,0-.91-.9Z" fill="#093f68"/><path d="M212.54,211.25H186.91a1,1,0,1,1,0-2h25.63a1,1,0,0,1,0,2Z" fill="#093f68"/><path d="M227,175.69a27.49,27.49,0,0,1-2.57,6.62H175.6a27.49,27.49,0,0,1-2.57-6.62Z" fill="#093f68"/><path d="M224.4,183.31H175.6a1,1,0,0,1-.88-.52,28.34,28.34,0,0,1-2.66-6.86,1,1,0,0,1,1-1.24H227a1,1,0,0,1,1,1.24,28.66,28.66,0,0,1-2.66,6.86A1,1,0,0,1,224.4,183.31Zm-48.2-2h47.6a26.1,26.1,0,0,0,1.86-4.62H174.34A26.57,26.57,0,0,0,176.2,181.31Z" fill="#093f68"/><path d="M186.91,226H183a1,1,0,0,1-1-1v-7.45H166.91a1,1,0,0,1-1-1V190.77H142.85v14.76a1,1,0,0,1-1,1h-7.32a1,1,0,0,1,0-2h6.32V189.77a1,1,0,0,1,1-1h25.06a1,1,0,0,1,1,1v25.75H183a1,1,0,0,1,1,1V224h2.95a1,1,0,0,1,0,2Z" fill="#dfeaef"/><path d="M222.94,224.28h-9.85a1,1,0,0,1,0-2h8.85V203a1,1,0,0,1,.43-.82L241.23,189a1.07,1.07,0,0,1,.57-.18h12.39a1,1,0,0,1,1,1v9.42h13.93a1,1,0,0,1,1,1v6.33a1,1,0,0,1-2,0v-5.33H254.19a1,1,0,0,1-1-1v-9.42H242.12l-18.18,12.76v19.75A1,1,0,0,1,222.94,224.28Z" fill="#dfeaef"/><path d="M210.28,119.91H189.72a1,1,0,0,1,0-2h20.56a1,1,0,0,1,0,2Z" fill="#093f68"/></g></svg>