<svg xmlns="http://www.w3.org/2000/svg" viewBox="0 0 400 300"><g id="_43_time_outline" data-name="#43_time_outline"><circle cx="147.95" cy="87.32" r="4.5" fill="#ffbc0e"/><path d="M148,92.83a5.51,5.51,0,1,1,5.51-5.51A5.51,5.51,0,0,1,148,92.83Zm0-9a3.51,3.51,0,1,0,3.51,3.5A3.5,3.5,0,0,0,148,83.82Z" fill="#093f68"/><circle cx="251.33" cy="86.57" r="4.5" fill="#ffbc0e"/><path d="M251.33,92.08a5.51,5.51,0,1,1,5.5-5.51A5.51,5.51,0,0,1,251.33,92.08Zm0-9a3.51,3.51,0,1,0,3.5,3.5A3.51,3.51,0,0,0,251.33,83.07Z" fill="#093f68"/><path d="M148.67,88.33a1,1,0,0,1-.52-1.86l18-11c.22-4.6,3.14-11.69,13-11.69H200a1,1,0,0,1,0,2H179.17c-10.69,0-11,9.21-11,10.26a1,1,0,0,1-.48.86l-18.5,11.26A1,1,0,0,1,148.67,88.33Z" fill="#093f68"/><path d="M251.33,88.33a1,1,0,0,1-.52-.15l-18.5-11.26a1,1,0,0,1-.48-.86c0-1-.31-10.26-11-10.26H200a1,1,0,0,1,0-2h20.83c9.85,0,12.77,7.09,13,11.69l18,11a1,1,0,0,1-.52,1.86Z" fill="#093f68"/><path d="M242.13,206.67h0a4.48,4.48,0,0,1,4.48,4.48v24.29a0,0,0,0,1,0,0h-9a0,0,0,0,1,0,0V211.15a4.48,4.48,0,0,1,4.48-4.48Z" transform="translate(526.68 383.93) rotate(167.39)" fill="#093f68"/><path d="M244.28,236.2a5.47,5.47,0,0,1-5.33-4.28l-5.3-23.7a1,1,0,0,1,.13-.76,1,1,0,0,1,.62-.44l8.75-2a1,1,0,0,1,1.19.75l5.3,23.71a5.48,5.48,0,0,1-4.15,6.54h0A5.53,5.53,0,0,1,244.28,236.2Zm-8.46-27.44,5.08,22.72a3.48,3.48,0,0,0,4.15,2.64h0a3.48,3.48,0,0,0,2.64-4.16l-5.08-22.72Z" fill="#093f68"/><path d="M153.39,206.67h9a0,0,0,0,1,0,0V231a4.48,4.48,0,0,1-4.48,4.48h0a4.48,4.48,0,0,1-4.48-4.48V206.67A0,0,0,0,1,153.39,206.67Z" transform="translate(52.06 -29.13) rotate(12.61)" fill="#093f68"/><path d="M155.72,236.2a5.47,5.47,0,0,1-5.36-6.67l5.3-23.71a1,1,0,0,1,.44-.62,1,1,0,0,1,.75-.13l8.75,2a1,1,0,0,1,.62.44,1,1,0,0,1,.13.76l-5.3,23.7a5.47,5.47,0,0,1-5.33,4.28Zm1.67-29L152.31,230a3.48,3.48,0,1,0,6.79,1.52l5.08-22.72Z" fill="#093f68"/><path d="M162.24,94.2h0a4.48,4.48,0,0,1,4.48,4.48V123a0,0,0,0,1,0,0h-9a0,0,0,0,1,0,0V98.68a4.48,4.48,0,0,1,4.48-4.48Z" transform="translate(-32.96 105.51) rotate(-32.89)" fill="#093f68"/><path d="M166.29,124.09l-.21,0a1,1,0,0,1-.63-.44l-13.19-20.39a5.5,5.5,0,0,1,1.63-7.58h0a5.5,5.5,0,0,1,7.58,1.63l13.18,20.39a1,1,0,0,1-.29,1.39l-7.52,4.86A1,1,0,0,1,166.29,124.09Zm-9.43-27.3a3.52,3.52,0,0,0-1.88.55h0a3.48,3.48,0,0,0-1,4.81l12.65,19.56,5.84-3.78L159.79,98.38a3.52,3.52,0,0,0-2.2-1.52A3.61,3.61,0,0,0,156.86,96.79Zm-2.43-.29h0Z" fill="#093f68"/><path d="M144.53,117.13a2.9,2.9,0,0,1-4.2-1.18,22.78,22.78,0,0,1,37.86-24.49,2.9,2.9,0,0,1-.64,4.32Z" fill="#ffbc0e"/><path d="M142.94,118.6a4.11,4.11,0,0,1-1.09-.16,3.81,3.81,0,0,1-2.42-2.08A23.78,23.78,0,0,1,179,90.81a3.83,3.83,0,0,1,.9,3,3.92,3.92,0,0,1-1.76,2.76l-33,21.35A4,4,0,0,1,142.94,118.6ZM161,84.7a21.59,21.59,0,0,0-11.78,3.47,21.86,21.86,0,0,0-8,27.36,1.85,1.85,0,0,0,1.16,1,1.94,1.94,0,0,0,1.59-.23h0l33-21.35a2,2,0,0,0,.87-1.36,1.83,1.83,0,0,0-.43-1.46A21.8,21.8,0,0,0,161,84.7Z" fill="#093f68"/><path d="M233.28,94.2h9a0,0,0,0,1,0,0v24.29a4.48,4.48,0,0,1-4.48,4.48h0a4.48,4.48,0,0,1-4.48-4.48V94.2A0,0,0,0,1,233.28,94.2Z" transform="translate(378.44 328.87) rotate(-147.11)" fill="#093f68"/><path d="M233.71,124.09a1,1,0,0,1-.55-.16l-7.52-4.86a1,1,0,0,1-.29-1.39l13.18-20.39a5.48,5.48,0,0,1,9.21,5.95l-13.19,20.39a1,1,0,0,1-.63.44Zm-6.14-6.16,5.84,3.78,12.65-19.56a3.48,3.48,0,1,0-5.85-3.77Z" fill="#093f68"/><path d="M255.47,117.13a2.9,2.9,0,0,0,4.2-1.18,22.78,22.78,0,0,0-37.86-24.49,2.9,2.9,0,0,0,.64,4.32Z" fill="#ffbc0e"/><path d="M257.06,118.6a4,4,0,0,1-2.14-.63l-33-21.35a3.92,3.92,0,0,1-1.76-2.76,3.83,3.83,0,0,1,.9-3,23.78,23.78,0,0,1,39.52,25.55,3.81,3.81,0,0,1-2.42,2.08A4.11,4.11,0,0,1,257.06,118.6ZM239,84.7a21.8,21.8,0,0,0-16.44,7.42,1.84,1.84,0,0,0-.43,1.47,2,2,0,0,0,.87,1.35l33,21.35h0a1.94,1.94,0,0,0,1.59.23,1.85,1.85,0,0,0,1.16-1,21.86,21.86,0,0,0-8-27.36A21.59,21.59,0,0,0,239,84.7Z" fill="#093f68"/><rect x="197.5" y="83.68" width="5" height="19.7" fill="#68e1fd"/><path d="M202.5,104.38h-5a1,1,0,0,1-1-1V83.68a1,1,0,0,1,1-1h5a1,1,0,0,1,1,1v19.7A1,1,0,0,1,202.5,104.38Zm-4-2h3V84.68h-3Z" fill="#093f68"/><circle cx="200" cy="167.59" r="66.66" fill="#68e1fd"/><path d="M200,235.25a67.66,67.66,0,1,1,67.66-67.66A67.73,67.73,0,0,1,200,235.25Zm0-133.32a65.66,65.66,0,1,0,65.66,65.66A65.73,65.73,0,0,0,200,101.93Z" fill="#093f68"/><circle cx="200" cy="167.59" r="51.3" fill="#fff"/><path d="M200,219.89a52.3,52.3,0,1,1,52.3-52.3A52.36,52.36,0,0,1,200,219.89Zm0-102.6a50.3,50.3,0,1,0,50.3,50.3A50.35,50.35,0,0,0,200,117.29Z" fill="#093f68"/><path d="M200,127.83a1,1,0,0,1-1-1v-6.67a1,1,0,1,1,2,0v6.67A1,1,0,0,1,200,127.83Z" fill="#093f68"/><path d="M200,214a1,1,0,0,1-1-1v-6.67a1,1,0,0,1,2,0V213A1,1,0,0,1,200,214Z" fill="#093f68"/><line x1="232.83" y1="133.76" x2="228.11" y2="138.48" fill="#68e1fd"/><path d="M228.11,139.48a1,1,0,0,1-.7-.29,1,1,0,0,1,0-1.42l4.71-4.72a1,1,0,0,1,1.42,1.42l-4.72,4.72A1,1,0,0,1,228.11,139.48Z" fill="#093f68"/><line x1="171.89" y1="194.71" x2="167.17" y2="199.42" fill="#68e1fd"/><path d="M167.17,200.42a1,1,0,0,1-.71-.29,1,1,0,0,1,0-1.41l4.72-4.72a1,1,0,0,1,1.41,1.41l-4.72,4.72A1,1,0,0,1,167.17,200.42Z" fill="#093f68"/><line x1="246.43" y1="166.59" x2="239.76" y2="166.59" fill="#68e1fd"/><path d="M246.43,167.59h-6.67a1,1,0,0,1,0-2h6.67a1,1,0,0,1,0,2Z" fill="#093f68"/><line x1="160.24" y1="166.59" x2="153.57" y2="166.59" fill="#68e1fd"/><path d="M160.24,167.59h-6.67a1,1,0,0,1,0-2h6.67a1,1,0,0,1,0,2Z" fill="#093f68"/><line x1="232.83" y1="199.42" x2="228.11" y2="194.71" fill="#68e1fd"/><path d="M232.83,200.42a1,1,0,0,1-.71-.29l-4.71-4.72a1,1,0,0,1,0-1.41,1,1,0,0,1,1.41,0l4.72,4.72a1,1,0,0,1,0,1.41A1,1,0,0,1,232.83,200.42Z" fill="#093f68"/><line x1="171.89" y1="138.48" x2="167.17" y2="133.76" fill="#68e1fd"/><path d="M171.89,139.48a1,1,0,0,1-.71-.29l-4.72-4.72a1,1,0,0,1,0-1.42,1,1,0,0,1,1.41,0l4.72,4.72a1,1,0,0,1-.7,1.71Z" fill="#093f68"/><rect x="188.27" y="79.7" width="23.45" height="7.97" rx="3.99" fill="#68e1fd"/><path d="M207.74,88.67H192.26a5,5,0,1,1,0-10h15.48a5,5,0,1,1,0,10Zm-15.48-8a3,3,0,1,0,0,6h15.48a3,3,0,1,0,0-6Z" fill="#093f68"/><path d="M200,169.59a2,2,0,0,1-1.39-.56l-17.76-17.09a2,2,0,0,1,2.78-2.89l16.83,16.2,34.17-13.71a2,2,0,0,1,1.49,3.72l-35.38,14.19A2.11,2.11,0,0,1,200,169.59Z" fill="#f56132"/></g></svg>