<svg xmlns="http://www.w3.org/2000/svg" viewBox="0 0 400 300"><g id="_276_boss_outline" data-name="#276_boss_outline"><path d="M222.71,238.7l-22.59-17.63V190.3H191v30.77L168.43,238.7a3.5,3.5,0,0,0,4.31,5.52l22.83-17.82,22.84,17.82a3.5,3.5,0,1,0,4.3-5.52Z" fill="#093f68"/><path d="M220.56,246a4.44,4.44,0,0,1-2.77-1l-22.22-17.33L173.35,245a4.5,4.5,0,1,1-5.53-7.09L190,220.59V190.3a1,1,0,0,1,1-1h9.1a1,1,0,0,1,1,1v30.29l22.21,17.32h0a4.5,4.5,0,0,1-2.77,8.05Zm-25-20.56a1,1,0,0,1,.62.21L219,243.43a2.56,2.56,0,0,0,3.51-.44,2.5,2.5,0,0,0-.43-3.51l-22.59-17.62a1,1,0,0,1-.39-.78V191.3H192v29.78a1,1,0,0,1-.38.78l-22.59,17.62a2.5,2.5,0,0,0,3.07,4L195,225.61A1,1,0,0,1,195.57,225.4Z" fill="#093f68"/><path d="M167,111.06h57.23a8.68,8.68,0,0,1,8.64,9.51L225.94,193H165.21l-6.89-72.43A8.68,8.68,0,0,1,167,111.06Z" fill="#70cc40"/><path d="M225.94,194H165.21a1,1,0,0,1-1-.9l-6.89-72.44a9.69,9.69,0,0,1,9.64-10.6h57.23a9.69,9.69,0,0,1,9.64,10.6l-6.89,72.44A1,1,0,0,1,225.94,194Zm-59.82-2H225l6.81-71.53a7.7,7.7,0,0,0-7.65-8.41H167a7.7,7.7,0,0,0-7.65,8.41Z" fill="#093f68"/><path d="M161.3,159h1.47a6.85,6.85,0,0,1,6.85,6.85V193a0,0,0,0,1,0,0H154.45a0,0,0,0,1,0,0V165.84A6.85,6.85,0,0,1,161.3,159Z" fill="#70cc40"/><path d="M169.62,194H154.45a1,1,0,0,1-1-1V165.84A7.86,7.86,0,0,1,161.3,158h1.47a7.86,7.86,0,0,1,7.85,7.85V193A1,1,0,0,1,169.62,194Zm-14.17-2h13.17V165.84a5.86,5.86,0,0,0-5.85-5.85H161.3a5.86,5.86,0,0,0-5.85,5.85Z" fill="#093f68"/><path d="M228.38,159h1.47a6.85,6.85,0,0,1,6.85,6.85V193a0,0,0,0,1,0,0H221.53a0,0,0,0,1,0,0V165.84A6.85,6.85,0,0,1,228.38,159Z" fill="#70cc40"/><path d="M236.7,194H221.53a1,1,0,0,1-1-1V165.84a7.86,7.86,0,0,1,7.85-7.85h1.47a7.86,7.86,0,0,1,7.85,7.85V193A1,1,0,0,1,236.7,194Zm-14.17-2H235.7V165.84a5.86,5.86,0,0,0-5.85-5.85h-1.47a5.86,5.86,0,0,0-5.85,5.85Z" fill="#093f68"/><rect x="154.45" y="186.6" width="82.25" height="12.81" rx="5.61" fill="#70cc40"/><path d="M231.09,200.41h-71a6.62,6.62,0,0,1-6.6-6.61v-1.6a6.61,6.61,0,0,1,6.6-6.6h71a6.61,6.61,0,0,1,6.61,6.6v1.6A6.62,6.62,0,0,1,231.09,200.41Zm-71-12.81a4.6,4.6,0,0,0-4.6,4.6v1.6a4.61,4.61,0,0,0,4.6,4.61h71a4.62,4.62,0,0,0,4.61-4.61v-1.6a4.61,4.61,0,0,0-4.61-4.6Z" fill="#093f68"/><path d="M188.27,84.3c8.9-.4,17.5.37,24.31,6.9,3.51,3.36,6.47,9.2,5.08,14.18-.56,2-1.93,3.44-1.87,5.73,0,.37,1.26,5.21,2.32,4.08-2.9,3.08-7.93,2.46-11.93,1.09s-8.25-3.28-12.29-2c-1.9.6-3.53,1.85-5.37,2.63-5.34,2.29-11.46.31-16.93-1.67a5.54,5.54,0,0,0,2.77-4.91,20.33,20.33,0,0,0-1.07-5.8C172,99.66,171.46,94,174.61,90.08,177.38,86.63,184,84.49,188.27,84.3Z" fill="#725858"/><path d="M183.25,118.91c-3.95,0-8.05-1.32-12-2.75a1,1,0,0,1-.66-.89,1,1,0,0,1,.57-1c1.55-.74,2.15-2.64,2.2-4a16.28,16.28,0,0,0-.84-4.8l-.2-.71c-1.81-6.68-1.3-11.84,1.51-15.32,3.17-3.94,10.33-6,14.39-6.15l.05,1-.05-1c8.72-.39,17.79.21,25.05,7.18,3.64,3.48,6.87,9.72,5.35,15.17a12.84,12.84,0,0,1-.91,2.26,6.67,6.67,0,0,0-.93,3.18,13.48,13.48,0,0,0,1.11,3.13,1,1,0,0,1,1,1.66h0c-3.6,3.81-9.68,2.48-13,1.35l-1.55-.55c-3.4-1.21-6.92-2.46-10.12-1.46a15.48,15.48,0,0,0-2.95,1.4c-.74.41-1.51.84-2.32,1.19A14.28,14.28,0,0,1,183.25,118.91Zm-9.6-4c5.13,1.77,10.08,3,14.48,1.08a20.7,20.7,0,0,0,2.14-1.1,18.05,18.05,0,0,1,3.32-1.56c3.85-1.2,7.68.17,11.39,1.49l1.52.53c2.52.87,6.87,1.89,9.8.07a13.39,13.39,0,0,1-1.51-4.26,8.39,8.39,0,0,1,1.12-4.1,12.14,12.14,0,0,0,.79-1.92c1.29-4.66-1.59-10.11-4.81-13.2-6.72-6.45-15.31-7-23.58-6.62h0c-4.27.19-10.43,2.31-12.92,5.4s-2.77,7.52-1.14,13.55l.2.7a18,18,0,0,1,.9,5.39A7.2,7.2,0,0,1,173.65,114.89Z" fill="#093f68"/><path d="M184.64,60.12s-6-1.77-11.79,4.43c-5,5.45-6,13.49-5.52,20.62.35,5.63,2.3,10.63,6.87,14.17,3.77,2.91,8.42,4.44,13.08,5.4,11.38,2.35,28.37.5,34.71-10.95,4.45-8,2.83-19.43-2-26.88C212.69,55.63,193.11,50.45,184.64,60.12Z" fill="#725858"/><path d="M196.16,106.6a46.14,46.14,0,0,1-9.08-.88c-5.83-1.2-10.11-3-13.49-5.59-4.41-3.41-6.85-8.42-7.26-14.89-.58-9.39,1.37-16.58,5.79-21.36,5.06-5.48,10.37-5.16,12.17-4.86,3.44-3.61,8.65-5.35,14.75-4.91,8.69.63,17.45,5.55,21.79,12.25,4.69,7.24,6.9,19.14,2,27.91C217.72,103.58,206.12,106.6,196.16,106.6ZM182.52,60.88c-2.05,0-5.52.66-8.93,4.35-4,4.37-5.81,11.06-5.26,19.88.37,6,2.49,10.35,6.49,13.44,3.12,2.42,7.15,4.07,12.66,5.21,10.05,2.07,27.3,1,33.64-10.46,4.47-8.08,2.4-19.12-2-25.85-4-6.2-12.17-10.76-20.27-11.34-5.7-.43-10.49,1.24-13.49,4.67a1,1,0,0,1-1,.3A7.65,7.65,0,0,0,182.52,60.88Z" fill="#093f68"/><path d="M232,130.68l-26.63-10.3.11.33a9.89,9.89,0,0,0-2.49-.33H189c-3.5,0-10.27,3.86-12.79,7l-20,23.14,13.94,7.14,4.19-5.65v22.51h43.25s0-32.47,0-32.93l11.81,4.07Z" fill="#68e1fd"/><path d="M217.61,175.56H174.35a1,1,0,0,1-1-1V155.08L171,158.29a1,1,0,0,1-1.25.3l-13.95-7.14a1,1,0,0,1-.3-1.55l20-23.14c2.55-3.2,9.59-7.38,13.55-7.38h14a11.41,11.41,0,0,1,1.83.16,1,1,0,0,1,.91-.09l26.63,10.3a1,1,0,0,1,.62,1.1l-2.59,15a1,1,0,0,1-.47.69,1,1,0,0,1-.84.09L218.58,143c0,6,0,28.63,0,31.53a1,1,0,0,1-.3.71A1,1,0,0,1,217.61,175.56Zm-42.26-2h41.26c0-11.35,0-31.36,0-31.9a1,1,0,0,1,1.32-1l10.7,3.69,2.25-13.05-25-9.68a1,1,0,0,1-.63,0,8.66,8.66,0,0,0-2.23-.3H189c-3.08,0-9.59,3.61-12,6.66l-19.16,22.21,12.05,6.17,3.68-5a1,1,0,0,1,1.12-.36,1,1,0,0,1,.68,1Z" fill="#093f68"/><path d="M174.35,153.05a1,1,0,0,1-1-1V138.81a1,1,0,0,1,2,0v13.24A1,1,0,0,1,174.35,153.05Z" fill="#093f68"/><rect x="188.46" y="120.38" width="15.08" height="54.18" fill="#fff"/><path d="M203.55,175.56H188.46a1,1,0,0,1-1-1V120.38a1,1,0,0,1,1-1h15.09a1,1,0,0,1,1,1v54.18A1,1,0,0,1,203.55,175.56Zm-14.09-2h13.09V121.38H189.46Z" fill="#093f68"/><path d="M203.55,120.38v13.56a13,13,0,0,1-7.5,2,13.46,13.46,0,0,1-7.59-2V120.38Z" fill="#ffc9b0"/><path d="M196.05,137a14.36,14.36,0,0,1-8.18-2.21,1,1,0,0,1-.41-.8V120.38a1,1,0,0,1,1-1h15.09a1,1,0,0,1,1,1v13.56a1,1,0,0,1-.4.79A13.83,13.83,0,0,1,196.05,137Zm-6.59-3.57a13.46,13.46,0,0,0,6.59,1.57,13,13,0,0,0,6.5-1.56v-12H189.46Z" fill="#093f68"/><path d="M188.46,152.51a1,1,0,0,1-.88-.53l-6.22-11.7a1,1,0,0,1,0-1l3.21-5.56-3.69-4.48a1,1,0,0,1,0-1.27l6.8-8.25a1,1,0,1,1,1.54,1.27L183,128.64l3.6,4.38a1,1,0,0,1,.1,1.13l-3.28,5.68,6,11.21a1,1,0,0,1-.88,1.47Z" fill="#093f68"/><path d="M204.07,153.07a1,1,0,0,1-.88-1.47l6-11.21-3.27-5.68a1,1,0,0,1,.09-1.14l3.61-4.37-6.28-7.63a1,1,0,0,1,.14-1.4,1,1,0,0,1,1.41.13l6.79,8.26a1,1,0,0,1,0,1.27L208,134.31l3.2,5.56a1,1,0,0,1,0,1L205,152.54A1,1,0,0,1,204.07,153.07Z" fill="#093f68"/><polyline points="192.42 122.06 192.42 115.35 199.54 115.35 199.54 122.06" fill="#ffc9b0"/><path d="M199.54,123.06a1,1,0,0,1-1-1v-5.71h-5.12v5.71a1,1,0,1,1-2,0v-6.71a1,1,0,0,1,1-1h7.12a1,1,0,0,1,1,1v6.71A1,1,0,0,1,199.54,123.06Z" fill="#093f68"/><ellipse cx="175.62" cy="96.85" rx="6.92" ry="5.96" fill="#ffc9b0"/><path d="M175.62,103.81c-4.36,0-7.92-3.12-7.92-7s3.56-7,7.92-7,7.92,3.13,7.92,7S180,103.81,175.62,103.81Zm0-11.93c-3.26,0-5.92,2.23-5.92,5s2.66,5,5.92,5,5.92-2.23,5.92-5S178.89,91.88,175.62,91.88Z" fill="#093f68"/><ellipse cx="215.97" cy="96.85" rx="6.92" ry="5.96" fill="#ffc9b0"/><path d="M216,103.81c-4.37,0-7.92-3.12-7.92-7s3.55-7,7.92-7,7.92,3.13,7.92,7S220.34,103.81,216,103.81Zm0-11.93c-3.27,0-5.92,2.23-5.92,5s2.65,5,5.92,5,5.92-2.23,5.92-5S219.23,91.88,216,91.88Z" fill="#093f68"/><path d="M208.63,79.21a18.14,18.14,0,0,1-6.12-11.56,23.36,23.36,0,0,1-8.74,11.27,39.85,39.85,0,0,1-13.2,5.8c-6.16,1.6-5.46,5.18-5.46,10.69a20.87,20.87,0,0,0,41.74,0c0-2.9.63-6.45-.61-9.15-1.43-3.09-4.84-4.74-7.34-6.82Z" fill="#ffc9b0"/><path d="M196,117.28a21.89,21.89,0,0,1-21.87-21.87c0-.52,0-1,0-1.52-.06-4.75-.11-8.49,6.22-10.13a38.6,38.6,0,0,0,12.87-5.66,22.31,22.31,0,0,0,8.37-10.77,1,1,0,0,1,1.95.21,17.15,17.15,0,0,0,5.77,10.92h0l.25.21c.66.55,1.38,1.06,2.14,1.6,2.12,1.52,4.32,3.08,5.48,5.57,1,2.26.9,5,.78,7.38,0,.76-.08,1.49-.08,2.19A21.89,21.89,0,0,1,196,117.28ZM202.17,71a25.48,25.48,0,0,1-7.82,8.77,40.17,40.17,0,0,1-13.53,6c-4.81,1.25-4.78,3.56-4.72,8.17,0,.5,0,1,0,1.55a19.87,19.87,0,0,0,39.74,0c0-.73,0-1.5.08-2.29.12-2.27.24-4.63-.6-6.44-.93-2-2.91-3.42-4.83-4.78-.75-.54-1.53-1.1-2.24-1.69L208,80h0A19.28,19.28,0,0,1,202.17,71Z" fill="#093f68"/><circle cx="185.57" cy="94.05" r="1.97" fill="#093f68"/><circle cx="205.94" cy="94.05" r="1.97" fill="#093f68"/><path d="M195.74,101.69a13.38,13.38,0,0,1-2-.16,1,1,0,0,1-.81-1.16,1,1,0,0,1,1.15-.81,9.8,9.8,0,0,0,2.48.08A16.2,16.2,0,0,0,195,95.47a1,1,0,0,1,1.78-.92c.89,1.71,2.29,4.78,1.68,6.14a1.43,1.43,0,0,1-1,.82A7.05,7.05,0,0,1,195.74,101.69Z" fill="#093f68"/><path d="M188.94,89.35h-9.16a1.59,1.59,0,0,1,0-3.18h9.16a1.59,1.59,0,0,1,0,3.18Z" fill="#093f68"/><path d="M211.74,89.35h-9.17a1.59,1.59,0,0,1,0-3.18h9.17a1.59,1.59,0,0,1,0,3.18Z" fill="#093f68"/><path d="M195.55,108.29a12.61,12.61,0,0,1-7.25-2.6,1,1,0,0,1-.12-1.41,1,1,0,0,1,1.4-.12h0c.27.21,6.52,5.27,12.26-1a1,1,0,1,1,1.47,1.36A10.33,10.33,0,0,1,195.55,108.29Z" fill="#093f68"/><rect x="174.36" y="168.34" width="43.25" height="18.56" fill="#093f68"/><path d="M217.61,187.9H174.35a1,1,0,0,1-1-1V168.34a1,1,0,0,1,1-1h43.26a1,1,0,0,1,1,1V186.9A1,1,0,0,1,217.61,187.9Zm-42.26-2h41.26V169.34H175.35Z" fill="#093f68"/><path d="M182.44,226.51,196,225l.3-45.71a9.16,9.16,0,0,0-9.16-9.15h0a9.16,9.16,0,0,0-9.16,9.15Z" fill="#ffc9b0"/><path d="M182.44,227.51a1,1,0,0,1-.63-.22,1,1,0,0,1-.37-.68L177,179.36a10.16,10.16,0,1,1,20.31-.1L197,225a1,1,0,0,1-.89,1l-13.54,1.55Zm4.68-56.4a8.17,8.17,0,0,0-8.16,8.15l4.38,46.15L195,224.07l.29-44.81A8.17,8.17,0,0,0,187.12,171.11Z" fill="#093f68"/><path d="M209.05,230.08l15.55-3.3-10.89-53.34a9.17,9.17,0,0,0-12.26-4.16h0a9.16,9.16,0,0,0-4.16,12.27Z" fill="#ffc9b0"/><path d="M209.05,231.08a1,1,0,0,1-1-.76l-11.74-48.43a10.17,10.17,0,0,1,4.67-13.5,10.16,10.16,0,0,1,13.6,4.61.75.75,0,0,1,.08.24l10.89,53.34a1,1,0,0,1-.77,1.18l-15.55,3.3A.75.75,0,0,1,209.05,231.08Zm-3.56-61.75a8.17,8.17,0,0,0-7.3,11.77.86.86,0,0,1,.07.21l11.53,47.59L223.42,226l-10.66-52.24a8.11,8.11,0,0,0-4.64-4A8.2,8.2,0,0,0,205.49,169.33Z" fill="#093f68"/><circle cx="170.62" cy="101.85" r="1.92" fill="#fff"/><path d="M170.62,104.78a2.93,2.93,0,1,1,2.93-2.93A2.93,2.93,0,0,1,170.62,104.78Zm0-3.85a.93.93,0,0,0,0,1.85.93.93,0,1,0,0-1.85Z" fill="#093f68"/><circle cx="220.58" cy="101.85" r="1.92" fill="#fff"/><path d="M220.58,104.78a2.93,2.93,0,1,1,2.93-2.93A2.93,2.93,0,0,1,220.58,104.78Zm0-3.85a.93.93,0,0,0,0,1.85.93.93,0,1,0,0-1.85Z" fill="#093f68"/><circle cx="191.99" cy="123.89" r="1.83" fill="#fff"/><path d="M192,126.72a2.83,2.83,0,1,1,2.83-2.83A2.83,2.83,0,0,1,192,126.72Zm0-3.66a.83.83,0,1,0,.83.83A.83.83,0,0,0,192,123.06Z" fill="#093f68"/><circle cx="199.89" cy="123.89" r="1.83" fill="#fff"/><path d="M199.89,126.72a2.83,2.83,0,1,1,2.83-2.83A2.83,2.83,0,0,1,199.89,126.72Zm0-3.66a.83.83,0,1,0,.83.83A.83.83,0,0,0,199.89,123.06Z" fill="#093f68"/><circle cx="188.97" cy="120.34" r="1.83" fill="#fff"/><path d="M189,123.17a2.84,2.84,0,1,1,2.83-2.83A2.84,2.84,0,0,1,189,123.17Zm0-3.67a.85.85,0,0,0-.84.84.84.84,0,0,0,.84.83.83.83,0,0,0,.83-.83A.84.84,0,0,0,189,119.5Z" fill="#093f68"/><circle cx="202.24" cy="120.34" r="1.83" fill="#fff"/><path d="M202.24,123.17a2.84,2.84,0,1,1,2.83-2.83A2.83,2.83,0,0,1,202.24,123.17Zm0-3.67a.84.84,0,0,0-.83.84.83.83,0,1,0,1.66,0A.84.84,0,0,0,202.24,119.5Z" fill="#093f68"/><circle cx="195.76" cy="126.5" r="1.83" fill="#fff"/><path d="M195.76,129.33a2.83,2.83,0,1,1,2.83-2.83A2.84,2.84,0,0,1,195.76,129.33Zm0-3.66a.83.83,0,1,0,0,1.66.83.83,0,1,0,0-1.66Z" fill="#093f68"/><path d="M245.54,103c-.38-2.38-4.18-3.84-4.18-3.84s1.9-6.66,2-7.55.25-2.15-2-1.54-4.67,8.27-4.67,8.27-1.14-.41-3.7.82,0,6.79,0,6.79l-11.28,31.76A6.74,6.74,0,1,0,235,140.16l4.75-28h0S245.92,105.43,245.54,103Z" fill="#ffc9b0"/><path d="M228.34,146.7a7.34,7.34,0,0,1-1.39-.13,7.75,7.75,0,0,1-6.23-9s0-.11,0-.16L231.91,106c-.62-1.49-2.35-6.3.64-7.73a8.61,8.61,0,0,1,3.43-1c.83-2.46,2.8-7.55,5.13-8.17a3,3,0,0,1,2.71.29,2.51,2.51,0,0,1,.56,2.35c-.11.77-1.27,4.89-1.82,6.85,1.3.64,3.62,2.07,4,4.25h0c.41,2.55-4.14,7.85-5.86,9.74l-4.7,27.7A7.77,7.77,0,0,1,228.34,146.7Zm-5.66-8.7A5.74,5.74,0,0,0,234,140l4.75-28a1,1,0,0,1,.24-.51c2.84-3.09,5.75-7.16,5.57-8.3h0c-.24-1.47-2.7-2.74-3.55-3.07a1,1,0,0,1-.6-1.2c.73-2.55,1.91-6.82,2-7.42a4.06,4.06,0,0,0,0-.56,3.12,3.12,0,0,0-.82.13c-1,.28-2.9,4.15-4,7.6a1,1,0,0,1-1.29.64h-.2a6.55,6.55,0,0,0-2.73.79c-1.19.57-.28,3.84.47,5.47a1,1,0,0,1,0,.76Z" fill="#093f68"/><path d="M236.69,98.38s5.18,4.16,3,5-4.17-1.78-4.17-1.78,2.92,3.08,1.14,4.59" fill="#ffc9b0"/><path d="M236.69,107.23a1,1,0,0,1-.65-1.76.56.56,0,0,0,.22-.44,4.47,4.47,0,0,0-1.13-2.35c-.22-.24-.35-.41-.38-.43a1,1,0,0,1,.15-1.37,1,1,0,0,1,1.37.07s.18.19.35.39c.5.52,1.57,1.48,2.58,1.2a12.72,12.72,0,0,0-3.14-3.38,1,1,0,0,1,1.25-1.56c1.27,1,4.18,3.57,3.91,5.38a1.71,1.71,0,0,1-1.12,1.36,3.31,3.31,0,0,1-1.86.21,3.75,3.75,0,0,1,0,.58,2.57,2.57,0,0,1-.93,1.87A1,1,0,0,1,236.69,107.23Zm2.55-4.51h0Z" fill="#093f68"/><path d="M205.35,166.66c-1.75-2.9-8.21-3.94-8.21-3.94L164.59,146a6.74,6.74,0,0,0-8.36,4.59h0a6.75,6.75,0,0,0,4.58,8.36L193,169.69a63.86,63.86,0,0,0,7.39,1.52c1.54,0,4.28,2.15,5.93,1.65S207.1,169.57,205.35,166.66Z" fill="#ffc9b0"/><path d="M205.77,173.94a9.1,9.1,0,0,1-3.35-1,7.14,7.14,0,0,0-2-.72,59.45,59.45,0,0,1-7.62-1.55L160.5,159.87A7.74,7.74,0,0,1,164.87,145l.17.07,32.42,16.68c1.21.21,6.91,1.35,8.74,4.39,1.73,2.87,2.35,5,1.83,6.37a2.1,2.1,0,0,1-1.4,1.29A2.76,2.76,0,0,1,205.77,173.94ZM162.7,146.7A5.75,5.75,0,0,0,161.09,158l32.25,10.78a56.3,56.3,0,0,0,7.08,1.47,8,8,0,0,1,2.82.89c1,.44,2.21,1,2.8.8.09,0,.1-.05.12-.1.16-.42,0-1.86-1.67-4.62h0c-1.24-2.06-5.84-3.21-7.51-3.47a1.18,1.18,0,0,1-.3-.1l-32.46-16.7A5.74,5.74,0,0,0,162.7,146.7Z" fill="#093f68"/><path d="M206.35,219.38s2.82,2.82,8.23,2.07a17.34,17.34,0,0,0,8.28-3.18s20.23,19.81,15.34,20.32-14.69-1.68-20.52-6.7c0,0-.63,4.37-3.18,4.84-2.14.39-4.52-1.68-4.52-1.68S207.08,222.42,206.35,219.38Z" fill="#68e1fd"/><path d="M236.74,239.65a34.39,34.39,0,0,1-18.45-6c-.49,1.55-1.52,3.68-3.61,4.06-2.54.47-5.07-1.66-5.35-1.9a1,1,0,0,1-.32-.53c0-.13-2.91-12.66-3.64-15.66a1,1,0,0,1,.49-1.11,1,1,0,0,1,1.19.16h0c.1.1,2.59,2.46,7.39,1.79a16.7,16.7,0,0,0,7.78-3,1,1,0,0,1,1.34.05c5.29,5.18,17.45,17.58,16.3,20.89a1.74,1.74,0,0,1-1.56,1.14A15,15,0,0,1,236.74,239.65Zm-19.06-8.76a1,1,0,0,1,.65.24C223.94,236,233.42,238,238,237.6c-.31-2.2-7.86-10.78-15.2-18a19.65,19.65,0,0,1-8,2.87,12.12,12.12,0,0,1-6.83-.89c1,4.17,2.62,11.32,3,12.94.72.56,2.24,1.48,3.44,1.26,1.5-.28,2.23-3.05,2.37-4a1,1,0,0,1,.64-.8A1,1,0,0,1,217.68,230.89Z" fill="#093f68"/><path d="M217.58,142.62a.83.83,0,0,1-.35-.06L213.06,141a1,1,0,1,1,.7-1.87l4.16,1.55a1,1,0,0,1-.34,1.93Z" fill="#093f68"/><path d="M181.94,221.25s1.06,10.81,2.33,13.2,3.38,9.57,8,8.59,4.79-7.61,4.79-10.56-1.51-13.1-1.51-13.1-3.76,5-7.11,5.23S181.94,221.25,181.94,221.25Z" fill="#68e1fd"/><path d="M191.4,244.13c-3.93,0-6-4.76-7.32-7.7-.26-.6-.49-1.12-.7-1.51-1.32-2.5-2.33-12.45-2.44-13.57a1,1,0,0,1,1.75-.76s2.9,3.25,5.69,3c2.38-.19,5.42-3.55,6.4-4.83a1,1,0,0,1,1.78.46c.06.41,1.52,10.24,1.52,13.24,0,2.56,0,10.35-5.58,11.54A5.33,5.33,0,0,1,191.4,244.13Zm-8.18-20.4c.48,4.06,1.23,8.92,1.93,10.25.23.43.48,1,.76,1.64,1.58,3.59,3.35,7,6.17,6.44,3.58-.76,4-5.83,4-9.58,0-2-.75-7.64-1.18-10.78-1.51,1.59-3.94,3.71-6.36,3.9A8.11,8.11,0,0,1,183.22,223.73Z" fill="#093f68"/></g></svg>