<svg xmlns="http://www.w3.org/2000/svg" viewBox="0 0 400 300"><g id="_405_boston_outline" data-name="#405_boston_outline"><path d="M293.85,150a93.59,93.59,0,0,1-1.73,18,93.49,93.49,0,0,1-6.65,20.82q-1.74,3.83-3.81,7.45a89.84,89.84,0,0,1-5.74,8.89,91.53,91.53,0,0,1-7,8.5,89.8,89.8,0,0,1-6.61,6.48c-.85.76-1.72,1.51-2.6,2.23-1.14,1-2.31,1.87-3.5,2.76a93.7,93.7,0,0,1-112.48,0c-.38-.28-.76-.57-1.13-.87-1.71-1.3-3.36-2.68-5-4.12a93.74,93.74,0,0,1-25.81-37.87,93.5,93.5,0,0,1-5.5-26.23c-.14-2-.2-4-.2-6,0-3.17.16-6.3.46-9.39A93.86,93.86,0,0,1,293.85,150Z" fill="#fff"/><path d="M200,244.85a95,95,0,0,1-45.52-11.62,93.75,93.75,0,0,1-11.32-7.3c-.39-.28-.78-.58-1.16-.89-1.63-1.24-3.28-2.61-5-4.15a94.26,94.26,0,0,1-10.73-11.23,95.42,95.42,0,0,1-9.3-13.79,94.07,94.07,0,0,1-6-13.26,94.55,94.55,0,0,1-5.56-26.51c-.13-1.9-.2-3.95-.2-6.1,0-3.12.16-6.31.47-9.49A94.86,94.86,0,1,1,293.1,168.19a90.05,90.05,0,0,1-2.94,11.33,93.56,93.56,0,0,1-3.78,9.72c-1.16,2.54-2.45,5.07-3.85,7.53a91.57,91.57,0,0,1-5.8,9,93,93,0,0,1-7.05,8.59,91.61,91.61,0,0,1-6.68,6.55c-.9.81-1.79,1.57-2.63,2.25-1,.88-2.16,1.77-3.53,2.79a93.75,93.75,0,0,1-11.32,7.3A95,95,0,0,1,200,244.85Zm0-187.7a92.87,92.87,0,0,0-92.39,83.56c-.31,3.11-.46,6.24-.46,9.29,0,2.1.07,4.11.2,6a92.61,92.61,0,0,0,5.44,26,92.88,92.88,0,0,0,5.92,13,94.08,94.08,0,0,0,9.11,13.49,92.55,92.55,0,0,0,10.5,11c1.7,1.52,3.3,2.85,4.92,4.07.38.31.75.59,1.11.86a91.5,91.5,0,0,0,11.09,7.15,92.93,92.93,0,0,0,89.12,0,91.74,91.74,0,0,0,11.08-7.14c1.34-1,2.44-1.87,3.46-2.73.83-.67,1.69-1.41,2.57-2.21a84.05,84.05,0,0,0,6.54-6.41,94.16,94.16,0,0,0,12.58-17.2c1.37-2.41,2.64-4.89,3.77-7.37a92.66,92.66,0,0,0,6.58-20.6A92.92,92.92,0,0,0,200,57.15Z" fill="#093f68"/><path d="M292.12,169a1,1,0,0,1-.67-.26L206,91a1,1,0,1,1,1.34-1.48l85.49,77.72a1,1,0,0,1-.67,1.74Z" fill="#093f68"/><path d="M289.21,180.21a1,1,0,0,1-.71-.3l-81.05-82a1,1,0,0,1,1.42-1.4l1.33,1.34,79.72,80.63a1,1,0,0,1,0,1.41A1,1,0,0,1,289.21,180.21Z" fill="#093f68"/><path d="M285.47,189.82a1,1,0,0,1-.74-.33l-78.84-86.74a1,1,0,0,1,1.48-1.34l78.84,86.74a1,1,0,0,1-.07,1.41A1,1,0,0,1,285.47,189.82Z" fill="#093f68"/><path d="M281.66,197.27a1,1,0,0,1-.76-.35l-75-87.44a1,1,0,1,1,1.52-1.3l75,87.44a1,1,0,0,1-.76,1.65Z" fill="#093f68"/><path d="M275.92,206.16a1,1,0,0,1-.79-.38L205.84,117.2a1,1,0,0,1,1.58-1.24l69.29,88.58a1,1,0,0,1-.17,1.41A1,1,0,0,1,275.92,206.16Z" fill="#093f68"/><path d="M269,214.66a1,1,0,0,1-.82-.43l-59.74-86.51a1,1,0,0,1,1.64-1.14l59.74,86.51a1,1,0,0,1-.25,1.39A1,1,0,0,1,269,214.66Z" fill="#093f68"/><path d="M256.8,221.14a1,1,0,0,1-.88-.52l-47.58-85.71a1,1,0,1,1,1.75-1l47.58,85.71a1,1,0,0,1-.39,1.36A.94.94,0,0,1,256.8,221.14Z" fill="#093f68"/><polygon points="204.28 61.65 208.86 68.23 209.92 119.64 239.74 220.14 226.83 220.14 204.99 136.89 186.44 220.14 176.57 220.14 197.24 133.96 201.48 96.27 201.48 72.22 204.28 61.65" fill="#68e1fd"/><path d="M239.74,221.14H226.83a1,1,0,0,1-1-.75l-20.79-79.25-17.66,79.21a1,1,0,0,1-1,.79h-9.86a1,1,0,0,1-.79-.38,1,1,0,0,1-.19-.86l20.65-86.11,4.23-37.58v-24a1.09,1.09,0,0,1,0-.26l2.81-10.57a1,1,0,0,1,.79-.72,1,1,0,0,1,1,.41l4.58,6.57a1,1,0,0,1,.18.56l1.06,51.27L240.7,219.85a1,1,0,0,1-.16.89A1,1,0,0,1,239.74,221.14Zm-12.14-2h10.8L209,119.92a.82.82,0,0,1,0-.26l-1-51.11L204.7,64l-2.22,8.36v24l-4.25,37.69a.5.5,0,0,1,0,.12l-20.37,84.95h7.8L204,136.68a1,1,0,0,1,1-.79,1,1,0,0,1,1,.75ZM201.48,96.27h0Z" fill="#093f68"/><path d="M229.41,220.14,203.34,118.23l.11-50.5v-.07l.83-6-4.93,7.28-1.41,51.64-26.06,99.57h4.69l24.07-89.47,24.07,89.47Z" fill="#68e1fd"/><path d="M229.41,221.14h-4.7a1,1,0,0,1-1-.74l-23.11-85.88-23.1,85.88a1,1,0,0,1-1,.74h-4.7a1,1,0,0,1-1-1.26l26-99.45,1.4-51.53a1.11,1.11,0,0,1,.17-.53l4.94-7.28a1,1,0,0,1,1.81.7l-.83,6-.1,50.3,26,101.79a1,1,0,0,1-1,1.25Zm-3.93-2h2.64L202.38,118.47a.69.69,0,0,1,0-.25l.11-50.49s0-.16,0-.2l.25-1.77-2.37,3.49-1.4,51.35a.91.91,0,0,1,0,.23l-25.74,98.31h2.64l23.87-88.73a1,1,0,0,1,1-.74,1,1,0,0,1,1,.74Z" fill="#093f68"/><path d="M106.61,141.61a1,1,0,0,1-.49-1.87l94-52.14a1,1,0,1,1,1,1.74l-1.85,1L107.1,141.48A1,1,0,0,1,106.61,141.61Z" fill="#093f68"/><path d="M106.35,157a1,1,0,0,1-.55-1.83l94-62.22a1,1,0,1,1,1.1,1.66l-1.68,1.11L106.9,156.87A.94.94,0,0,1,106.35,157Z" fill="#093f68"/><path d="M108.14,170.28a1,1,0,0,1-.8-.4,1,1,0,0,1,.2-1.4L200,98.58a1,1,0,0,1,1.2,1.6l-92.5,69.9A1,1,0,0,1,108.14,170.28Z" fill="#093f68"/><path d="M147.22,221.14a1,1,0,0,1-.5-.14,1,1,0,0,1-.36-1.36l54.57-95a1,1,0,0,1,1.74,1l-54.58,95A1,1,0,0,1,147.22,221.14Z" fill="#093f68"/><path d="M127,210a.94.94,0,0,1-.63-.23,1,1,0,0,1-.14-1.4l73.6-89.87a1,1,0,0,1,1.4-.14,1,1,0,0,1,.14,1.4L198,124l-70.17,85.68A1,1,0,0,1,127,210Z" fill="#093f68"/><path d="M117.84,196.39a1,1,0,0,1-.71-.29,1,1,0,0,1,0-1.42l80.25-80.48,2.93-2.92a1,1,0,1,1,1.42,1.4l-2.94,2.94L118.55,196.1A1,1,0,0,1,117.84,196.39Z" fill="#093f68"/><path d="M111.85,183.27a1,1,0,0,1-.65-1.76l89.17-76.2a1,1,0,0,1,1.3,1.52l-2.75,2.35L112.5,183A1,1,0,0,1,111.85,183.27Z" fill="#093f68"/><path d="M262.34,220.14c-2,1.75-4,3.42-6.1,5a92.53,92.53,0,0,1-11.2,7.22H155a92.53,92.53,0,0,1-11.2-7.22c-2.11-1.57-4.14-3.24-6.1-5Z" fill="#093f68"/><path d="M245,233.35H155a1,1,0,0,1-.48-.12,93.75,93.75,0,0,1-11.32-7.3c-2.06-1.53-4.13-3.23-6.17-5a1,1,0,0,1,.67-1.75H262.34a1,1,0,0,1,.67,1.75c-2,1.81-4.11,3.51-6.17,5a93.75,93.75,0,0,1-11.32,7.3A1,1,0,0,1,245,233.35Zm-89.82-2h89.56a91.5,91.5,0,0,0,10.86-7c1.34-1,2.69-2.06,4-3.19H140.34c1.33,1.12,2.68,2.19,4,3.19A91.5,91.5,0,0,0,155.22,231.35Z" fill="#093f68"/><path d="M259.74,222.37c-1.14,1-2.31,1.87-3.5,2.76a93.7,93.7,0,0,1-112.48,0c-.38-.28-.76-.57-1.13-.87.27-.11.54-.21.82-.3,2.07-.67,4.65-.55,6,1.14a6.85,6.85,0,0,1,6.57,2.66c2-.85,3.17-2.38,5.42-2.61a10.68,10.68,0,0,1,3.86.29c.34.09,2.75,1.27,2.84,1.21,1.89-1.15,4.4-2.29,6.17-1,.45.35.83.84,1.39,1a3.17,3.17,0,0,0,1.18-.12c2.23-.4,2.65,1.5,4.34,1.89s3-1.88,4.62-2.72a6.76,6.76,0,0,1,5.71-.5,11,11,0,0,1,5.67,4.65,5.08,5.08,0,0,1,3.86-1.42c.44,0,3.8,1,3.43,1.8a4.17,4.17,0,0,1,7.25-.69,15.63,15.63,0,0,1,7.36-4.09c2.8-.5,6,.48,7.45,2.93a4.88,4.88,0,0,1,8.86-.29c.61-1.16,2.39-3.29,3.86-3.32s1.87,1.63,3.17,2.08c1.57.56,2-1,3.46-1.78a6.28,6.28,0,0,1,6.09.11c.33-1.52,2.07-2.24,3.6-2.54A14.2,14.2,0,0,1,259.74,222.37Z" fill="#70cc40"/><path d="M200,244.85a95,95,0,0,1-45.52-11.62,93.75,93.75,0,0,1-11.32-7.3c-.39-.28-.78-.58-1.16-.89a1,1,0,0,1-.36-.93,1,1,0,0,1,.61-.78c.3-.12.59-.22.89-.32,2-.65,4.88-.73,6.71,1a7.88,7.88,0,0,1,6.46,2.48c.43-.23.83-.49,1.24-.76a8,8,0,0,1,3.81-1.6,11.57,11.57,0,0,1,4.22.31c.21.06.56.22,1.45.62l1,.46c1.48-.86,4.56-2.41,6.88-.66a5.48,5.48,0,0,1,.43.37,1.82,1.82,0,0,0,.57.41,1.59,1.59,0,0,0,.51-.07l.28,0a3.91,3.91,0,0,1,3.54,1.15,3,3,0,0,0,1.21.75c.59.14,1.32-.53,2.11-1.24a9,9,0,0,1,1.81-1.39,7.78,7.78,0,0,1,6.56-.55,12.52,12.52,0,0,1,5.54,4.12,6,6,0,0,1,3.68-1,11.54,11.54,0,0,1,3.26,1.12,5.14,5.14,0,0,1,7.45-.41,15.61,15.61,0,0,1,7.08-3.67,8.54,8.54,0,0,1,7.53,2.15,5.87,5.87,0,0,1,8.94-.3c.94-1.2,2.39-2.52,3.86-2.55h.08a3.32,3.32,0,0,1,2.56,1.4,2.51,2.51,0,0,0,.88.74c.37.13.47.11,1.15-.56a6.51,6.51,0,0,1,1.52-1.17,7.44,7.44,0,0,1,6.06-.36,5.88,5.88,0,0,1,3.9-2.16,15.27,15.27,0,0,1,4.39-.29,1,1,0,0,1,.87.7,1,1,0,0,1-.32,1.07c-1.05.88-2.17,1.77-3.54,2.79a93.75,93.75,0,0,1-11.32,7.3A95,95,0,0,1,200,244.85Zm-55.2-20.19a91.85,91.85,0,0,0,10.64,6.81,92.93,92.93,0,0,0,89.12,0,91.74,91.74,0,0,0,11.08-7.14c.4-.3.79-.59,1.15-.88-.31.05-.63.1-1,.17-.77.15-2.57.62-2.82,1.77a1,1,0,0,1-.59.71,1,1,0,0,1-.92-.07,5.25,5.25,0,0,0-5.1-.07,4.32,4.32,0,0,0-1,.83,2.87,2.87,0,0,1-3.22,1,4.12,4.12,0,0,1-1.7-1.29c-.49-.55-.71-.74-1.1-.73-.83,0-2.37,1.57-3,2.79a1,1,0,0,1-.88.53h0a1,1,0,0,1-.88-.55,3.88,3.88,0,0,0-7.05.23,1,1,0,0,1-.86.61,1,1,0,0,1-.92-.5c-1.31-2.23-4.24-2.83-6.41-2.45-2.84.51-5.29,2.45-6.88,3.86a1,1,0,0,1-.78.24,1,1,0,0,1-.7-.42,3.18,3.18,0,0,0-5.52.53,1,1,0,0,1-1.9-.3,9.49,9.49,0,0,0-2.53-.91,4.15,4.15,0,0,0-3.1,1.15,1,1,0,0,1-.83.25,1,1,0,0,1-.71-.49,10,10,0,0,0-5.19-4.22,5.78,5.78,0,0,0-4.85.46,7.74,7.74,0,0,0-1.41,1.12c-1.09,1-2.31,2.08-3.91,1.7a4.86,4.86,0,0,1-2-1.17c-.64-.54-1-.87-1.89-.72l-.23.05a3.17,3.17,0,0,1-1.33.07,3.28,3.28,0,0,1-1.5-.89l-.3-.26c-1-.75-2.66-.42-5,1-.48.32-.7.22-2.48-.59-.43-.19-1-.46-1.16-.51a9.84,9.84,0,0,0-3.47-.26,6.31,6.31,0,0,0-2.92,1.29,13.29,13.29,0,0,1-2.22,1.25,1,1,0,0,1-1.2-.33,5.87,5.87,0,0,0-5.59-2.27,1,1,0,0,1-.95-.35A4.12,4.12,0,0,0,144.8,224.66Zm58.82,5.16h0Z" fill="#093f68"/><path d="M207,239.81a1,1,0,0,1-.71-.29,1.42,1.42,0,0,1-.39-1.16,2.16,2.16,0,0,1,1.06-1.47,14.13,14.13,0,0,1,3.87-1.62,4.34,4.34,0,0,1,2.32,0,7.09,7.09,0,0,1,7.68-3.35,1,1,0,0,1,.73,1.21,1,1,0,0,1-1.22.73,5.07,5.07,0,0,0-5.81,3.21,1,1,0,0,1-.82.68,1,1,0,0,1-1-.44c-.14-.22-.74-.25-1.42-.08A11.81,11.81,0,0,0,208,238.6h0a1,1,0,0,1-.27.91A1,1,0,0,1,207,239.81Zm.71-1.71h0Z" fill="#093f68"/><path d="M179.64,236.47a1,1,0,0,1-.74-.33,4.42,4.42,0,0,0-4.59-1.17,1,1,0,0,1-.81-.07,1,1,0,0,1-.5-.65,3.67,3.67,0,0,0-4.49-2.53,1,1,0,0,1-1.26-.63,1,1,0,0,1,.63-1.27,5.48,5.48,0,0,1,4.38.5,5.65,5.65,0,0,1,2.36,2.51,6.4,6.4,0,0,1,5.76,2,1,1,0,0,1-.07,1.41A1,1,0,0,1,179.64,236.47Z" fill="#093f68"/></g></svg>