<svg xmlns="http://www.w3.org/2000/svg" viewBox="0 0 400 300"><g id="_113_brainstorming_outline" data-name="#113_brainstorming_outline"><path d="M179.09,68.35c-38.58,0-69.86,28.56-69.86,63.78A60.15,60.15,0,0,0,124.59,172L115,200.38l19.7-19a73.74,73.74,0,0,0,44.4,14.54c38.58,0,69.86-28.56,69.86-63.79S217.67,68.35,179.09,68.35Z" fill="#fff"/><path d="M115,201.38a1,1,0,0,1-.54-.15,1,1,0,0,1-.41-1.17l9.42-27.82a60.65,60.65,0,0,1-15.23-40.11c0-35.72,31.79-64.78,70.86-64.78S250,96.41,250,132.13s-31.79,64.79-70.86,64.79a75.32,75.32,0,0,1-44.32-14.23L115.68,201.1A1,1,0,0,1,115,201.38Zm64.1-132c-38,0-68.86,28.17-68.86,62.78a58.76,58.76,0,0,0,15.11,39.22,1,1,0,0,1,.19,1l-8.28,24.48L134,180.66a1,1,0,0,1,1.29-.08,73.2,73.2,0,0,0,43.8,14.34c38,0,68.86-28.17,68.86-62.79S217.06,69.35,179.09,69.35Z" fill="#093f68"/><ellipse cx="196.81" cy="175.18" rx="7.5" ry="5.73" fill="#093f68"/><path d="M196.81,181.91c-4.69,0-8.5-3-8.5-6.73s3.81-6.72,8.5-6.72,8.5,3,8.5,6.72S201.5,181.91,196.81,181.91Zm0-11.45c-3.58,0-6.5,2.12-6.5,4.72s2.92,4.73,6.5,4.73,6.5-2.12,6.5-4.73S200.39,170.46,196.81,170.46Z" fill="#093f68"/><path d="M219,135.63a22.22,22.22,0,1,0-37.95,15.7,21.89,21.89,0,0,1,5.69,10.52l.17.76h19.74l.21-.92a23.21,23.21,0,0,1,6-10.69A22.15,22.15,0,0,0,219,135.63Z" fill="#68e1fd"/><path d="M206.68,163.61H186.94a1,1,0,0,1-1-.77l-.18-.76A20.87,20.87,0,0,0,180.37,152a23.22,23.22,0,0,1,15-39.58,23,23,0,0,1,17.38,6.26,23.23,23.23,0,0,1,.87,33,22,22,0,0,0-5.71,10.22l-.22.92A1,1,0,0,1,206.68,163.61Zm-18.94-2h18.14l0-.15a24.24,24.24,0,0,1,6.21-11.15,21.23,21.23,0,1,0-30.34.31A22.91,22.91,0,0,1,187.74,161.61Z" fill="#093f68"/><rect x="185.52" y="162.61" width="22.59" height="4.56" rx="2.05" fill="#fff"/><path d="M206.05,168.18H187.57a3.06,3.06,0,0,1-3-3.06v-.46a3.06,3.06,0,0,1,3-3h18.48a3.06,3.06,0,0,1,3,3v.46A3.06,3.06,0,0,1,206.05,168.18Zm-18.48-4.57a1,1,0,0,0-1,1v.46a1.06,1.06,0,0,0,1,1.06h18.48a1.06,1.06,0,0,0,1-1.06v-.46a1,1,0,0,0-1-1Z" fill="#093f68"/><rect x="185.52" y="167.18" width="22.59" height="4.56" rx="2.05" fill="#fff"/><path d="M206.05,172.74H187.57a3.06,3.06,0,0,1-3-3.05v-.46a3,3,0,0,1,3-3h18.48a3,3,0,0,1,3,3v.46A3.06,3.06,0,0,1,206.05,172.74Zm-18.48-4.56a1,1,0,0,0-1,1v.46a1,1,0,0,0,1,1.05h18.48a1,1,0,0,0,1-1.05v-.46a1,1,0,0,0-1-1Z" fill="#093f68"/><rect x="185.52" y="171.74" width="22.59" height="4.56" rx="2.05" fill="#fff"/><path d="M206.05,177.3H187.57a3.06,3.06,0,0,1-3-3.05v-.46a3.06,3.06,0,0,1,3-3h18.48a3.06,3.06,0,0,1,3,3v.46A3.06,3.06,0,0,1,206.05,177.3Zm-18.48-4.56a1,1,0,0,0-1,1v.46a1,1,0,0,0,1,1.05h18.48a1,1,0,0,0,1-1.05v-.46a1,1,0,0,0-1-1Z" fill="#093f68"/><path d="M193.05,163.61a1,1,0,0,1-1-.86L188.32,135a1,1,0,0,1,.57-1,1,1,0,0,1,1.16.23l7.1,7.73,7.19-9.6a1,1,0,0,1,1.79.72l-3.42,29.66a1,1,0,0,1-1.11.88,1,1,0,0,1-.88-1.11l3-26-5.7,7.61a1,1,0,0,1-1.53.07l-5.76-6.27L194,162.48a1,1,0,0,1-.86,1.12Z" fill="#093f68"/><path d="M258.31,232.65a1,1,0,0,1-.79-.39l-16.6-21.53H172.08a13.26,13.26,0,0,1-13.25-13.24V113.74a13.26,13.26,0,0,1,13.25-13.24H278.53a13.26,13.26,0,0,1,13.24,13.24v83.75a13.26,13.26,0,0,1-13.24,13.24H259.31v20.92a1,1,0,0,1-.68.94A.91.91,0,0,1,258.31,232.65ZM172.08,102.5a11.26,11.26,0,0,0-11.25,11.24v83.75a11.26,11.26,0,0,0,11.25,11.24h69.34a1,1,0,0,1,.79.39l15.1,19.59v-19a1,1,0,0,1,1-1h20.22a11.26,11.26,0,0,0,11.24-11.24V113.74a11.26,11.26,0,0,0-11.24-11.24Z" fill="#093f68"/><path d="M278.22,165.89H255.7a1,1,0,0,1,0-2h22.52a1,1,0,0,1,0,2Z" fill="#dfeaef"/><path d="M278.22,179.23h-39a1,1,0,0,1,0-2h39a1,1,0,0,1,0,2Z" fill="#dfeaef"/><path d="M278.22,192.56h-39a1,1,0,0,1,0-2h39a1,1,0,0,1,0,2Z" fill="#dfeaef"/><path d="M148.33,116.16H122.42a1,1,0,1,1,0-2h25.91a1,1,0,0,1,0,2Z" fill="#dfeaef"/><path d="M148.33,127.42H122.42a1,1,0,0,1,0-2h25.91a1,1,0,0,1,0,2Z" fill="#dfeaef"/><path d="M148.33,138.68H122.42a1,1,0,0,1,0-2h25.91a1,1,0,0,1,0,2Z" fill="#dfeaef"/><path d="M135.38,150h-13a1,1,0,0,1,0-2h13a1,1,0,0,1,0,2Z" fill="#dfeaef"/></g></svg>