<svg xmlns="http://www.w3.org/2000/svg" viewBox="0 0 400 300"><g id="_29_bug_fixed_outline" data-name="#29_bug_fixed_outline"><path d="M153.32,129.91a2,2,0,0,1-.78-.16l-20.29-8.6a2,2,0,0,1-1.19-1.46l-4.22-22.07a2,2,0,0,1,3.92-.76l4,21,19.31,8.19a2,2,0,0,1-.78,3.84Z" fill="#093f68"/><path d="M128.8,209.86l-.38,0a2,2,0,0,1-1.58-2.34l4.22-22.07a2,2,0,0,1,1.19-1.47l20.29-8.6A2,2,0,1,1,154.1,179l-19.31,8.19-4,21A2,2,0,0,1,128.8,209.86Z" fill="#093f68"/><path d="M120.35,161.3a2,2,0,0,1-1.56-3.26l5.43-6.74a2,2,0,0,1,1.56-.75h21.43a2,2,0,0,1,0,4H126.74l-4.83,6A2,2,0,0,1,120.35,161.3Z" fill="#093f68"/><path d="M231.63,129.91a2,2,0,0,1-.78-3.84l19.31-8.19,4-21a2,2,0,0,1,3.93.76l-4.23,22.07a2,2,0,0,1-1.18,1.46l-20.3,8.6A2,2,0,0,1,231.63,129.91Z" fill="#093f68"/><path d="M256.15,209.86a2,2,0,0,1-2-1.62l-4-21L230.85,179a2,2,0,1,1,1.56-3.68l20.3,8.6a2,2,0,0,1,1.18,1.47l4.23,22.07a2,2,0,0,1-1.59,2.34Z" fill="#093f68"/><path d="M264.6,161.3a2,2,0,0,1-1.56-.75l-4.83-6H237.74a2,2,0,0,1,0-4h21.43a2,2,0,0,1,1.56.75l5.43,6.74a2,2,0,0,1-1.56,3.26Z" fill="#093f68"/><circle cx="192.46" cy="152.55" r="45.16" fill="#f56132"/><path d="M192.46,198.72a46.17,46.17,0,1,1,46.17-46.17A46.22,46.22,0,0,1,192.46,198.72Zm0-90.33a44.17,44.17,0,1,0,44.17,44.16A44.21,44.21,0,0,0,192.46,108.39Z" fill="#093f68"/><path d="M217.13,114.45l-24.67,17.21-24.67-17.21c0-9.51,11.05-17.21,24.67-17.21S217.13,104.94,217.13,114.45Z" fill="#093f68"/><path d="M192.46,132.66a1,1,0,0,1-.57-.18l-24.67-17.21a1,1,0,0,1-.43-.82c0-10,11.52-18.21,25.67-18.21s25.67,8.17,25.67,18.21a1,1,0,0,1-.42.82L193,132.48A1,1,0,0,1,192.46,132.66ZM168.8,113.94l23.66,16.5,23.66-16.5c-.4-8.71-10.86-15.7-23.66-15.7S169.2,105.23,168.8,113.94Zm48.33.51h0Z" fill="#093f68"/><path d="M192.46,198.72a1,1,0,0,1-1-1V131.66a1,1,0,0,1,2,0v66.06A1,1,0,0,1,192.46,198.72Z" fill="#093f68"/><path d="M206.73,101.41a1,1,0,0,1-.37-.07,1,1,0,0,1-.56-1.3c.24-.59,5.9-14.64,13.7-21.47a1,1,0,0,1,1.42.1,1,1,0,0,1-.1,1.41c-7.44,6.51-13.1,20.56-13.16,20.7A1,1,0,0,1,206.73,101.41Z" fill="#093f68"/><path d="M176.49,101.41a1,1,0,0,1-.93-.62c-.06-.15-5.73-14.21-13.16-20.71a1,1,0,0,1,1.32-1.51c7.8,6.83,13.46,20.88,13.7,21.47a1,1,0,0,1-.56,1.3A1,1,0,0,1,176.49,101.41Z" fill="#093f68"/><circle cx="251.17" cy="183.14" r="43.24" fill="#68e1fd"/><path d="M251.17,227.38a44.24,44.24,0,1,1,44.24-44.24A44.29,44.29,0,0,1,251.17,227.38Zm0-86.47a42.24,42.24,0,1,0,42.24,42.23A42.28,42.28,0,0,0,251.17,140.91Z" fill="#093f68"/><polygon points="244.33 169.3 233.52 180.11 223.81 166.55 230.76 159.59 244.33 169.3" fill="#fff"/><path d="M233.52,181.11h-.09a1,1,0,0,1-.73-.41L223,167.13a1,1,0,0,1,.11-1.29l7-7a1,1,0,0,1,1.29-.1l13.56,9.71a1,1,0,0,1,.42.73,1.05,1.05,0,0,1-.29.79l-10.82,10.81A1,1,0,0,1,233.52,181.11Zm-8.41-14.45,8.53,11.91,9.15-9.14-11.92-8.53Z" fill="#093f68"/><polygon points="244.33 169.3 233.52 180.11 240.43 180.4 244.61 176.22 244.33 169.3" fill="#fff"/><path d="M240.43,181.4h0l-6.92-.29a1,1,0,0,1-.89-.63,1,1,0,0,1,.23-1.07l10.81-10.82a1,1,0,0,1,1.71.67l.28,6.91a1,1,0,0,1-.29.75l-4.18,4.18A1,1,0,0,1,240.43,181.4Zm-4.59-2.19,4.19.17,3.56-3.56-.17-4.2Z" fill="#093f68"/><polygon points="257.26 188.5 252.66 193.09 240.43 180.4 244.56 176.27 257.26 188.5" fill="#fff"/><path d="M252.66,194.09h0a1,1,0,0,1-.71-.3l-12.23-12.7a1,1,0,0,1,0-1.4l4.13-4.13a1,1,0,0,1,1.4,0L258,187.78a1,1,0,0,1,.31.71,1,1,0,0,1-.29.71l-4.6,4.6A1,1,0,0,1,252.66,194.09Zm-10.83-13.68,10.85,11.26,3.15-3.16-11.26-10.84Z" fill="#093f68"/><rect x="256.06" y="186.57" width="12.6" height="23.33" rx="3.25" transform="translate(-63.33 243.57) rotate(-45)" fill="#fff"/><path d="M266.15,210.58a4.24,4.24,0,0,1-3-1.24l-11.89-11.9a4.25,4.25,0,0,1,0-6l4.31-4.31a4.25,4.25,0,0,1,6,0l11.9,11.9a4.27,4.27,0,0,1,0,6l-4.31,4.31A4.24,4.24,0,0,1,266.15,210.58Zm-7.59-22.7a2.28,2.28,0,0,0-1.59.65l-4.31,4.31a2.26,2.26,0,0,0,0,3.19l11.9,11.9a2.25,2.25,0,0,0,3.18,0l4.31-4.31a2.26,2.26,0,0,0,0-3.19l-11.89-11.9A2.29,2.29,0,0,0,258.56,187.88Z" fill="#093f68"/><line x1="255.87" y1="188.22" x2="272.37" y2="204.72" fill="#fff"/><path d="M272.37,205.72a1,1,0,0,1-.71-.3l-16.49-16.49a1,1,0,0,1,1.41-1.42l16.5,16.5a1,1,0,0,1-.71,1.71Z" fill="#093f68"/><line x1="252.7" y1="191.39" x2="269.2" y2="207.89" fill="#fff"/><path d="M269.2,208.89a1,1,0,0,1-.71-.29L252,192.1a1,1,0,1,1,1.42-1.41l16.49,16.49a1,1,0,0,1-.7,1.71Z" fill="#093f68"/><path d="M277.13,179.66a13.45,13.45,0,0,0,2.7-15.18l-7.07,7.08-5.72-.5-1.37-6.59,6.85-6.85a13.45,13.45,0,0,0-18.09,15.11l-21.94,21.94a7.51,7.51,0,0,0,10.61,10.62L265,183.35A13.45,13.45,0,0,0,277.13,179.66Zm-40.91,21.89a3.31,3.31,0,1,1,4.68,0A3.31,3.31,0,0,1,236.22,201.55Z" fill="#fff"/><path d="M237.79,208.49a8.51,8.51,0,0,1-6-14.53l21.57-21.57a14.45,14.45,0,0,1,19.54-15.7,1,1,0,0,1,.34,1.64l-6.47,6.47,1.11,5.33,4.51.39,6.74-6.74a1,1,0,0,1,1.62.28,14.46,14.46,0,0,1-15.36,20.36L243.81,206A8.43,8.43,0,0,1,237.79,208.49Zm29.84-50.79a12.46,12.46,0,0,0-12.22,14.84,1,1,0,0,1-.28.89l-21.94,21.95a6.51,6.51,0,1,0,9.21,9.2l21.94-21.94a1,1,0,0,1,.9-.27,12.46,12.46,0,0,0,14.22-16.1l-6,6a1,1,0,0,1-.79.29l-5.72-.49a1,1,0,0,1-.89-.8l-1.37-6.59a1,1,0,0,1,.27-.91l5.7-5.69A12.5,12.5,0,0,0,267.63,157.7Zm-29.07,45.82a4.31,4.31,0,1,1,3.05-1.26A4.31,4.31,0,0,1,238.56,203.52Zm0-6.62a2.26,2.26,0,0,0-1.63.68,2.31,2.31,0,0,0,3.26,3.26,2.26,2.26,0,0,0,.68-1.63,2.29,2.29,0,0,0-.68-1.63A2.26,2.26,0,0,0,238.56,196.9Z" fill="#093f68"/></g></svg>