<svg id="_370_bus_driver_outline" data-name="#370_bus_driver_outline" xmlns="http://www.w3.org/2000/svg" viewBox="0 0 400 300"><path d="M205,218.86h16.34a0,0,0,0,1,0,0v10.86a5.48,5.48,0,0,1-5.48,5.48h-5.37a5.48,5.48,0,0,1-5.48-5.48V218.86A0,0,0,0,1,205,218.86Z" fill="#093f68"/><path d="M215.84,236.2h-5.38a6.49,6.49,0,0,1-6.48-6.48V218.86a1,1,0,0,1,1-1h16.34a1,1,0,0,1,1,1v10.86A6.49,6.49,0,0,1,215.84,236.2ZM206,219.86v9.86a4.49,4.49,0,0,0,4.48,4.48h5.38a4.49,4.49,0,0,0,4.48-4.48v-9.86Z" fill="#093f68"/><path d="M274.88,218.86h16.34a0,0,0,0,1,0,0v10.86a5.48,5.48,0,0,1-5.48,5.48h-5.37a5.48,5.48,0,0,1-5.48-5.48V218.86A0,0,0,0,1,274.88,218.86Z" fill="#093f68"/><path d="M285.74,236.2h-5.38a6.49,6.49,0,0,1-6.48-6.48V218.86a1,1,0,0,1,1-1h16.34a1,1,0,0,1,1,1v10.86A6.49,6.49,0,0,1,285.74,236.2Zm-9.86-16.34v9.86a4.49,4.49,0,0,0,4.48,4.48h5.38a4.49,4.49,0,0,0,4.48-4.48v-9.86Z" fill="#093f68"/><rect x="195.19" y="122.11" width="105.82" height="97.85" rx="11.29" fill="#f56132"/><path d="M289.73,221H206.48a12.3,12.3,0,0,1-12.29-12.29V133.4a12.3,12.3,0,0,1,12.29-12.28h83.25A12.3,12.3,0,0,1,302,133.4v75.28A12.3,12.3,0,0,1,289.73,221Zm-83.25-97.85a10.3,10.3,0,0,0-10.29,10.28v75.28A10.31,10.31,0,0,0,206.48,219h83.25A10.3,10.3,0,0,0,300,208.68V133.4a10.29,10.29,0,0,0-10.28-10.28Z" fill="#093f68"/><rect x="195.19" y="136.3" width="105.82" height="41.77" fill="#fff"/><path d="M301,179.08H195.19a1,1,0,0,1-1-1V136.3a1,1,0,0,1,1-1H301a1,1,0,0,1,1,1v41.78A1,1,0,0,1,301,179.08Zm-104.82-2H300V137.3H196.19Z" fill="#093f68"/><path d="M248.1,179.08a1,1,0,0,1-1-1V136.3a1,1,0,0,1,2,0v41.78A1,1,0,0,1,248.1,179.08Z" fill="#093f68"/><rect x="203.27" y="191.34" width="18.18" height="15.97" rx="4.65" fill="#ffbc0e"/><path d="M216.8,208.31h-8.88a5.65,5.65,0,0,1-5.65-5.64V196a5.66,5.66,0,0,1,5.65-5.65h8.88a5.66,5.66,0,0,1,5.65,5.65v6.68A5.65,5.65,0,0,1,216.8,208.31Zm-8.88-16a3.66,3.66,0,0,0-3.65,3.65v6.68a3.65,3.65,0,0,0,3.65,3.64h8.88a3.64,3.64,0,0,0,3.65-3.64V196a3.65,3.65,0,0,0-3.65-3.65Z" fill="#093f68"/><rect x="274.75" y="191.34" width="18.18" height="15.97" rx="4.65" fill="#ffbc0e"/><path d="M288.29,208.31H279.4a5.65,5.65,0,0,1-5.65-5.64V196a5.66,5.66,0,0,1,5.65-5.65h8.89a5.65,5.65,0,0,1,5.64,5.65v6.68A5.65,5.65,0,0,1,288.29,208.31Zm-8.89-16a3.66,3.66,0,0,0-3.65,3.65v6.68a3.65,3.65,0,0,0,3.65,3.64h8.89a3.64,3.64,0,0,0,3.64-3.64V196a3.65,3.65,0,0,0-3.64-3.65Z" fill="#093f68"/><rect x="186.35" y="162.47" width="8.84" height="20.27" rx="2.74" fill="#f56132"/><path d="M192.45,183.74h-3.36a3.73,3.73,0,0,1-3.74-3.74V165.21a3.74,3.74,0,0,1,3.74-3.74h3.36a3.75,3.75,0,0,1,3.74,3.74V180A3.74,3.74,0,0,1,192.45,183.74Zm-3.36-20.27a1.74,1.74,0,0,0-1.74,1.74V180a1.74,1.74,0,0,0,1.74,1.74h3.36a1.74,1.74,0,0,0,1.74-1.74V165.21a1.74,1.74,0,0,0-1.74-1.74Z" fill="#093f68"/><rect x="301.01" y="162.47" width="8.84" height="20.27" rx="2.74" fill="#f56132"/><path d="M307.12,183.74h-3.37A3.74,3.74,0,0,1,300,180V165.21a3.75,3.75,0,0,1,3.74-3.74h3.37a3.75,3.75,0,0,1,3.74,3.74V180A3.74,3.74,0,0,1,307.12,183.74Zm-3.37-20.27a1.74,1.74,0,0,0-1.74,1.74V180a1.74,1.74,0,0,0,1.74,1.74h3.37a1.74,1.74,0,0,0,1.74-1.74V165.21a1.74,1.74,0,0,0-1.74-1.74Z" fill="#093f68"/><path d="M266.54,129.77H229.66a1,1,0,0,1,0-2h36.88a1,1,0,0,1,0,2Z" fill="#093f68"/><path d="M204.38,166.69a1,1,0,0,1-.78-.37,1,1,0,0,1,.15-1.41L227.4,146a1,1,0,1,1,1.25,1.56L205,166.47A1,1,0,0,1,204.38,166.69Z" fill="#dfeaef"/><rect x="229.66" y="192.88" width="39.6" height="9.37" rx="2.71" fill="#f56132"/><path d="M266.55,203.25H232.37a3.71,3.71,0,0,1-3.71-3.7v-4a3.71,3.71,0,0,1,3.71-3.71h34.18a3.71,3.71,0,0,1,3.7,3.71v4A3.7,3.7,0,0,1,266.55,203.25Zm-34.18-9.37a1.72,1.72,0,0,0-1.71,1.71v4a1.71,1.71,0,0,0,1.71,1.7h34.18a1.7,1.7,0,0,0,1.7-1.7v-4a1.71,1.71,0,0,0-1.7-1.71Z" fill="#093f68"/><path d="M227,169.17a1,1,0,0,1-.78-.37,1,1,0,0,1,.15-1.41L240.52,156a1,1,0,0,1,1.26,1.56L227.6,169A1,1,0,0,1,227,169.17Z" fill="#dfeaef"/><path d="M254.45,162.9a1,1,0,0,1-.78-.38,1,1,0,0,1,.16-1.4l23.64-18.94a1,1,0,1,1,1.25,1.56l-23.64,18.94A1,1,0,0,1,254.45,162.9Z" fill="#dfeaef"/><path d="M277,165.38a1,1,0,0,1-.62-1.78l14.17-11.41a1,1,0,0,1,1.41.16,1,1,0,0,1-.15,1.4l-14.18,11.41A1,1,0,0,1,277,165.38Z" fill="#dfeaef"/><path d="M206.63,208.61v32.72H111V208.61a39.28,39.28,0,0,1,27.05-37.31c.92-.31,1.87-.58,2.82-.81a39.41,39.41,0,0,1,9.4-1.14h17.08a39,39,0,0,1,9.36,1.14l.18,0c1,.24,1.92.51,2.86.83A39.26,39.26,0,0,1,206.63,208.61Z" fill="#68e1fd"/><path d="M206.63,242.33H111a1,1,0,0,1-1-1V208.61a40.17,40.17,0,0,1,27.74-38.26c.83-.28,1.75-.55,2.89-.83a40.5,40.5,0,0,1,9.64-1.17h17.08a40.62,40.62,0,0,1,9.6,1.16l.23.06c1,.26,2,.53,2.89.84a40.2,40.2,0,0,1,27.55,38.2v32.72A1,1,0,0,1,206.63,242.33Zm-94.62-2h93.62V208.61a38.22,38.22,0,0,0-26.19-36.31c-.86-.29-1.77-.55-2.78-.8l-.13,0a38.87,38.87,0,0,0-9.17-1.11H150.28a38.53,38.53,0,0,0-9.16,1.11c-1.08.27-2,.52-2.74.79A38.17,38.17,0,0,0,112,208.61Z" fill="#093f68"/><rect x="155.08" y="182.84" width="9.7" height="7.64" rx="2.82" fill="#f56132"/><path d="M162,191.47H157.9a3.82,3.82,0,0,1-3.82-3.81v-2a3.83,3.83,0,0,1,3.82-3.82H162a3.82,3.82,0,0,1,3.82,3.82v2A3.82,3.82,0,0,1,162,191.47Zm-4.07-7.63a1.82,1.82,0,0,0-1.82,1.82v2a1.82,1.82,0,0,0,1.82,1.81H162a1.82,1.82,0,0,0,1.82-1.81v-2a1.82,1.82,0,0,0-1.82-1.82Z" fill="#093f68"/><polygon points="157.15 190.47 151.03 225.18 158.83 236.86 166.61 224.6 162.72 190.47 157.15 190.47" fill="#f56132"/><path d="M158.83,237.86a1,1,0,0,1-.83-.45l-7.8-11.67a1,1,0,0,1-.15-.73l6.12-34.71a1,1,0,0,1,1-.83h5.57a1,1,0,0,1,1,.89l3.89,34.13a.93.93,0,0,1-.15.65l-7.78,12.25a1,1,0,0,1-.83.47ZM152.08,225,158.81,235l6.77-10.66-3.75-32.9H158Z" fill="#093f68"/><path d="M176.72,170.49,158.8,182.84l-17.92-12.35a39.41,39.41,0,0,1,9.4-1.14h17.08A39,39,0,0,1,176.72,170.49Z" fill="#ffc9b0"/><path d="M158.8,183.84a1,1,0,0,1-.57-.18l-17.91-12.35a1,1,0,0,1,.33-1.8,40.87,40.87,0,0,1,9.63-1.16h17.08a40.62,40.62,0,0,1,9.6,1.16,1,1,0,0,1,.75.8,1,1,0,0,1-.42,1l-17.92,12.35A1,1,0,0,1,158.8,183.84ZM143.36,171l15.44,10.64L174.25,171a37.74,37.74,0,0,0-6.89-.63H150.28A38.06,38.06,0,0,0,143.36,171Z" fill="#093f68"/><polygon points="158.8 182.84 144.66 189.84 140.88 170.49 158.8 182.84" fill="#68e1fd"/><path d="M144.66,190.84a1,1,0,0,1-.44-.11,1,1,0,0,1-.54-.7l-3.78-19.35a1,1,0,0,1,1.55-1L159.37,182a1,1,0,0,1,.43.9,1,1,0,0,1-.56.82l-14.13,7A1,1,0,0,1,144.66,190.84Zm-2.32-18.14,3,15.66,11.44-5.66Z" fill="#093f68"/><polygon points="173.14 189.84 159 182.84 176.9 170.53 173.14 189.84" fill="#68e1fd"/><path d="M173.14,190.84a1,1,0,0,1-.44-.11l-14.14-7a1,1,0,0,1-.55-.82,1,1,0,0,1,.43-.9l17.89-12.3a1,1,0,0,1,1.12,0,1,1,0,0,1,.43,1L174.12,190a1,1,0,0,1-1,.81ZM161,182.7l11.44,5.66,3-15.62Z" fill="#093f68"/><path d="M156,91.31c11.4-.37,22.81-.59,34.21,0,4.46.25,8.51,2,9.1,8.51.41,4.42,0,9.27,0,13.73v23.54H130.18c-4.65,0-11.43,2.23-13.74-3.43a16.12,16.12,0,0,1-.76-6.42c.13-7.45-.35-15.24.65-22.62.73-5.41,2.9-9.28,8.53-10.63,7.85-1.89,15.86-2.18,23.83-2.46Z" fill="#725858"/><path d="M123.38,138.56c-3.21,0-6.35-.78-7.87-4.48a17,17,0,0,1-.83-6.81c0-2.16,0-4.39,0-6.55a116.61,116.61,0,0,1,.65-16.19c.56-4.1,2.12-9.76,9.29-11.48,8-1.91,16.13-2.2,24-2.48l.84,0,6.5-.23h0c11-.36,22.76-.6,34.31,0,6.21.35,9.5,3.43,10,9.42a80.5,80.5,0,0,1,.09,9.33c0,1.52-.09,3-.09,4.49v23.54a1,1,0,0,1-1,1H130.18c-.94,0-2,.1-3.11.2S124.63,138.56,123.38,138.56Zm32.69-46.25-6.5.23-.84,0c-7.8.28-15.87.56-23.64,2.43-4.67,1.12-7,4-7.77,9.8a115.1,115.1,0,0,0-.63,15.9c0,2.18,0,4.42,0,6.6a15.3,15.3,0,0,0,.68,6c1.44,3.51,4.7,3.47,9.52,3,1.16-.11,2.26-.21,3.3-.21h68.17V113.59c0-1.48.05-3,.09-4.55a78.48,78.48,0,0,0-.08-9.09c-.45-5-3-7.31-8.16-7.6-11.47-.64-23.19-.4-34.13,0Zm0-1h0Z" fill="#093f68"/><path d="M151.82,172.8v-7.11h12.35v7.11" fill="#ffc9b0"/><path d="M164.17,173.8a1,1,0,0,1-1-1v-6.11H152.82v6.11a1,1,0,0,1-2,0v-7.11a1,1,0,0,1,1-1h12.35a1,1,0,0,1,1,1v7.11A1,1,0,0,1,164.17,173.8Z" fill="#093f68"/><ellipse cx="123.01" cy="130.71" rx="12" ry="10.34" fill="#ffc9b0"/><path d="M123,142.05c-7.16,0-13-5.09-13-11.34s5.83-11.34,13-11.34,13,5.09,13,11.34S130.18,142.05,123,142.05Zm0-20.68c-6.06,0-11,4.19-11,9.34s4.93,9.34,11,9.34,11-4.19,11-9.34S129.08,121.37,123,121.37Z" fill="#093f68"/><ellipse cx="192.95" cy="130.71" rx="12" ry="10.34" fill="#ffc9b0"/><path d="M193,142.05c-7.16,0-13-5.09-13-11.34s5.83-11.34,13-11.34,13,5.09,13,11.34S200.12,142.05,193,142.05Zm0-20.68c-6.06,0-11,4.19-11,9.34s4.93,9.34,11,9.34,11-4.19,11-9.34S199,121.37,193,121.37Z" fill="#093f68"/><path d="M158,167.31h0a36.18,36.18,0,0,1-36.18-36.18V111.66s9.11-5.2,11.82-13.39c0,0,17.14,8.94,30.54,7.87a93.14,93.14,0,0,1,30,2.23v22.76A36.18,36.18,0,0,1,158,167.31Z" fill="#ffc9b0"/><path d="M158,168.31a37.22,37.22,0,0,1-37.18-37.18V111.66a1,1,0,0,1,.51-.87c.08-.05,8.81-5.12,11.36-12.84a1,1,0,0,1,.57-.61,1,1,0,0,1,.84,0c.17.09,17,8.81,30,7.77,17.34-1.39,29.84,2.11,30.36,2.26a1,1,0,0,1,.72,1v22.76A37.22,37.22,0,0,1,158,168.31ZM122.8,112.22v18.91a35.18,35.18,0,0,0,70.36,0v-22a95.07,95.07,0,0,0-28.92-2c-11.8.93-26.14-5.56-30.07-7.48C131.4,106.49,124.71,111,122.8,112.22Z" fill="#093f68"/><path d="M151.15,146.24a31.62,31.62,0,0,1-3.24,3,14.25,14.25,0,0,1-4.06,1.83c1.32,2.67,5,3.4,7.64,3.33a11.62,11.62,0,0,0,9.08-4.21c-1,1.25,3.73,3.33,4.48,3.58a9.61,9.61,0,0,0,5.46.61,13.48,13.48,0,0,0,5.39-3,1.74,1.74,0,0,0,.63-.91,8.48,8.48,0,0,1-5.24-.48c-2.79-1.38-3.67-5.13-6.47-6.35a13.66,13.66,0,0,0-5.74-1.14C155.78,142.59,153.42,144,151.15,146.24Z" fill="#725858"/><path d="M169,155.56a13.8,13.8,0,0,1-4.27-.85,15.21,15.21,0,0,1-4.55-2.63,12.92,12.92,0,0,1-8.67,3.31c-1.53,0-6.71-.13-8.56-3.89a1.06,1.06,0,0,1,0-.82,1,1,0,0,1,.59-.56l.81-.29a10,10,0,0,0,3-1.4A25.36,25.36,0,0,0,150,146l.45-.45c2.72-2.7,5.38-3.94,8.61-4a14.88,14.88,0,0,1,6.16,1.23,9.45,9.45,0,0,1,3.69,3.51,8.57,8.57,0,0,0,2.82,2.86,7.36,7.36,0,0,0,4.63.39,1,1,0,0,1,1.15,1.18,2.68,2.68,0,0,1-.94,1.46,14.4,14.4,0,0,1-5.79,3.19A6.31,6.31,0,0,1,169,155.56Zm-7.51-5a12.24,12.24,0,0,0,3.88,2.25,8.94,8.94,0,0,0,4.87.59,12.24,12.24,0,0,0,3.71-1.74,7.74,7.74,0,0,1-3.1-.76,10.2,10.2,0,0,1-3.55-3.48,8,8,0,0,0-2.88-2.86,12.9,12.9,0,0,0-5.32-1.06c-2.71.07-4.88,1.09-7.24,3.44h0l-.45.45a28.17,28.17,0,0,1-2.9,2.63,11.1,11.1,0,0,1-3.08,1.54c1.39,1.4,3.91,1.89,6,1.82a10.58,10.58,0,0,0,8.31-3.82h0a1,1,0,0,1,1.71,1Zm-10.34-4.33h0Z" fill="#093f68"/><path d="M159.24,143.42a23.69,23.69,0,0,1-3.78-.32,1,1,0,1,1,.35-2,18,18,0,0,0,6.08,0c.43-.74-1.12-5.31-3.33-9.54a1,1,0,0,1,1.77-.93c1.06,2,4.43,8.85,3.31,11.33a1.86,1.86,0,0,1-1.27,1.08A13.52,13.52,0,0,1,159.24,143.42Z" fill="#093f68"/><circle cx="175.03" cy="131.95" r="3.66" fill="#093f68"/><circle cx="140.59" cy="130.5" r="3.66" fill="#093f68"/><path d="M146.63,124.12H129.09a2,2,0,0,1,0-4h17.54a2,2,0,0,1,0,4Z" fill="#093f68"/><path d="M185.7,124.12H168.17a2,2,0,1,1,0-4H185.7a2,2,0,0,1,0,4Z" fill="#093f68"/><path d="M185.88,206.34H169.8a1,1,0,0,1,0-2h16.08a1,1,0,0,1,0,2Z" fill="#093f68"/><path d="M190.37,242.33a1,1,0,0,1-1-1V198.14a1,1,0,0,1,2,0v43.19A1,1,0,0,1,190.37,242.33Z" fill="#093f68"/><path d="M127.28,242.33a1,1,0,0,1-1-1V198.14a1,1,0,0,1,2,0v43.19A1,1,0,0,1,127.28,242.33Z" fill="#093f68"/><path d="M139.6,221.32a.94.94,0,0,1-.37-.07l-7.59-3a1,1,0,0,1-.63-.93V201.89a1,1,0,0,1,1-1h15.18a1,1,0,0,1,1,1v15.42a1,1,0,0,1-.63.93l-7.59,3A1,1,0,0,1,139.6,221.32ZM133,216.63l6.59,2.62,6.59-2.62V202.89H133Zm14.18.68h0Z" fill="#093f68"/><path d="M147.19,208.41H132a1,1,0,0,1-1-1v-5.52a1,1,0,0,1,1-1h15.18a1,1,0,0,1,1,1v5.52A1,1,0,0,1,147.19,208.41Zm-14.18-2h13.18v-3.52H133Z" fill="#093f68"/><path d="M117.64,64.61l39-5.84a8.52,8.52,0,0,1,2.57,0l39,5.84a8.79,8.79,0,0,1,5.55,14.2L196.27,88H119.48l-7.39-9.22A8.79,8.79,0,0,1,117.64,64.61Z" fill="#68e1fd"/><path d="M196.27,89H119.48a1,1,0,0,1-.78-.37l-7.39-9.22a9.8,9.8,0,0,1,6.18-15.82l39-5.84a9.21,9.21,0,0,1,2.87,0l38.95,5.84a9.8,9.8,0,0,1,6.18,15.82l-7.39,9.22A1,1,0,0,1,196.27,89ZM120,87h75.83l7.09-8.84A7.8,7.8,0,0,0,198,65.6l-39-5.84a7.2,7.2,0,0,0-2.27,0L117.79,65.6a7.8,7.8,0,0,0-4.92,12.59Zm-2.32-22.42h0Z" fill="#093f68"/><rect x="119.3" y="88.03" width="77.14" height="10.86" fill="#093f68"/><path d="M196.45,99.89H119.3a1,1,0,0,1-1-1V88a1,1,0,0,1,1-1h77.15a1,1,0,0,1,1,1V98.89A1,1,0,0,1,196.45,99.89Zm-76.15-2h75.15V89H120.3Z" fill="#093f68"/><path d="M119.3,98.89h77.14a0,0,0,0,1,0,0v0A17.06,17.06,0,0,1,179.38,116h-43A17.06,17.06,0,0,1,119.3,98.89v0a0,0,0,0,1,0,0Z" fill="#68e1fd"/><path d="M179.38,117h-43A18.1,18.1,0,0,1,118.3,98.89a1,1,0,0,1,1-1h77.15a1,1,0,0,1,1,1A18.1,18.1,0,0,1,179.38,117Zm-59-17.07a16.09,16.09,0,0,0,16,15.07h43a16.08,16.08,0,0,0,16-15.07Z" fill="#093f68"/><path d="M158.83,242.33a1,1,0,0,1-1-1v-4.47a1,1,0,0,1,2,0v4.47A1,1,0,0,1,158.83,242.33Z" fill="#093f68"/></svg>