<svg xmlns="http://www.w3.org/2000/svg" viewBox="0 0 400 300"><g id="_49_camping_outline" data-name="#49_camping_outline"><rect x="109.7" y="166.95" width="6.85" height="36.8" fill="#725858"/><path d="M116.56,204.75H109.7a1,1,0,0,1-1-1V167a1,1,0,0,1,1-1h6.86a1,1,0,0,1,1,1v36.8A1,1,0,0,1,116.56,204.75Zm-5.86-2h4.86V168H110.7Z" fill="#093f68"/><polygon points="137.49 178.64 125.19 153.3 136.26 153.3 122.51 124.99 132.14 124.99 113.13 85.84 94.12 124.99 103.75 124.99 90 153.3 101.08 153.3 88.77 178.64 137.49 178.64" fill="#70cc40"/><path d="M137.49,179.64H88.77a1,1,0,0,1-.9-1.44l11.61-23.9H90a1,1,0,0,1-.89-1.44l13-26.87h-8a1,1,0,0,1-.9-1.44l19-39.15a1,1,0,0,1,1.8,0l19,39.15a1,1,0,0,1,0,1,1,1,0,0,1-.85.47h-8l13,26.87a1,1,0,0,1,0,1,1,1,0,0,1-.85.47h-9.47l11.6,23.9a1,1,0,0,1,0,1A1,1,0,0,1,137.49,179.64Zm-47.12-2h45.52l-11.6-23.91a1,1,0,0,1,.9-1.43h9.47l-13-26.88a1,1,0,0,1,.06-1,1,1,0,0,1,.84-.47h8L113.13,88.13,95.72,124h8a1,1,0,0,1,.9,1.43L91.6,152.3h9.48a1,1,0,0,1,.84.47,1,1,0,0,1,0,1Z" fill="#093f68"/><rect x="158.42" y="152.3" width="6.85" height="36.8" fill="#725858"/><path d="M165.28,190.1h-6.86a1,1,0,0,1-1-1V152.3a1,1,0,0,1,1-1h6.86a1,1,0,0,1,1,1v36.8A1,1,0,0,1,165.28,190.1Zm-5.86-2h4.86V153.3h-4.86Z" fill="#093f68"/><polygon points="186.21 163.99 173.91 138.65 184.98 138.65 171.23 110.34 180.86 110.34 161.85 71.19 142.84 110.34 152.47 110.34 138.72 138.65 149.79 138.65 137.49 163.99 186.21 163.99" fill="#70cc40"/><path d="M186.21,165H137.49a1,1,0,0,1-.85-.47,1,1,0,0,1,0-1l11.61-23.9h-9.48a1,1,0,0,1-.9-1.44l13.05-26.87h-8a1,1,0,0,1-.85-.47,1,1,0,0,1-.05-1l19-39.15a1,1,0,0,1,1.8,0l19,39.15a1,1,0,0,1,0,1,1,1,0,0,1-.85.47h-8l13,26.87a1,1,0,0,1,0,1,1,1,0,0,1-.85.47H175.5l11.61,23.9a1,1,0,0,1-.05,1A1,1,0,0,1,186.21,165Zm-47.12-2h45.52L173,139.09a1,1,0,0,1,.05-1,1,1,0,0,1,.85-.47h9.47l-13-26.87a1,1,0,0,1,0-1,1,1,0,0,1,.85-.47h8L161.85,73.48l-17.41,35.86h8a1,1,0,0,1,.85.47,1,1,0,0,1,.05,1l-13.05,26.87h9.47a1,1,0,0,1,.85.47,1,1,0,0,1,.05,1Z" fill="#093f68"/><path d="M307.22,206.2a.91.91,0,0,1-.35-.07,1,1,0,0,1-.58-1.29l4-10.67a1,1,0,1,1,1.87.7l-4,10.68A1,1,0,0,1,307.22,206.2Z" fill="#093f68"/><polygon points="205.3 99.85 124.67 177.78 124.67 203.75 285.94 203.75 285.94 177.78 205.3 99.85" fill="#68e1fd"/><path d="M285.94,204.75H124.67a1,1,0,0,1-1-1v-26a1,1,0,0,1,.3-.72l80.64-77.93a1,1,0,0,1,1.39,0l80.63,77.93a1,1,0,0,1,.31.72v26A1,1,0,0,1,285.94,204.75Zm-160.27-2H284.94V178.2l-79.64-77-79.63,77Z" fill="#093f68"/><path d="M101.6,201.43a1,1,0,0,1-.72-.3,1,1,0,0,1,0-1.41L124,177.06a1,1,0,0,1,1.4,1.43L102.3,201.15A1,1,0,0,1,101.6,201.43Z" fill="#093f68"/><path d="M103.38,206.2a1,1,0,0,1-.93-.65l-4-10.68a1,1,0,0,1,1.88-.7l4,10.67a1,1,0,0,1-.59,1.29A.84.84,0,0,1,103.38,206.2Z" fill="#093f68"/><path d="M309,201.43a1,1,0,0,1-.7-.28l-23.07-22.66a1,1,0,0,1,0-1.41,1,1,0,0,1,1.42,0l23.07,22.66a1,1,0,0,1,0,1.41A1,1,0,0,1,309,201.43Z" fill="#093f68"/><path d="M205.3,204.75a1,1,0,0,1-1-1V92.48a1,1,0,0,1,2,0V203.75A1,1,0,0,1,205.3,204.75Z" fill="#093f68"/><path d="M205.3,124.56c-13.35,44.74-54.84,79.19-54.84,79.19H260.14S218.65,169.3,205.3,124.56Z" fill="#093f68"/><path d="M260.14,204.75H150.46a1,1,0,0,1-.63-1.77c.41-.34,41.41-34.78,54.51-78.7a1,1,0,0,1,1.92,0c13.11,43.92,54.11,78.36,54.52,78.7a1,1,0,0,1-.64,1.77Zm-107-2H257.48c-8.3-7.43-39.83-37.44-52.18-74.85C193,165.31,161.43,195.32,153.13,202.75Z" fill="#093f68"/><rect x="225.52" y="209.62" width="27.63" height="14.41" transform="translate(-56.63 87.6) rotate(-18.59)" fill="#ad7972"/><path d="M228.54,229.05a1,1,0,0,1-.45-.1,1,1,0,0,1-.5-.58L223,214.71a1,1,0,0,1,.63-1.26l26.18-8.81a1.08,1.08,0,0,1,.77.05,1,1,0,0,1,.5.58l4.59,13.66a1,1,0,0,1-.63,1.27L228.86,229A.89.89,0,0,1,228.54,229.05Zm-3.33-14,4,11.76,24.29-8.17-4-11.76Z" fill="#093f68"/><circle cx="225.11" cy="221.6" r="7.2" fill="#ad7972"/><path d="M225.12,229.81a8.22,8.22,0,0,1-7.78-5.59,8.21,8.21,0,0,1,5.16-10.39A8.21,8.21,0,0,1,232.89,219h0a8.21,8.21,0,0,1-7.77,10.82Zm0-14.41a6.2,6.2,0,1,0,2,12.08,6.2,6.2,0,0,0-2-12.08Z" fill="#093f68"/><rect x="256.13" y="209.62" width="27.63" height="14.41" transform="translate(456.7 508.38) rotate(-161.41)" fill="#ad7972"/><path d="M280.75,229.05a.86.86,0,0,1-.32-.05l-26.19-8.8a1,1,0,0,1-.63-1.27l4.59-13.66a1,1,0,0,1,1.27-.63l26.19,8.81a1,1,0,0,1,.63,1.26l-4.6,13.66a1,1,0,0,1-.5.58A1,1,0,0,1,280.75,229.05Zm-24.92-10.43,24.29,8.17L284.07,215l-24.29-8.17Z" fill="#093f68"/><circle cx="284.17" cy="221.6" r="7.2" fill="#ad7972"/><path d="M284.16,229.81A8.21,8.21,0,0,1,276.39,219,8.21,8.21,0,0,1,292,224.22,8.24,8.24,0,0,1,284.16,229.81Zm0-14.41a6.21,6.21,0,0,0-5.87,4.23h0a6.21,6.21,0,1,0,7.86-3.91A6.47,6.47,0,0,0,284.16,215.4Zm-6.82,3.91h0Z" fill="#093f68"/><path d="M270.62,215.44a20.31,20.31,0,0,1-15.08,6.15c-6.68-.24-13.38-6.13-16-12A21.11,21.11,0,0,1,242,188.46a4.22,4.22,0,0,0,7.75,1.22,2.82,2.82,0,0,0,.42-1.37,5.33,5.33,0,0,0-.77-2.13,10.12,10.12,0,0,1,.53-9,16.46,16.46,0,0,1,6.66-6.31c-.85,3-1.58,6.5.07,9.19,1,1.62,2.68,2.66,4.21,3.79a22.05,22.05,0,0,1,7.85,10.18,14.94,14.94,0,0,1-1.06,12.58,20.26,20.26,0,0,0,5.72-11.51,11.87,11.87,0,0,1,2.93,10.58A18.66,18.66,0,0,1,270.62,215.44Z" fill="#f56132"/><path d="M256.26,222.6h-.75c-7.41-.26-14.24-6.67-16.91-12.56a22.26,22.26,0,0,1,2.56-22.18,1,1,0,0,1,1.77.39,3.22,3.22,0,0,0,5.92.93,1.8,1.8,0,0,0,.28-.85,3.48,3.48,0,0,0-.47-1.31c-.07-.13-.13-.27-.2-.41a11.1,11.1,0,0,1,.55-9.85,17.42,17.42,0,0,1,7.06-6.72,1,1,0,0,1,1.44,1.15c-.84,3-1.43,6.11,0,8.4a11.29,11.29,0,0,0,3.18,2.94l.78.57a22.91,22.91,0,0,1,8.2,10.65,17.11,17.11,0,0,1,.88,7.22,19.14,19.14,0,0,0,1.84-6,1,1,0,0,1,.67-.81,1,1,0,0,1,1,.23,12.85,12.85,0,0,1,3.21,11.47,20,20,0,0,1-5.94,10.26C266.88,220.43,261.82,222.6,256.26,222.6Zm-14.49-32.13a20.25,20.25,0,0,0-1.35,18.73c2.46,5.42,8.8,11.16,15.16,11.39,5.25.18,10.11-1.79,14.35-5.87h0a17.85,17.85,0,0,0,5.36-9.19,11.36,11.36,0,0,0-1.37-8.07,21.22,21.22,0,0,1-5.59,9.9,1,1,0,0,1-1.33.07,1,1,0,0,1-.23-1.31,13.88,13.88,0,0,0,1-11.72,21.08,21.08,0,0,0-7.51-9.7c-.24-.19-.5-.37-.75-.56a12.68,12.68,0,0,1-3.71-3.52c-1.38-2.25-1.32-4.88-.79-7.54a14.06,14.06,0,0,0-4.21,4.62,9.1,9.1,0,0,0-.5,8.05l.18.37a4.87,4.87,0,0,1,.68,2.19,3.78,3.78,0,0,1-.55,1.87,5.2,5.2,0,0,1-8.81.29Z" fill="#093f68"/><path d="M293.32,107.83a17,17,0,1,1-16.65-20.26,16.37,16.37,0,0,1,2.83.24,12.5,12.5,0,1,0,13.82,20Z" fill="#ffbc0e"/><path d="M276.67,122.54a18,18,0,1,1,0-36,18.49,18.49,0,0,1,3,.25,1,1,0,0,1,.83.89,1,1,0,0,1-.63,1,11.5,11.5,0,1,0,12.71,18.42,1,1,0,0,1,1.72.86A18,18,0,0,1,276.67,122.54ZM276,88.59a16,16,0,1,0,15.36,22.2A13.5,13.5,0,0,1,276,88.59Z" fill="#093f68"/></g></svg>