<svg xmlns="http://www.w3.org/2000/svg" viewBox="0 0 400 300"><g id="_163_career_outline" data-name="#163_career_outline"><path d="M178.32,240.46H117.06a1,1,0,1,1,0-2h60.26V217.09a1,1,0,0,1,1-1H215.1V196a1,1,0,0,1,1-1h32.57V172.85a1,1,0,0,1,1-1h58a1,1,0,0,1,0,2h-57V196a1,1,0,0,1-1,1H217.1v20.08a1,1,0,0,1-1,1H179.32v21.37A1,1,0,0,1,178.32,240.46Z" fill="#093f68"/><path d="M203.75,130.63l3.68-4.24s-.46-3.3.18-4.25,2.73-2.2,3.16-2,.69,1.32.69,1.32,2.63-2.42,3.26-1.71,2.89,6.69,1.33,9.27-9.52,9-9.52,9Z" fill="#ffc9b0"/><path d="M206.53,139a.82.82,0,0,1-.26,0,1,1,0,0,1-.67-.61l-2.79-7.4a1,1,0,0,1,.18-1l3.39-3.9c-.15-1.27-.28-3.48.41-4.49.56-.84,3.14-3,4.41-2.34a1.81,1.81,0,0,1,.65.58,4.88,4.88,0,0,1,2.62-1.2,1.43,1.43,0,0,1,1,.46c.77.86,3.3,7.36,1.44,10.46-1.6,2.66-8.92,8.6-9.75,9.27A1,1,0,0,1,206.53,139Zm-1.64-8.2,2.09,5.54c2.62-2.18,7.18-6.14,8.22-7.86s-.37-6.44-1-7.8a10.51,10.51,0,0,0-2,1.49,1,1,0,0,1-1,.22,1,1,0,0,1-.69-.73,2.49,2.49,0,0,0-.14-.44,6.15,6.15,0,0,0-1.9,1.45,9.16,9.16,0,0,0,0,3.55,1,1,0,0,1-.24.79Z" fill="#093f68"/><rect x="93.39" y="179.26" width="36.06" height="24.79" rx="3.15" transform="matrix(0.99, 0.13, -0.13, 0.99, 26.76, -13.23)" fill="#f56132"/><path d="M124.93,207a3.6,3.6,0,0,1-.56,0l-29.49-4a4.14,4.14,0,0,1-3.55-4.67l2.48-18.31a4.15,4.15,0,0,1,4.67-3.56l29.49,4a4.15,4.15,0,0,1,3.55,4.67L129,203.36a4.14,4.14,0,0,1-1.6,2.75A4.09,4.09,0,0,1,124.93,207Zm-.29-2a2.15,2.15,0,0,0,2.42-1.85l2.48-18.31a2.11,2.11,0,0,0-.42-1.59,2.14,2.14,0,0,0-1.42-.83l-29.49-4a2.15,2.15,0,0,0-2.42,1.85l-2.48,18.31a2.11,2.11,0,0,0,.42,1.59,2.14,2.14,0,0,0,1.42.83Z" fill="#093f68"/><path d="M120.84,181.42h-.13l-14.12-1.91a1,1,0,0,1-.86-1.13l.43-3.11a4,4,0,0,1,4.48-3.41l8.2,1.11a4,4,0,0,1,3.41,4.48l-.42,3.12A1,1,0,0,1,120.84,181.42Zm-13-3.77L120,179.3l.29-2.12a1.94,1.94,0,0,0-.39-1.47,2,2,0,0,0-1.31-.77l-8.2-1.11a2,2,0,0,0-2.23,1.7Z" fill="#093f68"/><path d="M97.48,179.32h29.75a3.15,3.15,0,0,1,3.15,3.15V185a5.15,5.15,0,0,1-5.15,5.15H99.49A5.15,5.15,0,0,1,94.33,185v-2.51a3.15,3.15,0,0,1,3.15-3.15Z" transform="translate(25.84 -13.42) rotate(7.72)" fill="#f56132"/><path d="M125.1,192.87a5.93,5.93,0,0,1-.84-.06l-25.52-3.46a6.15,6.15,0,0,1-5.27-6.92l.34-2.49a4.15,4.15,0,0,1,4.67-3.56l29.49,4a4.15,4.15,0,0,1,3.55,4.67l-.33,2.49a6.18,6.18,0,0,1-6.09,5.33ZM97.92,178.34a2.16,2.16,0,0,0-2.13,1.87l-.34,2.48A4.16,4.16,0,0,0,99,187.37l25.52,3.46h0a4.15,4.15,0,0,0,4.67-3.56l.34-2.49a2.11,2.11,0,0,0-.42-1.59,2.14,2.14,0,0,0-1.42-.83l-29.49-4Z" fill="#093f68"/><path d="M111.36,193.12h-.13a1,1,0,0,1-.86-1.13l.55-4a1,1,0,1,1,2,.27l-.55,4.05A1,1,0,0,1,111.36,193.12Z" fill="#093f68"/><path d="M121.51,164.33s-1.24,4.13-1.09,5,2,5,.57,4.83a7.6,7.6,0,0,1-2.26-.67s-.25,5.19-2.59,5.34-7.08-2.24-7.13-4.24.91-6.59,2.64-7.1,3.77-7.35,3.77-7.35Z" fill="#ffc9b0"/><path d="M115.93,179.79a11.36,11.36,0,0,1-6.55-2.74,3.56,3.56,0,0,1-1.37-2.47c-.05-2,.87-7.35,3.36-8.09.67-.29,2.12-3.42,3.09-6.68a1,1,0,0,1,1.53-.54l6.09,4.23a1,1,0,0,1,.38,1.11,25.64,25.64,0,0,0-1,4.53c0,.1.16.53.28.89.75,2.22,1.19,3.74.46,4.61a1.4,1.4,0,0,1-1.3.47,10.13,10.13,0,0,1-1.26-.27c-.26,1.86-1.06,4.8-3.38,4.95Zm0-18.1c-.83,2.5-2.33,6.22-4,6.72-.86.25-2,3.85-1.93,6.12a2,2,0,0,0,.72,1,9.17,9.17,0,0,0,5.35,2.22c.93-.06,1.56-2.63,1.65-4.38a1,1,0,0,1,.5-.83,1,1,0,0,1,1,0,7.11,7.11,0,0,0,1.29.43c-.14-.72-.52-1.84-.68-2.34a8.53,8.53,0,0,1-.36-1.19,16.82,16.82,0,0,1,.9-4.73Z" fill="#093f68"/><path d="M203.41,206.77l-12.79,1.57c-1.51-17.1-4-24.21-6.41-27.05-2-2.26-25.57-9.43-25.57-9.43l6.24-15.48C171,158,190.51,167.72,196,174.06,201.18,180.09,202.53,199.34,203.41,206.77Z" fill="#093f68"/><path d="M190.62,209.34a1,1,0,0,1-.63-.23,1,1,0,0,1-.37-.69c-1.26-14.28-3.34-23.19-6.17-26.47-1.1-1.28-13.63-5.65-25.1-9.14a1,1,0,0,1-.61-.52,1,1,0,0,1,0-.81L164,156a1,1,0,0,1,1.19-.59c6.55,1.77,26.1,11.63,31.6,18,4.75,5.51,6.35,20.81,7.3,30,.13,1.25.25,2.36.36,3.29a1,1,0,0,1-.87,1.11l-12.79,1.56ZM160,171.22c5.62,1.73,23.09,7.22,25,9.42,3.09,3.58,5.24,12.28,6.56,26.58l10.78-1.32c-.08-.7-.16-1.48-.24-2.32-.88-8.33-2.5-23.83-6.84-28.86-5.13-5.95-23.17-15-29.75-17.12Z" fill="#093f68"/><path d="M190.62,208.34v8.75l21.47-4.24a.45.45,0,0,0,.09-.84l-9.77-6.47Z" fill="#68e1fd"/><path d="M190.62,218.09a1,1,0,0,1-.64-.23,1,1,0,0,1-.36-.77v-8.75a1,1,0,0,1,.77-1l11.79-2.79a1,1,0,0,1,.79.14l9.72,6.44a1.45,1.45,0,0,1,.74,1.43,1.44,1.44,0,0,1-1.12,1.24l-21.5,4.25Zm1-9v6.74l18.93-3.74-8.33-5.51Z" fill="#093f68"/><path d="M209.63,135.38s-11,20.05-19.38,17.88c-4.68-1.22-9.88-6.11-13.56-10.16l1.42,17.59-32.58,3-2.35-25.83c-6.43,3.52-15,11.92-20.57,28.26L112,162.48c8.13-24,21.33-33.66,31.71-37.21,0,0,28.26-4.18,33.39-1.39S188.14,140.7,191.16,140,204.57,128,204.57,128Z" fill="#68e1fd"/><path d="M122.61,167.08a1.13,1.13,0,0,1-.32-.05l-10.63-3.6a1,1,0,0,1-.63-1.27c8.48-25,22.26-34.39,32.33-37.83l.18,0c2.93-.43,28.74-4.14,34-1.28,2.75,1.49,5.45,5.57,8.07,9.51,1.63,2.46,4.37,6.57,5.3,6.49,2-.49,9-7.4,12.9-11.65a1,1,0,0,1,1.56.11l5.07,7.36a1,1,0,0,1,0,1.05,79.1,79.1,0,0,1-6.66,9.89c-5.31,6.63-10,9.48-13.85,8.47-4.13-1.08-8.58-4.81-12.08-8.37l1.19,14.75a1,1,0,0,1-.91,1.07l-32.58,3a1,1,0,0,1-1.09-.9l-2.2-24.26c-4.54,2.88-13.13,10.25-18.77,26.92a1,1,0,0,1-.51.58A1,1,0,0,1,122.61,167.08Zm-9.36-5.23,8.74,3c6.5-18.46,16.61-25.63,20.71-27.88a1,1,0,0,1,1,0,1,1,0,0,1,.52.8l2.26,24.83,30.6-2.78-1.33-16.6a1,1,0,0,1,1.73-.75c3.5,3.85,8.6,8.69,13.07,9.86,6,1.59,14.72-11.15,18-16.85l-4-5.82c-2.86,3-10.25,10.64-13,11.32-2.22.54-4.41-2.76-7.44-7.33-2.36-3.56-5-7.6-7.35-8.85-4-2.15-24.85.33-32.69,1.49C134.41,129.52,121.46,138.37,113.25,161.85Z" fill="#093f68"/><path d="M133.2,220.73s10.46-15.84,13.31-24.17.45-33,.45-33h15.19s4.34,19.8-1.38,34.4-17.58,27.73-17.58,27.73Z" fill="#093f68"/><path d="M143.19,226.72a1,1,0,0,1-.45-.11l-10-5a1,1,0,0,1-.52-.63,1,1,0,0,1,.13-.81c.11-.16,10.43-15.83,13.2-24s.43-32.3.41-32.54a1,1,0,0,1,.25-.77,1,1,0,0,1,.74-.33h15.19a1,1,0,0,1,1,.79c.18.82,4.35,20.26-1.42,35s-17.65,27.89-17.77,28A1,1,0,0,1,143.19,226.72Zm-8.54-6.38,8.29,4.14c2.3-2.67,12-14.28,16.9-26.85s2.2-29.25,1.48-33H148.06c.43,4.95,2,24.77-.61,32.29C145,204.16,137,216.77,134.65,220.34Z" fill="#093f68"/><path d="M133.2,220.73,128.09,229l17.56,10.45a.61.61,0,0,0,.74-.91l-3.2-12.78Z" fill="#68e1fd"/><path d="M145.9,240.46a1.72,1.72,0,0,1-.63-.12l-.13-.07-17.56-10.45a1,1,0,0,1-.34-1.39l5.11-8.23a1,1,0,0,1,1.29-.37l10,5a1,1,0,0,1,.53.65l3.17,12.65a1.61,1.61,0,0,1-1.43,2.34Zm-.33-1.39Zm-16.09-10.45L145.23,238l-2.9-11.6L133.57,222Z" fill="#093f68"/><polygon points="167.41 122.96 163.76 154.58 152.56 124.14 167.41 122.96" fill="#fff"/><path d="M163.76,155.58a1,1,0,0,1-.94-.66l-11.19-30.44a1,1,0,0,1,.86-1.34L167.33,122a1,1,0,0,1,.8.3,1,1,0,0,1,.28.81l-3.65,31.62a1,1,0,0,1-.88.88ZM154,125l9.29,25.26,3-26.24Z" fill="#093f68"/><path d="M157,119.43h6.82a0,0,0,0,1,0,0v3.92a2.89,2.89,0,0,1-2.89,2.89h-1a2.89,2.89,0,0,1-2.89-2.89v-3.92A0,0,0,0,1,157,119.43Z" transform="matrix(1, -0.09, 0.09, 1, -10.46, 15.02)" fill="#ffc9b0"/><path d="M159.91,127.29a3.87,3.87,0,0,1-2.49-.9,3.82,3.82,0,0,1-1.38-2.64l-.36-3.9a1,1,0,0,1,.91-1.09l6.79-.62a1,1,0,0,1,.73.23,1,1,0,0,1,.35.68l.36,3.91a3.91,3.91,0,0,1-3.53,4.23h0l-1,.09Zm1.29-1.1h0Zm-3.44-5.53.27,2.91a1.82,1.82,0,0,0,.67,1.28,1.89,1.89,0,0,0,1.39.44l1-.1a1.89,1.89,0,0,0,1.71-2l-.26-2.91Z" fill="#093f68"/><path d="M134.58,104c.7-.09-1.25-2.85-1.36-3-2-3.66-2.67-8.23-2.72-12.37s.78-9.77,5.46-11.15a4.44,4.44,0,0,1-3.86-.93,13.41,13.41,0,0,1-2.68-3.12,8.5,8.5,0,0,0,6.44-1.76c1.66-1.24,2.36-2.79,3.56-4.37a16,16,0,0,1,4.19-3.52c6.12-3.86,13.92-3.53,21.08-2.53,3.06.43,6.21,1,8.79,2.69s4.48,4.8,3.85,7.83c3.6.07,5.53.47,6.26,4.43,1.12,6.13-1.08,22.86-1.08,22.86l-4.28-.36Z" fill="#725858"/><path d="M134.58,105a1,1,0,0,1-1-.87,1,1,0,0,1,.06-.5,14.06,14.06,0,0,0-1.11-1.9,2.23,2.23,0,0,1-.19-.3c-1.83-3.3-2.78-7.62-2.85-12.83-.07-4.92,1.06-8.49,3.3-10.52a7.07,7.07,0,0,1-1.31-.78,14.11,14.11,0,0,1-2.89-3.35,1,1,0,0,1,0-1.11,1,1,0,0,1,1-.44,7.46,7.46,0,0,0,5.66-1.58A10.2,10.2,0,0,0,137.64,68c.31-.46.62-.93,1-1.4a16.9,16.9,0,0,1,4.46-3.77c6.53-4.11,14.66-3.66,21.75-2.67,3.13.44,6.42,1,9.2,2.84,2.4,1.57,4.54,4.48,4.42,7.71,3.11.16,5.34.94,6.12,5.21,1.14,6.21-1,22.48-1.07,23.17a1,1,0,0,1-1.07.86l-4.18-.34L134.71,105h-.13Zm-.12-2h0Zm1.79-24.62c-4,1.18-4.81,6.19-4.75,10.18.06,4.88.94,8.88,2.6,11.9l.11.16a15.25,15.25,0,0,1,1.3,2.25l42.6-5.22a.67.67,0,0,1,.2,0l3.33.27c.43-3.6,1.89-16.52,1-21.6-.59-3.23-1.85-3.55-5.29-3.61a1,1,0,0,1-.77-.38,1,1,0,0,1-.19-.83c.57-2.75-1.37-5.44-3.41-6.79-2.44-1.59-5.48-2.12-8.39-2.53-6.73-.94-14.42-1.39-20.41,2.39a15.3,15.3,0,0,0-3.93,3.27c-.33.44-.62.88-.91,1.31a12,12,0,0,1-2.84,3.26,10.3,10.3,0,0,1-5,2,8,8,0,0,0,1.27,1.26,3.43,3.43,0,0,0,3,.76h0a1,1,0,0,1,.57,1.92Z" fill="#093f68"/><ellipse cx="139.07" cy="103.58" rx="6.62" ry="5.71" transform="translate(-8.81 13.01) rotate(-5.19)" fill="#ffc9b0"/><path d="M138.88,110.3a8.1,8.1,0,0,1-4.69-1.46,6.17,6.17,0,0,1-.86-9.55,8.37,8.37,0,0,1,10.62-1,6.24,6.24,0,0,1,2.71,4.56c.34,3.68-2.8,7-7,7.37C139.41,110.28,139.15,110.3,138.88,110.3Zm.38-11.43c-.2,0-.41,0-.61,0a6.12,6.12,0,0,0-3.89,1.78,4.16,4.16,0,0,0,.6,6.53,6.12,6.12,0,0,0,4.14,1.06c3.08-.28,5.41-2.61,5.17-5.2a4.33,4.33,0,0,0-1.88-3.12A6,6,0,0,0,139.26,98.87Z" fill="#093f68"/><ellipse cx="177.52" cy="100.09" rx="6.62" ry="5.71" transform="translate(-8.33 16.48) rotate(-5.19)" fill="#ffc9b0"/><path d="M177.32,106.8a8,8,0,0,1-4.68-1.46,6.29,6.29,0,0,1-2.72-4.56c-.33-3.69,2.8-7,7-7.37a8.12,8.12,0,0,1,5.48,1.42,6.29,6.29,0,0,1,2.72,4.57h0c.33,3.68-2.8,7-7,7.37C177.86,106.79,177.59,106.8,177.32,106.8Zm.39-11.43c-.21,0-.41,0-.62,0-3.09.28-5.41,2.61-5.17,5.2a4.33,4.33,0,0,0,1.88,3.12,6.14,6.14,0,0,0,4.14,1c3.09-.28,5.41-2.61,5.17-5.19h0a4.31,4.31,0,0,0-1.88-3.12A6,6,0,0,0,177.71,95.37Z" fill="#093f68"/><path d="M160.15,120.34a20,20,0,0,1-21.69-18.08c-.28-3.05-1.92-12.82-1.13-14.44.93-1.89,2.94-3.17,4.74-4.12a10.77,10.77,0,0,1,5.66-1.58.74.74,0,0,1,.49.18c.18.21.07.53-.05.77a19.35,19.35,0,0,1-3.58,5.06,18.19,18.19,0,0,0,8.91-2.55,39.38,39.38,0,0,0,7.43-5.69,11,11,0,0,1-4.19,9.78,16.58,16.58,0,0,0,12.71-6.13A8.33,8.33,0,0,1,172,81c5.31-2.6,5.17,6.2,5.42,9l.79,8.72A20,20,0,0,1,160.15,120.34Z" fill="#ffc9b0"/><path d="M158.33,121.42a21,21,0,0,1-20.87-19.07c-.07-.78-.23-2-.42-3.45-.9-6.81-1.22-10.27-.6-11.52,1.1-2.24,3.48-3.68,5.17-4.56a11.6,11.6,0,0,1,6.2-1.69,1.63,1.63,0,0,1,1.17.52,1.61,1.61,0,0,1,.09,1.86A19.71,19.71,0,0,1,147,86.93,18.54,18.54,0,0,0,153,84.71a38.87,38.87,0,0,0,7.24-5.55,1,1,0,0,1,1-.21,1,1,0,0,1,.64.83,12,12,0,0,1-2.5,8.63,15.73,15.73,0,0,0,9.25-5.5l.36-.46a7.53,7.53,0,0,1,2.55-2.39,4,4,0,0,1,3.86-.14c2.47,1.45,2.74,5.89,2.92,8.83,0,.42,0,.79.08,1.08l.79,8.72a21,21,0,0,1-19,22.78h0C159.6,121.39,159,121.42,158.33,121.42Zm1.82-1.08h0ZM147,83.12a11.17,11.17,0,0,0-4.5,1.47c-1.44.75-3.46,2-4.3,3.67-.44,1,.39,7.34.79,10.38.19,1.46.36,2.71.43,3.53a19,19,0,0,0,20.61,17.17h0a19,19,0,0,0,17.18-20.61l-.8-8.72c0-.31-.05-.7-.07-1.14-.13-2.05-.39-6.31-1.94-7.22-.17-.1-.71-.41-2,.21a5.91,5.91,0,0,0-1.85,1.82l-.38.48a17.51,17.51,0,0,1-13.49,6.51,1,1,0,0,1-.61-1.79,10,10,0,0,0,3.8-6.74A35.69,35.69,0,0,1,154,86.45a18.9,18.9,0,0,1-9.41,2.68,1,1,0,0,1-.71-1.7A18.26,18.26,0,0,0,147,83.12Z" fill="#093f68"/><circle cx="150.72" cy="98.23" r="1.85" fill="#093f68"/><circle cx="167.87" cy="96.67" r="1.85" fill="#093f68"/><path d="M159.45,106.07c-.45,0-.78,0-.86,0a1,1,0,0,1,.17-2,9.15,9.15,0,0,0,2.23-.11,16.19,16.19,0,0,0-1.84-3.67,1,1,0,0,1,1.69-1.08c1.2,1.86,2.53,4.36,2.09,5.64a1.42,1.42,0,0,1-.87.89A8.66,8.66,0,0,1,159.45,106.07Z" fill="#093f68"/><path d="M154.52,93.65h-.05l-8.81-.19a2,2,0,1,1,.09-4l8.81.19a2,2,0,0,1,0,4Z" fill="#093f68"/><path d="M164.58,92.68a2,2,0,0,1-.21-4l8.76-1a2,2,0,1,1,.44,4l-8.77,1Z" fill="#093f68"/><path d="M147.48,104.17a3,3,0,0,1-3-2.71L144,96a1,1,0,0,1,.22-.73,1,1,0,0,1,.68-.35l12.78-1.17a1,1,0,0,1,1.09.91l.5,5.48a3,3,0,0,1-2.7,3.23l-8.85.81Zm-1.37-7.37.41,4.48a.93.93,0,0,0,.34.66.92.92,0,0,0,.71.22l8.85-.8h0a1,1,0,0,0,.88-1.06l-.4-4.48Z" fill="#093f68"/><path d="M163.35,102.73a2.92,2.92,0,0,1-1.89-.69,3,3,0,0,1-1.06-2l-.5-5.48a1,1,0,0,1,.91-1.09l12.77-1.16a1,1,0,0,1,1.09.91l.5,5.48a3,3,0,0,1-2.69,3.23h0l-8.85.8Zm9-1.82h0ZM162,95.35l.41,4.49a1,1,0,0,0,1.06.88l8.85-.8a1,1,0,0,0,.88-1.06l-.41-4.49Z" fill="#093f68"/><path d="M162.57,112.77A17.85,17.85,0,0,1,152,108.89a1,1,0,0,1,1.19-1.61c6.36,4.7,11.23,3.33,11.43,3.27a1,1,0,0,1,1.25.67,1,1,0,0,1-.66,1.24A9.47,9.47,0,0,1,162.57,112.77Z" fill="#093f68"/><path d="M136.55,99.78a1,1,0,0,1-.09-2l8.66-.78a1,1,0,1,1,.18,2l-8.66.79Z" fill="#093f68"/><path d="M173.9,96.38a1,1,0,0,1-.09-2L177,94.1a1,1,0,0,1,1.09.91,1,1,0,0,1-.91,1.08l-3.15.29Z" fill="#093f68"/><rect x="158.87" y="126.57" width="5.05" height="3.97" rx="1.47" transform="translate(-10.97 15.14) rotate(-5.19)" fill="#f56132"/><path d="M160.39,131.64a2.48,2.48,0,0,1-2.46-2.24l-.09-1a2.46,2.46,0,0,1,2.23-2.68l2.11-.19a2.46,2.46,0,0,1,2.68,2.23l.09,1a2.46,2.46,0,0,1-.56,1.8,2.42,2.42,0,0,1-1.67.88l-2.11.19Zm2-4.16h0l-2.11.19a.47.47,0,0,0-.42.51l.09,1a.48.48,0,0,0,.51.43l2.11-.2h0a.46.46,0,0,0,.42-.5l-.09-1A.48.48,0,0,0,162.4,127.48Z" fill="#093f68"/><polygon points="164.88 142.12 163.76 154.58 160.05 143.76 160.13 130.67 163.01 130.41 164.88 142.12" fill="#f56132"/><path d="M163.76,155.58a1,1,0,0,1-.94-.68l-3.71-10.81a1,1,0,0,1-.06-.33l.08-13.1a1,1,0,0,1,.91-1l2.88-.26a1,1,0,0,1,1.08.84L165.87,142a2.18,2.18,0,0,1,0,.25l-1.12,12.46a1,1,0,0,1-.88.9Zm-2.71-12,2.14,6.22.68-7.66-1.7-10.67-1,.09Z" fill="#093f68"/><line x1="142.86" y1="137.85" x2="142.34" y2="132.21" fill="#ad7972"/><path d="M142.85,138.85a1,1,0,0,1-1-.91l-.51-5.63a1,1,0,1,1,2-.19l.51,5.64a1,1,0,0,1-.9,1.09Z" fill="#093f68"/><path d="M210.26,130.47a1,1,0,0,1-.75-1.65c.46-.54.42-2.29.26-3.3a1,1,0,0,1,.63-1.1,1,1,0,0,1,1.2.4,6.13,6.13,0,0,0,1.08,1.27,17.76,17.76,0,0,0-2.06-4.08,1,1,0,0,1,.29-1.38,1,1,0,0,1,1.38.28c2.39,3.65,3,6,1.88,7a1.72,1.72,0,0,1-1.41.41,2.37,2.37,0,0,1-.93-.36,4,4,0,0,1-.81,2.18A1,1,0,0,1,210.26,130.47Z" fill="#093f68"/><path d="M171.12,82.58a1,1,0,0,1-.42-1.9A10,10,0,0,0,174.8,76a1,1,0,0,1,1.81.84,11.78,11.78,0,0,1-5.06,5.63A1.11,1.11,0,0,1,171.12,82.58Z" fill="#093f68"/><path d="M278.13,173.85a1,1,0,0,1-1-1V74.48a1,1,0,0,1,2,0v98.37A1,1,0,0,1,278.13,173.85Z" fill="#093f68"/><polygon points="310.71 103.99 278.13 103.99 278.13 77.66 310.71 103.99" fill="#ffbc0e"/><path d="M310.71,105H278.13a1,1,0,0,1-1-1V77.66a1,1,0,0,1,.57-.9,1,1,0,0,1,1.05.13l32.59,26.32a1,1,0,0,1,.32,1.11A1,1,0,0,1,310.71,105Zm-31.58-2h28.75L279.13,79.76Z" fill="#093f68"/></g></svg>