<svg xmlns="http://www.w3.org/2000/svg" viewBox="0 0 400 300"><g id="_164_career_outline" data-name="#164_career_outline"><rect x="100.57" y="189.94" width="32.95" height="22.65" rx="2.88" transform="translate(2.76 -1.58) rotate(0.78)" fill="#f56132"/><path d="M130.52,213.77h-.05l-27.18-.37a3.88,3.88,0,0,1-3.83-3.93l.23-16.89a3.87,3.87,0,0,1,1.17-2.73,3.94,3.94,0,0,1,2.76-1.09l27.19.37a3.88,3.88,0,0,1,3.82,3.93l-.23,16.88A3.89,3.89,0,0,1,130.52,213.77Zm0-2a1.86,1.86,0,0,0,1.9-1.85l.23-16.89a1.88,1.88,0,0,0-1.85-1.9l-27.19-.37a1.78,1.78,0,0,0-1.33.53,1.88,1.88,0,0,0-.57,1.32l-.23,16.88a1.88,1.88,0,0,0,1.85,1.91Z" fill="#093f68"/><path d="M124.35,191h0l-13-.18a1,1,0,0,1-1-1l0-2.87a3.74,3.74,0,0,1,3.73-3.68h.05l7.56.11a3.73,3.73,0,0,1,3.68,3.77l0,2.87a1.05,1.05,0,0,1-.31.71A1,1,0,0,1,124.35,191Zm-12-2.17,11,.15,0-1.86a1.74,1.74,0,0,0-1.71-1.75l-7.56-.11a1.74,1.74,0,0,0-1.75,1.71Z" fill="#093f68"/><path d="M103.54,189.94h27.19a2.88,2.88,0,0,1,2.88,2.88v2.29a4.71,4.71,0,0,1-4.71,4.71H105.37a4.71,4.71,0,0,1-4.71-4.71v-2.29A2.88,2.88,0,0,1,103.54,189.94Z" transform="translate(2.67 -1.58) rotate(0.78)" fill="#f56132"/><path d="M128.89,201h-.08l-23.52-.32a5.71,5.71,0,0,1-5.63-5.78l0-2.3a3.87,3.87,0,0,1,1.17-2.73,3.94,3.94,0,0,1,2.76-1.09l27.19.37a3.88,3.88,0,0,1,3.82,3.93l0,2.29A5.72,5.72,0,0,1,128.89,201Zm-25.32-10.24a1.85,1.85,0,0,0-1.31.54,1.88,1.88,0,0,0-.57,1.32l0,2.29a3.7,3.7,0,0,0,3.66,3.76l23.52.32h0a3.68,3.68,0,0,0,3.76-3.65l0-2.3a1.88,1.88,0,0,0-1.85-1.9l-27.19-.37Z" fill="#093f68"/><path d="M117,202.69h0a1,1,0,0,1-1-1l0-3.74a1,1,0,0,1,1-1,1,1,0,0,1,1,1l0,3.74A1,1,0,0,1,117,202.69Z" fill="#093f68"/><path d="M137.61,71.62a18,18,0,0,1,5.69-2.27,18.23,18.23,0,0,1,15.46,4.1c4.89,4.3,7.64,11.8,8.92,18a239.6,239.6,0,0,1,3.68,25.15,10.79,10.79,0,0,1-.32,2.52s-9.63,10.45-32.25,9.26c-7.08-.38-14.2-.2-21.31-.54.46-5.93-.4-11.9,0-17.78.33-4.93.78-9.85.89-14.86s0-11.64,4.54-14.83a9,9,0,0,1,7.82-1.16A18.22,18.22,0,0,1,137.61,71.62Z" fill="#725858"/><path d="M142.39,129.49q-1.77,0-3.66-.09c-3.63-.19-7.35-.24-10.94-.29-3.39,0-6.9-.08-10.36-.25a1,1,0,0,1-.7-.33,1,1,0,0,1-.25-.74,80.37,80.37,0,0,0,0-9.05c-.1-2.86-.21-5.82,0-8.72.09-1.31.19-2.62.28-3.92.26-3.56.53-7.24.61-10.91l0-.72c.1-4.88.23-11.56,5-14.89a9.93,9.93,0,0,1,7.87-1.53,19.31,19.31,0,0,1,6.89-7.28h0a18.75,18.75,0,0,1,6-2.4,19.27,19.27,0,0,1,16.32,4.33c5.75,5.06,8.26,13.81,9.24,18.57a238.39,238.39,0,0,1,3.69,25.25,10.88,10.88,0,0,1-.34,2.86,1,1,0,0,1-.23.44C171.39,120.24,162.61,129.49,142.39,129.49Zm-23.85-2.58c3.1.13,6.23.17,9.27.2,3.62,0,7.36.1,11,.29,20.26,1.07,29.9-7.41,31.29-8.76a8.45,8.45,0,0,0,.23-1.93,234.43,234.43,0,0,0-3.66-25C166,88,163.61,79.05,158.1,74.2a17.23,17.23,0,0,0-14.6-3.87,16.76,16.76,0,0,0-5.37,2.15h0a17.16,17.16,0,0,0-6.5,7.18,1,1,0,0,1-1.22.52,7.9,7.9,0,0,0-6.93,1c-3.89,2.75-4,8.6-4.1,13.3l0,.73c-.08,3.71-.35,7.42-.61,11-.1,1.31-.19,2.61-.28,3.91a83.5,83.5,0,0,0,0,8.52C118.59,121.36,118.69,124.14,118.54,126.91Z" fill="#093f68"/><path d="M187.54,151.78c2,.46,4,.83,6,1.24a4.29,4.29,0,0,0,2.1.14,4.73,4.73,0,0,0,1.5-1.18,3.5,3.5,0,0,1,4.07-1.09,3.32,3.32,0,0,1,2.17,1.11,2.91,2.91,0,0,1,.39,1.42,10.7,10.7,0,0,1-1.15,5.47,10,10,0,0,1-1.61,2.32c-.67.71-1.36.61-2.3.7-4.88.47-9.27-1.57-13.85-2.89C184.9,159,187.29,152.46,187.54,151.78Z" fill="#ffc9b0"/><path d="M197.22,163a31,31,0,0,1-9.67-2c-1-.33-2-.65-3-.94h0a1,1,0,0,1-.68-1.24,1.11,1.11,0,0,1,.12-.27c.18-.39.94-2.4,2.59-6.94a1.1,1.1,0,0,1,1.2-.72c1.27.29,2.55.55,3.84.81l2.09.42.19,0a3.21,3.21,0,0,0,1.4.13,2.72,2.72,0,0,0,.78-.63l.36-.34a4.49,4.49,0,0,1,5-1.33,4.29,4.29,0,0,1,2.78,1.53,3.75,3.75,0,0,1,.55,1.91,11.51,11.51,0,0,1-1.25,6,11.14,11.14,0,0,1-1.77,2.56,3.32,3.32,0,0,1-2.5,1l-.44,0C198.23,163,197.72,163,197.22,163Zm-11.08-4.61c.68.21,1.36.44,2,.66,3.5,1.15,6.82,2.23,10.39,1.89l.5,0c.69,0,.9-.07,1.18-.36a8.93,8.93,0,0,0,1.43-2.09,9.44,9.44,0,0,0,1.05-4.94,2.06,2.06,0,0,0-.22-.93,2.61,2.61,0,0,0-1.55-.69,4.07,4.07,0,0,0-1.74-.15,4,4,0,0,0-1.44,1,4,4,0,0,0-.29.29,4.15,4.15,0,0,1-1.59,1.11,4.72,4.72,0,0,1-2.43-.07l-.18,0c-.69-.15-1.38-.28-2.08-.42l-3-.63C187.2,155.62,186.58,157.31,186.14,158.37Zm1.4-6.59.93.34Z" fill="#093f68"/><path d="M145.31,228.47,134.94,223c9.07-15.73,13.86-26.86,13.46-30.81-.32-3.14,10.82-6.49,11.71,2.33C161,202.93,149.07,221.49,145.31,228.47Z" fill="#ffc9b0"/><path d="M145.31,229.47a1,1,0,0,1-.46-.12l-10.37-5.43a1,1,0,0,1-.5-.6,1,1,0,0,1,.1-.78c8.72-15.14,13.71-26.44,13.32-30.21a3.28,3.28,0,0,1,1.63-2.88,9,9,0,0,1,8.24-.92c1.55.7,3.47,2.29,3.83,5.93.73,7.22-7.12,20.87-12.31,29.89-1,1.82-1.95,3.38-2.6,4.59A1,1,0,0,1,145.31,229.47Zm-9-6.83,8.58,4.49c.59-1.08,1.33-2.35,2.15-3.77,4.75-8.27,12.72-22.12,12.05-28.7-.21-2.16-1.11-3.61-2.66-4.31a6.88,6.88,0,0,0-6.25.73c-.63.45-.83.85-.81,1C150,197.75,141.69,213.27,136.33,222.64Z" fill="#093f68"/><polygon points="185.32 211.48 146.29 160.54 153.67 151.23 195.48 205.17 185.32 211.48" fill="#ffc9b0"/><path d="M185.33,212.48a1,1,0,0,1-.8-.4l-39-50.93a1,1,0,0,1,0-1.23l7.37-9.31a.85.85,0,0,1,.79-.38,1,1,0,0,1,.79.38l41.81,53.95a1,1,0,0,1,.19.79,1,1,0,0,1-.46.67l-10.15,6.31A1,1,0,0,1,185.33,212.48Zm-37.77-51.93,38,49.6,8.44-5.24-40.35-52.06Z" fill="#093f68"/><path d="M161.41,129.59c-3.07-4.18-4.34-6-8.54-5.46l-11.5,1.4a8.81,8.81,0,0,0-7.69,9.82l3.48,28.58,28.27-3.44L164.27,151c6.92,5.71,14.76,10.6,23.73,10.79L192,150C180.4,149.76,166.49,136.65,161.41,129.59Z" fill="#68e1fd"/><path d="M137.15,164.93a1,1,0,0,1-1-.88l-3.48-28.58a9.84,9.84,0,0,1,8.57-10.94l11.5-1.4c4.75-.57,6.39,1.68,9.38,5.76l.08.11h0c4.94,6.86,18.74,19.76,29.78,20a1,1,0,0,1,.79.43,1,1,0,0,1,.13.89l-4,11.76a1.06,1.06,0,0,1-1,.68c-9-.19-16.57-4.88-22.42-9.47l.86,7.08a1,1,0,0,1-.21.74,1,1,0,0,1-.66.37l-28.27,3.44Zm17-39.89a10,10,0,0,0-1.17.08l-11.5,1.4a7.83,7.83,0,0,0-6.82,8.71L138,162.82l26.28-3.2-1-8.53a1,1,0,0,1,1.63-.9c5.68,4.7,13.32,10.08,22.39,10.54l3.32-9.81c-12.1-1.18-25.56-14.55-30-20.74l-.09-.11C157.91,126.52,156.83,125,154.16,125Z" fill="#093f68"/><polygon points="144.97 126.44 151.73 148.02 151.69 126.44 144.97 126.44" fill="#fff"/><path d="M151.73,149a1,1,0,0,1-1-.7L144,126.74a1,1,0,0,1,.15-.89,1,1,0,0,1,.8-.41h6.73a1,1,0,0,1,1,1l0,21.58a1,1,0,0,1-.85,1Zm-5.4-21.58,4.39,14,0-14Z" fill="#093f68"/><path d="M145.32,123.18h6.34a0,0,0,0,1,0,0v3.65a2.69,2.69,0,0,1-2.69,2.69h-1a2.69,2.69,0,0,1-2.69-2.69v-3.65A0,0,0,0,1,145.32,123.18Z" transform="translate(-14.18 18.86) rotate(-6.94)" fill="#ffc9b0"/><path d="M148.06,130.58a3.69,3.69,0,0,1-3.65-3.25l-.45-3.62a1,1,0,0,1,.21-.74,1,1,0,0,1,.67-.38l6.29-.76a1,1,0,0,1,1.12.87l.44,3.62a3.7,3.7,0,0,1-3.22,4.12h0l-.95.11A3.55,3.55,0,0,1,148.06,130.58Zm1.29-1.14h0Zm-3.28-5,.32,2.63a1.69,1.69,0,0,0,.64,1.13,1.65,1.65,0,0,0,1.25.34l.95-.11a1.7,1.7,0,0,0,1.47-1.89l-.32-2.63Z" fill="#093f68"/><ellipse cx="162.5" cy="105.52" rx="4.75" ry="5.31" transform="translate(-11.56 20.4) rotate(-6.94)" fill="#ffc9b0"/><path d="M162.62,111.82a6.14,6.14,0,0,1-5.83-5.61,6.63,6.63,0,0,1,1.1-4.59,5.41,5.41,0,0,1,8.15-1,6.59,6.59,0,0,1,2.17,4.19h0a6.61,6.61,0,0,1-1.1,4.59,5.47,5.47,0,0,1-3.85,2.37A4.58,4.58,0,0,1,162.62,111.82Zm-.24-10.61a2.69,2.69,0,0,0-.4,0,3.5,3.5,0,0,0-2.45,1.53,4.61,4.61,0,0,0-.76,3.2A4.08,4.08,0,0,0,163,109.8a3.48,3.48,0,0,0,2.45-1.53,4.62,4.62,0,0,0,.76-3.21h0a4.62,4.62,0,0,0-1.51-2.92A3.49,3.49,0,0,0,162.38,101.21Z" fill="#093f68"/><path d="M148.09,124.71c-10.35,1.26-21.18-10.39-22.42-20.58l2.58.63-1-7.2s12.55-5,10.11-10.83c0,0,4.36,4.06,9.82,3.38,10.05-1.25,13.66-4.39,13.66-4.39l2.25,18.43C164.37,114.34,158.45,123.45,148.09,124.71Z" fill="#ffc9b0"/><path d="M146.56,125.8c-10.38,0-20.66-11.52-21.88-21.55a1,1,0,0,1,1.23-1.09l1.15.28-.77-5.75a1,1,0,0,1,.63-1.06c2.18-.87,8.16-3.85,9.52-7.09a3,3,0,0,0,0-2.42,1,1,0,0,1,1.6-1.12s4.12,3.73,9,3.12c9.54-1.18,13.1-4.13,13.13-4.15a1,1,0,0,1,1-.18,1,1,0,0,1,.63.81L164.12,104a20.45,20.45,0,0,1-3.35,14.33,17.73,17.73,0,0,1-12.56,7.34A13,13,0,0,1,146.56,125.8ZM126.9,105.46c2.16,10.92,13.21,19.21,21.07,18.26h0a15.78,15.78,0,0,0,11.17-6.52,18.4,18.4,0,0,0,3-12.93l-2-16.83c-1.93,1.09-5.9,2.81-12.74,3.66a13.38,13.38,0,0,1-8.68-2.18,5.54,5.54,0,0,1-.38,1.39c-1.66,3.94-7.78,6.93-9.91,7.87l.86,6.45a1,1,0,0,1-1.23,1.1Z" fill="#093f68"/><ellipse cx="140.9" cy="104.51" rx="1.72" ry="1.72" transform="translate(-11.59 17.79) rotate(-6.94)" fill="#093f68"/><circle cx="157.35" cy="102.51" r="1.72" fill="#093f68"/><path d="M149.32,108.64h-.46a1,1,0,0,1-1-1,1,1,0,0,1,1.05-1,8,8,0,0,0,2-.15,15.33,15.33,0,0,0-1.78-3.27,1,1,0,1,1,1.65-1.13c1.18,1.71,2.5,4,2.12,5.25a1.37,1.37,0,0,1-.83.89A8.23,8.23,0,0,1,149.32,108.64Z" fill="#093f68"/><path d="M134,102.75a2,2,0,0,1-.61-3.9l7.81-2.52a2,2,0,1,1,1.23,3.8l-7.81,2.53A2.21,2.21,0,0,1,134,102.75Z" fill="#093f68"/><path d="M150.17,98.88a2,2,0,0,1-.15-4l8.19-.63a2,2,0,0,1,.3,4l-8.18.63Z" fill="#093f68"/><path d="M129.54,105s-4.88-2.57-6.82,1.74,1.23,10.87,8.44,8" fill="#ffc9b0"/><path d="M127.82,116.4a6.34,6.34,0,0,1-4.7-1.92,7.55,7.55,0,0,1-1.31-8.17,4.87,4.87,0,0,1,2.91-2.81,7.5,7.5,0,0,1,5.29.59,1,1,0,0,1-.93,1.77,5.53,5.53,0,0,0-3.72-.47,3,3,0,0,0-1.73,1.74,5.57,5.57,0,0,0,.93,6c1.42,1.48,3.64,1.72,6.23.67a1,1,0,0,1,.75,1.86A10.1,10.1,0,0,1,127.82,116.4Z" fill="#093f68"/><path d="M148.48,116.82c-.29,0-.59,0-.89,0a9.44,9.44,0,0,1-6.59-4.24,1,1,0,1,1,1.61-1.18,7.56,7.56,0,0,0,5.2,3.43c3.29.36,6.11-2.08,6.14-2.1a1,1,0,1,1,1.32,1.5A11.37,11.37,0,0,1,148.48,116.82Z" fill="#093f68"/><path d="M185.33,211.48l4.54,6.52,17.23-11.13a.64.64,0,0,0-.43-1.16l-12.42-.66Z" fill="#68e1fd"/><path d="M189.87,219a1,1,0,0,1-.82-.43l-4.55-6.52a1,1,0,0,1,.24-1.38l8.93-6.43a1,1,0,0,1,.63-.19l12.37.65a1.65,1.65,0,0,1,1.59,1.08,1.63,1.63,0,0,1-.57,1.89l-17.28,11.17A1,1,0,0,1,189.87,219Zm-3.16-7.29,3.43,4.93,15.46-10-11-.58Z" fill="#093f68"/><path d="M134.94,223l-3.18,7.17,18.77,7.73a.47.47,0,0,0,.59-.67L145.2,226.8Z" fill="#68e1fd"/><path d="M150.71,239a1.36,1.36,0,0,1-.56-.11l-18.77-7.72a1,1,0,0,1-.55-.55,1,1,0,0,1,0-.78l3.18-7.18a1,1,0,0,1,1.26-.53l10.25,3.76a1,1,0,0,1,.53.45L152,236.78a1.43,1.43,0,0,1-.17,1.69A1.46,1.46,0,0,1,150.71,239Zm-17.62-9.29,16.41,6.75-5-8.82-9-3.31Z" fill="#093f68"/><path d="M114,173.72c-.13,1-.14,2.1-.19,3.15a7.16,7.16,0,0,1-1.1,2.63,7.59,7.59,0,0,0-.71,3.57c.22,4.4,8.65,5.55,8.47,1a1.31,1.31,0,0,1,.09-.71c.25-.41.88-.27,1.32-.07s1,.4,1.36,0a1.11,1.11,0,0,0,0-1.06c-.51-1.48-1.18-2.93-1.58-4.45a21,21,0,0,1,.08-4.33Z" fill="#ffc9b0"/><path d="M117.11,188c-2.89,0-6-1.89-6.11-4.85a8.73,8.73,0,0,1,.8-4c.14-.31.3-.59.46-.87a3.16,3.16,0,0,0,.55-1.39c0-.31,0-.61,0-.92,0-.75.06-1.53.16-2.3a1,1,0,0,1,.95-.88l7.72-.28h.06a1,1,0,0,1,1,1,1.15,1.15,0,0,1-.08.41,33.71,33.71,0,0,0,0,3.74,28.27,28.27,0,0,0,1,2.69c.21.54.42,1.08.61,1.63a2.08,2.08,0,0,1-.18,2c-.32.38-1.08.92-2.53.25,0,2.2-1.58,3.68-4.08,3.79Zm-2.2-13.29c0,.43,0,.86-.06,1.3s0,.63,0,1a4.78,4.78,0,0,1-.81,2.28c-.13.23-.26.46-.38.71A6.69,6.69,0,0,0,113,183c.09,1.83,2.37,3,4.31,2.93.83,0,2.23-.33,2.17-1.89a2,2,0,0,1,.22-1.26,1.88,1.88,0,0,1,2.51-.51c-.16-.44-.33-.88-.5-1.31a28.66,28.66,0,0,1-1-3,27.39,27.39,0,0,1-.08-3.55Zm6.87-.25Zm0,0Zm0,0Zm.14,0h0Zm0,0Z" fill="#093f68"/><path d="M139,140.85c-5.94,5.35-13.68,15.44-15.75,32.7l-11.73-.38s0-.68,0-1c3.15-26.23,17.52-39.23,25.11-44.36" fill="#68e1fd"/><path d="M123.27,174.55h0l-11.72-.38a1,1,0,0,1-1-1c0-.08,0-.75,0-1.15,3.16-26.32,17.36-39.54,25.55-45.07a1,1,0,0,1,1.12,1.66c-7.9,5.33-21.59,18.09-24.67,43.58l9.81.32c2.25-16.91,9.89-26.94,16-32.41a1,1,0,1,1,1.33,1.49c-5.92,5.33-13.4,15.22-15.42,32.07A1,1,0,0,1,123.27,174.55Z" fill="#093f68"/><path d="M164.27,152a1,1,0,0,1-1-.88l-.79-6.31a1,1,0,0,1,0-.3,18,18,0,0,0,.16-5.14,6.11,6.11,0,0,0-3.54-4.66,1,1,0,0,1-.58-1.29,1,1,0,0,1,1.29-.58,8.13,8.13,0,0,1,4.8,6.19,19.69,19.69,0,0,1-.13,5.67l.78,6.17a1,1,0,0,1-.87,1.12Z" fill="#093f68"/><polygon points="137.16 163.93 142.32 204.24 184.81 188.42 165.43 160.49 137.16 163.93" fill="#093f68"/><path d="M142.32,205.24a1,1,0,0,1-1-.88l-5.17-40.3a1,1,0,0,1,.87-1.12l28.27-3.44a1,1,0,0,1,.95.42l19.38,27.93a1,1,0,0,1,.13.87,1,1,0,0,1-.6.63l-42.49,15.82A.84.84,0,0,1,142.32,205.24Zm-4-40.44,4.87,38.06,40.1-14.93L165,161.56Z" fill="#093f68"/><path d="M200.07,152.51a3,3,0,0,1,.56,2.09,6.82,6.82,0,0,1-1.26,3.64c-.33.46-.85.92-1.4.78a1.09,1.09,0,0,1-.7-.77,3,3,0,0,1-.05-1.08l.16-2.47a5.46,5.46,0,0,1-2.73,3.59c-.29.15-.77.21-.86-.11" fill="#ffc9b0"/><path d="M198.18,160.05a1.53,1.53,0,0,1-.47-.07,2,2,0,0,1-1.4-1.45c0-.05,0-.1,0-.15a6,6,0,0,1-1.15.79,1.87,1.87,0,0,1-1.55.13,1.31,1.31,0,0,1-.74-.85,1,1,0,0,1,.69-1.23,1,1,0,0,1,.79.11,4.42,4.42,0,0,0,2.09-2.84,1,1,0,0,1,1.12-.78,1,1,0,0,1,.86,1l-.16,2.48a2.57,2.57,0,0,0,0,.74h0a1.25,1.25,0,0,0,.31-.33,5.8,5.8,0,0,0,1.08-3.11,2.12,2.12,0,0,0-.31-1.38,1,1,0,1,1,1.5-1.31,3.83,3.83,0,0,1,.81,2.78,7.94,7.94,0,0,1-1.45,4.18A2.54,2.54,0,0,1,198.18,160.05Zm.11-2h0Z" fill="#093f68"/><path d="M306.65,133.54a2,2,0,0,1-1.82-1.17,2,2,0,0,1,1-2.65c12.11-5.5,14.48-18.77,14.95-23.81H306.93a2,2,0,0,1,0-4h15.95a2,2,0,0,1,2,2c0,.88,0,21.56-17.4,29.48A2,2,0,0,1,306.65,133.54Z" fill="#ffbc0e"/><path d="M306.65,134.54a3,3,0,0,1-1.24-5.73c10.78-4.9,13.54-16.23,14.25-21.9H306.93a3,3,0,0,1,0-6h15.95a3,3,0,0,1,3,3c0,.91,0,22.21-18,30.4A3.1,3.1,0,0,1,306.65,134.54Zm.28-31.63a1,1,0,0,0,0,2h13.84a1,1,0,0,1,.74.33,1,1,0,0,1,.26.77c-.52,5.51-3,18.95-15.53,24.62a1,1,0,0,0-.5,1.33,1,1,0,0,0,1.32.5c16.84-7.66,16.83-27.71,16.82-28.56a1,1,0,0,0-1-1Z" fill="#093f68"/><path d="M258.79,133.54a2,2,0,0,1-.83-.17c-17.41-7.92-17.41-28.6-17.4-29.48a2,2,0,0,1,2-2h15.95a2,2,0,0,1,0,4H244.67c.47,5,2.84,18.31,15,23.81a2,2,0,0,1,1,2.65A2,2,0,0,1,258.79,133.54Z" fill="#ffbc0e"/><path d="M258.79,134.54a3.1,3.1,0,0,1-1.24-.26c-18-8.19-18-29.49-18-30.4a3,3,0,0,1,3-3h15.95a3,3,0,0,1,0,6H245.79c.7,5.67,3.45,17,14.24,21.9a3,3,0,0,1-1.24,5.73Zm-16.23-31.63a1,1,0,0,0-1,1c0,.85,0,20.9,16.82,28.56a1,1,0,0,0,1.32-.5,1,1,0,0,0-.49-1.33c-12.49-5.67-15-19.11-15.54-24.63a1,1,0,0,1,.26-.76,1,1,0,0,1,.74-.33h13.84a1,1,0,0,0,0-2Z" fill="#093f68"/><rect x="277.65" y="142.51" width="10.14" height="23.69" fill="#ffbc0e"/><path d="M287.79,167.2H277.65a1,1,0,0,1-1-1V142.51a1,1,0,0,1,1-1h10.14a1,1,0,0,1,1,1V166.2A1,1,0,0,1,287.79,167.2Zm-9.14-2h8.14V143.51h-8.14Z" fill="#093f68"/><path d="M258.22,98.09h49a0,0,0,0,1,0,0v29.75a24.5,24.5,0,0,1-24.5,24.5h0a24.5,24.5,0,0,1-24.5-24.5V98.09A0,0,0,0,1,258.22,98.09Z" fill="#ffbc0e"/><path d="M282.72,153.34a25.53,25.53,0,0,1-25.5-25.49V98.09a1,1,0,0,1,1-1h49a1,1,0,0,1,1,1v29.76A25.53,25.53,0,0,1,282.72,153.34Zm-23.5-54.25v28.76a23.52,23.52,0,0,0,23.5,23.49h0a23.52,23.52,0,0,0,23.5-23.49V99.09Z" fill="#093f68"/><path d="M273.91,161.91h17.61a7.52,7.52,0,0,1,7.52,7.52v0a3.18,3.18,0,0,1-3.18,3.18H269.57a3.18,3.18,0,0,1-3.18-3.18v0A7.52,7.52,0,0,1,273.91,161.91Z" fill="#ffbc0e"/><path d="M295.88,173.61H269.57a4.18,4.18,0,0,1-4.18-4.17,8.54,8.54,0,0,1,8.52-8.53h17.62a8.54,8.54,0,0,1,8.52,8.53A4.17,4.17,0,0,1,295.88,173.61Zm-22-10.7a6.54,6.54,0,0,0-6.52,6.53,2.18,2.18,0,0,0,2.18,2.17h26.31a2.17,2.17,0,0,0,2.17-2.17,6.54,6.54,0,0,0-6.52-6.53Z" fill="#093f68"/><polygon points="282.72 108.84 286.99 117.49 296.53 118.87 289.63 125.6 291.25 135.11 282.72 130.62 274.19 135.11 275.81 125.6 268.91 118.87 278.45 117.49 282.72 108.84" fill="#fff"/><path d="M274.18,136.11a1,1,0,0,1-.58-.19,1,1,0,0,1-.4-1l1.54-9-6.53-6.36a1,1,0,0,1,.56-1.71l9-1.31,4-8.17a1,1,0,0,1,.9-.56h0a1,1,0,0,1,.9.56l4,8.17,9,1.31a1,1,0,0,1,.56,1.71L290.7,126l1.54,9a1,1,0,0,1-1.45,1.05l-8.07-4.24L274.65,136A1,1,0,0,1,274.18,136.11Zm-3.12-16.54,5.45,5.32a1,1,0,0,1,.29.88l-1.29,7.51,6.75-3.54a1,1,0,0,1,.93,0l6.74,3.54-1.29-7.51a1,1,0,0,1,.29-.88l5.45-5.32-7.54-1.09a1,1,0,0,1-.75-.55l-3.37-6.83-3.37,6.83a1,1,0,0,1-.75.55Z" fill="#093f68"/><path d="M178.32,240.46H117.06a1,1,0,1,1,0-2h60.26V217.09a1,1,0,0,1,1-1H215.1V196a1,1,0,0,1,1-1h32.57V172.85a1,1,0,0,1,1-1h58a1,1,0,0,1,0,2h-57V196a1,1,0,0,1-1,1H217.1v20.08a1,1,0,0,1-1,1H179.32v21.37A1,1,0,0,1,178.32,240.46Z" fill="#093f68"/></g></svg>