<svg id="_20_checklist_outline" data-name="#20_checklist_outline" xmlns="http://www.w3.org/2000/svg" viewBox="0 0 400 300"><rect x="128.2" y="69.95" width="143.61" height="162.77" rx="8.13" fill="#68e1fd"/><path d="M263.67,233.72H136.33a9.14,9.14,0,0,1-9.13-9.13V78.08A9.14,9.14,0,0,1,136.33,69H263.67a9.14,9.14,0,0,1,9.13,9.13V224.59A9.14,9.14,0,0,1,263.67,233.72ZM136.33,71a7.13,7.13,0,0,0-7.13,7.13V224.59a7.13,7.13,0,0,0,7.13,7.13H263.67a7.13,7.13,0,0,0,7.13-7.13V78.08A7.13,7.13,0,0,0,263.67,71Z" fill="#093f68"/><rect x="140.21" y="78.25" width="119.59" height="144.88" rx="4.17" fill="#fff"/><path d="M255.62,224.13H144.38a5.18,5.18,0,0,1-5.17-5.17V82.42a5.18,5.18,0,0,1,5.17-5.17H255.62a5.18,5.18,0,0,1,5.17,5.17V219A5.18,5.18,0,0,1,255.62,224.13ZM144.38,79.25a3.17,3.17,0,0,0-3.17,3.17V219a3.17,3.17,0,0,0,3.17,3.17H255.62a3.17,3.17,0,0,0,3.17-3.17V82.42a3.17,3.17,0,0,0-3.17-3.17Z" fill="#093f68"/><path d="M228.82,64.16H211.16l-.65-7.61a10.13,10.13,0,0,0-10.1-9.27h-.82a10.13,10.13,0,0,0-10.1,9.27l-.65,7.61H171.18a5.82,5.82,0,0,0-5.54,7.59L168.88,82A5.83,5.83,0,0,0,174.43,86h51.14A5.83,5.83,0,0,0,231.12,82l3.24-10.2A5.82,5.82,0,0,0,228.82,64.16ZM200,63.35a4.47,4.47,0,1,1,4.46-4.46A4.46,4.46,0,0,1,200,63.35Z" fill="#ffbc0e"/><path d="M225.57,87H174.43a6.8,6.8,0,0,1-6.5-4.75l-3.24-10.21a6.81,6.81,0,0,1,6.49-8.89h16.74l.57-6.7a11.07,11.07,0,0,1,11.09-10.18h.84a11.07,11.07,0,0,1,11.09,10.18l.57,6.7h16.74a6.82,6.82,0,0,1,6.49,8.9l-3.24,10.2A6.8,6.8,0,0,1,225.57,87ZM171.18,65.16a4.82,4.82,0,0,0-4.59,6.29l3.24,10.2a4.81,4.81,0,0,0,4.6,3.36h51.14a4.81,4.81,0,0,0,4.6-3.36l3.24-10.2a4.82,4.82,0,0,0-4.59-6.29H211.16a1,1,0,0,1-1-.92l-.64-7.61a9.08,9.08,0,0,0-9.1-8.35h-.84a9.08,9.08,0,0,0-9.1,8.35l-.64,7.61a1,1,0,0,1-1,.92ZM200,64.35a5.47,5.47,0,1,1,5.46-5.46A5.47,5.47,0,0,1,200,64.35Zm0-8.93a3.47,3.47,0,1,0,3.46,3.47A3.46,3.46,0,0,0,200,55.42Z" fill="#093f68"/><rect x="155.85" y="102.34" width="19.02" height="19.02" fill="#fff"/><path d="M174.87,122.36h-19a1,1,0,0,1-1-1v-19a1,1,0,0,1,1-1h19a1,1,0,0,1,1,1v19A1,1,0,0,1,174.87,122.36Zm-18-2h17v-17h-17Z" fill="#093f68"/><path d="M242.15,108.47H195.54a1.5,1.5,0,0,1,0-3h46.61a1.5,1.5,0,0,1,0,3Z" fill="#dfeaef"/><path d="M229.29,118.23H195.54a1.5,1.5,0,0,1,0-3h33.75a1.5,1.5,0,0,1,0,3Z" fill="#dfeaef"/><rect x="155.85" y="141.18" width="19.02" height="19.02" fill="#fff"/><path d="M174.87,161.2h-19a1,1,0,0,1-1-1v-19a1,1,0,0,1,1-1h19a1,1,0,0,1,1,1v19A1,1,0,0,1,174.87,161.2Zm-18-2h17v-17h-17Z" fill="#093f68"/><path d="M242.15,147.31H195.54a1.5,1.5,0,0,1,0-3h46.61a1.5,1.5,0,1,1,0,3Z" fill="#dfeaef"/><path d="M216.9,157.07H195.54a1.5,1.5,0,0,1,0-3H216.9a1.5,1.5,0,1,1,0,3Z" fill="#dfeaef"/><rect x="155.85" y="180.02" width="19.02" height="19.02" fill="#fff"/><path d="M174.87,200h-19a1,1,0,0,1-1-1V180a1,1,0,0,1,1-1h19a1,1,0,0,1,1,1v19A1,1,0,0,1,174.87,200Zm-18-2h17V181h-17Z" fill="#093f68"/><path d="M242.15,186.15H195.54a1.5,1.5,0,0,1,0-3h46.61a1.5,1.5,0,0,1,0,3Z" fill="#dfeaef"/><path d="M234.64,195.91h-39.1a1.5,1.5,0,0,1,0-3h39.1a1.5,1.5,0,0,1,0,3Z" fill="#dfeaef"/><path d="M163.41,118.23a1.74,1.74,0,0,1-.39,0,1.49,1.49,0,0,1-1-.92l-3.66-9.76a1.5,1.5,0,0,1,2.81-1.06l2.92,7.78,15.55-13a1.5,1.5,0,1,1,1.92,2.3l-17.17,14.39A1.49,1.49,0,0,1,163.41,118.23Z" fill="#70cc40"/><path d="M163.41,156.89a1.31,1.31,0,0,1-.39,0,1.47,1.47,0,0,1-1-.92l-3.66-9.76a1.5,1.5,0,0,1,2.81-1l2.92,7.77,15.55-13a1.5,1.5,0,1,1,1.92,2.3l-17.17,14.39A1.49,1.49,0,0,1,163.41,156.89Z" fill="#70cc40"/><path d="M159.75,198.68a1.49,1.49,0,0,1-1.1-2.52l14.26-15.31a1.5,1.5,0,0,1,2.2,2.05l-14.27,15.3A1.47,1.47,0,0,1,159.75,198.68Z" fill="#f56132"/><path d="M174,198.68a1.5,1.5,0,0,1-1.1-.48l-14.26-15.3a1.5,1.5,0,1,1,2.19-2.05l14.27,15.31a1.5,1.5,0,0,1-.08,2.12A1.48,1.48,0,0,1,174,198.68Z" fill="#f56132"/></svg>