<svg id="_400_chicago_outline" data-name="#400_chicago_outline" xmlns="http://www.w3.org/2000/svg" viewBox="0 0 400 300"><path d="M293.85,150A93.85,93.85,0,1,1,200,56.15,93.73,93.73,0,0,1,293.85,150Z" fill="#fff"/><path d="M200,244.85a94.91,94.91,0,1,1,61.59-22.72A94.81,94.81,0,0,1,200,244.85Zm0-187.7A92.91,92.91,0,1,0,292.85,150,93,93,0,0,0,200,57.15Z" fill="#093f68"/><path d="M187.9,206.63h-23a1,1,0,0,1-1-1v-4.88H145.39a1,1,0,0,1-1-1v-8H126.24a1,1,0,0,1-1-1v-11.6h-8.86a1,1,0,0,1,0-2h9.86a1,1,0,0,1,1,1v11.6h18.15a1,1,0,0,1,1,1v8h18.48a1,1,0,0,1,1,1v4.88h21V190.18a1,1,0,0,1,1-1H207a1,1,0,0,1,1,1v4.5a1,1,0,0,1-2,0v-3.5H188.9v14.45A1,1,0,0,1,187.9,206.63Z" fill="#dfeaef"/><path d="M184.9,222.37H150.1a1,1,0,0,1-.78-.37,1,1,0,0,1-.2-.84l17.4-79.74a1,1,0,0,1,2,0l17.4,79.74a1,1,0,0,1-1,1.21Zm-33.56-2h32.32l-16.16-74Z" fill="#093f68"/><path d="M167.5,188.63a47,47,0,1,1,47-47A47,47,0,0,1,167.5,188.63Zm0-92a45,45,0,1,0,45,45A45,45,0,0,0,167.5,96.65Z" fill="#093f68"/><path d="M167.5,179.14a37.51,37.51,0,1,1,37.5-37.5A37.55,37.55,0,0,1,167.5,179.14Zm0-73A35.51,35.51,0,1,0,203,141.64,35.55,35.55,0,0,0,167.5,106.13Z" fill="#093f68"/><path d="M167.5,188a1,1,0,0,1-1-1V96.27a1,1,0,1,1,2,0V187A1,1,0,0,1,167.5,188Z" fill="#093f68"/><path d="M135.42,174.72a1,1,0,0,1-.71-.3,1,1,0,0,1,0-1.41l64.16-64.16a1,1,0,0,1,1.41,0,1,1,0,0,1,0,1.42l-64.15,64.15A1,1,0,0,1,135.42,174.72Z" fill="#093f68"/><path d="M212.86,142.64H122.13a1,1,0,0,1,0-2h90.73a1,1,0,0,1,0,2Z" fill="#093f68"/><path d="M199.58,174.72a1,1,0,0,1-.71-.3l-64.16-64.15a1,1,0,0,1,1.42-1.42L200.28,173a1,1,0,0,1,0,1.41A1,1,0,0,1,199.58,174.72Z" fill="#093f68"/><path d="M161.87,90.77h11.25a0,0,0,0,1,0,0V97.7a2.32,2.32,0,0,1-2.32,2.32h-6.61a2.32,2.32,0,0,1-2.32-2.32V90.77A0,0,0,0,1,161.87,90.77Z" fill="#68e1fd"/><path d="M170.81,101h-6.62a3.32,3.32,0,0,1-3.32-3.32V90.77a1,1,0,0,1,1-1h11.25a1,1,0,0,1,1,1V97.7A3.32,3.32,0,0,1,170.81,101Zm-7.94-9.25V97.7A1.33,1.33,0,0,0,164.19,99h6.62a1.32,1.32,0,0,0,1.31-1.32V91.77Z" fill="#093f68"/><path d="M161.87,183.26h11.25a0,0,0,0,1,0,0v6.93a2.32,2.32,0,0,1-2.32,2.32h-6.61a2.32,2.32,0,0,1-2.32-2.32v-6.93A0,0,0,0,1,161.87,183.26Z" fill="#68e1fd"/><path d="M170.81,193.5h-6.62a3.32,3.32,0,0,1-3.32-3.31v-6.93a1,1,0,0,1,1-1h11.25a1,1,0,0,1,1,1v6.93A3.31,3.31,0,0,1,170.81,193.5Zm-7.94-9.24v5.93a1.32,1.32,0,0,0,1.32,1.31h6.62a1.31,1.31,0,0,0,1.31-1.31v-5.93Z" fill="#093f68"/><path d="M194.57,104.32h11.25a0,0,0,0,1,0,0v6.93a2.32,2.32,0,0,1-2.32,2.32h-6.61a2.32,2.32,0,0,1-2.32-2.32v-6.93A0,0,0,0,1,194.57,104.32Z" fill="#68e1fd"/><path d="M203.5,114.56h-6.61a3.32,3.32,0,0,1-3.32-3.32v-6.92a1,1,0,0,1,1-1h11.25a1,1,0,0,1,1,1v6.92A3.32,3.32,0,0,1,203.5,114.56Zm-7.93-9.24v5.92a1.33,1.33,0,0,0,1.32,1.32h6.61a1.32,1.32,0,0,0,1.32-1.32v-5.92Z" fill="#093f68"/><path d="M129.17,169.71h11.25a0,0,0,0,1,0,0v6.93a2.32,2.32,0,0,1-2.32,2.32h-6.61a2.32,2.32,0,0,1-2.32-2.32v-6.93A0,0,0,0,1,129.17,169.71Z" fill="#68e1fd"/><path d="M138.11,180h-6.62a3.32,3.32,0,0,1-3.32-3.32v-6.93a1,1,0,0,1,1-1h11.25a1,1,0,0,1,1,1v6.93A3.32,3.32,0,0,1,138.11,180Zm-7.94-9.25v5.93a1.33,1.33,0,0,0,1.32,1.32h6.62a1.32,1.32,0,0,0,1.31-1.32v-5.93Z" fill="#093f68"/><path d="M208.12,137h11.25a0,0,0,0,1,0,0v6.93a2.32,2.32,0,0,1-2.32,2.32h-6.61a2.32,2.32,0,0,1-2.32-2.32V137A0,0,0,0,1,208.12,137Z" fill="#68e1fd"/><path d="M217.05,147.26h-6.61a3.32,3.32,0,0,1-3.32-3.32V137a1,1,0,0,1,1-1h11.25a1,1,0,0,1,1,1v6.93A3.32,3.32,0,0,1,217.05,147.26ZM209.12,138v5.93a1.32,1.32,0,0,0,1.32,1.32h6.61a1.32,1.32,0,0,0,1.32-1.32V138Z" fill="#093f68"/><path d="M115.63,137h11.25a0,0,0,0,1,0,0v6.93a2.32,2.32,0,0,1-2.32,2.32h-6.61a2.32,2.32,0,0,1-2.32-2.32V137A0,0,0,0,1,115.63,137Z" fill="#68e1fd"/><path d="M124.56,147.26H118a3.32,3.32,0,0,1-3.32-3.32V137a1,1,0,0,1,1-1h11.25a1,1,0,0,1,1,1v6.93A3.32,3.32,0,0,1,124.56,147.26ZM116.63,138v5.93a1.32,1.32,0,0,0,1.32,1.32h6.61a1.32,1.32,0,0,0,1.32-1.32V138Z" fill="#093f68"/><path d="M194.57,169.71h11.25a0,0,0,0,1,0,0v6.93A2.32,2.32,0,0,1,203.5,179h-6.61a2.32,2.32,0,0,1-2.32-2.32v-6.93A0,0,0,0,1,194.57,169.71Z" fill="#68e1fd"/><path d="M203.5,180h-6.61a3.32,3.32,0,0,1-3.32-3.32v-6.93a1,1,0,0,1,1-1h11.25a1,1,0,0,1,1,1v6.93A3.32,3.32,0,0,1,203.5,180Zm-7.93-9.25v5.93a1.33,1.33,0,0,0,1.32,1.32h6.61a1.32,1.32,0,0,0,1.32-1.32v-5.93Z" fill="#093f68"/><path d="M129.17,104.32h11.25a0,0,0,0,1,0,0v6.93a2.32,2.32,0,0,1-2.32,2.32h-6.61a2.32,2.32,0,0,1-2.32-2.32v-6.93A0,0,0,0,1,129.17,104.32Z" fill="#68e1fd"/><path d="M138.11,114.56h-6.62a3.32,3.32,0,0,1-3.32-3.32v-6.92a1,1,0,0,1,1-1h11.25a1,1,0,0,1,1,1v6.92A3.32,3.32,0,0,1,138.11,114.56Zm-7.94-9.24v5.92a1.33,1.33,0,0,0,1.32,1.32h6.62a1.32,1.32,0,0,0,1.31-1.32v-5.92Z" fill="#093f68"/><circle cx="167.5" cy="141.64" r="6.74" fill="#fff"/><path d="M167.5,149.38a7.75,7.75,0,1,1,7.74-7.74A7.75,7.75,0,0,1,167.5,149.38Zm0-13.49a5.75,5.75,0,1,0,5.74,5.75A5.76,5.76,0,0,0,167.5,135.89Z" fill="#093f68"/><path d="M256.75,211.39a21.43,21.43,0,0,1-.23,3.3c-2.26,14.37-20.52-.63-29.66-.63s-27.52,16-29.68.65a23.38,23.38,0,0,1-.21-3.32c0-10.32,13.38-19,29.89-19S256.75,201.07,256.75,211.39Z" fill="#68e1fd"/><path d="M203.51,222.37a7.2,7.2,0,0,1-3.6-.85c-2-1.12-3.26-3.36-3.72-6.67a24.46,24.46,0,0,1-.22-3.46c0-11,13.86-20,30.89-20s30.89,9,30.89,20a22.92,22.92,0,0,1-.24,3.46c-.48,3-1.69,5.1-3.61,6.18-4,2.27-10.25-.27-16.27-2.73-3.91-1.59-7.95-3.24-10.77-3.24s-6.88,1.76-10.79,3.46C211.68,220.42,207.18,222.37,203.51,222.37Zm23.35-28.94c-15.66,0-28.89,8.23-28.89,18a23.92,23.92,0,0,0,.2,3.19c.38,2.68,1.27,4.38,2.71,5.2,3.17,1.77,8.87-.7,14.39-3.1,4.29-1.86,8.35-3.62,11.59-3.62s7.25,1.65,11.52,3.39c5.59,2.28,11.36,4.63,14.54,2.84,1.37-.77,2.23-2.33,2.61-4.75a21.32,21.32,0,0,0,.22-3.15C255.75,201.66,242.52,193.43,226.86,193.43Z" fill="#093f68"/><path d="M256.52,214.69c-2.26,14.37-20.52-.63-29.66-.63s-27.52,16-29.68.65c5.76-5.41,16.89-9.08,29.68-9.08S250.76,209.29,256.52,214.69Z" fill="#68e1fd"/><path d="M203.51,222.37a7.2,7.2,0,0,1-3.6-.85c-2-1.12-3.26-3.36-3.72-6.67a1,1,0,0,1,.3-.87c6.14-5.77,17.77-9.35,30.37-9.35s24.2,3.58,30.34,9.33a1,1,0,0,1,.31.89c-.48,3-1.69,5.1-3.61,6.18-4,2.27-10.25-.27-16.27-2.73-3.91-1.59-7.95-3.24-10.77-3.24s-6.88,1.76-10.79,3.46C211.68,220.42,207.18,222.37,203.51,222.37Zm-5.26-7.28c.42,2.39,1.28,3.93,2.63,4.69,3.17,1.77,8.87-.7,14.39-3.1,4.29-1.86,8.35-3.62,11.59-3.62s7.25,1.65,11.52,3.39c5.59,2.28,11.36,4.63,14.54,2.84,1.27-.72,2.1-2.1,2.52-4.23-5.89-5.21-16.76-8.43-28.58-8.43S204.13,209.86,198.25,215.09Z" fill="#093f68"/><path d="M260.94,221.37a93.84,93.84,0,0,1-121.88,0Z" fill="#68e1fd"/><path d="M200,244.85a94.81,94.81,0,0,1-61.59-22.72,1,1,0,0,1,.65-1.76H260.94a1,1,0,0,1,.65,1.76A94.81,94.81,0,0,1,200,244.85Zm-58.17-22.48a92.85,92.85,0,0,0,116.34,0Z" fill="#093f68"/><path d="M228.86,187a1,1,0,0,1-1-1V148.41a1,1,0,0,1,1-1h5V115.56a1,1,0,0,1,1-1h4.29V93.22a1,1,0,0,1,.62-.92l6.29-2.63a1,1,0,0,1,.39-.08h12.08a1,1,0,0,1,1,1v26.22h8.82a1,1,0,0,1,1,1v31.66h5a1,1,0,0,1,1,1v12.77a1,1,0,0,1-2,0V151.47h-5a1,1,0,0,1-1-1V118.81h-8.82a1,1,0,0,1-1-1V91.59H246.69l-5.5,2.3v21.67a1,1,0,0,1-1,1H235.9v31.85a1,1,0,0,1-1,1h-5V186A1,1,0,0,1,228.86,187Z" fill="#dfeaef"/><path d="M258.57,160.11a1,1,0,0,1-1-1v-41.3a1,1,0,0,1,2,0v41.3A1,1,0,0,1,258.57,160.11Z" fill="#dfeaef"/><path d="M246.49,119.56a1,1,0,0,1-1-1v-28a1,1,0,0,1,2,0v28A1,1,0,0,1,246.49,119.56Z" fill="#dfeaef"/><path d="M242.67,93.19a1,1,0,0,1-1-1V85.34a1,1,0,0,1,2,0v6.85A1,1,0,0,1,242.67,93.19Z" fill="#dfeaef"/><path d="M253,91.59a1,1,0,0,1-1-1V83.84a1,1,0,0,1,2,0v6.75A1,1,0,0,1,253,91.59Z" fill="#dfeaef"/><path d="M264.49,207.9a1,1,0,0,1-1-1V166a1,1,0,0,1,1-1h22.24a1,1,0,0,1,0,2H265.49V206.9A1,1,0,0,1,264.49,207.9Z" fill="#dfeaef"/></svg>