<svg xmlns="http://www.w3.org/2000/svg" viewBox="0 0 400 300"><g id="_385_chichen_itza_outline" data-name="#385_chichen_itza_outline"><path d="M293.85,150a93.32,93.32,0,0,1-7.56,36.94q-1.26,3-2.72,5.81a94.34,94.34,0,0,1-8.18,13.14A92.89,92.89,0,0,1,263.56,219a94,94,0,0,1-18.21,13.14c-1.63.91-3.3,1.76-5,2.57-2.52,1.2-5.11,2.3-7.75,3.27a94.14,94.14,0,0,1-65.39-.06q-4-1.47-7.73-3.29-2.46-1.17-4.84-2.49A94,94,0,0,1,136.44,219a92.89,92.89,0,0,1-11.83-13.15,94.34,94.34,0,0,1-8.18-13.14q-1.53-3-2.85-6.09A93.86,93.86,0,1,1,293.85,150Z" fill="#fff"/><path d="M200,244.85a94.36,94.36,0,0,1-33.13-5.95c-2.64-1-5.27-2.1-7.81-3.33-1.62-.77-3.27-1.61-4.89-2.51a95.42,95.42,0,0,1-18.41-13.28,94.46,94.46,0,0,1-11.95-13.29,96,96,0,0,1-8.27-13.28c-1-2-2-4.08-2.88-6.16a94.86,94.86,0,1,1,174.55.28c-.83,2-1.76,3.94-2.75,5.87a95.53,95.53,0,0,1-8.27,13.29,94.46,94.46,0,0,1-11.95,13.29,95.42,95.42,0,0,1-18.41,13.28c-1.53.85-3.18,1.7-5,2.59-2.6,1.24-5.24,2.35-7.83,3.31A94.37,94.37,0,0,1,200,244.85Zm0-187.7a92.9,92.9,0,0,0-85.5,129.12c.87,2,1.81,4.06,2.82,6a93.84,93.84,0,0,0,8.09,13,91.2,91.2,0,0,0,11.71,13,93.27,93.27,0,0,0,18,13c1.59.88,3.2,1.7,4.79,2.46,2.49,1.2,5.06,2.29,7.65,3.25a93.09,93.09,0,0,0,64.69.06c2.54-.93,5.12-2,7.67-3.23,1.82-.87,3.43-1.7,4.93-2.54a93,93,0,0,0,18-13,91.2,91.2,0,0,0,11.71-13,93.84,93.84,0,0,0,8.09-13c1-1.89,1.87-3.83,2.69-5.74A92.88,92.88,0,0,0,200,57.15Z" fill="#093f68"/><polygon points="233.11 140.18 166.71 140.18 168.67 127.03 231.16 127.03 233.11 140.18" fill="#68e1fd"/><path d="M233.11,141.18h-66.4a1,1,0,0,1-.75-.35,1,1,0,0,1-.23-.8l2-13.14a1,1,0,0,1,1-.86h62.49a1,1,0,0,1,1,.86L234.1,140a1,1,0,0,1-.23.8A1,1,0,0,1,233.11,141.18Zm-65.23-2H232L230.29,128H169.54Z" fill="#093f68"/><polygon points="245.19 153.32 154.64 153.32 157.31 140.18 242.52 140.18 245.19 153.32" fill="#68e1fd"/><path d="M245.19,154.32H154.64a1,1,0,0,1-1-1.2L156.33,140a1,1,0,0,1,1-.8h85.21a1,1,0,0,1,1,.8l2.67,13.14a1,1,0,0,1-1,1.2Zm-89.33-2H244l-2.27-11.14H158.12Z" fill="#093f68"/><polygon points="260.21 166.46 139.62 166.46 143.18 153.32 256.65 153.32 260.21 166.46" fill="#68e1fd"/><path d="M260.21,167.46H139.62a1,1,0,0,1-1-1.26l3.56-13.14a1,1,0,0,1,1-.74H256.65a1,1,0,0,1,1,.74l3.56,13.14a1,1,0,0,1-.18.87A1,1,0,0,1,260.21,167.46Zm-119.29-2h118l-3-11.14H143.94Z" fill="#093f68"/><polygon points="272.5 179.61 127.33 179.61 129.92 166.46 269.91 166.46 272.5 179.61" fill="#68e1fd"/><path d="M272.5,180.61H127.33a1,1,0,0,1-1-1.2l2.6-13.14a1,1,0,0,1,1-.81h140a1,1,0,0,1,1,.81l2.59,13.14a1,1,0,0,1-.2.83A1,1,0,0,1,272.5,180.61Zm-144-2H271.29l-2.2-11.15H130.74Z" fill="#093f68"/><path d="M116.43,192.75H283.57q1.46-2.85,2.72-5.81l-1.38-7.33h-170l-1.34,7Z" fill="#68e1fd"/><path d="M283.57,193.75H116.43a1,1,0,0,1-.91-.58l-2.85-6.09a1,1,0,0,1-.07-.61l1.34-7.05a1,1,0,0,1,1-.81h170a1,1,0,0,1,1,.81l1.38,7.33a1,1,0,0,1-.06.58c-.83,2-1.76,3.94-2.75,5.87A1,1,0,0,1,283.57,193.75Zm-166.5-2H283c.81-1.63,1.58-3.28,2.29-4.92l-1.17-6.22H115.75l-1.13,5.92Z" fill="#093f68"/><path d="M283.57,192.75a94.34,94.34,0,0,1-8.18,13.14H124.61a94.34,94.34,0,0,1-8.18-13.14Z" fill="#68e1fd"/><path d="M275.39,206.89H124.61a1,1,0,0,1-.8-.4,96,96,0,0,1-8.27-13.28,1,1,0,0,1,.89-1.46H283.57a1,1,0,0,1,.89,1.46,96,96,0,0,1-8.27,13.28A1,1,0,0,1,275.39,206.89Zm-150.28-2H274.89a95,95,0,0,0,7-11.14H118.08A95,95,0,0,0,125.11,204.89Z" fill="#093f68"/><path d="M275.39,205.89A92.89,92.89,0,0,1,263.56,219H136.44a92.89,92.89,0,0,1-11.83-13.15Z" fill="#68e1fd"/><path d="M263.56,220H136.44a1,1,0,0,1-.68-.26,94.46,94.46,0,0,1-11.95-13.29,1,1,0,0,1-.09-1.05,1,1,0,0,1,.89-.55H275.39a1,1,0,0,1,.89.55,1,1,0,0,1-.09,1.05,94.46,94.46,0,0,1-11.95,13.29A1,1,0,0,1,263.56,220Zm-126.73-2H263.17a91.62,91.62,0,0,0,10.21-11.15H126.62A91.62,91.62,0,0,0,136.83,218Z" fill="#093f68"/><path d="M263.56,219a94,94,0,0,1-18.21,13.14h-90.7A94,94,0,0,1,136.44,219Z" fill="#68e1fd"/><path d="M245.35,233.18h-90.7a1,1,0,0,1-.48-.12,95.42,95.42,0,0,1-18.41-13.28,1,1,0,0,1-.25-1.1,1,1,0,0,1,.93-.64H263.56a1,1,0,0,1,.93.64,1,1,0,0,1-.25,1.1,95.42,95.42,0,0,1-18.41,13.28A1,1,0,0,1,245.35,233.18Zm-90.44-2h90.18A93.9,93.9,0,0,0,261,220H139.05A93.9,93.9,0,0,0,154.91,231.18Z" fill="#093f68"/><path d="M245.35,232.18c-1.63.91-3.3,1.76-5,2.57-2.52,1.2-5.11,2.3-7.75,3.27a94.14,94.14,0,0,1-65.39-.06q-4-1.47-7.73-3.29-2.46-1.17-4.84-2.49Z" fill="#68e1fd"/><path d="M200,244.85a94.36,94.36,0,0,1-33.13-5.95c-2.64-1-5.27-2.1-7.81-3.33-1.62-.77-3.27-1.61-4.89-2.51a1,1,0,0,1-.49-1.13,1,1,0,0,1,1-.75h90.7a1,1,0,0,1,.49,1.87c-1.54.86-3.19,1.71-5.05,2.6-2.6,1.24-5.24,2.35-7.83,3.31A94.37,94.37,0,0,1,200,244.85Zm-41.29-11.67,1.21.59c2.49,1.2,5.06,2.29,7.65,3.25a93.09,93.09,0,0,0,64.69.06c2.54-.93,5.12-2,7.67-3.23l1.37-.67Z" fill="#093f68"/><path d="M240.36,234.75c-2.52,1.2-5.11,2.3-7.75,3.27a94.14,94.14,0,0,1-65.39-.06q-4-1.47-7.73-3.29l.45-2.49L162.3,219l2.37-13.15L167,192.75l2.37-13.14,2.36-13.15,2.37-13.14,2.36-13.14L178.86,127H221l2.37,13.15,2.36,13.14,2.37,13.14,2.36,13.15,2.37,13.14,2.36,13.14L237.53,219l2.36,13.14Z" fill="#68e1fd"/><path d="M200,244.85a94.36,94.36,0,0,1-33.13-5.95c-2.64-1-5.27-2.1-7.81-3.33a1,1,0,0,1-.55-1.08l19.37-107.64a1,1,0,0,1,1-.82H221a1,1,0,0,1,1,.82l19.39,107.72a1,1,0,0,1-.55,1.08c-2.6,1.24-5.24,2.35-7.83,3.31A94.37,94.37,0,0,1,200,244.85ZM160.61,234.1c2.27,1.07,4.61,2.05,7,2.92a93.09,93.09,0,0,0,64.69.06c2.31-.85,4.66-1.82,7-2.91L220.13,128H179.7Z" fill="#093f68"/><path d="M200,244.85a94.36,94.36,0,0,1-33.13-5.95,1,1,0,0,1-.64-1.08l15.92-110.93a1,1,0,0,1,1-.86h33.55a1,1,0,0,1,1,.86l15.92,111A1,1,0,0,1,233,239,94.37,94.37,0,0,1,200,244.85Zm-31.68-7.55a93.15,93.15,0,0,0,63.18.06L215.82,128H184Z" fill="#093f68"/><rect x="175.27" y="108.74" width="49.29" height="18.29" fill="#68e1fd"/><path d="M224.56,128H175.27a1,1,0,0,1-1-1V108.74a1,1,0,0,1,1-1h49.29a1,1,0,0,1,1,1V127A1,1,0,0,1,224.56,128Zm-48.29-2h47.29V109.74H176.27Z" fill="#093f68"/><rect x="172.19" y="100.8" width="55.46" height="7.94" fill="#68e1fd"/><path d="M227.64,109.74H172.19a1,1,0,0,1-1-1V100.8a1,1,0,0,1,1-1h55.45a1,1,0,0,1,1,1v7.94A1,1,0,0,1,227.64,109.74Zm-54.45-2h53.45V101.8H173.19Z" fill="#093f68"/><path d="M199.48,115.84h.88a5.16,5.16,0,0,1,5.16,5.16v6a0,0,0,0,1,0,0H194.32a0,0,0,0,1,0,0v-6A5.16,5.16,0,0,1,199.48,115.84Z" fill="#093f68"/><path d="M205.51,128H194.32a1,1,0,0,1-1-1v-6a6.16,6.16,0,0,1,6.16-6.16h.87a6.16,6.16,0,0,1,6.16,6.16v6A1,1,0,0,1,205.51,128Zm-10.19-2h9.19v-5a4.16,4.16,0,0,0-4.16-4.16h-.87a4.16,4.16,0,0,0-4.16,4.16Z" fill="#093f68"/><path d="M177.69,90.56H150.4c-3.28,0-6-2.17-6-4.84a5,5,0,0,1,3.88-4.54A6.92,6.92,0,0,1,154,77.73c.7-2.54,3.51-4.42,6.82-4.42a7.38,7.38,0,0,1,6.22,3,10.56,10.56,0,0,1,4.46-1c4.37,0,8.1,2.57,8.82,6a4.86,4.86,0,0,1,3.34,4.35C183.64,88.39,181,90.56,177.69,90.56ZM154.82,79.69c-2.26,0-4.24,1.11-4.84,2.7a1,1,0,0,1-.72.62c-1.65.36-2.81,1.48-2.81,2.71,0,1.54,1.81,2.84,4,2.84h27.29c2.14,0,3.95-1.3,3.95-2.84a3.07,3.07,0,0,0-2.51-2.64,1,1,0,0,1-.72-.87c-.26-2.69-3.3-4.8-6.93-4.8a8.39,8.39,0,0,0-4.38,1.17,1,1,0,0,1-.85.09,1,1,0,0,1-.61-.61c-.57-1.62-2.56-2.75-4.84-2.75-2.65,0-4.84,1.52-5,3.46a1,1,0,0,1-1,.92ZM149.05,82h0Z" fill="#dfeaef"/><path d="M168.6,82.93a1,1,0,0,1-1-.83,4.25,4.25,0,0,0-1.7-2.6,4.33,4.33,0,0,0-3.61-.12,1,1,0,0,1-1.25-.65,1,1,0,0,1,.65-1.26,5.63,5.63,0,0,1,7.88,4.3,1,1,0,0,1-.82,1.15Z" fill="#dfeaef"/><path d="M146.22,134.3H123.81c-2.79,0-5.07-1.87-5.07-4.16a4.16,4.16,0,0,1,2.77-3.7c.65-2.86,3.7-4.94,7.4-4.94a8.93,8.93,0,0,1,3.59.73,6.22,6.22,0,0,1,5.18-2.46c2.75,0,5.1,1.54,5.74,3.65a5.87,5.87,0,0,1,4.63,2.85,4.27,4.27,0,0,1,3.24,3.87C151.29,132.43,149,134.3,146.22,134.3Zm-17.31-10.8c-2.89,0-5.31,1.66-5.51,3.78a1,1,0,0,1-.72.87,2.35,2.35,0,0,0-1.94,2c0,1.17,1.41,2.16,3.07,2.16h22.41c1.66,0,3.07-1,3.07-2.16,0-.92-.9-1.77-2.17-2a1,1,0,0,1-.72-.62,4,4,0,0,0-3.79-2.1,1,1,0,0,1-1-.92c-.11-1.48-1.87-2.68-3.92-2.68a3.93,3.93,0,0,0-3.81,2.14,1,1,0,0,1-.6.61,1,1,0,0,1-.86-.09A6.73,6.73,0,0,0,128.91,123.5Z" fill="#dfeaef"/><path d="M136.32,128.9a1,1,0,0,1-1-.93c-.15-2.26-2.78-3.47-2.81-3.48a1,1,0,0,1,.82-1.83c.15.07,3.76,1.71,4,5.18a1,1,0,0,1-.93,1.06Z" fill="#dfeaef"/><path d="M270.29,116.84H242.16c-3.36,0-6.1-2.22-6.1-5a5,5,0,0,1,3.44-4.46c.73-3.49,4.56-6.13,9.06-6.13a10.9,10.9,0,0,1,4.61,1,7.59,7.59,0,0,1,6.4-3.16c3.41,0,6.3,1.94,7,4.56a7.09,7.09,0,0,1,5.82,3.55,5.14,5.14,0,0,1,4,4.65C276.39,114.62,273.65,116.84,270.29,116.84Zm-21.73-13.55c-3.75,0-6.9,2.18-7.16,5a1,1,0,0,1-.73.87,3.18,3.18,0,0,0-2.61,2.74c0,1.63,1.84,3,4.1,3h28.13c2.26,0,4.1-1.33,4.1-3,0-1.28-1.2-2.44-2.92-2.82a1,1,0,0,1-.72-.62c-.63-1.65-2.68-2.8-5-2.8a1,1,0,0,1-1-.93c-.15-2-2.42-3.59-5.17-3.59-2.36,0-4.42,1.17-5,2.86a1,1,0,0,1-1.46.52A8.62,8.62,0,0,0,248.56,103.29Z" fill="#dfeaef"/><path d="M249.55,108.49a1,1,0,0,1-.76-1.65c4.9-5.72,10.2-1.8,10.26-1.76a1,1,0,0,1-1.21,1.6c-.4-.3-3.94-2.73-7.53,1.46A1,1,0,0,1,249.55,108.49Z" fill="#dfeaef"/></g></svg>