<svg xmlns="http://www.w3.org/2000/svg" viewBox="0 0 400 300"><g id="_228_city_buildings_outline" data-name="#228_city_buildings_outline"><rect x="206" y="120.72" width="23.32" height="102.44" fill="#093f68"/><path d="M229.31,224.16H206a1,1,0,0,1-1-1V120.72a1,1,0,0,1,1-1h23.31a1,1,0,0,1,1,1V223.16A1,1,0,0,1,229.31,224.16Zm-22.31-2h21.31V121.72H207Z" fill="#093f68"/><rect x="130.57" y="127.78" width="72.98" height="104.77" fill="#093f68"/><path d="M203.55,233.55h-73a1,1,0,0,1-1-1V127.78a1,1,0,0,1,1-1h73a1,1,0,0,1,1,1V232.55A1,1,0,0,1,203.55,233.55Zm-72-2h71V128.78h-71Z" fill="#093f68"/><polygon points="239.58 130.23 276.97 118.28 276.97 232.39 239.58 232.39 239.58 130.23" fill="#093f68"/><path d="M277,233.39H239.58a1,1,0,0,1-1-1V130.23a1,1,0,0,1,.7-.95l37.39-12a1,1,0,0,1,.89.15,1,1,0,0,1,.41.81V232.39A1,1,0,0,1,277,233.39Zm-36.39-2H276V119.65L240.58,131Z" fill="#093f68"/><polygon points="204.6 107 204.6 96.67 198.31 96.67 198.31 88.67 192.67 88.67 192.67 80.15 176.74 80.15 176.74 88.67 171.1 88.67 171.1 96.67 164.81 96.67 164.81 107 157.87 107 157.87 232.39 211.54 232.39 211.54 107 204.6 107" fill="#fff"/><path d="M211.54,233.39H157.87a1,1,0,0,1-1-1V107a1,1,0,0,1,1-1h5.94V96.67a1,1,0,0,1,1-1h5.29v-7a1,1,0,0,1,1-1h4.64V80.15a1,1,0,0,1,1-1h15.93a1,1,0,0,1,1,1v7.52h4.64a1,1,0,0,1,1,1v7h5.29a1,1,0,0,1,1,1V106h5.94a1,1,0,0,1,1,1V232.39A1,1,0,0,1,211.54,233.39Zm-52.67-2h51.67V108H204.6a1,1,0,0,1-1-1V97.67h-5.29a1,1,0,0,1-1-1v-7h-4.64a1,1,0,0,1-1-1V81.15H177.74v7.52a1,1,0,0,1-1,1H172.1v7a1,1,0,0,1-1,1h-5.29V107a1,1,0,0,1-1,1h-5.94Z" fill="#093f68"/><rect x="169.08" y="111.15" width="6.05" height="121.4" fill="#68e1fd"/><path d="M175.13,233.55h-6a1,1,0,0,1-1-1V111.15a1,1,0,0,1,1-1h6a1,1,0,0,1,1,1v121.4A1,1,0,0,1,175.13,233.55Zm-5-2h4V112.15h-4Z" fill="#093f68"/><rect x="181.68" y="111.15" width="6.05" height="121.4" fill="#68e1fd"/><path d="M187.73,233.55h-6a1,1,0,0,1-1-1V111.15a1,1,0,0,1,1-1h6a1,1,0,0,1,1,1v121.4A1,1,0,0,1,187.73,233.55Zm-5-2h4V112.15h-4Z" fill="#093f68"/><rect x="194.28" y="111.15" width="6.05" height="121.4" fill="#68e1fd"/><path d="M200.33,233.55h-6.05a1,1,0,0,1-1-1V111.15a1,1,0,0,1,1-1h6.05a1,1,0,0,1,1,1v121.4A1,1,0,0,1,200.33,233.55Zm-5.05-2h4.05V112.15h-4.05Z" fill="#093f68"/><path d="M184.7,81.15a1,1,0,0,1-1-1V67.45a1,1,0,1,1,2,0v12.7A1,1,0,0,1,184.7,81.15Z" fill="#093f68"/><polygon points="147.44 148.99 147.44 142.94 119.85 142.94 119.85 148.99 112.23 148.99 112.23 232.39 155.07 232.39 155.07 148.99 147.44 148.99" fill="#fff"/><path d="M155.07,233.39H112.23a1,1,0,0,1-1-1V149a1,1,0,0,1,1-1h6.62v-5.05a1,1,0,0,1,1-1h27.59a1,1,0,0,1,1,1V148h6.63a1,1,0,0,1,1,1v83.4A1,1,0,0,1,155.07,233.39Zm-41.84-2h40.84V150h-6.63a1,1,0,0,1-1-1v-5.05H120.85V149a1,1,0,0,1-1,1h-6.62Z" fill="#093f68"/><rect x="118.77" y="154.47" width="11.8" height="4.91" fill="#68e1fd"/><path d="M130.57,160.38h-11.8a1,1,0,0,1-1-1v-4.91a1,1,0,0,1,1-1h11.8a1,1,0,0,1,1,1v4.91A1,1,0,0,1,130.57,160.38Zm-10.8-2h9.8v-2.91h-9.8Z" fill="#093f68"/><rect x="136.73" y="154.47" width="11.8" height="4.91" fill="#68e1fd"/><path d="M148.53,160.38h-11.8a1,1,0,0,1-1-1v-4.91a1,1,0,0,1,1-1h11.8a1,1,0,0,1,1,1v4.91A1,1,0,0,1,148.53,160.38Zm-10.8-2h9.8v-2.91h-9.8Z" fill="#093f68"/><rect x="118.77" y="165.07" width="11.8" height="4.91" fill="#68e1fd"/><path d="M130.57,171h-11.8a1,1,0,0,1-1-1v-4.91a1,1,0,0,1,1-1h11.8a1,1,0,0,1,1,1V170A1,1,0,0,1,130.57,171Zm-10.8-2h9.8v-2.91h-9.8Z" fill="#093f68"/><rect x="136.73" y="165.07" width="11.8" height="4.91" fill="#68e1fd"/><path d="M148.53,171h-11.8a1,1,0,0,1-1-1v-4.91a1,1,0,0,1,1-1h11.8a1,1,0,0,1,1,1V170A1,1,0,0,1,148.53,171Zm-10.8-2h9.8v-2.91h-9.8Z" fill="#093f68"/><rect x="118.77" y="175.67" width="11.8" height="4.91" fill="#68e1fd"/><path d="M130.57,181.58h-11.8a1,1,0,0,1-1-1v-4.91a1,1,0,0,1,1-1h11.8a1,1,0,0,1,1,1v4.91A1,1,0,0,1,130.57,181.58Zm-10.8-2h9.8v-2.91h-9.8Z" fill="#093f68"/><rect x="136.73" y="175.67" width="11.8" height="4.91" fill="#68e1fd"/><path d="M148.53,181.58h-11.8a1,1,0,0,1-1-1v-4.91a1,1,0,0,1,1-1h11.8a1,1,0,0,1,1,1v4.91A1,1,0,0,1,148.53,181.58Zm-10.8-2h9.8v-2.91h-9.8Z" fill="#093f68"/><rect x="118.77" y="186.27" width="11.8" height="4.91" fill="#68e1fd"/><path d="M130.57,192.18h-11.8a1,1,0,0,1-1-1v-4.91a1,1,0,0,1,1-1h11.8a1,1,0,0,1,1,1v4.91A1,1,0,0,1,130.57,192.18Zm-10.8-2h9.8v-2.91h-9.8Z" fill="#093f68"/><rect x="136.73" y="186.27" width="11.8" height="4.91" fill="#68e1fd"/><path d="M148.53,192.18h-11.8a1,1,0,0,1-1-1v-4.91a1,1,0,0,1,1-1h11.8a1,1,0,0,1,1,1v4.91A1,1,0,0,1,148.53,192.18Zm-10.8-2h9.8v-2.91h-9.8Z" fill="#093f68"/><rect x="118.77" y="196.87" width="11.8" height="4.91" fill="#68e1fd"/><path d="M130.57,202.78h-11.8a1,1,0,0,1-1-1v-4.91a1,1,0,0,1,1-1h11.8a1,1,0,0,1,1,1v4.91A1,1,0,0,1,130.57,202.78Zm-10.8-2h9.8v-2.91h-9.8Z" fill="#093f68"/><rect x="136.73" y="196.87" width="11.8" height="4.91" fill="#68e1fd"/><path d="M148.53,202.78h-11.8a1,1,0,0,1-1-1v-4.91a1,1,0,0,1,1-1h11.8a1,1,0,0,1,1,1v4.91A1,1,0,0,1,148.53,202.78Zm-10.8-2h9.8v-2.91h-9.8Z" fill="#093f68"/><rect x="118.77" y="207.47" width="11.8" height="4.91" fill="#68e1fd"/><path d="M130.57,213.38h-11.8a1,1,0,0,1-1-1v-4.91a1,1,0,0,1,1-1h11.8a1,1,0,0,1,1,1v4.91A1,1,0,0,1,130.57,213.38Zm-10.8-2h9.8v-2.91h-9.8Z" fill="#093f68"/><rect x="136.73" y="207.47" width="11.8" height="4.91" fill="#68e1fd"/><path d="M148.53,213.38h-11.8a1,1,0,0,1-1-1v-4.91a1,1,0,0,1,1-1h11.8a1,1,0,0,1,1,1v4.91A1,1,0,0,1,148.53,213.38Zm-10.8-2h9.8v-2.91h-9.8Z" fill="#093f68"/><rect x="118.77" y="218.07" width="11.8" height="4.91" fill="#68e1fd"/><path d="M130.57,224h-11.8a1,1,0,0,1-1-1v-4.91a1,1,0,0,1,1-1h11.8a1,1,0,0,1,1,1V223A1,1,0,0,1,130.57,224Zm-10.8-2h9.8v-2.91h-9.8Z" fill="#093f68"/><rect x="136.73" y="218.07" width="11.8" height="4.91" fill="#68e1fd"/><path d="M148.53,224h-11.8a1,1,0,0,1-1-1v-4.91a1,1,0,0,1,1-1h11.8a1,1,0,0,1,1,1V223A1,1,0,0,1,148.53,224Zm-10.8-2h9.8v-2.91h-9.8Z" fill="#093f68"/><rect x="206" y="186.78" width="78.06" height="45.61" fill="#fff"/><path d="M284.06,233.39H206a1,1,0,0,1-1-1V186.78a1,1,0,0,1,1-1h78.06a1,1,0,0,1,1,1v45.61A1,1,0,0,1,284.06,233.39Zm-77.06-2h76.06V187.78H207Z" fill="#093f68"/><rect x="214.11" y="193.67" width="10.82" height="6.74" fill="#68e1fd"/><path d="M224.93,201.41H214.11a1,1,0,0,1-1-1v-6.74a1,1,0,0,1,1-1h10.82a1,1,0,0,1,1,1v6.74A1,1,0,0,1,224.93,201.41Zm-9.82-2h8.82v-4.74h-8.82Z" fill="#093f68"/><rect x="231.12" y="193.67" width="10.82" height="6.74" fill="#68e1fd"/><path d="M241.94,201.41H231.12a1,1,0,0,1-1-1v-6.74a1,1,0,0,1,1-1h10.82a1,1,0,0,1,1,1v6.74A1,1,0,0,1,241.94,201.41Zm-9.82-2h8.82v-4.74h-8.82Z" fill="#093f68"/><rect x="248.12" y="193.67" width="10.82" height="6.74" fill="#68e1fd"/><path d="M258.94,201.41H248.12a1,1,0,0,1-1-1v-6.74a1,1,0,0,1,1-1h10.82a1,1,0,0,1,1,1v6.74A1,1,0,0,1,258.94,201.41Zm-9.82-2h8.82v-4.74h-8.82Z" fill="#093f68"/><rect x="265.12" y="193.67" width="10.82" height="6.74" fill="#68e1fd"/><path d="M275.94,201.41H265.12a1,1,0,0,1-1-1v-6.74a1,1,0,0,1,1-1h10.82a1,1,0,0,1,1,1v6.74A1,1,0,0,1,275.94,201.41Zm-9.82-2h8.82v-4.74h-8.82Z" fill="#093f68"/><rect x="214.11" y="205.02" width="10.82" height="6.74" fill="#68e1fd"/><path d="M224.93,212.76H214.11a1,1,0,0,1-1-1V205a1,1,0,0,1,1-1h10.82a1,1,0,0,1,1,1v6.74A1,1,0,0,1,224.93,212.76Zm-9.82-2h8.82V206h-8.82Z" fill="#093f68"/><rect x="231.12" y="205.02" width="10.82" height="6.74" fill="#68e1fd"/><path d="M241.94,212.76H231.12a1,1,0,0,1-1-1V205a1,1,0,0,1,1-1h10.82a1,1,0,0,1,1,1v6.74A1,1,0,0,1,241.94,212.76Zm-9.82-2h8.82V206h-8.82Z" fill="#093f68"/><rect x="248.12" y="205.02" width="10.82" height="6.74" fill="#68e1fd"/><path d="M258.94,212.76H248.12a1,1,0,0,1-1-1V205a1,1,0,0,1,1-1h10.82a1,1,0,0,1,1,1v6.74A1,1,0,0,1,258.94,212.76Zm-9.82-2h8.82V206h-8.82Z" fill="#093f68"/><rect x="265.12" y="205.02" width="10.82" height="6.74" fill="#68e1fd"/><path d="M275.94,212.76H265.12a1,1,0,0,1-1-1V205a1,1,0,0,1,1-1h10.82a1,1,0,0,1,1,1v6.74A1,1,0,0,1,275.94,212.76Zm-9.82-2h8.82V206h-8.82Z" fill="#093f68"/><rect x="214.11" y="216.37" width="10.82" height="6.74" fill="#68e1fd"/><path d="M224.93,224.11H214.11a1,1,0,0,1-1-1v-6.74a1,1,0,0,1,1-1h10.82a1,1,0,0,1,1,1v6.74A1,1,0,0,1,224.93,224.11Zm-9.82-2h8.82v-4.74h-8.82Z" fill="#093f68"/><rect x="231.12" y="216.37" width="10.82" height="6.74" fill="#68e1fd"/><path d="M241.94,224.11H231.12a1,1,0,0,1-1-1v-6.74a1,1,0,0,1,1-1h10.82a1,1,0,0,1,1,1v6.74A1,1,0,0,1,241.94,224.11Zm-9.82-2h8.82v-4.74h-8.82Z" fill="#093f68"/><rect x="248.12" y="216.37" width="10.82" height="6.74" fill="#68e1fd"/><path d="M258.94,224.11H248.12a1,1,0,0,1-1-1v-6.74a1,1,0,0,1,1-1h10.82a1,1,0,0,1,1,1v6.74A1,1,0,0,1,258.94,224.11Zm-9.82-2h8.82v-4.74h-8.82Z" fill="#093f68"/><rect x="265.12" y="216.37" width="10.82" height="6.74" fill="#68e1fd"/><path d="M275.94,224.11H265.12a1,1,0,0,1-1-1v-6.74a1,1,0,0,1,1-1h10.82a1,1,0,0,1,1,1v6.74A1,1,0,0,1,275.94,224.11Zm-9.82-2h8.82v-4.74h-8.82Z" fill="#093f68"/><rect x="288.93" y="191.18" width="20.65" height="30.04" rx="7.79" fill="#70cc40"/><path d="M301.79,222.22h-5.07a8.8,8.8,0,0,1-8.79-8.79V199a8.8,8.8,0,0,1,8.79-8.8h5.07a8.8,8.8,0,0,1,8.79,8.8v14.45A8.8,8.8,0,0,1,301.79,222.22Zm-5.07-30a6.8,6.8,0,0,0-6.79,6.8v14.45a6.8,6.8,0,0,0,6.79,6.79h5.07a6.79,6.79,0,0,0,6.79-6.79V199a6.8,6.8,0,0,0-6.79-6.8Z" fill="#093f68"/><path d="M299.26,233.55a1,1,0,0,1-1-1V199a1,1,0,0,1,2,0v33.58A1,1,0,0,1,299.26,233.55Z" fill="#093f68"/><line x1="299.26" y1="213.71" x2="304.86" y2="209.04" fill="#70cc40"/><path d="M299.26,214.71a1,1,0,0,1-.77-.36,1,1,0,0,1,.13-1.4l5.6-4.67a1,1,0,1,1,1.28,1.53l-5.6,4.67A1,1,0,0,1,299.26,214.71Z" fill="#093f68"/><line x1="299.26" y1="206.2" x2="293.4" y2="203.03" fill="#70cc40"/><path d="M299.25,207.2a.89.89,0,0,1-.47-.12l-5.86-3.17a1,1,0,0,1,.95-1.76l5.86,3.18a1,1,0,0,1,.4,1.35A1,1,0,0,1,299.25,207.2Z" fill="#093f68"/><path d="M293.77,233.55H105a1,1,0,0,1,0-2H293.77a1,1,0,0,1,0,2Z" fill="#093f68"/><path d="M307.26,233.55H90.42a1,1,0,0,1,0-2H307.26a1,1,0,0,1,0,2Z" fill="#093f68"/><rect x="93.45" y="185.33" width="23.16" height="33.69" rx="8.74" fill="#70cc40"/><path d="M107.87,220h-5.68a9.75,9.75,0,0,1-9.74-9.74V194.07a9.75,9.75,0,0,1,9.74-9.74h5.68a9.75,9.75,0,0,1,9.74,9.74v16.21A9.75,9.75,0,0,1,107.87,220Zm-5.68-33.69a7.75,7.75,0,0,0-7.74,7.74v16.21a7.75,7.75,0,0,0,7.74,7.74h5.68a7.75,7.75,0,0,0,7.74-7.74V194.07a7.75,7.75,0,0,0-7.74-7.74Z" fill="#093f68"/><path d="M105,194.07v37.65" fill="#70cc40"/><path d="M105,232.72a1,1,0,0,1-1-1V194.07a1,1,0,0,1,2,0v37.65A1,1,0,0,1,105,232.72Z" fill="#093f68"/><line x1="105.03" y1="210.6" x2="111.32" y2="205.36" fill="#70cc40"/><path d="M105,211.6a1,1,0,0,1-.77-.36,1,1,0,0,1,.13-1.41l6.29-5.24a1,1,0,0,1,1.4.13,1,1,0,0,1-.12,1.41l-6.29,5.24A1,1,0,0,1,105,211.6Z" fill="#093f68"/><line x1="105.03" y1="202.17" x2="98.46" y2="198.61" fill="#70cc40"/><path d="M105,203.17a1.07,1.07,0,0,1-.48-.12L98,199.49a1,1,0,0,1,1-1.76l6.57,3.56a1,1,0,0,1,.4,1.36A1,1,0,0,1,105,203.17Z" fill="#093f68"/></g></svg>