<svg xmlns="http://www.w3.org/2000/svg" viewBox="0 0 400 300"><g id="_227_city_buildings_outline" data-name="#227_city_buildings_outline"><circle cx="155.74" cy="92.27" r="25.74" fill="#ffbc0e"/><path d="M155.74,119a26.74,26.74,0,1,1,26.74-26.73A26.77,26.77,0,0,1,155.74,119Zm0-51.47a24.74,24.74,0,1,0,24.74,24.74A24.77,24.77,0,0,0,155.74,67.53Z" fill="#093f68"/><polygon points="205.22 83.73 205.22 70.51 171.01 70.51 171.01 83.73 158.07 83.73 158.07 231.32 217.81 231.32 217.81 83.73 205.22 83.73" fill="#68e1fd"/><path d="M217.81,232.32H158.07a1,1,0,0,1-1-1V83.73a1,1,0,0,1,1-1H170V70.51a1,1,0,0,1,1-1h34.21a1,1,0,0,1,1,1V82.73h11.59a1,1,0,0,1,1,1V231.32A1,1,0,0,1,217.81,232.32Zm-58.74-2h57.74V84.73H205.22a1,1,0,0,1-1-1V71.51H172V83.73a1,1,0,0,1-1,1H159.07Z" fill="#093f68"/><path d="M208.65,95.47h-46a1,1,0,0,1,0-2h46a1,1,0,0,1,0,2Z" fill="#093f68"/><path d="M208.65,111h-46a1,1,0,0,1,0-2h46a1,1,0,0,1,0,2Z" fill="#093f68"/><path d="M208.65,126.54h-46a1,1,0,0,1,0-2h46a1,1,0,0,1,0,2Z" fill="#093f68"/><polygon points="216.43 68.78 275.08 79.58 275.08 231.32 216.43 231.32 216.43 68.78" fill="#fff"/><path d="M275.08,232.32H216.43a1,1,0,0,1-1-1V68.78a1,1,0,0,1,.36-.77,1,1,0,0,1,.82-.21l58.66,10.8a1,1,0,0,1,.81,1V231.32A1,1,0,0,1,275.08,232.32Zm-57.65-2h56.65V80.42L217.43,70Z" fill="#093f68"/><path d="M227,224.72a1,1,0,0,1-1-1V85.85a1,1,0,0,1,2,0V223.72A1,1,0,0,1,227,224.72Z" fill="#093f68"/><path d="M239.2,224.72a1,1,0,0,1-1-1V85.85a1,1,0,1,1,2,0V223.72A1,1,0,0,1,239.2,224.72Z" fill="#093f68"/><path d="M251.38,224.72a1,1,0,0,1-1-1V85.85a1,1,0,0,1,2,0V223.72A1,1,0,0,1,251.38,224.72Z" fill="#093f68"/><path d="M263.57,224.72a1,1,0,0,1-1-1V85.85a1,1,0,1,1,2,0V223.72A1,1,0,0,1,263.57,224.72Z" fill="#093f68"/><rect x="127.88" y="104.43" width="53.6" height="126.89" fill="#fff"/><path d="M181.48,232.32h-53.6a1,1,0,0,1-1-1V104.43a1,1,0,0,1,1-1h53.6a1,1,0,0,1,1,1V231.32A1,1,0,0,1,181.48,232.32Zm-52.6-2h51.6V105.43h-51.6Z" fill="#093f68"/><rect x="188.26" y="147.94" width="56.35" height="83.39" fill="#fff"/><path d="M244.61,232.32H188.26a1,1,0,0,1-1-1V147.94a1,1,0,0,1,1-1h56.35a1,1,0,0,1,1,1v83.38A1,1,0,0,1,244.61,232.32Zm-55.35-2h54.35V148.94H189.26Z" fill="#093f68"/><rect x="201.07" y="136.94" width="31.12" height="10.99" fill="#fff"/><path d="M232.2,148.94H201.07a1,1,0,0,1-1-1v-11a1,1,0,0,1,1-1H232.2a1,1,0,0,1,1,1v11A1,1,0,0,1,232.2,148.94Zm-30.13-2H231.2v-9H202.07Z" fill="#093f68"/><path d="M141,220.66a1,1,0,0,1-1-1v-104a1,1,0,0,1,2,0v104A1,1,0,0,1,141,220.66Z" fill="#093f68"/><path d="M154.68,220.66a1,1,0,0,1-1-1v-104a1,1,0,0,1,2,0v104A1,1,0,0,1,154.68,220.66Z" fill="#093f68"/><path d="M168.41,220.66a1,1,0,0,1-1-1v-104a1,1,0,1,1,2,0v104A1,1,0,0,1,168.41,220.66Z" fill="#093f68"/><rect x="210.99" y="178.02" width="69.55" height="55.36" fill="#68e1fd"/><path d="M280.53,234.38H211a1,1,0,0,1-1-1V178a1,1,0,0,1,1-1h69.54a1,1,0,0,1,1,1v55.36A1,1,0,0,1,280.53,234.38Zm-68.54-2h67.54V179H212Z" fill="#093f68"/><path d="M228.81,202.72h-8.37a1,1,0,0,1,0-2h8.37a1,1,0,0,1,0,2Z" fill="#093f68"/><path d="M243,202.72H234.6a1,1,0,0,1,0-2H243a1,1,0,0,1,0,2Z" fill="#093f68"/><path d="M257.13,202.72h-8.37a1,1,0,0,1,0-2h8.37a1,1,0,0,1,0,2Z" fill="#093f68"/><path d="M271.29,202.72h-8.37a1,1,0,0,1,0-2h8.37a1,1,0,0,1,0,2Z" fill="#093f68"/><path d="M228.81,210.32h-8.37a1,1,0,0,1,0-2h8.37a1,1,0,0,1,0,2Z" fill="#093f68"/><path d="M243,210.32H234.6a1,1,0,1,1,0-2H243a1,1,0,0,1,0,2Z" fill="#093f68"/><path d="M257.13,210.32h-8.37a1,1,0,0,1,0-2h8.37a1,1,0,0,1,0,2Z" fill="#093f68"/><path d="M271.29,210.32h-8.37a1,1,0,0,1,0-2h8.37a1,1,0,0,1,0,2Z" fill="#093f68"/><path d="M292.88,235S286,218.79,272.79,216.5c-7.51-1.31-14.65,4.26-14.65,4.26-2.88-6.72-9.6-11.53-16.92-13.15s-15.12-.29-21.93,2.78c-1.74.79-3.7,2.2-3.33,4-.92-5.37-4.9-10.33-10.3-11.78s-11.88,1.25-13.85,6.35a21.06,21.06,0,0,0-10.52-9.18A26,26,0,0,0,159.52,201c-6.07,3.25-12.86,10.36-10.32,17.64-5.49-4-13.07-4.57-19.56-2.35-9.9,3.39-12.76,18.77-12.76,18.77Z" fill="#70cc40"/><path d="M292.88,236h-176a1,1,0,0,1-.77-.36,1,1,0,0,1-.21-.83c.12-.65,3.08-16,13.41-19.53a23.24,23.24,0,0,1,18.43,1.2c-.44-5.15,2.69-11.81,11.3-16.42a26.8,26.8,0,0,1,22.63-1.21,22.32,22.32,0,0,1,10.06,8,13.18,13.18,0,0,1,14.19-5.26,15.54,15.54,0,0,1,10.22,9.62,8.81,8.81,0,0,1,2.74-1.81c7.52-3.39,15.53-4.4,22.56-2.85,7.54,1.67,14,6.46,17.1,12.63,2.31-1.53,8.18-4.84,14.42-3.75,13.57,2.36,20.55,18.45,20.84,19.14a1,1,0,0,1-.09.94A1,1,0,0,1,292.88,236Zm-174.74-2H291.29c-2-3.9-8.41-14.77-18.67-16.56-7-1.21-13.79,4-13.86,4.07a1,1,0,0,1-1.53-.39c-2.63-6.12-8.85-10.94-16.23-12.57-6.6-1.47-14.17-.5-21.3,2.71-1.45.66-2.92,1.74-2.77,2.84l0,.11a1,1,0,0,1-2,.37.55.55,0,0,1,0-.17,13.76,13.76,0,0,0-9.56-10.85c-5.13-1.37-10.92,1.26-12.65,5.74a1,1,0,0,1-1.81.12,20,20,0,0,0-10-8.72A24.75,24.75,0,0,0,160,201.87c-5.28,2.82-12.25,9.52-9.84,16.42a1,1,0,0,1-.35,1.13,1,1,0,0,1-1.19,0c-4.94-3.61-12.08-4.46-18.65-2.22C122.29,219.84,119,230.46,118.14,234Z" fill="#093f68"/><path d="M198.85,216.19a1,1,0,0,1-.93-.63c-.13-.32-3.1-7.48-13.16-4.8a1,1,0,1,1-.52-1.93c11.86-3.15,15.51,5.91,15.54,6a1,1,0,0,1-.57,1.29A.92.92,0,0,1,198.85,216.19Z" fill="#093f68"/><path d="M140.46,226a1,1,0,0,1-.5-.14,1,1,0,0,1-.37-1.36c.06-.11,6.22-10.54,18.19-5.8a1,1,0,0,1,.56,1.29,1,1,0,0,1-1.3.57,12.4,12.4,0,0,0-15.71,4.94A1,1,0,0,1,140.46,226Z" fill="#093f68"/><path d="M263.43,224.72a1.07,1.07,0,0,1-.52-.14c-6.64-4-11.5-2.54-11.55-2.52a1,1,0,0,1-.63-1.9c.23-.07,5.73-1.83,13.22,2.71a1,1,0,0,1,.33,1.37A1,1,0,0,1,263.43,224.72Z" fill="#093f68"/><path d="M228.81,187.52h-8.37a1,1,0,0,1,0-2h8.37a1,1,0,0,1,0,2Z" fill="#093f68"/><path d="M243,187.52H234.6a1,1,0,0,1,0-2H243a1,1,0,0,1,0,2Z" fill="#093f68"/><path d="M257.13,187.52h-8.37a1,1,0,0,1,0-2h8.37a1,1,0,0,1,0,2Z" fill="#093f68"/><path d="M271.29,187.52h-8.37a1,1,0,0,1,0-2h8.37a1,1,0,0,1,0,2Z" fill="#093f68"/><path d="M228.81,195.12h-8.37a1,1,0,0,1,0-2h8.37a1,1,0,0,1,0,2Z" fill="#093f68"/><path d="M243,195.12H234.6a1,1,0,0,1,0-2H243a1,1,0,1,1,0,2Z" fill="#093f68"/><path d="M257.13,195.12h-8.37a1,1,0,0,1,0-2h8.37a1,1,0,0,1,0,2Z" fill="#093f68"/><path d="M271.29,195.12h-8.37a1,1,0,0,1,0-2h8.37a1,1,0,0,1,0,2Z" fill="#093f68"/><rect x="207.89" y="169.34" width="75.74" height="8.68" rx="2.55" fill="#68e1fd"/><path d="M281.08,179H210.43a3.55,3.55,0,0,1-3.54-3.55v-3.58a3.55,3.55,0,0,1,3.54-3.55h70.65a3.55,3.55,0,0,1,3.55,3.55v3.58A3.55,3.55,0,0,1,281.08,179Zm-70.65-8.68a1.55,1.55,0,0,0-1.54,1.55v3.58a1.54,1.54,0,0,0,1.54,1.55h70.65a1.55,1.55,0,0,0,1.55-1.55v-3.58a1.56,1.56,0,0,0-1.55-1.55Z" fill="#093f68"/></g></svg>