<svg xmlns="http://www.w3.org/2000/svg" viewBox="0 0 400 300"><g id="_314_click_here_outline" data-name="#314_click_here_outline"><rect x="92.66" y="120.77" width="214.28" height="62.89" rx="31.44" fill="#093f68"/><path d="M275.49,184.65H124.1a32.44,32.44,0,1,1,0-64.88H275.49a32.44,32.44,0,1,1,0,64.88ZM124.1,121.77a30.44,30.44,0,1,0,0,60.88H275.49a30.44,30.44,0,1,0,0-60.88Z" fill="#093f68"/><rect x="92.66" y="112.75" width="214.28" height="62.89" rx="31.44" fill="#68e1fd"/><path d="M275.49,176.64H124.1a32.45,32.45,0,0,1,0-64.89H275.49a32.45,32.45,0,1,1,0,64.89ZM124.1,113.75a30.45,30.45,0,0,0,0,60.89H275.49a30.45,30.45,0,1,0,0-60.89Z" fill="#093f68"/><path d="M311.48,156.76l-33.43-9.47a1.88,1.88,0,0,0-2.32,2.32L285.2,183a1.88,1.88,0,0,0,3.13.82l6.69-6.69,11.29,11.29a2.69,2.69,0,0,0,3.8,0l6.44-6.45a2.67,2.67,0,0,0,0-3.79l-11.28-11.29,7-7A1.88,1.88,0,0,0,311.48,156.76Z" fill="#fff"/><path d="M308.21,190.25a3.69,3.69,0,0,1-2.61-1.08L295,178.59l-6,6a2.87,2.87,0,0,1-4.8-1.25l-9.47-33.44a2.87,2.87,0,0,1,3.55-3.55l33.43,9.47h0a2.87,2.87,0,0,1,1.25,4.8l-6.32,6.33,10.58,10.58a3.68,3.68,0,0,1,0,5.21l-6.45,6.45A3.67,3.67,0,0,1,308.21,190.25ZM295,176.17a1,1,0,0,1,.71.3L307,187.75a1.72,1.72,0,0,0,2.38,0l6.45-6.44a1.69,1.69,0,0,0,.49-1.2,1.66,1.66,0,0,0-.49-1.19l-11.29-11.29a1,1,0,0,1,0-1.41l7-7a.87.87,0,0,0-.38-1.46h0l-33.44-9.47a.84.84,0,0,0-.85.22.87.87,0,0,0-.23.86l9.47,33.43a.88.88,0,0,0,.62.61.86.86,0,0,0,.84-.23l6.69-6.68A1,1,0,0,1,295,176.17Z" fill="#093f68"/><path d="M276.87,140.72a1,1,0,0,1-1-1v-7.5a1,1,0,0,1,2,0v7.5A1,1,0,0,1,276.87,140.72Z" fill="#093f68"/><path d="M282.25,143a1,1,0,0,1-.71-.3,1,1,0,0,1,0-1.41l5.31-5.3a1,1,0,1,1,1.41,1.41l-5.3,5.3A1,1,0,0,1,282.25,143Z" fill="#093f68"/><path d="M266.18,159a1,1,0,0,1-.71-.29,1,1,0,0,1,0-1.41l5.3-5.31a1,1,0,1,1,1.42,1.42l-5.31,5.3A1,1,0,0,1,266.18,159Z" fill="#093f68"/><path d="M269.25,148.33h-7.5a1,1,0,0,1,0-2h7.5a1,1,0,0,1,0,2Z" fill="#093f68"/><path d="M271.48,143a1,1,0,0,1-.71-.3l-5.3-5.3a1,1,0,1,1,1.41-1.41l5.31,5.3a1,1,0,0,1,0,1.41A1,1,0,0,1,271.48,143Z" fill="#093f68"/><path d="M131.37,139.78a4.46,4.46,0,0,0-3.5-1.64,5.88,5.88,0,0,0-2.34.45,5.45,5.45,0,0,0-1.79,1.27,5.9,5.9,0,0,0-1.17,1.89,6.6,6.6,0,0,0-.41,2.33,7.31,7.31,0,0,0,.41,2.47,5.82,5.82,0,0,0,1.17,1.94,5.53,5.53,0,0,0,1.79,1.3,5.72,5.72,0,0,0,2.34.47,4.16,4.16,0,0,0,2-.49,5.34,5.34,0,0,0,1.78-1.53l2.44,1.73a6.62,6.62,0,0,1-2.75,2.26,8.55,8.55,0,0,1-3.45.7,9.65,9.65,0,0,1-3.54-.62,8,8,0,0,1-2.77-1.76,8.16,8.16,0,0,1-1.82-2.74,9.15,9.15,0,0,1-.66-3.54,9.62,9.62,0,0,1,.66-3.63,7.93,7.93,0,0,1,4.59-4.56,9.86,9.86,0,0,1,3.54-.62,8.08,8.08,0,0,1,3.13.6,7.31,7.31,0,0,1,2.69,2Z" fill="#fff"/><path d="M127.85,135.46a8.08,8.08,0,0,1,3.13.6,7.31,7.31,0,0,1,2.69,2l-2.3,1.69a4.46,4.46,0,0,0-3.5-1.64,5.88,5.88,0,0,0-2.34.45,5.45,5.45,0,0,0-1.79,1.27,5.9,5.9,0,0,0-1.17,1.89,6.6,6.6,0,0,0-.41,2.33,7.31,7.31,0,0,0,.41,2.47,5.82,5.82,0,0,0,1.17,1.94,5.53,5.53,0,0,0,1.79,1.3,5.72,5.72,0,0,0,2.34.47,4.16,4.16,0,0,0,2-.49,5.34,5.34,0,0,0,1.78-1.53l2.44,1.73a6.62,6.62,0,0,1-2.75,2.26,8.55,8.55,0,0,1-3.45.7,9.65,9.65,0,0,1-3.54-.62,8,8,0,0,1-2.77-1.76,8.16,8.16,0,0,1-1.82-2.74,9.15,9.15,0,0,1-.66-3.54,9.62,9.62,0,0,1,.66-3.63,7.93,7.93,0,0,1,4.59-4.56,9.86,9.86,0,0,1,3.54-.62m0-2a11.6,11.6,0,0,0-4.26.76,9.79,9.79,0,0,0-5.72,5.67,11.5,11.5,0,0,0-.81,4.38,11.37,11.37,0,0,0,.81,4.31,10.1,10.1,0,0,0,2.27,3.4,10.39,10.39,0,0,0,3.45,2.2,11.81,11.81,0,0,0,4.26.75,10.56,10.56,0,0,0,4.25-.87,8.75,8.75,0,0,0,3.57-2.91,2,2,0,0,0-.46-2.81l-2.44-1.73a2,2,0,0,0-1.16-.37A2,2,0,0,0,130,147a3.49,3.49,0,0,1-1.1,1,2.29,2.29,0,0,1-1.06.27,3.62,3.62,0,0,1-1.52-.3,3.46,3.46,0,0,1-1.14-.82,3.85,3.85,0,0,1-.76-1.28,5.27,5.27,0,0,1-.29-1.78,4.49,4.49,0,0,1,.29-1.62,3.73,3.73,0,0,1,.76-1.24,3.16,3.16,0,0,1,1.13-.79,3.67,3.67,0,0,1,1.53-.29,2.78,2.78,0,0,1,1,.19,3.11,3.11,0,0,1,1,.81,2,2,0,0,0,1.46.64,2,2,0,0,0,1.19-.39l2.3-1.69a2,2,0,0,0,.32-2.92,9.36,9.36,0,0,0-3.43-2.57,10.11,10.11,0,0,0-3.9-.75Z" fill="#093f68"/><path d="M136.05,135.88H139v14h7.08v2.68h-10Z" fill="#fff"/><path d="M139,135.88v14h7.08v2.68h-10V135.88H139m0-2h-2.95a2,2,0,0,0-2,2v16.63a2,2,0,0,0,2,2h10a2,2,0,0,0,2-2v-2.68a2,2,0,0,0-2-2H141v-12a2,2,0,0,0-2-2Z" fill="#093f68"/><path d="M148.16,135.88h3v16.63h-3Z" fill="#fff"/><path d="M151.12,135.88v16.63h-3V135.88h3m0-2h-3a2,2,0,0,0-2,2v16.63a2,2,0,0,0,2,2h3a2,2,0,0,0,2-2V135.88a2,2,0,0,0-2-2Z" fill="#093f68"/><path d="M166.18,139.78a4.46,4.46,0,0,0-3.5-1.64,5.88,5.88,0,0,0-2.34.45,5.45,5.45,0,0,0-1.79,1.27,5.9,5.9,0,0,0-1.17,1.89,6.6,6.6,0,0,0-.41,2.33,7.31,7.31,0,0,0,.41,2.47,5.82,5.82,0,0,0,1.17,1.94,5.53,5.53,0,0,0,1.79,1.3,5.72,5.72,0,0,0,2.34.47,4.19,4.19,0,0,0,2-.49,5.32,5.32,0,0,0,1.77-1.53l2.45,1.73a6.68,6.68,0,0,1-2.75,2.26,8.55,8.55,0,0,1-3.45.7,9.61,9.61,0,0,1-3.54-.62,7.91,7.91,0,0,1-4.59-4.5,9.15,9.15,0,0,1-.66-3.54,9.62,9.62,0,0,1,.66-3.63,7.93,7.93,0,0,1,4.59-4.56,9.82,9.82,0,0,1,3.54-.62,8.08,8.08,0,0,1,3.13.6,7.4,7.4,0,0,1,2.69,2Z" fill="#fff"/><path d="M162.66,135.46a8.08,8.08,0,0,1,3.13.6,7.4,7.4,0,0,1,2.69,2l-2.3,1.69a4.46,4.46,0,0,0-3.5-1.64,5.88,5.88,0,0,0-2.34.45,5.45,5.45,0,0,0-1.79,1.27,5.9,5.9,0,0,0-1.17,1.89,6.6,6.6,0,0,0-.41,2.33,7.31,7.31,0,0,0,.41,2.47,5.82,5.82,0,0,0,1.17,1.94,5.53,5.53,0,0,0,1.79,1.3,5.72,5.72,0,0,0,2.34.47,4.19,4.19,0,0,0,2-.49,5.32,5.32,0,0,0,1.77-1.53l2.45,1.73a6.68,6.68,0,0,1-2.75,2.26,8.55,8.55,0,0,1-3.45.7,9.61,9.61,0,0,1-3.54-.62,7.91,7.91,0,0,1-4.59-4.5,9.15,9.15,0,0,1-.66-3.54,9.62,9.62,0,0,1,.66-3.63,7.93,7.93,0,0,1,4.59-4.56,9.82,9.82,0,0,1,3.54-.62m0-2a11.6,11.6,0,0,0-4.26.76,10.06,10.06,0,0,0-3.46,2.21,10.3,10.3,0,0,0-2.27,3.46,11.69,11.69,0,0,0-.8,4.38,11.18,11.18,0,0,0,.81,4.31A10.1,10.1,0,0,0,155,152a10.39,10.39,0,0,0,3.45,2.2,11.81,11.81,0,0,0,4.26.75,10.56,10.56,0,0,0,4.25-.87,8.66,8.66,0,0,0,3.56-2.91,2,2,0,0,0,.36-1.5,2,2,0,0,0-.81-1.31l-2.45-1.73a2,2,0,0,0-2.73.4,3.71,3.71,0,0,1-1.1,1,2.29,2.29,0,0,1-1.06.27,3.62,3.62,0,0,1-1.52-.3,3.36,3.36,0,0,1-1.14-.82,3.85,3.85,0,0,1-.76-1.28,5.27,5.27,0,0,1-.29-1.78,4.48,4.48,0,0,1,.28-1.62,4.09,4.09,0,0,1,.76-1.24,3.29,3.29,0,0,1,1.14-.79,3.63,3.63,0,0,1,1.53-.29,2.78,2.78,0,0,1,1,.19,3,3,0,0,1,1,.81,2,2,0,0,0,1.47.64,2,2,0,0,0,1.18-.39l2.31-1.69a2,2,0,0,0,.32-2.92,9.36,9.36,0,0,0-3.43-2.57,10.15,10.15,0,0,0-3.9-.75Z" fill="#093f68"/><path d="M170.85,135.88h3v7.05H174l6.89-7.05h4l-7.78,7.68,8.3,8.95h-4.16L174,144.34h-.17v8.17h-3Z" fill="#fff"/><path d="M184.83,135.88h0m0,0-7.78,7.68,8.3,8.95h-4.16L174,144.34h-.17v8.17h-3V135.88h3v7.05H174l6.89-7.05h4m0-2h-4a2,2,0,0,0-1.43.6l-3.6,3.68v-2.28a2,2,0,0,0-2-2h-3a2,2,0,0,0-2,2v16.63a2,2,0,0,0,2,2h3a2,2,0,0,0,2-2v-3.07l3.88,4.39a2,2,0,0,0,1.5.68h4.16a2,2,0,0,0,1.46-3.36l-7-7.53,6.35-6.28a2,2,0,0,0,.64-1.46,2,2,0,0,0-2-2Zm0,4Z" fill="#093f68"/><path d="M193.89,135.88h3v6.63h7.78v-6.63h3v16.63h-3v-7.33h-7.78v7.33h-3Z" fill="#fff"/><path d="M207.59,135.88v16.63h-3v-7.33h-7.78v7.33h-3V135.88h3v6.63h7.78v-6.63h3m0-2h-3a2,2,0,0,0-2,2v4.63h-3.78v-4.63a2,2,0,0,0-2-2h-3a2,2,0,0,0-2,2v16.63a2,2,0,0,0,2,2h3a2,2,0,0,0,2-2v-5.33h3.78v5.33a2,2,0,0,0,2,2h3a2,2,0,0,0,2-2V135.88a2,2,0,0,0-2-2Z" fill="#093f68"/><path d="M211.3,135.88h11v2.68h-8.05v4.09h7.63v2.67h-7.63v4.51h8.48v2.68H211.3Z" fill="#fff"/><path d="M222.31,135.88v2.68h-8.05v4.09h7.63v2.67h-7.63v4.51h8.48v2.68H211.3V135.88h11m0-2h-11a2,2,0,0,0-2,2v16.63a2,2,0,0,0,2,2h11.44a2,2,0,0,0,2-2v-2.68a2,2,0,0,0-2-2h-6.48v-.51h5.63a2,2,0,0,0,2-2v-2.67a2,2,0,0,0-2-2h-5.63v-.09h6.05a2,2,0,0,0,2-2v-2.68a2,2,0,0,0-2-2Z" fill="#093f68"/><path d="M225.65,135.88h5.78a11.75,11.75,0,0,1,2.31.23,5.68,5.68,0,0,1,2,.76,4,4,0,0,1,1.39,1.45,4.78,4.78,0,0,1,.52,2.33,4.65,4.65,0,0,1-1,3,4.31,4.31,0,0,1-2.86,1.48l4.42,7.35h-3.57l-3.85-7h-2.16v7h-3Zm5.26,7.05c.42,0,.84,0,1.27-.06a3.87,3.87,0,0,0,1.16-.28,2.06,2.06,0,0,0,.86-.68,2.19,2.19,0,0,0,.33-1.28,2.08,2.08,0,0,0-.31-1.18,1.87,1.87,0,0,0-.8-.67,3.72,3.72,0,0,0-1.09-.29,9.36,9.36,0,0,0-1.16-.07h-2.56v4.51Z" fill="#fff"/><path d="M231.43,135.88a11.75,11.75,0,0,1,2.31.23,5.68,5.68,0,0,1,2,.76,4,4,0,0,1,1.39,1.45,4.78,4.78,0,0,1,.52,2.33,4.65,4.65,0,0,1-1,3,4.31,4.31,0,0,1-2.86,1.48l4.42,7.35h-3.57l-3.85-7h-2.16v7h-3V135.88h5.78m-2.82,7.05h2.3c.42,0,.84,0,1.27-.06a3.87,3.87,0,0,0,1.16-.28,2.06,2.06,0,0,0,.86-.68,2.19,2.19,0,0,0,.33-1.28,2.08,2.08,0,0,0-.31-1.18,1.87,1.87,0,0,0-.8-.67,3.72,3.72,0,0,0-1.09-.29,9.36,9.36,0,0,0-1.16-.07h-2.56v4.51m2.82-9.05h-5.78a2,2,0,0,0-2,2v16.63a2,2,0,0,0,2,2h3a2,2,0,0,0,2-2v-3.17l2.26,4.13a2,2,0,0,0,1.75,1h3.57a2,2,0,0,0,1.74-1,2,2,0,0,0,0-2l-3.16-5.27a6.16,6.16,0,0,0,1.44-1.26,7.23,7.23,0,0,0,.67-7.61,6.07,6.07,0,0,0-2.07-2.17,7.92,7.92,0,0,0-2.65-1,14.13,14.13,0,0,0-2.7-.26Zm-.82,6.54h.56a7.62,7.62,0,0,1,.93.06,1.43,1.43,0,0,1,.43.1v0c0,.05,0,.1,0,.13a2.06,2.06,0,0,1-.53.12c-.36,0-.72.05-1.08.05h-.3v-.51Z" fill="#093f68"/><path d="M240.44,135.88h11v2.68H243.4v4.09H251v2.67H243.4v4.51h8.48v2.68H240.44Z" fill="#fff"/><path d="M251.46,135.88v2.68H243.4v4.09H251v2.67H243.4v4.51h8.48v2.68H240.44V135.88h11m0-2h-11a2,2,0,0,0-2,2v16.63a2,2,0,0,0,2,2h11.44a2,2,0,0,0,2-2v-2.68a2,2,0,0,0-2-2H245.4v-.51H251a2,2,0,0,0,2-2v-2.67a2,2,0,0,0-2-2H245.4v-.09h6.06a2,2,0,0,0,2-2v-2.68a2,2,0,0,0-2-2Z" fill="#093f68"/></g></svg>