<svg id="_330_closed_store_online_outline" data-name="#330_closed_store_online_outline" xmlns="http://www.w3.org/2000/svg" viewBox="0 0 400 300"><path d="M237.55,187.55c7.75-.12,14.55,3,15.68,11,0,0,8.33-3.75,13.49.14,6.94,5.26,2.23,11.64,2.23,11.64,3.38-.18,9.8,3.61,10.71,9.24.78,4.79-1.37,10.61-8.6,10.61H217.75c1.28-2.3,1.26-5,1.41-7.68.55-9.58,5-16.31,10.23-23.9C233.84,192.17,228.65,187.68,237.55,187.55Z" fill="#70cc40"/><path d="M271.06,231.16H217.75a1,1,0,0,1-.86-.49,1,1,0,0,1,0-1c1-1.83,1.12-4,1.24-6.31l0-.94c.55-9.55,4.66-16.14,10.41-24.41a12,12,0,0,0,2.05-6c.39-3.31,1-5.32,6.92-5.41H238c8.74,0,14.48,3.83,16,10.61,2.6-.93,8.92-2.62,13.33.72,5.57,4.21,4.34,9.17,3.24,11.57,4,.79,9.23,4.68,10.09,9.94a10.82,10.82,0,0,1-2.08,8.66A9.5,9.5,0,0,1,271.06,231.16Zm-51.77-2h51.77a7.45,7.45,0,0,0,6-2.4,8.8,8.8,0,0,0,1.64-7c-.84-5.1-6.88-8.57-9.68-8.4a1,1,0,0,1-.86-1.6c.17-.22,4-5.66-2-10.24-4.61-3.49-12.4-.06-12.47,0a1,1,0,0,1-1.4-.77c-1.31-9.32-10.69-10.19-14.67-10.12l0-1,0,1c-4.54.07-4.66,1-5,3.64a14,14,0,0,1-2.39,7c-5.56,8-9.53,14.36-10.05,23.39l0,.92A20.46,20.46,0,0,1,219.29,229.16Z" fill="#093f68"/><path d="M175.39,230.35a30.66,30.66,0,0,0,.47-5.34c0-10.84-5.49-19.64-12.25-19.64a8.22,8.22,0,0,0-4,1.12c-.77-9.66-5.91-13.64-12.14-13.64-12.32,0-12.1,13.23-12.1,13.23-1.29-.85-15.14-3.51-17.38,10.28-1.53,9.45,8.2,14,8.2,14Z" fill="#70cc40"/><path d="M175.39,231.35H126.15a1.07,1.07,0,0,1-.43-.09c-.1,0-10.39-5-8.76-15.06,1.07-6.57,4.68-9.43,7.53-10.68a16.47,16.47,0,0,1,9.9-.8c.2-2.16,1-6.37,4-9.41a12.23,12.23,0,0,1,9.07-3.46c7.21,0,11.88,4.77,13,13.13a8.86,8.86,0,0,1,3.19-.61c7.3,0,13.25,9.26,13.25,20.64a32,32,0,0,1-.48,5.51A1,1,0,0,1,175.39,231.35Zm-49-2h48.16a30.18,30.18,0,0,0,.32-4.34c0-10.27-5.05-18.64-11.25-18.64a7.18,7.18,0,0,0-3.55,1,1,1,0,0,1-1,0,1,1,0,0,1-.53-.8c-.65-8.2-4.61-12.72-11.14-12.72a10.27,10.27,0,0,0-7.63,2.85c-3.51,3.56-3.47,9.31-3.47,9.37a1,1,0,0,1-.52.89,1,1,0,0,1-1,0,14.1,14.1,0,0,0-9.79.57c-3.3,1.57-5.34,4.61-6,9C117.64,224.5,125,228.67,126.38,229.35Z" fill="#093f68"/><path d="M249.79,79.35v141.3a9.9,9.9,0,0,1-10.08,9.7H159.5a9.9,9.9,0,0,1-10.09-9.7V79.35a9.9,9.9,0,0,1,10.09-9.7h80.21A9.9,9.9,0,0,1,249.79,79.35Z" fill="#68e1fd"/><path d="M239.71,231.35H159.5a10.91,10.91,0,0,1-11.09-10.7V79.35a10.91,10.91,0,0,1,11.09-10.7h80.21a10.91,10.91,0,0,1,11.08,10.7v141.3A10.91,10.91,0,0,1,239.71,231.35ZM159.5,70.65a8.91,8.91,0,0,0-9.09,8.7v141.3a8.91,8.91,0,0,0,9.09,8.7h80.21a8.9,8.9,0,0,0,9.08-8.7V79.35a8.9,8.9,0,0,0-9.08-8.7Z" fill="#093f68"/><rect x="149.73" y="88.36" width="99.74" height="120.32" fill="#fff"/><path d="M249.47,209.68H149.73a1,1,0,0,1-1-1V88.36a1,1,0,0,1,1-1h99.74a1,1,0,0,1,1,1V208.68A1,1,0,0,1,249.47,209.68Zm-98.74-2h97.74V89.36H150.73Z" fill="#093f68"/><circle cx="215.01" cy="79.97" r="1.56" fill="#093f68"/><path d="M207.56,81H182.63a1,1,0,0,1,0-2h24.93a1,1,0,0,1,0,2Z" fill="#093f68"/><path d="M199.6,225.6a6.68,6.68,0,1,1,6.67-6.67A6.68,6.68,0,0,1,199.6,225.6Zm0-11.35a4.68,4.68,0,1,0,4.67,4.68A4.68,4.68,0,0,0,199.6,214.25Z" fill="#093f68"/><polygon points="162.05 105.52 137.4 105.52 150.81 88.16 170.18 88.16 162.05 105.52" fill="#f56132"/><path d="M162.05,106.52H137.4a1,1,0,0,1-.9-.56,1,1,0,0,1,.11-1L150,87.55a1,1,0,0,1,.79-.39h19.37a1,1,0,0,1,.84.46,1,1,0,0,1,.07,1L163,105.94A1,1,0,0,1,162.05,106.52Zm-22.61-2h22l7.19-15.36H151.3Z" fill="#093f68"/><path d="M137.4,105.52h24.65a0,0,0,0,1,0,0v2.06a11.6,11.6,0,0,1-11.6,11.6H149a11.6,11.6,0,0,1-11.6-11.6v-2.06A0,0,0,0,1,137.4,105.52Z" fill="#f56132"/><path d="M150.46,120.18H149a12.61,12.61,0,0,1-12.6-12.6v-2.06a1,1,0,0,1,1-1h24.65a1,1,0,0,1,1,1v2.06A12.61,12.61,0,0,1,150.46,120.18ZM138.4,106.52v1.06a10.61,10.61,0,0,0,10.6,10.6h1.46a10.61,10.61,0,0,0,10.59-10.6v-1.06Z" fill="#093f68"/><polygon points="187.19 105.52 162.54 105.52 170.56 88.16 189.93 88.16 187.19 105.52" fill="#fff"/><path d="M187.19,106.52H162.54a1,1,0,0,1-.85-.46,1,1,0,0,1-.06-1l8-17.36a1,1,0,0,1,.91-.58h19.37a1,1,0,0,1,1,1.16l-2.74,17.35A1,1,0,0,1,187.19,106.52Zm-23.09-2h22.24l2.42-15.36H171.2Z" fill="#093f68"/><path d="M162.54,105.52h24.65a0,0,0,0,1,0,0v2.06a11.6,11.6,0,0,1-11.6,11.6h-1.46a11.6,11.6,0,0,1-11.6-11.6v-2.06A0,0,0,0,1,162.54,105.52Z" fill="#fff"/><path d="M175.59,120.18h-1.46a12.61,12.61,0,0,1-12.59-12.6v-2.06a1,1,0,0,1,1-1h24.65a1,1,0,0,1,1,1v2.06A12.61,12.61,0,0,1,175.59,120.18Zm-12.05-13.66v1.06a10.61,10.61,0,0,0,10.59,10.6h1.46a10.61,10.61,0,0,0,10.6-10.6v-1.06Z" fill="#093f68"/><polygon points="212.33 105.52 187.67 105.52 190.31 88.16 209.69 88.16 212.33 105.52" fill="#f56132"/><path d="M212.33,106.52H187.67a1,1,0,0,1-.75-.35,1,1,0,0,1-.23-.8L189.33,88a1,1,0,0,1,1-.85h19.38a1,1,0,0,1,1,.85l2.64,17.36a1,1,0,0,1-.23.8A1,1,0,0,1,212.33,106.52Zm-23.49-2h22.32l-2.33-15.36H191.17Z" fill="#093f68"/><path d="M187.67,105.52h24.65a0,0,0,0,1,0,0v2.06a11.6,11.6,0,0,1-11.6,11.6h-1.46a11.6,11.6,0,0,1-11.6-11.6v-2.06A0,0,0,0,1,187.67,105.52Z" fill="#f56132"/><path d="M200.73,120.18h-1.46a12.61,12.61,0,0,1-12.6-12.6v-2.06a1,1,0,0,1,1-1h24.66a1,1,0,0,1,1,1v2.06A12.61,12.61,0,0,1,200.73,120.18Zm-12.06-13.66v1.06a10.62,10.62,0,0,0,10.6,10.6h1.46a10.62,10.62,0,0,0,10.6-10.6v-1.06Z" fill="#093f68"/><polygon points="237.46 105.52 212.81 105.52 210.07 88.16 229.44 88.16 237.46 105.52" fill="#fff"/><path d="M237.46,106.52H212.81a1,1,0,0,1-1-.85l-2.74-17.35a1,1,0,0,1,1-1.16h19.37a1,1,0,0,1,.91.58l8,17.36a1,1,0,0,1-.06,1A1,1,0,0,1,237.46,106.52Zm-23.8-2H235.9l-7.1-15.36H211.24Z" fill="#093f68"/><path d="M212.81,105.52h24.65a0,0,0,0,1,0,0v2.06a11.6,11.6,0,0,1-11.6,11.6h-1.46a11.6,11.6,0,0,1-11.6-11.6v-2.06A0,0,0,0,1,212.81,105.52Z" fill="#fff"/><path d="M225.87,120.18h-1.46a12.61,12.61,0,0,1-12.6-12.6v-2.06a1,1,0,0,1,1-1h24.65a1,1,0,0,1,1,1v2.06A12.61,12.61,0,0,1,225.87,120.18Zm-12.06-13.66v1.06a10.61,10.61,0,0,0,10.6,10.6h1.46a10.61,10.61,0,0,0,10.59-10.6v-1.06Z" fill="#093f68"/><polygon points="262.6 105.52 237.95 105.52 229.82 88.16 249.19 88.16 262.6 105.52" fill="#f56132"/><path d="M262.6,106.52H238a1,1,0,0,1-.91-.58l-8.13-17.36a1,1,0,0,1,.07-1,1,1,0,0,1,.84-.46h19.37a1,1,0,0,1,.79.39l13.41,17.36a1,1,0,0,1,.11,1A1,1,0,0,1,262.6,106.52Zm-24-2h22L248.7,89.16H231.39Z" fill="#093f68"/><path d="M237.95,105.52H262.6a0,0,0,0,1,0,0v2.06a11.6,11.6,0,0,1-11.6,11.6h-1.46a11.6,11.6,0,0,1-11.6-11.6v-2.06A0,0,0,0,1,237.95,105.52Z" fill="#f56132"/><path d="M251,120.18h-1.46A12.61,12.61,0,0,1,237,107.58v-2.06a1,1,0,0,1,1-1H262.6a1,1,0,0,1,1,1v2.06A12.61,12.61,0,0,1,251,120.18ZM239,106.52v1.06a10.61,10.61,0,0,0,10.59,10.6H251a10.61,10.61,0,0,0,10.6-10.6v-1.06Z" fill="#093f68"/><rect x="157.42" y="152.94" width="85.17" height="26.54" rx="4.75" fill="#ffbc0e"/><path d="M237.84,180.48H162.16a5.76,5.76,0,0,1-5.74-5.75v-17a5.76,5.76,0,0,1,5.74-5.75h75.68a5.76,5.76,0,0,1,5.74,5.75v17A5.76,5.76,0,0,1,237.84,180.48Zm-75.68-26.54a3.75,3.75,0,0,0-3.74,3.75v17a3.75,3.75,0,0,0,3.74,3.75h75.68a3.75,3.75,0,0,0,3.74-3.75v-17a3.75,3.75,0,0,0-3.74-3.75Z" fill="#093f68"/><path d="M232.44,153.94a1,1,0,0,1-.49-.13l-31.95-18-31.95,18a1,1,0,1,1-1-1.74l32.44-18.27a1,1,0,0,1,1,0l32.44,18.27a1,1,0,0,1-.49,1.87Z" fill="#093f68"/><circle cx="200" cy="133.9" r="5.18" fill="#68e1fd"/><path d="M200,140.08a6.19,6.19,0,1,1,6.18-6.18A6.19,6.19,0,0,1,200,140.08Zm0-10.37a4.19,4.19,0,1,0,4.18,4.19A4.19,4.19,0,0,0,200,129.71Z" fill="#093f68"/><path d="M173.76,162.75a3.5,3.5,0,0,0-2.74-1.29,4.46,4.46,0,0,0-1.83.36,4.18,4.18,0,0,0-1.41,1,4.53,4.53,0,0,0-.91,1.49,4.94,4.94,0,0,0-.32,1.82,5.47,5.47,0,0,0,.32,1.93,4.51,4.51,0,0,0,.91,1.53,4.1,4.1,0,0,0,1.41,1A4.31,4.31,0,0,0,171,171a3.4,3.4,0,0,0,1.54-.38,4.26,4.26,0,0,0,1.39-1.2l1.91,1.36a5.28,5.28,0,0,1-2.15,1.77,6.87,6.87,0,0,1-2.71.55,7.5,7.5,0,0,1-2.77-.49,6.22,6.22,0,0,1-3.6-3.53,7.27,7.27,0,0,1-.51-2.77,7.61,7.61,0,0,1,.51-2.85,6.21,6.21,0,0,1,3.6-3.57,7.71,7.71,0,0,1,2.77-.49,6.45,6.45,0,0,1,2.46.47,5.8,5.8,0,0,1,2.1,1.59Z" fill="#093f68"/><path d="M177.42,159.69h2.32v10.94h5.54v2.1h-7.86Z" fill="#093f68"/><path d="M186.28,166.27a7.61,7.61,0,0,1,.51-2.85,6.46,6.46,0,0,1,1.43-2.18,6.36,6.36,0,0,1,2.17-1.39,7.75,7.75,0,0,1,2.77-.49,7.87,7.87,0,0,1,2.8.45,6.17,6.17,0,0,1,2.19,1.37,6.58,6.58,0,0,1,1.44,2.18,7.51,7.51,0,0,1,.51,2.83,7.28,7.28,0,0,1-.51,2.78,6.55,6.55,0,0,1-1.44,2.15,6.26,6.26,0,0,1-2.19,1.41,7.88,7.88,0,0,1-2.8.53,7.54,7.54,0,0,1-2.77-.49,6.34,6.34,0,0,1-2.17-1.38,6.42,6.42,0,0,1-1.43-2.15A7.27,7.27,0,0,1,186.28,166.27Zm2.43-.15a5.47,5.47,0,0,0,.32,1.93,4.51,4.51,0,0,0,.91,1.53,4.1,4.1,0,0,0,1.41,1,4.37,4.37,0,0,0,1.83.37,4.42,4.42,0,0,0,1.84-.37,4.13,4.13,0,0,0,1.42-1,4.51,4.51,0,0,0,.91-1.53,5.7,5.7,0,0,0,.32-1.93,5.16,5.16,0,0,0-.32-1.82,4.53,4.53,0,0,0-.91-1.49,4.22,4.22,0,0,0-1.42-1,4.58,4.58,0,0,0-1.84-.36,4.53,4.53,0,0,0-1.83.36,4.18,4.18,0,0,0-1.41,1,4.53,4.53,0,0,0-.91,1.49A4.94,4.94,0,0,0,188.71,166.12Z" fill="#093f68"/><path d="M208.7,162.49a2.18,2.18,0,0,0-1-.78,3.48,3.48,0,0,0-2.08-.16,2,2,0,0,0-.68.3,1.53,1.53,0,0,0-.49.52,1.57,1.57,0,0,0-.18.77,1.19,1.19,0,0,0,.46,1,4.66,4.66,0,0,0,1.14.61c.45.17,1,.33,1.49.49a6.08,6.08,0,0,1,1.49.66A3.72,3.72,0,0,1,210,167a3.28,3.28,0,0,1,.46,1.86,4.18,4.18,0,0,1-.38,1.83,3.91,3.91,0,0,1-1,1.3,4.64,4.64,0,0,1-1.52.77,6.46,6.46,0,0,1-1.82.26,6.86,6.86,0,0,1-2.34-.41,4.41,4.41,0,0,1-1.93-1.36l1.74-1.69a3,3,0,0,0,1.12,1,3.12,3.12,0,0,0,1.46.36,3.22,3.22,0,0,0,.81-.11,2.92,2.92,0,0,0,.74-.33,1.77,1.77,0,0,0,.53-.56,1.48,1.48,0,0,0,.2-.79,1.34,1.34,0,0,0-.46-1.1,3.67,3.67,0,0,0-1.14-.65c-.45-.18-1-.35-1.49-.51a6.46,6.46,0,0,1-1.49-.65,3.66,3.66,0,0,1-1.14-1.11,3.25,3.25,0,0,1-.46-1.85,3.59,3.59,0,0,1,.41-1.75,3.76,3.76,0,0,1,1.09-1.22,4.66,4.66,0,0,1,1.54-.73,6.5,6.5,0,0,1,1.76-.24,6.39,6.39,0,0,1,2,.32,4.57,4.57,0,0,1,1.74,1Z" fill="#093f68"/><path d="M212.88,159.69h8.63v2.1h-6.32V165h6v2.1h-6v3.54h6.65v2.1h-9Z" fill="#093f68"/><path d="M224.12,159.69h5.14a8,8,0,0,1,2.48.4,6,6,0,0,1,2.12,1.21,5.9,5.9,0,0,1,1.47,2,7,7,0,0,1,.55,2.88,6.26,6.26,0,0,1-.63,2.9,6.16,6.16,0,0,1-1.64,2,6.79,6.79,0,0,1-2.23,1.2,7.84,7.84,0,0,1-2.4.4h-4.86Zm4,10.94a8.46,8.46,0,0,0,2.05-.25,5,5,0,0,0,1.69-.77,3.7,3.7,0,0,0,1.13-1.37,4.45,4.45,0,0,0,.41-2,5.19,5.19,0,0,0-.36-2,3.57,3.57,0,0,0-1-1.37,4.29,4.29,0,0,0-1.54-.77,7.16,7.16,0,0,0-2-.25h-2.12v8.84Z" fill="#093f68"/><path d="M133.31,212.15l-.27,0a1,1,0,0,1-.69-1.23c1.91-7,6.62-6.39,6.82-6.36a1,1,0,0,1-.27,2c-.16,0-3.2-.26-4.63,4.91A1,1,0,0,1,133.31,212.15Z" fill="#093f68"/><path d="M270.1,215.81a1,1,0,0,1-1-.73c-1.53-5.4-7.26-5-7.5-5a1,1,0,0,1-.16-2c2.63-.22,8,.85,9.59,6.45a1,1,0,0,1-.69,1.24A1.35,1.35,0,0,1,270.1,215.81Z" fill="#093f68"/></svg>