<svg id="_500_coach_outline" data-name="#500_coach_outline" xmlns="http://www.w3.org/2000/svg" viewBox="0 0 400 300"><path d="M237.2,208.58l-10.29,7.8V242H136.5a248.62,248.62,0,0,1-.05-32.17c2.94-45.39,20.83-55.28,31.36-56.19,0,0,43.89-4.85,53.49,7.64C236.18,180.58,237.2,208.58,237.2,208.58Z" fill="#68e1fd"/><path d="M226.91,243H136.5a1,1,0,0,1-1-.92,252,252,0,0,1,0-32.31c3.19-49.31,23.63-56.38,32.26-57.13,1.8-.2,44.54-4.76,54.38,8,14.9,19.38,16.09,47.64,16.1,47.92a1,1,0,0,1-.4.84l-9.89,7.49V242A1,1,0,0,1,226.91,243Zm-89.48-2h88.48V216.38a1,1,0,0,1,.4-.8l9.86-7.48c-.23-3.88-2.25-28.82-15.66-46.26-9.15-11.9-52.16-7.31-52.59-7.26-8.15.71-27.38,7.51-30.47,55.27A254.75,254.75,0,0,0,137.43,241Z" fill="#093f68"/><path d="M158.79,209.78V242H136.5a215.35,215.35,0,0,1-.05-32.17Z" fill="#ffc9b0"/><path d="M158.79,243H136.5a1,1,0,0,1-1-.91,216.1,216.1,0,0,1,0-32.33,1,1,0,0,1,1-.93h22.34a1,1,0,0,1,1,1V242A1,1,0,0,1,158.79,243Zm-21.37-2h20.37V210.78H137.38A220.53,220.53,0,0,0,137.42,241Z" fill="#093f68"/><path d="M192.92,202.63a1,1,0,0,1-.9-.57l-22.56-46.31a1,1,0,0,1,.46-1.33,1,1,0,0,1,1.34.46L192.77,199l15.4-44a1,1,0,1,1,1.89.66L193.86,202a1,1,0,0,1-.88.66Z" fill="#093f68"/><path d="M194,201.63h-6.72v20.74h5.94v-9.7H194a5.14,5.14,0,0,0,5.15-5.15v-.74A5.14,5.14,0,0,0,194,201.63Z" fill="#ffbc0e"/><path d="M193.19,223.37h-5.94a1,1,0,0,1-1-1V201.63a1,1,0,0,1,1-1H194a6.16,6.16,0,0,1,6.15,6.15v.74a6.16,6.16,0,0,1-5.93,6.15v8.7A1,1,0,0,1,193.19,223.37Zm-4.94-2h3.94v-8.7a1,1,0,0,1,1-1H194a4.15,4.15,0,0,0,4.15-4.15v-.74a4.15,4.15,0,0,0-4.15-4.15h-5.72Z" fill="#093f68"/><path d="M158.79,210.78a1,1,0,0,1-1-1V179.24a1,1,0,0,1,2,0v30.54A1,1,0,0,1,158.79,210.78Z" fill="#093f68"/><path d="M186.53,155.48H198a0,0,0,0,1,0,0v6.62a4.88,4.88,0,0,1-4.88,4.88h-1.74a4.88,4.88,0,0,1-4.88-4.88v-6.62A0,0,0,0,1,186.53,155.48Z" transform="translate(-15.23 20.14) rotate(-5.77)" fill="#ffc9b0"/><path d="M191.5,168.06a5.89,5.89,0,0,1-5.85-5.29l-.67-6.58a1.08,1.08,0,0,1,.22-.74,1,1,0,0,1,.68-.36l11.44-1.16a1,1,0,0,1,1.1.9l.66,6.58a5.87,5.87,0,0,1-5.26,6.45l-1.73.17A5.83,5.83,0,0,1,191.5,168.06ZM187.07,157l.57,5.59a3.87,3.87,0,0,0,4.25,3.47l1.73-.17h0a3.92,3.92,0,0,0,2.62-1.41,3.84,3.84,0,0,0,.85-2.84l-.56-5.59Z" fill="#093f68"/><ellipse cx="218.23" cy="121.79" rx="8.62" ry="9.63" transform="translate(-11.14 22.55) rotate(-5.77)" fill="#ffc9b0"/><path d="M218.41,132.41c-4.91,0-9.2-4.15-9.75-9.65-.59-5.84,3.22-11,8.5-11.55a9.12,9.12,0,0,1,7.12,2.45,11.25,11.25,0,0,1,3.52,7.16c.58,5.83-3.23,11-8.51,11.55C219,132.39,218.7,132.41,218.41,132.41Zm-.36-19.24q-.35,0-.69,0c-4.18.43-7.19,4.62-6.71,9.36s4.27,8.24,8.44,7.82,7.19-4.62,6.72-9.36a9.21,9.21,0,0,0-2.88-5.88A7.25,7.25,0,0,0,218.05,113.17Z" fill="#093f68"/><path d="M149.88,97.28c.41,9.63,1.45,26.55,5.34,35,6.69,14.55,21.65,27.44,36.41,26A30.27,30.27,0,0,0,217.7,138a37.06,37.06,0,0,0,1.94-16.49s.61-4-1.74-19.28-3.73-23.19-33.61-24.94C161.24,76,149.47,87.65,149.88,97.28Z" fill="#ffc9b0"/><path d="M189.25,159.36c-6.44,0-13.11-2.49-19.45-7.28a51.77,51.77,0,0,1-15.48-19.38c-2.91-6.31-4.69-17.88-5.44-35.37h0c-.18-4.23,1.75-8.56,5.44-12.19s12.74-9.85,30-8.83c30.85,1.81,32.16,10.32,34.54,25.79,2.14,13.89,1.84,18.6,1.75,19.44a38.2,38.2,0,0,1-2,16.82,31.38,31.38,0,0,1-26.91,20.88C190.91,159.32,190.08,159.36,189.25,159.36ZM150.88,97.24c.27,6.33,1.09,25.6,5.25,34.63,6.17,13.41,20.68,26.87,35.4,25.38a29.42,29.42,0,0,0,25.23-19.57,36.22,36.22,0,0,0,1.88-16.05,1,1,0,0,1,0-.25s.54-4.22-1.74-19S213.47,80,184.24,78.3c-12.07-.7-22.46,2.31-28.52,8.27-3.27,3.22-5,7-4.84,10.67Z" fill="#093f68"/><path d="M204.39,131.7c-3.95-.94-9.53-.06-14.76,3.22-6.9,4.33-5.21,10.78-11.11,9.39a19.88,19.88,0,0,1-10.83-6.53c-3.48-4.33-3.16-10.62-3.87-15.92a15.28,15.28,0,0,0-1.44-5.47,7.92,7.92,0,0,0-7.68-3.94c-10.66,1.29-5.22,15.38-3.83,21.65l4.62-.47.25,3.78a35.38,35.38,0,0,0,35.89,20.83A30.27,30.27,0,0,0,217.7,138a35.59,35.59,0,0,1-4.24.94c-4.08.55-2.32-3.18-5.9-5.86A8.61,8.61,0,0,0,204.39,131.7Z" fill="#725858"/><path d="M188,159.43a36.28,36.28,0,0,1-33.13-21.61,1.06,1.06,0,0,1-.09-.35l-.18-2.74-3.59.36a1,1,0,0,1-1.08-.78c-.18-.84-.44-1.81-.73-2.88-1.39-5.28-3.3-12.5-.41-16.76a7.79,7.79,0,0,1,5.83-3.21,8.91,8.91,0,0,1,8.68,4.45,16.48,16.48,0,0,1,1.55,5.82c.16,1.19.27,2.44.38,3.66.37,4.24.76,8.62,3.28,11.77a18.87,18.87,0,0,0,10.28,6.17c2.54.6,3.14-.44,4.46-2.72a16.94,16.94,0,0,1,5.89-6.54c5-3.14,11-4.43,15.52-3.35h0a9.51,9.51,0,0,1,3.54,1.58,8.57,8.57,0,0,1,2.88,4.06c.58,1.43.74,1.82,2.29,1.61a32.9,32.9,0,0,0,4.1-.92,1,1,0,0,1,1.21,1.31,31.38,31.38,0,0,1-26.91,20.88C190.46,159.36,189.2,159.43,188,159.43Zm-31.23-22.27a34.27,34.27,0,0,0,34.8,20.09A29.37,29.37,0,0,0,216,139.48c-.93.22-1.75.37-2.44.47-3.1.42-3.79-1.31-4.41-2.84a6.57,6.57,0,0,0-2.23-3.2,7.49,7.49,0,0,0-2.81-1.24h0c-4.05-1-9.41.22-14,3.09a14.93,14.93,0,0,0-5.22,5.85c-1.37,2.37-2.66,4.61-6.65,3.67a20.88,20.88,0,0,1-11.38-6.87c-2.9-3.62-3.32-8.31-3.71-12.85-.11-1.24-.22-2.42-.37-3.57a14.71,14.71,0,0,0-1.32-5.11,6.94,6.94,0,0,0-6.69-3.43,5.78,5.78,0,0,0-4.41,2.34c-2.38,3.51-.61,10.22.69,15.13.19.74.38,1.45.54,2.09l3.75-.38a1.07,1.07,0,0,1,.75.23,1.05,1.05,0,0,1,.35.7Z" fill="#093f68"/><ellipse cx="179.81" cy="118.16" rx="3.12" ry="3.11" transform="translate(-10.97 18.67) rotate(-5.77)" fill="#093f68"/><circle cx="206.01" cy="113.66" r="3.12" fill="#093f68"/><path d="M194.75,125.89h-.46a1,1,0,0,1-1-1,1,1,0,0,1,1-1,30.38,30.38,0,0,0,7.09-.71c.26-.73-1.85-4-4.4-6.74a1,1,0,1,1,1.47-1.35c1.68,1.83,5.53,6.34,4.86,8.68a1.91,1.91,0,0,1-1.4,1.34A30.09,30.09,0,0,1,194.75,125.89Z" fill="#093f68"/><path d="M173.6,110.7a2,2,0,0,1-1.93-2.5c.06-.23,1.6-5.64,8.5-6.27,6.6-.6,9.3,2.39,9.59,2.73a2,2,0,1,1-3.07,2.57s-1.69-1.73-6.16-1.32c-4,.37-4.91,3-5,3.36A2,2,0,0,1,173.6,110.7Z" fill="#093f68"/><path d="M204.54,106.6a2,2,0,0,1-1.35-.53,2,2,0,0,1-.13-2.81,13.38,13.38,0,0,1,8.56-3.93c4.66-.26,6.83,2.2,7.35,3.69l-3.77,1.32,0,.09c0-.05-.62-1.28-3.38-1.11A9.37,9.37,0,0,0,206,106,2,2,0,0,1,204.54,106.6Z" fill="#093f68"/><path d="M158.72,121.78s-8.76-4.84-12.43,2.91,1.84,19.75,15,14.76Z" fill="#ffc9b0"/><path d="M155.44,141.64a10.72,10.72,0,0,1-8.12-3.43,12.86,12.86,0,0,1-1.93-14,8.17,8.17,0,0,1,4.89-4.57c4.2-1.35,8.74,1.11,8.93,1.22a1,1,0,0,1,.5.73l2.58,17.67a1,1,0,0,1-.63,1.08A17.56,17.56,0,0,1,155.44,141.64ZM153,121.29a6.88,6.88,0,0,0-2.09.31,6.27,6.27,0,0,0-3.7,3.52,11,11,0,0,0,1.6,11.74c2.63,2.84,6.66,3.51,11.41,1.93l-2.39-16.34A12.13,12.13,0,0,0,153,121.29Z" fill="#093f68"/><path d="M149.87,103l67.21-16s-.41-22.85-22.76-27.08S142.74,64.9,149.87,103Z" fill="#68e1fd"/><path d="M149.87,104a1,1,0,0,1-1-.82c-2.84-15.12-.14-27.3,7.81-35.22,10-10,26.11-11.23,37.8-9,22.89,4.33,23.58,27.8,23.58,28a1,1,0,0,1-.77,1l-67.21,16A.85.85,0,0,1,149.87,104Zm34.48-44c-9.27,0-19.31,2.46-26.24,9.37-7.38,7.37-9.88,18.27-7.44,32.41L216,86.19c-.3-4-2.7-21.68-21.91-25.32A53.18,53.18,0,0,0,184.35,60Z" fill="#093f68"/><path d="M217.08,87s27.66,6.9,19.27,14.34c-19.27,17.08-66-3.23-66-3.23Z" fill="#68e1fd"/><path d="M214,109.17a89.21,89.21,0,0,1-18.11-2.09A151.68,151.68,0,0,1,170,99a1,1,0,0,1-.6-1,1,1,0,0,1,.76-.89L216.85,86a1,1,0,0,1,.48,0c2,.51,19.93,5.14,21.49,11.47.27,1.12.18,2.82-1.81,4.59C231.67,106.79,224,109.17,214,109.17ZM173.65,98.33c10.41,4,46.18,16.28,62,2.23,1.51-1.33,1.27-2.3,1.19-2.61-.94-3.85-12.54-8.11-19.79-10Z" fill="#093f68"/><ellipse cx="199" cy="143.11" rx="3.44" ry="5.32" fill="#fff"/><path d="M199,149.43c-2.49,0-4.44-2.78-4.44-6.32s1.95-6.32,4.44-6.32,4.45,2.77,4.45,6.32S201.5,149.43,199,149.43Zm0-10.64c-1.15,0-2.44,1.77-2.44,4.32s1.29,4.32,2.44,4.32,2.45-1.78,2.45-4.32S200.16,138.79,199,138.79Z" fill="#093f68"/><path d="M238.7,152.62s-8.55-2.61-10.95,8.4c-2,9.06-1.09,38.14-.35,55.36a12.66,12.66,0,0,0,13.67,12.06h0A12.66,12.66,0,0,0,252.57,214l-4.42-29.54s8.87-9.6,5.21-18.78S247.9,148,238.7,152.62Z" fill="#ffc9b0"/><path d="M240,229.48a13.65,13.65,0,0,1-13.62-13.06c-.72-16.82-1.63-46.4.37-55.61.87-4,2.61-6.75,5.17-8.25a9.49,9.49,0,0,1,6.65-1c2.77-1.31,5.08-1.57,7.06-.79,3.65,1.43,5.41,6.06,7.45,11.42.38,1,.77,2,1.19,3.07,3.49,8.73-3.45,17.55-5.08,19.46l4.35,29.08a13.66,13.66,0,0,1-12.41,15.64C240.77,229.47,240.39,229.48,240,229.48Zm-3.48-76.13a7.07,7.07,0,0,0-3.61,1c-2.05,1.21-3.46,3.54-4.2,6.94-2,9-1,38.38-.33,55.09a11.66,11.66,0,1,0,23.18-2.23l-4.42-29.54a1,1,0,0,1,.25-.83c.09-.09,8.41-9.25,5-17.73-.42-1.05-.82-2.09-1.2-3.1-1.87-4.92-3.48-9.16-6.31-10.27-1.5-.59-3.39-.3-5.77.89a1,1,0,0,1-.74.06A6.87,6.87,0,0,0,236.54,153.35Z" fill="#093f68"/><path d="M242.33,144.47h8.1a0,0,0,0,1,0,0v35.79a4,4,0,0,1-4,4h0a4,4,0,0,1-4-4V144.47A0,0,0,0,1,242.33,144.47Z" transform="translate(-30.29 58.64) rotate(-12.79)" fill="#f56132"/><path d="M249.89,184.91A5.06,5.06,0,0,1,245,181l-7.92-34.9a1,1,0,0,1,.75-1.2l7.9-1.79a1,1,0,0,1,.75.13,1,1,0,0,1,.44.63l7.93,34.89a5.05,5.05,0,0,1-3.81,6h0A4.76,4.76,0,0,1,249.89,184.91Zm.9-1.1h0Zm-11.57-37.2,7.7,33.93a3,3,0,0,0,3.65,2.29h0a3,3,0,0,0,2.3-3.64l-7.71-33.93Z" fill="#093f68"/><path d="M221.88,128.07l48.24-31.7L285,162l-57.2-7.75a14.34,14.34,0,0,1-12-11h0A14.32,14.32,0,0,1,221.88,128.07Z" fill="#f56132"/><path d="M285,163h-.14l-57.2-7.75a15.32,15.32,0,0,1-6.35-28h0l48.24-31.69a1,1,0,0,1,.93-.09,1,1,0,0,1,.6.7L286,161.76a1,1,0,0,1-.23.9A1,1,0,0,1,285,163Zm-62.6-34.07A13.32,13.32,0,0,0,228,153.24l55.77,7.56L269.46,98Z" fill="#093f68"/><ellipse cx="282.44" cy="128.07" rx="20.82" ry="34.64" transform="translate(-21.35 65.72) rotate(-12.79)" fill="#093f68"/><path d="M287.32,163.16c-10.88,0-22.17-12.73-26.15-30.26-4.35-19.16,1.65-36.92,13.38-39.58,5.78-1.32,12,1.14,17.55,6.91s9.53,13.81,11.62,23c4.35,19.16-1.65,36.92-13.38,39.58A13.45,13.45,0,0,1,287.32,163.16ZM277.63,95a11.59,11.59,0,0,0-2.63.3c-10.66,2.42-16,19.1-11.88,37.19s16.13,30.83,26.77,28.41,16-19.1,11.88-37.19h0c-2-8.85-6-16.68-11.12-22.06C286.48,97.27,281.94,95,277.63,95Z" fill="#093f68"/><path d="M232.1,161.37q3.48-1.56,7.07-2.84a5.54,5.54,0,0,1,2.62-.46c1.42.22,2.44,1.46,3.22,2.67a31,31,0,0,1,3.76,8.13,2.25,2.25,0,0,1,0,1.87,1.72,1.72,0,0,1-1,.63c-1.61.37-3.24-.68-4.26-2s-1.66-2.87-2.7-4.15a11,11,0,0,1,2.55,9.25,6.87,6.87,0,0,1-1.69,3.52,4,4,0,0,1-3.61,1.2" fill="#ffc9b0"/><path d="M238.73,180.29a4.24,4.24,0,0,1-.94-.11,1,1,0,0,1,.44-2,2.94,2.94,0,0,0,2.67-.92,5.74,5.74,0,0,0,1.43-3,10,10,0,0,0-.65-5.76q-.21-.33-.39-.66a17.72,17.72,0,0,0-1.31-2,1,1,0,0,1,1.52-1.3,11.66,11.66,0,0,1,1.94,3,13.06,13.06,0,0,0,.81,1.19c.73.93,2,1.9,3.24,1.62a.71.71,0,0,0,.42-.21c.09-.14.06-.48-.1-1a29.91,29.91,0,0,0-3.63-7.87c-.62-.94-1.47-2.05-2.54-2.22a4.78,4.78,0,0,0-2.14.41c-2.35.84-4.7,1.79-7,2.82a1,1,0,0,1-.82-1.83c2.33-1.05,4.74-2,7.14-2.87a6.29,6.29,0,0,1,3.11-.5c1.85.28,3.06,1.8,3.91,3.1a31.75,31.75,0,0,1,3.88,8.4,3.23,3.23,0,0,1-.16,2.71,2.65,2.65,0,0,1-1.63,1,4.53,4.53,0,0,1-3.47-.7,11.49,11.49,0,0,1-.18,3,7.62,7.62,0,0,1-2,4A5.1,5.1,0,0,1,238.73,180.29Z" fill="#093f68"/><path d="M192.69,87.8A10.76,10.76,0,1,1,203.45,77,10.78,10.78,0,0,1,192.69,87.8Zm0-19.52A8.76,8.76,0,1,0,201.45,77,8.77,8.77,0,0,0,192.69,68.28Z" fill="#093f68"/></svg>