<svg xmlns="http://www.w3.org/2000/svg" viewBox="0 0 400 300"><g id="_236_couple_outline" data-name="#236_couple_outline"><rect x="143.66" y="160.52" width="12.72" height="74.43" fill="#093f68"/><path d="M156.38,236H143.66a1,1,0,0,1-1-1V160.52a1,1,0,0,1,1-1h12.72a1,1,0,0,1,1,1V235A1,1,0,0,1,156.38,236Zm-11.72-2h10.72V161.52H144.66Z" fill="#093f68"/><rect x="165.04" y="160.52" width="11.03" height="74.43" fill="#093f68"/><path d="M176.07,236H165a1,1,0,0,1-1-1V160.52a1,1,0,0,1,1-1h11a1,1,0,0,1,1,1V235A1,1,0,0,1,176.07,236Zm-10-2h9V161.52h-9Z" fill="#093f68"/><rect x="144.27" y="160.4" width="31.8" height="20.41" fill="#093f68"/><path d="M176.07,181.81h-31.8a1,1,0,0,1-1-1V160.4a1,1,0,0,1,1-1h31.8a1,1,0,0,1,1,1v20.41A1,1,0,0,1,176.07,181.81Zm-30.8-2h29.8V161.4h-29.8Z" fill="#093f68"/><polygon points="154.79 234.95 154.79 243.84 137.55 243.84 146.17 234.95 154.79 234.95" fill="#f56132"/><path d="M154.79,244.85H137.55a1,1,0,0,1-.72-1.7l8.62-8.9a1,1,0,0,1,.72-.3h8.62a1,1,0,0,1,1,1v8.9A1,1,0,0,1,154.79,244.85Zm-14.88-2h13.88V236h-7.2Z" fill="#093f68"/><polygon points="165.73 234.95 165.73 243.84 182.97 243.84 174.35 234.95 165.73 234.95" fill="#f56132"/><path d="M183,244.85H165.73a1,1,0,0,1-1-1V235a1,1,0,0,1,1-1h8.62a1,1,0,0,1,.72.3l8.62,8.9a1,1,0,0,1-.72,1.7Zm-16.24-2h13.88l-6.68-6.9h-7.2Z" fill="#093f68"/><path d="M191.75,159s4.4,3.62,3.95,6.53-1.93,6.09-4.34,5.07-7.77-7.52-7.77-7.52Z" fill="#ffc9b0"/><path d="M192.26,171.82a3.16,3.16,0,0,1-1.29-.28c-2.57-1.08-7.59-7.12-8.15-7.8a1,1,0,0,1-.21-.85,1,1,0,0,1,.53-.68l8.16-4.09a1,1,0,0,1,1.09.13c.49.41,4.82,4.08,4.3,7.45-.16,1-.85,4.54-3,5.73A2.92,2.92,0,0,1,192.26,171.82Zm-7.09-8.39c2.1,2.43,5.18,5.68,6.58,6.27a1,1,0,0,0,1,0c.87-.49,1.67-2.21,2-4.29.25-1.66-1.89-4-3.12-5.19Z" fill="#093f68"/><polygon points="190.06 155.28 192.57 158.78 185.19 165.52 184.14 160.31 190.06 155.28" fill="#fff"/><path d="M185.19,166.52a.89.89,0,0,1-.32-.05,1,1,0,0,1-.66-.75l-1.05-5.21a1,1,0,0,1,.33-1l5.92-5a1,1,0,0,1,.77-.23,1,1,0,0,1,.69.41l2.51,3.5a1,1,0,0,1-.13,1.32l-7.39,6.74A1,1,0,0,1,185.19,166.52Zm.05-5.83.58,2.9,5.42-5-1.36-1.89Z" fill="#093f68"/><path d="M191.36,155.68s-17.49-34.42-18.83-35.84l0,0v0a11.25,11.25,0,0,0-9.52-3.46l-12.62,1.49a11.31,11.31,0,0,0-9.9,12.55l1.89,35.42,36.37-3.36.44-5.45,3.59,5.71Z" fill="#68e1fd"/><path d="M142.36,166.82a1,1,0,0,1-.65-.25,1,1,0,0,1-.34-.7l-1.9-35.41a12.3,12.3,0,0,1,10.78-13.6l12.62-1.49A12.17,12.17,0,0,1,173.11,119a.81.81,0,0,1,.26.29c1.92,2.61,16,30.29,18.88,35.93a1,1,0,0,1-.26,1.22l-8.59,7a1.06,1.06,0,0,1-.8.22,1,1,0,0,1-.68-.46l-2-3.17-.2,2.46a1,1,0,0,1-.9.92l-36.36,3.35Zm22-49.54a10.38,10.38,0,0,0-1.23.07l-12.62,1.5a10.31,10.31,0,0,0-9,11.43l1.85,34.44,34.49-3.18.38-4.62a1,1,0,0,1,1.84-.45l3,4.76,7.09-5.81c-6.91-13.59-17.21-33.57-18.3-34.9l0,0A10.23,10.23,0,0,0,164.33,117.28Z" fill="#093f68"/><path d="M177.71,152.56a1,1,0,0,1-1-.87l-2.79-21a1,1,0,1,1,2-.27l2.8,21a1,1,0,0,1-.86,1.12Z" fill="#093f68"/><path d="M187.7,159.54a58.07,58.07,0,0,0,5.52,3.94c1.59.83,4.52,1.66,3.5,2.55a17.51,17.51,0,0,1-3.37,1.92s3.5,2.29,2.8,4.46-2.55,2.29-4.21,1.72-9.18-9-9.18-9l4.4-6.12" fill="#ffc9b0"/><path d="M193.52,175.42a5.6,5.6,0,0,1-1.9-.35c-1.77-.61-7.8-7.24-9.6-9.26a1,1,0,0,1-.07-1.25l4.4-6.12a1,1,0,0,1,1.73.18.84.84,0,0,1,.24.14,55.45,55.45,0,0,0,5.36,3.84c.37.19.82.38,1.28.58,1.56.67,2.79,1.2,3,2.26a1.47,1.47,0,0,1-.54,1.35,12.29,12.29,0,0,1-2.16,1.37c1.13,1,2.47,2.74,1.88,4.55a3.69,3.69,0,0,1-1.87,2.33A3.84,3.84,0,0,1,193.52,175.42ZM184,165.07c3.4,3.75,7.36,7.78,8.23,8.11a2.76,2.76,0,0,0,2.07.07,1.8,1.8,0,0,0,.86-1.15c.35-1.08-1.47-2.7-2.4-3.32a1,1,0,0,1-.45-.92,1,1,0,0,1,.6-.83,20.66,20.66,0,0,0,2.61-1.37c-.41-.22-1-.47-1.39-.65s-1-.43-1.41-.64a52.25,52.25,0,0,1-5.44-3.86Zm12,.9h0Z" fill="#093f68"/><polygon points="185.88 156.29 189.55 158.86 182.63 166.48 178.72 162.46 185.88 156.29" fill="#fff"/><path d="M182.64,167.48a1,1,0,0,1-.72-.3l-3.91-4a1,1,0,0,1-.28-.74,1,1,0,0,1,.34-.71l7.15-6.18a1,1,0,0,1,1.23-.06l3.68,2.57a1.05,1.05,0,0,1,.42.71,1,1,0,0,1-.26.78l-6.91,7.62a1,1,0,0,1-.73.33Zm-2.46-4.95,2.43,2.49,5.44-6-2.11-1.48Z" fill="#093f68"/><polygon points="156.94 120.18 163.57 147.48 163.46 120.18 156.94 120.18" fill="#093f68"/><path d="M163.57,148.48a1,1,0,0,1-1-.76L156,120.41a1,1,0,0,1,1-1.23h6.52a1,1,0,0,1,1,1l.11,27.31a1,1,0,0,1-.88,1Zm-5.35-27.3L162.54,139l-.08-17.79Z" fill="#093f68"/><path d="M210.12,142.72s-8.72,14.62-12.8,18.19S193,167.2,193,167.2s5,3.23,8.58,0,17.2-14.62,17.54-15.3S210.12,142.72,210.12,142.72Z" fill="#ffc9b0"/><path d="M197.73,169.65a10.8,10.8,0,0,1-5.31-1.61,1,1,0,0,1-.45-.94c0-.32.44-3.22,4.69-6.94,3.92-3.43,12.51-17.81,12.6-17.95a1,1,0,0,1,1.53-.23c9.86,9,9.56,9.61,9.19,10.37-.24.48-1.51,1.63-10.52,9.34-3,2.58-5.88,5-7.25,6.26A6.52,6.52,0,0,1,197.73,169.65Zm-3.6-2.94c1.31.66,4.4,1.85,6.74-.25,1.4-1.25,4.26-3.7,7.29-6.29,3.56-3,8.27-7.08,9.71-8.44-1-1.24-4.28-4.45-7.53-7.44-2.1,3.45-8.81,14.27-12.36,17.37A12.84,12.84,0,0,0,194.13,166.71Z" fill="#093f68"/><path d="M229.4,76.76s-3.86-8.49-12.61,0-15.22,32.48-10.46,49.39c0,0,37.74,14,56.44,0,0,0-1.21-24.89-8.33-38C248.57,77.32,235.82,67.25,229.4,76.76Z" fill="#725858"/><path d="M239.94,133.4a85.28,85.28,0,0,1-12.55-1A119.28,119.28,0,0,1,206,127.08a1,1,0,0,1-.61-.66c-2.27-8-2.21-18.11.14-28.35,2.19-9.49,6.15-17.72,10.58-22,3.24-3.14,6.28-4.47,9-4A7.26,7.26,0,0,1,229.49,75a8.45,8.45,0,0,1,7-3c7,.34,14.76,8.15,18.85,15.7,7.14,13.16,8.4,37.4,8.45,38.43a1,1,0,0,1-.4.85C257.65,131.24,249.79,133.4,239.94,133.4Zm-32.78-8c4.37,1.53,37.52,12.48,54.58.28-.23-3.67-1.82-25.32-8.18-37-3.73-6.88-11-14.35-17.19-14.65a6.75,6.75,0,0,0-6.14,3.35,1,1,0,0,1-.91.44,1,1,0,0,1-.83-.58s-1.26-2.66-3.75-3.12c-2.09-.38-4.52.76-7.26,3.42C209.09,85.62,202.7,108.66,207.16,125.38Z" fill="#093f68"/><path d="M235.06,132.33s-5.66-7.89-17.51-5.85c-3.85.67-7.05,8.08-6.54,13l24.58,8S239,138.13,235.06,132.33Z" fill="#ffc9b0"/><path d="M235.59,148.48a1.12,1.12,0,0,1-.31,0l-24.58-8a1,1,0,0,1-.69-.85c-.57-5.5,2.9-13.32,7.37-14.09,12.33-2.12,18.25,5.91,18.49,6.25l0,0c4.17,6.15.78,15.65.64,16A1,1,0,0,1,235.59,148.48ZM212,138.75l23,7.47c.7-2.41,2.2-9-.7-13.31-.31-.42-5.57-7.32-16.52-5.44C214.79,128,211.78,134,212,138.75Z" fill="#093f68"/><path d="M187,243.85h84.12c-1.44-6.48-7.25-27.37-19.94-51.78-7.86-15.13-21.81-32.53-21.81-32.53s5-6.81,6.19-12.06c0,0-10.18-4.21-12.09-6.37s-3.61-5.91-6.71-4.3c0,0-3.87-4.88-6.74-2.59s-2,17.6,0,27.29C210.05,161.51,191.79,206.94,187,243.85Z" fill="#68e1fd"/><path d="M271.15,244.85H187a1,1,0,0,1-.75-.34,1,1,0,0,1-.25-.79c4.53-35.11,21.44-78.42,23-82.31-1.64-8.24-3.22-25.07.41-28a3.73,3.73,0,0,1,2.8-.81c2.08.24,4,2,4.85,3,2.8-.93,4.67,1.57,6.07,3.43.38.51.75,1,1.11,1.4,1.29,1.47,7.72,4.46,11.72,6.12a1,1,0,0,1,.59,1.14c-1,4.51-4.63,10-5.91,11.81,2.51,3.19,14.45,18.62,21.45,32.09,14.35,27.62,19.49,49.61,20,52a1,1,0,0,1-.19.84A1,1,0,0,1,271.15,244.85Zm-83-2h81.72c-2.22-9.28-8.51-29.06-19.57-50.32-7.72-14.87-21.56-32.19-21.7-32.36a1,1,0,0,1,0-1.22c0-.06,4.38-6,5.8-10.88-2.57-1.1-9.9-4.32-11.65-6.3-.42-.48-.82-1-1.21-1.53-1.75-2.33-2.74-3.34-4.29-2.54a1,1,0,0,1-1.25-.26c-.57-.73-2.41-2.64-4-2.82a1.66,1.66,0,0,0-1.32.38c-2.09,1.68-1.91,15.2.36,26.31a1,1,0,0,1-.05.57C210.8,162.33,193.08,206.69,188.17,242.85Z" fill="#093f68"/><path d="M221.73,130.85l.85-3.84,6.67,1.48-.85,3.84" fill="#ffc9b0"/><path d="M228.4,133.33l-.22,0a1,1,0,0,1-.76-1.2l.64-2.86-4.72-1.05-.64,2.86a1,1,0,0,1-1.95-.43l.86-3.84a.93.93,0,0,1,.44-.62,1,1,0,0,1,.75-.14l6.67,1.49a1,1,0,0,1,.63.44,1,1,0,0,1,.13.75l-.86,3.84A1,1,0,0,1,228.4,133.33Z" fill="#093f68"/><ellipse cx="210.71" cy="106.18" rx="5.72" ry="6.64" transform="translate(61.27 288.77) rotate(-77.44)" fill="#ffc9b0"/><path d="M211.14,113a8.76,8.76,0,0,1-1.89-.21,8.17,8.17,0,0,1-4.8-3,6.32,6.32,0,0,1-1.19-5.19c.8-3.62,4.8-5.81,8.92-4.9s6.8,4.6,6,8.22h0a6.31,6.31,0,0,1-3.28,4.19A7.88,7.88,0,0,1,211.14,113Zm-.85-11.54a5,5,0,0,0-5.08,3.55,4.32,4.32,0,0,0,.84,3.55,6.42,6.42,0,0,0,7.89,1.76,4.34,4.34,0,0,0,2.28-2.86h0c.56-2.54-1.44-5.16-4.48-5.84A6.57,6.57,0,0,0,210.29,101.41Z" fill="#093f68"/><ellipse cx="248.49" cy="114.59" rx="5.72" ry="6.64" transform="translate(82.62 332.23) rotate(-77.44)" fill="#ffc9b0"/><path d="M248.9,121.36a9.3,9.3,0,0,1-1.87-.2,8.18,8.18,0,0,1-4.8-3,6.28,6.28,0,0,1-1.19-5.19c.8-3.61,4.8-5.81,8.91-4.9s6.8,4.61,6,8.23h0C255.27,119.32,252.29,121.36,248.9,121.36Zm-.83-11.53a5,5,0,0,0-5.08,3.54,4.32,4.32,0,0,0,.84,3.55,6.15,6.15,0,0,0,3.64,2.28c3,.68,6-.84,6.53-3.38s-1.45-5.16-4.48-5.83A6.64,6.64,0,0,0,248.07,109.83ZM255,116h0Z" fill="#093f68"/><path d="M245.35,96.52a19,19,0,0,1-6.57-3.12,35.94,35.94,0,0,1-7.55-8.65c-2.88,4.51-8.49,6.29-13.65,7.74-1.1.31-2.49.54-3.22-.35a59.67,59.67,0,0,0-3.83,12.59,20,20,0,1,0,39.09,8.7L253,98.24C250.46,97.66,247.85,97.24,245.35,96.52Z" fill="#ffc9b0"/><path d="M230.08,130.11a21,21,0,0,1-20.52-25.6,60.48,60.48,0,0,1,3.9-12.8,1,1,0,0,1,.79-.56,1,1,0,0,1,.89.36c.19.24.72.43,2.17,0,5.4-1.52,10.46-3.23,13.08-7.32a1,1,0,0,1,.83-.46,1,1,0,0,1,.84.44,35.09,35.09,0,0,0,7.33,8.41,17.8,17.8,0,0,0,6.23,3h0c1.61.46,3.31.81,5,1.15.88.17,1.77.36,2.64.55a1,1,0,0,1,.76,1.2l-3.38,15.19A21.07,21.07,0,0,1,230.08,130.11ZM214.8,93.6A63.82,63.82,0,0,0,211.51,105a19,19,0,1,0,37.13,8.27L251.81,99l-1.63-.34c-1.68-.34-3.43-.69-5.11-1.17h0a20,20,0,0,1-6.9-3.3,34.17,34.17,0,0,1-7-7.71c-3.11,3.83-8.09,5.49-13.36,7A5.46,5.46,0,0,1,214.8,93.6Z" fill="#093f68"/><path d="M230.54,113.46a10.28,10.28,0,0,1-3.3-.74,1,1,0,1,1,.77-1.85,8.57,8.57,0,0,0,2.17.57,16.38,16.38,0,0,0-.63-4.06,1,1,0,0,1,.7-1.23,1,1,0,0,1,1.23.71c.57,2.15,1.09,4.93.28,6a1.42,1.42,0,0,1-1.11.58Z" fill="#093f68"/><path d="M226.74,100.44a1.39,1.39,0,0,1-.35,0l-8.63-1.94a1.59,1.59,0,0,1,.7-3.1l8.63,1.94a1.59,1.59,0,0,1-.35,3.14Z" fill="#093f68"/><path d="M247.71,104.87l-.27,0-8.71-1.48a1.59,1.59,0,1,1,.53-3.13l8.72,1.47a1.59,1.59,0,0,1-.27,3.16Z" fill="#093f68"/><path d="M230.82,121.36c-4.9,0-10.24-4.42-10.51-4.65a1,1,0,0,1,1.28-1.54c2,1.68,8,5.6,11.47,3.65a1,1,0,0,1,1,1.75A6.53,6.53,0,0,1,230.82,121.36Z" fill="#093f68"/><path d="M223.5,106.23a1,1,0,0,1-1-1,2.53,2.53,0,0,0-1.79-2.46,3.24,3.24,0,0,0-3.14,1.13,1,1,0,0,1-1.4.17,1,1,0,0,1-.18-1.4,5.25,5.25,0,0,1,5.2-1.84,4.5,4.5,0,0,1,3.31,4.4A1,1,0,0,1,223.5,106.23Z" fill="#093f68"/><path d="M244.84,110.73a1,1,0,0,1-1-1,2.54,2.54,0,0,0-1.79-2.46,3.23,3.23,0,0,0-3.14,1.11,1,1,0,1,1-1.58-1.21,5.2,5.2,0,0,1,5.19-1.84,4.52,4.52,0,0,1,3.32,4.4A1,1,0,0,1,244.84,110.73Z" fill="#093f68"/><path d="M156.7,116.62h6.72a0,0,0,0,1,0,0v3.87a2.85,2.85,0,0,1-2.85,2.85h-1a2.85,2.85,0,0,1-2.85-2.85v-3.87A0,0,0,0,1,156.7,116.62Z" transform="translate(-10.39 15.29) rotate(-5.3)" fill="#ffc9b0"/><path d="M159.6,124.39a3.85,3.85,0,0,1-3.83-3.5l-.36-3.85a1,1,0,0,1,.22-.73,1,1,0,0,1,.68-.36l6.7-.62a1,1,0,0,1,1.08.9l.36,3.85a3.79,3.79,0,0,1-.87,2.82,3.88,3.88,0,0,1-2.61,1.38l-1,.09Zm-2.11-6.54.27,2.85a1.83,1.83,0,0,0,.66,1.26,1.8,1.8,0,0,0,1.35.42l1-.09h0a1.87,1.87,0,0,0,1.68-2l-.27-2.86Z" fill="#093f68"/><path d="M134.91,100.2c-3.21-.89-3.24-3.28-4-6.29a76.84,76.84,0,0,1-1.71-9,24.92,24.92,0,0,1,.37-10.36c1-3.45,3.95-6.81,7.86-6.73a1.38,1.38,0,0,0,.64-.08c.34-.17.44-.6.53-1,.87-3.27,5.75-6.11,8.55-7.6a24.09,24.09,0,0,1,27.55,3c3.14,2.68,7.4,7.58,8.16,11.7,1.12,6-1,22.55-1,22.55l-4.22-.34c-1.77-.15-3.91.48-5.66.7L159,98.39C152.56,99.19,142.22,102.22,134.91,100.2Z" fill="#725858"/><path d="M140.65,101.88a22.75,22.75,0,0,1-6-.71h0c-3.34-.93-3.86-3.29-4.42-5.79-.09-.39-.18-.8-.28-1.22A77.21,77.21,0,0,1,128.22,85c-.42-3.29-.7-7.14.41-10.79s4.31-7.51,8.83-7.43h.1c0-.08.05-.18.07-.25,1-3.61,5.63-6.45,9.06-8.29a25.09,25.09,0,0,1,28.67,3.16c2.75,2.35,7.62,7.58,8.5,12.28,1.13,6.12-.93,22.18-1,22.86a1,1,0,0,1-1.07.87l-4.22-.35a14.58,14.58,0,0,0-3.59.39c-.65.12-1.28.24-1.87.31l-12.93,1.61c-1.61.2-3.48.54-5.47.91A75.13,75.13,0,0,1,140.65,101.88Zm-5.47-2.64c5.25,1.45,12.4.14,18.15-.92,2-.37,3.92-.72,5.58-.92l12.94-1.61c.55-.07,1.14-.18,1.74-.3a16.19,16.19,0,0,1,4.12-.41h0l3.27.26c.43-3.57,1.84-16.29.92-21.29-.67-3.61-4.53-8.3-7.83-11.12A23.11,23.11,0,0,0,147.63,60c-4.79,2.56-7.5,4.91-8,7a2.27,2.27,0,0,1-1.06,1.61,2.09,2.09,0,0,1-1.06.18c-3.51-.07-6,3.07-6.92,6-1,3.28-.73,6.87-.33,9.94a75.33,75.33,0,0,0,1.68,8.92c.11.44.2.87.29,1.27.57,2.56.91,3.72,3,4.3Z" fill="#093f68"/><ellipse cx="139.01" cy="101.02" rx="6.53" ry="5.63" transform="translate(-8.73 13.27) rotate(-5.3)" fill="#ffc9b0"/><path d="M138.81,107.66a7.94,7.94,0,0,1-4.62-1.44,6.1,6.1,0,0,1-.87-9.43,8,8,0,0,1,5.07-2.37c4.14-.38,7.78,2.26,8.12,5.9a6.24,6.24,0,0,1-1.82,4.93,8,8,0,0,1-5.07,2.37C139.35,107.64,139.08,107.66,138.81,107.66Zm.38-11.28c-.2,0-.41,0-.61,0a6,6,0,0,0-3.82,1.76,4.11,4.11,0,0,0,.59,6.42,6.28,6.28,0,0,0,7.9-.73,4.2,4.2,0,0,0,1.26-3.35C144.29,98.14,142,96.38,139.19,96.38Z" fill="#093f68"/><ellipse cx="176.93" cy="97.5" rx="6.53" ry="5.63" transform="translate(-8.25 16.75) rotate(-5.3)" fill="#ffc9b0"/><path d="M176.74,104.14c-3.8,0-7-2.54-7.31-5.94a6.2,6.2,0,0,1,1.81-4.93,8.07,8.07,0,0,1,5.07-2.37c4.15-.37,7.78,2.27,8.12,5.91a6.21,6.21,0,0,1-1.82,4.92,8,8,0,0,1-5.07,2.37A7.26,7.26,0,0,1,176.74,104.14Zm.37-11.28c-.2,0-.41,0-.61,0a6.05,6.05,0,0,0-3.82,1.77A4.23,4.23,0,0,0,171.42,98c.23,2.54,2.9,4.39,5.93,4.1a6,6,0,0,0,3.82-1.76A4.22,4.22,0,0,0,182.43,97C182.21,94.62,179.89,92.86,177.11,92.86Z" fill="#093f68"/><path d="M159.83,117.51h0a19.69,19.69,0,0,1-21.43-17.8l-1.32-14.24c1.32,1.78,5.06.68,9.75-9.42C168.71,84.7,176,77.91,176,77.91l1.68,18.17A19.69,19.69,0,0,1,159.83,117.51Z" fill="#ffc9b0"/><path d="M158,118.6A20.72,20.72,0,0,1,137.4,99.81l-1.32-14.25a1,1,0,0,1,.64-1,1,1,0,0,1,1.16.33.67.67,0,0,0,.69.29c.52,0,3.27-.75,7.35-9.53a1,1,0,0,1,1.28-.51c20.85,8.25,28,2.12,28.07,2.06a1,1,0,0,1,1-.2,1,1,0,0,1,.63.84L178.63,96a20.71,20.71,0,0,1-18.71,22.53C159.27,118.57,158.62,118.6,158,118.6ZM138.24,87.16l1.15,12.46a18.72,18.72,0,0,0,20.35,16.9h0a18.7,18.7,0,0,0,16.89-20.35L175.1,79.64c-3.12,1.61-11.35,4-27.77-2.32-3,6.17-5.93,9.56-8.55,9.83A3.29,3.29,0,0,1,138.24,87.16Z" fill="#093f68"/><path d="M157.2,101.92c-.48,0-.82,0-.91,0a1,1,0,0,1,.16-2,9.39,9.39,0,0,0,2.57-.15A17,17,0,0,0,157,95.6a1,1,0,0,1,1.68-1.08c1.07,1.65,2.79,4.65,2.29,6.09a1.42,1.42,0,0,1-.89.91A9.1,9.1,0,0,1,157.2,101.92Z" fill="#093f68"/><path d="M141.31,93.08a2,2,0,0,1-.42-4l9.44-2a2,2,0,0,1,.84,3.91l-9.44,2A2,2,0,0,1,141.31,93.08Z" fill="#093f68"/><path d="M163.5,89.87a2,2,0,0,1-.07-4l10.66-.35a2,2,0,0,1,.13,4l-10.66.36Z" fill="#093f68"/><path d="M144.53,99a.9.9,0,0,1-.42-.1,1,1,0,0,1-.49-1.32,4.93,4.93,0,0,1,3.63-2.77,3.61,3.61,0,0,1,3.53,1.61,1,1,0,0,1-1.75,1,1.65,1.65,0,0,0-1.6-.59c-1.26.12-2,1.61-2,1.62A1,1,0,0,1,144.53,99Z" fill="#093f68"/><path d="M165.13,96.44a.94.94,0,0,1-.43-.1,1,1,0,0,1-.48-1.32c.05-.1,1.21-2.55,3.62-2.77a3.6,3.6,0,0,1,3.53,1.61,1,1,0,0,1-1.75,1,1.6,1.6,0,0,0-1.6-.58c-1.26.11-2,1.6-2,1.61A1,1,0,0,1,165.13,96.44Z" fill="#093f68"/><path d="M165.59,105.68s-5.11,3.22-12.7,1.17" fill="#ffc9b0"/><path d="M157.92,108.54a20.32,20.32,0,0,1-5.29-.72,1,1,0,1,1,.52-1.93,16,16,0,0,0,11.91-1.06,1,1,0,0,1,1.38.32,1,1,0,0,1-.32,1.37A16.24,16.24,0,0,1,157.92,108.54Z" fill="#093f68"/><path d="M225.49,135.92s-19.33,23-27.83,27.37c0,0-4.93-2.55-5.95-1.36s-.85,4.25-.85,4.25-4.25,1.87-2.89,3.91,3.4,3.23,7.48,3.23,30.6-19.38,37.09-31.28" fill="#ffc9b0"/><path d="M195.45,174.32c-4,0-6.62-1.13-8.31-3.67a2.42,2.42,0,0,1-.34-2.08c.42-1.44,2.08-2.5,3-3,0-1.11.16-3.17,1.11-4.28,1.24-1.45,4.54-.18,6.69.88,8.45-4.82,26.9-26.66,27.09-26.88a1,1,0,1,1,1.52,1.28c-.79.95-19.55,23.16-28.13,27.62a1,1,0,0,1-.92,0c-2-1-4.28-1.76-4.81-1.54a7.22,7.22,0,0,0-.53,3.49,1,1,0,0,1-.6,1c-.9.4-2.33,1.32-2.54,2a.47.47,0,0,0,.08.41c1,1.44,2.44,2.78,6.65,2.78,3.47,0,29.78-19,36.21-30.76a1,1,0,1,1,1.75,1C226.82,154.6,200.14,174.32,195.45,174.32Z" fill="#093f68"/><path d="M165,141.91a1,1,0,0,1-.54-.15,1,1,0,0,1-.31-1.38l5.17-8.25-3.25-2.32a1,1,0,0,1,0-1.61l2.82-2.19c-2-2.11-4.06-4.22-4.43-4.55a1,1,0,0,1-.38-1.14,1,1,0,0,1,1.27-.63c.29.1.42.15,5.76,5.74a1,1,0,0,1,.27.77,1,1,0,0,1-.39.71L168.31,129l2.92,2.09a1,1,0,0,1,.27,1.34l-5.68,9.06A1,1,0,0,1,165,141.91Z" fill="#093f68"/><path d="M157.9,141.91a1,1,0,0,1-.73-.31l-7.46-7.9a1,1,0,0,1-.26-.81,1,1,0,0,1,.45-.72l2.42-1.57-2.6-2.7a1,1,0,0,1-.12-1.23l4.53-7a1,1,0,1,1,1.68,1.08l-4.1,6.36,2.89,3a1,1,0,0,1,.28.81,1,1,0,0,1-.45.73L152,133.2l6.64,7a1,1,0,0,1,0,1.41A1,1,0,0,1,157.9,141.91Z" fill="#093f68"/><polyline points="148.27 141.62 179.32 165.52 187.9 156.24 148.27 124.19" fill="#68e1fd"/><path d="M179.32,166.52a1,1,0,0,1-.61-.21l-31.05-23.9a1,1,0,0,1,1.22-1.59l30.33,23.35,7.23-7.83L147.64,125a1,1,0,0,1-.14-1.41,1,1,0,0,1,1.4-.15l39.63,32.05a1,1,0,0,1,.37.7,1,1,0,0,1-.26.76l-8.59,9.28A1,1,0,0,1,179.32,166.52Z" fill="#093f68"/><path d="M162.85,164.93a1,1,0,0,1-1-.94l-.72-11.64a1,1,0,1,1,2-.12l.72,11.63a1,1,0,0,1-.94,1.06Z" fill="#093f68"/><path d="M200,82.14c-.46-.42-.91-.85-1.37-1.26-1.29-1.15-2.58-2.28-3.88-3.41a32.72,32.72,0,0,1-2.49-2.36,8.56,8.56,0,0,1-1.69-2.53,7.66,7.66,0,0,1-.52-2,10.43,10.43,0,0,1-.09-1.85,5,5,0,0,1,3.4-4.64A5.25,5.25,0,0,1,199,65.44a5.84,5.84,0,0,1,.95,1.2l.06.09.07-.11a6.28,6.28,0,0,1,2.4-2.26,5.15,5.15,0,0,1,2.81-.55A5.07,5.07,0,0,1,210,68.05a8.27,8.27,0,0,1,.05,1.86,9.34,9.34,0,0,1-.34,2,7.73,7.73,0,0,1-1.44,2.66A19.57,19.57,0,0,1,206,76.78c-1.18,1-2.38,2.07-3.56,3.12-.8.71-1.59,1.45-2.39,2.18Z" fill="#f56132"/><path d="M200,83.11a1,1,0,0,1-.65-.23l-.43-.4-.92-.86-3.12-2.74-.76-.66a34.33,34.33,0,0,1-2.57-2.43A9.56,9.56,0,0,1,189.65,73a8.85,8.85,0,0,1-.59-2.25,11.75,11.75,0,0,1-.1-2,6,6,0,0,1,4.09-5.54,6.27,6.27,0,0,1,6.63,1.57c.11.11.22.22.32.34a6.73,6.73,0,0,1,2-1.57,6.13,6.13,0,0,1,8.94,4.4A8.84,8.84,0,0,1,211,70a9.46,9.46,0,0,1-.37,2.18,8.63,8.63,0,0,1-1.63,3,20.09,20.09,0,0,1-2.33,2.36l-1.61,1.41-1.94,1.7-1.67,1.52-.71.66A1.18,1.18,0,0,1,200,83.11ZM195.2,64.78a5,5,0,0,0-1.53.26A4,4,0,0,0,191,68.77a9.68,9.68,0,0,0,.08,1.68,7.24,7.24,0,0,0,.45,1.75,7.53,7.53,0,0,0,1.5,2.23,31.07,31.07,0,0,0,2.42,2.28l.76.67,3.12,2.75.72.65.1-.09c.56-.52,1.12-1,1.69-1.54l1.95-1.72,1.61-1.4a19.18,19.18,0,0,0,2.1-2.12,6.63,6.63,0,0,0,1.26-2.32,7.8,7.8,0,0,0,.3-1.74,6.84,6.84,0,0,0,0-1.63,4,4,0,0,0-1.38-2.46,4.14,4.14,0,0,0-2.39-1,4.24,4.24,0,0,0-2.28.45,5.14,5.14,0,0,0-2,1.9l-.07.12a1,1,0,0,1-.85.46h0a1,1,0,0,1-.84-.46l-.07-.1a4.69,4.69,0,0,0-.8-1A4.36,4.36,0,0,0,195.2,64.78Z" fill="#093f68"/></g></svg>