<svg xmlns="http://www.w3.org/2000/svg" viewBox="0 0 400 300"><g id="_309_crossed_flags_outline" data-name="#309_crossed_flags_outline"><path d="M292.93,150c0,1,0,2-.05,3a92.76,92.76,0,0,1-68.75,86.72c-1.76.49-3.55.91-5.36,1.28a93.66,93.66,0,0,1-37.54,0c-1.81-.37-3.6-.79-5.36-1.28A92.76,92.76,0,0,1,107.12,153c0-1-.05-2-.05-3a92.71,92.71,0,0,1,1.35-15.82q.57-3.39,1.4-6.69a92,92,0,0,1,4.52-13.58,93,93,0,0,1,171.32,0,92,92,0,0,1,4.52,13.58q.82,3.3,1.4,6.69A92.71,92.71,0,0,1,292.93,150Z" fill="#fff"/><path d="M200,243.93A94.35,94.35,0,0,1,181,242c-2-.4-3.73-.82-5.43-1.3a93.8,93.8,0,0,1-69.48-87.65c0-1-.05-2-.05-3.06a94.56,94.56,0,0,1,1.36-16c.38-2.23.86-4.51,1.42-6.76a93.94,93.94,0,0,1,182.3,0c.56,2.25,1,4.53,1.42,6.76a94.56,94.56,0,0,1,1.36,16c0,1,0,2-.05,3.06a93.81,93.81,0,0,1-69.49,87.66c-1.69.47-3.46.89-5.42,1.29A94.35,94.35,0,0,1,200,243.93Zm0-185.86a91.87,91.87,0,0,0-89.21,69.66c-.55,2.2-1,4.43-1.38,6.62A91.59,91.59,0,0,0,108.07,150c0,1,0,2,.05,3a91.78,91.78,0,0,0,68,85.78c1.66.47,3.39.88,5.3,1.27a93.26,93.26,0,0,0,37.14,0c1.91-.39,3.64-.8,5.29-1.26a91.79,91.79,0,0,0,68-85.79c0-1,.05-2,.05-3a91.59,91.59,0,0,0-1.34-15.65c-.36-2.19-.83-4.42-1.38-6.62A91.87,91.87,0,0,0,200,58.07Z" fill="#093f68"/><rect x="159.08" y="97.73" width="17.62" height="17.62" transform="translate(359.79 158.65) rotate(162.79)" fill="#68e1fd"/><path d="M162.09,118.57a1,1,0,0,1-1-.71L155.92,101a1,1,0,0,1,.66-1.25l16.83-5.21a1,1,0,0,1,1.25.66l5.21,16.83a1,1,0,0,1-.07.76,1,1,0,0,1-.59.49l-16.83,5.21A1,1,0,0,1,162.09,118.57Zm-4-17.18,4.63,14.92,14.92-4.62L173,96.77Z" fill="#093f68"/><rect x="142.25" y="102.95" width="17.62" height="17.62" transform="translate(328.43 173.82) rotate(162.79)" fill="#fff"/><path d="M145.25,123.78a1,1,0,0,1-.95-.71l-5.21-16.83a1,1,0,0,1,.66-1.25l16.83-5.21a1,1,0,0,1,1.25.66L163,117.27a1,1,0,0,1-.66,1.25l-16.83,5.21A1,1,0,0,1,145.25,123.78Zm-4-17.17,4.62,14.92,14.92-4.62L156.21,102Z" fill="#093f68"/><rect x="125.42" y="108.16" width="17.62" height="17.62" transform="matrix(-0.96, 0.3, -0.3, -0.96, 297.06, 188.99)" fill="#68e1fd"/><path d="M128.42,129a1,1,0,0,1-.95-.7l-5.21-16.83a1,1,0,0,1,.66-1.25L139.75,105a1,1,0,0,1,1.25.66l5.21,16.83a1,1,0,0,1-.66,1.25L128.72,129A1,1,0,0,1,128.42,129Zm-4-17.17,4.62,14.92L144,122.12l-4.62-14.92Z" fill="#093f68"/><rect x="108.59" y="113.37" width="17.62" height="17.62" transform="translate(265.7 204.16) rotate(162.79)" fill="#fff"/><path d="M111.59,134.2a1,1,0,0,1-1-.7l-5.22-16.83a1,1,0,0,1,.66-1.25l16.84-5.21a1,1,0,0,1,1.25.65l5.21,16.84a1,1,0,0,1-.66,1.25l-16.83,5.21A1,1,0,0,1,111.59,134.2Zm-4-17.17L112.25,132l14.92-4.62-4.62-14.92Z" fill="#093f68"/><rect x="91.76" y="118.59" width="17.62" height="17.62" transform="translate(234.33 219.33) rotate(162.79)" fill="#68e1fd"/><path d="M94.76,139.42a1,1,0,0,1-1-.71l-5.22-16.83a1,1,0,0,1,.66-1.25l16.83-5.21a1,1,0,0,1,1.25.66l5.22,16.83a1,1,0,0,1-.66,1.25l-16.83,5.21A1,1,0,0,1,94.76,139.42Zm-4-17.17,4.62,14.92,14.92-4.63-4.62-14.92Z" fill="#093f68"/><rect x="164.3" y="114.56" width="17.62" height="17.62" transform="translate(374.97 190.01) rotate(162.79)" fill="#fff"/><path d="M167.3,135.4a1,1,0,0,1-1-.71l-5.21-16.83a1,1,0,0,1,.66-1.25l16.83-5.21a1,1,0,0,1,1.25.66l5.21,16.83a1,1,0,0,1-.66,1.25l-16.83,5.21A.93.93,0,0,1,167.3,135.4Zm-4-17.18L168,133.15l14.92-4.63-4.62-14.92Z" fill="#093f68"/><rect x="147.47" y="119.78" width="17.62" height="17.62" transform="translate(343.6 205.18) rotate(162.79)" fill="#68e1fd"/><path d="M150.47,140.61a1,1,0,0,1-1-.7l-5.21-16.84a1,1,0,0,1,.66-1.25l16.83-5.21a1,1,0,0,1,1.25.66l5.21,16.83a1,1,0,0,1-.66,1.25l-16.83,5.21A.93.93,0,0,1,150.47,140.61Zm-4-17.17,4.62,14.92,14.92-4.62-4.62-14.92Z" fill="#093f68"/><rect x="130.64" y="124.99" width="17.62" height="17.62" transform="translate(312.23 220.36) rotate(162.79)" fill="#fff"/><path d="M133.64,145.82a1,1,0,0,1-1-.7l-5.21-16.83a1,1,0,0,1,.66-1.25L145,121.82a1,1,0,0,1,1.25.66l5.21,16.83a1,1,0,0,1-.66,1.25l-16.83,5.22A1,1,0,0,1,133.64,145.82Zm-4-17.17,4.63,14.92L149.22,139,144.6,124Z" fill="#093f68"/><rect x="113.8" y="130.2" width="17.62" height="17.62" transform="translate(280.87 235.53) rotate(162.79)" fill="#68e1fd"/><path d="M116.81,151a1,1,0,0,1-1-.71l-5.21-16.83a1,1,0,0,1,.66-1.25L128.13,127a1,1,0,0,1,1.25.66l5.21,16.83a1,1,0,0,1-.66,1.25L117.1,151A1,1,0,0,1,116.81,151Zm-4-17.18,4.62,14.92,14.93-4.62-4.63-14.92Z" fill="#093f68"/><rect x="96.97" y="135.42" width="17.62" height="17.62" transform="translate(249.5 250.7) rotate(162.79)" fill="#fff"/><path d="M100,156.25a1,1,0,0,1-1-.71l-5.21-16.83a1,1,0,0,1,.66-1.25l16.83-5.21a1,1,0,0,1,1.25.66l5.21,16.83a1,1,0,0,1-.66,1.25l-16.83,5.21A1,1,0,0,1,100,156.25Zm-4-17.17L100.63,154l14.92-4.62-4.62-14.92Z" fill="#093f68"/><rect x="169.51" y="131.4" width="17.62" height="17.62" transform="translate(390.14 221.38) rotate(162.79)" fill="#68e1fd"/><path d="M172.51,152.23a1,1,0,0,1-.95-.71l-5.22-16.83a1,1,0,0,1,.66-1.25l16.83-5.21a1,1,0,0,1,.76.07.93.93,0,0,1,.49.59l5.22,16.83a1,1,0,0,1-.66,1.25l-16.83,5.21A1,1,0,0,1,172.51,152.23Zm-4-17.17L173.17,150l14.92-4.62-4.62-14.93Z" fill="#093f68"/><rect x="152.68" y="136.61" width="17.62" height="17.62" transform="matrix(-0.96, 0.3, -0.3, -0.96, 358.77, 236.55)" fill="#fff"/><path d="M155.68,157.44a1,1,0,0,1-1-.7l-5.22-16.83a1,1,0,0,1,.66-1.26L167,133.44a1,1,0,0,1,1.25.66l5.22,16.83a1,1,0,0,1-.66,1.25L156,157.4A1,1,0,0,1,155.68,157.44Zm-4-17.17,4.62,14.92,14.92-4.62-4.62-14.92Z" fill="#093f68"/><rect x="135.85" y="141.82" width="17.62" height="17.62" transform="translate(327.41 251.72) rotate(162.79)" fill="#68e1fd"/><path d="M138.85,162.65a1,1,0,0,1-1-.7l-5.21-16.83a1,1,0,0,1,.66-1.25l16.83-5.22a1,1,0,0,1,1.25.66l5.22,16.83a1,1,0,0,1-.66,1.26l-16.83,5.21A1,1,0,0,1,138.85,162.65Zm-4-17.17,4.62,14.92,14.92-4.62-4.62-14.92Z" fill="#093f68"/><rect x="119.02" y="147.03" width="17.62" height="17.62" transform="translate(296.04 266.89) rotate(162.79)" fill="#fff"/><path d="M122,167.87a1,1,0,0,1-1-.71l-5.21-16.83a1,1,0,0,1,.66-1.25l16.83-5.21a1,1,0,0,1,1.25.66l5.21,16.83a1,1,0,0,1-.65,1.25l-16.84,5.21A.93.93,0,0,1,122,167.87Zm-4-17.18,4.62,14.93L137.6,161,133,146.07Z" fill="#093f68"/><rect x="102.19" y="152.25" width="17.62" height="17.62" transform="translate(264.67 282.07) rotate(162.79)" fill="#68e1fd"/><path d="M105.19,173.08a1,1,0,0,1-1-.71L99,155.54a1,1,0,0,1,.07-.76,1,1,0,0,1,.59-.49l16.83-5.21a1,1,0,0,1,1.25.66L123,166.57a1,1,0,0,1-.66,1.25L105.48,173A1,1,0,0,1,105.19,173.08Zm-4-17.17,4.62,14.92,14.92-4.62-4.62-14.92Z" fill="#093f68"/><path d="M224.13,239.75c-1.76.49-3.55.91-5.36,1.28L200,180.42l-2.88-9.29L189.34,146l-10.42-33.66L173.7,95.52l-1.47-4.76a2.91,2.91,0,0,1-.12-.82,2.74,2.74,0,0,1,5.37-.8L200,161.85l2.88,9.28Z" fill="#fff"/><path d="M218.77,242a1,1,0,0,1-1-.7L171.28,91.05a3.89,3.89,0,0,1-.17-1.11,3.75,3.75,0,0,1,7.33-1.1l46.64,150.61a1,1,0,0,1-.07.78,1,1,0,0,1-.61.48c-1.7.48-3.47.9-5.43,1.3ZM174.85,88.2a1.51,1.51,0,0,0-.51.08,1.72,1.72,0,0,0-1.23,1.66,1.89,1.89,0,0,0,.08.53L201,180.12l18.5,59.75c1.19-.26,2.32-.53,3.41-.81L176.53,89.44A1.76,1.76,0,0,0,174.85,88.2Z" fill="#093f68"/><rect x="223.3" y="97.73" width="17.62" height="17.62" transform="translate(41.91 -63.9) rotate(17.21)" fill="#68e1fd"/><path d="M237.91,118.57a1,1,0,0,1-.29,0l-16.83-5.21a1,1,0,0,1-.59-.49,1,1,0,0,1-.07-.76l5.21-16.83a1,1,0,0,1,1.25-.66l16.83,5.21a1,1,0,0,1,.66,1.25l-5.21,16.83A1,1,0,0,1,237.91,118.57Zm-15.58-6.88,14.92,4.62,4.63-14.92L227,96.77Z" fill="#093f68"/><rect x="240.13" y="102.95" width="17.62" height="17.62" transform="translate(44.21 -68.64) rotate(17.21)" fill="#fff"/><path d="M254.75,123.78a1,1,0,0,1-.3,0l-16.83-5.21a1,1,0,0,1-.66-1.25l5.21-16.83a1,1,0,0,1,1.25-.66L260.25,105a1,1,0,0,1,.66,1.25l-5.21,16.83A1,1,0,0,1,254.75,123.78Zm-15.58-6.87,14.92,4.62,4.62-14.92L243.79,102Z" fill="#093f68"/><rect x="256.96" y="108.16" width="17.62" height="17.62" transform="translate(46.5 -73.39) rotate(17.21)" fill="#68e1fd"/><path d="M271.58,129a1,1,0,0,1-.3,0l-16.83-5.22a1,1,0,0,1-.66-1.25L259,105.65a1,1,0,0,1,1.25-.66l16.83,5.22a1,1,0,0,1,.66,1.25l-5.21,16.83A1,1,0,0,1,271.58,129ZM256,122.12l14.92,4.62,4.62-14.92-14.92-4.62Z" fill="#093f68"/><rect x="273.79" y="113.37" width="17.62" height="17.62" transform="translate(48.8 -78.14) rotate(17.21)" fill="#fff"/><path d="M288.41,134.2a1,1,0,0,1-.3,0L271.28,129a1,1,0,0,1-.66-1.25l5.21-16.84a1,1,0,0,1,1.25-.65l16.84,5.21a1,1,0,0,1,.66,1.25l-5.22,16.83A1,1,0,0,1,288.41,134.2Zm-15.58-6.87L287.75,132,292.37,117l-14.92-4.62Z" fill="#093f68"/><rect x="290.62" y="118.59" width="17.62" height="17.62" transform="translate(51.09 -82.88) rotate(17.21)" fill="#68e1fd"/><path d="M305.24,139.42a1,1,0,0,1-.3,0l-16.83-5.21a1,1,0,0,1-.66-1.25l5.22-16.83a1,1,0,0,1,1.25-.66l16.83,5.21a1,1,0,0,1,.66,1.25l-5.22,16.83A1,1,0,0,1,305.24,139.42Zm-15.58-6.88,14.92,4.63,4.62-14.92-14.92-4.63Z" fill="#093f68"/><rect x="218.08" y="114.56" width="17.62" height="17.62" transform="translate(46.66 -61.6) rotate(17.21)" fill="#fff"/><path d="M232.7,135.4a.93.93,0,0,1-.29-.05l-16.83-5.21a1,1,0,0,1-.66-1.25l5.21-16.83a1,1,0,0,1,1.25-.66l16.83,5.21a1,1,0,0,1,.66,1.25l-5.21,16.83a1,1,0,0,1-1,.71Zm-15.58-6.88L232,133.15l4.62-14.93-14.92-4.62Z" fill="#093f68"/><rect x="234.91" y="119.78" width="17.62" height="17.62" transform="translate(48.95 -66.35) rotate(17.21)" fill="#68e1fd"/><path d="M249.53,140.61a.93.93,0,0,1-.29-.05l-16.83-5.21a1,1,0,0,1-.66-1.25L237,117.27a1,1,0,0,1,1.25-.66L255,121.82a1,1,0,0,1,.66,1.25l-5.21,16.84A1,1,0,0,1,249.53,140.61ZM234,133.74l14.92,4.62,4.62-14.92-14.92-4.62Z" fill="#093f68"/><rect x="251.74" y="124.99" width="17.62" height="17.62" transform="translate(51.25 -71.1) rotate(17.21)" fill="#fff"/><path d="M266.36,145.82a1,1,0,0,1-.29,0l-16.83-5.22a1,1,0,0,1-.66-1.25l5.21-16.83a1,1,0,0,1,1.25-.66L271.87,127a1,1,0,0,1,.66,1.25l-5.21,16.83A1,1,0,0,1,266.36,145.82ZM250.78,139l14.92,4.62,4.63-14.92L255.4,124Z" fill="#093f68"/><rect x="268.58" y="130.2" width="17.62" height="17.62" transform="translate(53.54 -75.84) rotate(17.21)" fill="#68e1fd"/><path d="M283.19,151a1,1,0,0,1-.29,0l-16.83-5.21a1,1,0,0,1-.66-1.25l5.21-16.83a1,1,0,0,1,1.25-.66l16.83,5.21a1,1,0,0,1,.66,1.25l-5.21,16.83A1,1,0,0,1,283.19,151Zm-15.58-6.88,14.93,4.62,4.62-14.92-14.92-4.62Z" fill="#093f68"/><rect x="285.41" y="135.42" width="17.62" height="17.62" transform="translate(55.84 -80.59) rotate(17.21)" fill="#fff"/><path d="M300,156.25a1,1,0,0,1-.3-.05L282.9,151a1,1,0,0,1-.66-1.25l5.21-16.83a1,1,0,0,1,1.25-.66l16.83,5.21a1,1,0,0,1,.66,1.25L301,155.54A1,1,0,0,1,300,156.25Zm-15.58-6.87L299.37,154,304,139.08l-14.92-4.62Z" fill="#093f68"/><rect x="212.87" y="131.4" width="17.62" height="17.62" transform="translate(51.4 -59.31) rotate(17.21)" fill="#68e1fd"/><path d="M227.49,152.23a1,1,0,0,1-.3,0L210.36,147a1,1,0,0,1-.66-1.25l5.22-16.83a.93.93,0,0,1,.49-.59,1,1,0,0,1,.76-.07L233,133.44a1,1,0,0,1,.66,1.25l-5.22,16.83a1,1,0,0,1-.95.71Zm-15.58-6.87L226.83,150l4.62-14.92-14.92-4.63Z" fill="#093f68"/><rect x="229.7" y="136.61" width="17.62" height="17.62" transform="translate(53.7 -64.05) rotate(17.21)" fill="#fff"/><path d="M244.32,157.44a1,1,0,0,1-.3,0l-16.83-5.22a1,1,0,0,1-.66-1.25l5.22-16.83a1,1,0,0,1,1.25-.66l16.83,5.21a1,1,0,0,1,.66,1.26l-5.22,16.83A1,1,0,0,1,244.32,157.44Zm-15.58-6.87,14.92,4.62,4.62-14.92-14.92-4.62Z" fill="#093f68"/><rect x="246.53" y="141.82" width="17.62" height="17.62" transform="translate(55.99 -68.8) rotate(17.21)" fill="#68e1fd"/><path d="M261.15,162.65a1,1,0,0,1-.3,0L244,157.4a1,1,0,0,1-.66-1.26l5.22-16.83a1,1,0,0,1,1.25-.66l16.83,5.22a1,1,0,0,1,.66,1.25L262.11,162A1,1,0,0,1,261.15,162.65Zm-15.58-6.87,14.92,4.62,4.62-14.92-14.92-4.62Z" fill="#093f68"/><rect x="263.36" y="147.03" width="17.62" height="17.62" transform="translate(58.29 -73.55) rotate(17.21)" fill="#fff"/><path d="M278,167.87a.93.93,0,0,1-.29-.05l-16.84-5.21a1,1,0,0,1-.65-1.25l5.21-16.83a1,1,0,0,1,1.25-.66l16.83,5.21a1,1,0,0,1,.66,1.25l-5.21,16.83A1,1,0,0,1,278,167.87ZM262.4,161l14.92,4.63,4.62-14.93L267,146.07Z" fill="#093f68"/><rect x="280.19" y="152.25" width="17.62" height="17.62" transform="translate(60.59 -78.29) rotate(17.21)" fill="#68e1fd"/><path d="M294.81,173.08a1,1,0,0,1-.29-.05l-16.83-5.21a1,1,0,0,1-.66-1.25l5.21-16.83a1,1,0,0,1,1.25-.66l16.83,5.21a1,1,0,0,1,.59.49,1,1,0,0,1,.07.76l-5.21,16.83A1,1,0,0,1,294.81,173.08Zm-15.58-6.87,14.92,4.62,4.62-14.92-14.92-4.62Z" fill="#093f68"/><path d="M227.89,89.94a2.91,2.91,0,0,1-.12.82l-1.47,4.76-5.22,16.83L210.66,146l-7.78,25.12L200,180.42,181.23,241c-1.81-.37-3.6-.79-5.36-1.28l21.25-68.62,2.88-9.28,22.52-72.71a2.74,2.74,0,0,1,5.37.8Z" fill="#fff"/><path d="M181.23,242l-.2,0c-2-.4-3.73-.82-5.43-1.3a1,1,0,0,1-.61-.48,1,1,0,0,1-.07-.78L221.56,88.84a3.75,3.75,0,0,1,7.33,1.1,4.12,4.12,0,0,1-.16,1.1L182.19,241.33A1,1,0,0,1,181.23,242Zm-4.1-3c1.09.28,2.22.55,3.41.81L226.81,90.46a1.77,1.77,0,0,0,.08-.52,1.74,1.74,0,0,0-1.23-1.67,1.77,1.77,0,0,0-2.19,1.17Z" fill="#093f68"/></g></svg>