<svg xmlns="http://www.w3.org/2000/svg" viewBox="0 0 400 300"><g id="_263_daenerys_targaryen_outline" data-name="#263_daenerys_targaryen_outline"><path d="M291.65,150A91.54,91.54,0,0,1,249,227.48c-2.06,1.32-4.19,2.55-6.37,3.68a89.29,89.29,0,0,1-18.29,7.22,86.72,86.72,0,0,1-11.79,2.41,90.64,90.64,0,0,1-12.51.86h-1.17a91.54,91.54,0,0,1-41.42-10.48c-2.18-1.13-4.31-2.36-6.37-3.68A91.65,91.65,0,1,1,291.65,150Z" fill="#fff"/><path d="M200,242.65h-1.19A92.59,92.59,0,0,1,156.94,232c-2.19-1.14-4.36-2.39-6.44-3.72a92.65,92.65,0,1,1,99,0c-2.06,1.32-4.23,2.57-6.44,3.72a90.73,90.73,0,0,1-18.49,7.3,88.87,88.87,0,0,1-11.92,2.43A91.28,91.28,0,0,1,200,242.65Zm0-183.3a90.65,90.65,0,0,0-48.43,167.28c2,1.3,4.15,2.53,6.3,3.64a90.45,90.45,0,0,0,41,10.37H200a90.61,90.61,0,0,0,12.37-.85A86.57,86.57,0,0,0,224,237.42a89.12,89.12,0,0,0,18.09-7.14c2.16-1.13,4.28-2.35,6.3-3.64A90.65,90.65,0,0,0,200,59.35Z" fill="#093f68"/><path d="M249,190.31v37.17c-2.06,1.32-4.19,2.55-6.37,3.68a89.29,89.29,0,0,1-18.29,7.22,86.72,86.72,0,0,1-11.79,2.41,90.64,90.64,0,0,1-12.51.86h-1.17a91.54,91.54,0,0,1-41.42-10.48c-2.18-1.13-4.31-2.36-6.37-3.68V190.31Z" fill="#093f68"/><path d="M200,242.65h-1.19A92.59,92.59,0,0,1,156.94,232c-2.19-1.14-4.36-2.39-6.44-3.72a1,1,0,0,1-.46-.84V190.31a1,1,0,0,1,1-1H249a1,1,0,0,1,1,1v37.17a1,1,0,0,1-.46.84c-2.07,1.33-4.24,2.58-6.45,3.73a90.12,90.12,0,0,1-18.49,7.29,87.34,87.34,0,0,1-11.92,2.44A91.28,91.28,0,0,1,200,242.65Zm-48-15.72c1.88,1.19,3.84,2.31,5.83,3.34a90.45,90.45,0,0,0,41,10.37H200a90.61,90.61,0,0,0,12.37-.85A86.57,86.57,0,0,0,224,237.42a89.12,89.12,0,0,0,18.09-7.14c2-1,4-2.16,5.84-3.35V191.31H152Z" fill="#093f68"/><path d="M256.14,189.3,249,211.49l-6.37,19.67a89.29,89.29,0,0,1-18.29,7.22,86.72,86.72,0,0,1-11.79,2.41,90.64,90.64,0,0,1-12.51.86h-1.17a91.54,91.54,0,0,1-41.42-10.48L151,211.49l-7.18-22.19,17-8.8,8.9-4.62.53-.27.47-.25,2.94-1.52,1.36-.71,3.36-1.74,8-4.13,2.47-1.28,1.62-.84a19.45,19.45,0,0,1,3-1.27,20.66,20.66,0,0,1,12.66-.15,21.42,21.42,0,0,1,3.45,1.42l1,.5.14.07,3.28,1.7,11,5.73,1.37.7.71.37,2.22,1.16,1,.52,5.05,2.62,7.38,3.83Z" fill="#68e1fd"/><path d="M200,242.65h-1.19A92.59,92.59,0,0,1,156.94,232a1,1,0,0,1-.48-.57l-13.55-41.86a1,1,0,0,1,.49-1.2L190,164.25a20.23,20.23,0,0,1,3.18-1.33,21.53,21.53,0,0,1,13.26-.16,23.52,23.52,0,0,1,3.62,1.49l1,.5.09.05,45.52,23.61a1,1,0,0,1,.49,1.2l-13.55,41.86a1,1,0,0,1-.48.57,90.5,90.5,0,0,1-18.5,7.31,88.87,88.87,0,0,1-11.92,2.43A91.28,91.28,0,0,1,200,242.65Zm-41.76-12.19a90.41,90.41,0,0,0,40.6,10.18H200a90.61,90.61,0,0,0,12.37-.85A86.57,86.57,0,0,0,224,237.42a88.24,88.24,0,0,0,17.73-7l13.17-40.66-44.72-23.2-.09,0-1-.52a21.08,21.08,0,0,0-3.29-1.36,19.5,19.5,0,0,0-12,.15,18.06,18.06,0,0,0-2.89,1.21L145.07,189.8Z" fill="#093f68"/><path d="M188.13,241.88a1,1,0,0,1-.91-.59L165.82,194l0-.08-5.88-13a1,1,0,1,1,1.82-.82l5.91,13.06,0,.08L189,240.47a1,1,0,0,1-.5,1.32A1,1,0,0,1,188.13,241.88Z" fill="#093f68"/><path d="M217.51,226.23a1.06,1.06,0,0,1-.51-.14,1,1,0,0,1-.35-1.37l25.21-42.89a1,1,0,0,1,1.73,1l-25.22,42.9A1,1,0,0,1,217.51,226.23Z" fill="#093f68"/><path d="M213.16,217.81a1,1,0,0,1-.5-.14,1,1,0,0,1-.36-1.36L234.48,178a1,1,0,1,1,1.73,1L214,217.31A1,1,0,0,1,213.16,217.81Z" fill="#093f68"/><path d="M198.83,242.64a1,1,0,0,1-.92-.6L169,175.13v0l0,0a1,1,0,1,1,1.8-.9l.05.1a1.21,1.21,0,0,1,.05.14l.34.8,28.58,66a1,1,0,0,1-.52,1.32A1.14,1.14,0,0,1,198.83,242.64Z" fill="#093f68"/><path d="M208.64,207.42a1,1,0,0,1-.87-1.5l18.42-32.21a1,1,0,0,1,1.36-.37,1,1,0,0,1,.38,1.37l-18.42,32.21A1,1,0,0,1,208.64,207.42Z" fill="#093f68"/><path d="M224.3,239.38a1,1,0,0,1-.89-.54l-11.14-21.57,0-.09-12.91-25a1,1,0,1,1,1.78-.92l13,25.09,0,.09,11.1,21.49a1,1,0,0,1-.43,1.35A1.07,1.07,0,0,1,224.3,239.38Z" fill="#093f68"/><path d="M214,167.41l-13.74,24.3-13.87-24.45,2.47-1.28a24.33,24.33,0,0,1,22.38,0Z" fill="#f56132"/><path d="M200.21,192.71a1,1,0,0,1-.87-.51l-13.87-24.45a1,1,0,0,1-.09-.77,1,1,0,0,1,.5-.61l2.47-1.28a25.32,25.32,0,0,1,23.3,0l2.76,1.43a1,1,0,0,1,.5.6,1.06,1.06,0,0,1-.09.78l-13.74,24.3a1,1,0,0,1-.87.51Zm-12.49-25,12.49,22,12.36-21.86-1.84-1a23.36,23.36,0,0,0-21.46,0Z" fill="#093f68"/><path d="M193.46,167.45v-7.28h12.66v7.28s-1.45,3.38-6.33,3.38S193.46,167.45,193.46,167.45Z" fill="#ffc9b0"/><path d="M199.79,171.83c-5.48,0-7.18-3.82-7.25-4a.92.92,0,0,1-.08-.4v-7.28a1,1,0,0,1,1-1h12.66a1,1,0,0,1,1,1v7.28a1.1,1.1,0,0,1-.08.4C207,168,205.26,171.83,199.79,171.83Zm-5.33-4.62c.34.6,1.75,2.62,5.33,2.62s5-2,5.33-2.62v-6H194.46Zm-1,.24h0Z" fill="#093f68"/><path d="M200.28,78.53a36.89,36.89,0,0,0-10.82,2.25c-5.64,2.06-12.2,5.24-16.54,9.44-1.08,1-8.16,6.82-8.37,7.78-1.8,8.14-1.86,17.07-1.86,25.39,0,21.4,16.61,38.75,37.1,38.75s37.09-17.35,37.09-38.75V93.27c-2.95,0-6.9-3-9.18-4.63a70.25,70.25,0,0,0-11-6.06,50.29,50.29,0,0,0-8.27-3.24A27.2,27.2,0,0,0,200.28,78.53Z" fill="#ffc9b0"/><path d="M199.79,163.14c-21,0-38.1-17.83-38.1-39.75,0-7.62,0-17.1,1.88-25.6.18-.81,1.55-2.16,6.66-6.54.92-.79,1.71-1.47,2-1.75,4.8-4.65,11.84-7.82,16.9-9.66a37.38,37.38,0,0,1,11.11-2.31h0a28.12,28.12,0,0,1,8.48.84,49.56,49.56,0,0,1,8.43,3.31,69.52,69.52,0,0,1,11.13,6.14l.73.51c2.21,1.57,5.54,3.93,7.88,3.94a1,1,0,0,1,1,1v30.12C237.88,145.31,220.79,163.14,199.79,163.14ZM165.51,98.31c-1.82,8.26-1.82,17.59-1.82,25.08,0,20.82,16.19,37.75,36.1,37.75s36.09-16.93,36.09-37.75V94.18c-2.76-.48-5.89-2.69-8-4.22l-.72-.5a67.59,67.59,0,0,0-10.83-6,48.69,48.69,0,0,0-8.1-3.19,26.37,26.37,0,0,0-7.88-.77,35.38,35.38,0,0,0-10.52,2.19c-4,1.45-11.4,4.58-16.18,9.22-.33.32-1.11,1-2.09,1.83C169.73,94.31,166,97.49,165.51,98.31Zm0,0Z" fill="#093f68"/><path d="M201.36,140.18a20.72,20.72,0,0,1-3.34-.28,1,1,0,0,1,.35-2,16.09,16.09,0,0,0,5.11.06c.61-1.37-.71-8.64-2.38-14.79a1,1,0,0,1,1.93-.53c.88,3.22,3.6,13.9,2.13,16.42a1.65,1.65,0,0,1-1,.8A11.64,11.64,0,0,1,201.36,140.18Z" fill="#093f68"/><path d="M192.75,114.63H176.37a1.59,1.59,0,0,1,0-3.18h16.38a1.59,1.59,0,0,1,0,3.17Z" fill="#093f68"/><path d="M209.85,114.63a1.59,1.59,0,1,1,0-3.17h16.38a1.59,1.59,0,0,1,0,3.18Z" fill="#093f68"/><path d="M211.28,149.71l-.24,0a45.24,45.24,0,0,0-20.69-.09,1,1,0,1,1-.54-1.92,46.21,46.21,0,0,1,21.7.07,1,1,0,0,1-.23,2Z" fill="#093f68"/><circle cx="185.53" cy="123.64" r="3.43" fill="#093f68"/><path d="M178.13,122.71a1,1,0,0,1-.26-2,33.43,33.43,0,0,1,14.06-.31,1,1,0,1,1-.4,2,32.19,32.19,0,0,0-13.14.29Z" fill="#093f68"/><circle cx="217" cy="123.64" r="3.43" fill="#093f68"/><path d="M224.4,122.71l-.26,0a32.13,32.13,0,0,0-13.13-.29,1,1,0,1,1-.41-2,33.49,33.49,0,0,1,14.07.31,1,1,0,0,1-.27,2Z" fill="#093f68"/><path d="M168.79,171.41s2.75,6-1.15,11.5-3.34,7.23-1.87,9.75,9.91,2.62,12.43,7,3.29,10-5.25,12.16c0,0,9.3,2.3,11.49-8.1s-7.07-13.58-9.89-15.44,2.12-8.33,2.12-8.33S174.26,170.86,168.79,171.41Z" fill="#725858"/><path d="M175.1,213a10.64,10.64,0,0,1-2.39-.25,1,1,0,0,1,0-1.94c3.12-.8,5.09-2.11,5.84-3.9.94-2.24-.13-4.93-1.2-6.79-1.25-2.16-4.37-3.2-7.13-4.11-2.4-.79-4.47-1.48-5.3-2.89-1.84-3.14-2-5.34,1.92-10.83a11.14,11.14,0,0,0,1-10.5,1,1,0,0,1,.81-1.41c6.25-.63,8.84,8.87,8.95,9.28a1,1,0,0,1-.17.86c-1.21,1.58-3,4.68-2.76,6.24a.86.86,0,0,0,.4.64c.36.24.87.52,1.46.85,3.8,2.09,10.89,6,8.85,15.63-.74,3.53-2.34,6.09-4.76,7.61A10.5,10.5,0,0,1,175.1,213Zm-4.88-40.52a12.85,12.85,0,0,1-1.76,11c-3.78,5.32-3,6.65-1.82,8.66.44.76,2.35,1.39,4.2,2,3.1,1,6.61,2.19,8.23,5,1.86,3.23,2.31,6.19,1.31,8.56a6.91,6.91,0,0,1-2.18,2.78,7.42,7.42,0,0,0,1.42-.69c1.93-1.22,3.22-3.34,3.85-6.31,1.72-8.2-4.28-11.5-7.86-13.47-.63-.35-1.18-.64-1.61-.93a2.89,2.89,0,0,1-1.26-2c-.43-2.52,1.93-6.11,2.83-7.37C175.09,178.25,173.33,173.4,170.22,172.52Z" fill="#093f68"/><path d="M161.79,138.17s1.54,9.25,0,14a36.89,36.89,0,0,1-3.19,7.35L166,164.4s6.08-8.44,7-16.31C173,148.09,173,143.3,161.79,138.17Z" fill="#725858"/><path d="M166,165.4a1,1,0,0,1-.55-.16l-7.39-4.93a1,1,0,0,1-.3-1.36,35.63,35.63,0,0,0,3.09-7.13c1.45-4.43,0-13.39,0-13.48a1,1,0,0,1,1.41-1.08C173.62,142.5,174,147.53,174,148.09a.45.45,0,0,1,0,.11c-.9,8-6.88,16.43-7.13,16.79A1,1,0,0,1,166,165.4Zm-6.06-6.24,5.79,3.86c1.48-2.24,5.51-8.84,6.22-15,0-.36-.71-4-8.9-8.17.38,3,.88,8.94-.3,12.55A41.47,41.47,0,0,1,159.93,159.16Zm13-11.07h0Z" fill="#093f68"/><path d="M158.6,159.48s4.66.54,6,2.73,9.2,7.67,10.85,11.83,1.2,5.91,1.2,5.91-12.48-10.07-15.22-10.24C161.45,169.71,158.16,162.76,158.6,159.48Z" fill="#725858"/><path d="M176.67,181a1,1,0,0,1-.63-.22c-6-4.85-13.14-9.93-14.65-10a1,1,0,0,1-.85-.57c-.34-.74-3.39-7.32-2.93-10.8a1,1,0,0,1,1.11-.86c.52.07,5.18.68,6.75,3.2a25.42,25.42,0,0,0,3.41,3.38c2.85,2.58,6.4,5.79,7.52,8.61,1.71,4.34,1.29,6.31,1.24,6.53a1,1,0,0,1-.65.7A.89.89,0,0,1,176.67,181Zm-14.52-12.1c2.94.9,9.9,6.18,13.41,8.94a19.44,19.44,0,0,0-1-3.38c-.95-2.39-4.31-5.42-7-7.86a23.71,23.71,0,0,1-3.76-3.81c-.69-1.1-2.77-1.76-4.2-2.08C159.78,163.14,161.31,167,162.15,168.85Z" fill="#093f68"/><path d="M231.22,171.41s-2.75,6,1.14,11.5,3.35,7.23,1.87,9.75-9.91,2.62-12.43,7-3.28,10,5.26,12.16c0,0-9.31,2.3-11.5-8.1s7.08-13.58,9.89-15.44-2.11-8.33-2.11-8.33S225.74,170.86,231.22,171.41Z" fill="#725858"/><path d="M224.91,213a10.53,10.53,0,0,1-5.57-1.51c-2.41-1.52-4-4.08-4.76-7.61-2-9.65,5-13.54,8.86-15.63.59-.33,1.1-.61,1.46-.85a.88.88,0,0,0,.39-.64c.27-1.57-1.54-4.66-2.75-6.24a1,1,0,0,1-.17-.86c.11-.41,2.72-9.91,8.95-9.28a1,1,0,0,1,.77.49,1,1,0,0,1,0,.92,11.15,11.15,0,0,0,1.05,10.5c3.9,5.49,3.76,7.69,1.91,10.83-.82,1.41-2.9,2.1-5.3,2.89-2.75.91-5.88,1.95-7.12,4.11-1.07,1.86-2.15,4.55-1.2,6.79.75,1.79,2.71,3.1,5.84,3.9a1,1,0,0,1,0,1.94A10.64,10.64,0,0,1,224.91,213Zm-.47-33.28c.9,1.26,3.25,4.85,2.83,7.37a2.9,2.9,0,0,1-1.27,2c-.43.29-1,.58-1.6.93-3.59,2-9.59,5.27-7.86,13.47.63,3,1.93,5.11,3.87,6.32a7.89,7.89,0,0,0,1.4.69,7,7,0,0,1-2.19-2.79c-1-2.37-.54-5.33,1.32-8.56,1.62-2.83,5.13-4,8.23-5,1.84-.61,3.75-1.24,4.2-2,1.18-2,2-3.34-1.82-8.66a12.9,12.9,0,0,1-1.77-11C226.68,173.4,224.92,178.25,224.44,179.76Z" fill="#093f68"/><path d="M238.22,138.17s-1.55,9.25,0,14a36.58,36.58,0,0,0,3.18,7.35L234,164.4s-6.07-8.44-6.95-16.31C227.06,148.09,227.06,143.3,238.22,138.17Z" fill="#725858"/><path d="M234,165.4a1,1,0,0,1-.81-.41c-.25-.36-6.24-8.75-7.14-16.79v-.11c0-.56.33-5.59,11.74-10.83a1,1,0,0,1,1.4,1.08c0,.09-1.48,9.06,0,13.48a36.77,36.77,0,0,0,3.08,7.13,1,1,0,0,1-.29,1.36l-7.39,4.93A1,1,0,0,1,234,165.4Zm-5.95-17.33c.72,6.12,4.75,12.71,6.22,15l5.79-3.86a42.67,42.67,0,0,1-2.8-6.72c-1.19-3.61-.68-9.54-.31-12.55C228.85,144,228.12,147.63,228.06,148.07Z" fill="#093f68"/><path d="M241.4,159.48s-4.65.54-6,2.73-9.2,7.67-10.84,11.83-1.2,5.91-1.2,5.91,12.48-10.07,15.22-10.24C238.56,169.71,241.84,162.76,241.4,159.48Z" fill="#725858"/><path d="M223.34,181a.86.86,0,0,1-.32,0,1,1,0,0,1-.65-.7c-.06-.22-.47-2.19,1.24-6.53,1.11-2.82,4.67-6,7.52-8.61a25.19,25.19,0,0,0,3.4-3.38c1.58-2.52,6.23-3.13,6.76-3.2a1,1,0,0,1,1.1.86c.47,3.48-2.58,10.06-2.93,10.8a1,1,0,0,1-.84.57c-1.52.09-8.64,5.17-14.66,10A1,1,0,0,1,223.34,181Zm17.08-20.29c-1.43.32-3.5,1-4.19,2.08a24.62,24.62,0,0,1-3.76,3.81c-2.7,2.44-6.06,5.47-7,7.86a18.59,18.59,0,0,0-1,3.38c3.51-2.76,10.46-8,13.41-8.94C238.7,167,240.22,163.14,240.42,160.66Z" fill="#093f68"/><path d="M173,149.2s2.19-2.4,0-12-5.16-23.24.48-33.2,9.81-11.24,19.67-11.8,16.42.56,21.9,0c0,0,10.29,7.24,12.92,14s4.58,22.38,2.94,28.1-5.57,11.8-2.29,20.84c0,0,8.11-13.28,12.49-14.94,0,0,2.41-15.68,0-22.5a15.88,15.88,0,0,0,3.06-9.77c-.22-5.72-3.28-9.41-5-10.51,0,0-1.1-9.41-3.29-10.7l-2.19-1.29s2.41-4.61.66-6.27S228.36,78,228.36,78a14.8,14.8,0,0,0-7.23-4.79,38.77,38.77,0,0,0-10.08-.74s-17.3-5.9-28.25-1.48-14,7.38-14,7.38-4.82.37-4.6,3l.22,2.58s-7,7.94-5.26,14.48a4.11,4.11,0,0,0-3.29,4c0,3.32.44,11.22,2.85,13.45,0,0-3.72,19.42-1.09,22.44S172.29,143.85,173,149.2Z" fill="#725858"/><path d="M228.57,156.1h-.1a1,1,0,0,1-.84-.65c-2.72-7.5-.71-13,1.06-17.89.46-1.24.88-2.41,1.21-3.57,1.57-5.48-.4-21-2.91-27.46-2.25-5.73-10.6-12-12.28-13.28a67.37,67.37,0,0,1-8.53,0,130.14,130.14,0,0,0-13,0c-9.52.53-13.34,1.59-18.85,11.3S171.86,128,173.92,137c2.24,9.81,0,12.59-.23,12.88a1,1,0,0,1-1.74-.55c-.34-2.8-5.11-5-8.94-6.8-2.7-1.25-5-2.33-6.15-3.62-2.68-3.09,0-18.56.78-22.79-2.64-3.22-2.78-12-2.78-13.76A4.91,4.91,0,0,1,158,97.72c-1-6,4.1-12.59,5.38-14.14l-.18-2.16a2.81,2.81,0,0,1,.68-2.09c1.17-1.39,3.58-1.8,4.5-1.91,1-.81,4.69-3.56,14.06-7.34,10.67-4.32,26.74.72,28.76,1.39a38.61,38.61,0,0,1,10.18.78A15.54,15.54,0,0,1,228.78,77c1.32-.1,4.49-.16,6.18,1.43s.67,5-.05,6.6l1.4.83c2.29,1.35,3.37,8.26,3.72,11a14.65,14.65,0,0,1,5.09,11,16.89,16.89,0,0,1-3,10c2.19,7.19,0,21.84-.12,22.47a1,1,0,0,1-.64.78c-3.33,1.27-9.78,10.92-12,14.53A1,1,0,0,1,228.57,156.1ZM215,91.21a1,1,0,0,1,.57.18c.43.31,10.57,7.5,13.28,14.4s4.66,22.84,3,28.74c-.35,1.22-.79,2.43-1.26,3.7-1.56,4.29-3.17,8.7-1.69,14.5,2.36-3.67,7.58-11.31,11.27-13.25.38-2.77,2-15.67,0-21.49a1,1,0,0,1,.17-1,14.94,14.94,0,0,0,2.84-9.11c-.22-5.73-3.37-8.94-4.57-9.7a1,1,0,0,1-.46-.73c-.5-4.3-1.74-9.33-2.8-9.95l-2.19-1.29a1,1,0,0,1-.38-1.32c.83-1.6,1.68-4.31.86-5.09-1.14-1.08-4.13-1-5.09-.84a1,1,0,0,1-.93-.38,13.85,13.85,0,0,0-6.68-4.43,37.94,37.94,0,0,0-9.76-.71,1,1,0,0,1-.39,0c-.17-.06-17.08-5.73-27.55-1.5s-13.67,7.15-13.7,7.17a1,1,0,0,1-.62.28c-1,.08-2.83.49-3.47,1.24a.84.84,0,0,0-.21.63l.22,2.58a1,1,0,0,1-.24.74c-.07.08-6.64,7.62-5,13.56a1,1,0,0,1-.78,1.24,3,3,0,0,0-2.48,3c0,5,.8,11.11,2.53,12.71a1,1,0,0,1,.3.93c-1.5,7.86-2.91,19.77-1.32,21.6.84,1,3.1,2,5.48,3.12,3.39,1.57,7.11,3.3,9,5.72a26.32,26.32,0,0,0-.84-9c-2.13-9.33-5.35-23.43.59-33.91S183.13,91.77,193,91.21c5.22-.29,9.47-.12,13.22,0a65.14,65.14,0,0,0,8.64,0Z" fill="#093f68"/><path d="M198.11,221.15a9.7,9.7,0,1,1,9.69-9.69A9.71,9.71,0,0,1,198.11,221.15Zm0-17.39a7.7,7.7,0,1,0,7.69,7.7A7.71,7.71,0,0,0,198.11,203.76Z" fill="#093f68"/><path d="M212.51,241.79a1,1,0,0,1-.9-.56l-8.8-17.87,0-.08L201,219.71a1,1,0,1,1,1.8-.88l1.79,3.64,0,.08,8.77,17.8a1,1,0,0,1-.46,1.34A1,1,0,0,1,212.51,241.79Z" fill="#093f68"/><path d="M194.25,204.67a1,1,0,0,1-.9-.56l-15.86-32.28a1,1,0,1,1,1.79-.88l15.87,32.27a1,1,0,0,1-.46,1.34A1,1,0,0,1,194.25,204.67Z" fill="#093f68"/><path d="M206.2,216.34a8.36,8.36,0,0,0-4.67,0c-2,.81-3.42,3.81-3.42,3.81a6.6,6.6,0,0,0,5.6,2.77A17.39,17.39,0,0,0,206.2,216.34Z" fill="#093f68"/><path d="M203.43,223.93a7.56,7.56,0,0,1-6.16-3.24,1,1,0,0,1-.06-1c.16-.35,1.68-3.38,3.94-4.3a9.24,9.24,0,0,1,5.34,0,1,1,0,0,1,.7,1.09,18.19,18.19,0,0,1-2.65,7,1,1,0,0,1-.79.44Zm-4.13-3.88a5.56,5.56,0,0,0,3.86,1.87,17.13,17.13,0,0,0,1.89-4.81,6.24,6.24,0,0,0-3.14.16A6.85,6.85,0,0,0,199.3,220.05Z" fill="#093f68"/><circle cx="204.68" cy="224.54" r="3.25" fill="#093f68"/><path d="M204.68,228.79a4.25,4.25,0,1,1,4.25-4.25A4.26,4.26,0,0,1,204.68,228.79Zm0-6.5a2.25,2.25,0,1,0,2.25,2.25A2.25,2.25,0,0,0,204.68,222.29Z" fill="#093f68"/><path d="M195.1,224.82a1,1,0,0,1-.48-.12,1,1,0,0,1-.4-1.36,15.44,15.44,0,0,1,3.25-4,1,1,0,1,1,1.28,1.54A13.44,13.44,0,0,0,196,224.3,1,1,0,0,1,195.1,224.82Z" fill="#093f68"/><path d="M198.11,225.54a.92.92,0,0,1-.36-.07,1,1,0,0,1-.58-1.29,5.83,5.83,0,0,1,2.36-3.13,1,1,0,0,1,1,1.75,4.21,4.21,0,0,0-1.45,2.1A1,1,0,0,1,198.11,225.54Z" fill="#093f68"/><path d="M211.07,217.81a1,1,0,0,1-.5-.14c-1-.57-3.1-.51-4.21-.34a1,1,0,1,1-.31-2c.36-.06,3.62-.54,5.53.59a1,1,0,0,1-.51,1.86Z" fill="#093f68"/><path d="M208.64,220.27h-.19a14,14,0,0,1-3.21-.82,1,1,0,0,1,.9-1.78,17.27,17.27,0,0,0,2.68.63,1,1,0,0,1-.18,2Z" fill="#093f68"/><path d="M191,206.42l1-7.24,6.07,3.58S195.28,202.26,191,206.42Z" fill="#093f68"/><path d="M191,207.42a1,1,0,0,1-.45-.11,1,1,0,0,1-.54-1l1-7.24a1,1,0,0,1,1.5-.73l6.07,3.59a1,1,0,0,1-.69,1.85h0s-2.46-.27-6.2,3.38A1,1,0,0,1,191,207.42Zm1.8-6.62-.44,3.14a12.86,12.86,0,0,1,2.92-1.67Z" fill="#093f68"/><path d="M204.68,199.2a1,1,0,0,1-.48-.12,1,1,0,0,1-.39-1.36l15-26.82a1,1,0,0,1,1.75,1l-15,26.81A1,1,0,0,1,204.68,199.2Z" fill="#093f68"/></g></svg>