<svg xmlns="http://www.w3.org/2000/svg" viewBox="0 0 400 300"><g id="_85_data_center_outline" data-name="#85_data_center_outline"><rect x="112.05" y="103.4" width="85.48" height="21.47" rx="3.95" fill="#68e1fd"/><path d="M193.58,125.86H116a5,5,0,0,1-5-4.94V107.35a5,5,0,0,1,5-4.95h77.58a5,5,0,0,1,4.95,4.95v13.57A5,5,0,0,1,193.58,125.86ZM116,104.4a3,3,0,0,0-3,2.95v13.57a3,3,0,0,0,3,2.94h77.58a3,3,0,0,0,2.95-2.94V107.35a3,3,0,0,0-2.95-2.95Z" fill="#093f68"/><circle cx="121.33" cy="114.13" r="3.27" fill="#ffbc0e"/><path d="M121.33,118.41a4.28,4.28,0,1,1,4.27-4.28A4.28,4.28,0,0,1,121.33,118.41Zm0-6.55a2.28,2.28,0,1,0,2.27,2.27A2.28,2.28,0,0,0,121.33,111.86Z" fill="#093f68"/><circle cx="165.67" cy="114.13" r="3.27" fill="#093f68"/><path d="M165.67,118.41a4.28,4.28,0,1,1,4.27-4.28A4.28,4.28,0,0,1,165.67,118.41Zm0-6.55a2.28,2.28,0,1,0,2.27,2.27A2.27,2.27,0,0,0,165.67,111.86Z" fill="#093f68"/><circle cx="176.64" cy="114.13" r="3.27" fill="#093f68"/><path d="M176.64,118.41a4.28,4.28,0,1,1,4.27-4.28A4.28,4.28,0,0,1,176.64,118.41Zm0-6.55a2.28,2.28,0,1,0,2.27,2.27A2.28,2.28,0,0,0,176.64,111.86Z" fill="#093f68"/><circle cx="187.61" cy="114.13" r="3.27" fill="#093f68"/><path d="M187.61,118.41a4.28,4.28,0,1,1,4.27-4.28A4.28,4.28,0,0,1,187.61,118.41Zm0-6.55a2.28,2.28,0,1,0,2.27,2.27A2.28,2.28,0,0,0,187.61,111.86Z" fill="#093f68"/><rect x="112.05" y="124.86" width="85.48" height="21.47" rx="3.95" fill="#68e1fd"/><path d="M193.58,147.33H116a5,5,0,0,1-5-5V128.81a5,5,0,0,1,5-5h77.58a5,5,0,0,1,4.95,5v13.57A5,5,0,0,1,193.58,147.33ZM116,125.86a3,3,0,0,0-3,3v13.57a3,3,0,0,0,3,3h77.58a3,3,0,0,0,2.95-3V128.81a3,3,0,0,0-2.95-3Z" fill="#093f68"/><circle cx="121.33" cy="135.6" r="3.27" fill="#ffbc0e"/><path d="M121.33,139.87a4.28,4.28,0,1,1,4.27-4.27A4.28,4.28,0,0,1,121.33,139.87Zm0-6.55a2.28,2.28,0,1,0,2.27,2.28A2.28,2.28,0,0,0,121.33,133.32Z" fill="#093f68"/><circle cx="165.67" cy="135.6" r="3.27" fill="#093f68"/><path d="M165.67,139.87a4.28,4.28,0,1,1,4.27-4.27A4.27,4.27,0,0,1,165.67,139.87Zm0-6.55a2.28,2.28,0,1,0,2.27,2.28A2.28,2.28,0,0,0,165.67,133.32Z" fill="#093f68"/><circle cx="176.64" cy="135.6" r="3.27" fill="#093f68"/><path d="M176.64,139.87a4.28,4.28,0,1,1,4.27-4.27A4.28,4.28,0,0,1,176.64,139.87Zm0-6.55a2.28,2.28,0,1,0,2.27,2.28A2.28,2.28,0,0,0,176.64,133.32Z" fill="#093f68"/><circle cx="187.61" cy="135.6" r="3.27" fill="#093f68"/><path d="M187.61,139.87a4.28,4.28,0,1,1,4.27-4.27A4.28,4.28,0,0,1,187.61,139.87Zm0-6.55a2.28,2.28,0,1,0,2.27,2.28A2.28,2.28,0,0,0,187.61,133.32Z" fill="#093f68"/><rect x="112.05" y="146.33" width="85.48" height="21.47" rx="3.95" fill="#68e1fd"/><path d="M193.58,168.79H116a5,5,0,0,1-5-4.94V150.28a5,5,0,0,1,5-4.95h77.58a5,5,0,0,1,4.95,4.95v13.57A5,5,0,0,1,193.58,168.79ZM116,147.33a3,3,0,0,0-3,2.95v13.57a3,3,0,0,0,3,2.94h77.58a3,3,0,0,0,2.95-2.94V150.28a3,3,0,0,0-2.95-2.95Z" fill="#093f68"/><circle cx="121.33" cy="157.06" r="3.27" fill="#ffbc0e"/><path d="M121.33,161.34a4.28,4.28,0,1,1,4.27-4.28A4.28,4.28,0,0,1,121.33,161.34Zm0-6.55a2.28,2.28,0,1,0,2.27,2.27A2.28,2.28,0,0,0,121.33,154.79Z" fill="#093f68"/><circle cx="165.67" cy="157.06" r="3.27" fill="#093f68"/><path d="M165.67,161.34a4.28,4.28,0,1,1,4.27-4.28A4.28,4.28,0,0,1,165.67,161.34Zm0-6.55a2.28,2.28,0,1,0,2.27,2.27A2.27,2.27,0,0,0,165.67,154.79Z" fill="#093f68"/><circle cx="176.64" cy="157.06" r="3.27" fill="#093f68"/><path d="M176.64,161.34a4.28,4.28,0,1,1,4.27-4.28A4.28,4.28,0,0,1,176.64,161.34Zm0-6.55a2.28,2.28,0,1,0,2.27,2.27A2.28,2.28,0,0,0,176.64,154.79Z" fill="#093f68"/><circle cx="187.61" cy="157.06" r="3.27" fill="#093f68"/><path d="M187.61,161.34a4.28,4.28,0,1,1,4.27-4.28A4.28,4.28,0,0,1,187.61,161.34Zm0-6.55a2.28,2.28,0,1,0,2.27,2.27A2.28,2.28,0,0,0,187.61,154.79Z" fill="#093f68"/><rect x="112.05" y="167.8" width="85.48" height="21.47" rx="3.95" fill="#68e1fd"/><path d="M193.58,190.26H116a5,5,0,0,1-5-4.95V171.74a5,5,0,0,1,5-5h77.58a5,5,0,0,1,4.95,5v13.57A5,5,0,0,1,193.58,190.26ZM116,168.79a3,3,0,0,0-3,3v13.57a3,3,0,0,0,3,2.95h77.58a3,3,0,0,0,2.95-2.95V171.74a3,3,0,0,0-2.95-3Z" fill="#093f68"/><circle cx="121.33" cy="178.53" r="3.27" fill="#ffbc0e"/><path d="M121.33,182.8a4.28,4.28,0,1,1,4.27-4.27A4.28,4.28,0,0,1,121.33,182.8Zm0-6.55a2.28,2.28,0,1,0,2.27,2.28A2.28,2.28,0,0,0,121.33,176.25Z" fill="#093f68"/><circle cx="165.67" cy="178.53" r="3.27" fill="#093f68"/><path d="M165.67,182.8a4.28,4.28,0,1,1,4.27-4.27A4.27,4.27,0,0,1,165.67,182.8Zm0-6.55a2.28,2.28,0,1,0,2.27,2.28A2.28,2.28,0,0,0,165.67,176.25Z" fill="#093f68"/><circle cx="176.64" cy="178.53" r="3.27" fill="#093f68"/><path d="M176.64,182.8a4.28,4.28,0,1,1,4.27-4.27A4.28,4.28,0,0,1,176.64,182.8Zm0-6.55a2.28,2.28,0,1,0,2.27,2.28A2.28,2.28,0,0,0,176.64,176.25Z" fill="#093f68"/><circle cx="187.61" cy="178.53" r="3.27" fill="#093f68"/><path d="M187.61,182.8a4.28,4.28,0,1,1,4.27-4.27A4.28,4.28,0,0,1,187.61,182.8Zm0-6.55a2.28,2.28,0,1,0,2.27,2.28A2.28,2.28,0,0,0,187.61,176.25Z" fill="#093f68"/><rect x="108.13" y="189.26" width="93.32" height="10.91" rx="4.06" fill="#093f68"/><path d="M197.39,201.18h-85.2a5.07,5.07,0,0,1-5.06-5.07v-2.79a5.07,5.07,0,0,1,5.06-5.06h85.2a5.07,5.07,0,0,1,5.06,5.06v2.79A5.07,5.07,0,0,1,197.39,201.18Zm-85.2-10.92a3.06,3.06,0,0,0-3.06,3.06v2.79a3.07,3.07,0,0,0,3.06,3.07h85.2a3.07,3.07,0,0,0,3.06-3.07v-2.79a3.06,3.06,0,0,0-3.06-3.06Z" fill="#093f68"/><rect x="202.47" y="103.4" width="85.48" height="21.47" rx="3.95" fill="#68e1fd"/><path d="M284,125.86H206.42a5,5,0,0,1-4.95-4.94V107.35a5,5,0,0,1,4.95-4.95H284a5,5,0,0,1,4.95,4.95v13.57A5,5,0,0,1,284,125.86ZM206.42,104.4a3,3,0,0,0-2.95,2.95v13.57a3,3,0,0,0,2.95,2.94H284a3,3,0,0,0,2.95-2.94V107.35A3,3,0,0,0,284,104.4Z" fill="#093f68"/><circle cx="211.75" cy="114.13" r="3.27" fill="#ffbc0e"/><path d="M211.75,118.41a4.28,4.28,0,1,1,4.27-4.28A4.28,4.28,0,0,1,211.75,118.41Zm0-6.55a2.28,2.28,0,1,0,2.27,2.27A2.28,2.28,0,0,0,211.75,111.86Z" fill="#093f68"/><circle cx="256.09" cy="114.13" r="3.27" fill="#fff"/><path d="M256.09,118.41a4.28,4.28,0,1,1,4.27-4.28A4.28,4.28,0,0,1,256.09,118.41Zm0-6.55a2.28,2.28,0,1,0,2.27,2.27A2.28,2.28,0,0,0,256.09,111.86Z" fill="#093f68"/><circle cx="267.06" cy="114.13" r="3.27" fill="#fff"/><path d="M267.06,118.41a4.28,4.28,0,1,1,4.27-4.28A4.28,4.28,0,0,1,267.06,118.41Zm0-6.55a2.28,2.28,0,1,0,2.27,2.27A2.28,2.28,0,0,0,267.06,111.86Z" fill="#093f68"/><circle cx="278.02" cy="114.13" r="3.27" fill="#fff"/><path d="M278,118.41a4.28,4.28,0,1,1,4.27-4.28A4.28,4.28,0,0,1,278,118.41Zm0-6.55a2.28,2.28,0,1,0,2.27,2.27A2.28,2.28,0,0,0,278,111.86Z" fill="#093f68"/><rect x="202.47" y="124.86" width="85.48" height="21.47" rx="3.95" fill="#68e1fd"/><path d="M284,147.33H206.42a5,5,0,0,1-4.95-5V128.81a5,5,0,0,1,4.95-5H284a5,5,0,0,1,4.95,5v13.57A5,5,0,0,1,284,147.33Zm-77.58-21.47a3,3,0,0,0-2.95,3v13.57a3,3,0,0,0,2.95,3H284a3,3,0,0,0,2.95-3V128.81a3,3,0,0,0-2.95-3Z" fill="#093f68"/><circle cx="211.75" cy="135.6" r="3.27" fill="#ffbc0e"/><path d="M211.75,139.87A4.28,4.28,0,1,1,216,135.6,4.28,4.28,0,0,1,211.75,139.87Zm0-6.55A2.28,2.28,0,1,0,214,135.6,2.28,2.28,0,0,0,211.75,133.32Z" fill="#093f68"/><circle cx="256.09" cy="135.6" r="3.27" fill="#fff"/><path d="M256.09,139.87a4.28,4.28,0,1,1,4.27-4.27A4.28,4.28,0,0,1,256.09,139.87Zm0-6.55a2.28,2.28,0,1,0,2.27,2.28A2.28,2.28,0,0,0,256.09,133.32Z" fill="#093f68"/><circle cx="267.06" cy="135.6" r="3.27" fill="#fff"/><path d="M267.06,139.87a4.28,4.28,0,1,1,4.27-4.27A4.28,4.28,0,0,1,267.06,139.87Zm0-6.55a2.28,2.28,0,1,0,2.27,2.28A2.28,2.28,0,0,0,267.06,133.32Z" fill="#093f68"/><circle cx="278.02" cy="135.6" r="3.27" fill="#fff"/><path d="M278,139.87a4.28,4.28,0,1,1,4.27-4.27A4.28,4.28,0,0,1,278,139.87Zm0-6.55a2.28,2.28,0,1,0,2.27,2.28A2.28,2.28,0,0,0,278,133.32Z" fill="#093f68"/><rect x="202.47" y="146.33" width="85.48" height="21.47" rx="3.95" fill="#68e1fd"/><path d="M284,168.79H206.42a5,5,0,0,1-4.95-4.94V150.28a5,5,0,0,1,4.95-4.95H284a5,5,0,0,1,4.95,4.95v13.57A5,5,0,0,1,284,168.79Zm-77.58-21.46a3,3,0,0,0-2.95,2.95v13.57a3,3,0,0,0,2.95,2.94H284a3,3,0,0,0,2.95-2.94V150.28a3,3,0,0,0-2.95-2.95Z" fill="#093f68"/><circle cx="211.75" cy="157.06" r="3.27" fill="#ffbc0e"/><path d="M211.75,161.34a4.28,4.28,0,1,1,4.27-4.28A4.28,4.28,0,0,1,211.75,161.34Zm0-6.55a2.28,2.28,0,1,0,2.27,2.27A2.28,2.28,0,0,0,211.75,154.79Z" fill="#093f68"/><circle cx="256.09" cy="157.06" r="3.27" fill="#fff"/><path d="M256.09,161.34a4.28,4.28,0,1,1,4.27-4.28A4.28,4.28,0,0,1,256.09,161.34Zm0-6.55a2.28,2.28,0,1,0,2.27,2.27A2.28,2.28,0,0,0,256.09,154.79Z" fill="#093f68"/><circle cx="267.06" cy="157.06" r="3.27" fill="#fff"/><path d="M267.06,161.34a4.28,4.28,0,1,1,4.27-4.28A4.28,4.28,0,0,1,267.06,161.34Zm0-6.55a2.28,2.28,0,1,0,2.27,2.27A2.28,2.28,0,0,0,267.06,154.79Z" fill="#093f68"/><circle cx="278.02" cy="157.06" r="3.27" fill="#fff"/><path d="M278,161.34a4.28,4.28,0,1,1,4.27-4.28A4.28,4.28,0,0,1,278,161.34Zm0-6.55a2.28,2.28,0,1,0,2.27,2.27A2.28,2.28,0,0,0,278,154.79Z" fill="#093f68"/><rect x="202.47" y="167.8" width="85.48" height="21.47" rx="3.95" fill="#68e1fd"/><path d="M284,190.26H206.42a5,5,0,0,1-4.95-4.95V171.74a5,5,0,0,1,4.95-5H284a5,5,0,0,1,4.95,5v13.57A5,5,0,0,1,284,190.26Zm-77.58-21.47a3,3,0,0,0-2.95,3v13.57a3,3,0,0,0,2.95,2.95H284a3,3,0,0,0,2.95-2.95V171.74a3,3,0,0,0-2.95-3Z" fill="#093f68"/><circle cx="211.75" cy="178.53" r="3.27" fill="#ffbc0e"/><path d="M211.75,182.8a4.28,4.28,0,1,1,4.27-4.27A4.28,4.28,0,0,1,211.75,182.8Zm0-6.55a2.28,2.28,0,1,0,2.27,2.28A2.28,2.28,0,0,0,211.75,176.25Z" fill="#093f68"/><circle cx="256.09" cy="178.53" r="3.27" fill="#fff"/><path d="M256.09,182.8a4.28,4.28,0,1,1,4.27-4.27A4.28,4.28,0,0,1,256.09,182.8Zm0-6.55a2.28,2.28,0,1,0,2.27,2.28A2.28,2.28,0,0,0,256.09,176.25Z" fill="#093f68"/><circle cx="267.06" cy="178.53" r="3.27" fill="#fff"/><path d="M267.06,182.8a4.28,4.28,0,1,1,4.27-4.27A4.28,4.28,0,0,1,267.06,182.8Zm0-6.55a2.28,2.28,0,1,0,2.27,2.28A2.28,2.28,0,0,0,267.06,176.25Z" fill="#093f68"/><circle cx="278.02" cy="178.53" r="3.27" fill="#fff"/><path d="M278,182.8a4.28,4.28,0,1,1,4.27-4.27A4.28,4.28,0,0,1,278,182.8Zm0-6.55a2.28,2.28,0,1,0,2.27,2.28A2.28,2.28,0,0,0,278,176.25Z" fill="#093f68"/><rect x="198.55" y="189.26" width="93.32" height="10.91" rx="4.06" fill="#093f68"/><path d="M287.81,201.18h-85.2a5.07,5.07,0,0,1-5.06-5.07v-2.79a5.07,5.07,0,0,1,5.06-5.06h85.2a5.07,5.07,0,0,1,5.06,5.06v2.79A5.07,5.07,0,0,1,287.81,201.18Zm-85.2-10.92a3.06,3.06,0,0,0-3.06,3.06v2.79a3.07,3.07,0,0,0,3.06,3.07h85.2a3.07,3.07,0,0,0,3.06-3.07v-2.79a3.06,3.06,0,0,0-3.06-3.06Z" fill="#093f68"/><rect x="153.34" y="85.45" width="93.32" height="23.43" rx="4.31" fill="#68e1fd"/><path d="M242.35,109.89h-84.7a5.31,5.31,0,0,1-5.31-5.31V89.76a5.32,5.32,0,0,1,5.31-5.31h84.7a5.32,5.32,0,0,1,5.31,5.31v14.82A5.31,5.31,0,0,1,242.35,109.89Zm-84.7-23.44a3.31,3.31,0,0,0-3.31,3.31v14.82a3.31,3.31,0,0,0,3.31,3.31h84.7a3.31,3.31,0,0,0,3.31-3.31V89.76a3.31,3.31,0,0,0-3.31-3.31Z" fill="#093f68"/><circle cx="163.47" cy="97.17" r="3.57" fill="#ffbc0e"/><path d="M163.47,101.75A4.58,4.58,0,1,1,168,97.17,4.59,4.59,0,0,1,163.47,101.75Zm0-7.15A2.58,2.58,0,1,0,166,97.17,2.58,2.58,0,0,0,163.47,94.6Z" fill="#093f68"/><circle cx="211.88" cy="97.17" r="3.57" fill="#fff"/><path d="M211.88,101.75a4.58,4.58,0,1,1,4.57-4.58A4.59,4.59,0,0,1,211.88,101.75Zm0-7.15a2.58,2.58,0,1,0,2.57,2.57A2.58,2.58,0,0,0,211.88,94.6Z" fill="#093f68"/><circle cx="223.85" cy="97.17" r="3.57" fill="#fff"/><path d="M223.85,101.75a4.58,4.58,0,1,1,4.58-4.58A4.58,4.58,0,0,1,223.85,101.75Zm0-7.15a2.58,2.58,0,1,0,2.58,2.57A2.57,2.57,0,0,0,223.85,94.6Z" fill="#093f68"/><circle cx="235.83" cy="97.17" r="3.57" fill="#fff"/><path d="M235.83,101.75a4.58,4.58,0,1,1,4.57-4.58A4.59,4.59,0,0,1,235.83,101.75Zm0-7.15a2.58,2.58,0,1,0,2.57,2.57A2.58,2.58,0,0,0,235.83,94.6Z" fill="#093f68"/><rect x="153.34" y="108.89" width="93.32" height="23.43" rx="4.31" fill="#68e1fd"/><path d="M242.35,133.32h-84.7a5.31,5.31,0,0,1-5.31-5.31V113.2a5.31,5.31,0,0,1,5.31-5.31h84.7a5.31,5.31,0,0,1,5.31,5.31V128A5.31,5.31,0,0,1,242.35,133.32Zm-84.7-23.43a3.31,3.31,0,0,0-3.31,3.31V128a3.31,3.31,0,0,0,3.31,3.31h84.7a3.31,3.31,0,0,0,3.31-3.31V113.2a3.31,3.31,0,0,0-3.31-3.31Z" fill="#093f68"/><circle cx="163.47" cy="120.61" r="3.57" fill="#ffbc0e"/><path d="M163.47,125.18a4.58,4.58,0,1,1,4.57-4.57A4.58,4.58,0,0,1,163.47,125.18Zm0-7.15a2.58,2.58,0,1,0,2.57,2.58A2.59,2.59,0,0,0,163.47,118Z" fill="#093f68"/><circle cx="211.88" cy="120.61" r="3.57" fill="#fff"/><path d="M211.88,125.18a4.58,4.58,0,1,1,4.57-4.57A4.58,4.58,0,0,1,211.88,125.18Zm0-7.15a2.58,2.58,0,1,0,2.57,2.58A2.59,2.59,0,0,0,211.88,118Z" fill="#093f68"/><circle cx="223.85" cy="120.61" r="3.57" fill="#fff"/><path d="M223.85,125.18a4.58,4.58,0,1,1,4.58-4.57A4.58,4.58,0,0,1,223.85,125.18Zm0-7.15a2.58,2.58,0,1,0,2.58,2.58A2.58,2.58,0,0,0,223.85,118Z" fill="#093f68"/><circle cx="235.83" cy="120.61" r="3.57" fill="#fff"/><path d="M235.83,125.18a4.58,4.58,0,1,1,4.57-4.57A4.58,4.58,0,0,1,235.83,125.18Zm0-7.15a2.58,2.58,0,1,0,2.57,2.58A2.59,2.59,0,0,0,235.83,118Z" fill="#093f68"/><rect x="153.34" y="132.32" width="93.32" height="23.43" rx="4.31" fill="#68e1fd"/><path d="M242.35,156.76h-84.7a5.31,5.31,0,0,1-5.31-5.31V136.63a5.32,5.32,0,0,1,5.31-5.31h84.7a5.32,5.32,0,0,1,5.31,5.31v14.82A5.31,5.31,0,0,1,242.35,156.76Zm-84.7-23.44a3.31,3.31,0,0,0-3.31,3.31v14.82a3.31,3.31,0,0,0,3.31,3.31h84.7a3.31,3.31,0,0,0,3.31-3.31V136.63a3.31,3.31,0,0,0-3.31-3.31Z" fill="#093f68"/><circle cx="163.47" cy="144.04" r="3.57" fill="#ffbc0e"/><path d="M163.47,148.62A4.58,4.58,0,1,1,168,144,4.59,4.59,0,0,1,163.47,148.62Zm0-7.15A2.58,2.58,0,1,0,166,144,2.58,2.58,0,0,0,163.47,141.47Z" fill="#093f68"/><circle cx="211.88" cy="144.04" r="3.57" fill="#fff"/><path d="M211.88,148.62a4.58,4.58,0,1,1,4.57-4.58A4.59,4.59,0,0,1,211.88,148.62Zm0-7.15a2.58,2.58,0,1,0,2.57,2.57A2.58,2.58,0,0,0,211.88,141.47Z" fill="#093f68"/><circle cx="223.85" cy="144.04" r="3.57" fill="#fff"/><path d="M223.85,148.62a4.58,4.58,0,1,1,4.58-4.58A4.58,4.58,0,0,1,223.85,148.62Zm0-7.15a2.58,2.58,0,1,0,2.58,2.57A2.57,2.57,0,0,0,223.85,141.47Z" fill="#093f68"/><circle cx="235.83" cy="144.04" r="3.57" fill="#fff"/><path d="M235.83,148.62A4.58,4.58,0,1,1,240.4,144,4.59,4.59,0,0,1,235.83,148.62Zm0-7.15A2.58,2.58,0,1,0,238.4,144,2.58,2.58,0,0,0,235.83,141.47Z" fill="#093f68"/><rect x="153.34" y="155.76" width="93.32" height="23.43" rx="4.31" fill="#68e1fd"/><path d="M242.35,180.19h-84.7a5.31,5.31,0,0,1-5.31-5.31V160.07a5.31,5.31,0,0,1,5.31-5.31h84.7a5.31,5.31,0,0,1,5.31,5.31v14.81A5.31,5.31,0,0,1,242.35,180.19Zm-84.7-23.43a3.31,3.31,0,0,0-3.31,3.31v14.81a3.31,3.31,0,0,0,3.31,3.31h84.7a3.31,3.31,0,0,0,3.31-3.31V160.07a3.31,3.31,0,0,0-3.31-3.31Z" fill="#093f68"/><circle cx="163.47" cy="167.48" r="3.57" fill="#ffbc0e"/><path d="M163.47,172.05a4.58,4.58,0,1,1,4.57-4.57A4.58,4.58,0,0,1,163.47,172.05Zm0-7.15a2.58,2.58,0,1,0,2.57,2.58A2.59,2.59,0,0,0,163.47,164.9Z" fill="#093f68"/><circle cx="211.88" cy="167.48" r="3.57" fill="#fff"/><path d="M211.88,172.05a4.58,4.58,0,1,1,4.57-4.57A4.58,4.58,0,0,1,211.88,172.05Zm0-7.15a2.58,2.58,0,1,0,2.57,2.58A2.59,2.59,0,0,0,211.88,164.9Z" fill="#093f68"/><circle cx="223.85" cy="167.48" r="3.57" fill="#fff"/><path d="M223.85,172.05a4.58,4.58,0,1,1,4.58-4.57A4.58,4.58,0,0,1,223.85,172.05Zm0-7.15a2.58,2.58,0,1,0,2.58,2.58A2.58,2.58,0,0,0,223.85,164.9Z" fill="#093f68"/><circle cx="235.83" cy="167.48" r="3.57" fill="#fff"/><path d="M235.83,172.05a4.58,4.58,0,1,1,4.57-4.57A4.58,4.58,0,0,1,235.83,172.05Zm0-7.15a2.58,2.58,0,1,0,2.57,2.58A2.59,2.59,0,0,0,235.83,164.9Z" fill="#093f68"/><rect x="153.34" y="179.19" width="93.32" height="23.43" rx="4.31" fill="#68e1fd"/><path d="M242.35,203.63h-84.7a5.31,5.31,0,0,1-5.31-5.31V183.5a5.32,5.32,0,0,1,5.31-5.31h84.7a5.32,5.32,0,0,1,5.31,5.31v14.82A5.31,5.31,0,0,1,242.35,203.63Zm-84.7-23.44a3.31,3.31,0,0,0-3.31,3.31v14.82a3.31,3.31,0,0,0,3.31,3.31h84.7a3.31,3.31,0,0,0,3.31-3.31V183.5a3.31,3.31,0,0,0-3.31-3.31Z" fill="#093f68"/><circle cx="163.47" cy="190.91" r="3.57" fill="#ffbc0e"/><path d="M163.47,195.49a4.58,4.58,0,1,1,4.57-4.58A4.59,4.59,0,0,1,163.47,195.49Zm0-7.15a2.58,2.58,0,1,0,2.57,2.57A2.58,2.58,0,0,0,163.47,188.34Z" fill="#093f68"/><circle cx="211.88" cy="190.91" r="3.57" fill="#fff"/><path d="M211.88,195.49a4.58,4.58,0,1,1,4.57-4.58A4.59,4.59,0,0,1,211.88,195.49Zm0-7.15a2.58,2.58,0,1,0,2.57,2.57A2.58,2.58,0,0,0,211.88,188.34Z" fill="#093f68"/><circle cx="223.85" cy="190.91" r="3.57" fill="#fff"/><path d="M223.85,195.49a4.58,4.58,0,1,1,4.58-4.58A4.58,4.58,0,0,1,223.85,195.49Zm0-7.15a2.58,2.58,0,1,0,2.58,2.57A2.57,2.57,0,0,0,223.85,188.34Z" fill="#093f68"/><circle cx="235.83" cy="190.91" r="3.57" fill="#fff"/><path d="M235.83,195.49a4.58,4.58,0,1,1,4.57-4.58A4.59,4.59,0,0,1,235.83,195.49Zm0-7.15a2.58,2.58,0,1,0,2.57,2.57A2.58,2.58,0,0,0,235.83,188.34Z" fill="#093f68"/><rect x="149.06" y="202.63" width="101.88" height="11.92" rx="4.43" fill="#093f68"/><path d="M246.51,215.55h-93a5.44,5.44,0,0,1-5.43-5.44v-3.05a5.44,5.44,0,0,1,5.43-5.43h93a5.44,5.44,0,0,1,5.43,5.43v3.05A5.44,5.44,0,0,1,246.51,215.55Zm-93-11.92a3.44,3.44,0,0,0-3.43,3.43v3.05a3.44,3.44,0,0,0,3.43,3.44h93a3.44,3.44,0,0,0,3.43-3.44v-3.05a3.44,3.44,0,0,0-3.43-3.43Z" fill="#093f68"/></g></svg>