<svg xmlns="http://www.w3.org/2000/svg" viewBox="0 0 400 300"><g id="_483_data_organization_outline" data-name="#483_data_organization_outline"><polygon points="195.5 79.11 185.76 65.02 109.2 65.02 109.2 79.11 109.2 234.98 290.8 234.98 290.8 79.11 195.5 79.11" fill="#fff"/><path d="M290.8,236H109.2a1,1,0,0,1-1-1V65a1,1,0,0,1,1-1h76.56a1,1,0,0,1,.82.43L196,78.11H290.8a1,1,0,0,1,1,1V235A1,1,0,0,1,290.8,236Zm-180.6-2H289.8V80.11H195.5a1,1,0,0,1-.83-.44L185.23,66h-75Z" fill="#093f68"/><rect x="177.07" y="93.04" width="45.86" height="33.33" rx="2.86" fill="#68e1fd"/><path d="M220.08,127.37H179.92a3.86,3.86,0,0,1-3.85-3.86V95.9A3.86,3.86,0,0,1,179.92,92h40.16a3.86,3.86,0,0,1,3.85,3.86v27.61A3.86,3.86,0,0,1,220.08,127.37ZM179.92,94a1.86,1.86,0,0,0-1.85,1.86v27.61a1.85,1.85,0,0,0,1.85,1.86h40.16a1.85,1.85,0,0,0,1.85-1.86V95.9A1.86,1.86,0,0,0,220.08,94Z" fill="#093f68"/><rect x="193.38" y="126.37" width="13.25" height="9.4" fill="#093f68"/><path d="M206.62,136.77H193.38a1,1,0,0,1-1-1v-9.4a1,1,0,0,1,1-1h13.24a1,1,0,0,1,1,1v9.4A1,1,0,0,1,206.62,136.77Zm-12.24-2h11.24v-7.4H194.38Z" fill="#093f68"/><path d="M210.83,137.15H189.17a1,1,0,0,1,0-2h21.66a1,1,0,0,1,0,2Z" fill="#093f68"/><rect x="129.78" y="142.8" width="45.86" height="33.33" rx="2.86" fill="#68e1fd"/><path d="M172.79,177.13H132.64a3.86,3.86,0,0,1-3.86-3.86V145.66a3.86,3.86,0,0,1,3.86-3.86h40.15a3.86,3.86,0,0,1,3.85,3.86v27.61A3.86,3.86,0,0,1,172.79,177.13ZM132.64,143.8a1.86,1.86,0,0,0-1.86,1.86v27.61a1.86,1.86,0,0,0,1.86,1.86h40.15a1.85,1.85,0,0,0,1.85-1.86V145.66a1.85,1.85,0,0,0-1.85-1.86Z" fill="#093f68"/><rect x="146.09" y="176.13" width="13.25" height="9.4" fill="#093f68"/><path d="M159.33,186.53H146.09a1,1,0,0,1-1-1v-9.4a1,1,0,0,1,1-1h13.24a1,1,0,0,1,1,1v9.4A1,1,0,0,1,159.33,186.53Zm-12.24-2h11.24v-7.4H147.09Z" fill="#093f68"/><path d="M163.54,186.91H141.89a1,1,0,0,1,0-2h21.65a1,1,0,0,1,0,2Z" fill="#093f68"/><rect x="224.36" y="142.8" width="45.86" height="33.33" rx="2.86" fill="#68e1fd"/><path d="M267.36,177.13H227.21a3.86,3.86,0,0,1-3.85-3.86V145.66a3.86,3.86,0,0,1,3.85-3.86h40.15a3.86,3.86,0,0,1,3.86,3.86v27.61A3.86,3.86,0,0,1,267.36,177.13ZM227.21,143.8a1.85,1.85,0,0,0-1.85,1.86v27.61a1.85,1.85,0,0,0,1.85,1.86h40.15a1.86,1.86,0,0,0,1.86-1.86V145.66a1.86,1.86,0,0,0-1.86-1.86Z" fill="#093f68"/><rect x="240.67" y="176.13" width="13.25" height="9.4" fill="#093f68"/><path d="M253.91,186.53H240.67a1,1,0,0,1-1-1v-9.4a1,1,0,0,1,1-1h13.24a1,1,0,0,1,1,1v9.4A1,1,0,0,1,253.91,186.53Zm-12.24-2h11.24v-7.4H241.67Z" fill="#093f68"/><path d="M258.11,186.91H236.46a1,1,0,0,1,0-2h21.65a1,1,0,0,1,0,2Z" fill="#093f68"/><path d="M200,208.76a1,1,0,0,1-1-1v-65a1,1,0,0,1,2,0v65A1,1,0,0,1,200,208.76Z" fill="#093f68"/><path d="M248.21,206H151.79a1,1,0,0,1-1-1V193.22a1,1,0,0,1,2,0V204h94.42V193.22a1,1,0,0,1,2,0V205A1,1,0,0,1,248.21,206Z" fill="#093f68"/><circle cx="200.14" cy="205" r="7.98" fill="#68e1fd"/><path d="M200.14,214a9,9,0,1,1,9-9A9,9,0,0,1,200.14,214Zm0-15.95a7,7,0,1,0,7,7A7,7,0,0,0,200.14,198Z" fill="#093f68"/><path d="M200,227a1,1,0,0,1-1-1v-4a1,1,0,0,1,2,0v4A1,1,0,0,1,200,227Zm0-8a1,1,0,0,1-1-1v-4a1,1,0,0,1,2,0v4A1,1,0,0,1,200,219Z" fill="#093f68"/><path d="M251.58,225.08H214.44a1,1,0,0,1,0-2h37.14a1,1,0,0,1,0,2Z" fill="#dfeaef"/><path d="M159.33,97.14H146.87a1,1,0,0,1,0-2h12.46a1,1,0,0,1,0,2Z" fill="#dfeaef"/><path d="M135.88,97.14H122.69a1,1,0,0,1,0-2h13.19a1,1,0,0,1,0,2Z" fill="#dfeaef"/><path d="M159.33,110.71H122.69a1,1,0,0,1,0-2h36.64a1,1,0,0,1,0,2Z" fill="#dfeaef"/><path d="M144.68,124.27h-22a1,1,0,0,1,0-2h22a1,1,0,0,1,0,2Z" fill="#dfeaef"/></g></svg>