<svg id="_520_data_analyzing_outline" data-name="#520_data_analyzing_outline" xmlns="http://www.w3.org/2000/svg" viewBox="0 0 400 300"><path d="M126.2,61h0a22.67,22.67,0,0,1,22.67,22.67v6.19a0,0,0,0,1,0,0H103.53a0,0,0,0,1,0,0V83.69A22.67,22.67,0,0,1,126.2,61Z" fill="#68e1fd"/><path d="M148.87,90.88H103.53a1,1,0,0,1-1-1V83.69a23.67,23.67,0,0,1,47.34,0v6.19A1,1,0,0,1,148.87,90.88Zm-44.34-2h43.34V83.69a21.67,21.67,0,0,0-43.34,0Z" fill="#093f68"/><path d="M258.13,84.37V239H171.48a22.65,22.65,0,0,1-22.61-21.15V83.65A22.67,22.67,0,0,0,126.2,61H234.79A23.34,23.34,0,0,1,258.13,84.37Z" fill="#fff"/><path d="M258.13,240H171.48a23.69,23.69,0,0,1-23.61-22.09V83.65A21.7,21.7,0,0,0,126.2,62a1,1,0,0,1,0-2H234.79a24.37,24.37,0,0,1,24.34,24.35V239A1,1,0,0,1,258.13,240ZM135.71,62a23.73,23.73,0,0,1,14.16,21.63V217.83A21.67,21.67,0,0,0,171.48,238h85.65V84.37A22.37,22.37,0,0,0,234.79,62Z" fill="#093f68"/><path d="M296.47,210.13v6.19A22.67,22.67,0,0,1,273.8,239H171.48a22.67,22.67,0,0,0,22.67-22.66v-6.19Z" fill="#68e1fd"/><path d="M273.8,240H171.48a1,1,0,0,1,0-2,21.69,21.69,0,0,0,21.67-21.66v-6.2a1,1,0,0,1,1-1H296.47a1,1,0,0,1,1,1v6.2A23.66,23.66,0,0,1,273.8,240ZM181,238h92.8a21.65,21.65,0,0,0,21.67-21.66v-5.2H195.15v5.2A23.7,23.7,0,0,1,181,238Z" fill="#093f68"/><path d="M157.28,141.49h1.25a6.25,6.25,0,0,1,6.25,6.25v88.1a0,0,0,0,1,0,0H151a0,0,0,0,1,0,0v-88.1a6.25,6.25,0,0,1,6.25-6.25Z" transform="translate(137.06 433.8) rotate(-135.21)" fill="#68e1fd"/><path d="M129.52,225.4a7.2,7.2,0,0,1-5.11-2.11l-.89-.87h0a7.26,7.26,0,0,1-2.14-5.13,7.17,7.17,0,0,1,2.11-5.13l62.06-62.53a1,1,0,0,1,.71-.29h0a1,1,0,0,1,.71.29l9.76,9.69a1,1,0,0,1,0,1.41l-62.06,62.53A7.28,7.28,0,0,1,129.52,225.4Zm-4.59-4.4.89.88a5.22,5.22,0,0,0,3.7,1.52h0a5.27,5.27,0,0,0,3.71-1.55L194.61,160l-8.34-8.28-61.36,61.82a5.25,5.25,0,0,0,0,7.43Z" fill="#093f68"/><circle cx="203.47" cy="142.86" r="39.14" fill="#68e1fd"/><path d="M203.46,183a40.15,40.15,0,0,1-.14-80.29h.15a40.15,40.15,0,0,1,.14,80.29Zm0-78.29h-.14a38.15,38.15,0,0,0,.13,76.29h.15a38.15,38.15,0,0,0-.14-76.29Z" fill="#093f68"/><circle cx="203.47" cy="142.86" r="27.58" fill="#fff"/><path d="M203.46,171.42a28.57,28.57,0,0,1-20.28-48.69h0a28.58,28.58,0,1,1,20.28,48.69ZM184.6,124.13a26.58,26.58,0,1,0,37.59-.13,26.41,26.41,0,0,0-37.59.13Z" fill="#093f68"/><path d="M281.55,151.12H178a1,1,0,0,1,0-2H281.55a1,1,0,0,1,0,2Z" fill="#093f68"/><rect x="189.95" y="134.73" width="18.98" height="15.39" fill="#f56132"/><path d="M208.92,151.12H190a1,1,0,0,1-1-1V134.73a1,1,0,0,1,1-1h19a1,1,0,0,1,1,1v15.39A1,1,0,0,1,208.92,151.12Zm-18-2h17V135.73H191Z" fill="#093f68"/><rect x="219.33" y="120.94" width="18.98" height="29.18" fill="#ffbc0e"/><path d="M238.3,151.12h-19a1,1,0,0,1-1-1V120.94a1,1,0,0,1,1-1h19a1,1,0,0,1,1,1v29.18A1,1,0,0,1,238.3,151.12Zm-18-2h17V121.94h-17Z" fill="#093f68"/><rect x="248.7" y="102.7" width="18.98" height="47.42" fill="#70cc40"/><path d="M267.68,151.12h-19a1,1,0,0,1-1-1V102.7a1,1,0,0,1,1-1h19a1,1,0,0,1,1,1v47.42A1,1,0,0,1,267.68,151.12Zm-18-2h17V103.7h-17Z" fill="#093f68"/><path d="M209.88,85.23h-29a1,1,0,0,1,0-2h29a1,1,0,0,1,0,2Z" fill="#dfeaef"/><path d="M171.48,85.23H163a1,1,0,0,1,0-2h8.46a1,1,0,0,1,0,2Z" fill="#dfeaef"/><path d="M190,97.38H163a1,1,0,1,1,0-2H190a1,1,0,0,1,0,2Z" fill="#dfeaef"/><path d="M192.16,127.41a1,1,0,0,1-.58-1.81l54-39H239.9a1,1,0,1,1,0-2h8.81a1,1,0,0,1,.95.69,1,1,0,0,1-.37,1.12l-56.54,40.79A1,1,0,0,1,192.16,127.41Z" fill="#093f68"/><path d="M246.85,94.6a.85.85,0,0,1-.23,0,1,1,0,0,1-.75-1.2l1.86-8a1,1,0,1,1,2,.45l-1.86,8A1,1,0,0,1,246.85,94.6Z" fill="#093f68"/><path d="M246.92,196.82H212.56a1,1,0,0,1,0-2h34.36a1,1,0,1,1,0,2Z" fill="#dfeaef"/><path d="M203.07,196.82H195.8a1,1,0,0,1,0-2h7.27a1,1,0,0,1,0,2Z" fill="#dfeaef"/></svg>