<svg xmlns="http://www.w3.org/2000/svg" viewBox="0 0 400 300"><g id="_84_data_process_outline" data-name="#84_data_process_outline"><rect x="169.31" y="94.16" width="77.69" height="97.34" rx="5.92" fill="#f56132"/><path d="M241.08,192.49H175.23a6.93,6.93,0,0,1-6.92-6.92V100.08a6.93,6.93,0,0,1,6.92-6.92h65.85a6.92,6.92,0,0,1,6.92,6.92v85.49A6.92,6.92,0,0,1,241.08,192.49ZM175.23,95.16a4.92,4.92,0,0,0-4.92,4.92v85.49a4.92,4.92,0,0,0,4.92,4.92h65.85a4.92,4.92,0,0,0,4.92-4.92V100.08a4.92,4.92,0,0,0-4.92-4.92Z" fill="#093f68"/><rect x="160.81" y="102.22" width="77.69" height="97.34" rx="5.92" fill="#ffbc0e"/><path d="M232.58,200.56H166.73a6.94,6.94,0,0,1-6.92-6.93V108.14a6.93,6.93,0,0,1,6.92-6.92h65.85a6.92,6.92,0,0,1,6.92,6.92v85.49A6.93,6.93,0,0,1,232.58,200.56Zm-65.85-97.34a4.93,4.93,0,0,0-4.92,4.92v85.49a4.93,4.93,0,0,0,4.92,4.93h65.85a4.93,4.93,0,0,0,4.92-4.93V108.14a4.92,4.92,0,0,0-4.92-4.92Z" fill="#093f68"/><path d="M225.47,205.84H158.21a5.21,5.21,0,0,1-5.21-5.21v-86.9a5.21,5.21,0,0,1,5.21-5.22h55.12l17.36,15.93v76.19A5.22,5.22,0,0,1,225.47,205.84Z" fill="#68e1fd"/><path d="M225.47,206.84H158.21a6.22,6.22,0,0,1-6.21-6.21v-86.9a6.22,6.22,0,0,1,6.21-6.22h55.12a1,1,0,0,1,.67.26l17.36,15.93a1,1,0,0,1,.33.74v76.19A6.22,6.22,0,0,1,225.47,206.84Zm-67.26-97.33a4.22,4.22,0,0,0-4.21,4.22v86.9a4.22,4.22,0,0,0,4.21,4.21h67.26a4.22,4.22,0,0,0,4.22-4.21V124.88l-16.75-15.37Z" fill="#093f68"/><path d="M213.33,108.51v12.1a3.91,3.91,0,0,0,3.92,3.92h13.44Z" fill="#68e1fd"/><path d="M230.69,125.53H217.25a4.92,4.92,0,0,1-4.92-4.92v-12.1a1,1,0,0,1,1.68-.74l17.36,16a1,1,0,0,1-.68,1.73Zm-16.36-14.74v9.82a2.92,2.92,0,0,0,2.92,2.92h10.88Z" fill="#093f68"/><path d="M216.92,164.64H203.68a2,2,0,0,1,0-4h13.24a2,2,0,0,1,0,4Z" fill="#fff"/><path d="M199.66,178.38H188.1a2,2,0,0,1,0-4h11.56a2,2,0,0,1,0,4Z" fill="#fff"/><path d="M191.84,129.72H169.31a2,2,0,0,1,0-4h22.53a2,2,0,0,1,0,4Z" fill="#fff"/><path d="M216.92,150.89H169.31a2,2,0,0,1,0-4h47.61a2,2,0,0,1,0,4Z" fill="#fff"/><path d="M193.11,164.64h-23.8a2,2,0,0,1,0-4h23.8a2,2,0,0,1,0,4Z" fill="#fff"/><path d="M178.53,178.38h-9.22a2,2,0,0,1,0-4h9.22a2,2,0,0,1,0,4Z" fill="#fff"/><path d="M195.89,192.12H169.31a2,2,0,0,1,0-4h26.58a2,2,0,0,1,0,4Z" fill="#fff"/><path d="M246.59,234.27h-7.18a1,1,0,0,1,0-2h7.18a1,1,0,0,1,0,2Zm-14.26,0h-7.07a1,1,0,0,1,0-2h7.07a1,1,0,0,1,0,2Zm-14.14,0h-7.08a1,1,0,0,1,0-2h7.08a1,1,0,0,1,0,2Zm-14.15,0H197a1,1,0,0,1,0-2H204a1,1,0,0,1,0,2Zm-14.15,0h-7.07a1,1,0,0,1,0-2h7.07a1,1,0,0,1,0,2Zm-14.14,0h-7.08a1,1,0,0,1,0-2h7.08a1,1,0,0,1,0,2Zm-14.15,0h-7.07a1,1,0,0,1,0-2h7.07a1,1,0,0,1,0,2Zm-14.1-.67-.22,0a28.21,28.21,0,0,1-6.86-2.55,1,1,0,0,1,.94-1.77,25.86,25.86,0,0,0,6.37,2.37,1,1,0,0,1-.23,2Zm106.07-.27a1,1,0,0,1-.26-2,26.51,26.51,0,0,0,6.27-2.62,1,1,0,1,1,1,1.72,27.53,27.53,0,0,1-6.74,2.83Zm-118.43-6.26a1,1,0,0,1-.68-.27,28.2,28.2,0,0,1-4.67-5.62,1,1,0,0,1,1.69-1.07,25.86,25.86,0,0,0,4.34,5.22,1,1,0,0,1,.05,1.42A1,1,0,0,1,135.14,227.07Zm130.52-.77A1,1,0,0,1,265,226a1,1,0,0,1,0-1.42,26.09,26.09,0,0,0,4.12-5.4,1,1,0,0,1,1.74,1,28.5,28.5,0,0,1-4.44,5.81A1,1,0,0,1,265.66,226.3Zm-138-11.06a1,1,0,0,1-1-.7,27.93,27.93,0,0,1-1.23-7.21,1,1,0,0,1,2-.08,25.62,25.62,0,0,0,1.14,6.69,1,1,0,0,1-.66,1.25A.79.79,0,0,1,127.68,215.24Zm144.94-1.07a1.07,1.07,0,0,1-.25,0,1,1,0,0,1-.71-1.22,26.34,26.34,0,0,0,.86-6.69,1,1,0,0,1,1-1,1,1,0,0,1,1,1v0a28.11,28.11,0,0,1-.93,7.2A1,1,0,0,1,272.62,214.17ZM126.48,201.22a1,1,0,0,1-1-1v-7.08a1,1,0,0,1,2,0v7.08A1,1,0,0,1,126.48,201.22Zm147-1.12a1,1,0,0,1-1-1V192a1,1,0,1,1,2,0v7.07A1,1,0,0,1,273.52,200.1Zm-147-13a1,1,0,0,1-1-1V179a1,1,0,0,1,2,0v7.07A1,1,0,0,1,126.48,187.07Zm147-1.11a1,1,0,0,1-1-1v-7.08a1,1,0,0,1,2,0V185A1,1,0,0,1,273.52,186Zm-147-13a1,1,0,0,1-1-1v-7.07a1,1,0,0,1,2,0v7.07A1,1,0,0,1,126.48,172.92Zm147-1.11a1,1,0,0,1-1-1v-7.07a1,1,0,0,1,2,0v7.07A1,1,0,0,1,273.52,171.81Zm-147-13a1,1,0,0,1-1-1V150.7a1,1,0,0,1,2,0v7.08A1,1,0,0,1,126.48,158.78Zm147-1.12a1,1,0,0,1-1-1v-7.07a1,1,0,0,1,2,0v7.07A1,1,0,0,1,273.52,157.66Zm-147-13a1,1,0,0,1-1-1v-7.07a1,1,0,0,1,2,0v7.07A1,1,0,0,1,126.48,144.63Zm147-1.11a1,1,0,0,1-1-1v-7.08a1,1,0,0,1,2,0v7.08A1,1,0,0,1,273.52,143.52Zm-147-13a1,1,0,0,1-1-1v-7.07a1,1,0,0,1,2,0v7.07A1,1,0,0,1,126.48,130.48Zm147-1.11a1,1,0,0,1-1-1V121.3a1,1,0,0,1,2,0v7.07A1,1,0,0,1,273.52,129.37Zm-147-13a1,1,0,0,1-1-1v-7.08a1,1,0,0,1,2,0v7.08A1,1,0,0,1,126.48,116.34Zm147-1.12a1,1,0,0,1-1-1v-7.07a1,1,0,1,1,2,0v7.07A1,1,0,0,1,273.52,115.22Zm-147-13a1,1,0,0,1-1-1V94.12a1,1,0,0,1,2,0v7.07A1,1,0,0,1,126.48,102.19Zm147-1.11a1,1,0,0,1-1-1v-6c0-.36,0-.72,0-1.08a1,1,0,0,1,2-.07c0,.38,0,.76,0,1.15v6A1,1,0,0,1,273.52,101.08Zm-146.13-13-.26,0a1,1,0,0,1-.71-1.22,28,28,0,0,1,2.8-6.76,1,1,0,1,1,1.74,1,25.64,25.64,0,0,0-2.6,6.27A1,1,0,0,1,127.39,88.12ZM272.3,87.06a1,1,0,0,1-.95-.71,26.32,26.32,0,0,0-2.86-6.16,1,1,0,1,1,1.69-1.07,27.82,27.82,0,0,1,3.08,6.64A1,1,0,0,1,272.6,87,1,1,0,0,1,272.3,87.06ZM134.38,76a1,1,0,0,1-.71-.29,1,1,0,0,1,0-1.41,27.83,27.83,0,0,1,5.8-4.46,1,1,0,0,1,1.36.36,1,1,0,0,1-.36,1.37,26,26,0,0,0-5.38,4.14A1,1,0,0,1,134.38,76Zm130.44-.77a1,1,0,0,1-.68-.26,25.92,25.92,0,0,0-5.55-3.92,1,1,0,0,1,.94-1.77,28.29,28.29,0,0,1,6,4.22,1,1,0,0,1,.06,1.41A1,1,0,0,1,264.82,75.24ZM146.48,69a1,1,0,0,1-.26-2,27.6,27.6,0,0,1,7.25-1h0a1,1,0,0,1,1,1,1,1,0,0,1-1,1,25.8,25.8,0,0,0-6.73.89Zm106-.26-.22,0a26.22,26.22,0,0,0-5.74-.63h-1.06a1,1,0,0,1,0-2h1.06a28.34,28.34,0,0,1,6.18.68,1,1,0,0,1-.22,2Zm-14.09-.66h-7.08a1,1,0,0,1,0-2h7.08a1,1,0,0,1,0,2Zm-14.15,0h-7.07a1,1,0,0,1,0-2h7.07a1,1,0,0,1,0,2Zm-14.15,0H203a1,1,0,0,1,0-2h7.07a1,1,0,0,1,0,2Zm-14.14,0h-7.08a1,1,0,0,1,0-2h7.08a1,1,0,0,1,0,2Zm-14.15,0h-7.07a1,1,0,0,1,0-2h7.07a1,1,0,0,1,0,2Zm-14.15,0h-7.07a1,1,0,0,1,0-2h7.07a1,1,0,0,1,0,2Z" fill="#dfeaef"/><path d="M126.48,109.4a2.5,2.5,0,0,1-2.5-2.5V94A29.57,29.57,0,0,1,153.52,64.4h21.82a2.5,2.5,0,0,1,0,5H153.52A24.57,24.57,0,0,0,129,94v13A2.5,2.5,0,0,1,126.48,109.4Z" fill="#093f68"/><path d="M170.74,75.61a2.47,2.47,0,0,1-1.81-.77,2.5,2.5,0,0,1,.08-3.53l4.57-4.39-4.27-4a2.5,2.5,0,1,1,3.42-3.65l6.19,5.81a2.5,2.5,0,0,1,0,3.63l-6.47,6.21A2.52,2.52,0,0,1,170.74,75.61Z" fill="#093f68"/><path d="M246.48,235.77H224.66a2.5,2.5,0,0,1,0-5h21.82A24.57,24.57,0,0,0,271,206.23v-13a2.5,2.5,0,1,1,5,0v13A29.57,29.57,0,0,1,246.48,235.77Z" fill="#093f68"/><path d="M229,241.57a2.52,2.52,0,0,1-1.71-.67l-6.19-5.8a2.5,2.5,0,0,1-.79-1.81,2.45,2.45,0,0,1,.77-1.82l6.47-6.21a2.5,2.5,0,1,1,3.46,3.61l-4.57,4.38,4.27,4a2.5,2.5,0,0,1-1.71,4.32Z" fill="#093f68"/><g id="ahcQ9Z"><path d="M250.16,186.21a2.66,2.66,0,0,0-2.06-2.49c-1-.22-2-.38-3-.53a.66.66,0,0,1-.59-.5c-.3-.8-.64-1.58-1-2.37a.5.5,0,0,1,0-.6c.6-.83,1.22-1.66,1.78-2.52a2.63,2.63,0,0,0-.23-3.22c-.92-1-1.91-2-2.87-2.93a2.84,2.84,0,0,0-3.85-.35c-.75.52-1.5,1.06-2.24,1.6a.51.51,0,0,1-.6.06c-.85-.37-1.71-.73-2.58-1.06a.52.52,0,0,1-.39-.47c-.14-.92-.29-1.83-.46-2.75a2.78,2.78,0,0,0-2.65-2.39c-1.42,0-2.84,0-4.25,0a2.66,2.66,0,0,0-2.57,2.1c-.23,1-.39,2.07-.56,3.11a.53.53,0,0,1-.39.47c-.83.33-1.65.68-2.46,1a.5.5,0,0,1-.57,0c-.82-.61-1.64-1.22-2.49-1.78a2.64,2.64,0,0,0-3.25.21c-1.08,1-2.13,2-3.12,3.09a2.71,2.71,0,0,0-.18,3.62c.55.8,1.12,1.58,1.67,2.38a.56.56,0,0,1,.05.42c-.35.89-.7,1.77-1.08,2.65a.57.57,0,0,1-.33.28c-.92.17-1.84.32-2.76.46a2.77,2.77,0,0,0-2.46,2.59c0,1.48,0,3,0,4.43a2.65,2.65,0,0,0,2,2.47c1,.23,2.12.39,3.19.57a.51.51,0,0,1,.44.37c.33.84.69,1.67,1.06,2.5a.47.47,0,0,1-.05.53c-.56.76-1.12,1.53-1.65,2.3a2.78,2.78,0,0,0,.32,3.73c.88.91,1.78,1.81,2.69,2.69a2.78,2.78,0,0,0,3.82.29c.77-.54,1.54-1.08,2.3-1.64a.42.42,0,0,1,.5,0c.79.34,1.57.68,2.38,1a.62.62,0,0,1,.44.56c.13.91.28,1.81.44,2.72a2.74,2.74,0,0,0,2.54,2.37c1.49.06,3,0,4.47,0a2.68,2.68,0,0,0,2.48-2.08c.22-1,.37-2,.54-3a.57.57,0,0,1,.42-.53c.83-.32,1.65-.67,2.47-1a.48.48,0,0,1,.54.06c.76.56,1.53,1.1,2.3,1.65a3,3,0,0,0,1.85.56,2.46,2.46,0,0,0,1.66-.67c1-.92,1.91-1.88,2.86-2.83a2.82,2.82,0,0,0,.35-3.9c-.53-.76-1.06-1.5-1.6-2.25a.45.45,0,0,1-.05-.53c.36-.83.71-1.67,1-2.51a.52.52,0,0,1,.47-.38q1.38-.21,2.76-.45a2.78,2.78,0,0,0,2.41-2.64C250.2,189.11,250.19,187.66,250.16,186.21Zm-22.74,12a9.81,9.81,0,1,1,9.83-9.8A9.82,9.82,0,0,1,227.42,198.22Z" fill="#fff" stroke="#093f68" stroke-linecap="round" stroke-linejoin="round" stroke-width="2"/></g></g></svg>