<svg xmlns="http://www.w3.org/2000/svg" viewBox="0 0 400 300"><g id="_396_day_dreaming_outline" data-name="#396_day_dreaming_outline"><path d="M139.3,134.23a12.5,12.5,0,0,0-9.12,10.59c-.24,2.33.66,5.22,3,5.67-2-.3-3.92.95-5.27,2.45a13.33,13.33,0,0,0,12.73,21.95,3.26,3.26,0,0,0,2.16,3.53,6.9,6.9,0,0,0,4.44-.12c6.19-1.86,10.78-7.13,14.05-12.71,2.71-4.64,4.8-10.08,3.55-15.3-1.56-6.57-6.69-7.41-11.48-10.64C148.68,136.52,145.66,132.6,139.3,134.23Z" fill="#725858"/><path d="M144.57,179.74a6.15,6.15,0,0,1-2.17-.38,4.56,4.56,0,0,1-2.81-3.28,14.34,14.34,0,0,1-12.47-23.81,9.19,9.19,0,0,1,3.33-2.41,7.5,7.5,0,0,1-1.27-5.14,13.6,13.6,0,0,1,9.87-11.46h0c5.56-1.42,8.81,1.05,12.24,3.67.83.63,1.68,1.28,2.59,1.89,1.16.78,2.37,1.43,3.54,2.06,3.64,2,7.08,3.83,8.36,9.17,1.11,4.68-.09,9.92-3.67,16-4.13,7.06-9.05,11.49-14.62,13.17A10.21,10.21,0,0,1,144.57,179.74Zm-4-5.85a1,1,0,0,1,.72.3,1,1,0,0,1,.25.94,2.29,2.29,0,0,0,1.55,2.36,5.81,5.81,0,0,0,3.79-.15c5.08-1.53,9.61-5.65,13.47-12.26,3.31-5.65,4.44-10.42,3.45-14.56-1.07-4.48-3.84-6-7.36-7.88a40.4,40.4,0,0,1-3.71-2.17c-1-.64-1.83-1.31-2.68-1.95-3.3-2.52-5.91-4.51-10.53-3.33a11.56,11.56,0,0,0-8.38,9.73c-.17,1.7.38,4.24,2.17,4.59a1,1,0,0,1-.34,2c-2-.3-3.73,1.39-4.39,2.13a12.34,12.34,0,0,0,11.78,20.31Z" fill="#093f68"/><path d="M149.45,157.72c1.31,4.08,5.09,7.65,9.37,7.38,11-.7,11.8-20,3.71-24.83C150.92,133.31,146.72,149.21,149.45,157.72Z" fill="#68e1fd"/><path d="M158.34,166.11c-4.76,0-8.53-4-9.84-8.08-1.9-5.9-.71-15.08,4-18.83,2-1.58,5.43-2.83,10.51.22,5.25,3.15,6.85,11.37,5.36,17.49-1.32,5.46-4.88,8.89-9.52,9.19Zm-1.14-26.56a5.42,5.42,0,0,0-3.43,1.21c-3.91,3.11-5,11.5-3.37,16.66h0c1.1,3.43,4.41,7,8.35,6.68,5.36-.34,7.18-5.47,7.71-7.66,1.29-5.3,0-12.66-4.45-15.31A9.55,9.55,0,0,0,157.2,139.55Z" fill="#093f68"/><path d="M226.49,238.86H153.17V186.63s8.23-14,23.6-16.77h26.12a23.61,23.61,0,0,1,23.6,23.6Z" fill="#68e1fd"/><path d="M226.49,239.86H153.17a1,1,0,0,1-1-1V186.63a1,1,0,0,1,.14-.51c.34-.59,8.64-14.39,24.28-17.24a.55.55,0,0,1,.18,0h26.12a24.63,24.63,0,0,1,24.6,24.6v45.4A1,1,0,0,1,226.49,239.86Zm-72.32-2h71.32v-44.4a22.63,22.63,0,0,0-22.6-22.6h-26c-13.62,2.53-21.56,14.28-22.69,16Z" fill="#093f68"/><path d="M175.85,190.39c3.7,6.13,12.22.19,14.46-4.43,2.18,3.56,5,5.78,9.32,5.71,5.57-.1,9.19-4.71,8.15-10.31a13.13,13.13,0,0,0-7.16-8.94,22.73,22.73,0,0,0-11.55-2,20.85,20.85,0,0,0-8.42,2c-6.94,3.53-8.61,11.3-4.91,17.84Z" fill="#fff"/><path d="M180.28,194a6,6,0,0,1-5.29-3.1h0l-.12-.21a14.43,14.43,0,0,1-1.49-11.31,13.15,13.15,0,0,1,6.81-7.92,21.58,21.58,0,0,1,8.83-2.1,23.5,23.5,0,0,1,12,2.16,14,14,0,0,1,7.69,9.65,9.76,9.76,0,0,1-1.89,8.13,9.36,9.36,0,0,1-7.22,3.36,10.84,10.84,0,0,1-9.29-4.84c-2.11,3-6.15,6-9.75,6.17Zm-3.57-4.14a4,4,0,0,0,3.8,2.13c3.37-.15,7.48-3.54,8.9-6.47a1,1,0,0,1,1.75-.09c2.23,3.63,4.89,5.31,8.45,5.23a7.45,7.45,0,0,0,5.72-2.62,7.85,7.85,0,0,0,1.46-6.51,12.05,12.05,0,0,0-6.62-8.23,21.71,21.71,0,0,0-11-1.94,19.74,19.74,0,0,0-8,1.88,11,11,0,0,0-5.8,6.71,12.41,12.41,0,0,0,1.31,9.75Z" fill="#093f68"/><path d="M184.37,172.77h12.57a0,0,0,0,1,0,0V180a5.33,5.33,0,0,1-5.33,5.33h-1.9a5.33,5.33,0,0,1-5.33-5.33v-7.23A0,0,0,0,1,184.37,172.77Z" transform="translate(-7.24 8.04) rotate(-2.37)" fill="#ffc9b0"/><path d="M189.74,186.38a6.35,6.35,0,0,1-6.32-6.07l-.3-7.23a1,1,0,0,1,1-1l12.55-.52a1,1,0,0,1,.72.27.94.94,0,0,1,.32.69l.3,7.22a6.33,6.33,0,0,1-6.06,6.59h0l-1.89.08Zm2.12-1.08h0Zm-6.7-11.3.26,6.22a4.36,4.36,0,0,0,4.51,4.16l1.89-.08a4.34,4.34,0,0,0,4.15-4.51l-.25-6.23Z" fill="#093f68"/><path d="M144.87,142c-.69-3.92-4-6-5.58-9.51a20.47,20.47,0,0,1-.55-15.36c-6.59-5.61-8-16.37-3.12-23.51a41.7,41.7,0,0,0,3-4.29c1-2.07,1.3-4.44,1.72-6.72.91-4.84,2.78-9.67,6.32-13.09s9-5.16,13.57-3.39c2.14-5.41,8.19-8,13.79-9.65,3.73-1.07,7.64-1.93,11.46-1.24s8.47,7,8.47,7,12.87-2.37,18.58.52S223.9,77.46,223.9,77.46s3.66,1.62,4.82,2a16.84,16.84,0,0,1,6.67,4.27c6.26,6.58,7.59,20.85.74,27.46,0,0,1.92,5.33,2,5.9a15.36,15.36,0,0,1-.19,6.58c-1.12,4.54-3.75,8.79-4.39,13.48l-7.84-1c-10.88-1.45-24.24,1.76-35.14,2.55l-26.88,2c-4.39.32-13.06,2.71-17.27,1.25A5.64,5.64,0,0,0,144.87,142Z" fill="#725858"/><path d="M150,143.35a12.2,12.2,0,0,1-3.85-.52h0l-.56.08a4.33,4.33,0,0,1-.63.08,1,1,0,0,1-1-.82c-.36-2.08-1.58-3.64-2.87-5.29a20.12,20.12,0,0,1-2.63-4,21.37,21.37,0,0,1-.8-15.48c-6.52-6-7.83-17-2.79-24.37.36-.52.74-1,1.11-1.51a16.61,16.61,0,0,0,1.81-2.68,17.67,17.67,0,0,0,1.42-5.17c.07-.43.14-.85.22-1.27,1.1-5.86,3.32-10.45,6.6-13.63,3.83-3.71,9.23-5.21,13.73-3.9,2.73-5.57,9.27-8,14-9.39,3.79-1.08,7.86-2,11.92-1.26,3.53.64,7.49,5.36,8.72,6.93,2.68-.45,13.32-2,18.6.71,5.45,2.77,10.67,12.79,11.67,14.8.92.4,3.5,1.53,4.41,1.84a17.85,17.85,0,0,1,7.06,4.52c6.33,6.65,8,21.1,1.18,28.4a40.19,40.19,0,0,1,1.84,5.47,16.32,16.32,0,0,1-.2,7,45.75,45.75,0,0,1-2,5.87,32.09,32.09,0,0,0-2.33,7.5,1,1,0,0,1-1.12.86l-7.84-1c-7.21-1-15.55.17-23.62,1.26-4,.53-7.74,1-11.31,1.3l-26.89,2c-1.29.1-3,.39-4.86.7A58.64,58.64,0,0,1,150,143.35Zm-3.84-2.51a2.05,2.05,0,0,1,.65.1c2.69.93,7.75.08,11.82-.6,1.88-.31,3.66-.61,5-.71l26.88-2c3.52-.25,7.24-.75,11.19-1.29,8.2-1.1,16.68-2.25,24.15-1.26l6.88.92a38.39,38.39,0,0,1,2.29-7,42.16,42.16,0,0,0,2-5.61,14.38,14.38,0,0,0,.17-6.17c-.1-.5-1.64-5-1.9-5.58a.72.72,0,0,1-.09-.2,1,1,0,0,1,.26-1c6.46-6.22,5-20-.77-26a15.75,15.75,0,0,0-6.26-4c-1.19-.41-4.75-2-4.9-2a1,1,0,0,1-.5-.48c-.05-.11-5.6-11.51-10.94-14.22s-17.81-.45-17.94-.42a1,1,0,0,1-1-.39c-1.23-1.68-5-6.13-7.84-6.64-3.65-.66-7.45.2-11,1.22-7.34,2.1-11.51,5-13.13,9.06a1,1,0,0,1-1.29.57c-4-1.53-9-.26-12.51,3.17-3,2.88-5,7.11-6,12.56-.08.41-.15.82-.22,1.24a19.68,19.68,0,0,1-1.6,5.74,19.77,19.77,0,0,1-2,3c-.36.47-.71.94-1.05,1.42a17.3,17.3,0,0,0,2.95,22.17,1,1,0,0,1,.29,1.11,19.36,19.36,0,0,0,.52,14.6,18.41,18.41,0,0,0,2.38,3.58,15.46,15.46,0,0,1,3.06,5.23A2.59,2.59,0,0,1,146.12,140.84Z" fill="#093f68"/><ellipse cx="153.17" cy="141.65" rx="12.21" ry="10.52" transform="translate(-5.73 6.45) rotate(-2.37)" fill="#ffc9b0"/><path d="M153,153.18a14.12,14.12,0,0,1-8.77-3,10.78,10.78,0,0,1-4.26-8c-.26-6.35,5.44-11.75,12.72-12.06s13.41,4.62,13.67,11h0a10.75,10.75,0,0,1-3.58,8.35,14.15,14.15,0,0,1-9.14,3.7Zm.33-21.05h-.56c-6.17.26-11,4.73-10.8,10a8.8,8.8,0,0,0,3.5,6.54,12.63,12.63,0,0,0,15.95-.66,8.84,8.84,0,0,0,3-6.81h0C164.16,136.1,159.26,132.13,153.33,132.13Z" fill="#093f68"/><ellipse cx="224.28" cy="138.71" rx="12.21" ry="10.52" transform="translate(-5.54 9.39) rotate(-2.37)" fill="#ffc9b0"/><path d="M224.11,150.23a14.06,14.06,0,0,1-8.77-2.95,10.75,10.75,0,0,1-4.26-8c-.26-6.35,5.44-11.76,12.72-12.06s13.41,4.62,13.68,11a10.8,10.8,0,0,1-3.59,8.35,14.15,14.15,0,0,1-9.14,3.7Zm.33-21h-.56c-6.17.26-11,4.73-10.8,10a8.8,8.8,0,0,0,3.5,6.55,12.66,12.66,0,0,0,15.95-.66,8.84,8.84,0,0,0,2.95-6.81h0C235.27,133.16,230.37,129.19,224.44,129.19Z" fill="#093f68"/><path d="M190.46,174.43a36.83,36.83,0,0,1-38.31-35.27l-.74-18c0-1.08-.54-3.13-.17-4.15.71-2,2.26-1.86,4.2-3.07A29.13,29.13,0,0,0,166.12,101a16.47,16.47,0,0,0,20-5.25,13.54,13.54,0,0,0,22.91.15,10.31,10.31,0,0,0,6,7.26c2.18.93,7.1.17,8.73,1.47,1.12.89.83,2.41.89,3.91q.24,5.92.49,11.85l.65,15.69A36.83,36.83,0,0,1,190.46,174.43Z" fill="#ffc9b0"/><path d="M188.92,175.46a37.86,37.86,0,0,1-37.76-36.26l-.75-17.95c0-.3-.06-.7-.12-1.12a8,8,0,0,1,0-3.41,4.62,4.62,0,0,1,3-2.78,11.35,11.35,0,0,0,1.6-.8,27.79,27.79,0,0,0,10.29-12.49,1,1,0,0,1,.57-.54,1,1,0,0,1,.78,0,15.47,15.47,0,0,0,18.71-4.92,1,1,0,0,1,1.67,0,12.83,12.83,0,0,0,10.57,5.93h.07a12.83,12.83,0,0,0,10.58-5.79,1,1,0,0,1,1-.45,1,1,0,0,1,.8.78,9.26,9.26,0,0,0,5.39,6.55,13,13,0,0,0,3.72.49c2.11.11,4.1.2,5.25,1.12s1.26,2.49,1.25,3.8c0,.28,0,.57,0,.85l1.14,27.54a37.83,37.83,0,0,1-36.22,39.35h0Zm1.54-1h0Zm-23.83-72.08A29.69,29.69,0,0,1,156,114.84a13.9,13.9,0,0,1-1.85.93c-1.14.5-1.62.74-1.94,1.63a7.86,7.86,0,0,0,.09,2.47,12.39,12.39,0,0,1,.14,1.3l.74,18a35.89,35.89,0,0,0,37.27,34.31h0a35.81,35.81,0,0,0,34.31-37.27l-1.14-27.54c0-.31,0-.63,0-.94,0-1.13,0-1.84-.5-2.23-.64-.51-2.56-.6-4.1-.68a13.7,13.7,0,0,1-4.4-.65,11.29,11.29,0,0,1-6-6,15,15,0,0,1-11.05,5.09h-.08A14.88,14.88,0,0,1,186,97.48,17.7,17.7,0,0,1,166.63,102.35Z" fill="#093f68"/><path d="M188.29,144.76a21.56,21.56,0,0,1-2.55-.15,1,1,0,1,1,.27-2,15.59,15.59,0,0,0,5.11-.17c.23-.93-1.22-4.58-3.2-8a1,1,0,1,1,1.74-1c1,1.74,4.19,7.59,3.29,9.84a1.76,1.76,0,0,1-1.15,1.06A12.77,12.77,0,0,1,188.29,144.76Z" fill="#093f68"/><path d="M162.67,125.55h-.82a2,2,0,0,1,.15-4c7.26.27,17.43-3.81,17.53-3.85A2,2,0,0,1,181,121.4C180.6,121.57,170.68,125.55,162.67,125.55Z" fill="#093f68"/><path d="M171.16,135.94a11.49,11.49,0,0,1-4.3-.93l-.32-.12a1,1,0,0,1,.65-1.9l.41.16c1.5.59,5.49,2.18,9.55-2.14a1,1,0,1,1,1.46,1.38A10,10,0,0,1,171.16,135.94Z" fill="#093f68"/><path d="M205.52,132.09a12.79,12.79,0,0,1-7.48-2.62,1,1,0,0,1,1.29-1.53h0a9.59,9.59,0,0,0,12.09,0,1,1,0,0,1,1.41.18,1,1,0,0,1-.18,1.4A11.47,11.47,0,0,1,205.52,132.09Z" fill="#093f68"/><path d="M199.67,121.54a43.56,43.56,0,0,1-4.74-.25,2,2,0,0,1,.5-4c3,.37,11.51.67,15.38-2.33a2,2,0,0,1,2.45,3.17C209.61,121,203.78,121.54,199.67,121.54Z" fill="#093f68"/><path d="M188.92,157.29c-6.32,0-10.69-4.58-10.87-4.77a1,1,0,1,1,1.46-1.37s4.11,4.28,9.65,4.14c3.79-.08,7.45-2.14,10.88-6.11a1,1,0,0,1,1.52,1.31c-3.83,4.42-8,6.71-12.38,6.8Z" fill="#093f68"/><path d="M323,94.49c0-8.29-5.94-15-13.26-15a12.38,12.38,0,0,0-2.12.21A18,18,0,0,0,293.18,72a16.65,16.65,0,0,0-5.6,1,13.22,13.22,0,0,0-11.48-7.3c-7.44,0-13.47,6.83-13.47,15.25a17.13,17.13,0,0,0,.24,2.79,12.11,12.11,0,0,0-1.91-.17c-7.44,0-13.47,6.82-13.47,15.25S253.52,114,261,114c.33,0,.66,0,1-.06,3,7.08,9.46,12,16.89,12A17.27,17.27,0,0,0,290,121.79a12.2,12.2,0,0,0,7.64,2.74c7.32,0,13.26-6.72,13.26-15v-.06C317.66,108.82,323,102.37,323,94.49Z" fill="#fff"/><path d="M278.83,126.93c-7.32,0-14.12-4.66-17.51-11.92H261c-8,0-14.47-7.29-14.47-16.25S253,82.52,261,82.52l.75,0c0-.55-.08-1.1-.08-1.64,0-9,6.49-16.25,14.47-16.25A14,14,0,0,1,288,71.74a17.92,17.92,0,0,1,5.14-.76,18.84,18.84,0,0,1,14.89,7.62,12.6,12.6,0,0,1,1.68-.13c7.86,0,14.26,7.19,14.26,16,0,7.93-5.28,14.7-12.18,15.84-.41,8.49-6.64,15.2-14.24,15.2a13,13,0,0,1-7.62-2.48A18.07,18.07,0,0,1,278.83,126.93Zm-16.94-14a1.07,1.07,0,0,1,1,.6c3,7,9.13,11.37,16,11.37A16.19,16.19,0,0,0,289.31,121a1,1,0,0,1,1.27,0,11.17,11.17,0,0,0,7,2.52c6.76,0,12.26-6.29,12.26-14a1,1,0,0,1,.9-1.05c6.32-.59,11.26-6.73,11.26-14,0-7.73-5.5-14-12.26-14a10.92,10.92,0,0,0-1.94.2,1,1,0,0,1-1-.4A17,17,0,0,0,293.18,73a15.83,15.83,0,0,0-5.27.91,1,1,0,0,1-1.21-.47,12.15,12.15,0,0,0-10.6-6.77c-6.87,0-12.47,6.39-12.47,14.25a17.38,17.38,0,0,0,.22,2.63,1,1,0,0,1-1.14,1.14,11.81,11.81,0,0,0-1.75-.15c-6.88,0-12.47,6.39-12.47,14.25S254.08,113,261,113c.28,0,.56,0,.84,0Z" fill="#093f68"/><path d="M256.45,132.92a6.6,6.6,0,0,0-3.47,2.83,3.05,3.05,0,0,0,1,4c-1.51,2.29-.7,5.61,1.36,7.41a9.38,9.38,0,0,0,7.76,1.77c2-.36,4-1.3,5-3.09a5.45,5.45,0,0,0-.54-5.51,8.65,8.65,0,0,0-4.76-3.15c.84.24-.47-3.95-1.2-4.45C260.09,131.75,257.93,132.27,256.45,132.92Z" fill="#fff"/><path d="M261,150.12a9.56,9.56,0,0,1-6.36-2.2,7.08,7.08,0,0,1-2-7.89,4.27,4.27,0,0,1-.57-4.74,7.45,7.45,0,0,1,4-3.29h0c1.41-.61,4.08-1.44,6.05-.09.8.55,1.8,3.06,1.89,4.64a9.35,9.35,0,0,1,4.33,3.22,6.39,6.39,0,0,1,.6,6.55c-1.31,2.49-4.13,3.33-5.7,3.6A12.13,12.13,0,0,1,261,150.12Zm-1.42-17a7.79,7.79,0,0,0-2.74.66h0a5.64,5.64,0,0,0-3,2.37,2.11,2.11,0,0,0,.53,2.68,1,1,0,0,1,.5.63,1,1,0,0,1-.14.8c-1.27,1.93-.41,4.71,1.19,6.11a8.42,8.42,0,0,0,6.92,1.54,5.83,5.83,0,0,0,4.28-2.58,4.43,4.43,0,0,0-.47-4.47,7.7,7.7,0,0,0-4.22-2.76h0a1,1,0,0,1-.68-1.24,1,1,0,0,1,.22-.4,8.7,8.7,0,0,0-1.08-3A2.42,2.42,0,0,0,259.58,133.17Zm3.43,3.05h0Zm-6.56-3.3h0Z" fill="#093f68"/><path d="M237.39,150.73a4.66,4.66,0,0,0,2.76,3.49c1.42.61,4.2.54,5.07-1,.67-1.23.14-4-.8-5a3.46,3.46,0,0,0-2.31-1.1c-1.64-.09-4.17,1-4.65,2.75A2.44,2.44,0,0,0,237.39,150.73Z" fill="#fff"/><path d="M242.09,155.58a6,6,0,0,1-2.33-.44,5.65,5.65,0,0,1-3.37-4.33h0a3.63,3.63,0,0,1,.11-1.23c.65-2.41,3.77-3.6,5.67-3.48a4.4,4.4,0,0,1,3,1.4c1.18,1.21,1.87,4.48,1,6.16A4.39,4.39,0,0,1,242.09,155.58Zm-.19-7.49c-1.33,0-3.17.9-3.47,2a1.66,1.66,0,0,0-.05.55h0a3.72,3.72,0,0,0,2.16,2.65c1.09.47,3.26.38,3.8-.6a4.69,4.69,0,0,0-.63-3.81,2.56,2.56,0,0,0-1.65-.8Z" fill="#093f68"/><path d="M227.1,240.11c-6.4.5-8.44-3.89-9.56-10.21-2.93-16.62-11.81-46.49-12.18-50.84-.51-6.08,6.9-9.83,9.6-15.37s-.68-16,2.69-15.6,2.44,3.26,3.64,7.14c2.54-6.6,3.63-14.44,4.89-12.88s3,15.67,1.29,20.84a88.51,88.51,0,0,1-5.82,12.48l19.95,48.07a12.46,12.46,0,0,1-10.82,16.41Z" fill="#ffc9b0"/><path d="M226.14,241.15c-6.7,0-8.61-5.56-9.58-11.07-1.68-9.54-5.3-23.36-8.21-34.45-2.22-8.45-3.82-14.56-4-16.49-.35-4.16,2.54-7.26,5.34-10.26a25,25,0,0,0,4.36-5.63c1.18-2.43,1.08-6.16,1-9.15-.08-3.15-.14-5.43,1-6.49a2,2,0,0,1,1.69-.51c2.9.34,3.42,2.32,3.76,4.36.46-1.47.86-2.92,1.21-4.18,1.24-4.45,1.68-5.86,2.85-6.1a1.36,1.36,0,0,1,1.37.54c1.6,2,3.17,16.54,1.46,21.78a84.5,84.5,0,0,1-5.66,12.24l19.76,47.62a13.44,13.44,0,0,1-11.66,17.79l-3.73,0C226.79,241.14,226.46,241.15,226.14,241.15Zm-8.66-92.07h0c-.49.35-.41,3.24-.37,5,.09,3.21.2,7.2-1.2,10.08a26.22,26.22,0,0,1-4.7,6.12c-2.61,2.8-5.08,5.44-4.8,8.72.15,1.76,1.9,8.43,3.92,16.15,2.92,11.13,6.55,25,8.25,34.61,1.27,7.23,3.57,9.78,8.49,9.38h.09l3.68,0a11.45,11.45,0,0,0,9.86-15.09l-19.92-48a1,1,0,0,1,.05-.87,88.43,88.43,0,0,0,5.74-12.3c1.43-4.39.24-15.27-.72-18.85-.36,1-.77,2.49-1.13,3.78-.64,2.3-1.43,5.15-2.45,7.78a1,1,0,0,1-1,.64,1,1,0,0,1-.92-.7,22,22,0,0,1-.71-3.28c-.37-2.31-.54-3-2.09-3.17Z" fill="#093f68"/><path d="M153.17,186.63s-30.23,42.79-20.12,52.23,65.89,1.76,65.89,1.76,7.14,6.63,12.2,3.59-5.42-15.54-9.57-18.23-45.22.39-45.22.39l8.6-15.51Z" fill="#ffc9b0"/><path d="M208.16,246c-4.14,0-8.3-3.28-9.54-4.34-5.74.77-56.29,7.22-66.25-2.08-4.56-4.26-2.52-14.64,6.07-30.86a242.75,242.75,0,0,1,13.91-22.68,1,1,0,0,1,.9-.42,1,1,0,0,1,.82.56l11.78,24.23a1,1,0,0,1,0,.93l-7.71,13.88c8.71-.62,40.06-2.65,44-.09,3.33,2.16,11.47,11.11,11.38,16.59a3.76,3.76,0,0,1-1.84,3.34A6.64,6.64,0,0,1,208.16,246Zm-9.22-6.39a1,1,0,0,1,.68.26c.06.07,6.65,6.09,11,3.48a1.76,1.76,0,0,0,.87-1.66c.07-4.22-7.07-12.68-10.47-14.88-2.82-1.83-28.85-.64-44.59.54a1,1,0,0,1-.92-.46,1,1,0,0,1,0-1l8.35-15L153,188.6c-8.73,12.66-26.76,42.54-19.27,49.53,2.74,2.56,11.2,5.35,36,4.15,15-.73,28.93-2.63,29.07-2.65Z" fill="#093f68"/><path d="M165,211.86a1,1,0,0,1-.49-.13,1,1,0,0,1-.37-1.36l6.78-11.92a1,1,0,1,1,1.73,1l-6.78,11.92A1,1,0,0,1,165,211.86Z" fill="#093f68"/><path d="M175,216.83h-.7a1,1,0,0,1-1-1,1,1,0,0,1,1-1c11.58.35,30.36-8.61,30.55-8.7a1,1,0,0,1,.86,1.8C205,208.29,187.08,216.83,175,216.83Z" fill="#093f68"/></g></svg>