<svg xmlns="http://www.w3.org/2000/svg" viewBox="0 0 400 300"><g id="_212_diversity_outline" data-name="#212_diversity_outline"><path d="M309.67,186.5v24.58a65.68,65.68,0,0,1-23.07,6.12c-1.69.14-3.41.21-5.14.21-1.48,0-2.95,0-4.42-.16a66.18,66.18,0,0,1-23.57-6.06V186.5a19,19,0,0,1,19-19h18.15A19,19,0,0,1,309.67,186.5Z" fill="#68e1fd"/><path d="M281.46,218.41c-1.54,0-3-.06-4.49-.16a67.39,67.39,0,0,1-11.49-1.77A66.1,66.1,0,0,1,253,212.09a1,1,0,0,1-.57-.9V186.5a20,20,0,0,1,20-20h18.15a20,20,0,0,1,20,20v24.58a1,1,0,0,1-.57.91,66.54,66.54,0,0,1-12.43,4.43,64.35,64.35,0,0,1-11,1.77C285,218.33,283.25,218.41,281.46,218.41Zm-27-7.86a63.89,63.89,0,0,0,11.48,4,65.53,65.53,0,0,0,11.16,1.73,65.94,65.94,0,0,0,20.08-1.78,64.8,64.8,0,0,0,11.48-4V186.5a18,18,0,0,0-18-18H272.5a18.05,18.05,0,0,0-18,18Zm55.2.53h0Z" fill="#093f68"/><path d="M286.6,169.35V217.2c-1.69.14-3.41.21-5.14.21-1.48,0-2.95,0-4.42-.16v-47.9Z" fill="#70cc40"/><path d="M281.46,218.41c-1.54,0-3-.06-4.49-.16a1,1,0,0,1-.93-1v-47.9a1,1,0,0,1,1-1h9.56a1,1,0,0,1,1,1V217.2a1,1,0,0,1-.92,1C285,218.33,283.25,218.41,281.46,218.41ZM278,216.32a63.58,63.58,0,0,0,7.56,0V170.35H278Z" fill="#093f68"/><path d="M279.18,90a22.38,22.38,0,0,1,3.56-.28c5.49,0,11.1-.14,16.11,2.31a30.48,30.48,0,0,1,17,27.16s-1.15,22.51-1.15,22.51H248.81c-.38-1.32.22-2.88.27-4.2a17.48,17.48,0,0,0-.65-4.35A61.61,61.61,0,0,1,247.11,122a43.5,43.5,0,0,1,3.61-17.16c1.34-3.25,2.91-6.63,5.79-8.66s7.43-2.09,9.48.77A22.93,22.93,0,0,1,279.18,90Z" fill="#725858"/><path d="M314.66,142.73H249.55c-.84,0-1.64,0-1.73-.84a7.44,7.44,0,0,1,.09-3.09,9.82,9.82,0,0,0,.17-1.31,11.91,11.91,0,0,0-.42-3.14l-.21-1A62.06,62.06,0,0,1,246.11,122a44.2,44.2,0,0,1,3.69-17.56c1.33-3.24,3-6.89,6.13-9.09,2.88-2,7.45-2.35,10.09.11A23.94,23.94,0,0,1,279,89h0a27.54,27.54,0,0,1,3.72-.29h1c5.24,0,10.65,0,15.57,2.42a31.4,31.4,0,0,1,17.52,28.05s0,0-1.15,22.56A1,1,0,0,1,314.66,142.73Zm-65-2h64c.22-4.25,1.1-21.38,1.11-21.56A29.41,29.41,0,0,0,298.41,93c-4.51-2.2-9.68-2.2-14.69-2.21h-1a20.77,20.77,0,0,0-3.4.27,21.79,21.79,0,0,0-12.61,6.63,1,1,0,0,1-1.54-.1c-1.7-2.38-5.68-2.24-8.09-.53-2.68,1.89-4.16,5.1-5.44,8.22A42.26,42.26,0,0,0,248.11,122a59.69,59.69,0,0,0,1.3,11c.06.31.13.62.2.93a13.6,13.6,0,0,1,.47,3.66,12,12,0,0,1-.2,1.57A9.4,9.4,0,0,0,249.69,140.73Z" fill="#093f68"/><path d="M277,163.85h9.56a0,0,0,0,1,0,0v5.5a4.06,4.06,0,0,1-4.06,4.06H281.1a4.06,4.06,0,0,1-4.06-4.06v-5.5A0,0,0,0,1,277,163.85Z" fill="#ffc9b0"/><path d="M282.54,174.41H281.1a5.07,5.07,0,0,1-5.06-5.06v-5.5a1,1,0,0,1,1-1h9.56a1,1,0,0,1,1,1v5.5A5.07,5.07,0,0,1,282.54,174.41Zm-4.5-9.56v4.5a3.06,3.06,0,0,0,3.06,3.06h1.44a3.06,3.06,0,0,0,3.06-3.06v-4.5Z" fill="#093f68"/><ellipse cx="256.08" cy="139.01" rx="8.75" ry="8" fill="#ffc9b0"/><path d="M256.08,148c-5.37,0-9.75-4-9.75-9s4.38-9,9.75-9,9.75,4,9.75,9S261.45,148,256.08,148Zm0-16c-4.27,0-7.75,3.14-7.75,7s3.48,7,7.75,7,7.75-3.14,7.75-7S260.35,132,256.08,132Z" fill="#093f68"/><ellipse cx="307.07" cy="139.01" rx="8.75" ry="8" fill="#ffc9b0"/><path d="M307.07,148c-5.38,0-9.75-4-9.75-9s4.37-9,9.75-9,9.74,4,9.74,9S312.44,148,307.07,148Zm0-16c-4.27,0-7.75,3.14-7.75,7s3.48,7,7.75,7,7.74-3.14,7.74-7S311.34,132,307.07,132Z" fill="#093f68"/><path d="M281.82,165.1h0a28,28,0,0,1-28-28V122s7.05-4,9.14-10.37c0,0,10.77,12.24,21.15,11.42a243.15,243.15,0,0,0,25.74-3.59v17.62A28,28,0,0,1,281.82,165.1Z" fill="#ffc9b0"/><path d="M281.82,166.1a29,29,0,0,1-29-29V122a1,1,0,0,1,.5-.87c.07,0,6.75-3.92,8.69-9.81a1,1,0,0,1,.75-.67,1,1,0,0,1,.95.32c.11.12,10.58,11.87,20.32,11.08a245.94,245.94,0,0,0,25.62-3.57,1,1,0,0,1,.83.2,1,1,0,0,1,.37.78v17.62A29,29,0,0,1,281.82,166.1Zm-27-43.53v14.52a27,27,0,0,0,54,0V120.68a245.54,245.54,0,0,1-24.66,3.37c-8.9.71-17.82-7.45-20.88-10.58C261,118.33,256.36,121.58,254.81,122.57Z" fill="#093f68"/><path d="M284.31,148a40.39,40.39,0,0,1-5.15-.35,1,1,0,0,1,.28-2,31.38,31.38,0,0,0,8.69,0h0c.22-1.21-3.19-6.36-7.42-11.18a1,1,0,0,1,.09-1.41,1,1,0,0,1,1.41.09c2.66,3,8.75,10.38,7.8,13.2a1.89,1.89,0,0,1-1.48,1.26A21.8,21.8,0,0,1,284.31,148Z" fill="#093f68"/><path d="M265.72,216.51a1,1,0,0,1-1-1V188.09a1,1,0,0,1,2,0v27.42A1,1,0,0,1,265.72,216.51Z" fill="#093f68"/><path d="M297.43,216.45a1,1,0,0,1-1-1V188.09a1,1,0,1,1,2,0v27.36A1,1,0,0,1,297.43,216.45Z" fill="#093f68"/><path d="M235.06,182.25v28.12a73.47,73.47,0,0,1-31.38,7,73.29,73.29,0,0,1-18.08-2.26,72.56,72.56,0,0,1-13.78-5V182.25a21.38,21.38,0,0,1,21.39-21.4h20.44a21.4,21.4,0,0,1,21.41,21.4Z" fill="#68e1fd"/><path d="M203.68,218.41a73.66,73.66,0,0,1-18.33-2.3,72.84,72.84,0,0,1-14-5.07,1,1,0,0,1-.57-.9V182.25a22.42,22.42,0,0,1,22.4-22.4h20.44a22.39,22.39,0,0,1,22.41,22.4v28.12a1,1,0,0,1-.57.9,74.05,74.05,0,0,1-31.81,7.14Zm-30.87-8.9a72.15,72.15,0,0,0,13,4.67,72.91,72.91,0,0,0,35.2.12,71.36,71.36,0,0,0,13-4.57V182.25a20.39,20.39,0,0,0-20.41-20.4H193.21a20.4,20.4,0,0,0-20.4,20.4Zm62.25.86h0Z" fill="#093f68"/><path d="M185.6,216.16a1,1,0,0,1-1-1V187.72a1,1,0,0,1,2,0v27.44A1,1,0,0,1,185.6,216.16Z" fill="#093f68"/><path d="M221.28,216.27a1,1,0,0,1-1-1V187.72a1,1,0,0,1,2,0v27.55A1,1,0,0,1,221.28,216.27Z" fill="#093f68"/><path d="M204.4,134.86a16.5,16.5,0,0,1-2.75-.23,1,1,0,1,1,.35-2,13.32,13.32,0,0,0,4,.06c.08-.9-1-3.77-2.35-6.44a1,1,0,0,1,1.78-.93c1,1.9,3.19,6.5,2.37,8.33a1.62,1.62,0,0,1-1.1.93A9.82,9.82,0,0,1,204.4,134.86Z" fill="#093f68"/><path d="M174.73,171.46a21.26,21.26,0,0,0-2.36,6s18.47,7.71,32,7.71,30.1-7.71,30.1-7.71a21,21,0,0,0-2.56-6.29,21.42,21.42,0,0,0-5.61-6.12c4.94-6.16,7.08-15.64,7.08-28.82,0-26-8.32-46.44-30.12-46.44s-30.11,20.41-30.11,46.44c0,13.27,2.17,22.79,7.18,28.94A21.59,21.59,0,0,0,174.73,171.46Z" fill="#ffbc0e"/><path d="M204.41,186.14c-13.61,0-31.66-7.47-32.42-7.79a1,1,0,0,1-.59-1.14,21.93,21.93,0,0,1,2.47-6.25,22.37,22.37,0,0,1,5.1-6c-4.62-6.2-6.78-15.39-6.78-28.77,0-30.59,11.05-47.44,31.11-47.44s31.12,16.85,31.12,47.44c0,13.29-2.13,22.44-6.68,28.64a22.18,22.18,0,0,1,7.74,12.37,1,1,0,0,1-.55,1.13C234.25,178.66,218,186.14,204.41,186.14Zm-30.85-9.31c3.67,1.45,19.22,7.31,30.85,7.31s25.56-5.81,28.93-7.28a20.54,20.54,0,0,0-2.24-5.2,20.23,20.23,0,0,0-5.35-5.83,1,1,0,0,1-.4-.68,1,1,0,0,1,.21-.75c4.68-5.84,6.86-14.8,6.86-28.2,0-17-3.79-45.44-29.12-45.44s-29.11,28.47-29.11,45.44c0,13.49,2.21,22.49,7,28.31a1,1,0,0,1,.21.76,1,1,0,0,1-.39.67,20.54,20.54,0,0,0-5.38,6h0A20.22,20.22,0,0,0,173.56,176.83Zm1.17-5.37h0Z" fill="#093f68"/><path d="M204.55,163.22h-2.49A22.08,22.08,0,0,1,180,141.14V130.3a25.1,25.1,0,0,1,15.31-23.11l1.28-.54a19.13,19.13,0,0,1,15.56.27h0a25.12,25.12,0,0,1,14.5,22.76v11.46A22.08,22.08,0,0,1,204.55,163.22Z" fill="#ffe8e1"/><path d="M204.55,164.22h-2.49A23.1,23.1,0,0,1,179,141.14V130.3a26.06,26.06,0,0,1,15.92-24l1.28-.54a20.16,20.16,0,0,1,16.37.28,26.21,26.21,0,0,1,15.08,23.67v11.46A23.11,23.11,0,0,1,204.55,164.22ZM204,106.13a18.11,18.11,0,0,0-7.08,1.44l-1.28.54A24.05,24.05,0,0,0,181,130.3v10.84a21.1,21.1,0,0,0,21.08,21.08h2.49a21.1,21.1,0,0,0,21.08-21.08V129.68a24.18,24.18,0,0,0-13.93-21.85A18.11,18.11,0,0,0,204,106.13Z" fill="#093f68"/><path d="M203.44,172.86a1,1,0,0,1-.07-2c10.18-.7,22.4-6.68,22.53-6.75a1,1,0,0,1,.88,1.8c-.51.25-12.7,6.22-23.27,6.94Z" fill="#093f68"/><path d="M193,171.68h-.08c-6.47-.55-12.88-5.53-13.15-5.74a1,1,0,1,1,1.24-1.57c.06,0,6.21,4.82,12.08,5.32a1,1,0,0,1-.09,2Z" fill="#093f68"/><path d="M207,180.25a1,1,0,0,1-.41-1.92c7.83-3.52,15.33-7.32,15.4-7.36a1,1,0,1,1,.91,1.79c-.08,0-7.62,3.86-15.49,7.4A1,1,0,0,1,207,180.25Z" fill="#093f68"/><path d="M204.76,143.05a16.84,16.84,0,0,1-3.13-.33,1,1,0,0,1-.79-1.18,1,1,0,0,1,1.18-.78,10.84,10.84,0,0,0,4.26.11c0-1.36-1.9-6.43-3.88-10.6a1,1,0,0,1,1.81-.85c5.61,11.84,4,12.73,3.26,13.11A5.94,5.94,0,0,1,204.76,143.05Z" fill="#093f68"/><path d="M204.41,218.41a1,1,0,0,1-1-1V185.14a1,1,0,0,1,2,0v32.27A1,1,0,0,1,204.41,218.41Z" fill="#093f68"/><circle cx="209.5" cy="193.79" r="1.34" fill="#093f68"/><circle cx="209.5" cy="203.25" r="1.34" fill="#093f68"/><path d="M152.52,185.34v25.59A65.38,65.38,0,0,1,140,215.4a67.22,67.22,0,0,1-16.34,2,66.41,66.41,0,0,1-15-1.7c-.38-.07-.74-.16-1.1-.24A66.75,66.75,0,0,1,95,211v-25.7a19.46,19.46,0,0,1,19.46-19.45h18.58a19.44,19.44,0,0,1,4.07.42l.05,0A19.45,19.45,0,0,1,152.52,185.34Z" fill="#68e1fd"/><path d="M123.66,218.41a68,68,0,0,1-15.24-1.72c-.36-.07-.73-.16-1.1-.25a67.34,67.34,0,0,1-12.73-4.5A1,1,0,0,1,94,211v-25.7a20.48,20.48,0,0,1,20.46-20.45h18.58a20,20,0,0,1,4.28.45h0l.1,0a20.53,20.53,0,0,1,16.08,20v25.59a1,1,0,0,1-.57.9,66.59,66.59,0,0,1-12.71,4.54A68.25,68.25,0,0,1,123.66,218.41ZM96,210.4a66.17,66.17,0,0,0,11.77,4.1l1.06.23a66.54,66.54,0,0,0,30.9-.3,65.72,65.72,0,0,0,11.77-4.13v-25a18.53,18.53,0,0,0-14.55-18l-.11,0a18.14,18.14,0,0,0-3.8-.39H114.48A18.48,18.48,0,0,0,96,185.34Zm56.5.53h0Z" fill="#093f68"/><path d="M121.8,83.54a9.17,9.17,0,0,1,4.41,4.71,7.52,7.52,0,0,1,6.4-3.14,8.7,8.7,0,0,1,4.19,1.21c1.2.74,1.88,2.28,3.07,2.92s2.33.19,3.73.16a19,19,0,0,1,5.82.95c1.85.55,3.79,1.24,5,2.77,1.36,1.74,1.27,4,1,6,6.45-2.24,8.32,7.67,5.14,11.42,3.8,4.08,2.81,11.56-1.92,14.51,1.79,1.42,1.17,4.23.38,6.38-1.5,4-1.78,7.72-6.37,8.08-2.42.19-4.94,0-7.37,0h-55c1,0-2.66-5.61-2.77-5.84a10.47,10.47,0,0,1-.12-8.13c-4.29-3.19-4.24-10.66.1-13.79a11.09,11.09,0,0,1,5.72-14.6c-.53-3.62,2.26-7.09,5.64-8.48,3.61-1.49,7.21-.85,11-.73.9-3.39,5.12-5.51,8.44-5.37A8.73,8.73,0,0,1,121.8,83.54Z" fill="#725858"/><path d="M150.16,140.62c-.84,0-1.68,0-2.5,0s-1.62,0-2.42,0h-55a1,1,0,0,1-.91-1.43A29.48,29.48,0,0,0,87,134.75c-.22-.36-.36-.61-.38-.66a11.54,11.54,0,0,1-.4-8.21,10.08,10.08,0,0,1,.07-14.4,12.19,12.19,0,0,1,5.88-14.93c-.16-4,3-7.39,6.32-8.78,3.11-1.28,6.2-1.09,9.19-.91l1.44.08c1.41-3.39,5.72-5.49,9.19-5.34a9.9,9.9,0,0,1,4,1.05,10.35,10.35,0,0,1,4.17,3.8,8.67,8.67,0,0,1,6.22-2.34,9.6,9.6,0,0,1,4.68,1.36,7.43,7.43,0,0,1,1.74,1.65,5.28,5.28,0,0,0,1.28,1.24,2.94,2.94,0,0,0,2,.16,11,11,0,0,1,1.27-.12,19.57,19.57,0,0,1,6.13,1c1.92.57,4.1,1.34,5.47,3.12a7.57,7.57,0,0,1,1.34,5.36,5.11,5.11,0,0,1,5,2.36,10.25,10.25,0,0,1,.29,10.29,11.05,11.05,0,0,1-1.7,14.72c.94,1.48.89,3.68-.18,6.56-.24.67-.46,1.34-.66,2-1.07,3.3-2.08,6.42-6.56,6.77C151.85,140.6,151,140.62,150.16,140.62Zm-58.49-2.08h53.57c.81,0,1.64,0,2.47,0a45.52,45.52,0,0,0,4.82,0c3-.23,3.72-2,4.81-5.38.22-.67.44-1.35.7-2,1-2.67,1-4.44-.06-5.25a1,1,0,0,1,.09-1.63,8.93,8.93,0,0,0,1.72-13,1,1,0,0,1,0-1.32c1.66-2,1.71-6.22.09-8.57a3.25,3.25,0,0,0-4.14-1.26A1,1,0,0,1,154.39,99c.26-1.89.34-3.83-.79-5.29s-2.84-1.94-4.47-2.43a17.69,17.69,0,0,0-5.51-.9c-.38,0-.72.06-1.06.1a4.77,4.77,0,0,1-3.16-.38,6.54,6.54,0,0,1-1.87-1.71,5.65,5.65,0,0,0-1.26-1.24,7.52,7.52,0,0,0-3.68-1.06,6.56,6.56,0,0,0-5.55,2.7,1,1,0,0,1-.94.44,1,1,0,0,1-.82-.63,8.25,8.25,0,0,0-3.93-4.19h0a7.78,7.78,0,0,0-3.16-.83c-2.9-.12-6.67,1.75-7.43,4.63a1,1,0,0,1-1,.74c-.75,0-1.5-.07-2.24-.11-2.89-.18-5.62-.35-8.31.76s-5.51,4.15-5,7.42a1,1,0,0,1-.63,1.08,10.08,10.08,0,0,0-5.18,13.22,1,1,0,0,1-.32,1.25A8,8,0,0,0,88,124.77a1,1,0,0,1,.32,1.19,9.45,9.45,0,0,0,.12,7.34l.26.41a29.51,29.51,0,0,1,2.6,4.83Zm-1.41,0Z" fill="#093f68"/><path d="M119.14,162.17h9.78a0,0,0,0,1,0,0v5.63a4.15,4.15,0,0,1-4.15,4.15h-1.48a4.15,4.15,0,0,1-4.15-4.15v-5.63a0,0,0,0,1,0,0Z" fill="#e28362"/><path d="M124.76,173h-1.47a5.16,5.16,0,0,1-5.15-5.15v-5.63a1,1,0,0,1,1-1h9.78a1,1,0,0,1,1,1v5.63A5.16,5.16,0,0,1,124.76,173Zm-4.62-9.78v4.63a3.15,3.15,0,0,0,3.15,3.15h1.47a3.16,3.16,0,0,0,3.16-3.15v-4.63Z" fill="#093f68"/><ellipse cx="97.69" cy="136.76" rx="8.95" ry="8.19" fill="#e28362"/><path d="M97.69,146c-5.49,0-10-4.12-10-9.19s4.46-9.19,10-9.19,10,4.12,10,9.19S103.18,146,97.69,146Zm0-16.38c-4.38,0-8,3.22-8,7.19s3.57,7.19,8,7.19,8-3.23,8-7.19S102.07,129.57,97.69,129.57Z" fill="#093f68"/><ellipse cx="149.86" cy="136.76" rx="8.95" ry="8.19" fill="#e28362"/><path d="M149.86,146c-5.49,0-10-4.12-10-9.19s4.46-9.19,10-9.19,9.95,4.12,9.95,9.19S155.34,146,149.86,146Zm0-16.38c-4.38,0-8,3.22-8,7.19s3.57,7.19,8,7.19,7.95-3.23,7.95-7.19S154.24,129.57,149.86,129.57Z" fill="#093f68"/><path d="M124,163.45A28.68,28.68,0,0,1,96.1,141.27c-1.23-5.31-.71-10-.21-15.4a7.71,7.71,0,0,1,.68-2.94c-.3.55,6-.82,6.64-1.19A8.63,8.63,0,0,0,107.6,115c1.73,1.69,4.65,1.61,6.75.41a13.91,13.91,0,0,0,4.76-5.37,8.09,8.09,0,0,0,6,5.51,8.41,8.41,0,0,0,7.67-2.63c-.12,3.17,2.16,5.43,5.41,5.72a7,7,0,0,0,6.29-3,6.93,6.93,0,0,0,8.54,6.39,62.09,62.09,0,0,1,.35,6.93c-.16,2-.71,3.88-.71,5.88A28.66,28.66,0,0,1,124,163.45Z" fill="#e28362"/><path d="M124,164.45a29.69,29.69,0,0,1-28.91-23c-1.21-5.23-.78-9.77-.29-15l.07-.7a8.25,8.25,0,0,1,.79-3.32,1,1,0,0,1,1.36-.4h0a34.61,34.61,0,0,0,5.67-1.2,7.62,7.62,0,0,0,3.87-6,1,1,0,0,1,1.69-.66c1.45,1.41,3.95,1.19,5.56.27a13.18,13.18,0,0,0,4.4-5,1,1,0,0,1,1-.49,1,1,0,0,1,.84.71,7.09,7.09,0,0,0,5.27,4.81,7.39,7.39,0,0,0,6.75-2.35,1,1,0,0,1,1.11-.22,1,1,0,0,1,.61,1c-.1,2.55,1.71,4.43,4.5,4.68a6,6,0,0,0,5.37-2.56,1,1,0,0,1,1.09-.4,1,1,0,0,1,.74.91,5.93,5.93,0,0,0,7.31,5.47,1,1,0,0,1,.83.18,1,1,0,0,1,.4.76c0,.8.1,1.61.19,2.47a26.73,26.73,0,0,1,.16,4.57c-.07.85-.21,1.69-.34,2.5a20,20,0,0,0-.37,3.3A29.7,29.7,0,0,1,124,164.45Zm-26.84-40.4a9.77,9.77,0,0,0-.3,1.91l-.07.7c-.47,5.08-.88,9.46.25,14.38a27.67,27.67,0,0,0,54.62-6.25,22.41,22.41,0,0,1,.39-3.63c.14-.8.26-1.56.32-2.33a24.23,24.23,0,0,0-.16-4.22c0-.49-.09-1-.12-1.47a7.92,7.92,0,0,1-8.21-5.4,8,8,0,0,1-5.78,1.85,6.61,6.61,0,0,1-6.1-4.74,9,9,0,0,1-7.09,1.63,9.18,9.18,0,0,1-6-4.35,12.68,12.68,0,0,1-4.11,4.1,7.29,7.29,0,0,1-6.52.43,9.82,9.82,0,0,1-4.62,5.94,22.22,22.22,0,0,1-3.71,1A24.18,24.18,0,0,1,97.19,124.05Z" fill="#093f68"/><path d="M123.89,140.54a17,17,0,0,1-2.62-.22,1,1,0,1,1,.35-2,12.22,12.22,0,0,0,3.75.07c0-.88-.94-3.57-2.23-6a1,1,0,0,1,1.77-.93c.94,1.81,3,6.19,2.26,8a1.61,1.61,0,0,1-1.08.91A9.5,9.5,0,0,1,123.89,140.54Z" fill="#093f68"/><path d="M142.13,193.11v21.73a85.94,85.94,0,0,1-18.47,2.57,86.17,86.17,0,0,1-17-2.17v-22.8s4.24-.79,5.31-26.55h3.75s.58,11.55,9.06,24.44c0,0,7.55-12.57,8.3-24.44l4.07.42h.05C137.08,166.82,135.81,183.25,142.13,193.11Z" fill="#f56132"/><path d="M123.66,218.41a87.49,87.49,0,0,1-17.25-2.2,1,1,0,0,1-.77-1v-22.8a1,1,0,0,1,.67-.95c.26-.18,3.7-3,4.64-25.65a1,1,0,0,1,1-1h3.75a1,1,0,0,1,1,1c0,.1.63,10.62,8,22.55,1.94-3.59,6.77-13.37,7.36-22.57a1,1,0,0,1,.35-.7,1.07,1.07,0,0,1,.75-.23l4.06.43.12,0a1,1,0,0,1,.83,1,1.64,1.64,0,0,1,0,.22c0,.12-1.37,16.39,4.81,26a1,1,0,0,1,.16.54v21.73a1,1,0,0,1-.76,1A87.58,87.58,0,0,1,123.66,218.41Zm-16-4a84.77,84.77,0,0,0,16,2,84.49,84.49,0,0,0,17.47-2.36V193.39c-5.35-8.6-5.31-22.15-5-26.18L134,167c-1.09,11.65-8.06,23.35-8.36,23.86a1,1,0,0,1-1.69,0,56.34,56.34,0,0,1-9.15-24h-1.87c-.9,19.63-3.68,24.79-5.27,26.11Zm-1.19-23Zm0,0h0Z" fill="#093f68"/><path d="M124.76,218.41a1,1,0,0,1-1-1V190.33a1,1,0,0,1,2,0v27.08A1,1,0,0,1,124.76,218.41Z" fill="#093f68"/></g></svg>