<svg xmlns="http://www.w3.org/2000/svg" viewBox="0 0 400 300"><g id="_61_doctor_outline" data-name="#61_doctor_outline"><rect x="121.29" y="151.85" width="46.35" height="9.63" fill="#fff"/><path d="M167.63,162.48H121.29a1,1,0,0,1-1-1v-9.63a1,1,0,0,1,1-1h46.34a1,1,0,0,1,1,1v9.63A1,1,0,0,1,167.63,162.48Zm-45.34-2h44.34v-7.63H122.29Z" fill="#dfeaef"/><rect x="115.06" y="161.48" width="58.79" height="74.29" fill="#fff"/><path d="M173.85,236.77H115.06a1,1,0,0,1-1-1V161.48a1,1,0,0,1,1-1h58.79a1,1,0,0,1,1,1v74.29A1,1,0,0,1,173.85,236.77Zm-57.79-2h56.79V162.48H116.06Z" fill="#dfeaef"/><rect x="142.46" y="168.87" width="4" height="9.65" fill="#dfeaef"/><rect x="139.63" y="171.69" width="9.65" height="4" fill="#dfeaef"/><rect x="123.84" y="184.26" width="4.98" height="7.55" fill="#dfeaef"/><rect x="132.9" y="184.26" width="4.98" height="7.55" fill="#dfeaef"/><rect x="141.97" y="184.26" width="4.98" height="7.55" fill="#dfeaef"/><rect x="151.04" y="184.26" width="4.98" height="7.55" fill="#dfeaef"/><rect x="160.1" y="184.26" width="4.98" height="7.55" fill="#dfeaef"/><rect x="123.84" y="197.55" width="4.98" height="7.55" fill="#dfeaef"/><rect x="132.9" y="197.55" width="4.98" height="7.55" fill="#dfeaef"/><rect x="141.97" y="197.55" width="4.98" height="7.55" fill="#dfeaef"/><rect x="151.04" y="197.55" width="4.98" height="7.55" fill="#dfeaef"/><rect x="160.1" y="197.55" width="4.98" height="7.55" fill="#dfeaef"/><rect x="123.84" y="210.83" width="4.98" height="7.55" fill="#dfeaef"/><rect x="132.9" y="210.83" width="4.98" height="7.55" fill="#dfeaef"/><rect x="141.97" y="210.83" width="4.98" height="7.55" fill="#dfeaef"/><rect x="151.04" y="210.83" width="4.98" height="7.55" fill="#dfeaef"/><rect x="160.1" y="210.83" width="4.98" height="7.55" fill="#dfeaef"/><rect x="139.82" y="226.87" width="9.28" height="8.9" fill="#dfeaef"/><path d="M200.45,164.61s-19.91-51.2-7.54-86.74c4.2-12.1,14-17.75,22.75-13.51,0,0,20.54-14.38,38.08,2.38,22.45,21.45,9.88,91.23,9.88,91.23Z" fill="#725858"/><path d="M200.45,165.61a1,1,0,0,1-.93-.64c-.2-.51-19.9-51.95-7.56-87.43,2.43-7,6.85-12.24,12.14-14.44a14.29,14.29,0,0,1,11.48.12c3.29-2.06,22.44-12.88,38.85,2.8,9.52,9.1,14.12,27.4,13.67,54.4a266.5,266.5,0,0,1-3.49,37.73,1,1,0,0,1-.88.82l-63.18,6.63ZM209.7,64a12.5,12.5,0,0,0-4.83,1c-4.76,2-8.78,6.8-11,13.24-11.32,32.53,5,79,7.26,85.34l61.66-6.47c1.24-7.52,10.86-69.93-9.72-89.59-16.76-16-36.62-2.43-36.82-2.29a1,1,0,0,1-1,.08A12.62,12.62,0,0,0,209.7,64Z" fill="#093f68"/><path d="M278.54,179.52l-24.81-35.83c-.7-.93-5.54-7.21-24.77-7.21s-26,6-27,7.21l-24.81,35.83a9.41,9.41,0,0,0,15,11.35l8.16-11.79-7.44,56.69H256.7l-3.59-60,10.43,15.07a9.41,9.41,0,0,0,15-11.35Z" fill="#68e1fd"/><path d="M256.7,236.77H192.91a1,1,0,0,1-1-1.13l6.91-52.59L193,191.44a10.4,10.4,0,1,1-16.61-12.53l24.78-35.79c.08-.11,6-7.64,27.78-7.64,17.88,0,23.84,5.32,25.57,7.61l24.82,35.84a10.4,10.4,0,0,1-16.6,12.54l-8.43-12.16,3.38,56.4a1,1,0,0,1-.27.74A1,1,0,0,1,256.7,236.77Zm-62.65-2h61.59l-3.53-58.91a1,1,0,0,1,1.82-.63l10.43,15.07a8.41,8.41,0,0,0,13.38-10.18l0,0-24.81-35.83c-1.18-1.57-6.49-6.78-23.95-6.78-20.43,0-26.11,6.74-26.16,6.81L178,180.09a8.41,8.41,0,1,0,13.38,10.18l8.13-11.76a1,1,0,0,1,1.81.7Z" fill="#093f68"/><path d="M201.28,224.49a1,1,0,0,1-.43-1.9l12.61-6a1,1,0,0,1,.86,1.81l-12.62,6A1,1,0,0,1,201.28,224.49Z" fill="#093f68"/><path d="M252,224.49a1.06,1.06,0,0,1-.42-.09l-12.61-6a1,1,0,0,1-.48-1.33,1,1,0,0,1,1.33-.48l12.61,6a1,1,0,0,1-.43,1.9Z" fill="#093f68"/><rect x="220.08" y="137.73" width="17.11" height="98.04" fill="#ffbc0e"/><path d="M237.19,236.77H220.08a1,1,0,0,1-1-1v-98a1,1,0,0,1,1-1h17.11a1,1,0,0,1,1,1v98A1,1,0,0,1,237.19,236.77Zm-16.11-2h15.11v-96H221.08Z" fill="#093f68"/><path d="M224.37,132.45h9.18a0,0,0,0,1,0,0v5.28a3.9,3.9,0,0,1-3.9,3.9h-1.38a3.9,3.9,0,0,1-3.9-3.9v-5.28a0,0,0,0,1,0,0Z" fill="#ffc9b0"/><path d="M229.65,142.63h-1.38a4.91,4.91,0,0,1-4.9-4.9v-5.28a1,1,0,0,1,1-1h9.18a1,1,0,0,1,1,1v5.28A4.91,4.91,0,0,1,229.65,142.63Zm-4.28-9.18v4.28a2.9,2.9,0,0,0,2.9,2.9h1.38a2.9,2.9,0,0,0,2.9-2.9v-4.28Z" fill="#093f68"/><ellipse cx="202.73" cy="108.62" rx="8.92" ry="7.68" fill="#ffc9b0"/><path d="M202.73,117.3c-5.46,0-9.91-3.9-9.91-8.68s4.45-8.69,9.91-8.69,9.92,3.9,9.92,8.69S208.2,117.3,202.73,117.3Zm0-15.37c-4.36,0-7.91,3-7.91,6.69s3.55,6.68,7.91,6.68,7.92-3,7.92-6.68S207.1,101.93,202.73,101.93Z" fill="#093f68"/><ellipse cx="254.71" cy="108.62" rx="8.92" ry="7.68" fill="#ffc9b0"/><path d="M254.71,117.3c-5.47,0-9.92-3.9-9.92-8.68s4.45-8.69,9.92-8.69,9.91,3.9,9.91,8.69S260.18,117.3,254.71,117.3Zm0-15.37c-4.37,0-7.92,3-7.92,6.69s3.55,6.68,7.92,6.68,7.91-3,7.91-6.68S259.07,101.93,254.71,101.93Z" fill="#093f68"/><path d="M251.8,85.32c-1.45-3.88-3.73-9.95-4-10.32s0,7,0,10.32H240.6l-7-14.23-3.84,14.23H218.86c-.68-4.53-2.35-12.27-2.35-12.27l-4,12.27h-9.35a67.3,67.3,0,0,0-1.05,12.62v8.83A26.89,26.89,0,0,0,229,133.66h0a26.89,26.89,0,0,0,26.89-26.89V85.32Z" fill="#ffc9b0"/><path d="M229,134.66a27.92,27.92,0,0,1-27.89-27.89V97.94a68.52,68.52,0,0,1,1.07-12.81,1,1,0,0,1,1-.81h8.63l3.81-11.58a1,1,0,0,1,1-.69,1,1,0,0,1,.93.79c0,.07,1.49,6.91,2.23,11.48h9.22l3.64-13.49a1,1,0,0,1,1.86-.18l6.78,13.67h5.63c0-.77,0-1.65-.06-2.55-.17-7.46-.17-7.46.71-7.74a1,1,0,0,1,1.16.42c.12.18.34.5,3.83,9.87h3.36a1,1,0,0,1,1,1v21.45A27.92,27.92,0,0,1,229,134.66ZM204,86.32a69.43,69.43,0,0,0-.88,11.62v8.83a25.89,25.89,0,1,0,51.78,0V86.32h-3a1,1,0,0,1-.94-.65c-.89-2.39-1.57-4.21-2.1-5.61,0,.58,0,1.15,0,1.66,0,1.34.06,2.62.08,3.59a1.05,1.05,0,0,1-.29.71,1,1,0,0,1-.71.3H240.6a1,1,0,0,1-.89-.56L233.82,73.9l-3.15,11.68a1,1,0,0,1-1,.74H218.86a1,1,0,0,1-1-.86c-.37-2.47-1.05-5.95-1.58-8.56l-2.87,8.73a1,1,0,0,1-.95.69Z" fill="#093f68"/><circle cx="216.51" cy="102.86" r="2.49" fill="#093f68"/><circle cx="242.19" cy="102.86" r="2.49" fill="#093f68"/><path d="M238.77,115.82a9.81,9.81,0,0,1-19.62,0Z" fill="#fff"/><path d="M229,126.63a10.82,10.82,0,0,1-10.81-10.81,1,1,0,0,1,1-1h19.62a1,1,0,0,1,1,1A10.82,10.82,0,0,1,229,126.63Zm-8.76-9.81a8.81,8.81,0,0,0,17.51,0Z" fill="#093f68"/><path d="M228.83,112.22a16.14,16.14,0,0,1-2.46-.2,1,1,0,0,1,.34-2,12,12,0,0,0,3.44.07,18.15,18.15,0,0,0-2.08-5.59,1,1,0,0,1,.43-1.35,1,1,0,0,1,1.34.42c.89,1.7,2.87,5.84,2.12,7.52a1.58,1.58,0,0,1-1.05.89A9,9,0,0,1,228.83,112.22Z" fill="#093f68"/><path d="M209.73,96.31a2,2,0,0,1,0-4l11.87-.16h0a2,2,0,0,1,0,4l-11.87.16Z" fill="#093f68"/><path d="M249.28,96.09h0L237.4,96a2,2,0,0,1,0-4l11.87.08a2,2,0,0,1,0,4Z" fill="#093f68"/><path d="M221.07,111.93H211a4,4,0,0,1-4-4v-5.9a4,4,0,0,1,4-4h10.11a4,4,0,0,1,4,4V108A4,4,0,0,1,221.07,111.93ZM211,100.09a2,2,0,0,0-2,2V108a2,2,0,0,0,2,2h10.11a2,2,0,0,0,2-2v-5.9a2,2,0,0,0-2-2Z" fill="#093f68"/><path d="M247,111.93h-10.1a4,4,0,0,1-4-4v-5.9a4,4,0,0,1,4-4H247a4,4,0,0,1,4,4V108A4,4,0,0,1,247,111.93Zm-10.1-11.84a2,2,0,0,0-2,2V108a2,2,0,0,0,2,2H247a2,2,0,0,0,2-2v-5.9a2,2,0,0,0-2-2Z" fill="#093f68"/><path d="M208,105.06a1,1,0,0,1-.48-.12l-6.59-3.7a1,1,0,0,1,1-1.75l6.58,3.7a1,1,0,0,1,.39,1.36A1,1,0,0,1,208,105.06Z" fill="#093f68"/><path d="M250.46,105.06a1,1,0,0,1-.88-.51,1,1,0,0,1,.38-1.36l6.59-3.7a1,1,0,0,1,1,1.75l-6.59,3.7A1,1,0,0,1,250.46,105.06Z" fill="#093f68"/><path d="M233.88,105.06a1,1,0,0,1-.57-.17c-4-2.79-8.56-.09-8.75,0a1,1,0,1,1-1-1.71c.23-.14,5.85-3.5,10.93,0a1,1,0,0,1,.25,1.4A1,1,0,0,1,233.88,105.06Z" fill="#093f68"/><rect x="220.08" y="189.41" width="17.11" height="46.36" fill="#093f68"/><path d="M237.19,236.77H220.08a1,1,0,0,1-1-1V189.41a1,1,0,0,1,1-1h17.11a1,1,0,0,1,1,1v46.36A1,1,0,0,1,237.19,236.77Zm-16.11-2h15.11V190.41H221.08Z" fill="#093f68"/><path d="M219,175.39a1,1,0,0,1-.8-.4l-10.28-13.51a1,1,0,0,1,.14-1.36l6.14-5.34L208,148.6a1,1,0,0,1-.29-.71,1,1,0,0,1,.3-.71L218.45,137a1,1,0,0,1,1.4,1.43l-9.71,9.46,6.23,6.21a1,1,0,0,1,.29.74,1,1,0,0,1-.34.72L210.08,161l9.72,12.77a1,1,0,0,1-.2,1.4A1,1,0,0,1,219,175.39Z" fill="#093f68"/><path d="M237.19,176.82a1.06,1.06,0,0,1-.61-.2,1,1,0,0,1-.19-1.41L247.2,161,241,155.58a1,1,0,0,1-.34-.72,1,1,0,0,1,.29-.74l6.23-6.21-9.71-9.46a1,1,0,1,1,1.4-1.43l10.43,10.16a1,1,0,0,1,.3.71,1,1,0,0,1-.29.71l-6.19,6.18,6.14,5.34a1,1,0,0,1,.14,1.36l-11.38,15A1,1,0,0,1,237.19,176.82Z" fill="#093f68"/><circle cx="249.28" cy="168.87" r="4.26" fill="#fff"/><path d="M249.28,174.12a5.26,5.26,0,1,1,5.26-5.25A5.26,5.26,0,0,1,249.28,174.12Zm0-8.51a3.26,3.26,0,1,0,3.26,3.26A3.26,3.26,0,0,0,249.28,165.61Z" fill="#fff"/><path d="M204.1,185.62a3.13,3.13,0,0,1-3.06-2.53l-1.67-8.69a9.76,9.76,0,1,1,19.16-3.7l1.68,8.69a3.13,3.13,0,0,1-2.47,3.65l-3.66.71a1,1,0,1,1-.38-2l3.66-.71a1.12,1.12,0,0,0,.88-1.31l-1.67-8.69a7.75,7.75,0,0,0-9.09-6.15,7.75,7.75,0,0,0-6.15,9.09l1.68,8.69a1.11,1.11,0,0,0,1.3.89l3.6-.7a1,1,0,0,1,1.17.79,1,1,0,0,1-.79,1.18l-3.6.69A3,3,0,0,1,204.1,185.62Z" fill="#fff"/><circle cx="208.1" cy="183.88" r="1.1" fill="#093f68"/><path d="M208.09,186a2.1,2.1,0,0,1-.39-4.16,2.11,2.11,0,0,1,2.46,1.67h0a2.09,2.09,0,0,1-1.66,2.45A1.9,1.9,0,0,1,208.09,186Zm0-2.2h0a.11.11,0,0,0-.08.11.11.11,0,0,0,.12.08.1.1,0,0,0,.08-.11A.12.12,0,0,0,208.1,183.78Z" fill="#093f68"/><circle cx="213.89" cy="182.77" r="1.1" fill="#093f68"/><path d="M213.89,184.87a2.1,2.1,0,0,1-2.06-1.7h0a2.1,2.1,0,0,1,.32-1.58,2.06,2.06,0,0,1,1.34-.88,2,2,0,0,1,1.57.32,2.07,2.07,0,0,1,.89,1.34,2.11,2.11,0,0,1-1.66,2.46A2.85,2.85,0,0,1,213.89,184.87Zm0-2.2h0a.11.11,0,0,0-.08.12h0a.1.1,0,0,0,.12.07.09.09,0,0,0,.07-.11A.1.1,0,0,0,213.88,182.67Z" fill="#093f68"/><path d="M249.28,165.61a1,1,0,0,1-.95-1.3c0-.12,3.72-12.44-1.42-20.66-2.41-3.86-6.43-6.25-11.95-7.12a1,1,0,0,1,.32-2c6.11,1,10.6,3.67,13.33,8,5.63,9,1.79,21.76,1.63,22.3A1,1,0,0,1,249.28,165.61Z" fill="#fff"/><path d="M207.29,165a1,1,0,0,1-1-.75c-.13-.51-3.2-12.62,2.49-21.61,2.87-4.56,7.48-7.47,13.68-8.65a1,1,0,1,1,.37,2c-5.63,1.08-9.79,3.68-12.36,7.75-5.22,8.25-2.27,19.93-2.24,20a1,1,0,0,1-.72,1.22A1.07,1.07,0,0,1,207.29,165Z" fill="#fff"/><circle cx="249.28" cy="168.87" r="2.8" fill="#093f68"/><path d="M191.89,183.91,177,149.85s2-13,.6-14.58-3.53-.48-4.24,4.83c0,0-3.91-12.53-7.11-12.68s-9.25,5.54-9.07,8.39S163,152,163,152l13,38.07a8.52,8.52,0,1,0,15.88-6.2Z" fill="#ffc9b0"/><path d="M184,196.54a9.47,9.47,0,0,1-8.87-6.06L162,152.37c-.56-1.33-5.71-13.57-5.89-16.5-.13-2.11,2.05-4.58,3-5.54,1.84-1.87,4.78-4,7.11-3.91.83,0,3.58.93,6.91,10.08a4.29,4.29,0,0,1,2.45-2.8,2.55,2.55,0,0,1,2.7.92c1.46,1.66.45,10-.32,15.1L192.8,183.5l0,0a9.54,9.54,0,0,1-5.4,12.34A9.63,9.63,0,0,1,184,196.54Zm-17.88-68.12c-1.31,0-3.61,1.37-5.51,3.31-1.75,1.77-2.48,3.29-2.43,4,.12,2,3.51,10.59,5.76,15.91L177,189.79a7.46,7.46,0,0,0,7,4.75,7.57,7.57,0,0,0,2.74-.52,7.52,7.52,0,0,0,4.27-9.73l-14.92-34a.94.94,0,0,1-.08-.55c.9-5.83,1.46-12.76.82-13.79-.22-.24-.43-.34-.6-.29-.46.13-1.44,1.27-1.88,4.61a1,1,0,0,1-2,.17c-1.75-5.62-4.73-11.91-6.2-12Z" fill="#093f68"/><path d="M168.68,148.54a1,1,0,0,1-1-1c0-3.35,4.43-7.68,4.94-8.17a1,1,0,0,1,1.38,1.45c-1.67,1.6-4.32,4.84-4.32,6.72A1,1,0,0,1,168.68,148.54Z" fill="#093f68"/><rect x="208.95" y="198.01" width="30.98" height="39.03" rx="2.38" transform="translate(-80.98 151.09) rotate(-31.83)" fill="#f56132"/><path d="M222.34,242.38a3.44,3.44,0,0,1-.77-.09,3.35,3.35,0,0,1-2.11-1.51l-18.07-29.11a3.39,3.39,0,0,1,1.09-4.66l22.28-13.82a3.38,3.38,0,0,1,4.65,1.08l18.08,29.12A3.37,3.37,0,0,1,246.4,228l-22.28,13.83A3.32,3.32,0,0,1,222.34,242.38Zm4.2-47.7a1.43,1.43,0,0,0-.73.2l-22.27,13.83a1.35,1.35,0,0,0-.62.86,1.43,1.43,0,0,0,.17,1.05l18.07,29.11a1.38,1.38,0,0,0,.86.61,1.34,1.34,0,0,0,1-.17l22.27-13.82h0a1.39,1.39,0,0,0,.45-1.91l-18.08-29.11a1.4,1.4,0,0,0-.86-.62A1.63,1.63,0,0,0,226.54,194.68Z" fill="#093f68"/><rect x="209.44" y="198.73" width="9.47" height="4.53" rx="1.46" transform="translate(-73.8 143.19) rotate(-31.83)" fill="#f56132"/><path d="M211.82,205.86a2.22,2.22,0,0,1-.57-.07,2.47,2.47,0,0,1-1.53-1.09l-.84-1.37a2.45,2.45,0,0,1,.79-3.39l5.56-3.45a2.47,2.47,0,0,1,3.39.79l.85,1.37a2.47,2.47,0,0,1-.8,3.39h0l-5.56,3.45A2.47,2.47,0,0,1,211.82,205.86Zm4.71-7.74a.4.4,0,0,0-.24.07l-5.57,3.45a.48.48,0,0,0-.2.29.44.44,0,0,0,.06.35l.84,1.36a.5.5,0,0,0,.29.21.49.49,0,0,0,.35-.06l5.56-3.45a.48.48,0,0,0,.15-.64l-.85-1.36A.47.47,0,0,0,216.53,198.12Zm1.62,3.07h0Z" fill="#093f68"/><path d="M283.85,184.92a8.53,8.53,0,0,0-11.6-3.27L245,201.94l-12.32-.47,3,4.74s-7.64,2.79-7.37,3.86,3.71,8.08,8.26,8.16c5.25.09,7.78-.26,16-7.43l28-14.28A8.52,8.52,0,0,0,283.85,184.92Z" fill="#ffc9b0"/><path d="M237.46,219.24h-.93c-5.11-.09-8.85-7.43-9.22-8.92-.17-.69-.46-1.82,6.85-4.61l-2.3-3.7a1,1,0,0,1,0-1,1,1,0,0,1,.9-.5l12,.46,26.94-20.08.11-.08a9.54,9.54,0,0,1,13,3.66h0a9.53,9.53,0,0,1-3.66,13l-28,14.24C245.41,218.33,242.55,219.24,237.46,219.24Zm-8.09-9.07c.66,1.65,3.67,7,7.19,7.06,4.94.09,7.27-.16,15.3-7.18a.77.77,0,0,1,.21-.14l28.05-14.28A7.52,7.52,0,0,0,283,185.41h0a7.54,7.54,0,0,0-10.19-2.92l-27.17,20.25a1,1,0,0,1-.63.2l-10.44-.4,1.95,3.14a1,1,0,0,1-.5,1.47A35.58,35.58,0,0,0,229.37,210.17Z" fill="#093f68"/></g></svg>