<svg xmlns="http://www.w3.org/2000/svg" viewBox="0 0 400 300"><g id="_397_dream__outline" data-name="#397_dream__outline"><path d="M133.17,153a23.61,23.61,0,0,1,9.82,5.74c-.82-.82,10.76-5.37,11.71-5.61,4.05-1,6.37-2.75,10-4.7,8.48-4.55,18.92-6.5,28.47-6.42,17.49.15,35.25,6.16,47.71,18.17,1.18,1.14,10.58-6.71,11.58-7.36,8.09-5.16,18.53-7,27.54-3.68,8.39,3.06,17.46,10.93,15.62,20.79,2.52-2,6.26-.67,8.81,1.26,7.48,5.65,11,15.58,10.22,24.68-.51,5.87-2.24,11.86-6.18,16.24-7.36,8.2-21,10.49-31.44,11.45,1,8.13-4.23,16.2-11.51,20.47s-16.22,5.26-24.74,4.66-16.84-2.67-25.25-4.08a4.73,4.73,0,0,0-2.05,0,5,5,0,0,0-2.11,1.52c-7.48,7.57-18.14,12-29,12.84a63.3,63.3,0,0,1-31.61-6.12c-11.33-5.26-22-14.88-22.32-26.95-9.53,1.71-19.86,0-27.71-5.48-10.62-7.38-17.4-22.38-15-34.84a12.58,12.58,0,0,1,9-10.23,22.1,22.1,0,0,1,9.64-.59c-2.13-.29,1.93-10.25,2.64-11.52a22.21,22.21,0,0,1,10.34-9.43A23.2,23.2,0,0,1,133.17,153Z" fill="#fff"/><path d="M177.94,260.06a65.81,65.81,0,0,1-27.59-6.39c-13.57-6.31-22-16.22-22.84-26.69-9.91,1.51-19.82-.59-27.34-5.82C89,213.35,82.32,197.94,84.76,185.3a13.58,13.58,0,0,1,9.67-11,21.83,21.83,0,0,1,8.35-.82c0-3.55,3.32-10.75,3.36-10.83A23.22,23.22,0,0,1,117,152.8a24,24,0,0,1,16.51-.8,24.71,24.71,0,0,1,9.47,5.25c2.91-2.11,11.43-5.11,11.52-5.14a26.82,26.82,0,0,0,7.34-3.25c.77-.43,1.56-.89,2.43-1.36,8-4.31,18.31-6.65,28.95-6.54,18.67.16,36.22,6.81,48.2,18.26,1-.21,4-2.25,8.92-6.05.93-.73,1.39-1.09,1.63-1.24,8.83-5.64,19.45-7.05,28.41-3.78,12,4.37,16.77,13,16.48,20,2.76-.83,6,.51,8.21,2.19,7.31,5.52,11.48,15.56,10.61,25.57-.61,7.09-2.77,12.76-6.43,16.82-7.49,8.34-21.1,10.7-31.09,11.68.51,7.73-4.25,15.83-12.1,20.43-6.64,3.89-15.16,5.51-25.31,4.79A149.88,149.88,0,0,1,223.1,247c-2.54-.49-5.16-1-7.75-1.43a2.71,2.71,0,0,0-3.22,1.14c-7.37,7.47-18.16,12.25-29.67,13.2C181,260,179.46,260.06,177.94,260.06Zm-49.49-35.25a1,1,0,0,1,.64.22,1,1,0,0,1,.36.75c.1,3.79,1.94,16.87,21.74,26.08a62.08,62.08,0,0,0,31.11,6c11-.9,21.36-5.47,28.35-12.54a5.84,5.84,0,0,1,2.55-1.79,5.91,5.91,0,0,1,2.49,0c2.6.44,5.24,1,7.79,1.44a147.71,147.71,0,0,0,17.36,2.63c9.74.68,17.87-.84,24.16-4.52,7.52-4.41,11.95-12.24,11-19.48a1,1,0,0,1,.22-.75,1,1,0,0,1,.69-.37c9.73-.9,23.51-3,30.79-11.13,3.35-3.73,5.35-9,5.92-15.66.81-9.33-3.05-18.68-9.83-23.8-2.33-1.76-5.58-2.83-7.58-1.27a1,1,0,0,1-1.14.07,1,1,0,0,1-.46-1c1.62-8.72-6.31-16.49-15-19.66-8.25-3-18.46-1.64-26.65,3.59-.17.11-.8.6-1.48,1.13-7.67,6-10.11,7.28-11.33,6.1-11.63-11.21-28.77-17.73-47-17.89-10.31-.1-20.24,2.15-28,6.31-.86.45-1.64.9-2.38,1.33a28.91,28.91,0,0,1-7.85,3.45c-1,.26-9.45,3.65-11,4.84a1,1,0,0,1-1.68.51,22.65,22.65,0,0,0-9.4-5.49h0a22,22,0,0,0-15.14.73,21.14,21.14,0,0,0-9.86,9c-1,1.75-3.47,8.61-3.12,10.11a1,1,0,0,1-.53,1.91h0a21.28,21.28,0,0,0-9.21.55,11.57,11.57,0,0,0-8.31,9.47c-2.26,11.71,4.15,26.57,14.59,33.83,7.26,5.06,17.35,7,27,5.31Zm-23.94-51.13Z" fill="#093f68"/><path d="M147.41,70.81s27.59-7.75,52-7.75,52.9,7.75,52.9,7.75v63H147.41Z" fill="#68e1fd"/><path d="M252.35,134.83H147.41a1,1,0,0,1-1-1v-63a1,1,0,0,1,.73-1c.28-.08,28-7.79,52.31-7.79s52.87,7.71,53.16,7.79a1,1,0,0,1,.74,1v63A1,1,0,0,1,252.35,134.83Zm-103.94-2H251.35V71.58c-4.62-1.2-30-7.52-51.9-7.52s-46.52,6.31-51,7.52Z" fill="#093f68"/><path d="M238.88,116.53c-.26-.78-4.14-30.22-4.14-30.22s5.43-3.36,2.07-5.68-8.78,3.1-8.78,3.1l-56.93.4s-2.81-5.7-5.91-2.08,1.2,7.82,1.2,7.82l-5.51,28.46Z" fill="#fff"/><path d="M160.88,119.33a1,1,0,0,1-.76-.35,1,1,0,0,1-.22-.84l5.41-28c-1.67-1.86-3.6-5.61-.88-8.78a3.65,3.65,0,0,1,3.3-1.53c1.94.25,3.35,2.24,4,3.26l55.94-.4c1.27-1.19,6.22-5.37,9.75-2.93a3.13,3.13,0,0,1,1.53,2.66c0,1.91-2.07,3.6-3.09,4.33,1.52,11.55,3.79,28.5,4,29.46a1,1,0,0,1-.18.87,1,1,0,0,1-.76.41l-78,1.8Zm6.45-37.49c-.26,0-.74.11-1.38.86-2.45,2.85,1,6.31,1.14,6.45a1,1,0,0,1,.28.91L162.1,117.3l75.6-1.75c-.73-4.78-2.93-21.41-3.95-29.11a1,1,0,0,1,.47-1c1.1-.69,2.66-2.09,2.69-3,0-.12,0-.49-.67-1-2.18-1.51-6.16,1.64-7.5,3a1,1,0,0,1-.7.3l-56.94.4h0a1,1,0,0,1-.9-.56c-.33-.65-1.53-2.57-2.72-2.71Z" fill="#093f68"/><path d="M218.74,90.69c-.92,3.06-.33,6.34.26,9.48a21.48,21.48,0,0,0,1.57,5.49,7.05,7.05,0,0,0,4.09,3.77,56.88,56.88,0,0,1-49.56-2.33c5.38-4.93,7.94-12.12,10.61-18.92A21.11,21.11,0,0,1,188.32,83,13.42,13.42,0,0,1,200,78.15a20.39,20.39,0,0,1,11.74,5.41c3.2,2.85,5.8,6.65,6.25,10.91" fill="#725858"/><path d="M202.36,115a57.49,57.49,0,0,1-27.75-7,1,1,0,0,1-.51-.76,1,1,0,0,1,.32-.86c4.85-4.44,7.38-10.92,9.82-17.19l.53-1.35a22,22,0,0,1,2.75-5.41A14.31,14.31,0,0,1,200,77.16a21.42,21.42,0,0,1,12.34,5.65,21.07,21.07,0,0,1,5.48,7.41,1,1,0,0,1,1.84.76c-.88,2.9-.26,6.14.29,9a20.45,20.45,0,0,0,1.48,5.22,6,6,0,0,0,3.48,3.26,1,1,0,0,1,.11,1.88A56.79,56.79,0,0,1,202.36,115Zm-25.59-8.13a56.26,56.26,0,0,0,45.53,2.46,9.08,9.08,0,0,1-2.62-3.23,21.72,21.72,0,0,1-1.66-5.74,39.4,39.4,0,0,1-.74-5.15,1,1,0,0,1-.32-.63c-.37-3.56-2.47-7.21-5.91-10.28a19.48,19.48,0,0,0-11.16-5.15,12.47,12.47,0,0,0-10.77,4.46,20.2,20.2,0,0,0-2.48,4.94l-.53,1.35C183.75,96,181.31,102.19,176.77,106.87Z" fill="#093f68"/><path d="M179.72,86.74a27.91,27.91,0,0,1,1.72-8.86,12,12,0,0,1,3.08-4.71,9.63,9.63,0,0,1,2.35-1.54,20.94,20.94,0,0,0,2.65-.83c2.61-4.79,9.35-6,13.72-4.79,6.3,1.68,12.35,5.38,15.23,11.43,1.32,2.76,2.72,6.34,2.33,9.4a23.93,23.93,0,0,1-4.49,11.33c-2.63,3.47-8.07,7.89-12.78,7-2.34-.45-4.62-1.18-7-1.61a29.09,29.09,0,0,1-8.54-2.73c-3.6-1.9-6.71-5.05-7.76-9A18.73,18.73,0,0,1,179.72,86.74Z" fill="#725858"/><path d="M204.87,106.26a7.93,7.93,0,0,1-1.53-.15c-1.12-.21-2.23-.5-3.31-.77s-2.44-.62-3.67-.84a29.85,29.85,0,0,1-8.84-2.82,15.92,15.92,0,0,1-8.25-9.62,18.81,18.81,0,0,1-.55-5.35h0a28.92,28.92,0,0,1,1.79-9.19,12.86,12.86,0,0,1,3.35-5.09,10.62,10.62,0,0,1,2.58-1.71,6.61,6.61,0,0,1,1.21-.35c.31-.08.85-.22,1.14-.31,2.85-4.84,9.66-6.35,14.71-5,4.35,1.15,12.19,4.24,15.88,12,1.25,2.62,2.86,6.5,2.41,10a24.78,24.78,0,0,1-4.68,11.8C215,101.52,210,106.26,204.87,106.26Zm-24.15-19.5a17.5,17.5,0,0,0,.48,4.79,13.91,13.91,0,0,0,7.26,8.36,28.11,28.11,0,0,0,8.25,2.62c1.31.24,2.58.56,3.82.87,1,.27,2.13.54,3.19.75,4.34.85,9.43-3.47,11.8-6.59a22.8,22.8,0,0,0,4.29-10.85c.28-2.2-.45-5.09-2.24-8.84C214.23,70.88,207,68.05,203,67c-4.3-1.14-10.33.18-12.59,4.3-.27.51-.79.66-2.26,1a5.26,5.26,0,0,0-2.94,1.61,10.92,10.92,0,0,0-2.81,4.32,26.71,26.71,0,0,0-1.66,8.52Z" fill="#093f68"/><ellipse cx="183.92" cy="99.05" rx="5.59" ry="4.82" fill="#ffc9b0"/><path d="M183.92,104.87c-3.63,0-6.59-2.61-6.59-5.82s3-5.82,6.59-5.82,6.6,2.61,6.6,5.82S187.56,104.87,183.92,104.87Zm0-9.64c-2.53,0-4.59,1.72-4.59,3.82s2.06,3.82,4.59,3.82,4.6-1.71,4.6-3.82S186.46,95.23,183.92,95.23Z" fill="#093f68"/><ellipse cx="216.53" cy="99.05" rx="5.59" ry="4.82" fill="#ffc9b0"/><path d="M216.53,104.87c-3.63,0-6.59-2.61-6.59-5.82s3-5.82,6.59-5.82,6.59,2.61,6.59,5.82S220.17,104.87,216.53,104.87Zm0-9.64c-2.53,0-4.59,1.72-4.59,3.82s2.06,3.82,4.59,3.82,4.59-1.71,4.59-3.82S219.06,95.23,216.53,95.23Z" fill="#093f68"/><path d="M213,90.43c.49.26,1,.53,1.43.81,3.22,2,2.83,3.1,2.83,6.65a16.87,16.87,0,0,1-32.21,7c-1.64-3.58-3.11-10.42-.52-13.8,1.3-1.7,3.13-2.89,4.65-4.4a15.43,15.43,0,0,0,4.42-9.34,43.38,43.38,0,0,0,13.06,10C208.73,88.46,210.92,89.34,213,90.43Z" fill="#ffc9b0"/><path d="M200.37,115.76a17.91,17.91,0,0,1-16.25-10.43c-1.7-3.72-3.31-11-.4-14.83a20.54,20.54,0,0,1,3-2.93c.63-.53,1.22-1,1.76-1.57a14.55,14.55,0,0,0,4.14-8.73,1,1,0,0,1,.69-.85,1,1,0,0,1,1.05.29,42.67,42.67,0,0,0,12.75,9.81c.91.45,1.84.88,2.77,1.3,1.19.54,2.42,1.1,3.6,1.73h0c.5.26,1,.54,1.48.84,3.38,2,3.36,3.63,3.32,6.49,0,.31,0,.65,0,1A17.88,17.88,0,0,1,200.37,115.76Zm-6.13-36.22a16.34,16.34,0,0,1-4.38,7.88c-.6.6-1.24,1.15-1.87,1.68a18.09,18.09,0,0,0-2.69,2.62c-2.22,2.91-.93,9.34.64,12.78a15.87,15.87,0,0,0,30.3-6.61c0-.37,0-.72,0-1,0-2.66,0-3.29-2.36-4.76-.45-.27-.91-.53-1.37-.77-1.14-.6-2.34-1.15-3.5-1.68-1-.43-1.9-.87-2.83-1.33A44.74,44.74,0,0,1,194.24,79.54Z" fill="#093f68"/><path d="M200.53,103.12a16.14,16.14,0,0,1-1.65-.1,1,1,0,0,1,.25-2,11.11,11.11,0,0,0,2,.06,16.48,16.48,0,0,0-1.3-3.37,1,1,0,1,1,1.79-.89c.91,1.84,1.9,4.27,1.39,5.38a1.34,1.34,0,0,1-.89.75A7,7,0,0,1,200.53,103.12Z" fill="#093f68"/><path d="M199.94,107.51a10.77,10.77,0,0,1-5.37-1.38,1,1,0,1,1,1-1.74c4.48,2.51,9.25,0,9.3,0a1,1,0,0,1,1.36.41,1,1,0,0,1-.41,1.35A13.26,13.26,0,0,1,199.94,107.51Z" fill="#093f68"/><path d="M192.72,95.38a4,4,0,0,1-2.56-.89A1,1,0,0,1,191.45,93c.24.19,1.51,1.06,3.23-.45A1,1,0,1,1,196,94,4.86,4.86,0,0,1,192.72,95.38Z" fill="#093f68"/><path d="M207,95.38a4,4,0,0,1-2.56-.89,1,1,0,0,1-.12-1.41,1,1,0,0,1,1.4-.12c.25.19,1.52,1.06,3.23-.45A1,1,0,1,1,210.3,94,4.86,4.86,0,0,1,207,95.38Z" fill="#093f68"/><path d="M141.64,59h0a6.8,6.8,0,0,1,6.8,6.8V131.7a2.13,2.13,0,0,1-2.13,2.13H137a2.13,2.13,0,0,1-2.13-2.13V65.76A6.8,6.8,0,0,1,141.64,59Z" fill="#68e1fd"/><path d="M146.32,134.83H137a3.13,3.13,0,0,1-3.12-3.13V65.76a7.8,7.8,0,0,1,15.6,0V131.7A3.13,3.13,0,0,1,146.32,134.83ZM141.64,60a5.8,5.8,0,0,0-5.8,5.8V131.7a1.13,1.13,0,0,0,1.12,1.13h9.36a1.13,1.13,0,0,0,1.12-1.13V65.76A5.8,5.8,0,0,0,141.64,60Z" fill="#093f68"/><path d="M258.19,59h0a6.8,6.8,0,0,1,6.8,6.8V131.7a2.13,2.13,0,0,1-2.13,2.13h-9.35a2.13,2.13,0,0,1-2.13-2.13V65.76A6.8,6.8,0,0,1,258.19,59Z" fill="#68e1fd"/><path d="M262.87,134.83h-9.35a3.13,3.13,0,0,1-3.13-3.13V65.76a7.81,7.81,0,0,1,15.61,0V131.7A3.13,3.13,0,0,1,262.87,134.83ZM258.19,60a5.8,5.8,0,0,0-5.8,5.8V131.7a1.13,1.13,0,0,0,1.13,1.13h9.35A1.14,1.14,0,0,0,264,131.7V65.76A5.81,5.81,0,0,0,258.19,60Z" fill="#093f68"/><path d="M151.84,113.68h96.07a22.73,22.73,0,0,1,22.73,22.73v0a0,0,0,0,1,0,0H129.11a0,0,0,0,1,0,0v0A22.73,22.73,0,0,1,151.84,113.68Z" fill="#70cc40"/><path d="M270.64,137.41H129.11a1,1,0,0,1-1-1,23.76,23.76,0,0,1,23.73-23.73h96.08a23.75,23.75,0,0,1,23.72,23.73A1,1,0,0,1,270.64,137.41Zm-140.5-2H269.62a21.75,21.75,0,0,0-21.7-20.73H151.84A21.75,21.75,0,0,0,130.14,135.41Z" fill="#093f68"/><path d="M122,140.09a7.93,7.93,0,0,1,6.23-7.74,349.09,349.09,0,0,1,143.28,0,7.92,7.92,0,0,1,6.22,7.74V190.6H122Z" fill="#68e1fd"/><path d="M277.74,191.6H122a1,1,0,0,1-1-1V140.09a8.85,8.85,0,0,1,7-8.71,349.79,349.79,0,0,1,143.71,0,8.85,8.85,0,0,1,7,8.71V190.6A1,1,0,0,1,277.74,191.6ZM123,189.6H276.74V140.09a6.87,6.87,0,0,0-5.43-6.76,348,348,0,0,0-142.86,0,6.88,6.88,0,0,0-5.44,6.76Z" fill="#093f68"/><path d="M133.38,148.93a6.57,6.57,0,0,1,5.31-6.38,308,308,0,0,1,122.38,0,6.58,6.58,0,0,1,5.31,6.38V190.6h-133Z" fill="#68e1fd"/><path d="M266.38,191.6h-133a1,1,0,0,1-1-1V148.93a7.53,7.53,0,0,1,6.1-7.36,304.64,304.64,0,0,1,61.4-6.16h0a304.42,304.42,0,0,1,61.39,6.16,7.53,7.53,0,0,1,6.11,7.36V190.6A1,1,0,0,1,266.38,191.6Zm-132-2h131V148.93a5.57,5.57,0,0,0-4.52-5.41,307.36,307.36,0,0,0-122,0,5.56,5.56,0,0,0-4.52,5.41Z" fill="#093f68"/><path d="M171.94,110.81c-2.19-.24-4.68-.39-6.3,1.11a6.54,6.54,0,0,0-1.29,1.82,4.18,4.18,0,0,0-.69,2.84,3,3,0,0,0,2.1,2.07,7.17,7.17,0,0,0,3.06.11,6,6,0,0,0,3.47-1.33c1.14-1.1,1.51-3,2.91-3.69C178.28,112.1,173.37,111,171.94,110.81Z" fill="#ffc9b0"/><path d="M167.37,119.87a6.39,6.39,0,0,1-1.91-.27,4,4,0,0,1-2.77-2.8,5.2,5.2,0,0,1,.77-3.54,7.79,7.79,0,0,1,1.5-2.08c1.91-1.77,4.66-1.63,7.09-1.36h0c.2,0,4.73.54,5.12,2.58.11.59-.06,1.46-1.5,2.22a4.14,4.14,0,0,0-1.35,1.66,8,8,0,0,1-1.34,1.87,7.08,7.08,0,0,1-4,1.6A11.26,11.26,0,0,1,167.37,119.87Zm2.3-8.21a4.86,4.86,0,0,0-3.36,1,5.92,5.92,0,0,0-1.08,1.56,3.41,3.41,0,0,0-.59,2.15,2,2,0,0,0,1.42,1.33,6.31,6.31,0,0,0,2.63.08,5.24,5.24,0,0,0,2.91-1.07,6.34,6.34,0,0,0,1-1.42,5.75,5.75,0,0,1,2.14-2.42l.26-.16a10.38,10.38,0,0,0-3.16-.9C171.12,111.73,170.38,111.66,169.67,111.66Z" fill="#093f68"/><path d="M228.78,110.81c2.19-.24,4.69-.39,6.31,1.11a6.54,6.54,0,0,1,1.29,1.82,4.22,4.22,0,0,1,.68,2.84,3,3,0,0,1-2.1,2.07,7.12,7.12,0,0,1-3.05.11,6,6,0,0,1-3.47-1.33c-1.15-1.1-1.52-3-2.91-3.69C222.45,112.1,227.36,111,228.78,110.81Z" fill="#ffc9b0"/><path d="M233.35,119.87a11.12,11.12,0,0,1-1.57-.12,7.06,7.06,0,0,1-4-1.6,8,8,0,0,1-1.35-1.87,4.12,4.12,0,0,0-1.34-1.66c-1.45-.76-1.61-1.63-1.5-2.22.39-2,4.92-2.56,5.11-2.58h0c2.43-.27,5.18-.41,7.1,1.36a7.53,7.53,0,0,1,1.49,2.08,5.15,5.15,0,0,1,.78,3.54,4,4,0,0,1-2.77,2.8A6.41,6.41,0,0,1,233.35,119.87Zm-7.62-7.17.26.16a5.61,5.61,0,0,1,2.14,2.42,6.36,6.36,0,0,0,1,1.42,5.21,5.21,0,0,0,2.91,1.07,6.26,6.26,0,0,0,2.62-.08,2,2,0,0,0,1.43-1.33,3.54,3.54,0,0,0-.59-2.15,5.7,5.7,0,0,0-1.09-1.56c-1.3-1.2-3.53-1.07-5.52-.85A10.55,10.55,0,0,0,225.73,112.7Z" fill="#093f68"/><path d="M149.3,194.26a25.54,25.54,0,0,1,35.64-.41,13.11,13.11,0,0,1,22.88,6.9" fill="#fff"/><path d="M207.82,201.75a1,1,0,0,1-1-.87,12.11,12.11,0,0,0-21.14-6.37,1,1,0,0,1-1.44.07A24.52,24.52,0,0,0,150,195a1,1,0,0,1-1.42,0,1,1,0,0,1,0-1.41,26.53,26.53,0,0,1,36.29-1.1,14.11,14.11,0,0,1,23.92,8.17,1,1,0,0,1-.86,1.12Z" fill="#093f68"/><path d="M290.26,186.69c-2.9-3.58-8-4.47-12.61-4.31s-9.34,1.17-13.06,3.89-6.24,7.39-5.47,11.93a17.76,17.76,0,0,0-20.2,9" fill="#fff"/><path d="M238.92,208.18a1,1,0,0,1-.44-.1,1,1,0,0,1-.46-1.34c3.48-7.13,12.2-11.33,20-9.83a14.23,14.23,0,0,1,6-11.45c3.45-2.52,8-3.89,13.61-4.08,4.28-.15,10.08.55,13.43,4.69a1,1,0,0,1-.15,1.4,1,1,0,0,1-1.41-.15c-2.83-3.49-8-4.06-11.8-3.94-5.17.17-9.38,1.42-12.5,3.7-3.69,2.69-5.73,7.09-5.07,11a1,1,0,0,1-1.27,1.13,16.77,16.77,0,0,0-19,8.45A1,1,0,0,1,238.92,208.18Z" fill="#093f68"/><path d="M102.83,189a1,1,0,0,1-.92-.61A12.58,12.58,0,0,1,113.47,171h0a1,1,0,0,1,0,2,10.58,10.58,0,0,0-9.72,14.69,1,1,0,0,1-.53,1.31A.91.91,0,0,1,102.83,189Z" fill="#093f68"/><path d="M193.67,244.18a26.11,26.11,0,0,0,28.19-7.41" fill="#fff"/><path d="M202.07,246.64a25.35,25.35,0,0,1-8.75-1.53,1,1,0,0,1,.69-1.87,25.18,25.18,0,0,0,27.09-7.12,1,1,0,1,1,1.52,1.3A27.25,27.25,0,0,1,202.07,246.64Z" fill="#093f68"/><path d="M302.18,71.38A11.51,11.51,0,0,0,304,70.21a15.66,15.66,0,1,1-9.8-19.41,11.26,11.26,0,0,0-2,.8,11.08,11.08,0,1,0,10,19.78Z" fill="#ffbc0e"/><path d="M289.08,82.26a16.67,16.67,0,0,1-7.54-31.54,16.51,16.51,0,0,1,13-.86,1,1,0,0,1,.67,1,1,1,0,0,1-.73.94,10.59,10.59,0,0,0-1.85.72,10.08,10.08,0,1,0,9.09,18h0a10.29,10.29,0,0,0,1.68-1.06,1,1,0,0,1,1.18,0,1,1,0,0,1,.39,1.12,16.67,16.67,0,0,1-15.9,11.75ZM289,50.92A14.67,14.67,0,1,0,302,72.59a12.08,12.08,0,0,1-10.87-21.53A15.69,15.69,0,0,0,289,50.92Zm13.15,20.46h0Z" fill="#093f68"/><polygon points="103.86 108.97 106.52 111.52 110.13 110.78 108.52 114.09 110.33 117.3 106.69 116.79 104.2 119.51 103.55 115.88 100.2 114.36 103.45 112.63 103.86 108.97" fill="#fff"/><path d="M104.2,120.51a.9.9,0,0,1-.28,0,1,1,0,0,1-.7-.79l-.56-3.1-2.87-1.31a1,1,0,0,1-.59-.88,1,1,0,0,1,.53-.91l2.79-1.49.35-3.14a1,1,0,0,1,1.69-.6l2.27,2.18,3.09-.63a1,1,0,0,1,1,.37,1,1,0,0,1,.1,1l-1.37,2.84,1.55,2.74a1,1,0,0,1,0,1.06,1,1,0,0,1-1,.43l-3.13-.44-2.13,2.33A1,1,0,0,1,104.2,120.51Zm-1.74-6.22L104,115a1,1,0,0,1,.57.74l.29,1.63,1.12-1.22a1,1,0,0,1,.87-.32l1.64.23-.81-1.44a1,1,0,0,1,0-.93l.72-1.49-1.62.33a1,1,0,0,1-.9-.26l-1.19-1.15-.19,1.65a1,1,0,0,1-.52.77Zm1-1.67h0Z" fill="#dfeaef"/><polygon points="290.26 118.33 291.89 121.64 295.54 122.17 292.9 124.74 293.52 128.37 290.26 126.65 287 128.37 287.62 124.74 284.99 122.17 288.63 121.64 290.26 118.33" fill="#fff"/><path d="M293.52,129.37a.93.93,0,0,1-.46-.12l-2.8-1.47-2.79,1.47A1,1,0,0,1,286,128.2l.53-3.12-2.26-2.2a1,1,0,0,1-.25-1,1,1,0,0,1,.8-.68l3.13-.46,1.39-2.83a1,1,0,0,1,1.8,0l1.4,2.83,3.12.46a1,1,0,0,1,.81.68,1,1,0,0,1-.26,1l-2.26,2.2.54,3.12a1,1,0,0,1-1,1.17Zm-3.26-3.72a1,1,0,0,1,.47.12l1.46.77-.28-1.63a1,1,0,0,1,.29-.89l1.19-1.16-1.64-.24a1,1,0,0,1-.76-.54l-.73-1.49-.73,1.49a1,1,0,0,1-.76.54l-1.63.24,1.18,1.16a1,1,0,0,1,.29.89l-.28,1.63,1.47-.77A.93.93,0,0,1,290.26,125.65Z" fill="#dfeaef"/><polygon points="230.83 46.12 232.46 49.42 236.1 49.95 233.46 52.52 234.09 56.16 230.83 54.44 227.57 56.16 228.19 52.52 225.55 49.95 229.2 49.42 230.83 46.12" fill="#fff"/><path d="M234.09,57.15a1,1,0,0,1-.47-.11l-2.79-1.47L228,57A1,1,0,0,1,227,57a1,1,0,0,1-.4-1l.53-3.12-2.26-2.2a1,1,0,0,1-.25-1,1,1,0,0,1,.81-.69l3.12-.45,1.4-2.83a1,1,0,0,1,1.79,0l1.4,2.83,3.12.45a1,1,0,0,1,.81.69,1,1,0,0,1-.25,1l-2.26,2.2.53,3.12a1,1,0,0,1-.4,1A1,1,0,0,1,234.09,57.15Zm-3.26-3.71a.93.93,0,0,1,.46.12l1.47.77-.28-1.64a1,1,0,0,1,.29-.88L234,50.65l-1.64-.24a1,1,0,0,1-.75-.54l-.73-1.49-.74,1.49a1,1,0,0,1-.75.54l-1.64.24,1.19,1.16a1,1,0,0,1,.29.88l-.28,1.64,1.46-.77A1,1,0,0,1,230.83,53.44Z" fill="#dfeaef"/><polygon points="115.61 70.02 117.24 73.32 120.88 73.85 118.25 76.42 118.87 80.05 115.61 78.33 112.35 80.05 112.97 76.42 110.33 73.85 113.98 73.32 115.61 70.02" fill="#fff"/><path d="M118.87,81.05a1,1,0,0,1-.47-.12l-2.79-1.47-2.8,1.47a1,1,0,0,1-1-.07,1,1,0,0,1-.4-1l.54-3.11-2.26-2.21a1,1,0,0,1-.26-1,1,1,0,0,1,.81-.68l3.12-.46,1.4-2.83a1,1,0,0,1,1.79,0l1.4,2.83,3.13.46a1,1,0,0,1,.55,1.7l-2.26,2.21.53,3.11a1,1,0,0,1-.39,1A1.09,1.09,0,0,1,118.87,81.05Zm-3.26-3.72a.93.93,0,0,1,.46.12l1.47.77-.28-1.63a1,1,0,0,1,.29-.89l1.18-1.15-1.64-.24a1,1,0,0,1-.75-.55l-.73-1.49-.74,1.49a1,1,0,0,1-.75.55l-1.64.24,1.19,1.15a1,1,0,0,1,.29.89l-.28,1.63,1.46-.77A1,1,0,0,1,115.61,77.33Z" fill="#dfeaef"/></g></svg>