<svg xmlns="http://www.w3.org/2000/svg" viewBox="0 0 400 300"><g id="_449_easter_egg_outline" data-name="#449_easter_egg_outline"><path d="M233.14,148.53c-.73,22-15.69,34.29-33.62,33.69s-32-13.9-31.29-35.86,16-44.28,34-43.68S233.88,126.56,233.14,148.53Z" fill="#70cc40"/><path d="M200.76,183.24l-1.27,0A32.86,32.86,0,0,1,176.15,173c-6.19-6.7-9.28-15.92-8.92-26.65A55.9,55.9,0,0,1,178,115.46c6.85-9.18,15.46-14.1,24.26-13.78,19.14.64,32.64,25.28,31.92,46.88l-1,0,1,0c-.36,10.74-4,19.73-10.67,26A32.67,32.67,0,0,1,200.76,183.24Zm.71-79.58c-7.89,0-15.64,4.59-21.91,13a53.86,53.86,0,0,0-10.33,29.74c-.34,10.2,2.56,18.92,8.39,25.23a32.36,32.36,0,0,0,44.47,1.49c6.24-5.9,9.71-14.42,10-24.61.84-25-15.14-44.33-30-44.83Z" fill="#093f68"/><path d="M194.86,158.13c7.55,20.63-1.69,37.67-18.53,43.83s-34.9-.87-42.46-21.51-1.75-47.06,15.1-53.22S187.3,137.49,194.86,158.13Z" fill="#ffbc0e"/><path d="M164.56,205.13c-13.84,0-26-8.93-31.63-24.33a55.92,55.92,0,0,1-1.63-32.64c2.91-11.08,9.06-18.85,17.32-21.87s18-1.07,27.35,5.52a55.9,55.9,0,0,1,19.83,26c7.24,19.79-.62,38.35-19.13,45.12A35.2,35.2,0,0,1,164.56,205.13Zm-8-78.23a21,21,0,0,0-7.27,1.27c-7.63,2.79-13.34,10.07-16.07,20.5a53.79,53.79,0,0,0,1.57,31.44c6.95,19,23.49,27.39,41.17,20.91s24.89-23.57,17.94-42.55a54,54,0,0,0-19.1-25C168.67,129.12,162.4,126.9,156.58,126.9Z" fill="#093f68"/><path d="M263.73,180c-8.9,20.09-27.39,25.92-43.78,18.65s-24.5-24.88-15.59-45,31.44-35.06,47.84-27.79S272.64,159.92,263.73,180Z" fill="#f56132"/><path d="M233.59,202.67a34.74,34.74,0,0,1-14.05-3.09,32.88,32.88,0,0,1-17.81-18.24c-3.23-8.53-2.64-18.23,1.72-28.05,8.76-19.76,31.64-36.07,49.15-28.3,8,3.56,13.67,11.72,15.84,23a55.91,55.91,0,0,1-3.79,32.46C258.34,194.65,246.57,202.67,233.59,202.67Zm9.73-77.54c-13.21,0-29.79,10.35-38,29-4.13,9.32-4.71,18.5-1.67,26.53a30.87,30.87,0,0,0,16.75,17.12c17.21,7.62,34.28.34,42.47-18.14a53.8,53.8,0,0,0,3.65-31.27c-2-10.59-7.25-18.23-14.68-21.52A20.8,20.8,0,0,0,243.32,125.13Z" fill="#093f68"/><path d="M275.34,161.83a2.5,2.5,0,0,1-2.5-2.5V129.84C272.84,96.3,240.16,69,200,69s-72.84,27.3-72.84,60.84v29.49a2.5,2.5,0,0,1-5,0V129.84C122.16,93.54,157.08,64,200,64s77.84,29.54,77.84,65.84v29.49A2.5,2.5,0,0,1,275.34,161.83Z" fill="#68e1fd"/><path d="M275.34,162.83a3.5,3.5,0,0,1-3.5-3.5V129.84c0-33-32.23-59.84-71.84-59.84s-71.84,26.85-71.84,59.84v29.49a3.5,3.5,0,0,1-7,0V129.84C121.16,93,156.53,63,200,63s78.84,30,78.84,66.84v29.49A3.5,3.5,0,0,1,275.34,162.83ZM200,68c40.72,0,73.84,27.74,73.84,61.84v29.49a1.5,1.5,0,0,0,3,0V129.84C276.84,94.09,242.37,65,200,65s-76.84,29.09-76.84,64.84v29.49a1.5,1.5,0,0,0,3,0V129.84C126.16,95.74,159.28,68,200,68Z" fill="#093f68"/><path d="M128.27,176.06H271.73a0,0,0,0,1,0,0V207a29,29,0,0,1-29,29H157.27a29,29,0,0,1-29-29V176.06A0,0,0,0,1,128.27,176.06Z" fill="#68e1fd"/><path d="M242.73,237H157.27a30,30,0,0,1-30-30V176.06a1,1,0,0,1,1-1H271.73a1,1,0,0,1,1,1V207A30,30,0,0,1,242.73,237ZM129.27,177.06V207a28,28,0,0,0,28,28h85.46a28,28,0,0,0,28-28V177.06Z" fill="#093f68"/><polygon points="271.52 179.08 128.48 179.08 118.42 158.33 281.58 158.33 271.52 179.08" fill="#68e1fd"/><path d="M271.52,180.08h-143a1,1,0,0,1-.9-.56l-10.06-20.75a1,1,0,0,1,0-1,1,1,0,0,1,.85-.47H281.58a1,1,0,0,1,.85.47,1,1,0,0,1,.05,1l-10.06,20.75A1,1,0,0,1,271.52,180.08Zm-142.41-2H270.89l9.1-18.75H120Z" fill="#093f68"/><path d="M181.92,195.05l13.61-6.8v-13l-13.61-6.8c-3.5-1.75-7.86.46-7.86,4v18.58C174.06,194.59,178.42,196.8,181.92,195.05Z" fill="#fff"/><path d="M179.31,196.66a6.84,6.84,0,0,1-3.56-1,5.37,5.37,0,0,1-2.69-4.6V172.48a5.37,5.37,0,0,1,2.69-4.6,6.86,6.86,0,0,1,6.62-.28L196,174.4a1,1,0,0,1,.55.89v13a1,1,0,0,1-.55.89l-13.61,6.8A6.84,6.84,0,0,1,179.31,196.66Zm0-27.78a4.85,4.85,0,0,0-2.51.7,3.41,3.41,0,0,0-1.74,2.9v18.58a3.41,3.41,0,0,0,1.74,2.9,4.82,4.82,0,0,0,4.67.19h0l13.06-6.52V175.91l-13.06-6.52A4.83,4.83,0,0,0,179.31,168.88Z" fill="#093f68"/><path d="M183.93,187.18a1,1,0,0,1-.35-1.93l8.55-3.25-11.54-2.73a1,1,0,0,1-.74-1.2,1,1,0,0,1,1.2-.75l14.71,3.48a1,1,0,0,1,.77.91,1,1,0,0,1-.65,1l-11.59,4.41A1.13,1.13,0,0,1,183.93,187.18Z" fill="#093f68"/><path d="M218.08,195.05l-13.61-6.8v-13l13.61-6.8c3.5-1.75,7.86.46,7.86,4v18.58C225.94,194.59,221.58,196.8,218.08,195.05Z" fill="#fff"/><path d="M220.69,196.66a6.84,6.84,0,0,1-3.06-.72L204,189.14a1,1,0,0,1-.55-.89v-13a1,1,0,0,1,.55-.89l13.61-6.8a6.86,6.86,0,0,1,6.62.28,5.37,5.37,0,0,1,2.69,4.6v18.58a5.37,5.37,0,0,1-2.69,4.6A6.84,6.84,0,0,1,220.69,196.66Zm-15.22-9,13.06,6.52h0a4.82,4.82,0,0,0,4.67-.19,3.41,3.41,0,0,0,1.74-2.9V172.48a3.41,3.41,0,0,0-1.74-2.9,4.82,4.82,0,0,0-4.67-.19l-13.06,6.52Z" fill="#093f68"/><path d="M216.07,187.18a1.13,1.13,0,0,1-.36-.06l-11.59-4.41a1,1,0,0,1-.65-1,1,1,0,0,1,.77-.91L219,177.32a1,1,0,0,1,1.2.75,1,1,0,0,1-.74,1.2L207.87,182l8.55,3.25a1,1,0,0,1-.35,1.93Z" fill="#093f68"/><rect x="194.04" y="174.26" width="11.93" height="15.02" rx="2.97" fill="#fff"/><path d="M203,190.28h-6a4,4,0,0,1-4-4v-9.06a4,4,0,0,1,4-4h6a4,4,0,0,1,4,4v9.06A4,4,0,0,1,203,190.28Zm-6-15a2,2,0,0,0-2,2v9.06a2,2,0,0,0,2,2h6a2,2,0,0,0,2-2v-9.06a2,2,0,0,0-2-2Z" fill="#093f68"/></g></svg>