<svg xmlns="http://www.w3.org/2000/svg" viewBox="0 0 400 300"><g id="_454_easter_balloon_outline" data-name="#454_easter_balloon_outline"><path d="M240.25,199h-80.5a1,1,0,0,1-.92-.6L129,129.85a1,1,0,0,1,.08-.95,1,1,0,0,1,.84-.45H270a1,1,0,0,1,.84.45,1,1,0,0,1,.08.95l-29.79,68.51A1,1,0,0,1,240.25,199Zm-79.85-2h79.2l28.91-66.51h-137Z" fill="#093f68"/><path d="M215.13,199H184.87a1,1,0,0,1-1-.84l-11.2-68.51a1,1,0,0,1,.23-.81,1,1,0,0,1,.76-.35h52.66a1,1,0,0,1,.76.35,1,1,0,0,1,.23.81l-11.2,68.51A1,1,0,0,1,215.13,199Zm-29.41-2h28.56l10.88-66.51H174.84Z" fill="#093f68"/><path d="M125.42,129.45c0-38.68,33.39-70,74.58-70s74.58,31.36,74.58,70Z" fill="#68e1fd"/><path d="M274.58,130.45H125.42a1,1,0,0,1-1-1c0-39.17,33.91-71,75.58-71s75.58,31.87,75.58,71A1,1,0,0,1,274.58,130.45Zm-148.15-2H273.57c-.57-37.61-33.36-68-73.57-68S127,90.84,126.43,128.45Z" fill="#093f68"/><path d="M152,129.45c0-38.68,21.51-70,48-70s48,31.36,48,70Z" fill="#fff"/><path d="M248,130.45H152a1,1,0,0,1-1-1c0-39.17,22-71,49-71s49,31.87,49,71A1,1,0,0,1,248,130.45Zm-95.08-2H247c-.37-37.61-21.33-68-47-68S153.33,90.84,153,128.45Z" fill="#093f68"/><path d="M181.07,129.45c0-38.68,18.93-70,18.93-70s18.93,31.36,18.93,70Z" fill="#68e1fd"/><path d="M218.93,130.45H181.07a1,1,0,0,1-1-1c0-38.52,18.88-70.24,19.07-70.56a1,1,0,0,1,1.72,0c.19.32,19.07,32,19.07,70.56A1,1,0,0,1,218.93,130.45Zm-36.86-2h35.86c-.28-32.78-14.29-60.38-17.93-67C196.36,68.07,182.35,95.67,182.07,128.45Z" fill="#093f68"/><path d="M218.6,185.61c-.41,12.33-8.81,19.24-18.87,18.91s-18-7.8-17.56-20.13,9-24.85,19.06-24.52S219,173.28,218.6,185.61Z" fill="#70cc40"/><path d="M200.42,205.53h-.72c-11.31-.38-18.93-9.08-18.53-21.16a31.83,31.83,0,0,1,6.11-17.57c3.93-5.28,8.91-8.09,14-7.92,11,.37,18.75,14.44,18.34,26.77-.21,6.14-2.32,11.3-6.13,14.9A18.76,18.76,0,0,1,200.42,205.53Zm.41-44.66c-4.29,0-8.52,2.51-12,7.11a29.84,29.84,0,0,0-5.71,16.44c-.37,11.08,6.3,18.75,16.6,19.1a17,17,0,0,0,12.33-4.43c3.41-3.24,5.31-7.91,5.5-13.51.46-13.81-8.28-24.44-16.41-24.71Z" fill="#093f68"/><path d="M197.11,191c4.25,11.58-.94,21.14-10.4,24.6s-19.58-.49-23.82-12.07-1-26.42,8.47-29.88S192.87,179.41,197.11,191Z" fill="#ffbc0e"/><path d="M180.09,217.82c-7.94,0-14.91-5.12-18.14-13.95-4.25-11.59-1.27-27.37,9.06-31.16s22.8,6.35,27,17.94h0c2.12,5.77,2.08,11.34-.09,16.11a18.92,18.92,0,0,1-10.9,9.78A20.32,20.32,0,0,1,180.09,217.82ZM175.48,174a10.91,10.91,0,0,0-3.78.63c-7.63,2.8-12.63,15.62-7.88,28.59,3.81,10.41,12.87,15,22.55,11.48a16.89,16.89,0,0,0,9.77-8.73c2-4.28,2-9.32,0-14.59h0C192.15,180.35,182.86,174,175.48,174Z" fill="#093f68"/><path d="M235.77,203.28c-5,11.28-15.37,14.54-24.57,10.47s-13.75-14-8.75-25.24,17.64-19.68,26.85-15.6S240.77,192,235.77,203.28Z" fill="#f56132"/><path d="M218.9,216.43a20.12,20.12,0,0,1-8.11-1.77,18.86,18.86,0,0,1-10.23-10.48c-1.85-4.9-1.52-10.46,1-16.08a31.84,31.84,0,0,1,12.25-14c5.62-3.41,11.27-4.16,15.92-2.09s7.9,6.75,9.14,13.21a31.75,31.75,0,0,1-2.16,18.47c-2.49,5.62-6.38,9.6-11.26,11.52A17.68,17.68,0,0,1,218.9,216.43Zm5.27-43.58a18.34,18.34,0,0,0-9.36,3,29.85,29.85,0,0,0-11.45,13.11c-2.27,5.13-2.59,10.16-.93,14.56a17.73,17.73,0,0,0,22.26,9.87c4.38-1.72,7.89-5.34,10.17-10.47h0a29.84,29.84,0,0,0,2-17.29c-1.12-5.79-4-10-8-11.76A11.69,11.69,0,0,0,224.17,172.85Z" fill="#093f68"/><path d="M244.67,201.06V222a18.58,18.58,0,0,1-18.58,18.59H173.91A18.58,18.58,0,0,1,155.33,222V201.06Z" fill="#68e1fd"/><path d="M226.09,241.59H173.91a19.48,19.48,0,0,1-19.34-16.51,20,20,0,0,1-.24-3.08V201.06a1,1,0,0,1,1-1h89.34a1,1,0,0,1,1,1V222a20,20,0,0,1-.24,3.08A19.48,19.48,0,0,1,226.09,241.59Zm-69.76-39.53V222a17,17,0,0,0,.22,2.76,17.48,17.48,0,0,0,17.36,14.83h52.18a17.48,17.48,0,0,0,17.36-14.83,17,17,0,0,0,.22-2.76V202.06Z" fill="#093f68"/><rect x="152.38" y="194.86" width="95.23" height="6.2" rx="2.95" fill="#68e1fd"/><path d="M244.67,202.06H155.33a4,4,0,0,1-4-3.94v-.31a4,4,0,0,1,4-3.95h89.34a4,4,0,0,1,4,3.95v.31A4,4,0,0,1,244.67,202.06Zm-89.34-6.2a2,2,0,0,0-2,1.95v.31a2,2,0,0,0,2,1.94h89.34a2,2,0,0,0,2-1.94v-.31a2,2,0,0,0-2-1.95Z" fill="#093f68"/><path d="M244.67,212.86V222a18.66,18.66,0,0,1-.23,2.92H155.56a18.66,18.66,0,0,1-.23-2.92v-9.14Z" fill="#fff"/><path d="M244.44,225.92H155.56a1,1,0,0,1-1-.84,20,20,0,0,1-.24-3.08v-9.14a1,1,0,0,1,1-1h89.34a1,1,0,0,1,1,1V222a20,20,0,0,1-.24,3.08A1,1,0,0,1,244.44,225.92Zm-88-2h87.12a17.65,17.65,0,0,0,.11-1.92v-8.14H156.33V222A17.65,17.65,0,0,0,156.44,223.92Z" fill="#093f68"/><path d="M181.92,231.7l13.61-6.8v-13l-13.61-6.8c-3.5-1.75-7.86.46-7.86,4v18.58C174.06,231.24,178.42,233.45,181.92,231.7Z" fill="#fff"/><path d="M179.31,233.31a6.84,6.84,0,0,1-3.56-1,5.37,5.37,0,0,1-2.69-4.6V209.13a5.37,5.37,0,0,1,2.69-4.6,6.86,6.86,0,0,1,6.62-.28l13.61,6.8a1,1,0,0,1,.55.89v13a1,1,0,0,1-.55.89l-13.61,6.8h0A6.84,6.84,0,0,1,179.31,233.31Zm2.61-1.61h0Zm-2.61-26.17a4.76,4.76,0,0,0-2.51.7,3.41,3.41,0,0,0-1.74,2.9v18.58a3.41,3.41,0,0,0,1.74,2.9,4.82,4.82,0,0,0,4.67.19l13.06-6.52V212.56L181.47,206A4.83,4.83,0,0,0,179.31,205.53Z" fill="#093f68"/><path d="M183.93,223.83a1,1,0,0,1-.35-1.93l8.55-3.26-11.54-2.72a1,1,0,0,1,.46-1.95l14.71,3.48a1,1,0,0,1,.77.9,1,1,0,0,1-.65,1l-11.59,4.42A1.13,1.13,0,0,1,183.93,223.83Z" fill="#093f68"/><path d="M218.08,231.7l-13.61-6.8v-13l13.61-6.8c3.5-1.75,7.86.46,7.86,4v18.58C225.94,231.24,221.58,233.45,218.08,231.7Z" fill="#fff"/><path d="M220.69,233.31a6.84,6.84,0,0,1-3.06-.72h0L204,225.79a1,1,0,0,1-.55-.89v-13a1,1,0,0,1,.55-.89l13.61-6.8a6.86,6.86,0,0,1,6.62.28,5.37,5.37,0,0,1,2.69,4.6v18.58a5.37,5.37,0,0,1-2.69,4.6A6.84,6.84,0,0,1,220.69,233.31Zm-2.16-2.51a4.82,4.82,0,0,0,4.67-.19,3.41,3.41,0,0,0,1.74-2.9V209.13a3.41,3.41,0,0,0-1.74-2.9,4.82,4.82,0,0,0-4.67-.19l-13.06,6.52v11.72Z" fill="#093f68"/><path d="M216.07,223.83a1.13,1.13,0,0,1-.36-.06l-11.59-4.42a1,1,0,0,1-.65-1,1,1,0,0,1,.77-.9L219,214a1,1,0,0,1,.46,1.95l-11.54,2.72,8.55,3.26a1,1,0,0,1-.35,1.93Z" fill="#093f68"/><rect x="194.04" y="210.91" width="11.93" height="15.02" rx="2.97" fill="#fff"/><path d="M203,226.93h-6a4,4,0,0,1-4-4v-9.06a4,4,0,0,1,4-4h6a4,4,0,0,1,4,4V223A4,4,0,0,1,203,226.93Zm-6-15a2,2,0,0,0-2,2V223a2,2,0,0,0,2,2h6a2,2,0,0,0,2-2v-9.06a2,2,0,0,0-2-2Z" fill="#093f68"/></g></svg>