<svg xmlns="http://www.w3.org/2000/svg" viewBox="0 0 400 300"><g id="_448_easter_egg_outline" data-name="#448_easter_egg_outline"><path d="M289.19,144.66q0,3.09-.25,6.14c-.05.84-.12,1.67-.19,2.5-.3,3.37-.75,6.68-1.36,9.87-.53,2.8-1.18,5.52-1.95,8.14-.38,1.25-.78,2.48-1.21,3.68-.08.22-.15.44-.24.66a64.37,64.37,0,0,1-4.09,9c-.07.14-.16.27-.23.41s-.23.42-.35.62a51.37,51.37,0,0,1-3.38,5.18,47.54,47.54,0,0,1-5.1,5.91,44,44,0,0,1-4,3.51c-.76.6-1.54,1.15-2.35,1.69-13.34,8.92-30.18,9.32-46.13,3.43s-28.46-17.2-32.75-32.67c-.27-.92-.49-1.85-.69-2.81a46.22,46.22,0,0,1-.93-8.37c0-1.54,0-3.11.13-4.73a53.52,53.52,0,0,1,.83-6.11c0-.17.06-.34.09-.51s.09-.45.14-.67a60.18,60.18,0,0,1,1.62-6.18c.35-1.09.73-2.19,1.13-3.31.53-1.41,1.1-2.82,1.74-4.24.76-1.68,1.59-3.37,2.49-5A96,96,0,0,1,198.87,120c.48-.68,1-1.36,1.47-2A119.82,119.82,0,0,1,209,107.72c.48-.51,1-1,1.47-1.53.21-.24.45-.46.68-.7,1.88-1.9,3.82-3.73,5.8-5.5,1.29-1.16,2.6-2.27,3.94-3.35,2.32-1.91,4.7-3.68,7.06-5.32,13.24-9.08,26.81-13.75,36.45-10.17C272,84,278.16,92.34,282.43,103.41a85,85,0,0,1,2.73,8.39,116.4,116.4,0,0,1,3.74,22.51l0,.45c.06.87.11,1.76.15,2.64C289.19,139.82,289.23,142.25,289.19,144.66Z" fill="#68e1fd"/><path d="M239.31,210.37a61.57,61.57,0,0,1-21.33-4c-17.33-6.43-29.18-18.27-33.36-33.33-.27-.92-.5-1.86-.71-2.88a47.42,47.42,0,0,1-.95-8.55c0-1.56,0-3.18.13-4.82a56.87,56.87,0,0,1,.84-6.23c0-.08,0-.21.07-.34l0-.16q.06-.36.15-.72a59.94,59.94,0,0,1,1.63-6.25c.39-1.2.77-2.29,1.15-3.35.53-1.43,1.13-2.88,1.76-4.31.78-1.72,1.63-3.44,2.53-5.1a96.38,96.38,0,0,1,6.8-10.87c.49-.69,1-1.37,1.5-2A122,122,0,0,1,208.24,107l1-1.06.46-.47c.15-.17.34-.36.53-.55l.17-.16c1.8-1.84,3.76-3.7,5.83-5.55,1.34-1.19,2.64-2.29,4-3.38,2.24-1.84,4.64-3.64,7.12-5.36,14.74-10.11,28-13.76,37.36-10.29,7.51,2.77,14,10.67,18.65,22.83a85.15,85.15,0,0,1,2.76,8.5,117.31,117.31,0,0,1,3.77,22.71l0,.44c.07.86.11,1.73.15,2.6.12,2.59.16,5.06.12,7.38,0,2-.11,4.1-.25,6.2-.06.84-.12,1.68-.2,2.52-.31,3.46-.77,6.81-1.37,10-.53,2.81-1.19,5.58-2,8.23-.37,1.22-.78,2.47-1.23,3.73q-.1.33-.24.69a67.45,67.45,0,0,1-4.15,9.12l-.23.41c-.11.21-.23.43-.36.65a55,55,0,0,1-3.45,5.26,49.07,49.07,0,0,1-5.19,6,47.43,47.43,0,0,1-4.13,3.59c-.72.56-1.51,1.13-2.4,1.73A45.7,45.7,0,0,1,239.31,210.37ZM257.22,81c-8,0-18.06,3.86-28.73,11.18-2.44,1.69-4.79,3.46-7,5.27-1.32,1.07-2.6,2.16-3.91,3.33-2,1.81-4,3.65-5.74,5.45l-.19.19-.47.48-.48.5-1,1a118.66,118.66,0,0,0-8.56,10.18c-.5.66-1,1.32-1.46,2A95.8,95.8,0,0,0,193,131.23c-.87,1.63-1.7,3.31-2.46,5-.62,1.39-1.2,2.8-1.71,4.18-.4,1.1-.77,2.19-1.12,3.27a58.36,58.36,0,0,0-1.59,6.07c-.06.24-.1.45-.14.66l0,.21a1.57,1.57,0,0,0,0,.23,53.86,53.86,0,0,0-.82,6.07c-.12,1.57-.16,3.13-.13,4.63a44.46,44.46,0,0,0,.91,8.19c.2,1,.42,1.86.67,2.73,4,14.44,15.42,25.8,32.14,32s32.78,5,45.23-3.32c.85-.57,1.6-1.11,2.28-1.65a40.91,40.91,0,0,0,3.95-3.44,46,46,0,0,0,5-5.78,52.46,52.46,0,0,0,3.33-5.08c.11-.19.21-.38.31-.58l.25-.43a63.69,63.69,0,0,0,4-8.87c.09-.23.16-.43.23-.64.45-1.25.85-2.47,1.2-3.65a81.77,81.77,0,0,0,1.92-8,96.49,96.49,0,0,0,1.35-9.78c.07-.82.14-1.64.19-2.47.14-2.07.23-4.12.25-6.09h0c0-2.29,0-4.71-.11-7.2,0-.9-.09-1.76-.15-2.6l0-.45a117.37,117.37,0,0,0-3.7-22.33c-.77-2.82-1.67-5.61-2.7-8.3C277,92.15,271,84.66,264,82.08A19.64,19.64,0,0,0,257.22,81Z" fill="#093f68"/><path d="M289.19,144.66q0,3.09-.25,6.14c-.05.84-.12,1.67-.19,2.5-.3,3.37-.75,6.68-1.36,9.87-.53,2.8-1.18,5.52-1.95,8.14-.38,1.25-.78,2.48-1.21,3.68-.08.22-.15.44-.24.66a64.37,64.37,0,0,1-4.09,9l-94.75-35.12a60.18,60.18,0,0,1,1.62-6.18c.35-1.09.73-2.19,1.13-3.31.53-1.41,1.1-2.82,1.74-4.24.76-1.68,1.59-3.37,2.49-5A96,96,0,0,1,198.87,120c.48-.68,1-1.36,1.47-2A119.82,119.82,0,0,1,209,107.72c.48-.51,1-1,1.47-1.53.21-.24.45-.46.68-.7l77.78,28.82,0,.45c.06.87.11,1.76.15,2.64C289.19,139.82,289.23,142.25,289.19,144.66Z" fill="#fff"/><path d="M279.9,185.65a1.15,1.15,0,0,1-.35-.07L184.8,150.47a1,1,0,0,1-.63-1.14,61.12,61.12,0,0,1,1.64-6.28c.39-1.2.77-2.29,1.15-3.35.53-1.43,1.13-2.88,1.76-4.31.78-1.72,1.63-3.44,2.53-5.1a96.38,96.38,0,0,1,6.8-10.87c.49-.69,1-1.37,1.5-2A122,122,0,0,1,208.24,107l1-1.06.46-.47c.15-.17.34-.36.53-.55l.17-.16a1,1,0,0,1,1.05-.23l77.77,28.82a1,1,0,0,1,.65.86l0,.45c.07.86.11,1.73.15,2.6q.18,3.89.12,7.38c0,2-.11,4.1-.25,6.2-.06.84-.12,1.68-.2,2.52-.31,3.46-.77,6.81-1.37,10-.53,2.81-1.19,5.58-2,8.23-.37,1.22-.78,2.47-1.23,3.73q-.1.33-.24.69a67.45,67.45,0,0,1-4.15,9.12A1,1,0,0,1,279.9,185.65Zm-93.59-36.76,93.13,34.52a65.06,65.06,0,0,0,3.61-8.1c.09-.23.16-.43.23-.64.45-1.25.85-2.47,1.2-3.65a81.77,81.77,0,0,0,1.92-8,96.49,96.49,0,0,0,1.35-9.78c.07-.82.14-1.64.19-2.47.14-2.07.23-4.12.25-6.09h0c0-2.29,0-4.71-.11-7.2,0-.83-.08-1.63-.14-2.41l-76.56-28.38-.2.21-.48.5-1,1a118.66,118.66,0,0,0-8.56,10.18c-.5.66-1,1.32-1.46,2A95.8,95.8,0,0,0,193,131.23c-.87,1.63-1.7,3.31-2.46,5-.62,1.39-1.2,2.8-1.71,4.18-.4,1.1-.77,2.19-1.12,3.27C187.14,145.5,186.67,147.23,186.31,148.89Z" fill="#093f68"/><circle cx="215.01" cy="131.04" r="7.89" fill="#68e1fd"/><path d="M215,139.93a8.72,8.72,0,0,1-3.08-.56,8.87,8.87,0,1,1,3.08.56Zm0-15.78a6.89,6.89,0,1,0,2.88,13.15,6.81,6.81,0,0,0,3.58-3.87,6.89,6.89,0,0,0-6.46-9.28Z" fill="#093f68"/><circle cx="242.44" cy="141.2" r="7.89" fill="#68e1fd"/><path d="M242.45,150.1a9,9,0,0,1-3.1-.56,8.89,8.89,0,0,1-.62-16.41,8.89,8.89,0,0,1,11.79,4.36,8.86,8.86,0,0,1,.26,6.8h0a8.93,8.93,0,0,1-8.33,5.81Zm0-15.79a6.9,6.9,0,0,0-6.46,4.5,6.92,6.92,0,0,0,.2,5.27,6.88,6.88,0,1,0,6.26-9.77Zm7.4,9.63h0Z" fill="#093f68"/><circle cx="269.88" cy="151.37" r="7.89" fill="#68e1fd"/><path d="M269.87,160.26a8.9,8.9,0,1,1,8.34-5.8A8.9,8.9,0,0,1,269.87,160.26Zm0-15.78a6.93,6.93,0,0,0-2.88.63,6.88,6.88,0,1,0,2.88-.63Z" fill="#093f68"/><path d="M287.43,123.08a.91.91,0,0,1-.35-.07l-67.22-24.9a1,1,0,1,1,.7-1.88l67.22,24.91a1,1,0,0,1-.35,1.94Z" fill="#093f68"/><path d="M284.43,110.26a1.12,1.12,0,0,1-.35-.06l-53.6-19.86a1,1,0,1,1,.7-1.87l53.6,19.86a1,1,0,0,1-.35,1.93Z" fill="#093f68"/><path d="M278.78,96.48a.84.84,0,0,1-.35-.07L243.76,83.57a1,1,0,1,1,.7-1.88l34.66,12.85a1,1,0,0,1-.34,1.94Z" fill="#093f68"/><path d="M251.46,208.8h0a1,1,0,0,1-.35-.06l-59.8-22.16a1,1,0,1,1,.7-1.88l59.76,22.16a1,1,0,0,1-.3,1.94Z" fill="#093f68"/><path d="M265.41,202.32a.84.84,0,0,1-.35-.07l-80.13-29.69a1,1,0,0,1-.59-1.28,1,1,0,0,1,1.29-.59l80.12,29.69a1,1,0,0,1-.34,1.94Z" fill="#093f68"/><path d="M274.3,194a.82.82,0,0,1-.34-.06l-90.33-33.47a1,1,0,1,1,.69-1.87L274.65,192a1,1,0,0,1-.35,1.93Z" fill="#093f68"/><path d="M213.27,165.55a65,65,0,0,1-.78,10.32c0,.24-.07.48-.11.72a51.34,51.34,0,0,1-4.1,13.33,47,47,0,0,1-2.56,4.7c-.51.82-1.05,1.62-1.62,2.39C194.7,210,179,216.25,162,216.25S129.37,210,120,197c-.57-.77-1.1-1.57-1.62-2.39a44.88,44.88,0,0,1-3.77-7.53,51.92,51.92,0,0,1-2.89-10.5c0-.17,0-.34-.08-.51a59.47,59.47,0,0,1-.72-7c-.06-1.15-.09-2.31-.09-3.5,0-1.5,0-3,.15-4.58q.19-2.76.58-5.6a98.19,98.19,0,0,1,2.58-12.43c.22-.8.44-1.61.68-2.41a121.65,121.65,0,0,1,4.53-12.61c.27-.65.56-1.3.84-2,1.22-2.74,2.53-5.44,3.92-8.06.82-1.53,1.66-3,2.53-4.51,1.52-2.59,3.13-5.08,4.79-7.44,9.24-13.12,20.36-22.21,30.64-22.21,8.14,0,16.81,5.7,24.67,14.6,1.87,2.14,3.71,4.45,5.47,6.92a116.7,116.7,0,0,1,11.51,20.22c.36.8.72,1.61,1.06,2.43.94,2.23,1.82,4.49,2.62,6.77.7,1.94,1.33,3.89,1.91,5.84.24.8.46,1.61.68,2.41a97.89,97.89,0,0,1,2.16,9.73,78.73,78.73,0,0,1,1,8.3c.09,1.31.14,2.6.16,3.88Z" fill="#68e1fd"/><path d="M162,217.25c-18.49,0-33.72-7-42.88-19.65-.59-.81-1.13-1.61-1.66-2.45a47.36,47.36,0,0,1-3.86-7.7,53.27,53.27,0,0,1-2.93-10.7c0-.16-.06-.34-.09-.53a59.64,59.64,0,0,1-.73-7.13c-.06-1.2-.09-2.4-.09-3.54,0-1.56,0-3.12.15-4.64.14-1.91.33-3.82.59-5.68a98.85,98.85,0,0,1,2.61-12.55c.22-.81.44-1.63.68-2.43a122.17,122.17,0,0,1,4.57-12.72c.18-.44.37-.87.56-1.31l.28-.64c1.23-2.77,2.56-5.5,4-8.13.84-1.59,1.7-3.12,2.55-4.56,1.49-2.54,3.12-5.06,4.83-7.51C140.87,90.79,152,82.75,162,82.75c8,0,16.79,5.17,25.42,14.94,1.9,2.17,3.76,4.52,5.54,7a119.83,119.83,0,0,1,11.61,20.39c.36.81.71,1.63,1.06,2.45,1,2.31,1.87,4.61,2.65,6.83.67,1.87,1.32,3.85,1.92,5.89.24.8.47,1.62.69,2.43a99.23,99.23,0,0,1,2.18,9.83,80.48,80.48,0,0,1,1,8.4c.09,1.26.14,2.58.16,3.92v.72a67.36,67.36,0,0,1-.79,10.48c0,.2-.06.41-.1.62a52.16,52.16,0,0,1-4.2,13.7,47.1,47.1,0,0,1-2.61,4.8c-.52.84-1.07,1.64-1.66,2.45C195.75,210.27,180.52,217.25,162,217.25Zm0-132.5c-9.2,0-20.07,7.94-29.82,21.78-1.69,2.4-3.28,4.88-4.74,7.38-.84,1.41-1.68,2.91-2.51,4.47-1.38,2.59-2.69,5.28-3.89,8l-.28.64c-.19.43-.38.86-.56,1.29a120.4,120.4,0,0,0-4.49,12.51c-.24.79-.46,1.59-.67,2.38a95,95,0,0,0-2.55,12.31c-.26,1.81-.45,3.67-.58,5.53-.1,1.48-.15,3-.15,4.51,0,1.11,0,2.27.09,3.45a58.84,58.84,0,0,0,.71,6.92c0,.17.05.33.08.48a50.65,50.65,0,0,0,2.83,10.32,44.13,44.13,0,0,0,3.69,7.37c.5.8,1,1.56,1.58,2.33,8.78,12.15,23.43,18.83,41.26,18.83s32.47-6.68,41.25-18.82c.57-.78,1.08-1.54,1.58-2.34a47.23,47.23,0,0,0,2.51-4.6,50.16,50.16,0,0,0,4-13.07c.05-.29.08-.48.11-.68a65.14,65.14,0,0,0,.77-10.19v-.67q0-2-.15-3.84a79.71,79.71,0,0,0-1-8.2c-.53-3.12-1.25-6.36-2.14-9.63-.22-.8-.44-1.6-.68-2.39-.59-2-1.23-3.95-1.89-5.79-.76-2.19-1.64-4.45-2.6-6.72q-.51-1.22-1.05-2.4a116.6,116.6,0,0,0-11.41-20.06c-1.74-2.42-3.56-4.72-5.41-6.84C177.72,89.68,169.44,84.75,162,84.75Z" fill="#093f68"/><path d="M213.11,161H111q.19-2.76.58-5.6a98.19,98.19,0,0,1,2.58-12.43H210a97.89,97.89,0,0,1,2.16,9.73A78.73,78.73,0,0,1,213.11,161Z" fill="#fff"/><path d="M213.11,162H111a1,1,0,0,1-.73-.31,1,1,0,0,1-.27-.76c.14-1.9.33-3.81.59-5.67a98.85,98.85,0,0,1,2.61-12.55,1,1,0,0,1,1-.74H210a1,1,0,0,1,1,.74,96.57,96.57,0,0,1,2.19,9.83,80.48,80.48,0,0,1,1,8.4,1,1,0,0,1-1,1.06ZM112,160H212c-.19-2.3-.49-4.69-.9-7.13-.49-2.89-1.14-5.88-1.95-8.9H114.88a94.62,94.62,0,0,0-2.35,11.57C112.32,157,112.15,158.47,112,160Z" fill="#093f68"/><path d="M212.49,175.87c0,.24-.07.48-.11.72a51.34,51.34,0,0,1-4.1,13.33,9.39,9.39,0,0,1-3.57.68c-5.47,0-8.08-4.11-9.81-6.84-1.21-1.91-1.84-2.76-2.39-2.76s-1.17.85-2.37,2.76c-1.74,2.73-4.35,6.84-9.82,6.84s-8.08-4.11-9.82-6.84c-1.21-1.91-1.84-2.76-2.37-2.76s-1.17.85-2.39,2.76c-1.73,2.73-4.34,6.84-9.81,6.84s-8.08-4.11-9.81-6.84c-1.21-1.91-1.84-2.76-2.39-2.76s-1.17.85-2.37,2.76c-1.73,2.73-4.35,6.84-9.82,6.84s-8.08-4.11-9.81-6.84c-1.22-1.91-1.85-2.76-2.38-2.76s-1.17.85-2.38,2.76a25.67,25.67,0,0,1-2.39,3.33,51.92,51.92,0,0,1-2.89-10.5c0-.17,0-.34-.08-.51a9.69,9.69,0,0,1,7.74-3.89c5.46,0,8.08,4.12,9.81,6.85,1.21,1.91,1.85,2.76,2.38,2.76s1.17-.85,2.38-2.76c1.73-2.73,4.35-6.85,9.81-6.85s8.09,4.12,9.82,6.85c1.21,1.91,1.84,2.76,2.38,2.76s1.17-.85,2.38-2.76c1.73-2.73,4.35-6.85,9.82-6.85s8.08,4.12,9.81,6.85c1.21,1.91,1.84,2.76,2.38,2.76s1.17-.85,2.38-2.76c1.73-2.73,4.35-6.85,9.81-6.85s8.09,4.12,9.82,6.85c1.21,1.91,1.84,2.76,2.38,2.76s1.18-.85,2.38-2.76c1.13-1.76,2.62-4.13,5-5.56C212.26,174.28,212.38,175.08,212.49,175.87Z" fill="#fff"/><path d="M204.71,191.6c-6,0-8.93-4.57-10.66-7.31a19,19,0,0,0-1.53-2.18,19.1,19.1,0,0,0-1.54,2.18c-1.74,2.75-4.65,7.31-10.66,7.31s-8.92-4.56-10.65-7.29a19.72,19.72,0,0,0-1.54-2.2,19,19,0,0,0-1.55,2.19c-1.73,2.73-4.62,7.3-10.65,7.3S147,187,145.27,184.29a19,19,0,0,0-1.53-2.18,19.1,19.1,0,0,0-1.54,2.18c-1.73,2.74-4.63,7.31-10.66,7.31s-8.92-4.57-10.65-7.31a21.13,21.13,0,0,0-1.54-2.18,20,20,0,0,0-1.54,2.18,27,27,0,0,1-2.48,3.46,1,1,0,0,1-.93.32,1,1,0,0,1-.75-.61,52.9,52.9,0,0,1-2.94-10.71c0-.16-.06-.34-.09-.53a1,1,0,0,1,.22-.77,10.56,10.56,0,0,1,8.51-4.26c6,0,8.91,4.57,10.65,7.31a19.21,19.21,0,0,0,1.54,2.19,19.13,19.13,0,0,0,1.53-2.19c1.74-2.74,4.65-7.31,10.66-7.31s8.91,4.56,10.64,7.27a19.72,19.72,0,0,0,1.56,2.23,19.21,19.21,0,0,0,1.54-2.19c1.74-2.73,4.64-7.31,10.66-7.31s8.92,4.58,10.65,7.31a18.37,18.37,0,0,0,1.54,2.19,19.6,19.6,0,0,0,1.54-2.19c1.73-2.73,4.64-7.31,10.65-7.31s8.91,4.56,10.65,7.28a19.52,19.52,0,0,0,1.55,2.22,18.37,18.37,0,0,0,1.54-2.19l.06-.09a16.85,16.85,0,0,1,5.3-5.79,1,1,0,0,1,.93-.05,1,1,0,0,1,.57.74c.14.82.27,1.63.37,2.43a1.22,1.22,0,0,1,0,.27c0,.22-.06.43-.1.64a52.16,52.16,0,0,1-4.2,13.7,1,1,0,0,1-.52.5A10.36,10.36,0,0,1,204.71,191.6ZM192.51,180c1.13,0,1.89,1.1,3.23,3.22,1.71,2.69,4,6.38,9,6.38a8.49,8.49,0,0,0,2.83-.47,50.27,50.27,0,0,0,3.85-12.71c0-.23.07-.39.09-.55l-.09-.64a18.49,18.49,0,0,0-3.4,4.26l-.05.09c-1.42,2.23-2.15,3.22-3.23,3.22s-1.81-1-3.22-3.23c-1.73-2.71-4.07-6.38-9-6.38s-7.25,3.69-9,6.38c-1.42,2.24-2.15,3.23-3.23,3.23s-1.81-1-3.23-3.23c-1.71-2.69-4.05-6.38-9-6.38s-7.26,3.69-9,6.38c-1.31,2.06-2.11,3.23-3.23,3.23s-1.81-1-3.22-3.23c-1.73-2.71-4.07-6.38-9-6.38s-7.25,3.69-9,6.38c-1.42,2.24-2.15,3.23-3.23,3.23s-1.92-1.17-3.23-3.23c-1.71-2.69-4-6.38-9-6.38a8.46,8.46,0,0,0-6.68,3.19v0a52.51,52.51,0,0,0,2.21,8.68c.44-.6.84-1.23,1.23-1.86,1.35-2.12,2.1-3.22,3.23-3.22s1.87,1.1,3.22,3.22c1.71,2.69,4.05,6.38,9,6.38s7.27-3.69,9-6.38c1.35-2.12,2.1-3.22,3.22-3.22s1.89,1.1,3.23,3.22c1.71,2.69,4,6.38,9,6.38s7.26-3.69,9-6.38c1.35-2.12,2.11-3.22,3.23-3.22s1.87,1.1,3.22,3.22c1.71,2.7,4.06,6.38,9,6.38s7.25-3.68,9-6.37C190.64,181.1,191.39,180,192.51,180Zm-48.94,2Zm-24,0ZM168,182Z" fill="#093f68"/><path d="M122.79,120.42a4.64,4.64,0,0,0,1.79.33c6.1,0,6.1-9.61,12.19-9.61s6.1,9.61,12.2,9.61,6.09-9.61,12.19-9.61,6.1,9.61,12.19,9.61,6.1-9.61,12.2-9.61,6.1,9.61,12.2,9.61a5,5,0,0,0,3.14-1.09l3.6,7.64h0c-1.77,2.68-3.27,5.77-6.74,5.77-6.1,0-6.1-9.6-12.2-9.6s-6.1,9.6-12.2,9.6-6.09-9.6-12.19-9.6-6.1,9.6-12.19,9.6-6.1-9.6-12.2-9.6-6.09,9.6-12.19,9.6c-2.77,0-4.28-2-5.67-4.14Z" fill="#fff"/><path d="M197.75,134.08c-3.6,0-5.38-2.8-6.95-5.26s-2.75-4.34-5.25-4.34-3.78,2-5.25,4.33c-1.57,2.47-3.35,5.27-7,5.27s-5.37-2.8-6.93-5.26-2.76-4.34-5.26-4.34-3.77,2-5.25,4.33c-1.57,2.47-3.34,5.27-6.94,5.27s-5.38-2.8-6.95-5.27-2.75-4.33-5.25-4.33-3.77,2-5.25,4.33c-1.56,2.47-3.34,5.27-6.94,5.27-3.27,0-5-2.27-6.51-4.6a1,1,0,0,1-.07-1l3.88-8.52a1,1,0,0,1,1.28-.51,3.78,3.78,0,0,0,1.42.26c2.5,0,3.78-2,5.25-4.34s3.35-5.27,6.94-5.27,5.37,2.8,6.94,5.27,2.76,4.34,5.26,4.34,3.77-2,5.25-4.34,3.34-5.27,6.94-5.27,5.38,2.8,7,5.27,2.75,4.34,5.24,4.34,3.78-2,5.26-4.34,3.34-5.27,6.94-5.27,5.38,2.8,6.94,5.27,2.76,4.34,5.26,4.34a4,4,0,0,0,2.53-.88,1,1,0,0,1,.84-.18,1,1,0,0,1,.68.54l3.59,7.65a1,1,0,0,1,.1.42,1,1,0,0,1-.17.56c-.21.32-.41.64-.61,1C203.14,131.28,201.36,134.08,197.75,134.08Zm-12.2-11.6c3.6,0,5.38,2.79,6.94,5.26s2.76,4.34,5.26,4.34,3.79-2,5.27-4.34l.33-.51-2.88-6.12a6,6,0,0,1-2.72.64c-3.6,0-5.38-2.8-6.95-5.27s-2.75-4.34-5.25-4.34-3.78,2-5.25,4.34-3.35,5.27-7,5.27-5.37-2.8-6.93-5.27-2.76-4.34-5.26-4.34-3.77,2-5.25,4.34-3.34,5.27-6.94,5.27-5.38-2.8-6.95-5.27-2.75-4.34-5.25-4.34-3.77,2-5.25,4.34-3.34,5.27-6.94,5.27a5.55,5.55,0,0,1-1.24-.13l-3.3,7.23c1.41,2.1,2.61,3.23,4.54,3.23,2.5,0,3.78-2,5.25-4.34s3.35-5.26,6.94-5.26,5.37,2.79,6.94,5.26,2.76,4.34,5.26,4.34,3.77-2,5.25-4.34,3.34-5.26,6.94-5.26,5.38,2.8,7,5.27c1.47,2.32,2.75,4.33,5.24,4.33s3.78-2,5.26-4.34S182,122.48,185.55,122.48Z" fill="#093f68"/><path d="M173.35,109.41c-3.59,0-5.37-2.8-6.93-5.27s-2.76-4.34-5.26-4.34-3.77,2-5.25,4.34-3.35,5.27-6.94,5.27-5.38-2.8-6.94-5.27c-1.45-2.28-2.7-4.25-5.09-4.33a1,1,0,0,1,.07-2c3.44.12,5.17,2.85,6.7,5.26s2.76,4.34,5.26,4.34,3.77-2,5.25-4.34,3.34-5.27,6.94-5.27,5.38,2.8,7,5.27,2.75,4.34,5.24,4.34,3.78-2,5.26-4.34,3.34-5.27,6.94-5.27a5.84,5.84,0,0,1,2.24.43,1,1,0,0,1-.77,1.85,3.64,3.64,0,0,0-1.47-.28c-2.5,0-3.78,2-5.25,4.34S177,109.41,173.35,109.41Z" fill="#093f68"/><path d="M204.1,197C194.7,210,179,216.25,162,216.25S129.37,210,120,197Z" fill="#fff"/><path d="M162,217.25c-18.49,0-33.72-7-42.88-19.65a1,1,0,0,1-.08-1A1,1,0,0,1,120,196H204.1a1,1,0,0,1,.89.55,1,1,0,0,1-.08,1C195.75,210.27,180.52,217.25,162,217.25ZM122,198c8.88,11.14,23,17.24,40.05,17.24s31.17-6.1,40.05-17.24Z" fill="#093f68"/></g></svg>