<svg xmlns="http://www.w3.org/2000/svg" viewBox="0 0 400 300"><g id="_448_easter_egg_outline" data-name="#448_easter_egg_outline"><path d="M258,173.74a76.56,76.56,0,0,1-1.05,12.92,57.39,57.39,0,0,1-7.79,21.09c-10.72,17.12-30,25.31-51.1,25.31s-40.4-8.19-51.12-25.31a51.11,51.11,0,0,1-4.13-8.12,57.5,57.5,0,0,1-2.64-8c-.38-1.59-.74-3.23-1-4.92a76.56,76.56,0,0,1-1-12.92A95,95,0,0,1,140.56,153c.61-2.84,1.36-5.7,2.22-8.55a138.09,138.09,0,0,1,5.29-14.75C159.82,101.9,180,78,198.05,78c14.62,0,30.72,15.75,42.53,36.58,1.92,3.39,3.74,6.9,5.39,10.51.71,1.51,1.39,3.05,2.05,4.59,0,0,0,0,0,0a142.27,142.27,0,0,1,5.29,14.73A104.3,104.3,0,0,1,258,173.74Z" fill="#fff"/><path d="M198,234.06c-22.76,0-41.69-9.4-51.95-25.78a52.45,52.45,0,0,1-4.22-8.28,58,58,0,0,1-2.67-8.18c-.44-1.77-.78-3.4-1-5a77.32,77.32,0,0,1-1.07-13.08,96.39,96.39,0,0,1,2.49-20.94c.6-2.76,1.36-5.66,2.24-8.62a140.16,140.16,0,0,1,5.33-14.85C157.79,104.15,178.25,77,198,77c14,0,30.24,13.86,43.42,37.09,2,3.5,3.8,7.06,5.42,10.58.67,1.42,1.36,3,2,4.58l0,.06h0a141.36,141.36,0,0,1,5.32,14.84A104.21,104.21,0,0,1,259,173.74a77.52,77.52,0,0,1-1.07,13.09A58.44,58.44,0,0,1,250,208.28C239.74,224.66,220.81,234.06,198,234.06Zm0-155c-16.17,0-36.34,21-49,51.07a138.54,138.54,0,0,0-5.27,14.64c-.86,2.91-1.6,5.76-2.2,8.48a94.36,94.36,0,0,0-2.44,20.51,75.67,75.67,0,0,0,1,12.75c.26,1.55.59,3.14,1,4.85a57.67,57.67,0,0,0,2.58,7.91,52,52,0,0,0,4.06,8C157.67,223,176,232.06,198,232.06s40.38-9.05,50.27-24.84A56.52,56.52,0,0,0,256,186.49a75.67,75.67,0,0,0,1-12.75,102.87,102.87,0,0,0-4.64-29,139.59,139.59,0,0,0-5.24-14.58l0-.06h0c-.67-1.61-1.35-3.14-2-4.55-1.6-3.48-3.4-7-5.36-10.45C227.09,92.86,211.12,79,198,79Z" fill="#093f68"/><path d="M240.67,114.8c1.15,2.7-1.7,12.44-1.82,15.69a174.92,174.92,0,0,1-2.16,18.67,13.31,13.31,0,0,1-1.4,5,4.57,4.57,0,0,1-4.26,2.4c-2.19-.29-3.51-2.61-3.93-4.77s-.25-4.46-1.07-6.5-3.23-3.73-5.21-2.74a4.76,4.76,0,0,0-1.86,2.08c-1.59,2.93-2.12,6.3-2.63,9.59-1.73,11.26-5.39,23.84-4.67,35.21.23,3.69.91,7.75-3.06,10.06s-8.26-.86-9.9-4.5c-1.52-3.36-1.56-7.17-2.35-10.77-1.09-5-6.28-18.31-12.27-9.72-1.54,2.21-2,5-2.37,7.65A388.82,388.82,0,0,0,178,229.57c-.06,3.68-.14,7.6-2.2,10.65s-6.92,4.47-9.45,1.8c-1.48-1.56-1.69-3.91-1.81-6.06-1-17.82-.58-36.12-2.62-53.84-1.19-10.27-11-26.6-21.31-29.1.61-2.84,1.36-5.7,2.22-8.55a138.09,138.09,0,0,1,5.29-14.75C159.82,101.9,180,78,198.05,78c14.62,0,30.72,15.75,42.53,36.58,1.92,3.39,3.74,6.9,5.39,10.51C243.92,121.94,242.56,118.13,240.67,114.8Z" fill="#68e1fd"/><path d="M169.77,244.43a5.64,5.64,0,0,1-4.19-1.72c-1.82-1.91-2-4.79-2.08-6.7-.36-6.47-.54-13.11-.71-19.53-.3-11.3-.62-23-1.91-34.24-1.09-9.42-10.41-25.79-20.56-28.25a1,1,0,0,1-.74-1.18c.6-2.77,1.36-5.67,2.24-8.63a140.16,140.16,0,0,1,5.33-14.85C157.79,104.15,178.25,77,198,77c14,0,30.24,13.86,43.42,37.09,2,3.5,3.8,7.06,5.42,10.58a1,1,0,0,1-.42,1.3,1,1,0,0,1-1.33-.34,52.72,52.72,0,0,1-3.12-6c-.08-.18-.16-.35-.25-.53-.21,1.74-.6,3.8-1.06,6.14a45.55,45.55,0,0,0-.85,5.21,138.92,138.92,0,0,1-1.73,15.78c-.15,1-.29,2-.43,3a14,14,0,0,1-1.55,5.32,5.57,5.57,0,0,1-5.25,2.88c-2.81-.37-4.32-3.24-4.77-5.57-.15-.83-.23-1.66-.3-2.46a13.43,13.43,0,0,0-.72-3.85,4.17,4.17,0,0,0-2.23-2.25,1.93,1.93,0,0,0-1.6,0,3.84,3.84,0,0,0-1.43,1.67c-1.51,2.8-2,6.08-2.52,9.26s-1.14,6.54-1.82,10c-1.64,8.37-3.34,17-2.84,25l.07.93c.24,3.4.54,7.63-3.62,10.05a6.49,6.49,0,0,1-5.41.57,10.23,10.23,0,0,1-5.91-5.52A27.3,27.3,0,0,1,196,188c-.17-1.19-.35-2.42-.61-3.6-1-4.42-4-11.13-6.87-11.71-1.15-.22-2.36.56-3.61,2.35-1.36,1.95-1.8,4.43-2.2,7.22A388.84,388.84,0,0,0,179,229.59c-.06,3.69-.13,7.87-2.38,11.19a8.63,8.63,0,0,1-6.22,3.63Zm-28-92.12c10.71,3.39,20,19.79,21.12,29.7,1.31,11.34,1.62,23.07,1.93,34.42.17,6.4.35,13,.7,19.47.12,2.14.33,4.16,1.54,5.43a3.77,3.77,0,0,0,3.16,1.08,6.67,6.67,0,0,0,4.73-2.75c1.91-2.83,2-6.53,2-10.11A390.94,390.94,0,0,1,180.72,182c.43-3.05.92-5.77,2.54-8.09,1.74-2.49,3.64-3.55,5.64-3.16,4.72.94,7.74,10.11,8.43,13.25.27,1.24.46,2.51.64,3.73a25.09,25.09,0,0,0,1.65,6.84,8.3,8.3,0,0,0,4.69,4.44,4.53,4.53,0,0,0,3.79-.39c3.09-1.81,2.87-4.91,2.63-8.19l-.06-.95c-.52-8.23,1.2-17,2.86-25.49.68-3.45,1.32-6.72,1.82-9.93s1.05-6.81,2.74-9.92a5.73,5.73,0,0,1,2.28-2.49,4,4,0,0,1,3.2-.12,6.14,6.14,0,0,1,3.38,3.37,15,15,0,0,1,.86,4.42,22.55,22.55,0,0,0,.28,2.28c.34,1.81,1.42,3.74,3.07,4a3.65,3.65,0,0,0,3.27-1.93,12.62,12.62,0,0,0,1.28-4.58c.14-1,.29-2,.43-3a141.27,141.27,0,0,0,1.72-15.56,42.31,42.31,0,0,1,.88-5.52c.69-3.5,1.63-8.3,1-9.75a0,0,0,0,0,0,0l0,0C227.09,92.86,211.12,79,198,79c-16.17,0-36.34,21-49,51.07a138.54,138.54,0,0,0-5.27,14.64C143,147.33,142.29,149.87,141.74,152.31Z" fill="#093f68"/><rect x="236.33" y="177.66" width="10.64" height="9.71" transform="translate(-60.65 200.37) rotate(-40.44)" fill="#ffbc0e"/><path d="M240.75,190.66a1,1,0,0,1-.76-.35l-6.3-7.39a1,1,0,0,1-.23-.73,1,1,0,0,1,.35-.68l8.09-6.9a1,1,0,0,1,1.41.11l6.3,7.39a1,1,0,0,1,.24.73,1,1,0,0,1-.35.68l-8.1,6.9A1,1,0,0,1,240.75,190.66Zm-4.89-8.28,5,5.87,6.57-5.6-5-5.87Z" fill="#093f68"/><path d="M248.85,182.76,285.61,153a6.07,6.07,0,0,0,.84-8.69h0a6.07,6.07,0,0,0-8.71-.54l-35.19,31.58Z" fill="#ad7972"/><path d="M248.85,183.76a1,1,0,0,1-.76-.35l-6.3-7.39a1,1,0,0,1,.09-1.4L277.07,143a7.07,7.07,0,1,1,9.16,10.76l-36.75,29.74A1,1,0,0,1,248.85,183.76Zm-4.9-8.3,5,5.91,36-29.13a5.07,5.07,0,0,0-2.83-9,5.06,5.06,0,0,0-3.74,1.31Z" fill="#093f68"/><rect x="231.53" y="182.09" width="7.08" height="12.08" rx="2.21" transform="translate(-65.87 197.44) rotate(-40.44)" fill="#ffbc0e"/><path d="M236.54,195.11A3.17,3.17,0,0,1,234.1,194l-5-5.82a3.22,3.22,0,0,1,.37-4.53l2-1.72a3.28,3.28,0,0,1,2.34-.76,3.19,3.19,0,0,1,2.19,1.12l5,5.82a3.19,3.19,0,0,1,.76,2.34,3.15,3.15,0,0,1-1.12,2.19h0l-2,1.72A3.2,3.2,0,0,1,236.54,195.11Zm-2.94-12a1.26,1.26,0,0,0-.79.29l-2,1.72a1.26,1.26,0,0,0-.42.83,1.18,1.18,0,0,0,.29.88l5,5.82a1.21,1.21,0,0,0,.83.43,1.24,1.24,0,0,0,.88-.29l2-1.72a1.21,1.21,0,0,0,.13-1.71l-5-5.82a1.16,1.16,0,0,0-.83-.42Zm6.4,8.72Z" fill="#093f68"/><path d="M229.45,185l7.83,9.18s-.44,3.78-7,7.75a36.8,36.8,0,0,1-5,2.51c-11.38,4.71-18.21-3.3-18.21-3.3,6.66,2.66,8.84-3.57,11-10.24l.27-.82C220.55,183.11,229.45,185,229.45,185Z" fill="#fff"/><path d="M218.28,206.9a16.83,16.83,0,0,1-12-5.12,1,1,0,0,1,1.13-1.58,5.14,5.14,0,0,0,4.23.19c2.68-1.26,4.15-5.8,5.44-9.8l.27-.84c2-6.17,8.92-6.46,12.3-5.74a.93.93,0,0,1,.55.33l7.83,9.19a1,1,0,0,1,.24.76c0,.17-.58,4.31-7.5,8.49a39.07,39.07,0,0,1-5.14,2.57A19.08,19.08,0,0,1,218.28,206.9Zm-7.72-4.17c2.83,1.76,7.74,3.5,14.31.77a37,37,0,0,0,4.88-2.43c4.8-2.9,6.1-5.65,6.44-6.64l-7.27-8.52c-1.54-.25-7.92-.93-9.66,4.47l-.27.83c-1.41,4.38-3,9.36-6.49,11A5.82,5.82,0,0,1,210.56,202.73Z" fill="#093f68"/><path d="M207.66,193.55a15.85,15.85,0,0,0,1.72,3.1c.88,1,2.65.71,3.7.16a7.29,7.29,0,0,0,2.62-2.5c.68-1,1.23-2.1,1.9-3.12a1,1,0,0,1,.39-.4c.57-.29,1.1.65,1.25,1.06a9.71,9.71,0,0,1,.48,2.2c.11.79.19,1.58.27,2.37a3.09,3.09,0,0,0,.19,1.25.73.73,0,0,0,.43.36A.8.8,0,0,0,221,198c.71-.27,1.33-.72,2.05-.93a1.66,1.66,0,0,1,2,.63c.27.57,0,1.25.09,1.88a1.75,1.75,0,0,0,1.25,1.45,5.26,5.26,0,0,0,1.38.08,4.44,4.44,0,0,1,2.49.85,36.8,36.8,0,0,1-5,2.51A18,18,0,0,1,206.1,201a6.28,6.28,0,0,1-2.06-4.3" fill="#68e1fd"/><path d="M218.29,206.8a18.53,18.53,0,0,1-12.88-5.06,7.27,7.27,0,0,1-2.37-5,1,1,0,0,1,1-1h0a1,1,0,0,1,1,1,5.33,5.33,0,0,0,1.75,3.59,16.94,16.94,0,0,0,18.08,3.2c1.09-.45,2.11-.92,3.07-1.42h-.56a3.84,3.84,0,0,1-1.27-.12,2.74,2.74,0,0,1-2-2.3,3.75,3.75,0,0,1,0-1,1.68,1.68,0,0,0,0-.61.83.83,0,0,0-.79-.1,5.44,5.44,0,0,0-1,.44,10.13,10.13,0,0,1-1,.47,1.91,1.91,0,0,1-1,.11,1.67,1.67,0,0,1-1.06-.8,2.82,2.82,0,0,1-.33-1.44c0-.09,0-.17,0-.24l0-.45c-.07-.63-.13-1.26-.22-1.89a10.32,10.32,0,0,0-.42-2l-.07-.15c-.23.36-.44.73-.66,1.1-.33.57-.67,1.16-1.06,1.72a8.17,8.17,0,0,1-3,2.83c-1.56.81-3.75.93-4.91-.39a9,9,0,0,1-1.38-2.32c-.15-.32-.3-.65-.47-1a1,1,0,0,1,1.76-1c.19.36.36.72.53,1.09a8,8,0,0,0,1.05,1.83c.45.5,1.66.37,2.51-.07a6.32,6.32,0,0,0,2.24-2.17c.35-.51.66-1,1-1.61s.59-1,.91-1.5a2.08,2.08,0,0,1,.78-.75,1.48,1.48,0,0,1,1.22,0,3,3,0,0,1,1.42,1.65,11.86,11.86,0,0,1,.53,2.42c.09.65.16,1.31.23,2l0,.44c0,.11,0,.23,0,.37a1.09,1.09,0,0,1,0,.19l.45-.22a7,7,0,0,1,1.35-.59,2.62,2.62,0,0,1,3.15,1.16,3,3,0,0,1,.19,1.64,3.49,3.49,0,0,0,0,.54.79.79,0,0,0,.53.62,2.41,2.41,0,0,0,.69,0h.45a5.54,5.54,0,0,1,3,1,1,1,0,0,1,.42.85,1,1,0,0,1-.48.82,39.07,39.07,0,0,1-5.14,2.57A19.15,19.15,0,0,1,218.29,206.8Z" fill="#093f68"/><path d="M208.93,219.84c.19-2.46-.24-6.39-2.25-8.17-4.35-3.87-7.4,2.53-7.56,6a9.14,9.14,0,0,0,1.44,5.91,4.7,4.7,0,0,0,5.47,1.74C208,224.45,208.77,222,208.93,219.84Z" fill="#68e1fd"/><path d="M204.5,226.68a6,6,0,0,1-4.74-2.47,9.93,9.93,0,0,1-1.64-6.56c.12-2.48,1.6-6.69,4.41-7.87,1.09-.47,2.81-.64,4.81,1.14,2.26,2,2.81,6.1,2.59,9h0c-.14,1.83-.77,5.1-3.48,6.34A4.69,4.69,0,0,1,204.5,226.68ZM204,211.46a1.64,1.64,0,0,0-.71.16c-1.69.71-3.07,3.82-3.18,6.13a8,8,0,0,0,1.25,5.26c.92,1.24,2.76,2.12,4.24,1.44,1.85-.85,2.24-3.56,2.33-4.68.19-2.55-.33-5.94-1.92-7.35A3.06,3.06,0,0,0,204,211.46Zm4.92,8.38h0Z" fill="#093f68"/><path d="M174.3,96.6l17.87-8.93v-17L174.3,61.72C169.7,59.42,164,62.33,164,67V91.37C164,96,169.7,98.9,174.3,96.6Z" fill="#f56132"/><path d="M170.87,98.41a8.59,8.59,0,0,1-4.51-1.27A6.74,6.74,0,0,1,163,91.37V67a6.74,6.74,0,0,1,3.38-5.77,8.69,8.69,0,0,1,8.39-.36l17.87,8.93a1,1,0,0,1,.55.9v17a1,1,0,0,1-.55.89L174.75,97.5A8.67,8.67,0,0,1,170.87,98.41Zm0-36.49a6.65,6.65,0,0,0-3.46,1A4.78,4.78,0,0,0,165,67V91.37a4.78,4.78,0,0,0,2.43,4.07,6.67,6.67,0,0,0,6.44.27h0l17.32-8.66V71.28l-17.32-8.66A6.62,6.62,0,0,0,170.87,61.92Z" fill="#093f68"/><path d="M176.94,86a1,1,0,0,1-.35-1.94l12.18-4.63-16.14-3.81a1,1,0,1,1,.46-2l19.31,4.56a1,1,0,0,1,.13,1.91L177.3,85.89A.92.92,0,0,1,176.94,86Z" fill="#093f68"/><path d="M221.79,96.6l-17.87-8.93v-17l17.87-8.94c4.6-2.3,10.32.61,10.32,5.24V91.37C232.11,96,226.39,98.9,221.79,96.6Z" fill="#f56132"/><path d="M225.22,98.41a8.67,8.67,0,0,1-3.88-.91l-17.87-8.94a1,1,0,0,1-.55-.89v-17a1,1,0,0,1,.55-.9l17.87-8.93a8.69,8.69,0,0,1,8.39.36A6.74,6.74,0,0,1,233.11,67V91.37a6.74,6.74,0,0,1-3.38,5.77A8.62,8.62,0,0,1,225.22,98.41Zm-20.3-11.36,17.32,8.66h0a6.67,6.67,0,0,0,6.44-.27,4.78,4.78,0,0,0,2.43-4.07V67a4.78,4.78,0,0,0-2.43-4.07,6.65,6.65,0,0,0-6.44-.27l-17.32,8.66Z" fill="#093f68"/><path d="M219.15,86a.92.92,0,0,1-.36-.07L203.56,80.1a1,1,0,0,1,.13-1.91L223,73.63a1,1,0,1,1,.46,2l-16.14,3.81L219.5,84a1,1,0,0,1-.35,1.94Z" fill="#093f68"/><rect x="190.21" y="69.3" width="15.66" height="19.72" rx="3.91" fill="#f56132"/><path d="M202,90h-7.85a4.93,4.93,0,0,1-4.91-4.91V73.21a4.92,4.92,0,0,1,4.91-4.91H202a4.92,4.92,0,0,1,4.91,4.91V85.12A4.93,4.93,0,0,1,202,90ZM194.12,70.3a2.92,2.92,0,0,0-2.91,2.91V85.12A2.92,2.92,0,0,0,194.12,88H202a2.92,2.92,0,0,0,2.91-2.91V73.21A2.92,2.92,0,0,0,202,70.3Z" fill="#093f68"/></g></svg>