<svg xmlns="http://www.w3.org/2000/svg" viewBox="0 0 400 300"><g id="_461_easter_bunny_outline" data-name="#461_easter_bunny_outline"><path d="M186,154.91s6.58,22.53,14.33,28.31S190.85,195.74,181,182s-9.3-22.31-9.3-22.31" fill="#fff"/><path d="M195.34,191.07c-4.65,0-10.63-2.16-15.17-8.48-10-13.87-9.51-22.6-9.49-23a1,1,0,0,1,1.07-.93,1,1,0,0,1,.93,1.06c0,.08-.37,8.45,9.11,21.66,4.94,6.87,11.64,8.3,15.87,7.43,2-.4,3.39-1.32,3.62-2.34s-.85-2-1.51-2.49c-7.93-5.91-14.42-27.9-14.69-28.83a1,1,0,0,1,1.92-.56c.06.22,6.57,22.27,14,27.79,2.44,1.83,2.46,3.62,2.26,4.53-.41,1.84-2.34,3.28-5.17,3.86A13.58,13.58,0,0,1,195.34,191.07Z" fill="#093f68"/><path d="M176.07,215c.58.14,24.74-2.46,22,4.34s-32,22.61-37,12S176.07,215,176.07,215Z" fill="#fff"/><path d="M168.06,235.92c-4.94,0-7-2.22-7.94-4.11a8.12,8.12,0,0,1-.17-7.08c3.12-6.94,15.32-10.55,15.84-10.7a.86.86,0,0,1,.39,0h0c.17,0,.74,0,1.35-.08,8.59-.54,18.75-.72,21.18,2.65a3.12,3.12,0,0,1,.27,3.14c-2.32,5.75-20,15.89-30.42,16.2ZM176.2,216c-1.39.43-11.86,3.84-14.42,9.55a6.12,6.12,0,0,0,.15,5.4c1,2.06,3.17,3.06,6.57,3,4.54-.13,11.07-2.33,17.46-5.87,5.78-3.19,10.27-6.85,11.17-9.08a1.14,1.14,0,0,0,0-1.22c-1-1.32-5.1-2.72-19.44-1.82Z" fill="#093f68"/><path d="M181,106.17s-1.15-31.25-24.3-45.71c0,0-5.79,8.68,0,26S170,112,170,112Z" fill="#fff"/><path d="M170,113a1,1,0,0,1-.74-.32c-.31-.34-7.73-8.46-13.52-25.83-5.87-17.62-.13-26.54.12-26.91a1,1,0,0,1,1.36-.29C180.54,74.19,182,105.81,182,106.13a1,1,0,0,1-.53.92l-11,5.79A.93.93,0,0,1,170,113ZM157.05,61.89c-1.18,2.55-4,10.7.58,24.29,4.8,14.42,10.85,22.4,12.6,24.52l9.71-5.11C179.62,101.22,176.87,75,157.05,61.89Z" fill="#093f68"/><path d="M170.86,98.94S153.5,67.69,130.64,63.35c0,0-3.36,15,5.32,27.15s21.62,18.38,21.62,18.38a20.69,20.69,0,0,0-3.47,18.41c3.15,10.71,9.8,11.28,9.8,11.28s-21.14,3-37.25,28.28c-16,25.08-11.64,34.69-11.64,34.69s-8.39-8.25-15.63-1,2.61,23.72,13.89,27.19,8.5-8.17,8.5-8.17,2.78,12,10.89,15.71,31.94,1.86,36.74,1.54c15.78-1.06,1.6-12.76-1.45-14,0,0,9.55,0,17.65-22.28s1.06-52.41,1.06-52.41,13.41-3.72,18-11.24-6.37-12.15-8.1-16.49S198,99.61,170.86,98.94Z" fill="#fff"/><path d="M151.35,238.53c-9.26,0-15.66-.79-19.1-2.36-4.82-2.21-7.82-7.07-9.54-10.92a5.84,5.84,0,0,1-1.56,2.66c-1.75,1.64-4.5,1.9-8.16.77-7.36-2.26-14.64-10.16-16.59-18-1.1-4.44-.29-8.3,2.29-10.88,5.1-5.1,11.09-3.29,14.84-.76-.34-4.57.85-14.8,12.28-32.75,12.57-19.73,28-26.07,34.67-28-2.38-1.41-5.46-4.4-7.33-10.77a21.58,21.58,0,0,1,2.92-18.34c-3.33-1.79-13.55-7.83-20.92-18.15-8.84-12.37-5.63-27.32-5.49-27.95a1,1,0,0,1,1.17-.76c12.09,2.29,22.58,12,29.25,19.75A112.37,112.37,0,0,1,171.44,98c22.86.76,24.59,12.72,25.52,19.17a16.35,16.35,0,0,0,.57,2.86c.48,1.19,1.95,2.57,3.51,4,3.41,3.19,8.08,7.57,4.52,13.35-4.12,6.7-14.55,10.41-17.72,11.41,1.09,5.26,6,31.95-1.29,52.06-5.83,16-12.5,20.86-16.05,22.31,3.14,2.25,7.77,6.73,7.18,10.3-.43,2.55-3.19,4-8.2,4.36l-.77,0Q158.81,238.54,151.35,238.53Zm-28.59-19.2c0,.22,2.81,11.57,10.32,15,5,2.28,16.92,2.79,35.49,1.5l.77,0c3.86-.26,6.12-1.21,6.37-2.69.5-3-6-8.52-8.13-9.42a1,1,0,0,1,.38-1.92c.08,0,9-.47,16.71-21.62,7.91-21.74,1.1-51.55,1-51.85a1,1,0,0,1,.7-1.19c.13,0,13.09-3.7,17.46-10.8,2.5-4.07-.16-7.06-4.19-10.84-1.72-1.62-3.35-3.14-4-4.75a15.38,15.38,0,0,1-.7-3.32c-.91-6.33-2.45-16.92-24.15-17.46a1,1,0,0,1-.85-.52c-.17-.3-16.89-30-38.54-34.88-.53,3.46-1.73,15.48,5.34,25.38,8.42,11.79,21.11,18,21.24,18.06a1,1,0,0,1,.54.7,1,1,0,0,1-.22.85A19.88,19.88,0,0,0,155.07,127c2.89,9.84,8.69,10.54,8.94,10.57a1,1,0,0,1,0,2,42,42,0,0,0-12.34,4.6c-6.53,3.51-16,10.39-24.21,23.22-15.37,24.12-11.61,33.67-11.57,33.76a1,1,0,0,1-.35,1.22,1,1,0,0,1-1.26-.11c-.32-.3-7.78-7.45-14.22-1-2.64,2.64-2.41,6.35-1.76,9,1.79,7.2,8.48,14.47,15.23,16.55,2.94.9,5,.79,6.21-.31,1.74-1.64,1.34-5.34,1-6.66v0a1,1,0,0,1,1.94-.46h0Z" fill="#093f68"/><path d="M281.21,181.73a11.33,11.33,0,1,1-22.65,0c0-6.25,5.07-17.63,11.33-17.63S281.21,175.48,281.21,181.73Z" fill="#e28362"/><path d="M269.89,194.06a12.34,12.34,0,0,1-12.33-12.33c0-6.38,5.2-18.63,12.33-18.63s12.32,12.25,12.32,18.63A12.34,12.34,0,0,1,269.89,194.06Zm0-29c-5.33,0-10.33,10.38-10.33,16.63a10.33,10.33,0,1,0,20.65,0C280.21,175.48,275.21,165.1,269.89,165.1Z" fill="#093f68"/><path d="M235.41,178.33a11.32,11.32,0,1,1-19.93,10.75c-3-5.5-3.91-17.93,1.59-20.9S232.44,172.82,235.41,178.33Z" fill="#f56132"/><path d="M225.46,196a12.34,12.34,0,0,1-10.86-6.47c-3-5.62-4.27-18.87,2-22.25,2.8-1.52,6.75-.83,11.13,1.92a26,26,0,0,1,8.56,8.62A12.33,12.33,0,0,1,225.46,196Zm-5.56-27.5a4.91,4.91,0,0,0-2.35.53c-4.69,2.53-4.17,14-1.19,19.55a10.32,10.32,0,1,0,18.17-9.81h0a24.29,24.29,0,0,0-7.87-7.88A13.36,13.36,0,0,0,219.9,168.53Z" fill="#093f68"/><path d="M258.28,177.33a11.33,11.33,0,0,1-22.66,0c0-6.26,5.08-17.64,11.33-17.64S258.28,171.07,258.28,177.33Z" fill="#70cc40"/><path d="M247,189.65a12.34,12.34,0,0,1-12.33-12.32c0-6.38,5.21-18.64,12.33-18.64s12.33,12.26,12.33,18.64A12.34,12.34,0,0,1,247,189.65Zm0-29c-5.32,0-10.33,10.38-10.33,16.64a10.33,10.33,0,0,0,20.66,0C257.28,171.07,252.28,160.69,247,160.69Z" fill="#093f68"/><path d="M297.79,187.91a11.33,11.33,0,0,1-21.93-5.7c1.58-6.06,9.35-15.79,15.4-14.22S299.36,181.85,297.79,187.91Z" fill="#ffbc0e"/><path d="M286.83,197.38a12.66,12.66,0,0,1-3.1-.39,12.35,12.35,0,0,1-8.83-15,26,26,0,0,1,6.27-10.41c3.59-3.71,7.27-5.32,10.35-4.52s5.5,4,6.83,9a25.93,25.93,0,0,1,.41,12.15A12.35,12.35,0,0,1,286.83,197.38Zm3.1-28.56c-2.15,0-4.75,1.45-7.33,4.11a24.32,24.32,0,0,0-5.77,9.53,10.33,10.33,0,0,0,20,5.19,24.16,24.16,0,0,0-.4-11.13c-1.12-4.2-3.09-7-5.41-7.56A4.2,4.2,0,0,0,289.93,168.82Z" fill="#093f68"/><rect x="172.74" y="183.22" width="42.53" height="6.55" rx="3.27" fill="#68e1fd"/><path d="M212,190.77H176a4.28,4.28,0,1,1,0-8.55h36a4.28,4.28,0,1,1,0,8.55Zm-36-6.55a2.28,2.28,0,1,0,0,4.55h36a2.28,2.28,0,1,0,0-4.55Z" fill="#093f68"/><polygon points="209.55 183.22 303.08 183.22 297.31 225.37 215.32 225.37 209.55 183.22" fill="#68e1fd"/><path d="M297.31,226.37h-82a1,1,0,0,1-1-.86l-5.77-42.15a1,1,0,0,1,.24-.79,1,1,0,0,1,.75-.35h93.53a1,1,0,0,1,1,1.14l-5.77,42.15A1,1,0,0,1,297.31,226.37Zm-81.12-2h80.25l5.5-40.15H210.7Z" fill="#093f68"/><circle cx="280.57" cy="225.37" r="11.26" fill="#fff"/><path d="M280.57,237.63a12.26,12.26,0,1,1,12.26-12.26A12.27,12.27,0,0,1,280.57,237.63Zm0-22.51a10.26,10.26,0,1,0,10.26,10.25A10.27,10.27,0,0,0,280.57,215.12Z" fill="#093f68"/><circle cx="280.57" cy="225.37" r="4.28" fill="#093f68"/><path d="M280.57,230.65a5.28,5.28,0,1,1,5.27-5.28A5.29,5.29,0,0,1,280.57,230.65Zm0-8.55a3.28,3.28,0,1,0,3.27,3.27A3.28,3.28,0,0,0,280.57,222.1Z" fill="#093f68"/><circle cx="231.11" cy="225.37" r="11.26" fill="#fff"/><path d="M231.11,237.63a12.26,12.26,0,1,1,12.26-12.26A12.27,12.27,0,0,1,231.11,237.63Zm0-22.51a10.26,10.26,0,1,0,10.26,10.25A10.26,10.26,0,0,0,231.11,215.12Z" fill="#093f68"/><circle cx="231.11" cy="225.37" r="4.28" fill="#093f68"/><path d="M231.11,230.65a5.28,5.28,0,1,1,5.28-5.28A5.29,5.29,0,0,1,231.11,230.65Zm0-8.55a3.28,3.28,0,1,0,3.28,3.27A3.28,3.28,0,0,0,231.11,222.1Z" fill="#093f68"/><ellipse cx="204.56" cy="132.35" rx="4.2" ry="2.31" fill="#093f68"/><path d="M204.56,135.67c-3,0-5.19-1.43-5.19-3.32s2.23-3.31,5.19-3.31,5.2,1.42,5.2,3.31S207.52,135.67,204.56,135.67Zm0-4.63c-2,0-3.19.85-3.19,1.31s1.21,1.32,3.19,1.32,3.2-.85,3.2-1.32S206.54,131,204.56,131Z" fill="#093f68"/><path d="M168,223.77a1,1,0,0,1-.61-.21c-2.51-1.93-11.07-2-14.16-1.81a1,1,0,0,1-.79-1.68c.12-.12,11.52-12.84,7.65-28.6-1.12-4.56-3-7.28-5.51-8.07-4.26-1.34-9.3,3-9.35,3.08a1,1,0,1,1-1.32-1.5c.23-.21,5.93-5.16,11.26-3.49,3.25,1,5.56,4.21,6.86,9.5,3.31,13.49-3.58,24.56-6.7,28.7,3.65,0,10.56.2,13.28,2.28a1,1,0,0,1,.19,1.41A1,1,0,0,1,168,223.77Z" fill="#093f68"/><path d="M118.49,212.23a1,1,0,0,1-.82-.42c-1.65-2.34-3.43-9.24-3.62-10a1,1,0,1,1,1.94-.49c.51,2,2.1,7.63,3.32,9.36a1,1,0,0,1-.24,1.39A1,1,0,0,1,118.49,212.23Z" fill="#093f68"/><circle cx="190.67" cy="116.01" r="2.28" fill="#093f68"/><polygon points="250.07 188.3 243.35 211.12 250.07 207.72 253.8 213.13 256.98 186.09 250.07 188.3" fill="#68e1fd"/><path d="M253.8,214.13a1,1,0,0,1-.82-.44L249.74,209l-5.94,3a1,1,0,0,1-1.41-1.18L249.11,188a1,1,0,0,1,.66-.67l6.91-2.2a1,1,0,0,1,.94.18,1,1,0,0,1,.36.89l-3.18,27a1,1,0,0,1-.75.86A1.07,1.07,0,0,1,253.8,214.13Zm-3.73-7.41a1,1,0,0,1,.82.43l2.23,3.23,2.69-22.86-4.93,1.57L245,209.19l4.66-2.36A.91.91,0,0,1,250.07,206.72Z" fill="#093f68"/><polygon points="263.9 188.3 270.62 211.12 263.9 207.72 260.16 213.13 256.98 186.09 263.9 188.3" fill="#68e1fd"/><path d="M260.16,214.13a1,1,0,0,1-.24,0,1,1,0,0,1-.75-.86l-3.18-27a1,1,0,0,1,1.3-1.07l6.91,2.2a1,1,0,0,1,.66.67l6.72,22.83a1,1,0,0,1-.32,1,1,1,0,0,1-1.09.13l-5.95-3L261,213.69A1,1,0,0,1,260.16,214.13Zm-2-26.61,2.69,22.86,2.22-3.23a1,1,0,0,1,1.28-.32l4.66,2.36-5.92-20.1Z" fill="#093f68"/><path d="M244.13,193.27l9.67-4.84v-9.21l-9.67-4.84c-2.49-1.24-5.59.33-5.59,2.84v13.21C238.54,192.94,241.64,194.51,244.13,193.27Z" fill="#68e1fd"/><path d="M242.27,194.7a5.09,5.09,0,0,1-2.68-.75,4.1,4.1,0,0,1-2.05-3.52V177.22a4.1,4.1,0,0,1,2.05-3.52,5.16,5.16,0,0,1,5-.21l9.68,4.84a1,1,0,0,1,.55.89v9.21a1,1,0,0,1-.55.89l-9.68,4.84h0A5.15,5.15,0,0,1,242.27,194.7Zm1.86-1.43h0ZM242.27,175a3.13,3.13,0,0,0-1.63.45,2.16,2.16,0,0,0-1.1,1.82v13.21a2.16,2.16,0,0,0,1.1,1.82,3.13,3.13,0,0,0,3,.12l9.12-4.56v-8l-9.12-4.56A3.17,3.17,0,0,0,242.27,175Z" fill="#093f68"/><path d="M245.56,188a1,1,0,0,1-.36-1.93l5.2-2-7.28-1.72a1,1,0,1,1,.46-2L254,182.85a1,1,0,0,1,.13,1.91l-8.25,3.14A1,1,0,0,1,245.56,188Z" fill="#093f68"/><path d="M269.84,193.27l-9.68-4.84v-9.21l9.68-4.84c2.49-1.24,5.59.33,5.59,2.84v13.21C275.43,192.94,272.33,194.51,269.84,193.27Z" fill="#68e1fd"/><path d="M271.7,194.7a5.22,5.22,0,0,1-2.31-.54h0l-9.67-4.84a1,1,0,0,1-.56-.89v-9.21a1,1,0,0,1,.56-.89l9.67-4.84a5.18,5.18,0,0,1,5,.21,4.12,4.12,0,0,1,2.05,3.52v13.21a4.12,4.12,0,0,1-2.05,3.52A5.12,5.12,0,0,1,271.7,194.7Zm-1.41-2.33a3.13,3.13,0,0,0,3-.12,2.16,2.16,0,0,0,1.1-1.82V177.22a2.16,2.16,0,0,0-1.1-1.82,3.13,3.13,0,0,0-3-.12l-9.13,4.56v8Z" fill="#093f68"/><path d="M268.41,188a1.13,1.13,0,0,1-.36-.06l-8.24-3.14a1,1,0,0,1,.12-1.91l10.46-2.47a1,1,0,1,1,.46,2l-7.28,1.72,5.19,2a1,1,0,0,1-.35,1.93Z" fill="#093f68"/><rect x="252.74" y="178.49" width="8.48" height="10.68" rx="2.12" fill="#68e1fd"/><path d="M259.11,190.16h-4.25a3.12,3.12,0,0,1-3.12-3.11V180.6a3.12,3.12,0,0,1,3.12-3.11h4.25a3.11,3.11,0,0,1,3.11,3.11v6.45A3.11,3.11,0,0,1,259.11,190.16Zm-4.25-10.67a1.12,1.12,0,0,0-1.12,1.11v6.45a1.12,1.12,0,0,0,1.12,1.11h4.25a1.11,1.11,0,0,0,1.11-1.11V180.6a1.11,1.11,0,0,0-1.11-1.11Z" fill="#093f68"/><path d="M164.09,103.48a.91.91,0,0,1-.23,0c-.31-.07-7.57-1.86-11.35-4.85A1,1,0,1,1,153.76,97c2.38,1.89,6.51,3.31,8.84,4C156.52,83.15,134.19,71.82,134,71.71a1,1,0,0,1-.44-1.34,1,1,0,0,1,1.34-.45,77.7,77.7,0,0,1,13,8.63c6.28,5.08,14.35,13.32,17.19,23.67a1,1,0,0,1-.25,1A1,1,0,0,1,164.09,103.48Z" fill="#093f68"/><path d="M198,140.53a5.78,5.78,0,0,1-1.88-.3c-2-.68-3.43-2.47-4.16-5.31a1,1,0,1,1,1.93-.5c.56,2.14,1.52,3.46,2.87,3.92,2.51.85,6.12-1.36,7.3-2.29a1,1,0,0,1,1.24,1.57C205.15,137.76,201.59,140.53,198,140.53Z" fill="#093f68"/><path d="M182.38,154.91s-1.69,9.7,1.13,16.45,13,11.29,10.7,17.33-28.72-.12-31.82-29" fill="#fff"/><path d="M189.54,191.8a13.69,13.69,0,0,1-1.87-.13c-9.31-1.17-24-10.62-26.27-31.87a1,1,0,1,1,2-.21c2.16,20.09,15.86,29,24.54,30.1,2.77.35,4.92-.19,5.35-1.35,1.11-3-1.6-5.71-4.73-8.88-2.33-2.35-4.74-4.78-6-7.71-2.89-6.95-1.26-16.61-1.19-17a1,1,0,0,1,2,.35c0,.09-1.61,9.5,1.06,15.9,1.07,2.57,3.34,4.86,5.53,7.08,3.32,3.34,6.74,6.8,5.18,11C194.48,190.82,192.44,191.8,189.54,191.8Z" fill="#093f68"/></g></svg>