<svg xmlns="http://www.w3.org/2000/svg" viewBox="0 0 400 300"><g id="_429_eating_salad_outline" data-name="#429_eating_salad_outline"><path d="M243.06,177.48c-2.95-13.22-16.27-27.88-30.23-29.48a50.73,50.73,0,0,0-7.6-.06c-4.65.16-9.25-.61-13.89-.54-6.74.09-14.73,4.27-19,9.38-4.74,5.66-7.67,12.55-11.71,18.68-1.25,1.9-2.59,3.72-4.94,3.89-2.15.15-4.34-.76-6.44-1s-4.18.76-6,1.56a4.45,4.45,0,0,0-2.09,1.45,4,4,0,0,0-.52,2c-.53,8.41,2.56,15,10.71,18a12.58,12.58,0,0,0,5.12,1,15,15,0,0,0,4.81-1.41c4.81-2.08,9.6-4.63,13-8.65a14.51,14.51,0,0,1,.3,4.7c-.55,12.16-1,24.12-1,36.31h53.56V223.12c4.44-.82,9-1.44,13.36-2.46s3.22-3.92,3.32-7.95l.38-14.64c.17-6.57.34-13.75-1.08-20.36C243.09,177.63,243.07,177.56,243.06,177.48Z" fill="#68e1fd"/><path d="M227.12,234.34H173.56a1,1,0,0,1-1-1c0-12.82.52-25.49,1-36.36,0-.81.07-1.64,0-2.46-3.51,3.46-7.94,5.66-11.92,7.38a15.34,15.34,0,0,1-5.14,1.48,13.61,13.61,0,0,1-5.53-1c-8-3-12-9.58-11.36-19a5,5,0,0,1,.68-2.52,5.5,5.5,0,0,1,2.52-1.82l.29-.13c1.8-.8,4.05-1.79,6.24-1.5a22.59,22.59,0,0,1,2.45.49,13,13,0,0,0,3.79.53c1.85-.13,3-1.64,4.18-3.44,1.52-2.31,2.91-4.78,4.26-7.17a74.79,74.79,0,0,1,7.51-11.6c4.64-5.55,13-9.65,19.76-9.74,2.24,0,4.48.12,6.65.28a69.39,69.39,0,0,0,7.22.26l.76,0a46.74,46.74,0,0,1,7,.1c6.77.78,13.81,4.57,19.84,10.67,5.65,5.73,9.75,12.87,11.24,19.59l.05.23c1.46,6.81,1.27,14.14,1.1,20.6l-.38,14.64c0,.73,0,1.42,0,2.07.09,2.86.18,5.83-4.12,6.83-3,.69-6,1.2-9,1.69l-3.62.62v9.39A1,1,0,0,1,227.12,234.34Zm-52.56-2h51.56v-9.22a1,1,0,0,1,.82-1c1.48-.27,3-.52,4.47-.77,2.92-.49,5.94-1,8.84-1.67,2.57-.6,2.67-1.71,2.58-4.82,0-.69-.05-1.41,0-2.18l.38-14.65c.17-6.34.36-13.54-1.05-20.12l0-.22h0c-2.74-12.3-15.47-27.11-29.36-28.7a45.26,45.26,0,0,0-6.69-.09l-.76,0a67.79,67.79,0,0,1-7.44-.27c-2.12-.15-4.33-.31-6.47-.27-6.17.08-14,4-18.26,9a74.36,74.36,0,0,0-7.3,11.3c-1.36,2.42-2.77,4.93-4.33,7.29-1.08,1.64-2.72,4.12-5.71,4.33a14.63,14.63,0,0,1-4.39-.57,20.94,20.94,0,0,0-2.25-.46c-1.64-.22-3.51.62-5.16,1.35l-.3.13a3.68,3.68,0,0,0-1.65,1.09,3.17,3.17,0,0,0-.37,1.54c-.54,8.63,2.85,14.36,10.07,17.06a11.74,11.74,0,0,0,4.71.91,13.7,13.7,0,0,0,4.47-1.33c4.32-1.86,9.2-4.32,12.62-8.37a1,1,0,0,1,1.72.37,15.38,15.38,0,0,1,.34,5C175.09,207.64,174.59,219.91,174.56,232.34Z" fill="#093f68"/><path d="M190.81,157.53a8.33,8.33,0,0,0,0,1.12,2.2,2.2,0,0,0,.31,1.12,3,3,0,0,0,2.45,1c2.59.18,5.31.15,7.68-1.06a9.78,9.78,0,0,0,1.56-1c.47-.37,1.06-1.27,1.58-1.49s.79.64,1.22,1.16a13.38,13.38,0,0,0,1.76,1.69A10.6,10.6,0,0,0,212,162.6a4.38,4.38,0,0,0,3.43-.58c1.8-1.38,3-4.37,2.2-6.58-.91-2.53-3.22-4.58-5.38-6.06a11.07,11.07,0,0,0-1.19-.72c-2.8-1.45-5.71-2.74-8.92-1.76C197.47,148.32,191.26,152,190.81,157.53Z" fill="#fff"/><path d="M213.07,163.71a7,7,0,0,1-1.27-.12,11.73,11.73,0,0,1-5.08-2.76,14,14,0,0,1-1.89-1.82,3.65,3.65,0,0,1-.38-.59c-.11.11-.21.23-.29.32a6.64,6.64,0,0,1-.75.75,11.19,11.19,0,0,1-1.71,1.09c-2.65,1.35-5.64,1.34-8.21,1.16-.79-.05-2.42-.17-3.22-1.43a3.28,3.28,0,0,1-.47-1.6,10.59,10.59,0,0,1,0-1.26h0c.48-5.94,6.78-9.91,12-11.51,3.56-1.08,6.73.31,9.67,1.83a13.35,13.35,0,0,1,1.3.79c3,2.05,4.93,4.25,5.75,6.54,1,2.8-.53,6.18-2.53,7.71A4.85,4.85,0,0,1,213.07,163.71Zm-8.48-7.55c.87,0,1.37.87,1.55,1.2a2.45,2.45,0,0,0,.24.38,11.33,11.33,0,0,0,1.62,1.55,9.86,9.86,0,0,0,4.17,2.33,3.32,3.32,0,0,0,2.63-.4c1.42-1.08,2.52-3.64,1.87-5.44s-2.36-3.76-5-5.57a12.55,12.55,0,0,0-1.09-.67c-2.68-1.38-5.32-2.55-8.17-1.68-3.73,1.13-10.17,4.47-10.6,9.75h0a6.28,6.28,0,0,0,0,1,1.47,1.47,0,0,0,.15.65c.23.37,1,.47,1.68.52,2.3.16,5,.18,7.16-.95a8.8,8.8,0,0,0,1.39-.89,5.94,5.94,0,0,0,.49-.5,3.79,3.79,0,0,1,1.32-1.12A1.59,1.59,0,0,1,204.59,156.16Z" fill="#093f68"/><path d="M224,204.72h0a1,1,0,0,1-1-1l1.11-34.11a1,1,0,0,1,1-1,1,1,0,0,1,1,1L225,203.75A1,1,0,0,1,224,204.72Z" fill="#093f68"/><path d="M172.28,193.28a1,1,0,0,1-.44-.1,1,1,0,0,1-.45-1.34l11.26-22.67a1,1,0,0,1,1.79.89l-11.26,22.67A1,1,0,0,1,172.28,193.28Z" fill="#093f68"/><path d="M127,182.23h44.45a0,0,0,0,1,0,0v5.91a0,0,0,0,1,0,0H127a3,3,0,0,1-3-3v0A3,3,0,0,1,127,182.23Z" transform="translate(67.69 -37.77) rotate(18.83)" fill="#fff"/><path d="M169.18,196.62a.93.93,0,0,1-.32-.05l-42.07-14.35a4,4,0,0,1-2.47-5,4,4,0,0,1,5-2.46l42.07,14.35a1,1,0,0,1,.58.5,1,1,0,0,1,0,.77L170.13,196A1,1,0,0,1,169.18,196.62Zm-41.12-20.09a1.9,1.9,0,0,0-.86.2,2,2,0,0,0,.23,3.6l41.13,14,1.26-3.69-41.13-14A1.89,1.89,0,0,0,128.06,176.53Z" fill="#093f68"/><circle cx="173.56" cy="192.57" r="4.35" fill="#f56132"/><path d="M173.56,197.92a5.35,5.35,0,1,1,5.36-5.35A5.36,5.36,0,0,1,173.56,197.92Zm0-8.7a3.35,3.35,0,1,0,3.36,3.35A3.35,3.35,0,0,0,173.56,189.22Z" fill="#093f68"/><path d="M216.12,185.25c.14.1.28.2.41.31a1.49,1.49,0,0,0,.77.45,1.39,1.39,0,0,0,.75-.26,7.49,7.49,0,0,1,7.28.19c1.45.88,2.64,2.6,2.13,4.22a4.47,4.47,0,0,1,3.82,3.42,11.53,11.53,0,0,1-.18,5.44c-.57,2.74-1.16,4.38.86,6.44,1.61,1.64,3.4,3.12,3.16,5.64a9.76,9.76,0,0,1-2.27,5,24.77,24.77,0,0,1-9.75,7.21,32.17,32.17,0,0,1-10.88,2.57c-7.3.42-14.86-1.84-20.21-6.82a22,22,0,0,1-6.86-13.69,14.73,14.73,0,0,1,.72-6.56c.79-2.29.78-4.41,1.17-6.77.37-2.19,1.77-4.9,4.19-5.27,1.42-.22,2,.45,3,1.14a7.67,7.67,0,0,0,5.87.88c2.47-.85,3.91-2.26,6.79-1.51a4.67,4.67,0,0,0,2.29.32,5.33,5.33,0,0,0,2-1.47C212.52,184.9,214.57,184.14,216.12,185.25Z" fill="#70cc40"/><path d="M210.47,226.9a28.06,28.06,0,0,1-19.14-7.14,23.06,23.06,0,0,1-7.18-14.32,15.84,15.84,0,0,1,.77-7,19.6,19.6,0,0,0,.83-4.33c.09-.74.18-1.5.31-2.27.45-2.73,2.18-5.67,5-6.1a4,4,0,0,1,3.26,1l.48.34a6.72,6.72,0,0,0,5,.76,18.13,18.13,0,0,0,1.72-.71,7.62,7.62,0,0,1,5.64-.82l.44.12a2.89,2.89,0,0,0,1.35.2,3,3,0,0,0,1.08-.81l.46-.44c1.66-1.48,4.21-2.33,6.19-.92h0a4.45,4.45,0,0,1,.48.38l.2.17.15-.08a8.45,8.45,0,0,1,8.32.19,5.37,5.37,0,0,1,2.73,4.24,5.77,5.77,0,0,1,3.66,4,12.36,12.36,0,0,1-.16,5.91l-.15.7c-.5,2.3-.72,3.34.74,4.84l.49.49c1.51,1.5,3.22,3.21,3,5.94a10.56,10.56,0,0,1-2.48,5.49,25.78,25.78,0,0,1-10.15,7.52,33.05,33.05,0,0,1-11.21,2.65C211.67,226.88,211.07,226.9,210.47,226.9Zm-18.73-39.2-.36,0c-1.84.28-3,2.5-3.35,4.44-.12.75-.21,1.47-.29,2.18a21.37,21.37,0,0,1-.93,4.76,13.9,13.9,0,0,0-.67,6.13,21,21,0,0,0,6.55,13,26.28,26.28,0,0,0,19.47,6.56,31.12,31.12,0,0,0,10.54-2.49,23.76,23.76,0,0,0,9.36-6.91,8.68,8.68,0,0,0,2.07-4.44c.17-1.8-1-3-2.38-4.35l-.5-.5c-2.23-2.27-1.78-4.3-1.27-6.66l.15-.69a10.8,10.8,0,0,0,.18-5,3.49,3.49,0,0,0-2.88-2.7,1,1,0,0,1-.78-.42,1,1,0,0,1-.14-.87c.34-1.11-.62-2.41-1.7-3.06a6.42,6.42,0,0,0-6.28-.17,2.33,2.33,0,0,1-1.31.37,2.21,2.21,0,0,1-1.29-.63,3.71,3.71,0,0,0-.39-.31h0c-1.08-.77-2.63-.16-3.69.78-.14.12-.27.25-.4.38a3.61,3.61,0,0,1-4.38,1.11l-.39-.11c-1.76-.46-2.83,0-4.31.7-.59.27-1.2.54-1.91.79a8.69,8.69,0,0,1-6.73-1l-.55-.38A2.4,2.4,0,0,0,191.74,187.7Z" fill="#093f68"/><path d="M214.84,199.2a11.8,11.8,0,0,1-19.39-13.47Z" fill="#f56132"/><path d="M205.13,205.27a12.8,12.8,0,0,1-10.5-20.11,1,1,0,0,1,.64-.41,1,1,0,0,1,.75.16l19.39,13.47a1,1,0,0,1,.25,1.39A12.78,12.78,0,0,1,205.13,205.27Zm-9.39-18.12a10.81,10.81,0,0,0,17.67,12.28Z" fill="#093f68"/><path d="M202.79,202.05a8.84,8.84,0,0,0,3.39-1c1.26-.85,1.71-2.45,2.17-3.9a10.49,10.49,0,0,1,2.39-4.41,4.38,4.38,0,0,1,4.65-1.12c.51.22,1,.58,1.49.78,2.3.88,4.44-1.22,6.57-1.7a3.11,3.11,0,0,1,3.23.82c.82.93.83,2.33,2.31,2.6a10.75,10.75,0,0,0,3-.23c3.3-.29,6.92,2.14,9.75,3.51a1.57,1.57,0,0,0,.72.21c.4,0,.72-.34,1-.59a4.41,4.41,0,0,1,5.35.27A6.54,6.54,0,0,1,251,202.5a13.22,13.22,0,0,1-1.57,5.53,15,15,0,0,1-5.38,6.36c-2.6,1.58-5.64,1.87-8.51,2.65-3.19.87-4.78,2.43-7.39,4.17C224,224,219,225.55,214,224.73a18.66,18.66,0,0,1-6.6-2.51,16.06,16.06,0,0,1-5.9-6C199.67,212.8,197,203.15,202.79,202.05Z" fill="#70cc40"/><path d="M216.67,225.94a16.59,16.59,0,0,1-2.82-.23,19.36,19.36,0,0,1-6.95-2.64,17,17,0,0,1-6.26-6.34c-1.3-2.42-3.51-9-1.66-12.91a4.87,4.87,0,0,1,3.62-2.76l.79-.13a5.46,5.46,0,0,0,2.23-.66c.9-.61,1.31-1.9,1.71-3.15l.07-.22a11.39,11.39,0,0,1,2.65-4.83,5.37,5.37,0,0,1,5.74-1.32,7.29,7.29,0,0,1,.78.42,5.2,5.2,0,0,0,.66.34c1.1.42,2.25-.13,3.57-.77a11.08,11.08,0,0,1,2.43-1,4,4,0,0,1,4.19,1.13,5.39,5.39,0,0,1,.8,1.26c.37.74.52.94,1,1a5.18,5.18,0,0,0,1.68-.1c.34-.06.68-.11,1-.14,2.94-.27,5.9,1.31,8.52,2.69.61.33,1.2.64,1.76.91a1.65,1.65,0,0,0,.26.11l.26-.23.18-.14a5.38,5.38,0,0,1,6.6.27,7.57,7.57,0,0,1,2.53,6,14,14,0,0,1-1.67,6,15.89,15.89,0,0,1-5.76,6.77,20.43,20.43,0,0,1-6.4,2.19c-.79.18-1.59.35-2.37.57a15.59,15.59,0,0,0-5.4,2.85c-.53.38-1.09.78-1.7,1.18A21.86,21.86,0,0,1,216.67,225.94ZM214,192.38a3.88,3.88,0,0,0-2.57,1.13,9.72,9.72,0,0,0-2.14,4l-.06.22c-.48,1.49-1,3.19-2.49,4.2a7.32,7.32,0,0,1-3.05,1c-.24,0-.49.07-.72.12h0a2.88,2.88,0,0,0-2.2,1.66c-1.31,2.74.13,8.3,1.62,11.1a15.16,15.16,0,0,0,5.54,5.58,17.5,17.5,0,0,0,6.24,2.37c4.31.72,9.07-.48,13.4-3.36.59-.39,1.13-.78,1.65-1.15a17.7,17.7,0,0,1,6-3.15c.82-.22,1.64-.41,2.47-.59a18.82,18.82,0,0,0,5.8-2,13.91,13.91,0,0,0,5-5.95,12,12,0,0,0,1.47-5.1,5.55,5.55,0,0,0-1.8-4.38,3.38,3.38,0,0,0-4.1-.25L244,198a2.48,2.48,0,0,1-1.49.69,2.4,2.4,0,0,1-1.18-.31c-.58-.28-1.19-.6-1.83-.94-2.37-1.25-5.06-2.68-7.4-2.47a8.85,8.85,0,0,0-.88.12,6.42,6.42,0,0,1-2.37.09,3.21,3.21,0,0,1-2.37-2.08,3.67,3.67,0,0,0-.51-.83,2,2,0,0,0-2.26-.51,9.65,9.65,0,0,0-2,.81c-1.52.74-3.24,1.57-5.15.84a6.14,6.14,0,0,1-1-.49c-.19-.11-.38-.22-.57-.31A2.42,2.42,0,0,0,214,192.38Zm-11.22,9.67h0Z" fill="#093f68"/><path d="M168.67,192.92c2,.1,4.33.79,5.72-.64a8,8,0,0,0,1.19-2.22,6.67,6.67,0,0,1,10-1.9c1.56,1.42,2.63,3.73,4.73,4,1.56.19,3-.91,4.53-1.2,3.07-.59,6.12,2.85,5.17,5.83-.41,1.29-1.4,2.53-1,3.83.55,2,3.33,1.9,5.09,2.92,2.83,1.66,2.49,5.92,1,8.86-3.26,6.6-10.15,11-17.41,12.18-10.17,1.64-19.35-2.48-28.37-6.62a17.62,17.62,0,0,1-7.6-5.93,7.65,7.65,0,0,1-1.41-5,4.53,4.53,0,0,1,3.11-3.87c1-.26,2.13-.07,3.14-.38a3.42,3.42,0,0,0,2.38-3.13c0-.51-.09-1-.06-1.52C159.16,194.54,165.82,192.78,168.67,192.92Z" fill="#70cc40"/><path d="M183.09,225.93c-8.79,0-16.9-3.72-24.19-7.07-3.74-1.71-6.36-3.77-8-6.29a8.62,8.62,0,0,1-1.56-5.64,5.51,5.51,0,0,1,3.85-4.73,8,8,0,0,1,1.71-.2,6,6,0,0,0,1.4-.16,2.43,2.43,0,0,0,1.66-2.2,3.63,3.63,0,0,0,0-.57,6.64,6.64,0,0,1,0-1c.33-4.39,7.72-6.29,10.83-6.14h0c.44,0,.91.07,1.38.12,1.45.17,2.82.32,3.57-.46a4.28,4.28,0,0,0,.7-1.26c.1-.24.2-.47.32-.7a7.66,7.66,0,0,1,11.57-2.2,16.65,16.65,0,0,1,1.45,1.59c.89,1.08,1.67,2,2.72,2.15a5,5,0,0,0,2.28-.56,10.76,10.76,0,0,1,1.94-.64,5.78,5.78,0,0,1,6.32,7.12,12.25,12.25,0,0,1-.53,1.28,3.21,3.21,0,0,0-.51,2c.2.72,1,1,2.4,1.44a10.93,10.93,0,0,1,2.23.89c3.26,1.9,3.17,6.66,1.44,10.17-3.24,6.56-10.2,11.43-18.15,12.71A29.65,29.65,0,0,1,183.09,225.93Zm-14.79-32c-2.89,0-8.22,1.73-8.42,4.31a5.55,5.55,0,0,0,0,.68,6.78,6.78,0,0,1,0,.78,4.42,4.42,0,0,1-3.09,4.07A7.37,7.37,0,0,1,155,204a6.47,6.47,0,0,0-1.3.14,3.52,3.52,0,0,0-2.36,3,6.67,6.67,0,0,0,1.24,4.31c1.45,2.2,3.8,4,7.18,5.57,8.74,4,17.77,8.16,27.8,6.54,7.33-1.18,13.71-5.64,16.67-11.63,1.15-2.31,1.7-6.19-.65-7.56a9.24,9.24,0,0,0-1.81-.7c-1.44-.44-3.22-1-3.73-2.81a4.81,4.81,0,0,1,.61-3.36,9.87,9.87,0,0,0,.44-1.05,3.78,3.78,0,0,0-4-4.54,7.65,7.65,0,0,0-1.57.53,6.56,6.56,0,0,1-3.28.68c-1.83-.23-3-1.62-4-2.85a14.55,14.55,0,0,0-1.26-1.39,5.69,5.69,0,0,0-8.43,1.6l-.27.6A5.74,5.74,0,0,1,175.1,193c-1.43,1.47-3.44,1.25-5.22,1.05-.43,0-.85-.09-1.26-.11h-.32Z" fill="#093f68"/><circle cx="173.56" cy="209.77" r="10.45" fill="#f56132"/><path d="M173.56,221.22A11.45,11.45,0,1,1,185,209.77,11.46,11.46,0,0,1,173.56,221.22Zm0-20.9a9.45,9.45,0,1,0,9.46,9.45A9.46,9.46,0,0,0,173.56,200.32Z" fill="#093f68"/><circle cx="173.56" cy="209.77" r="5.85" fill="#f56132"/><path d="M173.56,216.62a6.49,6.49,0,0,1-1.44-.16,6.84,6.84,0,1,1,7.2-10.4,6.85,6.85,0,0,1-5.76,10.56Zm0-11.7a4.72,4.72,0,0,0-2.61.78,4.84,4.84,0,1,0,3.65-.67A5.25,5.25,0,0,0,173.55,204.92Z" fill="#093f68"/><path d="M232.14,215c-3.34,6.11-10.15,8.82-15.21,6.05s-6.48-9.95-3.15-16.06,11.72-11.71,16.79-8.95S235.47,208.84,232.14,215Z" fill="#fff"/><path d="M221.22,223.08a9.82,9.82,0,0,1-4.77-1.2c-5.55-3-7.14-10.84-3.55-17.42s12.58-12.38,18.14-9.35,5.64,13.6,2,20.32h0C230.39,220.24,225.71,223.08,221.22,223.08Zm6.34-26.81c-4.44,0-10.3,4.37-12.9,9.15-3.06,5.61-1.83,12.21,2.74,14.71s10.79,0,13.86-5.66,3.22-15.2-1.17-17.6A5.25,5.25,0,0,0,227.56,196.27ZM232.14,215h0Z" fill="#093f68"/><circle cx="222.37" cy="211.03" r="7.1" fill="#ffbc0e"/><path d="M222.35,219.13a8.1,8.1,0,0,1-7.1-12,8.1,8.1,0,1,1,7.1,12Zm0-14.21a6.11,6.11,0,0,0-5.87,7.83,6.05,6.05,0,0,0,2.93,3.64,6.11,6.11,0,0,0,5.85-10.72A6,6,0,0,0,222.38,204.92Z" fill="#093f68"/><path d="M157.81,208.68a43.49,43.49,0,0,0,42.53,34.44h0a43.49,43.49,0,0,0,42.53-34.44Z" fill="#68e1fd"/><path d="M200.34,244.12a44.66,44.66,0,0,1-43.51-35.24,1,1,0,0,1,1-1.2h85.06a1,1,0,0,1,1,1.2A44.65,44.65,0,0,1,200.34,244.12Zm-41.28-34.44a42.48,42.48,0,0,0,82.56,0Z" fill="#093f68"/><path d="M147,208.68c5.22,19.67,27.13,34.44,53.38,34.44h0c26.25,0,48.16-14.77,53.38-34.44Z" fill="#fff"/><path d="M200.34,244.12c-26.08,0-48.94-14.8-54.35-35.19a1,1,0,0,1,.18-.86,1,1,0,0,1,.79-.39H253.72a1,1,0,0,1,.8.39,1,1,0,0,1,.17.86C249.28,229.32,226.42,244.12,200.34,244.12Zm-52.06-34.44c5.78,18.87,27.41,32.44,52.06,32.44s46.28-13.57,52.06-32.44Z" fill="#093f68"/><rect x="172.51" y="237.25" width="55.66" height="6.57" fill="#fff"/><path d="M228.17,244.82H172.51a1,1,0,0,1-1-1v-6.57a1,1,0,0,1,1-1h55.66a1,1,0,0,1,1,1v6.57A1,1,0,0,1,228.17,244.82Zm-54.66-2h53.66v-4.57H173.51Z" fill="#093f68"/><path d="M214,56.81c-9.37-1.39-19.08-.59-27.75,3.37-4.05,1.85-6,5.41-9.59,7.95a24.85,24.85,0,0,1-12.44,4.53c-3.32.25-7-.32-9.27-2.74a19.27,19.27,0,0,0,14.19,18.73c-4.56,1.38-9.31-1.1-13.39-3.55a15.1,15.1,0,0,0,1.5,12.13c1.55,2.55,3.86,4.64,5,7.4,1,2.42-1.08,19.61,2.37,19.72l3.61.1,45.7,1.34,24.32.72c3.27.09,5.57,1.17,7.86-1.67,2-2.43,2.18-3.9,5.35-5.7a26.6,26.6,0,0,0,10.38-10.73,15.24,15.24,0,0,1-8.31-2A14.52,14.52,0,0,0,265.06,103a8.55,8.55,0,0,1-8.64-5c-1.25-3-.67-6.35-.47-9.57.19-3-.21-6.82-2.5-9.13-.65-.65-8-3.75-7.79-1.26-.27-3.37-3.14-6.28-5.49-8.57a46,46,0,0,0-6.54-5.27,46.59,46.59,0,0,0-14.92-6.48Q216.42,57.17,214,56.81Z" fill="#725858"/><path d="M242.11,127.79a19.2,19.2,0,0,1-2-.14c-.62-.06-1.26-.12-1.93-.14l-73.63-2.16c-3-.09-3.16-5.65-3.06-14.11,0-2.61.07-5.57-.2-6.24a18.7,18.7,0,0,0-2.77-4.28,31.15,31.15,0,0,1-2.13-3,16.12,16.12,0,0,1-1.61-13,1,1,0,0,1,.6-.64,1,1,0,0,1,.87.08,26.45,26.45,0,0,0,8.16,3.61,20.43,20.43,0,0,1-10.47-18,1,1,0,0,1,.65-.9,1,1,0,0,1,1.08.25c2.36,2.49,6.32,2.59,8.47,2.43a23.83,23.83,0,0,0,11.94-4.34A28.64,28.64,0,0,0,179.81,64a20.31,20.31,0,0,1,6-4.69c8.27-3.78,18.06-5,28.3-3.45h0c1.63.24,3.24.55,4.8.92a47.25,47.25,0,0,1,15.24,6.62,46.14,46.14,0,0,1,6.69,5.39c1.83,1.78,4.45,4.33,5.42,7.38,2.43-.39,7.19,1.78,7.86,2.45,2.66,2.67,3,6.86,2.8,9.91,0,.55-.08,1.1-.12,1.65-.22,2.68-.43,5.22.51,7.46a7.51,7.51,0,0,0,7.6,4.43,1,1,0,0,1,.78,1.75,15.49,15.49,0,0,1-7,3.47,14.23,14.23,0,0,0,3,.16,1,1,0,0,1,.9.46,1,1,0,0,1,0,1A27.69,27.69,0,0,1,251.92,120a9.3,9.3,0,0,0-3.65,3.51c-.39.57-.82,1.22-1.41,2A5.61,5.61,0,0,1,242.11,127.79ZM156.38,86.63a14.16,14.16,0,0,0,1.72,10.08,31.36,31.36,0,0,0,2,2.78,20.22,20.22,0,0,1,3,4.76c.4,1,.39,3.2.35,7,0,3.16-.13,11.54,1.13,12.09l73.62,2.16c.74,0,1.42.09,2.07.15,2.2.22,3.53.36,5-1.45.54-.66.93-1.24,1.32-1.81a11.12,11.12,0,0,1,4.32-4.13,25.66,25.66,0,0,0,9.15-8.87,16.35,16.35,0,0,1-7.09-2.1,1,1,0,0,1,.64-1.85,13.51,13.51,0,0,0,8.54-1.6,9.58,9.58,0,0,1-6.68-5.47c-1.13-2.7-.9-5.6-.67-8.4q.07-.81.12-1.62c.14-2.16,0-6.11-2.21-8.36-.77-.61-5-2.19-6.09-1.92a1,1,0,0,1-.92.93,1,1,0,0,1-1.07-.91c-.24-3.1-3.22-6-5.19-7.92a44,44,0,0,0-6.4-5.15,45.16,45.16,0,0,0-14.59-6.34c-1.5-.36-3.06-.66-4.63-.89h0c-9.86-1.47-19.26-.33-27.18,3.29a18.29,18.29,0,0,0-5.43,4.28,30.42,30.42,0,0,1-4,3.58,25.74,25.74,0,0,1-12.94,4.71A14,14,0,0,1,156,72a18.33,18.33,0,0,0,13.36,15.64,1,1,0,0,1,.05,1.93C164.9,91,160.37,88.94,156.38,86.63Z" fill="#093f68"/><path d="M209.23,151.61l.59-4.87-9.92-1.19-.58,4.87c-.41,3.43,1.43,6.47,4.12,6.79l.18,0C206.31,157.55,208.82,155,209.23,151.61Z" fill="#ffc9b0"/><path d="M204.08,158.26l-.58,0-.17,0c-3.24-.39-5.48-3.94-5-7.91l.59-4.87a1,1,0,0,1,1.11-.87l9.92,1.19a1,1,0,0,1,.87,1.11l-.58,4.87h0C209.78,155.46,207.09,158.26,204.08,158.26Zm-3.31-11.6-.46,3.88c-.35,2.88,1.11,5.42,3.25,5.68l.18,0c2.14.25,4.16-1.88,4.5-4.75l.47-3.88Zm8.46,5h0Z" fill="#093f68"/><ellipse cx="243.22" cy="119.76" rx="10.66" ry="12.37" transform="translate(113.61 357.89) rotate(-87.66)" fill="#ffc9b0"/><path d="M243.39,131.43h-.65a14.39,14.39,0,0,1-9.25-3.75,10.88,10.88,0,0,1-3.63-8.45h0a10.91,10.91,0,0,1,4.31-8.13,14.8,14.8,0,0,1,18.78.77,10.66,10.66,0,0,1-.67,16.58A14.29,14.29,0,0,1,243.39,131.43Zm-.33-21.33a12.27,12.27,0,0,0-7.65,2.56,8.89,8.89,0,0,0-3.55,6.64h0a8.91,8.91,0,0,0,3,6.91,12.8,12.8,0,0,0,16.17.66,8.66,8.66,0,0,0,.56-13.55,12.41,12.41,0,0,0-8-3.21Zm-12.2,9.16h0Z" fill="#093f68"/><ellipse cx="171.16" cy="116.82" rx="10.66" ry="12.37" transform="translate(47.44 283.06) rotate(-87.66)" fill="#ffc9b0"/><path d="M171.32,128.48h-.64c-7.36-.3-13.14-5.78-12.88-12.2h0c.26-6.42,6.45-11.4,13.84-11.1s13.14,5.77,12.88,12.19C184.26,123.6,178.4,128.48,171.32,128.48ZM159.8,116.35c-.22,5.32,4.7,9.86,11,10.12s11.54-3.87,11.76-9.19-4.7-9.86-11-10.12S160,111,159.8,116.35Z" fill="#093f68"/><path d="M205.44,153a37.31,37.31,0,0,0,38.81-35.75l.55-13.55c.39-9.4-2.6-16.06-10.55-16.74a15.05,15.05,0,0,0-10.67,3.2,43.35,43.35,0,0,1-13.67,7.48,24.86,24.86,0,0,1-15.4,0,11.44,11.44,0,0,0,7.19-6.92c-3,2.33-7,2.85-10.75,2.76s-7.56-.71-11.31-.3c-2.59.29-6.71,1.31-8.23,3.7-1.11,1.76-.6,4.11-.76,6.17-.28,3.7-.64,7.4-1,11.11A37.3,37.3,0,0,0,205.44,153Z" fill="#ffc9b0"/><path d="M207,154c-.53,0-1.06,0-1.6,0h0a38.3,38.3,0,0,1-36.71-39.84c.11-1.3.22-2.56.33-3.81.23-2.45.44-4.89.63-7.34,0-.55,0-1.13,0-1.75a8.62,8.62,0,0,1,.9-4.87c2-3.17,7.36-4,9-4.16a41.64,41.64,0,0,1,7.66.08c1.24.09,2.53.18,3.78.21,4.48.12,7.79-.72,10.11-2.54a1,1,0,0,1,1.56,1.12,12.48,12.48,0,0,1-5.23,6.34,25,25,0,0,0,12.21-.75A42.07,42.07,0,0,0,223,89.36,16,16,0,0,1,234.33,86c5.55.47,12,4,11.47,17.78l-.55,13.55A38.32,38.32,0,0,1,207,154Zm-1.52-2a36.31,36.31,0,0,0,37.77-34.79l.55-13.55c.4-9.84-2.84-15.12-9.64-15.71a14.13,14.13,0,0,0-10,3,43.9,43.9,0,0,1-14,7.65,26,26,0,0,1-16,0,1,1,0,0,1-.67-1,1,1,0,0,1,.7-.94,10.36,10.36,0,0,0,4.88-3.36,21.32,21.32,0,0,1-8.17,1.16c-1.3,0-2.6-.13-3.87-.22a39.68,39.68,0,0,0-7.3-.08c-2.7.29-6.27,1.32-7.49,3.24a6.92,6.92,0,0,0-.59,3.76c0,.64,0,1.3,0,1.94-.19,2.46-.41,4.91-.63,7.37-.12,1.25-.23,2.5-.34,3.75A36.3,36.3,0,0,0,205.48,152Z" fill="#093f68"/><circle cx="224.33" cy="113.84" r="3.27" fill="#093f68"/><circle cx="188.14" cy="110.69" r="3.27" fill="#093f68"/><path d="M207.45,125.18a12.57,12.57,0,0,1-3.37-.4,1.75,1.75,0,0,1-1.12-1c-.88-2.18,2.19-7.8,3.15-9.47a1,1,0,0,1,1.74,1c-1.86,3.23-3.25,6.7-3.07,7.62a15.48,15.48,0,0,0,4.86.16,1,1,0,0,1,.27,2A20.16,20.16,0,0,1,207.45,125.18ZM204.81,123h0Z" fill="#093f68"/><path d="M218.28,105.29a1.59,1.59,0,0,1,0-3.18l15.15-.25a1.59,1.59,0,0,1,.06,3.18l-15.16.25Z" fill="#093f68"/><path d="M193.07,129.53l24.79.84s-2.38,13.92-14.62,13.14C190.83,142.73,193.07,129.53,193.07,129.53Z" fill="#fff"/><path d="M204.22,144.54l-1,0c-3.8-.24-6.71-1.6-8.65-4-3.52-4.45-2.49-10.83-2.45-11.1a1,1,0,0,1,1-.83h0l24.8.84a1,1,0,0,1,.74.37,1,1,0,0,1,.21.8C218.82,130.68,216.3,144.54,204.22,144.54Zm-10.26-14c-.13,1.75-.13,5.79,2.15,8.67,1.57,2,4,3.08,7.2,3.29,4.65.29,8.34-1.65,10.95-5.77a20.37,20.37,0,0,0,2.35-5.42Z" fill="#093f68"/><path d="M196.6,104.13h-.19L182,102.4a1.6,1.6,0,0,1-1.39-1.77,1.58,1.58,0,0,1,1.77-1.39l14.4,1.72a1.59,1.59,0,0,1-.18,3.17Z" fill="#093f68"/><path d="M245.77,213.32a4.67,4.67,0,0,0-2.44-1.3,1.93,1.93,0,0,0-2.14,1.39,2.86,2.86,0,0,0,.45,1.68c.89,1.72,1.85,3.41,2.89,5-1.09-1.25-1.74-2.83-2.88-4s-3.09-1.94-4.43-1-1.24,3.1-.45,4.57,2.09,2.64,2.84,4.14a12.67,12.67,0,0,0-5.82-4.39,3.51,3.51,0,0,0-2-.26c-1.79.39-2.19,3-1.27,4.54s2.58,2.57,3.88,3.87a11.33,11.33,0,0,0-3.43-3,2.89,2.89,0,0,0-2.26-.46,2.15,2.15,0,0,0-1.28,1.93,5.2,5.2,0,0,0,.57,2.36c1.38,3.09,3.73,5.95,6.94,7,4,1.34,8.52-.4,11.4-3.44,2.25-2.38,4.92-6.78,4.83-10.19C251.13,218.75,248,215.22,245.77,213.32Z" fill="#ffc9b0"/><path d="M237.79,236.91a9.72,9.72,0,0,1-3.13-.5c-4.26-1.42-6.55-5.35-7.53-7.57a6.14,6.14,0,0,1-.66-2.82,3.12,3.12,0,0,1,2-2.81,2.89,2.89,0,0,1,.8-.15,4.72,4.72,0,0,1,.22-3,3.08,3.08,0,0,1,2.16-1.84,4.39,4.39,0,0,1,2.52.31,12.51,12.51,0,0,1,1.31.55,4.21,4.21,0,0,1,1.2-4.75,3.75,3.75,0,0,1,3.55-.35,2.56,2.56,0,0,1,0-.73,2.92,2.92,0,0,1,3.24-2.22,5.57,5.57,0,0,1,3,1.54h0c1.33,1.16,5.68,5.26,5.78,9.23s-3,8.68-5.1,10.9A13.13,13.13,0,0,1,237.79,236.91Zm-8.46-11.85a.66.66,0,0,0-.25,0,1.16,1.16,0,0,0-.61,1A4.2,4.2,0,0,0,229,228c1.44,3.26,3.75,5.62,6.34,6.49,3.84,1.28,8-.68,10.36-3.19s4.63-6.52,4.55-9.47c-.06-2.52-2.78-5.77-5.09-7.78h0a3.8,3.8,0,0,0-1.9-1c-.46-.05-1,.22-1,.54a2.09,2.09,0,0,0,.35,1.07c.87,1.69,1.83,3.36,2.85,5a1,1,0,0,1-1.6,1.2,16,16,0,0,1-1.45-2.05,12.76,12.76,0,0,0-1.41-2c-.83-.88-2.26-1.46-3.11-.84s-.75,2.19-.16,3.29a13.11,13.11,0,0,0,1.29,1.84,15,15,0,0,1,1.57,2.32,1,1,0,0,1-1.7,1,11.77,11.77,0,0,0-5.37-4,2.86,2.86,0,0,0-1.4-.23,1.12,1.12,0,0,0-.76.7,2.82,2.82,0,0,0,.14,2.37,5.46,5.46,0,0,0,.57.79,12.4,12.4,0,0,1,3.24,3,1,1,0,0,1-.14,1.36,1,1,0,0,1-1.36-.05c-.41-.41-.86-.78-1.34-1.18a17.63,17.63,0,0,1-1.69-1.55l-.18-.1A2.61,2.61,0,0,0,229.33,225.06Z" fill="#093f68"/><path d="M138.11,184.49a4.67,4.67,0,0,0,.75,2.67,1.92,1.92,0,0,0,2.47.6,2.81,2.81,0,0,0,.91-1.49q1-2.75,1.67-5.57c-.15,1.64-.84,3.21-.94,4.86s.73,3.58,2.35,3.88,3.11-1.23,3.63-2.82.47-3.34,1-4.91a12.66,12.66,0,0,0,.83,7.24,3.56,3.56,0,0,0,1.16,1.61c1.52,1,3.65-.45,4.17-2.21s.08-3.64.13-5.48a11.25,11.25,0,0,0,.19,4.55,2.83,2.83,0,0,0,1.22,2A2.13,2.13,0,0,0,160,189a5.23,5.23,0,0,0,1.31-2c1.3-3.13,1.76-6.8.32-9.87-1.77-3.8-6.16-5.9-10.35-5.89-3.27,0-8.3,1.1-10.71,3.51C138.36,176.86,138,181.6,138.11,184.49Z" fill="#ffc9b0"/><path d="M153.09,191.9a3,3,0,0,1-1.67-.51,4.56,4.56,0,0,1-1.52-2c-.18-.43-.35-.88-.49-1.33a4.22,4.22,0,0,1-4.28,2.4,3.76,3.76,0,0,1-2.7-2.33,2.49,2.49,0,0,1-.53.49,2.91,2.91,0,0,1-3.84-.82,5.57,5.57,0,0,1-.94-3.22h0c-.08-1.77-.11-7.74,2.71-10.56s8.36-3.8,11.42-3.8h0c4.92,0,9.43,2.6,11.24,6.47,1.9,4.07.63,8.43-.3,10.67a6.1,6.1,0,0,1-1.6,2.42,3.12,3.12,0,0,1-3.38.52,2.94,2.94,0,0,1-.66-.48,4.78,4.78,0,0,1-2.32,1.91A3.43,3.43,0,0,1,153.09,191.9ZM150,180.71a1.15,1.15,0,0,1,.26,0,1,1,0,0,1,.72,1.14,11.72,11.72,0,0,0,.77,6.67,2.73,2.73,0,0,0,.8,1.18,1.08,1.08,0,0,0,1,.07,2.77,2.77,0,0,0,1.62-1.74,5,5,0,0,0,.18-.95,12.51,12.51,0,0,1-.08-4.4,1,1,0,0,1,2,.19c0,.58,0,1.16.06,1.78a17.59,17.59,0,0,1,0,2.3,1.94,1.94,0,0,0,.05.2c.17.71.41,1.15.71,1.3a1.16,1.16,0,0,0,1.17-.27,4.24,4.24,0,0,0,1-1.66c1.37-3.29,1.49-6.59.34-9.06-1.72-3.67-6-5.31-9.44-5.31h0c-3.29,0-7.92,1.13-10,3.22-1.79,1.78-2.27,6-2.14,9h0a3.79,3.79,0,0,0,.54,2.1c.29.37.85.56,1.12.38a2,2,0,0,0,.53-1c.63-1.79,1.18-3.64,1.64-5.48a1,1,0,0,1,2,.33,16,16,0,0,1-.49,2.46,13.2,13.2,0,0,0-.45,2.36c-.06,1.22.5,2.65,1.53,2.85s2.11-1,2.5-2.15a14.76,14.76,0,0,0,.45-2.2,13.61,13.61,0,0,1,.6-2.74A1,1,0,0,1,150,180.71Z" fill="#093f68"/><path d="M152.14,189.74a7.64,7.64,0,0,0-3-.6,2.32,2.32,0,0,0-2.21,1.74c-.51,3.35,6.06,5.1,8.32,5.23a3.62,3.62,0,0,0,2.73-.7C161.66,191.94,154.31,190.47,152.14,189.74Z" fill="#ffc9b0"/><path d="M155.78,197.12l-.55,0c-1.55-.08-6.42-1.09-8.42-3.55a3.57,3.57,0,0,1-.83-2.82,3.32,3.32,0,0,1,3.13-2.59,8.31,8.31,0,0,1,3.16.59l.19.07c.26.09.61.19,1,.3,3.13.91,6,1.89,6.48,3.94a3.22,3.22,0,0,1-1.24,3.1A4.12,4.12,0,0,1,155.78,197.12Zm-6.32-7h-.2c-.57.05-1.23.4-1.3.9a1.52,1.52,0,0,0,.41,1.26c1.34,1.66,5.26,2.72,7,2.82a2.71,2.71,0,0,0,2-.42c.29-.28.76-.8.67-1.17-.26-1.1-3.77-2.12-5.09-2.5-.43-.12-.8-.23-1.09-.33h0l-.19-.06A7.05,7.05,0,0,0,149.46,190.13Z" fill="#093f68"/><path d="M202.54,175.53h-.07a1,1,0,0,1-.93-1.06l1.08-17.3a1,1,0,0,1,1.06-.94,1,1,0,0,1,.94,1.06l-1.09,17.3A1,1,0,0,1,202.54,175.53Z" fill="#093f68"/><path d="M214.94,138.55h-.08l-21.57-1.81a1,1,0,0,1-.91-1.08,1,1,0,0,1,1.08-.91L215,136.55a1,1,0,0,1-.08,2Z" fill="#093f68"/><path d="M144.85,143.19s-.95,8.19-5.78,9.75c0,0,5.83.44,6.56,7.78,0,0-.26-7.35,5.1-8.56C150.73,152.16,146.75,153.38,144.85,143.19Z" fill="#ffbc0e"/><path d="M145.63,161.71a1,1,0,0,1-1-.9c-.64-6.37-5.45-6.85-5.65-6.87a1,1,0,0,1-.23-1.95c3.47-1.12,4.86-6.82,5.1-8.92a1,1,0,0,1,1-.88h0a1,1,0,0,1,1,.81c1,5.63,2.7,7.38,3.59,7.91a1.73,1.73,0,0,0,1,.3l.09,0a1,1,0,0,1,.52,1.94l-.13,0c-4.42,1-4.26,7.47-4.26,7.53a1,1,0,0,1-.93,1Zm-4.07-9a8.3,8.3,0,0,1,3.77,3.53,8,8,0,0,1,2.63-3.86,10.14,10.14,0,0,1-3.08-5A12.09,12.09,0,0,1,141.56,152.67Z" fill="#093f68"/><path d="M265,175.94s-.95,8.2-5.79,9.76c0,0,5.83.43,6.56,7.77,0,0-.25-7.34,5.1-8.55C270.89,184.92,266.91,186.13,265,175.94Z" fill="#ffbc0e"/><path d="M265.79,194.47a1,1,0,0,1-1-.9c-.64-6.37-5.44-6.85-5.65-6.87a1,1,0,0,1-.23-1.95c4.17-1.35,5.09-8.85,5.1-8.92a1,1,0,0,1,2-.07c1,5.5,2.62,7.28,3.49,7.85a1.58,1.58,0,0,0,1.12.34h.06a1,1,0,0,1,.6,1.9l-.13,0-.08,0c-4.42,1.06-4.27,7.47-4.27,7.54a1,1,0,0,1-.93,1Zm-4.06-9a8.23,8.23,0,0,1,3.76,3.53,7.89,7.89,0,0,1,2.64-3.86,10.11,10.11,0,0,1-3.09-5A12.1,12.1,0,0,1,261.73,185.43Z" fill="#093f68"/><path d="M256,145.75s-2.08,5.16-5.51,5.32c0,0,3.72,1.32,2.89,6.22,0,0,1.14-4.82,4.84-4.65C258.2,152.64,255.39,152.72,256,145.75Z" fill="#ffbc0e"/><path d="M253.36,158.29a.68.68,0,0,1-.2,0,1,1,0,0,1-.79-1.14c.66-3.91-1.94-5-2.24-5.12a1,1,0,0,1-.64-1.1,1,1,0,0,1,.94-.84c2.28-.1,4.11-3.42,4.62-4.69a1,1,0,0,1,1.92.46c-.38,4.56.76,5.73,1.25,5.8h0a1,1,0,0,1,1,1,1,1,0,0,1-1,1H258c-2.74,0-3.68,3.85-3.69,3.89A1,1,0,0,1,253.36,158.29Zm-.64-6.89a5.78,5.78,0,0,1,1.37,2.2,5.55,5.55,0,0,1,1.79-1.48,6.9,6.9,0,0,1-.88-2.77A8.31,8.31,0,0,1,252.72,151.4Z" fill="#093f68"/></g></svg>