<svg id="_430_eating_ice_cream_outline" data-name="#430_eating_ice_cream_outline" xmlns="http://www.w3.org/2000/svg" viewBox="0 0 400 300"><path d="M199.83,57.68a40.36,40.36,0,0,1,10.29.66,38.76,38.76,0,0,1,24.59,16.49c4,6,5.85,12.89,6.59,19.94,1.22,11.81.6,23.65,1.77,35.39.21,2.1,6.19,18.71,12.34,21.87a86.78,86.78,0,0,1-106.82-1.69c1.71,1.37,7.07-8.39,7.45-9.66,1.24-4.23,1-9.42,1.48-13.85L161,93.3C162.11,83,166.53,75.67,174,68.47,180.59,62,190.29,58.27,199.83,57.68Z" fill="#725858"/><path d="M203.06,170.58h-1.37A88.17,88.17,0,0,1,148,151.11a1,1,0,0,1,1.07-1.67c1.48-.61,5.64-7.63,6.05-9a41.31,41.31,0,0,0,1.13-9.12c.08-1.52.16-3.09.31-4.56L160,93.19c1-9.85,5-17.46,13.21-25.44,6.6-6.41,16.26-10.44,26.52-11.07a41.21,41.21,0,0,1,10.55.68,39.92,39.92,0,0,1,25.22,16.92c3.7,5.56,5.9,12.23,6.75,20.39.63,6,.77,12.14.92,18,.14,5.7.28,11.59.86,17.34.18,1.84,6,18.1,11.8,21.09a1,1,0,0,1,.54.8,1,1,0,0,1-.39.88A88.27,88.27,0,0,1,203.06,170.58Zm-52.4-19.88a85.81,85.81,0,0,0,103,1.39c-6.13-4.76-11.4-19.86-11.59-21.83-.59-5.83-.73-11.76-.87-17.5s-.29-11.94-.91-17.88c-.81-7.84-2.91-14.21-6.42-19.5a37.88,37.88,0,0,0-24-16,38.55,38.55,0,0,0-10-.65h0c-9.64.59-19.08,4.52-25.25,10.5C166.78,76.81,163,84.06,162,93.4l-3.52,33.53c-.15,1.42-.22,2.89-.3,4.45A42.65,42.65,0,0,1,157,141C156.73,141.86,153.35,148.46,150.66,150.7Zm49.17-93h0Z" fill="#093f68"/><path d="M225.52,180.06c-4.08-3.93-8.86-6.88-14.88-6.88H189c-8.55,0-13,7-13,7-9.94,13.32-18,34.08-18,34.08l20.82,7.26V240.3h45.91v-23c1.93-1.74,3.54-12.89,3.54-12.89s6.32,7.58,8.22,8.31c2.51.95,5.52,1.27,7.76-.21a3,3,0,0,0,1.33-1.69,3.36,3.36,0,0,0,0-1.34,21.57,21.57,0,0,0-2.83-6.65,121.9,121.9,0,0,0-14.75-20.3C227.16,181.71,226.35,180.86,225.52,180.06Z" fill="#68e1fd"/><path d="M224.71,241.3H178.8a1,1,0,0,1-1-1V222.24l-20.15-7a1.06,1.06,0,0,1-.58-.52,1,1,0,0,1,0-.78c.08-.21,8.22-21,18.12-34.32.15-.24,4.8-7.41,13.79-7.41h21.68c5.48,0,10.57,2.34,15.57,7.16h0c.81.78,1.62,1.62,2.48,2.58a122.24,122.24,0,0,1,14.86,20.46,22,22,0,0,1,2.95,7,4.33,4.33,0,0,1,0,1.73,3.85,3.85,0,0,1-1.74,2.31c-3,2-6.73,1.05-8.68.31-1.55-.59-5.12-4.52-7.21-6.93-.57,3.32-1.71,9-3.19,11V240.3A1,1,0,0,1,224.71,241.3Zm-44.91-2h43.91v-22a1,1,0,0,1,.33-.74c1-.94,2.45-7,3.22-12.29a1,1,0,0,1,.72-.82,1,1,0,0,1,1,.32c3,3.63,6.77,7.62,7.8,8,1.28.49,4.51,1.45,6.86-.11a1.94,1.94,0,0,0,.9-1.07,2.48,2.48,0,0,0-.05-.93,20.36,20.36,0,0,0-2.71-6.34,120.25,120.25,0,0,0-14.62-20.13c-.83-.92-1.6-1.73-2.38-2.47-4.67-4.5-9.17-6.6-14.18-6.6H189c-7.91,0-12.11,6.48-12.15,6.54-8.57,11.5-15.8,28.72-17.51,32.95l19.83,6.91a1,1,0,0,1,.67.95Z" fill="#093f68"/><path d="M194.86,166.8h12.72a0,0,0,0,1,0,0v7.35a5.41,5.41,0,0,1-5.41,5.41h-1.9a5.41,5.41,0,0,1-5.41-5.41V166.8A0,0,0,0,1,194.86,166.8Z" fill="#ffc9b0"/><path d="M202.17,180.56h-1.91a6.41,6.41,0,0,1-6.4-6.41V166.8a1,1,0,0,1,1-1h12.71a1,1,0,0,1,1,1v7.35A6.41,6.41,0,0,1,202.17,180.56Zm-6.31-12.76v6.35a4.41,4.41,0,0,0,4.4,4.41h1.91a4.41,4.41,0,0,0,4.4-4.41V167.8Z" fill="#093f68"/><ellipse cx="164.87" cy="133.67" rx="12.36" ry="10.68" fill="#ffc9b0"/><path d="M164.87,145.35c-7.37,0-13.36-5.24-13.36-11.68s6-11.68,13.36-11.68,13.35,5.24,13.35,11.68S172.23,145.35,164.87,145.35Zm0-21.36c-6.26,0-11.36,4.34-11.36,9.68s5.1,9.68,11.36,9.68,11.35-4.34,11.35-9.68S171.13,124,164.87,124Z" fill="#093f68"/><ellipse cx="236.9" cy="133.67" rx="12.36" ry="10.68" fill="#ffc9b0"/><path d="M236.9,145.35c-7.36,0-13.35-5.24-13.35-11.68s6-11.68,13.35-11.68,13.36,5.24,13.36,11.68S244.27,145.35,236.9,145.35Zm0-21.36c-6.26,0-11.35,4.34-11.35,9.68s5.09,9.68,11.35,9.68,11.36-4.34,11.36-9.68S243.17,124,236.9,124Z" fill="#093f68"/><path d="M201.21,168.48A37.32,37.32,0,0,1,164,131.1V113.8c0-9,13.67-25.76,22.63-25.76-.62,0,3.55,6.94,4,7.43a31.62,31.62,0,0,0,7.23,6.12,56.18,56.18,0,0,0,10.06,4.86,50.14,50.14,0,0,0,4.91,1.73c1.18.32,3.69.17,4.64.83a36.55,36.55,0,0,1-7.45-6.3,29.55,29.55,0,0,1-2.85-4c-.59-1-1.29-3.82-2.13-4.45a53.91,53.91,0,0,0,12.75,9.23c3.09,1.6,7,3.33,10.63,2.85,2.84-.38,5.45-2.46,7.79-4.09l2.35,28.87A37.32,37.32,0,0,1,201.21,168.48Z" fill="#ffc9b0"/><path d="M201.21,169.48A38.36,38.36,0,0,1,163,131.1V113.8c0-4.5,3.14-11,8.19-16.9,5.27-6.17,11-9.86,15.44-9.86a1,1,0,0,1,1,1,.88.88,0,0,1,0,.17,58.05,58.05,0,0,0,3.76,6.62,31.06,31.06,0,0,0,7,5.92,55.48,55.48,0,0,0,9.89,4.77l.71.27a39,39,0,0,0,4.1,1.42,1.91,1.91,0,0,0,.3.07,27.38,27.38,0,0,1-4.14-3.93,30.57,30.57,0,0,1-2.94-4.15,14.09,14.09,0,0,1-.78-1.82,12.78,12.78,0,0,0-1-2.24l-.19-.18a1,1,0,0,1,1.3-1.52,2.54,2.54,0,0,1,.34.32,52.69,52.69,0,0,0,12.27,8.82c2.91,1.51,6.7,3.19,10,2.75,2.25-.3,4.39-1.83,6.47-3.3l.88-.62a1,1,0,0,1,1.56.74L239.48,131A38.38,38.38,0,0,1,201.21,169.48Zm-15.4-80.4C177.33,90,165,105.73,165,113.8v17.3a36.27,36.27,0,1,0,72.53,0l-2.21-27c-2,1.43-4.29,2.92-6.79,3.25-3.91.52-8.06-1.31-11.23-3a54.43,54.43,0,0,1-9.22-6,28.71,28.71,0,0,0,2.67,3.75,35.32,35.32,0,0,0,7.26,6.13h0a1,1,0,0,1-1.14,1.64h0a7.13,7.13,0,0,0-2.39-.42,12.34,12.34,0,0,1-1.94-.26c-1.48-.4-2.91-1-4.31-1.49l-.7-.28a56.9,56.9,0,0,1-10.23-4.94,33.24,33.24,0,0,1-7.46-6.31A45.72,45.72,0,0,1,185.81,89.08Z" fill="#093f68"/><path d="M201,138.3a20.61,20.61,0,0,1-3.35-.28,1,1,0,0,1-.81-1.16,1,1,0,0,1,1.16-.81,16.24,16.24,0,0,0,5.19,0c.27-.92-1-4.71-2.9-8.29a1,1,0,0,1,1.77-.92C203,128.69,206,134.75,205,137a1.74,1.74,0,0,1-1.2,1A11.67,11.67,0,0,1,201,138.3Z" fill="#093f68"/><path d="M174.56,117.09a2,2,0,0,1,0-4l16.46-.21h0a2,2,0,0,1,0,4l-16.46.21Z" fill="#093f68"/><path d="M229.38,116.79h0l-16.45-.1a2,2,0,0,1,0-4h0l16.46.1a2,2,0,0,1,0,4Z" fill="#093f68"/><path d="M180.14,128.34a1,1,0,0,1-.65-.24,1,1,0,0,1-.11-1.4c.1-.12,2.53-2.94,5.84-3.07a6.7,6.7,0,0,1,5.05,2.2,1,1,0,1,1-1.42,1.41,4.76,4.76,0,0,0-3.54-1.62c-2.43.09-4.39,2.35-4.41,2.37A1,1,0,0,1,180.14,128.34Z" fill="#093f68"/><path d="M224.81,128.34a1,1,0,0,1-.76-.35c-.05,0-2-2.28-4.41-2.37a4.76,4.76,0,0,0-3.54,1.62,1,1,0,1,1-1.42-1.41,6.61,6.61,0,0,1,5-2.2c3.31.13,5.74,3,5.84,3.07a1,1,0,0,1-.11,1.4A1,1,0,0,1,224.81,128.34Z" fill="#093f68"/><path d="M241.39,117.94a39.85,39.85,0,0,0,.36-5.38,40.54,40.54,0,0,0-81.07,0,39.85,39.85,0,0,0,.36,5.38,42.12,42.12,0,1,1,80.35,0Z" fill="#ffbc0e"/><path d="M241.39,118.94l-.22,0a1,1,0,0,1-.77-1.11,39.54,39.54,0,1,0-78.37,0,1,1,0,0,1-1.95.43,43.12,43.12,0,1,1,82.26,0A1,1,0,0,1,241.39,118.94ZM201.22,64.15a41.17,41.17,0,0,0-41.12,41.12c0,.42,0,.83,0,1.25a41.54,41.54,0,0,1,82.19,0c0-.42,0-.83,0-1.25A41.16,41.16,0,0,0,201.22,64.15Z" fill="#093f68"/><path d="M177.22,211a1,1,0,0,1-.92-.62c-.14-.33-3.45-8.32-.68-13.49a54.25,54.25,0,0,1,5.71-8.56,1,1,0,0,1,1.41-.12,1,1,0,0,1,.12,1.41,52.74,52.74,0,0,0-5.48,8.22c-2.31,4.32.73,11.69.77,11.77a1,1,0,0,1-.54,1.31A1.09,1.09,0,0,1,177.22,211Z" fill="#093f68"/><path d="M202.09,148.71a33.14,33.14,0,0,1-14.34-3.12,1,1,0,0,1,.93-1.77A33.29,33.29,0,0,0,218,142.63a1,1,0,1,1,.94,1.76A35.32,35.32,0,0,1,202.09,148.71Z" fill="#093f68"/><path d="M193.16,147.29s1.2,7.32,10,7,11.83-4.23,11.6-8.72C214.8,145.6,206.87,149,193.16,147.29Z" fill="#093f68"/><path d="M202.69,155.33c-9.12,0-10.51-7.79-10.52-7.87a1,1,0,0,1,.27-.86,1,1,0,0,1,.84-.3c13.24,1.68,21.05-1.59,21.12-1.62a1,1,0,0,1,1.4.86,8.17,8.17,0,0,1-2.07,6.1c-2.1,2.28-5.63,3.53-10.5,3.68Zm-8.13-6.87c.79,1.88,3,5,8.61,4.87,4.3-.15,7.36-1.17,9.09-3.05a5.76,5.76,0,0,0,1.49-3.25C211,147.9,204.34,149.47,194.56,148.46Z" fill="#093f68"/><path d="M198.43,147.69s.89,12.77,8.49,12.26,2.74-7.53,3.4-13.44C210.32,146.51,202,148.71,198.43,147.69Z" fill="#f56132"/><path d="M206.46,161c-8,0-9-12.66-9-13.21a1,1,0,0,1,.37-.84,1,1,0,0,1,.9-.19c2.75.77,9.13-.59,11.36-1.18a1,1,0,0,1,.91.21,1,1,0,0,1,.35.86,19.42,19.42,0,0,0,.46,5.48c.48,2.71.93,5.26-.45,7-.86,1.09-2.28,1.69-4.34,1.83Zm-6.88-12.07c.45,3,2,10.38,7.28,10a3.83,3.83,0,0,0,2.89-1.06c.83-1.06.46-3.19.06-5.44a27.65,27.65,0,0,1-.55-4.65C207.07,148.3,202.67,149.18,199.58,148.9Z" fill="#093f68"/><path d="M220.33,170.6c0,7.74-14,47.71-14,47.71s-14-40-14-47.71Z" fill="#ffbc0e"/><path d="M206.33,219.31a1,1,0,0,1-.94-.67c-.57-1.64-14.06-40.22-14.06-48a1,1,0,0,1,1-1h28a1,1,0,0,1,1,1c0,7.82-13.48,46.4-14.05,48A1,1,0,0,1,206.33,219.31ZM193.39,171.6c.83,7.94,10,34.94,12.94,43.65,3-8.71,12.12-35.71,12.94-43.65Z" fill="#093f68"/><path d="M221.17,170.5a2.86,2.86,0,0,1-.07.28c-.39,1.5-.87,3.08-.44,4.56a29.84,29.84,0,0,0,1.32,2.73c1.18,2.89-2.36,4.26-4.68,3.41L217,184.3a1.84,1.84,0,0,1-.35,1c-.69.73-1.84-.07-2.83-.2-1.47-.18-2.64,1.27-3.06,2.69s-.43,3-1.18,4.25a2.1,2.1,0,0,1-1.1,1c-1.32.45-2.49-1.1-2.66-2.49s.09-2.9-.64-4.09a1.18,1.18,0,0,0-.83-.62c-.71,0-1.05.83-1.53,1.36-1,1.14-3,.55-4-.64s-1.34-2.76-2.08-4.11c-.18-.31-.42-.65-.78-.67a1.24,1.24,0,0,0-.79.42,3.15,3.15,0,0,1-5.42-1.76,5.05,5.05,0,0,1,.56-3.33,8.68,8.68,0,0,0,.73-1.58,6.2,6.2,0,0,0,.08-2.15,45.24,45.24,0,0,1-.1-4.8,13.05,13.05,0,0,1,2.45-6.3,15.44,15.44,0,0,1,12.9-7.06C213.73,155.29,223.07,162.34,221.17,170.5Z" fill="#fff"/><path d="M208,194.19a2.64,2.64,0,0,1-1.36-.4,4.39,4.39,0,0,1-1.83-3c-.05-.48-.07-.95-.08-1.4a4.63,4.63,0,0,0-.41-2.29l0-.07a3.58,3.58,0,0,0-.28.37,6.55,6.55,0,0,1-.45.59,3.05,3.05,0,0,1-2.3.93,4.5,4.5,0,0,1-3.23-1.62,10.21,10.21,0,0,1-1.5-2.76,16.08,16.08,0,0,0-.69-1.5h0a4.14,4.14,0,0,1-7.06-2.27,6,6,0,0,1,.63-4l.23-.43a5.44,5.44,0,0,0,.44-1,5.27,5.27,0,0,0,.05-1.7v-.11a44.47,44.47,0,0,1-.1-4.9,14.15,14.15,0,0,1,2.61-6.81,16.46,16.46,0,0,1,13.74-7.52A18,18,0,0,1,219.65,161a11.26,11.26,0,0,1,2.5,9.76h0l-.16.62a7.07,7.07,0,0,0-.37,3.71,6.51,6.51,0,0,0,.65,1.37,13.48,13.48,0,0,1,.64,1.26,3.32,3.32,0,0,1-.59,3.69,5.12,5.12,0,0,1-4.15,1.32l-.2,1.71a2.67,2.67,0,0,1-.61,1.62,2.6,2.6,0,0,1-2.91.32,5.45,5.45,0,0,0-.78-.21c-.85-.11-1.66.93-2,2-.13.46-.22.94-.32,1.45a9.11,9.11,0,0,1-.95,3,3.2,3.2,0,0,1-1.65,1.46A2.38,2.38,0,0,1,208,194.19Zm-3.73-9.28h.15A2.06,2.06,0,0,1,206,186a6.34,6.34,0,0,1,.71,3.29,11.9,11.9,0,0,0,.07,1.2,2.37,2.37,0,0,0,.9,1.59.49.49,0,0,0,.44.08,1.26,1.26,0,0,0,.57-.58,7.7,7.7,0,0,0,.72-2.39,14.2,14.2,0,0,1,.36-1.64c.54-1.82,2.06-3.66,4.14-3.4a5.77,5.77,0,0,1,1.14.29,3.84,3.84,0,0,0,.87.2c0-.06,0-.35.06-.47l.32-2.81a1,1,0,0,1,.46-.74,1,1,0,0,1,.87-.09,3.33,3.33,0,0,0,3.24-.55,1.28,1.28,0,0,0,.17-1.54,7.3,7.3,0,0,0-.53-1,9.19,9.19,0,0,1-.82-1.79,8.8,8.8,0,0,1,.36-4.79l.14-.56a9.45,9.45,0,0,0-2.12-8.07,16.12,16.12,0,0,0-11.75-5.91,14.46,14.46,0,0,0-12.06,6.6,12.36,12.36,0,0,0-2.29,5.8,45.69,45.69,0,0,0,.09,4.68v.11a6.59,6.59,0,0,1-.12,2.4,6.28,6.28,0,0,1-.6,1.36l-.2.39a4.06,4.06,0,0,0-.47,2.66,2.37,2.37,0,0,0,1.52,1.88,2.3,2.3,0,0,0,2.24-.63,2.22,2.22,0,0,1,1.52-.69,2,2,0,0,1,1.6,1.18,16,16,0,0,1,.78,1.7,9,9,0,0,0,1.2,2.26,2.49,2.49,0,0,0,1.74.89.92.92,0,0,0,.77-.28,4.17,4.17,0,0,0,.3-.4A2.41,2.41,0,0,1,204.26,184.91Zm-8.58-2.12Zm25.49-12.29h0Z" fill="#093f68"/><path d="M202.66,174.39a1,1,0,0,1-.86-.49,1,1,0,0,1,.35-1.37l5.54-3.31a1,1,0,0,1,1,1.72l-5.54,3.31A1.06,1.06,0,0,1,202.66,174.39Z" fill="#f56132"/><path d="M203.54,166.45a1,1,0,0,1-.4-.09l-3.67-1.6a1,1,0,1,1,.8-1.84l3.67,1.61a1,1,0,0,1-.4,1.92Z" fill="#ffbc0e"/><path d="M197.92,177.56a1,1,0,0,1-.92-.6l-2.09-4.83a1,1,0,0,1,1.83-.8l2.1,4.83a1,1,0,0,1-.52,1.31A1,1,0,0,1,197.92,177.56Z" fill="#70cc40"/><path d="M216.53,171.68a1,1,0,0,1-1-1v-4.5a1,1,0,0,1,2,0v4.5A1,1,0,0,1,216.53,171.68Z" fill="#ffbc0e"/><path d="M214,182.09a1,1,0,0,1-.43-.1l-4-1.9.87-1.8,4,1.9a1,1,0,0,1-.44,1.9Z" fill="#70cc40"/><path d="M209.91,164.25a1,1,0,0,1-.89-.53l-2.38-4.49a1,1,0,0,1,1.77-.94l2.38,4.49a1,1,0,0,1-.88,1.47Z" fill="#70cc40"/><path d="M226.91,188c-.59.4-8.44,11.07-8.44,11.07s9.91,17.49,15.25,22.67c4.16,4,17.4-1.93,12.55-11.66C244.24,206.05,226.91,188,226.91,188Z" fill="#68e1fd"/><path d="M237.46,224a6.29,6.29,0,0,1-4.44-1.55c-5.38-5.22-15-22.17-15.42-22.89a1,1,0,0,1,.06-1.08c5.28-7.17,8.2-11,8.68-11.3a1,1,0,0,1,1.29.13c.71.74,17.47,18.18,19.53,22.33a9,9,0,0,1-2.91,12A11.83,11.83,0,0,1,237.46,224Zm-17.8-24.86c1.74,3,10.11,17.37,14.75,21.88,1.72,1.66,5.68,1.22,8.66-1a7.12,7.12,0,0,0,2.3-9.53c-1.52-3.06-13.17-15.55-18.43-21.05C225.51,191.29,222.07,195.9,219.66,199.16Z" fill="#093f68"/><path d="M191.64,202.28c0-.64,1-1.88,1.38-2.39a11.7,11.7,0,0,0,1.39-1.94,66.34,66.34,0,0,0,1.93-6.58,1.37,1.37,0,0,1,.6-.93.91.91,0,0,1,1,.31,2.56,2.56,0,0,1,.45,1c.34,1.26.65,2.53.92,3.81,3.5-.66,6.8-1.78,10.25-2.63a1.93,1.93,0,0,1,1.44,0,1.73,1.73,0,0,1,.65,1.25,12,12,0,0,1-.72,5.51,34.62,34.62,0,0,1-3,7.33c-1.36,2.22-15.67,6.19-15.67,6.19Z" fill="#ffc9b0"/><path d="M192.33,214.28a1,1,0,0,1-.58-.19,1,1,0,0,1-.42-.75c-.58-9.37-.67-10.78-.68-11h0a4.79,4.79,0,0,1,1.31-2.68l.24-.33a9,9,0,0,1,.6-.75,4.39,4.39,0,0,0,.69-1,32,32,0,0,0,1.3-4.26c.2-.75.39-1.5.6-2.22a2.28,2.28,0,0,1,1.16-1.56,1.88,1.88,0,0,1,2.18.57,3.55,3.55,0,0,1,.66,1.43c.25.95.49,1.92.72,2.89,1.84-.39,3.66-.9,5.43-1.39,1.26-.36,2.52-.71,3.81-1a2.8,2.8,0,0,1,2.19.14,2.71,2.71,0,0,1,1.13,2,13.11,13.11,0,0,1-.75,6,35.36,35.36,0,0,1-3.07,7.54c-1.45,2.38-12.8,5.67-16.25,6.63A1.27,1.27,0,0,1,192.33,214.28Zm.31-12c0,.62.44,7,.61,9.71,6.38-1.84,13.22-4.32,13.89-5.41a34.34,34.34,0,0,0,2.86-7.11,11.36,11.36,0,0,0,.69-5.05c-.08-.46-.19-.55-.19-.55s-.19,0-.68.08c-1.27.31-2.51.66-3.75,1-2.12.59-4.31,1.21-6.56,1.63a1,1,0,0,1-1.16-.77c-.27-1.27-.57-2.53-.9-3.76a3.73,3.73,0,0,0-.14-.44v0c-.21.7-.39,1.42-.58,2.15a34.18,34.18,0,0,1-1.39,4.52,5.81,5.81,0,0,1-1,1.53,5.49,5.49,0,0,0-.48.6c-.08.1-.17.24-.29.39A6.94,6.94,0,0,0,192.64,202.27Z" fill="#093f68"/><path d="M211.31,183.54a5.34,5.34,0,0,0-2.33,2.35,3,3,0,0,0,.49,3.36c1.38,1.31,4,.78,5.05,2.35a5.37,5.37,0,0,1,.57,2.36c.48,3.35,4.49,8.18,8.3,6.23,1.65-.84,3.43-1.66,4.24-3.48a8.48,8.48,0,0,0,.58-4.15,11.75,11.75,0,0,0-3-7.14c-3.14-3.35-9.69-4.11-13.71-2Z" fill="#ffc9b0"/><path d="M221.57,201.64A5.54,5.54,0,0,1,219,201a10.07,10.07,0,0,1-4.89-6.87l-.06-.53a3.28,3.28,0,0,0-.35-1.41c-.35-.52-1.12-.7-2-.91a6,6,0,0,1-2.89-1.27,4,4,0,0,1-.72-4.49,6.23,6.23,0,0,1,2.76-2.82l.24-.13c4.58-2.42,11.55-1.39,14.9,2.19a12.81,12.81,0,0,1,3.25,7.75,9.34,9.34,0,0,1-.67,4.64c-.91,2-2.79,3-4.44,3.84l-.26.12A4.85,4.85,0,0,1,221.57,201.64Zm-4.83-18.39a10.27,10.27,0,0,0-4.75,1.06l-.18.1h0a4.45,4.45,0,0,0-1.91,1.89,2.07,2.07,0,0,0,.27,2.23,4.4,4.4,0,0,0,2,.77,4.81,4.81,0,0,1,3.22,1.75,5,5,0,0,1,.68,2.3c0,.15,0,.31.05.47a8.16,8.16,0,0,0,3.83,5.38,3.16,3.16,0,0,0,3,.1l.26-.13c1.49-.75,2.9-1.47,3.53-2.87a7.54,7.54,0,0,0,.5-3.66,10.79,10.79,0,0,0-2.72-6.54C222.79,184.27,219.71,183.25,216.74,183.25Zm-5.43.29h0Z" fill="#093f68"/><path d="M191,200.78l4.54,10.77s-24.43,15.29-31.81,16.18c-5.76.7-11-17-.52-19.91C169.68,206.05,191,200.78,191,200.78Z" fill="#68e1fd"/><path d="M163.4,228.75c-3.35,0-6-4.39-6.87-8.75-1-5,.11-11.41,6.43-13.14s27.6-7,27.81-7.05a1,1,0,0,1,1.16.58l4.55,10.77a1,1,0,0,1-.4,1.24c-1,.63-24.7,15.42-32.22,16.33A3.54,3.54,0,0,1,163.4,228.75Zm27-26.8c-4,1-21.28,5.28-26.93,6.84-5,1.37-5.85,6.49-5,10.83.81,4.1,3.15,7.37,5.13,7.12,6.38-.77,26.59-13.07,30.68-15.59Z" fill="#093f68"/></svg>