<svg xmlns="http://www.w3.org/2000/svg" viewBox="0 0 400 300"><g id="_541_eating_ice_cream_outline" data-name="#541_eating_ice_cream_outline"><path d="M228.18,91.2a32,32,0,1,1,0-.87C228.18,90.62,228.18,90.91,228.18,91.2Z" fill="#68e1fd"/><path d="M196,124.36A33.15,33.15,0,1,1,229.17,90.3c0,.29,0,.59,0,.9A33.2,33.2,0,0,1,196,124.36Zm0-64.31A31.16,31.16,0,1,0,227.18,91.2c0-.28,0-.56,0-.84A31.13,31.13,0,0,0,196,60.05Z" fill="#093f68"/><path d="M228.17,90.33l-56.53,21.84a32.17,32.17,0,0,1-6.29-30.61,90,90,0,0,1,47.13-18A32.1,32.1,0,0,1,228.17,90.33Z" fill="#fff"/><path d="M171.64,113.17a1,1,0,0,1-.76-.35,33.22,33.22,0,0,1-6.49-31.57,1.06,1.06,0,0,1,.36-.5c18.15-13.51,35.93-17.34,47.66-18.17a1,1,0,0,1,.58.14A33,33,0,0,1,229.17,90.3a1,1,0,0,1-.64,1L172,113.1A1.15,1.15,0,0,1,171.64,113.17Zm-5.43-31A31.19,31.19,0,0,0,171.94,111l55.2-21.33A30.93,30.93,0,0,0,212.23,64.6C200.83,65.45,183.72,69.22,166.21,82.16Z" fill="#093f68"/><ellipse cx="200" cy="109.75" rx="66.17" ry="35.89" transform="translate(-27.6 94.19) rotate(-24.84)" fill="#68e1fd"/><path d="M172.57,153.57c-1.5,0-3,0-4.43-.14-14.57-.92-24.9-6.41-29.09-15.46-8.55-18.46,11.84-46.14,45.45-61.7s67.9-13.2,76.45,5.26-11.84,46.13-45.45,61.69C201,150,185.89,153.57,172.57,153.57Zm55-85.66c-12.6,0-27.45,3.35-42.21,10.18-32.61,15.1-52.56,41.58-44.48,59,3.87,8.35,13.6,13.43,27.41,14.31,14,.89,30.5-2.67,46.39-10,32.61-15.1,52.56-41.58,44.48-59C254.71,72.81,242.78,67.91,227.55,67.91Z" fill="#093f68"/><polygon points="173.64 224.42 168.86 240.96 227.23 240.96 225.4 224.41 173.64 224.42" fill="#093f68"/><path d="M227.23,242H168.86a1,1,0,0,1-1-1.27l4.78-16.54a1,1,0,0,1,1-.72H225.4a1,1,0,0,1,1,.89l1.82,16.55a1,1,0,0,1-.25.77A1,1,0,0,1,227.23,242Zm-57-2h55.92l-1.6-14.54H174.39Z" fill="#093f68"/><path d="M161.85,149.5l-.25.76c-2,5.91-4.3,11.87-4.15,18.09.24,10,7.19,19.05,16,23.88s19.14,6,29.17,5.79c7.42-.18,15-1.14,21.71-4.22s12.69-8.48,15.13-15.49c3.54-10.14-.66-21.36.73-32,2.27-17.27,10.64-39.27-.44-55.17-3.6-5.16-9-8.82-14.87-11.21-18-7.4-52.72-2.69-56.9,20.91-1.39,7.85.22,16.16-.2,24.09C167.32,133.27,164.45,141.62,161.85,149.5Z" fill="#725858"/><path d="M200.2,199.05c-11.07,0-20-2-27.25-5.94-9.8-5.39-16.27-15.1-16.5-24.74-.14-5.62,1.69-11,3.46-16.22.25-.74.5-1.47.74-2.2l.61-1.86c2.5-7.57,5.09-15.39,5.5-23.23a93.41,93.41,0,0,0-.15-9.6c-.24-4.82-.48-9.81.37-14.61,1.42-8,6.44-14.63,14.5-19.06,12.2-6.71,31-7.83,43.76-2.59,6.65,2.73,11.94,6.72,15.31,11.56,8.87,12.74,5.61,29.3,2.72,43.92-.83,4.2-1.61,8.17-2.1,12-.58,4.37-.17,9,.22,13.4.55,6.26,1.12,12.73-1,18.81-2.36,6.76-8.07,12.61-15.67,16.07-6,2.72-13,4.08-22.09,4.31Zm6.25-121.34c-8.09,0-16.77,1.65-24,5.63C174.93,87.48,170.26,93.58,169,101c-.81,4.58-.57,9.45-.34,14.17a97,97,0,0,1,.15,9.8c-.43,8.1-3.06,16.06-5.6,23.75l-.36,1.09h0l-.25.77-.75,2.21c-1.71,5.05-3.48,10.27-3.35,15.54.21,8.94,6.28,18,15.46,23,7.46,4.1,16.84,5.95,28.67,5.66,8.83-.22,15.6-1.53,21.31-4.13,7.11-3.23,12.43-8.66,14.61-14.91,2-5.67,1.45-11.65.89-18a63.93,63.93,0,0,1-.21-13.83c.51-3.85,1.3-7.85,2.13-12.08,2.81-14.23,6-30.35-2.4-42.39-3.15-4.52-8.14-8.27-14.43-10.85A49,49,0,0,0,206.45,77.71Zm-44.6,71.79h0Z" fill="#093f68"/><path d="M257,168.88c0,2.93-2.28,15.19-2.28,15.19-.78,8.15-8.46,27.66-18.28,29.53-1.46.28-6.77-5-11.08-9.1v19.91H173.64V182a17.61,17.61,0,0,1,17.61-17.6h16.33a60.56,60.56,0,0,1,9.83.71c6,0,8.35,5.74,10.27,8.93a189.53,189.53,0,0,1,8.76,17.27l4.38-8.26H241c1.38-3.95,1.23-6.87.94-11.36a21,21,0,0,1,0-4.34,17.62,17.62,0,0,1,1.15-4c1.13-2.84,5.73-5.7,8.91-4.73S257,166.07,257,168.88Z" fill="#ffc9b0"/><path d="M225.36,225.41H173.64a1,1,0,0,1-1-1V182a18.62,18.62,0,0,1,18.61-18.6h16.33a61.38,61.38,0,0,1,9.91.71c5.79,0,8.49,4.88,10.28,8.08.27.47.52.92.76,1.33,3.17,5.29,6.47,12.24,8,15.52l3.42-6.46a1,1,0,0,1,.26-.31c1.12-3.45,1-6,.73-10.51a21.57,21.57,0,0,1,0-4.54,18.15,18.15,0,0,1,1.21-4.19c1.3-3.28,6.44-6.44,10.13-5.32,3.94,1.18,5.69,8.46,5.72,11.15h0c0,3-2.21,14.88-2.3,15.38-.75,7.83-8.37,28.29-19.08,30.33-1.62.3-4.41-2.12-10.26-7.74v17.57A1,1,0,0,1,225.36,225.41Zm-50.72-2h49.72V204.5a1,1,0,0,1,.6-.92,1,1,0,0,1,1.09.19l.93.9c3,2.92,8.11,7.81,9.35,7.94,9.1-1.75,16.66-21,17.39-28.64,0-.21,2.31-12.29,2.28-15.08s-1.87-8.54-4.3-9.27c-2.61-.79-6.74,1.76-7.69,4.15a16.26,16.26,0,0,0-1.09,3.72,20.36,20.36,0,0,0,0,4.14c.29,4.37.49,7.52-1,11.75a1,1,0,0,1-.43.54l-4.17,7.85a1,1,0,0,1-.92.53,1,1,0,0,1-.88-.59,188.6,188.6,0,0,0-8.7-17.16c-.26-.42-.52-.89-.8-1.38-1.75-3.15-3.94-7.06-8.61-7.06l-.17,0a59.35,59.35,0,0,0-9.66-.69H191.25A16.62,16.62,0,0,0,174.64,182Z" fill="#093f68"/><path d="M224,192.44a1,1,0,0,1-1-1V178a1,1,0,0,1,2,0v13.44A1,1,0,0,1,224,192.44Z" fill="#093f68"/><path d="M228.47,195.48c.56-8.33-6.48-12.32-11.06-12.85a85.05,85.05,0,0,0-9.84-.5H191.25c-9.73,0-17.61,5.55-17.61,12.4v29.88h51.72l.49-16.8S227.91,203.81,228.47,195.48Z" fill="#68e1fd"/><path d="M225.36,225.41H173.64a1,1,0,0,1-1-1V194.53c0-7.39,8.35-13.41,18.61-13.41h16.32a84.83,84.83,0,0,1,10,.52c4.95.57,12.56,4.85,11.95,13.91-.51,7.42-2.17,11.35-2.63,12.31l-.48,16.58A1,1,0,0,1,225.36,225.41Zm-50.72-2h49.74l.47-15.83a.89.89,0,0,1,.12-.45s2-3.76,2.5-11.72h0c.52-7.67-6-11.3-10.18-11.79a85.45,85.45,0,0,0-9.72-.5H191.25c-9.16,0-16.61,5.12-16.61,11.41Z" fill="#093f68"/><path d="M201,168v-9.06h11V168" fill="#ffc9b0"/><path d="M211.94,169a1,1,0,0,1-1-1v-8.06h-9V168a1,1,0,0,1-2,0v-9.06a1,1,0,0,1,1-1h11a1,1,0,0,1,1,1V168A1,1,0,0,1,211.94,169Z" fill="#093f68"/><path d="M187.49,130.3c0,5.09-4.77,9.21-10.66,9.21s-10.66-6.79-10.66-11.88,4.77-6.55,10.66-6.55S187.49,125.21,187.49,130.3Z" fill="#ffc9b0"/><path d="M176.83,140.51c-6.28,0-11.66-7.08-11.66-12.88,0-5,3.92-7.55,11.66-7.55,6.43,0,11.66,4.58,11.66,10.22S183.26,140.51,176.83,140.51Zm0-18.43c-9.66,0-9.66,4.18-9.66,5.55,0,4.8,4.55,10.88,9.66,10.88,5.33,0,9.66-3.68,9.66-8.21S182.16,122.08,176.83,122.08Z" fill="#093f68"/><path d="M249.66,127.63c0,5.09-4.78,11.88-10.67,11.88s-10.66-4.12-10.66-9.21,4.77-9.22,10.66-9.22S249.66,122.54,249.66,127.63Z" fill="#ffc9b0"/><path d="M239,140.51c-6.43,0-11.66-4.58-11.66-10.21s5.23-10.22,11.66-10.22c7.74,0,11.67,2.54,11.67,7.55C250.66,133.43,245.27,140.51,239,140.51Zm0-18.43c-5.32,0-9.66,3.69-9.66,8.22s4.34,8.21,9.66,8.21c5.12,0,9.67-6.08,9.67-10.88C248.66,126.26,248.66,122.08,239,122.08Z" fill="#093f68"/><path d="M240.36,103.63v24.45a32.16,32.16,0,1,1-64.32,0V105.69s3.41,0,9.1,0l2.43-9.37,3.55,9.31c7.58-.1,17.41-.32,28.09-.77h0c1.25-4.33,3.25-12.66,3.25-12.66l8.9,12C234.35,104.05,237.36,103.85,240.36,103.63Z" fill="#ffc9b0"/><path d="M208.2,161.33A33.24,33.24,0,0,1,175,128.08V105.69a1,1,0,0,1,.29-.71,1.1,1.1,0,0,1,.72-.29s3.15,0,8.31,0l2.24-8.63a1,1,0,0,1,1.9-.11l3.3,8.66c6.39-.09,15.95-.29,26.64-.73,1.23-4.4,3-11.85,3-11.93a1,1,0,0,1,.78-.75,1,1,0,0,1,1,.39l8.58,11.61c2.81-.17,5.63-.36,8.44-.57a1,1,0,0,1,.76.27,1,1,0,0,1,.32.73v24.45A33.25,33.25,0,0,1,208.2,161.33ZM177,106.7v21.38a31.16,31.16,0,1,0,62.32,0V104.71q-4,.29-7.94.52a1,1,0,0,1-.87-.41l-7.63-10.33c-.67,2.76-1.89,7.63-2.74,10.6a1,1,0,0,1-.93.76c-11.41.48-21.59.68-28.12.77a1,1,0,0,1-.95-.64l-2.43-6.39-1.65,6.34a1,1,0,0,1-1,.75C181.28,106.71,178.45,106.7,177,106.7Z" fill="#093f68"/><path d="M185.19,116.27a2,2,0,0,1,0-4l14.2-.19a2,2,0,0,1,0,4l-14.2.19Z" fill="#093f68"/><path d="M232.5,116h0l-14.2-.09a2,2,0,0,1,0-4h0l14.2.09a2,2,0,0,1,0,4Z" fill="#093f68"/><path d="M212.14,137.22a19.17,19.17,0,0,1-2.91-.24,1,1,0,0,1,.35-2,14.24,14.24,0,0,0,4.33.05c.14-.9-1-4-2.5-7a1,1,0,1,1,1.77-.92c1,2,3.39,6.91,2.53,8.84a1.63,1.63,0,0,1-1.13,1A9.92,9.92,0,0,1,212.14,137.22Z" fill="#093f68"/><ellipse cx="229.17" cy="127.63" rx="2.84" ry="2.84" fill="#093f68"/><ellipse cx="200" cy="127.63" rx="2.84" ry="2.84" fill="#093f68"/><path d="M226.48,135.73a10.11,10.11,0,1,1,10.11-10.1A10.12,10.12,0,0,1,226.48,135.73Zm0-18.21a8.11,8.11,0,1,0,8.11,8.11A8.12,8.12,0,0,0,226.48,117.52Z" fill="#093f68"/><path d="M199.39,135.73a10.11,10.11,0,1,1,10.11-10.1A10.11,10.11,0,0,1,199.39,135.73Zm0-18.21a8.11,8.11,0,1,0,8.11,8.11A8.12,8.12,0,0,0,199.39,117.52Z" fill="#093f68"/><path d="M217.37,126.63H208.5a1,1,0,0,1,0-2h8.87a1,1,0,0,1,0,2Z" fill="#093f68"/><path d="M235.47,125.22a1,1,0,0,1-.63-1.78l5-4a1,1,0,1,1,1.26,1.55l-5,4A1,1,0,0,1,235.47,125.22Z" fill="#093f68"/><path d="M190.28,126.63a.91.91,0,0,1-.32-.06L176.51,122a1,1,0,1,1,.64-1.9l13.45,4.55a1,1,0,0,1-.32,1.95Z" fill="#093f68"/><path d="M231.53,200.66a1.06,1.06,0,0,1-.51-.14,1,1,0,0,1-.35-1.37l4.9-8.35a1,1,0,0,1,1.73,1l-4.91,8.35A1,1,0,0,1,231.53,200.66Z" fill="#093f68"/><path d="M249.34,146.7a9.41,9.41,0,1,0-12.14,0c-2.83,1-4.7,2.63-4.7,4.49,0,3,4.82,5.44,10.77,5.44S254,154.2,254,151.19C254,149.33,252.18,147.68,249.34,146.7Z" fill="#fff"/><path d="M243.27,157.63c-6.6,0-11.77-2.83-11.77-6.44,0-1.9,1.44-3.64,3.92-4.84a10.42,10.42,0,1,1,15.7,0c2.48,1.2,3.92,2.94,3.92,4.84C255,154.8,249.87,157.63,243.27,157.63Zm0-26.53a8.41,8.41,0,0,0-5.42,14.84,1,1,0,0,1,.34.94,1,1,0,0,1-.66.76c-2.48.86-4,2.22-4,3.55,0,2.1,4,4.44,9.77,4.44s9.77-2.34,9.77-4.44c0-1.33-1.54-2.69-4-3.55a1,1,0,0,1-.66-.76,1,1,0,0,1,.34-.94,8.41,8.41,0,0,0-5.43-14.84Z" fill="#093f68"/><polygon points="242.78 188.69 231.53 153.11 254.03 153.11 242.78 188.69" fill="#f56132"/><path d="M242.78,189.69a1,1,0,0,1-.95-.69l-11.25-35.59a1,1,0,0,1,.14-.89,1,1,0,0,1,.81-.41H254a1,1,0,0,1,.81.41,1,1,0,0,1,.14.89L243.73,189A1,1,0,0,1,242.78,189.69Zm-9.89-35.58,9.89,31.27,9.89-31.27Z" fill="#093f68"/><path d="M241.64,157.88a6.43,6.43,0,0,0-.37,3.12l.34,7c.12,2.51.35,5.27,2.16,7a6.89,6.89,0,0,0,2,1.29,10,10,0,0,0,6.49.7,7.62,7.62,0,0,0,5-4c1.83-3.85.08-12-2.91-15.17C251.82,155.09,243.61,153.85,241.64,157.88Z" fill="#ffc9b0"/><path d="M250.12,178.27a11.63,11.63,0,0,1-4.74-1,7.88,7.88,0,0,1-2.3-1.49c-2-2-2.33-4.86-2.47-7.67l-.34-7a7.27,7.27,0,0,1,.47-3.61h0a5.87,5.87,0,0,1,4.72-3c3.43-.51,7.78.72,9.69,2.76,3.14,3.34,5.19,11.83,3.08,16.28a8.6,8.6,0,0,1-5.71,4.52A10.11,10.11,0,0,1,250.12,178.27Zm-3-22a8.12,8.12,0,0,0-1.32.1,4.11,4.11,0,0,0-3.22,1.92h0a5.74,5.74,0,0,0-.27,2.63l.34,7c.12,2.51.35,4.88,1.85,6.32a6.06,6.06,0,0,0,1.74,1.1A9,9,0,0,0,252,176a6.59,6.59,0,0,0,4.39-3.44c1.58-3.32.07-11.07-2.73-14C252.46,157.23,249.61,156.3,247.08,156.3Zm-5.44,1.58h0Z" fill="#093f68"/><path d="M196.61,183.12h-.13a1,1,0,0,1-.86-1.13c1.45-10.8-.53-16.74-.55-16.8a1,1,0,0,1,1.89-.65c.09.25,2.16,6.39.64,17.72A1,1,0,0,1,196.61,183.12Z" fill="#093f68"/><path d="M218.48,183.12h-.12a1,1,0,0,1-.87-1.11c0-.11.55-5.69-2.69-16.86a1,1,0,1,1,1.92-.56c3.39,11.68,2.78,17.41,2.75,17.65A1,1,0,0,1,218.48,183.12Z" fill="#093f68"/><path d="M212.77,149.29c-4.62,0-10.71-1.63-16.88-8a1,1,0,0,1,1.44-1.4c11.52,11.88,22.45,5.9,22.56,5.84a1,1,0,1,1,1,1.74A18.16,18.16,0,0,1,212.77,149.29Z" fill="#093f68"/><path d="M193.37,143a1,1,0,0,1-.67-1.75c2.44-2.16,2.61-3.92,2.61-3.93a1,1,0,0,1,1.06-.93,1,1,0,0,1,.94,1c0,.25-.2,2.59-3.28,5.33A1,1,0,0,1,193.37,143Z" fill="#093f68"/><path d="M227.8,176.93a9.41,9.41,0,1,0-12.14,0c-2.83,1-4.7,2.63-4.7,4.49,0,3,4.83,5.44,10.77,5.44s10.77-2.43,10.77-5.44C232.5,179.56,230.64,177.91,227.8,176.93Z" fill="#fff"/><path d="M221.73,187.86c-6.6,0-11.77-2.82-11.77-6.44,0-1.9,1.44-3.64,3.93-4.84a10.42,10.42,0,1,1,15.69,0c2.48,1.2,3.92,2.94,3.92,4.84C233.5,185,228.33,187.86,221.73,187.86Zm0-26.53a8.41,8.41,0,0,0-5.42,14.84,1,1,0,0,1-.32,1.71c-2.48.85-4,2.21-4,3.54,0,2.1,4,4.44,9.77,4.44s9.77-2.34,9.77-4.44c0-1.33-1.54-2.69-4-3.54a1,1,0,0,1-.66-.77,1,1,0,0,1,.34-.94,8.41,8.41,0,0,0-5.43-14.84Z" fill="#093f68"/><polygon points="221.24 218.93 209.99 183.34 232.49 183.34 221.24 218.93" fill="#f56132"/><path d="M221.24,219.93a1,1,0,0,1-1-.7L209,183.65a1,1,0,0,1,.14-.9,1,1,0,0,1,.81-.41h22.5a1,1,0,0,1,1,1.31l-11.26,35.58A1,1,0,0,1,221.24,219.93Zm-9.89-35.59,9.89,31.27,9.89-31.27Z" fill="#093f68"/><path d="M173.64,182c-2.26,14.35-.87,33.91,7,39.26s33.41-12.11,33.41-12.11,3.94-.37,8.26-4.31,6.14-9.36,4-13.4-7-.68-9.82,0-4.57,8.22-4.57,8.22L190.47,202l1.82-28" fill="#ffc9b0"/><path d="M184.62,223.27a7.94,7.94,0,0,1-4.53-1.18c-8.07-5.48-9.86-24.83-7.44-40.25a1,1,0,0,1,2,.31c-2.35,15-.53,33.45,6.6,38.28,6,4.08,25.34-7.35,32.28-12.1a1,1,0,0,1,.47-.17s3.7-.42,7.68-4.06,5.66-8.67,3.8-12.19c-1.15-2.17-3.27-1.53-6.38-.31a18.13,18.13,0,0,1-2.33.81c-1.51.36-3.17,4.67-3.82,7.47a1,1,0,0,1-.87.77L190.58,203a.94.94,0,0,1-.8-.27,1,1,0,0,1-.31-.79L191.29,174a1,1,0,0,1,2,.13l-1.74,26.77,19.59-2.13c.58-2.2,2.27-7.58,5.13-8.27a18.21,18.21,0,0,0,2.07-.73c2.71-1.06,6.81-2.67,8.87,1.23,2.3,4.34.61,10.21-4.21,14.61a17.29,17.29,0,0,1-8.56,4.53,136.87,136.87,0,0,1-13.67,8C193.91,221.55,188.51,223.27,184.62,223.27Z" fill="#093f68"/><path d="M201,144.36s-2.58,8.2,3.06,9.61,7.91-5.88,7.91-5.88S207.9,149.67,201,144.36Z" fill="#093f68"/></g></svg>