<svg xmlns="http://www.w3.org/2000/svg" viewBox="0 0 400 300"><g id="_334_eco_car_outline" data-name="#334_eco_car_outline"><path d="M199.88,245.12l-1.7,0a88.54,88.54,0,0,1-86.26-81,2.5,2.5,0,0,1,2.49-2.7H144.2a2.5,2.5,0,0,1,0,5h-27a83.13,83.13,0,1,0,84.27-92.75c-2.26-.05-4.55,0-6.79.14a2.5,2.5,0,1,1-.31-5c2.38-.15,4.8-.2,7.19-.15a88.23,88.23,0,0,1-1.65,176.44Z" fill="#093f68"/><path d="M142.6,184.71h18a0,0,0,0,1,0,0v14.78a6,6,0,0,1-6,6h-5.93a6,6,0,0,1-6-6V184.71A0,0,0,0,1,142.6,184.71Z" fill="#093f68"/><path d="M154.55,206.51h-5.93a7,7,0,0,1-7-7V184.71a1,1,0,0,1,1-1h18a1,1,0,0,1,1,1v14.78A7,7,0,0,1,154.55,206.51Zm-11-20.8v13.78a5,5,0,0,0,5,5h5.93a5,5,0,0,0,5-5V185.71Z" fill="#093f68"/><path d="M239.14,184.71h18a0,0,0,0,1,0,0v14.78a6,6,0,0,1-6,6h-5.93a6,6,0,0,1-6-6V184.71A0,0,0,0,1,239.14,184.71Z" fill="#093f68"/><path d="M251.09,206.51h-5.92a7,7,0,0,1-7-7V184.71a1,1,0,0,1,1-1h18a1,1,0,0,1,1,1v14.78A7,7,0,0,1,251.09,206.51Zm-11-20.8v13.78a5,5,0,0,0,5,5h5.92a5,5,0,0,0,5-5V185.71Z" fill="#093f68"/><path d="M147.75,132.47v-4a2.41,2.41,0,0,0-2.41-2.42h-3.18a5,5,0,0,0-5,5v1.91a2.26,2.26,0,0,0,2.26,2.25H151.2v-2.71Z" fill="#68e1fd"/><path d="M151.2,136.18H139.46a3.26,3.26,0,0,1-3.26-3.25V131a6,6,0,0,1,6-6h3.18a3.42,3.42,0,0,1,3.41,3.42v3h2.45a1,1,0,0,1,1,1v2.71A1,1,0,0,1,151.2,136.18Zm-9-9.12a4,4,0,0,0-4,4v1.91a1.26,1.26,0,0,0,1.26,1.25H150.2v-.71h-2.45a1,1,0,0,1-1-1v-4a1.42,1.42,0,0,0-1.41-1.42Z" fill="#093f68"/><path d="M252,132.47v-4a2.41,2.41,0,0,1,2.41-2.42h3.19a5,5,0,0,1,4.95,5v1.91a2.25,2.25,0,0,1-2.25,2.25H248.51v-2.71Z" fill="#68e1fd"/><path d="M260.26,136.18H248.51a1,1,0,0,1-1-1v-2.71a1,1,0,0,1,1-1H251v-3a3.42,3.42,0,0,1,3.41-3.42h3.19a6,6,0,0,1,5.95,6v1.91A3.26,3.26,0,0,1,260.26,136.18Zm-10.75-2h10.75a1.25,1.25,0,0,0,1.25-1.25V131a4,4,0,0,0-3.95-4h-3.19a1.42,1.42,0,0,0-1.41,1.42v4a1,1,0,0,1-1,1h-2.45Z" fill="#093f68"/><path d="M262.33,154.92s.13-4.75-2-7.79-7.88-7.79-8.95-12.15-9.27-26.14-16.31-30.25c-4.33-2.53-25.07-3.17-35.21-3.17s-30.89.64-35.22,3.17c-7,4.11-15.24,25.89-16.31,30.25s-6.81,9.11-8.94,12.15-2,7.79-2,7.79v28.31a9.21,9.21,0,0,0,9.21,9.21H253.13a9.2,9.2,0,0,0,9.2-9.21V154.92Z" fill="#68e1fd"/><path d="M253.13,193.44H146.59a10.22,10.22,0,0,1-10.21-10.21V154.92c0-.18-.11-5.09,2.19-8.36a37.46,37.46,0,0,1,3-3.48c2.29-2.51,5.15-5.62,5.82-8.34.86-3.5,9.12-26.4,16.78-30.87,5.59-3.27,34.49-3.31,35.72-3.31s30.13,0,35.72,3.31c7.65,4.46,15.92,27.37,16.78,30.87.66,2.72,3.52,5.83,5.82,8.34a40.81,40.81,0,0,1,3,3.48c2.25,3.21,2.19,8,2.18,8.38v28.29A10.22,10.22,0,0,1,253.13,193.44Zm-53.27-90.88c-11.87,0-30.91.81-34.71,3-6.38,3.73-14.6,24.54-15.85,29.63-.79,3.21-3.71,6.4-6.29,9.21a38.42,38.42,0,0,0-2.81,3.28c-1.91,2.72-1.82,7.14-1.82,7.19v28.33a8.22,8.22,0,0,0,8.21,8.21H253.13a8.21,8.21,0,0,0,8.2-8.21V154.9c0-.05.09-4.47-1.82-7.19a38.42,38.42,0,0,0-2.81-3.28c-2.58-2.81-5.5-6-6.29-9.21-1.24-5.09-9.47-25.91-15.84-29.63C230.76,103.37,211.73,102.56,199.86,102.56Z" fill="#093f68"/><path d="M244.69,125a4.75,4.75,0,0,1-3.43,6.75c-7.08,1.27-20.54,3-41.4,3s-34.33-1.71-41.41-3A4.74,4.74,0,0,1,155,125l5.91-12.12a4.17,4.17,0,0,1,2.93-2.28c5.59-1.15,21.72-2.07,36-2.07s30.39.92,36,2.07a4.19,4.19,0,0,1,2.93,2.28Z" fill="#fff"/><path d="M199.86,135.76c-20.49,0-33.92-1.63-41.58-3a5.74,5.74,0,0,1-4.15-8.17L160,112.47a5.23,5.23,0,0,1,3.63-2.82c5.61-1.15,21.85-2.09,36.19-2.09s30.57.94,36.19,2.09a5.25,5.25,0,0,1,3.63,2.82l5.9,12.13a5.74,5.74,0,0,1-4.14,8.17C233.77,134.13,220.34,135.76,199.86,135.76Zm0-26.2c-14.23,0-30.28.92-35.79,2a3.15,3.15,0,0,0-2.23,1.73l-5.91,12.13a3.74,3.74,0,0,0,2.7,5.33c7.58,1.35,20.89,3,41.23,3s33.64-1.61,41.22-3a3.75,3.75,0,0,0,2.71-5.33h0l-5.91-12.13a3.17,3.17,0,0,0-2.24-1.73C230.14,110.48,214.08,109.56,199.86,109.56Z" fill="#093f68"/><path d="M165.15,162c.41-5.84-3.82-16.11-7.23-19.94s-7.9-5-10.08,0a19.24,19.24,0,0,0-1,13.6C148.11,159.18,164.73,167.79,165.15,162Z" fill="#fff"/><path d="M162.63,164.91c-4.66,0-15.41-5.27-16.69-9a20.46,20.46,0,0,1,1-14.33c1.23-2.83,3-3.67,4.34-3.87,2.34-.38,5,.94,7.41,3.6,3.65,4.11,7.9,14.67,7.47,20.68a3,3,0,0,1-2.88,2.86A6.05,6.05,0,0,1,162.63,164.91Zm-10.57-25.24a3.88,3.88,0,0,0-.48,0c-1.18.19-2.13,1.09-2.82,2.69a18.44,18.44,0,0,0-.93,12.89c.77,2.22,11,8.14,15.17,7.6,1-.13,1.12-.57,1.15-1,.39-5.42-3.6-15.42-7-19.21C155.48,140.76,153.61,139.67,152.06,139.67Z" fill="#093f68"/><path d="M234.57,162c-.42-5.84,3.81-16.11,7.22-19.94s7.9-5,10.08,0a19.3,19.3,0,0,1,1,13.6C251.6,159.18,235,167.79,234.57,162Z" fill="#fff"/><path d="M237.08,164.91q-.33,0-.63,0a3,3,0,0,1-2.88-2.86c-.43-6,3.82-16.57,7.47-20.68,2.37-2.66,5.08-4,7.41-3.6,1.3.2,3.11,1,4.34,3.87a20.46,20.46,0,0,1,1,14.33C252.5,159.64,241.74,164.91,237.08,164.91Zm10.57-25.24c-1.54,0-3.41,1.09-5.11,3-3.37,3.79-7.36,13.79-7,19.21,0,.44.14.88,1.14,1,4.22.55,14.4-5.38,15.17-7.6A18.43,18.43,0,0,0,251,142.4c-.7-1.6-1.65-2.5-2.83-2.69A3.58,3.58,0,0,0,247.65,139.67Z" fill="#093f68"/><path d="M179.7,177.18H220a10.62,10.62,0,0,1,10.62,10.62v1.47a0,0,0,0,1,0,0H169.08a0,0,0,0,1,0,0V187.8A10.62,10.62,0,0,1,179.7,177.18Z" fill="#093f68"/><path d="M230.63,190.27H169.08a1,1,0,0,1-1-1V187.8a11.63,11.63,0,0,1,11.62-11.62H220a11.63,11.63,0,0,1,11.61,11.62v1.47A1,1,0,0,1,230.63,190.27Zm-60.55-2h59.55v-.47a9.62,9.62,0,0,0-9.61-9.62H179.7a9.63,9.63,0,0,0-9.62,9.62Z" fill="#093f68"/><polygon points="204.42 142.58 190.97 158.2 197.69 158.92 192.65 171.42 208.75 154.36 199.86 153.4 204.42 142.58" fill="#70cc40"/><path d="M192.65,172.42a1,1,0,0,1-.54-.16,1,1,0,0,1-.39-1.22l4.55-11.26-5.41-.58a1,1,0,0,1-.65-1.65l13.46-15.62a1,1,0,0,1,1.67,1l-4,9.58,7.55.81a1,1,0,0,1,.84.65,1,1,0,0,1-.22,1L193.38,172.1A1,1,0,0,1,192.65,172.42Zm.32-15,4.83.52a1,1,0,0,1,.75.48,1,1,0,0,1,.07.89l-3.06,7.57,11.08-11.74-6.89-.74a1,1,0,0,1-.75-.49.94.94,0,0,1-.06-.89l2.09-4.95Z" fill="#093f68"/><path d="M202.82,57.38H217a0,0,0,0,1,0,0V92a0,0,0,0,1,0,0h-14.2a17.3,17.3,0,0,1-17.3-17.3v0a17.3,17.3,0,0,1,17.3-17.3Z" transform="translate(402.54 149.36) rotate(-180)" fill="#68e1fd"/><path d="M199.72,93h-14.2a1,1,0,0,1-1-1V57.38a1,1,0,0,1,1-1h14.2a18.3,18.3,0,1,1,0,36.6Zm-13.2-2h13.2a16.3,16.3,0,1,0,0-32.6h-13.2Z" fill="#093f68"/><path d="M170.17,80.1h12.65a2.67,2.67,0,0,1,2.67,2.67v0a2.67,2.67,0,0,1-2.67,2.67H170.17a0,0,0,0,1,0,0V80.1A0,0,0,0,1,170.17,80.1Z" transform="translate(355.67 165.55) rotate(-180)" fill="#68e1fd"/><path d="M185.5,86.44H172.84a3.67,3.67,0,0,1,0-7.34H185.5a1,1,0,0,1,1,1v5.34A1,1,0,0,1,185.5,86.44ZM172.84,81.1a1.67,1.67,0,0,0,0,3.34H184.5V81.1Z" fill="#093f68"/><path d="M170.17,63.92h12.65a2.67,2.67,0,0,1,2.67,2.67v0a2.67,2.67,0,0,1-2.67,2.67H170.17a0,0,0,0,1,0,0V63.92a0,0,0,0,1,0,0Z" transform="translate(355.67 133.18) rotate(180)" fill="#68e1fd"/><path d="M185.5,70.26H172.84a3.67,3.67,0,0,1,0-7.34H185.5a1,1,0,0,1,1,1v5.34A1,1,0,0,1,185.5,70.26Zm-12.66-5.34a1.67,1.67,0,0,0,0,3.34H184.5V64.92Z" fill="#093f68"/></g></svg>