<svg xmlns="http://www.w3.org/2000/svg" viewBox="0 0 400 300"><g id="_134_europe_outline" data-name="#134_europe_outline"><path d="M127.35,79H272.65a0,0,0,0,1,0,0V233.84a3.46,3.46,0,0,1-3.46,3.46H130.82a3.46,3.46,0,0,1-3.46-3.46V79A0,0,0,0,1,127.35,79Z" fill="#68e1fd"/><path d="M269.18,238.31H130.82a4.47,4.47,0,0,1-4.47-4.47V79a1,1,0,0,1,1-1h145.3a1,1,0,0,1,1,1V233.84A4.47,4.47,0,0,1,269.18,238.31ZM128.35,80V233.84a2.48,2.48,0,0,0,2.47,2.47H269.18a2.48,2.48,0,0,0,2.47-2.47V80Z" fill="#093f68"/><path d="M130.82,62.69H269.18a3.46,3.46,0,0,1,3.46,3.46V79a0,0,0,0,1,0,0H127.35a0,0,0,0,1,0,0V66.16A3.46,3.46,0,0,1,130.82,62.69Z" fill="#fff"/><path d="M272.65,80H127.35a1,1,0,0,1-1-1V66.16a4.47,4.47,0,0,1,4.47-4.47H269.18a4.47,4.47,0,0,1,4.47,4.47V79A1,1,0,0,1,272.65,80Zm-144.3-2h143.3V66.16a2.48,2.48,0,0,0-2.47-2.47H130.82a2.48,2.48,0,0,0-2.47,2.47Z" fill="#093f68"/><circle cx="138.26" cy="70.84" r="2.98" fill="#f56132"/><path d="M138.26,74.82a4,4,0,1,1,4-4A4,4,0,0,1,138.26,74.82Zm0-6a2,2,0,1,0,2,2A2,2,0,0,0,138.26,68.85Z" fill="#093f68"/><circle cx="148.04" cy="70.84" r="2.98" fill="#ffbc0e"/><path d="M148,74.82a4,4,0,1,1,4-4A4,4,0,0,1,148,74.82Zm0-6a2,2,0,1,0,2,2A2,2,0,0,0,148,68.85Z" fill="#093f68"/><circle cx="157.83" cy="70.84" r="2.98" fill="#70cc40"/><path d="M157.83,74.82a4,4,0,1,1,4-4A4,4,0,0,1,157.83,74.82Zm0-6a2,2,0,1,0,2,2A2,2,0,0,0,157.83,68.85Z" fill="#093f68"/><path d="M159.19,181.19c-1.26,1.18-1.14,3.33-2.46,4.7a3.76,3.76,0,0,1-3,1.27c-.51-.06-1-.26-1.5-.32-1.77-.2-3.64,1.29-5.21.47-1.25-.65-1.49-2.36-2.53-3.31a10.64,10.64,0,0,0-2.67-1.29c-.89-.43-1.74-1.36-1.45-2.32.11-.38.4-.7.53-1.09.25-.75-.16-1.58-.05-2.36.17-1.24,1.49-1.92,2.37-2.8a7.38,7.38,0,0,0,1.83-4.06c.2-1.1,0-2.74,1.26-3.35a1.84,1.84,0,0,1,1.16-.06,10,10,0,0,1,4.35,2.5,30.52,30.52,0,0,0,5.29,3.2,1.26,1.26,0,0,0,.83.2,1.14,1.14,0,0,0,.56-.41,9.69,9.69,0,0,0,2-9,4.86,4.86,0,0,0-1.34-2.31,16.69,16.69,0,0,1-1.64-1.23c-2-2.19,2.81-1.86,3.64-.49-.54-.89.88-1.8,1.88-1.53s1.87,1.06,2.91,1c2,0,3-2.9,5-3,.79,0,1.59.39,2.35.17,1.5-.45,1.65-3.05,3.21-3.22.68-.07,1.29.39,2,.46,1.39.14,2.39-1.38,2.59-2.77s-.05-2.85.47-4.15,2.37-2.19,3.32-1.16c-1.74,1.54,1.8,5.11-.11,6.44l2.67,2.66c2.39-2.31,6.42-1.21,9.49-2.49a6.57,6.57,0,0,0,3.84-6.95,2.43,2.43,0,0,1,3.28,2.09c1.79-.87,1.36-4.11-.59-4.5a9.89,9.89,0,0,1,7.27-2.1c.79-.92-.7-2.24-1.89-2s-2.19,1.1-3.39,1.25c-2.17.28-3.91-2.1-3.89-4.29a9,9,0,0,1,1.76-5c.89-1.23,3.53-2.52,3.25-4.27a1.76,1.76,0,0,0-1.83-1.37,2.77,2.77,0,0,0-2,1.26,6.38,6.38,0,0,0-.9,2.32,2.14,2.14,0,0,1-.78,1.48c-3.09,1.8-4.55,2.81-3.67,6.54.74,3.1-1.79,3.11-2.19,5.78a16.22,16.22,0,0,0,.18,2.07,4.07,4.07,0,0,1-1.59,2.71c-1.18,1.09-7.81,4.89-5.79.17a4.15,4.15,0,0,1,.87-1.32,1.87,1.87,0,0,0,.64-1,1.91,1.91,0,0,0-.4-1.07c-.73-1.27.46-4.49-1.23-4.88-.7-.17-1.34.4-2,.76-1.73,1-4.15.79-3.93-1.54.25-2.59.58-9,4.27-9.1a3.49,3.49,0,0,0,1.8-.17c.74-.45,1.54-1.92,2.19-2.54a18.11,18.11,0,0,0,2.77-3.21c2.26-3.43,4-7.36,8.27-8.71,1.61-.51,3.43-.87,4.48-2.18a3.38,3.38,0,0,1,.73-.82.73.73,0,0,1,1,.1c.37.59-.65,1.48-.16,2,.33.34.88,0,1.28-.25a3.52,3.52,0,0,1,4.46.65c.38.45.64,1,1,1.41a4.93,4.93,0,0,0,3.22,1.25,11.57,11.57,0,0,1,3.47.57c2,.87,2.55,3.45.23,4.29a14.57,14.57,0,0,1-6.31.83c.22,0,2.11,3.76,2.54,4.21,1.11,1.14,2.69,2.18,4.32,1.56a3,3,0,0,1-.3-3c.56-1.34,1.53-1.15,2.48-1.91,1.82-1.47.16-4.76.77-6.81.19-.67,1.09-1.18,1.58-.69a1.58,1.58,0,0,1,.31,1,2.71,2.71,0,0,0,.47,1.36,1.15,1.15,0,0,0,1.28.45,1.77,1.77,0,0,0,.84-.94,2.88,2.88,0,0,0,.39-1,5.64,5.64,0,0,0-.05-.82,3.73,3.73,0,0,1,1.83-3.45.66.66,0,0,1,.45-.11c.35.09.38.68.73.78a.68.68,0,0,0,.61-.23c1.21-1,3.23-2,4.17-3.14,2-1.94-1.52-1.71-1.66-3.11,0-.63.76-.93,1.39-1,2.49-.14,5.46-.13,7,2.14,1,1.45,1.75,3.68.89,5.36-.47.93-2,1.21-2.34,1.86-.47.95,1,3.51,1.35,4.55l.36,1,4,11.1a19.34,19.34,0,0,1,1.26,4.64c.91.16,2,.71,1.89,1.62-.16,1.48-2.2,1.64-1.55,3.51,1.44,4.09,4.35-1.41,6.14.68.71.83.41,2.15,1,3.1.83,1.49,5.59,1.22,4.89,3.77a1.68,1.68,0,0,1-.95.95c-2.39,1.22-5.25.76-7.91,1.1s-5.64,2.27-5.25,4.93c.3,2.05,2.46,3.31,3.27,5.22,1.58,3.8-3.46,5.93-4.19,9.2a5.48,5.48,0,0,0,1.16,4.23c.88,1.22,2,2.21,3,3.34a16,16,0,0,1,2.53,3.93c.23.51.41,1.18,0,1.57a1.32,1.32,0,0,1-.7.28c-3.14.49-6.11-1.85-9.29-1.79-.9,0-1.79.23-2.69.22-2.75,0-5.85-2.15-8.16-3.45a7.83,7.83,0,0,1-2.17-1.6,2.57,2.57,0,0,1-.53-2.53c.3-.69,1-1.13,1.41-1.75s.48-1.67-.22-1.95a1.67,1.67,0,0,0-.94,0c-1.76.37-3.73.73-4.78,2.31-1.79,2.67,1.28,2.34,1.2,4.2,0,.61-.72.92-1.31,1.07a17.11,17.11,0,0,1-3,.46,1.83,1.83,0,0,1-.93-.12c-1.06-.54-.34-2.34-1.09-3.28a2.49,2.49,0,0,0-2-.62c-1.77,0-4.67,1.92-4.73,3.84a11.26,11.26,0,0,0,.37,2.3,1.14,1.14,0,0,1-.1.91c-.23.3-.67.32-1,.46-1.55.59-.63,2.65-.2,3.69A4.22,4.22,0,0,1,213,187c0,1.68-2.35,2.23-4,1.78s-3.35-1.35-4.87-.64c-2,.95-1.91,4-.8,5.9a4.28,4.28,0,0,1,.75,1.76c.11,1.67-2.29,2.53-3.75,1.7s-2.15-2.52-2.8-4.07a27.38,27.38,0,0,1-1.94-5.6,6.35,6.35,0,0,0-2.35-4.31c-1.13-.83-2.6-1.3-3.31-2.5-.58-1-.53-2.21-1.12-3.17a4.86,4.86,0,0,0-1.53-1.39c-1.31-.85-4.94-3.82-6-1.12-.91,2.31,1.95,4,3.33,5.28a10.71,10.71,0,0,1,1.47,1.54c.4.57.68,1.22,1.09,1.78,1.28,1.75,3.62,2.52,4.76,4.36a1.59,1.59,0,0,1,.29,1.12.72.72,0,0,1-.86.6c-1.46-.52-1.24,1.34-1.89,2.2s-2.17,1.24-2.68,2.44c-.37.85,0,1.92-.48,2.73-1.09,0-1.59-1.4-2.58-1.86a12.8,12.8,0,0,0-1.63-.36c-.53-.17-1-.76-.77-1.25a8,8,0,0,0,5.43-1.09,2.67,2.67,0,0,0,1.25-1.38,2.62,2.62,0,0,0-.05-1.36,7.85,7.85,0,0,0-3.16-4.54c-1.28-.86-2.85-1.38-3.79-2.59a10.38,10.38,0,0,1-1.35-3.51,4.25,4.25,0,0,0-2.18-2.93c-1.6-.62-3.12.5-4.56,1-2,.75-3,.31-5-.44-2.18-.85-1.52-.66-2.29.93C164.16,181.11,161.43,179.11,159.19,181.19Z" fill="#70cc40"/><path d="M201.61,198.82a3.59,3.59,0,0,1-1.78-.44c-1.73-1-2.51-2.83-3.19-4.46l-.34-.82a23.52,23.52,0,0,1-1.7-5.08,5.29,5.29,0,0,0-2-3.69,11.64,11.64,0,0,0-1.07-.66,6.28,6.28,0,0,1-2.51-2.13,6.39,6.39,0,0,1-.66-1.84,4.58,4.58,0,0,0-.45-1.31,3.77,3.77,0,0,0-1.22-1.08l-.57-.38c-.82-.58-2.76-1.92-3.59-1.66-.06,0-.22.07-.37.45-.45,1.15.69,2.2,2.23,3.46.31.25.6.49.84.71a10.87,10.87,0,0,1,1.61,1.7c.22.31.4.63.59,1s.32.55.5.81a9.06,9.06,0,0,0,2.07,1.83,9.36,9.36,0,0,1,2.73,2.6,2.55,2.55,0,0,1,.43,1.84,1.86,1.86,0,0,1-.89,1.21A1.52,1.52,0,0,1,191,191c-.06.14-.12.35-.17.5a4.29,4.29,0,0,1-.6,1.36,5.12,5.12,0,0,1-1.48,1.24,2.68,2.68,0,0,0-1.09,1,3.11,3.11,0,0,0-.12.94,4,4,0,0,1-.4,1.89,1,1,0,0,1-.84.51,2.93,2.93,0,0,1-2.29-1.28,2.76,2.76,0,0,0-.74-.67,2.27,2.27,0,0,0-.63-.14,5.62,5.62,0,0,1-.89-.18,2.27,2.27,0,0,1-1.4-1.27,1.67,1.67,0,0,1,.05-1.4,1,1,0,0,1,1-.52,7,7,0,0,0,4.74-.95,1.74,1.74,0,0,0,.82-.81,1.85,1.85,0,0,0-.06-.84,6.86,6.86,0,0,0-2.75-4c-.38-.26-.8-.48-1.24-.73a6.55,6.55,0,0,1-4.09-5.17l-.21-.74c-.38-1.26-.91-2-1.58-2.29-.83-.32-1.72.1-2.76.58-.37.17-.73.33-1.09.47-2.32.87-3.7.33-5.62-.42l-.29-.11-.5-.2a5,5,0,0,1-.31.72c-1.06,2.19-2.76,2.38-4.12,2.53a4,4,0,0,0-2.54.89,4.49,4.49,0,0,0-1,1.88,7.06,7.06,0,0,1-1.47,2.79,4.74,4.74,0,0,1-3.86,1.56,6.68,6.68,0,0,1-.89-.18,6.21,6.21,0,0,0-.62-.14,5.36,5.36,0,0,0-1.9.33,4.73,4.73,0,0,1-3.66,0,4.84,4.84,0,0,1-1.89-2.2,4.93,4.93,0,0,0-.84-1.26,4.66,4.66,0,0,0-1.43-.72,8.74,8.74,0,0,1-1-.41c-1.28-.61-2.44-2-2-3.5a2.84,2.84,0,0,1,.37-.78,3.54,3.54,0,0,0,.17-.34,2.08,2.08,0,0,0,0-.85,3.67,3.67,0,0,1,1.89-4.09c.24-.2.49-.4.71-.62A6.55,6.55,0,0,0,144,169.9a6.89,6.89,0,0,0,.08-.69c.11-1.06.27-2.65,1.72-3.37a2.75,2.75,0,0,1,1.8-.15,10.68,10.68,0,0,1,4.69,2.63l.09.08a27.49,27.49,0,0,0,4.83,2.93l.29.15.14.07,0-.05a8.7,8.7,0,0,0,1.8-8,3.66,3.66,0,0,0-1-1.84,6.36,6.36,0,0,0-.59-.43,5.24,5.24,0,0,1-1.13-.89,2,2,0,0,1-.64-2.12,1.94,1.94,0,0,1,1.82-1.11,6,6,0,0,1,2.59.41,2.88,2.88,0,0,1,2.75-.84,7.6,7.6,0,0,1,1.35.56,3.2,3.2,0,0,0,1.27.45h0c.6,0,1.17-.56,1.83-1.21a4.94,4.94,0,0,1,3.13-1.78,5.25,5.25,0,0,1,1.24.13,2.18,2.18,0,0,0,.87.08c.34-.1.66-.64,1-1.17a3.37,3.37,0,0,1,2.43-2.08,3.34,3.34,0,0,1,1.58.28,2.41,2.41,0,0,0,.6.17c.7.08,1.36-.95,1.5-1.91.06-.45.07-.92.09-1.42a8.08,8.08,0,0,1,.45-3,3.7,3.7,0,0,1,2.68-2.19,2.45,2.45,0,0,1,2.29.72,1,1,0,0,1,.27.73,1,1,0,0,1-.34.69c-.33.3-.09,1.1.28,2.19s.81,2.38.3,3.44l1.39,1.39a10.85,10.85,0,0,1,5.26-1.37,13,13,0,0,0,3.78-.7,5.57,5.57,0,0,0,3.23-5.86,1,1,0,0,1,.57-1.08,3.28,3.28,0,0,1,3.12.3,3.71,3.71,0,0,1,.71.59,1.11,1.11,0,0,0,0-.19,1.32,1.32,0,0,0-.89-1.21,1,1,0,0,1-.44-1.76,10.68,10.68,0,0,1,1.72-1.14,4,4,0,0,1-2.12-1,5.74,5.74,0,0,1-1.87-4.25,10,10,0,0,1,1.95-5.55,8.7,8.7,0,0,1,1.43-1.41c.82-.7,1.74-1.49,1.65-2.12a.83.83,0,0,0-.8-.52,1.78,1.78,0,0,0-1.28.83,5.72,5.72,0,0,0-.75,2,3,3,0,0,1-1.25,2.12c-3.06,1.78-3.91,2.43-3.19,5.45a4.22,4.22,0,0,1-1.16,4.25,3.49,3.49,0,0,0-1,1.91,2.47,2.47,0,0,0,.07.82,5.49,5.49,0,0,1,.12,1.12,5.08,5.08,0,0,1-1.91,3.42c-.44.41-5.16,3.8-7.12,2.41-.87-.61-1-1.74-.27-3.36a5.28,5.28,0,0,1,1.06-1.62l.12-.12a2.92,2.92,0,0,0,.27-.31,1.4,1.4,0,0,1-.19-.26l-.1-.16a5.22,5.22,0,0,1-.39-2.67,4.35,4.35,0,0,0-.16-1.73c-.18,0-.59.21-.85.39l-.42.26a4.22,4.22,0,0,1-4.24.23,2.71,2.71,0,0,1-1.18-2.74l0-.51c.27-3.05.84-9.4,5.2-9.49l.57,0a1.73,1.73,0,0,0,.73-.05,6,6,0,0,0,1.05-1.22,9.55,9.55,0,0,1,1-1.18,17.25,17.25,0,0,0,2.63-3c.37-.56.73-1.13,1.08-1.7,1.89-3,3.84-6.18,7.73-7.41l.77-.24a6.22,6.22,0,0,0,3.23-1.62L205,111a3.2,3.2,0,0,1,.82-.83,1.88,1.88,0,0,1,1.4-.27,1.54,1.54,0,0,1,1,.67,1.58,1.58,0,0,1,.21,1.15,4.57,4.57,0,0,1,5.29,1.11c.2.24.37.49.54.74a5.07,5.07,0,0,0,.47.64,3.89,3.89,0,0,0,2.58.93c.23,0,.46,0,.69.06a9.65,9.65,0,0,1,3.08.59,3.88,3.88,0,0,1,2.27,2.51,7,7,0,0,1,.11-2.67,2.33,2.33,0,0,1,1.6-1.54,1.68,1.68,0,0,1,1.64.43,2.36,2.36,0,0,1,.6,1.5,2,2,0,0,0,.27.92.28.28,0,0,0,.18.12,3.71,3.71,0,0,0,.27-.47,2.42,2.42,0,0,0,.27-.66,3,3,0,0,0,0-.39l0-.25a4.75,4.75,0,0,1,2.33-4.4,1.73,1.73,0,0,1,1.19-.21,1.39,1.39,0,0,1,.77.52c.42-.32.88-.62,1.37-.94a10.47,10.47,0,0,0,2.35-1.82l.08-.09.17-.18-.34-.18c-.67-.33-1.68-.83-1.78-1.94a1.66,1.66,0,0,1,.4-1.24,2.9,2.9,0,0,1,1.93-.83c2.06-.11,5.92-.32,7.88,2.57,1.16,1.72,2,4.29,1,6.38a3.83,3.83,0,0,1-1.76,1.53,5.13,5.13,0,0,0-.56.34,9.59,9.59,0,0,0,.94,2.7c.18.41.35.78.44,1L249,130.65a22.94,22.94,0,0,1,1.23,4.18,2.5,2.5,0,0,1,2,2.53,3.16,3.16,0,0,1-1.16,2c-.53.52-.59.61-.43,1.06.27.77.5.88.53.89.22.09.91-.3,1.37-.55,1-.57,2.73-1.52,4.05,0a4.06,4.06,0,0,1,.8,2.18,3.35,3.35,0,0,0,.26,1.08,4.83,4.83,0,0,0,1.71.77c1.47.49,3.95,1.3,3.28,3.75a2.71,2.71,0,0,1-1.47,1.59,13,13,0,0,1-5.71,1c-.88,0-1.71.06-2.52.16a6.1,6.1,0,0,0-3.89,2,2.33,2.33,0,0,0-.5,1.77,5.44,5.44,0,0,0,1.5,2.5,9.79,9.79,0,0,1,1.7,2.49c1.2,2.86-.65,5-2.13,6.71a8,8,0,0,0-2,3.08,4.58,4.58,0,0,0,1,3.43,19.08,19.08,0,0,0,1.77,2c.41.42.82.84,1.2,1.28a16.81,16.81,0,0,1,2.69,4.17c.69,1.51.17,2.34-.21,2.7a2.22,2.22,0,0,1-1.23.54,11.28,11.28,0,0,1-5.47-.89,11.88,11.88,0,0,0-4-.88c-.39,0-.78.06-1.16.1a12.82,12.82,0,0,1-1.56.12c-2.58,0-5.3-1.63-7.49-2.92-.4-.23-.78-.46-1.15-.66a8.43,8.43,0,0,1-2.45-1.83,3.55,3.55,0,0,1-.68-3.56,4.74,4.74,0,0,1,1-1.37,6,6,0,0,0,.5-.56.88.88,0,0,0,.13-.44l-.26,0-.18,0c-1.57.33-3.19.67-4,1.85-.55.83-.52.86.08,1.35a2.77,2.77,0,0,1,1.29,2.34c0,.45-.26,1.55-2.08,2a17.09,17.09,0,0,1-3.18.48,2.61,2.61,0,0,1-1.44-.22,2.7,2.7,0,0,1-1.22-2.51,2.39,2.39,0,0,0-.2-1c-.18-.23-.89-.24-1.19-.25-1.32-.06-3.67,1.6-3.71,2.87a6.18,6.18,0,0,0,.21,1.39l.15.7a2.13,2.13,0,0,1-.29,1.69,2.08,2.08,0,0,1-1.24.72l-.23.07c-.15.06-.17.11-.19.14-.19.46.31,1.64.52,2.14l.13.33A4.12,4.12,0,0,1,214,187a2.64,2.64,0,0,1-1.09,2.11,5,5,0,0,1-4.15.62c-.35-.1-.72-.22-1.08-.34-1.16-.38-2.26-.74-3.1-.35a1.65,1.65,0,0,0-.87,1.06,4.71,4.71,0,0,0,.52,3.44l.13.22a4.52,4.52,0,0,1,.75,2,2.71,2.71,0,0,1-1.36,2.5A4,4,0,0,1,201.61,198.82Zm-18.83-25.58c1.58,0,3.32,1.21,4.52,2l.51.35a5.72,5.72,0,0,1,1.84,1.7,6.18,6.18,0,0,1,.69,1.9,4.64,4.64,0,0,0,.44,1.29,4.7,4.7,0,0,0,1.79,1.42,14.22,14.22,0,0,1,1.25.78,7.45,7.45,0,0,1,2.75,4.93,21.58,21.58,0,0,0,1.57,4.67l.35.83c.58,1.4,1.19,2.85,2.32,3.49a2,2,0,0,0,1.84-.09.76.76,0,0,0,.42-.68,3,3,0,0,0-.47-1.08l-.14-.24a6.61,6.61,0,0,1-.7-5,3.59,3.59,0,0,1,1.94-2.27c1.55-.73,3.15-.2,4.56.26.34.11.67.22,1,.31a3.05,3.05,0,0,0,2.4-.29.61.61,0,0,0,.3-.53,2.69,2.69,0,0,0-.29-.91l-.15-.34c-.38-.93-1-2.47-.51-3.7a2.24,2.24,0,0,1,1.31-1.23,4.38,4.38,0,0,1,.43-.13l.09,0a.34.34,0,0,0,0-.09c0-.2-.08-.41-.13-.62a7.44,7.44,0,0,1-.26-1.89c.09-2.59,3.58-4.81,5.69-4.81h.06a3.4,3.4,0,0,1,2.71,1,3.57,3.57,0,0,1,.63,2.15,2.55,2.55,0,0,0,.14.86,1.43,1.43,0,0,0,.41,0,16,16,0,0,0,2.83-.43,2,2,0,0,0,.55-.22c0-.17-.14-.3-.55-.63-.72-.58-2-1.67-.48-4,1.24-1.86,3.45-2.32,5.22-2.69l.19,0a2.45,2.45,0,0,1,1.51,0,1.82,1.82,0,0,1,1.07,1.19,2.72,2.72,0,0,1-.41,2.25,5.53,5.53,0,0,1-.69.8,3.21,3.21,0,0,0-.61.78,1.59,1.59,0,0,0,.38,1.49,7,7,0,0,0,1.9,1.37l1.17.68c2,1.17,4.45,2.62,6.5,2.64.42,0,.84-.05,1.3-.1s.89-.11,1.36-.12a14.16,14.16,0,0,1,4.64,1,9.79,9.79,0,0,0,4.52.81l.08,0a2.22,2.22,0,0,0-.15-.43,15.53,15.53,0,0,0-2.37-3.68c-.37-.41-.75-.8-1.13-1.19a20.16,20.16,0,0,1-2-2.23,6.36,6.36,0,0,1-1.32-5,9.58,9.58,0,0,1,2.43-4c1.57-1.8,2.49-3,1.8-4.63a7.8,7.8,0,0,0-1.37-2,7,7,0,0,1-2-3.5,4.26,4.26,0,0,1,.89-3.26,7.94,7.94,0,0,1,5.22-2.8,25.14,25.14,0,0,1,2.72-.17,11.51,11.51,0,0,0,4.86-.83c.4-.2.45-.32.45-.33.12-.46-.14-.72-2-1.32-1.13-.37-2.3-.76-2.82-1.69a4.61,4.61,0,0,1-.5-1.78,2.54,2.54,0,0,0-.34-1.16c-.19-.22-.37-.24-1.56.42a3.71,3.71,0,0,1-3.05.67,3.11,3.11,0,0,1-1.71-2.09,2.73,2.73,0,0,1,.93-3.16c.34-.33.54-.53.57-.78a1.57,1.57,0,0,0-1.07-.54,1,1,0,0,1-.82-.88,18.7,18.7,0,0,0-1.21-4.4l-4.38-12.07c-.08-.23-.22-.55-.39-.91-.84-1.86-1.44-3.36-.91-4.43a3.09,3.09,0,0,1,1.4-1.19,2.61,2.61,0,0,0,.94-.67c.63-1.24,0-3.08-.83-4.35-1.22-1.81-3.8-1.83-6.11-1.7l-.18,0,.4.2c.61.3,1.44.71,1.58,1.61a2.37,2.37,0,0,1-.85,1.93A12.22,12.22,0,0,1,235,112a18.21,18.21,0,0,0-1.5,1,1.64,1.64,0,0,1-1.53.41,1.48,1.48,0,0,1-.73-.52,2.71,2.71,0,0,0-1,2.27l0,.19a4,4,0,0,1,0,.79,3.72,3.72,0,0,1-.49,1.4,2.74,2.74,0,0,1-1.38,1.42,2.16,2.16,0,0,1-2.42-.77,3.59,3.59,0,0,1-.66-1.78,8.15,8.15,0,0,0,.07,2.23c.18,1.63.41,3.66-1.13,4.89a4.82,4.82,0,0,1-1.23.7c-.52.23-.74.33-1,.82a2,2,0,0,0,.18,2,1,1,0,0,1-.44,1.54c-1.72.65-3.64,0-5.39-1.8a14.3,14.3,0,0,1-1.47-2.41c-.34-.59-.83-1.47-1-1.75a1,1,0,0,1,.75-1.75h0a13.64,13.64,0,0,0,5.87-.77c.39-.14.86-.42.87-1a1.71,1.71,0,0,0-1.15-1.48,7.8,7.8,0,0,0-2.45-.43l-.73-.06a6,6,0,0,1-3.85-1.56,7.09,7.09,0,0,1-.68-.9,5.44,5.44,0,0,0-.39-.55,2.54,2.54,0,0,0-3.15-.47c-.41.27-1.63,1.06-2.55.12a1.41,1.41,0,0,1-.41-.93,8.87,8.87,0,0,1-3.86,1.88l-.73.22c-3.19,1-4.87,3.71-6.64,6.56-.36.59-.73,1.18-1.11,1.75a19.36,19.36,0,0,1-2.91,3.38,8.83,8.83,0,0,0-.74.92,6.4,6.4,0,0,1-1.62,1.75,3.05,3.05,0,0,1-1.88.33h-.42c-2.57.05-3,5.2-3.25,7.67l0,.52c-.07.65.18.81.27.87a2.34,2.34,0,0,0,2.15-.28l.34-.21a3,3,0,0,1,2.36-.67c1.8.42,1.76,2.41,1.74,3.72a4.89,4.89,0,0,0,.12,1.64l.08.13a2.46,2.46,0,0,1,.46,1.54,2.52,2.52,0,0,1-.82,1.46l-.1.1a3.39,3.39,0,0,0-.67,1,3.28,3.28,0,0,0-.29.92,11.61,11.61,0,0,0,4.48-2.22,3.11,3.11,0,0,0,1.27-2,3.29,3.29,0,0,0-.09-.72,4.72,4.72,0,0,1-.08-1.48,5.46,5.46,0,0,1,1.48-2.91,2.29,2.29,0,0,0,.73-2.49c-1-4.38.9-5.75,4.14-7.64.13-.07.25-.61.3-.84a7.6,7.6,0,0,1,1.06-2.66,3.76,3.76,0,0,1,2.83-1.69,2.79,2.79,0,0,1,2.86,2.21c.27,1.74-1.17,3-2.32,4a7.84,7.84,0,0,0-1.12,1.07,8.06,8.06,0,0,0-1.56,4.39,3.76,3.76,0,0,0,1.2,2.74,2,2,0,0,0,1.57.55,4.88,4.88,0,0,0,1.43-.54,7.43,7.43,0,0,1,1.91-.71,3,3,0,0,1,3,1.45,1.89,1.89,0,0,1-.17,2.23,1,1,0,0,1-.88.34,9,9,0,0,0-5.33,1.08,3.78,3.78,0,0,1,.86,2,3.26,3.26,0,0,1-1.65,3.46,1,1,0,0,1-1,0,1,1,0,0,1-.48-.84,1.3,1.3,0,0,0-.66-1,1.66,1.66,0,0,0-.54-.22,7.55,7.55,0,0,1-4.53,7,14.36,14.36,0,0,1-4.37.85c-1.88.17-3.66.32-4.82,1.44a1,1,0,0,1-1.4,0L184,152.14a1,1,0,0,1,.13-1.53c.32-.22.09-1-.27-2a6.24,6.24,0,0,1-.5-2.94,1.76,1.76,0,0,0-.94.9,6.73,6.73,0,0,0-.3,2.26,15.58,15.58,0,0,1-.11,1.65c-.28,1.94-1.74,3.81-3.68,3.62a4.47,4.47,0,0,1-1.08-.28,1.8,1.8,0,0,0-.68-.17c-.28,0-.55.45-.92,1.09a3.88,3.88,0,0,1-2.12,2.09,3.61,3.61,0,0,1-1.83,0,3.16,3.16,0,0,0-.75-.09c-.61,0-1.2.6-1.83,1.22a4.77,4.77,0,0,1-3.2,1.77,4.68,4.68,0,0,1-2.22-.66,5.58,5.58,0,0,0-1-.42,1,1,0,0,0-.69.19,1,1,0,0,1-1.78.9,3.28,3.28,0,0,0-2-.62,5.39,5.39,0,0,0,.66.48,7.3,7.3,0,0,1,.81.58,5.75,5.75,0,0,1,1.65,2.79,10.75,10.75,0,0,1-2.22,9.93,2.13,2.13,0,0,1-1.07.72,2.15,2.15,0,0,1-1.53-.29l-.29-.14a29,29,0,0,1-5.18-3.17l-.09-.07a8.72,8.72,0,0,0-3.82-2.22c-.37-.08-.49,0-.51,0-.43.21-.52.84-.62,1.78,0,.3-.06.59-.11.85a8.35,8.35,0,0,1-2.1,4.59c-.26.26-.56.5-.85.74-.63.52-1.17,1-1.24,1.48a2.7,2.7,0,0,0,.06.77,3.74,3.74,0,0,1-.05,1.78,3.45,3.45,0,0,1-.35.72,2.34,2.34,0,0,0-.18.34c-.09.32.35.84.94,1.13.27.13.55.23.84.34a6.12,6.12,0,0,1,2.06,1.11,6.5,6.5,0,0,1,1.26,1.79,3.29,3.29,0,0,0,1.06,1.38,3.24,3.24,0,0,0,2.18-.19,6.71,6.71,0,0,1,2.68-.39,7.17,7.17,0,0,1,.9.18,4.15,4.15,0,0,0,.61.14,2.76,2.76,0,0,0,2.19-1,5.44,5.44,0,0,0,1-2,6.11,6.11,0,0,1,1.48-2.7h0A5.86,5.86,0,0,1,162.2,179c1.23-.14,2-.22,2.55-1.42a7.69,7.69,0,0,0,.31-.76,1.63,1.63,0,0,1,.83-1.11c.58-.27,1.08-.07,2.19.37l.22.08c1.9.74,2.65,1,4.26.44.31-.12.63-.27.95-.42,1.2-.56,2.7-1.25,4.32-.62,1.28.49,2.21,1.7,2.77,3.57.08.27.15.53.23.79a6.62,6.62,0,0,0,1,2.39,6.75,6.75,0,0,0,2.16,1.56,14.67,14.67,0,0,1,1.4.83,8.81,8.81,0,0,1,3.57,5.12,6,6,0,0,1,.13.71,2.27,2.27,0,0,1,1.07-1.45,1.74,1.74,0,0,1,1-.17s0-.07-.06-.11a7.73,7.73,0,0,0-2.2-2,10.79,10.79,0,0,1-2.52-2.27c-.23-.32-.42-.66-.62-1a7.91,7.91,0,0,0-.48-.79,9,9,0,0,0-1.33-1.38c-.22-.2-.48-.42-.76-.64-1.53-1.25-3.84-3.15-2.82-5.74a2.58,2.58,0,0,1,1.65-1.64A3,3,0,0,1,182.78,173.24Zm1.7,21.58a5.33,5.33,0,0,1,1,1l.06.06a4.2,4.2,0,0,1,.22-1.4A10,10,0,0,1,184.48,194.82ZM213,180.61Zm-55.21-9Zm51.27-32.51h0Zm7.39-16.17q.13.23.27.48c.4.71,1,1.79,1.18,2a4.59,4.59,0,0,0,2.12,1.37,4.06,4.06,0,0,1,.24-2.47,3.31,3.31,0,0,1,2-1.88A3.46,3.46,0,0,0,223,122c.58-.46.57-1.39.43-2.73a3.07,3.07,0,0,1-2.18,2.72A15.87,15.87,0,0,1,216.45,122.91Zm-1.93-.06h0Zm0,0Z" fill="#093f68"/><path d="M158.88,153.47a.92.92,0,0,1-.27-.35c-.22-.61.7-1,1.34-.88s1.54,0,1.61-.61-.53-.87-.62-1.37.38-.94.83-1.18a3.06,3.06,0,0,0,1.27-.85c.34-.53.37-1.43,1-1.48.21,0,.42.09.63,0s.42-.35.53-.6c.4-.95.79-2.08.23-2.95-.23-.36-.6-.62-.76-1-.35-.81.31-1.66.92-2.29-.45.36-1.18-.1-1.29-.67a2.63,2.63,0,0,1,.44-1.65,8.26,8.26,0,0,1,1.82-2.54,2.72,2.72,0,0,1,2.93-.45l-1.31,1.79a.94.94,0,0,0-.2.4c-.07.64,1,.65,1.42,1.13s-.1,1.41-.7,1.86-1.34,1.08-1.08,1.79c.13.35.47.56.69.86.9,1.24-.63,3.21.28,4.44.41.54,1.21.78,1.39,1.44s-.29,1.14-.65,1.64-.59,1.26-.13,1.66c1.26,1.08,2,.71.39,2.4-.92,1-1.42,1.45-2.84,1s-2.31-1-4-1C161.47,154.09,160,154.39,158.88,153.47Z" fill="#70cc40"/><path d="M167.7,156.2a4.08,4.08,0,0,1-1.25-.21c-.43-.13-.8-.27-1.16-.41a5.83,5.83,0,0,0-2.48-.52l-.68,0a5.19,5.19,0,0,1-3.88-.85h0a1.79,1.79,0,0,1-.59-.78,1.47,1.47,0,0,1,.24-1.43,2.48,2.48,0,0,1,2.16-.78h.25a2,2,0,0,1-.35-.83,2.19,2.19,0,0,1,1.35-2.24l.32-.15a1.93,1.93,0,0,0,.57-.36,2.28,2.28,0,0,0,.17-.4c.19-.5.53-1.44,1.58-1.53a1.87,1.87,0,0,1,.34,0c.31-.74.58-1.54.3-2a3.07,3.07,0,0,0-.24-.29,3.37,3.37,0,0,1-.61-.88,2.41,2.41,0,0,1,.17-2.11,2,2,0,0,1-.59-1,3.54,3.54,0,0,1,.54-2.32,8.87,8.87,0,0,1,2.07-2.84,3.69,3.69,0,0,1,4-.55,1,1,0,0,1,.32,1.46l-1.06,1.45a2.46,2.46,0,0,1,.91.62,1.72,1.72,0,0,1,.43,1.34,3.14,3.14,0,0,1-1.29,2c-.61.46-.71.67-.73.71s.11.06.18.12a3.16,3.16,0,0,1,.38.44,3.67,3.67,0,0,1,.31,3c-.12.6-.23,1.17,0,1.43a2.34,2.34,0,0,0,.42.35,2.63,2.63,0,0,1,1.13,1.43,2.76,2.76,0,0,1-.7,2.35l-.09.12a1.28,1.28,0,0,0-.19.41,5.92,5.92,0,0,0,.56.41,1.72,1.72,0,0,1,1,1.24c.09.71-.38,1.27-1.17,2.11A3.51,3.51,0,0,1,167.7,156.2ZM163,153.06a7.82,7.82,0,0,1,3,.65c.33.12.67.25,1,.37.85.26,1,.19,1.82-.74.17-.18.3-.32.39-.43a6.9,6.9,0,0,1-.7-.52,2.19,2.19,0,0,1,0-3l.09-.13a2.44,2.44,0,0,0,.4-.69,3.34,3.34,0,0,0-.39-.32,3.67,3.67,0,0,1-.83-.77,3.61,3.61,0,0,1-.33-3c.12-.6.23-1.17,0-1.44a1.71,1.71,0,0,0-.18-.2,2.44,2.44,0,0,1-.64-.91c-.55-1.48.93-2.57,1.42-2.93a1.74,1.74,0,0,0,.43-.46l-.23-.1c-.43-.18-1.45-.61-1.31-1.74a2,2,0,0,1,.38-.88l.14-.19a3.62,3.62,0,0,0-.32.22,7.18,7.18,0,0,0-1.56,2.23,2.58,2.58,0,0,0-.35.9,1,1,0,0,1,1,1.64c-.82.85-.75,1.16-.72,1.21a1.78,1.78,0,0,0,.25.33,4.51,4.51,0,0,1,.44.54c.89,1.4.18,3.07-.16,3.87a1.85,1.85,0,0,1-1.23,1.2,1.6,1.6,0,0,1-.57,0,1.34,1.34,0,0,0-.07.18,4.11,4.11,0,0,1-.37.81,3.22,3.22,0,0,1-1.39,1.06l-.25.13a1,1,0,0,0-.27.18l.1.15a2,2,0,0,1,.48,1.44,1.63,1.63,0,0,1-1.21,1.39l.68,0,.74,0Zm-3.47-.39-.6.8.63-.76A.07.07,0,0,0,159.48,152.67Z" fill="#093f68"/><path d="M159.88,147a2.25,2.25,0,0,1-.64.82,2.29,2.29,0,0,1-1.07.27,2,2,0,0,1-.84-.06c-.19-.07-.35-.21-.53-.29-.67-.32-1.44,0-2.14.25s-1.68.18-1.94-.51.42-1.36,1.08-1.68,1.45-.62,1.68-1.31-.25-1.74.34-2.26c.2-.17.49-.24.63-.46s.12-.45.26-.63a.62.62,0,0,1,.9,0,1.81,1.81,0,0,1,.37.94c.34.17.76-.11.94-.45a7.12,7.12,0,0,1,.5-1,1.31,1.31,0,0,1,1.73-.19C163,141.75,160.6,145.7,159.88,147Z" fill="#70cc40"/><path d="M153.91,149.15a2.13,2.13,0,0,1-2.13-1.27c-.4-1.07.24-2.28,1.57-2.94l.27-.12c.37-.18.84-.4.91-.61a2.28,2.28,0,0,0,0-.6,2.34,2.34,0,0,1,.62-2.09,2.66,2.66,0,0,1,.44-.3h0a1.5,1.5,0,0,1,.29-.65A1.46,1.46,0,0,1,157,140a1.73,1.73,0,0,1,1.32.53h0a2.4,2.4,0,0,1,.3-.49,2.31,2.31,0,0,1,3.09-.38c2.41,1.68.25,5.61-.79,7.51l-.18.33h0a3.1,3.1,0,0,1-1,1.18,3.05,3.05,0,0,1-1.53.43A2.79,2.79,0,0,1,157,149a2.42,2.42,0,0,1-.45-.24l-.14-.08a2.08,2.08,0,0,0-1.07.2L155,149A3.64,3.64,0,0,1,153.91,149.15Zm-.19-2a1.54,1.54,0,0,0,.64-.06l.31-.1a3.29,3.29,0,0,1,2.56-.1l.33.18.13.08a1.85,1.85,0,0,0,.4,0,1.55,1.55,0,0,0,.59-.11,1.69,1.69,0,0,0,.32-.46l.19-.35c2-3.7,1.74-4.66,1.39-4.9a.37.37,0,0,0-.38,0,2,2,0,0,0-.16.35,3.39,3.39,0,0,1-.24.55,1.74,1.74,0,0,1-2.28.85,1,1,0,0,1-.44-.44,2.27,2.27,0,0,1-.5.36l-.11.06a1.51,1.51,0,0,1,.06.45,3.42,3.42,0,0,1-.1,1.36,3.24,3.24,0,0,1-2,1.78l-.24.12A1.46,1.46,0,0,0,153.72,147.14Zm6.16-.1h0Z" fill="#093f68"/><path d="M166.57,109.8a.64.64,0,0,0-.67.07,1.94,1.94,0,0,0-.23.33.68.68,0,0,1-.47.24c-.73,0-1.15-1-1.87-1-.44,0-.85.51-1.25.33a.7.7,0,0,1-.29-.3,2.92,2.92,0,0,1-.43-1.87,3.55,3.55,0,0,0-3.6,1.35c-2.29,3.18,2,6.69,5,7.14a4.58,4.58,0,0,0,4.16-1.83C167.49,113.33,168,110.36,166.57,109.8Z" fill="#70cc40"/><path d="M163.24,117.15a4.91,4.91,0,0,1-.67-.05,8.58,8.58,0,0,1-6.1-4.53,4.12,4.12,0,0,1,.48-4.18,4.56,4.56,0,0,1,4.63-1.74,1,1,0,0,1,.77,1.08,2.1,2.1,0,0,0,.14,1,2.14,2.14,0,0,1,.75-.23,2.22,2.22,0,0,1,1.7.75.63.63,0,0,0,.12.1l.15-.17a1.65,1.65,0,0,1,1.74-.27,2.34,2.34,0,0,1,1.34,1.56,6.13,6.13,0,0,1-.57,4.4A5.61,5.61,0,0,1,163.24,117.15Zm-2.85-8.6a2.55,2.55,0,0,0-1.82,1,2.12,2.12,0,0,0-.25,2.23,6.63,6.63,0,0,0,4.56,3.33,3.59,3.59,0,0,0,3.16-1.38,4.28,4.28,0,0,0,.34-2.71.62.62,0,0,1,0-.1,1.69,1.69,0,0,1-1.09.51,2.23,2.23,0,0,1-1.67-.75,2.2,2.2,0,0,0-.23-.2l-.1.05a1.75,1.75,0,0,1-1.6.15,1.69,1.69,0,0,1-.72-.67A3.92,3.92,0,0,1,160.39,108.55Zm5.8,2.18Z" fill="#093f68"/><path d="M227,104.76a2.16,2.16,0,0,1-1.28-2.15c0-.9.3-1.78.3-2.67,0-.62-.14-1.24-.13-1.86a12.07,12.07,0,0,1,.34-2.14,26.4,26.4,0,0,1,.59-3.07,3.75,3.75,0,0,1,1.9-2.38.41.41,0,0,1,.34,0c.22.08.21.4.15.63a39.81,39.81,0,0,0-.84,4.86,8,8,0,0,0,.72,5.26c.79,1.25,4.44,2.85,2.79,4.48-.75.74-1.09.37-1.8,0s-.74-.75-1.5-.94C228,104.64,227.47,104.9,227,104.76Z" fill="#70cc40"/><path d="M231,107.11a2.61,2.61,0,0,1-1.19-.37l-.26-.14a3.18,3.18,0,0,1-.83-.58,1,1,0,0,0-.48-.29,2.1,2.1,0,0,0-.39,0,3,3,0,0,1-1.21,0,3.1,3.1,0,0,1-2-3.12,9.86,9.86,0,0,1,.16-1.49,5.16,5.16,0,0,0,.08-2,9.43,9.43,0,0,1-.07-1.06,8.24,8.24,0,0,1,.26-1.83l.1-.49c.06-.33.11-.66.16-1a13.81,13.81,0,0,1,.46-2.19,4.67,4.67,0,0,1,2.45-3,1.39,1.39,0,0,1,1.11,0,1.43,1.43,0,0,1,.76,1.79,40.17,40.17,0,0,0-.83,4.74c-.18,1.56-.25,3.34.57,4.62a6.89,6.89,0,0,0,1.11,1c1,.83,2.2,1.77,2.26,3a2.14,2.14,0,0,1-.71,1.69A2.16,2.16,0,0,1,231,107.11Zm-2.82-3.38a2.15,2.15,0,0,1,.55.06,2.9,2.9,0,0,1,1.32.74,1.45,1.45,0,0,0,.37.27l.32.17.22.11a1.21,1.21,0,0,0,.13-.12,1,1,0,0,0,.13-.16c0-.33-1.06-1.19-1.52-1.56a6.9,6.9,0,0,1-1.54-1.5c-1.16-1.8-1.09-4-.88-5.92.1-.83.22-1.67.36-2.5a12.62,12.62,0,0,0-.34,1.73q-.08.54-.18,1.08c0,.18-.07.35-.11.53a5.19,5.19,0,0,0-.15,2.25,7.31,7.31,0,0,1-.09,2.53,7.15,7.15,0,0,0-.14,1.17c0,.57.25,1.1.55,1.18h0a1.32,1.32,0,0,0,.43,0A4.78,4.78,0,0,1,228.22,103.73Z" fill="#093f68"/><path d="M228.09,112.35c.6-.75,0-1.95-.89-2.32a1.44,1.44,0,0,0-.42-.11,1.14,1.14,0,0,0-1.13,1,1.47,1.47,0,0,0,.84,1.36,2.06,2.06,0,0,0,1.65,0" fill="#70cc40"/><path d="M227.28,113.48a2.79,2.79,0,0,1-1.22-.27,2.44,2.44,0,0,1-1.4-2.34,2.11,2.11,0,0,1,2.2-2,2.27,2.27,0,0,1,.72.19,2.91,2.91,0,0,1,1.67,1.93,2.21,2.21,0,0,1-.2,1.66,1,1,0,0,1-.27.37,1,1,0,0,1-.58.27A3.32,3.32,0,0,1,227.28,113.48Zm-.58-2.56s0,.08,0,.11a.48.48,0,0,0,.27.38.83.83,0,0,0,.38.07,1,1,0,0,0-.48-.52A.27.27,0,0,0,226.7,110.92Z" fill="#093f68"/><path d="M203.08,90.29c-.34.58.37,1.25.38,1.93a2,2,0,0,1-.49,1.12l-1.18,1.58a5.3,5.3,0,0,1-1.48,1.54c-.48-.23-.5-.9-.38-1.41a2,2,0,0,0,0-1.53,1.64,1.64,0,0,0,.79-1.35.86.86,0,0,1-1.1-.47,2.5,2.5,0,0,1-.09-1.33c.07-.64.29-1.44.93-1.51.49-.06.89.38,1.36.52a2.33,2.33,0,0,0,1.5-.23c.47-.2.94-.4,1.4-.62a1.37,1.37,0,0,1,1.65,2.15C205.34,91.87,204.43,90,203.08,90.29Z" fill="#70cc40"/><path d="M200.31,97.46a1.08,1.08,0,0,1-.43-.1,2.1,2.1,0,0,1-.92-2.54l0-.17a2.07,2.07,0,0,0,.1-.63.94.94,0,0,1-.11-.75.84.84,0,0,1,.28-.47,2.19,2.19,0,0,1-.53-.68,3.5,3.5,0,0,1-.18-1.87c.23-2,1.34-2.33,1.81-2.38a2.29,2.29,0,0,1,1.46.4l.31.16a1.89,1.89,0,0,0,.83-.21c.45-.19.91-.39,1.36-.6a2.4,2.4,0,0,1,3,.73,2.33,2.33,0,0,1-.16,3,2.05,2.05,0,0,1-2.75.36,2.53,2.53,0,0,1,.06.49,2.85,2.85,0,0,1-.69,1.73l-1.17,1.59a6.45,6.45,0,0,1-1.78,1.8A1,1,0,0,1,200.31,97.46Zm.79-3.6a1.61,1.61,0,0,1,0,.31l1.06-1.43a1.9,1.9,0,0,0,.3-.5,2,2,0,0,0-.16-.43,2.61,2.61,0,0,1-.3-1.38,2.2,2.2,0,0,1-.43-.09,3.68,3.68,0,0,1-.74-.34l-.15-.09a1.91,1.91,0,0,0-.13.57,2.94,2.94,0,0,0,0,.72,1,1,0,0,1,.74.12,1,1,0,0,1,.48.88A2.61,2.61,0,0,1,201.1,93.86Zm3.65-4.23.38.2a2.62,2.62,0,0,0,.47.24l.05,0a.36.36,0,0,0,.06-.48.41.41,0,0,0-.54-.1Z" fill="#093f68"/><path d="M206.05,96.57,205.52,95c-.15-.45-.36-1-.81-1.08a1,1,0,0,0-1.13.81,2.32,2.32,0,0,0,.3,1.51c.22.43.52.89,1,1s1-.45.74-.84" fill="#70cc40"/><path d="M205,98.25a1.63,1.63,0,0,1-.31,0A2.55,2.55,0,0,1,203,96.69a3.23,3.23,0,0,1-.39-2.15,2.18,2.18,0,0,1,1-1.37A1.76,1.76,0,0,1,205,93a2.45,2.45,0,0,1,1.48,1.71l.53,1.56a1,1,0,0,1-.6,1.26A1.76,1.76,0,0,1,205,98.25ZM204.79,97h0Z" fill="#093f68"/><path d="M216.73,88.43l.15-2.48a.79.79,0,0,0-.11-.57.65.65,0,0,0-.42-.19,2.06,2.06,0,0,0-2.15,1.24.61.61,0,0,0,.67.26c.14,0,.27-.13.41-.09s.21.26.24.43l.27,2A2.08,2.08,0,0,0,217,88.7" fill="#70cc40"/><path d="M215.93,90h-.22a1,1,0,0,1-.92-.86l-.19-1.41a1.6,1.6,0,0,1-1.26-.78,1,1,0,0,1-.07-.87,3,3,0,0,1,3.23-1.86,1.62,1.62,0,0,1,1,.54,1.82,1.82,0,0,1,.34,1.27l-.13,2.06a.94.94,0,0,1,.09.12,1,1,0,0,1-.35,1.37A3.08,3.08,0,0,1,215.93,90Zm-.05-4.22Z" fill="#093f68"/><path d="M208.85,202.48c.07-.53-.62-.8-1.16-.88l-3.36-.48a1.26,1.26,0,0,0-.61,0,.85.85,0,0,0-.27,1.23,2.23,2.23,0,0,0,1.18.77,4.61,4.61,0,0,0,2.52.38,1.87,1.87,0,0,0,1.58-1.76" fill="#70cc40"/><path d="M206.58,204.57a6.56,6.56,0,0,1-2.3-.5,3.12,3.12,0,0,1-1.67-1.17,2,2,0,0,1-.22-1.66,1.66,1.66,0,0,1,1-1,2.16,2.16,0,0,1,1.13-.07l3.35.48a2.82,2.82,0,0,1,.68.17l.17,0a1,1,0,0,1,1,.95v.11a1.45,1.45,0,0,1,.11.8,1,1,0,0,1-.73.84,3.18,3.18,0,0,1-1.76,1A3.42,3.42,0,0,1,206.58,204.57Zm-1.5-2.34a3.51,3.51,0,0,0,1.87.3l.08,0Z" fill="#093f68"/><path d="M176.64,180a1,1,0,0,0-1.46.1,2.46,2.46,0,0,0-.53,1.52,2.13,2.13,0,0,0,.16,1.12.87.87,0,0,0,.95.48c.46-.14.61-.71.65-1.19a8.69,8.69,0,0,0,0-1.53c0-.08,0-.17-.09-.19s-.11.13,0,.12" fill="#70cc40"/><path d="M175.58,184.25a1.9,1.9,0,0,1-1.65-1,2.91,2.91,0,0,1-.27-1.66,3.35,3.35,0,0,1,.8-2.14,2.22,2.22,0,0,1,1.59-.66,1.76,1.76,0,0,1,1.33.59,1,1,0,0,1,.05,1.27,10.73,10.73,0,0,1,0,1.5c-.13,1.49-.91,1.93-1.37,2.07A1.88,1.88,0,0,1,175.58,184.25Z" fill="#093f68"/><path d="M173.4,185a2.91,2.91,0,0,0-.37.91l-.73,2.6a.39.39,0,0,0,0,.3c.05.1.18.13.29.16a1.73,1.73,0,0,0,2.61-1c.28-.71,1.16-2.64.56-3.37S173.88,184.31,173.4,185Z" fill="#70cc40"/><path d="M173.66,190.11a5.75,5.75,0,0,1-1.33-.19,1.37,1.37,0,0,1-.93-.68,1.35,1.35,0,0,1-.07-1l.73-2.61a3.62,3.62,0,0,1,.53-1.22h0a3.13,3.13,0,0,1,2.3-1.19,2,2,0,0,1,1.64.71c.85,1,.27,2.7-.33,4.17l-.08.2a3.18,3.18,0,0,1-.78,1.24A2.41,2.41,0,0,1,173.66,190.11Zm-.21-2c.34,0,.49,0,.55-.06a1.78,1.78,0,0,0,.26-.5l.09-.22a5.68,5.68,0,0,0,.61-2.12h0a1.13,1.13,0,0,0-.75.36,2.17,2.17,0,0,0-.22.6Z" fill="#093f68"/><path d="M163.62,184.66a1.29,1.29,0,0,0-1.52-.56,1.24,1.24,0,0,0-.75,1.43,1.19,1.19,0,0,0,1.35.86,1,1,0,0,0,.7-.48,1,1,0,0,0-.28-1.22" fill="#70cc40"/><path d="M162.49,187.41a2.2,2.2,0,0,1-2.11-1.62,2.26,2.26,0,0,1,1.36-2.63,2.3,2.3,0,0,1,2.75,1,1,1,0,0,1,0,1,1.92,1.92,0,0,1-.22,1.24,2,2,0,0,1-1.37,1A2.83,2.83,0,0,1,162.49,187.41Zm-.18-2.17v0c0,.07.15.15.2.13A1.12,1.12,0,0,1,162.31,185.24Z" fill="#093f68"/><path d="M219.72,206.26h68.7a0,0,0,0,1,0,0v22.12a2,2,0,0,1-2,2H221.67a2,2,0,0,1-2-2V206.26A0,0,0,0,1,219.72,206.26Z" fill="#fff"/><path d="M286.46,231.34H221.67a3,3,0,0,1-2.95-3V206.26a1,1,0,0,1,1-1h68.7a1,1,0,0,1,1,1v22.13A3,3,0,0,1,286.46,231.34Zm-65.74-24.08v21.13a1,1,0,0,0,.95,1h64.79a1,1,0,0,0,1-1V207.26Z" fill="#093f68"/><path d="M221.67,196h64.79a2,2,0,0,1,2,2v8.29a0,0,0,0,1,0,0h-68.7a0,0,0,0,1,0,0V198A2,2,0,0,1,221.67,196Z" fill="#fff"/><path d="M288.42,207.26h-68.7a1,1,0,0,1-1-1V198a3,3,0,0,1,2.95-2.95h64.79a3,3,0,0,1,3,2.95v8.29A1,1,0,0,1,288.42,207.26Zm-67.7-2h66.7V198a1,1,0,0,0-1-.95H221.67a1,1,0,0,0-.95.95Z" fill="#093f68"/><path d="M239.32,213.65H235V216h4a.94.94,0,0,1,.65.2.67.67,0,0,1,.21.52.7.7,0,0,1-.21.52.94.94,0,0,1-.65.2h-4v2.68h4.45a1,1,0,0,1,.67.21.72.72,0,0,1,.23.55.69.69,0,0,1-.23.54,1,1,0,0,1-.67.21h-5.18a1.24,1.24,0,0,1-.9-.27,1.26,1.26,0,0,1-.27-.9v-7.07a1.61,1.61,0,0,1,.12-.67.78.78,0,0,1,.38-.38,1.61,1.61,0,0,1,.67-.12h5a1,1,0,0,1,.68.21.75.75,0,0,1,0,1.06A1,1,0,0,1,239.32,213.65Z" fill="#093f68"/><path d="M246.31,220.77v-.23a3.82,3.82,0,0,1-.66.67,2.47,2.47,0,0,1-.75.4,3.05,3.05,0,0,1-.94.13,2.52,2.52,0,0,1-1.14-.26,1.9,1.9,0,0,1-.78-.73,3.16,3.16,0,0,1-.33-1.6v-3.47a1.11,1.11,0,0,1,.24-.79.83.83,0,0,1,.63-.26.85.85,0,0,1,.64.26,1.15,1.15,0,0,1,.24.79v2.8a4.12,4.12,0,0,0,.11,1,1.19,1.19,0,0,0,.37.65,1,1,0,0,0,.72.24,1.44,1.44,0,0,0,.83-.27,1.51,1.51,0,0,0,.57-.68,5.44,5.44,0,0,0,.15-1.63v-2.13a1.1,1.1,0,0,1,.25-.79.89.89,0,0,1,1.26,0,1.11,1.11,0,0,1,.24.79v5.07a1.07,1.07,0,0,1-.23.75.75.75,0,0,1-.59.25.74.74,0,0,1-.59-.26A1,1,0,0,1,246.31,220.77Z" fill="#093f68"/><path d="M251.44,219.22v1.47a1.13,1.13,0,0,1-.25.8.81.81,0,0,1-.63.26.82.82,0,0,1-.63-.27,1.15,1.15,0,0,1-.24-.79v-4.88c0-.79.29-1.18.85-1.18a.71.71,0,0,1,.63.27,1.6,1.6,0,0,1,.22.82,3,3,0,0,1,.64-.82,1.34,1.34,0,0,1,.88-.27,2.33,2.33,0,0,1,1.08.27.83.83,0,0,1,.51.74.69.69,0,0,1-.22.53.64.64,0,0,1-.47.2,1.92,1.92,0,0,1-.47-.11,2.15,2.15,0,0,0-.65-.12.92.92,0,0,0-.63.2,1.27,1.27,0,0,0-.38.6,4.55,4.55,0,0,0-.19.95C251.46,218.25,251.44,218.7,251.44,219.22Z" fill="#093f68"/><path d="M261.52,218.19a4.28,4.28,0,0,1-.24,1.45,3.2,3.2,0,0,1-.71,1.13,3.16,3.16,0,0,1-1.1.73,3.9,3.9,0,0,1-1.45.25,3.8,3.8,0,0,1-1.43-.25,3.19,3.19,0,0,1-1.1-.74,3.15,3.15,0,0,1-.71-1.13,4.1,4.1,0,0,1-.24-1.44,4,4,0,0,1,.25-1.46,3.05,3.05,0,0,1,1.8-1.85,3.87,3.87,0,0,1,1.43-.25,3.78,3.78,0,0,1,1.45.26,3.11,3.11,0,0,1,1.11.73,3.18,3.18,0,0,1,.7,1.13A4.14,4.14,0,0,1,261.52,218.19Zm-1.76,0a2.67,2.67,0,0,0-.47-1.67,1.67,1.67,0,0,0-2.17-.33,1.77,1.77,0,0,0-.61.79,3.19,3.19,0,0,0-.21,1.21,3.14,3.14,0,0,0,.21,1.2,1.74,1.74,0,0,0,.6.79,1.55,1.55,0,0,0,.91.27,1.53,1.53,0,0,0,1.27-.6A2.64,2.64,0,0,0,259.76,218.19Z" fill="#093f68"/><path d="M264.52,215.61v.21a3.58,3.58,0,0,1,1-.89,2.55,2.55,0,0,1,1.21-.29,2.77,2.77,0,0,1,1.49.42,2.94,2.94,0,0,1,1.08,1.22,4.29,4.29,0,0,1,.39,1.9,4.64,4.64,0,0,1-.23,1.48,3.36,3.36,0,0,1-.62,1.14,2.82,2.82,0,0,1-.94.71,2.88,2.88,0,0,1-1.17.24,2.45,2.45,0,0,1-1.26-.3,3.57,3.57,0,0,1-1-.88v2.63c0,.77-.28,1.15-.84,1.15a.68.68,0,0,1-.66-.3,1.9,1.9,0,0,1-.16-.86v-7.57a1.06,1.06,0,0,1,.22-.74.74.74,0,0,1,.6-.25.77.77,0,0,1,.6.25A1,1,0,0,1,264.52,215.61Zm3.43,2.55a3.05,3.05,0,0,0-.21-1.19,1.79,1.79,0,0,0-.59-.77,1.46,1.46,0,0,0-.83-.26,1.56,1.56,0,0,0-1.22.57,2.5,2.5,0,0,0-.5,1.68,2.44,2.44,0,0,0,.5,1.63,1.51,1.51,0,0,0,1.22.58,1.49,1.49,0,0,0,.81-.25,1.79,1.79,0,0,0,.6-.76A3,3,0,0,0,268,218.16Z" fill="#093f68"/><path d="M275.55,220.77a6.36,6.36,0,0,1-1.23.74,3.56,3.56,0,0,1-1.34.24,2.5,2.5,0,0,1-1.18-.26,2,2,0,0,1-.79-.72,1.94,1.94,0,0,1-.27-1,1.79,1.79,0,0,1,.45-1.23,2.34,2.34,0,0,1,1.26-.68l.82-.17,1.14-.25c.31-.07.65-.17,1-.27a1.77,1.77,0,0,0-.28-1,1.23,1.23,0,0,0-1-.32,2.22,2.22,0,0,0-1,.18,1.81,1.81,0,0,0-.58.56c-.16.25-.27.41-.33.49a.57.57,0,0,1-.43.12.72.72,0,0,1-.51-.19.61.61,0,0,1-.22-.48,1.47,1.47,0,0,1,.33-.9,2.39,2.39,0,0,1,1-.72,4.57,4.57,0,0,1,1.73-.28,4.89,4.89,0,0,1,1.81.27,1.7,1.7,0,0,1,.94.86,3.85,3.85,0,0,1,.27,1.57v1c0,.29,0,.61,0,1a3.49,3.49,0,0,0,.16,1,3.16,3.16,0,0,1,.16.69.64.64,0,0,1-.25.49.83.83,0,0,1-.57.22.79.79,0,0,1-.54-.25A3.72,3.72,0,0,1,275.55,220.77Zm-.12-2.54a10.92,10.92,0,0,1-1.12.3c-.49.1-.83.18-1,.23a1.3,1.3,0,0,0-.54.29.73.73,0,0,0-.25.6.91.91,0,0,0,.3.68,1.13,1.13,0,0,0,.79.27,2.11,2.11,0,0,0,1-.22,1.48,1.48,0,0,0,.64-.59,2.67,2.67,0,0,0,.24-1.31Z" fill="#093f68"/><circle cx="227" cy="201.28" r="1.66" fill="#dfeaef"/><circle cx="232.55" cy="201.28" r="1.66" fill="#dfeaef"/><circle cx="238.1" cy="201.28" r="1.66" fill="#dfeaef"/><path d="M171.41,222.09a1,1,0,0,1-1-1v-1.87H144.09a1,1,0,0,1,0-2h27.32a1,1,0,0,1,1,1v2.87A1,1,0,0,1,171.41,222.09Z" fill="#093f68"/><path d="M142.82,222.09a1,1,0,0,1-1-1v-6.83a1,1,0,0,1,2,0v6.83A1,1,0,0,1,142.82,222.09Z" fill="#093f68"/><path d="M156.48,222.72a1,1,0,0,1-1-1v-3.5a1,1,0,0,1,2,0v3.5A1,1,0,0,1,156.48,222.72Z" fill="#093f68"/><path d="M160.81,92.51H141.25a1,1,0,0,1,0-2h19.56a1,1,0,0,1,0,2Z" fill="#093f68"/></g></svg>