<svg xmlns="http://www.w3.org/2000/svg" viewBox="0 0 400 300"><g id="_377_explosion_outline" data-name="#377_explosion_outline"><path d="M172.85,51a11.6,11.6,0,0,0-2.54,1.21c-5.11,3.28-8,10.38-5.92,16-6.58-1.87-13,1.84-17.49,6.45-5.21,5.35-9.12,12.7-8,20.07s9,13.76,16.06,11.33c-4.81,4.46-4,13,.74,17.56s12.23,5.29,18.46,3.24,11.4-6.52,15.78-11.41c7.62,7.57,22.36,5.49,27.58-3.9-.26,4.65,3.17,8.92,7.39,10.9s9.07,2.07,13.72,1.71c4.82-.37,9.7-1.23,13.92-3.58s7.71-6.39,8.41-11.17c1-6.84-4.82-13.88-11.72-14.21,10.16-7.19,11.17-23.31,1.67-31.51a18.94,18.94,0,0,0-17.73-3.8c-2.34.77-7.07,3.57-7.26,6.42.43-6.31-4.94-11.75-10.86-14-4.28-1.61-9.24-2-13.31.11C198,54.38,194.54,59,193.23,63c-2-4.38-4.8-8.45-9.09-10.81A14.5,14.5,0,0,0,172.85,51Z" fill="#fff"/><path d="M167.49,128.94a17.91,17.91,0,0,1-12.45-4.6,14.35,14.35,0,0,1-4.29-10.4,12.29,12.29,0,0,1,1.73-6.37,12.38,12.38,0,0,1-7.13-1.89,15.89,15.89,0,0,1-7.41-10.79c-1.06-6.83,1.94-14.46,8.24-20.93,5.26-5.4,11.29-7.92,16.8-7.08a15.64,15.64,0,0,1,6.79-15.53A12.72,12.72,0,0,1,172.53,50h0a15.43,15.43,0,0,1,12.09,1.27,21.67,21.67,0,0,1,8.53,9.23c1.67-3.44,4.68-7.2,8.18-9,3.92-2,9.06-2.05,14.11-.16,4.88,1.84,9.93,6,11.22,11.48a17.37,17.37,0,0,1,6.24-3.94,19.8,19.8,0,0,1,18.7,4,20.56,20.56,0,0,1,6.88,16.75,21.46,21.46,0,0,1-6.82,14.86,13.86,13.86,0,0,1,7.2,4.68A13.4,13.4,0,0,1,262,109.56c-.69,4.73-4,9.18-8.91,11.9s-10.5,3.4-14.33,3.7c-4.15.32-9.51.41-14.22-1.8-3.42-1.6-6.77-4.85-7.71-9a19,19,0,0,1-12,6.45,18.62,18.62,0,0,1-14.77-4c-5.25,5.7-10.2,9.18-15.53,10.94A22.58,22.58,0,0,1,167.49,128.94ZM155,105.06a1,1,0,0,1,.86.49,1,1,0,0,1-.18,1.25,9.7,9.7,0,0,0-2.92,7.16,12.32,12.32,0,0,0,3.67,8.93c4.16,4,11,5.14,17.46,3,5.21-1.72,10.08-5.25,15.34-11.13a1,1,0,0,1,.72-.33,1.05,1.05,0,0,1,.73.29,17.32,17.32,0,0,0,26-3.68,1,1,0,0,1,1.15-.47,1,1,0,0,1,.72,1c-.22,3.87,2.59,8,6.82,10s9.32,1.92,13.21,1.62c3.65-.29,9-1,13.52-3.46,4.35-2.42,7.3-6.32,7.9-10.44A12,12,0,0,0,249.22,96.2a1,1,0,0,1-.53-1.82,19.23,19.23,0,0,0,7.8-14.78,18.61,18.61,0,0,0-6.2-15.15,18,18,0,0,0-16.77-3.61c-2.52.83-6.43,3.45-6.57,5.54h0a1,1,0,0,1-1.07.93,1,1,0,0,1-.93-1.07h0c.42-6.12-5-11-10.21-13-4.53-1.69-9.08-1.67-12.5.07-3.77,1.91-6.91,6.46-8.06,10a1,1,0,0,1-1.86.1c-2.19-4.91-5.11-8.39-8.66-10.34a13.47,13.47,0,0,0-10.5-1.13A10.47,10.47,0,0,0,170.85,53c-4.89,3.13-7.37,9.79-5.52,14.83a1,1,0,0,1-.2,1,1,1,0,0,1-1,.29c-7.42-2.12-14,3.61-16.51,6.17-5.86,6-8.66,13-7.69,19.23a13.82,13.82,0,0,0,6.47,9.39,9.77,9.77,0,0,0,8.28,1.15A.91.91,0,0,1,155,105.06Z" fill="#093f68"/><path d="M287.81,243.32c-6.51,1.35-13.8-3.44-20.45-1.61-8.58,2.36-20.06,12.71-29.16,5.36-2.66-2.14-4-5.68-7-7.38-3.43-2-7.81-.79-11.3,1.08s-6.74,4.39-10.61,5.19c-11.29,2.34-21.68-10.74-32.89-8.07-6,1.42-10.32,7.08-16.35,8.31-7.58,1.53-14.45-4.3-21.82-6.63a25.18,25.18,0,0,0-17.15.85c-3.24,1.37-11.13,3.47-13.42,5.45,17.81-15.35,33.32-32.68,46-48.83l1.54-2q3.8-4.87,7.22-9.55l.32-.43a407.1,407.1,0,0,0,29.15-45.37h24.92c3.46,10.55,8.78,21.5,14.95,32.17q3.31,5.72,6.9,11.29l.4.62.06.08c3.3,5.14,6.82,10.29,10.42,15.32,15.41,18,27.8,30.43,42.81,42.35C291.72,241.82,288.47,243.19,287.81,243.32Z" fill="#093f68"/><path d="M245.5,250.68a12.25,12.25,0,0,1-7.93-2.83,19.61,19.61,0,0,1-3.18-3.53,13.27,13.27,0,0,0-3.7-3.76c-3.48-2-8-.17-10.33,1.09-1,.51-1.92,1.08-2.84,1.64a26.4,26.4,0,0,1-8,3.65c-5.93,1.22-11.54-1.52-17-4.17s-10.59-5.18-15.9-3.91c-2.75.66-5.14,2.27-7.67,4s-5.44,3.68-8.71,4.35c-5.43,1.1-10.47-1.33-15.34-3.68a54.2,54.2,0,0,0-7-3,24.25,24.25,0,0,0-16.46.83c-1.07.45-2.63,1-4.27,1.53-3.33,1.13-7.48,2.53-8.89,3.74a1,1,0,1,1-1.3-1.51h0a348.59,348.59,0,0,0,45.86-48.68l1.54-2c2.34-3,4.69-6.12,7.2-9.53l.16-.2.18-.25A407.06,407.06,0,0,0,191,139.25a1,1,0,0,1,.89-.53h24.92a1,1,0,0,1,.95.69c3.15,9.61,8.16,20.37,14.86,32,2.14,3.69,4.46,7.47,6.88,11.25l.19.3c.07.1.14.2.2.3a.36.36,0,0,1,.07.1c3.14,4.89,6.64,10,10.39,15.27,15.9,18.53,28.27,30.76,42.62,42.16a1,1,0,0,1,.37.91,1,1,0,0,1-.6.79c-.92.39-4,1.68-4.72,1.83h0c-3.34.69-6.81-.11-10.17-.89-3.6-.83-7-1.62-10.22-.74A48.05,48.05,0,0,0,259.9,246C255.31,248.22,250.33,250.68,245.5,250.68Zm-18.34-13a9,9,0,0,1,4.53,1.14,15.11,15.11,0,0,1,4.29,4.29,17.92,17.92,0,0,0,2.84,3.18c6,4.86,13.23,1.31,20.2-2.12a49.44,49.44,0,0,1,8.08-3.43c3.71-1,7.51-.13,11.2.72,3.29.76,6.41,1.49,9.31.88h0c.28-.05,1.47-.52,2.8-1.06-13.91-11.19-26.08-23.31-41.63-41.43-3.82-5.33-7.33-10.49-10.48-15.4l-.06-.08L238,184l-.21-.34c-2.43-3.78-4.76-7.6-6.92-11.31a176.55,176.55,0,0,1-14.8-31.67h-23.6a423.18,423.18,0,0,1-28.94,45l-.16.21-.18.24c-2.51,3.4-4.87,6.54-7.22,9.55l-1.55,2A358.39,358.39,0,0,1,113.5,242c1-.36,2-.71,3-1,1.62-.55,3.14-1.07,4.15-1.49a26.32,26.32,0,0,1,17.83-.88,54.82,54.82,0,0,1,7.24,3.08c4.79,2.3,9.31,4.48,14.08,3.52,2.88-.59,5.37-2.27,8-4s5.22-3.52,8.32-4.26c6-1.44,11.72,1.36,17.24,4.05,5.36,2.63,10.43,5.1,15.68,4a24.19,24.19,0,0,0,7.42-3.41c.95-.57,1.93-1.15,2.93-1.69A17.32,17.32,0,0,1,227.16,237.68Zm60.65,5.64h0Zm-48-60.14h0Z" fill="#093f68"/><path d="M191.89,139.72s-8.22-23.28-20.33-37.64c0,0,10.14,11.55,15.77,7.61s4.56-29.29,4.56-29.29,6.14,32,14.59,29.66,22.52-35,22.52-35-13.8,36.61-6.48,36.33a19.74,19.74,0,0,0,11.55-4s-14.53,14.77-17.26,32.33Z" fill="#f56132"/><path d="M216.81,140.72H191.89a1,1,0,0,1-.94-.67c-.09-.23-8.31-23.27-20.15-37.32a1,1,0,0,1,1.51-1.31c2.66,3,10.43,10.25,14.45,7.45,1.16-.82,3.23-3.9,4-15.37.43-6.69.17-13,.17-13a1,1,0,0,1,2-.23c1.31,6.79,5.87,25.16,11.23,28.49a2.58,2.58,0,0,0,2.11.39c6.55-1.82,18-25.48,21.87-34.44a1,1,0,0,1,1.86.75c-4.39,11.64-10.45,31.35-8,34.69a.62.62,0,0,0,.59.28,18.86,18.86,0,0,0,10.92-3.75,1,1,0,0,1,1.37,1.46c-.14.14-14.33,14.76-17,31.78A1,1,0,0,1,216.81,140.72Zm-24.22-2H216c2.09-11.83,9.19-22.18,13.65-27.74a22.71,22.71,0,0,1-7.05,1.4,2.58,2.58,0,0,1-2.29-1.11c-.63-.88-2.54-3.54,2.46-20.57l.15-.53c-4.83,9.2-11.2,19.48-16.14,20.85a4.48,4.48,0,0,1-3.69-.61c-4.5-2.8-8-13.33-10.11-21.1-.22,7.94-1.24,18.54-5,21.2-2.93,2-6.75.61-10-1.57C185.86,121.15,191.39,135.49,192.59,138.72Z" fill="#093f68"/><path d="M188.78,79.89h-.56a10.11,10.11,0,0,1-3.28-.43,4.37,4.37,0,0,1-2.76-2.55,1,1,0,1,1,1.88-.68,2.46,2.46,0,0,0,1.55,1.34,8,8,0,0,0,2.63.32,19.15,19.15,0,0,0,4.5-.35A11.41,11.41,0,0,0,200.58,71a1,1,0,1,1,1.83.79,13.38,13.38,0,0,1-9.23,7.69A19.77,19.77,0,0,1,188.78,79.89Z" fill="#093f68"/><path d="M231.83,180.92c-6.69,1.18-15.71-21.42-14.19-17.77.17.41,10.89,32.42,7.14,35S212,173,212,173s-1.5,24-6.38,18-4.13-24.4-4.13-24.4-6.76,20.65-11.26,19.52,3.35-15.41,3.74-16.11c-.66.88-18.06,24.38-20.91,24.93s9.62-23.75,10-24.57c-6.58,9.17-14.45,13-20.37,14.66a407.1,407.1,0,0,0,29.15-45.37h24.92c3.46,10.55,8.78,21.5,14.95,32.17C232.67,178.1,233.84,180.57,231.83,180.92Z" fill="#68e1fd"/><path d="M224.24,199.36a2.3,2.3,0,0,1-.68-.11c-3.43-1.15-8.36-13.92-11-21.34-.62,5.9-2,14.1-4.83,15-.69.22-1.76.19-2.92-1.23-3.3-4.07-4.16-13.18-4.35-19.24-2.56,6.68-6.74,15.65-10.5,14.7a2.6,2.6,0,0,1-1.79-1.53c-.72-1.68-.05-4.65,1-7.58-8.87,11.58-14.22,17.6-16,17.94a1.29,1.29,0,0,1-1.31-.48c-.41-.54-1.4-1.88,6.68-18.39A36.6,36.6,0,0,1,163,186.05a1,1,0,0,1-1.08-.4,1,1,0,0,1,0-1.15A407.46,407.46,0,0,0,191,139.25a1,1,0,0,1,.89-.53h24.92a1,1,0,0,1,.95.69,173.34,173.34,0,0,0,14.86,32,.93.93,0,0,1,.13.35c.23,1.57.47,2.87.68,4,.51,2.72.79,4.22.08,5.25a2.22,2.22,0,0,1-1.5.9h0c-3.44.62-7.1-3.6-10-8.19.55,1.86,1.11,3.85,1.65,5.86,4.08,15.32,3.15,18.42,1.7,19.43A2,2,0,0,1,224.24,199.36ZM212,172a1,1,0,0,1,1,.69c4.3,13.24,9.46,24.52,11.28,24.63,0-.05,1.66-1.51-2.5-17.17-2.18-8.2-4.87-16.25-5-16.68l-.15-.34h0l-.07-.18a1,1,0,0,1,.65-1.19,1,1,0,0,1,1.24.59h0l0,.11.11.26a.49.49,0,0,1,0,.12c2,4.63,8.78,17.8,13.06,17.06a.42.42,0,0,0,.2-.07c.25-.31-.09-2.14-.39-3.75-.2-1.06-.44-2.37-.67-3.9a176.68,176.68,0,0,1-14.71-31.5h-23.6a418,418,0,0,1-27.13,42.47,36.72,36.72,0,0,0,16.94-13.35,1,1,0,0,1,1.7,1c-5.35,10.43-9.3,19.2-10.18,22.46,2.49-2.23,8.92-9.86,19.19-23.64l.17-.23a1,1,0,0,1,1.67,1.08c-1.93,3.48-5.83,11.9-4.8,14.27a.59.59,0,0,0,.43.39c2.15.52,6.94-9.32,10.07-18.87a1,1,0,0,1,1.13-.67,1,1,0,0,1,.82,1c0,.18-.68,18.08,3.91,23.73.39.48.67.61.75.59,1.34-.43,3.21-7.78,3.85-18.05a1,1,0,0,1,.87-.93Zm19.82,8.88h0Z" fill="#093f68"/><path d="M199.91,119.23a1,1,0,0,1-.94-.68,64.9,64.9,0,0,1-1.46-8.08,1,1,0,1,1,2-.25,62.1,62.1,0,0,0,1.37,7.68,1,1,0,0,1-.62,1.27A1,1,0,0,1,199.91,119.23Z" fill="#093f68"/><path d="M198.73,139.62a1,1,0,0,1-1-.88c0-.14-1.72-14-7.38-22.48a1,1,0,1,1,1.67-1.11c5.92,8.91,7.62,22.77,7.69,23.35a1,1,0,0,1-.87,1.11Z" fill="#093f68"/><path d="M205.26,140.72h-.12a1,1,0,0,1-.88-1.1c.06-.53,1.44-12.82,3-17.73a1,1,0,1,1,1.91.58c-1.46,4.74-2.86,17.24-2.87,17.37A1,1,0,0,1,205.26,140.72Z" fill="#093f68"/><path d="M212.86,131.94h-.18a1,1,0,0,1-.81-1.17,68.44,68.44,0,0,1,6.21-17.51,1,1,0,1,1,1.76.94,68.12,68.12,0,0,0-6,16.93A1,1,0,0,1,212.86,131.94Z" fill="#093f68"/><path d="M211.26,116.71h-.15a1,1,0,0,1-.84-1.15,34,34,0,0,1,2.35-5.65,1,1,0,0,1,1.79.89,33.66,33.66,0,0,0-2.16,5.07A1,1,0,0,1,211.26,116.71Z" fill="#093f68"/><path d="M186.94,139.07a1,1,0,0,1-.81-.42,15.37,15.37,0,0,0-11.34-6.23,1,1,0,0,1-.95-1.06,1,1,0,0,1,1.06-.94,17.14,17.14,0,0,1,12.85,7.07,1,1,0,0,1-.23,1.39A1,1,0,0,1,186.94,139.07Z" fill="#093f68"/><path d="M221.59,139.06a.94.94,0,0,1-.59-.2,1,1,0,0,1-.21-1.39,17.61,17.61,0,0,1,9.93-6.59,1,1,0,0,1,.47,1.94,15.64,15.64,0,0,0-8.79,5.83A1,1,0,0,1,221.59,139.06Z" fill="#093f68"/><path d="M235.46,131.49a1,1,0,0,1-.3-2,7.82,7.82,0,0,1,4.57,0,1,1,0,0,1-.59,1.92,5.62,5.62,0,0,0-3.37,0A1.12,1.12,0,0,1,235.46,131.49Z" fill="#093f68"/><path d="M162.13,142.61a1,1,0,0,1-.49-1.88c4.09-2.28,8.41-4.12,12.31-2.2a1,1,0,0,1-.89,1.79c-3.07-1.51-6.83.14-10.44,2.16A1.12,1.12,0,0,1,162.13,142.61Z" fill="#093f68"/><path d="M249.67,148a1,1,0,0,1-.67-.26,19.17,19.17,0,0,0-18.3-4.15,1,1,0,1,1-.58-1.91,21.2,21.2,0,0,1,20.23,4.59,1,1,0,0,1,.06,1.41A1,1,0,0,1,249.67,148Z" fill="#093f68"/></g></svg>