<svg xmlns="http://www.w3.org/2000/svg" viewBox="0 0 400 300"><g id="_189_facebook_ad_outline" data-name="#189_facebook_ad_outline"><path d="M153.23,243l5-37.23-2.17-62.25S116.76,164.19,114,178.67c-3.08,16.13-5.17,49.47-6,64.29Z" fill="#ffc9b0"/><path d="M153.23,244H108a1,1,0,0,1-.73-.32,1,1,0,0,1-.27-.74c.77-13.93,2.89-48.09,6-64.41,2.82-14.79,41-35,42.63-35.89a1,1,0,0,1,1,0,1,1,0,0,1,.49.83l2.17,62.24c0,.06,0,.11,0,.17l-5,37.23A1,1,0,0,1,153.23,244Zm-44.17-2h43.29l4.91-36.29-2.1-60.54c-7,3.85-37.83,21.41-40.19,33.73C112,194.67,109.87,227.47,109.06,242Z" fill="#093f68"/><rect x="144.3" y="57.04" width="103.52" height="172.88" rx="15.34" fill="#fff"/><path d="M232.48,230.92H159.64a16.36,16.36,0,0,1-16.34-16.34V72.38A16.36,16.36,0,0,1,159.64,56h72.84a16.36,16.36,0,0,1,16.35,16.34v142.2A16.36,16.36,0,0,1,232.48,230.92ZM159.64,58A14.37,14.37,0,0,0,145.3,72.38v142.2a14.36,14.36,0,0,0,14.34,14.34h72.84a14.36,14.36,0,0,0,14.35-14.34V72.38A14.37,14.37,0,0,0,232.48,58Z" fill="#093f68"/><rect x="151.24" y="76.2" width="89.65" height="132.46" fill="#fff"/><path d="M240.89,209.66H151.24a1,1,0,0,1-1-1V76.2a1,1,0,0,1,1-1h89.65a1,1,0,0,1,1,1V208.66A1,1,0,0,1,240.89,209.66Zm-88.65-2h87.65V77.2H152.24Z" fill="#093f68"/><path d="M190.75,67.52h-4.38a1,1,0,0,1,0-2h4.38a1,1,0,0,1,0,2Z" fill="#093f68"/><path d="M205.75,67.52H195a1,1,0,0,1,0-2h10.75a1,1,0,0,1,0,2Z" fill="#093f68"/><circle cx="196.06" cy="219.55" r="2.43" fill="#093f68"/><rect x="151.24" y="114.49" width="89.65" height="67.46" fill="#68e1fd"/><path d="M240.89,183H151.24a1,1,0,0,1-1-1V114.49a1,1,0,0,1,1-1h89.65a1,1,0,0,1,1,1V182A1,1,0,0,1,240.89,183Zm-88.65-2h87.65V115.49H152.24Z" fill="#093f68"/><rect x="151.24" y="76.2" width="89.65" height="16.82" fill="#093f68"/><path d="M240.89,94H151.24a1,1,0,0,1-1-1V76.2a1,1,0,0,1,1-1h89.65a1,1,0,0,1,1,1V93A1,1,0,0,1,240.89,94Zm-88.65-2h87.65V77.2H152.24Z" fill="#093f68"/><circle cx="161.66" cy="103.49" r="5.56" fill="#68e1fd"/><path d="M161.66,110.05a6.56,6.56,0,1,1,6.56-6.56A6.58,6.58,0,0,1,161.66,110.05Zm0-11.12a4.56,4.56,0,1,0,4.56,4.56A4.57,4.57,0,0,0,161.66,98.93Z" fill="#093f68"/><path d="M204.22,101.32H172.9a1,1,0,0,1,0-2h31.32a1,1,0,0,1,0,2Z" fill="#dfeaef"/><path d="M194.13,108.4H172.9a1,1,0,0,1,0-2h21.23a1,1,0,0,1,0,2Z" fill="#dfeaef"/><path d="M186.73,139.17h3.48l8.29,19.06h-4.74l-1.64-4h-7.4l-1.59,4H178.5Zm1.62,5.55L186,150.64h4.66Z" fill="#093f68"/><path d="M213.63,158.23h-3.71v-1.72h-.06a4.4,4.4,0,0,1-.63.71,4.17,4.17,0,0,1-.91.66,5.78,5.78,0,0,1-1.16.49,4.77,4.77,0,0,1-1.31.19,6.79,6.79,0,0,1-2.64-.5,5.9,5.9,0,0,1-2-1.4,6.3,6.3,0,0,1-1.31-2.14,7.92,7.92,0,0,1-.45-2.72,8.51,8.51,0,0,1,.41-2.63A7.4,7.4,0,0,1,201,147a5.86,5.86,0,0,1,1.87-1.55,5.38,5.38,0,0,1,2.5-.57,7,7,0,0,1,2.36.39,3.75,3.75,0,0,1,1.79,1.33h.05v-8.67h4Zm-3.71-6.54a3.39,3.39,0,0,0-.85-2.39,3.55,3.55,0,0,0-4.77,0,3.83,3.83,0,0,0,0,4.79,3.58,3.58,0,0,0,4.77,0A3.42,3.42,0,0,0,209.92,151.69Z" fill="#093f68"/><path d="M227.11,190.29H160.84a1,1,0,0,1,0-2h66.27a1,1,0,0,1,0,2Z" fill="#dfeaef"/><path d="M215.86,200.77h-55a1,1,0,0,1,0-2h55a1,1,0,0,1,0,2Z" fill="#dfeaef"/><path d="M234.61,105.57h-15a1,1,0,0,1-1-1V98.91a1,1,0,0,1,1-1h15a1,1,0,0,1,1,1v5.66A1,1,0,0,1,234.61,105.57Zm-14-2h13V99.91h-13Z" fill="#dfeaef"/><path d="M243.51,231.2,246.37,243h47.19c-3.45-7.74-8.74-19.47-9.82-21-1.64-2.38-1-33.52-7.07-44.11-3.27-5.37-9.33-7.19-15.32-6.65-1.81.16-18,4.17-18.48,2.18-1.67-6.75-3.66-13.44-6-20a27.19,27.19,0,0,0-4.23-8.54c-1.87-2.28-5.19-4-7.72-2.47s-2.53,5.22-2.19,8.2c2,17.36,7.25,34.52,13,51,0,0-8.71-5.63-13-7.14s-8,2.6-5.13,11.41S243.51,231.2,243.51,231.2Z" fill="#ffc9b0"/><path d="M293.56,244H246.37a1,1,0,0,1-1-.77l-2.77-11.4c-2.84-2.07-23.13-17.13-25.94-25.69-1.7-5.16-1.38-9.4.88-11.62a5.19,5.19,0,0,1,5.54-1c2.95,1,7.85,3.92,10.81,5.73-5-14.45-10.14-31.27-12.14-48.52-.35-3-.46-7.29,2.67-9.18s6.78,0,9,2.7,3.28,5.65,4.4,8.84c2.26,6.49,4.25,13.16,5.92,19.83,1.8.53,10.58-1.3,14-2,2-.41,3.05-.63,3.52-.67,7.2-.64,13.12,2,16.26,7.13,4.12,7.17,5.23,23.25,6,33.89.32,4.64.65,9.43,1.08,10.18,1.09,1.58,6,12.39,9.9,21.19a1,1,0,0,1-.91,1.41Zm-46.4-2H292c-5.05-11.33-8.35-18.4-9.09-19.48s-.94-4.14-1.42-11.16c-.73-10.46-1.83-26.27-5.7-33-2.72-4.48-8-6.73-14.36-6.16-.38,0-1.73.32-3.3.64-12.42,2.57-15.76,2.73-16.24.79-1.66-6.7-3.66-13.4-5.93-19.92a26.43,26.43,0,0,0-4.06-8.24c-1.63-2-4.44-3.45-6.43-2.25-1.62,1-2.17,3.29-1.71,7.24,2.1,18.14,7.73,35.85,13,50.78a1,1,0,0,1-.46,1.21,1,1,0,0,1-1-.05c-.89-.57-8.82-5.64-12.8-7a3.2,3.2,0,0,0-3.47.59c-1.67,1.64-1.82,5.22-.38,9.56,2.76,8.41,25.28,24.76,25.51,24.92a1,1,0,0,1,.39.58Z" fill="#093f68"/><path d="M113.82,202.2s-.25-20.87,23.65-35.89c20.5-12.88,21.53-5.33,20.45-.17-1.33,6.38-16.4,18.34-16.4,18.34s9.44,9.71-2.32,25" fill="#ffc9b0"/><path d="M139.2,210.52a1,1,0,0,1-.61-.21,1,1,0,0,1-.19-1.4c11.06-14.42,2.76-23.36,2.4-23.74a1,1,0,0,1-.28-.76,1,1,0,0,1,.38-.72c4.11-3.26,15-12.81,16-17.75.31-1.51.62-4.19-.86-5.23s-5.59-1.41-18.09,6.45c-12.07,7.59-17.73,16.71-20.35,23a34.26,34.26,0,0,0-2.83,12,1,1,0,0,1-1,1h0a1,1,0,0,1-1-1c0-.87,0-21.6,24.12-36.74,10.42-6.56,17.06-8.65,20.29-6.4,1.82,1.27,2.4,3.79,1.67,7.28-1.22,5.86-12.81,15.68-16,18.28,2,2.79,7.24,12.24-2.93,25.5A1,1,0,0,1,139.2,210.52Z" fill="#093f68"/></g></svg>