<svg xmlns="http://www.w3.org/2000/svg" viewBox="0 0 400 300"><g id="_415_family_meal_outline" data-name="#415_family_meal_outline"><path d="M126.51,90.25A22.5,22.5,0,0,1,149.1,113.5c-.19,5.79-3.48,9.88-4.7,15.22a28.16,28.16,0,0,0,.92,14.2c1.37,4,3.76,7.47,5.67,11.21,4.24,8.28,2.57,16.24-3.1,23.48-8.73,11.12-24,12.54-37,10.79A38.72,38.72,0,0,1,95,183,24.24,24.24,0,0,1,84.72,170c-1.37-4.42-1.18-9.18-.44-13.76a59.91,59.91,0,0,1,5-16.06A28.74,28.74,0,0,0,92,133.27c.75-4-.65-8.12-1-12.21-.69-7.61,2.47-13.87,6.38-20.11,3.45-5.5,11.38-6.77,17.44-5.13.84.23,3.88-3.27,4.71-3.86a10.1,10.1,0,0,1,5.85-1.69C125.75,90.25,126.13,90.25,126.51,90.25Z" fill="#725858"/><path d="M120.07,190.05a70.74,70.74,0,0,1-9.35-.66,39.49,39.49,0,0,1-16.25-5.57,25.1,25.1,0,0,1-10.71-13.48c-1.22-4-1.37-8.61-.47-14.22a61.19,61.19,0,0,1,5.07-16.33l.53-1.1a22.38,22.38,0,0,0,2.14-5.6,22.32,22.32,0,0,0-.45-7.88c-.23-1.32-.46-2.69-.59-4.06-.75-8.3,3-15.05,6.53-20.73,3.69-5.89,12-7.27,18.35-5.61a19.94,19.94,0,0,0,2.62-2.32,16,16,0,0,1,1.45-1.35,11.12,11.12,0,0,1,6.38-1.87c.4,0,.8,0,1.2,0h0a23.51,23.51,0,0,1,23.58,24.28c-.12,3.63-1.39,6.62-2.62,9.51a35,35,0,0,0-2.1,5.9,27.27,27.27,0,0,0,.88,13.65,46.22,46.22,0,0,0,3.66,7.48c.66,1.17,1.34,2.38,2,3.6,4.21,8.22,3.13,16.48-3.21,24.55C144.22,183.9,135.77,190.05,120.07,190.05ZM109.65,96.14c-4.52,0-9.1,1.61-11.43,5.34C94,108.19,91.36,114.06,92,121c.12,1.29.35,2.62.57,3.9a24.05,24.05,0,0,1,.45,8.59,24.1,24.1,0,0,1-2.31,6.1l-.52,1.08a58.9,58.9,0,0,0-4.9,15.8c-.87,5.38-.74,9.6.4,13.31a23.14,23.14,0,0,0,9.88,12.39A37.57,37.57,0,0,0,111,187.41c11.54,1.55,27.17,1,36.12-10.42,5.81-7.41,6.82-15,3-22.41-.6-1.18-1.28-2.38-1.93-3.53a48.65,48.65,0,0,1-3.8-7.81,29.06,29.06,0,0,1-1-14.74,37.16,37.16,0,0,1,2.22-6.25c1.21-2.84,2.36-5.53,2.46-8.78a21.5,21.5,0,0,0-21.59-22.22h0c-.36,0-.73,0-1.09,0a9.25,9.25,0,0,0-5.32,1.5c-.2.15-.73.67-1.21,1.14-2.24,2.21-3.32,3.16-4.35,2.88A18.73,18.73,0,0,0,109.65,96.14Z" fill="#093f68"/><path d="M273,155.54s-8.63,16.08-12.28,16.53S236,179.48,236,179.48l7.67,6S265.23,187.15,271,184s5.21-16.54,5.21-16.54Z" fill="#68e1fd"/><path d="M255.72,186.93c-6.16,0-11.7-.42-12.15-.45a1.09,1.09,0,0,1-.54-.21l-7.67-6a1,1,0,0,1,.3-1.74c.87-.28,21.24-7,24.94-7.45,1.94-.24,7.49-8.5,11.53-16a1,1,0,0,1,1.85.22l3.18,12,0,.22c0,.57.5,14.08-5.73,17.46C268.5,186.52,261.81,186.93,255.72,186.93ZM244,184.5c6.15.46,22,1.06,26.47-1.34,4.23-2.29,4.82-11.87,4.69-15.51l-2.5-9.44c-2.88,5.12-8.54,14.44-11.84,14.86-2.6.32-15.15,4.29-22.78,6.78Z" fill="#093f68"/><path d="M286,149.45h9.16a17,17,0,0,1,17,17v38.13a0,0,0,0,1,0,0H269.06a0,0,0,0,1,0,0V166.41A17,17,0,0,1,286,149.45Z" fill="#68e1fd"/><path d="M312.14,205.54H269.06a1,1,0,0,1-1-1V166.41a18,18,0,0,1,18-18h9.16a18,18,0,0,1,18,18v38.13A1,1,0,0,1,312.14,205.54Zm-42.08-2h41.08V166.41a16,16,0,0,0-16-16H286a16,16,0,0,0-16,16Z" fill="#093f68"/><path d="M284.9,211.59a1,1,0,0,1-1-1L283,156.07a1,1,0,1,1,2,0l.88,54.54a1,1,0,0,1-1,1Z" fill="#093f68"/><path d="M279.09,161.45a2,2,0,0,1-.43,0c-1.59-.34-2-2.81-1.14-7.34a1,1,0,0,1,2,.37,14.67,14.67,0,0,0-.25,5,7.82,7.82,0,0,0,2.92-2.13,1,1,0,0,1,1.42,0,1,1,0,0,1,0,1.41C283,159.36,280.87,161.45,279.09,161.45Zm.22-1.87h0Z" fill="#093f68"/><path d="M288.55,83.42a38.13,38.13,0,0,0-9,.49,29.13,29.13,0,0,0-10,3.4c-3.14,1.87-4.59,4.41-6.82,7.16-1.37,1.69-3.29,2.59-4.33,4.52-3,5.53-3.22,14.64-.52,20.32.9,1.88,3.05,2.93,4.81,3.93,8.28,4.74,17.07,9.62,26.62,9.53,7.84-.07,15.26-3.54,22-7.58,3.05-1.84,4.19-6.3,4.74-9.73.7-4.32-.67-9-2.71-12.83-.9-1.69-1.52-3.58-2.83-5a9.88,9.88,0,0,0-2.61-2c-.26-.14-2.52-.83-2.54-.92C303.36,86.89,296,83.92,288.55,83.42Z" fill="#725858"/><path d="M289.12,133.77c-10,0-19.33-5.35-26.86-9.66l-.54-.31c-1.75-1-3.73-2.09-4.67-4.06-2.82-5.92-2.58-15.44.54-21.22a10.45,10.45,0,0,1,2.67-3A12.86,12.86,0,0,0,262,93.85c.48-.6.93-1.18,1.36-1.75a19.8,19.8,0,0,1,5.73-5.65,29.93,29.93,0,0,1,10.3-3.52,39.19,39.19,0,0,1,9.21-.51c9.36.63,15.6,4.71,17.63,11.52l.84.28a9.66,9.66,0,0,1,1.34.49,10.56,10.56,0,0,1,2.88,2.23,14.38,14.38,0,0,1,2.25,3.73c.23.5.47,1,.73,1.48,1.43,2.67,3.69,8,2.81,13.47s-2.58,8.85-5.22,10.42c-5.91,3.56-13.82,7.65-22.5,7.73Zm-2.94-49.43a37.65,37.65,0,0,0-6.43.56,27.9,27.9,0,0,0-9.62,3.27A17.8,17.8,0,0,0,265,93.31c-.44.58-.9,1.18-1.39,1.79a14.83,14.83,0,0,1-2,2,8.8,8.8,0,0,0-2.21,2.4c-2.85,5.3-3.07,14-.49,19.42.66,1.4,2.28,2.3,3.84,3.18l.55.32c7.77,4.44,16.58,9.52,26.12,9.39,8.19-.08,15.78-4,21.49-7.44,2.09-1.26,3.48-4.21,4.26-9,.58-3.59-.37-8-2.6-12.2-.27-.51-.52-1-.77-1.58a12.84,12.84,0,0,0-1.92-3.23,8.63,8.63,0,0,0-2.34-1.82l-1-.35c-1.63-.55-1.84-.62-2-1.19-2.21-8.37-10.95-10.18-16-10.51h0C287.73,84.37,287,84.34,286.18,84.34Z" fill="#093f68"/><path d="M283.86,147.64h0a4.21,4.21,0,0,1,4.21,4.21v3.57a.64.64,0,0,1-.64.64h-7.15a.64.64,0,0,1-.64-.64v-3.57a4.21,4.21,0,0,1,4.21-4.21Z" transform="translate(573.42 292.52) rotate(177.77)" fill="#ffc9b0"/><path d="M283.86,157.06a5.23,5.23,0,0,1-5.21-5l-.14-3.57a1.66,1.66,0,0,1,1.57-1.7l7.14-.28a1.64,1.64,0,0,1,1.7,1.57l.14,3.58a5.21,5.21,0,0,1-5,5.4h-.2Zm.16-1h0Zm-3.49-7.28.12,3.2a3.21,3.21,0,1,0,6.41-.25l-.12-3.2Z" fill="#093f68"/><ellipse cx="263.4" cy="124.59" rx="6.31" ry="7.05" transform="matrix(1, -0.04, 0.04, 1, -4.65, 10.36)" fill="#ffc9b0"/><path d="M263.45,132.64a6.93,6.93,0,0,1-5-2.2,8.64,8.64,0,0,1-.44-11.29,6.93,6.93,0,0,1,5.1-2.6c4.05-.15,7.45,3.33,7.62,7.76s-3,8.17-7,8.32Zm-.1-14.09h-.19a5,5,0,0,0-3.64,1.88,6.4,6.4,0,0,0-1.42,4.37h0a6.37,6.37,0,0,0,1.76,4.25,5,5,0,0,0,3.77,1.59c2.93-.12,5.2-2.92,5.07-6.25S266.19,118.55,263.35,118.55Z" fill="#093f68"/><path d="M285.13,151.25c13.83-.54,25.54-18.09,25-31.7,0,.29-3.18,1.39-3.54,1.21s-.5-1.83-.84-2.29a5.7,5.7,0,0,0-2.43-1.72,16.15,16.15,0,0,1-4.13-1.83c-3.09-2.44-2.51-7.89-5.81-10-1.89-1.23-4.43-.88-6.46.11s-3.73,2.53-5.65,3.71c-2.56,1.58-5.9,2.48-8.57,1.07-2.34-1.23-4-4.11-6.69-3.93-4.57.32-5.4,8.83-5.28,12.16l.34,9.51C261.61,141.12,271.29,151.79,285.13,151.25Z" fill="#ffc9b0"/><path d="M284.15,152.27a23.14,23.14,0,0,1-16.75-6.88,26.83,26.83,0,0,1-7.32-17.84l-.34-9.52c-.13-3.54.74-12.8,6.21-13.19,2.11-.14,3.66,1.21,5.05,2.41a11.74,11.74,0,0,0,2.18,1.64c2,1,4.82.65,7.58-1,.73-.44,1.42-.94,2.16-1.47a25,25,0,0,1,3.57-2.28c2.7-1.32,5.48-1.33,7.45,0s2.73,3.49,3.44,5.61c.61,1.79,1.18,3.48,2.44,4.48a8.75,8.75,0,0,0,2.61,1.23c.43.15.86.3,1.28.47a6.38,6.38,0,0,1,2.86,2,3.8,3.8,0,0,1,.5,1.4c0,.12.06.27.09.42a14,14,0,0,0,2.22-.79,1,1,0,0,1,.72-.36h0a1,1,0,0,1,1,1c.54,14-11.58,32.18-26,32.74h0C284.82,152.27,284.48,152.27,284.15,152.27Zm-17.89-45.44h-.17c-3.55.25-4.48,7.74-4.35,11.12l.34,9.51A24.8,24.8,0,0,0,268.83,144a21.24,21.24,0,0,0,16.26,6.26h0c10.74-.42,23.76-14,24.07-29.1-1.05.4-2.42.8-3,.5s-.85-1.15-1-1.93a6.08,6.08,0,0,0-.19-.69,4.56,4.56,0,0,0-2-1.35c-.38-.16-.78-.3-1.18-.44a10.32,10.32,0,0,1-3.19-1.54c-1.73-1.36-2.42-3.42-3.09-5.41s-1.24-3.65-2.65-4.58c-1.61-1-3.88-.6-5.47.18a23.61,23.61,0,0,0-3.29,2.1c-.72.53-1.48,1.07-2.27,1.56-3.37,2.07-6.94,2.49-9.57,1.11a14,14,0,0,1-2.56-1.9C268.5,107.73,267.46,106.83,266.26,106.83Zm42.88,12.76Z" fill="#093f68"/><path d="M305.25,121.48s5.86-4.4,9.31.84.68,14.51-9.38,12.23" fill="#ffc9b0"/><path d="M308.1,135.9a14.66,14.66,0,0,1-3.14-.37,1,1,0,0,1,.44-1.95c3.76.85,6.73,0,8.36-2.34a7.73,7.73,0,0,0,0-8.37,4.24,4.24,0,0,0-2.85-2.05c-2.43-.43-5,1.45-5,1.47a1,1,0,0,1-1.4-.21,1,1,0,0,1,.2-1.39c.13-.1,3.26-2.41,6.55-1.84a6.18,6.18,0,0,1,4.19,2.92,9.68,9.68,0,0,1,0,10.61A8.5,8.5,0,0,1,308.1,135.9Z" fill="#093f68"/><path d="M288.68,160.34a6.37,6.37,0,0,1-3.75-1.77,1,1,0,0,1,1.38-1.45h0a4.52,4.52,0,0,0,2.45,1.22.84.84,0,0,0,.65-.38c1.26-1.62.21-4.69.2-4.72a1,1,0,0,1,1.89-.67c.05.16,1.43,4.12-.51,6.61a2.83,2.83,0,0,1-2.08,1.15Z" fill="#093f68"/><circle cx="284.58" cy="126.46" r="2.05" fill="#093f68"/><circle cx="265.55" cy="128.51" r="2.05" fill="#093f68"/><path d="M278.7,124.09a1.59,1.59,0,0,1-.25-3.16l9.64-1.55a1.59,1.59,0,1,1,.5,3.14L279,124.07Z" fill="#093f68"/><path d="M260.7,126.25a1.59,1.59,0,0,1-.17-3.17l8.81-.94a1.59,1.59,0,0,1,.34,3.16l-8.81.94Z" fill="#093f68"/><path d="M274.5,137.62a9,9,0,0,1-2.84-.49,2.28,2.28,0,0,1-1.58-1.56c-.65-2.35,2.55-6.2,3.2-6.95a1,1,0,0,1,1.51,1.31c-1.54,1.78-3,4.25-2.78,5.11,0,0,0,.12.26.19,2.48.8,3.65.14,3.7.11a1,1,0,0,1,1.36.32,1,1,0,0,1-.28,1.35A4.62,4.62,0,0,1,274.5,137.62Z" fill="#093f68"/><path d="M282.53,143.34a1,1,0,0,1-.45-1.89c.12-.06,2.49-1.35,3.11-5.76a1,1,0,0,1,2,.28c-.78,5.54-4.06,7.2-4.2,7.27A1,1,0,0,1,282.53,143.34Z" fill="#093f68"/><polygon points="312.14 204.54 311.83 216.65 267.17 216.65 269.72 205.46 312.14 204.54" fill="#093f68"/><path d="M311.83,217.65H267.17a1,1,0,0,1-.78-.38,1,1,0,0,1-.19-.84l2.55-11.19a1,1,0,0,1,.95-.78l42.42-.92a1,1,0,0,1,.72.29,1,1,0,0,1,.3.73l-.31,12.11A1,1,0,0,1,311.83,217.65Zm-43.4-2h42.42l.26-10.09-40.58.88Z" fill="#093f68"/><path d="M92.47,149.45h43.07a0,0,0,0,1,0,0v38.13a17,17,0,0,1-17,17h-9.16a17,17,0,0,1-17-17V149.45a0,0,0,0,1,0,0Z" transform="translate(228.01 353.99) rotate(-180)" fill="#68e1fd"/><path d="M135.54,205.54H92.47a1,1,0,0,1-1-1V166.41a18,18,0,0,1,18-18h9.17a18,18,0,0,1,17.95,18v38.13A1,1,0,0,1,135.54,205.54Zm-42.07-2h41.07V166.41a16,16,0,0,0-15.95-16h-9.17a16,16,0,0,0-16,16Z" fill="#093f68"/><polygon points="116.55 151.68 119.8 179.49 124.73 154.25 116.55 151.68" fill="#fff"/><path d="M119.8,180.48h0a1,1,0,0,1-1-.88l-3.26-27.8a1,1,0,0,1,1.29-1.07l8.18,2.56a1,1,0,0,1,.69,1.15l-4.92,25.24A1,1,0,0,1,119.8,180.48Zm-2.08-27.38,2.33,19.9,3.52-18.07Z" fill="#093f68"/><path d="M117.18,147.64h7.15a.64.64,0,0,1,.64.64v3.57a4.21,4.21,0,0,1-4.21,4.21h0a4.21,4.21,0,0,1-4.21-4.21v-3.57a.64.64,0,0,1,.64-.64Z" transform="translate(6.01 -4.59) rotate(2.23)" fill="#ffc9b0"/><path d="M120.75,157.06h-.2a5.21,5.21,0,0,1-5-5.41l.13-3.57a1.63,1.63,0,0,1,1.7-1.57l7.14.28a1.64,1.64,0,0,1,1.57,1.7l-.14,3.57a5.2,5.2,0,0,1-5.2,5Zm-.13-2A3.21,3.21,0,0,0,124,152l.12-3.2-6.41-.25-.13,3.2a3.21,3.21,0,0,0,3.08,3.33Z" fill="#093f68"/><ellipse cx="141.21" cy="124.59" rx="7.05" ry="6.31" transform="matrix(0.04, -1, 1, 0.04, 11.21, 260.84)" fill="#ffc9b0"/><path d="M141.16,132.64h-.27c-4-.15-7.16-3.89-7-8.32s3.59-7.9,7.61-7.76a7,7,0,0,1,5.11,2.6,8.44,8.44,0,0,1,1.88,5.73h0a8.42,8.42,0,0,1-2.32,5.56A6.93,6.93,0,0,1,141.16,132.64Zm.1-14.09c-2.84,0-5.23,2.58-5.36,5.84s2.15,6.13,5.07,6.25a5,5,0,0,0,3.78-1.59,6.42,6.42,0,0,0,1.76-4.25h0a6.4,6.4,0,0,0-1.42-4.37,5,5,0,0,0-3.65-1.88Z" fill="#093f68"/><path d="M119.48,151.25c-6.81-.26-12.75-4.32-17-9.45-4.06-5-11.42-16.38-2.68-20.94,2.07-1.07,4.44-1.4,6.63-2.21a15.89,15.89,0,0,0,10.07-13.84A17,17,0,0,1,129,116a11.12,11.12,0,0,0,2.16-8.92c-.1-.5,7.63,2.72,8.34,3.3,2.22,1.85,4.47,4.64,4.38,7.62l-.35,9.51C143,141.12,133.31,151.79,119.48,151.25Z" fill="#ffc9b0"/><path d="M120.48,152.27c-.34,0-.69,0-1,0h0c-6.42-.25-12.71-3.73-17.7-9.81-1.93-2.35-8.12-10.52-6.82-16.88A8,8,0,0,1,99.36,120a21.07,21.07,0,0,1,4.2-1.49c.89-.24,1.73-.47,2.55-.78a14.86,14.86,0,0,0,9.43-12.94,1,1,0,0,1,.38-.74,1,1,0,0,1,.82-.19,17.92,17.92,0,0,1,12.47,10,10.09,10.09,0,0,0,1-6.54,1.07,1.07,0,0,1,.49-1.1c.43-.25.72-.42,5,1.3a36,36,0,0,1,4.51,2.13c1.83,1.52,4.87,4.62,4.75,8.42l-.35,9.51C144,142,133.92,152.27,120.48,152.27Zm-1-2c12.79.5,22.47-9.08,23-22.78l.34-9.51c.1-3-2.78-5.78-4-6.81a58.9,58.9,0,0,0-6.53-2.8,12.14,12.14,0,0,1-2.54,8.27,1,1,0,0,1-1.74-.31,15.89,15.89,0,0,0-10.61-10.24,17,17,0,0,1-10.62,13.51c-.9.34-1.83.59-2.72.84a19.13,19.13,0,0,0-3.8,1.33A6,6,0,0,0,96.88,126c-.9,4.37,2.72,10.72,6.41,15.21,2.67,3.26,8.34,8.78,16.23,9.08Z" fill="#093f68"/><path d="M99.36,121.48s-5.86-4.4-9.31.84-.68,14.51,9.38,12.23" fill="#ffc9b0"/><path d="M96.51,135.9a8.5,8.5,0,0,1-7.31-3.52,9.7,9.7,0,0,1,0-10.61,6.22,6.22,0,0,1,4.2-2.92c3.28-.57,6.42,1.74,6.55,1.84a1,1,0,1,1-1.2,1.6s-2.6-1.9-5-1.47a4.28,4.28,0,0,0-2.86,2.05,7.77,7.77,0,0,0,0,8.37c1.63,2.36,4.6,3.19,8.37,2.34a1,1,0,0,1,1.19.75,1,1,0,0,1-.75,1.2A14.73,14.73,0,0,1,96.51,135.9Z" fill="#093f68"/><circle cx="118.75" cy="126.64" r="2.05" fill="#093f68"/><circle cx="137.77" cy="128.69" r="2.05" fill="#093f68"/><path d="M125.15,123.93H125l-10.17-1.21a1.59,1.59,0,1,1,.38-3.15l10.17,1.21a1.59,1.59,0,0,1-.19,3.16Z" fill="#093f68"/><path d="M142.63,126.43h-.21l-9.64-1.29a1.59,1.59,0,0,1,.42-3.15l9.64,1.29a1.59,1.59,0,0,1-.21,3.16Z" fill="#093f68"/><path d="M128.83,137.81a4.7,4.7,0,0,1-2.56-.61,1,1,0,1,1,1.11-1.67s1.2.69,3.68-.11c.22-.08.24-.15.26-.2.23-.86-1.25-3.33-2.78-5.1a1,1,0,0,1,.1-1.41,1,1,0,0,1,1.41.1c.65.75,3.85,4.6,3.19,6.95a2.3,2.3,0,0,1-1.57,1.56A9.33,9.33,0,0,1,128.83,137.81Z" fill="#093f68"/><path d="M125.93,144.32a9.37,9.37,0,0,1-5.62-1.64A8.71,8.71,0,0,1,117,136.9a1,1,0,0,1,.91-1.09,1,1,0,0,1,1.08.9h0a6.8,6.8,0,0,0,2.56,4.36c1.84,1.32,4.48,1.6,7.86.83a1,1,0,1,1,.44,1.95A17.21,17.21,0,0,1,125.93,144.32Z" fill="#093f68"/><polygon points="92.47 204.54 92.78 216.65 137.43 216.65 134.88 205.46 92.47 204.54" fill="#093f68"/><path d="M137.43,217.65H92.78a1,1,0,0,1-1-1l-.31-12.11a1,1,0,0,1,.29-.73,1.05,1.05,0,0,1,.73-.29l42.41.92a1,1,0,0,1,1,.78l2.55,11.19a1,1,0,0,1-.19.84A1,1,0,0,1,137.43,217.65Zm-43.68-2h42.43l-2.1-9.21-40.58-.88Z" fill="#093f68"/><path d="M225.69,136.06A27.61,27.61,0,0,0,222.45,125c-5.28-9.5-22.4-18.68-32-8.44a1.74,1.74,0,0,1-.7.53,1.85,1.85,0,0,1-.58.06c-8.17.11-11.33,5.28-13.28,11.41a20.73,20.73,0,0,0-.82,4.64,23.44,23.44,0,0,0-.2,2.91,22.9,22.9,0,0,0,.3,3.73c.21,2.87.55,5.71.68,8.22q.56,10.62,2,21.2c.12.86,10.1,2.15,11.28,2.33a103.84,103.84,0,0,0,12.46,1.06,103.09,103.09,0,0,0,12.05-.4c3.81-.36,8,.51,9.73-3.38.84-1.93.65-4.07.6-6.14-.14-6.1,1.1-12.16,1.65-18.24A48.11,48.11,0,0,0,225.69,136.06Z" fill="#725858"/><path d="M204.11,173.65c-.86,0-1.71,0-2.56,0A103.62,103.62,0,0,1,189,172.55l-.59-.09c-11.33-1.57-11.41-2.18-11.54-3.1-.94-7-1.6-14.18-2-21.27-.07-1.43-.21-3-.36-4.58-.11-1.19-.23-2.4-.31-3.63a22.32,22.32,0,0,1-.31-3.8,24.55,24.55,0,0,1,.21-3,20.53,20.53,0,0,1,.86-4.81c1.77-5.58,5-12,14.22-12.11a1.07,1.07,0,0,0,.29,0,1.71,1.71,0,0,0,.25-.24,15.39,15.39,0,0,1,13.66-4.68c7.68.95,16.25,6.67,19.94,13.3A28.41,28.41,0,0,1,226.69,136h0a49.65,49.65,0,0,1-.09,8.58c-.19,2-.45,4.09-.71,6.08a81,81,0,0,0-.94,12l0,.75a13.08,13.08,0,0,1-.7,5.82c-1.61,3.68-5.15,3.78-8.27,3.86-.76,0-1.54,0-2.29.11C210.54,173.51,207.32,173.65,204.11,173.65Zm-25.34-5c.67.27,2.85.83,9.89,1.8l.6.09a102.77,102.77,0,0,0,24.27.65c.81-.08,1.62-.1,2.41-.12,3.35-.09,5.45-.27,6.49-2.66a11.34,11.34,0,0,0,.54-4.95l0-.77a82.71,82.71,0,0,1,1-12.34c.25-2,.51-4,.69-6a45.6,45.6,0,0,0,.09-8.22,26.34,26.34,0,0,0-3.12-10.69c-3.4-6.13-11.33-11.42-18.44-12.29a13.5,13.5,0,0,0-11.93,4,2.57,2.57,0,0,1-1.13.8,2.64,2.64,0,0,1-.83.11c-7.92.1-10.63,5.21-12.37,10.71a18.73,18.73,0,0,0-.78,4.41,22.17,22.17,0,0,0-.2,2.84,21.4,21.4,0,0,0,.29,3.57c.1,1.3.21,2.5.32,3.68.15,1.64.29,3.18.37,4.65C177.23,154.88,177.87,161.84,178.77,168.68Z" fill="#093f68"/><path d="M221.81,207.09H178.47l-2-30.1c0-8.84,8-16,17.83-16H206c9.84,0,17.82,7.17,17.82,16Z" fill="#68e1fd"/><path d="M221.81,208.09H178.47a1,1,0,0,1-1-.93l-2-30.1c0-9.45,8.44-17.08,18.82-17.08H206c10.38,0,18.82,7.63,18.82,17l-2,30.17A1,1,0,0,1,221.81,208.09Zm-42.4-2h41.47l2-29.17c0-8.2-7.55-14.94-16.82-14.94H194.26c-9.28,0-16.83,6.74-16.83,15Z" fill="#093f68"/><ellipse cx="222.56" cy="147.67" rx="6.1" ry="5.26" fill="#ffc9b0"/><path d="M222.56,153.93c-3.92,0-7.11-2.81-7.11-6.26s3.19-6.26,7.11-6.26,7.1,2.81,7.1,6.26S226.47,153.93,222.56,153.93Zm0-10.52c-2.82,0-5.11,1.91-5.11,4.26s2.29,4.26,5.11,4.26,5.1-1.91,5.1-4.26S225.37,143.41,222.56,143.41Z" fill="#093f68"/><ellipse cx="177.73" cy="147.67" rx="6.1" ry="5.26" fill="#ffc9b0"/><path d="M177.73,153.93c-3.92,0-7.11-2.81-7.11-6.26s3.19-6.26,7.11-6.26,7.1,2.81,7.1,6.26S181.64,153.93,177.73,153.93Zm0-10.52c-2.82,0-5.11,1.91-5.11,4.26s2.29,4.26,5.11,4.26,5.1-1.91,5.1-4.26S180.54,143.41,177.73,143.41Z" fill="#093f68"/><path d="M213.31,132.08a23.49,23.49,0,0,1-7.67-1.5,39,39,0,0,1-10-6.25c-2,4.63-7.49,7.35-12.59,9.68-1.09.5-2.51,1-3.48.33-1.06,3.86-1.09,8.11-1.09,12.06,0,10.17,9.7,18.41,21.66,18.41s21.66-8.24,21.66-18.41V132.09C219,132.08,216.12,132.22,213.31,132.08Z" fill="#ffc9b0"/><path d="M200.14,165.81c-12.49,0-22.66-8.71-22.66-19.41,0-3.66,0-8.21,1.12-12.33a1,1,0,0,1,1.53-.56c.43.29,1.27.15,2.5-.41,5.35-2.45,10.3-5,12.09-9.16a1,1,0,0,1,.68-.58,1,1,0,0,1,.87.19,38.69,38.69,0,0,0,9.74,6.11,22.75,22.75,0,0,0,7.36,1.42c1.81.09,3.69.06,5.51,0l2.92,0a1,1,0,0,1,1,1V146.4C222.8,157.1,212.64,165.81,200.14,165.81Zm-19.86-30.18a50.56,50.56,0,0,0-.8,10.77c0,9.6,9.27,17.41,20.66,17.41S220.8,156,220.8,146.4V133.09l-1.89,0c-1.85,0-3.77.06-5.65,0h0a24.42,24.42,0,0,1-8-1.57,37.92,37.92,0,0,1-9.29-5.63c-2.37,4.13-7.27,6.64-12.52,9A6.24,6.24,0,0,1,180.28,135.63Z" fill="#093f68"/><path d="M185.65,191.93a1,1,0,0,1-1-1V171.05a1,1,0,0,1,2,0v19.88A1,1,0,0,1,185.65,191.93Z" fill="#093f68"/><path d="M214.81,191.93a1,1,0,0,1-1-1V171.05a1,1,0,0,1,2,0v19.88A1,1,0,0,1,214.81,191.93Z" fill="#093f68"/><circle cx="190.05" cy="142.6" r="2.05" fill="#093f68"/><circle cx="211.18" cy="142.6" r="2.05" fill="#093f68"/><path d="M200.19,150.48a13.14,13.14,0,0,1-2.06-.17,1,1,0,0,1,.35-2,9.83,9.83,0,0,0,2.61.09,16.9,16.9,0,0,0-1.68-4.37,1,1,0,1,1,1.77-.93c.92,1.77,2.37,4.94,1.74,6.34a1.46,1.46,0,0,1-1,.83A7.38,7.38,0,0,1,200.19,150.48Z" fill="#093f68"/><path d="M194.24,137.18h0l-9.76,0a1.6,1.6,0,0,1-1.59-1.6,1.59,1.59,0,0,1,1.59-1.58h0l9.77,0a1.59,1.59,0,1,1,0,3.18Z" fill="#093f68"/><path d="M208.16,137.42a1.59,1.59,0,0,1-.08-3.18l9.75-.5a1.59,1.59,0,0,1,.17,3.17l-9.76.5Z" fill="#093f68"/><path d="M200.39,158.05h-.21a3.88,3.88,0,0,1-2.64-1.22,1,1,0,0,1,1.51-1.31,2,2,0,0,0,1.27.54,3.82,3.82,0,0,0,2.63-1.32,1,1,0,1,1,1.38,1.45A5.85,5.85,0,0,1,200.39,158.05Z" fill="#093f68"/><rect x="129.26" y="187.32" width="146.93" height="8.63" rx="4.32" fill="#fff"/><path d="M271.87,197H133.57a5.32,5.32,0,0,1,0-10.63h138.3a5.32,5.32,0,1,1,0,10.63Zm-138.3-8.63a3.32,3.32,0,0,0,0,6.63h138.3a3.32,3.32,0,1,0,0-6.63Z" fill="#093f68"/><rect x="134.88" y="195.95" width="135.68" height="20.71" fill="#fff"/><path d="M270.56,217.66H134.88a1,1,0,0,1-1-1V196a1,1,0,0,1,1-1H270.56a1,1,0,0,1,1,1v20.71A1,1,0,0,1,270.56,217.66Zm-134.68-2H269.56V197H135.88Z" fill="#093f68"/><path d="M233,177.18a5.24,5.24,0,0,1,7.82-3.17,6.67,6.67,0,0,1,8.33-.86,4.68,4.68,0,0,1,5.19,1.16,6.66,6.66,0,0,1,1.6,5.27,4.32,4.32,0,0,1-.76,2.16c-.9,1.17-2.53,1.45-4,1.6a123.48,123.48,0,0,1-18.25.27,8.26,8.26,0,0,1-3.56-.73c-1.79-1-2.06-2.63-.76-4C229,178.4,233.14,176.68,233,177.18Z" fill="#fff"/><path d="M240.93,184.82c-2.5,0-5.15-.07-8-.22a8.84,8.84,0,0,1-4-.85,3.72,3.72,0,0,1-2.05-2.59,3.59,3.59,0,0,1,1-3,14.41,14.41,0,0,1,4.4-1.95,6.24,6.24,0,0,1,8.39-3.41,7.79,7.79,0,0,1,8.6-.76,5.79,5.79,0,0,1,5.81,1.58,7.65,7.65,0,0,1,1.86,6.07,5.09,5.09,0,0,1-1,2.66c-1.1,1.44-2.9,1.8-4.69,2A100.47,100.47,0,0,1,240.93,184.82Zm-8.24-6.69a17.72,17.72,0,0,0-3.39,1.43,1.69,1.69,0,0,0-.48,1.27,1.84,1.84,0,0,0,1,1.17,7.45,7.45,0,0,0,3.14.61,119.73,119.73,0,0,0,18.1-.27c1.34-.14,2.67-.38,3.31-1.21a3.28,3.28,0,0,0,.55-1.66,5.62,5.62,0,0,0-1.32-4.47,3.71,3.71,0,0,0-4-.94,1,1,0,0,1-1-.09,5.66,5.66,0,0,0-7,.73,1,1,0,0,1-1.24.16,4.25,4.25,0,0,0-6.33,2.57h0a1,1,0,0,1-1.22.72Z" fill="#093f68"/><path d="M262.39,179.48c0,4-8.87,7.25-19.81,7.25s-19.82-3.24-19.82-7.25Z" fill="#ffbc0e"/><path d="M242.58,187.73c-10.09,0-20.82-2.89-20.82-8.25a1,1,0,0,1,1-1h39.63a1,1,0,0,1,1,1C263.39,184.84,252.67,187.73,242.58,187.73Zm-18.53-7.25c1.49,2.65,8.68,5.25,18.53,5.25s17-2.6,18.52-5.25Z" fill="#093f68"/><path d="M191.78,177.18A5.24,5.24,0,0,1,199.6,174a6.67,6.67,0,0,1,8.33-.86,4.68,4.68,0,0,1,5.19,1.16,6.66,6.66,0,0,1,1.6,5.27,4.32,4.32,0,0,1-.76,2.16c-.9,1.17-2.53,1.45-4,1.6a123.48,123.48,0,0,1-18.25.27,8.26,8.26,0,0,1-3.56-.73c-1.79-1-2.06-2.63-.76-4C187.79,178.4,191.91,176.68,191.78,177.18Z" fill="#fff"/><path d="M199.7,184.82c-2.49,0-5.16-.07-8-.22a8.84,8.84,0,0,1-4-.85,3.72,3.72,0,0,1-2-2.59,3.59,3.59,0,0,1,1-3,14.41,14.41,0,0,1,4.4-1.95,6.24,6.24,0,0,1,8.39-3.41A7.79,7.79,0,0,1,208,172a5.79,5.79,0,0,1,5.81,1.58,7.66,7.66,0,0,1,1.86,6.07,5.09,5.09,0,0,1-1,2.66c-1.1,1.43-2.9,1.8-4.68,2A100.81,100.81,0,0,1,199.7,184.82Zm-8.24-6.69a17.72,17.72,0,0,0-3.39,1.43,1.69,1.69,0,0,0-.48,1.27,1.84,1.84,0,0,0,1,1.17,7.45,7.45,0,0,0,3.14.61,119.73,119.73,0,0,0,18.1-.27c1.34-.14,2.67-.38,3.31-1.21a3.27,3.27,0,0,0,.55-1.65A5.63,5.63,0,0,0,212.4,175a3.71,3.71,0,0,0-4.05-.94,1,1,0,0,1-1-.09,5.66,5.66,0,0,0-7,.73,1,1,0,0,1-1.24.16,4.25,4.25,0,0,0-6.33,2.57h0a1,1,0,0,1-1.22.72Z" fill="#093f68"/><path d="M221.16,179.48c0,4-8.87,7.25-19.81,7.25s-19.82-3.24-19.82-7.25Z" fill="#ffbc0e"/><path d="M201.34,187.73c-10.08,0-20.81-2.89-20.81-8.25a1,1,0,0,1,1-1h39.63a1,1,0,0,1,1,1C222.16,184.84,211.43,187.73,201.34,187.73Zm-18.52-7.25c1.49,2.65,8.68,5.25,18.52,5.25s17-2.6,18.53-5.25Z" fill="#093f68"/><path d="M166.51,172.8a4.07,4.07,0,0,1-1-.76c-2.16-1.82-5.38-1.17-8.1-.43a5.42,5.42,0,0,0-5.06-1.46c-2,.4-3,2.1-4.71,2.69s-3-.09-4.51,1.47a6.61,6.61,0,0,0-1.59,5.27,4.22,4.22,0,0,0,.75,2.16c.9,1.17,2.53,1.45,4,1.6a110.65,110.65,0,0,0,13.87.43c3.36-.08,7.38.62,9.94-2a4.34,4.34,0,0,0,1.31-3.67,6.85,6.85,0,0,0-.53-1.52c-.68-1.51-1.57-3.19-3.18-3.54A6.6,6.6,0,0,1,166.51,172.8Z" fill="#fff"/><path d="M156.59,184.82a101.55,101.55,0,0,1-10.4-.49c-1.78-.18-3.58-.54-4.69-2a5.09,5.09,0,0,1-1-2.66,7.7,7.7,0,0,1,1.86-6.07,4.77,4.77,0,0,1,3.47-1.48,5.51,5.51,0,0,0,1.44-.25,6.26,6.26,0,0,0,1.73-1.08,7.54,7.54,0,0,1,3.12-1.64,6.58,6.58,0,0,1,5.54,1.33c3.07-.79,6.16-1.16,8.45.78l.26.22a2,2,0,0,0,.49.38h0a2,2,0,0,0,.5.1l.51.08c2,.43,3,2.23,3.88,4.11a7.05,7.05,0,0,1,.6,1.75,5.28,5.28,0,0,1-1.58,4.55c-2.37,2.43-5.72,2.36-8.7,2.31-.65,0-1.3,0-1.93,0C159,184.8,157.75,184.82,156.59,184.82Zm-3-13.79a5,5,0,0,0-1,.1,5.78,5.78,0,0,0-2.29,1.27,8.09,8.09,0,0,1-2.3,1.38,7.4,7.4,0,0,1-1.92.35,2.86,2.86,0,0,0-2.19.87,5.65,5.65,0,0,0-1.32,4.47,3.28,3.28,0,0,0,.55,1.66c.65.83,2,1.07,3.31,1.21a108.21,108.21,0,0,0,13.74.43c.66,0,1.33,0,2,0,2.69.05,5.47.1,7.23-1.71a3.36,3.36,0,0,0,1.05-2.8A6.44,6.44,0,0,0,170,177c-.62-1.4-1.36-2.73-2.47-3-.11,0-.23,0-.34-.06a3.31,3.31,0,0,1-1-.24,3.8,3.8,0,0,1-1.05-.73l-.21-.19c-1.72-1.45-4.47-1-7.19-.23a1,1,0,0,1-1-.29A4.19,4.19,0,0,0,153.56,171Z" fill="#093f68"/><path d="M135.1,179.48c0,4,8.87,7.25,19.81,7.25s19.81-3.24,19.81-7.25Z" fill="#ffbc0e"/><path d="M154.91,187.73c-10.09,0-20.81-2.89-20.81-8.25a1,1,0,0,1,1-1h39.62a1,1,0,0,1,1,1C175.72,184.84,165,187.73,154.91,187.73Zm-18.53-7.25c1.49,2.65,8.68,5.25,18.53,5.25s17-2.6,18.53-5.25Z" fill="#093f68"/><path d="M257.7,177.27a88.75,88.75,0,0,0-10.07-1c-3.67,0-8.65.16-6.08,1.92a30.5,30.5,0,0,0,5.13,2.78s-9.75-.23-9.91,3,3.19,3.28,3.83,3.28,17.1-1,17.1-1Z" fill="#ffc9b0"/><path d="M240.6,188.32a5.06,5.06,0,0,1-3.84-1.35,3.86,3.86,0,0,1-1-3c.12-2.6,3.85-3.53,7-3.84-.57-.33-1.17-.71-1.77-1.12-.94-.64-1.31-1.34-1.08-2.07.39-1.27,2.27-1.67,7.73-1.67a89,89,0,0,1,10.23,1,1,1,0,0,1,.84,1v9.09a1,1,0,0,1-.94,1C256.07,187.45,241.25,188.32,240.6,188.32ZM246,182c-4,0-8.16.81-8.23,2.1a2,2,0,0,0,.45,1.5,3.14,3.14,0,0,0,2.39.73c.5,0,9.57-.53,16.1-.91v-7.28a79.65,79.65,0,0,0-9.07-.84,32.35,32.35,0,0,0-5.24.28,29.82,29.82,0,0,0,4.66,2.5,1,1,0,0,1,.6,1.13,1,1,0,0,1-1,.79Z" fill="#093f68"/><path d="M146.9,177.27a89,89,0,0,1,10.07-1c3.68,0,8.66.16,6.09,1.92a30.5,30.5,0,0,1-5.13,2.78s9.75-.23,9.91,3-3.19,3.28-3.83,3.28-17.11-1-17.11-1Z" fill="#ffc9b0"/><path d="M164,188.32c-.65,0-15.48-.87-17.17-1a1,1,0,0,1-.94-1v-9.09a1,1,0,0,1,.85-1,88.77,88.77,0,0,1,10.22-1c5.47,0,7.35.4,7.74,1.67.22.73-.14,1.43-1.09,2.07-.6.41-1.2.79-1.77,1.12,3.13.32,6.86,1.24,7,3.84a3.86,3.86,0,0,1-1,3A5.08,5.08,0,0,1,164,188.32Zm-16.11-2.91c6.54.38,15.61.9,16.11.91a3.18,3.18,0,0,0,2.39-.73,1.91,1.91,0,0,0,.44-1.5c-.06-1.36-4.73-2.19-8.88-2.1a1,1,0,0,1-.4-1.92,29.49,29.49,0,0,0,4.65-2.5,32.35,32.35,0,0,0-5.24-.28,80.09,80.09,0,0,0-9.07.84Z" fill="#093f68"/><path d="M109.45,154.25c4.49,5.65,13.46,16.69,15,16.78,2,.11,27.93,6.24,27.93,6.24v9.09s-25.92,1.24-33.57-.19-16.39-10.39-21.66-16.51" fill="#68e1fd"/><path d="M132.36,187.86a91.74,91.74,0,0,1-13.78-.71c-7.61-1.41-16.29-9.94-22.22-16.84A1,1,0,0,1,97.87,169c4.69,5.46,13.66,14.81,21.08,16.19,6.63,1.23,27.65.42,32.39.21v-7.34c-10.39-2.45-25.61-6-27-6-.69,0-2.13-.12-15.68-17.16a1,1,0,1,1,1.56-1.25c9,11.38,13.36,15.94,14.34,16.42,2.62.26,25.38,5.63,28,6.25a1,1,0,0,1,.77,1v9.09a1,1,0,0,1-1,1C151.72,187.39,141.68,187.86,132.36,187.86Zm-7.75-17.81Z" fill="#093f68"/><path d="M295.16,154.25c-4.5,5.65-13.47,16.69-15,16.78-2,.11-27.93,6.24-27.93,6.24v9.09s25.92,1.24,33.57-.19,16.39-10.39,21.65-16.51" fill="#68e1fd"/><path d="M272.24,187.86c-9.31,0-19.35-.47-20-.5a1,1,0,0,1-.95-1v-9.09a1,1,0,0,1,.77-1c2.62-.62,25.38-6,28-6.25,1-.48,5.28-5,14.34-16.42a1,1,0,1,1,1.56,1.25c-13.55,17-15,17.12-15.69,17.16-1.37.07-16.6,3.58-27,6v7.34c4.74.21,25.76,1,32.39-.21,7.41-1.38,16.39-10.73,21.08-16.19a1,1,0,1,1,1.51,1.31c-5.94,6.9-14.61,15.43-22.23,16.84A91.66,91.66,0,0,1,272.24,187.86ZM280,170.05Z" fill="#093f68"/><path d="M179.67,180.05a5,5,0,0,0-2.56,4,2.33,2.33,0,0,0,.66,1.87,2.77,2.77,0,0,0,1,.52,9.81,9.81,0,0,0,6.22,0,4.75,4.75,0,0,0,2.88-2.19,2.85,2.85,0,0,0-.2-2.77C186.19,179.26,182,178.76,179.67,180.05Z" fill="#ffc9b0"/><path d="M181.9,188a10.74,10.74,0,0,1-3.44-.56,3.64,3.64,0,0,1-1.35-.72,3.24,3.24,0,0,1-1-2.66,6,6,0,0,1,3.06-4.87c2.68-1.5,7.51-1,9.34,1.8a3.86,3.86,0,0,1,.26,3.75,5.75,5.75,0,0,1-3.46,2.71A10.65,10.65,0,0,1,181.9,188Zm.8-7.63a5.28,5.28,0,0,0-2.53.57h0a4,4,0,0,0-2.06,3.2,1.44,1.44,0,0,0,.32,1.08,2.21,2.21,0,0,0,.67.33,8.8,8.8,0,0,0,5.58,0,3.92,3.92,0,0,0,2.29-1.67,1.87,1.87,0,0,0-.12-1.79C186.09,180.92,184.35,180.35,182.7,180.35Zm-3-.3h0Z" fill="#093f68"/><path d="M223.35,180.05a5,5,0,0,1,2.56,4,2.29,2.29,0,0,1-.65,1.87,2.85,2.85,0,0,1-1,.52,9.81,9.81,0,0,1-6.22,0,4.75,4.75,0,0,1-2.88-2.19,2.85,2.85,0,0,1,.2-2.77C216.83,179.26,221.07,178.76,223.35,180.05Z" fill="#ffc9b0"/><path d="M221.13,188a10.61,10.61,0,0,1-3.42-.55,5.73,5.73,0,0,1-3.46-2.71,3.83,3.83,0,0,1,.26-3.75c1.82-2.77,6.66-3.3,9.33-1.8h0a6,6,0,0,1,3.07,4.87,3.24,3.24,0,0,1-1,2.66,3.71,3.71,0,0,1-1.35.72A10.78,10.78,0,0,1,221.13,188Zm-.81-7.63c-1.64,0-3.38.57-4.14,1.72a1.85,1.85,0,0,0-.13,1.79,3.94,3.94,0,0,0,2.3,1.67,8.8,8.8,0,0,0,5.58,0,2.33,2.33,0,0,0,.67-.33,1.43,1.43,0,0,0,.31-1.08,4,4,0,0,0-2-3.2h0A5.29,5.29,0,0,0,220.32,180.35Z" fill="#093f68"/></g></svg>