<svg xmlns="http://www.w3.org/2000/svg" viewBox="0 0 400 300"><g id="_58_fishing_outline" data-name="#58_fishing_outline"><path d="M202.71,125.93a6.2,6.2,0,0,0-2.78,3,8.83,8.83,0,0,0-.44,2.66,13.85,13.85,0,0,0,.68,6.11,3,3,0,0,0,.72,1.11,2.61,2.61,0,0,0,1.4.58,4.71,4.71,0,0,0,4-1.4,8.28,8.28,0,0,0,1.54-2.73,15.25,15.25,0,0,0,1.25-5.85c0-1.32-.49-4-1.79-4.75S203.84,125.29,202.71,125.93Z" fill="#ffc9b0"/><path d="M202.92,140.46a5,5,0,0,1-.77-.05,3.63,3.63,0,0,1-1.93-.82,3.88,3.88,0,0,1-1-1.48,14.91,14.91,0,0,1-.76-6.54,9.74,9.74,0,0,1,.5-3,7.25,7.25,0,0,1,3.22-3.53h0c2-1.16,4.08-2.12,5.6-1.25,2.1,1.2,2.27,5.14,2.29,5.59a16.21,16.21,0,0,1-1.32,6.24,9.14,9.14,0,0,1-1.74,3A5.72,5.72,0,0,1,202.92,140.46Zm.29-13.66a5.23,5.23,0,0,0-2.35,2.52,7.87,7.87,0,0,0-.37,2.35,13,13,0,0,0,.6,5.67,2.27,2.27,0,0,0,.46.75,1.71,1.71,0,0,0,.88.34,3.69,3.69,0,0,0,3.15-1.1,7.08,7.08,0,0,0,1.34-2.4,14,14,0,0,0,1.18-5.46c0-1.56-.58-3.51-1.29-3.91-.27-.16-1.1-.2-3.6,1.24Z" fill="#093f68"/><path d="M158.35,181.05s13.72,2,19.1-6.5l-14.82-20.17L147,162Z" fill="#093f68"/><path d="M161.94,182.27a29,29,0,0,1-3.74-.23,1,1,0,0,1-.71-.48l-11.33-19.05a1,1,0,0,1-.1-.79,1,1,0,0,1,.52-.62l15.62-7.61a1,1,0,0,1,1.24.3L178.25,174a1,1,0,0,1,0,1.12C174.39,181.26,166.6,182.27,161.94,182.27Zm-3-2.16c2.31.23,12.63.88,17.27-5.54l-13.9-18.92-13.88,6.77Z" fill="#093f68"/><path d="M197.29,229.57c-1.43-6.27-5.63-23.92-7.95-30.17-2.38-5.42-27.43-25.87-32.2-29l7.7-12.07c.32.2,33.72,24.75,37.93,36.12,3.12,8.41,8.27,31,8.49,32Z" fill="#093f68"/><path d="M148.83,232.7l-11.33-8.76c7.69-10,16.53-22.05,19.31-26.74-1.55-4-7-14.33-11.34-23.72C144.31,171,156.19,161,156.19,161c15.15,31.89,15.3,34.76,15.38,36.29C171.72,200,171.87,202.89,148.83,232.7Z" fill="#093f68"/><path d="M191.76,134.11c-4.31,3.9-9.11,5.93-11.85,7.83a65.62,65.62,0,0,1-7.16-8.09,7.16,7.16,0,1,0-11.46,8.59c10.11,13.5,15.64,14.66,18.2,14.66.31,0,.57,0,.79,0,1.86-.12,5.52-.36,19.14-12.57C196.67,140.53,194.31,138.23,191.76,134.11Z" fill="#68e1fd"/><path d="M179.49,158.1c-5.19,0-11.41-4.93-19-15.06a8.16,8.16,0,0,1,13.06-9.79,68.22,68.22,0,0,0,6.47,7.42c.78-.5,1.66-1,2.65-1.57a46.13,46.13,0,0,0,8.42-5.73,1,1,0,0,1,.81-.25,1,1,0,0,1,.71.46,60.2,60.2,0,0,0,4.24,5.86c1.08,1.36,2.2,2.77,3.39,4.49a1,1,0,0,1-.15,1.32c-13.9,12.45-17.7,12.69-19.74,12.81C180.09,158.08,179.81,158.1,179.49,158.1ZM167,132a6.15,6.15,0,0,0-4.92,9.85c7.09,9.46,12.94,14.26,17.4,14.26.27,0,.51,0,.72,0,1.66-.1,5-.32,17.88-11.72-1-1.35-1.9-2.53-2.81-3.67-1.27-1.6-2.48-3.13-3.74-5.06a51.27,51.27,0,0,1-7.88,5.22c-1.24.71-2.32,1.32-3.18,1.92a1,1,0,0,1-1.24-.08,67.28,67.28,0,0,1-7.29-8.23A6.16,6.16,0,0,0,167,132Z" fill="#093f68"/><path d="M148.81,126.79h16.63A7.51,7.51,0,0,1,173,134.3V171a0,0,0,0,1,0,0H141.3a0,0,0,0,1,0,0V134.3A7.51,7.51,0,0,1,148.81,126.79Z" transform="translate(-23.91 30.21) rotate(-10.21)" fill="#68e1fd"/><path d="M145.47,174.48a1,1,0,0,1-.57-.18,1,1,0,0,1-.42-.64L138,137.51a8.52,8.52,0,0,1,6.87-9.88l16.37-2.95a8.53,8.53,0,0,1,9.89,6.87l6.51,36.14a1,1,0,0,1-.81,1.16l-31.16,5.62Zm17.25-47.94a6.6,6.6,0,0,0-1.16.11l-16.36,2.94a6.52,6.52,0,0,0-5.26,7.57l6.33,35.16,29.19-5.26-6.33-35.16A6.54,6.54,0,0,0,162.72,126.54Z" fill="#093f68"/><polygon points="158.9 132.06 164.42 170.07 171.6 168.78 165.26 130.69 158.9 132.06" fill="#093f68"/><path d="M164.42,171.07a1,1,0,0,1-1-.86l-5.52-38a1,1,0,0,1,.77-1.12l6.37-1.38a1,1,0,0,1,.77.15,1,1,0,0,1,.43.67l6.33,38.08a1,1,0,0,1-.81,1.15l-7.17,1.29ZM160,132.85l5.24,36.05,5.19-.93-6-36.08Z" fill="#093f68"/><path d="M158.72,127.64h6.51a0,0,0,0,1,0,0v3.75a2.77,2.77,0,0,1-2.77,2.77h-1a2.77,2.77,0,0,1-2.77-2.77v-3.75A0,0,0,0,1,158.72,127.64Z" transform="translate(-23.99 37.16) rotate(-12.19)" fill="#ffc9b0"/><path d="M161.59,135.25a3.79,3.79,0,0,1-2-.6,3.74,3.74,0,0,1-1.64-2.37l-.79-3.67a1,1,0,0,1,.76-1.19l6.37-1.37a1,1,0,0,1,1.19.76l.79,3.67a3.77,3.77,0,0,1-2.89,4.47h0l-1,.21A3.57,3.57,0,0,1,161.59,135.25Zm1.55-1.27h0Zm-3.85-4.81.58,2.68a1.77,1.77,0,0,0,.77,1.11,1.74,1.74,0,0,0,1.33.25l1-.21a1.78,1.78,0,0,0,1.36-2.1l-.59-2.69Z" fill="#093f68"/><ellipse cx="174.08" cy="107.06" rx="4.88" ry="5.45" transform="translate(-18.68 39.18) rotate(-12.19)" fill="#ffc9b0"/><path d="M174.3,113.49a6.34,6.34,0,0,1-6-5.19,6.79,6.79,0,0,1,.69-4.78,5.59,5.59,0,0,1,3.7-2.77,6.2,6.2,0,0,1,7.11,5.06,6.79,6.79,0,0,1-.69,4.78,5.59,5.59,0,0,1-3.7,2.77A4.92,4.92,0,0,1,174.3,113.49Zm-.44-10.86a3.51,3.51,0,0,0-.72.07,3.65,3.65,0,0,0-2.38,1.81,4.75,4.75,0,0,0-.47,3.37,4.19,4.19,0,0,0,4.73,3.53,3.65,3.65,0,0,0,2.38-1.81,4.73,4.73,0,0,0,.47-3.36h0A4.33,4.33,0,0,0,173.86,102.63Z" fill="#093f68"/><path d="M134.49,101.32c.84,5.39,2.07,11.13,4.8,15.64,4.68,7.76,13.92,14.07,22.13,12.3a17.14,17.14,0,0,0,13.39-13,21,21,0,0,0,.05-9.4l-3.53-16.33s-8.3-.09-8.31-.12Z" fill="#ffc9b0"/><path d="M158.71,130.53c-6.56,0-14.89-4.13-20.28-13.06-2.89-4.78-4.11-10.77-4.93-16a1,1,0,0,1,.63-1.08l28.54-11a1,1,0,0,1,.48-.06c.34,0,2.41,0,4.08.06,4.9,0,4.9,0,5.08.84l3.52,16.34a22,22,0,0,1-.05,9.85,18.16,18.16,0,0,1-14.15,13.77A13.76,13.76,0,0,1,158.71,130.53ZM135.6,102c.79,4.84,2,10.23,4.54,14.48,4.25,7,13.07,13.57,21.07,11.84A16.24,16.24,0,0,0,173.84,116a20.2,20.2,0,0,0,0-9l-3.36-15.56-3.31,0c-2,0-3.2,0-3.93-.09ZM163,90.37h0Z" fill="#093f68"/><path d="M166.92,113.51a11.46,11.46,0,0,0-8.1,2.75c-3.61,2.87-2.25,6.4-5.66,6a11.24,11.24,0,0,1-6.51-3c-2.23-2.22-2.45-5.78-3.19-8.72a8.64,8.64,0,0,0-1.15-3,4.48,4.48,0,0,0-4.57-1.73c-5.92,1.4-2,9-.79,12.42l2.57-.56.38,2.11a20,20,0,0,0,21.52,9.46,17.14,17.14,0,0,0,13.39-13,20.24,20.24,0,0,1-2.32.8c-2.26.57-1.51-1.64-3.69-2.92A5.07,5.07,0,0,0,166.92,113.51Z" fill="#725858"/><path d="M157.1,130.72a21,21,0,0,1-18-10.4.83.83,0,0,1-.13-.34l-.2-1.09-1.56.34a1,1,0,0,1-1.16-.66c-.15-.45-.36-1-.58-1.56-1.15-3-2.72-7-1.27-9.76a4.81,4.81,0,0,1,3.36-2.4,5.5,5.5,0,0,1,5.62,2.13,9.52,9.52,0,0,1,1.3,3.32c.17.66.31,1.35.45,2.06.47,2.3,1,4.67,2.48,6.19a10.19,10.19,0,0,0,5.92,2.7c1.11.14,1.26-.13,1.89-1.56a10,10,0,0,1,3-4.22,12.45,12.45,0,0,1,8.85-3,5.68,5.68,0,0,1,2.26.72,5.26,5.26,0,0,1,2,2.26c.37.69.37.68.9.55a17.22,17.22,0,0,0,2.2-.76,1,1,0,0,1,1.34,1.17,18.16,18.16,0,0,1-14.15,13.77A21.29,21.29,0,0,1,157.1,130.72Zm-16.25-11.28a19,19,0,0,0,20.36,8.84,16.2,16.2,0,0,0,12.08-10.45l-.56.16a2.47,2.47,0,0,1-3.15-1.53,3.32,3.32,0,0,0-1.29-1.5,3.9,3.9,0,0,0-1.49-.46h0a10.46,10.46,0,0,0-7.36,2.54,8.11,8.11,0,0,0-2.44,3.45c-.63,1.44-1.34,3.06-4,2.75A12.27,12.27,0,0,1,146,120c-2-1.94-2.53-4.75-3-7.22-.13-.67-.27-1.33-.43-2a7.72,7.72,0,0,0-1-2.65A3.48,3.48,0,0,0,138,106.8a2.86,2.86,0,0,0-2.05,1.38c-1,1.95.41,5.66,1.36,8.11l.31.8,1.72-.37a1,1,0,0,1,.77.14,1,1,0,0,1,.43.66Z" fill="#093f68"/><ellipse cx="152.16" cy="109.28" rx="1.77" ry="1.76" transform="translate(-19.65 34.6) rotate(-12.19)" fill="#093f68"/><circle cx="168.79" cy="105.69" r="1.77" fill="#093f68"/><path d="M159.54,113a1,1,0,0,1,0-2,8.2,8.2,0,0,0,2.05-.35,15.5,15.5,0,0,0-2.14-3.21,1,1,0,1,1,1.53-1.28c1.37,1.64,2.93,3.86,2.66,5.15a1.4,1.4,0,0,1-.75,1,9.38,9.38,0,0,1-3.27.72Zm2.09-2h0Z" fill="#093f68"/><path d="M146.26,106.61a2,2,0,0,1-.5-3.93l8.15-2.15a2,2,0,0,1,1,3.87l-8.16,2.14A1.79,1.79,0,0,1,146.26,106.61Z" fill="#093f68"/><path d="M161,103.1a2,2,0,0,1-.57-3.91l8.07-2.42a2,2,0,1,1,1.15,3.83L161.62,103A1.89,1.89,0,0,1,161,103.1Z" fill="#093f68"/><path d="M140.59,110.82s-5.24-2.17-6.81,2.43,2.28,11,9.38,7.35Z" fill="#ffc9b0"/><path d="M139.19,122.67a6.37,6.37,0,0,1-4.26-1.55,7.74,7.74,0,0,1-2.1-8.2,5.06,5.06,0,0,1,2.7-3.13,7.63,7.63,0,0,1,5.44.11,1,1,0,0,1,.59.67l2.57,9.78a1,1,0,0,1-.51,1.14A9.74,9.74,0,0,1,139.19,122.67Zm-1.29-11.36a3.79,3.79,0,0,0-1.55.3,3.14,3.14,0,0,0-1.63,2,5.78,5.78,0,0,0,1.52,6c1.45,1.25,3.47,1.4,5.74.44l-2.22-8.45A6.65,6.65,0,0,0,137.9,111.31Z" fill="#093f68"/><path d="M161.19,119.58l6.41-1.47s.56,5.38-2,6.28S161.19,119.58,161.19,119.58Z" fill="#fff"/><path d="M165,125.49a2.83,2.83,0,0,1-1.25-.3c-2.15-1.08-3.4-4.88-3.53-5.31a1,1,0,0,1,.08-.8,1,1,0,0,1,.65-.48l6.41-1.47a1,1,0,0,1,.8.16,1,1,0,0,1,.42.71c.06.64.54,6.2-2.7,7.34A2.67,2.67,0,0,1,165,125.49Zm-2.5-5.19c.52,1.24,1.33,2.69,2.15,3.1a.68.68,0,0,0,.57,0c1.09-.38,1.41-2.49,1.42-4.1Z" fill="#093f68"/><path d="M140.22,82.11h19A10.74,10.74,0,0,1,170,92.85v6.22a0,0,0,0,1,0,0H129.48a0,0,0,0,1,0,0V92.85A10.74,10.74,0,0,1,140.22,82.11Z" transform="matrix(0.93, -0.37, 0.37, 0.93, -22.89, 61.82)" fill="#68e1fd"/><path d="M134.06,107a1,1,0,0,1-.93-.63l-2.3-5.78a11.75,11.75,0,0,1,6.56-15.25h0l17.65-7a11.76,11.76,0,0,1,15.25,6.57l2.3,5.77a1,1,0,0,1,0,.77,1,1,0,0,1-.55.53l-37.6,15A1,1,0,0,1,134.06,107Zm4.07-19.8a9.76,9.76,0,0,0-5.45,12.65l1.93,4.85,35.75-14.23-1.93-4.85a9.76,9.76,0,0,0-12.65-5.45Z" fill="#093f68"/><path d="M134.06,107a1,1,0,0,1-.37-1.93l48.58-19.35a1,1,0,0,1,.74,1.86l-48.58,19.35A1,1,0,0,1,134.06,107Z" fill="#093f68"/><path d="M183.34,137.7c-5.12,4.51-14.29,11.9-19.55,14.69-2.62-2.27-7.15-9.77-10.15-17a7.16,7.16,0,1,0-13.23,5.49,106.94,106.94,0,0,0,5.09,10.37c4.67,8.28,9,13,13.6,14.92a12,12,0,0,0,4.59.94,10.83,10.83,0,0,0,4.25-.86c7.58-3.16,19.7-13.34,23.82-16.89C188.85,145.55,186.09,141.63,183.34,137.7Z" fill="#68e1fd"/><path d="M163.69,168.12a13.1,13.1,0,0,1-5-1c-4.83-2-9.31-6.88-14.09-15.36a108.72,108.72,0,0,1-5.15-10.48A8.16,8.16,0,1,1,154.56,135c2.71,6.51,6.78,13.47,9.39,16.14,5.31-3,14-10,18.73-14.21a1,1,0,0,1,1.48.18c2.61,3.74,5.41,7.72,8.39,11.63a1,1,0,0,1-.14,1.36c-4.71,4.08-16.5,13.9-24.09,17.07A12,12,0,0,1,163.69,168.12ZM147,132a6.25,6.25,0,0,0-2.36.47,6.18,6.18,0,0,0-3.33,8.06,105.29,105.29,0,0,0,5,10.26c4.54,8.07,8.71,12.67,13.11,14.49a10.39,10.39,0,0,0,8.06.08c7.1-3,18.52-12.42,22.84-16.12-2.55-3.38-5-6.79-7.23-10-5.14,4.46-13.81,11.38-18.91,14.08a1,1,0,0,1-1.12-.13c-2.8-2.43-7.38-10-10.42-17.35a6.1,6.1,0,0,0-3.33-3.34A6.25,6.25,0,0,0,147,132Z" fill="#093f68"/><path d="M187.72,155.31l-.09,0a1.92,1.92,0,0,1-1.2-1.24c-.28-1,.49-2.1.94-3,.35-.71.71-1.42,1.07-2.13q1.62-3.15,3.33-6.27,2.34-4.26,4.81-8.45,3-5.07,6.18-10,3.59-5.56,7.44-11l1.5-2.08c14.43-19.79,40.5-43.92,75-54.91a.81.81,0,0,1,1,.51.79.79,0,0,1-.51,1c-35.38,11.78-59.84,37.6-74.12,57.19l-1.14,1.57q-3.8,5.33-7.25,10.87-3,4.81-5.74,9.78-2.22,4-4.25,8.15c-1,2-1.92,4-2.81,6-.26.59-.55,1.17-.78,1.77a4.53,4.53,0,0,1-.92,1.75A2.49,2.49,0,0,1,187.72,155.31Z" fill="#093f68"/><path d="M184.27,139.06s13.57-13.58,16.85-8.4,3.82,9.6,2.43,10.8-5.42,6.35-7.81,2.58l-4.91,4.1Z" fill="#ffc9b0"/><path d="M190.83,149.14h-.13a1,1,0,0,1-.68-.41l-6.56-9.07a1,1,0,0,1,.1-1.3c1.07-1.07,10.57-10.4,15.79-9.84a3.44,3.44,0,0,1,2.62,1.61c3.32,5.25,4.27,10.33,2.24,12.09-.2.17-.45.42-.74.72-1.46,1.47-3.67,3.71-6,3.45a3.27,3.27,0,0,1-1.91-.92l-4.13,3.45A1,1,0,0,1,190.83,149.14Zm-5.25-10,5.43,7.51,4.09-3.41a1,1,0,0,1,.8-.22,1,1,0,0,1,.69.45c.52.82,1,.87,1.14.89,1.34.16,3.27-1.82,4.32-2.87.34-.34.62-.63.85-.82.79-.68.59-4.45-2.62-9.51a1.43,1.43,0,0,0-1.15-.69C195.75,130.13,188.71,136.16,185.58,139.17Z" fill="#093f68"/><path d="M154.55,226.9l-12-9.62-9.87,14.4s7.32,9.11,8.37,9.56S156,244.83,155.56,243s-8.54-5.67-8.54-5.67Z" fill="#f56132"/><path d="M153.89,244.55c-4.4,0-13.11-2.35-13.21-2.39-1.05-.45-5.34-5.61-8.75-9.85a1,1,0,0,1,0-1.19l9.86-14.41a1,1,0,0,1,.68-.42,1,1,0,0,1,.78.21l12,9.62a1,1,0,0,1,.19,1.37L148.52,237c3.2,1.59,7.58,4.06,8,5.81a1.24,1.24,0,0,1-.42,1.3A3.7,3.7,0,0,1,153.89,244.55ZM134,231.63c3.26,4,6.87,8.28,7.57,8.72A69.38,69.38,0,0,0,154,242.6a42.35,42.35,0,0,0-7.39-4.34,1,1,0,0,1-.54-.66,1,1,0,0,1,.16-.83l7-9.68-10.39-8.36Z" fill="#093f68"/><path d="M210.93,219.81l-15,3.85L201.64,242s21.06-6.28,21.51-7.4-10.53-1.89-10.53-1.89Z" fill="#f56132"/><path d="M201.64,243a1,1,0,0,1-.95-.7L195,224a1,1,0,0,1,.08-.79,1,1,0,0,1,.63-.48l15-3.85a1,1,0,0,1,.81.14,1,1,0,0,1,.43.7l1.59,12.08c9.59.73,10.23,1.74,10.47,2.13a1.16,1.16,0,0,1,.1,1.07c-.2.51-.63,1.57-22.15,8A1.45,1.45,0,0,1,201.64,243Zm-4.46-18.62,5.12,16.38c6.55-2,15.09-4.68,18.59-6.08a81,81,0,0,0-8.34-1,1,1,0,0,1-.92-.87l-1.54-11.77ZM222.41,234Z" fill="#093f68"/><path d="M277.79,156a1,1,0,0,1-.68-1.74c.11-.1,10.49-9.64,12.05-22.52,1.2-9.9-.42-11.52-6.43-17.52-1.75-1.75-3.94-3.92-6.48-6.75-11.48-12.79,8.95-49.5,9.82-51.05a1,1,0,0,1,1.75,1,145.44,145.44,0,0,0-9.09,20.16c-3.44,9.7-6.41,22.54-1,28.57,2.51,2.79,4.67,5,6.4,6.68,6.22,6.21,8.32,8.3,7,19.17-1.65,13.63-12.23,23.35-12.68,23.76A1,1,0,0,1,277.79,156Z" fill="#093f68"/><path d="M290.33,164s4.25,6.59,3.27,13.4l-7.35-3.69Z" fill="#ffbc0e"/><path d="M293.6,178.41a1,1,0,0,1-.44-.11l-7.36-3.68a1,1,0,0,1-.47-1.28l4.08-9.72a1,1,0,0,1,.84-.61,1,1,0,0,1,.92.46c.19.28,4.44,7,3.42,14.08a1,1,0,0,1-.52.74A1,1,0,0,1,293.6,178.41Zm-6.07-5.16,5.21,2.61a21,21,0,0,0-2.29-9.55Z" fill="#093f68"/><path d="M268.79,161.44c-.2-.44-6.2-2.3-6.2-2.3s2.7-4.38,10-2.25Z" fill="#ffbc0e"/><path d="M268.79,162.44h-.13a1,1,0,0,1-.59-.3,56.49,56.49,0,0,0-5.77-2,1,1,0,0,1-.64-.6,1,1,0,0,1,.08-.88c.13-.2,3.19-5,11.17-2.69a1,1,0,0,1,.68.68,1,1,0,0,1-.2.93l-3.84,4.55A1,1,0,0,1,268.79,162.44Zm-.91-.59Zm0,0Zm-3.46-3.18a39.09,39.09,0,0,1,4.14,1.49l2.26-2.67C267.51,156.9,265.49,157.84,264.42,158.67Z" fill="#093f68"/><path d="M287.06,144.39s-15.27,6.24-18.89,16,3.88,24.44,3.88,24.44,15.26-6.23,18.89-16S287.06,144.39,287.06,144.39Z" fill="#ffbc0e"/><path d="M272.05,185.83a1,1,0,0,1-.89-.55c-.31-.62-7.66-15.19-3.92-25.24s18.8-16.31,19.44-16.58a1,1,0,0,1,1.27.48c.31.61,7.66,15.18,3.92,25.24s-18.8,16.31-19.44,16.57A1,1,0,0,1,272.05,185.83Zm14.52-40.13c-3.22,1.47-14.52,7.11-17.46,15s1.94,19.57,3.43,22.79c3.22-1.47,14.52-7.11,17.46-15S288.06,148.92,286.57,145.7Z" fill="#093f68"/><path d="M287.53,160a15.77,15.77,0,0,1-6.95-1.52c-5.39-2.63-6.57-6.31-6.62-6.47a1,1,0,1,1,1.92-.58c0,.11,1,3,5.57,5.25a15.72,15.72,0,0,0,9.87.88,1,1,0,0,1,.54,1.92A17.08,17.08,0,0,1,287.53,160Z" fill="#093f68"/><path d="M282.27,156a1,1,0,0,1-.47-1.88l5.07-2.7a1,1,0,0,1,.94,1.76l-5.07,2.7A1,1,0,0,1,282.27,156Z" fill="#093f68"/><path d="M285.84,157.37a1,1,0,0,1-.93-.64l-2.08-5.35a1,1,0,0,1,1.87-.73l2.08,5.35a1,1,0,0,1-.57,1.3A1.21,1.21,0,0,1,285.84,157.37Z" fill="#093f68"/><path d="M274.11,182.6s5.11,12.65,4.9,13.53-.76.44-1.54-.21a32.29,32.29,0,0,0-7.5-4.58c-3.23-1.26-8.45-1.52-9.65-1.85s-.95-1.13.26-1.81,11.69-5.76,11.69-5.76Z" fill="#ffbc0e"/><path d="M278.6,197.62a3.07,3.07,0,0,1-1.77-.93,31.66,31.66,0,0,0-7.22-4.42,34.47,34.47,0,0,0-7.31-1.47,20.13,20.13,0,0,1-2.24-.34c-1.2-.33-1.46-1.05-1.51-1.46-.07-.56.14-1.4,1.53-2.19,1.23-.7,11.33-5.58,11.76-5.79a1,1,0,0,1,.78,0l1.84.69a1,1,0,0,1,.58.56c5.22,12.94,5,13.77,4.94,14.13a1.48,1.48,0,0,1-1,1.19A1.23,1.23,0,0,1,278.6,197.62Zm-.58-1.53Zm-17-7.48,1.57.21a35.61,35.61,0,0,1,7.79,1.59,32.8,32.8,0,0,1,7.33,4.38c-.75-2.29-2.55-7-4.31-11.4l-1-.38c-3.72,1.79-10.36,5-11.26,5.54Z" fill="#093f68"/><ellipse cx="265.59" cy="234.08" rx="35.94" ry="9.76" fill="#68e1fd"/><path d="M265.59,244.85c-17.91,0-36.95-3.78-36.95-10.77s19-10.76,36.95-10.76,36.94,3.78,36.94,10.76S283.5,244.85,265.59,244.85Zm0-19.53c-20.6,0-34.95,4.62-34.95,8.76s14.35,8.77,34.95,8.77,34.94-4.62,34.94-8.77S286.18,225.32,265.59,225.32Z" fill="#093f68"/><path d="M255.3,233.26a9.09,9.09,0,0,0,3.72-7.69c-.2-4.84-1.24-7-2.56-10.26-.41-1-.81-2.27-.06-3a1.8,1.8,0,0,1,2-.24,4.2,4.2,0,0,1,1.57,1.45c.94,1.26,1.89,2.58,2.7,3.93l.83-2.68a5.29,5.29,0,0,1,1.18-2.35,1.84,1.84,0,0,1,2.39-.29,2.6,2.6,0,0,1,.7,1.46c.22,1,.15,3.13,1,3.79a1.14,1.14,0,0,0,1.16,0,3,3,0,0,0,.93-.77,9.91,9.91,0,0,1,3.47-2.73,4.79,4.79,0,0,1,3.94.11,1.21,1.21,0,0,1,.75,1.59c-.84,2.28-3.47,3.36-5,5.1-3.2,3.67-5.73,11.22-1.6,14.59" fill="#68e1fd"/><path d="M272.47,236.27a1,1,0,0,1-.63-.22,7.07,7.07,0,0,1-2.49-5c-.34-4.05,1.82-8.54,4-11a14.63,14.63,0,0,1,2.13-1.88,7.31,7.31,0,0,0,2.66-2.91.2.2,0,0,0,0-.12.85.85,0,0,0-.31-.24,3.78,3.78,0,0,0-3.1-.06,9.06,9.06,0,0,0-3.11,2.48,4.3,4.3,0,0,1-1.23,1,2.13,2.13,0,0,1-2.19-.15c-1-.74-1.14-2.25-1.27-3.46,0-.35-.07-.67-.12-.9a2,2,0,0,0-.38-.93c-.21-.18-.74-.06-1,.24a4.62,4.62,0,0,0-.92,1.93l-.83,2.68a1,1,0,0,1-1.81.22c-.8-1.32-1.74-2.63-2.65-3.85a3.45,3.45,0,0,0-1.19-1.13.83.83,0,0,0-.87,0c-.37.38.11,1.57.26,2l.34.83a24.75,24.75,0,0,1,2.3,9.77,10,10,0,0,1-4.18,8.56,1,1,0,0,1-1.38-.29,1,1,0,0,1,.29-1.38h0a8,8,0,0,0,3.27-6.81,23.11,23.11,0,0,0-2.15-9.1l-.34-.83c-.34-.83-1.12-2.79.16-4.11a2.79,2.79,0,0,1,3.14-.45,5.34,5.34,0,0,1,2,1.76c.52.7,1,1.43,1.57,2.18l.19-.63a6.25,6.25,0,0,1,1.44-2.76,2.81,2.81,0,0,1,3.75-.34,3.49,3.49,0,0,1,1,2,10.29,10.29,0,0,1,.17,1.14c.06.55.2,1.86.48,2.07,0,0,.05,0,.13-.06a2.63,2.63,0,0,0,.63-.55,10.81,10.81,0,0,1,3.83-3,5.79,5.79,0,0,1,4.78.16,2.19,2.19,0,0,1,1.22,2.81,9.07,9.07,0,0,1-3.32,3.8,13.65,13.65,0,0,0-1.85,1.62c-1.94,2.22-3.75,6.21-3.47,9.52a5,5,0,0,0,1.76,3.64,1,1,0,0,1-.64,1.77Z" fill="#093f68"/><path d="M248.19,215.74a1,1,0,0,1-.92-.61c-2.19-5.12-8.48-11.06-10.68-12.47a1,1,0,0,1,1.08-1.69c2.67,1.72,9.14,8,11.44,13.38a1,1,0,0,1-.53,1.31A1,1,0,0,1,248.19,215.74Z" fill="#dfeaef"/><path d="M286.25,218.28a1,1,0,0,1-.73-1.68c.2-.22,5-5.32,9.51-5.83a1,1,0,0,1,.22,2c-3.8.42-8.22,5.15-8.27,5.2A1,1,0,0,1,286.25,218.28Z" fill="#dfeaef"/><path d="M251.19,204.21h-.05a1,1,0,0,1-.95-1,12,12,0,0,0-2.43-7,1,1,0,0,1,1.6-1.21,13.92,13.92,0,0,1,2.83,8.32A1,1,0,0,1,251.19,204.21Z" fill="#dfeaef"/><path d="M127,225.26h-26.3a1,1,0,0,1-1-1V214.08a14.15,14.15,0,1,1,28.3,0v10.18A1,1,0,0,1,127,225.26Zm-25.3-2H126v-9.18a12.17,12.17,0,0,0-12.15-12.16h0a12.17,12.17,0,0,0-12.15,12.16Z" fill="#093f68"/><rect x="100.74" y="213.91" width="26.31" height="29.1" rx="2.81" fill="#70cc40"/><path d="M124.23,244H103.55a3.82,3.82,0,0,1-3.81-3.81V216.72a3.82,3.82,0,0,1,3.81-3.81h20.68a3.82,3.82,0,0,1,3.81,3.81V240.2A3.82,3.82,0,0,1,124.23,244Zm-20.68-29.1a1.81,1.81,0,0,0-1.81,1.81V240.2a1.82,1.82,0,0,0,1.81,1.81h20.68A1.82,1.82,0,0,0,126,240.2V216.72a1.81,1.81,0,0,0-1.81-1.81Z" fill="#093f68"/><rect x="98.47" y="219.28" width="30.81" height="5.38" rx="2.2" fill="#70cc40"/><path d="M127.08,225.65H100.67a3.2,3.2,0,0,1-3.2-3.2v-1a3.2,3.2,0,0,1,3.2-3.2h26.41a3.2,3.2,0,0,1,3.2,3.2v1A3.2,3.2,0,0,1,127.08,225.65Zm-26.41-5.37a1.2,1.2,0,0,0-1.2,1.2v1a1.2,1.2,0,0,0,1.2,1.2h26.41a1.2,1.2,0,0,0,1.2-1.2v-1a1.2,1.2,0,0,0-1.2-1.2Z" fill="#093f68"/></g></svg>