<svg xmlns="http://www.w3.org/2000/svg" viewBox="0 0 400 300"><g id="_378_fitness_outline" data-name="#378_fitness_outline"><path d="M230.38,170.09s20.21,33,21.75,32.75l6.28-1.13a1.47,1.47,0,0,1,1.1.1,1.35,1.35,0,0,1,.43.74c2.07,6.12,4,12.48,4.06,19,.08,5.34-1.09,12.21-5.49,15.78a11.55,11.55,0,0,1-9.07,2.14,17,17,0,0,1-10.84-6.77,81.42,81.42,0,0,1-4.83-8.73c-1.33-2.53-2.81-5-4.35-7.38-1.3-2-3.37-4.19-4-6.5-1.38-4.76-1.8-9.85-3.21-14.63-.92-3.09-2.4-4.31-1.4-7.48C223.3,180,230.38,170.09,230.38,170.09Z" fill="#ffc9b0"/><path d="M251.5,240.63a13.85,13.85,0,0,1-2.22-.18,18.1,18.1,0,0,1-11.5-7.19,52.94,52.94,0,0,1-3.73-6.57c-.38-.76-.76-1.52-1.16-2.27-1.19-2.25-2.56-4.57-4.31-7.3-.38-.58-.83-1.19-1.3-1.83a16.31,16.31,0,0,1-2.86-4.93c-.69-2.39-1.15-4.89-1.6-7.29a72.48,72.48,0,0,0-1.61-7.33,21.34,21.34,0,0,0-.83-2.22,7.38,7.38,0,0,1-.56-5.85c2.55-8,9.45-17.75,9.75-18.16a1,1,0,0,1,1.66.06c7.07,11.55,18.79,30.1,21.08,32.22l5.92-1.06a2,2,0,0,1,2.66,1.5c1.94,5.74,4,12.44,4.11,19.3.05,3.51-.42,12.16-5.87,16.56A12.13,12.13,0,0,1,251.5,240.63Zm-21.17-68.7c-2,2.9-6.67,10.28-8.6,16.35-.6,1.89-.19,2.86.49,4.46a21.61,21.61,0,0,1,.9,2.43,72.59,72.59,0,0,1,1.67,7.53,70.63,70.63,0,0,0,1.55,7.1,15.22,15.22,0,0,0,2.54,4.3c.48.64,1,1.3,1.38,1.94,1.79,2.78,3.19,5.15,4.4,7.45.4.76.79,1.53,1.18,2.3a50.35,50.35,0,0,0,3.58,6.32,16,16,0,0,0,10.18,6.37,10.61,10.61,0,0,0,8.28-1.94c4.76-3.85,5.17-11.76,5.12-15-.09-6.57-2.12-13.09-4-18.69,0-.05-.05-.15-.08-.22l-.33,0-6.28,1.12C251.48,204,250.12,204.2,230.33,171.93Zm22.15,30h0Z" fill="#093f68"/><path d="M243.63,227.92a1,1,0,0,1-1-.94c-.39-6.43,4.65-14.86,4.87-15.21a1,1,0,0,1,1.37-.34,1,1,0,0,1,.34,1.37c-.05.08-4.94,8.25-4.59,14.06a1,1,0,0,1-.93,1.06Z" fill="#093f68"/><path d="M171.42,64c-4-3.42-10.77-4.15-16.12-2.5A13,13,0,0,0,148,66.51c-1.51,2.35-1.89,5.23-2.7,7.91a24.54,24.54,0,0,1-13.85,15.27c2.93,4.35,8.36,6.63,13.59,6.49,6.6-.16,14.93-4.23,20.18-8,5-3.66,9-9.15,9.61-15.35A9.94,9.94,0,0,0,171.42,64Z" fill="#725858"/><path d="M144.61,97.19a16.81,16.81,0,0,1-14-6.93,1,1,0,0,1,.44-1.49,23.39,23.39,0,0,0,13.28-14.64c.22-.74.41-1.48.6-2.23A19.38,19.38,0,0,1,147.18,66,14,14,0,0,1,155,60.5c6-1.85,13-.75,17.06,2.69h0a10.93,10.93,0,0,1,3.77,9.7c-.53,6-4.18,11.83-10,16.07-5.48,4-14,8.05-20.73,8.22ZM133,90.1a15.35,15.35,0,0,0,12,5.08c6.29-.15,14.38-4.05,19.61-7.84s8.72-9.22,9.2-14.62a8.88,8.88,0,0,0-3.08-8h0c-3.54-3-9.79-4-15.17-2.3A12.16,12.16,0,0,0,148.86,67a18.13,18.13,0,0,0-2,5.35c-.19.78-.39,1.56-.63,2.32A25.48,25.48,0,0,1,133,90.1Z" fill="#093f68"/><path d="M230.89,64c4-3.42,10.78-4.15,16.12-2.5a13,13,0,0,1,7.28,5.06c1.51,2.35,1.89,5.23,2.71,7.91a24.51,24.51,0,0,0,13.85,15.27c-2.94,4.35-8.36,6.63-13.6,6.49-6.59-.16-14.92-4.23-20.17-8C232,84.49,228,79,227.47,72.8A9.93,9.93,0,0,1,230.89,64Z" fill="#725858"/><path d="M257.7,97.19h-.47C250.51,97,242,92.93,236.49,89c-5.83-4.23-9.49-10.09-10-16.07a10.93,10.93,0,0,1,3.77-9.7h0c4-3.44,11.06-4.54,17.06-2.69A14,14,0,0,1,255.14,66a19.62,19.62,0,0,1,2.21,5.93c.19.74.38,1.49.6,2.23a23.42,23.42,0,0,0,13.28,14.64,1,1,0,0,1,.58.64,1,1,0,0,1-.13.84A16.81,16.81,0,0,1,257.7,97.19ZM231.54,64.71a8.92,8.92,0,0,0-3.08,8c.49,5.4,3.84,10.73,9.21,14.62S251,95,257.28,95.18a15.3,15.3,0,0,0,12-5.08A25.48,25.48,0,0,1,256,74.71c-.23-.76-.43-1.54-.63-2.32a17.86,17.86,0,0,0-2-5.35,12.13,12.13,0,0,0-6.74-4.63c-5.38-1.66-11.62-.71-15.17,2.3Z" fill="#093f68"/><polygon points="169.52 169.32 137.26 210.86 152.74 231.5 180 195.56 169.52 169.32" fill="#ffc9b0"/><path d="M152.74,232.5h0a1,1,0,0,1-.8-.4l-15.48-20.64a1,1,0,0,1,0-1.22l32.26-41.53a1,1,0,0,1,1.71.24l10.49,26.24a1,1,0,0,1-.14,1l-27.25,36A1,1,0,0,1,152.74,232.5Zm-14.23-21.63,14.24,19,26.11-34.44-9.63-24.08Z" fill="#093f68"/><path d="M180.77,64.6a41.37,41.37,0,0,0-7.31,3.21c-7.13,4-12.57,9.9-13.7,18-1.41,10.23-1.17,20-1,30.34.07,4.81.54,6.77,4.58,9.83,3.43,2.6,7.61,4.15,11.68,5.4a117.71,117.71,0,0,0,33.28,5.13c6.11.05,12.32-.39,18.06-2.49,5.93-2.17,13.16-7.16,14.55-13.67.92-4.3.1-9.76.26-14.2.18-4.91.42-9.81.42-14.73,0-28.78-35.72-33.57-57.26-27.9C183.13,63.86,181.94,64.21,180.77,64.6Z" fill="#725858"/><path d="M209.33,137.53h-1.05a118.16,118.16,0,0,1-33.56-5.18c-3.87-1.18-8.32-2.77-12-5.55-4.44-3.36-4.91-5.7-5-10.62l0-1.69c-.15-9.8-.29-19,1.05-28.8,1.07-7.7,5.84-14,14.19-18.75a41.87,41.87,0,0,1,7.49-3.29c1.15-.38,2.36-.74,3.62-1.07,14.09-3.72,35.08-3.22,47.89,6.65,7,5.43,10.62,12.9,10.62,22.21,0,4-.16,8-.31,11.83l-.11,2.94c-.06,1.55,0,3.21.08,5a39.32,39.32,0,0,1-.36,9.39c-1.52,7.08-9.13,12.18-15.18,14.4S214.37,137.53,209.33,137.53Zm-8.2-75.17a65.1,65.1,0,0,0-16.55,2.15c-1.22.32-2.39.67-3.49,1h0A39.39,39.39,0,0,0,174,68.68c-7.78,4.42-12.22,10.23-13.2,17.28-1.32,9.6-1.18,18.78-1,28.5l0,1.69c.06,4.5.4,6.19,4.19,9.06,3.42,2.59,7.66,4.1,11.36,5.23a116.05,116.05,0,0,0,33,5.09c5,0,11.59-.19,17.71-2.43s12.66-7.06,13.91-12.94a37.5,37.5,0,0,0,.32-8.89c-.07-1.81-.14-3.51-.08-5.13l.11-3c.15-3.85.31-7.84.31-11.75,0-8.65-3.32-15.59-9.84-20.63C224.66,66.13,213.83,62.36,201.13,62.36ZM180.77,64.6h0Z" fill="#093f68"/><path d="M236.29,193.27A30,30,0,0,1,232,208.45v31.18H169.25V208.44A30,30,0,0,1,165,193.27a24.2,24.2,0,0,1,4.25-14V171.4a8,8,0,0,1,8-8H224a8,8,0,0,1,8,8v7.81A24.21,24.21,0,0,1,236.29,193.27Z" fill="#68e1fd"/><path d="M232,240.63H169.25a1,1,0,0,1-1-1V208.71A30.73,30.73,0,0,1,164,193.27a25.14,25.14,0,0,1,4.25-14.35V171.4a9,9,0,0,1,9-9H224a9,9,0,0,1,9,9v7.5a25.21,25.21,0,0,1,4.26,14.37A30.9,30.9,0,0,1,233,208.72v30.91A1,1,0,0,1,232,240.63Zm-61.78-2H231V208.45a1,1,0,0,1,.14-.51,28.89,28.89,0,0,0,4.12-14.67,23.1,23.1,0,0,0-4.08-13.48,1,1,0,0,1-.18-.58V171.4a7,7,0,0,0-7-7H177.27a7,7,0,0,0-7,7v7.83a1,1,0,0,1-.19.58A23.11,23.11,0,0,0,166,193.27a28.82,28.82,0,0,0,4.11,14.66,1,1,0,0,1,.14.51Z" fill="#093f68"/><path d="M185.75,163.5h29.78a0,0,0,0,1,0,0v14.89a14.89,14.89,0,0,1-14.89,14.89h0a14.89,14.89,0,0,1-14.89-14.89V163.5A0,0,0,0,1,185.75,163.5Z" fill="#ffc9b0"/><path d="M200.64,194.28a15.9,15.9,0,0,1-15.89-15.89V163.5a1,1,0,0,1,1-1h29.78a1,1,0,0,1,1,1v14.89A15.9,15.9,0,0,1,200.64,194.28ZM186.75,164.5v13.89a13.89,13.89,0,0,0,27.78,0V164.5Z" fill="#093f68"/><polyline points="194.18 166.32 194.18 159.23 206.5 159.23 206.5 166.32" fill="#ffc9b0"/><path d="M206.5,167.32a1,1,0,0,1-1-1v-6.09H195.18v6.09a1,1,0,0,1-2,0v-7.09a1,1,0,0,1,1-1H206.5a1,1,0,0,1,1,1v7.09A1,1,0,0,1,206.5,167.32Z" fill="#093f68"/><ellipse cx="165.15" cy="127.24" rx="11.96" ry="10.31" fill="#ffc9b0"/><path d="M165.15,138.55c-7.15,0-13-5.07-13-11.31s5.82-11.31,13-11.31,13,5.08,13,11.31S172.29,138.55,165.15,138.55Zm0-20.62c-6.05,0-11,4.18-11,9.31s4.92,9.31,11,9.31,11-4.17,11-9.31S171.19,117.93,165.15,117.93Z" fill="#093f68"/><ellipse cx="234.89" cy="127.24" rx="11.96" ry="10.31" fill="#ffc9b0"/><path d="M234.89,138.55c-7.14,0-13-5.07-13-11.31s5.82-11.31,13-11.31,13,5.08,13,11.31S242,138.55,234.89,138.55Zm0-20.62c-6,0-11,4.18-11,9.31s4.92,9.31,11,9.31,11-4.17,11-9.31S240.94,117.93,234.89,117.93Z" fill="#093f68"/><path d="M187.89,78.4c-.92,15.91-22,24.32-23.64,23v23.32a36.09,36.09,0,1,0,72.17,0V96.71C201,97.26,187.89,78.4,187.89,78.4Z" fill="#ffc9b0"/><path d="M200.34,161.84a37.13,37.13,0,0,1-37.09-37.08V101.44a1,1,0,0,1,1.49-.87c1,.14,6.56-1.59,12.16-5.86,4.32-3.28,9.55-8.79,10-16.37a1,1,0,0,1,.72-.9,1,1,0,0,1,1.1.39c.12.18,12.89,17.89,46.2,17.89h1.5a1.07,1.07,0,0,1,.71.28,1,1,0,0,1,.3.72v28.05A37.12,37.12,0,0,1,200.34,161.84Zm-35.09-59.3v22.22a35.09,35.09,0,0,0,70.17,0v-27h-.55c-28.22,0-42-12.1-46.27-16.87-2.22,12.29-15.44,18.82-18.22,20.06A17.84,17.84,0,0,1,165.25,102.54Zm-.37-1.89h0Zm-.18-.09Z" fill="#093f68"/><circle cx="183.63" cy="119.51" r="3.34" fill="#093f68"/><path d="M200.17,131.74a20,20,0,0,1-3.25-.27,1,1,0,0,1-.81-1.15,1,1,0,0,1,1.16-.82,15.47,15.47,0,0,0,5,.05c.24-.92-1-4.54-2.81-8a1,1,0,0,1,.43-1.35,1,1,0,0,1,1.34.42c.92,1.75,3.81,7.61,2.83,9.79a1.74,1.74,0,0,1-1.18,1A11.57,11.57,0,0,1,200.17,131.74Z" fill="#093f68"/><path d="M194.54,113.32a1.42,1.42,0,0,1-.29,0l-19.31-3.47a1.58,1.58,0,0,1,.56-3.12l19.32,3.46a1.59,1.59,0,0,1-.28,3.15Z" fill="#093f68"/><circle cx="220" cy="119.51" r="3.34" fill="#093f68"/><path d="M209.1,113.32a1.59,1.59,0,0,1-.28-3.15l19.32-3.46a1.58,1.58,0,1,1,.56,3.12l-19.32,3.47A1.32,1.32,0,0,1,209.1,113.32Z" fill="#093f68"/><rect x="98.32" y="167.63" width="63.07" height="6.23" rx="3.07" transform="matrix(0.97, -0.26, 0.26, 0.97, -39.4, 38.95)" fill="#f56132"/><path d="M102.35,182.15a4.12,4.12,0,0,1-1.07-8.09l55-14.58a4.08,4.08,0,0,1,5,2.89,4.1,4.1,0,0,1-2.87,5.07l-55,14.58A4.17,4.17,0,0,1,102.35,182.15Zm55-20.81a2.33,2.33,0,0,0-.53.07l-55,14.58a2.14,2.14,0,0,0-1.26,1,2.14,2.14,0,0,0,2.35,3.13l55-14.58h0a2.06,2.06,0,0,0,1.26-1,2.1,2.1,0,0,0,.21-1.57,2.15,2.15,0,0,0-1-1.35A2.1,2.1,0,0,0,157.36,161.34Z" fill="#093f68"/><rect x="102.68" y="160.6" width="14.83" height="31.75" rx="4.15" transform="translate(-41.52 34.08) rotate(-14.84)" fill="#f56132"/><path d="M109.94,193.8a5.17,5.17,0,0,1-5-3.83l-6-22.68a5.13,5.13,0,0,1,3.66-6.29l6.31-1.67a5.14,5.14,0,0,1,6.29,3.66l6,22.67a5.16,5.16,0,0,1-3.66,6.29h0l-6.31,1.68A5.43,5.43,0,0,1,109.94,193.8Zm.3-32.64a3.19,3.19,0,0,0-.8.1l-6.31,1.67a3.15,3.15,0,0,0-2.24,3.85l6,22.68a3.15,3.15,0,0,0,3.85,2.23l6.31-1.67a3.13,3.13,0,0,0,1.92-1.46,3.17,3.17,0,0,0,.32-2.39l-6-22.67A3.15,3.15,0,0,0,110.24,161.16ZM117.32,191h0Z" fill="#093f68"/><rect x="141.01" y="150.45" width="14.83" height="31.75" rx="4.15" transform="translate(-37.64 43.56) rotate(-14.84)" fill="#f56132"/><path d="M148.27,183.64a5.12,5.12,0,0,1-5-3.83l-6-22.67a5.16,5.16,0,0,1,3.66-6.3l6.31-1.67a5.16,5.16,0,0,1,6.3,3.66l6,22.67a5.14,5.14,0,0,1-3.65,6.3l-6.32,1.67A5,5,0,0,1,148.27,183.64Zm.32-32.64a3.3,3.3,0,0,0-.82.11l-6.31,1.67a3.14,3.14,0,0,0-2.23,3.85l6,22.67a3.21,3.21,0,0,0,1.46,1.92,3.17,3.17,0,0,0,2.39.32l6.31-1.68h0a3.14,3.14,0,0,0,2.24-3.84l-6-22.68a3.09,3.09,0,0,0-1.46-1.91A3,3,0,0,0,148.59,151Z" fill="#093f68"/><path d="M157.84,217.16l-6.48-13.46-10.51-21.86c-2-8.92-1.81-20.16-5.21-22.89-1.49-1.21-10.45-1.6-12.48,2.22s-3.78,11.76-3.33,14.16c.37,1.9,5.34,8.82,6.84,11.5l8.42,37.6a11.94,11.94,0,1,0,22.75-7.27Z" fill="#ffc9b0"/><path d="M146.47,233.74a13,13,0,0,1-12.34-9l-8.4-37.55c-.52-.91-1.42-2.29-2.37-3.75-2.56-3.92-4.25-6.59-4.51-7.92-.53-2.77,1.36-10.94,3.43-14.82.84-1.59,2.67-2.71,5.31-3.25,3.25-.66,7.39-.32,8.68.72,2.53,2,3.23,7.54,4,13.91.4,3.16.82,6.42,1.48,9.43l16.94,35.22a.69.69,0,0,1,0,.13,12.93,12.93,0,0,1-12.32,16.88Zm-15.34-74.63a15.86,15.86,0,0,0-3.14.3c-2,.41-3.4,1.2-3.95,2.23-1.94,3.64-3.63,11.39-3.22,13.5.2,1.05,2.61,4.75,4.21,7.21,1,1.56,2,3,2.52,4a1.08,1.08,0,0,1,.1.27l8.41,37.6a10.95,10.95,0,0,0,20.85-6.68l-17-35.26a.9.9,0,0,1-.08-.21c-.7-3.13-1.12-6.49-1.54-9.73-.69-5.44-1.41-11.07-3.31-12.6A9,9,0,0,0,131.13,159.11Z" fill="#093f68"/><path d="M204.47,147a18.26,18.26,0,0,1-9.24-2.33c-7.23-4.12-9.15-12.17-9.23-12.51a1,1,0,0,1,1.95-.45c0,.08,1.82,7.56,8.29,11.24,4.42,2.51,10,2.72,16.63.61a1,1,0,0,1,1.26.65,1,1,0,0,1-.65,1.26A29.92,29.92,0,0,1,204.47,147Z" fill="#093f68"/><rect x="220.07" y="192.24" width="63.07" height="6.23" rx="3.07" transform="translate(554.41 294.23) rotate(160.26)" fill="#f56132"/><path d="M224.82,209.08a4.07,4.07,0,0,1-3.82-2.69,4.09,4.09,0,0,1,2.42-5.29L277,181.87a4.08,4.08,0,0,1,5.21,2.45,4.12,4.12,0,0,1-.12,3.2,4.06,4.06,0,0,1-2.31,2.09L226.2,208.84h0A4.09,4.09,0,0,1,224.82,209.08Zm1-1.18h0Zm52.52-24.28a2.11,2.11,0,0,0-.7.13L224.09,203a2.07,2.07,0,0,0-1.24,2.65,2.1,2.1,0,0,0,1.09,1.25,2,2,0,0,0,1.58.08l53.59-19.23a2.08,2.08,0,0,0,1.25-2.65,2.16,2.16,0,0,0-1.1-1.26A2.09,2.09,0,0,0,278.38,183.62Z" fill="#093f68"/><rect x="263.71" y="172.98" width="14.83" height="31.75" rx="4.15" transform="translate(590.1 275.02) rotate(160.26)" fill="#f56132"/><path d="M272,206.15a5.16,5.16,0,0,1-4.85-3.41l-7.92-22.08a5.15,5.15,0,0,1,3.11-6.58l6.14-2.21a5.15,5.15,0,0,1,6.59,3.11L283,197.05a5.15,5.15,0,0,1-3.11,6.59l-6.14,2.2h0A5.07,5.07,0,0,1,272,206.15Zm1.4-1.25h0Zm-3.18-31.33a3.19,3.19,0,0,0-1.06.18L263,176a3.12,3.12,0,0,0-1.78,1.62,3.15,3.15,0,0,0-.12,2.41l7.93,22.07a3.14,3.14,0,0,0,4,1.9l6.15-2.2a3.17,3.17,0,0,0,1.9-4l-7.93-22.08a3.15,3.15,0,0,0-3-2.08Z" fill="#093f68"/><rect x="226.38" y="186.38" width="14.83" height="31.75" rx="4.15" transform="translate(522.17 313.64) rotate(160.26)" fill="#f56132"/><path d="M234.68,219.55a5.18,5.18,0,0,1-4.84-3.42l-7.93-22.07a5.15,5.15,0,0,1,3.11-6.59l6.15-2.2a5.15,5.15,0,0,1,6.58,3.1l7.92,22.08a5.16,5.16,0,0,1-3.1,6.59l-6.15,2.2A5,5,0,0,1,234.68,219.55ZM232.91,187a3.31,3.31,0,0,0-1.07.19l-6.14,2.21a3.13,3.13,0,0,0-1.9,4l7.92,22.08a3.16,3.16,0,0,0,4,1.9h0l6.14-2.21a3.14,3.14,0,0,0,1.9-4l-7.92-22.08a3.12,3.12,0,0,0-1.62-1.78A3.17,3.17,0,0,0,232.91,187Z" fill="#093f68"/><rect x="245.01" y="197.15" width="5.64" height="18.43" rx="2.82" transform="translate(-55.14 95.85) rotate(-19.74)" fill="#ffc9b0"/><path d="M250,216.2a3.81,3.81,0,0,1-3.59-2.53l-4.32-12a3.84,3.84,0,0,1,.14-2.92,3.79,3.79,0,0,1,2.17-2,3.81,3.81,0,0,1,4.88,2.31l4.32,12a3.75,3.75,0,0,1-.14,2.92,3.81,3.81,0,0,1-2.16,2A3.86,3.86,0,0,1,250,216.2Zm-4.31-17.68a1.88,1.88,0,0,0-.62.11,1.83,1.83,0,0,0-1,.94A1.81,1.81,0,0,0,244,201l4.32,12a1.86,1.86,0,0,0,.94,1,1.83,1.83,0,0,0,2.42-.87,1.81,1.81,0,0,0,.07-1.39l-4.32-12a1.8,1.8,0,0,0-.94-1A1.74,1.74,0,0,0,245.67,198.52Z" fill="#093f68"/><rect x="250.16" y="194.95" width="5.64" height="18.43" rx="2.82" transform="translate(-54.1 97.46) rotate(-19.74)" fill="#ffc9b0"/><path d="M255.13,214a3.9,3.9,0,0,1-1.63-.36,3.8,3.8,0,0,1-2-2.17l-4.32-12a3.82,3.82,0,1,1,7.19-2.58l4.32,12a3.83,3.83,0,0,1-2.3,4.89A3.9,3.9,0,0,1,255.13,214Zm-4.31-17.67a1.87,1.87,0,0,0-.62.1,1.83,1.83,0,0,0-1.1,2.33l4.32,12a1.86,1.86,0,0,0,.94,1,1.83,1.83,0,0,0,2.49-2.26l-4.32-12a1.8,1.8,0,0,0-.94-1A1.73,1.73,0,0,0,250.82,196.33Z" fill="#093f68"/><rect x="255.3" y="192.75" width="5.64" height="18.43" rx="2.82" transform="translate(-53.05 99.07) rotate(-19.74)" fill="#ffc9b0"/><path d="M260.29,211.8a3.82,3.82,0,0,1-3.6-2.53l-4.32-12a3.83,3.83,0,0,1,2.3-4.89,3.84,3.84,0,0,1,2.92.14,3.79,3.79,0,0,1,2,2.17l4.32,12a3.82,3.82,0,0,1-2.31,4.89h0A3.83,3.83,0,0,1,260.29,211.8Zm.95-1.16h0ZM256,194.12a1.87,1.87,0,0,0-.61.11,1.83,1.83,0,0,0-1,.94,1.81,1.81,0,0,0-.07,1.39l4.32,12a1.82,1.82,0,0,0,2.33,1.09h0a1.78,1.78,0,0,0,1-.93,1.81,1.81,0,0,0,.07-1.39l-4.32-12a1.83,1.83,0,0,0-.94-1A1.78,1.78,0,0,0,256,194.12Z" fill="#093f68"/><rect x="260.45" y="190.55" width="5.64" height="18.43" rx="2.82" transform="translate(-52.01 100.68) rotate(-19.74)" fill="#ffc9b0"/><path d="M265.43,209.6a3.87,3.87,0,0,1-1.63-.36,3.8,3.8,0,0,1-2-2.17l-4.32-12a3.83,3.83,0,0,1,2.3-4.89,3.82,3.82,0,0,1,4.89,2.31l4.32,12a3.81,3.81,0,0,1-3.6,5.11Zm-4.32-17.67a1.86,1.86,0,0,0-.61.1,1.83,1.83,0,0,0-1.1,2.33l4.32,12a1.82,1.82,0,0,0,3.43-1.23l-4.32-12a1.83,1.83,0,0,0-.94-1A1.77,1.77,0,0,0,261.11,191.93Z" fill="#093f68"/><rect x="240.8" y="190.12" width="14.5" height="5.28" rx="2.64" transform="translate(-55.54 112.01) rotate(-22.96)" fill="#ffc9b0"/><path d="M243.8,198.2a3.58,3.58,0,0,1-1.36-.27,3.63,3.63,0,0,1-.06-6.72l8.49-3.6a3.64,3.64,0,1,1,2.84,6.7h0l-8.49,3.6A3.68,3.68,0,0,1,243.8,198.2Zm8.49-8.88a1.63,1.63,0,0,0-.64.13l-8.49,3.6a1.64,1.64,0,0,0,1.28,3l8.49-3.6a1.6,1.6,0,0,0,.88-.89,1.62,1.62,0,0,0,0-1.26A1.64,1.64,0,0,0,252.29,189.32Zm1,4.07h0Z" fill="#093f68"/></g></svg>