<svg xmlns="http://www.w3.org/2000/svg" viewBox="0 0 400 300"><g id="_579_football_team_outline" data-name="#579_football_team_outline"><path d="M235.37,195.63v23h-65v-23a33,33,0,0,1,12.44-26.2,27.86,27.86,0,0,1,17.12-5.94h5.92a27.87,27.87,0,0,1,17.13,5.94A33,33,0,0,1,235.37,195.63Z" fill="#68e1fd"/><path d="M235.37,219.58h-65a1,1,0,0,1-1-1v-23a34.16,34.16,0,0,1,12.83-27,28.79,28.79,0,0,1,17.73-6.15h5.92a28.82,28.82,0,0,1,17.74,6.15,34.15,34.15,0,0,1,12.82,27v23A1,1,0,0,1,235.37,219.58Zm-64-2h63v-22a32.17,32.17,0,0,0-12-25.41,26.82,26.82,0,0,0-16.52-5.73h-5.92a26.81,26.81,0,0,0-16.51,5.73,32.16,32.16,0,0,0-12,25.41Z" fill="#093f68"/><path d="M194.71,164v54.59h-5.5V165.66A26.69,26.69,0,0,1,194.71,164Z" fill="#093f68"/><rect x="200.1" y="163.49" width="5.51" height="55.09" fill="#093f68"/><path d="M216.5,165.66v52.92H211V164A26.69,26.69,0,0,1,216.5,165.66Z" fill="#093f68"/><path d="M206.94,164.11v-7.8h-8.88v7.8A3.89,3.89,0,0,0,202,168h1.1A3.89,3.89,0,0,0,206.94,164.11Z" fill="#ffc9b0"/><path d="M203.05,169H202a4.9,4.9,0,0,1-4.89-4.89v-7.8a1,1,0,0,1,1-1h8.88a1,1,0,0,1,1,1v7.8A4.9,4.9,0,0,1,203.05,169Zm-4-11.69v6.8A2.9,2.9,0,0,0,202,167h1.1a2.9,2.9,0,0,0,2.89-2.89v-6.8Z" fill="#093f68"/><path d="M200.24,91.91a8.06,8.06,0,0,1,3.89,4.16,6.66,6.66,0,0,1,5.66-2.78,7.77,7.77,0,0,1,3.69,1.07c1.06.66,1.65,2,2.71,2.58s2.06.17,3.29.14a16.7,16.7,0,0,1,5.14.83,8.41,8.41,0,0,1,4.39,2.45c1.19,1.54,1.12,3.51.87,5.33,5.69-2,7.34,6.76,4.53,10.07a8.76,8.76,0,0,1-1.69,12.81c1.58,1.25,1,3.73.33,5.63-1.32,3.57-1.57,6.81-5.62,7.13-2.14.17-4.36,0-6.5,0H172.4c.86,0-2.34-5-2.43-5.16a9.16,9.16,0,0,1-.11-7.17c-3.79-2.82-3.74-9.41.08-12.17A9.79,9.79,0,0,1,175,104c-.46-3.2,2-6.26,5-7.49,3.19-1.32,6.37-.75,9.67-.64.8-3,4.52-4.86,7.45-4.74A7.68,7.68,0,0,1,200.24,91.91Z" fill="#725858"/><path d="M225.27,142.4c-.74,0-1.48,0-2.21,0l-2.13,0H172.4a1,1,0,0,1-1-1,.92.92,0,0,1,.07-.38,26.43,26.43,0,0,0-2.08-3.79c-.21-.33-.33-.55-.35-.59a10.36,10.36,0,0,1-.38-7.26,9,9,0,0,1,.06-12.78,10.87,10.87,0,0,1,5.21-13.21c-.1-3.54,2.66-6.56,5.65-7.79,2.77-1.14,5.52-1,8.16-.81l1.19.07c1.3-3.09,5.12-4.84,8.19-4.71a8.84,8.84,0,0,1,3.56.93h0a9.29,9.29,0,0,1,3.65,3.29,7.88,7.88,0,0,1,5.47-2A8.68,8.68,0,0,1,214,93.51,6.71,6.71,0,0,1,215.56,95a4.55,4.55,0,0,0,1.1,1.07,2.49,2.49,0,0,0,1.66.12c.36,0,.73-.09,1.14-.1a17.53,17.53,0,0,1,5.44.88,9.17,9.17,0,0,1,4.9,2.79,6.72,6.72,0,0,1,1.21,4.67,4.65,4.65,0,0,1,4.37,2.15,9.19,9.19,0,0,1,.29,9.14,9.86,9.86,0,0,1-1.49,13c.81,1.34.74,3.29-.19,5.81-.22.59-.41,1.17-.59,1.73-.91,2.82-1.86,5.74-5.89,6.06C226.77,142.38,226,142.4,225.27,142.4Zm-51.89-2.07h47.55c.72,0,1.45,0,2.18,0,1.41,0,2.87.07,4.24,0,2.59-.2,3.17-1.66,4.15-4.67.19-.59.38-1.19.61-1.81.59-1.59,1.06-3.65,0-4.5a1,1,0,0,1-.38-.84,1,1,0,0,1,.47-.79,7.74,7.74,0,0,0,1.49-11.27,1,1,0,0,1,0-1.33c1.44-1.7,1.48-5.38.08-7.42a2.77,2.77,0,0,0-3.52-1.07,1,1,0,0,1-1.32-1.08c.22-1.64.3-3.32-.67-4.57a7.64,7.64,0,0,0-3.89-2.11,15.38,15.38,0,0,0-4.83-.79,8.44,8.44,0,0,0-.92.09,4.32,4.32,0,0,1-2.86-.35A6,6,0,0,1,214,96.28,4.94,4.94,0,0,0,213,95.21a6.74,6.74,0,0,0-3.19-.92,5.67,5.67,0,0,0-4.8,2.33,1,1,0,0,1-.93.44,1,1,0,0,1-.83-.62,7.12,7.12,0,0,0-3.4-3.64,7,7,0,0,0-2.75-.72c-2.49-.11-5.78,1.51-6.44,4a1,1,0,0,1-1,.74h0c-.66,0-1.32-.06-2-.1-2.53-.16-4.93-.3-7.28.66s-4.78,3.59-4.37,6.43a1,1,0,0,1-.63,1.07,8.79,8.79,0,0,0-4.51,11.51,1,1,0,0,1-.31,1.25,6.92,6.92,0,0,0-.07,10.56,1,1,0,0,1,.32,1.19,8.22,8.22,0,0,0,.1,6.38,3.55,3.55,0,0,1,.22.35A26.64,26.64,0,0,1,173.38,140.33Zm-1,0Z" fill="#093f68"/><ellipse cx="178.96" cy="138.87" rx="7.9" ry="7.23" fill="#ffc9b0"/><path d="M179,147.1c-4.9,0-8.89-3.69-8.89-8.23s4-8.22,8.89-8.22,8.9,3.69,8.9,8.22S183.87,147.1,179,147.1Zm0-14.45c-3.8,0-6.89,2.79-6.89,6.22s3.09,6.23,6.89,6.23,6.9-2.79,6.9-6.23S182.77,132.65,179,132.65Z" fill="#093f68"/><ellipse cx="225" cy="138.87" rx="7.9" ry="7.23" fill="#ffc9b0"/><path d="M225,147.1c-4.9,0-8.89-3.69-8.89-8.23s4-8.22,8.89-8.22,8.9,3.69,8.9,8.22S229.91,147.1,225,147.1Zm0-14.45c-3.8,0-6.89,2.79-6.89,6.22s3.09,6.23,6.89,6.23,6.9-2.79,6.9-6.23S228.81,132.65,225,132.65Z" fill="#093f68"/><path d="M202.21,162.43a25.49,25.49,0,0,1-19.64-9.35,25.19,25.19,0,0,1-5-10.23c-1.08-4.68-.63-8.81-.18-13.59a6.51,6.51,0,0,1,.6-2.59c-.27.49,5.29-.72,5.85-1a7.61,7.61,0,0,0,3.88-6c1.53,1.49,4.1,1.42,6,.36a12.36,12.36,0,0,0,4.2-4.74,7.16,7.16,0,0,0,5.32,4.87,7.41,7.41,0,0,0,6.76-2.33c-.1,2.8,1.92,4.79,4.78,5a6.15,6.15,0,0,0,5.55-2.65,6.12,6.12,0,0,0,7.54,5.64,54.77,54.77,0,0,1,.31,6.12c-.14,1.72-.63,3.42-.63,5.18A25.3,25.3,0,0,1,202.21,162.43Z" fill="#ffc9b0"/><path d="M202.21,163.43a26.29,26.29,0,0,1-25.62-20.35c-1.08-4.64-.7-8.65-.26-13.3l0-.61a7.56,7.56,0,0,1,.72-3,1,1,0,0,1,1.34-.41,30.07,30.07,0,0,0,4.93-1,6.6,6.6,0,0,0,3.34-5.17,1,1,0,0,1,.64-.87,1,1,0,0,1,1.06.21c1.23,1.2,3.37,1,4.76.21a11.44,11.44,0,0,0,3.83-4.37,1,1,0,0,1,1.83.22,6.14,6.14,0,0,0,4.56,4.17,6.42,6.42,0,0,0,5.85-2,1,1,0,0,1,1.11-.21,1,1,0,0,1,.6,1,3.87,3.87,0,0,0,3.87,4,5.14,5.14,0,0,0,4.63-2.2,1,1,0,0,1,1.83.5,5.13,5.13,0,0,0,6.31,4.72,1,1,0,0,1,.83.18,1,1,0,0,1,.4.76c0,.72.1,1.44.16,2.17a22.88,22.88,0,0,1,.15,4.06c-.06.75-.19,1.5-.31,2.21a18.38,18.38,0,0,0-.32,2.89A26.32,26.32,0,0,1,202.21,163.43Zm-23.6-35.66a10,10,0,0,0-.24,1.59l-.05.61c-.42,4.47-.78,8.34.22,12.66a24.2,24.2,0,0,0,4.81,9.82,24.29,24.29,0,0,0,43.15-15.32,19.59,19.59,0,0,1,.35-3.21c.12-.71.23-1.38.28-2a21.33,21.33,0,0,0-.14-3.71c0-.39-.07-.79-.1-1.18a7.11,7.11,0,0,1-7.19-4.69,7.24,7.24,0,0,1-5,1.55,6,6,0,0,1-5.45-4.11A8,8,0,0,1,203,121.1a8.25,8.25,0,0,1-5.26-3.74,11.06,11.06,0,0,1-3.57,3.5,6.61,6.61,0,0,1-5.73.44,8.83,8.83,0,0,1-4.09,5.18,19.45,19.45,0,0,1-3.32.9A21.23,21.23,0,0,1,178.61,127.77Z" fill="#093f68"/><path d="M202.09,148.33a13.24,13.24,0,0,1-2.33-.2,1,1,0,0,1,.34-2,10.83,10.83,0,0,0,3.17.08,17.74,17.74,0,0,0-2-5.19,1,1,0,0,1,1.77-.92c1,2,2.69,5.58,2,7.12a1.51,1.51,0,0,1-1,.87A8.15,8.15,0,0,1,202.09,148.33Z" fill="#093f68"/><circle cx="190.72" cy="137.94" r="2.02" fill="#093f68"/><circle cx="213.53" cy="137.94" r="2.02" fill="#093f68"/><path d="M196.56,131.9h-.11l-9.63-.52a2,2,0,0,1,.22-4l9.63.53a2,2,0,0,1-.11,4Z" fill="#093f68"/><path d="M208.5,131.9a2,2,0,0,1-.11-4l9.63-.53a2,2,0,0,1,.22,4l-9.63.52Z" fill="#093f68"/><path d="M202,155.3a12.61,12.61,0,0,1-4.81-.92,10.6,10.6,0,0,1-4.28-3.11,1,1,0,0,1,1.61-1.19c.2.27,4.75,6.07,14.52,1.45a1,1,0,0,1,.86,1.81A18.54,18.54,0,0,1,202,155.3Z" fill="#093f68"/><path d="M181.68,219.58a1,1,0,0,1-1-1V191a1,1,0,0,1,2,0v27.55A1,1,0,0,1,181.68,219.58Z" fill="#093f68"/><path d="M223.06,219.58a1,1,0,0,1-1-1V187.65a1,1,0,0,1,2,0v30.93A1,1,0,0,1,223.06,219.58Z" fill="#093f68"/><path d="M200.08,202.78a17.93,17.93,0,0,1-.1,1.95,19.44,19.44,0,0,1-3.79,9.77,19.54,19.54,0,0,1-22.44,6.61,19.61,19.61,0,0,1-12.66-16.38h0q-.09-1-.09-1.95A19.54,19.54,0,0,1,188.69,185h0a19.57,19.57,0,0,1,11.38,17.76Z" fill="#fff"/><path d="M180.54,223.33a20.57,20.57,0,0,1-20.44-18.5.34.34,0,0,1,0-.1,19.37,19.37,0,0,1-.09-1.95,20.54,20.54,0,0,1,29-18.7l.07,0a20.59,20.59,0,0,1,12,18.67c0,.69,0,1.38-.1,2a20.5,20.5,0,0,1-20.44,18.51Zm0-39.09a18.2,18.2,0,0,0-7.8,1.73A18.55,18.55,0,0,0,162,202.78c0,.63,0,1.25.09,1.85v.1a18.62,18.62,0,0,0,12,15.44A18.53,18.53,0,0,0,199,204.63c.06-.6.09-1.22.09-1.85A18.58,18.58,0,0,0,188.34,186l-.07,0A18.27,18.27,0,0,0,180.54,184.24Z" fill="#093f68"/><polygon points="180.48 195.14 171.96 201.34 175.21 211.35 185.75 211.35 189 201.34 180.48 195.14" fill="#093f68"/><path d="M185.75,212.36H175.21a1,1,0,0,1-1-.7l-3.25-10a1,1,0,0,1,.36-1.11l8.52-6.2a1,1,0,0,1,1.18,0l8.52,6.2a1,1,0,0,1,.37,1.11l-3.26,10A1,1,0,0,1,185.75,212.36Zm-9.81-2H185l2.81-8.64-7.35-5.34-7.35,5.34Z" fill="#093f68"/><path d="M188.69,185l-8.21,6-8.16-5.93a19.51,19.51,0,0,1,16.37,0Z" fill="#093f68"/><path d="M180.48,192a1,1,0,0,1-.59-.19l-8.16-5.93a1,1,0,0,1,.16-1.72,20.56,20.56,0,0,1,17.22,0,1,1,0,0,1,.17,1.72l-8.21,6A1,1,0,0,1,180.48,192Zm-6.13-6.69,6.13,4.46,6.17-4.49A18.73,18.73,0,0,0,174.35,185.3Z" fill="#093f68"/><path d="M180.48,196.14a1,1,0,0,1-1-1V191a1,1,0,0,1,2,0v4.15A1,1,0,0,1,180.48,196.14Z" fill="#093f68"/><path d="M167.13,200.05l-6,4.68q-.09-1-.09-1.95A19.41,19.41,0,0,1,164.24,192Z" fill="#093f68"/><path d="M161.09,205.73a.89.89,0,0,1-.39-.09,1,1,0,0,1-.6-.82,19.49,19.49,0,0,1-.1-2,20.4,20.4,0,0,1,3.41-11.32,1,1,0,0,1,1.77.22l2.89,8a1,1,0,0,1-.33,1.13l-6,4.68A1,1,0,0,1,161.09,205.73ZM164,194.36a18.45,18.45,0,0,0-2,8.4l3.94-3Z" fill="#093f68"/><path d="M173.75,221.11a19.43,19.43,0,0,1-8.84-6.61l7.14.35Z" fill="#093f68"/><path d="M173.75,222.11a1,1,0,0,1-.35-.06,20.47,20.47,0,0,1-9.29-7A1,1,0,0,1,164,214a1,1,0,0,1,.94-.53l7.14.35a1,1,0,0,1,.92.74l1.69,6.26a1,1,0,0,1-1,1.26Zm-6.59-6.5a18.23,18.23,0,0,0,5.08,3.76l-1-3.55Z" fill="#093f68"/><path d="M172,202.33a.9.9,0,0,1-.28,0l-4.89-1.44a1,1,0,0,1-.68-1.24,1,1,0,0,1,1.24-.68l4.9,1.45a1,1,0,0,1-.29,2Z" fill="#093f68"/><path d="M200.08,202.78a17.93,17.93,0,0,1-.1,1.95l-6-4.68,2.89-8A19.38,19.38,0,0,1,200.08,202.78Z" fill="#093f68"/><path d="M200,205.73a1.07,1.07,0,0,1-.61-.21l-6-4.68a1,1,0,0,1-.33-1.13l2.88-8a1,1,0,0,1,.82-.66,1,1,0,0,1,1,.44,20.43,20.43,0,0,1,3.41,11.33c0,.69,0,1.38-.1,2a1,1,0,0,1-.6.82A.93.93,0,0,1,200,205.73Zm-4.84-6,3.94,3a18.43,18.43,0,0,0-2-8.4Z" fill="#093f68"/><path d="M189.05,202.33a1,1,0,0,1-.28-2l4.9-1.45a1,1,0,0,1,.56,1.92l-4.89,1.44A1,1,0,0,1,189.05,202.33Z" fill="#093f68"/><path d="M172.05,215.86a1,1,0,0,1-.67-.26,1,1,0,0,1-.07-1.41l3.16-3.5a1,1,0,0,1,1.41-.08A1,1,0,0,1,176,212l-3.16,3.5A1,1,0,0,1,172.05,215.86Z" fill="#093f68"/><path d="M196.19,214.5a19.71,19.71,0,0,1-9,6.67l1.71-6.32Z" fill="#093f68"/><path d="M187.2,222.17a1,1,0,0,1-.68-.27,1,1,0,0,1-.29-1l1.71-6.31a1,1,0,0,1,.92-.74l7.28-.35a1,1,0,0,1,.93.53,1,1,0,0,1-.08,1.07,20.61,20.61,0,0,1-9.45,7A1.06,1.06,0,0,1,187.2,222.17Zm2.48-6.35-1,3.62a18.38,18.38,0,0,0,5.23-3.83Z" fill="#093f68"/><path d="M188.91,215.86a1,1,0,0,1-.75-.33L185,212a1,1,0,0,1,.08-1.42,1,1,0,0,1,1.41.08l3.16,3.5a1,1,0,0,1-.07,1.41A1,1,0,0,1,188.91,215.86Z" fill="#093f68"/><rect x="223.06" y="196.13" width="14.83" height="12.68" fill="#fff"/><path d="M237.89,209.81H223.06a1,1,0,0,1-1-1V196.13a1,1,0,0,1,1-1h14.83a1,1,0,0,1,1,1v12.68A1,1,0,0,1,237.89,209.81Zm-13.83-2h12.83V197.13H224.06Z" fill="#093f68"/><path d="M230.64,198.67a3.22,3.22,0,0,1,3.32,2.38l-1.78.52a1.53,1.53,0,0,0-1.54-1.22,2,2,0,0,0,0,3.93,1.56,1.56,0,0,0,1.59-1.35l1.82.45a3.27,3.27,0,0,1-3.41,2.58,3.65,3.65,0,1,1,0-7.29Z" fill="#093f68"/><path d="M166.83,191.77c.89-.17,2.09,0,2.24.9a1.72,1.72,0,0,1-.11.77,7.48,7.48,0,0,1-4,4.49c1-.05,1.83-.72,2.79-1s2.3.17,2.26,1.16a2,2,0,0,1-.88,1.32,38.63,38.63,0,0,1-3.32,2.52,5.34,5.34,0,0,1,2.31-.49,1.81,1.81,0,0,1,1.71,1.39,2.15,2.15,0,0,1-1.18,1.94,20.66,20.66,0,0,0-2,1.16c1.21-.51,3.4-.28,3.62,1.34a3.63,3.63,0,0,1-.92,2.55c-1.82,2.42-5.65,5.47-8.66,3.29-1.73-1.26-2.18-4.35-2.61-6.35a13.33,13.33,0,0,1,.24-6.37C159.48,196.33,162.54,192.59,166.83,191.77Z" fill="#68e1fd"/><path d="M163,214.86a4.83,4.83,0,0,1-2.87-.94c-1.85-1.35-2.44-4.18-2.87-6.25l-.14-.7a14.14,14.14,0,0,1,.26-6.85c1.36-4.85,5-8.51,9.27-9.33a3.58,3.58,0,0,1,2.57.41,2,2,0,0,1,.83,1.3,2.6,2.6,0,0,1-.13,1.24,8.75,8.75,0,0,1-1,2.15,2.85,2.85,0,0,1,1.35.55,2,2,0,0,1,.8,1.69,2.94,2.94,0,0,1-1.23,2.05l-.61.5a2.62,2.62,0,0,1,1.65,2,2.83,2.83,0,0,1-1,2.43l.09,0a2.62,2.62,0,0,1,1.35,2,4.48,4.48,0,0,1-1.11,3.28C168.34,212.86,165.62,214.86,163,214.86Zm4.45-22.15a2.22,2.22,0,0,0-.43,0h0c-3.53.68-6.56,3.78-7.71,7.91a12.32,12.32,0,0,0-.24,5.89l.15.72c.36,1.74.86,4.14,2.08,5,2.64,1.91,6.14-1.57,7.27-3.08a2.72,2.72,0,0,0,.73-1.82.62.62,0,0,0-.36-.49,2.41,2.41,0,0,0-1.88,0,1,1,0,0,1-1-1.71,8.94,8.94,0,0,1,1.35-.83,7.43,7.43,0,0,0,.73-.4c.45-.29.76-.69.72-.95s-.42-.5-.81-.54a4.39,4.39,0,0,0-1.87.44,1,1,0,0,1-.91-1.77,38.75,38.75,0,0,0,3.24-2.45c.47-.4.52-.55.53-.6a1.17,1.17,0,0,0-1-.16,5.53,5.53,0,0,0-.94.39,5.35,5.35,0,0,1-2.08.65,1,1,0,0,1-1-.76,1,1,0,0,1,.55-1.15,6.47,6.47,0,0,0,3.46-3.89,1,1,0,0,0,.07-.3A1.24,1.24,0,0,0,167.45,192.71Zm-.62-.94h0Z" fill="#093f68"/><path d="M158.6,200.52a5.27,5.27,0,0,1,2.66-1.34l1.49,8.31a1.52,1.52,0,0,1,0,.6,1.7,1.7,0,0,1-.67.93c-.6.51-1.22,1-1.86,1.46" fill="#68e1fd"/><path d="M160.26,211.48a1,1,0,0,1-.81-.41,1,1,0,0,1,.22-1.4c.62-.44,1.23-.92,1.8-1.41a1.62,1.62,0,0,0,.34-.35s0-.16,0-.24l-1.3-7.21a4.07,4.07,0,0,0-1.18.79,1,1,0,0,1-1.42,0,1,1,0,0,1,0-1.41,6.15,6.15,0,0,1,3.18-1.6,1,1,0,0,1,1.16.81l1.49,8.31a2.74,2.74,0,0,1,0,.94,2.66,2.66,0,0,1-1,1.51c-.62.54-1.28,1-1.94,1.53A1,1,0,0,1,160.26,211.48Z" fill="#093f68"/><circle cx="213.32" cy="185.18" r="5.36" fill="#68e1fd"/><path d="M213.32,191.53a6.36,6.36,0,1,1,6.35-6.35A6.36,6.36,0,0,1,213.32,191.53Zm0-10.71a4.36,4.36,0,1,0,4.35,4.36A4.36,4.36,0,0,0,213.32,180.82Z" fill="#093f68"/><path d="M148.2,184.17v23h-65v-23A33,33,0,0,1,95.6,158,29.13,29.13,0,0,1,102,154.2,27.62,27.62,0,0,1,112.72,152h5.93a27.62,27.62,0,0,1,10.68,2.17,28.9,28.9,0,0,1,6.44,3.77A33,33,0,0,1,148.2,184.17Z" fill="#68e1fd"/><path d="M148.2,208.12h-65a1,1,0,0,1-1-1v-23a34.18,34.18,0,0,1,12.82-27,30.5,30.5,0,0,1,6.66-3.9,29,29,0,0,1,5.71-1.73,28.07,28.07,0,0,1,5.36-.51h5.93a28.21,28.21,0,0,1,11.07,2.25,29.75,29.75,0,0,1,6.66,3.89,34.18,34.18,0,0,1,12.82,27v23A1,1,0,0,1,148.2,208.12Zm-64-2h63v-22a32.14,32.14,0,0,0-12-25.41,27.83,27.83,0,0,0-6.22-3.64,24.88,24.88,0,0,0-5.29-1.61,26.07,26.07,0,0,0-5-.48h-5.93a26,26,0,0,0-5,.48,25.14,25.14,0,0,0-5.3,1.61,28.15,28.15,0,0,0-6.22,3.64,32.14,32.14,0,0,0-12,25.41Z" fill="#093f68"/><path d="M107.54,152.53v54.59H102V154.2A26.69,26.69,0,0,1,107.54,152.53Z" fill="#093f68"/><rect x="112.93" y="152.03" width="5.51" height="55.09" fill="#093f68"/><path d="M129.33,154.2v52.92h-5.5V152.53A26.69,26.69,0,0,1,129.33,154.2Z" fill="#093f68"/><path d="M110.9,151.29v-7.24h8.87v7.24a4.43,4.43,0,0,1-4.43,4.44h0A4.44,4.44,0,0,1,110.9,151.29Z" fill="#e28362"/><path d="M115.33,156.73a5.44,5.44,0,0,1-5.43-5.44v-7.24a1,1,0,0,1,1-1h8.87a1,1,0,0,1,1,1v7.24A5.45,5.45,0,0,1,115.33,156.73Zm-3.43-11.68v6.24a3.44,3.44,0,1,0,6.87,0v-6.24Z" fill="#093f68"/><path d="M124.91,85.3c8.84,2.21,16,8.57,17.71,17.92,1.44,7.83,2.23,15.38.67,23.31a3.81,3.81,0,0,1-.67,1.75c-.89,1.07-2.45.42-3.56.26-2.3-.33-4.8.25-7.12.25H100.25c-3.39,0-9.35,1.57-11.33-2a11.79,11.79,0,0,1-1-5.1c-.28-6.14-.48-12.36,1-18.33,1.26-5.26,3.68-10.43,8.23-13.59a29.46,29.46,0,0,1,10.53-4.25,39.89,39.89,0,0,1,14.88-.66C123.31,84.94,124.11,85.11,124.91,85.3Z" fill="#725858"/><path d="M94.49,130.13c-2.61,0-5.15-.53-6.45-2.91a12.55,12.55,0,0,1-1.14-5.54c-.31-6.67-.45-12.67,1-18.61,1.57-6.51,4.48-11.28,8.64-14.17a30.07,30.07,0,0,1,10.89-4.41,41,41,0,0,1,15.25-.67c.83.14,1.67.31,2.5.51h0C135,86.79,141.89,93.79,143.6,103c1.34,7.26,2.35,15.16.67,23.69a4.73,4.73,0,0,1-.88,2.19c-1.1,1.33-2.75,1-3.84.74-.22,0-.44-.1-.64-.13a18,18,0,0,0-4.13.08c-.93.09-1.9.18-2.84.18H100.25c-.69,0-1.54.07-2.43.15C96.76,130,95.62,130.13,94.49,130.13ZM117,85.39a42.41,42.41,0,0,0-9.2,1.06,28.23,28.23,0,0,0-10.18,4.09c-3.75,2.6-6.38,7-7.83,13-1.37,5.68-1.23,11.53-.93,18a10.94,10.94,0,0,0,.91,4.67c1.23,2.26,4.75,2,7.85,1.68.94-.08,1.82-.15,2.6-.15h31.69c.85,0,1.73-.08,2.66-.17a19.65,19.65,0,0,1,4.6-.07l.78.15c.93.2,1.57.31,1.87-.06a2.92,2.92,0,0,0,.46-1.3c1.61-8.2.63-15.87-.68-22.94-1.56-8.46-7.9-14.86-17-17.13-.77-.19-1.56-.35-2.34-.47A33.78,33.78,0,0,0,117,85.39Z" fill="#093f68"/><ellipse cx="92.74" cy="126.33" rx="7.9" ry="7.23" fill="#e28362"/><path d="M92.74,134.56c-4.9,0-8.89-3.69-8.89-8.23s4-8.22,8.89-8.22,8.9,3.69,8.9,8.22S97.65,134.56,92.74,134.56Zm0-14.45c-3.8,0-6.89,2.79-6.89,6.22s3.09,6.23,6.89,6.23,6.9-2.79,6.9-6.23S96.55,120.11,92.74,120.11Z" fill="#093f68"/><ellipse cx="138.78" cy="126.33" rx="7.9" ry="7.23" fill="#e28362"/><path d="M138.78,134.56c-4.9,0-8.89-3.69-8.89-8.23s4-8.22,8.89-8.22,8.9,3.69,8.9,8.22S143.69,134.56,138.78,134.56Zm0-14.45c-3.8,0-6.89,2.79-6.89,6.22s3.09,6.23,6.89,6.23,6.9-2.79,6.9-6.23S142.59,120.11,138.78,120.11Z" fill="#093f68"/><path d="M116,149.89a25.49,25.49,0,0,1-19.64-9.35,25.19,25.19,0,0,1-5-10.23,43,43,0,0,1,0-19.93c.85-3.47,2.11-9.06,4.48-11.76,4-4.53,11.21-2.22,16.3-1.71,7.25.73,17.14-3.44,23.16,2,4.74,4.3,5.79,9.94,6.06,16.07.38,8.62.21,17.71-5.23,24.87A25.5,25.5,0,0,1,116,149.89Z" fill="#e28362"/><path d="M116,150.89a26.52,26.52,0,0,1-20.41-9.72,26.25,26.25,0,0,1-5.21-10.63,43.94,43.94,0,0,1,0-20.4l.16-.67c.91-3.71,2.15-8.79,4.54-11.51,3.59-4.09,9.44-3.19,14.14-2.46,1.07.16,2.08.32,3,.41a37.22,37.22,0,0,0,7.67-.36c5.76-.64,11.71-1.3,16.06,2.66,5.17,4.7,6.13,10.84,6.39,16.77.37,8.39.29,18-5.44,25.51A26.47,26.47,0,0,1,116,150.89Zm-12.89-54c-2.53,0-4.86.55-6.5,2.41-2.06,2.35-3.29,7.35-4.09,10.66l-.17.68a42,42,0,0,0,0,19.47,24.2,24.2,0,0,0,4.81,9.82,24.29,24.29,0,0,0,38.21-.63c5.32-7,5.39-16.17,5-24.21-.25-5.5-1.11-11.17-5.74-15.38-3.69-3.35-9.18-2.74-14.5-2.15a39.85,39.85,0,0,1-8.09.36c-1-.1-2-.26-3.11-.43A39.88,39.88,0,0,0,103.1,96.87Z" fill="#093f68"/><path d="M115.87,135.79a14.43,14.43,0,0,1-2.33-.2,1,1,0,0,1,.34-2,11.19,11.19,0,0,0,3.17.08,17.74,17.74,0,0,0-2-5.19,1,1,0,0,1,.42-1.35,1,1,0,0,1,1.35.43c1,2,2.69,5.57,2,7.12a1.53,1.53,0,0,1-1,.87A8.68,8.68,0,0,1,115.87,135.79Z" fill="#093f68"/><circle cx="104.5" cy="125.4" r="2.02" fill="#093f68"/><circle cx="127.31" cy="125.4" r="2.02" fill="#093f68"/><path d="M110.34,119.36h-.11l-9.63-.52a2,2,0,1,1,.22-4l9.63.53a2,2,0,0,1-.11,4Z" fill="#093f68"/><path d="M122.28,119.36a2,2,0,0,1-.11-4l9.63-.53a2,2,0,0,1,.22,4l-9.63.52Z" fill="#093f68"/><path d="M115.81,142.76a12.61,12.61,0,0,1-4.81-.92,10.7,10.7,0,0,1-4.28-3.11,1,1,0,1,1,1.61-1.19c.2.27,4.75,6.07,14.52,1.45a1,1,0,0,1,.86,1.8A18.43,18.43,0,0,1,115.81,142.76Z" fill="#093f68"/><rect x="134.81" y="192.01" width="13.38" height="15.1" fill="#e28362"/><path d="M148.19,208.11H134.81a1,1,0,0,1-1-1V192a1,1,0,0,1,1-1h13.38a1,1,0,0,1,1,1v15.1A1,1,0,0,1,148.19,208.11Zm-12.38-2h11.38V193H135.81Z" fill="#093f68"/><path d="M134.81,193a1,1,0,0,1-1-1v-18.9a1,1,0,0,1,2,0V192A1,1,0,0,1,134.81,193Z" fill="#093f68"/><rect x="83.5" y="192.01" width="13.38" height="15.1" transform="translate(180.37 399.13) rotate(-180)" fill="#e28362"/><path d="M96.88,208.11H83.5a1,1,0,0,1-1-1V192a1,1,0,0,1,1-1H96.88a1,1,0,0,1,1,1v15.1A1,1,0,0,1,96.88,208.11Zm-12.38-2H95.88V193H84.5Z" fill="#093f68"/><path d="M96.88,193a1,1,0,0,1-1-1v-18.9a1,1,0,0,1,2,0V192A1,1,0,0,1,96.88,193Z" fill="#093f68"/><circle cx="126.58" cy="169.85" r="5.36" fill="#68e1fd"/><path d="M126.58,176.2a6.36,6.36,0,1,1,6.36-6.35A6.36,6.36,0,0,1,126.58,176.2Zm0-10.71a4.36,4.36,0,1,0,4.36,4.36A4.36,4.36,0,0,0,126.58,165.49Z" fill="#093f68"/><path d="M96.22,187.9h-13a1,1,0,1,1,0-2h13a1,1,0,0,1,0,2Z" fill="#093f68"/><path d="M147.47,187.9H134.81a1,1,0,0,1,0-2h12.66a1,1,0,0,1,0,2Z" fill="#093f68"/><path d="M316.83,184.17v23h-65v-23A33,33,0,0,1,264.23,158a29.13,29.13,0,0,1,6.44-3.77A27.62,27.62,0,0,1,281.35,152h5.93A27.62,27.62,0,0,1,298,154.2,28.9,28.9,0,0,1,304.4,158,33,33,0,0,1,316.83,184.17Z" fill="#68e1fd"/><path d="M316.83,208.12h-65a1,1,0,0,1-1-1v-23a34.18,34.18,0,0,1,12.82-27,30,30,0,0,1,6.66-3.9,28.66,28.66,0,0,1,5.7-1.73,28.17,28.17,0,0,1,5.37-.51h5.93a28.21,28.21,0,0,1,11.07,2.25,29.75,29.75,0,0,1,6.66,3.89,34.18,34.18,0,0,1,12.82,27v23A1,1,0,0,1,316.83,208.12Zm-64-2h63v-22a32.14,32.14,0,0,0-12-25.41,28.05,28.05,0,0,0-6.22-3.64,25.14,25.14,0,0,0-5.3-1.61,26,26,0,0,0-5-.48h-5.93a25.89,25.89,0,0,0-5,.48,24.79,24.79,0,0,0-5.3,1.61,27.92,27.92,0,0,0-6.22,3.64,32.14,32.14,0,0,0-12,25.41Z" fill="#093f68"/><path d="M276.17,152.53v54.59h-5.5V154.2A26.69,26.69,0,0,1,276.17,152.53Z" fill="#093f68"/><rect x="281.56" y="152.03" width="5.51" height="55.09" fill="#093f68"/><path d="M298,154.2v52.92h-5.5V152.53A26.69,26.69,0,0,1,298,154.2Z" fill="#093f68"/><path d="M279.52,151.29v-7.24h8.88v7.24a4.44,4.44,0,0,1-4.44,4.44h0A4.44,4.44,0,0,1,279.52,151.29Z" fill="#ffc9b0"/><path d="M284,156.73a5.45,5.45,0,0,1-5.44-5.44v-7.24a1,1,0,0,1,1-1h8.88a1,1,0,0,1,1,1v7.24A5.45,5.45,0,0,1,284,156.73Zm-3.44-11.68v6.24a3.44,3.44,0,1,0,6.88,0v-6.24Z" fill="#093f68"/><path d="M293.47,82.36A23.68,23.68,0,0,0,303,79.69a15.25,15.25,0,0,1,3.82-1.88c3.49-.82,7,2.24,7.81,5.73.8,3.3-.24,6.41-1.31,9.49-.35,1-2.86,6.19-4.77,4.69,3.66,2.87,3.31,8.47,3.79,12.73a52.87,52.87,0,0,1-.43,16.08,3.72,3.72,0,0,1-.68,1.75c-.89,1.07-2.45.42-3.56.26-2.3-.33-4.79.25-7.12.25H268.88c-5.44,0-9.69,1.62-12.26-4.22-2.69-6.09-2.63-13.2-2.12-19.76a17.41,17.41,0,0,1,1.86-7.44c1.29-2.23,3.7-4,6.27-3.81-1.5-.1,3.06-6.94,3.64-7.39a18,18,0,0,1,8.92-3.42c4.68-.59,9.41-.17,14.13-.2C290.7,82.54,292.09,82.49,293.47,82.36Z" fill="#725858"/><path d="M263.56,130c-3.13,0-6-.73-7.86-5-2.83-6.42-2.7-13.83-2.2-20.24a18.24,18.24,0,0,1,2-7.86,8.39,8.39,0,0,1,5.92-4.26c.54-2.49,3.86-6.94,4.22-7.23a18.74,18.74,0,0,1,9.42-3.62,66.38,66.38,0,0,1,9.95-.27c1.43,0,2.87.07,4.3.06s2.83-.07,4.07-.18h0a22.76,22.76,0,0,0,9.14-2.55l.84-.49a11.31,11.31,0,0,1,3.24-1.5c4.16-1,8.09,2.63,9,6.47.88,3.66-.3,7.06-1.35,10.06,0,0-1.5,3.84-3.55,5.17,1.92,2.63,2.18,6.2,2.42,9.42.06.82.12,1.63.2,2.39a53.28,53.28,0,0,1-.44,16.39,4.64,4.64,0,0,1-.89,2.19c-1.1,1.33-2.74,1-3.83.74-.22,0-.44-.1-.64-.13a17.46,17.46,0,0,0-4.13.08c-.94.09-1.9.18-2.85.18H268.88c-1,0-1.94.05-2.86.11S264.37,130,263.56,130Zm-1.28-35.44a6.3,6.3,0,0,0-5,3.32,16.54,16.54,0,0,0-1.74,7c-.48,6.16-.61,13.26,2,19.27,1.82,4.12,4.43,4,8.37,3.74,1-.06,1.93-.11,3-.11h31.68c.86,0,1.73-.08,2.66-.17a19.66,19.66,0,0,1,4.6-.07l.78.15c.94.2,1.57.31,1.88-.06a3.19,3.19,0,0,0,.46-1.3,51.55,51.55,0,0,0,.41-15.78c-.08-.78-.15-1.61-.21-2.46-.27-3.69-.55-7.51-3.19-9.6h0a1,1,0,0,1,1.23-1.57h0a.16.16,0,0,0,.2,0c1-.3,2.63-3.18,3-4.26,1-2.88,2-5.85,1.29-8.94-.7-2.92-3.68-5.68-6.62-5A9.88,9.88,0,0,0,304.39,80l-.89.53a24.76,24.76,0,0,1-9.94,2.79h0c-1.29.12-2.68.18-4.24.19s-2.9,0-4.36-.06a64.66,64.66,0,0,0-9.64.26,16.7,16.7,0,0,0-8.43,3.2,27.47,27.47,0,0,0-3.51,5.94,1,1,0,0,1,.25.73,1,1,0,0,1-1.06.94h-.29Zm31.19-12.18h0Z" fill="#093f68"/><ellipse cx="261.37" cy="126.33" rx="7.9" ry="7.23" fill="#ffc9b0"/><path d="M261.37,134.56c-4.91,0-8.9-3.69-8.9-8.23s4-8.22,8.9-8.22,8.9,3.69,8.9,8.22S266.28,134.56,261.37,134.56Zm0-14.45c-3.8,0-6.9,2.79-6.9,6.22s3.1,6.23,6.9,6.23,6.9-2.79,6.9-6.23S265.17,120.11,261.37,120.11Z" fill="#093f68"/><ellipse cx="307.41" cy="126.33" rx="7.9" ry="7.23" fill="#ffc9b0"/><path d="M307.41,134.56c-4.91,0-8.9-3.69-8.9-8.23s4-8.22,8.9-8.22,8.9,3.69,8.9,8.22S312.32,134.56,307.41,134.56Zm0-14.45c-3.8,0-6.9,2.79-6.9,6.22s3.1,6.23,6.9,6.23,6.9-2.79,6.9-6.23S311.21,120.11,307.41,120.11Z" fill="#093f68"/><path d="M284.61,149.89A25.45,25.45,0,0,1,265,140.54a25.19,25.19,0,0,1-5-10.23,40,40,0,0,1-1.12-8.3c-.06-2.85,2.14-2.34,4.25-1.15-.79-4.43-1.67-10.15-.12-14.48a6.14,6.14,0,0,1,2.85-3.65c1.44-.68,3.47-.21,4.05,1.27A4.92,4.92,0,0,1,272,98.91a8.48,8.48,0,0,1,5.58-1.26c4.12.34,7.93,2.58,12.06,2.7,3.68.12,7.21-1.43,10.89-1.25,1.43.06,3.1.22,4,1.39,1.09,1.43,1.26,4,1.53,5.66.57,3.71,1.09,7.49.48,11.18.89.59,2.49.64,3.21,1.22s.45,1.52.44,2.46a49.12,49.12,0,0,1-.52,6.75,26.49,26.49,0,0,1-4.84,12.13A25.47,25.47,0,0,1,284.61,149.89Z" fill="#ffc9b0"/><path d="M284.61,150.89A26.32,26.32,0,0,1,259,130.54a41.12,41.12,0,0,1-1.14-8.51,2.89,2.89,0,0,1,1.21-2.78,3.17,3.17,0,0,1,2.74-.08c-.72-4.44-1.16-9.23.24-13.13a6.93,6.93,0,0,1,3.37-4.21,4.37,4.37,0,0,1,3.44-.1h0a6.26,6.26,0,0,1,2.49-3.64,9.47,9.47,0,0,1,6.25-1.45A27.88,27.88,0,0,1,283.54,98a17.22,17.22,0,0,0,11.21.71,23.94,23.94,0,0,1,5.78-.64c1.22.05,3.49.16,4.73,1.78,1.07,1.41,1.36,3.54,1.59,5.25,0,.3.08.6.13.87a39.08,39.08,0,0,1,.59,10.74l.78.23a5.17,5.17,0,0,1,2,.8,3,3,0,0,1,.83,2.75c0,.17,0,.34,0,.51a49.65,49.65,0,0,1-.53,6.88,27.3,27.3,0,0,1-5,12.58A26.47,26.47,0,0,1,284.61,150.89Zm-24.25-30a.6.6,0,0,0-.28,0c-.11.07-.25.38-.23,1a39.31,39.31,0,0,0,1.09,8.1,24.3,24.3,0,0,0,43,9.19,25.42,25.42,0,0,0,4.65-11.67,49.1,49.1,0,0,0,.5-6.61c0-.2,0-.4,0-.6,0-.45.06-1-.08-1.07a4.7,4.7,0,0,0-1.22-.43,6.47,6.47,0,0,1-1.92-.73,1,1,0,0,1-.44-1c.58-3.47.1-7.12-.48-10.86,0-.29-.09-.59-.13-.91-.2-1.48-.45-3.32-1.2-4.31-.62-.81-2-.94-3.24-1a22.83,22.83,0,0,0-5.3.61,25.57,25.57,0,0,1-5.57.65,24.88,24.88,0,0,1-6.62-1.41,26,26,0,0,0-5.49-1.3,7.55,7.55,0,0,0-4.93,1.09,3.91,3.91,0,0,0-1.68,4,1,1,0,0,1-1.89.63,1.42,1.42,0,0,0-.84-.77,2.42,2.42,0,0,0-1.85,0,5.28,5.28,0,0,0-2.34,3.08c-1.43,4-.67,9.3.17,14a1,1,0,0,1-.41,1,1,1,0,0,1-1.07,0A5.2,5.2,0,0,0,260.36,120.91Z" fill="#093f68"/><circle cx="273.13" cy="125.4" r="2.02" fill="#093f68"/><circle cx="295.93" cy="125.4" r="2.02" fill="#093f68"/><path d="M279,119.36h-.11l-9.64-.52a2,2,0,0,1,.22-4l9.64.53a2,2,0,0,1-.11,4Z" fill="#093f68"/><path d="M290.9,119.36a2,2,0,0,1-.1-4l9.63-.53a2,2,0,1,1,.22,4l-9.64.52Z" fill="#093f68"/><rect x="303.43" y="192.01" width="13.38" height="15.1" fill="#ffc9b0"/><path d="M316.81,208.11H303.43a1,1,0,0,1-1-1V192a1,1,0,0,1,1-1h13.38a1,1,0,0,1,1,1v15.1A1,1,0,0,1,316.81,208.11Zm-12.38-2h11.38V193H304.43Z" fill="#093f68"/><path d="M303.43,193a1,1,0,0,1-1-1v-18.9a1,1,0,0,1,2,0V192A1,1,0,0,1,303.43,193Z" fill="#093f68"/><rect x="252.12" y="192.01" width="13.38" height="15.1" transform="translate(517.63 399.13) rotate(-180)" fill="#ffc9b0"/><path d="M265.5,208.11H252.12a1,1,0,0,1-1-1V192a1,1,0,0,1,1-1H265.5a1,1,0,0,1,1,1v15.1A1,1,0,0,1,265.5,208.11Zm-12.38-2H264.5V193H253.12Z" fill="#093f68"/><path d="M265.5,193a1,1,0,0,1-1-1v-18.9a1,1,0,0,1,2,0V192A1,1,0,0,1,265.5,193Z" fill="#093f68"/><circle cx="295.21" cy="169.85" r="5.36" fill="#68e1fd"/><path d="M295.21,176.2a6.36,6.36,0,1,1,6.35-6.35A6.36,6.36,0,0,1,295.21,176.2Zm0-10.71a4.36,4.36,0,1,0,4.35,4.36A4.36,4.36,0,0,0,295.21,165.49Z" fill="#093f68"/><path d="M264.85,187.9H251.8a1,1,0,0,1,0-2h13.05a1,1,0,0,1,0,2Z" fill="#093f68"/><path d="M316.09,187.9H303.43a1,1,0,0,1,0-2h12.66a1,1,0,0,1,0,2Z" fill="#093f68"/><path d="M309.62,120.59v5.83c0,12.46-11.37,22.57-25.39,22.57a27,27,0,0,1-18-6.61,21.35,21.35,0,0,1-7.43-16v-5.83a21.31,21.31,0,0,0,7.43,15.95,25.2,25.2,0,0,0,5.53,3.73c1.32-3.92,6.46-8.5,12.42-8.5s11.1,4.58,12.42,8.5C304.39,136.41,309.62,129,309.62,120.59Z" fill="#093f68"/><path d="M284.23,150a27.88,27.88,0,0,1-18.61-6.87,22.24,22.24,0,0,1-7.77-16.7v-5.83a1,1,0,0,1,2,0,20.21,20.21,0,0,0,7.1,15.2,23.74,23.74,0,0,0,4.35,3.09,14.36,14.36,0,0,1,25.86,0c7.09-3.94,11.46-10.85,11.46-18.29a1,1,0,0,1,2,0v5.83C310.62,139.41,298.78,150,284.23,150Zm-24-19.48A20.84,20.84,0,0,0,267,141.63,25.89,25.89,0,0,0,284.23,148c11.89,0,21.81-7.56,24-17.53a24.91,24.91,0,0,1-11.09,10.71,1,1,0,0,1-.83,0,1,1,0,0,1-.57-.61c-1.1-3.28-5.7-7.82-11.47-7.82s-10.37,4.54-11.47,7.82a1,1,0,0,1-.57.61,1,1,0,0,1-.83,0,26,26,0,0,1-5.74-3.88A23.85,23.85,0,0,1,260.28,130.51Z" fill="#093f68"/><path d="M285.84,123.37s3.73,6.63,2.12,7a27.21,27.21,0,0,1-4.67.43" fill="#ffc9b0"/><path d="M283.29,131.83a1,1,0,0,1-1-1,1,1,0,0,1,1-1,29.07,29.07,0,0,0,4.08-.33,21.35,21.35,0,0,0-2.39-5.64,1,1,0,0,1,1.75-1c1.22,2.17,3.17,6.05,2.49,7.63a1.48,1.48,0,0,1-1,.86,28.19,28.19,0,0,1-4.91.46Z" fill="#093f68"/></g></svg>