<svg xmlns="http://www.w3.org/2000/svg" viewBox="0 0 400 300"><g id="_457_girl_with_egg_outline" data-name="#457_girl_with_egg_outline"><path d="M167.42,182l-14,27.48,5-41.81-19-3.33s-9.36,68.79,3,71.61S175,219.36,175,219.36Z" fill="#ffc9b0"/><path d="M145,237.25a12.44,12.44,0,0,1-2.82-.31c-12.91-2.93-4.77-65.58-3.8-72.72a1,1,0,0,1,.4-.67,1,1,0,0,1,.76-.18l19,3.34a1,1,0,0,1,.82,1.1L155,204.05l11.49-22.49a1,1,0,0,1,1-.53,1,1,0,0,1,.84.79L176,219.16a1,1,0,0,1-.28.92C174.92,220.83,157.68,237.25,145,237.25Zm-4.78-71.73c-3.49,26.31-5.86,67.59,2.4,69.47,10.8,2.46,28.42-13.33,31.29-16L167,185,154.27,210a1,1,0,0,1-1.88-.58l4.9-40.87Z" fill="#093f68"/><path d="M292.39,178.43a4.59,4.59,0,0,1-1.71,2.08,55.32,55.32,0,0,1-5.36,3.75c-1.38.85-2.94,1.44-3.88,2.79a29.69,29.69,0,0,0-2.08,3.95c-4.92,10-9.24,20.35-14.48,30.2-2,3.68-6.84,14-12.47,12.52-4.58-1.16-15.21-18.09-23.3-24v30.65l-60.73,2.27V190.69c0-5.51,3-15.43,8.47-15.43h44.21c16,0,26.21,31.65,29.32,31.43,3.5-.26,18.72-24.12,18.72-24.12,0-2.28-.4-5.25.27-7.43.62-2,3-1.51,3.65.15.37.94.35,2,.78,2.93,2.86-.53,5.48-2,8.18-3.06,3.26-1.25,6.83-3.5,9.48,0A3.83,3.83,0,0,1,292.39,178.43Z" fill="#ffc9b0"/><path d="M168.38,243.63a1,1,0,0,1-1-1V190.69c0-5.9,3.17-16.43,9.47-16.43h44.21c11.67,0,20.21,15.57,25.32,24.87,1.54,2.81,3.27,6,4,6.53,2.16-.72,10.74-12.52,17.69-23.37,0-.44,0-.89-.06-1.36a18.9,18.9,0,0,1,.37-6.08,2.68,2.68,0,0,1,2.47-2,3.31,3.31,0,0,1,3.08,2.09,8.58,8.58,0,0,1,.39,1.55l.12.58a30.19,30.19,0,0,0,4.54-1.72c.85-.38,1.73-.77,2.62-1.11l1.35-.55c2.91-1.22,6.53-2.75,9.28.85a4.74,4.74,0,0,1,1.09,4.2,5.41,5.41,0,0,1-2,2.57,57.39,57.39,0,0,1-5.46,3.82c-.35.22-.72.42-1.08.62a7,7,0,0,0-2.5,1.89,18.94,18.94,0,0,0-1.55,2.86c-.15.33-.3.65-.46,1-1.94,3.95-3.82,8-5.65,12-2.78,6-5.66,12.27-8.84,18.25l-.46.86c-2.32,4.44-7.14,13.68-13.14,12.16-2.55-.65-5.95-4.62-11.27-11.05-3.47-4.18-7.34-8.85-10.79-11.84v28.56a1,1,0,0,1-1,1l-60.72,2.27Zm8.47-67.37c-4.63,0-7.47,9.34-7.47,14.43v50.9l58.73-2.19V209.71a1,1,0,0,1,.54-.89,1,1,0,0,1,1,.09c4,2.93,8.65,8.53,12.74,13.46s8.17,9.86,10.22,10.38c4.47,1.14,9-7.47,10.88-11.14l.46-.88c3.15-5.93,6-12.14,8.8-18.15,1.82-4,3.71-8.05,5.67-12l.44-.93a20.52,20.52,0,0,1,1.72-3.16A8.58,8.58,0,0,1,283.8,184c.34-.19.67-.37,1-.57a52.72,52.72,0,0,0,5.26-3.69,3.79,3.79,0,0,0,1.38-1.58h0a3,3,0,0,0-.77-2.4c-1.72-2.25-3.75-1.55-6.91-.22-.48.2-.95.4-1.42.58-.84.32-1.7.7-2.53,1.07a26.76,26.76,0,0,1-5.82,2,1,1,0,0,1-1.09-.56,7.33,7.33,0,0,1-.51-1.8,6.46,6.46,0,0,0-.3-1.19,1.21,1.21,0,0,0-1.13-.82c-.11,0-.46,0-.64.6a17.68,17.68,0,0,0-.28,5.41q0,.9.06,1.71a1.09,1.09,0,0,1-.15.56c-3.64,5.69-15.79,24.31-19.5,24.57-1.52.13-2.69-1.86-5.83-7.58-4.89-8.92-13.08-23.84-23.56-23.84Z" fill="#093f68"/><path d="M294.89,163.41c0,11.71-7.44,15.79-16.61,15.79s-16.6-4.08-16.6-15.79,7.43-26.59,16.6-26.59S294.89,151.71,294.89,163.41Z" fill="#68e1fd"/><path d="M278.28,180.2c-11.35,0-17.6-6-17.6-16.79a38,38,0,0,1,5-18.19c3.51-6.06,8-9.4,12.6-9.4s9.09,3.34,12.61,9.4a38,38,0,0,1,5,18.19C295.89,174.24,289.63,180.2,278.28,180.2Zm0-42.38c-7,0-15.6,11.81-15.6,25.59,0,12.23,8.48,14.79,15.6,14.79s15.61-2.56,15.61-14.79C293.89,149.63,285.31,137.82,278.28,137.82Z" fill="#093f68"/><polygon points="168.38 190.69 168.38 247.33 229.51 247.33 229.51 191.9 200.41 203.13 168.38 190.69" fill="#68e1fd"/><path d="M229.51,248.33H168.38a1,1,0,0,1-1-1V190.69a1,1,0,0,1,1.37-.93l31.66,12.3L229.15,191a1,1,0,0,1,1.36.93v55.43A1,1,0,0,1,229.51,248.33Zm-60.13-2h59.13v-53l-27.74,10.7a1,1,0,0,1-.73,0l-30.66-11.91Z" fill="#093f68"/><path d="M171.08,196.42a16.4,16.4,0,0,0-5.84,12.66A20.94,20.94,0,0,0,171.08,223" fill="#68e1fd"/><path d="M171.08,224a1,1,0,0,1-.69-.27,21.83,21.83,0,0,1-6.15-14.65,17.26,17.26,0,0,1,6.25-13.46,1,1,0,1,1,1.19,1.6h0a15.61,15.61,0,0,0-5.44,11.86c0,7.78,5.48,13.15,5.54,13.2a1,1,0,0,1-.7,1.72Z" fill="#093f68"/><path d="M226.19,196.42A16.4,16.4,0,0,1,232,209.08,20.94,20.94,0,0,1,226.19,223" fill="#68e1fd"/><path d="M226.19,224a1,1,0,0,1-.7-1.72c.06-.05,5.54-5.42,5.54-13.2a15.61,15.61,0,0,0-5.44-11.86,1,1,0,1,1,1.19-1.6A17.26,17.26,0,0,1,233,209.08a21.83,21.83,0,0,1-6.15,14.65A1,1,0,0,1,226.19,224Z" fill="#093f68"/><path d="M154.12,110.27c0-16.86,5.07-32.36,20.87-35.19,5.78-10.57,20.64-13.13,30.3-10.57C229,70.83,243.15,86,243.15,110.27s39.46,57.49-44.52,57.49S154.12,134.57,154.12,110.27Z" fill="#725858"/><path d="M198.63,168.76c-29.53,0-46.08-4-52.1-12.62-5.3-7.58-1.63-17.63,1.93-27.34,2.29-6.26,4.66-12.74,4.66-18.53,0-26.26,11.43-34.15,21.23-36.09,3.55-6.13,9.57-9,14.06-10.27a33,33,0,0,1,17.13-.37c25.26,6.72,38.61,22.88,38.61,46.73,0,5.79,2.37,12.27,4.66,18.53,3.55,9.71,7.23,19.76,1.93,27.34C244.72,164.75,228.16,168.76,198.63,168.76Zm-.82-104.18c-8.59,0-17.87,3.54-21.94,11a1,1,0,0,1-.7.5c-16.57,3-20,20.25-20,34.21,0,6.14-2.43,12.79-4.79,19.22-3.53,9.66-6.86,18.77-2.16,25.51,5.53,7.91,22,11.76,50.46,11.76s44.93-3.85,50.47-11.76c4.7-6.74,1.37-15.85-2.17-25.51-2.35-6.43-4.78-13.08-4.78-19.22,0-22.85-12.84-38.34-37.12-44.79A28.17,28.17,0,0,0,197.81,64.58Z" fill="#093f68"/><polyline points="192.61 177.76 192.61 170.44 205.32 170.44 205.32 177.76" fill="#ffc9b0"/><path d="M205.32,178.76a1,1,0,0,1-1-1v-6.32H193.61v6.32a1,1,0,0,1-2,0v-7.32a1,1,0,0,1,1-1h12.71a1,1,0,0,1,1,1v7.32A1,1,0,0,1,205.32,178.76Z" fill="#093f68"/><ellipse cx="162.65" cy="137.44" rx="12.35" ry="10.64" fill="#ffc9b0"/><path d="M162.65,149.08c-7.36,0-13.35-5.23-13.35-11.64s6-11.64,13.35-11.64S176,131,176,137.44,170,149.08,162.65,149.08Zm0-21.28c-6.26,0-11.35,4.32-11.35,9.64s5.09,9.64,11.35,9.64S174,142.75,174,137.44,168.9,127.8,162.65,127.8Z" fill="#093f68"/><ellipse cx="234.62" cy="137.44" rx="12.35" ry="10.64" fill="#ffc9b0"/><path d="M234.62,149.08c-7.36,0-13.35-5.23-13.35-11.64s6-11.64,13.35-11.64S248,131,248,137.44,242,149.08,234.62,149.08Zm0-21.28c-6.26,0-11.35,4.32-11.35,9.64s5.09,9.64,11.35,9.64S246,142.75,246,137.44,240.88,127.8,234.62,127.8Z" fill="#093f68"/><path d="M236.2,108.37v26.51a37.24,37.24,0,0,1-74.47,0c0-6.11.15-27.27.15-27.27l11.21.12,5.19-18.26s3.74,12.76,5,18.35l8.69.1c1.83-3.79,4.86-9.21,5-9.6s2.32,5.62,3.76,9.69l13.06.14c2.38-5.52,6.62-15.67,6.62-15.67l6.79,15.79Z" fill="#ffc9b0"/><path d="M199,173.11a38.27,38.27,0,0,1-38.23-38.23c0-6,.15-27.07.15-27.28a1,1,0,0,1,.3-.7,1,1,0,0,1,.71-.29l10.44.11,5-17.52a1,1,0,0,1,1-.73,1,1,0,0,1,1,.72c0,.12,3.44,11.76,4.86,17.64l7.27.08c1.11-2.25,2.54-4.93,3.52-6.75.55-1,1.07-2,1.15-2.19a1.08,1.08,0,0,1,1-.66c.85,0,1,.09,4.42,9.7l11.69.13c2.39-5.55,6.32-15,6.36-15a1,1,0,0,1,.92-.62h0a1,1,0,0,1,.92.61l6.53,15.19,8.35.09a1,1,0,0,1,1,1v26.51A38.28,38.28,0,0,1,199,173.11Zm-36.08-64.49c0,4.28-.15,21-.15,26.26a36.24,36.24,0,0,0,72.47,0V109.36l-8-.09a1,1,0,0,1-.91-.6L220.42,95c-1.38,3.3-4,9.6-5.72,13.5a1,1,0,0,1-.91.61h0L200.72,109a1,1,0,0,1-.94-.67c-1.46-4.14-2.33-6.47-2.84-7.77-.09.16-.18.34-.29.53-1.05,2-2.64,4.94-3.76,7.26a1,1,0,0,1-.91.56l-8.69-.1a1,1,0,0,1-1-.77c-.86-3.74-2.85-10.78-4.05-15L174.05,108a1,1,0,0,1-1,.73Z" fill="#093f68"/><circle cx="183.88" cy="129.92" r="3.35" fill="#093f68"/><circle cx="214.04" cy="129.92" r="3.35" fill="#093f68"/><path d="M198.79,142.76a20.37,20.37,0,0,1-3.33-.28,1,1,0,0,1,.34-2,15.82,15.82,0,0,0,5.17,0c.27-.92-1-4.67-2.89-8.21a1,1,0,0,1,.43-1.35,1,1,0,0,1,1.34.42c.94,1.8,3.91,7.82,2.91,10a1.78,1.78,0,0,1-1.19,1A12.26,12.26,0,0,1,198.79,142.76Z" fill="#093f68"/><path d="M191.22,119.07H191l-16.26-2a2,2,0,1,1,.5-4l16.25,2a2,2,0,0,1-.24,4Z" fill="#093f68"/><path d="M206.71,119.07a2,2,0,0,1-.25-4l16.26-2a2,2,0,0,1,.5,4l-16.26,2Z" fill="#093f68"/><path d="M238,126.8a29.94,29.94,0,0,0,1.76-10.14c0-19.22-18.26-34.81-40.79-34.81s-40.79,15.59-40.79,34.81a29.94,29.94,0,0,0,1.76,10.14,33,33,0,0,1-4.9-17.21C155,88.88,174.7,72.1,199,72.1s43.93,16.78,43.93,37.49A33,33,0,0,1,238,126.8Z" fill="#fff"/><path d="M238,127.8a1,1,0,0,1-.43-.1,1,1,0,0,1-.51-1.24,29,29,0,0,0,1.7-9.8C238.75,98,220.9,82.85,199,82.85S159.17,98,159.17,116.66a29,29,0,0,0,1.71,9.8,1,1,0,0,1-1.8.86A34.24,34.24,0,0,1,154,109.59C154,88.37,174.19,71.1,199,71.1s44.93,17.27,44.93,38.49a34.22,34.22,0,0,1-5,17.73A1,1,0,0,1,238,127.8ZM199,80.85c23,0,41.79,16.06,41.79,35.81,0,.49,0,1,0,1.46a31.36,31.36,0,0,0,1.17-8.53c0-20.12-19.25-36.49-42.93-36.49S156,89.47,156,109.59a31.36,31.36,0,0,0,1.18,8.53c0-.49,0-1,0-1.46C157.17,96.91,175.92,80.85,199,80.85Z" fill="#093f68"/><path d="M179.31,81.11s-17.42-28.44-29-28.44-33.25,11-29.3,22,26.18.29,26.18.29l23.93,11.54" fill="#fff"/><path d="M171.14,87.46a1,1,0,0,1-.43-.1L147.2,76c-2.57,1.18-15.28,6.67-22.57,3.69A7.81,7.81,0,0,1,120.08,75c-1.08-3-.48-6.31,1.76-9.48,5.47-7.78,19.81-13.82,28.49-13.82,12,0,29.11,27.74,29.83,28.92a1,1,0,0,1-1.7,1,148.41,148.41,0,0,0-10.09-14.12c-7.39-9.05-13.63-13.84-18-13.84-8,0-21.8,5.79-26.85,13-1.88,2.66-2.38,5.23-1.51,7.66a5.8,5.8,0,0,0,3.42,3.56c7.15,2.93,21.25-3.78,21.39-3.85a1,1,0,0,1,.87,0l23.93,11.54a1,1,0,0,1-.44,1.9Z" fill="#093f68"/><path d="M218.62,81.11s17.42-28.44,29-28.44,33.24,11,29.3,22-26.18.29-26.18.29L226.78,86.46" fill="#fff"/><path d="M226.78,87.46a1,1,0,0,1-.9-.57,1,1,0,0,1,.47-1.33L250.28,74a1,1,0,0,1,.87,0c.14.07,14.24,6.78,21.39,3.85A5.8,5.8,0,0,0,276,74.3c.87-2.43.36-5-1.51-7.66-5.05-7.18-18.82-13-26.85-13-4.41,0-10.65,4.79-18,13.84a146.31,146.31,0,0,0-10.09,14.12,1,1,0,1,1-1.7-1c.72-1.18,17.84-28.92,29.83-28.92,8.68,0,23,6,28.49,13.82,2.23,3.18,2.84,6.45,1.75,9.48a7.77,7.77,0,0,1-4.54,4.74c-7.3,3-20-2.51-22.58-3.69l-23.5,11.34A1,1,0,0,1,226.78,87.46Z" fill="#093f68"/><path d="M197.93,155.4a18.69,18.69,0,0,1-17.27-10.13,1,1,0,0,1,1.75-1c3.65,6.54,9.41,9.61,17.13,9.1a31.85,31.85,0,0,0,10.71-2.78,1,1,0,0,1,1.34.44,1,1,0,0,1-.45,1.34A33.23,33.23,0,0,1,197.93,155.4Z" fill="#093f68"/><path d="M229.51,192.9a1,1,0,0,1-1-1v-6.61a1,1,0,1,1,2,0v6.61A1,1,0,0,1,229.51,192.9Z" fill="#093f68"/><path d="M167.62,193.37c-.32,9.69-6.85,15.12-14.68,14.86s-14-6.13-13.67-15.82,7-19.53,14.83-19.26S167.94,183.68,167.62,193.37Z" fill="#70cc40"/><path d="M153.48,209.24h-.58c-8.93-.31-15-7.23-14.63-16.85a25.34,25.34,0,0,1,4.79-13.92c3.11-4.21,7-6.45,11.07-6.31,8.69.29,14.82,11.46,14.49,21.25-.16,4.89-1.83,9-4.83,11.85A14.76,14.76,0,0,1,153.48,209.24Zm.31-35.1c-3.26,0-6.49,2-9.12,5.5a23.4,23.4,0,0,0-4.4,12.81C140,201,145.09,207,153,207.23a12.92,12.92,0,0,0,9.43-3.42,14.72,14.72,0,0,0,4.22-10.47c.29-8.67-5.13-18.94-12.55-19.19Zm13.83,19.23h0Z" fill="#093f68"/><path d="M150.9,197.6c3.3,9.1-.74,16.61-8.09,19.33s-15.25-.38-18.55-9.48-.76-20.76,6.6-23.47S147.6,188.5,150.9,197.6Z" fill="#ffbc0e"/><path d="M137.65,218.88a14.08,14.08,0,0,1-5.94-1.29c-3.8-1.77-6.7-5.16-8.39-9.8-3.33-9.2-1-21.74,7.19-24.75a12.14,12.14,0,0,1,9.44.73,24.27,24.27,0,0,1,11.89,13.49c3.28,9-.3,17.51-8.69,20.61A15.94,15.94,0,0,1,137.65,218.88Zm-3.49-34.48a8.61,8.61,0,0,0-3,.51c-7,2.58-8.95,14.05-6,22.2,1.5,4.13,4,7.13,7.35,8.66a12.86,12.86,0,0,0,9.91.23c7.41-2.74,10.42-10,7.5-18.06h0c-1.94-5.34-6.2-10.2-10.86-12.36A11.76,11.76,0,0,0,134.16,184.4Z" fill="#093f68"/><path d="M181,207.25c-3.89,8.86-12,11.43-19.12,8.23s-10.7-11-6.81-19.83,13.74-15.46,20.9-12.26S184.87,198.39,181,207.25Z" fill="#f56132"/><path d="M167.85,217.8a15.62,15.62,0,0,1-6.4-1.41c-8.17-3.66-11.18-12.35-7.31-21.15a24.23,24.23,0,0,1,12.74-12.66,12.12,12.12,0,0,1,9.47-.1c8,3.55,9.48,16.22,5.55,25.18-2,4.51-5.1,7.7-9,9.21A14,14,0,0,1,167.85,217.8ZM172,183.57a12.12,12.12,0,0,0-4.38.88c-4.78,1.84-9.35,6.4-11.63,11.6-3.45,7.85-.92,15.29,6.3,18.51a12.81,12.81,0,0,0,9.9.44c3.4-1.31,6.13-4.13,7.9-8.15,3.48-7.93,2.26-19.51-4.53-22.55A8.66,8.66,0,0,0,172,183.57Z" fill="#093f68"/><path d="M119.92,207.46a34.31,34.31,0,0,0,17.43,27.86,1.34,1.34,0,0,0-.74,1.19v1.76a1.36,1.36,0,0,0,1.35,1.36h31.75a1.35,1.35,0,0,0,1.34-1.36v-1.76a1.32,1.32,0,0,0-.74-1.19,34.4,34.4,0,0,0,17.44-27.86Z" fill="#fff"/><path d="M169.71,240.63H138a2.36,2.36,0,0,1-2.35-2.36v-1.76a2.25,2.25,0,0,1,.2-.93,35.11,35.11,0,0,1-9.7-8.72,34.74,34.74,0,0,1-5-9,35.1,35.1,0,0,1-2.2-10.3,1,1,0,0,1,.27-.75,1,1,0,0,1,.73-.31h67.83a1,1,0,0,1,.73.31,1.08,1.08,0,0,1,.27.75,35.44,35.44,0,0,1-7.2,19.34,34.93,34.93,0,0,1-9.7,8.71,2.3,2.3,0,0,1,.2.94v1.76A2.35,2.35,0,0,1,169.71,240.63ZM121,208.46a33.26,33.26,0,0,0,16.84,26,1,1,0,0,1,0,1.76.38.38,0,0,0-.2.31v1.76a.36.36,0,0,0,.35.36h31.75a.35.35,0,0,0,.34-.36v-1.76a.36.36,0,0,0-.2-.31,1,1,0,0,1,0-1.76,33.17,33.17,0,0,0,14.85-17.32,33.35,33.35,0,0,0,2-8.66Z" fill="#093f68"/><path d="M186.77,211.66a1,1,0,0,1-1-1v-10c0-18.62-14.27-33.78-31.81-33.78s-31.82,15.16-31.82,33.78v10a1,1,0,0,1-2,0v-10c0-19.73,15.17-35.78,33.82-35.78S187.77,181,187.77,200.7v10A1,1,0,0,1,186.77,211.66Z" fill="#093f68"/><rect x="117.11" y="202.97" width="73.44" height="8" rx="2.92" fill="#fff"/><path d="M187.63,212H120a3.93,3.93,0,0,1-3.93-3.92v-2.16A3.93,3.93,0,0,1,120,202h67.59a3.93,3.93,0,0,1,3.92,3.92v2.16A3.93,3.93,0,0,1,187.63,212ZM120,204a1.93,1.93,0,0,0-1.93,1.92v2.16A1.93,1.93,0,0,0,120,210h67.59a1.92,1.92,0,0,0,1.92-1.92v-2.16a1.92,1.92,0,0,0-1.92-1.92Z" fill="#093f68"/><path d="M139.26,165.87c0,2.36.65,9.16,4.5,5.59a7.6,7.6,0,0,0,1.79-2.56,2.62,2.62,0,0,0,2.94,2.51,3.7,3.7,0,0,0,2.93-2.95c-1.4,4.48,5.74.78,6.91-.7,2.24-2.85,1.36-7.73-1.26-10C150.64,152.26,139.17,157.47,139.26,165.87Z" fill="#ffc9b0"/><path d="M141.81,173.48a2.31,2.31,0,0,1-.93-.19c-2.31-1-2.6-5.51-2.62-7.41h0c0-4.24,2.61-8.12,6.93-10.13s9.22-1.57,12.53,1.28c2.85,2.44,4.08,7.93,1.39,11.35-1,1.22-5.68,4.08-7.83,3l-.25-.15a4.26,4.26,0,0,1-2.41,1.22,3.73,3.73,0,0,1-3-1l-.23-.24a9.38,9.38,0,0,1-.95,1A4,4,0,0,1,141.81,173.48Zm8.93-17a11.35,11.35,0,0,0-4.71,1.06c-3.6,1.68-5.81,4.86-5.77,8.3h0c0,2.76.66,5.27,1.41,5.59.26.11.81-.16,1.41-.73a6.46,6.46,0,0,0,1.55-2.21,1,1,0,0,1,1.15-.59,1,1,0,0,1,.77,1,1.26,1.26,0,0,0,.44,1,1.75,1.75,0,0,0,1.37.49,2.65,2.65,0,0,0,2-1.85c0-.13.07-.27.11-.41a1,1,0,0,1,1.94.51c0,.14-.07.29-.12.43a1.07,1.07,0,0,0,0,.51c.61.32,4.33-1.24,5.29-2.47,2-2.52,1-6.77-1.12-8.6A8.56,8.56,0,0,0,150.74,156.5Z" fill="#093f68"/></g></svg>