<svg xmlns="http://www.w3.org/2000/svg" viewBox="0 0 400 300"><g id="_233_global_warming_outline" data-name="#233_global_warming_outline"><path d="M273.82,194.15c11.06-19.1,13-43.25,9.66-64.75.42,2.72-5.48,15.17-8.14,16.13-3.84,1.39-3.67-11.53-3.68-14.26,0-6.73,1-13.59-.27-20.26-1.3-7-5.9-11.49-10.42-16.71,1,8.46-4.08,14.62-6,22.24,1.56-6.13-1.6-12.69-6.31-16.92S237.88,93,232,90.74l-14.28-5.52c-5.49-2.12-11.17-4.36-15.24-8.61s-6.06-11.11-3-16.13c-20.64,7.54-32.94,24.63-38.19,45.18A29.63,29.63,0,0,0,152.62,77a33.66,33.66,0,0,1-6.92,23.09c-7,9-14,13-17.29,24.73-1.42,5.08-5.54,25.85-.24,29.71a46.73,46.73,0,0,1-12.4-13.5c-3.65,25.86,7.26,45.11,22.82,64.62,13,16.28,31.87,28,52.81,29.9,25.61,2.25,52.21-6.8,70.27-25.3A81.35,81.35,0,0,0,273.82,194.15Z" fill="#f56132"/><path d="M199.25,236.85c-2.64,0-5.29-.11-7.94-.35-20.08-1.77-39.58-12.8-53.51-30.27-16.45-20.63-26.66-39.65-23-65.38a1,1,0,0,1,1.84-.38,46.29,46.29,0,0,0,8.46,10.22c-2-9,2.31-26,2.36-26.18,2.35-8.42,6.51-12.88,11.32-18,2-2.15,4.07-4.37,6.15-7A32.66,32.66,0,0,0,151.62,77a1,1,0,0,1,.56-1,1,1,0,0,1,1.11.16,30.75,30.75,0,0,1,9.76,20.44c5.3-14.15,15.7-29.67,36.07-37.12a1,1,0,0,1,1.12.3,1,1,0,0,1,.08,1.16c-2.93,4.79-.78,11.13,2.85,14.92,4,4.16,9.78,6.4,14.88,8.37l14.28,5.52c5.66,2.18,12.07,4.66,17,9.06a21,21,0,0,1,6.74,11.47l.75-1.78c1.94-4.57,3.78-8.9,3.18-14.14a1,1,0,0,1,1.75-.77l1.57,1.79c4.05,4.59,7.87,8.93,9.07,15.39.88,4.7.67,9.5.47,14.15-.09,2.07-.18,4.21-.17,6.29v.42c0,10,1.2,12.37,1.91,12.87a.39.39,0,0,0,.42,0c2-.72,7.88-12.53,7.49-15h0a1,1,0,0,1,2-.31c2.19,14.33,3.84,41.87-9.78,65.41h0a82.71,82.71,0,0,1-12.31,16.26C246.24,227.45,223.1,236.85,199.25,236.85Zm-82.83-93c-2.46,23.67,7.41,41.65,23,61.15,13.58,17,32.58,27.8,52.11,29.52,26,2.29,52-7,69.47-25a80.34,80.34,0,0,0,12-15.86c5.41-9.36,13.63-29.1,10.21-59-1.89,4.89-5.4,11.07-7.49,11.82a2.37,2.37,0,0,1-2.25-.27c-1.91-1.34-2.76-5.81-2.76-14.5v-.43c0-2.12.08-4.28.17-6.38.2-4.53.4-9.22-.43-13.69-1.08-5.77-4.57-9.85-8.33-14.12-.15,4.52-1.82,8.44-3.44,12.26a53.3,53.3,0,0,0-2.72,7.45,1,1,0,1,1-1.93-.49c1.32-5.22-1-11.47-6-15.94-4.63-4.16-10.59-6.46-16.36-8.69l-14.28-5.51c-5.3-2-11.3-4.37-15.6-8.86-3.61-3.76-5.9-9.78-4.2-15-22.23,9.16-31.45,28.62-35.27,43.59v0a1,1,0,0,1-1.21.72,1,1,0,0,1-.73-1.22v0a28.81,28.81,0,0,0-6.6-25.93,34.77,34.77,0,0,1-7.23,21.21c-2.13,2.74-4.24,5-6.27,7.17-4.63,5-8.63,9.25-10.85,17.21-1.92,6.88-4.91,25.5-.61,28.64a1,1,0,0,1,.22,1.39,1,1,0,0,1-1.4.22A48,48,0,0,1,116.42,143.84Zm157.4,50.31h0Z" fill="#093f68"/><path d="M263.15,167.06A62.13,62.13,0,1,1,142,147.55h0a62.14,62.14,0,0,1,121.11,18.5C263.15,166.39,263.15,166.72,263.15,167.06Z" fill="#68e1fd"/><path d="M201,230.18a63.15,63.15,0,0,1-60-82.88.19.19,0,0,0,0-.07A63.3,63.3,0,0,1,176.34,109,63.16,63.16,0,0,1,264.14,166c0,.34,0,.68,0,1A63.13,63.13,0,0,1,201,230.18ZM143,147.8a.19.19,0,0,1,0,.07,61.13,61.13,0,1,0,119.17,19.19c0-.33,0-.65,0-1a61.18,61.18,0,0,0-85-55.29,61.8,61.8,0,0,0-28.66,25.08A60.94,60.94,0,0,0,143,147.8Z" fill="#093f68"/><path d="M214.79,179.78c-2.59-1.46-5.69.95-7.26,3.48s-2.95,5.64-5.81,6.48c-1.82.54-4.57.62-4.59,2.51a2.66,2.66,0,0,0,.16.84c1.88,5.68,10.14,7.35,14.9,3.73s5.85-10.73,3.72-16.32" fill="#70cc40"/><path d="M206.19,199.74a12.17,12.17,0,0,1-3.57-.54,9.26,9.26,0,0,1-6.28-5.8,3.38,3.38,0,0,1-.21-1.16c0-2.28,2.39-2.8,4.12-3.17.41-.09.82-.18,1.19-.29,2-.59,3.21-2.63,4.48-4.78.25-.43.5-.86.76-1.27,2-3.2,5.58-5.53,8.61-3.82a1,1,0,0,1,.47.6,1,1,0,0,1,1.08.63c2.12,5.54,1.41,13.31-4.05,17.47A10.92,10.92,0,0,1,206.19,199.74Zm6.93-19.4c-1.79,0-3.74,1.82-4.74,3.45-.25.39-.49.81-.74,1.22-1.34,2.28-2.86,4.87-5.63,5.69-.42.12-.88.22-1.34.32-1.72.38-2.53.66-2.54,1.25a2.06,2.06,0,0,0,.11.5,7.31,7.31,0,0,0,5,4.52,9.39,9.39,0,0,0,8.36-1.27c4.67-3.56,5.24-10.32,3.39-15.17a.19.19,0,0,1,0-.08,1,1,0,0,1-.65-.12A2.39,2.39,0,0,0,213.12,180.34Z" fill="#093f68"/><path d="M196.5,202.7a10.63,10.63,0,0,0-9.17,1.93,11.85,11.85,0,0,0,7.84,3.39c1.56.06,3.33-.33,4.15-1.66s-.31-3.57-1.82-3.17" fill="#70cc40"/><path d="M195.47,209h-.33a12.86,12.86,0,0,1-8.52-3.68,1,1,0,0,1-.29-.77,1,1,0,0,1,.38-.72,11.64,11.64,0,0,1,10-2.12,1,1,0,0,1,.61.46,2.49,2.49,0,0,1,2.54,1.05,3.32,3.32,0,0,1,.27,3.64A5.26,5.26,0,0,1,195.47,209Zm-6.52-4.3a10.88,10.88,0,0,0,6.26,2.29c.58,0,2.53,0,3.25-1.18a1.37,1.37,0,0,0-.17-1.41c-.17-.23-.35-.32-.53-.28a1,1,0,0,1-1.12-.46,1,1,0,0,1-.39,0A9.67,9.67,0,0,0,189,204.73Z" fill="#093f68"/><path d="M263.15,167.06A61.89,61.89,0,0,1,247,208.85a29.25,29.25,0,0,1-.88-4.43c-1.15-10.29,4.74-19.58,9.92-28a89,89,0,0,1,7.11-10.38C263.15,166.39,263.15,166.72,263.15,167.06Z" fill="#70cc40"/><path d="M247,209.85a.85.85,0,0,1-.23,0,1,1,0,0,1-.73-.7,30.11,30.11,0,0,1-.91-4.59c-1.17-10.43,4.63-19.83,9.75-28.12l.31-.5a89.14,89.14,0,0,1,7.19-10.5,1,1,0,0,1,1.09-.3,1,1,0,0,1,.68.91c0,.35,0,.69,0,1a62.89,62.89,0,0,1-16.42,42.46A1,1,0,0,1,247,209.85ZM262.12,169c-1.89,2.56-3.59,5.3-5.24,8l-.31.5c-4.95,8-10.56,17.1-9.46,26.85.07.61.19,1.45.4,2.44A60.92,60.92,0,0,0,262.12,169Z" fill="#093f68"/><path d="M262.47,157.94a20,20,0,0,1-6.46,1.91,21.37,21.37,0,0,1-20.47-10.14c-.85-1.46-1.56-3.08-2.88-4.15-2.65-2.15-6.82-1.4-9.52-3.48-3.66-2.84-2.34-8.51-1.48-13.07,1.45-7.67-.17-16.46-5.15-22.11A62.15,62.15,0,0,1,262.47,157.94Z" fill="#70cc40"/><path d="M253.76,161a22.5,22.5,0,0,1-19.08-10.78c-.18-.3-.35-.61-.52-.92a9.69,9.69,0,0,0-2.13-2.95,9.8,9.8,0,0,0-4.37-1.58,11.75,11.75,0,0,1-5.13-1.89c-3.95-3.06-2.87-8.73-2-13.28l.15-.76c1.48-7.85-.45-16.2-4.92-21.27a1,1,0,0,1-.1-1.19,1,1,0,0,1,1.1-.44,62.86,62.86,0,0,1,46.7,51.87,1,1,0,0,1-.55,1,21.21,21.21,0,0,1-6.78,2A20.93,20.93,0,0,1,253.76,161Zm-34.68-52.33c3.54,5.53,4.94,13.25,3.56,20.54l-.14.77c-.81,4.22-1.72,9,1.25,11.32a10.23,10.23,0,0,0,4.3,1.51,11.38,11.38,0,0,1,5.24,2,11.25,11.25,0,0,1,2.62,3.54l.5.88a20.38,20.38,0,0,0,19.49,9.65,19,19,0,0,0,5.47-1.51A60.84,60.84,0,0,0,219.08,108.66Z" fill="#093f68"/><path d="M197,146.66c-1.44-.12-2.79-.73-4.22-.88-5.35-.57-9.38,5.47-9.16,10.84s3.17,10.16,5.39,15c.88,2,1.67,4.11,1.15,6.17-.93,3.69-5.34,5.18-9.13,5.54s-8,.42-10.69,3.14c-3.47,3.56,2.82,24.94-8.78,17.41-1.72-1.11-3.26-3.18-5.26-2.72s-2.49,2.93-3.16,4.84c0,.12-.09.25-.14.37A62.2,62.2,0,0,1,142,147.55h0a33.07,33.07,0,0,1,6.05-3.69c1.22-.57,2.56-1.15,3.19-2.34,1.07-2-.56-4.49-2.54-5.61a10.79,10.79,0,0,0-1.13-.56,62.43,62.43,0,0,1,29.13-25.48,159.07,159.07,0,0,1,19.08,13.64c4,3.32,8,7.2,9.05,12.29S202.13,147.12,197,146.66Z" fill="#70cc40"/><path d="M153,207.42a1,1,0,0,1-.77-.37,63.18,63.18,0,0,1-11.12-59.78,1,1,0,0,1,.36-.52,33.45,33.45,0,0,1,6.23-3.79l.17-.09a5.2,5.2,0,0,0,2.55-1.82c.76-1.4-.5-3.34-2.14-4.27a8.77,8.77,0,0,0-1-.5,1,1,0,0,1-.57-.61,1,1,0,0,1,.09-.83A63.8,63.8,0,0,1,176.34,109a1,1,0,0,1,.91.07,159.9,159.9,0,0,1,19.2,13.72c4.26,3.54,8.34,7.55,9.39,12.87a11.23,11.23,0,0,1-2.65,9.36,7.55,7.55,0,0,1-6.32,2.69h0a13.17,13.17,0,0,1-2.33-.48,14.45,14.45,0,0,0-1.9-.41,6.16,6.16,0,0,0-4.85,1.79,10.86,10.86,0,0,0-3.22,8c.16,4,2,7.89,3.85,11.61.5,1,1,2.05,1.46,3.07.93,2.05,1.8,4.46,1.21,6.83-1.25,4.93-7.41,6-10,6.29l-1.29.11c-3.29.28-6.69.58-8.78,2.73-.94,1-1,4.53-1,7.68,0,4.78,0,9.73-2.77,11.21-1.55.85-3.62.41-6.31-1.34a15,15,0,0,1-1.49-1.13c-1.27-1-2.11-1.67-3-1.46-1.15.26-1.67,1.83-2.17,3.36-.09.29-.18.57-.28.85l-.15.39a1,1,0,0,1-.77.63Zm3.88-7.28c1.54,0,2.79,1,3.92,2a13,13,0,0,0,1.3,1c2,1.28,3.45,1.72,4.28,1.26,1.7-.92,1.71-5.65,1.72-9.46,0-4,0-7.52,1.52-9.07,2.62-2.68,6.57-3,10-3.32l1.27-.11c1.69-.17,7.29-1,8.25-4.79.44-1.76-.26-3.69-1.09-5.51-.46-1-.95-2-1.44-3-1.9-3.91-3.87-7.95-4-12.41a12.85,12.85,0,0,1,3.85-9.56,8,8,0,0,1,6.41-2.31,13,13,0,0,1,2.22.46,11.61,11.61,0,0,0,2,.42h0a5.64,5.64,0,0,0,4.66-2,9.28,9.28,0,0,0,2.16-7.64c-.92-4.7-4.72-8.41-8.7-11.71A157.85,157.85,0,0,0,176.65,111,61.76,61.76,0,0,0,149,134.93l.2.11c2.45,1.38,4.26,4.44,2.92,7a6.85,6.85,0,0,1-3.47,2.7l-.17.08a31.28,31.28,0,0,0-5.62,3.38,61.17,61.17,0,0,0,9.72,56.22c.58-1.75,1.4-3.68,3.43-4.14A3.77,3.77,0,0,1,156.84,200.14Z" fill="#093f68"/></g></svg>