<svg xmlns="http://www.w3.org/2000/svg" viewBox="0 0 400 300"><g id="_55_golf_outline" data-name="#55_golf_outline"><ellipse cx="200" cy="223.92" rx="98.21" ry="19.8" fill="#70cc40"/><path d="M200,244.72c-48.77,0-99.21-7.78-99.21-20.8s50.44-20.81,99.21-20.81,99.21,7.79,99.21,20.81S248.77,244.72,200,244.72Zm0-39.61c-58.15,0-97.21,9.73-97.21,18.81s39.06,18.8,97.21,18.8,97.21-9.72,97.21-18.8S258.15,205.11,200,205.11Z" fill="#093f68"/><path d="M140.82,216.81l-13.58-4.34c4.63-14.48,9.79-31.95,10.17-35.27,0-3.43-1.3-20.79-2.16-31.8l14.22-1.1c.22,2.9,2.2,28.52,2.2,33.06S145.77,201.33,140.82,216.81Z" fill="#093f68"/><path d="M167.84,213.91H153.58V178.08c0-3-1.29-20.77-2.16-32l14.21-1.1c.23,2.9,2.21,28.52,2.21,33.06Z" fill="#093f68"/><path d="M177.6,152.15c-.3.57,14.46,2.85,8.7,8.29a6.08,6.08,0,0,1-3.57,1.51c-3,.33-6.15-1.5-8.86-2.66Z" fill="#ffc9b0"/><path d="M182,163c-2.45,0-4.85-1.11-7-2.09-.52-.24-1-.48-1.53-.69a1,1,0,0,1-.55-.59,1,1,0,0,1,0-.79l3.73-7.14h0a1,1,0,0,1,1.13-.51,1,1,0,0,1,.48.28c.27.1.84.27,1.36.43,3.06.92,8.17,2.47,8.88,5.44.3,1.28-.23,2.57-1.57,3.84a7.21,7.21,0,0,1-4.16,1.77A7.7,7.7,0,0,1,182,163Zm-6.75-4.18.6.27c2.25,1,4.59,2.11,6.77,1.87a5.19,5.19,0,0,0,3-1.23c.78-.75,1.12-1.4,1-1.93-.44-1.85-5.39-3.35-7.51-4-.43-.13-.79-.23-1.08-.33C177.57,154.37,176.74,156,175.25,158.81Zm3.21-6.21h0a.83.83,0,0,0,.11-.36A2.49,2.49,0,0,1,178.46,152.6Z" fill="#093f68"/><path d="M147,162.81a18.32,18.32,0,0,0,15.94-5.3l-3.55-12.66-16.7,2.59S137,161.31,147,162.81Z" fill="#093f68"/><path d="M165.61,118.8c-2.64-4.71-3.73-6.72-8.13-6.72h-12a9.18,9.18,0,0,0-9.18,9.18v30h30.4l-.11-2s-1.48,6.92,8.2,11.82l6.14-11.85C167.84,143.46,170,126.72,165.61,118.8Z" fill="#68e1fd"/><path d="M174.74,162a1,1,0,0,1-.45-.1c-6.13-3.11-8.08-7-8.63-9.71H136.25a1,1,0,0,1-1-1V121.26a10.2,10.2,0,0,1,10.18-10.18h12c5,0,6.28,2.37,8.93,7.1l.07.13h0c1.48,2.69,2.23,6.26,3,10,1.6,7.61,3.41,16.24,11.78,19.9a1,1,0,0,1,.48,1.37l-6.14,11.86A1,1,0,0,1,174.74,162Zm-7.17-10.43c.38,2.09,1.82,5.32,6.75,8.08l5.2-10c-8.48-4.27-10.33-13.07-12-20.86-.76-3.63-1.48-7.06-2.82-9.49l-.07-.13c-2.55-4.54-3.41-6.07-7.18-6.07h-12a8.19,8.19,0,0,0-8.18,8.18v29h28.21a7,7,0,0,1,.1-1.22,1,1,0,0,1,2,.16l.11,2A1,1,0,0,1,167.57,151.59Z" fill="#093f68"/><polygon points="153.55 126.61 149.38 115.3 155.81 115.3 153.55 126.61" fill="#fff"/><path d="M153.55,127.61a1,1,0,0,1-.94-.65l-4.17-11.31a1,1,0,0,1,.11-.92,1,1,0,0,1,.83-.43h6.43a1,1,0,0,1,1,1.2l-2.26,11.31a1,1,0,0,1-.9.8Zm-2.74-11.31,2.45,6.65,1.33-6.65Z" fill="#093f68"/><path d="M163.5,149.27a1,1,0,0,1-1-1V125a1,1,0,1,1,2,0v23.24A1,1,0,0,1,163.5,149.27Z" fill="#093f68"/><path d="M159.17,58.61A14.91,14.91,0,0,1,163,61a11.87,11.87,0,0,0-2.5-4.73c5.49,1.42,10.94,3.95,14.46,8.4,6,7.6,2,15-1.22,22.59-1.63,3.9-3.52,7.68-5.28,11.53l-34.7-7.86s.92-8.66,2.51-15.72a47.67,47.67,0,0,1,1.5-4.56c.65-1.92.5-1.74-1.21-3.06a1.24,1.24,0,0,1-.57-.8c0-1,1.83-.49,2.52-1.23a9,9,0,0,1-3.27-1.66,14.47,14.47,0,0,1,12.9-3.28l-2.27-2.4a1.06,1.06,0,0,1-.37-.69c0-.48.64-.64,1.12-.67C150.83,56.6,155.35,56.91,159.17,58.61Z" fill="#725858"/><path d="M168.42,99.8l-.22,0-34.7-7.86a1,1,0,0,1-.78-1.08c0-.09.95-8.81,2.54-15.84a25.74,25.74,0,0,1,1-3.25c.17-.47.34-.94.5-1.41a6.35,6.35,0,0,0,.29-1.08s-.36-.26-.65-.48l-.52-.39a2.09,2.09,0,0,1-.95-1.55,1.42,1.42,0,0,1,.72-1.38,9.53,9.53,0,0,1-1.11-.77,1,1,0,0,1,0-1.52,15.4,15.4,0,0,1,10.89-3.92l-.32-.34a1.94,1.94,0,0,1-.64-1.42c0-.73.6-1.53,2-1.62,5.22-.32,9.61.29,13.07,1.83.37.17.73.34,1.09.53a10.11,10.11,0,0,0-1-1.29,1,1,0,0,1-.09-1.19,1,1,0,0,1,1.1-.44c6.72,1.73,11.77,4.68,15,8.75,5.86,7.38,2.77,14.6-.22,21.57-.29.67-.57,1.35-.86,2-1.07,2.58-2.28,5.14-3.44,7.61-.62,1.32-1.24,2.63-1.85,4A1,1,0,0,1,168.42,99.8Zm-33.61-9.63,33,7.48c.5-1.09,1-2.16,1.52-3.24,1.16-2.46,2.35-5,3.41-7.53.28-.68.57-1.36.86-2,2.89-6.73,5.61-13.09.5-19.54-2.52-3.18-6.31-5.62-11.28-7.27a12.72,12.72,0,0,1,1.07,2.72,1,1,0,0,1-.44,1.11,1,1,0,0,1-1.18-.1,14.24,14.24,0,0,0-3.55-2.23h0c-3.11-1.39-7.11-2-11.9-1.68l2,2.09a1,1,0,0,1-1,1.66,13.61,13.61,0,0,0-11,2.24,7.84,7.84,0,0,0,1.85.76,1,1,0,0,1,.71.69,1,1,0,0,1-.23,1,2.9,2.9,0,0,1-1.78.77l.21.17c1.61,1.21,1.75,1.71,1.05,3.78-.16.5-.34,1-.51,1.46a23.31,23.31,0,0,0-1,3C135.94,81.06,135.09,87.79,134.81,90.17Z" fill="#093f68"/><path d="M149.37,110.53H156a0,0,0,0,1,0,0v3.8a2.8,2.8,0,0,1-2.8,2.8h-1a2.8,2.8,0,0,1-2.8-2.8v-3.8A0,0,0,0,1,149.37,110.53Z" fill="#ffc9b0"/><path d="M153.17,118.12h-1a3.8,3.8,0,0,1-3.8-3.8v-3.79a1,1,0,0,1,1-1H156a1,1,0,0,1,1,1v3.79A3.8,3.8,0,0,1,153.17,118.12Zm-2.79-6.59v2.79a1.79,1.79,0,0,0,1.8,1.8h1a1.79,1.79,0,0,0,1.8-1.8v-2.79Z" fill="#093f68"/><ellipse cx="172.33" cy="97.76" rx="5.52" ry="4.94" transform="translate(38.93 244.25) rotate(-77.24)" fill="#ffc9b0"/><path d="M172.09,104.26a4.92,4.92,0,0,1-1.2-.14,5.65,5.65,0,0,1-3.71-2.83,7,7,0,0,1,2-8.93,5.67,5.67,0,0,1,4.57-1c3.19.72,5.15,4.16,4.35,7.67A6.41,6.41,0,0,1,172.09,104.26Zm.47-11a3.81,3.81,0,0,0-2.2.73,5,5,0,0,0-1.43,6.32,3.62,3.62,0,0,0,2.4,1.86,4.26,4.26,0,0,0,4.84-3.54c.55-2.43-.72-4.8-2.84-5.28A3.44,3.44,0,0,0,172.56,93.26Z" fill="#093f68"/><path d="M151.49,111.51c-10.59-2.4-17.1-17.61-14.74-28l2.3,1.52,1.58-7.39s14.05-.49,13.7-7.05c0,0,2.84,5.5,8.44,6.75,10.28,2.3,14.91.49,14.91.49l-4.26,18.83C171.06,107.06,162.07,113.9,151.49,111.51Z" fill="#ffc9b0"/><path d="M155.72,113a20.26,20.26,0,0,1-4.45-.51h0c-11.13-2.52-17.94-18.43-15.5-29.21a1,1,0,0,1,1.53-.61l1.08.71,1.27-6a1,1,0,0,1,.94-.79c.09,0,8.86-.35,11.85-3.62a3.13,3.13,0,0,0,.89-2.38,1,1,0,0,1,1.89-.52c0,.06,2.71,5.11,7.76,6.24,9.77,2.19,14.3.55,14.35.54a1,1,0,0,1,1,.18,1,1,0,0,1,.32,1l-4.27,18.84C172.16,106.75,164.65,113,155.72,113Zm-4-2.46c9.66,2.19,18.39-3.74,20.73-14.11l3.91-17.26c-2.24.4-6.74.72-13.8-.87a14,14,0,0,1-7.75-5.21,5.32,5.32,0,0,1-.89,1.27c-3,3.28-10.08,4.06-12.46,4.23L140,85.22a1,1,0,0,1-.6.72,1,1,0,0,1-.93-.09l-1-.7c-1.76,11.5,6.19,23.55,14.26,25.38Z" fill="#093f68"/><ellipse cx="151.53" cy="89.21" rx="1.79" ry="1.79" transform="translate(31.06 217.29) rotate(-77.24)" fill="#093f68"/><circle cx="168.33" cy="93.01" r="1.79" fill="#093f68"/><path d="M161.09,96.72a9.55,9.55,0,0,1-3.2-.73,1,1,0,1,1,.77-1.84,8.94,8.94,0,0,0,2.05.55,15.92,15.92,0,0,0-.6-3.88,1,1,0,0,1,1.93-.51c.55,2.08,1,4.79.25,5.84a1.39,1.39,0,0,1-1.1.57Z" fill="#093f68"/><path d="M154.43,86.56a1.86,1.86,0,0,1-.61-.1l-8.12-2.63a2,2,0,1,1,1.23-3.8l8.12,2.63a2,2,0,0,1-.62,3.9Z" fill="#093f68"/><path d="M171.67,88.37h-.13L163,87.84a2,2,0,0,1-1.87-2.12,2,2,0,0,1,2.12-1.88l8.52.53a2,2,0,0,1-.12,4Z" fill="#093f68"/><path d="M140.24,85.68s-3.89-4.23-7.3-.69-2.6,11.08,5.48,10.77" fill="#ffc9b0"/><path d="M138,96.77c-3.5,0-6.15-1.46-7.31-4.06a7.83,7.83,0,0,1,1.57-8.41A5.08,5.08,0,0,1,136,82.58,7.71,7.71,0,0,1,141,85a1,1,0,1,1-1.47,1.36h0a5.73,5.73,0,0,0-3.5-1.78,3.18,3.18,0,0,0-2.34,1.1,5.84,5.84,0,0,0-1.18,6.21c.88,2,3,3,5.9,2.87a1,1,0,0,1,1,1,1,1,0,0,1-1,1Z" fill="#093f68"/><path d="M158,104.42a9.45,9.45,0,0,1-4.15-.9c-2.36-1.14-4-3.31-5-6.44a1,1,0,0,1,.67-1.24,1,1,0,0,1,1.25.67,7.92,7.92,0,0,0,3.89,5.21c3.1,1.51,6.76.11,6.79.09a1,1,0,0,1,.74,1.86A12.45,12.45,0,0,1,158,104.42Z" fill="#093f68"/><path d="M203.54,218.59a4.05,4.05,0,0,1-1.79-.36,2.26,2.26,0,0,1-1.29-1.43l-25.15-81.72a1,1,0,0,1,1.91-.59l25.18,81.79h0s1.14,1.44,7.77-1.86a1,1,0,1,1,.89,1.79C207.88,217.79,205.37,218.59,203.54,218.59Z" fill="#093f68"/><path d="M172.19,144.9c-.14.36,11.68,2.25,12.44,2.88a4,4,0,0,1,.67,4.85,5.83,5.83,0,0,1-4.36,2.69c-3.81.51-8.22-1.8-11.82-3Z" fill="#ffc9b0"/><path d="M179.83,156.39c-2.78,0-5.7-1.11-8.32-2.11-.95-.36-1.85-.7-2.7-1a1,1,0,0,1-.62-1.33c2-4.78,2.71-6.56,3-7.27a1.27,1.27,0,0,1,.06-.18h0c.12-.26.15-.29.2-.33a1,1,0,0,1,1.26-.13l0,0c.64.21,3,.68,5,1.05,5.77,1.14,7,1.45,7.53,1.87a5,5,0,0,1,.9,6.1,6.81,6.81,0,0,1-5.09,3.19A8.65,8.65,0,0,1,179.83,156.39Zm-9.38-4.64c.58.2,1.17.43,1.78.66,2.92,1.12,5.94,2.27,8.58,1.92a4.79,4.79,0,0,0,3.62-2.2,3,3,0,0,0-.39-3.53c-.69-.31-4.29-1-6.69-1.48s-3.76-.75-4.6-1C172.18,147.56,171.05,150.29,170.45,151.75Zm2.67-6.47h0Zm.07-.34a1,1,0,0,1-.07.34A.83.83,0,0,0,173.19,144.94Z" fill="#093f68"/><path d="M146.7,118.32c3.5,7.47,11.39,18.62,28.75,25.8l-3.66,11.63s-.68-.18-1-.32c-15.49-6.41-24.88-15.62-30.53-23.88" fill="#68e1fd"/><path d="M171.79,156.75a1.09,1.09,0,0,1-.26,0c-.08,0-.76-.21-1.14-.36-13.32-5.51-23.74-13.67-31-24.25a1,1,0,0,1,1.65-1.13c7,10.25,17.13,18.16,30.07,23.52l3.1-9.82c-16.81-7.19-24.74-18-28.44-25.93a1,1,0,0,1,1.81-.85c3.61,7.71,11.44,18.35,28.23,25.29a1,1,0,0,1,.58,1.23l-3.67,11.63A1,1,0,0,1,171.79,156.75Z" fill="#093f68"/><path d="M134.71,77l55.2,10.53a107,107,0,0,0-9.66-5.61l.27-8.45-44.26-5.26Z" fill="#ffbc0e"/><path d="M189.91,88.54l-.19,0L134.53,78a1,1,0,0,1-.8-1.15l1.55-8.79a1,1,0,0,1,1.1-.82l44.25,5.26a1,1,0,0,1,.89,1l-.25,7.82c5.08,2.64,9.15,5.35,9.19,5.37a1,1,0,0,1,.37,1.22A1,1,0,0,1,189.91,88.54Zm-54-12.33,48.88,9.33c-1.44-.85-3.14-1.79-4.95-2.72a1,1,0,0,1-.55-.92l.24-7.53-42.41-5Z" fill="#093f68"/><polygon points="156.1 213.91 156.1 220.71 175.16 220.71 164.93 213.91 156.1 213.91" fill="#f56132"/><path d="M175.17,221.71H156.1a1,1,0,0,1-1-1v-6.79a1,1,0,0,1,1-1h8.83a1,1,0,0,1,.55.16l10.24,6.79a1,1,0,0,1,.4,1.12A1,1,0,0,1,175.17,221.71Zm-18.07-2h14.75l-7.22-4.79H157.1Z" fill="#093f68"/><path d="M129.17,213.09l-1.93,6.68s9.19,2.81,9.8,2.81,10,.13,9.71-.94-8.51-5.66-8.51-5.66Z" fill="#f56132"/><path d="M138.36,223.58H137c-.51,0-3.9-1-10.09-2.85a1,1,0,0,1-.67-1.24l1.93-6.68a1,1,0,0,1,.49-.61,1.05,1.05,0,0,1,.78-.07l9.06,2.9a.75.75,0,0,1,.18.08c8.62,4.8,8.89,5.88,9,6.29a1.2,1.2,0,0,1-.23,1C147.13,222.89,146.58,223.58,138.36,223.58Zm-1.12-2a58.72,58.72,0,0,0,7.74-.28,81.34,81.34,0,0,0-7.14-4.39l-8-2.56-1.37,4.75c3.94,1.2,8.08,2.41,8.63,2.48Z" fill="#093f68"/><path d="M200.59,212.76s9.08-3.07,10.33-3,1.66,2.84.49,4.93a7,7,0,0,1-5.35,3.73C201,219.38,200,213.37,200.59,212.76Z" fill="#093f68"/><path d="M205.05,219.53a5.24,5.24,0,0,1-4.73-2.91c-.73-1.33-1.29-3.66-.46-4.54a.93.93,0,0,1,.41-.26c2.79-.95,9.42-3.12,10.71-3a2,2,0,0,1,1.65,1.15,5.91,5.91,0,0,1-.34,5.27,8,8,0,0,1-6,4.23A7.33,7.33,0,0,1,205.05,219.53Zm-3.61-6a5.2,5.2,0,0,0,1.27,3,3.23,3.23,0,0,0,3.17.9,6,6,0,0,0,4.66-3.24c.86-1.54.54-3.24.24-3.46A90,90,0,0,0,201.44,213.53Z" fill="#093f68"/><path d="M272,218.79a1,1,0,0,1-1-1V138.63a1,1,0,0,1,2,0v79.16A1,1,0,0,1,272,218.79Z" fill="#093f68"/><polygon points="271.99 157.07 271.99 139.82 298.21 148.44 271.99 157.07" fill="#68e1fd"/><path d="M272,158.07a1,1,0,0,1-.59-.19,1,1,0,0,1-.41-.81V139.82a1,1,0,0,1,1.31-.95l26.22,8.62a1,1,0,0,1,.69.95,1,1,0,0,1-.69.95L272.3,158A1.12,1.12,0,0,1,272,158.07Zm1-16.87v14.49l22-7.25Z" fill="#093f68"/><ellipse cx="262.39" cy="217.8" rx="9.6" ry="2.64" fill="#093f68"/><path d="M262.39,221.44c-3.94,0-10.6-.77-10.6-3.65s6.66-3.64,10.6-3.64,10.6.77,10.6,3.64S266.32,221.44,262.39,221.44Zm-8.56-3.65c.5.55,3.33,1.65,8.56,1.65s8.05-1.1,8.55-1.65c-.5-.54-3.33-1.64-8.55-1.64S254.33,217.25,253.83,217.79Zm17.17.09h0Z" fill="#093f68"/><path d="M219.91,223a1,1,0,0,1-1-1V219a1,1,0,0,1,2,0V222A1,1,0,0,1,219.91,223Z" fill="#093f68"/><circle cx="219.91" cy="214.2" r="4.82" fill="#fff"/><path d="M219.91,220a5.82,5.82,0,1,1,5.82-5.82A5.83,5.83,0,0,1,219.91,220Zm0-9.64a3.82,3.82,0,1,0,3.82,3.82A3.83,3.83,0,0,0,219.91,210.38Z" fill="#093f68"/><path d="M165.91,154.24a1,1,0,0,1-.94-1.35l4.21-11.59a1,1,0,1,1,1.88.68l-4.21,11.6A1,1,0,0,1,165.91,154.24Z" fill="#093f68"/></g></svg>