<svg xmlns="http://www.w3.org/2000/svg" viewBox="0 0 400 300"><g id="_188_google_ad_outline" data-name="#188_google_ad_outline"><path d="M104.07,100.6H295.93a0,0,0,0,1,0,0V207.85a6.84,6.84,0,0,1-6.84,6.84H110.9a6.84,6.84,0,0,1-6.84-6.84V100.6A0,0,0,0,1,104.07,100.6Z" fill="#fff"/><path d="M289.1,215.69H110.9a7.84,7.84,0,0,1-7.83-7.84V100.6a1,1,0,0,1,1-1H295.93a1,1,0,0,1,1,1V207.85A7.84,7.84,0,0,1,289.1,215.69Zm-184-114.09V207.85a5.84,5.84,0,0,0,5.83,5.84H289.1a5.84,5.84,0,0,0,5.83-5.84V101.6Z" fill="#093f68"/><path d="M110.9,81.79H289.1a6.84,6.84,0,0,1,6.84,6.84V104a0,0,0,0,1,0,0H104.07a0,0,0,0,1,0,0V88.63A6.84,6.84,0,0,1,110.9,81.79Z" fill="#68e1fd"/><path d="M295.93,105H104.07a1,1,0,0,1-1-1V88.63a7.84,7.84,0,0,1,7.83-7.84H289.1a7.84,7.84,0,0,1,7.83,7.84V104A1,1,0,0,1,295.93,105Zm-190.86-2H294.93V88.63a5.84,5.84,0,0,0-5.83-5.84H110.9a5.84,5.84,0,0,0-5.83,5.84Z" fill="#093f68"/><rect x="124.14" y="195.24" width="42.34" height="9.96" fill="#ffbc0e"/><path d="M166.48,206.2H124.14a1,1,0,0,1-1-1v-10a1,1,0,0,1,1-1h42.34a1,1,0,0,1,1,1v10A1,1,0,0,1,166.48,206.2Zm-41.34-2h40.34v-8H125.14Z" fill="#093f68"/><rect x="120.48" y="113.82" width="131.53" height="50.73" fill="#68e1fd"/><path d="M252,165.56H120.48a1,1,0,0,1-1-1V113.82a1,1,0,0,1,1-1H252a1,1,0,0,1,1,1v50.74A1,1,0,0,1,252,165.56Zm-130.53-2H251V114.82H121.48Z" fill="#093f68"/><polygon points="291.73 172.45 232.94 148.09 240.31 211.29 254.47 200.59 270.8 222.21 293.9 204.76 277.57 183.14 291.73 172.45" fill="#fff"/><path d="M270.8,223.21a1,1,0,0,1-.8-.4L254.27,202l-13.36,10.1a1,1,0,0,1-1.59-.68L232,148.21a1,1,0,0,1,.39-.92,1,1,0,0,1,1-.12l58.78,24.35a1,1,0,0,1,.22,1.72L279,183.34l15.73,20.82a1,1,0,0,1-.2,1.4L271.4,223A1,1,0,0,1,270.8,223.21Zm-16.33-23.62a1,1,0,0,1,.8.4L271,220.81l21.5-16.24-15.73-20.82a1,1,0,0,1,.19-1.41l12.77-9.64-55.6-23,7,59.77,12.77-9.64A1,1,0,0,1,254.47,199.59Z" fill="#093f68"/><path d="M260.11,128a1,1,0,0,1-.63-.23,1,1,0,0,1-.15-1.41l10.81-13.25a1,1,0,0,1,1.55,1.27l-10.8,13.25A1,1,0,0,1,260.11,128Z" fill="#dfeaef"/><path d="M263.42,138.35a1,1,0,0,1-.3-2L276.76,132a1,1,0,0,1,1.26.65,1,1,0,0,1-.65,1.26l-13.64,4.35A1.18,1.18,0,0,1,263.42,138.35Z" fill="#dfeaef"/><path d="M278.83,151.81l-.19,0-14.26-2.72a1,1,0,1,1,.37-2L279,149.83a1,1,0,0,1-.19,2Z" fill="#dfeaef"/><path d="M230.43,176.93H120.92a1,1,0,0,1,0-2H230.43a1,1,0,0,1,0,2Z" fill="#dfeaef"/><path d="M225.59,188.3H139.18a1,1,0,0,1,0-2h86.41a1,1,0,0,1,0,2Z" fill="#dfeaef"/><path d="M231.11,201.22H175.68a1,1,0,0,1,0-2h55.43a1,1,0,0,1,0,2Z" fill="#dfeaef"/><path d="M170.74,128.83h4.33l10.36,23.81h-5.92l-2-5h-9.25l-2,5h-5.78Zm2,6.93-2.89,7.4h5.82Z" fill="#093f68"/><path d="M204.33,152.64h-4.64v-2.15h-.07a5.68,5.68,0,0,1-.79.89,6.15,6.15,0,0,1-1.14.82,7,7,0,0,1-1.45.61,5.58,5.58,0,0,1-1.63.23,8.37,8.37,0,0,1-3.3-.62,7.14,7.14,0,0,1-2.53-1.75,7.71,7.71,0,0,1-1.63-2.67,9.5,9.5,0,0,1-.58-3.39,10.48,10.48,0,0,1,.52-3.28,9.25,9.25,0,0,1,1.48-2.78,7.3,7.3,0,0,1,2.34-1.93,6.66,6.66,0,0,1,3.13-.72,8.8,8.8,0,0,1,2.94.48,4.75,4.75,0,0,1,2.24,1.67h.06V127.22h5.05Zm-4.64-8.17a4.25,4.25,0,0,0-1.06-3,4.42,4.42,0,0,0-5.95,0,4.75,4.75,0,0,0,0,6,4.42,4.42,0,0,0,5.95,0A4.25,4.25,0,0,0,199.69,144.47Z" fill="#093f68"/><circle cx="118.29" cy="92.91" r="3.87" fill="#f56132"/><path d="M118.29,97.77a4.87,4.87,0,1,1,4.87-4.86A4.87,4.87,0,0,1,118.29,97.77Zm0-7.73a2.87,2.87,0,1,0,2.87,2.87A2.86,2.86,0,0,0,118.29,90Z" fill="#093f68"/><circle cx="133.92" cy="92.91" r="3.87" fill="#ffbc0e"/><path d="M133.92,97.77a4.87,4.87,0,1,1,4.87-4.86A4.87,4.87,0,0,1,133.92,97.77Zm0-7.73a2.87,2.87,0,1,0,2.87,2.87A2.87,2.87,0,0,0,133.92,90Z" fill="#093f68"/><circle cx="149.55" cy="92.91" r="3.87" fill="#70cc40"/><path d="M149.55,97.77a4.87,4.87,0,1,1,4.87-4.86A4.87,4.87,0,0,1,149.55,97.77Zm0-7.73a2.87,2.87,0,1,0,2.87,2.87A2.87,2.87,0,0,0,149.55,90Z" fill="#093f68"/></g></svg>