<svg xmlns="http://www.w3.org/2000/svg" viewBox="0 0 400 300"><g id="_509_graphic_outline" data-name="#509_graphic_outline"><rect x="195.87" y="198.9" width="8.26" height="44.94" fill="#68e1fd"/><path d="M204.13,244.85h-8.26a1,1,0,0,1-1-1V198.9a1,1,0,0,1,1-1h8.26a1,1,0,0,1,1,1v44.95A1,1,0,0,1,204.13,244.85Zm-7.26-2h6.26V199.9h-6.26Z" fill="#093f68"/><polygon points="153.27 243.84 178 198.9 169.74 198.9 145.01 243.84 153.27 243.84" fill="#68e1fd"/><path d="M153.27,244.85H145a1,1,0,0,1-.87-1.49l24.72-44.94a1,1,0,0,1,.88-.52H178a1,1,0,0,1,.87,1.49l-24.72,44.94A1,1,0,0,1,153.27,244.85Zm-6.57-2h6l23.63-42.95h-6Z" fill="#093f68"/><polygon points="254.99 243.84 230.26 198.9 222 198.9 246.73 243.84 254.99 243.84" fill="#68e1fd"/><path d="M255,244.85h-8.26a1,1,0,0,1-.88-.52l-24.72-44.94a1,1,0,0,1,.87-1.49h8.26a1,1,0,0,1,.88.52l24.72,44.94a1,1,0,0,1-.87,1.49Zm-7.67-2h6L229.67,199.9h-6Z" fill="#093f68"/><rect x="195.75" y="56.15" width="8.49" height="83.99" fill="#68e1fd"/><path d="M204.25,141.15h-8.5a1,1,0,0,1-1-1v-84a1,1,0,0,1,1-1h8.5a1,1,0,0,1,1,1v84A1,1,0,0,1,204.25,141.15Zm-7.5-2h6.5v-82h-6.5Z" fill="#093f68"/><rect x="130.87" y="78.33" width="138.26" height="124.11" fill="#fff"/><path d="M269.13,203.44H130.87a1,1,0,0,1-1-1V78.33a1,1,0,0,1,1-1H269.13a1,1,0,0,1,1,1V202.44A1,1,0,0,1,269.13,203.44Zm-137.26-2H268.13V79.33H131.87Z" fill="#093f68"/><rect x="127.6" y="202.44" width="144.79" height="9.78" rx="3.89" fill="#68e1fd"/><path d="M268.51,213.22h-137a4.9,4.9,0,0,1-4.89-4.89v-2a4.9,4.9,0,0,1,4.89-4.89h137a4.9,4.9,0,0,1,4.89,4.89v2A4.9,4.9,0,0,1,268.51,213.22Zm-137-9.78a2.9,2.9,0,0,0-2.89,2.89v2a2.89,2.89,0,0,0,2.89,2.89h137a2.89,2.89,0,0,0,2.89-2.89v-2a2.9,2.9,0,0,0-2.89-2.89Z" fill="#093f68"/><rect x="174.52" y="70.31" width="50.96" height="8.02" fill="#68e1fd"/><path d="M225.48,79.33h-51a1,1,0,0,1-1-1v-8a1,1,0,0,1,1-1h51a1,1,0,0,1,1,1v8A1,1,0,0,1,225.48,79.33Zm-50-2h49v-6h-49Z" fill="#093f68"/><rect x="157.53" y="158.73" width="19.64" height="19.64" fill="#f56132"/><path d="M177.17,179.37H157.53a1,1,0,0,1-1-1V158.73a1,1,0,0,1,1-1h19.64a1,1,0,0,1,1,1v19.64A1,1,0,0,1,177.17,179.37Zm-18.64-2h17.64V159.73H158.53Z" fill="#093f68"/><rect x="190.18" y="146.14" width="19.64" height="32.23" fill="#ffbc0e"/><path d="M209.82,179.37H190.18a1,1,0,0,1-1-1V146.14a1,1,0,0,1,1-1h19.64a1,1,0,0,1,1,1v32.23A1,1,0,0,1,209.82,179.37Zm-18.64-2h17.64V147.14H191.18Z" fill="#093f68"/><rect x="222.83" y="125.72" width="19.64" height="52.65" fill="#70cc40"/><path d="M242.47,179.37H222.83a1,1,0,0,1-1-1V125.72a1,1,0,0,1,1-1h19.64a1,1,0,0,1,1,1v52.65A1,1,0,0,1,242.47,179.37Zm-18.64-2h17.64V126.72H223.83Z" fill="#093f68"/><path d="M160,143.27a1,1,0,0,1-.28-2,282.73,282.73,0,0,0,29.06-10.8c14.73-6.39,35.14-16.77,48.74-30a1,1,0,0,1,1.39,1.44c-26.42,25.71-78.11,41.14-78.63,41.29A.9.9,0,0,1,160,143.27Z" fill="#093f68"/><path d="M236.45,115h-.13a1,1,0,0,1-.86-1.13l1.61-11.6H225.48a1,1,0,0,1,0-2h12.74a1,1,0,0,1,1,1.14l-1.77,12.74A1,1,0,0,1,236.45,115Z" fill="#093f68"/><path d="M179.92,108.93h-5.49a1,1,0,0,1,0-2h5.49a1,1,0,1,1,0,2Z" fill="#dfeaef"/><path d="M186.91,99.15H158.68a1,1,0,0,1,0-2h28.23a1,1,0,0,1,0,2Z" fill="#dfeaef"/><path d="M168.12,108.93H153.28a1,1,0,0,1,0-2h14.84a1,1,0,0,1,0,2Z" fill="#dfeaef"/><path d="M168.12,119.92H153.28a1,1,0,0,1,0-2h14.84a1,1,0,0,1,0,2Z" fill="#dfeaef"/><path d="M255,179.37H145a1,1,0,0,1,0-2H255a1,1,0,0,1,0,2Z" fill="#093f68"/><path d="M253.71,192H236.53a1,1,0,0,1,0-2h17.18a1,1,0,0,1,0,2Z" fill="#dfeaef"/><path d="M230.06,192h-7.23a1,1,0,0,1,0-2h7.23a1,1,0,0,1,0,2Z" fill="#dfeaef"/></g></svg>