<svg xmlns="http://www.w3.org/2000/svg" viewBox="0 0 400 300"><g id="_46_graphic_chart_outline" data-name="#46_graphic_chart_outline"><path d="M290.66,100.51v99a12.17,12.17,0,0,1-12.18,12.17h-157a12.17,12.17,0,0,1-12.18-12.17v-99a12.17,12.17,0,0,1,12.18-12.17h157A12.17,12.17,0,0,1,290.66,100.51Z" fill="#fff"/><path d="M278.48,212.66h-157a13.2,13.2,0,0,1-13.19-13.17v-99a13.2,13.2,0,0,1,13.19-13.17h157a13.2,13.2,0,0,1,13.19,13.17v99A13.2,13.2,0,0,1,278.48,212.66Zm-157-123.32a11.19,11.19,0,0,0-11.19,11.17v99a11.19,11.19,0,0,0,11.19,11.17h157a11.19,11.19,0,0,0,11.19-11.17v-99a11.19,11.19,0,0,0-11.19-11.17Z" fill="#093f68"/><rect x="125.67" y="163.92" width="17.88" height="30.47" fill="#68e1fd"/><path d="M143.55,195.39H125.67a1,1,0,0,1-1-1V163.92a1,1,0,0,1,1-1h17.88a1,1,0,0,1,1,1v30.47A1,1,0,0,1,143.55,195.39Zm-16.88-2h15.88V164.92H126.67Z" fill="#093f68"/><rect x="158.36" y="152.14" width="17.88" height="42.26" fill="#68e1fd"/><path d="M176.24,195.39H158.36a1,1,0,0,1-1-1V152.14a1,1,0,0,1,1-1h17.88a1,1,0,0,1,1,1v42.25A1,1,0,0,1,176.24,195.39Zm-16.88-2h15.88V153.14H159.36Z" fill="#093f68"/><rect x="191.06" y="130.57" width="17.88" height="63.82" fill="#68e1fd"/><path d="M208.94,195.39H191.06a1,1,0,0,1-1-1V130.57a1,1,0,0,1,1-1h17.88a1,1,0,0,1,1,1v63.82A1,1,0,0,1,208.94,195.39Zm-16.88-2h15.88V131.57H192.06Z" fill="#093f68"/><rect x="223.76" y="165.2" width="17.88" height="29.19" fill="#68e1fd"/><path d="M241.64,195.39H223.76a1,1,0,0,1-1-1V165.21a1,1,0,0,1,1-1h17.88a1,1,0,0,1,1,1v29.18A1,1,0,0,1,241.64,195.39Zm-16.88-2h15.88V166.21H224.76Z" fill="#093f68"/><rect x="256.45" y="130.57" width="17.88" height="63.82" fill="#68e1fd"/><path d="M274.33,195.39H256.45a1,1,0,0,1-1-1V130.57a1,1,0,0,1,1-1h17.88a1,1,0,0,1,1,1v63.82A1,1,0,0,1,274.33,195.39Zm-16.88-2h15.88V131.57H257.45Z" fill="#093f68"/><path d="M232.7,175.13a1,1,0,0,1-.73-.31L199.84,141l-32,20.6-.17.09L135,174.74a1,1,0,1,1-.74-1.86l32.6-13,32.62-21a1,1,0,0,1,1.27.16l32,33.68,32-33.68a1,1,0,1,1,1.45,1.37l-32.7,34.45A1,1,0,0,1,232.7,175.13Z" fill="#093f68"/><circle cx="134.61" cy="173.81" r="4.95" fill="#f56132"/><path d="M134.61,179.76a5.95,5.95,0,1,1,5.94-5.95A6,6,0,0,1,134.61,179.76Zm0-9.89a3.95,3.95,0,1,0,3.94,3.94A3.94,3.94,0,0,0,134.61,169.87Z" fill="#093f68"/><circle cx="167.3" cy="160.73" r="4.95" fill="#f56132"/><path d="M167.3,166.68a5.95,5.95,0,1,1,5.95-6A6,6,0,0,1,167.3,166.68Zm0-9.89a3.95,3.95,0,1,0,3.95,3.94A3.94,3.94,0,0,0,167.3,156.79Z" fill="#093f68"/><circle cx="200" cy="139.68" r="4.95" fill="#f56132"/><path d="M200,145.63a5.95,5.95,0,1,1,5.95-5.95A6,6,0,0,1,200,145.63Zm0-9.89a3.95,3.95,0,1,0,3.95,3.94A3.95,3.95,0,0,0,200,135.74Z" fill="#093f68"/><circle cx="232.7" cy="174.13" r="4.95" fill="#f56132"/><path d="M232.7,180.08a5.95,5.95,0,1,1,5.94-6A6,6,0,0,1,232.7,180.08Zm0-9.89a3.95,3.95,0,1,0,3.94,3.94A3.95,3.95,0,0,0,232.7,170.19Z" fill="#093f68"/><circle cx="265.39" cy="139.68" r="4.95" fill="#f56132"/><path d="M265.39,145.63a5.95,5.95,0,1,1,5.95-5.95A5.95,5.95,0,0,1,265.39,145.63Zm0-9.89a3.95,3.95,0,1,0,3.95,3.94A3.95,3.95,0,0,0,265.39,135.74Z" fill="#093f68"/><path d="M290.66,100.51v3.41H109.34v-3.41a12.17,12.17,0,0,1,12.18-12.17h157A12.17,12.17,0,0,1,290.66,100.51Z" fill="#68e1fd"/><path d="M290.67,104.92H109.33a1,1,0,0,1-1-1v-3.41a13.2,13.2,0,0,1,13.19-13.17h157a13.2,13.2,0,0,1,13.19,13.17v3.41A1,1,0,0,1,290.67,104.92Zm-180.34-2H289.67v-2.41a11.19,11.19,0,0,0-11.19-11.17h-157a11.19,11.19,0,0,0-11.19,11.17Z" fill="#093f68"/><path d="M276.58,119.56H251a1,1,0,1,1,0-2h25.62a1,1,0,0,1,0,2Z" fill="#dfeaef"/><path d="M160,122.18H130.46a1,1,0,0,1,0-2H160a1,1,0,1,1,0,2Z" fill="#ffbc0e"/><path d="M171.79,133.4H130.46a1,1,0,0,1,0-2h41.33a1,1,0,0,1,0,2Z" fill="#ffbc0e"/><path d="M177.7,122.18H166.09a1,1,0,1,1,0-2H177.7a1,1,0,0,1,0,2Z" fill="#f56132"/><rect x="242.12" y="76.71" width="60.54" height="44.47" rx="4.89" fill="#fff"/><path d="M297.77,122.18H247a5.89,5.89,0,0,1-5.89-5.89V81.6A5.89,5.89,0,0,1,247,75.71h50.76a5.9,5.9,0,0,1,5.89,5.89v34.69A5.9,5.9,0,0,1,297.77,122.18ZM247,77.71a3.89,3.89,0,0,0-3.89,3.89v34.69a3.89,3.89,0,0,0,3.89,3.89h50.76a3.89,3.89,0,0,0,3.89-3.89V81.6a3.89,3.89,0,0,0-3.89-3.89Z" fill="#093f68"/><path d="M292.05,113.2h-39a1,1,0,0,1-1-1V83.71a1,1,0,1,1,2,0V111.2h38a1,1,0,0,1,0,2Z" fill="#68e1fd"/><path d="M257.56,107.7a1,1,0,0,1-.88-1.47c.66-1.24,6.63-12.08,12.3-11.52a7.32,7.32,0,0,1,5.29,3,5.62,5.62,0,0,0,4.59,2.45c2.48.09,6.76-3,11.72-8.41a1,1,0,1,1,1.48,1.34c-3.85,4.24-9.26,9.22-13.29,9.07a7.51,7.51,0,0,1-6-3.14c-1.05-1.2-1.88-2.15-4-2.35-3.29-.3-8.09,6.25-10.35,10.47A1,1,0,0,1,257.56,107.7Z" fill="#68e1fd"/><rect x="90.72" y="110.53" width="46.53" height="43.74" rx="3.4" fill="#fff"/><path d="M133.85,155.27H94.12a4.41,4.41,0,0,1-4.4-4.4V113.93a4.41,4.41,0,0,1,4.4-4.4h39.73a4.41,4.41,0,0,1,4.4,4.4v36.94A4.41,4.41,0,0,1,133.85,155.27ZM94.12,111.53a2.41,2.41,0,0,0-2.4,2.4v36.94a2.4,2.4,0,0,0,2.4,2.4h39.73a2.4,2.4,0,0,0,2.4-2.4V113.93a2.41,2.41,0,0,0-2.4-2.4Z" fill="#093f68"/><path d="M129,132.4a15.06,15.06,0,1,1-15-15.05A15.11,15.11,0,0,1,129,132.4Z" fill="#70cc40"/><path d="M114,148.46a16,16,0,1,1,14.12-8.41A16.07,16.07,0,0,1,114,148.46Zm0-30.11a14.07,14.07,0,1,0,14,14.05A14.07,14.07,0,0,0,114,118.35Z" fill="#093f68"/><path d="M129,132.4a15.11,15.11,0,0,1-1.81,7.18L114,132.4V117.35A15.05,15.05,0,0,1,129,132.4Z" fill="#fff"/><path d="M127.23,140.58a1,1,0,0,1-.48-.12l-13.24-7.18a1,1,0,0,1-.52-.88V117.35a1,1,0,0,1,1-1,16.07,16.07,0,0,1,14.12,23.7,1,1,0,0,1-.59.49A1,1,0,0,1,127.23,140.58ZM115,131.8l11.8,6.41A14.07,14.07,0,0,0,115,118.38Z" fill="#093f68"/></g></svg>