<svg xmlns="http://www.w3.org/2000/svg" viewBox="0 0 400 300"><g id="_512_graphics_and_charts_outline" data-name="#512_graphics_and_charts_outline"><path d="M110.13,221.8a1,1,0,0,1-1-1V77.63a1,1,0,0,1,2,0V220.8A1,1,0,0,1,110.13,221.8Z" fill="#093f68"/><path d="M281.66,222.08H110.13a1,1,0,0,1,0-2H281.66a1,1,0,0,1,0,2Z" fill="#093f68"/><path d="M288.92,221.41l-6,4.59a.77.77,0,0,1-1.24-.62v-9.16a.77.77,0,0,1,1.24-.62l6,4.58A.77.77,0,0,1,288.92,221.41Z" fill="#093f68"/><path d="M110.75,74.15l4.58,6a.77.77,0,0,1-.61,1.24h-9.17a.77.77,0,0,1-.62-1.24l4.59-6A.77.77,0,0,1,110.75,74.15Z" fill="#093f68"/><rect x="110.13" y="95.29" width="157.15" height="14.64" fill="#68e1fd"/><path d="M267.28,110.93H110.13a1,1,0,0,1-1-1V95.29a1,1,0,0,1,1-1H267.28a1,1,0,0,1,1,1v14.64A1,1,0,0,1,267.28,110.93Zm-156.15-2H266.28V96.29H111.13Z" fill="#093f68"/><circle cx="270.85" cy="102.61" r="10.59" fill="#68e1fd"/><path d="M270.85,114.2a11.59,11.59,0,1,1,11.59-11.59A11.6,11.6,0,0,1,270.85,114.2Zm0-21.18a9.59,9.59,0,1,0,9.59,9.59A9.6,9.6,0,0,0,270.85,93Z" fill="#093f68"/><rect x="110.13" y="127.99" width="59.41" height="14.64" fill="#f56132"/><path d="M169.54,143.63H110.13a1,1,0,0,1-1-1V128a1,1,0,0,1,1-1h59.41a1,1,0,0,1,1,1v14.64A1,1,0,0,1,169.54,143.63Zm-58.41-2h57.41V129H111.13Z" fill="#093f68"/><circle cx="173.11" cy="135.31" r="10.59" fill="#68e1fd"/><path d="M173.11,146.9a11.6,11.6,0,1,1,11.59-11.59A11.61,11.61,0,0,1,173.11,146.9Zm0-21.19a9.6,9.6,0,1,0,9.59,9.6A9.62,9.62,0,0,0,173.11,125.71Z" fill="#093f68"/><rect x="110.13" y="160.68" width="92.28" height="14.64" fill="#ffbc0e"/><path d="M202.41,176.32H110.13a1,1,0,0,1-1-1V160.68a1,1,0,0,1,1-1h92.28a1,1,0,0,1,1,1v14.64A1,1,0,0,1,202.41,176.32Zm-91.28-2h90.28V161.68H111.13Z" fill="#093f68"/><circle cx="205.98" cy="168" r="10.59" fill="#68e1fd"/><path d="M206,179.59A11.59,11.59,0,1,1,217.57,168,11.6,11.6,0,0,1,206,179.59Zm0-21.18a9.59,9.59,0,1,0,9.59,9.59A9.6,9.6,0,0,0,206,158.41Z" fill="#093f68"/><rect x="110.13" y="193.38" width="120.5" height="14.64" fill="#f56132"/><path d="M230.63,209H110.13a1,1,0,0,1-1-1V193.38a1,1,0,0,1,1-1h120.5a1,1,0,0,1,1,1V208A1,1,0,0,1,230.63,209Zm-119.5-2h118.5V194.38H111.13Z" fill="#093f68"/><circle cx="234.19" cy="200.7" r="10.59" fill="#68e1fd"/><path d="M234.19,212.29a11.6,11.6,0,1,1,11.6-11.59A11.6,11.6,0,0,1,234.19,212.29Zm0-21.19a9.6,9.6,0,1,0,9.6,9.6A9.61,9.61,0,0,0,234.19,191.1Z" fill="#093f68"/><path d="M273.16,133.67H246.88a1,1,0,0,1,0-2h26.28a1,1,0,0,1,0,2Z" fill="#dfeaef"/><path d="M273.16,146.9H262.27a1,1,0,0,1,0-2h10.89a1,1,0,0,1,0,2Z" fill="#dfeaef"/><path d="M257.39,146.9h-16.9a1,1,0,0,1,0-2h16.9a1,1,0,0,1,0,2Z" fill="#dfeaef"/><path d="M273.16,160.13H240.49a1,1,0,0,1,0-2h32.67a1,1,0,0,1,0,2Z" fill="#dfeaef"/></g></svg>