<svg xmlns="http://www.w3.org/2000/svg" viewBox="0 0 400 300"><g id="_22_graphic_chart_outline" data-name="#22_graphic_chart_outline"><path d="M97.21,199.85H302.79a0,0,0,0,1,0,0V207a9.65,9.65,0,0,1-9.65,9.65H106.86A9.65,9.65,0,0,1,97.21,207v-7.15a0,0,0,0,1,0,0Z" fill="#68e1fd"/><path d="M293.14,217.66H106.86A10.67,10.67,0,0,1,96.21,207v-7.15a1,1,0,0,1,1-1H302.79a1,1,0,0,1,1,1V207A10.67,10.67,0,0,1,293.14,217.66ZM98.21,200.85V207a8.67,8.67,0,0,0,8.65,8.66H293.14a8.67,8.67,0,0,0,8.65-8.66v-6.15Z" fill="#093f68"/><path d="M119.63,83.34H280.37a8.57,8.57,0,0,1,8.57,8.57V199.85a0,0,0,0,1,0,0H111.06a0,0,0,0,1,0,0V91.91A8.57,8.57,0,0,1,119.63,83.34Z" fill="#68e1fd"/><path d="M288.94,200.85H111.06a1,1,0,0,1-1-1V91.91a9.58,9.58,0,0,1,9.57-9.57H280.37a9.58,9.58,0,0,1,9.57,9.57V199.85A1,1,0,0,1,288.94,200.85Zm-176.88-2H287.94V91.91a7.58,7.58,0,0,0-7.57-7.57H119.63a7.58,7.58,0,0,0-7.57,7.57Z" fill="#093f68"/><rect x="124.36" y="97.06" width="151.28" height="89.77" fill="#fff"/><path d="M275.64,187.83H124.36a1,1,0,0,1-1-1V97.06a1,1,0,0,1,1-1H275.64a1,1,0,0,1,1,1v89.77A1,1,0,0,1,275.64,187.83Zm-150.28-2H274.64V98.06H125.36Z" fill="#093f68"/><path d="M184.35,199.85h31.31a0,0,0,0,1,0,0v1.77a5.71,5.71,0,0,1-5.71,5.71H190.05a5.71,5.71,0,0,1-5.71-5.71v-1.77A0,0,0,0,1,184.35,199.85Z" fill="#093f68"/><path d="M210,208.33h-19.9a6.71,6.71,0,0,1-6.7-6.71v-1.77a1,1,0,0,1,1-1h31.3a1,1,0,0,1,1,1v1.77A6.71,6.71,0,0,1,210,208.33Zm-24.6-7.48v.77a4.71,4.71,0,0,0,4.7,4.71H210a4.71,4.71,0,0,0,4.7-4.71v-.77Z" fill="#093f68"/><path d="M258.07,177H141.93a1,1,0,0,1-1-1V107.08a1,1,0,1,1,2,0V175H258.07a1,1,0,0,1,0,2Z" fill="#093f68"/><rect x="150.85" y="159.68" width="12.56" height="16.27" fill="#70cc40"/><path d="M163.42,177H150.85a1,1,0,0,1-1-1V159.68a1,1,0,0,1,1-1h12.57a1,1,0,0,1,1,1V176A1,1,0,0,1,163.42,177Zm-11.57-2h10.57V160.68H151.85Z" fill="#093f68"/><rect x="173.18" y="146.16" width="12.56" height="29.79" fill="#70cc40"/><path d="M185.74,177H173.18a1,1,0,0,1-1-1V146.16a1,1,0,0,1,1-1h12.56a1,1,0,0,1,1,1V176A1,1,0,0,1,185.74,177Zm-11.56-2h10.56V147.16H174.18Z" fill="#093f68"/><rect x="195.51" y="155.69" width="12.56" height="20.26" fill="#70cc40"/><path d="M208.07,177H195.51a1,1,0,0,1-1-1V155.69a1,1,0,0,1,1-1h12.56a1,1,0,0,1,1,1V176A1,1,0,0,1,208.07,177Zm-11.56-2h10.56V156.69H196.51Z" fill="#093f68"/><rect x="217.84" y="144.89" width="12.56" height="31.05" fill="#70cc40"/><path d="M230.4,177H217.84a1,1,0,0,1-1-1V144.89a1,1,0,0,1,1-1H230.4a1,1,0,0,1,1,1V176A1,1,0,0,1,230.4,177Zm-11.56-2H229.4V145.89H218.84Z" fill="#093f68"/><rect x="240.17" y="127.32" width="12.56" height="48.63" fill="#70cc40"/><path d="M252.73,177H240.17a1,1,0,0,1-1-1V127.32a1,1,0,0,1,1-1h12.56a1,1,0,0,1,1,1V176A1,1,0,0,1,252.73,177Zm-11.56-2h10.56V128.32H241.17Z" fill="#093f68"/><rect x="150.85" y="151.51" width="12.56" height="8.17" fill="#ffbc0e"/><path d="M163.42,160.68H150.85a1,1,0,0,1-1-1v-8.17a1,1,0,0,1,1-1h12.57a1,1,0,0,1,1,1v8.17A1,1,0,0,1,163.42,160.68Zm-11.57-2h10.57v-6.17H151.85Z" fill="#093f68"/><rect x="173.18" y="131.01" width="12.56" height="15.15" fill="#ffbc0e"/><path d="M185.74,147.16H173.18a1,1,0,0,1-1-1V131a1,1,0,0,1,1-1h12.56a1,1,0,0,1,1,1v15.15A1,1,0,0,1,185.74,147.16Zm-11.56-2h10.56V132H174.18Z" fill="#093f68"/><rect x="195.51" y="144.89" width="12.56" height="10.79" fill="#ffbc0e"/><path d="M208.07,156.69H195.51a1,1,0,0,1-1-1v-10.8a1,1,0,0,1,1-1h12.56a1,1,0,0,1,1,1v10.8A1,1,0,0,1,208.07,156.69Zm-11.56-2h10.56v-8.8H196.51Z" fill="#093f68"/><rect x="217.84" y="129.29" width="12.56" height="15.6" fill="#ffbc0e"/><path d="M230.4,145.89H217.84a1,1,0,0,1-1-1v-15.6a1,1,0,0,1,1-1H230.4a1,1,0,0,1,1,1v15.6A1,1,0,0,1,230.4,145.89Zm-11.56-2H229.4v-13.6H218.84Z" fill="#093f68"/><rect x="240.17" y="109.83" width="12.56" height="17.49" fill="#ffbc0e"/><path d="M252.73,128.32H240.17a1,1,0,0,1-1-1V109.83a1,1,0,0,1,1-1h12.56a1,1,0,0,1,1,1v17.49A1,1,0,0,1,252.73,128.32Zm-11.56-2h10.56V110.83H241.17Z" fill="#093f68"/><path d="M187.22,112.66H153.91a1,1,0,0,1,0-2h33.31a1,1,0,0,1,0,2Z" fill="#dfeaef"/><path d="M175.31,122.44h-21.4a1,1,0,0,1,0-2h21.4a1,1,0,0,1,0,2Z" fill="#dfeaef"/><path d="M157.13,169.41a1,1,0,0,1,0-2c.61,0,61.54-.62,101.88-35.21a1,1,0,1,1,1.3,1.51c-40.9,35.09-102.55,35.7-103.17,35.7Z" fill="#f56132"/><path d="M261.8,138.77a.9.9,0,0,1-.28,0,1,1,0,0,1-.68-1.24l2.07-7.1h-6.46a1,1,0,0,1,0-2h7.79a1,1,0,0,1,1,1.28l-2.44,8.38A1,1,0,0,1,261.8,138.77Z" fill="#f56132"/><circle cx="200" cy="89.32" r="1.19" fill="#68e1fd"/><path d="M200,91.51a2.19,2.19,0,1,1,2.19-2.19A2.19,2.19,0,0,1,200,91.51Zm0-2.38a.19.19,0,0,0-.19.19c0,.21.38.21.38,0A.19.19,0,0,0,200,89.13Z" fill="#093f68"/></g></svg>