<svg xmlns="http://www.w3.org/2000/svg" viewBox="0 0 400 300"><g id="_76_hiking_outline" data-name="#76_hiking_outline"><path d="M134.12,215.06a1,1,0,0,1-.28-2c.57-.3,3.11-2.19,6-4.36,39.38-29.23,49-31.14,53.22-29.15,10.25,4.83,27.47,25.37,28.2,26.24a1,1,0,0,1-1.54,1.28c-.18-.21-17.66-21.07-27.52-25.71-7.44-3.5-39.21,20.07-51.17,28.95C134.89,214.93,134.67,215.06,134.12,215.06Zm0-2Zm0,0h0Z" fill="#dfeaef"/><path d="M264.41,213.46a1,1,0,0,1-.66-.25c-.26-.22-25.92-22.73-32.9-25.83-5.31-2.35-13.48,6.63-16.18,10.28a1,1,0,0,1-1.61-1.18c.44-.59,10.75-14.41,18.6-10.93,7.26,3.22,32.35,25.22,33.41,26.16a1,1,0,0,1,.09,1.41A1,1,0,0,1,264.41,213.46Z" fill="#dfeaef"/><path d="M277.71,215.06H122.29a1,1,0,0,1,0-2H277.71a1,1,0,0,1,0,2Z" fill="#dfeaef"/><path d="M202.34,230.74a7.51,7.51,0,0,1-7.29-5.8l-11-46.73a7.5,7.5,0,1,1,14.61-3.42l9.66,48.78c.94,4-.28,6-4.31,7A7.83,7.83,0,0,1,202.34,230.74Z" fill="#ffc9b0"/><path d="M202.34,231.74a8.47,8.47,0,0,1-8.27-6.57l-10.94-46.74a8.5,8.5,0,1,1,16.55-3.87l9.67,48.82c1.07,4.54-.49,7.06-5.06,8.13A8.59,8.59,0,0,1,202.34,231.74ZM191.42,170a6.5,6.5,0,0,0-6.34,8L196,224.72a6.47,6.47,0,0,0,6.32,5,6.26,6.26,0,0,0,1.49-.18c1.76-.41,2.88-1,3.4-1.87s.58-2.12.17-3.89L197.73,175a6.52,6.52,0,0,0-6.31-5Z" fill="#093f68"/><path d="M159.12,229.23a7.51,7.51,0,0,1-5.11-2c-3-2.82-1-4.18,1.07-7.78,5.15-9,7.1-26.85,9.48-43.27a7.5,7.5,0,1,1,14.84,2.15c-1.31,9.06-6.25,39.35-14.79,48.52A7.45,7.45,0,0,1,159.12,229.23Z" fill="#ffc9b0"/><path d="M159.12,230.23a8.48,8.48,0,0,1-5.79-2.28c-3.06-2.85-1.75-4.86-.24-7.18.35-.55.74-1.14,1.13-1.82,4.41-7.72,6.47-22.46,8.47-36.72q.44-3.12.88-6.2a8.5,8.5,0,0,1,15.22-3.87,8.39,8.39,0,0,1,1.6,6.3c-1.32,9.14-6.31,39.68-15,49.06A8.53,8.53,0,0,1,159.12,230.23ZM172,170.74a6.5,6.5,0,0,0-6.42,5.57q-.45,3.08-.88,6.2c-2,14.44-4.12,29.38-8.72,37.43-.41.72-.81,1.35-1.18,1.92-1.5,2.3-1.91,2.92-.08,4.63a6.51,6.51,0,0,0,9.19-.33c8.34-9,13.23-39,14.53-48a6.48,6.48,0,0,0-5.5-7.36A7.43,7.43,0,0,0,172,170.74Z" fill="#093f68"/><path d="M241,126.41s.38,6.82-.67,7.31-3.92.69-3-3.58" fill="#ffc9b0"/><path d="M239.12,135a3.1,3.1,0,0,1-1.9-.61c-1.06-.84-1.38-2.33-.95-4.42a1,1,0,1,1,2,.4c-.25,1.24-.17,2.13.23,2.45a1.51,1.51,0,0,0,1.25.09,25.18,25.18,0,0,0,.25-6.42,1,1,0,0,1,.95-1,1,1,0,0,1,1.05.94c.41,7.5-.75,8-1.24,8.27A3.88,3.88,0,0,1,239.12,135Z" fill="#093f68"/><path d="M228.93,128.9c-9.29,1.24-19.91,2.07-22.37,1.88-3.09-1.33-8.23-6.51-15.7-14.21a6.38,6.38,0,0,0-9.17,8.88c7.2,7.43,15.52,16.34,22,17.79,5,1.13,17.57-1.62,26.37-4.19C229.9,136.06,229.2,131.89,228.93,128.9Z" fill="#68e1fd"/><path d="M206.59,144.5a14.75,14.75,0,0,1-3.11-.28c-6.43-1.44-14.35-9.63-21.33-16.85L181,126.15a7.39,7.39,0,0,1,10.61-10.28c7.27,7.5,12.29,12.56,15.22,13.92,2.63.14,12.78-.65,22-1.88a1,1,0,0,1,1.13.9c.11,1.26.3,2.72.5,4.27.27,2,.54,4.17.64,5.92a1,1,0,0,1-.72,1C222.71,142.24,212.71,144.5,206.59,144.5Zm-20.31-28.87h-.34a5.38,5.38,0,0,0-3.53,9.12l1.18,1.22c6.79,7,14.48,15,20.33,16.29,4.4,1,15.64-1.25,25.1-4-.12-1.52-.35-3.28-.57-5-.15-1.17-.3-2.29-.41-3.32-8.66,1.12-18.92,2-21.56,1.76a1.16,1.16,0,0,1-.32-.08c-3.25-1.41-8.22-6.39-16-14.44A5.37,5.37,0,0,0,186.28,115.63Z" fill="#093f68"/><polygon points="247.4 117.72 236.35 106.54 224.63 139.58 244.6 123.76 247.4 117.72" fill="#fff"/><path d="M224.63,140.58a1,1,0,0,1-.58-.18,1,1,0,0,1-.36-1.15l11.71-33a1,1,0,0,1,1.66-.37L248.11,117a1,1,0,0,1,.19,1.13l-2.79,6a1.12,1.12,0,0,1-.29.36l-20,15.83A1,1,0,0,1,224.63,140.58Zm12.13-32.2-10,28.26,17-13.52,2.41-5.19Z" fill="#093f68"/><polygon points="228.89 118.27 247.4 117.72 231.6 156.7 228.89 118.27" fill="#dfeaef"/><path d="M231.61,157.7h-.16a1,1,0,0,1-.84-.92l-2.72-38.43a1,1,0,0,1,.25-.74,1,1,0,0,1,.72-.33l18.51-.55a1,1,0,0,1,.85.43,1,1,0,0,1,.1.94l-15.79,39A1,1,0,0,1,231.61,157.7ZM230,119.24l2.34,33.09,13.59-33.57Z" fill="#093f68"/><polygon points="242.93 135.26 228.89 118.27 213.95 160.6 234.57 159.56 242.93 135.26" fill="#fff"/><path d="M214,161.6a1,1,0,0,1-.8-.4,1,1,0,0,1-.15-.93l14.94-42.33a1,1,0,0,1,.77-.65,1,1,0,0,1,.95.34l14,17a1,1,0,0,1,.17,1l-8.36,24.3a1,1,0,0,1-.89.67l-20.62,1Zm15.29-41.33-13.85,39.26,18.45-.93,8-23.13Z" fill="#093f68"/><polygon points="208.37 168.05 220.95 130.96 242.93 135.26 230.25 171.81 208.37 168.05" fill="#dfeaef"/><path d="M230.25,172.81l-.17,0L208.2,169a1,1,0,0,1-.69-.47,1,1,0,0,1-.09-.84L220,130.63a1,1,0,0,1,1.14-.66l22,4.31a1,1,0,0,1,.67.49,1,1,0,0,1,.08.82L231.2,172.13A1,1,0,0,1,230.25,172.81Zm-20.56-5.54,19.9,3.41,12-34.66-20-3.91Z" fill="#093f68"/><circle cx="158.92" cy="73.78" r="15.03" fill="#725858"/><path d="M158.9,89.81a16,16,0,1,1,16-16.84h0a16,16,0,0,1-15.19,16.82Zm0-30.06-.73,0a14,14,0,1,0,14.72,13.3h0a14,14,0,0,0-14-13.32Z" fill="#093f68"/><rect x="149.02" y="98.95" width="28.59" height="59.56" transform="translate(327.09 256.89) rotate(179.8)" fill="#f56132"/><path d="M149.13,159.56a1,1,0,0,1-1-1L147.92,99a1,1,0,0,1,1-1l28.59-.1h0a1,1,0,0,1,.7.29,1,1,0,0,1,.3.7l.21,59.56a1,1,0,0,1-.29.71,1,1,0,0,1-.71.3l-28.59.1Zm.79-59.56.2,57.55,26.59-.09-.2-57.56Z" fill="#093f68"/><rect x="136.64" y="99.01" width="18.11" height="59.56" rx="8.13" transform="translate(-0.45 0.51) rotate(-0.2)" fill="#f56132"/><path d="M144.85,159.57a9.14,9.14,0,0,1-9.13-9.09l-.15-43.31A9.14,9.14,0,0,1,144.66,98h1.89a9.13,9.13,0,0,1,9.13,9.09l.15,43.31a9.13,9.13,0,0,1-9.1,9.16h-1.88Zm1.88-1h0ZM146.55,100h-1.88a7.14,7.14,0,0,0-7.1,7.16l.15,43.3a7.13,7.13,0,0,0,7.13,7.1h1.87a7.14,7.14,0,0,0,7.11-7.16l-.15-43.3A7.14,7.14,0,0,0,146.55,100Z" fill="#093f68"/><rect x="143.42" y="158.54" width="28.59" height="11.75" transform="translate(316.01 328.28) rotate(179.8)" fill="#ffbc0e"/><path d="M143.45,171.34a1,1,0,0,1-1-1l0-11.75a1,1,0,0,1,1-1l28.59-.1h0a1,1,0,0,1,1,1l0,11.75a1,1,0,0,1-1,1l-28.59.1Zm1-11.75,0,9.75,26.59-.1,0-9.75Z" fill="#093f68"/><rect x="137.7" y="158.59" width="11.46" height="11.75" rx="5.73" transform="translate(-0.57 0.5) rotate(-0.2)" fill="#ffbc0e"/><path d="M143.43,171.34a6.73,6.73,0,0,1-6.73-6.7v-.3a6.73,6.73,0,0,1,6.7-6.75h0a6.71,6.71,0,0,1,6.72,6.7v.3a6.72,6.72,0,0,1-6.7,6.75h0Zm0-1h0Zm0-10.75h0a4.73,4.73,0,0,0-4.71,4.74v.3a4.74,4.74,0,0,0,4.73,4.71h0a4.73,4.73,0,0,0,4.71-4.74v-.3a4.71,4.71,0,0,0-4.72-4.71Z" fill="#093f68"/><path d="M184.48,67.39A19.72,19.72,0,0,1,191,68c6.33,1.76,11.33,7,13.62,13.2s2.1,13,.42,19.38a31,31,0,0,1-6.36,12.59c-3.1,3.52-7.89,6.95-12.73,6.23-5.28-.79-9.73-4-13.92-7.07-4.85-3.54-9.11-8.15-10.9-14a22.73,22.73,0,0,1,2.14-17.63,27.09,27.09,0,0,1,13.66-11.58A25.7,25.7,0,0,1,184.48,67.39Z" fill="#725858"/><path d="M187.22,120.5a9.46,9.46,0,0,1-1.41-.1c-5.59-.83-10.25-4.24-14.36-7.25-5.84-4.27-9.63-9.15-11.27-14.51a23.91,23.91,0,0,1,2.23-18.42,28,28,0,0,1,14.16-12,26.66,26.66,0,0,1,7.84-1.81h0a20.51,20.51,0,0,1,6.87.66c6.28,1.74,11.76,7,14.29,13.82,2.78,7.44,1.78,15,.45,20a31.88,31.88,0,0,1-6.58,13C195.7,118.09,191.23,120.5,187.22,120.5Zm-2.68-52.11a24.63,24.63,0,0,0-7.24,1.67,26,26,0,0,0-13.15,11.15,21.88,21.88,0,0,0-2.06,16.84c1.51,4.94,5.06,9.48,10.54,13.49,3.93,2.87,8.38,6.12,13.48,6.88,5.45.81,10.43-4.31,11.83-5.9a29.88,29.88,0,0,0,6.14-12.19c1.26-4.72,2.21-11.82-.38-18.77-2.31-6.19-7.28-11-13-12.58a18.58,18.58,0,0,0-6.2-.59Z" fill="#093f68"/><path d="M172.25,116.56H189.6a7.84,7.84,0,0,1,7.84,7.84v33.1a0,0,0,0,1,0,0h-33a0,0,0,0,1,0,0v-33.1A7.84,7.84,0,0,1,172.25,116.56Z" transform="translate(12.83 -15.46) rotate(5.07)" fill="#68e1fd"/><path d="M195.56,159.87h-.09l-32.89-2.93a1,1,0,0,1-.91-1.08l2.93-33a8.84,8.84,0,0,1,9.58-8l17.28,1.54a8.85,8.85,0,0,1,8,9.58l-2.93,33a1,1,0,0,1-1,.91ZM163.75,155l30.9,2.74,2.84-32a6.84,6.84,0,0,0-6.2-7.41L174,116.87a6.84,6.84,0,0,0-7.42,6.2Z" fill="#093f68"/><path d="M197.89,134.12h-.13a1.51,1.51,0,0,1-1.37-1.46c-.17-1.84-2.76-13.64-9.75-15.37a1.5,1.5,0,0,1,.72-2.91c4,1,7.39,4.43,9.72,9.92a30.22,30.22,0,0,1,2.31,8.46A1.5,1.5,0,0,1,197.89,134.12Z" fill="#093f68"/><path d="M160.07,150.4a1.5,1.5,0,0,1-.15-3c3.87-.38,6.76-3.94,8.51-6.87,4-6.69,5.31-15.36,4.23-17.93-2.79-6.69-11.89-7.34-12-7.35a1.5,1.5,0,0,1,.18-3c.45,0,11,.76,14.57,9.18,1.7,4.08-.4,13.91-4.42,20.63-3,5-6.75,7.92-10.8,8.31Z" fill="#093f68"/><path d="M181.3,119.36h6.35a0,0,0,0,1,0,0V123a2.7,2.7,0,0,1-2.7,2.7h-1a2.7,2.7,0,0,1-2.7-2.7v-3.65A0,0,0,0,1,181.3,119.36Z" transform="translate(2.92 -4.28) rotate(1.34)" fill="#ffc9b0"/><path d="M184.94,126.72h-.09l-.95,0a3.7,3.7,0,0,1-3.61-3.78l.08-3.66a1,1,0,0,1,1-1l6.34.15a.93.93,0,0,1,.7.31.94.94,0,0,1,.28.71l-.09,3.65A3.69,3.69,0,0,1,184.94,126.72Zm0-2a1.71,1.71,0,0,0,1.74-1.65l.06-2.66-4.35-.1-.06,2.65a1.7,1.7,0,0,0,1.65,1.74Z" fill="#093f68"/><ellipse cx="201.35" cy="103.92" rx="5.31" ry="4.76" transform="translate(92.74 302.79) rotate(-88.66)" fill="#ffc9b0"/><path d="M201.33,110.24h-.13a6.34,6.34,0,1,1,5.91-6.18h0A6.09,6.09,0,0,1,201.33,110.24Zm0-10.63a4.36,4.36,0,0,0-.12,8.63h.08a4.36,4.36,0,0,0,.12-8.63Zm4.74,4.43h0Z" fill="#093f68"/><path d="M184.32,120.85c-10.44-.24-19.48-13.34-19.24-23.61l3.71,1.4L171,89.7s15.82-.1,19.19-9.43c8.09,8.19,12.37,3.82,12.37,3.82l-.43,18.57C201.93,112.93,194.75,121.1,184.32,120.85Z" fill="#ffc9b0"/><path d="M184.76,121.86h-.47c-11-.26-20.46-14-20.21-24.63a1,1,0,0,1,.44-.81,1,1,0,0,1,.91-.11l2.66,1,2-7.86a1,1,0,0,1,1-.75c.15,0,15.16-.21,18.26-8.77a1,1,0,0,1,.72-.64,1,1,0,0,1,.93.28c7.2,7.28,10.81,4,11,3.81a1,1,0,0,1,1.7.73l-.43,18.58a20.5,20.5,0,0,1-5.38,13.7A17.74,17.74,0,0,1,184.76,121.86ZM166.1,98.69c.54,11.15,10.3,21,18.24,21.16a15.74,15.74,0,0,0,12-4.84,18.49,18.49,0,0,0,4.83-12.37l.39-16.8a6.27,6.27,0,0,1-2.3.41h0c-2.69,0-5.6-1.43-8.68-4.27-3.94,7.5-15.57,8.55-18.74,8.69l-2.06,8.21a1,1,0,0,1-.51.65,1,1,0,0,1-.81,0Z" fill="#093f68"/><ellipse cx="178.48" cy="98.69" rx="1.72" ry="1.72" transform="translate(75.65 274.81) rotate(-88.66)" fill="#093f68"/><circle cx="194.78" cy="99.59" r="1.72" fill="#093f68"/><path d="M189.34,105.23a10.47,10.47,0,0,1-2-.19,1,1,0,0,1-.78-1.17,1,1,0,0,1,1.17-.79,8.76,8.76,0,0,0,2,.14,15.7,15.7,0,0,0-1.29-3.5,1,1,0,1,1,1.79-.88c.92,1.86,1.9,4.33,1.34,5.5a1.35,1.35,0,0,1-1,.76A5.8,5.8,0,0,1,189.34,105.23Z" fill="#093f68"/><path d="M183.18,97H183l-8.18-.77a2,2,0,1,1,.38-4l8.17.77a2,2,0,0,1-.18,4Z" fill="#093f68"/><path d="M190.4,96.31a2,2,0,0,1-.21-4l8.17-.88a2,2,0,1,1,.42,4l-8.16.87Z" fill="#093f68"/><path d="M168.79,98.64s-4.47-3.25-7,.74-.34,11,7.22,9.11" fill="#ffc9b0"/><path d="M166.67,109.79a6.6,6.6,0,0,1-5.61-2.67,7.56,7.56,0,0,1-.12-8.28,4.91,4.91,0,0,1,3.29-2.36,7.54,7.54,0,0,1,5.15,1.35,1,1,0,1,1-1.18,1.62,5.43,5.43,0,0,0-3.61-1,3,3,0,0,0-2,1.47,5.59,5.59,0,0,0,.07,6c1.19,1.67,3.35,2.22,6.07,1.56a1,1,0,0,1,1.21.74,1,1,0,0,1-.74,1.2A10.71,10.71,0,0,1,166.67,109.79Z" fill="#093f68"/><path d="M187.48,113.34c-3.28,0-9.47-1.66-10.36-8a1,1,0,0,1,2-.27c.87,6.29,8.16,6.27,8.48,6.28h0a1,1,0,0,1,1,1,1,1,0,0,1-1,1Z" fill="#093f68"/><path d="M211,143.92a136.2,136.2,0,0,1-22.51-4c-2.74-1.94-6.72-8.06-12.45-17.13a6.38,6.38,0,1,0-10.79,6.82c5.52,8.74,11.84,19.16,17.89,21.92,4.7,2.13,17.54,2,26.68,1.3Q210.47,148.39,211,143.92Z" fill="#68e1fd"/><path d="M198.2,154.3c-6.43,0-12.48-.49-15.48-1.85-6-2.73-12.07-12.37-17.43-20.87l-.9-1.43a7.39,7.39,0,0,1,12.49-7.89c5.41,8.57,9.46,14.81,12.05,16.75a134.86,134.86,0,0,0,22.14,3.91A1,1,0,0,1,212,144c-.39,3.24-.78,6.17-1.2,9a1,1,0,0,1-.91.85C206.26,154.12,202.16,154.3,198.2,154.3Zm-27.57-33.48a5.38,5.38,0,0,0-4.55,8.26l.9,1.43c5.21,8.27,11.11,17.64,16.57,20.12,4.11,1.87,15.56,2,25.38,1.27.33-2.22.64-4.55.95-7.07a138.73,138.73,0,0,1-21.67-3.94.85.85,0,0,1-.3-.15c-2.9-2-6.74-7.94-12.72-17.41a5.41,5.41,0,0,0-3.78-2.45A5.12,5.12,0,0,0,170.63,120.82Z" fill="#093f68"/><path d="M218.7,142s-.81-2.18-1.88-2-3.53,4.07-3.53,4.07l-2.3-.13s-1.17,8.43-1.18,8.92l3.6-.33s9.41,1.1,11.14-.26,1.06-8.89.1-10.08S218.7,142,218.7,142Z" fill="#ffc9b0"/><path d="M220,153.94a61.05,61.05,0,0,1-6.56-.43c-.92.1-3.52.32-3.52.32a1,1,0,0,1-.77-.26,1,1,0,0,1-.31-.76c0-.51.92-7,1.19-9a1,1,0,0,1,1.05-.86l.77,0,.94.06c1.2-1.84,2.75-3.85,3.9-4s2.17,1,2.63,1.88c1.92-.32,5.09-.62,6.14.68s1.4,5.49,1.09,8.18a4.76,4.76,0,0,1-1.35,3.31C224.29,153.73,222.2,153.94,220,153.94Zm-6.56-2.43h.12c4.35.51,9.56.62,10.4,0,1.12-.88.68-7.66-.06-8.67-.42-.34-2.8-.26-5,.18a1,1,0,0,1-1.13-.63h0a3.73,3.73,0,0,0-.83-1.34,16.74,16.74,0,0,0-2.81,3.57,1,1,0,0,1-.88.47l-1.39-.08c-.32,2.29-.71,5.18-.92,6.76l2.37-.22Z" fill="#093f68"/><path d="M178.54,139.67a1,1,0,0,1-.81-.41l-3.56-4.89a1,1,0,0,1-.18-.75,1,1,0,0,1,.42-.66l5.58-3.9a1,1,0,0,1,1.15,1.64L176.39,134l2.38,3.27,4.6-3.27a1,1,0,0,1,1.4.24,1,1,0,0,1-.24,1.39l-5.41,3.84A1,1,0,0,1,178.54,139.67Z" fill="#093f68"/><polygon points="162.67 155.95 160.23 189.05 179.3 189.05 180.82 169.51 186.33 188.59 202.13 187.79 195.85 155.62 162.67 155.95" fill="#093f68"/><path d="M179.3,190.05H160.23a1,1,0,0,1-.73-.32,1,1,0,0,1-.26-.75l2.43-33.1a1,1,0,0,1,1-.93l33.18-.33h0a1,1,0,0,1,1,.81l6.28,32.17a1,1,0,0,1-.93,1.19l-15.8.8a1,1,0,0,1-1-.72l-4-13.79-1.09,14A1,1,0,0,1,179.3,190.05Zm-18-2h17.06l1.45-18.62a1,1,0,0,1,.89-.92,1,1,0,0,1,1.07.72l5.3,18.32,13.85-.7L195,156.63l-31.43.31Z" fill="#093f68"/><path d="M169,223.34l-14.25-6.41-6.21,13.33s6.84,5.67,10.87,7.69c3,1.51,9.37,2.5,12.6,1.72l-7.1-6.77Z" fill="#68e1fd"/><path d="M169.15,240.94a26.34,26.34,0,0,1-10.23-2.09c-4.08-2-10.78-7.59-11.06-7.82a1,1,0,0,1-.27-1.2l6.22-13.32a1,1,0,0,1,1.31-.49l14.25,6.4a1,1,0,0,1,.51,1.31l-3.82,8.92,6.6,6.29a1,1,0,0,1-.46,1.7A13.35,13.35,0,0,1,169.15,240.94Zm-19.42-11c1.74,1.41,6.89,5.48,10.08,7.09a24.49,24.49,0,0,0,9.93,1.87l-5.56-5.31a1,1,0,0,1-.23-1.12l3.71-8.66-12.46-5.59Z" fill="#093f68"/><path d="M193.46,224.35,209,220.22l2.62,10.92s12.79-1.49,12.23-.95-20.13,10.49-26.19,11.06Z" fill="#68e1fd"/><path d="M197.68,242.25a1,1,0,0,1-1-.76l-4.22-16.89a1,1,0,0,1,.71-1.21l15.56-4.13a1,1,0,0,1,.77.11,1,1,0,0,1,.46.62l2.42,10c11.88-1.37,12-1.07,12.38-.32a1.08,1.08,0,0,1-.23,1.19c-1,1-20.84,10.78-26.78,11.33Zm-3-17.18,3.76,15.06c4.88-.92,15.63-6,21.26-8.83-2.26.2-5.19.51-7.93.83a1,1,0,0,1-1.09-.76l-2.39-9.92Z" fill="#093f68"/><path d="M241.8,88.86a8.59,8.59,0,1,1,8.59-8.59A8.61,8.61,0,0,1,241.8,88.86Zm0-15.18a6.59,6.59,0,1,0,6.59,6.59A6.6,6.6,0,0,0,241.8,73.68Z" fill="#dfeaef"/><path d="M241.8,98.09a1,1,0,0,1-1-1V93.34a1,1,0,1,1,2,0v3.75A1,1,0,0,1,241.8,98.09Z" fill="#dfeaef"/><path d="M241.8,68.2a1,1,0,0,1-1-1V63.45a1,1,0,1,1,2,0V67.2A1,1,0,0,1,241.8,68.2Z" fill="#dfeaef"/><path d="M229.91,93.16a1,1,0,0,1-.71-.29,1,1,0,0,1,0-1.41l2.65-2.66a1,1,0,1,1,1.42,1.42l-2.66,2.65A1,1,0,0,1,229.91,93.16Z" fill="#dfeaef"/><path d="M251,72a1,1,0,0,1-.7-.3,1,1,0,0,1,0-1.41L253,67.67a1,1,0,0,1,1.41,0,1,1,0,0,1,0,1.41l-2.65,2.65A1,1,0,0,1,251,72Z" fill="#dfeaef"/><path d="M228.73,81.27H225a1,1,0,0,1,0-2h3.75a1,1,0,0,1,0,2Z" fill="#dfeaef"/><path d="M258.62,81.27h-3.75a1,1,0,0,1,0-2h3.75a1,1,0,0,1,0,2Z" fill="#dfeaef"/><path d="M232.56,72a1,1,0,0,1-.71-.3l-2.65-2.65a1,1,0,0,1,1.41-1.41l2.66,2.65a1,1,0,0,1-.71,1.71Z" fill="#dfeaef"/><path d="M253.7,93.16a1,1,0,0,1-.71-.29l-2.65-2.65a1,1,0,0,1,0-1.42,1,1,0,0,1,1.41,0l2.65,2.66a1,1,0,0,1,0,1.41A1,1,0,0,1,253.7,93.16Z" fill="#dfeaef"/></g></svg>