<svg xmlns="http://www.w3.org/2000/svg" viewBox="0 0 400 300"><g id="_203_hockey_outline" data-name="#203_hockey_outline"><rect x="116.6" y="97.58" width="166.31" height="104.88" rx="4.45" fill="#fff"/><path d="M278.46,203.46H121.05A5.46,5.46,0,0,1,115.6,198V102a5.46,5.46,0,0,1,5.45-5.45H278.46a5.46,5.46,0,0,1,5.45,5.45v96A5.45,5.45,0,0,1,278.46,203.46ZM121.05,98.58A3.46,3.46,0,0,0,117.6,102v96a3.46,3.46,0,0,0,3.45,3.45H278.46a3.45,3.45,0,0,0,3.45-3.45V102a3.45,3.45,0,0,0-3.45-3.45Z" fill="#093f68"/><path d="M275.59,115v70a11.12,11.12,0,0,1-11.12,11.12H135.06A11.12,11.12,0,0,1,123.93,185V115a11.13,11.13,0,0,1,11.13-11.14H264.47A11.13,11.13,0,0,1,275.59,115Z" fill="#68e1fd"/><path d="M264.47,197.14H135.06A12.14,12.14,0,0,1,122.93,185V115a12.15,12.15,0,0,1,12.13-12.14H264.47A12.15,12.15,0,0,1,276.59,115v70A12.14,12.14,0,0,1,264.47,197.14ZM135.06,104.9A10.14,10.14,0,0,0,124.93,115v70a10.13,10.13,0,0,0,10.13,10.12H264.47A10.13,10.13,0,0,0,274.59,185V115a10.14,10.14,0,0,0-10.12-10.14Z" fill="#093f68"/><rect x="139.39" y="103.9" width="120.74" height="92.07" fill="#68e1fd"/><path d="M260.13,197H139.39a1,1,0,0,1-1-1V103.9a1,1,0,0,1,1-1H260.13a1,1,0,0,1,1,1V196A1,1,0,0,1,260.13,197Zm-119.74-2H259.13V104.9H140.39Z" fill="#093f68"/><rect x="138.39" y="104.07" width="2" height="91.9" fill="#093f68"/><rect x="170.59" y="104.07" width="2" height="91.9" fill="#093f68"/><rect x="259.13" y="104.07" width="2" height="91.9" fill="#093f68"/><rect x="226.94" y="104.07" width="2" height="91.9" fill="#093f68"/><rect x="198.76" y="104.07" width="2" height="91.9" fill="#093f68"/><path d="M199.76,163a13,13,0,1,1,13-13A13,13,0,0,1,199.76,163Zm0-23.95a11,11,0,1,0,11,11A11,11,0,0,0,199.76,139.05Z" fill="#093f68"/><path d="M155.32,137.39a13,13,0,1,1,13-13A13,13,0,0,1,155.32,137.39Zm0-23.95a11,11,0,1,0,11,11A11,11,0,0,0,155.32,113.44Z" fill="#093f68"/><path d="M244.2,137.39a13,13,0,1,1,13-13A13,13,0,0,1,244.2,137.39Zm0-23.95a11,11,0,1,0,11,11A11,11,0,0,0,244.2,113.44Z" fill="#093f68"/><path d="M155.32,188.61a13,13,0,1,1,13-13A13,13,0,0,1,155.32,188.61Zm0-24a11,11,0,1,0,11,11A11,11,0,0,0,155.32,164.66Z" fill="#093f68"/><path d="M244.2,188.61a13,13,0,1,1,13-13A13,13,0,0,1,244.2,188.61Zm0-24a11,11,0,1,0,11,11A11,11,0,0,0,244.2,164.66Z" fill="#093f68"/><ellipse cx="180.86" cy="124.37" rx="1.63" ry="1.58" fill="#093f68"/><ellipse cx="180.86" cy="175.68" rx="1.63" ry="1.58" fill="#093f68"/><ellipse cx="218.66" cy="124.37" rx="1.63" ry="1.58" fill="#093f68"/><ellipse cx="218.66" cy="175.68" rx="1.63" ry="1.58" fill="#093f68"/><path d="M260.13,142.79v14.47a7.24,7.24,0,0,1,0-14.47Z" fill="#093f68"/><path d="M260.13,158.26a8.24,8.24,0,0,1,0-16.47,1,1,0,0,1,1,1v14.47A1,1,0,0,1,260.13,158.26Zm-1-14.39a6.24,6.24,0,0,0,0,12.31Z" fill="#093f68"/><path d="M139.39,142.79v14.47a7.24,7.24,0,0,0,0-14.47Z" fill="#093f68"/><path d="M139.39,158.26a1,1,0,0,1-1-1V142.79a1,1,0,0,1,1-1,8.24,8.24,0,0,1,0,16.47Zm1-14.39v12.31a6.24,6.24,0,0,0,0-12.31Z" fill="#093f68"/><path d="M103.24,92.86,159.47,203a15.53,15.53,0,0,0,13.82,8.47h34.17a6,6,0,0,0,5.95-7.1l-1.3-7.27a6,6,0,0,0-6.43-5l-6.05.49L177,194.51a14.34,14.34,0,0,1-13.58-7.22L108.68,90a3.09,3.09,0,0,0-5.44,2.91Z" fill="#ffbc0e"/><path d="M207.46,212.5H173.29a16.43,16.43,0,0,1-14.71-9L102.35,93.31h0a4.11,4.11,0,0,1,1.76-5.48,4.16,4.16,0,0,1,5.44,1.63l54.7,97.34a13.11,13.11,0,0,0,9.47,6.58,12.25,12.25,0,0,0,3.14.13l28.74-2.34a7,7,0,0,1,7.5,5.78l1.3,7.27a7.05,7.05,0,0,1-6.94,8.28ZM104.13,92.4l56.23,110.18a14.43,14.43,0,0,0,12.93,7.92h34.17a5.05,5.05,0,0,0,5-5.93l-1.3-7.26a5,5,0,0,0-5.37-4.14L177,195.5a14.71,14.71,0,0,1-3.63-.14,15.11,15.11,0,0,1-10.9-7.58L107.8,90.44a2.11,2.11,0,0,0-2.77-.83,2.09,2.09,0,0,0-.9,2.79Z" fill="#093f68"/><path d="M173.56,194.37l3.15,17.13h26.38l-3.46-18.84L177,194.51A14.19,14.19,0,0,1,173.56,194.37Z" fill="#fff"/><path d="M203.09,212.5H176.71a1,1,0,0,1-1-.82l-3.14-17.13a1,1,0,0,1,.27-.88,1,1,0,0,1,.88-.29,12.16,12.16,0,0,0,3.13.13l22.68-1.85a1,1,0,0,1,1.07.82l3.46,18.84a1,1,0,0,1-.21.82A1,1,0,0,1,203.09,212.5Zm-25.55-2h24.35l-3.08-16.77L177,195.5a14,14,0,0,1-2.24,0Z" fill="#093f68"/><path d="M219.52,196.77v8.44c0,3.34,6.18,6,13.81,6s13.81-2.7,13.81-6v-8.44Z" fill="#f56132"/><path d="M233.33,212.25c-8.44,0-14.81-3-14.81-7v-8.44a1,1,0,0,1,1-1h27.62a1,1,0,0,1,1,1v8.44C248.14,209.22,241.78,212.25,233.33,212.25Zm-12.81-14.48v7.44c0,2.38,5.26,5,12.81,5s12.81-2.66,12.81-5v-7.44Z" fill="#093f68"/><ellipse cx="233.33" cy="196.77" rx="13.81" ry="6.04" fill="#f56132"/><path d="M233.33,203.82c-8.44,0-14.81-3-14.81-7s6.37-7,14.81-7,14.81,3,14.81,7S241.78,203.82,233.33,203.82Zm0-12.09c-7.55,0-12.81,2.66-12.81,5s5.26,5,12.81,5,12.81-2.66,12.81-5S240.88,191.73,233.33,191.73Z" fill="#093f68"/><path d="M249.55,196.77v8.44c0,3.34,6.19,6,13.81,6s13.82-2.7,13.82-6v-8.44Z" fill="#70cc40"/><path d="M263.36,212.25c-8.44,0-14.81-3-14.81-7v-8.44a1,1,0,0,1,1-1h27.63a1,1,0,0,1,1,1v8.44C278.18,209.22,271.81,212.25,263.36,212.25Zm-12.81-14.48v7.44c0,2.38,5.26,5,12.81,5s12.82-2.66,12.82-5v-7.44Z" fill="#093f68"/><ellipse cx="263.36" cy="196.77" rx="13.81" ry="6.04" fill="#70cc40"/><path d="M263.36,203.82c-8.44,0-14.81-3-14.81-7s6.37-7,14.81-7,14.82,3,14.82,7S271.81,203.82,263.36,203.82Zm0-12.09c-7.55,0-12.81,2.66-12.81,5s5.26,5,12.81,5,12.82-2.66,12.82-5S270.92,191.73,263.36,191.73Z" fill="#093f68"/></g></svg>