<svg xmlns="http://www.w3.org/2000/svg" viewBox="0 0 400 300"><g id="_339_idea_outline" data-name="#339_idea_outline"><rect x="137.79" y="88.53" width="132.27" height="113.16" fill="#fff"/><path d="M270.06,202.7H137.79a1,1,0,0,1-1-1V88.53a1,1,0,0,1,1-1H270.06a1,1,0,0,1,1,1V201.7A1,1,0,0,1,270.06,202.7Zm-131.27-2H269.06V89.53H138.79Z" fill="#093f68"/><path d="M254.94,110.1H239.53a1,1,0,0,1,0-2h15.41a1,1,0,0,1,0,2Z" fill="#dfeaef"/><path d="M199.23,170.9a21,21,0,1,1,21-21A21,21,0,0,1,199.23,170.9Zm0-39.91a19,19,0,1,0,19,19A19,19,0,0,0,199.23,131Z" fill="#dfeaef"/><path d="M229.36,104h-23.1a1,1,0,0,1,0-2h23.1a1,1,0,0,1,0,2Z" fill="#dfeaef"/><path d="M229.36,112h-23.1a1,1,0,0,1,0-2h23.1a1,1,0,0,1,0,2Z" fill="#dfeaef"/><path d="M221.12,119.87H206.26a1,1,0,0,1,0-2h14.86a1,1,0,0,1,0,2Z" fill="#dfeaef"/><path d="M245.3,194.26H210.16a1,1,0,0,1-1-1V178.05a1,1,0,0,1,1-1H245.3a1,1,0,0,1,1,1v15.21A1,1,0,0,1,245.3,194.26Zm-34.14-2H244.3V179.05H211.16Z" fill="#dfeaef"/><path d="M169.2,173.28a1.08,1.08,0,0,1-.61-.2,1,1,0,0,1-.19-1.4,59.66,59.66,0,0,1,11.52-11.53,1,1,0,0,1,1.39.22,1,1,0,0,1-.22,1.4A59.23,59.23,0,0,0,170,172.88,1,1,0,0,1,169.2,173.28Z" fill="#dfeaef"/><path d="M180.26,120.19h-18a1,1,0,0,1,0-2h18a1,1,0,0,1,0,2Z" fill="#dfeaef"/><path d="M180.26,129.49h-18a1,1,0,0,1,0-2h18a1,1,0,0,1,0,2Z" fill="#dfeaef"/><path d="M176.26,134.49H170.6a1,1,0,0,1,0-2h5.66a1,1,0,0,1,0,2Z" fill="#dfeaef"/><path d="M167.91,138.79h-5.64a1,1,0,0,1,0-2h5.64a1,1,0,0,1,0,2Z" fill="#dfeaef"/><path d="M217.81,135.22a1,1,0,0,1-.32-1.95h0c.31-.1,7.74-2.74,9.25-12.23a1,1,0,0,1,1.15-.83,1,1,0,0,1,.83,1.14c-1.71,10.73-10.23,13.7-10.6,13.82A1.12,1.12,0,0,1,217.81,135.22Z" fill="#dfeaef"/><path d="M159,189.85a1,1,0,0,1-.3,0,1,1,0,0,1-.66-1.25,69.18,69.18,0,0,1,2.65-7c1.66-3.71,3.67-4.33,5.08-4.19,2.08.2,3.3,2.15,4,3.6s1.38,2.56,2.41,2.81a2.61,2.61,0,0,0,2.22-.75,9.74,9.74,0,0,0,1.75-2.53l5.24-9.55a1,1,0,0,1,1.76,1l-5.24,9.54a11.55,11.55,0,0,1-2.16,3,4.44,4.44,0,0,1-4.05,1.22c-2-.49-3-2.5-3.71-3.84-.53-1-1.35-2.42-2.46-2.52-1.42-.16-2.52,1.83-3.05,3a64.1,64.1,0,0,0-2.57,6.8A1,1,0,0,1,159,189.85Z" fill="#dfeaef"/><path d="M299.32,201.7c-.15-.69-11-74.58-18-86.65-5.55-9.52-27.54-9.07-31.26-8s-28.39,13.52-29.63,14.57c-2.94,2.51-3.54,8.91,4.06,8.66a84.5,84.5,0,0,1,7.93,6.22c4.66,4.06,5.14,5.41,5.14,5.41s11.53,11,16.49,14.12c0,0-3.07,7.28.27,10.59a31.62,31.62,0,0,0,8,5.41l2.95,29.68Z" fill="#ffc9b0"/><path d="M299.32,202.7H265.25a1,1,0,0,1-1-.91l-2.9-29.11a31.62,31.62,0,0,1-7.76-5.36c-3.12-3.09-1.52-8.82-.78-10.91-5.26-3.62-15.51-13.35-16-13.78a1.11,1.11,0,0,1-.26-.39s-.64-1.33-4.85-5a86.77,86.77,0,0,0-7.58-6c-4.46.09-5.95-2.1-6.45-3.4a6.6,6.6,0,0,1,2-7c1.54-1.31,26.31-13.73,30-14.78,4-1.12,26.53-1.58,32.4,8.47,5.7,9.79,13.66,57.72,17.9,85.43.13.9.22,1.44.23,1.53a1,1,0,0,1-.21.83A1,1,0,0,1,299.32,202.7Zm-33.16-2h32l-.06-.43c-7.17-46.9-13.61-77.78-17.65-84.72-2.77-4.75-10-6.69-15.6-7.48-6.55-.93-12.84-.55-14.53-.07-3.79,1.07-28,13.37-29.26,14.38a4.67,4.67,0,0,0-1.47,4.78c.72,1.85,3,2.17,4.86,2.12a.91.91,0,0,1,.58.16,81.76,81.76,0,0,1,8,6.3c3.8,3.31,5,4.91,5.3,5.56,1.29,1.22,11.67,11,16.21,13.87a1,1,0,0,1,.38,1.23c-.78,1.86-2.29,7.18.05,9.5a31.26,31.26,0,0,0,7.71,5.21,1,1,0,0,1,.58.81Z" fill="#093f68"/><polygon points="229.75 155.09 214.93 139.68 245.98 110.32 260.79 125.73 229.75 155.09" fill="#ffbc0e"/><path d="M229.75,156.09a1,1,0,0,1-.72-.3l-14.82-15.41a1.09,1.09,0,0,1-.28-.72,1,1,0,0,1,.32-.7l31-29.37a1,1,0,0,1,1.41,0L261.51,125a1,1,0,0,1,.28.71,1,1,0,0,1-.31.71l-31.05,29.36A1,1,0,0,1,229.75,156.09Zm-13.4-16.37,13.43,14,29.59-28-13.43-14Z" fill="#093f68"/><polygon points="229.74 155.09 214.18 161.8 201.77 167.16 207.61 154.97 214.93 139.69 229.74 155.09" fill="#fff"/><path d="M201.77,168.15a1,1,0,0,1-.72-.3,1,1,0,0,1-.18-1.13L214,139.25a1,1,0,0,1,1.62-.26l14.81,15.41a1,1,0,0,1-.32,1.61l-28,12.06A1,1,0,0,1,201.77,168.15Zm13.44-26.73-11.39,23.76L228,154.75Z" fill="#093f68"/><path d="M300.63,106.42a24.38,24.38,0,1,0-41.26-18.08,23.88,23.88,0,0,1-4,12.49l-.47.72,15,15.61.89-.53a25.2,25.2,0,0,1,13-3.41A24.28,24.28,0,0,0,300.63,106.42Z" fill="#68e1fd"/><path d="M269.91,118.16a1,1,0,0,1-.73-.31l-15-15.6a1,1,0,0,1-.11-1.24l.46-.72a22.9,22.9,0,0,0,3.84-12,25.37,25.37,0,1,1,43,18.82h0a25.28,25.28,0,0,1-17.55,7.08,24.26,24.26,0,0,0-12.47,3.27l-.89.53A1.06,1.06,0,0,1,269.91,118.16Zm-13.74-16.73,13.91,14.46.21-.12a26.29,26.29,0,0,1,13.49-3.55,23.27,23.27,0,0,0,16.16-6.52h0A23.38,23.38,0,0,0,268.6,71a23.45,23.45,0,0,0-8.23,17.33,24.92,24.92,0,0,1-4.16,13Zm44.46,5h0Z" fill="#093f68"/><rect x="248.21" y="108.59" width="24.77" height="5" rx="2.25" transform="translate(160.09 -153.77) rotate(46.13)" fill="#fff"/><path d="M267.45,121.82h-.07a3.22,3.22,0,0,1-2.28-1l-14.05-14.61a3.26,3.26,0,0,1,.09-4.6l.37-.35a3.25,3.25,0,0,1,4.59.09l14,14.62a3.25,3.25,0,0,1-.09,4.59l-.36.36A3.25,3.25,0,0,1,267.45,121.82Zm-13.69-19.46a1.26,1.26,0,0,0-.87.34l-.36.35a1.26,1.26,0,0,0,0,1.77l14.05,14.62h0a1.25,1.25,0,0,0,.88.38,1.26,1.26,0,0,0,.89-.35l.36-.35a1.25,1.25,0,0,0,0-1.77l-14-14.61A1.27,1.27,0,0,0,253.76,102.36Z" fill="#093f68"/><rect x="244.61" y="112.05" width="24.77" height="5" rx="2.25" transform="translate(161.48 -150.1) rotate(46.13)" fill="#fff"/><path d="M263.84,125.29a3.23,3.23,0,0,1-2.35-1h0l-14.05-14.61a3.27,3.27,0,0,1,.09-4.6l.37-.35a3.07,3.07,0,0,1,2.31-.9,3.21,3.21,0,0,1,2.28,1l14.05,14.62a3.24,3.24,0,0,1-.09,4.59l-.36.35A3.22,3.22,0,0,1,263.84,125.29Zm-.91-2.38a1.29,1.29,0,0,0,.88.38,1.22,1.22,0,0,0,.89-.35l.37-.35a1.26,1.26,0,0,0,0-1.77l-14.05-14.61a1.24,1.24,0,0,0-1.77,0l-.36.35a1.27,1.27,0,0,0,0,1.77Z" fill="#093f68"/><rect x="241" y="115.52" width="24.77" height="5" rx="2.25" transform="translate(162.87 -146.44) rotate(46.13)" fill="#fff"/><path d="M260.23,128.76a3.26,3.26,0,0,1-2.35-1h0l-14-14.61a3.26,3.26,0,0,1,.09-4.6l.37-.35a3.25,3.25,0,0,1,4.59.09l14.05,14.62a3.23,3.23,0,0,1-.09,4.59l-.36.35A3.22,3.22,0,0,1,260.23,128.76Zm-.9-2.39a1.24,1.24,0,0,0,1.76,0l.37-.35a1.26,1.26,0,0,0,0-1.77l-14.05-14.61a1.26,1.26,0,0,0-1.77,0l-.36.35a1.25,1.25,0,0,0,0,1.77Z" fill="#093f68"/><path d="M264.77,111.91a1,1,0,0,1-.7-1.72c3.24-3.18,6.57-6.32,10-9.51A28.24,28.24,0,0,1,271.19,98a131.59,131.59,0,0,1-8.91,10.25,1,1,0,0,1-1.44-1.38,128.53,128.53,0,0,0,9-10.42l-.11-.13C266,91.5,265.42,87,268.06,82.54a9.61,9.61,0,0,1,3.59-3.84,4.71,4.71,0,0,1,3.75-.27,5.44,5.44,0,0,1,3.14,2.89c1.22,2.69-.11,5.63-1.22,7.6a72,72,0,0,1-4.9,7.47,26.31,26.31,0,0,0,3.11,2.91h0c4.3-4,9.17-6.4,13.68-6.69a6.48,6.48,0,0,1,3.06.43,5.45,5.45,0,0,1,3.12,4.86,7.17,7.17,0,0,1-2.23,5.16,10,10,0,0,1-7.18,2.73c-3.52-.06-7.18-1.67-10.32-3.88-3.49,3.25-6.9,6.46-10.2,9.71A1,1,0,0,1,264.77,111.91Zm12.4-11.41a17.08,17.08,0,0,0,8.86,3.29,7.94,7.94,0,0,0,5.73-2.15A5.16,5.16,0,0,0,293.4,98a3.46,3.46,0,0,0-1.91-3.07,4.59,4.59,0,0,0-2.14-.27C285.39,94.86,281.08,97,277.17,100.5Zm-3.34-20.34a2.64,2.64,0,0,0-1.26.32,7.82,7.82,0,0,0-2.79,3.08c-2.18,3.68-1.78,7.15,1.31,11.24a68,68,0,0,0,4.49-6.86c1-1.73,2-4,1.14-5.79a3.4,3.4,0,0,0-2-1.83A2.71,2.71,0,0,0,273.83,80.16Z" fill="#093f68"/><polygon points="214.18 161.81 201.77 167.16 207.61 154.97 214.18 161.81" fill="#093f68"/><path d="M201.77,168.16a1,1,0,0,1-.72-.31,1,1,0,0,1-.18-1.12l5.84-12.19a1,1,0,0,1,.74-.56,1,1,0,0,1,.88.3l6.57,6.83a1,1,0,0,1-.32,1.61l-12.41,5.36A1.1,1.1,0,0,1,201.77,168.16Zm6.12-11.46-4.06,8.48,8.63-3.72Z" fill="#093f68"/><path d="M219.52,145.46a1,1,0,0,1-.68-1.73l29.24-27.63a1,1,0,0,1,1.41,0,1,1,0,0,1,0,1.42l-29.24,27.63A1,1,0,0,1,219.52,145.46Z" fill="#093f68"/><path d="M225.15,151.32a1,1,0,0,1-.72-.32,1,1,0,0,1,0-1.41L253.71,122a1,1,0,0,1,1.41,0,1,1,0,0,1,0,1.42L225.84,151A1,1,0,0,1,225.15,151.32Z" fill="#093f68"/><path d="M257.68,135.74s-29.6-10.67-32.46-8.27-3.46,5.26,1.65,11S245.21,150,245.21,150s-5.29,16.49,17.09,22" fill="#ffc9b0"/><path d="M262.3,173l-.24,0c-8-2-13.48-5.53-16.31-10.59A17.13,17.13,0,0,1,244,150.58c-2.95-1.36-13.38-6.4-17.91-11.47-2.94-3.28-4.23-5.85-4.07-8.1a6.1,6.1,0,0,1,2.52-4.3c3-2.5,24.38,4.82,33.44,8.09a1,1,0,0,1,.6,1.28,1,1,0,0,1-1.27.6c-13.71-4.94-29.64-9.57-31.5-8.43a4.26,4.26,0,0,0-1.8,2.9c-.11,1.65,1,3.82,3.57,6.63,4.91,5.48,17.87,11.27,18,11.32a1,1,0,0,1,.54,1.22,15.45,15.45,0,0,0,1.35,11.13c2.56,4.54,7.61,7.77,15,9.6a1,1,0,0,1-.24,2Z" fill="#093f68"/><path d="M191.13,107.5H158.27a1,1,0,0,1-1-1V98a1,1,0,0,1,1-1h32.86a1,1,0,0,1,1,1v8.49A1,1,0,0,1,191.13,107.5Zm-31.86-2h30.86V99H159.27Z" fill="#dfeaef"/><g id="ahcQ9Z"><path d="M180.48,174.37a3.31,3.31,0,0,0-2.56-3.09c-1.24-.27-2.49-.47-3.74-.66a.83.83,0,0,1-.75-.62c-.37-1-.78-2-1.22-2.95a.63.63,0,0,1,.07-.74c.75-1,1.52-2.07,2.22-3.15a3.29,3.29,0,0,0-.29-4c-1.15-1.26-2.37-2.44-3.57-3.65a3.51,3.51,0,0,0-4.79-.43c-.94.65-1.87,1.31-2.79,2a.65.65,0,0,1-.75.08c-1.06-.47-2.13-.91-3.21-1.33a.65.65,0,0,1-.48-.58c-.18-1.14-.37-2.28-.57-3.43a3.45,3.45,0,0,0-3.31-3c-1.76,0-3.52,0-5.29,0a3.34,3.34,0,0,0-3.2,2.62c-.28,1.28-.48,2.58-.69,3.87a.65.65,0,0,1-.48.58c-1,.41-2.06.85-3.07,1.3a.59.59,0,0,1-.71-.06c-1-.75-2-1.51-3.09-2.2a3.29,3.29,0,0,0-4.05.26c-1.34,1.23-2.65,2.51-3.88,3.84a3.39,3.39,0,0,0-.23,4.51c.69,1,1.4,2,2.08,3a.66.66,0,0,1,.06.53c-.43,1.11-.87,2.21-1.34,3.3a.63.63,0,0,1-.41.34c-1.14.21-2.29.4-3.43.58a3.47,3.47,0,0,0-3.07,3.22c-.06,1.84,0,3.68,0,5.52a3.3,3.3,0,0,0,2.54,3.06c1.31.3,2.64.5,4,.72a.63.63,0,0,1,.55.46c.41,1,.86,2.08,1.32,3.11a.57.57,0,0,1-.06.66c-.7.95-1.39,1.9-2.06,2.87a3.46,3.46,0,0,0,.4,4.64q1.65,1.69,3.35,3.34a3.47,3.47,0,0,0,4.75.36c1-.67,1.92-1.35,2.87-2a.54.54,0,0,1,.62-.05c1,.42,2,.84,3,1.21a.75.75,0,0,1,.54.69c.18,1.13.36,2.26.56,3.39a3.42,3.42,0,0,0,3.16,3c1.85.06,3.71.05,5.56,0a3.33,3.33,0,0,0,3.08-2.59c.28-1.25.47-2.52.67-3.78a.75.75,0,0,1,.53-.66c1-.4,2.06-.83,3.08-1.27a.59.59,0,0,1,.67.06c.94.7,1.91,1.37,2.86,2a3.59,3.59,0,0,0,2.31.7,2.94,2.94,0,0,0,2.05-.83c1.22-1.15,2.39-2.34,3.57-3.52a3.52,3.52,0,0,0,.43-4.86c-.65-.93-1.31-1.87-2-2.79a.59.59,0,0,1-.06-.67q.68-1.54,1.29-3.12a.67.67,0,0,1,.59-.47l3.43-.56a3.45,3.45,0,0,0,3-3.28C180.53,178,180.52,176.18,180.48,174.37Zm-28.29,14.95a12.21,12.21,0,1,1,12.23-12.19A12.21,12.21,0,0,1,152.19,189.32Z" fill="#68e1fd" stroke="#093f68" stroke-linecap="round" stroke-linejoin="round" stroke-width="2"/></g><g id="ahcQ9Z-2" data-name="ahcQ9Z"><path d="M157.88,123.49a2.51,2.51,0,0,0-1.95-2.35c-.94-.21-1.89-.36-2.83-.5a.64.64,0,0,1-.57-.47c-.28-.76-.6-1.5-.92-2.24a.5.5,0,0,1,0-.57c.58-.78,1.16-1.56,1.69-2.38a2.5,2.5,0,0,0-.22-3c-.87-1-1.8-1.85-2.71-2.76a2.66,2.66,0,0,0-3.63-.34c-.71.5-1.42,1-2.12,1.51a.48.48,0,0,1-.57.06c-.8-.35-1.61-.69-2.43-1a.5.5,0,0,1-.37-.44c-.13-.87-.28-1.74-.43-2.6a2.63,2.63,0,0,0-2.51-2.25c-1.34,0-2.68,0-4,0a2.54,2.54,0,0,0-2.43,2c-.22,1-.37,2-.53,2.94a.5.5,0,0,1-.36.45c-.79.3-1.56.64-2.33,1a.47.47,0,0,1-.54,0c-.77-.57-1.54-1.15-2.34-1.68a2.52,2.52,0,0,0-3.08.2c-1,.93-2,1.9-2.94,2.92a2.57,2.57,0,0,0-.18,3.41c.53.76,1.07,1.49,1.59,2.25a.55.55,0,0,1,0,.4c-.32.84-.66,1.67-1,2.5a.45.45,0,0,1-.31.26c-.87.16-1.73.3-2.6.44a2.63,2.63,0,0,0-2.33,2.44c0,1.4,0,2.8,0,4.19a2.51,2.51,0,0,0,1.93,2.33c1,.22,2,.37,3,.54a.49.49,0,0,1,.42.35c.31.79.65,1.58,1,2.36a.42.42,0,0,1,0,.5c-.53.72-1.06,1.44-1.56,2.17a2.64,2.64,0,0,0,.3,3.53c.84.85,1.68,1.7,2.54,2.53a2.64,2.64,0,0,0,3.61.28c.73-.51,1.46-1,2.17-1.55a.41.41,0,0,1,.48,0c.74.32,1.48.64,2.24.92a.55.55,0,0,1,.41.52c.13.86.28,1.72.43,2.57a2.6,2.6,0,0,0,2.4,2.25c1.4,0,2.81,0,4.22,0a2.52,2.52,0,0,0,2.33-2c.21-.94.35-1.91.51-2.87a.56.56,0,0,1,.4-.5c.79-.3,1.56-.62,2.34-1a.42.42,0,0,1,.5.05l2.17,1.56a2.83,2.83,0,0,0,1.76.53,2.3,2.3,0,0,0,1.56-.64c.92-.87,1.81-1.77,2.7-2.66a2.67,2.67,0,0,0,.33-3.69c-.5-.71-1-1.42-1.51-2.12a.45.45,0,0,1-.05-.51c.34-.78.67-1.57,1-2.37a.51.51,0,0,1,.45-.36c.87-.13,1.74-.27,2.6-.42a2.62,2.62,0,0,0,2.28-2.49Q157.93,125.55,157.88,123.49Zm-21.47,11.34a9.26,9.26,0,1,1,9.28-9.25A9.28,9.28,0,0,1,136.41,134.83Z" fill="#68e1fd" stroke="#093f68" stroke-linecap="round" stroke-linejoin="round" stroke-width="2"/></g></g></svg>