<svg xmlns="http://www.w3.org/2000/svg" viewBox="0 0 400 300"><g id="_504_innovation_outline" data-name="#504_innovation_outline"><path d="M232.1,99.27a32.1,32.1,0,1,0-57.69,19.37,47.09,47.09,0,0,1,9.6,28.45h32A45.64,45.64,0,0,1,225.34,119,31.92,31.92,0,0,0,232.1,99.27Z" fill="#fff"/><path d="M216,148.1H184a1,1,0,0,1-1-1,46.33,46.33,0,0,0-9.4-27.85,33.1,33.1,0,1,1,59.49-20,32.78,32.78,0,0,1-7,20.32A44.75,44.75,0,0,0,217,147.1,1,1,0,0,1,216,148.1Zm-31-2h30a46.74,46.74,0,0,1,9.55-27.74,30.81,30.81,0,0,0,6.55-19.09,31.21,31.21,0,0,0-9.88-22.74,31.1,31.1,0,0,0-46,41.51A48.4,48.4,0,0,1,185,146.1Z" fill="#093f68"/><rect x="180.13" y="156.01" width="38.87" height="8.88" rx="3.72" fill="#ffbc0e"/><path d="M215.28,165.89H183.85a4.73,4.73,0,0,1-4.72-4.72v-1.44a4.73,4.73,0,0,1,4.72-4.72h31.43a4.73,4.73,0,0,1,4.72,4.72v1.44A4.73,4.73,0,0,1,215.28,165.89ZM183.85,157a2.72,2.72,0,0,0-2.72,2.72v1.44a2.72,2.72,0,0,0,2.72,2.72h31.43a2.72,2.72,0,0,0,2.72-2.72v-1.44a2.72,2.72,0,0,0-2.72-2.72Z" fill="#093f68"/><rect x="180.13" y="147.13" width="38.87" height="8.88" rx="3.72" fill="#ffbc0e"/><path d="M215.28,157H183.85a4.73,4.73,0,0,1-4.72-4.72v-1.44a4.73,4.73,0,0,1,4.72-4.72h31.43a4.73,4.73,0,0,1,4.72,4.72v1.44A4.73,4.73,0,0,1,215.28,157Zm-31.43-8.88a2.72,2.72,0,0,0-2.72,2.72v1.44a2.72,2.72,0,0,0,2.72,2.72h31.43a2.72,2.72,0,0,0,2.72-2.72v-1.44a2.72,2.72,0,0,0-2.72-2.72Z" fill="#093f68"/><rect x="180.13" y="138.25" width="38.87" height="8.88" rx="3.72" fill="#ffbc0e"/><path d="M215.28,148.13H183.85a4.73,4.73,0,0,1-4.72-4.72V142a4.73,4.73,0,0,1,4.72-4.72h31.43A4.73,4.73,0,0,1,220,142v1.44A4.73,4.73,0,0,1,215.28,148.13Zm-31.43-8.88a2.72,2.72,0,0,0-2.72,2.72v1.44a2.72,2.72,0,0,0,2.72,2.72h31.43a2.72,2.72,0,0,0,2.72-2.72V142a2.72,2.72,0,0,0-2.72-2.72Z" fill="#093f68"/><path d="M251.08,237.23V193.45a28.56,28.56,0,0,0-28.55-28.56H177.47a28.56,28.56,0,0,0-28.55,28.56v43.78Z" fill="#68e1fd"/><path d="M251.08,238.23H148.92a1,1,0,0,1-1-1V193.45a29.59,29.59,0,0,1,29.55-29.56h45.06a29.59,29.59,0,0,1,29.55,29.56v43.78A1,1,0,0,1,251.08,238.23Zm-101.16-2H250.08V193.45a27.58,27.58,0,0,0-27.55-27.56H177.47a27.58,27.58,0,0,0-27.55,27.56Z" fill="#093f68"/><polygon points="218.61 164.89 207.74 197.51 199.38 222.59 191.26 196.14 181.65 164.89 218.61 164.89" fill="#fff"/><path d="M199.38,223.59h0a1,1,0,0,1-1-.71l-17.72-57.7a1,1,0,0,1,.15-.89,1,1,0,0,1,.8-.4h37a1,1,0,0,1,.95,1.31l-19.23,57.71A1,1,0,0,1,199.38,223.59ZM183,165.89l16.41,53.42,17.81-53.42Z" fill="#093f68"/><rect x="194.7" y="164.89" width="10.59" height="8.33" rx="3.08" fill="#f56132"/><path d="M202.22,174.23h-4.44a4.08,4.08,0,0,1-4.08-4.08V168a4.08,4.08,0,0,1,4.08-4.08h4.44A4.08,4.08,0,0,1,206.3,168v2.18A4.08,4.08,0,0,1,202.22,174.23Zm-4.44-8.34A2.08,2.08,0,0,0,195.7,168v2.18a2.09,2.09,0,0,0,2.08,2.08h4.44a2.09,2.09,0,0,0,2.08-2.08V168a2.08,2.08,0,0,0-2.08-2.08Z" fill="#093f68"/><polygon points="207.74 197.51 199.38 222.59 191.51 196.96 196.96 173.23 203.03 173.23 207.74 197.51" fill="#f56132"/><path d="M199.38,223.59h0a1,1,0,0,1-1-.71l-7.87-25.63a1,1,0,0,1,0-.52L196,173a1,1,0,0,1,1-.78H203a1,1,0,0,1,1,.81l4.71,24.28a.89.89,0,0,1,0,.51l-8.36,25.08A1,1,0,0,1,199.38,223.59Zm-6.84-26.67,6.88,22.39,7.29-21.87-4.5-23.21h-4.46Z" fill="#093f68"/><path d="M172.2,238.23a1,1,0,0,1-1-1V189.46a1,1,0,1,1,2,0v47.77A1,1,0,0,1,172.2,238.23Z" fill="#093f68"/><path d="M227.8,238.23a1,1,0,0,1-1-1V189.46a1,1,0,1,1,2,0v47.77A1,1,0,0,1,227.8,238.23Z" fill="#093f68"/><path d="M205.29,139.25a1,1,0,0,1-1-1A269,269,0,0,1,205,109a21.53,21.53,0,0,1-4.5.54,35.31,35.31,0,0,1-5.62-.38c.17,2,.33,4.2.46,6.52.64,11.54.38,22.5.37,22.61a1,1,0,0,1-1,1h0a1,1,0,0,1-1-1,277.55,277.55,0,0,0-.89-29.46c-8.41-1.87-12.81-7-13.46-12a8.34,8.34,0,0,1,6.38-9.51A3.66,3.66,0,0,1,189,88c2.69,2.14,4.54,8.42,5.63,19.1a34.6,34.6,0,0,0,5.8.43,18.93,18.93,0,0,0,4.72-.66c.89-8.51,2.53-16.12,5.46-18.85a4.13,4.13,0,0,1,3.35-1.2c6.77.73,7.3,5,7.21,6.8-.17,3.37-2.57,7.29-6.43,10.47a24.28,24.28,0,0,1-7.73,4.32,262,262,0,0,0-.76,29.81,1,1,0,0,1-1,1ZM186.67,89.12a1.74,1.74,0,0,0-.45.06,6.33,6.33,0,0,0-4.89,7.31c.54,4.21,4.22,8.42,11.27,10.18-.88-8.24-2.37-15.16-4.81-17.11A1.73,1.73,0,0,0,186.67,89.12Zm26.89-.33a2.26,2.26,0,0,0-1.55.7c-2.41,2.24-3.87,8.86-4.73,16.7,6.75-2.62,11.72-8.5,11.93-12.67.17-3.4-2.86-4.44-5.42-4.72Z" fill="#093f68"/><polygon points="148.92 237.23 136.44 188.7 119.61 193.74 126.01 237.23 148.92 237.23" fill="#68e1fd"/><path d="M148.92,238.23H126a1,1,0,0,1-1-.85l-6.4-43.5a1,1,0,0,1,.7-1.1l16.83-5a1,1,0,0,1,.78.09,1,1,0,0,1,.47.62L149.89,237a1,1,0,0,1-1,1.25Zm-22-2h20.76L135.73,190l-15,4.5Z" fill="#093f68"/><path d="M136.44,188.7s-.72-8.77-2.87-13.25-5.37-10.2-6.8-8,1.43,8.41,1.43,8.41-25.24-5.19-27.92-2-2.33,7,0,8.95,17.14,7,17.14,7a12.83,12.83,0,0,1,2.19,4Z" fill="#fff"/><path d="M119.61,194.74a1,1,0,0,1-1-.76,11.12,11.12,0,0,0-1.83-3.36c-2.46-.84-14.88-5.13-17.18-7.07-2.92-2.47-3-6.92-.12-10.35,2.6-3.12,19.54-.21,27.06,1.26-.84-2.23-1.84-5.8-.63-7.62a1.82,1.82,0,0,1,1.71-.9c.76.05,2.55.17,6.82,9.08,2.21,4.59,2.93,13.23,3,13.6a1,1,0,0,1-.71,1l-16.82,5A1.45,1.45,0,0,1,119.61,194.74Zm-14.55-21c-2.15,0-3.6.21-4,.71-2.46,3-1.92,6-.13,7.55,1.6,1.35,10.94,4.8,16.82,6.79a1,1,0,0,1,.45.32,15.43,15.43,0,0,1,2.06,3.36L135.36,188c-.23-2.23-1-8.6-2.69-12.09-2.76-5.74-4.45-7.65-5.06-7.92-.73,1.29.46,5.15,1.5,7.43a1,1,0,0,1-.13,1,1,1,0,0,1-1,.36C119.6,175.06,110.28,173.77,105.06,173.77Z" fill="#093f68"/><path d="M122.83,182.36a1,1,0,0,1-1-.92c-.33-4.25,3.9-6.19,6.19-6.61a1,1,0,0,1,1.16.79,1,1,0,0,1-.79,1.17h0c-.2,0-4.84,1-4.56,4.49a1,1,0,0,1-.92,1.07Z" fill="#093f68"/><polygon points="251.74 237.23 264.22 188.7 281.05 193.74 274.65 237.23 251.74 237.23" fill="#68e1fd"/><path d="M274.65,238.23H251.74a1,1,0,0,1-1-1.25l12.48-48.53a1,1,0,0,1,1.26-.71l16.82,5a1,1,0,0,1,.71,1.1l-6.4,43.5A1,1,0,0,1,274.65,238.23Zm-21.62-2h20.76l6.14-41.78-15-4.5Z" fill="#093f68"/><path d="M264.22,188.7s.72-8.77,2.87-13.25,5.37-10.2,6.8-8-1.43,8.41-1.43,8.41,25.23-5.19,27.92-2,2.33,7,0,8.95-17.14,7-17.14,7a12.83,12.83,0,0,0-2.19,4Z" fill="#fff"/><path d="M281.05,194.74a1.35,1.35,0,0,1-.29,0l-16.83-5a1,1,0,0,1-.71-1c0-.37.76-9,3-13.6,4.28-8.91,6.06-9,6.83-9.08a1.85,1.85,0,0,1,1.71.9c1.21,1.82.2,5.39-.63,7.62,7.51-1.47,24.45-4.39,27.06-1.26,2.85,3.43,2.8,7.88-.12,10.35-2.3,1.94-14.72,6.23-17.18,7.07A11,11,0,0,0,282,194a1,1,0,0,1-1,.76ZM265.3,188l15.11,4.53a15.43,15.43,0,0,1,2.06-3.36,1,1,0,0,1,.45-.32c5.88-2,15.21-5.44,16.81-6.79,1.8-1.52,2.34-4.6-.12-7.55-1.42-1.7-15.1-.13-26.95,2.31a1,1,0,0,1-1-.36,1,1,0,0,1-.12-1c1.06-2.32,2.27-6.28,1.51-7.43-.6.25-2.3,2.15-5.07,7.92C266.32,179.37,265.53,185.74,265.3,188Z" fill="#093f68"/><path d="M277.83,182.36h-.08a1,1,0,0,1-.92-1.07c.28-3.52-4.36-4.45-4.56-4.49a1,1,0,1,1,.37-2c2.29.42,6.52,2.36,6.18,6.61A1,1,0,0,1,277.83,182.36Z" fill="#093f68"/><g id="ahcQ9Z"><path d="M149,129.93a3.27,3.27,0,0,0-2.54-3.07c-1.23-.27-2.48-.47-3.72-.66a.82.82,0,0,1-.74-.61c-.37-1-.78-2-1.21-2.93a.63.63,0,0,1,.06-.74c.75-1,1.52-2.06,2.21-3.13a3.26,3.26,0,0,0-.29-4c-1.14-1.24-2.36-2.42-3.55-3.61a3.48,3.48,0,0,0-4.75-.44c-.93.65-1.86,1.31-2.78,2a.63.63,0,0,1-.74.08c-1-.47-2.11-.91-3.19-1.32a.65.65,0,0,1-.48-.57c-.17-1.14-.36-2.28-.56-3.41a3.44,3.44,0,0,0-3.29-3q-2.62-.06-5.25,0a3.33,3.33,0,0,0-3.18,2.6c-.28,1.28-.48,2.57-.69,3.85a.65.65,0,0,1-.48.58c-1,.41-2,.84-3,1.29a.59.59,0,0,1-.7-.06c-1-.74-2-1.5-3.07-2.19a3.28,3.28,0,0,0-4,.26q-2,1.83-3.86,3.82a3.36,3.36,0,0,0-.23,4.47c.69,1,1.4,2,2.07,2.94a.63.63,0,0,1,.06.52c-.42,1.1-.87,2.2-1.33,3.28a.63.63,0,0,1-.41.34c-1.13.21-2.27.4-3.41.58a3.43,3.43,0,0,0-3,3.2c-.06,1.82-.06,3.65,0,5.48a3.29,3.29,0,0,0,2.52,3.05c1.3.29,2.62.49,3.94.71a.64.64,0,0,1,.55.45c.41,1,.85,2.07,1.3,3.09a.56.56,0,0,1-.06.66c-.69.94-1.38,1.88-2,2.85a3.45,3.45,0,0,0,.4,4.61q1.64,1.68,3.32,3.32a3.46,3.46,0,0,0,4.73.36c1-.67,1.9-1.34,2.84-2a.54.54,0,0,1,.63,0c1,.42,1.94.84,2.93,1.2a.74.74,0,0,1,.54.69c.17,1.12.36,2.24.56,3.36a3.38,3.38,0,0,0,3.14,2.94c1.84.07,3.68.06,5.52,0a3.3,3.3,0,0,0,3.06-2.57c.27-1.24.46-2.5.67-3.76a.72.72,0,0,1,.52-.65c1-.39,2.05-.82,3.06-1.27a.59.59,0,0,1,.66.07c.94.69,1.9,1.36,2.85,2a3.59,3.59,0,0,0,2.29.69,2.91,2.91,0,0,0,2-.83c1.21-1.14,2.37-2.32,3.55-3.49a3.51,3.51,0,0,0,.43-4.83c-.65-.93-1.31-1.85-2-2.77a.59.59,0,0,1-.07-.67q.67-1.53,1.29-3.09a.63.63,0,0,1,.59-.47l3.4-.56a3.42,3.42,0,0,0,3-3.26C149,133.53,149,131.73,149,129.93Zm-28.11,14.85A12.13,12.13,0,1,1,133,132.67,12.13,12.13,0,0,1,120.86,144.78Z" fill="#f56132" stroke="#093f68" stroke-linecap="round" stroke-linejoin="round" stroke-width="2"/></g><g id="ahcQ9Z-2" data-name="ahcQ9Z"><path d="M307.2,129.93a3.27,3.27,0,0,0-2.54-3.07c-1.23-.27-2.48-.47-3.72-.66a.83.83,0,0,1-.74-.61c-.37-1-.78-2-1.21-2.93a.63.63,0,0,1,.07-.74c.75-1,1.51-2.06,2.2-3.13a3.26,3.26,0,0,0-.29-4c-1.13-1.24-2.35-2.42-3.54-3.61a3.5,3.5,0,0,0-4.76-.44c-.93.65-1.86,1.31-2.77,2a.65.65,0,0,1-.75.08q-1.57-.7-3.18-1.32a.62.62,0,0,1-.48-.57c-.18-1.14-.37-2.28-.57-3.41a3.44,3.44,0,0,0-3.29-3q-2.62-.06-5.25,0a3.34,3.34,0,0,0-3.18,2.6c-.28,1.28-.48,2.57-.69,3.85a.65.65,0,0,1-.48.58c-1,.41-2,.84-3,1.29a.6.6,0,0,1-.71-.06c-1-.74-2-1.5-3.07-2.19a3.28,3.28,0,0,0-4,.26c-1.33,1.22-2.63,2.49-3.86,3.82a3.36,3.36,0,0,0-.23,4.47c.69,1,1.4,2,2.07,2.94a.63.63,0,0,1,.06.52c-.42,1.1-.86,2.2-1.33,3.28a.61.61,0,0,1-.41.34c-1.13.21-2.27.4-3.41.58a3.43,3.43,0,0,0-3,3.2c-.06,1.82-.06,3.65,0,5.48a3.29,3.29,0,0,0,2.52,3.05c1.3.29,2.63.49,3.94.71a.62.62,0,0,1,.55.45c.41,1,.85,2.07,1.31,3.09a.59.59,0,0,1-.06.66c-.7.94-1.39,1.88-2,2.85a3.44,3.44,0,0,0,.39,4.61c1.1,1.12,2.2,2.23,3.32,3.32a3.46,3.46,0,0,0,4.73.36c.95-.67,1.91-1.34,2.85-2a.53.53,0,0,1,.62,0c1,.42,1.94.84,2.93,1.2a.76.76,0,0,1,.55.69c.17,1.12.35,2.24.55,3.36a3.38,3.38,0,0,0,3.14,2.94c1.84.07,3.69.06,5.53,0a3.31,3.31,0,0,0,3.06-2.57c.27-1.24.45-2.5.66-3.76a.74.74,0,0,1,.52-.65c1-.39,2.05-.82,3.06-1.27a.59.59,0,0,1,.66.07c.95.69,1.9,1.36,2.85,2a3.59,3.59,0,0,0,2.29.69,2.91,2.91,0,0,0,2-.83c1.21-1.14,2.37-2.32,3.55-3.49a3.5,3.5,0,0,0,.43-4.83c-.65-.93-1.31-1.85-2-2.77a.61.61,0,0,1-.07-.67q.68-1.53,1.29-3.09a.64.64,0,0,1,.59-.47l3.41-.56a3.42,3.42,0,0,0,3-3.26C307.25,133.53,307.25,131.73,307.2,129.93Zm-28.1,14.85a12.13,12.13,0,1,1,12.15-12.11A12.13,12.13,0,0,1,279.1,144.78Z" fill="#70cc40" stroke="#093f68" stroke-linecap="round" stroke-linejoin="round" stroke-width="2"/></g><path d="M157.87,93.42a1,1,0,0,1-.33-.06l-6.09-2.11a1,1,0,0,1-.61-1.27,1,1,0,0,1,1.27-.62l6.08,2.11a1,1,0,0,1-.32,2Z" fill="#dfeaef"/><path d="M200.24,59.29a1,1,0,0,1-1-1V50.77a1,1,0,0,1,2,0v7.52A1,1,0,0,1,200.24,59.29Z" fill="#dfeaef"/><path d="M172.2,69.12a1,1,0,0,1-.7-.28l-4.3-4.15a1,1,0,0,1,1.39-1.44l4.3,4.15a1,1,0,0,1,0,1.41A1,1,0,0,1,172.2,69.12Z" fill="#dfeaef"/><path d="M243.09,93.42a1,1,0,0,1-.33-2l5.79-2a1,1,0,0,1,.66,1.89l-5.79,2A1,1,0,0,1,243.09,93.42Z" fill="#dfeaef"/><path d="M228.76,69.12a1,1,0,0,1-.72-.31,1,1,0,0,1,0-1.41l5.38-5.18a1,1,0,0,1,1.39,1.43l-5.38,5.19A1,1,0,0,1,228.76,69.12Z" fill="#dfeaef"/></g></svg>