<svg xmlns="http://www.w3.org/2000/svg" viewBox="0 0 400 300"><g id="_71_innovation_outline" data-name="#71_innovation_outline"><ellipse cx="203.85" cy="177.35" rx="15.44" ry="8.75" fill="#093f68"/><path d="M203.85,187.1c-9.22,0-16.44-4.28-16.44-9.75s7.22-9.75,16.44-9.75,16.44,4.28,16.44,9.75S213.07,187.1,203.85,187.1Zm0-17.5c-7.83,0-14.44,3.55-14.44,7.75s6.61,7.75,14.44,7.75,14.44-3.55,14.44-7.75S211.68,169.6,203.85,169.6Z" fill="#093f68"/><path d="M242.32,110.09a38.33,38.33,0,0,1-14.1,31,19.5,19.5,0,0,0-7,15.13l-34.57-.05a19.76,19.76,0,0,0-7.2-15.23,38.41,38.41,0,1,1,62.88-30.87Z" fill="#68e1fd"/><path d="M221.21,157.24h0l-34.57-.05a1,1,0,0,1-1-1,18.73,18.73,0,0,0-6.84-14.46,39.42,39.42,0,1,1,64.52-31.67h0a39.15,39.15,0,0,1-14.47,31.83,18.38,18.38,0,0,0-6.64,14.35,1,1,0,0,1-.29.7A1,1,0,0,1,221.21,157.24Zm-33.6-2.05,32.62,0a20.29,20.29,0,0,1,7.36-14.89,37.21,37.21,0,0,0,13.73-30.22h0A37.51,37.51,0,0,0,205.46,74a37.41,37.41,0,0,0-25.38,66.21A20.75,20.75,0,0,1,187.61,155.19Z" fill="#093f68"/><polyline points="197.18 156.19 197.18 125.16 188.43 125.16" fill="#68e1fd"/><path d="M197.18,157.19a1,1,0,0,1-1-1v-30h-7.75a1,1,0,0,1,0-2h8.75a1,1,0,0,1,1,1v31A1,1,0,0,1,197.18,157.19Z" fill="#093f68"/><polyline points="213.22 156.19 213.22 114.59 225.51 114.59" fill="#68e1fd"/><path d="M213.22,157.19a1,1,0,0,1-1-1v-41.6a1,1,0,0,1,1-1h12.29a1,1,0,0,1,0,2H214.22v40.6A1,1,0,0,1,213.22,157.19Z" fill="#093f68"/><polyline points="205.1 156.19 205.1 101.62 193.43 101.62" fill="#68e1fd"/><path d="M205.1,157.19a1,1,0,0,1-1-1V102.62H193.43a1,1,0,0,1,0-2H205.1a1,1,0,0,1,1,1v54.57A1,1,0,0,1,205.1,157.19Z" fill="#093f68"/><circle cx="189.68" cy="101.62" r="3.75" fill="#fff"/><path d="M189.68,106.37a4.75,4.75,0,1,1,4.75-4.75A4.75,4.75,0,0,1,189.68,106.37Zm0-7.5a2.75,2.75,0,1,0,2.75,2.75A2.76,2.76,0,0,0,189.68,98.87Z" fill="#093f68"/><circle cx="184.68" cy="125.16" r="3.75" fill="#fff"/><path d="M184.68,129.91a4.75,4.75,0,1,1,4.75-4.75A4.75,4.75,0,0,1,184.68,129.91Zm0-7.5a2.75,2.75,0,1,0,2.75,2.75A2.76,2.76,0,0,0,184.68,122.41Z" fill="#093f68"/><circle cx="229.26" cy="114.59" r="3.75" fill="#fff"/><path d="M229.26,119.34a4.75,4.75,0,1,1,4.75-4.75A4.76,4.76,0,0,1,229.26,119.34Zm0-7.5a2.75,2.75,0,1,0,2.75,2.75A2.75,2.75,0,0,0,229.26,111.84Z" fill="#093f68"/><rect x="184.74" y="156.19" width="38.21" height="23.55" rx="2.18" fill="#ffbc0e"/><path d="M220.78,180.74H186.92a3.18,3.18,0,0,1-3.18-3.18V158.37a3.19,3.19,0,0,1,3.18-3.18h33.86a3.18,3.18,0,0,1,3.17,3.18v19.19A3.17,3.17,0,0,1,220.78,180.74Zm-33.86-23.55a1.18,1.18,0,0,0-1.18,1.18v19.19a1.18,1.18,0,0,0,1.18,1.18h33.86a1.17,1.17,0,0,0,1.17-1.18V158.37a1.17,1.17,0,0,0-1.17-1.18Z" fill="#093f68"/><path d="M223.63,162.68H184.07a1,1,0,0,1,0-2h39.56a1,1,0,0,1,0,2Z" fill="#093f68"/><path d="M223.63,169H184.07a1,1,0,0,1,0-2h39.56a1,1,0,0,1,0,2Z" fill="#093f68"/><path d="M223.63,175.26H184.07a1,1,0,0,1,0-2h39.56a1,1,0,0,1,0,2Z" fill="#093f68"/><path d="M204.05,63.06a1,1,0,0,1-1-1V49.5a1,1,0,0,1,2,0V62.06A1,1,0,0,1,204.05,63.06Z" fill="#dfeaef"/><path d="M166.67,74.7a1,1,0,0,1-.71-.29l-8.88-8.88a1,1,0,0,1,1.42-1.42L167.38,73a1,1,0,0,1,0,1.42A1,1,0,0,1,166.67,74.7Z" fill="#dfeaef"/><path d="M238.83,74.7a1,1,0,0,1-.71-.29,1,1,0,0,1,0-1.42L247,64.11a1,1,0,0,1,1.41,1.42l-8.88,8.88A1,1,0,0,1,238.83,74.7Z" fill="#dfeaef"/><path d="M264.2,144.8a.93.93,0,0,1-.5-.14l-10.82-6.37a1,1,0,1,1,1-1.72l10.82,6.37a1,1,0,0,1-.51,1.86Z" fill="#dfeaef"/><path d="M143.65,144.8a1,1,0,0,1-.51-1.86L154,136.57a1,1,0,1,1,1,1.72l-10.82,6.37A.93.93,0,0,1,143.65,144.8Z" fill="#dfeaef"/><path d="M258.36,108A1,1,0,0,1,258,106l10.85-4a1,1,0,0,1,.7,1.87l-10.86,4A1,1,0,0,1,258.36,108Z" fill="#dfeaef"/><path d="M149.49,108a1.12,1.12,0,0,1-.35-.06l-10.85-4A1,1,0,1,1,139,102l10.85,4a1,1,0,0,1-.35,1.94Z" fill="#dfeaef"/><path d="M156.11,216.84s12-21.34,22.79-23.07a33.78,33.78,0,0,1,19.18,2.59s19.91-.43,24.95-.43,6.35,4.93,5.05,8.88c0,0,11-16.53,15.58-18.69s10.1-.58,9.23,4.76-20.34,27.84-23.65,32.31-5.92,3.61-13,3.61-28.28-.59-29.57.06-6.21,6.86-6.21,6.86Z" fill="#ffc9b0"/><path d="M180.48,234.72a1,1,0,0,1-.56-.18l-24.38-16.87a1,1,0,0,1-.3-1.32c.49-.88,12.33-21.79,23.5-23.57a34.76,34.76,0,0,1,19.56,2.58c2.3-.05,20-.43,24.73-.43a6.07,6.07,0,0,1,5.19,2.45,7.45,7.45,0,0,1,1.29,3.57c3.53-5.06,10.16-14.06,13.73-15.73,3.13-1.47,6.54-1.38,8.69.24a5.53,5.53,0,0,1,1.95,5.58c-.65,4-9.87,15.55-19.26,27-2.13,2.61-3.81,4.67-4.58,5.71-3.12,4.2-5.88,4.14-10.88,4-.88,0-1.84,0-2.9,0-2,0-5.18-.05-8.7-.1-7.65-.12-19.23-.29-20.49.09-.62.32-3.52,3.66-5.8,6.55A1,1,0,0,1,180.48,234.72Zm-23-18.17,22.85,15.82c1.57-2,4.74-5.79,6-6.4,1-.49,6.44-.5,21.36-.27,3.5.05,6.65.1,8.66.1,1.08,0,2.05,0,2.94,0,4.89.11,6.73.14,9.23-3.24.8-1.07,2.5-3.15,4.64-5.77,6.37-7.79,18.22-22.29,18.83-26.1a3.55,3.55,0,0,0-1.18-3.66c-1.53-1.16-4.2-1.17-6.64,0-3.57,1.67-12.16,13.8-15.16,18.33a1,1,0,0,1-1.79-.86,6.83,6.83,0,0,0-.53-5.94,4.14,4.14,0,0,0-3.57-1.63c-5,0-24.73.43-24.93.43a1,1,0,0,1-.48-.11,33.12,33.12,0,0,0-18.56-2.5C170,196.21,159.7,212.73,157.44,216.55Z" fill="#093f68"/><polygon points="180.3 242.5 184.96 235.88 152.07 212.81 130.79 242.5 180.3 242.5" fill="#f56132"/><path d="M180.3,243.5H130.79a1,1,0,0,1-.81-1.58l21.28-29.7a1,1,0,0,1,1.38-.23l32.89,23.07a1,1,0,0,1,.41.65,1,1,0,0,1-.17.75l-4.65,6.62A1,1,0,0,1,180.3,243.5Zm-47.56-2h47l3.78-5.37-31.25-21.94Z" fill="#093f68"/><path d="M221.59,208.13H197.36a1,1,0,0,1,0-2h24.23c4.49,0,5.61-1.78,5.62-1.8a1,1,0,0,1,1.35-.38,1,1,0,0,1,.41,1.32C228.82,205.56,227.32,208.13,221.59,208.13Z" fill="#093f68"/></g></svg>