<svg xmlns="http://www.w3.org/2000/svg" viewBox="0 0 400 300"><g id="_218_iwatch_outline" data-name="#218_iwatch_outline"><path d="M119.61,150c0,48.81,16.66,88.39,37.21,88.39h44.32c-20.56,0-37.23-39.58-37.23-88.39s16.67-88.39,37.23-88.39H156.82C136.27,61.61,119.61,101.18,119.61,150Z" fill="#093f68"/><path d="M201.14,239.39H156.82c-10.36,0-20-9.41-27.23-26.5-7.08-16.82-11-39.15-11-62.89s3.9-46.08,11-62.89c7.19-17.09,16.87-26.5,27.23-26.5h44.32a1,1,0,0,1,0,2c-20,0-36.22,39.2-36.22,87.39s16.25,87.39,36.22,87.39a1,1,0,0,1,0,2ZM156.82,62.61c-20,0-36.21,39.2-36.21,87.39s16.24,87.39,36.21,87.39H193c-7.22-3.6-13.81-12-19.07-24.5-7.09-16.82-11-39.15-11-62.89s3.89-46.08,11-62.89c5.26-12.51,11.85-20.9,19.07-24.5Z" fill="#093f68"/><path d="M259.61,150c0,48.81-16.66,88.39-37.22,88.39H171c20.57,0,37.23-39.58,37.23-88.39S191.56,61.61,171,61.61h51.4C243,61.61,259.61,101.18,259.61,150Z" fill="#fff"/><path d="M222.39,239.39H171a1,1,0,0,1,0-2c20,0,36.23-39.2,36.23-87.39S191,62.61,171,62.61a1,1,0,0,1,0-2h51.4c10.37,0,20,9.41,27.24,26.5,7.08,16.81,11,39.15,11,62.89s-3.9,46.07-11,62.89C242.43,230,232.76,239.39,222.39,239.39Zm-43.23-2h43.23c20,0,36.22-39.2,36.22-87.39s-16.25-87.39-36.22-87.39H179.16c7.22,3.6,13.81,12,19.08,24.5,7.08,16.81,11,39.14,11,62.89s-3.9,46.07-11,62.89C193,225.39,186.38,233.79,179.16,237.39Z" fill="#093f68"/><rect x="178.1" y="95.01" width="96.4" height="107.38" rx="13.94" fill="#fff"/><path d="M260.55,203.39H192a15,15,0,0,1-14.94-14.95V109A15,15,0,0,1,192,94h68.51A15,15,0,0,1,275.49,109v79.49A15,15,0,0,1,260.55,203.39ZM192,96A13,13,0,0,0,179.1,109v79.49A13,13,0,0,0,192,201.39h68.51a13,13,0,0,0,12.94-12.95V109A13,13,0,0,0,260.55,96Z" fill="#093f68"/><rect x="183.22" y="100.61" width="86.16" height="96.17" rx="12.48" fill="#68e1fd"/><path d="M256.9,197.78H195.69a13.48,13.48,0,0,1-13.47-13.47V113.09a13.49,13.49,0,0,1,13.47-13.48H256.9a13.5,13.5,0,0,1,13.48,13.48v71.22A13.49,13.49,0,0,1,256.9,197.78Zm-61.21-96.17a11.49,11.49,0,0,0-11.47,11.48v71.22a11.49,11.49,0,0,0,11.47,11.47H256.9a11.49,11.49,0,0,0,11.48-11.47V113.09a11.49,11.49,0,0,0-11.48-11.48Z" fill="#093f68"/><path d="M274.49,119.62h3.09a2.81,2.81,0,0,1,2.81,2.81v11.27a2.81,2.81,0,0,1-2.81,2.81h-3.09a0,0,0,0,1,0,0V119.62A0,0,0,0,1,274.49,119.62Z" fill="#093f68"/><path d="M277.58,137.5h-3.09a1,1,0,0,1-1-1V119.62a1,1,0,0,1,1-1h3.09a3.81,3.81,0,0,1,3.81,3.8v11.27A3.82,3.82,0,0,1,277.58,137.5Zm-2.09-2h2.09a1.81,1.81,0,0,0,1.81-1.81V122.42a1.81,1.81,0,0,0-1.81-1.8h-2.09Z" fill="#093f68"/><path d="M274.49,152.16H277a1.74,1.74,0,0,1,1.74,1.74v23.37A1.74,1.74,0,0,1,277,179h-2.53a0,0,0,0,1,0,0V152.16A0,0,0,0,1,274.49,152.16Z" fill="#093f68"/><path d="M277,180h-2.54a1,1,0,0,1-1-1V152.16a1,1,0,0,1,1-1H277a2.73,2.73,0,0,1,2.73,2.73v23.37A2.74,2.74,0,0,1,277,180Zm-1.54-2H277a.74.74,0,0,0,.73-.74V153.89a.73.73,0,0,0-.73-.73h-1.54Z" fill="#093f68"/><path d="M194.34,147.47a1,1,0,0,1-.68-1.73l30.16-28.39a1,1,0,0,1,1.41,0,1,1,0,0,1,0,1.42L195,147.2A1,1,0,0,1,194.34,147.47Z" fill="#fff"/><path d="M202.57,175.88a1,1,0,0,1-.67-1.75l55.36-49.75a1,1,0,0,1,1.41.07,1,1,0,0,1-.08,1.42l-55.36,49.75A1,1,0,0,1,202.57,175.88Z" fill="#fff"/><path d="M238.59,180a1,1,0,0,1-.68-1.73l18-16.7a1,1,0,0,1,1.41.05,1,1,0,0,1-.05,1.42l-18,16.69A1,1,0,0,1,238.59,180Z" fill="#fff"/><path d="M192,202.39s5.23,1,4.66,11.53h51.39l12.46-11.53Z" fill="#fff"/><path d="M248.09,214.92H196.7a1,1,0,0,1-.72-.31,1,1,0,0,1-.27-.74c.5-9.42-3.69-10.46-3.87-10.5a1,1,0,0,1-.78-1.09,1,1,0,0,1,1-.89h68.51a1,1,0,0,1,.68,1.73l-12.46,11.54A1,1,0,0,1,248.09,214.92Zm-50.35-2h50l10.3-9.53H195.22C196.56,205,197.84,207.84,197.74,212.92Z" fill="#093f68"/><path d="M192,95s3.12-7.25,2.3-13.86h51.39S255.89,91.9,260.55,95Z" fill="#fff"/><path d="M260.55,96H192a1,1,0,0,1-.92-1.39c0-.08,3-7.09,2.23-13.34a1,1,0,0,1,.24-.79,1,1,0,0,1,.75-.33h51.39a1,1,0,0,1,.73.31c.1.11,10.13,10.7,14.64,13.71a1,1,0,0,1-.55,1.83ZM193.5,94h64.09c-4.53-3.78-10.83-10.32-12.29-11.85H195.44A31.65,31.65,0,0,1,193.5,94Z" fill="#093f68"/></g></svg>