<svg xmlns="http://www.w3.org/2000/svg" viewBox="0 0 400 300"><g id="_75_job_interview_outline" data-name="#75_job_interview_outline"><path d="M128.13,127.72h35.81a12.66,12.66,0,0,1,12.66,12.66V168.8a0,0,0,0,1,0,0H115.47a0,0,0,0,1,0,0V140.38A12.66,12.66,0,0,1,128.13,127.72Z" fill="#f56132"/><path d="M176.59,169.8H115.47a1,1,0,0,1-1-1V140.38a13.68,13.68,0,0,1,13.66-13.66h35.81a13.67,13.67,0,0,1,13.65,13.66V168.8A1,1,0,0,1,176.59,169.8Zm-60.12-2h59.12V140.38a11.67,11.67,0,0,0-11.65-11.66H128.13a11.67,11.67,0,0,0-11.66,11.66Z" fill="#093f68"/><path d="M136,137.91h41a8.7,8.7,0,0,1,8.7,8.7v38a0,0,0,0,1,0,0h-58.4a0,0,0,0,1,0,0v-38A8.7,8.7,0,0,1,136,137.91Z" fill="#68e1fd"/><path d="M185.72,185.62h-58.4a1,1,0,0,1-1-1v-38a9.71,9.71,0,0,1,9.7-9.69h41a9.71,9.71,0,0,1,9.7,9.69v38A1,1,0,0,1,185.72,185.62Zm-57.4-2h56.4v-37a7.7,7.7,0,0,0-7.7-7.69H136a7.7,7.7,0,0,0-7.7,7.69Z" fill="#093f68"/><polygon points="167.16 137.91 156.71 177.48 146.03 137.91 167.16 137.91" fill="#fff"/><path d="M156.71,178.48a1,1,0,0,1-1-.74l-10.68-39.57a1,1,0,0,1,.17-.87,1,1,0,0,1,.79-.39h21.13a1,1,0,0,1,.8.39,1,1,0,0,1,.17.87l-10.45,39.56a1,1,0,0,1-1,.75Zm-9.37-39.57,9.36,34.69,9.16-34.69Z" fill="#093f68"/><path d="M153,134.8h8.17a0,0,0,0,1,0,0v4.7a3.47,3.47,0,0,1-3.47,3.47H156.5a3.47,3.47,0,0,1-3.47-3.47v-4.7A0,0,0,0,1,153,134.8Z" fill="#ffc9b0"/><path d="M157.73,144H156.5a4.48,4.48,0,0,1-4.47-4.47V134.8a1,1,0,0,1,1-1h8.17a1,1,0,0,1,1,1v4.71A4.47,4.47,0,0,1,157.73,144ZM154,135.8v3.71A2.48,2.48,0,0,0,156.5,142h1.23a2.48,2.48,0,0,0,2.47-2.47V135.8Z" fill="#093f68"/><path d="M128.91,112.13c-3.8-1.43-3.56-4.33-4.14-8a96.36,96.36,0,0,1-1-11.12c-.15-4.23,0-8.58,1.61-12.5,2.06-5,6.14-8.31,11.59-7.86-.16-7.44,4.3-14.42,12.21-14.84,12.66-.67,19.94,12.93,27,11.91s9-4.16,9-4.16a13,13,0,0,1-1.51,14.34s5.58-1.63,6.25,5.8-3.77,27.17-3.77,27.17l-5.06-.88c-2.13-.38-4.79.14-6.93.21l-15.83.5C150.37,112.89,137.53,115.4,128.91,112.13Z" fill="#725858"/><path d="M140.33,114.79a34,34,0,0,1-11.78-1.72c-3.81-1.44-4.17-4.3-4.56-7.32-.06-.49-.12-1-.2-1.52A94.13,94.13,0,0,1,122.73,93c-.14-4,0-8.67,1.69-12.91,2.19-5.39,6.45-8.51,11.52-8.52.26-7.19,4.71-14.35,13.14-14.8,7.44-.39,13.17,3.93,17.76,7.41,3.48,2.63,6.49,4.9,9.2,4.51,6.43-.91,8.25-3.66,8.26-3.69a1,1,0,0,1,.87-.47A1,1,0,0,1,186,65a14.21,14.21,0,0,1-.38,13.73,5.34,5.34,0,0,1,2.4.89c1.63,1.11,2.59,3.1,2.85,5.93.68,7.5-3.61,26.67-3.79,27.48a1,1,0,0,1-1.15.77l-5.07-.89a18,18,0,0,0-4.44.06c-.8.08-1.55.15-2.28.17l-15.83.5c-2,.06-4.29.26-6.74.48C148.09,114.44,144.18,114.79,140.33,114.79ZM136,73.56c-4.29,0-7.79,2.61-9.69,7.27-1.59,3.9-1.67,8.3-1.54,12.09a94.26,94.26,0,0,0,1,11c.09.54.15,1.06.22,1.56.37,2.93.59,4.69,3.28,5.71h0c6.23,2.36,15.06,1.57,22.16.94,2.48-.22,4.82-.43,6.85-.49l15.83-.5c.67,0,1.39-.09,2.16-.16a19.72,19.72,0,0,1,5,0l4.12.72c.86-4,4.12-19.64,3.55-25.93-.2-2.19-.86-3.69-2-4.45a4,4,0,0,0-3-.48,1,1,0,0,1-1.11-.41,1,1,0,0,1,.06-1.18,11.84,11.84,0,0,0,2-11.93c-1.31,1.13-3.89,2.71-8.55,3.37-3.54.51-6.85-2-10.68-4.89-4.56-3.46-9.7-7.36-16.45-7-7.58.4-11.4,7.26-11.26,13.82a1,1,0,0,1-.32.74,1,1,0,0,1-.76.27Z" fill="#093f68"/><ellipse cx="133.77" cy="113.58" rx="7.94" ry="6.84" fill="#ffc9b0"/><path d="M133.77,121.42c-4.93,0-8.94-3.52-8.94-7.84s4-7.84,8.94-7.84,8.93,3.52,8.93,7.84S138.69,121.42,133.77,121.42Zm0-13.68c-3.83,0-6.94,2.62-6.94,5.84s3.11,5.84,6.94,5.84,6.93-2.62,6.93-5.84S137.59,107.74,133.77,107.74Z" fill="#093f68"/><ellipse cx="180.04" cy="113.58" rx="7.94" ry="6.84" fill="#ffc9b0"/><path d="M180,121.42c-4.92,0-8.93-3.52-8.93-7.84s4-7.84,8.93-7.84,8.94,3.52,8.94,7.84S185,121.42,180,121.42Zm0-13.68c-3.82,0-6.93,2.62-6.93,5.84s3.11,5.84,6.93,5.84,6.94-2.62,6.94-5.84S183.87,107.74,180,107.74Z" fill="#093f68"/><path d="M157.12,135.88h0a23.94,23.94,0,0,1-23.94-23.94V94.55c1.39,2.3,6,1.39,12.85-10.3,25.51,12.92,35,5.52,35,5.52v22.17A23.94,23.94,0,0,1,157.12,135.88Z" fill="#ffc9b0"/><path d="M157.12,136.88a25,25,0,0,1-25-24.94V94.55A1,1,0,0,1,134,94a1,1,0,0,0,1,.53c1.86,0,5.51-2.86,10.14-10.81a1,1,0,0,1,1.31-.39C171,95.76,180.36,89,180.45,89a1,1,0,0,1,1.05-.09,1,1,0,0,1,.56.89v22.17A25,25,0,0,1,157.12,136.88Zm-23-40.42v15.48a22.95,22.95,0,0,0,45.89,0V91.45c-3.68,1.6-13.91,3.91-33.64-5.89-4.25,7.08-8.27,11-11.38,11A4.14,4.14,0,0,1,134.17,96.46Z" fill="#093f68"/><circle cx="148.25" cy="108.45" r="2.22" fill="#093f68"/><circle cx="168.9" cy="108.45" r="2.22" fill="#093f68"/><path d="M159.05,118.62a12.56,12.56,0,0,1-2.21-.19,1,1,0,0,1-.81-1.15,1,1,0,0,1,1.16-.82,10.23,10.23,0,0,0,2.93.08,17.49,17.49,0,0,0-1.84-4.84,1,1,0,0,1,.42-1.34,1,1,0,0,1,1.35.42c1,1.9,2.55,5.3,1.89,6.79a1.51,1.51,0,0,1-1,.85A7.9,7.9,0,0,1,159.05,118.62Z" fill="#093f68"/><path d="M153.53,102.54h0l-10.57-.23a2,2,0,0,1-2-2,2,2,0,0,1,2-2l10.57.23a2,2,0,0,1-.05,4Z" fill="#093f68"/><path d="M164.31,103.31a2,2,0,0,1-.11-4l10.56-.58a2,2,0,0,1,.22,4l-10.56.58Z" fill="#093f68"/><rect x="153.68" y="143.77" width="6.05" height="4.76" rx="1.76" fill="#f56132"/><path d="M158,149.53h-2.54a2.76,2.76,0,0,1-2.76-2.75v-1.25a2.77,2.77,0,0,1,2.76-2.76H158a2.77,2.77,0,0,1,2.76,2.76v1.25A2.76,2.76,0,0,1,158,149.53Zm-2.54-4.76a.76.76,0,0,0-.76.76v1.25a.76.76,0,0,0,.76.75H158a.76.76,0,0,0,.76-.75v-1.25a.76.76,0,0,0-.76-.76Z" fill="#093f68"/><polygon points="160.24 164.14 156.71 177.48 152.81 163 154.97 148.53 158.44 148.53 160.24 164.14" fill="#f56132"/><path d="M156.71,178.48a1,1,0,0,1-1-.74l-3.91-14.47a1,1,0,0,1,0-.41L154,148.39a1,1,0,0,1,1-.86h3.47a1,1,0,0,1,1,.89l1.8,15.6a1.14,1.14,0,0,1,0,.37l-3.52,13.34a1,1,0,0,1-1,.75ZM153.83,163l2.87,10.65,2.52-9.54-1.67-14.53h-1.72Z" fill="#093f68"/><path d="M140.63,185.62a1,1,0,0,1-1-1V152a1,1,0,0,1,2,0v32.66A1,1,0,0,1,140.63,185.62Z" fill="#093f68"/><path d="M172.41,185.62a1,1,0,0,1-1-1V152a1,1,0,0,1,2,0v32.66A1,1,0,0,1,172.41,185.62Z" fill="#093f68"/><path d="M150.47,121.11h13.84s-1.38,9.09-7.71,8.69C149.38,129.35,150.47,121.11,150.47,121.11Z" fill="#fff"/><path d="M157,130.81h-.48a7.06,7.06,0,0,1-5.25-2.47c-2.37-2.88-1.84-7.17-1.82-7.35a1,1,0,0,1,1-.87h13.84a1,1,0,0,1,1,1.15C165.24,121.66,163.76,130.81,157,130.81Zm-5.61-8.7a7.9,7.9,0,0,0,1.43,5,5.12,5.12,0,0,0,3.82,1.74c4.06.26,5.82-4.45,6.41-6.69Z" fill="#093f68"/><rect x="108.38" y="164.12" width="177.06" height="77.71" fill="#fff"/><path d="M285.44,242.84H108.38a1,1,0,0,1-1-1V164.12a1,1,0,0,1,1-1H285.44a1,1,0,0,1,1,1v77.72A1,1,0,0,1,285.44,242.84Zm-176.06-2H284.44V165.12H109.38Z" fill="#093f68"/><rect x="126.47" y="174.34" width="31.79" height="36.01" fill="#70cc40"/><path d="M158.27,211.35h-31.8a1,1,0,0,1-1-1v-36a1,1,0,0,1,1-1h31.8a1,1,0,0,1,1,1v36A1,1,0,0,1,158.27,211.35Zm-30.8-2h29.8v-34h-29.8Z" fill="#093f68"/><rect x="134.57" y="169.84" width="31.79" height="36.01" fill="#ffbc0e"/><path d="M166.36,206.84H134.57a1,1,0,0,1-1-1v-36a1,1,0,0,1,1-1h31.79a1,1,0,0,1,1,1v36A1,1,0,0,1,166.36,206.84Zm-30.79-2h29.79v-34H135.57Z" fill="#093f68"/><path d="M187.7,206.81s-3.23-6.06-3.37-7.18a37.07,37.07,0,0,1,0-5.78,1.62,1.62,0,0,0-2.93-1c-.88,1.27-1,4.5-1,4.5s-4.22-9-5.63-8.58-5.07,4.36-5.07,5.49,6.76,12.81,9.58,16.61Z" fill="#ffc9b0"/><path d="M179.26,211.89a1,1,0,0,1-.81-.41c-2.19-3-9.77-15.46-9.77-17.2s4.06-5.93,5.78-6.45c.6-.18,1.9-.57,5.4,6.2a5.56,5.56,0,0,1,.72-1.73,2.58,2.58,0,0,1,3-.92,2.49,2.49,0,0,1,1.69,2.57,38,38,0,0,0,0,5.55,53.62,53.62,0,0,0,3.27,6.83,1.09,1.09,0,0,1,.07.79,1,1,0,0,1-.52.59l-8.45,4.08A1,1,0,0,1,179.26,211.89Zm-8.56-17.62c.46,1.57,6,11.17,8.88,15.35l6.75-3.26c-1-2-2.87-5.59-3-6.61a39.81,39.81,0,0,1,0-6,.5.5,0,0,0-.38-.5.66.66,0,0,0-.73.18,10.47,10.47,0,0,0-.84,4,1,1,0,0,1-.8.93,1,1,0,0,1-1.1-.55c-1.58-3.36-3.74-7.2-4.66-8A14.55,14.55,0,0,0,170.7,194.27Z" fill="#093f68"/><ellipse cx="257.41" cy="168.8" rx="7.94" ry="6.84" fill="#ffc9b0"/><path d="M257.41,176.64c-4.92,0-8.93-3.51-8.93-7.84s4-7.84,8.93-7.84,8.94,3.52,8.94,7.84S262.34,176.64,257.41,176.64Zm0-13.68c-3.82,0-6.93,2.62-6.93,5.84s3.11,5.84,6.93,5.84,6.94-2.62,6.94-5.84S261.24,163,257.41,163Z" fill="#093f68"/><path d="M223.4,139.47c-6.81,11.69-11.46,5.07-12.85,2.77v24.92A23.93,23.93,0,0,0,232.4,191v5.11a4.09,4.09,0,1,0,8.17,0v-4.79c14.52-.55,21.61-13,21.61-24.16L258.43,145S248.91,152.39,223.4,139.47Z" fill="#ffc9b0"/><path d="M236.49,201.2a5.09,5.09,0,0,1-5.09-5.09V191.9a25.09,25.09,0,0,1-21.86-24.74V142.24a1,1,0,0,1,1.86-.52c1.4,2.31,2.88,3.48,4.4,3.48h0c2,0,4.36-2.18,6.72-6.23a1,1,0,0,1,1.31-.39c24.47,12.4,33.88,5.68,34,5.61a1,1,0,0,1,1-.13,1,1,0,0,1,.62.76L263.16,167a.88.88,0,0,1,0,.17,27.46,27.46,0,0,1-5.57,16.66,21.84,21.84,0,0,1-16,8.44v3.85A5.09,5.09,0,0,1,236.49,201.2Zm-25-56v22a23.08,23.08,0,0,0,21,22.85,1,1,0,0,1,.91,1v5.11a3.09,3.09,0,1,0,6.17,0v-4.79a1,1,0,0,1,1-1c13.52-.51,20.61-12,20.65-23.08l-3.5-20.68c-3.45,1.59-13.69,4.25-33.9-5.78-2.62,4.23-5.29,6.39-7.94,6.42h-.05A6,6,0,0,1,211.54,145.2Z" fill="#093f68"/><ellipse cx="215.2" cy="167.76" rx="6.27" ry="6.84" fill="#ffc9b0"/><path d="M215.2,175.6a7.57,7.57,0,0,1-7.27-7.84c0-4.32,3.26-7.84,7.27-7.84s7.27,3.52,7.27,7.84A7.57,7.57,0,0,1,215.2,175.6Zm0-13.68a5.87,5.87,0,1,0,5.27,5.84A5.58,5.58,0,0,0,215.2,161.92Z" fill="#093f68"/><path d="M217.65,167.91c-2.14-5-3-10.08-4-15.35a5.12,5.12,0,0,1-4.21-1.37,7.75,7.75,0,0,1-1.94-4,14.31,14.31,0,0,1,2.76-11.35,15.85,15.85,0,0,1,7.8-5.55c.95-.27,8.72-.31,8.57.05,1.44-3.45,4.74-5.8,8.2-7.2,13.42-5.42,26.74.41,32.18,13.63,2.57,6.21,3.2,13.07,3,19.79-.18,7-1.28,14.11-4.85,20.1-6.83,11.47-22.26,13.51-33.56,7.52C225.12,180.71,220.57,174.74,217.65,167.91Z" fill="#725858"/><path d="M244.92,188.39a29.66,29.66,0,0,1-13.73-3.34C225,181.79,220,176,216.73,168.31h0c-2.07-4.81-2.95-9.62-3.87-14.72a5.94,5.94,0,0,1-4.1-1.69,8.77,8.77,0,0,1-2.22-4.52,15.37,15.37,0,0,1,3-12.15,16.77,16.77,0,0,1,8.32-5.92,55,55,0,0,1,8.26-.1c1.5-2.94,4.45-5.41,8.4-7,13.73-5.54,27.82.41,33.49,14.18,2.29,5.57,3.31,12.17,3.1,20.2-.23,8.71-1.81,15.25-5,20.58C261.43,185,253.16,188.39,244.92,188.39Zm-31.24-36.83a1,1,0,0,1,1,.82l.14.77c.91,5,1.77,9.74,3.76,14.37h0c3.11,7.27,7.8,12.72,13.55,15.77,10.24,5.41,25.47,4.22,32.24-7.15,3-5,4.49-11.26,4.71-19.61.2-7.74-.76-14.09-2.95-19.39-5.32-12.9-18-18.28-30.89-13.08-3.77,1.52-6.49,3.89-7.65,6.65h0a1,1,0,0,1-1.31.54l-.13-.06a50.18,50.18,0,0,0-7.78.05,14.87,14.87,0,0,0-7.27,5.2A13.27,13.27,0,0,0,208.51,147a6.76,6.76,0,0,0,1.67,3.51,4.14,4.14,0,0,0,3.4,1.08Z" fill="#093f68"/><path d="M249.78,242.84a1,1,0,0,1-1-1V209.18a1,1,0,0,1,2,0v32.66A1,1,0,0,1,249.78,242.84Z" fill="#093f68"/><path d="M255.1,195.13H224.17c-8.19,0-19.58,19.51-23.09,23.35-3.32-3.18-11.87-12.68-13.66-14.91l-10.62,5.49c.7,1.62,7.1,23.09,18,28.92a12.47,12.47,0,0,0,5.91,1.47,13.45,13.45,0,0,0,4.39-.74c3-1,8.9-4.25,11.67-7.17v10.3h46.29V203.12A8,8,0,0,0,255.1,195.13Z" fill="#68e1fd"/><path d="M263.09,242.84H216.8a1,1,0,0,1-1-1v-8.05a40.53,40.53,0,0,1-10.35,5.87,13.87,13.87,0,0,1-11.09-.8c-6.7-3.57-12.79-13.09-18.08-28.3-.2-.56-.33-.94-.4-1.11a1,1,0,0,1,.46-1.28L187,202.68a1,1,0,0,1,1.24.26C189.85,205,197.31,213.31,201,217c.76-1,1.76-2.37,2.88-3.94,5.38-7.54,13.5-18.94,20.28-18.94H255.1a9,9,0,0,1,9,9v38.72A1,1,0,0,1,263.09,242.84Zm-45.29-2h44.29V203.12a7,7,0,0,0-7-7H224.17c-5.75,0-13.83,11.33-18.65,18.1-1.59,2.22-2.84,4-3.7,4.93a1,1,0,0,1-.71.32,1,1,0,0,1-.72-.27c-3.11-3-10.67-11.36-13.22-14.38L178,209.54l.13.36c5.12,14.72,10.89,23.87,17.13,27.2a11.89,11.89,0,0,0,9.51.66c2.84-1,8.64-4.14,11.27-6.91a1,1,0,0,1,1.09-.24,1,1,0,0,1,.63.93Z" fill="#093f68"/><path d="M216.8,232.54a1,1,0,0,1-1-1V210.89a1,1,0,0,1,2,0v20.65A1,1,0,0,1,216.8,232.54Z" fill="#093f68"/><path d="M235.47,202h37.9a10.49,10.49,0,0,1,10.49,10.49v29.3a0,0,0,0,1,0,0H225a0,0,0,0,1,0,0v-29.3A10.49,10.49,0,0,1,235.47,202Z" fill="#093f68"/><path d="M283.86,242.84H225a1,1,0,0,1-1-1v-29.3A11.51,11.51,0,0,1,235.47,201h37.9a11.51,11.51,0,0,1,11.49,11.5v29.3A1,1,0,0,1,283.86,242.84Zm-57.88-2h56.88v-28.3a9.51,9.51,0,0,0-9.49-9.5h-37.9a9.51,9.51,0,0,0-9.49,9.5Z" fill="#093f68"/><path d="M243.23,202h37.9a10.49,10.49,0,0,1,10.49,10.49v29.3a0,0,0,0,1,0,0H232.73a0,0,0,0,1,0,0v-29.3A10.49,10.49,0,0,1,243.23,202Z" fill="#f56132"/><path d="M291.62,242.84H232.73a1,1,0,0,1-1-1v-29.3a11.51,11.51,0,0,1,11.5-11.5h37.89a11.51,11.51,0,0,1,11.5,11.5v29.3A1,1,0,0,1,291.62,242.84Zm-57.89-2h56.89v-28.3a9.51,9.51,0,0,0-9.5-9.5H243.23a9.51,9.51,0,0,0-9.5,9.5Z" fill="#093f68"/><path d="M160.24,198H140.63a1,1,0,0,1,0-2h19.61a1,1,0,0,1,0,2Z" fill="#093f68"/><path d="M160.24,191.81H140.63a1,1,0,0,1,0-2h19.61a1,1,0,0,1,0,2Z" fill="#093f68"/><path d="M160.24,185.62H140.63a1,1,0,0,1,0-2h19.61a1,1,0,0,1,0,2Z" fill="#093f68"/><path d="M160.24,179.42H149a1,1,0,0,1,0-2h11.2a1,1,0,0,1,0,2Z" fill="#093f68"/><path d="M245,64.16c-14.32,0-25.93,8.89-25.93,19.86a16.75,16.75,0,0,0,4.59,11.27,19.27,19.27,0,0,1-8.72,8.59s8.38,2.06,14.77-3.83A31.41,31.41,0,0,0,245,103.88c14.32,0,25.93-8.9,25.93-19.86S259.31,64.16,245,64.16Z" fill="#fff"/><path d="M218.51,105.24a17.51,17.51,0,0,1-3.81-.39,1,1,0,0,1-.2-1.87,18.26,18.26,0,0,0,7.94-7.55A17.57,17.57,0,0,1,218.06,84c0-11.5,12.08-20.86,26.93-20.86S271.92,72.52,271.92,84,259.84,104.88,245,104.88a32.39,32.39,0,0,1-15.15-3.62A17.33,17.33,0,0,1,218.51,105.24Zm-.47-2a15.53,15.53,0,0,0,11-3.89,1,1,0,0,1,1.17-.14,30.26,30.26,0,0,0,14.8,3.7c13.75,0,24.93-8.46,24.93-18.86S258.74,65.16,245,65.16,220.06,73.62,220.06,84a15.76,15.76,0,0,0,4.33,10.6,1,1,0,0,1,.15,1.13A20.38,20.38,0,0,1,218,103.21Z" fill="#093f68"/><path d="M258.35,79.18h-24.8a1,1,0,0,1,0-2h24.8a1,1,0,0,1,0,2Z" fill="#093f68"/><path d="M258.35,86.19h-24.8a1,1,0,0,1,0-2h24.8a1,1,0,0,1,0,2Z" fill="#093f68"/><path d="M247.25,93.21h-13.7a1,1,0,0,1,0-2h13.7a1,1,0,0,1,0,2Z" fill="#093f68"/><path d="M133,165.76a21.65,21.65,0,0,0,1.68,6.43,4.8,4.8,0,0,0,1.88,2.78,4.63,4.63,0,0,0,2.45.32,17,17,0,0,0,5.08-.88c4-1.52,3.88-4.38,3-8-.69-3-2.44-6.5-5.69-7.34a7,7,0,0,0-7.34,2.65A6.63,6.63,0,0,0,133,165.76Z" fill="#ffc9b0"/><path d="M138.24,176.32a4.47,4.47,0,0,1-2.19-.47,5.66,5.66,0,0,1-2.34-3.31l-.09-.23A21.51,21.51,0,0,1,132,165.8a7.7,7.7,0,0,1,1.27-4.68,8,8,0,0,1,8.42-3.05c3,.78,5.43,3.8,6.42,8.08.79,3.48,1.23,7.34-3.66,9.19a18.09,18.09,0,0,1-5.38.95C138.77,176.31,138.51,176.32,138.24,176.32Zm1.51-16.48a6,6,0,0,0-4.86,2.41,5.66,5.66,0,0,0-.93,3.48h0a20.12,20.12,0,0,0,1.54,5.89l.08.23a4,4,0,0,0,1.41,2.24,3.82,3.82,0,0,0,1.93.2,15.48,15.48,0,0,0,4.78-.82c3.13-1.18,3.27-3.16,2.42-6.87-.31-1.32-1.56-5.72-5-6.59A5.42,5.42,0,0,0,139.75,159.84Z" fill="#093f68"/></g></svg>