<svg xmlns="http://www.w3.org/2000/svg" viewBox="0 0 400 300"><g id="_262_john_snow_outline" data-name="#262_john_snow_outline"><path d="M291.65,150a91.65,91.65,0,0,1-61.38,86.52c-.87.32-1.74.61-2.63.88a88.73,88.73,0,0,1-12.68,3,90.31,90.31,0,0,1-14.52,1.21H200a90.76,90.76,0,0,1-12.41-.84,88.55,88.55,0,0,1-13.1-2.77c-.58-.15-1.15-.33-1.72-.5A91.66,91.66,0,1,1,291.65,150Z" fill="#fff"/><path d="M200,242.65a92.82,92.82,0,0,1-12.55-.85,89.51,89.51,0,0,1-13.24-2.8c-.43-.11-.88-.25-1.33-.38l-.4-.12A92.67,92.67,0,1,1,276.3,202.57a93.28,93.28,0,0,1-45.7,34.89c-.86.32-1.74.62-2.67.9a90,90,0,0,1-12.81,3.06,91.83,91.83,0,0,1-14.68,1.22Zm0-183.3A90.76,90.76,0,0,0,109.35,150a90.72,90.72,0,0,0,63.72,86.58l.39.12c.42.13.85.26,1.28.37a87.83,87.83,0,0,0,13,2.75,90.45,90.45,0,0,0,12.28.83h.38a89.27,89.27,0,0,0,14.42-1.2,88.17,88.17,0,0,0,12.54-3c.9-.28,1.74-.56,2.58-.87a91.29,91.29,0,0,0,44.74-34.15A90.66,90.66,0,0,0,200,59.35Z" fill="#093f68"/><path d="M275.48,202a91.75,91.75,0,0,1-45.21,34.52c-.87.32-1.74.61-2.63.88a88.73,88.73,0,0,1-12.68,3,90.31,90.31,0,0,1-14.52,1.21H200a90.76,90.76,0,0,1-12.41-.84,88.55,88.55,0,0,1-13.1-2.77c-.58-.15-1.15-.33-1.72-.5A91.77,91.77,0,0,1,127,205.47c-1.11-1.46,5.53-9.16,6.81-10a13.52,13.52,0,0,1-6.41.95A8.65,8.65,0,0,1,131,191a25.87,25.87,0,0,1,5.87-3,4.75,4.75,0,0,1-2.49.28,1.62,1.62,0,0,1-1.28-1.87,2.27,2.27,0,0,1,1-1.09,36.83,36.83,0,0,1,9.32-4.51c-.81.43-1.73-.7-1.48-1.58a3.48,3.48,0,0,1,1.93-1.85c4.86-2.56,9.81-3.62,15-5.19,4.51-1.36,8.77-3.61,13.36-4.92l1.26-.35c.55-.15,1.1-.3,1.67-.43,1.58-.4,3.19-.76,4.86-1.09a117.66,117.66,0,0,1,22.57-2,119.35,119.35,0,0,1,19.9,1.57c.77.12,1.53.26,2.28.41.56.1,1.11.21,1.66.33s1.19.25,1.77.39A81.28,81.28,0,0,1,244,171.39c2.35,1.09,4.32,2.27,6.84,2.81a29.19,29.19,0,0,1,8.18,3.07,2.65,2.65,0,0,1,1,.82,1.33,1.33,0,0,1-2.09,1.63,20.91,20.91,0,0,1,7.27,2.32,1.94,1.94,0,0,1,1.12,1.11c.27,1.14-1.31,1.73-2.49,1.81a11,11,0,0,1,7.76,5.61,7.74,7.74,0,0,1-4.21.31,6.69,6.69,0,0,1,4.58,2.51,2,2,0,0,1,.54,1.62c-.15.57-1,.94-1.35.5A29.12,29.12,0,0,1,275.48,202Z" fill="#68e1fd"/><path d="M200,242.65a92.82,92.82,0,0,1-12.55-.85,89.51,89.51,0,0,1-13.24-2.8c-.43-.11-.88-.25-1.33-.38l-.4-.12a92.2,92.2,0,0,1-46.24-32.42,1.85,1.85,0,0,1-.29-1.47c.28-1.72,2.65-4.94,4.66-7.28a14.3,14.3,0,0,1-3.27,0,1,1,0,0,1-.89-1.14,9.55,9.55,0,0,1,3.93-6.05A17.12,17.12,0,0,1,133,188.6a2.62,2.62,0,0,1-.62-.75,2.22,2.22,0,0,1-.21-1.77,3.27,3.27,0,0,1,1.42-1.62,37.38,37.38,0,0,1,7.58-3.94,2.31,2.31,0,0,1-.15-1.59,4.28,4.28,0,0,1,2.42-2.46,58.4,58.4,0,0,1,11.73-4.27c1.13-.32,2.28-.64,3.43-1,2.11-.64,4.23-1.51,6.28-2.34a69.45,69.45,0,0,1,7.1-2.59l1.28-.36c.56-.15,1.12-.3,1.7-.44,1.56-.39,3.17-.75,4.89-1.09a119,119,0,0,1,22.76-2.06,121.18,121.18,0,0,1,20.07,1.58c.77.12,1.54.27,2.31.42l1.67.33c.6.12,1.2.26,1.79.4a82.16,82.16,0,0,1,16,5.42l1.62.78a21.38,21.38,0,0,0,5,2,30.19,30.19,0,0,1,8.46,3.18,3.59,3.59,0,0,1,1.35,1.16,2.37,2.37,0,0,1,.26,1.78,21.52,21.52,0,0,1,4.55,1.82,2.92,2.92,0,0,1,1.61,1.75,2,2,0,0,1-.34,1.68l-.19.23a12.07,12.07,0,0,1,5.71,5.29,1,1,0,0,1,0,.82,1,1,0,0,1-.59.58l-.3.11a7.7,7.7,0,0,1,1.12,1.16,2.87,2.87,0,0,1,.72,2.47,2,2,0,0,1-.51.88,29.71,29.71,0,0,1,3.4,5.42,1,1,0,0,1-.07,1,93.28,93.28,0,0,1-45.7,34.89c-.86.32-1.74.62-2.67.9a90,90,0,0,1-12.81,3.06,91.83,91.83,0,0,1-14.68,1.22ZM127.91,205a90.24,90.24,0,0,0,45.16,31.61l.39.12c.42.13.85.26,1.28.37a87.83,87.83,0,0,0,13,2.75,93.19,93.19,0,0,0,12.33.83h.33a89.27,89.27,0,0,0,14.42-1.2,88.17,88.17,0,0,0,12.54-3c.9-.28,1.74-.56,2.58-.87a91.35,91.35,0,0,0,44.4-33.66,28.3,28.3,0,0,0-3.91-5.75h0a1,1,0,0,1,1.12-1.58,1.76,1.76,0,0,0-.34-.57,5.75,5.75,0,0,0-3.21-2,7,7,0,0,1-.78-.12,1,1,0,0,1,.3-2,7,7,0,0,1,.8.13A7.33,7.33,0,0,0,270,190a10.07,10.07,0,0,0-6.37-4,1,1,0,0,1,.11-2,2.39,2.39,0,0,0,1.58-.57s-.08-.18-.62-.47a19.75,19.75,0,0,0-5.17-1.91,2.38,2.38,0,0,1-2.35-.59,1,1,0,0,1-.18-1.14,1,1,0,0,1,1-.55c.38.05.76.1,1.13.17a.41.41,0,0,0,0-.29,1.83,1.83,0,0,0-.63-.46,28,28,0,0,0-7.9-3,23,23,0,0,1-5.48-2.12l-1.57-.75a80.72,80.72,0,0,0-15.66-5.3l-1.74-.38c-.55-.12-1.09-.23-1.64-.33-.75-.15-1.5-.28-2.25-.4a125.37,125.37,0,0,0-42.13.46c-1.68.33-3.25.69-4.8,1.08-.58.13-1.11.27-1.63.42l-1.22.34a67.37,67.37,0,0,0-6.95,2.53c-2.09.85-4.25,1.73-6.45,2.4-1.16.35-2.32.68-3.47,1a56.27,56.27,0,0,0-11.33,4.11c-.67.35-1.3.74-1.44,1.23a.52.52,0,0,0,.16.37h0a1,1,0,0,1,.78,1.83,1.68,1.68,0,0,1-.5.18,35.57,35.57,0,0,0-8.73,4.28c-.18.12-.56.37-.62.56a.28.28,0,0,0,.05.2.9.9,0,0,0,.53.4,3.79,3.79,0,0,0,1.95-.27,1,1,0,0,1,.67,1.89,24.49,24.49,0,0,0-5.65,2.89,8.32,8.32,0,0,0-2.87,3.66,12.31,12.31,0,0,0,4.76-.93,1,1,0,0,1,1.26.45,1,1,0,0,1-.32,1.3C133.15,197.12,128,203.41,127.91,205Z" fill="#093f68"/><path d="M230.27,236.52c-.87.32-1.74.61-2.63.88a88.73,88.73,0,0,1-12.68,3,90.31,90.31,0,0,1-14.52,1.21H200a90.76,90.76,0,0,1-12.41-.84,88.55,88.55,0,0,1-13.1-2.77c-.58-.15-1.15-.33-1.72-.5.06-.65.12-1.34.19-2.06.24-2.49.54-5.37.95-8.49.45-3.46,1-7.23,1.75-11.1.58-3.18,1.28-6.42,2.11-9.64h0c.18-.74.38-1.47.58-2.21.67-2.49,1.43-4.94,2.27-7.29,2.14-6,4.83-11.45,8.19-15.4.13-.15.25-.3.38-.43a21.48,21.48,0,0,1,3.42-3.16,16.3,16.3,0,0,1,2-1.26,12.88,12.88,0,0,1,1.3-.62,14.53,14.53,0,0,1,11.33,0,19.62,19.62,0,0,1,1,.47,17.9,17.9,0,0,1,4.36,3.17c.23.21.45.44.67.67,3.87,4,6.89,9.92,9.25,16.56.84,2.35,1.59,4.8,2.27,7.28.2.74.39,1.47.57,2.21.83,3.21,1.52,6.47,2.12,9.64.73,3.88,1.29,7.65,1.74,11.12.41,3.12.72,6,.94,8.49C230.21,235.83,230.25,236.18,230.27,236.52Z" fill="#093f68"/><path d="M200,242.65a92.82,92.82,0,0,1-12.55-.85,89.51,89.51,0,0,1-13.24-2.8c-.43-.11-.88-.25-1.33-.38l-.4-.12a1,1,0,0,1-.71-1.05l.19-2.07c.22-2.21.52-5.19,1-8.52.51-3.91,1.1-7.66,1.76-11.16.6-3.3,1.31-6.54,2.11-9.64a.13.13,0,0,1,0-.06c.16-.68.35-1.35.53-2l0-.2c.69-2.55,1.46-5,2.3-7.37,2.38-6.69,5.19-12,8.37-15.71l.1-.12.33-.37a22.76,22.76,0,0,1,3.54-3.26,18.15,18.15,0,0,1,2.13-1.34c.44-.24.91-.46,1.38-.66a15.63,15.63,0,0,1,12.1,0c.18.06.38.16.6.26l.52.26a18.94,18.94,0,0,1,4.57,3.32c.21.2.44.44.67.68,3.66,3.8,6.85,9.49,9.49,16.94.8,2.23,1.55,4.63,2.29,7.35.21.75.4,1.49.58,2.23.74,2.88,1.44,6,2.13,9.69.65,3.45,1.22,7.11,1.75,11.18.39,2.94.71,5.81,1,8.53l0,.36.06.71a1,1,0,0,1-.65,1c-.88.32-1.76.62-2.69.9a90,90,0,0,1-12.81,3.06,91.83,91.83,0,0,1-14.68,1.22Zm-26.16-5.83.9.25a87.83,87.83,0,0,0,13,2.75,90.45,90.45,0,0,0,12.28.83h.38a89.27,89.27,0,0,0,14.42-1.2,88.17,88.17,0,0,0,12.54-3c.64-.2,1.26-.4,1.87-.61l0-.28c-.23-2.69-.55-5.53-.93-8.44-.52-4-1.09-7.66-1.73-11.06-.68-3.6-1.37-6.73-2.11-9.58-.18-.75-.37-1.47-.57-2.2-.72-2.66-1.46-5-2.24-7.2-2.55-7.18-5.59-12.63-9-16.21-.22-.23-.42-.43-.62-.62a17.12,17.12,0,0,0-4.14-3l-.42-.2c-.2-.1-.34-.16-.49-.22a13.54,13.54,0,0,0-10.6,0,10.35,10.35,0,0,0-1.21.58,15.13,15.13,0,0,0-1.89,1.19,20.51,20.51,0,0,0-3.26,3c-.12.12-.19.21-.27.3l-.1.12c-3,3.55-5.71,8.62-8,15.09-.82,2.29-1.57,4.72-2.24,7.21l-.06.21c-.18.64-.35,1.28-.51,1.93,0,0,0,0,0,.07-.79,3.07-1.5,6.29-2.1,9.57-.65,3.46-1.24,7.18-1.74,11.05-.43,3.3-.73,6.26-.94,8.46Z" fill="#093f68"/><path d="M192.61,175.87h15.65a0,0,0,0,1,0,0v10.68a7.83,7.83,0,0,1-7.83,7.83h0a7.83,7.83,0,0,1-7.83-7.83V175.87A0,0,0,0,1,192.61,175.87Z" fill="#ffc9b0"/><path d="M200.44,195.38a8.84,8.84,0,0,1-8.83-8.83V175.87a1,1,0,0,1,1-1h15.65a1,1,0,0,1,1,1v10.68A8.84,8.84,0,0,1,200.44,195.38Zm-6.83-18.51v9.68a6.83,6.83,0,1,0,13.65,0v-9.68Z" fill="#093f68"/><path d="M199.65,183.34h0c-15.23,0-27.88-14.74-29-33.8l-3-51h64l-3,51C227.53,168.6,214.88,183.34,199.65,183.34Z" fill="#ffc9b0"/><path d="M199.65,184.34c-15.68,0-28.86-15.26-30-34.74l-3-51a1,1,0,0,1,.27-.74,1,1,0,0,1,.73-.32h64a1,1,0,0,1,.73.32,1,1,0,0,1,.27.74l-3,51C228.51,169.08,215.33,184.34,199.65,184.34ZM168.71,99.5l2.93,50c1.09,18.43,13.39,32.86,28,32.86h0c14.62,0,26.92-14.43,28-32.86l2.93-50Z" fill="#093f68"/><path d="M166.54,149.91S183.4,170.62,190,174.63s17.31,2.75,21.27-.19,14.65-9.42,19.86-24.53V163S214.71,180,210.58,182.16s-12.48,3.54-21.16-.5c-6-2.79-26.09-23.08-26.09-23.08Z" fill="#725858"/><path d="M201,185.26a28.6,28.6,0,0,1-12-2.7c-6.08-2.83-25.54-22.44-26.37-23.27a1,1,0,0,1-.23-1l3.21-8.67a1,1,0,0,1,.78-.64,1,1,0,0,1,.94.35c.17.21,16.82,20.62,23.22,24.5s16.55,2.53,20.16-.14c.36-.27.78-.57,1.25-.9,4.42-3.16,13.62-9.72,18.26-23.15a1,1,0,0,1,1.94.32V163a1,1,0,0,1-.28.69c-.68.7-16.6,17.09-20.81,19.35A21.72,21.72,0,0,1,201,185.26Zm-36.55-26.93c3,3,20.07,20,25.35,22.42,9,4.18,17,2.3,20.27.53,3.1-1.66,14.3-12.78,20-18.69V155c-5.13,10.85-13,16.47-17,19.34l-1.22.88c-4.13,3.07-15.35,4.52-22.39.25-5.77-3.5-18.73-18.88-22.62-23.6Z" fill="#093f68"/><path d="M194.53,126.41a1,1,0,0,1-.41-.08c-5.85-2.6-12.71,0-12.77,0a1,1,0,0,1-1.3-.58,1,1,0,0,1,.57-1.29c.31-.12,7.69-2.93,14.31,0a1,1,0,0,1-.4,1.91Z" fill="#093f68"/><path d="M207,126.41a1,1,0,0,1-.41-1.91c6.62-3,14-.14,14.31,0a1,1,0,0,1,.57,1.29,1,1,0,0,1-1.29.58c-.07,0-6.93-2.62-12.78,0A1,1,0,0,1,207,126.41Z" fill="#093f68"/><circle cx="189.01" cy="133.24" r="2.41" fill="#093f68"/><circle cx="211.97" cy="133.24" r="2.41" fill="#093f68"/><path d="M171.65,156.73s4.82-15.81-1.8-26.83c0,0,15.35-12.45,15.65-27.8,0,0,14.15,1.8,17.76-6.32,0,0,3,11.43,14.45,11.13,0,0-4.65,21.21,11.9,26.33,0,0-9.8,9.59-1.77,24.84,0,0-5.92,15.65,6.12,20.77s22-1.65,16.56-18.58c0,0,6-18.72-3.62-29.12,0,0,8.43-10-.3-21.17s-15.95-13-15.95-13,2.72-9-5.26-14.45-15.18-2.4-15.18-2.4S207.78,72.3,195.44,72s-20.17,12-20.17,12-11.74-1.81-19.56,9.63S147.28,122,147.28,122s-7.22,7.55-5.12,17,4.52,10.93,4.52,10.93-7.78,9.18-3.71,18.69c4.19,9.82,12,13.76,18.05,12.15,8.57-2.28,12.21-6.44,12.44-12.15C173.69,163.3,171.65,156.73,171.65,156.73Z" fill="#725858"/><path d="M158.33,182.1c-5.58,0-12.31-3.81-16.28-13.11-3.63-8.49,1.49-16.55,3.29-19-1-1.19-2.65-4.07-4.15-10.8-2-8.95,3.77-16.13,5.11-17.64.14-2.62,1.23-17.71,8.58-28.45C162,82.7,172.12,82.76,174.78,83c1.7-2.44,9.27-12.24,20.68-12,10.45.26,14.2,5.65,15.31,7.89A18.08,18.08,0,0,1,226,81.71c6.93,4.7,6.34,12,5.87,14.61,2.28.87,8.44,3.9,15.57,13.05a17.78,17.78,0,0,1,.8,21.73c3.75,4.43,5.52,10.83,5.13,18.56a47.14,47.14,0,0,1-1.76,10.6c2.57,8.23,1.77,14.78-2.26,18.45-3.63,3.31-9.51,3.7-15.73,1.06-5.32-2.26-8.15-6.83-8.18-13.22a27.5,27.5,0,0,1,1.36-8.39c-4.08-8-3.34-14.49-2-18.54a20.36,20.36,0,0,1,3.13-5.92c-13.38-5.21-12-21.26-11.38-25.8-8.15-.35-12-6.52-13.46-9.82-4.16,5.5-13.42,5.34-16.6,5.11-.85,13.49-12.39,24.38-15.32,26.94,5.75,10.49,2.19,24.33,1.55,26.59a41.83,41.83,0,0,1,1.77,11.92c-.27,6.51-4.58,10.79-13.18,13.08A11.36,11.36,0,0,1,158.33,182.1Zm15.13-97.16a20.14,20.14,0,0,0-4.88.62,20.51,20.51,0,0,0-12.05,8.68c-7.56,11.05-8.24,27.59-8.25,27.76a1,1,0,0,1-.28.65c-.06.08-6.82,7.29-4.86,16.11,1.92,8.65,4.07,10.31,4.09,10.32a1,1,0,0,1,.42.7,1,1,0,0,1-.21.78c-.07.09-7.32,8.83-3.55,17.65,3.06,7.17,9.85,13.45,16.88,11.58,7.74-2.07,11.46-5.64,11.7-11.23.21-5.07-1.76-11.47-1.78-11.54a1,1,0,0,1,0-.59c.05-.15,4.62-15.51-1.69-26a1,1,0,0,1,.22-1.29c.15-.12,15-12.35,15.28-27a1,1,0,0,1,.35-.74,1,1,0,0,1,.78-.23c.14,0,13.45,1.61,16.72-5.74a1,1,0,0,1,1-.59,1,1,0,0,1,.89.74c.11.44,2.93,10.63,13.45,10.39a1,1,0,0,1,.8.37,1,1,0,0,1,.21.85,33.37,33.37,0,0,0-.24,10.93c1.15,7.44,5,12.23,11.46,14.22a1,1,0,0,1,.67.72,1,1,0,0,1-.27.95c-.37.37-9.15,9.29-1.58,23.66a1,1,0,0,1,.05.82,25.29,25.29,0,0,0-1.39,8.16c0,5.58,2.39,9.39,7,11.34,5.49,2.33,10.57,2.07,13.6-.7,3.47-3.16,4-9.07,1.61-16.66a1.06,1.06,0,0,1,0-.61c.06-.18,5.73-18.29-3.39-28.13a1,1,0,0,1,0-1.32,15.67,15.67,0,0,0-.33-19.91C237.45,99.87,230.47,98,230.4,98a1,1,0,0,1-.62-.48,1,1,0,0,1-.09-.78c.1-.34,2.4-8.4-4.86-13.33-7.41-5-14-2.42-14.24-2.31a1,1,0,0,1-1.33-.63c-.1-.28-2.44-7.14-13.85-7.42-11.67-.31-19.22,11.46-19.29,11.58a1,1,0,0,1-1,.45A13.18,13.18,0,0,0,173.46,84.94Z" fill="#093f68"/><path d="M199.31,154.84a17.59,17.59,0,0,1-2.38-.15,1,1,0,0,1,.29-2,16.64,16.64,0,0,0,7.18-.7.37.37,0,0,0,.24-.27c.59-1.83-2.53-7.72-4.94-11.33a1,1,0,1,1,1.66-1.11c1.06,1.58,6.28,9.66,5.18,13a2.3,2.3,0,0,1-1.44,1.53A16.85,16.85,0,0,1,199.31,154.84Z" fill="#093f68"/><path d="M215.14,164.33a1,1,0,0,1-.93-.61c-2.26-5.41-13-8.9-13.12-8.93a1,1,0,0,1-.65-1.26,1,1,0,0,1,1.25-.65c.48.15,11.75,3.81,14.37,10.07a1,1,0,0,1-.54,1.3A.9.9,0,0,1,215.14,164.33Z" fill="#093f68"/><path d="M186.64,163.23a.91.91,0,0,1-.35-.07,1,1,0,0,1-.58-1.28c2.78-7.39,12.31-9,12.72-9a1,1,0,0,1,1.14.83,1,1,0,0,1-.83,1.14c-.09,0-8.79,1.47-11.16,7.76A1,1,0,0,1,186.64,163.23Z" fill="#093f68"/><path d="M195.64,164.3a1,1,0,0,1-.14-2,62.54,62.54,0,0,1,11.36,0,1,1,0,0,1,.91,1.09,1,1,0,0,1-1.09.9,62.86,62.86,0,0,0-10.91,0Z" fill="#093f68"/><path d="M227.5,215.87l-17.14,10.72-6.31,3.95-.23.12-2.24,1.41-14,8.74a88.55,88.55,0,0,1-13.1-2.77l18.3-11.45,6.32-3.93.21-.12,2.25-1.41,23.81-14.9C226.21,209.44,226.9,212.7,227.5,215.87Z" fill="#68e1fd"/><path d="M187.59,241.81h-.13a89.37,89.37,0,0,1-13.25-2.8,1,1,0,0,1-.71-.82,1,1,0,0,1,.46-1l24.62-15.38.26-.15,26-16.28a1,1,0,0,1,1.5.6c.74,2.89,1.44,6.06,2.13,9.7a1,1,0,0,1-.45,1l-23.45,14.67-.15.08-16.31,10.19A1,1,0,0,1,187.59,241.81Zm-10.65-4.13a89.12,89.12,0,0,0,10.43,2.09l15.92-10a1.74,1.74,0,0,1,.27-.14l22.83-14.28c-.54-2.78-1.08-5.28-1.64-7.58l-24.9,15.58-.14.07Z" fill="#093f68"/><path d="M227.64,237.4a88.73,88.73,0,0,1-12.68,3l-13.38-8.36-2.26-1.41a2.39,2.39,0,0,0-.22-.12l-6.31-3.95-17.13-10.7c.58-3.18,1.28-6.42,2.11-9.64l23.8,14.88,2.25,1.41a1.55,1.55,0,0,1,.22.12l6.32,3.93Z" fill="#68e1fd"/><path d="M215,241.43a1,1,0,0,1-.53-.15l-15.64-9.77-.19-.1-23.47-14.67a1,1,0,0,1-.45-1c.6-3.33,1.32-6.59,2.12-9.71a1,1,0,0,1,1.5-.6l26,16.25.21.12,6.39,4,17.28,10.81a1,1,0,0,1,.46,1,1,1,0,0,1-.69.83,89.09,89.09,0,0,1-12.82,3.07Zm-38.19-26,22.86,14.29a1.28,1.28,0,0,1,.27.16l15.27,9.53a90,90,0,0,0,10.08-2.3l-21.74-13.57.4-.93-.49.88-.13-.07L178.4,207.83C177.8,210.28,177.25,212.82,176.77,215.4Z" fill="#093f68"/><path d="M201.17,219.59a1,1,0,0,1-1-1V198.4l-8.94-3.56A1,1,0,0,1,192,193l9.57,3.81a1,1,0,0,1,.63.93v20.87A1,1,0,0,1,201.17,219.59Z" fill="#68e1fd"/><path d="M201.05,219.59a1,1,0,0,1-1-1V197.72a1,1,0,0,1,.63-.93l9.57-3.81a1,1,0,1,1,.74,1.86l-8.94,3.56v20.19A1,1,0,0,1,201.05,219.59Z" fill="#68e1fd"/><path d="M200.44,240.23a1,1,0,0,1-1-1v-4.38a1,1,0,1,1,2,0v4.38A1,1,0,0,1,200.44,240.23Z" fill="#68e1fd"/><path d="M153.76,188.19a29.86,29.86,0,0,0-8.16,8.49.71.71,0,0,0-.16.58c.06.19.27.29.47.36a7.7,7.7,0,0,0,5.51-.45,22.91,22.91,0,0,0,4.73-3.09c.22,1-.76,2.16,0,2.82a1.53,1.53,0,0,0,1.25.2,22.2,22.2,0,0,0,4.93-1.27,2,2,0,0,0-.3,2.82,3,3,0,0,0,2.93.84,6.46,6.46,0,0,0,2.75-1.58c-.77.36-.39,1.69.43,1.92a2.77,2.77,0,0,0,2.33-.79,12.76,12.76,0,0,0,2.6-2.79" fill="#68e1fd"/><path d="M168.55,200.89a2.42,2.42,0,0,1-.7-.1,2.14,2.14,0,0,1-1.21-.9,5.91,5.91,0,0,1-1.49.57,4,4,0,0,1-3.92-1.17,3.16,3.16,0,0,1-.68-1.83,22.79,22.79,0,0,1-3,.63,2.47,2.47,0,0,1-2.07-.45,1.8,1.8,0,0,1-.59-1.33,17.17,17.17,0,0,1-3,1.77,8.64,8.64,0,0,1-6.24.48,1.58,1.58,0,0,1-1.09-1,1.64,1.64,0,0,1,.26-1.42,31,31,0,0,1,8.44-8.78,1,1,0,0,1,1.14,1.65,28.93,28.93,0,0,0-7.62,7.78,6.93,6.93,0,0,0,4.31-.55,21.72,21.72,0,0,0,4.52-3,1,1,0,0,1,1.58.56,3.43,3.43,0,0,1-.15,1.77c0,.16-.1.38-.12.53l.38,0A21.4,21.4,0,0,0,162,194.9a1,1,0,0,1,.89,1.78.7.7,0,0,0-.28.48,1.13,1.13,0,0,0,.21.85,2,2,0,0,0,1.94.5,4.79,4.79,0,0,0,2-1,1.6,1.6,0,0,1,.59-.46,1,1,0,0,1,1.08,1.66l-.06.05a.34.34,0,0,0,.11.16c.32.09.82-.12,1.43-.61a12,12,0,0,0,2.4-2.58,1,1,0,1,1,1.65,1.13,13.85,13.85,0,0,1-2.81,3A4.2,4.2,0,0,1,168.55,200.89Z" fill="#093f68"/><path d="M235.35,198.19a3.87,3.87,0,1,0,7.53-1.82A8.74,8.74,0,0,0,245,199a2.91,2.91,0,0,0,3.16.37,1.8,1.8,0,0,0,.33-2.83,3.81,3.81,0,0,0,2.16,2.25,2.57,2.57,0,0,0,2.88-.8,2,2,0,0,0-.58-2.77,8.31,8.31,0,0,0,6.62,3.86c.75,0,1.65-.16,1.9-.87a2,2,0,0,0,0-1,9.69,9.69,0,0,0-.8-2.9,3.24,3.24,0,0,0-2.29-1.79" fill="#68e1fd"/><path d="M239.23,202.16a5,5,0,0,1-2.62-.76,4.88,4.88,0,0,1-2.23-3,1,1,0,0,1,2-.47,2.86,2.86,0,0,0,1.32,1.74,2.87,2.87,0,0,0,4.26-3.09,1,1,0,0,1,1.83-.76,7.66,7.66,0,0,0,1.82,2.34,2,2,0,0,0,2,.32.92.92,0,0,0,.39-.67,5.6,5.6,0,0,1-.47-1,1,1,0,0,1,1.52-1.16,2.33,2.33,0,0,1,.9,1.38,2.31,2.31,0,0,0,1,.72,1.56,1.56,0,0,0,1.74-.43,1,1,0,0,0,.15-.6,9.07,9.07,0,0,1-.77-1.07,1,1,0,0,1,.11-1.2,1,1,0,0,1,1.19-.21,2.62,2.62,0,0,1,1.3,1.52,7.35,7.35,0,0,0,4.91,2.23c.58,0,.9-.14.92-.2a1.76,1.76,0,0,0,0-.49,9,9,0,0,0-.71-2.6,2.29,2.29,0,0,0-1.54-1.27,1,1,0,0,1-.86-1.12,1,1,0,0,1,1.13-.86,4.18,4.18,0,0,1,3,2.32,10.38,10.38,0,0,1,.91,3.2,2.94,2.94,0,0,1-.05,1.49,2.68,2.68,0,0,1-2.87,1.53,9.22,9.22,0,0,1-5-1.76,2.07,2.07,0,0,1-.15.25,3.56,3.56,0,0,1-4,1.16,4,4,0,0,1-.76-.36,2.59,2.59,0,0,1-.88.86,3.94,3.94,0,0,1-4.27-.42,5.72,5.72,0,0,1-.77-.7,4.47,4.47,0,0,1-.35.69,4.9,4.9,0,0,1-3,2.24A4.06,4.06,0,0,1,239.23,202.16Z" fill="#093f68"/><path d="M233,217.89a3.31,3.31,0,0,0,1.44,2.25,2,2,0,0,0,2.48-.38c.83-1.1-.05-2.68.16-4a5.83,5.83,0,0,0,3.29,3.4,2.07,2.07,0,0,0,2.25-.21A2.48,2.48,0,0,0,243,217a4.63,4.63,0,0,0,2.1,2,2.38,2.38,0,0,0,2.61-.75,2.43,2.43,0,0,0,.15-2.72" fill="#68e1fd"/><path d="M235.51,221.42A3,3,0,0,1,234,221a4.22,4.22,0,0,1-1.92-2.92,1,1,0,0,1,2-.38,2.24,2.24,0,0,0,1,1.57,1,1,0,0,0,1.18-.11c.24-.31.18-.82.06-1.63a6.66,6.66,0,0,1-.09-2,1,1,0,0,1,1.93-.19,4.8,4.8,0,0,0,2.72,2.81c.49.19,1,.21,1.14,0s.12-.86.09-1.14a1,1,0,0,1,1.83-.65,3.88,3.88,0,0,0,1.6,1.64,1.35,1.35,0,0,0,1.58-2,1,1,0,1,1,1.7-1.06,3.36,3.36,0,0,1-3.95,4.95,3.76,3.76,0,0,1-1.15-.68,2.09,2.09,0,0,1-.23.29,3,3,0,0,1-3.35.47,6.72,6.72,0,0,1-1.75-1,2.65,2.65,0,0,1-.53,1.34A2.74,2.74,0,0,1,235.51,221.42Z" fill="#093f68"/><path d="M161.31,219.72c-1,.68-1,2.14-.89,3.36a1.91,1.91,0,0,0,.38,1.15c.53.55,1.46.28,2.12-.12a8.7,8.7,0,0,0,2.33-2.07c-.12.93-.09,2.13.78,2.48s1.81-.61,2.33-1.47" fill="#68e1fd"/><path d="M166.45,225.61a2.23,2.23,0,0,1-.79-.16,2.14,2.14,0,0,1-1.19-1.21,10.54,10.54,0,0,1-1,.72c-1.3.79-2.58.77-3.36,0a2.82,2.82,0,0,1-.66-1.74c-.09-.87-.32-3.19,1.33-4.29a1,1,0,0,1,1.11,1.67c-.44.29-.58,1.08-.45,2.41a1.7,1.7,0,0,0,.12.57,1.49,1.49,0,0,0,.87-.29,7.86,7.86,0,0,0,2.07-1.83,1,1,0,0,1,1.17-.3,1,1,0,0,1,.6,1c-.12,1,.06,1.38.17,1.42s.62-.28,1.09-1.06a1,1,0,0,1,1.38-.33,1,1,0,0,1,.33,1.37C168.4,224.9,167.43,225.61,166.45,225.61Z" fill="#093f68"/><path d="M139.28,209.71a1.94,1.94,0,0,0-.33,2.21,2.71,2.71,0,0,0,1.86,1.38,4.27,4.27,0,0,0,1.78,0,5.68,5.68,0,0,0,3.54-2.45,1.83,1.83,0,0,0,1.67,2.89c1.69-.18,2.43-2.49,4.08-2.89" fill="#68e1fd"/><path d="M147.62,214.72a2.87,2.87,0,0,1-2.45-1.4l0-.06a6.52,6.52,0,0,1-2.33,1,5,5,0,0,1-2.2,0,3.72,3.72,0,0,1-2.55-1.91,3,3,0,0,1,.54-3.37,1,1,0,1,1,1.38,1.45,1,1,0,0,0-.12,1.05,1.76,1.76,0,0,0,1.18.83,3.25,3.25,0,0,0,1.35,0,4.73,4.73,0,0,0,2.84-1.9l.1-.15a1,1,0,0,1,1.37-.24,1,1,0,0,1,.28,1.37l-.07.1a.87.87,0,0,0,0,.83.86.86,0,0,0,.8.41c.5-.05,1-.55,1.5-1.13a5,5,0,0,1,2.45-1.73,1,1,0,0,1,1.2.74,1,1,0,0,1-.73,1.21,3.48,3.48,0,0,0-1.45,1.14,4.45,4.45,0,0,1-2.77,1.76Z" fill="#093f68"/></g></svg>