<svg xmlns="http://www.w3.org/2000/svg" viewBox="0 0 400 300"><g id="_466_lap_top_outline" data-name="#466_lap_top_outline"><path d="M121.82,70.13H278.18a4,4,0,0,1,4,4v102a0,0,0,0,1,0,0H117.78a0,0,0,0,1,0,0v-102A4,4,0,0,1,121.82,70.13Z" fill="#fff"/><path d="M282.22,177.22H117.78a1,1,0,0,1-1-1v-102a5,5,0,0,1,5-5H278.18a5,5,0,0,1,5,5V176.22A1,1,0,0,1,282.22,177.22Zm-163.44-2H281.22v-101a3.05,3.05,0,0,0-3-3H121.82a3.05,3.05,0,0,0-3,3Z" fill="#093f68"/><polygon points="282.22 176.22 117.78 176.22 84.49 218.57 315.51 218.57 282.22 176.22" fill="#68e1fd"/><path d="M315.51,219.57h-231a1,1,0,0,1-.78-1.62L117,175.6a1,1,0,0,1,.79-.38H282.22a1,1,0,0,1,.79.38L316.29,218a1,1,0,0,1-.78,1.62Zm-229-2h226.9l-31.72-40.35H118.27Z" fill="#093f68"/><rect x="128.04" y="79.71" width="143.92" height="86.83" rx="3.35" fill="#fff"/><path d="M268.61,167.55H131.39A4.35,4.35,0,0,1,127,163.2V83.06a4.35,4.35,0,0,1,4.35-4.35H268.61A4.35,4.35,0,0,1,273,83.06V163.2A4.35,4.35,0,0,1,268.61,167.55ZM131.39,80.71A2.35,2.35,0,0,0,129,83.06V163.2a2.35,2.35,0,0,0,2.35,2.35H268.61A2.35,2.35,0,0,0,271,163.2V83.06a2.35,2.35,0,0,0-2.35-2.35Z" fill="#093f68"/><path d="M84.49,218.57h231a0,0,0,0,1,0,0v6a5.28,5.28,0,0,1-5.28,5.28H89.77a5.28,5.28,0,0,1-5.28-5.28v-6A0,0,0,0,1,84.49,218.57Z" fill="#093f68"/><path d="M310.23,230.87H89.77a6.29,6.29,0,0,1-6.28-6.28v-6a1,1,0,0,1,1-1h231a1,1,0,0,1,1,1v6A6.29,6.29,0,0,1,310.23,230.87ZM85.49,219.57v5a4.28,4.28,0,0,0,4.28,4.28H310.23a4.28,4.28,0,0,0,4.28-4.28v-5Z" fill="#093f68"/><polygon points="180.92 201.89 219.08 201.89 225.24 214.18 174.76 214.18 180.92 201.89" fill="#68e1fd"/><path d="M225.24,215.18H174.76a1,1,0,0,1-.89-1.45L180,201.44a1,1,0,0,1,.89-.55h38.16a1,1,0,0,1,.89.55l6.16,12.29a1,1,0,0,1-.89,1.45Zm-48.86-2h47.24l-5.16-10.29H181.54Z" fill="#093f68"/><polygon points="124.16 182.14 112.55 198.28 287.45 198.28 275.84 182.14 124.16 182.14" fill="#68e1fd"/><path d="M287.45,199.28H112.55a1,1,0,0,1-.89-.54,1,1,0,0,1,.08-1l11.61-16.14a1,1,0,0,1,.81-.42H275.84a1,1,0,0,1,.81.42l11.61,16.14a1,1,0,0,1,.08,1A1,1,0,0,1,287.45,199.28Zm-172.95-2h171l-10.17-14.14H124.67Z" fill="#093f68"/><path d="M201.08,75.88h-2.16a1,1,0,1,1,0-2h2.16a1,1,0,1,1,0,2Z" fill="#093f68"/><path d="M144.23,151a1,1,0,0,1-.8-.39,1,1,0,0,1,.19-1.4l81-61.75a1,1,0,0,1,1.21,1.59l-81,61.74A1,1,0,0,1,144.23,151Z" fill="#dfeaef"/><path d="M140.53,120.13a1,1,0,0,1-.8-.4,1,1,0,0,1,.19-1.4l28.21-21.5a1,1,0,1,1,1.21,1.59l-28.2,21.5A1,1,0,0,1,140.53,120.13Z" fill="#dfeaef"/><path d="M195.4,145.68a1,1,0,0,1-.61-1.79l61.74-47.06a1,1,0,0,1,1.21,1.59L196,145.48A1,1,0,0,1,195.4,145.68Z" fill="#dfeaef"/><path d="M220.4,160.16a1,1,0,0,1-.8-.39,1,1,0,0,1,.19-1.4l26.57-20.26a1,1,0,0,1,1.4.19,1,1,0,0,1-.19,1.4L221,160A1,1,0,0,1,220.4,160.16Z" fill="#dfeaef"/></g></svg>