<svg xmlns="http://www.w3.org/2000/svg" viewBox="0 0 400 300"><g id="_356_lawyer_outline" data-name="#356_lawyer_outline"><path d="M163.86,157.8h42.33a37.28,37.28,0,0,1,37.28,37.28v43.66a0,0,0,0,1,0,0H126.57a0,0,0,0,1,0,0V195.09A37.28,37.28,0,0,1,163.86,157.8Z" fill="#68e1fd"/><path d="M243.47,239.75H126.57a1,1,0,0,1-1-1V195.09a38.34,38.34,0,0,1,38.29-38.29h42.32a38.34,38.34,0,0,1,38.29,38.29v43.66A1,1,0,0,1,243.47,239.75Zm-115.9-2h114.9V195.09a36.33,36.33,0,0,0-36.29-36.29H163.86a36.33,36.33,0,0,0-36.29,36.29Z" fill="#093f68"/><path d="M185,239.75a1,1,0,0,1-1-1v-29a1,1,0,0,1,2,0v29A1,1,0,0,1,185,239.75Z" fill="#093f68"/><polygon points="207.94 157.8 192.41 202.82 185.02 224.25 177.63 202.83 162.1 157.8 207.94 157.8" fill="#fff"/><path d="M185,225.25a1,1,0,0,1-1-.67l-22.92-66.45a1,1,0,0,1,.13-.91,1,1,0,0,1,.82-.42h45.84a1,1,0,0,1,.82.42,1,1,0,0,1,.13.91L186,224.58A1,1,0,0,1,185,225.25ZM163.5,158.8,185,221.18l21.52-62.38Z" fill="#093f68"/><polygon points="177.01 150.41 181.89 169.95 188.16 169.95 193.03 150.41 177.01 150.41" fill="#f56132"/><path d="M188.16,171h-6.27a1,1,0,0,1-1-.75L176,150.66a1,1,0,0,1,1-1.24h16a1,1,0,0,1,1,1.24l-4.87,19.54A1,1,0,0,1,188.16,171Zm-5.49-2h4.7l4.38-17.53H178.29Z" fill="#093f68"/><polygon points="192.41 202.82 185.02 224.25 177.63 202.83 181.89 169.96 188.15 169.96 192.41 202.82" fill="#f56132"/><path d="M185,225.25a1,1,0,0,1-1-.67l-7.38-21.43a.86.86,0,0,1-.05-.45l4.26-32.87a1,1,0,0,1,1-.87h6.26a1,1,0,0,1,1,.87l4.26,32.86a1,1,0,0,1-.05.46L186,224.58A1,1,0,0,1,185,225.25Zm-6.37-22.53L185,221.18l6.37-18.47L187.27,171h-4.5Z" fill="#093f68"/><polygon points="170.59 150.41 162.1 157.8 167.15 172.43 184.88 150.41 170.59 150.41" fill="#fff"/><path d="M167.15,173.43l-.18,0a1,1,0,0,1-.77-.66l-5-14.63a1,1,0,0,1,.28-1.08l8.49-7.38a1,1,0,0,1,.66-.24h14.29a1,1,0,0,1,.78,1.62l-17.73,22A1,1,0,0,1,167.15,173.43Zm-3.88-15.32,4.23,12.28,15.29-19H171Z" fill="#093f68"/><polygon points="198.89 150.41 185.16 150.41 202.89 172.43 207.94 157.8 198.89 150.41" fill="#fff"/><path d="M202.89,173.43a1,1,0,0,1-.77-.37l-17.74-22a1,1,0,0,1,.78-1.62h13.73a1,1,0,0,1,.63.22l9,7.38a1,1,0,0,1,.32,1.1l-5,14.63a1,1,0,0,1-.77.66Zm-15.64-22,15.29,19,4.23-12.26-8.24-6.71Z" fill="#093f68"/><path d="M149.86,239.75a1,1,0,0,1-1-1V174.63a1,1,0,0,1,2,0v64.12A1,1,0,0,1,149.86,239.75Z" fill="#093f68"/><path d="M219,239.75a1,1,0,0,1-1-1V174.63a1,1,0,0,1,2,0v64.12A1,1,0,0,1,219,239.75Z" fill="#093f68"/><path d="M175.44,68.91h19.5a29.22,29.22,0,0,1,29.22,29.22v10.33a0,0,0,0,1,0,0H146.21a0,0,0,0,1,0,0V98.13A29.22,29.22,0,0,1,175.44,68.91Z" fill="#725858"/><path d="M224.16,109.46H146.21a1,1,0,0,1-1-1V98.13a30.26,30.26,0,0,1,30.23-30.22h19.49a30.26,30.26,0,0,1,30.23,30.22v10.33A1,1,0,0,1,224.16,109.46Zm-76.95-2h75.95V98.13a28.25,28.25,0,0,0-28.23-28.22H175.44a28.25,28.25,0,0,0-28.23,28.22Z" fill="#093f68"/><ellipse cx="153.5" cy="110.87" rx="10.81" ry="10.41" fill="#ffc9b0"/><path d="M153.5,122.28a11.42,11.42,0,1,1,11.81-11.41A11.63,11.63,0,0,1,153.5,122.28Zm0-20.82a9.42,9.42,0,1,0,9.81,9.41A9.63,9.63,0,0,0,153.5,101.46Z" fill="#093f68"/><ellipse cx="216.54" cy="110.87" rx="10.81" ry="10.41" fill="#ffc9b0"/><path d="M216.54,122.28a11.42,11.42,0,1,1,11.81-11.41A11.62,11.62,0,0,1,216.54,122.28Zm0-20.82a9.42,9.42,0,1,0,9.81,9.41A9.63,9.63,0,0,0,216.54,101.46Z" fill="#093f68"/><path d="M185,55.34A33.55,33.55,0,0,1,218.58,88.9v36.34a32.1,32.1,0,0,1-32.09,32.1h-2.94a32.1,32.1,0,0,1-32.09-32.1V88.9A33.55,33.55,0,0,1,185,55.34Z" fill="#ffc9b0"/><path d="M186.49,158.34h-2.94a33.13,33.13,0,0,1-33.09-33.1V88.9a34.56,34.56,0,0,1,69.12,0v36.34A33.13,33.13,0,0,1,186.49,158.34ZM185,56.34A32.59,32.59,0,0,0,152.46,88.9v36.34a31.13,31.13,0,0,0,31.09,31.1h2.94a31.13,31.13,0,0,0,31.09-31.1V88.9A32.6,32.6,0,0,0,185,56.34Z" fill="#093f68"/><path d="M218.58,113.38v11.86a32.09,32.09,0,0,1-32.08,32.1h-2.95a32.09,32.09,0,0,1-32.09-32.1V113.35s4.54,25.33,14.08,25.33c8.1,0,7.08-14.51,21.25-12.82s13.73,14.84,18.89,14.84C214.23,140.7,218.58,113.38,218.58,113.38Z" fill="#093f68"/><path d="M186.5,158.34h-2.95a33.13,33.13,0,0,1-33.09-33.1V113.35a1,1,0,0,1,2-.18c1.23,6.82,6,24.51,13.1,24.51,2.89,0,4.43-2.2,6.37-5,2.76-3.95,6.21-8.87,15-7.82,9.21,1.09,12.56,6.75,15,10.88,1.5,2.52,2.41,3.95,3.76,3.95,3,0,6.06-4.6,8.7-12.94a107.8,107.8,0,0,0,3.21-13.53,1,1,0,0,1,2,.15v11.86A33.13,33.13,0,0,1,186.5,158.34Zm-34-36.62v3.52a31.13,31.13,0,0,0,31.09,31.1h2.95a31.12,31.12,0,0,0,31.08-31.1V123c-2.13,8.24-6,18.74-11.9,18.74-2.56,0-3.91-2.29-5.48-4.93-2.36-4-5.3-8.94-13.52-9.91-7.62-.91-10.42,3.1-13.13,7-2,2.88-4.08,5.85-8,5.85C159,139.68,154.72,129.4,152.46,121.72Z" fill="#093f68"/><circle cx="168.57" cy="108.31" r="3.19" fill="#093f68"/><circle cx="201.46" cy="108.31" r="3.19" fill="#093f68"/><path d="M174,101.74a1.63,1.63,0,0,1-.87-.26,14.16,14.16,0,0,0-6.53-2.16,14.27,14.27,0,0,0-6.53,2.16,1.59,1.59,0,0,1-1.74-2.66,17.29,17.29,0,0,1,8.27-2.68,17.3,17.3,0,0,1,8.28,2.68,1.59,1.59,0,0,1-.88,2.92Z" fill="#093f68"/><path d="M208.86,101.74a1.63,1.63,0,0,1-.87-.26,14.16,14.16,0,0,0-6.53-2.16,14.16,14.16,0,0,0-6.52,2.16,1.59,1.59,0,0,1-1.75-2.66,17.29,17.29,0,0,1,8.27-2.68,17.3,17.3,0,0,1,8.28,2.68,1.59,1.59,0,0,1-.88,2.92Z" fill="#093f68"/><path d="M185,108.46s8.38,16.6,4.13,18a7.14,7.14,0,0,1-7.17-1.61" fill="#ffc9b0"/><path d="M186.86,127.88a8.28,8.28,0,0,1-5.6-2.31,1,1,0,0,1,1.44-1.39,6.08,6.08,0,0,0,6.13,1.36.57.57,0,0,0,.35-.38c1-2.5-2.55-11.29-5.05-16.24a1,1,0,1,1,1.78-.91c.71,1.4,6.83,13.75,5.12,17.91a2.57,2.57,0,0,1-1.56,1.52A8.21,8.21,0,0,1,186.86,127.88Z" fill="#093f68"/><path d="M184.92,143.41a19.83,19.83,0,0,1-6.74-1.16,1,1,0,0,1-.61-1.28,1,1,0,0,1,1.28-.6,19.39,19.39,0,0,0,13.15-.29,1,1,0,0,1,.82,1.83A21.17,21.17,0,0,1,184.92,143.41Z" fill="#fff"/><polyline points="243.47 238.75 263.02 207.83 243.96 190.23 223.04 216.56" fill="#68e1fd"/><path d="M243.47,239.75a1,1,0,0,1-.54-.16,1,1,0,0,1-.31-1.38L261.73,208l-17.66-16.3-20.24,25.48a1,1,0,0,1-1.41.16,1,1,0,0,1-.16-1.4l20.91-26.33a1,1,0,0,1,1.47-.11l19.06,17.59a1,1,0,0,1,.17,1.27l-19.56,30.92A1,1,0,0,1,243.47,239.75Z" fill="#093f68"/><rect x="116.28" y="179.27" width="57" height="64.58" fill="#fff"/><path d="M173.28,244.85h-57a1,1,0,0,1-1-1V179.27a1,1,0,0,1,1-1h57a1,1,0,0,1,1,1v64.58A1,1,0,0,1,173.28,244.85Zm-56-2h55V180.27h-55Z" fill="#093f68"/><path d="M130.65,230.55a37.85,37.85,0,0,1-16.51,1.5,11,11,0,0,1-5.68-2.13c-2.65-2.23-3-5.62-3-8.85a51,51,0,0,1,.55-9c.39-2.6,1-5.21,3.3-6.79,2.64-1.81,6.2-2.18,9.3-2.31a53.64,53.64,0,0,1,11.18.74c1.29.22,3.86.61,3.81,2.36,0,1.3-1.74,2.54-2.92,2.69l-4.62.58a43,43,0,0,1,5.18,1.49c1.08.39,2.3,1,2.44,2.16a2.4,2.4,0,0,1-1.26,2.17,21,21,0,0,1-7.25,2.15q3.21.09,6.4.4c1.57.16,3.1.53,3.61,2.29,1.1,3.81-5.74,5.07-8.13,5.55a14.11,14.11,0,0,1,5.82-.3c1.47.23,3.35,1.47,2.08,3.13a4.17,4.17,0,0,1-1.67,1.15A23.78,23.78,0,0,1,130.65,230.55Z" fill="#ffc9b0"/><path d="M119,233.37a37,37,0,0,1-5-.33,12.23,12.23,0,0,1-6.19-2.35c-3-2.49-3.3-6.26-3.4-9.59a53,53,0,0,1,.56-9.17c.4-2.65,1.06-5.63,3.73-7.47,2.84-2,6.56-2.35,9.82-2.47a53.62,53.62,0,0,1,11.39.74l.12,0c1.49.26,4.59.79,4.52,3.36-.05,1.84-2.05,3.29-3.54,3.61l.51.18c.71.26,2.87,1,3.1,3a3.43,3.43,0,0,1-1.78,3.18c-.45.23-.91.45-1.39.65l.17,0c1.11.11,3.71.36,4.47,3a3.51,3.51,0,0,1-.36,2.89,5.52,5.52,0,0,1-2,1.83,3.8,3.8,0,0,1,2.41,2,2.55,2.55,0,0,1-.45,2.55,5.14,5.14,0,0,1-2,1.46A26.15,26.15,0,0,1,131,231.5h0A38.81,38.81,0,0,1,119,233.37Zm1.7-29.43c-.69,0-1.38,0-2.07,0-3,.12-6.34.47-8.77,2.13-2,1.38-2.53,3.78-2.88,6.12a49.9,49.9,0,0,0-.54,8.81c.09,3,.37,6.16,2.69,8.12a9.79,9.79,0,0,0,5.18,1.9,36.82,36.82,0,0,0,16.06-1.46,23.65,23.65,0,0,0,2.48-1,3.46,3.46,0,0,0,1.29-.85c.28-.37.21-.54.18-.6a2.31,2.31,0,0,0-1.63-.94,13.21,13.21,0,0,0-3.92,0c-.51.12-1,.21-1.35.29l-.19,0a1,1,0,0,1-1.17-.75,1,1,0,0,1,.71-1.19c.52-.14,1.05-.25,1.59-.34,2-.45,4.85-1.28,5.69-2.68a1.49,1.49,0,0,0,.15-1.29c-.28-1-1-1.4-2.75-1.57-2.11-.21-4.24-.34-6.32-.4a1,1,0,0,1-.1-2,20.26,20.26,0,0,0,6.91-2,1.47,1.47,0,0,0,.73-1.17c-.06-.47-.68-.94-1.79-1.34a40.55,40.55,0,0,0-5.06-1.45,1,1,0,0,1-.78-1,1,1,0,0,1,.87-.95l4.62-.58c.81-.1,2-1,2.05-1.73s-2-1.18-2.86-1.33l-.12,0A52.94,52.94,0,0,0,120.67,203.94Zm10,26.61h0Z" fill="#093f68"/><polygon points="246.6 192.66 263.02 207.83 270.79 192.33 255.93 177.56 246.6 192.66" fill="#ffc9b0"/><path d="M263,208.83a.94.94,0,0,1-.67-.27L245.92,193.4a1,1,0,0,1-.17-1.26l9.33-15.1a1,1,0,0,1,.73-.47,1,1,0,0,1,.82.28l14.87,14.77a1,1,0,0,1,.19,1.16l-7.77,15.5a1,1,0,0,1-.72.53Zm-15.14-16.34,14.85,13.7,6.85-13.66-13.46-13.37Z" fill="#093f68"/><path d="M281.84,142.16H237.29a2.5,2.5,0,0,1,0-5h44.55a2.5,2.5,0,0,1,0,5Z" fill="#093f68"/><path d="M259.57,200.66a2.5,2.5,0,0,1-2.5-2.5v-64.1a2.5,2.5,0,0,1,5,0v64.1A2.5,2.5,0,0,1,259.57,200.66Z" fill="#093f68"/><rect x="245.46" y="196.42" width="28.21" height="6.93" rx="3.47" fill="#ffbc0e"/><path d="M270.21,204.35H248.92a4.47,4.47,0,0,1,0-8.93h21.29a4.47,4.47,0,0,1,0,8.93Zm-21.29-6.93a2.47,2.47,0,0,0,0,4.93h21.29a2.47,2.47,0,0,0,0-4.93Z" fill="#093f68"/><path d="M250.05,165.19a12.77,12.77,0,0,1-25.53,0Z" fill="#ffbc0e"/><path d="M237.29,179a13.79,13.79,0,0,1-13.77-13.76,1,1,0,0,1,1-1h25.53a1,1,0,0,1,1,1A13.78,13.78,0,0,1,237.29,179Zm-11.72-12.76a11.76,11.76,0,0,0,23.44,0Z" fill="#093f68"/><path d="M250.05,166.19a1,1,0,0,1-.89-.56L237.29,141.9l-11.87,23.73a1,1,0,0,1-1.79-.89l12.76-25.53a1,1,0,0,1,1.79,0l12.76,25.53a1,1,0,0,1-.44,1.34A1.06,1.06,0,0,1,250.05,166.19Z" fill="#093f68"/><path d="M294.61,165.19a12.77,12.77,0,0,1-25.53,0Z" fill="#ffbc0e"/><path d="M281.84,179a13.78,13.78,0,0,1-13.76-13.76,1,1,0,0,1,1-1h25.53a1,1,0,0,1,1,1A13.79,13.79,0,0,1,281.84,179Zm-11.72-12.76a11.76,11.76,0,0,0,23.44,0Z" fill="#093f68"/><path d="M294.61,166.19a1,1,0,0,1-.9-.56L281.84,141.9,270,165.63a1,1,0,1,1-1.79-.89L281,139.21a1,1,0,0,1,1.79,0l12.76,25.53a1,1,0,0,1-.89,1.45Z" fill="#093f68"/><rect x="256.37" y="174.74" width="14.42" height="5.31" rx="2.32" fill="#ffc9b0"/><path d="M268.47,181.05h-9.78a3.32,3.32,0,0,1-3.32-3.32v-.67a3.32,3.32,0,0,1,3.32-3.32h9.78a3.32,3.32,0,0,1,3.32,3.32v.67A3.32,3.32,0,0,1,268.47,181.05Zm-9.78-5.31a1.32,1.32,0,0,0-1.32,1.32v.67a1.32,1.32,0,0,0,1.32,1.32h9.78a1.32,1.32,0,0,0,1.32-1.32v-.67a1.32,1.32,0,0,0-1.32-1.32Z" fill="#093f68"/><rect x="256.37" y="179.83" width="14.42" height="5.31" rx="2.32" fill="#ffc9b0"/><path d="M268.47,186.14h-9.78a3.32,3.32,0,0,1-3.32-3.32v-.67a3.32,3.32,0,0,1,3.32-3.32h9.78a3.32,3.32,0,0,1,3.32,3.32v.67A3.32,3.32,0,0,1,268.47,186.14Zm-9.78-5.31a1.32,1.32,0,0,0-1.32,1.32v.67a1.32,1.32,0,0,0,1.32,1.32h9.78a1.32,1.32,0,0,0,1.32-1.32v-.67a1.32,1.32,0,0,0-1.32-1.32Z" fill="#093f68"/><rect x="256.37" y="184.92" width="14.42" height="5.31" rx="2.32" fill="#ffc9b0"/><path d="M268.47,191.23h-9.78a3.32,3.32,0,0,1-3.32-3.32v-.67a3.32,3.32,0,0,1,3.32-3.32h9.78a3.32,3.32,0,0,1,3.32,3.32v.67A3.32,3.32,0,0,1,268.47,191.23Zm-9.78-5.31a1.32,1.32,0,0,0-1.32,1.32v.67a1.32,1.32,0,0,0,1.32,1.32h9.78a1.32,1.32,0,0,0,1.32-1.32v-.67a1.32,1.32,0,0,0-1.32-1.32Z" fill="#093f68"/><rect x="256.37" y="190.01" width="14.42" height="5.31" rx="2.32" fill="#ffc9b0"/><path d="M268.47,196.32h-9.78a3.32,3.32,0,0,1-3.32-3.32v-.67a3.32,3.32,0,0,1,3.32-3.32h9.78a3.32,3.32,0,0,1,3.32,3.32V193A3.32,3.32,0,0,1,268.47,196.32ZM258.69,191a1.32,1.32,0,0,0-1.32,1.32V193a1.32,1.32,0,0,0,1.32,1.32h9.78a1.32,1.32,0,0,0,1.32-1.32v-.67a1.32,1.32,0,0,0-1.32-1.32Z" fill="#093f68"/><rect x="250.06" y="174.63" width="5.87" height="19.32" rx="2.93" fill="#ffc9b0"/><path d="M253,195a3.94,3.94,0,0,1-3.93-3.94V177.56a3.94,3.94,0,0,1,7.87,0V191A4,4,0,0,1,253,195Zm0-19.32a1.93,1.93,0,0,0-1.93,1.93V191a1.94,1.94,0,1,0,3.87,0V177.56A1.93,1.93,0,0,0,253,175.63Z" fill="#093f68"/></g></svg>