<svg id="_540_lemonade_outline" data-name="#540_lemonade_outline" xmlns="http://www.w3.org/2000/svg" viewBox="0 0 400 300"><path d="M278.59,130.74c-.42-1.94-.85-3.81-1.3-5.63-.08-.3-.14-.59-.22-.87-4.38-17.37-10.25-29.24-17-36.44-7.55-8.06-18.3-7.11-18.3-7.11-.32,11.85,2.32,28.74,7.38,43.55.4,1.22.84,2.43,1.29,3.62,5.89,15.6,22.54,38.49,21.51,67.62a44.51,44.51,0,0,1-25,39.2H152c-35-30.17-22.54-58.62-10-85.67,3.65-7.91,7.19-16.37,10.19-24.77,3.6-10.08,9.63-23.77,6.76-34.63-2.6-9.8-20-24.29-20-24.29s82.73.57,97,.13c6-.19,19.46,3.65,32.17,15.3,15.61,14.3,19.26,43.29,20.37,52.85C289,138,282.12,147.14,278.59,130.74Z" fill="#fff"/><path d="M247,235.68H152a1,1,0,0,1-.66-.25C115.26,204.37,129,174.74,141,148.6c3.91-8.48,7.34-16.79,10.16-24.7L152.6,120c3.46-9.32,7.75-20.93,5.31-30.14-2.48-9.39-19.46-23.64-19.64-23.78a1,1,0,0,1,.64-1.77h0c.83,0,82.87.57,97,.13,6.17-.15,20,3.79,32.88,15.56,10.72,9.83,17.68,27.82,20.69,53.47.34,2.93-1.9,7.15-4.75,7.62-2.16.35-5.16-1.1-7.11-10.15h0c-.41-1.91-.84-3.8-1.29-5.6l-.07-.27c0-.19-.09-.37-.14-.56-4.16-16.48-9.79-28.59-16.74-36-5.87-6.27-13.87-6.83-16.56-6.83h0c-.17,12.15,2.67,28.61,7.33,42.26.39,1.15.82,2.36,1.28,3.58,1.5,4,3.75,8.5,6.13,13.31,7.23,14.61,16.22,32.78,15.44,54.71a45.85,45.85,0,0,1-25.58,40.08A1,1,0,0,1,247,235.68Zm-94.66-2h94.44A43.89,43.89,0,0,0,271,195.44c.76-21.41-8.11-39.34-15.24-53.74-2.41-4.86-4.68-9.45-6.21-13.49-.47-1.25-.91-2.48-1.3-3.66-4.85-14.2-7.76-31.43-7.43-43.89a1,1,0,0,1,.92-1c.45,0,11.31-.9,19.11,7.42,7.19,7.7,13,20.1,17.21,36.87,0,.18.1.4.15.62l.07.25c.45,1.83.89,3.74,1.31,5.67,1.44,6.69,3.43,8.83,4.83,8.6,1.72-.29,3.31-3.47,3.08-5.42-2.94-25.16-9.69-42.73-20.05-52.23C255,70.12,241.84,66.27,236,66.45c-12.68.39-79.94,0-94.34-.11,4.74,4.22,16.1,15,18.23,23,2.6,9.83-1.82,21.77-5.37,31.36-.49,1.33-1,2.63-1.41,3.86-2.85,8-6.29,16.33-10.24,24.86C131.09,174.87,117.78,203.68,152.35,233.68Z" fill="#093f68"/><path d="M250.47,127.86c5.89,15.6,22.54,38.49,21.51,67.62a44.51,44.51,0,0,1-25,39.2H152c-35-30.17-22.54-58.62-10-85.67,3.65-7.91,7.19-16.37,10.19-24.77h97.06C249.58,125.46,250,126.67,250.47,127.86Z" fill="#68e1fd"/><path d="M247,235.68H152a1,1,0,0,1-.66-.25C115.26,204.37,129,174.74,141,148.6c3.91-8.48,7.34-16.79,10.16-24.7a1,1,0,0,1,.94-.66h97.06a1,1,0,0,1,.95.68c.38,1.15.81,2.36,1.27,3.58h0c1.49,4,3.74,8.49,6.12,13.31,7.23,14.6,16.22,32.77,15.44,54.7a45.85,45.85,0,0,1-25.58,40.08A1,1,0,0,1,247,235.68Zm-94.66-2h94.44A43.89,43.89,0,0,0,271,195.44c.76-21.41-8.11-39.34-15.24-53.74-2.41-4.86-4.68-9.45-6.21-13.49-.38-1-.74-2-1.07-3H152.83c-2.8,7.76-6.16,15.9-10,24.19C131.09,174.87,117.78,203.68,152.35,233.68Z" fill="#093f68"/><path d="M277.29,124.24v.87c-.08-.3-.14-.59-.22-.87Z" fill="#68e1fd"/><path d="M277.29,126.11a1,1,0,0,1-1-.76l-.07-.27c0-.19-.09-.37-.14-.56a1,1,0,0,1,.16-.88,1,1,0,0,1,.8-.4h.22a1,1,0,0,1,1,1v.87a1,1,0,0,1-.88,1Z" fill="#093f68"/><path d="M197.08,210.23a19.64,19.64,0,1,1-37.26-12.42Z" fill="#ffbc0e"/><path d="M178.43,224.66a20.64,20.64,0,0,1-19.56-27.17,1,1,0,0,1,.5-.58,1,1,0,0,1,.76,0l37.26,12.43a1,1,0,0,1,.58.5,1,1,0,0,1,.06.76A20.68,20.68,0,0,1,178.43,224.66Zm-18-25.58a18.64,18.64,0,0,0,35.32,11.78Z" fill="#093f68"/><path d="M172.23,223.65a1.12,1.12,0,0,1-.31-.05,1,1,0,0,1-.63-1.27l5.4-16.2-14.95,8.26a1,1,0,0,1-1.36-.4,1,1,0,0,1,.39-1.35L178,203.15a1,1,0,0,1,1.44,1.19L173.18,223A1,1,0,0,1,172.23,223.65Z" fill="#093f68"/><path d="M172.23,223.65a1.12,1.12,0,0,1-.31-.05,1,1,0,0,1-.63-1.27l6.21-18.63a1,1,0,0,1,1.86-.09l8,17.91a1,1,0,0,1-.5,1.32,1,1,0,0,1-1.32-.5l-7-15.57L173.18,223A1,1,0,0,1,172.23,223.65Z" fill="#093f68"/><path d="M245,208.68a19.64,19.64,0,1,0-37.59-11.39Z" fill="#ffbc0e"/><path d="M245,209.68a1.35,1.35,0,0,1-.29,0l-37.59-11.39a1,1,0,0,1-.67-1.25,20.64,20.64,0,1,1,39.5,12,1,1,0,0,1-.48.59A1,1,0,0,1,245,209.68Zm-36.32-13.05,35.62,10.79a18.64,18.64,0,0,0-35.62-10.79Z" fill="#093f68"/><path d="M226.17,204a1,1,0,0,1-.9-.56l-8.55-17.68a1,1,0,1,1,1.8-.87L226,200.24l4.95-16.34a1,1,0,1,1,1.91.58l-5.69,18.79a1,1,0,0,1-.88.71Z" fill="#093f68"/><path d="M226.17,204a1,1,0,0,1-.62-.21,1,1,0,0,1-.34-1.08l5.7-18.79a1,1,0,1,1,1.91.58l-4.95,16.34,14.72-8.66a1,1,0,1,1,1,1.72l-16.92,10A1,1,0,0,1,226.17,204Z" fill="#093f68"/><path d="M219.64,155.44a19.63,19.63,0,1,1-37-13.18Z" fill="#ffbc0e"/><path d="M201.12,169.49a20.34,20.34,0,0,1-6.9-1.2,20.66,20.66,0,0,1-12.52-26.36,1,1,0,0,1,1.28-.61l37,13.18a1,1,0,0,1,.61,1.28A20.68,20.68,0,0,1,201.12,169.49Zm-17.84-25.94A18.64,18.64,0,0,0,218.34,156Z" fill="#093f68"/><path d="M194.55,168.35a1,1,0,0,1-.33-.06,1,1,0,0,1-.61-1.27l5.73-16.09-15.11,7.95a1,1,0,0,1-1.35-.42,1,1,0,0,1,.42-1.35L200.68,148a1,1,0,0,1,1.12.13,1,1,0,0,1,.29,1.09l-6.59,18.5A1,1,0,0,1,194.55,168.35Z" fill="#093f68"/><path d="M194.55,168.35a1,1,0,0,1-.33-.06,1,1,0,0,1-.61-1.27l6.59-18.5a1,1,0,0,1,.91-.67,1,1,0,0,1,.95.61l7.69,18.07a1,1,0,0,1-1.84.79l-6.68-15.72-5.73,16.09A1,1,0,0,1,194.55,168.35Z" fill="#093f68"/><path d="M173.85,182.45a1,1,0,0,1-.44-.1l-15.59-7.6a1,1,0,0,1-.51-.57,1,1,0,0,1,.05-.76l7.6-15.59a1,1,0,0,1,1.33-.46l15.59,7.6a1,1,0,0,1,.46,1.33l-7.59,15.59a1,1,0,0,1-.58.51A1.13,1.13,0,0,1,173.85,182.45Zm-14.25-9.06,13.79,6.73,6.72-13.79-13.79-6.73Z" fill="#093f68"/><path d="M214.47,136.84a1,1,0,0,1-1-.73l-4.8-16.66a1,1,0,0,1,.69-1.24l16.66-4.79a1,1,0,0,1,1.24.68l4.79,16.66a1,1,0,0,1-.68,1.24l-16.66,4.8A1.45,1.45,0,0,1,214.47,136.84Zm-3.56-17,4.24,14.74,14.75-4.24-4.25-14.75Z" fill="#093f68"/></svg>