<svg xmlns="http://www.w3.org/2000/svg" viewBox="0 0 400 300"><g id="_307_london_outline" data-name="#307_london_outline"><path d="M292.93,150a93,93,0,0,1-63.5,88.17c-2.79.93-5.65,1.74-8.55,2.4a89.54,89.54,0,0,1-10.44,1.77,92.66,92.66,0,0,1-20.88,0,89.54,89.54,0,0,1-10.44-1.77c-2.9-.66-5.76-1.47-8.55-2.4a92.95,92.95,0,0,1,24.83-181c1.52-.07,3.06-.11,4.6-.11s3.08,0,4.6.11A92.94,92.94,0,0,1,292.93,150Z" fill="#fff"/><path d="M200,243.93a92.23,92.23,0,0,1-10.55-.6,89.85,89.85,0,0,1-10.56-1.79c-2.84-.64-5.75-1.46-8.64-2.42a93.95,93.95,0,0,1,25.1-182.94c3.22-.15,6.08-.15,9.3,0a93.95,93.95,0,0,1,25.1,182.94c-2.89,1-5.8,1.78-8.65,2.42a89.33,89.33,0,0,1-10.55,1.79A92.23,92.23,0,0,1,200,243.93Zm0-185.86c-1.45,0-3,0-4.55.11a91.94,91.94,0,0,0-24.56,179c2.82.94,5.66,1.74,8.45,2.38a92.83,92.83,0,0,0,41.31,0c2.8-.64,5.64-1.44,8.46-2.38a91.94,91.94,0,0,0-24.56-179C203,58.11,201.45,58.07,200,58.07Z" fill="#093f68"/><path d="M264.53,134.63H232.94c-3.71,0-6.72-2.44-6.72-5.44a5.49,5.49,0,0,1,3.85-4.92c.77-3.9,5-6.86,10.06-6.86a12,12,0,0,1,5.22,1.15,8.36,8.36,0,0,1,7.14-3.58c3.81,0,7,2.18,7.78,5.11a7.87,7.87,0,0,1,6.55,4c2.64.77,4.44,2.81,4.44,5.12C271.26,132.19,268.24,134.63,264.53,134.63Zm-24.4-15.22c-4.28,0-7.87,2.51-8.17,5.71a1,1,0,0,1-.72.87c-1.81.51-3,1.8-3,3.2,0,1.9,2.12,3.44,4.72,3.44h31.59c2.61,0,4.73-1.54,4.73-3.44,0-1.5-1.39-2.86-3.38-3.3a1,1,0,0,1-.72-.62c-.72-1.89-3.07-3.22-5.72-3.22a1,1,0,0,1-1-.92c-.18-2.33-2.78-4.15-5.93-4.15-2.7,0-5.06,1.35-5.75,3.29a1,1,0,0,1-.61.61,1,1,0,0,1-.85-.09A9.89,9.89,0,0,0,240.13,119.41Z" fill="#dfeaef"/><path d="M241.24,125.25a1,1,0,0,1-.76-1.65c5.43-6.33,11.29-2,11.35-1.95a1,1,0,1,1-1.21,1.59c-.18-.13-4.44-3.21-8.62,1.67A1,1,0,0,1,241.24,125.25Z" fill="#dfeaef"/><rect x="165.58" y="141.04" width="68.83" height="64.23" fill="#68e1fd"/><path d="M234.42,206.27H165.58a1,1,0,0,1-1-1V141a1,1,0,0,1,1-1h68.84a1,1,0,0,1,1,1v64.23A1,1,0,0,1,234.42,206.27Zm-67.84-2h66.84V142H166.58Z" fill="#093f68"/><rect x="177.1" y="151.12" width="45.79" height="43.2" fill="#093f68"/><path d="M222.9,195.32H177.1a1,1,0,0,1-1-1v-43.2a1,1,0,0,1,1-1h45.8a1,1,0,0,1,1,1v43.2A1,1,0,0,1,222.9,195.32Zm-44.8-2h43.8v-41.2H178.1Z" fill="#093f68"/><rect x="168.32" y="205.27" width="63.36" height="8.35" fill="#68e1fd"/><path d="M231.68,214.62H168.32a1,1,0,0,1-1-1v-8.35a1,1,0,0,1,1-1h63.36a1,1,0,0,1,1,1v8.35A1,1,0,0,1,231.68,214.62Zm-62.36-2h61.36v-6.35H169.32Z" fill="#093f68"/><path d="M229.43,213.62v24.55c-2.79.93-5.65,1.74-8.55,2.4a89.54,89.54,0,0,1-10.44,1.77,92.66,92.66,0,0,1-20.88,0,89.54,89.54,0,0,1-10.44-1.77c-2.9-.66-5.76-1.47-8.55-2.4V213.62Z" fill="#68e1fd"/><path d="M200,243.93a92.23,92.23,0,0,1-10.55-.6,89.85,89.85,0,0,1-10.56-1.79c-2.84-.64-5.75-1.46-8.64-2.42a1,1,0,0,1-.68-1V213.62a1,1,0,0,1,1-1h58.86a1,1,0,0,1,1,1v24.55a1,1,0,0,1-.68,1c-2.89,1-5.8,1.78-8.65,2.42a89.33,89.33,0,0,1-10.55,1.79A92.23,92.23,0,0,1,200,243.93Zm-28.43-6.48c2.6.84,5.21,1.56,7.77,2.15a92.83,92.83,0,0,0,41.31,0c2.57-.59,5.18-1.31,7.78-2.15V214.62H171.57Z" fill="#093f68"/><rect x="170.7" y="128.8" width="58.61" height="12.24" fill="#68e1fd"/><path d="M229.3,142H170.7a1,1,0,0,1-1-1V128.8a1,1,0,0,1,1-1h58.6a1,1,0,0,1,1,1V141A1,1,0,0,1,229.3,142Zm-57.6-2h56.6V129.8H171.7Z" fill="#093f68"/><rect x="168.03" y="122.1" width="63.94" height="6.7" fill="#68e1fd"/><path d="M232,129.8H168a1,1,0,0,1-1-1v-6.7a1,1,0,0,1,1-1H232a1,1,0,0,1,1,1v6.7A1,1,0,0,1,232,129.8Zm-62.94-2H231v-4.7H169Z" fill="#093f68"/><path d="M216.13,97.26H183.87C180,116,172.78,122.1,172.78,122.1h54.44S220,116,216.13,97.26Z" fill="#093f68"/><path d="M227.22,123.1H172.78a1,1,0,0,1-.64-1.76c.06-.06,7-6.21,10.75-24.28a1,1,0,0,1,1-.8h32.26a1,1,0,0,1,1,.8c3.75,18.07,10.69,24.22,10.76,24.28a1,1,0,0,1,.28,1.11A1,1,0,0,1,227.22,123.1Zm-52.15-2h49.86c-2.37-2.92-6.78-9.76-9.61-22.84H184.68C181.85,111.34,177.44,118.18,175.07,121.1Z" fill="#093f68"/><rect x="183.87" y="80.56" width="32.26" height="16.7" fill="#68e1fd"/><path d="M216.13,98.26H183.87a1,1,0,0,1-1-1V80.56a1,1,0,0,1,1-1h32.26a1,1,0,0,1,1,1v16.7A1,1,0,0,1,216.13,98.26Zm-31.26-2h30.26V81.56H184.87Z" fill="#093f68"/><path d="M183.87,81.56a1,1,0,0,1-1-1V71.34a1,1,0,0,1,2,0v9.22A1,1,0,0,1,183.87,81.56Z" fill="#093f68"/><path d="M216.13,81.56a1,1,0,0,1-1-1V71.34a1,1,0,0,1,2,0v9.22A1,1,0,0,1,216.13,81.56Z" fill="#093f68"/><path d="M200,36.57v0c-.3,2.53-3.53,27.65-16.11,44h32.24C203.54,64.22,200.31,39.1,200,36.57Z" fill="#093f68"/><path d="M216.12,81.56H183.88a1,1,0,0,1-.79-1.61c12.29-16,15.54-40.41,15.9-43.44v-.16a1,1,0,0,1,.94-1h.14a1,1,0,0,1,.94,1v.16c.36,3,3.61,27.48,15.9,43.44a1,1,0,0,1-.79,1.61Zm-30.25-2h28.26c-8.54-12-12.49-27.88-14.13-36.63C198.36,51.68,194.41,67.54,185.87,79.56Z" fill="#093f68"/><path d="M200,38.75a1,1,0,0,1-1-1V25.8a1,1,0,0,1,2,0v12A1,1,0,0,1,200,38.75Z" fill="#093f68"/><circle cx="200" cy="173.55" r="19.98" fill="#68e1fd"/><path d="M200,194.53a21,21,0,1,1,21-21A21,21,0,0,1,200,194.53Zm0-40a19,19,0,1,0,19,19A19,19,0,0,0,200,154.57Z" fill="#093f68"/><path d="M179.12,241.57a1,1,0,0,1-1-1V213.62a1,1,0,0,1,2,0v26.95A1,1,0,0,1,179.12,241.57Z" fill="#093f68"/><path d="M189.56,243.34a1,1,0,0,1-1-1V213.62a1,1,0,0,1,2,0v28.72A1,1,0,0,1,189.56,243.34Z" fill="#093f68"/><path d="M200,243.93a1,1,0,0,1-1-1V213.62a1,1,0,0,1,2,0v29.31A1,1,0,0,1,200,243.93Z" fill="#093f68"/><path d="M210.44,243.34a1,1,0,0,1-1-1V213.62a1,1,0,0,1,2,0v28.72A1,1,0,0,1,210.44,243.34Z" fill="#093f68"/><path d="M220.88,241.57a1,1,0,0,1-1-1V213.62a1,1,0,0,1,2,0v26.95A1,1,0,0,1,220.88,241.57Z" fill="#093f68"/><path d="M179.12,138.39a1,1,0,0,1-1-1v-4.77a1,1,0,0,1,2,0v4.77A1,1,0,0,1,179.12,138.39Z" fill="#093f68"/><path d="M189.56,138.39a1,1,0,0,1-1-1v-4.77a1,1,0,0,1,2,0v4.77A1,1,0,0,1,189.56,138.39Z" fill="#093f68"/><path d="M200,138.39a1,1,0,0,1-1-1v-4.77a1,1,0,0,1,2,0v4.77A1,1,0,0,1,200,138.39Z" fill="#093f68"/><path d="M210.44,138.39a1,1,0,0,1-1-1v-4.77a1,1,0,0,1,2,0v4.77A1,1,0,0,1,210.44,138.39Z" fill="#093f68"/><path d="M220.88,138.39a1,1,0,0,1-1-1v-4.77a1,1,0,0,1,2,0v4.77A1,1,0,0,1,220.88,138.39Z" fill="#093f68"/><path d="M191,92.3a1,1,0,0,1-1-1V86.52a1,1,0,0,1,2,0V91.3A1,1,0,0,1,191,92.3Z" fill="#093f68"/><path d="M197,92.3a1,1,0,0,1-1-1V86.52a1,1,0,1,1,2,0V91.3A1,1,0,0,1,197,92.3Z" fill="#093f68"/><path d="M203,92.3a1,1,0,0,1-1-1V86.52a1,1,0,1,1,2,0V91.3A1,1,0,0,1,203,92.3Z" fill="#093f68"/><path d="M209,92.3a1,1,0,0,1-1-1V86.52a1,1,0,0,1,2,0V91.3A1,1,0,0,1,209,92.3Z" fill="#093f68"/><path d="M200,159.42a1,1,0,0,1-1-1v-2.6a1,1,0,0,1,2,0v2.6A1,1,0,0,1,200,159.42Z" fill="#093f68"/><path d="M200,191a1,1,0,0,1-1-1v-2.59a1,1,0,0,1,2,0V190A1,1,0,0,1,200,191Z" fill="#093f68"/><path d="M210.23,163.66a1,1,0,0,1-.7-.3,1,1,0,0,1,0-1.41l1.83-1.83a1,1,0,0,1,1.41,0,1,1,0,0,1,0,1.41l-1.83,1.83A1,1,0,0,1,210.23,163.66Z" fill="#093f68"/><path d="M187.93,186a1,1,0,0,1-.7-.3,1,1,0,0,1,0-1.41l1.83-1.83a1,1,0,0,1,1.41,0,1,1,0,0,1,0,1.41l-1.83,1.83A1,1,0,0,1,187.93,186Z" fill="#093f68"/><path d="M217.06,173.89h-2.59a1,1,0,0,1,0-2h2.59a1,1,0,0,1,0,2Z" fill="#093f68"/><path d="M185.53,173.89h-2.59a1,1,0,0,1,0-2h2.59a1,1,0,0,1,0,2Z" fill="#093f68"/><path d="M212.07,186a1,1,0,0,1-.71-.3l-1.83-1.83a1,1,0,0,1,0-1.41,1,1,0,0,1,1.41,0l1.83,1.83a1,1,0,0,1,0,1.41A1,1,0,0,1,212.07,186Z" fill="#093f68"/><path d="M189.77,163.66a1,1,0,0,1-.71-.3l-1.83-1.83a1,1,0,0,1,0-1.41,1,1,0,0,1,1.41,0l1.83,1.83a1,1,0,0,1,0,1.41A1,1,0,0,1,189.77,163.66Z" fill="#093f68"/><path d="M172.78,123.1a1,1,0,0,1-1-1V110.75a1,1,0,1,1,2,0V122.1A1,1,0,0,1,172.78,123.1Z" fill="#093f68"/><path d="M227.22,123.1a1,1,0,0,1-1-1V110.75a1,1,0,0,1,2,0V122.1A1,1,0,0,1,227.22,123.1Z" fill="#093f68"/><path d="M210.23,174.34H200a1,1,0,0,1-.91-.58l-5.36-11.6a1,1,0,1,1,1.82-.84l5.09,11h9.59a1,1,0,0,1,0,2Z" fill="#093f68"/><path d="M200,174.34h-3a1,1,0,0,1,0-2h3a1,1,0,0,1,0,2Z" fill="#093f68"/><path d="M201.12,176.26a1,1,0,0,1-.88-.53l-1.86-3.53a1,1,0,1,1,1.76-.93L202,174.8a1,1,0,0,1-.42,1.35A1,1,0,0,1,201.12,176.26Z" fill="#093f68"/><path d="M149.72,160.86H120c-3.52,0-6.38-2.32-6.38-5.18,0-2.18,1.7-4.12,4.19-4.86a7.46,7.46,0,0,1,6.16-3.75c.72-2.76,3.76-4.81,7.36-4.81a7.9,7.9,0,0,1,6.73,3.35,11.43,11.43,0,0,1,4.89-1.06c4.74,0,8.77,2.79,9.52,6.46a5.22,5.22,0,0,1,3.63,4.67C156.1,158.54,153.24,160.86,149.72,160.86Zm-18.39-16.6c-2.93,0-5.36,1.69-5.52,3.85a1,1,0,0,1-1,.92c-2.49,0-4.68,1.23-5.35,3a1,1,0,0,1-.72.62c-1.84.41-3.13,1.66-3.13,3,0,1.76,2,3.18,4.38,3.18h29.72c2.41,0,4.38-1.42,4.38-3.18,0-1.28-1.12-2.47-2.8-3a1,1,0,0,1-.72-.87c-.28-3-3.63-5.31-7.63-5.31a9.18,9.18,0,0,0-4.81,1.29,1,1,0,0,1-.85.08,1,1,0,0,1-.61-.6C136,145.52,133.84,144.26,131.33,144.26Zm-12.8,7.41h0Z" fill="#dfeaef"/><path d="M139.82,152.56a1,1,0,0,1-1-.83,4.64,4.64,0,0,0-1.88-2.89,4.82,4.82,0,0,0-4-.14,1,1,0,0,1-.59-1.91,6,6,0,0,1,8.46,4.61,1,1,0,0,1-.82,1.15Z" fill="#dfeaef"/><path d="M266.53,191.7H246c-2.61,0-4.73-1.75-4.73-3.89a3.88,3.88,0,0,1,2.55-3.46c.62-2.64,3.44-4.56,6.85-4.56a8.27,8.27,0,0,1,3.27.66,5.79,5.79,0,0,1,4.77-2.24,5.48,5.48,0,0,1,5.34,3.35,5.45,5.45,0,0,1,4.23,2.63,4,4,0,0,1,3,3.62C271.26,190,269.14,191.7,266.53,191.7Zm-15.88-9.91c-2.6,0-4.79,1.5-5,3.4a1,1,0,0,1-.73.87c-1,.29-1.71,1-1.71,1.75,0,1,1.25,1.89,2.73,1.89h20.55c1.48,0,2.73-.87,2.73-1.89,0-.81-.79-1.56-1.93-1.8a1,1,0,0,1-.72-.63,3.54,3.54,0,0,0-3.4-1.87,1,1,0,0,1-1-.92c-.09-1.31-1.67-2.38-3.51-2.38a3.56,3.56,0,0,0-3.41,1.91,1,1,0,0,1-1.46.52A6.11,6.11,0,0,0,250.65,181.79Z" fill="#dfeaef"/><path d="M257.45,186.75a1,1,0,0,1-1-.93c-.14-2-2.5-3.11-2.53-3.12a1,1,0,0,1,.82-1.83c.14.06,3.49,1.58,3.7,4.82a1,1,0,0,1-.93,1.06Z" fill="#dfeaef"/></g></svg>