<svg xmlns="http://www.w3.org/2000/svg" viewBox="0 0 400 300"><g id="_571_lunch_break_outline" data-name="#571_lunch_break_outline"><path d="M243.5,176.15s-2.79-1.4-5,5.19.89,42.29.89,42.29l13.66-.51,4.76-38.57Z" fill="#ffc9b0"/><path d="M239.4,224.63a1,1,0,0,1-1-.91c-.13-1.47-3.07-36-.84-42.69,1-3.14,2.4-5.07,4-5.75a2.91,2.91,0,0,1,2.35,0l.06,0,14.33,8.4a1,1,0,0,1,.48,1l-4.76,38.57a1,1,0,0,1-.95.88l-13.67.51ZM242.85,177a1.23,1.23,0,0,0-.55.14c-.59.28-1.75,1.23-2.83,4.5-1.64,4.94-.2,28.39.85,40.94l11.86-.45,4.58-37.07-13.7-8A.72.72,0,0,0,242.85,177Z" fill="#093f68"/><rect x="199.53" y="170.39" width="7.38" height="56.2" fill="#68e1fd"/><path d="M206.91,227.59h-7.38a1,1,0,0,1-1-1v-56.2a1,1,0,0,1,1-1h7.38a1,1,0,0,1,1,1v56.2A1,1,0,0,1,206.91,227.59Zm-6.38-2h5.38v-54.2h-5.38Z" fill="#093f68"/><path d="M195.26,226.59h15.92a2.95,2.95,0,0,1,2.95,2.95v3.73a0,0,0,0,1,0,0H192.32a0,0,0,0,1,0,0v-3.73A2.95,2.95,0,0,1,195.26,226.59Z" fill="#68e1fd"/><path d="M214.13,234.27H192.32a1,1,0,0,1-1-1v-3.73a4,4,0,0,1,3.94-3.95h15.92a4,4,0,0,1,3.95,3.95v3.73A1,1,0,0,1,214.13,234.27Zm-20.81-2h19.81v-2.73a2,2,0,0,0-1.95-1.95H195.26a1.94,1.94,0,0,0-1.94,1.95Z" fill="#093f68"/><path d="M167.69,123.48a6.07,6.07,0,0,1,5.23-1.56,5.32,5.32,0,0,1,4,3.62,9.81,9.81,0,0,1-.37,5.08,6,6,0,0,1-1.09,2.55,5.72,5.72,0,0,1-1.87,1.3,62.45,62.45,0,0,1-8.09,3.42,1.35,1.35,0,0,1-.74.1,1.27,1.27,0,0,1-.63-.47c-1.58-1.9-2.3-5.27-1-7.53.57-1,1.51-1.85,2.12-2.9A15.16,15.16,0,0,1,167.69,123.48Z" fill="#ffc9b0"/><path d="M164.94,139a1.48,1.48,0,0,1-.41,0,2.14,2.14,0,0,1-1.17-.8c-1.76-2.12-2.67-5.93-1.12-8.66a11.51,11.51,0,0,1,1.15-1.59,10.54,10.54,0,0,0,1-1.33l.38-.66a12.69,12.69,0,0,1,2.25-3.17h0a7.07,7.07,0,0,1,6.12-1.81,6.34,6.34,0,0,1,4.76,4.32,10.81,10.81,0,0,1-.36,5.61,7.2,7.2,0,0,1-1.3,3,6.59,6.59,0,0,1-2.17,1.53,63.16,63.16,0,0,1-8.23,3.47A2.71,2.71,0,0,1,164.94,139Zm.11-2h0Zm3.32-12.83a11.18,11.18,0,0,0-1.88,2.7l-.39.68a13,13,0,0,1-1.16,1.59,8.89,8.89,0,0,0-1,1.31c-1.07,1.88-.39,4.82.92,6.39l.1.12.17-.06a61.35,61.35,0,0,0,8-3.36,4.91,4.91,0,0,0,1.56-1.06,5.33,5.33,0,0,0,.88-2.14,9.19,9.19,0,0,0,.38-4.57,4.29,4.29,0,0,0-3.24-2.91,5,5,0,0,0-4.35,1.31Z" fill="#093f68"/><path d="M121.11,128.25s20.83,10.47,25.88,9,16.55-8.37,16.55-8.37l2.67,8.82s-10.49,10-18.17,11.09c-7.22,1-27.57-8.2-27.57-8.2Z" fill="#f56132"/><path d="M146.81,149.83c-8.24,0-26-8-26.75-8.36a1,1,0,0,1-.59-1l.64-12.31a1,1,0,0,1,.49-.81,1,1,0,0,1,1,0c8.23,4.13,21.72,9.92,25.14,8.9,4.87-1.44,16.22-8.2,16.33-8.27a1,1,0,0,1,1.47.57l2.67,8.82a1,1,0,0,1-.27,1c-.44.41-10.81,10.2-18.72,11.34A8.44,8.44,0,0,1,146.81,149.83Zm-25.31-9.9c3.45,1.52,20.23,8.72,26.39,7.84,6.41-.93,15.12-8.54,17.18-10.41l-2.11-7c-3,1.76-11.45,6.57-15.69,7.82-4.67,1.39-20.23-5.91-25.24-8.36Z" fill="#093f68"/><path d="M111.55,121.73h7.87a0,0,0,0,1,0,0v4.94a3.46,3.46,0,0,1-3.46,3.46H115a3.46,3.46,0,0,1-3.46-3.46v-4.94A0,0,0,0,1,111.55,121.73Z" transform="matrix(1, 0.07, -0.07, 1, 8.54, -7.33)" fill="#ffc9b0"/><path d="M115.91,131.16h-.3l-.94-.06a4.47,4.47,0,0,1-4.16-4.74l.33-4.94a1,1,0,0,1,1.06-.93l7.85.52a1,1,0,0,1,.69.34,1,1,0,0,1,.24.72l-.32,4.94A4.47,4.47,0,0,1,115.91,131.16Zm-3.14-8.62-.26,3.94a2.47,2.47,0,0,0,2.29,2.62l.94.06h0a2.47,2.47,0,0,0,2.62-2.3l.26-3.93Z" fill="#093f68"/><path d="M131.15,82s1.7-7-6.57-11.87-13.29-3.49-13.43-1.94,3.19,3.12,3.19,3.12a27.58,27.58,0,0,0-15.92,5.79c-8,6.22-10.64,12.6-6.67,25.42a35,35,0,0,0,11,15.88s13-.3,18.51-9S131.15,82,131.15,82Z" fill="#725858"/><path d="M102.71,119.39a1,1,0,0,1-.6-.2A35.59,35.59,0,0,1,90.8,102.8c-3.85-12.4-2-19.58,7-26.5a29.17,29.17,0,0,1,13.55-5.76,3.11,3.11,0,0,1-1.21-2.45,2.25,2.25,0,0,1,1.37-1.76c2.13-1.09,7-1,13.57,2.93,8.76,5.17,7.12,12.57,7,13-.19.81-4.47,18.89-10.05,27.67-5.79,9.08-18.78,9.49-19.34,9.5ZM114.29,72.3A26.91,26.91,0,0,0,99,77.88C92,83.35,88.64,89.09,92.71,102.21A34.2,34.2,0,0,0,103,117.37c2.07-.13,12.63-1.16,17.34-8.56,5.41-8.49,9.75-26.86,9.79-27h0c.07-.28,1.38-6.36-6.1-10.78C118.9,67.92,115,67.39,113,67.9c-.59.16-.83.37-.86.44,0,.31,1.18,1.37,2.64,2.06a1,1,0,0,1,.54,1.13,1,1,0,0,1-1,.77Z" fill="#093f68"/><path d="M120.62,124.89c-4.89,1-9.88-.81-13.91-3.52-2.1-1.42-5.39-3-5-6a7.83,7.83,0,0,1,1.58-3.47c1.68-2.34,3.6-5.09,4.4-7.9,1-3.55-.35-7.28,1.22-10.84C111.64,87,119,87.75,124.5,85.67c.6-.23,6.84-2.61,6.65-3.68l3.92,19.6C137.24,112.42,131.63,122.68,120.62,124.89Z" fill="#ffc9b0"/><path d="M117.87,126.15a21.34,21.34,0,0,1-11.72-4c-.28-.2-.59-.39-.9-.59-2.09-1.32-5-3.13-4.54-6.33a8.82,8.82,0,0,1,1.77-3.92c1.75-2.43,3.52-5,4.25-7.6a15.56,15.56,0,0,0,.37-4.56,14.67,14.67,0,0,1,.89-6.4c2.15-4.89,6.76-5.85,11.22-6.78a31.38,31.38,0,0,0,4.93-1.29,24.45,24.45,0,0,0,6-2.91,1,1,0,0,1,2,0l3.92,19.59a21.93,21.93,0,0,1-2.41,15.6,19.06,19.06,0,0,1-12.83,8.88h0A15,15,0,0,1,117.87,126.15ZM130.53,84a34.83,34.83,0,0,1-5.68,2.59A34.08,34.08,0,0,1,119.62,88c-4.15.86-8.06,1.68-9.8,5.62a13,13,0,0,0-.72,5.57,17.36,17.36,0,0,1-.44,5.14c-.83,2.88-2.71,5.64-4.56,8.22a6.87,6.87,0,0,0-1.4,3c-.23,1.79,1.35,2.95,3.62,4.38l1,.62c4.43,3,9.1,4.18,13.15,3.36h0A17.07,17.07,0,0,0,131.93,116a19.94,19.94,0,0,0,2.16-14.17Z" fill="#093f68"/><circle cx="127.49" cy="97.13" r="1.85" fill="#093f68"/><path d="M132.45,97s6.28,7.21,5.1,7.77a21.39,21.39,0,0,1-4.32,1" fill="#ffc9b0"/><path d="M133.23,106.69a1,1,0,0,1-.12-2,25.29,25.29,0,0,0,3.42-.64,45.51,45.51,0,0,0-4.83-6.43,1,1,0,1,1,1.51-1.31c5.82,6.7,5.54,8,5.45,8.45a1.23,1.23,0,0,1-.69.89,20.84,20.84,0,0,1-4.62,1Zm3.47-2.19h0Z" fill="#093f68"/><path d="M109.57,99.62s-5.46-2.36-7.18,2.43,2.21,11.57,9.72,7.86" fill="#ffc9b0"/><path d="M108,112a6.69,6.69,0,0,1-4.53-1.68,8.07,8.07,0,0,1-2.06-8.58,5.25,5.25,0,0,1,2.86-3.21c2.56-1.11,5.54.15,5.66.2a1,1,0,1,1-.79,1.84h0a6,6,0,0,0-4.09-.2,3.25,3.25,0,0,0-1.75,2,6.09,6.09,0,0,0,1.5,6.4c1.68,1.5,4.1,1.58,6.83.23a1,1,0,0,1,1.34.45,1,1,0,0,1-.45,1.34A10.35,10.35,0,0,1,108,112Z" fill="#093f68"/><path d="M120.47,95.72a2,2,0,0,1-.25-4l8.2-1a2,2,0,1,1,.5,4l-8.2,1Z" fill="#093f68"/><path d="M127.16,116.49a5.61,5.61,0,0,1-1.45-.19,6.26,6.26,0,0,1-4-4,1,1,0,0,1,.53-1.31,1,1,0,0,1,1.31.53,4.38,4.38,0,0,0,2.68,2.8c2.08.57,4.44-1.1,4.46-1.12a1,1,0,1,1,1.18,1.61A8.86,8.86,0,0,1,127.16,116.49Z" fill="#093f68"/><path d="M131.48,173.74l-33,2.41L96.15,141a14.73,14.73,0,0,1,14-15.42l3.51-.17a14.72,14.72,0,0,1,15.42,14Z" fill="#f56132"/><path d="M98.48,177.15a1,1,0,0,1-1-.93L95.15,141a15.72,15.72,0,0,1,14.94-16.48l3.52-.18a15.74,15.74,0,0,1,16.46,14.94l2.41,34.37a1,1,0,0,1-.93,1.07l-33,2.41Zm15.9-50.8h-.68l-3.51.17a13.72,13.72,0,0,0-13,14.38l2.26,34.17,31-2.27-2.33-33.39A13.74,13.74,0,0,0,114.38,126.35Z" fill="#093f68"/><path d="M100.16,177.94s1.2,11.53,10.69,12.53c7.67.81,29.34.79,37.38.75a3.2,3.2,0,0,1,3.21,3L153,223.12l13.67.51s2.69-44.24-.31-47.74-33.73-4.44-33.73-4.44Z" fill="#093f68"/><path d="M166.64,224.63h0l-13.66-.51a1,1,0,0,1-1-1l-1.53-28.86a2.21,2.21,0,0,0-2.2-2.09h0c-8.73,0-29.86.05-37.5-.75-4.23-.45-7.59-2.94-9.69-7.2A20.17,20.17,0,0,1,99.16,178,1,1,0,0,1,100,177l32.45-6.49.22,0c5.21.16,31.33,1.13,34.46,4.79s1,41,.55,48.45A1,1,0,0,1,166.64,224.63Zm-12.72-2.48,11.78.45c1.26-21.28,1.56-44.09-.13-46.06-1.87-2.18-20.31-3.7-32.88-4.08l-31.4,6.27c.48,2.61,2.48,10,9.66,10.75,7.55.79,28.58.78,37.28.74h0a4.2,4.2,0,0,1,4.19,4Z" fill="#093f68"/><polygon points="152.97 223.12 152.97 233.27 176.4 233.27 166.64 223.63 152.97 223.12" fill="#f56132"/><path d="M176.4,234.27H153a1,1,0,0,1-1-1V223.12a1,1,0,0,1,.31-.72,1,1,0,0,1,.73-.28l13.67.51a1,1,0,0,1,.66.29l9.76,9.64a1,1,0,0,1,.23,1.09A1,1,0,0,1,176.4,234.27Zm-22.43-2h20l-7.75-7.65L154,224.15Z" fill="#093f68"/><rect x="106.58" y="200.54" width="7.11" height="32.73" fill="#68e1fd"/><path d="M113.68,234.27h-7.1a1,1,0,0,1-1-1V200.54a1,1,0,0,1,1-1h7.1a1,1,0,0,1,1,1v32.73A1,1,0,0,1,113.68,234.27Zm-6.1-2h5.1V201.54h-5.1Z" fill="#093f68"/><rect x="135.19" y="200.54" width="7.11" height="32.73" fill="#68e1fd"/><path d="M142.3,234.27h-7.11a1,1,0,0,1-1-1V200.54a1,1,0,0,1,1-1h7.11a1,1,0,0,1,1,1v32.73A1,1,0,0,1,142.3,234.27Zm-6.11-2h5.11V201.54h-5.11Z" fill="#093f68"/><path d="M309.91,234.27H93.14a1,1,0,0,1,0-2H309.91a1,1,0,0,1,0,2Z" fill="#093f68"/><path d="M115.14,141.32A229,229,0,0,0,121,164.25l21.7,1.44,1.41,9.52c-.25.16-3.45,1.48-12.37,2.73-23.55,3.3-24.28-1.36-30.56-33.92" fill="#f56132"/><path d="M121.75,179.79c-14.69,0-16.29-8.32-21.42-34.89l-.14-.69a1,1,0,0,1,2-.38l.13.7c6.22,32.19,6.87,35.56,29.31,32.42A63.72,63.72,0,0,0,143,174.58l-1.18-8-20.89-1.38a1,1,0,0,1-.89-.69,229.52,229.52,0,0,1-5.89-23.05,1,1,0,1,1,2-.38c1.9,9.84,4.84,19.61,5.63,22.17l21,1.39a1,1,0,0,1,.92.85l1.41,9.52a1,1,0,0,1-.46,1c-.58.36-4.17,1.67-12.76,2.87A75.4,75.4,0,0,1,121.75,179.79Z" fill="#093f68"/><path d="M142.67,166s6.82-1.63,11,.11,7.8,7.5,5.63,7.74-7.16-1.63-8.22-1.25-6.92,1.27-6.92,1.27Z" fill="#ffc9b0"/><path d="M144.11,174.85a1,1,0,0,1-1-.82l-1.44-7.87a1,1,0,0,1,.75-1.15c.29-.07,7.19-1.69,11.57.16,3.47,1.46,7.2,5.91,6.86,8.22a1.64,1.64,0,0,1-1.51,1.43,17.35,17.35,0,0,1-5.07-.75,15.51,15.51,0,0,0-3-.54c-1.08.39-6.45,1.22-7.06,1.31Zm7.31-3.32a16.72,16.72,0,0,1,3.33.6,19.87,19.87,0,0,0,4.12.72,11.54,11.54,0,0,0-5.64-5.84c-2.92-1.23-7.46-.6-9.4-.24l1.09,5.94c2.22-.35,5.15-.85,5.77-1.07A2,2,0,0,1,151.42,171.53Z" fill="#093f68"/><rect x="102.08" y="190.63" width="44.35" height="9.91" rx="2.65" fill="#68e1fd"/><path d="M143.77,201.54h-39a3.65,3.65,0,0,1-3.65-3.65v-4.6a3.65,3.65,0,0,1,3.65-3.66h39a3.66,3.66,0,0,1,3.65,3.66v4.6A3.66,3.66,0,0,1,143.77,201.54Zm-39-9.91a1.65,1.65,0,0,0-1.65,1.66v4.6a1.65,1.65,0,0,0,1.65,1.65h39a1.65,1.65,0,0,0,1.65-1.65v-4.6a1.65,1.65,0,0,0-1.65-1.66Z" fill="#093f68"/><path d="M289.08,124.53s-16.31,17.76-17.81,16.12-3.36-14.72-3.36-14.72l-7.9,2.48s-3.74,25.57,7.78,28.12,26.17-16,26.17-16Z" fill="#70cc40"/><path d="M270,157.77a11.47,11.47,0,0,1-2.47-.27c-12.28-2.72-8.71-28.15-8.55-29.23a1,1,0,0,1,.69-.81l7.9-2.48a1,1,0,0,1,1.29.81c.81,5.66,2.1,12.2,2.92,13.87,2.15-1,9.88-8.58,16.52-15.81a1,1,0,0,1,1-.3,1,1,0,0,1,.74.68l4.88,16a1,1,0,0,1-.17.92C294.17,141.87,281.47,157.77,270,157.77Zm-9.12-28.59c-.46,3.83-2.45,24.26,7.08,26.37,9.87,2.19,22.65-12.59,24.85-15.24l-4.22-13.83c-5.05,5.44-14.53,15.27-17.08,15.27h0a1.37,1.37,0,0,1-1-.43c-1.42-1.56-2.84-10.09-3.44-14.08Z" fill="#093f68"/><path d="M290.09,121.73H291a3.46,3.46,0,0,1,3.46,3.46v4.94a0,0,0,0,1,0,0h-7.87a0,0,0,0,1,0,0v-4.94a3.46,3.46,0,0,1,3.46-3.46Z" transform="translate(588.79 232.45) rotate(176.22)" fill="#ffc9b0"/><path d="M290.14,131.16a4.46,4.46,0,0,1-4.45-4.16l-.33-4.94a1,1,0,0,1,.25-.72,1,1,0,0,1,.68-.34l7.85-.52a1,1,0,0,1,1.07.93l.32,4.94a4.45,4.45,0,0,1-4.16,4.74l-.93.06Zm-2.72-8.23.26,3.93a2.46,2.46,0,0,0,2.62,2.3h0l.94-.06a2.48,2.48,0,0,0,2.3-2.62l-.26-3.94Z" fill="#093f68"/><path d="M285.43,124.89c4.89,1,9.88-.81,13.91-3.52,2.1-1.42,5.38-3,5-6a7.83,7.83,0,0,0-1.58-3.47c-1.69-2.34-3.6-5.09-4.41-7.9-1-3.55.35-7.28-1.21-10.84-2.66-6-11.25-6.58-16.91-7.06a11.66,11.66,0,0,0-4.17.15c-3.45,1-3.05,5.11-3.63,8L271,101.59C268.81,112.42,274.41,122.68,285.43,124.89Z" fill="#ffc9b0"/><path d="M288.17,126.15a15.1,15.1,0,0,1-2.94-.28h0A19.06,19.06,0,0,1,272.4,117a21.93,21.93,0,0,1-2.4-15.6l1.45-7.27c.12-.58.19-1.21.27-1.89.31-2.65.7-5.94,4.06-6.9a12.47,12.47,0,0,1,4.53-.19l.54,0c5.73.48,14.39,1.21,17.2,7.61a14.67,14.67,0,0,1,.89,6.4,15.91,15.91,0,0,0,.37,4.56c.74,2.58,2.51,5.17,4.26,7.6a8.81,8.81,0,0,1,1.76,3.92c.41,3.2-2.45,5-4.53,6.33-.32.2-.62.39-.9.59A21.37,21.37,0,0,1,288.17,126.15ZM278.21,87a6.87,6.87,0,0,0-1.88.22c-1.94.56-2.28,2.34-2.62,5.22-.08.68-.17,1.39-.3,2L272,101.79A19.89,19.89,0,0,0,274.12,116a17,17,0,0,0,11.5,7.94h0c4.06.81,8.73-.38,13.16-3.36l1-.62c2.26-1.43,3.85-2.59,3.62-4.38a7,7,0,0,0-1.41-3c-1.85-2.58-3.73-5.34-4.55-8.22a17.37,17.37,0,0,1-.45-5.14,12.88,12.88,0,0,0-.72-5.57c-2.33-5.31-10-5.95-15.54-6.42l-.54,0C279.5,87.08,278.85,87,278.21,87Z" fill="#093f68"/><path d="M273.59,100.18s-6.27,7.21-5.09,7.77a20.56,20.56,0,0,0,4.32,1" fill="#ffc9b0"/><path d="M272.82,109.9h-.12a20.9,20.9,0,0,1-4.63-1,1.23,1.23,0,0,1-.69-.89c-.09-.43-.37-1.75,5.46-8.45a1,1,0,0,1,1.51,1.31,45,45,0,0,0-4.84,6.43,25.72,25.72,0,0,0,3.43.64,1,1,0,0,1-.12,2Z" fill="#093f68"/><path d="M296.48,99.62s5.45-2.36,7.18,2.43-2.22,11.57-9.72,7.86" fill="#ffc9b0"/><path d="M298,112a10.31,10.31,0,0,1-4.52-1.16,1,1,0,0,1-.46-1.34,1,1,0,0,1,1.34-.45c2.73,1.34,5.16,1.27,6.83-.23a6.09,6.09,0,0,0,1.51-6.4,3.27,3.27,0,0,0-1.76-2,6,6,0,0,0-4.09.2,1,1,0,0,1-.79-1.84c.13,0,3.1-1.31,5.67-.2a5.21,5.21,0,0,1,2.85,3.21,8.05,8.05,0,0,1-2.06,8.58A6.66,6.66,0,0,1,298,112Z" fill="#093f68"/><path d="M285.58,96.79l-.25,0-8.21-1a2,2,0,0,1-1.73-2.24,2,2,0,0,1,2.23-1.73l8.21,1a2,2,0,0,1-.25,4Z" fill="#093f68"/><path d="M283.54,102.06a1,1,0,0,1-.94-.65c-.47-1.27-1.1-2-1.87-2.24a3.62,3.62,0,0,0-2.75.74,1,1,0,0,1-1.4-.19,1,1,0,0,1,.18-1.39,5.62,5.62,0,0,1,4.51-1.09,5.11,5.11,0,0,1,3.21,3.47,1,1,0,0,1-.59,1.29A1.12,1.12,0,0,1,283.54,102.06Z" fill="#093f68"/><path d="M274.57,173.74l33,2.41,2.32-35.2a14.72,14.72,0,0,0-14-15.42l-3.52-.17a14.73,14.73,0,0,0-15.42,14Z" fill="#70cc40"/><path d="M307.57,177.15h-.07l-33-2.41a1,1,0,0,1-.92-1.07l2.4-34.39a15.73,15.73,0,0,1,16.47-14.92l3.52.18A15.73,15.73,0,0,1,310.89,141l-2.32,35.22a1,1,0,0,1-.35.69A1,1,0,0,1,307.57,177.15Zm-31.94-4.34,31,2.27,2.26-34.19a13.74,13.74,0,0,0-13-14.36l-3.52-.17a13.72,13.72,0,0,0-14.37,13Z" fill="#093f68"/><path d="M305.89,177.94s-1.2,11.53-10.69,12.53c-7.67.81-29.34.79-37.39.75-1.71,0-18.09-15.33-18.09-15.33,3-3.51,33.72-4.44,33.72-4.44Z" fill="#093f68"/><path d="M264.19,192.24l-6.38,0c-1.74,0-11.17-8.49-18.78-15.6a1,1,0,0,1-.07-1.38c3.13-3.66,29.25-4.63,34.45-4.79l.23,0L306.09,177a1,1,0,0,1,.79,1.08,20,20,0,0,1-1.88,6.23c-2.11,4.26-5.46,6.75-9.7,7.2C289.16,192.12,274.31,192.24,264.19,192.24Zm-6.23-2Zm0,0c8.75,0,29.67.05,37.18-.74,7.18-.76,9.18-8.14,9.67-10.75l-31.4-6.27c-11.5.35-27.92,1.65-32.06,3.54C248.56,182.75,256.48,189.68,257.91,190.22Z" fill="#093f68"/><polygon points="253.07 223.12 253.07 233.27 229.65 233.27 239.41 223.63 253.07 223.12" fill="#70cc40"/><path d="M253.07,234.27H229.65a1,1,0,0,1-.71-1.71l9.76-9.64a1.05,1.05,0,0,1,.67-.29l13.66-.51a1,1,0,0,1,.73.28,1,1,0,0,1,.31.72v10.15A1,1,0,0,1,253.07,234.27Zm-21-2h20v-8.12l-12.24.47Z" fill="#093f68"/><rect x="292.36" y="200.54" width="7.11" height="32.73" transform="translate(591.83 433.81) rotate(-180)" fill="#68e1fd"/><path d="M299.47,234.27h-7.11a1,1,0,0,1-1-1V200.54a1,1,0,0,1,1-1h7.11a1,1,0,0,1,1,1v32.73A1,1,0,0,1,299.47,234.27Zm-6.11-2h5.11V201.54h-5.11Z" fill="#093f68"/><rect x="263.74" y="200.54" width="7.11" height="32.73" transform="translate(534.6 433.81) rotate(-180)" fill="#68e1fd"/><path d="M270.85,234.27h-7.11a1,1,0,0,1-1-1V200.54a1,1,0,0,1,1-1h7.11a1,1,0,0,1,1,1v32.73A1,1,0,0,1,270.85,234.27Zm-6.11-2h5.11V201.54h-5.11Z" fill="#093f68"/><rect x="259.62" y="190.63" width="44.35" height="9.91" rx="2.65" transform="translate(563.59 391.17) rotate(-180)" fill="#68e1fd"/><path d="M301.32,201.54H262.27a3.66,3.66,0,0,1-3.65-3.65v-4.6a3.66,3.66,0,0,1,3.65-3.66h39.05a3.66,3.66,0,0,1,3.65,3.66v4.6A3.66,3.66,0,0,1,301.32,201.54Zm-39.05-9.91a1.65,1.65,0,0,0-1.65,1.66v4.6a1.65,1.65,0,0,0,1.65,1.65h39.05a1.65,1.65,0,0,0,1.65-1.65v-4.6a1.65,1.65,0,0,0-1.65-1.66Z" fill="#093f68"/><path d="M293.85,130.31l-22.2,16.87c-2.1-2.91-4-19.29-4-19.29l-9,1.35s-4.09,28.79,5.38,30.84c14.77,3.19,29.76-13.71,29.76-13.71" fill="#70cc40"/><path d="M267.86,161.47a19.4,19.4,0,0,1-4-.41c-4.44-1-6.8-6.73-7-17.15a105.07,105.07,0,0,1,.87-14.81,1,1,0,0,1,.84-.85l9-1.35a1,1,0,0,1,1.14.88c.66,5.77,2,14.63,3.31,17.89l21.26-16.15a1,1,0,0,1,1.21,1.59L272.25,148a1,1,0,0,1-.75.19,1,1,0,0,1-.67-.4c-1.93-2.7-3.55-14.87-4-18.74l-7.21,1.08c-1.07,8.24-2.1,27.52,4.71,29,14,3,28.65-13.23,28.79-13.4a1,1,0,0,1,1.5,1.33,57.14,57.14,0,0,1-9.53,8.22C279.06,159.36,273.19,161.47,267.86,161.47Z" fill="#093f68"/><rect x="169.79" y="164.94" width="66.87" height="7.8" rx="2.73" fill="#68e1fd"/><path d="M233.93,173.74H172.52a3.73,3.73,0,0,1-3.73-3.73v-2.34a3.73,3.73,0,0,1,3.73-3.73h61.41a3.74,3.74,0,0,1,3.73,3.73V170A3.74,3.74,0,0,1,233.93,173.74Zm-61.41-7.8a1.73,1.73,0,0,0-1.73,1.73V170a1.74,1.74,0,0,0,1.73,1.73h61.41a1.74,1.74,0,0,0,1.73-1.73v-2.34a1.73,1.73,0,0,0-1.73-1.73Z" fill="#093f68"/><path d="M176.38,133a.94.94,0,0,1-.48-.13c-3.46-1.91-6.48-5.79-7-9a4.68,4.68,0,0,1,1-4,4,4,0,0,1,3-1.42c2.27,0,4.07,2.11,4.27,2.35a1,1,0,0,1-1.53,1.28,4.62,4.62,0,0,0-2.78-1.63,2,2,0,0,0-1.48.76,2.69,2.69,0,0,0-.51,2.36c.45,2.65,3.09,6,6,7.62a1,1,0,0,1,.39,1.35A1,1,0,0,1,176.38,133Z" fill="#093f68"/><path d="M166.27,125.27c.2-.65.41-1.31.61-2a5.44,5.44,0,0,1,1.5-2.69,5.38,5.38,0,0,1,2.18-.89c2.72-.68,4,2.37,4.66,4.53a1.8,1.8,0,0,1-.23,1.91,1.31,1.31,0,0,1-1.33.12,3.75,3.75,0,0,1-1.12-.83l-.94-.9a5,5,0,0,1-1.77,4.36" fill="#ffc9b0"/><path d="M169.83,129.91a1,1,0,0,1-.77-.37,1,1,0,0,1,.13-1.41,4,4,0,0,0,1.41-3.47,1,1,0,0,1,.55-1,1,1,0,0,1,1.13.17l.95.9a3.22,3.22,0,0,0,.82.63.42.42,0,0,0,.3,0,1.45,1.45,0,0,0-.09-.85c-1.32-4.38-2.93-4-3.46-3.85a4.68,4.68,0,0,0-1.8.7,4.58,4.58,0,0,0-1.16,2.22c-.21.65-.41,1.3-.61,2a1,1,0,1,1-1.91-.58c.2-.66.4-1.32.61-2a5,5,0,0,1,4.39-4.25c2.64-.66,4.61,1.09,5.86,5.21.52,1.73-.12,2.6-.54,3a2.3,2.3,0,0,1-2.36.29,3.29,3.29,0,0,1-.87-.54,6,6,0,0,1-1.95,3A1,1,0,0,1,169.83,129.91Z" fill="#093f68"/><path d="M175.2,116.47h17.24a0,0,0,0,1,0,0v16.88a3.46,3.46,0,0,1-3.46,3.46H178.66a3.46,3.46,0,0,1-3.46-3.46V116.47A0,0,0,0,1,175.2,116.47Z" fill="#fff"/><path d="M189,137.81H178.66a4.46,4.46,0,0,1-4.46-4.46V116.47a1,1,0,0,1,1-1h17.25a1,1,0,0,1,1,1v16.88A4.47,4.47,0,0,1,189,137.81ZM176.2,117.47v15.88a2.46,2.46,0,0,0,2.46,2.46H189a2.47,2.47,0,0,0,2.47-2.46V117.47Z" fill="#093f68"/><path d="M226.75,161.1a1,1,0,0,1-.87-.51,1,1,0,0,1,.39-1.36c2.92-1.62,5.56-5,6-7.61a2.71,2.71,0,0,0-.51-2.37,2,2,0,0,0-1.48-.75,4.51,4.51,0,0,0-2.77,1.63,1,1,0,0,1-1.54-1.29c.2-.24,2-2.3,4.27-2.34a3.89,3.89,0,0,1,3,1.42,4.66,4.66,0,0,1,1,4c-.54,3.23-3.56,7.11-7,9A1.07,1.07,0,0,1,226.75,161.1Z" fill="#093f68"/><path d="M214.15,144.6h10.32a3.46,3.46,0,0,1,3.46,3.46v16.88a0,0,0,0,1,0,0H210.69a0,0,0,0,1,0,0V148.06A3.46,3.46,0,0,1,214.15,144.6Z" transform="translate(438.62 309.54) rotate(-180)" fill="#fff"/><path d="M224.47,165.94H214.15a4.46,4.46,0,0,1-4.46-4.46V144.6a1,1,0,0,1,1-1h17.24a1,1,0,0,1,1,1v16.88A4.46,4.46,0,0,1,224.47,165.94ZM211.69,145.6v15.88a2.46,2.46,0,0,0,2.46,2.46h10.32a2.46,2.46,0,0,0,2.46-2.46V145.6Z" fill="#093f68"/><path d="M198.42,145.66a4.49,4.49,0,0,1-.68-2.07A1.54,1.54,0,0,1,199,142a1.52,1.52,0,0,1,1.42,1.14,4.42,4.42,0,0,1,0,2,4,4,0,0,1,2.34-.44c.78.17,1.46,1.07,1.09,1.79a1.68,1.68,0,0,1-1.39.75,5.18,5.18,0,0,0-1.62.25,3.21,3.21,0,0,0-1.15,1,37.54,37.54,0,0,0-2.31,3.3c-.48.76-1.11,1.65-2,1.61a1.83,1.83,0,0,1-1.47-1.22c-.36-.91,0-1.22.62-1.94C195.81,148.7,197.11,147.18,198.42,145.66Z" fill="#ad7972"/><path d="M195.45,154.42h-.11a2.83,2.83,0,0,1-2.35-1.85,2.37,2.37,0,0,1,.6-2.72l.18-.22c1.18-1.46,2.39-2.87,3.46-4.11a4.38,4.38,0,0,1-.49-1.94,2.35,2.35,0,0,1,4.63-.73,3.24,3.24,0,0,1,.15.85,3.68,3.68,0,0,1,1.48,0,2.62,2.62,0,0,1,1.76,1.42,2,2,0,0,1,0,1.8,2.62,2.62,0,0,1-2.18,1.29l-.47,0a2.81,2.81,0,0,0-.85.13,2.63,2.63,0,0,0-.78.76,37.42,37.42,0,0,0-2.24,3.2C197.82,153,197,154.42,195.45,154.42Zm-.67-2.83a.75.75,0,0,0,.07.24c.13.33.41.58.58.59.37,0,.94-.86,1.12-1.14a37.92,37.92,0,0,1,2.37-3.38,4,4,0,0,1,1.53-1.35,4.31,4.31,0,0,1,1.54-.31l.39,0c.4,0,.58-.16.6-.2a.66.66,0,0,0-.42-.37,3.36,3.36,0,0,0-1.74.39,1,1,0,0,1-1.37-1.06,3.66,3.66,0,0,0,0-1.51c-.08-.26-.29-.44-.4-.44h0c-.11,0-.32.27-.32.58a3.78,3.78,0,0,0,.57,1.6,1,1,0,0,1-.13,1.12c-1.16,1.34-2.53,2.93-3.86,4.57l-.2.24a3,3,0,0,0-.34.46Z" fill="#093f68"/><path d="M191.5,150.34a3.3,3.3,0,0,0,2.12-.72,8.42,8.42,0,0,1,.69-.77.72.72,0,0,1,.94,0c.31.35,0,1,.29,1.33a1.25,1.25,0,0,1,1.84,1.12c2.14-.92,1.68,1.1,1.4,2.37a11.35,11.35,0,0,0-.09,2,8.23,8.23,0,0,1-12.93,6.55c-2.77-1.94-1.61-6.05-.09-8.4a7.36,7.36,0,0,1,5-3.37Z" fill="#f56132"/><path d="M190.51,164.66a9.38,9.38,0,0,1-5.32-1.63c-3.38-2.36-2.07-7.13-.36-9.76a8.44,8.44,0,0,1,5.69-3.82c.23,0,.47-.06.71-.08l.17,0h0a2.67,2.67,0,0,0,1.52-.44l.2-.24a3.47,3.47,0,0,1,.57-.61,1.7,1.7,0,0,1,2.31.11,1.59,1.59,0,0,1,.38.83,2.42,2.42,0,0,1,.93.33,2.32,2.32,0,0,1,.74.72,1.77,1.77,0,0,1,1.33.36c1,.79.63,2.3.39,3.4a5.86,5.86,0,0,0-.08,1.27v.61a9.5,9.5,0,0,1-5.82,8.34A9.15,9.15,0,0,1,190.51,164.66Zm1.09-13.32-.18,0-.61.07a6.4,6.4,0,0,0-4.3,2.93c-1.24,1.9-2.38,5.49-.17,7a7.23,7.23,0,0,0,11.35-5.75v-.55a7.34,7.34,0,0,1,.12-1.66,10.54,10.54,0,0,0,.22-1.33l-.25.09a1,1,0,0,1-1-.12,1,1,0,0,1-.39-.93.44.44,0,0,0-.29-.16,1,1,0,0,1-1.32-.18,1.67,1.67,0,0,1-.32-.62l-.14.15a4.31,4.31,0,0,1-2.72,1Z" fill="#093f68"/><path d="M179.06,156.75a8.29,8.29,0,0,1,2.86-3,3.24,3.24,0,0,1,3.87.43c1.17-1.26,3.42-.9,4.58.37a6.72,6.72,0,0,1,1.4,4.84,3.53,3.53,0,0,1-.52,2,3.76,3.76,0,0,1-2.88,1.14,43.09,43.09,0,0,1-6.91-.14c-1.86-.16-5,0-6.52-1.15C172.31,159.24,176.35,154.74,179.06,156.75Z" fill="#fff"/><path d="M186,163.62c-1.72,0-3.33-.11-4.66-.22-.39,0-.84-.06-1.32-.07-1.9-.08-4.25-.17-5.72-1.29s-1.66-3.15-.37-4.86a4.36,4.36,0,0,1,4.77-1.73,8.12,8.12,0,0,1,2.73-2.58,4.44,4.44,0,0,1,4.35,0,3.7,3.7,0,0,1,1.93-.5,4.7,4.7,0,0,1,3.37,1.47,7.58,7.58,0,0,1,1.66,5.55,4.46,4.46,0,0,1-.72,2.57,4.66,4.66,0,0,1-3.61,1.54C187.63,163.6,186.82,163.62,186,163.62Zm-8.49-6.38a2.76,2.76,0,0,0-2,1.14c-.24.31-.93,1.38,0,2.07s3,.82,4.58.88l1.42.07a44.31,44.31,0,0,0,6.76.15,3,3,0,0,0,2.14-.74,2.74,2.74,0,0,0,.33-1.44,5.65,5.65,0,0,0-1.14-4.13,2.67,2.67,0,0,0-1.9-.83,1.76,1.76,0,0,0-1.21.46.91.91,0,0,1-.75.32,1,1,0,0,1-.74-.34,2.25,2.25,0,0,0-2.64-.21,7.57,7.57,0,0,0-2.49,2.66,1,1,0,0,1-.66.44,1,1,0,0,1-.78-.19A1.5,1.5,0,0,0,177.54,157.24Z" fill="#093f68"/><polygon points="195.5 164.94 174.78 164.94 169.78 160.08 200.5 160.08 195.5 164.94" fill="#dfeaef"/><path d="M195.5,165.94H174.78a.94.94,0,0,1-.69-.29l-5-4.86a1,1,0,0,1,.69-1.71H200.5a1,1,0,0,1,.92.62,1,1,0,0,1-.23,1.09l-5,4.86A.94.94,0,0,1,195.5,165.94Zm-20.31-2h19.9l2.94-2.86H172.25Z" fill="#093f68"/><path d="M290.73,76.6a16.77,16.77,0,0,1,12.13,6.82c2.93,4.13,3.71,9.37,4.12,14.41,1.17,14.45,0,29.14,3,43.34a2.17,2.17,0,0,1,0,1.38,2.2,2.2,0,0,1-1.67.94,93.11,93.11,0,0,1-22.47,1.76c2.5-15.37,3.68-30.93,4.86-46.46.15-2.05.26-4.29-1-5.94-1.78-2.43-3.6-2.36-6.17-2.53-1-.06-6.24-3.53-5.56-4.63-.85,1.37-2.54,1.88-4.09,2.28-.15,0-.36,0-.41-.1a.29.29,0,0,1,0-.13C274.63,80.32,284,76,290.73,76.6Z" fill="#725858"/><path d="M289.81,146.34q-2,0-4-.09a1,1,0,0,1-.73-.37,1,1,0,0,1-.22-.79c2.49-15.33,3.69-31.11,4.85-46.37.16-2,.21-4-.76-5.28-1.38-1.88-2.63-2-4.89-2.09l-.55,0c-1.17-.08-4.43-2.2-5.82-3.83a10.39,10.39,0,0,1-3.51,1.45,1.24,1.24,0,0,1-1.61-.76,1.27,1.27,0,0,1,0-.59C273.78,79.3,284,75,290.82,75.6a17.77,17.77,0,0,1,12.86,7.24c3.06,4.31,3.87,9.72,4.3,14.91s.55,10.6.67,15.77c.22,9.08.44,18.47,2.3,27.45a3.05,3.05,0,0,1-.08,2,3.14,3.14,0,0,1-2.37,1.49A94.64,94.64,0,0,1,289.81,146.34ZM287,144.29a92.22,92.22,0,0,0,21.1-1.78c.75-.16.92-.31,1-.38a2.09,2.09,0,0,0-.06-.76c-1.91-9.16-2.13-18.63-2.35-27.8-.12-5.15-.25-10.47-.67-15.66-.4-4.91-1.15-10-3.93-13.91a15.73,15.73,0,0,0-11.4-6.41h0c-5.53-.47-14,2.84-15.89,9.1a4.19,4.19,0,0,0,2.39-1.52h0a1,1,0,0,1,1.38-.32,1,1,0,0,1,.44,1.08c.5.95,3.89,3.24,4.69,3.4l.5,0c2.38.14,4.44.26,6.38,2.89,1.49,2,1.28,4.79,1.15,6.62C290.55,113.8,289.38,129.23,287,144.29Zm-8.15-58.07Z" fill="#093f68"/><path d="M264.29,111c-.64.1-1.28.24-1.92.38a21,21,0,0,0-7.22,3.51c-2.66,2-4.52,5.4-3.65,8.6a3.14,3.14,0,0,0,.62,1.27,3.19,3.19,0,0,0,1.22.81,10.08,10.08,0,0,0,3.7.64,23.24,23.24,0,0,0,11-2.56c2-1,4-2.52,4.66-4.69,1.18-3.83-2.68-7.62-6.38-8A8.21,8.21,0,0,0,264.29,111Z" fill="#ffbc0e"/><path d="M257.47,127.25H257a11,11,0,0,1-4.07-.72,4.08,4.08,0,0,1-1.58-1.07,4.16,4.16,0,0,1-.84-1.67c-1-3.84,1.27-7.62,4-9.67a22.05,22.05,0,0,1,7.6-3.67c.61-.14,1.29-.3,2-.4a9,9,0,0,1,2.29-.07,9.1,9.1,0,0,1,6.33,3.94,6.32,6.32,0,0,1,.89,5.38c-.64,2.07-2.37,3.85-5.15,5.28A24.26,24.26,0,0,1,257.47,127.25Zm8.15-15.31a8.69,8.69,0,0,0-1.19.09h0c-.62.09-1.26.24-1.83.37a19.77,19.77,0,0,0-6.85,3.33c-2.14,1.59-4.08,4.62-3.29,7.54a1.8,1.8,0,0,0,1.26,1.42,9.07,9.07,0,0,0,3.34.56,22,22,0,0,0,10.53-2.45c2.29-1.17,3.69-2.55,4.16-4.09a4.34,4.34,0,0,0-.65-3.69,7.13,7.13,0,0,0-4.88-3A5.74,5.74,0,0,0,265.62,111.94Zm-1.33-.9h0Z" fill="#093f68"/><path d="M267.68,127.89s-1-6.26-2.44-8.65-3.59-3.69-4-2.19a4.66,4.66,0,0,0,0,2.59s-5.38-1.3-6.28,1.4,3.74,8.2,3.74,8.2Z" fill="#ffc9b0"/><path d="M258.71,130.24a1,1,0,0,1-.77-.36c-.83-1-4.94-6.09-3.92-9.16.85-2.54,4.11-2.54,6-2.3a6,6,0,0,1,.22-1.63,1.74,1.74,0,0,1,1.46-1.36c1.55-.21,3.34,1.57,4.35,3.31,1.48,2.52,2.53,8.72,2.57,9a1,1,0,0,1-.18.75,1,1,0,0,1-.66.4l-9,1.35Zm-.17-9.91c-1.21,0-2.36.24-2.62,1-.46,1.39,1.5,4.67,3.2,6.81l7.4-1.11c-.41-2.11-1.24-5.76-2.14-7.31a5.6,5.6,0,0,0-2.2-2.28,3.62,3.62,0,0,0,0,1.85,1,1,0,0,1-.21,1,1,1,0,0,1-1,.3A11.47,11.47,0,0,0,258.54,120.33Z" fill="#093f68"/><path d="M274,110.37a1.14,1.14,0,0,0-.89.1,1.45,1.45,0,0,0-.47,1.23,7.56,7.56,0,0,0,.53,3.5c.83,1.79,4.31,3.49,4.47.52C277.75,113.82,275.89,110.76,274,110.37Z" fill="#093f68"/></g></svg>