<svg xmlns="http://www.w3.org/2000/svg" viewBox="0 0 400 300"><g id="_426_lunch_outline" data-name="#426_lunch_outline"><path d="M278.55,74.88H121.45l-5.61,156.21a8.76,8.76,0,0,0,8.74,9.07H275.42a8.76,8.76,0,0,0,8.74-9.07Z" fill="#fff"/><path d="M275.42,241.16H124.58a9.74,9.74,0,0,1-9.74-10.11l5.61-156.21a1,1,0,0,1,1-1h157.1a1,1,0,0,1,1,1l5.61,156.21a9.74,9.74,0,0,1-9.74,10.11Zm-153-165.28-5.58,155.24a7.76,7.76,0,0,0,7.75,8H275.42a7.76,7.76,0,0,0,7.75-8L277.59,75.88Z" fill="#093f68"/><path d="M184.24,123.05c1.11,1.87,3.12.18,4.5-.46,2.56-1.19,4.92-1.77,7.64-.68,3.53,1.43,6.25,4.64,8.82,7.74,1.84-1.79,3.83-3.67,6.23-4,3.75-.45,6.94,3.08,8.95,6.7a2.49,2.49,0,0,0,1,1.17c.65.3,1.35-.13,2-.46a8.61,8.61,0,0,1,10.14,1.72A11.92,11.92,0,0,1,236,146.13c5.4-2,11.89,1.43,14.06,7.4a5.72,5.72,0,0,1,.43,2.41,7,7,0,0,1-.8,2.39l-2.83,5.95,1.71.89-4.13,10.08a2.26,2.26,0,0,0-.25,1.41,1.89,1.89,0,0,0,1.14,1.07c4.78,2.31,9.78,4.86,12.8,9.66.87,1.37,1.18,3.89-.27,4.22,1.76,1.17,2.49,3.79,2.15,6.08a12.59,12.59,0,0,1-2.94,6c-5.8,7.13-14.86,10-23.38,9.32s-16.6-4.5-24.17-9a102.17,102.17,0,0,1-24.43-19.76c-3.38-3.83-6.11-8.19-9.23-12.26-3.33-4.35-7.34-7.93-10.79-12.15-4.12-5.06-7.52-11.67-6.72-18.51.27-2.28,1-4.49,1-6.79,0-4.8-3-8.91-6.24-12-1.48-1.41-3.09-2.81-3.87-4.83a12.41,12.41,0,0,1-.48-5.44c.44-5.52,2.14-11.33,6.15-14.48A10,10,0,0,1,167,97.58c3.59,2.63,5.57,7.83,4.81,12.62a18,18,0,0,1,7.21,1.09,7.68,7.68,0,0,1,4.6,5.95c.17,1.62-.25,3.31.2,4.86A3.89,3.89,0,0,0,184.24,123.05Z" fill="#70cc40"/><path d="M236.18,214.11c-.84,0-1.68,0-2.52-.1-9.5-.75-18.14-5.28-24.61-9.14a102.14,102.14,0,0,1-24.67-20,95,95,0,0,1-6-7.78c-1.07-1.5-2.18-3-3.31-4.54a86.53,86.53,0,0,0-5.77-6.55c-1.68-1.78-3.41-3.61-5-5.57-3.67-4.5-7.85-11.49-6.94-19.25.11-.94.29-1.86.47-2.75a20.14,20.14,0,0,0,.53-3.93c0-3.69-2-7.49-5.93-11.27l-.42-.41a13.19,13.19,0,0,1-3.69-4.79,13.53,13.53,0,0,1-.55-5.88c.56-6.92,2.87-12.31,6.53-15.19a11,11,0,0,1,13.28-.23A14.46,14.46,0,0,1,173,109.22a16.73,16.73,0,0,1,6.49,1.16,8.67,8.67,0,0,1,5.19,6.76,13.94,13.94,0,0,1,0,2.14,8.37,8.37,0,0,0,.15,2.54,3.35,3.35,0,0,0,.29.72h0c.3.5.57.59,2.33-.39.31-.17.61-.34.89-.47,2.33-1.09,5.16-2,8.44-.69,3.49,1.41,6.17,4.38,8.52,7.19,1.63-1.55,3.61-3.19,6-3.48,3.54-.41,7.17,2.2,9.94,7.21a2.43,2.43,0,0,0,.53.74c.15.07.68-.21,1-.37l.13-.07a9.61,9.61,0,0,1,11.32,1.92,12.84,12.84,0,0,1,3.17,10.61,11.24,11.24,0,0,1,6.81.95,13.31,13.31,0,0,1,6.86,7.5,6.81,6.81,0,0,1,.49,2.83,8,8,0,0,1-.89,2.74l-2.43,5.08.86.44a1,1,0,0,1,.47,1.27l-4.14,10.08a1.77,1.77,0,0,0-.2.77c0,.15.45.35.61.43,5.42,2.62,10.16,5.19,13.21,10a5.38,5.38,0,0,1,.64,4.4,2.52,2.52,0,0,1-.21.4,7.87,7.87,0,0,1,1.59,6.18,13.36,13.36,0,0,1-3.15,6.5C252.83,210.55,244.84,214.11,236.18,214.11Zm-75-117.45a9,9,0,0,0-5.57,1.92c-4.33,3.4-5.47,10.09-5.76,13.77a11.79,11.79,0,0,0,.41,5,11.73,11.73,0,0,0,3.2,4l.44.41c4.37,4.18,6.57,8.47,6.54,12.73a21.73,21.73,0,0,1-.57,4.31c-.17.89-.34,1.73-.44,2.59-.83,7.07,3.07,13.56,6.5,17.76,1.55,1.9,3.25,3.71,4.9,5.46a83.77,83.77,0,0,1,5.91,6.71c1.15,1.51,2.27,3.07,3.35,4.59a94.82,94.82,0,0,0,5.83,7.62,100.17,100.17,0,0,0,24.2,19.56c6.28,3.75,14.65,8.15,23.73,8.87s17.39-2.64,22.53-9a11.54,11.54,0,0,0,2.72-5.53c.31-2.08-.42-4.23-1.72-5.1a1,1,0,0,1,.34-1.81s.08,0,.13-.15a3.44,3.44,0,0,0-.48-2.56c-2.77-4.39-7.25-6.8-12.39-9.29a2.82,2.82,0,0,1-1.67-1.71,3.19,3.19,0,0,1,.28-2l3.79-9.23-.9-.47a1,1,0,0,1-.45-1.32l2.84-5.95a6,6,0,0,0,.7-2,4.58,4.58,0,0,0-.37-2,11.32,11.32,0,0,0-5.83-6.38,9.09,9.09,0,0,0-7-.43,1,1,0,0,1-1-.21,1,1,0,0,1-.27-1,10.81,10.81,0,0,0-2.31-10.32,7.61,7.61,0,0,0-9-1.54l-.13.07a3,3,0,0,1-2.75.42,3.42,3.42,0,0,1-1.44-1.59c-1.11-2-4.13-6.67-7.95-6.19-2,.24-3.73,1.81-5.65,3.68a1,1,0,0,1-1.47-.08c-2.36-2.85-5.05-6.08-8.42-7.45-2.42-1-4.49-.44-6.84.65-.24.11-.5.26-.76.41-1.27.71-3.63,2-5-.34a4.93,4.93,0,0,1-.49-1.18,9.87,9.87,0,0,1-.23-3.18,11.38,11.38,0,0,0,0-1.85,6.65,6.65,0,0,0-4-5.14,17.2,17.2,0,0,0-6.81-1,1,1,0,0,1-.76-.36,1,1,0,0,1-.22-.8c.71-4.43-1.11-9.23-4.41-11.66A8.94,8.94,0,0,0,161.14,96.66Z" fill="#093f68"/><ellipse cx="229.9" cy="181.81" rx="25.14" ry="28.64" fill="#f56132"/><path d="M229.9,211.45c-14.42,0-26.14-13.3-26.14-29.64s11.72-29.64,26.14-29.64S256,165.47,256,181.81,244.31,211.45,229.9,211.45Zm0-57.28c-13.31,0-24.14,12.4-24.14,27.64s10.83,27.64,24.14,27.64S254,197.05,254,181.81,243.21,154.17,229.9,154.17Z" fill="#093f68"/><path d="M157.48,111l25.31-20.14L206.9,133s-5.22,4.11-2.81,7.78,7.63,0,7.63,0l27.75,44.69-42.61,13.43Z" fill="#ffbc0e"/><path d="M196.86,199.85a1,1,0,0,1-.92-.59l-39.37-87.87a1,1,0,0,1,.29-1.19l25.31-20.14a1,1,0,0,1,.81-.2,1,1,0,0,1,.68.48l24.11,42.11a1,1,0,0,1-.25,1.28s-4.47,3.6-2.6,6.45a2.43,2.43,0,0,0,1.62,1.12c1.68.32,3.9-.9,4.61-1.39a1,1,0,0,1,.77-.16,1,1,0,0,1,.65.45l27.74,44.69a1,1,0,0,1,.09.87,1,1,0,0,1-.63.61l-42.61,13.44A1,1,0,0,1,196.86,199.85Zm-38.15-88.57,38.69,86.35,40.54-12.78-26.55-42.76a8.32,8.32,0,0,1-5.22,1.17,4.4,4.4,0,0,1-2.92-2c-2.32-3.53.91-7.17,2.38-8.55L182.5,92.35Z" fill="#093f68"/><polygon points="272.6 218.93 146.18 218.93 146.18 91.08 272.6 218.93" fill="#68e1fd"/><path d="M272.6,219.93H146.18a1,1,0,0,1-1-1V91.08a1,1,0,0,1,1.71-.7L273.31,218.22a1,1,0,0,1,.22,1.09A1,1,0,0,1,272.6,219.93Zm-125.42-2h123l-123-124.42Z" fill="#093f68"/><path d="M169.13,178.8a1,1,0,0,1-.65-1.76l6.77-5.81a1,1,0,0,1,1.41.1,1,1,0,0,1-.1,1.42l-6.78,5.81A1,1,0,0,1,169.13,178.8Z" fill="#093f68"/><path d="M197,186.43h-7.5a1,1,0,0,1,0-2H197a1,1,0,0,1,0,2Z" fill="#093f68"/><path d="M169.13,145.85a1.26,1.26,0,0,1-.27,0l-8.57-2.44a1,1,0,0,1-.69-1.24,1,1,0,0,1,1.23-.69l8.58,2.44a1,1,0,0,1-.28,2Z" fill="#093f68"/><path d="M215.34,195.27a1,1,0,0,1-.74-.32,1,1,0,0,1,.06-1.41l6-5.5a1,1,0,0,1,1.35,1.48L216,195A1,1,0,0,1,215.34,195.27Z" fill="#093f68"/><path d="M198.47,160a1,1,0,0,1-.81-.42L190.82,150a1,1,0,0,1,.23-1.39,1,1,0,0,1,1.4.23l6.84,9.61a1,1,0,0,1-.24,1.4A1,1,0,0,1,198.47,160Z" fill="#093f68"/><path d="M175.1,200.06c-2.89,0-6.43-.13-8.42-.21a1,1,0,0,1-1-1,1,1,0,0,1,1-1c5.3.22,11.26.3,12.08.06a1,1,0,0,1,1.26.63,1,1,0,0,1-.57,1.25A20.59,20.59,0,0,1,175.1,200.06Z" fill="#093f68"/><rect x="121.61" y="59.84" width="156.78" height="15.04" fill="#fff"/><path d="M278.39,75.88H121.61a1,1,0,0,1-1-1v-15a1,1,0,0,1,1-1H278.39a1,1,0,0,1,1,1v15A1,1,0,0,1,278.39,75.88Zm-155.78-2H277.39v-13H122.61Z" fill="#093f68"/><path d="M280.05,67.59H120a1,1,0,0,1,0-2h160.1a1,1,0,0,1,0,2Z" fill="#093f68"/><path d="M230.74,111.49a1,1,0,0,1-.8-.41,1,1,0,0,1,.2-1.39l17.46-13a1,1,0,0,1,1.19,1.61l-17.46,13A1,1,0,0,1,230.74,111.49Z" fill="#dfeaef"/><path d="M251.4,118a1,1,0,0,1-.8-.4,1,1,0,0,1,.21-1.4l17.45-13a1,1,0,0,1,1.2,1.6l-17.46,13A1,1,0,0,1,251.4,118Z" fill="#dfeaef"/><path d="M127.32,184.94a1,1,0,0,1-.8-.39,1,1,0,0,1,.19-1.41l8-6.14a1,1,0,0,1,1.4.19,1,1,0,0,1-.18,1.4l-8,6.14A1,1,0,0,1,127.32,184.94Z" fill="#dfeaef"/><path d="M124.45,211.45a1,1,0,0,1-.8-.4,1,1,0,0,1,.19-1.4l13.76-10.53a1,1,0,0,1,1.4.18,1,1,0,0,1-.18,1.41l-13.76,10.53A1,1,0,0,1,124.45,211.45Z" fill="#dfeaef"/></g></svg>