<svg xmlns="http://www.w3.org/2000/svg" viewBox="0 0 400 300"><g id="_384_machu_pichu_outline" data-name="#384_machu_pichu_outline"><path d="M293.85,149.87V150a93.49,93.49,0,0,1-6,33.11A89.7,89.7,0,0,1,282.91,194c-.07.15-.15.29-.23.44a93.88,93.88,0,0,1-161.07,7.16,93.27,93.27,0,0,1-15.45-50.73c0-.29,0-.58,0-.87a93.85,93.85,0,0,1,187.7-.13Z" fill="#fff"/><path d="M200,244.85a94.93,94.93,0,0,1-79.23-42.7A95.91,95.91,0,0,1,113.5,189a94.36,94.36,0,0,1-8.34-38.09c0-.28,0-.58,0-.88a93.65,93.65,0,0,1,.64-11,94.85,94.85,0,0,1,189.06,10.91h0V150a94.53,94.53,0,0,1-6.08,33.46,91.27,91.27,0,0,1-5,11c0,.08-.1.21-.17.33l-.06.11a93.5,93.5,0,0,1-7.32,11.51,95.4,95.4,0,0,1-10,11.5A94.7,94.7,0,0,1,200,244.85Zm0-187.7a92.78,92.78,0,0,0-92.23,82,93.8,93.8,0,0,0-.62,10.8c0,.28,0,.56,0,.84a92.62,92.62,0,0,0,8.16,37.31,94.1,94.1,0,0,0,7.12,12.9A93,93,0,0,0,281.8,194l.06-.12c.05-.09.1-.18.14-.27a88.51,88.51,0,0,0,4.89-10.82,92.25,92.25,0,0,0,6-32.76v-.13A93,93,0,0,0,200,57.15Z" fill="#093f68"/><path d="M163.48,171a8.86,8.86,0,0,1-3.15,5.06q-1.25,1.13-2.58,2.19c-8.27,6.68-18.82,11.93-27.53,17.66l-8.61,5.68a93.27,93.27,0,0,1-15.45-50.73c0-.29,0-.58,0-.87a93.77,93.77,0,0,1,.63-10.92c1.23-.34,2.62-.49,4.31-.78a4.39,4.39,0,0,0,2.19-.79,4.27,4.27,0,0,0,1-1.54,190.34,190.34,0,0,0,8.32-21.9c1-3.14,2.48-6.87,5.73-7.35,2.53-.38,4.89,1.59,6,3.89,1.75,3.59,1.51,7.71,2.89,11.42,2,5.36,3.89,10.77,6.39,15.92s6.59,9,9.8,13.41a30.56,30.56,0,0,1,2.43,3.83C159.07,161.35,164.31,166.09,163.48,171Z" fill="#dfeaef"/><path d="M121.61,202.6a1,1,0,0,1-.83-.45,94.18,94.18,0,0,1-15.62-51.27c0-.28,0-.58,0-.88a93.65,93.65,0,0,1,.64-11,1,1,0,0,1,.72-.84,24.91,24.91,0,0,1,3-.57l1.44-.24a3.58,3.58,0,0,0,1.71-.56,3.69,3.69,0,0,0,.72-1.19,188.82,188.82,0,0,0,8.27-21.79c1.07-3.45,2.78-7.48,6.54-8,3.13-.47,5.86,2,7.06,4.44a23.22,23.22,0,0,1,1.77,6.54,26.91,26.91,0,0,0,1.16,5l.92,2.48c1.64,4.45,3.34,9,5.43,13.35a45.43,45.43,0,0,0,6.28,9c1.16,1.39,2.35,2.82,3.43,4.3a32.26,32.26,0,0,1,2.5,3.95,56.9,56.9,0,0,0,3.45,5.5c2.54,3.72,4.93,7.23,4.31,10.95a9.87,9.87,0,0,1-3.47,5.64c-.84.76-1.72,1.51-2.63,2.23-5.33,4.31-11.61,8-17.68,11.63-3.5,2.07-6.8,4-9.92,6.09l-8.61,5.68A1,1,0,0,1,121.61,202.6ZM107.7,139.89a91.09,91.09,0,0,0-.55,10.11c0,.28,0,.56,0,.84a91.9,91.9,0,0,0,14.74,49.37l7.77-5.13c3.16-2.08,6.64-4.14,10-6.13,6-3.56,12.22-7.24,17.45-11.47.88-.7,1.73-1.42,2.54-2.15a7.94,7.94,0,0,0,2.83-4.48h0c.5-2.92-1.58-6-4-9.49a57.84,57.84,0,0,1-3.56-5.69A30.79,30.79,0,0,0,152.6,152c-1-1.43-2.22-2.84-3.35-4.2a47.45,47.45,0,0,1-6.55-9.36c-2.14-4.4-3.85-9-5.51-13.53l-.92-2.48A29.09,29.09,0,0,1,135,117a21.68,21.68,0,0,0-1.6-6c-.89-1.84-2.82-3.66-5-3.34-2.66.39-4,3.76-4.92,6.65a192.19,192.19,0,0,1-8.37,22,5.19,5.19,0,0,1-1.23,1.88,5.33,5.33,0,0,1-2.69,1l-1.47.23C109,139.64,108.33,139.75,107.7,139.89Z" fill="#093f68"/><path d="M293.85,149.87V150a93.49,93.49,0,0,1-6,33.11A89.7,89.7,0,0,1,282.91,194v.44h-.23a94.4,94.4,0,0,1-31.35,34.13H148.67a93.68,93.68,0,0,1-39.52-54.95,46.08,46.08,0,0,1,11.21-3.56c7.79-1.46,16.33-1.05,23-5.41,4.74-3.11,7.62-8.08,10.09-13.29,1-2.1,1.94-4.25,2.91-6.32,3.36-7.21,8.44-14.78,16.29-16.11,4.24-.72,8.87.43,12.38-2.45,4.28-3.51,7.83-10.88,11.18-15.4l24-32.51c2.15-2.9,4.56-6,8.05-6.89,3.28-.85,6.83.52,9.39,2.74s4.33,5.21,6,8.16q7.28,12.72,13.74,25.89c3.34,6.82,4.88,14.1,10.15,19.74h0C275.37,136.6,285.52,142.15,293.85,149.87Z" fill="#dfeaef"/><path d="M251.33,229.57H148.67a1.1,1.1,0,0,1-.55-.16,95.27,95.27,0,0,1-27.35-27.26A95.91,95.91,0,0,1,113.5,189a94.37,94.37,0,0,1-5.32-15.1,1,1,0,0,1,.54-1.15,47.08,47.08,0,0,1,11.45-3.64c2.23-.42,4.54-.69,6.77-1,5.79-.68,11.26-1.31,15.82-4.32s7.41-8,9.74-12.88c.57-1.19,1.12-2.4,1.66-3.6.42-.91.83-1.82,1.25-2.71,4.69-10.08,10.26-15.53,17-16.68a30.48,30.48,0,0,1,4.24-.32c2.85-.08,5.54-.16,7.68-1.91,2.72-2.23,5.15-6.14,7.51-9.92,1.21-1.93,2.35-3.76,3.5-5.31l1.09-1.47q11.46-15.53,22.94-31c2-2.64,4.62-6.24,8.6-7.27,3.32-.86,7.17.24,10.3,3,2.61,2.29,4.43,5.29,6.22,8.43,4.8,8.39,9.43,17.12,13.77,25.94,1.05,2.16,1.94,4.37,2.79,6.51,1.9,4.75,3.69,9.24,7.19,13,4.36,4.67,9.56,8.53,14.59,12.26a135.45,135.45,0,0,1,11.68,9.35,1,1,0,0,1,.32.73V150a94.53,94.53,0,0,1-6.08,33.46,91.35,91.35,0,0,1-4.86,10.79v.19a1,1,0,0,1-.59.91,93.78,93.78,0,0,1-7.08,11.07,95.4,95.4,0,0,1-10,11.5,94.4,94.4,0,0,1-14.32,11.49A1.1,1.1,0,0,1,251.33,229.57Zm-102.36-2H251A93.62,93.62,0,0,0,281.8,194a.72.72,0,0,1,.14-.2,1.17,1.17,0,0,1,.09-.24,88.78,88.78,0,0,0,4.86-10.77,92.39,92.39,0,0,0,6-32.45,139.58,139.58,0,0,0-11.19-8.91c-5.1-3.79-10.37-7.71-14.85-12.5-3.77-4-5.71-8.9-7.6-13.62-.84-2.1-1.71-4.28-2.73-6.37-4.31-8.78-8.93-17.47-13.71-25.83-1.76-3.1-3.41-5.83-5.8-7.91-2.58-2.24-5.83-3.21-8.48-2.52-3.05.78-5.2,3.41-7.5,6.52q-11.46,15.49-22.93,31l-1.1,1.47c-1.09,1.49-2.21,3.28-3.4,5.18-2.44,3.92-5,8-7.95,10.4-2.66,2.19-5.82,2.28-8.89,2.37a28.69,28.69,0,0,0-3.95.3c-6.07,1-11.16,6.11-15.55,15.54-.42.89-.83,1.79-1.24,2.69-.55,1.22-1.1,2.44-1.68,3.64-2.44,5.16-5.4,10.39-10.44,13.7s-10.92,3.95-16.69,4.63c-2.19.25-4.47.52-6.63.92a46.28,46.28,0,0,0-10.21,3.14,91.78,91.78,0,0,0,12.11,26.87A93.57,93.57,0,0,0,149,227.57ZM282.91,194h0Z" fill="#093f68"/><rect x="180.59" y="144.38" width="56.64" height="50.07" fill="#68e1fd"/><path d="M237.23,195.44H180.59a1,1,0,0,1-1-1V144.38a1,1,0,0,1,1-1h56.64a1,1,0,0,1,1,1v50.06A1,1,0,0,1,237.23,195.44Zm-55.64-2h54.64V145.38H181.59Z" fill="#093f68"/><polygon points="279.2 163.09 279.2 194.44 210.42 194.44 210.42 163.09 242.45 163.09 242.45 170.08 249.45 170.08 249.45 163.09 258.13 163.09 258.13 170.08 265.13 170.08 265.13 163.09 279.2 163.09" fill="#68e1fd"/><path d="M279.2,195.44H210.42a1,1,0,0,1-1-1V163.08a1,1,0,0,1,1-1h32a1,1,0,0,1,1,1v6h5v-6a1,1,0,0,1,1-1h8.68a1,1,0,0,1,1,1v6h5v-6a1,1,0,0,1,1-1H279.2a1,1,0,0,1,1,1v31.36A1,1,0,0,1,279.2,195.44Zm-67.78-2H278.2V164.08H266.13v6a1,1,0,0,1-1,1h-7a1,1,0,0,1-1-1v-6h-6.68v6a1,1,0,0,1-1,1h-7a1,1,0,0,1-1-1v-6h-30Z" fill="#093f68"/><polygon points="213.29 171.01 213.29 194.44 157.75 194.44 157.75 171.01 167.99 171.01 167.99 179.11 174.73 179.11 174.73 171.01 182.15 171.01 182.15 179.11 188.9 179.11 188.9 171.01 196.3 171.01 196.3 179.11 203.05 179.11 203.05 171.01 213.29 171.01" fill="#68e1fd"/><path d="M213.29,195.44H157.75a1,1,0,0,1-1-1V171a1,1,0,0,1,1-1H168a1,1,0,0,1,1,1v7.1h4.74V171a1,1,0,0,1,1-1h7.42a1,1,0,0,1,1,1v7.1h4.75V171a1,1,0,0,1,1-1h7.4a1,1,0,0,1,1,1v7.1h4.75V171a1,1,0,0,1,1-1h10.24a1,1,0,0,1,1,1v23.43A1,1,0,0,1,213.29,195.44Zm-54.54-2h53.54V172h-8.24v7.1a1,1,0,0,1-1,1H196.3a1,1,0,0,1-1-1V172h-5.4v7.1a1,1,0,0,1-1,1h-6.75a1,1,0,0,1-1-1V172h-5.42v7.1a1,1,0,0,1-1,1H168a1,1,0,0,1-1-1V172h-8.24Z" fill="#093f68"/><path d="M282.68,194.44a92.81,92.81,0,0,1-7.24,11.38H148.23V194.44Z" fill="#68e1fd"/><path d="M275.44,206.82H148.23a1,1,0,0,1-1-1V194.44a1,1,0,0,1,1-1H282.68a1,1,0,0,1,.88,1.47,93.5,93.5,0,0,1-7.32,11.51A1,1,0,0,1,275.44,206.82Zm-126.21-2H274.94a93.85,93.85,0,0,0,6.05-9.38H149.23Z" fill="#093f68"/><path d="M275.44,205.82a92.82,92.82,0,0,1-9.94,11.38H139.77V205.82Z" fill="#68e1fd"/><path d="M265.5,218.2H139.77a1,1,0,0,1-1-1V205.82a1,1,0,0,1,1-1H275.44a1,1,0,0,1,.8,1.59,94.73,94.73,0,0,1-10,11.51A1,1,0,0,1,265.5,218.2Zm-124.73-2H265.09a91.75,91.75,0,0,0,8.34-9.38H140.77Z" fill="#093f68"/><path d="M265.5,217.2a93,93,0,0,1-14.17,11.37H148.67A93,93,0,0,1,134.5,217.2Z" fill="#68e1fd"/><path d="M251.33,229.57H148.67a1.1,1.1,0,0,1-.55-.16,94.4,94.4,0,0,1-14.32-11.49,1,1,0,0,1,.7-1.72h131a1,1,0,0,1,.7,1.72,94.4,94.4,0,0,1-14.32,11.49A1.1,1.1,0,0,1,251.33,229.57Zm-102.36-2H251a92.13,92.13,0,0,0,12-9.37H137A92.13,92.13,0,0,0,149,227.57Z" fill="#093f68"/><rect x="192.26" y="194.44" width="54.76" height="11.38" fill="#70cc40"/><path d="M247,206.82H192.26a1,1,0,0,1-1-1V194.44a1,1,0,0,1,1-1H247a1,1,0,0,1,1,1v11.38A1,1,0,0,1,247,206.82Zm-53.76-2H246v-9.38H193.26Z" fill="#093f68"/><rect x="179.36" y="205.82" width="57.87" height="11.38" fill="#70cc40"/><path d="M237.23,218.2H179.36a1,1,0,0,1-1-1V205.82a1,1,0,0,1,1-1h57.87a1,1,0,0,1,1,1V217.2A1,1,0,0,1,237.23,218.2Zm-56.87-2h55.87v-9.38H180.36Z" fill="#093f68"/><rect x="163.57" y="217.2" width="61.18" height="11.38" fill="#70cc40"/><path d="M224.75,229.57H163.57a1,1,0,0,1-1-1V217.2a1,1,0,0,1,1-1h61.18a1,1,0,0,1,1,1v11.37A1,1,0,0,1,224.75,229.57Zm-60.18-2h59.18V218.2H164.57Z" fill="#093f68"/><rect x="223.4" y="187.53" width="13.83" height="6.91" fill="#68e1fd"/><path d="M237.23,195.44H223.4a1,1,0,0,1-1-1v-6.91a1,1,0,0,1,1-1h13.83a1,1,0,0,1,1,1v6.91A1,1,0,0,1,237.23,195.44Zm-12.83-2h11.83v-4.91H224.4Z" fill="#093f68"/><rect x="255.77" y="187.53" width="13.83" height="6.91" fill="#68e1fd"/><path d="M269.59,195.44H255.77a1,1,0,0,1-1-1v-6.91a1,1,0,0,1,1-1h13.82a1,1,0,0,1,1,1v6.91A1,1,0,0,1,269.59,195.44Zm-12.82-2h11.82v-4.91H256.77Z" fill="#093f68"/><polygon points="224.75 194.44 201.83 194.44 201.83 185 213.29 179.1 224.75 185 224.75 194.44" fill="#68e1fd"/><path d="M224.75,195.44H201.83a1,1,0,0,1-1-1V185a1,1,0,0,1,.54-.89l11.46-5.9a1,1,0,0,1,.92,0l11.46,5.9a1,1,0,0,1,.54.89v9.44A1,1,0,0,1,224.75,195.44Zm-21.92-2h20.92v-7.83l-10.46-5.38-10.46,5.38Z" fill="#093f68"/><rect x="210.43" y="186.77" width="5.73" height="7.67" fill="#68e1fd"/><path d="M216.16,195.44h-5.74a1,1,0,0,1-1-1v-7.67a1,1,0,0,1,1-1h5.74a1,1,0,0,1,1,1v7.67A1,1,0,0,1,216.16,195.44Zm-4.74-2h3.74v-5.67h-3.74Z" fill="#093f68"/><polygon points="256.78 194.44 233.85 194.44 233.85 185 245.32 179.1 256.78 185 256.78 194.44" fill="#68e1fd"/><path d="M256.78,195.44H233.86a1,1,0,0,1-1-1V185a1,1,0,0,1,.54-.89l11.46-5.9a1,1,0,0,1,.92,0l11.46,5.9a1,1,0,0,1,.54.89v9.44A1,1,0,0,1,256.78,195.44Zm-21.92-2h20.92v-7.83l-10.46-5.38-10.46,5.38Z" fill="#093f68"/><rect x="242.45" y="186.77" width="5.73" height="7.67" fill="#68e1fd"/><path d="M248.18,195.44h-5.73a1,1,0,0,1-1-1v-7.67a1,1,0,0,1,1-1h5.73a1,1,0,0,1,1,1v7.67A1,1,0,0,1,248.18,195.44Zm-4.73-2h3.73v-5.67h-3.73Z" fill="#093f68"/><path d="M287.83,183.11A89.7,89.7,0,0,1,282.91,194v.44H268.58V185l10.62-5.47.84-.43Z" fill="#68e1fd"/><path d="M282.91,195.44H268.58a1,1,0,0,1-1-1V185a1,1,0,0,1,.54-.89l11.46-5.9a1,1,0,0,1,.92,0l7.79,4a1,1,0,0,1,.48,1.24,91.35,91.35,0,0,1-4.86,10.79v.19A1,1,0,0,1,282.91,195.44Zm0-1.44h0Zm-13.33-.56h12.5a89,89,0,0,0,4.5-9.85L280,180.22l-10.46,5.39Z" fill="#093f68"/><rect x="277.18" y="186.77" width="5.73" height="7.67" fill="#68e1fd"/><path d="M282.91,195.44h-5.73a1,1,0,0,1-1-1v-7.67a1,1,0,0,1,1-1h5.73a1,1,0,0,1,1,1v7.67A1,1,0,0,1,282.91,195.44Zm-4.73-2h3.73v-5.67h-3.73Z" fill="#093f68"/><rect x="189.69" y="150.95" width="5.18" height="5.18" fill="#68e1fd"/><path d="M194.88,157.13h-5.19a1,1,0,0,1-1-1V151a1,1,0,0,1,1-1h5.19a1,1,0,0,1,1,1v5.18A1,1,0,0,1,194.88,157.13Zm-4.19-2h3.19V152h-3.19Z" fill="#093f68"/><rect x="203.73" y="150.95" width="5.18" height="5.18" fill="#68e1fd"/><path d="M208.91,157.13h-5.18a1,1,0,0,1-1-1V151a1,1,0,0,1,1-1h5.18a1,1,0,0,1,1,1v5.18A1,1,0,0,1,208.91,157.13Zm-4.18-2h3.18V152h-3.18Z" fill="#093f68"/><rect x="217.76" y="150.95" width="5.18" height="5.18" fill="#68e1fd"/><path d="M222.94,157.13h-5.18a1,1,0,0,1-1-1V151a1,1,0,0,1,1-1h5.18a1,1,0,0,1,1,1v5.18A1,1,0,0,1,222.94,157.13Zm-4.18-2h3.18V152h-3.18Z" fill="#093f68"/><path d="M279.2,154.54a1,1,0,0,1-1-1c0-9.1-11.36-24.58-11.47-24.74a1,1,0,0,1,.21-1.39,1,1,0,0,1,1.4.21c.48.65,11.86,16.16,11.86,25.92A1,1,0,0,1,279.2,154.54Z" fill="#093f68"/><path d="M106.16,151.87a1,1,0,0,1-.41-.09,1,1,0,0,1-.5-1.32A127.34,127.34,0,0,1,112.43,137a1,1,0,0,1,1.7,1.06,122,122,0,0,0-7.06,13.24A1,1,0,0,1,106.16,151.87Z" fill="#093f68"/><path d="M141.4,154.54a1,1,0,0,1-.93-.62l-3.71-9.17a1,1,0,0,1,1.86-.75l3.71,9.17a1,1,0,0,1-.56,1.3A1,1,0,0,1,141.4,154.54Z" fill="#093f68"/><path d="M114.41,189.56a1,1,0,0,1-.91-.58,1,1,0,0,1,.49-1.33c2.4-1.11,4.23-1.79,4.3-1.82a1,1,0,1,1,.7,1.88s-1.84.68-4.16,1.76A1,1,0,0,1,114.41,189.56Z" fill="#093f68"/><path d="M218.42,92a157,157,0,0,0-17.57,24.94" fill="#68e1fd"/><path d="M200.85,117.89a1,1,0,0,1-.49-.13,1,1,0,0,1-.38-1.36,157.88,157.88,0,0,1,17.68-25.1,1,1,0,0,1,1.52,1.3,156.17,156.17,0,0,0-17.46,24.79A1,1,0,0,1,200.85,117.89Z" fill="#093f68"/><path d="M205,128.41a69.53,69.53,0,0,1,10-13.91" fill="#68e1fd"/><path d="M205,129.41a1,1,0,0,1-.48-.12,1,1,0,0,1-.4-1.36,70.71,70.71,0,0,1,10.14-14.11,1,1,0,0,1,1.47,1.36,68.48,68.48,0,0,0-9.85,13.71A1,1,0,0,1,205,129.41Z" fill="#093f68"/><path d="M251.33,228.57a93.86,93.86,0,0,1-102.66,0Z" fill="#70cc40"/><path d="M200,244.85a94.47,94.47,0,0,1-51.88-15.44,1,1,0,0,1,.55-1.84H251.33a1,1,0,0,1,.55,1.84A94.47,94.47,0,0,1,200,244.85Zm-47.86-15.28a92.88,92.88,0,0,0,95.72,0Z" fill="#093f68"/><path d="M183.46,102.56h-34.4c-4,0-7.24-2.62-7.24-5.83A5.9,5.9,0,0,1,146,91.44c.81-4.23,5.44-7.45,10.88-7.45a13,13,0,0,1,5.73,1.28,8.94,8.94,0,0,1,7.73-3.93c4.14,0,7.64,2.38,8.4,5.56a8.48,8.48,0,0,1,7.14,4.33c2.86.81,4.81,3,4.81,5.5C190.69,99.94,187.45,102.56,183.46,102.56ZM156.88,86c-4.7,0-8.65,2.76-9,6.29a1,1,0,0,1-.72.87c-2,.58-3.36,2-3.36,3.58,0,2.11,2.35,3.83,5.24,3.83h34.4c2.88,0,5.23-1.72,5.23-3.83,0-1.68-1.54-3.19-3.74-3.68a1,1,0,0,1-.72-.62c-.8-2.1-3.4-3.56-6.32-3.56a1,1,0,0,1-1-.93c-.19-2.58-3.07-4.6-6.55-4.6-3,0-5.58,1.5-6.34,3.64a1,1,0,0,1-1.46.52A10.86,10.86,0,0,0,156.88,86Z" fill="#dfeaef"/><path d="M158.09,92.35a1,1,0,0,1-.76-1.65c5.86-6.83,12.18-2.16,12.24-2.12a1,1,0,0,1-1.21,1.6c-.21-.16-4.9-3.54-9.51,1.82A1,1,0,0,1,158.09,92.35Z" fill="#dfeaef"/></g></svg>