<svg xmlns="http://www.w3.org/2000/svg" viewBox="0 0 400 300"><g id="_77_marketing_outline" data-name="#77_marketing_outline"><rect x="149.97" y="80.38" width="93.85" height="153.1" rx="10.19" fill="#68e1fd"/><path d="M233.63,234.49H160.16A11.2,11.2,0,0,1,149,223.3V90.57a11.2,11.2,0,0,1,11.19-11.19h73.47a11.21,11.21,0,0,1,11.2,11.19V223.3A11.21,11.21,0,0,1,233.63,234.49ZM160.16,81.38A9.21,9.21,0,0,0,151,90.57V223.3a9.21,9.21,0,0,0,9.19,9.19h73.47a9.21,9.21,0,0,0,9.2-9.19V90.57a9.21,9.21,0,0,0-9.2-9.19Z" fill="#093f68"/><rect x="149.97" y="93.15" width="93.85" height="117.19" fill="#fff"/><path d="M243.83,211.34H150a1,1,0,0,1-1-1V93.15a1,1,0,0,1,1-1h93.86a1,1,0,0,1,1,1V210.34A1,1,0,0,1,243.83,211.34Zm-92.86-2h91.86V94.15H151Z" fill="#093f68"/><path d="M206.76,88H191.68a1,1,0,0,1,0-2h15.08a1,1,0,0,1,0,2Z" fill="#093f68"/><path d="M187,88a1,1,0,0,1-.71-.29,1,1,0,0,1-.22-1.09,1,1,0,0,1,.22-.33,1,1,0,0,1,.32-.21,1,1,0,0,1,.58-.06.6.6,0,0,1,.19.06.56.56,0,0,1,.17.09.44.44,0,0,1,.15.12.83.83,0,0,1,.22.33A1,1,0,0,1,187,88Z" fill="#093f68"/><circle cx="196.9" cy="221.47" r="4.82" fill="#093f68"/><rect x="125.8" y="165.29" width="41.04" height="31.15" rx="3.33" fill="#f56132"/><path d="M163.51,197.44H129.13a4.34,4.34,0,0,1-4.33-4.33V168.62a4.34,4.34,0,0,1,4.33-4.33h34.38a4.34,4.34,0,0,1,4.33,4.33v24.49A4.33,4.33,0,0,1,163.51,197.44Zm-34.38-31.15a2.34,2.34,0,0,0-2.33,2.33v24.49a2.33,2.33,0,0,0,2.33,2.33h34.38a2.33,2.33,0,0,0,2.33-2.33V168.62a2.33,2.33,0,0,0-2.33-2.33Z" fill="#093f68"/><polygon points="155.06 180.87 140.44 189.85 140.44 171.88 155.06 180.87" fill="#fff"/><path d="M140.44,190.85a1,1,0,0,1-1-1v-18A1,1,0,0,1,141,171l14.62,9a1,1,0,0,1,.47.85,1,1,0,0,1-.47.85l-14.62,9A1.1,1.1,0,0,1,140.44,190.85Zm1-17.18v14.4l11.71-7.2Z" fill="#093f68"/><path d="M258.23,179H234.77a2.41,2.41,0,0,0-2.41,2.41v15.92a2.41,2.41,0,0,0,2.41,2.41h3.12v5.33l4.2-5.33h16.14a2.41,2.41,0,0,0,2.41-2.41V181.45A2.41,2.41,0,0,0,258.23,179Z" fill="#fff"/><path d="M237.89,206.11a1,1,0,0,1-.33-.06,1,1,0,0,1-.67-.94v-4.33h-2.12a3.41,3.41,0,0,1-3.41-3.41V181.45a3.41,3.41,0,0,1,3.41-3.41h23.46a3.41,3.41,0,0,1,3.41,3.41v15.92a3.41,3.41,0,0,1-3.41,3.41H242.58l-3.9,4.95A1,1,0,0,1,237.89,206.11ZM234.77,180a1.41,1.41,0,0,0-1.41,1.41v15.92a1.41,1.41,0,0,0,1.41,1.41h3.12a1,1,0,0,1,1,1v2.44l2.42-3.06a1,1,0,0,1,.78-.38h16.14a1.41,1.41,0,0,0,1.41-1.41V181.45a1.41,1.41,0,0,0-1.41-1.41Z" fill="#093f68"/><path d="M254.72,187H238.29a1,1,0,1,1,0-2h16.43a1,1,0,1,1,0,2Z" fill="#dfeaef"/><path d="M250.27,192.9h-12a1,1,0,0,1,0-2h12a1,1,0,0,1,0,2Z" fill="#dfeaef"/><rect x="237.34" y="137.31" width="35.08" height="27.41" rx="3.39" fill="#ffbc0e"/><path d="M269,165.72h-28.3a4.39,4.39,0,0,1-4.39-4.38V140.7a4.4,4.4,0,0,1,4.39-4.39H269a4.4,4.4,0,0,1,4.39,4.39v20.64A4.39,4.39,0,0,1,269,165.72Zm-28.3-27.41a2.39,2.39,0,0,0-2.39,2.39v20.64a2.39,2.39,0,0,0,2.39,2.38H269a2.39,2.39,0,0,0,2.39-2.38V140.7a2.39,2.39,0,0,0-2.39-2.39Z" fill="#093f68"/><g id="SBwUh1"><path d="M259.88,152.8v-5.52c0-.49-.24-.68-.72-.54-.65.19-1.29.39-1.94.6l-2.76.86c-.73.23-1.46.44-2.17.69a1.71,1.71,0,0,0-.56.35.89.89,0,0,0-.27.71c0,2.19,0,4.37,0,6.55a3.08,3.08,0,0,1-1.53,2.83,4,4,0,0,1-3.45.47,2.09,2.09,0,0,1-1.32-3,3.69,3.69,0,0,1,1.89-1.78,4.43,4.43,0,0,1,1.93-.4,2.64,2.64,0,0,1,1.09.23v-.2c0-2.6,0-5.2,0-7.8a2.53,2.53,0,0,1,1.77-2.4c1.64-.49,3.28-1,4.91-1.5l2.67-.81a1.65,1.65,0,0,1,1,0,1.14,1.14,0,0,1,.85.95c0,.13,0,.27,0,.4q0,5.58,0,11.17a2.85,2.85,0,0,1-1,2.22,4.21,4.21,0,0,1-3.22,1,2.83,2.83,0,0,1-1.72-.7,1.94,1.94,0,0,1-.65-1.85,2.89,2.89,0,0,1,1.19-1.88,4.19,4.19,0,0,1,3.09-.87,6.53,6.53,0,0,1,.85.2Z" fill="#fff"/></g><path d="M213.56,136.72c-8.22-4.27-31.88,18.86-33.33,25.9-.83,4-3.11,28.33-2.79,47.54h38.87l-3.23-28.25s15.79-14,18.37-21.52S221.77,141,213.56,136.72Z" fill="#ffc9b0"/><path d="M216.31,211.16H177.44a1,1,0,0,1-1-1c-.32-19.2,1.95-43.61,2.81-47.76,1.37-6.68,17-21.35,25.78-25.53,3.82-1.82,6.85-2.18,9-1.06h0c7.76,4,21.28,16.48,18.38,24.89-2.44,7.06-15.75,19.32-18.27,21.59l3.18,27.74a1,1,0,0,1-.25.78A1,1,0,0,1,216.31,211.16Zm-37.89-2h36.77L212.09,182a1,1,0,0,1,.32-.86c.16-.14,15.63-13.95,18.1-21.09,2.24-6.49-9-18.1-17.41-22.46h0c-1.54-.8-4-.43-7.21,1.09-10.28,4.88-23.7,19.35-24.68,24.13C180.38,166.85,178.2,190.26,178.42,209.16Z" fill="#093f68"/><polygon points="231.23 171.3 219 179.06 185.35 142.57 197.59 134.81 231.23 171.3" fill="#093f68"/><path d="M219,180.06a1,1,0,0,1-.74-.32l-33.64-36.5a1,1,0,0,1-.26-.8,1,1,0,0,1,.46-.72L197.05,134a1,1,0,0,1,1.27.16L232,170.63a1,1,0,0,1,.26.8,1,1,0,0,1-.46.72l-12.23,7.75A.94.94,0,0,1,219,180.06Zm-32.1-37.29,32.26,35,10.52-6.67-32.26-35Z" fill="#093f68"/><path d="M249.18,92.15l-23,18.63L213.86,91.32l26.66-12.84a8.15,8.15,0,0,1,10.41,3h0A8.15,8.15,0,0,1,249.18,92.15Z" fill="#093f68"/><path d="M226.19,111.78l-.16,0a1,1,0,0,1-.68-.45L213,91.85a1,1,0,0,1-.12-.81,1,1,0,0,1,.53-.62l26.66-12.84a9.14,9.14,0,0,1,9.72,15.34h0l-23,18.63A1,1,0,0,1,226.19,111.78Zm-10.88-20,11.13,17.56,22.11-17.92h0a7.14,7.14,0,0,0-7.59-12Zm33.87.42h0Z" fill="#093f68"/><polygon points="261.14 120.52 216.47 130.3 192.06 91.78 219.96 55.56 261.14 120.52" fill="#fff"/><path d="M216.48,131.3a1,1,0,0,1-.85-.47L191.22,92.31a1,1,0,0,1,.05-1.14L219.17,55a1,1,0,0,1,.84-.39,1,1,0,0,1,.8.47L262,120a1,1,0,0,1-.63,1.51l-44.66,9.77Zm-23.2-39.47L217,129.17l42.58-9.32L219.88,57.3Z" fill="#093f68"/><path d="M169.74,104.77h39.36a0,0,0,0,1,0,0v45.89a0,0,0,0,1,0,0H169.74a22.94,22.94,0,0,1-22.94-22.94v0a22.94,22.94,0,0,1,22.94-22.94Z" transform="translate(-40.72 115.11) rotate(-32.37)" fill="#68e1fd"/><path d="M171.06,156.05a23.94,23.94,0,0,1-12.86-44.16l.54.84-.54-.84,33.25-21.08a1,1,0,0,1,1.38.31l24.57,38.76a1,1,0,0,1,.13.75,1,1,0,0,1-.44.63l-33.25,21.07A23.77,23.77,0,0,1,171.06,156.05Zm20.62-63-32.41,20.54a21.94,21.94,0,1,0,23.5,37.06l32.4-20.53Z" fill="#093f68"/><path d="M185.69,154.32s8.49-12.57,15.44-7.66,20.51,17.75,14.86,19.57c-8.86,2.87-16.83-8.37-16.83-8.37s6,12-1.35,17.46" fill="#ffc9b0"/><path d="M197.81,176.33a1,1,0,0,1-.8-.41,1,1,0,0,1,.2-1.4c6.56-4.88,1.11-16.1,1-16.21a1,1,0,0,1,1.71-1c.08.11,7.66,10.6,15.71,8,.58-.19.62-.45.64-.6.46-3-9.21-12.57-15.76-17.2a5,5,0,0,0-3.93-.86c-5.1.93-10.06,8.18-10.11,8.26a1,1,0,0,1-1.66-1.12c.22-.33,5.48-8,11.41-9.11a6.93,6.93,0,0,1,5.44,1.2c4.51,3.19,17.36,14.09,16.59,19.14a2.7,2.7,0,0,1-2,2.19c-5.83,1.89-11.17-1.69-14.48-4.83,1.06,4.24,1.4,10.2-3.42,13.78A1,1,0,0,1,197.81,176.33Z" fill="#093f68"/><path d="M171.61,151.08a1,1,0,0,1-.55-1.84l14.09-9.17a1,1,0,1,1,1.09,1.67l-14.09,9.18A1,1,0,0,1,171.61,151.08Z" fill="#093f68"/><path d="M167.08,144.56a1,1,0,0,1-.84-.46,1,1,0,0,1,.29-1.38l14.08-9.18a1,1,0,0,1,1.39.3,1,1,0,0,1-.29,1.38l-14.09,9.18A1,1,0,0,1,167.08,144.56Z" fill="#093f68"/><rect x="132.58" y="72.08" width="35.39" height="25.61" rx="3.43" fill="#70cc40"/><path d="M164.54,98.69H136a4.43,4.43,0,0,1-4.43-4.43V75.52A4.44,4.44,0,0,1,136,71.08h28.53A4.44,4.44,0,0,1,169,75.52V94.26A4.43,4.43,0,0,1,164.54,98.69ZM136,73.08a2.43,2.43,0,0,0-2.43,2.44V94.26A2.43,2.43,0,0,0,136,96.69h28.53A2.43,2.43,0,0,0,167,94.26V75.52a2.43,2.43,0,0,0-2.43-2.44Z" fill="#093f68"/><path d="M132.58,92.79a1,1,0,0,1-.75-.34,1,1,0,0,1,.09-1.41L145.4,79.23a1,1,0,0,1,1.37,0l11.78,11.81a1,1,0,0,1-1.42,1.42L146,81.35,133.24,92.54A1,1,0,0,1,132.58,92.79Z" fill="#093f68"/><path d="M168,89.73a1,1,0,0,1-.7-.29l-6.2-6.07L155.36,89a1,1,0,0,1-1.4-1.43l6.41-6.28a1,1,0,0,1,1.4,0l6.9,6.77a1,1,0,0,1,0,1.41A1,1,0,0,1,168,89.73Z" fill="#093f68"/><circle cx="154.66" cy="78.09" r="2.51" fill="#70cc40"/><path d="M154.66,81.6a3.51,3.51,0,1,1,3.51-3.51A3.51,3.51,0,0,1,154.66,81.6Zm0-5a1.51,1.51,0,1,0,1.51,1.51A1.52,1.52,0,0,0,154.66,76.58Z" fill="#093f68"/><path d="M240.78,60.59a1,1,0,0,1-.9-1.45l6.55-13.08a1,1,0,0,1,1.79.9L241.67,60A1,1,0,0,1,240.78,60.59Z" fill="#dfeaef"/><path d="M278.2,104.29h-.08l-14.45-1.14a1,1,0,0,1,.16-2l14.45,1.15a1,1,0,0,1,.91,1.08A1,1,0,0,1,278.2,104.29Z" fill="#dfeaef"/><path d="M258.93,77.68a1,1,0,0,1-.5-1.87l9.18-5.28a1,1,0,0,1,1,1.74l-9.17,5.27A1,1,0,0,1,258.93,77.68Z" fill="#dfeaef"/></g></svg>