<svg xmlns="http://www.w3.org/2000/svg" viewBox="0 0 400 300"><g id="_187_marketing_outline" data-name="#187_marketing_outline"><path d="M175,214.32H158.76c0-1.83-1-9,1.08-9.29a8.09,8.09,0,0,1,1.83.16,7.67,7.67,0,0,0,4.68-1.57,16.81,16.81,0,0,1,4.38-2.43C177.33,199.33,175,210.54,175,214.32Z" fill="#ffc9b0"/><path d="M175,215.32H158.76a1,1,0,0,1-1-1c0-.35,0-.89-.08-1.54-.26-3.73-.59-8.37,2-8.74a5.39,5.39,0,0,1,1.53.08,5.15,5.15,0,0,0,.53.07,6.74,6.74,0,0,0,4-1.41c.26-.16.51-.34.77-.51a14,14,0,0,1,3.88-2,4.21,4.21,0,0,1,4,.57c2.44,2,2,7.18,1.7,11-.08,1-.15,1.92-.15,2.56A1,1,0,0,1,175,215.32Zm-15.29-2H174c0-.52.08-1.09.13-1.72.24-3,.65-7.92-1-9.26-.18-.15-.73-.6-2.19-.18a11.85,11.85,0,0,0-3.31,1.77l-.8.53a8.64,8.64,0,0,1-5.31,1.73l-.66-.09A3.61,3.61,0,0,0,160,206c-.47.37-.59,2.6-.31,6.62C159.69,212.88,159.7,213.11,159.72,213.32Z" fill="#093f68"/><path d="M171.95,194.35h0a2.18,2.18,0,0,1,2.18,2.18v15.63a0,0,0,0,1,0,0h-4.36a0,0,0,0,1,0,0V196.53A2.18,2.18,0,0,1,171.95,194.35Z" fill="#ffc9b0"/><path d="M174.13,213.16h-4.36a1,1,0,0,1-1-1V196.53a3.18,3.18,0,1,1,6.36,0v15.63A1,1,0,0,1,174.13,213.16Zm-3.36-2h2.36V196.53a1.18,1.18,0,1,0-2.36,0Z" fill="#093f68"/><path d="M142.37,84.76a27.1,27.1,0,0,1,9-2.4c11-.91,23.88,5.62,27.07,16.53,3.69,12.63,2.81,26.17.43,38.94-1.79,9.61-4.44,19.15-9.1,27.74s-11.47,16.21-20.14,20.7c-14.4,7.46-32.57,5.3-46.45-3.09-4-2.41-7.76-5.38-10.16-9.36s-3.23-9.12-1.26-13.33a26.89,26.89,0,0,1,3.29-4.85,69,69,0,0,0,13.62-33.17c.83-6.65.73-13.59,3.44-19.73s8.67-10.44,15.43-9.25c1.56.27,1.77,1.49,3.36,1,.79-.26,2.48-3.24,3.19-4A28,28,0,0,1,142.37,84.76Z" fill="#725858"/><path d="M130.16,191.79A53.57,53.57,0,0,1,102.71,184c-5-3-8.33-6.1-10.5-9.7-2.78-4.6-3.28-10.08-1.32-14.28a24.59,24.59,0,0,1,2.91-4.39l.5-.64a67.62,67.62,0,0,0,13.41-32.68c.21-1.65.36-3.35.51-5,.45-5,.92-10.26,3-15,3.12-7.07,9.76-11,16.51-9.84a4.47,4.47,0,0,1,1.8.78c.48.31.6.39,1.07.23a17.38,17.38,0,0,0,1.59-2.09,13,13,0,0,1,1.21-1.62,28.94,28.94,0,0,1,8.54-6h0a27.85,27.85,0,0,1,9.37-2.49c10.83-.88,24.67,5.45,28.11,17.25,3.2,11,3.35,23.84.45,39.41-2.13,11.48-5.06,20.39-9.21,28-5.17,9.52-12.28,16.82-20.55,21.11A43.41,43.41,0,0,1,130.16,191.79ZM125.38,94.3c-5.11,0-9.89,3.36-12.31,8.85-2,4.44-2.42,9.5-2.86,14.38-.15,1.66-.3,3.38-.51,5.07a69.69,69.69,0,0,1-13.81,33.65l-.51.65a21.68,21.68,0,0,0-2.67,4c-1.69,3.61-1.23,8.36,1.21,12.4,2,3.31,5.12,6.17,9.82,9,14.41,8.71,32.26,9.91,45.47,3.06,7.92-4.1,14.74-11.12,19.72-20.29,4-7.45,6.9-16.17,9-27.44,2.83-15.26,2.7-27.84-.41-38.48-3.16-10.83-16-16.65-26-15.81a25.92,25.92,0,0,0-8.71,2.3,27.27,27.27,0,0,0-7.95,5.55,15.17,15.17,0,0,0-1,1.34c-1.21,1.76-1.86,2.62-2.6,2.86a2.89,2.89,0,0,1-2.79-.46,2.81,2.81,0,0,0-1.05-.48A12.74,12.74,0,0,0,125.38,94.3Z" fill="#093f68"/><path d="M135.31,163.9h17.23a12.34,12.34,0,0,1,12.34,12.34v41.48a0,0,0,0,1,0,0H123a0,0,0,0,1,0,0V176.24A12.34,12.34,0,0,1,135.31,163.9Z" fill="#68e1fd"/><path d="M164.88,218.72H123a1,1,0,0,1-1-1V176.24a13.35,13.35,0,0,1,13.34-13.34h17.23a13.36,13.36,0,0,1,13.34,13.34v41.48A1,1,0,0,1,164.88,218.72Zm-40.91-2h39.91V176.24a11.36,11.36,0,0,0-11.34-11.34H135.31A11.35,11.35,0,0,0,124,176.24Z" fill="#093f68"/><rect x="143.93" y="167.21" width="9.68" height="50.51" fill="#fff"/><path d="M153.6,218.72h-9.67a1,1,0,0,1-1-1V167.21a1,1,0,0,1,1-1h9.67a1,1,0,0,1,1,1v50.51A1,1,0,0,1,153.6,218.72Zm-8.67-2h7.67V168.21h-7.67Z" fill="#093f68"/><path d="M143.92,161.53h9.68a0,0,0,0,1,0,0v5.57a4.11,4.11,0,0,1-4.11,4.11H148a4.11,4.11,0,0,1-4.11-4.11v-5.57A0,0,0,0,1,143.92,161.53Z" fill="#ffc9b0"/><path d="M149.49,172.21H148a5.11,5.11,0,0,1-5.11-5.11v-5.57a1,1,0,0,1,1-1h9.68a1,1,0,0,1,1,1v5.57A5.11,5.11,0,0,1,149.49,172.21Zm-4.57-9.68v4.57a3.11,3.11,0,0,0,3.11,3.11h1.46a3.11,3.11,0,0,0,3.11-3.11v-4.57Z" fill="#093f68"/><ellipse cx="173.83" cy="140.69" rx="7.25" ry="8.11" fill="#ffc9b0"/><path d="M173.83,149.8c-4.55,0-8.25-4.09-8.25-9.11s3.7-9.1,8.25-9.1,8.26,4.08,8.26,9.1S178.38,149.8,173.83,149.8Zm0-16.21c-3.45,0-6.25,3.18-6.25,7.1s2.8,7.11,6.25,7.11,6.26-3.19,6.26-7.11S177.28,133.59,173.83,133.59Z" fill="#093f68"/><path d="M148.46,167.11c-15.92,0-30.17-19.64-30.17-35.31l3.79,1.43L122,122.15s20-5.26,17.32-14.54c0,0,5.85,7,14.26,6.93,15.45,0,21.5-4.13,21.5-4.13v28.33C175,154.41,164.38,167.11,148.46,167.11Z" fill="#ffc9b0"/><path d="M148.46,168.11c-16.49,0-31.17-20.31-31.17-36.31a1,1,0,0,1,.44-.83,1,1,0,0,1,.92-.11l2.41.92-.11-9.62a1,1,0,0,1,.74-1c.13,0,12.75-3.42,16.06-9.24a5.06,5.06,0,0,0,.56-4.06A1,1,0,0,1,140,107c.06.07,5.66,6.58,13.46,6.58h0c14.88,0,20.9-3.92,20.95-4a1,1,0,0,1,1.56.83v28.33C176,155.76,164.44,168.11,148.46,168.11Zm-29.13-34.85c.84,17.55,16.62,32.85,29.13,32.85,14.82,0,25.57-11.51,25.57-27.37V112.07c-2.71,1.24-9.1,3.44-20.5,3.47h0c-5.92,0-10.57-3.2-13-5.36a7.85,7.85,0,0,1-1,2.76c-3.26,5.71-13.62,9.1-16.53,10l.12,10.32a1,1,0,0,1-.43.83,1,1,0,0,1-.92.12Z" fill="#093f68"/><ellipse cx="145.17" cy="134.04" rx="2.63" ry="2.62" fill="#093f68"/><circle cx="168.28" cy="135.19" r="2.63" fill="#093f68"/><path d="M157.7,142.59a17,17,0,0,1-2.59-.21,1,1,0,1,1,.34-2,13,13,0,0,0,3.7.07c0-.88-.93-3.53-2.21-6a1,1,0,0,1,.43-1.35,1,1,0,0,1,1.35.42c.93,1.79,3,6.14,2.23,7.89a1.58,1.58,0,0,1-1.07.9A8.88,8.88,0,0,1,157.7,142.59Z" fill="#093f68"/><path d="M148.61,128.14l-.37,0-12.11-2.23a2,2,0,1,1,.72-3.93L149,124.17a2,2,0,0,1-.36,4Z" fill="#093f68"/><path d="M160.45,128.36a2,2,0,0,1-.42-4l12.24-2.66a2,2,0,1,1,.85,3.91l-12.24,2.66A2.1,2.1,0,0,1,160.45,128.36Z" fill="#093f68"/><path d="M124,133.8s-6.93-4.8-10.66,1.38-.14,16.7,11.32,13.63" fill="#ffc9b0"/><path d="M120.76,150.37a9.4,9.4,0,0,1-7.83-3.68,11,11,0,0,1-.45-12,7.06,7.06,0,0,1,4.59-3.48c3.7-.79,7.34,1.69,7.5,1.8a1,1,0,0,1-1.14,1.64s-3.1-2.09-6-1.48a5.06,5.06,0,0,0-3.29,2.56,9.07,9.07,0,0,0,.34,9.79c2,2.68,5.53,3.52,9.88,2.36a1,1,0,0,1,1.22.7,1,1,0,0,1-.71,1.23A15.86,15.86,0,0,1,120.76,150.37Z" fill="#093f68"/><path d="M159.53,147.44l-9.15-.14s-2.23,10.63,3.4,11.76S159.53,147.44,159.53,147.44Z" fill="#093f68"/><path d="M154.46,160.13a4.46,4.46,0,0,1-.88-.09,4.91,4.91,0,0,1-3.23-2.2c-2.4-3.64-1-10.46-.95-10.74a1,1,0,0,1,1-.8l9.16.15a1,1,0,0,1,1,1c0,.91-.18,9-3.54,11.76A4,4,0,0,1,154.46,160.13Zm-3.25-11.82c-.33,2.17-.6,6.3.81,8.43a3,3,0,0,0,2,1.34,2,2,0,0,0,1.75-.42c2-1.58,2.62-6.53,2.77-9.23Z" fill="#093f68"/><path d="M173.84,154.8h5.23a0,0,0,0,1,0,0v14.76a2.61,2.61,0,0,1-2.61,2.61h0a2.61,2.61,0,0,1-2.61-2.61V154.8A0,0,0,0,1,173.84,154.8Z" transform="translate(-34.75 48.35) rotate(-14.22)" fill="#68e1fd"/><path d="M177.94,173a3.61,3.61,0,0,1-3.5-2.73L170.81,156a1.05,1.05,0,0,1,.11-.76,1,1,0,0,1,.62-.46l5.06-1.28a1,1,0,0,1,1.22.72l3.62,14.31a3.62,3.62,0,0,1-2.61,4.39h0A3.94,3.94,0,0,1,177.94,173Zm.64-1.08h0ZM173,156.43l3.38,13.34a1.62,1.62,0,0,0,2,1.17h0a1.61,1.61,0,0,0,1.16-2l-3.38-13.34Z" fill="#093f68"/><path d="M205.37,164.51,169,157.66a6.6,6.6,0,0,1-5.59-5.81l0-.5a6.58,6.58,0,0,1,4.69-6.55l35-12Z" fill="#68e1fd"/><path d="M205.37,165.51l-.19,0-36.39-6.85a7.62,7.62,0,0,1-6.4-6.72l0-.49a7.61,7.61,0,0,1,5.37-7.57l35-12a1,1,0,0,1,.88.11,1,1,0,0,1,.44.76l2.28,31.7a1,1,0,0,1-.33.82A1,1,0,0,1,205.37,165.51Zm-3.19-31.33-33.8,11.57a5.63,5.63,0,0,0-4,5.53l0,.5a5.63,5.63,0,0,0,4.77,4.9l35.12,6.61Z" fill="#093f68"/><rect x="204.22" y="130.19" width="5.06" height="36.58" rx="2.4" transform="translate(-10.12 15.21) rotate(-4.11)" fill="#68e1fd"/><path d="M207.75,167.74a3.39,3.39,0,0,1-3.38-3.15l-2.28-31.71a3.31,3.31,0,0,1,.82-2.46,3.38,3.38,0,0,1,2.33-1.17l.25,0a3.36,3.36,0,0,1,2.47.82,3.4,3.4,0,0,1,1.17,2.33l2.28,31.7a3.43,3.43,0,0,1-.82,2.47,3.39,3.39,0,0,1-2.33,1.16h0l-.26,0Zm.44-1h0Zm-2.45-35.49h-.1l-.26,0a1.38,1.38,0,0,0-1,.47,1.47,1.47,0,0,0-.34,1l2.28,31.7a1.4,1.4,0,0,0,1.5,1.3l.26,0a1.44,1.44,0,0,0,1-.48,1.4,1.4,0,0,0,.33-1l-2.28-31.7a1.4,1.4,0,0,0-1.39-1.3Z" fill="#093f68"/><path d="M217.25,137.55a1,1,0,0,1-.45-1.9l7.6-3.73a1,1,0,0,1,.88,1.79l-7.59,3.73A1,1,0,0,1,217.25,137.55Z" fill="#dfeaef"/><path d="M226.63,158.73a1.12,1.12,0,0,1-.31,0l-8-2.61a1,1,0,0,1,.62-1.9l8.05,2.61a1,1,0,0,1-.31,1.95Z" fill="#dfeaef"/><path d="M217.91,146.83a1,1,0,0,1-.07-2l7.82-.57a1,1,0,0,1,.14,2l-7.81.56Z" fill="#dfeaef"/><path d="M178.67,172.32c-1.11.09-5.29,22.21-21.55,25.35-20.45,3.94-30.65-21.11-31-23.57a8,8,0,0,1,15.81-2.47c.89,5.59,7.39,17.8,16,13.44,6.5-3.31,12.37-22.72,14.45-24.14s10.26-2.34,12.09-.4C185.47,161.67,188.74,171.51,178.67,172.32Z" fill="#ffc9b0"/><path d="M152.81,199.09a22.76,22.76,0,0,1-13.27-4.38c-9.35-6.58-14.13-18.42-14.44-20.46a9,9,0,0,1,17.78-2.77c.6,3.78,3.9,10.5,8.3,12.74a6.52,6.52,0,0,0,6.21,0c3.92-2,7.92-11.05,10.56-17,1.91-4.31,2.86-6.41,3.79-7,2.33-1.6,11-2.72,13.38-.26.92,1,2.46,5.27,1.12,8.78-.72,1.87-2.53,4.16-7.05,4.65-.19.41-.48,1.22-.77,2-2.31,6.23-7.72,20.8-21.11,23.39A24,24,0,0,1,152.81,199.09ZM134,165.87a8.09,8.09,0,0,0-1.08.08,7,7,0,0,0-5.84,8c.16,1,4.43,12.65,13.62,19.12a20.6,20.6,0,0,0,16.24,3.62c12.29-2.38,17.42-16.21,19.61-22.12.93-2.5,1.18-3.18,2.05-3.25h0c3-.24,5-1.37,5.75-3.35a8.57,8.57,0,0,0-.68-6.76c-1.31-1.39-8.85-.79-10.79.54-.54.43-1.89,3.5-3.09,6.2-2.92,6.62-6.93,15.69-11.48,18a8.52,8.52,0,0,1-8,0c-5.27-2.69-8.71-10.07-9.37-14.21A7,7,0,0,0,134,165.87Zm44.76,7.45Zm-.08-1h0Z" fill="#093f68"/><path d="M178.89,164.5a1,1,0,0,1-.08-2l6.41-.53a1,1,0,1,1,.16,2l-6.4.53Z" fill="#093f68"/><path d="M180.1,168.21a1,1,0,0,1-.14-2l5.62-.84a1,1,0,0,1,1.13.84,1,1,0,0,1-.84,1.14l-5.62.84Z" fill="#093f68"/><path d="M181.12,206.68a8.29,8.29,0,0,0-1.32-3.52c-.43-.62-1-1.32-1.69-1.41a12.38,12.38,0,0,0-1.49.06H171a1.75,1.75,0,0,0,0,3.45,1.75,1.75,0,0,0,0,3.45,1.75,1.75,0,0,0,0,3.45,1.75,1.75,0,0,0,0,3.45c3.18,0,7,1,9.06-2.47a9.65,9.65,0,0,0,1.22-5.13A10,10,0,0,0,181.12,206.68Z" fill="#ffc9b0"/><path d="M174.55,216.74c-.64,0-1.27,0-1.87-.07s-1.16-.06-1.72-.06a2.63,2.63,0,0,1-2.48-2.73,2.88,2.88,0,0,1,.56-1.72,2.94,2.94,0,0,1,0-3.45,2.94,2.94,0,0,1,0-3.45,2.89,2.89,0,0,1-.56-1.73,2.62,2.62,0,0,1,2.48-2.72h5.66l.49,0a4.71,4.71,0,0,1,1.13,0,3.77,3.77,0,0,1,2.38,1.82,9.38,9.38,0,0,1,1.49,4,11.49,11.49,0,0,1,.12,1.45,10.56,10.56,0,0,1-1.36,5.66C179.28,216.28,176.85,216.74,174.55,216.74ZM171,213.16c-.22,0-.48.29-.48.72s.26.73.48.73c.6,0,1.21,0,1.84.06,2.66.15,4.95.28,6.36-2a8.77,8.77,0,0,0,1.08-4.59,9.73,9.73,0,0,0-.11-1.2h0a7.4,7.4,0,0,0-1.15-3.1c-.59-.85-.9-1-1-1a3.33,3.33,0,0,0-.68,0c-.24,0-.47,0-.68,0H171c-.22,0-.48.3-.48.72s.26.73.48.73a1,1,0,1,1,0,2c-.22,0-.48.3-.48.72s.26.73.48.73a1,1,0,0,1,0,2c-.22,0-.48.3-.48.72s.26.73.48.73a1,1,0,0,1,0,2Z" fill="#093f68"/><path d="M176.38,213.16H171a1,1,0,0,1,0-2h5.42a1,1,0,0,1,0,2Z" fill="#093f68"/><path d="M176,209.71H171a1,1,0,0,1,0-2H176a1,1,0,0,1,0,2Z" fill="#093f68"/><path d="M176.38,206.26H171a1,1,0,0,1,0-2h5.42a1,1,0,0,1,0,2Z" fill="#093f68"/><path d="M309.3,218.72H110.42a1,1,0,1,1,0-2H309.3a1,1,0,0,1,0,2Z" fill="#093f68"/><rect x="221.04" y="199.42" width="18.3" height="18.3" fill="#f56132"/><path d="M239.34,218.72H221a1,1,0,0,1-1-1v-18.3a1,1,0,0,1,1-1h18.3a1,1,0,0,1,1,1v18.3A1,1,0,0,1,239.34,218.72Zm-17.3-2h16.3v-16.3H222Z" fill="#093f68"/><rect x="249.02" y="167.21" width="18.3" height="50.51" fill="#ffbc0e"/><path d="M267.32,218.72H249a1,1,0,0,1-1-1V167.21a1,1,0,0,1,1-1h18.3a1,1,0,0,1,1,1v50.51A1,1,0,0,1,267.32,218.72Zm-17.3-2h16.3V168.21H250Z" fill="#093f68"/><rect x="277" y="143.57" width="18.3" height="74.15" fill="#70cc40"/><path d="M295.3,218.72H277a1,1,0,0,1-1-1V143.57a1,1,0,0,1,1-1h18.3a1,1,0,0,1,1,1v74.15A1,1,0,0,1,295.3,218.72Zm-17.3-2h16.3V144.57H278Z" fill="#093f68"/><path d="M223.83,181.12a1,1,0,0,1-.72-1.69l59.5-61.53a1,1,0,0,1,1.43,1.39l-59.49,61.53A1,1,0,0,1,223.83,181.12Z" fill="#093f68"/><path d="M280.47,133l-.21,0a1,1,0,0,1-.77-1.19L282,120l-13.36,3.33a1,1,0,1,1-.48-1.93l14.91-3.73a1,1,0,0,1,1.22,1.17l-2.85,13.42A1,1,0,0,1,280.47,133Z" fill="#093f68"/></g></svg>