<svg xmlns="http://www.w3.org/2000/svg" viewBox="0 0 400 300"><g id="_355_marketing_outline" data-name="#355_marketing_outline"><path d="M155.6,55.67A27,27,0,0,0,130.45,67.2a14.69,14.69,0,0,0-2.5,5.88c-.52,3.45.75,6.88,1.77,10.22,1.33,4.36,2.24,9,1,13.43s-5.1,8.31-9.65,8.22a15.56,15.56,0,0,0,19.37-.92c3.05-2.83,5.47-7.2,9.62-7.45a16.38,16.38,0,0,1,4.72.87,18.67,18.67,0,0,0,17.58-5.27C185.68,78,172.22,57.69,155.6,55.67Z" fill="#725858"/><path d="M130.16,108.87a16,16,0,0,1-9.67-3.12,1,1,0,0,1-.33-1.13,1,1,0,0,1,1-.67c4.29.12,7.65-3.79,8.67-7.49,1.22-4.42.09-9.2-1-12.87l-.34-1.12c-1-3.07-2-6.25-1.46-9.54a15.44,15.44,0,0,1,2.66-6.29,28,28,0,0,1,26.1-12h0A27.53,27.53,0,0,1,177.48,72a19.88,19.88,0,0,1-22.9,26.4c-.38-.09-.75-.19-1.13-.3a10.59,10.59,0,0,0-3.3-.54c-2.61.15-4.53,2.31-6.55,4.59-.78.88-1.59,1.79-2.45,2.59A16.23,16.23,0,0,1,130.16,108.87ZM124,105.54a14.69,14.69,0,0,0,15.81-2.24c.79-.74,1.53-1.57,2.32-2.46,2.2-2.48,4.48-5,7.92-5.26a12.18,12.18,0,0,1,3.94.61c.36.1.72.2,1.08.28A17.88,17.88,0,0,0,175.6,72.7a25.46,25.46,0,0,0-20.13-16,26,26,0,0,0-24.19,11.09,13.55,13.55,0,0,0-2.34,5.48c-.43,2.83.49,5.79,1.38,8.65l.36,1.13c1.19,3.93,2.39,9.07,1,14C130.7,100.66,127.85,104.33,124,105.54Z" fill="#093f68"/><path d="M152.57,86.07a16.37,16.37,0,0,0-.44,9.59c1,3.1,3.5,5.81,6.63,6.17,2.94.35,5.74-1.33,8.12-3.15a55.34,55.34,0,0,0,8.78-8.33c4.81-5.68,10.92-20.32-1-21.86C164.93,67.23,155.31,77.3,152.57,86.07Z" fill="#ffbc0e"/><path d="M159.54,102.88c-.3,0-.59,0-.9,0-3.32-.39-6.32-3.16-7.47-6.88a17.18,17.18,0,0,1,.44-10.18h0c3-9.67,13.3-19.55,23.18-18.28,4.58.6,6.43,3,7.18,4.94,2.18,5.62-2,14.4-5.55,18.56a56.44,56.44,0,0,1-8.93,8.49C165.37,101.09,162.6,102.88,159.54,102.88Zm-6-16.51a15.21,15.21,0,0,0-.44,9c.9,2.93,3.29,5.19,5.8,5.48,2.7.32,5.37-1.41,7.4-3a55.15,55.15,0,0,0,8.62-8.19c3.34-3.94,7-11.89,5.2-16.55-.8-2.06-2.67-3.3-5.57-3.67-7.14-.93-17.53,5.78-21,16.89Z" fill="#093f68"/><path d="M251.23,215l-21,19.43v11.39H166v-26.5l-10,10.28L142.38,198l26.91-22.54.12-.1A9.9,9.9,0,0,1,176,172.9H220.2C229.76,175.39,251.23,215,251.23,215Z" fill="#68e1fd"/><path d="M230.18,246.86H166a1,1,0,0,1-1-1v-24l-8.32,8.52a1,1,0,0,1-1.64-.3l-13.6-31.62a1,1,0,0,1,.28-1.16l26.91-22.54.16-.13A10.83,10.83,0,0,1,176,171.9H220.2a1,1,0,0,1,.25,0c9.87,2.57,30.77,41,31.66,42.63a1,1,0,0,1-.2,1.22l-20.73,19.13v11A1,1,0,0,1,230.18,246.86Zm-63.16-2h62.16V234.47a1,1,0,0,1,.32-.74L250,214.83c-6.2-11.33-22.52-38.76-29.92-40.93H176a8.88,8.88,0,0,0-5.92,2.24l-.09.07-26.39,22.11,12.72,29.55,9-9.21a1,1,0,0,1,1.72.7Z" fill="#093f68"/><polygon points="215.6 172.89 209.03 188.72 198.1 215.04 187.18 188.72 180.6 172.89 215.6 172.89" fill="#ffc9b0"/><path d="M198.1,216a1,1,0,0,1-.92-.62l-17.5-42.14a1,1,0,0,1,.92-1.39h35a1,1,0,0,1,.83.45,1,1,0,0,1,.09.94L199,215.42A1,1,0,0,1,198.1,216Zm-16-42.15,16,38.54,16-38.54Z" fill="#093f68"/><polygon points="209.03 188.72 198.1 215.04 187.18 188.72 209.03 188.72" fill="#093f68"/><path d="M198.1,216a1,1,0,0,1-.92-.62l-10.93-26.31a1,1,0,0,1,.93-1.39H209a1,1,0,0,1,.83.45,1,1,0,0,1,.09.94L199,215.42A1,1,0,0,1,198.1,216Zm-9.43-26.32,9.43,22.71,9.43-22.71Z" fill="#093f68"/><path d="M197.79,216a1,1,0,0,1-.62-.21l-21.59-17.05a1,1,0,0,1-.21-1.36l5.1-7.36-8.61-2.85a1,1,0,0,1-.63-.61,1,1,0,0,1,.09-.86l8.11-13.37a1,1,0,0,1,1.38-.33,1,1,0,0,1,.33,1.37l-7.46,12.29,8.69,2.88a1,1,0,0,1,.63.64,1,1,0,0,1-.13.88l-5.32,7.69,20.86,16.47a1,1,0,0,1,.16,1.4A1,1,0,0,1,197.79,216Z" fill="#093f68"/><path d="M198.42,216a1,1,0,0,1-.62-1.78l20.85-16.47-5.32-7.69a1,1,0,0,1-.12-.88,1,1,0,0,1,.63-.64l8.69-2.88-7.47-12.29a1,1,0,0,1,1.71-1l8.12,13.37a1,1,0,0,1,.08.86,1,1,0,0,1-.62.61l-8.61,2.85,5.09,7.36a1,1,0,0,1-.2,1.36L199,215.83A1,1,0,0,1,198.42,216Z" fill="#093f68"/><path d="M168.85,190s-6.13,5.21-6.13,15.23A26.86,26.86,0,0,0,168.85,222" fill="#68e1fd"/><path d="M168.85,223a1,1,0,0,1-.74-.33,27.61,27.61,0,0,1-6.39-17.43c0-10.37,6.22-15.77,6.48-16a1,1,0,0,1,1.3,1.53,19.9,19.9,0,0,0-5.78,14.47,26.11,26.11,0,0,0,5.87,16.09,1,1,0,0,1-.07,1.41A1,1,0,0,1,168.85,223Z" fill="#093f68"/><path d="M226.69,190s6.13,5.21,6.13,15.23A26.86,26.86,0,0,1,226.69,222" fill="#68e1fd"/><path d="M226.69,223a1,1,0,0,1-.67-.26,1,1,0,0,1-.07-1.41,26.11,26.11,0,0,0,5.87-16.09A19.9,19.9,0,0,0,226,190.78a1,1,0,0,1-.11-1.41,1,1,0,0,1,1.41-.12c.26.23,6.48,5.63,6.48,16a27.61,27.61,0,0,1-6.39,17.43A1,1,0,0,1,226.69,223Z" fill="#093f68"/><path d="M152.51,107.89a61.43,61.43,0,0,1,3.8-19.55A26.58,26.58,0,0,1,163.11,78a21.45,21.45,0,0,1,5.17-3.41c.86-.41,5.56-1.29,5.85-1.83,5.78-10.56,20.64-13.13,30.29-10.56C218.33,65.84,231.67,74,238,87.37c2.92,6.1,6,14,5.13,20.76a52.53,52.53,0,0,1-9.9,25c-5.81,7.67-17.81,17.42-28.21,15.38-5.15-1-10.19-2.63-15.44-3.57a64.73,64.73,0,0,1-18.86-6c-7.95-4.19-14.81-11.14-17.12-19.83A40.49,40.49,0,0,1,152.51,107.89Z" fill="#725858"/><path d="M207.92,149.77a16.09,16.09,0,0,1-3-.29c-2.43-.48-4.87-1.1-7.22-1.69-2.67-.68-5.44-1.38-8.21-1.88-7.81-1.4-13.89-3.34-19.15-6.11-9-4.75-15.42-12.2-17.62-20.46a41,41,0,0,1-1.16-11.47h0A62.54,62.54,0,0,1,155.38,88a27.37,27.37,0,0,1,7.06-10.77,22.5,22.5,0,0,1,5.41-3.58,18.71,18.71,0,0,1,2.45-.71,25.74,25.74,0,0,0,3-.87c3.53-6.29,9.65-9.18,14.19-10.5a32.87,32.87,0,0,1,17.14-.37c9.4,2.5,26.34,9.17,34.27,25.76,2.69,5.64,6.16,14,5.21,21.31a53.34,53.34,0,0,1-10.09,25.47,49.45,49.45,0,0,1-12.65,11.58C216.69,148.25,212.09,149.77,207.92,149.77Zm-54.41-41.85a39.29,39.29,0,0,0,1.1,10.91c2,7.72,8.1,14.71,16.62,19.2,5.06,2.67,11,4.55,18.57,5.92,2.84.51,5.63,1.21,8.34,1.9,2.33.59,4.74,1.2,7.11,1.66,10.13,2,21.83-7.88,27.23-15a51.36,51.36,0,0,0,9.7-24.51c.88-6.81-2.45-14.79-5-20.2-7.57-15.87-23.91-22.28-33-24.68-9.93-2.64-23.9.46-29.15,10.07-.35.64-1.17.91-4.22,1.67-.82.21-1.84.47-2.09.58a20.33,20.33,0,0,0-4.92,3.26,25.42,25.42,0,0,0-6.53,10,60.06,60.06,0,0,0-3.74,19.22Z" fill="#093f68"/><polyline points="191.75 175.39 191.75 168.08 204.45 168.08 204.45 175.39" fill="#ffc9b0"/><path d="M204.45,176.39a1,1,0,0,1-1-1v-6.31h-10.7v6.31a1,1,0,0,1-2,0v-7.31a1,1,0,0,1,1-1h12.7a1,1,0,0,1,1,1v7.31A1,1,0,0,1,204.45,176.39Z" fill="#093f68"/><ellipse cx="161.78" cy="135.07" rx="12.35" ry="10.64" fill="#ffc9b0"/><path d="M161.78,146.71c-7.35,0-13.34-5.22-13.34-11.64s6-11.63,13.34-11.63,13.35,5.22,13.35,11.63S169.14,146.71,161.78,146.71Zm0-21.27c-6.25,0-11.34,4.32-11.34,9.63s5.09,9.64,11.34,9.64,11.35-4.32,11.35-9.64S168,125.44,161.78,125.44Z" fill="#093f68"/><ellipse cx="233.76" cy="135.07" rx="12.35" ry="10.64" fill="#ffc9b0"/><path d="M233.76,146.71c-7.36,0-13.35-5.22-13.35-11.64s6-11.63,13.35-11.63,13.34,5.22,13.34,11.63S241.11,146.71,233.76,146.71Zm0-21.27c-6.26,0-11.35,4.32-11.35,9.63s5.09,9.64,11.35,9.64,11.34-4.32,11.34-9.64S240,125.44,233.76,125.44Z" fill="#093f68"/><path d="M228.46,111.23c2.43,3.21,5,6.5,6.25,10.12,1.2,3.46.62,7.53.62,11.17A37.24,37.24,0,0,1,164.23,148c-6-13-4.81-32.32,8.1-40.85,5.75-3.79,12.56-5.58,18.77-8.55s12.26-7.7,13.8-14.41c1.64,8.94-4.34,17.31-10,24.44a34.85,34.85,0,0,0,24.58-17,41.54,41.54,0,0,0,6.1,15.63C226.45,108.58,227.44,109.9,228.46,111.23Z" fill="#ffc9b0"/><path d="M198.09,170.75a38.33,38.33,0,0,1-34.77-22.33c-6.17-13.48-4.69-33.41,8.46-42.09a63.56,63.56,0,0,1,12-5.7c2.3-.91,4.68-1.85,6.93-2.92,5.18-2.46,11.68-6.85,13.25-13.73a1,1,0,0,1,1-.78,1,1,0,0,1,1,.82c1.54,8.39-3.28,16.25-8.52,23.12a34.17,34.17,0,0,0,21.27-16,1,1,0,0,1,1.85.32,40.79,40.79,0,0,0,6,15.25c.84,1.3,1.81,2.59,2.81,3.91l.33.43c2.38,3.12,4.84,6.36,6.08,10,1,2.8.85,5.86.74,8.82,0,.91-.07,1.81-.07,2.68A38.28,38.28,0,0,1,198.09,170.75Zm6-81.77c-2.91,5.07-8.17,8.45-12.55,10.54-2.31,1.1-4.72,2-7.06,3A61.56,61.56,0,0,0,172.88,108c-12.27,8.1-13.57,26.86-7.74,39.59a36.24,36.24,0,0,0,69.19-15.07c0-.9,0-1.82.07-2.75.1-2.78.21-5.65-.63-8.1-1.14-3.3-3.5-6.4-5.78-9.4l-.33-.43h0c-1-1.35-2-2.68-2.9-4A42.7,42.7,0,0,1,219,94.31a36.17,36.17,0,0,1-23.94,15.32,1,1,0,0,1-1-.48,1,1,0,0,1,.08-1.13C198.67,102.3,203.36,95.78,204.08,89Z" fill="#093f68"/><circle cx="183.02" cy="127.56" r="3.35" fill="#093f68"/><circle cx="213.18" cy="127.56" r="3.35" fill="#093f68"/><path d="M198.47,142.84a28.41,28.41,0,0,1-3.51-.22,1,1,0,0,1-.87-1.12,1,1,0,0,1,1.12-.86,22.61,22.61,0,0,0,5.87,0c.28-1-1.11-5.11-3.07-9a1,1,0,0,1,.45-1.34,1,1,0,0,1,1.34.44c1,2,4.11,8.57,3.06,10.84a1.75,1.75,0,0,1-1.16,1A13.88,13.88,0,0,1,198.47,142.84Z" fill="#093f68"/><path d="M190.35,116.71l-.25,0-16.25-2a2,2,0,1,1,.49-4l16.26,2a2,2,0,0,1-.25,4Z" fill="#093f68"/><path d="M205.85,116.71a2,2,0,0,1-.25-4l16.26-2a2,2,0,1,1,.49,4l-16.25,2Z" fill="#093f68"/><path d="M252.13,184s-6.54-3.73-10.56,4.86c-3.31,7.07-8,31.12-10.61,45.4a10.66,10.66,0,0,0,9,12.46h0A10.67,10.67,0,0,0,252.08,237L254,211.9s9.08-6.22,7.78-14.45S260.54,182,252.13,184Z" fill="#ffc9b0"/><path d="M241.49,247.86a12.15,12.15,0,0,1-1.7-.12A11.68,11.68,0,0,1,230,234.11c2.55-14,7.32-38.43,10.69-45.64,1.48-3.14,3.45-5.13,5.88-5.9a8.14,8.14,0,0,1,5.71.41c2.54-.56,4.51-.33,6,.7,2.79,1.89,3.38,6,4.05,10.87.13.9.26,1.82.41,2.75,1.23,7.82-6,13.78-7.81,15.14l-1.84,24.62a11.67,11.67,0,0,1-11.59,10.8Zm7.3-63.63a5.36,5.36,0,0,0-1.67.26c-1.86.6-3.42,2.22-4.65,4.83-3.27,7-8,31.29-10.53,45.15a9.66,9.66,0,1,0,19.14,2.44L253,211.83a1,1,0,0,1,.43-.75c.09-.06,8.54-6,7.36-13.47-.15-.94-.28-1.87-.41-2.78-.61-4.35-1.14-8.1-3.19-9.5-1.09-.74-2.66-.84-4.79-.32a1,1,0,0,1-.73-.11h0A6.58,6.58,0,0,0,248.79,184.23Z" fill="#093f68"/><path d="M252.83,178.36h6.82a0,0,0,0,1,0,0v30.14a3.41,3.41,0,0,1-3.41,3.41h0a3.41,3.41,0,0,1-3.41-3.41V178.36A0,0,0,0,1,252.83,178.36Z" fill="#f56132"/><path d="M256.24,212.9a4.42,4.42,0,0,1-4.41-4.41V178.36a1,1,0,0,1,1-1h6.82a1,1,0,0,1,1,1v30.13A4.42,4.42,0,0,1,256.24,212.9Zm-2.41-33.54v29.13a2.41,2.41,0,0,0,4.82,0V179.36Z" fill="#093f68"/><path d="M242.89,160.73l45.53-17v56.66l-45.53-17A12.06,12.06,0,0,1,235.05,172h0A12.08,12.08,0,0,1,242.89,160.73Z" fill="#f56132"/><path d="M288.42,201.36a1.07,1.07,0,0,1-.35-.06l-45.53-17a13.05,13.05,0,0,1,0-24.46h0l45.53-17a1,1,0,0,1,.92.12,1,1,0,0,1,.43.82v56.66a1,1,0,0,1-1,1Zm-45.18-39.69a11.06,11.06,0,0,0,0,20.72l44.18,16.53V145.14Z" fill="#093f68"/><ellipse cx="292.63" cy="172.03" rx="17.53" ry="29.17" fill="#093f68"/><path d="M292.63,202.2c-10.22,0-18.53-13.53-18.53-30.17s8.31-30.17,18.53-30.17,18.53,13.53,18.53,30.17S302.85,202.2,292.63,202.2Zm0-58.34c-9.11,0-16.53,12.64-16.53,28.17s7.42,28.17,16.53,28.17,16.53-12.64,16.53-28.17S301.75,143.86,292.63,143.86Z" fill="#093f68"/><path d="M245.08,190c2.09-.42,4.21-.76,6.33-1a4.58,4.58,0,0,1,2.24.11,4.39,4.39,0,0,1,2.15,2.79,25.87,25.87,0,0,1,1.57,7.38,1.89,1.89,0,0,1-.38,1.53,1.4,1.4,0,0,1-.95.32,3.77,3.77,0,0,1-3.13-2.42c-.59-1.26-.83-2.66-1.45-3.91a9.23,9.23,0,0,1,.38,8.07,5.8,5.8,0,0,1-2.05,2.58,3.34,3.34,0,0,1-3.19.31" fill="#ffc9b0"/><path d="M247.85,207a3.86,3.86,0,0,1-1.68-.38,1,1,0,1,1,.87-1.8,2.34,2.34,0,0,0,2.21-.25,4.85,4.85,0,0,0,1.67-2.14,8.14,8.14,0,0,0,.53-4.75c-.06-.21-.13-.41-.19-.61a13.69,13.69,0,0,0-.69-1.87,1,1,0,0,1,1.77-.93,10.18,10.18,0,0,1,1,2.87,10.08,10.08,0,0,0,.43,1.1c.41.86,1.23,1.85,2.21,1.85a.5.5,0,0,0,.29-.05s.1-.1.06-.74a24.87,24.87,0,0,0-1.51-7.09c-.32-.87-.79-1.9-1.58-2.21a3.73,3.73,0,0,0-1.75-.05c-2.09.25-4.2.58-6.26,1a1,1,0,1,1-.39-2c2.11-.43,4.27-.77,6.41-1a4.43,4.43,0,0,1,5.45,3.55,26.79,26.79,0,0,1,1.62,7.66,2.86,2.86,0,0,1-.68,2.33,2.37,2.37,0,0,1-1.64.59,3.81,3.81,0,0,1-2.62-1.06,9.33,9.33,0,0,1-.67,2.2,6.59,6.59,0,0,1-2.42,3A4.66,4.66,0,0,1,247.85,207Z" fill="#093f68"/><path d="M230.18,246.86a1,1,0,0,1-1-1V217.2a1,1,0,0,1,2,0v28.66A1,1,0,0,1,230.18,246.86Z" fill="#093f68"/><path d="M150.44,235.53a11.07,11.07,0,0,1-14.08-6.86l-3-19.51c-1.23-8-2.92-16-3.7-24a3.81,3.81,0,0,1-2.92-1.14c-.55-.52-2.52-3-1.65-3.83a3.16,3.16,0,0,1-3.95-.18,8,8,0,0,1-2.21-3.62,9.5,9.5,0,0,1-.74-5c.73-3.73,4.89-5.85,7.85-7.61a24.32,24.32,0,0,1,7-2.75s-2.84-14.62-2.7-16.3,2.12-2.68,4.09-2.12,4.92,17.18,4.92,17.18c3.1-.57,7.11,2.06,7.91,6.81,1,5.84-1.65,14.12-1.65,14.12l11.72,40.75A11.08,11.08,0,0,1,150.44,235.53Z" fill="#ffc9b0"/><path d="M146.82,237.14a12.08,12.08,0,0,1-5.28-1.22,12,12,0,0,1-6.12-6.93.84.84,0,0,1,0-.17l-3-19.51c-.4-2.6-.86-5.26-1.31-7.83-.87-5-1.77-10.27-2.31-15.4a4.54,4.54,0,0,1-2.7-1.35,9.65,9.65,0,0,1-2-3,4.58,4.58,0,0,1-3.55-.95,8.77,8.77,0,0,1-2.53-4.06,10.53,10.53,0,0,1-.79-5.55c.76-3.85,4.52-6,7.53-7.81l.8-.47a24.77,24.77,0,0,1,6.33-2.63c-.72-3.75-2.66-14.08-2.53-15.65a3.28,3.28,0,0,1,1.45-2.44,4.69,4.69,0,0,1,3.91-.56c1.66.48,3.5,6.22,5.47,17.07h0a7.37,7.37,0,0,1,4.17,1.4,9.5,9.5,0,0,1,3.87,6.32c.92,5.46-1.11,12.73-1.58,14.3l11.63,40.46a12.07,12.07,0,0,1-7.48,15.31h0A12.2,12.2,0,0,1,146.82,237.14Zm3.62-1.61h0Zm-13.11-7.1a10.07,10.07,0,0,0,12.78,6.15h0a10.08,10.08,0,0,0,6.23-12.81L144.61,181a1,1,0,0,1,0-.58c0-.08,2.54-8.11,1.61-13.65a7.56,7.56,0,0,0-3-5,5,5,0,0,0-3.7-1,1,1,0,0,1-1.16-.81c-1.27-7.12-3.26-15.34-4.31-16.42a2.68,2.68,0,0,0-2.12.3,1.34,1.34,0,0,0-.6,1c-.08,1,1.32,9,2.68,16a1,1,0,0,1-.76,1.17,23.12,23.12,0,0,0-6.69,2.63l-.81.47c-2.67,1.57-6,3.51-6.57,6.48a8.56,8.56,0,0,0,.69,4.47,7.21,7.21,0,0,0,1.91,3.19,2.2,2.2,0,0,0,2.65.21h0a1,1,0,0,1,1.45,1.37,6.91,6.91,0,0,0,1.57,2.5,2.84,2.84,0,0,0,2.23.85,1,1,0,0,1,1,.9c.53,5.33,1.47,10.8,2.38,16.09.45,2.58.91,5.25,1.32,7.86Z" fill="#093f68"/><path d="M135.52,174.38a1,1,0,0,1-1-.68,7.06,7.06,0,0,1,.19-5.75l0,0c-3.08.52-6.78.3-8.45-3a2.1,2.1,0,0,1,0-2c1.5-2.75,10.22-3.87,12.86-4.15a1,1,0,0,1,.21,2c-4.91.52-10.62,1.86-11.31,3.12,0,0,0,0,0,.13,1.78,3.53,7.63,1.8,9.89,1a6.19,6.19,0,0,1,1-.41,1,1,0,0,1,1.2.63,1,1,0,0,1-.53,1.25c-.07,0-.41.18-.95.38a5,5,0,0,0-2.25,2.08,5.21,5.21,0,0,0-.06,4.16,1,1,0,0,1-.62,1.26A1,1,0,0,1,135.52,174.38Z" fill="#093f68"/><path d="M182.7,142.55h0a25.7,25.7,0,0,1-13.64-4c-5.41-3.64-8.27-9.42-8.27-16.73a5.1,5.1,0,0,1,1.57-3.79c3.32-3.26,11.11-3.09,17.37-3,1.07,0,2.07,0,3,0a13.72,13.72,0,1,1,0,27.44ZM175.77,117c-4.78,0-9.89.36-12,2.44a3.12,3.12,0,0,0-1,2.36c0,14.79,12.51,18.74,19.91,18.74h0a11.73,11.73,0,0,0,11.72-11.72,11.74,11.74,0,0,0-11.72-11.72c-.91,0-1.93,0-3,0S177.13,117,175.77,117Z" fill="#093f68"/><path d="M213.84,142.55a13.72,13.72,0,1,1,0-27.44c.89,0,1.9,0,3,0,6.26-.14,14-.31,17.36,3a5.1,5.1,0,0,1,1.57,3.79c0,7.31-2.86,13.09-8.27,16.73a25.68,25.68,0,0,1-13.63,4ZM220.76,117c-1.35,0-2.68,0-3.91.06-1.08,0-2.1,0-3,0a11.72,11.72,0,1,0,0,23.44h0c7.39,0,19.9-4,19.9-18.74a3.11,3.11,0,0,0-1-2.36C230.66,117.37,225.55,117,220.76,117Z" fill="#093f68"/><path d="M195.08,126.94a1,1,0,0,1-.43-1.9c4.54-2.16,7.32,0,7.43.12a1,1,0,0,1-1.25,1.56c-.1-.07-2-1.46-5.32.12A.94.94,0,0,1,195.08,126.94Z" fill="#093f68"/><path d="M206.2,149.31s-12.69-1.5-16.82-3.38c0,0,2,13.32,9.07,11.82S206.2,149.31,206.2,149.31Z" fill="#093f68"/><path d="M197.35,158.87A5.75,5.75,0,0,1,194,157.8c-4.3-3-5.6-11.37-5.65-11.72a1,1,0,0,1,1.4-1.06c3.94,1.79,16.4,3.28,16.53,3.29a1,1,0,0,1,.87,1.09c0,.08-.84,7.7-8.53,9.33A6.64,6.64,0,0,1,197.35,158.87Zm-6.64-11.39c.57,2.46,1.92,6.91,4.47,8.68a3.74,3.74,0,0,0,3.06.61,8.72,8.72,0,0,0,6.77-6.6A106.3,106.3,0,0,1,190.71,147.48Z" fill="#093f68"/><path d="M125.07,180.18s6.61-1.09,7.74-3.72-1-9.36-1-9.36" fill="#ffc9b0"/><path d="M125.07,181.18a1,1,0,0,1-.16-2c2.52-.42,6.35-1.66,7-3.12.71-1.66-.27-6.2-1.07-8.66a1,1,0,0,1,.65-1.26,1,1,0,0,1,1.26.64c.23.73,2.24,7.18,1,10.07s-7.76,4.18-8.5,4.3Z" fill="#093f68"/><path d="M307,110.25c0,11.48-11.1,20.79-24.8,20.79a28.92,28.92,0,0,1-7.59-1,88.8,88.8,0,0,1-10,7.9c1.5-3.61,3-7.56,4-10.27-6.79-3.7-11.27-10.12-11.27-17.42,0-11.49,11.1-20.8,24.79-20.8S307,98.76,307,110.25Z" fill="#fff"/><path d="M264.62,138.94a1,1,0,0,1-.63-.23,1,1,0,0,1-.3-1.16c1.09-2.61,2.34-5.78,3.72-9.43-6.93-4.07-11-10.7-11-17.87,0-12,11.57-21.8,25.79-21.8s25.8,9.78,25.8,21.8S296.39,132,282.17,132a30.17,30.17,0,0,1-7.31-.89,90.69,90.69,0,0,1-9.68,7.61A1,1,0,0,1,264.62,138.94Zm17.55-48.49c-13.12,0-23.79,8.88-23.79,19.8,0,6.69,4,12.87,10.75,16.54a1,1,0,0,1,.45,1.23c-1,2.61-1.9,5-2.74,7.1a71.27,71.27,0,0,0,7-5.8,1,1,0,0,1,1-.25,28,28,0,0,0,7.33,1c13.12,0,23.8-8.88,23.8-19.79S295.29,90.45,282.17,90.45Z" fill="#dfeaef"/><path d="M137.82,133.78a17.77,17.77,0,0,1-10.94,1.68c-3.53,3.91-9.43,6.47-16.12,6.47-10.81,0-19.58-6.69-19.58-15s8.77-15,19.58-15,19.58,6.69,19.58,15a11.2,11.2,0,0,1-.57,3.56C132.42,132,135.75,133.53,137.82,133.78Z" fill="#fff"/><path d="M110.76,142.93c-11.35,0-20.58-7.16-20.58-16s9.23-16,20.58-16,20.58,7.16,20.58,16A12.51,12.51,0,0,1,131,130a25.07,25.07,0,0,0,7,2.75,1,1,0,0,1,.37,1.86,18.73,18.73,0,0,1-11.07,1.89C123.37,140.55,117.26,142.93,110.76,142.93Zm0-29.91c-10.24,0-18.58,6.26-18.58,14s8.34,14,18.58,14c6.16,0,11.91-2.3,15.38-6.14a1,1,0,0,1,.94-.31,15.74,15.74,0,0,0,7.63-.53,46.57,46.57,0,0,1-5.41-2.53,1,1,0,0,1-.48-1.2,10,10,0,0,0,.52-3.24C129.34,119.28,121,113,110.76,113Z" fill="#dfeaef"/><path d="M280.52,66.61c0,9.15-9.34,16.56-20.87,16.56a26.68,26.68,0,0,1-3.12-.18A29.44,29.44,0,0,1,252,86.7c.29-1.28.67-3,1-4.39-8.26-2.2-14.21-8.4-14.21-15.7,0-9.15,9.34-16.56,20.87-16.56S280.52,57.46,280.52,66.61Z" fill="#fff"/><path d="M252,87.7a1,1,0,0,1-.57-.17,1,1,0,0,1-.41-1c.23-1,.52-2.28.78-3.46-8.44-2.59-14-9.08-14-16.41,0-9.68,9.81-17.56,21.87-17.56s21.87,7.88,21.87,17.56-9.81,17.56-21.87,17.56c-.92,0-1.84,0-2.74-.13a31.55,31.55,0,0,1-4.34,3.5A1,1,0,0,1,252,87.7Zm7.63-36.65c-11,0-19.87,7-19.87,15.56,0,6.67,5.41,12.59,13.47,14.74a1,1,0,0,1,.72,1.17c-.12.57-.26,1.18-.39,1.8a22.78,22.78,0,0,0,2.22-2,1,1,0,0,1,.85-.31,24.56,24.56,0,0,0,3,.17c11,0,19.87-7,19.87-15.56S270.61,51.05,259.65,51.05Z" fill="#dfeaef"/></g></svg>