<svg xmlns="http://www.w3.org/2000/svg" viewBox="0 0 400 300"><g id="_435_meal_outline" data-name="#435_meal_outline"><circle cx="200" cy="150" r="89.11" fill="#fff"/><path d="M200,240.11A90.11,90.11,0,1,1,290.11,150,90.21,90.21,0,0,1,200,240.11Zm0-178.22A88.11,88.11,0,1,0,288.11,150,88.2,88.2,0,0,0,200,61.89Z" fill="#093f68"/><path d="M200,223.22A73.22,73.22,0,1,1,273.22,150,73.31,73.31,0,0,1,200,223.22Zm0-144.44A71.22,71.22,0,1,0,271.22,150,71.3,71.3,0,0,0,200,78.78Z" fill="#dfeaef"/><path d="M159.48,177.28a6.72,6.72,0,0,1-13.06-1.61c-1.87,1.67-4.23,3.46-6.64,2.74a5,5,0,0,1-3.21-4.46,14.82,14.82,0,0,1,.94-5.72c-2.51-2.48-5.12-5.13-6-8.54A7.24,7.24,0,0,1,135.4,151c-1.7-2.89-3.05-4-2.25-7.71,1.29-6,6.79-10.14,12.5-6.28,1.1-3.15,2.39-6.5,5.17-8.34s7.46-1,8.21,2.25c1.25-2.41,4.82-2.82,7.11-1.37s3.5,4.15,4.08,6.8a23,23,0,0,1-4,18.6,7.78,7.78,0,0,0-1.46,2.41c-.56,1.91.62,3.9.51,5.89-.17,3.15-3.53,5.54-3.39,8.69.06,1.41.83,2.73.84,4.14,0,3.31-3.87,5.15-7.17,5.51" fill="#70cc40"/><path d="M153,182.82a8.43,8.43,0,0,1-.86,0,8,8,0,0,1-6.37-5.27c-1.88,1.46-4,2.55-6.3,1.87s-3.71-3.19-3.93-5.32a14.53,14.53,0,0,1,.81-5.54c-2.27-2.25-4.92-5-5.87-8.56a8.33,8.33,0,0,1,3.47-9.32c-.08-.14-.17-.28-.26-.41-1.28-2-2.29-3.62-1.54-7.11.8-3.74,3.14-6.8,6.11-8a8,8,0,0,1,6.83.45c1.14-3.1,2.5-5.94,5.15-7.69a7.36,7.36,0,0,1,6.59-.62,5.41,5.41,0,0,1,2.41,1.83A5.36,5.36,0,0,1,161.4,128a6.73,6.73,0,0,1,5.28.77c2.18,1.37,3.75,3.94,4.52,7.43A24,24,0,0,1,167,155.58l-.21.28a6,6,0,0,0-1.09,1.81,5.87,5.87,0,0,0,.2,2.84,7.89,7.89,0,0,1-1.5,7.46c-.82,1.35-1.6,2.62-1.54,4a7.06,7.06,0,0,0,.38,1.76,8.52,8.52,0,0,1,.46,2.41c0,3.87-4.15,6.09-8.06,6.51a1,1,0,0,1-.53-.08A7.61,7.61,0,0,1,153,182.82Zm-6.61-8.15a.94.94,0,0,1,.37.07,1,1,0,0,1,.63.84A5.72,5.72,0,0,0,158.53,177a1,1,0,0,1,1.27-.62,1,1,0,0,1,.62,1.27,6.79,6.79,0,0,1-.83,1.66,3.71,3.71,0,0,0,2.1-3.15,6.92,6.92,0,0,0-.38-1.86,9,9,0,0,1-.46-2.25c-.08-1.94.89-3.54,1.83-5.08a8.61,8.61,0,0,0,1.57-3.71,8.29,8.29,0,0,0-.32-2.28,7.49,7.49,0,0,1-.16-3.83,7.6,7.6,0,0,1,1.42-2.46l.2-.27a22,22,0,0,0,3.86-17.78c-.46-2.06-1.46-4.8-3.64-6.17a4.73,4.73,0,0,0-3.68-.53,3.11,3.11,0,0,0-2,1.51,1,1,0,0,1-1.86-.23,3,3,0,0,0-1.94-2.07,5.36,5.36,0,0,0-4.75.43c-2.45,1.62-3.66,4.62-4.77,7.83a1,1,0,0,1-1.51.5A6.29,6.29,0,0,0,139,137a9,9,0,0,0-4.91,6.57c-.58,2.69.05,3.67,1.28,5.62.27.42.56.87.85,1.38a1,1,0,0,1-.48,1.43,6.22,6.22,0,0,0-3.34,7.47c.87,3.24,3.47,5.81,5.77,8.09a1,1,0,0,1,.26,1,14.18,14.18,0,0,0-.91,5.33c.15,1.42,1,3.16,2.51,3.61,1.88.56,3.93-1,5.69-2.54A1,1,0,0,1,146.42,174.67Z" fill="#093f68"/><path d="M181.8,90.93A9.92,9.92,0,0,0,170,94.68,12.25,12.25,0,0,0,154.9,112.9a7.19,7.19,0,0,0-3.58,13.83,6.26,6.26,0,0,0-2.9,5.49,12.19,12.19,0,0,0,2,6.12c1.82,3,4.5,5.71,7.9,6.68,3.56,1,7.36,0,10.87-1.19s6.93-2.6,9.21-5.4,2.83-7.31.28-9.87a9,9,0,0,0,4.32-15.9c1.1.91,4.5-3.22,4.85-3.87a12.57,12.57,0,0,0,.92-7.1C188.2,97.53,185.84,92.61,181.8,90.93Z" fill="#70cc40"/><path d="M161.42,146.43A12.37,12.37,0,0,1,158,146c-3.26-.93-6.26-3.46-8.47-7.13a12.8,12.8,0,0,1-2.13-6.63,7.67,7.67,0,0,1,2.06-5.32,8.16,8.16,0,0,1,3.65-15,13.25,13.25,0,0,1,16.48-18.43A11.06,11.06,0,0,1,182.18,90h0c4.41,1.84,7,7.13,7.56,11.56a13.33,13.33,0,0,1-1,7.7,16.45,16.45,0,0,1-3.78,4,10,10,0,0,1-4.55,15.94c1.79,3.06.92,7.28-1.22,9.9-2.42,3-6.08,4.5-9.67,5.72A25.46,25.46,0,0,1,161.42,146.43ZM154,113.83a6.19,6.19,0,0,0-2.31,12,1,1,0,0,1,.64.86,1,1,0,0,1-.51,1,5.23,5.23,0,0,0-2.38,4.61,11,11,0,0,0,1.84,5.6c2,3.24,4.54,5.45,7.31,6.23,3.27.93,6.87,0,10.28-1.17s6.66-2.51,8.76-5.08c1.92-2.36,2.52-6.35.34-8.53a1,1,0,0,1-.24-1,1,1,0,0,1,.79-.68,8.06,8.06,0,0,0,3.84-14.15,1,1,0,0,1,1.1-1.66c.85-.25,3.11-2.75,3.51-3.46a11.63,11.63,0,0,0,.81-6.49c-.51-3.86-2.67-8.44-6.35-10h0a8.94,8.94,0,0,0-10.6,3.36,1,1,0,0,1-1.25.38,11.25,11.25,0,0,0-13.84,16.73,1,1,0,0,1-1,1.57A5.12,5.12,0,0,0,154,113.83Z" fill="#093f68"/><path d="M202.1,137.89s15.32,3.84,13,10-5.45,15.08-9.68,11.6-8.62-11.92-8.62-11.92Z" fill="#68e1fd"/><path d="M207.29,161.24a4,4,0,0,1-2.53-1c-4.35-3.57-8.68-11.88-8.87-12.23a1,1,0,0,1,0-.94l5.32-9.66a1,1,0,0,1,1.11-.49c.45.11,11,2.79,13.43,7.52a4.41,4.41,0,0,1,.24,3.78l-.34.91c-2,5.21-4.21,11.12-7.53,12A3.08,3.08,0,0,1,207.29,161.24Zm-9.37-13.68c1,1.79,4.64,8.29,8.11,11.13a1.69,1.69,0,0,0,1.6.51c2.32-.62,4.64-6.73,6.17-10.78l.34-.91a2.48,2.48,0,0,0-.14-2.14c-1.58-3-8.18-5.41-11.4-6.31Z" fill="#093f68"/><path d="M173.33,106.15s-12.37-2.51-14.81,2.93-12.51,30.68-8,46.27l8,3.65S170.82,109.34,173.33,106.15Z" fill="#68e1fd"/><path d="M158.52,160a1,1,0,0,1-.42-.09l-8-3.65a1,1,0,0,1-.55-.63c-5-17.43,7.52-45.76,8.06-47,2.74-6.1,15.38-3.61,15.92-3.5a1,1,0,0,1,.73.63,1,1,0,0,1-.15,1c-1.74,2.21-9.7,32.59-14.62,52.47a1,1,0,0,1-.54.66A.91.91,0,0,1,158.52,160Zm-7.17-5.37,6.49,3c2-8,10.74-42.86,14-50.68-3.83-.57-10.87-.84-12.41,2.58C155,119.29,147.77,141.21,151.35,154.63Z" fill="#093f68"/><path d="M203,79.94s-17.82-.84-33.57,26.21c-26.4,45.35-10.95,79.32-10.95,79.32s-15.8,5.64-19.05,18.4l19.07-7.14,11.3,18.64s.15-11.73-.37-26.74c0,0,29.42-25.14,42.21-57.46S203,79.94,203,79.94Z" fill="#68e1fd"/><path d="M169.84,216.37a1,1,0,0,1-.86-.48L158.12,198l-18.3,6.84a1,1,0,0,1-1-.19,1,1,0,0,1-.3-1c2.91-11.41,15.14-17.23,18.72-18.71-2.25-5.94-12.51-38.23,11.39-79.26,15.87-27.27,33.73-26.74,34.47-26.71a1,1,0,0,1,.62.25c.22.19,21.8,19.75,8.91,52.35-12,30.22-38.68,54.48-42.12,57.53.5,14.64.35,26.2.35,26.32a1,1,0,0,1-.74,1Zm-11.3-20.64a1,1,0,0,1,.86.48l9.46,15.62c0-4.59,0-13.18-.39-23.17a1,1,0,0,1,.35-.79c.29-.25,29.39-25.36,41.93-57.07,11.59-29.33-5.71-47.53-8.11-49.86-2.52.09-18.29,1.64-32.31,25.71-13.49,23.17-15.73,43.25-15.24,56,.53,13.83,4.3,22.31,4.34,22.39a1,1,0,0,1,0,.8,1,1,0,0,1-.58.56c-.15.05-13.75,5-17.82,15.79l17.15-6.41A.91.91,0,0,1,158.54,195.73Z" fill="#093f68"/><path d="M200.74,119.18c-15.91,0-25.93-14.67-26.05-14.85a1,1,0,1,1,1.66-1.11,38.3,38.3,0,0,0,9.87,9.44c8.23,5.34,16.9,6,25.78,1.92a1,1,0,0,1,.83,1.81A28.83,28.83,0,0,1,200.74,119.18Z" fill="#093f68"/><line x1="189.47" y1="122.33" x2="167.8" y2="129.02" fill="#68e1fd"/><path d="M167.8,130a1,1,0,0,1-.29-2l21.66-6.69a1,1,0,0,1,.59,1.91L168.1,130A1,1,0,0,1,167.8,130Z" fill="#093f68"/><path d="M169.47,189.63h-.07c-6.46-.46-10.33-1.49-11.49-3a1.63,1.63,0,0,1-.37-1.32,1,1,0,0,1,2,.13c.21.25,1.72,1.64,10,2.24a1,1,0,0,1-.07,2Zm-10-3.95Zm0,0Z" fill="#093f68"/><path d="M181.07,100.05a1,1,0,0,1-.28-2l9.42-2.76a1,1,0,1,1,.56,1.92L181.35,100A1.45,1.45,0,0,1,181.07,100.05Z" fill="#093f68"/><path d="M187.9,102.52a1,1,0,0,1-.94-.66l-3.38-9.45a1,1,0,0,1,1.89-.68l3.37,9.46a1,1,0,0,1-.6,1.27A1.06,1.06,0,0,1,187.9,102.52Z" fill="#093f68"/><path d="M196.35,104.77a1,1,0,0,1-.95-.68c-3.07-9.06,6.39-24,6.79-24.69a1,1,0,0,1,1.38-.3,1,1,0,0,1,.31,1.38c-.09.14-9.35,14.82-6.59,23a1,1,0,0,1-.62,1.27A.93.93,0,0,1,196.35,104.77Z" fill="#093f68"/><line x1="200.12" y1="138.95" x2="162.01" y2="146.85" fill="#68e1fd"/><path d="M162,147.85a1,1,0,0,1-.2-2l38.11-7.9a1,1,0,1,1,.4,2l-38.1,7.9Z" fill="#093f68"/><path d="M186.21,157.86c-1.12-.19-26.18,6.94-26.18,6.94" fill="#68e1fd"/><path d="M160,165.8a1,1,0,0,1-.28-2c11.53-3.28,25.53-7.15,26.63-7a1,1,0,0,1-.24,2c-1.49.1-16.61,4.28-25.84,6.91Z" fill="#093f68"/><circle cx="205.28" cy="194.08" r="16.39" fill="#ffbc0e"/><path d="M205.28,211.47a17.39,17.39,0,1,1,17.39-17.39A17.41,17.41,0,0,1,205.28,211.47Zm0-32.78a15.39,15.39,0,1,0,15.39,15.39A15.41,15.41,0,0,0,205.28,178.69Z" fill="#093f68"/><path d="M207.21,188.83a1,1,0,0,1-.35-.06,1,1,0,0,1-.59-1.29l1.87-5.07a1,1,0,1,1,1.88.7l-1.88,5.07A1,1,0,0,1,207.21,188.83Z" fill="#093f68"/><path d="M200.59,191.72a1,1,0,0,1-.41-.09l-4.93-2.18a1,1,0,0,1-.5-1.32,1,1,0,0,1,1.32-.51l4.93,2.19a1,1,0,0,1-.41,1.91Z" fill="#093f68"/><path d="M197.39,203.19a1,1,0,0,1-.76-.36,1,1,0,0,1,.12-1.41l3.2-2.67a1,1,0,0,1,1.41.12,1,1,0,0,1-.13,1.41L198,203A1,1,0,0,1,197.39,203.19Z" fill="#093f68"/><path d="M213,203.19a1,1,0,0,1-.78-.38l-3-3.8a1,1,0,1,1,1.57-1.25l3,3.8a1,1,0,0,1-.16,1.41A1,1,0,0,1,213,203.19Z" fill="#093f68"/><path d="M211.46,193.05a1,1,0,0,1-.28-2l4.47-1.33a1,1,0,0,1,.57,1.92L211.75,193A1,1,0,0,1,211.46,193.05Z" fill="#093f68"/><circle cx="197.58" cy="197.44" r="16.39" fill="#ffbc0e"/><path d="M197.58,214.83A17.39,17.39,0,1,1,215,197.44,17.41,17.41,0,0,1,197.58,214.83Zm0-32.78A15.39,15.39,0,1,0,213,197.44,15.41,15.41,0,0,0,197.58,182.05Z" fill="#093f68"/><path d="M199.5,192.19a1,1,0,0,1-.34-.06,1,1,0,0,1-.59-1.29l1.87-5.07a1,1,0,0,1,1.29-.59,1,1,0,0,1,.59,1.29l-1.88,5.07A1,1,0,0,1,199.5,192.19Z" fill="#093f68"/><path d="M192.89,195.08a1.15,1.15,0,0,1-.41-.08l-4.93-2.19a1,1,0,0,1-.5-1.32,1,1,0,0,1,1.32-.51l4.92,2.19a1,1,0,0,1-.4,1.91Z" fill="#093f68"/><path d="M189.69,206.55a1,1,0,0,1-.76-.36,1,1,0,0,1,.12-1.41l3.2-2.67a1,1,0,1,1,1.28,1.53l-3.2,2.67A1,1,0,0,1,189.69,206.55Z" fill="#093f68"/><path d="M205.28,206.55a1,1,0,0,1-.78-.38l-3-3.8a1,1,0,0,1,1.57-1.25l3,3.8a1,1,0,0,1-.16,1.41A1,1,0,0,1,205.28,206.55Z" fill="#093f68"/><path d="M203.76,196.41a1,1,0,0,1-.28-2l4.47-1.33a1,1,0,0,1,1.24.68,1,1,0,0,1-.67,1.24l-4.47,1.33A1,1,0,0,1,203.76,196.41Z" fill="#093f68"/><path d="M234.35,197.49a12.7,12.7,0,0,1-5.42-1.07c-2.75-1.29-5.2-4.37-4.55-7.78.58-3,3.3-4.94,5.81-6.49,1.49-.93,3-1.86,4.5-2.76h0c7.37-4.39,16.89-6.83,21.51-.51A11.74,11.74,0,0,1,257.51,191a10.74,10.74,0,0,1-9.63,5.93,25.3,25.3,0,0,1-2.78-.12c-.79-.06-1.51-.11-2.29-.12a28.39,28.39,0,0,0-3.82.38c-.43.06-.85.13-1.28.18A24.86,24.86,0,0,1,234.35,197.49Zm1.36-16.38c-1.5.9-3,1.82-4.47,2.74-2.24,1.38-4.47,2.93-4.89,5.17s1.42,4.65,3.42,5.58c2.47,1.15,5.4,1,7.68.66l1.25-.18a30.45,30.45,0,0,1,4.1-.4h.07c.81,0,1.61.07,2.39.13a22.57,22.57,0,0,0,2.57.11,8.68,8.68,0,0,0,7.89-4.81,9.76,9.76,0,0,0-1.13-10.05c-5-6.76-16.59-.31-18.88,1.05Z" fill="#70cc40"/><path d="M238.88,189a5.15,5.15,0,0,1-2.8-.76c-2.07-1.29-2.59-3.77-2.71-5.14a12.16,12.16,0,0,1,3.25-9.33h0c5.06-5.33,14.25-4.8,21.11-1.91a13.17,13.17,0,0,1,6.26,4.75,7.1,7.1,0,0,1,0,8.08c-2.18,2.81-6.13,2.87-9.7,2.56-3-.26-6.39-.56-9.42.29-.51.15-1,.32-1.55.49A14.61,14.61,0,0,1,238.88,189Zm-.81-13.86a10.18,10.18,0,0,0-2.71,7.79c.07.8.39,2.75,1.78,3.61s3.47.28,5.56-.41c.55-.18,1.1-.36,1.64-.51,3.38-1,7-.64,10.14-.36s6.35.25,8-1.8c1.29-1.66.91-4.15-.12-5.76a11.33,11.33,0,0,0-5.36-4c-6.22-2.62-14.47-3.19-18.88,1.44Z" fill="#70cc40"/><path d="M219.4,173.48a1,1,0,0,1-.12-2c.28,0,6.69-1,11-11a1,1,0,0,1,1.31-.53,1,1,0,0,1,.53,1.32c-4.76,11.1-12.24,12.12-12.56,12.16Z" fill="#093f68"/><path d="M227.67,167.88a1,1,0,0,1-.51-1.86c.24-.14,6.1-3.59,11.93-3a1,1,0,0,1,.89,1.1,1,1,0,0,1-1.09.89c-5.15-.52-10.65,2.71-10.71,2.74A1,1,0,0,1,227.67,167.88Z" fill="#093f68"/><path d="M239,170.38a1,1,0,0,1-.58-.19L232,165.62A1,1,0,0,1,233.1,164l6.46,4.57a1,1,0,0,1,.24,1.39A1,1,0,0,1,239,170.38Z" fill="#093f68"/><path d="M232.53,170.4a1,1,0,0,1-.59-.19c-1.23-.89-5.3-.24-6.21.08a1,1,0,0,1-1.1-1.65c.52-.45,6.22-1.69,8.48,0a1,1,0,0,1,.23,1.39A1,1,0,0,1,232.53,170.4Z" fill="#093f68"/><path d="M215.74,167.88a1,1,0,0,1-.72-1.69c.07-.07,7-7.37,5.68-12.32a1,1,0,0,1,1.93-.52c1.63,6-5.85,13.89-6.17,14.23A1,1,0,0,1,215.74,167.88Z" fill="#093f68"/><path d="M219.4,163.11a1,1,0,0,1-1-.93l-.6-8.5a1,1,0,0,1,2-.14l.6,8.5a1,1,0,0,1-.93,1.07Z" fill="#093f68"/><path d="M222.19,158.89a2.81,2.81,0,0,1-.53,0,1,1,0,0,1,.4-2c.17,0,1.52.15,2.26-2.38a1,1,0,0,1,1.92.57C225.34,158.12,223.43,158.89,222.19,158.89Z" fill="#093f68"/><path d="M226.66,127.14c-.8,2.23-3.1,3.52-4.59,5.37-2.67,3.33-2.42,8.38-.17,12s6.16,6,10.21,7.27a15.1,15.1,0,0,1,4.35,1.78c1.43,1,2.35,2.59,3.46,3.95a16.42,16.42,0,0,0,18.32,4.7c4.26-1.71,7.57-5.16,10.42-8.76,2-2.48,3.86-5.22,4.31-8.36,1.18-8.11-7.18-14.38-9.2-22.32-1.24-4.86,0-10.23-2.09-14.81-3.93-8.82-17.52-9.58-25-5.17-3.1,1.82-5.14,5-7,8-1.61,2.52-3.11,5-3.29,8C226.15,121.54,227.63,124.42,226.66,127.14Z" fill="#fff"/><path d="M252.47,164.3a17.37,17.37,0,0,1-13.33-6.16c-.31-.39-.61-.79-.92-1.2a11.41,11.41,0,0,0-2.34-2.57,11.6,11.6,0,0,0-3.3-1.4l-.77-.24c-3.41-1.11-8-3.34-10.76-7.69s-2.55-9.67.24-13.15a18.75,18.75,0,0,1,1.92-2,8.61,8.61,0,0,0,2.51-3.13h0a8.86,8.86,0,0,0-.06-4.48,15.38,15.38,0,0,1-.35-3.6c.2-3.43,1.93-6.13,3.45-8.51,1.9-3,4.05-6.34,7.37-8.29a23.08,23.08,0,0,1,17.68-1.76,13.73,13.73,0,0,1,8.78,7.39c1.25,2.79,1.37,5.82,1.48,8.75a29.13,29.13,0,0,0,.67,6.22c.78,3.09,2.64,6,4.44,8.85,2.72,4.28,5.53,8.7,4.78,13.86-.49,3.39-2.46,6.26-4.51,8.85-2.56,3.21-6.1,7.15-10.84,9.06A16.61,16.61,0,0,1,252.47,164.3ZM227.6,127.48a10.14,10.14,0,0,1-3,3.92,16.55,16.55,0,0,0-1.72,1.74c-2.24,2.78-2.28,7.34-.1,10.84,2.4,3.84,6.58,5.84,9.67,6.84l.75.24a10.13,10.13,0,0,1,6.66,4.69c.28.38.56.76.86,1.12a15.52,15.52,0,0,0,17.18,4.41c4.3-1.73,7.61-5.42,10-8.45,1.88-2.37,3.68-5,4.1-7.88.64-4.43-1.85-8.35-4.49-12.5-1.88-3-3.83-6-4.69-9.43a31.26,31.26,0,0,1-.73-6.64c-.11-2.87-.21-5.58-1.3-8a12,12,0,0,0-7.57-6.31,20.92,20.92,0,0,0-16,1.59c-2.91,1.7-4.84,4.72-6.7,7.64-1.46,2.28-3,4.63-3.14,7.55a13.37,13.37,0,0,0,.32,3.13,10.41,10.41,0,0,1,0,5.51Z" fill="#093f68"/><path d="M241.46,117a1,1,0,0,1-.36-1.93l5.15-2A1,1,0,1,1,247,115l-5.16,2A1,1,0,0,1,241.46,117Z" fill="#dfeaef"/><path d="M234.32,140.94a1,1,0,0,1-.76-.36,1,1,0,0,1,.12-1.41l4.66-3.94a1,1,0,1,1,1.29,1.53L235,140.7A1,1,0,0,1,234.32,140.94Z" fill="#dfeaef"/><path d="M246.61,153.11a1,1,0,0,1-.92-.62l-2.58-6.32a1,1,0,1,1,1.85-.76l2.58,6.33A1,1,0,0,1,247,153,1,1,0,0,1,246.61,153.11Z" fill="#dfeaef"/><path d="M255.76,124.61a1,1,0,0,1-.52-.15c-.84-.5-4.05-1-6.06-1.27a1,1,0,0,1-.89-1.1,1,1,0,0,1,1.11-.89c.88.1,5.35.64,6.87,1.55a1,1,0,0,1-.51,1.86Z" fill="#dfeaef"/><path d="M236.66,128.75a1,1,0,0,1-.78-.37l-3.33-4.15a1,1,0,0,1,.15-1.4,1,1,0,0,1,1.41.15l3.32,4.14a1,1,0,0,1-.15,1.41A1,1,0,0,1,236.66,128.75Z" fill="#dfeaef"/><path d="M252.52,140.94a1,1,0,0,1-.31-1.95l6-2a1,1,0,0,1,.62,1.91l-6,2A1.12,1.12,0,0,1,252.52,140.94Z" fill="#dfeaef"/></g></svg>