<svg xmlns="http://www.w3.org/2000/svg" viewBox="0 0 400 300"><g id="_471_3d_model_outline" data-name="#471_3d_model_outline"><polygon points="200 150 118.73 103.08 200 56.16 281.27 103.08 200 150" fill="#fff"/><path d="M200,151a1,1,0,0,1-.5-.13l-81.27-46.93a1,1,0,0,1,0-1.73L199.5,55.29a1,1,0,0,1,1,0l81.27,46.92a1,1,0,0,1,.5.87,1,1,0,0,1-.5.86L200.5,150.87A1,1,0,0,1,200,151Zm-79.27-47.92L200,148.85l79.27-45.77L200,57.31Z" fill="#093f68"/><polygon points="200 243.84 118.73 196.92 118.73 103.08 200 150 200 243.84" fill="#fff"/><path d="M200,244.85a1,1,0,0,1-.5-.14l-81.27-46.92a1,1,0,0,1-.5-.87V103.08a1,1,0,0,1,.5-.87,1,1,0,0,1,1,0l81.27,46.92a1,1,0,0,1,.5.87v93.85a1,1,0,0,1-1,1Zm-80.27-48.5L199,242.11V150.58l-79.27-45.77Z" fill="#093f68"/><polygon points="281.27 196.92 200 243.84 200 150 281.27 103.08 281.27 196.92" fill="#fff"/><path d="M200,244.85a1,1,0,0,1-1-1V150a1,1,0,0,1,.5-.87l81.27-46.92a1,1,0,0,1,1,0,1,1,0,0,1,.5.87v93.84a1,1,0,0,1-.5.87L200.5,244.71A1,1,0,0,1,200,244.85Zm1-94.27v91.53l79.27-45.76V104.81Zm80.27,46.34h0Z" fill="#093f68"/><polygon points="200 150 159.36 126.54 200 103.08 240.64 126.54 200 150" fill="#68e1fd"/><path d="M200,151a1,1,0,0,1-.5-.13L158.86,127.4a1,1,0,0,1-.5-.86,1,1,0,0,1,.5-.87l40.64-23.46a1,1,0,0,1,1,0l40.64,23.46a1,1,0,0,1,.5.87,1,1,0,0,1-.5.86L200.5,150.87A1,1,0,0,1,200,151Zm-38.64-24.46L200,148.85l38.64-22.31L200,104.23Z" fill="#093f68"/><polygon points="200 196.92 159.36 173.46 159.36 126.54 200 150 200 196.92" fill="#68e1fd"/><path d="M200,197.92a1,1,0,0,1-.5-.13l-40.64-23.46a1,1,0,0,1-.5-.87V126.54a1,1,0,0,1,.5-.87,1,1,0,0,1,1,0l40.64,23.46a1,1,0,0,1,.5.87v46.92a1,1,0,0,1-.5.87A1,1,0,0,1,200,197.92Zm-39.64-25L199,195.19V150.58l-38.64-22.31Z" fill="#093f68"/><polygon points="240.64 173.46 200 196.92 200 150 240.64 126.54 240.64 173.46" fill="#68e1fd"/><path d="M200,197.92a1,1,0,0,1-.5-.13,1,1,0,0,1-.5-.87V150a1,1,0,0,1,.5-.87l40.64-23.46a1,1,0,0,1,1,0,1,1,0,0,1,.5.87v46.92a1,1,0,0,1-.5.87L200.5,197.79A1,1,0,0,1,200,197.92Zm1-47.34v44.61l38.64-22.31V128.27Zm39.64,22.88h0Z" fill="#093f68"/><path d="M200,59.15a1,1,0,0,1-1-1v-2a1,1,0,1,1,2,0v2A1,1,0,0,1,200,59.15Z" fill="#093f68"/><path d="M200,98.18a1,1,0,0,1-1-1V93.27a1,1,0,1,1,2,0v3.91A1,1,0,0,1,200,98.18Zm0-7.81a1,1,0,0,1-1-1v-3.9a1,1,0,0,1,2,0v3.9A1,1,0,0,1,200,90.37Zm0-7.8a1,1,0,0,1-1-1v-3.9a1,1,0,0,1,2,0v3.9A1,1,0,0,1,200,82.57Zm0-7.81a1,1,0,0,1-1-1v-3.9a1,1,0,0,1,2,0v3.9A1,1,0,0,1,200,74.76Zm0-7.8a1,1,0,0,1-1-1v-3.9a1,1,0,0,1,2,0V66A1,1,0,0,1,200,67Z" fill="#093f68"/><path d="M200,104.08a1,1,0,0,1-1-1v-2a1,1,0,1,1,2,0v2A1,1,0,0,1,200,104.08Z" fill="#093f68"/><path d="M121.26,196.46a1,1,0,0,1-.5-1.87l3.46-2a1,1,0,0,1,1,1.74l-3.46,2A1,1,0,0,1,121.26,196.46Zm6.93-4a1,1,0,0,1-.5-1.87l3.46-2a1,1,0,0,1,1,1.74l-3.46,2A1,1,0,0,1,128.19,192.46Zm6.93-4a1,1,0,0,1-.87-.5,1,1,0,0,1,.36-1.37l3.47-2a1,1,0,1,1,1,1.74l-3.47,2A1,1,0,0,1,135.12,188.46Zm6.92-4a1,1,0,0,1-.5-1.86l3.47-2a1,1,0,0,1,1.36.36,1,1,0,0,1-.36,1.37l-3.47,2A1,1,0,0,1,142,184.46Zm6.93-4a1,1,0,0,1-.87-.5,1,1,0,0,1,.37-1.36l3.47-2a1,1,0,0,1,1.36.36,1,1,0,0,1-.36,1.37l-3.47,2A1,1,0,0,1,149,180.46Zm6.93-4a1,1,0,0,1-.87-.5,1,1,0,0,1,.37-1.36l3.46-2a1,1,0,1,1,1,1.73l-3.46,2A1,1,0,0,1,155.9,176.46Z" fill="#093f68"/><path d="M278.74,196.46a1,1,0,0,1-.5-.13l-3.46-2a1,1,0,1,1,1-1.74l3.46,2a1,1,0,0,1-.5,1.87Zm-6.93-4a1,1,0,0,1-.5-.13l-3.46-2a1,1,0,0,1,1-1.74l3.46,2a1,1,0,0,1-.5,1.87Zm-6.93-4a1,1,0,0,1-.49-.13l-3.47-2a1,1,0,1,1,1-1.74l3.47,2a1,1,0,0,1,.36,1.37A1,1,0,0,1,264.88,188.46Zm-6.92-4a1,1,0,0,1-.5-.13l-3.47-2a1,1,0,0,1-.36-1.37,1,1,0,0,1,1.36-.36l3.47,2a1,1,0,0,1-.5,1.86Zm-6.93-4a1,1,0,0,1-.5-.13l-3.47-2a1,1,0,0,1-.36-1.37,1,1,0,0,1,1.36-.36l3.47,2a1,1,0,0,1,.37,1.36A1,1,0,0,1,251,180.46Zm-6.93-4a1,1,0,0,1-.5-.13l-3.46-2a1,1,0,1,1,1-1.73l3.46,2A1,1,0,0,1,245,176,1,1,0,0,1,244.1,176.46Z" fill="#093f68"/></g></svg>