<svg xmlns="http://www.w3.org/2000/svg" viewBox="0 0 400 300"><g id="_251_money_transfer_outline" data-name="#251_money_transfer_outline"><rect x="86.42" y="66.72" width="96.14" height="166.56" rx="9.5" fill="#fff"/><path d="M173.06,234.28H95.92a10.51,10.51,0,0,1-10.5-10.5V76.22a10.51,10.51,0,0,1,10.5-10.5h77.14a10.51,10.51,0,0,1,10.5,10.5V223.78A10.51,10.51,0,0,1,173.06,234.28ZM95.92,67.72a8.51,8.51,0,0,0-8.5,8.5V223.78a8.51,8.51,0,0,0,8.5,8.5h77.14a8.51,8.51,0,0,0,8.5-8.5V76.22a8.51,8.51,0,0,0-8.5-8.5Z" fill="#093f68"/><rect x="86.42" y="87.43" width="96.14" height="117.88" fill="#68e1fd"/><path d="M182.56,206.31H86.42a1,1,0,0,1-1-1V87.43a1,1,0,0,1,1-1h96.14a1,1,0,0,1,1,1V205.31A1,1,0,0,1,182.56,206.31Zm-95.14-2h94.14V88.43H87.42Z" fill="#093f68"/><path d="M126.89,78.72h-3.38a1,1,0,0,1,0-2h3.38a1,1,0,1,1,0,2Z" fill="#dfeaef"/><path d="M145.47,78.72H132.94a1,1,0,0,1,0-2h12.53a1,1,0,0,1,0,2Z" fill="#dfeaef"/><path d="M134.49,226.21a7.95,7.95,0,1,1,7.95-8A8,8,0,0,1,134.49,226.21Zm0-13.89a5.95,5.95,0,1,0,5.95,5.94A5.95,5.95,0,0,0,134.49,212.32Z" fill="#dfeaef"/><rect x="217.44" y="66.72" width="96.14" height="166.56" rx="9.5" fill="#fff"/><path d="M304.08,234.28H226.94a10.51,10.51,0,0,1-10.5-10.5V76.22a10.51,10.51,0,0,1,10.5-10.5h77.14a10.51,10.51,0,0,1,10.5,10.5V223.78A10.51,10.51,0,0,1,304.08,234.28ZM226.94,67.72a8.51,8.51,0,0,0-8.5,8.5V223.78a8.51,8.51,0,0,0,8.5,8.5h77.14a8.51,8.51,0,0,0,8.5-8.5V76.22a8.51,8.51,0,0,0-8.5-8.5Z" fill="#093f68"/><rect x="217.44" y="87.43" width="96.14" height="117.88" fill="#68e1fd"/><path d="M313.58,206.31H217.44a1,1,0,0,1-1-1V87.43a1,1,0,0,1,1-1h96.14a1,1,0,0,1,1,1V205.31A1,1,0,0,1,313.58,206.31Zm-95.14-2h94.14V88.43H218.44Z" fill="#093f68"/><path d="M257.91,78.72h-3.38a1,1,0,0,1,0-2h3.38a1,1,0,0,1,0,2Z" fill="#dfeaef"/><path d="M276.49,78.72H264a1,1,0,0,1,0-2h12.53a1,1,0,0,1,0,2Z" fill="#dfeaef"/><path d="M265.51,226.21a7.95,7.95,0,1,1,7.94-8A8,8,0,0,1,265.51,226.21Zm0-13.89a5.95,5.95,0,1,0,5.94,5.94A6,6,0,0,0,265.51,212.32Z" fill="#dfeaef"/><polyline points="129.59 159.81 254.12 159.81 254.12 173.62 284.63 148.28 254.12 122.94 254.12 136.75 129.59 136.75" fill="#fff"/><path d="M254.12,174.62a.9.9,0,0,1-.42-.1,1,1,0,0,1-.58-.9V160.81H129.59a1,1,0,1,1,0-2H254.12a1,1,0,0,1,1,1v11.68l27.95-23.21-27.95-23.21v11.68a1,1,0,0,1-1,1H129.59a1,1,0,0,1,0-2H253.12V122.94a1,1,0,0,1,.58-.91,1,1,0,0,1,1.06.14l30.51,25.34a1,1,0,0,1,0,1.54l-30.51,25.34A1,1,0,0,1,254.12,174.62Z" fill="#093f68"/><circle cx="200" cy="150" r="38.86" fill="#ffbc0e"/><path d="M200,189.86A39.86,39.86,0,1,1,239.86,150,39.9,39.9,0,0,1,200,189.86Zm0-77.72A37.86,37.86,0,1,0,237.86,150,37.91,37.91,0,0,0,200,112.14Z" fill="#093f68"/><circle cx="200" cy="150" r="32.21" fill="#ffbc0e"/><path d="M200,183.21A33.21,33.21,0,1,1,233.21,150,33.25,33.25,0,0,1,200,183.21Zm0-64.42A31.21,31.21,0,1,0,231.21,150,31.24,31.24,0,0,0,200,118.79Z" fill="#093f68"/><path d="M196.32,175.41v-4c-1.47-.4-2.89-.7-4.26-1.17a12.44,12.44,0,0,1-6.54-4.91,12.19,12.19,0,0,1-1.9-6.82h7.86c.36,2.92,1.78,5,4.81,5.82V153.65c-1.57-.46-3.15-.89-4.7-1.38a11.05,11.05,0,0,1-4.57-2.6,9.09,9.09,0,0,1-2.54-4.95,12.68,12.68,0,0,1,.5-6.85,11.36,11.36,0,0,1,6.89-6.83,35.57,35.57,0,0,1,4-1l.48-.09v-5.33h7.35v.52c0,1.52,0,3,0,4.56,0,.38.11.5.48.58a15.45,15.45,0,0,1,6.84,3.19,11.07,11.07,0,0,1,3.9,6.83c.13.73.19,1.47.28,2.24h-8a5.58,5.58,0,0,0-3.46-5.07v9.95l.86.21a28.27,28.27,0,0,1,6.27,2,9.07,9.07,0,0,1,5.42,7.57,11.86,11.86,0,0,1-2.07,8.67,12,12,0,0,1-5.92,4.39c-1.48.51-3,.85-4.6,1.28v3.9Zm7.38-20.23v9.26A6.62,6.62,0,0,0,207,163c1.7-1.39,2.31-4.88-.19-6.41A28.84,28.84,0,0,0,203.7,155.18Zm-7.41-9.49v-8.94a26.1,26.1,0,0,0-2.8,1.42c-2,1.37-2.37,5.14.24,6.46C194.53,145,195.4,145.33,196.29,145.69Z" fill="#fff"/><path d="M203.67,176.41h-7.35a1,1,0,0,1-1-1v-3.25l-.62-.16c-1-.24-2-.5-3-.84a13.39,13.39,0,0,1-7.06-5.3,13.09,13.09,0,0,1-2.06-7.36,1,1,0,0,1,1-1h7.86a1,1,0,0,1,1,.88c.28,2.23,1.18,3.69,2.82,4.51V154.4l-.71-.2c-1.1-.32-2.2-.63-3.29-1a11.93,11.93,0,0,1-5-2.85,10,10,0,0,1-2.82-5.48,13.51,13.51,0,0,1,.54-7.37,12.38,12.38,0,0,1,7.48-7.42,20,20,0,0,1,2.87-.78l.93-.21v-4.52a1,1,0,0,1,1-1h7.35a1,1,0,0,1,1,1v1.75c0,1,0,2,0,3a16.09,16.09,0,0,1,7,3.34,12.09,12.09,0,0,1,4.25,7.42c.09.51.15,1,.2,1.57l.09.72a1,1,0,0,1-.25.78,1,1,0,0,1-.75.34h-8a1,1,0,0,1-1-.94,4.51,4.51,0,0,0-1.46-3.3v7.34h.07a28.9,28.9,0,0,1,6.48,2.07,10.07,10.07,0,0,1,6,8.36,12.92,12.92,0,0,1-8.67,14.12c-1.05.37-2.14.65-3.19.92l-.73.19v3.13A1,1,0,0,1,203.67,176.41Zm-6.35-2h5.35v-2.9a1,1,0,0,1,.74-1l1.49-.39c1.06-.28,2.07-.54,3-.88a11,11,0,0,0,5.44-4,10.76,10.76,0,0,0,1.89-8,8.07,8.07,0,0,0-4.86-6.79,27,27,0,0,0-6-1.92l-.64-.15-.25-.06a1,1,0,0,1-.77-1v-9.95a1,1,0,0,1,1.43-.9,6.47,6.47,0,0,1,3.92,5h6c0-.36-.08-.72-.14-1.07a10,10,0,0,0-3.55-6.23,14.57,14.57,0,0,0-6.42-3,1.44,1.44,0,0,1-1.27-1.56c0-1.11,0-2.21,0-3.32v-.75h-5.35v4.33a1,1,0,0,1-.8,1l-.18,0-.25,0c-.42.11-.85.2-1.28.29a20.61,20.61,0,0,0-2.58.7,10.42,10.42,0,0,0-6.32,6.26,11.6,11.6,0,0,0-.44,6.31,7.94,7.94,0,0,0,2.26,4.42,9.78,9.78,0,0,0,4.16,2.35c1.07.34,2.16.65,3.24,1l1.44.41a1,1,0,0,1,.72,1v10.66a1,1,0,0,1-.39.8,1,1,0,0,1-.87.17,7,7,0,0,1-5.4-5.79h-6a10.75,10.75,0,0,0,1.69,5.27,11.35,11.35,0,0,0,6,4.51c.89.31,1.82.55,2.8.79l1.39.37a1,1,0,0,1,.74,1Zm6.38-9a1,1,0,0,1-.65-.24,1,1,0,0,1-.35-.76v-9.26a1,1,0,0,1,.46-.84,1,1,0,0,1,1-.07l1,.42a16.25,16.25,0,0,1,2.19,1.05,4.41,4.41,0,0,1,2.14,3.57,5.42,5.42,0,0,1-1.84,4.47,7.74,7.74,0,0,1-3.72,1.65Zm1-8.75v6.46a5.38,5.38,0,0,0,1.61-.92,3.46,3.46,0,0,0,1.12-2.78,2.51,2.51,0,0,0-1.19-2A13.78,13.78,0,0,0,204.7,156.69Zm-8.41-10a1,1,0,0,1-.38-.07l-.83-.33a18.72,18.72,0,0,1-1.8-.77,4.37,4.37,0,0,1-2.4-3.76,5,5,0,0,1,2.05-4.42,15.85,15.85,0,0,1,2-1.05c.31-.14.61-.28.92-.44a1,1,0,0,1,1.45.9v8.94a1,1,0,0,1-.44.83A1,1,0,0,1,196.29,146.69Zm-1-8.36A8.73,8.73,0,0,0,194,139a3,3,0,0,0-1.17,2.63,2.46,2.46,0,0,0,1.31,2.1c.35.18.72.33,1.11.49Z" fill="#093f68"/><path d="M149.86,167.59H109.32a1,1,0,1,1,0-2h40.54a1,1,0,0,1,0,2Z" fill="#093f68"/><path d="M155.12,128.92H118.33a1,1,0,0,1,0-2h36.79a1,1,0,1,1,0,2Z" fill="#093f68"/><path d="M143.24,118.79H107.63a1,1,0,0,1,0-2h35.61a1,1,0,0,1,0,2Z" fill="#093f68"/><path d="M157.74,180.07h-29a1,1,0,0,1,0-2h29a1,1,0,0,1,0,2Z" fill="#093f68"/></g></svg>