<svg id="_250_money_transfer_outline" data-name="#250_money_transfer_outline" xmlns="http://www.w3.org/2000/svg" viewBox="0 0 400 300"><path d="M135.58,115.34a64.81,64.81,0,0,0,19.36-2.86c10.16-3.17,19.36-12.38,22.22-13.33s44.76,12.71,53.33,8.1,5.71-12.54-1.91-15.72S181.92,71.85,173,70.9s-37.45,8.57-37.45,8.57Z" fill="#ffc9b0"/><path d="M136.38,116.35h-.84a1,1,0,0,1-1-1V79.47a1,1,0,0,1,.68-1c1.18-.39,28.89-9.57,37.88-8.61,8.49.9,42.82,15.26,54.1,20l1.73.73c4.6,1.92,7.57,5.43,7.76,9.16.16,3.3-1.89,6.27-5.77,8.36-5.6,3-22.56-.8-41-5.33-5.7-1.41-11.61-2.87-12.57-2.69a28.38,28.38,0,0,0-4.6,3.13c-4.28,3.21-10.74,8.05-17.6,10.2A66.55,66.55,0,0,1,136.38,116.35Zm.2-36.16v34.15a65.28,65.28,0,0,0,18.06-2.81c6.53-2,12.83-6.77,17-9.89,2.36-1.78,4.08-3.06,5.2-3.44s4.26.34,13.65,2.65c12.77,3.15,34.14,8.42,39.52,5.52,3.17-1.7,4.84-4,4.72-6.5-.15-2.91-2.71-5.82-6.53-7.42l-1.74-.72c-30.08-12.58-48.09-19.25-53.53-19.84C165.13,71.06,141,78.77,136.58,80.19Z" fill="#093f68"/><rect x="182.49" y="55.35" width="57.21" height="119.99" transform="translate(231.79 -124.32) rotate(66.28)" fill="#70cc40"/><path d="M167.68,166.67a1,1,0,0,1-.92-.6l-23-52.38a1,1,0,0,1,0-.76,1,1,0,0,1,.53-.56L254.11,64.11a1,1,0,0,1,1.32.52l23,52.37a1,1,0,0,1-.51,1.32L168.08,166.58A1,1,0,0,1,167.68,166.67ZM146,113.8l22.21,50.55,108-47.46L254,66.35Z" fill="#093f68"/><path d="M253.71,82.08l10.71,24.39A8,8,0,0,0,260.33,117a5.43,5.43,0,0,0,.3.59l-81.4,35.77a4.8,4.8,0,0,0-.24-.63,8,8,0,0,0-10.5-4.09l-10.72-24.4a8,8,0,0,0,4.09-10.5c-.09-.21-.19-.41-.29-.6L243,77.36a6.62,6.62,0,0,0,.24.62A8,8,0,0,0,253.71,82.08Z" fill="#70cc40"/><path d="M179.23,154.34a1.06,1.06,0,0,1-.42-.09,1,1,0,0,1-.53-.62c-.06-.17-.13-.34-.2-.52a7,7,0,0,0-9.19-3.58,1,1,0,0,1-.77,0,1.05,1.05,0,0,1-.55-.53l-10.72-24.39a1,1,0,0,1,.52-1.32,7,7,0,0,0,3.58-9.19c-.08-.18-.17-.36-.26-.53a1,1,0,0,1-.07-.8,1,1,0,0,1,.55-.59l81.39-35.76a1,1,0,0,1,1.36.63,3.59,3.59,0,0,0,.2.51,6.95,6.95,0,0,0,9.18,3.58,1,1,0,0,1,1.32.51l10.72,24.4a1,1,0,0,1,0,.76,1,1,0,0,1-.52.56,6.95,6.95,0,0,0-3.58,9.18,3.85,3.85,0,0,0,.24.5,1,1,0,0,1,.09.81,1,1,0,0,1-.55.61l-81.4,35.76A.93.93,0,0,1,179.23,154.34Zm-7.55-7.4a9,9,0,0,1,8.09,5.07l79.52-34.94A9,9,0,0,1,263.13,106l-10-22.67a9,9,0,0,1-10.75-4.65l-79.51,34.93a9,9,0,0,1-3.84,11.07l10,22.66A9,9,0,0,1,171.68,146.94Z" fill="#093f68"/><path d="M215.07,129.71l-.94-2.14c-.87.13-1.7.3-2.53.37a7.2,7.2,0,0,1-4.63-1.08,7,7,0,0,1-2.59-3.18l4.17-1.83a3.63,3.63,0,0,0,3.92,2L210,118.15c-.95.13-1.88.26-2.82.37a6.43,6.43,0,0,1-3-.32,5.21,5.21,0,0,1-2.5-2,7.43,7.43,0,0,1-1.34-3.75,6.64,6.64,0,0,1,2.07-5.24,19.21,19.21,0,0,1,1.87-1.47l.23-.17-1.24-2.83,3.9-1.71.12.27c.36.81.72,1.62,1.07,2.43.08.21.17.24.38.2a8.94,8.94,0,0,1,4.39.1,6.41,6.41,0,0,1,3.66,2.71c.24.36.44.74.67,1.13l-4.24,1.86a3.25,3.25,0,0,0-3-1.88l2.32,5.29.5-.1a16.81,16.81,0,0,1,3.8-.4,5.28,5.28,0,0,1,4.65,2.76,6.93,6.93,0,0,1-1.2,8.81c-.66.61-1.4,1.15-2.14,1.75L219,128Zm-.8-12.47,2.16,4.92a4,4,0,0,0,1.39-1.52,2.36,2.36,0,0,0-1.59-3.37A15.87,15.87,0,0,0,214.27,117.24Zm-6.15-3.32L206,109.17a15.51,15.51,0,0,0-1.15,1.41,2.25,2.25,0,0,0,1.63,3.38C207,114,207.56,113.94,208.12,113.92Z" fill="#093f68"/><rect x="125.41" y="75.98" width="10.16" height="45.71" fill="#fff"/><path d="M135.58,122.69H125.41a1,1,0,0,1-1-1V76a1,1,0,0,1,1-1h10.17a1,1,0,0,1,1,1v45.71A1,1,0,0,1,135.58,122.69Zm-9.17-2h8.17V77h-8.17Z" fill="#093f68"/><rect x="85.1" y="73.41" width="41.59" height="53.07" fill="#68e1fd"/><path d="M126.69,127.48H85.1a1,1,0,0,1-1-1V73.41a1,1,0,0,1,1-1h41.59a1,1,0,0,1,1,1v53.07A1,1,0,0,1,126.69,127.48Zm-40.59-2h39.59V74.41H86.1Z" fill="#093f68"/><path d="M147.64,108.67c1,.32,11.11,10.16,18.41,13s24.76,12.68,29.52,7.93,4.76-9.84,0-12.69-20.95-13.34-23.49-20" fill="#ffc9b0"/><path d="M191.62,131.9c-5.45,0-13.48-3.68-20.28-6.79-2.23-1-4.15-1.9-5.65-2.49-5.44-2.13-12.33-8-16-11.08-1.05-.89-2.15-1.81-2.41-2a1,1,0,0,1-.59-1.25,1,1,0,0,1,1.31-.62c.4.14.89.53,3,2.3,3.62,3,10.35,8.73,15.47,10.73,1.56.61,3.51,1.5,5.76,2.54,7.26,3.32,19.42,8.89,22.69,5.62,2.36-2.35,3.51-4.82,3.24-7a5.76,5.76,0,0,0-3-4.17c-.86-.51-20.91-12.61-23.91-20.5a1,1,0,1,1,1.87-.71c2.2,5.8,16,15.29,23.06,19.5a7.67,7.67,0,0,1,4,5.63c.34,2.77-1,5.83-3.81,8.62A6.32,6.32,0,0,1,191.62,131.9Z" fill="#093f68"/><path d="M272.23,176.28s-21-6.86-25-9.64c-8.15-5.65-35.69-4.56-42.62-2s-8.13,4.68-4.3,7.85,21.9,3.58,22.22,6.43S196.19,185,191,184.06s-22.64-12.7-25.82-11.74-7.22,3.81-5.35,8.88,20.36,21.05,26.88,23.81c14.52,6.14,84.19,7.65,84.19,7.65Z" fill="#ffc9b0"/><path d="M270.9,213.66h0c-2.86-.06-70-1.59-84.56-7.73-6.78-2.86-25.42-18.9-27.43-24.38a7,7,0,0,1,.14-5.72c1.45-2.88,4.58-4.09,5.86-4.47,2-.61,6.79,1.89,14.38,6,4.77,2.6,9.71,5.28,11.91,5.69,5.41,1,27.56-2.14,30.19-4.19-1-.76-5.9-1.6-9.23-2.16-5.13-.87-10.43-1.77-12.5-3.48-1.22-1-2.8-2.57-2.48-4.45s2.44-3.42,7.06-5.12c7-2.57,35-3.81,43.54,2.14,3.86,2.67,24.57,9.45,24.78,9.51a1,1,0,0,1,.69,1L271.9,212.7A1,1,0,0,1,270.9,213.66ZM165.71,173.25a.82.82,0,0,0-.24,0c-.81.25-3.52,1.21-4.65,3.45a5.11,5.11,0,0,0-.06,4.14c1.68,4.55,19.64,20.4,26.34,23.23,13.25,5.6,74.3,7.33,82.83,7.55L271.2,177c-3.78-1.25-20.86-7-24.57-9.54-3.39-2.34-11.12-3.77-21.22-3.9-8.42-.12-17,.73-20.5,2-4.55,1.67-5.66,2.87-5.78,3.58s.89,1.83,1.78,2.56c1.66,1.38,6.92,2.27,11.56,3.05,7.07,1.2,10.77,1.93,11,4a1.66,1.66,0,0,1-.6,1.43c-3.35,3.12-27.51,5.66-32.06,4.82-2.52-.46-7.37-3.1-12.51-5.9C174,176.77,167.48,173.25,165.71,173.25Z" fill="#093f68"/><rect x="267.02" y="167.9" width="47.88" height="53.07" transform="translate(581.92 388.87) rotate(-180)" fill="#68e1fd"/><path d="M314.9,222H267a1,1,0,0,1-1-1V167.9a1,1,0,0,1,1-1H314.9a1,1,0,0,1,1,1V221A1,1,0,0,1,314.9,222ZM268,220H313.9V168.9H268Z" fill="#093f68"/><path d="M279.69,222a1,1,0,0,1-1-1V167.9a1,1,0,0,1,2,0V221A1,1,0,0,1,279.69,222Z" fill="#093f68"/></svg>