<svg xmlns="http://www.w3.org/2000/svg" viewBox="0 0 400 300"><g id="_301_moscow_outline" data-name="#301_moscow_outline"><path d="M292.93,150A92.87,92.87,0,0,1,247.38,230,91.05,91.05,0,0,1,237,235.28c-1.11.49-2.23.95-3.37,1.38l-1,.4a89.78,89.78,0,0,1-12.26,3.64l-1.09.24c-1.08.23-2.17.44-3.26.62l-1,.16a90.1,90.1,0,0,1-12.26,1.17l-1.14,0c-.51,0-1,0-1.54,0l-1.72,0c-.32,0-.64,0-1,0a87,87,0,0,1-12.26-1.16c-.39-.05-.79-.12-1.18-.19-1.09-.18-2.18-.39-3.26-.63l-.91-.2a90.2,90.2,0,0,1-12.26-3.64l-1.23-.47c-1.14-.44-2.26-.9-3.37-1.39a89.6,89.6,0,0,1-10.41-5.35,93.25,93.25,0,0,1-38.88-45.66,92.23,92.23,0,0,1-6.29-28.11q-.19-3-.2-6.08a92.93,92.93,0,0,1,90.29-92.89l1.15,0c.5,0,1,0,1.49,0s.87,0,1.31,0,.77,0,1.15,0A92.94,92.94,0,0,1,292.93,150Z" fill="#fff"/><path d="M200,243.93l-1.69,0h-.38l-.67,0a89.32,89.32,0,0,1-12.36-1.17c-.37-.05-.79-.12-1.2-.2-1.1-.18-2.21-.39-3.3-.63l-.92-.21A92.67,92.67,0,0,1,167.1,238l-1.24-.48c-1.2-.46-2.32-.92-3.41-1.4a90.13,90.13,0,0,1-10.52-5.41,94.63,94.63,0,0,1-39.3-46.15,93.53,93.53,0,0,1-6.36-28.42c-.13-2.07-.2-4.14-.2-6.14a93.92,93.92,0,0,1,91.26-93.89l1.18,0c.89,0,1.88,0,2.85,0,.32,0,.73,0,1.13,0A93.95,93.95,0,0,1,293.93,150a94.4,94.4,0,0,1-46,80.81,93.09,93.09,0,0,1-10.52,5.39c-1.14.5-2.29,1-3.42,1.4l-1,.4a91.81,91.81,0,0,1-12.39,3.68l-1.1.24c-1.15.24-2.26.45-3.31.63l-.9.14-.11,0a92.11,92.11,0,0,1-12.38,1.18l-1.14,0C201.06,243.93,200.52,243.93,200,243.93Zm0-185.86c-.47,0-.94,0-1.41,0l-1.14,0A91.92,91.92,0,0,0,108.07,150c0,2,.07,4,.2,6a91.08,91.08,0,0,0,6.22,27.8A92.63,92.63,0,0,0,153,229a88.65,88.65,0,0,0,10.3,5.29c1.07.48,2.16.93,3.33,1.38l1.21.46a89.12,89.12,0,0,0,12.14,3.6l.89.2c1.07.24,2.14.45,3.22.62.39.07.77.14,1.15.19a86.59,86.59,0,0,0,12.15,1.15l.64,0h.33l1.73,0c.48,0,1,0,1.46,0l1.15,0a90.35,90.35,0,0,0,12.13-1.16l.12,0,.86-.13c1-.17,2.11-.38,3.23-.62l1.08-.24a88.41,88.41,0,0,0,12.13-3.6c.34-.12.69-.25,1-.39,1.11-.42,2.23-.88,3.34-1.37a90.8,90.8,0,0,0,10.3-5.27A92.42,92.42,0,0,0,291.93,150a91.93,91.93,0,0,0-89.5-91.9c-.36,0-.73,0-1.09,0s-.93,0-1.34,0Z" fill="#093f68"/><path d="M247.38,205.81V230A91.05,91.05,0,0,1,237,235.28c-1.11.49-2.23.95-3.37,1.38l-1,.4a89.78,89.78,0,0,1-12.26,3.64l-1.09.24c-1.08.23-2.17.44-3.26.62l-1,.16a90.1,90.1,0,0,1-12.26,1.17l-1.14,0c-.51,0-1,0-1.54,0l-1.72,0c-.32,0-.64,0-1,0a87,87,0,0,1-12.26-1.16c-.39-.05-.79-.12-1.18-.19-1.09-.18-2.18-.39-3.26-.63l-.91-.2a90.2,90.2,0,0,1-12.26-3.64l-1.23-.47c-1.14-.44-2.26-.9-3.37-1.39a89.6,89.6,0,0,1-10.41-5.35v-24Z" fill="#68e1fd"/><path d="M200,243.93l-1.69,0h-.38l-.67,0a89.32,89.32,0,0,1-12.36-1.17c-.37-.05-.79-.12-1.2-.2-1.1-.18-2.21-.39-3.3-.63l-.92-.21A92.67,92.67,0,0,1,167.1,238l-1.24-.48c-1.2-.46-2.32-.92-3.41-1.4a90.13,90.13,0,0,1-10.52-5.41,1,1,0,0,1-.49-.86v-24a1,1,0,0,1,1-1h94.94a1,1,0,0,1,1,1V230a1,1,0,0,1-.49.86,93.09,93.09,0,0,1-10.52,5.39c-1.14.5-2.29,1-3.42,1.4l-1,.4a91.81,91.81,0,0,1-12.39,3.68l-1.1.24c-1.15.24-2.26.45-3.31.63l-.9.14-.11,0a92.11,92.11,0,0,1-12.38,1.18l-1.14,0C201.06,243.93,200.52,243.93,200,243.93Zm-46.56-14.65a87.91,87.91,0,0,0,9.81,5c1.07.48,2.16.93,3.33,1.38l1.21.46a89.12,89.12,0,0,0,12.14,3.6l.89.2c1.07.24,2.14.45,3.22.62.39.07.77.14,1.15.19a86.59,86.59,0,0,0,12.15,1.15l.64,0h.33l1.73,0c.48,0,1,0,1.46,0l1.15,0a90.35,90.35,0,0,0,12.13-1.16l.12,0,.86-.13c1-.17,2.11-.38,3.23-.62l1.08-.24a88.41,88.41,0,0,0,12.13-3.6c.34-.12.69-.25,1-.39,1.11-.42,2.23-.88,3.34-1.37a91.22,91.22,0,0,0,9.81-5V206.81H153.44Z" fill="#093f68"/><rect x="170.78" y="161.07" width="58.26" height="10" fill="#68e1fd"/><path d="M229,172.07H170.78a1,1,0,0,1-1-1v-10a1,1,0,0,1,1-1H229a1,1,0,0,1,1,1v10A1,1,0,0,1,229,172.07Zm-57.26-2H228v-8H171.78Z" fill="#093f68"/><rect x="183.42" y="111.85" width="32.99" height="17.87" fill="#68e1fd"/><path d="M216.4,130.72h-33a1,1,0,0,1-1-1V111.85a1,1,0,0,1,1-1h33a1,1,0,0,1,1,1v17.87A1,1,0,0,1,216.4,130.72Zm-32-2h31V112.85h-31Z" fill="#093f68"/><polygon points="183.42 111.85 216.4 111.85 199.91 47.1 183.42 111.85" fill="#68e1fd"/><path d="M216.4,112.85h-33a1,1,0,0,1-1-1.25l16.49-64.75a1,1,0,0,1,1.94,0l16.49,64.75a1,1,0,0,1-1,1.25Zm-31.7-2h30.42l-15.21-59.7Z" fill="#093f68"/><polygon points="175.17 119.22 183.42 111.85 191.66 119.22 191.66 147.59 175.17 147.59 175.17 119.22" fill="#68e1fd"/><path d="M191.66,148.58H175.17a1,1,0,0,1-1-1V119.22a1,1,0,0,1,.33-.75l8.25-7.37a1,1,0,0,1,1.33,0l8.25,7.37a1,1,0,0,1,.33.75v28.36A1,1,0,0,1,191.66,148.58Zm-15.49-2h14.49V119.67l-7.24-6.48-7.25,6.48Z" fill="#093f68"/><polygon points="191.66 119.22 199.91 111.85 208.16 119.22 208.16 147.59 191.66 147.59 191.66 119.22" fill="#68e1fd"/><path d="M208.16,148.58h-16.5a1,1,0,0,1-1-1V119.22a1,1,0,0,1,.34-.75l8.24-7.37a1,1,0,0,1,1.34,0l8.24,7.37a1,1,0,0,1,.34.75v28.36A1,1,0,0,1,208.16,148.58Zm-15.5-2h14.5V119.67l-7.25-6.48-7.25,6.48Z" fill="#093f68"/><polygon points="208.16 119.22 216.4 111.85 224.65 119.22 224.65 147.59 208.16 147.59 208.16 119.22" fill="#68e1fd"/><path d="M224.65,148.58H208.16a1,1,0,0,1-1-1V119.22a1,1,0,0,1,.33-.75l8.25-7.37a1,1,0,0,1,1.33,0l8.25,7.37a1,1,0,0,1,.33.75v28.36A1,1,0,0,1,224.65,148.58Zm-15.49-2h14.49V119.67l-7.25-6.48-7.24,6.48Z" fill="#093f68"/><rect x="175.17" y="147.58" width="49.48" height="13.48" fill="#68e1fd"/><path d="M224.65,162.07H175.17a1,1,0,0,1-1-1V147.58a1,1,0,0,1,1-1h49.48a1,1,0,0,1,1,1v13.49A1,1,0,0,1,224.65,162.07Zm-48.48-2h47.48V148.58H176.17Z" fill="#093f68"/><rect x="172.8" y="171.07" width="54.22" height="34.74" fill="#68e1fd"/><path d="M227,206.81H172.8a1,1,0,0,1-1-1V171.07a1,1,0,0,1,1-1H227a1,1,0,0,1,1,1v34.74A1,1,0,0,1,227,206.81Zm-53.22-2H226V172.07H173.8Z" fill="#093f68"/><path d="M219.56,182.6a1,1,0,0,1-1-1c0-4.37-5-9.31-9.78-14.09-3.71-3.69-7.27-7.23-8.92-10.72-1.68,3.44-5.17,6.94-8.81,10.59-4.81,4.82-9.79,9.81-9.79,14.22a1,1,0,1,1-2,0c0-5.24,5.27-10.52,10.37-15.64,4.53-4.53,9.21-9.22,9.28-13.13a1,1,0,0,1,1-1,1,1,0,0,1,1,1h0c-.07,3.93,4.69,8.66,9.28,13.23,5.1,5.07,10.37,10.31,10.37,15.51A1,1,0,0,1,219.56,182.6Z" fill="#093f68"/><circle cx="199.91" cy="183.79" r="19.65" fill="#68e1fd"/><path d="M199.91,204.45a20.66,20.66,0,1,1,20.65-20.66A20.68,20.68,0,0,1,199.91,204.45Zm0-39.31a18.66,18.66,0,1,0,18.65,18.65A18.67,18.67,0,0,0,199.91,165.14Z" fill="#093f68"/><ellipse cx="199.91" cy="152.85" rx="1.97" ry="2.46" fill="#093f68"/><path d="M199.91,156.3a3.49,3.49,0,1,1,3-3.45A3.24,3.24,0,0,1,199.91,156.3Zm0-4.91c-.52,0-1,.68-1,1.46s.45,1.45,1,1.45,1-.68,1-1.45S200.43,151.39,199.91,151.39Z" fill="#093f68"/><path d="M192.31,112.85h-.11a1,1,0,0,1-.88-1.1l7.39-65.26a1,1,0,1,1,2,.22L193.3,112A1,1,0,0,1,192.31,112.85Z" fill="#093f68"/><path d="M207.51,112.85a1,1,0,0,1-1-.89L199.13,46.7a1,1,0,1,1,2-.22l7.39,65.26a1,1,0,0,1-.88,1.1Z" fill="#093f68"/><path d="M212.44,184.79H199.56a1,1,0,0,1-.85-.47l-5.79-9.3a1,1,0,0,1,1.7-1.06l5.49,8.83h12.33a1,1,0,0,1,0,2Z" fill="#093f68"/><path d="M237,205.81v29.47c-1.11.49-2.23.95-3.37,1.38l-1,.4a89.78,89.78,0,0,1-12.26,3.64l-1.09.24c-1.08.23-2.17.44-3.26.62l-1,.16a90.1,90.1,0,0,1-12.26,1.17l-1.14,0c-.51,0-1,0-1.54,0l-1.72,0c-.32,0-.64,0-1,0a87,87,0,0,1-12.26-1.16c-.39-.05-.79-.12-1.18-.19-1.09-.18-2.18-.39-3.26-.63l-.91-.2a90.2,90.2,0,0,1-12.26-3.64l-1.23-.47c-1.14-.44-2.26-.9-3.37-1.39V205.81Z" fill="#68e1fd"/><path d="M200,243.93l-1.69,0h-.38l-.67,0a89.32,89.32,0,0,1-12.36-1.17c-.37-.05-.79-.12-1.2-.2-1.1-.18-2.21-.39-3.3-.63l-.92-.21A92.67,92.67,0,0,1,167.1,238l-1.24-.48c-1.2-.46-2.32-.92-3.41-1.4a1,1,0,0,1-.6-.92V205.81a1,1,0,0,1,1-1H237a1,1,0,0,1,1,1v29.47a1,1,0,0,1-.6.91c-1.14.51-2.29,1-3.42,1.41l-1,.4a91.81,91.81,0,0,1-12.39,3.68l-1.1.24c-1.15.24-2.26.45-3.31.63l-.9.14-.11,0a92.11,92.11,0,0,1-12.38,1.18l-1.14,0C201.06,243.93,200.52,243.93,200,243.93Zm-36.15-9.38c.88.37,1.78.74,2.73,1.11l1.21.46a89.12,89.12,0,0,0,12.14,3.6l.89.2c1.07.24,2.14.45,3.22.62.39.07.77.14,1.15.19a86.59,86.59,0,0,0,12.15,1.15l.64,0h.33l1.73,0c.48,0,1,0,1.46,0l1.15,0a90.35,90.35,0,0,0,12.13-1.16l.12,0,.86-.13c1-.17,2.11-.38,3.23-.62l1.08-.24a88.41,88.41,0,0,0,12.13-3.6c.34-.12.69-.25,1-.39.91-.34,1.83-.71,2.74-1.11V206.81H163.85Z" fill="#093f68"/><rect x="167.36" y="166.77" width="5.44" height="39.04" fill="#68e1fd"/><path d="M172.8,206.81h-5.44a1,1,0,0,1-1-1v-39a1,1,0,0,1,1-1h5.44a1,1,0,0,1,1,1v39A1,1,0,0,1,172.8,206.81Zm-4.44-2h3.44v-37h-3.44Z" fill="#093f68"/><polygon points="167.36 166.77 172.8 166.77 170.08 140.27 167.36 166.77" fill="#68e1fd"/><path d="M172.8,167.77h-5.44a1,1,0,0,1-.74-.33,1,1,0,0,1-.25-.77l2.72-26.5a1,1,0,0,1,2,0l2.72,26.5a1,1,0,0,1-.25.77A1,1,0,0,1,172.8,167.77Zm-4.33-2h3.22l-1.61-15.7Z" fill="#093f68"/><circle cx="170.08" cy="138.08" r="2.2" fill="#093f68"/><path d="M170.08,141.27a3.2,3.2,0,1,1,3.2-3.19A3.2,3.2,0,0,1,170.08,141.27Zm0-4.39a1.2,1.2,0,1,0,1.2,1.2A1.2,1.2,0,0,0,170.08,136.88Z" fill="#093f68"/><rect x="227.02" y="166.77" width="5.44" height="39.04" fill="#68e1fd"/><path d="M232.46,206.81H227a1,1,0,0,1-1-1v-39a1,1,0,0,1,1-1h5.44a1,1,0,0,1,1,1v39A1,1,0,0,1,232.46,206.81Zm-4.44-2h3.44v-37H228Z" fill="#093f68"/><polygon points="227.02 166.77 232.46 166.77 229.74 140.27 227.02 166.77" fill="#68e1fd"/><path d="M232.46,167.77H227a1,1,0,0,1-.74-.33,1,1,0,0,1-.25-.77l2.72-26.5a1,1,0,0,1,2,0l2.72,26.5a1,1,0,0,1-.25.77A1,1,0,0,1,232.46,167.77Zm-4.33-2h3.22l-1.61-15.7Z" fill="#093f68"/><circle cx="229.74" cy="138.08" r="2.2" fill="#093f68"/><path d="M229.74,141.27a3.2,3.2,0,1,1,3.2-3.19A3.2,3.2,0,0,1,229.74,141.27Zm0-4.39a1.2,1.2,0,1,0,1.2,1.2A1.2,1.2,0,0,0,229.74,136.88Z" fill="#093f68"/><path d="M179.71,226.27V240.7a90.2,90.2,0,0,1-12.26-3.64V226.27c0-10,6.13-13.7,6.13-13.7S179.71,216.3,179.71,226.27Z" fill="#093f68"/><path d="M179.71,241.7l-.22,0A93.89,93.89,0,0,1,167.1,238a1,1,0,0,1-.65-.94V226.27c0-10.41,6.34-14.39,6.61-14.55a1,1,0,0,1,1,0c.27.16,6.61,4.14,6.61,14.55V240.7a1,1,0,0,1-1,1Zm-11.26-5.34a90.48,90.48,0,0,0,10.26,3.09V226.27c0-7.65-3.72-11.35-5.13-12.47-1.4,1.12-5.13,4.81-5.13,12.47Z" fill="#093f68"/><path d="M197.32,226.27v16.61a87,87,0,0,1-12.26-1.16V226.27c0-10,6.13-13.7,6.13-13.7S197.32,216.3,197.32,226.27Z" fill="#093f68"/><path d="M197.32,243.88h0a89.31,89.31,0,0,1-12.4-1.17,1,1,0,0,1-.84-1V226.27c0-10.41,6.34-14.39,6.61-14.55a1,1,0,0,1,1,0c.27.16,6.61,4.14,6.61,14.55v16.61a1,1,0,0,1-1,1Zm-11.26-3a85.25,85.25,0,0,0,10.26,1V226.27c0-7.65-3.72-11.35-5.13-12.47-1.4,1.12-5.13,4.81-5.13,12.47Z" fill="#093f68"/><path d="M214.94,226.27v15.45a90.1,90.1,0,0,1-12.26,1.17V226.27c0-10,6.13-13.7,6.13-13.7S214.94,216.3,214.94,226.27Z" fill="#093f68"/><path d="M202.68,243.89a1,1,0,0,1-1-1V226.27c0-10.41,6.34-14.39,6.61-14.55a1,1,0,0,1,1,0c.27.16,6.61,4.14,6.61,14.55v15.45a1,1,0,0,1-.84,1,92.41,92.41,0,0,1-12.39,1.18Zm6.13-30.09c-1.4,1.12-5.13,4.81-5.13,12.47v15.59a91.08,91.08,0,0,0,10.26-1v-14.6C213.94,218.62,210.22,214.92,208.81,213.8Zm6.13,27.92h0Z" fill="#093f68"/><path d="M232.55,226.27v10.79a89.78,89.78,0,0,1-12.26,3.64V226.27c0-10,6.13-13.7,6.13-13.7S232.55,216.3,232.55,226.27Z" fill="#093f68"/><path d="M220.29,241.7a1,1,0,0,1-1-1V226.27c0-10.41,6.34-14.39,6.61-14.55a1,1,0,0,1,1,0c.27.16,6.61,4.14,6.61,14.55v10.79a1,1,0,0,1-.65.94,91.81,91.81,0,0,1-12.39,3.68Zm6.13-27.9c-1.4,1.12-5.13,4.81-5.13,12.47v13.18a89.67,89.67,0,0,0,10.26-3.09V226.27C231.55,218.62,227.83,214.92,226.42,213.8Zm6.13,23.26h0Z" fill="#093f68"/><polygon points="152.44 205.07 163.03 205.07 157.73 166.9 152.44 205.07" fill="#68e1fd"/><path d="M163,206.07H152.44a1,1,0,0,1-1-1.13l5.29-38.17a1,1,0,0,1,2,0l5.3,38.17a1,1,0,0,1-.24.79A1,1,0,0,1,163,206.07Zm-9.44-2h8.29l-4.15-29.89Z" fill="#093f68"/><circle cx="157.73" cy="164.71" r="2.2" fill="#093f68"/><path d="M157.73,167.9a3.2,3.2,0,1,1,3.2-3.19A3.19,3.19,0,0,1,157.73,167.9Zm0-4.39a1.2,1.2,0,1,0,1.2,1.2A1.19,1.19,0,0,0,157.73,163.51Z" fill="#093f68"/><polygon points="236.97 205.07 247.56 205.07 242.27 166.9 236.97 205.07" fill="#68e1fd"/><path d="M247.56,206.07H237a1,1,0,0,1-.75-.34,1,1,0,0,1-.24-.79l5.3-38.17a1,1,0,0,1,2,0l5.29,38.17a1,1,0,0,1-1,1.13Zm-9.44-2h8.29l-4.14-29.89Z" fill="#093f68"/><circle cx="242.27" cy="164.71" r="2.2" fill="#093f68"/><path d="M242.27,167.9a3.2,3.2,0,1,1,3.19-3.19A3.19,3.19,0,0,1,242.27,167.9Zm0-4.39a1.2,1.2,0,1,0,0,2.39,1.2,1.2,0,0,0,0-2.39Z" fill="#093f68"/><polygon points="199.91 33.81 202.8 39.67 209.27 40.61 204.59 45.18 205.7 51.62 199.91 48.58 194.12 51.62 195.23 45.18 190.55 40.61 197.02 39.67 199.91 33.81" fill="#093f68"/><path d="M194.12,52.62a1,1,0,0,1-.58-.19,1,1,0,0,1-.4-1l1-5.93-4.3-4.19a1,1,0,0,1,.55-1.71l5.95-.86L199,33.37a1,1,0,0,1,1.8,0l2.66,5.39,5.95.86a1,1,0,0,1,.55,1.71l-4.3,4.19,1,5.93a1,1,0,0,1-.4,1,1,1,0,0,1-1.05.07l-5.32-2.79-5.32,2.79A1,1,0,0,1,194.12,52.62Zm5.79-5a1.12,1.12,0,0,1,.47.11l4,2.1-.76-4.45a1,1,0,0,1,.28-.88l3.23-3.15-4.46-.65a1,1,0,0,1-.75-.55l-2-4-2,4a1,1,0,0,1-.75.55l-4.46.65,3.23,3.15a1,1,0,0,1,.28.88l-.76,4.45,4-2.1A1.12,1.12,0,0,1,199.91,47.58Z" fill="#093f68"/><path d="M154.61,145.62H123.32c-3.68,0-6.67-2.42-6.67-5.4,0-2.28,1.78-4.31,4.4-5.07a7.78,7.78,0,0,1,6.48-4c.74-2.9,3.94-5.06,7.72-5.06a8.28,8.28,0,0,1,7.07,3.54,12,12,0,0,1,5.17-1.13c5,0,9.2,2.93,10,6.79a5.46,5.46,0,0,1,3.82,4.88C161.28,143.2,158.29,145.62,154.61,145.62Zm-26.23-12.45c-2.64,0-5,1.3-5.68,3.18a1,1,0,0,1-.72.62c-2,.43-3.33,1.77-3.33,3.25,0,1.88,2.09,3.4,4.67,3.4h31.29c2.57,0,4.67-1.52,4.67-3.4,0-1.38-1.2-2.65-3-3.16a1,1,0,0,1-.72-.87c-.3-3.16-3.85-5.64-8.08-5.64a9.82,9.82,0,0,0-5.1,1.36,1,1,0,0,1-1.46-.52c-.68-1.91-3-3.25-5.68-3.25-3.12,0-5.7,1.8-5.87,4.1a1,1,0,0,1-1,.93ZM121.77,136h0Z" fill="#dfeaef"/><path d="M144.19,136.88a1,1,0,0,1-1-.83h0a5,5,0,0,0-2-3.08,5.12,5.12,0,0,0-4.26-.15,1,1,0,0,1-.6-1.91,6.28,6.28,0,0,1,8.84,4.8,1,1,0,0,1-.82,1.16Z" fill="#dfeaef"/><path d="M278.19,175.79H257.63c-2.6,0-4.72-1.75-4.72-3.89a3.88,3.88,0,0,1,2.55-3.46c.62-2.64,3.44-4.55,6.85-4.55a8.3,8.3,0,0,1,3.27.65,5.78,5.78,0,0,1,4.77-2.24,5.45,5.45,0,0,1,5.33,3.35,5.49,5.49,0,0,1,4.24,2.63,4,4,0,0,1,3,3.62C282.91,174,280.79,175.79,278.19,175.79Zm-15.88-9.9c-2.61,0-4.79,1.49-5,3.39a1,1,0,0,1-.72.87,2.07,2.07,0,0,0-1.71,1.75c0,1,1.24,1.89,2.72,1.89h20.56c1.47,0,2.72-.87,2.72-1.89,0-.81-.79-1.55-1.92-1.8a1,1,0,0,1-.72-.62,3.55,3.55,0,0,0-3.4-1.88,1,1,0,0,1-1-.92c-.1-1.31-1.67-2.38-3.51-2.38a3.57,3.57,0,0,0-3.41,1.91,1,1,0,0,1-1.46.52A6.13,6.13,0,0,0,262.31,165.89Z" fill="#dfeaef"/><path d="M269.11,170.84a1,1,0,0,1-1-.93c-.13-2-2.5-3.11-2.52-3.12a1,1,0,0,1,.81-1.83c.15.07,3.5,1.58,3.71,4.82a1,1,0,0,1-.94,1.06Z" fill="#dfeaef"/><path d="M264.31,110.81H235c-3.47,0-6.3-2.3-6.3-5.12a5.15,5.15,0,0,1,3.58-4.61c.74-3.62,4.71-6.37,9.39-6.37a11.23,11.23,0,0,1,4.81,1,7.83,7.83,0,0,1,6.64-3.3c3.54,0,6.54,2,7.26,4.74a7.36,7.36,0,0,1,6.06,3.7c2.46.73,4.14,2.65,4.14,4.8C270.62,108.51,267.79,110.81,264.31,110.81Zm-22.6-14.1c-3.93,0-7.23,2.29-7.5,5.22a1,1,0,0,1-.72.87c-1.65.47-2.75,1.63-2.75,2.89,0,1.72,1.93,3.12,4.3,3.12h29.27c2.38,0,4.31-1.4,4.31-3.12,0-1.35-1.26-2.58-3.07-3a1,1,0,0,1-.72-.62c-.66-1.73-2.81-2.94-5.24-2.94a1,1,0,0,1-1-.92c-.16-2.12-2.54-3.78-5.42-3.78-2.47,0-4.63,1.24-5.26,3a1,1,0,0,1-1.46.52A9.07,9.07,0,0,0,241.71,96.71Z" fill="#dfeaef"/><path d="M242.73,102.12a1,1,0,0,1-.76-1.65c5.08-5.92,10.56-1.86,10.62-1.82a1,1,0,1,1-1.21,1.59c-.41-.3-4.12-2.86-7.89,1.53A1,1,0,0,1,242.73,102.12Z" fill="#dfeaef"/></g></svg>