<svg xmlns="http://www.w3.org/2000/svg" viewBox="0 0 400 300"><g id="_222_motorcycle_outline" data-name="#222_motorcycle_outline"><path d="M153.24,150.75c-2-1.09-11.6-8.05-11.6-8.05L144.12,132s51.48,15.77,54.3,19.89S200,182.13,200,182.13l-43.13-18.29S155.26,151.84,153.24,150.75Z" fill="#f56132"/><path d="M200,183.13a1,1,0,0,1-.39-.08l-43.13-18.28a1,1,0,0,1-.61-.79c-.72-5.42-2.15-11.68-3.12-12.36-2.07-1.12-11.31-7.82-11.7-8.11a1,1,0,0,1-.39-1l2.48-10.76a1,1,0,0,1,.48-.64,1,1,0,0,1,.79-.09c8.65,2.65,52,16.09,54.83,20.28s1.89,28.19,1.76,30.9a1,1,0,0,1-1,1Zm-42.22-20,41.28,17.49c.43-10.4.38-25.54-1.47-28.24s-32.9-13.08-52.74-19.18l-2.09,9.06c3.43,2.49,9.48,6.79,11,7.59C155.84,151,157.22,159.13,157.78,163.15Zm-5-11.52Zm0,0Z" fill="#093f68"/><circle cx="119.9" cy="180.63" r="37.93" fill="#093f68"/><path d="M119.9,219.56a38.93,38.93,0,1,1,38.93-38.93A39,39,0,0,1,119.9,219.56Zm0-75.86a36.93,36.93,0,1,0,36.93,36.93A37,37,0,0,0,119.9,143.7Z" fill="#093f68"/><circle cx="119.9" cy="180.63" r="21.74" fill="#fff"/><path d="M119.9,203.37a22.74,22.74,0,1,1,22.74-22.74A22.76,22.76,0,0,1,119.9,203.37Zm0-43.48a20.74,20.74,0,1,0,20.74,20.74A20.76,20.76,0,0,0,119.9,159.89Z" fill="#093f68"/><path d="M195.05,182.58S183.77,159.9,180.5,156s-15.64-2.67-15.64-2.67-46.38,18.8-51.44,23c-5.46,4.5,1.37,12.69,7.1,11.46,2.51-.54,49.79-10,49.79-10L168.49,193Z" fill="#68e1fd"/><path d="M168.49,194a1,1,0,0,1-1-1.12L169.16,179c-7.76,1.56-46.19,9.25-48.44,9.73-4,.85-8-2-9.54-5.29a6.22,6.22,0,0,1,1.6-7.92c5.12-4.22,49.8-22.36,51.7-23.13a.9.9,0,0,1,.27-.07c1.32-.14,13-1.2,16.52,3,3.31,4,14.21,25.89,14.68,26.82a1,1,0,0,1,0,.8,1,1,0,0,1-.56.57l-26.56,10.37A.94.94,0,0,1,168.49,194Zm1.82-17.23a1,1,0,0,1,1,1.12l-1.63,13.57,24-9.36c-2.2-4.38-11.16-22.1-13.94-25.45-2.37-2.85-11.23-2.66-14.63-2.33-16,6.5-47.15,19.55-51,22.76a4.28,4.28,0,0,0-1.08,5.51c1.22,2.51,4.36,4.84,7.33,4.2,2.49-.53,47.88-9.61,49.81-10Z" fill="#093f68"/><path d="M184.5,183.85c-1.09-.81-34.92-16.37-34.92-16.37l-3.77,8.08,28.05,14Z" fill="#fff"/><path d="M173.86,190.58a1,1,0,0,1-.45-.1l-28-14a1,1,0,0,1-.46-1.31l3.77-8.08a1,1,0,0,1,1.32-.49c5.67,2.61,34,15.64,35.11,16.48a1,1,0,0,1,.4.88,1,1,0,0,1-.52.8l-10.65,5.73A1,1,0,0,1,173.86,190.58ZM147.13,175.1l26.71,13.36,8.53-4.59c-5-2.47-20.89-9.81-32.31-15.06Z" fill="#093f68"/><path d="M254.54,133.1,217,146.23,202.15,156S98.46,116.19,98.64,112s43.29-4.73,46.57-3.46,4,13.1,8.6,15.65S254.85,133,254.54,133.1Z" fill="#093f68"/><path d="M202.15,157a.92.92,0,0,1-.36-.07c-.26-.1-26.23-10.06-51.84-20.41C97.5,115.28,97.58,113.28,97.64,112a2,2,0,0,1,1.07-1.6c5.71-3.74,43.94-3.88,46.86-2.75,2,.77,3,3.77,4.15,7.26s2.46,7.27,4.58,8.45c3.52,1.94,69.3,6.57,90.91,8.1l6.88.49c3.33.24,3.33.24,3.44,1.06a1,1,0,0,1-.66,1.08l-37.43,13.08L202.7,156.8A1.1,1.1,0,0,1,202.15,157ZM99.83,112c3.24,2.77,32.17,16,102.2,42.85l14.42-9.45a.88.88,0,0,1,.22-.1l33-11.55-4.62-.33c-43.43-3.06-88.3-6.45-91.74-8.34-2.8-1.55-4.24-5.81-5.5-9.56-.89-2.63-1.9-5.61-3-6s-10.9-.78-23-.29C106.81,109.79,101.08,111.19,99.83,112Z" fill="#093f68"/><path d="M251.72,123.46,217,146.23c-12.28-.86-21.2-2.58-25.74-5.86-6.13-4.41-5.49-11.82-5.49-11.82.73-7.09,4-9.64,9.46-12.73s31.57-3.82,41.66-.54S252,123.35,251.72,123.46Z" fill="#68e1fd"/><path d="M217,147.23h-.07c-13.5-.95-21.85-2.87-26.26-6-6.51-4.69-5.92-12.39-5.89-12.71.79-7.76,4.63-10.5,10-13.52,6-3.42,32.63-3.81,42.46-.62,9,2.9,15.52,7.7,15.53,9.1a1,1,0,0,1-.46.86h0l-34.72,22.78A1.1,1.1,0,0,1,217,147.23Zm-.17-33.11c-9.23,0-18.26,1-21.1,2.57-5.11,2.89-8.26,5.14-9,12,0,.26-.5,6.89,5.07,10.9,4.06,2.92,12,4.72,24.89,5.65l33.47-22c-1.62-1.39-6.09-4.59-13.61-7C232.08,114.77,224.39,114.12,216.83,114.12Z" fill="#093f68"/><circle cx="280.1" cy="180.63" r="37.93" fill="#093f68"/><path d="M280.1,219.56A38.93,38.93,0,1,1,319,180.63,39,39,0,0,1,280.1,219.56Zm0-75.86A36.93,36.93,0,1,0,317,180.63,37,37,0,0,0,280.1,143.7Z" fill="#093f68"/><circle cx="280.1" cy="180.63" r="21.74" fill="#fff"/><path d="M280.1,203.37a22.74,22.74,0,1,1,22.74-22.74A22.76,22.76,0,0,1,280.1,203.37Zm0-43.48a20.74,20.74,0,1,0,20.74,20.74A20.77,20.77,0,0,0,280.1,159.89Z" fill="#093f68"/><path d="M265.68,148.62,286,177.5a7,7,0,0,1-1.05,9.25h0a7,7,0,0,1-8.33.77L245.15,168.4Z" fill="#68e1fd"/><path d="M280.25,189.56a8,8,0,0,1-4.17-1.18l-31.45-19.13a1,1,0,0,1-.48-.74,1,1,0,0,1,.3-.83L265,147.9a1,1,0,0,1,.79-.28,1,1,0,0,1,.73.42l20.3,28.89a8,8,0,0,1-6.55,12.63Zm-33.47-21.34,30.34,18.45a6,6,0,0,0,8-8.59l-19.63-27.93Z" fill="#093f68"/><path d="M269.77,120.05s1.23-1.91-1.77-4.64-23.61-13.1-25.92-16.64,15.55-17.33,15.55-17.33,23.61,10.91,30.92,23.65c8,13.94,13.51,31.15,10.92,33.47s-12,.32-15.65,1.68-24.92,24.33-31.1,32.88-8.37,12.19-6.19,19.1L235.8,204.41,228,204c-13.14-.7-82.14-5.32-86.92-7-1.2-.42-2.55-1.07-2.81-2.31s.59-2.23,1.36-3.12c4.14-4.74,8.9-9.81,15.16-10.43a22,22,0,0,1,6.26.5c4.49.85,8.88,3,13.32,2.05,4.09-.83,8.57-1.78,12.32-3.66,7.28-3.63-3.27-19.28,1.1-25.1s64.26-33.52,73.12-34.2Z" fill="#68e1fd"/><path d="M235.8,205.41h-.05l-7.81-.41c-10.6-.56-82.13-5.27-87.2-7.06-.83-.29-3.05-1.07-3.46-3.05-.36-1.74.91-3.2,1.59-4,4.45-5.1,9.34-10.13,15.81-10.77a23.09,23.09,0,0,1,6.55.52c1.37.26,2.74.63,4.06,1,3.08.85,6,1.64,8.87,1.06,4.54-.92,8.58-1.82,12.08-3.57,3.24-1.62,2-6.63.8-11.94-1.15-4.84-2.34-9.84-.06-12.87,4.86-6.49,65.68-34,73.85-34.6l8.19-.63c0-.54-.17-1.57-1.7-2.95-1.12-1-5.26-3.41-9.65-5.93-8.73-5-15-8.75-16.43-10.91C238.69,95.41,251.42,85,257,80.65a1,1,0,0,1,1-.12c1,.45,24,11.19,31.37,24.06a117.81,117.81,0,0,1,9.52,21.28c2.41,7.46,2.82,12,1.19,13.43s-5.4,1.51-9.27,1.44c-2.58-.05-5.26-.09-6.69.44-3.09,1.14-24,23.34-30.64,32.53-6.21,8.57-8,11.88-6,18.21a1,1,0,0,1-.21,1l-10.73,12.19A1,1,0,0,1,235.8,205.41Zm-79.67-23.34c-.41,0-.83,0-1.25.06-5.75.57-10.14,5.1-14.5,10.1-.68.77-1.28,1.58-1.14,2.25s.81,1.1,2.16,1.57c4.45,1.57,70.71,6.11,86.64,6.95l7.33.39,10-11.41c-2.07-7.17.54-11.22,6.5-19.44,6.17-8.54,27.48-31.72,31.57-33.24,1.78-.66,4.52-.61,7.41-.56,3.16,0,6.75.12,7.91-.93,1.65-1.47-2.36-17-11.11-32.22-6.47-11.26-26.38-21.26-29.94-23-10.69,8.32-15.57,14.49-14.84,15.61,1.26,1.92,9.64,6.74,15.76,10.27,4.68,2.69,8.71,5,10,6.18,3.59,3.26,2,5.81,1.94,5.92a1,1,0,0,1-.76.46l-8.87.68c-8.87.68-68.41,28.48-72.4,33.8-1.72,2.28-.64,6.82.4,11.21,1.38,5.83,2.81,11.86-1.85,14.19-3.71,1.86-7.89,2.79-12.57,3.74-3.35.68-6.63-.22-9.8-1.09-1.28-.35-2.61-.71-3.91-1A25.87,25.87,0,0,0,156.13,182.07Zm113.64-62h0Zm0,0h0Z" fill="#093f68"/><circle cx="280.1" cy="180.63" r="3.13" fill="#68e1fd"/><path d="M280.1,184.76a4.13,4.13,0,1,1,4.13-4.13A4.14,4.14,0,0,1,280.1,184.76Zm0-6.26a2.13,2.13,0,1,0,2.13,2.13A2.14,2.14,0,0,0,280.1,178.5Z" fill="#093f68"/><circle cx="201.24" cy="164.69" r="8.73" fill="#093f68"/><path d="M201.24,174.42a9.73,9.73,0,1,1,9.73-9.73A9.73,9.73,0,0,1,201.24,174.42Zm0-17.46a7.73,7.73,0,1,0,7.73,7.73A7.74,7.74,0,0,0,201.24,157Z" fill="#093f68"/><path d="M283.82,141.24a1.13,1.13,0,0,1-.36-.06c-.69-.27-17-6.59-22.48-12.69a1,1,0,0,1,.07-1.41,1,1,0,0,1,1.42.08c5.14,5.74,21.55,12.08,21.71,12.15a1,1,0,0,1-.36,1.93Z" fill="#093f68"/><polygon points="257.73 121.43 249.58 108.59 244.26 110.84 249.54 124.29 257.73 121.43" fill="#093f68"/><path d="M249.54,125.29a1,1,0,0,1-.93-.64l-5.28-13.44a1,1,0,0,1,.54-1.29l5.32-2.25a1,1,0,0,1,1.23.38l8.15,12.84a1,1,0,0,1-.51,1.48l-8.18,2.86A1,1,0,0,1,249.54,125.29Zm-4-13.91L250.12,123l6.09-2.12-7-11.06Z" fill="#093f68"/><path d="M247.62,112.14l-10.36,6.23,2.27,3.91,10.64-5.84S250.81,112.14,247.62,112.14Z" fill="#68e1fd"/><path d="M239.53,123.28a1,1,0,0,1-.87-.5l-2.27-3.91a1,1,0,0,1,.35-1.36l10.37-6.23a1,1,0,0,1,.51-.14,3.28,3.28,0,0,1,2.58,1.1c1.33,1.54,1,4.06,1,4.34a1,1,0,0,1-.51.73L240,123.15A.94.94,0,0,1,239.53,123.28Zm-.92-4.56,1.29,2.21,9.32-5.11a3.62,3.62,0,0,0-.53-2.27,1.18,1.18,0,0,0-.81-.4Z" fill="#093f68"/><path d="M239.53,122.28a2.26,2.26,0,0,0,0-2.87c-1.11-1.74-2.27-1-2.27-1a2.21,2.21,0,0,0-.55,2.27C237.07,122.19,238.85,123,239.53,122.28Z" fill="#68e1fd"/><path d="M238.86,123.53a2.68,2.68,0,0,1-.72-.11,3.48,3.48,0,0,1-2.4-2.55,3.21,3.21,0,0,1,.89-3.28l.11-.08c.69-.42,2.34-.66,3.63,1.37a3.26,3.26,0,0,1-.13,4.1h0A1.94,1.94,0,0,1,238.86,123.53Zm.67-1.25h0Zm0,0h0Zm-1.71-3.06a1.48,1.48,0,0,0-.14,1.19,1.58,1.58,0,0,0,.71,1,1,1,0,0,0,.46.16,1.38,1.38,0,0,0-.16-1.58C238.27,119.3,237.94,119.22,237.82,119.22Z" fill="#093f68"/><circle cx="119.9" cy="180.63" r="3.13" fill="#68e1fd"/><path d="M119.9,184.76a4.13,4.13,0,1,1,4.13-4.13A4.13,4.13,0,0,1,119.9,184.76Zm0-6.26a2.13,2.13,0,1,0,2.13,2.13A2.13,2.13,0,0,0,119.9,178.5Z" fill="#093f68"/><rect x="105.65" y="154.15" width="48.77" height="15.2" rx="3.92" transform="translate(88.06 -41.5) rotate(27.13)" fill="#f56132"/><path d="M146.57,179.29a4.93,4.93,0,0,1-2.24-.54l-36.44-18.67a4.92,4.92,0,0,1-2.13-6.62l3.36-6.56a4.92,4.92,0,0,1,6.62-2.13l36.44,18.66a4.9,4.9,0,0,1,2.43,2.87,4.85,4.85,0,0,1-.3,3.75L151,176.61a4.94,4.94,0,0,1-4.38,2.68ZM113.5,146.23a2.93,2.93,0,0,0-2.6,1.58l-3.36,6.56a2.93,2.93,0,0,0-.18,2.23,2.9,2.9,0,0,0,1.45,1.7L145.24,177h0a3,3,0,0,0,2.23.18,2.94,2.94,0,0,0,1.7-1.45l3.36-6.56a2.93,2.93,0,0,0-1.27-3.93l-36.43-18.66A2.89,2.89,0,0,0,113.5,146.23Z" fill="#093f68"/><path d="M113.56,158.71a1,1,0,0,1-1-.87l-.82-5.86a1,1,0,0,1,.85-1.13,1,1,0,0,1,1.13.85l.82,5.87a1,1,0,0,1-.85,1.13Z" fill="#093f68"/><path d="M117.59,161a1,1,0,0,1-1-.86l-.82-5.87a1,1,0,0,1,.85-1.13,1,1,0,0,1,1.13.86l.82,5.86a1,1,0,0,1-.85,1.13Z" fill="#093f68"/><path d="M121.61,163.24a1,1,0,0,1-1-.87l-.82-5.86a1,1,0,1,1,2-.28l.82,5.87a1,1,0,0,1-.86,1.13Z" fill="#093f68"/><path d="M206.21,131.5a44.1,44.1,0,0,1-14.05-2.07,1,1,0,0,1,.69-1.88,49.21,49.21,0,0,0,29.54-.67,1,1,0,0,1,1.26.63,1,1,0,0,1-.63,1.27A53.66,53.66,0,0,1,206.21,131.5Z" fill="#093f68"/><path d="M295.47,134s-9.37-8.52-12.24-7.43-.18,4.86,4,7.43S295.65,135.83,295.47,134Z" fill="#ffbc0e"/><path d="M292.57,136.68a11.49,11.49,0,0,1-5.84-1.79c-2.76-1.69-5.91-4.55-5.68-7a2.6,2.6,0,0,1,1.83-2.2c3.19-1.21,10.95,5.53,13.26,7.62a1,1,0,0,1,.32.64,2.19,2.19,0,0,1-1.11,2.09A5.31,5.31,0,0,1,292.57,136.68Zm-8.68-9.19a.85.85,0,0,0-.3.05c-.52.19-.54.41-.55.52-.09,1,1.69,3.26,4.74,5.12,2.88,1.76,5.58,1.73,6.5,1.15h0C290.34,130.81,285.56,127.49,283.89,127.49Z" fill="#093f68"/><path d="M219.17,198.73a1,1,0,0,1-.67-.26,1,1,0,0,1-.08-1.41L270,139.57a1,1,0,0,1,1.49,1.34L219.91,198.4A1,1,0,0,1,219.17,198.73Z" fill="#093f68"/></g></svg>