<svg xmlns="http://www.w3.org/2000/svg" viewBox="0 0 400 300"><g id="_08_navigation_outline" data-name="#08_navigation_outline"><polygon points="127.82 135.34 96.25 221.08 168.13 201.73 225.43 225.84 303.75 199.28 272.95 124.03 227.01 134.84 179.59 115.19 127.82 135.34" fill="#fff"/><path d="M225.43,226.84a1.09,1.09,0,0,1-.39-.08l-57-24L96.51,222.05a1,1,0,0,1-1-.29,1,1,0,0,1-.2-1L126.88,135a1,1,0,0,1,.58-.59l51.77-20.15a1,1,0,0,1,.74,0l47.12,19.53,45.63-10.74a1,1,0,0,1,1.15.59l30.8,75.25a1,1,0,0,1,0,.79,1,1,0,0,1-.59.54l-78.32,26.55A.87.87,0,0,1,225.43,226.84Zm-57.3-26.11a1.09,1.09,0,0,1,.39.08l56.95,24,77-26.1L272.35,125.2l-45.11,10.62a1,1,0,0,1-.61,0l-47-19.5-51,19.84-30.75,83.5,70-18.84A.78.78,0,0,1,168.13,200.73Z" fill="#093f68"/><polygon points="266.43 134.85 227.01 144.33 180.18 125.66 135.43 141.14 113.74 204.48 169.51 189.97 227.01 214.87 289.84 191.75 266.43 134.85" fill="#68e1fd"/><path d="M227,215.87a1.1,1.1,0,0,1-.4-.08L169.43,191,114,205.45a1,1,0,0,1-1-.29,1,1,0,0,1-.21-1l21.69-63.35a1,1,0,0,1,.62-.62l44.76-15.47a1,1,0,0,1,.69,0l46.53,18.56,39.11-9.41a1,1,0,0,1,1.16.59l23.42,56.9a1,1,0,0,1-.58,1.32l-62.83,23.12A1.07,1.07,0,0,1,227,215.87ZM169.51,189a.93.93,0,0,1,.4.09L227,213.79l61.48-22.62L265.83,136l-38.59,9.29a1,1,0,0,1-.6-.05l-46.48-18.53-43.94,15.19-20.93,61.13,54-14A1.09,1.09,0,0,1,169.51,189Z" fill="#093f68"/><polygon points="289.84 191.75 227.01 214.88 217.43 210.73 198.06 202.33 169.52 189.97 113.74 204.49 116.85 195.35 135.43 141.14 180.18 125.67 227.01 144.33 240.47 141.09 240.49 141.09 264.84 135.22 266.43 134.84 289.84 191.75" fill="#68e1fd"/><path d="M227,215.88a.89.89,0,0,1-.39-.09L169.44,191,114,205.45a1,1,0,0,1-1-.28,1,1,0,0,1-.22-1L115.9,195l18.58-54.21a1,1,0,0,1,.62-.62l44.75-15.47a1,1,0,0,1,.7,0l46.54,18.54,13.15-3.17h.07l25.89-6.23a1,1,0,0,1,1.16.59l23.41,56.91a1,1,0,0,1,0,.78,1,1,0,0,1-.57.54l-62.83,23.12A.84.84,0,0,1,227,215.88ZM169.52,189a1.14,1.14,0,0,1,.4.08L227,213.8l61.48-22.63L265.83,136l-.75.18-24.36,5.86h-.07l-13.4,3.23a1,1,0,0,1-.61,0l-46.48-18.53-43.94,15.19-20.94,61.13,54-14.05A1,1,0,0,1,169.52,189Z" fill="#093f68"/><polygon points="191.12 188.09 193.94 199.56 169.52 189.97 113.74 204.49 115.34 199.77 162.03 170.27 191.12 188.09" fill="#f56132"/><path d="M113.74,205.49a1,1,0,0,1-.95-1.33l1.61-4.71a1,1,0,0,1,.41-.53l46.69-29.5a1,1,0,0,1,1.05,0l29.1,17.81a1.06,1.06,0,0,1,.45.62l2.81,11.48a1,1,0,0,1-.31,1,1,1,0,0,1-1,.17L169.46,191,114,205.45A.73.73,0,0,1,113.74,205.49Zm2.44-5.06-.9,2.62,54-14.05a1,1,0,0,1,.61,0l22.63,8.89-2.26-9.21L162,171.45Z" fill="#093f68"/><polygon points="227.01 144.33 240.49 141.09 237.11 161.65 207.34 176.29 164.12 145.32 125.75 169.39 135.43 141.14 180.18 125.67 227.01 144.33" fill="#70cc40"/><path d="M207.34,177.29a1,1,0,0,1-.58-.19l-42.68-30.58-37.79,23.72a1,1,0,0,1-1.16-.07,1,1,0,0,1-.32-1.1l9.67-28.26a1,1,0,0,1,.62-.62l44.75-15.47a1,1,0,0,1,.7,0l46.54,18.54,13.16-3.17a1.06,1.06,0,0,1,.92.24,1,1,0,0,1,.3.9l-3.37,20.56a1,1,0,0,1-.55.73l-29.77,14.64A1,1,0,0,1,207.34,177.29Zm-43.22-33a1,1,0,0,1,.58.18l42.74,30.63L236.21,161l3-18.57-12,2.89a1,1,0,0,1-.61,0l-46.48-18.53-43.94,15.19L127.62,167l36-22.57A1,1,0,0,1,164.12,144.32Z" fill="#093f68"/><polygon points="289.84 191.75 227.01 214.88 219.48 211.61 216.13 196.83 258.67 174.86 264.84 135.22 266.43 134.84 289.84 191.75" fill="#ffbc0e"/><path d="M227,215.88a.89.89,0,0,1-.39-.09l-7.54-3.26a1,1,0,0,1-.58-.7l-3.35-14.78a1,1,0,0,1,.52-1.11l42.09-21.73,6.1-39.14a1,1,0,0,1,.75-.82l1.59-.38a1,1,0,0,1,1.16.59l23.41,56.91a1,1,0,0,1,0,.78,1,1,0,0,1-.57.54l-62.83,23.12A.84.84,0,0,1,227,215.88Zm-6.67-5,6.7,2.9,61.48-22.63L265.83,136l-.1,0-6.08,39a1,1,0,0,1-.53.74l-41.85,21.61Z" fill="#093f68"/><path d="M207.34,48.36a32.79,32.79,0,0,0-32.8,32.8c0,18.11,32.8,67.72,32.8,67.72s32.8-49.61,32.8-67.72A32.79,32.79,0,0,0,207.34,48.36Zm.21,56.53A20.93,20.93,0,1,1,228.47,84,20.93,20.93,0,0,1,207.55,104.89Z" fill="#68e1fd"/><path d="M207.34,149.88a1,1,0,0,1-.83-.45c-1.35-2-33-50.07-33-68.27a33.8,33.8,0,1,1,67.6,0c0,18.2-31.62,66.23-33,68.27A1,1,0,0,1,207.34,149.88Zm0-100.52a31.83,31.83,0,0,0-31.8,31.8c0,16,26.7,58,31.8,65.89,5.1-7.88,31.8-49.89,31.8-65.89A31.83,31.83,0,0,0,207.34,49.36Zm.21,56.53A21.93,21.93,0,1,1,229.47,84,22,22,0,0,1,207.55,105.89Zm0-41.85A19.93,19.93,0,1,0,227.47,84,19.95,19.95,0,0,0,207.55,64Z" fill="#093f68"/><path d="M250,145.12h-.16a1,1,0,0,1-.83-1.15l.4-2.47a1,1,0,0,1,1.15-.82,1,1,0,0,1,.83,1.14l-.41,2.47A1,1,0,0,1,250,145.12Z" fill="#fff"/><path d="M247.23,162.34h-.16a1,1,0,0,1-.83-1.15l.7-4.31a1,1,0,0,1,1.15-.82,1,1,0,0,1,.83,1.14l-.71,4.31A1,1,0,0,1,247.23,162.34Zm1.4-8.61h-.16a1,1,0,0,1-.82-1.15l.7-4.31a1,1,0,0,1,2,.32l-.7,4.31A1,1,0,0,1,248.63,153.73Z" fill="#fff"/><path d="M243.86,170.17a1,1,0,0,1-.91-.58,1,1,0,0,1,.48-1.33l1.79-.83.32-2a1,1,0,0,1,2,.32l-.4,2.47a1,1,0,0,1-.56.75l-2.27,1A.92.92,0,0,1,243.86,170.17Z" fill="#fff"/><path d="M209.81,186.07a1,1,0,0,1-.42-1.9l4.25-2a1,1,0,1,1,.85,1.81l-4.25,2A1.07,1.07,0,0,1,209.81,186.07Zm8.51-4a1,1,0,0,1-.9-.58,1,1,0,0,1,.48-1.33l4.26-2A1,1,0,1,1,223,180l-4.25,2A.94.94,0,0,1,218.32,182.1Zm8.52-4a1,1,0,0,1-.91-.58,1,1,0,0,1,.48-1.33l4.26-2a1,1,0,0,1,1.33.48,1,1,0,0,1-.49,1.33l-4.25,2A1.06,1.06,0,0,1,226.84,178.12Zm8.51-4a1,1,0,0,1-.43-1.9l4.26-2a1,1,0,1,1,.84,1.81l-4.25,2A1.06,1.06,0,0,1,235.35,174.14Z" fill="#fff"/><path d="M203.75,191.58a1,1,0,0,1-1-.82l-.46-2.46a1,1,0,0,1,.56-1.09l2.26-1.05A1,1,0,1,1,206,188l-1.56.73.31,1.69a1,1,0,0,1-.8,1.17Z" fill="#fff"/><path d="M205.17,199.21a1,1,0,0,1-1-.82l-.71-3.81a1,1,0,0,1,.8-1.17,1,1,0,0,1,1.16.8l.71,3.82a1,1,0,0,1-.8,1.17Z" fill="#fff"/><path d="M206.34,205.49a1,1,0,0,1-1-.82l-.45-2.46a1,1,0,1,1,2-.36l.46,2.45a1,1,0,0,1-.8,1.17Z" fill="#fff"/><path d="M124.11,183.6a1,1,0,0,1-.86-.49,1,1,0,0,1,.35-1.37l2.16-1.27a1,1,0,0,1,1,1.73l-2.15,1.26A1,1,0,0,1,124.11,183.6Z" fill="#fff"/><path d="M130.24,180a1,1,0,0,1-.86-.49,1,1,0,0,1,.36-1.37l4-2.34a1,1,0,0,1,1,1.73l-4,2.33A.94.94,0,0,1,130.24,180Zm8-4.67a1,1,0,0,1-.87-.49,1,1,0,0,1,.36-1.37l4-2.34a1,1,0,0,1,1.36.36,1,1,0,0,1-.35,1.37l-4,2.33A.93.93,0,0,1,138.2,175.33Zm8-4.67a1,1,0,0,1-.51-1.86l4-2.34a1,1,0,0,1,1,1.73l-4,2.33A.9.9,0,0,1,146.15,170.66ZM154.1,166a1,1,0,0,1-.51-1.86l4-2.34a1,1,0,0,1,1,1.73l-4,2.33A1,1,0,0,1,154.1,166Z" fill="#fff"/><path d="M166.24,161.52a1.09,1.09,0,0,1-.59-.19l-1.5-1.08-1.59.93a1,1,0,1,1-1-1.72l2.15-1.27a1,1,0,0,1,1.09.05l2,1.46a1,1,0,0,1-.58,1.82Z" fill="#fff"/><path d="M193.8,181.34a1,1,0,0,1-.58-.18l-4.6-3.31a1,1,0,0,1,1.17-1.62l4.6,3.3a1,1,0,0,1,.22,1.4A1,1,0,0,1,193.8,181.34Zm-9.19-6.6a1.05,1.05,0,0,1-.58-.19l-4.59-3.31a1,1,0,1,1,1.16-1.62l4.6,3.3a1,1,0,0,1-.59,1.82Zm-9.19-6.62a1,1,0,0,1-.58-.18l-4.59-3.31a1,1,0,0,1-.23-1.39,1,1,0,0,1,1.4-.23l4.59,3.3a1,1,0,0,1-.59,1.81Z" fill="#fff"/><path d="M200.42,186.11a1,1,0,0,1-.58-.19l-2-1.46a1,1,0,0,1-.23-1.39,1,1,0,0,1,1.4-.23l2,1.46a1,1,0,0,1,.23,1.39A1,1,0,0,1,200.42,186.11Z" fill="#fff"/><path d="M169.51,191h-.16a1,1,0,0,1-.82-1.15L179.2,125.5a1,1,0,0,1,1.15-.83,1,1,0,0,1,.82,1.16L170.5,190.14A1,1,0,0,1,169.51,191Z" fill="#093f68"/><path d="M227,215.87a1,1,0,0,1-1-1V144.33a1,1,0,0,1,2,0v70.54A1,1,0,0,1,227,215.87Z" fill="#093f68"/></g></svg>