<svg xmlns="http://www.w3.org/2000/svg" viewBox="0 0 400 300"><g id="_283_neutral_face_outline" data-name="#283_neutral_face_outline"><path d="M286.07,152.58A86,86,0,0,1,152.56,224.4a83.62,83.62,0,0,1-8.15-6.11A86.07,86.07,0,0,1,162,75.36h0a86.25,86.25,0,0,1,66.9-3.85s0,0,0,0A86.08,86.08,0,0,1,286.07,152.58Z" fill="#fff"/><path d="M200,239.65a86.66,86.66,0,0,1-48-14.41,84,84,0,0,1-8.24-6.19A87.06,87.06,0,0,1,161.48,74.5l.08,0a87.26,87.26,0,0,1,67.68-3.89h0l.07,0A87.09,87.09,0,0,1,248,225.24a86.66,86.66,0,0,1-48,14.41ZM162.51,76.21l-.08.05a85.06,85.06,0,1,0,66.16-3.81l-.07,0a85.31,85.31,0,0,0-66,3.79Z" fill="#093f68"/><rect x="193.73" y="162.98" width="12.4" height="16.23" fill="#ffbc0e"/><path d="M206.13,180.22h-12.4a1,1,0,0,1-1-1V163a1,1,0,0,1,1-1h12.4a1,1,0,0,1,1,1v16.24A1,1,0,0,1,206.13,180.22Zm-11.4-2h10.4V164h-10.4Z" fill="#093f68"/><path d="M247.44,211.35V224.4a86,86,0,0,1-94.88,0V211.35A44.5,44.5,0,0,1,154,199.86c4.09-15.51,16.25-26.77,30.62-26.77h30.68C233.07,173.09,247.44,190.22,247.44,211.35Z" fill="#68e1fd"/><path d="M200,239.65a86.66,86.66,0,0,1-48-14.41,1,1,0,0,1-.45-.84V211.35a45.89,45.89,0,0,1,1.51-11.75c4.34-16.45,17-27.51,31.59-27.51h30.68c18.25,0,33.1,17.61,33.1,39.26V224.4a1,1,0,0,1-.45.84,86.66,86.66,0,0,1-48,14.41Zm-46.44-15.79a85,85,0,0,0,92.88,0V211.35c0-20.55-13.95-37.26-31.1-37.26H184.66c-13.63,0-25.55,10.46-29.65,26a43.61,43.61,0,0,0-1.45,11.23Zm93.88.54h0Z" fill="#093f68"/><path d="M171.22,234.71a1,1,0,0,1-1-1V202.59a1,1,0,0,1,2,0v31.12A1,1,0,0,1,171.22,234.71Z" fill="#093f68"/><path d="M228.78,234.71a1,1,0,0,1-1-1V202.59a1,1,0,0,1,2,0v31.12A1,1,0,0,1,228.78,234.71Z" fill="#093f68"/><polygon points="200 206.07 189.89 173.09 210.11 173.09 200 206.07" fill="#093f68"/><path d="M200,207.07a1,1,0,0,1-1-.71l-10.1-33a1,1,0,0,1,.15-.88,1,1,0,0,1,.8-.41h20.22a1,1,0,0,1,.8.41,1,1,0,0,1,.15.88l-10.1,33A1,1,0,0,1,200,207.07Zm-8.75-33L200,202.66l8.75-28.57Z" fill="#093f68"/><circle cx="207.8" cy="116.12" r="52.77" fill="#ffbc0e"/><path d="M207.85,169.91a53.84,53.84,0,0,1-51.12-70.64h0a53.75,53.75,0,1,1,51.12,70.64Zm-49.22-70A51.77,51.77,0,1,0,224,67a51.84,51.84,0,0,0-65.39,33Z" fill="#093f68"/><ellipse cx="226.68" cy="106.96" rx="8.52" ry="6.91" transform="translate(54.07 288.71) rotate(-71.74)" fill="#093f68"/><ellipse cx="198.07" cy="97.52" rx="8.52" ry="6.91" transform="translate(43.4 255.06) rotate(-71.74)" fill="#093f68"/><line x1="239.72" y1="132.13" x2="172.62" y2="109.99" fill="#ffbc0e"/><path d="M239.72,133.63a1.5,1.5,0,0,1-.47-.08l-67.1-22.14a1.5,1.5,0,1,1,.94-2.85l67.1,22.14a1.5,1.5,0,0,1-.47,2.93Z" fill="#093f68"/><path d="M200,239.65a1,1,0,0,1-1-1V206.07a1,1,0,0,1,2,0v32.58A1,1,0,0,1,200,239.65Z" fill="#093f68"/><path d="M216.57,227.79a1,1,0,0,1-.55-.16l-6.46-4.24a1,1,0,0,1-.45-.83V209.64a1,1,0,0,1,1-1H223a1,1,0,0,1,1,1v12.92a1,1,0,0,1-.45.83l-6.46,4.24A1,1,0,0,1,216.57,227.79ZM211.11,222l5.46,3.58L222,222V210.64H211.11Zm11.91.54h0Z" fill="#093f68"/></g></svg>