<svg id="_100_news_presenter_outline" data-name="#100_news_presenter_outline" xmlns="http://www.w3.org/2000/svg" viewBox="0 0 400 300"><path d="M296,214.7H104a1,1,0,0,1,0-2H296a1,1,0,0,1,0,2Z" fill="#093f68"/><rect x="111.2" y="107.24" width="94.09" height="66.67" fill="#fff"/><path d="M205.29,174.91H111.2a1,1,0,0,1-1-1V107.24a1,1,0,0,1,1-1h94.09a1,1,0,0,1,1,1v66.67A1,1,0,0,1,205.29,174.91Zm-93.09-2h92.09V108.24H112.2Z" fill="#093f68"/><rect x="111.2" y="99.86" width="94.09" height="7.37" fill="#fff"/><path d="M205.29,108.24H111.2a1,1,0,0,1-1-1V99.86a1,1,0,0,1,1-1h94.09a1,1,0,0,1,1,1v7.38A1,1,0,0,1,205.29,108.24Zm-93.09-2h92.09v-5.38H112.2Z" fill="#093f68"/><path d="M240.47,86.46S233.09,84,226.1,92.61c-6.54,8.06-6.19,19.62-6.52,29.23-.4,11.6-1.22,20.73-8,34.2,3.28,2.28,4,3.82,7.7,5.32,1.28-2.35,4.29-6.77,4.29-6.77a50.85,50.85,0,0,1,1,8.4,95.42,95.42,0,0,0,38.94,6.57c8.58-.37,17.65-2.06,24.79-7.11,6.3-4.45,1.48-15.89,1.75-23.06.49-13.16.29-31.55-6.52-43.51C274.64,80.23,250.79,73.05,240.47,86.46Z" fill="#725858"/><path d="M259.59,170.64a96.81,96.81,0,0,1-35.38-6.72,1,1,0,0,1-.63-1,35.09,35.09,0,0,0-.52-5.71c-1,1.45-2.17,3.34-2.85,4.6a1,1,0,0,1-1.26.45,16.77,16.77,0,0,1-5.17-3.29,33,33,0,0,0-2.72-2.14,1,1,0,0,1-.32-1.27c6.66-13.35,7.45-22.42,7.84-33.78,0-.91.06-1.84.08-2.77.25-9.14.53-19.5,6.67-27.06s12.65-7.07,14.75-6.65c4.08-4.92,10.27-7.36,17.55-6.85a34.81,34.81,0,0,1,26.78,16.9c7,12.25,7.13,31,6.65,44a41,41,0,0,0,.71,7.28c.93,6.15,2,13.12-2.88,16.57-6.29,4.45-14.57,6.83-25.32,7.28C262.25,170.61,260.92,170.64,259.59,170.64Zm-34-8.33a95.06,95.06,0,0,0,37.9,6.25c10.35-.44,18.29-2.71,24.25-6.93,3.87-2.73,2.95-8.78,2.06-14.63a42.41,42.41,0,0,1-.73-7.65c.47-12.8.33-31.18-6.39-43a32.75,32.75,0,0,0-25.17-15.9c-6.84-.47-12.6,1.87-16.24,6.6a1,1,0,0,1-1.11.34c-.28-.09-6.84-2.09-13.27,5.83-5.71,7-6,17-6.22,25.85,0,.94,0,1.87-.08,2.78-.39,11.4-1.18,20.55-7.68,33.85.87.65,1.56,1.23,2.18,1.76a15.61,15.61,0,0,0,3.82,2.61c1.42-2.43,3.78-5.9,3.89-6.06a1,1,0,0,1,1-.42,1,1,0,0,1,.78.79A57.38,57.38,0,0,1,225.58,162.31Z" fill="#093f68"/><path d="M212.06,181.6c-3.86,1.78-7.59,3.83-11.34,5.86-3.91-8.13-7.2-15-7.21-15-.45-.94-10.31-5.6-10.11-11.09.3-7.9,6-10.36,6.91-10.3,2.12.14,10.38,7.26,11.76,9.7a33.53,33.53,0,0,1,2.14-6.42c1.09-2.56,4.95-1.81,4.23,4.13s-1.29,12.9-1.29,12.9,1.53,3.17,2.24,4.66Z" fill="#ffc9b0"/><path d="M200.72,188.46a1.12,1.12,0,0,1-.31-.05,1,1,0,0,1-.59-.52l-5.28-11L192.66,173c-.22-.19-.91-.65-1.52-1.06-3.12-2.07-8.91-5.92-8.74-10.59a12.61,12.61,0,0,1,4-9.23,6.93,6.93,0,0,1,4-2c2.15.15,8.33,5.27,11.24,8.49a44.62,44.62,0,0,1,1.68-4.6,3,3,0,0,1,3.48-1.91c1.62.43,3.17,2.38,2.67,6.55-.63,5.2-1.15,11.25-1.27,12.59l4.79,10a1,1,0,0,1,0,.77,1,1,0,0,1-.52.57c-3.63,1.68-7.23,3.64-10.72,5.53l-.56.31A1,1,0,0,1,200.72,188.46ZM194.41,172l1.94,4,4.82,10c3.1-1.69,6.3-3.42,9.55-5l-4.47-9.31a.93.93,0,0,1-.09-.52c0-.07.58-7,1.29-12.93.33-2.7-.39-4.16-1.19-4.38-.44-.11-.88.19-1.13.76a33,33,0,0,0-2.07,6.2,1,1,0,0,1-1.86.32c-1.35-2.38-9.34-9.08-11-9.19-.64.06-5.57,2.28-5.84,9.34-.13,3.54,5.06,7,7.85,8.84,1.47,1,1.94,1.31,2.16,1.77Zm-1.8.88h0Z" fill="#093f68"/><path d="M198.63,166.68a1.33,1.33,0,0,1-.28,0,1,1,0,0,1-.68-1.24,10.36,10.36,0,0,1,3.85-5.47,1,1,0,0,1,1.11,1.66,8.51,8.51,0,0,0-3,4.36A1,1,0,0,1,198.63,166.68Z" fill="#093f68"/><path d="M211.06,175.3s4,10.44,5.81,14.2c4.63-4.73,13.33-17.28,17.07-20.21s12.43-4.83,14.95-4.83H265.8c9.78,0,17.71,8.63,17.71,19.29V213.7H231.19V198.8c-6.46,7-11.26,10.69-15.95,10.69a9.5,9.5,0,0,1-3.7-.78c-2.22-.92-7.32-3-15.4-25.26Z" fill="#68e1fd"/><path d="M283.51,214.7H231.19a1,1,0,0,1-1-1V201.32c-5.37,5.57-10.07,9.17-14.95,9.17a10.56,10.56,0,0,1-4.09-.85c-2.5-1-7.71-3.21-16-25.85a1,1,0,0,1,.46-1.22l14.92-8.15a1,1,0,0,1,.82-.06,1,1,0,0,1,.59.58c0,.1,3.23,8.42,5.17,12.78,1.91-2.13,4.35-5.23,6.71-8.24,3.74-4.77,7.28-9.27,9.45-11,3.94-3.09,12.86-5,15.57-5H265.8c10.32,0,18.71,9.1,18.71,20.29V213.7A1,1,0,0,1,283.51,214.7Zm-51.32-2h50.32V183.75c0-10.09-7.5-18.29-16.71-18.29H248.89c-2.52,0-10.93,1.95-14.33,4.61-2,1.56-5.61,6.18-9.12,10.64-2.83,3.61-5.76,7.34-7.86,9.48a1,1,0,0,1-.87.29,1,1,0,0,1-.74-.55c-1.49-3.08-4.36-10.43-5.43-13.2l-13.16,7.18c7.76,21.06,12.5,23,14.54,23.88a8.54,8.54,0,0,0,3.32.7c4,0,8.41-3,15.21-10.37a1,1,0,0,1,1.1-.25,1,1,0,0,1,.64.93Z" fill="#093f68"/><polygon points="258.78 166.35 254.06 201.93 249.08 166.35 258.78 166.35" fill="#fff"/><path d="M254.06,202.92a1,1,0,0,1-1-.86l-5-35.57a1,1,0,0,1,.24-.79,1,1,0,0,1,.75-.35h9.7a1,1,0,0,1,.76.34,1,1,0,0,1,.23.79l-4.72,35.58a1,1,0,0,1-1,.86Zm-3.83-35.57,3.8,27.17,3.61-27.17Z" fill="#093f68"/><path d="M254.06,202.92a1,1,0,0,1-.6-.19l-13.59-10.06a1,1,0,0,1-.14-1.47l5.61-6.21-6.2-5.9a1,1,0,0,1-.11-1.33l9.26-12a1,1,0,0,1,1.59,1.22l-8.71,11.3,6.26,6a1,1,0,0,1,0,1.39L242,191.72l12.7,9.4a1,1,0,0,1,.21,1.4A1,1,0,0,1,254.06,202.92Z" fill="#093f68"/><path d="M254.63,202.92a1,1,0,0,1-.81-.4,1,1,0,0,1,.21-1.4l12.71-9.4-5.54-6.12a1,1,0,0,1,.05-1.39l6.27-6L258.81,167a1,1,0,1,1,1.58-1.22l9.26,12a1,1,0,0,1-.1,1.33l-6.21,5.9L269,191.2a1,1,0,0,1-.15,1.47l-13.59,10.06A1,1,0,0,1,254.63,202.92Z" fill="#093f68"/><path d="M249.67,160.77h9.7a0,0,0,0,1,0,0v5.58a4.12,4.12,0,0,1-4.12,4.12h-1.46a4.12,4.12,0,0,1-4.12-4.12v-5.58A0,0,0,0,1,249.67,160.77Z" fill="#ffc9b0"/><path d="M255.25,171.47h-1.46a5.13,5.13,0,0,1-5.12-5.12v-5.58a1,1,0,0,1,1-1h9.7a1,1,0,0,1,1,1v5.58A5.12,5.12,0,0,1,255.25,171.47Zm-4.58-9.7v4.58a3.12,3.12,0,0,0,3.12,3.12h1.46a3.12,3.12,0,0,0,3.12-3.12v-4.58Z" fill="#093f68"/><ellipse cx="226.8" cy="135.58" rx="9.42" ry="8.12" fill="#ffc9b0"/><path d="M226.8,144.7c-5.74,0-10.42-4.09-10.42-9.12s4.68-9.12,10.42-9.12,10.43,4.09,10.43,9.12S232.55,144.7,226.8,144.7Zm0-16.24c-4.64,0-8.42,3.19-8.42,7.12s3.78,7.12,8.42,7.12,8.43-3.2,8.43-7.12S231.45,128.46,226.8,128.46Z" fill="#093f68"/><ellipse cx="281.74" cy="135.58" rx="9.42" ry="8.12" fill="#ffc9b0"/><path d="M281.74,144.7c-5.75,0-10.42-4.09-10.42-9.12s4.67-9.12,10.42-9.12,10.42,4.09,10.42,9.12S287.49,144.7,281.74,144.7Zm0-16.24c-4.65,0-8.42,3.19-8.42,7.12s3.77,7.12,8.42,7.12,8.42-3.2,8.42-7.12S286.38,128.46,281.74,128.46Z" fill="#093f68"/><path d="M271.81,111.49l-9.2-11.82s-2.07,7.28-3.34,11.78l-14.49,0-3.42-10.55-4,10.53-11.24,0v22.26A28.42,28.42,0,0,0,254.52,162h0a28.41,28.41,0,0,0,28.42-28.42v-22.1Z" fill="#ffc9b0"/><path d="M254.52,163a29.46,29.46,0,0,1-29.42-29.42V111.36a1,1,0,0,1,.3-.71,1,1,0,0,1,.7-.29h0l10.56,0,3.77-9.89a1,1,0,0,1,1-.64,1,1,0,0,1,.93.69l3.19,9.86,13,0c1.27-4.52,3.13-11,3.13-11a1,1,0,0,1,1.75-.34l8.9,11.43,10.64,0a1,1,0,0,1,1,1v22.1A29.46,29.46,0,0,1,254.52,163ZM227.1,112.36v21.26a27.42,27.42,0,1,0,54.84,0v-21.1l-10.14,0a1,1,0,0,1-.78-.38l-8-10.27c-.7,2.47-1.93,6.82-2.79,9.89a1,1,0,0,1-1,.72h0l-14.49,0a1,1,0,0,1-.95-.69l-2.54-7.85-3,7.88a1,1,0,0,1-.94.64h0Z" fill="#093f68"/><circle cx="241.36" cy="129.49" r="2.63" fill="#093f68"/><circle cx="268.51" cy="129.49" r="2.63" fill="#093f68"/><path d="M254.39,139.33a17.4,17.4,0,0,1-2.6-.21,1,1,0,0,1,.35-2,12.61,12.61,0,0,0,3.7.07c0-.88-.93-3.54-2.21-6a1,1,0,0,1,1.78-.93c.93,1.79,3,6.14,2.23,7.89a1.57,1.57,0,0,1-1.07.91A8.83,8.83,0,0,1,254.39,139.33Z" fill="#093f68"/><path d="M246.74,122.48h0l-12.55,0a2,2,0,0,1,0-4h0l12.55,0a2,2,0,0,1,0,4Z" fill="#093f68"/><path d="M264.63,122.79a2,2,0,0,1-.1-4l12.53-.64a2,2,0,0,1,.21,4l-12.54.64Z" fill="#093f68"/><path d="M256.31,150.3c-6,0-12.39-3.28-12.77-3.47a1,1,0,0,1-.43-1.35,1,1,0,0,1,1.35-.43c.12.06,12.14,6.21,17.49,1.46a1,1,0,1,1,1.33,1.49A10.2,10.2,0,0,1,256.31,150.3Z" fill="#093f68"/><path d="M231.19,199.8a1,1,0,0,1-1-1V184.93a1,1,0,0,1,2,0V198.8A1,1,0,0,1,231.19,199.8Z" fill="#093f68"/><path d="M272.89,214a1,1,0,0,1-1-1V183.6a1,1,0,0,1,2,0V213A1,1,0,0,1,272.89,214Z" fill="#093f68"/><circle cx="275.07" cy="176.41" r="7.55" fill="#ffbc0e"/><path d="M275.06,185a8.51,8.51,0,1,1,1.51-.13A8.56,8.56,0,0,1,275.06,185Zm0-15.09a6.6,6.6,0,0,0-1.17.1,6.61,6.61,0,1,0,1.17-.1Z" fill="#093f68"/><polygon points="286.56 219.26 279.17 220.59 272.84 191.38 282.35 189.67 286.56 219.26" fill="#093f68"/><path d="M279.17,221.59a1,1,0,0,1-1-.79l-6.33-29.21a1,1,0,0,1,.8-1.2l9.52-1.7a1,1,0,0,1,.76.17,1,1,0,0,1,.4.67l4.21,29.59a1,1,0,0,1-.81,1.13l-7.4,1.32ZM274,192.18l5.9,27.25,5.5-1-3.93-27.61Z" fill="#093f68"/><rect x="267.63" y="182.12" width="19.36" height="13.63" rx="2.25" transform="translate(-28.98 51.89) rotate(-10.16)" fill="#f56132"/><path d="M270.8,198a3.26,3.26,0,0,1-3.2-2.67l-1.61-9a3.26,3.26,0,0,1,2.63-3.77l14.63-2.62a3.24,3.24,0,0,1,3.77,2.62l1.61,9a3.24,3.24,0,0,1-2.63,3.77l-14.62,2.62A2.9,2.9,0,0,1,270.8,198Zm13-16.11-.22,0L269,184.53a1.25,1.25,0,0,0-1,1.45l1.61,9a1.25,1.25,0,0,0,1.45,1l14.63-2.62h0a1.25,1.25,0,0,0,1-1.45l-1.61-9A1.25,1.25,0,0,0,283.82,181.88Z" fill="#093f68"/><circle cx="277.24" cy="188.95" r="3.84" fill="#ffbc0e"/><path d="M277.22,193.79a4.84,4.84,0,0,1-4-7.6A4.84,4.84,0,0,1,282,188.1h0a4.84,4.84,0,0,1-3.91,5.62A5.1,5.1,0,0,1,277.22,193.79Zm0-7.68a2.94,2.94,0,0,0-.51,0,2.83,2.83,0,0,0-2.29,3.29,2.8,2.8,0,0,0,1.17,1.83,2.83,2.83,0,0,0,2.13.47,2.83,2.83,0,0,0,2.29-3.3h0A2.85,2.85,0,0,0,277.24,186.11Z" fill="#093f68"/><rect x="273.89" y="196.77" width="15.97" height="15.97" rx="5.76" transform="translate(-31.7 52.94) rotate(-10.16)" fill="#ffc9b0"/><path d="M280.06,214.09a6.75,6.75,0,0,1-6.64-5.57l-.78-4.37a6.76,6.76,0,0,1,5.46-7.85l4.37-.78a6.75,6.75,0,0,1,7.85,5.46l.79,4.38a6.76,6.76,0,0,1-5.47,7.84h0l-4.37.79A7.06,7.06,0,0,1,280.06,214.09Zm5.41-1.87h0Zm-1.79-14.81a4.89,4.89,0,0,0-.85.08l-4.38.78a4.75,4.75,0,0,0-3.84,5.53l.78,4.37a4.77,4.77,0,0,0,5.53,3.85l4.37-.79a4.74,4.74,0,0,0,3.07-2,4.79,4.79,0,0,0,.78-3.56l-.79-4.38a4.77,4.77,0,0,0-4.67-3.92Z" fill="#093f68"/><rect x="268.04" y="199.48" width="5.7" height="10.9" rx="2.85" transform="translate(-31.9 51.01) rotate(-10.16)" fill="#ffc9b0"/><path d="M271.35,211.34a3.86,3.86,0,0,1-3.79-3.17l-.91-5.12a3.85,3.85,0,1,1,7.58-1.35l.92,5.11a3.86,3.86,0,0,1-3.12,4.47h0A3.82,3.82,0,0,1,271.35,211.34Zm.51-1h0Zm-1.42-9.78a1.84,1.84,0,0,0-.33,0,1.86,1.86,0,0,0-1.5,2.15l.92,5.12a1.85,1.85,0,0,0,3.65-.66l-.92-5.11A1.85,1.85,0,0,0,270.44,200.52Z" fill="#093f68"/><path d="M180.77,140a22.5,22.5,0,0,1-22.53,22.51,20.81,20.81,0,0,1-2.23-.11,22.51,22.51,0,0,1-13.16-38.83,21.78,21.78,0,0,1,4.51-3.28,22.25,22.25,0,0,1,9.63-2.77c.4,0,.83,0,1.25,0a21.91,21.91,0,0,1,5.21.61A22.52,22.52,0,0,1,180.77,140Z" fill="#68e1fd"/><path d="M158.24,163.5a21.6,21.6,0,0,1-2.33-.12,23.53,23.53,0,0,1-9-44,23.07,23.07,0,0,1,10.06-2.88c.41,0,.87,0,1.31,0a22.84,22.84,0,0,1,5.45.64,23.51,23.51,0,0,1-5.45,46.39Zm0-45c-.39,0-.79,0-1.17,0a21.51,21.51,0,0,0-1,42.88,18.16,18.16,0,0,0,2.13.11,21.52,21.52,0,1,0,0-43Z" fill="#093f68"/><path d="M180.77,140a22.5,22.5,0,0,1-11.65,19.72,7.58,7.58,0,0,1-1.25-.76,9.14,9.14,0,0,1-2.66-3.51A11.85,11.85,0,0,1,167.15,143c1.34-1.5,3.09-2.69,4-4.47s.39-4.55-1.58-5c-2.36-.53-4,2.6-6.43,2.93a3.82,3.82,0,0,1-3.64-2.07,7.51,7.51,0,0,1-.69-4.32,14.89,14.89,0,0,1,2.12-6.41,21.66,21.66,0,0,0,2.35-3.92,8.05,8.05,0,0,0,.17-1.63A22.52,22.52,0,0,1,180.77,140Z" fill="#70cc40"/><path d="M169.12,160.71a1,1,0,0,1-.42-.09,7.45,7.45,0,0,1-1.43-.88,9.92,9.92,0,0,1-3-3.9,12.9,12.9,0,0,1,2.11-13.56c.47-.53,1-1,1.48-1.49a10.46,10.46,0,0,0,2.36-2.77,3.27,3.27,0,0,0,.06-2.72,1.39,1.39,0,0,0-.95-.83c-.81-.17-1.56.34-2.72,1.22a7.4,7.4,0,0,1-3.36,1.73,4.8,4.8,0,0,1-4.66-2.58,8.46,8.46,0,0,1-.81-4.89,16.06,16.06,0,0,1,2.26-6.84c.26-.43.55-.85.85-1.27a10.28,10.28,0,0,0,1.41-2.46,7,7,0,0,0,.11-1.15V118a1,1,0,0,1,.4-.75,1,1,0,0,1,.83-.17,23.51,23.51,0,0,1,5.92,43.47A.91.91,0,0,1,169.12,160.71ZM169,132.44a3.34,3.34,0,0,1,3.09,2,5.28,5.28,0,0,1-.08,4.48,12.49,12.49,0,0,1-2.77,3.33c-.49.46-1,.89-1.37,1.36A10.85,10.85,0,0,0,166.13,155a8,8,0,0,0,2.36,3.13,5.91,5.91,0,0,0,.61.41,21.51,21.51,0,0,0-4.74-39.21,4,4,0,0,1-.13.67,12.39,12.39,0,0,1-1.67,3c-.27.38-.54.76-.78,1.16a14,14,0,0,0-2,6,6.5,6.5,0,0,0,.57,3.74,2.85,2.85,0,0,0,2.64,1.57,5.78,5.78,0,0,0,2.42-1.34A6.17,6.17,0,0,1,169,132.44Z" fill="#093f68"/><path d="M156,162.39a22.51,22.51,0,0,1-13.16-38.83,5.67,5.67,0,0,1,1.42,1.47,7.72,7.72,0,0,1,1.08,3.45c.42,4.09-.93,8.16-.89,12.27,0,2.63.88,5.75,2.88,7.58,2.23,2,5.24,1.1,7.22,3.18C156.9,154,157.24,158.7,156,162.39Z" fill="#70cc40"/><path d="M156,163.39h-.09a23.5,23.5,0,0,1-13.75-40.55,1,1,0,0,1,1.27-.08,6.66,6.66,0,0,1,1.66,1.74,8.47,8.47,0,0,1,1.25,3.89,30,30,0,0,1-.41,7.11,34.51,34.51,0,0,0-.48,5.25c0,2.19.68,5.14,2.56,6.86a6.39,6.39,0,0,0,3.19,1.32,7.35,7.35,0,0,1,4.08,1.9C158,153.7,158.2,159,157,162.7A1,1,0,0,1,156,163.39Zm-13.12-38.48a21.51,21.51,0,0,0,12.4,36.39c.89-3.44.32-7.24-1.45-9.1a5.46,5.46,0,0,0-3.06-1.32,8.21,8.21,0,0,1-4.11-1.81c-2.35-2.15-3.2-5.71-3.21-8.32a36.22,36.22,0,0,1,.5-5.54,27.74,27.74,0,0,0,.4-6.63,6.64,6.64,0,0,0-.93-3A3.78,3.78,0,0,0,142.89,124.91Z" fill="#093f68"/><path d="M156.26,122.56a5.81,5.81,0,0,1-2.92,2.72,3.89,3.89,0,0,1-3.85-.57c-.81-.71-1.58-2.56-2.13-4.43a22.25,22.25,0,0,1,9.63-2.77A7.68,7.68,0,0,1,156.26,122.56Z" fill="#70cc40"/><path d="M151.87,126.54a4.63,4.63,0,0,1-3-1.07c-1.11-1-1.94-3.21-2.44-4.91a1,1,0,0,1,.47-1.16,23.07,23.07,0,0,1,10.06-2.88,1,1,0,0,1,1,.81,8.61,8.61,0,0,1-.83,5.71h0a6.79,6.79,0,0,1-3.44,3.17A5.32,5.32,0,0,1,151.87,126.54Zm-3.31-5.77a8.31,8.31,0,0,0,1.59,3.19,2.89,2.89,0,0,0,2.84.38,4.75,4.75,0,0,0,2.39-2.25,6.48,6.48,0,0,0,.74-3.51A21.15,21.15,0,0,0,148.56,120.77Zm7.7,1.79h0Z" fill="#093f68"/><path d="M138.29,117H120.12a1,1,0,0,1,0-2h18.17a1,1,0,0,1,0,2Z" fill="#dfeaef"/><path d="M129.2,123.4h-9.08a1,1,0,0,1,0-2h9.08a1,1,0,0,1,0,2Z" fill="#dfeaef"/></svg>