<svg id="_290_note_taking_outline" data-name="#290_note_taking_outline" xmlns="http://www.w3.org/2000/svg" viewBox="0 0 400 300"><path d="M224,104.41a36.44,36.44,0,0,0-3.91-8.68,15.34,15.34,0,0,1-2.32-4.8,32.23,32.23,0,0,1-.24-3.55c-.5-5.92-5.38-10.47-10.36-13.71-8.08-5.25-17.89-8.65-27.55-8.37a45.38,45.38,0,0,0-15.33,3.15c-1.14.44-12.7,6.62-10.87,8.57a10.92,10.92,0,0,0-13.64-1.51c-4.33,2.92-7.36,7.47-9.39,12.21-2.61,6.09.52,11.28-.67,17.62-1.61,8.55-10.07,15.1-10,23.79,0,4.89,2.93,9.39,6.66,12.54s8.28,5.14,12.75,7.1l8,3.51a71.44,71.44,0,0,0,8.29,3.23c9.59,2.86,19.86,1.64,29.77.32a20.63,20.63,0,0,0,6.73-1.69c7.38-3.75,3.13-11,6.34-16.95,6.25-11.51,24.11-6.92,26.49-22.8A23.44,23.44,0,0,0,224,104.41Z" fill="#725858"/><path d="M168.8,158.25a47.46,47.46,0,0,1-13.58-1.78,72.92,72.92,0,0,1-8.39-3.26l-8.06-3.53c-4.48-2-9.12-4-13-7.25-4.42-3.72-7-8.56-7-13.29-.05-5.06,2.61-9.41,5.19-13.61,2-3.3,4.11-6.7,4.8-10.37a24.1,24.1,0,0,0-.07-7.45c-.38-3.29-.78-6.69.81-10.39,2.43-5.65,5.7-9.91,9.74-12.64a12.06,12.06,0,0,1,13.54.42c2.25-3.25,11.09-7.54,11.18-7.58a46.07,46.07,0,0,1,15.66-3.22c9.26-.26,19.24,2.76,28.13,8.53,6.73,4.38,10.37,9.25,10.8,14.46,0,.46.05.91.07,1.37a11.62,11.62,0,0,0,.16,2.08,12.53,12.53,0,0,0,1.87,3.94l.32.53a37.16,37.16,0,0,1,4,8.93h0a24.46,24.46,0,0,1,.84,10.4c-1.42,9.5-8.08,12.12-14.51,14.66-4.9,1.93-9.53,3.75-12.09,8.47-1.14,2.1-1.26,4.5-1.37,6.82-.18,3.93-.38,8-5.4,10.54a21.55,21.55,0,0,1-7,1.79A125.39,125.39,0,0,1,168.8,158.25ZM145.63,74.78a9.43,9.43,0,0,0-5.27,1.55c-3.72,2.52-6.76,6.48-9,11.78-1.38,3.21-1,6.2-.66,9.37a26.08,26.08,0,0,1,.05,8c-.76,4-3,7.59-5.06,11-2.55,4.15-5,8.06-4.9,12.55,0,4.15,2.33,8.44,6.31,11.78,3.65,3.08,8.15,5,12.5,6.95l8,3.52a74,74,0,0,0,8.18,3.19c9.71,2.89,20.6,1.44,29.35.28a20.19,20.19,0,0,0,6.41-1.59c4-2,4.12-5,4.3-8.86.12-2.54.25-5.17,1.61-7.68,2.91-5.35,8.1-7.4,13.12-9.38,6.17-2.43,12-4.73,13.26-13.09a22.45,22.45,0,0,0-.78-9.55,35.63,35.63,0,0,0-3.81-8.44l-.32-.52a14.32,14.32,0,0,1-2.12-4.6,14.54,14.54,0,0,1-.2-2.42c0-.42,0-.83-.06-1.25-.38-4.57-3.71-8.93-9.9-12.95-8.55-5.55-18.13-8.48-27-8.21a44.24,44.24,0,0,0-15,3.09c-1.71.65-9.88,5.44-10.4,7.06a1,1,0,0,1-1.55,1.25h0A9.78,9.78,0,0,0,145.63,74.78Z" fill="#093f68"/><polygon points="292.59 152.76 293.77 213.12 239 211.77 251.53 159.18 292.59 152.76" fill="#68e1fd"/><path d="M293.77,214.12h0L239,212.77a1,1,0,0,1-.95-1.23l12.54-52.6a1,1,0,0,1,.81-.75l41.07-6.42a1,1,0,0,1,.79.22,1,1,0,0,1,.36.75l1.18,60.36a1,1,0,0,1-.3.73A1,1,0,0,1,293.77,214.12Zm-53.52-3.32,52.5,1.3-1.14-58.18-39.26,6.14Z" fill="#093f68"/><polygon points="291.12 148.78 292.59 152.76 274.95 217.97 228.09 216.18 291.12 148.78" fill="#093f68"/><path d="M275,219h0l-46.87-1.79a1,1,0,0,1-.89-.62,1,1,0,0,1,.2-1.07l63-67.39a1,1,0,0,1,1.67.33l1.48,4a1.06,1.06,0,0,1,0,.61l-17.64,65.22A1,1,0,0,1,275,219Zm-44.64-3.71,43.89,1.68,17.34-64.13-.8-2.16Z" fill="#093f68"/><polygon points="245.02 148.65 291.12 148.78 271.73 215.04 225.63 214.9 245.02 148.65" fill="#fff"/><path d="M271.73,216h0l-46.09-.14a1,1,0,0,1-1-1.28l19.39-66.25a1,1,0,0,1,1-.72h0l46.09.13a1,1,0,0,1,.8.4,1.06,1.06,0,0,1,.16.88l-19.39,66.26A1,1,0,0,1,271.73,216ZM227,213.91l44,.12,18.8-64.25-44-.13Z" fill="#093f68"/><path d="M255.82,162.07a1,1,0,0,1,0-2l24.25-.48h0a1,1,0,0,1,1,1,1,1,0,0,1-1,1l-24.25.48Z" fill="#dfeaef"/><path d="M246.09,170.73a1,1,0,0,1,0-2l32.13-.65a1,1,0,0,1,1,1,1,1,0,0,1-1,1l-32.13.65Z" fill="#dfeaef"/><path d="M244.24,179.22a1,1,0,0,1-1-1,1,1,0,0,1,1-1l32.13-.64a1,1,0,0,1,1,1,1,1,0,0,1-1,1l-32.13.64Z" fill="#dfeaef"/><path d="M242.38,187.72a1,1,0,0,1,0-2l8-.16a1,1,0,0,1,1,1,1,1,0,0,1-1,1l-8,.16Z" fill="#dfeaef"/><ellipse cx="212.58" cy="126.39" rx="10.85" ry="9.71" transform="translate(71.22 329.31) rotate(-85.87)" fill="#ffc9b0"/><path d="M212.44,138.23q-.36,0-.72,0c-5.89-.42-10.29-6.07-9.82-12.59s5.64-11.49,11.53-11,10.3,6.07,9.83,12.59a12.48,12.48,0,0,1-3.69,8.09A10.19,10.19,0,0,1,212.44,138.23Zm.29-21.69c-4.56,0-8.46,4-8.84,9.22-.39,5.41,3.19,10.1,8,10.45a8.17,8.17,0,0,0,6.31-2.4,10.43,10.43,0,0,0,3.08-6.8h0c.4-5.41-3.18-10.1-8-10.45Z" fill="#093f68"/><path d="M178.78,164.93c-21.25-1.53-34.4-14.66-32.89-35.57l6.24-10.31s11.62-11.14,12.54-27.45c0,0,5.55,4.42,24.43,6.72,20.53,2.5,29.75-1.18,29.75-1.18L217,129.62C215.47,150.54,200,166.46,178.78,164.93Z" fill="#ffc9b0"/><path d="M181.6,166c-.95,0-1.91,0-2.89-.1h0c-22.38-1.62-35.34-15.66-33.82-36.65a1,1,0,0,1,.14-.44l6.25-10.31a1,1,0,0,1,.16-.2c.11-.11,11.34-11.08,12.23-26.79a1,1,0,0,1,1.62-.73c.05,0,5.69,4.29,23.93,6.51,20,2.43,29.17-1.07,29.26-1.11a1,1,0,0,1,1,.12,1,1,0,0,1,.41.87L218,129.68C216.43,151.17,201.33,166,181.6,166Zm-2.74-2.1c19.94,1.42,35.58-13,37.13-34.38l1.77-31c-3.35.93-12.56,2.74-28.78.77-13.93-1.7-20.73-4.54-23.44-6-1.5,15-11.45,25.22-12.62,26.38l-6,10c-1.31,19.62,10.92,32.74,32,34.26Z" fill="#093f68"/><ellipse cx="187.28" cy="119.74" rx="3.51" ry="3.52" transform="translate(54.36 297.92) rotate(-85.87)" fill="#093f68"/><circle cx="210.72" cy="118.38" r="3.52" fill="#093f68"/><path d="M199.34,133.91a20.37,20.37,0,0,1-4.5-.58,1,1,0,1,1,.49-1.93,16.82,16.82,0,0,0,5.29.42c.36-.9-.7-4.84-2.34-8.63a1,1,0,0,1,1.83-.79c.83,1.89,3.41,8.25,2.23,10.43a1.77,1.77,0,0,1-1.28.94A9.74,9.74,0,0,1,199.34,133.91Z" fill="#093f68"/><path d="M175.5,111.33a2,2,0,0,1-.13-4l16.72-1.12a2,2,0,0,1,2.13,1.86,2,2,0,0,1-1.86,2.13l-16.73,1.13Z" fill="#093f68"/><path d="M217,111.94h-.25L207,110.7a2,2,0,1,1,.49-4l9.78,1.23a2,2,0,0,1-.24,4Z" fill="#093f68"/><path d="M152.13,119.05s-8.79-7.07-14.36.82-1.79,22.28,13.8,19.29" fill="#ffc9b0"/><path d="M147.53,140.57c-6.45,0-9.68-3.32-11.13-5.56a14.38,14.38,0,0,1,.55-15.72,9.12,9.12,0,0,1,6.24-4.07c4.87-.67,9.38,2.9,9.57,3a1,1,0,0,1,.15,1.41,1,1,0,0,1-1.4.15s-4-3.2-8-2.62a7.11,7.11,0,0,0-4.87,3.23,12.48,12.48,0,0,0-.5,13.49c2.51,3.9,7.24,5.41,13.3,4.25a1,1,0,1,1,.37,2A22.13,22.13,0,0,1,147.53,140.57Z" fill="#093f68"/><path d="M196.22,144.1a21.82,21.82,0,0,1-14.63-6,1,1,0,1,1,1.41-1.42c4.66,4.6,15.29,9,24,1.17a1,1,0,0,1,1.34,1.49A17.77,17.77,0,0,1,196.22,144.1Z" fill="#093f68"/><polygon points="242.47 168.53 247.6 176.43 249.19 183.21 248.53 183.7 242.91 179.4 237.39 171.91 242.47 168.53" fill="#093f68"/><path d="M248.53,184.7a1,1,0,0,1-.6-.21l-5.63-4.3a.76.76,0,0,1-.2-.2l-5.51-7.49a1,1,0,0,1-.18-.77,1,1,0,0,1,.43-.66l5.08-3.38a1,1,0,0,1,.75-.14,1,1,0,0,1,.64.43l5.13,7.91a.87.87,0,0,1,.14.31l1.58,6.78a1,1,0,0,1-.37,1l-.66.49A1,1,0,0,1,248.53,184.7Zm-4.9-6,4.23,3.24-1.19-5.1-4.49-6.91-3.36,2.24Z" fill="#093f68"/><path d="M219.75,168.31s-.46-11,3.72-12.19,12.76-3.48,15.08,0,8.13,10.25,6.5,14.06-17.4,12.14-17.4,12.14l-18.46,22.19-20.37-22.67Z" fill="#ffc9b0"/><path d="M209.19,205.51a1,1,0,0,1-.74-.33l-20.37-22.67a1,1,0,0,1-.24-.88,1,1,0,0,1,.58-.7l30.32-13.27c0-2.69.17-11.31,4.46-12.5s13.43-3.73,16.19.41c.39.59.89,1.29,1.44,2,2.83,3.92,6.71,9.29,5.14,13-1.66,3.91-15.38,11.32-17.68,12.54l-18.33,22a1,1,0,0,1-.75.36Zm-18.7-23.31L209.17,203l17.71-21.31a.89.89,0,0,1,.3-.24c6-3.16,15.87-9.11,16.95-11.65s-2.51-7.67-4.92-11c-.57-.78-1.08-1.49-1.49-2.1-1.95-2.93-10.69-.51-14,.41-2.58.71-3.13,7.84-3,11.18a1,1,0,0,1-.59.95Z" fill="#093f68"/><path d="M229.28,149,241,166.6s-1.88,3.13-4.86,3L224.5,151.87S227.28,147.8,229.28,149Z" fill="#093f68"/><path d="M236.42,170.56h-.3a1,1,0,0,1-.77-.44l-11.68-17.69a1,1,0,0,1,0-1.11c.34-.5,3.39-4.81,6.13-3.15a1.14,1.14,0,0,1,.32.3L241.87,166a1,1,0,0,1,0,1.07C241.81,167.26,239.78,170.56,236.42,170.56Zm-10.7-18.66,11,16.65a4.9,4.9,0,0,0,3.11-2l-11.21-16.77C227.88,149.64,226.61,150.78,225.72,151.9Z" fill="#093f68"/><line x1="247.94" y1="181.84" x2="250.43" y2="185.56" fill="#093f68"/><path d="M250.44,186.56a1,1,0,0,1-.84-.45l-2.49-3.71a1,1,0,1,1,1.66-1.12l2.49,3.72a1,1,0,0,1-.27,1.39A1,1,0,0,1,250.44,186.56Z" fill="#093f68"/><path d="M188.82,165.25s-2-9.05-6.35-11.72-31.08-6.47-36.42-1.9-5.8,11.63-5.8,11.63Z" fill="#68e1fd"/><path d="M188.82,166.25h0l-48.58-2a1,1,0,0,1-.95-1.06c0-.31.55-7.54,6.15-12.33,5.77-4.94,33-1,37.59,1.8s6.72,12,6.81,12.37a1,1,0,0,1-1,1.21Zm-47.44-3.94,46.14,1.89c-.7-2.5-2.53-8-5.57-9.82-1.81-1.1-9-2.76-17.43-3.52-9.08-.82-15.74-.25-17.82,1.53A17.11,17.11,0,0,0,141.38,162.31Z" fill="#093f68"/><path d="M234.93,193.08l37.25-2.66s7-13.29,9.58-12.83-.18,8-.18,8,5.17-7.52,6.79-2.18.76,9.65-1.56,12.67.44,13.17-15,12.28l-41.43,16.2Z" fill="#ffc9b0"/><path d="M230.41,225.53a1,1,0,0,1-1-1.14l4.52-31.45a1,1,0,0,1,.92-.85l36.7-2.63c6.23-11.67,9.18-13.08,10.38-12.85a2.09,2.09,0,0,1,1.47,1,6.65,6.65,0,0,1,.23,4.1,4.47,4.47,0,0,1,3.27-1.27c.78.12,1.83.67,2.42,2.6,1.59,5.23,1,10-1.73,13.57a8.14,8.14,0,0,0-1,2.84c-.94,4.17-2.36,10.46-14.65,9.84l-41.23,16.12A.92.92,0,0,1,230.41,225.53Zm5.4-31.51-4.17,29,39.83-15.59a1,1,0,0,1,.42-.06c10.8.62,11.91-4.31,12.81-8.27a9.34,9.34,0,0,1,1.31-3.62c2.34-3,2.82-7.11,1.41-11.77-.11-.34-.39-1.14-.81-1.2-1-.14-3.08,2-4.2,3.65a1,1,0,0,1-1.77-.91c.9-2.46,1.54-5.66,1-6.55,0-.07-.05-.08-.09-.08-1.15.17-5.08,5.8-8.51,12.3a1,1,0,0,1-.82.53Z" fill="#093f68"/><path d="M127.79,234.53s-6.61-75.36,10.09-77.16L190.32,160c1.34,0,6.32-.65,14.27,6,11.51,9.65,21.75,18.86,30.34,27.09,0,0,4.57,6.27,2.46,16.19s-7,15.26-7,15.26L207.7,213.12v21.6Z" fill="#68e1fd"/><path d="M207.7,235.72h0l-79.91-.19a1,1,0,0,1-1-.92c0-.18-1.65-19.11-1.22-38,.59-25.88,4.69-39.41,12.19-40.22h.16L190.37,159h.25c1.88-.06,6.91-.19,14.61,6.27,11,9.26,21.26,18.39,30.39,27.14a.53.53,0,0,1,.12.14c.2.27,4.81,6.74,2.63,17-2.14,10.07-7,15.5-7.22,15.73a1,1,0,0,1-1.19.22L208.7,214.74v20a1,1,0,0,1-.29.71A1.05,1.05,0,0,1,207.7,235.72Zm-79-2.19,78,.19v-20.6a1,1,0,0,1,1.45-.89l22,11.05a35.75,35.75,0,0,0,6.28-14.22c1.87-8.81-1.8-14.65-2.25-15.32-9.09-8.71-19.25-17.79-30.22-27-7.12-6-11.6-5.85-13.28-5.8h-.35l-52.4-2.58C125.28,159.94,126.93,212.25,128.71,233.53Z" fill="#093f68"/><path d="M170.53,183.38s3-18.71,15.23-23.65l10,.68s-13.53,7.86-14.34,26.31Z" fill="#ffbc0e"/><path d="M181.44,187.72a.92.92,0,0,1-.29,0l-10.92-3.35a1,1,0,0,1-.69-1.11c.13-.79,3.23-19.32,15.84-24.42a1.33,1.33,0,0,1,.45-.07l10,.68a1,1,0,0,1,.43,1.86,32,32,0,0,0-13.84,25.5,1,1,0,0,1-.42.77A1,1,0,0,1,181.44,187.72Zm-9.76-5,8.84,2.71a33.8,33.8,0,0,1,12.4-24.17l-7-.48C176,164.94,172.43,179.06,171.68,182.68Z" fill="#093f68"/><path d="M120.47,183.38a39.77,39.77,0,0,1,12.81-26h9.44a43.84,43.84,0,0,0-13.47,29.35Z" fill="#ffbc0e"/><path d="M129.25,187.72a1,1,0,0,1-.35-.06l-8.79-3.35a1,1,0,0,1-.64-1,40.44,40.44,0,0,1,13.14-26.72,1,1,0,0,1,.67-.26h9.44a1,1,0,0,1,.65,1.76,43.24,43.24,0,0,0-13.12,28.64,1,1,0,0,1-.45.79A1,1,0,0,1,129.25,187.72Zm-7.73-5,6.81,2.59a44.89,44.89,0,0,1,11.94-26.93h-6.6A39.35,39.35,0,0,0,121.52,182.71Z" fill="#093f68"/><path d="M207.7,214.12a1.07,1.07,0,0,1-.43-.09l-16.11-7.65a1,1,0,0,1,.86-1.81l16.11,7.65a1,1,0,0,1-.43,1.9Z" fill="#093f68"/><path d="M277.48,155.29c-3.31,0-6-3.35-6-7.45s2.68-7.45,6-7.45,6,3.34,6,7.45a1,1,0,0,1-2,0c0-3-1.78-5.45-4-5.45s-4,2.44-4,5.45,1.79,5.45,4,5.45a1,1,0,0,1,0,2Z" fill="#093f68"/><path d="M258,155.29c-3.3,0-6-3.35-6-7.45s2.69-7.45,6-7.45,6,3.34,6,7.45a1,1,0,1,1-2,0c0-3-1.79-5.45-4-5.45s-4,2.44-4,5.45,1.79,5.45,4,5.45a1,1,0,0,1,0,2Z" fill="#093f68"/><path d="M118.79,182.78h62.87a3.81,3.81,0,0,1,3.81,3.81v44.18a3.81,3.81,0,0,1-3.81,3.81H118.79a0,0,0,0,1,0,0v-51.8A0,0,0,0,1,118.79,182.78Z" fill="#093f68"/><path d="M181.66,235.58H118.79a1,1,0,0,1-1-1v-51.8a1,1,0,0,1,1-1h62.87a4.82,4.82,0,0,1,4.81,4.81v44.18A4.82,4.82,0,0,1,181.66,235.58Zm-61.87-2h61.87a2.81,2.81,0,0,0,2.81-2.81V186.59a2.81,2.81,0,0,0-2.81-2.81H119.79Z" fill="#093f68"/><rect x="106.23" y="182.78" width="65" height="17.68" rx="3.6" fill="#ffbc0e"/><path d="M167.63,201.46h-57.8a4.61,4.61,0,0,1-4.6-4.6V186.38a4.61,4.61,0,0,1,4.6-4.6h57.8a4.6,4.6,0,0,1,4.6,4.6v10.48A4.6,4.6,0,0,1,167.63,201.46Zm-57.8-17.68a2.61,2.61,0,0,0-2.6,2.6v10.48a2.61,2.61,0,0,0,2.6,2.6h57.8a2.61,2.61,0,0,0,2.6-2.6V186.38a2.61,2.61,0,0,0-2.6-2.6Z" fill="#093f68"/><path d="M110.35,200.46H177a0,0,0,0,1,0,0v29.72a4.4,4.4,0,0,1-4.4,4.4H114.75a4.4,4.4,0,0,1-4.4-4.4V200.46A0,0,0,0,1,110.35,200.46Z" fill="#ffbc0e"/><path d="M172.63,235.58H114.75a5.4,5.4,0,0,1-5.4-5.4V200.46a1,1,0,0,1,1-1H177a1,1,0,0,1,1,1v29.72A5.4,5.4,0,0,1,172.63,235.58Zm-61.28-34.12v28.72a3.41,3.41,0,0,0,3.4,3.4h57.88a3.4,3.4,0,0,0,3.4-3.4V201.46Z" fill="#093f68"/><rect x="133.19" y="189.59" width="9.53" height="21.75" rx="2.92" fill="#f56132"/><path d="M139.8,212.33h-3.69a3.93,3.93,0,0,1-3.92-3.92v-15.9a3.93,3.93,0,0,1,3.92-3.93h3.69a3.93,3.93,0,0,1,3.92,3.93v15.9A3.93,3.93,0,0,1,139.8,212.33Zm-3.69-21.75a1.93,1.93,0,0,0-1.92,1.93v15.9a1.92,1.92,0,0,0,1.92,1.92h3.69a1.92,1.92,0,0,0,1.92-1.92v-15.9a1.93,1.93,0,0,0-1.92-1.93Z" fill="#093f68"/><circle cx="138.06" cy="204.51" r="2.19" fill="#093f68"/></svg>