<svg xmlns="http://www.w3.org/2000/svg" viewBox="0 0 400 300"><g id="_353_nurse_outline" data-name="#353_nurse_outline"><path d="M171.6,103.18c-8.15,2-14.58,6.21-18.25,13.65-2.1,4.26.79,11.25.28,16.17-1.17,11.1-9.45,23.53-4.06,34.27,2.3,4.58,6.35,8.1,10.62,11a71.34,71.34,0,0,0,40.1,12.26c15.93.07,37.07-1.63,46.81-15.95,4.72-7,5.35-15.7,3.8-23.7-.76-3.93-2.47-7.6-3.15-11.54-.79-4.65-.17-9.44-1.35-14-3.16-12.3-14.82-16.83-26-19.92C204.54,101,187.58,99.33,171.6,103.18Z" fill="#725858"/><path d="M201.19,191.57h-.91a71.89,71.89,0,0,1-40.65-12.43c-5.43-3.73-8.91-7.35-10.95-11.41-3.76-7.47-1.25-15.59,1.18-23.43a61.4,61.4,0,0,0,2.77-11.4,26.71,26.71,0,0,0-.48-6.39c-.53-3.58-1.08-7.29.31-10.11,3.57-7.25,9.93-12,18.9-14.18,14.6-3.52,31.18-2.77,49.29,2.24,12,3.3,23.5,8.09,26.72,20.64a37.12,37.12,0,0,1,.88,8.06,45.43,45.43,0,0,0,.49,6.06,43.09,43.09,0,0,0,1.58,5.88,48.74,48.74,0,0,1,1.56,5.64c1.81,9.35.41,18-3.95,24.45C238,189.73,216.74,191.57,201.19,191.57ZM171.6,103.18l.23,1c-8.37,2-14.28,6.44-17.58,13.12-1.11,2.26-.61,5.66-.12,8.94a28.91,28.91,0,0,1,.49,6.89,64.07,64.07,0,0,1-2.85,11.78c-2.31,7.46-4.7,15.19-1.3,21.94,1.88,3.74,5.15,7.13,10.29,10.66a69.93,69.93,0,0,0,39.53,12.08c15.2.08,36.43-1.46,46-15.51,4.06-6,5.36-14.12,3.65-22.94a48.15,48.15,0,0,0-1.5-5.41,44.12,44.12,0,0,1-1.65-6.15,48.65,48.65,0,0,1-.52-6.32,35,35,0,0,0-.82-7.65c-3-11.55-13.92-16.06-25.31-19.21-17.79-4.91-34-5.65-48.29-2.22Z" fill="#093f68"/><path d="M251.87,233V196.78c0-16.15-15.22-29.24-34-29.24H185.4c-18.77,0-34,13.09-34,29.24V233Z" fill="#68e1fd"/><path d="M251.87,234H151.41a1,1,0,0,1-1-1V196.78c0-16.67,15.7-30.24,35-30.24h32.47c19.3,0,35,13.57,35,30.24V233A1,1,0,0,1,251.87,234Zm-99.46-2h98.46V196.78c0-15.57-14.8-28.24-33-28.24H185.4c-18.19,0-33,12.67-33,28.24Z" fill="#093f68"/><path d="M169,232.93a1,1,0,0,1-1-1V207.27a1,1,0,1,1,2,0v24.66A1,1,0,0,1,169,232.93Z" fill="#093f68"/><path d="M234.28,232.93a1,1,0,0,1-1-1V207.27a1,1,0,0,1,2,0v24.66A1,1,0,0,1,234.28,232.93Z" fill="#093f68"/><path d="M176.93,195.61s-5.75,5.21-5.75,15.23a27.81,27.81,0,0,0,5.75,16.76" fill="#68e1fd"/><path d="M176.93,228.6a1,1,0,0,1-.76-.35,28.63,28.63,0,0,1-6-17.41c0-10.35,5.83-15.75,6.08-16a1,1,0,0,1,1.41.07,1,1,0,0,1-.06,1.41h0c-.06.05-5.43,5.07-5.43,14.49A27.1,27.1,0,0,0,177.69,227a1,1,0,0,1-.76,1.65Z" fill="#093f68"/><path d="M231.17,195.61s5.75,5.21,5.75,15.23a27.81,27.81,0,0,1-5.75,16.76" fill="#68e1fd"/><path d="M231.17,228.6a1,1,0,0,1-.76-1.65,27,27,0,0,0,5.51-16.11c0-9.42-5.37-14.44-5.42-14.49a1,1,0,0,1-.07-1.42,1,1,0,0,1,1.41-.06c.25.22,6.08,5.62,6.08,16a28.56,28.56,0,0,1-6,17.41A1,1,0,0,1,231.17,228.6Z" fill="#093f68"/><polygon points="201.64 202.09 185.97 167.54 217.3 167.54 201.64 202.09" fill="#ffc9b0"/><path d="M201.64,203.09h0a1,1,0,0,1-.91-.58L185.06,168a1,1,0,0,1,.07-.95,1,1,0,0,1,.85-.46H217.3a1,1,0,0,1,.84.46,1,1,0,0,1,.07.95l-15.66,34.56A1,1,0,0,1,201.64,203.09Zm-14.11-34.55,14.11,31.13,14.11-31.13Z" fill="#093f68"/><polygon points="154.1 85.09 219.75 71.45 249.18 98.12 249.18 124.14 154.1 124.14 154.1 85.09" fill="#725858"/><path d="M249.17,125.14H154.1a1,1,0,0,1-1-1v-39a1,1,0,0,1,.8-1l65.65-13.64a1,1,0,0,1,.87.24l29.43,26.67a1,1,0,0,1,.32.74v26A1,1,0,0,1,249.17,125.14Zm-94.07-2h93.07V98.56l-28.71-26L155.1,85.91Z" fill="#093f68"/><path d="M194.29,171.94V158.51H209v13.43" fill="#ffc9b0"/><path d="M209,172.94a1,1,0,0,1-1-1V159.51h-12.7v12.43a1,1,0,0,1-2,0V158.51a1,1,0,0,1,1-1H209a1,1,0,0,1,1,1v13.43A1,1,0,0,1,209,172.94Z" fill="#093f68"/><ellipse cx="159.63" cy="122.06" rx="14.28" ry="12.31" fill="#ffc9b0"/><path d="M159.63,135.37c-8.43,0-15.29-6-15.29-13.31s6.86-13.31,15.29-13.31,15.28,6,15.28,13.31S168.05,135.37,159.63,135.37Zm0-24.62c-7.33,0-13.29,5.08-13.29,11.31s6,11.31,13.29,11.31,13.28-5.07,13.28-11.31S167,110.75,159.63,110.75Z" fill="#093f68"/><ellipse cx="242.89" cy="122.06" rx="14.28" ry="12.31" fill="#ffc9b0"/><path d="M242.89,135.37c-8.43,0-15.28-6-15.28-13.31s6.85-13.31,15.28-13.31,15.28,6,15.28,13.31S251.32,135.37,242.89,135.37Zm0-24.62c-7.33,0-13.28,5.08-13.28,11.31s5.95,11.31,13.28,11.31,13.28-5.07,13.28-11.31S250.21,110.75,242.89,110.75Z" fill="#093f68"/><path d="M244.71,95.62V119.1a43.08,43.08,0,0,1-86.15,0c0-11.18-.95-23.9,8.8-31.65a17.07,17.07,0,0,0,6.81,11,27,27,0,0,0,12.27,4.81c-2.05-4.34-4.14-8.92-3.77-13.7a7,7,0,0,1,2-4.71c3.7-3.3,8.13,2,10.85,4a47.1,47.1,0,0,0,14.91,7.65C229.87,101.86,244.71,95.62,244.71,95.62Z" fill="#ffc9b0"/><path d="M201.64,163.17a44.06,44.06,0,0,1-44.08-44.07c0-.9,0-1.82,0-2.75-.07-10.43-.15-22.26,9.19-29.68a1,1,0,0,1,1-.15,1,1,0,0,1,.62.79,16,16,0,0,0,6.43,10.38,24.5,24.5,0,0,0,9.93,4.29c-1.69-3.69-3.38-8-3-12.46a7.82,7.82,0,0,1,2.3-5.37c3.65-3.27,7.74.24,10.45,2.56.6.52,1.17,1,1.66,1.36a45.67,45.67,0,0,0,14.59,7.49c18.87,5.17,33.51-.8,33.66-.86a1,1,0,0,1,.94.09,1,1,0,0,1,.44.83V119.1a44.08,44.08,0,0,1-44.07,44.07ZM166.71,89.33c-7.3,6.85-7.23,17.09-7.16,27,0,.93,0,1.85,0,2.76a42.08,42.08,0,0,0,84.15,0v-22a58.79,58.79,0,0,1-33.57.43,47.58,47.58,0,0,1-15.24-7.8c-.55-.4-1.15-.91-1.78-1.46-3.1-2.65-5.64-4.53-7.82-2.59a6.06,6.06,0,0,0-1.63,4c-.37,4.64,1.78,9.18,3.67,13.19a1,1,0,0,1-.1,1,1,1,0,0,1-1,.39,27.61,27.61,0,0,1-12.72-5A18.45,18.45,0,0,1,166.71,89.33Z" fill="#093f68"/><path d="M203.69,133.54a25.15,25.15,0,0,1-3.85-.31,1,1,0,0,1-.81-1.16,1,1,0,0,1,1.16-.81,18.81,18.81,0,0,0,6.19,0c.46-.74-1.12-5.4-3.38-9.73a1,1,0,0,1,1.78-.93c1.08,2.07,4.5,9,3.37,11.51a1.89,1.89,0,0,1-1.28,1.09A13.47,13.47,0,0,1,203.69,133.54Z" fill="#093f68"/><circle cx="219.75" cy="121.89" r="3.72" fill="#093f68"/><circle cx="184.7" cy="120.42" r="3.72" fill="#093f68"/><path d="M190.84,110.56H173a2,2,0,0,1,0-4h17.85a2,2,0,0,1,0,4Z" fill="#093f68"/><path d="M230.62,110.56H212.77a2,2,0,0,1,0-4h17.85a2,2,0,0,1,0,4Z" fill="#093f68"/><path d="M155.72,60.57s5-14.79,45.95-14.79,46,14.79,46,14.79l2.71,38.55S238.57,88.3,201.67,88.3,153,99.12,153,99.12Z" fill="#68e1fd"/><path d="M250.42,100.12a1,1,0,0,1-.68-.26c-.11-.11-12.12-10.56-48.07-10.56s-47.87,10.45-48,10.56a1,1,0,0,1-1.12.16,1,1,0,0,1-.56-1l2.71-38.55a.7.7,0,0,1,.05-.25c.21-.63,5.7-15.47,46.9-15.47s46.77,14.83,47,15.46a2.38,2.38,0,0,1,.05.26l2.7,38.55a1,1,0,0,1-.56,1A.94.94,0,0,1,250.42,100.12ZM201.67,87.3c29.42,0,43,6.77,47.6,9.73L246.72,60.8c-.56-1.24-7.28-14-45.05-14s-44.4,12.75-45,14L154.16,97C158.7,94.06,172.27,87.3,201.67,87.3Z" fill="#093f68"/><path d="M230.62,130v21a43.07,43.07,0,0,1-56.71,1.1V130Z" fill="#fff"/><path d="M201.64,163.17a44.15,44.15,0,0,1-28.38-10.34,1,1,0,0,1-.35-.77V130a1,1,0,0,1,1-1h56.71a1,1,0,0,1,1,1v21a1,1,0,0,1-.33.74A43.92,43.92,0,0,1,201.64,163.17Zm-26.73-11.58a42.07,42.07,0,0,0,54.71-1.08V131H174.91Z" fill="#093f68"/><path d="M173.91,131a1,1,0,0,1-.78-.37l-16.36-20.25a1,1,0,0,1,.15-1.4,1,1,0,0,1,1.41.15l16.36,20.25a1,1,0,0,1-.78,1.62Z" fill="#093f68"/><path d="M230.62,131a.92.92,0,0,1-.57-.18,1,1,0,0,1-.25-1.39l14.09-20.25a1,1,0,1,1,1.64,1.15l-14.09,20.25A1,1,0,0,1,230.62,131Z" fill="#093f68"/><polygon points="214.77 61.47 206.19 61.47 206.19 52.89 197.16 52.89 197.16 61.47 188.59 61.47 188.59 70.5 197.16 70.5 197.16 79.08 206.19 79.08 206.19 70.5 214.77 70.5 214.77 61.47" fill="#f56132"/><path d="M206.19,80.08h-9a1,1,0,0,1-1-1V71.5h-7.58a1,1,0,0,1-1-1v-9a1,1,0,0,1,1-1h7.58V52.89a1,1,0,0,1,1-1h9a1,1,0,0,1,1,1v7.58h7.58a1,1,0,0,1,1,1v9a1,1,0,0,1-1,1h-7.58v7.58A1,1,0,0,1,206.19,80.08Zm-8-2h7V70.5a1,1,0,0,1,1-1h7.58v-7h-7.58a1,1,0,0,1-1-1V53.89h-7v7.58a1,1,0,0,1-1,1h-7.58v7h7.58a1,1,0,0,1,1,1Z" fill="#093f68"/><path d="M219.75,225.25a.84.84,0,0,1-.35-.07l-7.92-3a1,1,0,0,1-.65-.94V205.44a1,1,0,0,1,1-1h15.84a1,1,0,0,1,1,1v15.84a1,1,0,0,1-.65.94l-7.92,3A.84.84,0,0,1,219.75,225.25Zm-6.92-4.66,6.92,2.59,6.92-2.59V206.44H212.83Zm14.84.69h0Z" fill="#093f68"/><rect x="150.11" y="194.59" width="38.51" height="43.63" fill="#fff"/><path d="M188.63,239.22H150.11a1,1,0,0,1-1-1V194.59a1,1,0,0,1,1-1h38.52a1,1,0,0,1,1,1v43.63A1,1,0,0,1,188.63,239.22Zm-37.52-2h36.52V195.59H151.11Z" fill="#093f68"/><path d="M172.83,192.2a3.46,3.46,0,0,0-6.92,0h-5v6.46h16.84V192.2Z" fill="#093f68"/><path d="M177.79,199.66H161a1,1,0,0,1-1-1V192.2a1,1,0,0,1,1-1H165a4.46,4.46,0,0,1,8.7,0h4.07a1,1,0,0,1,1,1v6.46A1,1,0,0,1,177.79,199.66Zm-15.84-2h14.84V193.2h-4a1,1,0,0,1-1-1,2.46,2.46,0,0,0-4.92,0,1,1,0,0,1-1,1h-4Zm11.88-5.46h0Z" fill="#093f68"/><path d="M161.17,228.43c-3,1.38-9.76,1.82-11.07,2a5.51,5.51,0,0,1-6.29-4.59l-.9-5.77c-1.12-7.24,9.18-7.51,13.9-7.5a4.69,4.69,0,0,1,2.38.47,1.69,1.69,0,0,1,.78,2.09,2.41,2.41,0,0,1-1.6,1c-1.45.44-2.91.81-4.38,1.13a18.52,18.52,0,0,1,6.17-.1,4.27,4.27,0,0,1,1.79.6,1.67,1.67,0,0,1,.76,1.63,2.33,2.33,0,0,1-1.33,1.37,11.14,11.14,0,0,1-4.56,1.26,12.53,12.53,0,0,1,4.88-.12c.88.15,1.94.66,1.86,1.54-.06.66-.74,1.07-1.35,1.33a20.66,20.66,0,0,1-4,1.25,6.59,6.59,0,0,1,3.24-.21c.49.09,1.05.32,1.18.81C162.83,227.38,162.22,228,161.17,228.43Z" fill="#ffc9b0"/><path d="M149.24,231.53a6.53,6.53,0,0,1-6.41-5.5c-.91-5.79-.91-5.79-.91-5.83a5.94,5.94,0,0,1,1.3-5c2.79-3.25,9.11-3.62,13.59-3.59a5.55,5.55,0,0,1,2.9.62,2.69,2.69,0,0,1,1.15,3.4,2.36,2.36,0,0,1-.45.61,4.84,4.84,0,0,1,2.11.75,2.49,2.49,0,0,1,.15,4.18,2.44,2.44,0,0,1,1.89,2.41,2.49,2.49,0,0,1-1.49,1.94,1.79,1.79,0,0,1,.55.9c.21.82,0,2-2,2.93h0c-2.58,1.17-7.41,1.68-10,2-.6.06-1.06.11-1.32.15A7,7,0,0,1,149.24,231.53Zm7.06-17.93c-2.74,0-9.21.15-11.57,2.89a4.06,4.06,0,0,0-.83,3.46c0,.1.9,5.77.9,5.77a4.49,4.49,0,0,0,5.14,3.75l1.42-.16c2.31-.25,7.11-.75,9.4-1.79h0a2.32,2.32,0,0,0,.89-.58,2.19,2.19,0,0,0-.37-.11,5.72,5.72,0,0,0-1.8,0l-1,.25a1,1,0,0,1-.51-1.93,6.76,6.76,0,0,1,1.16-.28,20.6,20.6,0,0,0,2.74-.94c.68-.29.74-.49.75-.49a1.75,1.75,0,0,0-1-.48,12,12,0,0,0-2.68-.14,12,12,0,0,1-2,.28,1,1,0,0,1-.28-2,12.85,12.85,0,0,1,2-.28,10.51,10.51,0,0,0,2.36-.89c.65-.34.78-.58.81-.69a.73.73,0,0,0-.35-.6,3.35,3.35,0,0,0-1.37-.43,17.35,17.35,0,0,0-5.84.09,1,1,0,0,1-.39-2c1.44-.31,2.89-.68,4.3-1.1.26-.08.88-.26,1-.52s-.09-.58-.41-.77a3.8,3.8,0,0,0-1.87-.33Z" fill="#093f68"/></g></svg>