<svg xmlns="http://www.w3.org/2000/svg" viewBox="0 0 400 300"><g id="_137_oceania_outline" data-name="#137_oceania_outline"><path d="M127.35,79H272.65a0,0,0,0,1,0,0V233.84a3.46,3.46,0,0,1-3.46,3.46H130.82a3.46,3.46,0,0,1-3.46-3.46V79A0,0,0,0,1,127.35,79Z" fill="#68e1fd"/><path d="M269.18,238.31H130.82a4.47,4.47,0,0,1-4.47-4.47V79a1,1,0,0,1,1-1h145.3a1,1,0,0,1,1,1V233.84A4.47,4.47,0,0,1,269.18,238.31ZM128.35,80V233.84a2.48,2.48,0,0,0,2.47,2.47H269.18a2.48,2.48,0,0,0,2.47-2.47V80Z" fill="#093f68"/><path d="M130.82,62.69H269.18a3.46,3.46,0,0,1,3.46,3.46V79a0,0,0,0,1,0,0H127.35a0,0,0,0,1,0,0V66.16A3.46,3.46,0,0,1,130.82,62.69Z" fill="#fff"/><path d="M272.65,80H127.35a1,1,0,0,1-1-1V66.16a4.47,4.47,0,0,1,4.47-4.47H269.18a4.47,4.47,0,0,1,4.47,4.47V79A1,1,0,0,1,272.65,80Zm-144.3-2h143.3V66.16a2.48,2.48,0,0,0-2.47-2.47H130.82a2.48,2.48,0,0,0-2.47,2.47Z" fill="#093f68"/><circle cx="138.26" cy="70.84" r="2.98" fill="#f56132"/><path d="M138.26,74.82a4,4,0,1,1,4-4A4,4,0,0,1,138.26,74.82Zm0-6a2,2,0,1,0,2,2A2,2,0,0,0,138.26,68.85Z" fill="#093f68"/><circle cx="148.04" cy="70.84" r="2.98" fill="#ffbc0e"/><path d="M148,74.82a4,4,0,1,1,4-4A4,4,0,0,1,148,74.82Zm0-6a2,2,0,1,0,2,2A2,2,0,0,0,148,68.85Z" fill="#093f68"/><circle cx="157.83" cy="70.84" r="2.98" fill="#70cc40"/><path d="M157.83,74.82a4,4,0,1,1,4-4A4,4,0,0,1,157.83,74.82Zm0-6a2,2,0,1,0,2,2A2,2,0,0,0,157.83,68.85Z" fill="#093f68"/><path d="M120.5,202.26h68.7a0,0,0,0,1,0,0v22.12a2,2,0,0,1-2,2H122.45a2,2,0,0,1-2-2V202.26A0,0,0,0,1,120.5,202.26Z" fill="#fff"/><path d="M187.24,227.33H122.45a3,3,0,0,1-3-3V202.26a1,1,0,0,1,1-1h68.69a1,1,0,0,1,1,1v22.12A3,3,0,0,1,187.24,227.33ZM121.5,203.26v21.12a.94.94,0,0,0,1,1h64.79a.94.94,0,0,0,.95-1V203.26Z" fill="#093f68"/><path d="M122.45,192h64.79a2,2,0,0,1,2,2v8.29a0,0,0,0,1,0,0H120.5a0,0,0,0,1,0,0V194A2,2,0,0,1,122.45,192Z" fill="#fff"/><path d="M189.19,203.26H120.5a1,1,0,0,1-1-1V194a3,3,0,0,1,3-2.95h64.79a3,3,0,0,1,2.95,2.95v8.29A1,1,0,0,1,189.19,203.26Zm-67.69-2h66.69V194a.94.94,0,0,0-.95-.95H122.45a.94.94,0,0,0-1,.95Z" fill="#093f68"/><path d="M133.83,208a5.1,5.1,0,0,1,2.52.59,3.85,3.85,0,0,1,1.58,1.69,5.76,5.76,0,0,1,.54,2.57,6.25,6.25,0,0,1-.29,2,4.21,4.21,0,0,1-.89,1.54,3.74,3.74,0,0,1-1.45,1,5.67,5.67,0,0,1-4,0,3.84,3.84,0,0,1-1.45-1,4.27,4.27,0,0,1-.89-1.56,6.56,6.56,0,0,1-.29-2,6,6,0,0,1,.31-2,4.21,4.21,0,0,1,.9-1.54,3.82,3.82,0,0,1,1.44-1A5,5,0,0,1,133.83,208Zm2.71,4.84a4.43,4.43,0,0,0-.33-1.79,2.44,2.44,0,0,0-1-1.15,2.71,2.71,0,0,0-2.47-.17,2.24,2.24,0,0,0-.84.63,2.93,2.93,0,0,0-.55,1,5,5,0,0,0-.2,1.44,5,5,0,0,0,.2,1.45,3,3,0,0,0,.57,1.07,2.36,2.36,0,0,0,.85.64,2.44,2.44,0,0,0,1.05.22,2.6,2.6,0,0,0,1.34-.37,2.55,2.55,0,0,0,1-1.13A4.41,4.41,0,0,0,136.54,212.86Z" fill="#093f68"/><path d="M146.27,215.58a1.53,1.53,0,0,1-.2.7,2.42,2.42,0,0,1-.6.71,3.11,3.11,0,0,1-1,.54,4.15,4.15,0,0,1-1.37.21,3.38,3.38,0,0,1-2.54-1,3.54,3.54,0,0,1-.91-2.54,4.12,4.12,0,0,1,.42-1.9,3,3,0,0,1,1.21-1.29,3.71,3.71,0,0,1,1.88-.45,3.81,3.81,0,0,1,1.25.2,3.13,3.13,0,0,1,1,.52,2.24,2.24,0,0,1,.61.67,1.27,1.27,0,0,1,.21.66.68.68,0,0,1-.24.53.77.77,0,0,1-.57.22.61.61,0,0,1-.36-.11,2.48,2.48,0,0,1-.32-.36,2.89,2.89,0,0,0-.67-.74,1.55,1.55,0,0,0-.89-.24,1.49,1.49,0,0,0-1.25.61,2.58,2.58,0,0,0-.48,1.66,3.16,3.16,0,0,0,.12.9,1.9,1.9,0,0,0,.36.71,1.45,1.45,0,0,0,.55.44,1.72,1.72,0,0,0,.72.15,1.69,1.69,0,0,0,.91-.24,2.1,2.1,0,0,0,.66-.74,1.64,1.64,0,0,1,.35-.47.64.64,0,0,1,.45-.16.66.66,0,0,1,.53.24A.75.75,0,0,1,146.27,215.58Z" fill="#093f68"/><path d="M152.69,214.62h-3.43a2.2,2.2,0,0,0,.24,1,1.67,1.67,0,0,0,.62.69,1.7,1.7,0,0,0,.86.23,2,2,0,0,0,.57-.08,1.78,1.78,0,0,0,.51-.23,3.72,3.72,0,0,0,.45-.33l.53-.49a.56.56,0,0,1,.38-.12.63.63,0,0,1,.44.15.54.54,0,0,1,.17.42,1.17,1.17,0,0,1-.19.55,2.1,2.1,0,0,1-.56.61,3.14,3.14,0,0,1-.95.49,4,4,0,0,1-1.3.19,3.51,3.51,0,0,1-2.63-1,3.62,3.62,0,0,1-.93-2.62,4.26,4.26,0,0,1,.23-1.44,3.24,3.24,0,0,1,.67-1.14,3.05,3.05,0,0,1,1.09-.72,3.93,3.93,0,0,1,1.44-.26,3.4,3.4,0,0,1,1.76.44,2.75,2.75,0,0,1,1.1,1.12,2.85,2.85,0,0,1,.37,1.4.87.87,0,0,1-.38.85A2.35,2.35,0,0,1,152.69,214.62Zm-3.43-1h3.17a2.1,2.1,0,0,0-.48-1.34,1.45,1.45,0,0,0-1.11-.45,1.4,1.4,0,0,0-1.07.45A2.28,2.28,0,0,0,149.26,213.62Z" fill="#093f68"/><path d="M160,216.76a5.23,5.23,0,0,1-1.22.74,3.37,3.37,0,0,1-1.34.25,2.48,2.48,0,0,1-1.18-.27,1.88,1.88,0,0,1-1.06-1.71,1.75,1.75,0,0,1,.45-1.22,2.25,2.25,0,0,1,1.25-.68l.83-.18,1.14-.24,1-.28a1.82,1.82,0,0,0-.28-1,1.24,1.24,0,0,0-1-.33,2.08,2.08,0,0,0-1,.19,1.62,1.62,0,0,0-.58.56c-.16.24-.27.41-.34.49a.54.54,0,0,1-.42.12.76.76,0,0,1-.51-.19.61.61,0,0,1-.22-.49,1.47,1.47,0,0,1,.33-.9,2.39,2.39,0,0,1,1-.72,4.78,4.78,0,0,1,1.73-.28,4.89,4.89,0,0,1,1.81.27,1.75,1.75,0,0,1,.94.87,3.77,3.77,0,0,1,.27,1.56v1.05c0,.29,0,.61,0,1a3.49,3.49,0,0,0,.16,1,3,3,0,0,1,.16.69.64.64,0,0,1-.25.49.83.83,0,0,1-.57.22.79.79,0,0,1-.54-.25A4.27,4.27,0,0,1,160,216.76Zm-.11-2.53a9.11,9.11,0,0,1-1.12.29l-1,.24a1.28,1.28,0,0,0-.54.28.76.76,0,0,0-.25.6.88.88,0,0,0,.3.68,1.09,1.09,0,0,0,.79.28,2,2,0,0,0,1-.23,1.51,1.51,0,0,0,.64-.58,2.69,2.69,0,0,0,.24-1.31Z" fill="#093f68"/><path d="M165,211.59v.22a3,3,0,0,1,1-.9,2.72,2.72,0,0,1,1.26-.29,2.53,2.53,0,0,1,1.24.31,1.92,1.92,0,0,1,.82.85,2.06,2.06,0,0,1,.22.69,8.12,8.12,0,0,1,.05.95v3.26a1.16,1.16,0,0,1-.24.8.8.8,0,0,1-.62.27.79.79,0,0,1-.64-.28,1.15,1.15,0,0,1-.24-.79v-2.92a2.76,2.76,0,0,0-.25-1.32,1,1,0,0,0-1-.46,1.41,1.41,0,0,0-.86.28,1.58,1.58,0,0,0-.56.77,5.23,5.23,0,0,0-.13,1.46v2.19a1.1,1.1,0,0,1-.25.8.82.82,0,0,1-.64.27.77.77,0,0,1-.62-.28,1.15,1.15,0,0,1-.24-.79v-5.06a1.16,1.16,0,0,1,.21-.75.79.79,0,0,1,.6-.25.88.88,0,0,1,.42.11,1,1,0,0,1,.3.33A1.22,1.22,0,0,1,165,211.59Z" fill="#093f68"/><path d="M172.24,209.81a.87.87,0,0,1-.62-.23.76.76,0,0,1-.26-.63.8.8,0,0,1,.26-.61.91.91,0,0,1,.62-.24,1,1,0,0,1,.61.21.91.91,0,0,1,0,1.27A.89.89,0,0,1,172.24,209.81Zm.87,1.81v5.06a1.11,1.11,0,0,1-.25.8.84.84,0,0,1-.64.27.77.77,0,0,1-.62-.28,1.15,1.15,0,0,1-.24-.79v-5a1.12,1.12,0,0,1,.24-.78.8.8,0,0,1,.62-.27.84.84,0,0,1,.64.27A1,1,0,0,1,173.11,211.62Z" fill="#093f68"/><path d="M179.35,216.76a5.08,5.08,0,0,1-1.23.74,3.35,3.35,0,0,1-1.33.25,2.52,2.52,0,0,1-1.19-.27,1.93,1.93,0,0,1-1.06-1.71,1.72,1.72,0,0,1,.46-1.22,2.22,2.22,0,0,1,1.25-.68l.83-.18,1.13-.24c.31-.08.66-.17,1-.28a1.74,1.74,0,0,0-.28-1,1.22,1.22,0,0,0-1-.33,2,2,0,0,0-1,.19,1.55,1.55,0,0,0-.58.56l-.34.49a.57.57,0,0,1-.43.12.76.76,0,0,1-.51-.19.64.64,0,0,1-.21-.49,1.46,1.46,0,0,1,.32-.9,2.39,2.39,0,0,1,1-.72,4.82,4.82,0,0,1,1.73-.28,5,5,0,0,1,1.82.27,1.69,1.69,0,0,1,.93.87,3.77,3.77,0,0,1,.27,1.56v1.05c0,.29,0,.61,0,1a3.86,3.86,0,0,0,.16,1,3.3,3.3,0,0,1,.17.69.65.65,0,0,1-.26.49.82.82,0,0,1-.57.22.75.75,0,0,1-.53-.25A3.82,3.82,0,0,1,179.35,216.76Zm-.12-2.53a8.64,8.64,0,0,1-1.12.29l-1,.24a1.28,1.28,0,0,0-.54.28.76.76,0,0,0-.26.6.88.88,0,0,0,.3.68,1.11,1.11,0,0,0,.79.28,2,2,0,0,0,1-.23,1.54,1.54,0,0,0,.65-.58,2.84,2.84,0,0,0,.23-1.31Z" fill="#093f68"/><circle cx="127.78" cy="197.28" r="1.66" fill="#dfeaef"/><circle cx="133.32" cy="197.28" r="1.66" fill="#dfeaef"/><circle cx="138.87" cy="197.28" r="1.66" fill="#dfeaef"/><path d="M255.3,225.2a1,1,0,0,1-1-1v-1.87H228a1,1,0,0,1,0-2H255.3a1,1,0,0,1,1,1v2.87A1,1,0,0,1,255.3,225.2Z" fill="#093f68"/><path d="M226.72,225.2a1,1,0,0,1-1-1v-6.84a1,1,0,0,1,2,0v6.84A1,1,0,0,1,226.72,225.2Z" fill="#093f68"/><path d="M240.37,225.82a1,1,0,0,1-1-1v-3.49a1,1,0,0,1,2,0v3.49A1,1,0,0,1,240.37,225.82Z" fill="#093f68"/><path d="M160.81,92.51H141.24a1,1,0,0,1,0-2h19.57a1,1,0,0,1,0,2Z" fill="#093f68"/><path d="M199.91,117.81c.53-1.1-1.42-2-2.34-1.16s-.91,2.2-.91,3.42a34.72,34.72,0,0,1-1.07,8.55c-.17.68-.44,1.44-1.09,1.68a2.28,2.28,0,0,1-1.53-.19L188,128.25a4.66,4.66,0,0,1-2.64-1.8c-.92-1.72.57-3.68,1.78-5.21a1.86,1.86,0,0,0,.54-1.48,1.67,1.67,0,0,0-1-1c-2.86-1.51-6.28-1.31-9.5-1.07l.24,1.64a4.35,4.35,0,0,0-3.88,5.37c-.48.57-1.44.33-2-.17s-.92-1.2-1.52-1.64c-1.75-1.25-4.07.35-5.6,1.85-2.4,2.37-4.86,4.8-6.31,7.85a10.32,10.32,0,0,1-1.39,2.55c-1.09,1.23-2.8,1.64-4.37,2.12a27.87,27.87,0,0,0-5.82,2.53c-2.1,1.22-4.19,2.91-4.67,5.29a5.16,5.16,0,0,0,1.47,4.68l-2.15-.32,4.17,13c.59,1.85.84,4.47-1,5.15.14,1.83,2.43,2.72,4.24,2.42s3.44-1.34,5.25-1.61c1.33-.19,2.69,0,4-.2a11.32,11.32,0,0,0,2.39-.78l4.84-2a27.88,27.88,0,0,1,7.67-2.29,9.42,9.42,0,0,1,7.47,2.2c.82.79.95,2.72,1.35,3.78.2.55.67,1.22,1.21,1,.36-.16.43-.62.52-1a4.14,4.14,0,0,1,3.12-3.12,6.48,6.48,0,0,1-1.24,3.94,3.22,3.22,0,0,0,2.38-1.79,6.62,6.62,0,0,1,.34,4,2.06,2.06,0,0,1,1.58-.13c-1.09,2.47,1.39,5.05,3.83,6.2,1.82.85,4.51,1.14,5.38-.67.28,1.09,1.75,1.4,2.82,1s2-1.12,3-1.44,2.44-.17,3.36-.9a4.75,4.75,0,0,0,1.28-2.41,20.71,20.71,0,0,1,4-7.12,18.43,18.43,0,0,0,2.79-3.59,11.62,11.62,0,0,0,.9-3,74.38,74.38,0,0,0,1.3-11.15,1.75,1.75,0,0,0-.09-.76,2,2,0,0,0-.56-.63,20.75,20.75,0,0,1-3.05-3.49l-3-4c-1.82-2.42-3.63-4.85-5.2-7.44-1.38-2.28-2.55-4.69-3.72-7.09C201.33,122.88,201.22,120.49,199.91,117.81Z" fill="#70cc40"/><path d="M196.23,179.88a7.69,7.69,0,0,1-3.23-.77c-2.55-1.2-4.75-3.56-4.67-6a1,1,0,0,1-.93-.15,1,1,0,0,1-.36-1,5.49,5.49,0,0,0,.11-1.67,4.16,4.16,0,0,1-1.7.69,1,1,0,0,1-1-.47,1,1,0,0,1,.05-1.11,5.26,5.26,0,0,0,.79-1.59,3.11,3.11,0,0,0-.9,1.57,2.15,2.15,0,0,1-1.09,1.72,1.57,1.57,0,0,1-1.24,0,2.72,2.72,0,0,1-1.31-1.56,12.92,12.92,0,0,1-.38-1.38,5.25,5.25,0,0,0-.72-2,8.38,8.38,0,0,0-6.68-1.93,27.47,27.47,0,0,0-7.39,2.22l-4.85,2a12.88,12.88,0,0,1-2.59.84,13.39,13.39,0,0,1-2.26.12,12.67,12.67,0,0,0-1.77.08,11.71,11.71,0,0,0-2.48.76,14.93,14.93,0,0,1-2.75.85,5.45,5.45,0,0,1-4.1-1,3.27,3.27,0,0,1-1.3-2.37,1,1,0,0,1,.64-1c1.15-.44.75-2.75.37-3.92l-4.16-12.95a1,1,0,0,1,1-1.31,6.13,6.13,0,0,1-.37-3.56c.46-2.28,2.15-4.22,5.15-6a29.39,29.39,0,0,1,6-2.63l.5-.15a7,7,0,0,0,3.4-1.67,7.26,7.26,0,0,0,1-1.74c.08-.2.17-.39.26-.58,1.54-3.25,4.18-5.84,6.51-8.13,2.61-2.57,5.05-3.26,6.88-2a5.8,5.8,0,0,1,1.07,1.1,4.77,4.77,0,0,0,.54.61,1.18,1.18,0,0,0,.18.13,5.47,5.47,0,0,1,3.89-5.42l-.1-.66a1,1,0,0,1,.92-1.14c3.05-.23,6.84-.51,10,1.17a2.64,2.64,0,0,1,1.45,1.6,2.76,2.76,0,0,1-.73,2.34c-1.17,1.48-2.26,3-1.68,4.11a3.9,3.9,0,0,0,2.12,1.34l4.93,1.86a1.94,1.94,0,0,0,.83.19c.08,0,.27-.18.47-1a33.79,33.79,0,0,0,1-8.31c0-1.29,0-3.06,1.25-4.17a2.66,2.66,0,0,1,3.26,0,1.92,1.92,0,0,1,.81,1.85,24,24,0,0,1,1.26,3.68,20.61,20.61,0,0,0,1.29,3.7c1.15,2.35,2.33,4.77,3.69,7,1.54,2.54,3.37,5,5.14,7.35l3,4a20.09,20.09,0,0,0,2.89,3.33,2.72,2.72,0,0,1,.83,1,2.57,2.57,0,0,1,.18,1.21,76.56,76.56,0,0,1-1.32,11.3,12.94,12.94,0,0,1-1,3.26,13.84,13.84,0,0,1-2.23,3c-.24.26-.47.52-.7.79a19.89,19.89,0,0,0-3.77,6.77l-.06.18a5.2,5.2,0,0,1-1.55,2.72,5,5,0,0,1-2.61.87,7.72,7.72,0,0,0-1.08.2,6.64,6.64,0,0,0-1.39.65,9.09,9.09,0,0,1-1.63.78,3.74,3.74,0,0,1-2.89-.21,2.9,2.9,0,0,1-.29-.19A4.16,4.16,0,0,1,196.23,179.88Zm-7.06-9a2.62,2.62,0,0,1,.73.14,1,1,0,0,1,.6.54,1,1,0,0,1,0,.81c-.83,1.9,1.46,4,3.35,4.89,1.3.61,3.48,1,4.05-.19a1,1,0,0,1,1.87.18.45.45,0,0,0,.24.28,1.8,1.8,0,0,0,1.3.06,7.48,7.48,0,0,0,1.28-.62,9,9,0,0,1,1.8-.83,9.12,9.12,0,0,1,1.39-.26,3.36,3.36,0,0,0,1.63-.46,3.65,3.65,0,0,0,.88-1.75l.06-.19a21.94,21.94,0,0,1,4.16-7.46l.73-.83a12,12,0,0,0,1.93-2.56,10.84,10.84,0,0,0,.8-2.75,72.71,72.71,0,0,0,1.29-11,1.73,1.73,0,0,0,0-.33s-.16-.15-.25-.23a21.76,21.76,0,0,1-3.24-3.68l-3-4c-1.8-2.4-3.66-4.89-5.25-7.52-1.41-2.33-2.61-4.79-3.77-7.17a22.11,22.11,0,0,1-1.43-4,20.17,20.17,0,0,0-1.3-3.7,1.05,1.05,0,0,1,0-.76.75.75,0,0,0-.38-.15.46.46,0,0,0-.35,0c-.58.52-.58,1.67-.58,2.68a35.84,35.84,0,0,1-1.1,8.8,2.62,2.62,0,0,1-3.94,2.17l-4.94-1.86a5.55,5.55,0,0,1-3.17-2.26c-1.26-2.35.7-4.82,1.87-6.3.35-.44.36-.59.36-.62h0s-.06-.11-.45-.31c-2.35-1.24-5.31-1.19-7.89-1l.09.57a1,1,0,0,1-.23.79,1,1,0,0,1-.74.35,3.36,3.36,0,0,0-2.94,4.08,1,1,0,0,1-.2.94,2,2,0,0,1-1.38.68,2.94,2.94,0,0,1-2.05-.76,7.09,7.09,0,0,1-.75-.84,3.66,3.66,0,0,0-.68-.72c-1.36-1-3.64,1.09-4.31,1.74-2.32,2.28-4.71,4.64-6.1,7.57-.09.18-.17.35-.25.54a8.64,8.64,0,0,1-1.3,2.24,8.83,8.83,0,0,1-4.34,2.27l-.49.14a28,28,0,0,0-5.61,2.45c-2.48,1.43-3.85,2.94-4.19,4.62a4.17,4.17,0,0,0,1.18,3.76,1,1,0,0,1,.21,1.16,1,1,0,0,1-1,.55l-.55-.08,3.67,11.42c.87,2.7.57,4.87-.75,5.93a1.53,1.53,0,0,0,.37.4,3.35,3.35,0,0,0,2.53.56,11.86,11.86,0,0,0,2.36-.74,14.34,14.34,0,0,1,2.9-.87,14.84,14.84,0,0,1,2.08-.1,9.85,9.85,0,0,0,1.91-.1,10.87,10.87,0,0,0,2.18-.71l4.85-2a28.68,28.68,0,0,1,8-2.36,10.35,10.35,0,0,1,8.26,2.48,6.06,6.06,0,0,1,1.28,3c.07.32.15.62.22.88a5.15,5.15,0,0,1,3.79-3.52,1,1,0,0,1,1.21,1,6.91,6.91,0,0,1-.07,1.2.91.91,0,0,1,.23,0,1,1,0,0,1,.9.62A7.65,7.65,0,0,1,189.17,170.92Z" fill="#093f68"/><path d="M204.71,183.13a24.25,24.25,0,0,1-1.23,4.43c-.09.24-.24.53-.51.54s-.39-.19-.61-.23c-.62-.14-.81.9-1.39,1.17s-1.17-.35-1.48-.91a16.2,16.2,0,0,1-1.84-5.12c.3-.59,1.21-.41,1.74,0s1.07,1,1.73.87,1-.65,1.46-1,1.43-.1,1.31.48" fill="#70cc40"/><path d="M200.68,190.11a2.52,2.52,0,0,1-2.06-1.49,17,17,0,0,1-2-5.43,1,1,0,0,1,.1-.63,1.64,1.64,0,0,1,1.12-.88,2.72,2.72,0,0,1,2.11.51l.3.24c.2.16.57.45.69.44s.3-.21.45-.34a4.68,4.68,0,0,1,.62-.48,2.07,2.07,0,0,1,2.21,0l.14.11a1,1,0,0,1,1.3,1.13,25.1,25.1,0,0,1-1.28,4.6A1.58,1.58,0,0,1,203,189.1a1.32,1.32,0,0,1-.62-.12v0a2.44,2.44,0,0,1-1,.94A1.65,1.65,0,0,1,200.68,190.11Zm-1.83-6.28a14.71,14.71,0,0,0,1.51,3.81,1.54,1.54,0,0,0,.27.37l.11-.15a1.77,1.77,0,0,1,1.83-1l.09,0a24.26,24.26,0,0,0,.79-2.64,1.06,1.06,0,0,1-.45-.44,2.43,2.43,0,0,0-.25.2,2.41,2.41,0,0,1-3.7,0A1.56,1.56,0,0,1,198.85,183.83Z" fill="#093f68"/><path d="M196.16,97.91c3.22-.16,6.09,1.9,8.66,3.86a2.12,2.12,0,0,1,.76.84,12.54,12.54,0,0,1,.17,1.25c.42,1.64,3.35,1.33,3.91,2.93a1.92,1.92,0,0,1-2,1c1,.86,1.4,2.25,2.27,3.25,1.33,1.49,3.73,2.09,4.32,4a6.86,6.86,0,0,1-5.71-1.91,28.87,28.87,0,0,0-2.47-2.7,4.55,4.55,0,0,0-1.51-.75,2.72,2.72,0,0,0-2.3.25,1.55,1.55,0,0,0-.46,2.09c-1.15.56-4.31,1.5-5.46.51s-.42-1.49-.36-2.78C196,108.75,196.13,97.91,196.16,97.91Z" fill="#70cc40"/><path d="M213.31,116.1a7.91,7.91,0,0,1-5.52-2.26c-.38-.38-.71-.8-1-1.19a8.69,8.69,0,0,0-1.33-1.42,3.54,3.54,0,0,0-1.18-.59,1.8,1.8,0,0,0-1.46.11.72.72,0,0,0-.27.45.41.41,0,0,0,0,.21,1,1,0,0,1,.18.84,1,1,0,0,1-.53.67c-.94.46-4.81,1.86-6.55.37a2.43,2.43,0,0,1-.83-2.78,4.28,4.28,0,0,0,.12-.81c0-.52.08-3.87.13-6.83.09-5.91.09-5.92,1-6,3.47-.16,6.39,1.83,9.32,4.07a3,3,0,0,1,1.08,1.26,2.9,2.9,0,0,1,.17,1,2.69,2.69,0,0,0,0,.35c.08.31.59.52,1.34.81a3.7,3.7,0,0,1,2.55,2,1,1,0,0,1,0,.77,2.93,2.93,0,0,1-1.14,1.2c.14.22.26.45.38.66a7.46,7.46,0,0,0,.84,1.28,8.23,8.23,0,0,0,1.68,1.31,6,6,0,0,1,2.85,3.06,1,1,0,0,1-.11.83,1,1,0,0,1-.71.46A8.93,8.93,0,0,1,213.31,116.1Zm-9.74-7.56a4.45,4.45,0,0,1,1.22.18,5.27,5.27,0,0,1,1.85.92,9.48,9.48,0,0,1,1.67,1.75,11.64,11.64,0,0,0,.9,1,5.7,5.7,0,0,0,2.94,1.56c-.28-.21-.6-.41-.93-.63a9.82,9.82,0,0,1-2.07-1.65,9,9,0,0,1-1.09-1.62,5.3,5.3,0,0,0-1.09-1.53,1,1,0,0,1,.84-1.74.89.89,0,0,0,.53-.08,7.28,7.28,0,0,0-1-.44c-1-.38-2.22-.85-2.56-2.18a2.85,2.85,0,0,1-.09-.77,2.6,2.6,0,0,0,0-.37,1.75,1.75,0,0,0-.44-.4c-2.33-1.78-4.64-3.4-7.08-3.64,0,.95,0,2.48-.06,4,0,3.12-.1,6.35-.13,6.9a6,6,0,0,1-.17,1.14c-.13.57-.13.57.18.83.46.4,2.2.16,3.57-.32a2.67,2.67,0,0,1,0-.56,2.75,2.75,0,0,1,1.09-1.78A3.4,3.4,0,0,1,203.57,108.54Zm-7.41-10.63h0Z" fill="#093f68"/><path d="M219,101.93c.16-.63-.75-1.07-1.35-.81s-.95.86-1.38,1.35a4.38,4.38,0,0,1-3.47,1.43,3.77,3.77,0,0,0-1.16,0,.83.83,0,0,0-.68.83,11.23,11.23,0,0,0,4.87.73,1.71,1.71,0,0,0,.9-.24,1.83,1.83,0,0,0,.54-.69l1.43-2.56" fill="#70cc40"/><path d="M215,106.48a12.19,12.19,0,0,1-4.44-.83,1,1,0,0,1-.63-.79,1.83,1.83,0,0,1,1.42-1.94,3.72,3.72,0,0,1,1.23,0l.24,0a3.32,3.32,0,0,0,2.66-1.1l.29-.34a3.79,3.79,0,0,1,1.45-1.26,2.15,2.15,0,0,1,2.16.34,1.63,1.63,0,0,1,.55,1.64,1,1,0,0,1-.64.7L218.13,105a2.79,2.79,0,0,1-.85,1,2.64,2.64,0,0,1-1.39.42Q215.46,106.48,215,106.48Zm1.7-3.06a5.28,5.28,0,0,1-1.62,1.06l.64,0a1.18,1.18,0,0,0,.41-.07,2.06,2.06,0,0,0,.23-.36Z" fill="#093f68"/><path d="M235.67,194.91a2,2,0,0,1-.34-2.33,3.56,3.56,0,0,1,2.1-1.11c4.46-1.36,7.09-5.86,10.87-8.58a1,1,0,0,1,.47-.21c.63,0,.56,1,.11,1.45l2.3-.27a5.57,5.57,0,0,1-2.49,3.27,13.54,13.54,0,0,0-1.62.92,1.83,1.83,0,0,0-.79,1.6,2,2,0,0,0-2.26.71,13.22,13.22,0,0,0-1.32,2.17C241.4,194.7,237.84,197.37,235.67,194.91Z" fill="#70cc40"/><path d="M237.77,196.89a3.72,3.72,0,0,1-2.85-1.32h0a3,3,0,0,1-.43-3.54,3.87,3.87,0,0,1,2.38-1.43l.27-.08c2.56-.79,4.51-2.75,6.57-4.82a32.93,32.93,0,0,1,4-3.62,1.85,1.85,0,0,1,1-.4,1.39,1.39,0,0,1,1.36.87,1.85,1.85,0,0,1,.11.42l.85-.1a1,1,0,0,1,.88.34,1,1,0,0,1,.2.92A6.55,6.55,0,0,1,249.2,188c-.22.13-.44.24-.66.35a5.74,5.74,0,0,0-.86.5c-.26.21-.44.49-.41.66a1,1,0,0,1-1.4,1.06c-.27-.12-.77.09-1.11.46a6.72,6.72,0,0,0-.77,1.24c-.14.26-.28.53-.43.78-1.05,1.76-3.25,3.64-5.41,3.84Zm-1.35-2.64a1.71,1.71,0,0,0,1.55.63,6.19,6.19,0,0,0,3.88-2.87c.13-.22.25-.45.37-.68a8,8,0,0,1,1.05-1.64,3.4,3.4,0,0,1,2.19-1.16,3,3,0,0,1,1-1.26,6.42,6.42,0,0,1,1.17-.71l.55-.29a4.72,4.72,0,0,0,1.32-1.2l-.5.06a1,1,0,0,1-1-.57.37.37,0,0,1,0-.11c-1,.82-1.9,1.75-2.81,2.66-2.14,2.16-4.35,4.39-7.39,5.32l-.29.09c-.54.15-1.09.31-1.27.6a1.09,1.09,0,0,0,.25,1.13Z" fill="#093f68"/><path d="M258.81,179.24l-2.13,1.6a17.36,17.36,0,0,1-3.48,2.21.82.82,0,0,1-.59.08c-.45-.18-.27-.84-.15-1.31s-.32-1.19-.65-.83c-.12-.63.43-1.15.82-1.66a5.34,5.34,0,0,0,.86-3.83,32.79,32.79,0,0,0-.87-3.93c-.12-.5-.13-1.17.34-1.36.64-.26,1.07.66,1.11,1.35a5.79,5.79,0,0,0,.38,2.2,1.66,1.66,0,0,0,1.81,1l.32-1.29c.38-.24.88.18.95.62a3.79,3.79,0,0,1-.24,1.31,1.1,1.1,0,0,0,.37,1.2,1.32,1.32,0,0,0,.63.08C260.87,176.63,260.76,177.77,258.81,179.24Z" fill="#70cc40"/><path d="M252.78,184.16a1.46,1.46,0,0,1-.53-.1,1.71,1.71,0,0,1-.84-2.16,1,1,0,0,1-.58-.73,2.71,2.71,0,0,1,.82-2.21l.19-.23a4.4,4.4,0,0,0,.65-3.13A15.52,15.52,0,0,0,252,173c-.1-.41-.21-.82-.31-1.24a2,2,0,0,1,1-2.51,1.53,1.53,0,0,1,1.41.13,2.7,2.7,0,0,1,1.07,2.09v.24a4.67,4.67,0,0,0,.27,1.59,1.14,1.14,0,0,0,.18.25l.08-.34a1,1,0,0,1,.44-.61,1.46,1.46,0,0,1,1.43-.07,1.86,1.86,0,0,1,1,1.4,3.32,3.32,0,0,1-.16,1.35l-.09.31s0,0,0,.07c.62,0,2.45-.06,2.91,1.26s-1.21,2.67-1.76,3.09h0l-2.13,1.6A17.92,17.92,0,0,1,253.6,184,1.9,1.9,0,0,1,252.78,184.16Zm.27-3.75a2,2,0,0,1,.43,1.39,21.2,21.2,0,0,0,2.6-1.76l2.12-1.6a5.76,5.76,0,0,0,.82-.72,6.37,6.37,0,0,0-.71,0,2.16,2.16,0,0,1-1.11-.2,1.86,1.86,0,0,1-.95-1.7,2.37,2.37,0,0,1-1.78-.49.28.28,0,0,1,0,.09,6.37,6.37,0,0,1-1,4.55l-.23.28Zm-1.55,1.15Zm7.31-2.32Z" fill="#093f68"/><path d="M244.76,141.38c-1.46.49-2.79-1-3.63-2.26-.67-1-1.32-2.05-2-3.09a7.06,7.06,0,0,1,5.45,5.07.79.79,0,0,1-.11.82c-.22.19-.67-.13-.46-.33" fill="#70cc40"/><path d="M244.33,143a1.35,1.35,0,0,1-1-.45,1.05,1.05,0,0,1-.18-.25,6.11,6.11,0,0,1-2.85-2.61c-.67-1-1.33-2.07-2-3.11a1,1,0,0,1,0-1.09,1,1,0,0,1,1-.42,8,8,0,0,1,6.22,5.74.87.87,0,0,1,.14.27,1,1,0,0,1-.07.81,1.44,1.44,0,0,1-.48.81A1.24,1.24,0,0,1,244.33,143Zm-2.39-4.44,0,0a6.54,6.54,0,0,0,1.06,1.31A6.1,6.1,0,0,0,241.94,138.54Z" fill="#093f68"/><path d="M248.08,129.57c-.47-.93-.34-2-.6-3.06s-1.27-2-2.23-1.61a1.59,1.59,0,0,0-.8,1.6,4.65,4.65,0,0,0,.66,1.77c.62,1.15,1.71,2.5,2.94,2.06" fill="#70cc40"/><path d="M247.56,131.42c-1.21,0-2.39-.94-3.33-2.68a5.58,5.58,0,0,1-.78-2.16,2.55,2.55,0,0,1,1.4-2.59,2.19,2.19,0,0,1,1.87.05,3.5,3.5,0,0,1,1.73,2.22,9.78,9.78,0,0,1,.21,1.36,4.42,4.42,0,0,0,.32,1.5,1,1,0,0,1,0,.86h0a1,1,0,0,1-.6,1.28A2.53,2.53,0,0,1,247.56,131.42Zm-1.85-5.62a.11.11,0,0,0-.06,0,.64.64,0,0,0-.2.59,3.73,3.73,0,0,0,.54,1.38,5.72,5.72,0,0,0,.84,1.19c-.08-.4-.12-.79-.16-1.15a7.81,7.81,0,0,0-.16-1.07,1.52,1.52,0,0,0-.67-.92A.3.3,0,0,0,245.71,125.8Z" fill="#093f68"/><path d="M235.35,115.64a14.1,14.1,0,0,1-3.73-1.29c-.74-.37-1.56-1.14-1.19-1.89l.59-.24,2.19,1.08a1.84,1.84,0,0,1,1.1,1c.13.49-.46,1.1-.86.78" fill="#70cc40"/><path d="M235.35,116.64a.65.65,0,0,1-.19,0,14.94,14.94,0,0,1-4-1.38c-1.51-.77-2.18-2.09-1.63-3.22a1,1,0,0,1,.52-.48l.6-.25a1.06,1.06,0,0,1,.82,0l2.18,1.08a2.77,2.77,0,0,1,1.62,1.63,1.43,1.43,0,0,1,0,.58l.23,0a1,1,0,0,1-.19,2Z" fill="#093f68"/><path d="M227.43,109.14a24.76,24.76,0,0,0-2-3.38c-.1-.15-.24-.31-.41-.28a.43.43,0,0,0-.24.18,2.7,2.7,0,0,0-.3,3.1,2,2,0,0,0,2.89.45" fill="#70cc40"/><path d="M226.24,110.66l-.33,0a3.08,3.08,0,0,1-2.23-1.33,3.7,3.7,0,0,1,.37-4.29,1.44,1.44,0,0,1,.82-.52,1.37,1.37,0,0,1,1.43.7,26,26,0,0,1,2,3.51,1.13,1.13,0,0,1-.22,1.21A2.66,2.66,0,0,1,226.24,110.66Zm-1.05-3.51a1.54,1.54,0,0,0,.16,1.07,1.07,1.07,0,0,0,.71.42C225.79,108.13,225.5,107.64,225.19,107.15Z" fill="#093f68"/><path d="M262.94,136.05a2.17,2.17,0,0,0-.24-1.89,1.38,1.38,0,0,0-1.75-.4,1.6,1.6,0,0,0-.64,1.19,1.89,1.89,0,0,0,.91,1.9,1.24,1.24,0,0,0,1.75-.79" fill="#70cc40"/><path d="M261.76,138a2.17,2.17,0,0,1-1-.22,2.87,2.87,0,0,1-1.46-2.91,2.52,2.52,0,0,1,1.09-1.92,2.35,2.35,0,0,1,3.08.64,3,3,0,0,1,.48,2.5.71.71,0,0,1,0,.14,2,2,0,0,1-1.09,1.5A2.42,2.42,0,0,1,261.76,138Zm-.21-3.38h-.06a.67.67,0,0,0-.19.45,1,1,0,0,0,.36.91.42.42,0,0,0,.29,0,.94.94,0,0,1,0-.16,1.2,1.2,0,0,0-.09-1A.51.51,0,0,0,261.55,134.59Z" fill="#093f68"/></g></svg>