<svg xmlns="http://www.w3.org/2000/svg" viewBox="0 0 400 300"><g id="_561_online_report_outline" data-name="#561_online_report_outline"><path d="M113.53,234.63H286.47a0,0,0,0,1,0,0v3.54a5.68,5.68,0,0,1-5.68,5.68H119.21a5.68,5.68,0,0,1-5.68-5.68v-3.54a0,0,0,0,1,0,0Z" fill="#093f68"/><path d="M280.79,244.85H119.21a6.69,6.69,0,0,1-6.68-6.68v-3.54a1,1,0,0,1,1-1H286.47a1,1,0,0,1,1,1v3.54A6.69,6.69,0,0,1,280.79,244.85Zm-166.26-9.22v2.54a4.69,4.69,0,0,0,4.68,4.68H280.79a4.69,4.69,0,0,0,4.68-4.68v-2.54Z" fill="#093f68"/><rect x="128.55" y="90.82" width="142.91" height="96.03" rx="7.67" fill="#68e1fd"/><path d="M263.79,187.85H136.21a8.68,8.68,0,0,1-8.66-8.67V98.49a8.68,8.68,0,0,1,8.66-8.67H263.79a8.68,8.68,0,0,1,8.66,8.67v80.69A8.68,8.68,0,0,1,263.79,187.85Zm-127.58-96a6.67,6.67,0,0,0-6.66,6.67v80.69a6.67,6.67,0,0,0,6.66,6.67H263.79a6.67,6.67,0,0,0,6.66-6.67V98.49a6.67,6.67,0,0,0-6.66-6.67Z" fill="#093f68"/><path d="M266.69,186.85H133.31a6.27,6.27,0,0,0-6.08,4.06l-13.45,41.61c-1.16,3.57,1.87,7.14,6.07,7.14h160.3c4.2,0,7.23-3.57,6.07-7.14l-13.45-41.61A6.27,6.27,0,0,0,266.69,186.85Z" fill="#fff"/><path d="M280.15,240.66H119.85a7.56,7.56,0,0,1-6.12-3,6,6,0,0,1-.9-5.47l13.45-41.61a7.3,7.3,0,0,1,7-4.75H266.69a7.3,7.3,0,0,1,7,4.75l13.45,41.61a6,6,0,0,1-.9,5.47A7.56,7.56,0,0,1,280.15,240.66ZM133.31,187.85a5.27,5.27,0,0,0-5.12,3.37l-13.46,41.6a4,4,0,0,0,.62,3.68,5.53,5.53,0,0,0,4.5,2.16h160.3a5.53,5.53,0,0,0,4.5-2.16,4,4,0,0,0,.62-3.68l-13.46-41.6a5.27,5.27,0,0,0-5.12-3.37Z" fill="#093f68"/><rect x="138.22" y="99.58" width="123.56" height="78.51" fill="#093f68"/><path d="M261.78,179.09H138.22a1,1,0,0,1-1-1V99.58a1,1,0,0,1,1-1H261.78a1,1,0,0,1,1,1v78.51A1,1,0,0,1,261.78,179.09Zm-122.56-2H260.78V100.58H139.22Z" fill="#093f68"/><path d="M264.88,218.6H135.12a4.78,4.78,0,0,1-3.87-1.82,3.45,3.45,0,0,1-.55-3.08l5.89-19.13a4.5,4.5,0,0,1,4.42-2.9H259a4.5,4.5,0,0,1,4.42,2.9l5.89,19.13a3.45,3.45,0,0,1-.55,3.08A4.78,4.78,0,0,1,264.88,218.6ZM141,193.67a2.54,2.54,0,0,0-2.51,1.49l-5.89,19.13a1.43,1.43,0,0,0,.25,1.3,2.82,2.82,0,0,0,2.26,1H264.88a2.82,2.82,0,0,0,2.26-1,1.43,1.43,0,0,0,.25-1.3l-5.89-19.13a2.54,2.54,0,0,0-2.51-1.49Z" fill="#dfeaef"/><path d="M220.43,235.63H179.57a1,1,0,0,1-1-1.19L181,222a1,1,0,0,1,1-.8h36a1,1,0,0,1,1,.8l2.45,12.41a1,1,0,0,1-1,1.19Zm-39.64-2h38.42l-2.05-10.4H182.84Z" fill="#dfeaef"/><path d="M171.56,69.65h-8V66.76a10.6,10.6,0,1,0-21.2,0v2.89h0v2.9a10.59,10.59,0,0,1-10.6,10.6h45.87Z" fill="#68e1fd"/><path d="M177.65,84.15H131.78a1,1,0,0,1,0-2,9.6,9.6,0,0,0,9.6-9.6v-2.9a.22.22,0,0,1,0-.08V66.76a11.6,11.6,0,1,1,23.2,0v1.89h7a1,1,0,0,1,.91.59l6.1,13.5a1,1,0,0,1-.92,1.41Zm-39.36-2H176.1l-5.19-11.5h-7.32a1,1,0,0,1-1-1V66.76a9.6,9.6,0,1,0-19.2,0v2.89s0,.06,0,.08v2.82A11.6,11.6,0,0,1,138.29,82.15Z" fill="#093f68"/><path d="M121.18,69.65h21.21a0,0,0,0,1,0,0v2.9a10.6,10.6,0,0,1-10.6,10.6h0a10.6,10.6,0,0,1-10.6-10.6v-2.9a0,0,0,0,1,0,0Z" fill="#fff"/><path d="M131.78,84.15a11.61,11.61,0,0,1-11.6-11.6v-2.9a1,1,0,0,1,1-1h21.21a1,1,0,0,1,1,1v2.9A11.62,11.62,0,0,1,131.78,84.15Zm-9.6-13.5v1.9a9.61,9.61,0,0,0,19.21,0v-1.9Z" fill="#093f68"/><path d="M163.59,66.74V178.09h79.22v-111a10.92,10.92,0,0,0-10.92-10.93H153A10.6,10.6,0,0,1,163.59,66.74Z" fill="#fff"/><path d="M242.81,179.09H163.59a1,1,0,0,1-1-1V66.74a9.63,9.63,0,0,0-9.6-9.59,1,1,0,0,1,0-2h78.9a11.94,11.94,0,0,1,11.92,11.93v111A1,1,0,0,1,242.81,179.09Zm-78.22-2h77.22v-110a9.93,9.93,0,0,0-9.92-9.93h-72.4a11.6,11.6,0,0,1,5.1,9.59h0Z" fill="#093f68"/><path d="M176.3,122.21a1,1,0,0,1-1-1V80.6a1,1,0,1,1,2,0v40.61A1,1,0,0,1,176.3,122.21Z" fill="#093f68"/><path d="M233.89,122.3H176.3a1,1,0,0,1,0-2h57.59a1,1,0,0,1,0,2Z" fill="#093f68"/><path d="M236.33,121.41l-2,1.54a.26.26,0,0,1-.42-.2v-3.08a.26.26,0,0,1,.42-.21l2,1.54A.25.25,0,0,1,236.33,121.41Z" fill="#093f68"/><path d="M176.51,79.43l1.53,2a.26.26,0,0,1-.2.42h-3.08a.26.26,0,0,1-.21-.42l1.54-2A.26.26,0,0,1,176.51,79.43Z" fill="#093f68"/><rect x="176.3" y="86.36" width="19.95" height="4.92" fill="#f56132"/><path d="M196.25,92.28H176.3a1,1,0,0,1-1-1V86.36a1,1,0,0,1,1-1h19.95a1,1,0,0,1,1,1v4.92A1,1,0,0,1,196.25,92.28Zm-18.95-2h17.95V87.36H177.3Z" fill="#093f68"/><circle cx="197.44" cy="88.82" r="3.56" fill="#f56132"/><path d="M197.44,93.37A4.56,4.56,0,1,1,202,88.82,4.55,4.55,0,0,1,197.44,93.37Zm0-7.11A2.56,2.56,0,1,0,200,88.82,2.56,2.56,0,0,0,197.44,86.26Z" fill="#093f68"/><rect x="176.3" y="97.34" width="30.99" height="4.92" fill="#ffbc0e"/><path d="M207.28,103.25h-31a1,1,0,0,1-1-1V97.34a1,1,0,0,1,1-1h31a1,1,0,0,1,1,1v4.91A1,1,0,0,1,207.28,103.25Zm-30-2h29V98.34h-29Z" fill="#093f68"/><circle cx="208.48" cy="99.8" r="3.56" fill="#ffbc0e"/><path d="M208.48,104.35A4.56,4.56,0,1,1,213,99.8,4.55,4.55,0,0,1,208.48,104.35Zm0-7.11A2.56,2.56,0,1,0,211,99.8,2.56,2.56,0,0,0,208.48,97.24Z" fill="#093f68"/><rect x="176.3" y="108.32" width="40.46" height="4.92" fill="#70cc40"/><path d="M216.76,114.23H176.3a1,1,0,0,1-1-1v-4.91a1,1,0,0,1,1-1h40.46a1,1,0,0,1,1,1v4.91A1,1,0,0,1,216.76,114.23Zm-39.46-2h38.46v-2.91H177.3Z" fill="#093f68"/><circle cx="217.96" cy="110.77" r="3.56" fill="#70cc40"/><path d="M218,115.33a4.56,4.56,0,1,1,4.55-4.56A4.56,4.56,0,0,1,218,115.33Zm0-7.11a2.56,2.56,0,1,0,2.55,2.55A2.56,2.56,0,0,0,218,108.22Z" fill="#093f68"/><path d="M231,92.61h-8.83a1,1,0,0,1,0-2H231a1,1,0,0,1,0,2Z" fill="#dfeaef"/><path d="M231,97.06h-3.66a1,1,0,0,1,0-2H231a1,1,0,1,1,0,2Z" fill="#dfeaef"/><path d="M225.74,97.06h-5.67a1,1,0,0,1,0-2h5.67a1,1,0,0,1,0,2Z" fill="#dfeaef"/><path d="M231,101.5h-11a1,1,0,0,1,0-2h11a1,1,0,0,1,0,2Z" fill="#dfeaef"/><path d="M218.6,70.65H188.11a1,1,0,0,1,0-2H218.6a1,1,0,0,1,0,2Z" fill="#093f68"/><path d="M233.89,169.66H176.3a1,1,0,0,1-1-1v-35a1,1,0,0,1,1-1h57.59a1,1,0,0,1,1,1v35A1,1,0,0,1,233.89,169.66Zm-56.59-2h55.59v-33H177.3Z" fill="#093f68"/><path d="M184.94,169.66a1,1,0,0,1-1-1v-35a1,1,0,0,1,2,0v35A1,1,0,0,1,184.94,169.66Z" fill="#093f68"/><path d="M233.89,143.22H176.3a1,1,0,0,1,0-2h57.59a1,1,0,0,1,0,2Z" fill="#093f68"/><polygon points="246.45 157.02 239.99 163.48 250.47 173.95 243.6 180.82 233.13 170.34 226.66 176.81 222.4 152.75 246.45 157.02" fill="#ffbc0e"/><path d="M243.6,181.82a1,1,0,0,1-.7-.3l-9.77-9.76-5.76,5.75a1,1,0,0,1-1.69-.53l-4.26-24a1,1,0,0,1,1.16-1.16l24,4.26a1,1,0,0,1,.53,1.7l-5.76,5.75,9.77,9.77a1,1,0,0,1,0,1.41l-6.86,6.86A1,1,0,0,1,243.6,181.82Zm-10.47-12.48a1,1,0,0,1,.7.29l9.77,9.77,5.45-5.45-9.77-9.76a1,1,0,0,1,0-1.42l5.11-5.1L223.64,154l3.67,20.75,5.11-5.11A1,1,0,0,1,233.13,169.34Z" fill="#093f68"/><path d="M206.17,162.32v-1.23c-.45-.12-.88-.21-1.3-.35a3.8,3.8,0,0,1-2-1.49,3.69,3.69,0,0,1-.57-2.08h2.39a1.88,1.88,0,0,0,1.46,1.77V155.7c-.48-.14-1-.27-1.43-.42a3.27,3.27,0,0,1-1.39-.79,2.68,2.68,0,0,1-.77-1.5,3.79,3.79,0,0,1,.15-2.08,3.46,3.46,0,0,1,2.1-2.08,11.72,11.72,0,0,1,1.2-.31l.15,0v-1.61h2.23v1.54c0,.12,0,.15.14.17a4.76,4.76,0,0,1,2.08,1,3.35,3.35,0,0,1,1.19,2.07c0,.22.05.45.08.68h-2.43a1.7,1.7,0,0,0-1.05-1.54v3l.26.07a8.48,8.48,0,0,1,1.91.6,2.76,2.76,0,0,1,1.65,2.3,3.61,3.61,0,0,1-2.43,4c-.45.16-.92.26-1.4.39v1.19Zm2.24-6.15V159a2,2,0,0,0,1-.43,1.23,1.23,0,0,0,0-2A10,10,0,0,0,208.41,156.17Zm-2.25-2.88v-2.72a6.73,6.73,0,0,0-.85.43,1.17,1.17,0,0,0,.07,2A7.94,7.94,0,0,0,206.16,153.29Z" fill="#093f68"/></g></svg>