<svg xmlns="http://www.w3.org/2000/svg" viewBox="0 0 400 300"><g id="_302_paris_outline" data-name="#302_paris_outline"><path d="M292.93,150a92.93,92.93,0,1,1-94.52-92.91c.53,0,1.06,0,1.59,0s1.05,0,1.58,0A92.93,92.93,0,0,1,292.93,150Z" fill="#fff"/><path d="M200,243.93a94,94,0,0,1-30.21-5,95.18,95.18,0,0,1-18.23-8.47A93.94,93.94,0,0,1,198.39,56.09c1.05,0,2.14,0,3.23,0A93.93,93.93,0,0,1,200,243.93Zm0-185.86c-.5,0-1,0-1.51,0a91.9,91.9,0,1,0,3.11,0c-.54,0-1.07,0-1.56,0Z" fill="#093f68"/><path d="M192.72,117.13H158.31c-4,0-7.23-2.62-7.23-5.84,0-2.48,1.95-4.68,4.81-5.5a8.49,8.49,0,0,1,7.14-4.33c.77-3.18,4.26-5.56,8.4-5.56a8.94,8.94,0,0,1,7.73,3.93,13.08,13.08,0,0,1,5.73-1.28c5.44,0,10.07,3.22,10.88,7.45a5.89,5.89,0,0,1,4.18,5.29C200,114.51,196.71,117.13,192.72,117.13Zm-28.83-13.7c-2.95,0-5.55,1.47-6.34,3.56a1,1,0,0,1-.72.63c-2.21.48-3.75,2-3.75,3.67,0,2.11,2.35,3.84,5.23,3.84h34.41c2.88,0,5.23-1.73,5.23-3.84,0-1.56-1.35-3-3.36-3.58a1,1,0,0,1-.72-.86c-.33-3.53-4.28-6.3-9-6.3a10.89,10.89,0,0,0-5.66,1.52,1,1,0,0,1-1.46-.52c-.76-2.15-3.37-3.65-6.34-3.65-3.48,0-6.35,2-6.55,4.6a1,1,0,0,1-1,.93Zm-7.28,3.21h0Z" fill="#dfeaef"/><path d="M181.26,107.51a1,1,0,0,1-1-.82h0a5.56,5.56,0,0,0-2.25-3.46,5.75,5.75,0,0,0-4.77-.18,1,1,0,0,1-.6-1.91c2.54-.79,4.7-.66,6.43.4a7.55,7.55,0,0,1,3.16,4.81,1,1,0,0,1-.82,1.15Z" fill="#dfeaef"/><path d="M235.63,208.1q-2.73-5.22-5.14-10.42-1.25-2.7-2.4-5.37a252.17,252.17,0,0,1-11.11-31q-.79-2.79-1.52-5.53c-.62-2.35-1.19-4.66-1.73-7A273.74,273.74,0,0,1,206.4,88c0-1.52,0-2.93,0-4.21,0-3,.15-5.4.24-6.94.08-1.38.15-2.11.15-2.11H193.19s.07.73.15,2.11c.08,1.54.19,3.89.24,6.94,0,1.28,0,2.69,0,4.21a280,280,0,0,1-7,60.83c-.52,2.29-1.07,4.6-1.67,7-.47,1.83-1,3.67-1.49,5.53a242.31,242.31,0,0,1-10.9,31c-.77,1.79-1.56,3.58-2.39,5.37q-2.4,5.2-5.14,10.42a206.8,206.8,0,0,1-13,21.54,93.09,93.09,0,0,0,18,8.38,34.33,34.33,0,0,1,59.77,0,92.26,92.26,0,0,0,18.43-8.62A224.25,224.25,0,0,1,235.63,208.1Zm-38.88-39.94h6.5l9.38,24.15H187.37Z" fill="#68e1fd" stroke="#093f68" stroke-linecap="round" stroke-linejoin="round" stroke-width="2"/><rect x="187.83" y="76.81" width="24.33" height="6.95" rx="2.24" fill="#68e1fd"/><path d="M209.92,84.75H190.07a3.25,3.25,0,0,1-3.24-3.24V79.05a3.25,3.25,0,0,1,3.24-3.24h19.85a3.24,3.24,0,0,1,3.24,3.24v2.46A3.24,3.24,0,0,1,209.92,84.75Zm-19.85-6.94a1.24,1.24,0,0,0-1.24,1.24v2.46a1.24,1.24,0,0,0,1.24,1.24h19.85a1.24,1.24,0,0,0,1.24-1.24V79.05a1.24,1.24,0,0,0-1.24-1.24Z" fill="#093f68"/><rect x="191" y="83.75" width="18" height="4.21" fill="#093f68"/><path d="M209,89H191a1,1,0,0,1-1-1V83.75a1,1,0,0,1,1-1h18a1,1,0,0,1,1,1V88A1,1,0,0,1,209,89Zm-17-2h16V84.75H192Z" fill="#093f68"/><rect x="192.23" y="72.6" width="15.53" height="4.21" fill="#68e1fd"/><path d="M207.76,77.81H192.23a1,1,0,0,1-1-1V72.6a1,1,0,0,1,1-1h15.53a1,1,0,0,1,1,1v4.21A1,1,0,0,1,207.76,77.81Zm-14.53-2h13.53V73.6H193.23Z" fill="#093f68"/><rect x="194.31" y="65.76" width="11.37" height="6.84" fill="#68e1fd"/><path d="M205.68,73.6H194.31a1,1,0,0,1-1-1V65.76a1,1,0,0,1,1-1h11.37a1,1,0,0,1,1,1V72.6A1,1,0,0,1,205.68,73.6Zm-10.37-2h9.37V66.76h-9.37Z" fill="#093f68"/><polygon points="200 32.81 202.16 65.76 197.84 65.76 200 32.81" fill="#68e1fd"/><path d="M202.15,66.76h-4.31a1,1,0,0,1-.73-.32,1,1,0,0,1-.27-.75L199,32.75a1,1,0,0,1,1-.94,1,1,0,0,1,1,.94l2.15,32.94a1,1,0,0,1-1,1.07Zm-3.24-2h2.18L200,48.11Z" fill="#093f68"/><rect x="180.01" y="148.79" width="39.97" height="6.95" rx="2.2" fill="#68e1fd"/><path d="M217.78,156.74H182.22a3.21,3.21,0,0,1-3.21-3.2V151a3.21,3.21,0,0,1,3.21-3.21h35.56A3.21,3.21,0,0,1,221,151v2.54A3.21,3.21,0,0,1,217.78,156.74Zm-35.56-7A1.21,1.21,0,0,0,181,151v2.54a1.21,1.21,0,0,0,1.21,1.2h35.56a1.2,1.2,0,0,0,1.2-1.2V151a1.21,1.21,0,0,0-1.2-1.21Z" fill="#093f68"/><rect x="161.7" y="197.68" width="76.6" height="7.65" rx="2.1" fill="#093f68"/><path d="M236.19,206.33H163.8a3.11,3.11,0,0,1-3.1-3.11v-3.44a3.1,3.1,0,0,1,3.1-3.1h72.39a3.11,3.11,0,0,1,3.11,3.1v3.44A3.12,3.12,0,0,1,236.19,206.33Zm-72.39-7.65a1.1,1.1,0,0,0-1.1,1.1v3.44a1.11,1.11,0,0,0,1.1,1.11h72.39a1.11,1.11,0,0,0,1.11-1.11v-3.44a1.11,1.11,0,0,0-1.11-1.1Z" fill="#093f68"/><rect x="164.4" y="192.31" width="71.2" height="5.37" rx="1.29" fill="#68e1fd"/><path d="M234.3,198.68H165.69a2.3,2.3,0,0,1-2.29-2.29v-2.78a2.3,2.3,0,0,1,2.29-2.3H234.3a2.3,2.3,0,0,1,2.3,2.3v2.78A2.3,2.3,0,0,1,234.3,198.68Zm-68.61-5.37a.29.29,0,0,0-.29.3v2.78a.29.29,0,0,0,.29.29H234.3a.29.29,0,0,0,.3-.29v-2.78a.29.29,0,0,0-.3-.3Z" fill="#093f68"/><rect x="178.66" y="155.74" width="42.68" height="5.53" rx="1.74" fill="#093f68"/><path d="M219.6,162.27H180.4a2.75,2.75,0,0,1-2.74-2.75v-2a2.74,2.74,0,0,1,2.74-2.74h39.2a2.74,2.74,0,0,1,2.74,2.74v2A2.75,2.75,0,0,1,219.6,162.27Zm-39.2-5.53a.74.74,0,0,0-.74.74v2a.75.75,0,0,0,.74.75h39.2a.75.75,0,0,0,.74-.75v-2a.74.74,0,0,0-.74-.74Z" fill="#093f68"/><path d="M158.64,161.6H136.22c-2.79,0-5.06-1.86-5.06-4.15a4.15,4.15,0,0,1,2.77-3.7c.65-2.86,3.7-4.95,7.4-4.95a9,9,0,0,1,3.59.74,6.2,6.2,0,0,1,5.18-2.46c2.75,0,5.09,1.54,5.74,3.65a5.82,5.82,0,0,1,4.62,2.85,4.25,4.25,0,0,1,3.24,3.87C163.7,159.74,161.43,161.6,158.64,161.6Zm-17.31-10.8c-2.89,0-5.31,1.67-5.51,3.79a1,1,0,0,1-.72.87,2.35,2.35,0,0,0-1.94,2c0,1.17,1.4,2.15,3.06,2.15h22.42c1.66,0,3.06-1,3.06-2.15,0-.93-.89-1.77-2.16-2a1,1,0,0,1-.72-.62,4,4,0,0,0-3.8-2.1,1,1,0,0,1-1-.93c-.11-1.47-1.86-2.67-3.91-2.67a3.92,3.92,0,0,0-3.81,2.14,1,1,0,0,1-.61.61,1,1,0,0,1-.85-.09A6.76,6.76,0,0,0,141.33,150.8Z" fill="#dfeaef"/><path d="M148.74,156.21a1,1,0,0,1-1-.93c-.14-2.26-2.77-3.47-2.8-3.48a1,1,0,0,1,.81-1.83c.16.07,3.77,1.7,4,5.18a1,1,0,0,1-.93,1.06Z" fill="#dfeaef"/><path d="M269.57,151H235.16c-4,0-7.23-2.62-7.23-5.84a5.9,5.9,0,0,1,4.18-5.29c.81-4.22,5.44-7.44,10.88-7.44a13.07,13.07,0,0,1,5.73,1.27,9,9,0,0,1,7.73-3.92c4.14,0,7.64,2.38,8.4,5.56a8.49,8.49,0,0,1,7.14,4.32c2.86.82,4.81,3,4.81,5.5C276.8,148.38,273.55,151,269.57,151ZM243,134.43c-4.7,0-8.65,2.76-9,6.29a1,1,0,0,1-.72.87c-2,.57-3.36,2-3.36,3.57,0,2.12,2.35,3.84,5.23,3.84h34.41c2.88,0,5.23-1.72,5.23-3.84,0-1.67-1.54-3.19-3.75-3.67a1,1,0,0,1-.72-.62c-.79-2.1-3.39-3.57-6.31-3.57a1,1,0,0,1-1-.92c-.2-2.58-3.07-4.6-6.55-4.6-3,0-5.58,1.49-6.34,3.64a1,1,0,0,1-.61.61,1,1,0,0,1-.85-.09A10.89,10.89,0,0,0,243,134.43Z" fill="#dfeaef"/><path d="M244.2,140.79a1,1,0,0,1-.76-1.65c5.86-6.83,12.18-2.17,12.24-2.12a1,1,0,0,1-1.21,1.6h0c-.2-.15-4.9-3.56-9.51,1.82A1,1,0,0,1,244.2,140.79Z" fill="#dfeaef"/><path d="M150.82,216.43h-.1a1,1,0,0,1-.84-.66,4.73,4.73,0,0,0-7.92-1.68,1,1,0,0,1-1,.28,1,1,0,0,1-.73-.69,7.65,7.65,0,0,0-8-5.26.64.64,0,0,0,0,.07,1,1,0,0,1-1.19.75,1.18,1.18,0,0,1-.95-1.19,1.79,1.79,0,0,1,1.44-1.55,9.79,9.79,0,0,1,10.07,5.25,6.7,6.7,0,0,1,9.39,1.93,5.87,5.87,0,0,1,3.19-1.23,8.83,8.83,0,0,1,4.53,1,1,1,0,1,1-.89,1.79,6.82,6.82,0,0,0-3.5-.83,3.41,3.41,0,0,0-2.7,1.5A1,1,0,0,1,150.82,216.43Z" fill="#dfeaef"/><path d="M252.83,217.9a1,1,0,0,1-.82-.44,5.51,5.51,0,0,0-7.79-.92,1,1,0,1,1-1.33-1.49,7.15,7.15,0,0,1,5.66-1.67,7.53,7.53,0,0,1,3.91,1.64,6.09,6.09,0,0,1,2.25-2.62,4.44,4.44,0,0,1,4.3-.18,11.1,11.1,0,0,1,11.09-4.71,1,1,0,0,1,.78,1.18,1,1,0,0,1-1.17.78,9,9,0,0,0-9.53,4.73,1,1,0,0,1-.8.55,1,1,0,0,1-.9-.39,2.16,2.16,0,0,0-2.72-.26,5.18,5.18,0,0,0-2,3.06,1,1,0,0,1-.8.72Z" fill="#dfeaef"/><path d="M200.05,240.48a.65.65,0,0,1-.19,0,1,1,0,0,1-.8-.89,2.68,2.68,0,0,0-1.59-2.17l-.42-.15a4.57,4.57,0,0,1-1.17-.52,4.46,4.46,0,0,1-.95-.94l-.24-.29a3.82,3.82,0,0,0-4.73-.59,1,1,0,0,1-1.48-.46,12.37,12.37,0,0,0-2.21-4,3.48,3.48,0,0,0-3.47-1.13,1,1,0,1,1-.69-1.88,5.49,5.49,0,0,1,5.6,1.63,11.75,11.75,0,0,1,2.22,3.67,5.83,5.83,0,0,1,6.24,1.47c.11.11.2.23.3.35a3.52,3.52,0,0,0,.53.55,3.17,3.17,0,0,0,.68.28l.55.2a4.57,4.57,0,0,1,2.13,1.83,7.64,7.64,0,0,1,3.87-2,7.48,7.48,0,0,1,5.09.72,7,7,0,0,1,4-2.94,5.91,5.91,0,0,1,.81-3.57,5.65,5.65,0,0,1,3.79-2.79,1,1,0,0,1,.38,2,4,4,0,0,0-2.84,4.87,1,1,0,0,1-.85,1.32,4.81,4.81,0,0,0-3.95,3,1,1,0,0,1-.69.6,1,1,0,0,1-.89-.21,5.55,5.55,0,0,0-8.09,1.65A1,1,0,0,1,200.05,240.48Z" fill="#dfeaef"/></g></svg>