<svg xmlns="http://www.w3.org/2000/svg" viewBox="0 0 400 300"><g id="_268_party_outline" data-name="#268_party_outline"><path d="M273.05,108.87c-1-4.36-1.22-9-3.12-13.15A18.66,18.66,0,0,0,257,85.14c-7.6-1.6-15.28,2.13-19.56,8.45-5.35,7.91-5.83,18.16-5.85,27.42,0,4.22.17,8.6,2.1,12.36a18.17,18.17,0,0,0,9.31,8.14,35.76,35.76,0,0,0,12.34,2.39c9.28.41,19.25-1.31,26-7.66,1.68-1.58,3.2-3.61,3.14-5.91a9.05,9.05,0,0,0-1.29-3.9,46.83,46.83,0,0,0-4.29-6.68,39.3,39.3,0,0,1-4.17-5.87A22.15,22.15,0,0,1,273.05,108.87Z" fill="#725858"/><path d="M257.91,145c-.89,0-1.76,0-2.59-.06a36.29,36.29,0,0,1-12.68-2.47,19.13,19.13,0,0,1-9.83-8.61c-2.05-4-2.21-8.72-2.2-12.81,0-9.26.51-19.82,6-28,4.67-6.92,13-10.48,20.59-8.87A19.66,19.66,0,0,1,270.84,95.3a35.84,35.84,0,0,1,2.4,9.15c.23,1.39.47,2.83.79,4.2a20.81,20.81,0,0,0,1.64,4.78,26.21,26.21,0,0,0,3.06,4.43c.34.42.68.85,1,1.28a49.14,49.14,0,0,1,4.38,6.82,10.06,10.06,0,0,1,1.4,4.35c.05,2.22-1.11,4.46-3.45,6.66C275.19,143.41,265.57,145,257.91,145Zm-4.39-59.19a18.71,18.71,0,0,0-15.23,8.38c-5.2,7.69-5.66,17.9-5.68,26.86,0,4,.14,8.28,2,11.9a17.12,17.12,0,0,0,8.81,7.68,34.37,34.37,0,0,0,12,2.31c7.58.35,18.12-.67,25.29-7.39,1.91-1.8,2.86-3.53,2.82-5.15a8.23,8.23,0,0,0-1.17-3.46,47.55,47.55,0,0,0-4.2-6.54c-.32-.42-.66-.84-1-1.26a28.17,28.17,0,0,1-3.28-4.77,22.41,22.41,0,0,1-1.8-5.24h0c-.33-1.42-.58-2.89-.82-4.31A33.82,33.82,0,0,0,269,96.14a17.63,17.63,0,0,0-12.2-10A16,16,0,0,0,253.52,85.77Z" fill="#093f68"/><path d="M216,103.08s.86-6.89-.6-6.85-2.62,3.62-2.62,3.62-1-5-2.63-5.9-4.37,2.73-4.66,3.55.4,4,4.08,9l29.28,41.32,1.92-16.45Z" fill="#ffc9b0"/><path d="M238.84,148.84a1,1,0,0,1-.82-.42L208.74,107.1c-3.59-4.91-4.7-8.53-4.21-9.93A9.31,9.31,0,0,1,208.6,93a2.33,2.33,0,0,1,2,.06c1.09.6,1.88,2.29,2.4,3.86a3.19,3.19,0,0,1,2.34-1.69,1.34,1.34,0,0,1,1.12.48c1,1.13.82,4.71.55,7l24.48,28a1,1,0,0,1,.24.78L239.83,148a1,1,0,0,1-.74.85Zm-29.25-54a.78.78,0,0,0-.26.06,7.86,7.86,0,0,0-2.91,3c-.09.39.32,3.14,3.94,8.09l27.79,39.21,1.56-13.42-24.47-28A1,1,0,0,1,215,103a22.72,22.72,0,0,0,.12-5.5,8.54,8.54,0,0,0-1.4,2.71,1,1,0,0,1-1.93-.11c-.45-2.21-1.41-4.83-2.13-5.22Z" fill="#093f68"/><path d="M287.1,112.08s1-6.88,2.36-6.45,1.59,4.17,1.59,4.17,2.3-4.58,4.08-5,3.51,3.78,3.57,4.65-1.43,3.75-6.29,7.64l-39.05,32.25L255.8,133Z" fill="#ffc9b0"/><path d="M253.36,150.33a1.05,1.05,0,0,1-.49-.13,1,1,0,0,1-.5-1l2.44-16.38a1,1,0,0,1,.43-.69l30.93-20.62c.35-2.31,1.09-5.83,2.37-6.64a1.47,1.47,0,0,1,1.22-.18,3.16,3.16,0,0,1,1.8,2.25c.92-1.38,2.13-2.81,3.33-3.1a2.32,2.32,0,0,1,2,.47,9.31,9.31,0,0,1,2.84,5.07c.11,1.48-1.9,4.69-6.67,8.5L254,150.1A1,1,0,0,1,253.36,150.33Zm3.36-16.8-2,13.37,37-30.59c4.8-3.84,5.92-6.39,5.93-6.82a7.85,7.85,0,0,0-2-3.6.59.59,0,0,0-.31-.13c-.79.19-2.4,2.48-3.41,4.49a1,1,0,0,1-1.9-.39,8.59,8.59,0,0,0-.65-3,22.44,22.44,0,0,0-1.31,5.33,1,1,0,0,1-.44.7Zm30.38-21.45h0Z" fill="#093f68"/><polygon points="240.01 131.77 256.29 131.77 261.7 140.4 261.7 161.46 234.6 161.46 234.6 140.4 240.01 131.77" fill="#68e1fd"/><path d="M261.7,162.46H234.6a1,1,0,0,1-1-1V140.4a1.08,1.08,0,0,1,.15-.53l5.41-8.63a1,1,0,0,1,.85-.47h16.28a1,1,0,0,1,.85.47l5.41,8.63a1,1,0,0,1,.15.53v21.06A1,1,0,0,1,261.7,162.46Zm-26.1-2h25.1V140.69l-5-7.92H240.56l-5,7.92Z" fill="#093f68"/><rect x="144.26" y="162.89" width="10.82" height="68.36" fill="#093f68"/><path d="M155.08,232.25H144.26a1,1,0,0,1-1-1V162.89a1,1,0,0,1,1-1h10.82a1,1,0,0,1,1,1v68.36A1,1,0,0,1,155.08,232.25Zm-9.82-2h8.82V163.89h-8.82Z" fill="#093f68"/><polygon points="184.37 226.5 175.22 230.44 162.44 162.89 172.32 160.71 184.37 226.5" fill="#093f68"/><path d="M175.22,231.44a.94.94,0,0,1-.47-.12,1,1,0,0,1-.52-.69l-12.77-67.55a1,1,0,0,1,.77-1.17l9.88-2.18a1,1,0,0,1,.76.14,1,1,0,0,1,.44.66l12,65.79a1,1,0,0,1-.59,1.1l-9.15,3.94A1,1,0,0,1,175.22,231.44ZM163.6,163.66,176,229l7.27-3.13-11.72-64Z" fill="#093f68"/><polygon points="155.08 231.25 155.08 238.16 137.06 238.16 144.26 231.25 155.08 231.25" fill="#68e1fd"/><path d="M155.08,239.16h-18a1,1,0,0,1-.92-.62,1,1,0,0,1,.23-1.1l7.2-6.91a1,1,0,0,1,.69-.28h10.82a1,1,0,0,1,1,1v6.91A1,1,0,0,1,155.08,239.16Zm-15.53-2h14.53v-4.91h-9.42Z" fill="#093f68"/><polygon points="174.83 229.62 176.8 237.44 194.22 231.25 182.88 227.14 174.83 229.62" fill="#68e1fd"/><path d="M176.8,238.44a.94.94,0,0,1-.47-.12,1,1,0,0,1-.5-.64l-2-7.81a1,1,0,0,1,.67-1.2l8.06-2.49a1,1,0,0,1,.63,0l11.34,4.11a1,1,0,0,1,.66.95,1,1,0,0,1-.66.94l-17.43,6.18A1,1,0,0,1,176.8,238.44ZM176,230.3l1.47,5.83,13.76-4.89-8.41-3.05Z" fill="#093f68"/><polygon points="171.82 179.33 144.78 179.33 144.78 162.8 172.32 160.61 171.82 179.33" fill="#093f68"/><path d="M171.82,180.33h-27a1,1,0,0,1-1-1V162.8a1,1,0,0,1,.93-1l27.53-2.18a1,1,0,0,1,.77.27,1,1,0,0,1,.31.75l-.5,18.72A1,1,0,0,1,171.82,180.33Zm-26-2h25.06l.45-16.63-25.51,2Z" fill="#093f68"/><path d="M185.68,97.84l1.78-3.73S186.34,90,187,89.19a1.61,1.61,0,0,1,2.68.7c.21,1.27.56,2.53.56,2.53s3.87-7.48,5-7.23,4.22,1.46,4,3.64-5.35,11.32-5.35,11.32S187.28,100.24,185.68,97.84Z" fill="#ffc9b0"/><path d="M193.76,101.15c-1.3,0-7.18-.15-8.91-2.75a1,1,0,0,1-.07-1L186.4,94c-.75-2.9-.78-4.75-.1-5.5a2.68,2.68,0,0,1,2.69-.66,2.32,2.32,0,0,1,1.68,1.73c3.21-5.73,4.25-5.49,4.83-5.36,1.77.41,5.06,1.92,4.78,4.71-.22,2.28-4.59,10.15-5.47,11.71a1,1,0,0,1-.86.51Zm-6.89-3.48c1.22,1,4.23,1.43,6.48,1.47,2-3.51,4.81-9,4.94-10.4s-1.92-2.18-3-2.5c-.79.7-2.72,3.88-4.15,6.64a1,1,0,0,1-1.85-.19,26.83,26.83,0,0,1-.59-2.64s0-.2-.3-.28a.74.74,0,0,0-.59,0,12.94,12.94,0,0,0,.59,4,1,1,0,0,1-.06.69Z" fill="#093f68"/><path d="M123.28,104.26l-4.22-4.57s-1.69-5.7-3-4.93-1.33,2.21-.77,3.78-4.44-5.33-5.84-3.85-2.53,2.74-2.39,4.36,9.9,11,9.9,11Z" fill="#ffc9b0"/><path d="M116.93,111.09a1,1,0,0,1-.7-.29c-4.57-4.41-10-10-10.19-11.67-.19-2.14,1.32-3.73,2.65-5.13a1.67,1.67,0,0,1,1.23-.52h0c1.18,0,2.54,1.13,4,2.65a3.11,3.11,0,0,1,1.56-2.23,1.53,1.53,0,0,1,1.35-.1c1.4.56,2.5,3.52,3.07,5.38l4.07,4.4a1,1,0,0,1,.26.73,1,1,0,0,1-.32.69l-6.36,5.82A1,1,0,0,1,116.93,111.09ZM110,95.5c-1.28,1.35-2.1,2.33-2,3.46.29.93,4.73,5.66,8.92,9.75l4.92-4.51-3.54-3.83a1.07,1.07,0,0,1-.23-.4,14.71,14.71,0,0,0-1.82-4.17c-.32.28-.63.88-.08,2.4a1.1,1.1,0,0,1-.39,1.42c-.78.49-1.3-.06-2.44-1.24C112.72,97.7,110.81,95.71,110,95.5Z" fill="#093f68"/><path d="M194.5,99.72l-8.8-3.43-18.32,28.94c-1-.39-17.85,1.23-19.1,1.81l-25.43-24-7,7.06,26.71,30.61.55,27.94,32-2.93L173,139.27Z" fill="#68e1fd"/><path d="M143.11,169.64a1,1,0,0,1-.67-.25,1.06,1.06,0,0,1-.33-.73l-.54-27.58L115.1,110.74a1,1,0,0,1,0-1.36l7-7a1,1,0,0,1,1.4,0l25,23.64a154.5,154.5,0,0,1,18.27-1.75l18-28.44a1,1,0,0,1,1.21-.4l8.8,3.43a1,1,0,0,1,.57.59,1,1,0,0,1-.06.82L174,139.49l2.13,26.14a1,1,0,0,1-.91,1.08l-32,2.93Zm-25.89-59.51L143.32,140a1,1,0,0,1,.24.64l.53,26.87L174,164.81,172,139.35a1,1,0,0,1,.11-.56l21-38.55-7-2.71-17.89,28.24a1,1,0,0,1-1.19.4c-1.4-.24-16.9,1.25-18.34,1.79a1.1,1.1,0,0,1-1.09-.19l-24.73-23.34Z" fill="#093f68"/><polygon points="157.97 148.33 155.39 130.26 160.98 130.26 157.97 148.33" fill="#fff"/><path d="M158,149.33h0a1,1,0,0,1-1-.86l-2.58-18.06a1,1,0,0,1,.23-.8,1,1,0,0,1,.76-.35H161a1,1,0,0,1,1,1.17l-3,18.06A1,1,0,0,1,158,149.33Zm-1.43-18.07,1.51,10.53,1.75-10.53Z" fill="#093f68"/><path d="M155.39,127H161a0,0,0,0,1,0,0v3.22a2.38,2.38,0,0,1-2.38,2.38h-.84a2.38,2.38,0,0,1-2.38-2.38V127A0,0,0,0,1,155.39,127Z" fill="#ffc9b0"/><path d="M158.61,133.64h-.85a3.37,3.37,0,0,1-3.37-3.38V127a1,1,0,0,1,1-1H161a1,1,0,0,1,1,1v3.22A3.37,3.37,0,0,1,158.61,133.64Zm-2.22-5.6v2.22a1.37,1.37,0,0,0,1.37,1.38h.85a1.37,1.37,0,0,0,1.37-1.38V128Z" fill="#093f68"/><path d="M149.82,84.31a13.89,13.89,0,0,1,2-.55c3.16-.59,6.37-1.29,9.52-.43a17.82,17.82,0,0,1,12.73,13.75s1.8,13.07,1.8,13.07L138,117.37a8,8,0,0,1-.3-2.45,10.8,10.8,0,0,0-.85-2.43,36,36,0,0,1-2-6.27,25.51,25.51,0,0,1,.2-10.26c.41-2,.95-4.13,2.38-5.61s4-2,5.53-.6A13.4,13.4,0,0,1,149.82,84.31Z" fill="#725858"/><path d="M138,118.37a1,1,0,0,1-.89-.55,4.53,4.53,0,0,1-.36-2c0-.25,0-.5,0-.72a6.57,6.57,0,0,0-.56-1.65c-.08-.18-.16-.37-.23-.55a35.73,35.73,0,0,1-2-6.45,26.2,26.2,0,0,1,.19-10.66c.42-2.07,1-4.42,2.64-6.11a5.36,5.36,0,0,1,6-1.3,14.46,14.46,0,0,1,6.75-5h0a14.47,14.47,0,0,1,2.17-.59l.55-.1c3.06-.59,6.22-1.19,9.41-.32a18.81,18.81,0,0,1,13.45,14.53s0,0,1.81,13.12a1,1,0,0,1-.8,1.12l-37.86,7.22Zm2.76-28.46a3.8,3.8,0,0,0-2.6,1.13c-1.26,1.3-1.74,3.24-2.12,5.12a24.27,24.27,0,0,0-.2,9.86,35.74,35.74,0,0,0,1.93,6.1c.07.17.14.34.22.5a8.83,8.83,0,0,1,.7,2.16,9.71,9.71,0,0,1,.06,1c0,.16,0,.31,0,.46l36-6.86-1.67-12.13a16.79,16.79,0,0,0-12-12.93c-2.75-.75-5.55-.21-8.51.35l-.56.11a13.58,13.58,0,0,0-1.87.5,12.38,12.38,0,0,0-6.31,5,1,1,0,0,1-.72.46,1,1,0,0,1-.82-.27A2.16,2.16,0,0,0,140.78,89.91Z" fill="#093f68"/><ellipse cx="141.9" cy="115.01" rx="5.12" ry="4.69" transform="translate(-19.03 28.61) rotate(-10.79)" fill="#ffc9b0"/><path d="M141.74,120.71a5.82,5.82,0,0,1-5.85-4.55,5.48,5.48,0,0,1,1-4.33,6.45,6.45,0,0,1,8.44-1.6,5.41,5.41,0,0,1,2.55,3.63h0a5.92,5.92,0,0,1-4.94,6.73A6.57,6.57,0,0,1,141.74,120.71Zm.34-9.4a4.27,4.27,0,0,0-.87.08,4.33,4.33,0,0,0-2.68,1.64,3.42,3.42,0,0,0-.67,2.75,4.14,4.14,0,0,0,8.09-1.54h0a3.46,3.46,0,0,0-1.64-2.31A4.21,4.21,0,0,0,142.08,111.31Z" fill="#093f68"/><ellipse cx="171.22" cy="109.42" rx="5.12" ry="4.69" transform="translate(-17.46 34) rotate(-10.79)" fill="#ffc9b0"/><path d="M171,115.12a6.2,6.2,0,0,1-3.28-.92,5.44,5.44,0,0,1-2.55-3.63,5.93,5.93,0,0,1,4.95-6.74,6.34,6.34,0,0,1,4.52.81,5.44,5.44,0,0,1,2.55,3.63h0a5.45,5.45,0,0,1-1,4.32,6.31,6.31,0,0,1-3.92,2.41A6.51,6.51,0,0,1,171,115.12Zm.36-9.4a4.27,4.27,0,0,0-.87.08,3.93,3.93,0,0,0-3.36,4.39,3.49,3.49,0,0,0,1.64,2.31,4.31,4.31,0,0,0,3.1.54,4.36,4.36,0,0,0,2.69-1.64,3.49,3.49,0,0,0,.67-2.75h0a3.49,3.49,0,0,0-1.64-2.31A4.21,4.21,0,0,0,171.4,105.72Z" fill="#093f68"/><path d="M159.56,127.19h0a16.41,16.41,0,0,1-19.18-13l-1.65-8.67s3.61-3.09,4.12-7c0,0,7.54,5.86,13.41,4.24a142.11,142.11,0,0,0,14.41-4.88L172.6,108A16.4,16.4,0,0,1,159.56,127.19Z" fill="#ffc9b0"/><path d="M156.49,128.48a17.43,17.43,0,0,1-17.09-14.14l-1.65-8.67a1,1,0,0,1,.33-1s3.33-2.9,3.78-6.33a1,1,0,0,1,1.61-.66c.07,0,7.21,5.52,12.53,4.07A140.61,140.61,0,0,0,170.29,97a1,1,0,0,1,1.36.74l1.93,10.13a17.41,17.41,0,0,1-17.09,20.66Zm-16.67-22.64,1.55,8.12a15.4,15.4,0,1,0,30.25-5.76l-1.71-9c-2.26.89-7.62,2.89-13.38,4.48-4.86,1.33-10.55-1.89-13-3.54A14.73,14.73,0,0,1,139.82,105.84Z" fill="#093f68"/><path d="M155.53,114.91a1,1,0,0,1-1-1,1,1,0,0,1,1-1,7,7,0,0,0,1.57-.21,14.58,14.58,0,0,0-1.69-2.62,1,1,0,0,1,1.57-1.24c1.15,1.46,2.47,3.44,2.2,4.59a1.34,1.34,0,0,1-.75.92,8.18,8.18,0,0,1-2.88.56Zm1.68-1.84h0Z" fill="#093f68"/><path d="M156,122a10.15,10.15,0,0,1-6-2,1,1,0,0,1,1.29-1.53c.25.21,5.79,4.62,12.55-2.57a1,1,0,1,1,1.46,1.36C161.84,121,158.58,122,156,122Z" fill="#093f68"/><path d="M146.6,111a1,1,0,0,1-1-.81,3.45,3.45,0,1,1,6.78-1.3,1,1,0,0,1-.8,1.17,1,1,0,0,1-1.17-.79,1.41,1.41,0,0,0-.61-.93,1.43,1.43,0,0,0-1.08-.23,1.46,1.46,0,0,0-1.16,1.7,1,1,0,0,1-.79,1.17Z" fill="#093f68"/><path d="M160.3,108.43a1,1,0,0,1-1-.81,3.45,3.45,0,0,1,6.78-1.3,1,1,0,0,1-2,.38,1.45,1.45,0,1,0-2.85.54,1,1,0,0,1-.79,1.17Z" fill="#093f68"/><polygon points="233.37 230.64 223.71 227.92 232.8 190.55 242.45 193.27 233.37 230.64" fill="#ffc9b0"/><path d="M233.37,231.64a1.26,1.26,0,0,1-.28,0l-9.65-2.72a1,1,0,0,1-.7-1.2l9.09-37.36a1,1,0,0,1,.46-.63,1,1,0,0,1,.78-.1l9.65,2.72a1,1,0,0,1,.7,1.19l-9.08,37.37a1,1,0,0,1-.47.63A1,1,0,0,1,233.37,231.64Zm-8.46-4.42,7.73,2.17L241.25,194l-7.72-2.17Z" fill="#093f68"/><polygon points="259.62 230.67 249.6 230.48 250.22 191.87 260.25 192.06 259.62 230.67" fill="#ffc9b0"/><path d="M259.62,231.67h0l-10-.19a1,1,0,0,1-1-1l.62-38.62a1,1,0,0,1,.31-.7,1.11,1.11,0,0,1,.71-.28l10,.19a1,1,0,0,1,1,1l-.63,38.62a1,1,0,0,1-.31.7A1,1,0,0,1,259.62,231.67Zm-9-2.17,8,.15.59-36.61-8-.15Z" fill="#093f68"/><polygon points="261.71 162.8 262.79 213.45 223.71 206.13 234.82 162.8 261.71 162.8" fill="#093f68"/><path d="M262.79,214.45h-.18l-39.08-7.32a1.06,1.06,0,0,1-.66-.45,1,1,0,0,1-.12-.79l11.1-43.33a1,1,0,0,1,1-.75h26.89a1,1,0,0,1,1,1l1.08,50.65a1,1,0,0,1-1,1ZM225,205.35l36.82,6.89-1-48.44H235.59Z" fill="#093f68"/><polygon points="233.37 230.64 231.65 237.21 214.67 232.78 223.71 227.92 233.37 230.64" fill="#68e1fd"/><path d="M231.65,238.21a1.07,1.07,0,0,1-.25,0l-17-4.44a1,1,0,0,1-.74-.85,1,1,0,0,1,.52-1l9-4.85A1,1,0,0,1,224,227l9.66,2.71a1,1,0,0,1,.69,1.22l-1.71,6.57A1,1,0,0,1,231.65,238.21Zm-14.26-5.76L230.93,236l1.22-4.66L223.83,229Z" fill="#093f68"/><polygon points="249.6 230.67 249.6 237.47 267.14 237.47 259.62 230.48 249.6 230.67" fill="#68e1fd"/><path d="M267.14,238.47H249.6a1,1,0,0,1-1-1v-6.8a1,1,0,0,1,1-1l10-.19a1.06,1.06,0,0,1,.7.27l7.52,7a1,1,0,0,1-.68,1.74Zm-16.54-2h14l-5.36-5-8.64.16Z" fill="#093f68"/><polygon points="243.32 131.77 248.83 146.61 254.64 131.77 243.32 131.77" fill="#ffc9b0"/><path d="M248.83,147.61h0a1,1,0,0,1-.93-.65l-5.51-14.84a1,1,0,0,1,.94-1.35h11.32a1,1,0,0,1,.93,1.36L249.76,147A1,1,0,0,1,248.83,147.61Zm-4.08-14.84,4.11,11,4.31-11Z" fill="#093f68"/><path d="M251.75,133v-4.33H246.2V133" fill="#ffc9b0"/><path d="M251.75,134a1,1,0,0,1-1-1v-3.33H247.2V133a1,1,0,0,1-2,0v-4.33a1,1,0,0,1,1-1h5.55a1,1,0,0,1,1,1V133A1,1,0,0,1,251.75,134Z" fill="#093f68"/><ellipse cx="265.89" cy="118.33" rx="4.54" ry="5.27" transform="translate(95.32 354.14) rotate(-78.11)" fill="#ffc9b0"/><path d="M266.21,123.91a7,7,0,0,1-5.43-2.6,5.19,5.19,0,0,1-1-4.27h0a5.21,5.21,0,0,1,2.67-3.5,6.75,6.75,0,0,1,4.61-.64,6.67,6.67,0,0,1,4,2.45,5.11,5.11,0,0,1-1.63,7.77A6.54,6.54,0,0,1,266.21,123.91Zm-.65-9.16a4.49,4.49,0,0,0-2.18.54,3.24,3.24,0,0,0-1.67,2.16h0a3.23,3.23,0,0,0,.66,2.65,4.89,4.89,0,0,0,6,1.27,3.12,3.12,0,0,0,1-4.81,4.7,4.7,0,0,0-2.78-1.7A5.53,5.53,0,0,0,265.56,114.75Zm-4.83,2.49h0Z" fill="#093f68"/><ellipse cx="235.8" cy="112" rx="4.54" ry="5.27" transform="translate(77.63 319.67) rotate(-78.11)" fill="#ffc9b0"/><path d="M236.11,117.57a7.29,7.29,0,0,1-1.45-.15c-3.39-.71-5.63-3.72-5-6.72h0c.63-3,3.9-4.84,7.28-4.13s5.63,3.73,5,6.72A5.74,5.74,0,0,1,236.11,117.57Zm-4.49-6.45c-.4,1.91,1.15,3.86,3.45,4.34s4.51-.67,4.91-2.58-1.14-3.87-3.45-4.35-4.51.67-4.91,2.59Z" fill="#093f68"/><path d="M244,100a15,15,0,0,0,5.78-.1,28.67,28.67,0,0,0,8.3-3.77c.6,4.21,4.07,7.34,7.32,10.08.7.59,1.63,1.21,2.44.81a47.17,47.17,0,0,1-1.36,10.36,15.91,15.91,0,0,1-31.13-6.55l2.55-12.11C239.94,99.1,242,99.66,244,100Z" fill="#ffc9b0"/><path d="M250.94,131a17.38,17.38,0,0,1-3.49-.36,16.93,16.93,0,0,1-13.06-20l2.55-12.1a1,1,0,0,1,1.18-.78l2.1.47c1.3.3,2.64.61,3.94.8h0a14.26,14.26,0,0,0,5.41-.08,28,28,0,0,0,8-3.66,1,1,0,0,1,.95,0,1,1,0,0,1,.57.76c.53,3.75,3.6,6.62,7,9.47.93.78,1.26.71,1.35.67a1,1,0,0,1,1.44.88,48,48,0,0,1-1.38,10.59A16.94,16.94,0,0,1,250.94,131Zm-12.25-31.1L236.35,111a14.9,14.9,0,1,0,29.17,6.14,53,53,0,0,0,1.34-9.06,4.82,4.82,0,0,1-2.08-1.13c-3.27-2.77-6.29-5.57-7.36-9.28a26.81,26.81,0,0,1-7.4,3.17,15.86,15.86,0,0,1-6.15.12c-1.38-.21-2.76-.52-4.1-.83Z" fill="#093f68"/><path d="M251.81,117.83h0a7.93,7.93,0,0,1-2.79-.61,1.3,1.3,0,0,1-.72-.92c-.25-1.13,1.07-3,2.22-4.44a1,1,0,0,1,1.55,1.27,14.07,14.07,0,0,0-1.68,2.48,8,8,0,0,0,1.49.22,1,1,0,0,1,0,2Z" fill="#093f68"/><path d="M250.5,123.66c-2.35,0-4.93-.52-6.37-2.47a1,1,0,1,1,1.6-1.19c1.83,2.47,7.32,1.6,9.28,1.06a1,1,0,0,1,.54,1.93A20.88,20.88,0,0,1,250.5,123.66Z" fill="#093f68"/><path d="M246.21,109.73h-.1a1,1,0,0,1-.89-1.09,1.45,1.45,0,0,0-2.89-.31,1,1,0,0,1-2-.21,3.45,3.45,0,0,1,6.86.72A1,1,0,0,1,246.21,109.73Z" fill="#093f68"/><path d="M260.39,112.44h-.1a1,1,0,0,1-.89-1.09,1.46,1.46,0,0,0-1.3-1.6,1.44,1.44,0,0,0-1.06.31,1.48,1.48,0,0,0-.53,1,1,1,0,0,1-2-.21,3.45,3.45,0,0,1,3.79-3.07,3.45,3.45,0,0,1,3.07,3.79A1,1,0,0,1,260.39,112.44Z" fill="#093f68"/><path d="M160.48,82.93s-11.87,10.88-24.09,8.92l1.33-32.79Z" fill="#ffbc0e"/><path d="M139.43,93.09a20.39,20.39,0,0,1-3.2-.25,1,1,0,0,1-.84-1L136.72,59a1,1,0,0,1,.65-.89,1,1,0,0,1,1.08.24L161.2,82.24a1,1,0,0,1,.28.72,1,1,0,0,1-.33.7C160.7,84.08,150.73,93.09,139.43,93.09Zm-2-2.11c9.57,1,18.9-5.91,21.6-8.13L138.63,61.46Z" fill="#093f68"/><path d="M132.8,70.29a1,1,0,0,1-.87-.5,1,1,0,0,1,.37-1.36c1.74-1,2.88-3.36,3.57-5.55a16.92,16.92,0,0,1-7.79,3.92,1,1,0,0,1-1.19-.76,1,1,0,0,1,.76-1.19c6.64-1.47,9.08-6,9.18-6.24a1,1,0,0,1,1.89.56c0,.34-.95,8.42-5.43,11A1,1,0,0,1,132.8,70.29Z" fill="#093f68"/><path d="M246.84,86.92s11.87,10.89,24.09,8.93L269.6,63.06Z" fill="#f56132"/><path d="M267.89,97.09c-11.31,0-21.27-9-21.73-9.43a1,1,0,0,1-.32-.71,1,1,0,0,1,.28-.72l22.75-23.86a1,1,0,0,1,1.72.65l1.34,32.79a1,1,0,0,1-.84,1A20.58,20.58,0,0,1,267.89,97.09Zm-19.6-10.24c2.71,2.21,12,9.18,21.6,8.13l-1.2-29.52Z" fill="#093f68"/><path d="M274.52,74.29a1,1,0,0,1-.5-.13c-4.47-2.57-5.38-10.65-5.42-11a1,1,0,0,1,1.89-.56c.1.19,2.54,4.77,9.18,6.23a1,1,0,1,1-.44,2,16.88,16.88,0,0,1-7.79-3.92c.65,2.12,1.76,4.51,3.58,5.55a1,1,0,0,1-.5,1.87Z" fill="#093f68"/><path d="M279.45,239.16H120.55a1,1,0,1,1,0-2h158.9a1,1,0,0,1,0,2Z" fill="#093f68"/><path d="M237.3,137.4s-4.15,2.2-4.15,6.83a8.09,8.09,0,0,0,3.74,6.77" fill="#68e1fd"/><path d="M236.88,152a1,1,0,0,1-.49-.13,9,9,0,0,1-4.24-7.64c0-5.17,4.49-7.61,4.68-7.71a1,1,0,1,1,.94,1.76h0a7.17,7.17,0,0,0-3.62,5.95,7.1,7.1,0,0,0,3.23,5.9,1,1,0,0,1-.5,1.87Z" fill="#093f68"/><path d="M259,137.4s4.15,2.2,4.15,6.83a8.09,8.09,0,0,1-3.74,6.77" fill="#68e1fd"/><path d="M259.42,152a1,1,0,0,1-.5-1.87,7.06,7.06,0,0,0,3.23-5.9,7.17,7.17,0,0,0-3.62-5.94,1,1,0,1,1,.93-1.77c.2.1,4.69,2.54,4.69,7.71a9,9,0,0,1-4.24,7.64A1,1,0,0,1,259.42,152Z" fill="#093f68"/></g></svg>