<svg xmlns="http://www.w3.org/2000/svg" viewBox="0 0 400 300"><g id="_406_philadelphia_outline" data-name="#406_philadelphia_outline"><path d="M293.85,150a93.53,93.53,0,0,1-28.38,67.23,91.12,91.12,0,0,1-8.76,7.54,93.82,93.82,0,0,1-112.53.67,91.84,91.84,0,0,1-8.76-7.35A93.85,93.85,0,1,1,293.85,150Z" fill="#fff"/><path d="M200,244.85a94,94,0,0,1-56.42-18.61,91.26,91.26,0,0,1-8.85-7.43A94,94,0,0,1,105.15,150a94.86,94.86,0,1,1,152.16,75.57A93.91,93.91,0,0,1,200,244.85Zm0-187.7A93,93,0,0,0,107.15,150a92.83,92.83,0,0,0,149,74,87.73,87.73,0,0,0,8.67-7.46A92.84,92.84,0,0,0,200,57.15Z" fill="#093f68"/><path d="M185.3,128.52s2.57-2.41,1.59-5.34-2.22-6.13-1.59-7.89a4.06,4.06,0,0,1,3.77-2.66c1.41,0,7.16.87,7.16.87l-.31-2.93s4.93-2.31,6.18-1.58l.67,4.23s3.78-1.65,6.38-.78,4.56,1.85,3.89,4.22a42.79,42.79,0,0,0-1.69,6.6c-.23,2,1.54,5.3,1.54,5.3h-7.35A54.12,54.12,0,0,1,207,122.3l1.64-4.16s-3-1-3.27-.94-2.2,2.39-4.63,3.12-8.62-3.55-8.62-3.55l-1.36,1.37s1.7,7.06,1.36,10Z" fill="#68e1fd"/><path d="M212.89,129.56h-7.35a1,1,0,0,1-1-1.18,54.38,54.38,0,0,1,1.52-6.45l1.25-3.16c-.67-.21-1.31-.4-1.69-.5l-.12.11a12.19,12.19,0,0,1-4.48,2.9c-2.36.72-6.87-2-8.78-3.22l-.39.39c.4,1.75,1.55,7.18,1.25,9.82a1,1,0,0,1-.94.89l-6.82.36a1,1,0,0,1-1-.61,1,1,0,0,1,.23-1.12c0-.05,2.09-2,1.33-4.29l-.33-1c-1-2.92-1.92-5.67-1.25-7.57a5.1,5.1,0,0,1,4.73-3.32c1,0,4.21.45,6,.7l-.17-1.66a1,1,0,0,1,.57-1c2-1,5.63-2.4,7.1-1.53a1,1,0,0,1,.48.7l.49,3a10.21,10.21,0,0,1,5.9-.36c1.94.65,5.55,1.87,4.53,5.43q-.25.87-.51,1.71a27.86,27.86,0,0,0-1.15,4.73c-.16,1.4,1,3.88,1.43,4.71a1,1,0,0,1,0,1A1,1,0,0,1,212.89,129.56Zm-6.14-2h4.56a10,10,0,0,1-1-4.41,29.07,29.07,0,0,1,1.23-5.09c.16-.55.33-1.11.5-1.68.33-1.17-.07-1.92-3.25-3-1.82-.61-4.7.33-5.66.75a1,1,0,0,1-1.38-.76l-.57-3.55a17.52,17.52,0,0,0-4.23,1.35l.24,2.21a1,1,0,0,1-1.14,1.1c-1.58-.23-5.93-.84-7-.86a3.08,3.08,0,0,0-2.82,2c-.44,1.24.47,3.9,1.27,6.26l.33,1a5.65,5.65,0,0,1-.49,4.55l3.81-.2a50.22,50.22,0,0,0-1.37-8.83,1,1,0,0,1,.26-.94l1.36-1.37a1,1,0,0,1,1.28-.12c2.34,1.62,6.43,3.81,7.77,3.42a10.43,10.43,0,0,0,3.69-2.45c.48-.44.69-.64,1-.7s.51-.09,3.75,1a1,1,0,0,1,.59.53,1,1,0,0,1,0,.79l-1.64,4.15A39,39,0,0,0,206.75,127.56Z" fill="#093f68"/><path d="M193,127.44s.79-3.51,2.09-4.64,5.24-1.91,7.89-.22,3.25,5.75,3.25,5.75Z" fill="#68e1fd"/><path d="M206.25,129.33h-.06L193,128.44a1,1,0,0,1-.91-1.22c.09-.39.91-3.86,2.41-5.17s6.06-2.25,9.09-.31,3.67,6.26,3.7,6.44a1,1,0,0,1-.25.83A1,1,0,0,1,206.25,129.33Zm-11.95-2.8,10.66.71a7,7,0,0,0-2.5-3.82,6.76,6.76,0,0,0-6.7.14A7.67,7.67,0,0,0,194.3,126.53Z" fill="#093f68"/><path d="M181,207.12a3.18,3.18,0,0,0,1.16-1.55,2.94,2.94,0,0,0-1.89-3.32c-2-.78-5.95.11-5.66,2.81C175,208.07,179,208.63,181,207.12Z" fill="#093f68"/><path d="M178.39,208.93a5.71,5.71,0,0,1-2.24-.45,4,4,0,0,1-2.5-3.31A3.33,3.33,0,0,1,175,202.1a6.38,6.38,0,0,1,5.66-.78,3.9,3.9,0,0,1,2.49,4.53,4.12,4.12,0,0,1-1.52,2.07h0A5.52,5.52,0,0,1,178.39,208.93Zm.31-6a4.27,4.27,0,0,0-2.47.71,1.31,1.31,0,0,0-.59,1.26,2,2,0,0,0,1.31,1.7,3.76,3.76,0,0,0,3.49-.33h0a2.17,2.17,0,0,0,.8-1,2,2,0,0,0-1.29-2.11A3.6,3.6,0,0,0,178.7,203Z" fill="#093f68"/><path d="M224.06,207.12a3.12,3.12,0,0,0,1.16-1.55,2.92,2.92,0,0,0-1.89-3.32c-2-.78-6,.11-5.66,2.81C218,208.07,222,208.63,224.06,207.12Z" fill="#093f68"/><path d="M221.41,208.93a5.62,5.62,0,0,1-2.23-.45,4,4,0,0,1-2.5-3.31A3.32,3.32,0,0,1,218,202.1a6.4,6.4,0,0,1,5.67-.78,3.9,3.9,0,0,1,2.48,4.53,4.07,4.07,0,0,1-1.52,2.07h0A5.5,5.5,0,0,1,221.41,208.93Zm.31-6a4.27,4.27,0,0,0-2.47.71,1.31,1.31,0,0,0-.59,1.26,2,2,0,0,0,1.31,1.7,3.76,3.76,0,0,0,3.49-.33h0a2.17,2.17,0,0,0,.8-1,2,2,0,0,0-1.29-2.11A3.6,3.6,0,0,0,221.72,203Z" fill="#093f68"/><path d="M155.44,207.88a6.9,6.9,0,0,0,5.59-1.4,2.88,2.88,0,0,0,1.25-2.11,2.36,2.36,0,0,0-1.4-2,5,5,0,0,0-2.54-.36c-1.47.1-3.7.74-4.61,2C152.52,205.76,153.51,207.51,155.44,207.88Z" fill="#093f68"/><path d="M156.7,209a7.06,7.06,0,0,1-1.45-.14h0a3.71,3.71,0,0,1-2.83-2.15,3.38,3.38,0,0,1,.49-3.25c1.22-1.73,3.94-2.36,5.36-2.46a6.09,6.09,0,0,1,3,.46,3.33,3.33,0,0,1,2,2.92,3.82,3.82,0,0,1-1.62,2.88A8,8,0,0,1,156.7,209Zm2.25-6a5.06,5.06,0,0,0-.54,0c-1.39.09-3.22.69-3.87,1.61a1.45,1.45,0,0,0-.26,1.35,1.74,1.74,0,0,0,1.35.94h0a5.93,5.93,0,0,0,4.77-1.19,2.1,2.1,0,0,0,.88-1.34,1.36,1.36,0,0,0-.84-1.11A3.36,3.36,0,0,0,159,203Z" fill="#093f68"/><path d="M241.13,207.88a6.9,6.9,0,0,1-5.59-1.4,2.88,2.88,0,0,1-1.25-2.11,2.36,2.36,0,0,1,1.4-2,5,5,0,0,1,2.54-.36c1.47.1,3.7.74,4.61,2C244.05,205.76,243.06,207.51,241.13,207.88Z" fill="#093f68"/><path d="M239.87,209a8,8,0,0,1-5-1.74,3.82,3.82,0,0,1-1.62-2.88,3.33,3.33,0,0,1,2-2.92,6.09,6.09,0,0,1,3-.46c1.42.1,4.14.73,5.36,2.46a3.38,3.38,0,0,1,.49,3.25,3.71,3.71,0,0,1-2.83,2.15h0A7.06,7.06,0,0,1,239.87,209Zm-2.25-6a3.36,3.36,0,0,0-1.49.28,1.36,1.36,0,0,0-.84,1.11,2.1,2.1,0,0,0,.88,1.34,5.93,5.93,0,0,0,4.77,1.19h0a1.74,1.74,0,0,0,1.35-.94,1.45,1.45,0,0,0-.26-1.35c-.65-.92-2.48-1.52-3.87-1.61A5.06,5.06,0,0,0,237.62,203Z" fill="#093f68"/><path d="M193.68,203.08a8.29,8.29,0,0,0,4.29,7.3l-.6,5.86,6.32.68-.53-6.92s5.64-2.78,5.34-7.89S193.68,203.08,193.68,203.08Z" fill="#093f68"/><path d="M203.69,217.92h-.11l-6.31-.67a1,1,0,0,1-.89-1.1l.53-5.22a9.27,9.27,0,0,1-4.23-7.88,1,1,0,0,1,.61-.88c1.88-.78,11.4-4.59,14.86-2.44a2.85,2.85,0,0,1,1.35,2.33c.28,4.7-3.73,7.57-5.29,8.51l.48,6.28a1,1,0,0,1-.31.8A1,1,0,0,1,203.69,217.92Zm-5.22-2.57,4.13.45-.43-5.72a1,1,0,0,1,.55-1c.05,0,5-2.57,4.78-6.94a.84.84,0,0,0-.41-.75c-1.9-1.19-8.34.71-12.38,2.33a7.12,7.12,0,0,0,3.74,5.75,1,1,0,0,1,.52,1Z" fill="#093f68"/><path d="M244.35,205.36H153.64a1.18,1.18,0,0,1-.93-1.91c15.76-19.63,17.93-43.91,18.34-64.38.08-4,6.89-11.68,27.95-11.68s27.86,7.66,27.94,11.68c.41,20.47,2.58,44.75,18.34,64.38A1.18,1.18,0,0,1,244.35,205.36Z" fill="#68e1fd"/><path d="M244.35,206.36H153.64a2.18,2.18,0,0,1-1.71-3.54c15.19-18.9,17.68-41.82,18.12-63.77.1-5.09,7.89-12.66,28.95-12.66s28.84,7.57,28.94,12.66c.44,21.95,2.93,44.87,18.12,63.77a2.18,2.18,0,0,1-1.71,3.54Zm-45.35-78c-20.2,0-26.88,7.21-26.95,10.7-.44,22.3-3,45.61-18.56,65a.19.19,0,0,0,0,.18.17.17,0,0,0,.17.11h90.71a.17.17,0,0,0,.17-.11.19.19,0,0,0,0-.18c-15.56-19.37-18.12-42.68-18.56-65C225.87,135.6,219.19,128.39,199,128.39Z" fill="#093f68"/><path d="M189.16,206a1,1,0,0,1-1-.72c-.12-.42-.83-2.36-1.64-4.61-2.34-6.42-4.13-11.42-4.28-12.56-.13-.91,0-8.21.29-21.71a1,1,0,0,1,1-1,1,1,0,0,1,1,1c-.43,18.21-.36,21-.31,21.39.13,1,2.66,8,4.18,12.15,1,2.71,1.55,4.27,1.68,4.74a1,1,0,0,1-.68,1.23A.9.9,0,0,1,189.16,206Z" fill="#093f68"/><circle cx="183.82" cy="171.03" r="1.18" fill="#093f68"/><path d="M183.82,173.22A2.19,2.19,0,1,1,186,171,2.19,2.19,0,0,1,183.82,173.22Zm0-2.37a.18.18,0,0,0-.18.18c0,.21.36.21.36,0A.18.18,0,0,0,183.82,170.85Z" fill="#093f68"/><path d="M227,143.14H227c-8.36-.5-47.58-.5-55.95,0a1,1,0,0,1-.12-2c8.67-.53,47.53-.53,56.19,0a1,1,0,0,1-.06,2Z" fill="#093f68"/><path d="M170.35,151.84a1,1,0,0,1,0-2c8.84-.54,48.54-.54,57.4,0a1,1,0,1,1-.12,2c-8.55-.52-48.62-.52-57.16,0Z" fill="#093f68"/><path d="M240.56,199.06H157.43a1,1,0,0,1,0-2h83.13a1,1,0,0,1,0,2Z" fill="#093f68"/><path d="M150.35,134.31V90.55h95.49c2.55,0,2.7,1.51,3,2.56s0,41.2,0,41.2-17.44.3-18.49-1.05-5.72-14.44-7.07-15.64-11.43-4.18-14.13-5.18-6.44-.66-9.15-1-13.41,1.48-17.92,3.58a70.91,70.91,0,0,1-6.77,2.86s-.45,5.71-2.1,6.76-3.31,1.81-3.61,4.06a30.51,30.51,0,0,1-1.5,5.6C167.8,135.21,150.35,134.31,150.35,134.31Z" fill="#ad7972"/><path d="M163,135.74c-2.75,0-6.78-.13-12.73-.43a1,1,0,0,1-1-1V90.55a1,1,0,0,1,1-1h95.49c3.1,0,3.62,2,3.89,3l.07.26c.31,1.08.13,29.37,0,41.49a1,1,0,0,1-1,1c-11.9.2-18.4-.28-19.3-1.44-.52-.66-1.42-2.85-3-6.67-1.33-3.26-3.34-8.2-4-8.84-.82-.73-6.9-2.7-10.17-3.76-1.54-.5-2.87-.94-3.64-1.22a20.11,20.11,0,0,0-5.9-.74c-1.07,0-2.08-.06-3-.16-2.39-.27-12.91,1.4-17.39,3.49-3.21,1.5-5.29,2.32-6.25,2.67-.2,1.91-.81,5.81-2.5,6.89l-.58.36c-1.52.93-2.38,1.53-2.58,3a29.73,29.73,0,0,1-1.46,5.54l-.09.24C168.85,135.21,168.67,135.74,163,135.74Zm4.12-1.74h0Zm-15.8-.64c6.88.33,14.2.49,16,.22a27.12,27.12,0,0,0,1.31-5c.33-2.47,2-3.51,3.51-4.43l.55-.34c.74-.47,1.45-3.48,1.65-6A1,1,0,0,1,175,117s2.27-.77,6.66-2.82c4.65-2.17,15.47-4,18.45-3.66.85.09,1.82.12,2.85.15a21.5,21.5,0,0,1,6.53.87c.73.26,2,.69,3.57,1.19,5.53,1.79,9.83,3.24,10.89,4.17.81.72,2,3.41,4.49,9.58,1,2.43,2.21,5.42,2.64,6.11,1.31.61,9.3.86,16.77.76.11-15.71.21-38.66,0-40l-.06-.23c-.26-1-.4-1.53-2-1.53H151.35Z" fill="#093f68"/><path d="M191.4,115.31a1,1,0,0,1-1-.72l-7.06-23.75a1,1,0,1,1,1.91-.57L192.36,114a1,1,0,0,1-.67,1.25A1,1,0,0,1,191.4,115.31Z" fill="#093f68"/><path d="M207.64,115.31a1,1,0,0,1-.29,0,1,1,0,0,1-.66-1.25l7.39-24.37a1,1,0,0,1,1.25-.66,1,1,0,0,1,.67,1.24l-7.4,24.37A1,1,0,0,1,207.64,115.31Z" fill="#093f68"/><polygon points="190.07 87.06 208.98 87.06 213.28 90.55 185.76 90.55 190.07 87.06" fill="#ad7972"/><path d="M213.28,91.55H185.76a1,1,0,0,1-.94-.66,1,1,0,0,1,.31-1.11l4.31-3.5a1,1,0,0,1,.63-.22H209a1,1,0,0,1,.63.22l4.3,3.5a1,1,0,0,1,.31,1.11A1,1,0,0,1,213.28,91.55Zm-24.7-2h21.88l-1.84-1.49h-18.2Z" fill="#093f68"/><rect x="196.89" y="112.63" width="5.2" height="14.81" fill="#68e1fd"/><path d="M202.1,128.44h-5.21a1,1,0,0,1-1-1V112.63a1,1,0,0,1,1-1h5.21a1,1,0,0,1,1,1v14.81A1,1,0,0,1,202.1,128.44Zm-4.21-2h3.21V113.63h-3.21Z" fill="#093f68"/><rect x="144.98" y="120.04" width="5.38" height="17.28" fill="#68e1fd"/><path d="M150.35,138.32H145a1,1,0,0,1-1-1V120a1,1,0,0,1,1-1h5.37a1,1,0,0,1,1,1v17.28A1,1,0,0,1,150.35,138.32Zm-4.37-2h3.37V121H146Z" fill="#093f68"/><rect x="150.35" y="132.35" width="18.41" height="3.65" fill="#68e1fd"/><path d="M168.76,137H150.35a1,1,0,0,1-1-1v-3.65a1,1,0,0,1,1-1h18.41a1,1,0,0,1,1,1V136A1,1,0,0,1,168.76,137Zm-17.41-2h16.41v-1.65H151.35Z" fill="#093f68"/><rect x="250.01" y="120.04" width="5.38" height="17.28" transform="translate(505.4 257.35) rotate(-180)" fill="#68e1fd"/><path d="M255.39,138.32H250a1,1,0,0,1-1-1V120a1,1,0,0,1,1-1h5.38a1,1,0,0,1,1,1v17.28A1,1,0,0,1,255.39,138.32Zm-4.38-2h3.38V121H251Z" fill="#093f68"/><rect x="231.61" y="132.35" width="18.41" height="3.65" transform="translate(481.62 268.35) rotate(-180)" fill="#68e1fd"/><path d="M250,137h-18.4a1,1,0,0,1-1-1v-3.65a1,1,0,0,1,1-1H250a1,1,0,0,1,1,1V136A1,1,0,0,1,250,137Zm-17.4-2H249v-1.65h-16.4Z" fill="#093f68"/><path d="M144.18,131.13v94.31a91.84,91.84,0,0,1-8.76-7.35v-87Z" fill="#68e1fd"/><path d="M144.18,226.44a1,1,0,0,1-.59-.2,90.21,90.21,0,0,1-8.86-7.43,1,1,0,0,1-.31-.72v-87a1,1,0,0,1,1-1h8.76a1,1,0,0,1,1,1v94.31a1,1,0,0,1-.55.89A.91.91,0,0,1,144.18,226.44Zm-7.76-8.78q3.2,3,6.76,5.77v-91.3h-6.76Z" fill="#093f68"/><path d="M265.47,131.13v86.1a91.12,91.12,0,0,1-8.76,7.54V131.13Z" fill="#68e1fd"/><path d="M256.71,225.77a.91.91,0,0,1-.45-.11,1,1,0,0,1-.55-.89V131.13a1,1,0,0,1,1-1h8.76a1,1,0,0,1,1,1v86.1a1,1,0,0,1-.3.72,94.24,94.24,0,0,1-8.86,7.62A1,1,0,0,1,256.71,225.77Zm1-93.64v90.6c2.3-1.82,4.57-3.8,6.76-5.92V132.13Z" fill="#093f68"/></g></svg>