<svg id="_510_pie_chart_outline" data-name="#510_pie_chart_outline" xmlns="http://www.w3.org/2000/svg" viewBox="0 0 400 300"><path d="M200,150h79.69c0,43.72-36,79.69-79.69,79.69s-79.69-36-79.69-79.69c0-43.52,35.65-79.41,79.17-79.69Z" fill="#68e1fd"/><path d="M200,230.69a80.69,80.69,0,0,1-.52-161.38h0a1,1,0,0,1,1,1L201,149h78.7a1,1,0,0,1,1,1A81.06,81.06,0,0,1,200,230.69ZM198.49,71.32A78.89,78.89,0,0,0,121.31,150a78.69,78.69,0,0,0,157.37,1H200a1,1,0,0,1-1-1Z" fill="#093f68"/><path d="M200,150h79.69A79.66,79.66,0,0,1,257,205.66Z" fill="#fff"/><path d="M257,206.66a1,1,0,0,1-.7-.29l-57-55.65A1,1,0,0,1,200,149h79.69a1,1,0,0,1,1,1,80.67,80.67,0,0,1-22.94,56.36,1,1,0,0,1-.7.3ZM202.46,151,257,204.24A78.69,78.69,0,0,0,278.68,151Z" fill="#093f68"/><rect x="211.24" y="135.31" width="19.76" height="14.69" fill="#f56132"/><path d="M231,151H211.24a1,1,0,0,1-1-1V135.31a1,1,0,0,1,1-1H231a1,1,0,0,1,1,1V150A1,1,0,0,1,231,151Zm-18.77-2H230V136.31H212.24Z" fill="#093f68"/><rect x="231.01" y="120.61" width="19.76" height="29.39" fill="#ffbc0e"/><path d="M250.77,151H231a1,1,0,0,1-1-1V120.61a1,1,0,0,1,1-1h19.76a1,1,0,0,1,1,1V150A1,1,0,0,1,250.77,151ZM232,149h17.76V121.61H232Z" fill="#093f68"/><rect x="250.77" y="106.16" width="19.76" height="43.84" fill="#70cc40"/><path d="M270.54,151H250.77a1,1,0,0,1-1-1V106.16a1,1,0,0,1,1-1h19.77a1,1,0,0,1,1,1V150A1,1,0,0,1,270.54,151Zm-18.77-2h17.77V107.16H251.77Z" fill="#093f68"/><path d="M211.25,119a1,1,0,0,1-.55-1.84l52.91-34.75a1,1,0,0,1,1.1,1.68L211.79,118.8A.93.93,0,0,1,211.25,119Z" fill="#dfeaef"/><path d="M261.69,94a1,1,0,0,1-.24,0,1,1,0,0,1-.73-1.21l2.18-8.63-9.15-.53a1,1,0,1,1,.11-2l10.36.6a1,1,0,0,1,.75.41,1,1,0,0,1,.16.83l-2.47,9.81A1,1,0,0,1,261.69,94Z" fill="#dfeaef"/><path d="M209.16,159.94a1,1,0,0,1-.71-1.7l8.74-8.94a1,1,0,0,1,1.42,0,1,1,0,0,1,0,1.41l-8.74,8.94A1,1,0,0,1,209.16,159.94Z" fill="#093f68"/><path d="M217.31,167.89a1,1,0,0,1-.7-.28,1,1,0,0,1,0-1.42l16.52-16.89a1,1,0,0,1,1.43,1.4L218,167.59A1,1,0,0,1,217.31,167.89Z" fill="#093f68"/><path d="M225.46,175.84a1,1,0,0,1-.72-1.7L249,149.3a1,1,0,0,1,1.43,1.4l-24.29,24.84A1,1,0,0,1,225.46,175.84Z" fill="#093f68"/><path d="M233.6,183.79a1,1,0,0,1-.7-.29,1,1,0,0,1,0-1.41l32.05-32.79a1,1,0,0,1,1.42,0,1,1,0,0,1,0,1.41l-32.05,32.79A1,1,0,0,1,233.6,183.79Z" fill="#093f68"/><path d="M241.75,191.74A1,1,0,0,1,241,190L279,151.25a1,1,0,0,1,1.42,0,1,1,0,0,1,0,1.41l-37.92,38.78A1,1,0,0,1,241.75,191.74Z" fill="#093f68"/><path d="M249.9,199.68a1,1,0,0,1-.7-.28,1,1,0,0,1,0-1.42l26.94-27.54a1,1,0,0,1,1.43,1.39l-26.94,27.55A1,1,0,0,1,249.9,199.68Z" fill="#093f68"/></svg>