<svg xmlns="http://www.w3.org/2000/svg" viewBox="0 0 400 300"><g id="_09_pie_chart_outline" data-name="#09_pie_chart_outline"><rect x="91.45" y="72.08" width="217.1" height="161.56" fill="#fff"/><path d="M308.55,234.64H91.45a1,1,0,0,1-1-1V72.08a1,1,0,0,1,1-1h217.1a1,1,0,0,1,1,1V233.64A1,1,0,0,1,308.55,234.64Zm-216.1-2h215.1V73.08H92.45Z" fill="#093f68"/><rect x="83.75" y="224.98" width="232.5" height="13.06" rx="5.39" fill="#68e1fd"/><path d="M310.86,239H89.14a6.39,6.39,0,0,1-6.39-6.38v-2.29A6.4,6.4,0,0,1,89.14,224H310.86a6.4,6.4,0,0,1,6.39,6.39v2.29A6.39,6.39,0,0,1,310.86,239ZM89.14,226a4.4,4.4,0,0,0-4.39,4.39v2.29A4.39,4.39,0,0,0,89.14,237H310.86a4.39,4.39,0,0,0,4.39-4.38v-2.29a4.4,4.4,0,0,0-4.39-4.39Z" fill="#093f68"/><rect x="83.75" y="61.96" width="232.5" height="13.06" rx="5.39" fill="#68e1fd"/><path d="M310.86,76H89.14a6.4,6.4,0,0,1-6.39-6.39V67.34A6.39,6.39,0,0,1,89.14,61H310.86a6.39,6.39,0,0,1,6.39,6.38v2.29A6.4,6.4,0,0,1,310.86,76ZM89.14,63a4.39,4.39,0,0,0-4.39,4.38v2.29A4.4,4.4,0,0,0,89.14,74H310.86a4.4,4.4,0,0,0,4.39-4.39V67.34A4.39,4.39,0,0,0,310.86,63Z" fill="#093f68"/><path d="M259.24,149.87v.1a59.09,59.09,0,0,1-18.82,43.19c-.56.52-1.13,1.05-1.72,1.54a59.22,59.22,0,1,1,20.51-46.44v.17C259.22,148.91,259.24,149.38,259.24,149.87Z" fill="#68e1fd"/><path d="M200,210.11a60.23,60.23,0,1,1,60.21-61.88v.2c0,.48,0,.95,0,1.44v.1a60.51,60.51,0,0,1-19.13,43.92c-.59.54-1.16,1.07-1.77,1.57A60.08,60.08,0,0,1,200,210.11Zm0-118.47a58.24,58.24,0,1,0,38.05,102.3c.59-.49,1.14-1,1.7-1.52A58.46,58.46,0,0,0,258.24,150l1-.1h-1c0-.47,0-.93,0-1.39v-.22A58.24,58.24,0,0,0,200,91.64Z" fill="#093f68"/><path d="M259.24,149.87v.1c-26.35.11-59.24-.1-59.24-.1V90.64a59.23,59.23,0,0,1,59.21,57.62v.17C259.22,148.91,259.24,149.38,259.24,149.87Z" fill="#f56132"/><path d="M242.32,151c-21.48,0-42.07-.12-42.33-.13a1,1,0,0,1-1-1V90.64a1,1,0,0,1,1-1,60.24,60.24,0,0,1,60.21,58.59v.2c0,.48,0,.95,0,1.44v.1a1,1,0,0,1-1,1C253.78,151,248,151,242.32,151Zm16.92-1h0ZM201,148.88c5.62,0,33.92.18,57.23.09,0-.16,0-.32,0-.49v-.22A58.24,58.24,0,0,0,201,91.65Z" fill="#093f68"/><path d="M259.24,149.87v.1a59.09,59.09,0,0,1-18.82,43.19c-.56.52-1.13,1.05-1.72,1.54L200,149.87Z" fill="#70cc40"/><path d="M238.7,195.7a1,1,0,0,1-.75-.35l-38.71-44.82a1,1,0,0,1-.15-1.07,1,1,0,0,1,.91-.59h59.24a1,1,0,0,1,1,1v.1a60.51,60.51,0,0,1-19.13,43.92c-.59.54-1.16,1.07-1.77,1.57A1,1,0,0,1,238.7,195.7Zm-36.52-44.83,36.62,42.42.95-.87a58.48,58.48,0,0,0,18.48-41.55Z" fill="#093f68"/><path d="M235.42,121.32a1,1,0,0,1-.57-1.82l28.87-20a1,1,0,0,1,1.4.26,1,1,0,0,1-.26,1.39l-28.87,20A1,1,0,0,1,235.42,121.32Z" fill="#093f68"/><path d="M268.7,195.7a1,1,0,0,1-.71-.3l-26.07-26.57a1,1,0,0,1,1.43-1.4L269.42,194a1,1,0,0,1,0,1.41A1,1,0,0,1,268.7,195.7Z" fill="#093f68"/><path d="M151.5,201.61H135.26a1,1,0,0,1,0-2H151l21.66-27.94a1,1,0,0,1,1.58,1.23l-22,28.33A1,1,0,0,1,151.5,201.61Z" fill="#093f68"/><path d="M125,192.39H104a1,1,0,0,1,0-2h21a1,1,0,0,1,0,2Z" fill="#68e1fd"/><path d="M125,201.61H104a1,1,0,0,1,0-2h21a1,1,0,0,1,0,2Z" fill="#68e1fd"/><path d="M117.51,210.84H104a1,1,0,1,1,0-2h13.53a1,1,0,1,1,0,2Z" fill="#68e1fd"/><path d="M294.57,201.61H273.52a1,1,0,0,1,0-2h21.05a1,1,0,0,1,0,2Z" fill="#70cc40"/><path d="M287.05,210.84H273.52a1,1,0,0,1,0-2h13.53a1,1,0,0,1,0,2Z" fill="#70cc40"/><path d="M293.82,92.13H272.76a1,1,0,0,1,0-2h21.06a1,1,0,0,1,0,2Z" fill="#f56132"/><path d="M293.82,101.35H272.76a1,1,0,0,1,0-2h21.06a1,1,0,0,1,0,2Z" fill="#f56132"/><path d="M286.3,110.58H272.76a1,1,0,0,1,0-2H286.3a1,1,0,0,1,0,2Z" fill="#f56132"/><path d="M138.06,117.75H101.27a1,1,0,0,1-1-1V84a1,1,0,0,1,1-1h36.79a1,1,0,0,1,1,1v32.8A1,1,0,0,1,138.06,117.75Zm-35.79-2h34.79V85H102.27Z" fill="#dfeaef"/><path d="M138.06,93.53H101.27a1,1,0,0,1,0-2h36.79a1,1,0,0,1,0,2Z" fill="#dfeaef"/><path d="M110.89,117.75a1,1,0,0,1-1-1V84a1,1,0,0,1,2,0v32.8A1,1,0,0,1,110.89,117.75Z" fill="#dfeaef"/><path d="M129.54,129.83H108.69a1,1,0,0,1,0-2h20.85a1,1,0,0,1,0,2Z" fill="#dfeaef"/><path d="M129.54,137.85H101.27a1,1,0,0,1,0-2h28.27a1,1,0,0,1,0,2Z" fill="#dfeaef"/><path d="M129.54,145.87H101.27a1,1,0,1,1,0-2h28.27a1,1,0,0,1,0,2Z" fill="#dfeaef"/><path d="M129.54,153.89H101.27a1,1,0,1,1,0-2h28.27a1,1,0,0,1,0,2Z" fill="#dfeaef"/><path d="M129.54,161.91H101.27a1,1,0,0,1,0-2h28.27a1,1,0,0,1,0,2Z" fill="#dfeaef"/><path d="M297.43,137.82H276.58a1,1,0,0,1,0-2h20.85a1,1,0,0,1,0,2Z" fill="#dfeaef"/><path d="M297.43,145.84H269.16a1,1,0,0,1,0-2h28.27a1,1,0,0,1,0,2Z" fill="#dfeaef"/><path d="M297.43,153.86H269.16a1,1,0,0,1,0-2h28.27a1,1,0,0,1,0,2Z" fill="#dfeaef"/><path d="M297.43,161.88H269.16a1,1,0,0,1,0-2h28.27a1,1,0,0,1,0,2Z" fill="#dfeaef"/><path d="M297.43,169.91H269.16a1,1,0,0,1,0-2h28.27a1,1,0,0,1,0,2Z" fill="#dfeaef"/></g></svg>