<svg id="_150_pipeline_outline" data-name="#150_pipeline_outline" xmlns="http://www.w3.org/2000/svg" viewBox="0 0 400 300"><rect x="113.29" y="127.18" width="6.19" height="16.33" fill="#093f68"/><path d="M119.48,144.51h-6.19a1,1,0,0,1-1-1V127.18a1,1,0,0,1,1-1h6.19a1,1,0,0,1,1,1v16.33A1,1,0,0,1,119.48,144.51Zm-5.19-2h4.19V128.18h-4.19Z" fill="#093f68"/><path d="M199.14,79.39h1.72a4.05,4.05,0,0,1,4.05,4.05v24.13a0,0,0,0,1,0,0h-9.82a0,0,0,0,1,0,0V83.45A4.05,4.05,0,0,1,199.14,79.39Z" fill="#093f68"/><path d="M204.91,108.58h-9.82a1,1,0,0,1-1-1V83.45a5.06,5.06,0,0,1,5-5.06h1.72a5.06,5.06,0,0,1,5,5.06v24.13A1,1,0,0,1,204.91,108.58Zm-8.82-2h7.82V83.45a3.06,3.06,0,0,0-3-3.06h-1.72a3.06,3.06,0,0,0-3,3.06Z" fill="#093f68"/><rect x="154.49" y="83.45" width="91.03" height="7.63" rx="3.82" fill="#ffbc0e"/><path d="M241.7,92.09H158.3a4.82,4.82,0,0,1,0-9.63h83.4a4.82,4.82,0,0,1,0,9.63Zm-83.4-7.63a2.82,2.82,0,0,0,0,5.63h83.4a2.82,2.82,0,0,0,0-5.63Z" fill="#093f68"/><ellipse cx="200" cy="109.15" rx="18.16" ry="13.21" fill="#68e1fd"/><path d="M200,123.36c-10.56,0-19.16-6.38-19.16-14.21s8.6-14.22,19.16-14.22,19.16,6.38,19.16,14.22S210.56,123.36,200,123.36Zm0-26.43c-9.46,0-17.16,5.48-17.16,12.22s7.7,12.21,17.16,12.21,17.16-5.48,17.16-12.21S209.46,96.93,200,96.93Z" fill="#093f68"/><polygon points="217.62 139.51 217.62 117.67 182.38 117.67 182.38 139.51 145.94 139.51 145.94 174.74 254.06 174.74 254.06 139.51 217.62 139.51" fill="#68e1fd"/><path d="M254.07,175.74H145.93a1,1,0,0,1-1-1V139.51a1,1,0,0,1,1-1h35.45V117.67a1,1,0,0,1,1-1h35.24a1,1,0,0,1,1,1v20.84h35.45a1,1,0,0,1,1,1v35.23A1,1,0,0,1,254.07,175.74Zm-107.14-2H253.07V140.51H217.62a1,1,0,0,1-1-1V118.67H183.38v20.84a1,1,0,0,1-1,1H146.93Z" fill="#093f68"/><path d="M114.65,139.67h18.46a0,0,0,0,1,0,0v75a0,0,0,0,1,0,0H97.54a0,0,0,0,1,0,0V156.78A17.11,17.11,0,0,1,114.65,139.67Z" fill="#68e1fd"/><path d="M133.12,215.66H97.54a1,1,0,0,1-1-1V156.78a18.13,18.13,0,0,1,18.11-18.11h18.47a1,1,0,0,1,1,1v75A1,1,0,0,1,133.12,215.66Zm-34.58-2h33.58v-73H114.65a16.13,16.13,0,0,0-16.11,16.11Z" fill="#093f68"/><rect x="133.12" y="134.5" width="12.82" height="45.77" rx="3.9" fill="#68e1fd"/><path d="M142,181.28h-5a4.9,4.9,0,0,1-4.89-4.9v-38a4.9,4.9,0,0,1,4.89-4.9h5a4.9,4.9,0,0,1,4.89,4.9v38A4.9,4.9,0,0,1,142,181.28Zm-5-45.78a2.9,2.9,0,0,0-2.89,2.9v38a2.9,2.9,0,0,0,2.89,2.9h5a2.9,2.9,0,0,0,2.89-2.9v-38a2.9,2.9,0,0,0-2.89-2.9Z" fill="#093f68"/><rect x="193.59" y="91.1" width="12.82" height="45.77" rx="3.9" transform="translate(313.99 -86.01) rotate(90)" fill="#68e1fd"/><path d="M219,121.4H181a4.91,4.91,0,0,1-4.9-4.9v-5a4.91,4.91,0,0,1,4.9-4.9h38a4.91,4.91,0,0,1,4.9,4.9v5A4.91,4.91,0,0,1,219,121.4Zm-38-12.82a2.9,2.9,0,0,0-2.9,2.9v5a2.9,2.9,0,0,0,2.9,2.9h38a2.9,2.9,0,0,0,2.9-2.9v-5a2.9,2.9,0,0,0-2.9-2.9Z" fill="#093f68"/><path d="M266.88,139.67h35.57a0,0,0,0,1,0,0v75a0,0,0,0,1,0,0H284a17.11,17.11,0,0,1-17.11-17.11V139.67A0,0,0,0,1,266.88,139.67Z" transform="translate(569.34 354.33) rotate(-180)" fill="#68e1fd"/><path d="M302.46,215.66H266.88a1,1,0,0,1-1-1v-75a1,1,0,0,1,1-1h18.47a18.13,18.13,0,0,1,18.11,18.11v57.88A1,1,0,0,1,302.46,215.66Zm-34.58-2h33.58V156.78a16.13,16.13,0,0,0-16.11-16.11H267.88Z" fill="#093f68"/><rect x="254.07" y="134.5" width="12.82" height="45.77" rx="3.9" transform="translate(520.95 314.78) rotate(-180)" fill="#68e1fd"/><path d="M263,181.28h-5a4.9,4.9,0,0,1-4.89-4.9v-38a4.9,4.9,0,0,1,4.89-4.9h5a4.9,4.9,0,0,1,4.89,4.9v38A4.9,4.9,0,0,1,263,181.28Zm-5-45.78a2.9,2.9,0,0,0-2.89,2.9v38a2.9,2.9,0,0,0,2.89,2.9h5a2.9,2.9,0,0,0,2.89-2.9v-38a2.9,2.9,0,0,0-2.89-2.9Z" fill="#093f68"/><rect x="95.01" y="214.66" width="40.64" height="5.94" fill="#68e1fd"/><path d="M135.65,221.61H95a1,1,0,0,1-1-1v-6a1,1,0,0,1,1-1h40.64a1,1,0,0,1,1,1v6A1,1,0,0,1,135.65,221.61Zm-39.64-2h38.64v-4H96Z" fill="#093f68"/><rect x="264.35" y="214.66" width="40.64" height="5.94" fill="#68e1fd"/><path d="M305,221.61H264.35a1,1,0,0,1-1-1v-6a1,1,0,0,1,1-1H305a1,1,0,0,1,1,1v6A1,1,0,0,1,305,221.61Zm-39.64-2H304v-4H265.35Z" fill="#093f68"/><path d="M295.46,206.64a1,1,0,0,1-1-1V191a1,1,0,0,1,2,0v14.64A1,1,0,0,1,295.46,206.64Z" fill="#093f68"/><path d="M102.87,169.47a1,1,0,0,1-1-1V157.39a1,1,0,0,1,2,0v11.08A1,1,0,0,1,102.87,169.47Z" fill="#093f68"/><path d="M172,169.47H154.49a1,1,0,0,1,0-2H172a1,1,0,0,1,0,2Z" fill="#093f68"/><path d="M187.06,133.25a1,1,0,0,1-1-1v-5.92a1,1,0,1,1,2,0v5.92A1,1,0,0,1,187.06,133.25Z" fill="#093f68"/><circle cx="116.27" cy="114.28" r="18.42" fill="#fff"/><path d="M116.27,133.7a19.42,19.42,0,1,1,19.42-19.42A19.44,19.44,0,0,1,116.27,133.7Zm0-36.84a17.42,17.42,0,1,0,17.42,17.42A17.45,17.45,0,0,0,116.27,96.86Z" fill="#093f68"/><path d="M116.27,103.63a1,1,0,0,1-1-1V95.87a1,1,0,0,1,2,0v6.76A1,1,0,0,1,116.27,103.63Z" fill="#093f68"/><path d="M123.87,106.05a1,1,0,0,1-.58-.19,1,1,0,0,1-.24-1.39l3.73-5.27a1,1,0,0,1,1.4-.24,1,1,0,0,1,.24,1.39l-3.73,5.27A1,1,0,0,1,123.87,106.05Z" fill="#093f68"/><path d="M128.68,112.41a1,1,0,0,1-.33-2l5.38-1.89a1,1,0,0,1,.66,1.89L129,112.35A1,1,0,0,1,128.68,112.41Z" fill="#093f68"/><path d="M108.67,106.05a1,1,0,0,1-.82-.43l-3.73-5.27a1,1,0,0,1,.24-1.39,1,1,0,0,1,1.4.24l3.73,5.27a1,1,0,0,1-.24,1.39A1,1,0,0,1,108.67,106.05Z" fill="#093f68"/><path d="M103.86,112.41a1,1,0,0,1-.33-.06l-5.38-1.89a1,1,0,0,1,.66-1.89l5.38,1.89a1,1,0,0,1-.33,2Z" fill="#093f68"/><path d="M124.49,120.29H108.05a1,1,0,0,1,0-2h16.44a1,1,0,0,1,0,2Z" fill="#dfeaef"/><path d="M121.14,125H111.4a1,1,0,0,1,0-2h9.74a1,1,0,0,1,0,2Z" fill="#dfeaef"/></svg>