<svg xmlns="http://www.w3.org/2000/svg" viewBox="0 0 400 300"><g id="_209_polaroid_outline" data-name="#209_polaroid_outline"><path d="M126.62,64.67H273.38a5.57,5.57,0,0,1,5.55,5.13l5.73,73.7H115.34l5.73-73.7A5.57,5.57,0,0,1,126.62,64.67Z" fill="#fff"/><path d="M284.66,144.5H115.34a1,1,0,0,1-.73-.32,1,1,0,0,1-.26-.76l5.73-73.7a6.59,6.59,0,0,1,6.54-6H273.38a6.59,6.59,0,0,1,6.54,6l5.73,73.7a1,1,0,0,1-.26.76A1,1,0,0,1,284.66,144.5Zm-168.23-2H283.57l-5.64-72.62a4.58,4.58,0,0,0-4.55-4.21H126.62a4.58,4.58,0,0,0-4.55,4.21Z" fill="#093f68"/><path d="M288.17,163.4l-.52,7.79-2.29,34A11.53,11.53,0,0,1,273.85,216H126.15a11.53,11.53,0,0,1-11.51-10.76l-2.29-34-.52-7.79,3.51-19.9H284.66Z" fill="#fff"/><path d="M273.85,217H126.15a12.58,12.58,0,0,1-12.51-11.7l-2.81-41.8a1,1,0,0,1,0-.24l3.51-19.9a1,1,0,0,1,1-.82H284.66a1,1,0,0,1,1,.82l3.51,19.9a1,1,0,0,1,0,.24l-2.81,41.8A12.58,12.58,0,0,1,273.85,217Zm-161-53.51,2.8,41.68A10.57,10.57,0,0,0,126.15,215h147.7a10.57,10.57,0,0,0,10.51-9.83l2.8-41.68-3.34-18.95H116.18Z" fill="#093f68"/><path d="M287.65,171.19l-2.29,34A11.53,11.53,0,0,1,273.85,216H126.15a11.53,11.53,0,0,1-11.51-10.76l-2.29-34Z" fill="#093f68"/><path d="M273.85,217H126.15a12.58,12.58,0,0,1-12.51-11.7l-2.29-34a1,1,0,0,1,.27-.75,1,1,0,0,1,.73-.31h175.3a1,1,0,0,1,.73.31,1,1,0,0,1,.27.75l-2.29,34A12.58,12.58,0,0,1,273.85,217ZM113.42,172.19l2.22,32.94A10.57,10.57,0,0,0,126.15,215h147.7a10.57,10.57,0,0,0,10.51-9.83l2.22-32.94Z" fill="#093f68"/><rect x="125.39" y="179.73" width="149.23" height="8.12" rx="4.06" fill="#68e1fd"/><path d="M270.55,188.85H129.45a5.06,5.06,0,1,1,0-10.12h141.1a5.06,5.06,0,1,1,0,10.12Zm-141.1-8.12a3.06,3.06,0,1,0,0,6.12h141.1a3.06,3.06,0,1,0,0-6.12Z" fill="#093f68"/><rect x="242.12" y="72.83" width="28.63" height="28.63" rx="2.81" fill="#fff"/><path d="M267.93,102.46h-23a3.82,3.82,0,0,1-3.81-3.81v-23a3.82,3.82,0,0,1,3.81-3.81h23a3.82,3.82,0,0,1,3.81,3.81v23A3.82,3.82,0,0,1,267.93,102.46Zm-23-28.63a1.81,1.81,0,0,0-1.81,1.81v23a1.82,1.82,0,0,0,1.81,1.81h23a1.82,1.82,0,0,0,1.81-1.81v-23a1.81,1.81,0,0,0-1.81-1.81Z" fill="#093f68"/><path d="M256.43,98.68A11.54,11.54,0,1,1,268,87.14,11.56,11.56,0,0,1,256.43,98.68Zm0-21.07A9.54,9.54,0,1,0,266,87.14,9.54,9.54,0,0,0,256.43,77.61Z" fill="#dfeaef"/><circle cx="256.43" cy="126.14" r="8.31" fill="#68e1fd"/><path d="M256.43,135.45a9.31,9.31,0,1,1,9.31-9.31A9.32,9.32,0,0,1,256.43,135.45Zm0-16.62a7.31,7.31,0,1,0,7.31,7.31A7.32,7.32,0,0,0,256.43,118.83Z" fill="#093f68"/><circle cx="144.28" cy="122.34" r="12.11" fill="#f56132"/><path d="M144.28,135.45a13.11,13.11,0,1,1,13.1-13.11A13.12,13.12,0,0,1,144.28,135.45Zm0-24.21a11.11,11.11,0,1,0,11.1,11.1A11.12,11.12,0,0,0,144.28,111.24Z" fill="#093f68"/><rect x="127.1" y="87.14" width="31.53" height="11.62" rx="3.28" fill="#68e1fd"/><path d="M155.36,99.76h-25a4.28,4.28,0,0,1-4.28-4.28V90.42a4.28,4.28,0,0,1,4.28-4.28h25a4.28,4.28,0,0,1,4.27,4.28v5.06A4.28,4.28,0,0,1,155.36,99.76Zm-25-11.62a2.29,2.29,0,0,0-2.28,2.28v5.06a2.28,2.28,0,0,0,2.28,2.28h25a2.28,2.28,0,0,0,2.27-2.28V90.42a2.28,2.28,0,0,0-2.27-2.28Z" fill="#093f68"/><path d="M178.56,53.5h42.88a5.86,5.86,0,0,1,5.19,3.14l4.2,8H169.17l4.2-8A5.86,5.86,0,0,1,178.56,53.5Z" fill="#68e1fd"/><path d="M230.83,65.67H169.17a1,1,0,0,1-.89-1.47l4.2-8a6.85,6.85,0,0,1,6.08-3.68h42.88a6.85,6.85,0,0,1,6.08,3.68l4.2,8a1,1,0,0,1-.89,1.47Zm-60-2h58.36l-3.44-6.57a4.85,4.85,0,0,0-4.3-2.6H178.56a4.85,4.85,0,0,0-4.3,2.6Z" fill="#093f68"/><polygon points="277.49 246.5 122.51 246.5 136.56 179.73 263.44 179.73 277.49 246.5" fill="#fff"/><path d="M277.49,247.5h-155a1,1,0,0,1-.77-.37,1,1,0,0,1-.2-.83l14-66.78a1,1,0,0,1,1-.79H263.44a1,1,0,0,1,1,.79l14,66.78a1,1,0,0,1-.2.83A1,1,0,0,1,277.49,247.5Zm-153.74-2h152.5l-13.62-64.77H137.37Z" fill="#093f68"/><polygon points="260.58 230.84 139.42 230.84 148.19 179.73 251.81 179.73 260.58 230.84" fill="#68e1fd"/><path d="M260.58,231.84H139.42a1,1,0,0,1-1-1.17l8.78-51.11a1,1,0,0,1,1-.83H251.81a1,1,0,0,1,1,.83l8.78,51.11a1,1,0,0,1-1,1.17Zm-120-2H259.4L251,180.73H149Z" fill="#093f68"/><path d="M186.06,218.52a1.06,1.06,0,0,1-.54-.16l-40-25.55a1,1,0,0,1,1.08-1.69L186,216.27l34.87-30.5a1,1,0,0,1,1.32,1.51l-35.44,31A1,1,0,0,1,186.06,218.52Z" fill="#093f68"/><path d="M235.09,210.79a1,1,0,0,1-.59-.19l-21.92-16a1,1,0,1,1,1.18-1.61L235,208.48l18.1-17.89a1,1,0,0,1,1.41,0,1,1,0,0,1,0,1.42L235.79,210.5A1,1,0,0,1,235.09,210.79Z" fill="#093f68"/><path d="M223.44,214.41c.25,3.52-2.7,6.43-6.59,6.43s-7.12-2.91-7.22-6.43,2.86-6.19,6.6-6.19S223.2,211,223.44,214.41Z" fill="#ffbc0e"/><path d="M216.85,221.84c-4.42,0-8.11-3.32-8.22-7.4a6.69,6.69,0,0,1,1.93-4.9,7.91,7.91,0,0,1,5.67-2.32c4.25,0,7.93,3.2,8.21,7.12a6.73,6.73,0,0,1-1.82,5.09A7.88,7.88,0,0,1,216.85,221.84Zm-.62-12.62a5.94,5.94,0,0,0-4.24,1.71,4.72,4.72,0,0,0-1.36,3.46c.08,3,2.87,5.45,6.22,5.45a5.86,5.86,0,0,0,4.31-1.78,4.71,4.71,0,0,0,1.28-3.58h0C222.24,211.58,219.45,209.22,216.23,209.22Z" fill="#093f68"/><rect x="181.98" y="120.98" width="9.01" height="50.2" fill="#f56132"/><path d="M191,172.19h-9a1,1,0,0,1-1-1V121a1,1,0,0,1,1-1h9a1,1,0,0,1,1,1v50.21A1,1,0,0,1,191,172.19Zm-8-2h7V122h-7Z" fill="#093f68"/><rect x="190.99" y="120.98" width="9.01" height="50.2" fill="#ffbc0e"/><path d="M200,172.19h-9a1,1,0,0,1-1-1V121a1,1,0,0,1,1-1h9a1,1,0,0,1,1,1v50.21A1,1,0,0,1,200,172.19Zm-8-2h7V122h-7Z" fill="#093f68"/><rect x="200" y="120.98" width="9.01" height="50.2" fill="#70cc40"/><path d="M209,172.19h-9a1,1,0,0,1-1-1V121a1,1,0,0,1,1-1h9a1,1,0,0,1,1,1v50.21A1,1,0,0,1,209,172.19Zm-8-2h7V122h-7Z" fill="#093f68"/><rect x="209.01" y="120.98" width="9.01" height="50.2" fill="#68e1fd"/><path d="M218,172.19h-9a1,1,0,0,1-1-1V121a1,1,0,0,1,1-1h9a1,1,0,0,1,1,1v50.21A1,1,0,0,1,218,172.19Zm-8-2h7V122h-7Z" fill="#093f68"/><path d="M218,144.5H182a1,1,0,0,1,0-2h36a1,1,0,0,1,0,2Z" fill="#093f68"/><circle cx="200" cy="101.39" r="30.83" fill="#68e1fd"/><path d="M200,133.22a31.83,31.83,0,1,1,31.83-31.83A31.87,31.87,0,0,1,200,133.22Zm0-61.66a29.83,29.83,0,1,0,29.83,29.83A29.86,29.86,0,0,0,200,71.56Z" fill="#093f68"/><circle cx="200" cy="101.39" r="19.59" fill="#093f68"/><path d="M200,122a20.6,20.6,0,1,1,20.59-20.59A20.6,20.6,0,0,1,200,122Zm0-39.19a18.6,18.6,0,1,0,18.59,18.6A18.62,18.62,0,0,0,200,82.79Z" fill="#093f68"/><path d="M192.24,89.75a1,1,0,0,1-.52-1.85,15.43,15.43,0,0,1,5-2,1,1,0,0,1,1.19.77,1,1,0,0,1-.77,1.18,13.63,13.63,0,0,0-4.34,1.74A1,1,0,0,1,192.24,89.75Z" fill="#fff"/><path d="M186.12,107.62a1,1,0,0,1-.94-.65,15.87,15.87,0,0,1,2.57-15.61,1,1,0,1,1,1.55,1.27,13.85,13.85,0,0,0-2.25,13.63,1,1,0,0,1-.58,1.29A.84.84,0,0,1,186.12,107.62Z" fill="#fff"/></g></svg>