<svg id="_10_presentation_outline" data-name="#10_presentation_outline" xmlns="http://www.w3.org/2000/svg" viewBox="0 0 400 300"><polygon points="198.17 230.62 190.09 230.62 193.81 200.29 201.89 200.29 198.17 230.62" fill="#fff"/><path d="M198.17,231.62h-8.08a1,1,0,0,1-.75-.33,1,1,0,0,1-.24-.79l3.72-30.33a1,1,0,0,1,1-.88h8.08a1,1,0,0,1,.75.34,1,1,0,0,1,.24.78l-3.72,30.33A1,1,0,0,1,198.17,231.62Zm-6.95-2h6.07l3.47-28.33h-6.07Z" fill="#093f68"/><polygon points="290.46 230.62 298.54 230.62 294.82 200.29 286.74 200.29 290.46 230.62" fill="#fff"/><path d="M298.54,231.62h-8.08a1,1,0,0,1-1-.88l-3.71-30.33a1,1,0,0,1,.24-.78,1,1,0,0,1,.75-.34h8.08a1,1,0,0,1,1,.88l3.72,30.33a1,1,0,0,1-1,1.12Zm-7.2-2h6.07l-3.47-28.33h-6.07Z" fill="#093f68"/><rect x="178.35" y="70.63" width="132.2" height="148.79" fill="#fff"/><path d="M310.56,220.42H178.35a1,1,0,0,1-1-1V70.63a1,1,0,0,1,1-1H310.56a1,1,0,0,1,1,1V219.42A1,1,0,0,1,310.56,220.42Zm-131.21-2H309.56V71.63H179.35Z" fill="#093f68"/><path d="M295.08,180.1H196a1,1,0,0,1-1-1V87.5a1,1,0,0,1,2,0v90.6h98.09a1,1,0,0,1,0,2Z" fill="#dfeaef"/><path d="M203.39,171.63a1,1,0,0,1-.38-.07,1,1,0,0,1-.54-1.31c.69-1.64,17-40.09,33.85-33.61,3.17,1.21,5.9,2.4,8.31,3.45,5.74,2.49,9.52,4.13,12.06,3.06,1.61-.68,3-2.56,4.24-5.94,4.19-11,15.31-40.15,29.75-47.79a1,1,0,0,1,.94,1.77c-13.78,7.28-24.7,36-28.82,46.74-1.51,4-3.16,6.15-5.33,7.06-3.33,1.41-7.43-.37-13.63-3.07-2.4-1-5.11-2.22-8.23-3.42-7.73-3-15.77,5.89-21.16,13.84A121.72,121.72,0,0,0,204.32,171,1,1,0,0,1,203.39,171.63Z" fill="#dfeaef"/><rect x="174.87" y="66.59" width="139.17" height="8.08" rx="4.04" fill="#f56132"/><path d="M310,75.67H178.9a5,5,0,0,1,0-10.08H310a5,5,0,1,1,0,10.08ZM178.9,67.59a3,3,0,0,0,0,6.08H310a3,3,0,1,0,0-6.08Z" fill="#093f68"/><polygon points="152.74 187.67 157.54 230.62 108.31 230.62 115.72 187.67 152.74 187.67" fill="#093f68"/><path d="M157.54,231.62H108.3a1,1,0,0,1-1-1.17l7.41-42.95a1,1,0,0,1,1-.83h37a1,1,0,0,1,1,.89l4.81,42.95a1,1,0,0,1-1,1.11Zm-48-2h46.93l-4.58-41H116.56Z" fill="#093f68"/><rect x="87.42" y="212.98" width="30.48" height="19.5" rx="1.92" transform="translate(-49.23 30.18) rotate(-13.52)" fill="#ffbc0e"/><path d="M91.53,236.39a2.91,2.91,0,0,1-2.82-2.24L85,218.91a2.92,2.92,0,0,1,2.15-3.51l25.92-6.23a2.91,2.91,0,0,1,3.51,2.15l3.67,15.24a2.88,2.88,0,0,1-.35,2.2,2.91,2.91,0,0,1-1.81,1.31L92.22,236.3A2.72,2.72,0,0,1,91.53,236.39Zm22.26-25.3a.86.86,0,0,0-.22,0l-25.91,6.23a.92.92,0,0,0-.67,1.11l3.66,15.23a.92.92,0,0,0,.41.57.93.93,0,0,0,.69.11l25.92-6.23h0a.94.94,0,0,0,.56-.41.91.91,0,0,0,.11-.7l-3.66-15.23A.92.92,0,0,0,113.79,211.09Z" fill="#093f68"/><path d="M100,183.06c-3.14.46-6.27,1-9.39,1.56,1.19,9.22,2.62,21.36,3.3,24.82.92,4.66,2,8.85,3.36,9.79s6.07-.28,7.13-1-1.63-6.2-1.63-6.2l3.16-.46c.25-1-3.28-5.09-3.28-5.09C102.68,206.05,101.23,192.72,100,183.06Z" fill="#ffc9b0"/><path d="M99,220.58a3.86,3.86,0,0,1-2.24-.54c-1-.7-2.18-2.48-3.75-10.41-.51-2.57-1.4-9.64-2.34-17.13-.33-2.64-.66-5.3-1-7.75a1,1,0,0,1,.82-1.12c3.17-.56,6.27-1.1,9.42-1.56a1,1,0,0,1,.75.2,1,1,0,0,1,.39.67c1.07,8.61,2.41,20.79,2.63,23.17,3.64,4.23,3.37,5.36,3.28,5.73a1,1,0,0,1-.83.75l-1.82.26c2.32,5.19,1.15,6,.69,6.24A14.45,14.45,0,0,1,99,220.58Zm-7.2-35.14c.28,2.18.57,4.5.86,6.81.89,7.12,1.82,14.49,2.31,17,1.47,7.41,2.56,8.88,3,9.17.71.52,4.54-.26,5.8-.89a17.65,17.65,0,0,0-1.78-5,1,1,0,0,1,0-.91,1,1,0,0,1,.74-.52l2-.29a28.47,28.47,0,0,0-2.71-3.61,1.06,1.06,0,0,1-.25-.64c0-.57-1.32-12.53-2.52-22.33C96.69,184.58,94.24,185,91.75,185.44ZM105,211.51Z" fill="#093f68"/><path d="M221.71,117.14c-1.28-.94-8.39,3.49-10.25,5.58,0,0,1.5-2.75,3-5.93.86-1.89-1.18-3.7-3.65,0a117.23,117.23,0,0,0-5.7,10.36l-3.53,1.58-10.11,4.49-14.3,6.37,3.87,8.71,31.32-13.93c.7-.32,2-.14,2.78-.42,1.07-.36,5.77-2.5,8.3-5.73C227.06,123.61,222.24,117.54,221.71,117.14Z" fill="#ffc9b0"/><path d="M181,149.33a.92.92,0,0,1-.36-.07,1,1,0,0,1-.55-.52L176.21,140a1,1,0,0,1,.51-1.32l27.62-12.28a113.91,113.91,0,0,1,5.59-10.15c2.21-3.33,4.07-2.65,4.59-2.36a2.5,2.5,0,0,1,.81,3.3c-.3.65-.6,1.27-.89,1.87,2.88-1.93,6.48-3.77,7.86-2.74a12.79,12.79,0,0,1,3.38,6.8,7.37,7.37,0,0,1-1.49,5.73c-2.73,3.47-7.69,5.7-8.77,6.06a6,6,0,0,1-1.63.24,4.48,4.48,0,0,0-1.07.14l-31.31,13.93A1,1,0,0,1,181,149.33Zm-2.55-9.21,3.06,6.89L212,133.47a5,5,0,0,1,1.72-.29,5.3,5.3,0,0,0,1.11-.14c.8-.27,5.4-2.31,7.83-5.4,2.92-3.7-.61-8.75-1.45-9.63-1.36-.07-7.23,3.45-8.95,5.37a1,1,0,0,1-1.63-1.14s1.5-2.76,2.93-5.86c.2-.43.08-.7,0-.72s-.84,0-2,1.71C209.2,121,206,127.56,206,127.62a1,1,0,0,1-.49.48Zm42.8-22.1h0Z" fill="#093f68"/><path d="M212.68,129.07a1,1,0,0,1-.84-1.55,2.77,2.77,0,0,0,.54-2.15,3.24,3.24,0,0,0-1.41-1.78,1,1,0,0,1,1-1.74,5.26,5.26,0,0,1,2.37,3,4.72,4.72,0,0,1-.8,3.74A1,1,0,0,1,212.68,129.07Z" fill="#093f68"/><path d="M121.19,72.35s-18.83-1-21.64,16.85.9,75.25.9,75.25l64-3s1-55.16,0-77.9C163.65,65.89,131.45,57.31,121.19,72.35Z" fill="#725858"/><path d="M100.45,165.45a1,1,0,0,1-1-.93c-.16-2.35-3.69-57.73-.9-75.48,2.64-16.73,18.87-17.68,22.12-17.7,5.85-8,17.52-9,26.64-6.42,10.63,3,17.73,10.34,18.09,18.62,1,22.51,0,77.4,0,78a1,1,0,0,1-1,1l-63.95,3ZM120.7,73.34a25.48,25.48,0,0,0-9,1.7c-6.32,2.5-10.09,7.31-11.19,14.31-2.56,16.26.38,66.4.85,74.06l62-2.89c.13-7.37.89-56.07,0-76.9-.32-7.4-6.85-14-16.64-16.78-8.59-2.45-19.57-1.52-24.75,6.07a1,1,0,0,1-.88.44Z" fill="#093f68"/><path d="M186.77,148.32c-.2-1.19-.4-2.37-.57-3.57,0-.28-.07-.57-.11-.86a52.43,52.43,0,0,0-1.44-5.29c-.34-1.07-.72-2.18-1-3.31-7.07.49-20.63,1.68-39.75,4.4-10.43,1.48-23.36,3-28.31,5.18s-15.26,9.24-21.78,23.53a89.55,89.55,0,0,0-5,14.75l12.79,3.29a76.43,76.43,0,0,1,4.23-12.55,35.46,35.46,0,0,1,9.91-12.64v26.42h37V166.82a23.43,23.43,0,0,0,3.11-7.07c.56-2.66-.28-5.54-1.26-7.76Z" fill="#68e1fd"/><path d="M152.74,188.67h-37a1,1,0,0,1-1-1V163.44a34.06,34.06,0,0,0-8,10.86,75.79,75.79,0,0,0-4.17,12.39,1,1,0,0,1-.46.61,1.06,1.06,0,0,1-.76.11l-12.79-3.29a1,1,0,0,1-.61-.46,1,1,0,0,1-.1-.75A90.08,90.08,0,0,1,92.89,168c6-13.21,15.77-21.2,22.29-24,4.37-1.9,14.34-3.28,24-4.61l4.59-.64c19.53-2.77,33.33-3.95,39.82-4.41a1,1,0,0,1,1,.75c.24,1,.55,1.9.86,2.83l.13.42a52.07,52.07,0,0,1,1.46,5.39l.13.93c.17,1.18.37,2.37.57,3.55a1,1,0,0,1-.19.76,1,1,0,0,1-.69.4L156,152.83a12.91,12.91,0,0,1,.82,7.12,23.49,23.49,0,0,1-3.09,7.16v20.56A1,1,0,0,1,152.74,188.67Zm-36-2h35V166.82a1,1,0,0,1,.15-.53,21.55,21.55,0,0,0,3-6.75c.52-2.48-.36-5.25-1.19-7.15a1,1,0,0,1,0-.9,1,1,0,0,1,.75-.49l31.13-3.55c-.14-.85-.28-1.7-.4-2.55,0-.21-.06-.42-.08-.63l0-.25c-.4-1.76-.86-3.46-1.4-5.11l-.13-.42c-.23-.7-.47-1.41-.68-2.15-6.77.5-20.18,1.69-38.85,4.34l-4.6.64c-9.07,1.25-19.34,2.67-23.46,4.46-1.38.6-13.65,6.33-21.27,23A86.72,86.72,0,0,0,90,182.44l10.86,2.78a75.1,75.1,0,0,1,4-11.75,36.79,36.79,0,0,1,10.19-13,1,1,0,0,1,1.06-.12,1,1,0,0,1,.57.9Z" fill="#093f68"/><polygon points="131.78 142.71 137.78 173.38 140.28 144.31 131.78 142.71" fill="#fff"/><path d="M137.78,174.38a1,1,0,0,1-1-.81l-6-30.67a1,1,0,0,1,1.17-1.18l8.5,1.61a1,1,0,0,1,.82,1.07l-2.5,29.06a1,1,0,0,1-.95.92ZM133,144l4.35,22.24,1.82-21.07Z" fill="#093f68"/><rect x="180.39" y="134.22" width="7.44" height="15.62" rx="2.27" transform="translate(-18.17 27.34) rotate(-8.09)" fill="#68e1fd"/><path d="M183.45,151a3.28,3.28,0,0,1-2-.66,3.22,3.22,0,0,1-1.27-2.16l-1.56-11a3.29,3.29,0,0,1,.62-2.43,3.24,3.24,0,0,1,2.16-1.27l2.87-.41a3.28,3.28,0,0,1,3.7,2.78l1.56,11a3.29,3.29,0,0,1-2.78,3.71l-2.87.4A2.49,2.49,0,0,1,183.45,151Zm1.32-15.92h-.18l-2.87.41a1.24,1.24,0,0,0-.84.49,1.28,1.28,0,0,0-.24.95l1.56,11a1.27,1.27,0,0,0,1.44,1.08h0l2.87-.4a1.32,1.32,0,0,0,.84-.5,1.28,1.28,0,0,0,.24-1l-1.56-11A1.28,1.28,0,0,0,184.77,135.08Z" fill="#093f68"/><path d="M131.78,137.6h8.87a0,0,0,0,1,0,0v5.1a3.76,3.76,0,0,1-3.76,3.76h-1.34a3.76,3.76,0,0,1-3.76-3.76v-5.1A0,0,0,0,1,131.78,137.6Z" fill="#ffc9b0"/><path d="M136.88,147.47h-1.34a4.76,4.76,0,0,1-4.76-4.76V137.6a1,1,0,0,1,1-1h8.86a1,1,0,0,1,1,1v5.11A4.76,4.76,0,0,1,136.88,147.47Zm-4.1-8.87v4.11a2.77,2.77,0,0,0,2.76,2.76h1.34a2.77,2.77,0,0,0,2.76-2.76V138.6Z" fill="#093f68"/><ellipse cx="159.17" cy="115.5" rx="6.64" ry="7.42" fill="#ffc9b0"/><path d="M159.17,123.92c-4.22,0-7.65-3.78-7.65-8.42s3.43-8.43,7.65-8.43,7.64,3.78,7.64,8.43S163.38,123.92,159.17,123.92Zm0-14.85c-3.11,0-5.65,2.88-5.65,6.43s2.54,6.42,5.65,6.42,5.64-2.88,5.64-6.42S162.28,109.07,159.17,109.07Z" fill="#093f68"/><path d="M135.94,139.69c-14.58,0-27.63-18-27.63-32.34l3.46,1.32s18.15-15,15.75-23.47c0,0,5.35,6.36,13,6.34,14.16,0,19.7-3.78,19.7-3.78v25.95C160.27,128.06,150.52,139.69,135.94,139.69Z" fill="#ffc9b0"/><path d="M135.94,140.69c-15.15,0-28.64-18.65-28.64-33.34a1,1,0,0,1,.44-.82,1,1,0,0,1,.92-.12l2.92,1.11c5.17-4.36,16.75-15.79,15-22a1,1,0,0,1,1.73-.92c.05.06,5.15,6,12.26,6h0c13.59,0,19.09-3.58,19.14-3.61a1,1,0,0,1,1-.05,1,1,0,0,1,.53.88v25.95C161.27,129.34,150.61,140.69,135.94,140.69Zm-26.6-31.88c.84,16,15.2,29.88,26.6,29.88,13.52,0,23.33-10.51,23.33-25V89.41c-2.56,1.15-8.41,3.11-18.69,3.13h0c-5.33,0-9.55-2.82-11.85-4.8-.37,3.51-2.84,7.88-7.39,13a87.8,87.8,0,0,1-8.89,8.66,1,1,0,0,1-1,.16Z" fill="#093f68"/><ellipse cx="126.14" cy="110.04" rx="2.41" ry="2.4" fill="#093f68"/><circle cx="149.72" cy="110.04" r="2.41" fill="#093f68"/><path d="M141,118a14.18,14.18,0,0,1-2.39-.2,1,1,0,0,1,.35-2,11.52,11.52,0,0,0,3.29.08,18.16,18.16,0,0,0-2-5.37,1,1,0,0,1,1.77-.92c1.07,2,2.75,5.71,2,7.29a1.57,1.57,0,0,1-1,.88A8.5,8.5,0,0,1,141,118Z" fill="#093f68"/><path d="M122.83,104.73a2,2,0,0,1-.17-4l11.43-1a2,2,0,1,1,.35,4l-11.43,1Z" fill="#093f68"/><path d="M144.39,103.41a2,2,0,0,1-.1-4l11.46-.55a2,2,0,0,1,2.1,1.91,2,2,0,0,1-1.91,2.09l-11.46.55Z" fill="#093f68"/><path d="M113.53,109.18s-6.35-4.39-9.76,1.26-.13,15.3,10.37,12.49" fill="#ffc9b0"/><path d="M110.64,124.42a8.79,8.79,0,0,1-7.31-3.38,10.15,10.15,0,0,1-.42-11.11,6.53,6.53,0,0,1,4.26-3.23c3.42-.73,6.79,1.56,6.93,1.66A1,1,0,1,1,113,110s-2.82-1.9-5.38-1.34a4.54,4.54,0,0,0-3,2.3,8.22,8.22,0,0,0,.31,8.87c1.82,2.44,5,3.19,8.95,2.14a1,1,0,1,1,.52,1.93A14.71,14.71,0,0,1,110.64,124.42Z" fill="#093f68"/><rect x="91.67" y="176.26" width="7.44" height="15.62" rx="2.27" transform="translate(270.29 72.74) rotate(84.92)" fill="#68e1fd"/><path d="M90,189.28a3.29,3.29,0,0,1-3.25-3l-.26-2.88h0a3.27,3.27,0,0,1,3-3.55l11-1a3.23,3.23,0,0,1,2.39.75,3.18,3.18,0,0,1,1.16,2.22l.26,2.88a3.27,3.27,0,0,1-3,3.55l-11,1Zm-1.52-6.05.26,2.89a1.25,1.25,0,0,0,1.38,1.15l11-1a1.28,1.28,0,0,0,1.16-1.38l-.26-2.88a1.26,1.26,0,0,0-1.38-1.16l-11,1a1.28,1.28,0,0,0-1.16,1.38Z" fill="#093f68"/><path d="M154.59,153a1,1,0,0,1-.93-.65l-2.07-5.52a1,1,0,1,1,1.87-.7l2.07,5.52a1,1,0,0,1-.59,1.29A1,1,0,0,1,154.59,153Z" fill="#093f68"/><path d="M144.39,121.58l-10.13.5s.87,10.36,4.51,11.35S144.85,127.72,144.39,121.58Z" fill="#fff"/><path d="M139.48,134.53a3.6,3.6,0,0,1-1-.13c-4.11-1.12-5.09-10.39-5.24-12.24a1,1,0,0,1,.94-1.08l10.13-.5a1,1,0,0,1,1,.93c.37,5-1.08,10.12-3.46,12.08A3.8,3.8,0,0,1,139.48,134.53ZM135.37,123c.46,3.93,1.79,8.94,3.66,9.45a1.73,1.73,0,0,0,1.63-.42c1.72-1.42,2.87-5.43,2.78-9.42Z" fill="#093f68"/><rect x="114.41" y="216.34" width="4.13" height="6.16" transform="translate(-55.16 39.83) rotate(-15.74)" fill="#fff"/><path d="M115.32,223.94a1,1,0,0,1-1-.73l-1.67-5.93a1,1,0,0,1,.69-1.23l4-1.12a1,1,0,0,1,.76.09,1.06,1.06,0,0,1,.48.6l1.67,5.93a1,1,0,0,1-.69,1.23l-4,1.12A.84.84,0,0,1,115.32,223.94Zm-.44-6.24,1.13,4,2-.57-1.13-4Z" fill="#093f68"/><path d="M295.08,192.67H232.66a1,1,0,0,1,0-2h62.42a1,1,0,0,1,0,2Z" fill="#dfeaef"/><path d="M280.91,202.71H232.66a1,1,0,0,1,0-2h48.25a1,1,0,0,1,0,2Z" fill="#dfeaef"/><path d="M216.25,204.13H196a1,1,0,0,1-1-1V190.25a1,1,0,0,1,1-1h20.26a1,1,0,0,1,1,1v12.88A1,1,0,0,1,216.25,204.13Zm-19.26-2h18.26V191.25H197Z" fill="#dfeaef"/></svg>