<svg xmlns="http://www.w3.org/2000/svg" viewBox="0 0 400 300"><g id="_79_presentation_outline" data-name="#79_presentation_outline"><rect x="181.4" y="80.43" width="102.02" height="88.57" fill="#fff"/><path d="M283.42,170h-102a1,1,0,0,1-1-1V80.43a1,1,0,0,1,1-1h102a1,1,0,0,1,1,1V169A1,1,0,0,1,283.42,170Zm-101-2h100V81.43h-100Z" fill="#093f68"/><path d="M271,159H191.38a1,1,0,0,1-1-1V92.27a1,1,0,1,1,2,0V157H271a1,1,0,0,1,0,2Z" fill="#dfeaef"/><rect x="111.83" y="196.42" width="42.11" height="12.58" transform="translate(-72.27 331.79) rotate(-88.93)" fill="#ffc9b0"/><path d="M138.79,224.88h0l-12.58-.23a1,1,0,0,1-1-1l.79-42.11a1,1,0,0,1,.3-.7,1.15,1.15,0,0,1,.71-.28l12.58.24a1,1,0,0,1,1,1l-.78,42.1a1,1,0,0,1-1,1Zm-11.56-2.21,10.57.19.75-40.1-10.57-.2Z" fill="#093f68"/><rect x="129.15" y="196.42" width="42.11" height="12.58" transform="translate(-55.28 349.1) rotate(-88.93)" fill="#ffc9b0"/><path d="M156.1,224.88h0l-12.58-.23a1,1,0,0,1-1-1l.79-42.11a1,1,0,0,1,.31-.7,1.19,1.19,0,0,1,.71-.28l12.57.24a1,1,0,0,1,1,1l-.79,42.1a.93.93,0,0,1-.31.7A1,1,0,0,1,156.1,224.88Zm-11.56-2.21,10.58.19.75-40.1-10.58-.2Z" fill="#093f68"/><polygon points="158.72 161.88 161.88 203.01 122.55 203.01 125.53 158.47 158.72 161.88" fill="#093f68"/><path d="M161.88,204H122.55a1,1,0,0,1-1-1.07l3-44.53a1,1,0,0,1,.35-.7,1,1,0,0,1,.75-.23l33.19,3.41a1,1,0,0,1,.89.92l3.16,41.12a1,1,0,0,1-.26.76A1,1,0,0,1,161.88,204Zm-38.26-2h37.17l-3-39.22-31.32-3.22Z" fill="#093f68"/><path d="M132.88,72.54a64.08,64.08,0,0,0-6.43,1.09,9.8,9.8,0,0,0-5.94,7l-7.41,30.6c-.82,3.37-1.64,6.82-1.32,10.28.79,8.4,8.47,15,16.71,16.74s16.85-.31,24.74-3.3c4.93-1.86,10.2-4.43,13.24-8.92,3.72-5.5,1-10.24,1.23-16.3.34-9.23.21-22.14-4.58-30.55C156.87,68.17,140.13,63.12,132.88,72.54Z" fill="#725858"/><path d="M134.87,139.88a30.81,30.81,0,0,1-6.59-.69c-8-1.74-16.63-8.35-17.49-17.62-.35-3.66.55-7.35,1.34-10.61l7.4-30.59A10.87,10.87,0,0,1,126,72.72s4.36-.93,6.32-1.12c2.93-3.56,7.38-5.33,12.62-5a24.77,24.77,0,0,1,19,12c4.93,8.66,5,21.89,4.71,31.08a32.14,32.14,0,0,0,.38,5.36c.49,3.82.95,7.42-1.78,11.46-3.32,4.9-9.07,7.54-13.71,9.3C146.46,138.56,140.36,139.88,134.87,139.88Zm-1.93-66.35c-.63.07-5.46.78-6.09,1a8.84,8.84,0,0,0-5.37,6.3l-7.41,30.59c-.79,3.26-1.6,6.63-1.29,9.95.78,8.32,8.6,14.27,15.93,15.86,6.77,1.47,14.45.43,24.17-3.25,4.36-1.65,9.76-4.12,12.76-8.55,2.31-3.41,1.91-6.51,1.45-10.09a33.21,33.21,0,0,1-.39-5.68c.33-9,.23-21.8-4.45-30a22.68,22.68,0,0,0-17.43-11c-4.7-.31-8.66,1.28-11.15,4.52A1,1,0,0,1,132.94,73.53Z" fill="#093f68"/><path d="M176.42,142.75c2,2.18,3.92,4.5,5.82,6.82l8.66-7.84c2.14-1.94,6.44-6,3.66-8.92a6,6,0,0,0-1.66-1c-1.27-.68-2.56-1.71-4-1.48a4.85,4.85,0,0,0-2.28,1.36,31.14,31.14,0,0,0-3.17,3c-.81,1-.62,1.49-1.13,2.53s-1.84,1.87-2.7,2.65Z" fill="#ffc9b0"/><path d="M182.24,150.57h-.08a1.08,1.08,0,0,1-.7-.37l-.26-.32c-1.77-2.16-3.59-4.39-5.51-6.45a1,1,0,0,1-.27-.73,1,1,0,0,1,.33-.7l3.21-2.9c.24-.22.53-.45.82-.69a6.5,6.5,0,0,0,1.66-1.66,5.32,5.32,0,0,0,.31-.86,4.38,4.38,0,0,1,.94-1.87,22.71,22.71,0,0,1,2.54-2.46l.73-.65a5.56,5.56,0,0,1,2.79-1.6,5.79,5.79,0,0,1,3.88,1.15l.74.43.33.17a5.48,5.48,0,0,1,1.58,1.06,4.07,4.07,0,0,1,1.18,3c-.12,3-3.34,5.9-4.89,7.3h0l-1.44,1.3-7.23,6.54A1,1,0,0,1,182.24,150.57Zm-4.4-7.76c1.56,1.73,3,3.54,4.5,5.31l7.89-7.13c1.24-1.13,4.15-3.76,4.23-5.9a2,2,0,0,0-.63-1.59,3.73,3.73,0,0,0-1-.66l-.37-.19c-.27-.14-.54-.3-.81-.46a4.28,4.28,0,0,0-2.55-.91,4,4,0,0,0-1.77,1.11c-.24.23-.5.45-.75.67a22.61,22.61,0,0,0-2.33,2.24,2.58,2.58,0,0,0-.55,1.13,6.28,6.28,0,0,1-.44,1.2A7.61,7.61,0,0,1,181,140c-.26.21-.52.41-.74.61Z" fill="#093f68"/><path d="M181.14,138.52s-8.95,6-10.61,6.84c-3.25-3.32-11.12-12.6-13.74-14.66s-8.73-3.39-10.5-3.39H134.41c-6.86,0-12.43,6.06-12.43,13.54v21h36.74V149.66c4.53,4.9,8.39,7.55,11.3,8.22s6.34-1.58,15.81-11.33Z" fill="#68e1fd"/><path d="M158.72,162.88H122a1,1,0,0,1-1-1v-21c0-8,6-14.54,13.43-14.54h11.88c1.93,0,8.3,1.39,11.11,3.6,1.72,1.35,5.35,5.39,8.85,9.29,1.68,1.88,3.29,3.67,4.46,4.91,2.14-1.27,7.67-5,9.87-6.42A1,1,0,0,1,182,138l4.7,8a1,1,0,0,1-.15,1.2c-9.52,9.8-13.28,12.41-16.75,11.6-2.85-.66-6.31-3-10.08-6.71v9.74A1,1,0,0,1,158.72,162.88Zm-35.74-2h34.74V149.66a1,1,0,0,1,1.73-.68c4.12,4.45,8,7.27,10.8,7.92,2.5.59,6-2,14.34-10.5l-3.78-6.46c-2.32,1.55-8.43,5.61-9.83,6.31a1,1,0,0,1-1.17-.19c-1.22-1.25-3.08-3.33-5.05-5.52-3.29-3.67-7-7.81-8.59-9.06-2.34-1.83-8.15-3.17-9.88-3.17H134.41c-6.3,0-11.43,5.62-11.43,12.54Z" fill="#093f68"/><polygon points="139.34 128.64 142.66 153.61 146.15 128.64 139.34 128.64" fill="#f56132"/><path d="M142.66,154.51h0a.9.9,0,0,1-.89-.78l-3.32-25a.93.93,0,0,1,.22-.71.89.89,0,0,1,.67-.3h6.81a.89.89,0,0,1,.68.31.87.87,0,0,1,.21.71l-3.49,25A.9.9,0,0,1,142.66,154.51Zm-2.29-25L142.68,147l2.44-17.42Z" fill="#093f68"/><path d="M139.34,124.72h6.81a0,0,0,0,1,0,0v3.92a2.89,2.89,0,0,1-2.89,2.89h-1a2.89,2.89,0,0,1-2.89-2.89v-3.92A0,0,0,0,1,139.34,124.72Z" fill="#ffc9b0"/><path d="M143.26,132.53h-1a3.9,3.9,0,0,1-3.89-3.89v-3.92a1,1,0,0,1,1-1h6.81a1,1,0,0,1,1,1v3.92A3.89,3.89,0,0,1,143.26,132.53Zm-2.92-6.81v2.92a1.89,1.89,0,0,0,1.89,1.89h1a1.89,1.89,0,0,0,1.89-1.89v-2.92Z" fill="#093f68"/><ellipse cx="123.28" cy="107.03" rx="6.62" ry="5.7" fill="#ffc9b0"/><path d="M123.28,113.73c-4.2,0-7.61-3-7.61-6.7s3.41-6.7,7.61-6.7,7.62,3,7.62,6.7S127.48,113.73,123.28,113.73Zm0-11.4c-3.09,0-5.61,2.11-5.61,4.7s2.52,4.7,5.61,4.7,5.62-2.11,5.62-4.7S126.38,102.33,123.28,102.33Z" fill="#093f68"/><ellipse cx="161.86" cy="107.03" rx="6.62" ry="5.7" fill="#ffc9b0"/><path d="M161.86,113.73c-4.2,0-7.62-3-7.62-6.7s3.42-6.7,7.62-6.7,7.61,3,7.61,6.7S166.06,113.73,161.86,113.73Zm0-11.4c-3.1,0-5.62,2.11-5.62,4.7s2.52,4.7,5.62,4.7,5.61-2.11,5.61-4.7S165,102.33,161.86,102.33Z" fill="#093f68"/><path d="M154.88,90.12l-6.45-8.3-2.35,8.27-10.17,0-2.4-7.41-2.83,7.4-7.89,0v15.64a20,20,0,0,0,20,20h0a20,20,0,0,0,19.95-20V90.14Z" fill="#ffc9b0"/><path d="M142.75,126.61a21,21,0,0,1-21-21V90a1,1,0,0,1,1-1h0L130,89l2.57-6.75a1,1,0,0,1,1.89,0l2.17,6.72,8.7,0,2.13-7.55a1,1,0,0,1,.78-.71,1,1,0,0,1,1,.37l6.15,7.92,7.34,0a1,1,0,0,1,1,1v15.52A21,21,0,0,1,142.75,126.61ZM123.79,91v14.63a19,19,0,0,0,37.91,0V91.14l-6.82,0a1,1,0,0,1-.79-.39L148.85,84c-.5,1.77-1.26,4.44-1.81,6.37a1,1,0,0,1-1,.73h0l-10.18,0a1,1,0,0,1-1-.69l-1.52-4.71-1.81,4.74a1,1,0,0,1-.94.65h0Z" fill="#093f68"/><circle cx="133.51" cy="102.75" r="1.85" fill="#093f68"/><circle cx="152.57" cy="102.75" r="1.85" fill="#093f68"/><path d="M142.64,110a12.39,12.39,0,0,1-1.86-.15,1,1,0,0,1-.81-1.16,1,1,0,0,1,1.15-.81,9.73,9.73,0,0,0,2.23.09,15.76,15.76,0,0,0-1.49-3.82,1,1,0,0,1,.43-1.35,1,1,0,0,1,1.34.43c1,2,2.13,4.56,1.58,5.8a1.39,1.39,0,0,1-1,.8A6.81,6.81,0,0,1,142.64,110Z" fill="#093f68"/><path d="M137.28,98h0l-8.81,0a1.59,1.59,0,1,1,0-3.18h0l8.81,0a1.59,1.59,0,0,1,0,3.18Z" fill="#093f68"/><path d="M149.84,98.23a1.59,1.59,0,0,1-.08-3.17l8.8-.46a1.59,1.59,0,0,1,.17,3.18l-8.8.45Z" fill="#093f68"/><path d="M144,117.66c-4.3,0-8.84-2.33-9.12-2.47a1,1,0,0,1,.93-1.77c2.31,1.19,9,3.72,11.94,1.06a1,1,0,0,1,1.33,1.5A7.47,7.47,0,0,1,144,117.66Z" fill="#093f68"/><path d="M158.72,152.42a1,1,0,0,1-1-1v-9.74a1,1,0,0,1,2,0v9.74A1,1,0,0,1,158.72,152.42Z" fill="#093f68"/><path d="M129.44,162.35a1,1,0,0,1-1-1v-20.6a1,1,0,0,1,2,0v20.6A1,1,0,0,1,129.44,162.35Z" fill="#093f68"/><path d="M184.69,142.12a1,1,0,0,1-.68-.26,1,1,0,0,1,0-1.42l27.18-29.13a1,1,0,0,1,1.47,1.37l-27.19,29.13A1,1,0,0,1,184.69,142.12Z" fill="#093f68"/><path d="M188.11,133.08c.61.11,3.1.19,3.61.54a1.25,1.25,0,0,1,.49,1.59,1.7,1.7,0,0,1-1.38.6,15.93,15.93,0,0,1-4-.14,4.28,4.28,0,0,1-2.18,4.24" fill="#ffc9b0"/><path d="M184.69,140.91a1,1,0,0,1-.47-1.88,3.28,3.28,0,0,0,1.66-3.23,1,1,0,0,1,.3-.85,1,1,0,0,1,.85-.27,15,15,0,0,0,3.72.13c.5,0,.61-.13.62-.14s-.09-.14-.22-.23a16.49,16.49,0,0,0-2.19-.26l-1-.11a1,1,0,1,1,.34-2c.16,0,.48.05.85.08,1.82.15,2.66.27,3.15.61a2.25,2.25,0,0,1,.78,3,2.69,2.69,0,0,1-2.14,1.07,17.26,17.26,0,0,1-3,0,5.28,5.28,0,0,1-2.71,4A1,1,0,0,1,184.69,140.91Z" fill="#093f68"/><rect x="115.75" y="149.62" width="17.68" height="21.93" transform="translate(-30.18 28.85) rotate(-11.79)" fill="#ffbc0e"/><path d="M118.17,174.12a1,1,0,0,1-.54-.16,1,1,0,0,1-.43-.63l-4.48-21.47a1,1,0,0,1,.77-1.18l17.31-3.61a1,1,0,0,1,.75.14,1,1,0,0,1,.43.63l4.48,21.47a1,1,0,0,1-.78,1.18l-17.3,3.61A.75.75,0,0,1,118.17,174.12Zm-3.29-21.69L119,171.94l15.35-3.2-4.07-19.51Z" fill="#093f68"/><path d="M125.33,164.79a1.41,1.41,0,0,0-1.92-.49,1.41,1.41,0,0,0-1.43-2.42,1.4,1.4,0,1,0-1.43-2.41,1.4,1.4,0,0,0-1.42-2.42l-4.33,2.56a5.48,5.48,0,0,0-2.44,6.64,7.49,7.49,0,0,0,1.86,3.21,4.65,4.65,0,0,0,3.17.85c2.64-.21,5.24-2.29,7.45-3.59A1.41,1.41,0,0,0,125.33,164.79Z" fill="#ffc9b0"/><path d="M117,171.33a5.63,5.63,0,0,1-3.36-1.07,8,8,0,0,1-2.2-3.67,6.48,6.48,0,0,1,2.87-7.84l4.33-2.56a2.41,2.41,0,0,1,3.29.85,2.36,2.36,0,0,1,.32,1.44,2.36,2.36,0,0,1,1.11,1,2.4,2.4,0,0,1,.32,1.44,2.43,2.43,0,0,1,1.43,2.42,2.38,2.38,0,0,1,1.1,1h0a2.39,2.39,0,0,1-.85,3.29c-.46.27-.94.58-1.44.9-1.93,1.24-4.11,2.64-6.43,2.83Zm2.86-13.47a.54.54,0,0,0-.21,0l-4.32,2.56a4.51,4.51,0,0,0-2,5.45,6.33,6.33,0,0,0,1.52,2.74,3.69,3.69,0,0,0,2.49.66c1.82-.15,3.78-1.41,5.51-2.52.52-.33,1-.66,1.51-1a.37.37,0,0,0,.18-.24.41.41,0,0,0,0-.31h0a.4.4,0,0,0-.55-.14,1,1,0,0,1-1.37-.35,1,1,0,0,1-.14-.51,1,1,0,0,1,.49-.86.41.41,0,0,0,.19-.25.42.42,0,0,0-.29-.49.42.42,0,0,0-.31.05,1,1,0,0,1-1.37-.36,1,1,0,0,1,.35-1.37.39.39,0,0,0,.19-.24.46.46,0,0,0,0-.31.42.42,0,0,0-.56-.14,1,1,0,0,1-1.37-.35,1.06,1.06,0,0,1-.14-.51,1,1,0,0,1,.5-.86.41.41,0,0,0,.18-.25.38.38,0,0,0,0-.3A.41.41,0,0,0,119.84,157.86Z" fill="#093f68"/><polygon points="138.79 223.88 138.79 232.41 116.77 232.41 126.21 223.65 138.79 223.88" fill="#093f68"/><path d="M138.79,233.41h-22a1,1,0,0,1-.68-1.74l9.44-8.76a1,1,0,0,1,.7-.26l12.57.23a1,1,0,0,1,1,1v8.53A1,1,0,0,1,138.79,233.41Zm-19.47-2h18.47v-6.55l-11.2-.2Z" fill="#093f68"/><polygon points="143.52 223.88 143.52 232.41 165.54 232.41 156.1 223.65 143.52 223.88" fill="#093f68"/><path d="M165.54,233.41h-22a1,1,0,0,1-1-1v-8.53a1,1,0,0,1,1-1l12.58-.23a1,1,0,0,1,.7.26l9.44,8.76a1,1,0,0,1-.68,1.74Zm-21-2H163l-7.27-6.75-11.2.2Z" fill="#093f68"/><path d="M197.23,148.53a1,1,0,0,1-.29,0,1,1,0,0,1-.66-1.25c3.43-11.22,7.29-20.57,11.49-27.79,1.92-3.3,4.73-5.3,7.53-5.37,1.73,0,4.22.63,6.4,4a31.55,31.55,0,0,1,3.45,8.87c.29,1,.57,2.06.89,3.07.78,2.48,3.77,10.46,9.43,9.38,3.29-.64,5.05-4.37,6.35-7.94,2.4-6.64,5.52-13.91,12.18-16.2a23.58,23.58,0,0,1,4.64-.94,14.54,14.54,0,0,0,5.67-1.51c3.64-2.16,4.61-7.08,5.13-12.08a1,1,0,1,1,2,.2c-.57,5.52-1.7,11-6.1,13.6a16.49,16.49,0,0,1-6.43,1.77,21.77,21.77,0,0,0-4.25.85c-5.82,2-8.6,8.5-11,15-1.4,3.85-3.56,8.39-7.85,9.22-7.29,1.41-10.81-7.86-11.72-10.74-.32-1-.61-2.08-.91-3.13a29.67,29.67,0,0,0-3.2-8.33c-1.33-2.06-3-3.14-4.68-3.1-2.09,0-4.27,1.68-5.84,4.37-4.12,7.09-7.93,16.3-11.31,27.38A1,1,0,0,1,197.23,148.53Z" fill="#dfeaef"/><path d="M295.75,233.41H104.25a1,1,0,1,1,0-2h191.5a1,1,0,0,1,0,2Z" fill="#093f68"/><rect x="177.3" y="73.39" width="110.22" height="7.05" rx="1.49" fill="#ffbc0e"/><path d="M286,81.43H178.79a2.5,2.5,0,0,1-2.49-2.49V74.88a2.49,2.49,0,0,1,2.49-2.49H286a2.49,2.49,0,0,1,2.49,2.49v4.06A2.5,2.5,0,0,1,286,81.43Zm-107.24-7a.49.49,0,0,0-.49.49v4.06a.49.49,0,0,0,.49.49H286a.49.49,0,0,0,.49-.49V74.88a.49.49,0,0,0-.49-.49Z" fill="#093f68"/><path d="M232.41,177.09a1,1,0,0,1-1-1V169a1,1,0,0,1,2,0v7.09A1,1,0,0,1,232.41,177.09Z" fill="#093f68"/><circle cx="232.89" cy="179.32" r="3.23" fill="#ffbc0e"/><path d="M232.89,183.54a4.23,4.23,0,1,1,4.22-4.22A4.23,4.23,0,0,1,232.89,183.54Zm0-6.45a2.23,2.23,0,1,0,2.22,2.23A2.23,2.23,0,0,0,232.89,177.09Z" fill="#093f68"/><path d="M257.88,219.45s-6.52-13.28-5.61-22.25a16.59,16.59,0,0,1,7.76,9.36c3.85,10.69,3,12.9,3,12.9Z" fill="#70cc40"/><path d="M263,220.46h-5.13a1,1,0,0,1-.89-.56c-.27-.55-6.63-13.64-5.71-22.79a1,1,0,0,1,1.41-.81,17.51,17.51,0,0,1,8.29,9.93c3.79,10.52,3.12,13.18,2.95,13.61A1,1,0,0,1,263,220.46Zm-4.49-2h3.59c0-1.21-.43-4.41-3-11.56a16.58,16.58,0,0,0-5.91-8C253.15,206.35,257.4,216,258.51,218.45Z" fill="#093f68"/><path d="M261,218.81s-4.89-18.93,2.14-31.61c0,0,4.05,4.64,5,15.84a28.32,28.32,0,0,1-2.93,15.49Z" fill="#70cc40"/><path d="M261,219.81a1,1,0,0,1-1-.75c-.2-.79-4.9-19.47,2.24-32.34a1,1,0,0,1,.77-.51,1,1,0,0,1,.85.34c.18.2,4.28,5,5.27,16.41A29.15,29.15,0,0,1,266.07,219a1,1,0,0,1-.8.49l-4.23.29Zm2.26-30.64c-4.93,10.63-2.25,25.05-1.48,28.58l2.83-.18a28.2,28.2,0,0,0,2.55-14.44C266.49,195.67,264.43,191.2,263.23,189.17Z" fill="#093f68"/><path d="M263.08,218.21s1.52-12.63,11.73-20.88c0,0,3,9.41-5.43,22Z" fill="#70cc40"/><path d="M269.38,220.33a.52.52,0,0,1-.17,0l-6.3-1.11a1,1,0,0,1-.82-1.1c.07-.54,1.68-13.14,12.1-21.55a1,1,0,0,1,.91-.18,1,1,0,0,1,.67.66c.12.4,3.06,10-5.56,22.86A1,1,0,0,1,269.38,220.33Zm-5.15-2.93,4.68.83c5.75-8.86,5.67-16,5.26-19C267,205.74,264.78,214.55,264.23,217.4Z" fill="#093f68"/><polygon points="270.08 232.41 257.23 232.41 255.32 216.76 271.98 216.76 270.08 232.41" fill="#68e1fd"/><path d="M270.08,233.41H257.23a1,1,0,0,1-1-.88l-1.9-15.65a1,1,0,0,1,.24-.78,1,1,0,0,1,.75-.34H272a1,1,0,0,1,1,1.12l-1.91,15.65A1,1,0,0,1,270.08,233.41Zm-12-2h11.08l1.66-13.65h-14.4Z" fill="#093f68"/></g></svg>