<svg xmlns="http://www.w3.org/2000/svg" viewBox="0 0 400 300"><g id="_318_princess_outline" data-name="#318_princess_outline"><path d="M197.85,64.49s-19.86-.19-23,16.3-.18,31.65-2.06,35.87-8.61,8.57-8.61,8.57,6.85,13.2,36.11,14.26,35.63-14.26,35.63-14.26-9.36-4.35-9.55-11.66,2.44-28.47-2.81-36.72S211,64.12,197.85,64.49Z" fill="#725858"/><path d="M203.13,140.54c-.95,0-1.92,0-2.92,0-29.51-1.07-36.68-14.24-37-14.8a1,1,0,0,1,.34-1.3c.07,0,6.52-4.24,8.25-8.14.71-1.59.62-5.39.51-10.19-.15-6.71-.36-15.9,1.48-25.46,1.37-7.1,6-12.32,13.35-15.08a32.15,32.15,0,0,1,10.66-2c12.47-.35,20.65,3.6,26.52,12.83,4.2,6.6,3.57,20.87,3.16,30.32-.13,2.82-.23,5.25-.19,6.91.17,6.59,8.89,10.74,9,10.78a1,1,0,0,1,.5,1.29C236.54,126.25,230.27,140.54,203.13,140.54Zm-37.63-15c2,2.72,10.57,12.1,34.78,13s32.39-9.77,34.23-12.83c-2.49-1.38-9-5.59-9.19-12.06,0-1.73.06-4.19.19-7,.41-9.19,1-23.09-2.84-29.16-5.53-8.68-12.93-12.24-24.8-11.9h0a31.45,31.45,0,0,0-10,1.92C181.08,70,177,74.52,175.79,81c-1.81,9.35-1.6,18.41-1.45,25,.12,5.25.21,9-.68,11C172.07,120.63,167.42,124.16,165.5,125.51Z" fill="#093f68"/><rect x="218.21" y="147.39" width="10.73" height="33.07" transform="translate(447.15 327.85) rotate(-180)" fill="#ffc9b0"/><path d="M228.94,181.46H218.21a1,1,0,0,1-1-1V147.39a1,1,0,0,1,1-1h10.73a1,1,0,0,1,1,1v33.07A1,1,0,0,1,228.94,181.46Zm-9.73-2h8.73V148.39h-8.73Z" fill="#093f68"/><circle cx="224.55" cy="135.88" r="10.05" fill="#68e1fd"/><path d="M224.54,146.93a11,11,0,1,1,11.05-11.05A11.05,11.05,0,0,1,224.54,146.93Zm0-20.09a9,9,0,1,0,9.05,9A9.06,9.06,0,0,0,224.54,126.84Z" fill="#093f68"/><rect x="218.21" y="143.5" width="13.42" height="4.87" transform="translate(449.84 291.86) rotate(-180)" fill="#fff"/><path d="M231.63,149.37H218.21a1,1,0,0,1-1-1V143.5a1,1,0,0,1,1-1h13.42a1,1,0,0,1,1,1v4.87A1,1,0,0,1,231.63,149.37Zm-12.42-2h11.42V144.5H219.21Z" fill="#093f68"/><rect x="171.06" y="147.39" width="10.73" height="33.07" fill="#ffc9b0"/><path d="M181.79,181.46H171.06a1,1,0,0,1-1-1V147.39a1,1,0,0,1,1-1h10.73a1,1,0,0,1,1,1v33.07A1,1,0,0,1,181.79,181.46Zm-9.73-2h8.73V148.39h-8.73Z" fill="#093f68"/><circle cx="175.45" cy="135.88" r="10.05" fill="#68e1fd"/><path d="M175.45,146.93a11,11,0,1,1,11.05-11.05A11.05,11.05,0,0,1,175.45,146.93Zm0-20.09a9,9,0,1,0,9.05,9A9.06,9.06,0,0,0,175.45,126.84Z" fill="#093f68"/><rect x="168.37" y="143.5" width="13.42" height="4.87" fill="#fff"/><path d="M181.79,149.37H168.37a1,1,0,0,1-1-1V143.5a1,1,0,0,1,1-1h13.42a1,1,0,0,1,1,1v4.87A1,1,0,0,1,181.79,149.37Zm-12.42-2h11.42V144.5H169.37Z" fill="#093f68"/><path d="M256.43,239.13S237,248.61,200,248.61s-56.43-9.48-56.43-9.48c1.62-12.84,4.36-26.78,8.12-37.3,9.68-27,26.17-44.81,48.11-44.92h.4c21.94.12,38.44,17.89,48.12,44.92C252.08,212.35,254.81,226.29,256.43,239.13Z" fill="#68e1fd"/><path d="M200,249.61a176.35,176.35,0,0,1-42.33-4.77A80.2,80.2,0,0,1,143.13,240a1,1,0,0,1-.55-1c1.85-14.63,4.75-27.95,8.17-37.51,10.48-29.29,27.9-45.48,49.05-45.58h.4c21.16.11,38.58,16.3,49.06,45.58,3.42,9.58,6.32,22.9,8.16,37.51a1,1,0,0,1-.55,1C256.67,240.12,236.79,249.61,200,249.61Zm-55.35-11.09c3.66,1.58,22.73,9.09,55.35,9.09s51.69-7.51,55.35-9.09c-1.83-14.19-4.65-27.07-8-36.35C237.2,173.73,220.44,158,200.2,157.91h-.4c-20.24.1-37,15.82-47.17,44.26C149.32,211.43,146.49,224.32,144.65,238.52Z" fill="#093f68"/><path d="M200.2,156.91c0,.84-.11,1.69-.2,2.53a56.42,56.42,0,0,1-3.56,14.89c-8.41,21.72-28.09,33.6-44.75,27.5,9.68-27,26.17-44.81,48.11-44.92Z" fill="#68e1fd"/><path d="M160.7,204.42a27.08,27.08,0,0,1-9.36-1.65,1,1,0,0,1-.59-1.28c10.48-29.29,27.9-45.48,49.05-45.58h.4a1,1,0,0,1,.73.32,1,1,0,0,1,.27.75c0,.85-.11,1.71-.2,2.56a57.23,57.23,0,0,1-3.63,15.15C190.34,192.85,175.4,204.42,160.7,204.42ZM153,201.21c16,5.16,34.55-6.61,42.53-27.24A54.89,54.89,0,0,0,199,159.34c.05-.47.09-1,.12-1.42C179.42,158.35,163.07,173.69,153,201.21Z" fill="#093f68"/><path d="M248.32,201.83c-16.67,6.1-36.34-5.78-44.76-27.5A56.42,56.42,0,0,1,200,159.44c-.08-.84-.15-1.69-.2-2.53h.4C222.14,157,238.64,174.8,248.32,201.83Z" fill="#68e1fd"/><path d="M239.31,204.42c-14.7,0-29.64-11.57-36.68-29.73A57.21,57.21,0,0,1,199,159.53c-.09-.83-.16-1.7-.2-2.56a1,1,0,0,1,.27-.74,1,1,0,0,1,.72-.32h.4c21.16.11,38.58,16.3,49.06,45.58a1,1,0,0,1-.6,1.28A27,27,0,0,1,239.31,204.42Zm-38.44-46.5c0,.47.08.94.13,1.41A55,55,0,0,0,204.5,174c8,20.63,26.51,32.4,42.53,27.24C236.94,173.7,220.59,158.36,200.87,157.92Z" fill="#093f68"/><rect x="181.83" y="128.24" width="36.33" height="33.28" fill="#68e1fd"/><path d="M218.17,162.53H181.83a1,1,0,0,1-1-1V128.24a1,1,0,0,1,1-1h36.34a1,1,0,0,1,1,1v33.29A1,1,0,0,1,218.17,162.53Zm-35.34-2h34.34V129.24H182.83Z" fill="#093f68"/><path d="M188.42,128.24h23.16a0,0,0,0,1,0,0v2.35A11.58,11.58,0,0,1,200,142.17h0a11.58,11.58,0,0,1-11.58-11.58v-2.35a0,0,0,0,1,0,0Z" fill="#ffc9b0"/><path d="M200,143.17a12.59,12.59,0,0,1-12.58-12.58v-2.35a1,1,0,0,1,1-1h23.16a1,1,0,0,1,1,1v2.35A12.59,12.59,0,0,1,200,143.17Zm-10.58-13.93v1.35a10.58,10.58,0,0,0,21.16,0v-1.35Z" fill="#093f68"/><path d="M199.86,150c-4.83,0-8.61-6.93-8.61-15.77,0-3.52.61-5.77,1.94-7.08,1.53-1.51,3.64-1.5,5.86-1.47h1.63c2.24,0,4.33,0,5.86,1.47,1.33,1.31,1.94,3.56,1.94,7.08C208.48,143.09,204.7,150,199.86,150Zm-1.61-22.33c-1.59,0-2.85.1-3.66.9s-1.34,2.75-1.34,5.66c0,7.46,3,13.77,6.61,13.77s6.62-6.31,6.62-13.77c0-2.91-.44-4.76-1.34-5.66s-2.49-.91-4.44-.89h-2.45Z" fill="#093f68"/><polyline points="196.37 131.98 196.37 125.75 203.63 125.75 203.63 131.98" fill="#ffc9b0"/><path d="M203.63,133a1,1,0,0,1-1-1v-5.23h-5.26V132a1,1,0,1,1-2,0v-6.23a1,1,0,0,1,1-1h7.26a1,1,0,0,1,1,1V132A1,1,0,0,1,203.63,133Z" fill="#093f68"/><ellipse cx="179.42" cy="106.87" rx="7.06" ry="6.08" fill="#ffc9b0"/><path d="M179.42,114c-4.45,0-8.06-3.18-8.06-7.09s3.61-7.08,8.06-7.08,8.06,3.17,8.06,7.08S183.86,114,179.42,114Zm0-12.17c-3.35,0-6.06,2.28-6.06,5.08s2.71,5.09,6.06,5.09,6.06-2.29,6.06-5.09S182.76,101.79,179.42,101.79Z" fill="#093f68"/><ellipse cx="220.58" cy="106.87" rx="7.06" ry="6.08" fill="#ffc9b0"/><path d="M220.58,114c-4.44,0-8.06-3.18-8.06-7.09s3.62-7.08,8.06-7.08,8.06,3.17,8.06,7.08S225,114,220.58,114Zm0-12.17c-3.34,0-6.06,2.28-6.06,5.08s2.72,5.09,6.06,5.09,6.06-2.29,6.06-5.09S223.93,101.79,220.58,101.79Z" fill="#093f68"/><path d="M199.77,79.65C188.14,91.8,178.7,93.06,178.7,93.06v12.35A21.3,21.3,0,0,0,200,126.7h0a21.3,21.3,0,0,0,21.3-21.29V93.19A35.67,35.67,0,0,1,199.77,79.65Z" fill="#ffc9b0"/><path d="M200,127.7a22.32,22.32,0,0,1-22.3-22.29V93.07a1,1,0,0,1,.87-1c.09,0,9.28-1.41,20.48-13.11a1,1,0,0,1,.78-.3,1,1,0,0,1,.73.38A34.89,34.89,0,0,0,221.43,92.2a1,1,0,0,1,.87,1v12.22A22.32,22.32,0,0,1,200,127.7ZM179.7,93.89v11.52a20.3,20.3,0,0,0,40.6,0V94a36.86,36.86,0,0,1-20.6-12.86C190.2,90.78,182.27,93.29,179.7,93.89Z" fill="#093f68"/><circle cx="189.38" cy="104.02" r="2.01" fill="#093f68"/><circle cx="210.16" cy="104.02" r="2.01" fill="#093f68"/><path d="M199.75,111.79a11.81,11.81,0,0,1-2-.17,1,1,0,0,1-.81-1.15,1,1,0,0,1,1.15-.82,9.38,9.38,0,0,0,2.55.09,16.22,16.22,0,0,0-1.65-4.28,1,1,0,0,1,.43-1.35,1,1,0,0,1,1.34.42c.91,1.74,2.34,4.87,1.72,6.25a1.43,1.43,0,0,1-1,.83A7.24,7.24,0,0,1,199.75,111.79Z" fill="#093f68"/><path d="M199.77,118.92a6.38,6.38,0,0,1-6.38-6.38,1,1,0,0,1,2,0,4.38,4.38,0,1,0,8.76,0,1,1,0,1,1,2,0A6.38,6.38,0,0,1,199.77,118.92Z" fill="#093f68"/><path d="M192.82,99.19h-9.35a1.59,1.59,0,1,1,0-3.18h9.35a1.59,1.59,0,1,1,0,3.18Z" fill="#093f68"/><path d="M216.08,99.19h-9.35a1.59,1.59,0,1,1,0-3.18h9.35a1.59,1.59,0,0,1,0,3.18Z" fill="#093f68"/><path d="M190,68.84l-1.94-20,6.58,10.43,5.08-9.68,6.48,10.05,5.68-10.8-2.6,20S202.15,73.31,190,68.84Z" fill="#ffbc0e"/><path d="M200.44,71.83a30.93,30.93,0,0,1-10.75-2,1,1,0,0,1-.65-.84l-1.95-20a1,1,0,0,1,1.85-.63l5.65,9,4.28-8.15a1,1,0,0,1,.84-.53,1,1,0,0,1,.88.46l5.55,8.61L211,48.37a1,1,0,0,1,1.18-.49A1,1,0,0,1,212.9,49l-2.6,20a1,1,0,0,1-.47.72C209.63,69.82,206.29,71.83,200.44,71.83ZM191,68.11c9.56,3.34,15.82.86,17.41.09l1.82-14-3.08,5.85a1,1,0,0,1-.84.54,1,1,0,0,1-.89-.46l-5.55-8.61-4.29,8.16a1,1,0,0,1-.85.54,1,1,0,0,1-.88-.47l-4.33-6.86Z" fill="#093f68"/><ellipse cx="200" cy="149.02" rx="3.09" ry="4.81" fill="#f56132"/><path d="M200,154.83c-2.29,0-4.09-2.55-4.09-5.81s1.8-5.81,4.09-5.81,4.09,2.55,4.09,5.81S202.29,154.83,200,154.83Zm0-9.62c-1,0-2.09,1.57-2.09,3.81s1.1,3.81,2.09,3.81,2.09-1.57,2.09-3.81S201,145.21,200,145.21Z" fill="#093f68"/></g></svg>