<svg xmlns="http://www.w3.org/2000/svg" viewBox="0 0 400 300"><g id="_472_profiling_outline" data-name="#472_profiling_outline"><rect x="124.2" y="74.14" width="135.23" height="164.26" fill="#68e1fd"/><path d="M259.43,239.4H124.2a1,1,0,0,1-1-1V74.14a1,1,0,0,1,1-1H259.43a1,1,0,0,1,1,1V238.4A1,1,0,0,1,259.43,239.4Zm-134.23-2H258.43V75.14H125.2Z" fill="#093f68"/><rect x="140.57" y="61.6" width="135.23" height="164.26" fill="#fff"/><path d="M275.8,226.86H140.57a1,1,0,0,1-1-1V61.6a1,1,0,0,1,1-1H275.8a1,1,0,0,1,1,1V225.86A1,1,0,0,1,275.8,226.86Zm-134.23-2H274.8V62.6H141.57Z" fill="#093f68"/><rect x="153.85" y="77.56" width="58.91" height="60.64" fill="#68e1fd"/><path d="M212.75,139.2h-58.9a1,1,0,0,1-1-1V77.56a1,1,0,0,1,1-1h58.9a1,1,0,0,1,1,1V138.2A1,1,0,0,1,212.75,139.2Zm-57.9-2h56.9V78.56h-56.9Z" fill="#093f68"/><path d="M198.35,132.35v5.85h-30v-5.85a10.16,10.16,0,0,1,10.15-10.16h9.7A10.15,10.15,0,0,1,198.35,132.35Z" fill="#fff"/><path d="M198.35,139.2h-30a1,1,0,0,1-1-1v-5.85a11.17,11.17,0,0,1,11.15-11.16h9.7a11.17,11.17,0,0,1,11.14,11.16v5.85A1,1,0,0,1,198.35,139.2Zm-29-2h28v-4.85a9.16,9.16,0,0,0-9.14-9.16h-9.7a9.16,9.16,0,0,0-9.15,9.16Z" fill="#093f68"/><polygon points="180.94 123.19 183.7 136.39 186.04 123.19 180.94 123.19" fill="#093f68"/><path d="M183.7,137.39a1,1,0,0,1-1-.8L180,123.4a1,1,0,0,1,1-1.21H186a1,1,0,0,1,.77.36,1,1,0,0,1,.22.82l-2.35,13.19a1,1,0,0,1-1,.83Zm-1.53-13.2,1.45,6.93,1.23-6.93Z" fill="#093f68"/><path d="M182.08,80.86a12.07,12.07,0,0,1,1.9-.15c2.93,0,5.92-.08,8.6,1.23a16.27,16.27,0,0,1,9.06,14.5l-.62,12H165.87a7.34,7.34,0,0,1,.15-2.24,9.65,9.65,0,0,0-.35-2.32,31.39,31.39,0,0,1-.7-6,23.11,23.11,0,0,1,1.92-9.16A10.15,10.15,0,0,1,170,84.15c1.54-1.08,4-1.12,5.06.41A12.21,12.21,0,0,1,182.08,80.86Z" fill="#725858"/><path d="M201,109.45H165.87a1,1,0,0,1-1-.72,4.41,4.41,0,0,1,0-1.92,5.45,5.45,0,0,0,.09-.64,6,6,0,0,0-.22-1.56c0-.17-.08-.35-.11-.53A32.79,32.79,0,0,1,164,98a24,24,0,0,1,2-9.56,11,11,0,0,1,3.43-5.06,5,5,0,0,1,5.64-.18,13.29,13.29,0,0,1,6.89-3.28h0a10.07,10.07,0,0,1,2-.16h.52c2.85,0,5.8,0,8.52,1.33a17.26,17.26,0,0,1,9.62,15.4s0,0-.62,12.06A1,1,0,0,1,201,109.45Zm-34.17-2h33.22c.14-2.82.56-11,.57-11.06a15.22,15.22,0,0,0-8.5-13.55c-2.31-1.13-4.9-1.13-7.64-1.13H184a14.71,14.71,0,0,0-1.74.13h0a11.14,11.14,0,0,0-6.46,3.4,1,1,0,0,1-.8.32,1,1,0,0,1-.75-.42c-.75-1-2.56-1-3.67-.17a9.14,9.14,0,0,0-2.74,4.18A22,22,0,0,0,166,97.92a30.72,30.72,0,0,0,.68,5.77c0,.16.07.32.1.49a7.51,7.51,0,0,1,.27,2.07c0,.29-.07.59-.12.9C166.88,107.25,166.87,107.35,166.85,107.45Z" fill="#093f68"/><path d="M180.94,120.26H186a0,0,0,0,1,0,0v2.94a2.17,2.17,0,0,1-2.17,2.17h-.77a2.17,2.17,0,0,1-2.17-2.17v-2.94A0,0,0,0,1,180.94,120.26Z" fill="#ffc9b0"/><path d="M183.88,126.36h-.77a3.17,3.17,0,0,1-3.17-3.17v-2.93a1,1,0,0,1,1-1H186a1,1,0,0,1,1,1v2.93A3.17,3.17,0,0,1,183.88,126.36Zm-1.94-5.1v1.93a1.17,1.17,0,0,0,1.17,1.17h.77a1.16,1.16,0,0,0,1.16-1.17v-1.93Z" fill="#093f68"/><ellipse cx="169.75" cy="107" rx="4.67" ry="4.27" fill="#ffc9b0"/><path d="M169.75,112.27a5.28,5.28,0,1,1,5.67-5.27A5.49,5.49,0,0,1,169.75,112.27Zm0-8.54a3.29,3.29,0,1,0,3.67,3.27A3.5,3.5,0,0,0,169.75,103.73Z" fill="#093f68"/><ellipse cx="196.97" cy="107" rx="4.67" ry="4.27" fill="#ffc9b0"/><path d="M197,112.27a5.28,5.28,0,1,1,5.67-5.27A5.48,5.48,0,0,1,197,112.27Zm0-8.54a3.29,3.29,0,1,0,3.67,3.27A3.49,3.49,0,0,0,197,103.73Z" fill="#093f68"/><path d="M183.49,120.93h0a15,15,0,0,1-15-15v-8s3.76-2.15,4.88-5.53c0,0,5.75,6.54,11.29,6.09a128.58,128.58,0,0,0,13.73-1.91V106A15,15,0,0,1,183.49,120.93Z" fill="#ffc9b0"/><path d="M183.49,121.93a16,16,0,0,1-16-16v-8a1,1,0,0,1,.5-.86s3.45-2,4.43-5a1,1,0,0,1,1.7-.35c.06.06,5.48,6.16,10.46,5.76a129,129,0,0,0,13.61-1.9,1,1,0,0,1,1.2,1V106A16,16,0,0,1,183.49,121.93Zm-14-23.45V106a14,14,0,1,0,27.9,0V97.78c-2.23.41-7.3,1.27-12.65,1.7-4.55.35-9.06-3.4-11.06-5.33A13.72,13.72,0,0,1,169.54,98.48Z" fill="#093f68"/><path d="M183.41,109.45a8.76,8.76,0,0,1-1.44-.12,1,1,0,1,1,.35-2,7.08,7.08,0,0,0,1.32.09,13.13,13.13,0,0,0-1-2.52,1,1,0,1,1,1.78-.92c1.15,2.21,1.55,3.75,1.18,4.56a1.28,1.28,0,0,1-.88.75A5.42,5.42,0,0,1,183.41,109.45Z" fill="#093f68"/><path d="M174.9,139.2a1,1,0,0,1-1-1v-5a1,1,0,0,1,2,0v5A1,1,0,0,1,174.9,139.2Z" fill="#093f68"/><path d="M191.82,139.2a1,1,0,0,1-1-1v-5a1,1,0,0,1,2,0v5A1,1,0,0,1,191.82,139.2Z" fill="#093f68"/><path d="M258,89.3H225.7a1,1,0,0,1,0-2H258a1,1,0,0,1,0,2Z" fill="#dfeaef"/><path d="M258,103.73H225.7a1,1,0,0,1,0-2H258a1,1,0,0,1,0,2Z" fill="#dfeaef"/><path d="M258,118.16H225.7a1,1,0,0,1,0-2H258a1,1,0,0,1,0,2Z" fill="#dfeaef"/><path d="M246.78,132.59H225.7a1,1,0,0,1,0-2h21.08a1,1,0,0,1,0,2Z" fill="#dfeaef"/><path d="M161.19,152.62a7.17,7.17,0,0,0-7.16,7.16c0,3.95,7.16,13,7.16,13s7.17-9.05,7.17-13A7.17,7.17,0,0,0,161.19,152.62Zm0,10a3.17,3.17,0,1,1,3.18-3.17A3.16,3.16,0,0,1,161.19,162.61Z" fill="#68e1fd"/><path d="M161.19,173.78h0a1,1,0,0,1-.78-.37c-.76-1-7.38-9.45-7.38-13.63a8.17,8.17,0,0,1,16.33,0c0,4.18-6.63,12.67-7.38,13.63A1,1,0,0,1,161.19,173.78Zm0-20.16a6.18,6.18,0,0,0-6.16,6.16c0,2.61,3.92,8.38,6.16,11.36,2.25-3,6.17-8.75,6.17-11.36A6.18,6.18,0,0,0,161.19,153.62Zm0,10a4.17,4.17,0,1,1,4.18-4.17A4.17,4.17,0,0,1,161.19,163.61Zm0-6.34a2.17,2.17,0,1,0,2.18,2.17A2.17,2.17,0,0,0,161.19,157.27Z" fill="#093f68"/><path d="M162,186.88l2.65,5.36,5.92.86a.93.93,0,0,1,.51,1.59l-4.28,4.17,1,5.9a.93.93,0,0,1-1.35,1l-5.3-2.78-5.29,2.78a.93.93,0,0,1-1.35-1l1-5.9-4.28-4.17a.93.93,0,0,1,.51-1.59l5.92-.86,2.65-5.36A.93.93,0,0,1,162,186.88Z" fill="#68e1fd"/><path d="M166.92,206.85a1.89,1.89,0,0,1-.89-.22l-4.84-2.54-4.83,2.54a1.93,1.93,0,0,1-2-.15,1.91,1.91,0,0,1-.76-1.89l.92-5.38-3.91-3.81a1.9,1.9,0,0,1-.49-2,1.93,1.93,0,0,1,1.56-1.32l5.4-.78,2.41-4.9a1.93,1.93,0,0,1,1.73-1.07h0a1.91,1.91,0,0,1,1.72,1.07l2.42,4.9,5.4.78a1.93,1.93,0,0,1,1.56,1.32,1.9,1.9,0,0,1-.49,2l-3.91,3.81.92,5.38a1.92,1.92,0,0,1-1.9,2.26ZM161.19,202a1,1,0,0,1,.47.11l5.17,2.72-1-5.76a1,1,0,0,1,.29-.88l4.18-4.08-5.78-.84a1,1,0,0,1-.75-.54l-2.61-5.28-2.56,5.28a1,1,0,0,1-.75.54l-5.78.84,4.18,4.08a1,1,0,0,1,.29.88l-1,5.76,5.17-2.72A.92.92,0,0,1,161.19,202Zm.84-15.08-.9.44h0Z" fill="#093f68"/><path d="M212.75,174.7a1,1,0,0,1-1-1V153.75a1,1,0,0,1,2,0V173.7A1,1,0,0,1,212.75,174.7Z" fill="#093f68"/><polygon points="230.68 165.25 212.75 165.25 212.75 155.59 230.68 155.59 226.9 160.42 230.68 165.25" fill="#68e1fd"/><path d="M230.68,166.26H212.75a1,1,0,0,1-1-1v-9.67a1,1,0,0,1,1-1h17.93a1,1,0,0,1,.89.56,1,1,0,0,1-.11,1.06l-3.29,4.21,3.29,4.22a1,1,0,0,1-.78,1.62Zm-16.93-2h14.87L226.11,161a1,1,0,0,1,0-1.23l2.51-3.22H213.75Z" fill="#093f68"/><rect x="211.14" y="192.05" width="21.41" height="13.61" fill="#68e1fd"/><path d="M232.55,206.66H211.14a1,1,0,0,1-1-1V192.05a1,1,0,0,1,1-1h21.41a1,1,0,0,1,1,1v13.61A1,1,0,0,1,232.55,206.66Zm-20.41-2h19.41V193.05H212.14Z" fill="#093f68"/><path d="M211.71,192.05h20.84a0,0,0,0,1,0,0v1.27a4.18,4.18,0,0,1-4.18,4.18H215.89a4.18,4.18,0,0,1-4.18-4.18v-1.27a0,0,0,0,1,0,0Z" fill="#68e1fd"/><path d="M228.37,198.5H215.89a5.18,5.18,0,0,1-5.18-5.18v-1.27a1,1,0,0,1,1-1h20.84a1,1,0,0,1,1,1v1.27A5.18,5.18,0,0,1,228.37,198.5Zm-15.66-5.45v.27a3.18,3.18,0,0,0,3.18,3.18h12.48a3.18,3.18,0,0,0,3.18-3.18v-.27Z" fill="#093f68"/><path d="M226.57,193.05h-8.28a1,1,0,0,1-1-1v-1.84a3.17,3.17,0,0,1,3.17-3.16h3.95a3.16,3.16,0,0,1,3.16,3.16v1.84A1,1,0,0,1,226.57,193.05Zm-7.28-2h6.28v-.84a1.16,1.16,0,0,0-1.16-1.16h-3.95a1.17,1.17,0,0,0-1.17,1.16Z" fill="#093f68"/><path d="M197,160.44H178.6a1,1,0,1,1,0-2H197a1,1,0,0,1,0,2Z" fill="#dfeaef"/><path d="M260.23,160.44H241.86a1,1,0,0,1,0-2h18.37a1,1,0,0,1,0,2Z" fill="#dfeaef"/><path d="M191.82,167.85H178.6a1,1,0,0,1,0-2h13.22a1,1,0,0,1,0,2Z" fill="#dfeaef"/><path d="M253.37,167.85H241.86a1,1,0,0,1,0-2h11.51a1,1,0,0,1,0,2Z" fill="#dfeaef"/><path d="M197,194.8H178.6a1,1,0,1,1,0-2H197a1,1,0,0,1,0,2Z" fill="#dfeaef"/><path d="M260.23,194.8H241.86a1,1,0,0,1,0-2h18.37a1,1,0,0,1,0,2Z" fill="#dfeaef"/><path d="M191.82,202.21H178.6a1,1,0,0,1,0-2h13.22a1,1,0,0,1,0,2Z" fill="#dfeaef"/><path d="M253.37,202.21H241.86a1,1,0,0,1,0-2h11.51a1,1,0,0,1,0,2Z" fill="#dfeaef"/></g></svg>