<svg xmlns="http://www.w3.org/2000/svg" viewBox="0 0 400 300"><g id="_95_profile_analysis_outline" data-name="#95_profile_analysis_outline"><path d="M99.62,93.52H301.34a0,0,0,0,1,0,0V215.58a8,8,0,0,1-8,8H107.62a8,8,0,0,1-8-8V93.52A0,0,0,0,1,99.62,93.52Z" fill="#fff"/><path d="M293.34,224.58H107.62a9,9,0,0,1-9-9V93.52a1,1,0,0,1,1-1H301.34a1,1,0,0,1,1,1V215.58A9,9,0,0,1,293.34,224.58ZM100.62,94.52V215.58a7,7,0,0,0,7,7H293.34a7,7,0,0,0,7-7V94.52Z" fill="#093f68"/><path d="M107.62,76.42H293.34a8,8,0,0,1,8,8v9.1a0,0,0,0,1,0,0H99.62a0,0,0,0,1,0,0v-9.1A8,8,0,0,1,107.62,76.42Z" fill="#fff"/><path d="M301.34,94.52H99.62a1,1,0,0,1-1-1v-9.1a9,9,0,0,1,9-9H293.34a9,9,0,0,1,9,9v9.1A1,1,0,0,1,301.34,94.52Zm-200.72-2H300.34v-8.1a7,7,0,0,0-7-7H107.62a7,7,0,0,0-7,7Z" fill="#093f68"/><path d="M191.45,223.58v-32a19.2,19.2,0,0,0-19.2-19.2H142a19.2,19.2,0,0,0-19.2,19.2v32Z" fill="#68e1fd"/><path d="M191.45,224.58H122.76a1,1,0,0,1-1-1v-32a20.23,20.23,0,0,1,20.2-20.2h30.29a20.23,20.23,0,0,1,20.2,20.2v32A1,1,0,0,1,191.45,224.58Zm-67.69-2h66.69v-31a18.22,18.22,0,0,0-18.2-18.2H142a18.22,18.22,0,0,0-18.2,18.2Z" fill="#093f68"/><polygon points="169.62 172.37 157.33 218.91 144.77 172.37 169.62 172.37" fill="#fff"/><path d="M157.33,219.92a1,1,0,0,1-1-.74L143.8,172.63a1,1,0,0,1,.17-.86,1,1,0,0,1,.8-.4h24.85a1,1,0,0,1,1,1.26l-12.3,46.54a1,1,0,0,1-1,.75Zm-11.26-46.55L157.32,215l11-41.67Z" fill="#093f68"/><path d="M153,168.72h9.61a0,0,0,0,1,0,0v5.53a4.08,4.08,0,0,1-4.08,4.08h-1.45a4.08,4.08,0,0,1-4.08-4.08v-5.53A0,0,0,0,1,153,168.72Z" fill="#ffc9b0"/><path d="M158.53,179.33h-1.45a5.09,5.09,0,0,1-5.08-5.08v-5.53a1,1,0,0,1,1-1h9.61a1,1,0,0,1,1,1v5.53A5.09,5.09,0,0,1,158.53,179.33ZM154,169.72v4.53a3.08,3.08,0,0,0,3.08,3.08h1.45a3.08,3.08,0,0,0,3.08-3.08v-4.53Z" fill="#093f68"/><path d="M124.62,142.05c-4.46-1.68-4.19-5.09-4.86-9.47a110.23,110.23,0,0,1-1.23-13.08c-.17-5,0-10.1,1.9-14.71,2.42-5.94,7.21-9.77,13.63-9.24-.19-8.75,5.06-14.14,14.36-14.64,14.9-.79,23.46,12.39,31.81,11.2s10.56-4.9,10.56-4.9A15.31,15.31,0,0,1,189,104.08s6.56-1.92,7.36,6.82-4.43,32-4.43,32l-6-1c-2.5-.44-5.63.18-8.15.25l-18.63.59C149.87,143,134.76,145.89,124.62,142.05Z" fill="#725858"/><path d="M138.05,145a39.76,39.76,0,0,1-13.78-2h0c-4.39-1.66-4.81-5-5.25-8.47-.08-.58-.15-1.17-.25-1.79a112.46,112.46,0,0,1-1.24-13.2c-.16-4.69-.06-10.15,2-15.12,2.58-6.32,7.61-10,13.56-9.91.25-8.66,5.9-14.08,15.31-14.59,8.58-.45,15.26,3.64,20.61,6.92,4.17,2.56,7.75,4.76,11.1,4.29,7.67-1.1,9.83-4.4,9.85-4.43a1,1,0,0,1,.87-.47,1,1,0,0,1,.85.49,16.48,16.48,0,0,1-.59,16.21,6.22,6.22,0,0,1,3,1c1.88,1.28,3,3.58,3.27,6.85.8,8.8-4.23,31.32-4.45,32.27a1,1,0,0,1-1.15.77l-5.95-1a21.37,21.37,0,0,0-5.28.08c-.94.08-1.82.17-2.67.19l-18.63.59c-2.32.07-5,.31-7.93.57C147.18,144.59,142.58,145,138.05,145Zm-5.14-48.5c-5.11,0-9.29,3.11-11.56,8.67-1.88,4.61-2,9.81-1.82,14.29a110.89,110.89,0,0,0,1.22,13c.1.63.17,1.24.25,1.84.45,3.5.71,5.61,4,6.85,7.36,2.79,17.77,1.86,26.14,1.12,2.91-.26,5.66-.51,8-.58l18.63-.59c.79,0,1.64-.1,2.54-.18a22.22,22.22,0,0,1,5.81-.06h0l5,.87c1-4.4,4.88-23.21,4.2-30.72-.24-2.63-1-4.44-2.39-5.37a4.85,4.85,0,0,0-3.69-.58,1,1,0,0,1-1.11-.41,1,1,0,0,1,.05-1.18A14.08,14.08,0,0,0,190.52,89c-1.44,1.32-4.46,3.29-10.15,4.1-4.06.58-7.94-1.8-12.43-4.56-5.39-3.31-11.48-7.06-19.47-6.63-8.7.47-13.59,5.43-13.41,13.61a1,1,0,0,1-1.09,1C133.61,96.51,133.26,96.5,132.91,96.5Z" fill="#093f68"/><ellipse cx="130.34" cy="143.76" rx="9.34" ry="8.05" fill="#ffc9b0"/><path d="M130.34,152.8c-5.7,0-10.34-4.06-10.34-9s4.64-9,10.34-9,10.33,4.06,10.33,9S136,152.8,130.34,152.8Zm0-16.09c-4.6,0-8.34,3.16-8.34,7s3.74,7,8.34,7,8.33-3.16,8.33-7S134.93,136.71,130.34,136.71Z" fill="#093f68"/><ellipse cx="184.77" cy="143.76" rx="9.34" ry="8.05" fill="#ffc9b0"/><path d="M184.77,152.8c-5.7,0-10.33-4.06-10.33-9s4.63-9,10.33-9,10.34,4.06,10.34,9S190.47,152.8,184.77,152.8Zm0-16.09c-4.59,0-8.33,3.16-8.33,7s3.74,7,8.33,7,8.34-3.16,8.34-7S189.37,136.71,184.77,136.71Z" fill="#093f68"/><path d="M157.8,170h0a28.16,28.16,0,0,1-28.16-28.16V121.37c1.65,2.71,7.12,1.63,15.13-12.11,30,15.19,41.2,6.48,41.2,6.48v26.08A28.17,28.17,0,0,1,157.8,170Z" fill="#ffc9b0"/><path d="M157.8,171a29.19,29.19,0,0,1-29.16-29.16V121.37a1,1,0,0,1,.73-1,1,1,0,0,1,1.13.44,1.4,1.4,0,0,0,1.3.71h0c1.09,0,5.18-1,12.08-12.81a1,1,0,0,1,1.32-.39c28.91,14.65,40,6.67,40.14,6.59a1,1,0,0,1,1.61.79v26.08A29.2,29.2,0,0,1,157.8,171Zm-27.16-47.59v18.43a27.17,27.17,0,0,0,54.33,0V117.45c-4.07,1.87-16.07,4.94-39.82-6.88-5,8.35-9.7,13-13.31,13A3.36,3.36,0,0,1,130.64,123.39Z" fill="#093f68"/><circle cx="145.66" cy="137.72" r="2.61" fill="#093f68"/><circle cx="169.95" cy="137.72" r="2.61" fill="#093f68"/><path d="M157.73,149.5a16.93,16.93,0,0,1-2.57-.21,1,1,0,1,1,.34-2,12.35,12.35,0,0,0,3.66.07c0-.88-.92-3.5-2.18-5.92a1,1,0,1,1,1.77-.93c.92,1.78,3,6.09,2.21,7.83a1.6,1.6,0,0,1-1.07.91A9.16,9.16,0,0,1,157.73,149.5Z" fill="#093f68"/><rect x="153.76" y="179.27" width="7.12" height="5.6" rx="2.07" fill="#f56132"/><path d="M158.82,185.87h-3a3.08,3.08,0,0,1-3.07-3.07v-1.47a3.07,3.07,0,0,1,3.07-3.06h3a3.07,3.07,0,0,1,3.07,3.06v1.47A3.08,3.08,0,0,1,158.82,185.87Zm-3-5.6a1.07,1.07,0,0,0-1.07,1.06v1.47a1.07,1.07,0,0,0,1.07,1.07h3a1.07,1.07,0,0,0,1.07-1.07v-1.47a1.07,1.07,0,0,0-1.07-1.06Z" fill="#093f68"/><polygon points="161.47 203.22 157.33 218.91 152.73 201.89 155.28 184.87 159.36 184.87 161.47 203.22" fill="#f56132"/><path d="M157.33,219.92a1,1,0,0,1-1-.74l-4.59-17a.91.91,0,0,1,0-.4l2.55-17a1,1,0,0,1,1-.85h4.08a1,1,0,0,1,1,.89l2.11,18.35a1.16,1.16,0,0,1,0,.37l-4.15,15.69a1,1,0,0,1-1,.75Zm-3.58-18.09L157.32,215l3.14-11.89-2-17.28h-2.33Z" fill="#093f68"/><path d="M138.41,224.58a1,1,0,0,1-1-1V188.9a1,1,0,0,1,2,0v34.68A1,1,0,0,1,138.41,224.58Z" fill="#093f68"/><path d="M175.8,224.58a1,1,0,0,1-1-1V188.9a1,1,0,0,1,2,0v34.68A1,1,0,0,1,175.8,224.58Z" fill="#093f68"/><path d="M150.5,131.6H136.92a2,2,0,0,1,0-4H150.5a2,2,0,0,1,0,4Z" fill="#093f68"/><path d="M178.68,131.6H165.1a2,2,0,0,1,0-4h13.58a2,2,0,0,1,0,4Z" fill="#093f68"/><path d="M157.4,157.13a37,37,0,0,1-6.48-.6,1,1,0,0,1,.39-2c.08,0,8.18,1.57,12.62-.58a1,1,0,0,1,.87,1.8A17.56,17.56,0,0,1,157.4,157.13Z" fill="#093f68"/><path d="M283.74,122.54H212.13a1,1,0,0,1,0-2h71.61a1,1,0,0,1,0,2Z" fill="#dfeaef"/><path d="M283.74,138.41H212.13a1,1,0,0,1,0-2h71.61a1,1,0,0,1,0,2Z" fill="#dfeaef"/><path d="M290.09,211H213.58a1,1,0,0,1-1-1V164.65a1,1,0,0,1,2,0V209h75.51a1,1,0,0,1,0,2Z" fill="#093f68"/><rect x="225.41" y="197" width="8.8" height="12.99" fill="#f56132"/><path d="M234.21,211h-8.8a1,1,0,0,1-1-1V197a1,1,0,0,1,1-1h8.8a1,1,0,0,1,1,1v13A1,1,0,0,1,234.21,211Zm-7.8-2h6.8V198h-6.8Z" fill="#093f68"/><rect x="245.49" y="173.74" width="8.8" height="36.26" fill="#70cc40"/><path d="M254.29,211h-8.8a1,1,0,0,1-1-1V173.74a1,1,0,0,1,1-1h8.8a1,1,0,0,1,1,1V210A1,1,0,0,1,254.29,211Zm-7.8-2h6.8V174.74h-6.8Z" fill="#093f68"/><rect x="265.57" y="184.94" width="8.8" height="25.06" fill="#ffbc0e"/><path d="M274.37,211h-8.8a1,1,0,0,1-1-1V184.94a1,1,0,0,1,1-1h8.8a1,1,0,0,1,1,1V210A1,1,0,0,1,274.37,211Zm-7.8-2h6.8V185.94h-6.8Z" fill="#093f68"/><path d="M227.41,185.94a1,1,0,0,1-.71-.29,1,1,0,0,1,0-1.42l22.48-22.63a1,1,0,0,1,1.31-.1L270,176l10.79-8.15a1,1,0,1,1,1.21,1.59l-11.4,8.61a1,1,0,0,1-1.2,0L250,163.63l-21.88,22A1,1,0,0,1,227.41,185.94Z" fill="#dfeaef"/><rect x="283.26" y="156.23" width="8.71" height="15.91" transform="translate(617.27 132.36) rotate(144.76)" fill="#093f68"/><path d="M288.65,174.2h-.17a1.08,1.08,0,0,1-.65-.41l-9.18-13a1,1,0,0,1,.24-1.4l7.12-5a1,1,0,0,1,.74-.17,1,1,0,0,1,.65.41l9.18,13a1,1,0,0,1-.24,1.39l-7.11,5A1,1,0,0,1,288.65,174.2Zm-7.79-13.76,8,11.37,5.48-3.88-8-11.36Z" fill="#093f68"/><rect x="273.75" y="146.06" width="13.37" height="15.91" transform="translate(598.35 118.02) rotate(144.76)" fill="#68e1fd"/><path d="M279.56,165.37h-.17a1,1,0,0,1-.64-.41l-9.19-13a1,1,0,0,1,.24-1.39l10.93-7.72a1,1,0,0,1,1.39.24l9.18,13a1,1,0,0,1-.24,1.39l-10.92,7.72A1,1,0,0,1,279.56,165.37Zm-7.79-13.76,8,11.37,9.29-6.56-8-11.37Z" fill="#093f68"/><rect x="294.75" y="165.52" width="13.37" height="36.46" rx="2.85" transform="translate(653.66 159.93) rotate(144.76)" fill="#68e1fd"/><path d="M307.18,202.38a3.68,3.68,0,0,1-.66-.06,3.82,3.82,0,0,1-2.49-1.57l-17.74-25.12a3.86,3.86,0,0,1,.92-5.37l6.27-4.43a3.85,3.85,0,0,1,5.36.93l17.75,25.12a3.85,3.85,0,0,1-.92,5.36l-6.27,4.43A3.81,3.81,0,0,1,307.18,202.38ZM295.7,167.13a1.86,1.86,0,0,0-1.07.34l-6.27,4.43a1.84,1.84,0,0,0-.44,2.57l17.75,25.13a1.82,1.82,0,0,0,1.19.75,1.87,1.87,0,0,0,1.38-.31h0l6.27-4.43A1.87,1.87,0,0,0,315,193l-17.75-25.12A1.84,1.84,0,0,0,295.7,167.13Z" fill="#093f68"/><path d="M237.84,148.19a31.43,31.43,0,1,0,7.54-43.81A31.43,31.43,0,0,0,237.84,148.19Zm8.53-6a21,21,0,1,1,29.25,5A21,21,0,0,1,246.37,142.16Z" fill="#68e1fd"/><path d="M263.58,162.5A32.83,32.83,0,0,1,258,162a32.2,32.2,0,0,1-21-13.25h0a32.41,32.41,0,1,1,26.56,13.73Zm-24.93-14.88A30.44,30.44,0,1,0,246,105.2a30.24,30.24,0,0,0-7.3,42.42Zm24.91,4.43a22.13,22.13,0,0,1-18-9.31h0a22,22,0,1,1,18,9.31Zm-16.37-10.46A20,20,0,1,0,252,113.73a19.82,19.82,0,0,0-4.79,27.86Z" fill="#093f68"/><path d="M280.83,141.9a20.6,20.6,0,0,1-5.21,5.29,21,21,0,1,1,5.21-5.29Z" fill="#70cc40"/><path d="M263.55,152.05a22,22,0,1,1,18.11-9.59,21.53,21.53,0,0,1-5.47,5.55A21.82,21.82,0,0,1,263.55,152.05Zm0-42A20,20,0,1,0,275,146.38a19.51,19.51,0,0,0,5-5h0a20,20,0,0,0-16.49-31.27Z" fill="#093f68"/><path d="M280.83,141.9l-17.32-11.84v-21h0a21,21,0,0,1,17.31,32.84Z" fill="#fff"/><path d="M280.83,142.9a1,1,0,0,1-.56-.18l-17.33-11.84a1,1,0,0,1-.43-.82v-21a1,1,0,0,1,.31-.72,1,1,0,0,1,.7-.29h0a22,22,0,0,1,18.14,34.4A1,1,0,0,1,280.83,142.9Zm-16.32-13.37,16,11a20,20,0,0,0-16-30.4Z" fill="#093f68"/></g></svg>