<svg xmlns="http://www.w3.org/2000/svg" viewBox="0 0 400 300"><g id="_122_project_presentation_outline" data-name="#122_project_presentation_outline"><path d="M293,91.91v42.71a7.93,7.93,0,0,1-7.94,7.93H218.66a7.93,7.93,0,0,1-7.93-7.93V91.91A7.93,7.93,0,0,1,218.66,84h66.41A7.93,7.93,0,0,1,293,91.91Z" fill="#fff"/><path d="M285.07,143.55H218.66a8.94,8.94,0,0,1-8.93-8.93V91.91A9,9,0,0,1,218.66,83h66.41A9,9,0,0,1,294,91.91v42.71A8.94,8.94,0,0,1,285.07,143.55ZM218.66,85a6.94,6.94,0,0,0-6.93,6.93v42.71a6.94,6.94,0,0,0,6.93,6.93h66.41a6.94,6.94,0,0,0,6.94-6.93V91.91A6.94,6.94,0,0,0,285.07,85Z" fill="#093f68"/><path d="M115.73,123.07v-7s2.56-4.41,1.77-5a12.08,12.08,0,0,0-3.54-.84s.4-6.56-.69-7.61-2.85-1.21-3,0,0,7.12,0,7.12-4.62,1.28-5.31,4,2.26,5.12,2.56,6.5a39.62,39.62,0,0,1,0,5.91Z" fill="#ffc9b0"/><path d="M107.49,127.21a1,1,0,0,1-1-1.06,36,36,0,0,0,0-5.64,6,6,0,0,0-.8-1.34c-1-1.41-2.32-3.34-1.75-5.61.64-2.58,3.76-4,5.26-4.52,0-1.69-.13-5.51,0-6.55a1.94,1.94,0,0,1,1.34-1.57,3.59,3.59,0,0,1,3.4,1c1.09,1.06,1.15,4.8,1,7.46a8.79,8.79,0,0,1,3.07.89c.49.34,1.51,1-1.35,6v6.74a1,1,0,0,1-.64.93l-8.24,3.14A.92.92,0,0,1,107.49,127.21Zm3.85-24.41a.32.32,0,0,0-.16,0c-.1.79,0,4.66,0,6.9a1,1,0,0,1-.73,1c-1.13.31-4.17,1.53-4.61,3.31-.35,1.4.61,2.77,1.45,4a6.27,6.27,0,0,1,1.11,2.06,25.16,25.16,0,0,1,.12,4.64l6.17-2.35v-6.32a1,1,0,0,1,.14-.5,19,19,0,0,0,1.75-3.78,16.11,16.11,0,0,0-2.76-.53,1,1,0,0,1-.9-1c.19-3.11,0-6.31-.4-6.85A1.93,1.93,0,0,0,111.34,102.8Zm4.39,20.27h0Z" fill="#093f68"/><path d="M185.46,145.58c2,2.19,3.92,4.51,5.82,6.82,4.7-4.24,8.66-7.83,8.67-7.84,2.53-2.26,5.75-4.56,5.46-8.46-.15-1.94-1.39-3.6-2.64-5.09-.27-.31-.61-.65-1-.59a1.15,1.15,0,0,0-.61.41l-2.87,2.9a13.67,13.67,0,0,0-2.9,3.67c0-1.65.05-3.42-.88-4.77a.82.82,0,0,0-.63-.43c-.37,0-.56.43-.67.78-1.16,3.73-1.64,7.09-4.53,9.7Z" fill="#ffc9b0"/><path d="M191.28,153.4h-.07a1,1,0,0,1-.7-.36l-.3-.36c-1.76-2.15-3.57-4.37-5.48-6.42a1,1,0,0,1-.27-.72,1,1,0,0,1,.33-.7l3.21-2.9c2.15-1.95,2.85-4.41,3.65-7.25.19-.66.38-1.33.59-2,.39-1.26,1.17-1.47,1.59-1.48a1.69,1.69,0,0,1,1.49.86,5.89,5.89,0,0,1,.92,2.35c.44-.49.89-.95,1.32-1.39l2.88-2.9a2,2,0,0,1,1.15-.68,2.17,2.17,0,0,1,1.94.93c1.3,1.54,2.7,3.38,2.87,5.65.31,4-2.49,6.41-5,8.56l-.84.73L192,153.15A1,1,0,0,1,191.28,153.4Zm-4.4-7.75c1.57,1.73,3.06,3.54,4.51,5.31l6-5.42,1.92-1.73.83-.74c2.32-2,4.51-3.92,4.28-6.89-.13-1.68-1.31-3.22-2.41-4.53l-.13-.14v0l-2.87,2.9a13.27,13.27,0,0,0-2.71,3.4,1,1,0,0,1-1.9-.46,9,9,0,0,0-.38-3.59c-.15.5-.29,1-.42,1.45-.85,3-1.66,5.86-4.24,8.19ZM202,131.38Z" fill="#093f68"/><path d="M194.88,145a1,1,0,0,1-.61-.2,1,1,0,0,1-.19-1.4,5,5,0,0,0,.44-5.45,1,1,0,0,1,1.71-1,7,7,0,0,1-.56,7.7A1,1,0,0,1,194.88,145Z" fill="#093f68"/><rect x="120.88" y="199.26" width="42.11" height="12.58" transform="translate(-66.23 343.62) rotate(-88.93)" fill="#ffc9b0"/><path d="M147.83,227.72h0l-12.58-.24a1,1,0,0,1-1-1l.79-42.11a1,1,0,0,1,.3-.7,1,1,0,0,1,.72-.28l12.57.24a1,1,0,0,1,1,1l-.79,42.11a1,1,0,0,1-.31.7A1,1,0,0,1,147.83,227.72Zm-11.56-2.22,10.58.2.75-40.1L137,185.4Z" fill="#093f68"/><rect x="138.19" y="199.26" width="42.11" height="12.58" transform="translate(-49.24 360.93) rotate(-88.93)" fill="#ffc9b0"/><path d="M165.14,227.72h0l-12.58-.24a1,1,0,0,1-1-1l.78-42.11a1,1,0,0,1,.31-.7,1,1,0,0,1,.71-.28l12.58.24a1,1,0,0,1,1,1l-.79,42.11a1,1,0,0,1-.3.7A1,1,0,0,1,165.14,227.72Zm-11.55-2.22,10.57.2.75-40.1-10.58-.2Z" fill="#093f68"/><polygon points="167.76 164.72 170.92 216.11 131.59 216.11 134.03 164.72 167.76 164.72" fill="#093f68"/><path d="M170.92,217.11H131.59a1,1,0,0,1-.72-.31,1,1,0,0,1-.28-.73l2.44-51.4a1,1,0,0,1,1-.95h33.73a1,1,0,0,1,1,.94l3.16,51.39a1,1,0,0,1-.27.75A1,1,0,0,1,170.92,217.11Zm-38.28-2h37.22l-3-49.39H135Z" fill="#093f68"/><polygon points="147.83 226.72 147.83 235.24 125.81 235.24 135.25 226.48 147.83 226.72" fill="#093f68"/><path d="M147.83,236.24h-22a1,1,0,0,1-.94-.63,1,1,0,0,1,.26-1.1l9.43-8.76a1.24,1.24,0,0,1,.7-.27l12.58.24a1,1,0,0,1,1,1v8.52A1,1,0,0,1,147.83,236.24Zm-19.47-2h18.47V227.7l-11.19-.21Z" fill="#093f68"/><polygon points="152.57 226.72 152.57 235.24 174.58 235.24 165.14 226.48 152.57 226.72" fill="#093f68"/><path d="M174.58,236.24h-22a1,1,0,0,1-1-1v-8.52a1,1,0,0,1,1-1l12.58-.24a1.16,1.16,0,0,1,.69.27l9.44,8.76a1,1,0,0,1-.68,1.73Zm-21-2H172l-7.27-6.75-11.19.21Z" fill="#093f68"/><path d="M190.18,141.35s-9,6-10.61,6.84c-3.25-3.32-11.11-12.6-13.74-14.66s-8.73-3.39-10.5-3.39h-8.87a72.35,72.35,0,0,0-11.21,2.41A101.53,101.53,0,0,1,120.77,137c-1.34-5.07-2.68-8.94-4.19-16.79l-9.24,3c0,9.76.71,28.35,10.39,28.32,3.69,0,15.21.4,16.3,0v13.16h33.73V152.49c4.54,4.91,8.4,7.55,11.31,8.23s6.34-1.59,15.81-11.33Z" fill="#68e1fd"/><path d="M167.76,165.72H134a1,1,0,0,1-1-1V152.67c-1.65.08-4.78,0-10-.06-2.17,0-4.13-.08-5.3-.08h0a7.59,7.59,0,0,1-5.51-2.32c-3.94-3.92-5.85-12.75-5.85-27a1,1,0,0,1,.7-.95l9.24-3a1,1,0,0,1,.81.09,1,1,0,0,1,.48.67c1.1,5.76,2.13,9.39,3.11,12.9.27,1,.54,1.9.81,2.88a99.35,99.35,0,0,0,13.4-4.21c1.35-.53,9.61-2.48,11.57-2.48h8.87c1.93,0,8.3,1.4,11.12,3.61,1.72,1.35,5.34,5.38,8.84,9.29,1.69,1.88,3.29,3.66,4.47,4.9,2.13-1.27,7.67-4.94,9.86-6.42a1,1,0,0,1,.78-.14,1,1,0,0,1,.64.47l4.7,8a1,1,0,0,1-.15,1.21c-9.52,9.8-13.28,12.4-16.75,11.6-2.85-.66-6.3-3-10.08-6.72v9.75A1,1,0,0,1,167.76,165.72Zm-32.73-2h31.73V152.49a1,1,0,0,1,.64-.93,1,1,0,0,1,1.1.25c4.11,4.46,7.95,7.27,10.79,7.93,2.5.57,6-2,14.34-10.5l-3.78-6.47c-2.32,1.55-8.43,5.61-9.83,6.32a1,1,0,0,1-1.16-.2c-1.23-1.25-3.09-3.32-5.06-5.52-3.28-3.66-7-7.81-8.59-9.05-2.34-1.84-8.14-3.18-9.88-3.18h-8.87a72.72,72.72,0,0,0-10.84,2.34A101.68,101.68,0,0,1,121,138a1,1,0,0,1-1.19-.72c-.35-1.31-.7-2.55-1-3.79-.94-3.32-1.9-6.74-2.94-12l-7.48,2.4c0,5.64.24,19.84,5.26,24.85a5.6,5.6,0,0,0,4.13,1.74c1.18,0,3.15,0,5.34.08,3.92.08,9.85.2,10.66,0a1,1,0,0,1,1.3.95Z" fill="#093f68"/><circle cx="130.49" cy="78.66" r="13.91" fill="#725858"/><path d="M130.49,93.57A14.91,14.91,0,1,1,145.4,78.66,14.93,14.93,0,0,1,130.49,93.57Zm0-27.81a12.91,12.91,0,1,0,12.91,12.9A12.92,12.92,0,0,0,130.49,65.76Z" fill="#093f68"/><ellipse cx="151.79" cy="97.31" rx="23.86" ry="25.9" fill="#725858"/><path d="M151.79,124.21c-13.71,0-24.86-12.07-24.86-26.9s11.15-26.9,24.86-26.9,24.86,12.07,24.86,26.9S165.5,124.21,151.79,124.21Zm0-51.8c-12.6,0-22.86,11.17-22.86,24.9s10.26,24.9,22.86,24.9,22.86-11.17,22.86-24.9S164.39,72.41,151.79,72.41Z" fill="#093f68"/><polygon points="148.38 131.47 151.7 156.45 155.19 131.47 148.38 131.47" fill="#f56132"/><path d="M151.7,157.35h0a.9.9,0,0,1-.89-.78l-3.32-25a.93.93,0,0,1,.22-.71.92.92,0,0,1,.68-.3h6.81a.88.88,0,0,1,.88,1l-3.49,25A.9.9,0,0,1,151.7,157.35Zm-2.29-25,2.32,17.43,2.43-17.43Z" fill="#093f68"/><path d="M148.39,127.55h6.81a0,0,0,0,1,0,0v3.92a2.89,2.89,0,0,1-2.89,2.89h-1a2.89,2.89,0,0,1-2.89-2.89v-3.92A0,0,0,0,1,148.39,127.55Z" fill="#ffc9b0"/><path d="M152.3,135.36h-1a3.89,3.89,0,0,1-3.89-3.89v-3.92a1,1,0,0,1,1-1h6.81a1,1,0,0,1,1,1v3.92A3.9,3.9,0,0,1,152.3,135.36Zm-2.91-6.81v2.92a1.88,1.88,0,0,0,1.89,1.89h1a1.89,1.89,0,0,0,1.9-1.89v-2.92Z" fill="#093f68"/><ellipse cx="132.33" cy="109.86" rx="6.62" ry="5.7" fill="#ffc9b0"/><path d="M132.33,116.57c-4.2,0-7.62-3-7.62-6.71s3.42-6.7,7.62-6.7,7.61,3,7.61,6.7S136.53,116.57,132.33,116.57Zm0-11.41c-3.1,0-5.62,2.11-5.62,4.7s2.52,4.71,5.62,4.71,5.61-2.11,5.61-4.71S135.42,105.16,132.33,105.16Z" fill="#093f68"/><ellipse cx="170.9" cy="109.86" rx="6.62" ry="5.7" fill="#ffc9b0"/><path d="M170.9,116.57c-4.2,0-7.62-3-7.62-6.71s3.42-6.7,7.62-6.7,7.62,3,7.62,6.7S175.1,116.57,170.9,116.57Zm0-11.41c-3.1,0-5.62,2.11-5.62,4.7s2.52,4.71,5.62,4.71,5.62-2.11,5.62-4.71S174,105.16,170.9,105.16Z" fill="#093f68"/><path d="M163.93,93a19.22,19.22,0,0,1-7.07-1.62,35.94,35.94,0,0,1-9.22-6.78c-1.83,5-6.9,8-11.6,10.49-1,.54-2.31,1.07-3.2.36a57.81,57.81,0,0,0-1,13.07c0,11,8.93,19,19.95,19s20-7.94,20-19V93C169.15,93,166.51,93.12,163.93,93Z" fill="#ffc9b0"/><path d="M151.79,128.45c-11.95,0-20.95-8.58-21-20a60.05,60.05,0,0,1,1-13.3,1,1,0,0,1,.65-.72,1,1,0,0,1,1,.16c.23.19.79.26,2.11-.45,4.92-2.65,9.48-5.4,11.13-10a1,1,0,0,1,1.63-.38,35.55,35.55,0,0,0,8.95,6.59A17.94,17.94,0,0,0,164,92h0c1.66.1,3.38.07,5,0l2.71,0a1,1,0,0,1,1,1v15.51C172.75,119.87,163.74,128.45,151.79,128.45ZM133.58,96.74a64.05,64.05,0,0,0-.75,11.75c0,10.24,8.15,18,19,18s19-7.72,19-18V94l-1.67,0c-1.71,0-3.48.06-5.21,0h0a19.83,19.83,0,0,1-7.44-1.72,34.28,34.28,0,0,1-8.43-6c-2.2,4.39-6.69,7.09-11.48,9.67A5.35,5.35,0,0,1,133.58,96.74Z" fill="#093f68"/><circle cx="142.55" cy="105.59" r="1.85" fill="#093f68"/><circle cx="161.61" cy="105.59" r="1.85" fill="#093f68"/><path d="M151.69,112.8a10.66,10.66,0,0,1-1.87-.16,1,1,0,0,1,.35-2,8.65,8.65,0,0,0,2.23.09,16,16,0,0,0-1.5-3.81,1,1,0,0,1,.43-1.35,1,1,0,0,1,1.35.42c1,2,2.13,4.57,1.57,5.81a1.39,1.39,0,0,1-.95.8A6.78,6.78,0,0,1,151.69,112.8Z" fill="#093f68"/><path d="M146.33,100.85h0l-8.81,0a1.59,1.59,0,0,1,0-3.18h0l8.81,0a1.59,1.59,0,1,1,0,3.18Z" fill="#093f68"/><path d="M158.89,101.07a1.59,1.59,0,0,1-.08-3.18l8.8-.45a1.59,1.59,0,0,1,.16,3.18l-8.8.45Z" fill="#093f68"/><path d="M153.05,120.5c-4.29,0-8.84-2.33-9.11-2.47a1,1,0,0,1,.92-1.78c2.31,1.2,9,3.72,11.95,1.07a1,1,0,0,1,1.33,1.49A7.44,7.44,0,0,1,153.05,120.5Z" fill="#093f68"/><path d="M134,152.56a1,1,0,0,1-.9-.55c-2.6-5.19.27-13.23.4-13.57a1,1,0,1,1,1.88.68c0,.07-2.7,7.57-.49,12a1,1,0,0,1-.45,1.34A1,1,0,0,1,134,152.56Z" fill="#093f68"/><path d="M166.38,139.9s3.05,3.34,2.72,6.95a21.65,21.65,0,0,1-1.34,5.64" fill="#68e1fd"/><path d="M167.76,153.49a1,1,0,0,1-.38-.07,1,1,0,0,1-.54-1.31,20.92,20.92,0,0,0,1.26-5.35c.29-3.13-2.43-6.15-2.46-6.18a1,1,0,1,1,1.47-1.35c.14.15,3.35,3.71,3,7.71a22.6,22.6,0,0,1-1.4,5.94A1,1,0,0,1,167.76,153.49Z" fill="#093f68"/><path d="M111.87,118.17a1.06,1.06,0,0,1-.92-.55,3.16,3.16,0,0,1,.32-2.79,2.84,2.84,0,0,1-2.17-1,1.67,1.67,0,0,1-.32-1.61c.51-1.57,3.62-2.54,4.93-2.89a1,1,0,1,1,.51,1.93,10.71,10.71,0,0,0-3.41,1.45c.72.49,2.19-.36,2.2-.37a1,1,0,0,1,1.27.19,1,1,0,0,1,0,1.28,7.59,7.59,0,0,0-1.59,3,1,1,0,0,1-.41,1.33A1.06,1.06,0,0,1,111.87,118.17Z" fill="#093f68"/><path d="M304.18,236.24H95.82a1,1,0,0,1,0-2H304.18a1,1,0,1,1,0,2Z" fill="#093f68"/><rect x="249.96" y="156.91" width="6.32" height="72.94" fill="#68e1fd"/><path d="M256.28,230.85H250a1,1,0,0,1-1-1V156.91a1,1,0,0,1,1-1h6.32a1,1,0,0,1,1,1v72.94A1,1,0,0,1,256.28,230.85Zm-5.32-2h4.32V157.91H251Z" fill="#093f68"/><rect x="237.92" y="229.85" width="28.91" height="5.39" rx="2.7" fill="#68e1fd"/><path d="M264.13,236.24H240.61a3.7,3.7,0,0,1,0-7.39h23.52a3.7,3.7,0,0,1,0,7.39Zm-23.52-5.39a1.7,1.7,0,0,0,0,3.39h23.52a1.7,1.7,0,0,0,0-3.39Z" fill="#093f68"/><rect x="207.59" y="151.56" width="89.57" height="5.39" rx="2.7" fill="#68e1fd"/><path d="M294.46,158H210.28a3.7,3.7,0,0,1,0-7.39h84.18a3.7,3.7,0,0,1,0,7.39Zm-84.18-5.39a1.7,1.7,0,0,0,0,3.39h84.18a1.7,1.7,0,0,0,0-3.39Z" fill="#093f68"/><polygon points="243.64 142.56 261.66 142.56 264.72 151.6 240.59 151.6 243.64 142.56" fill="#093f68"/><path d="M264.72,152.6H240.59a1,1,0,0,1-.82-.41,1,1,0,0,1-.13-.91l3.05-9a1,1,0,0,1,.95-.68h18a1,1,0,0,1,.95.68l3.06,9a1,1,0,0,1-.14.91A1,1,0,0,1,264.72,152.6Zm-22.74-2h21.34l-2.38-7H244.36Z" fill="#093f68"/><path d="M293,132.55v2.07a7.93,7.93,0,0,1-7.94,7.93H218.66a7.93,7.93,0,0,1-7.93-7.93v-2.07Z" fill="#093f68"/><path d="M285.07,143.55H218.66a8.94,8.94,0,0,1-8.93-8.93v-2.07a1,1,0,0,1,1-1H293a1,1,0,0,1,1,1v2.07A8.94,8.94,0,0,1,285.07,143.55Zm-73.34-10v1.07a6.94,6.94,0,0,0,6.93,6.93h66.41a6.94,6.94,0,0,0,6.94-6.93v-1.07Z" fill="#093f68"/><path d="M212.92,222.29S206.41,209,207.31,200a16.59,16.59,0,0,1,7.76,9.36c3.86,10.69,3,12.89,3,12.89Z" fill="#70cc40"/><path d="M218,223.29h-5.12a1,1,0,0,1-.9-.56c-.27-.56-6.63-13.64-5.7-22.79a1,1,0,0,1,.49-.77,1,1,0,0,1,.91,0c.23.1,5.66,2.63,8.3,9.93,3.79,10.51,3.12,13.18,2.95,13.61A1,1,0,0,1,218,223.29Zm-4.49-2h3.59c0-1.21-.43-4.4-3-11.55a16.67,16.67,0,0,0-5.9-8C208.2,209.19,212.44,218.88,213.55,221.29Z" fill="#093f68"/><path d="M216,221.64s-4.89-18.93,2.14-31.6c0,0,4,4.63,5,15.84a28.32,28.32,0,0,1-2.92,15.48Z" fill="#70cc40"/><path d="M216,222.65a1,1,0,0,1-1-.75c-.21-.79-4.91-19.47,2.23-32.34a1,1,0,0,1,.77-.51,1,1,0,0,1,.86.33c.17.2,4.27,5,5.26,16.41a29.07,29.07,0,0,1-3.06,16.08,1,1,0,0,1-.8.49l-4.23.28ZM218.28,192c-4.94,10.63-2.25,25.06-1.48,28.59l2.82-.19A28.09,28.09,0,0,0,222.18,206C221.53,198.5,219.47,194,218.28,192Z" fill="#093f68"/><path d="M218.13,221.05s1.51-12.64,11.73-20.88c0,0,3,9.41-5.43,22Z" fill="#70cc40"/><path d="M224.43,223.17l-.18,0L218,222a1,1,0,0,1-.81-1.11c.06-.53,1.68-13.14,12.09-21.54a1,1,0,0,1,.92-.18,1,1,0,0,1,.66.65c.13.41,3.06,10-5.55,22.86A1,1,0,0,1,224.43,223.17Zm-5.15-2.93,4.68.83c5.72-8.82,5.64-16,5.25-19C222,208.58,219.83,217.39,219.28,220.24Z" fill="#093f68"/><polygon points="225.12 235.24 212.27 235.24 210.37 219.6 227.03 219.6 225.12 235.24" fill="#68e1fd"/><path d="M225.12,236.24H212.27a1,1,0,0,1-1-.88l-1.9-15.64a1,1,0,0,1,.24-.78,1,1,0,0,1,.75-.34H227a1,1,0,0,1,1,1.12l-1.9,15.64A1,1,0,0,1,225.12,236.24Zm-12-2h11.08l1.66-13.64H211.5Z" fill="#093f68"/><rect x="218.3" y="91.57" width="20.55" height="13.94" fill="#f56132"/><path d="M238.86,106.51H218.3a1,1,0,0,1-1-1V91.57a1,1,0,0,1,1-1h20.56a1,1,0,0,1,1,1v13.94A1,1,0,0,1,238.86,106.51Zm-19.56-2h18.56V92.57H219.3Z" fill="#093f68"/><rect x="218.3" y="111.17" width="20.55" height="13.94" fill="#ffbc0e"/><path d="M238.86,126.11H218.3a1,1,0,0,1-1-1V111.17a1,1,0,0,1,1-1h20.56a1,1,0,0,1,1,1v13.94A1,1,0,0,1,238.86,126.11Zm-19.56-2h18.56V112.17H219.3Z" fill="#093f68"/><path d="M282.22,97.21H250a1,1,0,0,1,0-2h32.26a1,1,0,0,1,0,2Z" fill="#dfeaef"/><path d="M272.45,103.87H250a1,1,0,0,1,0-2h22.49a1,1,0,0,1,0,2Z" fill="#dfeaef"/><path d="M282.22,114.81H250a1,1,0,1,1,0-2h32.26a1,1,0,0,1,0,2Z" fill="#dfeaef"/><path d="M266.09,121.47H250a1,1,0,0,1,0-2h16.13a1,1,0,0,1,0,2Z" fill="#dfeaef"/></g></svg>