<svg xmlns="http://www.w3.org/2000/svg" viewBox="0 0 400 300"><g id="_476_qr_code_outline" data-name="#476_qr_code_outline"><rect x="142.54" y="66.8" width="114.63" height="166.4" rx="7.54" fill="#68e1fd"/><path d="M249.63,234.2H150.08a8.55,8.55,0,0,1-8.54-8.54V74.34a8.55,8.55,0,0,1,8.54-8.54h99.55a8.55,8.55,0,0,1,8.54,8.54V225.66A8.55,8.55,0,0,1,249.63,234.2ZM150.08,67.8a6.54,6.54,0,0,0-6.54,6.54V225.66a6.54,6.54,0,0,0,6.54,6.54h99.55a6.55,6.55,0,0,0,6.54-6.54V74.34a6.55,6.55,0,0,0-6.54-6.54Z" fill="#093f68"/><rect x="142.54" y="83.31" width="114.63" height="129.95" fill="#fff"/><path d="M257.17,214.27H142.54a1,1,0,0,1-1-1v-130a1,1,0,0,1,1-1H257.17a1,1,0,0,1,1,1v130A1,1,0,0,1,257.17,214.27Zm-113.63-2H256.17v-128H143.54Z" fill="#093f68"/><path d="M210,76H197a1,1,0,0,1,0-2h13a1,1,0,0,1,0,2Z" fill="#093f68"/><path d="M192.25,76h-2.53a1,1,0,0,1,0-2h2.53a1,1,0,0,1,0,2Z" fill="#093f68"/><path d="M199.85,229.09a6.07,6.07,0,1,1,6.07-6.06A6.07,6.07,0,0,1,199.85,229.09Zm0-10.13a4.07,4.07,0,1,0,4.07,4.07A4.07,4.07,0,0,0,199.85,219Z" fill="#093f68"/><path d="M189.86,112.9v25.25H164.61V112.9Zm-5.07,20.19V118H169.66v15.13Z" fill="#093f68"/><path d="M210.15,112.89H235.4v25.25H210.15Zm5.06,5.06v15.13h15.13V118Z" fill="#093f68"/><path d="M189.85,183.69H164.6V158.44h25.25Zm-20.18-20.2v15.13H184.8V163.49Z" fill="#093f68"/><path d="M210.12,158.42h15.17v-10.1h5.05v-5.05h5.06v10.07h-5.05v10.15h-5v5.07h5c0,1.68,0,3.37,0,5.05h0l-.16,0h-10v-10.1H210.12c0-1.69,0-3.38,0-5.07Z" fill="#093f68"/><path d="M200,143.21H195V133.12h5v-5.05h-5V112.89H205v5h-5v5h5v15.18h-5v5.07Z" fill="#093f68"/><path d="M200,148.29q0,4.8,0,9.6c0,.17,0,.34,0,.51H195v-5H179.78v-5.09h-5.07v-5h10.1v5H200Z" fill="#093f68"/><path d="M220.24,173.58v10.1H200v-5h15.17v-5.08l5.07,0Z" fill="#093f68"/><path d="M200,178.65h-5V163.48h5v5.06h5.07v5.07H200v5.06Z" fill="#093f68"/><path d="M220.22,143.26v10.07h-5v-5h-5.05v-5Z" fill="#093f68"/><path d="M200,163.48c0-1.7,0-3.39,0-5.09h0l5.06,0h0v5.07H200Z" fill="#093f68"/><path d="M205.07,158.42v-5h5.05v5h-5.05Z" fill="#093f68"/><path d="M174.7,148.28v5h-5v-5h5Z" fill="#093f68"/><path d="M200,148.3c0-1.7,0-3.39,0-5.09h5v5.07h-5Z" fill="#093f68"/><path d="M230.35,163.48h5v5.05h-5v-5.07Z" fill="#093f68"/><path d="M169.65,148.29h-5v-5h5v5Z" fill="#093f68"/><path d="M230.37,178.65c0-1.69,0-3.39,0-5.08h5v5.06h-5Z" fill="#093f68"/><path d="M230.36,178.64v5h-5v-5h5Z" fill="#093f68"/><path d="M179.74,123v5h-5v-5Z" fill="#093f68"/><path d="M225.27,128h-5v-5h5Z" fill="#093f68"/><path d="M174.73,168.55h5v5h-5Z" fill="#093f68"/><circle cx="207.59" cy="166" r="3.59" fill="#093f68"/><path d="M215.19,173.6h-5.07v-5.07h5.07Z" fill="#093f68"/><path d="M155.88,126.8a1,1,0,0,1-1-1V106a1,1,0,0,1,1-1h18.91a1,1,0,0,1,0,2H156.88V125.8A1,1,0,0,1,155.88,126.8Z" fill="#dfeaef"/><path d="M244.12,126.8a1,1,0,0,1-1-1V107H225.21a1,1,0,0,1,0-2h18.91a1,1,0,0,1,1,1V125.8A1,1,0,0,1,244.12,126.8Z" fill="#dfeaef"/><path d="M174.79,191.59H155.88a1,1,0,0,1-1-1V170.78a1,1,0,1,1,2,0v18.81h17.91a1,1,0,0,1,0,2Z" fill="#dfeaef"/><path d="M244.12,191.59H225.21a1,1,0,0,1,0-2h17.91V170.78a1,1,0,1,1,2,0v19.81A1,1,0,0,1,244.12,191.59Z" fill="#dfeaef"/></g></svg>