<svg xmlns="http://www.w3.org/2000/svg" viewBox="0 0 400 300"><g id="_114_report_presentation_outline" data-name="#114_report_presentation_outline"><rect x="171.33" y="83.72" width="147.77" height="129.98" fill="#fff"/><path d="M319.1,214.7H171.33a1,1,0,0,1-1-1v-130a1,1,0,0,1,1-1H319.1a1,1,0,0,1,1,1v130A1,1,0,0,1,319.1,214.7Zm-146.77-2H318.1v-128H172.33Z" fill="#093f68"/><path d="M274.47,123.75a29.06,29.06,0,0,1-1.1,8,28.65,28.65,0,0,1-2.41,6A29.33,29.33,0,0,1,245.23,153c-.69,0-1.37,0-2-.08a29.25,29.25,0,1,1,29.26-39.86A28.93,28.93,0,0,1,274.47,123.75Z" fill="#70cc40"/><path d="M245.23,154c-.81,0-1.49,0-2.13-.09a30.25,30.25,0,1,1,30.28-41.22,30.49,30.49,0,0,1-1.54,25.47A30.35,30.35,0,0,1,245.23,154Zm0-58.51a28.25,28.25,0,0,0-2,56.43c.6.05,1.22.08,2,.08a28.23,28.23,0,0,0,28.24-28.27,28.24,28.24,0,0,0-28.24-28.24Z" fill="#093f68"/><path d="M274.47,123.75a29.06,29.06,0,0,1-1.1,8,28.65,28.65,0,0,1-2.41,6l-25.73-14V94.51a29.23,29.23,0,0,1,27.22,18.57A28.93,28.93,0,0,1,274.47,123.75Z" fill="#ffbc0e"/><path d="M271,138.71a1,1,0,0,1-.48-.12l-25.73-14a1,1,0,0,1-.52-.88V94.51a1,1,0,0,1,1-1,30.33,30.33,0,0,1,26.61,44.67,1,1,0,0,1-.59.49A1.45,1.45,0,0,1,271,138.71Zm-24.73-15.56,24.31,13.19a27.85,27.85,0,0,0,1.87-4.89,28.34,28.34,0,0,0,1.06-7.7,28.25,28.25,0,0,0-27.24-28.23Z" fill="#093f68"/><path d="M274.47,123.75a29.06,29.06,0,0,1-1.1,8,28.65,28.65,0,0,1-2.41,6l-25.73-14,27.22-10.67A28.93,28.93,0,0,1,274.47,123.75Z" fill="#f56132"/><path d="M271,138.71a1,1,0,0,1-.48-.12l-25.73-14a1,1,0,0,1-.52-.94,1,1,0,0,1,.63-.87l27.22-10.67a1,1,0,0,1,1.3.56,30.49,30.49,0,0,1-1.54,25.47,1,1,0,0,1-.59.49A1.45,1.45,0,0,1,271,138.71ZM247.6,123.89l22.94,12.45a27.85,27.85,0,0,0,1.87-4.89,28.34,28.34,0,0,0,1.06-7.7,28,28,0,0,0-1.6-9.37Z" fill="#093f68"/><path d="M304.8,198.51H185.93a1,1,0,0,1-1-1v-43.7a1,1,0,0,1,2,0v42.7H304.8a1,1,0,0,1,0,2Z" fill="#093f68"/><path d="M210.24,198.51H200a1,1,0,0,1-1-1v-11a1,1,0,0,1,1-1h10.24a1,1,0,0,1,1,1v11A1,1,0,0,1,210.24,198.51Zm-9.24-2h8.24v-9H201Z" fill="#093f68"/><path d="M232.51,198.51H222.27a1,1,0,0,1-1-1v-22a1,1,0,0,1,1-1h10.24a1,1,0,0,1,1,1v22A1,1,0,0,1,232.51,198.51Zm-9.24-2h8.24v-20h-8.24Z" fill="#093f68"/><path d="M254.79,198.51H244.55a1,1,0,0,1-1-1V171.33a1,1,0,0,1,1-1h10.24a1,1,0,0,1,1,1v26.18A1,1,0,0,1,254.79,198.51Zm-9.24-2h8.24V172.33h-8.24Z" fill="#093f68"/><path d="M277.07,198.51H266.83a1,1,0,0,1-1-1V162.93a1,1,0,0,1,1-1h10.24a1,1,0,0,1,1,1v34.58A1,1,0,0,1,277.07,198.51Zm-9.24-2h8.24V163.93h-8.24Z" fill="#093f68"/><path d="M299.34,198.51H289.1a1,1,0,0,1-1-1V155a1,1,0,0,1,1-1h10.24a1,1,0,0,1,1,1v42.47A1,1,0,0,1,299.34,198.51Zm-9.24-2h8.24V156H290.1Z" fill="#093f68"/><path d="M176.1,174.94c3.28,3.52,6.32,7.26,9.37,11l13.95-12.61c3.44-3.12,10.36-9.6,5.88-14.36a9.49,9.49,0,0,0-2.66-1.67c-2.06-1.1-4.12-2.75-6.42-2.38a7.61,7.61,0,0,0-3.68,2.19,52,52,0,0,0-5.11,4.84c-1.29,1.55-1,2.4-1.8,4.08s-3,3-4.36,4.26Z" fill="#ffc9b0"/><path d="M185.47,186.92h-.08a1,1,0,0,1-.7-.36l-.49-.6c-2.82-3.46-5.75-7-8.83-10.33a1,1,0,0,1-.26-.73,1,1,0,0,1,.32-.7l5.17-4.67c.39-.35.84-.71,1.3-1.09a10.92,10.92,0,0,0,2.83-2.87,8.26,8.26,0,0,0,.53-1.5,6.59,6.59,0,0,1,1.41-2.78,36.87,36.87,0,0,1,4-3.89c.41-.36.81-.71,1.19-1.06a8.56,8.56,0,0,1,4.19-2.43c2.19-.35,4.12.79,5.83,1.79.4.24.81.48,1.22.7l.54.27a7.93,7.93,0,0,1,2.37,1.6,6,6,0,0,1,1.74,4.46c-.18,4.54-5.24,9.12-7.67,11.32l-14,12.62A1,1,0,0,1,185.47,186.92ZM177.53,175c2.8,3.06,5.46,6.31,8.05,9.47l13.17-11.92c2.05-1.85,6.86-6.21,7-9.91a4,4,0,0,0-1.19-3,6.28,6.28,0,0,0-1.83-1.18l-.57-.3c-.43-.23-.86-.48-1.3-.74-1.55-.91-3-1.77-4.49-1.53a6.75,6.75,0,0,0-3.17,1.94L192,158.9a35.82,35.82,0,0,0-3.8,3.67,4.57,4.57,0,0,0-1,2,10.7,10.7,0,0,1-.66,1.83,12,12,0,0,1-3.37,3.56c-.44.35-.86.68-1.22,1C181.89,171.06,178.94,173.72,177.53,175Z" fill="#093f68"/><path d="M190.56,175.17A1,1,0,0,1,190,175a1,1,0,0,1-.25-1.4l35.15-50.41a1,1,0,0,1,1.39-.25,1,1,0,0,1,.25,1.39l-35.15,50.42A1,1,0,0,1,190.56,175.17Z" fill="#093f68"/><path d="M194.92,159.39c1,.17,5,.3,5.81.86a2,2,0,0,1,.79,2.57,2.74,2.74,0,0,1-2.21,1,25.71,25.71,0,0,1-6.38-.23,6.91,6.91,0,0,1-3.51,6.83" fill="#ffc9b0"/><path d="M189.42,171.38a1,1,0,0,1-.47-1.88,5.94,5.94,0,0,0,3-5.82,1,1,0,0,1,.3-.85,1,1,0,0,1,.85-.27,24.69,24.69,0,0,0,6.13.23c.3,0,1.21-.11,1.45-.5s-.07-.91-.51-1.22a20,20,0,0,0-3.82-.53c-.7-.06-1.26-.1-1.59-.16a1,1,0,0,1,.34-2c.27,0,.8.09,1.42.14,2.7.22,4.11.41,4.79.88a3,3,0,0,1,1.07,3.92,3.81,3.81,0,0,1-3,1.43,27.17,27.17,0,0,1-5.41-.07,7.9,7.9,0,0,1-4.09,6.55A1,1,0,0,1,189.42,171.38Z" fill="#093f68"/><path d="M181.59,169.13s-14.4,9.66-17.08,11c0,0-15.33-18.7-31.49-18.7H115.29c-10.24,0-18.55,9.17-18.55,20.47V213.7H149V193c7.26,4.13,11.37,6.54,14.69,7.3,4.68,1.08,10.2-2.54,25.45-18.23Z" fill="#68e1fd"/><path d="M149,214.7H96.74a1,1,0,0,1-1-1V181.91c0-11.84,8.77-21.47,19.55-21.47H133c8.63,0,17,5.2,22.43,9.57a73.88,73.88,0,0,1,9.29,8.86c3.78-2.18,16.15-10.48,16.29-10.57a1,1,0,0,1,1.42.32L190,181.56a1,1,0,0,1-.15,1.2c-15.14,15.58-21.07,19.74-26.39,18.51-3.22-.75-7.09-2.94-13.46-6.56v19A1,1,0,0,1,149,214.7Zm-51.27-2H148V193a1,1,0,0,1,1.49-.87l1.28.72c6.34,3.61,10.16,5.79,13.14,6.48,4.32,1,10.17-3.25,24-17.41l-6.64-11.36c-3.21,2.14-14,9.3-16.3,10.48a1,1,0,0,1-1.22-.26c-.15-.18-15.23-18.33-30.72-18.33H115.29c-9.67,0-17.55,8.74-17.55,19.47Z" fill="#093f68"/><path d="M110.12,194.11a1,1,0,0,1-1-1V173.33a1,1,0,0,1,2,0v19.78A1,1,0,0,1,110.12,194.11Z" fill="#093f68"/><rect x="86.23" y="189.12" width="15.13" height="19.44" rx="3.64" transform="matrix(0.98, -0.22, 0.22, 0.98, -41.63, 25.65)" fill="#ffc9b0"/><path d="M91.31,210.28a4.65,4.65,0,0,1-4.53-3.62l-2.69-11.85a4.66,4.66,0,0,1,3.51-5.56l7.65-1.73a4.64,4.64,0,0,1,5.55,3.5l2.69,11.86a4.65,4.65,0,0,1-3.5,5.55l-7.65,1.74A5.23,5.23,0,0,1,91.31,210.28Zm5-20.88a2.36,2.36,0,0,0-.58.07L88,191.2a2.64,2.64,0,0,0-2,3.17l2.68,11.85a2.65,2.65,0,0,0,3.17,2l7.64-1.73h0a2.64,2.64,0,0,0,2-3.16l-2.69-11.86A2.66,2.66,0,0,0,96.27,189.4Z" fill="#093f68"/><rect x="92.16" y="180.76" width="26.72" height="33.14" transform="translate(-38.09 25.72) rotate(-11.79)" fill="#fff"/><path d="M95.83,217.28a1,1,0,0,1-.55-.17,1,1,0,0,1-.43-.63L88.08,184a1,1,0,0,1,.77-1.18L115,177.4a1,1,0,0,1,1.18.77L123,210.61a1,1,0,0,1-.14.75,1,1,0,0,1-.63.43L96,217.25A.64.64,0,0,1,95.83,217.28Zm-5.59-32.67,6.36,30.48L120.8,210l-6.36-30.48Z" fill="#093f68"/><path d="M121.12,157.51h9.73a0,0,0,0,1,0,0v5.6a4.13,4.13,0,0,1-4.13,4.13h-1.47a4.13,4.13,0,0,1-4.13-4.13v-5.6a0,0,0,0,1,0,0Z" transform="translate(-31.45 30.27) rotate(-12.19)" fill="#ffc9b0"/><path d="M125.42,168.38a5.14,5.14,0,0,1-5-4l-1.18-5.47a1,1,0,0,1,.77-1.19l9.51-2.06a1,1,0,0,1,.75.14,1,1,0,0,1,.44.63l1.18,5.48a5.13,5.13,0,0,1-3.93,6.1l-1.44.31A5,5,0,0,1,125.42,168.38Zm-4-9,1,4.5a3.13,3.13,0,0,0,3.72,2.4l1.44-.31h0a3.13,3.13,0,0,0,2.4-3.72l-1-4.5Z" fill="#093f68"/><ellipse cx="144.07" cy="126.75" rx="7.29" ry="8.15" transform="translate(-23.52 33.29) rotate(-12.19)" fill="#ffc9b0"/><path d="M144.39,135.87a8,8,0,0,1-4.73-1.59,9.83,9.83,0,0,1-2.72-12.57,7.77,7.77,0,0,1,11.54-2.49,9.59,9.59,0,0,1,3.69,5.78h0a9.57,9.57,0,0,1-1,6.79,7.89,7.89,0,0,1-5.2,3.9A7.43,7.43,0,0,1,144.39,135.87Zm-.65-16.23a5.68,5.68,0,0,0-5.06,3.06,7.85,7.85,0,0,0,2.15,10,5.77,5.77,0,0,0,8.63-1.86,7.59,7.59,0,0,0,.76-5.38h0a7.6,7.6,0,0,0-2.92-4.58A6.05,6.05,0,0,0,143.74,119.64Z" fill="#093f68"/><path d="M84.27,112.61c1.26,8.06,3.73,22.2,7.81,28.94,7,11.6,20.81,21,33.07,18.38a25.63,25.63,0,0,0,20-19.48,31.39,31.39,0,0,0,.07-14s.13-3.45-3.28-16.05-5.34-19.15-30.63-17.79C91.81,93.6,83,104.56,84.27,112.61Z" fill="#ffc9b0"/><path d="M121.08,161.34c-9.64,0-21.9-6.1-29.86-19.28-3-5.05-5.65-14.63-7.94-29.29h0c-.55-3.58.67-7.45,3.46-10.88s9.83-9.55,24.53-10.33c26.22-1.41,28.27,6.09,31.64,18.53,3.09,11.39,3.31,15.42,3.32,16.21a32.47,32.47,0,0,1-.1,14.39,26.68,26.68,0,0,1-20.77,20.21A20.29,20.29,0,0,1,121.08,161.34ZM85.26,112.46c.83,5.29,3.34,21.4,7.67,28.57,6.43,10.65,19.83,20.55,32,17.92a24.74,24.74,0,0,0,19.25-18.74,30.57,30.57,0,0,0,.06-13.6,2,2,0,0,1,0-.25s.05-3.6-3.25-15.75-5-18.37-29.61-17.06c-10.16.55-18.58,4-23.08,9.6-2.42,3-3.5,6.29-3,9.31Z" fill="#093f68"/><path d="M133.37,136.39c-3.41-.41-8,.86-12.11,4.11-5.39,4.29-3.36,9.56-8.45,8.95a16.88,16.88,0,0,1-9.73-4.46c-3.33-3.32-3.66-8.64-4.76-13a13.22,13.22,0,0,0-1.72-4.46,6.69,6.69,0,0,0-6.84-2.58c-8.85,2.09-2.93,13.42-1.17,18.56l3.84-.83L93,145.8a29.93,29.93,0,0,0,32.15,14.13,25.63,25.63,0,0,0,20-19.48,30.67,30.67,0,0,1-3.47,1.19c-3.38.86-2.26-2.45-5.52-4.36A7.21,7.21,0,0,0,133.37,136.39Z" fill="#725858"/><path d="M118.71,161.62a30.92,30.92,0,0,1-26.57-15.3A1.4,1.4,0,0,1,92,146l-.38-2.14-2.83.62a1,1,0,0,1-1.16-.66c-.23-.68-.54-1.48-.88-2.35-1.68-4.33-4-10.26-1.93-14.18a6.76,6.76,0,0,1,4.7-3.33,7.67,7.67,0,0,1,7.88,3,13.83,13.83,0,0,1,1.88,4.79c.25,1,.46,2,.67,3.05.71,3.51,1.44,7.14,3.83,9.51a15.89,15.89,0,0,0,9.14,4.18c2.07.24,2.42-.54,3.33-2.63a14.51,14.51,0,0,1,4.38-6.11c4-3.19,8.82-4.81,12.85-4.32a8.37,8.37,0,0,1,3.19,1,7.42,7.42,0,0,1,2.86,3.2c.63,1.15.74,1.36,1.9,1.06a27,27,0,0,0,3.35-1.15,1,1,0,0,1,1,.17,1,1,0,0,1,.31,1,26.68,26.68,0,0,1-20.77,20.22A31,31,0,0,1,118.71,161.62ZM94,145.44a28.84,28.84,0,0,0,31,13.51,24.7,24.7,0,0,0,18.73-16.87c-.65.23-1.23.4-1.74.53-2.67.68-3.49-.83-4.15-2.05a5.4,5.4,0,0,0-2.11-2.42,6.32,6.32,0,0,0-2.42-.75h0c-3.47-.42-7.82,1.07-11.37,3.89a12.45,12.45,0,0,0-3.78,5.35c-.92,2.09-1.85,4.24-5.41,3.81a17.81,17.81,0,0,1-10.31-4.74c-2.82-2.8-3.61-6.73-4.38-10.53-.21-1-.41-2-.65-3a12.1,12.1,0,0,0-1.57-4.13A5.71,5.71,0,0,0,90,125.89a4.78,4.78,0,0,0-3.4,2.31c-1.63,3.11.57,8.78,2,12.53.22.56.43,1.09.61,1.59l3-.65a1,1,0,0,1,1.2.8Z" fill="#093f68"/><ellipse cx="115.05" cy="126.06" rx="2.64" ry="2.63" transform="translate(-24.03 27.15) rotate(-12.19)" fill="#093f68"/><circle cx="135.61" cy="120.52" r="2.64" fill="#093f68"/><path d="M124.25,132.62a1,1,0,0,1-.09-2,25.35,25.35,0,0,0,5.77-1.22c-.16-.83-2.12-3.13-4.3-5a1,1,0,1,1,1.32-1.51c1.6,1.4,5.31,4.88,5,7a1.79,1.79,0,0,1-1.15,1.38,26.91,26.91,0,0,1-6.42,1.39Z" fill="#093f68"/><path d="M105.3,122a1.84,1.84,0,0,1-.33,0,2,2,0,0,1-1.64-2.25c0-.21.84-5.11,6.79-6.34,5.64-1.16,8.31,1.2,8.6,1.47a2,2,0,0,1-2.76,2.9s-1.49-1.18-5-.45c-3.1.64-3.6,2.81-3.64,3A2,2,0,0,1,105.3,122Z" fill="#093f68"/><path d="M130.93,115.59a2,2,0,0,1-1.17-.39,2,2,0,0,1-.45-2.77,11.63,11.63,0,0,1,7-4.25c4.09-.69,6.23,1.3,6.85,2.58l-3.6,1.74a.29.29,0,0,0,.06.1s-.58-.82-2.64-.47a7.61,7.61,0,0,0-4.46,2.65A2,2,0,0,1,130.93,115.59Z" fill="#093f68"/><path d="M94,132.38S86.2,129.14,83.85,136s3.41,16.44,14,11Z" fill="#ffc9b0"/><path d="M92,149.62a9.08,9.08,0,0,1-6-2.23,11,11,0,0,1-3-11.71,7.06,7.06,0,0,1,3.77-4.4c3.47-1.56,7.57.11,7.74.18a1,1,0,0,1,.59.67l3.84,14.61a1,1,0,0,1-.51,1.15A14.05,14.05,0,0,1,92,149.62Zm-1.94-17a6.23,6.23,0,0,0-2.53.49,5.1,5.1,0,0,0-2.69,3.22,9.11,9.11,0,0,0,2.42,9.55c2.4,2.08,5.75,2.28,9.48.57l-3.49-13.3A10.7,10.7,0,0,0,90,132.62Z" fill="#093f68"/><path d="M124.81,145.46l9.58-2.19s.83,8-3,9.39S124.81,145.46,124.81,145.46Z" fill="#fff"/><path d="M130.53,153.8a3.61,3.61,0,0,1-1.64-.4c-3-1.52-4.84-7-5-7.64a1,1,0,0,1,.09-.8,1,1,0,0,1,.64-.47l9.59-2.2a1,1,0,0,1,.8.16,1,1,0,0,1,.41.71c.1.91.79,8.87-3.69,10.44A3.33,3.33,0,0,1,130.53,153.8Zm-4.4-7.61c.7,1.8,2.07,4.63,3.66,5.42a1.51,1.51,0,0,0,1.24.11c2.13-.75,2.49-4.82,2.43-7.22Z" fill="#093f68"/><path d="M149,194a1,1,0,0,1-1-1V175.17a1,1,0,1,1,2,0V193A1,1,0,0,1,149,194Z" fill="#093f68"/><path d="M111.89,99.15a15.09,15.09,0,0,1-.43,12.29,22.38,22.38,0,0,0,16.6-16.24,26.55,26.55,0,0,1,4.68,10.55c5.13-.76,10.76-3.83,11.29-9,.37-3.56-2-7-5-8.86s-6.73-2.44-10.31-2.72a78.15,78.15,0,0,0-36,5.7c-4.25,1.77-8.62,4.19-10.59,8.34-1.77,3.74-1.25,8.11-.63,12.19.52,3.41,1.23,11.33,4.92,13,3.31,1.52,7.84-2.5,10.28-4.38a46.24,46.24,0,0,0,9.22-9.47C107.17,108.82,112.8,101.35,111.89,99.15Z" fill="#725858"/><path d="M88,125.76a4.84,4.84,0,0,1-2-.43c-3.82-1.76-4.76-8.57-5.33-12.65-.06-.41-.11-.79-.16-1.13-.68-4.5-1.14-8.86.72-12.76,2.21-4.67,7.1-7.18,11.11-8.84a79.19,79.19,0,0,1,36.44-5.78c3.44.27,7.41.83,10.75,2.86,3.73,2.27,5.9,6.13,5.52,9.83-.59,5.66-6.52,9-12.14,9.88a1,1,0,0,1-1.13-.79,25.66,25.66,0,0,0-3.34-8.44,23.39,23.39,0,0,1-16.75,14.9,1,1,0,0,1-1-.36,1,1,0,0,1-.11-1.06,14.09,14.09,0,0,0,1.34-7.8,57.57,57.57,0,0,1-4.9,7.57l-.29.39a47,47,0,0,1-9.42,9.69l-.76.59C94.26,123.22,91,125.76,88,125.76Zm34.58-39.83a77.16,77.16,0,0,0-29.5,5.86C89.4,93.32,84.93,95.6,83,99.64c-1.61,3.39-1.17,7.43-.54,11.61,0,.34.11.73.16,1.16.48,3.42,1.37,9.8,4.19,11.1,2.43,1.12,6.21-1.87,8.47-3.65l.78-.61a45,45,0,0,0,9-9.27l.29-.4c5.77-7.89,5.74-9.68,5.59-10h0a1,1,0,0,1,.54-1.3,1,1,0,0,1,1.31.54h0a16.08,16.08,0,0,1,.33,11.17,21.32,21.32,0,0,0,13.94-15,1,1,0,0,1,1.78-.36,27.59,27.59,0,0,1,4.64,10c4.45-.91,9.08-3.67,9.53-7.95.34-3.33-2-6.38-4.57-7.91-3-1.82-6.66-2.32-9.87-2.58C126.61,86,124.6,85.93,122.59,85.93Z" fill="#093f68"/><rect x="124.09" y="168.17" width="6.68" height="5.64" rx="2.01" transform="translate(-12.91 10.42) rotate(-4.46)" fill="#ffbc0e"/><path d="M126.16,174.91a3,3,0,0,1-3-2.77l-.13-1.62a3,3,0,0,1,2.76-3.23l2.66-.21a3,3,0,0,1,3.23,2.76l.13,1.63a3,3,0,0,1-2.76,3.23h0l-2.66.21ZM129,173.7h0Zm-.28-4.63h-.08l-2.66.21a1,1,0,0,0-.93,1.08l.13,1.63a1,1,0,0,0,1.08.92l2.66-.21a1,1,0,0,0,.93-1.08L129.7,170A1,1,0,0,0,128.7,169.07Z" fill="#093f68"/><polygon points="126.32 173.91 123.61 201.82 130.91 206.9 135.86 200.86 128.98 173.7 126.32 173.91" fill="#ffbc0e"/><path d="M130.91,207.9a1,1,0,0,1-.58-.18L123,202.64a1,1,0,0,1-.42-.92l2.7-27.91a1,1,0,0,1,.92-.9l2.66-.21a1,1,0,0,1,1,.76l6.88,27.16a1,1,0,0,1-.2.88l-4.95,6A1,1,0,0,1,130.91,207.9Zm-6.24-6.57,6,4.22,4.05-4.93-6.55-25.86-1,.08Z" fill="#093f68"/><rect x="94.06" y="177.03" width="16.06" height="7.05" transform="translate(-37.78 27.39) rotate(-12.92)" fill="#fff"/><path d="M95.05,186.78a1,1,0,0,1-.53-.15,1,1,0,0,1-.44-.62l-1.58-6.88a1,1,0,0,1,.75-1.19l15.66-3.59a1,1,0,0,1,.75.12,1,1,0,0,1,.45.63l1.57,6.87a1,1,0,0,1-.75,1.2l-15.65,3.59A.9.9,0,0,1,95.05,186.78Zm-.38-7.12,1.13,4.93,13.71-3.15-1.13-4.92Z" fill="#093f68"/><rect x="85.02" y="195.6" width="11.98" height="4.23" rx="1.95" transform="translate(-51.67 33.35) rotate(-16.25)" fill="#ffc9b0"/><path d="M87.17,202a3,3,0,0,1-2.83-2.13l-.09-.32a2.94,2.94,0,0,1,2-3.65L94,193.59a3,3,0,0,1,3.66,2l.09.31a3,3,0,0,1-2,3.66h0L88,201.83A3,3,0,0,1,87.17,202Zm7.67-6.48a.84.84,0,0,0-.27,0l-7.76,2.26a.93.93,0,0,0-.56.45,1,1,0,0,0-.08.73l.09.31a1,1,0,0,0,1.18.65l7.75-2.26h0a.91.91,0,0,0,.57-.46,1,1,0,0,0,.08-.72l-.09-.31a1,1,0,0,0-.46-.57A.92.92,0,0,0,94.84,195.47Z" fill="#093f68"/><rect x="86.2" y="199.65" width="11.98" height="4.23" rx="1.95" transform="translate(-52.76 33.84) rotate(-16.25)" fill="#ffc9b0"/><path d="M88.35,206a3,3,0,0,1-2.83-2.12l-.09-.32a2.95,2.95,0,0,1,2-3.65l7.75-2.26a3,3,0,0,1,3.66,2l.09.32a3,3,0,0,1-2,3.66h0l-7.75,2.26A2.91,2.91,0,0,1,88.35,206ZM96,199.53a.84.84,0,0,0-.27,0L88,201.83a.92.92,0,0,0-.57.45,1,1,0,0,0-.08.72l.09.32a1,1,0,0,0,.46.57,1,1,0,0,0,.72.08l7.76-2.26a1,1,0,0,0,.64-1.18l-.09-.32A1,1,0,0,0,96,199.53Zm.64,3.14h0Z" fill="#093f68"/><rect x="87.38" y="203.71" width="11.98" height="4.23" rx="1.95" transform="matrix(0.96, -0.28, 0.28, 0.96, -53.85, 34.34)" fill="#ffc9b0"/><path d="M89.53,210.06a2.93,2.93,0,0,1-2.82-2.12l-.1-.32a3,3,0,0,1,2-3.65l7.76-2.26a2.93,2.93,0,0,1,3.65,2l.09.32a2.94,2.94,0,0,1-2,3.65h0l-7.76,2.26A2.92,2.92,0,0,1,89.53,210.06Zm7.67-6.47a.75.75,0,0,0-.26,0l-7.76,2.26a1,1,0,0,0-.65,1.17l.1.32a.93.93,0,0,0,.45.56.91.91,0,0,0,.72.08l7.76-2.26h0a.94.94,0,0,0,.64-1.17l-.09-.32a1,1,0,0,0-.45-.57A1.07,1.07,0,0,0,97.2,203.59Zm.64,3.13h0Z" fill="#093f68"/><rect x="88.56" y="207.77" width="11.98" height="4.23" rx="1.95" transform="translate(-54.94 34.83) rotate(-16.25)" fill="#ffc9b0"/><path d="M90.71,214.12A2.93,2.93,0,0,1,87.89,212l-.09-.32a3,3,0,0,1,2-3.66l7.76-2.26a2.95,2.95,0,0,1,3.65,2l.1.32a2.95,2.95,0,0,1-2,3.65h0L91.54,214A2.92,2.92,0,0,1,90.71,214.12Zm7.67-6.47-.26,0-7.76,2.26a1,1,0,0,0-.64,1.18l.09.31a.92.92,0,0,0,.45.57,1,1,0,0,0,.72.08l7.76-2.26h0a.94.94,0,0,0,.65-1.17l-.1-.32a1,1,0,0,0-.45-.57A1,1,0,0,0,98.38,207.65Z" fill="#093f68"/><path d="M206.76,102.46H189.15a1,1,0,0,1,0-2h17.61a1,1,0,0,1,0,2Z" fill="#dfeaef"/><path d="M206.76,111H189.15a1,1,0,0,1,0-2h17.61a1,1,0,0,1,0,2Z" fill="#dfeaef"/><path d="M199.27,119.58H189.15a1,1,0,0,1,0-2h10.12a1,1,0,0,1,0,2Z" fill="#dfeaef"/><path d="M307.05,126.39H289.87a1,1,0,0,1,0-2h17.18a1,1,0,0,1,0,2Z" fill="#dfeaef"/><path d="M307.05,132.59H289.87a1,1,0,0,1,0-2h17.18a1,1,0,0,1,0,2Z" fill="#dfeaef"/><path d="M298.46,138.79h-8.59a1,1,0,0,1,0-2h8.59a1,1,0,0,1,0,2Z" fill="#dfeaef"/><path d="M295.43,95.51H280.72a1,1,0,0,1,0-2h14.71a1,1,0,0,1,0,2Z" fill="#dfeaef"/><path d="M290.43,102.46h-9.71a1,1,0,0,1,0-2h9.71a1,1,0,0,1,0,2Z" fill="#dfeaef"/></g></svg>