<svg xmlns="http://www.w3.org/2000/svg" viewBox="0 0 400 300"><g id="_111_report_analysis_outline" data-name="#111_report_analysis_outline"><rect x="239.77" y="202.64" width="47.33" height="22.17" fill="#fff"/><path d="M287.1,225.81H239.77a1,1,0,0,1-1-1V202.64a1,1,0,0,1,1-1H287.1a1,1,0,0,1,1,1v22.17A1,1,0,0,1,287.1,225.81Zm-46.33-2H286.1V203.64H240.77Z" fill="#093f68"/><rect x="183.99" y="202.64" width="56.93" height="22.17" fill="#093f68"/><path d="M240.92,225.81H184a1,1,0,0,1-1-1V202.64a1,1,0,0,1,1-1h56.93a1,1,0,0,1,1,1v22.17A1,1,0,0,1,240.92,225.81Zm-55.93-2h54.93V203.64H185Z" fill="#093f68"/><path d="M188.81,191.76s3.09-3.1,5.53-3.57,6.51-1.22,6.87,0-.11,4.25-2.64,4.88S187.77,195.56,188.81,191.76Z" fill="#ffc9b0"/><path d="M192,195.08c-2.54,0-3.26-.73-3.57-1.05a2.48,2.48,0,0,1-.54-2.54,1.1,1.1,0,0,1,.26-.44c.34-.34,3.39-3.33,6.05-3.84,4-.78,7.44-1.26,8,.7a5.55,5.55,0,0,1-.61,4,4.31,4.31,0,0,1-2.75,2.11A29.5,29.5,0,0,1,192,195.08Zm-2.23-2.82c0,.25.05.33.09.37.46.47,2.77.89,8.52-.53a2.33,2.33,0,0,0,1.5-1.17,3.79,3.79,0,0,0,.46-2.31c-.46-.18-1.86-.2-5.76.55C192.92,189.48,190.69,191.35,189.72,192.26Z" fill="#093f68"/><rect x="186.3" y="192.95" width="50.71" height="4.81" fill="#ffbc0e"/><path d="M237,198.76H186.3a1,1,0,0,1-1-1V193a1,1,0,0,1,1-1H237a1,1,0,0,1,1,1v4.81A1,1,0,0,1,237,198.76Zm-49.71-2H236V194H187.3Z" fill="#093f68"/><rect x="145.19" y="197.76" width="145.28" height="8.05" fill="#fff"/><path d="M290.47,206.81H145.19a1,1,0,0,1-1-1v-8.05a1,1,0,0,1,1-1H290.47a1,1,0,0,1,1,1v8.05A1,1,0,0,1,290.47,206.81Zm-144.28-2H289.47v-6.05H146.19Z" fill="#093f68"/><path d="M201.47,127.85s4.56,8.77,2.28,9.34a16.17,16.17,0,0,1-5.51,0" fill="#ffc9b0"/><path d="M201.3,138.44a19.94,19.94,0,0,1-3.23-.27,1,1,0,0,1-.81-1.16,1,1,0,0,1,1.16-.81,15.3,15.3,0,0,0,5,.05c.24-.92-1-4.53-2.79-7.93a1,1,0,1,1,1.77-.93c.91,1.75,3.79,7.6,2.81,9.77a1.74,1.74,0,0,1-1.17,1A11.57,11.57,0,0,1,201.3,138.44Z" fill="#093f68"/><path d="M159.3,160.19h12.25a0,0,0,0,1,0,0v7.08a5.21,5.21,0,0,1-5.21,5.21H164.5a5.21,5.21,0,0,1-5.21-5.21v-7.08A0,0,0,0,1,159.3,160.19Z" fill="#ffc9b0"/><path d="M166.34,173.47H164.5a6.21,6.21,0,0,1-6.2-6.2v-7.08a1,1,0,0,1,1-1h12.25a1,1,0,0,1,1,1v7.08A6.21,6.21,0,0,1,166.34,173.47Zm-6-12.28v6.08a4.2,4.2,0,0,0,4.2,4.2h1.84a4.21,4.21,0,0,0,4.21-4.2v-6.08Z" fill="#093f68"/><path d="M165.42,157.86v3.94a36,36,0,0,1-35.89-36V109.13c0-8.65,13.17-24.81,21.79-24.81,0,0,1.4,8.18,15,15.34,9.48,5,22.86,5.34,35-3.15V125.8C201.32,155.36,185.25,157.86,165.42,157.86Z" fill="#ffc9b0"/><path d="M165.42,162.8a37,37,0,0,1-36.89-37V109.13c0-4.34,3-10.59,7.9-16.3,5.08-6,10.65-9.51,14.89-9.51a1,1,0,0,1,1,.83c0,.08,1.56,7.83,14.44,14.63,8.14,4.29,21.34,5.74,34-3.09a1,1,0,0,1,1.57.82V125.8c0,30-16.86,33-35.9,33.06v2.94A1,1,0,0,1,165.42,162.8ZM150.57,85.37c-3.55.42-8.3,3.7-12.62,8.76-4.51,5.28-7.42,11.17-7.42,15V125.8a35,35,0,0,0,33.89,35v-2.92a1,1,0,0,1,1-1c19.77,0,34.9-2.28,34.9-31.06V98.38c-12.91,8.17-26.18,6.56-34.5,2.17C154.41,94.52,151.33,87.75,150.57,85.37Z" fill="#093f68"/><path d="M197.31,117.78h0l-15.85-.1a2,2,0,0,1,0-4h0l15.85.1a2,2,0,0,1,0,4Z" fill="#093f68"/><ellipse cx="192.55" cy="125.23" rx="3.17" ry="3.17" fill="#093f68"/><path d="M193,180.08a19,19,0,0,0-19.19-19H155.41a19.65,19.65,0,0,0-19.65,19.65v44.08H193Z" fill="#68e1fd"/><path d="M193,225.81H135.76a1,1,0,0,1-1-1V180.73a20.67,20.67,0,0,1,20.65-20.65h18.48A20,20,0,0,1,188.16,166,19.78,19.78,0,0,1,194,180.08v44.73A1,1,0,0,1,193,225.81Zm-56.26-2H192V180.08a17.81,17.81,0,0,0-5.27-12.7,18.1,18.1,0,0,0-12.87-5.3H155.41a18.67,18.67,0,0,0-18.65,18.65Z" fill="#093f68"/><path d="M190.5,143.52a8.59,8.59,0,0,1-8.61-5.81,1,1,0,0,1,1.88-.69c2.44,6.57,10,4,10.27,3.91a1,1,0,1,1,.67,1.88A13,13,0,0,1,190.5,143.52Z" fill="#093f68"/><path d="M204.39,106.64l-11,2.31-4-8.66L188.26,110l-14.07,3s.29,13.07.57,28.15c.28,15.49,2,22.29,2,22.29l-54.66-2.52s-4.41-56.79,9.61-71.21c5.77-5.94,9.56-3.33,9.56-3.33a27,27,0,0,1,3.95-6.46c6.9-7.62,38.36-6.26,49.19,4.42C202.82,92.64,204.39,106.64,204.39,106.64Z" fill="#725858"/><path d="M176.73,164.42h0L122,161.9a1,1,0,0,1-1-.92,291.21,291.21,0,0,1-.45-30.31C121.49,109.18,125,95.16,131,89c4.54-4.68,8.09-4.47,9.77-3.94a26.35,26.35,0,0,1,3.71-5.83c2.74-3,9.08-4.89,17.39-5.13,11.43-.32,26.14,2.5,33.25,9.51,8.59,8.47,10.24,22.34,10.3,22.92a1,1,0,0,1-.79,1.09l-11,2.31a1,1,0,0,1-1.11-.56L190,104l-.71,6.2a1,1,0,0,1-.79.86l-13.25,2.78c.06,3.1.31,14.49.55,27.33.27,15.15,1.92,22,1.94,22.06a1,1,0,0,1-.2.88A1,1,0,0,1,176.73,164.42ZM123,160l52.48,2.42a133.22,133.22,0,0,1-1.72-21.22c-.28-15.07-.57-28.14-.57-28.14a1,1,0,0,1,.79-1l13.37-2.81,1-9a1,1,0,0,1,.84-.87,1,1,0,0,1,1.06.56l3.67,7.94,9.31-2c-.51-3.18-2.71-14-9.59-20.82-6.65-6.57-21.14-9.24-31.79-8.94-7.65.22-13.61,1.89-15.95,4.48a25.94,25.94,0,0,0-3.77,6.17,1,1,0,0,1-1.49.44c-.12-.08-3.24-2-8.28,3.2C119.79,103.36,122.53,152.72,123,160Z" fill="#093f68"/><path d="M178.92,124.18s-6-9.11-10.76.47,1.69,16.11,9.85,16.64" fill="#ffc9b0"/><path d="M178,142.29H178c-4.89-.32-9-2.63-11.06-6.17-1.36-2.37-2.4-6.37.37-11.92,1.57-3.14,3.49-4.8,5.7-4.93,3.75-.21,6.67,4.17,6.79,4.36a1,1,0,0,1-1.67,1.1c-.66-1-2.85-3.57-5-3.46-1.44.09-2.79,1.37-4,3.82-1.88,3.77-2,7.24-.42,10,1.7,3,5.23,4.9,9.45,5.17a1,1,0,0,1-.07,2Z" fill="#093f68"/><path d="M173.89,176.38c.41,4.39,1.51,38.44,25.43,38.44,16.28,0,23.45-13.18,24.85-15l-8.8-9.43c-3.83,3.41-9.94,7-15.84,7-4.39,0-5.73-7-6.88-19" fill="#68e1fd"/><path d="M199.32,215.82c-10.72,0-24-6.65-26.35-38.36,0-.41-.06-.75-.08-1a1,1,0,1,1,2-.18c0,.25.05.59.08,1,1.78,23.88,10.2,36.5,24.36,36.5s21.18-10.36,23.47-13.76l.09-.14-7.59-8.14c-2.59,2.16-8.82,6.65-15.76,6.65-5.52,0-6.79-8.63-7.87-19.91a1,1,0,0,1,.9-1.09,1,1,0,0,1,1.09.9c1.1,11.47,2.41,18.1,5.88,18.1,5.58,0,11.5-3.5,15.17-6.78a1,1,0,0,1,1.4.06l8.8,9.44a1,1,0,0,1,.06,1.29c-.12.16-.29.41-.51.74C222,204.8,214.6,215.82,199.32,215.82Z" fill="#093f68"/><path d="M131.79,167h25.27a13.59,13.59,0,0,1,13.43,11.53l5,46.38H122.78l-4.42-42.27A13.58,13.58,0,0,1,131.79,167Z" fill="#093f68"/><path d="M175.54,225.92H122.78a1,1,0,0,1-1-.9l-4.42-42.27A14.59,14.59,0,0,1,131.79,166h25.27a14.51,14.51,0,0,1,14.42,12.38l5.05,46.42a1,1,0,0,1-.25.78A1,1,0,0,1,175.54,225.92Zm-51.86-2h50.74l-4.93-45.27A12.5,12.5,0,0,0,157.06,168H131.79a12.59,12.59,0,0,0-12.44,14.49Z" fill="#093f68"/><path d="M126.15,167h25.28a13.59,13.59,0,0,1,13.43,11.53l5,46.38H117.15l-4.42-42.27A13.58,13.58,0,0,1,126.15,167Z" fill="#ffbc0e"/><path d="M169.9,225.92H117.15a1,1,0,0,1-1-.9l-4.42-42.27A14.59,14.59,0,0,1,126.15,166h25.28a14.5,14.5,0,0,1,14.41,12.38l5.06,46.42a1,1,0,0,1-1,1.11Zm-51.85-2h50.74l-4.93-45.27A12.5,12.5,0,0,0,151.43,168H126.15a12.59,12.59,0,0,0-12.43,14.49Z" fill="#093f68"/><path d="M216.22,191.31s4.92-4.93,6.33-5.63,8.85.06,10.42,1.13c2.88,2,3.09,4.43,1.83,5.56s-4.09-.78-4.09-.78-3,5.1-7.72,6.7Z" fill="#ffc9b0"/><path d="M223,199.29a1,1,0,0,1-.72-.3l-6.77-7a1,1,0,0,1,0-1.4c.84-.84,5.11-5.08,6.59-5.82,1.78-.88,9.57-.07,11.43,1.2a6.13,6.13,0,0,1,3,4.42,3.31,3.31,0,0,1-1.07,2.71c-1.3,1.16-3.26.44-4.43-.17-1.11,1.6-3.83,5-7.72,6.3A.86.86,0,0,1,223,199.29Zm-5.37-8,5.63,5.81c4-1.67,6.57-6,6.6-6a1,1,0,0,1,.64-.47,1,1,0,0,1,.78.14c1,.68,2.48,1.2,2.86.86a1.29,1.29,0,0,0,.4-1.09,4.28,4.28,0,0,0-2.13-2.9c-1.33-.91-8.36-1.55-9.41-1.06A46.49,46.49,0,0,0,217.62,191.32Z" fill="#093f68"/><rect x="220.27" y="128.37" width="70.2" height="54" rx="4.82" fill="#093f68"/><path d="M285.66,183.37H225.09a5.83,5.83,0,0,1-5.82-5.82V133.19a5.83,5.83,0,0,1,5.82-5.82h60.57a5.82,5.82,0,0,1,5.81,5.82v44.36A5.82,5.82,0,0,1,285.66,183.37Zm-60.57-54a3.82,3.82,0,0,0-3.82,3.82v44.36a3.82,3.82,0,0,0,3.82,3.82h60.57a3.82,3.82,0,0,0,3.81-3.82V133.19a3.82,3.82,0,0,0-3.81-3.82Z" fill="#093f68"/><path d="M285.41,133.18v44.37a4.82,4.82,0,0,1-4.82,4.82H220a4.81,4.81,0,0,1-4.81-4.82V133.18a4.81,4.81,0,0,1,4.81-4.81h60.57A4.81,4.81,0,0,1,285.41,133.18Z" fill="#68e1fd"/><path d="M280.59,183.37H220a5.82,5.82,0,0,1-5.81-5.82V133.18a5.81,5.81,0,0,1,5.81-5.81h60.57a5.82,5.82,0,0,1,5.82,5.81v44.37A5.83,5.83,0,0,1,280.59,183.37Zm-60.57-54a3.82,3.82,0,0,0-3.81,3.81v44.37a3.82,3.82,0,0,0,3.81,3.82h60.57a3.83,3.83,0,0,0,3.82-3.82V133.18a3.82,3.82,0,0,0-3.82-3.81Z" fill="#093f68"/><rect x="246.74" y="182.37" width="7.13" height="10.57" fill="#093f68"/><path d="M253.87,194h-7.13a1,1,0,0,1-1-1V182.37a1,1,0,0,1,1-1h7.13a1,1,0,0,1,1,1V193A1,1,0,0,1,253.87,194Zm-6.13-2h5.13v-8.58h-5.13Z" fill="#093f68"/><path d="M242.94,192.51h14.73a2,2,0,0,1,2,2v2.39a0,0,0,0,1,0,0H240.92a0,0,0,0,1,0,0v-2.39A2,2,0,0,1,242.94,192.51Z" fill="#093f68"/><path d="M259.69,197.92H240.92a1,1,0,0,1-1-1v-2.39a3,3,0,0,1,3-3h14.73a3,3,0,0,1,3,3v2.39A1,1,0,0,1,259.69,197.92Zm-17.77-2h16.77v-1.39a1,1,0,0,0-1-1H242.94a1,1,0,0,0-1,1Z" fill="#093f68"/><path d="M285.41,133.18v39.58h-70.2V133.18a4.81,4.81,0,0,1,4.81-4.81h60.57A4.81,4.81,0,0,1,285.41,133.18Z" fill="#fff"/><path d="M285.41,173.76h-70.2a1,1,0,0,1-1-1V133.18a5.81,5.81,0,0,1,5.81-5.81h60.57a5.82,5.82,0,0,1,5.82,5.81v39.58A1,1,0,0,1,285.41,173.76Zm-69.2-2h68.2V133.18a3.82,3.82,0,0,0-3.82-3.81H220a3.82,3.82,0,0,0-3.81,3.81Z" fill="#093f68"/><path d="M303.61,225.81H96.39a1,1,0,1,1,0-2H303.61a1,1,0,0,1,0,2Z" fill="#093f68"/><path d="M275.83,166.24H230a1,1,0,0,1-1-1V144.66a1,1,0,0,1,2,0v19.58h44.85a1,1,0,0,1,0,2Z" fill="#093f68"/><rect x="236.38" y="155.34" width="6.76" height="9.89" fill="#f56132"/><path d="M243.14,166.24h-6.76a1,1,0,0,1-1-1v-9.9a1,1,0,0,1,1-1h6.76a1,1,0,0,1,1,1v9.9A1,1,0,0,1,243.14,166.24Zm-5.76-2h4.76v-7.9h-4.76Z" fill="#093f68"/><rect x="249.51" y="149.93" width="6.76" height="15.31" fill="#ffbc0e"/><path d="M256.26,166.24h-6.75a1,1,0,0,1-1-1V149.93a1,1,0,0,1,1-1h6.75a1,1,0,0,1,1,1v15.31A1,1,0,0,1,256.26,166.24Zm-5.75-2h4.75V150.93h-4.75Z" fill="#093f68"/><rect x="262.64" y="144.02" width="6.76" height="21.22" fill="#70cc40"/><path d="M269.39,166.24h-6.75a1,1,0,0,1-1-1V144a1,1,0,0,1,1-1h6.75a1,1,0,0,1,1,1v21.22A1,1,0,0,1,269.39,166.24Zm-5.75-2h4.75V145h-4.75Z" fill="#093f68"/><path d="M243.9,136.62H230a1,1,0,0,1,0-2H243.9a1,1,0,0,1,0,2Z" fill="#dfeaef"/><path d="M260.93,137.14h-3.38a1,1,0,0,1,0-2h3.38a1,1,0,0,1,0,2Z" fill="#dfeaef"/><path d="M271.93,137.14H267a1,1,0,0,1,0-2h4.91a1,1,0,0,1,0,2Z" fill="#dfeaef"/></g></svg>