<svg xmlns="http://www.w3.org/2000/svg" viewBox="0 0 400 300"><g id="_112_report_analysis_outline" data-name="#112_report_analysis_outline"><path d="M115.6,205.93H284.4a0,0,0,0,1,0,0v5.87a7.93,7.93,0,0,1-7.93,7.93H123.53a7.93,7.93,0,0,1-7.93-7.93v-5.87A0,0,0,0,1,115.6,205.93Z" fill="#68e1fd"/><path d="M276.47,220.73H123.53a8.94,8.94,0,0,1-8.93-8.92v-5.88a1,1,0,0,1,1-1H284.4a1,1,0,0,1,1,1v5.88A8.94,8.94,0,0,1,276.47,220.73ZM116.6,206.93v4.88a6.93,6.93,0,0,0,6.93,6.92H276.47a6.93,6.93,0,0,0,6.93-6.92v-4.88Z" fill="#093f68"/><path d="M134,110.27H266a7,7,0,0,1,7,7v88.62a0,0,0,0,1,0,0H127a0,0,0,0,1,0,0V117.31A7,7,0,0,1,134,110.27Z" fill="#68e1fd"/><path d="M273,206.93H127a1,1,0,0,1-1-1V117.31a8,8,0,0,1,8-8H266a8,8,0,0,1,8,8v88.62A1,1,0,0,1,273,206.93Zm-145-2H272V117.31a6,6,0,0,0-6-6H134a6,6,0,0,0-6,6Z" fill="#093f68"/><rect x="137.9" y="121.54" width="124.21" height="73.71" fill="#fff"/><path d="M262.1,196.24H137.9a1,1,0,0,1-1-1v-73.7a1,1,0,0,1,1-1H262.1a1,1,0,0,1,1,1v73.7A1,1,0,0,1,262.1,196.24Zm-123.2-2H261.1v-71.7H138.9Z" fill="#093f68"/><path d="M187.15,205.93h25.71a0,0,0,0,1,0,0v1.46a4.69,4.69,0,0,1-4.69,4.69H191.83a4.69,4.69,0,0,1-4.69-4.69v-1.46A0,0,0,0,1,187.15,205.93Z" fill="#093f68"/><path d="M208.17,213.08H191.83a5.7,5.7,0,0,1-5.68-5.69v-1.46a1,1,0,0,1,1-1h25.7a1,1,0,0,1,1,1v1.46A5.7,5.7,0,0,1,208.17,213.08Zm-20-6.15v.46a3.69,3.69,0,0,0,3.68,3.69h16.34a3.69,3.69,0,0,0,3.68-3.69v-.46Z" fill="#093f68"/><circle cx="200" cy="115.18" r="0.98" fill="#68e1fd"/><path d="M200,117.16a2,2,0,1,1,2-2A2,2,0,0,1,200,117.16Zm0-2s0,0,0,0l1,0Z" fill="#093f68"/><rect x="151.57" y="87.95" width="96.86" height="107.29" fill="#fff"/><path d="M248.43,196.24H151.57a1,1,0,0,1-1-1V88a1,1,0,0,1,1-1h96.86a1,1,0,0,1,1,1V195.24A1,1,0,0,1,248.43,196.24Zm-95.86-2h94.86V89H152.57Z" fill="#093f68"/><path d="M229.26,128.17a29.06,29.06,0,0,1-1.1,8,28.15,28.15,0,0,1-2.42,6A29.31,29.31,0,0,1,200,157.44c-.69,0-1.37,0-2-.08a29.25,29.25,0,1,1,29.25-39.86A28.93,28.93,0,0,1,229.26,128.17Z" fill="#70cc40"/><path d="M200,158.44c-.82,0-1.49,0-2.13-.08a30.25,30.25,0,1,1,30.28-41.22,29.94,29.94,0,0,1,2.08,11,30.24,30.24,0,0,1-1.13,8.24,29.08,29.08,0,0,1-2.5,6.19A30.32,30.32,0,0,1,200,158.44Zm0-58.51a28.25,28.25,0,0,0-2,56.43,19.65,19.65,0,0,0,2,.08,28.35,28.35,0,0,0,24.85-14.79,27.5,27.5,0,0,0,2.32-5.78A28.25,28.25,0,0,0,200,99.93Z" fill="#093f68"/><path d="M229.26,128.17a29.06,29.06,0,0,1-1.1,8,28.15,28.15,0,0,1-2.42,6l-25.72-14V98.93a29.28,29.28,0,0,1,29.24,29.24Z" fill="#ffbc0e"/><path d="M225.75,143.13a1,1,0,0,1-.48-.12l-25.73-14a1,1,0,0,1-.52-.88V98.93a1,1,0,0,1,1-1,30.28,30.28,0,0,1,29.1,38.48,29.08,29.08,0,0,1-2.5,6.19,1,1,0,0,1-.59.49A.9.9,0,0,1,225.75,143.13ZM201,127.57l24.31,13.19A28.28,28.28,0,0,0,201,100Z" fill="#093f68"/><path d="M229.26,128.17a29.06,29.06,0,0,1-1.1,8,28.15,28.15,0,0,1-2.42,6l-25.72-14,27.21-10.67A28.93,28.93,0,0,1,229.26,128.17Z" fill="#f56132"/><path d="M225.75,143.13a1,1,0,0,1-.48-.12l-25.73-14a1,1,0,0,1,.11-1.81l27.22-10.67a1,1,0,0,1,1.29.56,29.83,29.83,0,0,1,2.09,11,30.24,30.24,0,0,1-1.13,8.24,29.08,29.08,0,0,1-2.5,6.19,1,1,0,0,1-.59.49A.9.9,0,0,1,225.75,143.13Zm-23.37-14.81,23,12.44a28.52,28.52,0,0,0,1.33-22Z" fill="#093f68"/><path d="M232.1,166H167.9a1,1,0,0,1,0-2h64.2a1,1,0,0,1,0,2Z" fill="#dfeaef"/><path d="M232.1,175.78H167.9a1,1,0,0,1,0-2h64.2a1,1,0,0,1,0,2Z" fill="#dfeaef"/><path d="M212.85,185.54H167.9a1,1,0,0,1,0-2h44.95a1,1,0,0,1,0,2Z" fill="#dfeaef"/><rect x="239.76" y="149.25" width="44.64" height="35.29" rx="2.47" fill="#fff"/><path d="M281.93,185.54h-39.7a3.47,3.47,0,0,1-3.47-3.47V151.72a3.47,3.47,0,0,1,3.47-3.47h39.7a3.48,3.48,0,0,1,3.47,3.47v30.35A3.48,3.48,0,0,1,281.93,185.54Zm-39.7-35.29a1.47,1.47,0,0,0-1.47,1.47v30.35a1.47,1.47,0,0,0,1.47,1.47h39.7a1.47,1.47,0,0,0,1.47-1.47V151.72a1.47,1.47,0,0,0-1.47-1.47Z" fill="#093f68"/><rect x="151.57" y="80.27" width="96.86" height="7.69" fill="#fff"/><path d="M248.43,89H151.57a1,1,0,0,1-1-1V80.27a1,1,0,0,1,1-1h96.86a1,1,0,0,1,1,1V88A1,1,0,0,1,248.43,89Zm-95.86-2h94.86V81.27H152.57Z" fill="#093f68"/><circle cx="157.35" cy="83.83" r="1.31" fill="#093f68"/><circle cx="161.69" cy="83.83" r="1.31" fill="#dfeaef"/><circle cx="166.04" cy="83.83" r="1.31" fill="#dfeaef"/><path d="M279.55,178.18H247.08a1,1,0,0,1-1-1V156.61a1,1,0,0,1,2,0v19.57h31.47a1,1,0,0,1,0,2Z" fill="#dfeaef"/><path d="M247.08,178.18a1,1,0,0,1-.66-.24,1,1,0,0,1-.1-1.41l10.48-12.17a1,1,0,0,1,1.37-.13l7.08,5.62,9.12-10.08a1,1,0,0,1,1.42-.07,1,1,0,0,1,.07,1.41l-9.76,10.77a1,1,0,0,1-1.36.11l-7.06-5.59-9.85,11.43A1,1,0,0,1,247.08,178.18Z" fill="#dfeaef"/><rect x="138.99" y="175.87" width="4.95" height="10.37" transform="translate(215.26 -36.54) rotate(56.74)" fill="#fff"/><path d="M138.49,187a1,1,0,0,1-.84-.45l-2.71-4.14a1,1,0,0,1-.15-.75,1,1,0,0,1,.43-.63l8.68-5.69a1,1,0,0,1,1.38.29l2.71,4.14a1,1,0,0,1-.29,1.38L139,186.8A1,1,0,0,1,138.49,187Zm-1.33-4.85,1.61,2.47,7-4.59-1.61-2.47Z" fill="#093f68"/><rect x="144.45" y="171.41" width="7.59" height="10.37" transform="translate(214.6 -44.22) rotate(56.74)" fill="#fff"/><path d="M146,183.62a1,1,0,0,1-.84-.45L141,176.82a1,1,0,0,1,.28-1.39l8.67-5.68a1,1,0,0,1,1.39.28l4.16,6.35a1,1,0,0,1,.15.75,1.06,1.06,0,0,1-.43.64l-8.68,5.68A1,1,0,0,1,146,183.62Zm-2.78-7.06,3.06,4.67,7-4.59L150.21,172Z" fill="#093f68"/><rect x="124.62" y="177.73" width="7.59" height="23.76" rx="1.74" transform="translate(216.53 -21.76) rotate(56.74)" fill="#fff"/><path d="M121.07,199.63a2.6,2.6,0,0,1-.56-.06,2.66,2.66,0,0,1-1.74-1.18h0L116.52,195a2.73,2.73,0,0,1,.79-3.79L134.26,180a2.73,2.73,0,0,1,3.79.79l2.26,3.44a2.74,2.74,0,0,1-.79,3.79l-17,11.12A2.72,2.72,0,0,1,121.07,199.63Zm14.69-18a.72.72,0,0,0-.4.12l-17,11.12a.77.77,0,0,0-.32.47.75.75,0,0,0,.11.56l2.26,3.44h0a.73.73,0,0,0,.46.32.74.74,0,0,0,.56-.11l16.95-11.12a.74.74,0,0,0,.22-1l-2.26-3.44A.75.75,0,0,0,135.76,181.59Z" fill="#093f68"/><path d="M177.66,157.31A17.85,17.85,0,1,0,172.52,182,17.86,17.86,0,0,0,177.66,157.31ZM158.28,178.4A12.15,12.15,0,1,1,174,171.55,12.15,12.15,0,0,1,158.28,178.4Z" fill="#fff" stroke="#093f68" stroke-linecap="round" stroke-linejoin="round" stroke-width="2"/></g></svg>