<svg xmlns="http://www.w3.org/2000/svg" viewBox="0 0 400 300"><g id="_103_resting_outline" data-name="#103_resting_outline"><path d="M136.86,131.5H261.78a6.27,6.27,0,0,1,6.27,6.27v53a0,0,0,0,1,0,0H130.59a0,0,0,0,1,0,0v-53A6.27,6.27,0,0,1,136.86,131.5Z" fill="#093f68"/><path d="M268.05,191.77H130.59a1,1,0,0,1-1-1v-53a7.28,7.28,0,0,1,7.27-7.27H261.78a7.28,7.28,0,0,1,7.27,7.27v53A1,1,0,0,1,268.05,191.77Zm-136.46-2H267.05v-52a5.27,5.27,0,0,0-5.27-5.27H136.86a5.27,5.27,0,0,0-5.27,5.27Z" fill="#093f68"/><path d="M278.6,197.12V239a2,2,0,0,1-2,2H259.31a2,2,0,0,1-2-2v-16.1a2.74,2.74,0,0,0-2.73-2.74H145.39a2.74,2.74,0,0,0-2.73,2.74V239a2,2,0,0,1-2,2h-17.3a2,2,0,0,1-2-2V197.12a6.35,6.35,0,0,1,6.35-6.35h144.5A6.35,6.35,0,0,1,278.6,197.12Z" fill="#68e1fd"/><path d="M276.62,242H259.31a3,3,0,0,1-3-3v-16.1a1.74,1.74,0,0,0-1.74-1.74H145.4a1.74,1.74,0,0,0-1.74,1.74V239a3,3,0,0,1-3,3h-17.3a3,3,0,0,1-3-3V197.12a7.36,7.36,0,0,1,7.35-7.35h144.5a7.36,7.36,0,0,1,7.35,7.35V239A3,3,0,0,1,276.62,242ZM145.4,219.14H254.59a3.74,3.74,0,0,1,3.74,3.74V239a1,1,0,0,0,1,1h17.31a1,1,0,0,0,1-1V197.12a5.36,5.36,0,0,0-5.35-5.35H127.75a5.36,5.36,0,0,0-5.35,5.35V239a1,1,0,0,0,1,1h17.3a1,1,0,0,0,1-1v-16.1A3.74,3.74,0,0,1,145.4,219.14Z" fill="#093f68"/><path d="M232.92,180.94V156.36a18.6,18.6,0,0,0-18.6-18.6H185a18.6,18.6,0,0,0-18.6,18.6v24.58Z" fill="#f56132"/><path d="M232.92,181.94H166.38a1,1,0,0,1-1-1V156.36a19.62,19.62,0,0,1,19.6-19.6h29.34a19.62,19.62,0,0,1,19.6,19.6v24.58A1,1,0,0,1,232.92,181.94Zm-65.54-2h64.54V156.36a17.61,17.61,0,0,0-17.6-17.6H185a17.62,17.62,0,0,0-17.6,17.6Z" fill="#093f68"/><path d="M195.67,134.22H205a0,0,0,0,1,0,0v5.36a4,4,0,0,1-4,4h-1.41a4,4,0,0,1-4-4v-5.36A0,0,0,0,1,195.67,134.22Z" fill="#ffc9b0"/><path d="M201,144.53h-1.4a5,5,0,0,1-5-4.95v-5.36a1,1,0,0,1,1-1H205a1,1,0,0,1,1,1v5.36A5,5,0,0,1,201,144.53Zm-4.36-9.31v4.36a3,3,0,0,0,3,2.95H201a3,3,0,0,0,3-2.95v-4.36Z" fill="#093f68"/><path d="M167.3,108.06a106,106,0,0,1-.05-11c0,.49-4.05-1.83-4.35-2.12a7.87,7.87,0,0,1-2.28-4.55,11.69,11.69,0,0,1,2.55-8.57c.86-1.06,1.83-1.48,2.25-2.7.58-1.74-.08-4.12.5-6A8.17,8.17,0,0,1,170.06,68a5.3,5.3,0,0,1,6.2,1.21c-.93-1.16,2.32-5.28,3-6a10.4,10.4,0,0,1,6.3-3.29c2.68-.41,6,.47,6.71,3.1a9.81,9.81,0,0,1,17.62,5.14c3.34-1.4,7.17-2.14,10.56-.89s6,5,5.05,8.49c2.29-.6,4.7-1.18,7-.65,7.92,1.82,9.34,13.27,2.67,17.58a3.16,3.16,0,0,0-.8.6,2.54,2.54,0,0,0-.42,1.21c-.57,3.32-1.14,6.63-1.7,10-.66,3.87-.34,4-3.75,5.21-6.48,2.4-11.85,4.45-18.95,4.55-7.6.11-15.16-1.07-22.75-1.22-3-.06-5.89,0-8.83.19-1.72.1-7.17,1.46-8.57.58S167.47,110.48,167.3,108.06Z" fill="#725858"/><path d="M208.59,115.12c-4,0-7.92-.31-11.77-.62-3.28-.26-6.67-.53-10-.6-2.59-.06-5.37,0-8.76.19-.45,0-1.28.16-2.17.31-3.32.55-5.77.88-7,.12-2-1.27-2.45-4.26-2.6-6.4h0a96.18,96.18,0,0,1-.08-10.24,21.42,21.42,0,0,1-4-2.23,8.85,8.85,0,0,1-2.57-5.14,12.58,12.58,0,0,1,2.77-9.33,9.39,9.39,0,0,1,1-1,3.2,3.2,0,0,0,1-1.33,8.24,8.24,0,0,0,.2-2.62,11,11,0,0,1,.29-3.38A9.09,9.09,0,0,1,169.64,67a6.59,6.59,0,0,1,5.77.16,18,18,0,0,1,3.15-4.76,11.38,11.38,0,0,1,6.88-3.6c2.62-.4,5.65.31,7.1,2.3a10.81,10.81,0,0,1,18.19,5.54c3.75-1.35,7.22-1.5,10.09-.43,3.18,1.17,6,4.44,5.91,8.08a13.57,13.57,0,0,1,6-.29,10,10,0,0,1,7.5,8.31,10.83,10.83,0,0,1-4.52,11.09l-.14.09a1.83,1.83,0,0,0-.42.3,2,2,0,0,0-.21.74l-1.87,11c-.52,3.23-.79,3.72-4.22,5l-.5.18c-6.28,2.32-11.69,4.33-18.79,4.43ZM185,111.88c.63,0,1.25,0,1.86,0,3.39.07,6.81.34,10.12.6,4.13.33,8.41.68,12.59.62,6.75-.1,12-2.05,18.13-4.3l.49-.19c2.54-.94,2.54-.94,2.95-3.43l1.86-11a3.41,3.41,0,0,1,.63-1.66,3.72,3.72,0,0,1,.91-.75l.12-.07a8.82,8.82,0,0,0,3.64-9.07,7.92,7.92,0,0,0-6-6.7c-2.16-.5-4.59.14-6.54.65a1,1,0,0,1-1.22-1.24c.85-3.06-1.61-6.23-4.43-7.28-3.41-1.26-7.22-.22-9.82.87a1,1,0,0,1-.91-.07,1,1,0,0,1-.47-.77,8.81,8.81,0,0,0-15.83-4.62,1,1,0,0,1-1.77-.36c-.48-1.93-3.22-2.72-5.58-2.35a9.34,9.34,0,0,0-5.73,3c-1.15,1.23-3,4-2.93,4.8a1,1,0,0,1-1.61,1.19h0a4.34,4.34,0,0,0-5-.92,7.08,7.08,0,0,0-3.59,4.52,9.08,9.08,0,0,0-.21,2.77,9.81,9.81,0,0,1-.31,3.3,5,5,0,0,1-1.58,2.16,8.35,8.35,0,0,0-.83.85,10.63,10.63,0,0,0-2.33,7.81,6.85,6.85,0,0,0,2,4,26,26,0,0,0,3.45,1.85l.24,0a1,1,0,0,1,1,1h0A103,103,0,0,0,168.3,108h0c.18,2.63.75,4.26,1.67,4.84.67.41,4.12-.16,5.59-.4,1-.16,1.83-.3,2.39-.34C180.6,112,182.88,111.88,185,111.88Z" fill="#093f68"/><ellipse cx="173.72" cy="110.04" rx="9.05" ry="7.79" fill="#ffc9b0"/><path d="M173.72,118.83c-5.54,0-10-3.94-10-8.79s4.5-8.8,10-8.8,10.05,4,10.05,8.8S179.26,118.83,173.72,118.83Zm0-15.59c-4.43,0-8,3.05-8,6.8s3.61,6.79,8,6.79,8.05-3,8.05-6.79S178.16,103.24,173.72,103.24Z" fill="#093f68"/><ellipse cx="226.46" cy="110.04" rx="9.05" ry="7.79" fill="#ffc9b0"/><path d="M226.46,118.83c-5.54,0-10.05-3.94-10.05-8.79s4.51-8.8,10.05-8.8,10,4,10,8.8S232,118.83,226.46,118.83Zm0-15.59c-4.44,0-8.05,3.05-8.05,6.8s3.61,6.79,8.05,6.79,8-3,8-6.79S230.89,103.24,226.46,103.24Z" fill="#093f68"/><path d="M200.33,135.44a27.28,27.28,0,0,1-27.28-27.28c0-5.75.3-11.47.6-17.21,2.69-.91,5.51-1.4,8.16-2.32A8.82,8.82,0,0,0,187.4,82a9.59,9.59,0,0,0,14-2.11c-.68,1,4.7,2.91,5.46,2.89a11.16,11.16,0,0,0,6.69-2.87c-.63,2,.86,4.27,2.86,5a6.92,6.92,0,0,0,6-1.14A5.16,5.16,0,0,0,223.58,89c1.33,1.36,2.47,2.08,4.26,1.47,0,0-.23,11.57-.23,17.69A27.28,27.28,0,0,1,200.33,135.44Z" fill="#ffc9b0"/><path d="M200.33,136.44a28.32,28.32,0,0,1-28.28-28.28c0-5.9.32-11.94.61-17.27a1,1,0,0,1,.68-.89c1.34-.45,2.71-.8,4-1.14s2.78-.72,4.11-1.18a7.87,7.87,0,0,0,4.93-5.86,1,1,0,0,1,1.61-.61,8.59,8.59,0,0,0,12.58-1.89h0a1,1,0,0,1,1.83.61,14.61,14.61,0,0,0,4.47,1.84,10.1,10.1,0,0,0,6-2.62,1,1,0,0,1,1.21-.09,1,1,0,0,1,.41,1.13c-.47,1.53.79,3.23,2.23,3.72a5.9,5.9,0,0,0,5.11-1,1,1,0,0,1,1.51,1.17,4.19,4.19,0,0,0,.9,4.23c1.33,1.35,2.05,1.63,3.23,1.23a1,1,0,0,1,.91.13,1,1,0,0,1,.41.83c0,.12-.23,11.63-.23,17.67A28.32,28.32,0,0,1,200.33,136.44ZM174.62,91.69c-.28,5.13-.57,10.87-.57,16.47a26.28,26.28,0,0,0,52.56,0c0-4.88.15-13.32.21-16.47a5.2,5.2,0,0,1-3.95-2,6.21,6.21,0,0,1-1.72-4.16,7.21,7.21,0,0,1-5,.26,5.54,5.54,0,0,1-3.54-3.89,11.41,11.41,0,0,1-5.66,1.86,14.09,14.09,0,0,1-5.56-2.17,10.58,10.58,0,0,1-13.36,2,9.79,9.79,0,0,1-5.85,5.95c-1.41.49-2.87.86-4.27,1.22C176.8,91.07,175.69,91.35,174.62,91.69Z" fill="#093f68"/><path d="M200.43,112.29a14.63,14.63,0,0,1-2.49-.21,1,1,0,0,1-.81-1.15,1,1,0,0,1,1.15-.82,12,12,0,0,0,3.51.08c0-.87-.91-3.39-2.11-5.7a1,1,0,0,1,1.77-.93c.9,1.73,2.91,5.92,2.14,7.62a1.56,1.56,0,0,1-1.05.89A8.74,8.74,0,0,1,200.43,112.29Z" fill="#093f68"/><path d="M181.54,181.46a1,1,0,0,1-1-1V152.79a1,1,0,0,1,2,0v27.67A1,1,0,0,1,181.54,181.46Z" fill="#093f68"/><path d="M217.76,181.46a1,1,0,0,1-1-1V152.79a1,1,0,1,1,2,0v27.67A1,1,0,0,1,217.76,181.46Z" fill="#093f68"/><path d="M199.63,181.46a1,1,0,0,1-1-1V143.53a1,1,0,1,1,2,0v36.93A1,1,0,0,1,199.63,181.46Z" fill="#093f68"/><ellipse cx="199.63" cy="119.71" rx="2.79" ry="4.64" fill="#093f68"/><path d="M199.63,125.35c-2.13,0-3.8-2.47-3.8-5.64s1.67-5.63,3.8-5.63,3.79,2.47,3.79,5.63S201.75,125.35,199.63,125.35Zm0-9.27c-.85,0-1.8,1.55-1.8,3.63s.95,3.64,1.8,3.64,1.79-1.55,1.79-3.64S200.47,116.08,199.63,116.08Z" fill="#093f68"/><path d="M218.12,99.54a17.29,17.29,0,0,1-10.37-4,2,2,0,0,1,2.63-3h0c.05,0,5,4.26,10.23,2.65A2,2,0,0,1,221.79,99,12.65,12.65,0,0,1,218.12,99.54Z" fill="#093f68"/><path d="M216.25,105a1,1,0,0,1-.84-.46c-.92-1.39-1.9-2.14-2.91-2.22a3.83,3.83,0,0,0-2.69,1.2,1,1,0,0,1-1.42.07,1,1,0,0,1-.07-1.41,5.68,5.68,0,0,1,4.34-1.85c1.66.12,3.15,1.18,4.42,3.12a1,1,0,0,1-.29,1.38A1,1,0,0,1,216.25,105Z" fill="#093f68"/><path d="M183.71,99.54a12.54,12.54,0,0,1-3.66-.54,2,2,0,0,1,1.17-3.83c5.23,1.61,10.19-2.61,10.24-2.65a2,2,0,0,1,2.63,3A17.33,17.33,0,0,1,183.71,99.54Z" fill="#093f68"/><path d="M185.59,105a1,1,0,0,1-.55-.17,1,1,0,0,1-.29-1.38c1.27-1.94,2.76-3,4.43-3.12a5.74,5.74,0,0,1,4.33,1.85,1,1,0,0,1-1.48,1.34,3.84,3.84,0,0,0-2.71-1.2c-1,.08-2,.83-2.9,2.22A1,1,0,0,1,185.59,105Z" fill="#093f68"/><path d="M208.44,138.11c1.22-1.87,3.25-3.54,2.73-7.75-.37-3-6.52-9.22-9.15-6.7s-6.41,9.29-6.41,9.29,2.24-7-.64-6.87c-2.35.1-4.27,11.46-5.23,15-1.15.64-20.5,25.6-20.5,25.6-2.45,3.84-3.34,10.6.3,13.36,5.79,4.38,11.21,1.31,12.86-1.27l18.4-33.66A20.22,20.22,0,0,0,208.44,138.11Z" fill="#ffc9b0"/><path d="M175.57,183.21a10.85,10.85,0,0,1-6.63-2.41c-4.31-3.26-3.06-10.76-.55-14.69,6.81-8.79,18-23.08,20.45-25.59.19-.72.42-1.72.67-2.85,1.94-8.63,3.18-12.49,5.41-12.59a2.17,2.17,0,0,1,1.88.84,3.73,3.73,0,0,1,.63,2.1,31.43,31.43,0,0,1,3.89-5.08,3.56,3.56,0,0,1,3.8-.57c3,1.08,6.71,5.19,7,7.86a9.21,9.21,0,0,1-2.21,7.48c-.24.32-.47.63-.67.95h0a21.61,21.61,0,0,1-7.75,7.17l-18.26,33.38a9.23,9.23,0,0,1-6,3.85A9.13,9.13,0,0,1,175.57,183.21Zm19.48-56.13h0c-1.19.56-2.9,8.16-3.55,11-.29,1.31-.54,2.43-.75,3.2a1.05,1.05,0,0,1-.48.61c-1.08.89-13,16-20.2,25.35-2.05,3.21-3.07,9.53.11,11.94a8.59,8.59,0,0,0,6.74,1.89,7.27,7.27,0,0,0,4.67-2.9l18.37-33.6a1,1,0,0,1,.47-.43,19.47,19.47,0,0,0,7.21-6.6c.23-.35.48-.69.75-1a7.28,7.28,0,0,0,1.83-6c-.22-1.77-3.28-5.35-5.73-6.23-1.17-.41-1.6,0-1.74.13-2.5,2.4-6.19,9-6.22,9.06a1,1,0,0,1-1.27.43,1,1,0,0,1-.56-1.22c.68-2.12,1.06-4.85.55-5.51C195.19,127.11,195.16,127.08,195.05,127.08Zm13.39,11h0Z" fill="#093f68"/><path d="M128,190.77s-.27-8.55,5.46-12.09,5.18-1.09,13.09-4.36,11.45-6.82,18-5.46,11.18,3.22,19.36-.29,11.73-4.61,19.37-2.16,11.73,3.27,24.27.82,11.73.82,20.73,3.27,13.09,4.22,18,7.43,6,12.84,6,12.84Z" fill="#fff"/><path d="M272.23,191.77H128a1,1,0,0,1-1-1c0-.37-.22-9.18,5.93-13a13.84,13.84,0,0,1,6.4-2.46,25.75,25.75,0,0,0,6.83-2c2.16-.9,4-1.83,5.66-2.65,4.39-2.19,7.86-3.92,12.93-2.86.86.17,1.69.36,2.49.54,5.29,1.2,9.46,2.15,16.28-.78,8.51-3.67,12.2-4.72,20.06-2.19,7.64,2.45,11.67,3.16,23.78.79,9-1.76,11.42-.65,15.12,1a36.47,36.47,0,0,0,6.06,2.27c8.85,2.41,13.13,4.18,18.29,7.55s6.4,13.16,6.44,13.57a1,1,0,0,1-.24.78A1,1,0,0,1,272.23,191.77Zm-143.25-2H271.07c-.45-2.54-1.87-8.7-5.39-11-5-3.25-9.1-5-17.71-7.3a39.48,39.48,0,0,1-6.37-2.37c-3.46-1.58-5.55-2.52-13.91-.89-12.57,2.46-16.78,1.72-24.77-.85-7.25-2.33-10.5-1.39-18.66,2.12-7.42,3.19-12.09,2.13-17.51.9l-2.46-.54c-4.39-.91-7.27.53-11.62,2.7-1.68.84-3.57,1.78-5.79,2.7a26.59,26.59,0,0,1-7.31,2.1,12.09,12.09,0,0,0-5.64,2.19C129.85,182.05,129.11,187.54,129,189.77Z" fill="#093f68"/><path d="M160.55,176.23a1,1,0,0,1-.77-.36,1,1,0,0,1,.12-1.41,23.23,23.23,0,0,1,23.25-2.79,1,1,0,0,1,.54,1.31,1,1,0,0,1-1.3.54,21.54,21.54,0,0,0-21.2,2.47A1,1,0,0,1,160.55,176.23Z" fill="#093f68"/></g></svg>