<svg xmlns="http://www.w3.org/2000/svg" viewBox="0 0 400 300"><g id="_414_restaurant_outline" data-name="#414_restaurant_outline"><rect x="104.76" y="72.45" width="190.49" height="159.39" fill="#68e1fd"/><path d="M295.24,232.83H104.76a1,1,0,0,1-1-1V72.45a1,1,0,0,1,1-1H295.24a1,1,0,0,1,1,1V231.83A1,1,0,0,1,295.24,232.83Zm-189.48-2H294.24V73.45H105.76Z" fill="#093f68"/><path d="M99.81,96.48h22.26a0,0,0,0,1,0,0v34.46a11.13,11.13,0,0,1-11.13,11.13h0a11.13,11.13,0,0,1-11.13-11.13V96.48A0,0,0,0,1,99.81,96.48Z" fill="#f56132"/><path d="M110.94,143.07a12.14,12.14,0,0,1-12.13-12.13V96.48a1,1,0,0,1,1-1h22.26a1,1,0,0,1,1,1v34.46A12.14,12.14,0,0,1,110.94,143.07ZM100.81,97.48v33.46a10.13,10.13,0,0,0,20.26,0V97.48Z" fill="#093f68"/><path d="M122.07,96.48h22.26a0,0,0,0,1,0,0v34.46a11.13,11.13,0,0,1-11.13,11.13h0a11.13,11.13,0,0,1-11.13-11.13V96.48a0,0,0,0,1,0,0Z" fill="#ffbc0e"/><path d="M133.21,143.07a12.15,12.15,0,0,1-12.14-12.13V96.48a1,1,0,0,1,1-1h22.27a1,1,0,0,1,1,1v34.46A12.14,12.14,0,0,1,133.21,143.07ZM123.07,97.48v33.46a10.14,10.14,0,0,0,20.27,0V97.48Z" fill="#093f68"/><path d="M144.34,96.48H166.6a0,0,0,0,1,0,0v34.46a11.13,11.13,0,0,1-11.13,11.13h0a11.13,11.13,0,0,1-11.13-11.13V96.48a0,0,0,0,1,0,0Z" fill="#f56132"/><path d="M155.47,143.07a12.14,12.14,0,0,1-12.13-12.13V96.48a1,1,0,0,1,1-1H166.6a1,1,0,0,1,1,1v34.46A12.14,12.14,0,0,1,155.47,143.07ZM145.34,97.48v33.46a10.13,10.13,0,0,0,20.26,0V97.48Z" fill="#093f68"/><path d="M166.6,96.48h22.26a0,0,0,0,1,0,0v34.46a11.13,11.13,0,0,1-11.13,11.13h0a11.13,11.13,0,0,1-11.13-11.13V96.48a0,0,0,0,1,0,0Z" fill="#ffbc0e"/><path d="M177.74,143.07a12.14,12.14,0,0,1-12.14-12.13V96.48a1,1,0,0,1,1-1h22.27a1,1,0,0,1,1,1v34.46A12.15,12.15,0,0,1,177.74,143.07ZM167.6,97.48v33.46a10.14,10.14,0,0,0,20.27,0V97.48Z" fill="#093f68"/><path d="M188.87,96.48h22.26a0,0,0,0,1,0,0v34.46A11.13,11.13,0,0,1,200,142.07h0a11.13,11.13,0,0,1-11.13-11.13V96.48A0,0,0,0,1,188.87,96.48Z" fill="#f56132"/><path d="M200,143.07a12.14,12.14,0,0,1-12.13-12.13V96.48a1,1,0,0,1,1-1h22.26a1,1,0,0,1,1,1v34.46A12.14,12.14,0,0,1,200,143.07ZM189.87,97.48v33.46a10.13,10.13,0,0,0,20.26,0V97.48Z" fill="#093f68"/><path d="M211.13,96.48H233.4a0,0,0,0,1,0,0v34.46a11.13,11.13,0,0,1-11.13,11.13h0a11.13,11.13,0,0,1-11.13-11.13V96.48a0,0,0,0,1,0,0Z" fill="#ffbc0e"/><path d="M222.26,143.07a12.15,12.15,0,0,1-12.13-12.13V96.48a1,1,0,0,1,1-1H233.4a1,1,0,0,1,1,1v34.46A12.14,12.14,0,0,1,222.26,143.07ZM212.13,97.48v33.46a10.14,10.14,0,0,0,20.27,0V97.48Z" fill="#093f68"/><path d="M233.4,96.48h22.26a0,0,0,0,1,0,0v34.46a11.13,11.13,0,0,1-11.13,11.13h0a11.13,11.13,0,0,1-11.13-11.13V96.48a0,0,0,0,1,0,0Z" fill="#f56132"/><path d="M244.53,143.07a12.14,12.14,0,0,1-12.13-12.13V96.48a1,1,0,0,1,1-1h22.26a1,1,0,0,1,1,1v34.46A12.14,12.14,0,0,1,244.53,143.07ZM234.4,97.48v33.46a10.13,10.13,0,0,0,20.26,0V97.48Z" fill="#093f68"/><path d="M255.66,96.48h22.26a0,0,0,0,1,0,0v34.46a11.13,11.13,0,0,1-11.13,11.13h0a11.13,11.13,0,0,1-11.13-11.13V96.48a0,0,0,0,1,0,0Z" fill="#ffbc0e"/><path d="M266.79,143.07a12.14,12.14,0,0,1-12.13-12.13V96.48a1,1,0,0,1,1-1h22.27a1,1,0,0,1,1,1v34.46A12.15,12.15,0,0,1,266.79,143.07ZM256.66,97.48v33.46a10.14,10.14,0,0,0,20.27,0V97.48Z" fill="#093f68"/><path d="M277.93,96.48h22.26a0,0,0,0,1,0,0v34.46a11.13,11.13,0,0,1-11.13,11.13h0a11.13,11.13,0,0,1-11.13-11.13V96.48A0,0,0,0,1,277.93,96.48Z" fill="#f56132"/><path d="M289.06,143.07a12.14,12.14,0,0,1-12.13-12.13V96.48a1,1,0,0,1,1-1h22.26a1,1,0,0,1,1,1v34.46A12.14,12.14,0,0,1,289.06,143.07ZM278.93,97.48v33.46a10.13,10.13,0,0,0,20.26,0V97.48Z" fill="#093f68"/><path d="M195.09,91.58a1,1,0,0,1-.7-.3,1,1,0,0,1,0-1.41L205.5,78.76a1,1,0,0,1,1.41,1.41L195.8,91.28A1,1,0,0,1,195.09,91.58Z" fill="#093f68"/><path d="M204.25,84.83A3.4,3.4,0,0,1,201.84,79l1.7-1.7A1,1,0,1,1,205,78.73l-1.7,1.7a1.41,1.41,0,0,0,0,2,1.44,1.44,0,0,0,2,0l1.7-1.7a1,1,0,0,1,1.41,0,1,1,0,0,1,0,1.41l-1.7,1.7A3.37,3.37,0,0,1,204.25,84.83Z" fill="#093f68"/><path d="M204.75,91.42a1,1,0,0,1-.71-.29L192.93,80a1,1,0,1,1,1.41-1.41l11.11,11.11a1,1,0,0,1,0,1.41A1,1,0,0,1,204.75,91.42Z" fill="#093f68"/><ellipse cx="195.03" cy="80.62" rx="1.94" ry="3.26" transform="translate(0.12 161.52) rotate(-45)" fill="#093f68"/><path d="M196.32,84.3A5,5,0,0,1,193,82.7c-1.69-1.69-2.1-3.92-.94-5.09s3.4-.75,5.09.93h0A5.64,5.64,0,0,1,198.6,81a2.63,2.63,0,0,1-.55,2.59A2.39,2.39,0,0,1,196.32,84.3Zm-2.57-5.36a.41.41,0,0,0-.31.09c-.23.22,0,1.28.93,2.26s2,1.16,2.26.93a.8.8,0,0,0,0-.69,3.58,3.58,0,0,0-1-1.57h0A3.12,3.12,0,0,0,193.75,78.94Z" fill="#093f68"/><rect x="172.17" y="147.97" width="55.66" height="83.86" fill="#093f68"/><path d="M227.83,232.83H172.17a1,1,0,0,1-1-1V148a1,1,0,0,1,1-1h55.66a1,1,0,0,1,1,1v83.86A1,1,0,0,1,227.83,232.83Zm-54.66-2h53.66V149H173.17Z" fill="#093f68"/><rect x="240" y="152.14" width="40.91" height="60.26" fill="#fff"/><path d="M280.91,213.4H240a1,1,0,0,1-1-1V152.14a1,1,0,0,1,1-1h40.91a1,1,0,0,1,1,1V212.4A1,1,0,0,1,280.91,213.4Zm-39.91-2h38.91V153.14H241Z" fill="#093f68"/><path d="M260.46,213.4a1,1,0,0,1-1-1V201.71a1,1,0,1,1,2,0V212.4A1,1,0,0,1,260.46,213.4Z" fill="#093f68"/><path d="M272.65,202.71H248.26a1,1,0,0,1,0-2h24.39a1,1,0,0,1,0,2Z" fill="#093f68"/><polygon points="260.45 161.5 266.9 170.26 254.01 170.26 260.45 161.5" fill="#ffbc0e"/><path d="M266.91,171.26H254a1,1,0,0,1-.81-1.59l6.45-8.76a1,1,0,0,1,1.61,0l6.45,8.76a1,1,0,0,1-.8,1.59Zm-10.93-2h9l-4.47-6.07Z" fill="#093f68"/><path d="M260.46,162.5a1,1,0,0,1-1-1v-9.36a1,1,0,0,1,2,0v9.36A1,1,0,0,1,260.46,162.5Z" fill="#093f68"/><rect x="119.09" y="152.14" width="40.91" height="60.26" fill="#fff"/><path d="M160,213.4H119.09a1,1,0,0,1-1-1V152.14a1,1,0,0,1,1-1H160a1,1,0,0,1,1,1V212.4A1,1,0,0,1,160,213.4Zm-39.91-2H159V153.14H120.09Z" fill="#093f68"/><path d="M139.54,213.4a1,1,0,0,1-1-1V201.71a1,1,0,0,1,2,0V212.4A1,1,0,0,1,139.54,213.4Z" fill="#093f68"/><path d="M151.74,202.71H127.35a1,1,0,0,1,0-2h24.39a1,1,0,0,1,0,2Z" fill="#093f68"/><polygon points="139.54 161.5 145.99 170.26 133.09 170.26 139.54 161.5" fill="#ffbc0e"/><path d="M146,171.26h-12.9a1,1,0,0,1-.8-1.59l6.45-8.76a1,1,0,0,1,.8-.41h0a1,1,0,0,1,.81.41l6.45,8.76a1,1,0,0,1-.81,1.59Zm-10.92-2h9l-4.48-6.07Z" fill="#093f68"/><path d="M139.54,162.5a1,1,0,0,1-1-1v-9.36a1,1,0,0,1,2,0v9.36A1,1,0,0,1,139.54,162.5Z" fill="#093f68"/><circle cx="181.09" cy="186.07" r="4.11" fill="#fff"/><path d="M181.09,191.18a5.11,5.11,0,1,1,5.12-5.11A5.11,5.11,0,0,1,181.09,191.18Zm0-8.22a3.11,3.11,0,1,0,3.12,3.11A3.11,3.11,0,0,0,181.09,183Z" fill="#093f68"/><rect x="97.16" y="231.83" width="205.69" height="6.02" rx="3.01" fill="#68e1fd"/><path d="M299.83,238.85H100.17a4,4,0,0,1,0-8H299.83a4,4,0,0,1,0,8Zm-199.66-6a2,2,0,0,0,0,4H299.83a2,2,0,0,0,0-4Z" fill="#093f68"/><rect x="97.16" y="62.15" width="205.69" height="10.3" rx="5.15" fill="#68e1fd"/><path d="M297.69,73.45H102.31a6.15,6.15,0,0,1,0-12.3H297.69a6.15,6.15,0,0,1,0,12.3ZM102.31,63.15a4.15,4.15,0,0,0,0,8.3H297.69a4.15,4.15,0,0,0,0-8.3Z" fill="#093f68"/><path d="M178.79,85.87H120.48a1,1,0,0,1,0-2h58.31a1,1,0,0,1,0,2Z" fill="#093f68"/><path d="M279.52,85.87H221.21a1,1,0,0,1,0-2h58.31a1,1,0,0,1,0,2Z" fill="#093f68"/><path d="M139.54,188.13a1,1,0,0,1-.68-.27,1,1,0,0,1,0-1.42l13.1-14a1,1,0,0,1,1.46,1.37l-13.11,14A1,1,0,0,1,139.54,188.13Z" fill="#dfeaef"/><path d="M125.61,189.9a1,1,0,0,1-.66-.25,1,1,0,0,1-.09-1.41l8.84-10.08a1,1,0,1,1,1.5,1.32l-8.83,10.07A1,1,0,0,1,125.61,189.9Z" fill="#dfeaef"/><path d="M248.26,189.54a1,1,0,0,1-.68-1.73l12.2-11.31a1,1,0,0,1,1.41.05,1,1,0,0,1-.06,1.42l-12.19,11.31A1,1,0,0,1,248.26,189.54Z" fill="#dfeaef"/><path d="M262.21,194.84a1,1,0,0,1-.72-.3,1,1,0,0,1,0-1.42c6.42-6.17,14.22-13.61,14.92-14a1,1,0,0,1,.95,1.75c-.87.63-9.33,8.68-14.48,13.64A1,1,0,0,1,262.21,194.84Z" fill="#dfeaef"/></g></svg>