<svg xmlns="http://www.w3.org/2000/svg" viewBox="0 0 400 300"><g id="_173_revenue_outline" data-name="#173_revenue_outline"><path d="M200,200.29a2.5,2.5,0,0,1-2.5-2.5v-69a2.5,2.5,0,0,1,5,0v69A2.5,2.5,0,0,1,200,200.29Z" fill="#093f68"/><circle cx="200" cy="98.08" r="30.72" fill="#ffbc0e"/><path d="M200,129.81a31.73,31.73,0,1,1,31.73-31.73A31.76,31.76,0,0,1,200,129.81Zm0-61.45a29.73,29.73,0,1,0,29.73,29.72A29.76,29.76,0,0,0,200,68.36Z" fill="#093f68"/><path d="M197.25,117.13v-3c-1.1-.3-2.17-.53-3.2-.88a9.29,9.29,0,0,1-4.9-3.68,9.08,9.08,0,0,1-1.42-5.11h5.89a4.66,4.66,0,0,0,3.6,4.36v-8c-1.18-.35-2.36-.67-3.52-1a8,8,0,0,1-3.42-2,6.79,6.79,0,0,1-1.91-3.71,9.5,9.5,0,0,1,.37-5.12,8.58,8.58,0,0,1,5.17-5.13,26.56,26.56,0,0,1,3-.77l.36-.07V79h5.5v.39c0,1.14,0,2.28,0,3.42,0,.28.08.37.35.43a11.54,11.54,0,0,1,5.14,2.4,8.3,8.3,0,0,1,2.92,5.11c.09.55.14,1.1.21,1.68h-6a4.18,4.18,0,0,0-2.59-3.8v7.46c.19.05.42.11.64.15a22.18,22.18,0,0,1,4.7,1.5,6.79,6.79,0,0,1,4.06,5.68,8.83,8.83,0,0,1-1.55,6.49,9,9,0,0,1-4.44,3.3c-1.1.38-2.26.63-3.44,1v2.92ZM202.78,102v6.94a5,5,0,0,0,2.43-1.08c1.28-1,1.73-3.66-.14-4.81A22,22,0,0,0,202.78,102Zm-5.56-7.11V88.15a21.64,21.64,0,0,0-2.1,1.07c-1.53,1-1.77,3.85.18,4.84C195.91,94.36,196.55,94.58,197.22,94.86Z" fill="#fff"/><path d="M202.76,118.13h-5.51a1,1,0,0,1-1-1v-2.24l-.28-.07c-.73-.19-1.5-.38-2.24-.64a10.32,10.32,0,0,1-5.42-4.07,10.08,10.08,0,0,1-1.58-5.66,1,1,0,0,1,.29-.71,1,1,0,0,1,.71-.29h5.89a1,1,0,0,1,1,.87,3.87,3.87,0,0,0,1.61,3v-5.73l-.36-.1c-.82-.24-1.65-.47-2.46-.73a9.3,9.3,0,0,1-3.83-2.2,7.78,7.78,0,0,1-2.18-4.24,10.38,10.38,0,0,1,.42-5.66,9.49,9.49,0,0,1,5.75-5.7,14.75,14.75,0,0,1,2.18-.6l.51-.11V79a1,1,0,0,1,1-1h5.5a1,1,0,0,1,1,1v1.28c0,.7,0,1.39,0,2.08a12.28,12.28,0,0,1,5.13,2.51,9.24,9.24,0,0,1,3.26,5.71c.07.39.12.78.16,1.19l.06.54a1,1,0,0,1-.24.78,1,1,0,0,1-.75.34h-6a1,1,0,0,1-1-.94,3.36,3.36,0,0,0-.59-1.84v4.65a21.13,21.13,0,0,1,4.76,1.54,7.78,7.78,0,0,1,4.64,6.46,9.94,9.94,0,0,1-6.66,10.85c-.8.28-1.62.49-2.41.69l-.36.1v2.15A1,1,0,0,1,202.76,118.13Zm-4.51-2h3.51v-1.92a1,1,0,0,1,.73-1c.38-.11.75-.21,1.13-.3.79-.21,1.53-.4,2.25-.65a8,8,0,0,0,4-2.93,7.87,7.87,0,0,0,1.37-5.79,5.81,5.81,0,0,0-3.5-4.89,19.69,19.69,0,0,0-4.48-1.43l-.48-.11-.19-.05a1,1,0,0,1-.76-1V88.67a1,1,0,0,1,1.42-.9,5.16,5.16,0,0,1,3,3.7h4c0-.17-.05-.34-.08-.51a7.25,7.25,0,0,0-2.57-4.52,10.54,10.54,0,0,0-4.7-2.18,1.33,1.33,0,0,1-1.15-1.42c0-.84,0-1.68,0-2.51V80h-3.5v3a1,1,0,0,1-.81,1l-.31.06-1,.22a12.5,12.5,0,0,0-1.9.52,7.58,7.58,0,0,0-4.59,4.54,8.47,8.47,0,0,0-.32,4.6A5.72,5.72,0,0,0,191,97.12a7.11,7.11,0,0,0,3,1.71c.8.25,1.61.48,2.41.71l1.09.32a1,1,0,0,1,.72,1v8a1,1,0,0,1-.39.79,1,1,0,0,1-.86.18,5.48,5.48,0,0,1-4.19-4.33h-4A7.58,7.58,0,0,0,190,109a8.24,8.24,0,0,0,4.4,3.29c.66.23,1.35.41,2.09.59l1,.27a1,1,0,0,1,.74,1Zm4.53-6.22a1,1,0,0,1-1-1V102a1,1,0,0,1,.45-.84,1,1,0,0,1,1-.07l.73.31a12.11,12.11,0,0,1,1.67.8,3.55,3.55,0,0,1,1.72,2.87,4.28,4.28,0,0,1-1.47,3.56,6.1,6.1,0,0,1-2.9,1.3Zm1-6.43v4.09a4.51,4.51,0,0,0,.8-.51,2.39,2.39,0,0,0,.74-1.88,1.58,1.58,0,0,0-.77-1.3A6.21,6.21,0,0,0,203.78,103.48Zm-6.56-7.62a1.08,1.08,0,0,1-.38-.08l-.61-.24c-.46-.18-.92-.36-1.38-.59a3.51,3.51,0,0,1-1.93-3,4,4,0,0,1,1.65-3.54,11.25,11.25,0,0,1,1.53-.81l.68-.32a1,1,0,0,1,1,0,1,1,0,0,1,.47.85v6.71a1,1,0,0,1-.44.83A1,1,0,0,1,197.22,95.86Zm-1-6.12c-.19.1-.37.2-.54.31a2,2,0,0,0-.77,1.76,1.57,1.57,0,0,0,.85,1.36l.46.21Z" fill="#093f68"/><path d="M244,136.11s-7.48,15.78-18.87,21.32-22.37-1.23-22.37-1.23,1.43-12.83,12.82-18.37S244,136.11,244,136.11Z" fill="#70cc40"/><path d="M215.55,160.63a27.49,27.49,0,0,1-13.3-3.58,1,1,0,0,1-.47-1c.06-.55,1.63-13.44,13.38-19.16,11.58-5.64,28.37-2,29.08-1.79a1,1,0,0,1,.68.54,1,1,0,0,1,0,.86c-.31.66-7.76,16.16-19.33,21.79A22.69,22.69,0,0,1,215.55,160.63Zm-11.68-5c2.34,1.23,11.53,5.4,20.84.86s15.85-16,17.81-19.69c-4.11-.73-17.31-2.58-26.48,1.88C206.7,143.27,204.34,153.06,203.87,155.67Z" fill="#093f68"/><path d="M202.78,157.2a1,1,0,0,1-.9-.56,1,1,0,0,1,.46-1.34l41.24-20.08a1,1,0,1,1,.88,1.79L203.21,157.1A1,1,0,0,1,202.78,157.2Z" fill="#093f68"/><path d="M156,150.22s7.48,15.77,18.87,21.32,22.37-1.23,22.37-1.23-1.43-12.83-12.82-18.38S156,150.22,156,150.22Z" fill="#70cc40"/><path d="M184.45,174.74a22.69,22.69,0,0,1-10-2.3c-11.57-5.64-19-21.13-19.33-21.79a1,1,0,0,1,0-.86,1,1,0,0,1,.68-.54c.71-.16,17.51-3.85,29.08,1.78,11.75,5.73,13.32,18.62,13.38,19.17a1,1,0,0,1-.47,1A27.49,27.49,0,0,1,184.45,174.74Zm-27-23.79c2,3.7,8.64,15.23,17.81,19.69s18.49.36,20.84-.87c-.48-2.6-2.86-12.4-12.17-16.94S161.59,150.22,157.48,151Z" fill="#093f68"/><path d="M197.22,171.31a1,1,0,0,1-.43-.1l-41.25-20.09a1,1,0,0,1,.88-1.8l41.24,20.09a1,1,0,0,1,.46,1.34A1,1,0,0,1,197.22,171.31Z" fill="#093f68"/><polygon points="228.66 234.91 171.34 234.91 159.65 182.48 240.35 182.48 228.66 234.91" fill="#68e1fd"/><path d="M228.66,235.91H171.35a1,1,0,0,1-1-.78L158.68,182.7a1,1,0,0,1,.19-.85,1,1,0,0,1,.78-.37h80.7a1,1,0,0,1,1,1.22l-11.69,52.43A1,1,0,0,1,228.66,235.91Zm-56.51-2h55.71l11.25-50.43H160.9Z" fill="#093f68"/><path d="M238.18,193.22H161.83a1,1,0,0,1,0-2h76.35a1,1,0,0,1,0,2Z" fill="#093f68"/><polygon points="122.54 126.28 104.14 145.95 113.28 145.95 113.28 234.91 131.8 234.91 131.8 145.95 140.93 145.95 122.54 126.28" fill="#fff"/><path d="M131.8,235.91H113.28a1,1,0,0,1-1-1V147h-8.14a1,1,0,0,1-.73-1.68l18.4-19.67a1,1,0,0,1,1.46,0l18.39,19.67a1,1,0,0,1,.19,1.08,1,1,0,0,1-.92.6H132.8v88A1,1,0,0,1,131.8,235.91Zm-17.52-2H130.8V146a1,1,0,0,1,1-1h6.83l-16.09-17.21L106.45,145h6.83a1,1,0,0,1,1,1Z" fill="#dfeaef"/><polygon points="277.46 63.09 259.07 82.76 268.2 82.76 268.2 234.91 286.73 234.91 286.73 82.76 295.86 82.76 277.46 63.09" fill="#fff"/><path d="M286.72,235.91H268.2a1,1,0,0,1-1-1V83.76h-8.13a1,1,0,0,1-.92-.61,1,1,0,0,1,.19-1.08L276.73,62.4a1,1,0,0,1,1.46,0l18.4,19.67a1,1,0,0,1-.73,1.69h-8.14V234.91A1,1,0,0,1,286.72,235.91Zm-17.52-2h16.52V82.76a1,1,0,0,1,1-1h6.83L277.46,64.55,261.37,81.76h6.83a1,1,0,0,1,1,1Z" fill="#dfeaef"/><path d="M304.88,235.91H95.13a1,1,0,1,1,0-2H304.88a1,1,0,0,1,0,2Z" fill="#093f68"/></g></svg>