<svg xmlns="http://www.w3.org/2000/svg" viewBox="0 0 400 300"><g id="_383_rio_de_janeiro_outline" data-name="#383_rio_de_janeiro_outline"><path d="M293.85,150A93.85,93.85,0,1,1,200,56.15,93.76,93.76,0,0,1,293.85,150Z" fill="#fff"/><path d="M200,244.85a94.84,94.84,0,1,1,48.51-13.34A94.87,94.87,0,0,1,200,244.85Zm0-187.7A92.85,92.85,0,1,0,292.85,150,93,93,0,0,0,200,57.15Z" fill="#093f68"/><path d="M193.76,77.49a8.07,8.07,0,0,1,3.31-3.17c1.51-.64,3.54-.29,4.32,1.14a5.2,5.2,0,0,1,5.62.05c3.42,2.11,4.66,6.08,5.71,9.65a69,69,0,0,1,2.13,9.31,13.2,13.2,0,0,1,0,5,9.64,9.64,0,0,1-5.42,6.11,22.8,22.8,0,0,1-15.55.26,9.61,9.61,0,0,1-5.27-5,13.15,13.15,0,0,1-.67-5.44,36.14,36.14,0,0,1,5.7-17.75Z" fill="#68e1fd"/><path d="M201.34,108.13h-.18a19.91,19.91,0,0,1-7.69-1.32,10.57,10.57,0,0,1-5.81-5.55,14.1,14.1,0,0,1-.74-5.85,37.16,37.16,0,0,1,5.86-18.25l.14-.22h0a9,9,0,0,1,3.76-3.54,4.73,4.73,0,0,1,5,.76,6.33,6.33,0,0,1,5.88.5c3.85,2.36,5.18,6.91,6.15,10.22a69.42,69.42,0,0,1,2.16,9.44,14,14,0,0,1,0,5.44,10.63,10.63,0,0,1-6,6.78A19.59,19.59,0,0,1,201.34,108.13ZM194.6,78l-.14.21a35.05,35.05,0,0,0-5.54,17.25,12.14,12.14,0,0,0,.59,5,8.56,8.56,0,0,0,4.74,4.45,21.79,21.79,0,0,0,14.73-.23,8.65,8.65,0,0,0,4.88-5.45,12.23,12.23,0,0,0,0-4.67,65.51,65.51,0,0,0-2.1-9.17c-.93-3.17-2.09-7.12-5.28-9.08a4.17,4.17,0,0,0-4.5-.09,1,1,0,0,1-.81.16,1,1,0,0,1-.65-.49,2.52,2.52,0,0,0-3.06-.7A7.12,7.12,0,0,0,194.6,78Z" fill="#093f68"/><path d="M154.81,104.7c-.31,0-4.81-.11-5.84-.92s-6.45-3.28-7.58-2.87,0,2.35,0,2.35-6-.92-6.25.31.51,5.12,2.35,6.25S160.86,111,160.86,111Z" fill="#68e1fd"/><path d="M160.86,112c-5.12,0-22-.09-23.89-1.28-2.27-1.39-3.07-5.73-2.82-7.26.09-.56.33-1.94,5.76-1.35A2.24,2.24,0,0,1,140,101a1.66,1.66,0,0,1,1-1c1.79-.65,7.75,2.39,8.55,3,.55.43,3.73.71,5.21.71a1,1,0,0,1,.72.3l6.05,6.25a1,1,0,0,1,.2,1.09A1,1,0,0,1,160.86,112ZM136.1,104c0,1.26.66,4.17,1.92,4.94,1.15.56,10.92.92,20.47,1l-4.11-4.25c-1.25,0-4.87-.2-6-1.13a23.28,23.28,0,0,0-6.45-2.69,3.2,3.2,0,0,0,.36.89,1,1,0,0,1,0,1.07,1,1,0,0,1-1,.42A18.85,18.85,0,0,0,136.1,104Z" fill="#093f68"/><path d="M245.19,104.7c.31,0,4.81-.11,5.84-.92s6.45-3.28,7.58-2.87,0,2.35,0,2.35,6.05-.92,6.25.31-.51,5.12-2.35,6.25S239.14,111,239.14,111Z" fill="#68e1fd"/><path d="M239.14,112a1,1,0,0,1-.92-.61,1,1,0,0,1,.2-1.09l6.05-6.25a1,1,0,0,1,.72-.3c1.48,0,4.66-.28,5.22-.71.79-.63,6.75-3.68,8.54-3a1.7,1.7,0,0,1,1.05,1,2.37,2.37,0,0,1,.09,1.06c5.44-.6,5.67.79,5.76,1.35.25,1.53-.55,5.87-2.82,7.26C261.09,111.86,244.26,112,239.14,112Zm6.48-6.26-4.11,4.25c9.55,0,19.32-.41,20.49-1,1.24-.76,1.93-3.67,1.9-4.93a18.85,18.85,0,0,0-5.14.22,1,1,0,0,1-1-.42,1,1,0,0,1,0-1.07,3.74,3.74,0,0,0,.35-.91,23.78,23.78,0,0,0-6.45,2.71C250.49,105.49,246.87,105.66,245.62,105.69Z" fill="#093f68"/><rect x="185.18" y="157.87" width="31.27" height="37.88" fill="#68e1fd"/><path d="M216.45,196.75H185.18a1,1,0,0,1-1-1V157.87a1,1,0,0,1,1-1h31.27a1,1,0,0,1,1,1v37.88A1,1,0,0,1,216.45,196.75Zm-30.27-2h29.27V158.87H186.18Z" fill="#093f68"/><path d="M191.31,196.75a1,1,0,0,1-1-1V166.24a1,1,0,0,1,2,0v29.51A1,1,0,0,1,191.31,196.75Z" fill="#093f68"/><path d="M197.65,196.75a1,1,0,0,1-1-1V166.24a1,1,0,0,1,2,0v29.51A1,1,0,0,1,197.65,196.75Z" fill="#093f68"/><path d="M204,196.75a1,1,0,0,1-1-1V166.24a1,1,0,0,1,2,0v29.51A1,1,0,0,1,204,196.75Z" fill="#093f68"/><path d="M210.31,196.75a1,1,0,0,1-1-1V166.24a1,1,0,0,1,2,0v29.51A1,1,0,0,1,210.31,196.75Z" fill="#093f68"/><polygon points="182.99 138.61 182.99 161.15 217.97 182.6 217.97 149.26 182.99 138.61" fill="#68e1fd"/><path d="M218,183.6a1,1,0,0,1-.53-.15l-35-21.45a1,1,0,0,1-.48-.85V138.61a1,1,0,0,1,.41-.81,1,1,0,0,1,.88-.15l35,10.66a1,1,0,0,1,.71.95V182.6a1,1,0,0,1-.52.87A.94.94,0,0,1,218,183.6Zm-34-23,33,20.22V150l-33-10Z" fill="#093f68"/><path d="M217.56,123.69c.3-.21,11.47-7.18,11.47-7.18h9.33l10-15.65-25.24-.64-9.37,5.07Z" fill="#68e1fd"/><path d="M217.56,124.69a1,1,0,0,1-.38-.08,1,1,0,0,1-.6-.72l-3.77-18.4a1,1,0,0,1,.5-1.08l9.37-5.07a.81.81,0,0,1,.5-.12l25.24.64a1,1,0,0,1,.82,1.54l-10,15.65a1,1,0,0,1-.84.46h-9c-4.42,2.76-10.89,6.79-11.2,7A1,1,0,0,1,217.56,124.69Zm-2.64-18.87,3.33,16.25c2.67-1.68,8.78-5.49,10.25-6.41a1,1,0,0,1,.53-.15h8.78l8.79-13.7-23.2-.59Z" fill="#093f68"/><polygon points="189.28 143.52 181.08 140.52 181.08 135.6 175.07 134.78 175.07 120.98 168.37 117.29 155.53 114.97 151.29 100.86 178.75 100.86 201.49 111.01 189.28 143.52" fill="#68e1fd"/><path d="M189.28,144.52a1,1,0,0,1-.35-.06l-8.2-3a1,1,0,0,1-.65-.94v-4.05l-5.15-.7a1,1,0,0,1-.86-1V121.57l-6-3.32L155.35,116a1,1,0,0,1-.78-.69l-4.23-14.11a1,1,0,0,1,.95-1.29h27.47a.93.93,0,0,1,.4.09L201.9,110.1a1,1,0,0,1,.53,1.26l-12.22,32.51A1,1,0,0,1,189.28,144.52Zm-7.2-4.7,6.61,2.42,11.54-30.7-21.69-9.68h-25.9l3.67,12.24,12.24,2.21a1,1,0,0,1,.3.11l6.7,3.69a1,1,0,0,1,.52.87v12.93l5.14.7a1,1,0,0,1,.87,1Z" fill="#093f68"/><path d="M189.28,112.92v34.84s19.12,34.22,21,34S218,162.92,218,162.92V104.67Z" fill="#68e1fd"/><path d="M210.22,182.79c-.89,0-2.4-1.12-12-17.44-5-8.44-9.77-17-9.82-17.1a1,1,0,0,1-.12-.49V112.92a1,1,0,0,1,.72-1l28.69-8.26a1,1,0,0,1,.88.17,1,1,0,0,1,.4.8v58.25a1,1,0,0,1-.05.3c-5.93,19.28-7.86,19.49-8.5,19.55Zm.4-1.93ZM190.28,147.5c8.13,14.54,17.52,30.4,20,33,1.35-1.9,4.41-10.3,6.71-17.76V106l-26.69,7.68Z" fill="#093f68"/><path d="M177,100.86s10.93,18.76,18,21.76,18.45-.41,23.37-9.29,4.78-13.11,4.78-13.11Z" fill="#68e1fd"/><path d="M200.71,124.69a15.62,15.62,0,0,1-6.09-1.15c-7.32-3.1-18.05-21.4-18.5-22.18a1,1,0,0,1,0-1,1,1,0,0,1,.86-.51l46.17-.64a1,1,0,0,1,1,1c0,.19.09,4.62-4.91,13.64A21.56,21.56,0,0,1,200.71,124.69Zm-22-22.85c2.73,4.44,11.09,17.5,16.67,19.86,6.58,2.78,17.43-.41,22.1-8.85,3.37-6.09,4.3-9.93,4.56-11.62Z" fill="#093f68"/><rect x="198.55" y="93.32" width="5.89" height="8.88" fill="#68e1fd"/><path d="M204.44,103.2h-5.89a1,1,0,0,1-1-1V93.32a1,1,0,0,1,1-1h5.89a1,1,0,0,1,1,1v8.88A1,1,0,0,1,204.44,103.2Zm-4.89-2h3.89V94.32h-3.89Z" fill="#093f68"/><path d="M208,100.52H194.13l.65,2.67a6.48,6.48,0,0,0,6.3,4.94h0a6.5,6.5,0,0,0,6.31-4.94Z" fill="#68e1fd"/><path d="M201.08,109.13a7.46,7.46,0,0,1-7.27-5.7l-.65-2.67a1,1,0,0,1,.18-.85,1,1,0,0,1,.79-.39H208a1,1,0,0,1,.78.39,1,1,0,0,1,.19.85l-.65,2.67A7.48,7.48,0,0,1,201.08,109.13Zm-5.68-7.61.35,1.43a5.49,5.49,0,0,0,10.66,0l.35-1.43Z" fill="#093f68"/><path d="M201.78,96.8h0A6.77,6.77,0,0,1,195,90V83.91s4.57-.41,6.48-3.91c3.62,4.11,7,2.68,7,2.68V90A6.76,6.76,0,0,1,201.78,96.8Z" fill="#68e1fd"/><path d="M201.78,97.8A7.78,7.78,0,0,1,194,90V83.91a1,1,0,0,1,.91-1s4.07-.42,5.7-3.39a1,1,0,0,1,.76-.52,1,1,0,0,1,.86.34c3.06,3.47,5.81,2.46,5.92,2.41a1,1,0,0,1,.94.11,1,1,0,0,1,.44.82V90A7.77,7.77,0,0,1,201.78,97.8Zm-5.77-13V90a5.77,5.77,0,0,0,11.53,0V83.9a7.68,7.68,0,0,1-5.91-2.32A9.87,9.87,0,0,1,196,84.76Z" fill="#093f68"/><polygon points="210.31 100.22 210.31 161.15 220.15 158.28 220.15 100.26 210.31 100.22" fill="#68e1fd"/><path d="M210.31,162.15a1,1,0,0,1-.6-.2,1,1,0,0,1-.4-.8V100.22a1,1,0,0,1,1-1l9.84,0a1,1,0,0,1,1,1v58a1,1,0,0,1-.72,1l-9.84,2.87A.86.86,0,0,1,210.31,162.15Zm1-60.93v58.6l7.84-2.29V101.25Z" fill="#093f68"/><path d="M181.08,136.6a1,1,0,0,1-1-1V119.48a1,1,0,1,1,2,0V135.6A1,1,0,0,1,181.08,136.6Z" fill="#093f68"/><rect x="179.85" y="195.75" width="40.3" height="6.83" fill="#68e1fd"/><path d="M220.15,203.58h-40.3a1,1,0,0,1-1-1v-6.83a1,1,0,0,1,1-1h40.3a1,1,0,0,1,1,1v6.83A1,1,0,0,1,220.15,203.58Zm-39.3-2h38.3v-4.83h-38.3Z" fill="#093f68"/><rect x="175.33" y="202.58" width="49.33" height="15.07" fill="#68e1fd"/><path d="M224.67,218.65H175.33a1,1,0,0,1-1-1V202.58a1,1,0,0,1,1-1h49.34a1,1,0,0,1,1,1v15.07A1,1,0,0,1,224.67,218.65Zm-48.34-2h47.34V203.58H176.33Z" fill="#093f68"/><path d="M215.23,160.71a1,1,0,0,1-1-1V127.54a1,1,0,1,1,2,0v32.17A1,1,0,0,1,215.23,160.71Z" fill="#093f68"/><path d="M168.37,118.29a1,1,0,0,1-.75-.34c-.14-.15-3.3-3.82-3.6-7.25a1,1,0,1,1,2-.17c.24,2.78,3.09,6.07,3.12,6.11a1,1,0,0,1-.1,1.41A1,1,0,0,1,168.37,118.29Z" fill="#093f68"/><path d="M229,117.51a1,1,0,0,1-.62-1.78l6.89-5.49a1,1,0,0,1,1.24,1.57l-6.88,5.48A1,1,0,0,1,229,117.51Z" fill="#093f68"/><path d="M200.06,88.19a.92.92,0,0,1-.36-.07,2.31,2.31,0,0,0-1.74-.05,1,1,0,0,1-1.34-.43,1,1,0,0,1,.4-1.33,4.18,4.18,0,0,1,3.4-.06,1,1,0,0,1-.36,1.94Z" fill="#093f68"/><path d="M203,92a1,1,0,0,1-1-1c-.06-1.09-.07-3.74,1.16-4.65a4.35,4.35,0,0,1,3.35-.42A1,1,0,0,1,206,87.9a2.39,2.39,0,0,0-1.64.09,6.57,6.57,0,0,0-.35,2.93A1,1,0,0,1,203,92Z" fill="#093f68"/><path d="M248,230.65a93.9,93.9,0,0,1-91.94,2.29c6.89-7.69,14.82-15.29,19.27-15.29h49.34S237.62,222.71,248,230.65Z" fill="#70cc40"/><path d="M200,244.85a94.87,94.87,0,0,1-44.41-11,1,1,0,0,1-.27-1.55c9.41-10.51,16-15.62,20-15.62h49.34a.89.89,0,0,1,.36.07c.14.05,13.21,5.2,23.58,13.14a1,1,0,0,1-.1,1.65A94.54,94.54,0,0,1,200,244.85Zm-42.33-12.2a92.92,92.92,0,0,0,88.53-2.1,111.56,111.56,0,0,0-21.72-11.9H175.33C173.46,218.65,168.71,220.5,157.67,232.65Z" fill="#093f68"/><path d="M203.62,244.78h-.16c-4.29-.69-25.7-4.44-25.72-11.07,0-4.33,9.25-5.1,24.52-5.86,6.68-.33,15.78-.79,16.87-2.05-.8-2.1-17-5.25-35.69-6.9a1,1,0,0,1-.91-1.08,1,1,0,0,1,1.09-.91c.09,0,9.24.82,18.3,2.2,16.81,2.57,19.16,4.81,19.23,6.67.12,3-6,3.43-18.79,4.07-8.46.42-22.63,1.12-22.62,3.85,0,3.63,14.06,7.51,24,9.1a1,1,0,0,1-.16,2Zm15.53-18.93h0Z" fill="#093f68"/><path d="M164.07,160.3h-34.4c-4,0-7.24-2.62-7.24-5.84,0-2.48,2-4.68,4.81-5.5a8.49,8.49,0,0,1,7.14-4.33c.77-3.18,4.26-5.55,8.4-5.55a9,9,0,0,1,7.74,3.92,13,13,0,0,1,5.72-1.28c5.45,0,10.08,3.22,10.88,7.45a5.9,5.9,0,0,1,4.18,5.29C171.3,157.68,168.06,160.3,164.07,160.3Zm-28.83-13.7c-3,0-5.54,1.47-6.34,3.57a1,1,0,0,1-.72.62c-2.21.48-3.75,2-3.75,3.67,0,2.12,2.35,3.84,5.24,3.84h34.4c2.89,0,5.23-1.72,5.23-3.84,0-1.56-1.34-3-3.35-3.57a1,1,0,0,1-.72-.87c-.33-3.53-4.28-6.3-9-6.3a10.83,10.83,0,0,0-5.65,1.52,1,1,0,0,1-.86.09,1.08,1.08,0,0,1-.61-.61c-.76-2.15-3.36-3.64-6.34-3.64-3.47,0-6.35,2-6.54,4.6a1,1,0,0,1-1,.92ZM128,149.81h0Z" fill="#dfeaef"/><path d="M152.61,150.69a1,1,0,0,1-1-.83,5.6,5.6,0,0,0-2.26-3.46,5.75,5.75,0,0,0-4.77-.18,1,1,0,0,1-1.25-.65,1,1,0,0,1,.66-1.26c2.54-.79,4.7-.66,6.42.4a7.54,7.54,0,0,1,3.17,4.81,1,1,0,0,1-.82,1.15Z" fill="#dfeaef"/><path d="M163.82,198.18H141.4c-2.79,0-5.06-1.86-5.06-4.15a4.16,4.16,0,0,1,2.77-3.71c.65-2.86,3.7-4.94,7.39-4.94a9,9,0,0,1,3.6.73,6.22,6.22,0,0,1,5.17-2.46c2.76,0,5.1,1.55,5.75,3.65a5.84,5.84,0,0,1,4.62,2.85,4.28,4.28,0,0,1,3.24,3.88C168.88,196.32,166.61,198.18,163.82,198.18Zm-17.32-10.8c-2.88,0-5.3,1.66-5.5,3.78a1,1,0,0,1-.72.87,2.36,2.36,0,0,0-1.94,2c0,1.16,1.4,2.15,3.06,2.15h22.42c1.66,0,3.06-1,3.06-2.15,0-.93-.89-1.78-2.16-2.06a1,1,0,0,1-.72-.62,4,4,0,0,0-3.8-2.1,1,1,0,0,1-1-.92c-.11-1.48-1.87-2.68-3.92-2.68a3.9,3.9,0,0,0-3.8,2.15,1,1,0,0,1-1.46.51A6.77,6.77,0,0,0,146.5,187.38Z" fill="#dfeaef"/><path d="M153.92,192.79a1,1,0,0,1-1-.94c-.14-2.25-2.77-3.46-2.8-3.48a1,1,0,0,1,.81-1.82c.16.06,3.76,1.7,4,5.17a1,1,0,0,1-.94,1.06Z" fill="#dfeaef"/><path d="M269.22,176.85h-34.4c-4,0-7.24-2.62-7.24-5.84,0-2.28,1.66-4.34,4.19-5.29.8-4.23,5.43-7.45,10.88-7.45a13,13,0,0,1,5.72,1.28,9,9,0,0,1,7.74-3.93c4.14,0,7.63,2.38,8.39,5.56a8.48,8.48,0,0,1,7.15,4.33c2.85.82,4.8,3,4.8,5.5C276.45,174.23,273.21,176.85,269.22,176.85Zm-26.57-16.58c-4.71,0-8.66,2.77-9,6.3a1,1,0,0,1-.72.87c-2,.57-3.36,2-3.36,3.57,0,2.12,2.35,3.84,5.24,3.84h34.4c2.89,0,5.23-1.72,5.23-3.84,0-1.68-1.54-3.19-3.74-3.67a1,1,0,0,1-.72-.63c-.8-2.09-3.4-3.56-6.32-3.56a1,1,0,0,1-1-.92c-.19-2.58-3.07-4.61-6.54-4.61-3,0-5.58,1.5-6.35,3.65a1,1,0,0,1-.6.61,1,1,0,0,1-.86-.09A10.86,10.86,0,0,0,242.65,160.27Z" fill="#dfeaef"/><path d="M243.85,166.64a1,1,0,0,1-.76-1.65c5.87-6.84,12.18-2.17,12.24-2.12a1,1,0,0,1,.19,1.4,1,1,0,0,1-1.39.19h0c-.2-.14-4.9-3.55-9.52,1.83A1,1,0,0,1,243.85,166.64Z" fill="#dfeaef"/></g></svg>