<svg xmlns="http://www.w3.org/2000/svg" viewBox="0 0 400 300"><g id="_147_rocket_launch_outline" data-name="#147_rocket_launch_outline"><path d="M298,232.17H102a7.4,7.4,0,0,1-7.38-7.39V75.22A7.4,7.4,0,0,1,102,67.83H298a7.4,7.4,0,0,1,7.38,7.39V224.78A7.4,7.4,0,0,1,298,232.17ZM102,69.83a5.39,5.39,0,0,0-5.38,5.39V224.78a5.39,5.39,0,0,0,5.38,5.39H298a5.39,5.39,0,0,0,5.38-5.39V75.22A5.39,5.39,0,0,0,298,69.83Z" fill="#093f68"/><path d="M206.13,124.54a29.6,29.6,0,0,0-23.92-2.82c-11.57,3.42-20.49,11.17-28,19.56a1.85,1.85,0,0,0,2.1,2.93,23.49,23.49,0,0,1,13.9-2c9.17,1.77,11.67,6.65,11.67,6.65Z" fill="#68e1fd"/><path d="M181.88,149.88h-.15a1,1,0,0,1-.74-.53s-2.47-4.49-11-6.13a22.26,22.26,0,0,0-13.3,1.92,2.85,2.85,0,0,1-3.25-4.52c6-6.68,15.44-16,28.46-19.85a30.31,30.31,0,0,1,24.77,3,1,1,0,0,1,.42.73,1,1,0,0,1-.28.8l-24.25,24.34A1,1,0,0,1,181.88,149.88Zm-15.38-9a20.29,20.29,0,0,1,3.9.37c6.95,1.34,10.28,4.42,11.62,6.08l22.49-22.58a29.24,29.24,0,0,0-22-2.07C170,126.38,160.78,135.45,155,142a.8.8,0,0,0-.05,1.07.79.79,0,0,0,1,.28A26.26,26.26,0,0,1,166.5,140.88Z" fill="#093f68"/><path d="M230.84,158.51a29.58,29.58,0,0,1-4.67,23.62c-6.82,10-16.94,16.06-27.23,20.62a1.85,1.85,0,0,1-2.15-2.9A23.54,23.54,0,0,0,203,187.24c1.13-9.27-2.74-13.16-2.74-13.16Z" fill="#68e1fd"/><path d="M198.16,203.92a2.81,2.81,0,0,1-2.28-1.19,2.77,2.77,0,0,1,.17-3.55A22.22,22.22,0,0,0,202,187.12c1.06-8.6-2.42-12.3-2.46-12.34a1,1,0,0,1-.27-.86,1,1,0,0,1,.53-.73l30.63-15.58a1,1,0,0,1,.85,0,1,1,0,0,1,.56.63A30.31,30.31,0,0,1,227,182.69c-7.66,11.21-19.45,17.34-27.65,21A2.8,2.8,0,0,1,198.16,203.92Zm3.58-29.49c1.16,1.79,3.07,5.91,2.21,12.93a24.2,24.2,0,0,1-6.41,13.16.79.79,0,0,0,0,1,.83.83,0,0,0,1,.29c8-3.54,19.43-9.49,26.81-20.28A29.3,29.3,0,0,0,230.15,160Z" fill="#093f68"/><path d="M247.7,151c-18.88,13.73-35.18,20.86-49.45,23.91L180.48,150.5c7.29-12.64,19.09-26,38-39.69A88.63,88.63,0,0,1,240.72,99c22.94-8.21,41.13-3.53,41.13-3.53s-1.14,18.75-16,38.05A88.49,88.49,0,0,1,247.7,151Z" fill="#fff"/><path d="M198.25,175.92a1,1,0,0,1-.81-.41l-17.77-24.43a1,1,0,0,1-.06-1.08c8.15-14.12,20.66-27.2,38.25-40a90.07,90.07,0,0,1,22.52-12c23-8.22,41-3.75,41.72-3.56a1,1,0,0,1,.75,1c-.05.78-1.33,19.28-16.22,38.6a89.91,89.91,0,0,1-18.35,17.74c-17.58,12.79-33.88,20.67-49.82,24.08A.75.75,0,0,1,198.25,175.92Zm-16.58-25.48,17,23.37c15.46-3.42,31.32-11.15,48.44-23.61h0A87.91,87.91,0,0,0,265,132.86c12.74-16.52,15.29-32.81,15.73-36.65-3.79-.77-20.08-3.35-39.71,3.68a88.09,88.09,0,0,0-22,11.73C201.91,124.08,189.68,136.78,181.67,150.44Z" fill="#093f68"/><polygon points="190.21 184.2 169.18 155.3 180.5 150.52 198.23 174.9 190.21 184.2" fill="#093f68"/><path d="M190.21,185.2h-.05a1,1,0,0,1-.76-.41l-21-28.91a1,1,0,0,1,.42-1.5l11.32-4.78a1,1,0,0,1,1.2.33L199,174.31a1,1,0,0,1,0,1.24l-8,9.3A1,1,0,0,1,190.21,185.2Zm-19.48-29.47,19.54,26.86,6.69-7.75-16.8-23.09Z" fill="#093f68"/><circle cx="234.79" cy="129.66" r="12.92" fill="#f56132"/><path d="M234.81,143.57a13.89,13.89,0,1,1,8.17-2.65A13.89,13.89,0,0,1,234.81,143.57Zm0-25.83a12,12,0,1,0,1.88.15A12,12,0,0,0,234.77,117.74Z" fill="#093f68"/><path d="M265.83,133.47,240.72,99c22.94-8.21,41.13-3.53,41.13-3.53S280.71,114.17,265.83,133.47Z" fill="#68e1fd"/><path d="M265.83,134.47h0a1,1,0,0,1-.8-.41L239.91,99.54a1,1,0,0,1-.15-.88,1,1,0,0,1,.62-.65c23-8.22,41-3.75,41.72-3.56a1,1,0,0,1,.75,1c-.05.78-1.33,19.28-16.22,38.6A1,1,0,0,1,265.83,134.47Zm-23.51-35,23.53,32.34c12-16.14,14.49-31.82,14.92-35.58C277.06,95.46,261.39,93,242.32,99.45Z" fill="#093f68"/><rect x="192.82" y="131.48" width="5.35" height="53.54" rx="2.68" transform="translate(208.45 -92.94) rotate(53.96)" fill="#68e1fd"/><path d="M176,176.1a3.7,3.7,0,0,1-3-1.51h0a3.68,3.68,0,0,1,.81-5.14l39-28.35a3.68,3.68,0,0,1,4.32,6l-39,28.35A3.68,3.68,0,0,1,176,176.1Zm-1.36-2.69a1.68,1.68,0,0,0,2.34.37l39-28.35a1.68,1.68,0,0,0,.37-2.34,1.71,1.71,0,0,0-1.1-.67,1.64,1.64,0,0,0-1.25.3l-39,28.35a1.66,1.66,0,0,0-.67,1.09,1.64,1.64,0,0,0,.3,1.25Z" fill="#093f68"/><path d="M239,138a1,1,0,0,1-.34-1.94,7.84,7.84,0,0,0,3.24-3c2.09-3.14.15-6.68.07-6.83a1,1,0,0,1,.38-1.36,1,1,0,0,1,1.36.37c.11.19,2.63,4.75-.14,8.93a9.61,9.61,0,0,1-4.23,3.8A1,1,0,0,1,239,138Z" fill="#fff"/><path d="M235,139a5.53,5.53,0,0,1-.71,0,1,1,0,1,1,.21-2,10.1,10.1,0,0,0,2.2-.14,1,1,0,0,1,.36,2A12.82,12.82,0,0,1,235,139Z" fill="#fff"/><path d="M123.52,187.47a1,1,0,0,1-.88-.52,1,1,0,0,1,.4-1.36l52.34-28.22a1,1,0,0,1,1,1.76L124,187.35A1,1,0,0,1,123.52,187.47Z" fill="#093f68"/><path d="M153.73,215.54a1,1,0,0,1-.69-.28,1,1,0,0,1,0-1.41l36.34-37.43a1,1,0,0,1,1.43,1.39l-36.33,37.43A1,1,0,0,1,153.73,215.54Z" fill="#093f68"/><path d="M146.14,175.27a1,1,0,0,1-.95-.68A15.17,15.17,0,0,0,137,165c-5.41-2.45-13.1-2-20.58,1.13a1,1,0,0,1-1-.12,1,1,0,0,1-.4-.91A10.85,10.85,0,0,0,109.44,155a14.24,14.24,0,0,0-12.12-.52,1,1,0,0,1-.74-1.86,16.27,16.27,0,0,1,13.84.64,13.11,13.11,0,0,1,6.63,10.51c7.62-2.88,15.12-3.09,20.75-.54A17.13,17.13,0,0,1,147.09,174a1,1,0,0,1-.63,1.26A1.19,1.19,0,0,1,146.14,175.27Z" fill="#093f68"/><path d="M127.33,192.68a1,1,0,0,1-.82-.42c-7.64-10.85-23.39-10-23.55-10a1,1,0,0,1-1.06-.93,1,1,0,0,1,.93-1.06c.7,0,17-.94,25.32,10.82a1,1,0,0,1-.24,1.39A1,1,0,0,1,127.33,192.68Z" fill="#093f68"/><path d="M104.8,210.05a1,1,0,0,1-.87-.51,1,1,0,0,1,.39-1.36l55-30.71a1,1,0,1,1,1,1.74l-55,30.71A1,1,0,0,1,104.8,210.05Z" fill="#dfeaef"/><path d="M102.9,227.16a1,1,0,0,1-.55-1.84l58.92-38.91a1,1,0,1,1,1.1,1.66L103.45,227A1,1,0,0,1,102.9,227.16Z" fill="#dfeaef"/><path d="M135.35,225.94a1,1,0,0,1-.63-1.77l9.48-7.72a1,1,0,0,1,1.41.15,1,1,0,0,1-.15,1.4L136,225.72A1,1,0,0,1,135.35,225.94Z" fill="#dfeaef"/><path d="M153.73,202.72a1,1,0,0,1-.67-1.74l19.35-17.52a1,1,0,1,1,1.34,1.48L154.4,202.46A1,1,0,0,1,153.73,202.72Z" fill="#dfeaef"/><path d="M184.15,231.78l-.18,0a1,1,0,0,1-.8-1.16,9.85,9.85,0,0,0-7.93-11.06,1,1,0,0,1-.76-.56,1,1,0,0,1,.05-.95A12.32,12.32,0,0,0,168.21,200a1,1,0,0,1-.61-1.28,1,1,0,0,1,1.28-.6,14.3,14.3,0,0,1,8,19.77,11.64,11.64,0,0,1,6.14,4.46,11.42,11.42,0,0,1,2.1,8.64A1,1,0,0,1,184.15,231.78Z" fill="#093f68"/><path d="M174.5,226.9h-.13a1,1,0,0,1-.86-1.13,11.55,11.55,0,0,0-6.09-11.5,1,1,0,1,1,.89-1.78A13.59,13.59,0,0,1,175.49,226,1,1,0,0,1,174.5,226.9Z" fill="#093f68"/><path d="M118.34,177a1,1,0,0,1-.9-.57,25.65,25.65,0,0,0-2.26-3.81c-1.7-2.36-3.41-3.71-5.24-4.13a12.2,12.2,0,0,0-4.86.29,1,1,0,0,1-.38-2,14,14,0,0,1,5.68-.27c2.33.53,4.43,2.14,6.43,4.92a28.17,28.17,0,0,1,2.43,4.1,1,1,0,0,1-.47,1.34A.91.91,0,0,1,118.34,177Z" fill="#dfeaef"/><path d="M269.14,214.85a23.17,23.17,0,1,1,0-46.34,21,21,0,0,1,2.83.18,22.67,22.67,0,0,1,9.53,3.39,23.19,23.19,0,0,1,8.7,29.27l-.06.11a23.11,23.11,0,0,1-21,13.39Zm0-44.34A21.17,21.17,0,0,0,248,191.69a20.82,20.82,0,0,0,2.39,9.77,21.15,21.15,0,0,0,38-.94l.06-.12a20.77,20.77,0,0,0,1.88-8.71,21.1,21.1,0,0,0-9.87-17.92,20.68,20.68,0,0,0-8.72-3.09A17.65,17.65,0,0,0,269.14,170.51Zm20.15,30.42h0Z" fill="#dfeaef"/><path d="M269.14,214.85a23.1,23.1,0,0,1-20.56-12.47,1,1,0,0,1,.3-1.26,26.28,26.28,0,0,0,3-2.81c.42-.43.84-.87,1.27-1.28,2.55-2.5,4.94-3.74,7.32-3.79a6.24,6.24,0,0,1,4.72,2.12,4.51,4.51,0,0,1,1.11,3.75,6.79,6.79,0,0,1-.27,1,4.48,4.48,0,0,0-.2.78c-.23,1.5,1.32,2.91,2.94,3.41a16.15,16.15,0,0,0,3.11.55,20.91,20.91,0,0,1,3.07.51,10.94,10.94,0,0,1,6.41,4.85,1,1,0,0,1-.34,1.37A23.12,23.12,0,0,1,269.14,214.85Zm-18.39-12.67a21.2,21.2,0,0,0,28.33,8.2,8.91,8.91,0,0,0-4.64-3.1,18.07,18.07,0,0,0-2.76-.45,18,18,0,0,1-3.48-.63c-2.39-.74-4.73-2.95-4.33-5.6a5.81,5.81,0,0,1,.28-1.11,6.05,6.05,0,0,0,.2-.73,2.52,2.52,0,0,0-.66-2.09,4.11,4.11,0,0,0-3.15-1.43c-1.85,0-3.8,1.09-6,3.22-.41.4-.82.82-1.23,1.24A32,32,0,0,1,250.75,202.18Z" fill="#dfeaef"/><path d="M289.29,201.93a1.07,1.07,0,0,1-.25,0,7.3,7.3,0,0,1-4.34-2.83,13.35,13.35,0,0,1-1.56-3.54c-.68-2.09-1.18-3.38-2.44-3.76a5.24,5.24,0,0,0-2.42.15,8.53,8.53,0,0,1-2.65.27,5,5,0,0,1-3.49-2.06,7.05,7.05,0,0,1-1.24-5.39c.56-2.94,2.64-5.25,4.8-7.32l.48-.46a21.13,21.13,0,0,0,3.92-4.53,1,1,0,0,1,1.74,1,22.69,22.69,0,0,1-4.28,5l-.48.46c-1.79,1.72-3.74,3.75-4.22,6.25a5.08,5.08,0,0,0,.88,3.82,3,3,0,0,0,2.09,1.27,6.83,6.83,0,0,0,2-.24,6.86,6.86,0,0,1,3.41-.1c2.35.71,3.1,3,3.77,5a11.85,11.85,0,0,0,1.29,3,5.42,5.42,0,0,0,3.17,2,1,1,0,0,1-.22,2Z" fill="#dfeaef"/><path d="M254.08,185.55a13.25,13.25,0,0,1-5.87-1.52,1,1,0,0,1-.46-1.27,23.12,23.12,0,0,1,21.39-14.25,21,21,0,0,1,2.83.18,1,1,0,0,1,.73.49,1,1,0,0,1,.07.87,8.57,8.57,0,0,1-2.16,3.12,20,20,0,0,1-4.7,3l-1.29.66a11.43,11.43,0,0,0-3.92,3,7.43,7.43,0,0,0-.83,1.67,5.46,5.46,0,0,1-5.79,4.1Zm-4.09-2.9c2.26.95,5.14,1.29,6.64.26a4.63,4.63,0,0,0,1.38-2.22,9.84,9.84,0,0,1,1.09-2.11,13.17,13.17,0,0,1,4.59-3.57l1.32-.68a18.24,18.24,0,0,0,4.25-2.63,7.38,7.38,0,0,0,1-1.16c-.36,0-.74,0-1.12,0A21.13,21.13,0,0,0,250,182.65Z" fill="#dfeaef"/><path d="M140.81,112.41a12.55,12.55,0,1,1,12.55-12.55A12.56,12.56,0,0,1,140.81,112.41Zm0-23.1a10.55,10.55,0,1,0,10.55,10.55A10.57,10.57,0,0,0,140.81,89.31Z" fill="#dfeaef"/><path d="M126.48,114.18a1,1,0,0,1-.41-.07,1.65,1.65,0,0,1-1-1.31c-.28-2,3.4-5.35,5.61-7.17a1,1,0,1,1,1.27,1.55,23.38,23.38,0,0,0-4.74,4.92c4.71-1.61,27-18.19,29.21-21.76-.88-.21-3.87.61-7,2.2a1,1,0,1,1-.9-1.78c1-.53,6.32-3.1,8.72-2.24a2.05,2.05,0,0,1,1.23,1.11c.37.85-.14,1.79-1.94,3.59C152,97.7,130.72,114.18,126.48,114.18Z" fill="#dfeaef"/><path d="M243.86,80.52c-3.9,0-3.9,6.06,0,6.06S247.76,80.52,243.86,80.52Z" fill="#dfeaef"/><path d="M118,81.47c-3.9,0-3.9,6.06,0,6.06S121.94,81.47,118,81.47Z" fill="#dfeaef"/><path d="M289.29,138.51c-3.89,0-3.9,6.06,0,6.06S293.19,138.51,289.29,138.51Z" fill="#dfeaef"/><path d="M177.88,93a3.23,3.23,0,1,1,3.23-3.23A3.23,3.23,0,0,1,177.88,93Zm0-4.46a1.23,1.23,0,1,0,1.23,1.23A1.24,1.24,0,0,0,177.88,88.53Z" fill="#dfeaef"/><path d="M190.06,217.08a3.23,3.23,0,1,1,3.23-3.23A3.23,3.23,0,0,1,190.06,217.08Zm0-4.46a1.23,1.23,0,1,0,1.23,1.23A1.24,1.24,0,0,0,190.06,212.62Z" fill="#dfeaef"/><path d="M230.54,207.08a1,1,0,0,1-1-1v-3.16a1,1,0,0,1,2,0v3.16A1,1,0,0,1,230.54,207.08Z" fill="#dfeaef"/><path d="M230.54,214.88a1,1,0,0,1-1-1v-3.17a1,1,0,0,1,2,0v3.17A1,1,0,0,1,230.54,214.88Z" fill="#dfeaef"/><path d="M236,209.4h-3.17a1,1,0,0,1,0-2H236a1,1,0,0,1,0,2Z" fill="#dfeaef"/><path d="M228.23,209.4h-3.17a1,1,0,0,1,0-2h3.17a1,1,0,0,1,0,2Z" fill="#dfeaef"/><path d="M209.19,92.78a1,1,0,0,1-1-1V88.61a1,1,0,0,1,2,0v3.17A1,1,0,0,1,209.19,92.78Z" fill="#dfeaef"/><path d="M209.19,100.57a1,1,0,0,1-1-1V96.4a1,1,0,0,1,2,0v3.17A1,1,0,0,1,209.19,100.57Z" fill="#dfeaef"/><path d="M214.67,95.09H211.5a1,1,0,0,1,0-2h3.17a1,1,0,0,1,0,2Z" fill="#dfeaef"/><path d="M206.88,95.09h-3.17a1,1,0,0,1,0-2h3.17a1,1,0,0,1,0,2Z" fill="#dfeaef"/><path d="M137.62,136.67a1,1,0,0,1-1-1V132.5a1,1,0,0,1,2,0v3.17A1,1,0,0,1,137.62,136.67Z" fill="#dfeaef"/><path d="M137.62,144.46a1,1,0,0,1-1-1v-3.17a1,1,0,1,1,2,0v3.17A1,1,0,0,1,137.62,144.46Z" fill="#dfeaef"/><path d="M143.09,139h-3.16a1,1,0,0,1,0-2h3.16a1,1,0,0,1,0,2Z" fill="#dfeaef"/><path d="M135.3,139h-3.16a1,1,0,0,1,0-2h3.16a1,1,0,0,1,0,2Z" fill="#dfeaef"/><path d="M280.52,160.59a1,1,0,0,1-1-1v-8a1,1,0,0,1,2,0v8A1,1,0,0,1,280.52,160.59Z" fill="#dfeaef"/><path d="M284.5,156.61h-8a1,1,0,0,1,0-2h8a1,1,0,0,1,0,2Z" fill="#dfeaef"/><path d="M111.62,126.68a1,1,0,0,1-1-1v-8a1,1,0,0,1,2,0v8A1,1,0,0,1,111.62,126.68Z" fill="#dfeaef"/><path d="M115.59,122.7h-8a1,1,0,0,1,0-2h8a1,1,0,0,1,0,2Z" fill="#dfeaef"/></g></svg>