<svg xmlns="http://www.w3.org/2000/svg" viewBox="0 0 400 300"><g id="_148_rocket_launch_outline" data-name="#148_rocket_launch_outline"><path d="M293.84,150A93.75,93.75,0,0,1,200,243.85c-2.07,0-4.14-.07-6.18-.21a93.85,93.85,0,1,1,100-93.64Z" fill="#093f68"/><path d="M200,244.85c-2.09,0-4.2-.08-6.25-.22a94.35,94.35,0,1,1,6.25.22Zm0-187.7a92.85,92.85,0,0,0-6.12,185.49c2,.14,4.08.21,6.12.21a92.85,92.85,0,0,0,0-185.7Z" fill="#093f68"/><path d="M292.83,163.82a93.78,93.78,0,0,1-92.83,80c-2.07,0-4.14-.07-6.18-.21A64.61,64.61,0,0,1,177.5,221a63.68,63.68,0,0,1-4.32-14.77,65.11,65.11,0,0,1-.87-10.61,64.43,64.43,0,0,1,117.94-35.91Q291.63,161.7,292.83,163.82Z" fill="#68e1fd"/><path d="M200,244.85c-2.09,0-4.2-.08-6.25-.22a1,1,0,0,1-.6-.25,66,66,0,0,1-16.57-23,64.53,64.53,0,0,1-4.39-15A65.45,65.45,0,0,1,272,140.45a64.94,64.94,0,0,1,19.06,18.66c.94,1.38,1.82,2.8,2.62,4.22a1,1,0,0,1,.12.64A94.79,94.79,0,0,1,200,244.85Zm-5.77-2.19c1.9.12,3.84.19,5.77.19A92.86,92.86,0,0,0,291.79,164c-.73-1.27-1.52-2.54-2.37-3.78a63.43,63.43,0,0,0-116.11,35.35,64,64,0,0,0,.85,10.44,62.69,62.69,0,0,0,4.26,14.54A64,64,0,0,0,194.23,242.66Z" fill="#093f68"/><path d="M270.63,153.84c-3.14,8.47-10,9.42-17.34,4.83-3.15-2-6.57-4.41-10.24-3.73-4.28.81-6.63,5.5-7.48,9.78-.66,3.27-1.52,7.42-4.79,8.07a19.39,19.39,0,0,1-3.32,0c-4.51.14-7.38,5-8,9.52-.72,5.64.83,10-4,14.09a7.39,7.39,0,0,1-5.93,1.93,5.67,5.67,0,0,1-4.51-4.82c-.2-1.85.54-3.68.51-5.54,0-2.59-1.69-5.61-2.16-8.26-.3-1.74-2.13-2.89-3.89-3a11.88,11.88,0,0,0-5.14,1.14l-10.49,4c-1.8.69-4.13,1.26-5.4-.19a4.56,4.56,0,0,1-.72-3.33c1.57-28.66,32.37-47.16,58.93-47.16a64.13,64.13,0,0,1,34.74,10.16A22.73,22.73,0,0,1,270.63,153.84Z" fill="#70cc40"/><path d="M210.59,199.39a6.41,6.41,0,0,1-1.16-.1,6.61,6.61,0,0,1-5.32-5.69,11.47,11.47,0,0,1,.25-3.33,13.46,13.46,0,0,0,.25-2.3,15.48,15.48,0,0,0-1.1-4.48,25.11,25.11,0,0,1-1-3.63c-.23-1.3-1.71-2.1-3-2.2a11.49,11.49,0,0,0-4.71,1.08l-10.48,4c-1.14.43-4.58,1.74-6.51-.47a5.4,5.4,0,0,1-1-4.05c1.58-28.77,32.26-48.1,59.93-48.1A65.2,65.2,0,0,1,272,140.45a1,1,0,0,1,.44.63,23.69,23.69,0,0,1-.89,13.11h0c-1.48,4-3.89,6.65-7,7.69-3.42,1.17-7.52.35-11.84-2.37L252,159c-2.85-1.81-5.79-3.67-8.78-3.11-4.72.88-6.31,7.1-6.69,9-.69,3.4-1.62,8.06-5.58,8.85a8.56,8.56,0,0,1-2.31,0,11.57,11.57,0,0,0-1.17,0c-3.84.12-6.47,4.54-7,8.64a36.39,36.39,0,0,0-.25,4.07c-.09,3.77-.18,7.32-4.06,10.65A8.71,8.71,0,0,1,210.59,199.39Zm-11.51-23.74a5.06,5.06,0,0,1,.55,0c2.08.16,4.4,1.53,4.81,3.85a22.3,22.3,0,0,0,1,3.32,17,17,0,0,1,1.2,5.1,14.46,14.46,0,0,1-.28,2.67,9.88,9.88,0,0,0-.23,2.77,4.64,4.64,0,0,0,3.68,3.94,6.43,6.43,0,0,0,5.11-1.7c3.2-2.75,3.27-5.6,3.36-9.19a40.83,40.83,0,0,1,.26-4.27c.65-5,3.92-10.24,8.92-10.39a12.52,12.52,0,0,1,1.38.06,6.93,6.93,0,0,0,1.77,0c2.45-.49,3.26-3.59,4-7.29,1.17-5.86,4.27-9.81,8.28-10.56,3.76-.71,7.19,1.47,10.22,3.39l.74.47c3.79,2.38,7.29,3.13,10.13,2.17,2.52-.86,4.45-3,5.73-6.5h0a21.52,21.52,0,0,0,.9-11.58,63.19,63.19,0,0,0-33.85-9.78c-26.75,0-56.42,18.57-57.93,46.21a3.79,3.79,0,0,0,.47,2.62c.68.78,2.12.75,4.29-.08l10.49-4A14.13,14.13,0,0,1,199.08,175.65Zm71.55-21.81h0Z" fill="#093f68"/><path d="M239.94,235a93.47,93.47,0,0,1-39.94,8.9c-2.07,0-4.14-.07-6.18-.21A64.61,64.61,0,0,1,177.5,221a15.3,15.3,0,0,1,7.8-3.45c11.54-1.84,10.86,8.29,18.22,13,2.92,1.88,6.73.44,10.06-.56a29.47,29.47,0,0,1,19,.35A23.31,23.31,0,0,1,239.94,235Z" fill="#70cc40"/><path d="M200,244.85c-2.09,0-4.2-.08-6.25-.22a1,1,0,0,1-.6-.25,66,66,0,0,1-16.57-23,1,1,0,0,1,.26-1.15,16.42,16.42,0,0,1,8.3-3.68c8-1.27,10.71,2.91,13.37,6.95,1.49,2.26,3,4.61,5.56,6.23,2.27,1.46,5.36.51,8.34-.41l.89-.27a30.43,30.43,0,0,1,19.61.37,24.53,24.53,0,0,1,7.71,4.82,1,1,0,0,1-.25,1.64A94,94,0,0,1,200,244.85Zm-5.77-2.19c1.9.12,3.84.19,5.77.19a92.12,92.12,0,0,0,38.12-8.16,22.49,22.49,0,0,0-5.93-3.43,28.47,28.47,0,0,0-18.32-.33l-.87.27c-3.27,1-7,2.14-10,.18-2.87-1.85-4.61-4.49-6.14-6.81-2.63-4-4.7-7.14-11.39-6.08a14.72,14.72,0,0,0-6.73,2.76A64,64,0,0,0,194.23,242.66Z" fill="#093f68"/><path d="M292.83,163.82a93.77,93.77,0,0,1-34,59.33c.05-8.28-4.1-14.5-4.66-23-.26-4.09,2.48-7.8,5.69-10.35s7-4.33,10.1-7c7.88-6.75,11.2-18.74,20.32-23.18Q291.63,161.7,292.83,163.82Z" fill="#70cc40"/><path d="M258.8,224.15a1,1,0,0,1-.43-.1,1,1,0,0,1-.57-.91c0-4.24-1.08-7.9-2.26-11.78a49.17,49.17,0,0,1-2.4-11.11c-.24-3.86,2-7.94,6.07-11.2a53.1,53.1,0,0,1,4.81-3.28,46.25,46.25,0,0,0,5.26-3.68c3.26-2.79,5.78-6.6,8.21-10.3,3.37-5.09,6.85-10.35,12.32-13a1,1,0,0,1,1.27.34c.94,1.38,1.82,2.8,2.62,4.22a1,1,0,0,1,.12.64,94.52,94.52,0,0,1-34.39,60A1,1,0,0,1,258.8,224.15ZM289.92,161c-4.55,2.53-7.57,7.1-10.76,11.93-2.51,3.8-5.11,7.74-8.58,10.71a46.86,46.86,0,0,1-5.49,3.85,54.14,54.14,0,0,0-4.64,3.16c-1.69,1.35-5.6,5-5.31,9.5a46.75,46.75,0,0,0,2.32,10.66,47,47,0,0,1,2.27,10.31A92.49,92.49,0,0,0,291.79,164C291.21,163,290.58,162,289.92,161Z" fill="#093f68"/><polygon points="178.95 152.91 155.4 129.59 168.91 123.34 185.07 139.33 178.95 152.91" fill="#68e1fd"/><path d="M179,153.91a1,1,0,0,1-.7-.29L154.7,130.3a1,1,0,0,1-.28-.88,1,1,0,0,1,.56-.74l13.52-6.25a1,1,0,0,1,1.12.2l16.15,16a1,1,0,0,1,.21,1.12l-6.12,13.58a1,1,0,0,1-.73.57Zm-21.82-24,21.5,21.29,5.24-11.63-15.16-15Z" fill="#093f68"/><path d="M239.2,95l-49,49.48-26.45-26.19,49-49.48a9.8,9.8,0,0,1,1-.84c6.24-4.85,23.34-8.22,31.66-9.63a3.44,3.44,0,0,1,4,3.94C248,70.56,244.82,87.7,240,94A10,10,0,0,1,239.2,95Z" fill="#fff"/><path d="M190.22,145.43a1,1,0,0,1-.71-.29L163.06,119a1,1,0,0,1-.29-.7,1,1,0,0,1,.29-.71l49-49.48a10,10,0,0,1,1.06-.92c6.29-4.9,22.82-8.27,32.11-9.84a4.44,4.44,0,0,1,5.13,5.09c-1.48,9.31-4.69,25.87-9.51,32.2a12,12,0,0,1-.91,1.06h0l-49,49.48A1,1,0,0,1,190.22,145.43Zm-25-27.2,25,24.78,48.28-48.76a10.66,10.66,0,0,0,.75-.87c4.72-6.2,8-24,9.13-31.31a2.45,2.45,0,0,0-2.83-2.8c-7.33,1.24-25,4.65-31.21,9.44a10,10,0,0,0-.86.75Zm74-23.28Z" fill="#093f68"/><path d="M154.37,97.59l29.19.67-19.79,20L148.42,103a1.86,1.86,0,0,1,0-2.64l.65-.67A7.27,7.27,0,0,1,154.37,97.59Z" fill="#68e1fd"/><path d="M163.77,119.24a1,1,0,0,1-.71-.29l-15.34-15.19a2.86,2.86,0,0,1,0-4.06l.65-.67a8.45,8.45,0,0,1,6-2.44h0l29.19.67a1,1,0,0,1,.9.62,1,1,0,0,1-.21,1.08l-19.79,20a1,1,0,0,1-.71.29Zm-9.56-20.65a6.28,6.28,0,0,0-4.44,1.85l-.65.66a.87.87,0,0,0,0,1.23l14.64,14.5L181.21,99.2l-26.86-.61Z" fill="#093f68"/><path d="M211,153.62l-1-29.18-19.79,20,15.35,15.19a1.88,1.88,0,0,0,2.65,0l.66-.66A7.26,7.26,0,0,0,211,153.62Z" fill="#68e1fd"/><path d="M206.88,161.16a2.84,2.84,0,0,1-2-.83l-15.35-15.19a1,1,0,0,1,0-1.42l19.79-20a1,1,0,0,1,1.08-.23,1,1,0,0,1,.63.9l1,29.18h0a8.3,8.3,0,0,1-2.38,6.06l-.66.66A2.85,2.85,0,0,1,206.88,161.16Zm-15.25-16.74,14.64,14.49a.87.87,0,0,0,1.23,0l.66-.67a6.27,6.27,0,0,0,1.8-4.59h0l-.88-26.86Z" fill="#093f68"/><path d="M176.72,137l-5.41-5.35,23.8-19.47a.59.59,0,0,1,.85.83Z" fill="#68e1fd"/><path d="M176.72,138a1,1,0,0,1-.7-.28l-5.41-5.36a1,1,0,0,1,.07-1.49l23.8-19.47a1.59,1.59,0,0,1,2.27,2.22l-19.25,24a1,1,0,0,1-.72.37Zm-3.91-6.28,3.83,3.79,16.14-20.13Z" fill="#093f68"/><circle cx="210.05" cy="97.95" r="10.45" fill="#ffbc0e"/><path d="M210,109.4a11.45,11.45,0,0,1,0-22.9h.06a11.45,11.45,0,0,1,0,22.9Zm0-20.9H210a9.46,9.46,0,0,0-9.41,9.5,9.45,9.45,0,0,0,2.8,6.67,9.25,9.25,0,0,0,6.7,2.73,9.45,9.45,0,0,0,0-18.9Z" fill="#093f68"/><path d="M239.2,95,238,96.16A59,59,0,0,0,211.56,70l1.2-1.21a9.8,9.8,0,0,1,1-.84c6.24-4.85,23.34-8.22,31.66-9.63a3.44,3.44,0,0,1,4,3.94C248,70.56,244.82,87.7,240,94A10,10,0,0,1,239.2,95Z" fill="#68e1fd"/><path d="M238,97.16l-.17,0a1,1,0,0,1-.74-.56,57.91,57.91,0,0,0-26-25.7,1,1,0,0,1-.29-1.61L212,68.06a10,10,0,0,1,1.06-.92c6.29-4.9,22.82-8.27,32.11-9.84a4.44,4.44,0,0,1,5.13,5.09c-1.48,9.31-4.69,25.87-9.51,32.2a12,12,0,0,1-.91,1.06h0l-1.2,1.21A1,1,0,0,1,238,97.16Zm1.2-2.21Zm-26-25.26a60.19,60.19,0,0,1,25,24.78l.22-.22a10.66,10.66,0,0,0,.75-.87c4.72-6.2,8-24,9.13-31.31a2.45,2.45,0,0,0-2.83-2.8c-7.33,1.24-25,4.65-31.21,9.44a10,10,0,0,0-.86.75Z" fill="#093f68"/><path d="M220.82,215.23c1.37.68,3,.11,4.52.34,2.27.35,3.85,2.41,5.91,3.41a7.54,7.54,0,0,0,6.51-.15c7.43-3.69,6-14.26-2.76-13-3.47.5-8.1.9-11.37,2C221.15,208.7,216.54,213.1,220.82,215.23Z" fill="#70cc40"/><path d="M234.29,220.65a8.07,8.07,0,0,1-3.47-.77,14.67,14.67,0,0,1-2.44-1.6,7.65,7.65,0,0,0-3.19-1.72,7.79,7.79,0,0,0-1.61,0,6.11,6.11,0,0,1-3.2-.41,3.52,3.52,0,0,1-2.3-3.45c.17-2.53,3.16-5.07,5.23-5.78a49.46,49.46,0,0,1,9.15-1.74l2.4-.32c4.87-.71,7.51,1.9,8.34,4.58,1.05,3.36-.33,8-5,10.3A8.78,8.78,0,0,1,234.29,220.65Zm-9.82-6.14a7,7,0,0,1,1,.07,9.11,9.11,0,0,1,4.09,2.11,14.17,14.17,0,0,0,2.11,1.39,6.56,6.56,0,0,0,5.62-.15c3.67-1.82,4.78-5.36,4-7.92s-3.06-3.64-6.14-3.2c-.77.12-1.59.22-2.44.33a48.57,48.57,0,0,0-8.75,1.65c-1.46.5-3.79,2.5-3.89,4,0,.25-.06.9,1.2,1.53h0a4.66,4.66,0,0,0,2.21.21C223.8,214.53,224.14,214.51,224.47,214.51Z" fill="#093f68"/><path d="M175.29,226.09h-.1A42.29,42.29,0,0,1,144.13,203c-17-33.64,17.06-57.87,17.4-58.11a1,1,0,1,1,1.14,1.64c-.33.23-32.93,23.49-16.75,55.57a40.29,40.29,0,0,0,29.46,22,1,1,0,0,1-.09,2Z" fill="#fff"/><path d="M150.37,185.45a1,1,0,0,1-1-.91c-1.44-15.69,16.53-32.5,17.3-33.21a1,1,0,0,1,1.41,0,1,1,0,0,1-.05,1.42c-.18.16-18,16.86-16.67,31.56a1,1,0,0,1-.91,1.09Z" fill="#fff"/><path d="M144.48,152.63a1,1,0,0,1-.58-.18,1,1,0,0,1-.24-1.4c4-5.68,11.51-11.77,11.83-12a1,1,0,0,1,1.4.16,1,1,0,0,1-.15,1.4c-.08.06-7.63,6.17-11.44,11.62A1,1,0,0,1,144.48,152.63Z" fill="#fff"/></g></svg>