<svg xmlns="http://www.w3.org/2000/svg" viewBox="0 0 400 300"><g id="_403_san_fransisco_outline" data-name="#403_san_fransisco_outline"><path d="M293.85,150a95.78,95.78,0,0,1-.76,12.05q-.54,4.19-1.45,8.25a93.05,93.05,0,0,1-6.47,19.15c-.25.57-.52,1.13-.79,1.69l-.64,1.27c-.38.74-.76,1.48-1.17,2.21a93.86,93.86,0,0,1-162.92,3.89c-.81-1.33-1.58-2.69-2.33-4.07,0,0,0,0,0,0-.26-.48-.52-1-.76-1.46a92.45,92.45,0,0,1-8.19-22.66q-.92-4.06-1.45-8.25a95.78,95.78,0,0,1-.76-12.05c0-2.28.08-4.55.24-6.79a93.85,93.85,0,0,1,187.21-.08Q293.85,146.54,293.85,150Z" fill="#fff"/><path d="M200,244.85A94.24,94.24,0,0,1,118.79,199c-.74-1.22-1.51-2.57-2.35-4.11,0,0,0,0,0,0-.26-.49-.52-1-.77-1.48a93.58,93.58,0,0,1-8.27-22.89c-.6-2.68-1.1-5.49-1.46-8.33a97.16,97.16,0,0,1-.77-12.18c0-2.3.08-4.61.24-6.86a94.86,94.86,0,0,1,189.21-.08c.16,2.24.25,4.57.25,6.94a97.16,97.16,0,0,1-.77,12.18c-.36,2.84-.86,5.64-1.46,8.34a94.26,94.26,0,0,1-6.54,19.35c-.25.56-.52,1.13-.8,1.71l-.65,1.28c-.39.77-.77,1.51-1.19,2.25A94.77,94.77,0,0,1,200,244.85ZM118.21,194c.82,1.51,1.57,2.82,2.29,4a92.86,92.86,0,0,0,161.19-3.85c.41-.72.78-1.45,1.15-2.17l.65-1.28c.26-.53.52-1.08.76-1.64a92.17,92.17,0,0,0,6.41-19c.6-2.64,1.08-5.38,1.44-8.16a94.79,94.79,0,0,0,.75-11.92c0-2.32-.08-4.6-.25-6.8a92.85,92.85,0,0,0-92.6-86c-48.48,0-89.16,37.83-92.61,86.13-.16,2.21-.24,4.47-.24,6.72a94.79,94.79,0,0,0,.75,11.92c.36,2.78.84,5.53,1.44,8.16a91.29,91.29,0,0,0,8.1,22.42c.24.5.5,1,.75,1.44Z" fill="#093f68"/><path d="M201.36,147.92c-24.13,0-45.93-12.52-55.59-31.9a1,1,0,0,1,.45-1.34,1,1,0,0,1,1.34.45c9.32,18.71,30.43,30.8,53.76,30.8,25.88-1.08,44.15-16.24,50.76-30.77a1,1,0,1,1,1.82.83C247,131.08,228.13,146.81,201.36,147.92Z" fill="#093f68"/><path d="M106.39,144.21a1,1,0,0,1-1-.68,1,1,0,0,1,.63-1.27,60.14,60.14,0,0,0,14-6.9,55,55,0,0,0,17.71-19.1c.23-.39.43-.77.62-1.15a1,1,0,1,1,1.78.92c-.21.4-.43.82-.65,1.21A57.16,57.16,0,0,1,121.21,137a62.29,62.29,0,0,1-14.5,7.14A1.13,1.13,0,0,1,106.39,144.21Z" fill="#093f68"/><path d="M293.6,144.13a1.25,1.25,0,0,1-.32,0,62.43,62.43,0,0,1-14.48-7,53.86,53.86,0,0,1-18.36-19.87c-.22-.4-.44-.81-.65-1.22a1,1,0,0,1,1.8-.9c.19.39.39.78.61,1.17a51.85,51.85,0,0,0,17.7,19.14,59.7,59.7,0,0,0,14,6.75,1,1,0,0,1-.32,1.95Z" fill="#093f68"/><path d="M293.09,162.05q-.54,4.19-1.45,8.25H108.36q-.92-4.06-1.45-8.25Z" fill="#f56132"/><path d="M291.64,171.3H108.36a1,1,0,0,1-1-.78c-.6-2.69-1.1-5.5-1.46-8.34a1,1,0,0,1,1-1.13H293.09a1,1,0,0,1,1,1.13c-.36,2.84-.86,5.64-1.46,8.34A1,1,0,0,1,291.64,171.3Zm-182.48-2H290.84c.43-2,.81-4.13,1.11-6.25H108.05C108.35,165.17,108.73,167.27,109.16,169.3Z" fill="#093f68"/><rect x="252.31" y="101.72" width="9.01" height="95.28" fill="#f56132"/><path d="M261.32,198h-9a1,1,0,0,1-1-1V101.72a1,1,0,0,1,1-1h9a1,1,0,0,1,1,1V197A1,1,0,0,1,261.32,198Zm-8-2h7V102.72h-7Z" fill="#093f68"/><rect x="138.68" y="101.72" width="9.01" height="95.28" fill="#f56132"/><path d="M147.69,198h-9a1,1,0,0,1-1-1V101.72a1,1,0,0,1,1-1h9a1,1,0,0,1,1,1V197A1,1,0,0,1,147.69,198Zm-8-2h7V102.72h-7Z" fill="#093f68"/><path d="M120.65,163.05a1,1,0,0,1-1-1V136.19a1,1,0,0,1,2,0v25.86A1,1,0,0,1,120.65,163.05Z" fill="#093f68"/><path d="M279.35,163.05a1,1,0,0,1-1-1V136.19a1,1,0,0,1,2,0v25.86A1,1,0,0,1,279.35,163.05Z" fill="#093f68"/><path d="M165.31,163.05a1,1,0,0,1-1-1v-25a1,1,0,0,1,2,0v25A1,1,0,0,1,165.31,163.05Z" fill="#093f68"/><path d="M188.43,163.05a1,1,0,0,1-1-1V145.68a1,1,0,0,1,2,0v16.37A1,1,0,0,1,188.43,163.05Z" fill="#093f68"/><path d="M211.57,163.05a1,1,0,0,1-1-1V145.67a1,1,0,0,1,2,0v16.38A1,1,0,0,1,211.57,163.05Z" fill="#093f68"/><path d="M234.69,163.05a1,1,0,0,1-1-1v-25a1,1,0,0,1,2,0v25A1,1,0,0,1,234.69,163.05Z" fill="#093f68"/><path d="M285.17,189.45c-.25.57-.52,1.13-.79,1.69l-.64,1.27c-.38.74-.76,1.48-1.17,2.21a93.86,93.86,0,0,1-162.92,3.89c-.81-1.33-1.58-2.69-2.33-4.07a12.21,12.21,0,0,0,4.7.19,13.51,13.51,0,0,0,5.58-2.83c2.43-1.86,1.8-1.82,4.3-.62,3.6,1.73,6.29,3.45,10.52,3.11,5.84-.47,6.82-3.24,9.49-7.68,2.06,4.16,6.89,7,11.49,7.32A13.28,13.28,0,0,0,175,188.5a12.34,12.34,0,0,0,21.08.95c1.82,9.57,16.25,5.24,19.56-.71,2,3.78,5.8,5.13,9.82,5.39,4.58.28,7.87-.07,11-4a12.27,12.27,0,0,0,19.84.24c.67,3,4.26,4.6,7.24,3.92s5.28-3.06,6.85-5.67c.25,2.64,2.9,4.59,5.55,4.78a11.89,11.89,0,0,0,7.41-2.52Q284.3,190.19,285.17,189.45Z" fill="#68e1fd"/><path d="M200,244.85A94.24,94.24,0,0,1,118.79,199c-.74-1.22-1.51-2.57-2.35-4.11a1,1,0,0,1,.08-1.08,1,1,0,0,1,1-.38,11.4,11.4,0,0,0,4.32.19A12.65,12.65,0,0,0,127,191l.77-.6c1.66-1.31,2.06-1.36,3.89-.45l.67.33,1.43.7c2.91,1.45,5.21,2.58,8.58,2.31,4.72-.38,5.79-2.21,7.93-5.87l.78-1.33a1,1,0,0,1,1.76.08,13.2,13.2,0,0,0,10.65,6.76,12.22,12.22,0,0,0,10.74-5,1,1,0,0,1,1.7.09,11.34,11.34,0,0,0,19.37.87,1,1,0,0,1,1-.42,1,1,0,0,1,.78.79A5.41,5.41,0,0,0,201.9,194c4.51.72,10.88-2.1,12.89-5.7a1,1,0,0,1,.88-.51,1,1,0,0,1,.88.54c1.55,3,4.49,4.56,9,4.85,4.7.29,7.42-.19,10.15-3.67a1,1,0,0,1,.81-.38,1,1,0,0,1,.8.42,11.47,11.47,0,0,0,9,4.75h.14a11.45,11.45,0,0,0,9-4.53,1,1,0,0,1,1.78.38,3.92,3.92,0,0,0,1.82,2.43,5.81,5.81,0,0,0,4.22.74c2.94-.67,5-3.21,6.21-5.22a1,1,0,0,1,1.86.43c.2,2.2,2.56,3.73,4.62,3.87s4.32-.64,6.77-2.34c.59-.41,1.17-.86,1.72-1.32a1,1,0,0,1,1.57,1.16c-.26.58-.53,1.15-.81,1.73l-.65,1.28c-.39.77-.77,1.51-1.19,2.25A94.77,94.77,0,0,1,200,244.85Zm-80.82-49.12c.46.81.89,1.55,1.32,2.26a92.86,92.86,0,0,0,161.19-3.85c.3-.53.58-1.07.86-1.6a11.76,11.76,0,0,1-6.66,1.81,7.44,7.44,0,0,1-5.8-3.53,11.39,11.39,0,0,1-6.31,4.4,7.76,7.76,0,0,1-5.73-1,6.42,6.42,0,0,1-2-2,13.25,13.25,0,0,1-19.57-.55c-3.35,3.62-7,3.73-11,3.48-4.5-.29-7.79-1.83-9.8-4.57-3,3.61-9.32,6.12-14,5.36a7.32,7.32,0,0,1-5.88-4.36,13.32,13.32,0,0,1-20.77-1.32,14.47,14.47,0,0,1-11.6,4.69,15.66,15.66,0,0,1-11.42-6.36c-2.12,3.64-3.72,6.26-9.41,6.72-3.93.32-6.57-1-9.63-2.52l-1.4-.69c-.27-.12-.49-.24-.7-.34a5.86,5.86,0,0,0-.92-.41c-.08,0-.47.34-.84.64l-.8.62a14.36,14.36,0,0,1-6,3A10.66,10.66,0,0,1,119.18,195.73Z" fill="#093f68"/><path d="M240.45,92.52H210.71c-3.53,0-6.39-2.33-6.39-5.18,0-2.19,1.7-4.13,4.2-4.87a7.45,7.45,0,0,1,6.16-3.76c.72-2.76,3.77-4.81,7.36-4.81a7.93,7.93,0,0,1,6.74,3.35,11.62,11.62,0,0,1,4.9-1.06c4.74,0,8.78,2.79,9.53,6.47a5.24,5.24,0,0,1,3.63,4.68C246.84,90.19,244,92.52,240.45,92.52ZM215.52,80.68c-2.49,0-4.68,1.23-5.35,3a1,1,0,0,1-.72.62c-1.84.41-3.13,1.66-3.13,3,0,1.75,2,3.18,4.39,3.18h29.74c2.42,0,4.39-1.43,4.39-3.18,0-1.29-1.13-2.48-2.8-3a1,1,0,0,1-.73-.87c-.28-3-3.63-5.32-7.63-5.32a9.31,9.31,0,0,0-4.82,1.29,1,1,0,0,1-.85.09,1,1,0,0,1-.61-.61c-.64-1.8-2.84-3.06-5.36-3.06-2.93,0-5.36,1.69-5.52,3.85A1,1,0,0,1,215.52,80.68Zm-6.28,2.64h0Z" fill="#dfeaef"/><path d="M230.54,84.21a1,1,0,0,1-1-.83,4.71,4.71,0,0,0-1.89-2.89,4.82,4.82,0,0,0-4-.15,1,1,0,0,1-1.25-.65,1,1,0,0,1,.65-1.26A6,6,0,0,1,231.53,83a1,1,0,0,1-.82,1.16Z" fill="#dfeaef"/><path d="M201.23,125.2H170.35c-3.64,0-6.6-2.4-6.6-5.34a5.39,5.39,0,0,1,3.77-4.83c.77-3.81,4.94-6.71,9.86-6.71a11.75,11.75,0,0,1,5.1,1.12,8.15,8.15,0,0,1,7-3.5c3.73,0,6.89,2.13,7.62,5a7.7,7.7,0,0,1,6.4,3.89c2.58.76,4.35,2.77,4.35,5C207.83,122.8,204.87,125.2,201.23,125.2Zm-23.85-14.88c-4.17,0-7.67,2.44-8,5.56a1,1,0,0,1-.73.87c-1.75.5-2.94,1.75-2.94,3.11,0,1.84,2.07,3.34,4.6,3.34h30.88c2.53,0,4.6-1.5,4.6-3.34,0-1.46-1.35-2.78-3.29-3.2a1,1,0,0,1-.71-.62c-.71-1.85-3-3.14-5.58-3.14a1,1,0,0,1-1-.92c-.17-2.27-2.7-4-5.77-4-2.63,0-4.93,1.32-5.6,3.2a1,1,0,0,1-1.46.52A9.61,9.61,0,0,0,177.38,110.32Z" fill="#dfeaef"/><path d="M178.46,116a1,1,0,0,1-.76-1.65c5.33-6.2,11.07-2,11.13-1.91a1,1,0,1,1-1.21,1.59c-.19-.14-4.33-3.12-8.4,1.62A1,1,0,0,1,178.46,116Z" fill="#dfeaef"/><circle cx="170.83" cy="83.21" r="11.5" fill="#ffbc0e"/><path d="M170.83,95.71a12.5,12.5,0,1,1,12.5-12.5A12.51,12.51,0,0,1,170.83,95.71Zm0-23a10.5,10.5,0,1,0,10.5,10.5A10.51,10.51,0,0,0,170.83,72.71Z" fill="#093f68"/><path d="M151.05,212.83a1,1,0,0,1-.43-1.9l8.59-4.17a2,2,0,0,1,1-.26,2.15,2.15,0,0,1,1.49.84,8.36,8.36,0,0,0,10.88.91,1,1,0,0,1,1.31.07,8.35,8.35,0,0,0,9.6,1.26,1,1,0,0,1,1,1.74,10.43,10.43,0,0,1-11.34-1,10.35,10.35,0,0,1-12.91-1.62l-.12-.13-8.59,4.17A1,1,0,0,1,151.05,212.83Z" fill="#093f68"/><path d="M210.8,228.05c-.33,0-.65,0-1,0a1,1,0,1,1,.16-2,11.38,11.38,0,0,0,9.79-4.43,1,1,0,0,1,.9-.4,1,1,0,0,1,.8.56,6.07,6.07,0,0,0,9.92,1.46,2.7,2.7,0,0,1,2-1.13h0a2.53,2.53,0,0,1,1.56.66,6.4,6.4,0,0,0,7,.43,1,1,0,1,1,1,1.71,8.34,8.34,0,0,1-9.17-.49,2.28,2.28,0,0,0-.46-.32l-.39.43a8.07,8.07,0,0,1-12.49-.61A13.53,13.53,0,0,1,210.8,228.05Z" fill="#093f68"/><path d="M210.34,209.73a8.71,8.71,0,0,1-2.86-.47,1,1,0,1,1,.65-1.89,7.24,7.24,0,0,0,7.06-1.45,1.94,1.94,0,0,1,2.95,0,5.88,5.88,0,0,0,7.35-.28,1,1,0,0,1,1.37,1.46,7.87,7.87,0,0,1-9.94.41,3,3,0,0,0-.3-.23l-.05.05A9.35,9.35,0,0,1,210.34,209.73Z" fill="#093f68"/></g></svg>