<svg xmlns="http://www.w3.org/2000/svg" viewBox="0 0 400 300"><g id="_465_science_outline" data-name="#465_science_outline"><path d="M216.49,123.7V78.2h1.44a6.93,6.93,0,0,0,6.93-6.93v-.86a6.93,6.93,0,0,0-6.93-6.93H182.07a6.93,6.93,0,0,0-6.93,6.93v.86a6.93,6.93,0,0,0,6.93,6.93h1.44v45.5a58.29,58.29,0,1,0,33,0Z" fill="#fff"/><path d="M200,238.9A59.29,59.29,0,0,1,182.51,123V79.2h-.44a7.94,7.94,0,0,1-7.93-7.93v-.86a7.94,7.94,0,0,1,7.93-7.93h35.86a7.94,7.94,0,0,1,7.93,7.93v.86a7.94,7.94,0,0,1-7.93,7.93h-.44V123A59.29,59.29,0,0,1,200,238.9ZM182.07,64.48a5.94,5.94,0,0,0-5.93,5.93v.86a5.94,5.94,0,0,0,5.93,5.93h1.44a1,1,0,0,1,1,1v45.5a1,1,0,0,1-.72,1,57.29,57.29,0,1,0,32.42,0,1,1,0,0,1-.72-1V78.2a1,1,0,0,1,1-1h1.44a5.94,5.94,0,0,0,5.93-5.93v-.86a5.94,5.94,0,0,0-5.93-5.93Z" fill="#093f68"/><circle cx="194.45" cy="132.09" r="5.58" fill="#68e1fd"/><path d="M194.45,138.67a6.59,6.59,0,1,1,6.58-6.59A6.59,6.59,0,0,1,194.45,138.67Zm0-11.17a4.59,4.59,0,1,0,4.58,4.58A4.59,4.59,0,0,0,194.45,127.5Z" fill="#093f68"/><circle cx="192.8" cy="97.65" r="3.93" fill="#68e1fd"/><path d="M192.8,102.58a4.93,4.93,0,1,1,4.93-4.93A4.93,4.93,0,0,1,192.8,102.58Zm0-7.86a2.93,2.93,0,1,0,2.93,2.93A2.93,2.93,0,0,0,192.8,94.72Z" fill="#093f68"/><circle cx="205.56" cy="111.77" r="6.69" fill="#68e1fd"/><path d="M205.56,119.46a7.69,7.69,0,1,1,7.68-7.69A7.7,7.7,0,0,1,205.56,119.46Zm0-13.38a5.69,5.69,0,1,0,5.68,5.69A5.69,5.69,0,0,0,205.56,106.08Z" fill="#093f68"/><circle cx="201.84" cy="81.65" r="7.76" fill="#68e1fd"/><path d="M201.84,90.41a8.76,8.76,0,1,1,8.76-8.76A8.77,8.77,0,0,1,201.84,90.41Zm0-15.52a6.76,6.76,0,1,0,6.76,6.76A6.77,6.77,0,0,0,201.84,74.89Z" fill="#093f68"/><circle cx="199.58" cy="180.86" r="10.27" fill="#68e1fd"/><path d="M199.58,192.13a11.27,11.27,0,1,1,11.27-11.27A11.28,11.28,0,0,1,199.58,192.13Zm0-20.53a9.27,9.27,0,1,0,9.27,9.26A9.27,9.27,0,0,0,199.58,171.6Z" fill="#093f68"/><path d="M221.84,220.75c-3.79,0-8.51-1.8-13.81-5.34-7.86-5.23-16.18-13.69-23.43-23.81s-12.58-20.72-15-29.84c-2.51-9.44-1.61-16.27,2.53-19.24,8.4-6,27,6.11,42.46,27.61s20.89,43.06,12.49,49.08A8.78,8.78,0,0,1,221.84,220.75ZM177.35,143a6.81,6.81,0,0,0-4.07,1.18h0c-3.38,2.42-4,8.65-1.76,17.1,2.37,8.89,7.59,19.26,14.71,29.19s15.25,18.21,22.9,23.32c7.28,4.85,13.39,6.25,16.76,3.83,7.24-5.18,1.31-26.38-12.95-46.29C200.88,154.46,186,143,177.35,143Zm-4.65.37h0Z" fill="#093f68"/><path d="M177.33,220.75a8.78,8.78,0,0,1-5.22-1.54c-4.14-3-5-9.8-2.53-19.24,2.44-9.12,7.77-19.72,15-29.84,15.41-21.5,34.05-33.63,42.46-27.61,4.14,3,5,9.8,2.52,19.24-2.43,9.12-7.76,19.71-15,29.84S199,210.18,191.14,215.41C185.84,219,181.12,220.75,177.33,220.75ZM221.82,143c-8.67,0-23.53,11.49-35.59,28.33-7.12,9.93-12.34,20.3-14.71,29.19-2.26,8.46-1.62,14.69,1.76,17.1s9.48,1,16.76-3.83c7.65-5.11,15.79-13.39,22.9-23.32s12.34-20.3,14.71-29.19c2.26-8.45,1.61-14.68-1.76-17.1A6.81,6.81,0,0,0,221.82,143Z" fill="#093f68"/><path d="M199.58,199.29c-26.45,0-47.17-8.09-47.17-18.43s20.72-18.43,47.17-18.43,47.18,8.1,47.18,18.43S226,199.29,199.58,199.29Zm0-34.86c-24.48,0-45.17,7.53-45.17,16.43s20.69,16.43,45.17,16.43,45.18-7.52,45.18-16.43S224.07,164.43,199.58,164.43Z" fill="#093f68"/><circle cx="158.98" cy="188.6" r="4.05" fill="#ffbc0e"/><path d="M159,193.65A5,5,0,1,1,164,188.6,5.06,5.06,0,0,1,159,193.65Zm0-8.09a3,3,0,1,0,3.05,3A3,3,0,0,0,159,185.56Z" fill="#093f68"/><circle cx="230.02" cy="212.71" r="4.05" fill="#f56132"/><path d="M230,217.75a5,5,0,1,1,5-5A5,5,0,0,1,230,217.75Zm0-8.09a3,3,0,1,0,3,3.05A3.06,3.06,0,0,0,230,209.66Z" fill="#093f68"/><circle cx="219.19" cy="164.67" r="4.05" fill="#70cc40"/><path d="M219.19,169.72a5,5,0,1,1,5.05-5.05A5.06,5.06,0,0,1,219.19,169.72Zm0-8.09a3,3,0,1,0,3.05,3A3,3,0,0,0,219.19,161.63Z" fill="#093f68"/><circle cx="191.6" cy="64.45" r="5.13" fill="#68e1fd"/><path d="M191.6,70.58a6.14,6.14,0,1,1,6.13-6.13A6.14,6.14,0,0,1,191.6,70.58Zm0-10.27a4.14,4.14,0,1,0,4.13,4.14A4.14,4.14,0,0,0,191.6,60.31Z" fill="#093f68"/><circle cx="206.68" cy="51.73" r="3.63" fill="#68e1fd"/><path d="M206.68,56.36a4.63,4.63,0,1,1,4.63-4.63A4.64,4.64,0,0,1,206.68,56.36Zm0-7.26a2.63,2.63,0,1,0,2.63,2.63A2.63,2.63,0,0,0,206.68,49.1Z" fill="#093f68"/></g></svg>