<svg xmlns="http://www.w3.org/2000/svg" viewBox="0 0 400 300"><g id="_35_scientist_outline" data-name="#35_scientist_outline"><path d="M266,175.48a9,9,0,0,0-17.95,1.29c.76,10.7.29,22.3-1,28.84-3-4-15.23-30.91-27.48-37.11s-26.47-5.22-34.26-1.2c-9.38,4.85-23.42,34.36-26.4,38.31-1.27-6.53-1.74-18.14-1-28.83a9,9,0,1,0-17.95-1.3,185,185,0,0,0-.17,21.15c.7,12.62,3,27.43,14.53,30a13.81,13.81,0,0,0,3,.33c6.27,0,12.28-7.83,21.6-18.14v22.35H225.7V209.58c9.76,12,16.21,17.37,23,17.37a13.81,13.81,0,0,0,3-.33c11.55-2.56,13.83-17.37,14.53-30A185,185,0,0,0,266,175.48Z" fill="#68e1fd"/><path d="M225.7,232.16H178.94a1,1,0,0,1-1-1V211.42l-1.79,2c-7.5,8.43-12.92,14.52-18.81,14.52a15.37,15.37,0,0,1-3.2-.35c-12.2-2.71-14.59-17.94-15.31-30.92a186.47,186.47,0,0,1,.17-21.27A10,10,0,1,1,159,176.85a137.76,137.76,0,0,0,.54,26c.75-1.29,1.69-3,2.76-4.93,5.75-10.38,15.37-27.75,22.62-31.5,8.06-4.16,22.73-5.09,35.17,1.2,9.69,4.9,19.31,22.29,24.47,31.63.76,1.37,1.44,2.59,2,3.58a138.49,138.49,0,0,0,.53-26,10,10,0,0,1,16.51-8.29,9.91,9.91,0,0,1,3.44,6.85,186.7,186.7,0,0,1,.17,21.27c-.72,13-3.1,28.21-15.31,30.92a15.37,15.37,0,0,1-3.2.35c-6.43,0-12.51-4.27-22-15.58v18.79A1,1,0,0,1,225.7,232.16Zm-45.76-2H224.7V209.58a1,1,0,0,1,1.78-.63c10,12.4,16.05,17,22.18,17a12.71,12.71,0,0,0,2.77-.31c10.89-2.41,13.06-16.8,13.74-29.07a192,192,0,0,0-.16-21h0a8,8,0,0,0-16,1.15c.75,10.47.36,22.16-1,29.1a1,1,0,0,1-.76.78,1,1,0,0,1-1-.37,67.16,67.16,0,0,1-3.52-6c-5.06-9.15-14.48-26.19-23.62-30.81-11.84-6-25.74-5.14-33.35-1.21-6.71,3.47-16.52,21.17-21.79,30.69-2,3.63-3.47,6.26-4.28,7.33a1,1,0,0,1-1.77-.41c-1.35-6.93-1.74-18.62-1-29.09a8,8,0,0,0-16-1.16,189.12,189.12,0,0,0-.16,21c.68,12.27,2.85,26.66,13.74,29.07a12.71,12.71,0,0,0,2.77.31c5,0,10.16-5.81,17.32-13.85l3.54-4a1,1,0,0,1,1.74.67Z" fill="#093f68"/><rect x="196.75" y="168.44" width="11.55" height="62.71" fill="#fff"/><path d="M208.3,232.16H196.75a1,1,0,0,1-1-1V168.44a1,1,0,0,1,1-1H208.3a1,1,0,0,1,1,1v62.72A1,1,0,0,1,208.3,232.16Zm-10.55-2h9.55V169.44h-9.55Z" fill="#093f68"/><path d="M133.81,206.22l12-22.21V161.93h9.39V184l12,22.21a4.29,4.29,0,0,1-3.77,6.33H137.58A4.29,4.29,0,0,1,133.81,206.22Z" fill="#fff"/><path d="M163.51,213.55H137.58a5.29,5.29,0,0,1-4.65-7.81l11.92-22V161.93a1,1,0,0,1,1-1h9.39a1,1,0,0,1,1,1v21.83l11.92,22a5.29,5.29,0,0,1-4.65,7.81Zm-16.66-50.62V184a1,1,0,0,1-.12.48l-12,22.2h0a3.29,3.29,0,0,0,2.89,4.86h25.93a3.29,3.29,0,0,0,2.89-4.86l-12-22.2a1,1,0,0,1-.12-.48V162.93Zm-13,43.29h0Z" fill="#093f68"/><path d="M133.81,206.22l4.93-9.1a9.32,9.32,0,0,1,10.87-.34c5.14,3.45,11.14-2.61,11.14-2.61l6.53,12.05a4.29,4.29,0,0,1-3.77,6.33H137.58A4.29,4.29,0,0,1,133.81,206.22Z" fill="#70cc40"/><path d="M163.51,213.55H137.58a5.29,5.29,0,0,1-4.65-7.81l4.94-9.1a.89.89,0,0,1,.24-.3c.06-.05,5.78-4.61,12.06-.39,4.4,3,9.81-2.43,9.87-2.48a1,1,0,0,1,.85-.29,1,1,0,0,1,.74.51l6.53,12.05a5.29,5.29,0,0,1-4.65,7.81Zm-24-15.77-4.83,8.91h0a3.29,3.29,0,0,0,2.89,4.86h25.93a3.29,3.29,0,0,0,2.89-4.86l-5.93-10.93c-2.05,1.67-6.92,4.86-11.42,1.85A8.23,8.23,0,0,0,139.52,197.78Zm-5.71,8.44h0Z" fill="#093f68"/><rect x="139.27" y="168.24" width="15.02" height="5.26" rx="2.63" transform="translate(293.56 341.74) rotate(180)" fill="#ffc9b0"/><path d="M151.66,174.5H141.9a3.63,3.63,0,1,1,0-7.26h9.76a3.63,3.63,0,0,1,0,7.26Zm-9.76-5.26a1.63,1.63,0,1,0,0,3.26h9.76a1.63,1.63,0,0,0,0-3.26Z" fill="#093f68"/><rect x="149.49" y="172.18" width="15.02" height="5.26" rx="2.63" transform="translate(331.81 17.82) rotate(90)" fill="#ffc9b0"/><path d="M157,183.32a3.63,3.63,0,0,1-3.63-3.62v-9.77a3.63,3.63,0,0,1,7.26,0v9.77A3.63,3.63,0,0,1,157,183.32Zm0-15a1.63,1.63,0,0,0-1.63,1.63v9.77a1.63,1.63,0,0,0,3.26,0v-9.77A1.63,1.63,0,0,0,157,168.3Z" fill="#093f68"/><rect x="139.27" y="173.5" width="15.02" height="5.26" rx="2.63" transform="translate(293.56 352.26) rotate(-180)" fill="#ffc9b0"/><path d="M151.66,179.76H141.9a3.63,3.63,0,1,1,0-7.26h9.76a3.63,3.63,0,0,1,0,7.26Zm-9.76-5.26a1.63,1.63,0,1,0,0,3.26h9.76a1.63,1.63,0,0,0,0-3.26Z" fill="#093f68"/><rect x="139.27" y="178.76" width="15.02" height="5.26" rx="2.63" transform="translate(293.56 362.77) rotate(-180)" fill="#ffc9b0"/><path d="M151.66,185H141.9a3.63,3.63,0,1,1,0-7.25h9.76a3.63,3.63,0,1,1,0,7.25Zm-9.76-5.25a1.63,1.63,0,1,0,0,3.25h9.76a1.63,1.63,0,1,0,0-3.25Z" fill="#093f68"/><rect x="139.27" y="184.01" width="15.02" height="5.26" rx="2.63" transform="translate(293.56 373.29) rotate(-180)" fill="#ffc9b0"/><path d="M151.66,190.27H141.9a3.63,3.63,0,1,1,0-7.26h9.76a3.63,3.63,0,0,1,0,7.26ZM141.9,185a1.63,1.63,0,1,0,0,3.26h9.76a1.63,1.63,0,0,0,0-3.26Z" fill="#093f68"/><rect x="143.15" y="157.07" width="14.79" height="4.86" rx="1.85" transform="translate(301.09 319) rotate(-180)" fill="#fff"/><path d="M156.09,162.93H145a2.86,2.86,0,0,1-2.85-2.85v-1.16a2.86,2.86,0,0,1,2.85-2.85h11.09a2.86,2.86,0,0,1,2.85,2.85v1.16A2.86,2.86,0,0,1,156.09,162.93ZM145,158.07a.85.85,0,0,0-.85.85v1.16a.85.85,0,0,0,.85.85h11.09a.85.85,0,0,0,.85-.85v-1.16a.85.85,0,0,0-.85-.85Z" fill="#093f68"/><path d="M272.19,206.22l-12-22.21V161.93h-9.39V184l-12,22.21a4.29,4.29,0,0,0,3.77,6.33h25.93A4.29,4.29,0,0,0,272.19,206.22Z" fill="#fff"/><path d="M268.42,213.55H242.49a5.29,5.29,0,0,1-4.65-7.81l11.92-22V161.93a1,1,0,0,1,1-1h9.39a1,1,0,0,1,1,1v21.83l11.92,22a5.29,5.29,0,0,1-4.65,7.81Zm-16.66-50.62V184a1,1,0,0,1-.12.48l-12,22.2a3.29,3.29,0,0,0,2.89,4.86h25.93a3.29,3.29,0,0,0,2.89-4.86h0l-12-22.2a1,1,0,0,1-.12-.48V162.93Z" fill="#093f68"/><path d="M272.19,206.22l-4.93-9.1a9.32,9.32,0,0,0-10.87-.34c-5.14,3.45-11.14-2.61-11.14-2.61l-6.53,12.05a4.29,4.29,0,0,0,3.77,6.33h25.93A4.29,4.29,0,0,0,272.19,206.22Z" fill="#f56132"/><path d="M268.42,213.55H242.49a5.29,5.29,0,0,1-4.65-7.81l6.53-12.05a1,1,0,0,1,.74-.51,1,1,0,0,1,.85.29c.06.05,5.49,5.42,9.87,2.48,6.27-4.21,12,.34,12.06.39a.89.89,0,0,1,.24.3l4.94,9.1a5.29,5.29,0,0,1-4.65,7.81Zm-22.89-17.79-5.93,10.93a3.29,3.29,0,0,0,2.89,4.86h25.93a3.29,3.29,0,0,0,2.89-4.86h0l-4.83-8.91a8.22,8.22,0,0,0-9.53-.17C252.45,200.62,247.58,197.43,245.53,195.76Z" fill="#093f68"/><rect x="251.71" y="168.24" width="15.02" height="5.26" rx="2.63" fill="#ffc9b0"/><path d="M264.1,174.5h-9.76a3.63,3.63,0,0,1,0-7.26h9.76a3.63,3.63,0,0,1,0,7.26Zm-9.76-5.26a1.63,1.63,0,0,0,0,3.26h9.76a1.63,1.63,0,0,0,0-3.26Z" fill="#093f68"/><rect x="241.49" y="172.18" width="15.02" height="5.26" rx="2.63" transform="translate(423.82 -74.19) rotate(90)" fill="#ffc9b0"/><path d="M249,183.32a3.63,3.63,0,0,1-3.63-3.62v-9.77a3.63,3.63,0,0,1,7.26,0v9.77A3.63,3.63,0,0,1,249,183.32Zm0-15a1.63,1.63,0,0,0-1.63,1.63v9.77a1.63,1.63,0,0,0,3.26,0v-9.77A1.63,1.63,0,0,0,249,168.3Z" fill="#093f68"/><rect x="251.71" y="173.5" width="15.02" height="5.26" rx="2.63" fill="#ffc9b0"/><path d="M264.1,179.76h-9.76a3.63,3.63,0,0,1,0-7.26h9.76a3.63,3.63,0,0,1,0,7.26Zm-9.76-5.26a1.63,1.63,0,0,0,0,3.26h9.76a1.63,1.63,0,0,0,0-3.26Z" fill="#093f68"/><rect x="251.71" y="178.76" width="15.02" height="5.26" rx="2.63" fill="#ffc9b0"/><path d="M264.1,185h-9.76a3.63,3.63,0,1,1,0-7.25h9.76a3.63,3.63,0,1,1,0,7.25Zm-9.76-5.25a1.63,1.63,0,1,0,0,3.25h9.76a1.63,1.63,0,1,0,0-3.25Z" fill="#093f68"/><rect x="251.71" y="184.01" width="15.02" height="5.26" rx="2.63" fill="#ffc9b0"/><path d="M264.1,190.27h-9.76a3.63,3.63,0,1,1,0-7.26h9.76a3.63,3.63,0,1,1,0,7.26ZM254.34,185a1.63,1.63,0,1,0,0,3.26h9.76a1.63,1.63,0,0,0,0-3.26Z" fill="#093f68"/><rect x="248.06" y="157.07" width="14.79" height="4.86" rx="1.85" fill="#fff"/><path d="M261,162.93H249.91a2.86,2.86,0,0,1-2.85-2.85v-1.16a2.86,2.86,0,0,1,2.85-2.85H261a2.86,2.86,0,0,1,2.85,2.85v1.16A2.86,2.86,0,0,1,261,162.93Zm-11.09-4.86a.85.85,0,0,0-.85.85v1.16a.85.85,0,0,0,.85.85H261a.85.85,0,0,0,.85-.85v-1.16a.85.85,0,0,0-.85-.85Z" fill="#093f68"/><path d="M178.94,209.81a1,1,0,0,1-1-.72c-.19-.65-4.55-16,3-27.32a1,1,0,1,1,1.66,1.11c-7,10.54-2.73,25.5-2.69,25.65a1,1,0,0,1-.68,1.24A.86.86,0,0,1,178.94,209.81Z" fill="#093f68"/><path d="M226,209.81a.86.86,0,0,1-.28,0,1,1,0,0,1-.68-1.24c0-.15,4.28-15.11-2.7-25.65a1,1,0,0,1,.29-1.39,1,1,0,0,1,1.38.28c7.5,11.33,3.14,26.67,2.95,27.32A1,1,0,0,1,226,209.81Z" fill="#093f68"/><path d="M196.75,200a1,1,0,0,1-.55-.16l-10.39-6.86a1,1,0,0,1-.44-.69,1,1,0,0,1,.23-.79l5.88-6.9-6.22-6.18a1,1,0,0,1-.08-1.33l10-12.62a1,1,0,0,1,1.56,1.24l-9.48,11.92,6.23,6.21a1,1,0,0,1,.06,1.35l-5.74,6.75,9.44,6.23a1,1,0,0,1,.28,1.38A1,1,0,0,1,196.75,200Z" fill="#093f68"/><path d="M209,200a1,1,0,0,1-.84-.45,1,1,0,0,1,.28-1.38l9.45-6.23-5.75-6.75a1,1,0,0,1,.06-1.35l6.23-6.21-9.48-11.92a1,1,0,1,1,1.56-1.24L220.52,177a1,1,0,0,1-.08,1.33l-6.22,6.18,5.88,6.9a1,1,0,0,1,.23.79,1,1,0,0,1-.44.69l-10.38,6.86A1,1,0,0,1,209,200Z" fill="#093f68"/><path d="M183.72,226a1,1,0,0,1-.92-.6,1,1,0,0,1,.51-1.32l7.64-3.38a1,1,0,1,1,.81,1.83l-7.64,3.38A1,1,0,0,1,183.72,226Z" fill="#093f68"/><path d="M223,226a1,1,0,0,1-.41-.09L215,222.49a1,1,0,0,1,.81-1.83l7.64,3.38A1,1,0,0,1,223,226Z" fill="#093f68"/><path d="M240.94,108.62v52.79h-6.06c-1.45-3.7-3.52-8.93-3.71-9.1s-1.73,5.28-2.8,9.1H174l-2.28-9.1s-.79,5.34-1.46,9.1h-8.9V108.62a39.78,39.78,0,1,1,79.55,0Z" fill="#725858"/><path d="M240.94,162.42h-6.06a1,1,0,0,1-.93-.64c-1.32-3.36-2.16-5.46-2.69-6.78-.41,1.34-1,3.43-1.93,6.68a1,1,0,0,1-1,.74H174a1,1,0,0,1-1-.76l-1.08-4.3c-.22,1.41-.47,2.92-.71,4.23a1,1,0,0,1-1,.83h-8.9a1,1,0,0,1-1-1v-52.8a40.78,40.78,0,1,1,81.55,0v52.8A1,1,0,0,1,240.94,162.42Zm-5.38-2h4.38v-51.8a38.78,38.78,0,1,0-77.55,0v51.8h7.06c.63-3.62,1.3-8.2,1.31-8.25a1,1,0,0,1,2-.1l2.09,8.35h52.8c2.48-8.86,2.59-8.88,3.28-9.07a1,1,0,0,1,1,.24C232.08,151.78,232.23,151.92,235.56,160.42Z" fill="#093f68"/><path d="M196.67,162.12h11.55a0,0,0,0,1,0,0v6.67a4.91,4.91,0,0,1-4.91,4.91h-1.73a4.91,4.91,0,0,1-4.91-4.91v-6.67A0,0,0,0,1,196.67,162.12Z" fill="#ffc9b0"/><path d="M203.31,174.71h-1.73a5.92,5.92,0,0,1-5.91-5.91v-6.68a1,1,0,0,1,1-1h11.55a1,1,0,0,1,1,1v6.68A5.92,5.92,0,0,1,203.31,174.71Zm-5.64-11.59v5.68a3.91,3.91,0,0,0,3.91,3.91h1.73a3.92,3.92,0,0,0,3.91-3.91v-5.68Z" fill="#093f68"/><ellipse cx="169.43" cy="132.03" rx="11.22" ry="9.7" fill="#ffc9b0"/><path d="M169.43,142.73c-6.74,0-12.22-4.8-12.22-10.7s5.48-10.7,12.22-10.7,12.23,4.8,12.23,10.7S176.17,142.73,169.43,142.73Zm0-19.4c-5.64,0-10.22,3.9-10.22,8.7s4.58,8.7,10.22,8.7,10.23-3.9,10.23-8.7S175.07,123.33,169.43,123.33Z" fill="#093f68"/><ellipse cx="234.86" cy="132.03" rx="11.22" ry="9.7" fill="#ffc9b0"/><path d="M234.86,142.73c-6.74,0-12.22-4.8-12.22-10.7s5.48-10.7,12.22-10.7,12.22,4.8,12.22,10.7S241.6,142.73,234.86,142.73Zm0-19.4c-5.64,0-10.22,3.9-10.22,8.7s4.58,8.7,10.22,8.7,10.22-3.9,10.22-8.7S240.5,123.33,234.86,123.33Z" fill="#093f68"/><path d="M202.44,163.64h0A33.89,33.89,0,0,1,168.6,129.7V114c0-8.16,12.41-23.39,20.55-23.39,0,0,12,15.69,47.14,11.49V129.7A33.89,33.89,0,0,1,202.44,163.64Z" fill="#ffc9b0"/><path d="M202.44,164.64A34.93,34.93,0,0,1,167.6,129.7V114c0-4.11,2.86-10,7.46-15.41,4.81-5.62,10.07-9,14.09-9a1,1,0,0,1,.79.39c.12.15,12.18,15.18,46.23,11.11a1,1,0,0,1,.79.25,1,1,0,0,1,.33.74V129.7A34.93,34.93,0,0,1,202.44,164.64Zm-13.74-73c-3.36.27-7.95,3.39-12.12,8.27s-7,10.51-7,14.11V129.7a32.85,32.85,0,1,0,65.69,0V103.2C203.58,106.66,190.9,94.12,188.7,91.6Z" fill="#093f68"/><path d="M239.33,110.37V127a4.11,4.11,0,0,1-3.48,4.05L213,134.52a4.11,4.11,0,0,1-3.51-1.16l-4.12-4.12a4.1,4.1,0,0,0-5.8,0l-4.13,4.13a4.08,4.08,0,0,1-3.51,1.16L169,131.05a4.11,4.11,0,0,1-3.48-4.05V110.37a4.09,4.09,0,0,1,4.1-4.09h65.57A4.1,4.1,0,0,1,239.33,110.37Z" fill="#ffbc0e"/><path d="M192.52,135.56a6.33,6.33,0,0,1-.76-.05L168.89,132a5.07,5.07,0,0,1-4.33-5V110.37a5.1,5.1,0,0,1,5.1-5.09h65.57a5.1,5.1,0,0,1,5.1,5.09V127a5.07,5.07,0,0,1-4.33,5l-22.87,3.47a5.12,5.12,0,0,1-4.37-1.44l-4.12-4.13a3.1,3.1,0,0,0-2.19-.91h0a3.09,3.09,0,0,0-2.19.91l-4.13,4.13A5.12,5.12,0,0,1,192.52,135.56Zm-22.86-28.28a3.1,3.1,0,0,0-3.1,3.09V127a3.08,3.08,0,0,0,2.63,3.06l22.87,3.47a3.08,3.08,0,0,0,2.65-.87l4.13-4.13a5.07,5.07,0,0,1,3.61-1.5h0a5.07,5.07,0,0,1,3.6,1.5l4.13,4.13a3.09,3.09,0,0,0,2.65.87l22.87-3.47a3.08,3.08,0,0,0,2.63-3.06V110.37a3.1,3.1,0,0,0-3.1-3.09Z" fill="#093f68"/><ellipse cx="186.77" cy="124.76" rx="3.13" ry="3.14" fill="#093f68"/><ellipse cx="219.1" cy="124.76" rx="3.13" ry="3.14" fill="#093f68"/><path d="M214.79,139.93a12.35,12.35,0,1,1-24.69,0Z" fill="#fff"/><path d="M202.44,153.31a13.37,13.37,0,0,1-13.34-13.38,1,1,0,0,1,1-1h24.69a1,1,0,0,1,1,1A13.38,13.38,0,0,1,202.44,153.31Zm-11.3-12.38a11.35,11.35,0,0,0,22.61,0Z" fill="#093f68"/><path d="M202.28,136.32a20.27,20.27,0,0,1-3.05-.25,1,1,0,0,1,.34-2,14.78,14.78,0,0,0,4.62.05c.18-.91-1-4.27-2.63-7.4a1,1,0,1,1,1.77-.93c1.1,2.12,3.56,7.25,2.66,9.26a1.69,1.69,0,0,1-1.15,1A10.41,10.41,0,0,1,202.28,136.32Z" fill="#093f68"/><path d="M178.23,117.16a2,2,0,0,1,0-4l14.94-.19h0a2,2,0,0,1,0,4l-14.94.19Z" fill="#093f68"/><path d="M228,116.89h0l-15-.1a2,2,0,1,1,0-4l14.94.1a2,2,0,0,1,0,4Z" fill="#093f68"/><path d="M147.86,152.44a4,4,0,1,1,4-4A4,4,0,0,1,147.86,152.44Zm0-5.95a2,2,0,1,0,2,2A2,2,0,0,0,147.86,146.49Z" fill="#dfeaef"/><path d="M147.86,126.3a4,4,0,1,1,4-4A4,4,0,0,1,147.86,126.3Zm0-5.94a2,2,0,1,0,2,2A2,2,0,0,0,147.86,120.36Z" fill="#dfeaef"/><path d="M137.78,140.06a5.5,5.5,0,1,1,5.49-5.5A5.5,5.5,0,0,1,137.78,140.06Zm0-9a3.5,3.5,0,1,0,3.49,3.49A3.49,3.49,0,0,0,137.78,131.07Z" fill="#dfeaef"/><path d="M256,150.7a4,4,0,1,1,4-4A4,4,0,0,1,256,150.7Zm0-5.94a2,2,0,1,0,2,2A2,2,0,0,0,256,144.76Z" fill="#dfeaef"/><path d="M263.7,140.06a5.5,5.5,0,1,1,5.49-5.5A5.51,5.51,0,0,1,263.7,140.06Zm0-9a3.5,3.5,0,1,0,3.49,3.49A3.5,3.5,0,0,0,263.7,131.07Z" fill="#dfeaef"/></g></svg>