<svg xmlns="http://www.w3.org/2000/svg" viewBox="0 0 400 300"><g id="_174_scrum_board_outline" data-name="#174_scrum_board_outline"><rect x="86.48" y="76.55" width="227.04" height="146.91" rx="5.64" fill="#68e1fd"/><path d="M307.88,224.45H92.12a6.65,6.65,0,0,1-6.64-6.64V82.19a6.65,6.65,0,0,1,6.64-6.64H307.88a6.65,6.65,0,0,1,6.64,6.64V217.81A6.65,6.65,0,0,1,307.88,224.45ZM92.12,77.55a4.64,4.64,0,0,0-4.64,4.64V217.81a4.64,4.64,0,0,0,4.64,4.64H307.88a4.64,4.64,0,0,0,4.64-4.64V82.19a4.64,4.64,0,0,0-4.64-4.64Z" fill="#093f68"/><path d="M86.48,104.13h227a0,0,0,0,1,0,0V217.81a5.64,5.64,0,0,1-5.64,5.64H92.12a5.64,5.64,0,0,1-5.64-5.64V104.13A0,0,0,0,1,86.48,104.13Z" fill="#fff"/><path d="M307.88,224.45H92.12a6.65,6.65,0,0,1-6.64-6.64V104.13a1,1,0,0,1,1-1h227a1,1,0,0,1,1,1V217.81A6.65,6.65,0,0,1,307.88,224.45ZM87.48,105.13V217.81a4.64,4.64,0,0,0,4.64,4.64H307.88a4.64,4.64,0,0,0,4.64-4.64V105.13Z" fill="#093f68"/><path d="M139.79,224.45a1,1,0,0,1-1-1V76.55a1,1,0,1,1,2,0v146.9A1,1,0,0,1,139.79,224.45Z" fill="#093f68"/><path d="M200,224.45a1,1,0,0,1-1-1V76.55a1,1,0,0,1,2,0v146.9A1,1,0,0,1,200,224.45Z" fill="#093f68"/><path d="M260.21,224.45a1,1,0,0,1-1-1V76.55a1,1,0,0,1,2,0v146.9A1,1,0,0,1,260.21,224.45Z" fill="#093f68"/><rect x="97.83" y="116.53" width="29.25" height="27.11" fill="#ffbc0e"/><path d="M127.08,144.65H97.83a1,1,0,0,1-1-1V116.53a1,1,0,0,1,1-1h29.25a1,1,0,0,1,1,1v27.12A1,1,0,0,1,127.08,144.65Zm-28.25-2h27.25V117.53H98.83Z" fill="#093f68"/><rect x="156.07" y="116.53" width="29.25" height="27.11" fill="#ffbc0e"/><path d="M185.32,144.65H156.07a1,1,0,0,1-1-1V116.53a1,1,0,0,1,1-1h29.25a1,1,0,0,1,1,1v27.12A1,1,0,0,1,185.32,144.65Zm-28.25-2h27.25V117.53H157.07Z" fill="#093f68"/><rect x="156.07" y="150.24" width="29.25" height="27.11" fill="#f56132"/><path d="M185.32,178.35H156.07a1,1,0,0,1-1-1V150.24a1,1,0,0,1,1-1h29.25a1,1,0,0,1,1,1v27.11A1,1,0,0,1,185.32,178.35Zm-28.25-2h27.25V151.24H157.07Z" fill="#093f68"/><rect x="215.52" y="116.53" width="29.25" height="27.11" fill="#ffbc0e"/><path d="M244.78,144.65H215.52a1,1,0,0,1-1-1V116.53a1,1,0,0,1,1-1h29.26a1,1,0,0,1,1,1v27.12A1,1,0,0,1,244.78,144.65Zm-28.26-2h27.26V117.53H216.52Z" fill="#093f68"/><rect x="215.52" y="150.24" width="29.25" height="27.11" fill="#f56132"/><path d="M244.78,178.35H215.52a1,1,0,0,1-1-1V150.24a1,1,0,0,1,1-1h29.26a1,1,0,0,1,1,1v27.11A1,1,0,0,1,244.78,178.35Zm-28.26-2h27.26V151.24H216.52Z" fill="#093f68"/><rect x="272.01" y="116.53" width="29.25" height="27.11" fill="#70cc40"/><path d="M301.26,144.65H272a1,1,0,0,1-1-1V116.53a1,1,0,0,1,1-1h29.25a1,1,0,0,1,1,1v27.12A1,1,0,0,1,301.26,144.65Zm-28.25-2h27.25V117.53H273Z" fill="#093f68"/><rect x="215.52" y="183.94" width="29.25" height="27.11" fill="#70cc40"/><path d="M244.78,212.05H215.52a1,1,0,0,1-1-1V183.94a1,1,0,0,1,1-1h29.26a1,1,0,0,1,1,1v27.11A1,1,0,0,1,244.78,212.05Zm-28.26-2h27.26V184.94H216.52Z" fill="#093f68"/><path d="M122,124.31H103.06a1,1,0,0,1,0-2H122a1,1,0,0,1,0,2Z" fill="#093f68"/><path d="M122,130.29H103.06a1,1,0,0,1,0-2H122a1,1,0,0,1,0,2Z" fill="#093f68"/><path d="M117.78,136.26H103.06a1,1,0,0,1,0-2h14.72a1,1,0,0,1,0,2Z" fill="#093f68"/><path d="M180.15,158.82H161.24a1,1,0,0,1,0-2h18.91a1,1,0,1,1,0,2Z" fill="#093f68"/><path d="M180.15,164.79H161.24a1,1,0,0,1,0-2h18.91a1,1,0,0,1,0,2Z" fill="#093f68"/><path d="M176,170.77H161.24a1,1,0,0,1,0-2H176a1,1,0,0,1,0,2Z" fill="#093f68"/><path d="M239.6,125.11H220.7a1,1,0,0,1,0-2h18.9a1,1,0,0,1,0,2Z" fill="#093f68"/><path d="M239.6,131.09H220.7a1,1,0,0,1,0-2h18.9a1,1,0,0,1,0,2Z" fill="#093f68"/><path d="M235.41,137.07H220.7a1,1,0,0,1,0-2h14.71a1,1,0,1,1,0,2Z" fill="#093f68"/><path d="M239.6,192.52H220.7a1,1,0,0,1,0-2h18.9a1,1,0,0,1,0,2Z" fill="#093f68"/><path d="M239.6,198.5H220.7a1,1,0,0,1,0-2h18.9a1,1,0,1,1,0,2Z" fill="#093f68"/><path d="M235.41,204.47H220.7a1,1,0,0,1,0-2h14.71a1,1,0,0,1,0,2Z" fill="#093f68"/><path d="M180.15,128.1H161.24a1,1,0,0,1,0-2h18.91a1,1,0,0,1,0,2Z" fill="#093f68"/><path d="M174.41,134.08H161.24a1,1,0,0,1,0-2h13.17a1,1,0,0,1,0,2Z" fill="#093f68"/><path d="M296.09,128.1H277.18a1,1,0,0,1,0-2h18.91a1,1,0,0,1,0,2Z" fill="#093f68"/><path d="M290.34,134.08H277.18a1,1,0,0,1,0-2h13.16a1,1,0,0,1,0,2Z" fill="#093f68"/><path d="M239.6,161.81H220.7a1,1,0,0,1,0-2h18.9a1,1,0,0,1,0,2Z" fill="#093f68"/><path d="M233.86,167.78H220.7a1,1,0,0,1,0-2h13.16a1,1,0,0,1,0,2Z" fill="#093f68"/><path d="M127.08,161.81H99.85a1,1,0,1,1,0-2h27.23a1,1,0,1,1,0,2Z" fill="#dfeaef"/><path d="M127.08,170.77H99.85a1,1,0,0,1,0-2h27.23a1,1,0,1,1,0,2Z" fill="#dfeaef"/><path d="M117.78,179.73H99.85a1,1,0,0,1,0-2h17.93a1,1,0,0,1,0,2Z" fill="#dfeaef"/><path d="M292.14,212.05H275a1,1,0,0,1,0-2h17.12a1,1,0,0,1,0,2Z" fill="#dfeaef"/><path d="M301.26,202.44H275a1,1,0,0,1,0-2h26.24a1,1,0,0,1,0,2Z" fill="#dfeaef"/><path d="M183.69,190.31H159.78a1,1,0,0,1,0-2h23.91a1,1,0,0,1,0,2Z" fill="#dfeaef"/><path d="M121,90.42H102.11a1,1,0,0,1,0-2H121a1,1,0,0,1,0,2Z" fill="#093f68"/><path d="M176,90.42H162.28a1,1,0,0,1,0-2H176a1,1,0,0,1,0,2Z" fill="#093f68"/><path d="M245,90.42H215.29a1,1,0,0,1,0-2H245a1,1,0,0,1,0,2Z" fill="#093f68"/><path d="M302,90.42h-5.86a1,1,0,0,1,0-2H302a1,1,0,0,1,0,2Z" fill="#093f68"/><path d="M290.34,90.42H275.55a1,1,0,0,1,0-2h14.79a1,1,0,0,1,0,2Z" fill="#093f68"/></g></svg>