<svg id="_240_share_outline" data-name="#240_share_outline" xmlns="http://www.w3.org/2000/svg" viewBox="0 0 400 300"><path d="M292.85,150a92.78,92.78,0,0,1-92.76,92.85H200a92.85,92.85,0,1,1,0-185.7c1,0,2.05,0,3.07.06A92.84,92.84,0,0,1,292.85,150Z" fill="#68e1fd"/><path d="M200.09,243.85A93.85,93.85,0,1,1,200,56.15c1.25,0,2.21,0,3.12.06a93.85,93.85,0,0,1-3,187.64ZM200,58.15a91.85,91.85,0,0,0,0,183.7,91.84,91.84,0,0,0,3-183.64C202.15,58.17,201.22,58.15,200,58.15Z" fill="#093f68"/><path d="M241.71,233a92.55,92.55,0,0,1-41.62,9.87l-10.43-10.22.49-.5,25-25a.44.44,0,0,0,.09-.11Z" fill="#ffbc0e"/><path d="M200.09,243.85a1,1,0,0,1-.7-.29L189,233.34a1,1,0,0,1-.3-.71,1,1,0,0,1,.29-.71l25.48-25.48a1,1,0,0,1,.71-.42,1,1,0,0,1,.79.31l26.48,25.93a1,1,0,0,1-.25,1.61,93,93,0,0,1-42.07,10Zm-9-11.23,9.42,9.22A90.74,90.74,0,0,0,240,232.7l-24.76-24.24Z" fill="#093f68"/><path d="M204.14,209.65s6.41-10.16.44-17.47-28.13-13.37-33-17.86a80.13,80.13,0,0,1-7.89-8.37s-7.9,12.73-9,17.87,1.23,12.33,6.37,19.46,24.84,24.61,24.84,24.61Z" fill="#ffc9b0"/><path d="M185.91,228.89a1,1,0,0,1-.67-.25c-.8-.72-19.84-17.63-25-24.77-5.33-7.4-7.72-14.78-6.54-20.26,1.13-5.25,8.82-17.66,9.14-18.19a1,1,0,0,1,.8-.47,1,1,0,0,1,.84.38,79.29,79.29,0,0,0,7.78,8.26c1.89,1.75,7,3.91,12.35,6.21,8,3.41,17.09,7.29,20.73,11.75,6.35,7.78-.09,18.2-.37,18.64a1.15,1.15,0,0,1-.14.17L186.61,228.6A1,1,0,0,1,185.91,228.89Zm-22.08-61.22c-2,3.27-7.29,12.35-8.15,16.36-1.05,4.85,1.27,11.83,6.2,18.67,4.47,6.21,20.44,20.63,24,23.82L203.35,209c.59-1,5.61-9.9.46-16.22-3.33-4.07-12.17-7.85-20-11.17-5.78-2.47-10.77-4.6-12.92-6.58A85.48,85.48,0,0,1,163.83,167.67Zm40.31,42h0Z" fill="#093f68"/><rect x="135.92" y="130.61" width="59.96" height="62.32" rx="4.7" transform="translate(397.59 158.84) rotate(135)" fill="#fff"/><path d="M166.73,204.05a5.69,5.69,0,0,1-4-1.67L125.29,165a5.7,5.7,0,0,1,0-8.06L161,121.15a5.71,5.71,0,0,1,8.06,0l37.41,37.42a5.7,5.7,0,0,1,0,8.06l-35.75,35.75A5.69,5.69,0,0,1,166.73,204.05Zm-1.66-82.57a3.69,3.69,0,0,0-2.62,1.08L126.7,158.32a3.71,3.71,0,0,0,0,5.23L164.12,201a3.71,3.71,0,0,0,5.23,0l35.75-35.76a3.64,3.64,0,0,0,1.08-2.61A3.68,3.68,0,0,0,205.1,160l-37.42-37.42A3.69,3.69,0,0,0,165.07,121.48Z" fill="#093f68"/><path d="M169.51,191.25a1,1,0,0,1-.71-.29,1,1,0,0,1,0-1.42l28.31-28.3a1,1,0,0,1,1.41,0,1,1,0,0,1,0,1.41L170.22,191A1,1,0,0,1,169.51,191.25Z" fill="#dfeaef"/><path d="M161.2,191.52a1,1,0,0,1-.71-.29l-28.58-28.58a1,1,0,0,1,0-1.41l33.94-33.95a1,1,0,0,1,1.41,0l28.58,28.59a1,1,0,0,1,.3.7,1,1,0,0,1-.3.71L161.9,191.23A1,1,0,0,1,161.2,191.52ZM134,161.94l27.17,27.17,32.52-32.53-27.17-27.17Z" fill="#dfeaef"/><path d="M195,189.3s-4.81-6.37-9.72-20.66c-1.66-4.85-9.07-6.89-10.64-3.56s3.31,19.66,3.3,25.69-.52,7.42-.52,7.42" fill="#ffc9b0"/><path d="M177.45,199.19a1.12,1.12,0,0,1-.35-.06,1,1,0,0,1-.59-1.29s.46-1.48.46-7.08c0-2.45-.88-6.91-1.74-11.22-1.57-7.89-2.45-12.83-1.47-14.89.72-1.51,2.33-2.31,4.44-2.19,3,.16,6.83,2.27,8.06,5.86,4.79,13.93,9.52,20.31,9.56,20.37a1,1,0,0,1-1.59,1.21c-.2-.27-5-6.66-9.86-20.93a7.44,7.44,0,0,0-6.28-4.52c-.74,0-2,.05-2.52,1.05-.77,1.62.56,8.29,1.62,13.65.92,4.61,1.78,9,1.78,11.62,0,6-.52,7.61-.58,7.77A1,1,0,0,1,177.45,199.19Z" fill="#093f68"/><rect x="178.34" y="211.28" width="41.68" height="9.79" rx="3.17" transform="translate(492.89 228.19) rotate(135)" fill="#ffbc0e"/><path d="M187.91,234.06a4.13,4.13,0,0,1-2.95-1.22l-2.44-2.44a4.17,4.17,0,0,1,0-5.9l25-25a4.18,4.18,0,0,1,5.9,0l2.44,2.44a4.19,4.19,0,0,1,0,5.9l-25,25A4.15,4.15,0,0,1,187.91,234.06Zm22.55-33.77a2.17,2.17,0,0,0-1.54.64h0l-25,25a2.19,2.19,0,0,0,0,3.07l2.44,2.44a2.22,2.22,0,0,0,3.07,0l25-25a2.18,2.18,0,0,0,0-3.08L212,200.93A2.17,2.17,0,0,0,210.46,200.29Zm-2.24-.07h0Z" fill="#093f68"/><path d="M157.74,174.26q-.6,0-1.23-.06a14.64,14.64,0,0,1-8.8-4.34h0c-5.16-5.16-5.87-12.85-1.58-17.15s12-3.58,17.15,1.59a14.73,14.73,0,0,1,4.34,8.8,10.1,10.1,0,0,1-2.76,8.35A9.86,9.86,0,0,1,157.74,174.26Zm-4.48-22.36a8,8,0,0,0-5.72,2.23c-3.51,3.51-2.8,9.94,1.58,14.32h0a12.67,12.67,0,0,0,7.59,3.76,7.78,7.78,0,0,0,8.92-8.91,12.71,12.71,0,0,0-3.77-7.59A12.4,12.4,0,0,0,153.26,151.9Z" fill="#dfeaef"/><path d="M166.5,163.36a1,1,0,0,1-.64-1.76c.34-.29,8.38-6.89,14.95-4.85,6.31,1.95,9.17,4.75,9.29,4.87a1,1,0,0,1-1.42,1.42s-2.67-2.59-8.46-4.38c-5.55-1.72-13,4.41-13.08,4.47A1,1,0,0,1,166.5,163.36Z" fill="#dfeaef"/><path d="M151.09,181.42a1,1,0,0,1-1-.72c-1-3.44,2.22-7.21,2.36-7.37a1,1,0,0,1,1.52,1.31c-.74.86-2.52,3.52-1.95,5.51a1,1,0,0,1-.69,1.24A1.27,1.27,0,0,1,151.09,181.42Z" fill="#dfeaef"/><path d="M195.86,89.31s-6.41,10.16-.44,17.47,28.13,13.37,33,17.86a80.13,80.13,0,0,1,7.89,8.37s7.9-12.73,9-17.87-1.23-12.32-6.37-19.46-24.84-24.61-24.84-24.61Z" fill="#e28362"/><path d="M236.29,134a1,1,0,0,1-.79-.38,79.29,79.29,0,0,0-7.78-8.26c-1.89-1.75-7-3.91-12.34-6.2-8-3.42-17.1-7.3-20.74-11.76-6.35-7.78.09-18.2.37-18.64a1.15,1.15,0,0,1,.14-.17l18.24-18.24a1,1,0,0,1,1.37,0c.8.72,19.84,17.63,25,24.78,5.33,7.39,7.72,14.78,6.54,20.25-1.13,5.25-8.82,17.66-9.14,18.19a1,1,0,0,1-.8.47ZM196.65,89.93c-.59,1-5.61,9.9-.46,16.22,3.33,4.08,12.17,7.85,20,11.18,5.78,2.46,10.77,4.59,12.92,6.58a84.27,84.27,0,0,1,7.09,7.38c2-3.26,7.29-12.35,8.15-16.36,1.05-4.85-1.27-11.83-6.2-18.66-4.47-6.21-20.44-20.64-24-23.82Z" fill="#093f68"/><rect x="204.12" y="106.04" width="59.96" height="62.32" rx="4.7" transform="translate(-28.45 205.72) rotate(-45)" fill="#fff"/><path d="M234.93,179.48a5.69,5.69,0,0,1-4-1.67l-37.41-37.42a5.7,5.7,0,0,1,0-8.06l35.75-35.75a5.7,5.7,0,0,1,8.06,0L274.71,134a5.7,5.7,0,0,1,0,8.06L239,177.81A5.69,5.69,0,0,1,234.93,179.48Zm-1.66-82.57A3.68,3.68,0,0,0,230.65,98h0L194.9,133.75a3.71,3.71,0,0,0,0,5.23l37.42,37.42a3.71,3.71,0,0,0,5.23,0l35.75-35.75a3.72,3.72,0,0,0,0-5.24L235.88,98A3.66,3.66,0,0,0,233.27,96.91Zm-3.33.38h0Z" fill="#093f68"/><path d="M202.18,138a1,1,0,0,1-.7-1.71l28.3-28.3a1,1,0,0,1,1.42,0,1,1,0,0,1,0,1.41l-28.31,28.31A1,1,0,0,1,202.18,138Z" fill="#dfeaef"/><path d="M233.45,172a1,1,0,0,1-.71-.29l-28.58-28.58a1,1,0,0,1-.3-.71,1,1,0,0,1,.3-.71l33.94-33.94a1,1,0,0,1,1.41,0l28.58,28.58a1,1,0,0,1,0,1.42l-33.94,33.94A1,1,0,0,1,233.45,172Zm-27.17-29.58,27.17,27.17L266,137,238.8,109.85Z" fill="#dfeaef"/><path d="M205,109.67s4.81,6.36,9.72,20.65c1.66,4.85,9.07,6.89,10.64,3.57S222,114.22,222,108.2s.52-7.43.52-7.43" fill="#e28362"/><path d="M222.2,136.52l-.4,0c-3-.16-6.83-2.27-8.06-5.85-4.79-13.94-9.52-20.32-9.56-20.38a1,1,0,0,1,1.59-1.21c.2.27,5,6.66,9.86,20.94a7.43,7.43,0,0,0,6.28,4.51c.74,0,2,0,2.52-1,.77-1.62-.56-8.29-1.62-13.65-.92-4.61-1.78-9-1.78-11.61,0-6,.52-7.62.58-7.78a1,1,0,1,1,1.88.7s-.46,1.48-.46,7.08c0,2.45.88,6.91,1.74,11.22,1.57,7.89,2.45,12.83,1.47,14.9A4.18,4.18,0,0,1,222.2,136.52Z" fill="#093f68"/><path d="M237.61,155.2h-.05L216.21,154a1,1,0,0,1-.94-1.05,1,1,0,0,1,1-.94l20.24,1.1L235.23,125a1,1,0,1,1,2-.1l1.38,29.21a1,1,0,0,1-.3.76A1,1,0,0,1,237.61,155.2Z" fill="#dfeaef"/><path d="M255,139.64l-.2,0L236.51,136a1,1,0,1,1,.39-2l17.27,3.42,2.14-10.73a1,1,0,0,1,2,.39l-2.33,11.71A1,1,0,0,1,255,139.64Z" fill="#dfeaef"/><path d="M244.3,147.56a3,3,0,0,1-2.13-5.14,3.08,3.08,0,0,1,4.26,0,3,3,0,0,1-2.13,5.14Zm0-4a1,1,0,0,0-1,1,1,1,0,0,0,.29.72,1,1,0,0,0,1.44,0,1,1,0,0,0,0-1.43A1,1,0,0,0,244.3,143.54Z" fill="#dfeaef"/><path d="M216.26,71.07l-1,1L194.74,91.45l-7.2,6.83L154.79,68.89A92.47,92.47,0,0,1,200,57.15c1,0,2.05,0,3.07.06Z" fill="#f56132"/><path d="M187.54,99.28a1,1,0,0,1-.67-.25l-32.75-29.4a1,1,0,0,1-.33-.85,1,1,0,0,1,.51-.77A93.94,93.94,0,0,1,200,56.15c1.25,0,2.21,0,3.12.06a1,1,0,0,1,.68.31L217,70.38a1,1,0,0,1,.27.72,1,1,0,0,1-.31.7L188.23,99A1,1,0,0,1,187.54,99.28Zm-31-30.2,31,27.84L214.85,71,202.63,58.19c-.76,0-1.59,0-2.63,0A92,92,0,0,0,156.51,69.08Z" fill="#093f68"/><circle cx="266.24" cy="204.83" r="24.01" fill="#fff"/><path d="M266.24,229.84a25,25,0,1,1,25-25A25,25,0,0,1,266.24,229.84Zm0-48a23,23,0,1,0,23,23A23,23,0,0,0,266.24,181.82Z" fill="#093f68"/><line x1="255.39" y1="204.83" x2="272.76" y2="215.45" fill="#fff"/><path d="M272.76,216.45a1,1,0,0,1-.52-.15l-17.37-10.62a1,1,0,0,1-.33-1.37,1,1,0,0,1,1.38-.33l17.36,10.61a1,1,0,0,1,.33,1.38A1,1,0,0,1,272.76,216.45Z" fill="#093f68"/><circle cx="272.76" cy="215.45" r="5.67" fill="#68e1fd"/><path d="M272.76,222.12a6.68,6.68,0,1,1,6.67-6.67A6.68,6.68,0,0,1,272.76,222.12Zm0-11.35a4.68,4.68,0,1,0,4.67,4.68A4.68,4.68,0,0,0,272.76,210.77Z" fill="#093f68"/><line x1="255.39" y1="204.83" x2="272.76" y2="194.21" fill="#fff"/><path d="M255.39,205.83a1,1,0,0,1-.52-1.85l17.37-10.62a1,1,0,0,1,1.37.33,1,1,0,0,1-.33,1.38l-17.36,10.61A1,1,0,0,1,255.39,205.83Z" fill="#093f68"/><circle cx="272.76" cy="194.21" r="5.67" fill="#68e1fd"/><path d="M272.76,200.89a6.68,6.68,0,1,1,6.67-6.68A6.68,6.68,0,0,1,272.76,200.89Zm0-11.35a4.68,4.68,0,1,0,4.67,4.67A4.68,4.68,0,0,0,272.76,189.54Z" fill="#093f68"/><circle cx="255.39" cy="204.83" r="5.67" fill="#68e1fd"/><path d="M255.39,211.5a6.67,6.67,0,1,1,6.67-6.67A6.67,6.67,0,0,1,255.39,211.5Zm0-11.34a4.67,4.67,0,1,0,4.67,4.67A4.68,4.68,0,0,0,255.39,200.16Z" fill="#093f68"/></svg>