<svg xmlns="http://www.w3.org/2000/svg" viewBox="0 0 400 300"><g id="_254_snow_outline" data-name="#254_snow_outline"><path d="M293.1,150A93.1,93.1,0,1,1,200,56.9,92.81,92.81,0,0,1,293.1,150Z" fill="#68e1fd"/><path d="M200,244.1a94.12,94.12,0,1,1,65.17-26.23A93.61,93.61,0,0,1,200,244.1Zm0-186.2A92.1,92.1,0,1,0,292.1,150,92.21,92.21,0,0,0,200,57.9Z" fill="#093f68"/><circle cx="200" cy="142.89" r="34.21" fill="#fff"/><path d="M200,178.1a35.21,35.21,0,1,1,35.21-35.21A35.24,35.24,0,0,1,200,178.1Zm0-68.42a33.21,33.21,0,1,0,33.21,33.21A33.25,33.25,0,0,0,200,109.68Z" fill="#093f68"/><path d="M264.48,217.15a93.08,93.08,0,0,1-129,0c6.25-27.76,32.74-48.62,64.48-48.62S258.23,189.39,264.48,217.15Z" fill="#fff"/><path d="M200,244.1a93.61,93.61,0,0,1-65.17-26.23,1,1,0,0,1-.29-.94c6.45-28.62,34-49.4,65.46-49.4s59,20.78,65.46,49.4a1,1,0,0,1-.29.94A93.61,93.61,0,0,1,200,244.1Zm-63.38-27.28a92.09,92.09,0,0,0,126.76,0c-6.47-27.44-33-47.29-63.38-47.29S143.09,189.38,136.62,216.82Z" fill="#093f68"/><polygon points="187.17 171.85 188.67 197.56 173.28 196.25 179.66 170.91 187.17 171.85" fill="#ffbc0e"/><path d="M188.67,198.56h-.09l-15.39-1.32a1,1,0,0,1-.73-.41,1,1,0,0,1-.15-.83l6.38-25.34a1,1,0,0,1,1.09-.74l7.51.93a1,1,0,0,1,.88.94l1.5,25.71a1.06,1.06,0,0,1-.3.78A1,1,0,0,1,188.67,198.56Zm-14.14-3.21,13.07,1.12-1.38-23.73-5.81-.73Z" fill="#093f68"/><rect x="186.31" y="104.36" width="45.88" height="11.08" rx="3.31" transform="translate(39.69 -54.76) rotate(16.45)" fill="#093f68"/><path d="M227.46,121.9a4.25,4.25,0,0,1-1.23-.17l-37.65-11.12a4.33,4.33,0,0,1-2.92-5.36l1.27-4.27a4.31,4.31,0,0,1,5.35-2.91l37.65,11.12a4.31,4.31,0,0,1,2.92,5.35l-1.27,4.27a4.29,4.29,0,0,1-4.12,3.09Zm-36.4-22a2.36,2.36,0,0,0-1.1.28,2.33,2.33,0,0,0-1.12,1.38l-1.26,4.27a2.31,2.31,0,0,0,1.56,2.87l37.65,11.12h0a2.33,2.33,0,0,0,2.88-1.56l1.26-4.27a2.32,2.32,0,0,0-1.56-2.88L191.71,100A2.05,2.05,0,0,0,191.06,99.89Z" fill="#093f68"/><rect x="200.43" y="78" width="28.96" height="27.22" transform="translate(34.74 -57.11) rotate(16.45)" fill="#093f68"/><path d="M224.94,109.75a.86.86,0,0,1-.28,0l-27.77-8.2a1,1,0,0,1-.68-1.24l7.71-26.1a1,1,0,0,1,.48-.6,1,1,0,0,1,.76-.08l27.77,8.2a1,1,0,0,1,.68,1.25L225.9,109a1,1,0,0,1-.48.59A1,1,0,0,1,224.94,109.75Zm-26.53-9.87,25.85,7.63,7.14-24.18-25.85-7.64Z" fill="#093f68"/><path d="M202.05,135.48l38.59,3-37.86,11.88A12.66,12.66,0,0,1,202.05,135.48Z" fill="#f56132"/><path d="M202.78,151.31A1,1,0,0,1,202,151a13.79,13.79,0,0,1-.84-16,1,1,0,0,1,.93-.49l38.6,3a1,1,0,0,1,.92.88,1,1,0,0,1-.7,1.07l-37.86,11.87A1,1,0,0,1,202.78,151.31Zm-.18-14.79a11.59,11.59,0,0,0,.54,12.63L235.39,139Z" fill="#093f68"/><circle cx="201.81" cy="200.64" r="4.69" fill="#ffbc0e"/><path d="M201.81,206.34a5.7,5.7,0,1,1,5.69-5.7A5.7,5.7,0,0,1,201.81,206.34Zm0-9.39a3.7,3.7,0,1,0,3.69,3.69A3.69,3.69,0,0,0,201.81,197Z" fill="#093f68"/><circle cx="201.81" cy="225.7" r="4.69" fill="#ffbc0e"/><path d="M201.81,231.4a5.7,5.7,0,1,1,5.69-5.7A5.7,5.7,0,0,1,201.81,231.4Zm0-9.39a3.7,3.7,0,1,0,3.69,3.69A3.69,3.69,0,0,0,201.81,222Z" fill="#093f68"/><polygon points="177.22 171.85 165.79 202.07 180.97 203.19 183.41 171.85 177.22 171.85" fill="#ffbc0e"/><path d="M181,204.19h-.07l-15.18-1.13a1,1,0,0,1-.77-.46,1,1,0,0,1-.1-.89l11.43-30.22a1,1,0,0,1,.94-.64h6.19a1,1,0,0,1,.74.32,1,1,0,0,1,.26.75L182,203.27A1,1,0,0,1,181,204.19Zm-13.77-3,12.85,1,2.28-29.27h-4.42Z" fill="#093f68"/><rect x="168.13" y="163.33" width="63.75" height="12.76" rx="4.04" fill="#ffbc0e"/><path d="M227.83,177.09H172.17a5,5,0,0,1-5-5v-4.68a5,5,0,0,1,5-5h55.66a5,5,0,0,1,5,5v4.68A5,5,0,0,1,227.83,177.09Zm-55.66-12.76a3,3,0,0,0-3,3v4.68a3,3,0,0,0,3,3h55.66a3,3,0,0,0,3-3v-4.68a3,3,0,0,0-3-3Z" fill="#093f68"/><circle cx="147.09" cy="148.2" r="3.85" fill="#fff"/><circle cx="245.32" cy="153.74" r="3.85" fill="#fff"/><circle cx="276.51" cy="133.47" r="3.85" fill="#fff"/><circle cx="249.17" cy="115.6" r="3.85" fill="#fff"/><circle cx="247.5" cy="90.04" r="3.85" fill="#fff"/><circle cx="276.51" cy="181.17" r="3.85" fill="#fff"/><circle cx="120.58" cy="126.29" r="3.85" fill="#fff"/><circle cx="149.14" cy="118.59" r="3.85" fill="#fff"/><circle cx="155.02" cy="87.48" r="3.85" fill="#fff"/><circle cx="189.33" cy="71.9" r="3.85" fill="#fff"/><path d="M151.69,198.5a1,1,0,0,1-.82-.43L123.09,158a1,1,0,0,1,1.64-1.14l27.78,40.11a1,1,0,0,1-.82,1.57Z" fill="#093f68"/><path d="M134.12,173.13l-.19,0a1,1,0,0,1-.8-1.16l3.69-20.09a1,1,0,1,1,2,.36l-3.68,20.09A1,1,0,0,1,134.12,173.13Z" fill="#093f68"/><path d="M130.67,168.57h-.12L121,167.48a1,1,0,0,1,.23-2l9.57,1.09a1,1,0,0,1-.11,2Z" fill="#093f68"/><path d="M242.73,198.56a1,1,0,0,1-.52-.14,1,1,0,0,1-.34-1.38l25.91-42.7a1,1,0,0,1,1.37-.34,1,1,0,0,1,.34,1.38l-25.91,42.7A1,1,0,0,1,242.73,198.56Z" fill="#093f68"/><path d="M260.92,168.57a1,1,0,0,1-1-1V148.38a1,1,0,0,1,2,0v19.19A1,1,0,0,1,260.92,168.57Z" fill="#093f68"/><path d="M264.48,162.7a1,1,0,0,1-.19-2l7.53-1.49a1,1,0,1,1,.38,2l-7.53,1.49A.62.62,0,0,1,264.48,162.7Z" fill="#093f68"/><circle cx="188.7" cy="128.1" r="3.18" fill="#093f68"/><path d="M188.7,132.28a4.18,4.18,0,1,1,4.18-4.18A4.19,4.19,0,0,1,188.7,132.28Zm0-6.36a2.18,2.18,0,1,0,2.18,2.18A2.19,2.19,0,0,0,188.7,125.92Z" fill="#093f68"/><circle cx="211.3" cy="128.1" r="3.18" fill="#093f68"/><path d="M211.3,132.28a4.18,4.18,0,1,1,4.18-4.18A4.19,4.19,0,0,1,211.3,132.28Zm0-6.36a2.18,2.18,0,1,0,2.18,2.18A2.19,2.19,0,0,0,211.3,125.92Z" fill="#093f68"/><path d="M245.36,205.42a1,1,0,0,1-.94-.68,11,11,0,0,0-7.12-6.92,1,1,0,1,1,.58-1.91,13,13,0,0,1,8.43,8.2,1,1,0,0,1-.63,1.26A.86.86,0,0,1,245.36,205.42Z" fill="#093f68"/><path d="M149.49,205.12a.9.9,0,0,1-.28,0,1,1,0,0,1-.68-1.24,14.71,14.71,0,0,1,9.13-9.64,1,1,0,0,1,.66,1.89,12.69,12.69,0,0,0-7.87,8.31A1,1,0,0,1,149.49,205.12Z" fill="#093f68"/><path d="M200.07,157a10.17,10.17,0,0,1-5.75-1.54,8,8,0,0,1-3.44-5.44,1,1,0,0,1,.9-1.1,1,1,0,0,1,1.09.89,6,6,0,0,0,2.58,4c2.34,1.53,6.05,1.57,10.76.12a1,1,0,1,1,.58,1.91A22.8,22.8,0,0,1,200.07,157Z" fill="#093f68"/></g></svg>