<svg xmlns="http://www.w3.org/2000/svg" viewBox="0 0 400 300"><g id="_287_startup_outline" data-name="#287_startup_outline"><circle cx="203.93" cy="95.25" r="37.49" fill="#ffbc0e"/><path d="M203.93,133.74a38.49,38.49,0,1,1,38.48-38.49A38.54,38.54,0,0,1,203.93,133.74Zm0-75a36.49,36.49,0,1,0,36.48,36.48A36.52,36.52,0,0,0,203.93,58.77Z" fill="#093f68"/><circle cx="203.93" cy="95.25" r="31.08" fill="#ffbc0e"/><path d="M203.93,127.33A32.08,32.08,0,1,1,236,95.25,32.12,32.12,0,0,1,203.93,127.33Zm0-62.16A30.08,30.08,0,1,0,234,95.25,30.12,30.12,0,0,0,203.93,65.17Z" fill="#093f68"/><path d="M200.38,119.77v-3.88c-1.42-.38-2.79-.68-4.11-1.13A12,12,0,0,1,190,110a11.74,11.74,0,0,1-1.82-6.58h7.58c.35,2.82,1.72,4.84,4.64,5.62V98.77c-1.52-.44-3-.86-4.54-1.33a10.54,10.54,0,0,1-4.4-2.51A8.73,8.73,0,0,1,189,90.16a12.39,12.39,0,0,1,.48-6.61A11,11,0,0,1,196.08,77a33.26,33.26,0,0,1,3.84-1l.46-.1V70.73h7.09v.5c0,1.47,0,2.94,0,4.41,0,.37.11.48.46.55a14.94,14.94,0,0,1,6.6,3.09,10.71,10.71,0,0,1,3.77,6.58c.12.71.17,1.42.27,2.17h-7.71a5.4,5.4,0,0,0-3.34-4.89v9.6l.83.19a27.79,27.79,0,0,1,6,1.93,8.77,8.77,0,0,1,5.24,7.31,11.49,11.49,0,0,1-7.72,12.6c-1.42.49-2.9.82-4.43,1.24v3.76Zm7.11-19.52v8.93a6.48,6.48,0,0,0,3.14-1.38c1.64-1.35,2.23-4.71-.18-6.19A27,27,0,0,0,207.49,100.25Zm-7.14-9.15V82.47a24.45,24.45,0,0,0-2.71,1.37c-2,1.32-2.28,5,.24,6.23C198.65,90.46,199.48,90.74,200.35,91.1Z" fill="#fff"/><path d="M207.47,120.77h-7.09a1,1,0,0,1-1-1v-3.11l-.57-.14c-.94-.24-1.92-.49-2.87-.82a12.92,12.92,0,0,1-6.82-5.13,12.72,12.72,0,0,1-2-7.12,1,1,0,0,1,1-1h7.58a1,1,0,0,1,1,.88,5.09,5.09,0,0,0,2.65,4.3V99.53l-.63-.19c-1.08-.3-2.15-.61-3.21-1a11.45,11.45,0,0,1-4.81-2.75A9.75,9.75,0,0,1,188,90.33a13,13,0,0,1,.53-7.13A12,12,0,0,1,195.73,76a20.47,20.47,0,0,1,2.78-.75l.87-.2V70.73a1,1,0,0,1,1-1h7.09a1,1,0,0,1,1,1v1.68c0,1,0,1.92,0,2.88a15.64,15.64,0,0,1,6.7,3.22,11.67,11.67,0,0,1,4.11,7.18c.09.5.14,1,.2,1.52l.08.69a1,1,0,0,1-.25.79,1,1,0,0,1-.74.34h-7.71a1,1,0,0,1-1-1,4.37,4.37,0,0,0-1.34-3.1v7h0a28,28,0,0,1,6.26,2,9.72,9.72,0,0,1,5.8,8.09,12.47,12.47,0,0,1-8.38,13.66c-1,.35-2.06.63-3.08.89l-.68.18v3A1,1,0,0,1,207.47,120.77Zm-6.09-2h5.09V116a1,1,0,0,1,.73-1l1.45-.38c1-.26,2-.51,2.93-.84a10.62,10.62,0,0,0,5.23-3.87,10.43,10.43,0,0,0,1.82-7.66A7.75,7.75,0,0,0,214,95.77a26.87,26.87,0,0,0-5.83-1.86c-.22,0-.44-.1-.65-.15l-.21-.05a1,1,0,0,1-.76-1v-9.6a1,1,0,0,1,1.42-.91,6.3,6.3,0,0,1,3.81,4.8h5.7c0-.34-.08-.67-.14-1a9.62,9.62,0,0,0-3.41-6,13.93,13.93,0,0,0-6.18-2.88,1.43,1.43,0,0,1-1.25-1.54c0-1.07,0-2.15,0-3.22v-.68h-5.09v4.15a1,1,0,0,1-.81,1l-.17,0-.24,0-1.22.28a17.87,17.87,0,0,0-2.5.67,10,10,0,0,0-6.07,6,11.23,11.23,0,0,0-.43,6.07,7.63,7.63,0,0,0,2.17,4.24,9.61,9.61,0,0,0,4,2.27c1,.33,2.1.63,3.16.93l1.36.39a1,1,0,0,1,.72,1v10.29a1,1,0,0,1-1.26,1,6.82,6.82,0,0,1-5.23-5.59h-5.69a10.17,10.17,0,0,0,1.62,5,10.84,10.84,0,0,0,5.8,4.34c.87.3,1.77.53,2.71.77l1.34.34a1,1,0,0,1,.74,1Zm6.11-8.59a1,1,0,0,1-.64-.23,1,1,0,0,1-.36-.77v-8.93a1,1,0,0,1,.46-.84,1,1,0,0,1,1-.07l1,.41a14.51,14.51,0,0,1,2.11,1,4.3,4.3,0,0,1,2.08,3.47,5.28,5.28,0,0,1-1.79,4.34,7.39,7.39,0,0,1-3.6,1.6Zm1-8.42v6.13A5.09,5.09,0,0,0,210,107a3.34,3.34,0,0,0,1.07-2.66,2.34,2.34,0,0,0-1.14-1.91A11.2,11.2,0,0,0,208.49,101.76Zm-8.14-9.66A1,1,0,0,1,200,92l-.79-.31a17.71,17.71,0,0,1-1.75-.75,4.26,4.26,0,0,1-2.34-3.65,4.86,4.86,0,0,1,2-4.3A13.08,13.08,0,0,1,199,82l.89-.43a1,1,0,0,1,1.45.89V91.1a1,1,0,0,1-1,1Zm-1-8.06a10.4,10.4,0,0,0-1.15.63,2.85,2.85,0,0,0-1.11,2.52,2.3,2.3,0,0,0,1.24,2q.48.24,1,.45Z" fill="#093f68"/><path d="M193.55,167.26h10.79a38.38,38.38,0,0,1,38.38,38.38v9.65a0,0,0,0,1,0,0H155.18a0,0,0,0,1,0,0v-9.65A38.38,38.38,0,0,1,193.55,167.26Z" fill="#725858"/><path d="M242.72,216.28H155.18a1,1,0,0,1-1-1v-9.65a39.41,39.41,0,0,1,39.37-39.37h10.8a39.41,39.41,0,0,1,39.37,39.37v9.65A1,1,0,0,1,242.72,216.28Zm-86.54-2h85.54v-8.65a37.41,37.41,0,0,0-37.37-37.37h-10.8a37.41,37.41,0,0,0-37.37,37.37Z" fill="#093f68"/><polygon points="189.89 142.33 177.66 129.59 166.52 142.33 171.26 142.33 171.26 188.5 184.06 188.5 184.06 142.33 189.89 142.33" fill="#68e1fd"/><path d="M184.06,189.5h-12.8a1,1,0,0,1-1-1V143.33h-3.74a1,1,0,0,1-.75-1.66l11.14-12.74a1,1,0,0,1,.73-.34,1,1,0,0,1,.74.31l12.23,12.74a1,1,0,0,1,.2,1.08,1,1,0,0,1-.92.61h-4.83V188.5A1,1,0,0,1,184.06,189.5Zm-11.8-2h10.8V142.33a1,1,0,0,1,1-1h3.48l-9.85-10.26-9,10.26h2.54a1,1,0,0,1,1,1Z" fill="#093f68"/><polygon points="215.61 129.59 203.38 116.85 192.25 129.59 196.99 129.59 196.99 188.5 209.78 188.5 209.78 129.59 215.61 129.59" fill="#68e1fd"/><path d="M209.78,189.5H197a1,1,0,0,1-1-1V130.59h-3.75a1,1,0,0,1-.75-1.66l11.14-12.74a1,1,0,0,1,.73-.34,1,1,0,0,1,.74.31l12.23,12.74a1,1,0,0,1,.2,1.08,1,1,0,0,1-.92.61h-4.83V188.5A1,1,0,0,1,209.78,189.5Zm-11.79-2h10.79V129.59a1,1,0,0,1,1-1h3.48l-9.84-10.26-9,10.26H197a1,1,0,0,1,1,1Z" fill="#093f68"/><polygon points="241.33 113.39 229.11 100.66 217.97 113.39 222.71 113.39 222.71 188.5 235.5 188.5 235.5 113.39 241.33 113.39" fill="#68e1fd"/><path d="M235.5,189.5H222.71a1,1,0,0,1-1-1V114.39H218a1,1,0,0,1-.75-1.65L228.35,100a1,1,0,0,1,.73-.34,1.08,1.08,0,0,1,.75.3l12.22,12.74a1,1,0,0,1-.72,1.69H236.5V188.5A1,1,0,0,1,235.5,189.5Zm-11.79-2H234.5V113.39a1,1,0,0,1,1-1H239l-9.85-10.26-9,10.26h2.54a1,1,0,0,1,1,1Z" fill="#093f68"/><path d="M206.56,242.23s-1.64-20.75,2.86-28.12,17.15-11.88,24.87-19.74c9.26-9.45,11.45-17.5,18.26-20.67,5.9-2.75,8.85,1.12,8.85,1.12s-.85-25.78.38-28.65,6.86-9.2,12.72.21,5.88,39.19,1.91,57.09-24.88,28.65-26.56,33.15-1.14,5.61-1.14,5.61Z" fill="#ffc9b0"/><path d="M248.71,243.23H206.56a1,1,0,0,1-1-.92c-.07-.86-1.61-21.16,3-28.72,2.61-4.27,7.69-7.53,13.06-11,4.22-2.71,8.58-5.51,11.94-8.94a82.71,82.71,0,0,0,8.88-11c3.11-4.43,5.56-7.92,9.67-9.84,3.57-1.66,6.4-1.12,8.21-.12-.2-7-.58-24.31.53-26.89.86-2,3.35-5.1,6.66-5.35,2.81-.22,5.45,1.61,7.82,5.42,6.08,9.76,6.09,39.62,2,57.84-2.79,12.58-13.57,21.59-20.7,27.55-2.93,2.44-5.46,4.56-5.9,5.73-1.33,3.57-1.16,4.79-1.13,4.92a1,1,0,0,1-.09.87A1,1,0,0,1,248.71,243.23Zm-41.22-2h40.15a18.26,18.26,0,0,1,1.27-5c.62-1.66,3-3.62,6.49-6.57,6.92-5.78,17.38-14.52,20-26.44,3.94-17.75,3.89-47.24-1.78-56.35-1.34-2.15-3.47-4.68-6-4.48s-4.43,2.87-5,4.14c-.83,1.94-.63,18.34-.3,28.22a1,1,0,0,1-1.8.64c-.1-.13-2.58-3.18-7.63-.82-3.63,1.69-5.95,5-8.89,9.17A84.66,84.66,0,0,1,235,195.07c-3.52,3.59-8,6.45-12.29,9.22-5.17,3.32-10.06,6.46-12.43,10.34C206.52,220.78,207.25,237.17,207.49,241.23Z" fill="#093f68"/><path d="M240.94,213.75a1,1,0,0,1-.68-.27,1,1,0,0,1-.06-1.41c6.92-7.49,14-15.63,18.38-25.51A22.33,22.33,0,0,0,260.41,175a1,1,0,0,1,.82-1.15,1,1,0,0,1,1.15.81,23.91,23.91,0,0,1-2,12.72c-4.47,10.15-11.71,18.44-18.74,26.06A1,1,0,0,1,240.94,213.75Z" fill="#093f68"/><path d="M193.44,242.23s1.64-20.75-2.86-28.12-17.15-11.88-24.87-19.74c-9.26-9.45-11.45-17.5-18.26-20.67-5.9-2.75-8.85,1.12-8.85,1.12s.85-25.78-.38-28.65-6.86-9.2-12.72.21-5.88,39.19-1.91,57.09,24.88,28.65,26.56,33.15,1.14,5.61,1.14,5.61Z" fill="#ffc9b0"/><path d="M193.44,243.23H151.29a1,1,0,0,1-.85-.47,1,1,0,0,1-.09-.87c0-.13.2-1.35-1.13-4.92-.44-1.17-3-3.29-5.9-5.73-7.13-6-17.91-15-20.7-27.55-4.05-18.22-4-48.08,2-57.84,2.37-3.81,5-5.64,7.82-5.42,3.31.25,5.8,3.34,6.66,5.35,1.11,2.58.73,19.88.53,26.89,1.81-1,4.64-1.54,8.21.12,4.11,1.92,6.56,5.41,9.67,9.84a82.71,82.71,0,0,0,8.88,11c3.36,3.43,7.72,6.23,11.94,8.94,5.37,3.45,10.45,6.71,13.06,11,4.62,7.56,3.08,27.86,3,28.72A1,1,0,0,1,193.44,243.23Zm-41.08-2h40.15c.24-4.06,1-20.45-2.79-26.6-2.37-3.88-7.26-7-12.43-10.34-4.31-2.77-8.77-5.63-12.29-9.22a84.66,84.66,0,0,1-9.08-11.29c-2.94-4.18-5.26-7.48-8.89-9.17-5.11-2.39-7.61.79-7.63.82a1,1,0,0,1-1.8-.64c.33-9.88.53-26.29-.3-28.22-.54-1.27-2.47-3.95-5-4.14s-4.64,2.33-6,4.48c-5.67,9.11-5.72,38.6-1.78,56.35,2.65,11.92,13.11,20.66,20,26.44,3.53,3,5.87,4.91,6.49,6.57A18.26,18.26,0,0,1,152.36,241.23Z" fill="#093f68"/><path d="M159.06,213.75a1,1,0,0,1-.73-.32c-7-7.62-14.27-15.91-18.74-26.06a23.91,23.91,0,0,1-2-12.72,1,1,0,0,1,2,.34,22.33,22.33,0,0,0,1.83,11.57c4.35,9.88,11.46,18,18.38,25.51a1,1,0,0,1-.06,1.41A1,1,0,0,1,159.06,213.75Z" fill="#093f68"/><path d="M169.54,137.22s-11.06,3.89-20.8-.32S134.26,122,134.26,122s11.06-3.89,20.8.33S169.54,137.22,169.54,137.22Z" fill="#70cc40"/><path d="M159,139.87a26.7,26.7,0,0,1-10.65-2.06c-10-4.32-14.79-15-15-15.45a1,1,0,0,1,0-.8,1,1,0,0,1,.58-.54c.47-.17,11.55-4,21.53.35s14.79,15,15,15.45a1,1,0,0,1,0,.8,1,1,0,0,1-.59.55A36,36,0,0,1,159,139.87Zm-23.3-17.29c1.44,2.71,5.93,10.14,13.45,13.4s16,1.44,19,.63c-1.44-2.72-5.93-10.15-13.45-13.41S138.66,121.76,135.69,122.58Z" fill="#093f68"/><path d="M169.54,138.22a1,1,0,0,1-.4-.08l-35.27-15.26a1,1,0,0,1-.52-1.32,1,1,0,0,1,1.31-.52l35.28,15.26a1,1,0,0,1,.52,1.32A1,1,0,0,1,169.54,138.22Z" fill="#093f68"/><path d="M266.64,118.87s-1.15,12.59-9.65,20.24-21.14,7.49-21.14,7.49S237,134,245.5,126.36,266.64,118.87,266.64,118.87Z" fill="#70cc40"/><path d="M236,147.6h-.12a1,1,0,0,1-.73-.33,1,1,0,0,1-.25-.76c0-.53,1.28-13.06,10-20.89s21.29-7.75,21.82-7.75a1,1,0,0,1,.73.34,1,1,0,0,1,.25.75c0,.54-1.28,13.07-10,20.9C249.31,147.38,237.36,147.6,236,147.6Zm29.53-27.69c-3.24.18-12.67,1.21-19.32,7.2s-8.66,15.26-9.17,18.46c3.24-.18,12.67-1.21,19.32-7.2S265,123.11,265.49,119.91Z" fill="#093f68"/><path d="M235.86,147.6a1,1,0,0,1-.67-1.74L266,118.13a1,1,0,0,1,1.34,1.49l-30.79,27.73A1,1,0,0,1,235.86,147.6Z" fill="#093f68"/><path d="M159.33,72.41a1,1,0,0,1-.46-.11l-18.1-9.52A1,1,0,0,1,141.7,61l18.1,9.52a1,1,0,0,1-.47,1.88Z" fill="#dfeaef"/><path d="M141.24,112.67a1,1,0,0,1-.47-1.89l18.1-9.51a1,1,0,1,1,.93,1.77l-18.1,9.51A1,1,0,0,1,141.24,112.67Z" fill="#dfeaef"/><path d="M155.26,87.78H134.57a1,1,0,0,1,0-2h20.69a1,1,0,0,1,0,2Z" fill="#dfeaef"/><path d="M248.52,72.41a1,1,0,0,1-.47-1.88L266.15,61a1,1,0,0,1,.93,1.77L249,72.3A.92.92,0,0,1,248.52,72.41Z" fill="#dfeaef"/><path d="M266.62,112.67a1,1,0,0,1-.47-.12L248.05,103a1,1,0,0,1-.42-1.36,1,1,0,0,1,1.35-.41l18.1,9.51a1,1,0,0,1-.46,1.89Z" fill="#dfeaef"/><path d="M273.28,87.78H252.59a1,1,0,0,1,0-2h20.69a1,1,0,0,1,0,2Z" fill="#dfeaef"/></g></svg>