<svg xmlns="http://www.w3.org/2000/svg" viewBox="0 0 400 300"><g id="_419_steak_outline" data-name="#419_steak_outline"><circle cx="194.37" cy="150" r="88.32" fill="#fff"/><path d="M194.37,239.32A89.32,89.32,0,1,1,283.69,150,89.42,89.42,0,0,1,194.37,239.32Zm0-176.64A87.32,87.32,0,1,0,281.69,150,87.42,87.42,0,0,0,194.37,62.68Z" fill="#093f68"/><path d="M194.37,222.53A72.53,72.53,0,1,1,266.89,150,72.62,72.62,0,0,1,194.37,222.53Zm0-143.06A70.53,70.53,0,1,0,264.89,150,70.61,70.61,0,0,0,194.37,79.47Z" fill="#dfeaef"/><path d="M256.59,84s10.31-2.92,15,23.23c4.58,25.72-3.81,50.4-3.81,50.4H256.59Z" fill="#fff"/><path d="M267.75,158.6H256.59a1,1,0,0,1-1-1V84a1,1,0,0,1,.73-1,7.31,7.31,0,0,1,5.55,1.22c3.4,2.12,8,7.81,10.67,22.8,4.57,25.68-3.76,50.64-3.84,50.89A1,1,0,0,1,267.75,158.6Zm-10.16-2H267c1.28-4.13,7.62-26.4,3.55-49.22-2.52-14.16-6.65-19.45-9.67-21.4a6.34,6.34,0,0,0-3.31-1.11Z" fill="#093f68"/><path d="M263.65,215.63h0a7.05,7.05,0,0,0,7.05-7.26l-2.95-50.77H256.59v51A7.06,7.06,0,0,0,263.65,215.63Z" fill="#68e1fd"/><path d="M263.65,216.63a8.07,8.07,0,0,1-8.06-8v-51a1,1,0,0,1,1-1h11.16a1,1,0,0,1,1,.94l2.95,50.77a8,8,0,0,1-8.05,8.32Zm-6.06-58v50a6.06,6.06,0,1,0,12.11-.18l-2.89-49.8Z" fill="#093f68"/><path d="M284,85h0a2.48,2.48,0,0,1,2.47,2.48v18H290v-18A2.48,2.48,0,0,1,292.5,85H293a2.48,2.48,0,0,1,2.48,2.48v18H299v-18A2.48,2.48,0,0,1,301.48,85h0A2.48,2.48,0,0,1,304,87.48V112.7a6.94,6.94,0,0,1-6.73,6.93l2.63,89.49c.1,4.45-3.11,8.13-7.12,8.13s-7.21-3.68-7.11-8.13l2.63-89.49a6.94,6.94,0,0,1-6.73-6.93V87.48A2.48,2.48,0,0,1,284,85Z" fill="#68e1fd"/><path d="M292.74,218.25a7.7,7.7,0,0,1-5.52-2.39,9.4,9.4,0,0,1-2.59-6.77l2.6-88.55a7.91,7.91,0,0,1-6.7-7.84V87.48a3.48,3.48,0,1,1,7,0v17H289v-17A3.48,3.48,0,0,1,292.5,84H293a3.48,3.48,0,0,1,3.48,3.48v17H298v-17a3.48,3.48,0,1,1,6.95,0V112.7a7.91,7.91,0,0,1-6.7,7.84l2.6,88.55a9.4,9.4,0,0,1-2.59,6.77A7.7,7.7,0,0,1,292.74,218.25ZM284,86a1.48,1.48,0,0,0-1.48,1.48V112.7a5.91,5.91,0,0,0,5.76,5.93,1,1,0,0,1,1,1l-2.63,89.49a7.36,7.36,0,0,0,2,5.31,5.68,5.68,0,0,0,4.09,1.79,5.74,5.74,0,0,0,4.1-1.79,7.41,7.41,0,0,0,2-5.32l-2.63-89.48a1,1,0,0,1,1-1A5.91,5.91,0,0,0,303,112.7V87.48a1.48,1.48,0,1,0-2.95,0v18a1,1,0,0,1-1,1h-3.54a1,1,0,0,1-1-1v-18A1.48,1.48,0,0,0,293,86h-.49A1.48,1.48,0,0,0,291,87.48v18a1,1,0,0,1-1,1h-3.54a1,1,0,0,1-1-1v-18A1.47,1.47,0,0,0,284,86Z" fill="#093f68"/><path d="M240.41,107.89c.8,5.17-1.79,10.51-.58,15.6a30.16,30.16,0,0,0,2.64,6.07c3.37,6.9,4.45,14.56,4.82,22.15.18,3.68.73,8,.18,11.64-.58,3.8-3.07,7-3.08,11.07,0,4.22,2.27,8.3,1.73,12.49-.44,3.5-2.87,6.53-5.83,8.44a33.23,33.23,0,0,1-19.14,4.86,59.44,59.44,0,0,1-21.23-5.07c-4.63-2.07-9.18-4.92-11.72-9.31a36.24,36.24,0,0,1-2.86-7.56,98.76,98.76,0,0,0-12-25.23c-1.84-2.77-3.89-5.66-4-9-.16-4,2.52-7.64,2.74-11.64.32-5.95-4.73-10.86-5.83-16.72-.85-4.54.81-9.28,3.6-13,7.91-10.41,24.81-17.16,37.79-16.67C218.76,86.5,238.5,95.57,240.41,107.89Z" fill="#ad7972"/><path d="M222.82,201.25c-.58,0-1.15,0-1.72,0a59.92,59.92,0,0,1-21.59-5.16c-5.95-2.66-9.93-5.83-12.17-9.72a30.92,30.92,0,0,1-2.64-6.74l-.31-1a97.12,97.12,0,0,0-11.84-25l-.32-.49c-1.83-2.75-3.73-5.6-3.86-9a17.35,17.35,0,0,1,1.42-6.59,18.7,18.7,0,0,0,1.31-5.14c.17-3.13-1.3-6-2.86-9a27.92,27.92,0,0,1-3-7.45c-.84-4.46.54-9.47,3.79-13.75C176.75,92,193.7,84.53,207.7,85.07c10.7.41,31.63,9.33,33.7,22.66a25.12,25.12,0,0,1-.38,7.7c-.42,2.74-.81,5.33-.22,7.83a20.59,20.59,0,0,0,1.89,4.52c.23.45.46.89.68,1.34,3.76,7.72,4.6,16.1,4.92,22.55,0,.87.1,1.77.17,2.69a43,43,0,0,1,0,9.14,22.73,22.73,0,0,1-1.53,4.94,16.43,16.43,0,0,0-1.54,6,23.21,23.21,0,0,0,.88,5.39,19.45,19.45,0,0,1,.85,7.22,13.25,13.25,0,0,1-6.29,9.15A33.64,33.64,0,0,1,222.82,201.25ZM206.26,87.05c-13.13,0-28.52,7-35.59,16.29-2.9,3.83-4.15,8.26-3.42,12.17a26.66,26.66,0,0,0,2.77,6.91c1.61,3.14,3.28,6.39,3.08,10.06a20.22,20.22,0,0,1-1.43,5.7,16,16,0,0,0-1.31,5.84c.12,2.85,1.85,5.46,3.54,8l.32.49A99.49,99.49,0,0,1,186.3,178l.32,1a29.47,29.47,0,0,0,2.45,6.32c2,3.51,5.71,6.42,11.26,8.89a57.67,57.67,0,0,0,20.87,5,32.26,32.26,0,0,0,18.54-4.7,11.38,11.38,0,0,0,5.39-7.73,17.92,17.92,0,0,0-.8-6.48,25.07,25.07,0,0,1-.94-5.88,18.22,18.22,0,0,1,1.68-6.71,21.14,21.14,0,0,0,1.41-4.51,41.49,41.49,0,0,0,0-8.7c-.06-.93-.13-1.85-.17-2.74-.45-9.29-1.91-16-4.72-21.76-.21-.44-.43-.87-.66-1.31a22,22,0,0,1-2-5c-.69-2.88-.24-5.78.18-8.59a23.17,23.17,0,0,0,.38-7.09h0c-1.75-11.34-20.5-20.54-31.8-21Z" fill="#093f68"/><path d="M230.09,123.94a1.13,1.13,0,0,1-.36-.06c-18.24-7-46.08-17.42-48.55-17.73a1,1,0,0,1-.44-1.94c.45-.16,1.63-.62,49.7,17.8a1,1,0,0,1-.35,1.93Zm-48.66-17.85Z" fill="#093f68"/><path d="M232.58,143.79h-.12c-1.23-.13-36-14.37-50.84-20.49a1,1,0,1,1,.76-1.85c19.4,8,48.82,20,50.38,20.37a1,1,0,0,1,.85,1.09A1,1,0,0,1,232.58,143.79Z" fill="#093f68"/><path d="M237.93,163a1,1,0,0,1-.38-.07L187,142.43a1,1,0,0,1,.75-1.86l50.57,20.52a1,1,0,0,1-.37,1.92Z" fill="#093f68"/><path d="M227.86,174a1.26,1.26,0,0,1-.33,0c-12.92-4.53-37.74-13.2-39.14-13.6a1,1,0,0,1-.7-1.23,1,1,0,0,1,1.24-.69c1.82.51,37.74,13.09,39.26,13.63a1,1,0,0,1-.33,1.94Z" fill="#093f68"/><path d="M229.41,192.53a.93.93,0,0,1-.29-.05L206,185.29a1,1,0,1,1,.6-1.91l23.13,7.19a1,1,0,0,1-.3,2Z" fill="#093f68"/><polygon points="139.41 142.96 167.18 155.63 166.5 161.77 136.17 149.44 139.41 142.96" fill="#ffbc0e"/><path d="M166.5,162.77a1,1,0,0,1-.37-.08l-30.34-12.33a1,1,0,0,1-.56-.57,1,1,0,0,1,0-.8l3.25-6.48a1,1,0,0,1,1.31-.46l27.76,12.67a1,1,0,0,1,.58,1l-.67,6.14a1,1,0,0,1-.48.75A1.07,1.07,0,0,1,166.5,162.77Zm-29-13.85,28.12,11.42.44-4.1-26.22-12Z" fill="#093f68"/><polygon points="150.42 191.09 174.83 172.76 179.9 176.29 154.56 197.04 150.42 191.09" fill="#ffbc0e"/><path d="M154.56,198h-.14a1,1,0,0,1-.68-.42l-4.14-6a1,1,0,0,1,.22-1.37L174.22,172a1,1,0,0,1,1.18,0l5.07,3.53a1.05,1.05,0,0,1,.43.78,1,1,0,0,1-.37.81l-25.34,20.75A1,1,0,0,1,154.56,198Zm-2.77-6.73,3,4.27,23.48-19.22L174.85,174Z" fill="#093f68"/><polygon points="156.81 201.46 184.26 185.05 187.94 190.89 159.54 207.21 156.81 201.46" fill="#ffbc0e"/><path d="M159.54,208.21a1,1,0,0,1-.3-.05.94.94,0,0,1-.6-.52l-2.73-5.75a1,1,0,0,1,.39-1.28l27.45-16.42a1,1,0,0,1,1.36.33l3.67,5.84a1,1,0,0,1,.13.77,1,1,0,0,1-.48.63L160,208.07A1,1,0,0,1,159.54,208.21Zm-1.43-6.35L160,205.8l26.56-15.26-2.6-4.13Z" fill="#093f68"/><polygon points="140.39 155.17 170.63 159.28 171.76 165.35 139.16 162.31 140.39 155.17" fill="#ffbc0e"/><path d="M171.76,166.35h-.09l-32.61-3a1,1,0,0,1-.7-.38,1,1,0,0,1-.19-.78l1.24-7.14a1,1,0,0,1,1.12-.82l30.24,4.11a1,1,0,0,1,.85.81l1.13,6.07a1,1,0,0,1-.25.86A1,1,0,0,1,171.76,166.35Zm-31.43-4.94,30.21,2.82-.76-4.06-28.57-3.88Z" fill="#093f68"/><polygon points="137.56 167.34 168.06 168.03 169.87 173.94 137.13 174.58 137.56 167.34" fill="#ffbc0e"/><path d="M137.13,175.58a1,1,0,0,1-.72-.31,1,1,0,0,1-.28-.75l.43-7.23a1,1,0,0,1,1-.95l30.51.69a1,1,0,0,1,.93.71l1.81,5.91a1,1,0,0,1-.15.88,1,1,0,0,1-.79.41l-32.74.64Zm1.37-7.21-.31,5.19,30.34-.59L167.32,169Z" fill="#093f68"/><polygon points="144.67 175.29 177.29 163.38 178.26 169.34 146.75 182.23 144.67 175.29" fill="#ffbc0e"/><path d="M146.75,183.23a1,1,0,0,1-.43-.09,1,1,0,0,1-.53-.62l-2.08-6.94a1,1,0,0,1,.62-1.23l32.61-11.91a1,1,0,0,1,.85.08,1,1,0,0,1,.48.7l1,6a1,1,0,0,1-.61,1.08l-31.51,12.9A1,1,0,0,1,146.75,183.23Zm-.85-7.32,1.49,5,29.76-12.18-.65-4Z" fill="#093f68"/><polygon points="147.74 170.74 172.18 185.97 169.82 191.07 143.77 176.81 147.74 170.74" fill="#ffbc0e"/><path d="M169.82,192.07a1,1,0,0,1-.48-.12l-26.05-14.27a.94.94,0,0,1-.49-.63,1,1,0,0,1,.13-.79l4-6.07a1,1,0,0,1,1.36-.3l24.45,15.23a1,1,0,0,1,.38,1.27l-2.37,5.1a1,1,0,0,1-.59.53A1.12,1.12,0,0,1,169.82,192.07ZM145.2,176.45l24.16,13.23,1.54-3.33L148,172.11Z" fill="#093f68"/><path d="M151.12,120.55a8.08,8.08,0,0,1,4.58.73,8.17,8.17,0,0,1,3.36,2.55,4.74,4.74,0,0,1,.81,4,5,5,0,0,0-.43,1.7c.05.85.76,1.48,1.26,2.16a6,6,0,0,1-.32,7,8.62,8.62,0,0,1-6.65,3,3.81,3.81,0,0,1-1.61-.25,9.13,9.13,0,0,1-1.65-1.26c-1.73-1.31-4.19-1.18-6-2.29-2.55-1.53-3.25-5.09-2.37-7.92C143.14,126.67,147.29,121.21,151.12,120.55Z" fill="#f56132"/><path d="M153.56,142.82a4.39,4.39,0,0,1-1.85-.34,5.3,5.3,0,0,1-1.36-1c-.16-.14-.32-.29-.48-.41A7.9,7.9,0,0,0,147,140a10.79,10.79,0,0,1-3.11-1.13c-3.12-1.87-3.77-6-2.8-9.07,1.15-3.68,5.56-9.5,9.84-10.24a10.16,10.16,0,0,1,8.92,3.68,5.7,5.7,0,0,1,1,4.92c-.05.18-.12.36-.18.54a2.34,2.34,0,0,0-.22.82,2.44,2.44,0,0,0,.68,1.11l.39.5a7,7,0,0,1-.33,8.25,9.6,9.6,0,0,1-7.42,3.44Zm-1.38-21.36a5.18,5.18,0,0,0-.89.07h0c-3.37.59-7.28,5.7-8.27,8.87-.72,2.28-.29,5.43,1.92,6.76a9.16,9.16,0,0,0,2.57.9,9.61,9.61,0,0,1,3.56,1.45c.21.16.41.34.61.51a3.86,3.86,0,0,0,.85.64,3.15,3.15,0,0,0,1.18.16,7.59,7.59,0,0,0,5.88-2.67,5,5,0,0,0,.31-5.82l-.34-.42a3.27,3.27,0,0,1-.79-3.91c0-.14.11-.28.15-.42a3.77,3.77,0,0,0-.67-3.16,7.11,7.11,0,0,0-3-2.22A7.76,7.76,0,0,0,152.18,121.46Zm-1.06-.91h0Z" fill="#093f68"/><path d="M216.59,91.22A4.3,4.3,0,0,1,219,86.94a5.82,5.82,0,0,1,5.08.18,3.77,3.77,0,0,1,2.32,3,5,5,0,0,1-1,2.62,10.45,10.45,0,0,1,7.48,3.28c1.15,1.23,2,3.12,1.14,4.57a4.93,4.93,0,0,1-3.1,1.8,3.88,3.88,0,0,1-.73,5.37,5.66,5.66,0,0,1-5.75.43,11,11,0,0,1-4.38-4.08,8.72,8.72,0,0,1-8.38-.62c-1.12-.75-2.14-2-1.76-3.35S212,98.3,213.45,98c-2.8-1.65-3.11-3.16-1.86-5.9.55-1.22.63-2.52,2.3-2.71A2.61,2.61,0,0,1,216.59,91.22Z" fill="#70cc40"/><path d="M227.09,109.81a7.36,7.36,0,0,1-3-.67,11.1,11.1,0,0,1-4.33-3.76,9.73,9.73,0,0,1-8.57-1c-1.34-.89-2.72-2.6-2.17-4.46a3.67,3.67,0,0,1,2.24-2.28c-1.59-1.53-1.71-3.32-.54-5.9.1-.22.18-.45.26-.67.38-1,.89-2.4,2.83-2.63a3.68,3.68,0,0,1,2.15.49A5.49,5.49,0,0,1,218.59,86a6.86,6.86,0,0,1,6,.18,4.78,4.78,0,0,1,2.87,3.92,4.29,4.29,0,0,1-.39,1.77,11.58,11.58,0,0,1,6.59,3.46c1.33,1.42,2.45,3.78,1.27,5.77a4.54,4.54,0,0,1-2.47,1.86,4.48,4.48,0,0,1,.27,2,5.13,5.13,0,0,1-1.87,3.54A6,6,0,0,1,227.09,109.81Zm-7-6.66a1,1,0,0,1,.83.45,9.92,9.92,0,0,0,4,3.72,4.68,4.68,0,0,0,4.71-.31,3.09,3.09,0,0,0,1.12-2.14,2.3,2.3,0,0,0-.52-1.77,1,1,0,0,1-.21-.95,1,1,0,0,1,.69-.68,4.16,4.16,0,0,0,2.51-1.35c.57-1-.12-2.43-1-3.38a9.49,9.49,0,0,0-6.76-3,1,1,0,0,1-.87-.51,1,1,0,0,1,0-1,4.2,4.2,0,0,0,.86-2.08c0-1-1-1.76-1.77-2.16a4.9,4.9,0,0,0-4.2-.17,3.3,3.3,0,0,0-1.88,3.24h0a1,1,0,0,1-2,.29h0c-.07-.5-1-1-1.6-1s-.8.3-1.18,1.33c-.1.27-.2.54-.32.81-1.09,2.38-.8,3.29,1.46,4.62a1,1,0,0,1,.48,1,1,1,0,0,1-.81.81c-1.67.31-2.54.77-2.73,1.45s.55,1.7,1.36,2.24a7.71,7.71,0,0,0,7.4.55A.9.9,0,0,1,220.08,103.15Z" fill="#093f68"/></g></svg>