<svg id="_40_surfing_outline" data-name="#40_surfing_outline" xmlns="http://www.w3.org/2000/svg" viewBox="0 0 400 300"><path d="M192.54,123.61c-2.63-3-5.72-5.21-9.09-5.21H168.17c-5.86,0-15.33,8.38-21.15,20.35-7.16,14.75-10.89,45.44-8.65,47.34s4.26,2.23,6,1.23.86-7.71.86-7.71,2.23,3.8,3.23,4.24,1.23-1,1.12-3.38a61.73,61.73,0,0,0-1.12-7.1c0-.12,2.83-16.31,9.2-29.42a43,43,0,0,1,2.15-3.9l-2,18.11h33.9v-19c8,6,19.28,13.05,30.11,15.29l2.4-11.64C211.34,140.15,195.16,126.58,192.54,123.61Z" fill="#ffc9b0"/><path d="M142.37,188.87a7.22,7.22,0,0,1-4.65-2c-2.19-1.86-.2-15.6.46-19.77.88-5.55,3.42-19.45,7.94-28.76,5.7-11.73,15.38-20.92,22-20.92h15.28c3.26,0,6.57,1.87,9.83,5.55,2.3,2.59,18.34,16.23,31.19,18.89a1,1,0,0,1,.64.43,1,1,0,0,1,.14.75l-2.4,11.64a1,1,0,0,1-1.18.78c-10.42-2.15-21.21-8.73-28.91-14.3v17a1,1,0,0,1-1,1h-33.9a1,1,0,0,1-.75-.33,1,1,0,0,1-.25-.78l1.44-13c-5.72,12.09-8.45,26.53-8.77,28.31a59.77,59.77,0,0,1,1.1,7.07c.12,2.52-.15,3.71-.94,4.25a1.53,1.53,0,0,1-1.58.1,5.05,5.05,0,0,1-1.57-1.47c0,2.08-.38,4.18-1.63,4.89A5.16,5.16,0,0,1,142.37,188.87Zm25.8-69.47c-5.11,0-14.31,7.57-20.25,19.79-7.11,14.64-10.46,43.71-8.85,46.2,1.79,1.51,3.4,1.88,4.86,1.06.54-.31.82-3.31.36-6.7a1,1,0,0,1,1.85-.64,25.41,25.41,0,0,0,2.45,3.53,12.33,12.33,0,0,0,0-2.12,65.47,65.47,0,0,0-1.09-6.94,1,1,0,0,1,0-.38c0-.16,2.82-16.39,9.28-29.69a45.32,45.32,0,0,1,2.19-4,1,1,0,0,1,1.85.63l-1.88,17h31.79v-18a1,1,0,0,1,.55-.9,1,1,0,0,1,1.05.09c7.36,5.5,18.23,12.46,28.73,14.91l2-9.69c-13.33-3.24-28.9-16.59-31.3-19.3-2.87-3.24-5.68-4.88-8.34-4.88Z" fill="#093f68"/><path d="M159.86,141h-.13a1,1,0,0,1-.87-1.12l1.26-9.75a1,1,0,1,1,2,.26l-1.25,9.74A1,1,0,0,1,159.86,141Z" fill="#093f68"/><path d="M191.76,140.17a1,1,0,0,1-1-1l-.35-8a1,1,0,1,1,2-.09l.35,8a1,1,0,0,1-1,1Z" fill="#093f68"/><path d="M140.55,242.47,140,242a4,4,0,0,1,.83-6.69l7.51-3.73,10.4-54.38L170.24,180,159.4,236.18a6,6,0,0,1-3.91,4.23l-11.32,2.9A4.06,4.06,0,0,1,140.55,242.47Z" fill="#ffc9b0"/><path d="M143.17,244.43a5,5,0,0,1-3.27-1.2l-.58-.5a5,5,0,0,1,1-8.35l7.08-3.5L157.71,177a1,1,0,0,1,.45-.65,1,1,0,0,1,.77-.13L170.48,179a1,1,0,0,1,.74,1.16l-10.83,56.17a6.93,6.93,0,0,1-4.59,5l-11.38,2.92A5.28,5.28,0,0,1,143.17,244.43Zm16.31-66-10.19,53.35a1,1,0,0,1-.54.71l-7.52,3.72a3,3,0,0,0-.62,5l.59.5h0a3,3,0,0,0,2.72.63l11.32-2.9a4.89,4.89,0,0,0,3.19-3.5l10.64-55.18Z" fill="#093f68"/><path d="M184.81,240.7a5.94,5.94,0,0,1-5.94-5.94V180.47h11.89v50.35s4.26,1.75,9.87,4.39c5.35,2.51,1.75,5.49-1.71,5.49Z" fill="#ffc9b0"/><path d="M198.92,241.7H184.81a7,7,0,0,1-6.94-6.94V180.47a1,1,0,0,1,1-1h11.89a1,1,0,0,1,1,1v49.68c1.38.59,5,2.11,9.3,4.15,3.29,1.55,3.44,3.33,3.23,4.25C203.85,240.52,201.22,241.7,198.92,241.7Zm-19-60.23v53.29a4.94,4.94,0,0,0,4.94,4.94h14.11c1.73,0,3.26-.85,3.42-1.58.1-.44-.41-1.2-2.13-2-5.53-2.6-9.79-4.35-9.83-4.37a1,1,0,0,1-.62-.92V181.47Z" fill="#093f68"/><path d="M168,66.32H179.9A15.68,15.68,0,0,1,195.58,82V99.92a0,0,0,0,1,0,0H152.37a0,0,0,0,1,0,0V82A15.68,15.68,0,0,1,168,66.32Z" fill="#725858"/><path d="M195.58,100.92H152.37a1,1,0,0,1-1-1V82a16.7,16.7,0,0,1,16.68-16.68H179.9A16.7,16.7,0,0,1,196.58,82V99.92A1,1,0,0,1,195.58,100.92Zm-42.21-2h41.21V82A14.69,14.69,0,0,0,179.9,67.32H168.05A14.69,14.69,0,0,0,153.37,82Z" fill="#093f68"/><path d="M171.09,120.42v-3.6h6.25v3.6" fill="#ffc9b0"/><path d="M177.34,121.42a1,1,0,0,1-1-1v-2.6h-4.25v2.6a1,1,0,0,1-2,0v-3.6a1,1,0,0,1,1-1h6.25a1,1,0,0,1,1,1v3.6A1,1,0,0,1,177.34,121.42Z" fill="#093f68"/><ellipse cx="156.35" cy="100.58" rx="6.07" ry="5.23" fill="#ffc9b0"/><path d="M156.35,106.81c-3.9,0-7.08-2.79-7.08-6.23s3.18-6.24,7.08-6.24,7.07,2.8,7.07,6.24S160.25,106.81,156.35,106.81Zm0-10.47c-2.8,0-5.08,1.9-5.08,4.24s2.28,4.23,5.08,4.23,5.07-1.9,5.07-4.23S159.14,96.34,156.35,96.34Z" fill="#093f68"/><ellipse cx="191.76" cy="100.58" rx="6.07" ry="5.23" fill="#ffc9b0"/><path d="M191.76,106.81c-3.9,0-7.07-2.79-7.07-6.23s3.17-6.24,7.07-6.24,7.07,2.8,7.07,6.24S195.66,106.81,191.76,106.81Zm0-10.47c-2.8,0-5.07,1.9-5.07,4.24s2.27,4.23,5.07,4.23,5.07-1.9,5.07-4.23S194.56,96.34,191.76,96.34Z" fill="#093f68"/><path d="M174.21,117.64h0a18.32,18.32,0,0,1-18.32-18.32v-17s9,3.72,13.24,3l-1.6-6.1c18.16,7.14,25,3.07,25,3.07v17A18.33,18.33,0,0,1,174.21,117.64Z" fill="#ffc9b0"/><path d="M174.21,118.64a19.35,19.35,0,0,1-19.32-19.32v-17a1,1,0,0,1,.45-.83,1,1,0,0,1,.93-.09c2.19.9,8.08,3,11.58,3l-1.29-4.93a1,1,0,0,1,.31-1,1,1,0,0,1,1-.19C185.39,85.23,192,81.53,192,81.49a1,1,0,0,1,1.51.86v17A19.35,19.35,0,0,1,174.21,118.64ZM156.89,83.81V99.32a17.33,17.33,0,0,0,34.65,0V83.82c-2.83.84-9.81,1.78-22.55-2.91l1.11,4.22a1,1,0,0,1-.13.8,1.05,1.05,0,0,1-.68.44C165.85,86.93,159.65,84.84,156.89,83.81Z" fill="#093f68"/><circle cx="165.73" cy="96.65" r="1.7" fill="#093f68"/><circle cx="183.23" cy="96.65" r="1.7" fill="#093f68"/><path d="M174.12,103.36a10.65,10.65,0,0,1-1.73-.15,1,1,0,1,1,.35-2,8.27,8.27,0,0,0,1.94.09,15.47,15.47,0,0,0-1.35-3.39A1,1,0,0,1,175.1,97c1,1.82,2,4.24,1.45,5.4a1.39,1.39,0,0,1-.93.79A6.32,6.32,0,0,1,174.12,103.36Z" fill="#093f68"/><path d="M169.2,92.89h0l-8.09-.11a2,2,0,0,1,0-4h0l8.09.11a2,2,0,0,1,0,4Z" fill="#093f68"/><path d="M180.73,93a2,2,0,0,1-.09-4l8.08-.39a2,2,0,0,1,.19,4l-8.08.39Z" fill="#093f68"/><path d="M174.2,108.73a14.14,14.14,0,0,1-9.93-4.09,1,1,0,1,1,1.49-1.33h0c.24.26,5.94,6.41,15.32,1.61a1,1,0,0,1,.91,1.78A16.91,16.91,0,0,1,174.2,108.73Z" fill="#093f68"/><polygon points="193.02 189.99 175.87 189.99 174.92 176.53 171.63 189.99 152.79 189.99 157.85 158.16 191.76 158.16 193.02 189.99" fill="#68e1fd"/><path d="M193,191H175.87a1,1,0,0,1-1-.93l-.5-7.08-1.77,7.25a1,1,0,0,1-1,.76H152.79a1,1,0,0,1-.76-.35,1,1,0,0,1-.23-.81L156.87,158a1,1,0,0,1,1-.84h33.9a1,1,0,0,1,1,1L194,190a1,1,0,0,1-.27.73A1,1,0,0,1,193,191Zm-16.22-2H192l-1.18-29.83H158.71L154,189h16.89l3.09-12.7a1,1,0,0,1,2,.17Z" fill="#093f68"/><path d="M268.28,136c0,2.93-.1,6.11-.27,9.48-.32,6-.89,12.58-1.62,19.4-.65,6.05-1.43,12.29-2.27,18.47-4.05,29.62-9.58,57.91-9.58,57.91H220.42s-5.53-28.29-9.58-57.91c-.84-6.18-1.63-12.42-2.27-18.47-.74-6.82-1.31-13.4-1.62-19.4-.18-3.37-.27-6.55-.27-9.48q0-5,.32-9.71c3.28-48.73,30.48-69.72,30.48-69.72s27.2,21,30.47,69.72Q268.28,131,268.28,136Z" fill="#68e1fd"/><path d="M254.54,242.26H220.42a1,1,0,0,1-1-.81c-.06-.28-5.59-28.65-9.59-58-.95-6.94-1.69-13-2.27-18.5-.79-7.25-1.33-13.79-1.63-19.45-.18-3.47-.27-6.68-.27-9.54,0-3.33.11-6.62.32-9.78C209.27,77.6,236.59,56,236.87,55.77a1,1,0,0,1,1.22,0c.28.22,27.6,21.83,30.86,70.45.22,3.16.33,6.45.33,9.78,0,2.86-.09,6.07-.27,9.53-.3,5.69-.85,12.23-1.63,19.46-.59,5.52-1.33,11.57-2.27,18.5-4,29.31-9.53,57.68-9.59,58A1,1,0,0,1,254.54,242.26Zm-33.3-2h32.47c.93-4.83,5.8-30.56,9.42-57,.94-6.91,1.68-12.94,2.26-18.44.78-7.2,1.32-13.7,1.62-19.35.18-3.43.27-6.6.27-9.43,0-3.28-.11-6.52-.32-9.64-1.68-24.91-9.77-42.35-16.26-52.58a72.77,72.77,0,0,0-13.22-15.91,72.48,72.48,0,0,0-13.22,15.91C217.76,84,209.67,101.45,208,126.36c-.21,3.11-.32,6.35-.32,9.64,0,2.83.09,6,.27,9.43.29,5.63.84,12.14,1.62,19.34.58,5.5,1.32,11.53,2.26,18.45C215.45,209.7,220.32,235.43,221.24,240.26Z" fill="#093f68"/><path d="M237.48,242.26a1,1,0,0,1-1-1V56.57a1,1,0,0,1,2,0V241.26A1,1,0,0,1,237.48,242.26Z" fill="#093f68"/><path d="M177.39,166.48a1,1,0,0,1-.88-.52L175,163.17,173.3,166a1,1,0,0,1-1.37.34,1,1,0,0,1-.35-1.37l2.57-4.31a1,1,0,0,1,.88-.49,1,1,0,0,1,.85.52l2.38,4.31a1,1,0,0,1-.39,1.36A.94.94,0,0,1,177.39,166.48Z" fill="#093f68"/><path d="M268.28,136c0,2.93-.1,6.11-.27,9.48L237.48,136V116.82L268,126.29Q268.28,131,268.28,136Z" fill="#ffbc0e"/><path d="M268,146.48a1,1,0,0,1-.3,0L237.18,137a1,1,0,0,1-.7-.95V116.82a1,1,0,0,1,1.3-.95l30.47,9.46a1,1,0,0,1,.7.89c.22,3.16.33,6.45.33,9.78,0,2.86-.09,6.07-.27,9.53a1,1,0,0,1-.43.77A1,1,0,0,1,268,146.48Zm-29.53-11.22,28.59,8.88c.14-2.93.21-5.67.21-8.14,0-3-.09-6.05-.28-9l-28.52-8.86Z" fill="#093f68"/><path d="M237.48,116.82V136L207,145.48c-.18-3.37-.27-6.55-.27-9.48q0-5,.32-9.71Z" fill="#ffbc0e"/><path d="M207,146.48a1,1,0,0,1-1-.95c-.18-3.46-.27-6.67-.27-9.53,0-3.33.11-6.62.32-9.78a1,1,0,0,1,.71-.89l30.47-9.46a1,1,0,0,1,1.3.95V136a1,1,0,0,1-.7.95l-30.54,9.49A.92.92,0,0,1,207,146.48ZM208,127c-.19,2.9-.28,5.91-.28,9,0,2.47.07,5.21.2,8.14l28.6-8.88V118.18Z" fill="#093f68"/><path d="M266.39,164.88c-.65,6.05-1.43,12.29-2.27,18.47l-26.64-8.27V155.9Z" fill="#f56132"/><path d="M264.12,184.35a1,1,0,0,1-.3,0L237.18,176a1,1,0,0,1-.7-.95V155.9a1,1,0,0,1,1.3-1l28.9,9a1,1,0,0,1,.7,1.06c-.59,5.52-1.33,11.57-2.27,18.5a1,1,0,0,1-.45.71A1,1,0,0,1,264.12,184.35Zm-25.64-10,24.81,7.71c.82-6.09,1.48-11.49,2-16.46l-26.82-8.33Z" fill="#093f68"/><path d="M237.48,155.9v19.18l-26.64,8.27c-.84-6.18-1.63-12.42-2.27-18.47Z" fill="#f56132"/><path d="M210.84,184.35a1,1,0,0,1-.54-.15,1,1,0,0,1-.45-.71c-.95-6.94-1.69-13-2.27-18.5a1,1,0,0,1,.69-1.06l28.91-9a1,1,0,0,1,1.3,1v19.18a1,1,0,0,1-.7.95l-26.65,8.28A.92.92,0,0,1,210.84,184.35Zm-1.19-18.76c.54,5,1.2,10.36,2,16.46l24.81-7.71V157.26Z" fill="#093f68"/></svg>