<svg xmlns="http://www.w3.org/2000/svg" viewBox="0 0 400 300"><g id="_432_sushi_roll_outline" data-name="#432_sushi_roll_outline"><path d="M178.27,66.18c-22.87,0-41.41,9.13-41.41,20.4V145c0,11.27,18.54,20.4,41.41,20.4s41.41-9.13,41.41-20.4V86.58C219.68,75.31,201.14,66.18,178.27,66.18Z" fill="#68e1fd"/><path d="M178.27,166.36c-23.39,0-42.41-9.6-42.41-21.4V86.58c0-11.8,19-21.4,42.41-21.4s42.41,9.6,42.41,21.4V145C220.68,156.76,201.65,166.36,178.27,166.36Zm0-99.18c-22.28,0-40.41,8.7-40.41,19.4V145c0,10.7,18.13,19.4,40.41,19.4s40.41-8.7,40.41-19.4V86.58C218.68,75.88,200.55,67.18,178.27,67.18Z" fill="#093f68"/><ellipse cx="178.27" cy="86.58" rx="37.31" ry="16.42" fill="#fff"/><path d="M178.27,104C156.79,104,140,96.35,140,86.58s16.83-17.43,38.31-17.43,38.31,7.66,38.31,17.43S199.75,104,178.27,104Zm0-32.85c-19.68,0-36.31,7.07-36.31,15.43S158.59,102,178.27,102s36.31-7.06,36.31-15.42S198,71.15,178.27,71.15Z" fill="#093f68"/><ellipse cx="178.27" cy="86.58" rx="16.48" ry="7.25" fill="#70cc40"/><path d="M178.27,94.83c-9.8,0-17.48-3.62-17.48-8.25s7.68-8.26,17.48-8.26,17.48,3.63,17.48,8.26S188.07,94.83,178.27,94.83Zm0-14.51c-9.12,0-15.48,3.3-15.48,6.26s6.36,6.25,15.48,6.25,15.48-3.3,15.48-6.25S187.39,80.32,178.27,80.32Z" fill="#093f68"/><path d="M204.8,86.58a1,1,0,0,1-.61-.21l-4.76-3.66a1,1,0,1,1,1.22-1.58l4.76,3.66a1,1,0,0,1,.18,1.4A1,1,0,0,1,204.8,86.58Z" fill="#dfeaef"/><path d="M149.18,90.61a1,1,0,0,1-.71-.3,1,1,0,0,1,0-1.41l4-4a1,1,0,0,1,1.41,0,1,1,0,0,1,0,1.42l-4,4A1,1,0,0,1,149.18,90.61Z" fill="#dfeaef"/><path d="M166.56,77.62a.73.73,0,0,1-.25,0l-3.48-.91a1,1,0,0,1,.51-1.94l3.48.92a1,1,0,0,1-.26,2Z" fill="#dfeaef"/><path d="M190.89,97.92a1,1,0,0,1-.56-1.82l4.58-3.1a1,1,0,0,1,1.38.27,1,1,0,0,1-.26,1.39l-4.58,3.09A1,1,0,0,1,190.89,97.92Z" fill="#dfeaef"/><path d="M168.94,97.92h-5.86a1,1,0,0,1,0-2h5.86a1,1,0,0,1,0,2Z" fill="#dfeaef"/><path d="M187.42,75.24h-4.94a1,1,0,0,1,0-2h4.94a1,1,0,0,1,0,2Z" fill="#dfeaef"/><path d="M231.39,102.62c-22.87,0-41.41,9.14-41.41,20.4v58.39c0,11.26,18.54,20.4,41.41,20.4s41.41-9.14,41.41-20.4V123C272.8,111.76,254.26,102.62,231.39,102.62Z" fill="#68e1fd"/><path d="M231.39,202.81c-23.39,0-42.41-9.6-42.41-21.4V123c0-11.8,19-21.4,42.41-21.4s42.41,9.6,42.41,21.4v58.39C273.8,193.21,254.77,202.81,231.39,202.81Zm0-99.19c-22.28,0-40.41,8.71-40.41,19.4v58.39c0,10.69,18.13,19.4,40.41,19.4s40.41-8.71,40.41-19.4V123C271.8,112.33,253.67,103.62,231.39,103.62Z" fill="#093f68"/><ellipse cx="231.39" cy="123.02" rx="37.31" ry="16.42" fill="#fff"/><path d="M231.39,140.45c-21.48,0-38.31-7.66-38.31-17.43s16.83-17.42,38.31-17.42S269.7,113.25,269.7,123,252.87,140.45,231.39,140.45Zm0-32.85c-19.68,0-36.31,7.06-36.31,15.42s16.63,15.43,36.31,15.43S267.7,131.38,267.7,123,251.07,107.6,231.39,107.6Z" fill="#093f68"/><ellipse cx="231.39" cy="123.02" rx="16.48" ry="7.25" fill="#f56132"/><path d="M231.39,131.28c-9.8,0-17.48-3.63-17.48-8.26s7.68-8.25,17.48-8.25,17.48,3.62,17.48,8.25S241.19,131.28,231.39,131.28Zm0-14.51c-9.13,0-15.48,3.29-15.48,6.25s6.35,6.26,15.48,6.26,15.48-3.3,15.48-6.26S240.51,116.77,231.39,116.77Z" fill="#093f68"/><path d="M257.91,123a1,1,0,0,1-.6-.21l-4.76-3.66a1,1,0,1,1,1.22-1.58l4.75,3.66a1,1,0,0,1,.19,1.4A1,1,0,0,1,257.91,123Z" fill="#dfeaef"/><path d="M202.3,127.05a1,1,0,0,1-.71-.29,1,1,0,0,1,0-1.41l4-4a1,1,0,0,1,1.41,0,1,1,0,0,1,0,1.42l-4,4A1,1,0,0,1,202.3,127.05Z" fill="#dfeaef"/><path d="M219.68,114.06l-.26,0-3.47-.91a1,1,0,0,1-.71-1.23,1,1,0,0,1,1.22-.71l3.47.92a1,1,0,0,1-.25,2Z" fill="#dfeaef"/><path d="M244,134.37a1,1,0,0,1-.56-1.83l4.57-3.09a1,1,0,0,1,1.13,1.66l-4.58,3.09A1,1,0,0,1,244,134.37Z" fill="#dfeaef"/><path d="M222.06,134.37H216.2a1,1,0,0,1,0-2h5.86a1,1,0,0,1,0,2Z" fill="#dfeaef"/><path d="M240.54,111.69H235.6a1,1,0,1,1,0-2h4.94a1,1,0,1,1,0,2Z" fill="#dfeaef"/><path d="M164.82,134.64c-22.87,0-41.41,9.13-41.41,20.4v58.38c0,11.27,18.54,20.4,41.41,20.4s41.41-9.13,41.41-20.4V155C206.23,143.77,187.69,134.64,164.82,134.64Z" fill="#68e1fd"/><path d="M164.82,234.82c-23.38,0-42.41-9.6-42.41-21.4V155c0-11.8,19-21.4,42.41-21.4s42.41,9.6,42.41,21.4v58.38C207.23,225.22,188.21,234.82,164.82,234.82Zm0-99.18c-22.28,0-40.41,8.7-40.41,19.4v58.38c0,10.7,18.13,19.4,40.41,19.4s40.41-8.7,40.41-19.4V155C205.23,144.34,187.1,135.64,164.82,135.64Z" fill="#093f68"/><ellipse cx="164.82" cy="155.04" rx="37.31" ry="16.42" fill="#fff"/><path d="M164.82,172.46c-21.48,0-38.31-7.65-38.31-17.42s16.83-17.42,38.31-17.42,38.31,7.65,38.31,17.42S186.3,172.46,164.82,172.46Zm0-32.84c-19.68,0-36.31,7.06-36.31,15.42s16.63,15.42,36.31,15.42,36.31-7.06,36.31-15.42S184.5,139.62,164.82,139.62Z" fill="#093f68"/><ellipse cx="164.82" cy="155.04" rx="16.48" ry="7.25" fill="#ffbc0e"/><path d="M164.82,163.29c-9.8,0-17.48-3.62-17.48-8.25s7.68-8.26,17.48-8.26,17.48,3.63,17.48,8.26S174.63,163.29,164.82,163.29Zm0-14.51c-9.12,0-15.48,3.3-15.48,6.26s6.36,6.25,15.48,6.25S180.3,158,180.3,155,174,148.78,164.82,148.78Z" fill="#093f68"/><path d="M191.35,155a1,1,0,0,1-.61-.2L186,151.18a1,1,0,0,1,1.22-1.59l4.76,3.66a1,1,0,0,1,.18,1.4A1,1,0,0,1,191.35,155Z" fill="#dfeaef"/><path d="M135.73,159.07a1,1,0,0,1-.7-1.71l4-4a1,1,0,0,1,1.42,0,1,1,0,0,1,0,1.41l-4,4A1,1,0,0,1,135.73,159.07Z" fill="#dfeaef"/><path d="M153.12,146.08a1.15,1.15,0,0,1-.26,0l-3.48-.92a1,1,0,0,1,.51-1.93l3.48.91a1,1,0,0,1-.25,2Z" fill="#dfeaef"/><path d="M177.45,166.39a1,1,0,0,1-.83-.44,1,1,0,0,1,.27-1.39l4.57-3.09a1,1,0,1,1,1.12,1.65l-4.57,3.1A1.07,1.07,0,0,1,177.45,166.39Z" fill="#dfeaef"/><path d="M155.49,166.39h-5.85a1,1,0,0,1,0-2h5.85a1,1,0,0,1,0,2Z" fill="#dfeaef"/><path d="M174,143.7H169a1,1,0,0,1,0-2H174a1,1,0,0,1,0,2Z" fill="#dfeaef"/></g></svg>