<svg xmlns="http://www.w3.org/2000/svg" viewBox="0 0 400 300"><g id="_548_swimming_suit_outline" data-name="#548_swimming_suit_outline"><path d="M247.45,202.94s-31,.53-41.11,23.31H193.66a35,35,0,0,0-15.61-16.41,53.62,53.62,0,0,0-11-4.48l-1.06-.29-.91-.24c-.9-.23-1.78-.43-2.62-.6a58,58,0,0,0-9.94-1.29v-.25c-.45-20.55,13-26.83,17.74-40.05a19.66,19.66,0,0,0,.63-8.16c0-.07,0-.14,0-.22a59.07,59.07,0,0,0-1.47-8.29c-.33-1.41-.72-2.84-1.13-4.28C163.94,126.48,155.93,110,155.93,110c11.91-8.1,14.84-21,15.55-27.31a32.86,32.86,0,0,0,7.38,8.87,32.51,32.51,0,0,0,7.39,4.7,31.61,31.61,0,0,0,3.93,1.52,32.37,32.37,0,0,0,6.42,1.33h0c1.11.11,2.24.17,3.39.17a32.78,32.78,0,0,0,28.52-16.59c.71,6.36,3.64,19.21,15.55,27.31,0,0-8,16.45-12.37,31.66a70.82,70.82,0,0,0-2.62,12.79,19.66,19.66,0,0,0,.63,8.16C234.5,175.91,248,182.19,247.45,202.94Z" fill="#68e1fd"/><path d="M206.34,227.25H193.66a1,1,0,0,1-.91-.59c-3-6.66-8.07-12-15.18-15.94a52.39,52.39,0,0,0-10.77-4.4l-1-.28-.92-.24c-.83-.22-1.7-.42-2.56-.59a58.27,58.27,0,0,0-9.76-1.27,1,1,0,0,1-1-1v-.25c-.29-13.45,5.17-20.87,10.45-28.05,2.92-4,5.68-7.71,7.35-12.34a18.66,18.66,0,0,0,.57-7.73.85.85,0,0,0,0-.13,57.59,57.59,0,0,0-1.45-8.23c-.36-1.54-.79-3.08-1.12-4.25C163.05,127,155.11,110.63,155,110.47a1,1,0,0,1,.34-1.27c11.44-7.78,14.38-20,15.12-26.59a1,1,0,0,1,1.86-.38,31.69,31.69,0,0,0,14.32,13.15,29.59,29.59,0,0,0,3.81,1.47,31.11,31.11,0,0,0,6.19,1.29h0c1.1.11,2.21.17,3.29.17a31.88,31.88,0,0,0,27.65-16.08,1,1,0,0,1,1.07-.49,1,1,0,0,1,.79.87c.74,6.59,3.68,18.81,15.12,26.59a1,1,0,0,1,.34,1.27c-.08.16-8,16.55-12.31,31.5a68.9,68.9,0,0,0-2.58,12.6,18.66,18.66,0,0,0,.57,7.73c1.67,4.63,4.43,8.38,7.35,12.34,5.32,7.22,10.82,14.69,10.45,28.33a1,1,0,0,1-1,1c-.31,0-30.46.79-40.22,22.72A1,1,0,0,1,206.34,227.25Zm-12-2h11.4c9.49-20.26,35.42-22.93,40.77-23.26.07-12.37-5.09-19.38-10.08-26.16-2.88-3.91-5.85-8-7.62-12.85a20.48,20.48,0,0,1-.69-8.59,71.34,71.34,0,0,1,2.66-13c3.8-13.26,10.43-27.61,12.06-31-10.1-7.24-13.65-17.74-14.88-24.8a33.93,33.93,0,0,1-31.41,14.56,33.67,33.67,0,0,1-18.29-7.78,33.75,33.75,0,0,1-6.14-6.78c-1.23,7.06-4.78,17.56-14.88,24.8,1.63,3.44,8.26,17.79,12.06,31,.34,1.19.78,2.75,1.14,4.32a61.21,61.21,0,0,1,1.5,8.43.72.72,0,0,0,0,.13,20.6,20.6,0,0,1-.68,8.68c-1.77,4.91-4.74,8.94-7.62,12.85-5,6.78-10.15,13.79-10.07,26.15a63.52,63.52,0,0,1,9.16,1.27c.88.18,1.78.39,2.66.61l.92.24,1.08.3A54.93,54.93,0,0,1,178.53,209,36,36,0,0,1,194.3,225.25Zm53.15-22.31h0Z" fill="#093f68"/><path d="M200,100.31l-1.19,0-1-.05-.88-.07-.57-.06h-.06c-.27,0-.53-.06-.8-.1-.48-.06-.86-.11-1.25-.19s-.52-.08-.74-.13l-.29-.06-.54-.12-.13,0-.18,0c-.41-.09-.92-.22-1.41-.35-.69-.2-1.39-.41-2.08-.66-.38-.13-.75-.26-1.11-.41s-.6-.23-.89-.36l.25-1-.39.92c-.37-.16-.71-.3-1-.47s-.66-.31-1-.48a31,31,0,0,1-3.07-1.77c-.23-.14-.48-.3-.72-.48s-.49-.34-.75-.53l-.11-.07-.83-.64-.07-.05h0c-.29-.22-.58-.46-.85-.7s-.77-.66-1.17-1l-.22-.21-.44-.41-.58-.58c-.46-.46-1-1-1.44-1.55l-.05-.07c-.23-.26-.46-.54-.69-.82-.44-.56-.89-1.15-1.31-1.74q-.31-.45-.63-.93c-.17-.24-.35-.52-.52-.81l-.06-.1a1.18,1.18,0,0,1-.11-.19l-.44-.72A34.16,34.16,0,0,1,167,74a1,1,0,1,1,2-.44,31.79,31.79,0,0,0,3.37,8.71l.5.84a1.18,1.18,0,0,1,.11.19l.46.7c.2.32.39.59.59.86.41.58.82,1.13,1.25,1.67.21.27.43.52.65.77l.06.08c.47.53.91,1,1.34,1.43.18.2.36.38.54.55l.4.38.18.16c.39.36.77.7,1.15,1s.48.41.72.6l.08,0c.27.22.53.42.8.62l.08.06c.28.2.52.37.77.53s.43.31.64.44a32.81,32.81,0,0,0,2.93,1.69c.31.16.6.3.89.43s.66.31,1,.44l.12.05c.32.14.6.25.87.35s.72.27,1.07.4c.63.22,1.28.42,1.94.61.46.12.93.25,1.41.35l.17,0h0c.19,0,.34.08.5.1l.32.07.59.11.12,0c.35.07.69.11,1,.16h.1c.24,0,.46.07.7.09h.14a3.71,3.71,0,0,0,.48,0c.32,0,.58,0,.85.07l1,.05c.76,0,1.5,0,2.26,0l1-.05.78-.06c.22,0,.39,0,.54-.06h.16l.68-.09c.45-.06.79-.1,1.14-.17l.12,0,.6-.11.27-.06.5-.1.16,0h.07c.49-.11,1-.24,1.43-.37.65-.18,1.3-.38,1.94-.6l1.05-.39c.28-.11.56-.22.82-.34l.17-.07c.31-.13.61-.26.9-.4l.94-.46a30.65,30.65,0,0,0,2.92-1.69,6.26,6.26,0,0,0,.63-.42l.77-.53a1.25,1.25,0,0,1,.2-.14l.72-.57.08,0,.7-.58c.41-.34.8-.69,1.19-1l.16-.15c.13-.12.26-.24.38-.37a6.87,6.87,0,0,0,.54-.54c.47-.47.92-1,1.36-1.46l.06-.07c.22-.25.44-.5.64-.77.44-.54.85-1.09,1.25-1.66.21-.28.4-.55.58-.84s.34-.51.49-.76l.1-.17s.06-.09.06-.09l.45-.76A32,32,0,0,0,231,73.53a1,1,0,0,1,2,.44,33.89,33.89,0,0,1-3.59,9.25l-.46.78-.1.16a.53.53,0,0,1-.06.1c-.17.29-.35.57-.55.85s-.39.59-.61.9c-.42.58-.86,1.17-1.31,1.74-.22.27-.45.55-.69.82l-.09.11c-.43.5-.92,1-1.41,1.52l-.58.58-.41.39-.17.16c-.43.39-.84.75-1.25,1.09-.25.22-.54.46-.83.68h0l-.07.05c-.26.21-.52.41-.79.6l-.21.16-.73.51c-.2.15-.45.31-.7.47a32.39,32.39,0,0,1-3.07,1.76l-.94.47c-.35.17-.68.31-1,.46l-.5-.88.4.92-.1,0-.88.36c-.35.14-.72.27-1.09.4-.7.25-1.4.46-2.08.65-.5.14-1,.27-1.51.39l-.24.05-.56.12-.24.05c-.23,0-.46.08-.69.12-.45.09-.83.14-1.22.19s-.62.09-.89.11h-.07a6.2,6.2,0,0,1-.62.06c-.22,0-.52,0-.81.07l-1.05.05Z" fill="#093f68"/><path d="M183.06,125.78a1,1,0,0,1-.78-.39c-.19-.23-4.48-5.79-4.48-9.91,0-5.52,4-5.52,5.26-5.52s5.27,0,5.27,5.52c0,4.12-4.29,9.68-4.48,9.91A1,1,0,0,1,183.06,125.78Zm0-13.82c-2.11,0-3.26.56-3.26,3.52,0,2.32,1.94,5.65,3.26,7.59,1.33-1.94,3.27-5.27,3.27-7.59C186.33,112.52,185.18,112,183.06,112Z" fill="#093f68"/><path d="M183.06,140.55c-1.3,0-5.26,0-5.26-5.52,0-4.11,4.29-9.68,4.48-9.91a1,1,0,0,1,1.57,0c.19.23,4.48,5.8,4.48,9.91C188.33,140.55,184.37,140.55,183.06,140.55Zm0-13.11c-1.32,1.94-3.26,5.27-3.26,7.59,0,3,1.15,3.52,3.26,3.52s3.27-.56,3.27-3.52C186.33,132.71,184.39,129.38,183.06,127.44Z" fill="#093f68"/><path d="M192.83,130.52c-4.11,0-9.67-4.29-9.9-4.48a1,1,0,0,1,0-1.57c.23-.19,5.79-4.48,9.9-4.48,5.53,0,5.53,4,5.53,5.26S198.36,130.52,192.83,130.52Zm-7.58-5.27c1.94,1.33,5.27,3.27,7.58,3.27,3,0,3.53-1.15,3.53-3.27s-.56-3.26-3.53-3.26C190.52,122,187.19,123.92,185.25,125.25Z" fill="#093f68"/><path d="M173.29,130.52c-5.52,0-5.52-4-5.52-5.27s0-5.26,5.52-5.26c4.12,0,9.68,4.29,9.91,4.48a1,1,0,0,1,0,1.57C183,126.23,177.41,130.52,173.29,130.52Zm0-8.53c-3,0-3.52,1.15-3.52,3.26s.56,3.27,3.52,3.27c2.32,0,5.65-1.94,7.59-3.27C178.94,123.92,175.61,122,173.29,122Z" fill="#093f68"/><path d="M193.09,107.93c-1.3,0-5.26,0-5.26-5.52a11.89,11.89,0,0,1,1.45-5,1,1,0,0,1,1.2-.5,31.8,31.8,0,0,0,6.22,1.28,1,1,0,0,1,.84.62,10,10,0,0,1,.82,3.65C198.36,107.36,195.35,107.93,193.09,107.93ZM190.72,99a8.93,8.93,0,0,0-.89,3.39c0,3,1.15,3.52,3.26,3.52s3.27-.56,3.27-3.52a7.23,7.23,0,0,0-.47-2.34A34.83,34.83,0,0,1,190.72,99Z" fill="#093f68"/><path d="M183.32,97.91c-5.52,0-5.52-4-5.52-5.27a8.76,8.76,0,0,1,.07-1.17,1,1,0,0,1,1.63-.64,31.61,31.61,0,0,0,7.17,4.55,1,1,0,0,1,.58,1,1,1,0,0,1-.66.9A9.55,9.55,0,0,1,183.32,97.91Zm-3.46-4.25c.21,1.46,1,2.25,3.45,2.25A35.16,35.16,0,0,1,179.86,93.66Z" fill="#093f68"/><path d="M209.4,148.4a1,1,0,0,1-.79-.39c-.18-.23-4.47-5.79-4.47-9.9,0-5.52,4-5.52,5.26-5.52s5.27,0,5.27,5.52c0,4.11-4.3,9.67-4.48,9.9A1,1,0,0,1,209.4,148.4Zm0-13.81c-2.12,0-3.26.56-3.26,3.52,0,2.31,1.93,5.64,3.26,7.59,1.33-1.95,3.27-5.28,3.27-7.59C212.67,135.15,211.52,134.59,209.4,134.59Z" fill="#093f68"/><path d="M209.4,163.17c-1.3,0-5.26,0-5.26-5.52,0-4.11,4.29-9.67,4.47-9.91a1,1,0,0,1,.79-.38h0a1,1,0,0,1,.79.38c.18.24,4.48,5.8,4.48,9.91C214.67,163.17,210.7,163.17,209.4,163.17Zm0-13.11c-1.33,1.95-3.26,5.28-3.26,7.59,0,3,1.14,3.52,3.26,3.52s3.27-.56,3.27-3.52C212.67,155.34,210.73,152,209.4,150.06Z" fill="#093f68"/><path d="M219.17,153.14c-4.11,0-9.67-4.29-9.9-4.47a1,1,0,0,1,0-1.58c.23-.18,5.79-4.48,9.9-4.48,5.52,0,5.52,4,5.52,5.27S224.69,153.14,219.17,153.14Zm-7.59-5.26c1.95,1.33,5.28,3.26,7.59,3.26,3,0,3.52-1.14,3.52-3.26s-.56-3.27-3.52-3.27C216.86,144.61,213.53,146.55,211.58,147.88Z" fill="#093f68"/><path d="M199.63,153.14c-5.52,0-5.52-4-5.52-5.26s0-5.27,5.52-5.27c4.11,0,9.67,4.3,9.91,4.48a1,1,0,0,1,0,1.58C209.3,148.85,203.74,153.14,199.63,153.14Zm0-8.53c-3,0-3.52,1.15-3.52,3.27s.56,3.26,3.52,3.26c2.31,0,5.64-1.93,7.59-3.26C205.27,146.55,201.94,144.61,199.63,144.61Z" fill="#093f68"/><path d="M222,114.12h0a1,1,0,0,1-.79-.38c-.18-.24-4.48-5.8-4.48-9.91,0-5.52,4-5.52,5.27-5.52s5.26,0,5.26,5.52c0,4.11-4.29,9.67-4.47,9.91A1,1,0,0,1,222,114.12Zm0-13.81c-2.12,0-3.27.56-3.27,3.52,0,2.31,1.94,5.65,3.27,7.59,1.33-1.94,3.26-5.28,3.26-7.59C225.26,100.87,224.12,100.31,222,100.31Z" fill="#093f68"/><path d="M222,128.9c-1.3,0-5.27,0-5.27-5.53,0-4.11,4.3-9.67,4.48-9.9a1,1,0,0,1,1.58,0c.18.23,4.47,5.79,4.47,9.9C227.26,128.9,223.3,128.9,222,128.9Zm0-13.11c-1.33,1.94-3.27,5.27-3.27,7.58,0,3,1.15,3.53,3.27,3.53s3.26-.57,3.26-3.53C225.26,121.06,223.33,117.73,222,115.79Z" fill="#093f68"/><path d="M231.77,118.87c-4.11,0-9.67-4.29-9.91-4.48a1,1,0,0,1,0-1.58c.24-.18,5.8-4.47,9.91-4.47,5.52,0,5.52,4,5.52,5.26S237.29,118.87,231.77,118.87Zm-7.59-5.27c1.94,1.33,5.28,3.27,7.59,3.27,3,0,3.52-1.15,3.52-3.27s-.56-3.26-3.52-3.26C229.46,110.34,226.12,112.27,224.18,113.6Z" fill="#093f68"/><path d="M212.23,118.87c-5.53,0-5.53-4-5.53-5.27s0-5.26,5.53-5.26c4.11,0,9.67,4.29,9.9,4.47a1,1,0,0,1,0,1.58C221.9,114.58,216.34,118.87,212.23,118.87Zm0-8.53c-3,0-3.53,1.15-3.53,3.26s.57,3.27,3.53,3.27c2.31,0,5.64-1.94,7.58-3.27C217.87,112.27,214.54,110.34,212.23,110.34Z" fill="#093f68"/><path d="M186.85,172.2a1,1,0,0,1-.79-.39c-.18-.23-4.47-5.79-4.47-9.9,0-5.52,4-5.52,5.26-5.52s5.27,0,5.27,5.52c0,4.11-4.3,9.67-4.48,9.9A1,1,0,0,1,186.85,172.2Zm0-13.81c-2.12,0-3.26.56-3.26,3.52,0,2.31,1.93,5.64,3.26,7.59,1.33-1.95,3.27-5.28,3.27-7.59C190.12,159,189,158.39,186.85,158.39Z" fill="#093f68"/><path d="M186.85,187c-1.3,0-5.26,0-5.26-5.52,0-4.11,4.29-9.67,4.47-9.91a1,1,0,0,1,.79-.38h0a1,1,0,0,1,.79.38c.18.24,4.48,5.8,4.48,9.91C192.12,187,188.15,187,186.85,187Zm0-13.11c-1.33,1.95-3.26,5.28-3.26,7.59,0,3,1.14,3.52,3.26,3.52s3.27-.56,3.27-3.52C190.12,179.14,188.18,175.81,186.85,173.86Z" fill="#093f68"/><path d="M196.62,176.94c-4.11,0-9.67-4.29-9.9-4.47a1,1,0,0,1,0-1.58c.23-.18,5.79-4.48,9.9-4.48,5.52,0,5.52,4,5.52,5.27S202.14,176.94,196.62,176.94ZM189,171.68c1.95,1.33,5.28,3.26,7.59,3.26,3,0,3.52-1.14,3.52-3.26s-.56-3.27-3.52-3.27C194.31,168.41,191,170.35,189,171.68Z" fill="#093f68"/><path d="M177.08,176.94c-5.52,0-5.52-4-5.52-5.26s0-5.27,5.52-5.27c4.11,0,9.67,4.3,9.91,4.48a1,1,0,0,1,0,1.58C186.75,172.65,181.19,176.94,177.08,176.94Zm0-8.53c-3,0-3.52,1.15-3.52,3.27s.56,3.26,3.52,3.26c2.31,0,5.64-1.93,7.59-3.26C182.72,170.35,179.39,168.41,177.08,168.41Z" fill="#093f68"/><path d="M171.16,155.27a2.3,2.3,0,0,1-.37,0,1,1,0,0,1-.89-.9,57.18,57.18,0,0,0-1.44-8.14,1,1,0,0,1,.73-1.21,8.21,8.21,0,0,1,2-.27c5,0,5.52,3,5.52,5.27S176.11,155.27,171.16,155.27Zm-.52-8.51a60.7,60.7,0,0,1,1.16,6.49c2.4-.16,2.88-1.29,2.88-3.25,0-2.12-.56-3.27-3.52-3.27Z" fill="#093f68"/><path d="M198,205.05a1,1,0,0,1-.79-.38c-.18-.24-4.47-5.8-4.47-9.91,0-5.52,4-5.52,5.26-5.52s5.27,0,5.27,5.52c0,4.11-4.29,9.67-4.48,9.91A1,1,0,0,1,198,205.05Zm0-13.81c-2.11,0-3.26.56-3.26,3.52,0,2.31,1.93,5.64,3.26,7.59,1.33-1.95,3.27-5.28,3.27-7.59C201.23,191.8,200.08,191.24,198,191.24Z" fill="#093f68"/><path d="M198,219.82c-1.3,0-5.26,0-5.26-5.52,0-4.11,4.29-9.67,4.47-9.9a1,1,0,0,1,1.58,0c.19.23,4.48,5.79,4.48,9.9C203.23,219.82,199.27,219.82,198,219.82Zm0-13.11c-1.33,1.95-3.26,5.28-3.26,7.59,0,3,1.15,3.52,3.26,3.52s3.27-.56,3.27-3.52C201.23,212,199.29,208.66,198,206.71Z" fill="#093f68"/><path d="M207.73,209.8c-4.11,0-9.67-4.3-9.9-4.48a1,1,0,0,1,0-1.58c.23-.18,5.79-4.47,9.9-4.47,5.53,0,5.53,4,5.53,5.26S213.26,209.8,207.73,209.8Zm-7.58-5.27c1.94,1.33,5.27,3.27,7.58,3.27,3,0,3.53-1.15,3.53-3.27s-.56-3.26-3.53-3.26C205.42,201.27,202.09,203.2,200.15,204.53Z" fill="#093f68"/><path d="M188.19,209.8c-5.52,0-5.52-4-5.52-5.27s0-5.26,5.52-5.26c4.11,0,9.67,4.29,9.91,4.47a1,1,0,0,1,0,1.58C197.86,205.5,192.3,209.8,188.19,209.8Zm0-8.53c-3,0-3.52,1.14-3.52,3.26s.56,3.27,3.52,3.27c2.31,0,5.65-1.94,7.59-3.27C193.84,203.2,190.5,201.27,188.19,201.27Z" fill="#093f68"/><path d="M166,206.07a1,1,0,0,1-.59-.19l-.09-.08a1,1,0,0,1-1.05-.39c-1.17-1.66-3.9-5.85-3.9-9.14,0-5.52,4-5.52,5.26-5.52s5.27,0,5.27,5.52c0,3.36-2.86,7.68-4.09,9.39A1,1,0,0,1,166,206.07Zm-.37-13.32c-2.11,0-3.26.56-3.26,3.52,0,2.53,2.23,6.08,3.26,7.59,1.14-1.66,3.27-5.11,3.27-7.59C168.92,193.31,167.77,192.75,165.65,192.75Z" fill="#093f68"/><path d="M178.05,210.84a.91.91,0,0,1-.48-.13,53.28,53.28,0,0,0-10.77-4.39,1,1,0,0,1-.71-.8,1,1,0,0,1,.42-1c2-1.4,5.83-3.76,8.91-3.76,5,0,5.52,3,5.52,5.26,0,1.54-.26,3.7-2.48,4.71A1,1,0,0,1,178.05,210.84ZM169.41,205A52.81,52.81,0,0,1,178,208.7c.55-.4.9-1.11.9-2.66,0-2.12-.56-3.26-3.52-3.26A13.36,13.36,0,0,0,169.41,205Z" fill="#093f68"/><path d="M162.49,205.23l-.21,0a58.11,58.11,0,0,0-9.75-1.27,1,1,0,0,1-1-1v-.25a1,1,0,0,1,.36-.77,6,6,0,0,1,4-1.14c1.88,0,4.28.87,7.13,2.59a1,1,0,0,1-.52,1.86Z" fill="#093f68"/><path d="M222.48,186.49a1,1,0,0,1-.79-.38c-.19-.24-4.48-5.8-4.48-9.91,0-5.52,4-5.52,5.27-5.52s5.26,0,5.26,5.52c0,4.11-4.29,9.67-4.47,9.91A1,1,0,0,1,222.48,186.49Zm0-13.81c-2.12,0-3.27.56-3.27,3.52,0,2.31,1.94,5.64,3.27,7.59,1.33-1.95,3.26-5.28,3.26-7.59C225.74,173.24,224.59,172.68,222.48,172.68Z" fill="#093f68"/><path d="M222.48,201.27c-1.31,0-5.27,0-5.27-5.53,0-4.11,4.29-9.67,4.48-9.9a1,1,0,0,1,.79-.39h0a1,1,0,0,1,.79.39c.18.23,4.47,5.79,4.47,9.9C227.74,201.27,223.78,201.27,222.48,201.27Zm0-13.11c-1.33,1.94-3.27,5.27-3.27,7.58,0,3,1.15,3.53,3.27,3.53s3.26-.57,3.26-3.53C225.74,193.43,223.81,190.1,222.48,188.16Z" fill="#093f68"/><path d="M232.25,191.24c-4.11,0-9.67-4.3-9.91-4.48a1,1,0,0,1,0-1.58c.24-.18,5.8-4.47,9.91-4.47,5.52,0,5.52,4,5.52,5.26S237.77,191.24,232.25,191.24ZM224.66,186c1.94,1.33,5.28,3.27,7.59,3.27,3,0,3.52-1.15,3.52-3.27s-.56-3.26-3.52-3.26C229.94,182.71,226.6,184.64,224.66,186Z" fill="#093f68"/><path d="M212.71,191.24c-5.53,0-5.53-4-5.53-5.27s0-5.26,5.53-5.26c4.11,0,9.67,4.29,9.9,4.47a1,1,0,0,1,0,1.58C222.38,186.94,216.82,191.24,212.71,191.24Zm0-8.53c-3,0-3.53,1.14-3.53,3.26s.57,3.27,3.53,3.27c2.31,0,5.64-1.94,7.58-3.27C218.35,184.64,215,182.71,212.71,182.71Z" fill="#093f68"/></g></svg>