<svg xmlns="http://www.w3.org/2000/svg" viewBox="0 0 400 300"><g id="_305_taj_mahal_outline" data-name="#305_taj_mahal_outline"><path d="M292.93,150a92.55,92.55,0,0,1-8.87,39.68c-1.14,2.42-2.39,4.77-3.73,7.06h0q-1.81,3.12-3.87,6.07-1.44,2.09-3,4.08-2.62,3.39-5.56,6.52a92.85,92.85,0,0,1-135.82,0q-2.94-3.12-5.56-6.52-1.55-2-3-4.08-2.06-3-3.87-6.08c-1.34-2.29-2.59-4.64-3.73-7.06a92.94,92.94,0,1,1,177-39.68Z" fill="#fff"/><path d="M200,243.93a93.7,93.7,0,0,1-68.64-29.83c-1.92-2-3.82-4.26-5.62-6.59-1.07-1.38-2.08-2.76-3-4.12-1.37-2-2.68-4-3.91-6.15-1.39-2.37-2.66-4.77-3.77-7.13a93.93,93.93,0,1,1,169.92,0c-1.1,2.33-2.35,4.71-3.72,7.06a.56.56,0,0,1-.05.08c-1.2,2.08-2.52,4.14-3.91,6.14-.94,1.36-1.95,2.74-3,4.12-1.8,2.33-3.7,4.55-5.62,6.6A93.75,93.75,0,0,1,200,243.93Zm0-185.86A92,92,0,0,0,108.07,150a91.11,91.11,0,0,0,8.77,39.25c1.09,2.31,2.33,4.66,3.69,7,1.21,2.07,2.5,4.09,3.83,6,.92,1.33,1.92,2.69,3,4,1.77,2.28,3.62,4.45,5.5,6.44a91.86,91.86,0,0,0,134.36,0c1.88-2,3.73-4.17,5.5-6.45,1-1.35,2-2.71,3-4,1.34-1.93,2.61-3.93,3.78-5.93a.56.56,0,0,1,.05-.08c1.36-2.33,2.6-4.68,3.69-7A91.11,91.11,0,0,0,291.93,150,92,92,0,0,0,200,58.07Zm80.33,138.68h0Z" fill="#093f68"/><path d="M273.47,206.9q-2.62,3.39-5.56,6.52a92.85,92.85,0,0,1-135.82,0q-2.94-3.12-5.56-6.52Z" fill="#fff"/><path d="M200,243.93a93.8,93.8,0,0,1-68.64-29.83c-1.92-2-3.82-4.26-5.62-6.59a1,1,0,0,1-.11-1,1,1,0,0,1,.9-.56H273.47a1,1,0,0,1,.9.56,1,1,0,0,1-.11,1c-1.8,2.33-3.7,4.55-5.62,6.6A93.75,93.75,0,0,1,200,243.93Zm-71.4-36c1.37,1.69,2.78,3.31,4.22,4.83a91.86,91.86,0,0,0,134.36,0c1.43-1.53,2.85-3.15,4.22-4.84Z" fill="#093f68"/><rect x="138.23" y="131.76" width="123.54" height="57.92" fill="#68e1fd"/><path d="M261.77,190.68H138.23a1,1,0,0,1-1-1V131.76a1,1,0,0,1,1-1H261.77a1,1,0,0,1,1,1v57.92A1,1,0,0,1,261.77,190.68Zm-122.54-2H260.77V132.76H139.23Z" fill="#093f68"/><circle cx="200" cy="119.1" r="22.96" fill="#68e1fd"/><path d="M200,143.06a24,24,0,1,1,24-24A24,24,0,0,1,200,143.06Zm0-45.93a22,22,0,1,0,22,22A22,22,0,0,0,200,97.13Z" fill="#093f68"/><path d="M200,89.61c3.42,6.7,10.52,9,10.52,9h-21S195.35,96.8,200,89.61Z" fill="#68e1fd"/><path d="M210.52,99.58h-21a1,1,0,0,1-.29-2c.06,0,5.6-1.8,10-8.57a1,1,0,0,1,.89-.45,1,1,0,0,1,.84.54c3.18,6.23,9.87,8.46,9.93,8.48a1,1,0,0,1,.68,1.11A1,1,0,0,1,210.52,99.58Zm-16.9-2H206.2a19.75,19.75,0,0,1-6.28-6.1A24.49,24.49,0,0,1,193.62,97.58Z" fill="#093f68"/><path d="M200,154.52a1,1,0,0,1-1-1v-7.09a1,1,0,0,1,2,0v7.09A1,1,0,0,1,200,154.52Z" fill="#093f68"/><rect x="178.69" y="131.76" width="42.62" height="57.92" fill="#68e1fd"/><path d="M221.31,190.68H178.69a1,1,0,0,1-1-1V131.76a1,1,0,0,1,1-1h42.62a1,1,0,0,1,1,1v57.92A1,1,0,0,1,221.31,190.68Zm-41.62-2h40.62V132.76H179.69Z" fill="#093f68"/><path d="M199.77,151.43s10.55,3.8,10.62,10.93l.25,27-21,.19-.25-27C189.3,155.42,199.77,151.43,199.77,151.43Z" fill="#093f68"/><path d="M189.61,190.55a1,1,0,0,1-1-1l-.25-27c-.07-7.73,10.6-11.89,11.06-12.06a1,1,0,0,1,.69,0c.46.17,11.21,4.13,11.28,11.86l.25,27a1,1,0,0,1-1,1l-21,.19Zm10.17-38c-1.74.75-9.47,4.38-9.42,10l.24,26,19-.17-.24-26C209.34,156.71,201.54,153.22,199.78,152.51Z" fill="#093f68"/><path d="M150.93,143.93s5.1,1.53,5.1,4.35v10.65H145.84V148.28C145.84,145.46,150.93,143.93,150.93,143.93Z" fill="#093f68"/><path d="M156,159.93H145.84a1,1,0,0,1-1-1V148.28c0-3.46,5.21-5.13,5.8-5.31a1,1,0,0,1,.58,0c.6.18,5.81,1.85,5.81,5.31v10.65A1,1,0,0,1,156,159.93Zm-9.19-2H155v-9.65c0-1.47-2.59-2.78-4.1-3.3-1.31.46-4.09,1.74-4.09,3.3Z" fill="#093f68"/><path d="M166.79,143.93s5.09,1.53,5.09,4.35v10.65H161.7V148.28C161.7,145.46,166.79,143.93,166.79,143.93Z" fill="#093f68"/><path d="M171.88,159.93H161.7a1,1,0,0,1-1-1V148.28c0-3.46,5.21-5.13,5.8-5.31a1,1,0,0,1,.58,0c.59.18,5.8,1.85,5.8,5.31v10.65A1,1,0,0,1,171.88,159.93Zm-9.18-2h8.18v-9.65c0-1.47-2.59-2.78-4.09-3.3-1.32.46-4.09,1.74-4.09,3.3Z" fill="#093f68"/><path d="M233.21,143.93s5.09,1.53,5.09,4.35v10.65H228.12V148.28C228.12,145.46,233.21,143.93,233.21,143.93Z" fill="#093f68"/><path d="M238.3,159.93H228.12a1,1,0,0,1-1-1V148.28c0-3.46,5.21-5.13,5.8-5.31a1,1,0,0,1,.58,0c.59.18,5.8,1.85,5.8,5.31v10.65A1,1,0,0,1,238.3,159.93Zm-9.18-2h8.18v-9.65c0-1.47-2.58-2.78-4.09-3.3-1.31.46-4.09,1.74-4.09,3.3Z" fill="#093f68"/><path d="M249.07,143.93s5.09,1.53,5.09,4.35v10.65H244V148.28C244,145.46,249.07,143.93,249.07,143.93Z" fill="#093f68"/><path d="M254.16,159.93H244a1,1,0,0,1-1-1V148.28c0-3.46,5.21-5.13,5.81-5.31a1,1,0,0,1,.58,0c.59.18,5.8,1.85,5.8,5.31v10.65A1,1,0,0,1,254.16,159.93Zm-9.19-2h8.19v-9.65c0-1.56-2.78-2.84-4.09-3.3-1.32.46-4.1,1.74-4.1,3.3Z" fill="#093f68"/><path d="M150.93,165.48s5.1,1.54,5.1,4.35v10.66H145.84V169.83C145.84,167,150.93,165.48,150.93,165.48Z" fill="#093f68"/><path d="M156,181.49H145.84a1,1,0,0,1-1-1V169.83c0-3.45,5.21-5.13,5.8-5.31a1.14,1.14,0,0,1,.58,0c.6.18,5.81,1.85,5.81,5.31v10.66A1,1,0,0,1,156,181.49Zm-9.19-2H155v-9.66c0-1.56-2.78-2.84-4.1-3.3-1.31.46-4.09,1.74-4.09,3.3Z" fill="#093f68"/><path d="M166.79,165.48s5.09,1.54,5.09,4.35v10.66H161.7V169.83C161.7,167,166.79,165.48,166.79,165.48Z" fill="#093f68"/><path d="M171.88,181.49H161.7a1,1,0,0,1-1-1V169.83c0-3.46,5.21-5.13,5.8-5.31a1.14,1.14,0,0,1,.58,0c.59.18,5.8,1.85,5.8,5.31v10.66A1,1,0,0,1,171.88,181.49Zm-9.18-2h8.18v-9.66c0-1.56-2.77-2.84-4.09-3.3-1.32.46-4.09,1.74-4.09,3.3Z" fill="#093f68"/><path d="M233.21,165.48s5.09,1.54,5.09,4.35v10.66H228.12V169.83C228.12,167,233.21,165.48,233.21,165.48Z" fill="#093f68"/><path d="M238.3,181.49H228.12a1,1,0,0,1-1-1V169.83c0-3.46,5.21-5.13,5.8-5.31a1.14,1.14,0,0,1,.58,0c.59.18,5.8,1.85,5.8,5.31v10.66A1,1,0,0,1,238.3,181.49Zm-9.18-2h8.18v-9.66c0-1.56-2.77-2.84-4.09-3.3-1.32.46-4.09,1.74-4.09,3.3Z" fill="#093f68"/><path d="M249.07,165.48s5.09,1.54,5.09,4.35v10.66H244V169.83C244,167,249.07,165.48,249.07,165.48Z" fill="#093f68"/><path d="M254.16,181.49H244a1,1,0,0,1-1-1V169.83c0-3.46,5.21-5.13,5.81-5.31a1.14,1.14,0,0,1,.58,0c.59.18,5.8,1.86,5.8,5.31v10.66A1,1,0,0,1,254.16,181.49Zm-9.19-2h8.19v-9.66c0-1.56-2.78-2.84-4.09-3.3-1.32.46-4.1,1.74-4.1,3.3Z" fill="#093f68"/><rect x="176.46" y="127.19" width="47.08" height="4.57" fill="#68e1fd"/><path d="M223.54,132.76H176.46a1,1,0,0,1-1-1v-4.57a1,1,0,0,1,1-1h47.08a1,1,0,0,1,1,1v4.57A1,1,0,0,1,223.54,132.76Zm-46.08-2h45.08v-2.57H177.46Z" fill="#093f68"/><path d="M165.16,105.49a22.3,22.3,0,0,1-2-1.41,9.32,9.32,0,0,1-.75-.66c-.29-.29-.75-.67-.82-1.08-1.21,2.29-4,3.08-5.75,4.81-2.46,2.39-2.19,5.41-1.84,8.51h15.21c.22-2,.55-3.74-.16-5.68A9.21,9.21,0,0,0,165.16,105.49Z" fill="#68e1fd"/><path d="M169.23,116.66H154a1,1,0,0,1-1-.88c-.33-2.92-.74-6.55,2.14-9.35a15,15,0,0,1,2.52-1.85,8,8,0,0,0,3-2.7,1,1,0,0,1,1.87.29l.38.38.17.16c.21.22.45.41.68.61a18.15,18.15,0,0,0,1.69,1.2l.2.14a10.22,10.22,0,0,1,4.3,5,11.29,11.29,0,0,1,.28,5.5l-.07.64A1,1,0,0,1,169.23,116.66Zm-14.31-2h13.42a9,9,0,0,0-.21-4.33,8.19,8.19,0,0,0-3.53-4h0l-.2-.13a21.6,21.6,0,0,1-1.86-1.34c-.28-.23-.56-.47-.82-.73l-.09-.08a12.86,12.86,0,0,1-2.88,2.23,13,13,0,0,0-2.19,1.6C154.72,109.65,154.64,111.84,154.92,114.66Z" fill="#093f68"/><path d="M161.61,103.58a1,1,0,0,1-1-1v-2.46a1,1,0,0,1,2,0v2.46A1,1,0,0,1,161.61,103.58Z" fill="#093f68"/><rect x="152.76" y="115.66" width="17.78" height="3.32" fill="#68e1fd"/><path d="M170.53,120H152.76a1,1,0,0,1-1-1v-3.32a1,1,0,0,1,1-1h17.77a1,1,0,0,1,1,1V119A1,1,0,0,1,170.53,120Zm-16.77-2h15.77v-1.32H153.76Z" fill="#093f68"/><rect x="153.83" y="118.98" width="15.63" height="12.78" fill="#68e1fd"/><path d="M169.46,132.76H153.83a1,1,0,0,1-1-1V119a1,1,0,0,1,1-1h15.63a1,1,0,0,1,1,1v12.78A1,1,0,0,1,169.46,132.76Zm-14.63-2h13.63V120H154.83Z" fill="#093f68"/><path d="M161.65,121.82s3.06,1,3.06,2.88v7.06h-6.13V124.7C158.58,122.84,161.65,121.82,161.65,121.82Z" fill="#093f68"/><path d="M164.71,132.76h-6.13a1,1,0,0,1-1-1v-7c0-2.52,3.37-3.71,3.75-3.83a1,1,0,0,1,.63,0c.39.12,3.75,1.31,3.75,3.83v7A1,1,0,0,1,164.71,132.76Zm-5.13-2h4.13v-6c0-.74-1.25-1.48-2.06-1.82-.82.34-2.07,1.08-2.07,1.82Z" fill="#093f68"/><path d="M241.86,105.49a22.16,22.16,0,0,1-2-1.41,7.87,7.87,0,0,1-.75-.66c-.29-.29-.75-.67-.83-1.08-1.2,2.29-4,3.08-5.74,4.81-2.46,2.39-2.2,5.41-1.85,8.51h15.21c.23-2,.55-3.74-.16-5.68A9.16,9.16,0,0,0,241.86,105.49Z" fill="#68e1fd"/><path d="M245.93,116.66H230.72a1,1,0,0,1-1-.88c-.33-2.92-.74-6.55,2.14-9.35a15.31,15.31,0,0,1,2.51-1.85,8.08,8.08,0,0,0,3.05-2.7,1,1,0,0,1,1-.53,1,1,0,0,1,.83.82s.25.26.37.38l.17.16c.22.22.45.41.69.61a20.3,20.3,0,0,0,1.69,1.21l.2.13a10.15,10.15,0,0,1,4.29,5,11.21,11.21,0,0,1,.29,5.51l-.07.63A1,1,0,0,1,245.93,116.66Zm-14.31-2H245a8.89,8.89,0,0,0-.2-4.33,8.24,8.24,0,0,0-3.53-4h0l-.19-.12a20.41,20.41,0,0,1-1.87-1.35,9.49,9.49,0,0,1-.82-.73l-.09-.08a12.91,12.91,0,0,1-2.89,2.23,13.45,13.45,0,0,0-2.19,1.6C231.43,109.65,231.35,111.84,231.62,114.66Z" fill="#093f68"/><path d="M238.31,103.58a1,1,0,0,1-1-1v-2.46a1,1,0,0,1,2,0v2.46A1,1,0,0,1,238.31,103.58Z" fill="#093f68"/><rect x="229.47" y="115.66" width="17.78" height="3.32" fill="#68e1fd"/><path d="M247.24,120H229.47a1,1,0,0,1-1-1v-3.32a1,1,0,0,1,1-1h17.77a1,1,0,0,1,1,1V119A1,1,0,0,1,247.24,120Zm-16.77-2h15.77v-1.32H230.47Z" fill="#093f68"/><rect x="230.54" y="118.98" width="15.63" height="12.78" fill="#68e1fd"/><path d="M246.17,132.76H230.54a1,1,0,0,1-1-1V119a1,1,0,0,1,1-1h15.63a1,1,0,0,1,1,1v12.78A1,1,0,0,1,246.17,132.76Zm-14.63-2h13.63V120H231.54Z" fill="#093f68"/><path d="M238.35,121.82s3.07,1,3.07,2.88v7.06h-6.13V124.7C235.29,122.84,238.35,121.82,238.35,121.82Z" fill="#093f68"/><path d="M241.42,132.76h-6.13a1,1,0,0,1-1-1v-7c0-2.52,3.36-3.71,3.75-3.83a1,1,0,0,1,.63,0c.38.12,3.75,1.31,3.75,3.83v7A1,1,0,0,1,241.42,132.76Zm-5.13-2h4.13v-6c0-.74-1.25-1.48-2.07-1.82-.81.34-2.06,1.08-2.06,1.82Z" fill="#093f68"/><path d="M273.2,123.56a1.7,1.7,0,0,1,1.69,0c1,.56,2.46,2.41,2.48,3.63l.91,62.48h-8.47l.91-62.48C270.74,126,272.22,124.12,273.2,123.56Z" fill="#68e1fd"/><path d="M278.28,190.67h-8.47a1,1,0,0,1-.71-.3,1,1,0,0,1-.29-.72l.91-62.48c0-1.67,1.81-3.8,3-4.48h0a2.69,2.69,0,0,1,2.69,0c1.17.68,2.95,2.81,3,4.48l.91,62.48a1,1,0,0,1-.28.72A1,1,0,0,1,278.28,190.67Zm-7.46-2h6.45l-.9-61.47a5,5,0,0,0-2-2.78.71.71,0,0,0-.69,0h0a5,5,0,0,0-2,2.78Zm2.38-65.11h0Z" fill="#093f68"/><path d="M277.88,129.22h-8.07a1,1,0,0,1,0-2h8.07a1,1,0,0,1,0,2Z" fill="#093f68"/><path d="M277.88,132h-8.07a1,1,0,0,1,0-2h8.07a1,1,0,0,1,0,2Z" fill="#093f68"/><path d="M279.42,154.4H268.83a1,1,0,0,1,0-2h10.59a1,1,0,0,1,0,2Z" fill="#093f68"/><path d="M279.42,173.27H268.83a1,1,0,0,1,0-2h10.59a1,1,0,0,1,0,2Z" fill="#093f68"/><path d="M274,124.33a1,1,0,0,1-1-1v-3.07a1,1,0,1,1,2,0v3.07A1,1,0,0,1,274,124.33Z" fill="#093f68"/><path d="M125,123.56a1.7,1.7,0,0,1,1.69,0c1,.56,2.46,2.41,2.48,3.63l.91,62.48h-8.47l.91-62.48C122.49,126,124,124.12,125,123.56Z" fill="#68e1fd"/><path d="M130,190.67h-8.47a1,1,0,0,1-1-1l.91-62.48c0-1.67,1.81-3.8,3-4.48a2.69,2.69,0,0,1,2.69,0c1.17.68,3,2.81,3,4.48l.91,62.48a1,1,0,0,1-1,1Zm-7.46-2H129l-.9-61.47a5,5,0,0,0-2-2.78.71.71,0,0,0-.69,0h0a5,5,0,0,0-2,2.78ZM125,123.56h0Z" fill="#093f68"/><path d="M129.62,129.22h-8.06a1,1,0,0,1,0-2h8.06a1,1,0,0,1,0,2Z" fill="#093f68"/><path d="M129.62,132h-8.06a1,1,0,0,1,0-2h8.06a1,1,0,0,1,0,2Z" fill="#093f68"/><path d="M131.17,154.4H120.58a1,1,0,0,1,0-2h10.59a1,1,0,0,1,0,2Z" fill="#093f68"/><path d="M131.17,173.27H120.58a1,1,0,0,1,0-2h10.59a1,1,0,0,1,0,2Z" fill="#093f68"/><path d="M125.69,124.33a1,1,0,0,1-1-1v-3.07a1,1,0,1,1,2,0v3.07A1,1,0,0,1,125.69,124.33Z" fill="#093f68"/><path d="M284.06,189.68c-1.14,2.42-2.39,4.77-3.73,7.06h0q-1.81,3.12-3.87,6.07-1.44,2.09-3,4.08H126.53q-1.55-2-3-4.08-2.06-3-3.87-6.08c-1.34-2.29-2.59-4.64-3.73-7.06Z" fill="#68e1fd"/><path d="M273.47,207.9H126.53a1,1,0,0,1-.79-.39c-1.07-1.38-2.08-2.76-3-4.12-1.37-2-2.68-4-3.91-6.15-1.39-2.37-2.66-4.77-3.77-7.13a1,1,0,0,1,0-1,1,1,0,0,1,.85-.46H284.06a1,1,0,0,1,.85.46,1,1,0,0,1,0,1c-1.1,2.33-2.35,4.71-3.72,7.06a.56.56,0,0,1-.05.08c-1.2,2.08-2.52,4.14-3.91,6.14-.94,1.36-1.95,2.74-3,4.12A1,1,0,0,1,273.47,207.9ZM127,205.9H273c.93-1.22,1.83-2.45,2.66-3.65,1.34-1.93,2.61-3.93,3.78-5.93a.56.56,0,0,1,.05-.08c1.08-1.85,2.08-3.71,3-5.56H117.53c.92,1.85,1.92,3.71,3,5.56,1.21,2.07,2.5,4.09,3.83,6C125.19,203.45,126.09,204.68,127,205.9Z" fill="#093f68"/><path d="M216.46,190.68H183.54a1,1,0,0,1-1-1V136.5a1,1,0,0,1,1-1h32.92a1,1,0,0,1,1,1v53.18A1,1,0,0,1,216.46,190.68Zm-31.92-2h30.92V137.5H184.54Z" fill="#093f68"/><path d="M139.08,134.19a1,1,0,0,1-1-1v-8.37a1,1,0,1,1,2,0v8.37A1,1,0,0,1,139.08,134.19Z" fill="#093f68"/><path d="M148.06,132.76a1,1,0,0,1-1-1v-4.23a1,1,0,0,1,2,0v4.23A1,1,0,0,1,148.06,132.76Z" fill="#093f68"/><line x1="260.92" y1="133.19" x2="260.92" y2="124.82" fill="#68e1fd"/><path d="M260.92,134.19a1,1,0,0,1-1-1v-8.37a1,1,0,0,1,2,0v8.37A1,1,0,0,1,260.92,134.19Z" fill="#093f68"/><line x1="251.94" y1="127.53" x2="251.94" y2="131.76" fill="#68e1fd"/><path d="M251.94,132.76a1,1,0,0,1-1-1v-4.23a1,1,0,0,1,2,0v4.23A1,1,0,0,1,251.94,132.76Z" fill="#093f68"/><path d="M200,90.61a1,1,0,0,1-1-1V83.4a1,1,0,1,1,2,0v6.21A1,1,0,0,1,200,90.61Z" fill="#093f68"/><path d="M280.33,196.74h0q-1.81,3.12-3.87,6.07v-3a3.17,3.17,0,0,1,3.17-3.17A4.05,4.05,0,0,1,280.33,196.74Z" fill="#68e1fd"/><path d="M276.46,203.82a.79.79,0,0,1-.3,0,1,1,0,0,1-.7-1v-3a4.17,4.17,0,0,1,4.17-4.17,6.32,6.32,0,0,1,.87.08,1,1,0,0,1,.83,1h0a1,1,0,0,1-.14.5c-1.2,2.08-2.52,4.14-3.91,6.14A1,1,0,0,1,276.46,203.82Zm1.91-5.75a2.23,2.23,0,0,0-.88,1.41C277.79,199,278.08,198.54,278.37,198.07Z" fill="#093f68"/><path d="M267.38,196.67h0a3.17,3.17,0,0,1,3.17,3.17v7.07a0,0,0,0,1,0,0h-6.34a0,0,0,0,1,0,0v-7.07A3.17,3.17,0,0,1,267.38,196.67Z" fill="#68e1fd"/><path d="M270.54,207.9h-6.33a1,1,0,0,1-1-1v-7.06a4.17,4.17,0,1,1,8.33,0v7.06A1,1,0,0,1,270.54,207.9Zm-5.33-2h4.33v-6.06a2.17,2.17,0,1,0-4.33,0Z" fill="#093f68"/><path d="M255.13,196.67h0a3.17,3.17,0,0,1,3.17,3.17v7.07a0,0,0,0,1,0,0H252a0,0,0,0,1,0,0v-7.07A3.17,3.17,0,0,1,255.13,196.67Z" fill="#68e1fd"/><path d="M258.29,207.9H252a1,1,0,0,1-1-1v-7.06a4.17,4.17,0,1,1,8.33,0v7.06A1,1,0,0,1,258.29,207.9Zm-5.33-2h4.33v-6.06a2.17,2.17,0,1,0-4.33,0Z" fill="#093f68"/><path d="M242.88,196.67h0a3.17,3.17,0,0,1,3.17,3.17v7.07a0,0,0,0,1,0,0h-6.34a0,0,0,0,1,0,0v-7.07a3.17,3.17,0,0,1,3.17-3.17Z" fill="#68e1fd"/><path d="M246,207.9h-6.33a1,1,0,0,1-1-1v-7.06a4.17,4.17,0,1,1,8.33,0v7.06A1,1,0,0,1,246,207.9Zm-5.33-2H245v-6.06a2.17,2.17,0,1,0-4.33,0Z" fill="#093f68"/><path d="M230.63,196.67h0a3.17,3.17,0,0,1,3.17,3.17v7.07a0,0,0,0,1,0,0h-6.34a0,0,0,0,1,0,0v-7.07A3.17,3.17,0,0,1,230.63,196.67Z" fill="#68e1fd"/><path d="M233.79,207.9h-6.33a1,1,0,0,1-1-1v-7.06a4.17,4.17,0,1,1,8.33,0v7.06A1,1,0,0,1,233.79,207.9Zm-5.33-2h4.33v-6.06a2.17,2.17,0,1,0-4.33,0Z" fill="#093f68"/><path d="M218.38,196.67h0a3.17,3.17,0,0,1,3.17,3.17v7.07a0,0,0,0,1,0,0h-6.34a0,0,0,0,1,0,0v-7.07A3.17,3.17,0,0,1,218.38,196.67Z" fill="#68e1fd"/><path d="M221.54,207.9h-6.33a1,1,0,0,1-1-1v-7.06a4.17,4.17,0,1,1,8.33,0v7.06A1,1,0,0,1,221.54,207.9Zm-5.33-2h4.33v-6.06a2.17,2.17,0,1,0-4.33,0Z" fill="#093f68"/><path d="M206.13,196.67h0a3.17,3.17,0,0,1,3.17,3.17v7.07a0,0,0,0,1,0,0H203a0,0,0,0,1,0,0v-7.07a3.17,3.17,0,0,1,3.17-3.17Z" fill="#68e1fd"/><path d="M209.29,207.9H203a1,1,0,0,1-1-1v-7.06a4.17,4.17,0,1,1,8.33,0v7.06A1,1,0,0,1,209.29,207.9Zm-5.33-2h4.33v-6.06a2.17,2.17,0,1,0-4.33,0Z" fill="#093f68"/><path d="M193.87,196.67h0a3.17,3.17,0,0,1,3.17,3.17v7.07a0,0,0,0,1,0,0h-6.34a0,0,0,0,1,0,0v-7.07A3.17,3.17,0,0,1,193.87,196.67Z" fill="#68e1fd"/><path d="M197,207.9h-6.33a1,1,0,0,1-1-1v-7.06a4.17,4.17,0,1,1,8.33,0v7.06A1,1,0,0,1,197,207.9Zm-5.33-2H196v-6.06a2.17,2.17,0,1,0-4.33,0Z" fill="#093f68"/><path d="M181.62,196.67h0a3.17,3.17,0,0,1,3.17,3.17v7.07a0,0,0,0,1,0,0h-6.34a0,0,0,0,1,0,0v-7.07a3.17,3.17,0,0,1,3.17-3.17Z" fill="#68e1fd"/><path d="M184.79,207.9h-6.33a1,1,0,0,1-1-1v-7.06a4.17,4.17,0,1,1,8.33,0v7.06A1,1,0,0,1,184.79,207.9Zm-5.33-2h4.33v-6.06a2.17,2.17,0,1,0-4.33,0Z" fill="#093f68"/><path d="M169.37,196.67h0a3.17,3.17,0,0,1,3.17,3.17v7.07a0,0,0,0,1,0,0h-6.34a0,0,0,0,1,0,0v-7.07A3.17,3.17,0,0,1,169.37,196.67Z" fill="#68e1fd"/><path d="M172.54,207.9h-6.33a1,1,0,0,1-1-1v-7.06a4.17,4.17,0,1,1,8.33,0v7.06A1,1,0,0,1,172.54,207.9Zm-5.33-2h4.33v-6.06a2.17,2.17,0,1,0-4.33,0Z" fill="#093f68"/><path d="M157.12,196.67h0a3.17,3.17,0,0,1,3.17,3.17v7.07a0,0,0,0,1,0,0H154a0,0,0,0,1,0,0v-7.07A3.17,3.17,0,0,1,157.12,196.67Z" fill="#68e1fd"/><path d="M160.29,207.9H154a1,1,0,0,1-1-1v-7.06a4.17,4.17,0,1,1,8.33,0v7.06A1,1,0,0,1,160.29,207.9Zm-5.33-2h4.33v-6.06a2.17,2.17,0,1,0-4.33,0Z" fill="#093f68"/><path d="M144.87,196.67h0a3.17,3.17,0,0,1,3.17,3.17v7.07a0,0,0,0,1,0,0h-6.34a0,0,0,0,1,0,0v-7.07A3.17,3.17,0,0,1,144.87,196.67Z" fill="#68e1fd"/><path d="M148,207.9h-6.33a1,1,0,0,1-1-1v-7.06a4.17,4.17,0,1,1,8.33,0v7.06A1,1,0,0,1,148,207.9Zm-5.33-2H147v-6.06a2.17,2.17,0,1,0-4.33,0Z" fill="#093f68"/><path d="M132.62,196.67h0a3.17,3.17,0,0,1,3.17,3.17v7.07a0,0,0,0,1,0,0h-6.34a0,0,0,0,1,0,0v-7.07A3.17,3.17,0,0,1,132.62,196.67Z" fill="#68e1fd"/><path d="M135.79,207.9h-6.33a1,1,0,0,1-1-1v-7.06a4.17,4.17,0,1,1,8.33,0v7.06A1,1,0,0,1,135.79,207.9Zm-5.33-2h4.33v-6.06a2.17,2.17,0,1,0-4.33,0Z" fill="#093f68"/><path d="M123.54,199.84v3q-2.06-3-3.87-6.08a4.05,4.05,0,0,1,.7-.07,3.18,3.18,0,0,1,3.17,3.17Z" fill="#68e1fd"/><path d="M123.54,203.82a1,1,0,0,1-.82-.43c-1.37-2-2.68-4-3.91-6.15a1,1,0,0,1,0-.92,1,1,0,0,1,.74-.57,6.32,6.32,0,0,1,.87-.08,4.18,4.18,0,0,1,4.17,4.17v3a1,1,0,0,1-.7,1A.79.79,0,0,1,123.54,203.82Zm-1.91-5.75c.29.47.58.94.88,1.4a2.12,2.12,0,0,0-.61-1.16A1.55,1.55,0,0,0,121.63,198.07Z" fill="#093f68"/><path d="M242.94,231.22a1,1,0,0,1-.53-.15l-26.88-16.65H184.47l-26.88,16.65a1,1,0,0,1-1.06-1.7l27.13-16.8a1,1,0,0,1,.53-.15h31.62a1,1,0,0,1,.53.15l27.13,16.8a1,1,0,0,1,.32,1.38A1,1,0,0,1,242.94,231.22Z" fill="#dfeaef"/><path d="M264.21,214.42H135.79a1,1,0,0,1,0-2H264.21a1,1,0,0,1,0,2Z" fill="#dfeaef"/><path d="M176,95.27H147.44c-3.4,0-6.17-2.25-6.17-5a5.18,5.18,0,0,1,4-4.7,7.18,7.18,0,0,1,5.9-3.61c.71-2.65,3.64-4.62,7.1-4.62a7.66,7.66,0,0,1,6.48,3.21,10.9,10.9,0,0,1,4.68-1c4.55,0,8.43,2.68,9.16,6.22a5,5,0,0,1,3.49,4.51C182.12,93,179.36,95.27,176,95.27ZM152,83.91c-2.3,0-4.39,1.17-5,2.85a1,1,0,0,1-.72.62c-1.75.39-3,1.57-3,2.88,0,1.66,1.87,3,4.17,3H176c2.29,0,4.16-1.35,4.16-3a3.24,3.24,0,0,0-2.66-2.8,1,1,0,0,1-.72-.87c-.26-2.84-3.46-5.06-7.27-5.06a8.77,8.77,0,0,0-4.6,1.23,1,1,0,0,1-1.46-.52c-.61-1.71-2.71-2.91-5.1-2.91-2.79,0-5.1,1.61-5.26,3.66A1,1,0,0,1,152,83.91Zm-6,2.49h0Z" fill="#dfeaef"/><path d="M166.46,87.3a1,1,0,0,1-1-.83,4.47,4.47,0,0,0-1.79-2.75,4.6,4.6,0,0,0-3.81-.13,1,1,0,0,1-1.25-.65,1,1,0,0,1,.65-1.26,5.83,5.83,0,0,1,8.17,4.45,1,1,0,0,1-.82,1.16Z" fill="#dfeaef"/><path d="M249.56,89H227.14c-2.79,0-5.06-1.86-5.06-4.15a4.16,4.16,0,0,1,2.77-3.71c.65-2.86,3.7-4.94,7.4-4.94a9,9,0,0,1,3.59.73A6.22,6.22,0,0,1,241,74.51c2.75,0,5.09,1.55,5.74,3.65A5.87,5.87,0,0,1,251.39,81a4.26,4.26,0,0,1,3.23,3.88C254.62,87.18,252.35,89,249.56,89Zm-17.31-10.8c-2.89,0-5.31,1.66-5.51,3.78a1,1,0,0,1-.72.87,2.35,2.35,0,0,0-1.94,2c0,1.16,1.4,2.15,3.06,2.15h22.42c1.66,0,3.06-1,3.06-2.15,0-.93-.89-1.78-2.16-2.06a1,1,0,0,1-.72-.62,4,4,0,0,0-3.79-2.1,1,1,0,0,1-1-.92c-.11-1.48-1.86-2.68-3.91-2.68a3.92,3.92,0,0,0-3.81,2.14,1,1,0,0,1-1.46.52A6.76,6.76,0,0,0,232.25,78.24Z" fill="#dfeaef"/><path d="M239.66,83.65a1,1,0,0,1-1-.94c-.14-2.26-2.77-3.46-2.8-3.48a1,1,0,0,1,.81-1.82c.16.06,3.77,1.7,4,5.17a1,1,0,0,1-.93,1.06Z" fill="#dfeaef"/></g></svg>