<svg xmlns="http://www.w3.org/2000/svg" viewBox="0 0 400 300"><g id="_533_target_audience_outline" data-name="#533_target_audience_outline"><path d="M200,60.49A89.49,89.49,0,1,0,289.48,150,89.49,89.49,0,0,0,200,60.49Z" fill="#fff"/><path d="M200,240.46A90.49,90.49,0,1,1,290.48,150,90.58,90.58,0,0,1,200,240.46Zm0-179A88.49,88.49,0,1,0,288.48,150,88.59,88.59,0,0,0,200,61.49Z" fill="#093f68"/><path d="M200,75a75,75,0,1,0,75,75A75,75,0,0,0,200,75Z" fill="#68e1fd"/><path d="M200,226a76,76,0,1,1,76-76A76.07,76.07,0,0,1,200,226Zm0-150a74,74,0,1,0,74,74A74.07,74.07,0,0,0,200,76Z" fill="#093f68"/><circle cx="200" cy="149.98" r="61.02" fill="#fff"/><path d="M200,212a62,62,0,1,1,62-62A62.09,62.09,0,0,1,200,212Zm0-122a60,60,0,1,0,60,60A60.09,60.09,0,0,0,200,90Z" fill="#093f68"/><path d="M250.28,164.24v13.38a33.09,33.09,0,0,1-28.19,0V164.24a9.53,9.53,0,0,1,9.54-9.53h9.11A9.53,9.53,0,0,1,250.28,164.24Z" fill="#68e1fd"/><path d="M236.13,181.79a34.07,34.07,0,0,1-8.13-1,33.18,33.18,0,0,1-6.34-2.24,1,1,0,0,1-.57-.9V164.24a10.55,10.55,0,0,1,10.54-10.53h9.11a10.55,10.55,0,0,1,10.54,10.53v13.38a1,1,0,0,1-.57.9,34.07,34.07,0,0,1-14.58,3.27Zm-13-4.76a31.91,31.91,0,0,0,5.38,1.84,32.42,32.42,0,0,0,15.42,0,31.79,31.79,0,0,0,5.39-1.86V164.24a8.55,8.55,0,0,0-8.54-8.53h-9.11a8.55,8.55,0,0,0-8.54,8.53Zm27.19.59h0Z" fill="#093f68"/><polygon points="233.91 155.64 236.51 168.04 238.71 155.64 233.91 155.64" fill="#093f68"/><path d="M236.51,169a1,1,0,0,1-1-.8l-2.6-12.39a1.05,1.05,0,0,1,.2-.84,1,1,0,0,1,.78-.37h4.8a1,1,0,0,1,.76.36,1,1,0,0,1,.22.82l-2.2,12.39a1,1,0,0,1-1,.83Zm-1.37-12.4,1.28,6.13,1.09-6.13Z" fill="#093f68"/><path d="M235,115.86a11.89,11.89,0,0,1,1.79-.14c2.75,0,5.57-.07,8.08,1.16a15.28,15.28,0,0,1,8.51,13.62l-.58,11.29h-33a6.53,6.53,0,0,1,.13-2.11,9.06,9.06,0,0,0-.33-2.18,30.91,30.91,0,0,1-.66-5.59,21.75,21.75,0,0,1,1.81-8.61,9.46,9.46,0,0,1,2.9-4.34c1.45-1,3.73-1.06,4.76.38A11.49,11.49,0,0,1,235,115.86Z" fill="#725858"/><path d="M252.78,142.79h-33a1,1,0,0,1-1-.72,4.2,4.2,0,0,1,0-1.84c0-.2.07-.4.08-.59a5.53,5.53,0,0,0-.2-1.44c0-.17-.07-.33-.11-.5a32.07,32.07,0,0,1-.68-5.78,22.67,22.67,0,0,1,1.89-9,10.28,10.28,0,0,1,3.25-4.78,4.76,4.76,0,0,1,5.33-.2,12.49,12.49,0,0,1,6.46-3.07h0a12.77,12.77,0,0,1,1.94-.15h.49c2.68,0,5.46,0,8,1.26a16.26,16.26,0,0,1,9.07,14.52s0,0-.58,11.34A1,1,0,0,1,252.78,142.79Zm-32-2h31.09c.14-2.7.52-10.23.53-10.34a14.23,14.23,0,0,0-8-12.67c-2.16-1.06-4.58-1.06-7.15-1.06h-.51a9.71,9.71,0,0,0-1.61.13h0a10.44,10.44,0,0,0-6,3.17,1,1,0,0,1-1.54-.1c-.68-.94-2.37-.86-3.37-.15a8.62,8.62,0,0,0-2.55,3.91,20.57,20.57,0,0,0-1.74,8.21,29,29,0,0,0,.64,5.41l.1.46a7.23,7.23,0,0,1,.25,2,6.69,6.69,0,0,1-.11.84C220.77,140.65,220.75,140.72,220.74,140.79ZM235,115.86h0Z" fill="#093f68"/><path d="M233.91,152.88h4.8a0,0,0,0,1,0,0v2.76a2,2,0,0,1-2,2h-.72a2,2,0,0,1-2-2v-2.76A0,0,0,0,1,233.91,152.88Z" fill="#ffc9b0"/><path d="M236.67,158.68H236a3,3,0,0,1-3-3v-2.76a1,1,0,0,1,1-1h4.8a1,1,0,0,1,1,1v2.76A3,3,0,0,1,236.67,158.68Zm-1.76-4.8v1.76a1,1,0,0,0,1,1h.72a1,1,0,0,0,1-1v-1.76Z" fill="#093f68"/><ellipse cx="223.4" cy="140.43" rx="4.39" ry="4.01" fill="#ffc9b0"/><path d="M223.4,145.44a5,5,0,1,1,5.39-5A5.22,5.22,0,0,1,223.4,145.44Zm0-8a3,3,0,1,0,3.39,3A3.23,3.23,0,0,0,223.4,137.41Z" fill="#093f68"/><ellipse cx="248.97" cy="140.43" rx="4.39" ry="4.01" fill="#ffc9b0"/><path d="M249,145.44a5,5,0,1,1,5.39-5A5.22,5.22,0,0,1,249,145.44Zm0-8a3,3,0,1,0,3.39,3A3.23,3.23,0,0,0,249,137.41Z" fill="#093f68"/><path d="M236.31,153.51h0a14,14,0,0,1-14.05-14V131.9s3.53-2,4.59-5.2c0,0,5.4,6.14,10.6,5.72a118.62,118.62,0,0,0,12.91-1.8v8.84A14,14,0,0,1,236.31,153.51Z" fill="#ffc9b0"/><path d="M236.31,154.51a15.07,15.07,0,0,1-15.05-15V131.9a1,1,0,0,1,.5-.87s3.22-1.88,4.14-4.65a1,1,0,0,1,.75-.66,1,1,0,0,1,.95.32c.05.06,5.16,5.73,9.77,5.39a118.59,118.59,0,0,0,12.79-1.79,1,1,0,0,1,1.2,1v8.84A15.07,15.07,0,0,1,236.31,154.51Zm-13.05-22.06v7a13.05,13.05,0,0,0,26.1,0v-7.63c-2.14.4-6.85,1.19-11.83,1.59-4.26.35-8.47-3.13-10.38-5A13,13,0,0,1,223.26,132.45Z" fill="#093f68"/><path d="M236.24,142.79a9.89,9.89,0,0,1-1.37-.11,1,1,0,0,1-.81-1.16,1,1,0,0,1,1.16-.81,7.34,7.34,0,0,0,1.15.08,13.33,13.33,0,0,0-1-2.28,1,1,0,1,1,1.78-.92c1.09,2.09,1.47,3.55,1.11,4.34a1.28,1.28,0,0,1-.87.73A4.9,4.9,0,0,1,236.24,142.79Z" fill="#093f68"/><path d="M228.23,180.84a1,1,0,0,1-1-1V165a1,1,0,0,1,2,0v14.8A1,1,0,0,1,228.23,180.84Z" fill="#093f68"/><path d="M244.14,180.81a1,1,0,0,1-1-1V165a1,1,0,1,1,2,0v14.77A1,1,0,0,1,244.14,180.81Z" fill="#093f68"/><path d="M194.55,128.49s-3.2-1.12-6.23,2.8c-2.83,3.67-2.68,8.93-2.82,13.31a45.44,45.44,0,0,1-2.42,12.92,10,10,0,0,0,3.74,10.75,16.21,16.21,0,0,0,8.65,2.94c2.56.21,5-.48,7.54-.19a13.41,13.41,0,0,0,13.46-6.66,8.59,8.59,0,0,0,1.29-3.67,12.92,12.92,0,0,0-.49-3.8,65.53,65.53,0,0,1-1.61-13.56,22.46,22.46,0,0,0-2.44-10.55C209.36,125.65,199,122.38,194.55,128.49Z" fill="#725858"/><path d="M196.49,172.25c-.36,0-.73,0-1.1,0a16.88,16.88,0,0,1-9.17-3.15,11,11,0,0,1-4.09-11.84,44,44,0,0,0,2.37-12.65l0-1.26c.11-4.24.23-9.05,3-12.63,2.57-3.33,5.33-3.46,6.62-3.3a9.1,9.1,0,0,1,7.83-3.07,15.57,15.57,0,0,1,12.12,8,23.42,23.42,0,0,1,2.56,11,64.24,64.24,0,0,0,1.59,13.34l.06.28a12.67,12.67,0,0,1,.44,3.82,9.48,9.48,0,0,1-1.41,4.1A14.41,14.41,0,0,1,202.9,172a18.43,18.43,0,0,0-3.7.08C198.32,172.17,197.41,172.25,196.49,172.25Zm-3.05-42.91c-.95,0-2.63.37-4.33,2.56-2.36,3.06-2.48,7.53-2.58,11.46l0,1.27a46,46,0,0,1-2.47,13.2,9,9,0,0,0,3.4,9.64,15,15,0,0,0,8.12,2.75,20.35,20.35,0,0,0,3.47-.12,20.06,20.06,0,0,1,4.11-.08,12.43,12.43,0,0,0,12.48-6.16,7.52,7.52,0,0,0,1.15-3.24,11.23,11.23,0,0,0-.4-3.24l-.07-.28a66.2,66.2,0,0,1-1.63-13.76,21.53,21.53,0,0,0-2.32-10.09,13.71,13.71,0,0,0-10.5-7,7.09,7.09,0,0,0-6.48,2.78,1,1,0,0,1-1.13.35A3.12,3.12,0,0,0,193.44,129.34Z" fill="#093f68"/><path d="M214.39,173.38V186.9a33.28,33.28,0,0,1-14.17,3.18,33.29,33.29,0,0,1-8.16-1,32.94,32.94,0,0,1-6.22-2.26V173.38a9.67,9.67,0,0,1,9.66-9.66h9.22a9.63,9.63,0,0,1,8.26,4.65A9.49,9.49,0,0,1,214.39,173.38Z" fill="#68e1fd"/><path d="M200.23,191.08a34.5,34.5,0,0,1-8.42-1.05,34.11,34.11,0,0,1-6.4-2.33,1,1,0,0,1-.57-.9V173.38a10.66,10.66,0,0,1,10.66-10.66h9.22a10.67,10.67,0,0,1,10.67,10.66V186.9a1,1,0,0,1-.57.9,33.86,33.86,0,0,1-14.59,3.28Zm-13.39-4.92a32.18,32.18,0,0,0,26.55.1V173.38a8.67,8.67,0,0,0-8.67-8.66H195.5A8.71,8.71,0,0,0,188,169a8.62,8.62,0,0,0-1.18,4.36Zm27.55.74h0Z" fill="#093f68"/><polygon points="200.11 177.65 198.38 164.54 202.8 164.54 200.11 177.65" fill="#093f68"/><path d="M200.11,178.65h0a1,1,0,0,1-1-.87l-1.73-13.11a1,1,0,0,1,.24-.79,1,1,0,0,1,.75-.34h4.42a1,1,0,0,1,1,1.2l-2.69,13.11A1,1,0,0,1,200.11,178.65Zm-.59-13.11.81,6.09,1.25-6.09Z" fill="#093f68"/><path d="M192.06,190.06a1,1,0,0,1-1-1V174.19a1,1,0,0,1,2,0v14.87A1,1,0,0,1,192.06,190.06Z" fill="#093f68"/><path d="M208.17,190.11a1,1,0,0,1-1-1V174.19a1,1,0,0,1,2,0v14.92A1,1,0,0,1,208.17,190.11Z" fill="#093f68"/><path d="M198.38,162.33h4.42a0,0,0,0,1,0,0v2.54a1.88,1.88,0,0,1-1.88,1.88h-.67a1.88,1.88,0,0,1-1.88-1.88v-2.54A0,0,0,0,1,198.38,162.33Z" fill="#ffc9b0"/><path d="M200.93,167.75h-.67a2.88,2.88,0,0,1-2.88-2.88v-2.54a1,1,0,0,1,1-1h4.42a1,1,0,0,1,1,1v2.54A2.88,2.88,0,0,1,200.93,167.75Zm-1.55-4.42v1.54a.89.89,0,0,0,.88.88h.67a.88.88,0,0,0,.87-.88v-1.54Z" fill="#093f68"/><ellipse cx="187.97" cy="150.86" rx="4.29" ry="3.7" fill="#ffc9b0"/><path d="M188,155.55c-2.92,0-5.29-2.1-5.29-4.7s2.37-4.69,5.29-4.69,5.29,2.1,5.29,4.69S190.89,155.55,188,155.55Zm0-7.39a2.75,2.75,0,1,0,3.29,2.69C191.26,149.37,189.78,148.16,188,148.16Z" fill="#093f68"/><ellipse cx="212.99" cy="150.86" rx="4.29" ry="3.7" fill="#ffc9b0"/><path d="M213,155.55c-2.92,0-5.29-2.1-5.29-4.7s2.37-4.69,5.29-4.69,5.29,2.1,5.29,4.69S215.9,155.55,213,155.55Zm0-7.39a2.75,2.75,0,1,0,3.29,2.69C216.28,149.37,214.8,148.16,213,148.16Z" fill="#093f68"/><path d="M208.46,139.89l-4.18-5.39s-.95,3.32-1.52,5.37l-6.61,0L194.6,135l-1.83,4.8h-5.12V150a12.94,12.94,0,0,0,12.94,12.95h0A12.94,12.94,0,0,0,213.53,150V139.9Z" fill="#ffc9b0"/><path d="M200.59,163.91A14,14,0,0,1,186.65,150V139.83a1,1,0,0,1,.29-.71,1,1,0,0,1,.71-.29h4.43l1.59-4.15a.94.94,0,0,1,1-.65,1,1,0,0,1,.92.7l1.33,4.11,5.12,0c.57-2,1.31-4.64,1.31-4.64a1,1,0,0,1,.77-.71,1,1,0,0,1,1,.37l3.88,5h4.59a1,1,0,0,1,1,1V150A14,14,0,0,1,200.59,163.91Zm-11.94-23.08V150a11.95,11.95,0,1,0,23.89,0V140.9h-4.08a1,1,0,0,1-.79-.39l-3-3.82c-.31,1.08-.69,2.43-1,3.46a1,1,0,0,1-1,.73h0l-6.6,0a1,1,0,0,1-1-.69l-.68-2.11-.82,2.15a1,1,0,0,1-.93.64h-4.12Z" fill="#093f68"/><path d="M200.52,153.11a7.35,7.35,0,0,1-1.27-.11,1,1,0,0,1-.81-1.15,1,1,0,0,1,1.16-.82,5.15,5.15,0,0,0,.94.08,12.48,12.48,0,0,0-.83-2,1,1,0,0,1,1.77-.93q1.53,2.94,1,4.07a1.28,1.28,0,0,1-.85.72A4.91,4.91,0,0,1,200.52,153.11Z" fill="#093f68"/><path d="M179.94,164.24v13.38a33.09,33.09,0,0,1-28.19,0V164.24a9.53,9.53,0,0,1,9.54-9.53h9.11A9.53,9.53,0,0,1,179.94,164.24Z" fill="#68e1fd"/><path d="M165.79,181.79a34,34,0,0,1-14.47-3.22,1,1,0,0,1-.57-.9V164.24a10.55,10.55,0,0,1,10.54-10.53h9.11a10.55,10.55,0,0,1,10.54,10.53v13.38a1,1,0,0,1-.57.9,34.07,34.07,0,0,1-14.58,3.27Zm-13-4.76a31.91,31.91,0,0,0,5.38,1.84,32.42,32.42,0,0,0,15.42,0,31.79,31.79,0,0,0,5.39-1.86V164.24a8.55,8.55,0,0,0-8.54-8.53h-9.11a8.55,8.55,0,0,0-8.54,8.53Zm27.19.59h0Z" fill="#093f68"/><path d="M164.88,114.34a4.51,4.51,0,0,1,2.16,2.31,3.7,3.7,0,0,1,3.14-1.54,4.24,4.24,0,0,1,2,.59c.59.37.92,1.12,1.51,1.43s1.14.1,1.82.08a9.26,9.26,0,0,1,2.86.47,4.6,4.6,0,0,1,2.43,1.36,3.77,3.77,0,0,1,.49,2.95c3.16-1.09,4.07,3.76,2.52,5.6a4.86,4.86,0,0,1-.94,7.11c.88.7.57,2.08.18,3.13-.73,2-.87,3.78-3.12,4-1.19.09-2.42,0-3.61,0h-27c.47,0-1.31-2.75-1.36-2.86a5.12,5.12,0,0,1-.06-4,4.39,4.39,0,0,1,.05-6.76,5.44,5.44,0,0,1,2.8-7.15,4.2,4.2,0,0,1,2.77-4.16c1.77-.73,3.53-.42,5.37-.36.44-1.66,2.51-2.7,4.14-2.63A4.29,4.29,0,0,1,164.88,114.34Z" fill="#725858"/><path d="M178.78,142.83l-1.24,0-1.17,0h-27a1,1,0,0,1-1-1,1.09,1.09,0,0,1,0-.18,19.42,19.42,0,0,0-1.06-1.9c-.14-.21-.21-.36-.23-.39a6.12,6.12,0,0,1-.3-4.08,5.48,5.48,0,0,1,0-7.34,6.52,6.52,0,0,1,3-7.49,5.38,5.38,0,0,1,3.42-4.47,10.1,10.1,0,0,1,4.73-.48l.36,0a5.34,5.34,0,0,1,7-2,5.5,5.5,0,0,1,1.91,1.57,4.76,4.76,0,0,1,3-.91,5.15,5.15,0,0,1,2.54.74,4,4,0,0,1,1,.92,2.38,2.38,0,0,0,.48.48c.14.08.26.08.65,0,.22,0,.44,0,.68-.06a10.29,10.29,0,0,1,3.16.51,5.48,5.48,0,0,1,3,1.7,4.06,4.06,0,0,1,.77,2.42,3.06,3.06,0,0,1,2.34,1.39,5.56,5.56,0,0,1,.32,5.3,5.69,5.69,0,0,1,.86,3.95,5.78,5.78,0,0,1-1.66,3.42,4.56,4.56,0,0,1-.24,3.27c-.12.33-.22.64-.32,1-.53,1.63-1.12,3.47-3.66,3.67C179.63,142.82,179.2,142.83,178.78,142.83Zm-28.52-2h26.11l1.22,0a22.07,22.07,0,0,0,2.31,0c1.15-.09,1.39-.66,1.92-2.29.1-.33.21-.67.34-1,.38-1,.43-1.76.14-2a1,1,0,0,1-.38-.84,1,1,0,0,1,.47-.8,3.88,3.88,0,0,0,.74-5.58,1,1,0,0,1,0-1.33,3.46,3.46,0,0,0,0-3.58,1.09,1.09,0,0,0-1.44-.42,1,1,0,0,1-1-.17,1,1,0,0,1-.35-.91,3,3,0,0,0-.29-2.21,3.9,3.9,0,0,0-1.93-1,8.22,8.22,0,0,0-2.55-.42l-.46.05a2.88,2.88,0,0,1-1.86-.25,3.54,3.54,0,0,1-1.06-1,2.6,2.6,0,0,0-.5-.5,3.19,3.19,0,0,0-1.55-.44,2.68,2.68,0,0,0-2.28,1.1,1,1,0,0,1-.94.43,1,1,0,0,1-.82-.62,3.52,3.52,0,0,0-1.68-1.79h0a3.42,3.42,0,0,0-1.34-.35c-1.23,0-2.83.75-3.13,1.89a1,1,0,0,1-1,.74q-.57,0-1.11-.06a8.53,8.53,0,0,0-3.85.34,3.22,3.22,0,0,0-2.16,3.09,1,1,0,0,1-.63,1.08,4.43,4.43,0,0,0-2.26,5.78,1,1,0,0,1-.32,1.25,3.18,3.18,0,0,0-1.19,2.57,3.14,3.14,0,0,0,1.16,2.58,1,1,0,0,1,.32,1.19,4.14,4.14,0,0,0,.06,3.2l.09.14A22.51,22.51,0,0,1,150.26,140.79Z" fill="#093f68"/><path d="M163.57,152.88h4.8a0,0,0,0,1,0,0v2.76a2,2,0,0,1-2,2h-.72a2,2,0,0,1-2-2v-2.76A0,0,0,0,1,163.57,152.88Z" fill="#ffc9b0"/><path d="M166.33,158.68h-.72a3,3,0,0,1-3-3v-2.76a1,1,0,0,1,1-1h4.8a1,1,0,0,1,1,1v2.76A3,3,0,0,1,166.33,158.68Zm-1.76-4.8v1.76a1,1,0,0,0,1,1h.72a1,1,0,0,0,1-1v-1.76Z" fill="#093f68"/><ellipse cx="153.06" cy="140.43" rx="4.39" ry="4.01" fill="#ffc9b0"/><path d="M153.06,145.44a5,5,0,1,1,5.38-5A5.22,5.22,0,0,1,153.06,145.44Zm0-8a3,3,0,1,0,3.38,3A3.23,3.23,0,0,0,153.06,137.41Z" fill="#093f68"/><ellipse cx="178.63" cy="140.43" rx="4.39" ry="4.01" fill="#ffc9b0"/><path d="M178.63,145.44a5,5,0,1,1,5.39-5A5.22,5.22,0,0,1,178.63,145.44Zm0-8a3,3,0,1,0,3.39,3A3.23,3.23,0,0,0,178.63,137.41Z" fill="#093f68"/><path d="M166,153.51a14,14,0,0,1-13.69-10.87,22.5,22.5,0,0,1-.1-7.55,3.49,3.49,0,0,1,.33-1.44c-.15.27,2.94-.4,3.25-.59a4.23,4.23,0,0,0,2.16-3.32,2.83,2.83,0,0,0,3.31.2,6.89,6.89,0,0,0,2.33-2.63,4,4,0,0,0,3,2.7,4.14,4.14,0,0,0,3.75-1.29,2.69,2.69,0,0,0,2.66,2.8,3.42,3.42,0,0,0,3.08-1.47,3.45,3.45,0,0,0,1.36,2.55,3.4,3.4,0,0,0,2.83.58,29.89,29.89,0,0,1,.17,3.4c-.08,1-.35,1.9-.35,2.88A14,14,0,0,1,166,153.51Z" fill="#ffc9b0"/><path d="M166,154.51a15.08,15.08,0,0,1-14.67-11.65,22.68,22.68,0,0,1-.15-7.52l0-.34a4.58,4.58,0,0,1,.45-1.83h0a1,1,0,0,1,1.2-.47,17.42,17.42,0,0,0,2.5-.53,3.23,3.23,0,0,0,1.59-2.49,1,1,0,0,1,1.69-.66,1.88,1.88,0,0,0,2.12,0,6,6,0,0,0,2-2.27,1,1,0,0,1,1-.49,1,1,0,0,1,.84.71,3,3,0,0,0,2.19,2,3.14,3.14,0,0,0,2.85-1,1,1,0,0,1,1.11-.22,1,1,0,0,1,.6,1,1.72,1.72,0,0,0,1.75,1.77,2.42,2.42,0,0,0,2.16-1,1,1,0,0,1,1.09-.4,1,1,0,0,1,.74.91,2.4,2.4,0,0,0,3,2.21,1,1,0,0,1,.84.18,1,1,0,0,1,.4.76c0,.39.05.79.08,1.18a12,12,0,0,1,.08,2.33c0,.42-.1.85-.17,1.27a9.3,9.3,0,0,0-.17,1.53A15.07,15.07,0,0,1,166,154.51Zm-12.74-19.84-.06.51,0,.34a20.65,20.65,0,0,0,.11,6.89A13.05,13.05,0,0,0,179,139.46a10.93,10.93,0,0,1,.2-1.86c.06-.37.12-.73.15-1.1a11.23,11.23,0,0,0-.08-2,2.11,2.11,0,0,0,0-.25,4.4,4.4,0,0,1-3.78-2.38,4.38,4.38,0,0,1-2.65.63,3.85,3.85,0,0,1-3.21-2.06,4.86,4.86,0,0,1-3.31.53,4.91,4.91,0,0,1-2.85-1.75,6,6,0,0,1-1.75,1.57,4.2,4.2,0,0,1-3.12.42,5.43,5.43,0,0,1-2.34,2.7A13.75,13.75,0,0,1,153.23,134.67Z" fill="#093f68"/><path d="M165.9,142.79a9.89,9.89,0,0,1-1.37-.11,1,1,0,0,1-.81-1.16,1,1,0,0,1,1.16-.81,7.34,7.34,0,0,0,1.15.08,13.33,13.33,0,0,0-.95-2.28,1,1,0,0,1,1.78-.92c1.09,2.09,1.47,3.55,1.11,4.34a1.28,1.28,0,0,1-.87.73A4.9,4.9,0,0,1,165.9,142.79Z" fill="#093f68"/><path d="M157.89,180.84a1,1,0,0,1-1-1V165a1,1,0,1,1,2,0v14.8A1,1,0,0,1,157.89,180.84Z" fill="#093f68"/><path d="M173.8,180.81a1,1,0,0,1-1-1V165a1,1,0,0,1,2,0v14.77A1,1,0,0,1,173.8,180.81Z" fill="#093f68"/><path d="M203.86,117a1,1,0,0,1-.77-1.65l42-49.8a1,1,0,0,1,1.41-.12,1,1,0,0,1,.12,1.41l-42,49.8A1,1,0,0,1,203.86,117Z" fill="#093f68"/><polygon points="226.11 89.65 222.97 77.37 239.41 56.54 243.22 69.36 226.11 89.65" fill="#68e1fd"/><path d="M226.11,90.65l-.22,0a1,1,0,0,1-.75-.73L222,77.62a1,1,0,0,1,.18-.87l16.45-20.83a1,1,0,0,1,1-.36,1,1,0,0,1,.77.7l3.81,12.82A1,1,0,0,1,244,70L226.88,90.3A1,1,0,0,1,226.11,90.65ZM224.06,77.6l2.54,9.92,15.51-18.39L239,58.67Z" fill="#093f68"/><polygon points="226.11 89.65 240.3 90.2 255.3 71.98 243.22 69.36 226.11 89.65" fill="#68e1fd"/><path d="M240.3,91.2h0l-14.19-.55a1,1,0,0,1-.87-.6,1,1,0,0,1,.15-1l17.11-20.29a1,1,0,0,1,1-.34L255.51,71a1,1,0,0,1,.56,1.61l-15,18.22A1,1,0,0,1,240.3,91.2Zm-12.1-2.47,11.65.45,13.64-16.57-9.89-2.15Z" fill="#093f68"/></g></svg>