<svg xmlns="http://www.w3.org/2000/svg" viewBox="0 0 400 300"><g id="_78_team_presentation_outline" data-name="#78_team_presentation_outline"><rect x="136.68" y="84.85" width="182.75" height="116.66" fill="#fff"/><path d="M319.44,202.51H136.68a1,1,0,0,1-1-1V84.85a1,1,0,0,1,1-1H319.44a1,1,0,0,1,1,1V201.51A1,1,0,0,1,319.44,202.51Zm-181.76-2H318.44V85.85H137.68Z" fill="#093f68"/><path d="M228.06,190.21H149.59a1,1,0,0,1-1-1V95.3a1,1,0,0,1,1-1h78.47a1,1,0,0,1,1,1v93.91A1,1,0,0,1,228.06,190.21Zm-77.47-2h76.47V96.3H150.59Z" fill="#dfeaef"/><path d="M139.43,215.15V188.68a17,17,0,0,0-17.05-17H106.1a17,17,0,0,0-17,17v26.47Z" fill="#68e1fd"/><path d="M139.43,216.15H89.06a1,1,0,0,1-1-1V188.68a18.07,18.07,0,0,1,18-18.05h16.28a18.07,18.07,0,0,1,18.05,18.05v26.47A1,1,0,0,1,139.43,216.15Zm-49.37-2h48.37V188.68a16.07,16.07,0,0,0-16.05-16.05H106.1a16.06,16.06,0,0,0-16,16.05Z" fill="#093f68"/><polygon points="110.99 173.31 115.28 202.63 119.56 173.31 110.99 173.31" fill="#f56132"/><path d="M115.28,203.63a1,1,0,0,1-1-.86L110,173.46a1,1,0,0,1,.24-.8,1,1,0,0,1,.75-.35h8.57a1,1,0,0,1,1,1.15l-4.28,29.31A1,1,0,0,1,115.28,203.63Zm-3.13-29.32,3.13,21.4,3.12-21.4Z" fill="#093f68"/><path d="M112.91,102.21a20,20,0,0,1,3.19-.24c4.92,0,10-.13,14.44,2.07a27.3,27.3,0,0,1,15.21,24.34v20.17H85.69c-.34-1.18.19-2.58.24-3.76a16.21,16.21,0,0,0-.58-3.9,53.44,53.44,0,0,1-1.18-10,38.77,38.77,0,0,1,3.23-15.38c1.2-2.92,2.61-5.94,5.19-7.76s6.66-1.88,8.5.68A20.58,20.58,0,0,1,112.91,102.21Z" fill="#725858"/><path d="M145.75,149.55H85.69a1,1,0,0,1-1-.72,6.52,6.52,0,0,1,0-2.92,9.24,9.24,0,0,0,.15-1.16,10.93,10.93,0,0,0-.37-2.79c-.07-.29-.13-.58-.19-.87a54.7,54.7,0,0,1-1.2-10.19,39.52,39.52,0,0,1,3.31-15.77c1.2-2.92,2.72-6.21,5.53-8.2,2.6-1.83,6.69-2.13,9.1,0a21.62,21.62,0,0,1,11.64-5.75,29.06,29.06,0,0,1,3.35-.26H117c4.7,0,9.57,0,14,2.17a28.26,28.26,0,0,1,15.77,25.24v20.17A1,1,0,0,1,145.75,149.55Zm-59.17-2h58.17V128.38a26.26,26.26,0,0,0-14.65-23.45c-4-2-8.65-2-13.12-2h-.88a21.63,21.63,0,0,0-3,.24h0a19.49,19.49,0,0,0-11.24,5.91,1,1,0,0,1-.8.32,1,1,0,0,1-.75-.42c-1.48-2.08-5-2-7.1-.45-2.38,1.68-3.7,4.54-4.84,7.33a37.62,37.62,0,0,0-3.16,15,53.19,53.19,0,0,0,1.16,9.82c0,.28.12.56.18.83a12.67,12.67,0,0,1,.42,3.31,11.48,11.48,0,0,1-.18,1.42A9.29,9.29,0,0,0,86.58,147.55Zm26.33-45.34h0Z" fill="#093f68"/><path d="M111,168.38h8.57a0,0,0,0,1,0,0v4.93a3.64,3.64,0,0,1-3.64,3.64h-1.29a3.64,3.64,0,0,1-3.64-3.64v-4.93A0,0,0,0,1,111,168.38Z" fill="#ffc9b0"/><path d="M115.92,178h-1.29a4.64,4.64,0,0,1-4.64-4.64v-4.93a1,1,0,0,1,1-1h8.57a1,1,0,0,1,1,1v4.93A4.64,4.64,0,0,1,115.92,178ZM112,169.38v3.93a2.65,2.65,0,0,0,2.64,2.64h1.29a2.64,2.64,0,0,0,2.64-2.64v-3.93Z" fill="#093f68"/><ellipse cx="90.79" cy="146.12" rx="8.33" ry="7.17" fill="#ffc9b0"/><path d="M90.79,154.29c-5.15,0-9.33-3.66-9.33-8.17s4.18-8.18,9.33-8.18,9.32,3.67,9.32,8.18S95.93,154.29,90.79,154.29Zm0-14.35c-4,0-7.33,2.77-7.33,6.18s3.29,6.17,7.33,6.17,7.32-2.77,7.32-6.17S94.83,139.94,90.79,139.94Z" fill="#093f68"/><ellipse cx="139.32" cy="146.12" rx="8.33" ry="7.17" fill="#ffc9b0"/><path d="M139.32,154.29c-5.14,0-9.32-3.66-9.32-8.17s4.18-8.18,9.32-8.18,9.33,3.67,9.33,8.18S144.47,154.29,139.32,154.29Zm0-14.35c-4,0-7.32,2.77-7.32,6.18s3.29,6.17,7.32,6.17,7.33-2.77,7.33-6.17S143.36,139.94,139.32,139.94Z" fill="#093f68"/><path d="M115.28,169.5h0a25.11,25.11,0,0,1-25.11-25.11V130.87s6.32-3.6,8.2-9.29c0,0,12,4.55,18.95,4.53a54.1,54.1,0,0,0,23.07-5v23.25A25.11,25.11,0,0,1,115.28,169.5Z" fill="#ffc9b0"/><path d="M115.28,170.5a26.14,26.14,0,0,1-26.11-26.11V130.88a1,1,0,0,1,.5-.87c.06,0,6-3.5,7.75-8.74a1,1,0,0,1,.52-.59,1,1,0,0,1,.78,0c.12,0,11.87,4.46,18.56,4.46h0a53.56,53.56,0,0,0,22.61-4.86,1,1,0,0,1,1,0,1,1,0,0,1,.49.85v23.25A26.14,26.14,0,0,1,115.28,170.5ZM91.17,131.44v12.95a24.11,24.11,0,1,0,48.22,0V122.71a57,57,0,0,1-22.07,4.4c-6,0-15.37-3.17-18.37-4.25C97,127.41,92.66,130.48,91.17,131.44Z" fill="#093f68"/><circle cx="103.65" cy="140.74" r="2.33" fill="#093f68"/><circle cx="127.63" cy="140.74" r="2.33" fill="#093f68"/><path d="M115.16,149.55a15.21,15.21,0,0,1-2.32-.19,1,1,0,0,1-.81-1.16,1,1,0,0,1,1.16-.81,10.92,10.92,0,0,0,3.13.08,17.37,17.37,0,0,0-1.93-5.14,1,1,0,0,1,1.77-.93c1,2,2.67,5.54,2,7.08a1.53,1.53,0,0,1-1,.87A8.5,8.5,0,0,1,115.16,149.55Z" fill="#093f68"/><path d="M116.86,159.24c-5.33,0-11-2.9-11.34-3.08a1,1,0,1,1,.92-1.77c.1.05,10.66,5.44,15.32,1.3a1,1,0,0,1,1.33,1.5A9.13,9.13,0,0,1,116.86,159.24Z" fill="#093f68"/><path d="M100,216.15a1,1,0,0,1-1-1v-25a1,1,0,0,1,2,0v25A1,1,0,0,1,100,216.15Z" fill="#093f68"/><path d="M128.45,216.15a1,1,0,0,1-1-1v-25a1,1,0,0,1,2,0v25A1,1,0,0,1,128.45,216.15Z" fill="#093f68"/><path d="M102.75,151.48a8.75,8.75,0,1,1,8.75-8.75A8.76,8.76,0,0,1,102.75,151.48Zm0-15.5a6.75,6.75,0,1,0,6.75,6.75A6.76,6.76,0,0,0,102.75,136Z" fill="#093f68"/><path d="M127.63,151.48a8.75,8.75,0,1,1,8.76-8.75A8.76,8.76,0,0,1,127.63,151.48Zm0-15.5a6.75,6.75,0,1,0,6.76,6.75A6.76,6.76,0,0,0,127.63,136Z" fill="#093f68"/><path d="M110.5,141.74a1,1,0,0,1-.58-1.82c.22-.16,5.48-3.79,10.47-.84a1,1,0,0,1-1,1.72c-3.88-2.3-8.25.72-8.3.75A.93.93,0,0,1,110.5,141.74Z" fill="#093f68"/><path d="M108.4,133.85h0l-11.09,0a2,2,0,0,1,0-4h0l11.09,0a2,2,0,0,1,0,4Z" fill="#093f68"/><path d="M124.21,134.12a2,2,0,0,1-.1-4l11.07-.57a2,2,0,0,1,.21,4l-11.08.56Z" fill="#093f68"/><rect x="85.24" y="187.72" width="22.25" height="27.59" transform="translate(-39.14 23.94) rotate(-11.79)" fill="#70cc40"/><path d="M88.3,218.29a1,1,0,0,1-.55-.16,1,1,0,0,1-.43-.63l-5.64-27a1,1,0,0,1,.77-1.19l21.78-4.54a1,1,0,0,1,.75.14,1,1,0,0,1,.44.63l5.63,27a1,1,0,0,1-.77,1.18L88.5,218.27A.71.71,0,0,1,88.3,218.29Zm-4.46-27.23,5.23,25.05L108.89,212l-5.23-25.05Z" fill="#093f68"/><path d="M97.3,206.81a1.76,1.76,0,0,0-2.42-.62,1.76,1.76,0,1,0-1.79-3,1.77,1.77,0,1,0-1.8-3,1.77,1.77,0,0,0-1.8-3l-5.44,3.21A6.92,6.92,0,0,0,81,208.65c.46,1.28,1.23,3.2,2.34,4a5.9,5.9,0,0,0,4,1.08c3.32-.28,6.59-2.89,9.37-4.53A1.76,1.76,0,0,0,97.3,206.81Z" fill="#ffc9b0"/><path d="M86.79,214.78a6.81,6.81,0,0,1-4.07-1.3c-1.3-1-2.11-2.91-2.68-4.5a7.92,7.92,0,0,1,3.5-9.56L89,196.21A2.76,2.76,0,0,1,93.12,199a2.77,2.77,0,0,1,1.8,3,2.7,2.7,0,0,1,1.45,1.19,2.78,2.78,0,0,1,.35,1.85,2.72,2.72,0,0,1,1.44,1.19,2.76,2.76,0,0,1-1,3.79c-.59.35-1.2.74-1.84,1.15-2.39,1.54-5.11,3.28-8,3.51Q87.09,214.78,86.79,214.78Zm3.6-17a.79.79,0,0,0-.39.11l-5.44,3.21a5.94,5.94,0,0,0-2.64,7.17c.26.7,1,2.84,2,3.57a4.85,4.85,0,0,0,3.31.88c2.35-.19,4.84-1.79,7-3.21.66-.42,1.29-.82,1.9-1.18a.75.75,0,0,0,.35-.47.78.78,0,0,0-.08-.58A.73.73,0,0,0,96,207a.74.74,0,0,0-.58.08A1,1,0,0,1,94,206.7a1.06,1.06,0,0,1-.14-.51,1,1,0,0,1,.5-.86.79.79,0,0,0,.35-.47.74.74,0,0,0-.09-.58.73.73,0,0,0-.46-.35.78.78,0,0,0-.58.08,1,1,0,0,1-1.37-.35,1,1,0,0,1-.14-.51,1,1,0,0,1,.49-.86.77.77,0,0,0,.27-1,.75.75,0,0,0-.47-.35.78.78,0,0,0-.58.08,1,1,0,0,1-1.37-.35,1.06,1.06,0,0,1-.14-.51,1,1,0,0,1,.49-.86.76.76,0,0,0,.27-1.05A.77.77,0,0,0,90.39,197.82Z" fill="#093f68"/><path d="M273.4,155.68a30.42,30.42,0,1,1,30.41-30.43,30.81,30.81,0,0,1-3.66,14.51A30.48,30.48,0,0,1,273.4,155.68Zm0-58.84a28.44,28.44,0,1,0,28.41,28.41A28.46,28.46,0,0,0,273.4,96.84Z" fill="#dfeaef"/><path d="M299.27,140.28a1,1,0,0,1-.48-.12l-25.87-14a1,1,0,0,1-.52-.88V95.84a1,1,0,0,1,1-1,30.44,30.44,0,0,1,30.41,30.41,30.81,30.81,0,0,1-3.66,14.51,1,1,0,0,1-.59.48A1,1,0,0,1,299.27,140.28ZM274.4,124.65l24.45,13.27A28.45,28.45,0,0,0,274.4,96.85Z" fill="#dfeaef"/><path d="M171.3,102.72s-6.52-2.17-12.69,5.44c-5.78,7.12-5.48,17.33-5.77,25.82-.35,10.25-1.08,18.32-7,30.22,2.9,2,3.53,3.37,6.8,4.7,1.13-2.07,3.79-6,3.79-6a45.53,45.53,0,0,1,.85,7.42,84.13,84.13,0,0,0,34.41,5.8c7.58-.32,15.59-1.81,21.9-6.28,5.56-3.93,1.31-14,1.55-20.37.43-11.63.26-27.88-5.76-38.45C201.49,97.22,180.42,90.87,171.3,102.72Z" fill="#725858"/><path d="M188.19,177.21a85.73,85.73,0,0,1-31.3-5.94,1,1,0,0,1-.63-1,29.66,29.66,0,0,0-.41-4.73c-.81,1.25-1.79,2.77-2.35,3.81a1,1,0,0,1-1.26.45,14.89,14.89,0,0,1-4.59-2.92,27.34,27.34,0,0,0-2.4-1.89,1,1,0,0,1-.33-1.27C150.81,152,151.5,144,151.84,134c0-.8,0-1.62.08-2.45.22-8.09.46-17.26,5.91-24s11.13-6.31,13.09-5.93c3.62-4.35,9.11-6.48,15.55-6a30.92,30.92,0,0,1,23.76,15c6.17,10.84,6.31,27.44,5.88,39a37.3,37.3,0,0,0,.63,6.41c.83,5.47,1.77,11.66-2.59,14.75-5.58,3.94-12.92,6.06-22.44,6.46C190.54,177.19,189.37,177.21,188.19,177.21Zm-29.93-7.55a83.41,83.41,0,0,0,33.37,5.48c9.12-.38,16.11-2.38,21.36-6.09,3.36-2.38,2.55-7.68,1.77-12.82a37.74,37.74,0,0,1-.64-6.78c.42-11.29.29-27.51-5.63-37.91a28.79,28.79,0,0,0-22.15-14c-6-.42-11.06,1.64-14.25,5.78a1,1,0,0,1-1.1.34c-.26-.09-6-1.81-11.61,5.12-5,6.18-5.25,15-5.46,22.76,0,.84,0,1.66-.08,2.47-.34,10.06-1,18.14-6.75,29.86.74.55,1.32,1.05,1.85,1.5a13.55,13.55,0,0,0,3.26,2.24c1.26-2.14,3.29-5.12,3.39-5.26a1,1,0,0,1,1-.42,1,1,0,0,1,.78.79A53,53,0,0,1,158.26,169.66Z" fill="#093f68"/><path d="M220.71,186.78c3.41,1.58,6.71,3.38,10,5.18,3.46-7.18,6.37-13.25,6.37-13.25.4-.83,3.78-10.1,3.6-14.94-.26-7-7.59-5.38-8.37-5.33-1.88.13-4.86,7.09-4.94,10.39a26.34,26.34,0,0,1-1.9-5.31c-.66-2.37-3.89-2.43-3.26,2.82a63.24,63.24,0,0,0,2.82,11.41l-2,4.12Z" fill="#ffc9b0"/><path d="M230.73,193a1,1,0,0,1-.47-.12l-.47-.26c-3.09-1.67-6.28-3.41-9.5-4.89a1,1,0,0,1-.52-.57,1,1,0,0,1,0-.77l4.16-8.66a62.29,62.29,0,0,1-2.73-11.23c-.55-4.54,1.53-5.31,2.18-5.44a2.78,2.78,0,0,1,3,2.23c.22.78.43,1.46.62,2.05,1-3.49,3.12-7.72,5.18-7.86l.24,0c1.17-.16,4.71-.64,7.07,1.36a6.45,6.45,0,0,1,2.13,5c.2,5.24-3.39,14.77-3.7,15.41h0l-6.37,13.25a1,1,0,0,1-.59.52A.81.81,0,0,1,230.73,193Zm-8.68-6.66c2.8,1.34,5.56,2.83,8.24,4.28l5.91-12.3c.44-.91,3.67-9.95,3.5-14.48a4.57,4.57,0,0,0-1.41-3.5c-1.7-1.42-4.57-1-5.52-.91l-.38.05c-1.06.29-3.93,6.17-4,9.42a1,1,0,0,1-1.87.47,27.21,27.21,0,0,1-2-5.54c-.16-.58-.52-.86-.72-.81s-.86,1-.59,3.24a63.11,63.11,0,0,0,2.77,11.2,1,1,0,0,1,0,.76Z" fill="#093f68"/><path d="M232.58,173.72a1,1,0,0,1-1-.88,3.38,3.38,0,0,0-1.25-2.47,4,4,0,0,0-2.76-.55,1,1,0,0,1-.38-2,6,6,0,0,1,4.31.9,5.32,5.32,0,0,1,2.07,3.85,1,1,0,0,1-.87,1.11Z" fill="#093f68"/><path d="M221.6,181.22s-3.53,9.22-5.14,12.54c-4.09-4.18-11.77-15.26-15.08-17.86s-11-4.26-13.21-4.26H173.23c-8.64,0-15.64,7.63-15.64,17v26.47h46.22V202c5.71,6.17,9.95,9.44,14.09,9.44a8.42,8.42,0,0,0,3.28-.68c2-.82,6.46-2.69,13.6-22.32Z" fill="#68e1fd"/><path d="M203.81,216.15H157.59a1,1,0,0,1-1-1V188.68c0-10,7.46-18.05,16.64-18.05h14.94c2.41,0,10.33,1.74,13.83,4.49,1.93,1.51,5.06,5.5,8.37,9.72,2,2.6,4.14,5.27,5.81,7.14,1.72-3.89,4.45-11,4.49-11.12a1,1,0,0,1,.58-.58,1,1,0,0,1,.83.06l13.18,7.2a1,1,0,0,1,.46,1.22c-7.3,20.05-11.93,22-14.16,22.9a9.42,9.42,0,0,1-3.66.76c-4.29,0-8.4-3.1-13.09-7.92v10.65A1,1,0,0,1,203.81,216.15Zm-45.22-2h44.22V202a1,1,0,0,1,1.74-.68c6,6.48,9.86,9.12,13.35,9.12a7.38,7.38,0,0,0,2.89-.6c1.64-.68,5.93-2.47,12.75-20.94l-11.42-6.24c-1,2.54-3.46,8.88-4.76,11.56a1,1,0,0,1-.74.55,1,1,0,0,1-.87-.29c-1.86-1.9-4.45-5.2-6.95-8.39-3.09-3.94-6.29-8-8-9.38-3-2.34-10.39-4.06-12.6-4.06H173.23c-8.07,0-14.64,7.2-14.64,16.05Z" fill="#093f68"/><polygon points="179.43 173.31 183.61 204.74 188 173.31 179.43 173.31" fill="#ffbc0e"/><path d="M183.61,205.74h0a1,1,0,0,1-1-.87l-4.18-31.43a1,1,0,0,1,.24-.79,1,1,0,0,1,.75-.34H188a1,1,0,0,1,.76.34,1,1,0,0,1,.23.8l-4.39,31.43A1,1,0,0,1,183.61,205.74Zm-3-31.43,3.06,23,3.22-23Z" fill="#093f68"/><path d="M179.43,168.38H188a0,0,0,0,1,0,0v4.93a3.64,3.64,0,0,1-3.64,3.64h-1.29a3.64,3.64,0,0,1-3.64-3.64v-4.93A0,0,0,0,1,179.43,168.38Z" fill="#ffc9b0"/><path d="M184.36,178h-1.29a4.64,4.64,0,0,1-4.64-4.64v-4.93a1,1,0,0,1,1-1H188a1,1,0,0,1,1,1v4.93A4.64,4.64,0,0,1,184.36,178Zm-3.93-8.57v3.93a2.65,2.65,0,0,0,2.64,2.64h1.29a2.64,2.64,0,0,0,2.64-2.64v-3.93Z" fill="#093f68"/><ellipse cx="159.23" cy="146.12" rx="8.33" ry="7.17" fill="#ffc9b0"/><path d="M159.23,154.29c-5.15,0-9.33-3.66-9.33-8.17s4.18-8.18,9.33-8.18,9.32,3.67,9.32,8.18S164.37,154.29,159.23,154.29Zm0-14.35c-4,0-7.33,2.77-7.33,6.18s3.29,6.17,7.33,6.17,7.32-2.77,7.32-6.17S163.26,139.94,159.23,139.94Z" fill="#093f68"/><ellipse cx="207.76" cy="146.12" rx="8.33" ry="7.17" fill="#ffc9b0"/><path d="M207.76,154.29c-5.14,0-9.32-3.66-9.32-8.17s4.18-8.18,9.32-8.18,9.33,3.67,9.33,8.18S212.91,154.29,207.76,154.29Zm0-14.35c-4,0-7.32,2.77-7.32,6.18s3.28,6.17,7.32,6.17,7.33-2.77,7.33-6.17S211.8,139.94,207.76,139.94Z" fill="#093f68"/><path d="M199,124.84l-8.13-10.45-3,10.42-12.8,0-3-9.33-3.55,9.31-9.93,0v19.67a25.11,25.11,0,0,0,25.11,25.11h0a25.11,25.11,0,0,0,25.11-25.11V124.87Z" fill="#ffc9b0"/><path d="M183.72,170.5a26.14,26.14,0,0,1-26.11-26.11V124.72a1,1,0,0,1,1-1h0l9.24,0,3.31-8.66a1,1,0,0,1,1-.65,1,1,0,0,1,.92.69l2.8,8.64,11.32,0c1.12-4,2.74-9.68,2.74-9.68a1,1,0,0,1,.77-.71,1,1,0,0,1,1,.37l7.83,10.06,9.35,0a1,1,0,0,1,1,1v19.52A26.14,26.14,0,0,1,183.72,170.5Zm-24.11-44.78v18.67a24.11,24.11,0,0,0,48.22,0V125.86l-8.84,0a1,1,0,0,1-.79-.39l-6.91-8.88c-.63,2.21-1.67,5.89-2.41,8.51a1,1,0,0,1-1,.73h0l-12.81,0a1,1,0,0,1-.94-.69L172,118.45l-2.54,6.65a1,1,0,0,1-.93.65Z" fill="#093f68"/><circle cx="172.09" cy="140.74" r="2.33" fill="#093f68"/><circle cx="196.07" cy="140.74" r="2.33" fill="#093f68"/><path d="M183.6,149.55a15.21,15.21,0,0,1-2.32-.19,1,1,0,0,1-.81-1.16,1,1,0,0,1,1.16-.81,10.92,10.92,0,0,0,3.13.08,17.37,17.37,0,0,0-1.93-5.14,1,1,0,0,1,1.77-.93c1,2,2.67,5.54,2,7.08a1.53,1.53,0,0,1-1,.87A8.5,8.5,0,0,1,183.6,149.55Z" fill="#093f68"/><path d="M176.84,134.78h0l-11.09,0a2,2,0,0,1,0-4h0l11.09,0a2,2,0,0,1,0,4Z" fill="#093f68"/><path d="M192.65,135.05a2,2,0,0,1-.1-4l11.07-.56a2,2,0,0,1,.21,4l-11.08.57Z" fill="#093f68"/><path d="M185.3,159.24c-5.33,0-11-2.9-11.34-3.08a1,1,0,1,1,.92-1.77c.1.05,10.66,5.44,15.32,1.3a1,1,0,0,1,1.33,1.5A9.13,9.13,0,0,1,185.3,159.24Z" fill="#093f68"/><path d="M203.81,203a1,1,0,0,1-1-1V189.73a1,1,0,1,1,2,0V202A1,1,0,0,1,203.81,203Z" fill="#093f68"/><path d="M167,215.48a1,1,0,0,1-1-1V188.55a1,1,0,0,1,2,0v25.93A1,1,0,0,1,167,215.48Z" fill="#093f68"/><path d="M298.22,189.83H248.57a1,1,0,0,1-1-1V161.38a1,1,0,0,1,2,0v26.45h48.65a1,1,0,0,1,0,2Z" fill="#dfeaef"/><path d="M262.36,189.83h-8.77a1,1,0,0,1-1-1V180.9a1,1,0,0,1,1-1h8.77a1,1,0,0,1,1,1v7.93A1,1,0,0,1,262.36,189.83Zm-7.77-2h6.77V181.9h-6.77Z" fill="#dfeaef"/><path d="M277.19,189.83h-8.78a1,1,0,0,1-1-1V165.75a1,1,0,0,1,1-1h8.78a1,1,0,0,1,1,1v23.08A1,1,0,0,1,277.19,189.83Zm-7.78-2h6.78V166.75h-6.78Z" fill="#dfeaef"/><path d="M292,189.83h-8.78a1,1,0,0,1-1-1v-16a1,1,0,0,1,1-1H292a1,1,0,0,1,1,1v16A1,1,0,0,1,292,189.83Zm-7.78-2H291v-14h-6.78Z" fill="#dfeaef"/><path d="M272.8,137.36H259.66a1,1,0,0,1,0-2H272.8a1,1,0,0,1,0,2Z" fill="#dfeaef"/><path d="M272.8,141.74H259.66a1,1,0,0,1,0-2H272.8a1,1,0,0,1,0,2Z" fill="#dfeaef"/><path d="M293.79,115.39h-9a1,1,0,0,1,0-2h9a1,1,0,0,1,0,2Z" fill="#dfeaef"/></g></svg>