<svg xmlns="http://www.w3.org/2000/svg" viewBox="0 0 400 300"><g id="_126_team_presentation_outline" data-name="#126_team_presentation_outline"><rect x="217.95" y="82.15" width="103.21" height="68.95" rx="5.32" fill="#fff"/><path d="M315.84,152.1H223.27a6.33,6.33,0,0,1-6.32-6.32V87.47a6.33,6.33,0,0,1,6.32-6.32h92.57a6.33,6.33,0,0,1,6.32,6.32v58.31A6.33,6.33,0,0,1,315.84,152.1ZM223.27,83.15A4.33,4.33,0,0,0,219,87.47v58.31a4.33,4.33,0,0,0,4.32,4.32h92.57a4.33,4.33,0,0,0,4.32-4.32V87.47a4.33,4.33,0,0,0-4.32-4.32Z" fill="#093f68"/><path d="M321.16,142.17v3.61a5.32,5.32,0,0,1-5.32,5.32H223.27a5.32,5.32,0,0,1-5.32-5.32v-3.61Z" fill="#68e1fd"/><path d="M315.84,152.1H223.27a6.33,6.33,0,0,1-6.32-6.32v-3.61a1,1,0,0,1,1-1H321.16a1,1,0,0,1,1,1v3.61A6.33,6.33,0,0,1,315.84,152.1ZM219,143.17v2.61a4.33,4.33,0,0,0,4.32,4.32h92.57a4.33,4.33,0,0,0,4.32-4.32v-2.61Z" fill="#093f68"/><path d="M203.37,136.56c2.13,2.29,4.11,4.72,6.09,7.15,3-2.69,9.43-6.72,10.25-10.94a5.19,5.19,0,0,0-.91-4,11,11,0,0,0-.85-1l3.11-3.68a3.11,3.11,0,0,0,.67-1,1.1,1.1,0,0,0-.22-1.14c-.54-.5-1.4-.07-2,.38-2,1.55-3.76,3.57-5.77,5a14.59,14.59,0,0,0,.3-3c0-.36-.17-.83-.53-.84a.73.73,0,0,0-.43.19,8.81,8.81,0,0,0-2.37,3.84,14.14,14.14,0,0,1-4.26,6.21C206.2,134,203.38,136.58,203.37,136.56Z" fill="#ffc9b0"/><path d="M209.46,144.71h-.07a1,1,0,0,1-.7-.37l-.33-.39c-1.83-2.24-3.73-4.56-5.72-6.7l.73-.69-.63-.77,1.63-1.48,1.44-1.31a13.25,13.25,0,0,0,4-5.83l.09-.21a9.2,9.2,0,0,1,2.6-4,1.78,1.78,0,0,1,1.06-.4,1.68,1.68,0,0,1,1.51,1.79c0,.23,0,.45,0,.67l1-.91a36.8,36.8,0,0,1,2.88-2.54c1.25-1,2.47-1.06,3.28-.31a2.1,2.1,0,0,1,.49,2.19,4.4,4.4,0,0,1-.85,1.35l-2.55,3c.11.13.22.26.32.4a6.22,6.22,0,0,1,1.09,4.8c-.7,3.6-4.79,6.84-8.07,9.45-.94.74-1.82,1.44-2.49,2A1,1,0,0,1,209.46,144.71Zm-4.67-8.08c1.66,1.84,3.25,3.77,4.8,5.65.54-.45,1.15-.94,1.78-1.44,3-2.4,6.8-5.39,7.36-8.26a4.18,4.18,0,0,0-.74-3.23,8.76,8.76,0,0,0-.76-.87,1,1,0,0,1,0-1.33l3.11-3.68a2.63,2.63,0,0,0,.48-.69v0a2.44,2.44,0,0,0-.66.37,34.08,34.08,0,0,0-2.72,2.4,33.7,33.7,0,0,1-3.06,2.66,1,1,0,0,1-1.12,0,1,1,0,0,1-.46-1l.06-.37a16.75,16.75,0,0,0,.21-1.68,11.18,11.18,0,0,0-1.31,2.56l-.09.21a15.29,15.29,0,0,1-4.52,6.58c-.12.1-.75.67-1.4,1.27Z" fill="#093f68"/><path d="M206.26,133.46s-9.37,6.29-11.11,7.16c0,0-10-12.16-20.5-12.16H163.11c-6.67,0-12.07,6-12.07,13.32v20.69h34V149c4.72,2.69,7.4,4.25,9.56,4.75,3,.71,6.64-1.65,16.56-11.86Z" fill="#ffbc0e"/><path d="M185.06,163.47H151a1,1,0,0,1-1-1V141.78c0-7.9,5.86-14.32,13.07-14.32h11.54c9.56,0,18.45,9.31,20.72,11.89,2.25-1.34,8-5.18,10.33-6.72a1,1,0,0,1,.78-.15,1,1,0,0,1,.64.47l4.93,8.42a1,1,0,0,1-.15,1.21c-10,10.25-13.89,13-17.51,12.14-2.06-.48-4.47-1.81-8.33-4v11.76A1,1,0,0,1,185.06,163.47Zm-33-2h32V149a1,1,0,0,1,1.49-.87l.83.47c4.1,2.33,6.57,3.74,8.46,4.18,2.64.61,6.35-2.09,15.09-11l-4-6.85c-2.39,1.6-8.86,5.9-10.33,6.64a1,1,0,0,1-1.22-.26c-.1-.12-9.81-11.8-19.73-11.8H163.11C157,129.46,152,135,152,141.78Z" fill="#093f68"/><rect x="166.17" y="129.64" width="7.99" height="32.83" fill="#fff"/><path d="M174.16,163.47h-8a1,1,0,0,1-1-1V129.64a1,1,0,0,1,1-1h8a1,1,0,0,1,1,1v32.83A1,1,0,0,1,174.16,163.47Zm-7-2h6V130.64h-6Z" fill="#093f68"/><path d="M159.75,162.46a1,1,0,0,1-1-1V136.19a1,1,0,0,1,2,0v25.27A1,1,0,0,1,159.75,162.46Z" fill="#093f68"/><path d="M166.9,125.9h6.34a0,0,0,0,1,0,0v3.65a2.69,2.69,0,0,1-2.69,2.69h-1a2.69,2.69,0,0,1-2.69-2.69V125.9a0,0,0,0,1,0,0Z" transform="translate(-23.42 38.83) rotate(-12.19)" fill="#ffc9b0"/><path d="M169.7,133.32a3.68,3.68,0,0,1-3.6-2.91l-.77-3.56a1,1,0,0,1,.76-1.19l6.2-1.34a1,1,0,0,1,.75.14,1,1,0,0,1,.44.63l.77,3.56a3.73,3.73,0,0,1-.51,2.78,3.66,3.66,0,0,1-2.32,1.61l-.94.2A3.44,3.44,0,0,1,169.7,133.32Zm-2.21-5.92.56,2.59a1.69,1.69,0,0,0,2,1.29l.94-.2h0a1.66,1.66,0,0,0,1.06-.73,1.7,1.7,0,0,0,.23-1.28l-.56-2.58Z" fill="#093f68"/><ellipse cx="181.84" cy="105.88" rx="4.75" ry="5.3" transform="translate(-18.26 40.8) rotate(-12.19)" fill="#ffc9b0"/><path d="M182.05,112.16a5.57,5.57,0,0,1-3.28-1.1,6.73,6.73,0,0,1-1.87-8.63,5.41,5.41,0,0,1,8-1.74,6.75,6.75,0,0,1,1.86,8.64,5.45,5.45,0,0,1-3.61,2.71A5.33,5.33,0,0,1,182.05,112.16Zm-.42-10.56a3.33,3.33,0,0,0-.7.07,3.51,3.51,0,0,0-2.29,1.75,4.74,4.74,0,0,0,1.3,6,3.41,3.41,0,0,0,5.11-1.1,4.6,4.6,0,0,0,.45-3.25h0a4.57,4.57,0,0,0-1.76-2.78A3.59,3.59,0,0,0,181.63,101.6Z" fill="#093f68"/><path d="M142.92,96.68c.82,5.24,2.43,14.44,5.08,18.83,4.56,7.55,13.55,13.68,21.53,12a16.68,16.68,0,0,0,13-12.68c.7-2.86.14-11.39-2.09-19.59S177,82.74,160.53,83.62C147.83,84.3,142.1,91.43,142.92,96.68Z" fill="#ffc9b0"/><path d="M166.68,128.77c-7.79,0-15.47-6-19.53-12.75-2-3.32-3.72-9.6-5.22-19.19a9.53,9.53,0,0,1,2.32-7.36c1.9-2.33,6.52-6.33,16.22-6.85,16.62-.89,18.53,3.37,21,12.32,2.2,8.12,2.86,17,2.1,20.09a17.74,17.74,0,0,1-13.79,13.42A14.46,14.46,0,0,1,166.68,128.77ZM164.63,84.5c-1.23,0-2.57,0-4,.12-6.52.35-11.9,2.58-14.77,6.11a7.5,7.5,0,0,0-1.9,5.79h0c.54,3.43,2.16,13.86,5,18.47,4.12,6.83,12.69,13.18,20.46,11.5a15.75,15.75,0,0,0,12.26-11.93c.6-2.46.2-10.67-2.08-19.1C177.52,88.19,176.52,84.5,164.63,84.5Z" fill="#093f68"/><ellipse cx="162.96" cy="105.43" rx="1.72" ry="1.71" transform="translate(-18.59 36.8) rotate(-12.19)" fill="#093f68"/><circle cx="176.33" cy="101.82" r="1.72" fill="#093f68"/><path d="M168.94,110a1,1,0,0,1-.09-2,17.5,17.5,0,0,0,3.32-.65,13.94,13.94,0,0,0-2.56-2.81,1,1,0,0,1,1.32-1.51c1.65,1.44,3.58,3.45,3.34,4.87a1.53,1.53,0,0,1-1,1.16A18,18,0,0,1,169,110Zm3.36-2.34h0Z" fill="#093f68"/><path d="M156.62,103.5a1.62,1.62,0,0,1-.31,0,2,2,0,0,1-1.68-2.31,6,6,0,0,1,5-4.7c4-.83,6,.94,6.23,1.14l-2.77,2.89.09.08s-.82-.59-2.74-.19c-1.51.31-1.79,1.26-1.83,1.44A2,2,0,0,1,156.62,103.5Z" fill="#093f68"/><path d="M173.29,99.3a2,2,0,0,1-1.62-3.16,8.21,8.21,0,0,1,5-3c3.08-.52,4.73,1.06,5.21,2.07a2,2,0,0,1-3.5,1.92,1.69,1.69,0,0,0-1,0,4.33,4.33,0,0,0-2.46,1.45A2,2,0,0,1,173.29,99.3Zm5-2.39h0Zm0,0Zm0,0h0Z" fill="#093f68"/><path d="M167.87,115l6.24-1.43s.54,5.23-2,6.12S167.87,115,167.87,115Z" fill="#fff"/><path d="M171.59,120.73a2.71,2.71,0,0,1-1.22-.3c-2.11-1.05-3.32-4.76-3.45-5.18a1,1,0,0,1,.73-1.27l6.23-1.43a1,1,0,0,1,.81.16,1,1,0,0,1,.41.71c.06.61.53,6-2.64,7.16A2.57,2.57,0,0,1,171.59,120.73Zm-2.39-5.06c.51,1.2,1.29,2.58,2.07,3a.58.58,0,0,0,.53,0c1-.36,1.35-2.37,1.36-3.93Z" fill="#093f68"/><path d="M185.06,150a1,1,0,0,1-1-1v-11.6a1,1,0,0,1,2,0V149A1,1,0,0,1,185.06,150Z" fill="#093f68"/><path d="M160.9,87.91a9.83,9.83,0,0,1-.28,8,14.58,14.58,0,0,0,10.81-10.57,17.42,17.42,0,0,1,3,6.87c3.34-.5,7-2.5,7.35-5.86a6.38,6.38,0,0,0-3.28-5.77,15.2,15.2,0,0,0-6.71-1.77,50.88,50.88,0,0,0-23.42,3.71c-4.6,1.91-8.94,5.81-8.67,11.15a38.14,38.14,0,0,0,1.77,9.7c.21.66,3.18,8.42,3.39,8.36l4.06-1.12a.91.91,0,0,0,.42-.2,1,1,0,0,0,.2-.52,25.63,25.63,0,0,0,.22-5.18c-.11-1.87-.31-2,1.2-3.2a30,30,0,0,0,6-6.17C157.82,94.21,161.49,89.34,160.9,87.91Z" fill="#725858"/><path d="M144.76,112.76c-.68,0-1-.83-2.49-4.57-.78-2-1.59-4.14-1.71-4.51a39,39,0,0,1-1.82-10c-.3-6,4.6-10.18,9.29-12.12a51.89,51.89,0,0,1,23.88-3.79,16.22,16.22,0,0,1,7.15,1.92,7.28,7.28,0,0,1,3.75,6.73c-.4,3.87-4.4,6.17-8.19,6.74a1,1,0,0,1-1.13-.79,16.26,16.26,0,0,0-1.76-4.76,15.62,15.62,0,0,1-10.9,9.24,1,1,0,0,1-1-.37,1,1,0,0,1-.11-1.06,8.63,8.63,0,0,0,.89-3.67A46.06,46.06,0,0,1,158,95.67l-.18.26a30.94,30.94,0,0,1-6.2,6.37c-.93.72-.93.72-.85,1.82l0,.53a25.57,25.57,0,0,1-.24,5.39,1.87,1.87,0,0,1-.46,1.07,1.78,1.78,0,0,1-.88.46l-4.05,1.12A1.35,1.35,0,0,1,144.76,112.76Zm-.12-2h0Zm23.23-31.11a49.78,49.78,0,0,0-19.08,3.8c-4,1.68-8.3,5.24-8,10.17a37.21,37.21,0,0,0,1.72,9.45c.22.69,2.16,5.71,2.95,7.48l3.19-.88a24.32,24.32,0,0,0,.2-4.9l0-.5c-.13-1.74,0-2.32,1.62-3.55a29.05,29.05,0,0,0,5.8-6l.19-.26c3.48-4.76,3.62-6,3.58-6.24a1,1,0,0,1,.56-1.28,1,1,0,0,1,1.31.56,10.87,10.87,0,0,1,.42,6.85,13.55,13.55,0,0,0,8.2-9.27,1,1,0,0,1,.78-.75,1,1,0,0,1,1,.39,18.4,18.4,0,0,1,3,6.3c2.66-.63,5.33-2.29,5.59-4.8.21-2-1.26-3.87-2.8-4.81a14.2,14.2,0,0,0-6.27-1.63C170.46,79.71,169.16,79.65,167.87,79.65Z" fill="#093f68"/><path d="M151,110.68s-6.86-3.25-8.4,1.22,2.23,10.7,9.13,7.15" fill="#ffc9b0"/><path d="M147.91,121.09a6.25,6.25,0,0,1-4.16-1.51,7.55,7.55,0,0,1-2.05-8,4.25,4.25,0,0,1,2.38-2.62c3-1.24,7.21.74,7.39.82a1,1,0,0,1-.86,1.81c-1-.47-4-1.53-5.75-.78a2.23,2.23,0,0,0-1.27,1.42,5.58,5.58,0,0,0,1.47,5.84c1.55,1.35,3.77,1.38,6.26.1a1,1,0,0,1,1.34.44,1,1,0,0,1-.43,1.34A9.48,9.48,0,0,1,147.91,121.09Z" fill="#093f68"/><path d="M215.82,136.84a2.47,2.47,0,0,1-.39,0,3.47,3.47,0,0,1-2-1.05,4.57,4.57,0,0,1-1.52-4.17,5.08,5.08,0,0,1,1.94-2.81,11.9,11.9,0,0,1,3-1.8,1,1,0,0,1,.77,1.85,9.62,9.62,0,0,0-2.48,1.49,3.2,3.2,0,0,0-1.25,1.69,2.71,2.71,0,0,0,1,2.31,1.25,1.25,0,0,0,1.81.24,5.13,5.13,0,0,0,1.5-1.24,1,1,0,1,1,1.55,1.26,7.21,7.21,0,0,1-2.1,1.74A3.77,3.77,0,0,1,215.82,136.84Z" fill="#093f68"/><rect x="78.84" y="162.48" width="132.33" height="11.4" rx="3.26" fill="#68e1fd"/><path d="M207.91,174.88H82.1a4.26,4.26,0,0,1-4.26-4.26v-4.87a4.27,4.27,0,0,1,4.26-4.27H207.91a4.27,4.27,0,0,1,4.26,4.27v4.87A4.26,4.26,0,0,1,207.91,174.88ZM82.1,163.48a2.27,2.27,0,0,0-2.26,2.27v4.87a2.26,2.26,0,0,0,2.26,2.26H207.91a2.26,2.26,0,0,0,2.26-2.26v-4.87a2.27,2.27,0,0,0-2.26-2.27Z" fill="#093f68"/><rect x="84.6" y="173.88" width="120.82" height="52.63" fill="#68e1fd"/><path d="M205.42,227.51H84.6a1,1,0,0,1-1-1V173.88a1,1,0,0,1,1-1H205.42a1,1,0,0,1,1,1v52.63A1,1,0,0,1,205.42,227.51Zm-119.82-2H204.42V174.88H85.6Z" fill="#093f68"/><path d="M100.44,84.84s-4.5-1.5-8.77,3.75C84.61,97.31,88,109.73,85.3,120c-1.12,4.23-3.15,8.28-3.39,12.65-.42,7.77,5.21,15,12.35,18.13s15.4,2.6,22.87.4c4.32-1.28,8.61-3.19,11.63-6.53,3.19-3.51,4.68-8.31,5-13s-.39-9.48-1.1-14.18c-1.36-8.86-1.89-18.68-5.95-26.78C121.29,81,106.74,76.66,100.44,84.84Z" fill="#725858"/><path d="M105.45,153.92a28.87,28.87,0,0,1-11.59-2.28c-8-3.49-13.37-11.34-12.94-19.09a32.29,32.29,0,0,1,2.1-8.69c.46-1.36,1-2.77,1.32-4.16A55.5,55.5,0,0,0,85.64,108c.29-7,.59-14.27,5.26-20,3.68-4.54,7.59-4.48,9.15-4.23a12.72,12.72,0,0,1,10.89-4.15,21.66,21.66,0,0,1,16.65,10.51c3.34,6.67,4.34,14.31,5.31,21.69.24,1.84.48,3.66.75,5.44.72,4.68,1.46,9.53,1.12,14.4-.28,3.88-1.41,9.41-5.27,13.66-2.7,3-6.66,5.2-12.09,6.8A42.8,42.8,0,0,1,105.45,153.92ZM98.87,85.63c-1.45,0-3.94.54-6.42,3.59-4.25,5.24-4.52,11.85-4.81,18.85a57,57,0,0,1-1.37,12.14c-.39,1.46-.88,2.9-1.36,4.3a30.44,30.44,0,0,0-2,8.15c-.38,6.93,4.45,14,11.74,17.15,7.83,3.39,16.39,2.07,22.19.36,5.07-1.5,8.73-3.54,11.18-6.24,3.47-3.82,4.5-8.88,4.75-12.45.33-4.65-.39-9.38-1.09-14-.28-1.79-.52-3.62-.76-5.48-.95-7.22-1.93-14.69-5.09-21a19.55,19.55,0,0,0-15-9.45c-4-.28-7.43,1.09-9.57,3.87a1,1,0,0,1-1.1.34A4.32,4.32,0,0,0,98.87,85.63Z" fill="#093f68"/><path d="M101.66,132.05h14.4a9.56,9.56,0,0,1,9.56,9.56v20.87a0,0,0,0,1,0,0H92.1a0,0,0,0,1,0,0V141.62A9.56,9.56,0,0,1,101.66,132.05Z" fill="#f56132"/><path d="M125.62,163.48H92.1a1,1,0,0,1-1-1V141.62a10.58,10.58,0,0,1,10.56-10.57h14.4a10.58,10.58,0,0,1,10.56,10.57v20.86A1,1,0,0,1,125.62,163.48Zm-32.52-2h31.52V141.62a8.58,8.58,0,0,0-8.56-8.57h-14.4a8.58,8.58,0,0,0-8.56,8.57Z" fill="#093f68"/><polygon points="106.06 133.59 108.86 150.76 111.97 133.59 106.06 133.59" fill="#fff"/><path d="M108.86,151.76h0a1,1,0,0,1-1-.84l-2.81-17.17a1,1,0,0,1,.22-.81,1,1,0,0,1,.77-.35H112a1,1,0,0,1,.77.36,1,1,0,0,1,.22.82l-3.11,17.17A1,1,0,0,1,108.86,151.76Zm-1.63-17.17,1.68,10.28,1.87-10.28Z" fill="#093f68"/><path d="M106.06,130.18H112a0,0,0,0,1,0,0v3.41a2.51,2.51,0,0,1-2.51,2.51h-.89a2.51,2.51,0,0,1-2.51-2.51v-3.41A0,0,0,0,1,106.06,130.18Z" fill="#ffc9b0"/><path d="M109.46,137.1h-.89a3.51,3.51,0,0,1-3.51-3.51v-3.41a1,1,0,0,1,1-1H112a1,1,0,0,1,1,1v3.41A3.51,3.51,0,0,1,109.46,137.1Zm-2.4-5.92v2.41a1.51,1.51,0,0,0,1.51,1.51h.89a1.51,1.51,0,0,0,1.51-1.51v-2.41Z" fill="#093f68"/><ellipse cx="92.1" cy="114.81" rx="5.75" ry="4.95" fill="#ffc9b0"/><path d="M92.1,120.77c-3.72,0-6.75-2.68-6.75-6s3-6,6.75-6,6.75,2.67,6.75,6S95.82,120.77,92.1,120.77Zm0-9.91c-2.62,0-4.75,1.77-4.75,4s2.13,4,4.75,4,4.75-1.78,4.75-4S94.72,110.86,92.1,110.86Z" fill="#093f68"/><ellipse cx="125.62" cy="114.81" rx="5.75" ry="4.95" fill="#ffc9b0"/><path d="M125.62,120.77c-3.72,0-6.75-2.68-6.75-6s3-6,6.75-6,6.75,2.67,6.75,6S129.34,120.77,125.62,120.77Zm0-9.91c-2.62,0-4.75,1.77-4.75,4s2.13,4,4.75,4,4.75-1.78,4.75-4S128.24,110.86,125.62,110.86Z" fill="#093f68"/><path d="M119.56,100.11,114,92.9l-2,7.19-8.84,0L101,93.63l-2.46,6.42-6.86,0v13.59A17.34,17.34,0,0,0,109,131h0a17.34,17.34,0,0,0,17.34-17.34V100.13Z" fill="#ffc9b0"/><path d="M109,132a18.37,18.37,0,0,1-18.35-18.34V100a1,1,0,0,1,.3-.71,1,1,0,0,1,.7-.29h0l6.17,0,2.2-5.78a1,1,0,0,1,1-.64,1,1,0,0,1,.93.69l1.86,5.75,7.36,0c.77-2.74,1.83-6.46,1.83-6.46a1,1,0,0,1,1.75-.34l5.31,6.83h6.31a1,1,0,0,1,1,1v13.49A18.36,18.36,0,0,1,109,132ZM92.67,101v12.58a16.35,16.35,0,0,0,32.69,0V101.13l-5.8,0a1,1,0,0,1-.79-.38l-4.4-5.66c-.43,1.54-1,3.7-1.49,5.29a1,1,0,0,1-1,.73h0l-8.84,0a1,1,0,0,1-.95-.7l-1.21-3.74-1.44,3.78a1,1,0,0,1-.94.64H92.67Z" fill="#093f68"/><circle cx="100.99" cy="113.09" r="1.61" fill="#093f68"/><circle cx="117.55" cy="113.09" r="1.61" fill="#093f68"/><path d="M108.93,117.49a9.15,9.15,0,0,1-1.65-.14,1,1,0,0,1-.81-1.15,1,1,0,0,1,1.16-.82,7.71,7.71,0,0,0,1.76.1,14.72,14.72,0,0,0-1.26-3.14,1,1,0,0,1,1.77-.93c.91,1.73,1.88,4,1.37,5.16a1.33,1.33,0,0,1-.91.77A5.8,5.8,0,0,1,108.93,117.49Z" fill="#093f68"/><path d="M104.27,109.6h0l-7.65,0a2,2,0,0,1,0-4h0l7.65,0a2,2,0,1,1,0,4Z" fill="#093f68"/><path d="M115.18,109.79a2,2,0,0,1-.1-4l7.65-.39a2,2,0,1,1,.2,4l-7.64.39Z" fill="#093f68"/><path d="M110.12,124.18a20.13,20.13,0,0,1-8-2.16,1,1,0,0,1-.42-1.35,1,1,0,0,1,1.34-.42c2,1,7.7,3.2,10.24.94a1,1,0,0,1,1.41.08,1,1,0,0,1-.08,1.42A6.64,6.64,0,0,1,110.12,124.18Z" fill="#093f68"/><path d="M119,163.48a1,1,0,0,1-1-1v-19a1,1,0,0,1,2,0v19A1,1,0,0,1,119,163.48Z" fill="#093f68"/><path d="M98.72,163.48a1,1,0,0,1-1-1v-19a1,1,0,0,1,2,0v19A1,1,0,0,1,98.72,163.48Z" fill="#093f68"/><rect x="117.81" y="159.49" width="30.41" height="2.98" fill="#fff"/><path d="M148.21,163.47h-30.4a1,1,0,0,1-1-1v-3a1,1,0,0,1,1-1h30.4a1,1,0,0,1,1,1v3A1,1,0,0,1,148.21,163.47Zm-29.4-2h28.4v-1h-28.4Z" fill="#093f68"/><rect x="104.12" y="159.49" width="13.68" height="2.98" transform="translate(221.93 321.96) rotate(180)" fill="#fff"/><path d="M117.81,163.47H104.12a1,1,0,0,1-1-1v-3a1,1,0,0,1,1-1h13.69a1,1,0,0,1,1,1v3A1,1,0,0,1,117.81,163.47Zm-12.69-2h11.69v-1H105.12Z" fill="#093f68"/><polygon points="148.21 159.49 117.81 159.49 124.05 138.51 154.46 138.51 148.21 159.49" fill="#fff"/><path d="M148.21,160.49h-30.4a1,1,0,0,1-.81-.4,1,1,0,0,1-.15-.89l6.24-21a1,1,0,0,1,1-.72h30.41a1,1,0,0,1,.8.4,1,1,0,0,1,.16.89l-6.25,21A1,1,0,0,1,148.21,160.49Zm-29.06-2h28.32l5.65-19H124.8Z" fill="#093f68"/><path d="M102.61,156.18a10.69,10.69,0,0,1,5-1.15,2.93,2.93,0,0,1,2.54,1.08,2.22,2.22,0,0,1-.69,2.73,5.16,5.16,0,0,1-2.88.92c-.8.06-1.6,0-2.39,0,0,1.16.16,1.92-1.25,2a2.29,2.29,0,0,1-2-.82C100,159.53,101.22,156.89,102.61,156.18Z" fill="#ffc9b0"/><path d="M102.84,162.79a3.19,3.19,0,0,1-2.65-1.23,3.48,3.48,0,0,1-.45-2.92,5.22,5.22,0,0,1,2.42-3.35,11.63,11.63,0,0,1,5.53-1.26c2,.05,3,.88,3.37,1.56a3.22,3.22,0,0,1-.92,4,6.11,6.11,0,0,1-3.43,1.13,12.71,12.71,0,0,1-1.38,0h-.1a2,2,0,0,1-2.19,2Zm4.58-6.76a9.53,9.53,0,0,0-4.35,1.05h0a3.29,3.29,0,0,0-1.39,2,1.65,1.65,0,0,0,.13,1.27,1.4,1.4,0,0,0,1.14.41,1.31,1.31,0,0,0,.28,0,5.55,5.55,0,0,0,0-.59v-.37a1,1,0,0,1,.94-1c.39,0,.78,0,1.17,0s.8,0,1.2,0a4.33,4.33,0,0,0,2.34-.7,1.29,1.29,0,0,0,.46-1.44,2.1,2.1,0,0,0-1.71-.59Zm-4.81.15h0Z" fill="#093f68"/><ellipse cx="136.59" cy="149.79" rx="3.12" ry="2.6" transform="translate(-65.27 131.21) rotate(-42.38)" fill="#68e1fd"/><path d="M136.07,153.63a3.32,3.32,0,0,1-2.61-1.18,3.42,3.42,0,0,1-.7-2.84,4.56,4.56,0,0,1,4.35-3.67,3.33,3.33,0,0,1,2.62,1.18,3.47,3.47,0,0,1,.69,2.85h0A4.56,4.56,0,0,1,136.07,153.63Zm1-5.69a2.57,2.57,0,0,0-2.38,2,1.43,1.43,0,0,0,.26,1.2,1.36,1.36,0,0,0,1.08.46,2.57,2.57,0,0,0,2.38-2h0a1.41,1.41,0,0,0-.26-1.21A1.35,1.35,0,0,0,137.11,147.94Z" fill="#093f68"/><path d="M324.79,227.51h-245a1,1,0,1,1,0-2h245a1,1,0,0,1,0,2Z" fill="#093f68"/><path d="M205.42,227.51c-8.41,0-68.69-.66-69.3-.67a1,1,0,0,1-.24,0c-.38-.1-.78-.19-1.2-.28-3.7-.83-8.77-2-15.4-10.91s-7.71-30.46-8.43-43.4c-.25-4.56-.47-8.5-.82-9.37a1,1,0,0,1,1.86-.74c.45,1.13.63,4,1,10,.7,12.72,1.88,34,8,42.32s10.83,9.39,14.23,10.15l1.14.26c3,0,60.94.67,69.16.67,8.86,0,23.7,0,26.73-16,3.36-17.7,4.29-58,4.3-58.43a1,1,0,0,1,1-1,1,1,0,0,1,1,1c0,.41-.94,40.91-4.33,58.77C230.77,227.51,214.28,227.51,205.42,227.51Z" fill="#093f68"/><path d="M309,101.08H230.14a1,1,0,0,1-1-1v-9a1,1,0,0,1,1-1H309a1,1,0,0,1,1,1v9A1,1,0,0,1,309,101.08Zm-77.83-2H308v-7H231.14Z" fill="#dfeaef"/><path d="M309,135.05H230.14a1,1,0,0,1-1-1V105.52a1,1,0,0,1,1-1H309a1,1,0,0,1,1,1v28.53A1,1,0,0,1,309,135.05Zm-77.83-2H308V106.52H231.14Z" fill="#dfeaef"/><path d="M283.25,113.66H236.7a1,1,0,0,1,0-2h46.55a1,1,0,0,1,0,2Z" fill="#dfeaef"/><path d="M289.64,120.79H236.7a1,1,0,0,1,0-2h52.94a1,1,0,0,1,0,2Z" fill="#dfeaef"/><path d="M275.56,127.92H236.7a1,1,0,0,1,0-2h38.86a1,1,0,0,1,0,2Z" fill="#dfeaef"/><path d="M303.09,213.56s-6.51-13.28-5.61-22.25a16.63,16.63,0,0,1,7.77,9.36c3.85,10.69,3,12.89,3,12.89Z" fill="#70cc40"/><path d="M308.21,214.56h-5.12a1,1,0,0,1-.9-.56c-.27-.56-6.63-13.64-5.7-22.79a1,1,0,0,1,.49-.77,1,1,0,0,1,.92,0c.23.1,5.65,2.63,8.29,9.93,3.79,10.51,3.12,13.18,2.95,13.61A1,1,0,0,1,308.21,214.56Zm-4.48-2h3.58c0-1.21-.43-4.4-3-11.55a16.61,16.61,0,0,0-5.9-8C298.37,200.46,302.61,210.15,303.73,212.56Z" fill="#093f68"/><path d="M306.19,212.91s-4.89-18.93,2.14-31.6c0,0,4,4.63,5,15.84a28.37,28.37,0,0,1-2.93,15.48Z" fill="#70cc40"/><path d="M306.19,213.92a1,1,0,0,1-1-.75c-.21-.79-4.91-19.47,2.23-32.34a1,1,0,0,1,1.63-.18c.17.2,4.27,5,5.26,16.41a29.07,29.07,0,0,1-3.06,16.08,1,1,0,0,1-.8.49l-4.23.28Zm2.26-30.65c-4.94,10.63-2.25,25.06-1.48,28.59l2.82-.19a28.09,28.09,0,0,0,2.56-14.43C311.7,189.77,309.64,185.3,308.45,183.27Z" fill="#093f68"/><path d="M308.3,212.32s1.51-12.64,11.73-20.88c0,0,3,9.41-5.43,22Z" fill="#70cc40"/><path d="M314.6,214.44l-.17,0-6.31-1.11a1,1,0,0,1-.81-1.11c.06-.53,1.68-13.14,12.09-21.54a1,1,0,0,1,.92-.18,1,1,0,0,1,.66.65c.13.41,3.06,10-5.55,22.86A1,1,0,0,1,314.6,214.44Zm-5.15-2.93,4.68.83c5.75-8.87,5.66-16,5.25-19C312.19,199.86,310,208.66,309.45,211.51Z" fill="#093f68"/><polygon points="315.3 226.51 302.44 226.51 300.54 210.87 317.2 210.87 315.3 226.51" fill="#68e1fd"/><path d="M315.29,227.51H302.44a1,1,0,0,1-1-.88L299.55,211a1,1,0,0,1,.24-.78,1,1,0,0,1,.75-.34H317.2a1,1,0,0,1,.75.34,1,1,0,0,1,.24.78l-1.9,15.64A1,1,0,0,1,315.29,227.51Zm-12-2h11.08l1.66-13.64h-14.4Z" fill="#093f68"/><path d="M273.25,203.5H256.13a1,1,0,0,1-1-1V188.81a1,1,0,0,1,1-1h17.12a1,1,0,0,1,1,1V202.5A1,1,0,0,1,273.25,203.5Zm-16.12-2h15.12V189.81H257.13Z" fill="#dfeaef"/><path d="M264.74,200.32a4.94,4.94,0,1,1,4.94-4.94A4.94,4.94,0,0,1,264.74,200.32Zm0-7.88a2.94,2.94,0,1,0,2.94,2.94A2.94,2.94,0,0,0,264.74,192.44Z" fill="#dfeaef"/></g></svg>