<svg xmlns="http://www.w3.org/2000/svg" viewBox="0 0 400 300"><g id="_124_team_presentation_outline" data-name="#124_team_presentation_outline"><path d="M288.71,133.79s2.2-.24,2.38-.23a10.81,10.81,0,0,1,5.81,2.19c4,2.88,2.52,5.9,4,9.9.76,2,2.93,3.2,4.1,5a6.11,6.11,0,0,1-1.21,7.74c.9-.75,5.62,8.38,6,9.36a11.14,11.14,0,0,1-1.93,10.9,11.91,11.91,0,0,1-2.08,16.91,1.65,1.65,0,0,1,.46,1.94,4,4,0,0,1-1.38,1.61,16.56,16.56,0,0,1-5.33,2.78c-.43.13-.86.25-1.27.42a11.51,11.51,0,0,0-1.41.79,24.18,24.18,0,0,1-10.41,3.41c-5.58.49-11.12-1-16.68-1.72-2.58-.35-5.22-.54-7.61-1.56s-4.53-3.07-4.83-5.65a9.12,9.12,0,0,1-8.63-4.57c-.25-.46-2-8.16-.08-7.58a5.88,5.88,0,0,1-3.81-5.48,10.45,10.45,0,0,1,2.44-6.53c-2.45-2.38-2.9-6.27-2-9.56s3-6.13,5-8.86c-1.5-4.8.37-13.25,6.33-14.18-1.19.18,1.34-5.69,1.59-6,1.15-1.69,2.45-3.14,4.53-3.65a6.63,6.63,0,0,1,5.5,1.11.88.88,0,0,0,.46.23c.28,0,.48-.26.65-.48C273.74,126.28,284.49,130.13,288.71,133.79Z" fill="#725858"/><path d="M284.15,207.65a59.58,59.58,0,0,1-10-1.13c-1.48-.25-3-.5-4.51-.7-.39-.06-.79-.1-1.18-.15a24.49,24.49,0,0,1-6.69-1.48,9,9,0,0,1-5.26-5.53,10.21,10.21,0,0,1-8.69-5.13c-.2-.37-1.56-5.42-.92-7.77a7.11,7.11,0,0,1-3.09-5.73,11,11,0,0,1,2.15-6.5,11,11,0,0,1-1.65-9.9c.89-3.19,2.74-5.89,4.9-8.79a15,15,0,0,1,1.65-11,8.3,8.3,0,0,1,4.51-3.69c.15-2.15,2-5.84,2-5.88a9,9,0,0,1,5.12-4.06,7.66,7.66,0,0,1,6.13,1.14,8.62,8.62,0,0,1,6.18-3.17c4.85-.49,10.93,1.92,14.25,4.6l.81-.09a10.76,10.76,0,0,1,1.26-.11,11.89,11.89,0,0,1,6.37,2.38c2.95,2.15,3.27,4.51,3.57,6.8a16.13,16.13,0,0,0,.78,3.56,7.72,7.72,0,0,0,2,2.59,12.69,12.69,0,0,1,2,2.26,7.13,7.13,0,0,1-.5,8.12c2.19,2.41,5.34,9.11,5.36,9.19a12.14,12.14,0,0,1-1.6,11.25,12.95,12.95,0,0,1-2,17.06,2.93,2.93,0,0,1,0,2.14,5,5,0,0,1-1.7,2,17.25,17.25,0,0,1-5.65,2.95l-.28.08a8.27,8.27,0,0,0-.88.3,7.55,7.55,0,0,0-1.06.59l-.23.14a25.26,25.26,0,0,1-10.84,3.55C285.72,207.62,284.93,207.65,284.15,207.65Zm-26.84-11a1,1,0,0,1,1,.89c.27,2.35,2.36,4,4.22,4.84a22.58,22.58,0,0,0,6.16,1.33l1.19.15c1.53.21,3.08.47,4.58.72,3.91.66,8,1.34,11.89,1a23.09,23.09,0,0,0,10-3.26l.22-.14a11,11,0,0,1,1.32-.72,8.37,8.37,0,0,1,1.1-.37l.27-.08a15.52,15.52,0,0,0,5-2.61,3.33,3.33,0,0,0,1.07-1.19.7.7,0,0,0-.09-.75,1,1,0,0,1-.44-.8,1,1,0,0,1,.4-.82,10.92,10.92,0,0,0,1.9-15.5,1,1,0,0,1,0-1.29,10.17,10.17,0,0,0,1.74-9.9c-.35-1-3.85-7.57-5.07-8.69a1,1,0,0,1-.73-.36,1,1,0,0,1,.13-1.41h0a5.1,5.1,0,0,0,1-6.43,11.82,11.82,0,0,0-1.69-1.9A9.37,9.37,0,0,1,300,146a17.48,17.48,0,0,1-.89-4c-.3-2.2-.51-3.79-2.77-5.44a9.84,9.84,0,0,0-5.26-2l-1,.11c-1.64.19-1.67.19-2-.11h0c-2.85-2.47-8.64-4.84-13.06-4.4a6.72,6.72,0,0,0-4.87,2.49,1.83,1.83,0,0,1-1.42.87h0a1.8,1.8,0,0,1-1-.42,5.69,5.69,0,0,0-4.67-1c-1.72.42-2.82,1.6-4,3.25a24.42,24.42,0,0,0-1.71,4.75,1,1,0,0,1,.29.56,1,1,0,0,1-.83,1.14h0a6.08,6.08,0,0,0-4.24,3,13,13,0,0,0-1.29,9.86,1,1,0,0,1-.16.9c-2.17,2.89-4,5.53-4.88,8.53-.92,3.3-.25,6.66,1.72,8.57a1,1,0,0,1,.09,1.32,9.64,9.64,0,0,0-2.23,5.9,4.9,4.9,0,0,0,3.09,4.55h0a1,1,0,0,1-.14,2c-.26,1.24.52,5.35.85,6.17a8.11,8.11,0,0,0,7.63,4Zm-9-10.2Zm56.14-27.22Zm-48-19.33Z" fill="#093f68"/><path d="M246.34,205.87c-2.92,1.35-5.75,2.91-8.59,4.45L232.29,199c-.34-.71-3.24-8.66-3.09-12.81.23-6,6.51-4.61,7.18-4.57,1.61.11,4.17,6.08,4.24,8.91a22.78,22.78,0,0,0,1.62-4.55c.57-2,3.34-2.09,2.8,2.41a54.31,54.31,0,0,1-2.42,9.79l1.7,3.53Z" fill="#ffc9b0"/><path d="M237.75,211.32a1.12,1.12,0,0,1-.31,0,1,1,0,0,1-.59-.52c-4.26-8.87-5.23-10.87-5.45-11.37h0c-.27-.55-3.36-8.76-3.19-13.28a5.74,5.74,0,0,1,1.88-4.36c2.08-1.75,5.16-1.33,6.17-1.19l.2,0c1.77.11,3.5,3.43,4.44,6.38l.39-1.3a2.52,2.52,0,0,1,2.77-2c.59.12,2.47.81,2,4.82a53.53,53.53,0,0,1-2.34,9.61l3.54,7.37a1,1,0,0,1,0,.77,1,1,0,0,1-.52.57c-2.73,1.26-5.44,2.74-8.07,4.16l-.46.26A1,1,0,0,1,237.75,211.32Zm-4.56-12.8c.08.16,2.3,4.77,5,10.42,2.21-1.21,4.49-2.43,6.8-3.54l-3.28-6.84a1,1,0,0,1,0-.76,53.65,53.65,0,0,0,2.37-9.58c.23-1.88-.24-2.59-.39-2.62s-.33.15-.46.6a22.61,22.61,0,0,1-1.72,4.79,1,1,0,0,1-1.86-.48c-.07-2.7-2.43-7.61-3.36-7.95a1.52,1.52,0,0,1-.28,0c-.8-.11-3.22-.43-4.62.74a3.83,3.83,0,0,0-1.16,2.91c-.14,3.86,2.62,11.56,3,12.34Z" fill="#093f68"/><path d="M236.16,194.82H236a1,1,0,0,1-.87-1.12,4.75,4.75,0,0,1,1.83-3.4,5.39,5.39,0,0,1,3.81-.79,1,1,0,0,1-.38,2,3.28,3.28,0,0,0-2.27.45,2.77,2.77,0,0,0-1,2A1,1,0,0,1,236.16,194.82Z" fill="#093f68"/><path d="M245.58,201.1s3,7.91,4.41,10.76c3.5-3.58,10.09-13.09,12.93-15.31s9.42-3.66,11.33-3.66h12.81c7.41,0,13.41,6.54,13.41,14.61v22.7h-36.7V218.91c-7.83,5.29-11.46,8.09-15,8.09a7.33,7.33,0,0,1-2.81-.58c-1.68-.7-5.54-2.31-11.66-19.14Z" fill="#68e1fd"/><path d="M300.47,231.2h-36.7a1,1,0,0,1-1-1v-9.41l-1.07.73c-6.13,4.18-9.51,6.48-12.95,6.48a8.29,8.29,0,0,1-3.19-.66c-1.93-.8-5.94-2.47-12.22-19.72a1,1,0,0,1,.46-1.22l11.3-6.17a1,1,0,0,1,.83-.06,1,1,0,0,1,.59.58c0,.07,2.28,5.95,3.75,9.32,1.4-1.59,3.14-3.8,4.83-5.95,2.84-3.63,5.53-7.05,7.2-8.36,3-2.37,9.87-3.87,11.95-3.87h12.81c7.95,0,14.41,7,14.41,15.61v22.7A1,1,0,0,1,300.47,231.2Zm-35.7-2h34.7V207.5c0-7.51-5.57-13.61-12.41-13.61H274.25c-1.89,0-8.17,1.45-10.71,3.44-1.49,1.17-4.22,4.65-6.87,8-2.15,2.74-4.37,5.58-6,7.21a1,1,0,0,1-1.62-.27c-1.08-2.25-3.14-7.49-4-9.76l-9.54,5.21c5.8,15.67,9.43,17.18,10.81,17.76a6.25,6.25,0,0,0,2.42.5c2.82,0,6-2.17,11.83-6.13l2.63-1.79a1,1,0,0,1,1.56.83Z" fill="#093f68"/><polyline points="281.74 194.32 277.94 221.87 274.39 194.32" fill="#ffbc0e"/><path d="M277.94,222.87h0a1,1,0,0,1-1-.87l-3.54-27.55a1,1,0,0,1,.86-1.12,1,1,0,0,1,1.12.87L278,214.31l2.78-20.12a1,1,0,1,1,2,.27L278.93,222A1,1,0,0,1,277.94,222.87Z" fill="#093f68"/><path d="M277.51,190.09h1.11a3.12,3.12,0,0,1,3.12,3.12v4.23a0,0,0,0,1,0,0h-7.35a0,0,0,0,1,0,0v-4.23A3.12,3.12,0,0,1,277.51,190.09Z" transform="translate(556.13 387.54) rotate(-180)" fill="#ffc9b0"/><path d="M278.62,198.44h-1.11a4.13,4.13,0,0,1-4.12-4.12v-4.23a1,1,0,0,1,1-1h7.35a1,1,0,0,1,1,1v4.23A4.13,4.13,0,0,1,278.62,198.44Zm-3.23-7.35v3.23a2.12,2.12,0,0,0,2.12,2.12h1.11a2.12,2.12,0,0,0,2.12-2.12v-3.23Z" fill="#093f68"/><ellipse cx="299.07" cy="171.01" rx="7.14" ry="6.15" fill="#ffc9b0"/><path d="M299.07,178.16c-4.49,0-8.14-3.21-8.14-7.15s3.65-7.16,8.14-7.16,8.14,3.21,8.14,7.16S303.56,178.16,299.07,178.16Zm0-12.31c-3.39,0-6.14,2.32-6.14,5.16s2.75,5.15,6.14,5.15,6.14-2.31,6.14-5.15S302.45,165.85,299.07,165.85Z" fill="#093f68"/><ellipse cx="257.45" cy="171.01" rx="7.14" ry="6.15" fill="#ffc9b0"/><path d="M257.45,178.16c-4.49,0-8.14-3.21-8.14-7.15s3.65-7.16,8.14-7.16,8.13,3.21,8.13,7.16S261.93,178.16,257.45,178.16Zm0-12.31c-3.39,0-6.14,2.32-6.14,5.16s2.75,5.15,6.14,5.15,6.13-2.31,6.13-5.15S260.83,165.85,257.45,165.85Z" fill="#093f68"/><path d="M264.74,151.33a4.52,4.52,0,0,0,1.08-.34,4.81,4.81,0,0,0,2.71-4.35,12.25,12.25,0,0,0,6.73,3.16,6.43,6.43,0,0,0,6.31-3.26c1.23,3.31,6.29,4.3,8.67,1.7a14.26,14.26,0,0,0,1.67,5.57,5.08,5.08,0,0,0,4.89,2.56c2.27,4.08,2.8,8.61,2.8,13.16a21.54,21.54,0,0,1-43.07,0V160c0-1.26-.66-5.08.14-6.11.05-.07,6.45-1.56,4.08-3.64A4.84,4.84,0,0,0,264.74,151.33Z" fill="#ffc9b0"/><path d="M278.07,192.06a22.56,22.56,0,0,1-22.54-22.53V160c0-.31,0-.79-.09-1.34-.22-2.44-.33-4.39.44-5.39a1.3,1.3,0,0,1,.78-.43c2.95-.86,3.51-1.52,3.61-1.67s-.08-.08-.18-.16h0a1,1,0,1,1,1.32-1.5h0a3.85,3.85,0,0,0,3.15.84h0a3.93,3.93,0,0,0,.84-.27,3.79,3.79,0,0,0,2.13-3.42,1,1,0,0,1,.57-.92,1,1,0,0,1,1.07.13,11.19,11.19,0,0,0,6.16,2.93,5.41,5.41,0,0,0,5.34-2.68,1,1,0,0,1,.94-.57,1,1,0,0,1,.9.65,4.13,4.13,0,0,0,3.16,2.42,4.08,4.08,0,0,0,3.83-1.06,1,1,0,0,1,1-.28,1,1,0,0,1,.69.81,13.24,13.24,0,0,0,1.53,5.18c.76,1.21,2.29,2.4,3.87,2.12a1,1,0,0,1,1.05.5c2.59,4.66,2.92,9.74,2.92,13.64A22.56,22.56,0,0,1,278.07,192.06Zm-20.7-37.33a16.36,16.36,0,0,0,.06,3.76c.06.61.1,1.14.1,1.52v9.52a20.54,20.54,0,0,0,41.07,0c0-5.13-.73-8.9-2.37-12.1h-.07a6.35,6.35,0,0,1-5.1-3.09,12.1,12.1,0,0,1-1.54-4.31,6.7,6.7,0,0,1-8-1.62,7.78,7.78,0,0,1-6.33,2.38,12,12,0,0,1-5.93-2.33,5.74,5.74,0,0,1-3,3.43,5.08,5.08,0,0,1-1.32.42h0a5.84,5.84,0,0,1-2.88-.19C261.49,153.12,260,153.94,257.37,154.73Zm7.37-3.4h0Z" fill="#093f68"/><circle cx="288.79" cy="165.31" r="2.05" fill="#093f68"/><circle cx="270" cy="165.31" r="2.05" fill="#093f68"/><path d="M277.53,172.77h-.43a1,1,0,0,1-1-1.05,1,1,0,0,1,1.05-.95,10.07,10.07,0,0,0,2.6-.25,17,17,0,0,0-2.22-4.12,1,1,0,1,1,1.64-1.14c1.14,1.63,3,4.59,2.53,6.06a1.47,1.47,0,0,1-.87,1A10.17,10.17,0,0,1,277.53,172.77Z" fill="#093f68"/><path d="M283.91,160.54a2,2,0,0,1,0-4l9.76,0h0a2,2,0,0,1,0,4l-9.76,0Z" fill="#093f68"/><path d="M270,160.77h-.11l-9.74-.5a2,2,0,0,1-1.9-2.1,2,2,0,0,1,2.1-1.89l9.75.5a2,2,0,0,1-.1,4Z" fill="#093f68"/><path d="M263.77,218.91s-2.39-3.94-.84-10.41" fill="#68e1fd"/><path d="M263.77,219.91a1,1,0,0,1-.85-.48c-.11-.18-2.59-4.37-1-11.17a1,1,0,1,1,1.94.47c-1.42,6,.71,9.63.73,9.66a1,1,0,0,1-.34,1.37A1,1,0,0,1,263.77,219.91Z" fill="#093f68"/><path d="M291.93,230.64a1,1,0,0,1-1-1V218.07a.92.92,0,0,1,.22-.62c0-.06,4.29-5.51,1.65-10.32a1,1,0,1,1,1.75-1c2.93,5.34-.66,10.91-1.62,12.24v11.24A1,1,0,0,1,291.93,230.64Z" fill="#093f68"/><path d="M221.45,230.2V210.32a16.08,16.08,0,0,0-16.07-16.07H190A16.07,16.07,0,0,0,174,210.32V230.2Z" fill="#68e1fd"/><path d="M221.45,231.2H174a1,1,0,0,1-1-1V210.32A17.09,17.09,0,0,1,190,193.25h15.35a17.09,17.09,0,0,1,17.07,17.07V230.2A1,1,0,0,1,221.45,231.2Zm-46.49-2h45.49V210.32a15.09,15.09,0,0,0-15.07-15.07H190A15.09,15.09,0,0,0,175,210.32Z" fill="#093f68"/><path d="M196.44,128.8a20.24,20.24,0,0,1,3-.23c4.64,0,9.38-.12,13.62,2a25.76,25.76,0,0,1,14.33,22.95v19H170.78c-.32-1.12.18-2.43.23-3.55a14.89,14.89,0,0,0-.55-3.67,50.79,50.79,0,0,1-1.11-9.43,36.33,36.33,0,0,1,3.05-14.5c1.13-2.75,2.46-5.6,4.89-7.32s6.28-1.77,8,.65A19.4,19.4,0,0,1,196.44,128.8Z" fill="#725858"/><path d="M227.4,173.49c-56.85,0-56.85,0-57.06-.1a1,1,0,0,1-.52-.62,6.19,6.19,0,0,1,.05-2.78,10.19,10.19,0,0,0,.14-1.09,10,10,0,0,0-.35-2.61l-.18-.83a52.21,52.21,0,0,1-1.13-9.61A37.43,37.43,0,0,1,171.47,141c1.14-2.76,2.57-5.87,5.24-7.76,2.45-1.73,6.31-2,8.61,0a20.39,20.39,0,0,1,11-5.39h0a19,19,0,0,1,3.16-.25h.83c4.44,0,9,0,13.23,2.05a26.72,26.72,0,0,1,14.89,23.85v19A1,1,0,0,1,227.4,173.49Zm-55.72-2H226.4v-18a24.69,24.69,0,0,0-13.77-22.05c-3.78-1.85-8.14-1.85-12.35-1.85h-.83a18,18,0,0,0-2.85.22A18.31,18.31,0,0,0,186,135.35a1,1,0,0,1-.79.32,1,1,0,0,1-.76-.42c-1.38-1.94-4.63-1.82-6.62-.41-2.23,1.57-3.46,4.26-4.54,6.88a35.5,35.5,0,0,0-3,14.1,50,50,0,0,0,1.09,9.25c.05.26.11.52.17.78a9,9,0,0,1,.23,4.48A10.7,10.7,0,0,0,171.68,171.49Z" fill="#093f68"/><path d="M194.64,191.18h8.08a0,0,0,0,1,0,0v4.65a3.43,3.43,0,0,1-3.43,3.43h-1.22a3.43,3.43,0,0,1-3.43-3.43v-4.65A0,0,0,0,1,194.64,191.18Z" fill="#ffc9b0"/><path d="M199.29,200.26h-1.22a4.43,4.43,0,0,1-4.43-4.43v-4.65a1,1,0,0,1,1-1h8.07a1,1,0,0,1,1,1v4.65A4.43,4.43,0,0,1,199.29,200.26Zm-3.65-8.08v3.65a2.43,2.43,0,0,0,2.43,2.43h1.22a2.43,2.43,0,0,0,2.42-2.43v-3.65Z" fill="#093f68"/><ellipse cx="175.59" cy="170.2" rx="7.85" ry="6.76" fill="#ffc9b0"/><path d="M175.59,178c-4.88,0-8.85-3.48-8.85-7.76s4-7.77,8.85-7.77,8.85,3.49,8.85,7.77S180.47,178,175.59,178Zm0-13.53c-3.78,0-6.85,2.59-6.85,5.77s3.07,5.76,6.85,5.76,6.85-2.58,6.85-5.76S179.36,164.43,175.59,164.43Z" fill="#093f68"/><ellipse cx="221.35" cy="170.2" rx="7.85" ry="6.76" fill="#ffc9b0"/><path d="M221.35,178c-4.88,0-8.85-3.48-8.85-7.76s4-7.77,8.85-7.77,8.85,3.49,8.85,7.77S226.23,178,221.35,178Zm0-13.53c-3.78,0-6.85,2.59-6.85,5.77s3.07,5.76,6.85,5.76,6.85-2.58,6.85-5.76S225.12,164.43,221.35,164.43Z" fill="#093f68"/><path d="M198.68,192.24h0A23.68,23.68,0,0,1,175,168.57V155.83s6-3.41,7.73-8.76c0,0,9.1,10.34,17.87,9.64a205.05,205.05,0,0,0,21.75-3v14.89A23.67,23.67,0,0,1,198.68,192.24Z" fill="#ffc9b0"/><path d="M198.68,193.24A24.7,24.7,0,0,1,174,168.57V155.83a1,1,0,0,1,.5-.87c.06,0,5.66-3.29,7.28-8.21a1,1,0,0,1,.75-.66,1,1,0,0,1,.95.31c.09.1,8.86,10,17,9.31a205.35,205.35,0,0,0,21.63-3,1,1,0,0,1,.83.2,1,1,0,0,1,.37.78v14.89A24.7,24.7,0,0,1,198.68,193.24ZM176,156.39v12.18a22.68,22.68,0,0,0,45.35,0V154.89c-3.07.58-11.61,2.09-20.67,2.82-7.46.6-14.87-6.07-17.61-8.83A20.4,20.4,0,0,1,176,156.39Z" fill="#093f68"/><path d="M200.39,177a14,14,0,0,1-2.19-.18,1,1,0,0,1-.81-1.16,1,1,0,0,1,1.15-.81,10.75,10.75,0,0,0,2.89.08,17,17,0,0,0-1.81-4.77,1,1,0,0,1,1.77-.93c1,1.88,2.52,5.25,1.86,6.72a1.45,1.45,0,0,1-1,.85A7.74,7.74,0,0,1,200.39,177Z" fill="#093f68"/><path d="M206.12,179.5l-13.38,3.33s1.29,5.11,7.62,4.13S206.12,179.5,206.12,179.5Z" fill="#093f68"/><path d="M184.3,230.64a1,1,0,0,1-1-1v-18a1,1,0,0,1,2,0v18A1,1,0,0,1,184.3,230.64Z" fill="#093f68"/><path d="M211.1,230.64a1,1,0,0,1-1-1v-18a1,1,0,0,1,2,0v18A1,1,0,0,1,211.1,230.64Z" fill="#093f68"/><circle cx="208.63" cy="168.96" r="2.05" fill="#093f68"/><circle cx="189.37" cy="168.15" r="2.05" fill="#093f68"/><path d="M184.31,163.61a2,2,0,0,1-1.42-3.41c2-2,7-4.76,11.71-.82a2,2,0,0,1-2.58,3.06c-3-2.5-6,.27-6.31.6A2,2,0,0,1,184.31,163.61Z" fill="#093f68"/><path d="M214.6,163.62a2,2,0,0,1-1.4-.58c-.34-.33-3.34-3.1-6.31-.6a2,2,0,0,1-2.58-3.06c4.67-3.94,9.7-1.19,11.71.82a2,2,0,0,1-1.42,3.42Z" fill="#093f68"/><path d="M142.92,230.2V203.61a7.24,7.24,0,0,0-7.24-7.23H101.5a7.24,7.24,0,0,0-7.24,7.23V230.2Z" fill="#68e1fd"/><path d="M142.92,231.2H94.26a1,1,0,0,1-1-1V203.61a8.25,8.25,0,0,1,8.24-8.23h34.18a8.25,8.25,0,0,1,8.24,8.23V230.2A1,1,0,0,1,142.92,231.2Zm-47.66-2h46.66V203.61a6.25,6.25,0,0,0-6.24-6.23H101.5a6.25,6.25,0,0,0-6.24,6.23Z" fill="#093f68"/><rect x="112.23" y="197.2" width="12.15" height="33" fill="#f56132"/><path d="M124.37,231.2H112.23a1,1,0,0,1-1-1v-33a1,1,0,0,1,1-1h12.14a1,1,0,0,1,1,1v33A1,1,0,0,1,124.37,231.2Zm-11.14-2h10.14v-31H113.23Z" fill="#093f68"/><path d="M115.69,193.8h6.79a0,0,0,0,1,0,0v3.91a2.88,2.88,0,0,1-2.88,2.88h-1a2.88,2.88,0,0,1-2.88-2.88V193.8A0,0,0,0,1,115.69,193.8Z" fill="#ffc9b0"/><path d="M119.6,201.59h-1a3.88,3.88,0,0,1-3.88-3.88V193.8a1,1,0,0,1,1-1h6.79a1,1,0,0,1,1,1v3.91A3.88,3.88,0,0,1,119.6,201.59Zm-2.91-6.79v2.91a1.88,1.88,0,0,0,1.88,1.88h1a1.88,1.88,0,0,0,1.88-1.88V194.8Z" fill="#093f68"/><path d="M95.63,175c-3.16-1.19-3-3.6-3.44-6.7a79.52,79.52,0,0,1-.87-9.25c-.12-3.52,0-7.13,1.34-10.39,1.72-4.2,5.1-6.91,9.64-6.54-.14-6.18,3.57-12,10.15-12.34,10.53-.56,16.59,10.75,22.49,9.91s7.46-3.46,7.46-3.46a10.81,10.81,0,0,1-1.26,11.92s4.64-1.35,5.2,4.83-3.13,22.59-3.13,22.59l-4.22-.74c-1.77-.31-4,.13-5.76.18l-13.16.41C113.47,175.58,102.79,177.66,95.63,175Z" fill="#725858"/><path d="M105.12,177.33a28.33,28.33,0,0,1-9.85-1.45h0c-3.26-1.23-3.57-3.66-3.9-6.22-.05-.41-.1-.82-.17-1.26a81.21,81.21,0,0,1-.88-9.36c-.11-3.35,0-7.25,1.42-10.81,1.83-4.49,5.36-7.11,9.57-7.19.28-6,4-11.93,11.09-12.3,6.24-.34,11,3.28,14.88,6.19,2.85,2.16,5.32,4,7.51,3.72,5.26-.75,6.75-3,6.76-3a1.05,1.05,0,0,1,.87-.46,1,1,0,0,1,.84.49,12,12,0,0,1-.19,11.37,4.56,4.56,0,0,1,1.82.73c1.4.95,2.23,2.65,2.44,5.06.58,6.26-3,22.22-3.15,22.9a1,1,0,0,1-1.15.77l-4.21-.74a14.49,14.49,0,0,0-3.65,0c-.66.06-1.31.12-1.91.14l-13.16.41c-1.64.06-3.56.23-5.59.41C111.59,177,108.34,177.33,105.12,177.33ZM96,174c5.14,2,12.47,1.3,18.35.78,2.06-.19,4-.36,5.71-.41L133.2,174c.56,0,1.17-.07,1.79-.13a16.27,16.27,0,0,1,4.18,0l3.26.57c.77-3.54,3.38-16.23,2.91-21.35-.16-1.78-.69-3-1.57-3.59a3.12,3.12,0,0,0-2.35-.37,1,1,0,0,1-1.11-.4,1,1,0,0,1,.05-1.19,9.64,9.64,0,0,0,1.72-9.53,14.08,14.08,0,0,1-7,2.69c-3,.43-5.8-1.67-9-4.11-3.77-2.85-8-6.08-13.57-5.79-6.19.33-9.32,6-9.2,11.32a1,1,0,0,1-1.09,1c-3.82-.32-7,1.84-8.62,5.91-1.31,3.21-1.38,6.85-1.27,10a79.66,79.66,0,0,0,.86,9.13c.07.45.12.89.18,1.31.33,2.63.57,3.83,2.62,4.6Z" fill="#093f68"/><ellipse cx="99.67" cy="176.15" rx="6.6" ry="5.69" fill="#ffc9b0"/><path d="M99.67,182.84c-4.19,0-7.6-3-7.6-6.69s3.41-6.69,7.6-6.69,7.6,3,7.6,6.69S103.86,182.84,99.67,182.84Zm0-11.38c-3.09,0-5.6,2.11-5.6,4.69s2.51,4.69,5.6,4.69,5.6-2.1,5.6-4.69S102.76,171.46,99.67,171.46Z" fill="#093f68"/><ellipse cx="138.15" cy="176.15" rx="6.6" ry="5.69" fill="#ffc9b0"/><path d="M138.15,182.84c-4.19,0-7.6-3-7.6-6.69s3.41-6.69,7.6-6.69,7.6,3,7.6,6.69S142.34,182.84,138.15,182.84Zm0-11.38c-3.09,0-5.6,2.11-5.6,4.69s2.51,4.69,5.6,4.69,5.6-2.1,5.6-4.69S141.24,171.46,138.15,171.46Z" fill="#093f68"/><path d="M119.08,194.69h0a19.9,19.9,0,0,1-19.9-19.91V160.33c1.16,1.91,5,1.15,10.69-8.57,21.21,10.75,29.12,4.59,29.12,4.59v18.43A19.9,19.9,0,0,1,119.08,194.69Z" fill="#ffc9b0"/><path d="M119.08,195.69a20.93,20.93,0,0,1-20.9-20.91V160.33a1,1,0,0,1,1.85-.52.71.71,0,0,0,.67.36h0c.52,0,3.37-.46,8.29-8.91a1,1,0,0,1,1.32-.39c20.22,10.25,28,4.74,28.07,4.68a1,1,0,0,1,1.05-.09,1,1,0,0,1,.55.89v18.43A20.93,20.93,0,0,1,119.08,195.69Zm-18.9-33.56v12.65a18.91,18.91,0,1,0,37.81,0V158c-3.28,1.33-11.78,3-27.74-4.93-3.57,5.93-6.86,9.07-9.52,9.1A2.41,2.41,0,0,1,100.18,162.13Z" fill="#093f68"/><path d="M113.55,182.42h11.52s-1.15,7.55-6.42,7.22C112.65,189.26,113.55,182.42,113.55,182.42Z" fill="#093f68"/><path d="M103.48,231.2a1,1,0,0,1-1-1V206.83a1,1,0,0,1,2,0V230.2A1,1,0,0,1,103.48,231.2Z" fill="#093f68"/><path d="M133.2,231.2a1,1,0,0,1-1-1V206.83a1,1,0,1,1,2,0V230.2A1,1,0,0,1,133.2,231.2Z" fill="#093f68"/><circle cx="110.26" cy="171.91" r="2.05" fill="#093f68"/><circle cx="131.02" cy="172.92" r="2.05" fill="#093f68"/><path d="M119,178.8a13.14,13.14,0,0,1-2.06-.17,1,1,0,0,1-.81-1.16,1,1,0,0,1,1.16-.81,9.89,9.89,0,0,0,2.61.08,17.17,17.17,0,0,0-1.68-4.37,1,1,0,0,1,.42-1.34,1,1,0,0,1,1.35.42c.92,1.76,2.37,4.93,1.74,6.33a1.43,1.43,0,0,1-1,.83A7.39,7.39,0,0,1,119,178.8Z" fill="#093f68"/><path d="M108.11,180.5a7.83,7.83,0,1,1,7.83-7.83A7.83,7.83,0,0,1,108.11,180.5Zm0-13.65a5.83,5.83,0,1,0,5.83,5.82A5.83,5.83,0,0,0,108.11,166.85Z" fill="#093f68"/><path d="M130,180.5a7.83,7.83,0,1,1,7.82-7.83A7.83,7.83,0,0,1,130,180.5Zm0-13.65a5.83,5.83,0,1,0,5.82,5.82A5.83,5.83,0,0,0,130,166.85Z" fill="#093f68"/><path d="M114.94,171.92a1,1,0,0,1-.82-.43,1,1,0,0,1,.24-1.39c.2-.14,4.89-3.38,9.34-.74a1,1,0,1,1-1,1.72c-3.36-2-7.14.63-7.18.66A1,1,0,0,1,114.94,171.92Z" fill="#093f68"/><path d="M113.09,165.09h0l-9.76,0a2,2,0,1,1,0-4h0l9.77,0a2,2,0,0,1,0,4Z" fill="#093f68"/><path d="M127,165.33a2,2,0,0,1-.1-4l9.75-.5a2,2,0,0,1,.21,4l-9.75.5Z" fill="#093f68"/><path d="M272.66,56.15H127.34a19.92,19.92,0,0,0-19.92,19.93v18A19.92,19.92,0,0,0,127.34,114h6.84v11.55L142.82,114h52.29L200,124.87,204.89,114h52.29l8.64,11.55V114h6.84a19.92,19.92,0,0,0,19.92-19.92v-18A19.92,19.92,0,0,0,272.66,56.15Z" fill="#fff"/><path d="M265.82,126.58a1,1,0,0,1-.8-.4L256.68,115H205.54l-4.63,10.25a1,1,0,0,1-1.82,0L194.46,115H143.32L135,126.18a1,1,0,0,1-1.8-.6V115h-5.84a20.94,20.94,0,0,1-20.92-20.92v-18a21,21,0,0,1,20.92-20.93H272.66a21,21,0,0,1,20.92,20.93v18A20.94,20.94,0,0,1,272.66,115h-5.84v10.55a1,1,0,0,1-.69,1A1.12,1.12,0,0,1,265.82,126.58ZM204.89,113h52.29a1,1,0,0,1,.8.4l6.84,9.14V114a1,1,0,0,1,1-1h6.84a18.94,18.94,0,0,0,18.92-18.92v-18a19,19,0,0,0-18.92-18.93H127.34a19,19,0,0,0-18.92,18.93v18A18.94,18.94,0,0,0,127.34,113h6.84a1,1,0,0,1,1,1v8.54l6.84-9.14a1,1,0,0,1,.8-.4h52.29a1,1,0,0,1,.91.59l4,8.82,4-8.82A1,1,0,0,1,204.89,113Z" fill="#093f68"/><path d="M278.29,179.89a11.1,11.1,0,0,1-7.89-3.33,1,1,0,1,1,1.39-1.45c6.44,6.19,14,.21,14.33-.05a1,1,0,0,1,1.26,1.55A16.22,16.22,0,0,1,278.29,179.89Z" fill="#093f68"/><path d="M179.52,229.05s-2.3-14.78-3.93-13.52,0,7.75,0,7.75-6.26-8.87-7.85-8.45-6.52,3.06-5.54,5.83,4.22,8.58,6.62,9.54S179.1,231.58,179.52,229.05Z" fill="#ffc9b0"/><path d="M174.15,232a17.68,17.68,0,0,1-5.7-.83c-3-1.2-6.3-7.65-7.19-10.14a3.38,3.38,0,0,1,.26-2.78c1.18-2.24,4.52-4,6-4.35.48-.12,1.81-.47,6.41,5.43-.14-1.87,0-3.73,1.08-4.54a1.32,1.32,0,0,1,1.31-.2c1.41.56,2.83,5.39,4.23,14.35a1.08,1.08,0,0,1,0,.31,2.54,2.54,0,0,1-1.4,1.82A10.81,10.81,0,0,1,174.15,232Zm-6.29-16.12c-1.11.35-3.76,1.76-4.57,3.3a1.4,1.4,0,0,0-.15,1.18c1.08,3,4.21,8.21,6.05,9s7.09,1,8.93,0a.92.92,0,0,0,.37-.31,76.29,76.29,0,0,0-2.6-11.72,19.82,19.82,0,0,0,.67,5.77,1,1,0,0,1-.56,1.16,1,1,0,0,1-1.23-.34C172.24,220.27,168.92,216.27,167.86,215.84Zm-.07,0Z" fill="#093f68"/><path d="M170.79,227.84a1,1,0,0,1-.92-.62,1.72,1.72,0,0,1,0-1.35c.72-1.66,4.25-3.12,5.32-3.53a1,1,0,0,1,1.29.58,1,1,0,0,1-.58,1.29c-1.93.74-3.86,1.86-4.17,2.4a1,1,0,0,1-.6,1.16A1,1,0,0,1,170.79,227.84Z" fill="#093f68"/><path d="M264.58,73.05H162.07a1,1,0,0,1,0-2H264.58a1,1,0,0,1,0,2Z" fill="#dfeaef"/><path d="M264.58,86H142.92a1,1,0,0,1,0-2H264.58a1,1,0,0,1,0,2Z" fill="#dfeaef"/><path d="M235.52,99h-92.6a1,1,0,0,1,0-2h92.6a1,1,0,0,1,0,2Z" fill="#dfeaef"/><path d="M138.69,230.51s-2.94-7.75-1.05-9.59,2.83-1.13,2.83-1.13,1.46-11.27,3.1-10.17,2.17,6.06,1.18,9.86c0,0,4.08-.64,4.92,2.88s-1.55,7.14-3.52,7.84S138.69,230.51,138.69,230.51Z" fill="#ffc9b0"/><path d="M141.9,231.62c-1.59,0-3-.09-3.28-.11a1,1,0,0,1-.86-.64c-.75-2-3-8.53-.82-10.67a4.79,4.79,0,0,1,2.67-1.48c.85-6.11,1.91-9.48,3.16-10.05a1.38,1.38,0,0,1,1.36.12c2,1.35,2.52,5.87,1.87,9.65a4.8,4.8,0,0,1,4.64,3.69c1,4.17-1.83,8.18-4.15,9A16.16,16.16,0,0,1,141.9,231.62Zm-2.49-2.07c1.78.1,5.13.16,6.41-.29,1.45-.52,3.61-3.62,2.88-6.66-.62-2.6-3.67-2.16-3.8-2.14a1,1,0,0,1-.89-.31,1,1,0,0,1-.23-.93c.88-3.35.43-7-.38-8.32a44.46,44.46,0,0,0-1.94,9,1,1,0,0,1-.53.76,1,1,0,0,1-.93,0s-.56-.11-1.67,1C137.54,222.41,138.23,226.23,139.41,229.55Z" fill="#093f68"/><path d="M140.47,219.79s5.47-.45,5.26,2.22-3.94,1.83-3.94,1.83a4.71,4.71,0,0,1,.21,3.31" fill="#ffc9b0"/><path d="M142,228.15a1,1,0,0,1-.39-.08,1,1,0,0,1-.53-1.31,3.64,3.64,0,0,0-.2-2.5,1,1,0,0,1,1.13-1.39,3.62,3.62,0,0,0,2.38-.22.86.86,0,0,0,.34-.72.51.51,0,0,0-.15-.45c-.65-.65-2.78-.8-4-.7a1,1,0,0,1-.17-2c.67-.06,4.07-.25,5.6,1.27a2.53,2.53,0,0,1,.74,2,2.88,2.88,0,0,1-1.16,2.17,4.19,4.19,0,0,1-2.41.71,4.64,4.64,0,0,1-.24,2.57A1,1,0,0,1,142,228.15Z" fill="#093f68"/></g></svg>