<svg xmlns="http://www.w3.org/2000/svg" viewBox="0 0 400 300"><g id="_115_team_meeting_outline" data-name="#115_team_meeting_outline"><path d="M193.91,179.88H178.22a1,1,0,0,1,0-2h15.69a1,1,0,0,1,0,2Z" fill="#093f68"/><rect x="113.48" y="178.88" width="154.53" height="46.31" fill="#fff"/><path d="M268,226.18H113.48a1,1,0,0,1-1-1v-46.3a1,1,0,0,1,1-1H268a1,1,0,0,1,1,1v46.3A1,1,0,0,1,268,226.18Zm-153.53-2H267v-44.3H114.48Z" fill="#093f68"/><ellipse cx="294.49" cy="156.86" rx="7.43" ry="6.4" fill="#ffc9b0"/><path d="M294.49,164.26c-4.64,0-8.42-3.32-8.42-7.4s3.78-7.4,8.42-7.4,8.43,3.32,8.43,7.4S299.14,164.26,294.49,164.26Zm0-12.8c-3.54,0-6.42,2.43-6.42,5.4s2.88,5.4,6.42,5.4,6.43-2.42,6.43-5.4S298,151.46,294.49,151.46Z" fill="#093f68"/><path d="M262.67,129.42c-6.37,10.94-10.72,4.75-12,2.6v23.3a22.4,22.4,0,0,0,20.44,22.31v4.78a3.83,3.83,0,0,0,7.65,0v-4.49c13.58-.5,20.21-12.2,20.21-22.6l-3.51-20.74S286.53,141.51,262.67,129.42Z" fill="#ffc9b0"/><path d="M274.91,187.23a4.82,4.82,0,0,1-4.82-4.82v-3.88a23.54,23.54,0,0,1-20.44-23.21V132a1,1,0,0,1,.73-1,1,1,0,0,1,1.12.45c1.3,2.13,2.67,3.21,4.06,3.21h0c1.88,0,4-2,6.23-5.79a1,1,0,0,1,1.32-.39c23,11.67,31.61,5.33,31.7,5.26a1,1,0,0,1,1-.14,1,1,0,0,1,.63.77l3.5,20.74a.88.88,0,0,1,0,.16A25.76,25.76,0,0,1,294.72,171a20.49,20.49,0,0,1-15,7.92v3.54A4.83,4.83,0,0,1,274.91,187.23Zm-23.26-52.29v20.38a21.51,21.51,0,0,0,19.53,21.31,1,1,0,0,1,.91,1v4.78a2.83,2.83,0,0,0,5.65,0v-4.49a1,1,0,0,1,1-1c12.6-.47,19.21-11.16,19.25-21.52l-3.26-19.26c-3.32,1.5-12.9,3.88-31.64-5.41-2.45,4-5,6-7.45,6h0A5.53,5.53,0,0,1,251.65,134.94Z" fill="#093f68"/><ellipse cx="255" cy="155.89" rx="5.87" ry="6.4" fill="#ffc9b0"/><path d="M255,163.29a7.42,7.42,0,1,1,6.87-7.4A7.16,7.16,0,0,1,255,163.29Zm0-12.8a5.43,5.43,0,1,0,4.87,5.4A5.16,5.16,0,0,0,255,150.49Z" fill="#093f68"/><path d="M257.29,156c-2-4.65-2.81-9.43-3.71-14.36a4.82,4.82,0,0,1-3.94-1.28,7.35,7.35,0,0,1-1.82-3.75A13.43,13.43,0,0,1,250.41,126a14.88,14.88,0,0,1,7.3-5.2c.88-.25,8.15-.29,8,.05,1.35-3.22,4.43-5.42,7.67-6.73,12.55-5.08,25,.38,30.11,12.74,2.4,5.82,3,12.23,2.83,18.52-.17,6.52-1.2,13.2-4.53,18.8-6.4,10.73-20.83,12.64-31.4,7C264.28,168,260,162.41,257.29,156Z" fill="#725858"/><path d="M282.81,175.25a27.73,27.73,0,0,1-12.88-3.13c-5.78-3.06-10.47-8.49-13.56-15.7h0c-1.93-4.49-2.75-9-3.62-13.72a5.68,5.68,0,0,1-3.82-1.61,8.2,8.2,0,0,1-2.09-4.26,14.44,14.44,0,0,1,2.77-11.42,15.76,15.76,0,0,1,7.83-5.55,48.35,48.35,0,0,1,7.7-.11,14.84,14.84,0,0,1,7.88-6.54c12.88-5.21,26.08.38,31.4,13.29,2.16,5.22,3.11,11.41,2.91,18.93-.21,8.16-1.7,14.29-4.67,19.28C298.29,172,290.54,175.25,282.81,175.25Zm-29.23-34.58a1,1,0,0,1,1,.82l.13.73c.85,4.68,1.66,9.1,3.51,13.42h0c2.91,6.78,7.28,11.87,12.65,14.71,9.55,5.06,23.76,4,30.08-6.66,2.79-4.69,4.19-10.51,4.39-18.32.19-7.23-.71-13.15-2.75-18.11-5-12-16.81-17.05-28.81-12.2-3.52,1.43-6,3.62-7.13,6.19h0a1,1,0,0,1-1.3.53l-.12-.06a49.66,49.66,0,0,0-7.25.06,13.83,13.83,0,0,0-6.77,4.84,12.42,12.42,0,0,0-2.4,9.81,6.35,6.35,0,0,0,1.55,3.24,3.81,3.81,0,0,0,3.12,1Z" fill="#093f68"/><path d="M287.35,226.18a1,1,0,0,1-1-1V194.63a1,1,0,0,1,2,0v30.55A1,1,0,0,1,287.35,226.18Z" fill="#093f68"/><path d="M256.11,183.18H287a8.52,8.52,0,0,1,8.52,8.52v33.48H240.63l7-33.48A8.52,8.52,0,0,1,256.11,183.18Z" fill="#68e1fd"/><path d="M295.5,226.18H240.63a1,1,0,0,1-1-1.2l6.94-33.38a9.53,9.53,0,0,1,9.52-9.42H287a9.53,9.53,0,0,1,9.52,9.52v33.48A1,1,0,0,1,295.5,226.18Zm-53.64-2H294.5V191.7a7.53,7.53,0,0,0-7.52-7.52H256.11a7.53,7.53,0,0,0-7.52,7.52,1.49,1.49,0,0,1,0,.21Zm5.73-32.48h0Z" fill="#093f68"/><line x1="256.26" y1="225.18" x2="260.87" y2="206.57" fill="#68e1fd"/><path d="M256.26,226.18a1,1,0,0,1-.24,0,1,1,0,0,1-.73-1.22l4.61-18.61a1,1,0,1,1,1.94.48l-4.61,18.62A1,1,0,0,1,256.26,226.18Z" fill="#093f68"/><path d="M276.36,188H308.2a9.41,9.41,0,0,1,9.41,9.41v27.81a0,0,0,0,1,0,0H266.95a0,0,0,0,1,0,0V197.37A9.41,9.41,0,0,1,276.36,188Z" fill="#ffbc0e"/><path d="M317.61,226.18H267a1,1,0,0,1-1-1V197.37A10.42,10.42,0,0,1,276.36,187H308.2a10.42,10.42,0,0,1,10.41,10.41v27.81A1,1,0,0,1,317.61,226.18Zm-49.66-2h48.66V197.37A8.42,8.42,0,0,0,308.2,189H276.36a8.42,8.42,0,0,0-8.41,8.41Z" fill="#093f68"/><ellipse cx="106.76" cy="155.93" rx="7.43" ry="6.4" fill="#ffc9b0"/><path d="M106.76,163.33c-4.64,0-8.42-3.32-8.42-7.4s3.78-7.4,8.42-7.4,8.43,3.32,8.43,7.4S111.41,163.33,106.76,163.33Zm0-12.8c-3.54,0-6.42,2.42-6.42,5.4s2.88,5.4,6.42,5.4,6.43-2.43,6.43-5.4S110.3,150.53,106.76,150.53Z" fill="#093f68"/><path d="M138.58,128.49c6.37,10.93,10.72,4.74,12,2.59v23.31a22.39,22.39,0,0,1-20.45,22.3v4.78a3.82,3.82,0,1,1-7.64,0V177c-13.58-.51-20.21-12.2-20.21-22.6l3.5-20.74S114.72,140.58,138.58,128.49Z" fill="#ffc9b0"/><path d="M126.34,186.29a4.82,4.82,0,0,1-4.82-4.82v-3.54a20.48,20.48,0,0,1-15-7.92,25.73,25.73,0,0,1-5.22-15.62.91.91,0,0,1,0-.17l3.51-20.74a1,1,0,0,1,.62-.76,1,1,0,0,1,1,.14c.08.06,8.86,6.31,31.7-5.26a1,1,0,0,1,1.31.38c2.2,3.78,4.35,5.78,6.23,5.8h0c1.39,0,2.75-1.08,4.05-3.22a1,1,0,0,1,1.13-.44,1,1,0,0,1,.73,1v23.31a23.54,23.54,0,0,1-20.45,23.2v3.88A4.82,4.82,0,0,1,126.34,186.29Zm-23-31.82c0,10.35,6.64,21.05,19.24,21.52a1,1,0,0,1,1,1v4.48a2.82,2.82,0,1,0,5.64,0v-4.78a1,1,0,0,1,.92-1,21.53,21.53,0,0,0,19.53-21.31V134a5.6,5.6,0,0,1-4,1.78c-2.49,0-5-2-7.45-6-18.74,9.28-28.32,6.91-31.64,5.41Z" fill="#093f68"/><path d="M113.9,226.18a1,1,0,0,1-1-1V194.63a1,1,0,0,1,2,0v30.55A1,1,0,0,1,113.9,226.18Z" fill="#093f68"/><path d="M174,200.32a21.73,21.73,0,0,0,2-5c.88-3.34,2.23-6,3.78-5.27.91.43-.37,4.84-.37,4.84s2.87-5.94,5.11-5.54,5.24,3.91,4,6-6.16,10.59-6.16,10.59Z" fill="#ffc9b0"/><path d="M182.36,206.94a1,1,0,0,1-.56-.17l-8.37-5.62a1,1,0,0,1-.3-1.34,20.87,20.87,0,0,0,1.9-4.71c.87-3.32,2-5.31,3.29-5.92a2.12,2.12,0,0,1,1.87,0,1.42,1.42,0,0,1,.85,1.24c1.07-1.27,2.33-2.26,3.64-2a7.38,7.38,0,0,1,4.68,4,3.66,3.66,0,0,1,0,3.48c-1.21,2-6.1,10.49-6.15,10.58a1,1,0,0,1-.64.47A.91.91,0,0,1,182.36,206.94ZM175.29,200l6.74,4.52c1.31-2.27,4.66-8,5.63-9.67a1.88,1.88,0,0,0-.12-1.63,5.46,5.46,0,0,0-3.2-2.85c-.76-.14-2.71,2.25-4,5a1,1,0,0,1-1.86-.71,15.91,15.91,0,0,0,.66-3.62c-.53.32-1.38,1.69-2.14,4.57A22.91,22.91,0,0,1,175.29,200Z" fill="#093f68"/><path d="M182.36,205.94c-2.07,8-8.22,16-17.1,16a15.53,15.53,0,0,1-2.33-.18,22.16,22.16,0,0,1-10.81-5v8.34H105.75V191.7a8.53,8.53,0,0,1,8.52-8.52h27.35a13.62,13.62,0,0,1,11.87,7.9c2.06,4.54,8.49,17,11.68,15.92s7.66-6.91,7.66-6.91Z" fill="#68e1fd"/><path d="M152.12,226.18H105.75a1,1,0,0,1-1-1V191.7a9.53,9.53,0,0,1,9.52-9.52h27.35a14.64,14.64,0,0,1,12.78,8.49c3.82,8.42,8.9,15.89,10.45,15.38,2.37-.78,6-5,7.19-6.57a1,1,0,0,1,1.31-.24l9.53,5.84a1,1,0,0,1,.45,1.11c-2.16,8.36-8.58,16.79-18.07,16.79a16,16,0,0,1-2.48-.19,22.67,22.67,0,0,1-9.66-3.94v6.33A1,1,0,0,1,152.12,226.18Zm-45.37-2h44.37v-7.34a1,1,0,0,1,1.63-.77,21.26,21.26,0,0,0,10.33,4.74,14.66,14.66,0,0,0,2.18.17c8.16,0,13.81-7.21,15.94-14.58l-8.13-5c-1.37,1.68-4.79,5.62-7.59,6.54-4.5,1.48-11.54-13.45-12.9-16.45a12.56,12.56,0,0,0-11-7.32H114.27a7.54,7.54,0,0,0-7.52,7.52Z" fill="#093f68"/><path d="M152.12,217.84a1,1,0,0,1-1-1V204.18a1,1,0,0,1,2,0v12.66A1,1,0,0,1,152.12,217.84Z" fill="#093f68"/><path d="M151.57,140.06a2.83,2.83,0,0,1-.28.2c-1.56.92-4.8.87-6.6,1.2-4.05,4-2.08,10.57-4.51,15.33s-5.67,7.45-2.64,13.29c1.09,2.09,2.5,4,3.27,6.27,2.06,6-1.33,13-6.58,16.58-8.16,5.64-18.43,4-27.73,4.65-7.86.53-18-.37-22.59-7.85-2.68-4.4-1.69-10.55,1.93-14.22,1.62-1.65,3.85-3.12,4.07-5.43.15-1.53-.66-3-1.28-4.36-1.56-3.52-1.89-8,.59-10.93A26.94,26.94,0,0,1,93,151.66c4.21-3.47,4.33-6.63,4.29-11.45-.05-6.61,3.63-17.12,9-21.19,3.08-2.31,7.43-3.19,10.87-1.45a8.44,8.44,0,0,1,5.33-3.95c7.13-2,14.9-2.32,21.14,2.26s8.75,12.69,8.76,20.1C152.41,137.6,152.66,139.18,151.57,140.06Z" fill="#725858"/><path d="M103,198.7c-9.69,0-16.54-2.89-19.92-8.45-2.86-4.7-2-11.34,2.08-15.44.36-.36.74-.72,1.13-1.08,1.29-1.19,2.52-2.31,2.66-3.74a6.61,6.61,0,0,0-.91-3.22l-.3-.65c-1.55-3.52-2.18-8.51.74-12a14.59,14.59,0,0,1,2.67-2.33c.41-.3.82-.61,1.21-.93,3.82-3.14,4-5.82,3.93-10.67-.06-7,3.81-17.76,9.45-22a11.93,11.93,0,0,1,11.07-1.92,9.89,9.89,0,0,1,5.46-3.65c9-2.52,16.38-1.7,22,2.42s9.16,12,9.17,20.91c0,.25,0,.5,0,.75,0,1.43.08,3.06-1.22,4.11h0a2.46,2.46,0,0,1-.41.28c-1.26.75-3.24.93-5,1.1-.58.05-1.15.1-1.62.17-1.89,2-2.18,4.86-2.49,7.84a19.44,19.44,0,0,1-1.61,7c-.51,1-1,1.91-1.56,2.77-2,3.28-3.25,5.44-1.08,9.61.35.69.75,1.36,1.14,2a24.18,24.18,0,0,1,2.18,4.38c2.35,6.86-1.72,14.11-6.95,17.72-6.49,4.49-14.17,4.56-21.59,4.64-2.2,0-4.48,0-6.64.19Q104.71,198.7,103,198.7Zm10.21-81a10.6,10.6,0,0,0-6.27,2.16c-5,3.77-8.7,13.87-8.65,20.38,0,4.47.07,8.34-4.65,12.23-.42.35-.86.68-1.3,1a13.13,13.13,0,0,0-2.33,2c-2.33,2.76-1.69,7-.44,9.87.09.21.19.41.28.62a8.33,8.33,0,0,1,1.09,4.25c-.22,2.19-1.85,3.7-3.3,5-.36.33-.72.66-1.06,1-3.36,3.41-4.15,9.12-1.79,13,4.25,7,14.13,7.88,21.68,7.37,2.21-.15,4.52-.17,6.75-.19,7.12-.07,14.48-.14,20.47-4.28,4.61-3.19,8.22-9.51,6.2-15.44a22.44,22.44,0,0,0-2-4c-.41-.7-.83-1.4-1.2-2.12-2.68-5.15-.91-8.12,1.14-11.55.5-.84,1-1.71,1.5-2.66A17.91,17.91,0,0,0,140.7,150c.34-3.3.69-6.72,3.29-9.28a1,1,0,0,1,.52-.27c.61-.11,1.33-.18,2.1-.25a12.12,12.12,0,0,0,4.17-.82l.16-.11c.51-.42.51-1.23.48-2.51,0-.26,0-.53,0-.8,0-8.25-3.13-15.46-8.35-19.3s-11.93-4.45-20.28-2.1a7.53,7.53,0,0,0-4.72,3.45,1,1,0,0,1-1.33.43A7.84,7.84,0,0,0,113.18,117.66Zm38.39,22.4h0Z" fill="#093f68"/><path d="M83.64,188H134.3a0,0,0,0,1,0,0v27.81a9.41,9.41,0,0,1-9.41,9.41H93.06a9.41,9.41,0,0,1-9.41-9.41V188A0,0,0,0,1,83.64,188Z" transform="translate(217.95 413.14) rotate(-180)" fill="#ffbc0e"/><path d="M134.3,226.18H83.64a1,1,0,0,1-1-1V197.37A10.42,10.42,0,0,1,93.06,187h31.83a10.42,10.42,0,0,1,10.41,10.41v27.81A1,1,0,0,1,134.3,226.18Zm-49.66-2H133.3V197.37a8.42,8.42,0,0,0-8.41-8.41H93.06a8.42,8.42,0,0,0-8.42,8.41Z" fill="#093f68"/><path d="M143.32,148.56a6.42,6.42,0,0,0,0,12.79" fill="#ffc9b0"/><path d="M143.32,162.35a7.42,7.42,0,0,1,0-14.79,1,1,0,0,1,0,2,5.42,5.42,0,0,0,0,10.79,1,1,0,0,1,0,2Z" fill="#093f68"/><path d="M181,80.27s-5.71-1.9-11.13,4.77c-5.07,6.25-4.8,15.21-5,22.65-.31,9-1,16.06-6.16,26.5,2.54,1.77,3.1,3,6,4.13,1-1.82,3.33-5.25,3.33-5.25a40,40,0,0,1,.74,6.51,73.94,73.94,0,0,0,30.18,5.09c6.65-.28,13.67-1.59,19.21-5.51,4.88-3.45,1.14-12.31,1.35-17.87.38-10.19.23-24.44-5.05-33.72C207.52,75.45,189,69.88,181,80.27Z" fill="#725858"/><path d="M195.86,145.73a75.39,75.39,0,0,1-27.5-5.22,1,1,0,0,1-.63-1,24.71,24.71,0,0,0-.31-3.8c-.67,1-1.43,2.22-1.88,3.06a1,1,0,0,1-1.25.44,13,13,0,0,1-4.07-2.58,26.47,26.47,0,0,0-2.09-1.65,1,1,0,0,1-.33-1.26c5.15-10.31,5.76-17.32,6.06-26.09,0-.71,0-1.42.06-2.15.19-7.11.41-15.18,5.21-21.1s9.72-5.58,11.53-5.25c3.2-3.81,8.05-5.69,13.7-5.29a27.18,27.18,0,0,1,20.93,13.21c5.43,9.54,5.56,24.11,5.18,34.25a32.48,32.48,0,0,0,.55,5.6c.73,4.82,1.56,10.3-2.33,13-4.91,3.47-11.36,5.33-19.74,5.69C197.93,145.71,196.89,145.73,195.86,145.73Zm-26.13-6.83a73.2,73.2,0,0,0,29.14,4.77c8-.34,14.08-2.08,18.67-5.32,2.88-2,2.18-6.66,1.5-11.12a33.87,33.87,0,0,1-.57-6c.37-9.89.26-24.09-4.92-33.18a25.15,25.15,0,0,0-19.33-12.21c-5.21-.36-9.61,1.42-12.38,5a1,1,0,0,1-1.11.35c-.21-.07-5.17-1.56-10,4.44-4.38,5.39-4.58,13.1-4.77,19.9q0,1.09-.06,2.16c-.3,8.81-.91,15.9-5.89,26.15.61.46,1.1.88,1.55,1.26a12.35,12.35,0,0,0,2.72,1.9c1.11-1.87,2.84-4.41,2.92-4.53a1,1,0,0,1,1.81.37A46.34,46.34,0,0,1,169.73,138.9Z" fill="#093f68"/><path d="M224.38,154c3,1.38,5.89,3,8.79,4.54l5.58-11.62c.35-.73,3.32-8.86,3.16-13.11-.23-6.12-6.66-4.71-7.34-4.67-1.65.11-4.27,6.22-4.33,9.12a23.73,23.73,0,0,1-1.67-4.66c-.58-2.08-3.41-2.13-2.86,2.47a55.54,55.54,0,0,0,2.47,10l-1.73,3.61Z" fill="#ffc9b0"/><path d="M233.17,159.54a1,1,0,0,1-.48-.12l-.43-.24c-2.7-1.46-5.49-3-8.3-4.27a1,1,0,0,1-.52-.57,1,1,0,0,1,0-.78l3.63-7.54a54.53,54.53,0,0,1-2.39-9.83c-.49-4.08,1.41-4.79,2-4.91a2.57,2.57,0,0,1,2.81,2.05c.14.51.28,1,.41,1.39,1-3,2.73-6.45,4.55-6.57l.2,0c1-.14,4.18-.57,6.3,1.21a5.82,5.82,0,0,1,1.91,4.45c.17,4.61-3,13-3.25,13.57h0l-.83,1.73-4.76,9.9a1,1,0,0,1-.59.51A.84.84,0,0,1,233.17,159.54Zm-7.45-6c2.38,1.14,4.72,2.4,7,3.64l5.13-10.67c.38-.8,3.21-8.7,3.06-12.64a3.86,3.86,0,0,0-1.2-3c-1.44-1.22-3.92-.88-4.74-.77l-.34,0c-.9.33-3.33,5.36-3.39,8.14a1,1,0,0,1-1.87.48,23.71,23.71,0,0,1-1.76-4.89c-.13-.47-.39-.65-.49-.63s-.67.62-.42,2.71a55.22,55.22,0,0,0,2.43,9.79,1,1,0,0,1,0,.77Z" fill="#093f68"/><path d="M234.79,142.67a1,1,0,0,1-1-.88,2.87,2.87,0,0,0-1.05-2.09,3.41,3.41,0,0,0-2.32-.46,1,1,0,0,1-1.18-.79,1,1,0,0,1,.8-1.17,5.44,5.44,0,0,1,3.88.8,4.79,4.79,0,0,1,1.85,3.46,1,1,0,0,1-.86,1.12Z" fill="#093f68"/><path d="M225.16,149.12s-3.1,8.09-4.51,11c-3.58-3.67-10.32-13.39-13.22-15.66s-9.64-3.74-11.59-3.74h-13.1c-7.58,0-13.72,6.69-13.72,14.94v23.22h40.54V167.33c5,5.41,8.72,8.28,12.35,8.28a7.47,7.47,0,0,0,2.88-.6c1.72-.71,5.66-2.36,11.93-19.58Z" fill="#68e1fd"/><path d="M209.56,179.88H169a1,1,0,0,1-1-1V155.66c0-8.79,6.6-15.94,14.72-15.94h13.1c2.12,0,9.12,1.53,12.2,3.95,1.71,1.34,4.46,4.84,7.37,8.55,1.73,2.21,3.52,4.48,5,6.12,1.51-3.45,3.83-9.51,3.85-9.58a1,1,0,0,1,.59-.58,1,1,0,0,1,.83.06l11.56,6.31a1,1,0,0,1,.46,1.22c-6.42,17.64-10.52,19.35-12.49,20.17a8.59,8.59,0,0,1-3.25.67c-3.74,0-7.32-2.64-11.36-6.77v9A1,1,0,0,1,209.56,179.88Zm-39.54-2h38.54V167.33a1,1,0,0,1,1.73-.68c5.23,5.66,8.6,8,11.63,8a6.47,6.47,0,0,0,2.49-.52c1.41-.59,5.13-2.14,11.07-18.19l-9.8-5.35c-.89,2.3-3,7.7-4.13,10a1,1,0,0,1-.73.55,1,1,0,0,1-.88-.29c-1.63-1.67-3.91-4.57-6.11-7.37-2.7-3.45-5.5-7-7-8.2-2.6-2-9-3.53-11-3.53h-13.1c-7,0-12.72,6.25-12.72,13.94Z" fill="#093f68"/><polygon points="188.18 142.19 191.84 169.75 195.69 142.19 188.18 142.19" fill="#f56132"/><path d="M191.84,170.75h0a1,1,0,0,1-1-.87l-3.67-27.56a1,1,0,0,1,1-1.14h7.51a1,1,0,0,1,.76.35,1,1,0,0,1,.23.79l-3.85,27.57A1,1,0,0,1,191.84,170.75Zm-2.52-27.57,2.54,19.17,2.68-19.17Z" fill="#093f68"/><path d="M188.18,137.86h7.52a0,0,0,0,1,0,0v4.33a3.19,3.19,0,0,1-3.19,3.19h-1.13a3.19,3.19,0,0,1-3.19-3.19v-4.33A0,0,0,0,1,188.18,137.86Z" fill="#ffc9b0"/><path d="M192.5,146.38h-1.13a4.2,4.2,0,0,1-4.19-4.2v-4.32a1,1,0,0,1,1-1h7.51a1,1,0,0,1,1,1v4.32A4.2,4.2,0,0,1,192.5,146.38Zm-3.32-7.52v3.32a2.2,2.2,0,0,0,2.19,2.2h1.13a2.2,2.2,0,0,0,2.19-2.2v-3.32Z" fill="#093f68"/><ellipse cx="170.45" cy="118.34" rx="7.3" ry="6.29" fill="#ffc9b0"/><path d="M170.45,125.63c-4.57,0-8.3-3.27-8.3-7.29s3.73-7.3,8.3-7.3,8.31,3.28,8.31,7.3S175,125.63,170.45,125.63Zm0-12.59c-3.47,0-6.3,2.38-6.3,5.3s2.83,5.29,6.3,5.29,6.31-2.38,6.31-5.29S173.93,113,170.45,113Z" fill="#093f68"/><ellipse cx="213.02" cy="118.34" rx="7.3" ry="6.29" fill="#ffc9b0"/><path d="M213,125.63c-4.58,0-8.31-3.27-8.31-7.29s3.73-7.3,8.31-7.3,8.3,3.28,8.3,7.3S217.6,125.63,213,125.63ZM213,113c-3.48,0-6.31,2.38-6.31,5.3s2.83,5.29,6.31,5.29,6.3-2.38,6.3-5.29S216.5,113,213,113Z" fill="#093f68"/><path d="M205.33,99.67l-7.13-9.16s-1.6,5.64-2.58,9.13l-11.24,0-2.64-8.18-3.12,8.16-8.71,0v17.25a22,22,0,0,0,22,22h0a22,22,0,0,0,22-22V99.7Z" fill="#ffc9b0"/><path d="M191.93,139.85a23.05,23.05,0,0,1-23-23V99.57a1,1,0,0,1,.29-.71,1,1,0,0,1,.71-.29h0l8,0,2.87-7.51a1,1,0,0,1,1.89,0l2.42,7.49,9.75,0,2.38-8.4a1,1,0,0,1,.77-.71,1,1,0,0,1,1,.37l6.83,8.77,8.14,0a1,1,0,0,1,1,1v17.12A23.05,23.05,0,0,1,191.93,139.85Zm-21-39.28v16.25a21,21,0,1,0,42.05,0V100.69l-7.63,0a1,1,0,0,1-.79-.38l-5.91-7.61c-.56,2-1.43,5-2,7.24a1,1,0,0,1-1,.72h0l-11.23,0a1,1,0,0,1-.95-.69l-1.77-5.48-2.1,5.51a1,1,0,0,1-.94.64h0Z" fill="#093f68"/><circle cx="181.74" cy="113.62" r="2.04" fill="#093f68"/><circle cx="202.77" cy="113.62" r="2.04" fill="#093f68"/><path d="M191.83,121.47a13.09,13.09,0,0,1-2.05-.17,1,1,0,1,1,.35-2,9.65,9.65,0,0,0,2.59.09,16.58,16.58,0,0,0-1.67-4.35,1,1,0,0,1,.42-1.35,1,1,0,0,1,1.35.43c.92,1.75,2.36,4.91,1.74,6.31a1.45,1.45,0,0,1-1,.83A7.24,7.24,0,0,1,191.83,121.47Z" fill="#093f68"/><path d="M185.9,108.64h0l-9.72,0a2,2,0,1,1,0-4h0l9.72,0a2,2,0,0,1,0,4Z" fill="#093f68"/><path d="M199.77,108.88a2,2,0,0,1-.1-4l9.71-.5a2,2,0,1,1,.2,4l-9.71.5Z" fill="#093f68"/><path d="M193.33,130c-4.71,0-9.72-2.56-10-2.72a1,1,0,0,1-.43-1.34,1,1,0,0,1,1.35-.43c.09,0,9.27,4.74,13.3,1.16a1,1,0,0,1,1.41.08,1,1,0,0,1-.08,1.42A8.16,8.16,0,0,1,193.33,130Z" fill="#093f68"/><path d="M209.56,168.33a1,1,0,0,1-1-1V156.58a1,1,0,1,1,2,0v10.75A1,1,0,0,1,209.56,168.33Z" fill="#093f68"/><path d="M177.25,179.29a1,1,0,0,1-1-1V155.55a1,1,0,0,1,2,0v22.74A1,1,0,0,1,177.25,179.29Z" fill="#093f68"/><path d="M234.79,213.53h-27a1,1,0,0,1-1-1v-21a1,1,0,0,1,1-1h27a1,1,0,0,1,1,1v21A1,1,0,0,1,234.79,213.53Zm-26-2h25v-19h-25Z" fill="#dfeaef"/><path d="M228.8,208.47H214.6a1,1,0,0,1,0-2h14.2a1,1,0,0,1,0,2Z" fill="#dfeaef"/><path d="M228.8,203H214.6a1,1,0,0,1,0-2h14.2a1,1,0,0,1,0,2Z" fill="#dfeaef"/><path d="M228.8,197.59h-10a1,1,0,0,1,0-2h10a1,1,0,0,1,0,2Z" fill="#dfeaef"/></g></svg>