<svg xmlns="http://www.w3.org/2000/svg" viewBox="0 0 400 300"><g id="_388_the_great_pyramid_outline" data-name="#388_the_great_pyramid_outline"><path d="M293.85,150a93.58,93.58,0,0,1-1.66,17.59c-.52,2.84-1.19,5.63-2,8.37s-1.63,5.25-2.62,7.8a92.39,92.39,0,0,1-4.24,9.4,93.87,93.87,0,0,1-166.7,0c-.58-1.1-1.12-2.2-1.64-3.33a92.57,92.57,0,0,1-7.58-24.32A93.85,93.85,0,1,1,293.85,150Z" fill="#fff"/><path d="M200,244.85a94.57,94.57,0,0,1-84.24-51.23c-.57-1.08-1.11-2.19-1.66-3.37a93.86,93.86,0,0,1-7.66-24.58A96.69,96.69,0,0,1,105.15,150a94.85,94.85,0,1,1,188,17.78,86.69,86.69,0,0,1-2,8.46c-.77,2.69-1.66,5.35-2.65,7.88a95.93,95.93,0,0,1-4.28,9.5A94.57,94.57,0,0,1,200,244.85Zm0-187.7A93,93,0,0,0,107.15,150a94,94,0,0,0,1.27,15.35,91.55,91.55,0,0,0,7.49,24.05c.54,1.16,1.07,2.23,1.62,3.29a92.87,92.87,0,0,0,164.93,0,91,91,0,0,0,4.2-9.3c1-2.48,1.83-5.08,2.59-7.72.8-2.79,1.46-5.57,2-8.27A92.88,92.88,0,0,0,200,57.15Z" fill="#093f68"/><polyline points="116.65 193.16 127.81 193.16 169.66 193.16 188.99 193.16 174.93 177.64 156.95 157.8 148.8 148.81 134.35 132.86 115.01 189.83" fill="#68e1fd"/><path d="M189,194.16H116.65a1,1,0,0,1,0-2h70.08l-52-57.37L116,190.15a1,1,0,0,1-1.9-.64l19.34-57a1,1,0,0,1,1.69-.35l54.64,60.3a1,1,0,0,1-.74,1.67Z" fill="#093f68"/><path d="M134.35,132.86l-19.34,57a92.57,92.57,0,0,1-7.58-24.32Z" fill="#093f68"/><path d="M115,190.83a1,1,0,0,1-.91-.57,94,94,0,0,1-7.66-24.59,1,1,0,0,1,.22-.8l26.92-32.65a1,1,0,0,1,1.72,1l-19.34,57a1,1,0,0,1-.89.68Zm-6.52-25a91.54,91.54,0,0,0,6.39,21.33l16.77-49.41Z" fill="#093f68"/><path d="M148.8,149.81H135.13a1,1,0,0,1,0-2H148.8a1,1,0,0,1,0,2Z" fill="#093f68"/><path d="M138.66,156.75H127.81a1,1,0,0,1,0-2h10.85a1,1,0,0,1,0,2Z" fill="#093f68"/><path d="M148.8,161.46H133.23a1,1,0,0,1,0-2H148.8a1,1,0,0,1,0,2Z" fill="#093f68"/><path d="M138.66,169.51H127.81a1,1,0,0,1,0-2h10.85a1,1,0,0,1,0,2Z" fill="#093f68"/><path d="M133.23,179.71h-13a1,1,0,0,1,0-2h13a1,1,0,0,1,0,2Z" fill="#093f68"/><path d="M142,187.36H122.18a1,1,0,0,1,0-2H142a1,1,0,1,1,0,2Z" fill="#093f68"/><path d="M146.51,174.41H134.35a1,1,0,0,1,0-2h12.16a1,1,0,0,1,0,2Z" fill="#093f68"/><path d="M292.19,167.59c-.52,2.84-1.19,5.63-2,8.37s-1.63,5.25-2.62,7.8a92.39,92.39,0,0,1-4.24,9.4h-43.1l4.91-14.45,5.15-15.2,10.41-30.65Z" fill="#68e1fd"/><path d="M283.35,194.16h-43.1a1,1,0,0,1-.95-1.32l20.47-60.3a1,1,0,0,1,1.69-.35l31.47,34.73a1,1,0,0,1,.24.85,86.19,86.19,0,0,1-2,8.47c-.77,2.69-1.66,5.35-2.65,7.88a95.93,95.93,0,0,1-4.28,9.5A1,1,0,0,1,283.35,194.16Zm-41.7-2h41.09a92.28,92.28,0,0,0,3.92-8.76c1-2.48,1.83-5.08,2.59-7.72s1.38-5.24,1.87-7.79l-30-33.1Z" fill="#093f68"/><polygon points="240.25 193.16 211.01 193.16 260.72 132.86 240.25 193.16" fill="#093f68"/><path d="M240.25,194.16H211a1,1,0,0,1-.77-1.63L260,132.22a1,1,0,0,1,1.72,1L241.2,193.49A1,1,0,0,1,240.25,194.16Zm-27.12-2h26.41L258,137.71Z" fill="#093f68"/><polygon points="169.66 193.16 198.96 106.84 277.18 193.16 169.66 193.16" fill="#68e1fd"/><path d="M277.18,194.16H169.66a1,1,0,0,1-.81-.41,1,1,0,0,1-.14-.91L198,106.51a1,1,0,0,1,1.69-.35l78.22,86.33a1,1,0,0,1-.74,1.67Zm-106.12-2H274.92l-75.56-83.39Z" fill="#093f68"/><polygon points="169.66 193.16 127.81 193.16 198.96 106.84 169.66 193.16" fill="#093f68"/><path d="M169.66,194.16H127.81a1,1,0,0,1-.91-.57,1,1,0,0,1,.13-1.06l71.16-86.33a1,1,0,0,1,1.72,1l-29.3,86.33A1,1,0,0,1,169.66,194.16Zm-39.73-2h39l27.32-80.47Z" fill="#093f68"/><path d="M220.7,131.83H208.38a1,1,0,0,1,0-2H220.7a1,1,0,0,1,0,2Z" fill="#093f68"/><path d="M216.66,137.92H196.34a1,1,0,0,1,0-2h20.32a1,1,0,0,1,0,2Z" fill="#093f68"/><path d="M227.21,143.41H201.84a1,1,0,0,1,0-2h25.37a1,1,0,0,1,0,2Z" fill="#093f68"/><path d="M208.38,149.43h-16a1,1,0,0,1,0-2h16a1,1,0,0,1,0,2Z" fill="#093f68"/><path d="M230.61,153.35H208.38a1,1,0,0,1,0-2h22.23a1,1,0,0,1,0,2Z" fill="#093f68"/><path d="M219.5,162.77H191.37a1,1,0,0,1,0-2H219.5a1,1,0,0,1,0,2Z" fill="#093f68"/><path d="M243.05,168.13H218.18a1,1,0,0,1,0-2h24.87a1,1,0,0,1,0,2Z" fill="#093f68"/><path d="M226.41,173.24H197.94a1,1,0,0,1,0-2h28.47a1,1,0,0,1,0,2Z" fill="#093f68"/><path d="M256.53,179.71H211a1,1,0,0,1,0-2h45.52a1,1,0,0,1,0,2Z" fill="#093f68"/><path d="M227.89,186.38H194.14a1,1,0,0,1,0-2h33.75a1,1,0,0,1,0,2Z" fill="#093f68"/><path d="M205.44,123.21h-9.1a1,1,0,0,1,0-2h9.1a1,1,0,0,1,0,2Z" fill="#093f68"/><path d="M261.68,186.38H247.55a1,1,0,0,1,0-2h14.13a1,1,0,0,1,0,2Z" fill="#093f68"/><path d="M264,146.36h-5.88a1,1,0,0,1,0-2H264a1,1,0,0,1,0,2Z" fill="#093f68"/><path d="M274,152.44h-13a1,1,0,0,1,0-2h13a1,1,0,0,1,0,2Z" fill="#093f68"/><path d="M272.67,159.11H254.62a1,1,0,0,1,0-2h18.05a1,1,0,0,1,0,2Z" fill="#093f68"/><path d="M284.83,165.39H261.68a1,1,0,0,1,0-2h23.15a1,1,0,0,1,0,2Z" fill="#093f68"/><path d="M281.79,172.45h-15.5a1,1,0,0,1,0-2h15.5a1,1,0,0,1,0,2Z" fill="#093f68"/><path d="M290.21,177H279.53a1,1,0,0,1,0-2h10.68a1,1,0,0,1,0,2Z" fill="#093f68"/><path d="M277.8,184.81a1,1,0,0,1-.31-1.95c.22-.07.59-.19,10.11-.1a1,1,0,0,1,0,2h0c-6.38-.06-9.12,0-9.56,0Z" fill="#093f68"/><path d="M283.35,193.16a93.87,93.87,0,0,1-166.7,0Z" fill="#ffbc0e"/><path d="M200,244.85a94.57,94.57,0,0,1-84.24-51.23,1,1,0,0,1,.89-1.46h166.7a1,1,0,0,1,.89,1.46A94.57,94.57,0,0,1,200,244.85Zm-81.69-50.69a92.87,92.87,0,0,0,163.38,0Z" fill="#093f68"/><circle cx="241.25" cy="96.74" r="13.36" fill="#ffbc0e"/><path d="M241.25,111.1a14.37,14.37,0,1,1,14.37-14.36A14.37,14.37,0,0,1,241.25,111.1Zm0-26.73a12.37,12.37,0,1,0,12.37,12.37A12.38,12.38,0,0,0,241.25,84.37Z" fill="#093f68"/><path d="M163.5,117.53h-23c-2.85,0-5.17-1.9-5.17-4.24a4.36,4.36,0,0,1,3.32-4,6,6,0,0,1,4.74-2.93c.66-2.15,3.06-3.73,5.88-3.73a6.33,6.33,0,0,1,5.3,2.53,9.14,9.14,0,0,1,3.7-.76c3.79,0,6.91,2.13,7.56,5.06a4.24,4.24,0,0,1,2.84,3.78C168.67,115.63,166.35,117.53,163.5,117.53Zm-19.38-9.16a4,4,0,0,0-3.82,2.17,1,1,0,0,1-.72.62c-1.33.29-2.25,1.17-2.25,2.13,0,1.22,1.45,2.24,3.17,2.24h23c1.72,0,3.17-1,3.17-2.24a2.45,2.45,0,0,0-2-2.07,1,1,0,0,1-.72-.86c-.2-2.2-2.7-3.91-5.67-3.91a6.91,6.91,0,0,0-3.61,1,1,1,0,0,1-.86.09,1,1,0,0,1-.6-.61,4.06,4.06,0,0,0-3.93-2.21c-2.12,0-3.93,1.24-4.05,2.77A1,1,0,0,1,144.12,108.37Zm-4.76,1.82h0Z" fill="#dfeaef"/><path d="M155.84,111.1a1,1,0,0,1-1-.83,3.36,3.36,0,0,0-1.35-2.08,3.5,3.5,0,0,0-2.91-.09,1,1,0,1,1-.6-1.91,4.9,4.9,0,0,1,6.84,3.75,1,1,0,0,1-.82,1.15Z" fill="#dfeaef"/><path d="M202.43,92.2h-28c-3.35,0-6.08-2.21-6.08-4.94a5,5,0,0,1,3.43-4.44c.73-3.48,4.54-6.12,9-6.12a10.88,10.88,0,0,1,4.6,1,7.52,7.52,0,0,1,6.37-3.15c3.4,0,6.28,1.94,7,4.54a7.1,7.1,0,0,1,5.8,3.55,5.1,5.1,0,0,1,4,4.63C208.51,90,205.78,92.2,202.43,92.2ZM180.78,78.7c-3.74,0-6.87,2.18-7.13,5a1,1,0,0,1-.72.87,3.16,3.16,0,0,0-2.6,2.73c0,1.62,1.83,2.94,4.08,2.94h28c2.25,0,4.08-1.32,4.08-2.94,0-1.28-1.2-2.43-2.91-2.81a1,1,0,0,1-.72-.62c-.62-1.64-2.66-2.79-5-2.79a1,1,0,0,1-1-.92c-.14-2-2.41-3.58-5.14-3.58-2.35,0-4.4,1.17-5,2.85a1,1,0,0,1-.61.61,1.08,1.08,0,0,1-.86-.09A8.62,8.62,0,0,0,180.78,78.7Z" fill="#dfeaef"/><path d="M181.77,83.88a1,1,0,0,1-.65-.24,1,1,0,0,1-.11-1.41c4.88-5.69,10.17-1.79,10.22-1.75a1,1,0,0,1-1.21,1.6c-.39-.29-3.91-2.72-7.49,1.46A1,1,0,0,1,181.77,83.88Z" fill="#dfeaef"/><path d="M124.86,198.44s6.25-6.82,23.94-6.95c15.29-.11,29,11.45,29,11.45" fill="#ffbc0e"/><path d="M177.8,203.94a1.05,1.05,0,0,1-.65-.23c-.13-.12-13.48-11.22-28.13-11.22h-.21c-16.95.13-23.15,6.56-23.21,6.63a1,1,0,0,1-1.41,0,1,1,0,0,1-.06-1.41c.26-.29,6.74-7.14,24.66-7.27H149c15.4,0,28.85,11.21,29.42,11.69a1,1,0,0,1-.64,1.76Z" fill="#093f68"/><path d="M220.83,223.42a1,1,0,0,1-1-.84,1,1,0,0,1,.82-1.15c4.55-.77,7.66-2.63,11.27-4.79a55.8,55.8,0,0,1,13.1-6.16c11.73-3.63,23.07,2.81,23.68,3.81a1,1,0,0,1-.14,1.23,1,1,0,0,1-1.41,0l-.07-.07c-1.33-1-11.2-6.26-21.47-3.08a54,54,0,0,0-12.67,6c-3.62,2.16-7,4.21-11.95,5Z" fill="#093f68"/><path d="M214.53,223.42l-.22,0-5-1.08a1,1,0,1,1,.42-1.95l5,1.08a1,1,0,0,1-.21,2Z" fill="#093f68"/><path d="M169.66,234.82a1,1,0,0,1-.36-1.93c.62-.24,6.09-2.33,8.62-2a1,1,0,0,1-.24,2c-1.53-.19-5.51,1.08-7.66,1.91A.89.89,0,0,1,169.66,234.82Z" fill="#093f68"/></g></svg>