<svg xmlns="http://www.w3.org/2000/svg" viewBox="0 0 400 300"><g id="_306_toronto_outline" data-name="#306_toronto_outline"><path d="M292.93,150a92.87,92.87,0,0,1-88.29,92.82c-1.54.07-3.08.11-4.64.11s-3.1,0-4.64-.11a92.93,92.93,0,0,1,2.06-185.71c.86,0,1.72,0,2.58,0s1.72,0,2.58,0A92.92,92.92,0,0,1,292.93,150Z" fill="#fff"/><path d="M200,243.93c-1.5,0-3,0-4.69-.11a93.93,93.93,0,0,1,2.08-187.71c1.73-.06,3.48-.06,5.23,0a93.93,93.93,0,0,1,2.07,187.71C203,243.89,201.5,243.93,200,243.93Zm0-185.86c-.85,0-1.7,0-2.54,0a91.93,91.93,0,0,0-2.05,183.71c3.23.15,6,.15,9.19,0a91,91,0,0,0,15.17-2A91.93,91.93,0,0,0,202.55,58.11C201.7,58.08,200.85,58.07,200,58.07Z" fill="#093f68"/><polygon points="200 29.88 204.53 113.76 195.47 113.76 200 29.88" fill="#68e1fd"/><path d="M204.53,114.76h-9.06a1,1,0,0,1-.73-.31,1,1,0,0,1-.27-.75L199,29.82a1,1,0,0,1,2,0l4.53,83.88a1,1,0,0,1-.27.75A1,1,0,0,1,204.53,114.76Zm-8-2h7L200,48.42Z" fill="#093f68"/><path d="M204.53,67h-9.06a1,1,0,0,1,0-2h9.06a1,1,0,0,1,0,2Z" fill="#093f68"/><path d="M207.37,107.47H192.63a1,1,0,0,1,0-2h14.74a1,1,0,0,1,0,2Z" fill="#093f68"/><path d="M205.8,96.39H194.2a1,1,0,0,1,0-2h11.6a1,1,0,0,1,0,2Z" fill="#093f68"/><polygon points="173.88 127.74 226.12 127.74 218.19 122.57 181.81 122.57 173.88 127.74" fill="#093f68"/><path d="M226.12,128.74H173.88a1,1,0,0,1-1-.72,1,1,0,0,1,.41-1.12l7.94-5.17a1,1,0,0,1,.54-.16h36.38a1,1,0,0,1,.54.16l7.94,5.17a1,1,0,0,1,.41,1.12A1,1,0,0,1,226.12,128.74Zm-48.87-2h45.5l-4.86-3.17H182.11Z" fill="#093f68"/><polygon points="173.88 146.74 226.12 146.74 218.19 151.91 181.81 151.91 173.88 146.74" fill="#093f68"/><path d="M218.19,152.91H181.81a1,1,0,0,1-.54-.16l-7.94-5.17a1,1,0,0,1-.41-1.12,1,1,0,0,1,1-.72h52.24a1,1,0,0,1,1,.72,1,1,0,0,1-.41,1.12l-7.94,5.17A1,1,0,0,1,218.19,152.91Zm-36.08-2h35.78l4.86-3.17h-45.5Z" fill="#093f68"/><path d="M220,240.77a92.36,92.36,0,0,1-15.35,2c-1.54.07-3.08.11-4.64.11s-3.1,0-4.64-.11a92.36,92.36,0,0,1-15.35-2c10.24-33.94,8.93-79,8.93-79h22.12S209.75,206.83,220,240.77Z" fill="#68e1fd"/><path d="M200,243.93c-1.5,0-3,0-4.69-.11a94.2,94.2,0,0,1-15.52-2.07,1,1,0,0,1-.64-.47,1,1,0,0,1-.1-.8c10.08-33.4,8.9-78.19,8.89-78.64a1,1,0,0,1,.28-.73,1,1,0,0,1,.72-.3h22.12a1,1,0,0,1,.72.3,1,1,0,0,1,.28.73c0,.45-1.19,45.25,8.89,78.64a1,1,0,0,1-.1.8,1,1,0,0,1-.64.47,94.2,94.2,0,0,1-15.52,2.07C203,243.89,201.5,243.93,200,243.93ZM181.28,240a91.91,91.91,0,0,0,14.13,1.8c3.23.15,6,.15,9.19,0a91.94,91.94,0,0,0,14.12-1.8c-9-30.73-8.79-70.36-8.68-77.21H190C190.07,169.66,190.28,209.29,181.28,240Z" fill="#093f68"/><path d="M204.64,161.48v81.34c-1.54.07-3.08.11-4.64.11s-3.1,0-4.64-.11V161.48Z" fill="#68e1fd"/><path d="M200,243.93c-1.5,0-3,0-4.69-.11a1,1,0,0,1-.95-1V161.48a1,1,0,0,1,1-1h9.28a1,1,0,0,1,1,1v81.34a1,1,0,0,1-.95,1C203,243.89,201.5,243.93,200,243.93Zm-3.64-2.07c2.52.09,4.76.09,7.28,0V162.48h-7.28Z" fill="#093f68"/><rect x="175.36" y="151.91" width="49.28" height="9.57" rx="3.54" fill="#68e1fd"/><path d="M221.1,162.48H178.9a4.54,4.54,0,0,1-4.54-4.54v-2.49a4.55,4.55,0,0,1,4.54-4.54h42.2a4.55,4.55,0,0,1,4.54,4.54v2.49A4.54,4.54,0,0,1,221.1,162.48Zm-42.2-9.57a2.54,2.54,0,0,0-2.54,2.54v2.49a2.54,2.54,0,0,0,2.54,2.54h42.2a2.54,2.54,0,0,0,2.54-2.54v-2.49a2.54,2.54,0,0,0-2.54-2.54Z" fill="#093f68"/><path d="M187.39,113.59h25.21a4.53,4.53,0,0,1,4.53,4.53v4.45a0,0,0,0,1,0,0H182.86a0,0,0,0,1,0,0v-4.45A4.53,4.53,0,0,1,187.39,113.59Z" fill="#68e1fd"/><path d="M217.14,123.57H182.86a1,1,0,0,1-1-1v-4.45a5.54,5.54,0,0,1,5.53-5.54h25.22a5.54,5.54,0,0,1,5.53,5.54v4.45A1,1,0,0,1,217.14,123.57Zm-33.28-2h32.28v-3.45a3.54,3.54,0,0,0-3.53-3.54H187.39a3.54,3.54,0,0,0-3.53,3.54Z" fill="#093f68"/><path d="M191.23,152.17a1,1,0,0,1-.69-.28l-5.47-5.16a1,1,0,0,1,1.38-1.46l5.46,5.17a1,1,0,0,1,0,1.41A1,1,0,0,1,191.23,152.17Z" fill="#093f68"/><path d="M208.77,152.17a1,1,0,0,1-.72-.32,1,1,0,0,1,0-1.41l5.46-5.17a1,1,0,1,1,1.38,1.46l-5.47,5.16A1,1,0,0,1,208.77,152.17Z" fill="#093f68"/><path d="M200,152.17a1,1,0,0,1-1-1v-4.31a1,1,0,0,1,2,0v4.31A1,1,0,0,1,200,152.17Z" fill="#093f68"/><rect x="171.87" y="127.74" width="56.27" height="18.88" rx="2.97" fill="#68e1fd"/><path d="M225.17,147.62H174.83a4,4,0,0,1-4-4v-13a4,4,0,0,1,4-4h50.34a4,4,0,0,1,4,4v13A4,4,0,0,1,225.17,147.62Zm-50.34-18.88a2,2,0,0,0-2,2v13a2,2,0,0,0,2,2h50.34a2,2,0,0,0,2-2v-13a2,2,0,0,0-2-2Z" fill="#093f68"/><path d="M230.57,135.2H169.19a1,1,0,0,1,0-2h61.38a1,1,0,0,1,0,2Z" fill="#093f68"/><path d="M230.57,141.16H169.19a1,1,0,0,1,0-2h61.38a1,1,0,0,1,0,2Z" fill="#093f68"/><path d="M169.29,221.3h-5.91a1,1,0,0,1-1-1V200.47H145.07a1,1,0,0,1-1-1V187.52h-13.2V205.1a1,1,0,1,1-2,0V186.52a1,1,0,0,1,1-1h15.2a1,1,0,0,1,1,1v11.95h17.31a1,1,0,0,1,1,1V219.3h3.91V192.43a1,1,0,0,1,1-1h16.47a1,1,0,0,1,0,2H170.29V220.3A1,1,0,0,1,169.29,221.3Z" fill="#dfeaef"/><path d="M245.31,218.43h-9a1,1,0,0,1-1-1v-5.06H224.64a1,1,0,0,1-1-1V204h-6.5a1,1,0,0,1,0-2h7.5a1,1,0,0,1,1,1v7.36H236.3a1,1,0,0,1,1,1v5.06h7V196.32a1,1,0,0,1,1-1h22a1,1,0,0,1,1,1v10.56a1,1,0,0,1-2,0v-9.56h-20v20.11A1,1,0,0,1,245.31,218.43Z" fill="#dfeaef"/><path d="M155.49,153.88H124.2c-3.68,0-6.67-2.42-6.67-5.4,0-2.28,1.78-4.31,4.4-5.07a7.79,7.79,0,0,1,6.49-3.95c.73-2.9,3.93-5.06,7.71-5.06a8.27,8.27,0,0,1,7.07,3.54,12.07,12.07,0,0,1,5.17-1.13c5,0,9.21,2.93,10,6.79a5.46,5.46,0,0,1,3.81,4.88C162.16,151.46,159.17,153.88,155.49,153.88Zm-26.23-12.46c-2.64,0-5,1.31-5.67,3.19a1,1,0,0,1-.72.62c-2,.43-3.34,1.77-3.34,3.25,0,1.88,2.09,3.4,4.67,3.4h31.29c2.58,0,4.67-1.52,4.67-3.4,0-1.38-1.2-2.65-3-3.16a1,1,0,0,1-.72-.87c-.3-3.16-3.85-5.64-8.08-5.64a9.82,9.82,0,0,0-5.1,1.36,1,1,0,0,1-.85.09,1,1,0,0,1-.61-.61c-.68-1.91-3-3.25-5.68-3.25-3.12,0-5.69,1.8-5.87,4.1a1,1,0,0,1-1,.92Zm-6.61,2.83h0Z" fill="#dfeaef"/><path d="M145.07,145.14a1,1,0,0,1-1-.83h0a5,5,0,0,0-2-3.08,5.12,5.12,0,0,0-4.26-.15,1,1,0,0,1-.6-1.91,6.28,6.28,0,0,1,8.84,4.8,1,1,0,0,1-.82,1.16Z" fill="#dfeaef"/><path d="M271.56,168.06H251c-2.61,0-4.73-1.75-4.73-3.89a3.88,3.88,0,0,1,2.55-3.46c.62-2.64,3.44-4.56,6.85-4.56a8.44,8.44,0,0,1,3.27.65,5.8,5.8,0,0,1,4.78-2.23,5.45,5.45,0,0,1,5.33,3.35,5.46,5.46,0,0,1,4.23,2.62,4,4,0,0,1,3,3.63C276.29,166.31,274.17,168.06,271.56,168.06Zm-15.88-9.91c-2.6,0-4.78,1.49-5,3.4a1,1,0,0,1-.72.87c-1,.29-1.72,1-1.72,1.75,0,1,1.25,1.89,2.73,1.89h20.55c1.48,0,2.73-.87,2.73-1.89,0-.82-.79-1.56-1.92-1.81a1,1,0,0,1-.72-.62,3.56,3.56,0,0,0-3.38-1.87h0a1,1,0,0,1-1-.92c-.1-1.32-1.68-2.38-3.51-2.38a3.54,3.54,0,0,0-3.41,1.91,1,1,0,0,1-.61.61,1,1,0,0,1-.86-.09A6,6,0,0,0,255.68,158.15Z" fill="#dfeaef"/><path d="M262.48,163.11a1,1,0,0,1-1-.94c-.13-2-2.5-3.1-2.52-3.11a1,1,0,0,1,.81-1.83c.14.06,3.49,1.58,3.7,4.82a1,1,0,0,1-.93,1.06Z" fill="#dfeaef"/><path d="M256.84,104.64H227.57c-3.48,0-6.31-2.3-6.31-5.12a5.16,5.16,0,0,1,3.58-4.61c.75-3.62,4.72-6.38,9.39-6.38a11.21,11.21,0,0,1,4.81,1,7.82,7.82,0,0,1,6.64-3.3c3.55,0,6.55,2,7.27,4.74a7.34,7.34,0,0,1,6.06,3.7,5.28,5.28,0,0,1,4.13,4.8C263.14,102.34,260.32,104.64,256.84,104.64ZM234.23,90.53c-3.93,0-7.22,2.3-7.5,5.22a1,1,0,0,1-.72.87c-1.64.47-2.75,1.64-2.75,2.9,0,1.72,1.94,3.12,4.31,3.12h29.27c2.37,0,4.3-1.4,4.3-3.12,0-1.36-1.26-2.58-3.07-3a1,1,0,0,1-.72-.62c-.65-1.73-2.81-2.94-5.23-2.94a1,1,0,0,1-1-.92c-.16-2.12-2.54-3.78-5.42-3.78-2.47,0-4.63,1.23-5.25,3a1,1,0,0,1-.61.61,1,1,0,0,1-.86-.09A9,9,0,0,0,234.23,90.53Z" fill="#dfeaef"/><path d="M235.26,96a1,1,0,0,1-.65-.24,1,1,0,0,1-.11-1.41c5.08-5.92,10.56-1.87,10.61-1.82a1,1,0,1,1-1.2,1.59c-.42-.31-4.13-2.86-7.89,1.53A1,1,0,0,1,235.26,96Z" fill="#dfeaef"/></g></svg>