<svg id="_350_tv_presenter_outline" data-name="#350_tv_presenter_outline" xmlns="http://www.w3.org/2000/svg" viewBox="0 0 400 300"><path d="M204.15,158.67h42.33A37.28,37.28,0,0,1,283.76,196V226.7a12.92,12.92,0,0,1-12.92,12.92h-104a0,0,0,0,1,0,0V196A37.28,37.28,0,0,1,204.15,158.67Z" fill="#68e1fd"/><path d="M270.85,240.61h-104a1,1,0,0,1-1-1V196a38.32,38.32,0,0,1,38.28-38.28h42.33A38.32,38.32,0,0,1,284.76,196V226.7A13.93,13.93,0,0,1,270.85,240.61Zm-103-2h103a11.92,11.92,0,0,0,11.91-11.91V196a36.32,36.32,0,0,0-36.28-36.28H204.15A36.33,36.33,0,0,0,167.87,196Z" fill="#093f68"/><path d="M225.32,240.61a1,1,0,0,1-1-1v-29a1,1,0,0,1,2,0v29A1,1,0,0,1,225.32,240.61Z" fill="#093f68"/><polygon points="248.24 158.67 232.71 203.69 225.32 225.12 217.93 203.69 202.4 158.67 248.24 158.67" fill="#fff"/><path d="M225.32,226.12a1,1,0,0,1-.95-.68L201.45,159a1,1,0,0,1,.13-.91,1,1,0,0,1,.81-.42h45.85a1,1,0,0,1,.81.42,1,1,0,0,1,.13.91l-22.92,66.44A1,1,0,0,1,225.32,226.12ZM203.8,159.67l21.52,62.38,21.52-62.38Z" fill="#093f68"/><polygon points="217.31 151.28 222.18 170.82 228.45 170.82 233.33 151.28 217.31 151.28" fill="#f56132"/><path d="M228.45,171.82h-6.27a1,1,0,0,1-1-.76l-4.87-19.54a1,1,0,0,1,.18-.85,1,1,0,0,1,.79-.39h16a1,1,0,0,1,.79.39,1,1,0,0,1,.18.85l-4.88,19.54A1,1,0,0,1,228.45,171.82Zm-5.49-2h4.71l4.38-17.54H218.59Z" fill="#093f68"/><polygon points="232.71 203.69 225.32 225.12 217.93 203.69 222.18 170.82 228.45 170.82 232.71 203.69" fill="#f56132"/><path d="M225.32,226.12a1,1,0,0,1-.95-.68L217,204a1,1,0,0,1,0-.46l4.25-32.87a1,1,0,0,1,1-.87h6.27a1,1,0,0,1,1,.87l4.26,32.87a1,1,0,0,1,0,.45l-7.39,21.43A1,1,0,0,1,225.32,226.12ZM219,203.59l6.37,18.46,6.36-18.47-4.11-31.76h-4.51Z" fill="#093f68"/><polygon points="210.88 151.28 202.4 158.66 207.44 173.29 225.18 151.28 210.88 151.28" fill="#fff"/><path d="M207.44,174.29h-.17a1,1,0,0,1-.77-.66L201.45,159a1,1,0,0,1,.29-1.08l8.49-7.38a1,1,0,0,1,.65-.25h14.3a1,1,0,0,1,.78,1.63l-17.74,22A1,1,0,0,1,207.44,174.29ZM203.56,159l4.24,12.28,15.29-19H211.26Z" fill="#093f68"/><polygon points="239.19 151.28 225.46 151.28 243.19 173.29 248.24 158.66 239.19 151.28" fill="#fff"/><path d="M243.19,174.29a1,1,0,0,1-.78-.37l-17.73-22a1,1,0,0,1-.12-1.06,1,1,0,0,1,.9-.57h13.73a1,1,0,0,1,.63.23l9.05,7.38a1,1,0,0,1,.31,1.1l-5,14.63a1,1,0,0,1-.78.66Zm-15.64-22,15.29,19L247.07,159l-8.24-6.72Z" fill="#093f68"/><path d="M190.16,240.61a1,1,0,0,1-1-1v-51a1,1,0,0,1,2,0v51A1,1,0,0,1,190.16,240.61Z" fill="#093f68"/><path d="M260.48,219.86a1,1,0,0,1-1-1v-30.2a1,1,0,1,1,2,0v30.2A1,1,0,0,1,260.48,219.86Z" fill="#093f68"/><rect x="186.51" y="69.78" width="77.95" height="39.55" fill="#725858"/><path d="M264.46,110.33H186.51a1,1,0,0,1-1-1V69.78a1,1,0,0,1,1-1h77.95a1,1,0,0,1,1,1v39.55A1,1,0,0,1,264.46,110.33Zm-76.95-2h75.95V70.78H187.51Z" fill="#093f68"/><ellipse cx="193.8" cy="111.74" rx="10.81" ry="10.41" fill="#ffc9b0"/><path d="M193.8,123.15a11.42,11.42,0,1,1,11.81-11.41A11.62,11.62,0,0,1,193.8,123.15Zm0-20.82a9.42,9.42,0,1,0,9.81,9.41A9.63,9.63,0,0,0,193.8,102.33Z" fill="#093f68"/><ellipse cx="256.84" cy="111.74" rx="10.81" ry="10.41" fill="#ffc9b0"/><path d="M256.84,123.15a11.42,11.42,0,1,1,11.81-11.41A11.63,11.63,0,0,1,256.84,123.15Zm0-20.82a9.42,9.42,0,1,0,9.81,9.41A9.63,9.63,0,0,0,256.84,102.33Z" fill="#093f68"/><path d="M246.55,69a12.33,12.33,0,0,1,12.33,12.33v44.79A32.09,32.09,0,0,1,226.8,158.2h-3a32.1,32.1,0,0,1-32.1-32.09V81.32A12.33,12.33,0,0,1,204.08,69Z" fill="#ffc9b0"/><path d="M226.79,159.2h-2.94a33.13,33.13,0,0,1-33.1-33.09V81.32A13.35,13.35,0,0,1,204.08,68h42.47a13.35,13.35,0,0,1,13.33,13.33v44.79A33.12,33.12,0,0,1,226.79,159.2ZM204.08,70a11.34,11.34,0,0,0-11.33,11.33v44.79a31.13,31.13,0,0,0,31.1,31.09h2.94a31.12,31.12,0,0,0,31.09-31.09V81.32A11.34,11.34,0,0,0,246.55,70Z" fill="#093f68"/><path d="M258.88,114.25v11.86A32.09,32.09,0,0,1,226.8,158.2h-3a32.09,32.09,0,0,1-32.1-32.09v-11.9s4.55,25.33,14.09,25.33c8.1,0,7.08-14.5,21.25-12.81s13.73,14.83,18.89,14.83C254.53,141.56,258.88,114.25,258.88,114.25Z" fill="#e28362"/><path d="M226.79,159.2h-2.94a33.13,33.13,0,0,1-33.1-33.09v-11.9a1,1,0,0,1,.92-1,1,1,0,0,1,1.07.82c1.22,6.81,6,24.5,13.1,24.5,2.89,0,4.42-2.2,6.37-5,2.76-4,6.21-8.86,15-7.81,9.21,1.09,12.56,6.74,15,10.87,1.49,2.53,2.41,3.95,3.76,3.95,3,0,6.06-4.59,8.7-12.94a107.37,107.37,0,0,0,3.21-13.53,1,1,0,0,1,2,.16v11.86A33.12,33.12,0,0,1,226.79,159.2Zm-34-36.61v3.52a31.13,31.13,0,0,0,31.1,31.09h2.94a31.12,31.12,0,0,0,31.09-31.09v-2.28c-2.13,8.24-6,18.73-11.9,18.73-2.56,0-3.91-2.28-5.48-4.93-2.36-4-5.3-8.93-13.53-9.91-7.61-.9-10.41,3.1-13.12,7-2,2.87-4.08,5.84-8,5.84C199.27,140.54,195,130.27,192.75,122.59Z" fill="#093f68"/><circle cx="208.87" cy="109.18" r="3.19" fill="#093f68"/><circle cx="241.76" cy="109.18" r="3.19" fill="#093f68"/><path d="M214.31,102.6a1.55,1.55,0,0,1-.87-.26,14.2,14.2,0,0,0-6.53-2.15,14.31,14.31,0,0,0-6.53,2.15,1.59,1.59,0,1,1-1.74-2.65,14.1,14.1,0,0,1,16.54,0,1.58,1.58,0,0,1-.87,2.91Z" fill="#093f68"/><path d="M249.16,102.6a1.55,1.55,0,0,1-.87-.26,11,11,0,0,0-13.06,0,1.59,1.59,0,1,1-1.74-2.65,14.1,14.1,0,0,1,16.54,0,1.58,1.58,0,0,1-.87,2.91Z" fill="#093f68"/><path d="M224.75,71.12A20.63,20.63,0,0,1,223,87.61a30,30,0,0,0,23.55-20.32,36.2,36.2,0,0,1,5.23,14.62c6.88-.56,14.63-4.18,15.82-11.08.82-4.76-2-9.6-5.87-12.39s-8.71-3.89-13.43-4.6A102.72,102.72,0,0,0,200,58.23c-5.81,2-11.83,4.84-14.84,10.26A22,22,0,0,0,183,81c.42,4,.23,8.09,2.21,11.74,2.38,4.37,5.19,4.54,9.79,3.38,7.51-1.9,15.83-5.56,21.32-11C218.85,82.71,226,75,224.75,71.12Z" fill="#725858"/><path d="M191.05,97.74c-2.75,0-4.9-1.16-6.72-4.51-1.65-3-1.88-6.33-2.11-9.52-.06-.87-.13-1.73-.22-2.59A23,23,0,0,1,184.33,68c3.31-6,10-8.86,15.39-10.72a103.78,103.78,0,0,1,48.76-4.43c4.5.68,9.67,1.77,13.86,4.78C267,61,269.44,66.2,268.61,71c-1.26,7.39-9.31,11.31-16.72,11.91a1,1,0,0,1-1.07-.87,35.17,35.17,0,0,0-4-12.39A30.9,30.9,0,0,1,223.18,88.6a1,1,0,0,1-1-1.49,19.61,19.61,0,0,0,2.54-10.94c-2,4-6.06,8.14-7.68,9.73-5,4.88-12.9,9-21.78,11.21A17.33,17.33,0,0,1,191.05,97.74Zm42.2-44a102,102,0,0,0-32.89,5.45c-5.08,1.74-11.3,4.43-14.28,9.8A20.92,20.92,0,0,0,184,80.91c.09.88.16,1.77.22,2.66.23,3.11.44,6.05,1.88,8.71,2.08,3.82,4.35,4,8.66,2.89,8.54-2.16,16.15-6.06,20.87-10.69s9-10.55,8.18-13h0a1,1,0,1,1,1.9-.63h0a21.68,21.68,0,0,1-.85,15.43A29,29,0,0,0,245.62,67a1,1,0,0,1,.83-.69,1,1,0,0,1,1,.46,37.21,37.21,0,0,1,5.25,14.06c6.36-.77,12.94-4.12,14-10.15.79-4.62-2.17-9.06-5.46-11.41-3.85-2.76-8.73-3.79-13-4.43A100.87,100.87,0,0,0,233.25,53.72Z" fill="#093f68"/><path d="M225.32,109.33s8.37,16.59,4.13,18a7.13,7.13,0,0,1-7.17-1.62" fill="#ffc9b0"/><path d="M227.16,128.74a8.29,8.29,0,0,1-5.6-2.3,1,1,0,1,1,1.44-1.39,6.1,6.1,0,0,0,6.13,1.36.6.6,0,0,0,.35-.38c1-2.51-2.56-11.3-5.06-16.25a1,1,0,0,1,1.79-.9c.7,1.39,6.83,13.74,5.12,17.91a2.56,2.56,0,0,1-1.56,1.51A8,8,0,0,1,227.16,128.74Z" fill="#093f68"/><path d="M232.4,137.84H218.7s1.29,12.9,7.76,12.9S232.4,137.84,232.4,137.84Z" fill="#fff"/><path d="M226.46,151.74c-7.29,0-8.7-13.24-8.76-13.8a1,1,0,0,1,.25-.77,1,1,0,0,1,.75-.33h13.7a1,1,0,0,1,1,1c0,.35.32,8.71-3.1,12.28A5.16,5.16,0,0,1,226.46,151.74Zm-6.63-12.9c.58,3.82,2.51,10.9,6.63,10.9a3.16,3.16,0,0,0,2.39-1c2.24-2.33,2.54-7.68,2.56-9.86Z" fill="#093f68"/><rect x="220.41" y="187.05" width="9.82" height="60.23" fill="#093f68"/><path d="M230.23,248.28h-9.82a1,1,0,0,1-1-1V187.05a1,1,0,0,1,1-1h9.82a1,1,0,0,1,1,1v60.23A1,1,0,0,1,230.23,248.28Zm-8.82-2h7.82V188.05h-7.82Z" fill="#093f68"/><rect x="212.46" y="200.51" width="25.72" height="11.77" fill="#ffbc0e"/><path d="M238.18,213.28H212.46a1,1,0,0,1-1-1V200.51a1,1,0,0,1,1-1h25.72a1,1,0,0,1,1,1v11.77A1,1,0,0,1,238.18,213.28Zm-24.72-2h23.72v-9.77H213.46Z" fill="#093f68"/><rect x="212.29" y="166.76" width="26.06" height="29.42" rx="10.84" fill="#ffbc0e"/><path d="M227.51,197.17h-4.38a11.85,11.85,0,0,1-11.84-11.84V177.6a11.85,11.85,0,0,1,11.84-11.84h4.38a11.85,11.85,0,0,1,11.84,11.84v7.73A11.85,11.85,0,0,1,227.51,197.17Zm-4.38-29.41a9.85,9.85,0,0,0-9.84,9.84v7.73a9.85,9.85,0,0,0,9.84,9.84h4.38a9.85,9.85,0,0,0,9.84-9.84V177.6a9.85,9.85,0,0,0-9.84-9.84Z" fill="#093f68"/><path d="M220.08,213.89c-2.59.17-5.42.7-7.05,2.72s-1.51,5-1.25,7.71a21.16,21.16,0,0,0,1.47,6.79,7.31,7.31,0,0,0,5.12,4.35c2,.34,4-.48,6.09-.44,5.85.1,11.18,5.86,16.38.41,3.69-3.86,5.22-13,.4-16.57C235.46,214.58,227.08,213.44,220.08,213.89Z" fill="#ffc9b0"/><path d="M235.8,238.76a17.5,17.5,0,0,1-5.82-1.38,17.85,17.85,0,0,0-5.53-1.36,12.87,12.87,0,0,0-2.44.25,11.45,11.45,0,0,1-3.8.18,8.22,8.22,0,0,1-5.86-4.92,21.86,21.86,0,0,1-1.56-7.11c-.29-2.85-.43-6.08,1.46-8.44s5.38-2.93,7.77-3.09h0c4.1-.26,14.45-.28,21.82,5.17a9,9,0,0,1,3.38,6.72,15.58,15.58,0,0,1-3.66,11.34A7.63,7.63,0,0,1,235.8,238.76ZM224.33,234h.15a19.35,19.35,0,0,1,6.18,1.48c3.63,1.31,6.5,2.34,9.46-.76a13.65,13.65,0,0,0,3.11-9.79,7.24,7.24,0,0,0-2.58-5.28c-6.84-5.06-16.61-5-20.5-4.78h0c-2,.13-4.86.51-6.34,2.34s-1.29,4.43-1,7a19.85,19.85,0,0,0,1.38,6.47,6.34,6.34,0,0,0,4.37,3.79,9.88,9.88,0,0,0,3.17-.19A17.36,17.36,0,0,1,224.33,234Z" fill="#093f68"/><path d="M267.65,219.86H241.24a1,1,0,0,1,0-2h26.41a1,1,0,0,1,0,2Z" fill="#093f68"/><polygon points="160.74 209.57 179.24 239.61 148.84 239.61 139.64 215.21 160.74 209.57" fill="#68e1fd"/><path d="M179.24,240.61H148.83a1,1,0,0,1-.93-.64l-9.2-24.41a1,1,0,0,1,.68-1.32l21.1-5.64a1,1,0,0,1,1.11.44l18.5,30.05a1,1,0,0,1-.85,1.52Zm-29.71-2h27.92l-17.17-27.89L141,215.89Z" fill="#093f68"/><rect x="106.24" y="109.33" width="68.7" height="48.87" fill="#fff"/><path d="M174.94,159.2h-68.7a1,1,0,0,1-1-1V109.33a1,1,0,0,1,1-1h68.7a1,1,0,0,1,1,1V158.2A1,1,0,0,1,174.94,159.2Zm-67.7-2h66.7V110.33h-66.7Z" fill="#093f68"/><path d="M126.31,151.74H112.79a1,1,0,0,1,0-2h13.52a1,1,0,0,1,0,2Z" fill="#dfeaef"/><path d="M133.62,141.33H128.2a1,1,0,0,1-1-1V129.78h-3a1,1,0,0,1-1-1V124.2a1,1,0,0,1,1-1h13.34a1,1,0,0,1,1,1v4.58a1,1,0,0,1-1,1h-3v10.55A1,1,0,0,1,133.62,141.33Zm-4.42-2h3.42V128.78a1,1,0,0,1,1-1h3V125.2H125.24v2.58h3a1,1,0,0,1,1,1Z" fill="#dfeaef"/><path d="M151.11,141.33h-6a1,1,0,0,1-.94-.67l-5.72-16.12a1,1,0,0,1,.13-.91,1,1,0,0,1,.82-.43h6.12a1,1,0,0,1,1,.75l1.73,6.45,1.64-6.44a1,1,0,0,1,1-.76h6.13a1,1,0,0,1,.81.43,1,1,0,0,1,.13.91l-5.83,16.13A1,1,0,0,1,151.11,141.33Zm-5.31-2h4.61l5.1-14.13h-3.92l-2.36,9.23a1,1,0,0,1-1,.75,1.13,1.13,0,0,1-1.06-.74l-2.46-9.24h-4Z" fill="#dfeaef"/><path d="M160.74,209.57s-3.46-12.21-6.27-14.65S141,184.41,139.64,185s-1.32,4.5,5.07,9.19c0,0-21.22-7.88-22.72-4.5s-.75,7.49,0,9.47,17.65,16.07,17.65,16.07Z" fill="#ffc9b0"/><path d="M139.64,216.21A1,1,0,0,1,139,216c-4-3.34-17.16-14.41-17.94-16.47s-1.64-6.5,0-10.24c1.36-3,11.21-.43,19.25,2.29-2.4-2.81-2.44-4.86-2.36-5.56a2.27,2.27,0,0,1,1.27-1.93c2.43-1,15.75,10,15.88,10.11,3,2.56,6.22,13.84,6.58,15.12a1,1,0,0,1-.09.77,1,1,0,0,1-.61.47l-21.1,5.64A.82.82,0,0,1,139.64,216.21Zm-15.39-26.43c-.7,0-1.17.1-1.35.31-1.4,3.14-.59,7.06,0,8.7.59,1.21,9,8.68,16.95,15.32l19.62-5.25c-1.15-3.83-3.75-11.5-5.69-13.18C150.62,192.91,142,186.62,140,186a1.69,1.69,0,0,0-.05.58c.05.71.59,3.3,5.35,6.8a1,1,0,0,1-.94,1.74C135.81,191.93,127.5,189.78,124.25,189.78Z" fill="#093f68"/><path d="M142.83,204.75a1,1,0,0,1-.84-.46c-3.22-4.92,0-9.29,2.11-10.91a1,1,0,0,1,1.4.19,1,1,0,0,1-.19,1.4h0c-.19.15-4.65,3.65-1.64,8.23a1,1,0,0,1-.29,1.38A1,1,0,0,1,142.83,204.75Z" fill="#093f68"/></svg>