<svg xmlns="http://www.w3.org/2000/svg" viewBox="0 0 400 300"><g id="_167_under_constructions_outline" data-name="#167_under_constructions_outline"><polygon points="149.71 139.78 158.88 145.27 152.59 153.03 143.79 148.12 149.71 139.78" fill="#ffc9b0"/><path d="M152.59,154a1.12,1.12,0,0,1-.49-.13L143.31,149a1,1,0,0,1-.49-.66,1,1,0,0,1,.16-.8l5.91-8.34a1,1,0,0,1,1.33-.28l9.17,5.49a1,1,0,0,1,.47.68,1,1,0,0,1-.21.81l-6.28,7.76A1,1,0,0,1,152.59,154Zm-7.34-6.25,7.09,4,5-6.21L150,141.11Z" fill="#093f68"/><path d="M216.86,176.73l4.22,7.18s2.6,4,2.75,6.53-.61,6.68-6.62,8.49c-5.84,1.77-10.14-19.57-10.14-19.57Z" fill="#ffc9b0"/><path d="M216.53,200a3.67,3.67,0,0,1-1.91-.56c-5-3-8.18-18.2-8.53-19.92a1,1,0,0,1,.72-1.16l9.79-2.63a1,1,0,0,1,1.12.46l4.22,7.17c.09.14,2.73,4.21,2.88,7s-.6,7.48-7.32,9.51A3.27,3.27,0,0,1,216.53,200Zm-8.28-20c1.09,5,4,15.67,7.39,17.68a1.55,1.55,0,0,0,1.28.22c5.14-1.56,6.05-4.93,5.91-7.49-.11-1.85-1.9-5-2.59-6l-3.86-6.56Z" fill="#093f68"/><path d="M188.86,183.22l.26-13.11-23.38-2.44c0-.4,0-.79,0-1.15l-8.64.25-.45-.05v.06l-4.48,4.11c.47,16,.2,31.22-.34,34.58-1.07,2.85-8.5,12.8-14.88,20.44l10.74,9c7.45-8.91,16.58-20.71,17.8-26.31.63-2.88.75-11.73.67-21l10,.47s9.07,15.2,11.7,18.88c-1.49,4.06-5.23,13.05-8.54,20.66l12.84,5.58c3.47-8,9.38-21.87,10-25.33C202.76,204.87,206.6,201.33,188.86,183.22Z" fill="#68e1fd"/><path d="M147.66,235.88a1,1,0,0,1-.64-.23l-10.74-9a1,1,0,0,1-.13-1.41c6.83-8.19,13.63-17.48,14.68-20.06.52-3.52.76-18.78.31-34.29a1,1,0,0,1,.33-.76l4.34-4A1,1,0,0,1,156,166a1.06,1.06,0,0,1,.77-.29l.39,0,8.57-.24a1,1,0,0,1,1,1v.28l22.51,2.35a1,1,0,0,1,.89,1l-.25,12.69c15.95,16.36,14.5,21.16,13.54,24.34-.09.31-.18.6-.24.89-.64,3.38-5.85,15.75-10.1,25.53a1,1,0,0,1-1.31.52l-12.84-5.57a1,1,0,0,1-.52-1.32c2.94-6.77,6.67-15.68,8.33-20.11-2.67-3.89-9.66-15.55-11.17-18.06l-8.42-.39c.07,10.9-.17,17.67-.7,20.14-1,4.65-7.08,13.64-18,26.73A1,1,0,0,1,147.66,235.88Zm-9.34-10.1,9.22,7.69c10-12.09,16-21,16.94-25.11.36-1.65.77-6.58.65-20.75a1,1,0,0,1,.31-.73,1,1,0,0,1,.73-.28l10,.47a1,1,0,0,1,.82.48c.09.16,9.08,15.22,11.65,18.82a1,1,0,0,1,.13.93c-1.5,4.08-5.16,12.85-8.16,19.79l11,4.78c5.63-13,9.11-21.8,9.57-24.2a10.44,10.44,0,0,1,.29-1.09c.78-2.58,2.08-6.9-13.35-22.66a1,1,0,0,1-.29-.72L188.1,171l-22.46-2.35a1,1,0,0,1-.89-1v-.16l-7.64.22H157l-3.88,3.56c.45,16.07.18,30.93-.36,34.31a1.46,1.46,0,0,1,0,.2C151.63,208.76,144.53,218.28,138.32,225.78Z" fill="#093f68"/><path d="M218.65,178.89s-4.89-39.11-15.28-43.19c-11.25-4.43-24-8.78-24-8.78-1.29-.38-35.79-14.07-43.18-1.18-3.36,5.86-2.83,10.82-1.79,14,2.57,7.77,10.48,11.4,11.38,11.79l6.78-11.84c-1.3-.6-6.93-4-4.42-6.58s14.37,2.11,14.37,2.11l-7.87,26,38.19,11.17L199,153.72l6.6,30.19Z" fill="#68e1fd"/><path d="M205.58,184.91a1,1,0,0,1-.47-.12,1,1,0,0,1-.5-.67l-5.83-26.61-5,15.12a1,1,0,0,1-1.23.64L154.39,162.1a1,1,0,0,1-.6-.49,1.05,1.05,0,0,1-.08-.76l7.6-25.08c-5.22-2-11.23-3.24-12.42-2a1,1,0,0,0-.34.93c.28,1.53,3.31,3.51,4.46,4a1,1,0,0,1,.45,1.4L146.67,152a1,1,0,0,1-1.26.42c-.94-.41-9.22-4.22-11.93-12.4-1.1-3.32-1.67-8.58,1.87-14.75,6.34-11.06,30.06-4.46,43.64.47.37.13.6.22.69.24s12.91,4.42,24.06,8.8c10.81,4.26,15.7,42.39,15.91,44a1,1,0,0,1-.64,1.06l-13.07,5A.89.89,0,0,1,205.58,184.91ZM199,152.72H199a1,1,0,0,1,.93.78l6.35,29.06,11.25-4.32c-1.49-11.25-6.68-38.52-14.55-41.61-11.11-4.37-23.8-8.72-23.93-8.76l-.77-.27c-22.1-8-37.12-8.51-41.22-1.36-3.18,5.53-2.68,10.2-1.71,13.13,2.07,6.25,7.81,9.68,10,10.81L151.22,140c-1.49-.88-4.22-2.76-4.63-5a2.92,2.92,0,0,1,.87-2.69c.49-.51,3.58-2.81,15.45,1.89a1,1,0,0,1,.59,1.21l-7.58,25,36.29,10.62L198,153.4A1,1,0,0,1,199,152.72Z" fill="#093f68"/><path d="M181.76,126.79h7.41a0,0,0,0,1,0,0V131A3.15,3.15,0,0,1,186,134.2H184.9a3.15,3.15,0,0,1-3.15-3.15v-4.26a0,0,0,0,1,0,0Z" transform="translate(38.51 -42.22) rotate(14.48)" fill="#ffc9b0"/><path d="M185.87,135.32a4.06,4.06,0,0,1-1-.13h0l-1.08-.28a4.14,4.14,0,0,1-3-5l1.06-4.13a1,1,0,0,1,.46-.61,1,1,0,0,1,.76-.11l7.18,1.85a1,1,0,0,1,.71,1.22l-1.06,4.13a4.17,4.17,0,0,1-4,3.11Zm-.54-2.07A2.14,2.14,0,0,0,187,133a2.11,2.11,0,0,0,1-1.31l.82-3.16-5.24-1.36-.82,3.17a2.14,2.14,0,0,0,.23,1.62,2.1,2.1,0,0,0,1.32,1Z" fill="#093f68"/><ellipse cx="209.94" cy="112.44" rx="6.2" ry="5.55" transform="translate(48.59 287.6) rotate(-75.52)" fill="#ffc9b0"/><path d="M209.64,119.6a5.93,5.93,0,0,1-1.5-.19,6.24,6.24,0,0,1-4-3.25,7.76,7.76,0,0,1,2.53-9.79,6.25,6.25,0,0,1,5.06-.91c3.5.9,5.54,4.77,4.55,8.61h0A7.12,7.12,0,0,1,209.64,119.6Zm.59-12.33a4.37,4.37,0,0,0-2.44.77,5.72,5.72,0,0,0-1.86,7.2,4.22,4.22,0,0,0,2.71,2.23c2.43.63,5-1.12,5.71-3.9h0c.72-2.78-.68-5.55-3.11-6.17A3.83,3.83,0,0,0,210.23,107.27Zm5.09,6.55h0Z" fill="#093f68"/><path d="M174.09,82.38c-1.9,5.92-5,16.38-4.57,22.35.8,10.29,7,21.42,16.21,23.81A19.52,19.52,0,0,0,206,122.13a23.71,23.71,0,0,0,4.85-9.54s1.27-2.3,3.25-12S217,85.7,199.35,78C185.72,72,176,76.47,174.09,82.38Z" fill="#ffc9b0"/><path d="M191,130.22a22.32,22.32,0,0,1-5.5-.71c-7.63-2-15.9-11.09-17-24.7-.35-4.51,1.16-12,4.62-22.73a10.93,10.93,0,0,1,6.2-6.37c3.18-1.44,10.06-3.17,20.41,1.36,18.5,8.08,17.31,14,15.33,23.68-1.76,8.67-3,11.58-3.29,12.2a25,25,0,0,1-5,9.82A20.48,20.48,0,0,1,191,130.22Zm-3.89-54a16.84,16.84,0,0,0-6.93,1.36,8.91,8.91,0,0,0-5.11,5.16c-1.25,3.87-5,15.65-4.54,22,.73,9.36,6.4,20.57,15.47,22.91a18.6,18.6,0,0,0,19.26-6.09,22.89,22.89,0,0,0,4.64-9.14.94.94,0,0,1,.1-.23s1.25-2.43,3.14-11.76c2-9.62,2.85-14-14.17-21.45A30.07,30.07,0,0,0,187.09,76.17Z" fill="#093f68"/><path d="M199.37,115.34c-2.18-1.45-8.67-4-12.57-3.15-5.13,1.08-3.92,5.31-7.17,3.15-2.26-1.5-2.94-1.91-3.8-4.51-1.14-3.39.46-7.12,1.21-10.48a10.16,10.16,0,0,0,.35-3.63,5.09,5.09,0,0,0-3.76-4.09c-6.74-1.6-6.59,8.13-7.15,12.23l2.9.74-.69,2.34a22.8,22.8,0,0,0,17,20.6A19.52,19.52,0,0,0,206,122.13a22.66,22.66,0,0,1-2.77-.38c-2.59-.57-.69-2.44-2.26-4.85A5.43,5.43,0,0,0,199.37,115.34Z" fill="#725858"/><path d="M191,130.22a22.32,22.32,0,0,1-5.5-.71A23.7,23.7,0,0,1,167.69,108a.89.89,0,0,1,0-.36l.4-1.35-1.9-.49a1,1,0,0,1-.74-1.1c.07-.54.13-1.19.2-1.89.34-3.57.81-8.45,3.64-10.48a5.36,5.36,0,0,1,4.53-.69,6.1,6.1,0,0,1,4.52,4.92,10.91,10.91,0,0,1-.37,4c-.16.75-.37,1.53-.59,2.31-.7,2.59-1.43,5.28-.64,7.64s1.18,2.52,3.31,3.93l.09.06c.93.61.93.61,1.64-.27a7.53,7.53,0,0,1,4.78-3c4.17-.88,10.89,1.67,13.32,3.28h0a6.55,6.55,0,0,1,1.89,1.85,5.77,5.77,0,0,1,.89,3.28c0,1,0,1,.75,1.15a21.43,21.43,0,0,0,2.64.35,1,1,0,0,1,.68,1.64A20.48,20.48,0,0,1,191,130.22ZM169.7,108.05A21.72,21.72,0,0,0,186,127.57a18.59,18.59,0,0,0,18-4.67l-.91-.17c-2.23-.5-2.28-2-2.31-3a4,4,0,0,0-.58-2.25,4.48,4.48,0,0,0-1.32-1.27h0c-2.2-1.47-8.36-3.72-11.8-3a5.59,5.59,0,0,0-3.63,2.33c-.78,1-1.85,2.3-4.31.67l-.09-.06c-2.22-1.47-3.14-2.08-4.1-5s-.14-6.05.61-8.79c.21-.76.41-1.5.57-2.23a9,9,0,0,0,.34-3.26,4.12,4.12,0,0,0-3-3.27,3.41,3.41,0,0,0-2.9.38c-2.09,1.49-2.52,6-2.81,9,0,.38-.07.74-.1,1.09l2,.53a1,1,0,0,1,.62.47,1,1,0,0,1,.09.78Z" fill="#093f68"/><ellipse cx="186.92" cy="103.12" rx="2.01" ry="2.01" transform="translate(40.35 258.33) rotate(-75.52)" fill="#093f68"/><circle cx="203.37" cy="107.63" r="2.01" fill="#093f68"/><path d="M195.18,111.36H195a20.52,20.52,0,0,1-4.91-1.26,1,1,0,0,1-.57-1.29,1,1,0,0,1,1.3-.57,20.34,20.34,0,0,0,4,1.1,15.16,15.16,0,0,0-1.21-4.54,1,1,0,0,1,1.85-.76c.78,1.91,1.95,5.32,1,6.68A1.58,1.58,0,0,1,195.18,111.36Z" fill="#093f68"/><path d="M189.45,99.77s-.59-1.09-2.94-1.73a2.74,2.74,0,0,0-3,.67,2,2,0,0,1-2.77.45,2,2,0,0,1-.46-2.8,6.67,6.67,0,0,1,7.29-2.18c4.48,1.2,5.57,3.93,5.68,4.24l-3.77,1.35Z" fill="#093f68"/><path d="M209.2,105.63h0a2,2,0,0,1-2-1.88c-.06-.17-.4-.55-1.3-.83a5.47,5.47,0,0,0-3.59.25,2,2,0,0,1-1.83-3.55,9.17,9.17,0,0,1,6.59-.52c3.3,1,4.14,3.34,4.12,4.56A2,2,0,0,1,209.2,105.63Zm-2-2Zm0,0Z" fill="#093f68"/><path d="M174,99.17s-4.21-4.88-8.16-1-3.29,12.35,5.79,12.27Z" fill="#ffc9b0"/><path d="M171.48,111.42c-4.09,0-7.15-1.72-8.39-4.73a8.66,8.66,0,0,1,2-9.26,5.65,5.65,0,0,1,4.24-1.76c3,.12,5.29,2.73,5.38,2.84a1,1,0,0,1,.22.86l-2.38,11.26a1,1,0,0,1-1,.79Zm-2.35-13.76a3.71,3.71,0,0,0-2.62,1.2,6.72,6.72,0,0,0-1.57,7.07c.87,2.09,2.93,3.31,5.85,3.47l2.1-9.92a6.23,6.23,0,0,0-3.63-1.82Z" fill="#093f68"/><path d="M186.35,116.52l7.27,1.78s-2.19,5.76-5.28,5.36S186.35,116.52,186.35,116.52Z" fill="#fff"/><path d="M188.66,124.68a3.25,3.25,0,0,1-.44,0,2.87,2.87,0,0,1-2-1.19c-1.61-2.15-.94-6.6-.86-7.1a1,1,0,0,1,.43-.67,1.05,1.05,0,0,1,.79-.14l7.27,1.78a1,1,0,0,1,.65.51,1,1,0,0,1,.05.82C194.31,119.3,192.16,124.68,188.66,124.68Zm-1.45-6.92c-.13,1.58-.05,3.62.61,4.51a.93.93,0,0,0,.65.4c1.5.19,3-2.09,3.75-3.68Z" fill="#093f68"/><path d="M175.37,62.83h46.35a0,0,0,0,1,0,0v5.6a19.35,19.35,0,0,1-19.35,19.35h-7.65a19.35,19.35,0,0,1-19.35-19.35v-5.6a0,0,0,0,1,0,0Z" transform="translate(370.69 199.62) rotate(-164.94)" fill="#ffbc0e"/><path d="M217.68,94.37a1.15,1.15,0,0,1-.26,0l-44.76-12a1,1,0,0,1-.7-1.22l1.45-5.41A20.38,20.38,0,0,1,198.35,61.3l7.39,2A20.37,20.37,0,0,1,220.1,88.23l-1.45,5.4a1,1,0,0,1-.47.61A1,1,0,0,1,217.68,94.37ZM174.15,80.62,217,92.15l1.2-4.44a18.37,18.37,0,0,0-12.95-22.49h0l-7.39-2a18.37,18.37,0,0,0-22.49,13Z" fill="#093f68"/><rect x="165.52" y="87.2" width="57.3" height="8.66" rx="4.33" transform="translate(357.89 230.38) rotate(-164.94)" fill="#ffbc0e"/><path d="M217.67,103.19a5.48,5.48,0,0,1-1.39-.19l-47-12.64h0a5.33,5.33,0,1,1,2.78-10.29l47,12.64a5.33,5.33,0,0,1-1.38,10.48ZM169.82,88.43l47,12.64a3.33,3.33,0,1,0,1.73-6.43L171.56,82a3.25,3.25,0,0,0-2.53.33,3.33,3.33,0,0,0,.79,6.1Z" fill="#093f68"/><path d="M191.88,60h14.07a0,0,0,0,1,0,0V80.8a7,7,0,0,1-7,7h0a7,7,0,0,1-7-7V60A0,0,0,0,1,191.88,60Z" transform="translate(371.79 196.98) rotate(-164.94)" fill="#ffbc0e"/><path d="M202.09,90.18a.82.82,0,0,1-.26,0l-13.58-3.65a1,1,0,0,1-.61-.47,1.05,1.05,0,0,1-.1-.76L193,65.18a8,8,0,0,1,9.84-5.67l-.26,1,.26-1a8,8,0,0,1,5.67,9.84l-5.4,20.08A1,1,0,0,1,202.09,90.18Zm-12.35-5.36L201.39,88l5.14-19.11a6,6,0,0,0-4.26-7.39h0a6,6,0,0,0-7.39,4.25Z" fill="#093f68"/><path d="M181.88,148.12s8-2.42,13.25-17.63l5.52,1.79s-9.64,18.38-3.25,27.47l-8.54,23.47S152,170.49,152.14,170.89s5.19-23.1,5.19-23.1,6.07-4.87,9.15-9,6.88-13.31,6.88-13.31l6,1.47S174.49,140.09,181.88,148.12Z" fill="#f56132"/><path d="M188.86,184.22a.86.86,0,0,1-.32-.05c-13.65-4.72-34.3-11.77-36.39-12.27h0a1,1,0,0,1-1-.69,1,1,0,0,1,.08-.81c.45-1.49,3.26-14.33,5.09-22.82a1,1,0,0,1,.35-.57c.06,0,6-4.84,9-8.84s6.71-13,6.75-13.11a1,1,0,0,1,1.16-.58l6,1.47a1,1,0,0,1,.7,1.32c-.05.12-4.39,12.13,1.82,19.65,1.86-.9,7.85-4.64,12-16.76a1,1,0,0,1,1.26-.62l5.52,1.78a1,1,0,0,1,.62.58,1,1,0,0,1,0,.84c-.1.18-9.28,17.95-3.32,26.44a1,1,0,0,1,.12.91l-8.54,23.47A1,1,0,0,1,188.86,184.22Zm-35.5-14c2.07.55,6.68,2.12,17.56,5.83,7.41,2.52,14.79,5.07,17.34,6l8-22.07c-5.31-8.39,1-22.95,3-27l-3.49-1.13c-5.35,14.69-13.24,17.24-13.58,17.34a1,1,0,0,1-1-.28c-6.54-7.12-4.06-17.76-3-21.16l-4.17-1c-1,2.34-4,9.21-6.66,12.74-2.78,3.75-7.8,8-9,9-.29,1.32-1.35,6.26-2.44,11.21C154.49,165.53,153.81,168.6,153.36,170.18Z" fill="#093f68"/><path d="M194.94,167.52a1,1,0,0,1-.5-.14l-15.87-9.33L155.92,157a1,1,0,0,1-1-1.05,1,1,0,0,1,1-.95l22.9,1.08a.94.94,0,0,1,.46.13l16.08,9.45a1,1,0,0,1-.51,1.87Z" fill="#093f68"/><path d="M192.09,175.45a1,1,0,0,1-.51-.13L175.72,166l-21.47-.58a1,1,0,0,1,.05-2L176,164a1,1,0,0,1,.48.14l16.09,9.45A1,1,0,0,1,193,175,1,1,0,0,1,192.09,175.45Z" fill="#093f68"/><path d="M172.11,178.06a.91.91,0,0,1-.32-.06,1,1,0,0,1-.63-1.26l9.77-28.94a1,1,0,0,1,1.9.64l-9.77,28.94A1,1,0,0,1,172.11,178.06Z" fill="#093f68"/><path d="M226.77,198.81H243a9.72,9.72,0,0,1,9.72,9.72v2.55a9.72,9.72,0,0,1-9.72,9.72H226.77a0,0,0,0,1,0,0v-22A0,0,0,0,1,226.77,198.81Z" transform="translate(167.61 -100.52) rotate(35.72)" fill="#fff"/><path d="M241.66,223.46a10.65,10.65,0,0,1-6.24-2L222.21,212a1,1,0,0,1-.22-1.4l12.83-17.84a1,1,0,0,1,1.39-.23l13.21,9.5a10.72,10.72,0,0,1,2.44,15L250.38,219A10.72,10.72,0,0,1,241.66,223.46Zm-17.47-12.55,12.4,8.91a8.73,8.73,0,0,0,12.16-2l1.49-2.07a8.73,8.73,0,0,0-2-12.16l-12.39-8.91Z" fill="#093f68"/><rect x="162.56" y="181.2" width="79.34" height="3.22" transform="translate(144.79 -83.68) rotate(35.72)" fill="#093f68"/><path d="M233.5,208.27a1,1,0,0,1-.59-.19L168.5,161.76a1,1,0,0,1-.23-1.39l1.88-2.62a1,1,0,0,1,.65-.4,1,1,0,0,1,.75.18L236,203.85a1,1,0,0,1,.23,1.4l-1.88,2.61a1,1,0,0,1-.65.4Zm-63-47.55,62.79,45.16.71-1-62.79-45.16Z" fill="#093f68"/><path d="M244.47,214.24l-18.28-10.57,3.4-4.74,15.84,14A.82.82,0,0,1,244.47,214.24Z" fill="#fff"/><path d="M244.9,215.35a1.88,1.88,0,0,1-.93-.25l-18.28-10.57a1,1,0,0,1-.31-1.45l3.4-4.73a1,1,0,0,1,.7-.41,1,1,0,0,1,.77.24l15.84,14a1.83,1.83,0,0,1-1.19,3.19Zm.07-2-.5.87.51-.87Zm-17.33-10,15.79,9.13-13.67-12.07Z" fill="#093f68"/><polyline points="162.62 157.18 169.02 161.78 171.74 158.01 165.34 153.41" fill="#fff"/><path d="M169,162.78a.94.94,0,0,1-.58-.19L162,158a1,1,0,1,1,1.17-1.62l5.58,4,1.55-2.15-5.59-4a1,1,0,1,1,1.17-1.63l6.4,4.61a1,1,0,0,1,.23,1.39l-2.72,3.78a1,1,0,0,1-.65.4Z" fill="#093f68"/><path d="M153.51,158.31l-2.23-1.6a1.43,1.43,0,0,1-.33-2l8.34-11.59a1.43,1.43,0,0,1,2-.33l2.23,1.61a8.56,8.56,0,0,1-10,13.9Zm.59-3.09,1.07.77a5.71,5.71,0,1,0,6.67-9.27l-1.07-.76Z" fill="#fff"/><path d="M158.48,160.92a9.48,9.48,0,0,1-5.56-1.8l-2.23-1.6a2.46,2.46,0,0,1-1-1.58,2.44,2.44,0,0,1,.43-1.81l8.33-11.59a2.44,2.44,0,0,1,3.39-.55l2.23,1.6a9.56,9.56,0,0,1-4,17.2A9.32,9.32,0,0,1,158.48,160.92Zm2-17.39a.44.44,0,0,0-.35.18l-8.34,11.59a.42.42,0,0,0-.07.32.46.46,0,0,0,.17.28l2.23,1.6h0a7.56,7.56,0,1,0,8.83-12.28l-2.23-1.61A.43.43,0,0,0,160.45,143.53Zm-2,14.54a6.63,6.63,0,0,1-3.9-1.27l-1.07-.76a1,1,0,0,1-.4-.65,1,1,0,0,1,.17-.75l6.67-9.27a1,1,0,0,1,.65-.4,1,1,0,0,1,.74.17l1.07.77A6.71,6.71,0,0,1,159.59,158,6.89,6.89,0,0,1,158.49,158.07Zm-3-3.07.26.18a4.72,4.72,0,0,0,6.57-1.07,4.72,4.72,0,0,0-1.08-6.57l-.25-.19Z" fill="#093f68"/><rect x="153.09" y="143.2" width="9.12" height="3.22" rx="1.48" transform="translate(99.17 -61.11) rotate(31.58)" fill="#ffc9b0"/><path d="M160.2,149a2.47,2.47,0,0,1-1.3-.37h0l-5.24-3.22a2.48,2.48,0,0,1-.81-3.41l.13-.22a2.48,2.48,0,0,1,3.41-.81l5.24,3.22a2.48,2.48,0,0,1,.82,3.42l-.13.21A2.5,2.5,0,0,1,160.2,149Zm-.25-2.07a.48.48,0,0,0,.66-.16l.13-.21a.45.45,0,0,0,.06-.37.47.47,0,0,0-.21-.3l-5.24-3.22a.49.49,0,0,0-.67.16l-.13.22a.46.46,0,0,0-.06.36.5.5,0,0,0,.22.3Z" fill="#093f68"/><rect x="157.26" y="149.54" width="9.12" height="3.22" rx="1.48" transform="translate(378.16 103.95) rotate(124.64)" fill="#ffc9b0"/><path d="M160.17,156.24a2.48,2.48,0,0,1-1.41-.44l-.21-.15a2.48,2.48,0,0,1-.63-3.45l3.5-5.06a2.48,2.48,0,0,1,3.45-.63l.21.14a2.48,2.48,0,0,1,.63,3.45l-3.5,5.06a2.44,2.44,0,0,1-1.59,1A3.42,3.42,0,0,1,160.17,156.24Zm3.29-8.17a.51.51,0,0,0-.4.2l-3.49,5.06h0a.52.52,0,0,0-.08.37.49.49,0,0,0,.2.31l.21.14a.49.49,0,0,0,.36.08.54.54,0,0,0,.31-.2l3.5-5.06a.44.44,0,0,0,.07-.36.45.45,0,0,0-.2-.32l-.2-.14A.48.48,0,0,0,163.46,148.07Zm-4.71,4.7Z" fill="#093f68"/><rect x="151.4" y="145.94" width="9.12" height="3.22" rx="1.48" transform="translate(100.35 -59.82) rotate(31.58)" fill="#ffc9b0"/><path d="M158.51,151.75a2.39,2.39,0,0,1-1.29-.37L152,148.16a2.47,2.47,0,0,1-.82-3.41l.13-.21a2.49,2.49,0,0,1,3.42-.82l5.24,3.22a2.49,2.49,0,0,1,.81,3.42l-.13.21a2.47,2.47,0,0,1-1.54,1.12A2.78,2.78,0,0,1,158.51,151.75Zm-5.1-6.4a.48.48,0,0,0-.41.23l-.13.22a.42.42,0,0,0-.06.36.47.47,0,0,0,.21.3l5.24,3.22h0a.49.49,0,0,0,.37.06.5.5,0,0,0,.3-.22l.13-.21a.49.49,0,0,0,.06-.37.53.53,0,0,0-.22-.3l-5.24-3.22A.55.55,0,0,0,153.41,145.35Z" fill="#093f68"/><rect x="149.72" y="148.69" width="9.12" height="3.22" rx="1.48" transform="translate(101.54 -58.53) rotate(31.58)" fill="#ffc9b0"/><path d="M156.83,154.5a2.51,2.51,0,0,1-1.3-.37h0l-5.24-3.22a2.48,2.48,0,0,1-.81-3.42l.13-.21a2.47,2.47,0,0,1,3.41-.82l5.24,3.22a2.49,2.49,0,0,1,.82,3.42l-.13.21a2.5,2.5,0,0,1-1.54,1.12A2.87,2.87,0,0,1,156.83,154.5Zm-.25-2.08a.48.48,0,0,0,.66-.16l.14-.21a.51.51,0,0,0-.16-.67L152,148.16a.51.51,0,0,0-.67.16l-.13.22a.48.48,0,0,0,.16.66Z" fill="#093f68"/><rect x="148.03" y="151.43" width="9.12" height="3.22" rx="1.48" transform="matrix(0.85, 0.52, -0.52, 0.85, 102.73, -57.24)" fill="#ffc9b0"/><path d="M155.14,157.24a2.44,2.44,0,0,1-1.29-.37h0l-5.24-3.22a2.49,2.49,0,0,1-.82-3.42l.13-.21a2.48,2.48,0,0,1,3.42-.82l5.24,3.22a2.49,2.49,0,0,1,1.11,1.54,2.44,2.44,0,0,1-.3,1.88l-.13.21A2.47,2.47,0,0,1,155.14,157.24Zm-.25-2.07a.51.51,0,0,0,.67-.16l.13-.22a.47.47,0,0,0,.06-.36.47.47,0,0,0-.22-.3l-5.24-3.22a.47.47,0,0,0-.36-.06.47.47,0,0,0-.3.22l-.13.21a.48.48,0,0,0,.15.66Z" fill="#093f68"/><path d="M220.57,239.76s7.26-12.94,8.47-13.44a58.05,58.05,0,0,1,7.1-1.14s4.16-11.8,6.7-11.8,11.53,6.55,11.53,6.55,2.95-3.93,4.42-3.11,4.83,7.54,4.83,7.54,3.62-2,5.36-.66,10.18,16.06,10.18,16.06Z" fill="#725858"/><path d="M279.16,240.76H220.57a1,1,0,0,1-.87-1.49c4.93-8.79,8-13.46,9-13.87a44.69,44.69,0,0,1,6.75-1.15c1.69-4.69,4.72-11.87,7.43-11.87,2.42,0,8.81,4.38,11.34,6.18,1.26-1.5,3.4-3.56,5.1-2.62,1.39.78,3.66,4.92,4.79,7.1,1.37-.58,3.88-1.36,5.51-.14,1.81,1.37,9,13.87,10.45,16.37a1,1,0,0,1,0,1A1,1,0,0,1,279.16,240.76Zm-56.88-2h55.15c-3.89-6.72-8.14-13.57-9.05-14.26s-3.33.22-4.29.74a1,1,0,0,1-1.37-.44c-1.55-3.11-3.69-6.71-4.41-7.11-.45,0-2,1.36-3.14,2.84a1,1,0,0,1-1.39.21c-3.62-2.64-9.41-6.36-10.94-6.36-1,.21-3.74,5.42-5.75,11.13a1,1,0,0,1-.84.66,57.28,57.28,0,0,0-6.76,1.05C228.65,228,225.34,233.39,222.28,238.76Z" fill="#093f68"/><path d="M232.39,236a.92.92,0,0,1-.29,0,1,1,0,0,1-.67-1.25c.81-2.64,3.67-9.63,3.79-9.92a1,1,0,1,1,1.85.76c0,.07-2.94,7.19-3.72,9.74A1,1,0,0,1,232.39,236Z" fill="#093f68"/><path d="M221.89,186.83s2.75,4.56,1.9,5.82-6,3-6.83,2c-1.17-1.53,2.25-3.31,2.25-3.31s-2.45-.84-2.28-3.16" fill="#ffc9b0"/><path d="M218,196a2.21,2.21,0,0,1-1.86-.73,2.07,2.07,0,0,1-.39-1.76,4.18,4.18,0,0,1,1.57-2.13,3.84,3.84,0,0,1-1.41-3.27,1,1,0,1,1,2,.15c-.11,1.51,1.55,2.13,1.62,2.15a1,1,0,0,1,.13,1.83c-.84.44-1.85,1.25-1.95,1.71v0c1,.26,4.7-1,5.25-1.85.16-.51-.75-2.79-1.93-4.74a1,1,0,0,1,1.71-1c1.15,1.9,2.93,5.33,1.88,6.89-.89,1.32-4.45,2.68-6.46,2.74Z" fill="#093f68"/><path d="M199,154.72a1,1,0,0,1-.34-.06,1,1,0,0,1-.6-1.28l3.25-9a1,1,0,1,1,1.88.67l-3.25,9A1,1,0,0,1,199,154.72Z" fill="#093f68"/><line x1="162.54" y1="135.17" x2="164.91" y2="127.67" fill="#68e1fd"/><path d="M162.54,136.17a1,1,0,0,1-.3,0,1,1,0,0,1-.65-1.26l2.37-7.5a1,1,0,1,1,1.9.6l-2.37,7.51A1,1,0,0,1,162.54,136.17Z" fill="#093f68"/><path d="M182.65,189.07h-6.5a1,1,0,0,1,0-2h6.5a1,1,0,1,1,0,2Z" fill="#093f68"/><polygon points="157.12 224.95 144.73 214.35 127.84 239.76 157.12 239.76 150.68 234.88 157.12 224.95" fill="#f56132"/><path d="M157.12,240.76H127.84a1,1,0,0,1-.84-1.55l16.9-25.41a1,1,0,0,1,1.48-.2l12.39,10.59a1,1,0,0,1,.19,1.3L152,234.65l5.69,4.32a1,1,0,0,1-.6,1.79Zm-27.42-2h24.45l-4.07-3.08a1,1,0,0,1-.24-1.34l6-9.2-10.86-9.29Z" fill="#093f68"/><polygon points="198.29 224.16 182.86 219.69 174.39 239.76 202.93 239.76 193.94 234.95 198.29 224.16" fill="#f56132"/><path d="M202.93,240.76H174.39a1,1,0,0,1-.92-1.39l8.47-20.06a1,1,0,0,1,1.2-.58l15.43,4.47a1,1,0,0,1,.65,1.34l-4,10,8.2,4.38a1,1,0,0,1-.47,1.88Zm-27-2h23l-5.47-2.93a1,1,0,0,1-.46-1.25l3.94-9.76-13.51-3.92Z" fill="#093f68"/><path d="M295.51,240.76H112.74a1,1,0,0,1,0-2H295.51a1,1,0,0,1,0,2Z" fill="#093f68"/></g></svg>