<svg xmlns="http://www.w3.org/2000/svg" viewBox="0 0 400 300"><g id="_63_user_interface_outline" data-name="#63_user_interface_outline"><rect x="190.04" y="67.12" width="103.61" height="165.76" rx="14.83" fill="#68e1fd"/><path d="M278.82,233.88H204.87A15.85,15.85,0,0,1,189,218.05V82a15.85,15.85,0,0,1,15.83-15.83h73.95A15.85,15.85,0,0,1,294.65,82v136.1A15.85,15.85,0,0,1,278.82,233.88ZM204.87,68.12A13.85,13.85,0,0,0,191,82v136.1a13.85,13.85,0,0,0,13.83,13.83h73.95a13.84,13.84,0,0,0,13.83-13.83V82a13.84,13.84,0,0,0-13.83-13.83Z" fill="#093f68"/><rect x="198.02" y="79.69" width="87.66" height="131.19" rx="2.7" fill="#fff"/><path d="M283,211.88H200.71a3.7,3.7,0,0,1-3.69-3.7V82.39a3.7,3.7,0,0,1,3.69-3.7H283a3.7,3.7,0,0,1,3.7,3.7V208.18A3.7,3.7,0,0,1,283,211.88ZM200.71,80.69a1.7,1.7,0,0,0-1.69,1.7V208.18a1.7,1.7,0,0,0,1.69,1.7H283a1.7,1.7,0,0,0,1.7-1.7V82.39a1.7,1.7,0,0,0-1.7-1.7Z" fill="#093f68"/><path d="M278.46,164.29H205.23a1,1,0,0,1-1-1V132.67a1,1,0,0,1,1-1h73.23a1,1,0,0,1,1,1v30.62A1,1,0,0,1,278.46,164.29Zm-72.23-2h71.23V133.67H206.23Z" fill="#dfeaef"/><circle cx="241.34" cy="221.88" r="4.27" fill="#fff"/><path d="M241.34,227.15a5.27,5.27,0,1,1,5.27-5.27A5.28,5.28,0,0,1,241.34,227.15Zm0-8.54a3.27,3.27,0,1,0,3.27,3.27A3.28,3.28,0,0,0,241.34,218.61Z" fill="#093f68"/><rect x="205.23" y="97.21" width="73.24" height="30.62" fill="#f56132"/><path d="M278.46,128.83H205.23a1,1,0,0,1-1-1V97.21a1,1,0,0,1,1-1h73.23a1,1,0,0,1,1,1v30.62A1,1,0,0,1,278.46,128.83Zm-72.23-2h71.23V98.21H206.23Z" fill="#093f68"/><rect x="205.23" y="168.13" width="73.24" height="30.62" fill="#ffbc0e"/><path d="M278.46,199.75H205.23a1,1,0,0,1-1-1V168.13a1,1,0,0,1,1-1h73.23a1,1,0,0,1,1,1v30.62A1,1,0,0,1,278.46,199.75Zm-72.23-2h71.23V169.13H206.23Z" fill="#093f68"/><path d="M211.72,86.65h-5.25a1,1,0,0,1,0-2h5.25a1,1,0,0,1,0,2Z" fill="#093f68"/><path d="M211.72,89.58h-5.25a1,1,0,0,1,0-2h5.25a1,1,0,0,1,0,2Z" fill="#093f68"/><path d="M211.72,92.52h-5.25a1,1,0,0,1,0-2h5.25a1,1,0,0,1,0,2Z" fill="#093f68"/><path d="M278.46,89.58H253.62a1,1,0,0,1,0-2h24.84a1,1,0,0,1,0,2Z" fill="#093f68"/><path d="M190.64,157.4c-3.76-1.83-5.41.19-7.25,4-4.65,9.51-13.78,20.76-16.81,23.21-3.7-.94-26.42-20.59-30.17-20.59H113a9.85,9.85,0,0,0-9.86,9.86v42.29h43.17V188.62l.44.29c9.21,6.06,15.59,8.82,20.58,8.82a11.69,11.69,0,0,0,2.62-.28c8.92-2,18.09-17.35,24.21-29.91A7.58,7.58,0,0,0,190.64,157.4Z" fill="#68e1fd"/><path d="M146.27,217.13H103.1a1,1,0,0,1-1-1V173.84A10.87,10.87,0,0,1,113,163h23.45c2.25,0,8.22,4.43,17.78,11.73,4.81,3.66,10.2,7.78,12.19,8.72,3.13-2.86,11.57-13.21,16.12-22.51,1.71-3.52,3.79-6.75,8.57-4.41h0A8.58,8.58,0,0,1,195,168c-6.22,12.75-15.59,28.39-24.89,30.45-5.47,1.22-12.25-1.12-22.86-8v25.65A1,1,0,0,1,146.27,217.13Zm-42.17-2h41.17V188.62a1,1,0,0,1,1.56-.83l.42.29c10.71,7,17.35,9.53,22.45,8.4,6.74-1.5,14.88-11.66,23.53-29.38a6.59,6.59,0,0,0-3-8.8c-2.69-1.31-3.91-.59-5.91,3.49-4.62,9.46-13.84,20.94-17.08,23.56a1,1,0,0,1-.88.19c-1.76-.45-6.22-3.8-13.35-9.24-5.91-4.51-14.83-11.32-16.57-11.32H113a8.86,8.86,0,0,0-8.86,8.86Z" fill="#093f68"/><polygon points="125.66 169.73 132.95 181.37 135.14 167.61 125.66 169.73" fill="#093f68"/><path d="M133,182.37a1,1,0,0,1-.84-.47l-7.3-11.64a1,1,0,0,1,.63-1.5l9.48-2.13a1,1,0,0,1,.9.25,1,1,0,0,1,.31.89l-2.19,13.76a1,1,0,0,1-.79.82A.65.65,0,0,1,133,182.37Zm-5.69-12,5.12,8.18,1.54-9.67Z" fill="#093f68"/><path d="M146.27,189.62a1,1,0,0,1-1-1V176.91a1,1,0,0,1,2,0v11.71A1,1,0,0,1,146.27,189.62Z" fill="#093f68"/><rect x="103.1" y="216.13" width="43.18" height="16.76" fill="#093f68"/><path d="M146.27,233.88H103.1a1,1,0,0,1-1-1V216.13a1,1,0,0,1,1-1h43.17a1,1,0,0,1,1,1v16.75A1,1,0,0,1,146.27,233.88Zm-42.17-2h41.17V217.13H104.1Z" fill="#093f68"/><rect x="156.16" y="141.12" width="73.24" height="30.62" fill="#70cc40"/><path d="M229.4,172.74H156.16a1,1,0,0,1-1-1V141.12a1,1,0,0,1,1-1H229.4a1,1,0,0,1,1,1v30.62A1,1,0,0,1,229.4,172.74Zm-72.24-2H228.4V142.12H157.16Z" fill="#093f68"/><path d="M106.1,180.63a149.73,149.73,0,0,0,14.64,15c8.81,7.74,16.44,11.62,22.83,11.62a13.94,13.94,0,0,0,9.14-3.33c4.12-3.4,10.39-10.89,13.87-15.45-1.23-2.79-6.39-8.66-7-9.93a154.63,154.63,0,0,1-16.92,11.51c-4.4-1.08-15.18-10.37-23.48-20.36" fill="#68e1fd"/><path d="M143.57,208.29c-6.63,0-14.53-4-23.49-11.86a149.85,149.85,0,0,1-14.75-15.16,1,1,0,1,1,1.54-1.28,147.21,147.21,0,0,0,14.53,14.93c13,11.44,23.38,14.3,30.68,8.27,3.65-3,9.37-9.68,13.33-14.8a55.75,55.75,0,0,0-4.2-5.91c-.8-1-1.41-1.84-1.84-2.44A154.73,154.73,0,0,1,143.21,191a1,1,0,0,1-.74.11c-4.64-1.14-15.64-10.61-24-20.69a1,1,0,0,1,1.54-1.28c8.57,10.32,18.55,18.58,22.58,19.92A156,156,0,0,0,159,177.79a1,1,0,0,1,.86-.18,1,1,0,0,1,.67.57,33.31,33.31,0,0,0,2.24,3.07,44.67,44.67,0,0,1,4.71,6.86,1,1,0,0,1-.12,1c-2.9,3.78-9.55,11.9-14,15.61A15,15,0,0,1,143.57,208.29Z" fill="#093f68"/><path d="M166.58,188.51c4.75-6.28,7.4-10.43,7.4-10.43s9.56-1.28,10.9-4.3-3.15-2.3-6.29-2.28c-2.44,0-7.92-.36-7.92-.36s2.4-6.49-1.28-5.78-4.5,8.89-4.5,8.89a33,33,0,0,1-5.26,4.33Z" fill="#ffc9b0"/><path d="M166.58,189.51h0a1,1,0,0,1-.8-.43l-6.95-9.93a1,1,0,0,1-.16-.76,1,1,0,0,1,.43-.64,33.05,33.05,0,0,0,4.86-3.95c.22-1.81,1.31-8.66,5.26-9.42a2.49,2.49,0,0,1,2.56.73c1.06,1.24.66,3.6.25,5.11,1.76.11,4.93.3,6.57.28l1.52-.05c2.44-.09,4.74-.18,5.67,1.19a2.51,2.51,0,0,1,0,2.54c-1.38,3.13-8.81,4.47-11.22,4.82-.77,1.18-3.29,5-7.19,10.11A1,1,0,0,1,166.58,189.51ZM161,178.83l5.58,8c4.15-5.56,6.51-9.23,6.53-9.27a1,1,0,0,1,.71-.45c3.74-.5,9.35-2,10.11-3.72.2-.45.15-.61.15-.61-.3-.45-2.75-.35-3.93-.31l-1.58.05c-2.42,0-7.77-.35-8-.36a1,1,0,0,1-.77-.46,1,1,0,0,1-.1-.89c.61-1.64,1-3.85.51-4.39-.12-.14-.47-.1-.66-.06-2.41.47-3.5,6.08-3.69,8a1.09,1.09,0,0,1-.25.57A33.33,33.33,0,0,1,161,178.83Z" fill="#093f68"/><path d="M124.72,161.18H135a0,0,0,0,1,0,0v5.95a4.39,4.39,0,0,1-4.39,4.39H129.1a4.39,4.39,0,0,1-4.39-4.39v-5.95a0,0,0,0,1,0,0Z" transform="translate(-32.2 31.19) rotate(-12.19)" fill="#ffc9b0"/><path d="M129.28,172.65a5.38,5.38,0,0,1-5.26-4.24l-1.26-5.82a1,1,0,0,1,.77-1.18l10.1-2.19a1,1,0,0,1,.75.14,1,1,0,0,1,.44.63l1.25,5.81a5.38,5.38,0,0,1-4.12,6.4h0l-1.52.33A5.52,5.52,0,0,1,129.28,172.65Zm2.45-1.42h0Zm-6.8-8.08,1,4.83a3.39,3.39,0,0,0,4,2.6l1.52-.33a3.4,3.4,0,0,0,2.6-4l-1.05-4.83Z" fill="#093f68"/><ellipse cx="149.08" cy="128.53" rx="7.74" ry="8.65" transform="translate(-23.78 34.39) rotate(-12.19)" fill="#ffc9b0"/><path d="M149.41,138.14a8.47,8.47,0,0,1-5-1.67,10.36,10.36,0,0,1-2.86-13.26A8.27,8.27,0,0,1,147,119.1c4.71-1,9.46,2.38,10.58,7.58h0a10.12,10.12,0,0,1-1,7.17,8.14,8.14,0,0,1-7.18,4.29Zm-.68-17.22a6.08,6.08,0,0,0-1.27.13,6.37,6.37,0,0,0-4.16,3.15,8.39,8.39,0,0,0,2.31,10.65,6.17,6.17,0,0,0,9.24-2,8.2,8.2,0,0,0,.82-5.76C154.88,123.46,151.91,120.92,148.73,120.92Z" fill="#093f68"/><path d="M85.61,113.52c1.33,8.56,4,23.56,8.29,30.71,7.43,12.32,22.08,22.32,35.1,19.51a27.18,27.18,0,0,0,21.24-20.67,33.16,33.16,0,0,0,.07-14.91s.14-3.67-3.49-17-5.66-20.33-32.5-18.89C93.61,93.34,84.28,105,85.61,113.52Z" fill="#ffc9b0"/><path d="M124.68,165.18c-10.22,0-23.21-6.46-31.64-20.43-3.24-5.36-6-15.52-8.42-31.07-.59-3.79.71-7.87,3.65-11.5s10.42-10.11,26-11c27.8-1.48,30,6.46,33.52,19.63,3.29,12.12,3.51,16.39,3.52,17.19a34.38,34.38,0,0,1-.1,15.25,28.29,28.29,0,0,1-22,21.42A22.09,22.09,0,0,1,124.68,165.18ZM120.81,93c-2,0-4.1.07-6.44.19-10.81.58-19.76,4.3-24.54,10.21-2.59,3.18-3.73,6.71-3.23,9.93.88,5.62,3.54,22.72,8.15,30.34,6.84,11.33,21.09,21.85,34,19a26.33,26.33,0,0,0,20.48-19.93,32.49,32.49,0,0,0,.06-14.46,2.11,2.11,0,0,1,0-.25s.05-3.82-3.45-16.74C142.64,99.52,140.88,93,120.81,93Z" fill="#093f68"/><path d="M137.72,138.76c-3.61-.44-8.51.91-12.85,4.36-5.72,4.56-3.57,10.15-9,9.5a17.84,17.84,0,0,1-10.32-4.74c-3.55-3.52-3.89-9.16-5.06-13.82a13.83,13.83,0,0,0-1.83-4.73,7.09,7.09,0,0,0-7.25-2.75c-9.39,2.22-3.12,14.25-1.25,19.7l4.08-.88.6,3.35a31.78,31.78,0,0,0,34.13,15,27.18,27.18,0,0,0,21.24-20.67,31.83,31.83,0,0,1-3.69,1.26c-3.58.91-2.39-2.6-5.85-4.63A7.86,7.86,0,0,0,137.72,138.76Z" fill="#725858"/><path d="M122.16,165.48A32.75,32.75,0,0,1,94,149.27a.89.89,0,0,1-.13-.34l-.42-2.33-3.07.66a1,1,0,0,1-1.16-.65c-.25-.73-.58-1.58-.93-2.5-1.79-4.59-4.22-10.87-2-15a7,7,0,0,1,4.95-3.5,8.08,8.08,0,0,1,8.3,3.14,14.74,14.74,0,0,1,2,5.07c.26,1.05.49,2.16.71,3.23.75,3.74,1.54,7.6,4.08,10.12a16.88,16.88,0,0,0,9.74,4.46c2.24.26,2.64-.64,3.6-2.82a15.26,15.26,0,0,1,4.63-6.47c4.24-3.38,9.32-5.09,13.59-4.57h0a8.75,8.75,0,0,1,3.36,1.07,7.77,7.77,0,0,1,3,3.36c.66,1.23.8,1.49,2.09,1.16a31.07,31.07,0,0,0,3.56-1.22,1,1,0,0,1,1.34,1.16,28.29,28.29,0,0,1-22,21.42A33.36,33.36,0,0,1,122.16,165.48ZM95.82,148.39a30.67,30.67,0,0,0,33,14.37,26.27,26.27,0,0,0,20-18.06c-.73.26-1.39.46-1.95.6-2.79.71-3.65-.87-4.34-2.14a5.84,5.84,0,0,0-2.27-2.6,6.69,6.69,0,0,0-2.59-.8h0c-3.69-.45-8.33,1.14-12.11,4.14a13.41,13.41,0,0,0-4,5.71c-1,2.29-1.94,4.45-5.67,4a18.86,18.86,0,0,1-10.91-5c-3-3-3.82-7.11-4.63-11.14-.23-1.1-.44-2.14-.69-3.15a13.15,13.15,0,0,0-1.68-4.4,6.14,6.14,0,0,0-6.2-2.35A5.15,5.15,0,0,0,88,130c-1.75,3.33.59,9.36,2.14,13.34.24.62.47,1.2.66,1.74l3.23-.7a1.05,1.05,0,0,1,.77.15,1,1,0,0,1,.42.65Z" fill="#093f68"/><ellipse cx="118.28" cy="127.8" rx="2.8" ry="2.8" transform="translate(-24.32 27.87) rotate(-12.19)" fill="#093f68"/><circle cx="140.1" cy="121.91" r="2.8" fill="#093f68"/><path d="M128.05,134.69a1,1,0,0,1-.09-2,27.74,27.74,0,0,0,6.18-1.32c-.09-.84-2.2-3.36-4.59-5.43a1,1,0,1,1,1.31-1.51c1.7,1.48,5.62,5.16,5.25,7.36a1.8,1.8,0,0,1-1.18,1.41,28.74,28.74,0,0,1-6.79,1.48Z" fill="#093f68"/><path d="M107.93,123.33a1.84,1.84,0,0,1-.33,0,2,2,0,0,1-1.64-2.25c0-.22.88-5.34,7.11-6.62,5.92-1.22,8.72,1.24,9,1.53a2,2,0,0,1-2.77,2.89s-1.61-1.3-5.45-.51c-3.37.7-3.91,3.07-4,3.34A2,2,0,0,1,107.93,123.33Z" fill="#093f68"/><path d="M135.14,116.56a2,2,0,0,1-1.62-3.17,12.22,12.22,0,0,1,7.37-4.45c4.28-.73,6.51,1.34,7.15,2.67l-3.6,1.74a.26.26,0,0,0,.05.09s-.65-.94-2.93-.55a8.22,8.22,0,0,0-4.81,2.86A2,2,0,0,1,135.14,116.56Z" fill="#093f68"/><path d="M96,134.5s-8.31-3.44-10.81,3.85S88.78,155.8,100,150Z" fill="#ffc9b0"/><path d="M93.76,152.74a9.64,9.64,0,0,1-6.39-2.35A11.67,11.67,0,0,1,84.21,138a7.42,7.42,0,0,1,4-4.62c3.65-1.65,8,.1,8.17.18a1,1,0,0,1,.58.67L101,149.76a1,1,0,0,1-.51,1.15A14.75,14.75,0,0,1,93.76,152.74ZM91.7,134.69a6.61,6.61,0,0,0-2.71.53,5.54,5.54,0,0,0-2.89,3.45,9.75,9.75,0,0,0,2.58,10.21c2.58,2.23,6.18,2.44,10.19.6l-3.74-14.21A11.4,11.4,0,0,0,91.7,134.69Z" fill="#093f68"/><path d="M128.63,148.39l10.17-2.33s.89,8.53-3.21,10S128.63,148.39,128.63,148.39Z" fill="#fff"/><path d="M134.71,157.18a3.83,3.83,0,0,1-1.72-.42c-3.2-1.6-5.1-7.42-5.31-8.07a1,1,0,0,1,.09-.8,1,1,0,0,1,.64-.48l10.17-2.33a1.06,1.06,0,0,1,.81.16,1,1,0,0,1,.41.71c.1,1,.83,9.37-3.88,11A3.63,3.63,0,0,1,134.71,157.18ZM130,149.11c.74,1.93,2.22,5,3.94,5.86a1.66,1.66,0,0,0,1.37.11c2.35-.82,2.71-5.19,2.62-7.79Z" fill="#093f68"/><path d="M85.89,117.4s53.68-13,59-22.11,0-18.51,0-18.51-1.88,7.74-5.74,10.68c0,0,2.69-9.11-5.12-12.16,0,0-3.86,7.62-20.12,11.36S82.65,99.31,85.89,117.4Z" fill="#725858"/><path d="M85.89,118.4a1,1,0,0,1-.55-.16,1,1,0,0,1-.44-.66c-2.8-15.66,7.43-27,28.8-31.9,15.51-3.56,19.41-10.77,19.45-10.84a1,1,0,0,1,1.25-.47c5,2,6.31,6.4,6.23,10a28.76,28.76,0,0,0,3.3-7.81,1,1,0,0,1,.83-.76,1,1,0,0,1,1,.5c.23.4,5.56,9.95,0,19.5s-57.44,22-59.65,22.58Zm48.53-41.84c-1.5,2.14-6.68,8-20.27,11.07-11.47,2.64-30.08,9.84-27.45,28.54,15.54-3.81,53.23-14.34,57.34-21.39,3.41-5.85,2.16-11.87,1-15.1-.93,2.64-2.67,6.57-5.3,8.57a1,1,0,0,1-1.18,0,1,1,0,0,1-.39-1.1C138.29,86.85,140.35,79.51,134.42,76.56Z" fill="#093f68"/><rect x="160.49" y="93.23" width="23.77" height="17.56" fill="#fff"/><path d="M184.26,111.79H160.49a1,1,0,0,1-1-1V93.23a1,1,0,0,1,1-1h23.77a1,1,0,0,1,1,1v17.56A1,1,0,0,1,184.26,111.79Zm-22.77-2h21.77V94.23H161.49Z" fill="#093f68"/><rect x="271.65" y="180.92" width="35.91" height="22.65" fill="#fff"/><path d="M307.56,204.57H271.65a1,1,0,0,1-1-1V180.92a1,1,0,0,1,1-1h35.91a1,1,0,0,1,1,1v22.65A1,1,0,0,1,307.56,204.57Zm-34.91-2h33.91V181.92H272.65Z" fill="#093f68"/><path d="M271.65,204.57a1,1,0,0,1-.79-1.61l13.33-17.15a1,1,0,0,1,1.52-.07l11.45,12.33a1,1,0,1,1-1.46,1.36L285,188l-12.6,16.22A1,1,0,0,1,271.65,204.57Z" fill="#093f68"/><path d="M293.65,196.76a1,1,0,0,1-.76-1.65l6.15-7.25a1,1,0,0,1,.71-.35,1,1,0,0,1,.74.27l7.76,7.25a1,1,0,0,1-1.37,1.46l-7-6.53-5.48,6.45A1,1,0,0,1,293.65,196.76Z" fill="#093f68"/><path d="M178.45,99.41H166.3a1,1,0,0,1,0-2h12.15a1,1,0,0,1,0,2Z" fill="#dfeaef"/><path d="M174.65,104.76H166.3a1,1,0,0,1,0-2h8.35a1,1,0,0,1,0,2Z" fill="#dfeaef"/></g></svg>