<svg xmlns="http://www.w3.org/2000/svg" viewBox="0 0 400 300"><g id="_141_User_Profile_outline" data-name="#141_User Profile_outline"><rect x="88.01" y="72.22" width="223.99" height="155.57" rx="3.98" fill="#fff"/><path d="M308,228.78H92a5,5,0,0,1-5-5V76.19a5,5,0,0,1,5-5H308a5,5,0,0,1,5,5V223.81A5,5,0,0,1,308,228.78ZM92,73.22a3,3,0,0,0-3,3V223.81a3,3,0,0,0,3,3H308a3,3,0,0,0,3-3V76.19a3,3,0,0,0-3-3Z" fill="#093f68"/><path d="M92,72.22H308a4,4,0,0,1,4,4V89.36a0,0,0,0,1,0,0H88a0,0,0,0,1,0,0V76.19A4,4,0,0,1,92,72.22Z" fill="#68e1fd"/><path d="M312,90.36H88a1,1,0,0,1-1-1V76.19a5,5,0,0,1,5-5H308a5,5,0,0,1,5,5V89.36A1,1,0,0,1,312,90.36Zm-223-2H311V76.19a3,3,0,0,0-3-3H92a3,3,0,0,0-3,3Z" fill="#093f68"/><path d="M192.25,149.08a42.91,42.91,0,1,1-42.91-42.91A42.9,42.9,0,0,1,192.25,149.08Z" fill="#fff"/><path d="M149.34,193a43.9,43.9,0,0,1-19.08-4.35A44.14,44.14,0,1,1,149.34,193Zm0-85.82a41.91,41.91,0,1,0,10.06,82.6,40.83,40.83,0,0,0,7.88-2.8,41.92,41.92,0,0,0-17.94-79.8Z" fill="#093f68"/><path d="M290,149.08a42.9,42.9,0,0,1-24.56,38.8,41.85,41.85,0,0,1-8,2.84A42.42,42.42,0,0,1,247.08,192a43.24,43.24,0,0,1-10.24-1.23A42.91,42.91,0,1,1,290,149.08Z" fill="#fff"/><path d="M247.08,193a43.8,43.8,0,0,1-10.47-1.26,42.52,42.52,0,0,1-8.16-2.88,43.91,43.91,0,1,1,37.41-.07,42.52,42.52,0,0,1-8.15,2.91A43.83,43.83,0,0,1,247.08,193Zm0-85.82a41.91,41.91,0,1,0,10.14,82.58A40.68,40.68,0,0,0,265,187a41.92,41.92,0,0,0-17.92-79.81Z" fill="#093f68"/><path d="M265.43,180.51v7.37a41.85,41.85,0,0,1-8,2.84A42.42,42.42,0,0,1,247.08,192a43.24,43.24,0,0,1-10.24-1.23,42.55,42.55,0,0,1-8-2.81v-7.44a12.38,12.38,0,0,1,12.38-12.37h11.81A12.37,12.37,0,0,1,265.43,180.51Z" fill="#68e1fd"/><path d="M247.08,193a43.8,43.8,0,0,1-10.47-1.26,42.52,42.52,0,0,1-8.16-2.88,1,1,0,0,1-.58-.9v-7.44a13.39,13.39,0,0,1,13.38-13.37h11.81a13.39,13.39,0,0,1,13.37,13.37v7.37a1,1,0,0,1-.57.9,42.52,42.52,0,0,1-8.15,2.91A43.83,43.83,0,0,1,247.08,193Zm-17.21-5.68a42,42,0,0,0,27.35,2.44,40.49,40.49,0,0,0,7.21-2.51v-6.73a11.38,11.38,0,0,0-11.37-11.37H241.25a11.39,11.39,0,0,0-11.38,11.37Zm35.56.57h0Z" fill="#093f68"/><polygon points="244.21 169.36 247.57 185.44 250.43 169.36 244.21 169.36" fill="#093f68"/><path d="M247.57,186.44a1,1,0,0,1-1-.8l-3.36-16.08a1,1,0,0,1,.2-.83,1,1,0,0,1,.78-.37h6.21a1,1,0,0,1,1,1.17l-2.86,16.08a1,1,0,0,1-1,.83Zm-2.13-16.08,2.05,9.81,1.74-9.81Z" fill="#093f68"/><path d="M245.6,117.76a14.88,14.88,0,0,1,2.31-.18c3.57,0,7.22-.09,10.48,1.51a19.81,19.81,0,0,1,11,17.66l-.76,14.64H225.85a8.67,8.67,0,0,1,.17-2.73,11.88,11.88,0,0,0-.42-2.83,38.59,38.59,0,0,1-.86-7.26,28,28,0,0,1,2.35-11.16c.87-2.12,1.89-4.31,3.76-5.63s4.84-1.37,6.17.5A14.94,14.94,0,0,1,245.6,117.76Z" fill="#725858"/><path d="M268.67,152.39H225.85a1,1,0,0,1-1-.72,4.87,4.87,0,0,1,0-2.25,5.89,5.89,0,0,0,.11-.8,7.15,7.15,0,0,0-.27-2c0-.21-.09-.43-.13-.64a40.17,40.17,0,0,1-.88-7.44A29.16,29.16,0,0,1,226.16,127c.89-2.15,2-4.58,4.11-6.07a5.93,5.93,0,0,1,6.76-.11,15.85,15.85,0,0,1,8.41-4.07h0a14.61,14.61,0,0,1,2.47-.2h.64c3.44,0,7,0,10.28,1.61a20.78,20.78,0,0,1,11.6,18.56s0,0-.76,14.69A1,1,0,0,1,268.67,152.39Zm-41.88-2h40.93c.17-3.22.7-13.56.71-13.69A18.74,18.74,0,0,0,258,120c-2.87-1.4-6-1.4-9.41-1.41h-.67a14,14,0,0,0-2.13.17h0a13.84,13.84,0,0,0-8,4.21,1,1,0,0,1-1.55-.1c-1-1.38-3.33-1.28-4.77-.26-1.67,1.17-2.6,3.21-3.42,5.19a27.09,27.09,0,0,0-2.27,10.77,37.91,37.91,0,0,0,.84,7.07c0,.2.08.4.13.6a9.34,9.34,0,0,1,.31,2.47,9,9,0,0,1-.14,1.06C226.85,150,226.81,150.19,226.79,150.39Z" fill="#093f68"/><path d="M244.21,165.78h6.22a0,0,0,0,1,0,0v3.58a2.64,2.64,0,0,1-2.64,2.64h-.94a2.64,2.64,0,0,1-2.64-2.64v-3.58A0,0,0,0,1,244.21,165.78Z" fill="#ffc9b0"/><path d="M247.78,173h-.93a3.65,3.65,0,0,1-3.64-3.64v-3.58a1,1,0,0,1,1-1h6.21a1,1,0,0,1,1,1v3.58A3.65,3.65,0,0,1,247.78,173Zm-2.57-6.22v2.58a1.64,1.64,0,0,0,1.64,1.64h.93a1.64,1.64,0,0,0,1.64-1.64v-2.58Z" fill="#093f68"/><ellipse cx="230.57" cy="149.62" rx="5.69" ry="5.21" fill="#ffc9b0"/><path d="M230.57,155.83a6.22,6.22,0,1,1,6.69-6.21A6.47,6.47,0,0,1,230.57,155.83Zm0-10.41a4.23,4.23,0,1,0,4.69,4.2A4.48,4.48,0,0,0,230.57,145.42Z" fill="#093f68"/><ellipse cx="263.74" cy="149.62" rx="5.69" ry="5.21" fill="#ffc9b0"/><path d="M263.74,155.83a6.22,6.22,0,1,1,6.69-6.21A6.47,6.47,0,0,1,263.74,155.83Zm0-10.41a4.23,4.23,0,1,0,4.69,4.2A4.47,4.47,0,0,0,263.74,145.42Z" fill="#093f68"/><path d="M247.32,166.59h0a18.22,18.22,0,0,1-18.23-18.22v-9.81s4.59-2.62,5.95-6.74c0,0,7,8,13.76,7.43a156.64,156.64,0,0,0,16.74-2.34v11.46A18.22,18.22,0,0,1,247.32,166.59Z" fill="#ffc9b0"/><path d="M247.32,167.59a19.25,19.25,0,0,1-19.23-19.22v-9.81a1,1,0,0,1,.51-.86s4.27-2.49,5.49-6.19a1,1,0,0,1,.75-.67,1,1,0,0,1,.95.32c.07.08,6.77,7.58,12.93,7.09a157.07,157.07,0,0,0,16.62-2.32,1,1,0,0,1,1.2,1v11.46A19.25,19.25,0,0,1,247.32,167.59Zm-17.23-28.47v9.25a17.23,17.23,0,0,0,34.45,0V138.12c-2.58.48-8.93,1.58-15.66,2.12-5.63.45-11.22-4.37-13.51-6.64A16.16,16.16,0,0,1,230.09,139.12Z" fill="#093f68"/><path d="M247.22,152.39a11.16,11.16,0,0,1-1.72-.14,1,1,0,0,1,.35-2,8.12,8.12,0,0,0,1.92.09,15.26,15.26,0,0,0-1.34-3.37,1,1,0,1,1,1.77-.92c1,1.81,2,4.21,1.44,5.37a1.35,1.35,0,0,1-.93.78A6.19,6.19,0,0,1,247.22,152.39Z" fill="#093f68"/><path d="M236.84,191.76a1,1,0,0,1-1-1v-9.21a1,1,0,0,1,2,0v9.21A1,1,0,0,1,236.84,191.76Z" fill="#093f68"/><path d="M257.47,191.72a1,1,0,0,1-1-1v-9.17a1,1,0,0,1,2,0v9.17A1,1,0,0,1,257.47,191.72Z" fill="#093f68"/><path d="M142,122.09s-4.14-1.45-8.07,3.64c-3.68,4.76-3.48,11.58-3.67,17.26a58.89,58.89,0,0,1-3.13,16.76c-1.66,5.18.74,10.81,4.85,13.93a20.92,20.92,0,0,0,11.22,3.82c3.31.27,6.53-.62,9.78-.25a17.41,17.41,0,0,0,17.46-8.63,11.29,11.29,0,0,0,1.66-4.76,16.88,16.88,0,0,0-.63-4.94,84.73,84.73,0,0,1-2.09-17.57,29.12,29.12,0,0,0-3.16-13.7C161.19,118.41,147.79,114.17,142,122.09Z" fill="#725858"/><path d="M144.5,178.55c-.47,0-.93,0-1.4-.05-4.85-.39-8.69-1.7-11.74-4-4.74-3.6-6.88-9.78-5.2-15A57.15,57.15,0,0,0,129.24,143c0-.54,0-1.08,0-1.64.14-5.45.3-11.64,3.83-16.21,3.36-4.36,6.95-4.37,8.46-4.13a11.51,11.51,0,0,1,10-4,19.93,19.93,0,0,1,15.49,10.21,30.14,30.14,0,0,1,3.28,14.16,83.27,83.27,0,0,0,2.07,17.37l.07.35a16.41,16.41,0,0,1,.58,4.88,12.11,12.11,0,0,1-1.8,5.18,18.39,18.39,0,0,1-18.43,9.12,24.16,24.16,0,0,0-4.87.11C146.85,178.45,145.68,178.55,144.5,178.55Zm-4-55.66c-1.31,0-3.58.52-5.84,3.45-3.13,4-3.28,9.88-3.41,15,0,.56,0,1.11,0,1.65a58.86,58.86,0,0,1-3.18,17c-1.42,4.45.43,9.73,4.51,12.83,2.74,2.08,6.23,3.26,10.69,3.62a26.72,26.72,0,0,0,4.54-.15,26.49,26.49,0,0,1,5.28-.11,16.4,16.4,0,0,0,16.47-8.14,10.28,10.28,0,0,0,1.54-4.33,15.07,15.07,0,0,0-.54-4.29l-.08-.35a85.91,85.91,0,0,1-2.11-17.79,28.08,28.08,0,0,0-3-13.22A18.1,18.1,0,0,0,151.46,119a9.55,9.55,0,0,0-8.67,3.72,1,1,0,0,1-1.13.36A3.57,3.57,0,0,0,140.54,122.89Z" fill="#093f68"/><path d="M167.71,180.32v7.55a43,43,0,0,1-37-.13v-7.42a12.53,12.53,0,0,1,12.53-12.53h12a12.52,12.52,0,0,1,12.53,12.53Z" fill="#68e1fd"/><path d="M149.34,193a43.9,43.9,0,0,1-19.08-4.35,1,1,0,0,1-.57-.9v-7.42a13.52,13.52,0,0,1,13.53-13.53h12a13.51,13.51,0,0,1,13.53,13.53v7.55a1,1,0,0,1-.57.91,43.74,43.74,0,0,1-18.8,4.21Zm-17.65-5.89a41.63,41.63,0,0,0,7.31,2.6,42.28,42.28,0,0,0,20.4.07,40.57,40.57,0,0,0,7.31-2.54v-6.91a11.51,11.51,0,0,0-11.53-11.53h-12a11.57,11.57,0,0,0-10,5.72,11.46,11.46,0,0,0-1.57,5.81Zm36,.77h0Z" fill="#093f68"/><polygon points="149.2 185.85 146.96 168.85 152.68 168.85 149.2 185.85" fill="#093f68"/><path d="M149.2,186.85h0a1,1,0,0,1-.95-.87L146,169a1,1,0,0,1,.24-.79,1,1,0,0,1,.76-.34h5.72a1,1,0,0,1,1,1.2l-3.48,17A1,1,0,0,1,149.2,186.85Zm-1.1-17,1.31,10,2.05-10Z" fill="#093f68"/><path d="M138.76,191.67a1,1,0,0,1-1-1v-9.3a1,1,0,0,1,2,0v9.3A1,1,0,0,1,138.76,191.67Z" fill="#093f68"/><path d="M159.64,191.74a1,1,0,0,1-1-1v-9.37a1,1,0,0,1,2,0v9.37A1,1,0,0,1,159.64,191.74Z" fill="#093f68"/><path d="M147,166h5.73a0,0,0,0,1,0,0v3.3a2.43,2.43,0,0,1-2.43,2.43h-.86a2.43,2.43,0,0,1-2.43-2.43V166A0,0,0,0,1,147,166Z" fill="#ffc9b0"/><path d="M150.25,172.71h-.86a3.44,3.44,0,0,1-3.43-3.43V166a1,1,0,0,1,1-1h5.72a1,1,0,0,1,1,1v3.3A3.44,3.44,0,0,1,150.25,172.71ZM148,167v2.3a1.43,1.43,0,0,0,1.43,1.43h.86a1.43,1.43,0,0,0,1.43-1.43V167Z" fill="#093f68"/><ellipse cx="133.45" cy="151.1" rx="5.57" ry="4.8" fill="#ffc9b0"/><path d="M133.45,156.9c-3.62,0-6.57-2.6-6.57-5.8s3-5.79,6.57-5.79,6.56,2.6,6.56,5.79S137.07,156.9,133.45,156.9Zm0-9.59c-2.52,0-4.57,1.7-4.57,3.79s2.05,3.8,4.57,3.8,4.56-1.7,4.56-3.8S136,147.31,133.45,147.31Z" fill="#093f68"/><ellipse cx="165.89" cy="151.1" rx="5.57" ry="4.8" fill="#ffc9b0"/><path d="M165.89,156.9c-3.62,0-6.56-2.6-6.56-5.8s2.94-5.79,6.56-5.79,6.57,2.6,6.57,5.79S169.51,156.9,165.89,156.9Zm0-9.59c-2.51,0-4.56,1.7-4.56,3.79s2,3.8,4.56,3.8,4.57-1.7,4.57-3.8S168.41,147.31,165.89,147.31Z" fill="#093f68"/><path d="M160,136.88l-5.43-7s-1.22,4.29-2,7l-8.56,0-2-6.23-2.38,6.22-6.64,0V150a16.79,16.79,0,0,0,16.79,16.78h0A16.79,16.79,0,0,0,166.61,150v-13Z" fill="#ffc9b0"/><path d="M149.82,167.73A17.81,17.81,0,0,1,132,150V136.8a1,1,0,0,1,.3-.71,1,1,0,0,1,.7-.29h6l2.12-5.57a1,1,0,0,1,1-.64,1,1,0,0,1,.93.69l1.79,5.54,7.08,0c.75-2.65,1.77-6.23,1.77-6.23a1,1,0,0,1,1.75-.34l5.13,6.6,6.09,0a1,1,0,0,1,1,1v13A17.8,17.8,0,0,1,149.82,167.73ZM134,137.8V150a15.79,15.79,0,0,0,31.57,0V137.89H160a1,1,0,0,1-.79-.39L155,132.07l-1.43,5.06a1,1,0,0,1-1,.72h0l-8.56,0a1,1,0,0,1-.95-.69L142,133.6l-1.36,3.57a1,1,0,0,1-.94.65h0Z" fill="#093f68"/><path d="M149.73,153.73a10,10,0,0,1-1.59-.13,1,1,0,0,1,.34-2,8.28,8.28,0,0,0,1.66.09,14.33,14.33,0,0,0-1.21-3,1,1,0,1,1,1.78-.92c.87,1.68,1.82,3.92,1.33,5a1.34,1.34,0,0,1-.91.76A6,6,0,0,1,149.73,153.73Z" fill="#093f68"/><circle cx="186.88" cy="174.36" r="11.57" fill="#fff"/><path d="M186.88,186.93a12.57,12.57,0,1,1,12.57-12.57A12.59,12.59,0,0,1,186.88,186.93Zm0-23.14a10.57,10.57,0,1,0,10.57,10.57A10.59,10.59,0,0,0,186.88,163.79Z" fill="#093f68"/><path d="M186.88,182.42a2,2,0,0,1-2-2V168.3a2,2,0,0,1,4,0v12.12A2,2,0,0,1,186.88,182.42Z" fill="#093f68"/><path d="M192.94,176.36H180.82a2,2,0,0,1,0-4h12.12a2,2,0,0,1,0,4Z" fill="#093f68"/><circle cx="281.99" cy="174.36" r="11.57" fill="#fff"/><path d="M282,186.93a12.57,12.57,0,1,1,12.57-12.57A12.59,12.59,0,0,1,282,186.93Zm0-23.14a10.57,10.57,0,1,0,10.57,10.57A10.58,10.58,0,0,0,282,163.79Z" fill="#093f68"/><path d="M282,182.42a2,2,0,0,1-2-2V168.3a2,2,0,0,1,4,0v12.12A2,2,0,0,1,282,182.42Z" fill="#093f68"/><path d="M288.05,176.36H275.93a2,2,0,0,1,0-4h12.12a2,2,0,0,1,0,4Z" fill="#093f68"/><path d="M180.3,210.73H118.38a1,1,0,0,1,0-2H180.3a1,1,0,0,1,0,2Z" fill="#dfeaef"/><path d="M278,210.73H216.12a1,1,0,0,1,0-2H278a1,1,0,0,1,0,2Z" fill="#dfeaef"/><circle cx="96.84" cy="80.81" r="2.72" fill="#f56132"/><path d="M96.83,84.52a3.72,3.72,0,1,1,3.72-3.71A3.72,3.72,0,0,1,96.83,84.52Zm0-5.43a1.72,1.72,0,1,0,1.72,1.72A1.72,1.72,0,0,0,96.83,79.09Z" fill="#093f68"/><circle cx="107.41" cy="80.81" r="2.72" fill="#ffbc0e"/><path d="M107.41,84.52a3.72,3.72,0,1,1,3.72-3.71A3.72,3.72,0,0,1,107.41,84.52Zm0-5.43a1.72,1.72,0,1,0,1.72,1.72A1.72,1.72,0,0,0,107.41,79.09Z" fill="#093f68"/><circle cx="117.98" cy="80.81" r="2.72" fill="#70cc40"/><path d="M118,84.52a3.72,3.72,0,1,1,3.72-3.71A3.72,3.72,0,0,1,118,84.52Zm0-5.43a1.72,1.72,0,1,0,1.72,1.72A1.73,1.73,0,0,0,118,79.09Z" fill="#093f68"/></g></svg>