<svg xmlns="http://www.w3.org/2000/svg" viewBox="0 0 400 300"><g id="_169_video_call_outline" data-name="#169_video_call_outline"><path d="M301.71,94.23v89.14c0,3.38-2.32,6.11-5.19,6.11H173.1c-2.87,0-5.19-2.73-5.19-6.11V94.23c0-3.37,2.32-6.11,5.19-6.11H296.52C299.39,88.12,301.71,90.86,301.71,94.23Z" fill="#093f68"/><path d="M296.52,190.48H173.1c-3.42,0-6.19-3.19-6.19-7.11V94.23c0-3.92,2.77-7.11,6.19-7.11H296.52c3.41,0,6.19,3.19,6.19,7.11v89.14C302.71,187.29,299.93,190.48,296.52,190.48ZM173.1,89.12c-2.31,0-4.19,2.29-4.19,5.11v89.14c0,2.82,1.88,5.11,4.19,5.11H296.52c2.31,0,4.19-2.29,4.19-5.11V94.23c0-2.82-1.88-5.11-4.19-5.11Z" fill="#093f68"/><path d="M301.71,94.23v87.19H167.91V94.23c0-3.37,2.32-6.11,5.19-6.11H296.52C299.39,88.12,301.71,90.86,301.71,94.23Z" fill="#fff"/><path d="M301.71,182.42H167.91a1,1,0,0,1-1-1V94.23c0-3.92,2.77-7.11,6.19-7.11H296.52c3.41,0,6.19,3.19,6.19,7.11v87.19A1,1,0,0,1,301.71,182.42Zm-132.8-2h131.8V94.23c0-2.82-1.88-5.11-4.19-5.11H173.1c-2.31,0-4.19,2.29-4.19,5.11Z" fill="#093f68"/><path d="M243,102.1a16.39,16.39,0,0,0-5.41-1.73,16.87,16.87,0,0,0-14,4.79c-4.24,4.29-6.3,11.41-7.08,17.24a219.82,219.82,0,0,0-1.78,23.49,10.07,10.07,0,0,0,.45,2.32s9.59,9,30.43,6.48c6.53-.8,13.12-1.09,19.68-1.87-.81-5.46-.4-11-1.14-16.45-.62-4.54-1.36-9.06-1.79-13.69s-.76-10.76-5.15-13.42a8.3,8.3,0,0,0-7.31-.57A16.87,16.87,0,0,0,243,102.1Z" fill="#725858"/><path d="M238.22,156.15c-15.95,0-23.45-6.88-23.8-7.21a1,1,0,0,1-.27-.43,9.91,9.91,0,0,1-.5-2.64,222.35,222.35,0,0,1,1.78-23.6c.61-4.48,2.37-12.75,7.37-17.82a18,18,0,0,1,14.88-5.07,17.06,17.06,0,0,1,5.74,1.84,17.87,17.87,0,0,1,6.84,6.26,9.3,9.3,0,0,1,7.39.93c4.61,2.79,5.16,9,5.57,13.52l.06.66c.31,3.38.8,6.77,1.27,10l.51,3.6a78.66,78.66,0,0,1,.54,8.07,76,76,0,0,0,.6,8.37,1,1,0,0,1-.2.75,1,1,0,0,1-.67.39c-3.19.37-6.44.64-9.57.9-3.32.27-6.76.55-10.1,1A60.38,60.38,0,0,1,238.22,156.15ZM216,147.65c1.42,1.18,10.92,8.32,29.43,6,3.39-.42,6.84-.7,10.18-1,2.79-.23,5.66-.46,8.49-.78-.31-2.53-.39-5.08-.47-7.56s-.18-5.29-.53-7.87l-.51-3.59c-.48-3.3-1-6.71-1.28-10.15l-.06-.67c-.39-4.32-.87-9.71-4.62-12a7.25,7.25,0,0,0-6.41-.5,1,1,0,0,1-1.25-.44A15.84,15.84,0,0,0,242.5,103h0a15.18,15.18,0,0,0-5.08-1.63,15.92,15.92,0,0,0-13.2,4.5c-4.76,4.82-6.34,13.27-6.8,16.67a218.72,218.72,0,0,0-1.77,23.39A7.93,7.93,0,0,0,216,147.65Z" fill="#093f68"/><path d="M229.19,152.26h15.45a11,11,0,0,1,11,11v18.65a0,0,0,0,1,0,0H218.23a0,0,0,0,1,0,0V163.22A11,11,0,0,1,229.19,152.26Z" fill="#ffbc0e"/><path d="M255.6,182.87H218.23a1,1,0,0,1-1-1V163.22a12,12,0,0,1,12-12h15.45a12,12,0,0,1,12,12v18.65A1,1,0,0,1,255.6,182.87Zm-36.37-2H254.6V163.22a10,10,0,0,0-10-10H229.19a10,10,0,0,0-10,10Z" fill="#093f68"/><polygon points="239.69 153.28 234.83 173.68 233.47 153.72 239.69 153.28" fill="#fff"/><path d="M234.83,174.68h-.08a1,1,0,0,1-.92-.92l-1.36-20a1,1,0,0,1,.93-1.06l6.22-.44a1,1,0,0,1,.83.35,1,1,0,0,1,.21.88l-4.86,20.4A1,1,0,0,1,234.83,174.68Zm-.3-20,.85,12.41,3-12.68Z" fill="#093f68"/><path d="M236,150.48h.89a2.5,2.5,0,0,1,2.5,2.5v3.38a0,0,0,0,1,0,0h-5.88a0,0,0,0,1,0,0V153A2.5,2.5,0,0,1,236,150.48Z" transform="translate(464.65 318.81) rotate(-177.05)" fill="#ffc9b0"/><path d="M236.85,157.39h-.18l-.89,0a3.51,3.51,0,0,1-3.31-3.68l.17-3.38a1.07,1.07,0,0,1,.33-.69,1,1,0,0,1,.72-.25l5.88.3a1,1,0,0,1,1,1.05l-.18,3.38a3.5,3.5,0,0,1-3.49,3.32Zm-2.26-6-.12,2.39a1.5,1.5,0,0,0,1.41,1.57h0l.88,0a1.4,1.4,0,0,0,1.08-.38,1.46,1.46,0,0,0,.49-1l.13-2.39Z" fill="#093f68"/><ellipse cx="222.13" cy="135.06" rx="4.92" ry="4.41" transform="translate(75.82 349.94) rotate(-87.05)" fill="#ffc9b0"/><path d="M222.08,141h-.26a5.14,5.14,0,0,1-3.77-2,6.34,6.34,0,0,1,.43-8.29,5.1,5.1,0,0,1,7.72.4,6.27,6.27,0,0,1,1.33,4.23,6.2,6.2,0,0,1-1.76,4.06A5.19,5.19,0,0,1,222.08,141Zm.09-9.85a3.21,3.21,0,0,0-2.27,1,4.35,4.35,0,0,0-.29,5.63,3.22,3.22,0,0,0,2.31,1.23,3.18,3.18,0,0,0,2.43-1,4.34,4.34,0,0,0,.29-5.62,3.15,3.15,0,0,0-2.31-1.23Z" fill="#093f68"/><path d="M236.69,151.88c9.66.5,18.92-11,19.41-20.48l-2.34.75.42-6.72s-11.94-3.82-10.05-9.37c0,0-3.77,4-8.87,3.76-9.38-.5-12.92-3.18-12.92-3.18l-.88,17.2C221,143.34,227,151.38,236.69,151.88Z" fill="#ffc9b0"/><path d="M237.29,152.89h-.65c-9.76-.51-16.72-8.71-16.18-19.1l.88-17.19a1,1,0,0,1,1.61-.74s3.5,2.5,12.36,3c4.58.27,8.05-3.4,8.09-3.44a1,1,0,0,1,1.68,1,2.68,2.68,0,0,0,.18,2.17c1.46,2.89,7.16,5.25,9.23,5.91a1,1,0,0,1,.69,1l-.33,5.26.94-.31a1,1,0,0,1,.92.16,1,1,0,0,1,.39.85C256.6,141.12,247.26,152.89,237.29,152.89Zm-.55-2c7.26.4,16.88-7.92,18.22-18.07l-.9.29a1,1,0,0,1-.92-.16,1,1,0,0,1-.38-.85l.38-6c-2.09-.76-7.89-3.13-9.66-6.65a4.94,4.94,0,0,1-.43-1.18,12.48,12.48,0,0,1-7.84,2.53c-6.29-.34-10.06-1.64-12-2.52l-.8,15.59c-.49,9.39,5.52,16.54,14.28,17Z" fill="#093f68"/><circle cx="242.04" cy="132.73" r="1.59" transform="matrix(0.05, -1, 1, 0.05, 97.03, 367.62)" fill="#093f68"/><circle cx="226.7" cy="131.94" r="1.6" fill="#093f68"/><path d="M233.79,137.19a6.93,6.93,0,0,1-1.89-.23,1.34,1.34,0,0,1-.87-.82c-.45-1.14.64-3.38,1.62-5a1,1,0,0,1,1.73,1,14.67,14.67,0,0,0-1.41,3,7.6,7.6,0,0,0,1.74,0,1,1,0,0,1,.25,2A11.33,11.33,0,0,1,233.79,137.19Zm-.88-1.69h0Z" fill="#093f68"/><path d="M248.16,130.81a2,2,0,0,1-.48-.06l-7.39-1.83a2,2,0,0,1,1-3.88l7.39,1.83a2,2,0,0,1-.48,3.94Z" fill="#093f68"/><path d="M233,128.27h0l-7.61-.05a2,2,0,0,1,0-4h0l7.61,0a2,2,0,0,1,0,4Z" fill="#093f68"/><path d="M252.57,132.43s4.36-2.69,6.43,1.17-.44,10.14-7.3,7.92" fill="#ffc9b0"/><path d="M254.38,143a9.73,9.73,0,0,1-3-.51,1,1,0,1,1,.62-1.9c2.44.79,4.44.43,5.64-1a5.13,5.13,0,0,0,.47-5.5,2.71,2.71,0,0,0-1.67-1.46,5,5,0,0,0-3.35.67,1,1,0,1,1-1-1.7,7,7,0,0,1,4.91-.9,4.65,4.65,0,0,1,2.92,2.45,7.09,7.09,0,0,1-.69,7.72A6.06,6.06,0,0,1,254.38,143Z" fill="#093f68"/><path d="M235.28,144.7a10.74,10.74,0,0,1-5.95-2,1,1,0,0,1,1.21-1.59c.06,0,2.82,2.07,5.77,1.54a6.93,6.93,0,0,0,4.52-3.48,1,1,0,0,1,1.7,1.07,8.87,8.87,0,0,1-5.88,4.38A8.19,8.19,0,0,1,235.28,144.7Z" fill="#093f68"/><path d="M226.35,182.87a1,1,0,0,1-1-.88l-.89-7.48a18.47,18.47,0,0,1-1.57-5,7.6,7.6,0,0,1,2.72-6.82,1,1,0,1,1,1.19,1.6,5.64,5.64,0,0,0-1.92,5,17.43,17.43,0,0,0,1.45,4.52,1.19,1.19,0,0,1,.1.32l.91,7.64a1,1,0,0,1-.88,1.12Z" fill="#093f68"/><path d="M247.11,182.87a1,1,0,0,1-1-1V163.48a1,1,0,0,1,2,0v18.39A1,1,0,0,1,247.11,182.87Z" fill="#093f68"/><path d="M207.62,126.81H186.69a1,1,0,0,1-1-1V100.47a1,1,0,0,1,1-1h20.93a1,1,0,0,1,1,1v25.34A1,1,0,0,1,207.62,126.81Zm-19.93-2h18.93V101.47H187.69Z" fill="#dfeaef"/><path d="M197.15,116a5.83,5.83,0,1,1,5.82-5.83A5.83,5.83,0,0,1,197.15,116Zm0-9.65a3.83,3.83,0,1,0,3.82,3.82A3.83,3.83,0,0,0,197.15,106.39Z" fill="#dfeaef"/><path d="M203.11,126.81H191.19a1,1,0,0,1-1-1V121a7,7,0,0,1,13.92,0v4.81A1,1,0,0,1,203.11,126.81Zm-10.92-2h9.92V121a5,5,0,1,0-9.92,0Z" fill="#dfeaef"/><path d="M98.29,226.08a1,1,0,0,1-.67-.25,1,1,0,0,1-.08-1.41c.39-.45.39-.45,32.65-.47,19.08,0,44.5,0,69.91,0,50.83,0,101.62.12,101.62.12a1,1,0,0,1,0,2h0c-68.9-.1-199.71-.24-203.26,0Z" fill="#093f68"/><path d="M275.92,181.42H270.6c-1.56-3.7-4.3-11.13-3.75-16.65a13.8,13.8,0,0,1,6,6.52,14.67,14.67,0,0,1,.61,1.45A48.09,48.09,0,0,1,275.92,181.42Z" fill="#70cc40"/><path d="M275.92,182.42H270.6a1,1,0,0,1-.92-.61c-1.68-4-4.39-11.45-3.83-17.14a1,1,0,0,1,.5-.76,1,1,0,0,1,.91,0,14.7,14.7,0,0,1,6.49,7,15.31,15.31,0,0,1,.65,1.53,51,51,0,0,1,2.51,8.88,1,1,0,0,1-1,1.15Zm-4.66-2h3.46a57.09,57.09,0,0,0-2.2-7.34,11.68,11.68,0,0,0-.57-1.35,13.86,13.86,0,0,0-4.17-5.19C267.84,171.25,269.83,176.94,271.26,180.42Z" fill="#093f68"/><path d="M280.42,171.21a24.84,24.84,0,0,1-1.84,10.21h-4.71a55.28,55.28,0,0,1-1-10.13c0-4.87.69-10.43,3.24-15,0,0,3.44,3.94,4.26,13.48C280.38,170.25,280.41,170.74,280.42,171.21Z" fill="#70cc40"/><path d="M278.58,182.42h-4.71a1,1,0,0,1-1-.81,56.9,56.9,0,0,1-1-10.32c0-6.21,1.1-11.43,3.36-15.51a1,1,0,0,1,1.63-.17c.15.17,3.66,4.3,4.5,14.06,0,.52.07,1,.08,1.51a26,26,0,0,1-1.92,10.62A1,1,0,0,1,278.58,182.42Zm-3.88-2h3.2a24.07,24.07,0,0,0,1.52-9.18h0c0-.46,0-.93-.07-1.41a28.79,28.79,0,0,0-3.14-11.57,31.18,31.18,0,0,0-2.36,13A54.88,54.88,0,0,0,274.7,180.42Z" fill="#093f68"/><path d="M282.78,181.42h-6.5a30.86,30.86,0,0,1,4.14-10.21,26.25,26.25,0,0,1,5.62-6.32S288.25,171.82,282.78,181.42Z" fill="#70cc40"/><path d="M282.78,182.42h-6.5a1,1,0,0,1-.78-.37,1,1,0,0,1-.2-.83,32.36,32.36,0,0,1,4.28-10.55,27.41,27.41,0,0,1,5.83-6.56,1,1,0,0,1,1.58.47c.1.3,2.28,7.47-3.34,17.34A1,1,0,0,1,282.78,182.42Zm-5.25-2h4.66c3.39-6.2,3.45-11.2,3.18-13.63a25.66,25.66,0,0,0-4.1,5A30.45,30.45,0,0,0,277.53,180.42Z" fill="#093f68"/><path d="M177,131.2s5.63,8.8,3,11.91-8.07,0-8.07,0" fill="#ffc9b0"/><path d="M176.78,145.49a12.26,12.26,0,0,1-5.32-1.51,1,1,0,1,1,1-1.74s4.75,2.65,6.81.22c1.62-1.92-1.38-8.05-3.08-10.72a1,1,0,1,1,1.68-1.08c.62,1,5.94,9.53,2.93,13.09A5,5,0,0,1,176.78,145.49Z" fill="#093f68"/><path d="M191.47,191.4l1-8.25s-1.38-5-.63-8.36,1.31-4,2.35-2.72a21.85,21.85,0,0,1,2.15,4.13s2.82-10.77,4.13-12.11c1.66-1.67,10,2.64,11.45,4.7s.86,7.42-.37,11c-2.41,7-7.89,19.89-7.89,19.89Z" fill="#ffc9b0"/><path d="M203.67,200.66a1,1,0,0,1-.56-.17l-12.2-8.26a1,1,0,0,1-.43-.95l1-8.06c-.26-1-1.31-5.42-.6-8.64.56-2.53,1-3.85,2.15-4.11a2.07,2.07,0,0,1,2,1,12.5,12.5,0,0,1,1.13,1.83c1-3.57,2.6-8.81,3.66-9.89a2.88,2.88,0,0,1,2.33-.66c3.26.24,9.22,3.52,10.64,5.48,1.91,2.62.87,8.68-.24,11.88-2.38,6.92-7.85,19.83-7.9,20a1,1,0,0,1-.64.57A.92.92,0,0,1,203.67,200.66Zm-11.13-9.74,10.69,7.23c1.38-3.29,5.43-13.05,7.38-18.71,1.2-3.45,1.7-8.43.51-10.06-1-1.31-6-4.22-8.88-4.62-.82-.12-1.05,0-1.05,0-.7.73-2.55,6.62-3.87,11.65a1,1,0,0,1-.9.75,1,1,0,0,1-1-.63,21,21,0,0,0-2-3.82,17,17,0,0,0-.62,2.26c-.69,3.09.6,7.82.62,7.87a1,1,0,0,1,0,.39Z" fill="#093f68"/><ellipse cx="117.69" cy="136.35" rx="10.23" ry="8.81" fill="#ffc9b0"/><path d="M117.69,146.16c-6.19,0-11.23-4.4-11.23-9.81s5-9.81,11.23-9.81,11.22,4.4,11.22,9.81S123.88,146.16,117.69,146.16Zm0-17.62c-5.09,0-9.23,3.5-9.23,7.81s4.14,7.81,9.23,7.81,9.22-3.5,9.22-7.81S122.78,128.54,117.69,128.54Z" fill="#093f68"/><path d="M161.5,98.57c8.77,15.05,14.76,6.53,16.56,3.57v32.09a30.83,30.83,0,0,1-28.15,30.71v6.59a5.27,5.27,0,0,1-10.53,0v-6.18c-18.7-.7-27.82-16.8-27.82-31.12l4.82-28.56S128.65,115.21,161.5,98.57Z" fill="#ffc9b0"/><path d="M144.65,177.79a6.27,6.27,0,0,1-6.27-6.26V166.3a27.86,27.86,0,0,1-20.71-10.79,35.07,35.07,0,0,1-7.12-21.28,1,1,0,0,1,0-.17l4.83-28.55a1,1,0,0,1,.62-.77,1,1,0,0,1,1,.14c.11.09,12.31,8.87,44.05-7.2a1,1,0,0,1,1.31.38c3.1,5.32,6.18,8.14,8.9,8.17h0c2.06,0,4-1.55,5.91-4.61a1,1,0,0,1,1.12-.45,1,1,0,0,1,.73,1v32.09a32,32,0,0,1-28.15,31.62v5.68A6.27,6.27,0,0,1,144.65,177.79Zm-32.1-43.48c0,14.45,9.27,29.38,26.87,30a1,1,0,0,1,1,1v6.18a4.27,4.27,0,0,0,8.53,0v-6.59a1,1,0,0,1,.91-1,30,30,0,0,0,27.24-29.72v-29a7.68,7.68,0,0,1-5.76,3h-.06c-3.36,0-6.76-2.84-10.12-8.35-26.86,13.39-40,9.39-44,7.39Z" fill="#093f68"/><path d="M161.82,111.39c1.93.21,16.17,3.73,17.63,2.27a10,10,0,0,0,2.5-5.16,18.48,18.48,0,0,0-3.56-14.62,20.51,20.51,0,0,0-10-7.16c-1.22-.34-11.23-.4-11,.07-1.85-4.44-6.1-7.47-10.56-9.27-17.28-7-34.44.53-41.45,17.55-3.31,8-4.13,16.84-3.9,25.5.23,9,1.65,18.17,6.24,25.88,8.8,14.78,29.33,18.53,43.24,9.69C164,147.81,160.58,118.19,161.82,111.39Z" fill="#725858"/><path d="M134.19,161.87a34.56,34.56,0,0,1-7.93-.93,30.59,30.59,0,0,1-19.49-14c-4.06-6.82-6.09-15.2-6.38-26.38-.27-10.29,1-18.77,4-25.9,7.24-17.58,25.22-25.19,42.76-18.1,5.1,2.06,8.89,5.26,10.76,9.06,3.17-.47,10.65.09,10.73.11a21.35,21.35,0,0,1,10.57,7.51,19.49,19.49,0,0,1,3.75,15.43,10.84,10.84,0,0,1-2.78,5.67c-1.13,1.13-4.69.82-15.22-1.36l-2.26-.46c-.15,1.58-.19,3.93-.23,6.57-.17,11.65-.46,31.15-11,37.87A32.14,32.14,0,0,1,134.19,161.87Zm-.43-86c-11.93,0-22.4,7.07-27.55,19.56-2.83,6.87-4.08,15.08-3.82,25.09.28,10.82,2.22,18.89,6.1,25.4A28.55,28.55,0,0,0,126.73,159a30.88,30.88,0,0,0,23.6-3.69c9.66-6.14,9.94-25,10.11-36.21a59,59,0,0,1,.39-7.88,1,1,0,0,1,1.09-.81c.53.06,1.74.31,3.41.65,3.33.69,12.17,2.51,13.48,1.85a9,9,0,0,0,2.16-4.6,17.42,17.42,0,0,0-3.38-13.81,19.4,19.4,0,0,0-9.52-6.8,65.23,65.23,0,0,0-10.21-.07.91.91,0,0,1-.17.09,1,1,0,0,1-1.31-.54c-1.52-3.63-5.07-6.73-10-8.72A33.57,33.57,0,0,0,133.76,75.89Z" fill="#093f68"/><path d="M190.13,188l-3.44,10.56c-3.65-15.2-12.78-31.28-22.15-31.28H126.31A11.74,11.74,0,0,0,114.57,179v46.1H199l8.62-31.94Z" fill="#68e1fd"/><path d="M199,226.08H114.57a1,1,0,0,1-1-1V179a12.76,12.76,0,0,1,12.74-12.74h38.23c9.32,0,18.07,14.26,22.25,28.74l2.39-7.33a1,1,0,0,1,1.24-.65l17.48,5.18a1,1,0,0,1,.68,1.22L200,225.34A1,1,0,0,1,199,226.08Zm-83.43-2h82.67l8.16-30.26-15.62-4.63-3.14,9.64a1,1,0,0,1-1,.69,1,1,0,0,1-.94-.77c-3.59-15-12.49-30.51-21.17-30.51H126.31A10.75,10.75,0,0,0,115.57,179Z" fill="#093f68"/><line x1="168.61" y1="225.08" x2="163.98" y2="198.12" fill="#68e1fd"/><path d="M168.61,226.08a1,1,0,0,1-1-.83l-4.63-27a1,1,0,0,1,.81-1.15A1,1,0,0,1,165,198l4.63,27a1,1,0,0,1-.82,1.16Z" fill="#093f68"/><path d="M164.54,125.79c-4.23-1.54-11-.79-11,8.21,0,4.87,3,9.05,7.41,9.38" fill="#ffc9b0"/><path d="M161,144.38h-.07c-4.82-.36-8.33-4.72-8.34-10.38,0-4.88,1.91-7.26,3.53-8.39,2.74-1.93,6.35-1.66,8.81-.76a1,1,0,0,1-.68,1.88c-2-.73-4.87-1-7,.51-1.79,1.26-2.69,3.53-2.68,6.76,0,4.58,2.74,8.11,6.48,8.38a1,1,0,0,1-.07,2Z" fill="#093f68"/><circle cx="173.32" cy="127.41" r="1.78" fill="#093f68"/><path d="M177.08,124a2,2,0,0,1-1.14-.37c-.07,0-3-2.06-5.38-.7a2,2,0,0,1-2-3.46c4.6-2.66,9.49.75,9.7.9a2,2,0,0,1,.47,2.79A2,2,0,0,1,177.08,124Z" fill="#093f68"/><path d="M166.49,152.05a5.09,5.09,0,0,1-3.54-1.46,1,1,0,0,1,1.48-1.35c.22.23,2.16,2.1,5.35-.77a1,1,0,0,1,1.34,1.49A7,7,0,0,1,166.49,152.05Z" fill="#093f68"/><path d="M192.48,218.78a1,1,0,0,1-1-.71l-5.79-19.26a1,1,0,1,1,1.92-.58l5.79,19.26a1,1,0,0,1-.67,1.25A1.45,1.45,0,0,1,192.48,218.78Z" fill="#093f68"/><path d="M125.79,226.08a1,1,0,0,1-1-.9L122,196.26a1,1,0,0,1,.89-1.09,1,1,0,0,1,1.1.9L126.79,225a1,1,0,0,1-.9,1.1Z" fill="#093f68"/></g></svg>