<svg xmlns="http://www.w3.org/2000/svg" viewBox="0 0 400 300"><g id="_21_video_call_outline" data-name="#21_video_call_outline"><rect x="142.54" y="57.39" width="119.47" height="185.23" rx="9.69" fill="#68e1fd"/><path d="M252.32,243.61H152.24a10.7,10.7,0,0,1-10.7-10.69V67.08a10.7,10.7,0,0,1,10.7-10.69H252.32A10.7,10.7,0,0,1,263,67.08V232.92A10.7,10.7,0,0,1,252.32,243.61ZM152.24,58.39a8.7,8.7,0,0,0-8.7,8.69V232.92a8.7,8.7,0,0,0,8.7,8.69H252.32a8.7,8.7,0,0,0,8.69-8.69V67.08a8.7,8.7,0,0,0-8.69-8.69Z" fill="#093f68"/><rect x="148.22" y="76.09" width="108.11" height="144.86" rx="5.07" fill="#fff"/><path d="M251.26,221.94h-98a6.08,6.08,0,0,1-6.07-6.06V81.16a6.08,6.08,0,0,1,6.07-6.07h98a6.07,6.07,0,0,1,6.07,6.07V215.88A6.07,6.07,0,0,1,251.26,221.94Zm-98-144.85a4.07,4.07,0,0,0-4.07,4.07V215.88a4.07,4.07,0,0,0,4.07,4.06h98a4.07,4.07,0,0,0,4.07-4.06V81.16a4.07,4.07,0,0,0-4.07-4.07Z" fill="#093f68"/><circle cx="186.86" cy="67.7" r="1.56" fill="#093f68"/><path d="M219.25,68.7H194.32a1,1,0,0,1,0-2h24.93a1,1,0,0,1,0,2Z" fill="#093f68"/><circle cx="202.28" cy="231.19" r="6.57" fill="#093f68"/><path d="M234.11,185.91c.24-.07,3.8-6.72,3.8-6.72s-.13-4.19-.12-6.23,1.58-2.39,2-1.39a32.23,32.23,0,0,1,.8,4c.08,0,2.44-6.69,3-7s6.71,2.89,7,5c.16,1-.88,4.34-2.07,7.52-.33.89-3.43,2.81-3.43,2.81s-3.55,4.74-4.55,5.83Z" fill="#ffc9b0"/><path d="M240.62,190.67a1,1,0,0,1-.5-.13l-6.51-3.76a1,1,0,0,1-.19-1.6c.37-.52,2-3.48,3.49-6.23,0-1-.13-4.23-.12-6s1-2.7,1.86-2.88a1.84,1.84,0,0,1,2.08,1.1,6,6,0,0,1,.25.72c1.38-3.5,1.74-4,2.21-4.23.31-.16.79-.4,3.05.76,1.19.61,5.09,2.76,5.42,4.93.21,1.38-1,5.13-2.12,8-.38,1-2.4,2.41-3.68,3.21-.62.83-3.57,4.74-4.5,5.76A1,1,0,0,1,240.62,190.67Zm-5.09-5.09,4.87,2.81c1.33-1.62,3.94-5.11,4-5.15a1.12,1.12,0,0,1,.28-.25,13.41,13.41,0,0,0,3-2.34c1.59-4.28,2.07-6.53,2-7-.16-1.1-4-3.5-5.57-4-.53,1-1.56,3.74-2,4.85-.71,1.86-.81,2.09-1.55,2.06s-.94-.69-1.09-1.7a21.22,21.22,0,0,0-.51-2.7,1.58,1.58,0,0,0-.18.82c0,2,.12,6.16.12,6.2a1,1,0,0,1-.11.5C237.09,182.85,236.12,184.6,235.53,185.58Zm8.19-16.05Z" fill="#093f68"/><path d="M242.45,181.3a1,1,0,0,1-1-.94,6.28,6.28,0,0,0-1.52-4.09,1,1,0,0,1,1.38-1.45,8.25,8.25,0,0,1,2.14,5.42,1,1,0,0,1-.94,1.06Z" fill="#093f68"/><path d="M233.7,183.53s-2.95,9-11.28,11.7c-4,1.29-11-4.17-14.74-7.5a22.36,22.36,0,0,0-15.21-5.83c-3,0-6.8-.21-11.09-.29-7.57-.13-20.41,8.54-22.42,13.59-2.1,5.27-5.67,25.74-5.67,25.74h49.36l0-15.07v-5.36s9.68,13.9,24.27,6c11.66-6.36,14.9-16.63,15.92-18.12Z" fill="#70cc40"/><path d="M202.65,221.94H153.29a1,1,0,0,1-1-1.17c.14-.84,3.61-20.63,5.72-25.94,2.2-5.52,15.58-14.33,23.37-14.22,1.86,0,3.64.1,5.29.16,2.1.08,4.08.15,5.77.13A23.38,23.38,0,0,1,208.35,187c4.63,4.18,10.67,8.29,13.76,7.3,7.73-2.48,10.62-11,10.64-11.06a1,1,0,0,1,.58-.62,1,1,0,0,1,.84,0l9.17,4.82a1,1,0,0,1,.51.64,1.05,1.05,0,0,1-.15.81c-.12.17-.36.68-.62,1.21a36,36,0,0,1-15.65,17.21c-11.49,6.27-20.16-.43-23.76-4.13l0,17.74A1,1,0,0,1,202.65,221.94Zm-48.16-2h47.16l0-19.43a1,1,0,0,1,1.82-.57c.38.53,9.36,13.06,23,5.64a34.2,34.2,0,0,0,14.8-16.32c.08-.18.16-.35.24-.5l-7.29-3.82c-1.1,2.59-4.47,9-11.51,11.24-4.59,1.47-11.81-4.2-15.71-7.71a21.21,21.21,0,0,0-14.53-5.57c-1.73,0-3.74-.05-5.86-.13-1.65-.06-3.41-.13-5.26-.16-7.47-.15-19.68,8.47-21.47,13S155.28,215.53,154.49,219.94Z" fill="#093f68"/><path d="M177.64,122.14h4.86a24.78,24.78,0,0,1,24.78,24.78v18.9a0,0,0,0,1,0,0H152.86a0,0,0,0,1,0,0v-18.9A24.78,24.78,0,0,1,177.64,122.14Z" transform="translate(-17.15 24.57) rotate(-7.45)" fill="#725858"/><path d="M155.92,170.15a1,1,0,0,1-1-.87l-2.45-18.73a25.81,25.81,0,0,1,22.22-28.9l4.82-.63a25.77,25.77,0,0,1,28.9,22.21L210.87,162a1,1,0,0,1-.87,1.12l-53.95,7.06Zm19-46.52a23.8,23.8,0,0,0-20.49,26.66L156.79,168l52-6.79-2.32-17.75A23.8,23.8,0,0,0,179.78,123l-4.82.63Zm-.13-1h0Z" fill="#093f68"/><path d="M182.09,184.66H190a0,0,0,0,1,0,0v4.56a3.36,3.36,0,0,1-3.36,3.36h-1.2a3.36,3.36,0,0,1-3.36-3.36v-4.56a0,0,0,0,1,0,0Z" transform="matrix(0.99, -0.13, 0.13, 0.99, -22.89, 25.72)" fill="#ffc9b0"/><path d="M185.52,193.65a4.34,4.34,0,0,1-4.31-3.79l-.6-4.52a1,1,0,0,1,.87-1.12l7.85-1a1,1,0,0,1,1.12.86l.59,4.52a4.37,4.37,0,0,1-3.76,4.89h0l-1.18.16Zm1.63-1.18h0Zm-4.42-6.4.46,3.53a2.33,2.33,0,0,0,.9,1.56,2.29,2.29,0,0,0,1.75.47l1.18-.15a2.37,2.37,0,0,0,2-2.65l-.46-3.53Z" fill="#093f68"/><ellipse cx="160.42" cy="167.23" rx="7.7" ry="6.63" transform="translate(-20.33 22.22) rotate(-7.45)" fill="#ffc9b0"/><path d="M160.11,174.88a9.14,9.14,0,0,1-5-1.46,7,7,0,0,1-1.41-10.8A9.59,9.59,0,0,1,165.76,161a7,7,0,0,1,1.41,10.8,9.31,9.31,0,0,1-5.76,3A11.34,11.34,0,0,1,160.11,174.88Zm.62-13.3a7.37,7.37,0,0,0-1,.07,7.29,7.29,0,0,0-4.53,2.3,5,5,0,0,0,1,7.8,7.62,7.62,0,0,0,9.5-1.24,5.19,5.19,0,0,0,1.38-4.15h0a5.17,5.17,0,0,0-2.4-3.65A7.17,7.17,0,0,0,160.73,161.58Z" fill="#093f68"/><ellipse cx="204.9" cy="161.41" rx="7.7" ry="6.63" transform="translate(-19.2 27.93) rotate(-7.45)" fill="#ffc9b0"/><path d="M204.59,169.06a9.08,9.08,0,0,1-5-1.46,7,7,0,0,1-1.42-10.8,9.62,9.62,0,0,1,12.09-1.58,7,7,0,0,1,1.41,10.8,9.31,9.31,0,0,1-5.76,3A9.45,9.45,0,0,1,204.59,169.06Zm.62-13.3a7.37,7.37,0,0,0-1,.07,7.25,7.25,0,0,0-4.53,2.31,5,5,0,0,0,1,7.79,7.58,7.58,0,0,0,9.5-1.24,5.19,5.19,0,0,0,1.38-4.15h0a5.19,5.19,0,0,0-2.4-3.65A7.17,7.17,0,0,0,205.21,155.76Z" fill="#093f68"/><path d="M185.67,185.72h0a23.2,23.2,0,0,1-26-20l-2.79-21.31s12.38-1.33,24.91-3,21.11-3,21.11-3l2.79,21.3A23.2,23.2,0,0,1,185.67,185.72Z" fill="#ffc9b0"/><path d="M182.64,186.92a24.25,24.25,0,0,1-24-21.07l-2.78-21.31a1,1,0,0,1,.88-1.12c.13,0,12.51-1.36,24.89-3s21-3,21.09-3a.93.93,0,0,1,.75.19,1,1,0,0,1,.39.67l2.79,21.3a24.21,24.21,0,0,1-20.86,27.15A26,26,0,0,1,182.64,186.92ZM158,145.3l2.66,20.29a22.21,22.21,0,1,0,44-5.76L202,139.54c-2.63.4-10.16,1.53-20.11,2.86C171.56,143.78,161.2,144.94,158,145.3Z" fill="#093f68"/><circle cx="171.57" cy="160.76" r="2.15" fill="#093f68"/><circle cx="193.54" cy="157.88" r="2.15" fill="#093f68"/><path d="M181.42,167.64H181a1,1,0,0,1-1-1,1,1,0,0,1,1-1,10.06,10.06,0,0,0,2.79-.29,17.29,17.29,0,0,0-2.36-4.38,1,1,0,1,1,1.63-1.14c1.2,1.7,3.13,4.79,2.67,6.31a1.45,1.45,0,0,1-.88,1A10.53,10.53,0,0,1,181.42,167.64Z" fill="#093f68"/><path d="M164.8,156.2a2,2,0,0,1-.25-4l10.16-1.31a2,2,0,1,1,.51,4l-10.16,1.3Z" fill="#093f68"/><path d="M189.48,153.25a2,2,0,0,1-.36-4l10.08-1.85a2,2,0,1,1,.72,3.94l-10.08,1.85A2.19,2.19,0,0,1,189.48,153.25Z" fill="#093f68"/><path d="M189.19,169.49,178,171.44s1.72,7.2,5.87,8C187.56,180.1,189.35,177.93,189.19,169.49Z" fill="#093f68"/><path d="M185.07,180.53a7.14,7.14,0,0,1-1.34-.13c-4.74-.89-6.58-8.41-6.66-8.73a1,1,0,0,1,.8-1.22L189,168.5a1,1,0,0,1,.8.22,1,1,0,0,1,.37.75c.11,5.53-.61,8.65-2.34,10.11A4.12,4.12,0,0,1,185.07,180.53Zm-5.76-8.3c.71,2.19,2.35,5.75,4.78,6.2a2.69,2.69,0,0,0,2.47-.38c1.09-.92,1.63-3.34,1.64-7.37Z" fill="#093f68"/><rect x="204.18" y="80.45" width="47.1" height="47.1" fill="#fff"/><path d="M251.28,128.55h-47.1a1,1,0,0,1-1-1V80.45a1,1,0,0,1,1-1h47.1a1,1,0,0,1,1,1v47.1A1,1,0,0,1,251.28,128.55Zm-46.1-2h45.1V81.45h-45.1Z" fill="#093f68"/><path d="M233.23,85.72s11.87-1.55,13.37,6.84-.48,25.06-.48,25.06l-34-1.4s-.63-12.06-.11-22.75C212.37,85.15,227.77,78.65,233.23,85.72Z" fill="#725858"/><path d="M246.12,118.62h-.05l-34-1.4a1,1,0,0,1-1-1c0-.12-.63-12.23-.11-22.85.26-5.32,5.64-9.4,10.53-10.93,5-1.59,9.53-.77,12.15,2.18,4.58-.44,12.67.63,13.93,7.71,1.5,8.44-.39,24.67-.47,25.35A1,1,0,0,1,246.12,118.62ZM213,115.25l32.18,1.33c.38-3.59,1.64-16.82.39-23.85-.54-3-2.7-5-6.42-5.75a19.8,19.8,0,0,0-5.83-.27,1,1,0,0,1-.92-.38c-2-2.61-5.88-3.34-10.34-1.94s-8.93,5-9.13,9.13C212.54,102.36,212.91,112.25,213,115.25Z" fill="#093f68"/><path d="M222.45,116.37h11a7.75,7.75,0,0,1,7.75,7.75v3.07a0,0,0,0,1,0,0H216.7a0,0,0,0,1,0,0v-5.07A5.75,5.75,0,0,1,222.45,116.37Z" fill="#ffbc0e"/><path d="M241.17,128.19H216.7a1,1,0,0,1-1-1v-5.07a6.75,6.75,0,0,1,6.75-6.75h11c3.53,0,8.75,2.83,8.75,6.75v5.07A1,1,0,0,1,241.17,128.19Zm-23.47-2h22.47v-4.07c0-2.4-3.86-4.75-6.75-4.75h-11a4.75,4.75,0,0,0-4.75,4.75Z" fill="#093f68"/><path d="M227.05,115.32h.63a1.77,1.77,0,0,1,1.77,1.77v2.4a0,0,0,0,1,0,0h-4.17a0,0,0,0,1,0,0v-2.4A1.77,1.77,0,0,1,227.05,115.32Z" transform="translate(454.73 234.8) rotate(-180)" fill="#ffc9b0"/><path d="M227.68,120.48h-.63a2.77,2.77,0,0,1-2.77-2.77v-2.39a1,1,0,0,1,1-1h4.17a1,1,0,0,1,1,1v2.39A2.77,2.77,0,0,1,227.68,120.48Zm-1.4-4.16v1.39a.77.77,0,0,0,.77.77h.63a.76.76,0,0,0,.77-.77v-1.39Z" fill="#093f68"/><ellipse cx="216.57" cy="104.92" rx="3.12" ry="3.49" fill="#ffc9b0"/><path d="M216.57,109.41a4.51,4.51,0,1,1,4.13-4.49A4.32,4.32,0,0,1,216.57,109.41Zm0-7a2.52,2.52,0,1,0,2.13,2.49A2.33,2.33,0,0,0,216.57,102.43Z" fill="#093f68"/><path d="M227.49,116.3c6.86,0,13-8.46,13-15.21l-1.63.62s-8.54-7-7.41-11a8.9,8.9,0,0,1-6.14,3c-6.65,0-9.25-1.78-9.25-1.78v12.2C216.06,110.83,220.64,116.3,227.49,116.3Z" fill="#ffc9b0"/><path d="M227.5,117.3c-7.1,0-12.44-5.68-12.44-13.22V91.88a1,1,0,0,1,1.56-.83s2.52,1.59,8.7,1.61h0A7.92,7.92,0,0,0,230.69,90a1,1,0,0,1,1.23-.24,1,1,0,0,1,.5,1.16c-.67,2.34,3.55,7,6.63,9.62l1.08-.41a1,1,0,0,1,.92.11,1,1,0,0,1,.44.82C241.49,109.82,233.79,117.3,227.5,117.3ZM217.06,93.44v10.64c0,6.5,4.39,11.22,10.44,11.22,5.69,0,11.07-6.8,11.88-12.72l-.17.07a1,1,0,0,1-1-.17c-.77-.63-6.5-5.47-7.66-9.66a8.93,8.93,0,0,1-5.23,1.84h0A24.31,24.31,0,0,1,217.06,93.44Z" fill="#093f68"/><circle cx="232.1" cy="102.36" r="1.13" fill="#093f68"/><circle cx="221.02" cy="102.36" r="1.13" fill="#093f68"/><path d="M225.13,106.61a4.42,4.42,0,0,1-1.08-.12,1.24,1.24,0,0,1-.85-.71c-.12-.26-.48-1.08,1-3.88a1,1,0,1,1,1.77.92,11.89,11.89,0,0,0-.76,1.79,5.4,5.4,0,0,0,.8-.07,1,1,0,1,1,.35,2A8.37,8.37,0,0,1,225.13,106.61Zm-.06-1.49h0Z" fill="#093f68"/><path d="M233.65,99.92h-.09l-5.37-.48a1,1,0,0,1-.9-1.09,1,1,0,0,1,1.08-.9l5.37.47a1,1,0,0,1-.09,2Z" fill="#093f68"/><path d="M223.52,99.3h-.05L218.09,99a1,1,0,0,1-1-1.05,1,1,0,0,1,1.05-.95l5.39.26a1,1,0,0,1,1,1A1,1,0,0,1,223.52,99.3Z" fill="#093f68"/><path d="M238,102s3-2.06,4.59.6.06,7.19-4.88,5.87" fill="#ffc9b0"/><path d="M239.4,109.65a7.4,7.4,0,0,1-1.92-.27,1,1,0,0,1-.7-1.22,1,1,0,0,1,1.22-.71c1.63.44,2.93.15,3.65-.81a3.31,3.31,0,0,0,.11-3.58,1.63,1.63,0,0,0-1-.84,3.31,3.31,0,0,0-2.11.55,1,1,0,1,1-1.14-1.64,5.16,5.16,0,0,1,3.67-.86,3.62,3.62,0,0,1,2.35,1.76,5.32,5.32,0,0,1-.23,5.81A4.62,4.62,0,0,1,239.4,109.65Z" fill="#093f68"/><path d="M226.34,111.72a4.71,4.71,0,0,1-.53,0,6.74,6.74,0,0,1-4.49-2.71,1,1,0,0,1,1.65-1.14A4.72,4.72,0,0,0,226,109.7c1.34.13,2.77-.55,4.25-2a1,1,0,1,1,1.4,1.42A7.69,7.69,0,0,1,226.34,111.72Z" fill="#093f68"/><polygon points="215.63 127.19 214.03 121.42 208.61 122.73 209.13 127.19 215.63 127.19" fill="#ffbc0e"/><path d="M215.63,128.19h-6.5a1,1,0,0,1-1-.88l-.52-4.47a1,1,0,0,1,.75-1.09l5.42-1.31a1,1,0,0,1,1.2.71l1.6,5.77a1,1,0,0,1-.17.88A1,1,0,0,1,215.63,128.19Zm-5.61-2h4.29l-1-3.58-3.61.88Z" fill="#093f68"/><path d="M214,121.42s-.25-3.56-.3-4c-.12-1.1-1.35-.35-1.35-.35s.62-2.43-.17-2.82-3.5.34-3.86,1.33c-.45,1.22.26,7.17.26,7.17Z" fill="#ffc9b0"/><path d="M208.61,123.73a1.07,1.07,0,0,1-.57-.18,1,1,0,0,1-.42-.71c-.18-1.44-.7-6.28-.21-7.62a3.16,3.16,0,0,1,1.9-1.62c.8-.32,2.4-.74,3.34-.27s1,1.5.95,2.53a.82.82,0,0,1,.26.1,1.56,1.56,0,0,1,.86,1.33c.05.47.28,3.69.3,4a1,1,0,0,1-.76,1l-5.41,1.31A1,1,0,0,1,208.61,123.73Zm2.94-8.63a4,4,0,0,0-2.28.83,27.81,27.81,0,0,0,.21,5.56l3.49-.85c-.06-.88-.15-2-.2-2.67a1,1,0,0,1-1-.12,1,1,0,0,1-.38-1,5.35,5.35,0,0,0,.19-1.7Z" fill="#093f68"/><path d="M211,119.42l-.21,0a1,1,0,0,1-.77-1.19,3.1,3.1,0,0,1,2.05-2.12,1,1,0,0,1,.62,1.91c-.17,0-.64.29-.72.63A1,1,0,0,1,211,119.42Z" fill="#093f68"/><line x1="169.52" y1="220.68" x2="171.31" y2="198.36" fill="#68e1fd"/><path d="M169.52,221.68h-.08a1,1,0,0,1-.92-1.08l1.79-22.32a1,1,0,1,1,2,.16l-1.78,22.32A1,1,0,0,1,169.52,221.68Z" fill="#093f68"/><circle cx="202.28" cy="204" r="12.75" fill="#f56132"/><path d="M202.28,217.74A13.75,13.75,0,1,1,216,204,13.76,13.76,0,0,1,202.28,217.74Zm0-25.49A11.75,11.75,0,1,0,214,204,11.76,11.76,0,0,0,202.28,192.25Z" fill="#093f68"/><path d="M195.07,201.81a6,6,0,0,1,2.47-1.68,12.1,12.1,0,0,1,3.71-.73,18.56,18.56,0,0,1,3.25.07,10.07,10.07,0,0,1,2.9.74,5.42,5.42,0,0,1,2.54,2.14,4.43,4.43,0,0,1,.6,2.44c0,.31,0,.62,0,.93a.94.94,0,0,1-.9.84,7.07,7.07,0,0,1-2-.14,3.31,3.31,0,0,1-1.16-.34,1.37,1.37,0,0,1-.79-1.32c0-.37,0-.73,0-1.09a1.14,1.14,0,0,0-.64-1.11,4.19,4.19,0,0,0-1.74-.41,11.49,11.49,0,0,0-2.87.11,3,3,0,0,0-1.26.48,1.07,1.07,0,0,0-.46,1c0,.38.05.76.05,1.14a1.42,1.42,0,0,1-1,1.39,7,7,0,0,1-1.86.41,5,5,0,0,1-1,.05.94.94,0,0,1-1-1c0-.46,0-.92,0-1.38a4.18,4.18,0,0,1,.73-2.11C194.85,202.1,195,202,195.07,201.81Z" fill="#fff"/><path d="M170.84,82.31H130.75a5,5,0,0,0-5,5v22.23a5,5,0,0,0,5,5H160.7l4.55,5.93v-5.93h5.59a5,5,0,0,0,5-5V87.35A5,5,0,0,0,170.84,82.31Z" fill="#fff"/><path d="M165.25,121.56a1,1,0,0,1-.8-.4l-4.25-5.53H130.75a6.05,6.05,0,0,1-6-6V87.35a6,6,0,0,1,6-6h40.09a6,6,0,0,1,6,6v22.23a6,6,0,0,1-6,6h-4.59v4.93a1,1,0,0,1-.68.94A1,1,0,0,1,165.25,121.56Zm-34.5-38.25a4.05,4.05,0,0,0-4,4v22.23a4.06,4.06,0,0,0,4,4H160.7a1,1,0,0,1,.79.39l2.76,3.59v-3a1,1,0,0,1,1-1h5.59a4.05,4.05,0,0,0,4-4V87.35a4,4,0,0,0-4-4Z" fill="#093f68"/><path d="M270,137.26H249.54l-3.88-5v5h-3a4.3,4.3,0,0,0-4.3,4.3v19a4.3,4.3,0,0,0,4.3,4.31H270a4.31,4.31,0,0,0,4.3-4.31v-19A4.31,4.31,0,0,0,270,137.26Z" fill="#fff"/><path d="M270,165.83H242.67a5.31,5.31,0,0,1-5.3-5.31v-19a5.31,5.31,0,0,1,5.3-5.3h2v-4a1,1,0,0,1,1.8-.61l3.57,4.66h20a5.31,5.31,0,0,1,5.3,5.3v19A5.31,5.31,0,0,1,270,165.83Zm-27.33-27.57a3.3,3.3,0,0,0-3.3,3.3v19a3.31,3.31,0,0,0,3.3,3.31H270a3.31,3.31,0,0,0,3.3-3.31v-19a3.3,3.3,0,0,0-3.3-3.3H249.54a1,1,0,0,1-.79-.39l-2.09-2.72v2.11a1,1,0,0,1-1,1Z" fill="#093f68"/><path d="M143.23,91.7h-3.09c-5.57,0-5.57,0-5.82-.73l1.91-.6-1,.28.14-1c1,.08,19,0,30.9,0h0a1,1,0,0,1,0,2s-7.75,0-15.51.06Z" fill="#68e1fd"/><path d="M143.24,98.81h-3.1c-5.57,0-5.57,0-5.82-.74l1.91-.6-1,.28.14-1c1,.09,19,0,30.9,0a1,1,0,0,1,1,1,1,1,0,0,1-1,1l-15.51,0Z" fill="#68e1fd"/><path d="M141.27,105.92c-6.7,0-6.74-.11-7-.74a1,1,0,0,1,1.16-1.3c1.27.08,14.2,0,22.73,0h0a1,1,0,0,1,1,1,1,1,0,0,1-1,1l-11.46,0Z" fill="#68e1fd"/><path d="M252.85,149.57c-6,0-6-.1-6.28-.67l1.86-.72-.94.34.14-1c.78.07,12.45,0,20.1,0h0a1,1,0,0,1,0,2s-5.05,0-10.11,0Z" fill="#68e1fd"/><path d="M252.42,155.67c-5.57,0-5.63-.16-5.85-.68a1,1,0,0,1,1.13-1.36c1,.06,9.51,0,14.75,0a1,1,0,0,1,1,1,1,1,0,0,1-1,1C257.92,155.64,254.71,155.67,252.42,155.67Z" fill="#68e1fd"/></g></svg>