<svg id="_550_volleyball_outline" data-name="#550_volleyball_outline" xmlns="http://www.w3.org/2000/svg" viewBox="0 0 400 300"><path d="M194.09,55.89a14.73,14.73,0,0,0-10.22,1.44,10.15,10.15,0,0,0-3.51,2.6c-1.51,1.9-1.84,4.46-2.85,6.67a11.84,11.84,0,0,1-11.2,6.72,17.78,17.78,0,0,0,9.49,8.44,27.84,27.84,0,0,0,12.78,1.56A16.21,16.21,0,0,0,196.35,81c2.59-1.77,4.24-4.62,5.39-7.54C204.26,67,201.4,57.87,194.09,55.89Z" fill="#725858"/><path d="M185.4,84.47a26.93,26.93,0,0,1-10-1.78,18.79,18.79,0,0,1-10-8.93,1,1,0,0,1,.06-1,1,1,0,0,1,.9-.44,10.89,10.89,0,0,0,10.22-6.15,21.4,21.4,0,0,0,.87-2.38,14,14,0,0,1,2.11-4.5,11.15,11.15,0,0,1,3.85-2.87,15.69,15.69,0,0,1,10.92-1.51h0A12.15,12.15,0,0,1,202,61.39a15.63,15.63,0,0,1,.69,12.39c-1.48,3.76-3.36,6.38-5.75,8a17.51,17.51,0,0,1-8.25,2.53Q187,84.47,185.4,84.47ZM168,74.3a17.24,17.24,0,0,0,8.16,6.53,26.67,26.67,0,0,0,12.32,1.5,15,15,0,0,0,7.3-2.2c2.05-1.39,3.69-3.71,5-7.08a13.58,13.58,0,0,0-.62-10.76,10.17,10.17,0,0,0-6.36-5.44h0a13.77,13.77,0,0,0-9.52,1.37,9.11,9.11,0,0,0-3.17,2.33,12.17,12.17,0,0,0-1.77,3.87,23.79,23.79,0,0,1-1,2.59A12.83,12.83,0,0,1,168,74.3Z" fill="#093f68"/><path d="M198.48,63.45a15.76,15.76,0,0,0-5.21,8.36,10,10,0,0,0,2.6,9.23,2.28,2.28,0,0,0,2.69.59c2.4-.75,4.24-2.65,5.81-4.61a18.91,18.91,0,0,0,4-7.41C210,62.47,204.11,58.49,198.48,63.45Z" fill="#68e1fd"/><path d="M197.51,82.82a3.24,3.24,0,0,1-.86-.12,3.91,3.91,0,0,1-1.47-.93,11.08,11.08,0,0,1-2.89-10.17,16.77,16.77,0,0,1,5.53-8.9h0c2.89-2.55,6.14-3.17,8.7-1.66s3.7,4.93,2.82,8.79a20,20,0,0,1-4.19,7.81c-1.48,1.85-3.53,4.09-6.29,5A4.62,4.62,0,0,1,197.51,82.82Zm6-20.58a6.91,6.91,0,0,0-4.39,2h0A14.83,14.83,0,0,0,194.25,72a9,9,0,0,0,2.3,8.3,1.94,1.94,0,0,0,.68.47,1.88,1.88,0,0,0,1-.1c2.23-.7,3.94-2.56,5.33-4.29a17.67,17.67,0,0,0,3.8-7c.68-3,0-5.52-1.9-6.62A3.81,3.81,0,0,0,203.53,62.24Zm-5.05,1.21h0Z" fill="#093f68"/><path d="M190.1,164.32c.56-.39,29.9,16.52,33.12,22.25s-21.07,39.3-21.07,39.3,10.17,6.26,7.65,8.06-21.72-2.51-25.39-3.91c4.41-9.39,19.54-37.87,19.54-37.87l-27-16.31Z" fill="#ffc9b0"/><path d="M207.17,235.33c-6.69,0-20.58-3.41-23.11-4.37a1,1,0,0,1-.57-.56,1,1,0,0,1,0-.8c3.94-8.41,16.58-32.3,19.11-37.08l-26.2-15.82a1,1,0,0,1-.48-.77,1,1,0,0,1,.34-.84l13.16-11.52.09-.07a1.2,1.2,0,0,1,.89-.15c2.27.52,30.36,16.82,33.67,22.73,3.21,5.72-15.3,32.24-20.51,39.51,2.56,1.64,7.54,5.16,7.62,7.53a1.87,1.87,0,0,1-.81,1.63A6.13,6.13,0,0,1,207.17,235.33Zm-21.38-5.87c8,2.71,22.34,4.43,23.43,3.66,0-.85-3.6-3.94-7.6-6.4a1,1,0,0,1-.45-.66,1,1,0,0,1,.17-.78c9.93-13.73,23-34.66,21-38.23-2.76-4.91-28-19.87-32-21.61l-11.72,10.25,25.85,15.61a1,1,0,0,1,.36,1.32C204.69,192.9,190.65,219.32,185.79,229.46Z" fill="#093f68"/><polygon points="175.83 179.15 201.9 190.99 212.36 176.62 191.99 159.94 175.83 179.15" fill="#093f68"/><path d="M201.9,192a1.06,1.06,0,0,1-.42-.09l-26.06-11.84a1,1,0,0,1-.56-.69,1,1,0,0,1,.21-.86l16.16-19.21a1,1,0,0,1,1.4-.13L213,175.85a1,1,0,0,1,.17,1.36l-10.45,14.37A1,1,0,0,1,201.9,192Zm-24.45-13.2,24.12,11L211,176.8l-18.87-15.46Z" fill="#093f68"/><polygon points="170.89 132.44 164.66 141.18 198.2 161.13 203.21 153.93 170.89 132.44" fill="#ffc9b0"/><path d="M198.2,162.13a.94.94,0,0,1-.51-.14l-33.54-20a1,1,0,0,1-.47-.66,1,1,0,0,1,.16-.78l6.24-8.74a1,1,0,0,1,1.37-.25l32.31,21.48a1,1,0,0,1,.43.65,1,1,0,0,1-.16.76l-5,7.2A1,1,0,0,1,198.2,162.13Zm-32.1-21.26,31.81,18.93,3.9-5.61-30.67-20.38Z" fill="#093f68"/><path d="M241.78,96s1.67,7.06-.06,7.06a12,12,0,0,1-3.92-1" fill="#ffc9b0"/><path d="M241.72,104.05h0a13,13,0,0,1-4.33-1.08,1,1,0,0,1,.82-1.83,11.81,11.81,0,0,0,3.23.9,18.26,18.26,0,0,0-.63-5.83,1,1,0,1,1,1.94-.45c.44,1.83,1.33,6.26.2,7.69A1.56,1.56,0,0,1,241.72,104.05Z" fill="#093f68"/><path d="M200.57,113.07H210a0,0,0,0,1,0,0v5.44a4,4,0,0,1-4,4h-1.41a4,4,0,0,1-4-4v-5.44A0,0,0,0,1,200.57,113.07Z" transform="translate(53.53 -63.83) rotate(20.27)" fill="#ffc9b0"/><path d="M205.7,123.72a5,5,0,0,1-1.74-.31h0l-1.32-.49a5,5,0,0,1-3-6.43l1.88-5.11a1,1,0,0,1,1.29-.59l8.84,3.27a1,1,0,0,1,.56.52,1,1,0,0,1,0,.76l-1.88,5.11a5,5,0,0,1-2.61,2.81A4.93,4.93,0,0,1,205.7,123.72Zm-1-2.19a3,3,0,0,0,3.86-1.78l1.54-4.16-7-2.58-1.53,4.17a3,3,0,0,0,1.77,3.86Z" fill="#093f68"/><path d="M210.8,110.65a9.4,9.4,0,0,1-3.65-3.48c-.39-.62-.73-1.27-1.07-1.92a37.42,37.42,0,0,1-3.52-8.18,31.48,31.48,0,0,1-.68-8.28c.14-7.33,1.2-15,5.29-21,1.28-1.91,3-3.72,5.19-4.31,4.14-1.1,6.81,3.76,9.43,6.12,5.86,5.28,15.33,7.92,25.52,4.07L242,94.49c-1.9,7.52-5.57,15.78-13.78,17.85a25.61,25.61,0,0,1-10.06.12C215.41,112,212.92,111.75,210.8,110.65Z" fill="#ffc9b0"/><path d="M223.37,113.9a35.63,35.63,0,0,1-5.32-.45l-.76-.11a21.43,21.43,0,0,1-6.95-1.81h0a10.28,10.28,0,0,1-4-3.83c-.4-.65-.75-1.3-1.11-2a38.14,38.14,0,0,1-3.6-8.41,32.07,32.07,0,0,1-.71-8.54c.11-5.94.81-14.64,5.45-21.58,1.75-2.61,3.64-4.15,5.77-4.72,3.73-1,6.38,2,8.5,4.39.65.73,1.27,1.42,1.86,2,5,4.47,14,7.84,24.5,3.87a1,1,0,0,1,1,.19,1,1,0,0,1,.31,1L243,94.74c-2.71,10.71-7.46,16.79-14.51,18.57A20.79,20.79,0,0,1,223.37,113.9Zm-12.1-4.14a19.83,19.83,0,0,0,6.31,1.6l.77.12a25.2,25.2,0,0,0,9.66-.11c6.28-1.58,10.55-7.19,13.06-17.12h0s.14-.57,4.82-19.07a25.53,25.53,0,0,1-24.77-4.88,27.44,27.44,0,0,1-2-2.11c-1.94-2.19-4-4.45-6.5-3.78-1.64.43-3.15,1.71-4.61,3.89-4.36,6.51-5,14.82-5.12,20.51a30.8,30.8,0,0,0,.65,8,37,37,0,0,0,3.43,8c.34.64.67,1.26,1,1.85a8.27,8.27,0,0,0,3.27,3.12Z" fill="#093f68"/><path d="M241,88.63a2.22,2.22,0,0,1-.51-.06l-11.27-2.93a2,2,0,0,1,1-3.87l11.28,2.93a2,2,0,0,1-.5,3.93Z" fill="#093f68"/><ellipse cx="235.9" cy="92.51" rx="2.33" ry="2.33" transform="translate(88.38 298.53) rotate(-75.81)" fill="#093f68"/><path d="M219.77,133.6c5.06-6.36,4.39-11.84-2-16.88l-.11-.09-7.18-9.16c-6.53-5.19-18.3-2.48-23.5,4.06l-16.1,20.91,32.32,21.49Z" fill="#68e1fd"/><path d="M203.21,154.93a1,1,0,0,1-.55-.17l-32.32-21.49a1,1,0,0,1-.43-.67,1,1,0,0,1,.19-.77l16.1-20.91a20.31,20.31,0,0,1,11.85-6.8c5-1,9.8,0,13.07,2.57a1.21,1.21,0,0,1,.16.16l7.13,9.09c3.45,2.73,5.3,5.55,5.65,8.63s-.79,6.23-3.5,9.65h0L204,154.56A1,1,0,0,1,203.21,154.93ZM172.34,132.2,203,152.59,219,133c2.37-3,3.38-5.66,3.09-8.18s-1.9-4.91-4.91-7.29l-.12-.09a1,1,0,0,1-.17-.18l-7.1-9.06c-2.81-2.18-6.94-2.94-11.35-2.1a18.24,18.24,0,0,0-10.65,6.07Zm47.43,1.4h0Z" fill="#093f68"/><path d="M221.91,129.41s4.62,1.77-1.95,10.58c-4.69,6.28-13.67,6.28-13.67,6.28" fill="#68e1fd"/><path d="M206.29,147.27a1,1,0,0,1,0-2c.09,0,8.55-.09,12.87-5.88,3.41-4.58,3.49-6.91,3.23-7.89a1.76,1.76,0,0,0-.86-1.17A1,1,0,0,1,221,129a1,1,0,0,1,1.27-.55,3.6,3.6,0,0,1,2,2.4c.68,2.37-.51,5.64-3.54,9.71C215.83,147.19,206.68,147.27,206.29,147.27Z" fill="#093f68"/><path d="M268.49,157.56c-2.67-7.15-11.68-12.78-12.35-13.18l.27.16s-38.48-33-44.8-34.59c-4.17-1.08-8,.79-11,3.5-4.51,4.09-7.4,7.69-8.41,13.78a10.33,10.33,0,0,0-.08,3.28,5.63,5.63,0,0,0,.47,1.61c2.34,5.09,7.46,2.6,10.59.14a25.27,25.27,0,0,0,4.88-4.81l40,24.58s3.53,7.6,8.49,8.64S270.79,163.73,268.49,157.56Z" fill="#ffc9b0"/><path d="M264.62,162.84a42.38,42.38,0,0,1-8.14-1.16l-.15,0c-4.88-1-8.33-7.48-9-8.93l-39-23.94a28.91,28.91,0,0,1-4.51,4.27c-1.78,1.4-5.24,3.64-8.35,2.89a5.62,5.62,0,0,1-3.76-3.4,7,7,0,0,1-.55-1.87,11,11,0,0,1,.09-3.6c1-6.33,4.11-10.18,8.72-14.36,2.67-2.42,6.92-5,12-3.73,6.47,1.67,43.56,33.39,45.2,34.8,1.89,1.22,9.83,6.64,12.37,13.43.65,1.76.55,3.16-.31,4.17S266.61,162.84,264.62,162.84ZM208,126.45a1,1,0,0,1,.52.15l40,24.57a1,1,0,0,1,.38.43c0,.08,3.38,7.16,7.79,8.09l.14,0c3,.64,9.32,2,10.71.35.35-.41.34-1.13,0-2.16h0C265,151,256,145.47,255.62,145.23a1,1,0,0,1-.34-.35c-11-9.41-39-32.69-43.92-34-4.18-1.07-7.8,1.19-10.11,3.29-4.4,4-7.13,7.42-8.09,13.19a9.47,9.47,0,0,0-.09,3,5,5,0,0,0,.4,1.34,3.66,3.66,0,0,0,2.41,2.29c2.37.57,5.44-1.57,6.65-2.52a24.81,24.81,0,0,0,4.69-4.6A1,1,0,0,1,208,126.45Z" fill="#093f68"/><path d="M233.49,105.72c-2.8,0-7.17-1.25-7.7-6.21a1,1,0,0,1,2-.21c.52,4.85,6.09,4.42,6.33,4.4a1,1,0,0,1,1.08.9,1,1,0,0,1-.9,1.09C234,105.71,233.78,105.72,233.49,105.72Z" fill="#093f68"/><path d="M247.68,81.4l-8.26-.34-1.29-6.89-2.56,6.74L225,80.48A138.37,138.37,0,0,1,220,97.56c-2.15,5.85-6.86,10.57-13.5,7.85-8-3.25-9.41-18-9.23-25.51A27.13,27.13,0,0,1,202,64.74c2.45-3.41,7.76-7.25,12.21-7.15a3.94,3.94,0,0,1,3.31,1.71c1.74-1.8,3.57-3.67,5.94-4.48a15.85,15.85,0,0,1,6.83-.25,20.2,20.2,0,0,1,14.29,9.13C249.08,71.14,247.68,81.4,247.68,81.4Z" fill="#725858"/><path d="M210.2,107.2a10.8,10.8,0,0,1-4.12-.86c-10.09-4.13-9.91-24.19-9.85-26.46a28.26,28.26,0,0,1,4.94-15.72c2.7-3.76,8.22-7.58,12.87-7.58h.19a5.27,5.27,0,0,1,3.32,1.24,15.05,15.05,0,0,1,5.57-4,16.8,16.8,0,0,1,7.27-.29,21.12,21.12,0,0,1,15,9.6c4.65,7.66,3.31,17.92,3.25,18.36a1,1,0,0,1-1,.86h0l-8.26-.34a1,1,0,0,1-.95-.81l-.63-3.39-1.29,3.4a1,1,0,0,1-1,.65l-9.72-.4a139.47,139.47,0,0,1-4.91,16.4c-1.53,4.16-4,7.19-7.07,8.52A8.8,8.8,0,0,1,210.2,107.2ZM214,58.58c-3.95,0-8.88,3.47-11.23,6.74a26.27,26.27,0,0,0-4.57,14.61c-.19,7.74,1.42,21.62,8.61,24.56a7.72,7.72,0,0,0,6.19.11c2.52-1.11,4.65-3.73,6-7.39a135.89,135.89,0,0,0,5-17,1,1,0,0,1,1-.77l9.84.4,2.29-6.06a1,1,0,0,1,1.92.17l1.14,6.1,6.52.27c.21-2.61.46-10.35-3.06-16.15a19.07,19.07,0,0,0-13.54-8.64c-2.06-.23-4.39-.49-6.4.2-2.19.74-4,2.59-5.53,4.22a1,1,0,0,1-.83.3,1,1,0,0,1-.75-.46,3,3,0,0,0-2.48-1.25Z" fill="#093f68"/><path d="M270.82,236H257.9a1,1,0,0,1,0-2h12.92a1,1,0,0,1,0,2Z" fill="#dfeaef"/><path d="M286.62,236.46h-3.14a1,1,0,0,1,0-2h3.14a1,1,0,0,1,0,2Z" fill="#dfeaef"/><path d="M296.83,236.46h-4.57a1,1,0,0,1,0-2h4.57a1,1,0,0,1,0,2Z" fill="#dfeaef"/><path d="M164.66,141.18S154,155.77,153.43,164.29s8.79,11.58,19.59,14.89,14.59-4.41,25.18-18.05Z" fill="#093f68"/><path d="M177.66,181a16.75,16.75,0,0,1-4.94-.82c-10.26-3.15-20.87-6.4-20.29-15.91.53-8.71,11-23,11.42-23.65a1,1,0,0,1,1.32-.26l33.54,20a1,1,0,0,1,.47.68,1,1,0,0,1-.19.8c-1.4,1.8-2.68,3.5-3.88,5.08C188.58,175.49,184.46,181,177.66,181Zm-12.72-38.45c-2.14,3-10.08,14.78-10.52,21.85-.45,7.38,7.19,10.28,18.89,13.87,8.7,2.66,12.3-2.12,20.2-12.6,1-1.33,2.07-2.73,3.21-4.22Z" fill="#093f68"/><path d="M180.4,163.18s-10.81-13.36-22.19-2.52l-9.77,32.7S124.13,182,121.73,181.47s-19,18.92-14.91,19,11.3-6.26,11.3-6.26,28.55,17.17,35.29,18,11.49-3.75,12.4-7.27S180.4,163.18,180.4,163.18Z" fill="#ffc9b0"/><path d="M155,213.37a14.55,14.55,0,0,1-1.71-.11c-6.39-.8-30.72-15.19-35-17.78-1.86,1.58-7.46,6-11.3,6h-.14a1.58,1.58,0,0,1-1.47-.91c-.25-.55-1-2.23,5.68-10.43,2-2.41,8.58-10.21,11-9.67,2.22.51,20.79,9.11,25.87,11.47l9.43-31.6a1.05,1.05,0,0,1,.27-.44c3.4-3.23,7.09-4.73,11-4.49,7.22.47,12.45,6.84,12.67,7.11a1,1,0,0,1,.16,1c-.13.39-13.67,38.31-14.56,41.74C165.84,208.87,161.32,213.37,155,213.37Zm-36.87-20.12a1,1,0,0,1,.52.15c9.81,5.9,29.73,17.23,34.89,17.88,6.08.76,10.48-3.3,11.31-6.53s12.67-36.45,14.42-41.35c-1.24-1.36-5.54-5.62-10.89-6-3.25-.21-6.36,1.06-9.28,3.76l-9.69,32.45a1,1,0,0,1-.55.62,1,1,0,0,1-.83,0c-9.57-4.46-24.33-11.2-26.42-11.8-2.58.67-13.71,13.94-14.41,17,3.13-.22,8.42-4.36,10.27-6A1,1,0,0,1,118.12,193.25Z" fill="#093f68"/><path d="M156,155.64l-5.62,25.63,22.73,8.88s10.3-27.16,12.07-27.42S171.07,149.33,156,155.64Z" fill="#093f68"/><path d="M173.15,191.15a1.15,1.15,0,0,1-.37-.06l-22.72-8.89a1,1,0,0,1-.61-1.14l5.62-25.64a1,1,0,0,1,.59-.7c12.73-5.35,25.75,2.61,29.31,5.82,1.17,1,1.54,1.71,1.34,2.38a1.11,1.11,0,0,1-.7.73c-1.39,1.44-6.91,14.67-11.53,26.86a1,1,0,0,1-.53.56A.92.92,0,0,1,173.15,191.15Zm-21.57-10.5,21,8.21c7.3-19.17,10.23-24.74,11.54-26.4-2.2-2.37-14.9-10.9-27.2-6.09Z" fill="#093f68"/><path d="M208,128.45a.94.94,0,0,1-.51-.14L201,124.43a1,1,0,1,1,1-1.71l6.49,3.88a1,1,0,0,1-.51,1.85Z" fill="#093f68"/><circle cx="270.62" cy="127.44" r="17.81" fill="#fff"/><path d="M270.62,146.25a18.81,18.81,0,1,1,18.81-18.81A18.83,18.83,0,0,1,270.62,146.25Zm0-35.61a16.81,16.81,0,1,0,16.81,16.8A16.83,16.83,0,0,0,270.62,110.64Z" fill="#093f68"/><path d="M256.45,139.21a1.27,1.27,0,0,1-.28,0,1,1,0,0,1-.69-1.23c.09-.3,2.15-7.15,14.41-11.32.6-1.53,2.85-8.61-2.66-16.22a1,1,0,1,1,1.61-1.17c6.7,9.24,3.13,18.21,2.53,18.87a1,1,0,0,1-.44.28h0c-11.52,3.79-13.5,10-13.52,10.11A1,1,0,0,1,256.45,139.21Z" fill="#093f68"/><path d="M287.44,134.29c-11.58,0-17.31-5.91-17.55-6.16a1,1,0,0,1,1.46-1.38c.08.09,5.45,5.54,16.09,5.54a1,1,0,0,1,0,2Z" fill="#093f68"/><path d="M253.83,132.16a1,1,0,0,1-.58-.19,1,1,0,0,1-.23-1.39c7.85-10.84,18-9,18.38-8.89a1,1,0,0,1,.79,1.17,1,1,0,0,1-1.18.79c-.37-.07-9.3-1.66-16.37,8.1A1,1,0,0,1,253.83,132.16Z" fill="#093f68"/><path d="M253.81,124a1,1,0,0,1-.76-1.65c8.52-9.94,18.09-6.87,18.5-6.73a1,1,0,1,1-.64,1.89c-.38-.12-8.74-2.72-16.34,6.14A1,1,0,0,1,253.81,124Z" fill="#093f68"/><path d="M283.15,140.45a19.41,19.41,0,0,1-13.56-4.95,16.55,16.55,0,0,1-3.91-5.29,1,1,0,0,1,.55-1.3,1,1,0,0,1,1.31.55h0c.15.37,3.84,9,15.59,9h.62a1,1,0,0,1,1,1,1,1,0,0,1-1,1Z" fill="#093f68"/><path d="M274.79,145.33l-.19,0c-10.28-2-14.64-11.21-14.82-11.6a1,1,0,1,1,1.82-.84c0,.08,4.13,8.66,13.38,10.48a1,1,0,0,1-.19,2Z" fill="#093f68"/><path d="M275.19,131.57a.9.9,0,0,1-.42-.1,1,1,0,0,1-.48-1.33c0-.11,5.12-11,1.21-19.11a1,1,0,1,1,1.8-.87c4.33,9-1,20.36-1.2,20.84A1,1,0,0,1,275.19,131.57Z" fill="#093f68"/><path d="M281.6,133.73a1.12,1.12,0,0,1-.47-.11,1,1,0,0,1-.42-1.35c5-9.47,2.68-15.81,2.65-15.87a1,1,0,0,1,.59-1.29,1,1,0,0,1,1.28.58c.11.28,2.65,7.18-2.75,17.5A1,1,0,0,1,281.6,133.73Z" fill="#093f68"/><path d="M133.21,232.64c3.48-.85,6.79-2.79,10.11-4.28a44.3,44.3,0,0,1,9.17-3c6.11-1.28,11.19,6.68,17.76,6.86,7.65.21,13.82-5.74,22.2-3.66,5.47,1.35,10.26,5.35,15.89,5.43,4.84.06,9.16-2.78,13.36-5.19s9.2-4.51,13.76-2.88c3.76,1.34,6.24,4.81,9.82,6.47s6.67-2.81,10-3.72a11.38,11.38,0,0,1,3.86-.26,25.83,25.83,0,0,1,11.92,4c2.75,1.75,8,5.36,8.2,8.82,0,.53-.64,4.41-1.51,4.41q-22.69,0-45.38,0h-84c-15,0-30.32-.82-45.19,0,.42-3.52,2.68-7.53,4.82-10.3a12.24,12.24,0,0,1,8.09-5c4.43-.44,8.56,2.38,13,2.66A13.92,13.92,0,0,0,133.21,232.64Z" fill="#ffbc0e"/><path d="M103.17,246.67a1,1,0,0,1-.72-.31,1,1,0,0,1-.27-.8c.56-4.73,4-9.47,5-10.8A13.17,13.17,0,0,1,116,229.4c2.69-.27,5.22.55,7.68,1.35a22.88,22.88,0,0,0,5.49,1.3,12.81,12.81,0,0,0,3.82-.38h0a36.52,36.52,0,0,0,7.14-2.9c.94-.45,1.87-.91,2.8-1.33a46.12,46.12,0,0,1,9.38-3.05c3.64-.77,6.87,1.34,10,3.37,2.56,1.67,5.2,3.39,8,3.47,3.1.09,6-.91,9-2,4.1-1.43,8.35-2.92,13.4-1.66a36.11,36.11,0,0,1,6.62,2.59c3,1.42,5.92,2.77,9,2.81,4.07.05,7.86-2.16,11.54-4.3l1.31-.76c3.77-2.16,9.38-4.82,14.59-2.95a19.67,19.67,0,0,1,5.64,3.57,20.68,20.68,0,0,0,4.27,2.93c1.58.73,3.1-.16,5.4-1.71a14,14,0,0,1,3.88-2.06,12.5,12.5,0,0,1,4.2-.3,26.73,26.73,0,0,1,12.37,4.13c5.68,3.61,8.52,6.75,8.66,9.6,0,.5-.43,3.92-1.46,5a1.41,1.41,0,0,1-1,.47H148.36c-4.88,0-9.89-.09-14.74-.17-10-.18-20.4-.37-30.39.22Zm15.64-2.4c5,0,9.95.09,14.85.18s9.84.17,14.7.17h129a12.11,12.11,0,0,0,.82-3.38c-.08-1.45-1.48-4-7.74-8A24.69,24.69,0,0,0,259,229.41a10.49,10.49,0,0,0-3.52.23,12.91,12.91,0,0,0-3.29,1.8c-2.18,1.46-4.64,3.13-7.36,1.86a22.89,22.89,0,0,1-4.69-3.18,17.81,17.81,0,0,0-5-3.25c-4.43-1.58-9.5.84-12.93,2.81l-1.3.75c-3.91,2.28-8,4.62-12.57,4.57-3.55-.05-6.76-1.55-9.85-3a35.35,35.35,0,0,0-6.26-2.46c-4.48-1.11-8.26.21-12.26,1.61-3.07,1.07-6.24,2.17-9.72,2.08s-6.25-2-9-3.79-5.66-3.68-8.49-3.09a44.16,44.16,0,0,0-9,2.92c-.91.41-1.82.85-2.74,1.3a38,38,0,0,1-7.54,3h0A14.58,14.58,0,0,1,129,234a24.56,24.56,0,0,1-6-1.39c-2.36-.77-4.59-1.49-6.86-1.26a11.19,11.19,0,0,0-7.39,4.59,24.25,24.25,0,0,0-4.41,8.63C109.14,244.36,114,244.27,118.81,244.27Z" fill="#093f68"/><path d="M179.08,239.06a1,1,0,0,1-.44-1.9A12.58,12.58,0,0,1,184,236a1,1,0,0,1,0,2h-.11a10.07,10.07,0,0,0-4.32,1A1,1,0,0,1,179.08,239.06Z" fill="#093f68"/><path d="M155,232.6a1,1,0,0,1-.33,0,6.09,6.09,0,0,0-2.54-.3,1,1,0,0,1-1.09-.9,1,1,0,0,1,.9-1.09,8.07,8.07,0,0,1,3.38.4,1,1,0,0,1-.32,1.94Z" fill="#093f68"/><path d="M232.53,235.2a1,1,0,0,1-.22-2,21.9,21.9,0,0,1,5.29-.53,1,1,0,0,1,1,1,1,1,0,0,1-1,1h0a20,20,0,0,0-4.82.48A.76.76,0,0,1,232.53,235.2Z" fill="#093f68"/><path d="M142.33,236.61a1,1,0,0,1-.35-1.94,14.66,14.66,0,0,1,3.92-.88,1,1,0,0,1,1.08.92,1,1,0,0,1-.92,1.08,12.27,12.27,0,0,0-3.38.76A1.12,1.12,0,0,1,142.33,236.61Z" fill="#093f68"/><path d="M114.38,238.18a1,1,0,0,1-.85-.47,1,1,0,0,1,.32-1.38,6.57,6.57,0,0,1,3.41-1,1,1,0,0,1,1,1,1,1,0,0,1-1,1h0a4.36,4.36,0,0,0-2.3.66A1,1,0,0,1,114.38,238.18Z" fill="#093f68"/><path d="M243.4,94.63a5.67,5.67,0,0,1-7,3.91c-3-.85-7.78-5.07-6.93-8.09s7-3.68,10-2.83A5.67,5.67,0,0,1,243.4,94.63Z" fill="#fff"/><path d="M237.94,99.76a6.76,6.76,0,0,1-1.82-.25c-3.25-.92-8.7-5.5-7.62-9.33s8-4.45,11.26-3.52a6.68,6.68,0,0,1-1.82,13.1Zm-1.27-11.48c-2.7,0-5.79.83-6.24,2.44-.65,2.29,3.59,6.11,6.24,6.86a4.68,4.68,0,0,0,2.54-9A9.67,9.67,0,0,0,236.67,88.28Z" fill="#093f68"/><line x1="228.41" y1="90.31" x2="223.13" y2="88.09" fill="#fff"/><path d="M228.41,91.31a.91.91,0,0,1-.39-.08L222.74,89a1,1,0,0,1,.77-1.84l5.29,2.22a1,1,0,0,1-.39,1.92Z" fill="#093f68"/><path d="M224.59,90.63s-1.63-10.26-6.77-4.3-1.7,11.78,4,13.63" fill="#ffc9b0"/><path d="M221.84,101a1,1,0,0,1-.3,0,10.15,10.15,0,0,1-6.94-6.57c-.56-2-.59-5.12,2.46-8.67,1.56-1.8,3.07-2.5,4.51-2.09,3,.84,3.91,6.28,4,6.9a1,1,0,0,1-2,.31c-.32-2-1.33-4.93-2.58-5.29-.81-.23-1.88.83-2.44,1.48-2,2.27-2.67,4.63-2.06,6.82A8.2,8.2,0,0,0,222.15,99a1,1,0,0,1-.31,1.95Z" fill="#093f68"/></svg>