<svg xmlns="http://www.w3.org/2000/svg" viewBox="0 0 400 300"><g id="_322_voting_outline" data-name="#322_voting_outline"><polygon points="290.44 179.94 109.56 179.94 131.8 119.16 268.2 119.16 290.44 179.94" fill="#68e1fd"/><path d="M290.44,180.94H109.56a1,1,0,0,1-.94-1.34l22.24-60.78a1,1,0,0,1,.94-.66H268.2a1,1,0,0,1,.94.66l22.24,60.78a1,1,0,0,1-.94,1.34Zm-179.45-2H289L267.5,120.16h-135Z" fill="#093f68"/><rect x="109.56" y="179.94" width="180.87" height="56.52" fill="#68e1fd"/><path d="M290.44,237.46H109.56a1,1,0,0,1-1-1V179.94a1,1,0,0,1,1-1H290.44a1,1,0,0,1,1,1v56.52A1,1,0,0,1,290.44,237.46Zm-179.88-2H289.44V180.94H110.56Z" fill="#093f68"/><path d="M257,155.69H143a3.28,3.28,0,0,1-3.13-4.24l.91-3a3.29,3.29,0,0,1,3.14-2.32H256.08a3.29,3.29,0,0,1,3.14,2.32l.91,3A3.28,3.28,0,0,1,257,155.69Z" fill="#093f68"/><path d="M257,156.69H143a4.29,4.29,0,0,1-4.09-5.54l.92-3a4.26,4.26,0,0,1,4.09-3H256.08a4.26,4.26,0,0,1,4.09,3l.92,3a4.29,4.29,0,0,1-4.09,5.54Zm-113.08-9.54a2.27,2.27,0,0,0-2.18,1.61l-.92,3a2.28,2.28,0,0,0,.35,2,2.25,2.25,0,0,0,1.83.93H257a2.25,2.25,0,0,0,1.83-.93,2.28,2.28,0,0,0,.35-2l-.92-3a2.27,2.27,0,0,0-2.18-1.61Z" fill="#093f68"/><rect x="150.02" y="63.54" width="99.96" height="92.14" fill="#fff"/><path d="M250,156.69H150a1,1,0,0,1-1-1V63.54a1,1,0,0,1,1-1H250a1,1,0,0,1,1,1v92.15A1,1,0,0,1,250,156.69Zm-99-2h98V64.54H151Z" fill="#093f68"/><path d="M216.66,153a1,1,0,0,1-1-1c0-27.5,0-58.14,0-86.31a1,1,0,0,1,1-1h0a1,1,0,0,1,1,1c0,28.16,0,58.8,0,86.3a1,1,0,0,1-1,1Z" fill="#dfeaef"/><rect x="161.61" y="72.92" width="19.09" height="16.31" fill="#f56132"/><path d="M180.7,90.23H161.6a1,1,0,0,1-1-1V72.92a1,1,0,0,1,1-1h19.1a1,1,0,0,1,1,1V89.23A1,1,0,0,1,180.7,90.23Zm-18.1-2h17.1V73.92H162.6Z" fill="#093f68"/><rect x="161.61" y="106.93" width="19.09" height="16.31" fill="#ffbc0e"/><path d="M180.7,124.24H161.6a1,1,0,0,1-1-1V106.93a1,1,0,0,1,1-1h19.1a1,1,0,0,1,1,1v16.31A1,1,0,0,1,180.7,124.24Zm-18.1-2h17.1V107.93H162.6Z" fill="#093f68"/><rect x="161.61" y="140.95" width="19.09" height="14.74" fill="#70cc40"/><path d="M180.7,156.69H161.6a1,1,0,0,1-1-1V141a1,1,0,0,1,1-1h19.1a1,1,0,0,1,1,1v14.74A1,1,0,0,1,180.7,156.69Zm-18.1-2h17.1V142H162.6Z" fill="#093f68"/><path d="M247.81,98H152.19a1,1,0,0,1,0-2h95.62a1,1,0,0,1,0,2Z" fill="#dfeaef"/><path d="M247.81,134.18H152.19a1,1,0,0,1,0-2h95.62a1,1,0,0,1,0,2Z" fill="#dfeaef"/><path d="M232.7,124.28,221,111.36a2.43,2.43,0,0,1,.16-3.43l3.27-3a2.42,2.42,0,0,1,3.43.16l7.06,7.78,19.46-18.09a2.43,2.43,0,0,1,3.44.12l3,3.23a2.43,2.43,0,0,1-.13,3.43l-24.55,22.82A2.4,2.4,0,0,1,232.7,124.28Z" fill="#68e1fd"/><path d="M234.48,126.06h-.15A3.38,3.38,0,0,1,232,125h0L220.23,112a3.43,3.43,0,0,1,.23-4.84l3.26-3a3.43,3.43,0,0,1,4.85.23l6.38,7,18.72-17.41a3.45,3.45,0,0,1,4.85.18l3,3.23a3.38,3.38,0,0,1,.91,2.46,3.42,3.42,0,0,1-1.09,2.39l-24.55,22.81A3.36,3.36,0,0,1,234.48,126.06Zm-1-2.46a1.4,1.4,0,0,0,2,.09L260,100.87a1.39,1.39,0,0,0,.45-1,1.41,1.41,0,0,0-.38-1l-3-3.23a1.43,1.43,0,0,0-2-.07l-19.46,18.09a1,1,0,0,1-1.42-.06l-7.06-7.78a1.44,1.44,0,0,0-2-.09l-3.26,3a1.43,1.43,0,0,0-.1,2Z" fill="#093f68"/><path d="M207,77.35H189.77a1,1,0,0,1,0-2H207a1,1,0,0,1,0,2Z" fill="#dfeaef"/><path d="M200.28,85.24H189.77a1,1,0,0,1,0-2h10.51a1,1,0,0,1,0,2Z" fill="#dfeaef"/><path d="M198.4,112.15h-8.63a1,1,0,0,1,0-2h8.63a1,1,0,0,1,0,2Z" fill="#dfeaef"/><path d="M207,120H189.77a1,1,0,0,1,0-2H207a1,1,0,0,1,0,2Z" fill="#dfeaef"/><path d="M202,149.1H189.77a1,1,0,0,1,0-2H202a1,1,0,0,1,0,2Z" fill="#dfeaef"/></g></svg>