<svg xmlns="http://www.w3.org/2000/svg" viewBox="0 0 400 300"><g id="_341_waiter_outline" data-name="#341_waiter_outline"><path d="M168.61,168.67h0a0,0,0,0,1,0,0v49a0,0,0,0,1,0,0h-14.2a0,0,0,0,1,0,0V182.87A14.2,14.2,0,0,1,168.61,168.67Z" fill="#fff"/><path d="M168.61,218.6h-14.2a.9.9,0,0,1-.9-.9V182.87a15.12,15.12,0,0,1,15.1-15.1.9.9,0,0,1,.9.9v49A.9.9,0,0,1,168.61,218.6Zm-13.3-1.8h12.4V169.6a13.31,13.31,0,0,0-12.4,13.27Z" fill="#093f68"/><path d="M228.45,168.67h0a14.2,14.2,0,0,1,14.2,14.2v61a0,0,0,0,1,0,0h-14.2a0,0,0,0,1,0,0V168.67A0,0,0,0,1,228.45,168.67Z" fill="#fff"/><path d="M242.66,244.74H228.45a.9.9,0,0,1-.9-.89V168.67a.9.9,0,0,1,.9-.9,15.11,15.11,0,0,1,15.1,15.1v61A.89.89,0,0,1,242.66,244.74ZM229.35,243h12.41V182.87a13.32,13.32,0,0,0-12.41-13.27Z" fill="#093f68"/><rect x="168.61" y="168.67" width="59.84" height="75.18" fill="#68e1fd"/><path d="M228.45,244.85H168.61a1,1,0,0,1-1-1V168.67a1,1,0,0,1,1-1h59.84a1,1,0,0,1,1,1v75.18A1,1,0,0,1,228.45,244.85Zm-58.84-2h57.84V169.67H169.61Z" fill="#093f68"/><path d="M171.56,184.28a19.26,19.26,0,0,0-5.72,14.2,25.1,25.1,0,0,0,5.72,15.64" fill="#68e1fd"/><path d="M171.56,215.12a1,1,0,0,1-.74-.33,25.91,25.91,0,0,1-6-16.31c0-9.7,5.83-14.76,6.07-15a1,1,0,0,1,1.3,1.53,18.49,18.49,0,0,0-5.37,13.44,24.3,24.3,0,0,0,5.46,15,1,1,0,0,1-.74,1.68Z" fill="#093f68"/><path d="M225.5,184.28a19.24,19.24,0,0,1,5.73,14.2,25.08,25.08,0,0,1-5.73,15.64" fill="#68e1fd"/><path d="M225.5,215.12a1,1,0,0,1-.74-1.68,24.21,24.21,0,0,0,5.47-15A18.36,18.36,0,0,0,224.86,185a1,1,0,0,1,1.29-1.53c.25.21,6.08,5.27,6.08,15a25.83,25.83,0,0,1-6,16.31A1,1,0,0,1,225.5,215.12Z" fill="#093f68"/><circle cx="226.51" cy="80.36" r="24.2" fill="#725858"/><path d="M226.51,105.56a25.21,25.21,0,1,1,25.2-25.2A25.24,25.24,0,0,1,226.51,105.56Zm0-48.41a23.21,23.21,0,1,0,23.2,23.21A23.23,23.23,0,0,0,226.51,57.15Z" fill="#093f68"/><ellipse cx="198.53" cy="110.11" rx="41.52" ry="45.08" fill="#725858"/><path d="M198.53,156.19c-23.44,0-42.51-20.67-42.51-46.08S175.09,64,198.53,64s42.52,20.67,42.52,46.08S222,156.19,198.53,156.19Zm0-90.16C176.19,66,158,85.8,158,110.11s18.17,44.08,40.51,44.08,40.52-19.78,40.52-44.08S220.87,66,198.53,66Z" fill="#093f68"/><polygon points="174.55 168.67 198.38 213.03 222.51 168.67 174.55 168.67" fill="#fff"/><path d="M198.38,213.93a1,1,0,0,1-.79-.47l-23.83-44.37a.89.89,0,0,1,0-.88.91.91,0,0,1,.77-.44h48a.89.89,0,0,1,.77.44.89.89,0,0,1,0,.89l-24.13,44.36A.9.9,0,0,1,198.38,213.93Zm-22.32-44.36,22.33,41.57L221,169.57Z" fill="#093f68"/><path d="M192.91,162.18h11.85a0,0,0,0,1,0,0V169a5,5,0,0,1-5,5h-1.79a5,5,0,0,1-5-5v-6.82A0,0,0,0,1,192.91,162.18Z" fill="#ffc9b0"/><path d="M199.73,175h-1.79a6,6,0,0,1-6-6v-6.82a1,1,0,0,1,1-1h11.85a1,1,0,0,1,1,1V169A6,6,0,0,1,199.73,175Zm-5.82-11.85V169a4,4,0,0,0,4,4h1.79a4,4,0,0,0,4-4v-5.82Z" fill="#093f68"/><ellipse cx="164.97" cy="131.39" rx="11.51" ry="9.92" fill="#ffc9b0"/><path d="M165,142.32c-6.9,0-12.52-4.9-12.52-10.93s5.62-10.92,12.52-10.92,12.51,4.9,12.51,10.92S171.87,142.32,165,142.32Zm0-19.85c-5.8,0-10.52,4-10.52,8.92s4.72,8.93,10.52,8.93,10.51-4,10.51-8.93S170.77,122.47,165,122.47Z" fill="#093f68"/><ellipse cx="232.1" cy="131.39" rx="11.51" ry="9.92" fill="#ffc9b0"/><path d="M232.1,142.32c-6.9,0-12.52-4.9-12.52-10.93s5.62-10.92,12.52-10.92,12.51,4.9,12.51,10.92S239,142.32,232.1,142.32Zm0-19.85c-5.8,0-10.52,4-10.52,8.92s4.72,8.93,10.52,8.93,10.51-4,10.51-8.93S237.89,122.47,232.1,122.47Z" fill="#093f68"/><path d="M220,102a33.12,33.12,0,0,1-12.3-2.82c-6-2.83-11.21-7.21-16-11.8-3.18,8.73-12,13.86-20.19,18.26-1.75.94-4,1.85-5.58.62-1.69,7.29-1.74,15.3-1.74,22.76a34.73,34.73,0,0,0,69.46,0V102C229.05,102,224.46,102.26,220,102Z" fill="#ffc9b0"/><path d="M198.84,164.73A35.76,35.76,0,0,1,163.11,129c0-6.84,0-15.36,1.77-23a1,1,0,0,1,.64-.72,1,1,0,0,1,.95.16c.86.69,2.33.45,4.49-.71,8.69-4.68,16.75-9.56,19.72-17.72a1,1,0,0,1,.71-.63,1,1,0,0,1,.92.25c4.35,4.13,9.62,8.73,15.77,11.61A31.73,31.73,0,0,0,220,101h0c2.92.17,5.93.12,8.85.07,1.57,0,3.14-.07,4.7-.06a1,1,0,0,1,1,1v27A35.77,35.77,0,0,1,198.84,164.73Zm-32.28-57c-1.45,7.09-1.45,14.93-1.45,21.3a33.73,33.73,0,0,0,67.46,0V103q-1.83,0-3.66.06c-3,0-6,.11-9-.07a34,34,0,0,1-12.67-2.91c-5.9-2.77-11-7-15.23-11-3.56,8-11.53,12.8-20.09,17.41C170.41,107.32,168.37,108.21,166.56,107.71Z" fill="#093f68"/><circle cx="182.76" cy="123.95" r="3.22" fill="#093f68"/><circle cx="215.93" cy="123.95" r="3.22" fill="#093f68"/><path d="M198.67,135.76a19.35,19.35,0,0,1-3.13-.26,1,1,0,0,1,.35-2,15.06,15.06,0,0,0,4.77.05c.2-.92-1-4.37-2.71-7.6a1,1,0,0,1,1.78-.93c1.12,2.16,3.64,7.4,2.72,9.45a1.71,1.71,0,0,1-1.16,1A11.43,11.43,0,0,1,198.67,135.76Z" fill="#093f68"/><path d="M189.33,114.53h0l-15.33,0a1.59,1.59,0,1,1,0-3.18h0l15.34,0a1.59,1.59,0,0,1,0,3.18Z" fill="#093f68"/><path d="M211.19,114.91a1.59,1.59,0,0,1-.08-3.18l15.31-.78a1.59,1.59,0,1,1,.17,3.17l-15.32.79Z" fill="#093f68"/><path d="M198.18,148.37a26.7,26.7,0,0,1-12.73-3.47,1,1,0,1,1,1.06-1.69c.5.31,12.41,7.54,22.83-.72a1,1,0,1,1,1.24,1.57A19.53,19.53,0,0,1,198.18,148.37Z" fill="#093f68"/><rect x="194.53" y="167.41" width="8.25" height="8.25" rx="2.77" fill="#093f68"/><path d="M200,176.56H197.3a3.68,3.68,0,0,1-3.67-3.67v-2.71a3.67,3.67,0,0,1,3.67-3.67H200a3.66,3.66,0,0,1,3.66,3.67v2.71A3.67,3.67,0,0,1,200,176.56Zm-2.72-8.25a1.87,1.87,0,0,0-1.87,1.87v2.71a1.87,1.87,0,0,0,1.87,1.87H200a1.87,1.87,0,0,0,1.86-1.87v-2.71a1.87,1.87,0,0,0-1.86-1.87Z" fill="#093f68"/><polygon points="194.53 173.96 184.28 177.97 184.28 165.21 194.53 169.22 194.53 173.96" fill="#093f68"/><path d="M184.29,178.87a.86.86,0,0,1-.51-.16.87.87,0,0,1-.39-.74V165.21a.89.89,0,0,1,1.22-.84l10.25,4a.89.89,0,0,1,.57.83V174a.89.89,0,0,1-.57.83l-10.25,4A.87.87,0,0,1,184.29,178.87Zm.89-12.35v10.13l8.45-3.31v-3.51Zm9.35,7.44h0Z" fill="#093f68"/><polygon points="202.53 173.96 212.78 177.97 212.78 165.21 202.53 169.22 202.53 173.96" fill="#093f68"/><path d="M212.78,178.87a1,1,0,0,1-.33-.06l-10.24-4a.88.88,0,0,1-.58-.83v-4.74a.88.88,0,0,1,.58-.83l10.24-4a.89.89,0,0,1,1.23.84V178a.89.89,0,0,1-.39.74A.86.86,0,0,1,212.78,178.87Zm-9.35-5.53,8.45,3.31V166.52l-8.45,3.31Z" fill="#093f68"/><path d="M198.53,212a.9.9,0,0,1-.9-.9V175.66a.9.9,0,0,1,1.8,0v35.39A.9.9,0,0,1,198.53,212Z" fill="#093f68"/><rect x="120.19" y="222.69" width="81.47" height="4.67" rx="2.33" fill="#ffbc0e"/><path d="M199.33,228.26H122.52a3.24,3.24,0,0,1,0-6.47h76.81a3.24,3.24,0,0,1,0,6.47Zm-76.81-4.67a1.44,1.44,0,0,0,0,2.87h76.81a1.44,1.44,0,0,0,0-2.87Z" fill="#093f68"/><circle cx="160.93" cy="185.4" r="4.15" fill="#ffbc0e"/><path d="M160.93,190.44a5,5,0,1,1,5-5A5,5,0,0,1,160.93,190.44Zm0-8.29a3.25,3.25,0,1,0,3.24,3.25A3.25,3.25,0,0,0,160.93,182.15Z" fill="#093f68"/><path d="M125.52,222.69a35.41,35.41,0,0,1,70.81,0Z" fill="#ffbc0e"/><path d="M196.33,223.59H125.52a.9.9,0,0,1-.9-.9,36.31,36.31,0,0,1,72.61,0A.9.9,0,0,1,196.33,223.59Zm-69.9-1.8h69a34.51,34.51,0,0,0-69,0Z" fill="#093f68"/><path d="M154.41,232.83s-5.39-.57-6.92-1.87a5.08,5.08,0,0,1-1.62-3.33h6.48Z" fill="#ffc9b0"/><path d="M154.41,233.83h-.11c-1-.1-5.78-.68-7.46-2.11a6.1,6.1,0,0,1-2-4.05,1,1,0,0,1,.28-.73,1,1,0,0,1,.72-.31h6.48a1,1,0,0,1,.93.63l2.06,5.2a1,1,0,0,1-.93,1.37Zm-7.31-5.2a3.62,3.62,0,0,0,1,1.57c.67.58,2.8,1.1,4.71,1.41l-1.18-3Z" fill="#093f68"/><path d="M151.23,227.63H170.9a0,0,0,0,1,0,0v1.21a6.61,6.61,0,0,1-6.61,6.61h-6.46a6.61,6.61,0,0,1-6.61-6.61v-1.21A0,0,0,0,1,151.23,227.63Z" fill="#ffc9b0"/><path d="M164.29,236.45h-6.46a7.61,7.61,0,0,1-7.6-7.6v-1.22a1,1,0,0,1,1-1H170.9a1,1,0,0,1,1,1v1.22A7.61,7.61,0,0,1,164.29,236.45Zm-12.06-7.82v.22a5.6,5.6,0,0,0,5.6,5.6h6.46a5.61,5.61,0,0,0,5.61-5.6v-.22Z" fill="#093f68"/><circle cx="202.22" cy="181.89" r="1.42" fill="#093f68"/><circle cx="202.22" cy="193.49" r="1.42" fill="#093f68"/></g></svg>