<svg xmlns="http://www.w3.org/2000/svg" viewBox="0 0 400 300"><g id="_407_washington_dc_outline" data-name="#407_washington_dc_outline"><path d="M293.85,150a94,94,0,0,1-49.7,82.83c-2.42,1.3-4.91,2.49-7.45,3.57a92.56,92.56,0,0,1-8.72,3.21c-2.44.76-4.93,1.42-7.45,2-2.86.65-5.77,1.15-8.72,1.53-2.45.3-4.94.52-7.45.63-1.44.07-2.9.1-4.36.1s-2.92,0-4.36-.1c-2.51-.11-5-.33-7.45-.63-2.95-.38-5.86-.88-8.72-1.53-2.52-.56-5-1.22-7.45-2a92.56,92.56,0,0,1-8.72-3.21c-2.54-1.08-5-2.27-7.45-3.57a93.86,93.86,0,1,1,138-82.83Z" fill="#fff"/><path d="M200,244.85c-1.56,0-3,0-4.41-.1-2.4-.11-4.94-.32-7.52-.64-3.08-.39-6-.91-8.82-1.54-2.55-.57-5.09-1.24-7.53-2-3-1-6-2-8.81-3.25-2.59-1.1-5.12-2.31-7.53-3.61A94.19,94.19,0,0,1,141,224.28a93.19,93.19,0,0,1-7.94-7.05,94.85,94.85,0,1,1,133.82,0,93.19,93.19,0,0,1-7.94,7.05,94.19,94.19,0,0,1-14.35,9.43c-2.41,1.3-4.94,2.51-7.53,3.61a92.56,92.56,0,0,1-8.81,3.24c-2.44.77-5,1.44-7.53,2-2.77.63-5.74,1.15-8.81,1.54-2.59.32-5.13.53-7.54.64C203,244.82,201.56,244.85,200,244.85Zm0-187.7a92.84,92.84,0,0,0-65.49,158.66,90.92,90.92,0,0,0,7.76,6.91,93.5,93.5,0,0,0,14,9.23c2.36,1.27,4.84,2.46,7.37,3.53,2.75,1.17,5.65,2.24,8.63,3.18,2.39.74,4.87,1.4,7.37,2,2.71.62,5.61,1.13,8.63,1.52,2.52.31,5,.52,7.36.62,2.69.13,6,.13,8.63,0,2.36-.1,4.85-.31,7.38-.62,3-.39,5.91-.9,8.62-1.52,2.5-.55,5-1.21,7.37-2,3-.94,5.88-2,8.63-3.18,2.53-1.07,5-2.26,7.37-3.53a93.5,93.5,0,0,0,14.05-9.23,90.92,90.92,0,0,0,7.76-6.91A92.84,92.84,0,0,0,200,57.15Z" fill="#093f68"/><path d="M266.2,216.52a94.59,94.59,0,0,1-22,16.31c-2.42,1.3-4.91,2.49-7.45,3.57a92.56,92.56,0,0,1-8.72,3.21c-2.44.76-4.93,1.42-7.45,2-2.86.65-5.77,1.15-8.72,1.53-2.45.3-4.94.52-7.45.63-1.44.07-2.9.1-4.36.1s-2.92,0-4.36-.1c-2.51-.11-5-.33-7.45-.63-2.95-.38-5.86-.88-8.72-1.53-2.52-.56-5-1.22-7.45-2a92.56,92.56,0,0,1-8.72-3.21c-2.54-1.08-5-2.27-7.45-3.57a94.59,94.59,0,0,1-22-16.31Z" fill="#68e1fd"/><path d="M200,244.85c-1.56,0-3,0-4.41-.1-2.4-.11-4.94-.32-7.52-.64-3.08-.39-6-.91-8.82-1.54-2.55-.57-5.09-1.24-7.53-2-3-1-6-2-8.81-3.25-2.59-1.1-5.12-2.31-7.53-3.61A94.19,94.19,0,0,1,141,224.28a93.19,93.19,0,0,1-7.94-7.05,1,1,0,0,1-.21-1.09,1,1,0,0,1,.92-.62H266.2a1,1,0,0,1,.92.62,1,1,0,0,1-.21,1.09,93.19,93.19,0,0,1-7.94,7.05,94.19,94.19,0,0,1-14.35,9.43c-2.41,1.3-4.94,2.51-7.53,3.61a92.56,92.56,0,0,1-8.81,3.24c-2.44.77-5,1.44-7.53,2-2.77.63-5.74,1.15-8.81,1.54-2.59.32-5.13.53-7.54.64C203,244.82,201.56,244.85,200,244.85Zm-63.73-27.33c1.92,1.82,3.93,3.56,6,5.2a93.5,93.5,0,0,0,14,9.23c2.36,1.27,4.84,2.46,7.37,3.53,2.75,1.17,5.65,2.24,8.63,3.18,2.39.74,4.87,1.4,7.37,2,2.71.62,5.61,1.13,8.63,1.52,2.52.31,5,.52,7.36.62,2.69.13,6,.13,8.63,0,2.36-.1,4.85-.31,7.38-.62,3-.39,5.91-.9,8.62-1.52,2.5-.55,5-1.21,7.37-2,3-.94,5.88-2,8.63-3.18,2.53-1.07,5-2.26,7.37-3.53a93.5,93.5,0,0,0,14.05-9.23c2.06-1.64,4.08-3.38,6-5.2Z" fill="#093f68"/><rect x="155.34" y="165.82" width="89.32" height="15.71" fill="#68e1fd"/><path d="M244.66,182.53H155.34a1,1,0,0,1-1-1V165.82a1,1,0,0,1,1-1h89.32a1,1,0,0,1,1,1v15.71A1,1,0,0,1,244.66,182.53Zm-88.32-2h87.32V166.82H156.34Z" fill="#093f68"/><rect x="149.33" y="192.47" width="101.33" height="20.96" fill="#68e1fd"/><path d="M250.67,214.42H149.33a1,1,0,0,1-1-1V192.47a1,1,0,0,1,1-1H250.67a1,1,0,0,1,1,1v20.95A1,1,0,0,1,250.67,214.42Zm-100.34-2h99.34V193.47H150.33Z" fill="#093f68"/><path d="M158.15,155.13c0-23.11,18.74-37.68,41.85-37.68s41.85,14.57,41.85,37.68Z" fill="#68e1fd"/><path d="M241.85,156.13h-83.7a1,1,0,0,1-1-1c0-22.41,18-38.68,42.85-38.68s42.85,16.27,42.85,38.68A1,1,0,0,1,241.85,156.13Zm-82.68-2h81.66c-.53-20.73-17.53-35.68-40.83-35.68S159.7,133.4,159.17,154.13Z" fill="#093f68"/><rect x="155.34" y="155.13" width="89.32" height="5.34" fill="#68e1fd"/><path d="M244.66,161.48H155.34a1,1,0,0,1-1-1v-5.35a1,1,0,0,1,1-1h89.32a1,1,0,0,1,1,1v5.35A1,1,0,0,1,244.66,161.48Zm-88.32-2h87.32v-3.35H156.34Z" fill="#093f68"/><rect x="151.24" y="160.48" width="97.52" height="5.34" rx="2.67" fill="#68e1fd"/><path d="M246.09,166.82H153.91a3.67,3.67,0,1,1,0-7.34h92.18a3.67,3.67,0,0,1,0,7.34Zm-92.18-5.34a1.67,1.67,0,0,0,0,3.34h92.18a1.67,1.67,0,0,0,0-3.34Z" fill="#093f68"/><rect x="149.33" y="181.53" width="101.33" height="5.34" fill="#68e1fd"/><path d="M250.67,187.87H149.33a1,1,0,0,1-1-1v-5.34a1,1,0,0,1,1-1H250.67a1,1,0,0,1,1,1v5.34A1,1,0,0,1,250.67,187.87Zm-100.34-2h99.34v-3.34H150.33Z" fill="#093f68"/><rect x="144.68" y="186.87" width="110.63" height="5.34" rx="2.67" fill="#68e1fd"/><path d="M252.65,193.21H147.35a3.67,3.67,0,1,1,0-7.34h105.3a3.67,3.67,0,0,1,0,7.34Zm-105.3-5.34a1.67,1.67,0,1,0,0,3.34h105.3a1.67,1.67,0,0,0,0-3.34Z" fill="#093f68"/><path d="M232,156.13H168a1,1,0,0,1-1-1c0-22.41,13.88-38.68,33-38.68s33,16.27,33,38.68A1,1,0,0,1,232,156.13Zm-63-2h62c-.4-20.73-13.31-35.68-31-35.68S169.41,133.4,169,154.13Z" fill="#093f68"/><path d="M221.68,156.13H178.32a1,1,0,0,1-1-1c0-22.77,9.32-38.68,22.68-38.68s22.68,15.91,22.68,38.68A1,1,0,0,1,221.68,156.13Zm-42.36-2h41.36c-.27-20.73-8.88-35.68-20.68-35.68S179.59,133.4,179.32,154.13Z" fill="#093f68"/><path d="M210.8,156.13H189.2a1,1,0,0,1-1-1c0-23.13,4.74-38.68,11.8-38.68s11.8,15.55,11.8,38.68A1,1,0,0,1,210.8,156.13Zm-20.6-2h19.6c-.14-23.18-5.12-35.68-9.8-35.68S190.34,131,190.2,154.13Z" fill="#093f68"/><path d="M200,156.13a1,1,0,0,1-1-1V117.45a1,1,0,1,1,2,0v37.68A1,1,0,0,1,200,156.13Z" fill="#093f68"/><path d="M165.13,178.23a1,1,0,0,1-1-1v-6.07a1,1,0,1,1,2,0v6.07A1,1,0,0,1,165.13,178.23Z" fill="#093f68"/><path d="M173.85,178.23a1,1,0,0,1-1-1v-6.07a1,1,0,0,1,2,0v6.07A1,1,0,0,1,173.85,178.23Z" fill="#093f68"/><path d="M182.56,178.23a1,1,0,0,1-1-1v-6.07a1,1,0,0,1,2,0v6.07A1,1,0,0,1,182.56,178.23Z" fill="#093f68"/><path d="M191.28,178.23a1,1,0,0,1-1-1v-6.07a1,1,0,0,1,2,0v6.07A1,1,0,0,1,191.28,178.23Z" fill="#093f68"/><path d="M200,178.23a1,1,0,0,1-1-1v-6.07a1,1,0,1,1,2,0v6.07A1,1,0,0,1,200,178.23Z" fill="#093f68"/><path d="M208.72,178.23a1,1,0,0,1-1-1v-6.07a1,1,0,0,1,2,0v6.07A1,1,0,0,1,208.72,178.23Z" fill="#093f68"/><path d="M217.44,178.23a1,1,0,0,1-1-1v-6.07a1,1,0,0,1,2,0v6.07A1,1,0,0,1,217.44,178.23Z" fill="#093f68"/><path d="M226.15,178.23a1,1,0,0,1-1-1v-6.07a1,1,0,0,1,2,0v6.07A1,1,0,0,1,226.15,178.23Z" fill="#093f68"/><path d="M234.87,178.23a1,1,0,0,1-1-1v-6.07a1,1,0,1,1,2,0v6.07A1,1,0,0,1,234.87,178.23Z" fill="#093f68"/><path d="M159.57,214.42a1,1,0,0,1-1-1V192.21a1,1,0,1,1,2,0v21.21A1,1,0,0,1,159.57,214.42Z" fill="#093f68"/><path d="M168.56,214.42a1,1,0,0,1-1-1V192.21a1,1,0,1,1,2,0v21.21A1,1,0,0,1,168.56,214.42Z" fill="#093f68"/><path d="M177.54,214.42a1,1,0,0,1-1-1V192.21a1,1,0,0,1,2,0v21.21A1,1,0,0,1,177.54,214.42Z" fill="#093f68"/><path d="M186.52,214.42a1,1,0,0,1-1-1V192.21a1,1,0,0,1,2,0v21.21A1,1,0,0,1,186.52,214.42Z" fill="#093f68"/><path d="M195.51,214.42a1,1,0,0,1-1-1V192.21a1,1,0,0,1,2,0v21.21A1,1,0,0,1,195.51,214.42Z" fill="#093f68"/><path d="M204.49,214.42a1,1,0,0,1-1-1V192.21a1,1,0,0,1,2,0v21.21A1,1,0,0,1,204.49,214.42Z" fill="#093f68"/><path d="M213.48,214.42a1,1,0,0,1-1-1V192.21a1,1,0,0,1,2,0v21.21A1,1,0,0,1,213.48,214.42Z" fill="#093f68"/><path d="M222.46,214.42a1,1,0,0,1-1-1V192.21a1,1,0,0,1,2,0v21.21A1,1,0,0,1,222.46,214.42Z" fill="#093f68"/><path d="M231.44,214.42a1,1,0,0,1-1-1V192.21a1,1,0,1,1,2,0v21.21A1,1,0,0,1,231.44,214.42Z" fill="#093f68"/><path d="M240.43,214.42a1,1,0,0,1-1-1V192.21a1,1,0,1,1,2,0v21.21A1,1,0,0,1,240.43,214.42Z" fill="#093f68"/><rect x="144.68" y="213.42" width="110.63" height="6.18" fill="#68e1fd"/><path d="M255.32,220.61H144.68a1,1,0,0,1-1-1v-6.19a1,1,0,0,1,1-1H255.32a1,1,0,0,1,1,1v6.19A1,1,0,0,1,255.32,220.61Zm-109.64-2H254.32v-4.19H145.68Z" fill="#093f68"/><path d="M266.2,216.52a92.93,92.93,0,0,1-7.85,7h-3v-7Z" fill="#68e1fd"/><path d="M258.35,224.5h-3a1,1,0,0,1-1-1v-7a1,1,0,0,1,1-1H266.2a1,1,0,0,1,.92.62,1,1,0,0,1-.21,1.09,93.19,93.19,0,0,1-7.94,7.05A1,1,0,0,1,258.35,224.5Zm-2-2H258c2-1.57,3.89-3.24,5.73-5h-7.41Z" fill="#093f68"/><path d="M144.68,216.52v7h-3a92.93,92.93,0,0,1-7.85-7Z" fill="#68e1fd"/><path d="M144.68,224.5h-3a1,1,0,0,1-.62-.22,93.19,93.19,0,0,1-7.94-7.05,1,1,0,0,1-.21-1.09,1,1,0,0,1,.92-.62h10.88a1,1,0,0,1,1,1v7A1,1,0,0,1,144.68,224.5Zm-2.68-2h1.68v-5h-7.41C138.11,219.26,140,220.93,142,222.5Z" fill="#093f68"/><rect x="189.2" y="113.44" width="21.6" height="5.43" fill="#68e1fd"/><path d="M210.8,119.86H189.2a1,1,0,0,1-1-1v-5.42a1,1,0,0,1,1-1h21.6a1,1,0,0,1,1,1v5.42A1,1,0,0,1,210.8,119.86Zm-20.6-2h19.6v-3.42H190.2Z" fill="#093f68"/><rect x="190.17" y="93.82" width="19.65" height="3.59" rx="1.79" fill="#68e1fd"/><path d="M208,98.4H192a2.79,2.79,0,1,1,0-5.58H208a2.79,2.79,0,1,1,0,5.58ZM192,94.82a.79.79,0,1,0,0,1.58H208a.79.79,0,1,0,0-1.58Z" fill="#093f68"/><rect x="192.43" y="97.4" width="15.14" height="16.03" fill="#68e1fd"/><path d="M207.57,114.44H192.43a1,1,0,0,1-1-1v-16a1,1,0,0,1,1-1h15.14a1,1,0,0,1,1,1v16A1,1,0,0,1,207.57,114.44Zm-14.14-2h13.14v-14H193.43Z" fill="#093f68"/><path d="M163.3,219.61V236.4c-2.54-1.08-5-2.27-7.45-3.57V219.61Z" fill="#68e1fd"/><path d="M163.3,237.4a1,1,0,0,1-.39-.08c-2.59-1.1-5.12-2.31-7.53-3.61a1,1,0,0,1-.53-.88V219.61a1,1,0,0,1,1-1h7.45a1,1,0,0,1,1,1V236.4a1,1,0,0,1-1,1Zm-6.45-5.17c1.76.93,3.59,1.82,5.45,2.65V220.61h-5.45Z" fill="#093f68"/><path d="M179.47,219.61v22c-2.52-.56-5-1.22-7.45-2v-20Z" fill="#68e1fd"/><path d="M179.47,242.59l-.22,0c-2.55-.57-5.09-1.24-7.53-2a1,1,0,0,1-.7-1v-20a1,1,0,0,1,1-1h7.45a1,1,0,0,1,1,1v22a1,1,0,0,1-1,1ZM173,238.87c1.78.54,3.61,1,5.45,1.46V220.61H173Z" fill="#093f68"/><path d="M195.64,219.61v24.14c-2.51-.11-5-.33-7.45-.63V219.61Z" fill="#68e1fd"/><path d="M195.64,244.75h0c-2.41-.11-4.95-.32-7.53-.64a1,1,0,0,1-.88-1V219.61a1,1,0,0,1,1-1h7.45a1,1,0,0,1,1,1v24.14a1,1,0,0,1-.31.72A1,1,0,0,1,195.64,244.75Zm-6.45-2.52c1.86.21,3.69.37,5.45.47V220.61h-5.45Z" fill="#093f68"/><path d="M211.81,219.61v23.51c-2.45.3-4.94.52-7.45.63V219.61Z" fill="#68e1fd"/><path d="M204.36,244.75a1,1,0,0,1-.69-.28,1,1,0,0,1-.31-.72V219.61a1,1,0,0,1,1-1h7.45a1,1,0,0,1,1,1v23.51a1,1,0,0,1-.88,1c-2.58.32-5.12.53-7.53.64Zm1-24.14V242.7c1.76-.1,3.59-.26,5.45-.47V220.61Z" fill="#093f68"/><path d="M228,219.61v20c-2.44.76-4.93,1.42-7.45,2v-22Z" fill="#68e1fd"/><path d="M220.53,242.59a1,1,0,0,1-1-1v-22a1,1,0,0,1,1-1H228a1,1,0,0,1,1,1v20a1,1,0,0,1-.7,1c-2.44.76-5,1.43-7.53,2Zm1-22v19.72c1.84-.43,3.67-.92,5.45-1.46V220.61Z" fill="#093f68"/><path d="M244.15,219.61v13.22c-2.42,1.3-4.91,2.49-7.45,3.57V219.61Z" fill="#68e1fd"/><path d="M236.7,237.4a1,1,0,0,1-1-1V219.61a1,1,0,0,1,1-1h7.45a1,1,0,0,1,1,1v13.22a1,1,0,0,1-.53.88c-2.41,1.3-4.94,2.51-7.53,3.61A1,1,0,0,1,236.7,237.4Zm1-16.79v14.27c1.86-.83,3.69-1.72,5.45-2.65V220.61Z" fill="#093f68"/><rect x="155.34" y="155.13" width="89.32" height="5.34" fill="#68e1fd"/><path d="M244.66,161.48H155.34a1,1,0,0,1-1-1v-5.35a1,1,0,0,1,1-1h89.32a1,1,0,0,1,1,1v5.35A1,1,0,0,1,244.66,161.48Zm-88.32-2h87.32v-3.35H156.34Z" fill="#093f68"/><path d="M196.31,112a1,1,0,0,1-1-1V99.87a1,1,0,0,1,2,0V111A1,1,0,0,1,196.31,112Z" fill="#093f68"/><path d="M200,112a1,1,0,0,1-1-1V99.87a1,1,0,0,1,2,0V111A1,1,0,0,1,200,112Z" fill="#093f68"/><path d="M203.69,112a1,1,0,0,1-1-1V99.87a1,1,0,0,1,2,0V111A1,1,0,0,1,203.69,112Z" fill="#093f68"/><polygon points="196.31 86.25 202.99 86.25 203.96 93.14 195.34 93.14 196.31 86.25" fill="#093f68"/><path d="M204,94.14h-8.62a1,1,0,0,1-.76-.35,1,1,0,0,1-.23-.79l1-6.89a1,1,0,0,1,1-.86H203a1,1,0,0,1,1,.86L205,93a1,1,0,0,1-.24.79A1,1,0,0,1,204,94.14Zm-7.47-2h6.32l-.69-4.89h-4.94Z" fill="#093f68"/><ellipse cx="199.65" cy="80.32" rx="2.69" ry="6.95" fill="#093f68"/><path d="M199.65,88.27c-2.43,0-3.7-4-3.7-8s1.27-7.95,3.7-7.95,3.69,4,3.69,7.95S202.07,88.27,199.65,88.27Zm0-13.9c-.44,0-1.7,2-1.7,5.95s1.26,6,1.7,6,1.69-2,1.69-6S200.08,74.37,199.65,74.37Z" fill="#093f68"/><path d="M199.65,75.2s.33-5.51,0-5.18" fill="#093f68"/><path d="M199.65,76.2h-.06a1,1,0,0,1-.94-1.06c.11-1.77.18-3.9.13-4.62a1,1,0,0,1,.16-1.2,1.06,1.06,0,0,1,1.16-.22c.67.3.89.4.55,6.16A1,1,0,0,1,199.65,76.2Z" fill="#093f68"/><path d="M278.62,135.52H249.44c-3.47,0-6.29-2.29-6.29-5.11,0-2.15,1.67-4.06,4.13-4.79a7.33,7.33,0,0,1,6-3.69c.72-2.71,3.71-4.72,7.24-4.72a7.79,7.79,0,0,1,6.62,3.29,11.16,11.16,0,0,1,4.8-1c4.66,0,8.62,2.74,9.37,6.35a5.15,5.15,0,0,1,3.56,4.6C284.91,133.23,282.09,135.52,278.62,135.52Zm-18.06-16.31c-2.87,0-5.24,1.65-5.4,3.76a1,1,0,0,1-1,.93c-2.44,0-4.59,1.2-5.24,2.92a1,1,0,0,1-.72.62c-1.8.4-3.06,1.62-3.06,3,0,1.71,1.92,3.11,4.29,3.11h29.18c2.37,0,4.29-1.4,4.29-3.11,0-1.26-1.1-2.41-2.74-2.88a1,1,0,0,1-.72-.87c-.27-2.92-3.55-5.2-7.47-5.2a9,9,0,0,0-4.72,1.26,1,1,0,0,1-1.46-.52C265.18,120.44,263,119.21,260.56,119.21ZM248,126.47h0Z" fill="#dfeaef"/><path d="M268.9,127.36a1,1,0,0,1-1-.83,4.58,4.58,0,0,0-1.85-2.82,4.67,4.67,0,0,0-3.91-.14,1,1,0,1,1-.6-1.91,5.94,5.94,0,0,1,8.33,4.54,1,1,0,0,1-.82,1.15Z" fill="#dfeaef"/><path d="M140.79,172.09H121.93c-2.43,0-4.41-1.64-4.41-3.65a3.71,3.71,0,0,1,2.77-3.39,5.08,5.08,0,0,1,3.88-2.42,5.11,5.11,0,0,1,5-3.08,5.44,5.44,0,0,1,4.41,2,7.71,7.71,0,0,1,3-.58c3.15,0,5.75,1.77,6.35,4.21a3.62,3.62,0,0,1,2.35,3.23C145.2,170.45,143.22,172.09,140.79,172.09Zm-11.67-10.54c-1.64,0-3.05.95-3.14,2.11a1,1,0,0,1-1,.92,3.19,3.19,0,0,0-3.06,1.66,1,1,0,0,1-.72.63c-1,.22-1.69.86-1.69,1.57,0,.89,1.1,1.65,2.41,1.65h18.86c1.31,0,2.41-.76,2.41-1.65,0-.66-.6-1.27-1.51-1.53A1,1,0,0,1,141,166c-.16-1.7-2.12-3-4.47-3a5.5,5.5,0,0,0-2.87.77,1,1,0,0,1-.85.09,1,1,0,0,1-.61-.61A3.19,3.19,0,0,0,129.12,161.55ZM121,165.89h0Z" fill="#dfeaef"/><path d="M134.51,166.82a1,1,0,0,1-1-.83,2.59,2.59,0,0,0-1-1.59,2.78,2.78,0,0,0-2.24-.05,1,1,0,0,1-1.25-.65,1,1,0,0,1,.66-1.26,4.57,4.57,0,0,1,3.89.27,4.49,4.49,0,0,1,1.94,2.94,1,1,0,0,1-.82,1.16Z" fill="#dfeaef"/><path d="M160.35,123.24h-31.5c-3.69,0-6.7-2.44-6.7-5.43A5.47,5.47,0,0,1,126,112.9c.78-3.89,5-6.84,10-6.84a12.08,12.08,0,0,1,5.21,1.14,8.34,8.34,0,0,1,7.12-3.57c3.8,0,7,2.18,7.75,5.1a7.83,7.83,0,0,1,6.53,4c2.63.77,4.43,2.81,4.43,5.11C167.06,120.8,164.05,123.24,160.35,123.24ZM136,108.06c-4.26,0-7.84,2.5-8.14,5.69a1,1,0,0,1-.72.87c-1.8.51-3,1.79-3,3.19,0,1.89,2.11,3.43,4.7,3.43h31.5c2.6,0,4.71-1.54,4.71-3.43,0-1.5-1.38-2.85-3.36-3.28a1,1,0,0,1-.72-.63c-.72-1.89-3.07-3.21-5.71-3.21a1,1,0,0,1-1-.92c-.17-2.32-2.77-4.14-5.9-4.14-2.69,0-5,1.35-5.73,3.29a1,1,0,0,1-1.47.51A9.91,9.91,0,0,0,136,108.06Z" fill="#dfeaef"/><path d="M137.13,113.89a1,1,0,0,1-.65-.25,1,1,0,0,1-.11-1.41c5.42-6.31,11.26-2,11.32-1.94a1,1,0,1,1-1.21,1.59h0c-.18-.13-4.42-3.2-8.59,1.66A1,1,0,0,1,137.13,113.89Z" fill="#dfeaef"/></g></svg>