<svg xmlns="http://www.w3.org/2000/svg" viewBox="0 0 400 300"><g id="_445_wearing_a_mask_outline" data-name="#445_wearing_a_mask_outline"><path d="M182.07,74.45s-10.1-3.16-19.68,7.89c-9,10.34-8.48,25.18-8.93,37.5C153,133,150.25,144,145.83,156.26c-4,11.25,1.81,23.48,11.83,30.27,8.09,5.48,17.82,7.61,27.31,8.3,8.09.58,15.91-1.37,23.84-.56,16.32,1.66,32.92-4.12,42.53-18.75a22.67,22.67,0,0,0,4.06-10.34c.31-3.62-.67-7.2-1.54-10.72a165.43,165.43,0,0,1-5.08-38.18c-.06-10.37-2.3-20.85-7.71-29.75C228.87,66.45,196.2,57.24,182.07,74.45Z" fill="#725858"/><path d="M188.19,195.94c-1.09,0-2.19,0-3.29-.12-11.51-.82-20.6-3.59-27.8-8.47C146,179.82,141,166.9,144.89,155.92c4.94-13.79,7.14-24.25,7.57-36.11,0-1.17.08-2.35.11-3.56.34-11.69.72-24.93,9.07-34.56,8.59-9.92,17.57-8.89,20.07-8.36,5.54-6.41,14.06-9.54,24.08-8.82,14.42,1,28.94,9.66,36.13,21.5,5.08,8.36,7.8,18.82,7.86,30.26a163.39,163.39,0,0,0,5.05,38l.19.76c.83,3.33,1.68,6.77,1.38,10.29s-1.67,6.92-4.22,10.8c-9.11,13.86-25.36,21-43.47,19.19a67,67,0,0,0-12.16.24C193.82,195.71,191,195.94,188.19,195.94ZM178.52,75c-3.56,0-9.52,1.22-15.37,8-7.88,9.1-8.25,22-8.58,33.32,0,1.21-.07,2.4-.11,3.57-.44,12.08-2.67,22.72-7.69,36.71-3.63,10.12,1.08,22.09,11.45,29.11,6.9,4.67,15.68,7.33,26.82,8.13a75.15,75.15,0,0,0,11.35-.33,69.71,69.71,0,0,1,12.53-.23c17.35,1.77,32.9-5.07,41.59-18.3a21.53,21.53,0,0,0,3.89-9.87c.28-3.2-.53-6.47-1.32-9.64l-.19-.76a165.26,165.26,0,0,1-5.11-38.41c-.06-11.09-2.68-21.2-7.57-29.24-6.87-11.31-20.76-19.57-34.56-20.55-9.6-.68-17.7,2.37-22.81,8.58a1,1,0,0,1-1.07.32h0A12,12,0,0,0,178.52,75Z" fill="#093f68"/><path d="M239.9,234.59V200.93a27.22,27.22,0,0,0-27.22-27.21h-26a27.22,27.22,0,0,0-27.22,27.21v33.66Z" fill="#68e1fd"/><path d="M239.9,235.59H159.47a1,1,0,0,1-1-1V200.93a28.24,28.24,0,0,1,28.22-28.21h26a28.24,28.24,0,0,1,28.22,28.21v33.66A1,1,0,0,1,239.9,235.59Zm-79.43-2H238.9V200.93a26.24,26.24,0,0,0-26.22-26.21h-26a26.24,26.24,0,0,0-26.22,26.21Z" fill="#093f68"/><polygon points="200.98 209.24 194.84 177.29 208.17 177.9 200.98 209.24" fill="#fff"/><path d="M201,210.23h0a1,1,0,0,1-1-.81l-6.14-31.94a1,1,0,0,1,1-1.19l13.33.61a1,1,0,0,1,.75.4,1,1,0,0,1,.18.83L202,209.46A1,1,0,0,1,201,210.23Zm-4.91-31.88,5,26,5.86-25.54Z" fill="#093f68"/><path d="M177,234.65a1,1,0,0,1-1-1V203.22a1,1,0,0,1,2,0v30.43A1,1,0,0,1,177,234.65Z" fill="#093f68"/><path d="M222.37,234.65a1,1,0,0,1-1-1V203.22a1,1,0,0,1,2,0v30.43A1,1,0,0,1,222.37,234.65Z" fill="#093f68"/><path d="M194.81,169.79h12.44a0,0,0,0,1,0,0V177a5.28,5.28,0,0,1-5.28,5.28H200.1a5.28,5.28,0,0,1-5.28-5.28v-7.16A0,0,0,0,1,194.81,169.79Z" fill="#ffc9b0"/><path d="M202,183.24H200.1a6.29,6.29,0,0,1-6.29-6.29v-7.16a1,1,0,0,1,1-1h12.45a1,1,0,0,1,1,1V177A6.29,6.29,0,0,1,202,183.24Zm-6.16-12.45V177a4.29,4.29,0,0,0,4.29,4.29H202a4.3,4.3,0,0,0,4.29-4.29v-6.16Z" fill="#093f68"/><ellipse cx="165.47" cy="137.47" rx="12.09" ry="10.42" fill="#ffc9b0"/><path d="M165.47,148.89c-7.22,0-13.09-5.13-13.09-11.42s5.87-11.42,13.09-11.42,13.09,5.12,13.09,11.42S172.69,148.89,165.47,148.89Zm0-20.84c-6.11,0-11.09,4.22-11.09,9.42s5,9.42,11.09,9.42,11.09-4.23,11.09-9.42S171.59,128.05,165.47,128.05Z" fill="#093f68"/><ellipse cx="235.96" cy="137.47" rx="12.09" ry="10.42" fill="#ffc9b0"/><path d="M236,148.89c-7.22,0-13.09-5.13-13.09-11.42s5.87-11.42,13.09-11.42,13.09,5.12,13.09,11.42S243.18,148.89,236,148.89Zm0-20.84c-6.12,0-11.09,4.22-11.09,9.42s5,9.42,11.09,9.42,11.09-4.23,11.09-9.42S242.07,128.05,236,128.05Z" fill="#093f68"/><path d="M223.21,106.56,211.41,91.4s-2.65,9.33-4.28,15.12l-18.6-.06-4.38-13.54L179,106.43l-14.42,0V135A36.46,36.46,0,0,0,201,171.42h0A36.46,36.46,0,0,0,237.5,135V106.61Z" fill="#ffc9b0"/><path d="M201,172.42A37.51,37.51,0,0,1,163.57,135V106.39a1,1,0,0,1,1-1h0l13.74,0,4.91-12.87a1,1,0,0,1,1-.64,1,1,0,0,1,.92.69l4.16,12.85,17.12.06c1.63-5.81,4.07-14.4,4.07-14.4a1,1,0,0,1,1.75-.34l11.5,14.79,13.8,0a1,1,0,0,1,1,1V135A37.5,37.5,0,0,1,201,172.42Zm-35.47-65V135a35.47,35.47,0,0,0,70.93,0V107.6l-13.29,0a1,1,0,0,1-.79-.38L211.84,93.57c-.86,3-2.57,9.05-3.75,13.22a1,1,0,0,1-1,.73h0l-18.6-.06a1,1,0,0,1-.95-.69l-3.5-10.84-4.15,10.86a1,1,0,0,1-.94.65h0Z" fill="#093f68"/><path d="M200.64,142.66a4.57,4.57,0,0,1-1.43-.22,5,5,0,0,1-2.94-2.95c-2-4.61,3.29-12.26,3.89-13.11a1,1,0,0,1,1.4-.24,1,1,0,0,1,.23,1.39c-1.47,2.08-5,8.13-3.68,11.16a3.08,3.08,0,0,0,1.72,1.85,3.71,3.71,0,0,0,2.64-.35,1,1,0,0,1,1,1.74A6.23,6.23,0,0,1,200.64,142.66Z" fill="#093f68"/><path d="M226.51,136.73v25.51a40.09,40.09,0,0,1-51.94,0V136.73A76.83,76.83,0,0,1,226.51,136.73Z" fill="#fff"/><path d="M200.54,172.79A41.11,41.11,0,0,1,173.92,163a1,1,0,0,1-.35-.76V136.73a1,1,0,0,1,.66-.94,77.58,77.58,0,0,1,52.62,0,1,1,0,0,1,.66.94v25.51a1,1,0,0,1-.35.76A41.11,41.11,0,0,1,200.54,172.79Zm-25-11a39.11,39.11,0,0,0,49.94,0V137.44a75.56,75.56,0,0,0-49.94,0Z" fill="#093f68"/><path d="M174.57,137.73a1,1,0,0,1-.73-.31l-9.1-9.69a1,1,0,0,1,1.46-1.37l9.1,9.69a1,1,0,0,1-.05,1.41A1,1,0,0,1,174.57,137.73Z" fill="#093f68"/><path d="M226.51,137.73a1,1,0,0,1-.77-.37,1,1,0,0,1,.14-1.4l11.65-9.51A1,1,0,0,1,238.8,128l-11.66,9.51A1,1,0,0,1,226.51,137.73Z" fill="#093f68"/><path d="M175.57,146.92a1,1,0,0,1-.25-2,70.56,70.56,0,0,1,8-1.48,1,1,0,1,1,.22,2,68.2,68.2,0,0,0-7.75,1.43A1,1,0,0,1,175.57,146.92Z" fill="#093f68"/><path d="M183.45,158.56a1,1,0,0,1-.24,0,47.23,47.23,0,0,1-8.93-3.18,1,1,0,0,1,.9-1.78,47.83,47.83,0,0,0,8.51,3,1,1,0,0,1,.73,1.21A1,1,0,0,1,183.45,158.56Z" fill="#093f68"/><path d="M225.73,146.92l-.25,0a67.69,67.69,0,0,0-7.75-1.43,1,1,0,1,1,.23-2,70.17,70.17,0,0,1,8,1.48,1,1,0,0,1-.24,2Z" fill="#093f68"/><path d="M217.84,158.56a1,1,0,0,1-1-.76,1,1,0,0,1,.72-1.21,48.14,48.14,0,0,0,8.52-3,1,1,0,0,1,1.34.44,1,1,0,0,1-.45,1.34,47,47,0,0,1-8.92,3.18A1.07,1.07,0,0,1,217.84,158.56Z" fill="#093f68"/><circle cx="184.58" cy="126.96" r="3.09" fill="#093f68"/><circle cx="216.5" cy="126.96" r="3.09" fill="#093f68"/><path d="M189.88,118h0l-14.76,0a1.59,1.59,0,0,1,0-3.18h0l14.76,0a1.59,1.59,0,0,1,0,3.18Z" fill="#093f68"/><path d="M226,118h0l-14.76,0a1.59,1.59,0,0,1,0-3.18h0l14.76,0a1.59,1.59,0,0,1,0,3.18Z" fill="#093f68"/><path d="M201,235.59a1,1,0,0,1-1-1V209.23a1,1,0,0,1,2,0v25.36A1,1,0,0,1,201,235.59Z" fill="#093f68"/></g></svg>