<svg xmlns="http://www.w3.org/2000/svg" viewBox="0 0 400 300"><g id="_38_weather_outline" data-name="#38_weather_outline"><rect x="132.82" y="63.67" width="134.35" height="170.84" rx="5.74" fill="#fff"/><path d="M261.43,235.51H138.57a6.75,6.75,0,0,1-6.75-6.74V69.41a6.76,6.76,0,0,1,6.75-6.74H261.43a6.76,6.76,0,0,1,6.75,6.74V228.77A6.75,6.75,0,0,1,261.43,235.51ZM138.57,64.67a4.75,4.75,0,0,0-4.75,4.74V228.77a4.75,4.75,0,0,0,4.75,4.74H261.43a4.75,4.75,0,0,0,4.75-4.74V69.41a4.75,4.75,0,0,0-4.75-4.74Z" fill="#093f68"/><path d="M267.18,69.41V185.94H132.82V69.41a5.74,5.74,0,0,1,5.74-5.74H261.44A5.74,5.74,0,0,1,267.18,69.41Z" fill="#68e1fd"/><path d="M267.18,186.94H132.82a1,1,0,0,1-1-1V69.41a6.75,6.75,0,0,1,6.74-6.74H261.44a6.75,6.75,0,0,1,6.74,6.74V185.94A1,1,0,0,1,267.18,186.94Zm-133.36-2H266.18V69.41a4.75,4.75,0,0,0-4.74-4.74H138.56a4.75,4.75,0,0,0-4.74,4.74Z" fill="#093f68"/><polygon points="188.72 101.82 249.94 176.5 133.62 176.5 188.72 101.82" fill="#f56132"/><path d="M249.94,177.51H133.62a1,1,0,0,1-.8-1.6l55.09-74.69a1,1,0,0,1,.78-.4,1.07,1.07,0,0,1,.8.36l61.23,74.69a1,1,0,0,1-.78,1.64Zm-114.34-2H247.83l-59.07-72.06Z" fill="#093f68"/><polygon points="267.18 186.73 267.18 119.08 249.1 90.67 194.09 186.73 267.18 186.73" fill="#f56132"/><path d="M267.18,187.73H194.1a1,1,0,0,1-.87-.5,1,1,0,0,1,0-1l55-96.06a1,1,0,0,1,.85-.5,1,1,0,0,1,.87.46L268,118.54a1.06,1.06,0,0,1,.16.54v67.65A1,1,0,0,1,267.18,187.73Zm-71.36-2h70.36V119.37l-17-26.77Z" fill="#093f68"/><text transform="translate(181.95 222.52)" font-size="28.41" fill="#093f68" font-family="AvenirNext-Bold, Avenir Next" font-weight="700">25</text><path d="M225.85,210.42a4.48,4.48,0,1,1,4.47-4.48A4.48,4.48,0,0,1,225.85,210.42Zm0-6.95a2.48,2.48,0,1,0,2.47,2.47A2.48,2.48,0,0,0,225.85,203.47Z" fill="#093f68"/><polygon points="147.76 167.6 132.82 167.6 132.82 151.53 138.47 126.58 147.76 167.6" fill="#70cc40"/><path d="M147.76,168.6H132.82a1,1,0,0,1-1-1V151.53a1.64,1.64,0,0,1,0-.22l5.65-25a1,1,0,0,1,1-.78,1,1,0,0,1,1,.78l9.29,41a1,1,0,0,1-.19.84A1,1,0,0,1,147.76,168.6Zm-13.94-2h12.69l-8-35.49-4.65,20.53Z" fill="#093f68"/><polygon points="232.7 141.78 241.99 182.8 223.41 182.8 232.7 141.78" fill="#70cc40"/><path d="M242,183.8H223.41a1,1,0,0,1-.78-.37,1,1,0,0,1-.2-.85l9.3-41a1,1,0,0,1,1-.78,1,1,0,0,1,1,.78l9.29,41a1,1,0,0,1-.2.85A1,1,0,0,1,242,183.8Zm-17.33-2h16.08l-8-35.49Z" fill="#093f68"/><polygon points="201.07 141.78 210.36 182.8 191.78 182.8 201.07 141.78" fill="#70cc40"/><path d="M210.36,183.8H191.78a1,1,0,0,1-1-1.22l9.29-41a1,1,0,0,1,1-.78h0a1,1,0,0,1,1,.78l9.29,41a1,1,0,0,1-.19.85A1,1,0,0,1,210.36,183.8Zm-17.33-2h16.08l-8-35.49Z" fill="#093f68"/><polygon points="257.88 133.36 267.18 174.38 248.59 174.38 257.88 133.36" fill="#70cc40"/><path d="M267.18,175.38H248.59a1,1,0,0,1-.78-.37,1,1,0,0,1-.19-.85l9.29-41a1,1,0,0,1,1.95,0l9.29,41a1,1,0,0,1-.19.85A1,1,0,0,1,267.18,175.38Zm-17.34-2h16.08l-8-35.49Z" fill="#093f68"/><path d="M132.82,162.33A208.56,208.56,0,0,1,200,173.21c35.05,12,59.13-11.32,67.18-10.91v28.42H132.82Z" fill="#ffbc0e"/><path d="M267.18,191.72H132.82a1,1,0,0,1-1-1V162.33a1,1,0,0,1,1-1,211.09,211.09,0,0,1,67.53,10.94c24.88,8.53,44.39-1.16,56.05-7,4.85-2.41,8.35-4.14,10.86-4a1,1,0,0,1,.95,1v28.42A1,1,0,0,1,267.18,191.72Zm-133.36-2H266.18V163.36c-2.06.35-5.15,1.88-8.92,3.75-11.93,5.93-31.91,15.85-57.58,7a211.23,211.23,0,0,0-65.86-10.85Z" fill="#093f68"/><polygon points="153.68 129.58 162.97 170.6 144.39 170.6 153.68 129.58" fill="#70cc40"/><path d="M163,171.6H144.39a1,1,0,0,1-1-1.22l9.29-41a1,1,0,0,1,2,0l9.29,41a1,1,0,0,1-1,1.22Zm-17.33-2h16.08l-8-35.49Z" fill="#093f68"/><polygon points="169.44 133.36 178.74 174.38 160.15 174.38 169.44 133.36" fill="#70cc40"/><path d="M178.74,175.38H160.15a1,1,0,0,1-.78-.37,1,1,0,0,1-.19-.85l9.29-41a1,1,0,0,1,1.95,0l9.29,41a1,1,0,0,1-.19.85A1,1,0,0,1,178.74,175.38Zm-17.34-2h16.08l-8-35.49Z" fill="#093f68"/><polygon points="246.91 144.47 256.2 185.49 237.62 185.49 246.91 144.47" fill="#70cc40"/><path d="M256.2,186.49H237.62a1,1,0,0,1-.78-.38,1,1,0,0,1-.2-.84l9.29-41a1,1,0,0,1,1-.78,1,1,0,0,1,1,.78l9.3,41a1,1,0,0,1-1,1.22Zm-17.33-2H255l-8-35.49Z" fill="#093f68"/><circle cx="161.15" cy="91.08" r="10.35" fill="#fff"/><path d="M161.15,102.42A11.35,11.35,0,1,1,172.5,91.08,11.36,11.36,0,0,1,161.15,102.42Zm0-20.69a9.35,9.35,0,1,0,9.35,9.35A9.35,9.35,0,0,0,161.15,81.73Z" fill="#093f68"/><path d="M161.15,107.71a1,1,0,0,1-1-1v-5.29a1,1,0,1,1,2,0v5.29A1,1,0,0,1,161.15,107.71Z" fill="#093f68"/><path d="M161.15,80.91a1,1,0,0,1-1-1V74.62a1,1,0,0,1,2,0v5.29A1,1,0,0,1,161.15,80.91Z" fill="#093f68"/><line x1="153.55" y1="98.27" x2="149.8" y2="102.01" fill="#fff"/><path d="M149.8,103a1,1,0,0,1-.7-.29,1,1,0,0,1,0-1.41l3.74-3.75A1,1,0,1,1,154.25,99l-3.74,3.74A1,1,0,0,1,149.8,103Z" fill="#093f68"/><line x1="172.5" y1="79.32" x2="168.76" y2="83.06" fill="#fff"/><path d="M168.76,84.06a1,1,0,0,1-.71-.29,1,1,0,0,1,0-1.42l3.74-3.74a1,1,0,0,1,1.42,0,1,1,0,0,1,0,1.41l-3.75,3.75A1,1,0,0,1,168.76,84.06Z" fill="#093f68"/><line x1="150.4" y1="90.67" x2="145.1" y2="90.67" fill="#fff"/><path d="M150.4,91.67h-5.3a1,1,0,0,1,0-2h5.3a1,1,0,0,1,0,2Z" fill="#093f68"/><line x1="177.2" y1="90.67" x2="171.91" y2="90.67" fill="#fff"/><path d="M177.2,91.67h-5.29a1,1,0,0,1,0-2h5.29a1,1,0,0,1,0,2Z" fill="#093f68"/><line x1="153.55" y1="83.06" x2="149.8" y2="79.32" fill="#fff"/><path d="M153.55,84.06a1,1,0,0,1-.71-.29L149.1,80a1,1,0,0,1,1.41-1.41l3.74,3.74a1,1,0,0,1,0,1.42A1,1,0,0,1,153.55,84.06Z" fill="#093f68"/><line x1="172.5" y1="102.01" x2="168.76" y2="98.27" fill="#fff"/><path d="M172.5,103a1,1,0,0,1-.71-.29L168.05,99a1,1,0,0,1,0-1.42,1,1,0,0,1,1.41,0l3.75,3.75a1,1,0,0,1,0,1.41A1,1,0,0,1,172.5,103Z" fill="#093f68"/></g></svg>