<svg xmlns="http://www.w3.org/2000/svg" viewBox="0 0 400 300"><g id="_175_winner_outline" data-name="#175_winner_outline"><path d="M169.53,147.68l-2.92,5.78s1.42,4.58,0,5.38a8.28,8.28,0,0,1-2.57,1s-1.59,3.63-2.74,3.28-6.82-1.68-6.46-5.31,8.32-16.29,8.32-16.29Z" fill="#ffc9b0"/><path d="M161.46,164.11A1.51,1.51,0,0,1,161,164l-.3-.09c-1.8-.51-7.27-2.08-6.86-6.27.37-3.76,7.64-15.41,8.47-16.73a1,1,0,0,1,.73-.46,1,1,0,0,1,.81.28l6.38,6.2a1,1,0,0,1,.19,1.16l-2.74,5.42c.51,1.78,1.19,5.16-.58,6.16a10.24,10.24,0,0,1-2.35,1C164,162.17,162.85,164.11,161.46,164.11Zm.12-2h0Zm1.77-19.06c-2.49,4.05-7.27,12.26-7.52,14.8s4,3.76,5.42,4.16l.18.05a8.48,8.48,0,0,0,1.7-2.67,1,1,0,0,1,.76-.59,7.61,7.61,0,0,0,2.23-.85c.3-.37.09-2.42-.46-4.22a1,1,0,0,1,.06-.74l2.59-5.12Z" fill="#093f68"/><path d="M238.86,93.31c-2.89,7.76-6.82,15.82-8.48,17.44-4.83,2.8-14.46-3.62-31.81-3.62-4,0-10.92-.87-14.43,2.84-13.06,13.8-23.68,34.66-23.68,34.66l9.26,6.09,15.56-24.25v24.25h27.56V120.86a49,49,0,0,0,13,2,20.08,20.08,0,0,0,10.76-2.65c4.69-3,9.6-14.13,12.9-23Z" fill="#68e1fd"/><path d="M169.72,151.72a1,1,0,0,1-.55-.17l-9.26-6.09a1,1,0,0,1-.34-1.29c.1-.21,10.83-21.15,23.85-34.89,3.29-3.48,9-3.31,13.22-3.19.7,0,1.35,0,1.93,0a84.38,84.38,0,0,1,21.06,3c4.68,1.13,8.09,2,10.14.87,1.45-1.57,5.18-9,8.16-17a1,1,0,0,1,1.28-.59l10.61,4a1,1,0,0,1,.59,1.28c-4.88,13.08-9.35,21-13.31,23.47-5.26,3.34-13.35,3.69-23.26,1.09v28.55a1,1,0,0,1-1,1H185.28a1,1,0,0,1-1-1V129.88l-13.72,21.38a1,1,0,0,1-.63.44Zm16.56-2h25.56V120.86a1,1,0,0,1,.4-.8,1,1,0,0,1,.88-.17c9.89,2.8,17.93,2.65,22.91-.5,3.39-2.14,7.69-9.77,12.15-21.54l-8.73-3.26c-2.63,6.86-6.44,15-8.37,16.88a1,1,0,0,1-.2.15c-2.73,1.58-6.5.66-11.72-.6a81.73,81.73,0,0,0-20.59-2.89c-.6,0-1.27,0-2,0-3.8-.11-9-.26-11.71,2.56-11.39,12-21,29.71-23.11,33.64l7.67,5,15-23.4a1,1,0,0,1,1.84.54Zm44.1-39h0Z" fill="#093f68"/><polygon points="199 126.47 196.41 108.41 202.01 108.41 199 126.47" fill="#fff"/><path d="M199,127.47h0a1,1,0,0,1-1-.86l-2.59-18.06a1,1,0,0,1,.23-.79,1,1,0,0,1,.76-.35H202a1,1,0,0,1,1,1.17l-3,18.06A1,1,0,0,1,199,127.47Zm-1.44-18.06,1.51,10.53,1.76-10.53Z" fill="#093f68"/><path d="M197.66,62a13.25,13.25,0,0,1,2.08-.16c3.22,0,6.5-.08,9.44,1.35a17.85,17.85,0,0,1,9.93,15.9s-.68,13.17-.68,13.17H179.89a7.88,7.88,0,0,1,.16-2.46,10.57,10.57,0,0,0-.39-2.54,35.83,35.83,0,0,1-.77-6.53,25.33,25.33,0,0,1,2.12-10c.78-1.91,1.7-3.89,3.38-5.07s4.35-1.23,5.55.44A13.46,13.46,0,0,1,197.66,62Z" fill="#725858"/><path d="M218.43,93.24H179.89a1,1,0,0,1-1-.72,4.46,4.46,0,0,1,0-2.06,6.53,6.53,0,0,0,.1-.72,7.2,7.2,0,0,0-.24-1.73c-.05-.19-.09-.38-.13-.57a36.9,36.9,0,0,1-.79-6.72,26.35,26.35,0,0,1,2.19-10.43c.8-2,1.82-4.16,3.74-5.51a5.34,5.34,0,0,1,6.13-.16A14.45,14.45,0,0,1,197.51,61h0a12.7,12.7,0,0,1,2.24-.17h.57c3.11,0,6.33,0,9.3,1.45a18.83,18.83,0,0,1,10.49,16.8s0,0-.68,13.23A1,1,0,0,1,218.43,93.24Zm-37.58-2h36.63c.15-3,.62-12.1.63-12.22a16.79,16.79,0,0,0-9.37-15c-2.55-1.25-5.4-1.25-8.42-1.25h-.58a14.16,14.16,0,0,0-1.92.15h0a12.38,12.38,0,0,0-7.14,3.75,1,1,0,0,1-.8.32,1,1,0,0,1-.75-.41c-.86-1.2-2.91-1.11-4.16-.22-1.48,1-2.31,2.86-3,4.64a24.41,24.41,0,0,0-2,9.64,35.43,35.43,0,0,0,.75,6.35l.12.53a8.19,8.19,0,0,1,.28,2.26,6.94,6.94,0,0,1-.12,1C180.89,91,180.87,91.1,180.85,91.24ZM197.66,62h0Z" fill="#093f68"/><path d="M196.41,105.19H202a0,0,0,0,1,0,0v3.22a2.38,2.38,0,0,1-2.38,2.38h-.84a2.38,2.38,0,0,1-2.38-2.38v-3.22A0,0,0,0,1,196.41,105.19Z" fill="#ffc9b0"/><path d="M199.63,111.79h-.84a3.38,3.38,0,0,1-3.38-3.38v-3.22a1,1,0,0,1,1-1H202a1,1,0,0,1,1,1v3.22A3.39,3.39,0,0,1,199.63,111.79Zm-2.22-5.6v2.22a1.38,1.38,0,0,0,1.38,1.38h.84a1.38,1.38,0,0,0,1.38-1.38v-2.22Z" fill="#093f68"/><ellipse cx="184.14" cy="90.65" rx="5.12" ry="4.69" fill="#ffc9b0"/><path d="M184.14,96.34a5.7,5.7,0,1,1,6.12-5.69A5.92,5.92,0,0,1,184.14,96.34Zm0-9.37a3.71,3.71,0,1,0,4.12,3.68A3.92,3.92,0,0,0,184.14,87Z" fill="#093f68"/><ellipse cx="213.99" cy="90.65" rx="5.12" ry="4.69" fill="#ffc9b0"/><path d="M214,96.34a5.7,5.7,0,1,1,6.12-5.69A5.92,5.92,0,0,1,214,96.34ZM214,87a3.71,3.71,0,1,0,4.12,3.68A3.92,3.92,0,0,0,214,87Z" fill="#093f68"/><path d="M199.21,105.92h0a16.39,16.39,0,0,1-16.4-16.39V80.7s4.13-2.36,5.35-6.07c0,0,6.31,7.17,12.38,6.68a141.88,141.88,0,0,0,15.07-2.1V89.53A16.4,16.4,0,0,1,199.21,105.92Z" fill="#ffc9b0"/><path d="M199.21,106.92a17.42,17.42,0,0,1-17.4-17.39V80.7a1,1,0,0,1,.5-.87s3.82-2.22,4.91-5.51a1,1,0,0,1,.74-.67,1,1,0,0,1,1,.32c.05.07,6.08,6.79,11.54,6.35a140.79,140.79,0,0,0,14.95-2.09,1,1,0,0,1,1.2,1V89.53A17.42,17.42,0,0,1,199.21,106.92Zm-15.4-25.67v8.28a15.4,15.4,0,0,0,30.8,0V80.42c-2.39.45-8,1.41-14,1.89-5,.39-10-3.83-12.14-5.91A14.52,14.52,0,0,1,183.81,81.25Z" fill="#093f68"/><path d="M199.12,93.25a9.22,9.22,0,0,1-1.56-.14,1,1,0,0,1-.81-1.15,1,1,0,0,1,1.16-.82,6.86,6.86,0,0,0,1.59.09,15,15,0,0,0-1.18-2.89,1,1,0,0,1,.43-1.35,1,1,0,0,1,1.34.43c.87,1.64,1.79,3.84,1.3,4.92a1.3,1.3,0,0,1-.9.76A5.75,5.75,0,0,1,199.12,93.25Z" fill="#093f68"/><rect x="185.29" y="141.04" width="10.82" height="52.98" fill="#093f68"/><path d="M196.1,195H185.29a1,1,0,0,1-1-1V141a1,1,0,0,1,1-1H196.1a1,1,0,0,1,1,1v53A1,1,0,0,1,196.1,195Zm-9.81-2h8.81V142h-8.81Z" fill="#093f68"/><rect x="203.47" y="141.04" width="9.38" height="52.98" fill="#093f68"/><path d="M212.84,195h-9.37a1,1,0,0,1-1-1V141a1,1,0,0,1,1-1h9.37a1,1,0,0,1,1,1v53A1,1,0,0,1,212.84,195Zm-8.37-2h7.37V142h-7.37Z" fill="#093f68"/><rect x="185.81" y="140.94" width="27.03" height="11.01" fill="#093f68"/><path d="M212.84,153h-27a1,1,0,0,1-1-1v-11a1,1,0,0,1,1-1h27a1,1,0,0,1,1,1v11A1,1,0,0,1,212.84,153Zm-26-2h25v-9h-25Z" fill="#093f68"/><polygon points="194.75 194.01 194.75 200.92 180.09 200.92 187.42 194.01 194.75 194.01" fill="#68e1fd"/><path d="M194.75,201.92H180.09a1,1,0,0,1-.93-.63,1,1,0,0,1,.24-1.09l7.33-6.91a1,1,0,0,1,.69-.28h7.33a1,1,0,0,1,1,1v6.91A1,1,0,0,1,194.75,201.92Zm-12.14-2h11.14V195h-5.93Z" fill="#093f68"/><polygon points="204.05 194.01 204.05 200.92 218.71 200.92 211.38 194.01 204.05 194.01" fill="#68e1fd"/><path d="M218.71,201.92H204.05a1,1,0,0,1-1-1V194a1,1,0,0,1,1-1h7.33a1,1,0,0,1,.68.28l7.33,6.91a1,1,0,0,1-.68,1.72Zm-13.66-2h11.14L211,195h-5.93Z" fill="#093f68"/><rect x="174.66" y="200.89" width="50.67" height="42.59" fill="#fff"/><path d="M225.34,244.48H174.66a1,1,0,0,1-1-1V200.89a1,1,0,0,1,1-1h50.68a1,1,0,0,1,1,1v42.59A1,1,0,0,1,225.34,244.48Zm-49.68-2h48.68V201.89H175.66Z" fill="#093f68"/><rect x="124.58" y="216.53" width="41.25" height="26.95" fill="#fff"/><path d="M165.83,244.48H124.58a1,1,0,0,1-1-1V216.53a1,1,0,0,1,1-1h41.25a1,1,0,0,1,1,1v26.95A1,1,0,0,1,165.83,244.48Zm-40.25-2h39.25V217.53H125.58Z" fill="#093f68"/><rect x="234.17" y="230" width="41.25" height="13.47" fill="#fff"/><path d="M275.42,244.48H234.17a1,1,0,0,1-1-1V230a1,1,0,0,1,1-1h41.25a1,1,0,0,1,1,1v13.48A1,1,0,0,1,275.42,244.48Zm-40.25-2h39.25V231H235.17Z" fill="#093f68"/><rect x="244.02" y="84.13" width="4.97" height="17.78" transform="translate(-12 42.1) rotate(-9.53)" fill="#ffbc0e"/><path d="M245.53,103.2a1,1,0,0,1-1-.84L241.6,84.83a1,1,0,0,1,.82-1.15l4.9-.83a1,1,0,0,1,1.16.82l2.94,17.54a1.05,1.05,0,0,1-.17.75,1,1,0,0,1-.65.4l-4.91.83Zm-1.79-17.72,2.61,15.57,2.93-.5L246.67,85Z" fill="#093f68"/><path d="M231.26,58.3h24a0,0,0,0,1,0,0V77.2a12,12,0,0,1-12,12h0a12,12,0,0,1-12-12V58.3a0,0,0,0,1,0,0Z" transform="translate(-8.85 41.29) rotate(-9.53)" fill="#ffbc0e"/><path d="M243.84,90.17A13,13,0,0,1,231,79.31l-3.13-18.64a1,1,0,0,1,.82-1.15l23.7-4a1,1,0,0,1,1.16.82L256.69,75A13,13,0,0,1,246,90h0A12.19,12.19,0,0,1,243.84,90.17Zm2-1.16h0ZM230,61.32,233,79a11,11,0,0,0,12.69,9h0a11,11,0,0,0,9-12.69l-3-17.66Z" fill="#093f68"/><path d="M243.35,97.3H252a3.69,3.69,0,0,1,3.69,3.69v0a1.56,1.56,0,0,1-1.56,1.56H241.21a1.56,1.56,0,0,1-1.56-1.56v0a3.69,3.69,0,0,1,3.69-3.69Z" transform="translate(-13.13 42.38) rotate(-9.53)" fill="#ffbc0e"/><path d="M241.47,104.6a2.55,2.55,0,0,1-2.51-2.13,4.7,4.7,0,0,1,3.85-5.41l8.52-1.43a4.69,4.69,0,0,1,5.4,3.85,2.56,2.56,0,0,1-2.1,3l-12.73,2.14A3,3,0,0,1,241.47,104.6Zm10.64-7a3.4,3.4,0,0,0-.45,0L243.14,99a2.63,2.63,0,0,0-1.75,1.09,2.7,2.7,0,0,0-.46,2,.61.61,0,0,0,.23.36.54.54,0,0,0,.41.09l12.73-2.13h0a.61.61,0,0,0,.37-.23.56.56,0,0,0,.09-.42A2.69,2.69,0,0,0,252.11,97.57Z" fill="#093f68"/><path d="M232,80.15c-9.16,0-12.39-13.31-12.53-13.87a1.05,1.05,0,0,1,.14-.79,1,1,0,0,1,.67-.43l9.14-1.53a1,1,0,0,1,.33,2l-8,1.35c.91,3,4,11.3,10.29,11.3,0,0,0,0,0,0a1,1,0,0,1,0,2Z" fill="#093f68"/><path d="M255.7,76.17a1,1,0,0,1-.95-.68,1,1,0,0,1,.63-1.27c6-2,6.18-10.95,6.07-14l-8,1.35a1,1,0,1,1-.33-2L262.22,58a1,1,0,0,1,.77.19,1,1,0,0,1,.39.7c.06.58,1.35,14.25-7.36,17.21A.91.91,0,0,1,255.7,76.17Z" fill="#093f68"/><rect x="241.7" y="87.98" width="9.44" height="9.44" rx="3.01" transform="translate(-11.95 42.08) rotate(-9.53)" fill="#ffc9b0"/><path d="M245,98.68a4,4,0,0,1-4-3.34L240.5,92a4,4,0,0,1,.69-3,3.94,3.94,0,0,1,2.6-1.62l3.37-.57a4,4,0,0,1,4.62,3.29l.57,3.37a4,4,0,0,1-3.29,4.62h0l-3.38.57A4.89,4.89,0,0,1,245,98.68Zm3.87-1.61h0Zm-1.06-8.35a1.84,1.84,0,0,0-.33,0l-3.38.57a2,2,0,0,0-1.65,2.31L243,95a2,2,0,0,0,2.31,1.64l3.38-.56a2,2,0,0,0,1.65-2.32l-.57-3.37a2,2,0,0,0-.82-1.3A1.94,1.94,0,0,0,247.83,88.72Z" fill="#093f68"/><rect x="238.27" y="89.44" width="3.56" height="5.84" rx="1.78" transform="translate(-16.2 70.25) rotate(-16.11)" fill="#ffc9b0"/><path d="M240.37,96.24a2.77,2.77,0,0,1-2.67-2L237.06,92a2.79,2.79,0,0,1,5.35-1.55l.63,2.2a2.78,2.78,0,0,1-1.9,3.44A3,3,0,0,1,240.37,96.24Zm-.63-5.76a.57.57,0,0,0-.22,0,.76.76,0,0,0-.53,1l.63,2.19a.79.79,0,0,0,1,.54h0a.79.79,0,0,0,.53-1l-.63-2.19a.77.77,0,0,0-.38-.47A.79.79,0,0,0,239.74,90.48Z" fill="#093f68"/><path d="M185.28,127.47a1,1,0,0,1-1-1V116.34a1,1,0,0,1,2,0v10.13A1,1,0,0,1,185.28,127.47Z" fill="#093f68"/><path d="M212.84,121.86a1,1,0,0,1-1-1v-6.64a1,1,0,0,1,2,0v6.64A1,1,0,0,1,212.84,121.86Z" fill="#093f68"/><circle cx="199.21" cy="123.13" r="6.79" fill="#ffbc0e"/><path d="M199.21,130.93a7.8,7.8,0,1,1,7.79-7.8A7.8,7.8,0,0,1,199.21,130.93Zm0-13.59a5.8,5.8,0,1,0,5.79,5.79A5.79,5.79,0,0,0,199.21,117.34Z" fill="#093f68"/><path d="M202.57,118.24a1.09,1.09,0,0,1-.39-.08,1,1,0,0,1-.52-1.31l4-9.26a1,1,0,0,1,1.84.79l-4,9.25A1,1,0,0,1,202.57,118.24Z" fill="#093f68"/><path d="M195.91,118.24a1,1,0,0,1-.92-.61l-4-9.25a1,1,0,0,1,.52-1.31,1,1,0,0,1,1.32.52l4,9.26a1,1,0,0,1-.53,1.31A1,1,0,0,1,195.91,118.24Z" fill="#093f68"/><path d="M283.67,244.48H116.33a1,1,0,0,1,0-2H283.67a1,1,0,0,1,0,2Z" fill="#093f68"/><path d="M198.48,100.36a10,10,0,0,1-7.34-3.24,1,1,0,0,1,1.55-1.27c.19.25,4.81,5.64,12.81-.17a1,1,0,0,1,1.39.22,1,1,0,0,1-.22,1.4A13.93,13.93,0,0,1,198.48,100.36Z" fill="#093f68"/><path d="M194.59,87.65a1,1,0,0,1-1-1,1.46,1.46,0,0,0-2.91,0,1,1,0,1,1-2,0,3.46,3.46,0,0,1,6.91,0A1,1,0,0,1,194.59,87.65Z" fill="#093f68"/><path d="M208.54,87.65a1,1,0,0,1-1-1,1.46,1.46,0,0,0-2.91,0,1,1,0,0,1-2,0,3.46,3.46,0,0,1,6.91,0A1,1,0,0,1,208.54,87.65Z" fill="#093f68"/></g></svg>