<svg id="Layer_1" data-name="Layer 1" xmlns="http://www.w3.org/2000/svg" xmlns:xlink="http://www.w3.org/1999/xlink" viewBox="0 0 633.13 501.23"><defs><linearGradient id="linear-gradient" x1="333.35" y1="541.89" x2="354.07" y2="-130.39" gradientUnits="userSpaceOnUse"><stop offset="0" stop-color="#010101" stop-opacity="0"/><stop offset="0.95" stop-color="#010101"/></linearGradient><linearGradient id="linear-gradient-2" x1="218.62" y1="122.85" x2="161.45" y2="287.16" xlink:href="#linear-gradient"/><linearGradient id="linear-gradient-3" x1="221.37" y1="148.57" x2="235.21" y2="148.57" gradientUnits="userSpaceOnUse"><stop offset="0" stop-color="#fff" stop-opacity="0"/><stop offset="0.95" stop-color="#fff"/></linearGradient><linearGradient id="linear-gradient-4" x1="296.04" y1="109.25" x2="380.04" y2="515.84" xlink:href="#linear-gradient"/><linearGradient id="linear-gradient-5" x1="263.36" y1="153.61" x2="302.03" y2="153.61" gradientUnits="userSpaceOnUse"><stop offset="0" stop-color="#e5c6d6"/><stop offset="0.42" stop-color="#ead4d0"/><stop offset="1" stop-color="#f0e9cb"/></linearGradient><linearGradient id="linear-gradient-6" x1="277.05" y1="140.67" x2="296.63" y2="140.67" xlink:href="#linear-gradient"/><linearGradient id="linear-gradient-7" x1="265.22" y1="128.74" x2="342.08" y2="234.89" xlink:href="#linear-gradient"/><linearGradient id="linear-gradient-8" x1="413.55" y1="189.64" x2="452.06" y2="189.64" xlink:href="#linear-gradient-5"/><linearGradient id="linear-gradient-9" x1="425.18" y1="175.35" x2="439.04" y2="201.97" gradientUnits="userSpaceOnUse"><stop offset="0" stop-color="#010101" stop-opacity="0"/><stop offset="0.5" stop-color="#010101" stop-opacity="0.03"/><stop offset="0.95" stop-color="#010101"/></linearGradient><linearGradient id="linear-gradient-10" x1="211.06" y1="165.88" x2="231.75" y2="165.88" xlink:href="#linear-gradient-5"/><linearGradient id="linear-gradient-11" x1="207.1" y1="369.04" x2="269.06" y2="369.04" xlink:href="#linear-gradient-5"/><linearGradient id="linear-gradient-12" x1="353.84" y1="380.2" x2="379.62" y2="380.2" xlink:href="#linear-gradient-5"/><linearGradient id="linear-gradient-13" x1="317.11" y1="439.76" x2="313.33" y2="231.86" xlink:href="#linear-gradient-3"/><linearGradient id="linear-gradient-14" x1="195.54" y1="356.35" x2="197.43" y2="439.82" xlink:href="#linear-gradient"/><linearGradient id="linear-gradient-15" x1="379.17" y1="363.66" x2="364.89" y2="452.71" xlink:href="#linear-gradient"/><linearGradient id="linear-gradient-16" x1="256.17" y1="182.6" x2="303.11" y2="409.75" xlink:href="#linear-gradient"/><linearGradient id="linear-gradient-17" x1="250.48" y1="173.36" x2="185.37" y2="318.27" xlink:href="#linear-gradient"/><linearGradient id="linear-gradient-18" x1="308.4" y1="149.52" x2="349.99" y2="230.17" xlink:href="#linear-gradient-3"/><linearGradient id="linear-gradient-19" x1="255.06" y1="142.52" x2="278.58" y2="334.47" xlink:href="#linear-gradient-3"/><linearGradient id="linear-gradient-20" x1="375.22" y1="175.03" x2="383.41" y2="269.54" xlink:href="#linear-gradient"/><linearGradient id="linear-gradient-21" x1="378.97" y1="336.49" x2="-50.7" y2="480.14" xlink:href="#linear-gradient"/><linearGradient id="linear-gradient-22" x1="192.88" y1="140.02" x2="207.96" y2="140.02" xlink:href="#linear-gradient-3"/><linearGradient id="linear-gradient-23" x1="211.1" y1="137.7" x2="226.86" y2="137.7" xlink:href="#linear-gradient"/><linearGradient id="linear-gradient-24" x1="213.42" y1="135.64" x2="215.3" y2="135.64" xlink:href="#linear-gradient"/><linearGradient id="linear-gradient-25" x1="218.39" y1="137.1" x2="220.28" y2="137.1" xlink:href="#linear-gradient"/><linearGradient id="linear-gradient-26" x1="222.86" y1="138.69" x2="224.74" y2="138.69" xlink:href="#linear-gradient"/></defs><title>American Football </title><path d="M634.66,448.63c-11.12,25.17-38.09,40.28-65.16,45.11s-54.88,1.14-82.29-1.46a984.32,984.32,0,0,0-209.94,2.82c-27.4,3.32-54.91,7.79-82.43,6-46.39-3-90-23.52-128.71-49.24C51.71,442.34,37.62,431.8,27.27,418a95,95,0,0,1-9.18-15C-.43,364.92,7.51,316.51,23.28,275.9c17.93-46.14,44.82-90,50.13-139.18,3-27.88-.88-57.44,11-82.83,12.88-27.63,42.45-44.49,72.41-50C216.36-7.07,287.92,9.72,347.3,19.68c24.7,4.13,47.93,12.22,71.82,19.5,33,10,67,12.29,100.62,19.54,30.81,6.65,62.2,19.72,80.46,45.44,20.12,28.35,20.34,66.11,15.95,100.61s-12.55,69.45-6.37,103.66c4.36,23.89,15.44,45.95,23.09,69A159.47,159.47,0,0,1,639.2,403C641.61,418.55,641,434.36,634.66,448.63Z" transform="translate(-7.37 -0.3)" fill="#68e1fd" opacity="0.24" style="isolation:isolate"/><path d="M634.66,448.63c-11.12,25.17-38.09,40.28-65.16,45.11s-54.88,1.14-82.29-1.46a984.32,984.32,0,0,0-209.94,2.82c-27.4,3.32-54.91,7.79-82.43,6-46.39-3-90-23.52-128.71-49.24C51.71,442.34,37.62,431.8,27.27,418a95,95,0,0,1-9.18-15H639.2C641.61,418.55,641,434.36,634.66,448.63Z" transform="translate(-7.37 -0.3)" fill="#68e1fd"/><path d="M93,421.3a12.74,12.74,0,0,0-4.51,1.87c-3.62,3.07,4.1,6.39,10.55,7.38,36.41,5.62,75.51,1,113,3.93,18.32,1.42,36,4.63,54.35,6.07,16.55,1.3,33.35,1.14,50.06.93q122.45-1.55,244.61-6.71c9.38-.39,20.13-1.24,25.13-5.57-10.85-3.81-24.72-3.48-37.6-3.15-59.91,1.54-120.06.24-179.56-3.87,2.53-1,2-3.26-.3-4.41s-5.54-1.44-8.61-1.67c-41.35-3-80.19-.41-120.76,3.87-30.6,3.23-52.52-7.45-82.63-6.66C134.88,413.88,112.74,415.92,93,421.3Z" transform="translate(-7.37 -0.3)" fill="url(#linear-gradient)"/><path d="M173.21,419.33a9.26,9.26,0,0,0,4.48,4.07c5.74,2.75,12.76,1.64,18.31-1.48s9.87-8,13.78-13.05c1.9-2.44,3.79-5.07,4.31-8.12s-.76-6.64-3.65-7.77a9.2,9.2,0,0,0-4.08-.36C196.05,393.48,165.1,402.62,173.21,419.33Z" transform="translate(-7.37 -0.3)" fill="#68e1fd"/><path d="M392.44,431c-.41,1.62-2.45,2.08-4.11,2.24l-15.82,1.52a10.26,10.26,0,0,1-7.17-1.16l-13.85-6.71c-2.14-1-4.63-2.66-4.38-5a2.21,2.21,0,0,1,1.2-1.83,3.53,3.53,0,0,1,1.91-.08q12.18,1.79,24.26,4.12C377.54,424.64,393.76,425.69,392.44,431Z" transform="translate(-7.37 -0.3)" fill="#68e1fd"/><path d="M239,151.06c.22,2-1.57,3.19-2.67,3.84l-.25.15a28.71,28.71,0,0,1-5.49,3.4,27.8,27.8,0,0,1-8.53,2.31,39,39,0,0,1-13.06-.88c-13.39-3-20.74-16.68-23.49-23.12a4,4,0,0,1-.25-.74c0-.07,0-.1,0-.18a3.61,3.61,0,0,1,2.19-4c6.26-2.74,20.42-7.68,31.83-2.45a39.14,39.14,0,0,1,10.47,6.95,34.9,34.9,0,0,1,5.34,6.22C237.87,146.67,238.89,150,239,151.06Z" transform="translate(-7.37 -0.3)" fill="#68e1fd"/><path d="M236.37,154.65a.55.55,0,0,1,0,.25l-.25.15a28.71,28.71,0,0,1-5.49,3.4,27.8,27.8,0,0,1-8.53,2.31,39,39,0,0,1-13.06-.88c-13.39-3-20.74-16.68-23.49-23.12a4,4,0,0,1-.25-.74c0-.07,0-.1,0-.18a2,2,0,0,1,1.57-1.5,4.4,4.4,0,0,1,2.27.15c3.36,1,6,3.58,8.78,5.67a49,49,0,0,0,7.46,4.39c2.75,1.43,5.56,2.71,8.38,3.91a74.56,74.56,0,0,0,15.84,4.72c1.39.22,2.78.41,4.17.55C234.76,153.81,236.41,153.48,236.37,154.65Z" transform="translate(-7.37 -0.3)" fill="url(#linear-gradient-2)"/><path d="M230.59,158.45a27.8,27.8,0,0,1-8.53,2.31l-.69-.66c7.86-4.72,8.34-22.43,8.38-23.71a34.9,34.9,0,0,1,5.34,6.22A23,23,0,0,1,230.59,158.45Z" transform="translate(-7.37 -0.3)" fill="url(#linear-gradient-3)"/><path d="M272.88,170.61s-.48,0-1.33,0c-5.53.19-26.55,1.21-30.64,6.27-4.73,5.82-6.3,20.63-6.3,20.63l-10.71,5.51.94-26.14-11.49-.48a72.48,72.48,0,0,0-5.2,27.88c.31,15.44,13.86,21.11,13.86,21.11L258.23,216l14.39,15.75,7.56,37.38,65.1-8.82-7.14-66.36h34.44l43.26,2.94,4.21-10.08s-47.89-13.86-51.67-13.44-10.5-.42-10.5-.42l-8-4.2S336,148.55,324.28,152.33s-31.08,16.81-31.08,16.81Z" transform="translate(-7.37 -0.3)" fill="#68e1fd"/><path d="M420.06,186.81l-4,9.66-.18.36-43.23-3H338.16l.09,1.07,7.07,65.34-65.16,8.77-7.52-37.32L258.23,216,222,225.38s-13.51-5.64-13.87-21a73.81,73.81,0,0,1,5.19-27.93l11.55.45-1,26.14,10.74-5.46s1.62-14.86,6.27-20.68c4.12-5,25.15-6.08,30.7-6.26h1.34l20.32-1.44s19.33-13.06,31.06-16.82,25.6,16.38,25.6,16.38l8,4.2a59.45,59.45,0,0,0,10.56.36C372.17,172.93,420.06,186.81,420.06,186.81Z" transform="translate(-7.37 -0.3)" fill="url(#linear-gradient-4)"/><path d="M294.78,132.34a15.05,15.05,0,0,0,3.16,7.36,5.16,5.16,0,0,1,1.22,2c.29,1.3-.63,2.59-.57,3.92a5.27,5.27,0,0,0,.42,1.59q1,2.81,2.22,5.57a6.08,6.08,0,0,1,.71,3.68,3.86,3.86,0,0,1-.93,1.66,11.34,11.34,0,0,1-3.61,2.4l-3.7,1.81c-1.11,3.42,1.89,7.22,1,10.71a6.52,6.52,0,0,1-3.9,4.16,14.17,14.17,0,0,1-5.79.86,36.17,36.17,0,0,1-5.87-.6,8.72,8.72,0,0,1-2.78-.9,9,9,0,0,1-2.35-2.26,50,50,0,0,1-10.57-26.95,17.05,17.05,0,0,1,.26-5.34,13.06,13.06,0,0,1,4.85-6.93,29.44,29.44,0,0,1,7.61-3.95c3.47-1.31,7.18-2.4,10.84-1.79C289.7,129.79,292.11,131.76,294.78,132.34Z" transform="translate(-7.37 -0.3)" fill="url(#linear-gradient-5)"/><path d="M294.52,133.63a7.6,7.6,0,0,1-2.16,1.41c-3.26,1.62-12.47,5.56-13.18,11.23a19.48,19.48,0,0,0,1.18,7.8c-2.7-3-3.18-7.55-3.3-11.56-.14-4.49,2.66-8.72,6.4-11.2a27.44,27.44,0,0,1,11-4C298.22,126.91,296.33,131.71,294.52,133.63Z" transform="translate(-7.37 -0.3)" fill="#68e1fd"/><path d="M294.52,133.63a7.6,7.6,0,0,1-2.16,1.41c-3.26,1.62-12.47,5.56-13.18,11.23a19.48,19.48,0,0,0,1.18,7.8c-2.7-3-3.18-7.55-3.3-11.56-.14-4.49,2.66-8.72,6.4-11.2a27.44,27.44,0,0,1,11-4C298.22,126.91,296.33,131.71,294.52,133.63Z" transform="translate(-7.37 -0.3)" fill="url(#linear-gradient-6)"/><path d="M264.15,167.89a4,4,0,0,1-1.79-.35,4.27,4.27,0,0,1-1.25-1.22l-5.56-7.2c-2.26-2.93-4.57-6-5.61-9.5a24.07,24.07,0,0,1-.66-7.94,27.69,27.69,0,0,1,2.58-11.45,22.11,22.11,0,0,1,10.8-9.7,29.88,29.88,0,0,1,32.75,6.18,2.22,2.22,0,0,1,.86,1.78,2.29,2.29,0,0,1-1.08,1.28L287.84,135a29.2,29.2,0,0,0-5.85,5,9.76,9.76,0,0,0-2.41,7.12c.45,3.61,1.64,7.59,2.12,11.2C282.9,167.37,270.37,168,264.15,167.89Z" transform="translate(-7.37 -0.3)" fill="#68e1fd"/><path d="M264.15,167.89a4,4,0,0,1-1.79-.35,4.27,4.27,0,0,1-1.25-1.22l-5.56-7.2c-2.26-2.93-4.57-6-5.61-9.5a24.07,24.07,0,0,1-.66-7.94,27.69,27.69,0,0,1,2.58-11.45,22.11,22.11,0,0,1,10.8-9.7,29.88,29.88,0,0,1,32.75,6.18,2.22,2.22,0,0,1,.86,1.78,2.29,2.29,0,0,1-1.08,1.28L287.84,135a29.2,29.2,0,0,0-5.85,5,9.76,9.76,0,0,0-2.41,7.12c.45,3.61,1.64,7.59,2.12,11.2C282.9,167.37,270.37,168,264.15,167.89Z" transform="translate(-7.37 -0.3)" fill="url(#linear-gradient-7)"/><path d="M283.9,156.2a12.94,12.94,0,0,1-3.39-.64l-.49-.15-1.74-8.6a7.4,7.4,0,0,1,1.42-4.61c.76-1.1,3.48-2.92,7.87-5.79,3.22-2.1,6.87-4.48,7.72-5.56a.85.85,0,0,1,1.33,1.07c-1,1.28-4.47,3.53-8.12,5.92-3.18,2.07-6.78,4.42-7.4,5.32a5.87,5.87,0,0,0-1.14,3.43l1.52,7.49a9.4,9.4,0,0,0,2.7.42c.12-.07,1-.48,2.37-1.06,4-1.76,14.66-6.41,15.87-7.83l1.72-1.43a.85.85,0,0,1,1.08,1.31l-1.62,1.32c-1.11,1.33-7.35,4.24-16.37,8.18-1.24.54-2.08.91-2.26,1A2.38,2.38,0,0,1,283.9,156.2Z" transform="translate(-7.37 -0.3)" fill="#fff"/><path d="M300.1,159.11c-2.13,0-4.14-1-6.32-2.42a39.47,39.47,0,0,1-5.63-5.78c-.36.13-.66.22-.91.3-1.41.43-6.11-2-8.78-3.48l.83-1.48c2.93,1.64,6.55,3.33,7.43,3.33h.06l.19-.07c-3.17-3.78-6.13-7.65-6.35-7.94l1.34-1c1.41,1.82,4.1,5.26,6.73,8.38a25.69,25.69,0,0,0,3.81-1.68c.5-.3,1.57-.81,2.94-1.44,2.07-1,6.37-3,6.84-3.72a1.14,1.14,0,0,1,1.1-.81h0c.54,0,2,0,5.93,11.48l.08.22,0,.22c-.35,1.8-2.13,3.34-6,5.14A7.52,7.52,0,0,1,300.1,159.11Zm-10.24-8.82a34.4,34.4,0,0,0,4.86,5c2.94,1.94,5.19,2.83,7.95,1.53,3-1.39,4.61-2.62,5-3.73-1.39-4-3.21-8.4-4.17-9.78-.87,1-3.1,2.08-7.32,4.05-1.2.56-2.35,1.09-2.77,1.35A23,23,0,0,1,289.86,150.29Z" transform="translate(-7.37 -0.3)" fill="#fff"/><path d="M306.35,157l-.2-1.43c-.34-2.5-4.52-9.06-6.1-11.38l1.4-1c.52.77,4.6,6.79,6,10.57a1.09,1.09,0,0,0,.26-.66c-.11-.9-3.24-7.36-5.31-10.2l1.37-1c2,2.73,5.46,9.52,5.62,11s-1.52,2.92-1.86,3.17Z" transform="translate(-7.37 -0.3)" fill="#fff"/><path d="M447,180.37c.35.06.75.17.88.5a.93.93,0,0,1-.24.86c-2,2.62-6.62,2.38-8,5.36a47.07,47.07,0,0,1,10.77,2,2.11,2.11,0,0,1,1.51,1.07c.45,1.24-1.37,2-2.69,2.08.4.81-.89,1.36-1.8,1.37l-7.51,0c.08.93,1,1.55,1.91,1.83a7.45,7.45,0,0,1,2.59,1c.72.61.9,1.95.07,2.39a2,2,0,0,1-1.21.09c-2.76-.37-5.49-1.09-8.28-1.07s-5.78.86-8.69,1.06a20,20,0,0,1-10.09-2c-1.35-.66-2.79-1.76-2.74-3.27a4,4,0,0,1,1.05-2.23c2.12-2.68,4-4.5,7.31-4.58a23.78,23.78,0,0,0,8.41-2C435.61,182.83,441.09,179.44,447,180.37Z" transform="translate(-7.37 -0.3)" fill="url(#linear-gradient-8)"/><path d="M424.77,193.83a10.5,10.5,0,0,1,1.19-.92,4.79,4.79,0,0,1,2.61-.31l5.6.39c.76,0,1.66,0,2.09-.58a1.54,1.54,0,0,0-.3-1.88,4.44,4.44,0,0,0-1.81-.95l-3.66-1.25q5.52-2.67,11.18-5a.65.65,0,0,1,.51-.05c.28.13.2.56,0,.83a9.81,9.81,0,0,1-1.5,1.45,2,2,0,0,0-.76,1.86l-.9,1c3.45.33,7,.7,10,2.38-.37.58-1.23.52-1.91.4a65.81,65.81,0,0,0-6.86-.81,1.67,1.67,0,0,0-.83.08c-.73.33-.68,1.36-.51,2.14a31.54,31.54,0,0,1,5.58.39,6.09,6.09,0,0,1-2.16.74,10.62,10.62,0,0,0-2.94.45c-.91.41-1.55,1.66-.91,2.41.26.3.68.53.66.91s-.66.6-1.14.59a48.83,48.83,0,0,0-9.58.68,13.58,13.58,0,0,1-5.41.3,3.34,3.34,0,0,1-2.38-1.74C419.54,194.54,423.47,194.83,424.77,193.83Z" transform="translate(-7.37 -0.3)" fill="url(#linear-gradient-9)"/><path d="M228.2,167.23a16.9,16.9,0,0,0,2.57-3,9.13,9.13,0,0,0,.92-3.68c.2-2.5-.07-5.25-1.79-7.08a7.35,7.35,0,0,0-3.66,3.53c-.46,1-.79,2.1-1.74,2.55a3.71,3.71,0,0,1-1.76.21,47.69,47.69,0,0,0-8.53.43,3.73,3.73,0,0,0-2.51,1.07,3.47,3.47,0,0,0-.6,1.77c-.33,2.68,1.35,5.09,2.3,7.63.71,1.92.42,4.09.77,6.11a1.7,1.7,0,0,0,.37,1,1.5,1.5,0,0,0,.74.29c2.53.45,7.21.92,8.64-1.6.7-1.23.71-3.17,1.3-4.53A16.7,16.7,0,0,1,228.2,167.23Z" transform="translate(-7.37 -0.3)" fill="url(#linear-gradient-10)"/><path d="M269.06,362a22.71,22.71,0,0,1-2.59.45l-49.23,31.5s0,.09-.18.27c-1.34,0-2.59-.09-3.94-.18-1.79-.09-3.67-.27-4.92-1.52-1.7-1.79-1.16-4.74-.18-7.07.36-.81.72-1.7,1-2.51a1.42,1.42,0,0,0,1.07-.45c2.51-2,30.16-34.81,34.82-34.81,2,0,4.83-1.7,7.61-3.76C256.89,348.72,263.69,356.06,269.06,362Z" transform="translate(-7.37 -0.3)" fill="url(#linear-gradient-11)"/><path d="M213.12,394c1.35.09,2.6.18,3.94.18-.72,1.52-4.74,9.67-7.34,11.46-2.86,1.88-16.38,15.39-18.62,16s-7.87-1-12.53-3.13-1.61-13.61,1.88-15.49,8.78-8.5,17.28-16c7.25-6.53,9.22-3.67,11.28-4.12-.27.81-.63,1.7-1,2.51-1,2.33-1.52,5.28.18,7.07C209.45,393.74,211.33,393.92,213.12,394Z" transform="translate(-7.37 -0.3)" fill="#68e1fd"/><path d="M370.65,400.54a31.37,31.37,0,0,0,0,8.33,12,12,0,0,1-5.82,1.16c-3.58-.27-6.8-2.41-10.2-3.13a1.2,1.2,0,0,0,.27-.63c.27-1.07,1.07-8.32,1.61-13.42a42.33,42.33,0,0,0,.36-5.19c-.36-1-.63-8.87-2.6-14.5-1.43-4.3,1.17-12.53,1.34-18.35a3.2,3.2,0,0,1,.9-.18,73.51,73.51,0,0,1,7.7-.09c1.43,0,2.77-.09,4.11-.18,3.58-.36,7.25-1.43,9.76-4,.27,1.61.81,4,1.43,8.33C380.76,366.53,370.65,400.54,370.65,400.54Z" transform="translate(-7.37 -0.3)" fill="url(#linear-gradient-12)"/><path d="M354.9,350.15c-2.51-5-18.53-23.89-22.29-28.37s-4.47-14.5-15.48-15.75-28.64,36.87-28.64,36.87c-5.2,13.61-14.86,17.73-19.43,19.07-5.37-5.91-12.17-13.25-16.55-18.08a79.78,79.78,0,0,0,7.51-6.36s7.52-34.37,14.32-44.93,5.82-23.54,5.82-23.54l65.16-8.77,6.18,8.95L370,307.91s8.87,38.13,8.24,39.74a5.75,5.75,0,0,0-.18,2.59v.09c-2.51,2.6-6.18,3.67-9.76,4-3.84.36-7.87-.09-11.81.27a3.2,3.2,0,0,0-.9.18A9.23,9.23,0,0,0,354.9,350.15Z" transform="translate(-7.37 -0.3)" fill="#68e1fd"/><path d="M378.26,347.65a5.75,5.75,0,0,0-.18,2.59v.09c-2.51,2.6-6.18,3.67-9.76,4-1.34.09-2.68.18-4.11.18a73.51,73.51,0,0,0-7.7.09,3.2,3.2,0,0,0-.9.18,9.23,9.23,0,0,0-.71-4.66c-2.51-5-18.53-23.89-22.29-28.37-3.58-4.12-4.38-13.16-13.33-15.3a7.65,7.65,0,0,0-2.15-.45c-11-1.26-28.64,36.87-28.64,36.87-5.2,13.61-14.86,17.73-19.43,19.07-5.37-5.91-12.17-13.25-16.55-18.08a79.78,79.78,0,0,0,7.51-6.36s7.52-34.37,14.32-44.93,5.82-23.54,5.82-23.54l65.16-8.77,6.18,8.95L370,307.91S378.89,346,378.26,347.65Z" transform="translate(-7.37 -0.3)" fill="url(#linear-gradient-13)"/><path d="M391.15,427.93l-22,1.61s-17.36-5-20.5-8.14c-2.86-2.95,4.48-11.82,6-14.5,3.4.72,6.62,2.86,10.2,3.13a12,12,0,0,0,5.82-1.16c.54,4.2,2.33,8.59,7,9.31C387,419.79,391.15,427.93,391.15,427.93Z" transform="translate(-7.37 -0.3)" fill="#68e1fd"/><path d="M213.12,394c1.35.09,2.6.18,3.94.18-.72,1.52-4.74,9.67-7.34,11.46-2.86,1.88-16.38,15.39-18.62,16s-7.87-1-12.53-3.13-1.61-13.61,1.88-15.49,8.78-8.5,17.28-16c7.25-6.53,9.22-3.67,11.28-4.12-.27.81-.63,1.7-1,2.51-1,2.33-1.52,5.28.18,7.07C209.45,393.74,211.33,393.92,213.12,394Z" transform="translate(-7.37 -0.3)" fill="url(#linear-gradient-14)"/><path d="M391.15,427.93l-22,1.61s-17.36-5-20.5-8.14c-2.86-2.95,4.48-11.82,6-14.5,3.4.72,6.62,2.86,10.2,3.13a12,12,0,0,0,5.82-1.16c.54,4.2,2.33,8.59,7,9.31C387,419.79,391.15,427.93,391.15,427.93Z" transform="translate(-7.37 -0.3)" fill="url(#linear-gradient-15)"/><path d="M378.08,350.33v-.09a5.32,5.32,0,0,0,.72-.71" transform="translate(-7.37 -0.3)" fill="none" stroke="#68e1fd" stroke-miterlimit="10" stroke-width="2.24"/><polygon points="282.9 267.15 272.79 268.76 265.27 231.44 250.86 215.68 257.66 209.6 271.09 222.22 277.89 228.93 282.9 267.15" fill="url(#linear-gradient-16)"/><path d="M246.26,194c1-.31,2.09-.82,2.21-1.83a2.71,2.71,0,0,0-.38-1.42,41.65,41.65,0,0,0-6.54-9.56.77.77,0,0,0-.47-.31c-.28,0-.48.24-.62.47-1.61,2.71-1.54,6-2.15,9.13a31.42,31.42,0,0,1-2.4,6.47C238.12,197.82,243.92,194.75,246.26,194Z" transform="translate(-7.37 -0.3)" fill="url(#linear-gradient-17)"/><path d="M327.25,159.34c1.65-.94,3.38-1.94,5.28-2,2.25,0,4.31,1.31,6.55,1.51a17.77,17.77,0,0,0-2.63-2.19c-3.2-2.33-6.75-4.76-10.69-4.51-2.49.15-4.77,1.38-6.95,2.6q-12.13,6.75-24,14.05a.8.8,0,0,0-.28.24c-.17.27,0,.62.2.89a7.56,7.56,0,0,1,1.07,5.33C298.49,174,318.82,164.16,327.25,159.34Z" transform="translate(-7.37 -0.3)" fill="url(#linear-gradient-18)"/><path d="M259.28,177.58q4.44-.39,8.9-.65a10.21,10.21,0,0,1,5.41.68c.88.45,1.78,1.19,2.73.92a7.46,7.46,0,0,1-3.78-2.44c-1-1.17-1.59-2.66-2.82-3.56-1.5-1.09-3.51-1-5.36-.92a75.67,75.67,0,0,0-14.05,2.1,13.68,13.68,0,0,0-5.05,2.19,5.68,5.68,0,0,0-2.38,4.75c0,.45,4.46.87,5,.83a4.74,4.74,0,0,0,2.74-1.16A17.47,17.47,0,0,1,259.28,177.58Z" transform="translate(-7.37 -0.3)" fill="url(#linear-gradient-19)"/><path d="M416,196.47l-.18.36-43.23-3H338.16l.09,1.07c-.89-2.68-.36-5.91-.09-9.57.09-.45.09-1.08.54-1.35a2.19,2.19,0,0,1,1.52-.35q33.7,2.41,67.31,7.33c2.32.36,4.92.81,6.71,2.51A7.11,7.11,0,0,1,416,196.47Z" transform="translate(-7.37 -0.3)" fill="url(#linear-gradient-20)"/><path d="M364.21,354.54c-.63,4.21-2.24,8.32-3,12.53-1.88,8.95-.44,18.62-3.67,27.3-.35-.54-.62-1-1-1.52a42.33,42.33,0,0,0,.36-5.19c-.36-1-.63-8.87-2.6-14.5-1.43-4.3,1.17-12.53,1.34-18.35a9.23,9.23,0,0,0-.71-4.66c-2.51-5-18.53-23.89-22.29-28.37-3.58-4.12-4.38-13.16-13.33-15.3,0-.18.17-.36.35-.54,3.94-3.13,10.39,1.61,14.14,1.61a22.5,22.5,0,0,1,5,5.1c6.08,7.43,12.08,14.86,18.08,22.38,3.22,3.85,6.44,8,7.34,13A18.2,18.2,0,0,1,364.21,354.54Z" transform="translate(-7.37 -0.3)" fill="url(#linear-gradient-21)"/><path d="M202.41,127.4s-1,16.74-9.53,21l3.74,4.25s14.55-9.53,10.69-25.24Z" transform="translate(-7.37 -0.3)" fill="#68e1fd"/><path d="M202.41,127.4s-1,16.74-9.53,21l3.74,4.25s14.55-9.53,10.69-25.24Z" transform="translate(-7.37 -0.3)" fill="url(#linear-gradient-22)"/><path d="M226.41,141a.44.44,0,0,1-.32-.13c-4-3.88-14.5-5.53-14.6-5.54a.47.47,0,0,1-.39-.52.44.44,0,0,1,.53-.39c.44.07,10.92,1.7,15.1,5.8a.45.45,0,0,1,0,.64A.47.47,0,0,1,226.41,141Z" transform="translate(-7.37 -0.3)" fill="url(#linear-gradient-23)"/><path d="M213.87,138.93a.44.44,0,0,1-.3-.12.45.45,0,0,1,0-.64c1.38-1.53.68-5.24.67-5.28a.45.45,0,0,1,.89-.17c0,.17.8,4.19-.88,6.06A.45.45,0,0,1,213.87,138.93Z" transform="translate(-7.37 -0.3)" fill="url(#linear-gradient-24)"/><path d="M218.85,140.39a.42.42,0,0,1-.3-.12.46.46,0,0,1,0-.65c1.38-1.52.67-5.23.67-5.27a.46.46,0,0,1,.36-.54.46.46,0,0,1,.53.36c0,.18.8,4.2-.88,6.07A.45.45,0,0,1,218.85,140.39Z" transform="translate(-7.37 -0.3)" fill="url(#linear-gradient-25)"/><path d="M223.32,142a.45.45,0,0,1-.34-.76c1.37-1.52.67-5.23.66-5.27a.46.46,0,0,1,.36-.54.48.48,0,0,1,.54.36c0,.18.8,4.2-.88,6.06A.46.46,0,0,1,223.32,142Z" transform="translate(-7.37 -0.3)" fill="url(#linear-gradient-26)"/></svg>