<svg id="Layer_1" data-name="Layer 1" xmlns="http://www.w3.org/2000/svg" xmlns:xlink="http://www.w3.org/1999/xlink" viewBox="0 0 365.34 325.77"><defs><linearGradient id="linear-gradient" x1="284.09" y1="-59.58" x2="94.04" y2="272.38" gradientUnits="userSpaceOnUse"><stop offset="0.01"/><stop offset="0.13" stop-opacity="0.69"/><stop offset="1" stop-opacity="0"/></linearGradient><linearGradient id="linear-gradient-2" x1="204.42" y1="-73.7" x2="189.77" y2="244.47" gradientUnits="userSpaceOnUse"><stop offset="0.01"/><stop offset="0.03" stop-opacity="0.69"/><stop offset="1" stop-opacity="0"/></linearGradient><linearGradient id="linear-gradient-3" x1="380.04" y1="-52.49" x2="279.77" y2="211.31" gradientTransform="translate(-135.08 43.81) rotate(-3.52)" xlink:href="#linear-gradient-2"/><linearGradient id="linear-gradient-4" x1="333.33" y1="-359.53" x2="302.92" y2="275.67" gradientTransform="translate(-135.08 43.81) rotate(-3.52)" xlink:href="#linear-gradient-2"/><linearGradient id="linear-gradient-5" x1="202.54" y1="109.9" x2="172.13" y2="212.76" xlink:href="#linear-gradient-2"/><linearGradient id="linear-gradient-6" x1="284.66" y1="-56.82" x2="184.38" y2="206.98" xlink:href="#linear-gradient-2"/><linearGradient id="linear-gradient-7" x1="237.94" y1="-363.86" x2="207.54" y2="271.34" xlink:href="#linear-gradient-2"/><linearGradient id="linear-gradient-8" x1="206.18" y1="142.75" x2="248.2" y2="142.75" xlink:href="#linear-gradient-2"/><linearGradient id="linear-gradient-9" x1="261.76" y1="-55.28" x2="161.48" y2="208.52" xlink:href="#linear-gradient-2"/><linearGradient id="linear-gradient-10" x1="215.04" y1="-362.32" x2="184.64" y2="272.88" xlink:href="#linear-gradient-2"/><linearGradient id="linear-gradient-11" x1="186.9" y1="50.5" x2="192.9" y2="174.38" gradientUnits="userSpaceOnUse"><stop offset="0.01" stop-color="#fff"/><stop offset="0.13" stop-color="#fff" stop-opacity="0.69"/><stop offset="1" stop-color="#fff" stop-opacity="0"/></linearGradient><linearGradient id="linear-gradient-12" x1="182.94" y1="113.73" x2="198.28" y2="143.43" xlink:href="#linear-gradient"/><linearGradient id="linear-gradient-13" x1="185.34" y1="158.81" x2="190.59" y2="127.09" xlink:href="#linear-gradient"/><linearGradient id="linear-gradient-14" x1="190.91" y1="-50.77" x2="35.49" y2="112.25" xlink:href="#linear-gradient-2"/></defs><title>18</title><path d="M60.81,26.18C92-.19,137.76-6.81,176.19,7c18.22,6.54,34.93,17.24,53.76,21.76C261,36.2,296.3,26.5,324,42.51c17.33,10,28.12,28.54,34.78,47.42,4.26,12.08,7.17,24.66,12.52,36.29,4.11,8.95,9.62,17.22,13.36,26.33,7.77,19,7.32,40.57,1.9,60.33-12,43.68-47.31,78.44-88.31,97.69-34.87,16.37-77.5,22.24-111.22,3.62-13.19-7.28-24.27-17.86-37.07-25.8C115.38,267,68.24,264.32,43.2,232.3c-24.58-31.43-13.43-70.8-17.14-106.92C22.19,87.73,30.61,51.73,60.81,26.18Z" transform="translate(-25.18 0.03)" fill="#68e1fd" opacity="0.18" style="isolation:isolate"/><circle cx="159.81" cy="157.5" r="93.76" fill="url(#linear-gradient)"/><circle cx="169.39" cy="145.15" r="93.76" fill="#fff"/><path d="M186.39,217.52c12.62.92,26.61,1.34,36.39-6.68,5.73-4.71,9.09-11.66,13.86-17.35,5.7-6.81,13.4-11.77,18.88-18.75,5.12-6.53,8-14.48,10.72-22.32,1.85-5.42,3.65-10.95,3.84-16.66.34-10.28-4.66-20.23-11.85-27.58s-16.42-12.39-25.86-16.46c-11.94-5.13-24.69-8.93-37.69-8.89-9.27,0-18.42,2-27.38,4.36-6.6,1.73-13.27,3.73-18.91,7.57-7.41,5.06-12.46,12.94-16.14,21.12s-6.2,16.85-9.76,25.09c-1.71,4-3.7,8-3.82,12.31a27,27,0,0,0,1.93,9.39c3.45,10,8.15,20,16.15,26.89,8.6,7.43,20,10.55,31.17,12.84,3.29.68,6.88,1.46,9,4.07a5.51,5.51,0,0,1-1.39,8.1C178.05,217.15,182.94,217.27,186.39,217.52Z" transform="translate(-25.18 0.03)" fill="url(#linear-gradient-2)"/><path d="M173.64,108.91c-10.39,2.17-20.65,5.75-29.25,12s-15.44,15.3-17.48,25.71c-3.08,15.73,4.86,31.29,12.54,45.36,2.14,3.92,4.35,7.92,7.67,10.91,3.68,3.33,8.44,5.16,13.09,6.91,11.33,4.27,23,8.61,35.1,8.37s24.91-6.11,29.76-17.2c2.93-6.7,2.66-14.4,5.15-21.28,1.13-3.12,2.81-6,4-9.09,3.83-9.73,2.78-21-1.47-30.51C221.71,115.16,200.18,103.37,173.64,108.91Z" transform="translate(-25.18 0.03)" fill="#68e1fd"/><path d="M227.27,142.63c-.08-.46-.17-.93-.28-1.38-.73-2.81-2.77-4.56-4.34-6.81a65.94,65.94,0,0,0-5.06-6.6,44.18,44.18,0,0,0-6.62-6c-1.52-1.12-5.13-2.14-4.9-4.37A65.73,65.73,0,0,1,198,115a8.86,8.86,0,0,0-2.15-.75,24.33,24.33,0,0,0-3.6.22,26.54,26.54,0,0,1-3.53-.5c-2.64-.36-5.31.26-8,.34s-5.13-.33-7.68-.11a24.89,24.89,0,0,0-8.6,2.75c-1.82.9-3.71,1.9-5.74,1.79a8.49,8.49,0,0,0-2.75-.08,4.66,4.66,0,0,0-1.93,1.37c-5.6,5.58-12.2,10.41-16.24,17.33-3.62,6.21-5.33,13.32-6.12,20.41-.36,3.21-.26,6.6,1.21,9.47a43.89,43.89,0,0,1,2.34,4.17c.88,2.29.55,4.92,1.51,7.18a30.83,30.83,0,0,0,1.77,3,28.51,28.51,0,0,1,1.95,4.94,29.9,29.9,0,0,0,4.62,9.11,14.46,14.46,0,0,0,8.45,5.42,17.17,17.17,0,0,1,2.77.54c2.87,1,4.23,4.52,7,5.74,2.13.92,4.6.34,6.88.77a19.19,19.19,0,0,1,3.78,1.36A43.89,43.89,0,0,0,202.35,211a30.58,30.58,0,0,0,12.58-6.8,23.07,23.07,0,0,0,4.22-5.67c1.43-2.48,3.79-4.49,3.8-7.6,0-1.58-.61-3.09-.72-4.67-.18-2.72,1.2-5.28,2.54-7.66l4.31-7.71a8.74,8.74,0,0,0,1.09-2.51c.47-2.34-1-4.61-1.3-7-.61-4.3,2.43-8.82.77-12.84-.45-1.09-1.21-2-1.67-3.11A13,13,0,0,1,227.27,142.63Z" transform="translate(-25.18 0.03)" fill="url(#linear-gradient-3)"/><path d="M225.53,169.36c-1,2.57-2.41,5-3.35,7.58-2.09,5.73-1.86,12.15-4.3,17.74-4,9.24-14.71,14.14-24.81,14.33s-19.81-3.42-29.25-7c-3.87-1.47-7.84-3-10.92-5.76-.25-.23-.5-.47-.73-.71l-.26-.27-.57-.62c-.27-.32-.53-.63-.78-1s-.43-.57-.64-.87l-.18-.25-.46-.69c-.21-.32-.41-.65-.61-1s-.4-.66-.59-1l-.58-1c-.32-.57-.65-1.17-1-1.78a21.62,21.62,0,0,0-3.23-4.77,6.58,6.58,0,0,1-1.67-2.1,8.24,8.24,0,0,1-.27-1.79c-.38-3.38-3-6.33-2.84-9.72a9.41,9.41,0,0,0,0-2.7,11.6,11.6,0,0,0-.7-1.63c-.92-2.2-.12-4.72-.5-7.08A13.88,13.88,0,0,1,137,155c0-.85.43-1.66.49-2.53a10.37,10.37,0,0,0-.17-2.08,10,10,0,0,1,2.86-8,6,6,0,0,0,1.2-1.38,7,7,0,0,0,.49-1.49,7.45,7.45,0,0,1,2.38-3.73,10,10,0,0,0,1.64-1.47,8.46,8.46,0,0,0,.89-1.81c2-4.64,7.83-7.39,12.23-9.4l.23-.1c1.05-.49,2.12-.93,3.2-1.34.45-.19.91-.36,1.38-.53s1-.37,1.55-.54c1.05-.37,2.11-.69,3.18-1,.53-.15,1.06-.3,1.61-.44.39-.12.78-.21,1.18-.31l1.64-.4c.68-.16,1.35-.3,2-.44,22.13-4.62,40.07,5.21,49.29,26C227.85,151.9,228.72,161.25,225.53,169.36Z" transform="translate(-25.18 0.03)" fill="url(#linear-gradient-4)"/><path d="M155.79,180.79c6.22,4.92,13.72,7.87,21.11,10.75a54.08,54.08,0,0,0,8.55,2.8,53.6,53.6,0,0,0,11.11.71c7.85-.05,15.94-.07,23.21,2.9a7.24,7.24,0,0,0,3.82.87c2.26-.39,3.38-2.93,4-5.15a55.66,55.66,0,0,0,1.82-14.7,2.18,2.18,0,0,0-.15-.88,2.08,2.08,0,0,0-1.06-.82c-6.48-3-13.38-4.86-20.13-7.16-17.82-6.08-34.53-14.94-51.63-22.84-4.86-2.24-14.05-4.56-15.53,3-1.33,6.71,2.7,15.44,6.22,20.92A39.19,39.19,0,0,0,155.79,180.79Z" transform="translate(-25.18 0.03)" fill="url(#linear-gradient-5)"/><path d="M208.75,79.62c-10.5,1.53-21,4.46-29.94,10.14s-16.35,14.32-19,24.59c-4,15.51,2.93,31.53,9.73,46,1.9,4,3.85,8.17,7,11.37,3.47,3.54,8.11,5.66,12.64,7.69,11.05,5,22.43,10,34.52,10.52s25.24-4.57,30.76-15.34c3.34-6.51,3.54-14.22,6.45-20.93,1.32-3,3.18-5.82,4.58-8.82,4.43-9.48,4.06-20.75.41-30.55C256.34,88.81,235.58,75.72,208.75,79.62Z" transform="translate(-25.18 0.03)" fill="#68e1fd"/><path d="M260.2,116.57c-.05-.47-.11-.93-.2-1.4-.55-2.85-2.48-4.72-3.91-7a66.68,66.68,0,0,0-4.64-6.91,44.21,44.21,0,0,0-6.24-6.37c-1.45-1.21-5-2.45-4.62-4.67a64.88,64.88,0,0,1-7.9-3,8.88,8.88,0,0,0-2.09-.87,22.89,22.89,0,0,0-3.61,0,26,26,0,0,1-3.49-.72c-2.62-.51-5.32-.06-8-.14s-5.1-.65-7.66-.58a24.76,24.76,0,0,0-8.75,2.21c-1.87.78-3.83,1.67-5.84,1.44a8.28,8.28,0,0,0-2.74-.25,4.65,4.65,0,0,0-2,1.24c-5.93,5.23-12.82,9.65-17.27,16.31-4,6-6.15,13-7.37,20-.56,3.18-.67,6.57.63,9.53a44.73,44.73,0,0,1,2.08,4.3c.73,2.34.24,4.94,1.06,7.26a30.72,30.72,0,0,0,1.58,3.14,28.67,28.67,0,0,1,1.65,5,29.7,29.7,0,0,0,4.05,9.38,14.44,14.44,0,0,0,8.1,5.93,17.11,17.11,0,0,1,2.73.71c2.8,1.21,4,4.77,6.67,6.16,2.07,1.05,4.58.62,6.83,1.19a20.25,20.25,0,0,1,3.68,1.59,43.94,43.94,0,0,0,28.19,3.18,30.42,30.42,0,0,0,13-6,22.83,22.83,0,0,0,4.57-5.39c1.57-2.39,4.06-4.25,4.26-7.36.1-1.57-.43-3.12-.43-4.7,0-2.73,1.52-5.2,3-7.49l4.78-7.43a9.21,9.21,0,0,0,1.24-2.44c.61-2.31-.68-4.66-.87-7-.35-4.34,3-8.66,1.56-12.78-.38-1.11-1.09-2.09-1.48-3.2A13.37,13.37,0,0,1,260.2,116.57Z" transform="translate(-25.18 0.03)" fill="url(#linear-gradient-6)"/><path d="M256.82,143.15c-1.17,2.5-2.71,4.82-3.81,7.36-2.43,5.59-2.6,12-5.38,17.44-4.6,9-15.55,13.21-25.64,12.78s-19.56-4.63-28.77-8.76c-3.77-1.7-7.64-3.46-10.54-6.42-.24-.24-.47-.5-.69-.75l-.24-.28-.53-.66c-.25-.33-.49-.66-.72-1s-.4-.6-.59-.91l-.16-.26-.42-.72c-.19-.33-.37-.67-.55-1s-.36-.68-.53-1l-.51-1c-.29-.59-.58-1.21-.87-1.84a22.21,22.21,0,0,0-2.93-5,6.6,6.6,0,0,1-1.54-2.2,7.73,7.73,0,0,1-.16-1.8c-.17-3.4-2.59-6.5-2.24-9.88a9.44,9.44,0,0,0,.21-2.69,11.49,11.49,0,0,0-.6-1.67c-.78-2.25.17-4.72-.06-7.1a13,13,0,0,1-.2-2.41c.1-.85.53-1.64.65-2.5a11.25,11.25,0,0,0,0-2.09A10,10,0,0,1,173.3,111a6.11,6.11,0,0,0,1.29-1.3,7.41,7.41,0,0,0,.58-1.46,7.44,7.44,0,0,1,2.6-3.57,10.53,10.53,0,0,0,1.73-1.37,8.63,8.63,0,0,0,1-1.75c2.32-4.51,8.27-6.9,12.78-8.63l.24-.09q1.62-.63,3.27-1.14c.47-.16.93-.3,1.41-.44s1.06-.31,1.59-.45c1.07-.3,2.14-.56,3.23-.8l1.63-.34c.4-.09.8-.16,1.2-.24l1.66-.29c.69-.12,1.37-.22,2.05-.32,22.37-3.25,39.67,7.66,47.6,28.93C260.21,125.86,260.51,135.25,256.82,143.15Z" transform="translate(-25.18 0.03)" fill="url(#linear-gradient-7)"/><path d="M235.41,175.34a9.56,9.56,0,0,0,.85-1.76c.74-2.08,1.27-4.22,2.09-6.27,1.52-3.78,4-7.19,5.08-11.11,1.06-3.71.87-7.66,1.51-11.47.59-3.52,1.88-6.88,2.61-10.38,3.12-15-5.33-31.14-18.6-38.82.69,16.39,3.39,33,.11,49.06a111.23,111.23,0,0,1-3.73,13.15c-1.23,3.62-2,7.79-3.79,11.11a66.86,66.86,0,0,1-15.36,18.88A92.63,92.63,0,0,0,222.6,190a2.51,2.51,0,0,0,1.22-.15,2.43,2.43,0,0,0,.79-.74l8.48-10.64A30.28,30.28,0,0,0,235.41,175.34Z" transform="translate(-25.18 0.03)" fill="url(#linear-gradient-8)"/><path d="M185.85,81.16c-10.5,1.53-21,4.47-29.94,10.14s-16.35,14.32-19,24.59c-4,15.51,2.93,31.53,9.73,46,1.9,4,3.85,8.17,7,11.37,3.47,3.54,8.11,5.66,12.64,7.69,11,5,22.43,10,34.52,10.52s25.24-4.57,30.76-15.34c3.34-6.51,3.54-14.22,6.45-20.93,1.32-3,3.18-5.82,4.58-8.82,4.43-9.48,4.06-20.75.41-30.55C233.44,90.35,212.68,77.26,185.85,81.16Z" transform="translate(-25.18 0.03)" fill="#68e1fd"/><path d="M237.3,118.11c-.05-.47-.11-.93-.2-1.39-.55-2.86-2.48-4.72-3.91-7.06a65.49,65.49,0,0,0-4.64-6.9,43.77,43.77,0,0,0-6.24-6.38c-1.45-1.21-5-2.45-4.62-4.67a64.88,64.88,0,0,1-7.9-3,8.88,8.88,0,0,0-2.09-.87,22.89,22.89,0,0,0-3.61,0,24.56,24.56,0,0,1-3.49-.72c-2.62-.51-5.32-.06-8-.14s-5.1-.65-7.66-.58a24.56,24.56,0,0,0-8.75,2.22c-1.87.77-3.83,1.66-5.84,1.43a8.28,8.28,0,0,0-2.74-.25,4.65,4.65,0,0,0-2,1.24c-5.93,5.23-12.82,9.65-17.27,16.31-4,6-6.15,13-7.37,20-.56,3.18-.67,6.57.63,9.53a44.73,44.73,0,0,1,2.08,4.3c.73,2.34.24,4.95,1.06,7.26a32,32,0,0,0,1.58,3.15,28.3,28.3,0,0,1,1.65,5A29.7,29.7,0,0,0,152,166a14.44,14.44,0,0,0,8.1,5.93,18.25,18.25,0,0,1,2.73.71c2.8,1.22,3.95,4.77,6.67,6.16,2.07,1.05,4.57.62,6.83,1.2A19.53,19.53,0,0,1,180,181.6a43.94,43.94,0,0,0,28.19,3.18,30.42,30.42,0,0,0,13-6,22.83,22.83,0,0,0,4.57-5.39c1.57-2.39,4-4.25,4.26-7.36.1-1.57-.43-3.12-.43-4.7,0-2.73,1.52-5.2,3-7.49l4.78-7.43a9.06,9.06,0,0,0,1.24-2.44c.61-2.31-.68-4.66-.87-7-.35-4.34,3-8.66,1.56-12.78-.38-1.11-1.09-2.09-1.48-3.2A13.37,13.37,0,0,1,237.3,118.11Z" transform="translate(-25.18 0.03)" fill="url(#linear-gradient-9)"/><path d="M233.92,144.69c-1.17,2.5-2.71,4.82-3.81,7.36-2.43,5.59-2.6,12-5.38,17.44-4.6,9-15.55,13.21-25.64,12.78s-19.56-4.63-28.77-8.76c-3.77-1.7-7.64-3.46-10.54-6.42-.24-.24-.47-.5-.69-.75l-.24-.28-.53-.66c-.25-.33-.49-.66-.72-1s-.4-.6-.59-.91l-.16-.26-.42-.72c-.19-.33-.37-.67-.55-1s-.36-.68-.53-1l-.51-1c-.29-.59-.58-1.21-.87-1.84a22.21,22.21,0,0,0-2.93-5,6.6,6.6,0,0,1-1.54-2.2,7.73,7.73,0,0,1-.16-1.8c-.17-3.4-2.59-6.5-2.24-9.88a9.44,9.44,0,0,0,.21-2.69,11.49,11.49,0,0,0-.6-1.67c-.78-2.25.17-4.72-.06-7.1a13,13,0,0,1-.2-2.41c.1-.85.53-1.64.65-2.5a11.25,11.25,0,0,0,0-2.09,10,10,0,0,1,3.34-7.83,6.11,6.11,0,0,0,1.29-1.3,7.41,7.41,0,0,0,.58-1.46,7.44,7.44,0,0,1,2.6-3.57,10.53,10.53,0,0,0,1.73-1.37,8.63,8.63,0,0,0,1-1.75c2.32-4.51,8.27-6.9,12.78-8.63l.24-.09q1.62-.63,3.27-1.14c.47-.16.93-.3,1.41-.44l1.59-.45c1.07-.3,2.14-.56,3.23-.8l1.63-.34c.4-.09.8-.16,1.2-.24l1.66-.29c.69-.12,1.37-.22,2-.32,22.37-3.25,39.67,7.66,47.6,28.93C237.31,127.4,237.61,136.79,233.92,144.69Z" transform="translate(-25.18 0.03)" fill="url(#linear-gradient-10)"/><path d="M147.92,149a25.42,25.42,0,0,0-11.12,19.65,3.75,3.75,0,0,0,.43,2.32,2.74,2.74,0,0,0,3.5.56,6.87,6.87,0,0,0,2.49-2.91,32,32,0,0,0,3.07-8.13,83.06,83.06,0,0,1,30.08-6.67c-3.61,4.9-9.83,6.93-15.28,9.65s-11,7.49-10.63,13.57c2.13,1.23,4-1.82,5.54-3.75a15.72,15.72,0,0,1,5.32-3.79c10.7-5.59,21.5-11.2,33.11-14.51,15.18-4.32,31.43-4.57,46.2-10.16l2.45,4.16c2.8-2.42.71-7.46-2.72-8.82s-7.28-.36-10.9.37-7.78,1.07-10.63-1.27l24.61-10.21a1.78,1.78,0,0,1,1.49,1.72c2.43-.83,1.91-4.83-.32-6.09s-5-.71-7.52-.21c-9.8,1.93-19.82,2.3-29.8,2.66a3.1,3.1,0,0,0,.91-2.67l-19.09,2.93c-3.63.56-7.5,1.27-10.75,3.09s-4.74,4.71-7.36,7C164.41,143.34,155.11,144.22,147.92,149Z" transform="translate(-25.18 0.03)" fill="url(#linear-gradient-11)"/><path d="M184,143.49a22.6,22.6,0,0,0,6.92.69l8.76,0a5.36,5.36,0,0,0,2.29-.36,4.66,4.66,0,0,0,1.43-1.26,27.84,27.84,0,0,0,5.08-9,6,6,0,0,0,.41-2.32c-.13-1.66-1.44-3-2.7-4-1.62-1.41-3.67-2.85-5.72-2.23a6.48,6.48,0,0,0-1.69.88l-14.27,9.34c-1.35.88-5.42,2.62-5.4,4.29C179.17,141.32,182.59,143,184,143.49Z" transform="translate(-25.18 0.03)" fill="url(#linear-gradient-12)"/><path d="M176.61,123.56a2.83,2.83,0,0,0-1.47,1.07,2.67,2.67,0,0,0-.24,1.19l-.22,4.87a6.32,6.32,0,0,0,.07,1.57,5.81,5.81,0,0,0,.93,1.84l2.78,4.21a3.73,3.73,0,0,0,1,1.15,3.66,3.66,0,0,0,2.05.41q9.51.06,19-.71a2.58,2.58,0,0,0,1.1-.26,2.38,2.38,0,0,0,.72-.79,13.46,13.46,0,0,0,1.39-11.36c-2-.87-4-1.82-5.33-3.54-2.17-2.87-5.07-6.69-9.28-6-2.05.33-3.93,1.94-5.69,3A72,72,0,0,1,176.61,123.56Z" transform="translate(-25.18 0.03)" fill="#68e1fd"/><path d="M222.76,131.14a.88.88,0,0,0,1-.15,8.28,8.28,0,0,1,.83-.74,57.44,57.44,0,0,0,3.67,5.86c1.84-.6,2.58-2.84,2.58-4.77s-.46-3.92.09-5.78a4.71,4.71,0,0,0,.33-1.51,2.85,2.85,0,0,0-.65-1.42,13.73,13.73,0,0,0-3.86-3.58.87.87,0,0,0-.81-.16.84.84,0,0,0-.34.61c-.49,2.32.22,4.27-1,6.34C224.1,126.72,221.52,130.2,222.76,131.14Z" transform="translate(-25.18 0.03)" fill="#68e1fd"/><path d="M219,106.31a31.4,31.4,0,0,0-6.66-3.45,9.68,9.68,0,0,0,4.21,4.66c.62.34,1.37.73,1.47,1.43a2.6,2.6,0,0,0,.1.79c.23.49,1,.42,1.44.17C221.93,108.71,220.69,107.45,219,106.31Z" transform="translate(-25.18 0.03)" fill="#68e1fd"/><path d="M184.21,134.44a6.37,6.37,0,0,1-3.92-1.22c-1-.92-1.35-2.33-2.08-3.48a6.06,6.06,0,0,0-2.44-2.16c-.22,2.41-.37,5,.92,7.06.87,1.37,2.34,2.33,3.05,3.79l.47.75a1.94,1.94,0,0,0,1.7.61l16,.13a5.13,5.13,0,0,0,2.14-.3,4,4,0,0,0,1.19-.89,11.92,11.92,0,0,0,2.86-11.67c.18.56-3.2,3.33-3.75,3.71a19.24,19.24,0,0,1-4.87,2.36A29.57,29.57,0,0,1,184.21,134.44Z" transform="translate(-25.18 0.03)" fill="url(#linear-gradient-13)"/><path d="M104.73,73A29.9,29.9,0,1,1,74.84,43.08,29.86,29.86,0,0,1,104.73,73Z" transform="translate(-25.18 0.03)" fill="#68e1fd" opacity="0.18" style="isolation:isolate"/><path d="M89.29,99.14A29.9,29.9,0,1,1,52.81,52.76,29.9,29.9,0,0,0,89.29,99.14Z" transform="translate(-25.18 0.03)" fill="url(#linear-gradient-14)"/><circle cx="49.66" cy="73" r="24" fill="#fff"/><path d="M54.73,85V76.58a39.58,39.58,0,0,1,5.72-11.23c1.53-2,3.37-4,5.79-4.78a12.33,12.33,0,0,1,6.78.17c4.32,1.09,8.55,3.14,11.37,6.6s3.94,8.49,2,12.5c-1.14,2.38-3.3,4.88-2.2,7.27s4.55,2.38,6.83,1.15c4.46-2.42,6.56-7.7,7.31-12.72a27,27,0,0,0-.06-9.27,22.58,22.58,0,0,0-11.39-15.1,26.19,26.19,0,0,0-19-2.05c-6.89,1.82-13.16,6.54-16,13.08S49.72,80,54.73,85Z" transform="translate(-25.18 0.03)" fill="#68e1fd" opacity="0.13" style="isolation:isolate"/></svg>