<svg id="Layer_1" data-name="Layer 1" xmlns="http://www.w3.org/2000/svg" xmlns:xlink="http://www.w3.org/1999/xlink" viewBox="0 0 502.05 358.36"><defs><linearGradient id="linear-gradient" x1="182.05" y1="263.54" x2="244.05" y2="263.54" gradientUnits="userSpaceOnUse"><stop offset="0" stop-color="#010101" stop-opacity="0"/><stop offset="0.95" stop-color="#010101"/></linearGradient><linearGradient id="linear-gradient-2" x1="207.08" y1="272.04" x2="249.44" y2="254.15" xlink:href="#linear-gradient"/><linearGradient id="linear-gradient-3" x1="190.04" y1="206.45" x2="231.88" y2="205.66" xlink:href="#linear-gradient"/><linearGradient id="linear-gradient-4" x1="196.82" y1="139.97" x2="208" y2="144.97" xlink:href="#linear-gradient"/><linearGradient id="linear-gradient-5" x1="200.69" y1="196.32" x2="339.35" y2="196.32" xlink:href="#linear-gradient"/><linearGradient id="linear-gradient-6" x1="225.26" y1="124.4" x2="272.62" y2="249.11" gradientUnits="userSpaceOnUse"><stop offset="0" stop-color="#fff" stop-opacity="0"/><stop offset="0.95" stop-color="#fff"/></linearGradient><linearGradient id="linear-gradient-7" x1="297.66" y1="261.45" x2="336.15" y2="572.45" xlink:href="#linear-gradient"/><linearGradient id="linear-gradient-8" x1="203.92" y1="147.02" x2="209.71" y2="145.74" xlink:href="#linear-gradient"/><linearGradient id="linear-gradient-9" x1="225.88" y1="195.42" x2="234.26" y2="226.4" xlink:href="#linear-gradient"/><linearGradient id="linear-gradient-10" x1="189.1" y1="142.41" x2="192.65" y2="148.06" xlink:href="#linear-gradient"/><linearGradient id="linear-gradient-11" x1="250.95" y1="189.9" x2="301.84" y2="601.08" xlink:href="#linear-gradient-6"/></defs><title>Career 4</title><path d="M488.43,326.19c-18.64,18.53-46.37,24.64-72.63,25.48s-52.65-2.77-78.78.06c-18.72,2-36.75,7.23-54.66,13.15-14.07,4.65-28.09,9.7-42.28,14-32.21,9.64-67.92,14.88-98.76,1.51-15.78-6.84-29.15-18.05-42.89-28.4-29.55-22.2-62.51-41.68-83.34-72.24-4-5.77-7.49-12.11-8.44-19-2.8-20,15.22-35.83,28.73-50.8,25.26-28,38.66-64.51,57.86-97,18.56-31.45,45.19-57.63,80.6-69.1,34-11,70.59,9.73,104.06,14.07,1.49.2,3,.37,4.46.48,42.72,4,87.38-14,128,.06,20.72,7.2,37.73,22.06,54.19,36.58,7.18,6.31,14.52,12.87,18.75,21.42,8.36,16.87,2.89,36.86,1.6,55.64a120.86,120.86,0,0,0,5.27,44.52c5.64,17.89,15.48,34.59,17.78,53.21A68.76,68.76,0,0,1,488.43,326.19Z" transform="translate(-6.36 -30.04)" fill="#68e1fd" opacity="0.24" style="isolation:isolate"/><path d="M67.66,355.24" transform="translate(-6.36 -30.04)" fill="none"/><path d="M185.34,249.23l46.81-12.81a5.82,5.82,0,0,1,7.3,4.81L243,267a5.82,5.82,0,0,1-4,6.33l-45,14.61a5.82,5.82,0,0,1-7.51-4.41L181.17,256A5.83,5.83,0,0,1,185.34,249.23Z" transform="translate(-6.36 -30.04)" fill="#606161"/><path d="M186.33,251.48l46.81-11.92a5.83,5.83,0,0,1,7.3,4.48L244,268a5.39,5.39,0,0,1-4,5.88l-45,13.6a5.86,5.86,0,0,1-7.51-4.1l-5.39-25.6A5.4,5.4,0,0,1,186.33,251.48Z" transform="translate(-6.36 -30.04)" fill="url(#linear-gradient)"/><polygon points="219.16 230.48 215.61 310.2 207.32 309.8 201 232.85 219.16 230.48" fill="#f4a982"/><polygon points="219.16 230.48 215.61 310.2 207.32 309.8 201 232.85 219.16 230.48" fill="url(#linear-gradient-2)"/><polygon points="221.53 234.82 227.05 309.15 219.95 309.15 205.74 241.53 221.53 234.82" fill="#f4a982"/><path d="M193.06,236.62c1,1.09,2.95.57,3.81-.63s2.42-2.39,2.46-3.86c.11-4.86-1.26-10.11-1.14-15a81.83,81.83,0,0,0-.28-11.72c-.73-6-2.78-11.81-3.54-17.82-.51-4,0-8.11-.53-12.1C190.72,195.69,196.53,216.34,193.06,236.62Z" transform="translate(-6.36 -30.04)" fill="#68e1fd"/><path d="M193.06,236.62c1,1.09,2.95.57,3.81-.63s2.42-2.39,2.46-3.86c.11-4.86-1.26-10.11-1.14-15a81.83,81.83,0,0,0-.28-11.72c-.73-6-2.78-11.81-3.54-17.82-.51-4,0-8.11-.53-12.1C190.72,195.69,196.53,216.34,193.06,236.62Z" transform="translate(-6.36 -30.04)" fill="#68e1fd"/><path d="M193.06,236.62c1,1.09,2.95.57,3.81-.63s2.42-2.39,2.46-3.86c.11-4.86-1.26-10.11-1.14-15a81.83,81.83,0,0,0-.28-11.72c-.73-6-2.78-11.81-3.54-17.82-.51-4,0-8.11-.53-12.1C190.72,195.69,196.53,216.34,193.06,236.62Z" transform="translate(-6.36 -30.04)" fill="url(#linear-gradient-3)"/><path d="M193.54,236.23a41,41,0,0,0,.23,8.43,2.28,2.28,0,0,0,.52,1.41,2.07,2.07,0,0,0,1.37.46,6.33,6.33,0,0,0,3.22-.74,2.25,2.25,0,0,0,.67-.47,2.59,2.59,0,0,0,.51-1.07,14,14,0,0,0,.39-3c.1-2,.38-6.14-1.81-7.28C196.7,233,193.71,234,193.54,236.23Z" transform="translate(-6.36 -30.04)" fill="#f4a982"/><path d="M214.66,136.12l.78,2.79c.39,1.39.88,2.91,2.11,3.66.61.37,1.47.66,1.51,1.37a1.75,1.75,0,0,1-.31.92,8.54,8.54,0,0,0-1,4.12,6.6,6.6,0,0,1-.18,2.77,3.7,3.7,0,0,1-.95,1.21,7.51,7.51,0,0,1-3.85,1.8,4.46,4.46,0,0,0-1.5.36c-1,.54-1.13,1.84-1.18,2.94l-.12,2.22c-.05,1.12,0,3.58,0,4.69-2.58-1.05-5.07-3.66-7.39-5.21a4.11,4.11,0,0,1-1.2-1.07,3.75,3.75,0,0,1-.46-1.93c-.06-2.52.56-5,.3-7.56-.2-1.86-.87-3.65-1.15-5.5a11.4,11.4,0,0,1,1.18-7.08,9.25,9.25,0,0,1,5.52-4.5,7,7,0,0,1,4.78.29A6,6,0,0,1,214.66,136.12Z" transform="translate(-6.36 -30.04)" fill="#f4a982"/><path d="M208.56,129.59a14,14,0,0,0-6.1-.07,10.13,10.13,0,0,0-2.09.58,11.92,11.92,0,0,0-4.79,4.35,15.16,15.16,0,0,0-1.61,2.67c-1,2.2-1,4.67-1.35,7-.11.83,4.75,11.74,5.08,11.87a5.17,5.17,0,0,1,.59.36,4.86,4.86,0,0,0,5.66-1.51,3.54,3.54,0,0,0,0-2.62c-.28-.85-.74-1.63-1.07-2.46a9,9,0,0,1-.65-3.8,2.74,2.74,0,0,1,.42-1.53,1.19,1.19,0,0,1,1.41-.45c.51.26.87,1,1.42.85a.72.72,0,0,0,.42-.76,3.57,3.57,0,0,0-.29-.89,3.93,3.93,0,0,1,.07-3c.65-1.46,2.09-2.37,3.34-3.36a19.08,19.08,0,0,0,2.24-2.07c.46-.49,1.66-1.52,1.61-2.25C212.8,131.06,209.69,129.89,208.56,129.59Z" transform="translate(-6.36 -30.04)" fill="#606161"/><path d="M208.56,129.59a14,14,0,0,0-6.1-.07,10.13,10.13,0,0,0-2.09.58,11.92,11.92,0,0,0-4.79,4.35,15.16,15.16,0,0,0-1.61,2.67c-1,2.2-1,4.67-1.35,7-.11.83,4.75,11.74,5.08,11.87a5.17,5.17,0,0,1,.59.36,4.86,4.86,0,0,0,5.66-1.51,3.54,3.54,0,0,0,0-2.62c-.28-.85-.74-1.63-1.07-2.46a9,9,0,0,1-.65-3.8,2.74,2.74,0,0,1,.42-1.53,1.19,1.19,0,0,1,1.41-.45c.51.26.87,1,1.42.85a.72.72,0,0,0,.42-.76,3.57,3.57,0,0,0-.29-.89,3.93,3.93,0,0,1,.07-3c.65-1.46,2.09-2.37,3.34-3.36a19.08,19.08,0,0,0,2.24-2.07c.46-.49,1.66-1.52,1.61-2.25C212.8,131.06,209.69,129.89,208.56,129.59Z" transform="translate(-6.36 -30.04)" fill="url(#linear-gradient-4)"/><path d="M228.28,272.36c0,.95-20.36,4.31-21.11,2.76-2.28-4.65-2.24-8.95-4.52-13.6s-4.47-9.17-5.4-14.16,1.21-10.86,4.19-15c3.17-4.33,6.88-6.06,11.89-8,2.86-1.09,12.65-5.51,15.47-2.89C231.12,223.67,227.89,259.77,228.28,272.36Z" transform="translate(-6.36 -30.04)" fill="#606161"/><path d="M230.25,229.27,209,235.89l-11.66,3.61s2-26.15-.34-32.6-4.48-32.88-3.48-35.38c0,0,1.71-14.91,6.17-14.91a5.28,5.28,0,0,1,1.12.14c4.18.9,8.58,6.5,10.52,9.05,2.13,2.78,11.32,15.06,12.25,18.23S230.25,229.27,230.25,229.27Z" transform="translate(-6.36 -30.04)" fill="#68e1fd"/><path d="M209,235.89c.7-4.07,4.43-28-.42-32-13.71-11.24-13-28-12.06-30.44a131.79,131.79,0,0,1,4.29-16.71c4.18.9,8.58,6.5,10.52,9.05,2.13,2.78,11.32,15.06,12.25,18.23s6.7,45.24,6.7,45.24Z" transform="translate(-6.36 -30.04)" fill="url(#linear-gradient-5)"/><polygon points="476.92 86.34 12.88 256.25 10.61 252.63 8.73 249.66 470.33 76.3 471.73 75.77 476.92 86.34" fill="#68e1fd"/><polygon points="473.67 83.09 10.61 252.63 8.73 249.66 470.33 76.3 473.67 83.09" fill="url(#linear-gradient-6)"/><path d="M98.43,352l386-153,20.52,60.51L159.74,386.81S104.47,367.08,98.43,352Z" transform="translate(-6.36 -30.04)" fill="#68e1fd"/><path d="M102,357.1,486.37,204.24l18.56,55.23L159.74,386.81S113.55,370.26,102,357.1Z" transform="translate(-6.36 -30.04)" fill="url(#linear-gradient-7)"/><path d="M205,146.57a1.09,1.09,0,0,1-.4-.5c-.06-.14-.1-.32-.24-.4s-.46,0-.6.24a1.16,1.16,0,0,0-.19.77,1.65,1.65,0,0,0,.29.77,1.61,1.61,0,0,0,.46.51.89.89,0,0,0,.65.17,1.75,1.75,0,0,0,.43-.17.67.67,0,0,0,.16-.12.38.38,0,0,0,.09-.18,1.19,1.19,0,0,0,0-.85C205.48,146.6,205.22,146.71,205,146.57Z" transform="translate(-6.36 -30.04)" fill="url(#linear-gradient-8)"/><path d="M246.43,185.76a7.41,7.41,0,0,0-3.35.94,2.91,2.91,0,0,0-1.43,3A4.25,4.25,0,0,0,244,192c1.61.89,3.43,1.74,5.22,1.34,2.41-.55,3.83-3.13,6.11-4.08a9.2,9.2,0,0,1,4-.43c.51,0,1.12,0,1.42-.4a1,1,0,0,0-.11-1.19,2.46,2.46,0,0,0-1.07-.68C255.6,185.05,250.59,185.32,246.43,185.76Z" transform="translate(-6.36 -30.04)" fill="#f4a982"/><path d="M201.56,194.17a15.65,15.65,0,0,0,2.31,3.75,11.11,11.11,0,0,0,6.94,3.12c4.54.55,9.1-.52,13.53-1.61s9.12-2.3,13.68-3.47c2-.51,4.12-1.1,5.48-2.65,1.85-2.12,1.68-5.27,1.4-8.07-8.47.09-29.71,2.13-30.58,1.63s-1.76-4-2.22-4.72c-1.86-3-3.37-6.21-5.41-9.09-3.11-4.38-9.65-10.27-13-2.35C190.69,177.78,198.6,188.13,201.56,194.17Z" transform="translate(-6.36 -30.04)" fill="#68e1fd"/><path d="M207.45,197.83s1,2.26,2.47,3,11.05-.1,21.41-3.36,10.5-2,12.82-5C244.15,192.45,221.36,199.5,207.45,197.83Z" transform="translate(-6.36 -30.04)" fill="url(#linear-gradient-9)"/><circle cx="311.77" cy="48.41" r="48.41" fill="#68e1fd" opacity="0.24" style="isolation:isolate"/><circle cx="70.77" cy="127.34" r="48.41" fill="#68e1fd" opacity="0.24" style="isolation:isolate"/><circle cx="315.45" cy="51.04" r="48.41" fill="#fff" style="isolation:isolate"/><circle cx="74.45" cy="129.97" r="48.41" fill="#fff" style="isolation:isolate"/><path d="M186.68,140.14a3.44,3.44,0,0,0-1.08.67,3.34,3.34,0,0,0-.8,1.52,7.38,7.38,0,0,0,2.91,7.89,4,4,0,0,0,2.19.77c1.71,0,3-1.56,3.84-3a11.35,11.35,0,0,0,1.56-4c.26-1.76.12-4-1.78-4.5A12.29,12.29,0,0,0,186.68,140.14Z" transform="translate(-6.36 -30.04)" fill="#606161"/><path d="M186.68,140.14a3.44,3.44,0,0,0-1.08.67,3.34,3.34,0,0,0-.8,1.52,7.38,7.38,0,0,0,2.91,7.89,4,4,0,0,0,2.19.77c1.71,0,3-1.56,3.84-3a11.35,11.35,0,0,0,1.56-4c.26-1.76.12-4-1.78-4.5A12.29,12.29,0,0,0,186.68,140.14Z" transform="translate(-6.36 -30.04)" fill="url(#linear-gradient-10)"/><path d="M19.24,286.31l464-169.92s7.05,14.44,3.1,28.65-2,53.92-2,53.92l-386,153S21.76,296.55,19.24,286.31Z" transform="translate(-6.36 -30.04)" fill="url(#linear-gradient-11)"/><path d="M113.13,160a30.48,30.48,0,0,1-2.58,12.35,31.47,31.47,0,1,1-29.74-43.65h.79A31.42,31.42,0,0,1,113.13,160Z" transform="translate(-6.36 -30.04)" fill="#68e1fd" opacity="0.24" style="isolation:isolate"/><path d="M113.13,160a30.48,30.48,0,0,1-2.58,12.35L80.81,160v-31.3h.79A31.42,31.42,0,0,1,113.13,160Z" transform="translate(-6.36 -30.04)" fill="#68e1fd" opacity="0.4" style="isolation:isolate"/><path d="M346.31,95.92H299.24V58.08a.89.89,0,0,1,1.77,0V94.15h45.3a.89.89,0,1,1,0,1.77Z" transform="translate(-6.36 -30.04)" fill="#68e1fd"/><path d="M300,90.59a.89.89,0,0,1-.54-1.59l15.89-12h11.18l14.42-9.5a.89.89,0,1,1,1,1.48L327,78.78H315.9L300.49,90.41A.89.89,0,0,1,300,90.59Z" transform="translate(-6.36 -30.04)" fill="#68e1fd"/><polygon points="332.02 36.46 337.06 36.28 335.71 41.39 332.02 36.46" fill="#68e1fd"/></svg>