<svg id="Layer_1" data-name="Layer 1" xmlns="http://www.w3.org/2000/svg" xmlns:xlink="http://www.w3.org/1999/xlink" viewBox="0 0 359.44 256.9"><defs><linearGradient id="linear-gradient" x1="167.81" y1="247.21" x2="248.9" y2="119.66" gradientUnits="userSpaceOnUse"><stop offset="0.01"/><stop offset="0.13" stop-opacity="0.69"/><stop offset="1" stop-opacity="0"/></linearGradient><linearGradient id="linear-gradient-2" x1="209.68" y1="90.13" x2="210.06" y2="229.79" xlink:href="#linear-gradient"/><linearGradient id="linear-gradient-3" x1="237.57" y1="108.82" x2="239.55" y2="78.13" xlink:href="#linear-gradient"/><linearGradient id="linear-gradient-4" x1="183.08" y1="157.27" x2="181.95" y2="31.88" xlink:href="#linear-gradient"/><linearGradient id="linear-gradient-5" x1="247.46" y1="134.7" x2="248.45" y2="98.24" xlink:href="#linear-gradient"/><linearGradient id="linear-gradient-6" x1="199.63" y1="106.08" x2="236.65" y2="109.32" xlink:href="#linear-gradient"/><linearGradient id="linear-gradient-7" x1="236.11" y1="184.63" x2="235.73" y2="106.17" xlink:href="#linear-gradient"/><linearGradient id="linear-gradient-8" x1="247.76" y1="200.37" x2="248.89" y2="115.52" xlink:href="#linear-gradient"/><linearGradient id="linear-gradient-9" x1="211.71" y1="83.74" x2="250.76" y2="132.54" xlink:href="#linear-gradient"/><linearGradient id="linear-gradient-10" x1="138.69" y1="153.98" x2="275.59" y2="153.98" gradientUnits="userSpaceOnUse"><stop offset="0.01" stop-color="#fff"/><stop offset="0.13" stop-color="#fff" stop-opacity="0.69"/><stop offset="1" stop-color="#fff" stop-opacity="0"/></linearGradient><linearGradient id="linear-gradient-11" x1="146.13" y1="196.33" x2="176.39" y2="196.33" xlink:href="#linear-gradient-10"/><linearGradient id="linear-gradient-12" x1="162.04" y1="130.08" x2="204.46" y2="108.31" xlink:href="#linear-gradient"/><linearGradient id="linear-gradient-13" x1="91.41" y1="144.26" x2="186.3" y2="110.47" xlink:href="#linear-gradient"/><linearGradient id="linear-gradient-14" x1="207.45" y1="88.73" x2="171.41" y2="111.25" gradientUnits="userSpaceOnUse"><stop offset="0.01"/><stop offset="0.13" stop-opacity="0.69"/><stop offset="0.33" stop-opacity="0.46"/><stop offset="1" stop-opacity="0"/></linearGradient><linearGradient id="linear-gradient-15" x1="216.06" y1="140.71" x2="194.29" y2="109.93" xlink:href="#linear-gradient-14"/><linearGradient id="linear-gradient-16" x1="273.82" y1="108.45" x2="180.53" y2="107.7" gradientUnits="userSpaceOnUse"><stop offset="0.01"/><stop offset="0.13" stop-opacity="0.69"/><stop offset="0.19" stop-opacity="0.58"/><stop offset="1" stop-opacity="0"/></linearGradient><linearGradient id="linear-gradient-17" x1="190.15" y1="94.78" x2="222.25" y2="129.04" xlink:href="#linear-gradient-16"/><linearGradient id="linear-gradient-18" x1="257.75" y1="64.86" x2="243.58" y2="78.54" xlink:href="#linear-gradient"/></defs><title>27</title><path d="M251.69,38.12c-30.51-3.59-63.23-6.8-90.34,7.65-21.44,11.43-36,32.19-53.53,49-14,13.42-30.18,24.43-44.66,37.36s-27.61,28.4-33,47c-8.76,30.12,4.63,63.28,26.49,85.77,11.62,12,26,21.82,42.27,25.43,19.54,4.34,39.94-.61,58.72-7.51s37-15.83,56.57-19.87c17.57-3.62,35.72-3.19,53.59-1.61,16.62,1.47,33.69,3.88,49.75-.64s29.4-15.5,41.64-26.81c10.41-9.62,20.74-20.22,25.17-33.68,5.3-16.06,1.4-33.63-3.89-49.69a299,299,0,0,0-23.8-53.73c-5.48-9.67-11.63-19.19-20.11-26.38-6.26-5.31-13.6-9.18-20.87-13C304.92,51.77,294.1,46,282.58,42.13,272.3,38.63,262.39,39.38,251.69,38.12Z" transform="translate(-27.42 -35.07)" fill="#68e1fd" opacity="0.18" style="isolation:isolate"/><ellipse cx="213.93" cy="174.67" rx="85.95" ry="26.61" fill="url(#linear-gradient)"/><path d="M281.05,129.39l-7.41,35-10.25,48.37c0,10.84-23.95,19.63-53.5,19.63s-53.49-8.79-53.49-19.63l-10.22-48.12-.05-.26-7.44-35.06c1.85,4.35,6.59,8.34,13.47,11.71h0c13.14,6.44,34.1,10.61,57.72,10.61C245.78,151.62,275.54,142,281.05,129.39Z" transform="translate(-27.42 -35.07)" fill="#68e1fd"/><path d="M273.64,164.36l-10.25,48.37c0,10.84-23.95,19.63-53.5,19.63s-53.49-8.79-53.49-19.63l-10.27-48.38c12.08,8.39,36.1,14.11,63.76,14.11S261.55,172.75,273.64,164.36Z" transform="translate(-27.42 -35.07)" fill="#68e1fd"/><path d="M273.64,164.36l-10.25,48.37c0,5-5.16,9.62-13.65,13.1a89.24,89.24,0,0,1-21.46,5.34l-.19,0-.24,0-.26,0a139.9,139.9,0,0,1-17.7,1.1c-3.35,0-6.63-.11-9.81-.33a123.8,123.8,0,0,1-15.68-2l-.08,0c-3-.61-5.91-1.32-8.56-2.13l-1.25-.39c-.58-.19-1.15-.38-1.71-.58l-.11,0a44,44,0,0,1-10-4.85c-4-2.76-6.31-5.91-6.31-9.25l-10.27-48.38a43,43,0,0,0,3.91,2.39A72.27,72.27,0,0,0,162.68,172h0a141.55,141.55,0,0,0,30,5.71h0c5.51.5,11.28.76,17.21.76a189.63,189.63,0,0,0,19.3-1,143.14,143.14,0,0,0,25.91-4.89h0C262.71,170.36,269,167.56,273.64,164.36Z" transform="translate(-27.42 -35.07)" fill="url(#linear-gradient-2)"/><path d="M281.05,129.38h0c-5.51,12.6-35.27,22.23-71.16,22.23s-65.8-9.68-71.2-22.33l-.88-4.13Z" transform="translate(-27.42 -35.07)" fill="#68e1fd"/><path d="M282,125.16a10.33,10.33,0,0,1-.92,4.22h0c-5.51,12.6-35.27,22.23-71.16,22.23s-65.8-9.68-71.2-22.33a10.4,10.4,0,0,1-.88-4.13c0-14.61,32.27-26.45,72.08-26.45S282,110.55,282,125.16Z" transform="translate(-27.42 -35.07)" fill="#fff"/><path d="M225.72,80.22a1.4,1.4,0,0,1,.93.2A1.58,1.58,0,0,1,227,81l1,2.24a8.66,8.66,0,0,1,1.9-2.26,3,3,0,0,1,2.79-.56,3.16,3.16,0,0,0,.95.33,1.73,1.73,0,0,0,1.13-.58l2.68-2.32c.53-.46,1.11-1,1.05-1.72a2.13,2.13,0,0,0-.41-.94,42.77,42.77,0,0,0-7.09-8.5,20.23,20.23,0,0,0-3.35.44c-1.12.09-2.48-.39-2.71-1.5-.32-1.57,1.76-2.49,2.5-3.92.4-.79.4-1.76.92-2.46.75-1,2.21-1,3.46-1s2.83.37,3,1.6a7.48,7.48,0,0,1-.2,1.68c-.09,1.5,1.31,2.61,2.51,3.53a33.74,33.74,0,0,1,6,5.92,12.9,12.9,0,0,0,2.21,2.45c1.62,1.24,3.76,1.48,5.65,2.24a13.76,13.76,0,0,1,6.53,6,33,33,0,0,1,3.2,8.43,7.36,7.36,0,0,1,.35,3,6.5,6.5,0,0,1-1.83,3.26c-5.62,6.2-14.25,8.56-21.2,13.21-2.37,1.59-4.66,3.5-7.46,4.07-4.33.88-8.72-1.81-11.39-5.33a12.08,12.08,0,0,1-2.05-3.82,15.61,15.61,0,0,1-.35-5.58c.24-3.43.72-6.9.14-10.28a13.72,13.72,0,0,1-.39-3.3C216.88,81.19,222.5,80.31,225.72,80.22Z" transform="translate(-27.42 -35.07)" fill="#68e1fd"/><path d="M261.1,93.1A5.54,5.54,0,0,1,260,95.54c-.22.29-.46.56-.7.83-5.62,6.19-14.24,8.55-21.19,13.21-2.37,1.59-4.67,3.5-7.46,4.06-4.34.88-8.72-1.8-11.4-5.33a12.08,12.08,0,0,1-2.05-3.82,15.61,15.61,0,0,1-.35-5.58c.24-3.43.73-6.89.15-10.28a13.19,13.19,0,0,1-.4-3.3c.32-4.14,5.94-5,9.17-5.11a1.36,1.36,0,0,1,.93.21A1.4,1.4,0,0,1,227,81c.32.74.63,1.49,1,2.23a9,9,0,0,1,1.9-2.26,3,3,0,0,1,2.79-.56,2.88,2.88,0,0,0,1,.33,1.81,1.81,0,0,0,1.13-.57l2.68-2.32a4.93,4.93,0,0,0,.7-.74,1.39,1.39,0,0,0,.34-1,2.22,2.22,0,0,0-.4-1,43.1,43.1,0,0,0-7.1-8.49,20.37,20.37,0,0,0-3.35.44c-1.12.09-2.48-.39-2.7-1.5-.32-1.58,1.75-2.5,2.49-3.93.4-.78.4-1.75.93-2.46a3.06,3.06,0,0,1,2.43-1c.34,0,.69,0,1,0,1.25,0,2.83.37,3,1.59a7.4,7.4,0,0,1-.19,1.68c-.09,1.51,1.31,2.62,2.5,3.53a33.14,33.14,0,0,1,6,5.93,13.57,13.57,0,0,0,2.21,2.45,6.1,6.1,0,0,0,.94.58,10,10,0,0,0,1.62.65c.9.3,1.83.53,2.71.86l.38.14a13.93,13.93,0,0,1,6.54,6,33.54,33.54,0,0,1,3.19,8.43A7.58,7.58,0,0,1,261.1,93.1Z" transform="translate(-27.42 -35.07)" fill="url(#linear-gradient-3)"/><ellipse cx="182.47" cy="90.09" rx="65.69" ry="24.11" fill="#68e1fd"/><ellipse cx="182.47" cy="90.09" rx="65.69" ry="24.11" fill="url(#linear-gradient-4)"/><path d="M238.69,83.93c1.27-1.5,2.69-3.07,4.6-3.5,2.57-.56,5.05,1.12,7.12,2.74,1.69,1.31,3.45,2.78,4,4.85a22.34,22.34,0,0,0,.6,3c.7,1.67,2.55,2.49,4,3.56a10.9,10.9,0,0,1,3.9,11.69c-1.52,4.93-6.3,8-10.91,10.33s-9.65,4.38-12.7,8.53c-1.13,1.55-2,3.41-3.75,4.26s-3.67.46-5.53.2a37.45,37.45,0,0,0-20.61,3.05,23.26,23.26,0,0,1-1.24-6.62,7.82,7.82,0,0,1,2.54-6c3.5-2.83,5.24-4.36,7.23-8.53a44.93,44.93,0,0,1,3.75-6.66C226.84,97.48,232.92,90.72,238.69,83.93Z" transform="translate(-27.42 -35.07)" fill="#68e1fd"/><path d="M259.13,105.44a2.45,2.45,0,0,1,.91,1.1,9.64,9.64,0,0,1,.81-4.65l-1.6-3.53a2.16,2.16,0,0,1,1.38-.31c2.17,1.59,2.89,4.65,2.28,7.27a14,14,0,0,1-4.29,6.69,16.36,16.36,0,0,1-9.15,4.77,9.59,9.59,0,0,0-1.85.26,7.48,7.48,0,0,0-2.24,1.28,76,76,0,0,1-9.74,6c-.87.45-2,.83-2.71.1,1.15-1.91,3.93-2,5.55-3.56a5.46,5.46,0,0,0,1.32-5.08,7.53,7.53,0,0,1-.34-2.14c.16-2.07,2.53-3.07,4.08-4.46a13.29,13.29,0,0,0,2-2.42c1.94-2.76,4-5.94,3.32-9.25a9.73,9.73,0,0,1-.24-1.31c-.07-1.08.44-2.32-.25-3.15a18.1,18.1,0,0,1,3.4,5.42,2.84,2.84,0,0,1,.15,2.44c-.34.6-1.07.93-1.34,1.57-.48,1.13.6,2.77-.39,3.48-.52.37-1.36.18-1.76.68a2.8,2.8,0,0,0-.32,1c-.43,1.41-2.38,1.5-3.84,1.3a2.72,2.72,0,0,0,2.58,3.77l-1,2.07,3.2-3.29a1.85,1.85,0,0,1,.85-.59,4.26,4.26,0,0,1,1.36.16c1.27.09,2.14-1.3,2.34-2.56s.05-2.62.67-3.73c.1-.19.26-.39.48-.39a.6.6,0,0,1,.38.19c1.53,1.34.92,3.93-.42,5.46-.7.81-6.37,4.78-4.41,5.78,1.28-2.94,3.17-1.91,5.54-3a5.68,5.68,0,0,0,2.63-3.13C258.57,109.28,259.16,105.46,259.13,105.44Z" transform="translate(-27.42 -35.07)" fill="url(#linear-gradient-5)"/><path d="M236.26,95.61c.16,1.31-1.15,2.26-2.27,3-2.1,1.31-4.2,3-4.86,5.38s.24,4.91-.39,7.26c2.23-1.33,4.53-2.56,6.88-3.68a1.11,1.11,0,0,1,.72-.16c.74.16.46,1.29,0,1.89a34.1,34.1,0,0,1-3.1,3.48c-.71.7-1.52,1.64-1.17,2.58s1.65,1.21,2,2.15l-3.59,2.13a.93.93,0,0,0-.34.28.72.72,0,0,0,0,.64,2.42,2.42,0,0,0,2.59,1.15,7,7,0,0,0,2.73-1.31l4-2.67a6.67,6.67,0,0,1,4-1.57.94.94,0,0,1,.59.2c.34.32.15.88-.09,1.27a17.81,17.81,0,0,1-4.88,4.75c-3.26,2.46-6.9,5-11,4.8a4.44,4.44,0,0,0-1,0,4.68,4.68,0,0,0-1.23.5,12.1,12.1,0,0,1-2.65.8c-3.1.68-6.26,1.36-9.41,1-1-.1-2.34-.15-2.72.79-.91-1.37-1.85-2.87-1.71-4.51s1.3-3,2.47-4.09c1.83-1.78,3.84-3.42,5.17-5.6,1.43-2.34,2-5.14,3.35-7.52,1.27-2.21,3.21-3.94,4.88-5.88,2.4-2.79,4.25-6,6.38-9,.78-1.1,7.41-9.06,8.28-6.89.41,1-1.43,3.29-2,3.93s-1.68,1.11-2,1.92C235.21,93.78,236.13,94.48,236.26,95.61Z" transform="translate(-27.42 -35.07)" fill="url(#linear-gradient-6)"/><path d="M201.3,126.17c-.85-3.94.45-8.17-.79-12-.73-2.25-2.27-4.14-3.39-6.23-1.37-2.55-2.09-5.41-3.44-8a18.49,18.49,0,0,0-7.39-7.56,3.48,3.48,0,0,0-1.91-.58A3.85,3.85,0,0,0,182.2,93a67.09,67.09,0,0,0-6.11,6,7.72,7.72,0,0,0-1.58,2.31c-.67,1.75-.08,3.7.43,5.5,1.22,4.23,2.06,8.8.74,13-1.26,4-4.41,7.46-4.64,11.66-.22,3.77,2.08,7.36,5.15,9.56s6.82,3.23,10.53,3.94,7.49,1.15,11.07,2.37c2.38.81,4.75,2,7.27,1.92,3.24-.08,6-2.15,8.6-4.14a5.42,5.42,0,0,0,2.74-5.42l.22-11.82a3.16,3.16,0,0,0-.63-2.42c-.8-.77-2.15-.47-3.06.15a9,9,0,0,0-3.05,4.72c-.46,1.32-.52,4.18-2.15,4.46C204.75,135.37,201.74,128.25,201.3,126.17Z" transform="translate(-27.42 -35.07)" fill="#68e1fd"/><path d="M206.86,139.64c.42-1.15.39-2.82,1.58-3.1a1.89,1.89,0,0,1,1,.12,13.59,13.59,0,0,1,2.74,1.73,19.65,19.65,0,0,0,4.68,2.08c1.76.61,3.66,1.22,5.45.72,2.39-.66,3.8-3,5.2-5.07a35.12,35.12,0,0,1,6.19-6.86q-1.23,3.21-2.15,6.52c1.8,1,4,2,5.82,1.14a18,18,0,0,0,1.55-1c1.6-.93,3.56-.89,5.41-.83l8.69.28c1.49.05,3.24,0,4.09-1.25.63-.91.71-2.37,1.76-2.68,1.3-.38,2.52,1.52,3.79,1,.55-.21.84-.81,1.28-1.22,1.56-1.47,4.53-.2,6-1.72,1.12-1.12.81-3.25,2.1-4.18.39-.28.87-.41,1.26-.69,1.3-1,1-3.29,2.4-4.1a4.2,4.2,0,0,1,2.91,3.35,6.78,6.78,0,0,1-.94,4.49c-2.29,4-7,5.88-10.49,8.85-1.63,1.38-3,3-4.63,4.43a25.53,25.53,0,0,1-19.42,6.09c-3.11-.33-6.13-1.2-9.24-1.47-3-.26-5.93,0-8.9-.09-3.81-.16-7.72-1-11.37.1-1.53.46-2.94,1.24-4.45,1.73-5.41,1.77-11.35-.25-16.25-3.15,2.12-1.6,4-3.8,6.84-3.5C202.29,141.71,205.61,142.81,206.86,139.64Z" transform="translate(-27.42 -35.07)" fill="url(#linear-gradient-7)"/><path d="M279.82,126.32c-1.09,3.68-4,6.55-7.14,8.78s-6.6,4-9.56,6.44c-1.76,1.46-3.36,3.18-5.4,4.21a18.27,18.27,0,0,1-7.59,1.45c-4.59.17-9.18.16-13.77.15a37.51,37.51,0,0,1-7.71-.54h-.06c-1.12-.24-2.22-.58-3.35-.76h0l-.72-.09c-3-.3-5.95.81-8.91.5a8.54,8.54,0,0,1-6-3.37,7.13,7.13,0,0,1-.9-6.72,8.7,8.7,0,0,1,2.81-3.48,18.32,18.32,0,0,1,1.56-1.1c5.11-3.24,11.07-4.28,16.54-6.54,5.67-2.35,10.86-4,15.66-8.06a15.41,15.41,0,0,1,2.23-1.72c.15-.09.31-.17.47-.25a9.19,9.19,0,0,1,3.33-.7c1-.07,2.05-.08,3.08-.07,4.55,0,9.17.54,13.38-1.07,2.19-.84,4.52-2.24,6.71-1.39a1.87,1.87,0,0,1,.32.15h0a6.4,6.4,0,0,1,2,1.74C279.62,117.29,281.08,122.05,279.82,126.32Z" transform="translate(-27.42 -35.07)" fill="#68e1fd"/><path d="M272.94,129.44a2.08,2.08,0,0,1-1,.92,2.74,2.74,0,0,1-1.41-.12c-3.24-.65-6,2.49-9.21,3.17a11,11,0,0,0-3.27.73c-2.25,1.28-2,4.76-3.88,6.56s-5,1.18-7.32.08-4.8-2.6-7.36-2.15a22.65,22.65,0,0,0-2.35.72,10.68,10.68,0,0,1-8.95-1.28,4.23,4.23,0,0,1-4.1,1.94c-.14-1.93,1.53-3.59,3.36-4.23a24.46,24.46,0,0,1,5.74-.72,20.33,20.33,0,0,0,9.81-3.58,3.52,3.52,0,0,0,3.84.43,10.31,10.31,0,0,0,3.15-2.59,3,3,0,0,0,5.77-.53,3.38,3.38,0,0,1-4.56-2.16l-3,1.41a4.32,4.32,0,0,0-1.43-1.6,5,5,0,0,0,1.12-2.92,7.61,7.61,0,0,0-2.93,7.25,7.79,7.79,0,0,0-7.1.85,9.37,9.37,0,0,1-2.19,1.38c-1.33.44-2.87-.14-4.15.43-.82.36-1.4,1.14-2.22,1.5-1.79.78-3.95-.66-5.77,0a3.53,3.53,0,0,0-1.94,3.46,10.56,10.56,0,0,0,1.27,4,5.16,5.16,0,0,1-4.21.29c-.41,1.13.6,2.35,1.76,2.68a8.75,8.75,0,0,0,3.56-.13,17.39,17.39,0,0,1,7,.48,41.69,41.69,0,0,0,4.33,1.23,19,19,0,0,0,4.06.07l9.58-.55a7.92,7.92,0,0,0,3.48-.75c1.44-.82,2.26-2.48,3.74-3.23a17.25,17.25,0,0,1,3.61-.84,12.67,12.67,0,0,0,4.24-2.39l7-5.24a23.4,23.4,0,0,0,6.12-5.86c1.13-1.77,2.45-5.46.76-7.13C276,123.52,274.71,126.8,272.94,129.44Z" transform="translate(-27.42 -35.07)" fill="url(#linear-gradient-8)"/><path d="M274.78,112.12a3.74,3.74,0,0,0-2,1.56c-.34.54-.61,1.24-1.22,1.41a3.58,3.58,0,0,1-1.13,0,2.08,2.08,0,0,0-2,2.21c-.79.27-1.68-.73-2.41-.31-.94.52.15,2-.09,3a16.36,16.36,0,0,0-3.88.42,22.83,22.83,0,0,1-1-3.91c-1.2,1.26-3.26,1-4.91.49s-3.43-1.27-5.08-.71-2.78,2.43-4.52,2.94c-.51.15-1,.17-1.53.35-1.42.51-2.08,2.07-2.86,3.35a11.61,11.61,0,0,1-4.65,4.33c-1.25.63-2.6,1-3.82,1.72-1.49.83-2.83,2.1-4.52,2.38-.9.15-2.09.17-2.37,1a2,2,0,0,0,0,.88l1.26,7.79a31,31,0,0,1,.57,5.75,1,1,0,0,1,0,.17,12.71,12.71,0,0,1-3.41-.94h0c-.37-.16-.72-.33-1.07-.52a4.78,4.78,0,0,1-2.3-2.48c-1.14-2.08-3.64-3.45-4-5.94a4.59,4.59,0,0,0-.37-1.82,2.57,2.57,0,0,0-1.31-.89,12.91,12.91,0,0,0-5-.83,3.79,3.79,0,0,1,.3-.68,18.32,18.32,0,0,1,1.56-1.1c5.11-3.24,11.07-4.28,16.54-6.54,5.67-2.35,10.86-4,15.66-8.06a15.41,15.41,0,0,1,2.23-1.72h.24a27.66,27.66,0,0,0,6.64-1c4.55,0,9.17.54,13.38-1.07,2.19-.84,4.52-2.24,6.71-1.39A1.87,1.87,0,0,1,274.78,112.12Z" transform="translate(-27.42 -35.07)" fill="url(#linear-gradient-9)"/><path d="M200.13,232.36c-4.41,0-10.45-1.13-15.73-2.37l-.08,0c-5.82-1.37-10.72-2.86-11.52-3.1l-.11,0-10-54.84h0a141.55,141.55,0,0,0,30,5.71h0l7.4,54.33Z" transform="translate(-27.42 -35.07)" fill="#68e1fd"/><path d="M255.11,172.61l-5.37,53.22c-6.33,3.3-18.45,5-21.46,5.34l-.19,0-.24,0-.26,0,1.6-53.76a143.14,143.14,0,0,0,25.91-4.89Z" transform="translate(-27.42 -35.07)" fill="#68e1fd"/><path d="M275.59,153.43l-1.95,10.93s-23,18.75-81,13.34c-24.3-2.27-38.36-7.63-46.5-13.09l-.05-.26-7.44-35.06c1.85,4.35,6.59,8.34,13.47,11.71h0l3.66,16.36S188.77,178.68,275.59,153.43Z" transform="translate(-27.42 -35.07)" fill="url(#linear-gradient-10)"/><path d="M176.39,228.32l-1.88-.87L162.71,222c-4-2.76-6.31-5.91-6.31-9.25l-10.27-48.38,3.91,2.39,1.92,1.18,10.72,50,13.08,9.94Z" transform="translate(-27.42 -35.07)" fill="url(#linear-gradient-11)"/><path d="M147.38,130.05v.29" transform="translate(-27.42 -35.07)" fill="none"/><path d="M182.75,100c-1.49-4-1.92-8.55-.25-12.47,1.58-3.71,4.88-6.47,8.51-8.21a50.53,50.53,0,0,1,11.55-3.42l6.24-1.32a4.82,4.82,0,0,1,5.88,2.09c3.68,4.13,7.49,8.51,8.72,13.91,1.68,7.38-1.79,15.33.41,22.57.67,2.2,1.86,4.35,1.65,6.63s-1.81,4.24-2.65,6.4c-2.4,6.24,1.82,13.22.79,19.82-5.24,1.32-11,2.59-15.85.15-5-2.53-7.37-8.23-9.35-13.47-1.09-2.91-2.21-5.93-2.08-9a7.41,7.41,0,0,0-.22-3.29c-.63-1.44-2.3-2-3.6-3-2.65-1.86-2.6-4.58-3.89-7.18C186.85,106.65,184.17,103.77,182.75,100Z" transform="translate(-27.42 -35.07)" fill="#68e1fd"/><path d="M198.14,139c-.45-1.09-1.79-1.6-2.3-2.66a4.19,4.19,0,0,1-.26-2,5.73,5.73,0,0,1,1-3.7c.53-.61,1.31-1,1.79-1.63,1-1.42.19-3.38.19-5.14a5.35,5.35,0,0,1,4.15-5.06,9,9,0,0,1-.59-5.77,29.9,29.9,0,0,0,.78-5.85,1.43,1.43,0,0,0-.47-1.18c-.58-.38-1.32.16-1.79.67a105.46,105.46,0,0,0-12.31,15.93c-1.06-.29-1.34-1.78-.86-2.78a10.24,10.24,0,0,1,2.21-2.45,9,9,0,0,0,2.48-4.75,1.39,1.39,0,0,0,0-.64,1.66,1.66,0,0,0-.76-.79,9.8,9.8,0,0,1-4.17-8.74,1.26,1.26,0,0,0-1.87.38A3.66,3.66,0,0,0,185,105l.25,4.9c-1.3.1-3-.12-3.24-1.41a2.33,2.33,0,0,1,.33-1.33c.82-1.67,2.13-3.53,1.32-5.21a7.15,7.15,0,0,1-.69-1.31,2.37,2.37,0,0,1,1.21-2.32,11.73,11.73,0,0,0,2.28-1.58c.92-1,.95-2.58.94-4l-1.13-.07c-.48-1.06.07-2.28.56-3.34a2.63,2.63,0,0,0,.22-2.46,1.88,1.88,0,0,0-2.79,0A5.48,5.48,0,0,0,183,89.73c-.26,1.17-.53,2.35-.86,3.51A4,4,0,0,1,181,95.37a10.11,10.11,0,0,1-1.86.85,7.29,7.29,0,0,0-2.15,2l-2.76,3.34a5.75,5.75,0,0,0-1.24,2,5.81,5.81,0,0,0,0,2.49l2.51,16.12a10.88,10.88,0,0,0,1.18,4,9,9,0,0,0,2.65,2.56,9.3,9.3,0,0,0,5,1.94c1.14,0,2.51-.21,3.19.69a2.81,2.81,0,0,1,.39,1.69l.05,3.51a2.09,2.09,0,0,0,.23,1.14c.47.76,1.72.58,2.3-.11a4.3,4.3,0,0,0,.71-2.53,29.4,29.4,0,0,1,4.34,7.9,6.26,6.26,0,0,1-5.32-2.22c.31.66.5,1.67-.18,1.93-.44.17-.9-.16-1.29-.42-2.34-1.56-5.38-1.39-8.18-1.16-1,.08-2.26.47-2.22,1.45,0,.81,1,1.22,1.73,1.45l6.6,1.93c2.55.75,5.74,1.2,7.89-.76C195.94,143.87,199,141,198.14,139Z" transform="translate(-27.42 -35.07)" fill="url(#linear-gradient-12)"/><path d="M205.54,110.48c-1,.42-2.18.36-3.17.82-1.48.68-2.24,2.29-2.89,3.77l-6.85,15.72-3.78,8.68a5,5,0,0,1-1.65,2.37,4.89,4.89,0,0,1-2,.57c-4.57.66-9.44,1.19-13.66-.7-3-1.35-5.38-3.82-8.29-5.37s-6-2.12-8.71-3.86c-4.62-3-2.74-8-5.29-12.25-2.69-4.44-6.44-8.52-7.27-13.83-1-6.46,2.79-12.76,7.45-17.34a3.7,3.7,0,0,1,1.71-1.14,4.38,4.38,0,0,1,2.11.25,18.7,18.7,0,0,0,8.22.31c2.44-.45,4.92-1.4,7.33-.83,2.73.64,4.66,3.06,6,5.53A28.43,28.43,0,0,1,178.17,105a11.12,11.12,0,0,0,.46,3.26,14.5,14.5,0,0,0,1.54,2.59,13.21,13.21,0,0,1,2,8.28,8.69,8.69,0,0,0,1.75-.47,11.93,11.93,0,0,0,5.12-4.14,32.56,32.56,0,0,0,3.72-7.61c.58-1.53,1.17-3.28.43-4.75a17.28,17.28,0,0,1-1.11-1.84c-.72-2.1,1.77-3.79,3.83-4.62,2.57-1,5.43-2.08,8-1.15s4,4.92,1.78,6.52a2.78,2.78,0,0,0-.93.76c-.55,1,.83,1.87,1.7,2.61A3.81,3.81,0,0,1,205.54,110.48Z" transform="translate(-27.42 -35.07)" fill="#68e1fd"/><path d="M161.25,125.6c-1.72-1-.18-4.44-2-5.24a4.18,4.18,0,0,0-1.29,5.38c-1.1.14-1.94-1-2.13-2.1a27.55,27.55,0,0,0-.3-3.29c-.5-1.72-2.28-2.94-2.47-4.73-.24-2.29,2.16-3.88,4.22-4.9l-3.82-5.29a1.72,1.72,0,0,0-.52-.52,1.3,1.3,0,0,0-.73-.11,3.29,3.29,0,0,0-2.66,1.79l-1.33-.63a7.87,7.87,0,0,0,.75-5.61A2.25,2.25,0,0,1,148.9,99a1.93,1.93,0,0,1,1.33-1,3.65,3.65,0,0,1,2.27-.25c.74.24,1.29,1.18.85,1.82a7.9,7.9,0,0,1,4.73.38,1.73,1.73,0,0,1,.88.64c.37.64-.11,1.42-.43,2.09a6.86,6.86,0,0,0,.23,5.72,20.07,20.07,0,0,0,3.45,4.77,5.87,5.87,0,0,0-.72-3.43,9.13,9.13,0,0,1-1.38-2.59c-.17-1,.6-2.19,1.55-1.93l-.65-1.75a9.88,9.88,0,0,1,6.73.51,7.51,7.51,0,0,0-6-4.71l-.68-3.13a3.74,3.74,0,0,1-5.51-.07c-.35-.43-.67-1-1.21-1.07a2.49,2.49,0,0,0-1.34.42c-.44.19-1.08.18-1.25-.26-.87-1,0-2.77,1.29-3.14a4.54,4.54,0,0,1,3.75,1c.79-.45.09-1.65-.66-2.17a20.55,20.55,0,0,0-4.55-2.38,2,2,0,0,0-.93-.19c-.76.09-1.17.92-1.47,1.63a26.72,26.72,0,0,1-5.72,8.35,2.48,2.48,0,0,1,1.5,2.83c-.13.52-.43,1-.59,1.5-.76,2.3,1.24,4.51,3.05,6.12a7.48,7.48,0,0,0-1.4,2.89l-1.36-.52c-.15,1.24,1,2.21,1.82,3.11s1.55,2.42.65,3.29a4.46,4.46,0,0,0,2,1,1.5,1.5,0,0,0,1.71-1.09,14.94,14.94,0,0,1-.1,9.14c-.34,1-.78,2.15-.28,3.09a3.5,3.5,0,0,0,1.05,1c2.31,1.74,4.9,3.57,7.79,3.37a3.54,3.54,0,0,1,1.34,0,2.64,2.64,0,0,1,1.09.87c2.56,3,5.4,6.38,9.31,6.53,2.13.08,4.7-.74,6.12.86a4.32,4.32,0,0,0,.79.86,2.26,2.26,0,0,0,1.21.25l11.45.25A8.12,8.12,0,0,0,188,139a4.38,4.38,0,0,0-5.2-.31c-.71.54-1.31,1.4-2.2,1.43a2.52,2.52,0,0,1-1.26-.42,13.74,13.74,0,0,1-4-3.59c-.85-1.14-1.65-3.52-3.43-3.1-1.43-3.43-2.26-1.3-4.85-2.91-1.42-.89-1.07-2.71-2.05-3.7S162.49,126.29,161.25,125.6Z" transform="translate(-27.42 -35.07)" fill="url(#linear-gradient-13)"/><path d="M205.54,110.48c-1,.42-2.18.36-3.17.82-1.48.68-2.24,2.29-2.89,3.77l-6.85,15.72-.27-.31a7.35,7.35,0,0,0-3-2.59c-.44-.15-1-.24-1.2-.64a1.68,1.68,0,0,1-.15-.77c0-.54,0-1.08-.07-1.61a4.29,4.29,0,0,0-.35-1.63,1.59,1.59,0,0,0-1.3-.91c-.58,0-1.24.4-1.67,0a1.13,1.13,0,0,1-.29-.55,6.8,6.8,0,0,1-.44-3.19,11.93,11.93,0,0,0,5.12-4.14,32.56,32.56,0,0,0,3.72-7.61c.58-1.53,1.17-3.28.43-4.75a17.28,17.28,0,0,1-1.11-1.84c-.72-2.1,1.77-3.79,3.83-4.62,2.57-1,5.43-2.08,8-1.15s4,4.92,1.78,6.52a2.78,2.78,0,0,0-.93.76c-.55,1,.83,1.87,1.7,2.61A3.81,3.81,0,0,1,205.54,110.48Z" transform="translate(-27.42 -35.07)" fill="#fff"/><path d="M180.36,121.25a11.88,11.88,0,0,0-1.48-.72c-1.39-.37-3.18,1-4.13-.1-.71-.8,0-2.07.8-2.76a3.23,3.23,0,0,0,.95-1c.75-1.56-1.66-3-1.66-4.68,0-.79.52-1.55.36-2.33a3.36,3.36,0,0,0-.61-1.11,8,8,0,0,1-1.38-4.81c.06-1.46.51-3-.1-4.32s-2.3-2.2-2.61-3.68c1.64.75,3.35,1.85,3.78,3.6.32,1.34.06,3.19,1.35,3.68.85-3.26-.68-6.62-2.17-9.64a16.46,16.46,0,0,1,3.68,8.4c.27,2.17.14,4.48,1.22,6.39.43.78,1.06,1.44,1.49,2.22,1.44,2.59.63,6,2.05,8.58.22.4,2.34-.92,1.26,1.19A2.37,2.37,0,0,1,180.36,121.25Z" transform="translate(-27.42 -35.07)" fill="url(#linear-gradient-14)"/><path d="M199.48,104.3c-1.51,0-3.27.43-3.91,1.81a2.93,2.93,0,0,0,.48,3,5,5,0,0,0,2.68,1.58q-1.93,3.84-3.62,7.78a2.19,2.19,0,0,1,1.17-.37,41.86,41.86,0,0,1-3.56,6.76,2,2,0,0,0-.55,1.68c.24.76,1.38.88,2,.39a3.73,3.73,0,0,0,1.1-2.11,20.26,20.26,0,0,1,2.09-5.92,37.84,37.84,0,0,0,2.37-3.46c.62-1.29.75-2.76,1.25-4.1a.75.75,0,0,1,.24-.4.78.78,0,0,1,.54-.12c.67,0,1.33.24,2,.3a1.94,1.94,0,0,0,2.39-2.16c0-1.16-.46-3-1.47-3.7C203.43,104.33,201,104.28,199.48,104.3Z" transform="translate(-27.42 -35.07)" fill="url(#linear-gradient-15)"/><path d="M217.84,112.62a16.78,16.78,0,0,1-1.47-1.45,1.73,1.73,0,0,1-.21-1.92,12.53,12.53,0,0,1,3.29,3,2,2,0,0,0,1-2.08c-.09-.82-.45-1.59-.62-2.4-.37-1.8.29-3.63.63-5.44a32.51,32.51,0,0,0,.21-8,2.54,2.54,0,0,0-.27-1.22c-.55-.92-2-.89-2.61-1.78a3.4,3.4,0,0,1-.23-2.06,6.85,6.85,0,0,0-4.51-6.63,7.22,7.22,0,0,1-2.44-1c-.67-.58-.84-1.84-.06-2.25a3.48,3.48,0,0,1-1.77-1.32c-.36-.65-.08-1.69.66-1.79s1.2.58,1.62,1.13a8.55,8.55,0,0,0,4.08,2.89l-.6,1.65c2.43-.08,4.29,2,5.77,4A6.68,6.68,0,0,1,222,89.15c.17,1.52-.7,3-.44,4.55.12.66.45,1.27.63,1.91a10.53,10.53,0,0,1-.28,4.72,30.07,30.07,0,0,0,4.54,22,2,2,0,0,0-2-.87,4.38,4.38,0,0,0-2.08,1,5,5,0,0,0-2.23,4c.11,1.44,1.17,2.62,1.68,4a10.53,10.53,0,0,1,.53,2.68l.72,6.49c-1.49-.06-2.22-1.87-2.27-3.36s.15-3.16-.81-4.3a7.59,7.59,0,0,0-1.9,2.75,12.92,12.92,0,0,1-1.16-5.61,5.16,5.16,0,0,1-3.6,1,7.49,7.49,0,0,1,2.32-3.2c-.58-.12-1.28-.37-1.36-1s.59-1,1.19-1.11a7.55,7.55,0,0,0,1.79-.18c1.3-.52,1.27-2.43.61-3.67s-1.77-2.31-1.79-3.7c1.29-.24,2.2,1,2.94-.63C219.55,115.48,218.68,113.52,217.84,112.62Z" transform="translate(-27.42 -35.07)" fill="url(#linear-gradient-16)"/><path d="M208.64,118.91a.83.83,0,0,1,0-.49.73.73,0,0,1,.26-.34c.62-.55,1.37-1,2-1.54a2.21,2.21,0,0,0,.7-2.25c-.33-.83-1.4-1.34-1.4-2.24a2.4,2.4,0,0,1,.73-1.39,10.75,10.75,0,0,0,1.81-3.13,3.81,3.81,0,0,0,.28-1.33,5.41,5.41,0,0,0-.5-1.87,32.44,32.44,0,0,1-1.28-4.66c.22,1.93-1.11,3.68-1.42,5.59-.11.66-.1,1.34-.25,2a2.23,2.23,0,0,1-1.12,1.58,1.17,1.17,0,0,0-.45.25.8.8,0,0,0-.11.51l.05,2.37a.9.9,0,0,1-.09.49,1.58,1.58,0,0,1-.41.31,1.53,1.53,0,0,0-.58,1.23,11.18,11.18,0,0,0,.12,1.41,5.4,5.4,0,0,1-3,5.2,2.4,2.4,0,0,0-.81.5,1.91,1.91,0,0,0-.31.94,7.25,7.25,0,0,0,.15,3.79.68.68,0,0,0,.23.32c.25.15.57,0,.73-.28s.3-.53.55-.66a.83.83,0,0,1,.88.19,2.83,2.83,0,0,1,.53.78,14.17,14.17,0,0,0,3.28,4.14,1,1,0,0,0,.57.3.9.9,0,0,0,.54-.25,3.73,3.73,0,0,0,1.33-2.47,7.2,7.2,0,0,1,.12-1c.43-1.64,2.87-2.1,3.28-3.75a3,3,0,0,0-.38-2c-.13-.27-.34-.58-.64-.57s-.46.27-.59.5a9,9,0,0,0-.79,1.77,2.84,2.84,0,0,1-.43,1,.8.8,0,0,1-1,.24c-.4-.24-.29-.72-.42-1.1-.2-.55-.46-.53-.8-.91A8.7,8.7,0,0,1,208.64,118.91Z" transform="translate(-27.42 -35.07)" fill="url(#linear-gradient-17)"/><path d="M246.86,75.63a4.34,4.34,0,0,1-1.79.51,2,2,0,0,0-.87.14,1.81,1.81,0,0,0-.61.77,2.11,2.11,0,0,1-.33.44c-.95.9-2.56-.41-3.78.05a1.65,1.65,0,0,1-.64.2c-.33,0-.57-.34-.72-.64a1.39,1.39,0,0,0,.34-1,2.22,2.22,0,0,0-.4-1,43.1,43.1,0,0,0-7.1-8.49,20.37,20.37,0,0,0-3.35.44c-1.12.09-2.48-.39-2.7-1.5-.32-1.58,1.75-2.5,2.49-3.93.4-.78.4-1.75.93-2.46a3.06,3.06,0,0,1,2.43-1c.34,0,.69,0,1,0,1.25,0,2.83.37,3,1.59a7.4,7.4,0,0,1-.19,1.68c-.09,1.51,1.31,2.62,2.5,3.53a33.14,33.14,0,0,1,6,5.93,13.57,13.57,0,0,0,2.21,2.45,6.1,6.1,0,0,0,.94.58C246.84,74.8,247.15,75.47,246.86,75.63Z" transform="translate(-27.42 -35.07)" fill="#fff"/><path d="M261.1,93.1A5.54,5.54,0,0,1,260,95.54h-.15A29.69,29.69,0,0,0,258.22,90c-1.33-3.07-3.67-5.57-6-8L250,79.53a3.21,3.21,0,0,0-1-.82c-1.53-.64-4.13,1.37-5.13-.75a2.61,2.61,0,0,1-.24-.91c-.15-1.46.57-3.17-.07-4.63a8,8,0,0,0-3.3-3.15,24.12,24.12,0,0,1-5.35-4.34c-.77-.89-1.52-2-2.66-2.24-.55-.14-1.14-.09-1.68-.25s-1.06-.67-.92-1.22c.09-.36.43-.62.51-1s-.09-.69-.08-1a1.13,1.13,0,0,1,.72-1c.34,0,.69,0,1,0,1.25,0,2.83.37,3,1.59a7.4,7.4,0,0,1-.19,1.68c-.09,1.51,1.31,2.62,2.5,3.53a33.14,33.14,0,0,1,6,5.93,13.57,13.57,0,0,0,2.21,2.45,6.1,6.1,0,0,0,.94.58,10,10,0,0,0,1.62.65c.26.39.5.79.74,1.2a2.77,2.77,0,0,1,1.05-.31,4.75,4.75,0,0,1,.92,0l.38.14a13.93,13.93,0,0,1,6.54,6,33.54,33.54,0,0,1,3.19,8.43A7.58,7.58,0,0,1,261.1,93.1Z" transform="translate(-27.42 -35.07)" fill="url(#linear-gradient-18)"/></svg>