<svg id="Layer_1" data-name="Layer 1" xmlns="http://www.w3.org/2000/svg" xmlns:xlink="http://www.w3.org/1999/xlink" viewBox="0 0 431.84 403.19"><defs><linearGradient id="linear-gradient" x1="333.54" y1="251.11" x2="393.32" y2="251.11" gradientTransform="translate(-0.54 -55.78) rotate(1.11)" gradientUnits="userSpaceOnUse"><stop offset="0" stop-color="#e9c2d5"/><stop offset="0.42" stop-color="#ecd1cd"/><stop offset="1" stop-color="#efe7c6"/></linearGradient><linearGradient id="linear-gradient-2" x1="157.79" y1="88.95" x2="279.69" y2="88.95" gradientUnits="userSpaceOnUse"><stop offset="0" stop-color="#010101" stop-opacity="0"/><stop offset="0.95" stop-color="#010101"/></linearGradient><linearGradient id="linear-gradient-3" x1="224.63" y1="86.15" x2="296.96" y2="59.84" xlink:href="#linear-gradient-2"/><linearGradient id="linear-gradient-4" x1="356.03" y1="89.06" x2="254.93" y2="76.73" xlink:href="#linear-gradient-2"/><linearGradient id="linear-gradient-5" x1="393.36" y1="375.9" x2="407.99" y2="375.9" gradientTransform="matrix(1, 0, 0, 1, 0, 0)" xlink:href="#linear-gradient"/><linearGradient id="linear-gradient-6" x1="361.51" y1="369.51" x2="376.15" y2="369.51" gradientTransform="matrix(1, 0, 0, 1, 0, 0)" xlink:href="#linear-gradient"/><linearGradient id="linear-gradient-7" x1="358.45" y1="307.19" x2="387.44" y2="307.19" xlink:href="#linear-gradient-2"/><linearGradient id="linear-gradient-8" x1="377.97" y1="312.8" x2="408.38" y2="312.8" xlink:href="#linear-gradient-2"/><linearGradient id="linear-gradient-9" x1="135.52" y1="316.72" x2="215.14" y2="316.72" xlink:href="#linear-gradient-2"/><linearGradient id="linear-gradient-10" x1="330.38" y1="207.29" x2="395.4" y2="207.29" gradientTransform="matrix(1, 0, 0, 1, 0, 0)" xlink:href="#linear-gradient"/><linearGradient id="linear-gradient-11" x1="374.68" y1="159.98" x2="395.6" y2="159.98" gradientTransform="matrix(1, 0, 0, 1, 0, 0)" xlink:href="#linear-gradient"/><linearGradient id="linear-gradient-12" x1="141.39" y1="148.83" x2="172.1" y2="148.83" xlink:href="#linear-gradient-2"/><linearGradient id="linear-gradient-13" x1="379.23" y1="166.34" x2="411.18" y2="166.34" xlink:href="#linear-gradient-2"/><linearGradient id="linear-gradient-14" x1="393.57" y1="376.49" x2="408.2" y2="376.49" gradientTransform="matrix(1, 0, 0, 1, 0, 0)" xlink:href="#linear-gradient"/></defs><title>flag</title><path d="M483.65,351.61a54.36,54.36,0,0,1-3.38,7.68c-13,24.87-42.42,38.88-70.77,43.18-42.76,6.48-86.06-3.48-129.15-7.24-35.26-3.1-70.79-2-106.09.7-21.25,1.66-43.55,3.73-63-4.91-15.91-7-27.59-20.29-35.44-36a122.55,122.55,0,0,1-11.3-35.82c-4.67-29.43-1.4-59.56-4-89.25C59,213.61,55.83,197.35,56,180.92A120.82,120.82,0,0,1,96.23,93c11.12-9.84,23.94-17.52,35.91-26.31,23.21-17.1,43.32-38.62,68.54-52.57s58.57-18.95,81.83-1.9c8.85-.85,20.56-2,29.37-.91s17.63,4.21,24,10.37c4.46,4.29,7.53,9.81,11.3,14.71,5.13,6.75,13.22,16.88,21.45,19,25.46,6.42,54.21-3.59,77.69,8.2C466,73.4,476,96.23,478.22,118.09s-1.86,43.85-2.59,65.83c-1.46,43.91,10.42,87.23,12.08,131.14C488.18,327.38,487.8,340,483.65,351.61Z" transform="translate(-56.02 -1.41)" fill="#68e1fd" opacity="0.4" style="isolation:isolate"/><path d="M480.27,359.29c-13,24.87-42.42,38.88-70.77,43.18-42.76,6.48-86.06-3.48-129.15-7.24-35.26-3.1-70.79-2-106.09.7-21.25,1.66-43.55,3.73-63-4.91-15.91-7-27.59-20.29-35.44-36,17.13,1.51,35,.14,52.14.26q121.91.62,243.79,2.28Q426,358.33,480.27,359.29Z" transform="translate(-56.02 -1.41)" fill="#68e1fd" opacity="0.4" style="isolation:isolate"/><path d="M378,197.87s-3.2,4.79-3.72,4.78S342,195.23,342,195.23s-3-4.24-6.7-4.83c-2.58-.42-6.24-1.69-6.75-2.23s-.25,2.41,2,3.7c.63.36,2.22,1,1.25,1.61s-2.38-.63-3.07.39c-.34.51,0,1.17.31,1.71a6.3,6.3,0,0,1,.66,2.28c.05.51-.38,2-.16,2.37.38.66,2.84.93,3.53,1.09a42.6,42.6,0,0,0,8.77,1.22c3.65.07,25.87,13.57,32.14,13.69s13.74-8.1,13.74-8.1-.78-7.17-4.19-9.4S378,197.87,378,197.87Z" transform="translate(-56.02 -1.41)" fill="url(#linear-gradient)"/><path d="M384.92,178.9s-3.95-.51-7.11,3.65S367,207.38,367,207.38s3.88-1.65,8.18,2,4.16,7,4.16,7,12.28-12.19,12.72-18.29S391.37,186.29,384.92,178.9Z" transform="translate(-56.02 -1.41)" fill="#68e1fd"/><path d="M212.42,51.86c-3.3,2.47-6.54,5.22-8.46,8.86-2.07,3.94-2.44,8.64-4.77,12.43-4.35,7.07-13.68,8.7-21.82,10.26s-17.51,5-19.58,13a198.35,198.35,0,0,1,38.65,42.12,23.52,23.52,0,0,1,14.23-19.72c5.29-2.16,11.07-2.27,16.68-2.8,4.84-.46,11.16-.69,15.23-3.58s6.2-7.95,9.33-11.94a26.21,26.21,0,0,1,12.8-8.67,27.07,27.07,0,0,1,7.89-1.22c1.94,0,5.44,1.28,7.09.65C277.58,87,274.44,83,272,78.9s-4.93-8.26-7.29-12.45c-3.52-6.25-7.57-20.2-13.14-24.41C241,34.08,220.73,45.63,212.42,51.86Z" transform="translate(-56.02 -1.41)" fill="url(#linear-gradient-2)"/><rect x="299.06" y="29.48" width="3.09" height="204.78" transform="translate(572.11 108.65) rotate(152.5)" fill="#606161"/><path d="M361.47,51.86c3.3,2.47,6.54,5.22,8.46,8.86,2.07,3.94,2.45,8.64,4.78,12.43,4.34,7.07,13.67,8.7,21.81,10.26s17.51,5,19.58,13a198.61,198.61,0,0,0-38.65,42.12,23.5,23.5,0,0,0-14.23-19.72c-5.28-2.16-11.07-2.27-16.68-2.8-4.84-.46-11.16-.69-15.23-3.58s-6.19-7.95-9.33-11.94a26.21,26.21,0,0,0-12.8-8.67,27,27,0,0,0-7.88-1.22c-1.95,0-5.44,1.28-7.1.65,2.11-4.28,5.25-8.28,7.74-12.38s4.93-8.26,7.29-12.45c3.53-6.25,7.57-20.2,13.15-24.41C332.93,34.08,353.16,45.63,361.47,51.86Z" transform="translate(-56.02 -1.41)" fill="#68e1fd"/><path d="M212.42,51.86c-3.3,2.47-6.54,5.22-8.46,8.86-2.07,3.94-2.44,8.64-4.77,12.43-4.35,7.07-13.68,8.7-21.82,10.26s-17.51,5-19.58,13a198.35,198.35,0,0,1,38.65,42.12,23.52,23.52,0,0,1,14.23-19.72c5.29-2.16,11.07-2.27,16.68-2.8,4.84-.46,11.16-.69,15.23-3.58s6.2-7.95,9.33-11.94a26.21,26.21,0,0,1,12.8-8.67,27.07,27.07,0,0,1,7.89-1.22c1.94,0,5.44,1.28,7.09.65C277.58,87,274.44,83,272,78.9s-4.93-8.26-7.29-12.45c-3.52-6.25-7.57-20.2-13.14-24.41C241,34.08,220.73,45.63,212.42,51.86Z" transform="translate(-56.02 -1.41)" fill="#68e1fd"/><path d="M212.42,51.86c-3.3,2.47-6.54,5.22-8.46,8.86-2.07,3.94-2.44,8.64-4.77,12.43-4.35,7.07-13.68,8.7-21.82,10.26s-17.51,5-19.58,13a198.35,198.35,0,0,1,38.65,42.12,23.52,23.52,0,0,1,14.23-19.72c5.29-2.16,11.07-2.27,16.68-2.8,4.84-.46,11.16-.69,15.23-3.58s6.2-7.95,9.33-11.94a26.21,26.21,0,0,1,12.8-8.67,27.07,27.07,0,0,1,7.89-1.22c1.94,0,5.44,1.28,7.09.65C277.58,87,274.44,83,272,78.9s-4.93-8.26-7.29-12.45c-3.52-6.25-7.57-20.2-13.14-24.41C241,34.08,220.73,45.63,212.42,51.86Z" transform="translate(-56.02 -1.41)" fill="url(#linear-gradient-3)"/><path d="M361.47,51.86c3.3,2.47,6.54,5.22,8.46,8.86,2.07,3.94,2.45,8.64,4.78,12.43,4.34,7.07,13.67,8.7,21.81,10.26s17.51,5,19.58,13a198.61,198.61,0,0,0-38.65,42.12,23.5,23.5,0,0,0-14.23-19.72c-5.28-2.16-11.07-2.27-16.68-2.8-4.84-.46-11.16-.69-15.23-3.58s-6.19-7.95-9.33-11.94a26.21,26.21,0,0,0-12.8-8.67,27,27,0,0,0-7.88-1.22c-1.95,0-5.44,1.28-7.1.65,2.11-4.28,5.25-8.28,7.74-12.38s4.93-8.26,7.29-12.45c3.53-6.25,7.57-20.2,13.15-24.41C332.93,34.08,353.16,45.63,361.47,51.86Z" transform="translate(-56.02 -1.41)" fill="url(#linear-gradient-4)"/><rect x="271.74" y="29.48" width="3.09" height="204.78" transform="translate(35.73 -112.69) rotate(27.5)" fill="#606161"/><path d="M126.6,129.5a15.45,15.45,0,0,1-.06-8.08,19.13,19.13,0,0,1,4.17-7.37,9.67,9.67,0,0,1,5.81-.09c2.61,1-1.08,5.72-.74,8s2.49-4,3.75-3.44-2,9.12-4.38,10.19" transform="translate(-56.02 -1.41)" fill="#cd7d62"/><path d="M152.92,173.39s-13.32-4-14.66-2.7c-1.19,1.2,10.47,85.27,11.07,88.86s20.35,2.39,28.72,0A92.57,92.57,0,0,0,194.21,253s-9.64-76.68-11.44-77.87-14.8-2.24-14.8-2.24Z" transform="translate(-56.02 -1.41)" fill="#68e1fd"/><path d="M152,201.69s-9-2.34-11.89-7.86-18.46-30.92-18-36.82c.53-6.83,3.84-29.28,3.84-29.28s.37-1.83,4.7-1.27,5,3,5,3l.38,26.35,13.21,24.23S154.6,196.75,152,201.69Z" transform="translate(-56.02 -1.41)" fill="#68e1fd"/><path d="M201.06,376.83s2.53,9.55,3.71,10.25,5.33-1.51,7.73-3.25,1.54-5.44,1.54-5.44l-1-2.9Z" transform="translate(-56.02 -1.41)" fill="#cd7d62"/><path d="M137.5,372.23s-4.61,13-4.15,14.27,6.1-.59,9.06-.4,4.09-4.39,4.09-4.39l1.05-2.9Z" transform="translate(-56.02 -1.41)" fill="#cd7d62"/><path d="M151.73,166.21s1.79,7.78,1.19,10.77,4.19,11.37,10.17,11.37,6-10.17,6-11.37-1.8-1.79-1.2-4.78S152.32,162.62,151.73,166.21Z" transform="translate(-56.02 -1.41)" fill="#cd7d62"/><path d="M167.88,172.2a4.62,4.62,0,0,0,1,4,7.55,7.55,0,0,1-4.93,2.17c-3.59,0-9-3-11.37-8.37l-.13-.3c-.34-2-.69-3.52-.69-3.52C152.32,162.62,168.48,169.21,167.88,172.2Z" transform="translate(-56.02 -1.41)" fill="#be7359"/><path d="M153,175.87s4.82,11.29,8.93,12.48c0,0,1.12.6-1.87,2.39s-11.37-7.17-10.17-13.76a4.94,4.94,0,0,1,3-3.82Z" transform="translate(-56.02 -1.41)" fill="#fff"/><path d="M167.88,173.39s1.33,8.31-2,14c0,0,1.43,2.13,2.63,2.13s4.19-7.18,3-12.57C170.77,173.84,168.48,172.54,167.88,173.39Z" transform="translate(-56.02 -1.41)" fill="#fff"/><path d="M149.33,259.55l6.54,52-20.35,67.3s3.75,2.07,11.52,1.47l27.63-66.54.39-42.3L184,308l17.21,71.15s8.75,1.93,13.9-1.78L203.78,308l-9.57-55Z" transform="translate(-56.02 -1.41)" fill="#606161"/><path d="M171.47,148.86s1.2,15.56,0,19.75-4.79,7.78-8.38,7.78-9-3-11.36-8.38-3.59-18.55-3-20.34,4.21-7.45,13.77-6.58C169.08,141.68,171.47,146.47,171.47,148.86Z" transform="translate(-56.02 -1.41)" fill="#cd7d62"/><path d="M149.46,156.53c.55,1.22,2.45,1.28,3.42.35a4.42,4.42,0,0,0,1-3.76c-.16-1.33-.62-2.62-.7-4a.89.89,0,0,1,1.08-1.12c1.8.06,3.92.77,5.19-.52.75-.76,1-2.1,2-2.46.84-.3,1.72.25,2.51.67,2.2,1.14,6.15,1.89,7.36-1,.56-1.33.12-2.95.24-4.35s1.08-3.43.14-4.84c-.3-.46-.82-.86-.82-1.42a2.42,2.42,0,0,1,.63-1.2,3.56,3.56,0,0,0-.07-4.17,17.15,17.15,0,0,1-7.44,2.73c-4.51.52-9.45-.68-13.37,1.6a10.46,10.46,0,0,0-4.76,7.85,15.69,15.69,0,0,1-.4,2.83c-.55,1.78-2.15,1.72-3.07,3.05a6.22,6.22,0,0,0-.46,5.32,4.41,4.41,0,0,1,.52,2.21,7.8,7.8,0,0,1-.76,1.6c-.81,1.81.41,3.85,1.67,5.38,1.65,2,3.45,4,5.21,5.88.61.65,1.15,1.49,2.08,1.75.66.18,2.9-.4,1.6-.91" transform="translate(-56.02 -1.41)" fill="#606161"/><path d="M151.47,159s-.6-3.59-3-2.39.59,7.77,1.79,8.37a3.42,3.42,0,0,0,1.79.51" transform="translate(-56.02 -1.41)" fill="#cd7d62"/><path d="M227.33,384.17c1.27.37,2.74.92,3.07,2.19.44,1.64-1.33,3-3,3.53a25.22,25.22,0,0,1-7.66.85c-4.53,0-9.06,0-13.58-.22a2.74,2.74,0,0,1-1.21-.22,2.67,2.67,0,0,1-1.13-1.84,17.74,17.74,0,0,1-.51-4.81,1.69,1.69,0,0,1,.18-.81c.75-1.23,4.66.28,5.88.21,2.12-.11,3.43-1.21,5.28-2s3.32.27,5.14.91C222.28,382.86,224.84,383.47,227.33,384.17Z" transform="translate(-56.02 -1.41)" fill="#606161"/><path d="M156.66,386.53c1.27.38,2.73,1,3.05,2.24.41,1.64-1.39,3-3,3.47A25.68,25.68,0,0,1,149,393c-4.52-.05-9.05-.18-13.57-.43a2.91,2.91,0,0,1-1.21-.24,2.72,2.72,0,0,1-1.1-1.86,17.4,17.4,0,0,1-.43-4.82,1.61,1.61,0,0,1,.19-.81c.76-1.21,4.65.36,5.88.31,2.11-.08,3.44-1.16,5.3-1.88s3.32.32,5.13,1C151.64,385.14,154.18,385.78,156.66,386.53Z" transform="translate(-56.02 -1.41)" fill="#606161"/><polygon points="126.75 173.69 155.74 196.8 179.68 185.46 179.26 198.06 154.48 211.92 128.02 195.12 126.75 173.69" fill="#68e1fd"/><path d="M242.81,181.31a9.09,9.09,0,0,1,5-1.42,5.28,5.28,0,0,1,3.4.87,4.75,4.75,0,0,1,1.43,2.27,15.46,15.46,0,0,1,.48,6.7,7.82,7.82,0,0,1-1.24,3.91,5.72,5.72,0,0,1-2.55,1.86,8.29,8.29,0,0,1-3.11.58c-.88,0-1.75-.17-2.63-.18a20.8,20.8,0,0,0-5.67,1.24c-1.13.32-2.51.52-3.35-.3a3.57,3.57,0,0,1-.78-2.37c-.19-2.88.18-5.34,2.37-7.33A73.9,73.9,0,0,1,242.81,181.31Z" transform="translate(-56.02 -1.41)" fill="#cd7d62"/><path d="M407.35,370.8l.64,8.95a8.72,8.72,0,0,1-5.15,1.2c-2.72-.34-8.17-5.94-9.48-5.66l.05-2.67" transform="translate(-56.02 -1.41)" fill="url(#linear-gradient-5)"/><path d="M375.5,364.41l.65,8.95a8.75,8.75,0,0,1-5.15,1.2c-2.73-.35-8.18-5.94-9.49-5.67l.05-2.66" transform="translate(-56.02 -1.41)" fill="url(#linear-gradient-6)"/><path d="M369,245.47s-10.91,60.75-10.51,61.86,2.67,59.91,2.67,59.91,6.13,4.14,14.76,0l1.35-59,10.2-55.09S373.33,243.93,369,245.47Z" transform="translate(-56.02 -1.41)" fill="#606161"/><path d="M369,245.47s-10.91,60.75-10.51,61.86,2.67,59.91,2.67,59.91,6.13,4.14,14.76,0l1.35-59,10.2-55.09S373.33,243.93,369,245.47Z" transform="translate(-56.02 -1.41)" fill="url(#linear-gradient-7)"/><path d="M377.76,250.71s4.8,63.74,5.33,64.78,10.27,58,10.27,58,6.8,4.36,14.82-.87L401.84,314,404.78,258S381.88,248.61,377.76,250.71Z" transform="translate(-56.02 -1.41)" fill="#606161"/><path d="M378,250.71s4.79,63.74,5.33,64.78,10.26,58,10.26,58,6.81,4.36,14.82-.87L402.05,314,405,258S382.09,248.61,378,250.71Z" transform="translate(-56.02 -1.41)" fill="url(#linear-gradient-8)"/><path d="M149.33,259.55l6.54,52-20.35,67.3s3.75,2.07,11.52,1.47l27.63-66.54.39-42.3L184,308l17.21,71.15s8.75,1.93,13.9-1.78L203.78,308l-9.57-55Z" transform="translate(-56.02 -1.41)" fill="url(#linear-gradient-9)"/><path d="M408.91,177.42a5.39,5.39,0,0,0-1.37-.2c-8-.21-19.41,2.07-26,7-8.12,6.1-11.24,16.88-11.88,27s.67,20.4-.92,30.43c-1.07,6.78-3.09,14.82,1.8,19.64a16.48,16.48,0,0,0,6.42,3.43c7,2.38,12.63,2.41,19.79,2.56.57,0,11.44.13,11.41-.2,0-.08-1.72-18.89-2.76-27.24s11.41-37.76,9.84-49.26C414.57,185.53,413.45,178.68,408.91,177.42Z" transform="translate(-56.02 -1.41)" fill="#68e1fd"/><path d="M385.45,202.47s-3.11,4.85-3.63,4.85-32.4-6.79-32.4-6.79-3.13-4.18-6.79-4.71c-2.59-.36-6.27-1.56-6.8-2.09s-.2,2.41,2.1,3.66c.37.21,2.07,1,1.76,1.61s-1.91.29-2.31.27c-1.35-.07-2.69-.25-4-.44s-3.56-.83-2.83,1.45c.19.59.56,1.12.75,1.71a4.28,4.28,0,0,0,.65,1.76,2.75,2.75,0,0,0,1.25.6,10.85,10.85,0,0,1,2.42,1.12,11.74,11.74,0,0,0,3,.84c1.15.32,2.32.56,3.49.77a41.89,41.89,0,0,0,7.32.76c3.66,0,26.13,13.07,32.4,13.07s13.58-8.36,13.58-8.36-.91-7.16-4.37-9.33S385.45,202.47,385.45,202.47Z" transform="translate(-56.02 -1.41)" fill="url(#linear-gradient-10)"/><path d="M379.73,142c-1.69,5.06-.77,9.69-3.94,14.54-2,3-.84,3.39-.24,6.37.52,2.61-2.62,8.36,3.13,8.88s8.89,4.18,9.93,8.88c0,0,2.61-3.13,5.75-7.31s-.52-6.8-1.57-14.11S390.7,143.57,387,141,380.78,138.87,379.73,142Z" transform="translate(-56.02 -1.41)" fill="url(#linear-gradient-11)"/><path d="M380.25,138.87s-2.61,2.61.52,4.7,7.84,2.61,7.32,7.32,0,9.92,1.57,12,4.18,7.83,2.61,11-7.32,1.57-6.27,8.36,2.09,13.06-1.05,13.06c0,0,.53,5.23,5.75-.52s3.66-12,9.41-14.11,9.4-2.09,10.45-6.27-1.05-11,0-15.15,1-8.36-2.09-14.63-7.84-9.41-11.5-9.41S381.3,137.3,380.25,138.87Z" transform="translate(-56.02 -1.41)" fill="#606161"/><path d="M149.46,156.53c.55,1.22,2.45,1.28,3.42.35a4.42,4.42,0,0,0,1-3.76c-.16-1.33-.62-2.62-.7-4a.89.89,0,0,1,1.08-1.12c1.8.06,3.92.77,5.19-.52.75-.76,1-2.1,2-2.46.84-.3,1.72.25,2.51.67,2.2,1.14,6.15,1.89,7.36-1,.56-1.33.12-2.95.24-4.35s1.08-3.43.14-4.84c-.3-.46-.82-.86-.82-1.42a2.42,2.42,0,0,1,.63-1.2,3.56,3.56,0,0,0-.07-4.17,17.15,17.15,0,0,1-7.44,2.73c-4.51.52-9.45-.68-13.37,1.6a10.46,10.46,0,0,0-4.76,7.85,15.69,15.69,0,0,1-.4,2.83c-.55,1.78-2.15,1.72-3.07,3.05a6.22,6.22,0,0,0-.46,5.32,4.41,4.41,0,0,1,.52,2.21,7.8,7.8,0,0,1-.76,1.6c-.81,1.81.41,3.85,1.67,5.38,1.65,2,3.45,4,5.21,5.88.61.65,1.15,1.49,2.08,1.75.66.18,2.9-.4,1.6-.91" transform="translate(-56.02 -1.41)" fill="url(#linear-gradient-12)"/><path d="M380.25,138.87s-2.61,2.61.52,4.7,7.84,2.61,7.32,7.32,0,9.92,1.57,12,4.18,7.83,2.61,11-7.32,1.57-6.27,8.36,2.09,13.06-1.05,13.06c0,0,.53,5.23,5.75-.52s3.66-12,9.41-14.11,9.4-2.09,10.45-6.27-1.05-11,0-15.15,1-8.36-2.09-14.63-7.84-9.41-11.5-9.41S381.3,137.3,380.25,138.87Z" transform="translate(-56.02 -1.41)" fill="url(#linear-gradient-13)"/><path d="M410,180.67s-3.65-1.57-7.83,1.57S385,203.14,385,203.14s4.18-.52,7.32,4.18,2.09,7.84,2.09,7.84,15.15-8.36,17.24-14.11S414.21,189.55,410,180.67Z" transform="translate(-56.02 -1.41)" fill="#68e1fd"/><path d="M349.14,374.83c-.7.58-1.46,1.38-1.25,2.27a2,2,0,0,0,.7,1c1.6,1.41,3.9,1.62,6,1.68a71.48,71.48,0,0,0,20.63-2.54.9.9,0,0,0,.81-1.07,10.06,10.06,0,0,0-.88-4.33c-2.24,1.21-5,.43-7.34-.63-3.17-1.46-5.81-3.06-9.26-1.94A30.4,30.4,0,0,0,349.14,374.83Z" transform="translate(-56.02 -1.41)" fill="#606161"/><path d="M407.56,371.39l.64,9a8.67,8.67,0,0,1-5.15,1.19c-2.72-.34-8.17-5.93-9.48-5.66l.05-2.66" transform="translate(-56.02 -1.41)" fill="url(#linear-gradient-14)"/><path d="M381.2,381.82c-.71.58-1.46,1.38-1.25,2.27a2.07,2.07,0,0,0,.69,1c1.61,1.41,3.91,1.62,6,1.67a71.41,71.41,0,0,0,20.62-2.53,1.22,1.22,0,0,0,.59-.29,1.13,1.13,0,0,0,.22-.79,10.12,10.12,0,0,0-.88-4.33c-2.24,1.22-5,.44-7.33-.63-3.18-1.46-5.81-3.06-9.26-1.94A30.62,30.62,0,0,0,381.2,381.82Z" transform="translate(-56.02 -1.41)" fill="#606161"/></svg>