<svg id="Layer_1" data-name="Layer 1" xmlns="http://www.w3.org/2000/svg" xmlns:xlink="http://www.w3.org/1999/xlink" viewBox="0 0 357.47 303.66"><defs><linearGradient id="linear-gradient" x1="208.76" y1="167.02" x2="179.29" y2="164.58" gradientUnits="userSpaceOnUse"><stop offset="0.01"/><stop offset="0.13" stop-opacity="0.69"/><stop offset="1" stop-opacity="0"/></linearGradient><linearGradient id="linear-gradient-2" x1="280.91" y1="241.67" x2="231.73" y2="112.15" xlink:href="#linear-gradient"/><linearGradient id="linear-gradient-3" x1="211.74" y1="121.6" x2="185.9" y2="123.99" xlink:href="#linear-gradient"/></defs><title>12</title><path d="M372.88,206.15A202.17,202.17,0,0,0,363.29,231c-4.37,14.64-6.07,30.09-12,44.19-12.17,29.08-39.79,47.22-67.29,60.09a80.89,80.89,0,0,1-19.49,6.35,79,79,0,0,1-14.32,1.33,112,112,0,0,1-20.5-2c-6-1.08-12.11-2.52-18.34-4.08-7.33-1.84-14.86-3.83-22.79-5.6-.75-.17-1.49-.32-2.24-.47-16.26-3.16-32.82-1.31-49.19-1-10.5.22-20.92-.18-31.11-2.91-16.89-4.52-30.85-17-40.22-31.75s-14.61-31.74-18.68-48.75C34.74,194.63,33.09,137.22,59.43,91c9.22-16.19,22.24-31,39.46-38.09,8-3.31,16.63-4.85,25.26-5.7C161,43.51,198.28,52,235,47.64c24.59-2.89,49.15-11.45,73.56-7.22,16.69,2.9,31.86,11.66,45.19,22.12,21.39,16.76,39.77,40.07,41.94,67.15S384.16,181.05,372.88,206.15Z" transform="translate(-38.48 -39.26)" fill="#68e1fd" opacity="0.18" style="isolation:isolate"/><path d="M239.88,210.07c-1.24,14.17.19,28.43,1.69,42.57q4,37.67,8.66,75.25c.74,5.91,1.91,11,0,15a112,112,0,0,1-20.5-2c-6-1.08-12.11-2.52-18.34-4.08-7.33-1.84-14.86-3.83-22.79-5.6-.75-.17-1.49-.32-2.24-.47-16.26-3.16-32.82-1.31-49.19-1a4.83,4.83,0,0,1-1.78-1.18c-1.21-1.28-1.39-3.19-1.52-4.94-1.72-24.67-3.18-50.8,8.3-72.71,7.11-13.53,18.8-24.63,23.64-39.13,5.27-15.75,1.61-33-3.22-48.89s-10.9-31.87-10.36-48.47S162,80.17,178,75.82c6.52-1.77,13.44-1.18,20.1-2.23,14.73-2.3,30.07-12.34,43.23-5.37,6.38,3.37,10.33,10.19,11.95,17.21s1.19,14.32.76,21.51c-1.2,20.18-2.4,40.43-6.17,60.29C245.16,181.51,241.15,195.59,239.88,210.07Z" transform="translate(-38.48 -39.26)" fill="#68e1fd" opacity="0.18" style="isolation:isolate"/><path d="M193.75,173.4a32,32,0,0,1-2.28,3.19c-1.12,1.35-2.82,2.7-4.45,2a3.13,3.13,0,0,1-1.31-1.11c-1.65-2.27-1.22-5.48,0-8s3.16-4.62,4.55-7.05c1.79-3.14,5.28-13.36-.68-14.14-3-.4-5.59,1.91-7.54,4.21a52.44,52.44,0,0,0-11.87,27c-.42,3.34-.5,6.85.78,10a15.73,15.73,0,0,0,5.28,6.46c21.76,16.24,35-18.18,38.15-33.95.8-4,7.93-26.68-2-25.2-2.54.38-4.4,2.55-5.76,4.73C200.56,151.31,199.72,163.81,193.75,173.4Z" transform="translate(-38.48 -39.26)" fill="#f7bc9f"/><path d="M181.57,162.51c0,2.66.75,5.28.68,7.94,0,1.43-.33,2.86-.25,4.29a4.69,4.69,0,0,0,1.8,3.74c1.25-2.43,1-5.37,1.78-8a19,19,0,0,1,2.84-5.16,22.46,22.46,0,0,0,3-5.1,7.13,7.13,0,0,0-.14-5.73C186.94,146.45,181.62,158.52,181.57,162.51Z" transform="translate(-38.48 -39.26)" fill="url(#linear-gradient)"/><path d="M193.85,117c-.44-4.38,1.14-8.7,1.32-13.1.23-5.4-1.67-10.77-1.11-16.15.59-5.7,3.85-10.72,7-15.5,2.55-3.85,5.31-7.88,9.49-9.86a20.75,20.75,0,0,1,6.08-1.59A57,57,0,0,1,249,65.89a21.24,21.24,0,0,1,7.6,5.47c3.71,4.59,3.89,11.2,2.26,16.87s-4.84,10.74-7.45,16a5.31,5.31,0,0,0-.77,3.21,4.81,4.81,0,0,0,1.54,2.37c4.7,4.52,11.52,6.41,16,11.18a17.44,17.44,0,0,1,3.36,18c-1.5,3.74-4.34,7-4.79,11-1,8.77,9.62,15.05,10.21,23.85.29,4.24-1.85,8.27-4.36,11.69a24.78,24.78,0,0,1-8.52,7.78c-6.44,3.23-14.45,1.86-20.62-1.86s-10.82-9.46-15-15.29-8.23-11.92-13.55-16.77c-3.09-2.81-8.55-5.78-10-9.93-1.05-3.11.89-6.44,1.53-9.46,1.24-5.88-3-7.43-6.54-11.36C196.86,125.41,194.3,121.53,193.85,117Z" transform="translate(-38.48 -39.26)" fill="#f05a20"/><path d="M193.85,117c-.44-4.38,1.14-8.7,1.32-13.1.23-5.4-1.67-10.77-1.11-16.15.59-5.7,3.85-10.72,7-15.5,2.55-3.85,5.31-7.88,9.49-9.86a20.75,20.75,0,0,1,6.08-1.59A57,57,0,0,1,249,65.89a21.24,21.24,0,0,1,7.6,5.47c3.71,4.59,3.89,11.2,2.26,16.87s-4.84,10.74-7.45,16a5.31,5.31,0,0,0-.77,3.21,4.81,4.81,0,0,0,1.54,2.37c4.7,4.52,11.52,6.41,16,11.18a17.44,17.44,0,0,1,3.36,18c-1.5,3.74-4.34,7-4.79,11-1,8.77,9.62,15.05,10.21,23.85.29,4.24-1.85,8.27-4.36,11.69a24.78,24.78,0,0,1-8.52,7.78c-6.44,3.23-14.45,1.86-20.62-1.86s-10.82-9.46-15-15.29-8.23-11.92-13.55-16.77c-3.09-2.81-8.55-5.78-10-9.93-1.05-3.11.89-6.44,1.53-9.46,1.24-5.88-3-7.43-6.54-11.36C196.86,125.41,194.3,121.53,193.85,117Z" transform="translate(-38.48 -39.26)" fill="url(#linear-gradient-2)"/><path d="M257.65,152.33a25.08,25.08,0,0,1,.79,3.43,58.57,58.57,0,0,1,.14,13.88c-.77,10.11-3.26,20.34-3.43,30.38-.17,10.8-1.1,21.61-2,32.37-.39,4.63-1,9.69-4.34,12.9-4,3.8-10.21,3.56-15.69,3.06l-27-2.42c-4.24-.38-9.69-2.05-9-7.16.82-6,4.1-11.67,5-17.78a66,66,0,0,0-4.91-36.69c-1.5-3.35-3.32-6.67-3.67-10.33-.42-4.52,1.45-8.9,3.4-13,2.33-4.91,4.82-9.73,7.36-14.53s3.82-6.56,9.17-7.95c12.87-3.33,27.58-2.53,38.07,5.64a18.34,18.34,0,0,1,4.42,4.67A15.61,15.61,0,0,1,257.65,152.33Z" transform="translate(-38.48 -39.26)" fill="#68e1fd"/><path d="M199.17,147a1.92,1.92,0,0,1-.65,1.45c-.28.19-.68.23-.87.54a1.1,1.1,0,0,0-.14.57c-.07,1.69-.15,3.38-.22,5.07,0,.86-.23,1.92-1,2.22a11.55,11.55,0,0,1-1.2.18c-.27.08-.51.25-.79.33a2,2,0,0,1-.85,0,52.61,52.61,0,0,1-5.41-.9c-.19,0-.39-.08-.58-.13a1.43,1.43,0,0,1-.72-.32,1.47,1.47,0,0,1-.33-.74c-.52-2.18-1.06-4.35-1.59-6.54-.2-.86-.57-1.85-1.42-2a1.83,1.83,0,0,1-.58-.14.94.94,0,0,1-.28-.56c-.38-1.58-.75-3.17-1.13-4.77-.19-.78-.82-2.6.41-2.92a1.53,1.53,0,0,1,.67,0q.81.13,1.62.24c5,.63,10.15.16,15.23-.3A35.34,35.34,0,0,1,199.17,147Z" transform="translate(-38.48 -39.26)" fill="#f29063"/><path d="M195.67,149.61a4,4,0,0,1-1.59.42l-2.17.22a.68.68,0,0,0-.4.12.79.79,0,0,0-.25.56A25.17,25.17,0,0,0,191,155a.77.77,0,0,1-.2.65.83.83,0,0,1-.51.1,6.38,6.38,0,0,0-2.29.76c-.19,0-.39-.08-.58-.13a1.43,1.43,0,0,1-.72-.32,1.47,1.47,0,0,1-.33-.74c-.52-2.18-1.06-4.35-1.59-6.54-.2-.86-.57-1.85-1.42-2a1.83,1.83,0,0,1-.58-.14.94.94,0,0,1-.28-.56c-.38-1.58-.75-3.17-1.13-4.77-.19-.78-.82-2.6.41-2.92a1.53,1.53,0,0,1,.67,0q.81.13,1.62.24a7.44,7.44,0,0,0-.54,3.76,10.69,10.69,0,0,0,1.16,3.57,3,3,0,0,0,.49,1,2.9,2.9,0,0,0,1.57.59,58.05,58.05,0,0,0,9.6.71A1.32,1.32,0,0,1,195.67,149.61Z" transform="translate(-38.48 -39.26)" fill="#c16540"/><path d="M199.52,106.72a51.15,51.15,0,0,0,.69,11.27,17.16,17.16,0,0,0,5.35,9.74c2.89,2.42,7.11,3.45,10.57,2a65.75,65.75,0,0,1,1.29,15.08c-.06,2.08-.14,4.38,1.21,6,2,2.34,5.72,1.65,8.65.71s6.37-2.26,7.67-5.17a11.64,11.64,0,0,0,.71-4.32l1-26.27a96.14,96.14,0,0,0-.15-13.79c-.59-5.47-2.27-11.07-6.18-14.94-3.66-3.62-8.79-5.28-13.78-6.54a32.16,32.16,0,0,0-8.69-1.27c-5,.13-12,3.45-9.79,9.36S199.61,100.37,199.52,106.72Z" transform="translate(-38.48 -39.26)" fill="#f7bc9f"/><path d="M247.5,143.56a9.54,9.54,0,0,1,4.12.81c3.63,1.64,6.1,5.15,7.67,8.81,2.63,6.14,3.21,12.95,3.43,19.63a202.75,202.75,0,0,1-.4,20.48c-.36,5.1-1.36,10.93-5.74,13.57-4.75,2.87-10.87.43-15.61-2.47-10.07-6.18-18.77-14.36-26.77-23-5.16-5.6-10.11-6.82-17.07-9-4.6-1.43-7.83-5.49-10.58-9.45a7.52,7.52,0,0,1-1.6-3.49,5.18,5.18,0,0,1,2.48-4.48,15.33,15.33,0,0,1,5-1.88l3.79-.94a7.3,7.3,0,0,1,2.07-.3,6.34,6.34,0,0,1,2.87,1.08c3.89,2.37,7,5.75,9.83,9.22,2.13,2.57,3.66,5.9,6.25,8,8,6.36,18.61,10.91,27.58,15.76A213.61,213.61,0,0,1,240,154.75c-.21-2.65-.33-5.49,1-7.77A7.63,7.63,0,0,1,247.5,143.56Z" transform="translate(-38.48 -39.26)" fill="#f7bc9f"/><path d="M198.71,135.65a4.19,4.19,0,0,1-2,3.58,5.32,5.32,0,0,1-2.21.35l-4.47.07-1,0c-2.1.06-4.66.13-6.43-.79s-1.91-3.74-1.38-5.47a10.81,10.81,0,0,1,3.52-4.94,6.13,6.13,0,0,1,.11-5.32,11.38,11.38,0,0,1,3.58-4.1c-1.38-1-1.24-3.2-.42-4.73s2.12-2.76,2.81-4.35a7.53,7.53,0,0,0-.14-5.87,34.91,34.91,0,0,1,2.52,2.78,11.12,11.12,0,0,1,2.54,5,11.28,11.28,0,0,1-1.45,7,6,6,0,0,1,2.51,8.88,1.51,1.51,0,0,0-.35.81,1.45,1.45,0,0,0,.4.81A9.17,9.17,0,0,1,198.71,135.65Z" transform="translate(-38.48 -39.26)" fill="#fff"/><path d="M208.08,80.77c1.75,2.16,1.64,5.24,2.57,7.87a12.6,12.6,0,0,0,7.68,7.24,23.58,23.58,0,0,0,10.76.93c2.64-.29,5.44-.82,7.86.26.09-6.76-.06-14.2-4.53-19.28a18.25,18.25,0,0,0-11.2-5.55,47.18,47.18,0,0,0-12.72.35,18.58,18.58,0,0,0-7.06,1.91c-2.14,1.24-5.16,4.52-1.17,4.46C203.2,78.91,205.89,78,208.08,80.77Z" transform="translate(-38.48 -39.26)" fill="#f05a20"/><path d="M187.52,75c-3.59,4.33-2.29,11.06.91,15.69s7.9,8,11.6,12.24c-.78-4.17-1.56-8.39-1.3-12.63a17.59,17.59,0,0,1,4.45-11.17c2.24-2.34,6.3-3.82,4.09-7.66C203.77,65.39,190.85,71,187.52,75Z" transform="translate(-38.48 -39.26)" fill="#f05a20"/><path d="M216,113.32a20,20,0,0,1-1.15,4.13c-.64,1.78-1.44,3.73-3.16,4.52-2.32,1-7.47-4.17-6.44-6.25,0,0,4.37-1.11,5.68-1.2A30.23,30.23,0,0,0,216,113.32Z" transform="translate(-38.48 -39.26)" fill="#fff"/><path d="M264.55,341.6c-11.86,2.21-23.24,1.43-34.83-.66q-2.47-24.84-4.91-49.7-5.76,23.06-13.43,45.61c-7.32-1.83-14.87-3.82-22.78-5.59-.75-.17-1.5-.32-2.24-.47A683.87,683.87,0,0,0,195.77,263c.39-4.48-.92-16,1.43-19.63,2.51-3.87,8.53-2.38,13.52-2.43l39.77-.26C258.36,273.77,255.6,309,264.55,341.6Z" transform="translate(-38.48 -39.26)" fill="#3e3e52"/><path d="M198.71,135.65a4.19,4.19,0,0,1-2,3.58,5.32,5.32,0,0,1-2.21.35l-4.47.07-1,0-.16-.07a3.14,3.14,0,0,1-1.38-1.54c1.87,0,3.73-.13,5.57-.3a3.77,3.77,0,0,0,2.55-.9,3.59,3.59,0,0,0-1.89-6,7.9,7.9,0,0,0,1.29-1.65c-2.33.89-5,1.53-7.28.54a28.89,28.89,0,0,0,5.41-1.89,5.65,5.65,0,0,0,3.16-4.5A6.66,6.66,0,0,0,194.2,119c-.62-.08-1.28,0-1.32-.64a5.12,5.12,0,0,1,.38-1.83,16.19,16.19,0,0,0,0-9.62,11.12,11.12,0,0,1,2.54,5,11.28,11.28,0,0,1-1.45,7,6,6,0,0,1,2.51,8.88,1.51,1.51,0,0,0-.35.81,1.45,1.45,0,0,0,.4.81A9.17,9.17,0,0,1,198.71,135.65Z" transform="translate(-38.48 -39.26)" fill="url(#linear-gradient-3)"/></svg>