<svg id="Layer_1" data-name="Layer 1" xmlns="http://www.w3.org/2000/svg" xmlns:xlink="http://www.w3.org/1999/xlink" viewBox="0 0 404.11 265.75"><defs><linearGradient id="linear-gradient" x1="149.17" y1="122.79" x2="313.82" y2="374.9" gradientUnits="userSpaceOnUse"><stop offset="0.01"/><stop offset="0.13" stop-opacity="0.69"/><stop offset="0.25" stop-opacity="0.32"/><stop offset="1" stop-opacity="0"/></linearGradient><linearGradient id="linear-gradient-2" x1="160.14" y1="121.25" x2="153.81" y2="196.94" xlink:href="#linear-gradient"/><linearGradient id="linear-gradient-3" x1="161.26" y1="140.28" x2="148.79" y2="276.99" xlink:href="#linear-gradient"/><linearGradient id="linear-gradient-4" x1="160.97" y1="135.73" x2="206.51" y2="206.6" xlink:href="#linear-gradient"/><linearGradient id="linear-gradient-5" x1="189.31" y1="216.05" x2="192.53" y2="132.81" xlink:href="#linear-gradient"/><linearGradient id="linear-gradient-6" x1="160.75" y1="132.78" x2="159.37" y2="131.66" xlink:href="#linear-gradient"/><linearGradient id="linear-gradient-7" x1="171.61" y1="161.56" x2="116.49" y2="116.47" xlink:href="#linear-gradient"/></defs><title>6</title><path d="M53.38,116.17c-4.94,13.9-7.15,28.71-12.88,42.3-10.22,24.26-31.37,44.16-35,70.24-3.75,27.06,13.8,54.07,37.8,67.13s53,14.06,79.86,9.14c19.5-3.56,38.65-10.07,58.47-10.26A186,186,0,0,1,205,296.48L269,304c38,4.48,80.51,7.79,110.6-15.87,18.82-14.81,29.52-38.89,29.54-62.84s-10.17-47.45-26.46-65c-9-9.65-19.66-17.62-28-27.8C334.54,108,327.51,77.89,293.39,68.79c-28.24-7.53-53.92-5.22-81.58-16.72C150.14,26.42,76.8,50.22,53.38,116.17Z" transform="translate(-5.01 -41.96)" fill="#68e1fd" opacity="0.18" style="isolation:isolate"/><path d="M67.23,160.29c7.21,7.34,18.93,7.32,29.11,5.86,4.45-.63,9-1.45,13.41-.65,8.45,1.52,16.34,8.77,24.51,6.11a51.75,51.75,0,0,0-19.36,12.08c-1.71,1.7-3.43,4-2.7,6.32,1.3,4.15,9.06,4,9.29,8.33A157.49,157.49,0,0,0,79,226.94c-3.4,3.2-6.83,6.89-7.44,11.52-.55,4.09,1.28,8.2,3.9,11.38,8.7,10.55,24.41,11.79,38,9.9s27.27-6.06,40.64-3.21c-1.08,5.33-1.66,12,2.83,15.09a14,14,0,0,0,4.76,1.78c12.76,3,26.25,6.08,38.79,2.25,2.31-.7,4.6-1.64,7-1.73,2.78-.1,5.45.93,8.08,1.85a114.84,114.84,0,0,0,52.42,5.54c4.23-.54,8.85-1.57,11.38-5,1.3-1.77,1.88-4,3.15-5.77,3-4.2,8.67-5.05,13.59-6.55s10.3-5.38,9.4-10.44c-1-5.76-8.73-7-12.85-11.17-5-5-3.71-13.8.51-19.49s10.62-9.26,16.3-13.5A77.83,77.83,0,0,0,334,178.56c.55-1.25,1.05-2.77.29-3.91a4.18,4.18,0,0,0-2.74-1.39c-14.35-3-29.18-1.77-43.8-.81-4.17.27-8.54.49-12.37-1.2s-6.88-5.92-5.78-10c1.32-4.84,7.92-8.34,6.24-13.06-.7-1.95-2.66-3.13-4.53-4a47.62,47.62,0,0,0-19.3-4.58l11.92-23.57a6.2,6.2,0,0,0,.93-3.17c-.2-2.43-3-3.64-5.31-4.34-9.76-2.92-21.46-5.48-29.23,1.12-2.56,2.17-4.4,5.16-7.25,6.94-6.31,3.94-14.37.48-21.53-1.57-24.75-7.07-50.8,4.54-72.34,16-10.24,5.46-19.83,10.47-30.82,14.44C95.75,146.45,66.31,159.35,67.23,160.29Z" transform="translate(-5.01 -41.96)" fill="#68e1fd" opacity="0.38"/><path d="M128.24,219.72c-2.64,1.1-5.82,3.15-5.11,5.91.78,3,5.08,2.94,8.12,2.17,16.41-4.12,33-7.43,49.76-9.91a42.82,42.82,0,0,1-11.69,21.85c-4.7,4.7-10.89,9-11.82,15.55,4.5,2,9.74,1.75,14.45.33s9-3.93,13.25-6.42c.26,3.86,1,8.4,4.41,10.13,4.17,2.08,8.74-1.45,12.77-3.79a26.6,26.6,0,0,1,14.4-3.56,5.66,5.66,0,0,1,3.14.82c1.32,1,1.68,2.74,2.14,4.31,2.78,9.61,13.47,16.18,23.3,14.32a4.15,4.15,0,0,0,1.58-.56c1.41-1,1.2-3.15.61-4.78-2.19-6.13-7.17-10.76-11.06-16s-6.81-12.19-4.16-18.14c8.21,2.36,13.64,9.88,20.25,15.28A44.67,44.67,0,0,0,270,255.94c2.31-2.63,1.29-6.79-.51-9.79-2.75-4.56-6.89-8.08-10.43-12.06s-6.65-8.84-6.53-14.16,3.39-10,6.21-14.48A109.08,109.08,0,0,0,271,178.12c-5.88-.9-12.27-2.07-16.19-6.54s-4.23-10.72-5.81-16.35-5.93-11.64-11.74-11c-4.9.56-7.95,5.53-12.25,7.95-7.39,4.15-16.43.11-24.72-1.65-8.12-1.73-16.53-1.14-24.8-.42a39.26,39.26,0,0,0-10.89,2c-4.65,1.81-8.44,5.26-12.07,8.68q-5,4.68-9.81,9.47c-2.9,2.85-5.82,5.81-7.56,9.49s-2.08,8.26.12,11.67c2.91,4.51,8.88,5.14,13.7,4,5.86-1.36,10.14-7.48,16-7.93,5.41-.4,9.89,5.85,5.42,9.9-5.25,4.76-13,8.17-19.25,11.48C143.7,212.88,136,216.45,128.24,219.72Z" transform="translate(-5.01 -41.96)" fill="#68e1fd" opacity="0.59"/><path d="M241.67,149.63A63.33,63.33,0,1,0,257,191,63.19,63.19,0,0,0,241.67,149.63ZM224,191a30.3,30.3,0,1,1-9.82-22.31A30.28,30.28,0,0,1,224,191Z" transform="translate(-5.01 -41.96)" fill="#68e1fd"/><path d="M241.67,149.63A63.33,63.33,0,1,0,257,191,63.19,63.19,0,0,0,241.67,149.63ZM224,191a30.3,30.3,0,1,1-9.82-22.31A30.28,30.28,0,0,1,224,191Z" transform="translate(-5.01 -41.96)" fill="url(#linear-gradient)"/><path d="M241.67,149.63a63.34,63.34,0,0,0-103.61,71.62,63.34,63.34,0,0,0,103.61-71.62Zm-48,71.61a30.28,30.28,0,0,1-28.11-19,30.27,30.27,0,1,1,48.56-33.57,30.27,30.27,0,0,1-20.45,52.59Z" transform="translate(-5.01 -41.96)" fill="#68e1fd"/><path d="M155.94,150a12.61,12.61,0,0,0,3.16-4.62c.27,1.72.52,3.55-.21,5.13a19.63,19.63,0,0,1-1.37,2.16,7.51,7.51,0,0,0-1.08,3.22,84.52,84.52,0,0,0,10.74-6.7,2.44,2.44,0,0,0,1.07-1.33,2.36,2.36,0,0,0-.36-1.42q-2.7-5.37-5.84-10.5a.66.66,0,0,0-.32-.32.68.68,0,0,0-.44,0c-3.61,1.29-7.26,2.83-9.92,5.58s-4.43,6.86-3.89,10.57c.68-.12,1.13-.75,1.78-.87s1.51.3,2.21.36A6.4,6.4,0,0,0,155.94,150Z" transform="translate(-5.01 -41.96)" fill="url(#linear-gradient-2)"/><path d="M142.25,187.12a12.61,12.61,0,0,0,1.81,5.17,39.73,39.73,0,0,0,25.35,19.15c.78-1.38-.11-3.08-1-4.37-4.29-5.95-10.23-11.47-10.8-18.79-.35-4.52,1.47-8.89,2.64-13.27s1.56-9.49-1.22-13.07a3.69,3.69,0,0,0-1.65-1.31,4.59,4.59,0,0,0-3.36.77c-4.64,2.48-9.32,5.42-9.54,11.17-.09,2.3.19,4-.4,6.34C143.37,181.6,142.06,184.28,142.25,187.12Z" transform="translate(-5.01 -41.96)" fill="url(#linear-gradient-3)"/><path d="M172.54,139.51c0,1.82,1.7,3.26,3.46,3.68a14.67,14.67,0,0,0,5.4-.14,50.17,50.17,0,0,1,22,2.07c4.47,1.47,9,3.77,11.42,7.79a21.15,21.15,0,0,1,2.48,7.76,66.23,66.23,0,0,1,.74,13.71c-.18,3.47.12,7.15-1.94,10a1.56,1.56,0,0,1-.73.62,1.46,1.46,0,0,1-1.34-.55,10.33,10.33,0,0,1-2.44-5.36,32.86,32.86,0,0,1-.71-6.56c0-3,.89-5.3.1-8.16a38.51,38.51,0,0,0-3.64-8.11,3.58,3.58,0,0,0-1.23-1.51,3.67,3.67,0,0,0-1.47-.33l-12-1a16.17,16.17,0,0,0-6.9.44c-2.67,1-4.63,3.26-7.15,4.57-3.23,1.68-7.19,1.66-10.24,3.64a61.24,61.24,0,0,0-15.19,14.68,3.36,3.36,0,0,0-.82,1.82,3.27,3.27,0,0,0,.65,1.69l8.29,13.45c2.61,4.24,6.4,8.77,11.13,10.33,1.08.36,2.48,1,2.31,2.12-.06.38-.3.71-.4,1.09-.35,1.42,1.58,2.63,1.29,4.07s-2.15,1.55-3.5,1.24a15.38,15.38,0,0,1-8.33-5.23c-1.2-1.49-2.11-3.18-3.17-4.77-3.13-4.71-7.52-8.43-11-12.9-2-2.64-4-5.89-4.61-9.23-.23-1.36-.82-2.54-1.08-3.89a10,10,0,0,1,.32-4.68,31,31,0,0,1,3.69-7.08,59.58,59.58,0,0,1,4.73-7.1,39.86,39.86,0,0,1,5.06-4.83q3.44-2.88,7-5.56a1.19,1.19,0,0,0,.5-.59,1,1,0,0,0,0-.49,12.81,12.81,0,0,0-1.42-3.49c-.68-1.15-1.58-2.4-1.22-3.69,2.2,1.36,4.92,1.07,7.39,1.11a5.32,5.32,0,0,0,1.38-.09C171.82,139.93,172.29,139.9,172.54,139.51Z" transform="translate(-5.01 -41.96)" fill="#ffb89d"/><path d="M163.39,138.89a6.25,6.25,0,0,0,2.32,4.4,9.29,9.29,0,0,0,3.56,2.11,6.14,6.14,0,0,0,4.08-.13,2.1,2.1,0,0,0,1.31-1.24,2,2,0,0,0-.43-1.61c-.34-.47-.79-.85-1.13-1.31a15.93,15.93,0,0,0-1.41-2.09,5.29,5.29,0,0,0-3.49-1,7.68,7.68,0,0,0-3.79.44" transform="translate(-5.01 -41.96)" fill="#f49f84"/><path d="M172.74,124.7a26.07,26.07,0,0,1,3.27,7.9c.49,2.81-.1,6-2.21,7.92a7.68,7.68,0,0,1-7.79,1.26,11.4,11.4,0,0,1-5.88-5.59,12.88,12.88,0,0,1-1.21-8.69,9.92,9.92,0,0,1,5.4-6.76c2.44-1.09,5.73-.78,7.25,1.42" transform="translate(-5.01 -41.96)" fill="#ffb89d"/><path d="M159.92,166.93s15.53,5.71,16.25,19.58.72,19.12,10.28,22.82,31.7,6.17,31.7,6.17l1.29,31.61s-3.35.62-1.29,4.78,1.75,8.17,6.07,12.49,11.87,3.7,11.72,2.93,1.23-1.65-4-7.07-5.09-19.92-5.09-19.92,2.62-19.64,1.85-22.93-17.42-17.93-23.9-20.86l-3.85-2.92,26.21,15.26,11.72,13.57,17.42,26.06a22.78,22.78,0,0,0,8.95,6.47c5.24,1.85,11.56-1.85,10-3.7s-12-8-12.64-8.94-25.75-40.4-25.75-40.4l-27.3-19.43S191.3,172.33,189.68,169s2.34,8.3-1.07-15.74S159.92,166.93,159.92,166.93Z" transform="translate(-5.01 -41.96)" fill="#ffb89d"/><path d="M160.62,149.63c.53,1.75,2,3,3.11,4.45a11.83,11.83,0,0,1,1.34,11.74c-.4.91-.94,1.91-.59,2.84a3.24,3.24,0,0,0,.8,1.08l1.65,1.68a6.36,6.36,0,0,0,1.46,1.23,4.81,4.81,0,0,0,2.4.51,8.84,8.84,0,0,0,6-2.54,9.49,9.49,0,0,0,2.75-6,10.42,10.42,0,0,0,8.22-.67,5.34,5.34,0,0,0,2.17-1.93,6.15,6.15,0,0,0,.62-1.84,24.4,24.4,0,0,0,.44-2.95,5.57,5.57,0,0,0-.17-2.44,2.26,2.26,0,0,0-1.77-1.55,4.25,4.25,0,0,1-2.32-.94,4.45,4.45,0,0,1-1-1.19,19.18,19.18,0,0,1-1.33-2.33c-.56-1.2-.89-2.49-1.44-3.69a5.57,5.57,0,0,0-2.58-2.9c-.24-.11-.58-.16-.69.07a.58.58,0,0,0,.07.49q2.22,4.31,4.18,8.75a1.21,1.21,0,0,1,.15.78,1.23,1.23,0,0,1-.6.63,19.74,19.74,0,0,0-3.95,3,6.84,6.84,0,0,0-2.05,4.38,11.64,11.64,0,0,0-7.34,1.35,1.92,1.92,0,0,1-.68.28,1.27,1.27,0,0,1-.92-.29,4.71,4.71,0,0,1-1.4-2.28l-2.24-6a18.45,18.45,0,0,0-2-4.16,1.82,1.82,0,0,0-.84-.74C161.37,148.15,161.11,148.94,160.62,149.63Z" transform="translate(-5.01 -41.96)" fill="#68e1fd"/><path d="M160.62,149.63c.53,1.75,2,3,3.11,4.45a11.83,11.83,0,0,1,1.34,11.74c-.4.91-.94,1.91-.59,2.84a3.24,3.24,0,0,0,.8,1.08l1.65,1.68a6.36,6.36,0,0,0,1.46,1.23,4.81,4.81,0,0,0,2.4.51,8.84,8.84,0,0,0,6-2.54,9.49,9.49,0,0,0,2.75-6,10.42,10.42,0,0,0,8.22-.67,5.34,5.34,0,0,0,2.17-1.93,6.15,6.15,0,0,0,.62-1.84,24.4,24.4,0,0,0,.44-2.95,5.57,5.57,0,0,0-.17-2.44,2.26,2.26,0,0,0-1.77-1.55,4.25,4.25,0,0,1-2.32-.94,4.45,4.45,0,0,1-1-1.19,19.18,19.18,0,0,1-1.33-2.33c-.56-1.2-.89-2.49-1.44-3.69a5.57,5.57,0,0,0-2.58-2.9c-.24-.11-.58-.16-.69.07a.58.58,0,0,0,.07.49q2.22,4.31,4.18,8.75a1.21,1.21,0,0,1,.15.78,1.23,1.23,0,0,1-.6.63,19.74,19.74,0,0,0-3.95,3,6.84,6.84,0,0,0-2.05,4.38,11.64,11.64,0,0,0-7.34,1.35,1.92,1.92,0,0,1-.68.28,1.27,1.27,0,0,1-.92-.29,4.71,4.71,0,0,1-1.4-2.28l-2.24-6a18.45,18.45,0,0,0-2-4.16,1.82,1.82,0,0,0-.84-.74C161.37,148.15,161.11,148.94,160.62,149.63Z" transform="translate(-5.01 -41.96)" fill="url(#linear-gradient-4)"/><path d="M184.54,195.77a43.39,43.39,0,0,1,8.68-.33l11.1.33c.76-1,.26-2.35-.14-3.51a16.23,16.23,0,0,1-.77-7.12,28.7,28.7,0,0,0,.48-4.32,4.49,4.49,0,0,0-1.84-3.75,1.66,1.66,0,0,0-2,0,2.54,2.54,0,0,0-.51,1c-1,2.68-3.36,4.55-5.66,6.24-4.69,3.44-9.93,6.89-15.74,6.73-.76,0-1.64,0-2.11.54a2.13,2.13,0,0,0-.34,1c-.24,1.75-.25,4.59,1.93,5C179.63,198,182.52,196.13,184.54,195.77Z" transform="translate(-5.01 -41.96)" fill="#68e1fd"/><path d="M184.54,195.77a43.39,43.39,0,0,1,8.68-.33l11.1.33c.76-1,.26-2.35-.14-3.51a16.23,16.23,0,0,1-.77-7.12,28.7,28.7,0,0,0,.48-4.32,4.49,4.49,0,0,0-1.84-3.75,1.66,1.66,0,0,0-2,0,2.54,2.54,0,0,0-.51,1c-1,2.68-3.36,4.55-5.66,6.24-4.69,3.44-9.93,6.89-15.74,6.73-.76,0-1.64,0-2.11.54a2.13,2.13,0,0,0-.34,1c-.24,1.75-.25,4.59,1.93,5C179.63,198,182.52,196.13,184.54,195.77Z" transform="translate(-5.01 -41.96)" fill="url(#linear-gradient-5)"/><path d="M176.26,128.2a15.7,15.7,0,0,0,0,1.68l.09,4.3c-.75-3.82-3.59-6.88-5-10.5a.38.38,0,0,0-.15-.22c-.14-.09-.31,0-.44.1-.63.5-1,1.26-1.61,1.78-1.56,1.35-4.26.85-5.59,2.43a7.74,7.74,0,0,0-.94,1.86,7.06,7.06,0,0,1-2.09,2.66,2.8,2.8,0,0,1-.33.24c0-.15,0-.29.07-.44a3.6,3.6,0,0,0,0-1c0-.17-.14-.38-.3-.33s-.11.07-.16.13a2.38,2.38,0,0,0-.29.85,9,9,0,0,0,.3,3,15.26,15.26,0,0,0,2.11,4.4c-1.16-.08-2.32-.14-3.49-.21a2.18,2.18,0,0,0-1.24.16c-.75.41-.76,1.46-.77,2.32a10.74,10.74,0,0,1-7.27,9.7,18.27,18.27,0,0,0-2.34.76c-1.35.64-1.39,1.85-2.37,2.78a5.69,5.69,0,0,1-3.32,1.71,3.39,3.39,0,0,1-.45,0,4.26,4.26,0,0,1-2.32-.82c-2.52-1.77-3.06-5.34-2.47-8.36s2.07-5.78,2.8-8.77c.44-1.83.59-3.7,1-5.52a21.48,21.48,0,0,1,1.76-4.53,27.26,27.26,0,0,1,5.13-7,11.35,11.35,0,0,1,2.67-2.06,16,16,0,0,1,5.67-1.42c2.07-.27,3.11-1.66,4.68-2.9a7.81,7.81,0,0,1,3.91-1.57,8.43,8.43,0,0,1,7.4,2.76c.39.46,1.09.36,1.66.53a6.29,6.29,0,0,1,1.79.86,6.11,6.11,0,0,1,2.37,3.13,10.44,10.44,0,0,1,0,5.12A23.59,23.59,0,0,0,176.26,128.2Z" transform="translate(-5.01 -41.96)" fill="#fc682d"/><path d="M160.45,132.29a2.8,2.8,0,0,1-.33.24c0-.15,0-.29.07-.44A1.64,1.64,0,0,1,160.45,132.29Z" transform="translate(-5.01 -41.96)" fill="url(#linear-gradient-6)"/><path d="M161.81,139.13c-1.16-.08-2.32-.14-3.49-.21a2.18,2.18,0,0,0-1.24.16c-.75.41-.76,1.46-.77,2.32a10.74,10.74,0,0,1-7.27,9.7,18.27,18.27,0,0,0-2.34.76c-1.35.64-1.39,1.85-2.37,2.78a5.69,5.69,0,0,1-3.32,1.71,5.82,5.82,0,0,1-.8-3.18c.35-2.93,4.33-4.26,5-7.14.35-1.64-.47-3.29-.46-5a6.38,6.38,0,0,1,2.73-4.89,13.62,13.62,0,0,1,5.34-2.14,16,16,0,0,0,4-1.14c.81-.41,1.63-1.26,2.58-1.14a9,9,0,0,0,.3,3A15.26,15.26,0,0,0,161.81,139.13Z" transform="translate(-5.01 -41.96)" fill="url(#linear-gradient-7)"/></svg>