<svg id="Layer_1" data-name="Layer 1" xmlns="http://www.w3.org/2000/svg" xmlns:xlink="http://www.w3.org/1999/xlink" viewBox="0 0 376.58 290.65"><defs><linearGradient id="linear-gradient" x1="343.36" y1="306.08" x2="14.5" y2="-171.44" gradientTransform="matrix(1, 0, 0, -1, 0, 352)" gradientUnits="userSpaceOnUse"><stop offset="0.01"/><stop offset="0.08" stop-opacity="0.69"/><stop offset="0.21" stop-opacity="0.32"/><stop offset="1" stop-opacity="0"/></linearGradient><linearGradient id="linear-gradient-2" x1="56.63" y1="81.87" x2="263.98" y2="81.87" xlink:href="#linear-gradient"/><linearGradient id="linear-gradient-3" x1="258.35" y1="158.97" x2="206.74" y2="107.87" xlink:href="#linear-gradient"/><linearGradient id="linear-gradient-4" x1="221.64" y1="211.54" x2="246.94" y2="122.86" xlink:href="#linear-gradient"/><linearGradient id="linear-gradient-5" x1="268.74" y1="105.21" x2="272.51" y2="170.11" xlink:href="#linear-gradient"/><linearGradient id="linear-gradient-6" x1="194.18" y1="197.23" x2="257.81" y2="169.43" xlink:href="#linear-gradient"/><linearGradient id="linear-gradient-7" x1="247.35" y1="192.79" x2="285.96" y2="193.12" xlink:href="#linear-gradient"/><linearGradient id="linear-gradient-8" x1="71.89" y1="230.66" x2="94.42" y2="-3.59" xlink:href="#linear-gradient"/><linearGradient id="linear-gradient-9" x1="125.12" y1="129.28" x2="97.07" y2="98.17" gradientTransform="matrix(1, 0, 0, -1, -18.74, 310.69)" xlink:href="#linear-gradient"/><linearGradient id="linear-gradient-10" x1="185.33" y1="341.27" x2="174.37" y2="74.43" xlink:href="#linear-gradient"/><linearGradient id="linear-gradient-11" x1="124.87" y1="357.82" x2="113.26" y2="75.35" xlink:href="#linear-gradient"/><linearGradient id="linear-gradient-12" x1="90.53" y1="196.43" x2="115.59" y2="143.78" xlink:href="#linear-gradient"/><linearGradient id="linear-gradient-13" x1="187.89" y1="392.54" x2="173.75" y2="48.31" xlink:href="#linear-gradient"/><linearGradient id="linear-gradient-14" x1="157.22" y1="356.49" x2="145.61" y2="74.02" xlink:href="#linear-gradient"/><linearGradient id="linear-gradient-15" x1="136.87" y1="357.33" x2="125.26" y2="74.86" xlink:href="#linear-gradient"/><linearGradient id="linear-gradient-16" x1="139.03" y1="193.92" x2="214.27" y2="194.57" xlink:href="#linear-gradient"/></defs><title>7</title><g id="Layer_1-2" data-name="Layer 1"><path d="M390.43,231.22a146.15,146.15,0,0,1-18,41.87l-.58.91c-15.79,24.48-41.17,42.08-69,50.81s-57.86,9-86.44,3.32c-14.93-2.95-29.69-7.5-44.9-7.89-11.53-.3-23,1.8-34.39,3.32-38.68,5.16-108.53,8.19-117.49-41.76-2.25-12.55.15-24.56,3.53-36.62a43.12,43.12,0,0,1,7-14c2.34-3.34,4.92-6.61,7.44-10.71,5.72-9.34,4.77-21.31,1.93-31.88s-7.4-20.8-8.39-31.71c-.94-10.3,1.38-20.61,4.08-30.6,4.43-16.32,9.6-31.14,24.37-40.19C74.71,76.87,92,68.47,110.25,70.81c7.93,1,15.48,4,23.4,5.1,8.07,1.08,16.27.09,24.33-1,8.55-1.18,17.19-2.52,25.15-5.85,6-2.5,11.45-6.07,17.1-9.24a143.08,143.08,0,0,1,31.7-13A148.28,148.28,0,0,1,322,50c8.66,3.16,17.13,7.23,24,13.33,14.71,13,18.25,31.49,26.94,48.08,8.84,16.88,16.2,33.16,19.72,52.1A157.24,157.24,0,0,1,390.43,231.22Z" transform="translate(-18.74 -41.31)" fill="#68e1fd" opacity="0.18" style="isolation:isolate"/><path d="M390.43,231.22a146.15,146.15,0,0,1-18,41.87l-.58.91c-15.79,24.48-41.17,42.08-69,50.81s-57.86,9-86.44,3.32c-14.93-2.95-29.69-7.5-44.9-7.89-11.53-.3-23,1.8-34.39,3.32-38.68,5.16-108.53,8.19-117.49-41.76-2.25-12.55.15-24.56,3.53-36.62a43.12,43.12,0,0,1,7-14Z" transform="translate(-18.74 -41.31)" fill="#68e1fd"/><path d="M390.43,231.22a146.15,146.15,0,0,1-18,41.87l-.58.91c-15.79,24.48-41.17,42.08-69,50.81s-57.86,9-86.44,3.32c-14.93-2.95-29.69-7.5-44.9-7.89-11.53-.3-23,1.8-34.39,3.32C102.91,328.12,44.32,331,25,297.07a47.71,47.71,0,0,1-5.41-15.27,66.3,66.3,0,0,1,.57-24.32c.78-4.11,1.81-8.2,3-12.3a43.12,43.12,0,0,1,7-14Z" transform="translate(-18.74 -41.31)" fill="url(#linear-gradient)"/><path d="M157.5,282c-1.45-5.5-8.43-7-14.1-7.46a736.11,736.11,0,0,1-86.77-12.87c20.36-3,41.1-1.16,61.63.32s40.85,2.54,61.3,3.21c4,.13,8.06.24,11.91-.85,4-1.12,7.57-3.49,11.57-4.67,3.72-1.09,7.66-1.11,11.55-1.11,12.09,0,24.39-.69,36.47,0,4.35.23,16.42,4.4,11.94,11.4-3.51,5.5-24.36,5-30.44,5.51-11.86,1-23.76,1.46-35.64,2.16C183.71,278.37,170.49,279.45,157.5,282Z" transform="translate(-18.74 -41.31)" fill="url(#linear-gradient-2)"/><path d="M245.28,261.09a8.71,8.71,0,0,1,0,2.79l-2.29-.43a2.07,2.07,0,0,0,1,2.62c1.75,1.1,7.69,1,12.09,1s9.29.3,10.39-1.2.1-3.38,0-4.48-6.25.2-6.25.2,1,3.49-1.82,3.59-8.17-.3-8.17-.3l-.2-4.39Z" transform="translate(-18.74 -41.31)" fill="#505365"/><path d="M245,250.77c.15,2.49-1.29,9.5-.83,10.19s2.49,2.13,6.76,1.44,6.77,1,9.52,1,7.26.44,7.71-1.37-.49-4.17-4.78-4.68-6.07-3.45-7.4-5.51S245,250.77,245,250.77Z" transform="translate(-18.74 -41.31)" fill="#404351"/><path d="M214,256a8,8,0,0,1-1.38,2.15l-1.55-1.47a1.88,1.88,0,0,0-.5,2.53c.81,1.71,5.43,4.57,8.82,6.75s7,4.82,8.59,4.22,1.75-2.56,2.22-3.46-4.91-2.93-4.91-2.93-1,3.16-3.18,1.86-6.14-4.27-6.14-4.27l2-3.48Z" transform="translate(-18.74 -41.31)" fill="#505365"/><path d="M218.86,247.86c-1.11,2-5.68,6.68-5.67,7.44s.86,2.88,4.49,4.45,4.74,4.08,6.85,5.47,5.37,3.93,6.61,2.77,1.69-3.46-1.37-6-3-5.65-3-7.9S218.86,247.86,218.86,247.86Z" transform="translate(-18.74 -41.31)" fill="#404351"/><path d="M220.71,197.79s-6.93,10.83,6.41,27.22c0,0,3.06,5.11-4.1,14.88s-5.1,10-5.1,10l9.85,5.08s18.1-15,18.87-21a116,116,0,0,0,.77-12.5Z" transform="translate(-18.74 -41.31)" fill="#68e1fd"/><path d="M220.71,197.79s-6.93,10.83,6.41,27.22c0,0,3.06,5.11-4.1,14.88s-5.1,10-5.1,10l9.85,5.08s18.1-15,18.87-21a116,116,0,0,0,.77-12.5Z" transform="translate(-18.74 -41.31)" fill="url(#linear-gradient-3)"/><path d="M285.51,205.69a4.09,4.09,0,0,1-.89,2h0a4,4,0,0,1-2.1.91,24.63,24.63,0,0,1-6,.43c-1.82-.14-3.6,0-5.43-.31-2.65-.4-5.26-.88-7.88-1.36a4.24,4.24,0,0,1-1.48-.45,2.94,2.94,0,0,1-1.29-2,8.59,8.59,0,0,1,0-2.48l.72-7.85a22.43,22.43,0,0,0-3.21,4,24.23,24.23,0,0,1-3.42,4.38c-2.45,2.3-5.22,2.64-8.46,2.06l-18.55-3.25a11.17,11.17,0,0,1-5-1.7c-2.23-1.68-2.9-4.84-2.31-7.56a19.34,19.34,0,0,1,3.9-7.3,112.44,112.44,0,0,1,17.76-18.53c4.72-4,11.74-10.65,16.7-3.55,2,2.9,3.8,6,6.25,8.56a12.86,12.86,0,0,0,1.69,1.44c.81.6,1.68,1.15,2.5,1.79a44.74,44.74,0,0,1,4.48,4,6,6,0,0,1,1.45,2.07,6.15,6.15,0,0,1-.44,3.94c-1.08,3.11-2.15,6.2-3.22,9.31a1.25,1.25,0,0,0,0,1.1,1.17,1.17,0,0,0,.8.36c4.23.72,8.62.05,12.8,1C288.09,197.42,286.07,203.49,285.51,205.69Z" transform="translate(-18.74 -41.31)" fill="#68e1fd"/><path d="M261.44,194.69c-1.7.74-2.62,2.53-3.62,4.06a21,21,0,0,1-4.58,5.05,4.49,4.49,0,0,1-2.25,1.12,4.89,4.89,0,0,1-2-.39c-6-2.11-11.85-1.63-18.14-2-3.16-.21-6.53-1.18-8.61-3.47a8.47,8.47,0,0,1-.79-1c-.44-.69-2.84-2.56-2.8-3.4a5.8,5.8,0,0,1,.55-1.92c2.36-5.57,6.85-10.16,10.78-14.72,2.34-2.71,5.3-5.05,8.78-5.82,3.27-.73,6.34.32,9.08,2a26.66,26.66,0,0,1,3.28,2.42,71.23,71.23,0,0,1,5.14,5c.84.85,2,1.78,3,2.79a8.72,8.72,0,0,1,1.64,2.13c.63,1.28.23,2.8-.06,4.19S260.41,193.69,261.44,194.69Z" transform="translate(-18.74 -41.31)" fill="#fff"/><path d="M256.94,199.22c-.67,1-1.09,1.71-1.76,2.67-.86-.06-1.7-.08-2.55-.07a2.73,2.73,0,0,0-1.23.2,5.38,5.38,0,0,0-1,.78,4.89,4.89,0,0,1-3.74.74c-1.29-.18-2.52-.65-3.82-.88a5.49,5.49,0,0,1-2.37-.68c-.94-.67-1.32-2-2.42-2.35-.77-.24-1.6.16-2.39,0-1-.17-2,.12-2.79-.49a2,2,0,0,1-.48-2.68,2.76,2.76,0,0,1,1.66-.7,22.14,22.14,0,0,1,5.08-.16,19.39,19.39,0,0,1-7.91-13.1c-1.25,2.41-4.06,3.76-5.2,6.23a8.57,8.57,0,0,0-.67,3.6,10.26,10.26,0,0,0,1.71,6.34c-.12.47-.74.58-1.22.56a30,30,0,0,1-3.67-.25,8.47,8.47,0,0,1-.79-1c-.44-.69-2.84-2.56-2.8-3.4a5.8,5.8,0,0,1,.55-1.92c2.36-5.57,6.85-10.16,10.78-14.72,2.34-2.71,5.3-5.05,8.78-5.82,3.27-.73,6.34.32,9.08,2a5.66,5.66,0,0,0-3.47,1.4,5.33,5.33,0,0,0-1.19,2.43,16.32,16.32,0,0,0,3.07,14.21,33.53,33.53,0,0,0,4.24,4.1,17,17,0,0,0,2.1,1.58A9.22,9.22,0,0,0,256.94,199.22Z" transform="translate(-18.74 -41.31)" fill="url(#linear-gradient-4)"/><path d="M284.45,200.55a5.05,5.05,0,0,0-.56.12,1.52,1.52,0,0,0-1.13,1.23c-.45,1.58-1,4.51,1.12,5.28a2.85,2.85,0,0,0,1.16.09l2.26-.14a28,28,0,0,0,6.81-1,1.13,1.13,0,0,0,.39-.17,1.12,1.12,0,0,0,.3-.47,5.6,5.6,0,0,0,.53-2,2.41,2.41,0,0,0-.68-1.87,3.77,3.77,0,0,0-2.06-.79,9.91,9.91,0,0,0-3.12-.18,6.66,6.66,0,0,1-1.54.22,7.46,7.46,0,0,1-1.22-.29A5.38,5.38,0,0,0,284.45,200.55Z" transform="translate(-18.74 -41.31)" fill="#404351"/><path d="M326.76,208.69a1,1,0,0,1-.88.35L234.3,197.47a1,1,0,0,1-.65-1.26,1,1,0,0,1,.89-.69l91.59,11.57a1,1,0,0,1,.83,1.15A1.08,1.08,0,0,1,326.76,208.69Z" transform="translate(-18.74 -41.31)" fill="#505365"/><path d="M308.62,204l11,1.44,24.12,2.95,6.55.8,1.61.2.8.09.4.05h-.44a1.32,1.32,0,0,0-.62.15l-.26.17h0v0l.16-.18c.11-.12.26-.33.39-.5.27-.37.54-.77.81-1.18,2.13-3.34,4-6.76,5.51-9.66s2.76-5.37,3.6-7.1l1.31-2.71h0a2.94,2.94,0,0,1,5.37,2.39,1.3,1.3,0,0,1-.08.17,2.12,2.12,0,0,1-.11.21l-5.65,9.59c-1.75,2.86-3.68,6.2-6.13,9.75-.32.45-.65.9-1,1.37-.2.24-.36.46-.61.73a5.15,5.15,0,0,1-.39.4l-.25.22-.12.11a2.49,2.49,0,0,1-.43.29,4.07,4.07,0,0,1-1,.37H352l-.8-.11-1.61-.23-6.53-.9-24-3.48-11-1.41a2,2,0,0,1,.51-4h.07Z" transform="translate(-18.74 -41.31)" fill="#404351"/><path d="M367.53,187a3,3,0,0,0-1.44-.27,2.92,2.92,0,0,1,.8,3.55l-.12.22-5.65,9.58c-1.75,2.86-3.67,6.2-6.13,9.76-.32.45-.65.9-1,1.36-.21.24-.37.46-.62.73s-.25.27-.38.4l-.25.23-.13.11a3.07,3.07,0,0,1-.42.28,3.26,3.26,0,0,1-1,.37h-.83l-.39-.06-.8-.11-1.61-.22L341,212l-24-3.32-10-1.29a1.92,1.92,0,0,0,1.05.53L319,209.35l24.07,3.34,6.53.9,1.61.23.8.11h1.23a4.07,4.07,0,0,0,.95-.37,2.49,2.49,0,0,0,.43-.29l.12-.11L355,213c.18-.17.26-.27.39-.4s.41-.49.61-.73c.37-.47.7-.92,1-1.37,2.45-3.55,4.38-6.89,6.13-9.75l5.65-9.59a2.12,2.12,0,0,0,.11-.21,2.94,2.94,0,0,0-1.33-3.94Z" transform="translate(-18.74 -41.31)" fill="#404351" opacity="0.5" style="isolation:isolate"/><path d="M250.13,193.25a8,8,0,0,1,1.82,1.52,1.92,1.92,0,0,1,.21,2.21,2.47,2.47,0,0,0-.36.49c-.24.56.33,1.13.42,1.74.12.91-.88,1.56-1.76,1.82a7.64,7.64,0,0,1-5.54-.39,2.51,2.51,0,0,1-.93-.72,3,3,0,0,1-.42-1.07l-1.11-4.27a1.15,1.15,0,0,1-.05-.58c.09-.37.5-.56.87-.69a26.51,26.51,0,0,1,4.25-1.51C248.83,191.57,249.16,192.54,250.13,193.25Z" transform="translate(-18.74 -41.31)" fill="#404351"/><path d="M256.89,170c-1.43,3.08-4.87,4.61-8,5.87L245,177.45l4.63,10.63a3.35,3.35,0,0,1-2.12,5.35,25.79,25.79,0,0,1-3.17,1.2,6.83,6.83,0,0,1-5.14-.19c-2.56-1.33-3.37-4.52-4.28-7.27-1.13-3.47-2.86-6.78-3.52-10.37s-.07-7.73,2.72-10.1a14.22,14.22,0,0,1,4.27-2.25c3.59-1.4,9.41-5.09,13.43-4.33A7.12,7.12,0,0,1,257,165,6.85,6.85,0,0,1,256.89,170Z" transform="translate(-18.74 -41.31)" fill="#68e1fd"/><path d="M287.66,204.46a1.47,1.47,0,0,0,.2-1.47,2.37,2.37,0,0,1-.3-.62.73.73,0,0,1,.1-.48c.45-.86,1.56-1.06,2.52-1.16l2.68-.29a3.54,3.54,0,0,1,1.74.11,2.36,2.36,0,0,1,1.25,1.38,7.55,7.55,0,0,1,.37,1.88,2.41,2.41,0,0,1,0,1,1.86,1.86,0,0,1-1.38,1.17,9.88,9.88,0,0,1-1.88.16c-1.11.07-2.21.36-3.33.41a4.7,4.7,0,0,1-2.39-.46C286,205.44,287.16,205.2,287.66,204.46Z" transform="translate(-18.74 -41.31)" fill="#404351"/><path d="M220.71,197.79s-2.42,9.27,4.1,16.2,22.6,13.94,22.6,13.94l-3.09,24.29h13.14s9.93-23.29,7.93-28.8-16.54-19.54-16.54-19.54Z" transform="translate(-18.74 -41.31)" fill="#68e1fd"/><path d="M284.61,207.69a4,4,0,0,1-2.1.91,24.63,24.63,0,0,1-6,.43c-1.82-.14-3.6,0-5.43-.31-2.65-.4-5.26-.88-7.88-1.36a4.24,4.24,0,0,1-1.48-.45,2.94,2.94,0,0,1-1.29-2,8.59,8.59,0,0,1,0-2.48l.72-7.85a22.43,22.43,0,0,0-3.21,4v-.11a22.34,22.34,0,0,1,2.92-5,25.22,25.22,0,0,0,2.95-4c.79-1.52,1.16-3.35,2.5-4.43-1.22,2.84-2.45,5.84-2.1,8.91a14,14,0,0,1,.32,3.29,4,4,0,0,0-.08,2c.28.64,1.46.78,1.54.08.58.74.4,1.8.68,2.7.48,1.56,2.24,2.31,3.83,2.72a29.26,29.26,0,0,0,10.46.77c1.05-.12,1.87-.4,2.74.37A3.32,3.32,0,0,1,284.61,207.69Z" transform="translate(-18.74 -41.31)" fill="url(#linear-gradient-5)"/><path d="M257.06,165c-2.84-.43-5.59-2.28-8.34-1.49a14.07,14.07,0,0,0-2.74,1.38c-3.25,1.85-7.24,2.54-9.79,5.29a5.12,5.12,0,0,0-1.4,2.63,7.37,7.37,0,0,0,.6,3.56q1.77,5.2,3.56,10.4c1.21,3.52,2.75,5.16,5.26,7.66a.82.82,0,0,1,.17.2,6.83,6.83,0,0,1-5.14-.19c-2.56-1.33-3.37-4.52-4.28-7.27-1.13-3.47-2.86-6.78-3.52-10.37s-.07-7.73,2.72-10.1a14.22,14.22,0,0,1,4.27-2.25c3.59-1.4,9.41-5.09,13.43-4.33A7.12,7.12,0,0,1,257.06,165Z" transform="translate(-18.74 -41.31)" fill="url(#linear-gradient-6)"/><path d="M274.9,169.89a10.54,10.54,0,0,1-1.77,3.28,3.66,3.66,0,0,1-3.33,1.31,5.35,5.35,0,0,1-2.87-2.38,4.93,4.93,0,0,1-2.28,2.4,3.45,3.45,0,0,1-3.75-1.08,5.4,5.4,0,0,1-1.15-3.89,13,13,0,0,1,1.07-4,15.82,15.82,0,0,1,2.12-4,8.41,8.41,0,0,1,8.5-3,7.17,7.17,0,0,1,4.69,4.34C277.08,165.51,275.85,167.5,274.9,169.89Z" transform="translate(-18.74 -41.31)" fill="#fcb787"/><path d="M258.85,163.47a3.35,3.35,0,0,0,2,1.05,2,2,0,0,0-.78,1.06,2.93,2.93,0,0,0,1.6-.72,4.16,4.16,0,0,1-.07,1.22,3.84,3.84,0,0,0,1.27-.44,3.33,3.33,0,0,0,.68-.56,2.72,2.72,0,0,1-.19-2,.76.76,0,0,1,.39-.53.62.62,0,0,1,.64.19,2.06,2.06,0,0,1,.31.63,3.91,3.91,0,0,0,.53-.85c.25.38.49.78.71,1.19.2-.47.4-.93.61-1.39a.68.68,0,0,1,.34-.42c.35-.13.66.34,1,.35s.63-.5.49-.87a1.57,1.57,0,0,0-.87-.77,8.65,8.65,0,0,0-1.77-.62,2.44,2.44,0,0,0-1.23-.05c-.46.12-.73.52-1.06.82a16.07,16.07,0,0,1-1.34,1A9.89,9.89,0,0,1,258.85,163.47Z" transform="translate(-18.74 -41.31)" fill="#404351"/><path d="M278.79,165.65l-.79-.21c-2.13-.57-7.92-2.19-9.2-3.27-1.57-1.33-5.63-.91-6.62-2s3.52-7,3.52-7a13.86,13.86,0,0,1,7.79-.16C278.24,154.18,282.4,157.79,278.79,165.65Z" transform="translate(-18.74 -41.31)" fill="#68e1fd"/><path d="M268.92,173.55a.52.52,0,0,1,.14-.19.47.47,0,0,1,.2-.06,6.47,6.47,0,0,1,1.79.41,9.83,9.83,0,0,0,2.3,0,.47.47,0,0,1,.42.13.56.56,0,0,1,0,.44,1.1,1.1,0,0,1-.37.73,1,1,0,0,1-.42.13,9.59,9.59,0,0,1-2.07.23,3.46,3.46,0,0,1-1.83-.48A1.1,1.1,0,0,1,268.92,173.55Z" transform="translate(-18.74 -41.31)" fill="#404351"/><path d="M269.35,173.65a9.66,9.66,0,0,1-2.31-3.14l-1.27-2.36a6.21,6.21,0,0,1-.6-1.31,6.93,6.93,0,0,1,.07-3.17,5.25,5.25,0,0,1,.92-2.53" transform="translate(-18.74 -41.31)" fill="none" stroke="#404351" stroke-miterlimit="10" stroke-width="0.59"/><path d="M272,163.33a13.49,13.49,0,0,1-1.44,8.06,4,4,0,0,1-1.41,1.67" transform="translate(-18.74 -41.31)" fill="none" stroke="#404351" stroke-miterlimit="10" stroke-width="0.29"/><path d="M278.08,165.13a13.68,13.68,0,0,1-1.44,8.07c-.35.65-2.56,1.45-3.2,1.82" transform="translate(-18.74 -41.31)" fill="none" stroke="#404351" stroke-miterlimit="10" stroke-width="0.29"/><path d="M265.25,163.32a15.79,15.79,0,0,0,12.9,5.76" transform="translate(-18.74 -41.31)" fill="none" stroke="#404351" stroke-miterlimit="10" stroke-width="0.29"/><path d="M278,165.44c-2.13-.57-7.92-2.19-9.2-3.27-1.57-1.33-5.63-.91-6.62-2s3.52-7,3.52-7a13.86,13.86,0,0,1,7.79-.16l.08.1a.53.53,0,0,1,0,.61c-.14.16-.38.13-.58.13a3.63,3.63,0,0,0-2.24,1.12,5.71,5.71,0,0,0-1.41,1.53,3.91,3.91,0,0,0,1.08,4.45,13.8,13.8,0,0,0,4.27,2.38,10.52,10.52,0,0,1,3.06,1.46A.76.76,0,0,1,278,165.44Z" transform="translate(-18.74 -41.31)" fill="url(#linear-gradient-7)"/><path d="M140.81,311.56c-22-1-42.2-11.51-63.82-14.75-3.47-.52-7.54-.64-9.9,2l8,9.63C73.69,311.51,69.23,311,66,310L25,297.11a47.71,47.71,0,0,1-5.41-15.27,66.3,66.3,0,0,1,.57-24.32c2.21-1.74,5.58.21,8,1.89C39.1,266.92,53,268.16,65.36,272.9c7.57,2.9,14.55,7.12,21.84,10.66a173.76,173.76,0,0,0,37.35,12.56c8.37,1.9,24,1.4,30.46,7.37C164.49,312.28,146,311.79,140.81,311.56Z" transform="translate(-18.74 -41.31)" fill="url(#linear-gradient-8)"/><path d="M292.48,248.78l17,5.91-1.22,3.3c-.59,1.69-4.88,1.75-9.57.12s-8-4.33-7.44-6Z" transform="translate(-18.74 -41.31)" fill="#404351"/><path d="M292.48,248.78h0l-.65,1.75c-.59,1.69,2.74,4.39,7.44,6s8.69,1.57,9.48,0l-.52,1.4c-.59,1.69-4.88,1.75-9.57.12s-8-4.33-7.44-6Z" transform="translate(-18.74 -41.31)" fill="#404351"/><path d="M193.36,235.31s-11.69,11.51-10.16,15.5c2.65,6.86,6.62,6.53,10.76,6s8.85-3.11,9.62-5.95S199.5,237.78,193.36,235.31Z" transform="translate(-18.74 -41.31)" fill="#404351"/><path d="M140.43,304.4a13.18,13.18,0,0,1,0,4.25l-3.49-.66s-1.09,2.33,1.58,4,11.71,1.51,18.41,1.51,14.14.46,15.81-1.82.15-5.16,0-6.82-9.51.3-9.51.3,1.47,5.31-2.78,5.46-12.44-.46-12.44-.46l-.3-6.67Z" transform="translate(-18.74 -41.31)" fill="#505365"/><path d="M139.91,288.69c.24,3.79-2,14.46-1.25,15.5s3.79,3.26,10.29,2.21,10.3,1.44,14.5,1.5,11,.66,11.74-2.08-.75-6.36-7.29-7.12-9.23-5.26-11.27-8.4S139.91,288.69,139.91,288.69Z" transform="translate(-18.74 -41.31)" fill="#404351"/><path d="M50.49,285.55a12.48,12.48,0,0,1-2.59,3.11l-2.16-2.6s-2.21,1-1.27,3.88S52.12,298.2,57,302.29s10.08,8.95,12.69,8.31,3.26-3.69,4.17-5-7.13-5.6-7.13-5.6-2.16,4.78-5.36,2.3-8.84-7.92-8.84-7.92l3.85-5.07Z" transform="translate(-18.74 -41.31)" fill="#505365"/><path d="M59.7,273.73c-2.14,2.92-10.26,9.39-10.38,10.59s.79,4.7,6.2,7.89,6.66,7.34,9.7,10,7.68,7.22,9.87,5.63,3.33-5.11-1-9.66-3.56-9.48-3.13-13S59.7,273.73,59.7,273.73Z" transform="translate(-18.74 -41.31)" fill="#404351"/><path d="M100.08,217.94c-3.69,5.37-5.42,30.19-7.16,33.5S86.53,254,76.12,261c-7.47,5-18.61,11.8-18.21,13.42S68.62,292,72.26,290.11s5.88-3.67,15.18-8.88,13.62-6.37,20.93-9.49c6.24-2.66,7.89-4.81,10.32-13.93s6.87-24.66,6.87-24.66Z" transform="translate(-18.74 -41.31)" fill="#707f33"/><path d="M100.08,217.94c-3.69,5.37-5.42,30.19-7.16,33.5S86.53,254,76.12,261c-7.47,5-18.61,11.8-18.21,13.42S68.62,292,72.26,290.11s5.88-3.67,15.18-8.88,13.62-6.37,20.93-9.49c6.24-2.66,7.89-4.81,10.32-13.93s6.87-24.66,6.87-24.66Z" transform="translate(-18.74 -41.31)" fill="#68e1fd"/><polygon points="78.58 181.06 78.3 186.64 98.49 221.34 105.02 198.31 78.58 181.06" fill="url(#linear-gradient-9)"/><path d="M98.46,199.33c-6.06,2-6.47,14.52-4.45,20.41s17,14.38,26.29,23.68,12.84,10.52,13.1,15.37,4.35,29.53,5.13,31.15,18,4.28,23,0c4.31-3.64-.81-7.28-3.22-36.54-1.64-19.77-.23-16.85-30.06-35.46Z" transform="translate(-18.74 -41.31)" fill="#68e1fd"/><path d="M199.14,238.58c.23.93-1.75,2.77-4.39,4.75a136.34,136.34,0,0,1-11.55,7.48C181.08,252,168,229.46,167.54,228a26.49,26.49,0,0,1-1.81-7.94c-.23-4.3.09-8-1.69-12a29,29,0,0,0-7.35-9.39c-3.58-3.25-7.57-6.1-10.82-9.69-.29-.32-.57-.65-.86-1a9.37,9.37,0,0,1-2.11-3.78,7.13,7.13,0,0,1,1.89-6.14,15.37,15.37,0,0,1,5.56-3.6A37.48,37.48,0,0,1,182,176.07a19.53,19.53,0,0,1,5.36,3.68,7.42,7.42,0,0,1,.65.83,47.43,47.43,0,0,1,2.6,5.19c1.73,3.55,4.35,8.28,3.63,12.39-.68,3.77-4.24,12.37-5.9,17.66a26.55,26.55,0,0,0-.76,2.88,3.57,3.57,0,0,0-.05,1.22C188,222.35,198.55,236.15,199.14,238.58Z" transform="translate(-18.74 -41.31)" fill="#68e1fd"/><path d="M165.72,220c-.15-3-1.38-10.49.51-12.7,1.21-1.42,5-2.3,6.76-2.94a64,64,0,0,1,7.07-2.15c1.87-.45,4.39-.52,5.12,1.26a3.75,3.75,0,0,1-.36,2.91c-1.55,3.34-4.39,6-5.54,9.53a20.41,20.41,0,0,0-.59,7.42A47.51,47.51,0,0,0,180.2,234c1.33,4.61,3.93,10.61,7.26,14.12a31.28,31.28,0,0,1-4.26,2.66C181.07,252,168,229.46,167.54,228A26.51,26.51,0,0,1,165.72,220Z" transform="translate(-18.74 -41.31)" fill="url(#linear-gradient-10)"/><path d="M98.46,199.33l29.82,18.61.17.1,9.61,11c-5.41,1.63-15.51-.54-20-5.76S102.15,207.5,93.25,207.9C93.87,203.86,95.48,200.33,98.46,199.33Z" transform="translate(-18.74 -41.31)" fill="url(#linear-gradient-11)"/><path d="M183.45,204.81a6.28,6.28,0,0,1-3.46,3.63,25.07,25.07,0,0,0-4.53,2.45,11.11,11.11,0,0,1-1.37,1.09,7.58,7.58,0,0,1-2.07.66c-2.84.7-4.29,2.46-6.53,3.76-2,1.17-4.55,1.73-6.71,2.57a141.4,141.4,0,0,0-16.23,7.3c-7.75,4.17-15.61-.12-21-5.31-.54-.52-1-1.05-1.54-1.58a24.85,24.85,0,0,1-2-2.46c-.57-.81-1.1-1.47-1.53-2.14a17.41,17.41,0,0,1-1.38-2.5c-1.06-2.48-5.29-4.49-9.83-6.14-1.29-.47-2.61-.91-3.88-1.33l-1.47-.47c-2-.64-3.79-1.2-5.13-1.71a5.42,5.42,0,0,1-2.34-1.27.65.65,0,0,1,0-.39c0-.11,0-.22.08-.33.58-1.41,3.25-4.36,6.73-7.71l.28-.28L101,191.3l.53-.5,1.35-1.23.73-.66,1.26-1.12.88-.77,1.17-1,1-.85,1.06-.9,1.09-.89,1-.78,1.13-.89.84-.66,1.12-.86.72-.54,1.11-.8.57-.4c.52-.35,1-.68,1.45-.95l2.77-.45,6.5-1.06c13.72,5.57,31.54,7.19,31.54,7.19.58,4.32,6.16,8.27,9.23,10.82,4.66,3.88,10,6.7,15.16,9.94a1,1,0,0,1,.38.37A.8.8,0,0,1,183.45,204.81Z" transform="translate(-18.74 -41.31)" fill="#fff"/><path d="M117.58,203.42c-1.67-.25-3.78-2.83-4.72-4.08a42.72,42.72,0,0,1-2.65-5.7,8.4,8.4,0,0,0-8.32,7.3,6.05,6.05,0,0,1-.36,2.07,2.72,2.72,0,0,1-1.67,1.33c-2-.64-3.79-1.2-5.13-1.71a5.42,5.42,0,0,1-2.34-1.27.65.65,0,0,1,0-.39c0-.11,0-.22.08-.33.58-1.41,3.25-4.36,6.73-7.71l.28-.28,1.43-1.35.53-.5,1.35-1.23.73-.66,1.26-1.12.88-.77,1.17-1,1-.85,1.06-.9,1.09-.89,1-.78,1.13-.89.84-.66,1.12-.86.72-.54,1.11-.8.57-.4c.52-.35,1-.68,1.45-.95l2.77-.45c-.66,5.2-2.68,10.54-1.74,15.71C119.37,195.28,123.42,204.3,117.58,203.42Z" transform="translate(-18.74 -41.31)" fill="url(#linear-gradient-12)"/><path d="M237.29,276.85a1.3,1.3,0,0,1-1.27,0L128.73,214.66a1.31,1.31,0,0,1,1.32-2.27h0l107.29,62.16a1.32,1.32,0,0,1,.48,1.8A1.34,1.34,0,0,1,237.29,276.85Z" transform="translate(-18.74 -41.31)" fill="#505365"/><path d="M217.3,261.56l12.8,7.51,28.31,16.25,7.68,4.41,1.89,1.08.95.54.46.27-.75-.32h.19a1.72,1.72,0,0,0-.84-.14,1.86,1.86,0,0,0-.41.08h.08l.29-.14.74-.41c.53-.32,1.08-.68,1.62-1,4.39-3,8.46-6.28,11.86-9.08s6.23-5.2,8.17-6.9l3-2.67h.05a3.94,3.94,0,0,1,5.2,5.93,2.43,2.43,0,0,1-.25.2l-12,8.91c-3.66,2.63-7.79,5.76-12.68,8.88-.63.38-1.27.77-2,1.15-.38.2-.69.39-1.14.58a7.17,7.17,0,0,1-.69.3l-.42.15-.21.07a5.1,5.1,0,0,1-.68.13,4.49,4.49,0,0,1-1.37,0h-.23l-.81-.35-.47-.27-.93-.55L263,294.85l-7.61-4.53-28-16.71-12.82-7.47a2.68,2.68,0,0,1,2.7-4.63h0Z" transform="translate(-18.74 -41.31)" fill="#404351"/><path d="M299.07,271.3a3.88,3.88,0,0,0-1.64-1.09,3.93,3.93,0,0,1-.87,4.82l-.25.2-12,8.91c-3.66,2.62-7.79,5.75-12.69,8.87-.62.39-1.27.77-2,1.16-.38.19-.7.38-1.14.58-.23.1-.38.18-.69.29l-.43.15-.21.07a3.05,3.05,0,0,1-.67.13,4.56,4.56,0,0,1-1.38,0h-.19l-.81-.35-.46-.28-.93-.55L260.84,293l-7.61-4.53-28-16.7-11.71-6.83a2.6,2.6,0,0,0,1,1.2l12.82,7.47,28,16.71,7.61,4.53,1.87,1.12.93.55.47.27.81.35h.23a4.49,4.49,0,0,0,1.37.05,5.1,5.1,0,0,0,.68-.13l.21-.07.42-.15a7.17,7.17,0,0,0,.69-.3c.45-.19.76-.38,1.14-.58.7-.38,1.34-.77,2-1.15,4.89-3.12,9-6.25,12.68-8.88l12-8.91a2.43,2.43,0,0,0,.25-.2A3.94,3.94,0,0,0,299.07,271.3Z" transform="translate(-18.74 -41.31)" fill="#404351" opacity="0.5" style="isolation:isolate"/><path d="M140.93,219c-3.65,2.12-8.32,6.36-6.28,9.25s6.88,7.75,12,7,9.71-4.77,10-8.08-7.28-8.93-9.71-9.76S140.93,219,140.93,219Z" transform="translate(-18.74 -41.31)" fill="#404351"/><path d="M188.7,222.28a3.34,3.34,0,0,1-.45-1.4Z" transform="translate(-18.74 -41.31)" fill="#68e1fd"/><path d="M205.59,192.84a17.25,17.25,0,0,1-2.06,6,62.78,62.78,0,0,1-12.05,16.38,13.42,13.42,0,0,0-2.65,3.12,4.55,4.55,0,0,0-.58,2.5l-.7-2.18-.64-2-12.72-40.13a33.27,33.27,0,0,1-4.73,3.45c-7.78,4.77-18,6.41-23.59,9-3.4,1.53-5.16,3.38-3.77,6.45,3,6.57,11.62,20.83,9.24,23.56s-14.54,9.4-18.7,6.68-11.72-17.48-17.54-33.91c-2-5.74-1.37-10,1.14-14.45A42.83,42.83,0,0,1,119,173.1a81.29,81.29,0,0,1,10.22-11.24,26.77,26.77,0,0,1,8.18-5.52c5.72-2.18,12.22-.86,17.86,1.51,4,1.7,7.84,3.91,11.79,5.82.91.44,1.84.87,2.77,1.28.26.13.52.24.79.36l-.06-.18c.71.24,1.43.45,2.19.63.36.1,5.8.76,5.6.4a4.85,4.85,0,0,1,.44,2.6c6.06,2.55,12,5.2,17.48,9.19l1,.71C201.79,182.15,206.13,187.13,205.59,192.84Z" transform="translate(-18.74 -41.31)" fill="#68e1fd"/><path d="M189,185.55c.18.66-3.39,4.24-4,4.75-1.63,1.29-4,1.16-5.28,2.95a20.51,20.51,0,0,1-1.45,2.21,4.06,4.06,0,0,1-5.73,0l-.15-.16a7.5,7.5,0,0,1-1-2c-1.5-3.67-2.89-7.48-3-11.44-.13-4.24,1.46-7.18,3.9-10.44C180.11,160.8,187.13,179.09,189,185.55Z" transform="translate(-18.74 -41.31)" fill="url(#linear-gradient-13)"/><path d="M191,148.75c5.13,1.56,11.71,7.23,8.42,17.68-.66,2.1-2.35,5.33-2.71,7a25.43,25.43,0,0,1-2.18,7.07,25,25,0,0,1-2.89,3.91c-1,1.16-1.64,2.28-3,3a6.37,6.37,0,0,1-3.68.77,4.3,4.3,0,0,1-3.16-1.92c-1.45.88-.87,3.44-2.26,4.4a2.54,2.54,0,0,1-1.49.38c-2,0-3-1.1-4.46-2.18a7,7,0,0,1-2.82-3.89,12.09,12.09,0,0,1,.53-7.35c.44-1.21,1.49-3.18,1-4.5-.29-.78-1.24-1.16-1.71-2.05-.91-1.75-1-8.48,1.77-7.2,0,0,2.22-10.26,4.75-12S184.52,146.78,191,148.75Z" transform="translate(-18.74 -41.31)" fill="#fcb787"/><path d="M162.22,183.45c-11.92,5.28-23.38,4.74-20.12,11.94-3.14-7.28-5.31-12.51-5.31-12.51S156.21,186.08,162.22,183.45Z" transform="translate(-18.74 -41.31)" fill="url(#linear-gradient-14)"/><path d="M115.09,191.72c-2.84-8-2-11.6,3.63-15.73-3.52,3.35,2.58,21.63,5.28,26s9.95,23.91,19,22.23c-4,1.75-8.21,2.84-10.34,1.43C128.49,222.89,120.92,208.15,115.09,191.72Z" transform="translate(-18.74 -41.31)" fill="url(#linear-gradient-15)"/><path d="M292.48,248.78c-.59,1.7,2.74,4.4,7.44,6s9,1.58,9.57-.12-2.74-4.4-7.43-6S293.07,247.08,292.48,248.78Z" transform="translate(-18.74 -41.31)" fill="#505365"/><path d="M200.3,170.62l-1.53-.4c-4.15-1.11-15.44-4.27-17.94-6.37-3.06-2.59-11-1.77-12.89-3.95s6.86-13.63,6.86-13.63c3.24-1.36,9.43-1.75,15.18-.31C199.22,148.29,207.33,155.32,200.3,170.62Z" transform="translate(-18.74 -41.31)" fill="#68e1fd"/><path d="M181.76,186.32S175,181.74,174.12,176c0,0-4.88,9.24-.57,12.94s6.32,2.82,6.32,2.82Z" transform="translate(-18.74 -41.31)" fill="#fcb787"/><path d="M181.76,186.32S175,181.74,174.12,176c0,0-4.88,9.24-.57,12.94s6.32,2.82,6.32,2.82Z" transform="translate(-18.74 -41.31)" fill="#020202" opacity="0.1" style="isolation:isolate"/><path d="M181.08,186a.86.86,0,0,1,.27-.38.87.87,0,0,1,.38-.11c1.2-.1,2.32.55,3.5.8a19.57,19.57,0,0,0,4.46,0,.77.77,0,0,1,.9,1.11,2.14,2.14,0,0,1-.71,1.43,2.08,2.08,0,0,1-.81.26,20.76,20.76,0,0,1-4,.44,6.75,6.75,0,0,1-3.56-.93A2.12,2.12,0,0,1,181.08,186Z" transform="translate(-18.74 -41.31)" fill="#404351"/><path d="M181.91,186.22c-2-1.56-3.28-3.87-4.5-6.11l-2.49-4.6a12.65,12.65,0,0,1-1.16-2.57,13.45,13.45,0,0,1,.14-6.18,10.39,10.39,0,0,1,1.8-4.91" transform="translate(-18.74 -41.31)" fill="none" stroke="#404351" stroke-miterlimit="10" stroke-width="1.15"/><path d="M187,166.1a26.49,26.49,0,0,1-2.81,15.71,7.75,7.75,0,0,1-2.74,3.26" transform="translate(-18.74 -41.31)" fill="none" stroke="#404351" stroke-miterlimit="10" stroke-width="0.57"/><path d="M198.92,169.63a26.45,26.45,0,0,1-2.81,15.7c-.67,1.28-5,2.83-6.23,3.56" transform="translate(-18.74 -41.31)" fill="none" stroke="#404351" stroke-miterlimit="10" stroke-width="0.57"/><path d="M173.91,166.1a30.78,30.78,0,0,0,25.14,11.21" transform="translate(-18.74 -41.31)" fill="none" stroke="#404351" stroke-miterlimit="10" stroke-width="0.57"/><path d="M198.77,170.22c-4.15-1.11-15.44-4.27-17.94-6.37-3.06-2.59-11-1.77-12.89-3.95s6.86-13.63,6.86-13.63c3.24-1.36,9.43-1.75,15.18-.31a1,1,0,0,1,.15.2,1,1,0,0,1,.06,1.19c-.28.3-.73.24-1.14.24-1.66,0-3.09,1.12-4.36,2.19a11,11,0,0,0-2.74,3c-1.51,2.8-.21,6.44,2.1,8.66s5.38,3.36,8.33,4.63c1.68.72,4.65,1.54,6,2.85A1.55,1.55,0,0,1,198.77,170.22Z" transform="translate(-18.74 -41.31)" fill="url(#linear-gradient-16)"/><path d="M169.84,165a2.33,2.33,0,0,1-.59.44c-1.75.91-4.77-.74-6.51-1.21l-8.87-2.37c-4.19-1.12-8.83-2.2-12.7-.25a3.79,3.79,0,0,0-1.43,1.11,4.52,4.52,0,0,0-.59,1.62,44.75,44.75,0,0,0-1,7.82c-.43-2.38-.87-4.77-1.31-7.15a5,5,0,0,0-.79-2.22,3.3,3.3,0,0,0-3.51-.9,7.69,7.69,0,0,0-3.15,2.15c-2.72,2.74-4.78,6-7.38,8.9a18.47,18.47,0,0,1-5.73,4.38A41.53,41.53,0,0,1,119,173.1a81.29,81.29,0,0,1,10.22-11.24,26.77,26.77,0,0,1,8.18-5.52c5.72-2.18,12.22-.86,17.86,1.51,4,1.7,7.84,3.91,11.79,5.82C168,164.11,168.91,164.54,169.84,165Z" transform="translate(-18.74 -41.31)" fill="#fff" opacity="0.29" style="isolation:isolate"/><path d="M205.59,192.84a17.25,17.25,0,0,1-2.06,6,62.78,62.78,0,0,1-12.05,16.38,13.42,13.42,0,0,0-2.65,3.12,4.55,4.55,0,0,0-.58,2.5l-.7-2.18a3.57,3.57,0,0,0-.05,1.22c.54,2.43,11.05,16.23,11.64,18.66.23.93-1.75,2.77-4.39,4.75-.35-.34-.23-1-.1-1.56a11.84,11.84,0,0,0-1.17-8.41,32.93,32.93,0,0,0-5.19-7,8,8,0,0,1-1.27-1.68,7.47,7.47,0,0,1-.53-1.64c-.67-2.67-1.31-5.36-1.94-8.08l2.36,1.67.15.1a7,7,0,0,0,1.25-1c3.12-2.84,3.86-7.83,6.44-11.37.9-1.25,2-2.31,3-3.49a43.87,43.87,0,0,0,4.33-6.46,8.3,8.3,0,0,0,1.28-3.05,6.67,6.67,0,0,0-.29-2.7,16.62,16.62,0,0,0-3.89-6.85c-1-1-2.6-2.38-2.94-4l1,.71C201.79,182.15,206.13,187.13,205.59,192.84Z" transform="translate(-18.74 -41.31)" fill="#fff" opacity="0.29" style="isolation:isolate"/></g></svg>