<svg id="Layer_1" data-name="Layer 1" xmlns="http://www.w3.org/2000/svg" xmlns:xlink="http://www.w3.org/1999/xlink" viewBox="0 0 264.91 303.75"><defs><linearGradient id="linear-gradient" x1="207" y1="39.86" x2="231.86" y2="39.86" gradientUnits="userSpaceOnUse"><stop offset="0.01"/><stop offset="0.13" stop-opacity="0.69"/><stop offset="1" stop-opacity="0"/></linearGradient><linearGradient id="linear-gradient-2" x1="184.34" y1="101.71" x2="221.65" y2="283.51" xlink:href="#linear-gradient"/><linearGradient id="linear-gradient-3" x1="179.94" y1="192.49" x2="221.95" y2="192.49" xlink:href="#linear-gradient"/><linearGradient id="linear-gradient-4" x1="195.07" y1="76.33" x2="199.23" y2="133.09" xlink:href="#linear-gradient"/><linearGradient id="linear-gradient-5" x1="180.71" y1="138" x2="236.08" y2="138" xlink:href="#linear-gradient"/><linearGradient id="linear-gradient-6" x1="193.18" y1="54.73" x2="195.76" y2="103.75" xlink:href="#linear-gradient"/><linearGradient id="linear-gradient-7" x1="159.54" y1="63.51" x2="216.86" y2="63.51" xlink:href="#linear-gradient"/><linearGradient id="linear-gradient-8" x1="189.92" y1="75.14" x2="193.56" y2="75.14" xlink:href="#linear-gradient"/><linearGradient id="linear-gradient-9" x1="162.32" y1="103.53" x2="182.98" y2="103.53" gradientUnits="userSpaceOnUse"><stop offset="0.01" stop-color="#fff"/><stop offset="0.13" stop-color="#fff" stop-opacity="0.69"/><stop offset="1" stop-color="#fff" stop-opacity="0"/></linearGradient><linearGradient id="linear-gradient-10" x1="208.63" y1="72.78" x2="213.79" y2="116.24" xlink:href="#linear-gradient"/><linearGradient id="linear-gradient-11" x1="211.74" y1="41.86" x2="221.98" y2="41.86" xlink:href="#linear-gradient"/><linearGradient id="linear-gradient-12" x1="220.83" y1="28.1" x2="230.39" y2="28.1" xlink:href="#linear-gradient"/></defs><title>14</title><path d="M241.63,318.46a235.58,235.58,0,0,0,57.83-32.87c11.1-8.59,21.71-18.56,27.37-31.41,12.36-28.09-1.94-61.29,5.21-91.14,2.41-10.08,7.21-19.45,9.84-29.47,8.06-30.73-7.51-66-35.64-80.76-13.27-7-28.32-9.53-42.86-13.17-22.32-5.59-44.19-13.94-67.15-15.41C176.7,23,156.55,27,140,37.45s-29.11,27.69-32.09,47c-2,12.85.2,26.06-1.65,38.93-3.11,21.61-17.14,40-23.48,60.91a89.39,89.39,0,0,0,9.33,71.88c11.2,18.16,28.77,31.77,48,41.06s40.09,14.56,61,18.81" transform="translate(-79.09 -18.78)" fill="#68e1fd" opacity="0.18" style="isolation:isolate"/><path d="M222.44,19.45a1.23,1.23,0,0,1,.59-.64,1.19,1.19,0,0,1,.82.13,36.27,36.27,0,0,1,8,4.56q-8.09,19-17.26,37.42c-.19.4-6.23-7.58-6.64-8.44-1.82-3.82-.83-5.51,1.14-8.93C213.68,35.6,218,27.48,222.44,19.45Z" transform="translate(-79.09 -18.78)" fill="#68e1fd"/><path d="M231.86,23.5c-.48,1.13-1,2.27-1.47,3.4q-2.26,5.3-4.64,10.53-1.12,2.46-2.26,4.94h0q-2.33,5-4.73,10-2,4.28-4.15,8.51c-.2.4-6.24-7.58-6.65-8.44-1.82-3.83-.84-5.51,1.14-8.92,1.41-2.44,2.78-4.9,4.16-7.36l5.94-10.85h0c1.08-2,2.15-3.93,3.24-5.89a3,3,0,0,1,.18-.3.92.92,0,0,1,.42-.33,1.16,1.16,0,0,1,.81.11,36.62,36.62,0,0,1,8,4.57Z" transform="translate(-79.09 -18.78)" fill="url(#linear-gradient)"/><path d="M223.56,199.68a112.72,112.72,0,0,1-5.85-15.81c-.5-1.78-.94-3.56-1.32-5.37-1.32-6.39-1.64-13.29,1.11-19.21.66-1.41,1.75-2.92,3.31-3s2.72,1.31,3.5,2.64c1.92,3.32,2.79,7.13,3.8,10.83a134.29,134.29,0,0,0,12.33,30.29c5.84,10.47,7,23.55,6.49,35.53a34.91,34.91,0,0,1-1.07,7.82c-1.69,6-5.86,11.11-7.55,17.12-5.1,18.15,1.14,38.25,4,56.88a3.38,3.38,0,0,1-.33,2.68,3.24,3.24,0,0,1-1.82.92,50.28,50.28,0,0,1-33.3-3.14A153.54,153.54,0,0,0,180.39,240c-2.73-4-5.71-8-6.78-12.67-1.37-6.05.62-12.28,1.53-18.41A53.09,53.09,0,0,0,169,175.6c-1-1.88-2.26-3.88-2-6,.24-2,1.69-3.54,3.17-4.84a29.79,29.79,0,0,1,18.1-7.61,23.48,23.48,0,0,1,18.05,7.09c4.68,5.06,6.55,12,9,18.42C217.57,188.14,220.34,194.74,223.56,199.68Z" transform="translate(-79.09 -18.78)" fill="#f7bc9f"/><path d="M219.08,202.56a10.16,10.16,0,0,1,.49,3,13.74,13.74,0,0,1-.95,3.58c-1.46,4.56-.88,9.48-.28,14.23l2.07,16.49c.5,4,.85,8.48-1.72,11.55s-7.48,3.48-11,1.6-5.87-5.55-7.07-9.39-1.41-7.9-1.79-11.9a150,150,0,0,0-9.14-39.29c-1.73-4.55-3.7-9.62-1.83-14.12a3.28,3.28,0,0,1,1.27-1.69c1-.6,2.27-.24,3.37.14a98.9,98.9,0,0,1,19.6,9C217.24,188.92,217.55,197,219.08,202.56Z" transform="translate(-79.09 -18.78)" fill="url(#linear-gradient-2)"/><path d="M179.94,153l26.4,92.09L222,145.88S186.1,128.41,179.94,153Z" transform="translate(-79.09 -18.78)" fill="#68e1fd"/><path d="M179.94,153l26.4,92.09L222,145.88S186.1,128.41,179.94,153Z" transform="translate(-79.09 -18.78)" fill="url(#linear-gradient-3)"/><path d="M194.87,153.28a9.16,9.16,0,0,1,3.92,1.58A48.83,48.83,0,0,1,215,171.32c.78,1.31,1.51,2.9.9,4.29s-2.34,1.93-3.86,1.87c-3.43-.14-6.33-2.44-9.15-4.4s-6.3-3.74-9.57-2.69c-3.92,1.26-6.52,6.28-10.6,5.74-5.59-.75-6.33-10.51-4.41-14.54C180.34,157.19,190.38,152.9,194.87,153.28Z" transform="translate(-79.09 -18.78)" fill="#f7bc9f"/><path d="M196.72,176.18c3.1-.39,6.17.9,8.78,2.62s4.89,3.87,7.53,5.54a17.58,17.58,0,0,1,4.47,3.27c1.19,1.44,1.64,3.71.42,5.11-1,1.1-2.58,1.31-4,1.29a22.14,22.14,0,0,1-7.81-1.48c-1.76-.67-3.5-1.59-5.39-1.63-2.54-.06-4.8,1.45-7.15,2.4a16.75,16.75,0,0,1-5.63,1.21,2.55,2.55,0,0,1-1.47-.24,2.67,2.67,0,0,1-.94-1.22c-1.4-2.94-3.28-9.71-1.31-12.86C185.85,177.54,193.77,176.55,196.72,176.18Z" transform="translate(-79.09 -18.78)" fill="#f7bc9f"/><path d="M211.27,224.43c1.5.23,3.46.3,4-1.09a2.61,2.61,0,0,0,.16-1.07c-.05-2.7-1.94-5.09-4.26-6.48a24.08,24.08,0,0,0-7.65-2.52c2.28-1.4,5.19-.76,7.86-.66s6-1,6.34-3.62A4.37,4.37,0,0,0,216,205.2a13,13,0,0,0-3.87-1.93l-19.51-7.11a3.57,3.57,0,0,0-1.92-.32,3.41,3.41,0,0,0-2,1.82,25.44,25.44,0,0,0,.56,26.34c.94,1.43,2.84,4.41,4.69,4.65,2.51.33,2.14-2.29,3.29-3.53C199.7,222.49,208.09,223.94,211.27,224.43Z" transform="translate(-79.09 -18.78)" fill="#f7bc9f"/><path d="M236.07,147.73c-.36,1.41-1.84,2.22-3.17,2.84l-4.62,2.17a1.92,1.92,0,0,1-1.39.27,1.84,1.84,0,0,1-.85-.72,24.91,24.91,0,0,1-2.28-3.37c-.49-.24-.85.49-1.21.92-.89,1.08-2.62.33-3.77-.49-2.78-2-5.67-4.14-9.07-4.49a21.1,21.1,0,0,0-5.07.37,83.21,83.21,0,0,1-17.06.73,4.23,4.23,0,0,0-2,.21c-2.37,1.16-3.76,6.39-5.92,9.33-1.48,2-3.32,3-6.08.74-.56,1.25-3,2.2-4.06.95-1.34-.92-1.94-2.58-2.46-4.12l-4-11.81A2.87,2.87,0,0,1,163,139a2.74,2.74,0,0,1,1.24-1l9.35-4.75c-1.75-1.76-1-4.92.82-6.63a13.4,13.4,0,0,1,4.12-2.45,1,1,0,0,1,.26-.11c.72-.32,1.44-.61,2.15-.94,5.76-2.69,10.32-7.59,16.22-10a21.84,21.84,0,0,1,25.4,7.7,7,7,0,0,0,1.38,1.68,2.16,2.16,0,0,0,.35.24,7.9,7.9,0,0,0,2.38.57h0a6.81,6.81,0,0,1,2.32.93h0a10.17,10.17,0,0,1,3.92,4.88,27.12,27.12,0,0,1,1.41,8.74,20.47,20.47,0,0,0,.92,6C235.68,145.15,236.4,146.44,236.07,147.73Z" transform="translate(-79.09 -18.78)" fill="#68e1fd"/><path d="M178,128.83a6.83,6.83,0,0,0,4.46-1.63,6.29,6.29,0,0,1,2.21-1.62c1.12-.31,2.25.33,3.32.81a12.86,12.86,0,0,0,7,1c3.1-.44,5.91-2,8.78-3.25s6.06-2.26,9.1-1.5c1.49.37,2.85,1.14,4.33,1.53a2.15,2.15,0,0,0,1.46,0c.82-.42.84-1.56.75-2.48l-.79-7.69a5.83,5.83,0,0,0-.45-2,4.77,4.77,0,0,0-2.5-2c-4.16-1.81-8.92-1.4-13.43-.86a43,43,0,0,0-7.39,1.38,46,46,0,0,0-9.49,4.62,9.41,9.41,0,0,0-3.45,2.85,15.37,15.37,0,0,0-2.15,4.56C179.58,123.17,178.89,128.84,178,128.83Z" transform="translate(-79.09 -18.78)" fill="url(#linear-gradient-4)"/><path d="M225.57,142.15a2,2,0,0,1-.45,1.08c-1.09,1.07-2.73-1.19-4.22-.87-1,.21-1.5,1.44-2.47,1.5a2.58,2.58,0,0,1-1.65-.83,12,12,0,0,0-12.64-1.51,3.78,3.78,0,0,1-1.6.55c-.92,0-1.66-.71-2.47-1.13a4.22,4.22,0,0,0-5.84,3.26c-1.67-1-3.8-1.93-5.4-.87a8,8,0,0,1-1.19.84,4.86,4.86,0,0,1-2.18,0,4.68,4.68,0,0,0-4.66,5.42c1.48-.52,2.5-1.89,3.9-2.62,1.94-1,4.27-.64,6.46-.45a35.68,35.68,0,0,0,14-1.55,7.49,7.49,0,0,1,3.08-.57c1.81.21,3.17,1.83,4.95,2.24,1,.23,2.25.1,3,.88.41.45.54,1.13,1,1.52.68.55,1.67.24,2.54.13s2,.37,1.88,1.23l2.26-1.25a5.12,5.12,0,0,0,2.38,2.83c1.36.52,2.85-.19,4.13-.88l3.71-2c.8-.44,1.68-1,1.93-1.84.36-1.24-.68-2.38-1.35-3.48-1.87-3.05-1.06-7-1.43-10.51a11.65,11.65,0,0,0-3.21-7.15,7.75,7.75,0,0,0-7.35-2,21.25,21.25,0,0,1,5.44,3.12,7.17,7.17,0,0,1,2.67,5.47,2.14,2.14,0,0,0-1.2-.08,8,8,0,0,0,.27,4.26,10.36,10.36,0,0,0-2.31-.48c-1.15.18-.83-.18-1.35.87S225.79,140.94,225.57,142.15Z" transform="translate(-79.09 -18.78)" fill="url(#linear-gradient-5)"/><path d="M232.78,121.86c-.28,1.64-2.17,2.6-3.81,2.38h0a5.42,5.42,0,0,1-2.34-.93,10.37,10.37,0,0,1-1.85-1.59,3.27,3.27,0,0,1-.88.78,4.59,4.59,0,0,1-3.61.47,8.5,8.5,0,0,1-4-2.79,9.84,9.84,0,0,1-9,.32c-1.34-.66-2.52-1.61-3.87-2.23a4.66,4.66,0,0,0-4.28-.13c-1.21.72-1.88,2.23-3.22,2.65-1.71.53-3.55-1-5.27-.52-1.11.3-1.82,1.33-2.73,2s-2.49.92-3-.1a4.36,4.36,0,0,1-1.83,3c-1.86,1.08-2-.69-3.29-1a3.18,3.18,0,0,0-.79-.09h-.49c-1.11,0-2.43.31-3.39.25a16.15,16.15,0,0,1-5.94-1.11,5.5,5.5,0,0,1-3.41-4.64c0-2,2-4,4-3.4a7.41,7.41,0,0,1,0-8.43,3.46,3.46,0,0,0,.6-1,2.87,2.87,0,0,0-.28-1.71c-1-2.74-1.78-5.72-1.15-8.58a7.9,7.9,0,0,1,.27-1c1-3,3.34-5.41,5.62-7.67L177,84.7l.43-.43c3-3,6.22-6.12,10.28-7.43a23.71,23.71,0,0,1,6.67-.91,97,97,0,0,1,10.37.24c2.31.17,4.79.49,6.47,2.08a4.42,4.42,0,0,0,1,.84,3.64,3.64,0,0,0,1.77.24A16.11,16.11,0,0,1,223.78,82a10.34,10.34,0,0,1,2.37,2.39,14.83,14.83,0,0,1,2.31,8.22,30.09,30.09,0,0,1-.74,7.56,4.67,4.67,0,0,0-.19,2,11.35,11.35,0,0,0,1,2.14c.69,1.56.28,3.52,1.25,4.93a16.45,16.45,0,0,0,1.67,1.67,4.7,4.7,0,0,1-.8,6.79C231.82,118.81,233.07,120.25,232.78,121.86Z" transform="translate(-79.09 -18.78)" fill="#68e1fd"/><path d="M170.51,86.22c.17-2.66,2.17-4.87,4.44-6.27s4.85-2.18,7.21-3.41c2.67-1.39,5.06-3.35,7.92-4.28s5.87-.75,8.83-.58c6.49.38,13.06.78,19.29,2.65a5.11,5.11,0,0,1,2.54,1.38,5.48,5.48,0,0,1,.95,3.16,13.43,13.43,0,0,1-.11,4.43,4.53,4.53,0,0,1-2.73,3.27c-2.36.78-4.65-1.16-7-2a8.59,8.59,0,0,0-7.59.76c-1.29.81-2.35,2-3.71,2.64s-3.24.73-4.18-.47c-.47-.6-.66-1.45-1.31-1.84a2.65,2.65,0,0,0-2.23.12l-10.47,3.81A20.45,20.45,0,0,0,177,92.11c-2.33,1.75-3.83,4.41-6.11,6.21-.73.58-2,1-2.5.24a1.74,1.74,0,0,1-.21-1.15,10.23,10.23,0,0,1,2.95-6.53A9.94,9.94,0,0,0,170.51,86.22Z" transform="translate(-79.09 -18.78)" fill="url(#linear-gradient-6)"/><path d="M225.18,79.55a2.87,2.87,0,0,1-1.4,2.45,3.77,3.77,0,0,1-1.7.62,7.31,7.31,0,0,1-4.49-1.5,4.16,4.16,0,0,1-4,2.14,8.16,8.16,0,0,1-4.37-1.77,9.54,9.54,0,0,1-8.43,2.23c-1.4-.33-2.72-1-4.12-1.28a4.51,4.51,0,0,0-4.06.8c-1,.93-1.3,2.49-2.48,3.17-1.49.88-3.55-.18-5.07.64-1,.52-1.43,1.65-2.14,2.5s-2.14,1.4-2.85.55a5.25,5.25,0,0,1-.26,2,3.25,3.25,0,0,1-.81,1.29c-1.52,1.41-2.06-.22-3.32-.28s-3.05,1-4.37,1.17c-.74.12-1.48.24-2.22.31a11.15,11.15,0,0,1-3.6-.09,6.23,6.23,0,0,1-3.21-1.77,4.33,4.33,0,0,1-1-1.87c-.45-1.91,1.07-4.2,3-4a7.14,7.14,0,0,1-1.82-8,3.13,3.13,0,0,0,.35-1.07,2.7,2.7,0,0,0-.62-1.55c-1.56-2.37-2.9-5-2.92-7.85,0-3.4,1.87-6.5,3.7-9.38l1.94-3c2.21-3.48,4.54-7.09,8.1-9.19a22.84,22.84,0,0,1,6.1-2.27,96.32,96.32,0,0,1,9.81-2c2.22-.33,4.62-.55,6.55.58a4.06,4.06,0,0,0,1.11.58,3.43,3.43,0,0,0,1.73-.16c4.29-1.09,9.28-.79,12.58,2.17a14.49,14.49,0,0,1,3.92,7.25,28.89,28.89,0,0,1,.92,7.28,4.52,4.52,0,0,0,.25,1.9,10.44,10.44,0,0,0,1.41,1.8c1,1.32,1,3.26,2.23,4.38a17.94,17.94,0,0,0,1.93,1.21,4.53,4.53,0,0,1,.68,6.57C223.63,76.88,225.11,78,225.18,79.55Z" transform="translate(-79.09 -18.78)" fill="#68e1fd"/><path d="M165.59,82.16a1.94,1.94,0,0,0,1.47.57,1.46,1.46,0,0,0,.76-.43c1.33-1.25,1.3-3.42.61-5.11s-1.89-3.12-2.71-4.75a11.67,11.67,0,0,1,.09-10.52,8.65,8.65,0,0,1,4.09-4,5.79,5.79,0,0,1,5.56.46c2.4,1.74,2.69,5.16,2.65,8.13-.09,6.14-.56,12.7,2.57,18,2.22-.06,5-.51,5.63-2.64a4.72,4.72,0,0,0-.18-2.65c-1.69-6-5.86-11.19-6.6-17.36a5.69,5.69,0,0,1,.47-3.51,2.51,2.51,0,0,1,3.06-1.19c1.64.79,1.31,3.16,1.7,4.94a5.12,5.12,0,0,0,2.83,3.49,4.31,4.31,0,0,0,.9-4.69c-.59-1.35-1.92-2.56-1.63-4a2.75,2.75,0,0,1,1-1.52,4.77,4.77,0,0,1,5.25-.46c2,1.14,2.92,3.62,3.13,5.94s-.09,4.68.33,7,1.8,4.64,4.06,5.21c2.06-2.36,1.68-6,.58-8.91s-2.84-5.68-3.19-8.79c2.28-1.09,5.11,0,6.84,1.83s2.63,4.28,3.57,6.62a114.29,114.29,0,0,0,5.37,11.56c.38.72.94,1.53,1.76,1.51,1.26,0,1.46-1.87,1.12-3.09C214.8,67,209,61.64,207.93,54.66l3.9,2c1.23-1.86.14-4.33-1-6.27a14.19,14.19,0,0,0-3.36-4.47,13.36,13.36,0,0,0-5.92-2.16,58.13,58.13,0,0,0-17.79-.86c-6.62.86-16.19,3.87-19.29,10.48-1.19,2.53-1.64,5.34-2.86,7.9A17.59,17.59,0,0,0,159.75,72,16.36,16.36,0,0,0,165.59,82.16Z" transform="translate(-79.09 -18.78)" fill="url(#linear-gradient-7)"/><path d="M191.86,78.37a1.19,1.19,0,0,0,.58.27c.54,0,.88-.58,1-1.1.34-1.34,0-6.61-2.32-5.81C188.66,72.61,190.55,77.38,191.86,78.37Z" transform="translate(-79.09 -18.78)" fill="url(#linear-gradient-8)"/><path d="M172.48,146.88a10,10,0,0,0,6,8,5.92,5.92,0,0,1,1.16.62c-1.48,2-3.32,3-6.08.74-.56,1.25-3,2.2-4.06.95-1.34-.92-1.94-2.58-2.46-4.12l-4-11.81A2.87,2.87,0,0,1,163,139a2.74,2.74,0,0,1,1.24-1l9.35-4.75c-1.75-1.76-1-4.92.82-6.63a13.4,13.4,0,0,1,4.12-2.45c-1.11,0-2.43.31-3.39.25a16.15,16.15,0,0,1-5.94-1.11,5.5,5.5,0,0,1-3.41-4.64c0-2,2-4,4-3.4a7.41,7.41,0,0,1,0-8.43,3.46,3.46,0,0,0,.6-1,2.87,2.87,0,0,0-.28-1.71c-1-2.74-1.78-5.72-1.15-8.58a7.9,7.9,0,0,1,.27-1,11.15,11.15,0,0,1-3.6-.09,6.23,6.23,0,0,1-3.21-1.77,18,18,0,0,1,2-4.6,21.22,21.22,0,0,0,2.42-4c1.27-3.43-.44-7.15-1.17-10.75-2.21-10.75,6.06-22.49,16.94-24Q179,60,175.55,70.71c-1.43,4.41-2.65,9.84.55,13.17.28.29.57.55.86.82A5,5,0,0,1,178.07,86c.9,1.8-.3,4.19.78,5.88.36,0,.69.11,1,.16a7.49,7.49,0,0,0,3.13.08c-1.33.43-2.08,1.94-2.63,3.27-1.8,4.44-3.63,9.39-2,13.9a13.41,13.41,0,0,1,.89,2.66,5.52,5.52,0,0,1-2.15,4.78,16.39,16.39,0,0,1-4.85,2.49,5.47,5.47,0,0,1,.36,3.61l5.81,1.08a2,2,0,0,1,.35.09.67.67,0,0,1,.23.1.65.65,0,0,1,.28.31,1,1,0,0,1-.16.76c-.38.76-.76,1.52-1.15,2.27,1.6,0,3.23-.19,4.82-.19-2,2.29-1.3,6.18-3.37,8.47a16.21,16.21,0,0,1-2.79,2A10,10,0,0,0,172.48,146.88Z" transform="translate(-79.09 -18.78)" fill="url(#linear-gradient-9)"/><path d="M169.78,52a1.62,1.62,0,0,0-.47.61.53.53,0,0,0,.25.66c.31.11.6-.2.8-.46,1.19-1.56,3.14-2.67,4.07-4.4C173.21,47.18,170.59,51.18,169.78,52Z" transform="translate(-79.09 -18.78)" fill="#68e1fd"/><path d="M179.55,52.55a1.65,1.65,0,0,0-.46.62.52.52,0,0,0,.25.65c.31.11.6-.2.8-.46,1.19-1.56,3.14-2.67,4.06-4.4C183,47.78,180.36,51.78,179.55,52.55Z" transform="translate(-79.09 -18.78)" fill="#68e1fd"/><path d="M175.87,46.48a1.56,1.56,0,0,0-.71-.28.51.51,0,0,0-.56.42c0,.33.35.52.65.64,1.83.73,3.42,2.3,5.34,2.73C181.4,48.49,176.84,47.05,175.87,46.48Z" transform="translate(-79.09 -18.78)" fill="#68e1fd"/><path d="M186.52,49.61a1.62,1.62,0,0,0-.46.61.52.52,0,0,0,.25.65c.31.12.6-.19.8-.45,1.19-1.56,3.14-2.67,4.06-4.41C190,44.84,187.33,48.84,186.52,49.61Z" transform="translate(-79.09 -18.78)" fill="#68e1fd"/><path d="M182.8,46.32a1.52,1.52,0,0,0-.46.61.51.51,0,0,0,.25.65c.31.12.6-.19.8-.45,1.19-1.56,3.13-2.67,4.06-4.41C186.23,41.55,183.61,45.55,182.8,46.32Z" transform="translate(-79.09 -18.78)" fill="#68e1fd"/><path d="M170.57,55.11a1.54,1.54,0,0,0-.46.61.52.52,0,0,0,.25.65c.31.11.6-.2.8-.46,1.19-1.55,3.14-2.67,4.07-4.4C174,50.33,171.38,54.33,170.57,55.11Z" transform="translate(-79.09 -18.78)" fill="#68e1fd"/><path d="M196.3,50.21a1.62,1.62,0,0,0-.47.61.53.53,0,0,0,.25.66c.31.11.6-.2.8-.46,1.19-1.56,3.14-2.67,4.07-4.41C199.73,45.44,197.11,49.44,196.3,50.21Z" transform="translate(-79.09 -18.78)" fill="#68e1fd"/><path d="M201.88,51.45a1.59,1.59,0,0,0-.46.61.52.52,0,0,0,.25.66c.31.11.59-.2.79-.46,1.2-1.56,3.14-2.67,4.07-4.4C205.31,46.68,202.69,50.68,201.88,51.45Z" transform="translate(-79.09 -18.78)" fill="#68e1fd"/><path d="M192.62,44.14a1.6,1.6,0,0,0-.72-.28.53.53,0,0,0-.56.41c0,.33.35.53.66.65,1.82.72,3.42,2.3,5.34,2.72C198.14,46.15,193.58,44.71,192.62,44.14Z" transform="translate(-79.09 -18.78)" fill="#68e1fd"/><path d="M206.29,106.18c.36,2.5,1.72,5,4,6,1.41-1.74,1-4.26.69-6.48A47.43,47.43,0,0,1,211,92.63c.17-1.26.51-2.69,1.65-3.26a14,14,0,0,1,3.92,6c1.36-.94.93-3.12-.12-4.39s-2.57-2.14-3.32-3.64-.09-3.64-1.5-4.52c-2.33-1.46-4.91.56-5.19,2.75-.37,2.93.79,6.07.7,9C207,98.47,205.72,102.33,206.29,106.18Z" transform="translate(-79.09 -18.78)" fill="url(#linear-gradient-10)"/><path d="M222,45.35h0q-2.34,5-4.73,10c-.51-1.06-1-2.12-1.57-3.16a33.19,33.19,0,0,1-3-6.39,27.72,27.72,0,0,1-.75-4.7c-.06-.65-.12-1.31-.19-2,2-3.61,4-7.24,5.94-10.85a3.35,3.35,0,0,1,.49,1.73A51.15,51.15,0,0,0,221,42.81C221.31,43.66,221.63,44.5,222,45.35Z" transform="translate(-79.09 -18.78)" fill="url(#linear-gradient-11)"/><path d="M230.39,26.9q-2.26,5.3-4.64,10.53c-.33-.66-.65-1.31-1-2a33,33,0,0,1-3-6.4,25.75,25.75,0,0,1-.75-4.69c-.07-.66-.13-1.31-.19-2,.6-1.09,1.2-2.18,1.79-3.28a.92.92,0,0,1,.42-.33,1.16,1.16,0,0,1,.81.11,35.59,35.59,0,0,1,4.78,2.4c.41,1.6.9,3.19,1.46,4.74Z" transform="translate(-79.09 -18.78)" fill="url(#linear-gradient-12)"/></svg>