<svg id="Layer_1" data-name="Layer 1" xmlns="http://www.w3.org/2000/svg" xmlns:xlink="http://www.w3.org/1999/xlink" viewBox="0 0 368.25 316.73"><defs><linearGradient id="linear-gradient" x1="206" y1="20" x2="206" y2="496.4" gradientUnits="userSpaceOnUse"><stop offset="0.01"/><stop offset="0.13" stop-opacity="0.69"/><stop offset="0.78" stop-opacity="0.15"/><stop offset="1" stop-opacity="0"/></linearGradient><linearGradient id="linear-gradient-2" x1="73.34" y1="42.5" x2="615.63" y2="549.3" xlink:href="#linear-gradient"/><linearGradient id="linear-gradient-3" x1="81.96" y1="164.7" x2="327.73" y2="164.7" gradientUnits="userSpaceOnUse"><stop offset="0.01"/><stop offset="0.03" stop-opacity="0.69"/><stop offset="1" stop-opacity="0"/></linearGradient><linearGradient id="linear-gradient-4" x1="159.77" y1="210.86" x2="190.54" y2="210.86" xlink:href="#linear-gradient-3"/><linearGradient id="linear-gradient-5" x1="173.88" y1="245.18" x2="207.02" y2="245.18" xlink:href="#linear-gradient-3"/><linearGradient id="linear-gradient-6" x1="206.99" y1="157.43" x2="223.87" y2="157.43" xlink:href="#linear-gradient-3"/><linearGradient id="linear-gradient-7" x1="142.85" y1="281.3" x2="202.82" y2="120.81" xlink:href="#linear-gradient-3"/><linearGradient id="linear-gradient-8" x1="94.05" y1="329.13" x2="154.02" y2="168.63" xlink:href="#linear-gradient-3"/><linearGradient id="linear-gradient-9" x1="192.96" y1="238.6" x2="252.94" y2="78.1" xlink:href="#linear-gradient-3"/><linearGradient id="linear-gradient-10" x1="223.73" y1="199.29" x2="256.86" y2="199.29" xlink:href="#linear-gradient-3"/><linearGradient id="linear-gradient-11" x1="239.64" y1="98.17" x2="267.9" y2="98.17" xlink:href="#linear-gradient-3"/><linearGradient id="linear-gradient-12" x1="273.58" y1="151.14" x2="306.71" y2="151.14" xlink:href="#linear-gradient-3"/><linearGradient id="linear-gradient-13" x1="157.8" y1="137.65" x2="170.94" y2="196.59" xlink:href="#linear-gradient-3"/><linearGradient id="linear-gradient-14" x1="-86.68" y1="3985.04" x2="-73.54" y2="4043.98" gradientTransform="matrix(-0.54, 0.84, -0.84, -0.54, 3595.92, 2366.51)" xlink:href="#linear-gradient-3"/><linearGradient id="linear-gradient-15" x1="2038.07" y1="172.65" x2="2051.21" y2="231.59" gradientTransform="translate(-1319.26 1477.71) rotate(-47.59)" xlink:href="#linear-gradient-3"/><linearGradient id="linear-gradient-16" x1="155.05" y1="203.9" x2="196.83" y2="203.9" gradientUnits="userSpaceOnUse"><stop offset="0.01" stop-color="#fff"/><stop offset="0.13" stop-color="#fff" stop-opacity="0.69"/><stop offset="1" stop-color="#fff" stop-opacity="0"/></linearGradient><linearGradient id="linear-gradient-17" x1="103.06" y1="4192.67" x2="134.98" y2="4192.67" gradientTransform="translate(3518.35 2738.61) rotate(129.74)" xlink:href="#linear-gradient-16"/><linearGradient id="linear-gradient-18" x1="2330.33" y1="4013.73" x2="2362.25" y2="4013.73" gradientTransform="translate(1720.97 4506.39) rotate(-168.11)" xlink:href="#linear-gradient-16"/><linearGradient id="linear-gradient-19" x1="137.79" y1="202.21" x2="142.49" y2="202.21" xlink:href="#linear-gradient-16"/><linearGradient id="linear-gradient-20" x1="146.35" y1="200.07" x2="150.28" y2="200.07" xlink:href="#linear-gradient-16"/><linearGradient id="linear-gradient-21" x1="125.65" y1="192.82" x2="132.05" y2="192.82" xlink:href="#linear-gradient-16"/><linearGradient id="linear-gradient-22" x1="122.47" y1="178.75" x2="129.46" y2="178.75" xlink:href="#linear-gradient-16"/><linearGradient id="linear-gradient-23" x1="152.16" y1="191.81" x2="155.72" y2="191.81" xlink:href="#linear-gradient-16"/><linearGradient id="linear-gradient-24" x1="153.03" y1="203.46" x2="155.47" y2="203.46" xlink:href="#linear-gradient-16"/><linearGradient id="linear-gradient-25" x1="143.41" y1="218.11" x2="151.32" y2="218.11" xlink:href="#linear-gradient-16"/><linearGradient id="linear-gradient-26" x1="167.65" y1="224.1" x2="172.06" y2="224.1" xlink:href="#linear-gradient-16"/><linearGradient id="linear-gradient-27" x1="183.14" y1="225.14" x2="189.28" y2="225.14" xlink:href="#linear-gradient-16"/><linearGradient id="linear-gradient-28" x1="162.96" y1="237.69" x2="172.43" y2="237.69" xlink:href="#linear-gradient-16"/><linearGradient id="linear-gradient-29" x1="171.42" y1="229.84" x2="174.49" y2="229.84" xlink:href="#linear-gradient-16"/><linearGradient id="linear-gradient-30" x1="205.94" y1="178.28" x2="212.43" y2="178.28" xlink:href="#linear-gradient-16"/><linearGradient id="linear-gradient-31" x1="198.33" y1="169.46" x2="204.57" y2="169.46" xlink:href="#linear-gradient-16"/><linearGradient id="linear-gradient-32" x1="168.26" y1="142.7" x2="175.44" y2="142.7" xlink:href="#linear-gradient-16"/><linearGradient id="linear-gradient-33" x1="185.99" y1="131.07" x2="187.84" y2="131.07" xlink:href="#linear-gradient-16"/><linearGradient id="linear-gradient-34" x1="179.6" y1="139.98" x2="186.51" y2="139.98" xlink:href="#linear-gradient-16"/><linearGradient id="linear-gradient-35" x1="188.81" y1="156.69" x2="196.67" y2="156.69" xlink:href="#linear-gradient-16"/><linearGradient id="linear-gradient-36" x1="197.23" y1="143.94" x2="203.22" y2="143.94" xlink:href="#linear-gradient-16"/><linearGradient id="linear-gradient-37" x1="219.15" y1="175.54" x2="228.16" y2="175.54" xlink:href="#linear-gradient-16"/><linearGradient id="linear-gradient-38" x1="237.63" y1="179.21" x2="241.18" y2="179.21" xlink:href="#linear-gradient-16"/><linearGradient id="linear-gradient-39" x1="178.23" y1="123.12" x2="183.19" y2="123.12" xlink:href="#linear-gradient-16"/><linearGradient id="linear-gradient-40" x1="258.69" y1="118.07" x2="264.27" y2="118.07" xlink:href="#linear-gradient-16"/><linearGradient id="linear-gradient-41" x1="260.45" y1="106.81" x2="265.23" y2="106.81" xlink:href="#linear-gradient-16"/><linearGradient id="linear-gradient-42" x1="233.66" y1="111.09" x2="239.35" y2="111.09" xlink:href="#linear-gradient-16"/><linearGradient id="linear-gradient-43" x1="247.56" y1="107.93" x2="249.9" y2="107.93" xlink:href="#linear-gradient-16"/><linearGradient id="linear-gradient-44" x1="279.04" y1="122.55" x2="284.59" y2="122.55" xlink:href="#linear-gradient-16"/><linearGradient id="linear-gradient-45" x1="281.33" y1="136.88" x2="284.25" y2="136.88" xlink:href="#linear-gradient-16"/><linearGradient id="linear-gradient-46" x1="228.4" y1="71.29" x2="235.07" y2="71.29" xlink:href="#linear-gradient-16"/><linearGradient id="linear-gradient-47" x1="234.92" y1="80.93" x2="239.62" y2="80.93" xlink:href="#linear-gradient-16"/><linearGradient id="linear-gradient-48" x1="219.4" y1="77.54" x2="224.29" y2="77.54" xlink:href="#linear-gradient-16"/><linearGradient id="linear-gradient-49" x1="229.35" y1="124.68" x2="234.29" y2="124.68" xlink:href="#linear-gradient-16"/></defs><title>19</title><path d="M185.83,28.94l-.44.16c-25.75,9.26-49.21,25.67-76.6,30.92-13.05,2.5-26.64,2.5-39.2,6.84-33.54,11.6-49.79,50.75-50.46,86.23s10,70.27,11.47,105.72c.6,14.38,0,29.91,8.29,41.69,7.51,10.71,20.78,15.8,33.63,18.27A126.27,126.27,0,0,0,127.8,317c11.74-3,23.06-7.79,35-9.71,17.51-2.82,34,2.08,51.13,1.18,22.48-1.18,45.42-2.73,67.8-5.14,26.72-2.87,54.2-10,74.23-27.91,30.35-27.16,36.56-73.42,27.57-113.14-2.72-12-6.6-23.68-8.73-35.78-4.49-25.55-1.2-53-12.3-76.43C347.91,19.17,311.18,3.72,277,4.3,244.22,4.85,216,18.07,185.83,28.94Z" transform="translate(-19.09 -4.28)" fill="#68e1fd" opacity="0.18" style="isolation:isolate"/><path d="M339,140.94c3,11.75.18,24.42-5.48,35.15s-13.92,19.84-22.33,28.59A685.42,685.42,0,0,1,204.7,294.94c-4.81,3.3-10,6.66-15.85,6.86-9.17.31-17.45-7.26-26.55-6.15-6.52.8-11.71,5.88-18,7.74-10.11,3-20.56-2.69-29.57-8.18L95.46,283.49c-7.59-4.62-15.86-10.17-17.71-18.86-2.62-12.29,9-25.37,3.73-36.78-2.86-6.22-10.42-10.79-9.63-17.59.4-3.36,2.83-6.06,5.18-8.49,8.19-8.45,16.76-16.51,25.34-24.57,21.44-20.16,43-40.41,67.37-56.9,16.8-11.36,34.78-20.83,52.72-30.27l30.72-16.18c4.72-2.48,9.59-5,14.89-5.54s10.41.93,15.35,2.65c14,4.88,34.63,13,44.64,24.71,4.47,5.23,4.12,10.92,3.93,17.42C331.68,123.37,336.48,131.24,339,140.94Z" transform="translate(-19.09 -4.28)" opacity="0.42" fill="url(#linear-gradient)"/><path d="M333.51,158.38,192.15,290.6a25.79,25.79,0,0,1-36.07-.83l-9.85-10.1-20.65,5.14a17.86,17.86,0,0,1-17.51-5.3l-20.94-23A17.86,17.86,0,0,1,83,240.2L88,220,75.33,207a25.78,25.78,0,0,1,1.11-37.08l143.1-130a25.78,25.78,0,0,1,35.75,1L268.2,54.08l21-5.36a14.52,14.52,0,0,1,13.59,3.54L326.6,74.85a14.55,14.55,0,0,1,4,14.51l-6.25,22,10,10.17A25.78,25.78,0,0,1,333.51,158.38Z" transform="translate(-19.09 -4.28)" fill="#68e1fd"/><path d="M333.51,158.38,192.15,290.6a25.79,25.79,0,0,1-36.07-.83l-9.85-10.1-20.65,5.14a17.86,17.86,0,0,1-17.51-5.3l-20.94-23A17.86,17.86,0,0,1,83,240.2L88,220,75.33,207a25.78,25.78,0,0,1,1.11-37.08l143.1-130a25.78,25.78,0,0,1,35.75,1L268.2,54.08l21-5.36a14.52,14.52,0,0,1,13.59,3.54L326.6,74.85a14.55,14.55,0,0,1,4,14.51l-6.25,22,10,10.17A25.78,25.78,0,0,1,333.51,158.38Z" transform="translate(-19.09 -4.28)" opacity="0.42" fill="url(#linear-gradient-2)"/><path d="M84.85,171.57,221,47.36a23.56,23.56,0,0,1,32.66.94l72.18,73.63a23.55,23.55,0,0,1-.73,33.69L190.55,281.81a23.56,23.56,0,0,1-33-.76l-73.77-75.6A23.56,23.56,0,0,1,84.85,171.57Z" transform="translate(-19.09 -4.28)" fill="#68e1fd"/><path d="M320.54,156,191.08,277.38a22.67,22.67,0,0,1-31.7-.72l-22.56-23.12L88.4,203.91a4,4,0,0,1-.33-.37,22.65,22.65,0,0,1,1.31-32.23l131-119.52a22.67,22.67,0,0,1,31.42.91l69.47,70.84A22.67,22.67,0,0,1,320.54,156Z" transform="translate(-19.09 -4.28)" fill="url(#linear-gradient-3)"/><path d="M175.07,195.23c-5-5.25-9.83-10.62-15.48-15.12-4.92-3.91-10.39-7.13-15-11.4-2.48-2.3-4.7-4.9-7.4-7s-6-3.54-9.39-3.16a14.56,14.56,0,0,0-6.07,2.43,57.44,57.44,0,0,0-9.29,7.76q-5.33,5.25-10.2,10.91c-1.17,1.36-2.39,3-2.23,4.73a7,7,0,0,0,1.39,3.07c14,20.86,28.64,41.62,47.62,58.06,7.39,6.4,15.36,12.08,23.32,17.75a2.81,2.81,0,0,0,1.45.65,2.66,2.66,0,0,0,1.35-.43,141.45,141.45,0,0,0,36.41-27.42c2-2.07,3.94-5.45,1.93-7.51-.23-.23-3.38-.51-4.07-.88a21.53,21.53,0,0,1-2.87-1.84c-2.78-2.15-5.3-4.79-7.87-7.19q-7.76-7.23-15.21-14.77Q179.22,199.63,175.07,195.23Z" transform="translate(-19.09 -4.28)" fill="#68e1fd"/><path d="M177.58,203.59a4.65,4.65,0,0,1,1,4.59,2,2,0,0,1-1.17,1.16c-1.28.4-2.41-1-3.71-1.28-1.77-.43-3.34,1.09-4.72,2.26-2.7,2.29-6.14,3.72-8.32,6.5a3.18,3.18,0,0,0-.84,2.62c.25,1,1.22,1.56,2.13,2,5.21,2.61,11.14,4.33,16.86,3.22s11-5.64,11.66-11.43a6.85,6.85,0,0,0-.23-2.92c-.82-2.47-3.22-4.05-5-5.8a40.45,40.45,0,0,1-3.87-4.88c-.75-1-1.79-2.73-3.18-2.93-1.82-.25-3.3,2.13-4.09,3.4C175,201.44,176.57,202.32,177.58,203.59Z" transform="translate(-19.09 -4.28)" fill="url(#linear-gradient-4)"/><path d="M189.26,233.59a25.48,25.48,0,0,0-10.5,10.74,52.74,52.74,0,0,0-4.88,14.41c5.72-1.13,10.71-4.61,15-8.51s8.2-8.32,12.78-11.93c1.9-1.5,4.32-3,5.32-5.32-3.06.56-5-1-8.05-1.29A17.88,17.88,0,0,0,189.26,233.59Z" transform="translate(-19.09 -4.28)" fill="url(#linear-gradient-5)"/><path d="M224.92,149.35c-5-5.25-9.84-10.63-15.49-15.13-4.91-3.91-10.38-7.13-15-11.4-2.48-2.3-4.7-4.9-7.4-6.94s-6-3.54-9.39-3.17a14.65,14.65,0,0,0-6.07,2.44,56.5,56.5,0,0,0-9.3,7.76q-5.31,5.24-10.19,10.9c-1.17,1.36-2.4,2.95-2.23,4.74a6.8,6.8,0,0,0,1.38,3.06c14,20.86,28.65,41.63,47.63,58.07,7.39,6.39,15.36,12.07,23.32,17.74a2.09,2.09,0,0,0,2.8.23,142.08,142.08,0,0,0,36.41-27.42c2-2.08,3.93-5.46,1.92-7.51-.23-.24-3.37-.52-4.06-.89A19.17,19.17,0,0,1,256.4,180c-2.78-2.15-5.31-4.78-7.88-7.18q-7.76-7.23-15.2-14.77Q229.06,153.73,224.92,149.35Z" transform="translate(-19.09 -4.28)" fill="#68e1fd"/><path d="M217,151.26a2.16,2.16,0,0,0-.74,2.06,2.67,2.67,0,0,0,1.14,1.26l5.58,4a2,2,0,0,1,.8.86,2,2,0,0,1,0,1.15,84.3,84.3,0,0,1-2.7,9.07,1.36,1.36,0,0,1-.46.74,1.33,1.33,0,0,1-.79.14,13.25,13.25,0,0,1-11.38-7.69,18.9,18.9,0,0,1-1.38-6.26,15.36,15.36,0,0,1,.35-5.06c2-7.47,13.82-11,14.93-1.31A5,5,0,0,0,217,151.26Z" transform="translate(-19.09 -4.28)" fill="url(#linear-gradient-6)"/><path d="M210,176.35a142.75,142.75,0,0,1,7.17,16.26l4.9,12.45c1.33,3.4,2.69,6.95,2.44,10.59a3.44,3.44,0,0,1-.65,2c-1,1.15-2.82.82-4.26.36-21-6.79-38.68-21.08-54.82-36.13-10.58-9.87-21.08-20.75-25.45-34.54a15.19,15.19,0,0,1-.85-7.38c.8-4.19,7.81-12.92,12.7-12.06,3.64.65,7.21,6.69,10.91,8.4,12.55,5.77,24.35,12.27,34.27,22.07A77.21,77.21,0,0,1,210,176.35Z" transform="translate(-19.09 -4.28)" fill="url(#linear-gradient-7)"/><path d="M175.66,263.47a3.44,3.44,0,0,1-.65,2c-1,1.16-2.82.83-4.26.36-11.18-3.61-21.41-9.35-31-16.19L93.47,202.2c-.11-.11-.22-.23-.32-.35a48.2,48.2,0,0,1-2.67-6.66,15.18,15.18,0,0,1-.86-7.38c.81-4.19,7.82-12.92,12.7-12.06,3.64.65,7.21,6.7,10.91,8.4,12.56,5.77,24.35,12.27,34.28,22.07a77.49,77.49,0,0,1,13.64,17.95,144.54,144.54,0,0,1,7.17,16.26l4.89,12.45C174.55,256.28,175.91,259.83,175.66,263.47Z" transform="translate(-19.09 -4.28)" fill="url(#linear-gradient-8)"/><path d="M274.57,173a3.44,3.44,0,0,1-.65,2c-1,1.16-2.82.83-4.26.36-11.18-3.61-21.41-9.35-31-16.19l-46.31-47.47c-.11-.11-.22-.23-.32-.35a48.2,48.2,0,0,1-2.67-6.66,15.18,15.18,0,0,1-.86-7.38c.81-4.19,7.82-12.92,12.7-12.06,3.64.65,7.21,6.7,10.91,8.4,12.56,5.77,24.35,12.27,34.28,22.07a77.49,77.49,0,0,1,13.64,18,144.54,144.54,0,0,1,7.17,16.26l4.89,12.45C273.46,165.76,274.82,169.31,274.57,173Z" transform="translate(-19.09 -4.28)" fill="url(#linear-gradient-9)"/><path d="M239.11,187.7a25.44,25.44,0,0,0-10.5,10.75,52.67,52.67,0,0,0-4.88,14.4c5.72-1.13,10.71-4.6,15-8.51s8.2-8.32,12.78-11.93c1.89-1.5,4.31-3,5.31-5.32-3.05.57-5-1-8-1.28A17.84,17.84,0,0,0,239.11,187.7Z" transform="translate(-19.09 -4.28)" fill="url(#linear-gradient-10)"/><path d="M274.76,101.2c-5-5.25-9.83-10.63-15.48-15.12-4.91-3.91-10.38-7.13-15-11.4-2.48-2.3-4.7-4.9-7.39-7s-6-3.54-9.39-3.16A14.54,14.54,0,0,0,221.43,67a56.84,56.84,0,0,0-9.29,7.76q-5.31,5.25-10.2,10.9c-1.17,1.36-2.39,3-2.22,4.74a6.8,6.8,0,0,0,1.38,3.06c14,20.86,28.64,41.63,47.63,58.07,7.38,6.4,15.36,12.08,23.31,17.75a2.81,2.81,0,0,0,1.45.65,2.76,2.76,0,0,0,1.35-.43,141.9,141.9,0,0,0,36.41-27.42c2-2.07,3.94-5.46,1.93-7.51-.23-.23-3.38-.51-4.06-.88a21,21,0,0,1-2.88-1.84c-2.78-2.16-5.3-4.79-7.87-7.19q-7.75-7.23-15.21-14.77Q278.91,105.6,274.76,101.2Z" transform="translate(-19.09 -4.28)" fill="#68e1fd"/><path d="M267.87,97.23q-5.06,2.14-10.25,3.91a.67.67,0,0,1-.46,0,.64.64,0,0,1-.27-.35,18.14,18.14,0,0,0-2.39-3.78,3.19,3.19,0,0,0-1.83-1.31,2.77,2.77,0,0,0-1.47.26,4.68,4.68,0,0,0-2.95,3.06c-.45,2,.93,3.91,1.27,5.93a.74.74,0,0,1,0,.51.84.84,0,0,1-.54.3,43.57,43.57,0,0,1-7.52,1.17,1.32,1.32,0,0,1-.71-.08,1.39,1.39,0,0,1-.57-1.14,25.65,25.65,0,0,1-.21-8.6,9.33,9.33,0,0,1,4.81-6.8,11.74,11.74,0,0,1,3.7-.86,18.93,18.93,0,0,1,5.21.11c3.08.55,5.81,2.17,8.57,3.56,1,.52,2.12.66,3.14,1.11C265.76,94.44,268.18,97.09,267.87,97.23Z" transform="translate(-19.09 -4.28)" fill="url(#linear-gradient-11)"/><path d="M289,139.55a25.39,25.39,0,0,0-10.5,10.75,52.79,52.79,0,0,0-4.88,14.4c5.72-1.13,10.7-4.6,15-8.5s8.21-8.32,12.78-11.94c1.9-1.49,4.32-3,5.32-5.31-3,.56-5-1-8-1.29A17.91,17.91,0,0,0,289,139.55Z" transform="translate(-19.09 -4.28)" fill="url(#linear-gradient-12)"/><path d="M148.73,162.88a36.48,36.48,0,0,0-9.93,25l55.88-20.13c.46-.17-8.6-10.48-9.57-11.31-3.07-2.6-5.58-4.42-9.63-4.7C165.7,151.05,155.37,155.9,148.73,162.88Z" transform="translate(-19.09 -4.28)" fill="#68e1fd"/><path d="M148.73,162.88a36.48,36.48,0,0,0-9.93,25l55.88-20.13c.46-.17-8.6-10.48-9.57-11.31-3.07-2.6-5.58-4.42-9.63-4.7C165.7,151.05,155.37,155.9,148.73,162.88Z" transform="translate(-19.09 -4.28)" fill="url(#linear-gradient-13)"/><path d="M142.64,181.45l.48-2.56a35.64,35.64,0,0,1,1.36-5.5,17.69,17.69,0,0,1,3.37-5.62,35,35,0,0,1,3.87-3.53c3.69-3.05,7.35-5.88,11.85-7.66a26.28,26.28,0,0,1,11-2.17A18.37,18.37,0,0,1,191.11,169l-2,1a44.52,44.52,0,0,0-5.35-7.68,14.87,14.87,0,0,0-7.9-4.74c-4.35-.83-8.73,1-12.75,2.84-5.18,2.41-10.85,5.21-13.49,10.47-2.41,4.79-4.87,9.84-4.71,15.19l-3.28.8Z" transform="translate(-19.09 -4.28)" fill="#68e1fd"/><path d="M158.28,178.09a2.31,2.31,0,0,0,1.12-.78,2.17,2.17,0,0,0,.25-1.21,17.51,17.51,0,0,0-.65-4.61l-5.68,3a1.72,1.72,0,0,1-.61-2.05,4.69,4.69,0,0,1,1.42-1.83,45.81,45.81,0,0,1,12.12-7.84,19.92,19.92,0,0,1,5.2-1.64,2,2,0,0,1,1.53.21,1.77,1.77,0,0,1,.57.93,5.08,5.08,0,0,1-2.34,5.76c-1.26.69-2.78.8-4,1.54s-2,2.6-1,3.58c.74.69,1.92.51,2.9.25A83.72,83.72,0,0,0,181,169.11c2.54-1.09,5.15-2.24,7.92-2.25a1.37,1.37,0,0,1,.35,2,3.91,3.91,0,0,1-1.88,1.25l-9,3.72a75.25,75.25,0,0,1-8.57,3.16c-2.92.83-5.93,1.31-8.88,2a58.51,58.51,0,0,0-17.08,7.12c.27-.17.42-1.82,1.13-2.3a25.2,25.2,0,0,1,4.29-1.84Z" transform="translate(-19.09 -4.28)" fill="#68e1fd"/><path d="M179.81,166.54c.86,0,2.34.34,2.49-.85a1.38,1.38,0,0,0-1.26-1.51,4,4,0,0,0-2.56.63C177.31,165.81,178.91,166.51,179.81,166.54Z" transform="translate(-19.09 -4.28)" fill="#68e1fd"/><path d="M149.48,179.55c.85,0,2.33.34,2.48-.85a1.37,1.37,0,0,0-1.25-1.52,4.06,4.06,0,0,0-2.57.64C147,178.82,148.58,179.51,149.48,179.55Z" transform="translate(-19.09 -4.28)" fill="#68e1fd"/><path d="M177.37,162.59c.86,0,2.34.34,2.49-.85a1.38,1.38,0,0,0-1.26-1.52,4,4,0,0,0-2.56.64C174.87,161.86,176.47,162.55,177.37,162.59Z" transform="translate(-19.09 -4.28)" fill="#68e1fd"/><path d="M156.79,167.09c.86,0,2.34.34,2.49-.85a1.39,1.39,0,0,0-1.26-1.52,4,4,0,0,0-2.56.64C154.29,166.36,155.9,167.05,156.79,167.09Z" transform="translate(-19.09 -4.28)" fill="#68e1fd"/><path d="M155.6,177.65c.85,0,2.33.34,2.48-.85a1.37,1.37,0,0,0-1.25-1.52,4,4,0,0,0-2.57.64C153.09,176.92,154.7,177.61,155.6,177.65Z" transform="translate(-19.09 -4.28)" fill="#68e1fd"/><path d="M171.37,160.5c.85,0,2.33.34,2.48-.85a1.38,1.38,0,0,0-1.26-1.52,4,4,0,0,0-2.56.64C168.86,159.77,170.47,160.46,171.37,160.5Z" transform="translate(-19.09 -4.28)" fill="#68e1fd"/><path d="M259.3,139.76A36.45,36.45,0,0,0,243.49,118L230.6,176c-.1.48,13.45-1.65,14.67-2,3.84-1.2,6.72-2.35,9.13-5.62C260.21,160.43,261.64,149.1,259.3,139.76Z" transform="translate(-19.09 -4.28)" fill="#68e1fd"/><path d="M259.3,139.76A36.45,36.45,0,0,0,243.49,118L230.6,176c-.1.48,13.45-1.65,14.67-2,3.84-1.2,6.72-2.35,9.13-5.62C260.21,160.43,261.64,149.1,259.3,139.76Z" transform="translate(-19.09 -4.28)" fill="url(#linear-gradient-14)"/><path d="M246.88,124.68l1.9,1.78a35,35,0,0,1,3.91,4.08,17.59,17.59,0,0,1,2.95,5.86,35.71,35.71,0,0,1,.91,5.16c.6,4.74,1,9.35.13,14.1a26.2,26.2,0,0,1-4.05,10.45,18.36,18.36,0,0,1-21.15,6.19l.26-2.21a44.23,44.23,0,0,0,9.35-.41,14.9,14.9,0,0,0,8.24-4.14c3-3.23,3.84-7.9,4.41-12.29.75-5.66,1.41-11.95-1.62-17-2.76-4.6-5.7-9.38-10.31-12.11l1.08-3.2Z" transform="translate(-19.09 -4.28)" fill="#68e1fd"/><path d="M241.34,139.69a2.33,2.33,0,0,0,.06,1.36,2.23,2.23,0,0,0,.89.86,17.81,17.81,0,0,0,4.24,1.92l.47-6.43a1.72,1.72,0,0,1,2.06.59,4.58,4.58,0,0,1,.78,2.17A45.43,45.43,0,0,1,250,154.6a20.83,20.83,0,0,1-1.4,5.27,2,2,0,0,1-1,1.18,1.77,1.77,0,0,1-1.09,0,5.08,5.08,0,0,1-3.61-5.05c.09-1.44.81-2.79.85-4.23s-1.1-3.12-2.5-2.75c-1,.25-1.46,1.35-1.76,2.32a83.37,83.37,0,0,0-2.69,12.33c-.44,2.73-.86,5.55-2.33,7.89a1.37,1.37,0,0,1-1.87-.75,4,4,0,0,1-.05-2.26l1.67-9.59a77.5,77.5,0,0,1,1.91-8.93c.87-2.91,2.08-5.71,3.06-8.59a58.89,58.89,0,0,0,3.12-18.23c0,.31,1.3,1.33,1.34,2.18a25.42,25.42,0,0,1-.75,4.62Z" transform="translate(-19.09 -4.28)" fill="#68e1fd"/><path d="M239.57,164.06c-.49.7-1.53,1.79-.61,2.55a1.38,1.38,0,0,0,2-.25,4.09,4.09,0,0,0,.83-2.51C241.53,162.33,240.09,163.32,239.57,164.06Z" transform="translate(-19.09 -4.28)" fill="#68e1fd"/><path d="M244.82,131.47c-.49.7-1.54,1.79-.61,2.56a1.39,1.39,0,0,0,1.95-.25,4,4,0,0,0,.83-2.51C246.78,129.75,245.33,130.73,244.82,131.47Z" transform="translate(-19.09 -4.28)" fill="#68e1fd"/><path d="M244.22,164.11c-.49.7-1.53,1.79-.61,2.56a1.39,1.39,0,0,0,1.95-.25,4,4,0,0,0,.84-2.51C246.18,162.39,244.74,163.37,244.22,164.11Z" transform="translate(-19.09 -4.28)" fill="#68e1fd"/><path d="M251.43,144.32c-.49.7-1.54,1.79-.61,2.55a1.37,1.37,0,0,0,2-.25,4,4,0,0,0,.84-2.5C253.39,142.59,251.94,143.58,251.43,144.32Z" transform="translate(-19.09 -4.28)" fill="#68e1fd"/><path d="M243.15,137.66c-.49.7-1.53,1.79-.61,2.55a1.37,1.37,0,0,0,2-.25,4,4,0,0,0,.84-2.5C245.11,135.93,243.66,136.92,243.15,137.66Z" transform="translate(-19.09 -4.28)" fill="#68e1fd"/><path d="M249.2,160.15c-.49.71-1.54,1.79-.62,2.56a1.39,1.39,0,0,0,2-.25,4,4,0,0,0,.83-2.51C251.15,158.43,249.71,159.41,249.2,160.15Z" transform="translate(-19.09 -4.28)" fill="#68e1fd"/><path d="M195.33,113.15a36.46,36.46,0,0,0,11.76,24.18l22.82-54.82c.19-.46-13.53-.73-14.79-.57-4,.51-7,1.14-10,3.94C198,92.64,194.66,103.54,195.33,113.15Z" transform="translate(-19.09 -4.28)" fill="#68e1fd"/><path d="M195.33,113.15a36.46,36.46,0,0,0,11.76,24.18l22.82-54.82c.19-.46-13.53-.73-14.79-.57-4,.51-7,1.14-10,3.94C198,92.64,194.66,103.54,195.33,113.15Z" transform="translate(-19.09 -4.28)" fill="url(#linear-gradient-15)"/><path d="M204.93,130.17l-1.56-2.09a34.44,34.44,0,0,1-3.14-4.71,17.31,17.31,0,0,1-1.88-6.28,35.25,35.25,0,0,1,0-5.24c.24-4.77.62-9.39,2.34-13.9a26.19,26.19,0,0,1,5.81-9.59A18.36,18.36,0,0,1,228.4,86l-.64,2.14a44.83,44.83,0,0,0-9.27-1.24,15,15,0,0,0-8.84,2.64c-3.54,2.66-5.16,7.11-6.49,11.33-1.72,5.44-3.48,11.52-1.37,17,1.91,5,4,10.23,8,13.72l-1.63,3Z" transform="translate(-19.09 -4.28)" fill="#68e1fd"/><path d="M213,116.35a2.34,2.34,0,0,0,.18-1.35,2.12,2.12,0,0,0-.73-1,17.43,17.43,0,0,0-3.84-2.63L207,117.61a1.72,1.72,0,0,1-1.93-.93,4.77,4.77,0,0,1-.39-2.28,45.68,45.68,0,0,1,2.38-14.24,20.78,20.78,0,0,1,2.3-4.94,2,2,0,0,1,1.19-1,1.85,1.85,0,0,1,1.07.22,5.07,5.07,0,0,1,2.67,5.6c-.34,1.4-1.28,2.61-1.57,4s.54,3.26,2,3.14c1-.08,1.68-1.07,2.15-2a85.54,85.54,0,0,0,4.8-11.68c.91-2.61,1.82-5.31,3.67-7.36.7-.31,1.53.33,1.71,1.07a4,4,0,0,1-.35,2.23l-3.31,9.15a76.89,76.89,0,0,1-3.45,8.46c-1.36,2.72-3,5.26-4.5,7.92a58.48,58.48,0,0,0-6.27,17.41c.06-.31-1-1.54-.93-2.38a24.65,24.65,0,0,1,1.54-4.42Z" transform="translate(-19.09 -4.28)" fill="#68e1fd"/><path d="M219,92.67c.6-.61,1.82-1.5,1.05-2.41a1.38,1.38,0,0,0-2-.1,4,4,0,0,0-1.26,2.33C216.77,94,218.36,93.31,219,92.67Z" transform="translate(-19.09 -4.28)" fill="#68e1fd"/><path d="M208.14,123.84c.61-.61,1.83-1.5,1.05-2.41a1.38,1.38,0,0,0-2-.1,4,4,0,0,0-1.26,2.32C205.91,125.19,207.51,124.47,208.14,123.84Z" transform="translate(-19.09 -4.28)" fill="#68e1fd"/><path d="M214.43,91.8c.61-.6,1.83-1.49,1-2.41a1.38,1.38,0,0,0-2-.09,4.08,4.08,0,0,0-1.26,2.32C212.2,93.16,213.8,92.44,214.43,91.8Z" transform="translate(-19.09 -4.28)" fill="#68e1fd"/><path d="M203.88,110c.6-.61,1.82-1.5,1-2.41a1.36,1.36,0,0,0-2-.09,3.93,3.93,0,0,0-1.26,2.32C201.65,111.39,203.24,110.67,203.88,110Z" transform="translate(-19.09 -4.28)" fill="#68e1fd"/><path d="M210.86,118c.61-.61,1.83-1.5,1-2.41a1.38,1.38,0,0,0-2-.1,4,4,0,0,0-1.25,2.32C208.64,119.39,210.23,118.67,210.86,118Z" transform="translate(-19.09 -4.28)" fill="#68e1fd"/><path d="M208.84,94.83c.61-.61,1.83-1.5,1-2.41a1.38,1.38,0,0,0-2-.1,4,4,0,0,0-1.26,2.33C206.61,96.19,208.21,95.47,208.84,94.83Z" transform="translate(-19.09 -4.28)" fill="#68e1fd"/><path d="M166.84,201.75a26,26,0,0,0,8.35,5.58c2.39,1,5.78,1.3,7-1a5.35,5.35,0,0,0,0-3.88,28,28,0,0,0-4.74-9.46l16.31-7.49a18.69,18.69,0,0,1,2.63,13,29.39,29.39,0,0,1-5.15,12.36,21,21,0,0,1-7.18,6.93c-3.4,1.81-7.4,2.14-11.24,1.85-5.69-.44-11.62-2.4-15.86-6.34-2.78-2.58-3-3.89.24-5.86S163.7,203.79,166.84,201.75Z" transform="translate(-19.09 -4.28)" fill="#68e1fd"/><path d="M167.09,203.06a26.31,26.31,0,0,0,8.35,5.58c2.39,1,5.78,1.3,7-1a5.35,5.35,0,0,0,0-3.88,28,28,0,0,0-4.74-9.46L194,186.81a18.69,18.69,0,0,1,2.63,12.95,29.43,29.43,0,0,1-5.15,12.37,21.15,21.15,0,0,1-7.18,6.93c-3.4,1.8-7.4,2.13-11.24,1.84-5.69-.43-11.61-2.39-15.86-6.33-2.78-2.59-3-3.89.24-5.87S164,205.09,167.09,203.06Z" transform="translate(-19.09 -4.28)" fill="url(#linear-gradient-16)"/><path d="M224.06,145.37a20,20,0,0,0-7.36,2.18c-1.75.91-3.59,2.76-2.82,4.58a4,4,0,0,0,2.28,1.9,21.45,21.45,0,0,0,7.88,1.83l-3.57,13.24a14.25,14.25,0,0,1-8.9-4.78,22.42,22.42,0,0,1-4.74-9.06,16.14,16.14,0,0,1-.57-7.61,15.69,15.69,0,0,1,4.41-7.5,20.13,20.13,0,0,1,11.46-6.22c2.88-.38,3.75.14,3.34,3S224.4,142.53,224.06,145.37Z" transform="translate(-19.09 -4.28)" fill="#68e1fd"/><path d="M223.17,144.88a20,20,0,0,0-7.36,2.18c-1.75.92-3.58,2.76-2.82,4.58a4.07,4.07,0,0,0,2.28,1.9,21.45,21.45,0,0,0,7.88,1.83l-3.57,13.24a14.22,14.22,0,0,1-8.89-4.78,22.44,22.44,0,0,1-4.75-9.06,16.14,16.14,0,0,1-.57-7.61,15.82,15.82,0,0,1,4.41-7.5,20.12,20.12,0,0,1,11.47-6.22c2.88-.38,3.74.14,3.33,3S223.51,142,223.17,144.88Z" transform="translate(-19.09 -4.28)" fill="url(#linear-gradient-17)"/><path d="M258.13,98.5A19.87,19.87,0,0,0,252.77,93c-1.63-1.12-4.11-1.88-5.37-.35a4.08,4.08,0,0,0-.61,2.9,21.44,21.44,0,0,0,2.06,7.82l-13.38,3a14.34,14.34,0,0,1,.08-10.1,22.47,22.47,0,0,1,5.79-8.44,16.26,16.26,0,0,1,6.46-4,15.83,15.83,0,0,1,8.7.39,20.13,20.13,0,0,1,10.85,7.23c1.68,2.38,1.62,3.38-1.09,4.35S260.81,97.48,258.13,98.5Z" transform="translate(-19.09 -4.28)" fill="#68e1fd"/><path d="M258.15,97.49A19.87,19.87,0,0,0,252.79,92c-1.63-1.12-4.12-1.88-5.37-.35a4,4,0,0,0-.61,2.9,21.29,21.29,0,0,0,2.06,7.82l-13.38,3a14.34,14.34,0,0,1,.07-10.1,22.57,22.57,0,0,1,5.8-8.43,16.15,16.15,0,0,1,6.46-4.05,15.79,15.79,0,0,1,8.69.39,20.12,20.12,0,0,1,10.86,7.23c1.68,2.37,1.62,3.38-1.1,4.35S260.82,96.46,258.15,97.49Z" transform="translate(-19.09 -4.28)" fill="url(#linear-gradient-18)"/><path d="M141.83,198.64a3.13,3.13,0,0,1,.48,2.94c-.44,1.24-2.53,5.89-4.22,3.57C136.72,203.28,140.52,199.74,141.83,198.64Z" transform="translate(-19.09 -4.28)" fill="url(#linear-gradient-19)"/><path d="M147.9,197.7a4,4,0,0,0-1.55,2.85,2.38,2.38,0,0,0,1.13,2L150,199.9a.71.71,0,0,0,.24-.38.65.65,0,0,0-.05-.31,2.73,2.73,0,0,0-.87-1.4,1,1,0,0,0-1.43.27" transform="translate(-19.09 -4.28)" fill="url(#linear-gradient-20)"/><path d="M125.84,194.57a.48.48,0,0,0-.18.34c0,.24.31.32.55.31a4.74,4.74,0,0,0,2.75-1.38c.62-.54,4.8-3,2.31-3.4C129.8,190.21,126.77,193.59,125.84,194.57Z" transform="translate(-19.09 -4.28)" fill="url(#linear-gradient-21)"/><path d="M123.48,177a1.19,1.19,0,0,0-.77.16.83.83,0,0,0,0,1.12,2.34,2.34,0,0,0,1,.65,36.64,36.64,0,0,0,5.43,1.67c.85.19-.19-2.69-.82-3C127.13,176.89,124.8,177,123.48,177Z" transform="translate(-19.09 -4.28)" fill="url(#linear-gradient-22)"/><path d="M153.91,190.21a4,4,0,0,0-1,1.41,1.38,1.38,0,0,0,.38,1.59,1.32,1.32,0,0,0,1.51-.11,2.75,2.75,0,0,0,.87-1.33,1.19,1.19,0,0,0,.07-.74c-.16-.46-.76-.55-1.25-.57l-2.28-.08" transform="translate(-19.09 -4.28)" fill="url(#linear-gradient-23)"/><path d="M154.69,202a5.21,5.21,0,0,0-1.62,2.55c-.07.27-.07.65.2.72s.37-.09.51-.23a9.34,9.34,0,0,0,1.43-1.88c.27-.46.44-1.18,0-1.42a1.57,1.57,0,0,0-.58.86" transform="translate(-19.09 -4.28)" fill="url(#linear-gradient-24)"/><path d="M143.64,217.35c-.11.05-.22.13-.23.24a.36.36,0,0,0,.14.26,8,8,0,0,0,2.64,1.74A8.18,8.18,0,0,0,151,220c1.16-.24-1.16-3.6-1.89-3.85C147.39,215.59,145.13,216.58,143.64,217.35Z" transform="translate(-19.09 -4.28)" fill="url(#linear-gradient-25)"/><path d="M168.1,224.1c-.27.22-.56.55-.42.86s.51.31.83.27h.09c1-.16,4.17-.27,3.32-1.6S168.93,223.43,168.1,224.1Z" transform="translate(-19.09 -4.28)" fill="url(#linear-gradient-26)"/><path d="M183.15,228.86c1.54.12,2.81-1.22,3.49-2.61s1.05-3,2.06-4.14a4.48,4.48,0,0,0,.58-.7,13.14,13.14,0,0,0-3.81,3.27A44.05,44.05,0,0,0,183.15,228.86Z" transform="translate(-19.09 -4.28)" fill="url(#linear-gradient-27)"/><path d="M166.07,236.17a4.3,4.3,0,0,0-2.33.45,1.5,1.5,0,0,0-.55,2.06,2.15,2.15,0,0,0,1.86.52l3.14-.11a6.43,6.43,0,0,0,3.05-.63C175.47,236,167.17,236.16,166.07,236.17Z" transform="translate(-19.09 -4.28)" fill="url(#linear-gradient-28)"/><path d="M172.41,229.58c.08,0,0-.19-.09-.17s-.15.11-.19.2a8.05,8.05,0,0,0-.71,3.49,6.68,6.68,0,0,0,3-6.52" transform="translate(-19.09 -4.28)" fill="url(#linear-gradient-29)"/><path d="M206.1,182.07c.64.5,1.58.15,2.26-.29a9.32,9.32,0,0,0,3.88-5.4c1-3.79-2-1.67-3.39-.14C208.35,176.8,205.2,181.37,206.1,182.07Z" transform="translate(-19.09 -4.28)" fill="url(#linear-gradient-30)"/><path d="M204.57,169.35a9.17,9.17,0,0,0-5.73-1.13.59.59,0,0,0-.41.17.55.55,0,0,0-.1.38c.06,1.15,1.39,1.82,2.55,1.88a14.68,14.68,0,0,1,3.45.12,3.33,3.33,0,0,0-.3-2.21" transform="translate(-19.09 -4.28)" fill="url(#linear-gradient-31)"/><path d="M168.39,141.33c-.35.53.07,1.28.64,1.55a4.75,4.75,0,0,0,1.88.22c1.6,0,3,.74,4.53,1C173.36,143,170.85,141.26,168.39,141.33Z" transform="translate(-19.09 -4.28)" fill="url(#linear-gradient-32)"/><path d="M186,129.26c0-.39.12-.87.5-.95s.58.18.75.44c.48.76,1,4.69.08,5C185.74,134.43,186,129.94,186,129.26Z" transform="translate(-19.09 -4.28)" fill="url(#linear-gradient-33)"/><path d="M183.58,142.26a5.73,5.73,0,0,1-4-5.1,5.55,5.55,0,0,1,6.91,5.34c0,.16,0,.36-.17.44a.5.5,0,0,1-.32,0,4,4,0,0,1-1.87-1.22" transform="translate(-19.09 -4.28)" fill="url(#linear-gradient-34)"/><path d="M189,158a.76.76,0,0,0-.23.43c0,.27.23.48.48.59,1.27.57,2.7-.19,3.88-.92l2.84-1.77c.32-.2.68-.47.66-.85C196.44,151.62,189.82,157.1,189,158Z" transform="translate(-19.09 -4.28)" fill="url(#linear-gradient-35)"/><path d="M197.8,143.32c-.24.08-.52.21-.56.47a.59.59,0,0,0,.17.46c.94,1.2,5.57,1.81,5.79-.15C203.52,141.34,198.88,142.94,197.8,143.32Z" transform="translate(-19.09 -4.28)" fill="url(#linear-gradient-36)"/><path d="M222.53,173.53a4.14,4.14,0,0,0-2.35-.18c-.76.26-1.32,1.23-.86,1.89a2,2,0,0,0,1.34.61,38,38,0,0,1,6.85,2c.74.29.83-2.58.36-3.07C227.1,174,223.66,173.84,222.53,173.53Z" transform="translate(-19.09 -4.28)" fill="url(#linear-gradient-37)"/><path d="M239.13,181a25.28,25.28,0,0,1,.4-4.68,1.53,1.53,0,0,1,1.26.06c.44.32.42,1,.36,1.5l-.41,3.35a.88.88,0,0,1-.15.48.84.84,0,0,1-.5.24c-.63.15-1.27.26-1.91.35l-.55-1.11" transform="translate(-19.09 -4.28)" fill="url(#linear-gradient-38)"/><path d="M182.92,123.12a3,3,0,0,0-2-1.36,3.35,3.35,0,0,0-1.53-.19,1.32,1.32,0,0,0-1.12.94,1.37,1.37,0,0,0,.68,1.35,4,4,0,0,0,1.52.47l2.33.37.41-1.75" transform="translate(-19.09 -4.28)" fill="url(#linear-gradient-39)"/><path d="M261.5,116.89c-1.21.56-2.5,1.38-2.78,2.66l0,.16c0-.09,5-.64,5.43-1.8C264.89,115.8,262.51,116.43,261.5,116.89Z" transform="translate(-19.09 -4.28)" fill="url(#linear-gradient-40)"/><path d="M265,108a23.1,23.1,0,0,0-4.1-4.34,1.51,1.51,0,0,0-.34,1.66,4.42,4.42,0,0,0,1.05,1.46l3,3.14a3.27,3.27,0,0,0,.66-1.44" transform="translate(-19.09 -4.28)" fill="url(#linear-gradient-41)"/><path d="M238.14,108.75c.34-.15.78-.28,1.05,0s0,1-.46,1.39c-1,.89-4.41,5-5,2.9S236.76,109.37,238.14,108.75Z" transform="translate(-19.09 -4.28)" fill="url(#linear-gradient-42)"/><path d="M247.56,104.94l1.22,5.07c.1.42.32.93.74.92a29.12,29.12,0,0,0,.38-4.94.84.84,0,0,0-.13-.52c-.37-.46-1.29.13-1.63-.34" transform="translate(-19.09 -4.28)" fill="url(#linear-gradient-43)"/><path d="M282.68,121.08a8.57,8.57,0,0,0-2.8.33c-.48.13-1.05.6-.76,1a16.22,16.22,0,0,1,5.14,1.75,2.22,2.22,0,0,0-1.22-3.25" transform="translate(-19.09 -4.28)" fill="url(#linear-gradient-44)"/><path d="M281.43,138.63c0,.09-.07.17-.1.26a1.91,1.91,0,0,0,2-.92c.66-.93,1.41-2.28.4-3.18A9.31,9.31,0,0,0,281.43,138.63Z" transform="translate(-19.09 -4.28)" fill="url(#linear-gradient-45)"/><path d="M229.19,70.05a.41.41,0,0,0-.29,0,.54.54,0,0,0-.18.31l-.3,1.14a.3.3,0,0,0,0,.23.29.29,0,0,0,.22.09c1.4.16,2.81.25,4.22.27.36,0,1.94.54,2.09.4.41-.36-.34-.93-.62-1.12C233,70.46,230.76,70.26,229.19,70.05Z" transform="translate(-19.09 -4.28)" fill="url(#linear-gradient-46)"/><path d="M234.92,82.88a1.44,1.44,0,0,0,1.2.07,4.25,4.25,0,0,0,2-1.77c.45-.64,2.64-3.36.63-2A21.53,21.53,0,0,0,234.92,82.88Z" transform="translate(-19.09 -4.28)" fill="url(#linear-gradient-47)"/><path d="M220.09,75.53a.34.34,0,0,0-.24,0c-.09,0-.14.11-.18.19a2.41,2.41,0,0,0-.26,1.26,1.44,1.44,0,0,0,.23.75,2,2,0,0,0,.83.57,12.82,12.82,0,0,0,2.34.77,3.21,3.21,0,0,1,1.45.59C224.64,77.84,221.41,76.13,220.09,75.53Z" transform="translate(-19.09 -4.28)" fill="url(#linear-gradient-48)"/><path d="M231.15,126a11.54,11.54,0,0,1,2.25-4.64c.72.15,1,1.06.84,1.78a15.45,15.45,0,0,1-.91,2,17.7,17.7,0,0,0-.56,2.6.41.41,0,0,1-.17.28.4.4,0,0,1-.36-.07,9.32,9.32,0,0,1-2.89-2.77" transform="translate(-19.09 -4.28)" fill="url(#linear-gradient-49)"/></svg>