<svg id="Layer_1" data-name="Layer 1" xmlns="http://www.w3.org/2000/svg" xmlns:xlink="http://www.w3.org/1999/xlink" viewBox="0 0 560.59 445.29"><defs><linearGradient id="linear-gradient" x1="266.54" y1="412.3" x2="270.01" y2="753.56" gradientUnits="userSpaceOnUse"><stop offset="0" stop-color="#010101" stop-opacity="0"/><stop offset="0.95" stop-color="#010101"/></linearGradient><linearGradient id="linear-gradient-2" x1="291.72" y1="119.22" x2="285.08" y2="540.65" xlink:href="#linear-gradient"/><linearGradient id="linear-gradient-3" x1="285.97" y1="535.74" x2="293.34" y2="269.89" gradientUnits="userSpaceOnUse"><stop offset="0" stop-color="#fff" stop-opacity="0"/><stop offset="0.14" stop-color="#fff" stop-opacity="0.22"/><stop offset="0.3" stop-color="#fff" stop-opacity="0.45"/><stop offset="0.45" stop-color="#fff" stop-opacity="0.65"/><stop offset="0.6" stop-color="#fff" stop-opacity="0.8"/><stop offset="0.73" stop-color="#fff" stop-opacity="0.91"/><stop offset="0.85" stop-color="#fff" stop-opacity="0.98"/><stop offset="0.94" stop-color="#fff"/></linearGradient><linearGradient id="linear-gradient-4" x1="289.29" y1="428.68" x2="285.88" y2="-72.04" xlink:href="#linear-gradient"/><linearGradient id="linear-gradient-5" x1="196.63" y1="-84.81" x2="205.31" y2="454.85" gradientUnits="userSpaceOnUse"><stop offset="0" stop-color="#fff" stop-opacity="0"/><stop offset="0.07" stop-color="#fff" stop-opacity="0.22"/><stop offset="0.16" stop-color="#fff" stop-opacity="0.45"/><stop offset="0.25" stop-color="#fff" stop-opacity="0.65"/><stop offset="0.33" stop-color="#fff" stop-opacity="0.8"/><stop offset="0.4" stop-color="#fff" stop-opacity="0.91"/><stop offset="0.46" stop-color="#fff" stop-opacity="0.98"/><stop offset="0.51" stop-color="#fff"/></linearGradient><linearGradient id="linear-gradient-6" x1="337.34" y1="-87.07" x2="346.02" y2="452.58" xlink:href="#linear-gradient-5"/><linearGradient id="linear-gradient-7" x1="335.56" y1="-87.04" x2="344.24" y2="452.61" xlink:href="#linear-gradient-5"/><linearGradient id="linear-gradient-8" x1="252.4" y1="408.4" x2="263.46" y2="408.4" gradientUnits="userSpaceOnUse"><stop offset="0" stop-color="#e4c5d5"/><stop offset="0.42" stop-color="#e9d3cf"/><stop offset="1" stop-color="#efe8ca"/></linearGradient><linearGradient id="linear-gradient-9" x1="276.21" y1="408.4" x2="287.27" y2="408.4" xlink:href="#linear-gradient-8"/><linearGradient id="linear-gradient-10" x1="261.63" y1="394.04" x2="315.42" y2="344.3" xlink:href="#linear-gradient"/><linearGradient id="linear-gradient-11" x1="300.37" y1="224.2" x2="315.77" y2="224.2" xlink:href="#linear-gradient-8"/><linearGradient id="linear-gradient-12" x1="258.14" y1="289.21" x2="298.14" y2="289.21" xlink:href="#linear-gradient"/><linearGradient id="linear-gradient-13" x1="247.27" y1="321.5" x2="316.1" y2="343.77" xlink:href="#linear-gradient"/></defs><title>Mention</title><path d="M530,342.46c-1.2,1.66-2.47,3.3-3.73,4.9a1.2,1.2,0,0,1-.22.24c-11.58,14.64-25.26,27.24-40,38.65-3.95,3.05-7.92,6-12,8.93-6.41,4.62-13,9.06-19.57,13.38-7,4.62-14.14,9.12-21.23,13.58-15.07,9.5-30.2,19-46.59,25.86-33.15,13.9-69.79,16.36-105.63,18.64-14.88,1-29.92,1.91-44.62-.68-24.68-4.28-46.68-18.15-70.69-25.3C138,432.38,107,432.81,80.69,422.08a81.46,81.46,0,0,1-17.34-9.49c-13-9.33-22.53-22.65-30.45-36.57C9.88,335.65-.78,287.49,7.14,241.63s35.34-88.77,75.62-111.57c28.5-16.12,62.31-22.1,88.93-41.23,21.14-15.2,36.45-37.2,60.09-48.94C304.31,3.75,392.66,26,448,83.25c9.12,9.46,17.53,19.75,28,27.67,15.19,11.46,34,17.35,49.15,28.84,26.25,19.88,38.3,54.24,39.81,87.3A182.59,182.59,0,0,1,530,342.46Z" transform="translate(-4.54 -22.34)" fill="#68e1fd" opacity="0.24" style="isolation:isolate"/><path d="M454.53,408.56c-7,4.62-14.14,9.12-21.23,13.58-15.07,9.5-30.2,19-46.59,25.86-33.15,13.9-69.79,16.36-105.63,18.64-14.88,1-29.92,1.91-44.62-.68-24.68-4.28-46.68-18.15-70.69-25.3C138,432.38,107,432.81,80.69,422.08a33.79,33.79,0,0,1,17-3.48c44.22,2.56,87.85-3.42,131.73-7.92,24-2.46,48.17-4.37,72.32-3.85,17.63.4,35.23,2.1,52.82,3C387.82,411.51,421.19,410.22,454.53,408.56Z" transform="translate(-4.54 -22.34)" fill="#68e1fd"/><path d="M206.26,420.84c-1.89-2.08-3.89-4.68-3.21-7.41.85-3.39,5.09-4.43,8.57-4.83q31.57-3.64,63.31-5.79c18.69-1.27,38.31-2,55.22,6.07-4.92,13.13-14.4,24-23.68,34.47L291,460.89a15.53,15.53,0,0,1-5.08,4.31c-2.06.9-4.76.72-6.17-1-1.14-1.42-1.15-3.41-1.1-5.23q.28-10.8.58-21.6c-7.75.07-12.52,8.7-13.66,16.37-.47,3.15-.7,6.54-2.63,9.07C255,473.16,212.56,427.78,206.26,420.84Z" transform="translate(-4.54 -22.34)" fill="url(#linear-gradient)"/><path d="M526.08,207V347.6c-14.69,18.56-32.72,33.81-52,47.58l-6.5-6.41H93.3c-22.59,0-40.92-18-40.92-40.3V207c0-22.25,18.33-40.31,40.92-40.31H485.19C507.78,166.66,526.08,184.72,526.08,207Z" transform="translate(-4.54 -22.34)" fill="url(#linear-gradient-2)"/><path d="M530.43,190.48V332a37.64,37.64,0,0,1-.4,5.64v4.84c-1.2,1.66-2.47,3.3-3.73,4.9a1.2,1.2,0,0,1-.22.24c-11.58,14.64-25.26,27.24-40,38.65l-14.18-14H97.61c-22.56,0-40.89-18.06-40.89-40.31V190.48c0-22.25,18.33-40.3,40.89-40.3H489.54C512.1,150.18,530.43,168.23,530.43,190.48Z" transform="translate(-4.54 -22.34)" fill="#68e1fd"/><path d="M530.43,190.48V332a37.64,37.64,0,0,1-.4,5.64v4.84c-1.2,1.66-2.47,3.3-3.73,4.9a1.2,1.2,0,0,1-.22.24c-11.58,14.64-25.26,27.24-40,38.65l-14.18-14H97.61c-22.56,0-40.89-18.06-40.89-40.31V190.48c0-22.25,18.33-40.3,40.89-40.3H489.54C512.1,150.18,530.43,168.23,530.43,190.48Z" transform="translate(-4.54 -22.34)" fill="url(#linear-gradient-3)"/><g opacity="0.24" style="isolation:isolate"><path d="M185,190.25c-.5,1.67-2,6.8-2.43,8.65l-5,18.65a9.14,9.14,0,0,0-.34,2.52,1.93,1.93,0,0,0,2.18,2.1,9.18,9.18,0,0,0,5.3-2.19c4.11-3.19,6.8-9.4,6.8-15.87a21.06,21.06,0,0,0-9.66-18.23c-3.78-2.27-9.07-3.53-15-3.53-17.72,0-30.16,11.76-30.16,28.39,0,16.13,11.18,26.72,28.06,26.72a45.62,45.62,0,0,0,12.86-1.85,37.48,37.48,0,0,0,9.4-4.45l5.13,7.39c-4.54,2.69-6.55,3.7-10.5,4.88a60.71,60.71,0,0,1-17.81,2.68c-11.85,0-21.09-3.36-27.73-10-6.3-6.22-9.74-15.13-9.74-24.87,0-10.42,3.53-19.41,10.25-26.22,7.73-7.72,17.89-11.5,30.91-11.5,19.58,0,33.53,12.6,33.53,30.16a28.34,28.34,0,0,1-8,20.24,22.57,22.57,0,0,1-15.71,6.89c-3.27,0-6-1.26-7.22-3.27a6,6,0,0,1-.76-2.61c-3.19,3.7-6.55,5.3-11.26,5.3-8.31,0-13.61-6.22-13.61-15.8,0-14.2,9.33-26,20.5-26,4.71,0,7.06,1.18,9.33,4.7l.84-2.93Zm-17.3,24.95A31.31,31.31,0,0,0,171,202.26c0-3.45-1.94-5.8-4.88-5.8-3.19,0-6.13,2.1-8.23,6a29.09,29.09,0,0,0-3.36,12.6c0,4.46,1.68,6.81,4.87,6.81S165.48,219.48,167.67,215.2Z" transform="translate(-4.54 -22.34)" fill="#68e1fd"/></g><g opacity="0.24" style="isolation:isolate"><path d="M226.59,229.35a36,36,0,0,0-2-6.73l-4.19-12.1c0-.22-1.41-4.45-1.54-4.81-.5-1.64-.5-1.64-.73-2.28.27,2.87.46,6.59.46,9v9.87a49.21,49.21,0,0,0,.36,7h-9a50.93,50.93,0,0,0,.36-7V198.61a62,62,0,0,0-.36-7.09h12a34.3,34.3,0,0,0,1.73,6.41l6.82,19.6,6.78-19.6a31.51,31.51,0,0,0,1.68-6.41h12a53,53,0,0,0-.37,7.09V222.3a45.4,45.4,0,0,0,.37,7h-9a49.87,49.87,0,0,0,.37-7v-9.91c0-1.09.13-4.5.22-5.91.14-2.41.14-2.41.19-3.09-1,3.54-1.46,5.18-2,6.81l-4.41,12.46a41.29,41.29,0,0,0-2,6.69Z" transform="translate(-4.54 -22.34)" fill="#68e1fd"/><path d="M285.31,229.66a60.36,60.36,0,0,0-7.5-.31H263.48c-3.45,0-4.73,0-6.68.13a42.29,42.29,0,0,0,.36-6.63V198a48.73,48.73,0,0,0-.36-6.64c1.86.09,3.14.14,6.68.14H278a55.21,55.21,0,0,0,6.77-.32v8.5a57.29,57.29,0,0,0-6.77-.32H266.17v6.69H276a55,55,0,0,0,6.82-.32v8.41a55.67,55.67,0,0,0-6.82-.32h-9.82v7.64H277.9a61,61,0,0,0,7.41-.32Z" transform="translate(-4.54 -22.34)" fill="#68e1fd"/><path d="M311.69,210.11a61.27,61.27,0,0,1,3.27,5.41c-.18-2.09-.27-4.18-.27-6.72V198.43a49.93,49.93,0,0,0-.36-6.91H324a49.84,49.84,0,0,0-.36,6.91v24.14a55.27,55.27,0,0,0,.36,6.78h-10a47.64,47.64,0,0,0-3.41-5.78l-8.41-12.68A54,54,0,0,1,299,205.3a64.16,64.16,0,0,1,.32,6.77v10.18a50.43,50.43,0,0,0,.36,7.1H290a47.54,47.54,0,0,0,.36-7.14V198.29a51.15,51.15,0,0,0-.36-6.77h9.86a30.82,30.82,0,0,0,3.23,5.68Z" transform="translate(-4.54 -22.34)" fill="#68e1fd"/><path d="M349.12,222.48a50.54,50.54,0,0,0,.37,6.87H339.44a51,51,0,0,0,.36-6.87V199.57h-5.36a59.91,59.91,0,0,0-6.87.32V191.2a62.74,62.74,0,0,0,6.78.32h19.91a59.47,59.47,0,0,0,7.09-.32v8.69a58,58,0,0,0-7.09-.32h-5.14Z" transform="translate(-4.54 -22.34)" fill="#68e1fd"/><path d="M374.87,191.52a42.5,42.5,0,0,0-.36,6.73v24.37a44.4,44.4,0,0,0,.36,6.73h-10a44.06,44.06,0,0,0,.36-6.73V198.25a42.91,42.91,0,0,0-.36-6.73Z" transform="translate(-4.54 -22.34)" fill="#68e1fd"/><path d="M416.07,210.25c0,12-7.32,20-18.37,20s-18.32-7.77-18.32-19.82,7.18-19.69,18.36-19.69S416.07,198.34,416.07,210.25Zm-9.46.09c0-7.36-3.36-11.82-8.87-11.82s-8.95,4.5-8.95,11.82,3.41,12,8.95,12S406.61,217.8,406.61,210.34Z" transform="translate(-4.54 -22.34)" fill="#68e1fd"/><path d="M442.36,210.11c1.32,2,2.18,3.41,3.28,5.41-.19-2.09-.28-4.18-.28-6.72V198.43a49.93,49.93,0,0,0-.36-6.91h9.68a49.84,49.84,0,0,0-.36,6.91v24.14a57.34,57.34,0,0,0,.36,6.78h-9.95a50.42,50.42,0,0,0-3.41-5.78l-8.42-12.68a55.83,55.83,0,0,1-3.27-5.59,64.16,64.16,0,0,1,.32,6.77v10.18a50.43,50.43,0,0,0,.36,7.1h-9.68a47.54,47.54,0,0,0,.36-7.14V198.29a51.15,51.15,0,0,0-.36-6.77h9.86a30.82,30.82,0,0,0,3.23,5.68Z" transform="translate(-4.54 -22.34)" fill="#68e1fd"/></g><rect x="130.26" y="244.09" width="331.43" height="17.35" rx="8.68" fill="#68e1fd" opacity="0.24" style="isolation:isolate"/><rect x="130.26" y="287.47" width="331.43" height="17.35" rx="8.68" fill="#68e1fd" opacity="0.24" style="isolation:isolate"/><path d="M318.18,250.66a235.12,235.12,0,0,1-1.36,26c-.8,8.75-1.57,17.53-2.37,26.28-.65,7.25-1.29,14.49-3,21.54s-4.22,13.65-5.85,20.62a76.91,76.91,0,0,0-1.73,25.3,4.88,4.88,0,0,1-.09,1.91h-44.4c-1-19.54-1.91-39.45,3.26-58.27,3-11,8.11-21.7,8.54-33.13.34-8.87-2.16-18,.52-26.5a7.39,7.39,0,0,1,1.54-2.9,6.36,6.36,0,0,1,4-1.63,15.68,15.68,0,0,1,12.39,4.87,24.87,24.87,0,0,1,6.19,12.11c.56,2.47,1,5.24,3.05,6.75,3.82-5,3.82-11.86,4.22-18.15a101.23,101.23,0,0,1,6-28.29c3.18-8.6,6.35.37,7.12,4.56A118.29,118.29,0,0,1,318.18,250.66Z" transform="translate(-4.54 -22.34)" fill="url(#linear-gradient-4)"/><path d="M457.55,70.15v43.79a22.35,22.35,0,0,1-22.34,22.34H320.46l-17.9,33-21-33H172.77a22.35,22.35,0,0,1-22.34-22.34V70.15a22.36,22.36,0,0,1,22.34-22.37H435.21A22.36,22.36,0,0,1,457.55,70.15Z" transform="translate(-4.54 -22.34)" fill="#68e1fd"/><circle cx="199.09" cy="68.25" r="34.13" fill="url(#linear-gradient-5)"/><rect x="254.04" y="45.7" width="171.21" height="20.82" rx="9.91" fill="url(#linear-gradient-6)"/><rect x="256.5" y="81.41" width="163.69" height="8.68" rx="4.34" fill="url(#linear-gradient-7)"/><polygon points="252.4 384.16 252.83 432.21 258.78 432.63 263.46 385.01 252.4 384.16" fill="url(#linear-gradient-8)"/><polygon points="276.21 384.16 276.64 432.21 282.59 432.63 287.27 385.01 276.21 384.16" fill="url(#linear-gradient-9)"/><path d="M298.67,332.17c-1,4.43-2,32.91-8.19,32.29-5.73-.59-26.29,3.3-28,.92-.59-.77-4.72-4.28-8.54-7.67-2.16-1.94-4.22-3.82-5.45-5.14-3.36-3.58-3.61-9.16-2.56-14s3.14-9.4,3.76-14.3c1.26-10.08-2.16-25.67,4.62-34.58a15.74,15.74,0,0,1,8.35-5.63c10.05-3.12,30.32,2.43,35.35,11.8C304.19,307.48,301.48,320,298.67,332.17Z" transform="translate(-4.54 -22.34)" fill="#68e1fd"/><path d="M254.82,357.18l40.6.93s1.71,10.5.86,16.68S295,395.21,295,395.21l-2.34,13.3-37.84.75S254.39,368,254.82,357.18Z" transform="translate(-4.54 -22.34)" fill="#606161"/><path d="M254.82,357.18l40.6.93s1.71,10.5.86,16.68S295,395.21,295,395.21l-2.34,13.3-37.84.75S254.39,368,254.82,357.18Z" transform="translate(-4.54 -22.34)" fill="url(#linear-gradient-10)"/><path d="M259.08,451.48a2.65,2.65,0,0,0-1.41.33,2.12,2.12,0,0,0-.69,2.09c.12.77.44,1.5.53,2.27s0,1.45.5,1.92a2.07,2.07,0,0,0,1.25.43c.87.09,1.75.15,2.63.17a2,2,0,0,0,1-.16c.69-.37.69-1.33.67-2.1s.81-4.3.41-4.84C263.31,450.73,260.06,451.43,259.08,451.48Z" transform="translate(-4.54 -22.34)" fill="#68e1fd"/><path d="M282.89,451.48a2.65,2.65,0,0,0-1.41.33,2.1,2.1,0,0,0-.68,2.09c.11.77.43,1.5.52,2.27s0,1.45.5,1.92a2.07,2.07,0,0,0,1.25.43c.87.09,1.75.15,2.63.17a2,2,0,0,0,1-.16c.69-.37.69-1.33.67-2.1s.81-4.3.41-4.84C287.12,450.73,283.87,451.43,282.89,451.48Z" transform="translate(-4.54 -22.34)" fill="#68e1fd"/><path d="M260,457.59a3.53,3.53,0,0,0-2.65.34,3.12,3.12,0,0,1-.47.34,2.07,2.07,0,0,1-.66.1,2.55,2.55,0,0,0-2,1.84,4.67,4.67,0,0,0,.16,2.86,2.41,2.41,0,0,0,.65,1.1,2.58,2.58,0,0,0,1,.45,25.39,25.39,0,0,0,4.6.67,3.91,3.91,0,0,0,2.76-.51,4,4,0,0,0,1.09-3,7.46,7.46,0,0,0-.08-2.54C263.71,456.69,261.89,457.84,260,457.59Z" transform="translate(-4.54 -22.34)" fill="#606161"/><path d="M283.76,457.59a3.57,3.57,0,0,0-2.66.34,2.69,2.69,0,0,1-.47.34,2,2,0,0,1-.65.1,2.56,2.56,0,0,0-2.05,1.84,4.6,4.6,0,0,0,.17,2.86,2.41,2.41,0,0,0,.65,1.1,2.52,2.52,0,0,0,1,.45,25.28,25.28,0,0,0,4.59.67,3.93,3.93,0,0,0,2.77-.51,4,4,0,0,0,1.09-3,8,8,0,0,0-.08-2.54C287.47,456.69,285.66,457.84,283.76,457.59Z" transform="translate(-4.54 -22.34)" fill="#606161"/><path d="M300.37,225.31l2.69,0a14,14,0,0,0,1-6.71c-.17-1.73-.34-4.06,1.31-4.62a3.26,3.26,0,0,1,2,.14c2.94.89,5.94,2.37,7.4,5.07s1,6.29.52,9.47a7.42,7.42,0,0,1-1.66,4.19C308.07,238.26,302.05,229.44,300.37,225.31Z" transform="translate(-4.54 -22.34)" fill="url(#linear-gradient-11)"/><path d="M298.32,317.57a91,91,0,0,0,12.61-30.12c3.56-16.26,2.6-33.18,4.9-49.67a8.15,8.15,0,0,0-.08-4c-1.14-3.08-5.24-3.52-8.52-3.45a6.53,6.53,0,0,0-3.1.58c-1.62.92-2.14,3-2.46,4.82-2.28,13.15-2.55,26.69-6.19,39.54-1.3,4.62-3.05,9.2-3.17,14a41.79,41.79,0,0,0,1.23,9.62c1,4.91,2.18,10.09,5.64,13.72" transform="translate(-4.54 -22.34)" fill="#68e1fd"/><path d="M276.4,249.83a16.37,16.37,0,0,1,12.77,11.28c1.49,5.07.41,10.5.7,15.77a30.2,30.2,0,0,0,3.44,12.32,71.65,71.65,0,0,1,3.73,6.89,16.92,16.92,0,0,1-5.68,19.46c-2.86,2.05-6.29,3.12-9.44,4.7a32.14,32.14,0,0,0-10.55,8.51c-4.65.1-8-4.67-8.8-9.26s.18-9.3-.32-13.92c-.88-8-6.06-16-3.32-23.63,1.19-3.29,3.83-6.21,3.72-9.72-.2-6.05-6.41-9.6-2.53-16C263.06,251.47,271.2,249,276.4,249.83Z" transform="translate(-4.54 -22.34)" fill="#606161"/><path d="M276.4,249.83a16.37,16.37,0,0,1,12.77,11.28c1.49,5.07.41,10.5.7,15.77a30.2,30.2,0,0,0,3.44,12.32,71.65,71.65,0,0,1,3.73,6.89,16.92,16.92,0,0,1-5.68,19.46c-2.86,2.05-6.29,3.12-9.44,4.7a32.14,32.14,0,0,0-10.55,8.51c-4.65.1-8-4.67-8.8-9.26s.18-9.3-.32-13.92c-.88-8-6.06-16-3.32-23.63,1.19-3.29,3.83-6.21,3.72-9.72-.2-6.05-6.41-9.6-2.53-16C263.06,251.47,271.2,249,276.4,249.83Z" transform="translate(-4.54 -22.34)" fill="url(#linear-gradient-12)"/><path d="M257.43,312.7l-2.6,44.49s-.34.21-.93.52c-2.16-1.94-4.22-3.82-5.45-5.14-3.36-3.58-3.61-9.16-2.56-14s3.14-9.4,3.76-14.3c1.26-10.08-2.16-25.67,4.62-34.58C255.72,291.34,257.83,306.47,257.43,312.7Z" transform="translate(-4.54 -22.34)" fill="url(#linear-gradient-13)"/></svg>