<svg id="Layer_1" data-name="Layer 1" xmlns="http://www.w3.org/2000/svg" xmlns:xlink="http://www.w3.org/1999/xlink" width="650.93" height="595.22" viewBox="0 0 650.93 595.22">
  <defs>
    <linearGradient id="linear-gradient" x1="368.4" y1="320.32" x2="442.4" y2="320.32" gradientTransform="translate(-83.35 -173.71)" gradientUnits="userSpaceOnUse">
      <stop offset="0" stop-color="#ecc4d7"/>
      <stop offset="0.42" stop-color="#efd4d1"/>
      <stop offset="1" stop-color="#f2eac9"/>
    </linearGradient>
    <linearGradient id="linear-gradient-2" x1="197.49" y1="132.91" x2="-13.11" y2="101.37" gradientTransform="matrix(1, 0, 0, -1, -0.01, 597.99)" gradientUnits="userSpaceOnUse">
      <stop offset="0" stop-opacity="0"/>
      <stop offset="0.91" stop-opacity="0.8"/>
      <stop offset="1"/>
    </linearGradient>
    <linearGradient id="linear-gradient-3" x1="342.37" y1="196.06" x2="349.69" y2="84.56" gradientTransform="matrix(1, 0, 0, -1, 0.01, 598.01)" xlink:href="#linear-gradient-2"/>
    <linearGradient id="linear-gradient-4" x1="164.21" y1="236.91" x2="167.59" y2="304.86" gradientTransform="matrix(1, 0, 0, -1, -0.01, 597.99)" gradientUnits="userSpaceOnUse">
      <stop offset="0"/>
      <stop offset="0.98" stop-opacity="0"/>
    </linearGradient>
    <linearGradient id="linear-gradient-5" x1="241.94" y1="479.01" x2="244.34" y2="448.38" gradientTransform="translate(-83.35 -173.71)" xlink:href="#linear-gradient-4"/>
    <linearGradient id="linear-gradient-6" x1="129.24" y1="455.64" x2="129.77" y2="468.85" gradientTransform="translate(0 -172)" gradientUnits="userSpaceOnUse">
      <stop offset="0" stop-color="#68e1fd"/>
      <stop offset="0.34" stop-color="#68d4f7"/>
      <stop offset="1" stop-color="#69b9eb"/>
    </linearGradient>
    <linearGradient id="linear-gradient-7" x1="186.71" y1="453.93" x2="187.35" y2="469.58" xlink:href="#linear-gradient-6"/>
    <linearGradient id="linear-gradient-8" x1="243.21" y1="471.46" x2="226.18" y2="500.35" gradientTransform="translate(-83.35 -173.71)" xlink:href="#linear-gradient-4"/>
    <linearGradient id="linear-gradient-9" x1="247.34" y1="473.9" x2="230.31" y2="502.78" gradientTransform="translate(-83.35 -173.71)" xlink:href="#linear-gradient-4"/>
    <linearGradient id="linear-gradient-10" x1="251.38" y1="476.27" x2="234.35" y2="505.16" gradientTransform="translate(-83.35 -173.71)" xlink:href="#linear-gradient-4"/>
    <linearGradient id="linear-gradient-11" x1="244.52" y1="472.23" x2="227.5" y2="501.12" gradientTransform="translate(-83.35 -173.71)" xlink:href="#linear-gradient-4"/>
    <linearGradient id="linear-gradient-12" x1="248.65" y1="474.68" x2="231.62" y2="503.57" gradientTransform="translate(-83.35 -173.71)" xlink:href="#linear-gradient-4"/>
    <linearGradient id="linear-gradient-13" x1="252.69" y1="477.04" x2="235.66" y2="505.93" gradientTransform="translate(-83.35 -173.71)" xlink:href="#linear-gradient-4"/>
    <linearGradient id="linear-gradient-14" x1="246.11" y1="473.17" x2="229.08" y2="502.06" gradientTransform="translate(-83.35 -173.71)" xlink:href="#linear-gradient-4"/>
    <linearGradient id="linear-gradient-15" x1="250.24" y1="475.61" x2="233.21" y2="504.5" gradientTransform="translate(-83.35 -173.71)" xlink:href="#linear-gradient-4"/>
    <linearGradient id="linear-gradient-16" x1="254.28" y1="477.99" x2="237.25" y2="506.87" gradientTransform="translate(-83.35 -173.71)" xlink:href="#linear-gradient-4"/>
    <linearGradient id="linear-gradient-17" x1="367.67" y1="338.41" x2="376.11" y2="182.99" xlink:href="#linear-gradient-2"/>
    <linearGradient id="linear-gradient-18" x1="414.04" y1="497.68" x2="470.91" y2="497.68" xlink:href="#linear-gradient"/>
    <linearGradient id="linear-gradient-19" x1="590.74" y1="410.05" x2="638.32" y2="410.05" xlink:href="#linear-gradient"/>
    <linearGradient id="linear-gradient-20" x1="406.11" y1="339.09" x2="410.98" y2="392.99" xlink:href="#linear-gradient"/>
    <linearGradient id="linear-gradient-21" x1="405.04" y1="357.63" x2="370.96" y2="439.71" gradientTransform="translate(-83.35 -173.71)" gradientUnits="userSpaceOnUse">
      <stop offset="0" stop-color="#ecc4d7"/>
      <stop offset="0.27" stop-color="#ecc6d6"/>
      <stop offset="0.37" stop-color="#eecdd4"/>
      <stop offset="0.42" stop-color="#efd4d1"/>
      <stop offset="1" stop-color="#f2eac9"/>
    </linearGradient>
    <linearGradient id="linear-gradient-22" x1="405.9" y1="296.84" x2="435.12" y2="355.96" xlink:href="#linear-gradient"/>
    <linearGradient id="linear-gradient-23" x1="292.33" y1="315.26" x2="233.39" y2="279.22" gradientTransform="matrix(1, 0, 0, -1, 0.01, 598.01)" xlink:href="#linear-gradient-2"/>
    <linearGradient id="linear-gradient-24" x1="342.67" y1="284.71" x2="317.48" y2="273.02" xlink:href="#linear-gradient-2"/>
    <linearGradient id="linear-gradient-25" x1="463.88" y1="326.18" x2="143.36" y2="297.85" xlink:href="#linear-gradient-2"/>
    <linearGradient id="linear-gradient-26" x1="322.62" y1="407.08" x2="320.75" y2="336.88" xlink:href="#linear-gradient-2"/>
  </defs>
  <title>receptionist-2</title>
  <rect x="149.17" y="289.49" width="20.17" height="12.54" fill="#68e1fd"/>
  <path d="M32.39,545c-5,1.47-11.23,5.26-9.46,10.17.84,2.35,3.3,3.66,5.58,4.69a133.41,133.41,0,0,0,61.31,11.51,62,62,0,0,0-35.24,16.73c30.11,6.58,61.21,6.77,92,6.89q117.49.43,235,.06c48.37-.16,96.76-.42,145.09-2.5,32.73-1.41,65.77-3.72,97.1-13.3,12.3-3.75,26.23-11.12,27.15-24l-29.8-8.83c-1.94-.58-4.13-1.37-4.88-3.26-1.4-3.5,3.3-6.54,3.73-10.29.56-5-6-7.29-10.93-7.75-57.76-5.36-115.88.69-173.85,3-71.88,2.8-143.83-.23-215.58-4.7C155.42,519.41,94.7,526.72,32.39,545Z" transform="translate(0.01 0.01)" fill="#68e1fd" opacity="0.18" style="isolation: isolate"/>
  <path d="M266.53,120.55c-2,17.67,4.87,36.48-2,52.86-1.8,4.28-4.19,10-.56,12.85a7.8,7.8,0,0,0,4.2,1.36,23,23,0,0,0,17.59-6.08c.39,2.56,3.19,4.17,5.79,4.23s5.07-1,7.54-1.79c12.69-4.09,26.43-1.68,39.59.43,6.1,1,12.89,1.74,18-1.76a38.07,38.07,0,0,0,32.43-.34c-1.42-5.59-6.59-9.43-9-14.67-1.82-4-1.93-8.53-2-12.91q-.24-13.12-.47-26.25c-.19-10.4-.51-21.29-5.62-30.34-4.51-8-10.48-31.1-49.25-31.1C278.45,67,268.07,106.88,266.53,120.55Z" transform="translate(0.01 0.01)" fill="#3f3d56"/>
  <path d="M285.37,143.57c1.22,4.83,5.17,8.63,9.68,10.77s9.54,2.84,14.5,3.3c13.88,1.29,28.47.72,40.85-5.7,4.78-2.48,9.67-7.12,8.47-12.38a4.19,4.19,0,0,0-2.39-3.11,5.54,5.54,0,0,0-2.56-.12c-13.63,1.44-27.32,3.31-41.07,2.81-6.48-.24-13.57-.68-19.75-2.83-2.35-.82-3.28-2.16-5.74-.5S284.72,141,285.37,143.57Z" transform="translate(0.01 0.01)" fill="url(#linear-gradient)"/>
  <path d="M285.29,100.29a12.42,12.42,0,0,0-4.26,7,27.27,27.27,0,0,0-.43,8.31,27.74,27.74,0,0,0,1.49,7.92,33.64,33.64,0,0,0,4.36,7.47q2.13,3,4.31,6c1.1-3.19,3.19-6,4.34-9.13a59.66,59.66,0,0,0,1.72-7.22c.93-4.12,2.53-8.11,3-12.32.29-2.71.84-9.59-2.66-10.35C293.43,97.15,288.32,98,285.29,100.29Z" transform="translate(0.01 0.01)" fill="#3f3d56"/>
  <path d="M592.74,355.75l-10.09,78.14-2.41,18.4-10.59,81.49a19.32,19.32,0,0,1-19.32,19.31H137.91a19.32,19.32,0,0,1-19.26-19.31l-10-81.5-2.26-18.39-9.74-78.14A19.32,19.32,0,0,1,116,336.43H573.43A19.32,19.32,0,0,1,592.74,355.75Z" transform="translate(0.01 0.01)" fill="#68e1fd"/>
  <path d="M592.74,355.75l-10.09,78.14-2.41,18.4-10.59,81.49a19.32,19.32,0,0,1-19.32,19.31H137.91a19.32,19.32,0,0,1-19.26-19.31l-10-81.5-2.26-18.39-9.74-78.14A19.32,19.32,0,0,1,116,336.43H573.43A19.32,19.32,0,0,1,592.74,355.75Z" transform="translate(0.01 0.01)" fill="url(#linear-gradient-2)"/>
  <path d="M592.74,355.75l-10.09,78.14-2.41,18.4-10.59,81.49a19.32,19.32,0,0,1-19.32,19.31H203.25A19.33,19.33,0,0,1,184,533.78l-10-81.5-2.29-18.39-9.61-78.14a19.32,19.32,0,0,1,19.31-19.32h392A19.32,19.32,0,0,1,592.74,355.75Z" transform="translate(0.01 0.01)" fill="#68e1fd"/>
  <polygon points="582.63 433.89 580.25 452.3 108.56 452.3 106.31 433.89 582.63 433.89" fill="url(#linear-gradient-3)"/>
  <path d="M194,325.13v11.3H128.26v-11.3A23.11,23.11,0,0,1,151.34,302h19.57a23.1,23.1,0,0,1,23.1,23.1h0Z" transform="translate(0.01 0.01)" fill="#68e1fd"/>
  <path d="M194,325.13v11.3H137.33s-.87-7.31,1.22-18.61,16-15.8,16-15.8V289.47h14.81V302H171A23.11,23.11,0,0,1,194,325.13Z" transform="translate(0.01 0.01)" fill="url(#linear-gradient-4)"/>
  <path d="M194.89,284.65v9.73l-5.56-1.89-9.91-3.38v-3.82H137.33v3.81l-7.27,2.48-8.2,2.78v-9.73a15.52,15.52,0,0,1,15.52-15.52h42a15.52,15.52,0,0,1,15.52,15.52Z" transform="translate(0.01 0.01)" fill="#68e1fd"/>
  <path d="M189.33,290.49v2l-9.91-3.38v-3.82H137.33v3.81l-7.27,2.48v-1.09a12.59,12.59,0,0,1,12.59-12.59h34.08a12.59,12.59,0,0,1,12.59,12.59Z" transform="translate(0.01 0.01)" fill="url(#linear-gradient-5)"/>
  <polygon points="137.34 289.13 137.34 291.57 121.86 296.63 121.86 294.39 137.34 289.13" fill="url(#linear-gradient-6)"/>
  <path d="M144.57,291.89a3.75,3.75,0,0,1-2.49,3.53l-21.37,7.71a3.76,3.76,0,0,1-4.81-2.27h0v-.05l-.12-.39a3.74,3.74,0,0,1,2.32-4.75h0l3.76-1.28,15.47-5.26,2.28-.78a3.76,3.76,0,0,1,4.73,2.28A3.6,3.6,0,0,1,144.57,291.89Z" transform="translate(0.01 0.01)" fill="#68e1fd"/>
  <polygon points="194.91 294.39 194.91 296.63 179.41 291.57 179.41 289.13 194.91 294.39" fill="url(#linear-gradient-7)"/>
  <path d="M201,300.42l-.14.39a3.74,3.74,0,0,1-4.74,2.35H196l-21.39-7.71a3.72,3.72,0,0,1-2.47-3.53,3.94,3.94,0,0,1,.22-1.27,3.79,3.79,0,0,1,4.74-2.28l2.27.77,15.47,5.27,3.77,1.28a3.74,3.74,0,0,1,2.35,4.74h0Z" transform="translate(0.01 0.01)" fill="#68e1fd"/>
  <path d="M171.65,318.56H149.16a3,3,0,0,1-3-3l3.82-8.48a3,3,0,0,1,3-3h13.35a3,3,0,0,1,3,3l5.3,8.48A3,3,0,0,1,171.65,318.56Z" transform="translate(0.01 0.01)" fill="#68e1fd"/>
  <path d="M155.65,307.78h-2.22a1,1,0,0,1-1-1h0a1,1,0,0,1,1-1h2.22a1,1,0,0,1,1,1h0A1,1,0,0,1,155.65,307.78Z" transform="translate(0.01 0.01)" fill="url(#linear-gradient-8)"/>
  <path d="M161.16,307.78H159a1,1,0,0,1-1-1h0a1,1,0,0,1,1-1h2.22a1,1,0,0,1,1,1h0a1,1,0,0,1-1,1Z" transform="translate(0.01 0.01)" fill="url(#linear-gradient-9)"/>
  <path d="M166.65,307.78h-2.22a1,1,0,0,1-1-1h0a1,1,0,0,1,1-1h2.22a1,1,0,0,1,1,1h0A1,1,0,0,1,166.65,307.78Z" transform="translate(0.01 0.01)" fill="url(#linear-gradient-10)"/>
  <path d="M155.65,310.78h-2.22a1,1,0,0,1-1-1h0a1,1,0,0,1,1-1h2.22a1,1,0,0,1,1,1h0A1,1,0,0,1,155.65,310.78Z" transform="translate(0.01 0.01)" fill="url(#linear-gradient-11)"/>
  <path d="M161.16,310.78H159a1,1,0,0,1-1-1h0a1,1,0,0,1,1-1h2.22a1,1,0,0,1,1,1h0a1,1,0,0,1-1,1Z" transform="translate(0.01 0.01)" fill="url(#linear-gradient-12)"/>
  <path d="M166.65,310.78h-2.22a1,1,0,0,1-1-1h0a1,1,0,0,1,1-1h2.22a1,1,0,0,1,1,1h0A1,1,0,0,1,166.65,310.78Z" transform="translate(0.01 0.01)" fill="url(#linear-gradient-13)"/>
  <path d="M155.65,314.39h-2.22a1,1,0,0,1-1-1h0a1,1,0,0,1,1-.95h2.22a1,1,0,0,1,1,.95h0A1,1,0,0,1,155.65,314.39Z" transform="translate(0.01 0.01)" fill="url(#linear-gradient-14)"/>
  <path d="M161.16,314.39H159a1,1,0,0,1-1-1h0a1,1,0,0,1,1-.95h2.22a1,1,0,0,1,1,.95h0a1,1,0,0,1-1,1Z" transform="translate(0.01 0.01)" fill="url(#linear-gradient-15)"/>
  <path d="M166.65,314.39h-2.22a1,1,0,0,1-1-1h0a1,1,0,0,1,1-.95h2.22a1,1,0,0,1,1,.95h0A1,1,0,0,1,166.65,314.39Z" transform="translate(0.01 0.01)" fill="url(#linear-gradient-16)"/>
  <path d="M248.33,336.44a25.77,25.77,0,0,1-25.07-31.74l16.58-69.62s7.68-34.09,30.81-38.49l98.11-.3s18.75-1.76,30.57,27.46c2.89,7.15,28.9,43.78,39,39.65l57-25.56s4.52-5,10.26,1.23,19.79,15.52-2.61,30.59c-29,19.52-71.46,33.71-71.46,33.71s-7.92,3.61-17.79-3.61-20.82-14.57-20.82-14.57l-16.74,51.25Z" transform="translate(0.01 0.01)" fill="#68e1fd"/>
  <path d="M503,269.66c-29,19.52-71.46,33.71-71.46,33.71s-7.92,3.61-17.79-3.61-20.82-14.57-20.82-14.57l-16.74,51.25H248.33a25.77,25.77,0,0,1-25.07-31.74l16.58-69.62s7.68-34.09,30.81-38.49l98.11-.3s18.75-1.76,30.57,27.46c2.89,7.15,28.9,43.78,39,39.65l57-25.56s4.52-5,10.26,1.23c2.7,2.94,7.25,6.55,9,11.13C516.48,255.34,514.83,261.69,503,269.66Z" transform="translate(0.01 0.01)" fill="url(#linear-gradient-17)"/>
  <path d="M338.12,314.11a70.05,70.05,0,0,1,14.39-2.35c4.87-.1,9.9.9,13.89,3.69a2.83,2.83,0,0,1-2.59,1.83c4.12.15,8,1.79,11.8,3.39l10.82,4.6a2.34,2.34,0,0,1,.84.51c.84.92-.29,2.42-1.51,2.72s-2.58.07-3.66.71a4.71,4.71,0,0,1,4.54,1.34c-7.36,5.36-17.13,5.62-26.23,5.64-8.7,0-17.4,0-26.09-.44a4,4,0,0,1-3.05-1,4.09,4.09,0,0,1-.48-3c.44-4.34.67-8.75,1.33-13.06C332.65,315.36,334.56,314.11,338.12,314.11Z" transform="translate(0.01 0.01)" fill="url(#linear-gradient-18)"/>
  <path d="M498.8,237.63l4.72-2.83a7.14,7.14,0,0,1,9.29,1.71c2.93,3.71,6.21,9.12,5.72,14.31-.87,9.17-10,9.62-10,9.62S496.91,249.85,498.8,237.63Z" transform="translate(0.01 0.01)" fill="#68e1fd"/>
  <path d="M516.42,231.88l17.84-9.41a6.9,6.9,0,0,1-4.15,6.36c7.15-1.55,14.49-3.17,20.59-7.22,1.29-.86,2.92-1.86,4.27-1.08a16.1,16.1,0,0,1-4.32,6.76l3-2.37c.41.83-.13,1.79-.67,2.54a51.93,51.93,0,0,1-5.59,6.53,5.52,5.52,0,0,1,2.88-.78,25.43,25.43,0,0,1-2.3,3.9,36.87,36.87,0,0,1-34.78,15,6.44,6.44,0,0,1-2.35-.69,5.49,5.49,0,0,1-1.9-2.1,12.33,12.33,0,0,1-.33-11.35C510,235.2,513.79,233.29,516.42,231.88Z" transform="translate(0.01 0.01)" fill="url(#linear-gradient-19)"/>
  <path d="M300.43,202.48c5.39,4.45,11.07,8.68,17.54,11.34s13.83,3.64,20.48,1.49c9-2.91,15.21-10.85,20.76-18.46-5.4-.76-10.16-4.2-13.44-8.56s-5.23-9.55-6.7-14.8c-.84-3-1.59-6.17-3.58-8.58-2.32-2.79-6-4.14-9.55-4.72a14.73,14.73,0,0,0-8.41.71c-5.56,2.53-7.34,9.33-9.76,14.94a42.56,42.56,0,0,1-11,15.08c-1.89,1.66-5.79,3.12-4.67,5.62C292.92,198.4,298.75,201.09,300.43,202.48Z" transform="translate(0.01 0.01)" fill="url(#linear-gradient-20)"/>
  <path d="M307.77,175.84s3.86,17.13,17.78,16.87,15-14.63,15-14.63Z" transform="translate(0.01 0.01)" fill="url(#linear-gradient-21)"/>
  <path d="M300,161.68c3.53,7.42,8,14.46,14.25,19,36,26.37,45.45-61.71,44.28-65.85-1.47-5.25-3-10.66-6.27-14.72a25,25,0,0,0-9.35-6.82,45.26,45.26,0,0,0-32.2-2,27.74,27.74,0,0,0-9.41,4.7c-4.46,3.59-7.49,9.16-9.2,15C286.92,128.55,292.65,146.29,300,161.68Z" transform="translate(0.01 0.01)" fill="url(#linear-gradient-22)"/>
  <path d="M321.29,98.6c11.13,5.29,13.51,21.79,24.87,26.57a22.06,22.06,0,0,0,7.61,1.49,39,39,0,0,0,10.44-1c-1-10.56,1.76-21.58-1.59-31.65-2.46-7.4-8.49-12.94-15-17.17-4.13-2.67-13.88-4.64-22.63-4.55a32.42,32.42,0,0,0-20.16,7c-5.59,4.6-9.09,12.1-7.66,19.2,4.41-1.16,8.45-.88,12.9-1C314.08,97.45,317.4,96.75,321.29,98.6Z" transform="translate(0.01 0.01)" fill="#3f3d56"/>
  <polygon points="278.63 255.57 266.44 304.11 311.08 306.82 278.63 255.57" fill="url(#linear-gradient-23)"/>
  <path d="M327.21,311.5c2.1,3.12,2.66,7.08,2.4,10.84a85.5,85.5,0,0,1-2,11.12c-.21,1-.29,2.29.58,2.83a2.25,2.25,0,0,0,2.46-.49c3.18-2.44,3.94-6.82,4.48-10.79.39-2.89.74-6-.54-8.58-1.1-2.24-3.23-3.76-5.27-5.19-2.74-1.91-5.68-4-9-4.69C322.9,308,325.46,308.9,327.21,311.5Z" transform="translate(0.01 0.01)" fill="#68e1fd"/>
  <path d="M327.21,311.5c2.1,3.12,2.66,7.08,2.4,10.84a85.5,85.5,0,0,1-2,11.12c-.21,1-.29,2.29.58,2.83a2.25,2.25,0,0,0,2.46-.49c3.18-2.44,3.94-6.82,4.48-10.79.39-2.89.74-6-.54-8.58-1.1-2.24-3.23-3.76-5.27-5.19-2.74-1.91-5.68-4-9-4.69C322.9,308,325.46,308.9,327.21,311.5Z" transform="translate(0.01 0.01)" fill="url(#linear-gradient-24)"/>
  <circle cx="539.67" cy="72.28" r="59.4" fill="#68e1fd"/>
  <circle cx="539.67" cy="72.28" r="43.82" fill="#fff"/>
  <path d="M565.83,78.08H537.18a2.39,2.39,0,0,1-2.39-2.37h0a2.39,2.39,0,0,1,2.37-2.41h28.67a2.39,2.39,0,0,1,2.39,2.39h0a2.39,2.39,0,0,1-2.36,2.4Z" transform="translate(0.01 0.01)" fill="#3f3d56"/>
  <path d="M539.57,47V75.7a2.4,2.4,0,0,1-2.38,2.38h0a2.39,2.39,0,0,1-2.39-2.37h0V47a2.39,2.39,0,0,1,2.39-2.38h0A2.4,2.4,0,0,1,539.57,47Z" transform="translate(0.01 0.01)" fill="#3f3d56"/>
  <path d="M193.4,136.77H0V0H193.4ZM10.19,126.57h173V10.19h-173Z" transform="translate(0.01 0.01)" fill="#68e1fd"/>
  <rect x="46.57" y="40.85" width="15.65" height="62.93" fill="#68e1fd"/>
  <rect x="73.19" y="75.09" width="15.65" height="28.69" fill="#68e1fd"/>
  <rect x="99.78" y="57.05" width="15.65" height="46.73" fill="#68e1fd"/>
  <rect x="126.39" y="40.85" width="15.65" height="62.93" fill="#68e1fd"/>
  <rect x="39.28" y="103.78" width="113.2" height="3.13" fill="#68e1fd"/>
  <path d="M503,269.66c-29,19.52-71.46,33.71-71.46,33.71s-7.92,3.61-17.79-3.61-20.82-14.57-20.82-14.57,3.67-14.53-6.47-35.74c0,0,28.71,36.84,34.92,38.7,28.25,8.46,87.58-38.83,87.58-38.83l5.62.88C516.48,255.34,514.83,261.69,503,269.66Z" transform="translate(0.01 0.01)" fill="url(#linear-gradient-25)"/>
  <path d="M284,196.27l12.81-5.35s26.79,34.5,42.56,21.36,15.2-19.57,15.2-19.57l6.38,3.8s-3.19,23.47-24.4,24S284,196.27,284,196.27Z" transform="translate(0.01 0.01)" fill="#68e1fd"/>
  <path d="M284,196.27l12.81-5.35s26.79,34.5,42.56,21.36,15.2-19.57,15.2-19.57l6.38,3.8s-8.4,26.42-29.61,27S284,196.27,284,196.27Z" transform="translate(0.01 0.01)" fill="url(#linear-gradient-26)"/>
</svg>
