<svg id="Layer_1" data-name="Layer 1" xmlns="http://www.w3.org/2000/svg" xmlns:xlink="http://www.w3.org/1999/xlink" viewBox="0 0 314.2 249.57"><defs><linearGradient id="linear-gradient" x1="158.59" y1="147.86" x2="172.61" y2="147.86" gradientUnits="userSpaceOnUse"><stop offset="0.01"/><stop offset="0.13" stop-opacity="0.69"/><stop offset="1" stop-opacity="0"/></linearGradient><linearGradient id="linear-gradient-2" x1="122.29" y1="201.38" x2="228.16" y2="201.38" xlink:href="#linear-gradient"/><linearGradient id="linear-gradient-3" x1="218" y1="213.6" x2="268.31" y2="244.01" gradientUnits="userSpaceOnUse"><stop offset="0.01" stop-color="#fff"/><stop offset="0.13" stop-color="#fff" stop-opacity="0.69"/><stop offset="1" stop-color="#fff" stop-opacity="0"/></linearGradient><linearGradient id="linear-gradient-4" x1="235.77" y1="206.47" x2="257.16" y2="206.47" xlink:href="#linear-gradient"/><linearGradient id="linear-gradient-5" x1="152.5" y1="208.03" x2="171.49" y2="208.03" xlink:href="#linear-gradient"/><linearGradient id="linear-gradient-6" x1="175.6" y1="211.91" x2="189.37" y2="211.91" xlink:href="#linear-gradient"/><linearGradient id="linear-gradient-7" x1="136.06" y1="188.11" x2="265.02" y2="188.11" xlink:href="#linear-gradient"/><linearGradient id="linear-gradient-8" x1="197.38" y1="237.87" x2="194.57" y2="139.89" xlink:href="#linear-gradient"/><linearGradient id="linear-gradient-9" x1="115.44" y1="134.15" x2="119.85" y2="127.02" xlink:href="#linear-gradient"/><linearGradient id="linear-gradient-10" x1="233.32" y1="190.13" x2="262.4" y2="190.13" xlink:href="#linear-gradient"/><linearGradient id="linear-gradient-11" x1="238.32" y1="196.56" x2="262.96" y2="196.56" xlink:href="#linear-gradient"/><linearGradient id="linear-gradient-12" x1="197.11" y1="228.49" x2="195.14" y2="159.95" xlink:href="#linear-gradient"/><linearGradient id="linear-gradient-13" x1="214.77" y1="193.59" x2="192.39" y2="186.84" xlink:href="#linear-gradient"/><linearGradient id="linear-gradient-14" x1="143.18" y1="198.3" x2="168.57" y2="198.3" xlink:href="#linear-gradient"/><linearGradient id="linear-gradient-15" x1="187.26" y1="200.57" x2="165.72" y2="178.32" xlink:href="#linear-gradient"/><linearGradient id="linear-gradient-16" x1="179.1" y1="232.19" x2="175.02" y2="204.59" xlink:href="#linear-gradient"/><linearGradient id="linear-gradient-17" x1="206.45" y1="232.94" x2="217.9" y2="164.24" xlink:href="#linear-gradient"/><linearGradient id="linear-gradient-18" x1="210.73" y1="206.81" x2="254.27" y2="165.89" xlink:href="#linear-gradient"/><linearGradient id="linear-gradient-19" x1="133.96" y1="164.38" x2="134.99" y2="151.8" xlink:href="#linear-gradient"/><linearGradient id="linear-gradient-20" x1="196.25" y1="164.05" x2="203.29" y2="140.4" xlink:href="#linear-gradient"/><linearGradient id="linear-gradient-21" x1="155.97" y1="122.42" x2="177.8" y2="122.42" xlink:href="#linear-gradient"/><linearGradient id="linear-gradient-22" x1="163.28" y1="92.14" x2="180.36" y2="92.14" xlink:href="#linear-gradient"/><linearGradient id="linear-gradient-23" x1="142.87" y1="66.18" x2="159.03" y2="66.18" xlink:href="#linear-gradient"/><linearGradient id="linear-gradient-24" x1="178.61" y1="122.33" x2="183.41" y2="122.33" xlink:href="#linear-gradient"/><linearGradient id="linear-gradient-25" x1="4298.7" y1="2918.98" x2="4301.78" y2="2918.98" gradientTransform="translate(-3263.1 4018.92) rotate(-82.64)" xlink:href="#linear-gradient"/><linearGradient id="linear-gradient-26" x1="2841.31" y1="799.87" x2="2845.01" y2="799.87" gradientTransform="translate(-2446.06 1459.16) rotate(-42.61)" xlink:href="#linear-gradient"/><linearGradient id="linear-gradient-27" x1="2823.56" y1="799.2" x2="2827.26" y2="799.2" gradientTransform="translate(-2446.06 1459.16) rotate(-42.61)" xlink:href="#linear-gradient"/><linearGradient id="linear-gradient-28" x1="2830.77" y1="811.32" x2="2834.47" y2="811.32" gradientTransform="translate(-2446.06 1459.16) rotate(-42.61)" xlink:href="#linear-gradient"/><linearGradient id="linear-gradient-29" x1="234.9" y1="133.66" x2="238.81" y2="133.66" xlink:href="#linear-gradient"/><linearGradient id="linear-gradient-30" x1="4274.48" y1="2957.83" x2="4276.98" y2="2957.83" gradientTransform="translate(-3263.1 4018.92) rotate(-82.64)" xlink:href="#linear-gradient"/><linearGradient id="linear-gradient-31" x1="2875.28" y1="861.89" x2="2878.29" y2="861.89" gradientTransform="translate(-2446.06 1459.16) rotate(-42.61)" xlink:href="#linear-gradient"/><linearGradient id="linear-gradient-32" x1="2860.82" y1="861.35" x2="2863.83" y2="861.35" gradientTransform="translate(-2446.06 1459.16) rotate(-42.61)" xlink:href="#linear-gradient"/><linearGradient id="linear-gradient-33" x1="2866.7" y1="871.22" x2="2869.71" y2="871.22" gradientTransform="translate(-2446.06 1459.16) rotate(-42.61)" xlink:href="#linear-gradient"/><linearGradient id="linear-gradient-34" x1="154.92" y1="104.47" x2="160.97" y2="104.47" xlink:href="#linear-gradient"/><linearGradient id="linear-gradient-35" x1="-1841.23" y1="6572.34" x2="-1837.12" y2="6572.34" gradientTransform="translate(4105.71 5756.04) rotate(130.01)" xlink:href="#linear-gradient"/><linearGradient id="linear-gradient-36" x1="-506.31" y1="7420.19" x2="-503.85" y2="7420.19" gradientTransform="translate(2960.6 7026.45) rotate(154.54)" xlink:href="#linear-gradient"/><linearGradient id="linear-gradient-37" x1="4300.19" y1="4938.73" x2="4302.65" y2="4938.73" gradientTransform="translate(-2539.45 6067.15) rotate(-114.14)" xlink:href="#linear-gradient"/><linearGradient id="linear-gradient-38" x1="136.16" y1="7574.99" x2="140.9" y2="7574.99" gradientTransform="translate(2443.35 7338.88) rotate(163.94)" xlink:href="#linear-gradient"/><linearGradient id="linear-gradient-39" x1="-2734.47" y1="2536.8" x2="-2729.73" y2="2536.8" gradientTransform="translate(3642.96 1418.89) rotate(62.8)" xlink:href="#linear-gradient"/><linearGradient id="linear-gradient-40" x1="161.99" y1="151.07" x2="170.93" y2="139.66" xlink:href="#linear-gradient"/><linearGradient id="linear-gradient-41" x1="159.56" y1="148.42" x2="167" y2="148.42" xlink:href="#linear-gradient"/></defs><title>30</title><path d="M153.38,42.94c-21.2,4.63-41.56,14.82-56.09,31-7.72,8.57-13.78,18.91-16,30.24-1.81,9.48-.87,19.24-1.43,28.87a93.23,93.23,0,0,1-10.28,37.36c-7.26,14-18.26,26.62-20.5,42.2-1,7.2-.08,14.56,1.62,21.63,4.26,17.77,13.89,35,29.46,44.57,12.73,7.82,28.2,9.87,43.15,9.75,36.2-.29,71.39-12.2,107.53-14.31,30.45-1.78,62.9,3,89.95-11.06,9.79-5.11,18.23-12.45,26.09-20.21s16-17.43,16-28.67c0-7.17-3.27-13.87-6.47-20.28-10.93-21.86-22-44-38.32-62.24-6.18-6.91-13.13-13.29-17.76-21.33-8.82-15.31-8.72-35.66-21.39-48S238.84,45.54,222,41.94C200.65,37.37,174.63,38.31,153.38,42.94Z" transform="translate(-48.7 -38.95)" fill="#68e1fd" opacity="0.18" style="isolation:isolate"/><path d="M190.86,202.85c-22.67,1.47-45.5-1.11-68.1,1.13S76.7,214.27,62.87,232.29a10.15,10.15,0,0,0-2.1,4c-.65,3.33,1.86,6.42,4.45,8.61,14.43,12.19,34.87,13.39,53.74,14l129.78,4.35c27.31.91,56.38,1.4,79.77-12.74,7-4.22,13.59-10.25,15.24-18.24,7.45-36.15-52.47-26.33-70.14-34.1-11.13-4.89-16.81-9-29.53-6.39C226,195.44,209.59,201.64,190.86,202.85Z" transform="translate(-48.7 -38.95)" fill="#68e1fd" opacity="0.18" style="isolation:isolate"/><path d="M171.74,144.17c1.33,1.63.87,4.27.31,6.08a6.57,6.57,0,0,1-.49,1.23,4.87,4.87,0,0,1-.73,1,7.1,7.1,0,0,1-5.85,2.05,8.6,8.6,0,0,1-5.5-3,3.39,3.39,0,0,1-.8-1.4,5.2,5.2,0,0,1,.2-2.62,2.88,2.88,0,0,1,1.54-1.77,14,14,0,0,0,1.34-.43c1.84-1,1.26-3.71,3.71-4C167.47,141,170.54,142.69,171.74,144.17Z" transform="translate(-48.7 -38.95)" fill="#68e1fd"/><path d="M171.74,144.17c1.33,1.63.87,4.27.31,6.08a6.57,6.57,0,0,1-.49,1.23,4.87,4.87,0,0,1-.73,1,7.1,7.1,0,0,1-5.85,2.05,8.6,8.6,0,0,1-5.5-3,3.39,3.39,0,0,1-.8-1.4,5.2,5.2,0,0,1,.2-2.62,2.88,2.88,0,0,1,1.54-1.77,14,14,0,0,0,1.34-.43c1.84-1,1.26-3.71,3.71-4C167.47,141,170.54,142.69,171.74,144.17Z" transform="translate(-48.7 -38.95)" fill="url(#linear-gradient)"/><ellipse cx="175.22" cy="201.38" rx="52.93" ry="8.87" fill="url(#linear-gradient-2)"/><path d="M265,188.08v.07c0,33.72-28.87,61-64.48,61-1.86,0-3.71-.07-5.53-.23-33-2.65-58.95-28.86-58.95-60.82v-.07c0-4.62,6.9-8.82,18.09-11.91,11.73-3.23,28.18-5.24,46.39-5.24C236.12,170.93,265,178.61,265,188.08Z" transform="translate(-48.7 -38.95)" fill="#68e1fd"/><path d="M265,188.08v.07c0,33.72-28.87,61-64.48,61-1.86,0-3.71-.07-5.53-.23-33-2.65-58.95-28.86-58.95-60.82v-.07c0-4.62,6.9-8.82,18.09-11.91,11.73-3.23,28.18-5.24,46.39-5.24C236.12,170.93,265,178.61,265,188.08Z" transform="translate(-48.7 -38.95)" fill="url(#linear-gradient-3)"/><path d="M241.2,206.45a5.73,5.73,0,0,1,1.65-.06c1.18.21,2,1.25,2.78,2.15a21.62,21.62,0,0,0,10.76,6.73c.25.06.56.1.7-.1a.62.62,0,0,0,.05-.48L255.77,206a30,30,0,0,0-1-4.8,4.58,4.58,0,0,0-.95-1.78,5.59,5.59,0,0,0-2.79-1.3,10.73,10.73,0,0,0-3.63-.5,10.1,10.1,0,0,0-3,.91c-2.24,1-7.39,2.38-8.34,4.85C234.75,206.64,239.17,206.67,241.2,206.45Z" transform="translate(-48.7 -38.95)" fill="url(#linear-gradient-4)"/><path d="M234,192.83v.07c0,25.13-16,46.71-39,56.07-33-2.65-58.95-28.86-58.95-60.82v-.07c0-4.62,6.9-8.82,18.09-11.91,4.91-.32,10-.49,15.33-.49C205.06,175.68,233.92,183.36,234,192.83Z" transform="translate(-48.7 -38.95)" fill="#fff"/><path d="M156,211.45l2.61,1.05a6.27,6.27,0,0,0,1.89.53,4.63,4.63,0,0,0,3.86-2.28,11,11,0,0,1,1.75-2.39c1.27-1.08,3.11-1.08,4.63-1.76a1.27,1.27,0,0,0,.72-.62,1.32,1.32,0,0,0-.49-1.31A5.79,5.79,0,0,0,166.5,203a21.19,21.19,0,0,0-2.7.55c-1.15.23-2.34.3-3.5.54-2.15.47-5.66,1.74-7.23,3.35C151.21,209.39,154.37,210.81,156,211.45Z" transform="translate(-48.7 -38.95)" fill="url(#linear-gradient-5)"/><path d="M185.88,209.15c-1,2.54.47,5.63-.75,8.09a4.78,4.78,0,0,1-6.3,1.79,6.54,6.54,0,0,1-3.23-6.1,10.62,10.62,0,0,1,3-6.5,7.2,7.2,0,0,1,1.5-1.31c1.66-1,3.76-.91,5.7-.72,1.24.12,4.42-.26,3.39,1.4C188.34,207.14,186.55,207.44,185.88,209.15Z" transform="translate(-48.7 -38.95)" fill="url(#linear-gradient-6)"/><path d="M265,188.08v.07c-.1,9.47-28.93,17.13-64.48,17.13s-64.38-7.66-64.48-17.13v-.07c0-9.47,28.9-17.15,64.48-17.15S265,178.61,265,188.08Z" transform="translate(-48.7 -38.95)" fill="#68e1fd"/><path d="M265,188.08v.07c-.1,9.47-28.93,17.13-64.48,17.13s-64.38-7.66-64.48-17.13v-.07c0-9.47,28.9-17.15,64.48-17.15S265,178.61,265,188.08Z" transform="translate(-48.7 -38.95)" fill="url(#linear-gradient-7)"/><path d="M172.43,161.21c-1.74-1.63-3.84-3.37-6.2-3s-3.8,2.49-4.95,4.5c-2.18-1.89-4.48-3.85-7.29-4.52s-6.27.43-7.28,3.14a8,8,0,0,1,2.46,6.27,94.68,94.68,0,0,0-27.23-1.7c7.27,8,14.94,16.3,25.07,20.11a21.46,21.46,0,0,0-14.91,3,13.2,13.2,0,0,0,6.68,5.95,25.7,25.7,0,0,0,4.73,1.23c4.17.82,8.43,1.63,12.63,1.06a6.88,6.88,0,0,1,3.55,0,6.29,6.29,0,0,1,2.16,1.89c3.3,3.84,8.24,7.13,13.14,5.86,1.72-.44,3.28-1.42,5-1.75a15.41,15.41,0,0,1,4.88.19,103,103,0,0,0,26.14.33,57,57,0,0,1,6.51-.57c5.56,0,11.18,2.05,16.58.7a33.57,33.57,0,0,1,4.38-1.14c4.27-.47,8.63,2.69,12.66,1.19a10.1,10.1,0,0,0,3.46-2.49A38.46,38.46,0,0,0,264,186.35c1-3.14,2-6.85,5.07-8.14L256.21,178a4.92,4.92,0,0,1-1.91-.31,4,4,0,0,1-1.55-1.51,13.07,13.07,0,0,1-1.33-11.74c.38-1,.84-2.3.06-3a2.29,2.29,0,0,0-1.61-.46,10.85,10.85,0,0,0-10.19,7.87l-3.88-10.87a2.06,2.06,0,0,0-.9-1.3c-.72-.33-1.51.24-2.06.8a22.51,22.51,0,0,0-5.9,10.68c-.28,1.17-.52,2.47-1.49,3.19-1.37,1-3.28.28-4.93-.16s-4,0-4.17,1.66a50.3,50.3,0,0,0-5.82-10l-4.4,7.1a1.94,1.94,0,0,1-1.1,1,1.89,1.89,0,0,1-1.44-.48,20.69,20.69,0,0,1-4-3.71l-4.7,6.49a12.18,12.18,0,0,1-3.91-3c-1.29-1.22-3-2.46-4.84-2.11-1.24.24-2.22,2-3.35,2.05C179.94,170.21,174.5,163.14,172.43,161.21Z" transform="translate(-48.7 -38.95)" fill="#68e1fd"/><path d="M172.43,161.21c-1.74-1.63-3.84-3.37-6.2-3s-3.8,2.49-4.95,4.5c-2.18-1.89-4.48-3.85-7.29-4.52s-6.27.43-7.28,3.14a8,8,0,0,1,2.46,6.27,94.68,94.68,0,0,0-27.23-1.7c7.27,8,14.94,16.3,25.07,20.11a21.46,21.46,0,0,0-14.91,3,13.2,13.2,0,0,0,6.68,5.95,25.7,25.7,0,0,0,4.73,1.23c4.17.82,8.43,1.63,12.63,1.06a6.88,6.88,0,0,1,3.55,0,6.29,6.29,0,0,1,2.16,1.89c3.3,3.84,8.24,7.13,13.14,5.86,1.72-.44,3.28-1.42,5-1.75a15.41,15.41,0,0,1,4.88.19,103,103,0,0,0,26.14.33,57,57,0,0,1,6.51-.57c5.56,0,11.18,2.05,16.58.7a33.57,33.57,0,0,1,4.38-1.14c4.27-.47,8.63,2.69,12.66,1.19a10.1,10.1,0,0,0,3.46-2.49A38.46,38.46,0,0,0,264,186.35c1-3.14,2-6.85,5.07-8.14L256.21,178a4.92,4.92,0,0,1-1.91-.31,4,4,0,0,1-1.55-1.51,13.07,13.07,0,0,1-1.33-11.74c.38-1,.84-2.3.06-3a2.29,2.29,0,0,0-1.61-.46,10.85,10.85,0,0,0-10.19,7.87l-3.88-10.87a2.06,2.06,0,0,0-.9-1.3c-.72-.33-1.51.24-2.06.8a22.51,22.51,0,0,0-5.9,10.68c-.28,1.17-.52,2.47-1.49,3.19-1.37,1-3.28.28-4.93-.16s-4,0-4.17,1.66a50.3,50.3,0,0,0-5.82-10l-4.4,7.1a1.94,1.94,0,0,1-1.1,1,1.89,1.89,0,0,1-1.44-.48,20.69,20.69,0,0,1-4-3.71l-4.7,6.49a12.18,12.18,0,0,1-3.91-3c-1.29-1.22-3-2.46-4.84-2.11-1.24.24-2.22,2-3.35,2.05C179.94,170.21,174.5,163.14,172.43,161.21Z" transform="translate(-48.7 -38.95)" fill="url(#linear-gradient-8)"/><circle cx="117.08" cy="131.51" r="6.58" fill="#68e1fd"/><circle cx="117.08" cy="131.51" r="6.58" fill="url(#linear-gradient-9)"/><path d="M256.29,187a2.13,2.13,0,0,1-.56.48,2.06,2.06,0,0,1-1,.14l-3.12,0a1.3,1.3,0,0,0-.73.14,1.23,1.23,0,0,0-.4.56,8.51,8.51,0,0,0-.65,4c1,0,1.73-.92,2.53-1.52,1.87-1.4,4.57-1.34,6.34-2.87.71-.62,1.24-1.47,2.1-1.85a1.09,1.09,0,0,1,.64-.11c.57.09.82.77.89,1.35a7.31,7.31,0,0,1-1,4.7l-6.19,6.33a11.8,11.8,0,0,1-6.52,4.34,26.4,26.4,0,0,1-7.83.89c-2.29,0-4.95-.3-6.19-2.22a7.24,7.24,0,0,1-.84-3.69l-.44-9.64a5,5,0,0,1,.1-1.64,5.22,5.22,0,0,1,2.32-2.58l6.65-4.63a12.36,12.36,0,0,1,3.09-1.73,12.49,12.49,0,0,1,3.22-.43c2.27-.1,4.54-.19,6.8-.07,2,.12,5.76,0,5.69,2.9C261.15,182.21,257.86,185.24,256.29,187Z" transform="translate(-48.7 -38.95)" fill="url(#linear-gradient-10)"/><path d="M261.92,196.68a15.45,15.45,0,0,0,2.78,3.83c.09.09.18.18.17.3s-.19.26-.35.32a11.06,11.06,0,0,1-1.13.3,1.09,1.09,0,0,1,.85,1.17,1.07,1.07,0,0,1-1.14.9,8.33,8.33,0,0,1-1-.33c-.35-.07-.82.12-.82.48a4.9,4.9,0,0,0-2.86-.26,7.18,7.18,0,0,1,1.44,2,1.23,1.23,0,0,1-.05,1.26c-.29.34-1,.17-1-.28a1.42,1.42,0,0,1-.85.92,21.72,21.72,0,0,1,1.4,3.59c.06.19.1.44-.05.57a.5.5,0,0,1-.43.06c-.87-.2-1.54-1-2.43-1.11-.73-.11-1.65.22-2.12-.35.28.42-.22,1-.73,1a2.1,2.1,0,0,1-1.32-.68l-1.7-1.47a2.39,2.39,0,0,0-1.36-.72,4.89,4.89,0,0,0-.93.16,2.09,2.09,0,0,1-1.91-.74.52.52,0,0,1-.72.28,1.46,1.46,0,0,1-.61-.62l-1.74-2.61a1.57,1.57,0,0,0-.43-.49A1.65,1.65,0,0,0,242,204a10.64,10.64,0,0,1-2.74-.42c-.9-.26-1.35-.41-.7-1.22s1.13-1.25,1.64-1.92a17.15,17.15,0,0,1,1.37-1.95,5.14,5.14,0,0,0,3.08-.38,32.19,32.19,0,0,0,5.2-3.82c1.72-1.46,3.45-2.92,5-4.54a43,43,0,0,0,3.6-4.27,13.55,13.55,0,0,1,3.21,3.79,5.19,5.19,0,0,1,.45,3.44c-.24,1-1.24,1.58-.83,2.61C261.49,195.78,261.7,196.24,261.92,196.68Z" transform="translate(-48.7 -38.95)" fill="#68e1fd"/><path d="M239.63,200.77a11.45,11.45,0,0,1,3.14-.38,1.52,1.52,0,0,1,.63.1c.45.2.65.73,1,1.06.69.65,1.77.48,2.7.64,2.31.42,3.82,3.07,6.16,3.21-.68-.94-1.86-1.34-2.81-2-.59-.4-1.11-.9-1.71-1.27-1-.6-2.17-.83-3.1-1.5A10.47,10.47,0,0,1,252,202a12,12,0,0,0,2.05.9,8.7,8.7,0,0,1,1,.29,6.61,6.61,0,0,1,1.64,1.25.55.55,0,0,0,.25.13c.21,0,.34-.27.26-.46a1,1,0,0,0-.46-.42q-4.06-2.26-8.33-4.18a10.12,10.12,0,0,1,4.8.78,18.47,18.47,0,0,0,2.9,1.7,2.75,2.75,0,0,0-1-1.6,8.32,8.32,0,0,0-1.69-1l-3.23-1.53c0-.3.34-.48.64-.54a6.55,6.55,0,0,1,3.46.48c1.11.41,2.16,1,3.29,1.31.93.29,1.9.43,2.82.74a17.54,17.54,0,0,1,2.58,1.16c-1.56-2-4.19-2.65-6.66-3.07a3.7,3.7,0,0,1-1.57-.52c-.3-.23-.53-.55-.81-.8a1.11,1.11,0,0,0-1-.29,3.82,3.82,0,0,1,2.64-1.56,17.52,17.52,0,0,1,3.16-.09c.57,0,1.31-.13,1.43-.69a13.72,13.72,0,0,1-5.27-.14c-.06-.22.18-.41.38-.52a27.52,27.52,0,0,1,4-1.73c1.11-.38,1.44-1.91,1.43-3.09a5.7,5.7,0,0,1-1.8,1.51l.3-2.38c-1.75,2.15-4.8,2.63-7.11,4.16-1.81,1.2-5,1.13-6.43,2.71s-3.36,3-5.53,3.1c-.64,0,.56,1.81-.08,1.87a2.14,2.14,0,0,0-1.66.84C238.64,200.57,239.31,200.59,239.63,200.77Z" transform="translate(-48.7 -38.95)" fill="url(#linear-gradient-11)"/><path d="M147.06,187.78a3.42,3.42,0,0,0,.87,1.66l-2.48-.26a4.38,4.38,0,0,1-1.35-.27,4.62,4.62,0,0,1-1.86-1.93,14.74,14.74,0,0,0,.94,2.58,2.55,2.55,0,0,0-1.64-.09,18.69,18.69,0,0,1-3.42.25.49.49,0,0,1-.27-.05.55.55,0,0,1-.19-.26,5,5,0,0,0-1.17-1.66c-.14.77.71,1.5.5,2.25a8,8,0,0,1-2.82-.46.29.29,0,0,0,.09.4.85.85,0,0,0,.44.11,11.81,11.81,0,0,1,3.42.78,1.73,1.73,0,0,1-.51,1.26c.09-.25.42-.28.67-.39s.56-.52.84-.8a3.22,3.22,0,0,1,2.09-.72,9.84,9.84,0,0,0,2.24-.21,6.37,6.37,0,0,1,.5,1.78l.72-2.06c1.35.76,3.11.14,4.56.68.14,0,.31.11.42,0a.79.79,0,0,0,.12-.28.51.51,0,0,1,.49-.27,2.32,2.32,0,0,1,.58.13c1.28.35,2.66-.09,3.95.2a18.6,18.6,0,0,0-2.18-.51c-.6-.05-1,.24-1.59,0A36.58,36.58,0,0,1,147.06,187.78Z" transform="translate(-48.7 -38.95)" fill="#68e1fd"/><path d="M155.81,165.51a36,36,0,0,0-6.14-5.76,23.53,23.53,0,0,1,7,5.93c0-1.77-.05-3.54-.13-5.31a24,24,0,0,1,.85,5.18l1.44-3.81-.65,3.67a2.64,2.64,0,0,0-.06.79,2.71,2.71,0,0,0,.52,1.13l1.46-3.14a8.31,8.31,0,0,1-.69,3,2.93,2.93,0,0,0-.44,1.88c.12.43.6.94.39,1.4-.87-.46-1-1.17-1.42-2A13.7,13.7,0,0,0,155.81,165.51Z" transform="translate(-48.7 -38.95)" fill="#68e1fd"/><path d="M247.25,186.76c-2.13.9-2.82,3.49-3.54,5.69a26.62,26.62,0,0,1-2.89,6,25.41,25.41,0,0,1-3.33,4.2c-.1.12-.21.23-.33.35a7.06,7.06,0,0,1-2.43,1.74c-2.81,1.06-5.86-1.16-8.85-.83a25.67,25.67,0,0,0-3.07.8c-3.77.94-7.7-.49-11.59-.49a38.8,38.8,0,0,0-4.56.4,72.24,72.24,0,0,1-18.29-.23,10.58,10.58,0,0,0-3.41-.13c-1.22.23-2.31.91-3.51,1.22-3.43.89-6.89-1.41-9.19-4.1a4.43,4.43,0,0,0-1.51-1.32,4.73,4.73,0,0,0-2.48,0,27.23,27.23,0,0,1-8.84-.74,18.72,18.72,0,0,1-3.31-.86,9.25,9.25,0,0,1-4.68-4.17,15.07,15.07,0,0,1,10.43-2.11c-7.08-2.66-12.45-8.46-17.54-14.06a66.18,66.18,0,0,1,19,1.18,5.54,5.54,0,0,0-1.71-4.38c.71-1.9,3.12-2.66,5.09-2.2a12.75,12.75,0,0,1,5.1,3.16c.8-1.4,1.86-2.91,3.46-3.14s3.12,1,4.34,2.11c1.45,1.36,5.25,6.3,7.25,6.21.79,0,1.47-1.27,2.34-1.43,1.31-.25,2.49.62,3.38,1.47a8.55,8.55,0,0,0,2.74,2.1l3.29-4.54a14.34,14.34,0,0,0,2.8,2.59,1.3,1.3,0,0,0,1,.34,1.39,1.39,0,0,0,.77-.72l3.08-5a35.44,35.44,0,0,1,4.07,7c.09-1.19,1.75-1.48,2.91-1.17s2.49.84,3.45.12a3.62,3.62,0,0,0,1-2.23,15.66,15.66,0,0,1,4.13-7.47c.39-.39.94-.79,1.44-.56a1.38,1.38,0,0,1,.63.9l2.72,7.61a7.58,7.58,0,0,1,7.13-5.51A1.57,1.57,0,0,1,235,175c.55.52.23,1.42,0,2.13a9.15,9.15,0,0,0,.93,8.21,2.82,2.82,0,0,0,1.08,1.06,3.39,3.39,0,0,0,1.34.21Z" transform="translate(-48.7 -38.95)" fill="url(#linear-gradient-12)"/><path d="M189,168.52c3.07,6.45,11,9.79,13.33,16.54a12.25,12.25,0,0,0,.78,2.07c.43.76,1.09,1.36,1.54,2.1,1.29,2.14.56,4.88-.19,7.25L202.4,203c-.31,1-.65,2.4-1.67,2.4l-1.69.75c-1.32-.83-3.85-.94-4.74-2s-.64-3.52-1.15-4.79c-1.1-2.76-2.73-5.11-3.62-8a42.34,42.34,0,0,1-1.82-11.56,41,41,0,0,1,.3-5.86C188.13,172.84,189.41,169.34,189,168.52Z" transform="translate(-48.7 -38.95)" fill="#68e1fd"/><path d="M189,168.52c3.07,6.45,11,9.79,13.33,16.54a12.25,12.25,0,0,0,.78,2.07c.43.76,1.09,1.36,1.54,2.1,1.29,2.14.56,4.88-.19,7.25L202.4,203c-.31,1-.65,2.4-1.67,2.4l-1.69.75c-1.32-.83-3.85-.94-4.74-2s-.64-3.52-1.15-4.79c-1.1-2.76-2.73-5.11-3.62-8a42.34,42.34,0,0,1-1.82-11.56,41,41,0,0,1,.3-5.86C188.13,172.84,189.41,169.34,189,168.52Z" transform="translate(-48.7 -38.95)" fill="url(#linear-gradient-13)"/><path d="M171.06,199.32c.45,3-2,5.57-3,8.41-1.56,4.29.2,9.18,3.08,12.71a6.33,6.33,0,0,0,1.75,1.6,4.72,4.72,0,0,0,5.53-1.29,9.72,9.72,0,0,0,2.08-5.65c.2-2,.11-4.09.44-6.1a8,8,0,0,1,2.84-5.25c.46-.33,1-.74.94-1.29a1.36,1.36,0,0,0-.28-.53c-1.61-2.22-3.49-3.92-6.42-3.83C177.17,198.12,171.08,199.46,171.06,199.32Z" transform="translate(-48.7 -38.95)" fill="#68e1fd"/><path d="M161.56,199.77a32.36,32.36,0,0,1-5.56-3.26c-1.87-1.27-3.74-2.55-5.48-4a42,42,0,0,1-4-3.87,13.71,13.71,0,0,0-2.8,4.1,4.63,4.63,0,0,0,.65,4.7,4.07,4.07,0,0,1,.73.83,3,3,0,0,1-.13,2.15,10,10,0,0,0-.3,3.81,2.13,2.13,0,0,0,.39,1.13,3.76,3.76,0,0,0,1.31.79c1.31.67,2.08,2.08,3.28,2.94a7.79,7.79,0,0,0,4.61,1.1,22.62,22.62,0,0,1,4.8.14,4.72,4.72,0,0,0,1.78.2,3.54,3.54,0,0,0,2-1.62l2.57-3.5a3.41,3.41,0,0,1,1.2-1.16,1.16,1.16,0,0,1,1.48.36,6.38,6.38,0,0,0,.35-5.13.55.55,0,0,0-.18-.28.57.57,0,0,0-.37,0C165.85,199.31,163.48,200.57,161.56,199.77Z" transform="translate(-48.7 -38.95)" fill="#68e1fd"/><path d="M161.56,199.77a32.36,32.36,0,0,1-5.56-3.26c-1.87-1.27-3.74-2.55-5.48-4a42,42,0,0,1-4-3.87,13.71,13.71,0,0,0-2.8,4.1,4.63,4.63,0,0,0,.65,4.7,4.07,4.07,0,0,1,.73.83,3,3,0,0,1-.13,2.15,10,10,0,0,0-.3,3.81,2.13,2.13,0,0,0,.39,1.13,3.76,3.76,0,0,0,1.31.79c1.31.67,2.08,2.08,3.28,2.94a7.79,7.79,0,0,0,4.61,1.1,22.62,22.62,0,0,1,4.8.14,4.72,4.72,0,0,0,1.78.2,3.54,3.54,0,0,0,2-1.62l2.57-3.5a3.41,3.41,0,0,1,1.2-1.16,1.16,1.16,0,0,1,1.48.36,6.38,6.38,0,0,0,.35-5.13.55.55,0,0,0-.18-.28.57.57,0,0,0-.37,0C165.85,199.31,163.48,200.57,161.56,199.77Z" transform="translate(-48.7 -38.95)" fill="#68e1fd"/><path d="M161.39,198.46a32,32,0,0,1-5.56-3.26,67.25,67.25,0,0,1-5.48-4,39.91,39.91,0,0,1-4-3.88,13.63,13.63,0,0,0-2.8,4.11,4.62,4.62,0,0,0,.66,4.69,4.5,4.5,0,0,1,.73.84,3,3,0,0,1-.13,2.15,9.75,9.75,0,0,0-.3,3.8,2.19,2.19,0,0,0,.38,1.14,3.68,3.68,0,0,0,1.31.78c1.32.67,2.08,2.08,3.28,2.94a7.74,7.74,0,0,0,4.61,1.1,22.7,22.7,0,0,1,4.81.14,4.5,4.5,0,0,0,1.77.2,3.47,3.47,0,0,0,2-1.61l2.57-3.5a3.22,3.22,0,0,1,1.19-1.16,1.14,1.14,0,0,1,1.48.36,6.4,6.4,0,0,0,.35-5.14.43.43,0,0,0-.54-.33C165.67,198,163.3,199.26,161.39,198.46Z" transform="translate(-48.7 -38.95)" fill="url(#linear-gradient-14)"/><path d="M238.6,197.61c-.14,3,2.56,5.33,3.89,8,2,4.1.76,9.15-1.75,13a6.07,6.07,0,0,1-1.57,1.77,4.7,4.7,0,0,1-5.63-.71,9.69,9.69,0,0,1-2.66-5.39c-.41-2-.53-4.06-1.08-6a8,8,0,0,0-3.37-4.93c-.48-.28-1.1-.62-1.06-1.18a1.25,1.25,0,0,1,.22-.55c1.37-2.38,3.07-4.26,6-4.49C232.39,197.05,238.59,197.75,238.6,197.61Z" transform="translate(-48.7 -38.95)" fill="none"/><path d="M244.46,183.49a10.78,10.78,0,0,1,5.37-.64c1.58.15,3.21.51,4.72,0s2.82-2,3.86-3.37c1.32-1.77,2.61-3.57,3.85-5.39-.55-1.5-3.36-.22-4.21-1.56a3.79,3.79,0,0,0-.41-.74c-.51-.52-1.5-.06-2.07-.51s-.43-1.23-1-1.51-1,.11-1.55.13c-1.14.05-1.69-1.32-2.35-2.26-1-1.47-2.87-2.12-4.57-2.68a2.51,2.51,0,0,0-1.2-.19,2.64,2.64,0,0,0-.87.4,67.41,67.41,0,0,0-8.69,6.45,1.21,1.21,0,0,0-1.75-.62,3.53,3.53,0,0,0-.73.85,3.83,3.83,0,0,1-2.38,1.45,9.48,9.48,0,0,0-1.77.29c-1.3.49-1.77,2.15-1.55,3.52a41.61,41.61,0,0,0,1.3,4c.49,1.83.31,3.77.56,5.64a25.45,25.45,0,0,1,.46,3.57c0,2.53-1.63,4.88-1.45,7.39,2.88-1.59,7-3.51,9.13-6C239.63,188.81,240.73,185.1,244.46,183.49Z" transform="translate(-48.7 -38.95)" fill="#68e1fd"/><path d="M201.55,191.37a5.92,5.92,0,0,1,1-2.85c.7-.86,1.84-1.3,2.44-2.23a4.94,4.94,0,0,0,.27-3.56,65.63,65.63,0,0,0-2.27-8.85,4.41,4.41,0,0,1-.27-3.06,3.43,3.43,0,0,1,2.44-1.7c3.74-.91,7.67,1,10.44,3.65s4.66,6.09,6.91,9.22a17.56,17.56,0,0,1,2,3.14,11.5,11.5,0,0,1,.79,4.73A25.73,25.73,0,0,1,222,202.22c-1.27,2.28-3.23,4.55-5.84,4.69a24.4,24.4,0,0,1-3.27-.36c-2.24-.19-4.43.62-6.67.86a13.21,13.21,0,0,1-8-1.73,20.31,20.31,0,0,1,1.91-2.69,5.66,5.66,0,0,0,.58-3.07A74.28,74.28,0,0,1,201.55,191.37Z" transform="translate(-48.7 -38.95)" fill="#68e1fd"/><path d="M147.57,174.79c-1.95-1-3.89-2-5.87-2.91a59.39,59.39,0,0,0-5.76-2.42,84.44,84.44,0,0,0-10.06-2.62,13.33,13.33,0,0,0,3.68.56,26.79,26.79,0,0,1,6.06,1.58l-.89-2.34a6,6,0,0,1,1.61,2.13,1.07,1.07,0,0,0,.32.48.92.92,0,0,0,.49.13,8.27,8.27,0,0,1,2.87.89,13,13,0,0,1-.06-3.05A6.84,6.84,0,0,1,141.1,170a1,1,0,0,0,.15.45,1,1,0,0,0,.44.3,35,35,0,0,1,3.92,2l.45-4,.93,3.41a1.62,1.62,0,0,0,1,1.28l3.16,1.68a.72.72,0,0,0,.32.11.91.91,0,0,0,.3-.11,4,4,0,0,0,1.25-1.22c.39,1.08.1,3.88-1.68,3.5-.55-.11-1-.83-1.38-1.16A14.14,14.14,0,0,0,147.57,174.79Z" transform="translate(-48.7 -38.95)" fill="#68e1fd"/><path d="M163.76,185.88a10.89,10.89,0,0,0-5.41-.07c-1.55.32-3.14.84-4.69.5s-3-1.68-4.19-2.95q-2.25-2.43-4.39-5c.39-1.54,3.32-.56,4-2a3.51,3.51,0,0,1,.33-.77c.45-.57,1.48-.22,2-.73s.31-1.26.81-1.6,1,0,1.56,0c1.14-.07,1.55-1.49,2.11-2.49.88-1.57,2.63-2.4,4.27-3.14a1.89,1.89,0,0,1,2.07,0,68.62,68.62,0,0,1,9.31,5.51,1.23,1.23,0,0,1,1.68-.8,3.37,3.37,0,0,1,.82.78,3.84,3.84,0,0,0,2.52,1.19,8.78,8.78,0,0,1,1.78.1c1.35.36,2,2,1.91,3.34a38.3,38.3,0,0,1-.87,4.07c-.3,1.87.08,3.78,0,5.68a24,24,0,0,0-.09,3.59c.3,2.51,2.12,4.68,2.21,7.21-3-1.29-7.31-2.77-9.71-5.05C169.12,190.67,167.64,187.09,163.76,185.88Z" transform="translate(-48.7 -38.95)" fill="#68e1fd"/><path d="M165.24,185.2a10.77,10.77,0,0,0-5.41-.08c-1.55.32-3.14.84-4.69.51a8.6,8.6,0,0,1-4.19-3c-1.5-1.62-3-3.27-4.39-5,.39-1.54,3.32-.57,4-2a3.51,3.51,0,0,1,.33-.77c.45-.57,1.48-.22,2-.73s.3-1.27.81-1.6,1,0,1.56,0c1.14-.07,1.55-1.49,2.11-2.49.88-1.57,2.62-2.41,4.27-3.14a2.56,2.56,0,0,1,1.16-.32,2.52,2.52,0,0,1,.91.31,67.6,67.6,0,0,1,9.31,5.51,1.22,1.22,0,0,1,1.68-.8,3.33,3.33,0,0,1,.82.77,3.85,3.85,0,0,0,2.52,1.2,8.82,8.82,0,0,1,1.78.1c1.34.35,2,2,1.91,3.34a41,41,0,0,1-.88,4.07c-.29,1.87.09,3.78,0,5.67a24.1,24.1,0,0,0-.1,3.6c.31,2.51,2.13,4.68,2.21,7.2-3-1.29-7.3-2.77-9.71-5C170.6,190,169.12,186.41,165.24,185.2Z" transform="translate(-48.7 -38.95)" fill="url(#linear-gradient-15)"/><path d="M178.85,205.38a7.57,7.57,0,0,0-.56,3.41l-.07,7a2.91,2.91,0,0,1-.7,2.28,4.12,4.12,0,0,1-1.44.56,6.75,6.75,0,0,1-2.54.72c-1.14-.1-1.94-1.14-2.54-2.11a38.36,38.36,0,0,1-2.58-5,5.35,5.35,0,0,1-.55-3.57c.31-1,1.16-1.79,1.53-2.79s.23-2.05.51-3a12.87,12.87,0,0,0,1-2.82c0-.11,0-.24.09-.3a.31.31,0,0,1,.21,0l3.73-.06a10.83,10.83,0,0,0-.63,4.95,7.11,7.11,0,0,0-3.06,3.72,13,13,0,0,1,2.79-1.9,9.46,9.46,0,0,1-.68,3.71c-.62,1.5-1.64,2.93-1.57,4.55a6.76,6.76,0,0,1,1.61-3.2,20.8,20.8,0,0,0,1.46,5.87l-.78-5.83,2.84,1.5a19,19,0,0,0-1.58-2.58,3.62,3.62,0,0,1-.59-2.88l1.32,1a7.2,7.2,0,0,1-.74-5.89,4.69,4.69,0,0,1,1.12-2.6,4.18,4.18,0,0,1,2.48-.88c1.25-.13,4.08,0,3.52,2C181.92,202.86,179.66,203.76,178.85,205.38Z" transform="translate(-48.7 -38.95)" fill="url(#linear-gradient-16)"/><path d="M204.46,203.65a12.57,12.57,0,0,0-.53-4,6.83,6.83,0,0,1,0-4c.58-1.41,2-2.63,1.76-4.14-.11-.62-.53-1.21-.38-1.82a2.05,2.05,0,0,1,.71-1l2.5-2.33a3.13,3.13,0,0,0,.91-1.17,3.18,3.18,0,0,0-.1-1.75l-3.13-12.14,5.43,2.79a11.83,11.83,0,0,1,1.58.92,10.83,10.83,0,0,1,1.74,1.71,22.72,22.72,0,0,0,3.48,3.52,12,12,0,0,1,2.65,2.08,7.4,7.4,0,0,1,1.07,2.25l1.2,3.42a8.72,8.72,0,0,1,.51,2,7.92,7.92,0,0,1-.37,2.64,110.73,110.73,0,0,1-4,12.44,2.7,2.7,0,0,1-.67,1.13c-1.13,1-3.08-.29-4.3.58l4.38-4.45-3.36,1.93a30.3,30.3,0,0,1,.28-3.43,9,9,0,0,0,3.93-4.39q-1.75,1.68-3.62,3.26c-.44-1.32.16-2.73.66-4a32.47,32.47,0,0,0,2-7.83,39.47,39.47,0,0,0-2.47,5.8c-.59-2-.35-4.23-.45-6.36a20.29,20.29,0,0,0-2.92-9.58c1.67,4,1.93,8.45,2.17,12.79,0,.52.05,1,.07,1.58l-2.47-3a10.64,10.64,0,0,1,1.8,8.45c-2.24-2.18-4.56-4.29-7-6.3a4.57,4.57,0,0,0,1.78,3.59,21.93,21.93,0,0,0,2.48,1.35,3.24,3.24,0,0,1,1.73,2.11,2.63,2.63,0,0,0-1.06.52,7.2,7.2,0,0,1,1.85,4.08c-1,0-1.49,1.18-1.74,2.14l-.46,1.77a1,1,0,0,1-.28.58,1.07,1.07,0,0,1-.56.19,19.34,19.34,0,0,1-6.87,0,4.45,4.45,0,0,1-1.57-.5c-.61-.47-.23-.46.28-.9A3.85,3.85,0,0,0,204.46,203.65Z" transform="translate(-48.7 -38.95)" fill="url(#linear-gradient-17)"/><path d="M235,190.2a15,15,0,0,0,2.71-2.92c.76-1.14,1.2-2.48,2.06-3.56,1.57-2,4.26-2.71,6.79-2.84a25.3,25.3,0,0,0,5.08-.39c3.23-.85,5.52-3.65,7.56-6.3-1.64-.07-2.77-1.66-4.29-2.3-.61-.26-1.27-.36-1.89-.57-2.69-.92-4.48-3.83-7.29-4.29a2.39,2.39,0,0,0-1.56.18,7.12,7.12,0,0,0-.87.69c-.93.74-2.18,1-3.22,1.57-1.48.87-2.38,2.47-3.7,3.58a.59.59,0,0,1-.28.15.56.56,0,0,1-.42-.2l-1.33-1.16a.8.8,0,0,0-.44-.24.68.68,0,0,0-.47.23c-.85.78-1.18,2-1.95,2.85a3.52,3.52,0,0,1-2.43,1.32l-.38.47a32,32,0,0,0,.55,7.57,6.59,6.59,0,0,0,3.94-6.71l.53,3.26c1.1-.18,1.69-1.4,1.88-2.5a7.45,7.45,0,0,1,.84-3.19,12.68,12.68,0,0,0,.3,3.36,13.89,13.89,0,0,1,3.63-2.68,3.46,3.46,0,0,0,1-.62,3.33,3.33,0,0,0,.62-1.1l1.72-4.28a18.74,18.74,0,0,0-.89,5.51,25.08,25.08,0,0,1,4.29-.86,51,51,0,0,1,6.31-.19c-2.62,1.38-6.06-.09-8.72,1.23a16.73,16.73,0,0,1-2.11,1.16c-.84.27-1.86.19-2.47.82l6.46,2.69a15.83,15.83,0,0,1-6.2-1.07,2,2,0,0,0-1-.22,2,2,0,0,0-.76.34l-3,1.88a3.28,3.28,0,0,0-.66.5c-.56.62-.61,1.66-1.34,2a7,7,0,0,1,2.25,1.27l-1.14-.25c-1.33-.28-2.84-.54-4,.23a3.69,3.69,0,0,0-1.4,2.68,21.58,21.58,0,0,0,.08,3.11,15.1,15.1,0,0,1-.2,3.08c-.15.85-.54,1.75.66,1.27.85-.34,1.74-1.54,2.42-2.15Z" transform="translate(-48.7 -38.95)" fill="url(#linear-gradient-18)"/><circle cx="134.6" cy="156.58" r="4.4" fill="#68e1fd"/><circle cx="134.6" cy="156.58" r="4.4" fill="url(#linear-gradient-19)"/><path d="M195.29,155a40.53,40.53,0,0,1-6.18,3.83,24.42,24.42,0,0,0,5.32,1.76,8.38,8.38,0,0,0,5.45-.73,12.47,12.47,0,0,0,3.66-3.75l3.64-5,2-2.74c.65-.88,1.32-2,.89-3-2.91.71-5.75.81-7.85,3A78.33,78.33,0,0,1,195.29,155Z" transform="translate(-48.7 -38.95)" fill="#68e1fd"/><path d="M195.29,155a40.53,40.53,0,0,1-6.18,3.83,24.42,24.42,0,0,0,5.32,1.76,8.38,8.38,0,0,0,5.45-.73,12.47,12.47,0,0,0,3.66-3.75l3.64-5,2-2.74c.65-.88,1.32-2,.89-3-2.91.71-5.75.81-7.85,3A78.33,78.33,0,0,1,195.29,155Z" transform="translate(-48.7 -38.95)" fill="url(#linear-gradient-20)"/><path d="M176.91,138.26a11.1,11.1,0,0,0,2.52,3.05c.76.8,1.42,1.69,2.25,2.41a15.08,15.08,0,0,0,4.85,2.49c1.1.4,3.62.79,3.55-1.1,0-.88-2.58-2.62-3.19-3.17A13.25,13.25,0,0,0,176.91,138.26Z" transform="translate(-48.7 -38.95)" fill="#68e1fd"/><path d="M196.91,137a6.56,6.56,0,0,0-.15,4.38.87.87,0,0,0,.34.64.66.66,0,0,0,.46,0,4.92,4.92,0,0,0,2.17-1.53c1.65-1.44,4-1.89,5.66-3.3,1.36-1.16.72-6.51-1.58-6.11C201.68,131.45,197.85,135.16,196.91,137Z" transform="translate(-48.7 -38.95)" fill="#68e1fd"/><path d="M226.71,148.64a13.54,13.54,0,0,0,0-4.07c-.33-1.51-1.16-2.86-1.59-4.35a8.56,8.56,0,0,1-.2-3.8c.3-1.69-2-2-3.11-1.2s-.92,2.78-.71,4.14A14.27,14.27,0,0,0,226.71,148.64Z" transform="translate(-48.7 -38.95)" fill="#68e1fd"/><path d="M168.85,118.05c-2.53,3.11-5.62,5.72-8.2,8.8S156,133.66,156,137.67c3.3.19,6.24-2.11,8.32-4.68s3.68-5.57,6.18-7.72c1.25-1.08,2.7-1.92,3.87-3.08,2.6-2.57,5.62-13,1.23-15C173.15,110.67,171.6,114.68,168.85,118.05Z" transform="translate(-48.7 -38.95)" fill="#68e1fd"/><path d="M168.85,118.05c-2.53,3.11-5.62,5.72-8.2,8.8S156,133.66,156,137.67c3.3.19,6.24-2.11,8.32-4.68s3.68-5.57,6.18-7.72c1.25-1.08,2.7-1.92,3.87-3.08,2.6-2.57,5.62-13,1.23-15C173.15,110.67,171.6,114.68,168.85,118.05Z" transform="translate(-48.7 -38.95)" fill="url(#linear-gradient-21)"/><path d="M167.57,116.92c-2.54,3.11-5.63,5.72-8.2,8.8s-4.69,6.81-4.68,10.82c3.3.19,6.23-2.11,8.31-4.68s3.68-5.57,6.19-7.73c1.25-1.07,2.7-1.91,3.87-3.07,2.59-2.57,5.61-13,1.23-15C171.87,109.54,170.31,113.55,167.57,116.92Z" transform="translate(-48.7 -38.95)" fill="#68e1fd"/><path d="M192,85.65c-.79,1.28-1.54,2.73-2.91,3.36l6.38-2.32a6,6,0,0,0,1.9-1,10.26,10.26,0,0,0,1.42-2,8.91,8.91,0,0,1,4.08-3.18,5.12,5.12,0,0,0,2.63-1.67c.54-.9-.14-2.46-1.16-2.17A20.28,20.28,0,0,0,192,85.65Z" transform="translate(-48.7 -38.95)" fill="#68e1fd"/><path d="M164.5,91a15.46,15.46,0,0,0,4.32,5.74,36.89,36.89,0,0,0,11.54,7,26.2,26.2,0,0,0-3.93-11.22c-1.34-2.11-3.06-4.24-3-6.74a5.81,5.81,0,0,0-.14-2.76,3.69,3.69,0,0,0-2.55-1.5c-2.45-.61-5.79-2.35-7.07.34C162.71,83.91,163.75,89.06,164.5,91Z" transform="translate(-48.7 -38.95)" fill="#68e1fd"/><path d="M164.5,91a15.46,15.46,0,0,0,4.32,5.74,36.89,36.89,0,0,0,11.54,7,26.2,26.2,0,0,0-3.93-11.22c-1.34-2.11-3.06-4.24-3-6.74a5.81,5.81,0,0,0-.14-2.76,3.69,3.69,0,0,0-2.55-1.5c-2.45-.61-5.79-2.35-7.07.34C162.71,83.91,163.75,89.06,164.5,91Z" transform="translate(-48.7 -38.95)" fill="url(#linear-gradient-22)"/><path d="M165.14,89.83a15.49,15.49,0,0,0,4.33,5.74,36.52,36.52,0,0,0,11.54,7,26.16,26.16,0,0,0-3.93-11.21c-1.34-2.12-3.06-4.25-3-6.75a5.77,5.77,0,0,0-.14-2.75,3.64,3.64,0,0,0-2.56-1.5c-2.45-.61-5.78-2.35-7.06.33C163.36,82.71,164.39,87.87,165.14,89.83Z" transform="translate(-48.7 -38.95)" fill="#68e1fd"/><path d="M219.81,139.69c1.63-.11,2.65-1.72,3.63-3,2.39-3.14,5.9-5.21,9.44-6.94,6-3,4.94-10.64-1.53-6.37C225.91,127,221.8,133.62,219.81,139.69Z" transform="translate(-48.7 -38.95)" fill="#68e1fd"/><rect x="142.87" y="58.1" width="16.16" height="16.16" rx="8.08" fill="#68e1fd"/><rect x="142.87" y="58.1" width="16.16" height="16.16" rx="8.08" fill="url(#linear-gradient-23)"/><path d="M195.15,98.56c.33.26.82.11,1.21-.06.77-.34,1.53-.69,2.28-1.08a5.56,5.56,0,0,0,1,2.16,2.62,2.62,0,0,0,.38-2,20,20,0,0,0,3.31,1.73,1.78,1.78,0,0,0-.51-1.58,4,4,0,0,0-1.48-.89,4.62,4.62,0,0,0,1.85-.52,3.41,3.41,0,0,0-2.11-.33.48.48,0,0,1-.7-.3,3.68,3.68,0,0,1-.21-.87,3.32,3.32,0,0,0-.25-1.25c-.21-.37-.77-.59-1.07-.28s-.12.74,0,1.12a4.45,4.45,0,0,1,.18,1.25.5.5,0,0,1-.08.34c-.19.24-.74.38-1,.54s-.64.33-1,.51a5.94,5.94,0,0,0-1,.67C195.83,97.85,195.27,98.56,195.15,98.56Z" transform="translate(-48.7 -38.95)" fill="#68e1fd"/><path d="M179.66,121.68a5.78,5.78,0,0,0-.87,1.37,2.79,2.79,0,0,0,0,2c.08.24.24.49.49.51a.81.81,0,0,0,.34-.08,7.92,7.92,0,0,0,2.92-2.28,3.75,3.75,0,0,0,.81-1.44,2.34,2.34,0,0,0-1.11-2.52c-.61-.3-.84.31-1.21.76Z" transform="translate(-48.7 -38.95)" fill="#68e1fd"/><path d="M179.66,121.68a5.78,5.78,0,0,0-.87,1.37,2.79,2.79,0,0,0,0,2c.08.24.24.49.49.51a.81.81,0,0,0,.34-.08,7.92,7.92,0,0,0,2.92-2.28,3.75,3.75,0,0,0,.81-1.44,2.34,2.34,0,0,0-1.11-2.52c-.61-.3-.84.31-1.21.76Z" transform="translate(-48.7 -38.95)" fill="url(#linear-gradient-24)"/><path d="M182.27,128.92a3.3,3.3,0,0,0,.79.66,1.78,1.78,0,0,0,1.26.17c.15,0,.32-.12.36-.27a.6.6,0,0,0,0-.23,5.14,5.14,0,0,0-1.21-2,2.51,2.51,0,0,0-.85-.64,1.5,1.5,0,0,0-1.69.5c-.24.37.12.56.38.83S181.94,128.58,182.27,128.92Z" transform="translate(-48.7 -38.95)" fill="#68e1fd"/><path d="M182.27,128.92a3.3,3.3,0,0,0,.79.66,1.78,1.78,0,0,0,1.26.17c.15,0,.32-.12.36-.27a.6.6,0,0,0,0-.23,5.14,5.14,0,0,0-1.21-2,2.51,2.51,0,0,0-.85-.64,1.5,1.5,0,0,0-1.69.5c-.24.37.12.56.38.83S181.94,128.58,182.27,128.92Z" transform="translate(-48.7 -38.95)" fill="url(#linear-gradient-25)"/><path d="M186.8,123.23a3.93,3.93,0,0,0,.22,1.23,2.15,2.15,0,0,0,1,1.12.52.52,0,0,0,.55,0,.66.66,0,0,0,.15-.22,6.17,6.17,0,0,0,.46-2.82,3,3,0,0,0-.28-1.24,1.8,1.8,0,0,0-1.95-.84c-.5.15-.32.61-.29,1.05Z" transform="translate(-48.7 -38.95)" fill="#68e1fd"/><path d="M186.8,123.23a3.93,3.93,0,0,0,.22,1.23,2.15,2.15,0,0,0,1,1.12.52.52,0,0,0,.55,0,.66.66,0,0,0,.15-.22,6.17,6.17,0,0,0,.46-2.82,3,3,0,0,0-.28-1.24,1.8,1.8,0,0,0-1.95-.84c-.5.15-.32.61-.29,1.05Z" transform="translate(-48.7 -38.95)" fill="url(#linear-gradient-26)"/><path d="M173.28,134.75a4.24,4.24,0,0,0,.22,1.23,2.13,2.13,0,0,0,1,1.12.51.51,0,0,0,.54,0,.48.48,0,0,0,.15-.22,6,6,0,0,0,.47-2.81,3,3,0,0,0-.29-1.25,1.81,1.81,0,0,0-2-.84c-.5.15-.31.61-.28,1.05S173.24,134.19,173.28,134.75Z" transform="translate(-48.7 -38.95)" fill="#68e1fd"/><path d="M173.28,134.75a4.24,4.24,0,0,0,.22,1.23,2.13,2.13,0,0,0,1,1.12.51.51,0,0,0,.54,0,.48.48,0,0,0,.15-.22,6,6,0,0,0,.47-2.81,3,3,0,0,0-.29-1.25,1.81,1.81,0,0,0-2-.84c-.5.15-.31.61-.28,1.05S173.24,134.19,173.28,134.75Z" transform="translate(-48.7 -38.95)" fill="url(#linear-gradient-27)"/><path d="M186.8,138.79A4,4,0,0,0,187,140a2.15,2.15,0,0,0,1,1.12.55.55,0,0,0,.55,0,.66.66,0,0,0,.15-.22,6.17,6.17,0,0,0,.46-2.82,2.92,2.92,0,0,0-.28-1.24A1.82,1.82,0,0,0,187,136c-.5.15-.32.62-.29,1.06Z" transform="translate(-48.7 -38.95)" fill="#68e1fd"/><path d="M186.8,138.79A4,4,0,0,0,187,140a2.15,2.15,0,0,0,1,1.12.55.55,0,0,0,.55,0,.66.66,0,0,0,.15-.22,6.17,6.17,0,0,0,.46-2.82,2.92,2.92,0,0,0-.28-1.24A1.82,1.82,0,0,0,187,136c-.5.15-.32.62-.29,1.06Z" transform="translate(-48.7 -38.95)" fill="url(#linear-gradient-28)"/><path d="M235.76,133.14a4.46,4.46,0,0,0-.71,1.11,2.24,2.24,0,0,0,0,1.61c.07.19.2.39.4.41a.55.55,0,0,0,.28-.07,6.29,6.29,0,0,0,2.37-1.85,3.13,3.13,0,0,0,.67-1.17,1.93,1.93,0,0,0-.91-2.06c-.5-.24-.69.25-1,.62S236.13,132.67,235.76,133.14Z" transform="translate(-48.7 -38.95)" fill="#68e1fd"/><path d="M235.76,133.14a4.46,4.46,0,0,0-.71,1.11,2.24,2.24,0,0,0,0,1.61c.07.19.2.39.4.41a.55.55,0,0,0,.28-.07,6.29,6.29,0,0,0,2.37-1.85,3.13,3.13,0,0,0,.67-1.17,1.93,1.93,0,0,0-.91-2.06c-.5-.24-.69.25-1,.62S236.13,132.67,235.76,133.14Z" transform="translate(-48.7 -38.95)" fill="url(#linear-gradient-29)"/><path d="M217.76,158.05a2.83,2.83,0,0,0,.65.55,1.5,1.5,0,0,0,1,.13c.12,0,.26-.09.29-.22a.37.37,0,0,0,0-.18,4,4,0,0,0-1-1.66,1.83,1.83,0,0,0-.69-.52,1.22,1.22,0,0,0-1.38.41c-.19.29.1.45.31.67Z" transform="translate(-48.7 -38.95)" fill="#68e1fd"/><path d="M217.76,158.05a2.83,2.83,0,0,0,.65.55,1.5,1.5,0,0,0,1,.13c.12,0,.26-.09.29-.22a.37.37,0,0,0,0-.18,4,4,0,0,0-1-1.66,1.83,1.83,0,0,0-.69-.52,1.22,1.22,0,0,0-1.38.41c-.19.29.1.45.31.67Z" transform="translate(-48.7 -38.95)" fill="url(#linear-gradient-30)"/><path d="M253.74,146.05a3.39,3.39,0,0,0,.18,1,1.76,1.76,0,0,0,.83.91.43.43,0,0,0,.45,0,.38.38,0,0,0,.12-.18,5,5,0,0,0,.38-2.29,2.49,2.49,0,0,0-.23-1,1.48,1.48,0,0,0-1.59-.69c-.41.12-.26.5-.23.86S253.71,145.59,253.74,146.05Z" transform="translate(-48.7 -38.95)" fill="#68e1fd"/><path d="M253.74,146.05a3.39,3.39,0,0,0,.18,1,1.76,1.76,0,0,0,.83.91.43.43,0,0,0,.45,0,.38.38,0,0,0,.12-.18,5,5,0,0,0,.38-2.29,2.49,2.49,0,0,0-.23-1,1.48,1.48,0,0,0-1.59-.69c-.41.12-.26.5-.23.86S253.71,145.59,253.74,146.05Z" transform="translate(-48.7 -38.95)" fill="url(#linear-gradient-31)"/><path d="M242.73,155.43a3.68,3.68,0,0,0,.18,1,1.74,1.74,0,0,0,.83.92.43.43,0,0,0,.45,0,.38.38,0,0,0,.12-.18,5,5,0,0,0,.38-2.29,2.45,2.45,0,0,0-.23-1,1.46,1.46,0,0,0-1.59-.69c-.41.12-.26.5-.23.86Z" transform="translate(-48.7 -38.95)" fill="#68e1fd"/><path d="M242.73,155.43a3.68,3.68,0,0,0,.18,1,1.74,1.74,0,0,0,.83.92.43.43,0,0,0,.45,0,.38.38,0,0,0,.12-.18,5,5,0,0,0,.38-2.29,2.45,2.45,0,0,0-.23-1,1.46,1.46,0,0,0-1.59-.69c-.41.12-.26.5-.23.86Z" transform="translate(-48.7 -38.95)" fill="url(#linear-gradient-32)"/><path d="M253.74,158.72a3.39,3.39,0,0,0,.18,1,1.78,1.78,0,0,0,.83.92.45.45,0,0,0,.45,0,.52.52,0,0,0,.12-.18,5,5,0,0,0,.38-2.3,2.53,2.53,0,0,0-.23-1,1.47,1.47,0,0,0-1.59-.68c-.41.12-.26.49-.23.86S253.71,158.26,253.74,158.72Z" transform="translate(-48.7 -38.95)" fill="#68e1fd"/><path d="M253.74,158.72a3.39,3.39,0,0,0,.18,1,1.78,1.78,0,0,0,.83.92.45.45,0,0,0,.45,0,.52.52,0,0,0,.12-.18,5,5,0,0,0,.38-2.3,2.53,2.53,0,0,0-.23-1,1.47,1.47,0,0,0-1.59-.68c-.41.12-.26.49-.23.86S253.71,158.26,253.74,158.72Z" transform="translate(-48.7 -38.95)" fill="url(#linear-gradient-33)"/><path d="M155.25,105.1a9,9,0,0,0,5.5,6.63,1.58,1.58,0,0,0-.17-1.82,7.58,7.58,0,0,0-1.49-1.27,7.82,7.82,0,0,1-2.23-9.08c.68-1.51.41-3.47-1.07-1.55C154.58,99.57,154.87,103.33,155.25,105.1Z" transform="translate(-48.7 -38.95)" fill="#68e1fd"/><path d="M155.25,105.1a9,9,0,0,0,5.5,6.63,1.58,1.58,0,0,0-.17-1.82,7.58,7.58,0,0,0-1.49-1.27,7.82,7.82,0,0,1-2.23-9.08c.68-1.51.41-3.47-1.07-1.55C154.58,99.57,154.87,103.33,155.25,105.1Z" transform="translate(-48.7 -38.95)" fill="url(#linear-gradient-34)"/><path d="M254.62,120.47a6.08,6.08,0,0,0-5.85,0,1.05,1.05,0,0,0,1,.7,5,5,0,0,0,1.31-.21,5.32,5.32,0,0,1,5.7,2.8c.48,1,1.62,1.73,1.27.11C257.78,122.54,255.7,121.05,254.62,120.47Z" transform="translate(-48.7 -38.95)" fill="#68e1fd"/><path d="M254.62,120.47a6.08,6.08,0,0,0-5.85,0,1.05,1.05,0,0,0,1,.7,5,5,0,0,0,1.31-.21,5.32,5.32,0,0,1,5.7,2.8c.48,1,1.62,1.73,1.27.11C257.78,122.54,255.7,121.05,254.62,120.47Z" transform="translate(-48.7 -38.95)" fill="url(#linear-gradient-35)"/><path d="M227.91,109a3.67,3.67,0,0,0-3.18-1.48.63.63,0,0,0,.38.64,2.93,2.93,0,0,0,.77.21,3.17,3.17,0,0,1,2.4,3c0,.67.46,1.34.67.37A4.38,4.38,0,0,0,227.91,109Z" transform="translate(-48.7 -38.95)" fill="#68e1fd"/><path d="M227.91,109a3.67,3.67,0,0,0-3.18-1.48.63.63,0,0,0,.38.64,2.93,2.93,0,0,0,.77.21,3.17,3.17,0,0,1,2.4,3c0,.67.46,1.34.67.37A4.38,4.38,0,0,0,227.91,109Z" transform="translate(-48.7 -38.95)" fill="url(#linear-gradient-36)"/><path d="M208.6,122.86a3.64,3.64,0,0,0,1.54-3.14.62.62,0,0,0-.64.36,3,3,0,0,0-.23.77,3.17,3.17,0,0,1-3,2.33c-.67,0-1.35.43-.39.66A4.38,4.38,0,0,0,208.6,122.86Z" transform="translate(-48.7 -38.95)" fill="#68e1fd"/><path d="M208.6,122.86a3.64,3.64,0,0,0,1.54-3.14.62.62,0,0,0-.64.36,3,3,0,0,0-.23.77,3.17,3.17,0,0,1-3,2.33c-.67,0-1.35.43-.39.66A4.38,4.38,0,0,0,208.6,122.86Z" transform="translate(-48.7 -38.95)" fill="url(#linear-gradient-37)"/><path d="M216.86,96.69a7,7,0,0,0-5.58-3.8,1.22,1.22,0,0,0,.52,1.33,5.74,5.74,0,0,0,1.4.64,6.13,6.13,0,0,1,3.65,6.36c-.19,1.28.44,2.69,1.14.93C218.56,100.71,217.53,97.94,216.86,96.69Z" transform="translate(-48.7 -38.95)" fill="#68e1fd"/><path d="M216.86,96.69a7,7,0,0,0-5.58-3.8,1.22,1.22,0,0,0,.52,1.33,5.74,5.74,0,0,0,1.4.64,6.13,6.13,0,0,1,3.65,6.36c-.19,1.28.44,2.69,1.14.93C218.56,100.71,217.53,97.94,216.86,96.69Z" transform="translate(-48.7 -38.95)" fill="url(#linear-gradient-38)"/><path d="M136.46,146.81a7,7,0,0,0-2.65,6.21,1.23,1.23,0,0,0,1.2-.78,5.7,5.7,0,0,0,.36-1.49,6.14,6.14,0,0,1,5.53-4.81c1.3-.06,2.56-.95.69-1.3C140.07,144.36,137.56,145.91,136.46,146.81Z" transform="translate(-48.7 -38.95)" fill="#68e1fd"/><path d="M136.46,146.81a7,7,0,0,0-2.65,6.21,1.23,1.23,0,0,0,1.2-.78,5.7,5.7,0,0,0,.36-1.49,6.14,6.14,0,0,1,5.53-4.81c1.3-.06,2.56-.95.69-1.3C140.07,144.36,137.56,145.91,136.46,146.81Z" transform="translate(-48.7 -38.95)" fill="url(#linear-gradient-39)"/><path d="M171.53,142.27c1.27,1.55,1.44,4.15-.12,5.4-.69.55-1.6.78-2.23,1.39a10.05,10.05,0,0,0-1.22,2,5.15,5.15,0,0,1-6.61,1.64,6.09,6.09,0,0,1-2.9-6.38,3.29,3.29,0,0,1,1.76-2.55,14,14,0,0,0,1.34-.43c1.84-1,1.26-3.71,3.71-4C167.26,139.06,170.33,140.79,171.53,142.27Z" transform="translate(-48.7 -38.95)" fill="#68e1fd"/><path d="M165.31,140.43a1.78,1.78,0,0,1,1.62.16,11.15,11.15,0,0,1,2.81,1.7,4.42,4.42,0,0,1,1.55,2.81,1.18,1.18,0,0,1-.17.85,1.46,1.46,0,0,1-.63.39,4.75,4.75,0,0,1-1.33.35,1.74,1.74,0,0,1-1.28-.39.93.93,0,0,1-.32-.66.56.56,0,0,1,.45-.53c.29,0,.55.24.85.24a.67.67,0,0,0,.61-.7,1.49,1.49,0,0,0-.43-.93,4.36,4.36,0,0,0-2.31-1.41.33.33,0,0,0-.26,0c-.22.1-.1.43,0,.63.28.44.45,1.12,0,1.41s-.87,0-1.21-.3C164.48,143.35,164.21,141.12,165.31,140.43Z" transform="translate(-48.7 -38.95)" fill="url(#linear-gradient-40)"/><path d="M161.56,144.77a2.07,2.07,0,0,0-1,.46,2.36,2.36,0,0,0-.56.8,3.9,3.9,0,0,0,.24,4.09,5.2,5.2,0,0,0,2.48,1.51,7.23,7.23,0,0,0,2.15.49,2.12,2.12,0,0,0,1.78-.69A2,2,0,0,0,167,150a2,2,0,0,0-1.27-1.89.71.71,0,0,0-.87.42c0,.25.1.5.07.76,0,.45-.68.64-1.09.43a2.2,2.2,0,0,1-.83-1.06,2.47,2.47,0,0,1-.31-.86A.9.9,0,0,1,163,147a1.88,1.88,0,0,1,.92-.2c1-.1.76-.91.22-1.36A3.23,3.23,0,0,0,161.56,144.77Z" transform="translate(-48.7 -38.95)" fill="url(#linear-gradient-41)"/><path d="M165.86,141.77a.61.61,0,0,0,.08.27s0,0,.06.05a.17.17,0,0,0,.15,0,.34.34,0,0,0,.27-.4,2.48,2.48,0,0,0,0-.27c0-.19-.19-.49-.43-.35S165.84,141.59,165.86,141.77Z" transform="translate(-48.7 -38.95)" fill="#68e1fd"/><path d="M167.11,142.27c.06.06.16,0,.23,0l.21-.11a.41.41,0,0,0,.22-.21.28.28,0,0,0,0-.2C167.6,141.14,167.17,142.05,167.11,142.27Z" transform="translate(-48.7 -38.95)" fill="#68e1fd"/><path d="M168.8,142.79a.54.54,0,0,0-.1.16.14.14,0,0,0,.07.16h.11a3.17,3.17,0,0,0,.44-.12.27.27,0,0,0,.13-.07c.09-.12-.06-.43-.2-.46S168.89,142.68,168.8,142.79Z" transform="translate(-48.7 -38.95)" fill="#68e1fd"/><path d="M161.29,146.07a.22.22,0,0,0-.14,0s0,0-.06.06a.41.41,0,0,0-.06.42.58.58,0,0,0,.12.1c.2.13,1.06.48,1.13.06S161.55,146.14,161.29,146.07Z" transform="translate(-48.7 -38.95)" fill="#68e1fd"/><path d="M170,144a.87.87,0,0,0-.23,0,.22.22,0,0,0-.17.15.23.23,0,0,0,.07.2.54.54,0,0,0,.18.11.38.38,0,0,0,.36,0,.28.28,0,0,0,.05-.37.76.76,0,0,0-.3-.26" transform="translate(-48.7 -38.95)" fill="#68e1fd"/></svg>