<svg id="Layer_1" data-name="Layer 1" xmlns="http://www.w3.org/2000/svg" xmlns:xlink="http://www.w3.org/1999/xlink" viewBox="0 0 457.64 420.66"><defs><linearGradient id="linear-gradient" x1="234.38" y1="314.47" x2="216.33" y2="875.17" gradientUnits="userSpaceOnUse"><stop offset="0" stop-color="#010101" stop-opacity="0"/><stop offset="0.95" stop-color="#010101"/></linearGradient><linearGradient id="linear-gradient-2" x1="318.06" y1="383.44" x2="253.99" y2="186.72" xlink:href="#linear-gradient"/><linearGradient id="linear-gradient-3" x1="297.72" y1="324.14" x2="214.7" y2="331.96" xlink:href="#linear-gradient"/><linearGradient id="linear-gradient-4" x1="169.91" y1="42.64" x2="362.56" y2="24.89" gradientTransform="translate(59.57 52.55) rotate(7.67)" gradientUnits="userSpaceOnUse"><stop offset="0" stop-color="#fff" stop-opacity="0"/><stop offset="0.95" stop-color="#fff"/></linearGradient><linearGradient id="linear-gradient-5" x1="140.12" y1="45.08" x2="307.7" y2="29.64" xlink:href="#linear-gradient-4"/></defs><title>Smiley - smile</title><path d="M211.75,36.81c-22.17,9.15-37.39,29.83-48.69,51s-20,44-34.86,62.8c-10,12.67-22.44,23.17-33.06,35.31-31.43,35.89-45.31,86.46-36.61,133.37s39.78,89.14,82,111.38c48,25.3,105.86,24.36,158.87,12.84,29.77-6.47,59.43-16.11,89.87-14.9,10.19.41,20.62,2,30.43-.77,10.42-2.95,18.86-10.49,26.52-18.16,21.89-21.88,41-47,53.13-75.45,29.24-68.5,12.52-154.07-40.37-206.52-12.8-12.7-27.37-23.48-40.4-35.95-11.55-11-21.87-23.38-34.3-33.41C360.33,39,329.65,30.07,299.12,31.54,271.2,32.89,238,26,211.75,36.81Z" transform="translate(-55.98 -30.59)" fill="#68e1fd" opacity="0.24" style="isolation:isolate"/><path d="M333.3,151.72c4.23-9.18,3.23-19.38,3.47-29.22a10.79,10.79,0,0,1,1-5.15c1.53-2.75,5.21-4.29,8.8-4.57a21.64,21.64,0,0,1,3.32,0,7.93,7.93,0,0,1,7.33,8c-.16,16.11-1.6,32.59-11.59,46.12-4.21,5.7-9.77,10.6-15.55,15.23-5.3,4.25-10.88,8.35-17.32,11.28a15.48,15.48,0,0,1-7.61,1.77,10.24,10.24,0,0,1-8.18-6c-1.61-3.49-3.35-12.66,0-15.8,2.6-2.44,9.47-4.91,13-5.93C320.57,164.45,329.25,160.5,333.3,151.72Z" transform="translate(-55.98 -30.59)" fill="#68e1fd"/><ellipse cx="232.11" cy="385.04" rx="89.64" ry="13.84" opacity="0.48" fill="url(#linear-gradient)"/><path d="M302.75,388.7l.35,7.65a10.22,10.22,0,0,1-6.83,6.28,9.9,9.9,0,0,1-8.6-1.76l.55-12.83" transform="translate(-55.98 -30.59)" fill="#c8a59c"/><path d="M273,395.68l.35,7.66a10.22,10.22,0,0,1-6.83,6.28,9.89,9.89,0,0,1-8.6-1.77l.55-12.82" transform="translate(-55.98 -30.59)" fill="#c8a59c"/><path d="M308.81,263.23l-5.09,127.22a12,12,0,0,1-6.71,2.33c-4.7.27-5.55.61-8.93-2.47L273.3,256.89l35.51-.75Z" transform="translate(-55.98 -30.59)" fill="#606161"/><path d="M308.81,263.23l-5.09,127.22a12,12,0,0,1-6.71,2.33c-4.7.27-5.55.61-8.93-2.47L273.3,256.89l35.51-.75Z" transform="translate(-55.98 -30.59)" fill="url(#linear-gradient-2)"/><path d="M288.7,274.65,274.06,398.39s-2.12,2.17-7.86,2.24c-6.54.09-7.13-.8-8.59-4.11l-2.87-141.93,33.61,5.73Z" transform="translate(-55.98 -30.59)" fill="#606161"/><path d="M288.7,274.65,274.06,398.39s-2.12,2.17-7.86,2.24c-6.54.09-7.13-.8-8.59-4.11l-2.87-141.93,33.61,5.73Z" transform="translate(-55.98 -30.59)" fill="url(#linear-gradient-3)"/><path d="M293.31,262.27a76.65,76.65,0,0,1-14.11,3.31c-6.36.65-13-2.42-18-2.68-6.66-.34-6.84-.55-6.84-4.89,0-2.19,55.32-7.42,55.32-7.42s-.26,4-.24,7.69c0,2.77-1.18,2.62-6.22,2.91S297.22,260,293.31,262.27Z" transform="translate(-55.98 -30.59)" fill="#f2fbff"/><path d="M271.48,164.58s-9.28,2.41-15.9,7.23c-4.09,3-1.26,86.2-1.26,86.2.4-.07,18.18,7.14,35.37,4.18,14.64-2.53,19.92-9.4,19.92-9.4s1.32-79.85-1.52-83.13c-1.28-1.47-15.2-6.6-15.2-6.6S286.81,172.19,271.48,164.58Z" transform="translate(-55.98 -30.59)" fill="#68e1fd"/><path d="M274.51,146.09l-3,18.49s6.8,10,15.39,8.47,6.46-5.5,6.46-5.5l-1.12-15.62S284.45,153.3,274.51,146.09Z" transform="translate(-55.98 -30.59)" fill="#c8a59c"/><path d="M273.45,152.59l1.06-6.5c9.94,7.21,15.09,4.15,15.09,4.15l2.4,8.39a8,8,0,0,1-5.11,2.45C282.13,161.42,277.31,157.7,273.45,152.59Z" transform="translate(-55.98 -30.59)" fill="#b58b81"/><path d="M292.72,164.93a26.39,26.39,0,0,1-3.44,7.57c.84.33,6.34,4.16,6.44,6.77,0,0,5.46-12.38,3.21-14.33a56.84,56.84,0,0,0-5.82-2.59Z" transform="translate(-55.98 -30.59)" fill="#f2fbff"/><path d="M273.25,164.93a13.38,13.38,0,0,0,6.86,7.2c-.84.33-9.76,4.53-9.86,7.14,0,0-5.47-12.38-3.21-14.33.6-.53,5.1-4.24,5.1-4.24Z" transform="translate(-55.98 -30.59)" fill="#f2fbff"/><path d="M266.73,132.63c.73,10.26,11.25,28.38,21.51,27.65s13.23-21.95,12.5-32.21S294.25,112,284,112.73A18.63,18.63,0,0,0,266.73,132.63Z" transform="translate(-55.98 -30.59)" fill="#c8a59c"/><path d="M292.84,149.68s-.29-.25-2.44-.09a32.3,32.3,0,0,1-7.62-.54c-1.65-.43-2.44-.17-2.28,2s1.92,4.2,6.26,4.43c4.88.26,6.93-1.58,7.31-3.77C294.35,150.17,293.38,149.65,292.84,149.68Z" transform="translate(-55.98 -30.59)" fill="#c8a59c"/><polygon points="250.94 162.02 242.31 163.69 241.89 161.03 250.53 159.35 250.94 162.02" fill="#f2fbff"/><circle cx="226.76" cy="89.45" r="50.48" fill="#68e1fd"/><path d="M332.75,126.77A50.47,50.47,0,1,1,289.05,70l.41,0A50.46,50.46,0,0,1,332.75,126.77Z" transform="translate(-55.98 -30.59)" fill="url(#linear-gradient-4)"/><path d="M332.75,126.77a50.47,50.47,0,0,1-43.18,43.29l-.41-.05A50.49,50.49,0,0,1,289.05,70l.41,0A50.46,50.46,0,0,1,332.75,126.77Z" transform="translate(-55.98 -30.59)" fill="url(#linear-gradient-5)"/><circle cx="208.27" cy="81.31" r="4.96" fill="#68e1fd"/><circle cx="239.55" cy="81.31" r="4.96" fill="#68e1fd"/><path d="M240.49,417.17c-1,1.18-1.91,2.6-1.17,3.86a5.25,5.25,0,0,0,3,1.85,30.62,30.62,0,0,0,13.16.83A61.65,61.65,0,0,0,268,420.36a13.15,13.15,0,0,0,3.25-1.53c1.95-1.4,2.45-3.52,2.69-5.5a35.44,35.44,0,0,0,0-8.17,1.87,1.87,0,0,0-1.24-1.81,3.86,3.86,0,0,0-1.84.14,61.81,61.81,0,0,1-10.41,1.58,13.28,13.28,0,0,0-4.6.93C250.62,407.74,243.33,413.72,240.49,417.17Z" transform="translate(-55.98 -30.59)" fill="#606161"/><path d="M287.65,413.22a3.41,3.41,0,0,0,.88,2.24,6.7,6.7,0,0,0,2.93,1.2c9,2.14,18.45,4.06,27.76,2.91,2.08-.25,4.27-.72,5.6-1.9a3.92,3.92,0,0,0,.61-5,16.35,16.35,0,0,0-4.28-4.26c-4-3.1-12.87-8.21-16.83-11.31a3.79,3.79,0,0,0-1.22-.72,5.37,5.37,0,0,0-2.08-.05c-3.64.41-2.39,3-6.07,3.09-1.71,0-4.38-.49-5.89.28C285.27,401.59,287.34,410.35,287.65,413.22Z" transform="translate(-55.98 -30.59)" fill="#606161"/><path d="M237,191.48c-3.82,7.79-5.47,16.19-7.1,24.5l-8,40.64c-.66,3.38-1.32,6.88-.27,10.19a9.43,9.43,0,0,0,8.36,6.54,10.12,10.12,0,0,0,8.54-4.62c1.72-2.62,2.22-5.67,2.67-8.64,2-13.54,3.64-27.33,9.72-40,3.9-8.14,9.61-15.71,12.07-24.24,1.51-5.21,2.36-20.33-5.93-22.82C249.42,170.73,239.35,186.76,237,191.48Z" transform="translate(-55.98 -30.59)" fill="#68e1fd"/><path d="M237.66,276.91c-.79.17-1.38-.71-1.75-1.44s-1.06-1.57-1.82-1.28a1.38,1.38,0,0,0-.72.84,5.7,5.7,0,0,0-.28,2.25,19.35,19.35,0,0,0,1.16,6,11.69,11.69,0,0,1,.89,3,2.81,2.81,0,0,1-1.22,2.73c-1.38.74-3-.37-4.06-1.52a25.35,25.35,0,0,1-6.54-19.59c.19-1.78.67-3.72,2.12-4.75a5.44,5.44,0,0,1,1.9-.81C237.83,259.67,239.3,268.37,237.66,276.91Z" transform="translate(-55.98 -30.59)" fill="#c8a59c"/><path d="M338,107.5a9.91,9.91,0,0,1-1.63-3.14,3.34,3.34,0,0,1,.81-3.27,17.13,17.13,0,0,0,3.22,1.42,1.45,1.45,0,0,0,.82.1c.87-.22.73-1.5.39-2.34l-2.76-6.71c-.68-1.66-1.35-3.63-.43-5.18a3.81,3.81,0,0,1,3.26-1.64,8.5,8.5,0,0,1,3.63,1,20.11,20.11,0,0,1,9,8.64,16.76,16.76,0,0,1,1.29,12.32,8.33,8.33,0,0,1-2.65,4.29,10.36,10.36,0,0,1-2.61,1.33c-2.44.92-5.57,2-7.74.09C340.71,112.79,339.35,109.54,338,107.5Z" transform="translate(-55.98 -30.59)" fill="#c8a59c"/><path d="M262.6,136.12l2.66-1.73c3.52,3.69,9.45,6.86,19.52,6.89h.12c7.79,0,13-2.72,16.45-6.12l2.21,2.21c-4,3.91-9.87,7.12-18.66,7.12h-.16C273.24,144.46,266.51,140.55,262.6,136.12Z" transform="translate(-55.98 -30.59)" fill="#68e1fd"/></svg>