<svg id="Layer_1" data-name="Layer 1" xmlns="http://www.w3.org/2000/svg" xmlns:xlink="http://www.w3.org/1999/xlink" viewBox="0 0 175.18 320.86"><defs><linearGradient id="linear-gradient" x1="273.48" y1="96.86" x2="241.53" y2="81.11" gradientUnits="userSpaceOnUse"><stop offset="0" stop-opacity="0"/><stop offset="0.95"/></linearGradient><linearGradient id="linear-gradient-2" x1="244.1" y1="125.32" x2="258.15" y2="111.12" xlink:href="#linear-gradient"/><linearGradient id="linear-gradient-3" x1="255.42" y1="65.86" x2="264.83" y2="65.86" gradientUnits="userSpaceOnUse"><stop offset="0" stop-color="#e5c5d5"/><stop offset="0.42" stop-color="#ead4d1"/><stop offset="1" stop-color="#f0e9cb"/></linearGradient><linearGradient id="linear-gradient-4" x1="231.66" y1="118.58" x2="281.35" y2="39.59" xlink:href="#linear-gradient"/><linearGradient id="linear-gradient-5" x1="243.53" y1="67.48" x2="254.16" y2="47.47" xlink:href="#linear-gradient"/><linearGradient id="linear-gradient-6" x1="-1.93" y1="-248.97" x2="13.01" y2="-248.97" gradientTransform="matrix(0.99, 0.14, -0.14, 0.99, 220.08, 260.21)" xlink:href="#linear-gradient-3"/><linearGradient id="linear-gradient-7" x1="254.63" y1="46.47" x2="234.22" y2="46.62" xlink:href="#linear-gradient"/><linearGradient id="linear-gradient-8" x1="254.77" y1="113.7" x2="264.27" y2="113.7" xlink:href="#linear-gradient"/></defs><title>Step 3</title><path d="M261.35,322H157.47L210.76,149.6a50,50,0,0,1,48.15-36.49h0a50,50,0,0,1,48.14,63.53Z" transform="translate(-133.77 -1.1)" fill="#68e1fd"/><path d="M275.34,178.43a6.6,6.6,0,0,0,1.75,4,9.72,9.72,0,0,0,7.2,2.7c4.89,0,8-2.45,8-6.26a5.44,5.44,0,0,0-3.39-5.39,18.05,18.05,0,0,0-5.82-.81c-2.44,0-5.26.12-7.7.37V162.27a55,55,0,0,0,6.64.38c5.94,0,8.89-2,8.89-6,0-3.38-2.38-5.32-6.51-5.32-4.45,0-6.71,1.76-7.64,5.76l-13.53-1.94c1.19-3.88,2.19-5.76,4.2-7.95,3.82-4.13,9.58-6.26,17.22-6.26,6.82,0,12.46,1.88,16,5.32a12.15,12.15,0,0,1,3.5,8.89c0,6.64-3.57,10.77-10.77,12.46,3.82.57,5.89,1.44,8.08,3.32a12.34,12.34,0,0,1,4.13,9.27,14,14,0,0,1-2.5,8.33,15.74,15.74,0,0,1-5.89,4.7,33.81,33.81,0,0,1-13,2.44c-5.64,0-11.27-1.32-14.59-3.51a17,17,0,0,1-6.45-8.08,22.49,22.49,0,0,1-1.07-3.32Z" transform="translate(-133.77 -1.1)" fill="#fff"/><path d="M207.11,188.3a2.5,2.5,0,0,0,.5,1.4,2.74,2.74,0,0,0,2.21.89c1.45,0,2.32-.65,2.32-1.71a1.43,1.43,0,0,0-.79-1.32,15.15,15.15,0,0,0-2.84-.77,7.35,7.35,0,0,1-3-1.1,4.26,4.26,0,0,1-1.83-3.63c0-2.91,2.34-4.74,6.06-4.74,2.4,0,4.24.73,5.26,2.15a5.25,5.25,0,0,1,.94,2.27l-4,.43c-.23-1.22-.91-1.73-2.35-1.73-1.15,0-2,.62-2,1.49a1.29,1.29,0,0,0,.89,1.21,11.31,11.31,0,0,0,2.61.62,9.4,9.4,0,0,1,3.06,1.08,4.23,4.23,0,0,1,2,3.86,4.72,4.72,0,0,1-1.32,3.47,6.92,6.92,0,0,1-5,1.61,8.93,8.93,0,0,1-4.22-.93,4.49,4.49,0,0,1-2-2.42,7.19,7.19,0,0,1-.42-1.75Z" transform="translate(-133.77 -1.1)" fill="#fff"/><path d="M226.17,190.57a20.33,20.33,0,0,0,.16,2.85h-4.18a21.51,21.51,0,0,0,.15-2.85V181h-2.23a26.3,26.3,0,0,0-2.85.13v-3.61a24.36,24.36,0,0,0,2.81.14h8.28a23.7,23.7,0,0,0,2.95-.14v3.61a25.46,25.46,0,0,0-2.95-.13h-2.14Z" transform="translate(-133.77 -1.1)" fill="#fff"/><path d="M244.57,193.55a25.14,25.14,0,0,0-3.11-.13h-6c-1.44,0-2,0-2.78.06a16.75,16.75,0,0,0,.15-2.76V180.4a19.12,19.12,0,0,0-.15-2.76c.78,0,1.31.06,2.78.06h6a22,22,0,0,0,2.82-.14v3.54a22.23,22.23,0,0,0-2.82-.13h-4.91v2.77h4.08a23.18,23.18,0,0,0,2.83-.13v3.5a22.2,22.2,0,0,0-2.83-.13h-4.08v3.17h4.87a26.59,26.59,0,0,0,3.08-.13Z" transform="translate(-133.77 -1.1)" fill="#fff"/><path d="M246.51,193.42a20.81,20.81,0,0,0,.15-2.8V180.4a21.78,21.78,0,0,0-.15-2.76c.89,0,1.57.06,2.78.06h4.14c3.74,0,5.8,1.79,5.8,5.08s-2.16,5.37-5.82,5.37h-3v2.42a25.57,25.57,0,0,0,.15,2.85Zm6.73-8.49a1.89,1.89,0,0,0,2.1-2,1.83,1.83,0,0,0-2.1-2h-2.82v4Z" transform="translate(-133.77 -1.1)" fill="#fff"/><path d="M135.11,288.84c-2.89-13.75-.9-28.23,4-41.4,2.66-7.18,6.18-14.14,7.4-21.7,1-6.26.38-12.67-.47-19-3-21.9-8.5-43.81-6.43-65.82.55-5.85,1.69-11.77,4.51-16.93s7.55-9.5,13.29-10.77c8.52-1.88,25-6.86,41,4,12,8.2,14.72,21.39,20.12,34.91,4.53,11.35-6.12,29.37-3.47,41.3l10.85,48.72c1.43,6.43,2.87,13.09,1.58,19.56-1.67,8.3-7.57,15-13.55,21-14.06,14.09-30.18,27.62-47.66,37.3C150.39,328.83,137.75,301.4,135.11,288.84Z" transform="translate(-133.77 -1.1)" fill="#68e1fd" opacity="0.24" style="isolation:isolate"/><path d="M259.73,112.24a1.94,1.94,0,0,1-.37.9,2.06,2.06,0,0,1-1.48.48c-1.1,0-2.42,0-3-.94a3.22,3.22,0,0,1-.33-1.57c-.1-3.58.17-7.17.19-10.76.07-9.36-1.46-18.66-2.17-28a12.82,12.82,0,0,1,.56-6c.48-1.12,1.89-2.94,3.29-2.95s1.5,1.22,1.84,2.36A86.33,86.33,0,0,1,260.79,77a93.5,93.5,0,0,1,.87,22.67A92.48,92.48,0,0,1,259.73,112.24Z" transform="translate(-133.77 -1.1)" fill="#68e1fd"/><path d="M259.73,112.24a1.94,1.94,0,0,1-.37.9,2.06,2.06,0,0,1-1.48.48c-1.1,0-2.42,0-3-.94a3.22,3.22,0,0,1-.33-1.57c-.1-3.58.17-7.17.19-10.76.07-9.36-1.46-18.66-2.17-28a12.82,12.82,0,0,1,.56-6c.48-1.12,1.89-2.94,3.29-2.95s1.5,1.22,1.84,2.36A86.33,86.33,0,0,1,260.79,77a93.5,93.5,0,0,1,.87,22.67A92.48,92.48,0,0,1,259.73,112.24Z" transform="translate(-133.77 -1.1)" fill="url(#linear-gradient)"/><path d="M244.11,122c3,1.51,6.55,1.39,9.91,1.74a2.72,2.72,0,0,0,2-.3,1.89,1.89,0,0,0,.52-1.75,6.44,6.44,0,0,0-2.25-3.36c-2.5-2.39-6.16-4.29-9.75-3.1A3.59,3.59,0,0,0,244.11,122Z" transform="translate(-133.77 -1.1)" fill="url(#linear-gradient-2)"/><path d="M263.06,68.82a2.07,2.07,0,0,0,1.65-.87c.38-.76-.19-1.67-.85-2.2s-1.49-.93-1.88-1.69a4.09,4.09,0,0,0-.3-.59A1.57,1.57,0,0,0,261,63c-1.66-.62-6.37.46-5.4,3C256.45,68.47,260.91,69.11,263.06,68.82Z" transform="translate(-133.77 -1.1)" fill="url(#linear-gradient-3)"/><path d="M247.05,97.72c-.48,6.09-3.85,11.61-4.9,17.63a2.79,2.79,0,0,0,.06,1.67c.4.86,1.47,1.13,2.41,1.3,1.79.32,3.71.63,5.37-.12,2.75-1.25,3.53-4.69,4-7.67l1.56-10.31c1.66-11,3.31-22.3,1.28-33.27a1.79,1.79,0,0,0-2.15-1.73c-6.4-.26-12.68,1.88-12,9C243.41,82.13,247.69,89.61,247.05,97.72Z" transform="translate(-133.77 -1.1)" fill="#68e1fd"/><path d="M247.05,97.72c-.48,6.09-3.85,11.61-4.9,17.63a2.79,2.79,0,0,0,.06,1.67c.4.86,1.47,1.13,2.41,1.3,1.79.32,3.71.63,5.37-.12,2.75-1.25,3.53-4.69,4-7.67l1.56-10.31c1.66-11,3.31-22.3,1.28-33.27a1.79,1.79,0,0,0-2.15-1.73c-6.4-.26-12.68,1.88-12,9C243.41,82.13,247.69,89.61,247.05,97.72Z" transform="translate(-133.77 -1.1)" fill="url(#linear-gradient-4)"/><path d="M248.37,22.59c-2.39,1.42-3.82,4-4.7,6.65a48.84,48.84,0,0,0-1.82,10c-1.06,9.5-2.11,19.16-.46,28.58a3.44,3.44,0,0,0,1.17,2.4,3.13,3.13,0,0,0,1.77.36c3.25-.08,6.31-1.46,9.27-2.82,2.6-1.2,5.32-2.5,7-4.85,1.94-2.79,1.93-6.44,1.86-9.84l-.25-10.84a42,42,0,0,0-1-10.08C259.79,27.1,254.49,19,248.37,22.59Z" transform="translate(-133.77 -1.1)" fill="#68e1fd"/><path d="M240.66,59.16c-.08,1.71,3.29,3.52,4.77,4.38,2.15,1.26,4.07,3.35,6.22,4.61.95.55,2.22-2,3.26-2.37a2.52,2.52,0,0,0,1.43-2.58,6,6,0,0,0-1.23-2.87,34.32,34.32,0,0,0-7.18-7.21c-1.35-1-4.86-3.74-6.57-2.1C239.93,52.4,240.89,54.5,240.66,59.16Z" transform="translate(-133.77 -1.1)" fill="url(#linear-gradient-5)"/><path d="M266.08,7.52c1.42,2.82.86,6.18.27,9.28a11,11,0,0,1-.85,2.93,3.72,3.72,0,0,1-2.2,2c-1.32.37-2.9-.25-4,.52s-1.25,2.85-2.56,3.52c-1,.53-2.26-.07-3.26-.66a5.25,5.25,0,0,1-2.58-2.55,5.26,5.26,0,0,1,.23-3L254,9.05A8.38,8.38,0,0,1,256,5a8.31,8.31,0,0,1,3.36-1.6A10.31,10.31,0,0,1,264,2.74a3.51,3.51,0,0,1,3.09,3" transform="translate(-133.77 -1.1)" fill="url(#linear-gradient-6)"/><path d="M267,7.74c-1.18.74-2.69.54-4,.85a5.44,5.44,0,0,0-4,3.68c-.11.34-.26.76-.61.77s-.55-.42-.82-.68a1.26,1.26,0,0,0-1.84.33,2.24,2.24,0,0,0,0,2.06,2.2,2.2,0,0,1,.29.92,1.65,1.65,0,0,1-.31.78l-1.13,1.83a2.43,2.43,0,0,1-.74.85,1.68,1.68,0,0,1-2.08-.68,6.23,6.23,0,0,1-.76-2.26c-.19-.82-.46-1.62-.61-2.44a9.13,9.13,0,0,1,1.08-6.16,18.19,18.19,0,0,1,4.13-4.41,11.91,11.91,0,0,1,1.77-1.31c2-1.07,4.36-.85,6.55-.4a4.92,4.92,0,0,1,2.39,1c.63.57,1.77,1.5,2,2.31A2.94,2.94,0,0,1,267,7.74Z" transform="translate(-133.77 -1.1)" fill="#606060"/><path d="M254.63,53.28c-1.23-5,1.38-10,1.33-15.12a6.56,6.56,0,0,0-.49-2.67,2.86,2.86,0,0,0-4.65-1.06,7,7,0,0,0-1.71,2.29c-2,3.83-2.56,8.22-2.75,12.52a6.93,6.93,0,0,0,.75,4.18,8,8,0,0,0,3,2.27,36.11,36.11,0,0,1,3.79,2.46c.87.65,3.66,2.21,2.65,0A28.67,28.67,0,0,1,254.63,53.28Z" transform="translate(-133.77 -1.1)" fill="url(#linear-gradient-7)"/><path d="M238.67,43.7a9.09,9.09,0,0,0-1.11,3.94,8.74,8.74,0,0,0,2.13,4.71A82.2,82.2,0,0,0,251.26,65a7,7,0,0,0,2.32,1.54,5,5,0,0,0,4.07-.59,15.27,15.27,0,0,0,3.19-2.77l-5.23-5.82c-2.21-2.46-6.5-5.68-6.83-9-.29-2.85,2.65-6.43,3.7-9.09s2.2-4.33,1.13-7c-1.35-3.32-6.61-5.35-9-1.94-1.1,1.6-1.71,3.85-2.5,5.61Z" transform="translate(-133.77 -1.1)" fill="#68e1fd"/><path d="M244.11,122c3,1.51,6.55,1.39,9.91,1.74a2.72,2.72,0,0,0,2-.3,1.89,1.89,0,0,0,.52-1.75,6.44,6.44,0,0,0-2.25-3.36c-2.5-2.39-6.16-4.29-9.75-3.1A3.59,3.59,0,0,0,244.11,122Z" transform="translate(-133.77 -1.1)" fill="none"/><path d="M255,113.11a2.12,2.12,0,0,0,1.52,2,29.87,29.87,0,0,0,7.06,1.86.67.67,0,0,0,.65-.12.62.62,0,0,0,.08-.42c-.14-1.49-1.26-2.66-2.32-3.7l-1.63-1.61a1.8,1.8,0,0,0-1.54-.67,22.61,22.61,0,0,0-2.47,0,2.54,2.54,0,0,0-1,.2C254.44,111.06,254.84,112.35,255,113.11Z" transform="translate(-133.77 -1.1)" fill="#68e1fd"/><path d="M255,113.11a2.12,2.12,0,0,0,1.52,2,29.87,29.87,0,0,0,7.06,1.86.67.67,0,0,0,.65-.12.62.62,0,0,0,.08-.42c-.14-1.49-1.26-2.66-2.32-3.7l-1.63-1.61a1.8,1.8,0,0,0-1.54-.67,22.61,22.61,0,0,0-2.47,0,2.54,2.54,0,0,0-1,.2C254.44,111.06,254.84,112.35,255,113.11Z" transform="translate(-133.77 -1.1)" fill="url(#linear-gradient-8)"/></svg>