<svg id="Layer_1" data-name="Layer 1" xmlns="http://www.w3.org/2000/svg" xmlns:xlink="http://www.w3.org/1999/xlink" viewBox="0 0 405.3 389.61"><defs><linearGradient id="linear-gradient" x1="166.72" y1="280.65" x2="-9.1" y2="426.92" gradientUnits="userSpaceOnUse"><stop offset="0" stop-color="#010101" stop-opacity="0"/><stop offset="0.95" stop-color="#010101"/></linearGradient><linearGradient id="linear-gradient-2" x1="132.32" y1="315.29" x2="341.34" y2="312.7" gradientTransform="translate(338.18 629.66) rotate(-180)" xlink:href="#linear-gradient"/><linearGradient id="linear-gradient-3" x1="214.44" y1="250.47" x2="133.33" y2="291.32" xlink:href="#linear-gradient"/><linearGradient id="linear-gradient-4" x1="282.41" y1="236.52" x2="126.81" y2="311.99" xlink:href="#linear-gradient"/><linearGradient id="linear-gradient-5" x1="188.39" y1="249.41" x2="186.84" y2="301.28" xlink:href="#linear-gradient"/><linearGradient id="linear-gradient-6" x1="198.58" y1="272.53" x2="195.47" y2="372.89" xlink:href="#linear-gradient"/><linearGradient id="linear-gradient-8" x1="169.67" y1="271.64" x2="166.56" y2="372" xlink:href="#linear-gradient"/><linearGradient id="linear-gradient-9" x1="140.22" y1="314.42" x2="254.32" y2="387.03" xlink:href="#linear-gradient"/><linearGradient id="linear-gradient-11" x1="148.02" y1="302.15" x2="262.13" y2="374.76" xlink:href="#linear-gradient"/><linearGradient id="linear-gradient-12" x1="133.05" y1="266.62" x2="133.7" y2="250.8" xlink:href="#linear-gradient"/><linearGradient id="linear-gradient-13" x1="178.95" y1="274.14" x2="200.47" y2="271.16" xlink:href="#linear-gradient"/><linearGradient id="linear-gradient-14" x1="189.26" y1="264.71" x2="190.36" y2="314.69" xlink:href="#linear-gradient"/><linearGradient id="linear-gradient-15" x1="196.62" y1="258.1" x2="196.62" y2="297" xlink:href="#linear-gradient"/><linearGradient id="linear-gradient-16" x1="197.7" y1="264.52" x2="198.8" y2="314.51" xlink:href="#linear-gradient"/><linearGradient id="linear-gradient-17" x1="194.82" y1="276.53" x2="213.76" y2="270.3" xlink:href="#linear-gradient"/><linearGradient id="linear-gradient-20" x1="206.13" y1="264.34" x2="207.23" y2="314.32" xlink:href="#linear-gradient"/><linearGradient id="linear-gradient-21" x1="133.35" y1="265.79" x2="133.35" y2="315.19" xlink:href="#linear-gradient"/><linearGradient id="linear-gradient-22" x1="96.41" y1="306.02" x2="58.54" y2="307.84" xlink:href="#linear-gradient"/><linearGradient id="linear-gradient-23" x1="151.6" y1="264.6" x2="132.35" y2="265.38" xlink:href="#linear-gradient"/><linearGradient id="linear-gradient-24" x1="88.09" y1="268.36" x2="66.83" y2="268.49" xlink:href="#linear-gradient"/><linearGradient id="linear-gradient-25" x1="144.83" y1="266.01" x2="143.18" y2="288.87" xlink:href="#linear-gradient"/><linearGradient id="linear-gradient-26" x1="148.88" y1="266.31" x2="147.23" y2="289.16" xlink:href="#linear-gradient"/><linearGradient id="linear-gradient-29" x1="152.93" y1="266.6" x2="151.28" y2="289.45" xlink:href="#linear-gradient"/><linearGradient id="linear-gradient-30" x1="71.86" y1="292.97" x2="10.14" y2="294" xlink:href="#linear-gradient"/><linearGradient id="linear-gradient-31" x1="53.71" y1="261.1" x2="52.06" y2="281.13" xlink:href="#linear-gradient"/><linearGradient id="linear-gradient-32" x1="52.51" y1="290.04" x2="54.07" y2="327.19" xlink:href="#linear-gradient"/><linearGradient id="linear-gradient-33" x1="122.8" y1="232.76" x2="98.04" y2="236.52" xlink:href="#linear-gradient"/><linearGradient id="linear-gradient-34" x1="112.48" y1="230.35" x2="110.34" y2="284.03" xlink:href="#linear-gradient"/><linearGradient id="linear-gradient-35" x1="118.15" y1="230.58" x2="116.01" y2="284.26" xlink:href="#linear-gradient"/><linearGradient id="linear-gradient-38" x1="123.83" y1="230.8" x2="121.69" y2="284.48" xlink:href="#linear-gradient"/><linearGradient id="linear-gradient-39" x1="54.49" y1="220.94" x2="51.63" y2="287.59" xlink:href="#linear-gradient"/><linearGradient id="linear-gradient-40" x1="54.95" y1="220.96" x2="52.1" y2="287.61" xlink:href="#linear-gradient"/><linearGradient id="linear-gradient-41" x1="189.61" y1="257.91" x2="183.77" y2="419.35" xlink:href="#linear-gradient"/><linearGradient id="linear-gradient-42" x1="253.48" y1="279.08" x2="249.2" y2="382.94" xlink:href="#linear-gradient"/><linearGradient id="linear-gradient-43" x1="244.47" y1="320.9" x2="288.17" y2="317.66" xlink:href="#linear-gradient"/><linearGradient id="linear-gradient-44" x1="3557.72" y1="284.9" x2="3381.9" y2="431.16" gradientTransform="matrix(1, 0, 0, -1, -3215.47, 625.79)" xlink:href="#linear-gradient"/><linearGradient id="linear-gradient-45" x1="3459.6" y1="315.3" x2="3668.62" y2="312.71" gradientTransform="matrix(-1, 0, 0, 1, 3768.94, -4.23)" xlink:href="#linear-gradient"/><linearGradient id="linear-gradient-46" x1="3541.72" y1="250.48" x2="3460.61" y2="291.33" gradientTransform="matrix(-1, 0, 0, 1, 3832.67, 0)" xlink:href="#linear-gradient"/><linearGradient id="linear-gradient-47" x1="3525.86" y1="272.55" x2="3522.75" y2="372.91" gradientTransform="matrix(-1, 0, 0, 1, 3832.67, 0)" xlink:href="#linear-gradient"/><linearGradient id="linear-gradient-49" x1="3496.95" y1="271.65" x2="3493.84" y2="372.01" gradientTransform="matrix(-1, 0, 0, 1, 3832.67, 0)" xlink:href="#linear-gradient"/><linearGradient id="linear-gradient-50" x1="3467.49" y1="314.43" x2="3581.6" y2="387.05" gradientTransform="matrix(-1, 0, 0, 1, 3832.67, 0)" xlink:href="#linear-gradient"/><linearGradient id="linear-gradient-52" x1="3475.3" y1="302.16" x2="3589.41" y2="374.77" gradientTransform="matrix(-1, 0, 0, 1, 3832.67, 0)" xlink:href="#linear-gradient"/><linearGradient id="linear-gradient-53" x1="3524.05" y1="270.87" x2="3524.7" y2="255.05" gradientTransform="matrix(1, 0, 0, -1, -3215.21, 547.37)" xlink:href="#linear-gradient"/><linearGradient id="linear-gradient-54" x1="3506.23" y1="274.15" x2="3527.75" y2="271.17" gradientTransform="matrix(-1, 0, 0, 1, 3832.67, 0)" xlink:href="#linear-gradient"/><linearGradient id="linear-gradient-55" x1="3516.54" y1="264.72" x2="3517.64" y2="314.71" gradientTransform="matrix(-1, 0, 0, 1, 3832.67, 0)" xlink:href="#linear-gradient"/><linearGradient id="linear-gradient-56" x1="3523.9" y1="258.11" x2="3523.9" y2="297.01" gradientTransform="matrix(-1, 0, 0, 1, 3832.67, 0)" xlink:href="#linear-gradient"/><linearGradient id="linear-gradient-57" x1="3524.98" y1="264.53" x2="3526.08" y2="314.52" gradientTransform="matrix(-1, 0, 0, 1, 3832.67, 0)" xlink:href="#linear-gradient"/><linearGradient id="linear-gradient-58" x1="3522.1" y1="276.54" x2="3541.04" y2="270.32" gradientTransform="matrix(-1, 0, 0, 1, 3832.67, 0)" xlink:href="#linear-gradient"/><linearGradient id="linear-gradient-61" x1="3533.41" y1="264.35" x2="3534.51" y2="314.33" gradientTransform="matrix(-1, 0, 0, 1, 3832.67, 0)" xlink:href="#linear-gradient"/><linearGradient id="linear-gradient-62" x1="3524.36" y1="270.04" x2="3524.36" y2="319.44" gradientTransform="matrix(1, 0, 0, -1, -3216.04, 560.99)" xlink:href="#linear-gradient"/><linearGradient id="linear-gradient-63" x1="3487.41" y1="310.27" x2="3449.54" y2="312.08" gradientTransform="matrix(-1, 0, 0, 1, 3768.94, -4.23)" xlink:href="#linear-gradient"/><linearGradient id="linear-gradient-64" x1="3478.88" y1="264.61" x2="3459.63" y2="265.39" gradientTransform="matrix(-1, 0, 0, 1, 3832.67, 0)" xlink:href="#linear-gradient"/><linearGradient id="linear-gradient-65" x1="3479.09" y1="272.61" x2="3457.83" y2="272.74" gradientTransform="matrix(1, 0, 0, -1, -3115.73, 545.28)" xlink:href="#linear-gradient"/><linearGradient id="linear-gradient-66" x1="3472.11" y1="266.03" x2="3470.46" y2="288.88" gradientTransform="matrix(-1, 0, 0, 1, 3832.67, 0)" xlink:href="#linear-gradient"/><linearGradient id="linear-gradient-67" x1="3476.16" y1="266.32" x2="3474.51" y2="289.17" gradientTransform="matrix(-1, 0, 0, 1, 3832.67, 0)" xlink:href="#linear-gradient"/><linearGradient id="linear-gradient-70" x1="3480.21" y1="266.61" x2="3478.56" y2="289.46" gradientTransform="matrix(-1, 0, 0, 1, 3832.67, 0)" xlink:href="#linear-gradient"/><linearGradient id="linear-gradient-71" x1="3462.86" y1="297.21" x2="3401.14" y2="298.25" gradientTransform="matrix(-1, 0, 0, 1, 3768.94, -4.23)" xlink:href="#linear-gradient"/><linearGradient id="linear-gradient-72" x1="3444.71" y1="265.35" x2="3443.06" y2="285.38" gradientTransform="matrix(-1, 0, 0, 1, 3768.94, -4.23)" xlink:href="#linear-gradient"/><linearGradient id="linear-gradient-73" x1="3443.51" y1="294.29" x2="3445.07" y2="331.44" gradientTransform="matrix(-1, 0, 0, 1, 3768.94, -4.23)" xlink:href="#linear-gradient"/><linearGradient id="linear-gradient-74" x1="3450.08" y1="232.77" x2="3425.31" y2="236.53" gradientTransform="matrix(-1, 0, 0, 1, 3832.67, 0)" xlink:href="#linear-gradient"/><linearGradient id="linear-gradient-75" x1="3439.76" y1="230.36" x2="3437.62" y2="284.04" gradientTransform="matrix(-1, 0, 0, 1, 3832.67, 0)" xlink:href="#linear-gradient"/><linearGradient id="linear-gradient-76" x1="3445.43" y1="230.59" x2="3443.29" y2="284.27" gradientTransform="matrix(-1, 0, 0, 1, 3832.67, 0)" xlink:href="#linear-gradient"/><linearGradient id="linear-gradient-79" x1="3451.11" y1="230.82" x2="3448.97" y2="284.5" gradientTransform="matrix(-1, 0, 0, 1, 3832.67, 0)" xlink:href="#linear-gradient"/><linearGradient id="linear-gradient-80" x1="3445.49" y1="225.19" x2="3442.63" y2="291.83" gradientTransform="matrix(1, 0, 0, -1, -3057.15, 477.53)" xlink:href="#linear-gradient"/><linearGradient id="linear-gradient-81" x1="3445.96" y1="225.21" x2="3443.1" y2="291.85" gradientTransform="matrix(1, 0, 0, -1, -3057.15, 499.45)" xlink:href="#linear-gradient"/><linearGradient id="linear-gradient-82" x1="189.29" y1="313.47" x2="185.66" y2="406.05" xlink:href="#linear-gradient"/></defs><title>indiaaa</title><path d="M205.58,86.49c.11.2.22.39.33.56-3.2.91-4.92,3.23-6.3,5.85a1.38,1.38,0,0,1-.52.47c-2.19,1.47-3.76,3.18-2.35,6.22a33.76,33.76,0,0,1-5.11,1.94,4,4,0,0,0-1.3.49c3.56-4.67,6.22-11.49,10.91-14.64a15.62,15.62,0,0,1,2.66-1.44C204.53,86.16,205.06,86.33,205.58,86.49Z" transform="translate(-63.72 -4.23)" fill="#68e1fd" opacity="0.6"/><path d="M373.08,159.55c-3.12,1.66-4-.94-5.5-2.32Q370.4,158.31,373.08,159.55Z" transform="translate(-63.72 -4.23)" fill="#68e1fd" opacity="0.6"/><path d="M217.35,5.2c.78,1,1.69,2,2.52,3a52.83,52.83,0,0,0,3.95,5c.63.67,1.9.72,2.9,1l.52-.69c.34.91.67,1.79,1,2.73,3.17.17,3.84,1,3.17,4.26-.35,1.9,1.88,3.29,4.15,2.54,3.29-1.13,4.34-.36,4.12,3.7A16.79,16.79,0,0,0,243.8,26c2.95-1.36,5.74-3.1,8.7-4.45a6.89,6.89,0,0,1,3.62-.22c1.38.19,2.82,1.38,3.43-1.11.11-.38,1.85-.71,2.68-.49s1.57,1.21,2.37,1.82c1.08.83,2.16,1.82,2.9.5a25.31,25.31,0,0,1,3.93,3.37,5.47,5.47,0,0,1,.69,3.62c-.22,1.41-1.16,2.71-1.55,4.12a3.25,3.25,0,0,0,.22,2.29c1.08,1.68.19,2-1.24,2.18-.75.08-1.49.11-2.21.17-.11,1.35-.22,2.46-.36,3.92a9.74,9.74,0,0,0-1.44-.8,3,3,0,0,0-1.85-.19c-.33.16-.41,1-.44,1.63,0,.77.27,1.54.22,2.29-.19,2.65-1.58,3.34-3.87,2.07-1.91-1-3.09-.63-3.92,1.55.33.14.66.3,1,.44s.58.19,1.05.36c-.47,1.58.25,3.73-2.6,3.87.31,1.27.61,2.54.83,3.54,1.33.11,2.46.27,3.57.33,1.9,0,3.2.36,1.82,2.68a2.09,2.09,0,0,0,.41,1.79c1.88,2,2.1,3.65.69,6.25-1.79-.91-3,.16-4.22,1.21-.94.81-2,1.5-2.88,2.13-.63-1.3-1.07-2.24-1.68-3.51.05-.36.25-1.19.47-2.26-3.57,1.41-4.42,3.81-4,6.93,3,.09,4.37,2,3.62,4.84,0,.14-.16.33-.11.44,1.08,1.82,1.08,3.48-.72,4.92a3.39,3.39,0,0,0,.78,1.46,28.35,28.35,0,0,0,2.21,1.91c.63-1.08,1.3-2.24,2.26-3.84a44.68,44.68,0,0,1,2.41,4.47c1,2.71,1.77,3.1,4.58,2.74a4.1,4.1,0,0,1,3.07,1.11c1.36,1.35,4.31,1.68,3.37,4.28l3.26,2c1.22-.69,2.57-.74,3.68,1.33.44.86,1.93,1.19,3,1.8-2,1.57-3.62,2.84-5.25,4.11-.14-.14-.28-.25-.39-.36-.08.67-.14,1.33-.22,2.1-.8.09-1.55.14-2.54.22-.69,3-1.35,6-2.16,9-.24.86.28,2.38-1.49,2.35,0,.5-.19,1.27.06,1.47a40.69,40.69,0,0,0,4.56,2.93c.19.11.77-.5,1.52-1,.05,3.26,2.57,3,4.58,3.45,2.38.58,4.87,1.08,4.87,3.79,2.32,1.55,4.33,2.93,6.38,4.31,0-.17,0-.3.05-.44a15.24,15.24,0,0,1,3.21.44c1.16.41,2.13,1.33,3.29,1.77a4.83,4.83,0,0,0,3.18-.06c.13.09.33.14.38.25,1.16,2.46,2.63,4.34,5.83,3.65.56-.11,1.33.61,2.19,1,.49-.69,1-1.44,1.52-2.1,1.35.28,2.7.55,4,.83,1.11-2.43,1.91-2.68,4.15-1.46.55.3,1.07.85,1.63.88,2.4.08,3.59,1.22,4,3.62.14.83,1.39,1.57,2.27,2.1,1.41.86,2.93,1.46,5,2.46l4.12-1.11c.61,1.14,1.24,2.35,1.9,3.6l5.67-.92c2.07,3.18,4,3.26,8.12.17.42,2.51,1.77,2.93,4.12,2.32,1.63-.44,3.51.44,5.11-.86.17-.13.94.47,1.47.75a5.82,5.82,0,0,0,1-7.6c-1-1.38-1.68-2.51-.86-4.2.25-.5-.16-1.24-.05-1.85.33-1.82.77-3.67,1.3-6.08-.17-.22-.69-.91-1.14-1.52,1.58-.88,2.93-1.52,4.18-2.32,1-.66,1.77-1.27,3.12-.44s2.49,1.63,2.27,3.37c-.12.83-.61,1.6-.72,2.43a14.14,14.14,0,0,0,.11,2.9c.05.58.38,1.22.22,1.72-.72,2.15.88,3.34,2,4.64.69.83,1.9,1.24,3.15,2l1.52-1.71a21.71,21.71,0,0,0,2.87,2.21,2.73,2.73,0,0,0,2.1.11c2.38-1,4.7-2.12,7.24-3.31,1.16,2.29,3.51,1.74,5.31,1.19,2.23-.7,4.91.52,6.79-1.55,2.49,1.74,4.67-3.32,7.24.27a7.21,7.21,0,0,0,.36-.74,10.89,10.89,0,0,1-.88-2.1c-.22-1-.64-2.24-.25-3,.74-1.6-.14-2.29-1.22-2.74a46.2,46.2,0,0,0-4.89-1.41c-.14-1.38-.3-2.81-.49-4.56a8.21,8.21,0,0,0,2.4,1.3c.94.17,2.4.28,2.85-.25,1.4-1.76,2.79-1.6,4.44-.24,1.11-1.19,3-2.44,2.88-3.29-.36-1.91.63-2.27,1.77-3s2.26-1.65,3.56-2.62c-.5-3.18.8-4.42,4.53-4.73a7.17,7.17,0,0,0,4.4-2.29c2.29-2.62,4.14-5.61,5.77-7.87,2.82,1.1,5,2,7.07,2.79,1.77.69,3.24.16,3.87-1.52,1-2.71,3.79-2.77,5.61-4.23.25-.19,1.13.25,1.6.55.72.5,1.36,1.13,2.46,2l-2.65,4.33c.22.14.44.31.64.45.49-.64.94-1.27,1.46-1.86,1-1.13,1.93-1,2.46.42.61,1.69.91,3.4-.47,5a19.42,19.42,0,0,0-1.8,3c.69.25,1,.53,1.25.44,2.13-.85,4.11-1.29,6.46-.16,1.33.66,3.15.3,4.62.41.27,1.38.47,2.35.69,3.29s.61,1.69-.94,2.21a6.55,6.55,0,0,0-3,2.82,4,4,0,0,0,0,2.76c.17.61,1,1,1.3,1.61a18.38,18.38,0,0,1,.91,3.09c-1.16-.3-2.76-.25-3.4-1-1.49-1.72-2.54-1.19-4.39-.61-4.42,1.41-6.3,5.64-9.78,8.07-1.3.88-2.27,2.54-3.87,3.45a3.37,3.37,0,0,0-.91,3.15c1.77,3.51.58,6.88-.22,10.22-.25,1.05-1.38,2-2.27,2.8-2,1.87-2.07,3.09-.58,5.36a3.92,3.92,0,0,1-.05,2.95c-1.25,3.51-2.74,6.91-4,10.42a17,17,0,0,0-.5,3.43c-1.35-.53-2.29-.86-3.2-1.25-1.36-.58-2.57-1.41-3.93.2-.3.35-1.68-.25-2.79-.45,2.71,2.49,2.3,5.5,1.47,8.68-.17.64.44,1.44.52,2.21.17,1.69.44,3.29-2.12,3.73-2.22.39-1.44,2.38-1.14,3.87q.66,3.15,1.49,6.3c.72,2.79-1.07,4.78-2.23,7.79-.75-1.21-1.19-2-1.77-3-.64,1.11-1,1.72-1.33,2.33-.27-.09-.55-.12-.55-.17-.19-2.51-.22-5.08-.64-7.57a34.75,34.75,0,0,0-1.85-5.67c-.19-.49-.94-1.1-.83-1.32,2-3.46-1.57-5.75-1.82-8.79-.22-2.84-.72-2.82-4-2.4a43.55,43.55,0,0,0-1.35,4.61,9.32,9.32,0,0,0,.16,3c.17,1.38.2,2.79-1.43,3.26s-2.13-.69-2.49-2a3.75,3.75,0,0,0-1.3-1.76v2.65l-.66.11c-.19-.72-.42-1.44-.64-2.16a45.85,45.85,0,0,0-1.93-5.8c-1.16-2.4.88-6.71,3.59-7.24.47-.11.89-.58,1.36-.8,1-.5,2.07-1,3.5-1.66,0-.25.12-1.16.2-2.21,3.51-.19,1.82-3.92,3.62-5.58-.44-.06-.89-.11-2-.22,1.38-.8,2.26-1.3,3.89-2.21l-2.73-.53c-1.16-.25-2.46-1-3.45-.66-2.74.91-5.26-.3-7.88-.36-2.43,0-4.86.64-7.29.72-2.16.08-4.29-.19-6.44-.28-.86-.05-1.72-.11-2.54-.08-1.44.08-2.1-.64-1.33-1.8a2.29,2.29,0,0,0-.19-3.28,2.12,2.12,0,0,1-.28-1.11c-.28-2.38-.58-4.72-.86-7.1-.33,0-.66-.08-1-.14a11.79,11.79,0,0,0-.58,1.19c-.28.83-.5,1.66-.75,2.46a9.38,9.38,0,0,1-2.87-1.22c-1.3-1.16-2.3-2.62-3.48-3.89-.25-.25-.78-.25-1.74-.5.71,1,1.1,1.46,1.63,2.18-.92,0-1.69.09-2.71.14.36.66.66,1.19,1.05,1.88-.42,0-.72.08-.8,0a10.42,10.42,0,0,1-1.41-2.26c-.67-1.88-2.05-2.38-3.62-2.74a3.8,3.8,0,0,1-.36.53l2.21,1.57c-.72.42-1.47.61-1.85,1.11a17.76,17.76,0,0,0-2.46,3.86c-.78,1.8.5,2.66,1.9,3.54a2.44,2.44,0,0,1,.47.36c1.52,1.38,2.38,4,5.5,2.32a0,0,0,0,1,0,0c11.8,5.47,21.69,13.54,26.75,25.45,4.45,10.47,4.28,22.24,6.35,33.43a85.2,85.2,0,0,0,14,33.3c8.76,12.46,21.09,22.88,25.87,37.36,6.46,19.61-3.29,41.75-18.79,55.37s-35.76,20.45-55.65,26.08A738.45,738.45,0,0,1,282.78,390c-16.27,2.51-32.74,4.5-49.21,3.65-14-.72-27.85-3.51-41.61-6.3q-25.74-5.19-51.45-10.39c-16.17-3.26-33.16-6.91-45.57-17.8-10.94-9.59-16.88-23.54-22.46-37-4.14-10-8.34-20.33-8.73-31.17-.33-9.64,2.4-19.06,3.59-28.62,2-15.42,0-31.11,1.69-46.56,3.84-33.55,26.36-63.88,56.5-79.14,14.12-7.13,29.65-11.19,43.72-18.46a69.39,69.39,0,0,0,19.86-14.7l.06-.05c.38-.44.77-.94,1.16-1.44a4,4,0,0,1,1.3-.49,33.76,33.76,0,0,0,5.11-1.94c-1.41-3,.16-4.75,2.35-6.22a1.38,1.38,0,0,0,.52-.47c1.38-2.62,3.1-4.94,6.3-5.85-.11-.17-.22-.36-.33-.56-.52-.16-1.05-.33-1.68-.55l-.34-.11c.89-2.13,1.61-4.14-.36-6.11-.24-.27,1-2.7,2.05-3.39,2-1.36,4-2.88,6.74-2.49a2.53,2.53,0,0,0,1.83-1.66,3.06,3.06,0,0,0-1.3-2.38c-1.83-.91-3.87-1.4-5.75-2.26a2.48,2.48,0,0,1-.89-1.83,12.08,12.08,0,0,1,.61-2.68c-2.68,1.5-4.75.36-6.77-.93a27.37,27.37,0,0,0-4.06-2.6c-1.79-.75-2.1-2-2-3.7,0-2.44-.2-4.87-.31-7.3a5.29,5.29,0,0,1,0-1.82,3.62,3.62,0,0,0-.74-3.62c-.8-1.11-.83-2.79-1.19-4.18l4.92-.63c-1.5-2.6-.42-3.26,1.63-3.57a3.31,3.31,0,0,0,3-3.34c.05-1.44-.06-2.9-2.38-2.13-2,.67-2.9-.47-2.26-2.54.16-.58.33-1.19.44-1.77,0-.16-.22-.38-.39-.66-1.6.77-3.4,1.91-4.78.06a27.32,27.32,0,0,1-2.29-4.92c-.66.3-1.22.55-1.77.77-2,.83-3.34.25-4.28-1.85-.89-1.88-.14-2.76,1.66-3.54.88-.41,1.35-1.77,1.87-2.76a8.68,8.68,0,0,0,1.61-1.8c1-2,4.47-3.2,6.43-2.18.94.47,1.94.91,2.91,1.35.19-.11.38-.24.58-.35-.36-.94-.72-1.86-1.14-2.93.22-.09.64-.36.89-.25" transform="translate(-63.72 -4.23)" fill="#68e1fd" opacity="0.4" style="isolation:isolate"/><path d="M209.56,4.9c1.19,1.41,2.43.33,3.54-.67" transform="translate(-63.72 -4.23)" fill="#68e1fd" opacity="0.4" style="isolation:isolate"/><path d="M198,5.84c2.65,1,4.64-.42,6.77-1.61" transform="translate(-63.72 -4.23)" fill="#68e1fd" opacity="0.4" style="isolation:isolate"/><path d="M217.36,5.2c.76,1.07,1.68,2,2.49,3a60.22,60.22,0,0,0,4,5c.65.65,1.91.7,2.9,1l.52-.69,1,2.71c3.2.17,3.84,1,3.2,4.26-.38,1.92,1.87,3.3,4.12,2.54,3.3-1.13,4.35-.36,4.11,3.71a17.18,17.18,0,0,0,4.1-.76c3-1.37,5.75-3.12,8.72-4.47a7.12,7.12,0,0,1,3.6-.21c1.38.19,2.83,1.38,3.45-1.11.09-.39,1.84-.72,2.66-.48s1.57,1.22,2.38,1.82c1.07.81,2.17,1.8,2.9.49a22.58,22.58,0,0,1,3.92,3.38,5.33,5.33,0,0,1,.69,3.6c-.21,1.42-1.15,2.72-1.54,4.13a3.16,3.16,0,0,0,.22,2.29c1.09,1.7.21,2.06-1.24,2.19-.74.07-1.49.1-2.2.15-.13,1.35-.24,2.48-.37,3.94a9.09,9.09,0,0,0-1.44-.82,3.42,3.42,0,0,0-1.86-.18c-.33.15-.41,1.06-.42,1.63,0,.76.27,1.54.22,2.3-.2,2.64-1.58,3.34-3.89,2.06-1.9-1.06-3.08-.62-3.91,1.54.34.15.67.31,1,.44s.58.2,1.06.36c-.47,1.58.24,3.74-2.61,3.87.3,1.28.6,2.55.84,3.53,1.33.13,2.45.29,3.57.33,1.89.07,3.19.39,1.81,2.71a2,2,0,0,0,.43,1.79c1.85,2,2.08,3.64.66,6.25-1.78-.93-3,.15-4.21,1.19-.95.8-2,1.49-2.89,2.15l-1.68-3.53.46-2.25c-3.53,1.4-4.4,3.82-4,6.92,3,.09,4.36,2,3.62,4.84,0,.15-.18.35-.13.44,1.09,1.84,1.08,3.48-.71,4.94a3.44,3.44,0,0,0,.78,1.46,28.1,28.1,0,0,0,2.2,1.9l2.26-3.84a39.28,39.28,0,0,1,2.41,4.47c1,2.71,1.76,3.09,4.6,2.73a4.17,4.17,0,0,1,3.06,1.11c1.35,1.35,4.32,1.69,3.37,4.3l3.26,2.05c1.23-.7,2.57-.77,3.67,1.31.46.86,1.93,1.18,3,1.79l-5.25,4.11-.39-.35-.22,2.11-2.53.21c-.71,3-1.36,6-2.18,9-.23.86.3,2.4-1.48,2.36,0,.51-.19,1.28.05,1.46a43.57,43.57,0,0,0,4.55,2.94c.2.11.8-.49,1.53-1,.07,3.27,2.58,3,4.59,3.45,2.39.57,4.87,1.09,4.87,3.8l6.39,4.29,0-.43a14.71,14.71,0,0,1,3.22.43c1.15.42,2.12,1.34,3.27,1.77a4.79,4.79,0,0,0,3.19-.05c.14.08.34.13.39.25,1.15,2.47,2.61,4.33,5.81,3.65.58-.12,1.33.59,2.19,1l1.52-2.09,4,.81c1.09-2.42,1.9-2.68,4.15-1.45.54.29,1.07.85,1.62.87,2.41.1,3.59,1.22,4,3.64.14.81,1.36,1.57,2.25,2.1,1.41.84,2.94,1.46,5,2.45l4.12-1.11,1.92,3.59,5.65-.92c2.08,3.2,4,3.27,8.14.17.41,2.52,1.77,2.94,4.12,2.32,1.62-.42,3.51.45,5.09-.86.17-.13,1,.49,1.47.77a5.86,5.86,0,0,0,1-7.62c-1-1.37-1.68-2.51-.85-4.2.23-.48-.17-1.24-.06-1.83.33-1.85.77-3.67,1.29-6.1l-1.13-1.51c1.58-.87,2.93-1.52,4.18-2.33,1-.65,1.76-1.27,3.11-.44s2.51,1.63,2.28,3.38c-.11.83-.63,1.61-.72,2.43a15.71,15.71,0,0,0,.11,2.9c0,.58.37,1.22.21,1.72-.71,2.16.91,3.34,2,4.62.71.84,1.91,1.27,3.16,2l1.51-1.72a23.1,23.1,0,0,0,2.87,2.21,2.74,2.74,0,0,0,2.12.12c2.38-1,4.69-2.13,7.24-3.32,1.15,2.3,3.49,1.73,5.3,1.18,2.24-.68,4.9.54,6.78-1.53,2.5,1.74,4.68-3.32,7.26.27l.35-.74a11.49,11.49,0,0,1-.89-2.12c-.22-1-.63-2.23-.25-3,.75-1.6-.12-2.3-1.19-2.73a45.43,45.43,0,0,0-4.9-1.42c-.15-1.37-.31-2.8-.51-4.54a9.31,9.31,0,0,0,2.4,1.28c.94.16,2.42.29,2.84-.23,1.43-1.79,2.8-1.63,4.47-.27,1.09-1.17,3-2.43,2.88-3.27-.38-1.92.63-2.29,1.76-3s2.26-1.65,3.56-2.61c-.5-3.17.81-4.42,4.54-4.74a7.18,7.18,0,0,0,4.39-2.28c2.28-2.62,4.14-5.61,5.77-7.89l7.09,2.81c1.75.69,3.22.17,3.84-1.53,1-2.69,3.79-2.77,5.63-4.21.25-.19,1.12.23,1.59.54a31.26,31.26,0,0,1,2.46,2l-2.65,4.33.64.44c.48-.62.93-1.27,1.45-1.85,1-1.12,1.95-1,2.46.41.62,1.7.93,3.42-.47,5a19.4,19.4,0,0,0-1.78,3c.68.26,1,.53,1.23.45,2.14-.87,4.13-1.3,6.46-.16,1.34.65,3.16.3,4.63.39.28,1.4.46,2.36.69,3.3s.61,1.69-.95,2.2a6.58,6.58,0,0,0-3,2.84,3.94,3.94,0,0,0,0,2.75c.16.6,1,1,1.31,1.59a23.17,23.17,0,0,1,.91,3.11c-1.17-.31-2.77-.25-3.42-1-1.47-1.71-2.54-1.17-4.39-.59-4.42,1.39-6.3,5.62-9.78,8-1.28.89-2.24,2.54-3.87,3.47a3.31,3.31,0,0,0-.89,3.13c1.77,3.52.56,6.88-.22,10.22-.25,1.06-1.41,2-2.29,2.81-2,1.89-2.05,3.09-.57,5.35a3.94,3.94,0,0,1,0,3c-1.26,3.5-2.75,6.92-4,10.41a18,18,0,0,0-.49,3.44c-1.36-.53-2.3-.85-3.2-1.25-1.35-.59-2.58-1.4-3.94.21-.28.34-1.67-.25-2.77-.46,2.69,2.48,2.28,5.51,1.45,8.67-.17.64.45,1.46.53,2.21.16,1.7.45,3.29-2.14,3.75-2.18.39-1.41,2.38-1.11,3.85.44,2.11.94,4.22,1.48,6.31.71,2.8-1.06,4.79-2.24,7.78l-1.76-2.94-1.34,2.31c-.27-.07-.53-.1-.54-.16-.21-2.52-.21-5.08-.64-7.57a35.74,35.74,0,0,0-1.85-5.67c-.18-.49-.94-1.1-.82-1.31,2-3.45-1.59-5.75-1.83-8.79-.23-2.86-.71-2.82-4-2.43a43.94,43.94,0,0,0-1.37,4.64,9.47,9.47,0,0,0,.16,2.94c.19,1.4.2,2.81-1.41,3.27s-2.15-.7-2.51-2a3.64,3.64,0,0,0-1.3-1.79v2.65l-.64.13c-.21-.72-.42-1.45-.65-2.16a45.33,45.33,0,0,0-1.93-5.8c-1.15-2.43.88-6.74,3.59-7.26.48-.09.88-.56,1.35-.79,1-.51,2.07-1,3.52-1.65,0-.26.1-1.16.19-2.23,3.51-.19,1.82-3.92,3.63-5.57l-2-.22,3.9-2.22c-1.32-.25-2-.38-2.73-.53-1.16-.24-2.47-1-3.44-.65-2.76.91-5.27-.31-7.88-.35-2.43,0-4.87.62-7.32.71-2.13.09-4.27-.19-6.41-.29-.86,0-1.71-.1-2.57-.06-1.41.07-2.08-.64-1.31-1.8s.81-2.22-.2-3.29c-.23-.25-.21-.74-.26-1.12-.3-2.36-.58-4.72-.87-7.08l-1-.14a12,12,0,0,0-.59,1.19c-.28.81-.5,1.64-.75,2.45a9.39,9.39,0,0,1-2.85-1.21c-1.3-1.15-2.31-2.63-3.51-3.91-.23-.25-.76-.23-1.72-.49l1.64,2.18-2.72.13,1,1.89c-.41,0-.72.08-.79,0a11.33,11.33,0,0,1-1.41-2.28c-.66-1.86-2.06-2.38-3.61-2.72l-.37.53,2.2,1.57a6.41,6.41,0,0,0-1.85,1.1,18.24,18.24,0,0,0-2.45,3.86c-.77,1.79.5,2.65,1.9,3.55,1.84,1.18,2.56,4.49,6,2.68.06.82.11,1.46.18,2.24a2.39,2.39,0,0,1,.8,0c.54.22,1.05.52,1.58.79-.48.6-.86,1.57-1.46,1.73a38.55,38.55,0,0,1-4.93.74,15.65,15.65,0,0,1-.44,2.76,1.94,1.94,0,0,1-1.16,1.15c-1.64.25-2,1.14-1.83,2.63a4.61,4.61,0,0,0,5.48,4.19,1.56,1.56,0,0,1,1.18.3c1.3,1.11,1.16,4.86-.16,5.92a2.89,2.89,0,0,0,.63,4.45c1.8.82,2.11,1.83,1.15,3.64l3.05,1c-.18,1.54-.35,3.11-.55,4.68-.43,3.35,1.25,6.2,2.08,9.26.43,1.55.17,3.29.24,4.94.05,1.17.12,2.35.22,4.12-.8-1-1.38-1.71-2-2.42s-1.16-1.28-1.75-1.92a14.06,14.06,0,0,1-1.55,1.44c-.83.58-1.75,1.06-2.63,1.58a23.44,23.44,0,0,1-1.25-2.31,10.35,10.35,0,0,1-.41-2.11,8.73,8.73,0,0,0-1.36,2c-1.16,4.17-5.08,4.53-8.16,5.12a6.87,6.87,0,0,0-4.13,2.15c-1.94,2.06-1.89,2.52.22,4.51.39.37.74.79,1,1.08-.38,2.18-.95,4.08-2.95,5.26-.31.19,0,1.35,0,2.51-2.8,6-9.46,7.07-15.37,9.55-.13-.55-.31-1.33-.61-2.59l-4.13,3.88.3.45,1.37-.32.49.33c-.65.89-1.12,2.1-2,2.62a20.85,20.85,0,0,0-6.55,6.83c-1.19,1.78-2.76,3.31-4.06,5a12.12,12.12,0,0,0-1.11,2.34c-1.72.83-3.64,1.41-5.08,2.57a8.09,8.09,0,0,0-2.46,3.9c-.74,2.54-3.3,5.23-5.88,5.69a5.41,5.41,0,0,0-2,.89c-1.34.89-2.55,2-3.91,2.83-1.72,1.06-2.54,2.29-2,4.43.75,2.9-.29,4.21-3,5.09-2.94,1-5.79,1.5-8.82.46-.32-.11-1.14.61-1.42,1.11-1.37,2.44-2.58,5-3.94,7.39-.84,1.52-1.78,1.39-2.72-.05-.38-.58-1.4-1.28-1.9-1.14a9.45,9.45,0,0,0-5.65,4c-3.1,4.55-1.3,9-.72,13.54.22,1.71.12,3.08-1.28,4.07a32.15,32.15,0,0,1,2.18,3.77,34.66,34.66,0,0,1,1.14,4.4l-2.69-1.14-.25.41c.35.26.72.51,1.05.8,1.57,1.36,2.61,2.87,1.66,5.1a4.4,4.4,0,0,0-.41,2.26c.43,2.62-.75,4.33-2.9,5.62,1.44,2.1.17,3.75-1.22,4.91-3.08,2.6-3.14,6.43-2.36,9.27,1.37,5.06-.47,10,1,14.78a57.13,57.13,0,0,0-6.81,1.5c-.85.29-1.48,1.46-2,2.35-.65,1.12-1.05,2.39-1.65,3.55-.2.39-.82.56-1,.95-.5,1.15-1.53,2.7-1.13,3.44.49.92,2.16,1.45,3.4,1.65s2.87-.28,3.19,2.42c-4.54-3-8.58-.35-12.76.29s-6.55,4.29-5.21,8.26c-2.66,1.56-5.29,3.12-7.95,4.61-.33.18-.88,0-1.31-.07-5.15-.83-8.76-3.93-11.76-8-1.2-1.61-2.86-3-3.71-4.73-1.06-2.2-2.17-4.49-2-7.14.07-1.1-.78-2.25-.72-3.34.27-4.38-3.82-7.32-3.61-11.83.09-2.1-1.59-4.29-2.49-6.43-.66-1.55-1.36-3.08-2-4.62-.18-.41-.25-.93-.54-1.2-1.81-1.65-3.68-3.22-5.48-4.86a3.11,3.11,0,0,1-.6-1.14c-.85-2.23-2.15-4.41-2.44-6.71-.54-4.21-3.57-7.83-2.53-12.48.29-1.3-1.51-3-2.21-4.6a10.25,10.25,0,0,1-.45-2.37c-.1-.51-.19-1-.3-1.53a5,5,0,0,0-.74-2c-.92-1.82-1.78-3.68-2.77-5.47-.86-1.58-1.92-3.05-2.79-4.63a33.54,33.54,0,0,1-2.59-5.15c-1.61-4.53-4-8.73-4.62-13.7-.41-3.15,0-6.45-1.4-9.57-.95-2.12-.8-4.7-1.43-7a43.54,43.54,0,0,0-2.48-6.74c-1.16-2.53.56-4.39,1.16-6.52a11.65,11.65,0,0,0,.23-1.87,9,9,0,0,0-1.7,1.17,4.17,4.17,0,0,0-.58,1.43l-.65-.14a37.85,37.85,0,0,0,.77-5.24c0-1.29-.13-3-.91-3.82-2-2.25-.19-3.88.44-5.74.31-.9.62-1.8.9-2.71.07-.21-.06-.55.06-.68,3.1-3.24.51-6.56-.34-9.47-1-3.46-.93-5.91,2.7-8l-4.6-1.06,1.44-2.91-1.37.1c-.6-1.84,1.19-4.29-1.93-5.91-.35,2-.79,3.77-1,5.6-.13,1.45.1,2.92.11,4.39a3.27,3.27,0,0,1-.28,1.59c-1.87,3.28-4.37,5.76-8.28,6.47a5,5,0,0,0-2.57.91,5.5,5.5,0,0,1-5.51,1.64c-.29-.08-.81-.1-.9.05-1.3,2.06-2.77.84-4.14.2s-2.82-.87-3.93-2.45c-1.86-2.65-4.48-4.76-6.66-7.21a35.36,35.36,0,0,1-2.4-3.65,9.78,9.78,0,0,0-1.11-1.3c-.85-.88-1.76-1.71-2.57-2.63a20.9,20.9,0,0,1-2.86-3.55,25.48,25.48,0,0,1-1.52-4.46c.84.1,1.2.05,1.26.16,1.64,3.06,4.13,2.25,6.68,1.57,4.28-1.14,8.57-2.23,11.51-5.94q.51-.65,1-1.32c.11-.18.1-.42,0-.17-2.25.27-4.59.5-6.92.88a2.64,2.64,0,0,0-1.61,1.06c-1,1.54-2.25,1.41-3.63.63a60.59,60.59,0,0,1-7.06-4.08,34.52,34.52,0,0,1-5.81-5.9c-.6-.76-.27-2.26-.35-3.14l-4.15.5-.18-.87,1.46-.78c-.36-3.31,0-3.64,3.31-3.16,2.85.42,3.5-.11,3.54-2.92,0-.53.07-1.07.1-1.6,3.49.08,6.75,2.94,10.32.24,1.79,3.7,5.16,1.59,8,2.92-.65-5,3.85-2,5.41-4.21-.22,3,1.54,3.77,3.91,4.08l.78-2.15h2a11.43,11.43,0,0,1-.54-2.19c-.09-1.64.77-3.41-.87-4.8-.19-.15.07-.76,0-1.11-.37-1.33-.49-2.87-1.27-3.91-2.14-2.84-2.38-3.6-.79-6.77-1.09-.09-2.06-.24-3-.24a4.68,4.68,0,0,1-4.3-6.17,48.34,48.34,0,0,0,1.23-5.59c-2.81-1-5.3-1.5-7.44-2.68a2.66,2.66,0,0,1-.45-4.29c2.08-2,2.86-5.09,5.58-6.51.14-.07.38-.18.37-.25-.29-2.78,2.59-3.33,3.69-5.16a5.77,5.77,0,0,1,3.24-1.95c1-.3,2.14,0,2.05,1.69a12.5,12.5,0,0,0,.43,3.7,2.31,2.31,0,0,0,1.29,1.49,2.28,2.28,0,0,0,1.7-.81,6.93,6.93,0,0,1,7-2.1c2.52.82,3.76.15,4.78-2.31a5,5,0,0,1,1.84-2.32c2-1.21,2.91-2.74,2.33-4.55l3.34-4.11,1.09,1a5.88,5.88,0,0,1,1.3-1c3.4-1.23,4.66-4.2,6.48-7a21.5,21.5,0,0,0,2.36-5.89,3.24,3.24,0,0,1,2.7-2.48,31.23,31.23,0,0,0,5.1-1.93c-1.41-3,.17-4.75,2.35-6.21a1.48,1.48,0,0,0,.52-.47c1.37-2.64,3.1-4.94,6.3-5.85l-.32-.56-2-.66c.88-2.13,1.6-4.14-.36-6.12-.26-.26,1-2.7,2-3.4,2-1.34,4-2.87,6.75-2.49.56.08,1.79-1,1.82-1.64a3,3,0,0,0-1.3-2.37c-1.82-.94-3.88-1.42-5.74-2.28a2.43,2.43,0,0,1-.89-1.83A11.15,11.15,0,0,1,206.5,63c-2.7,1.49-4.76.35-6.78-.94a29.27,29.27,0,0,0-4.06-2.59c-1.79-.76-2.09-2-2-3.69.06-2.44-.19-4.88-.3-7.32a5.5,5.5,0,0,1,0-1.81,3.59,3.59,0,0,0-.73-3.61c-.81-1.12-.84-2.8-1.2-4.19l4.93-.62c-1.49-2.61-.41-3.26,1.63-3.57a3.34,3.34,0,0,0,3-3.36c.05-1.41-.07-2.88-2.38-2.12-2,.67-2.92-.46-2.27-2.54a13.46,13.46,0,0,0,.44-1.77c0-.17-.21-.38-.37-.66-1.61.78-3.41,1.91-4.79.06a25.88,25.88,0,0,1-2.29-4.91c-.67.29-1.21.54-1.77.76-2,.82-3.35.24-4.3-1.85-.86-1.87-.12-2.75,1.66-3.55.89-.4,1.35-1.77,1.89-2.75a9.68,9.68,0,0,0,1.61-1.8c1-2,4.45-3.21,6.42-2.19.95.49,1.93.92,2.9,1.37l.59-.37-1.13-2.93c.21-.06.62-.36.87-.25" transform="translate(-63.72 -4.23)" fill="#68e1fd" opacity="0.4" style="isolation:isolate"/><path d="M209.56,4.88c1.2,1.44,2.43.35,3.54-.63" transform="translate(-63.72 -4.23)" fill="#68e1fd"/><path d="M198,5.83c2.66,1.06,4.66-.41,6.78-1.6" transform="translate(-63.72 -4.23)" fill="#68e1fd"/><path d="M190.33,102c-.39.5-.78,1-1.16,1.44A2.83,2.83,0,0,1,190.33,102Z" transform="translate(-63.72 -4.23)" fill="#68e1fd"/><path d="M373.11,159.55v0a0,0,0,0,0,0,0Z" transform="translate(-63.72 -4.23)" fill="#68e1fd"/><rect x="114.26" y="277.2" width="37.62" height="62.9" fill="#68e1fd"/><rect x="114.26" y="277.2" width="37.62" height="62.9" fill="url(#linear-gradient)"/><rect x="149.77" y="277.2" width="2.11" height="62.9" fill="#68e1fd"/><rect x="114.26" y="277.2" width="109.68" height="2.59" fill="#68e1fd"/><rect x="160.2" y="285.33" width="17.78" height="59" transform="translate(274.46 625.43) rotate(180)" fill="#68e1fd"/><rect x="160.2" y="285.33" width="17.78" height="59" transform="translate(274.46 625.43) rotate(180)" fill="url(#linear-gradient-2)"/><rect x="176.51" y="285.33" width="1.47" height="59" transform="translate(290.77 625.43) rotate(180)" fill="#68e1fd"/><rect x="160.2" y="285.33" width="17.78" height="2.82" transform="translate(274.46 569.24) rotate(180)" fill="#68e1fd"/><path d="M198.87,247.53h-4.43c-14.19,3.5-13.08,17.77-13.08,17.77H212S213.07,251,198.87,247.53Z" transform="translate(-63.72 -4.23)" fill="#68e1fd"/><path d="M198.87,247.53h-4.43c-14.19,3.5-13.08,17.77-13.08,17.77H212S213.07,251,198.87,247.53Z" transform="translate(-63.72 -4.23)" fill="url(#linear-gradient-3)"/><polygon points="135.03 241.32 131 241.32 130.16 243.46 135.87 243.46 135.03 241.32" fill="#68e1fd"/><polygon points="133.38 235.59 132.61 235.59 132.28 242.76 133.72 242.76 133.38 235.59" fill="#68e1fd"/><path d="M198.87,247.53h-4a22.12,22.12,0,0,1,9.43,17.77H212S213.07,251,198.87,247.53Z" transform="translate(-63.72 -4.23)" fill="#68e1fd"/><path d="M256.79,223.71H246.37c-33.39,8.23-30.77,41.8-30.77,41.8h72S290.17,231.94,256.79,223.71Z" transform="translate(-63.72 -4.23)" fill="#68e1fd"/><path d="M256.79,223.71H246.37c-33.39,8.23-30.77,41.8-30.77,41.8h72S290.17,231.94,256.79,223.71Z" transform="translate(-63.72 -4.23)" fill="url(#linear-gradient-4)"/><polygon points="192.78 214.83 183.3 214.83 181.34 219.85 194.74 219.85 192.78 214.83" fill="#68e1fd"/><polygon points="188.89 196.09 187.09 196.09 186.3 218.21 189.69 218.21 188.89 196.09" fill="#68e1fd"/><path d="M254.14,204.65a2.54,2.54,0,1,0-2.54,2.54A2.54,2.54,0,0,0,254.14,204.65Z" transform="translate(-63.72 -4.23)" fill="#68e1fd"/><path d="M251.6,202.12a2.43,2.43,0,0,0-.77.12,2.54,2.54,0,0,1,0,4.83,2.43,2.43,0,0,0,.77.12,2.54,2.54,0,1,0,0-5.07Z" transform="translate(-63.72 -4.23)" fill="#68e1fd"/><path d="M255.14,212.68a3.65,3.65,0,1,0-3.64,3.64A3.64,3.64,0,0,0,255.14,212.68Z" transform="translate(-63.72 -4.23)" fill="#68e1fd"/><path d="M251.5,209a3.68,3.68,0,0,0-1.11.17,3.64,3.64,0,0,1,0,6.94,3.68,3.68,0,0,0,1.11.17,3.64,3.64,0,0,0,0-7.28Z" transform="translate(-63.72 -4.23)" fill="#68e1fd"/><rect x="151.88" y="261.27" width="72.06" height="8.56" fill="#68e1fd"/><rect x="151.88" y="261.27" width="72.06" height="8.56" fill="url(#linear-gradient-5)"/><rect x="151.88" y="261.27" width="72.06" height="2.31" fill="#68e1fd"/><rect x="151.88" y="267.52" width="72.06" height="2.31" fill="#68e1fd"/><path d="M256.79,223.71h-9.37c9.93,7.15,21.47,20.2,22.18,41.8h18S290.17,231.94,256.79,223.71Z" transform="translate(-63.72 -4.23)" fill="#68e1fd"/><rect x="155.94" y="261.91" width="2.72" height="6.96" fill="#68e1fd"/><rect x="163.55" y="261.91" width="2.72" height="6.96" fill="#68e1fd"/><rect x="171.15" y="261.91" width="2.72" height="6.96" fill="#68e1fd"/><rect x="178.76" y="261.91" width="2.72" height="6.96" fill="#68e1fd"/><rect x="186.36" y="261.91" width="2.72" height="6.96" fill="#68e1fd"/><rect x="193.97" y="261.91" width="2.72" height="6.96" fill="#68e1fd"/><rect x="201.57" y="261.91" width="2.72" height="6.96" fill="#68e1fd"/><rect x="209.18" y="261.91" width="2.72" height="6.96" fill="#68e1fd"/><rect x="216.78" y="261.91" width="2.72" height="6.96" fill="#68e1fd"/><path d="M202.85,309.72h2.44V295a4.06,4.06,0,0,0-.94-2.34,10.8,10.8,0,0,0-3.68-3.17l-3-1.6-3,1.6a10.67,10.67,0,0,0-3.67,3.17A4,4,0,0,0,190,295v14.74h12.82Z" transform="translate(-63.72 -4.23)" fill="url(#linear-gradient-6)"/><path d="M204.35,292.64a10.8,10.8,0,0,0-3.68-3.17l-3-1.6-1.9,1,2.89,1.54a11.07,11.07,0,0,1,3.83,3.3,4.19,4.19,0,0,1,1,2.42v13.58h1.82V295A4.06,4.06,0,0,0,204.35,292.64Z" transform="translate(-63.72 -4.23)" fill="#68e1fd"/><path d="M172.57,308.28h1.82v-11a3,3,0,0,0-.71-1.73,7.89,7.89,0,0,0-2.74-2.36L168.71,292l-2.24,1.19a8.08,8.08,0,0,0-2.74,2.36,3,3,0,0,0-.7,1.73v11h9.54Z" transform="translate(-63.72 -4.23)" fill="#68e1fd"/><path d="M202.85,309.72h2.44V295a4.06,4.06,0,0,0-.94-2.34,10.8,10.8,0,0,0-3.68-3.17l-3-1.6-3,1.6a10.67,10.67,0,0,0-3.67,3.17A4,4,0,0,0,190,295v14.74h12.82Z" transform="translate(-63.72 -4.23)" fill="url(#linear-gradient-6)"/><path d="M172.57,308.28h1.82v-11a3,3,0,0,0-.71-1.73,7.89,7.89,0,0,0-2.74-2.36L168.71,292l-2.24,1.19a8.08,8.08,0,0,0-2.74,2.36,3,3,0,0,0-.7,1.73v11h9.54Z" transform="translate(-63.72 -4.23)" fill="url(#linear-gradient-8)"/><path d="M173.68,295.58a7.89,7.89,0,0,0-2.74-2.36L168.71,292l-1.41.75,2.15,1.15a8.27,8.27,0,0,1,2.84,2.45,3.13,3.13,0,0,1,.74,1.8v10.1h1.36v-11A3,3,0,0,0,173.68,295.58Z" transform="translate(-63.72 -4.23)" fill="#68e1fd"/><path d="M172.57,339h1.82V328a3,3,0,0,0-.71-1.73,7.89,7.89,0,0,0-2.74-2.36l-2.23-1.19-2.24,1.19a8.08,8.08,0,0,0-2.74,2.36A3,3,0,0,0,163,328v11h9.54Z" transform="translate(-63.72 -4.23)" fill="url(#linear-gradient-9)"/><path d="M173.68,326.3a7.89,7.89,0,0,0-2.74-2.36l-2.23-1.19-1.41.75,2.15,1.15a8.27,8.27,0,0,1,2.84,2.45,3.11,3.11,0,0,1,.74,1.8V339h1.36V328A3,3,0,0,0,173.68,326.3Z" transform="translate(-63.72 -4.23)" fill="#68e1fd"/><path d="M202.85,342.4h2.44V327.66a4.06,4.06,0,0,0-.94-2.33,10.8,10.8,0,0,0-3.68-3.17l-3-1.6-3,1.6a10.67,10.67,0,0,0-3.67,3.17,4,4,0,0,0-.95,2.33V342.4h12.82Z" transform="translate(-63.72 -4.23)" fill="#68e1fd"/><path d="M172.57,339h1.82V328a3,3,0,0,0-.71-1.73,7.89,7.89,0,0,0-2.74-2.36l-2.23-1.19-2.24,1.19a8.08,8.08,0,0,0-2.74,2.36A3,3,0,0,0,163,328v11h9.54Z" transform="translate(-63.72 -4.23)" fill="url(#linear-gradient-9)"/><path d="M202.85,342.4h2.44V327.66a4.06,4.06,0,0,0-.94-2.33,10.8,10.8,0,0,0-3.68-3.17l-3-1.6-3,1.6a10.67,10.67,0,0,0-3.67,3.17,4,4,0,0,0-.95,2.33V342.4h12.82Z" transform="translate(-63.72 -4.23)" fill="url(#linear-gradient-11)"/><path d="M204.35,325.33a10.8,10.8,0,0,0-3.68-3.17l-3-1.6-1.9,1,2.89,1.54a11.15,11.15,0,0,1,3.83,3.29,4.21,4.21,0,0,1,1,2.43V342.4h1.82V327.66A4.06,4.06,0,0,0,204.35,325.33Z" transform="translate(-63.72 -4.23)" fill="#68e1fd"/><rect x="116.85" y="259.99" width="32.18" height="1.7" fill="#68e1fd"/><rect x="119.26" y="261.62" width="27.36" height="15.64" fill="#68e1fd"/><rect x="119.26" y="261.62" width="27.36" height="15.64" fill="url(#linear-gradient-12)"/><path d="M190.33,277.16h1v-6.1a1.74,1.74,0,0,0-.4-1,4.37,4.37,0,0,0-1.52-1.31l-1.25-.66-1.24.66a4.37,4.37,0,0,0-1.52,1.31,1.74,1.74,0,0,0-.4,1v6.1h5.31Z" transform="translate(-63.72 -4.23)" fill="#68e1fd"/><path d="M190.33,277.16h1v-6.1a1.74,1.74,0,0,0-.4-1,4.37,4.37,0,0,0-1.52-1.31l-1.25-.66-1.24.66a4.37,4.37,0,0,0-1.52,1.31,1.74,1.74,0,0,0-.4,1v6.1h5.31Z" transform="translate(-63.72 -4.23)" fill="url(#linear-gradient-13)"/><path d="M191,270.09a4.37,4.37,0,0,0-1.52-1.31l-1.25-.66-.78.42,1.2.63a4.74,4.74,0,0,1,1.58,1.37,1.77,1.77,0,0,1,.41,1v5.62h.76v-6.1A1.74,1.74,0,0,0,191,270.09Z" transform="translate(-63.72 -4.23)" fill="url(#linear-gradient-14)"/><path d="M198.77,277.16h1v-6.1a1.74,1.74,0,0,0-.4-1,4.37,4.37,0,0,0-1.52-1.31l-1.25-.66-1.24.66a4.37,4.37,0,0,0-1.52,1.31,1.74,1.74,0,0,0-.4,1v6.1h5.31Z" transform="translate(-63.72 -4.23)" fill="#68e1fd"/><path d="M198.77,277.16h1v-6.1a1.74,1.74,0,0,0-.4-1,4.37,4.37,0,0,0-1.52-1.31l-1.25-.66-1.24.66a4.37,4.37,0,0,0-1.52,1.31,1.74,1.74,0,0,0-.4,1v6.1h5.31Z" transform="translate(-63.72 -4.23)" fill="url(#linear-gradient-15)"/><path d="M199.39,270.09a4.37,4.37,0,0,0-1.52-1.31l-1.25-.66-.78.42,1.19.63a4.68,4.68,0,0,1,1.59,1.37,1.77,1.77,0,0,1,.41,1v5.62h.76v-6.1A1.74,1.74,0,0,0,199.39,270.09Z" transform="translate(-63.72 -4.23)" fill="url(#linear-gradient-16)"/><path d="M207.21,277.16h1v-6.1a1.66,1.66,0,0,0-.39-1,4.37,4.37,0,0,0-1.52-1.31l-1.25-.66-1.24.66a4.37,4.37,0,0,0-1.52,1.31,1.74,1.74,0,0,0-.4,1v6.1h5.31Z" transform="translate(-63.72 -4.23)" fill="#68e1fd"/><path d="M207.21,277.16h1v-6.1a1.66,1.66,0,0,0-.39-1,4.37,4.37,0,0,0-1.52-1.31l-1.25-.66-1.24.66a4.37,4.37,0,0,0-1.52,1.31,1.74,1.74,0,0,0-.4,1v6.1h5.31Z" transform="translate(-63.72 -4.23)" fill="url(#linear-gradient-17)"/><path d="M207.83,270.09a4.37,4.37,0,0,0-1.52-1.31l-1.25-.66-.78.42,1.19.63a4.68,4.68,0,0,1,1.59,1.37,1.77,1.77,0,0,1,.41,1v5.62h.75v-6.1A1.66,1.66,0,0,0,207.83,270.09Z" transform="translate(-63.72 -4.23)" fill="#68e1fd"/><path d="M191,270.09a4.37,4.37,0,0,0-1.52-1.31l-1.25-.66-.78.42,1.2.63a4.74,4.74,0,0,1,1.58,1.37,1.77,1.77,0,0,1,.41,1v5.62h.76v-6.1A1.74,1.74,0,0,0,191,270.09Z" transform="translate(-63.72 -4.23)" fill="url(#linear-gradient-14)"/><path d="M199.39,270.09a4.37,4.37,0,0,0-1.52-1.31l-1.25-.66-.78.42,1.19.63a4.68,4.68,0,0,1,1.59,1.37,1.77,1.77,0,0,1,.41,1v5.62h.76v-6.1A1.74,1.74,0,0,0,199.39,270.09Z" transform="translate(-63.72 -4.23)" fill="url(#linear-gradient-16)"/><path d="M207.83,270.09a4.37,4.37,0,0,0-1.52-1.31l-1.25-.66-.78.42,1.19.63a4.68,4.68,0,0,1,1.59,1.37,1.77,1.77,0,0,1,.41,1v5.62h.75v-6.1A1.66,1.66,0,0,0,207.83,270.09Z" transform="translate(-63.72 -4.23)" fill="url(#linear-gradient-20)"/><rect x="118.51" y="275.24" width="29.69" height="2.01" fill="#68e1fd"/><rect x="118.51" y="275.24" width="29.69" height="2.01" fill="url(#linear-gradient-21)"/><rect x="119.26" y="273.88" width="27.36" height="0.65" fill="#68e1fd"/><polygon points="90.62 340.1 78.79 340.1 80.08 273.07 89.33 273.07 90.62 340.1" fill="#68e1fd"/><polygon points="89.2 340.1 78.79 340.1 80.08 273.07 88.22 273.07 89.2 340.1" fill="#68e1fd"/><polygon points="89.2 340.1 78.79 340.1 80.08 273.07 88.22 273.07 89.2 340.1" fill="url(#linear-gradient-22)"/><polygon points="88.45 287.83 79.78 287.83 79.73 289.93 88.48 289.93 88.45 287.83" fill="#68e1fd"/><polygon points="79.31 310.75 79.25 313.19 88.84 313.19 88.81 310.75 79.31 310.75" fill="#68e1fd"/><path d="M149.38,260.8h-1.9c-6.1,1.5-5.63,7.63-5.63,7.63H155S155.48,262.3,149.38,260.8Z" transform="translate(-63.72 -4.23)" fill="#68e1fd"/><path d="M149.38,260.8h-1.9c-6.1,1.5-5.63,7.63-5.63,7.63H155S155.48,262.3,149.38,260.8Z" transform="translate(-63.72 -4.23)" fill="url(#linear-gradient-23)"/><polygon points="85.61 255.72 83.88 255.72 83.52 256.63 85.97 256.63 85.61 255.72" fill="#68e1fd"/><polygon points="84.9 253.25 84.57 253.25 84.42 256.33 85.04 256.33 84.9 253.25" fill="#68e1fd"/><path d="M149.38,260.8h-1.71a9.5,9.5,0,0,1,4.05,7.63H155S155.48,262.3,149.38,260.8Z" transform="translate(-63.72 -4.23)" fill="#68e1fd"/><rect x="78.11" y="264.62" width="13.2" height="7.54" fill="#68e1fd"/><rect x="78.11" y="264.62" width="10.18" height="7.54" fill="#68e1fd"/><rect x="78.11" y="264.62" width="10.18" height="7.54" fill="#68e1fd"/><rect x="78.11" y="264.62" width="10.18" height="7.54" fill="url(#linear-gradient-24)"/><path d="M145.38,274.31h.49v-2.94a.86.86,0,0,0-.19-.47,2.13,2.13,0,0,0-.74-.63l-.6-.32-.6.32a2,2,0,0,0-.73.63.73.73,0,0,0-.19.47v2.94h2.56Z" transform="translate(-63.72 -4.23)" fill="url(#linear-gradient-25)"/><path d="M145.68,270.9a2.13,2.13,0,0,0-.74-.63l-.6-.32-.38.2.58.31a2.27,2.27,0,0,1,.76.65.82.82,0,0,1,.2.49v2.71h.37v-2.94A.86.86,0,0,0,145.68,270.9Z" transform="translate(-63.72 -4.23)" fill="#68e1fd"/><path d="M149.45,274.31h.49v-2.94a.86.86,0,0,0-.19-.47,2.13,2.13,0,0,0-.74-.63l-.6-.32-.6.32a2,2,0,0,0-.73.63.79.79,0,0,0-.19.47v2.94h2.56Z" transform="translate(-63.72 -4.23)" fill="url(#linear-gradient-26)"/><path d="M149.75,270.9a2.13,2.13,0,0,0-.74-.63l-.6-.32-.38.2.58.31a2.27,2.27,0,0,1,.76.65.82.82,0,0,1,.2.49v2.71h.37v-2.94A.86.86,0,0,0,149.75,270.9Z" transform="translate(-63.72 -4.23)" fill="#68e1fd"/><path d="M153.52,274.31H154v-2.94a.86.86,0,0,0-.19-.47,2,2,0,0,0-.74-.63l-.6-.32-.6.32a2,2,0,0,0-.73.63.79.79,0,0,0-.19.47v2.94h2.56Z" transform="translate(-63.72 -4.23)" fill="#68e1fd"/><path d="M145.38,274.31h.49v-2.94a.86.86,0,0,0-.19-.47,2.13,2.13,0,0,0-.74-.63l-.6-.32-.6.32a2,2,0,0,0-.73.63.73.73,0,0,0-.19.47v2.94h2.56Z" transform="translate(-63.72 -4.23)" fill="url(#linear-gradient-25)"/><path d="M149.45,274.31h.49v-2.94a.86.86,0,0,0-.19-.47,2.13,2.13,0,0,0-.74-.63l-.6-.32-.6.32a2,2,0,0,0-.73.63.79.79,0,0,0-.19.47v2.94h2.56Z" transform="translate(-63.72 -4.23)" fill="url(#linear-gradient-26)"/><path d="M153.52,274.31H154v-2.94a.86.86,0,0,0-.19-.47,2,2,0,0,0-.74-.63l-.6-.32-.6.32a2,2,0,0,0-.73.63.79.79,0,0,0-.19.47v2.94h2.56Z" transform="translate(-63.72 -4.23)" fill="url(#linear-gradient-29)"/><path d="M153.82,270.9a2,2,0,0,0-.74-.63l-.6-.32-.38.2.58.31a2.27,2.27,0,0,1,.76.65.82.82,0,0,1,.2.49v2.71H154v-2.94A.86.86,0,0,0,153.82,270.9Z" transform="translate(-63.72 -4.23)" fill="#68e1fd"/><rect x="76.95" y="263.83" width="15.52" height="1.4" fill="#68e1fd"/><rect x="76.95" y="271.68" width="15.52" height="1.4" fill="#68e1fd"/><rect x="78.73" y="287.11" width="11.54" height="2.09" rx="0.58" fill="#68e1fd"/><rect x="77.79" y="309.92" width="13.42" height="2.43" rx="0.67" fill="#68e1fd"/><polygon points="62.17 340.1 45.64 340.1 47.45 246.44 60.36 246.44 62.17 340.1" fill="#68e1fd"/><polygon points="60.18 340.1 45.64 340.1 47.45 246.44 58.81 246.44 60.18 340.1" fill="#68e1fd"/><polygon points="60.18 340.1 45.64 340.1 47.45 246.44 58.81 246.44 60.18 340.1" fill="url(#linear-gradient-30)"/><polygon points="59.13 267.07 47.02 267.07 46.96 270 59.18 270 59.13 267.07" fill="#68e1fd"/><polygon points="59.13 267.07 47.02 267.07 46.96 270 59.18 270 59.13 267.07" fill="url(#linear-gradient-31)"/><polygon points="46.36 299.1 46.29 302.5 59.69 302.5 59.63 299.1 46.36 299.1" fill="#68e1fd"/><polygon points="46.36 299.1 46.29 302.5 59.69 302.5 59.63 299.1 46.36 299.1" fill="url(#linear-gradient-32)"/><path d="M119,227.61H116.3c-8.53,2.1-7.86,10.67-7.86,10.67h18.37S127.48,229.71,119,227.61Z" transform="translate(-63.72 -4.23)" fill="#68e1fd"/><path d="M119,227.61H116.3c-8.53,2.1-7.86,10.67-7.86,10.67h18.37S127.48,229.71,119,227.61Z" transform="translate(-63.72 -4.23)" fill="url(#linear-gradient-33)"/><polygon points="55.16 222.19 52.74 222.19 52.24 223.47 55.66 223.47 55.16 222.19" fill="#68e1fd"/><polygon points="54.17 218.75 53.71 218.75 53.51 223.06 54.37 223.06 54.17 218.75" fill="#68e1fd"/><path d="M119,227.61h-2.4a13.28,13.28,0,0,1,5.67,10.67h4.58S127.48,229.71,119,227.61Z" transform="translate(-63.72 -4.23)" fill="#68e1fd"/><rect x="44.69" y="234.64" width="18.44" height="10.54" fill="#68e1fd"/><rect x="44.69" y="234.64" width="14.22" height="10.54" fill="#68e1fd"/><path d="M113.37,246.49h.68v-4.11a1.1,1.1,0,0,0-.27-.65,3.05,3.05,0,0,0-1-.89l-.83-.44-.84.44a3.05,3.05,0,0,0-1,.89,1.15,1.15,0,0,0-.26.65v4.11h3.58Z" transform="translate(-63.72 -4.23)" fill="url(#linear-gradient-34)"/><path d="M113.78,241.73a3.05,3.05,0,0,0-1-.89l-.83-.44-.53.28.8.43a3.06,3.06,0,0,1,1.07.92,1.17,1.17,0,0,1,.28.67v3.79h.51v-4.11A1.1,1.1,0,0,0,113.78,241.73Z" transform="translate(-63.72 -4.23)" fill="#68e1fd"/><path d="M119.05,246.49h.68v-4.11a1.15,1.15,0,0,0-.26-.65,3.05,3.05,0,0,0-1-.89l-.84-.44-.84.44a3,3,0,0,0-1,.89,1.1,1.1,0,0,0-.27.65v4.11h3.58Z" transform="translate(-63.72 -4.23)" fill="url(#linear-gradient-35)"/><path d="M119.47,241.73a3.05,3.05,0,0,0-1-.89l-.84-.44-.53.28.81.43A3.06,3.06,0,0,1,119,242a1.15,1.15,0,0,1,.27.67v3.79h.51v-4.11A1.15,1.15,0,0,0,119.47,241.73Z" transform="translate(-63.72 -4.23)" fill="#68e1fd"/><path d="M124.74,246.49h.68v-4.11a1.15,1.15,0,0,0-.26-.65,3.15,3.15,0,0,0-1-.89l-.84-.44-.84.44a3.15,3.15,0,0,0-1,.89,1.15,1.15,0,0,0-.26.65v4.11h3.58Z" transform="translate(-63.72 -4.23)" fill="#68e1fd"/><path d="M113.37,246.49h.68v-4.11a1.1,1.1,0,0,0-.27-.65,3.05,3.05,0,0,0-1-.89l-.83-.44-.84.44a3.05,3.05,0,0,0-1,.89,1.15,1.15,0,0,0-.26.65v4.11h3.58Z" transform="translate(-63.72 -4.23)" fill="url(#linear-gradient-34)"/><path d="M119.05,246.49h.68v-4.11a1.15,1.15,0,0,0-.26-.65,3.05,3.05,0,0,0-1-.89l-.84-.44-.84.44a3,3,0,0,0-1,.89,1.1,1.1,0,0,0-.27.65v4.11h3.58Z" transform="translate(-63.72 -4.23)" fill="url(#linear-gradient-35)"/><path d="M124.74,246.49h.68v-4.11a1.15,1.15,0,0,0-.26-.65,3.15,3.15,0,0,0-1-.89l-.84-.44-.84.44a3.15,3.15,0,0,0-1,.89,1.15,1.15,0,0,0-.26.65v4.11h3.58Z" transform="translate(-63.72 -4.23)" fill="url(#linear-gradient-38)"/><path d="M125.16,241.73a3.15,3.15,0,0,0-1-.89l-.84-.44-.53.28.81.43a2.94,2.94,0,0,1,1.06.92,1.11,1.11,0,0,1,.28.67v3.79h.51v-4.11A1.15,1.15,0,0,0,125.16,241.73Z" transform="translate(-63.72 -4.23)" fill="#68e1fd"/><rect x="43.06" y="233.54" width="21.69" height="1.96" fill="#68e1fd"/><rect x="43.06" y="244.5" width="21.69" height="1.96" fill="#68e1fd"/><rect x="43.06" y="233.54" width="21.69" height="1.96" fill="url(#linear-gradient-39)"/><rect x="43.06" y="244.5" width="21.69" height="1.96" fill="url(#linear-gradient-40)"/><rect x="45.55" y="266.06" width="16.13" height="2.93" rx="0.8" fill="#68e1fd"/><rect x="44.24" y="297.92" width="18.75" height="3.4" rx="0.93" fill="#68e1fd"/><rect x="151.88" y="269.79" width="72.06" height="70.31" fill="#68e1fd"/><rect x="151.88" y="269.79" width="72.06" height="70.31" fill="url(#linear-gradient-41)"/><polygon points="162.68 339.67 162.68 281.62 212.93 281.62 212.93 339.67 218.75 339.67 218.75 275.8 156.86 275.8 156.86 339.67 162.68 339.67" fill="#68e1fd"/><path d="M264.89,344.33h6.25V306.55c.1-1.85-1-4-2.43-6a27.41,27.41,0,0,0-9.43-8.11l-7.7-4.11-7.7,4.11a27.41,27.41,0,0,0-9.43,8.11c-1.43,2-2.53,4.14-2.44,6v37.78h32.88Z" transform="translate(-63.72 -4.23)" fill="#68e1fd"/><path d="M264.89,344.33h6.25V306.55c.1-1.85-1-4-2.43-6a27.41,27.41,0,0,0-9.43-8.11l-7.7-4.11-7.7,4.11a27.41,27.41,0,0,0-9.43,8.11c-1.43,2-2.53,4.14-2.44,6v37.78h32.88Z" transform="translate(-63.72 -4.23)" fill="url(#linear-gradient-42)"/><path d="M238.27,344.33V306.44a8,8,0,0,1,1.25-2.22,21.24,21.24,0,0,1,7.3-6.25l4.76-2.54,4.76,2.54a21.21,21.21,0,0,1,7.29,6.25,8.21,8.21,0,0,1,1.26,2.22v37.89h6.25V306.55c.1-1.85-1-4-2.43-6a27.41,27.41,0,0,0-9.43-8.11l-7.7-4.11-7.7,4.11a27.41,27.41,0,0,0-9.43,8.11c-1.43,2-2.53,4.14-2.44,6v37.78Z" transform="translate(-63.72 -4.23)" fill="#68e1fd" opacity="0.6"/><rect x="114.26" y="309.24" width="37.67" height="3.43" fill="#68e1fd"/><rect x="96.49" y="312.34" width="17.77" height="3.43" fill="#68e1fd"/><rect x="287.68" y="281.43" width="2.53" height="62.9" transform="translate(514.17 621.53) rotate(180)" fill="#68e1fd"/><path d="M264.89,306.44a8.21,8.21,0,0,0-1.26-2.22,21.21,21.21,0,0,0-7.29-6.25l-4.76-2.54-3.24,1.72c5.29,3.06,11.58,7.46,11.84,11.21v36h4.71Z" transform="translate(-63.72 -4.23)" fill="#68e1fd" opacity="0.56"/><path d="M264.89,306.44a8.21,8.21,0,0,0-1.26-2.22,21.21,21.21,0,0,0-7.29-6.25l-4.76-2.54-3.24,1.72c5.29,3.06,11.58,7.46,11.84,11.21v36h4.71Z" transform="translate(-63.72 -4.23)" fill="url(#linear-gradient-43)"/><rect x="289.79" y="281.45" width="37.62" height="62.9" transform="translate(553.47 621.56) rotate(-180)" fill="#68e1fd"/><rect x="289.79" y="281.45" width="37.62" height="62.9" transform="translate(553.47 621.56) rotate(-180)" fill="url(#linear-gradient-44)"/><rect x="217.73" y="281.45" width="109.68" height="2.59" transform="translate(481.41 561.25) rotate(-180)" fill="#68e1fd"/><rect x="263.69" y="281.11" width="17.78" height="59" fill="#68e1fd"/><rect x="263.69" y="281.11" width="17.78" height="59" fill="url(#linear-gradient-45)"/><rect x="263.69" y="281.11" width="1.47" height="59" fill="#68e1fd"/><rect x="263.69" y="281.11" width="17.78" height="2.82" fill="#68e1fd"/><path d="M306.51,247.55h4.43C325.14,251,324,265.32,324,265.32h-30.6S292.32,251,306.51,247.55Z" transform="translate(-63.72 -4.23)" fill="#68e1fd"/><path d="M306.51,247.55h4.43C325.14,251,324,265.32,324,265.32h-30.6S292.32,251,306.51,247.55Z" transform="translate(-63.72 -4.23)" fill="url(#linear-gradient-46)"/><polygon points="242.91 241.34 246.94 241.34 247.78 243.47 242.08 243.47 242.91 241.34" fill="#68e1fd"/><polygon points="244.57 235.6 245.33 235.6 245.67 242.77 244.23 242.77 244.57 235.6" fill="#68e1fd"/><path d="M306.51,247.55h4a22.14,22.14,0,0,0-9.44,17.77h-7.63S292.32,251,306.51,247.55Z" transform="translate(-63.72 -4.23)" fill="#68e1fd"/><path d="M302.53,309.73h-2.44V295a4.1,4.1,0,0,1,1-2.34,10.68,10.68,0,0,1,3.68-3.16l3-1.61,3,1.61a10.68,10.68,0,0,1,3.68,3.16,4,4,0,0,1,.95,2.34v14.74H302.53Z" transform="translate(-63.72 -4.23)" fill="url(#linear-gradient-47)"/><path d="M301,292.65a10.68,10.68,0,0,1,3.68-3.16l3-1.61,1.89,1-2.89,1.54a11.25,11.25,0,0,0-3.82,3.3,4.21,4.21,0,0,0-1,2.43v13.57h-1.83V295A4.1,4.1,0,0,1,301,292.65Z" transform="translate(-63.72 -4.23)" fill="#68e1fd"/><path d="M332.81,308.3H331v-11a3,3,0,0,1,.7-1.74,8.19,8.19,0,0,1,2.74-2.36l2.24-1.19,2.23,1.19a8,8,0,0,1,2.74,2.36,3,3,0,0,1,.71,1.74v11h-9.55Z" transform="translate(-63.72 -4.23)" fill="#68e1fd"/><path d="M302.53,309.73h-2.44V295a4.1,4.1,0,0,1,1-2.34,10.68,10.68,0,0,1,3.68-3.16l3-1.61,3,1.61a10.68,10.68,0,0,1,3.68,3.16,4,4,0,0,1,.95,2.34v14.74H302.53Z" transform="translate(-63.72 -4.23)" fill="url(#linear-gradient-47)"/><path d="M332.81,308.3H331v-11a3,3,0,0,1,.7-1.74,8.19,8.19,0,0,1,2.74-2.36l2.24-1.19,2.23,1.19a8,8,0,0,1,2.74,2.36,3,3,0,0,1,.71,1.74v11h-9.55Z" transform="translate(-63.72 -4.23)" fill="url(#linear-gradient-49)"/><path d="M331.7,295.59a8.19,8.19,0,0,1,2.74-2.36l2.24-1.19,1.41.75-2.15,1.15a8.31,8.31,0,0,0-2.85,2.45,3.14,3.14,0,0,0-.73,1.81v10.1H331v-11A3,3,0,0,1,331.7,295.59Z" transform="translate(-63.72 -4.23)" fill="#68e1fd"/><path d="M332.81,339H331v-11a3,3,0,0,1,.7-1.74,8.19,8.19,0,0,1,2.74-2.36l2.24-1.19,2.23,1.19a8,8,0,0,1,2.74,2.36,3,3,0,0,1,.71,1.74v11h-9.55Z" transform="translate(-63.72 -4.23)" fill="url(#linear-gradient-50)"/><path d="M331.7,326.31a8.19,8.19,0,0,1,2.74-2.36l2.24-1.19,1.41.75-2.15,1.15a8.21,8.21,0,0,0-2.85,2.45,3.14,3.14,0,0,0-.73,1.8V339H331v-11A3,3,0,0,1,331.7,326.31Z" transform="translate(-63.72 -4.23)" fill="#68e1fd"/><path d="M302.53,342.42h-2.44V327.67a4.08,4.08,0,0,1,1-2.33,10.71,10.71,0,0,1,3.68-3.17l3-1.6,3,1.6a10.71,10.71,0,0,1,3.68,3.17,4,4,0,0,1,.95,2.33v14.75H302.53Z" transform="translate(-63.72 -4.23)" fill="#68e1fd"/><path d="M332.81,339H331v-11a3,3,0,0,1,.7-1.74,8.19,8.19,0,0,1,2.74-2.36l2.24-1.19,2.23,1.19a8,8,0,0,1,2.74,2.36,3,3,0,0,1,.71,1.74v11h-9.55Z" transform="translate(-63.72 -4.23)" fill="url(#linear-gradient-50)"/><path d="M302.53,342.42h-2.44V327.67a4.08,4.08,0,0,1,1-2.33,10.71,10.71,0,0,1,3.68-3.17l3-1.6,3,1.6a10.71,10.71,0,0,1,3.68,3.17,4,4,0,0,1,.95,2.33v14.75H302.53Z" transform="translate(-63.72 -4.23)" fill="url(#linear-gradient-52)"/><path d="M301,325.34a10.71,10.71,0,0,1,3.68-3.17l3-1.6,1.89,1-2.89,1.54a11.11,11.11,0,0,0-3.82,3.29,4.24,4.24,0,0,0-1,2.43v13.58h-1.83V327.67A4.08,4.08,0,0,1,301,325.34Z" transform="translate(-63.72 -4.23)" fill="#68e1fd"/><rect x="292.64" y="264.24" width="32.18" height="1.7" transform="translate(553.73 525.95) rotate(-180)" fill="#68e1fd"/><rect x="295.05" y="265.87" width="27.36" height="15.64" transform="translate(553.73 543.14) rotate(-180)" fill="#68e1fd"/><rect x="295.05" y="265.87" width="27.36" height="15.64" transform="translate(553.73 543.14) rotate(-180)" fill="url(#linear-gradient-53)"/><path d="M315.05,277.18h-1v-6.11a1.67,1.67,0,0,1,.39-1,4.42,4.42,0,0,1,1.53-1.32l1.24-.66,1.25.66a4.38,4.38,0,0,1,1.52,1.32,1.61,1.61,0,0,1,.39,1v6.11h-5.31Z" transform="translate(-63.72 -4.23)" fill="#68e1fd"/><path d="M315.05,277.18h-1v-6.11a1.67,1.67,0,0,1,.39-1,4.42,4.42,0,0,1,1.53-1.32l1.24-.66,1.25.66a4.38,4.38,0,0,1,1.52,1.32,1.61,1.61,0,0,1,.39,1v6.11h-5.31Z" transform="translate(-63.72 -4.23)" fill="url(#linear-gradient-54)"/><path d="M314.43,270.11a4.42,4.42,0,0,1,1.53-1.32l1.24-.66.79.42-1.2.64a4.6,4.6,0,0,0-1.58,1.36,1.73,1.73,0,0,0-.41,1v5.62H314v-6.11A1.67,1.67,0,0,1,314.43,270.11Z" transform="translate(-63.72 -4.23)" fill="url(#linear-gradient-55)"/><path d="M306.61,277.18h-1v-6.11a1.67,1.67,0,0,1,.39-1,4.42,4.42,0,0,1,1.53-1.32l1.24-.66,1.25.66a4.38,4.38,0,0,1,1.52,1.32,1.61,1.61,0,0,1,.39,1v6.11h-5.31Z" transform="translate(-63.72 -4.23)" fill="#68e1fd"/><path d="M306.61,277.18h-1v-6.11a1.67,1.67,0,0,1,.39-1,4.42,4.42,0,0,1,1.53-1.32l1.24-.66,1.25.66a4.38,4.38,0,0,1,1.52,1.32,1.61,1.61,0,0,1,.39,1v6.11h-5.31Z" transform="translate(-63.72 -4.23)" fill="url(#linear-gradient-56)"/><path d="M306,270.11a4.42,4.42,0,0,1,1.53-1.32l1.24-.66.79.42-1.2.64a4.6,4.6,0,0,0-1.58,1.36,1.73,1.73,0,0,0-.41,1v5.62h-.76v-6.11A1.67,1.67,0,0,1,306,270.11Z" transform="translate(-63.72 -4.23)" fill="url(#linear-gradient-57)"/><path d="M298.17,277.18h-1v-6.11a1.67,1.67,0,0,1,.39-1,4.42,4.42,0,0,1,1.53-1.32l1.24-.66,1.25.66a4.38,4.38,0,0,1,1.52,1.32,1.61,1.61,0,0,1,.39,1v6.11h-5.31Z" transform="translate(-63.72 -4.23)" fill="#68e1fd"/><path d="M298.17,277.18h-1v-6.11a1.67,1.67,0,0,1,.39-1,4.42,4.42,0,0,1,1.53-1.32l1.24-.66,1.25.66a4.38,4.38,0,0,1,1.52,1.32,1.61,1.61,0,0,1,.39,1v6.11h-5.31Z" transform="translate(-63.72 -4.23)" fill="url(#linear-gradient-58)"/><path d="M297.55,270.11a4.42,4.42,0,0,1,1.53-1.32l1.24-.66.79.42-1.2.64a4.6,4.6,0,0,0-1.58,1.36,1.73,1.73,0,0,0-.41,1v5.62h-.76v-6.11A1.67,1.67,0,0,1,297.55,270.11Z" transform="translate(-63.72 -4.23)" fill="#68e1fd"/><path d="M314.43,270.11a4.42,4.42,0,0,1,1.53-1.32l1.24-.66.79.42-1.2.64a4.6,4.6,0,0,0-1.58,1.36,1.73,1.73,0,0,0-.41,1v5.62H314v-6.11A1.67,1.67,0,0,1,314.43,270.11Z" transform="translate(-63.72 -4.23)" fill="url(#linear-gradient-55)"/><path d="M306,270.11a4.42,4.42,0,0,1,1.53-1.32l1.24-.66.79.42-1.2.64a4.6,4.6,0,0,0-1.58,1.36,1.73,1.73,0,0,0-.41,1v5.62h-.76v-6.11A1.67,1.67,0,0,1,306,270.11Z" transform="translate(-63.72 -4.23)" fill="url(#linear-gradient-57)"/><path d="M297.55,270.11a4.42,4.42,0,0,1,1.53-1.32l1.24-.66.79.42-1.2.64a4.6,4.6,0,0,0-1.58,1.36,1.73,1.73,0,0,0-.41,1v5.62h-.76v-6.11A1.67,1.67,0,0,1,297.55,270.11Z" transform="translate(-63.72 -4.23)" fill="url(#linear-gradient-61)"/><rect x="293.46" y="279.49" width="29.69" height="2.01" transform="translate(552.9 556.76) rotate(-180)" fill="#68e1fd"/><rect x="293.46" y="279.49" width="29.69" height="2.01" transform="translate(552.9 556.76) rotate(-180)" fill="url(#linear-gradient-62)"/><rect x="231.33" y="273.89" width="27.36" height="0.65" fill="#68e1fd"/><polygon points="287.32 340.11 299.15 340.11 297.86 273.08 288.62 273.08 287.32 340.11" fill="#68e1fd"/><polygon points="288.75 340.11 299.15 340.11 297.86 273.08 289.73 273.08 288.75 340.11" fill="#68e1fd"/><polygon points="288.75 340.11 299.15 340.11 297.86 273.08 289.73 273.08 288.75 340.11" fill="url(#linear-gradient-63)"/><polygon points="289.5 287.85 298.17 287.85 298.21 289.94 289.46 289.94 289.5 287.85" fill="#68e1fd"/><polygon points="298.64 310.77 298.69 313.2 289.1 313.2 289.14 310.77 298.64 310.77" fill="#68e1fd"/><path d="M356,260.81h1.9c6.1,1.5,5.62,7.64,5.62,7.64H350.38S349.91,262.31,356,260.81Z" transform="translate(-63.72 -4.23)" fill="#68e1fd"/><path d="M356,260.81h1.9c6.1,1.5,5.62,7.64,5.62,7.64H350.38S349.91,262.31,356,260.81Z" transform="translate(-63.72 -4.23)" fill="url(#linear-gradient-64)"/><polygon points="292.34 255.73 294.07 255.73 294.43 256.64 291.98 256.64 292.34 255.73" fill="#68e1fd"/><polygon points="293.05 253.26 293.38 253.26 293.52 256.35 292.9 256.35 293.05 253.26" fill="#68e1fd"/><path d="M356,260.81h1.71a9.5,9.5,0,0,0-4.05,7.64h-3.29S349.91,262.31,356,260.81Z" transform="translate(-63.72 -4.23)" fill="#68e1fd"/><rect x="350.36" y="268.87" width="13.2" height="7.54" transform="translate(650.2 541.04) rotate(-180)" fill="#68e1fd"/><rect x="353.38" y="268.87" width="10.18" height="7.54" transform="translate(653.21 541.04) rotate(-180)" fill="#68e1fd"/><rect x="353.38" y="268.87" width="10.18" height="7.54" transform="translate(653.21 541.04) rotate(-180)" fill="#68e1fd"/><rect x="353.38" y="268.87" width="10.18" height="7.54" transform="translate(653.21 541.04) rotate(-180)" fill="url(#linear-gradient-65)"/><path d="M360,274.32h-.49v-2.94a.81.81,0,0,1,.19-.47,2.15,2.15,0,0,1,.74-.63l.6-.32.6.32a2.21,2.21,0,0,1,.73.63.81.81,0,0,1,.19.47v2.94H360Z" transform="translate(-63.72 -4.23)" fill="url(#linear-gradient-66)"/><path d="M359.71,270.91a2.15,2.15,0,0,1,.74-.63l.6-.32.37.2-.57.31a2.22,2.22,0,0,0-.77.66.84.84,0,0,0-.19.48v2.71h-.37v-2.94A.81.81,0,0,1,359.71,270.91Z" transform="translate(-63.72 -4.23)" fill="#68e1fd"/><path d="M355.94,274.32h-.49v-2.94a.81.81,0,0,1,.19-.47,2.15,2.15,0,0,1,.74-.63l.6-.32.6.32a2.21,2.21,0,0,1,.73.63.81.81,0,0,1,.19.47v2.94h-2.56Z" transform="translate(-63.72 -4.23)" fill="url(#linear-gradient-67)"/><path d="M355.64,270.91a2.15,2.15,0,0,1,.74-.63l.6-.32.37.2-.57.31a2.22,2.22,0,0,0-.77.66.84.84,0,0,0-.19.48v2.71h-.37v-2.94A.81.81,0,0,1,355.64,270.91Z" transform="translate(-63.72 -4.23)" fill="#68e1fd"/><path d="M351.87,274.32h-.49v-2.94a.81.81,0,0,1,.19-.47,2.21,2.21,0,0,1,.73-.63l.61-.32.6.32a2.21,2.21,0,0,1,.73.63.81.81,0,0,1,.19.47v2.94h-2.56Z" transform="translate(-63.72 -4.23)" fill="#68e1fd"/><path d="M360,274.32h-.49v-2.94a.81.81,0,0,1,.19-.47,2.15,2.15,0,0,1,.74-.63l.6-.32.6.32a2.21,2.21,0,0,1,.73.63.81.81,0,0,1,.19.47v2.94H360Z" transform="translate(-63.72 -4.23)" fill="url(#linear-gradient-66)"/><path d="M355.94,274.32h-.49v-2.94a.81.81,0,0,1,.19-.47,2.15,2.15,0,0,1,.74-.63l.6-.32.6.32a2.21,2.21,0,0,1,.73.63.81.81,0,0,1,.19.47v2.94h-2.56Z" transform="translate(-63.72 -4.23)" fill="url(#linear-gradient-67)"/><path d="M351.87,274.32h-.49v-2.94a.81.81,0,0,1,.19-.47,2.21,2.21,0,0,1,.73-.63l.61-.32.6.32a2.21,2.21,0,0,1,.73.63.81.81,0,0,1,.19.47v2.94h-2.56Z" transform="translate(-63.72 -4.23)" fill="url(#linear-gradient-70)"/><path d="M351.57,270.91a2.21,2.21,0,0,1,.73-.63l.61-.32.37.2-.57.31a2.22,2.22,0,0,0-.77.66.84.84,0,0,0-.19.48v2.71h-.37v-2.94A.81.81,0,0,1,351.57,270.91Z" transform="translate(-63.72 -4.23)" fill="#68e1fd"/><rect x="349.2" y="268.08" width="15.52" height="1.4" transform="translate(650.2 533.33) rotate(-180)" fill="#68e1fd"/><rect x="349.2" y="275.93" width="15.52" height="1.4" transform="translate(650.2 549.02) rotate(-180)" fill="#68e1fd"/><rect x="351.4" y="291.36" width="11.54" height="2.09" rx="0.58" transform="translate(650.61 580.58) rotate(-180)" fill="#68e1fd"/><rect x="350.46" y="314.16" width="13.42" height="2.43" rx="0.67" transform="translate(650.61 626.52) rotate(-180)" fill="#68e1fd"/><polygon points="315.77 340.11 332.3 340.11 330.5 246.45 317.58 246.45 315.77 340.11" fill="#68e1fd"/><polygon points="317.77 340.11 332.3 340.11 330.5 246.45 319.14 246.45 317.77 340.11" fill="#68e1fd"/><polygon points="317.77 340.11 332.3 340.11 330.5 246.45 319.14 246.45 317.77 340.11" fill="url(#linear-gradient-71)"/><polygon points="318.81 267.08 330.93 267.08 330.99 270.01 318.77 270.01 318.81 267.08" fill="#68e1fd"/><polygon points="318.81 267.08 330.93 267.08 330.99 270.01 318.77 270.01 318.81 267.08" fill="url(#linear-gradient-72)"/><polygon points="331.59 299.11 331.66 302.51 318.26 302.51 318.31 299.11 331.59 299.11" fill="#68e1fd"/><polygon points="331.59 299.11 331.66 302.51 318.26 302.51 318.31 299.11 331.59 299.11" fill="url(#linear-gradient-73)"/><path d="M386.43,227.63h2.66c8.52,2.1,7.86,10.67,7.86,10.67H378.57S377.91,229.73,386.43,227.63Z" transform="translate(-63.72 -4.23)" fill="#68e1fd"/><path d="M386.43,227.63h2.66c8.52,2.1,7.86,10.67,7.86,10.67H378.57S377.91,229.73,386.43,227.63Z" transform="translate(-63.72 -4.23)" fill="url(#linear-gradient-74)"/><polygon points="322.78 222.21 325.2 222.21 325.7 223.49 322.28 223.49 322.78 222.21" fill="#68e1fd"/><polygon points="323.77 218.76 324.23 218.76 324.44 223.07 323.57 223.07 323.77 218.76" fill="#68e1fd"/><path d="M386.43,227.63h2.39a13.27,13.27,0,0,0-5.66,10.67h-4.59S377.91,229.73,386.43,227.63Z" transform="translate(-63.72 -4.23)" fill="#68e1fd"/><rect x="378.54" y="238.88" width="18.44" height="10.54" transform="translate(711.8 484.07) rotate(-180)" fill="#68e1fd"/><rect x="382.76" y="238.88" width="14.22" height="10.54" transform="translate(716.02 484.07) rotate(-180)" fill="#68e1fd"/><path d="M392,246.5h-.68v-4.11a1.15,1.15,0,0,1,.26-.65,3,3,0,0,1,1-.88l.84-.45.84.45a3,3,0,0,1,1,.88,1.15,1.15,0,0,1,.26.65v4.11H392Z" transform="translate(-63.72 -4.23)" fill="url(#linear-gradient-75)"/><path d="M391.6,241.74a3,3,0,0,1,1-.88l.84-.45.53.28-.81.43a2.94,2.94,0,0,0-1.06.92,1.13,1.13,0,0,0-.28.68v3.78h-.51v-4.11A1.15,1.15,0,0,1,391.6,241.74Z" transform="translate(-63.72 -4.23)" fill="#68e1fd"/><path d="M386.33,246.5h-.68v-4.11a1.1,1.1,0,0,1,.27-.65,2.89,2.89,0,0,1,1-.88l.84-.45.84.45a2.92,2.92,0,0,1,1,.88,1.15,1.15,0,0,1,.26.65v4.11h-3.58Z" transform="translate(-63.72 -4.23)" fill="url(#linear-gradient-76)"/><path d="M385.92,241.74a2.89,2.89,0,0,1,1-.88l.84-.45.53.28-.8.43a3.06,3.06,0,0,0-1.07.92,1.2,1.2,0,0,0-.28.68v3.78h-.51v-4.11A1.1,1.1,0,0,1,385.92,241.74Z" transform="translate(-63.72 -4.23)" fill="#68e1fd"/><path d="M380.65,246.5H380v-4.11a1.15,1.15,0,0,1,.26-.65,2.92,2.92,0,0,1,1-.88l.84-.45.83.45a2.92,2.92,0,0,1,1,.88,1.1,1.1,0,0,1,.27.65v4.11h-3.58Z" transform="translate(-63.72 -4.23)" fill="#68e1fd"/><path d="M392,246.5h-.68v-4.11a1.15,1.15,0,0,1,.26-.65,3,3,0,0,1,1-.88l.84-.45.84.45a3,3,0,0,1,1,.88,1.15,1.15,0,0,1,.26.65v4.11H392Z" transform="translate(-63.72 -4.23)" fill="url(#linear-gradient-75)"/><path d="M386.33,246.5h-.68v-4.11a1.1,1.1,0,0,1,.27-.65,2.89,2.89,0,0,1,1-.88l.84-.45.84.45a2.92,2.92,0,0,1,1,.88,1.15,1.15,0,0,1,.26.65v4.11h-3.58Z" transform="translate(-63.72 -4.23)" fill="url(#linear-gradient-76)"/><path d="M380.65,246.5H380v-4.11a1.15,1.15,0,0,1,.26-.65,2.92,2.92,0,0,1,1-.88l.84-.45.83.45a2.92,2.92,0,0,1,1,.88,1.1,1.1,0,0,1,.27.65v4.11h-3.58Z" transform="translate(-63.72 -4.23)" fill="url(#linear-gradient-79)"/><path d="M380.23,241.74a2.92,2.92,0,0,1,1-.88l.84-.45.53.28-.81.43a3.06,3.06,0,0,0-1.07.92,1.18,1.18,0,0,0-.27.68v3.78H380v-4.11A1.15,1.15,0,0,1,380.23,241.74Z" transform="translate(-63.72 -4.23)" fill="#68e1fd"/><rect x="376.92" y="237.79" width="21.69" height="1.96" transform="translate(711.8 473.3) rotate(-180)" fill="#68e1fd"/><rect x="376.92" y="248.75" width="21.69" height="1.96" transform="translate(711.8 495.22) rotate(-180)" fill="#68e1fd"/><rect x="376.92" y="237.79" width="21.69" height="1.96" transform="translate(711.8 473.3) rotate(-180)" fill="url(#linear-gradient-80)"/><rect x="376.92" y="248.75" width="21.69" height="1.96" transform="translate(711.8 495.22) rotate(-180)" fill="url(#linear-gradient-81)"/><rect x="379.99" y="270.31" width="16.13" height="2.93" rx="0.8" transform="translate(712.38 539.31) rotate(-180)" fill="#68e1fd"/><rect x="378.68" y="302.17" width="18.75" height="3.4" rx="0.93" transform="translate(712.38 603.51) rotate(-180)" fill="#68e1fd"/><rect x="289.74" y="313.48" width="37.67" height="3.43" transform="translate(553.42 626.16) rotate(-180)" fill="#68e1fd"/><rect x="263.69" y="312.35" width="17.77" height="3.43" fill="#68e1fd"/><rect x="37.97" y="339.71" width="299.9" height="17.52" fill="#68e1fd"/><rect x="37.97" y="339.71" width="299.9" height="17.52" fill="url(#linear-gradient-82)"/><rect x="37.97" y="339.71" width="299.9" height="5.77" fill="#68e1fd"/></svg>