<svg id="Layer_1" data-name="Layer 1" xmlns="http://www.w3.org/2000/svg" xmlns:xlink="http://www.w3.org/1999/xlink" viewBox="0 0 391.78 270.11"><defs><linearGradient id="linear-gradient" x1="220.2" y1="110.58" x2="230.56" y2="110.58" gradientUnits="userSpaceOnUse"><stop offset="0" stop-opacity="0"/><stop offset="0.99"/></linearGradient><linearGradient id="linear-gradient-2" x1="111.82" y1="267.15" x2="185.16" y2="267.15" gradientUnits="userSpaceOnUse"><stop offset="0" stop-color="#e5c5d5"/><stop offset="0.42" stop-color="#ead4d1"/><stop offset="1" stop-color="#f0e9cb"/></linearGradient><linearGradient id="linear-gradient-3" x1="166.7" y1="238.13" x2="304.22" y2="274.64" xlink:href="#linear-gradient-2"/><linearGradient id="linear-gradient-4" x1="191.24" y1="275.6" x2="298.4" y2="275.6" xlink:href="#linear-gradient-2"/><linearGradient id="linear-gradient-5" x1="215.99" y1="244.05" x2="381.3" y2="287.95" xlink:href="#linear-gradient-2"/><linearGradient id="linear-gradient-6" x1="237.03" y1="158.15" x2="308.41" y2="158.15" xlink:href="#linear-gradient-2"/><linearGradient id="linear-gradient-7" x1="273.12" y1="161.95" x2="506.32" y2="223.87" xlink:href="#linear-gradient-2"/><linearGradient id="linear-gradient-8" x1="263.14" y1="124.38" x2="268.26" y2="124.38" xlink:href="#linear-gradient-2"/><linearGradient id="linear-gradient-9" x1="264.88" y1="214.17" x2="167.93" y2="141.98" gradientUnits="userSpaceOnUse"><stop offset="0.02" stop-color="#fff" stop-opacity="0"/><stop offset="0.58" stop-color="#fff" stop-opacity="0.39"/><stop offset="0.68" stop-color="#fff" stop-opacity="0.68"/><stop offset="1" stop-color="#fff"/></linearGradient><linearGradient id="linear-gradient-10" x1="230.87" y1="139.09" x2="245.26" y2="139.09" xlink:href="#linear-gradient-2"/><linearGradient id="linear-gradient-11" x1="240.51" y1="138.87" x2="289.51" y2="151.88" xlink:href="#linear-gradient-2"/><linearGradient id="linear-gradient-12" x1="228.99" y1="175.07" x2="317" y2="175.07" xlink:href="#linear-gradient-2"/><linearGradient id="linear-gradient-13" x1="169.91" y1="252.9" x2="226.15" y2="140.7" xlink:href="#linear-gradient"/><linearGradient id="linear-gradient-14" x1="112.13" y1="343.23" x2="126.68" y2="299.3" xlink:href="#linear-gradient"/><linearGradient id="linear-gradient-15" x1="305.35" y1="336.16" x2="301.15" y2="292.72" xlink:href="#linear-gradient"/><linearGradient id="linear-gradient-16" x1="89.24" y1="80.54" x2="108.13" y2="108.03" xlink:href="#linear-gradient"/><linearGradient id="linear-gradient-17" x1="234.42" y1="123.94" x2="264.96" y2="123.94" xlink:href="#linear-gradient-2"/><linearGradient id="linear-gradient-18" x1="230.19" y1="124.88" x2="236.28" y2="124.88" xlink:href="#linear-gradient-2"/><linearGradient id="linear-gradient-19" x1="248.87" y1="95.5" x2="246.21" y2="134.82" xlink:href="#linear-gradient"/><linearGradient id="linear-gradient-20" x1="179.89" y1="234.35" x2="126.45" y2="109.28" xlink:href="#linear-gradient-9"/></defs><title>Tennis Girl</title><path d="M176.81,103.6c-17.41.56-34.75-2-52.14-3.07-22.29-1.32-44.91,0-66.42,6-7.78,2.18-15.49,5-22.09,9.67-11,7.79-18.11,20-23,32.6-5.9,15-9.2,31.91-3.82,47.07s19.11,27.4,20.82,43.5c1.11,10.39-3.07,20.6-3.62,31-1.23,23.13,16,44.09,36.81,54.29s44.64,11.79,67.79,12.86c12.7.58,25.54,1.05,38-1.33s24.28-7.56,36.51-11.08a141.52,141.52,0,0,1,60.12-3.91c10.81,1.63,21.46,4.52,32.38,5.16,27.95,1.63,54.9-11.78,76.48-29.61,7.4-6.11,14.49-12.95,18.82-21.51,10.63-21,2.34-46.51-8.78-67.25s-25.34-41.15-26.72-64.64c-.58-9.89,1.17-20-1.39-29.6-4.23-15.77-19.67-26.53-35.64-30s-32.55-.92-48.66,1.76c-8.58,1.43-17.2,2.94-25.89,3.53-7.44.51-15.62-1.24-22.67,1-7.41,2.35-13.87,7.7-21.68,9.91A105.61,105.61,0,0,1,176.81,103.6Z" transform="translate(-6.57 -69.16)" fill="#68e1fd" opacity="0.18" style="isolation:isolate"/><path d="M229.09,107.52a7.8,7.8,0,0,0-4.38-.85,5.37,5.37,0,0,0-3.8,2.2,4.06,4.06,0,0,0-.19,4.28,2.73,2.73,0,0,0,1.13,1.08,3.84,3.84,0,0,0,1.68.31,8.17,8.17,0,0,0,4.82-1.34C230.34,111.79,231.76,108.83,229.09,107.52Z" transform="translate(-6.57 -69.16)" fill="#68e1fd"/><path d="M229.09,107.52a7.8,7.8,0,0,0-4.38-.85,5.37,5.37,0,0,0-3.8,2.2,4.06,4.06,0,0,0-.19,4.28,2.73,2.73,0,0,0,1.13,1.08,3.84,3.84,0,0,0,1.68.31,8.17,8.17,0,0,0,4.82-1.34C230.34,111.79,231.76,108.83,229.09,107.52Z" transform="translate(-6.57 -69.16)" fill="url(#linear-gradient)"/><path d="M153.24,220.12,151,266.48s-35.34,30.78-39.14,46.74L121.7,317l49.4-38.37,14.06-41.42S174.14,208.34,153.24,220.12Z" transform="translate(-6.57 -69.16)" fill="url(#linear-gradient-2)"/><path d="M152.41,237.65s4.48,7.06,15,11.68,12.8,3.22,12.8,3.22l1.82-6.16-28.82-23.64Z" transform="translate(-6.57 -69.16)" fill="url(#linear-gradient-3)"/><path d="M224.3,232.28l39.14,23.94,35,57.75-9.88,4.94S255.84,289.28,252,280.54s-3.8-14.06-3.8-14.06l-57-16.34Z" transform="translate(-6.57 -69.16)" fill="url(#linear-gradient-4)"/><path d="M210.19,254.86s18.05-4,23.71-9.45l4-4.61-9-5.67-23.72,5.67L194,247.09l-.39,3.08Z" transform="translate(-6.57 -69.16)" fill="url(#linear-gradient-5)"/><path d="M242.87,145l23.23,15.88,34.2-19s2.09-3.23,5.7.19,2.09,10.83,2.09,10.83l-10.83,8.93-28.69,13.87-6.84.19L237,165.78S240.16,145.62,242.87,145Z" transform="translate(-6.57 -69.16)" fill="url(#linear-gradient-6)"/><path d="M252.58,152.45,262,166.72s7.55,3.35,16.78-2.24,15.95-10.35,15.95-10.35l-1.33-5.87,10.85,8.38-35.64,19H253l-6.15-27.14Z" transform="translate(-6.57 -69.16)" fill="url(#linear-gradient-7)"/><path d="M260.85,131.69c-14.05,0-26.75-10.7-29.59-25.86-3.16-17,7.24-33.22,23.2-36.19a28.4,28.4,0,0,1,22.22,5.24A32.18,32.18,0,0,1,289.15,95h0c3.17,17-7.24,33.22-23.19,36.2A28.66,28.66,0,0,1,260.85,131.69ZM259.6,74a23.42,23.42,0,0,0-4.25.39c-13.35,2.5-22,16.21-19.35,30.57s15.72,24,29.07,21.54,22-16.21,19.34-30.57h0a27.38,27.38,0,0,0-10.59-17.15A23.93,23.93,0,0,0,259.6,74Z" transform="translate(-6.57 -69.16)" fill="#68e1fd"/><path d="M298.61,146.45l-9.22-5.55a78.27,78.27,0,0,0-29.24-9.09,2.41,2.41,0,0,1,.49-4.8,84.45,84.45,0,0,1,24.88,6.59c-3.45-10.5-2.18-23.17-2.11-23.82a2.41,2.41,0,0,1,4.8.5c0,.18-1.79,17.89,4.43,27.22Z" transform="translate(-6.57 -69.16)" fill="#68e1fd"/><path d="M266,120.27a2.14,2.14,0,0,1,2,1.31,3.35,3.35,0,0,1,0,2.47,8.24,8.24,0,0,1-1.27,2.18,5.41,5.41,0,0,1-2.7,2.22.61.61,0,0,1-.33,0,.57.57,0,0,1-.27-.3,3.74,3.74,0,0,1-.3-1.4C263.06,124.85,263.3,120.42,266,120.27Z" transform="translate(-6.57 -69.16)" fill="url(#linear-gradient-8)"/><path d="M317,165a2.38,2.38,0,0,1-1.61-.62l-28.2-25.33a2.41,2.41,0,1,1,3.23-3.59l28.2,25.34A2.41,2.41,0,0,1,317,165Z" transform="translate(-6.57 -69.16)" fill="#68e1fd"/><path d="M317.55,168.78a5.6,5.6,0,0,1-3.83-1.51l-20.36-19A5.62,5.62,0,1,1,301,140l20.36,19a5.63,5.63,0,0,1-3.84,9.74Z" transform="translate(-6.57 -69.16)" fill="#68e1fd"/><path d="M317.55,168.78a5.6,5.6,0,0,1-3.83-1.51l-20.36-19A5.62,5.62,0,1,1,301,140l20.36,19a5.63,5.63,0,0,1-3.84,9.74Z" transform="translate(-6.57 -69.16)" fill="#3e3e54"/><path d="M297,145.77" transform="translate(-6.57 -69.16)" fill="none" stroke="#68e1fd" stroke-linecap="round" stroke-miterlimit="10" stroke-width="8.03"/><path d="M266.54,101.73a18.15,18.15,0,0,0-4.33-6.56,23.73,23.73,0,0,0-15.8-7.36c-5.95-.19-12.07,2.57-15.32,7.56a24.85,24.85,0,0,0-3,7.66,13.88,13.88,0,0,0-.54,4.61,15.29,15.29,0,0,0,1.32,4.4A41.18,41.18,0,0,0,235,122.49c-1.09-3.14-.88-7.26,1.25-9.82a15.11,15.11,0,0,1,8.52-4.83,14,14,0,0,1,6.63,0,21.31,21.31,0,0,1,5.38,2.63l5.88,3.59c1.65,1,2.83,2,3.68-.25a20.71,20.71,0,0,0,1-6.15C267.42,105.61,266.54,103.67,266.54,101.73Z" transform="translate(-6.57 -69.16)" fill="#3e3e54"/><path d="M212.74,105.92a71.78,71.78,0,0,0-12.18-.11,36.55,36.55,0,0,0-10.38,1.51c-2.46.85-4.71,2.22-7.14,3.14-4.34,1.62-9.09,1.74-13.72,1.58a4.89,4.89,0,0,1-2.7-.63,1.75,1.75,0,0,1-.53-2.43c-.49,2.25,1,4.37,2.1,6.39a46.14,46.14,0,0,0,2.75,5.15,16.44,16.44,0,0,0,4.78,4.11,22,22,0,0,0,8.63,3.31,12.36,12.36,0,0,0,8.86-2.06c2-1.47,3.56-3.74,6-4.22a2.31,2.31,0,0,1,1.14,0,3.72,3.72,0,0,1,1.24.82,8.28,8.28,0,0,0,10.07.06,34.57,34.57,0,0,0,3.59-4,6.2,6.2,0,0,1,4.6-2.36c.39,0,.84.07,1.11-.21a1.33,1.33,0,0,0,.24-.51c.39-1.41,1.29-3.27,1.31-4.74,0-1.29-.62-1.62-1.73-2.31A19.73,19.73,0,0,0,212.74,105.92Z" transform="translate(-6.57 -69.16)" fill="#3e3e54"/><path d="M235.32,141.74A13.71,13.71,0,0,0,219.55,146a52.67,52.67,0,0,0-5.51,9.06c-3,6.19-8.26,11.11-11.59,17.15-4.36,7.91-11.47,14.33-17.48,21.09-2.24,2.52,1.59,7.74,2.44,10.89A18.22,18.22,0,0,0,209,216.82c8-2,9.94-4.61,14.78-11.14,4.57-6.18,12.49-16.48,17.67-22.14,3.37-3.7,7.5-7.21,8.51-12.1,1.6-7.66-1.56-20.05-2.09-20.81-.38-.56-4.32-5.39-4.95-5.67C240.37,143.85,237.87,142.73,235.32,141.74Z" transform="translate(-6.57 -69.16)" fill="#68e1fd"/><path d="M235.32,141.74A13.71,13.71,0,0,0,219.55,146a52.67,52.67,0,0,0-5.51,9.06c-3,6.19-8.26,11.11-11.59,17.15-4.36,7.91-11.47,14.33-17.48,21.09-2.24,2.52,1.59,7.74,2.44,10.89,2.43,9.06-2.61,5,6.49,2.7,8-2,9.94-4.6,14.78-11.14,4.57-6.17,12.49-16.47,17.67-22.14,3.37-3.69,13-15.25,14.06-20.14,1.59-7.66,7.94-2.11,7.41-2.87-.38-.56-4.32-5.39-4.95-5.67C240.37,143.85,237.87,142.73,235.32,141.74Z" transform="translate(-6.57 -69.16)" fill="url(#linear-gradient-9)"/><path d="M236.07,128.17c-.78,4.52-2.16,10.14-4.42,14.13-.52.92-1.07,2-.6,3a2.91,2.91,0,0,0,1.53,1.24c3.12,1.43,7.09,4.12,10.41,3.32a2,2,0,0,0,.88-.39,2.05,2.05,0,0,0,.47-1c.42-1.59.45-5.53.85-7.12a1.25,1.25,0,0,0,0-.74,1.27,1.27,0,0,0-.58-.59c-3-2-3.91-5.23-5.84-8.34C238.39,131,236.16,129,236.07,128.17Z" transform="translate(-6.57 -69.16)" fill="url(#linear-gradient-10)"/><path d="M238.78,144.27a9.13,9.13,0,0,0,2.25,3.25c.92.78,2.48,1.18,3.22.24a2.8,2.8,0,0,0,.44-1.3l.9-5.42a7.61,7.61,0,0,0,.13-2.47,6.65,6.65,0,0,0-1-2.29,26.69,26.69,0,0,0-4.56-5.59,6.27,6.27,0,0,0-1.33-1c-3.51-1.83-2.31,3.52-2.16,5.41A27.64,27.64,0,0,0,238.78,144.27Z" transform="translate(-6.57 -69.16)" fill="url(#linear-gradient-11)"/><path d="M233.19,155.87c.15-1.57,2.47-1.58,3.93-1,14.73,5.89,22.67,22.5,36.85,29.62L299.8,164l1.64-6.2,2.92,1.26s4.68-9,6.71-8.36,7.35,6.84,5.57,11.4-3.42,7.6-6.84,7.86-9.37,7-9.37,7S281.05,200,277.38,199.47s-11.78-3.42-11.78-3.42-29.67-17-33.7-23.18C224.67,161.68,233.19,155.87,233.19,155.87Z" transform="translate(-6.57 -69.16)" fill="url(#linear-gradient-12)"/><path d="M174,194.63q-9.19,0-18.39-.54c-3.53-.19-7.16-.45-10.35-2a53.25,53.25,0,0,0,16.39,45,48.11,48.11,0,0,0,8.51,6.31,55.24,55.24,0,0,0,23.53,6.79c14.13,1.08,29.33-2.46,39.16-12.68-5.44-7-8.24-15.58-10.84-24a2.07,2.07,0,0,0-2-2l-12.65-2c-5.22-.84-10.77-1.84-14.65-5.43-2.65-2.46-2.88-7.22-5.48-9.26S177.24,194.65,174,194.63Z" transform="translate(-6.57 -69.16)" fill="#68e1fd"/><path d="M232.8,237.49c-9.83,10.22-25,13.76-39.16,12.68a55.24,55.24,0,0,1-23.53-6.79,48.11,48.11,0,0,1-8.51-6.31,53.22,53.22,0,0,1-16.39-45c3.19,1.54,6.82,1.81,10.34,2q9.19.49,18.4.54c2.64,0,7.89-1.27,11.22-.69a4.43,4.43,0,0,1,2,.78c2.6,2,2.82,6.81,5.48,9.26,3.88,3.59,9.43,4.59,14.66,5.43l12.65,2a2.07,2.07,0,0,1,2,2C224.56,221.91,227.36,230.53,232.8,237.49Z" transform="translate(-6.57 -69.16)" fill="url(#linear-gradient-13)"/><path d="M101.22,330.83a5.14,5.14,0,0,0,2.36,1.52,38.94,38.94,0,0,0,27.18.44,3.2,3.2,0,0,0,1.67-1.06c.67-1,.07-2.36-.57-3.4a61,61,0,0,0-5.93-7.83c-3.76-4.28-10-10-16-6.6C106.7,315.79,98.54,327.23,101.22,330.83Z" transform="translate(-6.57 -69.16)" fill="#68e1fd"/><path d="M109.2,339.06a59.55,59.55,0,0,0,9.06.07c4.73-.23,9.65-.61,13.71-3a2.87,2.87,0,0,0,1.09-1,3,3,0,0,0,.22-1.52,2.55,2.55,0,0,0-.64-2,2.7,2.7,0,0,0-2.22-.17,47.92,47.92,0,0,1-12,.35,29.91,29.91,0,0,1-8.89-1.44c-2-.76-3.93-2-6.09-2.19a3.34,3.34,0,0,0-1.26.08,3.1,3.1,0,0,0-.86.46,5,5,0,0,0-2,3.68,5.09,5.09,0,0,0,2.6,4.77A23.29,23.29,0,0,0,109.2,339.06Z" transform="translate(-6.57 -69.16)" fill="#68e1fd"/><path d="M283.85,315.69c-2.59.88-3,4.38-2.59,7.09a41.82,41.82,0,0,0,2.91,10.59,299.5,299.5,0,0,0,40.28-2,3.54,3.54,0,0,0,2.71-1.18c.59-.91.22-2.11-.25-3.09a17.16,17.16,0,0,0-13.62-9.42c-2.4-.22-4.88.07-7.18-.67-3.7-1.18-6.34-4.95-10.43-3.83-1.75.48-3.27,1.52-5.08,1.93C288.43,315.6,285.9,315,283.85,315.69Z" transform="translate(-6.57 -69.16)" fill="#68e1fd"/><path d="M101.22,330.83a5.14,5.14,0,0,0,2.36,1.52,38.94,38.94,0,0,0,27.18.44,3.2,3.2,0,0,0,1.67-1.06c.67-1,.07-2.36-.57-3.4a61,61,0,0,0-5.93-7.83c-3.76-4.28-10-10-16-6.6C106.7,315.79,98.54,327.23,101.22,330.83Z" transform="translate(-6.57 -69.16)" fill="url(#linear-gradient-14)"/><path d="M283.85,315.69c-2.59.88-3,4.38-2.59,7.09a41.82,41.82,0,0,0,2.91,10.59,299.5,299.5,0,0,0,40.28-2,3.54,3.54,0,0,0,2.71-1.18c.59-.91.22-2.11-.25-3.09a17.16,17.16,0,0,0-13.62-9.42c-2.4-.22-4.88.07-7.18-.67-3.7-1.18-6.34-4.95-10.43-3.83-1.75.48-3.27,1.52-5.08,1.93C288.43,315.6,285.9,315,283.85,315.69Z" transform="translate(-6.57 -69.16)" fill="url(#linear-gradient-15)"/><path d="M326.55,327.56a2.59,2.59,0,0,1,1.46.27,2.29,2.29,0,0,1,.75,1,4.09,4.09,0,0,1,.54,2.85,3,3,0,0,1-1,1.48c-1.23,1-2.92,1.06-4.49,1.12l-39.72,1.47a3.6,3.6,0,0,1-2.23-.4c-2.09-1.49-2.47-5,.48-5.48,3.37-.51,7.09-.13,10.5-.3,7.27-.35,14.53-1,21.79-1.45C318.57,327.83,322.56,327.63,326.55,327.56Z" transform="translate(-6.57 -69.16)" fill="#68e1fd"/><path d="M298.75,323.14a21.84,21.84,0,0,0,4.85-.06c1.36-.22,2.68-.68,4-1a43.53,43.53,0,0,1,4.68-.79c1.68-.21,3.53-.39,4.92.57a.61.61,0,0,1,.2.19c.12.25-.13.52-.36.67a18.66,18.66,0,0,1-8.4,2.69,72.13,72.13,0,0,0-8.82,1.16c-2.26.55-4.55,1.49-6.83,1-.29-.06-.63-.21-.66-.5s.25-.48.37-.73a1,1,0,0,0-.32-1.2,3.29,3.29,0,0,0-1.21-.57,28.61,28.61,0,0,1-7.68-3.88.85.85,0,0,1-.39-.49.59.59,0,0,1,.23-.48c1.12-1,2.35.74,3.16,1.28,1,.69,1.85.46,3,.55,1.46.12,2.91.78,4.36,1A44.85,44.85,0,0,0,298.75,323.14Z" transform="translate(-6.57 -69.16)" fill="#68e1fd"/><circle cx="95.5" cy="89.65" r="13.55" fill="#68e1fd"/><circle cx="95.5" cy="89.65" r="13.55" fill="url(#linear-gradient-16)"/><path d="M92.14,149.46a13.41,13.41,0,0,1,6.33-.06,10.47,10.47,0,0,1,3.78,1.16,9.81,9.81,0,0,1,3.43,4.31,21.21,21.21,0,0,0,2.76,4.84,5.21,5.21,0,0,0,4.94,1.94" transform="translate(-6.57 -69.16)" fill="none" stroke="#fff" stroke-linecap="round" stroke-miterlimit="10" stroke-width="2.24"/><path d="M35.49,174l4.21-4.67a52.67,52.67,0,0,1,6-6,46.54,46.54,0,0,1,6.93-4.43c7.25-4,15.19-7.7,23.45-7.06" transform="translate(-6.57 -69.16)" fill="none" stroke="#68e1fd" stroke-linecap="round" stroke-miterlimit="10" stroke-width="1.35"/><path d="M80.66,161.45A22.1,22.1,0,0,0,73,162c-2.13.67-4,2-6,2.91-3.86,1.83-8.29,2.44-11.8,4.86" transform="translate(-6.57 -69.16)" fill="none" stroke="#68e1fd" stroke-linecap="round" stroke-miterlimit="10" stroke-width="1.35"/><path d="M55.81,178c2.29-2.41,5.61-3.49,8.78-4.49l8.26-2.6" transform="translate(-6.57 -69.16)" fill="none" stroke="#68e1fd" stroke-linecap="round" stroke-miterlimit="10" stroke-width="1.35"/><path d="M264.72,123.49c-.65,5.37-2.28,10.87-6,14.78s-10,5.78-14.78,3.26c-4.38-2.29-6.44-7.38-7.6-12.19,0-.07,0-.13,0-.19a76.3,76.3,0,0,1-1.57-7.56c-.81-5.82-.23-11.66,5.65-14.57a18.64,18.64,0,0,1,20.14,2.66,13.34,13.34,0,0,1,3.19,4C265.16,116.68,265.12,120.18,264.72,123.49Z" transform="translate(-6.57 -69.16)" fill="url(#linear-gradient-17)"/><path d="M236.28,129.15a1.42,1.42,0,0,1-.76.09c-1.8-.18-3.18-2-4.38-3.61a3.28,3.28,0,0,1-.74-3.49A2.75,2.75,0,0,1,231,121a1.38,1.38,0,0,1,.67-.38,3,3,0,0,1,2.64.64,4.14,4.14,0,0,1,.43.35A76.3,76.3,0,0,0,236.28,129.15Z" transform="translate(-6.57 -69.16)" fill="url(#linear-gradient-18)"/><path d="M268,111.82a10,10,0,0,0,0-5,8.09,8.09,0,0,0-2-4.59c-1.68-1.61-4.46-2-7-2.29-6-.59-14.81-1.53-20.37.33a16.14,16.14,0,0,0-6.79,4.19,21.15,21.15,0,0,0-4.29,5.77c-.35.66,1.43,2.77,1.65,3.47a2.71,2.71,0,0,0,1.5,1.45c2.19,1,4.86.6,7.2.17s4.44-.61,6.72-.85,4.53-.39,6.8-.5c4.45-.2,8.84,1.39,13.28,1.66a1.71,1.71,0,0,0,1.1-.11c.3-.13,1.11-1.94,1.31-2.17A4.47,4.47,0,0,0,268,111.82Z" transform="translate(-6.57 -69.16)" fill="#68e1fd"/><path d="M268,111.93a10,10,0,0,0,0-5,8,8,0,0,0-2-4.59c-1.68-1.61-4.46-2-7-2.29-6-.59-14.81-1.53-20.37.32a16.14,16.14,0,0,0-6.79,4.19,21.15,21.15,0,0,0-4.29,5.77c-.35.67,1.43,2.77,1.65,3.47a2.67,2.67,0,0,0,1.5,1.45c2.19,1.06,4.86.6,7.2.18s4.44-.62,6.72-.85,4.53-.4,6.8-.5c4.45-.21,8.84,1.38,13.28,1.65a1.65,1.65,0,0,0,1.1-.1c.3-.13,1.11-2,1.31-2.18A4.44,4.44,0,0,0,268,111.93Z" transform="translate(-6.57 -69.16)" fill="url(#linear-gradient-19)"/><path d="M229.22,116.28a2.87,2.87,0,0,0-.86,2,2.18,2.18,0,0,0,2.36,1.61,8,8,0,0,0,2.94-1.07c6.82-3.31,15.19-2.31,21.86,1.3a8.71,8.71,0,0,0,4.15,1.5,6,6,0,0,0,3.44-1.47c1.39-1.08,2.66-2.84,2-4.49a4.47,4.47,0,0,0-2.24-2.08c-4.68-2.54-9.52-3.3-14.76-3.47-4.66-.15-8.49-.75-12.95,1.44A17.79,17.79,0,0,0,229.22,116.28Z" transform="translate(-6.57 -69.16)" fill="#68e1fd"/><path d="M185,202c-8.59,1.95-17.48,3-26.16,4.49a3.25,3.25,0,0,0-1.77.69,3.18,3.18,0,0,0-.69,2,75.78,75.78,0,0,0,.27,17c-2.75-2.68-5.5-5.38-8-8.28a52.56,52.56,0,0,1-3.39-25.84c3.19,1.54,6.82,1.81,10.34,2q9.19.49,18.4.54c2.64,0,7.89-1.27,11.22-.69C188.85,196.69,191.09,200.61,185,202Z" transform="translate(-6.57 -69.16)" fill="url(#linear-gradient-20)"/></svg>