<svg id="Layer_1" data-name="Layer 1" xmlns="http://www.w3.org/2000/svg" xmlns:xlink="http://www.w3.org/1999/xlink" viewBox="0 0 339.19 295.8"><defs><linearGradient id="linear-gradient" x1="316.15" y1="237.35" x2="114.66" y2="-51.92" gradientTransform="matrix(1, 0, 0, -1, 0, 352)" gradientUnits="userSpaceOnUse"><stop offset="0.01"/><stop offset="0.08" stop-opacity="0.69"/><stop offset="0.21" stop-opacity="0.32"/><stop offset="1" stop-opacity="0"/></linearGradient></defs><title>4</title><path d="M211,28.72a96.12,96.12,0,0,0-12.61,3.17C171.05,40.81,119.09,54.58,98.82,75c-23.5,23.65-16.25,54.77-39.89,78.28-19.55,19.45-35.86,38.48-35.82,68,.08,52,45,70.07,87,83.16C159.87,320,212.78,327.08,264.67,320c22-3,44.22-8.78,62.17-21.82,26.85-19.5,39.76-55.31,34.18-87.68-2.83-16.43-7.79-31.28-9.14-48.16-1.76-22,1.95-44.58-4.5-66.09-11.25-37.47-50.62-60-89.15-66.82C242.66,26.66,226.5,25.9,211,28.72Z" transform="translate(-23.11 -26.94)" fill="#68e1fd" opacity="0.18" style="isolation:isolate"/><g id="BafEv0"><path d="M335.13,165.41a76.11,76.11,0,0,1-11.37,13.13c-1.48,1.38-3,2.74-4.52,4.06a8,8,0,0,0-2.67,6.08,159.7,159.7,0,0,1-1.8,18A108.48,108.48,0,0,1,302.65,242a104.77,104.77,0,0,1-27.84,32.73,100,100,0,0,1-35.72,17.65A114.49,114.49,0,0,1,221,295.52a95.74,95.74,0,0,1-18.77.4,108.81,108.81,0,0,1-28.58-6.1A160.37,160.37,0,0,1,155,281.23a4,4,0,0,1-2-1.67c2-.46,3.8.14,5.64.18A79.37,79.37,0,0,0,183,276.46a70.48,70.48,0,0,0,22.66-11.15c.41-.31,1-.54.89-1.14s-.86-.42-1.35-.48a38.14,38.14,0,0,1-25.47-13.48,45.59,45.59,0,0,1-6.18-10.38c-.62-1.28-.68-2,1.26-1.81a49.5,49.5,0,0,0,11.73-.25c.54-.09,1.21,0,1.48-.83a71.3,71.3,0,0,1-8.24-3.39c-10.22-5.38-16.4-13.85-19.12-25a46.72,46.72,0,0,1-.94-6.77c-.05-.52-.37-1.1.08-1.48s1,0,1.44.25A45.4,45.4,0,0,0,174,204.21c.38.07.85.3,1.08-.08.35-.57-.25-.76-.59-1a37.4,37.4,0,0,1-13.42-21,34.73,34.73,0,0,1,1.42-21.89c.59-1.44,1.34-2.83,1.87-4.3s1-1.23,1.82-.29a122.52,122.52,0,0,0,10.21,10.55c9.37,8.71,20.23,15,32,19.93,9.74,4.09,20,6,30.33,7.31h.39c3.07.22,3.06.05,2.69-3.08a38.28,38.28,0,0,1,2.61-19.76c5.31-12.47,15-19.89,28-22.34a35.5,35.5,0,0,1,26.81,5.41,31.34,31.34,0,0,1,5.13,3.89,4.21,4.21,0,0,0,4.14,1.22,76.32,76.32,0,0,0,14.2-4.72l5.68-2.64c.39-.18.82-.58,1.23-.09s0,.74-.18,1.08A38.24,38.24,0,0,1,321,165.23a36.38,36.38,0,0,1-6,5.29C321.85,170,328.19,167.63,335.13,165.41Z" transform="translate(-23.11 -26.94)" fill="#68e1fd"/></g><path d="M229.18,211.15c7.62,5.07,17,7.07,26.18,6.59a105.09,105.09,0,0,0-4.05,25.89,8.81,8.81,0,0,0,.65,4.42c1,1.91,3.17,2.86,5.24,3.45a29.54,29.54,0,0,0,11.34.93,160,160,0,0,1-2.66-21.92c-.17-6,.33-12,.49-18,.06-2.56.56-5.88,0-8.38-.56-2.34-3.31-3.86-5-5.49a22.61,22.61,0,0,1-5.9-9.5,11.49,11.49,0,0,1-.45-6.28c.63-2.46,2.43-4.45,3.32-6.83s.35-5.75-2.1-6.42c-1.88-.52-4.16.77-5.7-.41-.55-.43-.88-1.11-1.46-1.5a2.7,2.7,0,0,0-3.3.6,10.43,10.43,0,0,0-1.85,3.11,26.49,26.49,0,0,1-10.57,10.85,48.66,48.66,0,0,1-8.9,4c-2.32.82-6,1-8,2.36-2.27,1.52-.4,5.37.61,7.83A32.76,32.76,0,0,0,229.18,211.15Z" transform="translate(-23.11 -26.94)" fill="url(#linear-gradient)"/><path d="M263,250a2,2,0,0,0,.87.6c4.81,2.13,10.25,2.2,15.52,2.23a2,2,0,0,0,1-.17,1.41,1.41,0,0,0,.42-1.8,3.75,3.75,0,0,0-1.44-1.41,32.65,32.65,0,0,0-4.82-2.64c-1.32-.59-2.82-1.22-3.36-2.56a10.4,10.4,0,0,1-.37-2.15c-.5-3.08-5.35-1.57-7,0C262.37,243.51,261.88,248.45,263,250Z" transform="translate(-23.11 -26.94)" fill="#fcab9a"/><path d="M216.56,177.82s-3,15.36,10.22,21.8c9.18,4.45,20.28,5.27,30.32,5.65,1.76.06,3.74-.11,5.51.13,3.49.45,2.48,2.66,2.07,5.59q-1.43,11.12-3,22.21a26.33,26.33,0,0,0,.16,11.65l10.55-1.42a196,196,0,0,1,5.95-31.87c1.25-4.52,3-10.15.4-14.47a23.88,23.88,0,0,0-10.45-8.83L241.75,176Z" transform="translate(-23.11 -26.94)" fill="#473f47"/><path d="M245.55,109.26c.39.92,1.37,1.56,1.6,2.56s-.68,2.25-1.25,3.39c-.76,1.51-.81,3.31-1.58,4.85a1.93,1.93,0,0,1-.67.83,2.17,2.17,0,0,1-.9.22,12.24,12.24,0,0,1-3.62-.25,1,1,0,0,0-.69-.08,1,1,0,0,0-.4.57,19.41,19.41,0,0,0-1,9.19c.14,1,.26,2.26-.56,2.87a1.73,1.73,0,0,1-1,.35c-2.36.27-4.34-1.71-5.67-3.67a26.78,26.78,0,0,1-2.82-5.67,5.22,5.22,0,0,1-.39-1.83,5.8,5.8,0,0,1,.56-2.12,39.11,39.11,0,0,0,2.16-7.49c.6-3.27.86-6.73,2.44-9.63a5.26,5.26,0,0,1,2.33-2.31,6.62,6.62,0,0,1,3.56-.13,9.51,9.51,0,0,1,6.39,3C244.49,104.59,245,108.11,245.55,109.26Z" transform="translate(-23.11 -26.94)" fill="#fcab9a"/><path d="M248.91,133.91a67.84,67.84,0,0,1-1.27,13.64,20.27,20.27,0,0,1-9.66-4.18,9.13,9.13,0,0,1-2.16-2.31c-1.22-2-1.9-9.05,1-10.08C238.05,130.54,248.91,133.63,248.91,133.91Z" transform="translate(-23.11 -26.94)" fill="#fff"/><path d="M240,178.65a14.25,14.25,0,0,1-5.71,2.23A31.7,31.7,0,0,0,226,184.1c-1.56.94-2.61,2.52-4,3.71a9.64,9.64,0,0,1-8,2.14c-.14-.39-.27-.78-.4-1.17-4.38-13.21-3.69-27.4-2.38-41.06.61-6.45,5.69-27.11,15.43-24.71,0,0,9.22,6.37,11.69,10.73,2.25,4,5.52,7.26,4.92,12.24-.8,7-4.55,13.15-4.91,20.45a6.47,6.47,0,0,0,.38,3.11c.67,1.42,2.24,2.26,2.9,3.67A4.75,4.75,0,0,1,240,178.65Z" transform="translate(-23.11 -26.94)" fill="#fff"/><path d="M225.22,167.48a8.75,8.75,0,0,0,1.06,2.79,8.87,8.87,0,0,0,5.66,3.24,76.36,76.36,0,0,0,7.66,1.39c3.82.49,6.88,2.23,10.87.71a19.85,19.85,0,0,0,7.12-5.18c.61-.65,1.13-1.88.32-2.28a1.36,1.36,0,0,0-.66-.11h-6.64c-.13-.53.25-1,.51-1.51s.37-1.2-.1-1.46-.89.08-1.27.34a14.07,14.07,0,0,1-12.89,1.52c-3.91-1.47-4.21-6.34-4.77-10.06a3,3,0,0,0-1.24-2.35,2.49,2.49,0,0,0-1.93.09,9.39,9.39,0,0,0-5.37,4.29C222.62,161,224.61,165.18,225.22,167.48Z" transform="translate(-23.11 -26.94)" fill="#fcab9a"/><path d="M228.86,136.46s4.08,17.65,5.14,19-13.12,7.19-13.12,7.19-6.52-17.5-5.21-24.55S224.85,129.14,228.86,136.46Z" transform="translate(-23.11 -26.94)" fill="#fff"/><path d="M246.19,103.91a1.7,1.7,0,0,1-.1.59,1.6,1.6,0,0,1-.79.66l-1.35.7a.71.71,0,0,1-1-.11l-3-2.62.72,2.89-4,1.83-2.17-2c.53,2.44-.43,4.93-1.22,7.31-1.16,3.5-2,7.34-.79,10.84,1,2.85,3.23,5.37,3.15,8.38L231,127.89a15,15,0,0,0-3.75-2.88,5.13,5.13,0,0,0-4.58-.14,7.09,7.09,0,0,0-1.7,1.39c-2.82,2.79-5.54,5-7,8.69-.36.89-3.62,11-3.45,11a7.21,7.21,0,0,1-4.72-11.57c1.47-1.9,3.87-3,4.92-5.22,1.3-2.68.08-5.83,0-8.81a10.7,10.7,0,0,1,4.14-8.72c1.42-1.06,3.2-1.8,4.06-3.35,1.12-2,.27-4.48.38-6.78.53-11.55,19.82-9.17,25-2.78A8.06,8.06,0,0,1,246.19,103.91Z" transform="translate(-23.11 -26.94)" fill="#231f20"/><path d="M244.07,114.09c-.89,0-2.19.1-3.08,0-.23.58,1.28,2.47,1.59,2.68a.79.79,0,0,0,1-.06,1,1,0,0,0,.19-.59l.28-2.07" transform="translate(-23.11 -26.94)" fill="#fff"/><circle cx="218.07" cy="82.07" r="0.81" fill="#231f20"/><path d="M245.86,144.19c2.7.46,1.41-.18,4.13.16,3.28.43,10.93,2.65,12.66-1.32a8.69,8.69,0,0,0,.54-3.31c.13-5.83,3.44-10.64,1.91-16.26a3,3,0,0,0-.45-1,2.2,2.2,0,0,0-1.11-.71c-3.25-1-5,2.23-4.6,5,.57,3.73-3.39,6.09-3.35,9.87,0,0,5.16,1.76-6.88-1.11C247,135.06,245.86,144.19,245.86,144.19Z" transform="translate(-23.11 -26.94)" fill="#fcab9a"/><rect x="258.58" y="116.28" width="3.86" height="10.53" rx="1.34" transform="translate(-31.88 -6.04) rotate(-4.52)" fill="#68e1fd"/><path d="M258.61,117.39a3.84,3.84,0,0,0-2.44,3.2,4.37,4.37,0,0,0,2.89,4,10.89,10.89,0,0,0,5.22.44,1.8,1.8,0,0,0,1.42-.61,1.75,1.75,0,0,0,.19-1,9.46,9.46,0,0,0-.49-3.73C264.43,117.4,260.82,116.51,258.61,117.39Z" transform="translate(-23.11 -26.94)" fill="#fcab9a"/><path d="M252.4,113.12l.54,3c.18,1,.88,1.62,1.63,1.49,2.94-.51,10.15-1.5,15.28-.19a52.89,52.89,0,0,1,8.2,2.81c1.06.47,2.11-.71,1.93-2.15L278.05,102c-.17-1.41-1.4-2.12-2.3-1.3-3.7,3.36-12.28,10-21.89,10A1.91,1.91,0,0,0,252.4,113.12Z" transform="translate(-23.11 -26.94)" fill="#68e1fd"/><g id="BafEv0-2"><path d="M161.32,101.58a21.52,21.52,0,0,1-3.15,3.65c-.41.38-.83.76-1.26,1.12a2.23,2.23,0,0,0-.74,1.69,44.32,44.32,0,0,1-.5,5,30.15,30.15,0,0,1-3.36,9.8,29,29,0,0,1-7.73,9.09,27.76,27.76,0,0,1-9.92,4.9,33.71,33.71,0,0,1-5,.86,26.68,26.68,0,0,1-5.21.11,30.33,30.33,0,0,1-7.93-1.69,44.17,44.17,0,0,1-5.18-2.39,1.13,1.13,0,0,1-.55-.46,5.9,5.9,0,0,1,1.57,0,22,22,0,0,0,6.75-.91,19.25,19.25,0,0,0,6.29-3.1c.12-.08.29-.15.25-.31s-.24-.12-.38-.14a10.56,10.56,0,0,1-7.06-3.74,12.55,12.55,0,0,1-1.72-2.88c-.17-.36-.19-.54.35-.5a14.14,14.14,0,0,0,3.25-.07c.15,0,.34,0,.42-.23a20.77,20.77,0,0,1-2.29-.94,10.21,10.21,0,0,1-5.31-6.94,13.28,13.28,0,0,1-.26-1.88c0-.14-.1-.3,0-.41s.28,0,.4.07a12.46,12.46,0,0,0,3.54,1c.11,0,.23.09.3,0s-.07-.21-.16-.29A10.28,10.28,0,0,1,113,106.2a9.67,9.67,0,0,1,.39-6.08c.17-.4.38-.78.52-1.19s.29-.34.51-.08a35.59,35.59,0,0,0,2.83,2.93,29.57,29.57,0,0,0,8.88,5.53,32.51,32.51,0,0,0,8.42,2h.11c.85.06.85,0,.75-.86a10.49,10.49,0,0,1,.72-5.48,10,10,0,0,1,7.78-6.2,9.8,9.8,0,0,1,7.44,1.5,8.31,8.31,0,0,1,1.42,1.08,1.15,1.15,0,0,0,1.15.34,21.18,21.18,0,0,0,3.94-1.31l1.58-.74c.11,0,.23-.16.34,0s0,.2-.05.3a10.53,10.53,0,0,1-2.32,3.57,10.1,10.1,0,0,1-1.66,1.47A25,25,0,0,0,161.32,101.58Z" transform="translate(-23.11 -26.94)" fill="#68e1fd"/></g><g id="BafEv0-3"><path d="M119.93,212.12a21.08,21.08,0,0,1-3.15,3.65c-.41.38-.83.76-1.26,1.12a2.23,2.23,0,0,0-.74,1.69,41.91,41.91,0,0,1-.5,5,30,30,0,0,1-3.36,9.81,29.27,29.27,0,0,1-7.73,9.09,27.58,27.58,0,0,1-9.92,4.89,32.48,32.48,0,0,1-5,.87,26.68,26.68,0,0,1-5.21.11,30.33,30.33,0,0,1-7.93-1.69A47.54,47.54,0,0,1,70,244.27a1.13,1.13,0,0,1-.55-.46,5.9,5.9,0,0,1,1.57.05A22.22,22.22,0,0,0,77.7,243,19.25,19.25,0,0,0,84,239.9c.12-.09.29-.15.25-.32s-.24-.11-.38-.13a10.56,10.56,0,0,1-7.06-3.74,12.55,12.55,0,0,1-1.72-2.88c-.17-.36-.19-.54.35-.5a14.21,14.21,0,0,0,3.26-.07c.14,0,.33,0,.41-.23a20.83,20.83,0,0,1-2.29-.95,10.17,10.17,0,0,1-5.31-6.93,13.28,13.28,0,0,1-.26-1.88c0-.14-.1-.3,0-.41s.28,0,.4.07a12.89,12.89,0,0,0,3.54,1c.11,0,.23.08.3,0s-.07-.21-.16-.29a10.3,10.3,0,0,1-3.73-5.84,9.67,9.67,0,0,1,.39-6.08c.17-.4.38-.78.52-1.19s.29-.34.51-.08a35.59,35.59,0,0,0,2.83,2.93,30,30,0,0,0,8.88,5.53,32.51,32.51,0,0,0,8.42,2h.11c.85.06.85,0,.75-.86a10.59,10.59,0,0,1,.72-5.48,10.06,10.06,0,0,1,7.78-6.2,9.8,9.8,0,0,1,7.44,1.5,8.31,8.31,0,0,1,1.42,1.08,1.2,1.2,0,0,0,1.15.34,22.55,22.55,0,0,0,4-1.31l1.57-.74c.11-.05.23-.16.34,0s0,.2,0,.3a10.84,10.84,0,0,1-2.32,3.57,10.1,10.1,0,0,1-1.66,1.47A24.32,24.32,0,0,0,119.93,212.12Z" transform="translate(-23.11 -26.94)" fill="#68e1fd"/></g><path d="M262.17,246.76a6.52,6.52,0,0,0-.91,4.29,2.31,2.31,0,0,0,.53,1.3,2.76,2.76,0,0,0,1.18.57,59,59,0,0,0,16.89,2.62,5.91,5.91,0,0,0,2.17-.3,2.23,2.23,0,0,0,1.41-1.56,2.72,2.72,0,0,0-.26-1.46,6.85,6.85,0,0,0-9-3.65l-.22.1a9.15,9.15,0,0,1-1.81.8,5.4,5.4,0,0,1-1.88,0,27.7,27.7,0,0,1-4.77-1A35.51,35.51,0,0,1,262.17,246.76Z" transform="translate(-23.11 -26.94)" fill="#473f47"/><rect x="233.05" y="29.36" width="61.71" height="29.28" rx="8.64" fill="#fff"/><polygon points="233.05 50.01 224.08 62.87 241.69 58.65 233.05 50.01" fill="#fff"/><rect x="241.69" y="36.5" width="44.06" height="2.44" fill="#68e1fd" opacity="0.18" style="isolation:isolate"/><rect x="241.69" y="41.57" width="44.06" height="2.44" fill="#68e1fd" opacity="0.18" style="isolation:isolate"/><rect x="241.69" y="48.04" width="44.06" height="2.44" fill="#68e1fd" opacity="0.18" style="isolation:isolate"/><rect x="129.9" y="26.04" width="61.71" height="29.28" rx="8.64" fill="#fff"/><polygon points="191.62 46.68 200.59 59.54 182.98 55.31 191.62 46.68" fill="#fff"/><rect x="138.92" y="33.16" width="44.06" height="2.44" fill="#68e1fd" opacity="0.18" style="isolation:isolate"/><rect x="138.92" y="38.24" width="44.06" height="2.44" fill="#68e1fd" opacity="0.18" style="isolation:isolate"/><rect x="138.92" y="44.71" width="44.06" height="2.44" fill="#68e1fd" opacity="0.18" style="isolation:isolate"/></svg>