<svg id="Layer_1" data-name="Layer 1" xmlns="http://www.w3.org/2000/svg" xmlns:xlink="http://www.w3.org/1999/xlink" viewBox="0 0 295.46 275.29"><defs><linearGradient id="linear-gradient" x1="184.23" y1="327.46" x2="181.41" y2="238.48" gradientUnits="userSpaceOnUse"><stop offset="0.01"/><stop offset="0.13" stop-opacity="0.69"/><stop offset="1" stop-opacity="0"/></linearGradient><linearGradient id="linear-gradient-2" x1="209.92" y1="286.03" x2="200.91" y2="230.84" xlink:href="#linear-gradient"/><linearGradient id="linear-gradient-3" x1="358.7" y1="247.25" x2="188.92" y2="175.45" xlink:href="#linear-gradient"/><linearGradient id="linear-gradient-4" x1="32.59" y1="112.39" x2="136.48" y2="130.13" xlink:href="#linear-gradient"/><linearGradient id="linear-gradient-5" x1="198.79" y1="130.98" x2="220.94" y2="160.26" xlink:href="#linear-gradient"/><linearGradient id="linear-gradient-6" x1="1474.07" y1="281.09" x2="1496.22" y2="310.37" gradientTransform="translate(-1052.24 947.99) rotate(-43.08)" xlink:href="#linear-gradient"/><linearGradient id="linear-gradient-7" x1="1362.96" y1="201.4" x2="1385.11" y2="230.69" gradientTransform="translate(-975.31 817.45) rotate(-38.71)" xlink:href="#linear-gradient"/><linearGradient id="linear-gradient-8" x1="269.13" y1="689.63" x2="287.12" y2="713.41" gradientTransform="matrix(1.72, 0.19, -0.16, 1.42, -168.25, -873.02)" xlink:href="#linear-gradient"/><linearGradient id="linear-gradient-9" x1="923.4" y1="651" x2="945.54" y2="680.28" gradientTransform="matrix(1.49, -0.89, 0.74, 1.22, -1639.37, 193.37)" xlink:href="#linear-gradient"/><linearGradient id="linear-gradient-10" x1="931.33" y1="684.54" x2="953.48" y2="713.82" gradientTransform="matrix(1.49, -0.89, 0.74, 1.22, -1639.37, 193.37)" xlink:href="#linear-gradient"/><linearGradient id="linear-gradient-11" x1="554.8" y1="617.4" x2="576.95" y2="646.69" gradientTransform="matrix(1.7, -0.33, 0.28, 1.4, -936.34, -480.76)" xlink:href="#linear-gradient"/><linearGradient id="linear-gradient-12" x1="573.07" y1="615.87" x2="585.83" y2="632.74" gradientTransform="matrix(1.7, -0.34, 0.28, 1.4, -949.9, -498.23)" xlink:href="#linear-gradient"/><linearGradient id="linear-gradient-13" x1="724.49" y1="596.43" x2="737.25" y2="613.3" gradientTransform="matrix(1.64, -0.57, 0.47, 1.35, -1262.45, -240.48)" xlink:href="#linear-gradient"/><linearGradient id="linear-gradient-14" x1="1528.64" y1="1222.51" x2="1541.4" y2="1239.38" gradientTransform="matrix(-1.18, -1.27, -1.05, 0.97, 3262.79, 887.6)" xlink:href="#linear-gradient"/><linearGradient id="linear-gradient-15" x1="1527.38" y1="1241.84" x2="1540.14" y2="1258.71" gradientTransform="matrix(-1.18, -1.27, -1.05, 0.97, 3262.79, 887.6)" xlink:href="#linear-gradient"/></defs><title>15</title><path d="M71.27,248.93c30.37,44.82,103.81,62,153.06,63,38.65.76,79-11.68,105-40.27,18.86-20.75,29-51,20.36-77.67-4.59-14.2-14.18-29.13-23.91-40.41-9.37-10.87-17.71-18.39-22.49-32.82-4.12-12.42-6.5-25.57-12.9-37C284.91,74,276.78,66,268.63,58.36c-7.2-6.79-14.71-13.59-23.85-17.38-10.69-4.45-22.65-4.39-34.24-4.26-10.08.11-20.38.27-29.86,3.69-24.26,8.75-36,35.29-51.77,55.72C116.17,112.67,99.76,126,85.6,141.34s-26.46,33.89-28,54.72S61.39,234.35,71.27,248.93Z" transform="translate(-57.34 -36.68)" fill="#68e1fd" opacity="0.18" style="isolation:isolate"/><path d="M92.69,249c-1.88.37-4.21,1.33-4.11,3.25.06,1.23,1.18,2.11,2.23,2.77a44.17,44.17,0,0,0,9.15,4.43c7.08,2.47,14.66,3.11,22.13,3.7,42.77,3.36,85.7,5.91,128.56,4,8.55-.39,17.91-1.31,23.94-7.38a1.93,1.93,0,0,0,.73-1.35,2,2,0,0,0-1-1.33,29.83,29.83,0,0,0-9.28-4.51,59.22,59.22,0,0,0-12.17-1.73q-33.45-2.37-67-3.83c-20.09-.87-41.22-3.27-61.25-1.18C114,246.92,103.29,246.94,92.69,249Z" transform="translate(-57.34 -36.68)" fill="url(#linear-gradient)"/><path d="M104.85,218.18S138.07,295.32,249,261c0,0,40.47-21.56,45.42-33Z" transform="translate(-57.34 -36.68)" fill="#68e1fd"/><path d="M104.85,218.18S138.07,295.32,249,261c0,0,40.47-21.56,45.42-33Z" transform="translate(-57.34 -36.68)" fill="url(#linear-gradient-2)"/><path d="M131.5,233.57l79.59-138.9c-.2.35,2.4,3.83,2.62,4.18l7.23,11.57,10.59,16.93c1.64,2.62,4.41,5.47,4.29,8.65s-1.58,6.07-2.51,9a17.36,17.36,0,0,0-1,5.52,16.26,16.26,0,0,0,1.38,5.72c1.26,3.07,3.14,6.08,6.09,7.59s6.13,1.31,9.27,1.57c7.31.59,9.77,5.58,13.32,11.25L274,195.31l17,27.15,3.43,5.48S210,304.52,131.5,233.57Z" transform="translate(-57.34 -36.68)" fill="#68e1fd"/><polygon points="134.79 52.45 153.75 57.98 74.16 196.89 47.51 181.5 134.79 52.45" fill="#68e1fd"/><path d="M131.5,233.57l79.59-138.9c-.18.31,2.1,3.36,2.29,3.66l6.4,10.23,9.47,15.15q2.85,4.55,5.69,9.09c2,3.19.9,5.87-.29,9.27-1.35,3.81-2.37,7.85-2,11.88s2.36,8.09,5.86,10.13c2.86,1.68,6.35,1.85,9.67,1.71a20.55,20.55,0,0,1,5,.12c3.22.66,4.49,3.29,6.09,5.85l6.09,9.74,11.28,18,15.52,24.81,2.24,3.59S210,304.52,131.5,233.57Z" transform="translate(-57.34 -36.68)" fill="url(#linear-gradient-3)"/><polygon points="134.79 52.45 153.75 57.98 74.16 196.89 47.51 181.5 134.79 52.45" fill="url(#linear-gradient-4)"/><path d="M109,212.09,136.1,226.2s18.86,31.21,78.27,32.52c42.32.94,75.26-38.46,75.26-38.46l4.8,7.68s-33.6,34.84-80.34,35.77-68.6-15.88-82.59-30.14l-26.65-15.39Z" transform="translate(-57.34 -36.68)" fill="#fff"/><path d="M198.76,135.81a1.84,1.84,0,0,0-.21,1.18,1.2,1.2,0,0,0,.32.53c.92.91,2.59.43,3.33-.62a6.11,6.11,0,0,0,.74-3.71c0-1.22.09-2.87-.55-3.89C200.73,130.79,199.64,133.76,198.76,135.81Z" transform="translate(-57.34 -36.68)" fill="url(#linear-gradient-5)"/><path d="M219.71,150.05a1.81,1.81,0,0,0,.65,1,1.26,1.26,0,0,0,.6.17c1.28,0,2.18-1.46,2-2.73a6.08,6.08,0,0,0-2-3.22c-.86-.86-1.89-2.15-3.05-2.47C217.72,145,219,148,219.71,150.05Z" transform="translate(-57.34 -36.68)" fill="url(#linear-gradient-6)"/><path d="M217.16,126a1.86,1.86,0,0,0,.58,1,1.11,1.11,0,0,0,.58.21c1.28.14,2.28-1.28,2.2-2.56a6.07,6.07,0,0,0-1.73-3.36c-.8-.93-1.73-2.29-2.86-2.69C215.56,120.83,216.57,123.83,217.16,126Z" transform="translate(-57.34 -36.68)" fill="url(#linear-gradient-7)"/><path d="M184,163.2a1.84,1.84,0,0,0-.45,1.33,1.37,1.37,0,0,0,.39.66c1.15,1.19,3.55.9,4.72-.19a6.06,6.06,0,0,0,1.53-4.16c.1-1.41.49-3.29-.26-4.57C187.43,157.73,185.52,161,184,163.2Z" transform="translate(-57.34 -36.68)" fill="url(#linear-gradient-8)"/><path d="M214.07,172.56a2.32,2.32,0,0,0,.55,1.64,1.64,1.64,0,0,0,.88.35c2,.3,4.15-1.78,4.47-3.72s-.62-3.67-1.62-5.21-2-3.58-3.67-4.27C213.31,164.66,213.88,169.26,214.07,172.56Z" transform="translate(-57.34 -36.68)" fill="url(#linear-gradient-9)"/><path d="M250.51,206.54a2.19,2.19,0,0,0,.55,1.63,1.7,1.7,0,0,0,.87.36c2,.29,4.15-1.78,4.47-3.73s-.61-3.66-1.61-5.2-2-3.58-3.67-4.28C249.74,198.64,250.31,203.24,250.51,206.54Z" transform="translate(-57.34 -36.68)" fill="url(#linear-gradient-10)"/><path d="M177.91,205.82a2.26,2.26,0,0,0,0,1.73,1.79,1.79,0,0,0,.7.63c1.8,1,4.52-.27,5.48-2s.66-3.65.25-5.44-.65-4-2-5.27C179.88,198.13,178.85,202.65,177.91,205.82Z" transform="translate(-57.34 -36.68)" fill="url(#linear-gradient-11)"/><path d="M195.12,176.09a1.26,1.26,0,0,0,0,1,1,1,0,0,0,.41.37,2.63,2.63,0,0,0,3.15-1.15,4.29,4.29,0,0,0,.14-3.13c-.23-1-.38-2.33-1.16-3C196.25,171.66,195.66,174.26,195.12,176.09Z" transform="translate(-57.34 -36.68)" fill="url(#linear-gradient-12)"/><path d="M204.57,153.26a1.27,1.27,0,0,0,.12,1,1,1,0,0,0,.45.31,2.63,2.63,0,0,0,3-1.58,4.23,4.23,0,0,0-.31-3.12c-.36-.94-.69-2.26-1.57-2.85C205.06,148.71,204.84,151.37,204.57,153.26Z" transform="translate(-57.34 -36.68)" fill="url(#linear-gradient-13)"/><path d="M180.66,130a1.28,1.28,0,0,1-.56.82,1,1,0,0,1-.54,0,2.63,2.63,0,0,1-1.88-2.78,4.31,4.31,0,0,1,1.74-2.62c.76-.65,1.67-1.66,2.72-1.77C182.36,125.76,181.31,128.22,180.66,130Z" transform="translate(-57.34 -36.68)" fill="url(#linear-gradient-14)"/><path d="M161.89,150.34a1.31,1.31,0,0,1-.57.82,1,1,0,0,1-.54.05,2.61,2.61,0,0,1-1.87-2.78,4.25,4.25,0,0,1,1.73-2.62c.76-.65,1.67-1.66,2.72-1.77C163.59,146.1,162.53,148.55,161.89,150.34Z" transform="translate(-57.34 -36.68)" fill="url(#linear-gradient-15)"/></svg>