<svg id="Layer_1" data-name="Layer 1" xmlns="http://www.w3.org/2000/svg" xmlns:xlink="http://www.w3.org/1999/xlink" viewBox="0 0 413.87 326.55"><defs><linearGradient id="linear-gradient" x1="206.33" y1="173.5" x2="201.42" y2="353.06" gradientUnits="userSpaceOnUse"><stop offset="0.01"/><stop offset="0.13" stop-opacity="0.69"/><stop offset="1" stop-opacity="0"/></linearGradient><linearGradient id="linear-gradient-2" x1="252.48" y1="328.52" x2="208.1" y2="72.13" xlink:href="#linear-gradient"/></defs><title>Yoga Position 2</title><path d="M123.16,95.69C101.9,126.6,98.51,167.4,76.1,197.48c-14.3,19.18-35.42,32.67-48.57,52.65C3.16,287.2,17,344.92,57.24,363.64c14.86,6.91,31.56,8.59,47.91,9.81A1118.12,1118.12,0,0,0,273,373.28c35.25-2.7,71.42-7.39,102.3-24.62s55.58-49.71,54-85c-2.15-46.91-46.62-80.09-63.74-123.81-7.33-18.7-9.74-39.66-21.2-56.15C331.21,64.81,308,55,285.15,52.73,230.11,47.34,158.22,44.71,123.16,95.69Z" transform="translate(-15.46 -49.97)" fill="#68e1fd" opacity="0.18" style="isolation:isolate"/><polygon points="400.02 238.1 9.1 238.1 52.07 212.73 361.99 212.73 400.02 238.1" fill="#68e1fd"/><polygon points="400.02 238.1 9.1 238.1 52.07 212.73 361.99 212.73 400.02 238.1" fill="url(#linear-gradient)"/><path d="M299.89,246a42.17,42.17,0,0,1-.78,9.66c-.58,2.44-1.56,5.11-.4,7.33a6,6,0,0,0,4.75,2.81,28.9,28.9,0,0,0,5.72-.31c11.77-1.06,23.7,4.59,35.21,1.92,3-.7,6.15-2.2,7.41-5a2.79,2.79,0,0,0,.12-2.42c-.67-1.22-2.38-1.2-3.76-1.09-8.05.64-16.08-.91-24-2.45-2.44-.47-5.06-1-6.72-2.89a17.33,17.33,0,0,1-3.86-9.89c0-6,2.38-11.38.92-17.15-.11-.45-1.39-.41-1.78-.66a1.89,1.89,0,0,0-1.35-.1l-7.91,1.39c-2.76.49-3.35.28-3.49,3.16C299.7,235.49,299.92,240.78,299.89,246Z" transform="translate(-15.46 -49.97)" fill="#faaf90"/><path d="M316.35,172.17l-1.54,55.24s-4.44.45-8.6.49c-3.14,0-6.11-.16-6.9-1-1.83-1.84-6-34.06-5.52-45.57s0-21.63,0-21.63-8.75,6-15.19,6.45-12.89,9.2-16.57,15.64-36.36,21.64-44.65,18.87h0c-2.06-.69-4.52-2.74-7.08-5.44C202.53,187.11,194,173,194,173s59.28-40.9,95.18-38.6S316.35,172.17,316.35,172.17Z" transform="translate(-15.46 -49.97)" fill="#282128"/><path d="M217.59,204.92c-6.05,3.59-9.23,10.42-12.63,16.58-4.74,8.58-10.53,16.53-16.36,24.4-3.81,5.13-7.66,10.25-11.78,15.13-1.32,1.59-2.69,3.14-4.07,4.68-2.47,2.77-5,5.49-7.54,8.21a9.43,9.43,0,0,1-3.21,2.56,8.44,8.44,0,0,1-3.16.44A44,44,0,0,1,146,275c-2.76-.82-5.82-2.4-6.25-5.24-1-7.05.11-14.4,1-21.47.68-5.4.25-10.86.59-16.29s1.54-11,5-15.23c5-6.1,13.38-8,19.81-12.5,3.94-2.78,7.09-6.52,10.19-10.21L194,173c9.11,2.62,16.72,9.67,20.66,18.29a32,32,0,0,1,2.7,9.39A29.54,29.54,0,0,1,217.59,204.92Z" transform="translate(-15.46 -49.97)" fill="#68e1fd"/><path d="M107.61,239.16c1.58-1.26,2.54-3.4,4.48-4,.61,2.16,3.43,2.84,5.63,2.36,1.51-.33,3.18-1,4.53-.23a4.43,4.43,0,0,1,1.48,1.7,30,30,0,0,1,3.28,8.1,20.51,20.51,0,0,0,1.16,3.94,4.59,4.59,0,0,0,3,2.62,4.46,4.46,0,0,0,4.2-1.83,13.26,13.26,0,0,0,2-4.39l2.81-9.28a3.13,3.13,0,0,1,1.44-2.17,2.58,2.58,0,0,1,1.38-.08c3.71.58,6.37,3.92,7.89,7.35a26.58,26.58,0,0,1-5.37,28.83,6.14,6.14,0,0,1-2.24,1.58,6.5,6.5,0,0,1-2.49.2c-8.83-.53-17.35-3.52-26.14-4.49-3.75-.42-7.55-.47-11.21-1.37s-7.27-2.79-9.23-6c-2.76-4.53-2.74-13.68.31-18.12C97.26,239.84,103.93,242.1,107.61,239.16Z" transform="translate(-15.46 -49.97)" fill="#faaf90"/><path d="M238.43,258c13.39-.76,26.88-1.32,40.16.55s26.46,6.31,37,14.65c-1,1.83-3.53,2.06-5.62,2.06-7.41,0-15,0-22-2.48-3.32-1.18-6.44-2.9-9.83-3.87a41.09,41.09,0,0,0-11.07-1.2,185.69,185.69,0,0,0-28.75,2c-5,.74-10,1.69-15.11,2-4.26.24-8.59,0-12.75,1a76.2,76.2,0,0,0-7.79,2.55c-9.74,3.32-20.13,4.05-30.39,4.74-4.46.31-9.13.57-13.2-1.28a4.66,4.66,0,0,1-2.08-1.57,4.52,4.52,0,0,1-.59-2.48c0-6.41,5-10.12,10.75-10.77,7.94-.89,15.89-1.65,23.84-2.37Q214.7,259.36,238.43,258Z" transform="translate(-15.46 -49.97)" fill="#faaf90"/><path d="M97.7,242.89a7,7,0,0,0-7,.46,11.57,11.57,0,0,0-4.37,5.73,34.74,34.74,0,0,0-1.64,7.14,31.72,31.72,0,0,0-.51,9.51,18.06,18.06,0,0,0,1.52,5A22.24,22.24,0,0,0,111,283.08a5.39,5.39,0,0,0,1.8-.69c2.33-1.61,5.82-.11,8.36,1.14s5,2.83,7.69,3.6c4.44,1.25,9.19.19,13.79.57,5.1.43,9.86,2.61,14.81,3.92s10.61,1.63,14.79-1.31a2.58,2.58,0,0,0,1.26-1.7c.1-1.06-.91-1.84-1.8-2.4-10.72-6.74-21.84-13.63-34.37-15.44-9.9-1.42-20.32.4-29.74-3a6,6,0,0,1-3-1.93,2.41,2.41,0,0,1,.29-3.28c1.34-.93,3.07.26,4.44,1.13a12,12,0,0,0,6.87,1.86c.26-1.72-1.51-3-3.08-3.76a45,45,0,0,0-8.56-3c-1.5-.37-3.14-.73-4.09-1.95-1.88-2.4.23-6.29-1.47-8.81-.35-.52-.84-.93-1.18-1.45A3,3,0,0,1,97.7,242.89Z" transform="translate(-15.46 -49.97)" fill="#282128"/><path d="M306.78,227.49l-.57.41c-3.14,0-6.11-.16-6.9-1-1.83-1.84-6-34.06-5.52-45.57s0-21.63,0-21.63-8.75,6-15.19,6.45-12.89,9.2-16.57,15.64-36.36,21.64-44.65,18.87h0a29.54,29.54,0,0,1,.22,4.21c-6.05,3.59-9.23,10.42-12.63,16.58-4.74,8.58-10.53,16.53-16.36,24.4-3.81,5.13-7.66,10.25-11.78,15.13-1.32,1.59-2.69,3.14-4.07,4.68l-12,.28S188,217.63,198.3,206.83c3.54-3.7,7.85-7.79,12-11.56,1.5-1.36,3-2.7,4.38-4,6.06-5.37,10.87-9.37,10.87-9.37s54.47-31,66.68-29.12,12.2,8.45,12.2,8.45Z" transform="translate(-15.46 -49.97)" fill="url(#linear-gradient-2)"/></svg>