<svg id="Layer_1" data-name="Layer 1" xmlns="http://www.w3.org/2000/svg" xmlns:xlink="http://www.w3.org/1999/xlink" viewBox="0 0 430.53 369.76"><defs><linearGradient id="linear-gradient" x1="218.49" y1="216.74" x2="214.66" y2="357.06" gradientUnits="userSpaceOnUse"><stop offset="0.01"/><stop offset="0.13" stop-opacity="0.69"/><stop offset="1" stop-opacity="0"/></linearGradient><linearGradient id="linear-gradient-2" x1="187.31" y1="170.34" x2="255.31" y2="128.65" xlink:href="#linear-gradient"/><linearGradient id="linear-gradient-3" x1="278.16" y1="232.47" x2="304.96" y2="202.69" xlink:href="#linear-gradient"/></defs><title>Yoga Position 3</title><path d="M412.64,150.66c-11.78-28-37.52-47.77-64.22-62.35S292.9,62.84,268,45.37c-8.49-5.95-16.57-12.69-26.05-16.88-23.22-10.26-50.09-3.54-74.33,4C123.82,46.13,76.05,66.37,58.8,108.86c-8.12,20-8.11,42.3-13.1,63.3C38.65,201.85,21.85,228.24,11.6,257S-1.2,320.58,18,344.28c5.82,7.17,13.26,12.83,20.88,18,19.91,13.62,42,24.8,65.75,28.86,57.72,9.87,113.58-22.8,171.57-31,23.69-3.34,47.79-2.54,71.55-5.33s48-9.69,65.68-25.84c23.6-21.6,23.91-50.21,16.61-78.56C421.66,217.9,425.78,182,412.64,150.66Z" transform="translate(-3.71 -23.26)" fill="#68e1fd" opacity="0.18" style="isolation:isolate"/><polygon points="429.93 265.59 4.39 265.59 51.16 248.72 388.52 248.72 429.93 265.59" fill="#68e1fd"/><polygon points="429.93 265.59 4.39 265.59 51.16 248.72 388.52 248.72 429.93 265.59" fill="url(#linear-gradient)"/><path d="M304,212.7c2.14-4.49,2.36-9.64,2.17-14.61s-.76-9.83-3.28-14c-3.14-5.16-8.95-8.24-14.87-9.45s-12-.77-18.06-.33l-8.68.64c-7.77.57-16,1.3-22.26,5.93a22.44,22.44,0,0,0-8.79,17.3c-.16,6.21,2.11,12.23,2.41,18.43a71,71,0,0,1-.84,11.63,25,25,0,0,0,0,8c1,4.6,4.35,8.46,8.45,10.75,2.42,1.34,5.18,2.27,7,4.35,2.25,2.6,2.52,6.41,4.44,9.25,2.78-.54,4.73-3.24,5.29-6s0-5.64-.49-8.42-1-5.66-.42-8.43a4.9,4.9,0,0,1,.93-2.11c1.35-1.6,3.86-1.51,5.62-2.64,2.74-1.77,2.78-5.65,3.13-8.9A18.45,18.45,0,0,1,271,212.59a6.14,6.14,0,0,1,3.19-1.78c2.09-.32,4.12,1.14,5.14,3,1.55,2.8.76,5.24,3.2,7.27s4.92,2.26,8.09,1.7A18.72,18.72,0,0,0,304,212.7Z" transform="translate(-3.71 -23.26)" fill="#282128"/><path d="M75.86,266.74c-2,4.13-4,8.37-4.38,12.94-.13,1.59,0,3.4,1.3,4.39,1.06.84,2.55.79,3.9.71l29.1-1.82a18.29,18.29,0,0,0,6.67-1.25,6.31,6.31,0,0,0,3.92-5.16,4.86,4.86,0,0,0-4.6-.65,12.22,12.22,0,0,1-2.13.87,5.18,5.18,0,0,1-1.71,0l-13.11-1.78c-2.23-.31-4.71-.76-6-2.6a5.81,5.81,0,0,1-.91-3.51c.15-5.61,4.95-9.8,7.75-14.66a3,3,0,0,0,.55-2,3.26,3.26,0,0,0-1-1.57c-3.18-3.26-7.51-7.18-10.48-2.26C81.25,254.09,78.77,260.7,75.86,266.74Z" transform="translate(-3.71 -23.26)" fill="#faaf90"/><path d="M201,102.06a31.2,31.2,0,0,0-32.62-1c-8.58,5.09-14.12,14-18.42,23s-7.74,18.52-13.67,26.55c-2.66,3.6-5.8,6.86-8.16,10.67-3,4.89-4.66,10.49-7,15.76a65.93,65.93,0,0,1-11.25,17.44C96.66,209.29,91.27,228,84.13,246.46a23,23,0,0,0,7.79,5.92c1.44.67,3.13,1.19,4.6.58a6.59,6.59,0,0,0,2.32-2c14.06-16.38,24.49-35.57,37.95-52.44,11.19-14,24.36-26.35,37.48-38.61l20.42-19.07c.41-7.51,1.68-16.59,4.2-23.67C200.69,112.17,202.67,107.14,201,102.06Z" transform="translate(-3.71 -23.26)" fill="#282128"/><path d="M209.33,152.59c3.71,5.16,5.83,11.27,7.64,17.36,1.17,3.94,2.29,8.05,4.87,11.26,4.58,5.73,12.53,7.25,19.78,8.38,3.08.49,6.28,1,9.26,0,2.21-.68,4.11-2.09,6.22-3,1.93-.85,4.07-1.33,5.74-2.62,3.28-2.52,3.76-7.27,3.28-11.38-.93-7.94-4.43-15.41-9-22S247,138.24,241.4,132.52a90.6,90.6,0,0,0-11.53-10.46c-3.55-2.55-7.45-4.57-11.12-7-5.45-3.54-10.35-7.84-15.52-11.78a3.8,3.8,0,0,0-2.2-1c-1.74,0-2.6,2.07-3,3.77a174.11,174.11,0,0,0-4,31c-.08,1.91-.66,4.27.64,5.54.94.92,4.46,1.32,5.81,2A26.16,26.16,0,0,1,209.33,152.59Z" transform="translate(-3.71 -23.26)" fill="#68e1fd"/><path d="M209.33,152.59c3.71,5.16,5.83,11.27,7.64,17.36,1.17,3.94,2.29,8.05,4.87,11.26,4.58,5.73,12.53,7.25,19.78,8.38,3.08.49,6.28,1,9.26,0,2.21-.68,4.11-2.09,6.22-3,1.93-.85,4.07-1.33,5.74-2.62,3.28-2.52,3.76-7.27,3.28-11.38-.93-7.94-4.43-15.41-9-22S247,138.24,241.4,132.52a90.6,90.6,0,0,0-11.53-10.46c-3.55-2.55-7.45-4.57-11.12-7-5.45-3.54-10.35-7.84-15.52-11.78a3.8,3.8,0,0,0-2.2-1c-1.74,0-2.6,2.07-3,3.77a174.11,174.11,0,0,0-4,31c-.08,1.91-.66,4.27.64,5.54.94.92,4.46,1.32,5.81,2A26.16,26.16,0,0,1,209.33,152.59Z" transform="translate(-3.71 -23.26)" fill="url(#linear-gradient-2)"/><path d="M275.54,219.05a13.67,13.67,0,0,0-4.94-.09,5.12,5.12,0,0,1-2.85,0c-1.57-.7-1.7-2.81-2.36-4.39-1.56-3.78-6.47-4.74-9.33-7.66a4.55,4.55,0,0,1-1.35-2.41c-.24-1.58.74-3,1.32-4.53a9.56,9.56,0,0,0-4.18-11.42c-1.27-.69-3-1.83-2.32-3.1a2.28,2.28,0,0,1,.75-.73c6.47-4.46,15.59-3.35,22.24.83s11.3,10.87,15.3,17.64c2.33,3.94,5.27,10.35,1.78,14.57C286,222.17,280,220,275.54,219.05Z" transform="translate(-3.71 -23.26)" fill="#faaf90"/><path d="M252.74,180.65s68.88,77.47,73.32,80.13,11.53-5.92,11.53-5.92l-75.1-93.42Z" transform="translate(-3.71 -23.26)" fill="#68e1fd"/><path d="M252.74,180.65s68.88,77.47,73.32,80.13,11.53-5.92,11.53-5.92l-75.1-93.42Z" transform="translate(-3.71 -23.26)" fill="url(#linear-gradient-3)"/><path d="M343.51,270.86c6,1.7,12.23,1.93,18.42,2.33q9.61.63,19.18,1.87a1.54,1.54,0,0,0,1.1-.13c.71-.48.2-1.61-.43-2.19a16.9,16.9,0,0,0-5.24-3.06c-12.7-5.16-27.82-5-38.49-13.64-1.38-1.11-3-2.44-4.71-1.91a4.22,4.22,0,0,0-1.7,1.18c-1.16,1.17-3.29,3.44-3,5.22.26,1.47,2.66,3.47,3.74,4.44A27.88,27.88,0,0,0,343.51,270.86Z" transform="translate(-3.71 -23.26)" fill="#faaf90"/></svg>