<svg id="Layer_1" data-name="Layer 1" xmlns="http://www.w3.org/2000/svg" xmlns:xlink="http://www.w3.org/1999/xlink" viewBox="0 0 421.15 294.42"><defs><linearGradient id="linear-gradient" x1="211.9" y1="219.86" x2="208.1" y2="358.72" gradientUnits="userSpaceOnUse"><stop offset="0.01"/><stop offset="0.13" stop-opacity="0.69"/><stop offset="1" stop-opacity="0"/></linearGradient><linearGradient id="linear-gradient-2" x1="205.67" y1="196.62" x2="172.79" y2="130.86" xlink:href="#linear-gradient"/></defs><title>Yoga Position 1</title><path d="M26.39,204C40.48,182.52,64,168.7,78.24,147.35,96.06,120.61,98.82,83,125,64.39c15.45-11,35.58-12.42,54.53-12.3C215,52.3,253.83,58.38,277.18,85c21,23.93,25.49,60.4,50.29,80.35,11.76,9.45,26.67,13.91,39.87,21.22,31.14,17.25,52,51.77,52.68,87.36.31,15.23-3,30.95-12,43.27C398,331.06,381.66,339.35,365,343.13s-34,3.51-51.14,3.22L174.67,344c-42.71-.73-85.62-1.47-127.73-8.64-29.3-5-31.72-27.76-34.61-53.4C9.32,255.31,11.28,226.93,26.39,204Z" transform="translate(-6.33 -52.08)" fill="#68e1fd" opacity="0.18" style="isolation:isolate"/><polygon points="421.15 268.2 0 268.2 46.29 251.5 380.18 251.5 421.15 268.2" fill="#68e1fd"/><polygon points="421.15 268.2 0 268.2 46.29 251.5 380.18 251.5 421.15 268.2" fill="url(#linear-gradient)"/><path d="M246.22,296.36a6.56,6.56,0,0,1,2.42-.48,6,6,0,0,1,2.62,1.14,156.05,156.05,0,0,0,34.4,16.39,8.09,8.09,0,0,1,3.9,2.14c1,1.16,1,3.19-.3,3.95a3.06,3.06,0,0,1-3-.28,30.07,30.07,0,0,0-2.65-1.65,9.71,9.71,0,0,0-4.13-.46A114,114,0,0,1,239,310.82c-1.17-.41-2.45-.94-3-2.07a4.06,4.06,0,0,1-.21-2.19c.27-2.52,1.2-6.11,3.12-7.93S244,297.09,246.22,296.36Z" transform="translate(-6.33 -52.08)" fill="#faaf90"/><path d="M166.47,195.57c-2.53,4.49-.66,10-.3,15.18a25,25,0,0,1-1.89,11.39,39.71,39.71,0,0,1-7.15,10.63c-2.11,2.4-4.43,4.85-5.13,8a18.76,18.76,0,0,0-.16,5.08,132.76,132.76,0,0,1-3.77,39.36,171.64,171.64,0,0,1,26.54-3c21.82-.51,42.93,7.24,63.15,15.46a3.31,3.31,0,0,1,1.52,1,3.25,3.25,0,0,1,.36,2.16l-.45,7.05a1.78,1.78,0,0,1-2,2.17c-32.23.77-64.57.89-96.63-2.54a24.89,24.89,0,0,1-7.21-1.54c-5.87-2.54-8.92-9-10.63-15.19a144.59,144.59,0,0,1-3.48-18.86l-4-28.81c-3.18-22.78,2.31-47.33,12.41-68a1.51,1.51,0,0,1,2.35-.9C143.33,179.2,155,187,166.47,195.57Z" transform="translate(-6.33 -52.08)" fill="#282128"/><path d="M225.2,124.37c-3.1-2.44-6.69-4.94-10.61-4.52s-7,3.72-10.1,6.32c-9.53,8-22.4,10.42-34,14.85a97.76,97.76,0,0,0-37.68,25.79c-2.19,2.43-4.38,5.33-4.11,8.58a12.17,12.17,0,0,0,2,5.05c4.22,7.13,9.76,14.09,17.56,16.87A37.64,37.64,0,0,0,160.53,199a11.55,11.55,0,0,0,3.71-.37,12.83,12.83,0,0,0,4.48-3.06c10.08-9.14,22.27-17,35.85-17.81,8.81-.54,17.87,1.88,26.35-.53a29.71,29.71,0,0,0,12.51-7.63c2.77-2.72,5.19-6,6-9.76C253,144,235.69,132.59,225.2,124.37Z" transform="translate(-6.33 -52.08)" fill="#68e1fd"/><path d="M225.2,124.37c-3.1-2.44-6.69-4.94-10.61-4.52s-7,3.72-10.1,6.32c-9.53,8-22.4,10.42-34,14.85a97.76,97.76,0,0,0-37.68,25.79c-2.19,2.43-4.38,5.33-4.11,8.58a12.17,12.17,0,0,0,2,5.05c4.22,7.13,9.76,14.09,17.56,16.87A37.64,37.64,0,0,0,160.53,199a11.55,11.55,0,0,0,3.71-.37,12.83,12.83,0,0,0,4.48-3.06c10.08-9.14,22.27-17,35.85-17.81,8.81-.54,17.87,1.88,26.35-.53a29.71,29.71,0,0,0,12.51-7.63c2.77-2.72,5.19-6,6-9.76C253,144,235.69,132.59,225.2,124.37Z" transform="translate(-6.33 -52.08)" fill="url(#linear-gradient-2)"/><path d="M265,153.32a41.5,41.5,0,0,0,4.2-2.26,6.19,6.19,0,0,1,4.59-.74c1.95.62,3.07,2.61,4.55,4a9.2,9.2,0,0,0,8.62,2.14,1.85,1.85,0,0,1,1.06-.09c.68.24.71,1.19.64,1.92a27.69,27.69,0,0,0,3.07,15.55c1.1,2.09,2.49,4.08,3.07,6.37A11.82,11.82,0,0,1,292,190.45a20.09,20.09,0,0,1-9.18,5.77,14.22,14.22,0,0,1-14.37-2c-4.29-2.94-12.49-5.36-15-9.89-1.8-3.21-5.45-14.91-6.71-18.38-2.74-7.53,1.51-8.36-1.23-15.89-1.06-2.91-2.47-6.16-2.55-9.29,3.57,2,5.58,5.71,8.52,8.4C255,152.41,260.14,155.13,265,153.32Z" transform="translate(-6.33 -52.08)" fill="#faaf90"/><path d="M239.44,152.29c-5-3.19-11.84-2.51-16.77.77s-8.08,8.76-9.58,14.49a9,9,0,0,0-.27,4.71,8.69,8.69,0,0,0,2.72,3.88c4.07,3.73,9.45,6.21,12.33,10.92,1.63,2.68,2.28,5.83,2.91,8.91,2.31,11.38,4.63,22.85,4.73,34.47.05,5.15-.34,10.31-.31,15.47,0,6,.61,12,1.2,17.92l3.24,33.1c.3,3,.77,6.35,3.12,8.25,3.34,2.7,8.27,2.25,11.7,5,1.48,1.19,2.67,2.71,4.18,3.86s3.52,1.89,5.29,1.23a2.62,2.62,0,0,0,1.3-1,3.49,3.49,0,0,0,.15-2.77c-1.74-6.71-8.34-10.3-11.85-15.9-2.53-4-2.19-9.16-1.77-13.89l2.71-30.38c.47-5.26.93-10.6-.07-15.78-.76-4-2.36-7.68-3.4-11.57-1.7-6.34-1.91-13-2.1-19.55l-.83-28.17c-.66-.37-.13-.82-.19-1.57-.34-4.23-.21-8.54-1.29-12.64A16.46,16.46,0,0,0,239.44,152.29Z" transform="translate(-6.33 -52.08)" fill="#faaf90"/><path d="M294.42,180.38c-3.49.36-6.48,2.56-9.75,3.84a19.07,19.07,0,0,1-9.72,1.11c-3.25-.47-6.33-1.79-9.56-2.45a48,48,0,0,0-10.17-.61,2.23,2.23,0,0,0-1,.15c-.66.33-.8,1.2-.83,1.94A27.67,27.67,0,0,0,258.29,201c1.12,1.62,2.47,3.27,2.5,5.24,0,1.21-.47,2.41-.26,3.6.29,1.68,1.86,2.8,2.82,4.21,1.6,2.34,1.5,5.41,1.28,8.24q-.66,8.52-2,17c-2,12.9-.79,27,5.22,38.64a197.07,197.07,0,0,0,10.47-20.72c1.23-2.84,2.41-5.81,2.35-8.9-.12-7-6.31-12.46-7.39-19.34-.95-6.05,2-13.14-1.88-17.89-1.66-2-4.59-3.82-4-6.4,8,1.33,16.06-2.68,22.35-7.86,2.62-2.16,5.14-4.65,6.32-7.83S297.06,182.52,294.42,180.38Z" transform="translate(-6.33 -52.08)" fill="#282128"/></svg>