<svg id="Layer_1" data-name="Layer 1" xmlns="http://www.w3.org/2000/svg" xmlns:xlink="http://www.w3.org/1999/xlink" viewBox="0 0 430.12 331.03"><defs><linearGradient id="linear-gradient" x1="227.52" y1="199.92" x2="219.57" y2="490.68" gradientUnits="userSpaceOnUse"><stop offset="0.01"/><stop offset="0.13" stop-opacity="0.69"/><stop offset="1" stop-opacity="0"/></linearGradient><linearGradient id="linear-gradient-2" x1="236.15" y1="188.7" x2="266.53" y2="170.48" xlink:href="#linear-gradient"/><linearGradient id="linear-gradient-3" x1="262.69" y1="243.78" x2="182.5" y2="199.12" xlink:href="#linear-gradient"/><linearGradient id="linear-gradient-4" x1="117.35" y1="306.79" x2="299.78" y2="306.79" xlink:href="#linear-gradient"/><linearGradient id="linear-gradient-5" x1="141.68" y1="334.18" x2="189.3" y2="277.45" xlink:href="#linear-gradient"/><linearGradient id="linear-gradient-6" x1="207.64" y1="281.23" x2="207.94" y2="307.96" xlink:href="#linear-gradient"/><linearGradient id="linear-gradient-7" x1="247.42" y1="344.64" x2="263.82" y2="284.49" xlink:href="#linear-gradient"/><linearGradient id="linear-gradient-8" x1="265.23" y1="288.22" x2="336.81" y2="327.84" xlink:href="#linear-gradient"/></defs><title>Yoga Position 4</title><path d="M99.56,75.53c-17.5,24.1-26.63,55-41.5,81.49-17.89,31.81-44.48,58.1-53.12,95C-6.23,299.75,21.25,356,62.31,369.38,76.53,374,91.42,374,106.09,374l275.43-.45c15.82,0,33.91-1.29,43.45-15.87,5.35-8.17,6.78-19,7.31-29.36a221.26,221.26,0,0,0-16.61-95.92c-15.15-36.08-39.59-66-54.92-102-7.6-17.81-13-37.25-24-52.47-17.61-24.4-46.38-33.54-73.36-34.41-30.23-1-59,3.49-89.23.06C146.08,40.38,118,50.11,99.56,75.53Z" transform="translate(-2.44 -42.98)" fill="#68e1fd" opacity="0.18" style="isolation:isolate"/><polygon points="419.91 307.84 29.23 307.84 72.17 260.78 381.89 260.78 419.91 307.84" fill="#68e1fd"/><polygon points="419.91 307.84 29.23 307.84 72.17 260.78 381.89 260.78 419.91 307.84" fill="url(#linear-gradient)"/><path d="M274.06,255.94c-.55-1.86-1.52-3.63-1.51-5.59,0-4.24,4.22-7,7.4-9.69,4.11-3.53,7.1-8.25,10.28-12.72,1.25-1.76,3.14-3.71,5.07-3,1.58.58,2.11,2.77,1.59,4.48a13.64,13.64,0,0,1-2.89,4.42,42.92,42.92,0,0,0-8.85,35c.91,4.52,3.41,11.35-.1,15.52-2.31,2.76-5.13,1.34-7.17-.86C270.73,275.74,276.79,265.08,274.06,255.94Z" transform="translate(-2.44 -42.98)" fill="#faaf90"/><path d="M203.28,159.12c-1.39,1.19-.66,2.71.1,4.33,1,2.11.69,4.57.7,6.9s.57,5,2.59,6.16,4.81.55,6.46,2.15a4.09,4.09,0,0,1,1.11,2.42A8.18,8.18,0,0,1,212.3,187a32.91,32.91,0,0,1-4.64,4.42,63,63,0,0,0-7,7c-1.6,1.88-3.16,4.08-3.06,6.54a3.1,3.1,0,0,0,.7,2,4.13,4.13,0,0,0,2.76,1A31.88,31.88,0,0,0,222,202.52a7.09,7.09,0,0,0,2.13-2c1.47-2.41.09-5.45-.41-8.23-1.15-6.44,2.78-12.54,5.5-18.49a27.6,27.6,0,0,0,2.93-12.2,15.58,15.58,0,0,0-10.39-14,7.52,7.52,0,0,0-5.22-.23c-3.5,1.3-4.75,5.54-7.29,8.29-1.6,1.72-3.44,2-5.34,3.11A3.69,3.69,0,0,0,203.28,159.12Z" transform="translate(-2.44 -42.98)" fill="#faaf90"/><path d="M213.87,142.82a29.29,29.29,0,0,1,1.14-3c1.62-3.62,5.87-6.17,9.84-5.32,3.27.7,5.86,3.2,9,4.36,2.15.8,4.49,1,6.71,1.54,5.62,1.48,10.54,6.47,10.61,12.28a30.59,30.59,0,0,1-1.16,6.75c-1,4.54-.55,9.34-1.66,13.8-.87,3.51-1.53,6.59.3,10.07,1.56,3,3.51,5.19,4.83,8.31,1.68,4,3.49,7.88,5.23,11.82A25.5,25.5,0,0,1,261,210.1a13,13,0,0,1-3.29,10.55c-2.19,2.36-5.37,4.07-6.28,7.16-.55,1.89-.16,3.93-.7,5.81-.4,1.4-1.38,2.25-1.91,3.53-1.4,3.42-.81,6.67-4,9.34-3.93,3.28-10.19,3-13.54,6.88-1.62,1.88-3.24,4.92-5.6,4.11-1.35-.45-1.93-2-2.2-3.42a23.78,23.78,0,0,1,.34-10.68c1.12-4.22,3.38-8,5-12.11,1.66-4.21,2.61-9.62.9-14s-6-7.21-7-12.09c-1.34-6.18-.2-12.58.38-18.88.38-4,3.31-11.15,3.7-15.17a31.56,31.56,0,0,0-1.78-13.72,8.14,8.14,0,0,0-2.73-4.11c-2.22-1.49-5.34-.79-7.45-2.39C212.47,149.21,213,145.71,213.87,142.82Z" transform="translate(-2.44 -42.98)" fill="#3e3e54"/><path d="M213.87,142.82a29.29,29.29,0,0,1,1.14-3c1.62-3.62,5.87-6.17,9.84-5.32,3.27.7,5.86,3.2,9,4.36,2.15.8,4.49,1,6.71,1.54,5.62,1.48,10.54,6.47,10.61,12.28a30.59,30.59,0,0,1-1.16,6.75c-1,4.54-.55,9.34-1.66,13.8-.87,3.51-1.53,6.59.3,10.07,1.56,3,3.51,5.19,4.83,8.31,1.68,4,3.49,7.88,5.23,11.82A25.5,25.5,0,0,1,261,210.1a13,13,0,0,1-3.29,10.55c-2.19,2.36-5.37,4.07-6.28,7.16-.55,1.89-.16,3.93-.7,5.81-.4,1.4-1.38,2.25-1.91,3.53-1.4,3.42-.81,6.67-4,9.34-3.93,3.28-10.19,3-13.54,6.88-1.62,1.88-3.24,4.92-5.6,4.11-1.35-.45-1.93-2-2.2-3.42a23.78,23.78,0,0,1,.34-10.68c1.12-4.22,3.38-8,5-12.11,1.66-4.21,2.61-9.62.9-14s-6-7.21-7-12.09c-1.34-6.18-.2-12.58.38-18.88.38-4,3.31-11.15,3.7-15.17a31.56,31.56,0,0,0-1.78-13.72,8.14,8.14,0,0,0-2.73-4.11c-2.22-1.49-5.34-.79-7.45-2.39C212.47,149.21,213,145.71,213.87,142.82Z" transform="translate(-2.44 -42.98)" fill="url(#linear-gradient-2)"/><path d="M266.15,157.73a8.53,8.53,0,0,1,2.71-1.79,6,6,0,0,1,4.85.69,15.11,15.11,0,0,1,3.72,3.38c12.1,14,18.55,32.11,22.5,50.22.83,3.81,1.54,7.88.14,11.52a21.12,21.12,0,0,1-4.59,6.43,4.29,4.29,0,0,1-2.8,1.74c-.44-2.11.56-4.21,1.34-6.22s1.32-4.43.1-6.2l-1.69,3.7c-.19.42-.46.9-.92.92-.68,0-.92-.89-.88-1.58.13-2.71.78-5.38.89-8.09.27-6.9-2.94-13.43-6.4-19.4a183.43,183.43,0,0,0-13.51-20.11l-9,7a3.16,3.16,0,0,1-1.28.7,3,3,0,0,1-2.55-1.31c-2.27-2.57-5.67-7.54-3.4-10.73C258.23,164.57,262.41,161,266.15,157.73Z" transform="translate(-2.44 -42.98)" fill="#faaf90"/><path d="M262.82,179.1c0,1.79-1.32,3.28-2.55,4.59-11.11,11.93-22.51,24.16-28.74,39.22-6.72,16.24-3.75,25-5.18,42.53-.07.89-1.1,7.64-1.66,8.35a5,5,0,0,1-1.35.93,17.85,17.85,0,0,1-3.21,1.35c-8,1.9-16.64,4.24-24.55,2a14.34,14.34,0,0,1-4.76-2.1c-.16-.11-.31-.24-.46-.36-4.08-3.55-3.33-9.95-2.6-15.31a116.92,116.92,0,0,0-.67-35.77c-1.66-9.54,5-25.54,15.62-26.92,11.21-1.47,16.64,3.13,25.72-4.31,9.36-7.68,16.83-17.56,26.69-24.57a2.21,2.21,0,0,1,1.49-.57,2.27,2.27,0,0,1,1.37,1.11,50.32,50.32,0,0,1,4,6.86A6.81,6.81,0,0,1,262.82,179.1Z" transform="translate(-2.44 -42.98)" fill="#68e1fd"/><path d="M262.82,179.1c0,1.79-1.32,3.28-2.55,4.59-11.11,11.93-22.51,24.16-28.74,39.22-6.72,16.24-3.75,25-5.18,42.53-.07.89-1.1,7.64-1.66,8.35a5,5,0,0,1-1.35.93,17.85,17.85,0,0,1-3.21,1.35c-8,1.9-16.64,4.24-24.55,2a14.34,14.34,0,0,1-4.76-2.1c-.16-.11-.31-.24-.46-.36-4.08-3.55-3.33-9.95-2.6-15.31a116.92,116.92,0,0,0-.67-35.77c-1.66-9.54,5-25.54,15.62-26.92,11.21-1.47,16.64,3.13,25.72-4.31,9.36-7.68,16.83-17.56,26.69-24.57a2.21,2.21,0,0,1,1.49-.57,2.27,2.27,0,0,1,1.37,1.11,50.32,50.32,0,0,1,4,6.86A6.81,6.81,0,0,1,262.82,179.1Z" transform="translate(-2.44 -42.98)" fill="url(#linear-gradient-3)"/><path d="M117.69,313.27c-1.65,3.66,3,7.44,6.21,9.57s7,3.13,10.68,4c24.16,5.35,48.55-.58,72.4-7.72a8,8,0,0,1,7.72.74A156.19,156.19,0,0,0,287,335.69c3.16-.08,6.53-.33,9.06-2.36,2.72-2.18,3.87-6,3.72-9.63s-1.39-7-2.65-10.35c-3.86-10.25-1.79-21.64-6.14-31.66-.58-1.34-1.24-2.76-2.48-3.42a6,6,0,0,0-3.18-.37c-3.12.2-13.14,2.22-14.07,5.38-.47,1.61,0,3.33.46,5a56.23,56.23,0,0,1,1.12,23.07c-10.6-7.74-25-9.59-33.55-19.74-2.2-2.6-3.93-5.67-6.46-7.92-3.77-3.35-8.93-4.5-13.88-4.42s-9.82,1.26-14.72,2.06a95.16,95.16,0,0,1-14.39,1.22c-3.88,0-7.37-.24-11.16.63C169.49,285.24,126.88,292.88,117.69,313.27Z" transform="translate(-2.44 -42.98)" fill="#3e3e54"/><path d="M299.69,326a10.89,10.89,0,0,1-3.64,7.36c-2.53,2-5.9,2.28-9.06,2.36A156.1,156.1,0,0,1,214.7,319.8a11,11,0,0,0-4.13-1.39,10.25,10.25,0,0,0-3.53.65l-.07,0c-23.84,7.13-48.23,13.06-72.38,7.71-3.72-.82-7.47-1.82-10.69-4s-7.85-5.91-6.21-9.57c9.19-20.39,51.79-28,61-30.14,3.79-.86,7.28-.6,11.16-.64a93.87,93.87,0,0,0,14.39-1.21c4.9-.8,9.77-2,14.72-2.06s10.11,1.07,13.88,4.42c2.53,2.25,4.26,5.32,6.46,7.92,8.59,10.14,23,12,33.54,19.74,0-.16.05-.32.08-.48a56.19,56.19,0,0,0-1.19-22.59c-.43-1.62-.93-3.33-.46-4.94.64-2.21,5.69-3.86,9.75-4.72a34.53,34.53,0,0,1,4.32-.67,5.83,5.83,0,0,1,3.18.38c1.24.64,1.91,2.07,2.48,3.4,4.36,10,2.28,21.42,6.14,31.68,1.26,3.33,2.5,6.74,2.65,10.34A14.36,14.36,0,0,1,299.69,326Z" transform="translate(-2.44 -42.98)" fill="url(#linear-gradient-4)"/><path d="M220.86,283.27c-2.23,2.56-5.52,3.88-8.7,5.07a15.09,15.09,0,0,1-5.09,1.25c-1.21,0-2.41-.27-3.62-.37-2.79-.26-5.64.35-8.36-.32a4.79,4.79,0,0,1-3.13-2.06,6.44,6.44,0,0,1-.63-2.79c-.14-2.1-1.05-5.62-.51-8.07a14.34,14.34,0,0,0,4.76,2.1c7.91,2.23,16.55-.11,24.55-2a17.85,17.85,0,0,0,3.21-1.35A10.76,10.76,0,0,1,220.86,283.27Z" transform="translate(-2.44 -42.98)" fill="#faaf90"/><path d="M220.5,323.3c2.11-.17,4.48-.42,6.09.95,1.21,1,1.62,2.71,2.17,4.21,1.42,3.83,4.13,7,6.93,10a16.42,16.42,0,0,1,3.87,5.3c.77,2.06.44,4.72-1.37,6a4.44,4.44,0,0,1-3.41.62,2,2,0,0,1-1-.44c-.86-.8-.17-2.21-.17-3.38,0-1.48-1.19-2.66-2.28-3.66l-4.41-4a26.13,26.13,0,0,0-5.39-4.12c-2.88-1.49-6.19-1.85-9.42-2.18-6.56-.68-16.21-.29-22.78-1a123.11,123.11,0,0,1-12.54-1.73c-4-.83-3.34-4.1-2.49-8.47.65-3.38,2.74-3.79,5.75-3.36,8.6,1.23,17.06,3.24,25.65,4.54A63.46,63.46,0,0,0,220.5,323.3Z" transform="translate(-2.44 -42.98)" fill="#faaf90"/><path d="M127.59,310.24a67.56,67.56,0,0,1,17.84-1c11.75.9,24.14,2.19,35.19,6.29a2.75,2.75,0,0,1,.93,1.53c-.25,3.18-1.62,9-1.86,12.18a2.81,2.81,0,0,1-1,2.39,2.9,2.9,0,0,1-1.21.23A140.92,140.92,0,0,1,141,328.33c-5.75-1.33-11.73-3.21-15.68-7.6a7.58,7.58,0,0,1-2.15-4.32,3.73,3.73,0,0,1,2.34-3.89" transform="translate(-2.44 -42.98)" fill="#3e3e54"/><path d="M127.59,310.24a67.56,67.56,0,0,1,17.84-1c11.75.9,24.14,2.19,35.19,6.29a2.75,2.75,0,0,1,.93,1.53c-.25,3.18-1.62,9-1.86,12.18a2.81,2.81,0,0,1-1,2.39,2.9,2.9,0,0,1-1.21.23A140.92,140.92,0,0,1,141,328.33c-5.75-1.33-11.73-3.21-15.68-7.6a7.58,7.58,0,0,1-2.15-4.32,3.73,3.73,0,0,1,2.34-3.89" transform="translate(-2.44 -42.98)" fill="url(#linear-gradient-5)"/><path d="M191.38,290.47a4.7,4.7,0,0,0,.88,1.35A5.18,5.18,0,0,0,195,293a42.45,42.45,0,0,0,8,.6q5.19,0,10.37-.51a12.45,12.45,0,0,0,3-.55,10.78,10.78,0,0,0,3.39-2.17,28.17,28.17,0,0,0,4.12-4.47,5.47,5.47,0,0,0,1.2-2.42c.28-1.85-1.09-3.49-2.37-4.86a12.62,12.62,0,0,1-5.49,7.22,20.25,20.25,0,0,1-8.73,2.89,53.14,53.14,0,0,1-9.27,0,5.88,5.88,0,0,1-2.12-.41,5.79,5.79,0,0,1-1.45-1.07,10.15,10.15,0,0,1-2.56-3.09c-.39-.83-1-2.54-2.07-1.44C189.34,284.45,190.53,288.64,191.38,290.47Z" transform="translate(-2.44 -42.98)" fill="#3e3e54"/><path d="M191.38,290.47a4.7,4.7,0,0,0,.88,1.35A5.18,5.18,0,0,0,195,293a42.45,42.45,0,0,0,8,.6q5.19,0,10.37-.51a12.45,12.45,0,0,0,3-.55,10.78,10.78,0,0,0,3.39-2.17,28.17,28.17,0,0,0,4.12-4.47,5.47,5.47,0,0,0,1.2-2.42c.28-1.85-1.09-3.49-2.37-4.86a12.62,12.62,0,0,1-5.49,7.22,20.25,20.25,0,0,1-8.73,2.89,53.14,53.14,0,0,1-9.27,0,5.88,5.88,0,0,1-2.12-.41,5.79,5.79,0,0,1-1.45-1.07,10.15,10.15,0,0,1-2.56-3.09c-.39-.83-1-2.54-2.07-1.44C189.34,284.45,190.53,288.64,191.38,290.47Z" transform="translate(-2.44 -42.98)" fill="url(#linear-gradient-6)"/><path d="M299.69,326a10.89,10.89,0,0,1-3.64,7.36c-2.53,2-5.9,2.28-9.06,2.36A156.1,156.1,0,0,1,214.7,319.8a11,11,0,0,0-4.13-1.39,10.25,10.25,0,0,0-3.53.65,8.09,8.09,0,0,1,.92-1.5c2.95-3.82,8.89-8.79,13.69-9.59s9.58,1.67,14,3.79a112,112,0,0,0,52.85,10.7c2.36-.11,5-.46,6.39-2.4A9.79,9.79,0,0,1,299.69,326Z" transform="translate(-2.44 -42.98)" fill="url(#linear-gradient-7)"/><path d="M286.08,313c0,1.33-.33,3-1.64,3.31a3.18,3.18,0,0,1-2.12-.54l-8.9-4.64a4,4,0,0,1-.52-.31,56.19,56.19,0,0,0-1.19-22.59c-.43-1.62-.93-3.33-.46-4.94.64-2.21,5.69-3.86,9.75-4.72.66,1,.38,2.31.39,3.87a68.39,68.39,0,0,0,1.33,14.83C283.88,302.51,286,307.63,286.08,313Z" transform="translate(-2.44 -42.98)" fill="url(#linear-gradient-8)"/></svg>