<svg id="Layer_2" data-name="Layer 2" xmlns="http://www.w3.org/2000/svg" xmlns:xlink="http://www.w3.org/1999/xlink" viewBox="0 0 400 300"><defs><linearGradient id="linear-gradient" x1="175.4" y1="175.96" x2="151.21" y2="128.79" gradientUnits="userSpaceOnUse"><stop offset="0" stop-color="#fff" stop-opacity="0.03"/><stop offset="0.99" stop-color="#2a1700"/></linearGradient><linearGradient id="linear-gradient-2" x1="339.75" y1="211.85" x2="325.5" y2="193.66" xlink:href="#linear-gradient"/><linearGradient id="linear-gradient-3" x1="255.32" y1="241.29" x2="238.9" y2="221.4" xlink:href="#linear-gradient"/><linearGradient id="linear-gradient-4" x1="208.44" y1="241.99" x2="173" y2="217.14" xlink:href="#linear-gradient"/><linearGradient id="linear-gradient-5" x1="254.93" y1="259.01" x2="288.43" y2="226.71" gradientTransform="matrix(-1, 0, 0, 1, 441.61, 0)" xlink:href="#linear-gradient"/></defs><title>PP</title><path d="M198.91,283.92,26.41,182c-5.49-3.08-10.2-8.15-4.85-11.46L194.69,70.74c2.6-1.61,6.54-2.66,9.18-1.13L384.94,174.7c5.49,3.19,6.48,12.1,1,15.29L221.65,283.76A22.94,22.94,0,0,1,198.91,283.92Z" fill="#cfe217"/><polygon points="90.89 186.28 124.87 207.17 248.19 142.78 212.58 116.25 90.89 186.28" opacity="0.32" fill="url(#linear-gradient)"/><polygon points="278.02 206.6 316.12 229.18 380.75 190.63 338.5 164.25 278.02 206.6" opacity="0.32" fill="url(#linear-gradient-2)"/><polygon points="222.36 232.78 258.73 257.27 281.74 241.9 240.53 218.77 222.36 232.78" opacity="0.32" fill="url(#linear-gradient-3)"/><path d="M249.09,183.5v4a3.83,3.83,0,0,0,1.89,3.3l44,25.75a4.68,4.68,0,0,0,4.17-.23L342,191.86a4.81,4.81,0,0,0,1.33-1.12l9.31-11.07c.44-.53,2.18-2.24,2-4l-.85-3.86" fill="#68e1fd"/><path d="M249.09,183.5v4a3.83,3.83,0,0,0,1.89,3.3l44,25.75a4.68,4.68,0,0,0,4.17-.23L342,191.86a4.81,4.81,0,0,0,1.33-1.12l9.31-11.07c.44-.53,2.18-2.24,2-4l-.85-3.86" fill="#205150" opacity="0.43"/><path d="M250.2,185l44.31,25.84a5.69,5.69,0,0,0,5.72,0l42.45-24.6,10.69-13a1.81,1.81,0,0,0-.49-2.72l-47.18-27.47a2,2,0,0,0-2.59.46l-11.56,13.87-41.34,23.76A2.22,2.22,0,0,0,250.2,185Z" fill="#68e1fd"/><path d="M295,155.74l8.88-10a1.53,1.53,0,0,1,1.91-.31L351,171.46a1.53,1.53,0,0,1,.39,2.33l-8.62,10a1.53,1.53,0,0,1-1.92.33l-45.46-26A1.53,1.53,0,0,1,295,155.74Z" fill="#7ba9a9"/><polygon points="296.8 156.76 302.39 150.51 346.84 176.28 341.58 182.78 296.8 156.76" fill="#fff"/><path d="M324,185.85l6.29,3.55a.86.86,0,0,0,.86,0l3.61-2.13a.86.86,0,0,0,0-1.5l-6.26-3.55a.86.86,0,0,0-.86,0L324,184.35A.86.86,0,0,0,324,185.85Z" fill="#fd7675"/><path d="M315.81,190.68l6.29,3.55a.86.86,0,0,0,.86,0l3.61-2.13a.86.86,0,0,0,0-1.5L320.3,187a.86.86,0,0,0-.86,0l-3.64,2.13A.86.86,0,0,0,315.81,190.68Z" fill="#66b7ef"/><path d="M307.73,195.17l6.29,3.55a.86.86,0,0,0,.86,0l3.61-2.13a.86.86,0,0,0,0-1.5l-6.26-3.55a.86.86,0,0,0-.86,0l-3.64,2.13A.86.86,0,0,0,307.73,195.17Z" fill="#66b7ef"/><path d="M299.55,200.36l6.29,3.55a.86.86,0,0,0,.86,0l3.61-2.13a.86.86,0,0,0,0-1.5L304,196.73a.86.86,0,0,0-.86,0l-3.64,2.13A.86.86,0,0,0,299.55,200.36Z" fill="#66b7ef"/><path d="M291.43,205.19l6.29,3.55a.86.86,0,0,0,.86,0l3.61-2.13a.86.86,0,0,0,0-1.5l-6.26-3.55a.86.86,0,0,0-.86,0l-3.64,2.13A.86.86,0,0,0,291.43,205.19Z" fill="#66b7ef"/><path d="M286.17,163.8l6.29,3.55a.86.86,0,0,0,.86,0l3.61-2.13a.86.86,0,0,0,0-1.5l-6.26-3.55a.86.86,0,0,0-.86,0l-3.64,2.13A.86.86,0,0,0,286.17,163.8Z" fill="#fd7675"/><path d="M304.19,174.74l6.29,3.55a.86.86,0,0,0,.86,0l3.61-2.13a.86.86,0,0,0,0-1.5l-6.26-3.55a.86.86,0,0,0-.86,0l-3.64,2.13A.86.86,0,0,0,304.19,174.74Z" fill="#66b7ef"/><path d="M295.46,169.25l6.29,3.55a.86.86,0,0,0,.86,0l3.61-2.13a.86.86,0,0,0,0-1.5l-6.26-3.55a.86.86,0,0,0-.86,0l-3.64,2.13A.86.86,0,0,0,295.46,169.25Z" fill="#66b7ef"/><path d="M313.54,180l6.29,3.55a.86.86,0,0,0,.86,0l3.61-2.13a.86.86,0,0,0,0-1.5L318,176.34a.86.86,0,0,0-.86,0l-3.64,2.13A.86.86,0,0,0,313.54,180Z" fill="#66b7ef"/><path d="M298.37,189.55l6.29,3.55a.86.86,0,0,0,.86,0l3.61-2.13a.86.86,0,0,0,0-1.5l-6.26-3.55a.86.86,0,0,0-.86,0L298.36,188A.86.86,0,0,0,298.37,189.55Z" fill="#66b7ef"/><path d="M306.27,185l6.29,3.55a.86.86,0,0,0,.86,0l3.61-2.13a.86.86,0,0,0,0-1.5l-6.26-3.55a.86.86,0,0,0-.86,0l-3.64,2.13A.86.86,0,0,0,306.27,185Z" fill="#66b7ef"/><path d="M281.22,198.34a.55.55,0,0,0,0,.94c1.49.85,4.76,2.62,6.25,3.42a1.56,1.56,0,0,0,1.53,0l12-6.88a.76.76,0,0,0,0-1.34L294.53,191a1.49,1.49,0,0,0-1.49,0Z" fill="#fd7675"/><path d="M278.46,168.48l6.29,3.55a.86.86,0,0,0,.86,0l3.61-2.13a.86.86,0,0,0,0-1.5l-6.26-3.55a.86.86,0,0,0-.86,0L278.45,167A.86.86,0,0,0,278.46,168.48Z" fill="#7ba9a9"/><path d="M270.56,183.94l6.29,3.55a.86.86,0,0,0,.86,0l3.61-2.13a.86.86,0,0,0,0-1.5L275,180.3a.86.86,0,0,0-.86,0l-3.64,2.13A.86.86,0,0,0,270.56,183.94Z" fill="#7ba9a9"/><path d="M278.81,178.45,285.1,182a.86.86,0,0,0,.86,0l3.61-2.13a.86.86,0,0,0,0-1.5l-6.26-3.55a.86.86,0,0,0-.86,0l-3.64,2.13A.86.86,0,0,0,278.81,178.45Z" fill="#7ba9a9"/><path d="M269.77,173.26l6.29,3.55a.86.86,0,0,0,.86,0l3.61-2.13a.86.86,0,0,0,0-1.5l-6.26-3.55a.86.86,0,0,0-.86,0l-3.64,2.13A.86.86,0,0,0,269.77,173.26Z" fill="#7ba9a9"/><path d="M296.63,179.4l6.29,3.55a.86.86,0,0,0,.86,0l3.61-2.13a.86.86,0,0,0,0-1.5l-6.26-3.55a.86.86,0,0,0-.86,0l-3.64,2.13A.86.86,0,0,0,296.63,179.4Z" fill="#7ba9a9"/><path d="M287.14,174.19l6.29,3.55a.86.86,0,0,0,.86,0l3.61-2.13a.86.86,0,0,0,0-1.5l-6.26-3.55a.86.86,0,0,0-.86,0l-3.64,2.13A.86.86,0,0,0,287.14,174.19Z" fill="#7ba9a9"/><path d="M288.53,184.32l6.29,3.55a.86.86,0,0,0,.86,0l3.61-2.13a.86.86,0,0,0,0-1.5L293,180.68a.86.86,0,0,0-.86,0l-3.64,2.13A.86.86,0,0,0,288.53,184.32Z" fill="#7ba9a9"/><path d="M261.53,178.45l6.29,3.55a.86.86,0,0,0,.86,0l3.61-2.13a.86.86,0,0,0,0-1.5L266,174.81a.86.86,0,0,0-.86,0l-3.64,2.13A.86.86,0,0,0,261.53,178.45Z" fill="#7ba9a9"/><path d="M280.36,189.23l6.29,3.55a.86.86,0,0,0,.86,0l3.61-2.13a.86.86,0,0,0,0-1.5l-6.26-3.55a.86.86,0,0,0-.86,0l-3.64,2.13A.86.86,0,0,0,280.36,189.23Z" fill="#7ba9a9"/><path d="M253.36,183.1l6.29,3.55a.86.86,0,0,0,.86,0l3.61-2.13a.86.86,0,0,0,0-1.5l-6.26-3.55a.86.86,0,0,0-.86,0l-3.64,2.13A.86.86,0,0,0,253.36,183.1Z" fill="#7ba9a9"/><path d="M263,188.49l6.29,3.55a.86.86,0,0,0,.86,0l3.61-2.13a.86.86,0,0,0,0-1.5l-6.26-3.55a.86.86,0,0,0-.86,0L263,187A.86.86,0,0,0,263,188.49Z" fill="#7ba9a9"/><path d="M272.65,193.67l6.29,3.55a.86.86,0,0,0,.86,0l3.61-2.13a.86.86,0,0,0,0-1.5L277.14,190a.86.86,0,0,0-.86,0l-3.64,2.13A.86.86,0,0,0,272.65,193.67Z" fill="#7ba9a9"/><path d="M292.29,52.52a34,34,0,0,0-9.51,7.85c-4.2,5.12,14.16,1.56,14.16,1.56" fill="#f2ae16"/><ellipse cx="303.07" cy="69.86" rx="18.74" ry="20.53" transform="translate(40.32 236.28) rotate(-45.33)" fill="#ea8b24"/><ellipse cx="298.59" cy="73.44" rx="18.74" ry="20.53" transform="translate(36.44 234.16) rotate(-45.33)" fill="#ffd008"/><ellipse cx="298.59" cy="73.44" rx="16.43" ry="17.99" transform="translate(36.44 234.16) rotate(-45.33)" fill="none" stroke="#f7931e" stroke-miterlimit="10"/><path d="M297.86,63a6.45,6.45,0,0,1,1.8.27l.59.22-1,3.36q-.22-.09-.59-.21a5.39,5.39,0,0,0-1.38-.12,4.17,4.17,0,0,0-1.87.42,2.79,2.79,0,0,0-1.4,1.35,1.81,1.81,0,0,0,0,1.59,1.71,1.71,0,0,0,1.52.94,9.78,9.78,0,0,0,2.5-.16q1.39-.25,2.85-.38a5.4,5.4,0,0,1,2.85.52,4.76,4.76,0,0,1,2.21,2.32,5.45,5.45,0,0,1,.43,3.91,6.43,6.43,0,0,1-2.48,3.47L305,82.88l-3.14,1.55-1.11-2.26a9.67,9.67,0,0,1-2,.42,8.92,8.92,0,0,1-1.77,0,11.94,11.94,0,0,1-1.35-.22,6.28,6.28,0,0,1-.9-.26L294.4,82l1.11-3.24.71.26a6.32,6.32,0,0,0,1.73.15,5.43,5.43,0,0,0,2.41-.56A3.46,3.46,0,0,0,302.09,77a2.16,2.16,0,0,0,0-1.92,1.73,1.73,0,0,0-1.53-.94,9.39,9.39,0,0,0-2.51.16q-1.4.26-2.85.39a5.41,5.41,0,0,1-2.84-.53,4.76,4.76,0,0,1-2.21-2.32,5,5,0,0,1-.32-3.68,6.12,6.12,0,0,1,2.4-3.32l-1.14-2.32L294.21,61l1.16,2.34A8.22,8.22,0,0,1,297.86,63Z" fill="#ea8b24"/><polyline points="179.56 211.6 223.85 240.04 210.27 253.07 176.48 232.34" opacity="0.32" fill="url(#linear-gradient-4)"/><path d="M159,241.07c6-4.11,7.26-1.51,12.55-6.57l43.24,23.74-21,13.41L138.14,240.1C140.55,238.18,156.52,242.77,159,241.07Z" opacity="0.32" fill="url(#linear-gradient-5)"/><path d="M176.58,219.44l-46.14-4s-4.16,3.69-3.36,4.92l49.5,4.2S178.32,220.47,176.58,219.44Z" fill="#fff" opacity="0.53"/><polygon points="174.85 228.38 126.29 224.57 127.7 226.47 173.22 230.33 174.85 228.38" fill="#fff" opacity="0.53"/><path d="M121.44,221.47C121.44,210,135,201,152.36,201s30.92,9,30.92,20.43S169.7,241.9,152.36,241.9,121.44,232.92,121.44,221.47Zm7,0c0,7.28,11,13.43,23.92,13.43s23.92-6.15,23.92-13.43S165.33,208,152.36,208,128.44,214.18,128.44,221.47Z" fill="#68e1fd"/><path d="M176.88,229.15,215,251.81c5.53,3.28.5,11.93-5,8.63l-38.16-22.66c-5.53-3.28-.5-11.93,5-8.63Z" fill="#68e1fd"/><path d="M353,95.84a34,34,0,0,0-11.68-4c-6.57-.88,6.12,12.86,6.12,12.86" fill="#f2ae16"/><ellipse cx="343.98" cy="114.14" rx="20.53" ry="18.74" transform="translate(155.88 423.93) rotate(-77.09)" fill="#ea8b24"/><ellipse cx="338.58" cy="112.21" rx="20.53" ry="18.74" transform="translate(153.57 417.17) rotate(-77.09)" fill="#ffd008"/><ellipse cx="338.58" cy="112.21" rx="17.99" ry="16.43" transform="translate(153.57 417.17) rotate(-77.09)" fill="none" stroke="#f7931e" stroke-miterlimit="10"/><path d="M347.05,106.11a6.45,6.45,0,0,1,.72,1.68l.12.62-3.4.89q0-.24-.13-.62a5.39,5.39,0,0,0-.63-1.23,4.17,4.17,0,0,0-1.34-1.36,2.79,2.79,0,0,0-1.89-.48,1.81,1.81,0,0,0-1.35.84,1.71,1.71,0,0,0,0,1.79,9.78,9.78,0,0,0,1.45,2q.94,1.05,1.83,2.22a5.4,5.4,0,0,1,1.06,2.7,4.76,4.76,0,0,1-.81,3.1,5.45,5.45,0,0,1-3.1,2.43,6.43,6.43,0,0,1-4.26-.28l-1.38,2.21-3-1.85,1.33-2.14a9.67,9.67,0,0,1-1.43-1.51,8.92,8.92,0,0,1-.95-1.49,11.94,11.94,0,0,1-.53-1.26,6.28,6.28,0,0,1-.26-.9l0-.35,3.34-.76q0,.28.15.74a6.32,6.32,0,0,0,.79,1.55,5.43,5.43,0,0,0,1.75,1.76,3.46,3.46,0,0,0,2.29.63,2.16,2.16,0,0,0,1.61-1,1.73,1.73,0,0,0,0-1.79,9.39,9.39,0,0,0-1.46-2q-1-1.05-1.83-2.22a5.41,5.41,0,0,1-1-2.69,4.76,4.76,0,0,1,.81-3.1,5,5,0,0,1,3-2.2,6.12,6.12,0,0,1,4.09.3l1.37-2.19,3,1.85-1.38,2.21A8.22,8.22,0,0,1,347.05,106.11Z" fill="#ea8b24"/><polygon points="90.89 92.47 212.58 24.33 212.58 116.25 90.89 186.28 90.89 92.47" fill="#68e1fd"/><polygon points="188 29.97 188 48.29 118.9 85.9 118.9 69.23 188 29.97" fill="#ffc3ca"/><path d="M122,168.6V100.84l6-3.57v67.85Z" fill="#7f252b"/><path d="M143.1,156.47V105.87l6-3.57V153Z" fill="#7f252b"/><path d="M163.93,144.15V78.65l6-3.57v65.59Z" fill="#7f252b"/><path d="M189.73,129.64V90.08l6-3.57v39.65Z" fill="#7f252b"/><path d="M124.12,89c-3,0-3,4.62,0,4.62S127.1,89,124.12,89Z" fill="#fd7675"/><path d="M144.36,95.93c-3,0-3,4.62,0,4.62S147.34,95.93,144.36,95.93Z" fill="#fd7675"/><path d="M164.85,67.74c-3,0-3,4.62,0,4.62S167.83,67.74,164.85,67.74Z" fill="#fd7675"/><path d="M191.8,78.7c-3,0-3,4.62,0,4.62S194.78,78.7,191.8,78.7Z" fill="#fd7675"/><path d="M124.59,91.29c.31-.5,19.77,6.95,19.77,6.95l20.49-27.72L191.8,80.86" fill="none" stroke="#fd7675" stroke-miterlimit="10"/><path d="M105.66,110.91l7.71-4.31c1.68-.94.17-3.54-1.51-2.59l-7.71,4.31c-1.68.94-.17,3.54,1.51,2.59Z" fill="#fd7675"/><path d="M105.66,125.67l7.71-4.31c1.68-.94.17-3.54-1.51-2.59l-7.71,4.31c-1.68.94-.17,3.54,1.51,2.59Z" fill="#fd7675"/><path d="M105.66,140.43l7.71-4.31c1.68-.94.17-3.54-1.51-2.59l-7.71,4.31c-1.68.94-.17,3.54,1.51,2.59Z" fill="#fd7675"/><path d="M105.66,155.19l7.71-4.31c1.68-.94.17-3.54-1.51-2.59l-7.71,4.31c-1.68.94-.17,3.54,1.51,2.59Z" fill="#fd7675"/><path d="M105.66,169.95l7.71-4.31c1.68-.94.17-3.54-1.51-2.59l-7.71,4.31c-1.68.94-.17,3.54,1.51,2.59Z" fill="#fd7675"/><path d="M211,81.42s-11.66-7.61-12.51-9-2.24.31-.8,1.67,2.5,2.55,2.5,2.55-1.89,2.82-1.44,4.41a3.9,3.9,0,0,0,2.12,3,4.69,4.69,0,0,0,4.12.38c1.48-.38,3.15,1.82,3.15,1.82l3.67,3.86,4.44-6.59Z" fill="#fe6162"/><path d="M234.48,87.12l-21.6-6.9s-4.7,6.07-3.19,9.89l9.45,5.15" fill="#f2a7b1"/><path d="M238.15,224.38l4.7-1.3-.74-5.73S237,218.2,238.15,224.38Z" fill="#42210b"/><path d="M244.56,207.71s1.66,19.37,1.21,19.59-5,.61-5,.28-.27-8.81-.27-8.81-2.26,3.74-2.38,5.61c0,0-5.4-3.08-6.41-5.55s2.31-12.81,3.57-13.37" fill="#7f252b"/><path d="M226.51,234.53l5.32-5.65-3.47-4.4S225.12,231.62,226.51,234.53Z" fill="#42210b"/><path d="M234.43,212.13l2.49,23.24s-4,1.36-4.75,1.26a15.07,15.07,0,0,1-2.88-1.36l-.89-7.75s-2.31,2.31-1.89,7c0-.32-3.67-1.54-4.15-1.75a27.51,27.51,0,0,1-4.25-2.32c-1.41-1-6.67-5.31-3.85-7,2.4-1.47,10.18-.76,10.18-.76l.11-9.59" fill="#7f252b"/><path d="M243.72,128.88a.55.55,0,0,1,.56-.67,17.87,17.87,0,0,0-2.61-5.71l-22.5-2.65s-4.52,16.08-6.26,43.78C211.56,185.11,222.1,217,222.1,217s10.91,2.77,16.15-2.62l-.21-4.63a55,55,0,0,0,8.11-.66C248.85,182.46,246.8,155.42,243.72,128.88Z" fill="#8cc63f"/><path d="M238.87,213.18l-2.82-19.9c-.9-6.34-2.28-12.86-2.31-19.29s2.17-12.19,3.24-18.32a71.73,71.73,0,0,0,.77-18c-.11-1.4-2.12-1.41-2,0a69.75,69.75,0,0,1-1.22,20.07c-1.26,5.89-3,11.48-2.76,17.61s1.48,12.39,2.35,18.5l2.82,19.9C237.13,215.16,239.07,214.57,238.87,213.18Z" fill="#42210b"/><path d="M205.3,116.28a1.1,1.1,0,0,0,0-.69l.14,0a1,1,0,0,0,.7-.14l.22.06c1.24.39,1.75-1.56.51-2-1-.31-2-.59-3-.86l-.09,0a63.17,63.17,0,0,0-8.66-2.53l-5.65-3.9a.94.94,0,0,0-1.52.56c-.32.94,1.65,3,2.32,3.53l0,0,.2.17c.13.11.64.65.8.63-2.75.31-5.17,1.71-7.53,3a3.8,3.8,0,0,0-.6.35,3.46,3.46,0,0,0-.67.7c-.43.56-.19,1.13.49,1.13,0,0-1.5,1.11-1.07,1.92s2.35.43,2.35.43a.71.71,0,0,0-.51,1.09c.46.88,1.68.06,1.68.06s-.4,1.37.37,1.62a2.75,2.75,0,0,0,1.23-.13c.75-.15,1.49-.34,2.22-.54a18.94,18.94,0,0,1,2.4-.55,10.7,10.7,0,0,0,2.83-.63c.39-.17.79-.36,1.19-.52l.7-.28c.11,0,.54-.29.64-.25l4,1.57c1.09.42,3,1.69,4.21,1.27s.71-2.39-.52-2c.26-.09-.28-.14-.43-.2l-1.11-.43a8.93,8.93,0,0,0,3.19.64,1,1,0,0,0,.71-1.73A13.41,13.41,0,0,0,205.3,116.28Z" fill="#fe6162"/><path d="M234.48,87.12S222,87.12,217.64,95c-3.63,6.61-2.95,17.65-2.95,17.65l-14.42-1.14s-4.14,1.73-3.11,6.93c.56,2.83,14.87,4.14,22.77,6.1s22.16,2.53,24.4-2.24,2-24-.65-29.49S234.48,87.12,234.48,87.12Z" fill="#ffc3ca"/><path d="M233.1,86.19s-5,3.83-8.11,1.51-2.36-12.33-2.36-12.33,1.59-3,7.49.76S233.1,86.19,233.1,86.19Z" fill="#fe6162"/><path d="M235.17,87.54,235,87.3l-3.14,1-.06.16C232.94,88.12,234.05,87.81,235.17,87.54Z" fill="#7f252b"/><path d="M240.27,75.17A11.89,11.89,0,0,0,237,68.83c-2.55-2.37-6.48-2.35-9.62-1.35a8.66,8.66,0,0,0-6.24,7.22c-.69,3.78,3.73,1.45,4.71,3.61a7,7,0,0,1,.52,4c-.33,2.25-1.67,4.42-1.47,6.74a3.38,3.38,0,0,0,1.62,2.79,37.67,37.67,0,0,0,8.18-.14c2.12-.16,6.4-.34,7.16-2.92C242.76,85.71,240.28,75.17,240.27,75.17Z" fill="#7f252b"/></svg>