<svg id="Layer_2" data-name="Layer 2" xmlns="http://www.w3.org/2000/svg" xmlns:xlink="http://www.w3.org/1999/xlink" viewBox="0 0 400 300"><defs><linearGradient id="linear-gradient" x1="161.02" y1="226.22" x2="263.26" y2="123.98" gradientUnits="userSpaceOnUse"><stop offset="0" stop-opacity="0"/><stop offset="0.99" stop-color="#006837"/></linearGradient></defs><title>191-200</title><path d="M210.86,277.73l163.53-91.78a7.81,7.81,0,0,0,.29-13.46L216.16,74.28a7.81,7.81,0,0,0-8-.12l-173,100.39a7.81,7.81,0,0,0,0,13.52l154.24,89.5A21.67,21.67,0,0,0,210.86,277.73Z" fill="#9bc928"/><ellipse cx="202.71" cy="177.67" rx="96.43" ry="50.7" fill="#519e0d"/><polygon points="108.31 132.09 286.78 235.12 314.02 219.83 134.97 116.45 108.31 132.09" fill="#e5f2af" opacity="0.59"/><ellipse cx="202.71" cy="177.67" rx="59.35" ry="30.66" fill="#9bc928"/><path d="M234.25,185c.22-.79-2.28-.51-2-1.29-2.26-3.26-6-2.88-9-5.55a1.57,1.57,0,0,1-.58-1.25l-5.17-7.7-85.71,51.2,16.06,17.68,90.14-53.6C237.77,184.13,234.13,185.38,234.25,185Z" opacity="0.52" fill="url(#linear-gradient)"/><path d="M232.55,85.35S240.21,99,246,99c4.29,0,8.86-4,11.83-6.71,3.9-3.51,7.81-7.94,6.93-13.57A11.49,11.49,0,0,0,254,69a13.91,13.91,0,0,0-7.87,2.51c-3.05,2-6.31,3.88-8.86,6.56C236.43,79,231.92,84,232.55,85.35Z" fill="#68e1fd"/><path d="M232.55,85.35S240.21,99,246,99c4.29,0,8.86-4,11.83-6.71,3.9-3.51,7.81-7.94,6.93-13.57A11.49,11.49,0,0,0,254,69a13.91,13.91,0,0,0-7.87,2.51c-3.05,2-6.31,3.88-8.86,6.56C236.43,79,231.92,84,232.55,85.35Z" fill="#19373f" opacity="0.38"/><path d="M247.47,88.76c-.63,1.54-5.69,18.06-3.27,23.56s4.49,20.14,4.49,20.14l-11-.93s-2.75-8.2-3.85-13.71,0-21.8,0-21.8" fill="#e9c5ad"/><path d="M245.36,65c3.6.14,16.28,10.51,13.23,19s-27.13,31.2-31.54,32.22l5.77,2.37s-7.46,10.17-16.62,9.84-19.67-3.73-20-6.78S199.23,78.22,208.39,73,227.38,64.35,245.36,65Z" fill="#68e1fd"/><path d="M227.37,58.52s-1.08-11.33,13.44-12.28S258.9,63.85,252.1,67.93c0,0-1,7.16-5.45,8.92l-3.36-6.63s6.23-2.33,5.18-6.89l-2.93-1.21S233.06,63.83,227.37,58.52Z" fill="#19373f"/><path d="M234.44,60.89s-1.51-9.68,6.37-14.66c0,0,5.54-.53,8.43,2.14a15.77,15.77,0,0,0-6.46,14.13Z" fill="#68e1fd"/><path d="M246.28,64.19c-.39-1.22-.74-2.08-.74-2.08l-15.83-1a30.2,30.2,0,0,0,3.11,13.14c.4,0,.82.09,1.28.12,5.73.28,9.56-.18,11.59-1.4A18.84,18.84,0,0,0,246.28,64.19Z" fill="#e9c5ad"/><path d="M253.66,59.79c-7.55,3.58-19,2.44-26.29-1.27a.87.87,0,0,0-1.24.9.76.76,0,0,0,.14.36c1.29,1.86,2.24,3.55,1.07,5.75A19.9,19.9,0,0,0,226,68.18a.76.76,0,0,0-.18.48c0,.07,0,.15,0,.22s-.06.18-.07.28a.83.83,0,0,0,.09.52,15.68,15.68,0,0,0,.4,3.36.64.64,0,0,0,.15.54A10.3,10.3,0,0,0,228,76.92c1.46,1.94,3.42,2.25,5.68,2.76,2.52.57,4.42,1.13,6.87.23a34.37,34.37,0,0,0,6.09-3.06.69.69,0,0,0,1-.32c.07-.14.12-.29.18-.43q1.35-.88,2.65-1.79a.77.77,0,0,0,.95-.56,18.7,18.7,0,0,0,.58-3.12l.79-.44a.82.82,0,0,0-.71-1.47c0-.26,0-.53,0-.79l.62-.35a.82.82,0,0,0-.79-1.44,18.5,18.5,0,0,0-.85-3.48.81.81,0,0,0-.09-.15,22.57,22.57,0,0,0,3.51-1.3C255.45,60.76,254.61,59.34,253.66,59.79Zm-25,14.83c.59.24,1.19.45,1.78.65a8.66,8.66,0,0,0,.16,1.59A6.63,6.63,0,0,1,228.63,74.62Zm1.94-1.07a28.45,28.45,0,0,1-2.76-1.06,12.61,12.61,0,0,1-.3-2,10.85,10.85,0,0,0,3.28,2A9,9,0,0,0,230.57,73.55Zm2,4.3s0,0,0,0a7.61,7.61,0,0,1-.45-2,16,16,0,0,0,2.08.34c.06.74.16,1.48.26,2.22C233.76,78.18,233.11,78,232.56,77.84Zm1.54-3.52a16.21,16.21,0,0,1-1.94-.33,7.69,7.69,0,0,1,.22-1,13.14,13.14,0,0,0,1.7.28.76.76,0,0,0,0,.11C234.06,73.73,234.09,74,234.1,74.33Zm-6.39-6c.6-1.41,1.65-2.62,1.87-4.19A5.4,5.4,0,0,0,229,61a37.29,37.29,0,0,0,17.85,2.32.82.82,0,0,0-.05.47c0,.11,0,.22.05.32a8.18,8.18,0,0,1-1.2,4.34l-.81,1.25C238.85,72.17,232.09,73.3,227.71,68.35Zm11.36,10.38a10.17,10.17,0,0,1-3-.11.85.85,0,0,0,0-.25c-.11-.73-.18-1.46-.25-2.19a14,14,0,0,0,2.39-.22,35.28,35.28,0,0,0,4.63-1.21,4.44,4.44,0,0,0,.49,2.27A16.49,16.49,0,0,1,239.07,78.73ZM243.52,72c-.11.26-.21.53-.3.8-.91.33-1.82.65-2.75.91a17.3,17.3,0,0,1-4.73.68c0-.32,0-.64,0-1,0,0,0,0,0,0a24.61,24.61,0,0,0,7.88-1.51Zm2.93,3.14c-.54.37-1.1.72-1.66,1.07a3.2,3.2,0,0,1-.31-2c.88-.33,1.76-.68,2.63-1.07A12.13,12.13,0,0,1,246.45,75.14Zm.92-4c-.68.31-1.38.59-2.07.87.19-.34.39-.67.6-1,.51-.21,1-.44,1.52-.67C247.42,70.6,247.39,70.86,247.37,71.13Zm1-8.05c.35-.05.69-.1,1-.17a.76.76,0,0,0,0,.2,17.35,17.35,0,0,1,.9,3.91l-1.41.76c-.1-1.2-.28-2.41-.49-3.63,0-.27,0-.54,0-.82A.81.81,0,0,0,248.42,63.08ZM250,72.66l-1.35,1c.1-.45.18-.9.24-1.35l1.32-.67C250.13,72,250,72.31,250,72.66Zm.43-3c-.46.25-.91.5-1.38.74,0-.26,0-.53,0-.79l1.41-.73C250.46,69.09,250.42,69.35,250.41,69.61Z" fill="#19373f"/><path d="M198.93,163.38s-12.56,21.1-16.36,22.52a6.08,6.08,0,0,1-7.82-4c-.71-2.61,8.77-25.36,16.12-29.16S198.93,163.38,198.93,163.38Z" fill="#3c605e"/><path d="M218,120.71s-9.32,33.66-13.11,39.82-6.07,8.06-8.84,6.64-8.16-7.59-8.55-10.9,7.83-35.15,9.57-37.17S218,120.71,218,120.71Z" fill="#19373f"/><path d="M171,179.88s-3.3,1-3.4,4.05,2.46,5,2.36,6.78,0,8.35,2.16,13.07,3.36,5.4,6.15,5.89,5.83,0,7-1.18a7.45,7.45,0,0,0,1.56-3.44" fill="#1e5574"/><path d="M179.07,186.87s.88-5.5,3.73-5.4,4.87.69,4.65,2.7-3.66,4.08-3.66,4.08-2.16,6.39-1.77,9.23,4.89,5.21,4.8,7.56-3.23,3.44-6.57,3.44-6.39-4.52-7-7-.49-10.61-1.47-12.08-3.83-5.6-2.36-8,6.31-4.21,6.31-4.21S173.38,182.55,179.07,186.87Z" fill="#68e1fd"/><path d="M215.51,161.44s-2.74,2.1-1.76,5,4.06,3.83,4.59,5.52,2.94,7.82,6.62,11.47,5,3.88,7.83,3.35,5.46-2.05,6.15-3.57a7.45,7.45,0,0,0,.25-3.77" fill="#1e5574"/><path d="M225.54,165.15s-1.11-5.46,1.59-6.37,4.8-1.07,5.3.89-2,5.11-2,5.11.22,6.74,1.59,9.27,6.41,3.16,7.15,5.39-1.81,4.35-4.94,5.53-7.57-2-9-4.08-4.19-9.76-5.63-10.79-5.56-3.9-5-6.62,4.43-6.16,4.43-6.16S218.69,163.11,225.54,165.15Z" fill="#68e1fd"/><path d="M247.65,142.26s-17.58,22.36-21.56,23.11a6.08,6.08,0,0,1-7-5.31c-.25-2.69,13-23.49,20.87-26S247.65,142.26,247.65,142.26Z" fill="#3c605e"/><path d="M228.16,115.62s21.32,8.23,23.75,13.63,2.44,8.6.76,10.27-4.87,4.57-7.46,4.72-10.06-7.12-10.06-7.12-19.8-2.16-21.61-4.29S218.42,114.25,228.16,115.62Z" fill="#19373f"/><path d="M233.16,98.41c-.17-1.33-2.53-4.67-7.2-7.58a75.19,75.19,0,0,1,1.18,15C231.26,102.83,233.31,99.63,233.16,98.41Z" fill="#a53200"/><path d="M223.19,89.3a36.64,36.64,0,0,0-16.34-3.47,29.48,29.48,0,0,0-19,6.81,43.08,43.08,0,0,0,2.1,15.63,37.2,37.2,0,0,0,16.24,3.91,35.73,35.73,0,0,0,18.47-4.68A73.08,73.08,0,0,0,223.19,89.3Z" fill="#a53200"/><path d="M185.33,94.94a31.52,31.52,0,0,0-3.62,4.46,2.81,2.81,0,0,0,.41,3.59,29.14,29.14,0,0,0,4.74,3.58A44.49,44.49,0,0,1,185.33,94.94Z" fill="#a53200"/><path d="M226,90.83a29.77,29.77,0,0,0-2.77-1.53,73.08,73.08,0,0,1,1.44,18.19,29.68,29.68,0,0,0,2.51-1.64A75.19,75.19,0,0,0,226,90.83Z" fill="#fff"/><path d="M187.83,92.64a31.64,31.64,0,0,0-2.5,2.3,44.49,44.49,0,0,0,1.53,11.63c.93.58,2,1.15,3.07,1.69A43.08,43.08,0,0,1,187.83,92.64Z" fill="#fff"/><path d="M220.88,99.57l-1.73-2c.34-.58.67-1.17,1-1.78s-.47-.88-.7-.41-.55,1-.84,1.54l-2.18-2.5a.41.41,0,0,0-.64.08l-1.23,2.52-1.47-1.79a.41.41,0,0,0-.64.08q-.72,1.55-1.48,3.07a9.93,9.93,0,0,1-1.36-2.48c-.11-.29-.58-.45-.74-.1a25.61,25.61,0,0,1-1.37,2.75c-.61-.62-1.24-1.21-1.91-1.79a.42.42,0,0,0-.58,0,19.78,19.78,0,0,0-1.71,1.78c-.71-.72-1.35-1.49-1.72-1.9a.41.41,0,0,0-.64.08c-.13.19-.34.54-.59.94a11.39,11.39,0,0,0-1.09-1.51.41.41,0,0,0-.64.08q-1.13,1.61-2.31,3.18c-.53-.48-1-1-1.38-1.39a.41.41,0,0,0-.58.58,20.27,20.27,0,0,0,1.51,1.37c-.63.82-1.26,1.64-1.91,2.45-.33.4.25,1,.58.58.67-.83,1.32-1.68,2-2.52.47.36,1,.7,1.47,1a.41.41,0,0,0,.49-.06c.6-.76,1.18-1.53,1.75-2.31A9.83,9.83,0,0,1,201,102c0,.37.54.59.76.21a27.81,27.81,0,0,1,1.59-2.65,23,23,0,0,0,2.37,1.76.41.41,0,0,0,.49-.06,18,18,0,0,0,1.27-1.51l.1.11c.65.69,1.25,1.41,1.84,2.15a.41.41,0,0,0,.64-.08c.37-.68.73-1.36,1.09-2a11.23,11.23,0,0,0,1.74,1.5.41.41,0,0,0,.56-.15l1.29-2.64,1.78,2.17a.41.41,0,0,0,.64-.08q.84-1.13,1.58-2.31l1.59,1.82C220.65,100.55,221.23,100,220.88,99.57Zm-22.81.82a1.93,1.93,0,0,1-1.16-.44c.7-.93,1.38-1.87,2-2.81a10.06,10.06,0,0,1,.88,1.32C199.23,99.41,198.53,100.36,198.08,100.4Zm3.51.45a10.56,10.56,0,0,0-.86-2.43l.59-.82c.49.52,1,1,1.52,1.48A19.47,19.47,0,0,0,201.59,100.85Zm4.21-.67c-.57.07-1.34-.48-2.09-1.17.58-.71,1.21-1.23,1.81-1.17.37,0,1,.79,1.53,1.37A2.14,2.14,0,0,1,205.8,100.18Zm3.8.77c-.54-.65-1.09-1.29-1.67-1.9A18.51,18.51,0,0,0,209.16,97a10.68,10.68,0,0,0,1.38,2.18C210.23,99.77,209.92,100.36,209.61,100.95Zm3.31-.58a10.07,10.07,0,0,1-1.4-1.29c.47-.92.91-1.84,1.35-2.77l1.27,1.55Zm3.85-.6-1.66-2,1.11-2.28,1.93,2.22Q217.5,98.75,216.76,99.76Z" fill="#fff"/><path d="M199.32,78.9S182.49,91.62,185.1,99.66,201,119.11,201,119.11s6.73-3.93,6.17-4.86-9.91-13.84-9.91-13.84l9.94-9.54" fill="#e9c5ad"/><path d="M207.17,114.24s8.89,2,9.09,3.4a5,5,0,0,1-.41,2.64s2.85,2.64,1.93,4.27-8.75,6.51-11.29,4-5.5-9.42-5.5-9.42Z" fill="#3c605e"/><path d="M193.15,82.08s7.67,13.65,13.46,13.65c4.29,0,8.86-4,11.83-6.71,3.9-3.51,7.81-7.94,6.93-13.57a11.49,11.49,0,0,0-10.72-9.69,13.91,13.91,0,0,0-7.87,2.51c-3.05,2-6.31,3.88-8.86,6.56C197,75.75,192.52,80.69,193.15,82.08Z" fill="#68e1fd"/><path d="M193.15,82.08s7.67,13.65,13.46,13.65c4.29,0,8.86-4,11.83-6.71,3.9-3.51,7.81-7.94,6.93-13.57a11.49,11.49,0,0,0-10.72-9.69,13.91,13.91,0,0,0-7.87,2.51c-3.05,2-6.31,3.88-8.86,6.56C197,75.75,192.52,80.69,193.15,82.08Z" fill="#19373f" opacity="0.38"/></svg>