<svg id="Layer_1" data-name="Layer 1" xmlns="http://www.w3.org/2000/svg" viewBox="0 0 400 300"><title>91-100</title><polygon points="248.74 68.98 248.74 118.68 293.49 144.08 293.49 94.38 248.74 68.98" fill="#68e1fd"/><path d="M249,68.52S199.71,40.6,200.22,41.93,198.66,138,198.66,138l79.46,50.6,15.6-45V93.91Z" fill="#68e1fd" opacity="0.22"/><ellipse cx="190.42" cy="228.29" rx="112.22" ry="34.04" fill="#ffd685"/><path d="M205.42,124.23a2.5,2.5,0,0,0,2.51.72c1.34-.54,8.59-4.71,11-9.92a3.38,3.38,0,0,0-2.24-3.6"/><path d="M188.1,124.25c-.24-.46.88-11.25,10.36-18.19s21-3.16,21-3.16,2.78-8.72,4.93-7.45,3.41,11,1.64,12.26-5.43.25-5.43.25-3.16,8.59-9.6,13.39S191.64,130.94,188.1,124.25Z" fill="#2b68e0"/><path d="M194.86,109.26c-.22.19.68-3.92,4.56-6.81s14.15-4.88,15.94-4,1.87,3.89,1.87,3.89S203.95,101.72,194.86,109.26Z"/><path d="M206,115.1c.51,0,4.94-.35,5.17.47s-3.81,3.85-5.17,4.08S206,115.1,206,115.1Z"/><circle cx="195.8" cy="117.48" r="0.98"/><path d="M252,202.23a18.93,18.93,0,0,1-7.3-11.68c-1.22-7.54-9.49-32.61-25.31-37s-21.17,3.16-18,11.68,6.08,11.2,2.19,14.12S196,182,200.52,188.6s21.8,15.09,31.53,14.85,15.09-.73,18.74,1.95C250.79,205.39,253.47,205.88,252,202.23Z" fill="#fdd400"/><path d="M207.46,174.16c-1.37-.34-7.8-3.75-9-8.87s-1-13.92-5.32-13-5.63,23.77-2.73,24.79,5.29-4.78,7.76-2.9,9.3,7.17,9.3,7.17" fill="#fdd400"/><ellipse cx="234.09" cy="186.11" rx="1.56" ry="3" fill="#606060"/><path d="M225.51,177.28a21.32,21.32,0,0,0-.4-2.72q-.59-2.73-1.21-5.46s.85,10,0,14a24.35,24.35,0,0,1-3.95,8.14c2.15-2.31,5.52-4.86,5.61-8.19A51.17,51.17,0,0,0,225.51,177.28Z" fill="#43c9af"/><path d="M221.48,176a21.32,21.32,0,0,0-.4-2.72q-.59-2.73-1.21-5.46s.85,10,0,14a24.35,24.35,0,0,1-3.95,8.14c2.15-2.31,5.52-4.86,5.61-8.19A51.17,51.17,0,0,0,221.48,176Z" fill="#43c9af"/><path d="M216.41,173.75A21.32,21.32,0,0,0,216,171q-.59-2.73-1.21-5.46s.85,10,0,14a24.35,24.35,0,0,1-3.95,8.14c2.15-2.31,5.52-4.86,5.61-8.19A51.17,51.17,0,0,0,216.41,173.75Z" fill="#43c9af"/><path d="M269.13,111.77,261,121a2.5,2.5,0,0,0,2.51.72,28.9,28.9,0,0,0,5.66-3.66Z" fill="#b31327"/><path d="M269.13,98.69a22.79,22.79,0,0,0-14.28,4.18c-9.48,6.95-10.6,17.73-10.36,18.19,3.54,6.7,16.43,1.9,22.87-2.91a21,21,0,0,0,1.77-1.5Z" fill="#ed4049"/><path d="M269.13,95.07c-3.6.08-11,1.84-14.18,4.2-3.89,2.89-4.82,8-4.59,7.82,6.13-5.09,14.18-6.91,18.78-7.56Z" fill="#b31327"/><path d="M261.56,111.92c.51,0,4.94-.35,5.17.47s-3.81,3.85-5.17,4.08S261.56,111.92,261.56,111.92Z" fill="#b31327"/><circle cx="251.33" cy="114.29" r="0.98" fill="#b31327"/><circle cx="277.89" cy="163.06" r="6.78" fill="#68e1fd"/><circle cx="222.06" cy="66.67" r="9.45" fill="#68e1fd"/><path d="M177.64,80.32l-7.94-4.25a2.46,2.46,0,0,0-2.52.42c-.27.18-.26.23-.19.48l.3,1.13,1.15,4.31L170,88.35l1.66,6.22,1.38,5.17.75,2.8a1.38,1.38,0,0,1,0,.18l2.28-1.41a1,1,0,0,0,.49-.8l1.54-19.2A1,1,0,0,0,177.64,80.32Z" fill="#653200"/><path d="M168.25,76.52,176.34,81a1.13,1.13,0,0,1,.58,1.1L175,101.9a1.13,1.13,0,0,1-1.71.86l-7.42-4.51a1.13,1.13,0,0,1-.54-1l1.24-19.77A1.13,1.13,0,0,1,168.25,76.52Z" fill="#844308"/><polygon points="167.81 78.23 175.32 82.53 173.6 101.52 166.57 97.58 167.81 78.23" fill="#68e1fd"/><path d="M165.78,90.11s2.44-3.61,2.44-5.36-2.14.55-2.14.55l.28-4.43s-1.65,2.58-2.49,3.79-3.52,6.94-4,8-4.81,3.79-4.81,3.79,1.25,4.07,2.57,4.35,7.81-5.57,7.81-5.57Z" fill="#f04900"/><path d="M157.66,91.62s4.83,4.28,4,9.14c0,0-6.08,12.08-12.65,14.07s-10.32-10.95-8.52-12.85S157.66,91.62,157.66,91.62Z" fill="#f7944b"/><path d="M172.91,104.14s2.25-2.07,1.86-2.7-1.39-6.43-.91-7.59c.85-2.07,3,2.53,3,2.53l.61-8.09s2.36,2.56,2.25,4,.12,11.13,0,11.85-2.14,5.94-2.14,5.94" fill="#f04900"/><path d="M119.22,209.81c-.53,1.26-2.9,18.77-2.75,22.2s5.34,3.76,6.93,3.63,4.71-1.58,6.69-1.65,12.92-2.14,12.61-5-2.21-5.69-4.67-5.84-9.14.28-9.14.28l.67-15.87" fill="#ff6753"/><path d="M121.49,127.15a152.67,152.67,0,0,0-2.94,23.9c-.17,8.29-2.71,70.06-2.71,70.06s7,4.14,20.28.28c1.93-.56,4.37-57.22,4.37-57.22l-4.54-29.23" fill="#ed4049"/><path d="M146.28,229.9c-.47,1.28-1.95,18.89-1.62,22.31s5.52,3.48,7.1,3.27,4.62-1.82,6.59-2,12.79-2.79,12.34-5.67-2.49-5.57-5-5.59-9.11.74-9.11.74l-.14-15.88" fill="#ff6753"/><path d="M146.62,133.34s9.37,31,12.83,59c.83,6.72,1.87,43.28,1.87,43.28s-8.43,5.81-18.62,2.53c0,0-2.39-46.29-2.66-47.38-3.92-15.72-9.51-34.58-10.46-58.34" fill="#ed4049"/><path d="M147.63,116.09c.45-6.57,2.83-10,1.32-16.4-4.73-5.15-13.65-11.37-14.6-11.57l-5,1.17a9.81,9.81,0,0,0-7.59,9.29c-.27,10.19-.65,27.21-.24,28.57s10.4,9.92,25.13,6.19C147,127.59,147.23,121.83,147.63,116.09Z" fill="#fdd400"/><path d="M145,74.45s2.08,15.28-3.58,16.57-11.82-5.41-12.11-8.54S137.5,68.94,145,74.45Z" fill="#f04900"/><path d="M148,77.72a1.59,1.59,0,0,0,1.45-1.86c-.58-3.17-2.75-9.59-10.81-9.74-6.16-.11-10,2.62-11.85,6.75h0l-.11.24-.46,1.34a16.26,16.26,0,0,0-.56,6.14c.26,5.81,4.65,9.07,10.23,9.74,0,0-2.28-8.58,1.43-7.21s6.83.93,5.66-5Z" fill="#844308"/><path d="M132.76,73.67l.54.59S133.32,73.93,132.76,73.67Z" fill="#844308"/><path d="M130.74,71.44c-1.09-.33-13.68-5.06-17.33,1s-.49,15.27-4.93,16.51S91.23,89.44,90,95.16c-1.15,5.54,4.65,8.75,3.28,11.29-3.49,2.2-6.25,5.11-4.68,9.56a10.7,10.7,0,0,0,4.78,5.45c5.28,3.12,12.45.72,16.8-3,3.81-3.23,3.47-7,2-11.39-1.14-3.32-3.11-7.36.6-9.79,5.52-3.62,11.93.52,13.8-3.62s-6.21-18.53.3-19.81c3.6-.71,5.16-.51,5.85-.2Z" fill="#844308"/><path d="M178.33,109.75a9.23,9.23,0,0,0-5.42-5.89c-4.78,4.53-10.64,9.45-12.56,8.68-2.82-1.13-8.45-14.27-16.45-14.93S136.12,108,136.12,108s14,21.55,21.54,21.92c6.1.3,17.19-10.41,21.54-15.58A21.76,21.76,0,0,0,178.33,109.75Z" fill="#fdd400"/><path d="M170.69,247.83a7.35,7.35,0,0,0-3-5,13.45,13.45,0,0,1-7.91,5.42,26.09,26.09,0,0,1-15.07-1.22,46.49,46.49,0,0,0-.07,5.15c.33,3.42,5.52,3.48,7.1,3.27s4.62-1.82,6.59-2S171.15,250.71,170.69,247.83Z" fill="#42210b"/><path d="M139.54,223.52a16.76,16.76,0,0,1-12.1,5.53,41.24,41.24,0,0,1-7.4-.75,8.74,8.74,0,0,1-3.33-1.08,43.84,43.84,0,0,0-.27,4.85c.18,3.43,5.36,3.72,7,3.58s4.7-1.61,6.67-1.7,12.9-2.23,12.57-5.12A7.12,7.12,0,0,0,139.54,223.52Z" fill="#42210b"/><path d="M290.23,89.21l3.57,2c.39.22,1.45,1.12,1.89,1.07.62-.07-.24,1.05-.06-.44a2.82,2.82,0,0,1,0,.44c-.4,1.29,0,3.33,0,4.67v3.34a.75.75,0,0,0,1.5,0V91.83a.75.75,0,0,0-.37-.65L291,87.92a.75.75,0,0,0-.76,1.3Z" fill="#f7931e"/><path d="M253.5,67.61l-6.94-3.94a.76.76,0,0,0-1.13.65v9.32a.75.75,0,0,0,1.5,0V64.32L245.8,65l6.94,3.94a.75.75,0,0,0,.76-1.3Z" fill="#f7931e"/><path d="M295.18,141.85v7.83l1.13-.65-7.13-3.91c-.85-.46-1.6.83-.76,1.3l7.13,3.91a.76.76,0,0,0,1.13-.65v-7.83a.75.75,0,0,0-1.5,0Z" fill="#f7931e"/></svg>