<svg id="Layer_2" data-name="Layer 2" xmlns="http://www.w3.org/2000/svg" xmlns:xlink="http://www.w3.org/1999/xlink" viewBox="0 0 400 300"><defs><linearGradient id="linear-gradient" x1="144.03" y1="198.16" x2="198.26" y2="122.4" gradientUnits="userSpaceOnUse"><stop offset="0" stop-color="#aa4200" stop-opacity="0"/><stop offset="0.98" stop-color="#aa003d"/></linearGradient><linearGradient id="linear-gradient-2" x1="197.46" y1="252.73" x2="214.43" y2="229.02" xlink:href="#linear-gradient"/><linearGradient id="linear-gradient-3" x1="301.23" y1="187.47" x2="314.78" y2="168.54" xlink:href="#linear-gradient"/></defs><title>PP</title><path d="M202.26,267,29.76,165.07c-5.49-3.08-10.2-8.15-4.85-11.46L198,53.83c2.6-1.61,6.54-2.66,9.18-1.13L388.29,157.79c5.49,3.19,6.48,12.1,1,15.29L225,266.86A22.94,22.94,0,0,1,202.26,267Z" fill="#007f68"/><path d="M181.52,140.39c-4.84,2.69-54.47,26.34-58.39,29.15-3.69,2.65-21,15.66-24.72,18.26,6.94,4.94,36.49,26.28,41.54,29.4,3.62-1.95,75.66-53.72,87.2-61.05C220.18,151.06,198.54,143.42,181.52,140.39Z" opacity="0.32" fill="url(#linear-gradient)"/><path d="M220.6,218.11v0c-1.78,3-3.81,6.18-7.19,7.6a14.36,14.36,0,0,1-5,1c-2.66.11-1.09-2.69-3.54-1.23-4.33,2.57-17.63,8.12-21.73,11.06-3.69,2.65-6.16,3.24-9.89,5.84,6.94,4.94,19.2,13,24.25,16.16,6.7-3.61,42.93-27.23,49.58-30.92Z" opacity="0.32" fill="url(#linear-gradient-2)"/><path d="M204.1,77.12,186,140.39s-4,1.34-4.47,0,20.57-68,20.57-68Z" fill="#68e1fd"/><path d="M207.23,95.45c.22.67,14.31,68.85,14.31,68.85a2.87,2.87,0,0,0,3.8-1.56L211.7,95.45Z" fill="#68e1fd"/><polygon points="194.04 108.2 214.38 120.04 214.38 124.96 192.8 111.77 194.04 108.2" fill="#68e1fd"/><path d="M133.68,116.7,115.58,180s-4,1.34-4.47,0,20.57-68,20.57-68Z" fill="#68e1fd"/><path d="M136.81,135c.22.67,14.31,68.85,14.31,68.85a2.87,2.87,0,0,0,3.8-1.56L141.28,135Z" fill="#68e1fd"/><polygon points="123.62 147.77 143.97 159.62 143.97 164.53 122.39 151.35 123.62 147.77" fill="#68e1fd"/><polygon points="117.13 68.98 206.83 16.63 211 16.63 209.99 20.51 120.93 72.16 117.13 68.98" fill="#425263"/><polygon points="136.24 146.06 120.93 69.74 213.03 16.63 224.66 96.41 136.24 146.06" fill="#68e1fd"/><polygon points="122.51 77.64 215.02 23.99 213.64 16.63 211 16.63 120.7 68.98 122.51 77.64" fill="#3129a3"/><polygon points="120.7 68.98 117.13 68.98 132.19 144.72 136.24 146.06 120.7 68.98" fill="#425263"/><polygon points="162.4 109.82 154.83 73.81 199.32 47.78 206.66 88.83 166.41 113.14 162.4 109.82" fill="none" stroke="#42210b" stroke-miterlimit="10" stroke-width="0.5"/><path d="M158.16,89.65l13.28-7.45-1.56-5.65s5-2.3,7.31,2.73l14.71-8.77" fill="none" stroke="#42210b" stroke-miterlimit="10" stroke-width="0.5"/><path d="M194.91,69c1.07-.39,9.29-5.47,7.42-4.34" fill="none" stroke="#42210b" stroke-miterlimit="10" stroke-width="0.5"/><line x1="184.96" y1="56.18" x2="187.54" y2="73.1" fill="none" stroke="#42210b" stroke-miterlimit="10" stroke-width="0.5"/><line x1="159.84" y1="97.68" x2="178.64" y2="87.46" fill="none" stroke="#42210b" stroke-miterlimit="10" stroke-width="0.5"/><line x1="184.96" y1="83.1" x2="203.73" y2="72.43" fill="none" stroke="#42210b" stroke-miterlimit="10" stroke-width="0.5"/><path d="M174.61,89.65l1,4.43s-4.21,4.28-3.82,9.22l4.68-2.47,1.22,5.49,5-3-1.91-6.78s5.16-.94,7.46,3.43l4.65-2.81-1-4.6s3.48-2.13,3-8.49L190,86.93l-1-6.11" fill="none" stroke="#42210b" stroke-miterlimit="10" stroke-width="0.5"/><ellipse cx="172.38" cy="70.51" rx="1.46" ry="2.15" fill="none" stroke="#42210b" stroke-miterlimit="10" stroke-width="0.25"/><ellipse cx="193.54" cy="58.82" rx="1.46" ry="2.15" fill="none" stroke="#42210b" stroke-miterlimit="10" stroke-width="0.25"/><ellipse cx="188.9" cy="76.96" rx="1.46" ry="2.15" fill="none" stroke="#42210b" stroke-miterlimit="10" stroke-width="0.25"/><ellipse cx="199.81" cy="84.13" rx="1.46" ry="2.15" fill="none" stroke="#42210b" stroke-miterlimit="10" stroke-width="0.25"/><ellipse cx="182.7" cy="91.43" rx="1.46" ry="2.15" fill="none" stroke="#42210b" stroke-miterlimit="10" stroke-width="0.25"/><ellipse cx="167.33" cy="101.98" rx="1.46" ry="2.15" fill="none" stroke="#42210b" stroke-miterlimit="10" stroke-width="0.25"/><ellipse cx="161.46" cy="115.7" rx="7.3" ry="5.65" transform="translate(31.95 266.31) rotate(-84.93)" fill="#1198b3"/><ellipse cx="161.47" cy="115.61" rx="4.38" ry="3.39" transform="translate(32.05 266.24) rotate(-84.93)" fill="#15565e"/><polygon points="136.55 59.74 151.54 138.06 157.04 134.85 142.44 56.18 136.55 59.74" fill="#fffef8"/><path d="M200,97.58s-4.35-1.78-4.54-2.34a25.81,25.81,0,0,0-3-3.88,1.86,1.86,0,0,0-.19,2.23c.71.9,1.28,1.37,1,1.7s-9.14-3.74-9.56-3.69-.28,1.42.71,2.08l1.61,1s-2.44-.62-2.55-.28a1.43,1.43,0,0,0,1,1.56s-1.14.28-.14,1.09a3.5,3.5,0,0,0,1.42.85s-1,0-.66.76,3,.76,3.6,1a65.39,65.39,0,0,0,10.32,2.08C201.07,101.77,200,97.58,200,97.58Z" fill="#ffb5a9"/><path d="M197.71,52.16l14.69-.83a1.9,1.9,0,0,1,0,2.1l-14.69,1-3.88-1Z" fill="#3e2928"/><path d="M209.87,53.54c-1.19.12-2.39.17-3.59.24,0,.49-1.74,2.44-3.12.41s-2.3-1.34-2.49-1.21c.08.23.23.69.5,1.53.83,2.64,4.36,5.55,5,6.23s4.28,3.91,4.28,3.91l3.13-1A46.46,46.46,0,0,0,209.87,53.54Z" fill="#ffb5a9"/><path d="M203.19,51.86l1,0a39.15,39.15,0,0,1,4.55-.29c-.4-.6-.66-.91-.66-.91s-2.52-1.18-3.4-1.51-1.3,1.07-1.3,1.07-.22-.35-1.43-.64-1.66,1.17-1.66,1.17l-.91-.09c-.91-.09-1.62,1.5-1.62,1.5l5.21-.24A.67.67,0,0,1,203.19,51.86Z" fill="#ffb5a9"/><path d="M231.48,76.62c-1.09-.84-19.84-19.26-19.84-19.26s-4.26,1.45-4.69,4.38c0,0,12.65,19.43,16.57,22.08" fill="#ff8f6f"/><path d="M236.34,226.74l4.46-2.47-1.13-6.37s-6.65.62-7.23,3" fill="#003b94"/><path d="M234.67,226.65c-1-.61-2.06-1.16-3.09-1.72-2.58-1.41-6.3-2.87-7.89-5.52a3.08,3.08,0,0,1,.2-3.46c2.35-2.83,7.45,1.82,10.07-1.31.52-.62.75-10.44.75-10.44l10,2.68s1.69,19.73,1.49,21-3.61,2.39-3.61,2.39a8.81,8.81,0,0,1-2.87-1.12c-1-.76-.1-10-1.42-8.72s-1.91,6.36-1.91,6.36A6.84,6.84,0,0,1,234.67,226.65Z" fill="#68e1fd"/><path d="M217.31,236.28l4.46-2.47-1.13-6.37s-6.65.62-7.23,3" fill="#003b94"/><path d="M215.63,236.19c-1-.61-2.06-1.16-3.09-1.72-2.58-1.41-6.3-2.87-7.89-5.52a3.08,3.08,0,0,1,.2-3.46c2.35-2.83,7.45,1.82,10.07-1.31.52-.62.75-10.44.75-10.44l10,2.68s1.69,19.73,1.49,21-3.61,2.39-3.61,2.39a8.81,8.81,0,0,1-2.87-1.12c-1-.76-.1-10-1.42-8.72s-1.91,6.36-1.91,6.36A6.84,6.84,0,0,1,215.63,236.19Z" fill="#68e1fd"/><path d="M249.72,172.13l2.88,39.2s-4.66,6.44-20.32,2.86h0l-.15-26.43" fill="#3e2928"/><path d="M231.58,179.89c.34,3.38,0,40.6,0,40.6s-4.33,8.11-23.19,0l.26-31.63" fill="#3e2928"/><path d="M248.11,182.18A76.41,76.41,0,0,1,232.65,189l-.12-.05a1.06,1.06,0,0,0-1.43.53,81.68,81.68,0,0,1-10.15,2.3c-4.4.71-8-2.55-12.56-2.78.05-17.31-.08-66.6,7.29-77l21.78-7.29c.1,1.8,10.58,13.94,10.33,28.74a318.55,318.55,0,0,0,2,39.39" fill="#3e2928"/><path d="M213.66,92.12l2,19.85s16.26.66,23.28-4.18V91" fill="#ff8f6f"/><path d="M224,74s-7.68,2.07-10.8,7.05c-2.4,3.83-3.66,17.76-3.66,17.76l-13.63-4s-.38,2.38-3.12,5.77c0,0,8.15,5.61,15.26,7.14s14.67-10.58,14.67-10.58,1.57,5,1.26-.34" fill="#ff8f6f"/><path d="M219.1,93.11A15.57,15.57,0,0,0,224,86.18c.92-3.14-.24-5.9-1.31-8.82a28.41,28.41,0,0,1-2-9.07c-.09-3.06.26-6.12.46-9.17a.88.88,0,0,0-.06-.39c1-3.44,3.13-6.36,7.28-6.71,10.73-.91,11.33,11,11.26,15.81s-.6,8.1,3,10.12,6.13,7.32,2.74,11.6-.35,2.72,1.92,6.53,1.68,8.56-3,10.28S218,104.84,216,102.83a4.12,4.12,0,0,1-1-2.92C215.37,97.13,217,95,219.1,93.11Z" fill="#ffc866"/><path d="M313.1,196c6.7-3.61,30.15-18.44,36.8-22.14L302.76,157l-30.21,16.16C279.55,176.79,303.41,190,313.1,196Z" opacity="0.32" fill="url(#linear-gradient-3)"/><path d="M294.85,107.72v60.71s58.35,3.24,58.35,0V107.72" fill="#68e1fd"/><ellipse cx="324.03" cy="167.91" rx="29.17" ry="13.32" fill="#68e1fd"/><ellipse cx="324.03" cy="107.72" rx="29.17" ry="13.32" fill="#3129a3"/><path d="M305.84,118.09l.2.11c1.12.39,2.25.74,3.41,1l-7.94-66.48s-1.66-.91-4.06.75L305.59,118Z" fill="#f78b72"/><path d="M314.91,120.14l2.47-62.4s-1.49-1.16-4.13.1l-2,61.78A32.7,32.7,0,0,0,314.91,120.14Z" fill="#f78b72"/><path d="M324,121,332,56l16.24,8.58-6.57,54.65A49.63,49.63,0,0,1,324,121Z" fill="#fcb749"/></svg>