<svg xmlns="http://www.w3.org/2000/svg" xmlns:xlink="http://www.w3.org/1999/xlink" viewBox="0 0 400 300"><defs><linearGradient id="linear-gradient" x1="101.96" y1="182.24" x2="180.6" y2="236.23" gradientUnits="userSpaceOnUse"><stop offset="0" stop-color="#fff" stop-opacity="0"/><stop offset="0.99" stop-color="#8cc63f"/></linearGradient></defs><title>191-200</title><g style="isolation:isolate"><g id="Layer_2" data-name="Layer 2"><polygon points="143.12 140.49 288.47 224.41 324.58 203.56 179.37 119.74 143.12 140.49" fill="#86ae2a"/><polygon points="80.4 176.39 226 260.46 260.67 240.46 115.19 156.48 80.4 176.39" fill="#86ae2a"/><path d="M33.13,203.45a6.24,6.24,0,0,0,0,10.83l126.25,72.89a20.38,20.38,0,0,0,20.38,0l18.46-10.65L52.46,192.38Z" fill="#86ae2a"/><path d="M368.79,178a6.24,6.24,0,0,0,0-10.8l-132-76.78a6.24,6.24,0,0,0-6.24,0l-23.25,13.31,145.08,83.76Z" fill="#86ae2a"/><polygon points="207.31 103.75 179.37 119.74 324.58 203.56 352.39 187.52 207.31 103.75" fill="#86ae2a"/><polygon points="207.31 103.75 179.37 119.74 324.58 203.56 352.39 187.52 207.31 103.75" fill="#e5f2af" opacity="0.59"/><polygon points="115.19 156.48 260.67 240.46 288.47 224.41 143.12 140.49 115.19 156.48" fill="#86ae2a"/><polygon points="115.19 156.48 260.67 240.46 288.47 224.41 143.12 140.49 115.19 156.48" fill="#e5f2af" opacity="0.59"/><polygon points="52.46 192.38 198.2 276.51 226 260.46 80.4 176.39 52.46 192.38" fill="#86ae2a"/><polygon points="52.46 192.38 198.2 276.51 226 260.46 80.4 176.39 52.46 192.38" fill="#e5f2af" opacity="0.59"/><path d="M96.59,167.4c-7.11,5.15-14.47,9.92-22,14.43L196.64,255l3.45-23.78Z" opacity="0.52" fill="url(#linear-gradient)" style="mix-blend-mode:multiply"/><path d="M137.2,89.29s34.56-1.24,48.36,0,25.49,5.19,25,14.21-12.93,22.37-12.93,22.37l.72,7.2s2.72,6.27,3.64,17.14.51,38.3,0,40.41,1.24,19.64.56,23.35a16,16,0,0,1-3.24,6.67s-7.14.62-8.5,0-3.71-15.82-2.47-23.85c0,0-3.21-37.81-4.08-39.66s-4.2-.12-4.2-.12-7.54,21.38-7.54,24.71.62,2.72.62,5.93-2.84,11.12-2.84,11.12-8.53.62-9.14-.62,3-46.58,3.71-50.41,3.21-14.7,3.21-14.7l-3.34-20.14" fill="#68e1fd"/><path d="M145,97.63s-10.08-.89-11.68-3.36-2-6.46,3.83-7.91S152,89,152,89Z" fill="#ffc2b6"/><path d="M148.17,97.67l-4.81,8.53s-5.47,1.53-4.15,4.15,8.75,5.68,10.06,3.72-.87-5.9-.87-5.9,37.39-65.59,37.17-70.84-7.22-8.53-9.84-3.28S148.17,97.67,148.17,97.67Z" fill="#ff8500"/><path d="M145,94.34s4.72-8.37,7.55-9.89,3.9,1.17,5.11,2.52,2.55,1,2.69,2.87-6.85,7.79-6.85,7.79Z" fill="#2b2a30"/><path d="M175.11,83.31v8.56s2.67,5.76,7,5.76,7.31-7.79,7.31-7.79" fill="#eda096"/><path d="M186.94,87.83c0,4.22-.7,8.92-5.63,8.85-4.51-.06-6.44-4-6.69-7.94-.88,0-1.75,0-2.63,0,.28,5,2.9,10,8.56,10.57A8,8,0,0,0,187.91,96c1.51-2.23,1.75-5.3,1.68-8.2Q188.26,87.81,186.94,87.83Z" fill="#253149"/><path d="M178.39,100.44a.64.64,0,0,0,0-.08.6.6,0,0,0-.46-.56,10.09,10.09,0,0,1-7.37-11.18h-1.3a11.35,11.35,0,0,0,7.89,12.3q1.49,14.83,2.41,29.7c.05.84,1.37.85,1.32,0Q179.91,115.51,178.39,100.44Z" fill="#e53c49"/><path d="M193.66,90.42a9.91,9.91,0,0,1-.72,3.44,11.31,11.31,0,0,1-4.26,4.81,21.4,21.4,0,0,1-2,1.13q-.75.39-1.53.73a1.5,1.5,0,0,0-1,.76.68.68,0,0,0-.92-.33l-.15.07a.66.66,0,0,0-.3.72s0,0,0,.06q.14,14.41-.68,28.8c0,.85,1.27.84,1.32,0q.8-14.1.68-28.22c3.86-.59,8.49-4.53,10-7.93a11,11,0,0,0,.84-3.87A10.34,10.34,0,0,0,193.66,90.42Z" fill="#e53c49"/><path d="M201.22,174.49c-.16-8-.38-16-.74-24-.31-6.91.34-15.14-2.64-21.55-.36-.77-1.49-.1-1.14.66,1.8,3.88,1.78,8.26,2,12.45q.34,5.84.57,11.68c.31,7.79.5,15.59.65,23.39.29,15.47.49,31,.73,46.43a.66.66,0,0,0,1.32,0C201.75,207.18,201.55,190.84,201.22,174.49Z" fill="#e53c49"/><path d="M188.41,103.21a.66.66,0,0,0-.35,1.27c6.55,1.81,10.66,11.26,6.64,16.88-.49.69.65,1.35,1.14.66C200.39,115.65,195.74,105.24,188.41,103.21Z" fill="#e53c49"/><path d="M190.55,107.91s-11.95,1.16-14.84,0c0,0-2.94,8.09-.6,11.37,0,0,4.94,3.66,17.51,1.54C192.62,120.82,195.91,115.27,190.55,107.91Z" fill="#173648"/><path d="M170,215.18c.15-2.62.09-5.26,0-7.91h-8.86s-5.35,3.71-7.07,4.85-5.7,2.85-5.42,6.13,5.85,2.42,9.13,1.28,7-2.85,9.27-3.14C169,216.15,169.55,215.8,170,215.18Z" fill="#121413"/><path d="M169.81,198.73l-8.64-.58v9.12s5,1.7,8.86,0C169.92,204.43,169.77,201.57,169.81,198.73Z" fill="#3c605e"/><path d="M190.82,220.64,192,231.23s5.92,1.06,8,0l-.77-10.59" fill="#3c605e"/><path d="M192,231.23s1.3,8.64,1.18,11-.64,11,3.41,12.78,6.77-3.55,7.36-6.15-3.08-10.29-3.31-11.83-.59-5.8-.59-5.8Z" fill="#121413"/><line x1="190.35" y1="235.09" x2="190.47" y2="234.97" fill="none" stroke="#61587d"/><line x1="187.73" y1="232.47" x2="187.85" y2="232.35" fill="none" stroke="#61587d"/><line x1="182.61" y1="227.11" x2="182.49" y2="227.23" fill="none" stroke="#61587d"/><line x1="185.11" y1="229.85" x2="185.23" y2="229.73" fill="none" stroke="#61587d"/><line x1="179.99" y1="224.49" x2="179.87" y2="224.61" fill="none" stroke="#61587d"/><path d="M159.72,99.31s-5-6.29-6.48-6.83S151,93.77,151,93.77s-2.26-1.58-4.31-.84-4.09,5.58-3.45,8.92,11.2,4.92,14,4.45C157.22,106.3,157.8,101,159.72,99.31Z" fill="#2b2a30"/><path d="M159.72,99.31l16,8.6s.73,10.44-.6,10.2-17.89-11.82-17.89-11.82S156.17,100.76,159.72,99.31Z" fill="#ffc2b6"/><path d="M193.23,80.87s-.75,10.55-4.07,11.75-7.88-1.3-9-4-3.37-9.14-1.86-10.35" fill="#ffc2b6"/><path d="M180.59,81.49s5.32,3.68,10.23,2.86,8.59-4.09,7.37-5.93-4.5-2.86-4.5-2.86,1.46-9.8-9.82-9.82c-14.13,0-12.28,15.59-10.23,18.74s4.5,4.38,6.55,4.18S180.59,81.49,180.59,81.49Z" fill="#68e1fd"/><path d="M167.35,128.57a62.28,62.28,0,0,0,30.47-1l.93,3.65A104.34,104.34,0,0,1,168.09,133Z" fill="#173648"/><circle cx="243.16" cy="114.39" r="7.69" fill="#fff"/><path d="M236.83,110a7.69,7.69,0,1,0,13.45,7.28C244.49,118.07,238.28,115.62,236.83,110Z" fill="#e6e6e6"/></g></g></svg>