<svg id="Layer_1" data-name="Layer 1" xmlns="http://www.w3.org/2000/svg" xmlns:xlink="http://www.w3.org/1999/xlink" viewBox="0 0 400 300"><defs><linearGradient id="linear-gradient" x1="84.49" y1="197.07" x2="106.73" y2="164.16" gradientUnits="userSpaceOnUse"><stop offset="0" stop-opacity="0"/><stop offset="1" stop-color="#006837"/></linearGradient><linearGradient id="linear-gradient-2" x1="295.29" y1="165.57" x2="312.24" y2="140.5" xlink:href="#linear-gradient"/><linearGradient id="linear-gradient-3" x1="198.3" y1="184.91" x2="226.24" y2="137.54" gradientUnits="userSpaceOnUse"><stop offset="0" stop-opacity="0"/><stop offset="1" stop-color="#4d4d4d"/></linearGradient></defs><title>#41-50</title><path d="M207,258.72l146.2-83.33a10,10,0,0,0,.11-17.28L219.85,79.73a20,20,0,0,0-20.12-.07L49.87,166.18A9.58,9.58,0,0,0,50,182.85l136.82,76A20.59,20.59,0,0,0,207,258.72Z" fill="#e5e5e5"/><path d="M329.08,189.16c-1.45.83-157.86-93.88-157.86-93.88L200.55,79a18.54,18.54,0,0,1,18.39.22l136,79.85a8.92,8.92,0,0,1-.1,15.44Z" fill="#5db256"/><path d="M87,144.72c2.62-1.6,158,92.34,158,92.34l-38.26,21.81a20.07,20.07,0,0,1-19.68.11L47.75,181.59a8.11,8.11,0,0,1-.12-14.12Z" fill="#5db256"/><path d="M193.31,161.89l0-.5a.26.26,0,0,0,.23-.14c1.82-2.9-10.93-33.31-16-44.78l.46-.2c.75,1.69,18.3,41.53,16,45.25A.75.75,0,0,1,193.31,161.89Z" fill="#68e1fd"/><rect x="171.67" y="136.7" width="36.04" height="0.5" transform="translate(-42.74 163.67) rotate(-42.39)" fill="#68e1fd"/><rect x="166.9" y="137.66" width="42.27" height="0.5" transform="translate(34.12 313.09) rotate(-84.96)" fill="#68e1fd"/><rect x="189.04" y="120.3" width="0.5" height="42.8" transform="translate(-31.73 225.73) rotate(-57.63)" fill="#68e1fd"/><rect x="249.08" y="150.28" width="0.5" height="48.94" transform="translate(-48.71 112.49) rotate(-23.23)" fill="#68e1fd"/><rect x="235.03" y="175.23" width="32.73" height="0.5" transform="translate(-55.19 174.56) rotate(-34.74)" fill="#68e1fd"/><rect x="228.83" y="173.56" width="42.27" height="0.5" transform="translate(54.85 407.53) rotate(-84.96)" fill="#68e1fd"/><rect x="250.97" y="156.2" width="0.5" height="42.8" transform="translate(-33.27 294.72) rotate(-57.63)" fill="#68e1fd"/><path d="M215.6,160.76l-1,9.72,8.35,5.38s-3,4.1-4.74,4.85-12.34-6.13-12.34-6.13l3.74-5.37h2.24l1.6-10.58" fill="#68e1fd"/><path d="M211.86,99.14S232.52,114.87,233,122s-19.75,16.42-19.75,16.42l-4.72-10.13,11.36-5.59-13.46-13.11" fill="#f3a984"/><path d="M219.65,122.83c4.44.77,9.29.63,13.12-1.72-2-7.51-21-22-21-22l-7.95,11.79,16,11.81Z" fill="#080100"/><path d="M256.94,199.4a18.52,18.52,0,0,1-9.09-2.65A33.77,33.77,0,0,1,235,182.67c-6.6-12.92-4.86-27.06,3.87-31.53s21.22,2.41,27.82,15.33h0c6.6,12.92,4.86,27.06-3.87,31.53A12.85,12.85,0,0,1,256.94,199.4Zm-12.11-46.65a9.94,9.94,0,0,0-4.57,1.07c-7.26,3.71-8.42,16-2.57,27.49a30.75,30.75,0,0,0,11.64,12.83c4.42,2.51,8.73,2.94,12.14,1.2,7.27-3.71,8.42-16,2.57-27.49h0C259.33,158.63,251.49,152.75,244.83,152.75Z" fill="#080100"/><path d="M249.77,175.46l-8.52-24c-.42-1.19-1.51-3-1.52-4.28,0-1.66,2.55-4.47,4.16-3.88s2,2.93,2.43,4.43c2.74,8.5,5.43,17,8.35,25.45.63,1.81,3.52,1,2.89-.8-2.12-6.15-4.47-12.26-6.38-18.48-1.15-3.75-1.66-8.36-3.84-11.71-3.52-5.43-11.76-.72-10.73,5.16.85,4.82,3.51,9.88,5.14,14.48l5.12,14.42c.64,1.81,3.54,1,2.89-.8Z" fill="#68e1fd"/><rect x="236.07" y="118.22" width="3" height="24.06" transform="matrix(0.95, -0.31, 0.31, 0.95, -28.65, 79.95)" fill="#68e1fd"/><path d="M213.18,158.86l-29.62-18.27,23.36-16.37,33.49,10.72ZM189,140.43l23.85,14.71,21.58-19-27-8.65Z" fill="#68e1fd"/><ellipse cx="216.17" cy="155.78" rx="5.59" ry="7.43" transform="translate(-46.84 198.48) rotate(-45)" fill="#68e1fd"/><path d="M195.2,163.25c-7.83,0-16.77-6.45-22-16.69a33.77,33.77,0,0,1-3.89-18.64c.67-6.09,3.42-10.67,7.76-12.89s9.67-1.77,15,1.26A36.12,36.12,0,0,1,208.78,149c-.66,6.09-3.42,10.67-7.76,12.89A12.67,12.67,0,0,1,195.2,163.25ZM183,116.65a9.87,9.87,0,0,0-4.54,1.06c-3.41,1.74-5.59,5.49-6.15,10.54a30.76,30.76,0,0,0,3.58,16.95c5.85,11.45,16.52,17.74,23.78,14,3.41-1.74,5.59-5.49,6.15-10.54a33.15,33.15,0,0,0-15.22-29.78A15.57,15.57,0,0,0,183,116.65Z" fill="#080100"/><path d="M211.86,166.7l9.89,9.16s-1.63,4.38-5.58,3-11-6.86-11-6.86V165" fill="#080100"/><path d="M218.46,128.92l33.17-18.86a1.5,1.5,0,0,0-1.51-2.59l-33.17,18.86a1.5,1.5,0,0,0,1.51,2.59Z" fill="#68e1fd"/><path d="M244.73,105.25l2.69,1.95s3.72.33,4.06,2.66-4.32,4.62-5.31,4.22.46-1.85-1.94-2.83l-2,1.07a3.29,3.29,0,0,1-.46-3.83L224,86.25l8.56-4Z" fill="#f3a984"/><path d="M190.56,102.81a66.71,66.71,0,0,0,.65,14.05c1.18,6.93,14.06,18.08,14.06,18.08l-.1,31.85s.74,3,6,.92c0,0,6-28.48,5-32.44s-10.05-29.84-10.05-29.84" fill="#f3a984"/><path d="M215.4,132.49c-2.44-7.74-9.28-27.22-9.28-27.22l-15.56-2.62a38.48,38.48,0,0,0-.65,14.05c.87,5.11,10.79,14.11,14.62,18.23A23.58,23.58,0,0,0,215.4,132.49Z" fill="#080100"/><path d="M219.93,85s-7.87,23.06-10.31,23.78-17.66-2.63-19.05-6S200.85,71,211.86,72.08" fill="#68e1fd"/><path d="M220.63,118.81l2.69,1.95s3.72.33,4.06,2.66-4.32,4.62-5.31,4.22.46-1.85-1.94-2.83l-2,1.07a3.29,3.29,0,0,1-.46-3.83L203.82,98.2l7.36-4Z" fill="#f3a984"/><path d="M227.1,70.82c-3.67-1.4-6.12-1.4-10.93-.87s-13.58,5.79-15.5,11.39c-1,3-1.77,12.37,1.92,21.54,3.51-1.24,7.1-2.24,10.7-3.19l-3.5-9.11L219.93,85l7,8.55c3.44-2.56,7-4.93,10.59-7.29C233.23,78.7,228.8,71.47,227.1,70.82Z" fill="#68e1fd"/><path d="M227.81,66.18s-1.44,13.73-4.71,13.47-8.34-2.72-9.2-6.33-.86-11.58,2.27-12.11S227.81,66.18,227.81,66.18Z" fill="#f3a984"/><path d="M222.93,71s-1.06,3.06-2.23,2.21-1.1-3-1.86-1.91.61,3.1-.38,3.41-2.52-2.14-3.23-1.86,0,1.76-1.47,1.89-3.59-6.85-2.36-7.79S221.79,68.45,222.93,71Z" fill="#653916"/><path d="M218.91,70.18a16.34,16.34,0,0,0,5.44-.05c2.09-.55,3.49-2.77,4.31-4.88l-.23-.09c-.51-2.19-1.33-5.45-3.33-6.74-2.92-1.88-7.12-1.18-10,.42a7.25,7.25,0,0,0-3.3,3.52c-.51,1.15-1.5,3.51-.4,4.61s5.52,2,5.52,2A11.9,11.9,0,0,0,218.91,70.18Z" fill="#68e1fd"/><path d="M218.46,68.11s-2.41,5.8-.74,9.7a3.88,3.88,0,0,1-2.33-1s-1.21-6.72.77-10.07" fill="#080100"/><path d="M225.1,58.42s5.86,4.86,6.06,11.43-17.28-1.7-17.74-1.87-2.51,1.12-2.51,1.12-2-5.83-.89-7.47S214.92,54.45,225.1,58.42Z" fill="#68e1fd"/><path d="M213.92,99.71a29.45,29.45,0,0,1-1.79-12.57c0-.64-1-.64-1,0a30,30,0,0,0,1.79,12.74q-3.85.76-7.72,1.47c-.85.15-2,.6-2.78.06s-1.3-2.71-1.58-3.57c-1.34-4.15-1.3-8.59-1-12.89.05-.64-.95-.64-1,0-.5,6.09-.2,12.33,3.1,17.65a.52.52,0,0,0,.56.23q5.35-1,10.69-2a13,13,0,0,0,.68-1.12Z" fill="#080100"/><path d="M97.88,209.43l5.71-27.86-9.17-4.68-28.15,15C72,195.39,92.2,205.77,97.88,209.43Z" opacity="0.68" fill="url(#linear-gradient)"/><path d="M103.59,181.57V128.19H93.09v53.54C96.64,183.48,100.62,183.79,103.59,181.57Z" fill="#a46900"/><path d="M99,128.2v54.94a8,8,0,0,0,4.63-1.56V128.2Z" fill="#653916"/><path d="M99.33,62.73S68.52,82.5,70.48,89.3s16.44,6,16.44,6-20.26,4.11-20.79,16.84c-.38,9.1,22.69,11,22.69,11S61.36,132.9,65.43,143s59.28,8.1,61,2.94-2-18.4-18.65-22.82c0,0,21.15.16,21.2-10.17,0-9.41-23.16-17.64-23.16-17.64s18.65,2.29,20.12-2.87S99.33,62.73,99.33,62.73Z" fill="#26721e"/><path d="M129,112.75c0-9.41-23.16-17.64-23.16-17.64s18.65,2.29,20.12-2.87c1.28-4.47-19.64-23.48-25.24-28.48,2,5.89,6.2,11.42,9.61,16.42,1.79,2.62,4.1,5.85,1.13,8.49-2.28,2-5.54,1.48-8.14,2.64-1.27.57-2.05.46-1.66,2.28a6,6,0,0,0,1.8,2.34,30.35,30.35,0,0,0,5.39,3.54c4.28,2.56,14.34,7.79,9.81,14.18-1.83,2.58-5.1,3-8,3.57-2.34.48-5.16.78-5.48,3.64-.36,3.29,2.92,5.9,5.14,7.77,3.73,3.15,7,6.32,7.11,11.53a16.73,16.73,0,0,1-2.52,8.91c6.45-.75,11-1.93,11.5-3.36,1.72-5.15-2-18.4-18.65-22.82C107.78,122.92,128.93,123.08,129,112.75Z" fill="#145b0a"/><path d="M93.09,150v4.42a89.55,89.55,0,0,0,10.5-4.42Z" fill="#653916"/><path d="M305.89,176.07l4.35-22-6.2-3.47L280.64,161.1C285.22,163.88,301.38,173.16,305.89,176.07Z" opacity="0.68" fill="url(#linear-gradient-2)"/><path d="M310.24,154V119.62h-6.77v34.52C305.76,155.27,308.33,155.46,310.24,154Z" fill="#a46900"/><path d="M307.26,119.63V155a5.17,5.17,0,0,0,3-1V119.63Z" fill="#653916"/><path d="M307.49,77.41s-19.86,12.75-18.6,17.13,10.6,3.86,10.6,3.86-13.06,2.65-13.4,10.86c-.25,5.87,14.63,7.07,14.63,7.07s-17.71,6.33-15.09,12.82,38.22,5.22,39.33,1.9-1.27-11.87-12-14.71c0,0,13.64.1,13.67-6.56,0-6.07-14.93-11.37-14.93-11.37s12,1.47,13-1.85S307.49,77.41,307.49,77.41Z" fill="#26721e"/><path d="M326.61,109.67c0-6.07-14.93-11.37-14.93-11.37s12,1.47,13-1.85c.82-2.88-12.66-15.14-16.27-18.36,1.28,3.8,4,7.36,6.2,10.59,1.15,1.69,2.64,3.77.73,5.47-1.47,1.31-3.57,1-5.25,1.7-.82.37-1.32.3-1.07,1.47a3.86,3.86,0,0,0,1.16,1.51,19.57,19.57,0,0,0,3.48,2.28c2.76,1.65,9.25,5,6.32,9.14-1.18,1.66-3.29,1.93-5.14,2.3-1.51.31-3.33.5-3.53,2.35-.23,2.12,1.88,3.81,3.31,5,2.41,2,4.51,4.07,4.58,7.43a10.79,10.79,0,0,1-1.62,5.75c4.16-.48,7.11-1.24,7.41-2.16,1.11-3.32-1.27-11.87-12-14.71C312.94,116.22,326.58,116.32,326.61,109.67Z" fill="#145b0a"/><path d="M303.47,133.68v2.85a57.74,57.74,0,0,0,6.77-2.85Z" fill="#653916"/><path d="M237.43,223.35l18.41-24.52-75.13-43L144.3,165C150.08,168.5,229.32,218.28,237.43,223.35Z" opacity="0.68" fill="url(#linear-gradient-3)"/><path d="M226.84,72.29a12.18,12.18,0,0,1-5.53-4.58C219,64.25,210.06,66,210.06,66l-.34-2.16s6.61-2.43,10.2,0S224.54,71.75,226.84,72.29Z" fill="#68e1fd"/><path d="M226.84,72.29a12.18,12.18,0,0,1-5.53-4.58C219,64.25,210.06,66,210.06,66l-.34-2.16s6.61-2.43,10.2,0S224.54,71.75,226.84,72.29Z" fill="#080100" opacity="0.39"/></svg>