<svg xmlns="http://www.w3.org/2000/svg" xmlns:xlink="http://www.w3.org/1999/xlink" viewBox="0 0 400 300"><defs><linearGradient id="linear-gradient" x1="161.37" y1="186.95" x2="142.46" y2="214.69" gradientUnits="userSpaceOnUse"><stop offset="0.01" stop-color="#8c6239"/><stop offset="1" stop-color="#fff"/></linearGradient><linearGradient id="linear-gradient-2" x1="188.75" y1="173.9" x2="177.54" y2="191.83" xlink:href="#linear-gradient"/><linearGradient id="linear-gradient-3" x1="274.3" y1="115.52" x2="244.11" y2="152.11" xlink:href="#linear-gradient"/></defs><title>201-210</title><g style="isolation:isolate"><g id="Layer_2" data-name="Layer 2"><path d="M42.34,189.65l154,88.72a8,8,0,0,0,7.9,0l150.34-85.35a8,8,0,0,0,0-13.82L198,89.64a8,8,0,0,0-8,0L42.3,175.9A8,8,0,0,0,42.34,189.65Z" fill="#ed6128"/><path d="M103.52,160.41,48.15,193.16l134.15,76.71,55.78-35.59S125.73,148.66,103.52,160.41Z" fill="url(#linear-gradient)" style="mix-blend-mode:multiply"/><path d="M296.94,196.52v-6.59l-3.21,3.21A3.12,3.12,0,0,0,296.94,196.52Z" fill="#e75a59"/><path d="M294.44,192.07,173.72,122.8a8.46,8.46,0,0,0-8.48,0l-64.43,37.7a5,5,0,0,0,0,8.59l119.45,69.11a11.15,11.15,0,0,0,11.29-.07l62.94-37.51A5,5,0,0,0,294.44,192.07Z" fill="#b7340b"/><path d="M294.44,186.62,173.72,117.35a8.46,8.46,0,0,0-8.48,0l-64.43,37.7a5,5,0,0,0,0,8.59l119.45,69.11a11.15,11.15,0,0,0,11.29-.07l62.94-37.51A5,5,0,0,0,294.44,186.62Z" fill="#ffce88"/><path d="M176.65,126c-.67.22-61.65,35.8-61.65,35.8l101.86,59.67,61.54-35.53Z" fill="#68e1fd"/><path d="M243.15,215.82a1.57,1.57,0,0,1-.48-2.28,11.54,11.54,0,0,1,3-2.24c1-.65,2.13-1.22,3.19-1.84l8.21-4.8,6.73-3.94a3.48,3.48,0,0,1,3-.32,3.52,3.52,0,0,1,1.74,1.33,1.44,1.44,0,0,1-.65,2.07L255.43,211l-5.35,3.1L247,215.88a3.74,3.74,0,0,1-3.16.32A2.72,2.72,0,0,1,243.15,215.82Z" fill="#b7340b"/><ellipse cx="273.8" cy="197.27" rx="2.15" ry="1.78" fill="#b7340b"/><polyline points="147.42 26.09 155.47 21.86 185.62 70.02 183.26 77.48 176.65 80.92 179.68 76.96" fill="#e27801"/><path d="M185.12,42.16c7.44,15.48,6.41,31.5-2.48,35.64s-23.12-5.1-30.29-20.53S146.58,26,155.47,21.86,178.26,27.89,185.12,42.16Z" fill="#e27801"/><path d="M167,30.77l6.68-3.65s7.44,6.31,9.94,12.13L176.9,43" fill="#e5913e"/><path d="M178.31,45.71c7.44,15.48,6.41,31.5-2.48,35.64s-23.12-5.1-30.29-20.53-5.77-31.27,3.12-35.41S171.45,31.43,178.31,45.71Z" fill="#ffd64c"/><ellipse cx="161.86" cy="53.8" rx="14.52" ry="25.18" transform="translate(-7.6 73.25) rotate(-24.93)" fill="#fe9b00"/><path d="M167.1,75.77C158.55,72.69,153.41,64.44,150,56.5s-5.8-18.62.85-25.32c-6.9,3.68-7.89,16.37-2.14,28.74C154.55,72.53,165.2,80,172.47,76.63l.35-.18A12.2,12.2,0,0,1,167.1,75.77Z" fill="#e88400"/><g style="isolation:isolate"><polygon points="157.03 56.85 159.38 55.44 159.41 58.35 157.06 59.76 157.03 56.85" fill="#ed6128"/><polygon points="156.71 59.58 159.06 58.17 159.41 58.35 157.06 59.76 156.71 59.58" fill="#ed6128"/><polygon points="154.92 55.74 157.28 54.33 159.04 55.26 156.68 56.67 154.92 55.74" fill="#ed6128"/><polygon points="156.68 56.67 159.04 55.26 159.38 55.44 157.03 56.85 156.68 56.67" fill="#ed6128"/><polygon points="158.56 58.28 160.91 56.87 160.93 59.16 158.57 60.56 158.56 58.28" fill="#ed6128"/><polygon points="160.93 61.81 163.28 60.4 163.3 62.84 160.95 64.25 160.93 61.81" fill="#ed6128"/><polygon points="158.56 58.28 160.91 56.87 163.26 58.11 160.91 59.52 158.56 58.28" fill="#ed6128"/><polygon points="160.91 59.52 163.26 58.11 163.28 60.4 160.93 61.81 160.91 59.52" fill="#ed6128"/><polygon points="162.69 60.45 165.04 59.05 165.06 61.33 162.71 62.74 162.69 60.45" fill="#ed6128"/><polygon points="165.06 63.92 167.41 62.51 167.43 65.02 165.08 66.43 165.06 63.92" fill="#ed6128"/><polygon points="159.63 53.66 161.99 52.25 162.02 56.86 159.67 58.27 159.63 53.66" fill="#ed6128"/><polygon points="162.69 60.45 165.04 59.05 167.4 60.29 165.04 61.7 162.69 60.45" fill="#ed6128"/><polygon points="159.67 58.27 162.02 56.86 166.46 59.2 164.11 60.61 159.67 58.27" fill="#ed6128"/><polygon points="165.04 61.7 167.4 60.29 167.41 62.51 165.06 63.92 165.04 61.7" fill="#ed6128"/><path d="M167.82,59.29l-2.35,1.41a1,1,0,0,1-.59.14,1.79,1.79,0,0,1-.77-.23l2.35-1.41a1.79,1.79,0,0,0,.77.23A1,1,0,0,0,167.82,59.29Z" fill="#ed6128"/><polygon points="156.92 42.26 159.27 40.85 159.29 43.75 156.94 45.16 156.92 42.26" fill="#ed6128"/><polygon points="156.59 44.97 158.94 43.56 159.29 43.75 156.94 45.16 156.59 44.97" fill="#ed6128"/><polygon points="154.36 40.9 156.71 39.49 159.27 40.84 156.91 42.25 154.36 40.9" fill="#ed6128"/><polygon points="156.91 42.25 159.27 40.84 159.27 40.85 156.92 42.26 156.91 42.25" fill="#ed6128"/><polygon points="159.58 46.56 161.93 45.15 161.97 49.56 159.61 50.97 159.58 46.56" fill="#ed6128"/><polygon points="159.61 50.97 161.97 49.56 165.95 51.66 163.6 53.07 159.61 50.97" fill="#ed6128"/><polygon points="158.43 43.06 160.78 41.65 160.8 43.25 158.45 44.66 158.43 43.06" fill="#ed6128"/><polygon points="156.92 42.26 159.27 40.85 160.78 41.65 158.43 43.06 156.92 42.26" fill="#ed6128"/><path d="M163.6,53.07,166,51.66a1.27,1.27,0,0,0,1.28.09l-2.35,1.41A1.27,1.27,0,0,1,163.6,53.07Z" fill="#ed6128"/><polygon points="158.45 44.66 160.8 43.25 163.15 44.49 160.8 45.9 158.45 44.66" fill="#ed6128"/><path d="M170.39,62.58,168,64a1.88,1.88,0,0,0,.64-.65,3.33,3.33,0,0,0,.37-1.74,7.33,7.33,0,0,0-.79-3.28l2.35-1.41a7.33,7.33,0,0,1,.79,3.28,3.33,3.33,0,0,1-.37,1.74A1.88,1.88,0,0,1,170.39,62.58Z" fill="#ed6128"/><path d="M166.16,55.62l2.35-1.41a8.59,8.59,0,0,1,2.1,2.69l-2.35,1.41A8.59,8.59,0,0,0,166.16,55.62Z" fill="#ed6128"/><polygon points="160.79 44.3 163.14 42.89 163.15 44.49 160.8 45.9 160.79 44.3" fill="#ed6128"/><polygon points="160.79 44.3 163.14 42.89 164.92 43.83 162.57 45.24 160.79 44.3" fill="#ed6128"/><polygon points="162.57 45.24 164.92 43.83 164.93 45.43 162.58 46.84 162.57 45.24" fill="#ed6128"/><polygon points="162.58 46.84 164.93 45.43 167.29 46.67 164.93 48.08 162.58 46.84" fill="#ed6128"/><polygon points="160.76 41.03 163.11 39.62 163.14 42.89 160.79 44.3 160.76 41.03" fill="#ed6128"/><polygon points="158.41 39.79 160.76 38.38 163.11 39.62 160.76 41.03 158.41 39.79" fill="#ed6128"/><polygon points="164.92 46.48 167.27 45.07 167.29 46.67 164.93 48.08 164.92 46.48" fill="#ed6128"/><path d="M169.59,54l-2.35,1.41a1.76,1.76,0,0,0,.56-.54,3.64,3.64,0,0,0,.55-2.11,6.84,6.84,0,0,0-.26-1.75,8.79,8.79,0,0,0-.72-1.8,8.22,8.22,0,0,0-1.11-1.6,5.24,5.24,0,0,0-1.33-1.09l2.35-1.41a5.24,5.24,0,0,1,1.33,1.09,8.22,8.22,0,0,1,1.11,1.6,8.79,8.79,0,0,1,.72,1.8,6.84,6.84,0,0,1,.26,1.75,3.64,3.64,0,0,1-.55,2.11A1.76,1.76,0,0,1,169.59,54Z" fill="#ed6128"/><polygon points="162.54 41.97 164.89 40.56 167.25 41.8 164.9 43.21 162.54 41.97" fill="#ed6128"/><polygon points="157.03 56.85 157.06 59.76 156.71 59.58 154.5 58.41 154.92 55.74 156.68 56.67 157.03 56.85" fill="#ffd64c"/><polygon points="160.91 59.52 160.93 61.81 160.95 64.25 158.59 63.01 158.57 60.56 158.56 58.28 160.91 59.52" fill="#ffd64c"/><polygon points="165.04 61.7 165.06 63.92 165.08 66.43 162.73 65.19 162.71 62.74 162.69 60.45 165.04 61.7" fill="#ffd64c"/><polygon points="156.91 42.25 156.92 42.26 156.94 45.16 156.59 44.97 154.81 44.04 154.36 40.9 156.91 42.25" fill="#ffd64c"/><polygon points="160.76 41.03 160.79 44.3 160.8 45.9 158.45 44.66 158.43 43.06 158.41 39.79 160.76 41.03" fill="#ffd64c"/><path d="M168.26,58.32a7.33,7.33,0,0,1,.79,3.28,3.33,3.33,0,0,1-.37,1.74,1.83,1.83,0,0,1-1.06.84,3.2,3.2,0,0,1-1.57,0,6.21,6.21,0,0,1-1-.29l0-2.22-2.35-1.24,0,2.29-1.78-.94,0-2.29-2.35-1.24,0,2.29-1.87-1,.35.18,0-2.91-.35-.18L156.59,45l.35.18,0-2.9,1.52.8v1.6l2.35,1.24V44.3l1.78.94v1.6l2.35,1.24v-1.6a5.24,5.24,0,0,1,1.33,1.09,8.22,8.22,0,0,1,1.11,1.6,8.79,8.79,0,0,1,.72,1.8,6.84,6.84,0,0,1,.26,1.75,3.64,3.64,0,0,1-.55,2.11,1.77,1.77,0,0,1-1.63.8A8.59,8.59,0,0,1,168.26,58.32Zm-2.37,1.86a1.94,1.94,0,0,0,.15-.81,3.68,3.68,0,0,0-.15-1,4.82,4.82,0,0,0-.39-1,4,4,0,0,0-.57-.8,2.64,2.64,0,0,0-.72-.56l-4.59-2.42,0,4.61,4.44,2.34a1.79,1.79,0,0,0,.77.23,1,1,0,0,0,.62-.15,1.13,1.13,0,0,0,.4-.51m-6.32-13.62,0,4.41,4,2.1a1.27,1.27,0,0,0,1.28.09,1.45,1.45,0,0,0,.52-1.35,3.69,3.69,0,0,0-.5-1.86,3.05,3.05,0,0,0-1.21-1.23l-4.11-2.17" fill="#ffd64c"/><polygon points="164.9 43.21 164.92 46.48 164.93 48.08 162.58 46.84 162.57 45.24 162.54 41.97 164.9 43.21" fill="#ffd64c"/><polygon points="164.9 43.21 167.25 41.8 167.27 45.07 164.92 46.48 164.9 43.21" fill="#ed6128"/></g><polyline points="171.32 165.59 135.99 184.02 189.13 214.76 225.01 190.18" fill="url(#linear-gradient-2)" style="mix-blend-mode:multiply"/><path d="M219.43,193.3l.31.18,2.62-1.36h0c-.27.15-.53.29-.81.42A13.29,13.29,0,0,1,219.43,193.3Z" fill="#e27801"/><path d="M185.16,120.46l-7.39,3.88a13.07,13.07,0,0,1,3.89-1A14.25,14.25,0,0,1,185.16,120.46Z" fill="#e27801"/><path d="M175.81,125.37h0l.12-.08Z" fill="#e27801"/><path d="M214.1,147.33q1,1.72,1.83,3.51c7.84,16.32,8.44,33.1,2.22,41.71l1.28.74a13.29,13.29,0,0,0,2.12-.77c.28-.13.55-.28.81-.42,10.79-6,11.84-26.25,2.41-45.87-.62-1.29-1.29-2.55-2-3.78l-8.68,4.88Z" fill="#e27801"/><path d="M213.34,129.91q-1.53-1.55-3.11-2.92C210.76,127.46,211.91,128.49,213.34,129.91Z" fill="#e27801"/><path d="M181.66,123.35c6-.59,13.08,2.56,19.56,8.11l0,0,8.68-4.74c-8-6.8-16.91-9.94-23.61-6.83-.38.18-.75.37-1.11.58A14.25,14.25,0,0,0,181.66,123.35Z" fill="#e27801"/><path d="M201.22,131.46a59.61,59.61,0,0,1,12.88,15.87h0l8.68-4.88h0c-2-4.62-6.35-9.46-9.45-12.54-1.43-1.42-2.58-2.45-3.11-2.92l-.34-.29h0l-8.68,4.74Z" fill="#e5913e"/><path d="M176.78,167.79l-.21-.5c-.14-.34-.29-.68-.42-1l-.23-.61c-.12-.3-.23-.61-.34-.91s-.16-.46-.24-.69-.19-.55-.29-.83-.15-.49-.23-.74-.16-.52-.24-.77-.14-.51-.22-.76-.14-.49-.21-.73-.13-.53-.2-.79-.12-.46-.17-.69-.12-.54-.18-.81-.1-.44-.14-.66-.11-.56-.16-.84-.08-.41-.11-.61-.09-.57-.13-.86-.06-.38-.09-.57-.07-.59-.11-.88,0-.36-.06-.53-.06-.6-.08-.9,0-.33,0-.49,0-.62-.05-.92c0-.15,0-.29,0-.44,0-.31,0-.63,0-.94,0-.13,0-.27,0-.4,0-.32,0-.63,0-.95,0-.12,0-.24,0-.35,0-.32,0-.64.05-1,0-.1,0-.21,0-.31,0-.33.06-.65.09-1l0-.27c0-.33.08-.65.13-1l0-.23c.05-.33.11-.65.18-1l0-.19q.1-.49.22-1l0-.16q.13-.48.27-.95l0-.13q.15-.48.32-.93l0-.1q.17-.47.37-.91l0-.08q.2-.45.42-.88l0-.06q.22-.44.47-.85l0,0q.25-.42.52-.81l0,0q.28-.4.57-.77v0q.3-.38.62-.72h0q.33-.35.67-.67h0a11.25,11.25,0,0,1,2.85-1.92c9.45-4.39,23.28,5.33,30.89,21.7,6.65,14.3,6.36,28.95-.11,35.36l6.59,3.79c6.23-8.62,5.63-25.4-2.22-41.71q-.86-1.79-1.83-3.51a59.61,59.61,0,0,0-12.88-15.87c-6.48-5.55-13.53-8.7-19.56-8.11a13.07,13.07,0,0,0-3.89,1l-.35.14a13.53,13.53,0,0,0-1.48.82l-.12.08c-9.23,5.93-11,22.79-4.49,40.21l6,3.47C177.16,168.64,177,168.21,176.78,167.79Z" fill="#ffd64c"/><path d="M173.21,142.72q.1-.49.22-1Q173.32,142.23,173.21,142.72Z" fill="#fe9b00"/><path d="M173,143.88q.08-.49.18-1C173.11,143.23,173,143.56,173,143.88Z" fill="#fe9b00"/><path d="M173.48,141.6q.13-.48.27-.95Q173.6,141.12,173.48,141.6Z" fill="#fe9b00"/><path d="M176.78,167.79l-.21-.5Z" fill="#fe9b00"/><path d="M172.83,145.09c0-.33.08-.65.13-1C172.91,144.44,172.87,144.76,172.83,145.09Z" fill="#fe9b00"/><path d="M173.79,140.52q.15-.48.32-.93Q173.94,140,173.79,140.52Z" fill="#fe9b00"/><path d="M175.49,136.65q.25-.42.52-.81Q175.74,136.23,175.49,136.65Z" fill="#fe9b00"/><path d="M176,135.81q.28-.4.57-.77Q176.31,135.41,176,135.81Z" fill="#fe9b00"/><path d="M176.15,166.26l-.23-.61Z" fill="#fe9b00"/><path d="M174.55,138.49q.2-.45.42-.88Q174.75,138,174.55,138.49Z" fill="#fe9b00"/><path d="M175,137.54q.22-.44.47-.85Q175.22,137.11,175,137.54Z" fill="#fe9b00"/><path d="M174.14,139.48q.17-.47.37-.91Q174.32,139,174.14,139.48Z" fill="#fe9b00"/><path d="M174.58,161.73c-.08-.25-.14-.51-.22-.76C174.44,161.22,174.51,161.47,174.58,161.73Z" fill="#fe9b00"/><path d="M174.16,160.23c-.07-.27-.13-.53-.2-.79C174,159.7,174.09,160,174.16,160.23Z" fill="#fe9b00"/><path d="M172.81,153c0-.3-.06-.6-.08-.9C172.76,152.38,172.78,152.68,172.81,153Z" fill="#fe9b00"/><path d="M173,154.39c0-.29-.07-.59-.11-.88C172.91,153.81,172.94,154.1,173,154.39Z" fill="#fe9b00"/><path d="M175.58,164.75c-.08-.23-.16-.46-.24-.69C175.42,164.29,175.5,164.52,175.58,164.75Z" fill="#fe9b00"/><path d="M173.79,158.75c-.06-.27-.12-.54-.18-.81C173.67,158.2,173.73,158.47,173.79,158.75Z" fill="#fe9b00"/><path d="M172.63,147.59c0-.32,0-.64.05-1C172.66,147,172.64,147.27,172.63,147.59Z" fill="#fe9b00"/><path d="M173.2,155.83c0-.29-.09-.57-.13-.86C173.11,155.25,173.15,155.54,173.2,155.83Z" fill="#fe9b00"/><path d="M173.47,157.28c-.06-.28-.11-.56-.16-.84C173.37,156.72,173.41,157,173.47,157.28Z" fill="#fe9b00"/><path d="M172.7,151.59c0-.31,0-.62-.05-.92C172.66,151,172.67,151.28,172.7,151.59Z" fill="#fe9b00"/><path d="M172.7,146.32c0-.33.06-.65.09-1C172.76,145.68,172.73,146,172.7,146.32Z" fill="#fe9b00"/><path d="M175.05,163.23c-.08-.25-.15-.49-.23-.74C174.9,162.74,175,163,175.05,163.23Z" fill="#fe9b00"/><path d="M172.62,150.23c0-.31,0-.63,0-.94C172.61,149.61,172.61,149.92,172.62,150.23Z" fill="#fe9b00"/><path d="M172.6,148.9c0-.32,0-.64,0-.95C172.61,148.26,172.6,148.58,172.6,148.9Z" fill="#fe9b00"/><path d="M177.25,134.29q.33-.35.67-.67Q177.58,133.95,177.25,134.29Z" fill="#fe9b00"/><path d="M203.09,174.18l-.11.11Z" fill="#fe9b00"/><path d="M177.24,134.3q-.32.35-.62.72Q176.92,134.65,177.24,134.3Z" fill="#fe9b00"/><path d="M200,168.06a5.19,5.19,0,0,0-.15-.73,6.26,6.26,0,0,0-.5-1.24,5.15,5.15,0,0,0-.74-1,3.43,3.43,0,0,0-.93-.73l-2.88-1.52,0,2.53Z" fill="#fe9b00"/><path d="M194.7,155.85l4.42,2.33a4.73,4.73,0,0,0-.61-1.82,4,4,0,0,0-1.57-1.59l-2.26-1.19Z" fill="#fe9b00"/><path d="M211.67,153.41c-7.61-16.38-21.44-26.09-30.89-21.7a11.25,11.25,0,0,0-2.85,1.92,11.32,11.32,0,0,1,2.31-1.64c-8.64,8.69-5.55,22.57-1.1,32.88a80.76,80.76,0,0,0,3.56,7.28l28.86,16.62C218,182.35,218.32,167.71,211.67,153.41Zm-9.08,21.19.08-.06a2.38,2.38,0,0,1-.62.3l-.25.06v1l-3.06,1.83-3.06-1.61,0-2.59-2.29,1.37-3.06-1.61,0-3.18-2.42-1.28h0L185,167.35l.55-3.47,2.27-1.36-.1-12.63-2.31-1.22-.59-4.07,3.06-1.83,2.21,1.16v-.77l3.06-1.83,3.06,1.61,0,2.59,2.29-1.37,3.06,1.61,0,4.25a6.81,6.81,0,0,1,1.73,1.42,10.68,10.68,0,0,1,1.44,2.08,11.42,11.42,0,0,1,.93,2.34,8.89,8.89,0,0,1,.34,2.27,4.73,4.73,0,0,1-.71,2.74,2.28,2.28,0,0,1-.73.71l-1.06.64a11.11,11.11,0,0,1,2.4,3.19,9.51,9.51,0,0,1,1,4.25,4.32,4.32,0,0,1-.49,2.27,2.44,2.44,0,0,1-.83.85Z" fill="#fe9b00"/><path d="M180.24,132a11.32,11.32,0,0,0-2.31,1.64h0q-.35.32-.67.67h0q-.32.35-.62.72v0q-.3.37-.57.77l0,0q-.27.39-.52.81l0,0q-.24.41-.47.85l0,.06q-.22.43-.42.88l0,.08q-.19.45-.37.91l0,.1q-.17.46-.32.93l0,.13q-.14.47-.27.95l0,.16q-.12.47-.22,1l0,.19q-.1.48-.18,1l0,.23c0,.32-.09.64-.13,1l0,.27c0,.32-.07.64-.09,1,0,.1,0,.21,0,.31,0,.32,0,.64-.05,1,0,.12,0,.24,0,.35,0,.31,0,.63,0,.95,0,.13,0,.27,0,.4,0,.31,0,.62,0,.94,0,.15,0,.29,0,.44,0,.31,0,.61.05.92s0,.32,0,.49,0,.6.08.9,0,.36.06.53.07.58.11.88.06.38.09.57.08.57.13.86.07.41.11.61.1.56.16.84.09.44.14.66.12.54.18.81.11.46.17.69.13.53.2.79.14.49.21.73.14.51.22.76.16.51.24.77.15.49.23.74.19.55.29.83.16.46.24.69.23.61.34.91l.23.61c.13.34.28.68.42,1l.21.5c.18.43.38.85.57,1.28l5.35,3.08a80.76,80.76,0,0,1-3.56-7.28C174.7,154.55,171.61,140.67,180.24,132Z" fill="#e88400"/><polygon points="187.88 168.86 187.88 168.86 188.33 169.1 187.88 168.86" fill="#ed6128"/><polygon points="187.82 162.52 185.56 163.88 187.84 165.08 187.82 162.52" fill="#ed6128"/><polygon points="190.27 167.17 190.27 167.17 190.3 170.14 190.27 167.17" fill="#ed6128"/><polygon points="193.36 171.75 193.38 174.93 195.67 173.56 195.67 172.97 193.36 171.75" fill="#ed6128"/><path d="M200,174.87a8.07,8.07,0,0,1-1.28-.38l0,3.27,3.06-1.83v-1A4.35,4.35,0,0,1,200,174.87Z" fill="#ed6128"/><polygon points="194.78 165.33 194.76 162.79 191.68 161.17 191.72 167.16 194.78 165.33" fill="#ed6128"/><path d="M199,170.41l-.12.05Z" fill="#ed6128"/><path d="M200,168.7s0-.07,0-.12a4.33,4.33,0,0,0,0-.53l-5.18-2.73-3.06,1.83,5.77,3Z" fill="#ed6128"/><path d="M198.91,170.46l.12-.05a1.28,1.28,0,0,0,.25-.11,1.47,1.47,0,0,0,.52-.67,2.47,2.47,0,0,0,.18-.93l-2.5,1.5a2.33,2.33,0,0,0,1,.3A1.41,1.41,0,0,0,198.91,170.46Z" fill="#ed6128"/><polygon points="190.1 145.18 190.09 143.93 187.88 142.77 184.82 144.6 188.14 146.35 190.1 145.18" fill="#ed6128"/><polygon points="190.1 145.19 190.1 145.18 188.14 146.35 188.15 146.36 190.1 145.19" fill="#ed6128"/><polygon points="194.69 153.57 191.6 151.95 191.65 157.68 194.7 155.85 194.69 153.57" fill="#ed6128"/><path d="M194.7,155.85l-3.06,1.83,5.18,2.73,2.32-1.39c0-.08,0-.16,0-.25a5.17,5.17,0,0,0,0-.59Z" fill="#ed6128"/><polygon points="188.15 146.36 190.12 147.4 190.1 145.19 188.15 146.36" fill="#ed6128"/><path d="M196.83,160.41a1.91,1.91,0,0,0,1.31.26,1.26,1.26,0,0,0,.36-.14,1.74,1.74,0,0,0,.66-1.51Z" fill="#ed6128"/><path d="M206.48,171.91a4.32,4.32,0,0,0,.49-2.27,9.51,9.51,0,0,0-1-4.25l-3.06,1.83a9.52,9.52,0,0,1,1,4.25,4.32,4.32,0,0,1-.49,2.27,2.64,2.64,0,0,1-.34.44l-.11.11a2.3,2.3,0,0,1-.31.24l-.08.06,3.06-1.83A2.44,2.44,0,0,0,206.48,171.91Z" fill="#ed6128"/><path d="M201.76,163.23a2.4,2.4,0,0,1-1.61.49,11.16,11.16,0,0,1,2.73,3.5l3.06-1.83a11.11,11.11,0,0,0-2.4-3.19l-2,1.19A2.13,2.13,0,0,0,201.76,163.23Z" fill="#ed6128"/><path d="M202.27,162.69a2.43,2.43,0,0,1-.37.43A2.43,2.43,0,0,0,202.27,162.69Z" fill="#ed6128"/><polygon points="195.46 147.64 193.17 149.01 195.49 150.23 195.49 150.23 195.46 147.64" fill="#ed6128"/><polygon points="195.49 150.23 195.49 150.23 195.5 152.31 195.49 150.23 195.49 150.23" fill="#ed6128"/><polygon points="193.17 149.01 195.46 147.64 195.45 145.99 196.22 145.53 196.19 142.94 193.14 144.77 193.17 149.01" fill="#ed6128"/><polygon points="196.19 142.94 193.14 141.33 190.08 143.16 193.14 144.77 196.19 142.94" fill="#ed6128"/><path d="M198.54,151.85a6.81,6.81,0,0,1,1.73,1.42,10.68,10.68,0,0,1,1.44,2.08,11.42,11.42,0,0,1,.93,2.34A8.88,8.88,0,0,1,203,160a4.73,4.73,0,0,1-.71,2.74,2.43,2.43,0,0,1-.37.43l-.14.11a2.13,2.13,0,0,1-.21.16l2-1.19,1.06-.64a2.28,2.28,0,0,0,.73-.71,4.73,4.73,0,0,0,.71-2.74,8.89,8.89,0,0,0-.34-2.27,11.42,11.42,0,0,0-.93-2.34,10.68,10.68,0,0,0-1.44-2.08A6.81,6.81,0,0,0,201.6,150Z" fill="#ed6128"/><polygon points="198.51 147.6 201.56 145.77 198.51 144.16 196.22 145.53 195.45 145.99 198.51 147.6" fill="#ed6128"/><polygon points="188.3 165.32 187.84 165.08 185.56 163.88 185.01 167.35 187.88 168.86 187.88 168.86 188.33 169.1 188.3 165.32" fill="#ffd64c"/><polygon points="193.33 168.78 190.27 167.17 190.3 170.14 190.32 173.32 193.38 174.93 193.36 171.75 193.33 168.78" fill="#ffd64c"/><polygon points="198.7 171.61 195.64 170 195.67 172.97 195.67 173.56 195.69 176.15 198.75 177.76 198.72 174.5 198.7 171.61" fill="#ffd64c"/><polygon points="188.15 146.36 188.14 146.35 184.82 144.6 185.41 148.67 187.72 149.89 188.18 150.13 188.15 146.36" fill="#ffd64c"/><polygon points="190.1 145.19 190.12 147.4 190.13 149.48 193.19 151.09 193.17 149.01 193.14 144.77 190.08 143.16 190.09 143.93 190.1 145.18 190.1 145.19" fill="#ffd64c"/><path d="M203.09,174.18a2.64,2.64,0,0,0,.34-.44,4.32,4.32,0,0,0,.49-2.27,9.52,9.52,0,0,0-1-4.25,11.16,11.16,0,0,0-2.73-3.5,2.4,2.4,0,0,0,1.61-.49l.14-.11a2.43,2.43,0,0,0,.37-.43A4.73,4.73,0,0,0,203,160a8.88,8.88,0,0,0-.34-2.27,11.42,11.42,0,0,0-.93-2.34,10.68,10.68,0,0,0-1.44-2.08,6.81,6.81,0,0,0-1.73-1.42l0,2.08-3.06-1.61,0-2.08L193.17,149l0,2.08-3.06-1.61,0-2.08-2-1,0,3.77-.45-.24.1,12.63,0,2.56.45.24,0,3.78-.45-.23,2.42,1.28,0-3h0l3.06,1.61,0,3,2.31,1.22,0-3,3.06,1.61,0,2.89a8.07,8.07,0,0,0,1.28.38,4.35,4.35,0,0,0,1.79,0l.25-.06a2.38,2.38,0,0,0,.62-.3,2.3,2.3,0,0,0,.31-.24Zm-6.15-19.42a4,4,0,0,1,1.57,1.59,4.73,4.73,0,0,1,.61,1.82,5.17,5.17,0,0,1,0,.59c0,.09,0,.16,0,.25a1.74,1.74,0,0,1-.66,1.51,1.26,1.26,0,0,1-.36.14,1.91,1.91,0,0,1-1.31-.26l-5.18-2.73,0-5.73,3.08,1.62Zm-5.22,12.4,0-6,3.08,1.62,2.88,1.52a3.43,3.43,0,0,1,.93.73,5.15,5.15,0,0,1,.74,1,6.26,6.26,0,0,1,.5,1.24,5.19,5.19,0,0,1,.15.73,4.33,4.33,0,0,1,0,.53s0,.08,0,.12a2.47,2.47,0,0,1-.18.93,1.47,1.47,0,0,1-.52.67,1.28,1.28,0,0,1-.25.11l-.12.05a1.41,1.41,0,0,1-.42,0,2.33,2.33,0,0,1-1-.3Z" fill="#ffd64c"/><polygon points="198.51 147.6 195.45 145.99 195.46 147.64 195.49 150.23 195.49 150.23 195.5 152.31 198.56 153.92 198.54 151.84 198.51 147.6" fill="#ffd64c"/><polygon points="198.54 151.84 201.6 150.01 201.56 145.77 198.51 147.6 198.54 151.84" fill="#ed6128"/><path d="M259.74,166.5c7.76-5.15,20.88-18.57,28.34-24.12-19.5-10.61-26.39-13.93-26.39-13.93l-66.06,38.89,38.29,21.89C246.34,180.49,247.07,174.9,259.74,166.5Z" fill="url(#linear-gradient-3)" style="mix-blend-mode:multiply"/><polyline points="255.75 89.69 263.8 85.46 293.95 133.61 291.59 141.07 284.98 144.51 288.01 140.55" fill="#e27801"/><path d="M293.45,105.75c7.44,15.48,6.41,31.5-2.48,35.64s-23.12-5.1-30.29-20.53-5.77-31.27,3.12-35.41S286.59,91.48,293.45,105.75Z" fill="#e27801"/><path d="M275.3,94.36,282,90.71s7.44,6.31,9.94,12.13l-6.69,3.76" fill="#e5913e"/><path d="M286.64,109.3c7.44,15.48,6.41,31.5-2.48,35.64s-23.12-5.1-30.29-20.53S248.1,93.14,257,89,279.78,95,286.64,109.3Z" fill="#ffd64c"/><ellipse cx="270.19" cy="117.39" rx="14.52" ry="25.18" transform="translate(-24.31 124.84) rotate(-24.93)" fill="#fe9b00"/><path d="M275.43,139.36c-8.55-3.08-13.69-11.33-17.11-19.27s-5.8-18.62.85-25.32c-6.9,3.68-7.89,16.37-2.14,28.74,5.86,12.61,16.51,20.09,23.78,16.71l.35-.18A12.2,12.2,0,0,1,275.43,139.36Z" fill="#e88400"/><g style="isolation:isolate"><polygon points="265.36 120.44 267.71 119.03 267.74 121.94 265.38 123.35 265.36 120.44" fill="#ed6128"/><polygon points="265.04 123.17 267.39 121.76 267.74 121.94 265.38 123.35 265.04 123.17" fill="#ed6128"/><polygon points="263.25 119.33 265.61 117.92 267.37 118.85 265.01 120.26 263.25 119.33" fill="#ed6128"/><polygon points="265.01 120.26 267.37 118.85 267.71 119.03 265.36 120.44 265.01 120.26" fill="#ed6128"/><polygon points="266.88 121.87 269.24 120.46 269.25 122.75 266.9 124.16 266.88 121.87" fill="#ed6128"/><polygon points="269.26 125.4 271.61 123.99 271.63 126.44 269.28 127.84 269.26 125.4" fill="#ed6128"/><polygon points="266.88 121.87 269.24 120.46 271.59 121.7 269.24 123.11 266.88 121.87" fill="#ed6128"/><polygon points="269.24 123.11 271.59 121.7 271.61 123.99 269.26 125.4 269.24 123.11" fill="#ed6128"/><polygon points="271.02 124.05 273.37 122.64 273.39 124.92 271.04 126.33 271.02 124.05" fill="#ed6128"/><polygon points="273.39 127.51 275.74 126.1 275.76 128.61 273.41 130.02 273.39 127.51" fill="#ed6128"/><polygon points="267.96 117.25 270.32 115.84 270.35 120.45 268 121.86 267.96 117.25" fill="#ed6128"/><polygon points="271.02 124.05 273.37 122.64 275.73 123.88 273.37 125.29 271.02 124.05" fill="#ed6128"/><polygon points="268 121.86 270.35 120.45 274.79 122.79 272.44 124.2 268 121.86" fill="#ed6128"/><polygon points="273.37 125.29 275.73 123.88 275.74 126.1 273.39 127.51 273.37 125.29" fill="#ed6128"/><path d="M276.15,122.88l-2.35,1.41a1,1,0,0,1-.59.14,1.79,1.79,0,0,1-.77-.23l2.35-1.41a1.79,1.79,0,0,0,.77.23A1,1,0,0,0,276.15,122.88Z" fill="#ed6128"/><polygon points="265.25 105.85 267.6 104.44 267.62 107.34 265.27 108.75 265.25 105.85" fill="#ed6128"/><polygon points="264.92 108.56 267.27 107.16 267.62 107.34 265.27 108.75 264.92 108.56" fill="#ed6128"/><polygon points="262.69 104.49 265.04 103.08 267.6 104.43 265.25 105.84 262.69 104.49" fill="#ed6128"/><polygon points="265.25 105.84 267.6 104.43 267.6 104.44 265.25 105.85 265.25 105.84" fill="#ed6128"/><polygon points="267.91 110.15 270.26 108.74 270.29 113.15 267.94 114.56 267.91 110.15" fill="#ed6128"/><polygon points="267.94 114.56 270.29 113.15 274.28 115.25 271.93 116.66 267.94 114.56" fill="#ed6128"/><polygon points="266.76 106.65 269.11 105.24 269.13 106.84 266.77 108.25 266.76 106.65" fill="#ed6128"/><polygon points="265.25 105.85 267.6 104.44 269.11 105.24 266.76 106.65 265.25 105.85" fill="#ed6128"/><path d="M271.93,116.66l2.35-1.41a1.27,1.27,0,0,0,1.28.09l-2.35,1.41A1.27,1.27,0,0,1,271.93,116.66Z" fill="#ed6128"/><polygon points="266.77 108.25 269.13 106.84 271.48 108.08 269.13 109.49 266.77 108.25" fill="#ed6128"/><path d="M278.72,126.17l-2.35,1.41a1.88,1.88,0,0,0,.64-.65,3.33,3.33,0,0,0,.37-1.74,7.33,7.33,0,0,0-.79-3.28l2.35-1.41a7.33,7.33,0,0,1,.79,3.28,3.33,3.33,0,0,1-.37,1.74A1.88,1.88,0,0,1,278.72,126.17Z" fill="#ed6128"/><path d="M274.49,119.22l2.35-1.41a8.59,8.59,0,0,1,2.1,2.69l-2.35,1.41A8.59,8.59,0,0,0,274.49,119.22Z" fill="#ed6128"/><polygon points="269.12 107.89 271.47 106.48 271.48 108.08 269.13 109.49 269.12 107.89" fill="#ed6128"/><polygon points="269.12 107.89 271.47 106.48 273.25 107.42 270.9 108.83 269.12 107.89" fill="#ed6128"/><polygon points="270.9 108.83 273.25 107.42 273.26 109.02 270.91 110.43 270.9 108.83" fill="#ed6128"/><polygon points="270.91 110.43 273.26 109.02 275.62 110.26 273.26 111.67 270.91 110.43" fill="#ed6128"/><polygon points="269.09 104.62 271.44 103.21 271.47 106.48 269.12 107.89 269.09 104.62" fill="#ed6128"/><polygon points="266.74 103.38 269.09 101.97 271.44 103.21 269.09 104.62 266.74 103.38" fill="#ed6128"/><polygon points="273.25 110.07 275.6 108.66 275.62 110.26 273.26 111.67 273.25 110.07" fill="#ed6128"/><path d="M277.92,117.55,275.56,119a1.76,1.76,0,0,0,.56-.54,3.64,3.64,0,0,0,.55-2.11,6.84,6.84,0,0,0-.26-1.75,8.79,8.79,0,0,0-.72-1.8,8.22,8.22,0,0,0-1.11-1.6,5.24,5.24,0,0,0-1.33-1.09l2.35-1.41a5.24,5.24,0,0,1,1.33,1.09,8.22,8.22,0,0,1,1.11,1.6,8.79,8.79,0,0,1,.72,1.8,6.84,6.84,0,0,1,.26,1.75,3.64,3.64,0,0,1-.55,2.11A1.76,1.76,0,0,1,277.92,117.55Z" fill="#ed6128"/><polygon points="270.87 105.56 273.22 104.15 275.58 105.39 273.22 106.8 270.87 105.56" fill="#ed6128"/><polygon points="265.36 120.44 265.38 123.35 265.04 123.17 262.83 122.01 263.25 119.33 265.01 120.26 265.36 120.44" fill="#ffd64c"/><polygon points="269.24 123.11 269.26 125.4 269.28 127.84 266.92 126.6 266.9 124.16 266.88 121.87 269.24 123.11" fill="#ffd64c"/><polygon points="273.37 125.29 273.39 127.51 273.41 130.02 271.06 128.78 271.04 126.33 271.02 124.05 273.37 125.29" fill="#ffd64c"/><polygon points="265.25 105.84 265.25 105.85 265.27 108.75 264.92 108.56 263.14 107.63 262.69 104.49 265.25 105.84" fill="#ffd64c"/><polygon points="269.09 104.62 269.12 107.89 269.13 109.49 266.77 108.25 266.76 106.65 266.74 103.38 269.09 104.62" fill="#ffd64c"/><path d="M276.59,121.91a7.33,7.33,0,0,1,.79,3.28,3.33,3.33,0,0,1-.37,1.74,1.83,1.83,0,0,1-1.06.84,3.2,3.2,0,0,1-1.57,0,6.21,6.21,0,0,1-1-.29l0-2.22L271,124l0,2.29-1.78-.94,0-2.29-2.35-1.24,0,2.29-1.87-1,.35.18,0-2.91-.35-.18-.09-11.69.35.18,0-2.9,1.52.8v1.6l2.35,1.24v-1.6l1.78.94v1.6l2.35,1.24v-1.6a5.24,5.24,0,0,1,1.33,1.09,8.22,8.22,0,0,1,1.11,1.6,8.79,8.79,0,0,1,.72,1.8,6.84,6.84,0,0,1,.26,1.75,3.64,3.64,0,0,1-.55,2.11,1.77,1.77,0,0,1-1.63.8A8.59,8.59,0,0,1,276.59,121.91Zm-2.37,1.86a1.94,1.94,0,0,0,.15-.81,3.68,3.68,0,0,0-.15-1,4.82,4.82,0,0,0-.39-1,4,4,0,0,0-.57-.8,2.64,2.64,0,0,0-.72-.56L268,117.25l0,4.61,4.44,2.34a1.79,1.79,0,0,0,.77.23,1,1,0,0,0,.62-.15,1.13,1.13,0,0,0,.4-.51m-6.32-13.62,0,4.41,4,2.1a1.27,1.27,0,0,0,1.28.09,1.45,1.45,0,0,0,.52-1.35,3.69,3.69,0,0,0-.5-1.86,3.05,3.05,0,0,0-1.21-1.23l-4.11-2.17" fill="#ffd64c"/><polygon points="273.22 106.8 273.25 110.07 273.26 111.67 270.91 110.43 270.9 108.83 270.87 105.56 273.22 106.8" fill="#ffd64c"/><polygon points="273.22 106.8 275.58 105.39 275.6 108.66 273.25 110.07 273.22 106.8" fill="#ed6128"/></g></g></g></svg>