<svg id="Layer_2" data-name="Layer 2" xmlns="http://www.w3.org/2000/svg" xmlns:xlink="http://www.w3.org/1999/xlink" viewBox="0 0 400 300"><defs><linearGradient id="linear-gradient" x1="186.3" y1="263.78" x2="199.27" y2="253.89" gradientUnits="userSpaceOnUse"><stop offset="0" stop-color="#fff42a"/><stop offset="1" stop-color="#ff8a15"/></linearGradient><linearGradient id="linear-gradient-2" x1="106.12" y1="211.27" x2="136.65" y2="187.97" xlink:href="#linear-gradient"/><linearGradient id="linear-gradient-3" x1="273.72" y1="183.41" x2="314" y2="183.41" xlink:href="#linear-gradient"/><linearGradient id="linear-gradient-4" x1="277.88" y1="184.57" x2="309.67" y2="184.57" xlink:href="#linear-gradient"/><linearGradient id="linear-gradient-5" x1="274.44" y1="174.78" x2="310.95" y2="185.69" gradientTransform="translate(587.96 364.78) rotate(-179.86)" xlink:href="#linear-gradient"/><linearGradient id="linear-gradient-6" x1="274.22" y1="175.53" x2="310.72" y2="186.44" gradientTransform="translate(587.96 364.78) rotate(-179.86)" xlink:href="#linear-gradient"/><linearGradient id="linear-gradient-7" x1="218.96" y1="231.82" x2="245.22" y2="231.82" xlink:href="#linear-gradient"/><linearGradient id="linear-gradient-8" x1="221.67" y1="232.57" x2="242.4" y2="232.57" xlink:href="#linear-gradient"/><linearGradient id="linear-gradient-9" x1="343.09" y1="128.28" x2="366.89" y2="135.39" gradientTransform="translate(587.96 364.78) rotate(-179.86)" xlink:href="#linear-gradient"/><linearGradient id="linear-gradient-10" x1="342.94" y1="128.76" x2="366.74" y2="135.87" gradientTransform="translate(587.96 364.78) rotate(-179.86)" xlink:href="#linear-gradient"/></defs><title>PP</title><path d="M198.91,283.92,26.41,182c-5.49-3.08-10.2-8.15-4.85-11.46L194.69,70.74c2.6-1.61,6.54-2.66,9.18-1.13L384.94,174.7c5.49,3.19,6.48,12.1,1,15.29L221.65,283.76A22.94,22.94,0,0,1,198.91,283.92Z" fill="#fffa40"/><path d="M206.1,241.88l-10.41,3.38-23.9,15.2c5.23,4.48,12.68,7,18.06,11.26l22.59-13.49,4.69-8.8Z" fill="url(#linear-gradient)"/><path d="M152.74,159.71l-24.51,8L72,203.46C84.26,214,101.81,219.91,114.47,230l53.19-31.76,11-20.71Z" fill="url(#linear-gradient-2)"/><path d="M289.21,187.51c-1.43,6.65-6,12.16-12.77,13.75-7.2,1.68-17.53-1.75-17.34-10.49.15-6.75,5.17-12.47,9.1-17.49,3.79-4.83,7.3-9.64,9.35-15.5,3.74-10.66,2.45-23.85-6.14-31.86-7.54-7-18.75-9.23-27.93-4.19-3.95,2.17-.42,8.22,3.53,6,5.66-3.11,12.36-2.07,17.55,1.56,6.09,4.25,8.46,11.73,7.92,18.91-1.09,14.41-13.93,22.14-18.78,34.81-4.78,12.46,2.85,23.84,15.87,25.42A24.07,24.07,0,0,0,296,189.37C296.9,185,290.16,183.1,289.21,187.51Z" fill="#c1272d"/><path d="M135.14,182.55c.74-.3.33-1.47-.41-1.17a14.74,14.74,0,0,1-5.69,1.13,8.6,8.6,0,0,1-3.17-.57,13.3,13.3,0,0,0,1.4-.34c2.12-.64,5.46-2.85,3.58-5.47-2.24-3.14-8.31,1.42-7.57,4.8-3.42-.06-7.17-1.64-8.26-5.1a5.7,5.7,0,0,1-.26-2,8.51,8.51,0,0,0,4.74-1.65c.75-.59,1.76-1.55,1.45-2.61s-1.6-1.37-2.59-1.27a5.63,5.63,0,0,0-4.68,4.29,6.7,6.7,0,0,1-6-3.65,5.08,5.08,0,0,1-.45-2.58c2.31.17,4.82-.19,6.2-1.92,1.74-2.2-1.55-3.32-3.26-2.95a5.44,5.44,0,0,0-3.94,3.62c-2.21-.27-4.37-1.16-5.43-2.64a3.67,3.67,0,0,1,.18-4.26l.3.13c1.94.75,6,1.85,7.14-.75,1.16-2.78-2.74-3.23-4.51-2.8a6.87,6.87,0,0,0-3.28,1.9,5.9,5.9,0,0,1-3.1-4.33,7.55,7.55,0,0,1,5.4-7.81,4.69,4.69,0,0,0,5.23,4.06c2.76-.51.87-3.43-.57-4.42a5.77,5.77,0,0,0-3.46-1c.37-3.55,4.59-5.79,7.87-5.84h.27c0,2,1.52,4.91,4,4.12,2.63-.85.57-3.84-.92-4.64a6,6,0,0,0-1.65-.59,4.67,4.67,0,0,1,.35-.92c1.25-2.41,4.32-3.58,7.08-3.32.06,1.8.77,3.67,2.53,4.16,2.44.68,3.55-2,1.89-3.65a6.35,6.35,0,0,0-3.15-1.59,5.7,5.7,0,0,1,2.37-3.82,5,5,0,0,1,4.84-.31,6.15,6.15,0,0,0-.56.92c-1,2.05-.54,5.34,2,6,2.81.71,3.33-2.72,2.52-4.61a6.43,6.43,0,0,0-2-2.54,8.8,8.8,0,0,1,5.18-1.95,8,8,0,0,1,7.25,3.9,6.11,6.11,0,0,0-2.17.89c-1.84,1.2-3.3,4-1.72,6s4.37.93,5.37-1a6.28,6.28,0,0,0,.34-4.71c3.85.49,7.22,4.7,7.78,8.22.13.78,1.37.71,1.24-.08-.66-4.12-5-9.35-9.54-9.49a8.87,8.87,0,0,0-1.25-1.94,9.11,9.11,0,0,0-7.85-3.06,10.08,10.08,0,0,0-5.73,2.45,6.85,6.85,0,0,0-3.25-.77,6.43,6.43,0,0,0-5.81,4.67,6.31,6.31,0,0,0-.22,1,10.15,10.15,0,0,0-3.61.42,7.28,7.28,0,0,0-5.12,4.92,10.8,10.8,0,0,0-4.92,1.16c-2.4,1.18-4.43,3.37-4.62,6.08a7.78,7.78,0,0,0-3.06,1.41A8.87,8.87,0,0,0,96.24,152a6.93,6.93,0,0,0,3.61,5.64,5.41,5.41,0,0,0-.9,2.86c-.05,3.09,2.86,4.74,5.5,5.4.47.12,1,.23,1.54.31a5.26,5.26,0,0,0,0,.74,7.17,7.17,0,0,0,4.9,6.34,9.84,9.84,0,0,0,2.65.53,7.79,7.79,0,0,0,4,6.77,11.69,11.69,0,0,0,6.42,1.52,4.38,4.38,0,0,0,1.58,1C128.46,184.42,132.3,183.69,135.14,182.55Zm9.67-50.83a3.71,3.71,0,0,1-1.15,3,1.79,1.79,0,0,1-3-1.63c.11-1.8,2-3.12,3.67-3.32h.14A6.58,6.58,0,0,1,144.81,131.72Zm-12.18-.25c-.7,2.46-2.86.08-2.93-1.35a4,4,0,0,1,.95-2.66C131.91,128.4,133.06,130,132.63,131.47Zm-8.91,1.32a3.12,3.12,0,0,1,1,.69c1.35,2-.94,1.51-1.53.93a3.52,3.52,0,0,1-.85-2.17A6.26,6.26,0,0,1,123.72,132.79Zm-9.3,5a4.06,4.06,0,0,1,.87.51c.62.48.76.62.53,1.39l-.18.64a2,2,0,0,1-1.48-.72,3,3,0,0,1-.49-1,3.85,3.85,0,0,1-.17-1.12A4.68,4.68,0,0,1,114.41,137.79ZM106.54,145c.44.25,2.27,1.71,1.77,2.3s-2.2-.15-2.69-.49a3.55,3.55,0,0,1-1.47-2.41A4.64,4.64,0,0,1,106.54,145Zm-2,10.92a5.28,5.28,0,0,1,.88-.07q1.66-.22.92,2l-.8.11a9.24,9.24,0,0,1-3.79-.68l.28-.24A5.61,5.61,0,0,1,104.58,156Zm3.54,8.24a4.33,4.33,0,0,1,2.06-1.39,2.74,2.74,0,0,1,1.34-.11c1.45.36.89,1.16,0,1.67a8.06,8.06,0,0,1-4,.88A3.93,3.93,0,0,1,108.12,164.19Zm8.11,6.47a4,4,0,0,1,2.22-1.09c1.28-.14,1.09,1,.35,1.62a5.73,5.73,0,0,1-1.47.84,8.57,8.57,0,0,1-2.33.56A4.47,4.47,0,0,1,116.23,170.66Zm13.84,7c0,2.32-3.73,3-5.43,3.2a2.11,2.11,0,0,1,0-1.72C125.22,177.81,130,174.73,130.08,177.67Z" fill="#ff6821"/><path d="M230.82,103a9.46,9.46,0,0,0-4.18-5.7,8.83,8.83,0,0,0-7.72-.58,10.84,10.84,0,0,0-7.69-5.34,9.55,9.55,0,0,0-6.54,1.29c-5.28-3.75-14.88-.09-16.58,6.09a9.24,9.24,0,0,0-1.65.2c-4,.89-7.49,4.32-7.48,8.48a7.5,7.5,0,0,0-1.56,1.55,7.76,7.76,0,0,0,2.32,11.23c.81.51,1.55-.77.75-1.28a6.19,6.19,0,0,1-1.31-9.75l0,0a3.84,3.84,0,0,0,3.19,3.07,2.72,2.72,0,0,0,3.13-2.65,3.4,3.4,0,0,0-2.75-3.19,4.27,4.27,0,0,0-2.24.19,6.94,6.94,0,0,1,.2-.88,7.92,7.92,0,0,1,5.53-5.19,9.35,9.35,0,0,1,1.6-.29,7.47,7.47,0,0,0,.25,2.38,4.07,4.07,0,0,0,2.93,3.18,2.92,2.92,0,0,0,3.23-2.52c.45-2.92-2-4.17-4.56-4.46a7.48,7.48,0,0,1,.68-1.47c2.36-3.89,9-6.19,13.06-3.71a7.05,7.05,0,0,0-1.83,2.88c-.83,2.5.82,6.9,4.09,5,3-1.71,2-5.68.1-7.89,3.93-2.33,9.37-.27,11.66,3.5l.1.18a9.08,9.08,0,0,0-1,.63c-2,1.54-4.77,6.36-.95,7.64s4.74-4.72,4-7.15c0-.14-.1-.28-.15-.42a7.45,7.45,0,0,1,9.71,4.79v0c-2.75.33-6.71,2.85-4.83,5.64s5.54.93,6.34-1.7a6.88,6.88,0,0,0,.28-2.18,4.6,4.6,0,0,1,1.83,1.52c3.69,5.16-3,11-7.53,12.16a.74.74,0,0,0,.39,1.43c4.15-1.07,8-4.09,9.2-8.34C235.89,108.07,234.43,103.9,230.82,103Zm-47,5.75a1.26,1.26,0,0,1-.92,2c-1,.24-1.88-.89-2.16-1.71a4.31,4.31,0,0,1-.19-.83C181.64,107.65,183,107.5,183.77,108.74Zm9.07-6c-.05,2.27-2.35,1.52-3,.27a4.9,4.9,0,0,1-.46-1.74,5.73,5.73,0,0,1,0-1.11C191.18,100.28,192.88,100.92,192.84,102.78Zm12.13-2.5c-2,.89-2.28-1.8-2.06-2.87a5.64,5.64,0,0,1,1.73-2.85A5.23,5.23,0,0,1,206,96.7C206.3,97.82,206.24,99.7,205,100.28Zm13,2.93c-.72,1.11-2.6,1.19-2.7-.4a3.32,3.32,0,0,1,.63-1.87,6.88,6.88,0,0,1,2.3-2.23A5.23,5.23,0,0,1,218,103.21Zm11.38,3.22c-.41,1.3-2.21,3-3.5,1.49s1.74-3.25,2.93-3.52a3.46,3.46,0,0,1,.77-.08A5.29,5.29,0,0,1,229.33,106.44Z" fill="#0071bc"/><path d="M105.57,178.66,218.08,112s10.19-1.88,12.46,12a5.54,5.54,0,0,1-2.57,5.62l-20.41,12.5-91.76,53.28" fill="#68e1fd"/><path d="M105.57,178.66,218.08,112s10.19-1.88,12.46,12a5.54,5.54,0,0,1-2.57,5.62l-20.41,12.5-91.76,53.28" fill="#0071bc" opacity="0.64"/><ellipse cx="110.15" cy="187.44" rx="5.79" ry="9.9" transform="translate(-74.18 72.16) rotate(-27.54)" fill="#1571af"/><path d="M118.47,193.18,231,126.47s10.19-1.88,12.46,12a5.54,5.54,0,0,1-2.57,5.62l-20.41,12.5L128.7,209.85" fill="#68e1fd"/><ellipse cx="123.04" cy="201.96" rx="5.79" ry="9.9" transform="translate(-79.43 79.76) rotate(-27.54)" fill="#1571af"/><path d="M105.74,162.12l106.17-63s9.62-1.78,11.76,11.31a5.23,5.23,0,0,1-2.42,5.3L202,127.57,115.4,177.85" fill="#68e1fd"/><path d="M105.74,162.12l106.17-63s9.62-1.78,11.76,11.31a5.23,5.23,0,0,1-2.42,5.3L202,127.57,115.4,177.85" fill="#0071bc" opacity="0.27"/><ellipse cx="110.06" cy="170.4" rx="5.46" ry="9.34" transform="translate(-66.31 70.19) rotate(-27.54)" fill="#1571af"/><path d="M136.24,195.36l106.38-63.08s7.16-1.32,10.51,6.7a9.33,9.33,0,0,1-3.75,11.53l-16.7,10.23-86.76,50.38" fill="#68e1fd"/><ellipse cx="140.57" cy="203.66" rx="5.48" ry="9.36" transform="translate(-78.23 88.06) rotate(-27.54)" fill="#1571af"/><line x1="117.54" y1="192.96" x2="127.69" y2="186.36" fill="#77a6f7"/><path d="M117.54,193a32.79,32.79,0,0,1,4.81-3.72,32.42,32.42,0,0,1,5.35-2.88,32.42,32.42,0,0,1-4.81,3.72A32.8,32.8,0,0,1,117.54,193Z" fill="#2e3192"/><path d="M125.52,180,238,113.24s10.19-1.88,12.46,12a5.54,5.54,0,0,1-2.57,5.62l-20.41,12.5-91.76,53.28" fill="#68e1fd"/><path d="M125.52,179.54,238,112.83s10.19-1.88,12.46,12a5.54,5.54,0,0,1-2.57,5.62l-20.41,12.5-91.76,53.28" fill="#0071bc" opacity="0.45"/><ellipse cx="130.1" cy="188.73" rx="5.79" ry="9.9" transform="translate(-72.52 81.53) rotate(-27.54)" fill="#1571af"/><path d="M119.44,162.16,225.82,99.09S237.13,97,238,114l-22.09,13.53-86.76,50.38" fill="#68e1fd"/><ellipse cx="123.76" cy="170.47" rx="5.48" ry="9.36" transform="translate(-64.79 76.53) rotate(-27.54)" fill="#1571af"/><line x1="119.44" y1="162.16" x2="220.28" y2="102.37" fill="#77a6f7"/><path d="M119.44,162.16c8.3-5.16,16.65-10.23,25-15.28l25.15-15L194.87,117l12.68-7.35,12.73-7.26-12.48,7.68-12.53,7.59-25.15,15-25.27,14.85C136.4,152.46,127.94,157.36,119.44,162.16Z" fill="#2e3192"/><line x1="130.85" y1="176.13" x2="237.97" y2="114.02" fill="#77a6f7"/><path d="M130.85,176.13c8.82-5.35,17.7-10.61,26.59-15.86l26.72-15.63L211,129.21l13.46-7.64L238,114l-13.27,8-13.32,7.88L184.66,145.5l-26.84,15.43C148.86,166,139.88,171.13,130.85,176.13Z" fill="#2e3192"/><line x1="136.24" y1="195.36" x2="242.62" y2="132.28" fill="#77a6f7"/><path d="M136.24,195.36c8.76-5.43,17.58-10.77,26.4-16.1l26.54-15.87,26.65-15.67L229.2,140l13.42-7.67-13.17,8.1-13.23,8-26.54,15.87L163,179.92C154.12,185.11,145.21,190.28,136.24,195.36Z" fill="#2e3192"/><ellipse cx="218.4" cy="132.07" rx="22.11" ry="29.35" transform="translate(-34.23 95.76) rotate(-22.98)" fill="#897d6b"/><polygon points="205.82 105.57 215.03 101.53 211.29 106.55 205.82 105.57" fill="#897d6b"/><polygon points="229.86 159.09 240.08 154.48 232.44 155.81 229.86 159.09" fill="#897d6b"/><ellipse cx="228.62" cy="127.46" rx="22.11" ry="29.35" transform="translate(-31.62 99.39) rotate(-22.98)" fill="#a5a097"/><ellipse cx="228.02" cy="127.99" rx="19.58" ry="27.12" transform="translate(-31.87 99.2) rotate(-22.98)" fill="#fdfeff"/><line x1="217.58" y1="117.3" x2="228.49" y2="134.24" fill="#ff6821"/><path d="M217.26,117.49l10.91,16.93c.26.4.91,0,.65-.38L217.9,117.11c-.26-.4-.91,0-.65.38Z" fill="#ff6821"/><line x1="208.18" y1="116.44" x2="230.64" y2="133.16" fill="#ff6821"/><path d="M208,116.76l22.46,16.72c.39.29.76-.36.38-.65l-22.46-16.72c-.39-.29-.76.36-.38.65Z" fill="#ff6821"/><line x1="222.32" y1="129.86" x2="241.76" y2="123.69" fill="#ff6821"/><path d="M222.42,130.22,241.86,124c.46-.15.26-.87-.2-.72l-19.45,6.17c-.46.15-.26.87.2.72Z" fill="#ff6821"/><polygon points="288.59 180.06 286.83 161.2 298.49 174.46 314 167.75 305.85 182.61 310.64 203.07 298.34 192.51 292.26 205.63 289.07 190.94 273.72 188.85 288.59 180.06" fill="url(#linear-gradient-3)"/><path d="M292,181.71s-4-15.32-3.34-14.87,9.61,11.81,9.61,11.81l11.43-7.23-6.18,10.75,4.8,17.38-10.06-11.5-6.18,14.25L292,188.22l-14.11.36Z" fill="url(#linear-gradient-4)"/><polygon points="298.7 191.86 286.28 206.17 287.81 188.57 272.24 182 288.62 177.62 300.09 160.02 300.96 176.21 314.64 171.54 306.23 184 315.32 196.53 298.7 191.86" fill="url(#linear-gradient-5)"/><path d="M297.56,188.28s-8.3,13.5-8.44,12.69S291,185.86,291,185.86l-13.13-3.27,12-3,9.25-15.49-1.36,15.22L312.38,174l-10.13,9.78,10,10Z" fill="url(#linear-gradient-6)"/><path d="M221.34,212.11A13.63,13.63,0,0,0,205,224.37c-.25,2.56,3.75,2.54,4,0,.69-7.12,8.36-10.34,14.43-7.34,5.81,2.87,7.86,9,7.43,15.12-.18,2.57,3.82,2.56,4,0C235.51,223.17,230.76,213.94,221.34,212.11Z" fill="#ff6821"/><circle cx="204.27" cy="242.94" r="17.5" fill="#58595b"/><path d="M197.86,250a17,17,0,0,1-4.6-20.71,17.49,17.49,0,1,0,27.55,19.26C214,253.45,204.67,255.42,197.86,250Z" fill="#3c3e42"/><path d="M214.94,232.13c-1.92-1.7-4.76,1.12-2.83,2.83a8,8,0,0,1,2.43,5.59c.2,2.55,4.2,2.57,4,0C218.29,237.41,217.37,234.28,214.94,232.13Z" fill="#fff"/><path d="M216.47,244.26c-2.57,0-2.58,4,0,4S219,244.26,216.47,244.26Z" fill="#fff"/><path d="M202.66,226.64v-4s6.18-1,9.38,2l-1.13,3.77S206,230.13,202.66,226.64Z" fill="#3c3e42"/><polygon points="228.65 229.63 227.5 217.34 235.11 225.98 245.22 221.61 239.9 231.3 243.03 244.63 235.01 237.75 231.05 246.3 228.96 236.72 218.96 235.36 228.65 229.63" fill="url(#linear-gradient-7)"/><path d="M230.85,230.71s-2.62-10-2.17-9.69,6.27,7.7,6.27,7.7L242.4,224l-4,7,3.13,11.33-6.56-7.5-4,9.29,0-9.18-9.2.23Z" fill="url(#linear-gradient-8)"/><polygon points="235.24 237.33 227.15 246.65 228.14 235.18 218 230.9 228.67 228.04 236.15 216.57 236.71 227.12 245.64 224.08 240.15 232.2 246.08 240.37 235.24 237.33" fill="url(#linear-gradient-9)"/><path d="M234.5,235s-5.41,8.8-5.5,8.27,1.23-9.85,1.23-9.85l-8.56-2.13,7.85-1.93,6-10.1-.89,9.92,9.5-3.51-6.6,6.38,6.52,6.49Z" fill="url(#linear-gradient-10)"/></svg>