<svg id="Layer_2" data-name="Layer 2" xmlns="http://www.w3.org/2000/svg" xmlns:xlink="http://www.w3.org/1999/xlink" viewBox="0 0 400 300"><defs><linearGradient id="linear-gradient" x1="460.28" y1="173.56" x2="526.15" y2="131.15" gradientTransform="matrix(-1, 0, 0, 1, 605.3, 0)" gradientUnits="userSpaceOnUse"><stop offset="0" stop-opacity="0"/><stop offset="0.99" stop-color="#1a1a1a"/></linearGradient></defs><title>cc</title><path d="M172.62,71.33l-156.5,91a10,10,0,0,0,.14,17.32l191.57,107.2A15.78,15.78,0,0,0,223,287L370.2,207.86a12,12,0,0,0,.37-20.92Z" fill="#f9d2c0"/><polyline points="225.25 162.34 197.06 178.79 196.52 185.96 226.29 167.39" fill="#e27623"/><path d="M225.91,150.66,239.67,193l-2.12,1.35a13.56,13.56,0,0,1-1.67-.93c-.66-.46-17.39-44.36-17.39-44.36" fill="#e27623"/><polyline points="198.13 143.5 191.13 169.16 194.04 219.75 195.92 220.87 198.35 219.19 198.03 168.84 204.24 143.23" fill="#e27623"/><path d="M229.85,139.07s1.14,5.57-.65,8.77-7.25-4.33-7.25-4.33" fill="#ffb469"/><polyline points="201.62 109.66 203.66 130.11 198.41 133.13 196.45 111.2" fill="#ca6b00"/><polyline points="168.53 126.23 166.14 154.1 164.28 195.02 166.68 196.3 168.95 194.74 172.39 154.46 174.64 125.96" fill="#e27623"/><path d="M172.33,129.52c-1.5.53-4.85-1.71-5.89-3.2-5.7-8.14-4.66-19.58,4.7-25.3,4.14-2.53,8.43-5.06,12.54-7.66,3.66-2.31,7.56-4.31,11.09-6.8a8.34,8.34,0,0,1,1.47-.89,5.17,5.17,0,0,1,5.54,1.62" fill="#ffb469"/><path d="M171.93,129.19c-2.57,0-4.19-3.31-5-5.28-2.32-5.4-3.19-15.84,2.94-19.25a.75.75,0,0,0,.42-.62L182,96.57,191,90.79c1.58-1,3.08-2.14,4.66-3.16s3.14-2.18,5-1.18c2,1.1,2.39,3.31,2.78,5.37a33.25,33.25,0,0,1-.11,14.41c-.84,3.16-3.21,5.39-5.88,7.11L189,118.72l-15.61,9.94a3.42,3.42,0,0,1-.81.42A2.39,2.39,0,0,1,171.93,129.19Z" fill="#fcbd4c"/><path d="M171.15,151.45l-.48.3a12,12,0,0,0-3.46,2.86c-2.29,3.15.21,6.53,2.71,8.56,6.77,5.5,16.84,9.81,25.58,7.28,7.6-2.2,14.62-6.11,21.18-10.46,5.38-3.56,12.11-7.87,13.25-14.79a9.92,9.92,0,0,0-3-8.42c-14.57-15.46-33.41.48-46.77,8.95Z" fill="#ffb469"/><path d="M166.37,152.29c-.11.11-.53,4.58,0,5.89a16.57,16.57,0,0,0,4.22,5.52c1.67,1.23.31-7.79.31-7.79" fill="#ffb469"/><path d="M171,147.59l-.48.3a12,12,0,0,0-3.46,2.86c-2.29,3.15.21,6.53,2.71,8.56,6.77,5.5,16.84,9.81,25.58,7.28,7.6-2.2,14.62-6.11,21.18-10.46,5.38-3.56,12.11-7.87,13.25-14.79a9.92,9.92,0,0,0-3-8.42c-14.57-15.46-33.41.48-46.77,8.95Z" fill="#fcbd4c"/><path d="M178,205.06s.86,40.41,2.09,41.56,6.64-37.24,6.64-37.24" fill="#844040"/><path d="M234.85,225.71c-.83,2.39-6.65,48.93-8,49.57s-6.47-48-6.47-48" fill="#844040"/><path d="M331,172.1c-1.14,2.26-6.13,54.69-7.57,55.14s-2.17-49.76-2.17-49.76" fill="#844040"/><path d="M332.77,169.52a6.81,6.81,0,0,0,0-.7v-7.36l-2.13,2.81a6.78,6.78,0,0,0-1.2-.89l-43.58-25.16a10.16,10.16,0,0,0-10.16,0L172.35,197.88a7,7,0,0,0-.85.58L169,196v7.41a6.9,6.9,0,0,0,0,.79v.11h0a6.7,6.7,0,0,0,3.36,5.38L216,234.85a9.72,9.72,0,0,0,9.72,0L329.44,175a6.61,6.61,0,0,0,3.32-5.35h0Z" fill="#68e1fd"/><path d="M332.75,169.52a6.81,6.81,0,0,0,0-.7v-7.36l-2.13,2.81a6.78,6.78,0,0,0-1.2-.89l-43.58-25.16a10.16,10.16,0,0,0-10.16,0L172.34,197.88a7,7,0,0,0-.85.58L169,196v7.41a6.9,6.9,0,0,0,0,.79v.11h0a6.7,6.7,0,0,0,3.36,5.38L216,234.85a9.72,9.72,0,0,0,9.72,0L329.42,175a6.61,6.61,0,0,0,3.32-5.35h0Z" fill="#225870" opacity="0.44"/><path d="M329.93,156,286.35,130.8a10.16,10.16,0,0,0-10.16,0L172.84,190.46a6.79,6.79,0,0,0,0,11.76l43.65,25.2a9.72,9.72,0,0,0,9.72,0l103.72-59.88A6.7,6.7,0,0,0,329.93,156Z" fill="#68e1fd"/><polyline points="69.88 146.92 148.05 193.4 176.85 172.32 90.3 120.2" opacity="0.32" fill="url(#linear-gradient)"/><polyline points="115.08 66.55 101.78 59.48 69.88 77.9 69.88 146.92 83.02 154.52" fill="#ea6a4b"/><path d="M83,154.52c1-.08,0-69.46,0-69.46l32.06-18.51v70Z" fill="#ff7f5c"/><polyline points="115.08 79.6 83.18 97.56 69.88 90.78" fill="none" stroke="#f2f2f2" stroke-miterlimit="10" stroke-width="0.25"/><polyline points="115.08 97.56 83.18 115.51 69.88 108.74" fill="none" stroke="#f2f2f2" stroke-miterlimit="10" stroke-width="0.25"/><polyline points="115.08 113.72 83.18 131.67 69.88 124.9" fill="none" stroke="#f2f2f2" stroke-miterlimit="10" stroke-width="0.25"/><polyline points="115.08 130.02 83.18 147.98 69.88 141.2" fill="none" stroke="#f2f2f2" stroke-miterlimit="10" stroke-width="0.25"/><polygon points="83.02 85.06 69.88 77.9 101.78 59.48 115.08 66.55 83.02 85.06" fill="#ff886c"/><ellipse cx="89.07" cy="87.35" rx="2.34" ry="1.94" transform="translate(-25.53 136.64) rotate(-67.72)" fill="#fff"/><path d="M110.83,75.36l-17,9.37c-.42.23,0,.88.38.65l17-9.37c.42-.23,0-.88-.38-.65Z" fill="#f2f2f2"/><ellipse cx="89.07" cy="103.04" rx="2.34" ry="1.94" transform="translate(-40.05 146.39) rotate(-67.72)" fill="#fff"/><path d="M110.83,91.06l-17,9.37c-.42.23,0,.88.38.65l17-9.37c.42-.23,0-.88-.38-.65Z" fill="#f2f2f2"/><ellipse cx="89.07" cy="120.2" rx="2.34" ry="1.94" transform="translate(-55.93 157.04) rotate(-67.72)" fill="#fff"/><path d="M110.83,108.22l-17,9.37c-.42.23,0,.88.38.65l17-9.37c.42-.23,0-.88-.38-.65Z" fill="#f2f2f2"/><ellipse cx="89.07" cy="135.77" rx="2.34" ry="1.94" transform="translate(-70.34 166.71) rotate(-67.72)" fill="#fff"/><path d="M110.83,123.79l-17,9.37c-.42.23,0,.88.38.65l17-9.37c.42-.23,0-.88-.38-.65Z" fill="#f2f2f2"/><path d="M29.82,155.21s-1.48,17.54,7.88,20.63,14-5.87,13.67-21.31" fill="#68e1fd"/><ellipse cx="40.6" cy="154.86" rx="10.78" ry="6.23" transform="translate(-4.9 1.37) rotate(-1.82)" fill="#f2696a"/><path d="M42.92,140.92s-4.42-6-2.71-10.25c0,0,1.44-2.76,3.58-3.26,0,0,0,5.79,2.1,5s-.19-6.06-.19-6.06,2.17-3.14,4.65-3.12.17,5.41,1.87,4.48-.06-5.41,1.86-6a40.74,40.74,0,0,1,5.36-1s2,5.22.19,6-4.49,1.16-3.16,2.28,5-.33,5-.33.32,3-.88,4.29-8.62-1.28-7.25,1.23,6.18,1.08,6.18,1.08a19.87,19.87,0,0,1-5.22,5.33C51.37,142.27,42.92,140.92,42.92,140.92Z" fill="#8ccc00"/><path d="M44.39,156.17s-3.15-2.92-2.63-5.53a4,4,0,0,1,1.68-2.23s.6,3.29,1.72,2.61-.76-3.42-.76-3.42.89-2,2.31-2.27.68,3.05,1.54,2.34-.61-3.06.41-3.61a23.53,23.53,0,0,1,2.93-1.16s1.69,2.75.75,3.41-2.43,1.14-1.55,1.63,2.78-.72,2.78-.72a3.87,3.87,0,0,1,0,2.53c-.54.88-5,.19-4,1.47s3.63,0,3.63,0a11.48,11.48,0,0,1-2.4,3.58C49.34,156,44.39,156.17,44.39,156.17Z" fill="#8ccc00"/><path d="M33,150s-7.41.52-10.1-3.22c0,0-1.56-2.69-.83-4.77,0,0,4.87,3.14,5.34.91s-5.21-3.09-5.21-3.09-1.48-3.51-.13-5.6,4.66,2.76,4.78.83-4.6-2.85-4.07-4.8a40.74,40.74,0,0,1,2-5.08s5.48,1.12,5.19,3.08-1.44,4.41.22,3.89,2.38-4.35,2.38-4.35,2.67,1.32,3.14,3-5.72,6.58-2.86,6.77S37,133,37,133a19.87,19.87,0,0,1,1.69,7.27C38.63,143.6,33,150,33,150Z" fill="#8ccc00"/><path d="M57.89,123l-2.31,2.11c.05-.84.13-1.68.23-2.52.06-.44-.63-.61-.68-.16q-.21,1.69-.3,3.38c-2,1.89-4,3.87-5.88,6a25,25,0,0,1-.26-4.28c0-.45-.69-.43-.7,0a25.76,25.76,0,0,0,.37,4.94A48.53,48.53,0,0,0,45,136.76a13.9,13.9,0,0,1-2.58-5.53c-.1-.44-.77-.23-.67.21a14.38,14.38,0,0,0,2.78,5.86l.07.06a27.12,27.12,0,0,0-4.91,15.13c0,.45.7.43.7,0a26.35,26.35,0,0,1,4.71-14.6,27.06,27.06,0,0,0,8.72.57c.45,0,.43-.74,0-.7a26.51,26.51,0,0,1-8.28-.5,50.89,50.89,0,0,1,4.7-5.83l.06,0c1.64.09,3.28.19,4.93.19a6,6,0,0,0,3-.45c.4-.22,0-.81-.37-.59-1.11.61-2.71.36-3.92.32-1,0-2.08-.08-3.12-.14,2.42-2.55,5-4.94,7.54-7.22C58.73,123.23,58.22,122.75,57.89,123Z" fill="#06577a"/><path d="M36.59,137.39a.35.35,0,0,0-.68-.16,12.43,12.43,0,0,1-4.29,6.61q-1.3-3.27-2.39-6.62a21,21,0,0,0,3.93-5.94c.18-.41-.44-.75-.62-.33A20.42,20.42,0,0,1,29,136.44c-.81-2.56-1.54-5.14-2.17-7.76-.11-.44-.78-.23-.67.21q1.29,5.37,3.1,10.57a16.45,16.45,0,0,1-3.87-1.13c-.41-.18-.75.44-.33.62a17.21,17.21,0,0,0,4.47,1.27h0c.81,2.29,1.71,4.54,2.67,6.77A17,17,0,0,1,26,145.84c-.42-.16-.75.45-.33.62a17.9,17.9,0,0,0,6.77,1.23q1.82,4.16,4,8.18c.21.4.81,0,.59-.37a109.51,109.51,0,0,1-5.16-11h0A13.2,13.2,0,0,0,36.59,137.39Z" fill="#06577a"/><path d="M49.58,146.05l-1.83,3.3a6.05,6.05,0,0,1-.64-1c-.21-.4-.8,0-.59.37a6.69,6.69,0,0,0,.85,1.25l0,0-2,3.57a1.43,1.43,0,0,1-.46-.83c-.07-.44-.77-.42-.7,0a2.21,2.21,0,0,0,.82,1.42l-2.48,4.47a.35.35,0,0,0,.62.33l3.27-5.9a5.24,5.24,0,0,0,1.7-.31c.42-.15.22-.83-.21-.67a4.67,4.67,0,0,1-1.08.24l3.31-6A.35.35,0,0,0,49.58,146.05Z" fill="#06577a"/><polygon points="286.29 176.05 279.03 173.21 281.26 161.65 288.04 160.23 286.29 176.05" fill="#7c1251"/><path d="M179.91,70.46s-3.85,1.36-4.28,1.36-7.21-.08-6.76,3.85,11,2.91,11,2.91l4.88-5.07" fill="#ea831c"/><path d="M166.27,75.21l5.42-1.79s6.59-1.41,7.25,0-1.19,6.06-1.82,6.2l-5,1.13-4.93.56" fill="#f7931e"/><path d="M209.11,127.35s33.64,21.82,36.93,22.12,36.47,13.1,36.47,13.1-1.64,8.25-.76,12c0,0-60.62-15.08-68.28-17.65s-25.17-19.72-20.7-24.34S209.11,127.35,209.11,127.35Z" fill="#e86a58"/><path d="M189.63,93c2.76-2.57,7.35-14.05,6.23-16.7S187.33,78,187.33,78l-7.41-7.53s10.33-8.4,15.27-9.75,8.76.22,10.33,6.08-3.59,26.48-2.94,30.89,6.53,29.66,6.53,29.66c-4.72,8-24,12.2-26.73,11.52S166,108,166,108s-25.6-16.47-22.23-24.15S161.95,74,165,73.63,170.31,83,170.31,83s-9.71,2.7-10.61,3.93,3.37,4.38,11.45,6.1,9.88.77,9.88.77" fill="#9bc634"/><path d="M286.29,176.05s-.63-5.47-1.06-8-2-16.53,4.39-16.05,2.37,14.1,2.56,15.62.85,5.77-.09,7.1S288.36,177.47,286.29,176.05Z" fill="#7c1251"/><path d="M294.38,165.19s2.34,1.57,3.9-.29,2.47-17.08,3.64-20.12,1.3-8.44-2.47-8.78-4.29,1.48-5.07,3.91-3.81,10-6.63,11a67.47,67.47,0,0,1-7.14,1.81l.65,9Z" fill="#981e61"/><path d="M186.83,97s6.61,29.54,6.88,30.32,6.27,4.24,6.27,4.24l1.33-5.32L188.65,96.48Z" fill="#091114"/><path d="M178.1,94s8.63,7.37,8.25,6.82,1.84-3.39,1.84-3.39l3.87,1.17-4.43-7.66" fill="#85aa1d"/><path d="M191.79,80.26s3.27,11.93-2.13,14.55-9.18-1.28-10.82-4.84-1-11.91,6-12.76C190.88,76.47,191.79,80.26,191.79,80.26Z" fill="#f7931e"/><path d="M192.85,78c.57-1.46.8-4.06-.9-4.87a3.72,3.72,0,0,0-3.84.7,5.31,5.31,0,0,0-2.07-1,8.4,8.4,0,0,0-7.88,1.7,1.19,1.19,0,0,1-.32.23,1.39,1.39,0,0,1-.51.06c-4.24.07-5.16,4.87-4.42,8.14A16.37,16.37,0,0,0,178,91.76a10.16,10.16,0,0,0,3.85,2,.32.32,0,0,0,.4-.33.4.4,0,0,0,.13-.56,3.82,3.82,0,0,1-.36-2.32.35.35,0,0,0-.1-.31.38.38,0,0,0-.31-.64,3,3,0,0,1-2.49-.87c-.4-.41-.72-1.22.06-1.42a.92.92,0,0,1,.83.23,3.05,3.05,0,0,0,.4.55.38.38,0,0,0,.21.12c.29.1.66-.14.47-.46a3.13,3.13,0,0,0-.47-.63,2.19,2.19,0,0,1,.4-2.74c1-.88,1.91-.4,3-.35a1.46,1.46,0,0,0,1.6-1,5.44,5.44,0,0,0-.17-1.42,1.73,1.73,0,0,1,1.07-1.68c1.21-.47,2,.55,2.88,1.17a3.13,3.13,0,0,0,2.6.52,2.15,2.15,0,0,0,1.15-3.41A.37.37,0,0,0,192.85,78Zm-7.34,1.69a1.2,1.2,0,0,1,.56-.47,1,1,0,0,0,.22-.13l.07,0,.12.05A2.5,2.5,0,0,0,185.51,79.69Zm6.83-2.52-.05,0a3.43,3.43,0,0,0,.15-.39C192.4,76.89,192.37,77,192.34,77.16Z" fill="#935542"/><path d="M182.38,138.87s5.56,17.19,16.62,20.7,20-3.28,25.17-1.71,47.34,6.72,58.34,4.7c0,0,1.86-11.79-.76-14.26S233,136.55,228.53,135.93s-24.62-3.67-24.62-3.67" fill="#ff7b61"/><polygon points="214.01 191.13 243.57 208.27 265.32 195.71 236.04 178.53 214.01 191.13" fill="#fff"/><polygon points="215.23 212.94 236.95 200.24 236.95 193.84 215.2 206.4 215.23 212.94" fill="#f4cc25"/><path d="M185.64,189.26v6.45s29.64,17.38,29.59,17.23,0-6.54,0-6.54Z" fill="#edcd32"/><polygon points="185.64 189.26 215.2 206.4 236.95 193.84 207.67 176.66 185.64 189.26" fill="#f4dd53"/><polygon points="232.23 191.07 235.41 190.52 231.86 196.77 232.23 191.07" fill="#f4cc25"/><polygon points="231.86 196.77 236.95 193.84 234.41 192.06 231.86 196.77" fill="#e2b80a"/><polyline points="185.64 192.19 215.08 209.16 236.95 197.05" fill="none" stroke="#f7931e" stroke-miterlimit="10" opacity="0.56"/><polyline points="185.86 194.42 215.29 211.39 237.16 199.27" fill="none" stroke="#f7931e" stroke-miterlimit="10" opacity="0.56"/><polygon points="220.36 177.03 239.86 188.34 254.22 180.06 234.9 168.72 220.36 177.03" fill="#f9d2c0"/></svg>