<svg xmlns="http://www.w3.org/2000/svg" xmlns:xlink="http://www.w3.org/1999/xlink" viewBox="0 0 400 300"><defs><linearGradient id="linear-gradient" x1="274.79" y1="204.44" x2="281.38" y2="221.13" gradientUnits="userSpaceOnUse"><stop offset="0" stop-color="#7f4e00"/><stop offset="1" stop-color="#fff"/></linearGradient><linearGradient id="linear-gradient-2" x1="242" y1="121.65" x2="227.69" y2="134.35" gradientTransform="matrix(-1, 0, 0, 1, 513.5, 0)" xlink:href="#linear-gradient"/><linearGradient id="linear-gradient-3" x1="3681.44" y1="162.77" x2="3675.48" y2="168.44" gradientTransform="matrix(-1, 0, 0, 1, 4003.38, 0)" xlink:href="#linear-gradient"/><linearGradient id="linear-gradient-4" x1="3703.41" y1="178.31" x2="3697.44" y2="183.98" gradientTransform="matrix(-1, 0, 0, 1, 4003.38, 0)" xlink:href="#linear-gradient"/><linearGradient id="linear-gradient-5" x1="3767.34" y1="145.83" x2="3761.37" y2="151.5" gradientTransform="matrix(-1, 0, 0, 1, 4003.38, 0)" xlink:href="#linear-gradient"/><linearGradient id="linear-gradient-6" x1="3891.38" y1="123.99" x2="3885.42" y2="129.66" gradientTransform="matrix(-1, 0, 0, 1, 4003.38, 0)" xlink:href="#linear-gradient"/><linearGradient id="linear-gradient-7" x1="3871.01" y1="137.82" x2="3865.05" y2="143.49" gradientTransform="matrix(-1, 0, 0, 1, 4003.38, 0)" xlink:href="#linear-gradient"/><linearGradient id="linear-gradient-8" x1="3845.93" y1="151.35" x2="3839.96" y2="157.02" gradientTransform="matrix(-1, 0, 0, 1, 4003.38, 0)" xlink:href="#linear-gradient"/><linearGradient id="linear-gradient-9" x1="3727.35" y1="133.05" x2="3720.58" y2="139.48" gradientTransform="matrix(-1, 0, 0, 1, 4003.38, 0)" xlink:href="#linear-gradient"/><linearGradient id="linear-gradient-10" x1="3767.7" y1="110.02" x2="3760.94" y2="116.45" gradientTransform="matrix(-1, 0, 0, 1, 4003.38, 0)" xlink:href="#linear-gradient"/><linearGradient id="linear-gradient-11" x1="3867.66" y1="105.65" x2="3860.9" y2="112.08" gradientTransform="matrix(-1, 0, 0, 1, 4003.38, 0)" xlink:href="#linear-gradient"/><linearGradient id="linear-gradient-12" x1="3754.13" y1="146.07" x2="3747.37" y2="152.5" gradientTransform="matrix(-1, 0, 0, 1, 4003.38, 0)" xlink:href="#linear-gradient"/><linearGradient id="linear-gradient-13" x1="306.66" y1="139.74" x2="284.66" y2="159.27" gradientTransform="matrix(-1, 0, 0, 1, 513.5, 0)" xlink:href="#linear-gradient"/><linearGradient id="linear-gradient-14" x1="342.83" y1="118.24" x2="321.17" y2="137.46" gradientTransform="matrix(-1, 0, 0, 1, 513.5, 0)" xlink:href="#linear-gradient"/><linearGradient id="linear-gradient-15" x1="3828.52" y1="130.33" x2="3821.75" y2="136.76" gradientTransform="matrix(-1, 0, 0, 1, 4003.38, 0)" xlink:href="#linear-gradient"/><linearGradient id="linear-gradient-16" x1="3781.77" y1="152.62" x2="3775.81" y2="158.29" gradientTransform="matrix(-1, 0, 0, 1, 4003.38, 0)" xlink:href="#linear-gradient"/><linearGradient id="linear-gradient-17" x1="193.1" y1="209.19" x2="179.38" y2="221.37" gradientTransform="matrix(-1, 0, 0, 1, 513.5, 0)" xlink:href="#linear-gradient"/><linearGradient id="linear-gradient-18" x1="153.69" y1="173.45" x2="139.97" y2="185.63" gradientTransform="matrix(-1, 0, 0, 1, 513.5, 0)" xlink:href="#linear-gradient"/></defs><title>PP</title><g style="isolation:isolate"><g id="Layer_5" data-name="Layer 5"><path d="M388.79,176.33,201.22,67.47c-2.74-1.59-6.82-.5-9.51,1.17L72.22,137.51h0l139.5,42.1L311,237.16h0l78.81-45C395.5,188.86,394.48,179.63,388.79,176.33Z" fill="#ffdaae"/><path d="M211.72,179.61l-139.5-42.1h0L12.38,172c-5.55,3.44-.67,8.68,5,11.88l178.69,105.6a23.76,23.76,0,0,0,23.55-.17L311,237.16h0Z" fill="#4090c1"/><path d="M235.22,263.59c-5.68-4.91-13.07-7.5-20.18-9.56-13.87-4-28.66-5.82-41.69-12.38a37.56,37.56,0,0,1-14-11.46c-3.26-4.58-5.29-9.91-8.21-14.69a40,40,0,0,0-14.3-13.71c-17.14-10-38.73-10.68-57.73-14.81-14.79-3.22-31.71-8-41.8-20a2.22,2.22,0,0,1-.73-.75c-.1-.16-.18-.33-.28-.5a36,36,0,0,1-2.45-3.59,2,2,0,0,1-.19-1.82l-.22-.48L12.38,172c-5.55,3.44-.67,8.68,5,11.88l178.69,105.6a23.76,23.76,0,0,0,23.55-.17L242.92,276A24.51,24.51,0,0,0,235.22,263.59Z" fill="#3e85ba"/><path d="M273.41,247.13c-6.55-4.19-38.41-22.58-38.41-22.58,2.34-1.58,16.93-9.33,19-11.29,6.78.43,48.57-18.91,49.48-19.62l23.27,21.46C320.93,218.33,278.9,243.38,273.41,247.13Z" opacity="0.68" fill="url(#linear-gradient)" style="mix-blend-mode:multiply"/><polygon points="339.72 146.99 229.83 211.18 218.45 204.4 328.97 140.26 339.72 146.99" fill="#53646c"/><polygon points="158.75 86.14 290.06 162.84 301.65 156.11 169.5 79.41 158.75 86.14" fill="#53646c"/><polygon points="110.94 112.51 220.83 176.7 232.21 169.92 121.69 105.78 110.94 112.51" fill="#53646c"/><path d="M266.66,149.87l-7.86,4,4.45,2.89,7.93-4.11C269.65,151.73,268.2,150.72,266.66,149.87Z" fill="#e5b683"/><polyline points="271.18 152.6 271.18 150.62 258.8 151.84 258.8 153.82" fill="#e5b683"/><path d="M266.66,147.89l-7.86,4,4.45,2.89,7.93-4.11C269.65,149.75,268.2,148.73,266.66,147.89Z" fill="#ffdaae"/><path d="M222,189.31l-18.18,14.06,4.6,3.68a13.36,13.36,0,0,0,2.72,16.2c7.78,7.63,24.89,7.15,29.2,5.24l5.11,3.34,58-36.06-14-10.69" fill="#af5b23"/><path d="M222,187.17l-18.18,14.06,4.6,3.68a13.36,13.36,0,0,0,2.72,16.2c7.78,7.63,24.89,7.15,29.2,5.24l5.11,3.34,58-36.06-17.91-13.5" fill="#db8a53"/><path d="M213.88,190.58s-.94-6.72,8.43-8.71v6.37" fill="#c96827"/><polyline points="286.33 175.72 286.33 170.64 280.4 173.18" fill="#c96827"/><path d="M213.88,190.58v21.7s2.82,8.56,20,9.38a9,9,0,0,0,5-1.25l47.92-28-.44-16.65-72.45,14.86" fill="#68e1fd"/><path d="M265.71,159.11l-51.83,31.47c-.21.13.59,2.22.65,2.39a15.49,15.49,0,0,0,3.25,5.16,18.32,18.32,0,0,0,7.77,4.71,27.85,27.85,0,0,0,6.18,1.18,18.67,18.67,0,0,0,4.83-.1c2.77-.5,5.08-2.31,7.46-3.7,2.64-1.54,5.29-3.06,7.93-4.59l18-10.42,13.94-8.07a17,17,0,0,1,2.45-1.42Z" fill="#c96827"/><path d="M220.94,174.37v17.12s2.25,6.83,16,7.41a6.23,6.23,0,0,0,3.45-.88l45.93-27.38V158.43l-65.39,15.94" fill="#68e1fd"/><path d="M268.49,147.89l-47.55,26.48s1.31,11.16,17.54,10.69a4,4,0,0,0,1.85-.53l46-26.1Z" fill="#c96827"/><path d="M286.33,158.43s-.25-7.81-6.08-12.25c0,0-4.49-4.06-11.93-.6l-42.79,21.63s-4.58,2.73-4.58,7.16" fill="#c96827"/><path d="M245.58,161.09l-7.86,4,4.45,2.89,7.93-4.11C248.57,163,247.12,161.94,245.58,161.09Z" fill="#e5b683"/><polyline points="250.1 163.82 250.1 161.84 237.72 163.06 237.72 165.05" fill="#e5b683"/><path d="M245.58,159.11l-7.86,4,4.45,2.89,7.93-4.11C248.57,161,247.12,160,245.58,159.11Z" fill="#ffdaae"/><polygon points="243.91 187.81 243.91 192.84 247.7 190.32 247.7 185.07 243.91 187.81" fill="#2e5b5a"/><polygon points="252.13 182.86 252.13 187.9 255.92 185.38 255.92 180.13 252.13 182.86" fill="#2e5b5a"/><polygon points="260.35 177.95 260.35 182.99 264.14 180.47 264.14 175.22 260.35 177.95" fill="#2e5b5a"/><polygon points="268.31 172.72 268.31 177.76 272.09 175.24 272.09 169.99 268.31 172.72" fill="#2e5b5a"/><polygon points="277.02 167.78 277.02 172.82 280.81 170.3 280.81 165.05 277.02 167.78" fill="#2e5b5a"/><polygon points="245.69 205.26 245.69 210.3 249.47 207.78 249.47 202.53 245.69 205.26" fill="#2e5b5a"/><polygon points="253.91 200.32 253.91 205.36 257.69 202.84 257.69 197.59 253.91 200.32" fill="#2e5b5a"/><polygon points="262.13 195.41 262.13 200.45 265.91 197.93 265.91 192.68 262.13 195.41" fill="#2e5b5a"/><polygon points="270.08 190.18 270.08 195.22 273.87 192.7 273.87 187.45 270.08 190.18" fill="#2e5b5a"/><polygon points="278.8 185.24 278.8 190.28 282.58 187.76 282.58 182.5 278.8 185.24" fill="#2e5b5a"/><polygon points="225.52 209.98 225.52 215.01 221.73 212.49 221.73 207.24 225.52 209.98" fill="#2e5b5a"/><polygon points="219.38 205.72 219.38 210.76 215.6 208.24 215.6 202.99 219.38 205.72" fill="#2e5b5a"/><polygon points="227.41 187.81 227.41 192.84 223.63 190.32 223.63 185.07 227.41 187.81" fill="#2e5b5a"/><path d="M204.86,207.75c.08.12,0,3.15,0,3.15s-4.53,3.35-6.93,4.76A26.7,26.7,0,0,1,186.36,219v-2.72a30.45,30.45,0,0,1,5.28-5.35s-.35-.75.28-1.1,5.94-3.5,5.94-3.5l3.77-2,3.05,1.73a.92.92,0,0,1,.4,1.14Z" fill="#fff"/><path d="M186.36,217.41s5.82-.3,9.17-2.18,9.36-5.73,9.36-5.73l0,1.4L199,215s-4.38,3.44-12.66,4Z" fill="#6a4e39"/><polygon points="191.63 210.94 191.63 213.4 195.53 215.23 204.89 209.5 205.08 207.2 196.18 212.93 191.63 210.94" fill="#ccccce"/><polygon points="197.58 212.45 197.58 213.6 198.42 213.11 198.42 211.88 197.58 212.45" fill="#6a4e39"/><polygon points="198.73 211.79 198.73 212.93 199.57 212.45 199.57 211.22 198.73 211.79" fill="#6a4e39"/><polygon points="200.59 210.52 200.59 211.67 201.43 211.19 201.43 209.95 200.59 210.52" fill="#6a4e39"/><polygon points="201.66 209.86 201.66 211 202.5 210.52 202.5 209.29 201.66 209.86" fill="#6a4e39"/><path d="M186.36,216.29a54.53,54.53,0,0,0,9.7-1.36h0a20.24,20.24,0,0,1-9.7,2.48Z" fill="#a57b5e"/><path d="M103.84,150.86c.11.17,0,4.52,0,4.52s-6.49,4.8-9.94,6.83-8.64,4.12-16.6,4.8v-3.9a43.66,43.66,0,0,1,7.57-7.68s-.51-1.07.4-1.58,8.53-5,8.53-5l5.41-2.88,4.38,2.48a1.32,1.32,0,0,1,.58,1.63Z" fill="#fff"/><path d="M77.3,164.72s8.35-.44,13.15-3.13,13.43-8.22,13.43-8.22l0,2-8.38,5.87S89.17,166.17,77.3,167Z" fill="#6a4e39"/><polygon points="84.87 155.44 84.87 158.96 90.45 161.59 103.88 153.37 104.15 150.06 91.38 158.29 84.87 155.44" fill="#ccccce"/><polygon points="93.39 157.6 93.39 159.25 94.59 158.55 94.59 156.78 93.39 157.6" fill="#6a4e39"/><polygon points="95.04 156.65 95.04 158.29 96.25 157.6 96.25 155.83 95.04 156.65" fill="#6a4e39"/><polygon points="97.71 154.84 97.71 156.48 98.91 155.79 98.91 154.02 97.71 154.84" fill="#6a4e39"/><polygon points="99.25 153.88 99.25 155.53 100.45 154.83 100.45 153.06 99.25 153.88" fill="#6a4e39"/><path d="M77.3,163.11s9.13-.49,13.91-2h0a29,29,0,0,1-13.91,3.56Z" fill="#a57b5e"/><path d="M129.44,159.53c.08.12,0,3.15,0,3.15s-4.53,3.35-6.93,4.76a26.7,26.7,0,0,1-11.57,3.35v-2.72a30.45,30.45,0,0,1,5.28-5.35s-.35-.75.28-1.1,5.94-3.5,5.94-3.5l3.77-2,3.05,1.73a.92.92,0,0,1,.4,1.14Z" fill="#fff"/><path d="M110.94,169.19s5.82-.3,9.17-2.18,9.36-5.73,9.36-5.73l0,1.4-5.85,4.09s-4.38,3.44-12.66,4Z" fill="#6a4e39"/><polygon points="116.21 162.72 116.21 165.17 120.11 167.01 129.47 161.28 129.66 158.97 120.76 164.71 116.21 162.72" fill="#ccccce"/><polygon points="122.16 164.23 122.16 165.37 123 164.89 123 163.66 122.16 164.23" fill="#6a4e39"/><polygon points="123.31 163.56 123.31 164.71 124.15 164.22 124.15 162.99 123.31 163.56" fill="#6a4e39"/><polygon points="125.17 162.3 125.17 163.44 126.01 162.96 126.01 161.73 125.17 162.3" fill="#6a4e39"/><polygon points="126.24 161.63 126.24 162.78 127.08 162.3 127.08 161.06 126.24 161.63" fill="#6a4e39"/><path d="M110.94,168.07a54.53,54.53,0,0,0,9.7-1.36h0a20.24,20.24,0,0,1-9.7,2.48Z" fill="#a57b5e"/><path d="M142.85,163.09c.08.12,0,3.15,0,3.15s-4.53,3.35-6.93,4.76a26.7,26.7,0,0,1-11.57,3.35v-2.72a30.45,30.45,0,0,1,5.28-5.35s-.35-.75.28-1.1,5.94-3.5,5.94-3.5l3.77-2,3.05,1.73a.92.92,0,0,1,.4,1.14Z" fill="#fff"/><path d="M124.35,172.75s5.82-.3,9.17-2.18,9.36-5.73,9.36-5.73l0,1.4L137,170.33s-4.38,3.44-12.66,4Z" fill="#6a4e39"/><polygon points="129.63 166.28 129.63 168.74 133.52 170.57 142.88 164.84 143.07 162.53 134.17 168.27 129.63 166.28" fill="#ccccce"/><polygon points="135.57 167.79 135.57 168.94 136.41 168.45 136.41 167.22 135.57 167.79" fill="#6a4e39"/><polygon points="136.72 167.13 136.72 168.27 137.56 167.79 137.56 166.55 136.72 167.13" fill="#6a4e39"/><polygon points="138.58 165.86 138.58 167.01 139.42 166.53 139.42 165.29 138.58 165.86" fill="#6a4e39"/><polygon points="139.65 165.2 139.65 166.34 140.49 165.86 140.49 164.63 139.65 165.2" fill="#6a4e39"/><path d="M124.35,171.63a54.53,54.53,0,0,0,9.7-1.36h0a20.24,20.24,0,0,1-9.7,2.48Z" fill="#a57b5e"/><path d="M168.36,169.26c.08.12,0,3.15,0,3.15s-4.53,3.35-6.93,4.76a26.7,26.7,0,0,1-11.57,3.35v-2.72a30.45,30.45,0,0,1,5.28-5.35s-.35-.75.28-1.1,5.94-3.5,5.94-3.5l3.77-2,3.05,1.73a.92.92,0,0,1,.4,1.14Z" fill="#fff"/><path d="M149.86,178.92s5.82-.3,9.17-2.18,9.36-5.73,9.36-5.73l0,1.4-5.85,4.09s-4.38,3.44-12.66,4Z" fill="#6a4e39"/><polygon points="155.13 172.45 155.13 174.91 159.03 176.74 168.39 171.01 168.58 168.71 159.68 174.44 155.13 172.45" fill="#ccccce"/><polygon points="161.07 173.96 161.07 175.11 161.91 174.63 161.91 173.39 161.07 173.96" fill="#6a4e39"/><polygon points="162.23 173.3 162.23 174.44 163.07 173.96 163.07 172.72 162.23 173.3" fill="#6a4e39"/><polygon points="164.09 172.03 164.09 173.18 164.93 172.7 164.93 171.46 164.09 172.03" fill="#6a4e39"/><polygon points="165.16 171.37 165.16 172.51 166 172.03 166 170.8 165.16 171.37" fill="#6a4e39"/><path d="M149.86,177.81a54.53,54.53,0,0,0,9.7-1.36h0a20.24,20.24,0,0,1-9.7,2.48Z" fill="#a57b5e"/><path d="M172.81,187.71c.1.15,0,4,0,4S167,196,164,197.81s-7.69,3.67-14.78,4.27v-3.47a38.87,38.87,0,0,1,6.74-6.84s-.45-1,.35-1.41,7.59-4.47,7.59-4.47l4.82-2.56,3.9,2.21a1.17,1.17,0,0,1,.51,1.45Z" fill="#fff"/><path d="M149.19,200s7.43-.39,11.71-2.78,12-7.32,12-7.32l0,1.78L165.35,197s-5.59,4.39-16.16,5.13Z" fill="#6a4e39"/><polygon points="155.92 191.78 155.92 194.92 160.89 197.26 172.85 189.94 173.09 187 161.72 194.32 155.92 191.78" fill="#ccccce"/><polygon points="163.51 193.71 163.51 195.17 164.58 194.55 164.58 192.98 163.51 193.71" fill="#6a4e39"/><polygon points="164.98 192.86 164.98 194.32 166.05 193.7 166.05 192.13 164.98 192.86" fill="#6a4e39"/><polygon points="167.35 191.25 167.35 192.71 168.43 192.09 168.43 190.52 167.35 191.25" fill="#6a4e39"/><polygon points="168.72 190.4 168.72 191.86 169.8 191.24 169.8 189.67 168.72 190.4" fill="#6a4e39"/><path d="M149.19,198.62s8.13-.44,12.38-1.74h0A25.85,25.85,0,0,1,149.19,200Z" fill="#a57b5e"/><path d="M245,220.34v8.31a.52.52,0,0,0,1,0v-8.31A.52.52,0,0,0,245,220.34Z" fill="#ffdaae"/><circle cx="245.49" cy="218.98" r="1.84" fill="#ffdaae"/><path d="M204.56,193.86v8.31a.52.52,0,0,0,1,0v-8.31A.52.52,0,0,0,204.56,193.86Z" fill="#ffdaae"/><circle cx="205.08" cy="192.5" r="1.84" fill="#ffdaae"/><path d="M255.28,214.6v8.31a.52.52,0,0,0,1,0V214.6A.52.52,0,0,0,255.28,214.6Z" fill="#ffdaae"/><circle cx="255.8" cy="213.25" r="1.84" fill="#ffdaae"/><path d="M267.23,207.95v8.31a.52.52,0,0,0,1,0v-8.31A.52.52,0,0,0,267.23,207.95Z" fill="#ffdaae"/><circle cx="267.75" cy="206.59" r="1.84" fill="#ffdaae"/><path d="M278,200.18v8.31a.52.52,0,0,0,1,0v-8.31A.52.52,0,0,0,278,200.18Z" fill="#ffdaae"/><circle cx="278.57" cy="198.82" r="1.84" fill="#ffdaae"/><path d="M288.08,194.18v8.31a.52.52,0,0,0,1,0v-8.31A.52.52,0,0,0,288.08,194.18Z" fill="#ffdaae"/><circle cx="288.6" cy="192.82" r="1.84" fill="#ffdaae"/><path d="M211.49,188.89v8.31a.52.52,0,0,0,1,0v-8.31A.52.52,0,0,0,211.49,188.89Z" fill="#ffdaae"/><circle cx="212.01" cy="187.54" r="1.84" fill="#ffdaae"/><path d="M358,193.89l.94,0c11.52-.7,25.41-4.78,33.76-13.15-.81-1.73-2.87-4.53-8.19-6.88,0,0-1.74,1.76-1.85,1.86a26.06,26.06,0,0,1-6.44,3.91c-9.56,4.22-20.08,3.83-30.26,3.09-7.82-.57-15.16-6.44-21.81-10.28l-14-8.09L300.4,170l32.26,19.39s9.33,4.87,24,4.56Z" fill="#53646c"/><polygon points="318.26 144.39 318.26 80.13 304.24 87.96 304.24 152.47 318.26 144.39" fill="#68e1fd"/><polygon points="318.26 144.39 318.26 80.13 304.24 87.96 304.24 152.47 318.26 144.39" fill="#1e4549" opacity="0.33"/><polygon points="304.24 87.96 290.01 80.13 290.01 144.11 304.24 152.47 304.24 87.96" fill="#68e1fd"/><polygon points="318.26 80.13 304.24 71.54 290.01 80.13 304.24 87.96 318.26 80.13" fill="#9d9ca1"/><polyline points="314.9 76.97 314.9 79.38 303.71 85.85 292.53 79.38 292.53 76.97" fill="#cc9825"/><polygon points="314.9 77 303.8 70.19 292.53 77 303.8 83.19 314.9 77" fill="#f9e1aa"/><polygon points="290.01 84.66 304.37 92.08 318.25 84.79 318.25 85.92 304.37 93.2 290.01 85.78 290.01 84.66" fill="#ccc"/><polygon points="290.01 89.32 304.37 96.74 318.25 89.45 318.25 90.57 304.37 97.86 290.01 90.44 290.01 89.32" fill="#ccc"/><polygon points="290.01 94.39 304.42 101.84 318.25 94.58 318.25 95.71 304.43 102.97 290.01 95.52 290.01 94.39" fill="#ccc"/><polygon points="290.01 98.99 304.54 106.5 318.25 99.3 318.25 100.42 304.54 107.62 290.01 100.11 290.01 98.99" fill="#ccc"/><polygon points="290.01 103.47 304.31 110.87 318.25 103.54 318.25 104.67 304.31 111.99 290.01 104.59 290.01 103.47" fill="#ccc"/><polygon points="290.01 108.07 304.42 115.52 318.25 108.26 318.25 109.38 304.43 116.64 290.01 109.19 290.01 108.07" fill="#ccc"/><polygon points="290.01 112.62 304.25 119.98 318.25 112.63 318.25 113.75 304.26 121.1 290.01 113.74 290.01 112.62" fill="#ccc"/><polygon points="290.01 117.37 304.37 124.79 318.25 117.5 318.25 118.62 304.37 125.91 290.01 118.49 290.01 117.37" fill="#ccc"/><polygon points="290.01 122.11 304.48 129.59 318.25 122.36 318.25 123.48 304.48 130.72 290.01 123.23 290.01 122.11" fill="#ccc"/><polygon points="290.01 126.71 304.59 134.25 318.25 127.08 318.25 128.2 304.6 135.37 290.01 127.83 290.01 126.71" fill="#ccc"/><polygon points="290.01 131.8 304.25 139.16 318.25 131.81 318.25 132.94 304.26 140.29 290.01 132.92 290.01 131.8" fill="#ccc"/><polygon points="290.01 136.4 304.37 143.82 318.25 136.53 318.25 137.65 304.37 144.94 290.01 137.52 290.01 136.4" fill="#ccc"/><polygon points="290.01 140.87 304.42 148.32 318.25 141.06 318.25 142.19 304.43 149.44 290.01 141.99 290.01 140.87" fill="#ccc"/><path d="M281.52,140.43c-6.55-4.19-25-16.4-25-16.4a48.06,48.06,0,0,0,6.62-5.24c6.78.43,14.19,1,15.1.27l20.19,10.79C292.63,133.09,287,136.68,281.52,140.43Z" opacity="0.68" fill="url(#linear-gradient-2)" style="mix-blend-mode:multiply"/><path d="M256.35,79.93v44.25a21.65,21.65,0,0,0,12.72,3.38c7.58-.34,11.5-4,11.5-4V79.93" fill="#68e1fd"/><ellipse cx="268.46" cy="79.64" rx="12.11" ry="5.44" fill="#1e4549"/><path d="M262.26,95.33a15.61,15.61,0,0,1-2.26-.8v3a13.41,13.41,0,0,0,2.26.79Z" fill="none"/><path d="M262.26,100.47a15.63,15.63,0,0,1-2.26-.8v2.92a13.37,13.37,0,0,0,2.26.79Z" fill="none"/><path d="M267.42,101.19a25.35,25.35,0,0,1-3-.28v2.88a27.34,27.34,0,0,0,3,.25Z" fill="none"/><path d="M262.26,90.31a15.62,15.62,0,0,1-2.26-.8v2.92a13.36,13.36,0,0,0,2.26.79Z" fill="none"/><path d="M262.26,105.49a15.62,15.62,0,0,1-2.26-.8v3a13.37,13.37,0,0,0,2.26.79Z" fill="none"/><path d="M274.67,98.32a12.83,12.83,0,0,0,2.31-.86V94.59a16,16,0,0,1-2.31.78Z" fill="none"/><path d="M277,92.34V89.57a16,16,0,0,1-2.31.78V93.2A12.88,12.88,0,0,0,277,92.34Z" fill="none"/><path d="M272.55,93.63V90.78a26.31,26.31,0,0,1-3,.27V93.9A25.92,25.92,0,0,0,272.55,93.63Z" fill="none"/><path d="M267.42,93.9V91a25.34,25.34,0,0,1-3-.28v2.88A27.34,27.34,0,0,0,267.42,93.9Z" fill="none"/><path d="M274.67,118.64a12.82,12.82,0,0,0,2.31-.86v-2.87a16,16,0,0,1-2.31.78Z" fill="none"/><path d="M269.53,104a25.91,25.91,0,0,0,3-.27v-2.86a26.3,26.3,0,0,1-3,.27Z" fill="none"/><path d="M269.53,121.51v2.85a25.9,25.9,0,0,0,3-.27v-2.86A26.28,26.28,0,0,1,269.53,121.51Z" fill="none"/><path d="M274.67,123.66a12.85,12.85,0,0,0,2.31-.86V120a15.93,15.93,0,0,1-2.31.78Z" fill="none"/><path d="M269.53,109.19a25.91,25.91,0,0,0,3-.27v-3a26.33,26.33,0,0,1-3,.27Z" fill="none"/><path d="M262.26,115.64a15.6,15.6,0,0,1-2.26-.8v3.05a13.42,13.42,0,0,0,2.26.79Z" fill="none"/><path d="M264.37,121.23v2.88a27.36,27.36,0,0,0,3,.25v-2.86A25.37,25.37,0,0,1,264.37,121.23Z" fill="none"/><path d="M267.42,96.06a25.31,25.31,0,0,1-3-.28v3a27.38,27.38,0,0,0,3,.25Z" fill="none"/><path d="M262.26,110.62a15.62,15.62,0,0,1-2.26-.8v2.92a13.34,13.34,0,0,0,2.26.79Z" fill="none"/><path d="M260,120v2.92a13.39,13.39,0,0,0,2.26.79v-2.91A15.63,15.63,0,0,1,260,120Z" fill="none"/><path d="M264.37,116.09v3a27.4,27.4,0,0,0,3,.25v-3A25.29,25.29,0,0,1,264.37,116.09Z" fill="none"/><path d="M274.67,108.48a12.87,12.87,0,0,0,2.31-.86v-2.88a16,16,0,0,1-2.31.78Z" fill="none"/><path d="M267.42,106.21a25.32,25.32,0,0,1-3-.28v3a27.34,27.34,0,0,0,3,.25Z" fill="none"/><path d="M274.67,113.51a12.89,12.89,0,0,0,2.31-.85v-2.77a16,16,0,0,1-2.31.78Z" fill="none"/><path d="M267.42,111.35a25.32,25.32,0,0,1-3-.28V114a27.31,27.31,0,0,0,3,.26Z" fill="none"/><path d="M269.53,114.21a26,26,0,0,0,3-.26v-2.86a26.33,26.33,0,0,1-3,.27Z" fill="none"/><path d="M269.53,119.34a25.86,25.86,0,0,0,3-.27v-3a26.37,26.37,0,0,1-3,.27Z" fill="none"/><path d="M272.55,98.76v-3a26.35,26.35,0,0,1-3,.27v3A25.87,25.87,0,0,0,272.55,98.76Z" fill="none"/><path d="M274.67,103.34a12.87,12.87,0,0,0,2.31-.86V99.72a15.94,15.94,0,0,1-2.31.78Z" fill="none"/><path d="M280.57,87V83.45a4.71,4.71,0,0,1-1.48,2.42V88.4A6.21,6.21,0,0,0,280.57,87Z" fill="#53646c"/><path d="M272.55,90.78V88.61a25.9,25.9,0,0,1-3,.27V91A26.31,26.31,0,0,0,272.55,90.78Z" fill="#53646c"/><path d="M262.26,90.31V88.21a13.39,13.39,0,0,1-2.26-.79v2.1A15.62,15.62,0,0,0,262.26,90.31Z" fill="#53646c"/><path d="M277,89.57V87.31a12.85,12.85,0,0,1-2.31.86v2.18A16,16,0,0,0,277,89.57Z" fill="#53646c"/><path d="M267.42,91V88.88a27.36,27.36,0,0,1-3-.25v2.14A25.34,25.34,0,0,0,267.42,91Z" fill="#53646c"/><path d="M256.35,83.74v3.12a6.46,6.46,0,0,0,1.52,1.46V86.07A4.41,4.41,0,0,1,256.35,83.74Z" fill="#53646c"/><path d="M262.26,93.23a13.36,13.36,0,0,1-2.26-.79v2.1a15.61,15.61,0,0,0,2.26.8Z" fill="#53646c"/><path d="M267.42,96.06V93.9a27.34,27.34,0,0,1-3-.25v2.14A25.31,25.31,0,0,0,267.42,96.06Z" fill="#53646c"/><path d="M272.55,95.8V93.63a25.92,25.92,0,0,1-3,.27v2.17A26.35,26.35,0,0,0,272.55,95.8Z" fill="#53646c"/><path d="M274.67,95.37a16,16,0,0,0,2.31-.78V92.34a12.88,12.88,0,0,1-2.31.85Z" fill="#53646c"/><path d="M280.58,92V88.47a4.72,4.72,0,0,1-1.5,2.44v2.53A6.24,6.24,0,0,0,280.58,92Z" fill="#53646c"/><path d="M256.37,88.76v3.12a6.43,6.43,0,0,0,1.51,1.45V91.08A4.41,4.41,0,0,1,256.37,88.76Z" fill="#53646c"/><path d="M280.56,97.18V93.6A4.71,4.71,0,0,1,279.09,96v2.53A6.2,6.2,0,0,0,280.56,97.18Z" fill="#53646c"/><path d="M262.26,98.36a13.41,13.41,0,0,1-2.26-.79v2.1a15.63,15.63,0,0,0,2.26.8Z" fill="#53646c"/><path d="M274.67,100.5a15.94,15.94,0,0,0,2.31-.78V97.46a12.83,12.83,0,0,1-2.31.86Z" fill="#53646c"/><path d="M269.53,101.19a26.3,26.3,0,0,0,3-.27V98.76a25.87,25.87,0,0,1-3,.27Z" fill="#53646c"/><path d="M256.35,93.89V97a6.47,6.47,0,0,0,1.53,1.46V96.23A4.42,4.42,0,0,1,256.35,93.89Z" fill="#53646c"/><path d="M267.42,99a27.38,27.38,0,0,1-3-.25v2.14a25.35,25.35,0,0,0,3,.28Z" fill="#53646c"/><path d="M269.53,106.22a26.33,26.33,0,0,0,3-.27v-2.17a25.91,25.91,0,0,1-3,.27Z" fill="#53646c"/><path d="M267.42,104a27.34,27.34,0,0,1-3-.25v2.14a25.32,25.32,0,0,0,3,.28Z" fill="#53646c"/><path d="M280.58,102.2V98.62a4.72,4.72,0,0,1-1.49,2.43v2.53A6.22,6.22,0,0,0,280.58,102.2Z" fill="#53646c"/><path d="M274.67,105.52a16,16,0,0,0,2.31-.78v-2.25a12.87,12.87,0,0,1-2.31.86Z" fill="#53646c"/><path d="M262.26,103.38a13.37,13.37,0,0,1-2.26-.79v2.1a15.62,15.62,0,0,0,2.26.8Z" fill="#53646c"/><path d="M256.36,98.92V102a6.44,6.44,0,0,0,1.52,1.45v-2.25A4.41,4.41,0,0,1,256.36,98.92Z" fill="#53646c"/><path d="M269.53,109.19v2.17a26.33,26.33,0,0,0,3-.27v-2.17A25.91,25.91,0,0,1,269.53,109.19Z" fill="#53646c"/><path d="M262.26,108.52a13.37,13.37,0,0,1-2.26-.79v2.1a15.62,15.62,0,0,0,2.26.8Z" fill="#53646c"/><path d="M274.67,110.66a16,16,0,0,0,2.31-.78v-2.25a12.87,12.87,0,0,1-2.31.86Z" fill="#53646c"/><path d="M267.42,109.19a27.34,27.34,0,0,1-3-.25v2.14a25.32,25.32,0,0,0,3,.28Z" fill="#53646c"/><path d="M280.58,107.34v-3.58a4.72,4.72,0,0,1-1.49,2.43v2.53A6.22,6.22,0,0,0,280.58,107.34Z" fill="#53646c"/><path d="M256.36,104.05v3.12a6.44,6.44,0,0,0,1.52,1.45v-2.25A4.41,4.41,0,0,1,256.36,104.05Z" fill="#53646c"/><path d="M280.59,112.36v-3.58a4.72,4.72,0,0,1-1.5,2.44v2.53A6.25,6.25,0,0,0,280.59,112.36Z" fill="#53646c"/><path d="M267.42,114.21a27.31,27.31,0,0,1-3-.26v2.14a25.29,25.29,0,0,0,3,.28Z" fill="#53646c"/><path d="M269.53,116.37a26.37,26.37,0,0,0,3-.27v-2.17a26,26,0,0,1-3,.26Z" fill="#53646c"/><path d="M256.37,109.07v3.12a6.42,6.42,0,0,0,1.51,1.44v-2.25A4.41,4.41,0,0,1,256.37,109.07Z" fill="#53646c"/><path d="M274.67,113.51v2.18a16,16,0,0,0,2.31-.78v-2.25A12.89,12.89,0,0,1,274.67,113.51Z" fill="#53646c"/><path d="M262.26,113.54a13.34,13.34,0,0,1-2.26-.79v2.1a15.6,15.6,0,0,0,2.26.8Z" fill="#53646c"/><path d="M280.56,117.5v-3.58a4.71,4.71,0,0,1-1.47,2.41v2.54A6.18,6.18,0,0,0,280.56,117.5Z" fill="#53646c"/><path d="M256.34,114.21v3.12a6.48,6.48,0,0,0,1.54,1.46v-2.24A4.43,4.43,0,0,1,256.34,114.21Z" fill="#53646c"/><path d="M269.53,119.34v2.17a26.28,26.28,0,0,0,3-.27v-2.17A25.86,25.86,0,0,1,269.53,119.34Z" fill="#53646c"/><path d="M262.26,118.68a13.42,13.42,0,0,1-2.26-.79V120a15.63,15.63,0,0,0,2.26.79Z" fill="#53646c"/><path d="M274.67,120.82A15.93,15.93,0,0,0,277,120v-2.25a12.82,12.82,0,0,1-2.31.86Z" fill="#53646c"/><path d="M264.37,119.09v2.14a25.37,25.37,0,0,0,3,.28v-2.16A27.4,27.4,0,0,1,264.37,119.09Z" fill="#53646c"/><path d="M269.53,124.36v2.17a26.31,26.31,0,0,0,3-.27V124.1A25.9,25.9,0,0,1,269.53,124.36Z" fill="#53646c"/><path d="M280.57,122.52v-3.58a4.71,4.71,0,0,1-1.48,2.42v2.53A6.21,6.21,0,0,0,280.57,122.52Z" fill="#53646c"/><path d="M256.35,119.23v3.12a6.46,6.46,0,0,0,1.52,1.46v-2.25A4.41,4.41,0,0,1,256.35,119.23Z" fill="#53646c"/><path d="M274.67,123.66v2.18a15.94,15.94,0,0,0,2.31-.78V122.8A12.85,12.85,0,0,1,274.67,123.66Z" fill="#53646c"/><path d="M264.37,124.11v2.14a25.34,25.34,0,0,0,3,.28v-2.16A27.36,27.36,0,0,1,264.37,124.11Z" fill="#53646c"/><path d="M260,122.91V125a15.62,15.62,0,0,0,2.26.8V123.7A13.39,13.39,0,0,1,260,122.91Z" fill="#53646c"/><path d="M256.36,39.79V84a21.65,21.65,0,0,0,12.72,3.38c7.58-.34,11.5-4,11.5-4V39.79" fill="#68e1fd"/><path d="M261,38.33v2.11a.36.36,0,0,0,.72,0V38.33A.36.36,0,0,0,261,38.33Z" fill="#d89e60"/><path d="M262.69,39.28v2.11a.36.36,0,0,0,.72,0V39.28A.36.36,0,0,0,262.69,39.28Z" fill="#d89e60"/><path d="M265.05,39.75v2a.36.36,0,0,0,.72,0v-2A.36.36,0,0,0,265.05,39.75Z" fill="#d89e60"/><path d="M267.76,40V42.2a.36.36,0,0,0,.72,0V40A.36.36,0,0,0,267.76,40Z" fill="#d89e60"/><path d="M270.3,40.05V41.9a.36.36,0,0,0,.72,0V40.05A.36.36,0,0,0,270.3,40.05Z" fill="#d89e60"/><path d="M272.49,39.58v1.81a.36.36,0,0,0,.72,0V39.58A.36.36,0,0,0,272.49,39.58Z" fill="#d89e60"/><path d="M274.81,38.68v1.81a.36.36,0,0,0,.72,0V38.68A.36.36,0,0,0,274.81,38.68Z" fill="#d89e60"/><ellipse cx="268.46" cy="39.49" rx="12.11" ry="5.44" fill="#1e4549"/><path d="M262.26,55.19a15.61,15.61,0,0,1-2.26-.8v3a13.41,13.41,0,0,0,2.26.79Z" fill="none"/><path d="M262.26,60.32a15.63,15.63,0,0,1-2.26-.8v2.92a13.37,13.37,0,0,0,2.26.79Z" fill="none"/><path d="M267.42,61a25.35,25.35,0,0,1-3-.28v2.88a27.34,27.34,0,0,0,3,.25Z" fill="none"/><path d="M262.26,50.17a15.62,15.62,0,0,1-2.26-.8v2.92a13.36,13.36,0,0,0,2.26.79Z" fill="none"/><path d="M262.26,65.34a15.62,15.62,0,0,1-2.26-.8v3a13.37,13.37,0,0,0,2.26.79Z" fill="none"/><path d="M274.67,58.17a12.83,12.83,0,0,0,2.31-.86V54.45a16,16,0,0,1-2.31.78Z" fill="none"/><path d="M277,52.19V49.42a16,16,0,0,1-2.31.78V53A12.88,12.88,0,0,0,277,52.19Z" fill="none"/><path d="M272.56,53.48V50.63a26.31,26.31,0,0,1-3,.27v2.85A25.92,25.92,0,0,0,272.56,53.48Z" fill="none"/><path d="M267.42,53.75V50.9a25.34,25.34,0,0,1-3-.28V53.5A27.34,27.34,0,0,0,267.42,53.75Z" fill="none"/><path d="M274.67,78.49a12.82,12.82,0,0,0,2.31-.86V74.76a16,16,0,0,1-2.31.78Z" fill="none"/><path d="M269.53,63.9a25.91,25.91,0,0,0,3-.27V60.78a26.3,26.3,0,0,1-3,.27Z" fill="none"/><path d="M269.53,81.37v2.85a25.9,25.9,0,0,0,3-.27V81.1A26.28,26.28,0,0,1,269.53,81.37Z" fill="none"/><path d="M274.67,83.51a12.85,12.85,0,0,0,2.31-.86V79.89a15.93,15.93,0,0,1-2.31.78Z" fill="none"/><path d="M269.53,69a25.91,25.91,0,0,0,3-.27v-3a26.33,26.33,0,0,1-3,.27Z" fill="none"/><path d="M262.26,75.49a15.6,15.6,0,0,1-2.26-.8v3.05a13.42,13.42,0,0,0,2.26.79Z" fill="none"/><path d="M264.37,81.08V84a27.36,27.36,0,0,0,3,.25V81.36A25.37,25.37,0,0,1,264.37,81.08Z" fill="none"/><path d="M267.42,55.92a25.31,25.31,0,0,1-3-.28v3a27.38,27.38,0,0,0,3,.25Z" fill="none"/><path d="M262.26,70.48a15.62,15.62,0,0,1-2.26-.8v2.92a13.34,13.34,0,0,0,2.26.79Z" fill="none"/><path d="M260,79.85v2.92a13.39,13.39,0,0,0,2.26.79V80.64A15.63,15.63,0,0,1,260,79.85Z" fill="none"/><path d="M264.37,75.94v3a27.4,27.4,0,0,0,3,.25v-3A25.29,25.29,0,0,1,264.37,75.94Z" fill="none"/><path d="M274.67,68.34a12.87,12.87,0,0,0,2.31-.86V64.6a16,16,0,0,1-2.31.78Z" fill="none"/><path d="M267.42,66.07a25.32,25.32,0,0,1-3-.28v3a27.34,27.34,0,0,0,3,.25Z" fill="none"/><path d="M274.67,73.36a12.89,12.89,0,0,0,2.31-.85V69.73a16,16,0,0,1-2.31.78Z" fill="none"/><path d="M267.42,71.21a25.32,25.32,0,0,1-3-.28v2.88a27.31,27.31,0,0,0,3,.26Z" fill="none"/><path d="M269.53,74.06a26,26,0,0,0,3-.26V70.94a26.33,26.33,0,0,1-3,.27Z" fill="none"/><path d="M269.53,79.2a25.86,25.86,0,0,0,3-.27V76a26.37,26.37,0,0,1-3,.27Z" fill="none"/><path d="M272.56,58.61v-3a26.35,26.35,0,0,1-3,.27v3A25.87,25.87,0,0,0,272.56,58.61Z" fill="none"/><path d="M274.67,63.2a12.87,12.87,0,0,0,2.31-.86V59.57a15.94,15.94,0,0,1-2.31.78Z" fill="none"/><path d="M280.57,46.88V43.3a4.71,4.71,0,0,1-1.48,2.42v2.53A6.21,6.21,0,0,0,280.57,46.88Z" fill="#53646c"/><path d="M272.56,50.63V48.46a25.9,25.9,0,0,1-3,.27V50.9A26.31,26.31,0,0,0,272.56,50.63Z" fill="#53646c"/><path d="M262.26,50.17V48.06a13.39,13.39,0,0,1-2.26-.79v2.1A15.62,15.62,0,0,0,262.26,50.17Z" fill="#53646c"/><path d="M277,49.42V47.17a12.85,12.85,0,0,1-2.31.86V50.2A16,16,0,0,0,277,49.42Z" fill="#53646c"/><path d="M267.42,50.9V48.73a27.36,27.36,0,0,1-3-.25v2.14A25.34,25.34,0,0,0,267.42,50.9Z" fill="#53646c"/><path d="M256.36,43.6v3.12a6.46,6.46,0,0,0,1.52,1.46V45.93A4.41,4.41,0,0,1,256.36,43.6Z" fill="#53646c"/><path d="M262.26,53.08a13.36,13.36,0,0,1-2.26-.79v2.1a15.61,15.61,0,0,0,2.26.8Z" fill="#53646c"/><path d="M267.42,55.92V53.75a27.34,27.34,0,0,1-3-.25v2.14A25.31,25.31,0,0,0,267.42,55.92Z" fill="#53646c"/><path d="M272.56,55.65V53.48a25.92,25.92,0,0,1-3,.27v2.17A26.35,26.35,0,0,0,272.56,55.65Z" fill="#53646c"/><path d="M274.67,55.23a16,16,0,0,0,2.31-.78V52.19a12.88,12.88,0,0,1-2.31.85Z" fill="#53646c"/><path d="M280.59,51.9V48.32a4.72,4.72,0,0,1-1.5,2.44v2.53A6.24,6.24,0,0,0,280.59,51.9Z" fill="#53646c"/><path d="M256.37,48.62v3.12a6.43,6.43,0,0,0,1.51,1.45V50.94A4.41,4.41,0,0,1,256.37,48.62Z" fill="#53646c"/><path d="M280.57,57V53.45a4.71,4.71,0,0,1-1.48,2.42v2.53A6.2,6.2,0,0,0,280.57,57Z" fill="#53646c"/><path d="M262.26,58.22a13.41,13.41,0,0,1-2.26-.79v2.1a15.63,15.63,0,0,0,2.26.8Z" fill="#53646c"/><path d="M274.67,60.35a15.94,15.94,0,0,0,2.31-.78V57.32a12.83,12.83,0,0,1-2.31.86Z" fill="#53646c"/><path d="M269.53,61a26.3,26.3,0,0,0,3-.27V58.61a25.87,25.87,0,0,1-3,.27Z" fill="#53646c"/><path d="M256.35,53.75v3.12a6.47,6.47,0,0,0,1.53,1.46V56.09A4.42,4.42,0,0,1,256.35,53.75Z" fill="#53646c"/><path d="M267.42,58.88a27.38,27.38,0,0,1-3-.25v2.14a25.35,25.35,0,0,0,3,.28Z" fill="#53646c"/><path d="M269.53,66.07a26.33,26.33,0,0,0,3-.27V63.64a25.91,25.91,0,0,1-3,.27Z" fill="#53646c"/><path d="M267.42,63.9a27.34,27.34,0,0,1-3-.25v2.14a25.32,25.32,0,0,0,3,.28Z" fill="#53646c"/><path d="M280.58,62.05V58.47a4.72,4.72,0,0,1-1.49,2.43v2.53A6.22,6.22,0,0,0,280.58,62.05Z" fill="#53646c"/><path d="M274.67,65.38A16,16,0,0,0,277,64.6V62.34a12.87,12.87,0,0,1-2.31.86Z" fill="#53646c"/><path d="M262.26,63.23a13.37,13.37,0,0,1-2.26-.79v2.1a15.62,15.62,0,0,0,2.26.8Z" fill="#53646c"/><path d="M256.36,58.77v3.12a6.44,6.44,0,0,0,1.52,1.45V61.09A4.41,4.41,0,0,1,256.36,58.77Z" fill="#53646c"/><path d="M269.53,69v2.17a26.33,26.33,0,0,0,3-.27V68.77A25.91,25.91,0,0,1,269.53,69Z" fill="#53646c"/><path d="M262.26,68.37a13.37,13.37,0,0,1-2.26-.79v2.1a15.62,15.62,0,0,0,2.26.8Z" fill="#53646c"/><path d="M274.67,70.52a16,16,0,0,0,2.31-.78V67.48a12.87,12.87,0,0,1-2.31.86Z" fill="#53646c"/><path d="M267.42,69a27.34,27.34,0,0,1-3-.25v2.14a25.32,25.32,0,0,0,3,.28Z" fill="#53646c"/><path d="M280.58,67.19V63.61A4.72,4.72,0,0,1,279.09,66v2.53A6.22,6.22,0,0,0,280.58,67.19Z" fill="#53646c"/><path d="M256.36,63.91V67a6.44,6.44,0,0,0,1.52,1.45V66.23A4.41,4.41,0,0,1,256.36,63.91Z" fill="#53646c"/><path d="M280.59,72.21V68.63a4.72,4.72,0,0,1-1.5,2.44V73.6A6.25,6.25,0,0,0,280.59,72.21Z" fill="#53646c"/><path d="M267.42,74.06a27.31,27.31,0,0,1-3-.26v2.14a25.29,25.29,0,0,0,3,.28Z" fill="#53646c"/><path d="M269.53,76.23a26.37,26.37,0,0,0,3-.27V73.8a26,26,0,0,1-3,.26Z" fill="#53646c"/><path d="M256.38,68.93V72a6.42,6.42,0,0,0,1.51,1.44V71.24A4.41,4.41,0,0,1,256.38,68.93Z" fill="#53646c"/><path d="M274.67,73.36v2.18a16,16,0,0,0,2.31-.78V72.51A12.89,12.89,0,0,1,274.67,73.36Z" fill="#53646c"/><path d="M262.26,73.39a13.34,13.34,0,0,1-2.26-.79v2.1a15.6,15.6,0,0,0,2.26.8Z" fill="#53646c"/><path d="M280.56,77.35V73.77a4.71,4.71,0,0,1-1.47,2.41v2.54A6.18,6.18,0,0,0,280.56,77.35Z" fill="#53646c"/><path d="M256.34,74.07v3.12a6.48,6.48,0,0,0,1.54,1.46V76.41A4.43,4.43,0,0,1,256.34,74.07Z" fill="#53646c"/><path d="M269.53,79.2v2.17a26.28,26.28,0,0,0,3-.27V78.93A25.86,25.86,0,0,1,269.53,79.2Z" fill="#53646c"/><path d="M262.26,78.54a13.42,13.42,0,0,1-2.26-.79v2.1a15.63,15.63,0,0,0,2.26.79Z" fill="#53646c"/><path d="M274.67,80.67a15.93,15.93,0,0,0,2.31-.78V77.63a12.82,12.82,0,0,1-2.31.86Z" fill="#53646c"/><path d="M264.37,78.95v2.14a25.37,25.37,0,0,0,3,.28V79.2A27.4,27.4,0,0,1,264.37,78.95Z" fill="#53646c"/><path d="M269.53,84.22v2.17a26.31,26.31,0,0,0,3-.27V84A25.9,25.9,0,0,1,269.53,84.22Z" fill="#53646c"/><path d="M280.57,82.37V78.79a4.71,4.71,0,0,1-1.48,2.42v2.53A6.21,6.21,0,0,0,280.57,82.37Z" fill="#53646c"/><path d="M256.36,79.09v3.12a6.46,6.46,0,0,0,1.52,1.46V81.42A4.41,4.41,0,0,1,256.36,79.09Z" fill="#53646c"/><path d="M274.67,83.51v2.18a15.94,15.94,0,0,0,2.31-.78V82.66A12.85,12.85,0,0,1,274.67,83.51Z" fill="#53646c"/><path d="M264.37,84V86.1a25.34,25.34,0,0,0,3,.28V84.22A27.36,27.36,0,0,1,264.37,84Z" fill="#53646c"/><path d="M260,82.76v2.1a15.62,15.62,0,0,0,2.26.8V83.55A13.39,13.39,0,0,1,260,82.76Z" fill="#53646c"/><ellipse cx="268.46" cy="39.4" rx="8.15" ry="3.66" fill="#f9e1aa"/><polyline points="260.31 39.07 260.31 35.55 276.62 35.55 276.62 39.41" fill="#f9e1aa"/><ellipse cx="268.46" cy="35.55" rx="8.15" ry="3.66" fill="#d89e60"/><path d="M263.53,35.09l4.72-7.2,5.14,7.2s-.64,2.32-5.53,2.17C263.83,37.14,263.53,35.09,263.53,35.09Z" fill="#f9e1aa"/><path d="M320.85,165.75l1.95-1.84,9,4.27c-.93.47-2.28,1.29-3.58,2.05A66,66,0,0,1,320.85,165.75Z" opacity="0.68" fill="url(#linear-gradient-3)" style="mix-blend-mode:multiply"/><rect x="320.75" y="150.19" width="2.34" height="15.52" rx="1.13" ry="1.13" transform="translate(643.84 315.91) rotate(-180)" fill="#bc532a"/><path d="M316.14,153.37c.54-2.34,2.94-12.66,7.19-9.63,2.18,1.55,2.79,4,3.66,6.36a18.94,18.94,0,0,1,1.35,6.15c.07,4.29-4.3,4.82-7.64,4.8-1.93,0-4.68-1.15-5.13-3.24a10,10,0,0,1,.46-4Z" fill="#2c9135"/><path d="M315.93,153.82l.1-.46c.48-2.07,2.41-10.38,5.79-10.18-1,4.38-2.48,9-1.69,13.49a10.25,10.25,0,0,0,1.79,4.34c-.45,0-.89,0-1.32,0-1.93,0-4.68-1.15-5.13-3.24A10,10,0,0,1,315.93,153.82Z" fill="#156819"/><path d="M298.89,181.29l1.95-1.84,9,4.27c-.93.47-2.28,1.29-3.58,2.05A66,66,0,0,1,298.89,181.29Z" opacity="0.68" fill="url(#linear-gradient-4)" style="mix-blend-mode:multiply"/><rect x="298.78" y="165.74" width="2.34" height="15.52" rx="1.13" ry="1.13" transform="translate(599.91 346.99) rotate(180)" fill="#bc532a"/><path d="M294.17,168.91c.54-2.34,2.94-12.66,7.19-9.63,2.18,1.55,2.79,4,3.66,6.36a18.94,18.94,0,0,1,1.35,6.15c.07,4.29-4.3,4.82-7.64,4.8-1.93,0-4.68-1.15-5.13-3.24a10,10,0,0,1,.46-4Z" fill="#2c9135"/><path d="M294,169.37l.1-.46c.48-2.07,2.41-10.38,5.79-10.18-1,4.38-2.48,9-1.69,13.49a10.25,10.25,0,0,0,1.79,4.34c-.45,0-.89,0-1.32,0-1.93,0-4.68-1.15-5.13-3.24A10,10,0,0,1,294,169.37Z" fill="#156819"/><path d="M235,148.81l1.95-1.84,9,4.27c-.93.47-2.28,1.29-3.58,2.05A66,66,0,0,1,235,148.81Z" opacity="0.68" fill="url(#linear-gradient-5)" style="mix-blend-mode:multiply"/><rect x="234.85" y="133.25" width="2.34" height="15.52" rx="1.13" ry="1.13" transform="translate(472.05 282.03) rotate(180)" fill="#bc532a"/><path d="M230.24,136.43c.54-2.34,2.94-12.66,7.19-9.63,2.18,1.55,2.79,4,3.66,6.36a18.94,18.94,0,0,1,1.35,6.15c.07,4.29-4.3,4.82-7.64,4.8-1.93,0-4.68-1.15-5.13-3.24a10,10,0,0,1,.46-4Z" fill="#2c9135"/><path d="M230,136.88l.1-.46c.48-2.07,2.41-10.38,5.79-10.18-1,4.38-2.48,9-1.69,13.49a10.25,10.25,0,0,0,1.79,4.34c-.45,0-.89,0-1.32,0-1.93,0-4.68-1.15-5.13-3.24A10,10,0,0,1,230,136.88Z" fill="#156819"/><path d="M110.92,127l1.95-1.84,9,4.27c-.93.47-2.28,1.29-3.58,2.05A66,66,0,0,1,110.92,127Z" opacity="0.68" fill="url(#linear-gradient-6)" style="mix-blend-mode:multiply"/><rect x="110.81" y="111.41" width="2.34" height="15.52" rx="1.13" ry="1.13" transform="translate(223.96 238.35) rotate(-180)" fill="#bc532a"/><path d="M106.2,114.59c.54-2.34,2.94-12.66,7.19-9.63,2.18,1.55,2.79,4,3.66,6.36a18.94,18.94,0,0,1,1.35,6.15c.07,4.29-4.3,4.82-7.64,4.8-1.93,0-4.68-1.15-5.13-3.24a10,10,0,0,1,.46-4Z" fill="#2c9135"/><path d="M106,115l.1-.46c.48-2.07,2.41-10.38,5.79-10.18-1,4.38-2.48,9-1.69,13.49a10.25,10.25,0,0,0,1.79,4.34c-.45,0-.89,0-1.32,0-1.93,0-4.68-1.15-5.13-3.24A10,10,0,0,1,106,115Z" fill="#156819"/><path d="M131.28,140.8l1.95-1.84,9,4.27c-.93.47-2.28,1.29-3.58,2.05A66,66,0,0,1,131.28,140.8Z" opacity="0.68" fill="url(#linear-gradient-7)" style="mix-blend-mode:multiply"/><rect x="131.18" y="125.25" width="2.34" height="15.52" rx="1.13" ry="1.13" transform="translate(264.7 266.02) rotate(-180)" fill="#bc532a"/><path d="M126.57,128.43c.54-2.34,2.94-12.66,7.19-9.63,2.18,1.55,2.79,4,3.66,6.36a18.94,18.94,0,0,1,1.35,6.15c.07,4.29-4.3,4.82-7.64,4.8-1.93,0-4.68-1.15-5.13-3.24a10,10,0,0,1,.46-4Z" fill="#2c9135"/><path d="M126.36,128.88l.1-.46c.48-2.07,2.41-10.38,5.79-10.18-1,4.38-2.48,9-1.69,13.49a10.25,10.25,0,0,0,1.79,4.34c-.45,0-.89,0-1.32,0-1.93,0-4.68-1.15-5.13-3.24A10,10,0,0,1,126.36,128.88Z" fill="#156819"/><path d="M156.37,154.33l1.95-1.84,9,4.27c-.93.47-2.28,1.29-3.58,2.05A66,66,0,0,1,156.37,154.33Z" opacity="0.68" fill="url(#linear-gradient-8)" style="mix-blend-mode:multiply"/><rect x="156.26" y="138.77" width="2.34" height="15.52" rx="1.13" ry="1.13" transform="translate(314.87 293.07) rotate(180)" fill="#bc532a"/><path d="M151.65,142c.54-2.34,2.94-12.66,7.19-9.63,2.18,1.55,2.79,4,3.66,6.36a18.94,18.94,0,0,1,1.35,6.15c.07,4.29-4.3,4.82-7.64,4.8-1.93,0-4.68-1.15-5.13-3.24a10,10,0,0,1,.46-4Z" fill="#2c9135"/><path d="M151.45,142.41l.1-.46c.48-2.07,2.41-10.38,5.79-10.18-1,4.38-2.48,9-1.69,13.49a10.25,10.25,0,0,0,1.79,4.34c-.45,0-.89,0-1.32,0-1.93,0-4.68-1.15-5.13-3.24A10,10,0,0,1,151.45,142.41Z" fill="#156819"/><path d="M274.81,136.43l2.21-2.08,10.26,4.85c-1.05.54-2.58,1.46-4.06,2.33A74.85,74.85,0,0,1,274.81,136.43Z" opacity="0.68" fill="url(#linear-gradient-9)" style="mix-blend-mode:multiply"/><rect x="276.36" y="115.35" width="0.84" height="20.21" transform="translate(553.57 250.9) rotate(-180)" fill="#404048"/><circle cx="276.85" cy="114.85" r="2.51" fill="#68e1fd"/><circle cx="277.98" cy="113.9" r="0.52" fill="#fff"/><path d="M274.95,113.23a2.48,2.48,0,0,0,1.27,3.11,2.34,2.34,0,0,0,3-.57,2.51,2.51,0,1,1-4.24-2.54Z" fill="#3e3e4a" opacity="0.4"/><path d="M275.77,130.4l-.91,5.5a4.9,4.9,0,0,0,2.24.41c1.71.06,1.61-.52,1.61-.52l-.9-5.39Z" fill="#3e3e4a"/><ellipse cx="276.78" cy="130.4" rx="1.02" ry="0.51" fill="#55555f"/><ellipse cx="276.79" cy="135.94" rx="1.93" ry="0.97" fill="#3e3e4a"/><path d="M234.45,113.4l2.21-2.08,10.26,4.85c-1.05.54-2.58,1.46-4.06,2.33A74.85,74.85,0,0,1,234.45,113.4Z" opacity="0.68" fill="url(#linear-gradient-10)" style="mix-blend-mode:multiply"/><rect x="236.01" y="92.32" width="0.84" height="20.21" transform="translate(472.86 204.84) rotate(-180)" fill="#404048"/><circle cx="236.5" cy="91.82" r="2.51" fill="#68e1fd"/><circle cx="237.63" cy="90.87" r="0.52" fill="#fff"/><path d="M234.6,90.19a2.48,2.48,0,0,0,1.27,3.11,2.34,2.34,0,0,0,3-.57,2.51,2.51,0,1,1-4.24-2.54Z" fill="#3e3e4a" opacity="0.4"/><path d="M235.41,107.37l-.91,5.5a4.9,4.9,0,0,0,2.24.41c1.71.06,1.61-.52,1.61-.52l-.9-5.39Z" fill="#3e3e4a"/><ellipse cx="236.43" cy="107.37" rx="1.02" ry="0.51" fill="#55555f"/><ellipse cx="236.43" cy="112.9" rx="1.93" ry="0.97" fill="#3e3e4a"/><path d="M134.49,109l2.21-2.08L147,111.79c-1.05.54-2.58,1.46-4.06,2.33A74.85,74.85,0,0,1,134.49,109Z" opacity="0.68" fill="url(#linear-gradient-11)" style="mix-blend-mode:multiply"/><rect x="136.05" y="87.95" width="0.84" height="20.21" transform="translate(272.94 196.11) rotate(-180)" fill="#404048"/><circle cx="136.53" cy="87.46" r="2.51" fill="#68e1fd"/><circle cx="137.67" cy="86.5" r="0.52" fill="#fff"/><path d="M134.63,85.83a2.48,2.48,0,0,0,1.27,3.11,2.34,2.34,0,0,0,3-.57,2.51,2.51,0,1,1-4.24-2.54Z" fill="#3e3e4a" opacity="0.4"/><path d="M135.45,103l-.91,5.5a4.9,4.9,0,0,0,2.24.41c1.71.06,1.61-.52,1.61-.52l-.9-5.39Z" fill="#3e3e4a"/><ellipse cx="136.47" cy="103" rx="1.02" ry="0.51" fill="#55555f"/><ellipse cx="136.47" cy="108.54" rx="1.93" ry="0.97" fill="#3e3e4a"/><path d="M248,149.45l2.21-2.08,10.26,4.85c-1.05.54-2.58,1.46-4.06,2.33A74.85,74.85,0,0,1,248,149.45Z" opacity="0.68" fill="url(#linear-gradient-12)" style="mix-blend-mode:multiply"/><rect x="249.58" y="128.37" width="0.84" height="20.21" transform="translate(500 276.94) rotate(-180)" fill="#404048"/><circle cx="250.07" cy="127.88" r="2.51" fill="#68e1fd"/><circle cx="251.2" cy="126.92" r="0.52" fill="#fff"/><path d="M248.16,126.25a2.48,2.48,0,0,0,1.27,3.11,2.34,2.34,0,0,0,3-.57,2.51,2.51,0,1,1-4.24-2.54Z" fill="#3e3e4a" opacity="0.4"/><path d="M249,143.42l-.91,5.5a4.9,4.9,0,0,0,2.24.41c1.71.06,1.61-.52,1.61-.52l-.9-5.39Z" fill="#3e3e4a"/><ellipse cx="250" cy="143.42" rx="1.02" ry="0.51" fill="#55555f"/><ellipse cx="250" cy="148.96" rx="1.93" ry="0.97" fill="#3e3e4a"/><path d="M223.51,164.51c-6.55-4.19-38.41-22.58-38.41-22.58,2.34-1.58,21.3,5.93,23.33,4,6.78.43,9.11-11.28,10-12l28.47,19.92C241.13,157.06,229,160.76,223.51,164.51Z" opacity="0.68" fill="url(#linear-gradient-13)" style="mix-blend-mode:multiply"/><path d="M186.76,142.74c-6.55-4.19-37.53-22.3-37.53-22.3,2.34-1.58,12.61-4.36,14.63-6.32,6.78.43,9.83-2.9,10.73-3.61l35.58,21.55C204.38,135.3,192.25,139,186.76,142.74Z" opacity="0.68" fill="url(#linear-gradient-14)" style="mix-blend-mode:multiply"/><polygon points="178.44 120.73 178.44 54.25 163.95 62.35 163.95 129.09 178.44 120.73" fill="#68e1fd"/><polygon points="178.44 120.73 178.44 54.25 163.95 62.35 163.95 129.09 178.44 120.73" fill="#1e4549" opacity="0.33"/><polygon points="163.95 62.35 149.23 54.25 149.23 120.44 163.95 129.09 163.95 62.35" fill="#68e1fd"/><polygon points="178.44 54.25 163.95 45.36 149.23 54.25 163.95 62.35 178.44 54.25" fill="#ccc"/><polygon points="149.23 54.25 163.95 62.35 178.44 54.25 178.44 56.21 163.95 64.19 149.23 56.08 149.23 54.25" fill="#1e4549"/><polygon points="150.98 62.82 150.98 59.71 152.82 60.72 152.82 63.71 150.98 62.82" fill="#1e4549"/><polygon points="155.58 65.3 155.58 62.19 157.42 63.21 157.42 66.19 155.58 65.3" fill="#1e4549"/><polygon points="160.35 68.23 160.35 65.13 162.2 66.14 162.2 69.12 160.35 68.23" fill="#1e4549"/><polygon points="150.98 73.95 150.98 70.84 152.82 71.86 152.82 74.84 150.98 73.95" fill="#1e4549"/><polygon points="155.58 76.43 155.58 73.33 157.42 74.34 157.42 77.32 155.58 76.43" fill="#1e4549"/><polygon points="160.35 79.36 160.35 76.26 162.2 77.27 162.2 80.25 160.35 79.36" fill="#1e4549"/><polygon points="150.98 86.69 150.98 83.58 152.82 84.59 152.82 87.58 150.98 86.69" fill="#1e4549"/><polygon points="155.58 89.17 155.58 86.06 157.42 87.08 157.42 90.06 155.58 89.17" fill="#1e4549"/><polygon points="160.35 92.1 160.35 89 162.2 90.01 162.2 92.99 160.35 92.1" fill="#1e4549"/><polygon points="150.98 99.3 150.98 96.19 152.82 97.2 152.82 100.19 150.98 99.3" fill="#1e4549"/><polygon points="155.58 101.78 155.58 98.67 157.42 99.69 157.42 102.67 155.58 101.78" fill="#1e4549"/><polygon points="160.35 104.71 160.35 101.61 162.2 102.62 162.2 105.6 160.35 104.71" fill="#1e4549"/><polygon points="150.98 111.91 150.98 108.8 152.82 109.81 152.82 112.8 150.98 111.91" fill="#1e4549"/><polygon points="155.58 114.39 155.58 111.28 157.42 112.3 157.42 115.28 155.58 114.39" fill="#1e4549"/><polygon points="160.35 117.32 160.35 114.22 162.2 115.23 162.2 118.21 160.35 117.32" fill="#1e4549"/><polygon points="177.6 62.85 177.6 59.74 175.75 60.76 175.75 63.74 177.6 62.85" fill="#1e4549"/><polygon points="173 65.33 173 62.23 171.15 63.24 171.15 66.22 173 65.33" fill="#1e4549"/><polygon points="168.22 68.27 168.22 65.16 166.38 66.17 166.38 69.16 168.22 68.27" fill="#1e4549"/><polygon points="177.6 73.98 177.6 70.88 175.75 71.89 175.75 74.87 177.6 73.98" fill="#1e4549"/><polygon points="173 76.47 173 73.36 171.15 74.37 171.15 77.36 173 76.47" fill="#1e4549"/><polygon points="168.22 79.4 168.22 76.29 166.38 77.31 166.38 80.29 168.22 79.4" fill="#1e4549"/><polygon points="177.6 86.72 177.6 83.61 175.75 84.63 175.75 87.61 177.6 86.72" fill="#1e4549"/><polygon points="173 89.2 173 86.1 171.15 87.11 171.15 90.09 173 89.2" fill="#1e4549"/><polygon points="168.22 92.13 168.22 89.03 166.38 90.04 166.38 93.03 168.22 92.13" fill="#1e4549"/><polygon points="177.6 99.33 177.6 96.22 175.75 97.24 175.75 100.22 177.6 99.33" fill="#1e4549"/><polygon points="173 101.81 173 98.71 171.15 99.72 171.15 102.7 173 101.81" fill="#1e4549"/><polygon points="168.22 104.74 168.22 101.64 166.38 102.65 166.38 105.64 168.22 104.74" fill="#1e4549"/><polygon points="177.6 111.94 177.6 108.83 175.75 109.85 175.75 112.83 177.6 111.94" fill="#1e4549"/><polygon points="173 114.42 173 111.32 171.15 112.33 171.15 115.31 173 114.42" fill="#1e4549"/><polygon points="168.22 117.35 168.22 114.25 166.38 115.26 166.38 118.24 168.22 117.35" fill="#1e4549"/><polygon points="177.77 68.31 177.77 65.2 175.93 66.22 175.93 69.2 177.77 68.31" fill="#1e4549"/><polygon points="173.17 70.79 173.17 67.69 171.33 68.7 171.33 71.68 173.17 70.79" fill="#1e4549"/><polygon points="168.4 73.72 168.4 70.62 166.55 71.63 166.55 74.61 168.4 73.72" fill="#1e4549"/><polygon points="177.53 80.53 177.53 77.42 175.68 78.43 175.68 81.42 177.53 80.53" fill="#1e4549"/><polygon points="172.93 83.01 172.93 79.9 171.08 80.92 171.08 83.9 172.93 83.01" fill="#1e4549"/><polygon points="168.15 85.94 168.15 82.84 166.31 83.85 166.31 86.83 168.15 85.94" fill="#1e4549"/><polygon points="177.53 93.25 177.53 90.14 175.68 91.16 175.68 94.14 177.53 93.25" fill="#1e4549"/><polygon points="172.93 95.73 172.93 92.63 171.08 93.64 171.08 96.62 172.93 95.73" fill="#1e4549"/><polygon points="168.15 98.67 168.15 95.56 166.31 96.57 166.31 99.56 168.15 98.67" fill="#1e4549"/><polygon points="177.53 106.15 177.53 103.04 175.68 104.05 175.68 107.04 177.53 106.15" fill="#1e4549"/><polygon points="172.93 108.63 172.93 105.52 171.08 106.54 171.08 109.52 172.93 108.63" fill="#1e4549"/><polygon points="168.15 111.56 168.15 108.46 166.31 109.47 166.31 112.45 168.15 111.56" fill="#1e4549"/><polygon points="177.69 117.6 177.69 114.5 175.84 115.51 175.84 118.49 177.69 117.6" fill="#1e4549"/><polygon points="173.09 120.08 173.09 116.98 171.24 117.99 171.24 120.98 173.09 120.08" fill="#1e4549"/><polygon points="168.31 123.02 168.31 119.91 166.47 120.92 166.47 123.91 168.31 123.02" fill="#1e4549"/><polygon points="150.89 68.08 150.89 64.98 152.74 65.99 152.74 68.97 150.89 68.08" fill="#1e4549"/><polygon points="155.49 70.57 155.49 67.46 157.34 68.47 157.34 71.46 155.49 70.57" fill="#1e4549"/><polygon points="160.26 73.5 160.26 70.39 162.11 71.41 162.11 74.39 160.26 73.5" fill="#1e4549"/><polygon points="150.8 80.53 150.8 77.42 152.65 78.43 152.65 81.42 150.8 80.53" fill="#1e4549"/><polygon points="155.4 83.01 155.4 79.9 157.25 80.92 157.25 83.9 155.4 83.01" fill="#1e4549"/><polygon points="160.18 85.94 160.18 82.84 162.02 83.85 162.02 86.83 160.18 85.94" fill="#1e4549"/><polygon points="150.8 93.03 150.8 89.92 152.65 90.93 152.65 93.92 150.8 93.03" fill="#1e4549"/><polygon points="155.4 95.51 155.4 92.4 157.25 93.42 157.25 96.4 155.4 95.51" fill="#1e4549"/><polygon points="160.18 98.44 160.18 95.34 162.02 96.35 162.02 99.33 160.18 98.44" fill="#1e4549"/><polygon points="150.89 105.72 150.89 102.62 152.74 103.63 152.74 106.61 150.89 105.72" fill="#1e4549"/><polygon points="155.49 108.2 155.49 105.1 157.34 106.11 157.34 109.09 155.49 108.2" fill="#1e4549"/><polygon points="160.26 111.14 160.26 108.03 162.11 109.05 162.11 112.03 160.26 111.14" fill="#1e4549"/><polygon points="150.8 117.6 150.8 114.5 152.65 115.51 152.65 118.49 150.8 117.6" fill="#1e4549"/><polygon points="155.4 120.08 155.4 116.98 157.25 117.99 157.25 120.98 155.4 120.08" fill="#1e4549"/><polygon points="160.18 123.02 160.18 119.91 162.02 120.92 162.02 123.91 160.18 123.02" fill="#1e4549"/><path d="M173.63,133.71l2.21-2.08,10.26,4.85c-1.05.54-2.58,1.46-4.06,2.33A74.85,74.85,0,0,1,173.63,133.71Z" opacity="0.68" fill="url(#linear-gradient-15)" style="mix-blend-mode:multiply"/><rect x="175.19" y="112.63" width="0.84" height="20.21" transform="translate(351.22 245.46) rotate(-180)" fill="#404048"/><circle cx="175.68" cy="112.14" r="2.51" fill="#68e1fd"/><circle cx="176.81" cy="111.18" r="0.52" fill="#fff"/><path d="M173.78,110.51a2.48,2.48,0,0,0,1.27,3.11,2.34,2.34,0,0,0,3-.57,2.51,2.51,0,1,1-4.24-2.54Z" fill="#3e3e4a" opacity="0.4"/><path d="M174.59,127.68l-.91,5.5a4.9,4.9,0,0,0,2.24.41c1.71.06,1.61-.52,1.61-.52l-.9-5.39Z" fill="#3e3e4a"/><ellipse cx="175.61" cy="127.68" rx="1.02" ry="0.51" fill="#55555f"/><ellipse cx="175.61" cy="133.22" rx="1.93" ry="0.97" fill="#3e3e4a"/><polygon points="224.53 142.31 224.53 52.6 204.97 63.53 204.97 153.59 224.53 142.31" fill="#68e1fd"/><polygon points="224.53 142.31 224.53 52.6 204.97 63.53 204.97 153.59 224.53 142.31" fill="#1e4549" opacity="0.33"/><polygon points="204.97 63.53 185.1 52.6 185.1 141.93 204.97 153.59 204.97 63.53" fill="#68e1fd"/><polygon points="224.53 52.6 204.97 40.6 185.1 52.6 204.97 63.53 224.53 52.6" fill="#ccc"/><polygon points="185.1 52.6 204.97 63.53 224.53 52.6 224.53 55.25 204.97 66.02 185.1 55.07 185.1 52.6" fill="#1e4549"/><polygon points="187.46 64.16 187.46 59.97 189.95 61.34 189.95 65.36 187.46 64.16" fill="#1e4549"/><polygon points="193.67 67.51 193.67 63.32 196.16 64.69 196.16 68.72 193.67 67.51" fill="#1e4549"/><polygon points="200.11 71.47 200.11 67.28 202.6 68.65 202.6 72.67 200.11 71.47" fill="#1e4549"/><polygon points="187.46 79.19 187.46 74.99 189.95 76.36 189.95 80.39 187.46 79.19" fill="#1e4549"/><polygon points="193.67 82.54 193.67 78.34 196.16 79.71 196.16 83.74 193.67 82.54" fill="#1e4549"/><polygon points="200.11 86.49 200.11 82.3 202.6 83.67 202.6 87.69 200.11 86.49" fill="#1e4549"/><polygon points="187.46 96.37 187.46 92.18 189.95 93.55 189.95 97.58 187.46 96.37" fill="#1e4549"/><polygon points="193.67 99.72 193.67 95.53 196.16 96.9 196.16 100.93 193.67 99.72" fill="#1e4549"/><polygon points="200.11 103.68 200.11 99.49 202.6 100.86 202.6 104.88 200.11 103.68" fill="#1e4549"/><polygon points="187.46 113.39 187.46 109.2 189.95 110.57 189.95 114.59 187.46 113.39" fill="#1e4549"/><polygon points="193.67 116.74 193.67 112.55 196.16 113.92 196.16 117.94 193.67 116.74" fill="#1e4549"/><polygon points="200.11 120.7 200.11 116.51 202.6 117.88 202.6 121.9 200.11 120.7" fill="#1e4549"/><polygon points="187.46 130.41 187.46 126.22 189.95 127.58 189.95 131.61 187.46 130.41" fill="#1e4549"/><polygon points="193.67 133.76 193.67 129.57 196.16 130.94 196.16 134.96 193.67 133.76" fill="#1e4549"/><polygon points="200.11 137.72 200.11 133.53 202.6 134.89 202.6 138.92 200.11 137.72" fill="#1e4549"/><polygon points="223.39 64.21 223.39 60.02 220.9 61.38 220.9 65.41 223.39 64.21" fill="#1e4549"/><polygon points="217.18 67.56 217.18 63.37 214.69 64.73 214.69 68.76 217.18 67.56" fill="#1e4549"/><polygon points="210.74 71.52 210.74 67.33 208.25 68.69 208.25 72.72 210.74 71.52" fill="#1e4549"/><polygon points="223.39 79.23 223.39 75.04 220.9 76.41 220.9 80.43 223.39 79.23" fill="#1e4549"/><polygon points="217.18 82.58 217.18 78.39 214.69 79.76 214.69 83.78 217.18 82.58" fill="#1e4549"/><polygon points="210.74 86.54 210.74 82.35 208.25 83.72 208.25 87.74 210.74 86.54" fill="#1e4549"/><polygon points="223.39 96.42 223.39 92.23 220.9 93.59 220.9 97.62 223.39 96.42" fill="#1e4549"/><polygon points="217.18 99.77 217.18 95.58 214.69 96.95 214.69 100.97 217.18 99.77" fill="#1e4549"/><polygon points="210.74 103.73 210.74 99.54 208.25 100.9 208.25 104.93 210.74 103.73" fill="#1e4549"/><polygon points="223.39 113.44 223.39 109.25 220.9 110.61 220.9 114.64 223.39 113.44" fill="#1e4549"/><polygon points="217.18 116.79 217.18 112.6 214.69 113.96 214.69 117.99 217.18 116.79" fill="#1e4549"/><polygon points="210.74 120.75 210.74 116.55 208.25 117.92 208.25 121.95 210.74 120.75" fill="#1e4549"/><polygon points="223.39 130.45 223.39 126.26 220.9 127.63 220.9 131.66 223.39 130.45" fill="#1e4549"/><polygon points="217.18 133.81 217.18 129.61 214.69 130.98 214.69 135.01 217.18 133.81" fill="#1e4549"/><polygon points="210.74 137.76 210.74 133.57 208.25 134.94 208.25 138.97 210.74 137.76" fill="#1e4549"/><polygon points="223.63 71.57 223.63 67.38 221.13 68.75 221.13 72.77 223.63 71.57" fill="#1e4549"/><polygon points="217.42 74.92 217.42 70.73 214.92 72.1 214.92 76.13 217.42 74.92" fill="#1e4549"/><polygon points="210.97 78.88 210.97 74.69 208.48 76.06 208.48 80.08 210.97 78.88" fill="#1e4549"/><polygon points="223.29 88.06 223.29 83.87 220.8 85.24 220.8 89.26 223.29 88.06" fill="#1e4549"/><polygon points="217.08 91.41 217.08 87.22 214.59 88.59 214.59 92.61 217.08 91.41" fill="#1e4549"/><polygon points="210.64 95.37 210.64 91.18 208.15 92.55 208.15 96.57 210.64 95.37" fill="#1e4549"/><polygon points="223.29 105.23 223.29 101.04 220.8 102.41 220.8 106.44 223.29 105.23" fill="#1e4549"/><polygon points="217.08 108.58 217.08 104.39 214.59 105.76 214.59 109.79 217.08 108.58" fill="#1e4549"/><polygon points="210.64 112.54 210.64 108.35 208.15 109.72 208.15 113.75 210.64 112.54" fill="#1e4549"/><polygon points="223.29 122.64 223.29 118.45 220.8 119.81 220.8 123.84 223.29 122.64" fill="#1e4549"/><polygon points="217.08 125.99 217.08 121.8 214.59 123.16 214.59 127.19 217.08 125.99" fill="#1e4549"/><polygon points="210.64 129.95 210.64 125.75 208.15 127.12 208.15 131.15 210.64 129.95" fill="#1e4549"/><polygon points="223.51 138.1 223.51 133.91 221.02 135.27 221.02 139.3 223.51 138.1" fill="#1e4549"/><polygon points="217.3 141.45 217.3 137.26 214.81 138.63 214.81 142.65 217.3 141.45" fill="#1e4549"/><polygon points="210.85 145.41 210.85 141.22 208.36 142.58 208.36 146.61 210.85 145.41" fill="#1e4549"/><polygon points="187.34 71.27 187.34 67.08 189.84 68.44 189.84 72.47 187.34 71.27" fill="#1e4549"/><polygon points="193.55 74.62 193.55 70.43 196.04 71.8 196.04 75.82 193.55 74.62" fill="#1e4549"/><polygon points="200 78.58 200 74.39 202.49 75.75 202.49 79.78 200 78.58" fill="#1e4549"/><polygon points="187.23 88.06 187.23 83.87 189.72 85.24 189.72 89.26 187.23 88.06" fill="#1e4549"/><polygon points="193.44 91.41 193.44 87.22 195.93 88.59 195.93 92.61 193.44 91.41" fill="#1e4549"/><polygon points="199.88 95.37 199.88 91.18 202.37 92.55 202.37 96.57 199.88 95.37" fill="#1e4549"/><polygon points="187.23 104.93 187.23 100.74 189.72 102.11 189.72 106.13 187.23 104.93" fill="#1e4549"/><polygon points="193.44 108.28 193.44 104.09 195.93 105.46 195.93 109.48 193.44 108.28" fill="#1e4549"/><polygon points="199.88 112.24 199.88 108.05 202.37 109.42 202.37 113.44 199.88 112.24" fill="#1e4549"/><polygon points="187.34 122.06 187.34 117.87 189.84 119.24 189.84 123.27 187.34 122.06" fill="#1e4549"/><polygon points="193.55 125.42 193.55 121.22 196.04 122.59 196.04 126.62 193.55 125.42" fill="#1e4549"/><polygon points="200 129.37 200 125.18 202.49 126.55 202.49 130.57 200 129.37" fill="#1e4549"/><polygon points="187.23 138.1 187.23 133.91 189.72 135.27 189.72 139.3 187.23 138.1" fill="#1e4549"/><polygon points="193.44 141.45 193.44 137.26 195.93 138.63 195.93 142.65 193.44 141.45" fill="#1e4549"/><polygon points="199.88 145.41 199.88 141.22 202.37 142.58 202.37 146.61 199.88 145.41" fill="#1e4549"/><path d="M220.53,155.6l1.95-1.84,9,4.27c-.93.47-2.28,1.29-3.58,2.05A66,66,0,0,1,220.53,155.6Z" opacity="0.68" fill="url(#linear-gradient-16)" style="mix-blend-mode:multiply"/><rect x="220.42" y="140.04" width="2.34" height="15.52" rx="1.13" ry="1.13" transform="translate(443.18 295.61) rotate(-180)" fill="#bc532a"/><path d="M215.81,143.22c.54-2.34,2.94-12.66,7.19-9.63,2.18,1.55,2.79,4,3.66,6.36A18.94,18.94,0,0,1,228,146.1c.07,4.29-4.3,4.82-7.64,4.8-1.93,0-4.68-1.15-5.13-3.24a10,10,0,0,1,.46-4Z" fill="#2c9135"/><path d="M215.61,143.67l.1-.46c.48-2.07,2.41-10.38,5.79-10.18-1,4.38-2.48,9-1.69,13.49a10.25,10.25,0,0,0,1.79,4.34c-.45,0-.89,0-1.32,0-1.93,0-4.68-1.15-5.13-3.24A10,10,0,0,1,215.61,143.67Z" fill="#156819"/><path d="M329.7,226.24c-6.55-4.19-23.9-14.28-23.9-14.28,2.34-1.58,3.43-4.38,5.46-6.34,6.78.43,14.19,1,15.1.27l20.19,10.79C340.76,219.92,335.19,222.49,329.7,226.24Z" opacity="0.68" fill="url(#linear-gradient-17)" style="mix-blend-mode:multiply"/><polygon points="331.7 212.21 331.7 153.3 318.85 160.47 318.85 219.62 331.7 212.21" fill="#68e1fd"/><polygon points="331.7 212.21 331.7 153.3 318.85 160.47 318.85 219.62 331.7 212.21" fill="#1e4549" opacity="0.33"/><polygon points="318.85 160.47 305.81 153.3 305.81 211.96 318.85 219.62 318.85 160.47" fill="#68e1fd"/><polygon points="331.7 153.3 318.85 145.42 305.81 153.3 318.85 160.47 331.7 153.3" fill="#9d9ca1"/><polyline points="328.62 150.4 328.62 152.61 318.37 158.54 308.12 152.61 308.12 150.4" fill="#cc9825"/><polygon points="328.62 150.42 318.45 144.18 308.12 150.42 318.45 156.1 328.62 150.42" fill="#f9e1aa"/><polygon points="305.81 157.45 318.97 164.25 331.7 157.57 331.7 158.6 318.97 165.28 305.81 158.48 305.81 157.45" fill="#ccc"/><polygon points="305.81 161.72 318.97 168.52 331.7 161.84 331.7 162.87 318.97 169.55 305.81 162.75 305.81 161.72" fill="#ccc"/><polygon points="305.81 166.37 319.02 173.2 331.7 166.54 331.7 167.58 319.02 174.23 305.81 167.4 305.81 166.37" fill="#ccc"/><polygon points="305.81 170.59 319.12 177.47 331.7 170.87 331.7 171.9 319.13 178.5 305.81 171.62 305.81 170.59" fill="#ccc"/><polygon points="305.81 174.7 318.91 181.47 331.7 174.76 331.7 175.79 318.92 182.5 305.81 175.72 305.81 174.7" fill="#ccc"/><polygon points="305.81 178.91 319.02 185.75 331.7 179.09 331.7 180.12 319.02 186.77 305.81 179.94 305.81 178.91" fill="#ccc"/><polygon points="305.81 183.08 318.86 189.83 331.7 183.09 331.7 184.12 318.87 190.86 305.81 184.11 305.81 183.08" fill="#ccc"/><polygon points="305.81 187.44 318.97 194.24 331.7 187.56 331.7 188.59 318.97 195.27 305.81 188.47 305.81 187.44" fill="#ccc"/><polygon points="305.81 191.79 319.07 198.65 331.7 192.01 331.7 193.04 319.07 199.68 305.81 192.81 305.81 191.79" fill="#ccc"/><polygon points="305.81 196 319.17 202.92 331.7 196.34 331.7 197.37 319.18 203.94 305.81 197.03 305.81 196" fill="#ccc"/><polygon points="305.81 200.67 318.86 207.42 331.7 200.68 331.7 201.71 318.87 208.45 305.81 201.7 305.81 200.67" fill="#ccc"/><polygon points="305.81 204.89 318.97 211.69 331.7 205.01 331.7 206.04 318.97 212.72 305.81 205.91 305.81 204.89" fill="#ccc"/><polygon points="305.81 208.99 319.02 215.82 331.7 209.16 331.7 210.19 319.02 216.85 305.81 210.01 305.81 208.99" fill="#ccc"/><path d="M374.48,190.94c-6.55-4.19-29.27-14.72-29.27-14.72,2.34-1.58,3.43-4.38,5.46-6.34,6.78.43,14.19,1,15.1.27L386,180.94C380.17,184.18,380,187.19,374.48,190.94Z" opacity="0.68" fill="url(#linear-gradient-18)" style="mix-blend-mode:multiply"/><path d="M338,70.78s15.06-9.77,15.36-10,17.3,10,17.3,10v102l-16.33,7.77L338,172.78Z" fill="#68e1fd"/><polygon points="338 70.78 338 172.78 352.76 179.89 352.76 79.6 338 70.78" fill="#fff" opacity="0.39"/><g opacity="0.74"><polygon points="339.68 71.77 342.19 73.36 342.19 173.53 339.68 172.34 339.68 71.77" fill="#53646c"/><polygon points="343.55 74.11 346.06 75.69 346.06 175.86 343.55 174.67 343.55 74.11" fill="#53646c"/><polygon points="347.73 76.54 350.24 78.13 350.24 178.3 347.73 177.11 347.73 76.54" fill="#53646c"/></g><polygon points="370.65 70.78 370.65 172.78 355.88 179.89 355.88 79.6 370.65 70.78" fill="#fff" opacity="0.39"/><g opacity="0.74"><polygon points="368.97 71.77 366.45 73.36 366.45 173.53 368.97 172.34 368.97 71.77" fill="#53646c"/><polygon points="365.1 74.11 362.58 75.69 362.58 175.86 365.1 174.67 365.1 74.11" fill="#53646c"/><polygon points="360.92 76.54 358.4 78.13 358.4 178.3 360.92 177.11 360.92 76.54" fill="#53646c"/></g><polyline points="367.51 56.34 367.51 69.96 354.32 77.59 341.13 69.96 341.13 56.34" fill="#53646c"/><polygon points="367.51 56.34 354.42 48.31 341.13 56.34 354.42 63.65 367.51 56.34" fill="#68e1fd"/><ellipse cx="347.56" cy="66.96" rx="4.01" ry="5.27" transform="translate(3.8 151.29) rotate(-24.69)" fill="#fff"/><ellipse cx="354.62" cy="56.77" rx="6.2" ry="2.41" fill="#53646c"/><polyline points="348.43 56.77 348.43 47.08 360.82 47.08 360.82 56.77" fill="#53646c"/><ellipse cx="354.62" cy="47.08" rx="6.2" ry="2.41" fill="#53646c"/><path d="M349.06,47.25,354.62,31l5.56,16.16S358.45,49,354.62,49,349.06,47.25,349.06,47.25Z" fill="#68e1fd"/><ellipse cx="361.67" cy="66.3" rx="5.27" ry="4.01" transform="translate(150.37 367.22) rotate(-65.31)" fill="#fff"/></g></g></svg>