<svg xmlns="http://www.w3.org/2000/svg" xmlns:xlink="http://www.w3.org/1999/xlink" viewBox="0 0 400 300"><defs><linearGradient id="linear-gradient" x1="177.97" y1="182.84" x2="98.27" y2="247.72" gradientUnits="userSpaceOnUse"><stop offset="0" stop-color="#d4a397"/><stop offset="1" stop-color="#fff"/></linearGradient></defs><title>PP</title><g style="isolation:isolate"><g id="Layer_2" data-name="Layer 2"><path d="M194.28,289.32,14.56,183.1c-5.72-3.21-10.63-8.49-5.05-11.94l180.37-104c2.71-1.68,6.82-2.78,9.57-1.18L388.11,175.52c5.72,3.32,6.75,12.6,1,15.93L218,289.15A23.9,23.9,0,0,1,194.28,289.32Z" fill="#16a79e"/><path d="M64.85,175.89l-32.22,16.4s141.3,84.93,151.29,89.13l26.52-16.14" fill="url(#linear-gradient)" style="mix-blend-mode:multiply"/><polyline points="51.37 165.99 51.5 176.03 348.3 184.74 348.29 172.29" fill="#077587"/><path d="M195.6,263.87,57.27,182.12c-4.4-2.47-8.18-6.53-3.89-9.19l138.83-80c2.08-1.29,5.25-2.14,7.36-.91l145.2,84.27c4.41,2.56,5.19,9.7.79,12.26l-131.73,75.2A18.39,18.39,0,0,1,195.6,263.87Z" fill="#077587"/><path d="M195.6,253.48,57.27,171.73c-4.4-2.47-8.18-6.53-3.89-9.19l138.83-80c2.08-1.29,5.25-2.14,7.36-.91l145.2,84.27c4.41,2.56,5.19,9.7.79,12.26l-131.73,75.2A18.39,18.39,0,0,1,195.6,253.48Z" fill="#68e1fd"/><path d="M140.82,206.79s3.45,8.43,19.67,3.29S256.63,151.92,261,145.19s14.7-17.41,7.94-19.39-46.73,18.12-50.27,21.36S155.57,188.46,140.82,206.79Z" fill="#1f90a3" opacity="0.79"/><path d="M198.2,135.6c-3.82.89-8,3.72-12,7.13-5.28,4.56-10.86,9.36-13.5,11.76s-12.71,11-16.07,15.59-10.79,19.43-11.75,21.11-4.08,4.32-4.08,7.44-1.92,7.2,0,8.16,4.08,3.12,4.8,0,2.16-10.56,2.64-9.6-1.68,5.28-.24,5,3.6-4.56,3.84-7.2,2.4-8.16,2.4-8.16l14.87-17.75,9.36,9.36s-4.21,5.52-5.34,6.24-10,10.56-12.17,12a85.23,85.23,0,0,0-7.44,5.52c-1.92,1.68-4.32,3.25-4.8,6.18s.48,3.89,1.92,4.13,5-1.68,5.76-2.64,5.28-4.56,7.2-7.2,4.56-4.32,7.2-6,10.79-7.92,13.67-11.75,14.39-18.23,17.51-21.35,6.24-5.28,8.88-8.64c.79-1,2.4-2.7,4.24-4.56C211,144.12,204.7,139.43,198.2,135.6Z" fill="#f3a984"/><path d="M179.18,164.47l-1,14.4s-4.16,5.07-3.47,4.27c.07-.09,2.61-.54,5.95-4.18a15.08,15.08,0,0,0,2.38-3.19,9,9,0,0,0,.87-4.06C184,169.13,182,164.71,179.18,164.47Z" fill="#e0855c"/><path d="M180.22,177.37a9.07,9.07,0,0,0-.63-1.45,1.33,1.33,0,0,0-1.81-.47,1.35,1.35,0,0,0-.47,1.81l.15.29a1,1,0,0,0,.1.22h0l.11.31a1.32,1.32,0,0,0,2.55-.7Z" fill="#e0855c"/><path d="M176.94,163.59s4.06,5.51,1.83,11.89-9.3,1.45-12.94-2.39" fill="#f3a984"/><path d="M171.48,173.07s.62-2.49,1.71-3.21,1.54-1,1.54-1l1-3.54,1.24-1.75-1.51,5.49s.67,2.41-.53,3.54S171.48,173.07,171.48,173.07Z" fill="#2e383a"/><path d="M167.48,174.7s1.08.93,1.76.9a2.19,2.19,0,0,0,2-1,3.85,3.85,0,0,0,.3-1.54,2.57,2.57,0,0,0-2.25,0A6.57,6.57,0,0,0,167.48,174.7Z" fill="#2e383a"/><path d="M165.84,173.09s6-.19,11.11-9.5c0,0-4.94-7.18-11.38-3.12S164.06,172.33,165.84,173.09Z" fill="#2e383a"/><path d="M211.73,118.94s10.61-8.41,11.61-10,7.21-11.81,10.21-14.62,10.81-8.41,11.81-9.61,1.8-3.6,2.6-5.41,3.8-3,5.41-4.41,4.81-2.4,7-2.8,3.6.4,2.8,1.6-3.8,4.41-4.81,5.61-5.21,6-5.21,6-7.61,6.41-8.61,7.81-4.58,8.61-7,10.81-16.63,20.23-16.63,20.23,6-3.4,7.81-6.21,7.3-7.82,8.82-11.81,4-5.61,8.6-10.61,6.6-6.82,7.26-7.81,3-4.39,3.33-5.65,2.83-2.83,3.91-4,1.67-2.33,2.75-2.83a6.71,6.71,0,0,1,3.49-.5,2.31,2.31,0,0,1,2,2.41c-.17,1.5-3.58,3.74-3.91,4.24s-1.75,4.24-2.91,5.9-3.83,4.82-3.83,4.82S251,104.5,248.95,107a63.41,63.41,0,0,0-5,6.4c-1,1.66-8.65,17-11.64,21.12Z" fill="#f3a984"/><path d="M196.16,135.83s3.26-13.69,15.58-16.89c0,0,7.4,1.08,8.54,6.46,0,0,10,.17,12,9.11a137.94,137.94,0,0,1-17.45,16.19Z" fill="#2e383a"/><path d="M333.89,100.84c-4.7-2.19-9.35-4.8-13-8.51-2.25-2.26-3.91-5-6.31-7.14A32.28,32.28,0,0,0,305.88,80c-5.32-2.31-10.9-4-15.88-7-5.62-3.43-10.33-8.3-15.42-12.44A118.37,118.37,0,0,0,259.3,49.84c-5.53-3.21-11.81-5.19-17.14-8.68-9.46-6.2-14.51-16.35-26.12-19-6-1.37-12-3.52-18.1-4.06-6.64-.58-10.88,3.65-15.23,8a44.2,44.2,0,0,1-15.39,10.32c-7,2.75-13.24,5.11-19.38,9.69-4.45,3.33-8.76,6.89-13.58,9.69-5.34,3.11-11,4.69-16.8,6.71-11.41,4-17.5,15.22-26.48,22.54-11,9-25.66,6.51-37.32,13.75a3,3,0,0,1-2.47.41V166l.07,0c.44,2.06,3,4.23,5.71,5.77l138.33,81.75a18.39,18.39,0,0,0,18.23-.13l131.73-75.2a6.21,6.21,0,0,0,2.92-5.89V107.24C343.58,104.76,338.36,102.92,333.89,100.84Z" fill="#68e1fd" opacity="0.34"/><path d="M205.37,255.83l.54-72.6,142.38-76v68.36L213.64,253.38A14.12,14.12,0,0,1,205.37,255.83Z" fill="#077587" opacity="0.18"/><path d="M205.91,183.23,51.3,99.15v64.74A9.36,9.36,0,0,0,55.95,172l140.91,82.18c2.56,1.19,6.72,2.2,8.51,1.68Z" fill="#fff" opacity="0.15"/></g></g></svg>