<svg xmlns="http://www.w3.org/2000/svg" xmlns:xlink="http://www.w3.org/1999/xlink" viewBox="0 0 400 300"><defs><linearGradient id="linear-gradient" x1="125.7" y1="206.93" x2="102.55" y2="223.41" gradientUnits="userSpaceOnUse"><stop offset="0" stop-color="gray"/><stop offset="1" stop-color="#fff"/></linearGradient><linearGradient id="linear-gradient-2" x1="254.28" y1="244.5" x2="234.43" y2="256.35" gradientUnits="userSpaceOnUse"><stop offset="0" stop-color="gray"/><stop offset="1" stop-color="#fff"/></linearGradient><linearGradient id="linear-gradient-3" x1="156.65" y1="158.88" x2="148.78" y2="167.32" gradientUnits="userSpaceOnUse"><stop offset="0" stop-color="#bf7500"/><stop offset="1" stop-color="#fff"/></linearGradient></defs><title>a</title><g style="isolation:isolate"><g id="Layer_2" data-name="Layer 2"><polygon points="78.48 220.75 205.24 293.94 325.34 224.6 197.71 152.05 78.48 220.75" fill="#efefef"/><path d="M116.64,198.66c-11.75,6.85-20,11.76-38.1,22.07,13.68,8.31,26,14.95,27.54,15.85L145,213C141.83,211.31,131.28,205.89,116.64,198.66Z" fill="url(#linear-gradient)" style="mix-blend-mode:multiply"/><path d="M267,246.89a112.29,112.29,0,0,0-17.82-11.14c-8.51,5-12.37,8-25.47,15.44,9.91,6,17.59,11.56,18.71,12.22l16.85-10.33C259.46,252.43,266.83,247.54,267,246.89Z" fill="url(#linear-gradient-2)" style="mix-blend-mode:multiply"/><path d="M210.39,143.94l74.75,42.94V52.33s.54-6.61-4.55-7.24L210.39,18.3Z" fill="#68e1fd"/><path d="M210.39,143.94l74.75,42.94V52.33s.54-6.61-4.55-7.24L210.39,18.3Z" opacity="0.14"/><path d="M273.8,63.27s-1.31-15,9.37-16.78L211,5.07s-5.18-2.29-8.24,2.18-3.27,9.48-2.94,13.19Z" fill="#68e1fd"/><ellipse cx="236.43" cy="88.95" rx="17.92" ry="24.98" transform="translate(-12.17 44.1) rotate(-10.39)" fill="#fff"/><path d="M236.43,89l-5.92-24.22s9.66-4,18.79,8.92Z" fill="#f9aa43"/><path d="M236.43,89l17.93-1.21s-.29-6.1-5.06-14.09Z" fill="#768cfb"/><path d="M221.18,116.11,269,143.34a1.13,1.13,0,0,0,1.14-1.94l-47.82-27.23a1.13,1.13,0,0,0-1.14,1.94Z" fill="#f2f2f2"/><path d="M221.18,123.17,269,150.41a1.13,1.13,0,0,0,1.14-1.94l-47.82-27.23a1.13,1.13,0,0,0-1.14,1.94Z" fill="#f2f2f2"/><path d="M221.18,130.37,269,157.6a1.13,1.13,0,0,0,1.14-1.94l-47.82-27.23a1.13,1.13,0,0,0-1.14,1.94Z" fill="#f2f2f2"/><polygon points="269.91 131.04 269.91 94.38 265.34 92.27 265.34 128.61 269.91 131.04" fill="#f9aa43"/><path d="M258.17,96.93v27.73l4.56,2.43V99.46C261.16,98.64,259.66,97.74,258.17,96.93Z" fill="#768cfb"/><path d="M231.65,49.75l28.8,16.4a1.13,1.13,0,0,0,1.14-1.94l-28.8-16.4a1.13,1.13,0,0,0-1.14,1.94Z" fill="#f2f2f2"/><path d="M239.62,106.7a52.34,52.34,0,0,1-1.6-5.05c-.2-1.21,1-5.81.16-6.07s-1.89,2.86-1.89,2.86-2.5-5.64-3.18-5.91-2.71-.45-3.2.06-1.84,3.8-1.24,4.92a64.16,64.16,0,0,0,4.22,5.76c.22.17,2.85,5.83,3.2,6S239.36,108,239.62,106.7Z" fill="#ffc9b5"/><path d="M267,124.95s-13.74-5.43-16.13-7.4-11-12.12-11-12.12-5,1.83-4.94,4.34c0,0,7,11.69,10.25,14.82s15.11,11,17.71,10.82S267,124.95,267,124.95Z" fill="#dd8c2a"/><path d="M258.28,236.16s-3.28-2.8-7-1.72-2.92,3.84-.6,5.57,11.25,7.74,14,7.68,3.35-2.27,3.41-3.79a70.16,70.16,0,0,0-.81-7" fill="#768cfb"/><path d="M260.32,236a.7.7,0,0,1-.92.57,26.85,26.85,0,0,1-2.93-1.12s-3.17,0-1.24,3.17,8.58,4.1,10.63,2.92.68-4.54.68-4.54" fill="#ffc9b5"/><path d="M250.55,242.34s-3.28-2.8-7-1.72-2.92,3.84-.6,5.57,11.25,7.74,14,7.68,3.35-2.27,3.41-3.79a70.16,70.16,0,0,0-.81-7" fill="#768cfb"/><path d="M252.59,242.14a.7.7,0,0,1-.92.57,26.85,26.85,0,0,1-2.93-1.12s-3.17,0-1.24,3.17,8.58,4.1,10.63,2.92.68-4.54.68-4.54" fill="#ffc9b5"/><path d="M249.15,155.88c-1.07,2.42-1.65,37.07-1.24,46s4.68,40.29,4.68,40.29,2.43,3.69,6.53,3.43,3.3-3.56,3.3-3.56,5.24,2.43,7.53-2.91c.85-2,4.84-57.21,4.84-63.5a43.87,43.87,0,0,0-6-21.36" fill="#53b7b7"/><path d="M262.43,242s2.49-70,2.17-72.07.68,15.35.61,20.11C265.17,193.45,263.11,237.24,262.43,242Z" fill="#259993"/><polygon points="243.05 171.56 228.86 155.75 217.67 167.4 231.81 182.59 243.05 171.56" fill="#768cfb"/><path d="M249.15,155.88s-3.62-24.79,1.53-29.47,19.46-8,22.13-5.67-1.34,28.62-4,33.5S251.06,157.79,249.15,155.88Z" fill="#f9aa43"/><path d="M255.67,108.18c-.12.35-2.66,10,1.77,11.4s5.32-3.89,5.76-4.19,1.83-.77,1.76-1.84-1.75-1.09-1.75-1.09-.65-2.8-2.64-4S255.67,108.18,255.67,108.18Z" fill="#ffc9b5"/><path d="M259.81,110.9s-3.7.06-5.3-1.52a3.11,3.11,0,0,1,.26-4.57s-1.47-2.93,1.29-3.64c0,0,.25-2.69,5.75-1.46s10.52,5.12,10.59,10.15.44,5.61,2.22,6.76,1.29,5.56-3.47,5.74-11.25-.24-11.86-2.59,3-2.6,3.45-5A3.43,3.43,0,0,0,259.81,110.9Z" fill="#2c1d1a"/><path d="M242,152.31s-3.81,4.06-4.91,4.5a34.11,34.11,0,0,0-4.84,2.71,8.51,8.51,0,0,1,1.35,1.54.52.52,0,0,1,0,.06c.49-.35.83-.61.82-.43,0,.57-3.75,5.45-4.32,6.19s1,3.16,1,3.16c2.42.81,5.21-1.64,7-3.3s2.62-5.5,3.24-6,5.73-3.87,6.09-4.92S242,152.31,242,152.31Z" fill="#ffc9b5"/><path d="M249.5,128.18c-1,2.21-1,4.63-1.42,7-.33,1.69-.67,3.46-1.06,5.17a16.31,16.31,0,0,1-1.62,5c-1.4,2.33-3.22,4.35-4.81,6.54a4,4,0,0,0-.93,1.68c-.15,1.53,1.78,5.89,7.13,5.35a66.3,66.3,0,0,0,7.56-7.16c3-3.53,5.84-15.47,5.55-19.44-.2-2.7-1.67-5.72-4.23-6.9a4.48,4.48,0,0,0-5,1.13A6,6,0,0,0,249.5,128.18Z" fill="#f9aa43"/><path d="M249.8,156.3s4.47-3.8,5.57-6.09,2.53-6.41,2.53-6.41-2.07,11.91-4.05,13.5A22.92,22.92,0,0,1,249.8,156.3Z" fill="#dd8c2a"/><polygon points="186.79 158.23 186.79 188.62 133.29 219.78 133.29 183.92 186.79 158.23" fill="#ffc050"/><polyline points="109.7 205.57 109.7 174.79 133.29 188.41 133.29 219.78" fill="#6de2fc"/><polygon points="133.29 219.78 133.29 188.41 109.7 174.79 109.7 205.57 133.29 219.78" fill="#146666"/><polygon points="133.06 188.78 109.53 175.19 164.53 143.9 186.79 158.23 133.06 188.78" fill="#ffd592"/><path d="M155.06,154.89c-5.18,3-8.84,5.19-16.81,9.74,6,3.67,10.79,6.2,11.47,6.59l18.35-10.61C166.68,159.88,161.51,158.08,155.06,154.89Z" fill="url(#linear-gradient-3)" style="mix-blend-mode:multiply"/><path d="M161.3,147.08a14.72,14.72,0,0,1-8.74-3.36V153a9.63,9.63,0,0,0,9.63,9.63h0a9.63,9.63,0,0,0,9.63-9.63v-9.43C168.53,144.9,164.8,147.38,161.3,147.08Z" fill="#68e1fd"/><ellipse cx="162.19" cy="143.66" rx="9.63" ry="5.1" fill="#5ed18d"/><path d="M162.19,144.52s-6.55-1-8.28-11.55C153.91,133,159.49,136.05,162.19,144.52Z" fill="#5ed18d"/><path d="M163.15,143.18s-7.51-13.48,0-22.52A37.76,37.76,0,0,1,163.15,143.18Z" fill="#5ed18d"/><path d="M162.19,134.7s-6.55-1-8.28-11.55C153.91,123.15,159.49,126.23,162.19,134.7Z" fill="#5ed18d"/><path d="M163,139s-1.64-6.41,7.46-12.1C170.44,126.92,169.75,133.26,163,139Z" fill="#5ed18d"/><ellipse cx="162.19" cy="143.66" rx="9.63" ry="5.1" fill="#146666"/><path d="M162.19,144.52s-6.55-1-8.28-11.55C153.91,133,159.49,136.05,162.19,144.52Z" fill="#5ed18d"/><path d="M163.15,143.18s-7.51-13.48,0-22.52A37.76,37.76,0,0,1,163.15,143.18Z" fill="#5ed18d"/><path d="M162.19,134.7s-6.55-1-8.28-11.55C153.91,123.15,159.49,126.23,162.19,134.7Z" fill="#5ed18d"/><path d="M163,139s-1.64-6.41,7.46-12.1C170.44,126.92,169.75,133.26,163,139Z" fill="#5ed18d"/></g></g></svg>