<svg id="Layer_2" data-name="Layer 2" xmlns="http://www.w3.org/2000/svg" xmlns:xlink="http://www.w3.org/1999/xlink" viewBox="0 0 400 300"><defs><linearGradient id="linear-gradient" x1="171.63" y1="243.12" x2="190.61" y2="211.5" gradientUnits="userSpaceOnUse"><stop offset="0" stop-color="#f7ce21"/><stop offset="0.99" stop-color="#ff8f30"/></linearGradient><linearGradient id="linear-gradient-2" x1="57.88" y1="190.14" x2="67.47" y2="179.94" xlink:href="#linear-gradient"/><linearGradient id="linear-gradient-3" x1="102.29" y1="171.36" x2="111.88" y2="161.16" xlink:href="#linear-gradient"/><linearGradient id="linear-gradient-4" x1="311.67" y1="190.05" x2="321.27" y2="179.85" xlink:href="#linear-gradient"/></defs><title>PP</title><path d="M195.53,286.49,23,184.54c-5.49-3.08-10.2-8.15-4.85-11.46L191.31,73.3c2.6-1.61,6.54-2.66,9.18-1.13L381.56,177.27c5.49,3.19,6.48,12.1,1,15.29L218.27,286.33A22.94,22.94,0,0,1,195.53,286.49Z" fill="#f7ce21"/><path d="M97.93,225.56c1.2-.2,46,21.09,46.49,21.63-.84,8.29,5.12,4.24,7.73,6.33.73-.31,31.57,18,32.34,17.66,4.54-4.55,76.51-39.81,81.12-44.29-1.57-1.14-120.57-13-122.09-14.19C136,215.82,104.86,221.21,97.93,225.56Z" fill="url(#linear-gradient)"/><ellipse cx="208.81" cy="198.21" rx="84.97" ry="33.44" fill="#f49a22"/><ellipse cx="206.56" cy="197.05" rx="70.96" ry="27.92" fill="#994a22"/><path d="M177.15,193.09s-22,7.9-23,23.31c0,0,30.81,16.06,91,5.65,0,0-9.84-19.25-16.17-22.59" fill="#68e1fd"/><path d="M177.15,193.09s-22,7.9-23,23.31c0,0,30.81,16.06,91,5.65,0,0-9.84-19.25-16.17-22.59" fill="#606060" opacity="0.29"/><path d="M218.11,147.32c18.14,7.18,37.48,27.85,32.85,48.83-5.44,24.67-37.76,25.62-55.9,15.84a69.51,69.51,0,0,1-13.22-9.2c-9.05-8.06-14.47-19.32-11.34-31.44,2.78-10.78,11-20.49,21.34-24.65C200.46,143.26,209.62,144,218.11,147.32Z" fill="#68e1fd"/><ellipse cx="221.96" cy="181.24" rx="3.39" ry="7.2" transform="translate(-10.75 14.03) rotate(-3.53)" fill="#171918"/><path d="M237.44,192.36c1.15,2.56-.5,5.89-1.93,8-2.09,3.1-5,1.94-6.56-.93-.88-1.66-2.19-4.61-1.09-6.43a3.77,3.77,0,0,1,2.68-1.53C232.23,191.21,236.49,190.23,237.44,192.36Z" fill="#171918"/><ellipse cx="236.84" cy="178" rx="3.39" ry="7.2" transform="translate(-10.52 14.94) rotate(-3.53)" fill="#171918"/><path d="M207.77,148.33c.44-4-9.47-78.84,24-91.44s35.05,19.72,26.05,34.77-37.64,56.19-37.64,56.19" fill="#68e1fd"/><path d="M200.15,154.28c0-10.62-1-21.34-1.8-31.92-1.62-20.39,1.89-58.24-26.69-61.67-13.4-1.61-18.72,9.83-17.29,21.49,1.08,8.82,4.74,18.4,8.4,26.47,7.8,17.18,17.73,33.29,28,49.1l1,1.51" fill="#68e1fd"/><path d="M229.75,216s5.91,9,0,13.25S212,234,209.4,230.65s-2.41-4.5-2.41-4.5l-10.22-.35s-3.25-10.3,5.29-13.85S226.2,210.3,229.75,216Z" fill="#68e1fd"/><path d="M272.81,210.67s5.91,9,0,13.25-17.74,4.73-20.35,1.42-2.41-4.5-2.41-4.5l-10.83,2.48s-2.64-13.13,5.89-16.67S269.26,205,272.81,210.67Z" fill="#68e1fd"/><path d="M188.42,148.33s-33.1-63.08-20.89-71.09,27.11,31.66,28.62,68.1Z" fill="#606060" opacity="0.29"/><path d="M218.11,147.32s31.64-50.73,31.64-63.63-7.8-19-17.37-11.76-21.74,73.19-21.74,73.19Z" fill="#606060" opacity="0.29"/><path d="M50.55,188c1.2-.2,2.17-.17,2.63.37-.84,8.29,5.12,4.24,7.73,6.33l2.25-.94c4.54-4.55,7.49-7.67,12.1-12.15-1.57-1.14-1.49-3.74-3-4.94A145.09,145.09,0,0,0,50.55,188Z" fill="url(#linear-gradient-2)"/><rect x="67.82" y="131.64" width="7.69" height="51" rx="2.01" ry="2.01" fill="#bc532a"/><path d="M90.66,142.07C88.89,134.38,81,100.46,67,110.43c-7.15,5.11-9.18,13.09-12,20.9-2.37,6.47-4.34,13.27-4.45,20.2-.22,14.11,14.13,15.84,25.11,15.78,6.33,0,15.37-3.77,16.85-10.64.89-4.15-.63-9-1.51-13.1Q90.84,142.82,90.66,142.07Z" fill="#2c9135"/><path d="M91.33,143.57q-.16-.75-.34-1.5c-1.57-6.81-7.91-34.11-19-33.44,3.3,14.39,8.16,29.6,5.57,44.34a33.69,33.69,0,0,1-5.88,14.26c1.47.07,2.93.1,4.33.09,6.33,0,15.37-3.77,16.85-10.64C93.74,152.52,92.22,147.63,91.33,143.57Z" fill="#156819"/><path d="M95,169.21c1.2-.2,2.17-.17,2.63.37-.84,8.29,5.12,4.24,7.73,6.33l2.25-.94c4.54-4.55,7.49-7.67,12.1-12.15-1.57-1.14-1.49-3.74-3-4.94A145.09,145.09,0,0,0,95,169.21Z" fill="url(#linear-gradient-3)"/><rect x="113.79" y="125.18" width="5.88" height="38.98" rx="2.01" ry="2.01" fill="#bc532a"/><path d="M131.25,133.16c-1.36-5.88-7.38-31.8-18.05-24.18-5.47,3.9-7,10-9.2,16-1.81,4.94-3.31,10.14-3.4,15.44-.17,10.78,10.8,12.1,19.19,12.06,4.84,0,11.74-2.88,12.87-8.13.68-3.17-.48-6.91-1.16-10Q131.38,133.73,131.25,133.16Z" fill="#2c9135"/><path d="M131.76,134.3q-.12-.57-.26-1.15c-1.2-5.2-6-26.07-14.53-25.56,2.52,11,6.24,22.62,4.25,33.88a25.75,25.75,0,0,1-4.49,10.9c1.13.06,2.24.07,3.31.07,4.84,0,11.74-2.88,12.87-8.13C133.6,141.14,132.44,137.4,131.76,134.3Z" fill="#156819"/><path d="M304.35,187.9c1.2-.2,2.17-.17,2.63.37-.84,8.29,5.12,4.24,7.73,6.33l2.25-.94c4.54-4.55,7.49-7.67,12.1-12.15-1.57-1.14-1.49-3.74-3-4.94A145.09,145.09,0,0,0,304.35,187.9Z" fill="url(#linear-gradient-4)"/><rect x="321.62" y="131.62" width="7.69" height="51" rx="2.01" ry="2.01" fill="#bc532a"/><path d="M344.46,142.06c-1.78-7.7-9.65-41.61-23.62-31.64-7.15,5.11-9.18,13.09-12,20.9-2.37,6.47-4.34,13.27-4.45,20.2-.22,14.11,14.13,15.84,25.11,15.78,6.33,0,15.37-3.77,16.85-10.64.89-4.15-.63-9-1.51-13.1Q344.63,142.81,344.46,142.06Z" fill="#2c9135"/><path d="M345.13,143.55q-.16-.75-.34-1.5c-1.57-6.81-7.91-34.11-19-33.44,3.3,14.39,8.16,29.6,5.57,44.34a33.69,33.69,0,0,1-5.88,14.26c1.47.07,2.93.1,4.33.09,6.33,0,15.37-3.77,16.85-10.64C347.54,152.51,346,147.62,345.13,143.55Z" fill="#156819"/></svg>