<svg id="_1-10" data-name="#1-10" xmlns="http://www.w3.org/2000/svg" xmlns:xlink="http://www.w3.org/1999/xlink" viewBox="0 0 400 300"><defs><linearGradient id="linear-gradient" x1="211.45" y1="212.75" x2="161.27" y2="254" gradientUnits="userSpaceOnUse"><stop offset="0" stop-color="#00c1a5"/><stop offset="0.99" stop-color="#7ce0c3"/></linearGradient><linearGradient id="linear-gradient-2" x1="75.02" y1="199.48" x2="53.23" y2="217.52" xlink:href="#linear-gradient"/><linearGradient id="linear-gradient-3" x1="313.91" y1="113.39" x2="230.23" y2="158.48" xlink:href="#linear-gradient"/><linearGradient id="linear-gradient-4" x1="312.6" y1="202.04" x2="285.49" y2="224.33" xlink:href="#linear-gradient"/></defs><title>-</title><path d="M37.12,210.48l139.94,82.93a15.11,15.11,0,0,0,15.4,0l175.9-104a6.54,6.54,0,0,0-.21-11.38L215.81,95.47,37.13,201.19A5.4,5.4,0,0,0,37.12,210.48Z" fill="#7ce0c3"/><polygon points="192.12 114.89 192.12 159.55 194.87 161.5 199.12 158.71 199.12 114.08 193.32 111.41 192.12 114.89" fill="#56403d"/><path d="M193.44,118l40.34,23.46a2.68,2.68,0,0,0,2.77,0l58.08-36.52a2.68,2.68,0,0,0-.15-4.63L255.31,79.11a2.68,2.68,0,0,0-2.61,0l-59.24,34.2A2.68,2.68,0,0,0,193.44,118Z" fill="#56403d"/><polygon points="197.67 224.79 127.57 263.56 152.09 276.39 206.92 234.63 197.67 224.79" fill="url(#linear-gradient)"/><path d="M57.12,200.46,39.82,210.72s7.09,8,20.31,13.59L83.9,210" fill="url(#linear-gradient-2)"/><polygon points="297.45 139.74 212.83 196.53 178.23 169.01 254.77 116.58 297.45 139.74" fill="url(#linear-gradient-3)"/><path d="M78.11,79.57v72.86a5,5,0,0,0,7.47,4.38L200.8,92.41a7.23,7.23,0,0,0,3.7-6.31v-72a4.78,4.78,0,0,0-7-4.21L82.91,71.54A9.12,9.12,0,0,0,78.11,79.57Z" fill="#68e1fd"/><path d="M225.4,65.5c-1.74-1-4-.68-6.07,0-8.31,2.91-20.32,8.68-20.19,19A98.24,98.24,0,0,0,200.8,101c.4,2.14.73,4.82,2,6.66,1.91,2.76,10.32-3.47,11.92-4.51,2.73-1.78,5.38-3.69,8-5.64,1.95-1.45,6.28-3.74,7.06-6a5.28,5.28,0,0,0,.2-1.59,88,88,0,0,0-.81-14.5C228.72,72.28,228.49,67.32,225.4,65.5Z" fill="#6de2fc"/><path d="M241.32,74.69l29.39-17A1.54,1.54,0,0,1,273,59.06V81.49a2.45,2.45,0,0,1-1.24,2.13L242.84,100a1.84,1.84,0,0,1-2.8-1.57V76.91A2.56,2.56,0,0,1,241.32,74.69Z" fill="#6de2fc"/><path d="M225.4,65.5c-1.74-1-4-.68-6.07,0-8.31,2.91-20.32,8.68-20.19,19A98.24,98.24,0,0,0,200.8,101c.4,2.14.73,4.82,2,6.66,1.91,2.76,10.32-3.47,11.92-4.51,2.73-1.78,5.38-3.69,8-5.64,1.95-1.45,6.28-3.74,7.06-6a5.28,5.28,0,0,0,.2-1.59,88,88,0,0,0-.81-14.5C228.72,72.28,228.49,67.32,225.4,65.5Z" fill="#2c858d"/><path d="M289.92,99.49v41.28l2.76,1.95,4.24-2.79V98.69C294.57,98.79,292.24,99.16,289.92,99.49Z" fill="#56403d"/><polygon points="232.32 136.45 232.32 181.11 235.08 183.06 239.32 180.27 239.32 135.64 233.53 132.97 232.32 136.45" fill="#56403d"/><path d="M193,220.4c2.34,2.59,3.22,8.31,4.85,11.3.35.65.75,1.33,1.11,2l6.87-3.41-6.5-12.4Z" fill="#ffc4b0"/><path d="M205,228.42a6.12,6.12,0,0,1-5,3.44,2.88,2.88,0,0,1-2.45-.78,21.58,21.58,0,0,1-2.49,4.55c-1.35,2.07-10.16,9.6-5,11.68,3.81,1.55,16.91-10.24,16.91-12.67C206.92,232,205.4,229.76,205,228.42Z" fill="#3363a8"/><path d="M149.07,235.73a42.07,42.07,0,0,1,.31,11c-.12.79-.22,1.64-.38,2.5l9.29-1.57V235.73Z" fill="#ffc4b0"/><path d="M152.66,248.5c-1.54,0-3.61-1-3.39-2.59a25.35,25.35,0,0,1-4.47,5.56c-2.12,2-14.11,8.33-9.11,11.69,3.72,2.49,22-7.58,22.47-10.26a40.42,40.42,0,0,0,.28-7.08A8.49,8.49,0,0,1,152.66,248.5Z" fill="#3363a8"/><path d="M141.77,127.7a32.91,32.91,0,0,0-4.05-1.46l-.09-.13s0-.1-.05-.15a4.13,4.13,0,0,0-2.66-2.21,1.4,1.4,0,0,0-1.56,2,5.75,5.75,0,0,0,2.5,2.41,1.27,1.27,0,0,0,.82.62,27.55,27.55,0,0,1,3.71,1.28,1.43,1.43,0,0,0,1.89-.5A1.39,1.39,0,0,0,141.77,127.7Z" fill="#ffc4b0"/><path d="M141.16,133.59l-.32-.67,0,0q-1.34-3.12-2.53-6.3c-.62-1.65-3.29-.93-2.67.73l.17.45a1.44,1.44,0,0,0,0,1.09q.86,1.84,1.74,3.68a7,7,0,0,0,.83,1.72l.36.74C139.55,136.59,141.93,135.19,141.16,133.59Z" fill="#ffc4b0"/><path d="M157.09,106.54l-.24.39a16.42,16.42,0,0,1-1.16,2.05q-.65,2.47-1.36,4.92c-.92,3.18-.87,6.84-2.66,9.72-2.17,3.47-6.88,2.9-10.17,1.6-.85-.34-1.73-.77-2.63-1.21h0c-.34,4.72-.42,9.69,1.42,14a33.13,33.13,0,0,0,12.14,1.88c4.78-.17,11.28-1.62,13.07-6.69Z" fill="#3363a8"/><path d="M188.51,229.86c4.1,1.21,8.66,0,12.31-2.08a21.61,21.61,0,0,0,6.21-5.15l-5.26-8.8c-5.31-10.73-15.82-46.68-16.32-49.15-.6-2.92-3-29.11-3-29.11l-24-4.35s.83,22.86,2.73,43.16a97.46,97.46,0,0,0,3.32,10.49c5.36,14.15,12.25,31,22.56,43A23.87,23.87,0,0,0,188.51,229.86Z" fill="#3363a8"/><path d="M179.82,113.78c-2.27-4.92-10.51-8.72-13.77-10.06-1,0-2,.08-3,.2l-1.25.24-.91.16a11.86,11.86,0,0,0-1.33.43q-.91.51-1.8,1.09a.54.54,0,0,1-.32.09,7.1,7.1,0,0,0-1.38,1.39.67.67,0,0,1-.14.14,16.67,16.67,0,0,0-.52,3.91,114.32,114.32,0,0,0,.19,11.43c.29,5,.76,10.07,1.06,15.1l.52,2.42c5.18,4.15,14.17,5.39,14.93,5.25s0,7-.49,12.16a51.15,51.15,0,0,0,5.56,1.1h0c1.34.19,2.68.31,4,.37.81,0,1.63,0,2.45,0C187.28,137.81,182.67,120,179.82,113.78Z" fill="#d2efff"/><polygon points="124.25 124.73 133.32 137.54 139.97 138.03 130.94 124.42 124.25 124.73" fill="#2d2d2d"/><polygon points="126.84 122.39 133.11 123.05 142.98 136.82 139.97 138.03 131.93 126.88 124.25 124.73 126.84 122.39" fill="#606060"/><path d="M133.66,134.15h-.47a1.4,1.4,0,0,0-1.06-2.25H131a1.42,1.42,0,0,0,.23-1.7,1.4,1.4,0,0,0-1.72-.56l.09,0-.15.05-.12,0,.05,0a1.36,1.36,0,0,0-.85-.05,1.38,1.38,0,0,0-.33,2.53l.33.14a1.41,1.41,0,0,0,.92,2.42h.2a1.37,1.37,0,0,0,1.13,2.16,19.37,19.37,0,0,0,2.86.08,1.41,1.41,0,0,0,1.38-1.38A1.4,1.4,0,0,0,133.66,134.15Z" fill="#ffc4b0"/><path d="M168.77,145.21l.67,23.79s15-4.35,15.78-4.94.13-25.32-.39-25.8" fill="#3363a8"/><path d="M152.58,155.91c0,3.33,2.93,7.16,5.4,7.8-.17-1.16-.39-3.52-.39-12.08,0-6,.67-15.3.73-21.29.05-5.37-.44-14,1.41-19.12.28-.77,3-7.45,4.34-6.88-1.58-.7,0,0,0,0a6.34,6.34,0,0,0-2.14-1.22c-2.09.63-3.64.33-4.94,2.12a15.9,15.9,0,0,0-2.23,7.28,114.32,114.32,0,0,0,.19,11.43C155.19,128.31,152.28,151.57,152.58,155.91Z" fill="#3363a8"/><path d="M169.31,104.61l3.11,2.51s-7.14,6.79-7.72,6.73-1.13-3.51-1.13-3.51-1.59,3.08-1.91,2.65.43-8.14.43-8.14Z" fill="#cacccc"/><path d="M163.08,107.55a5.47,5.47,0,0,0,2.59.75c2.91.16,4.64-2.93,5.76-5.15a19.75,19.75,0,0,0,2.39-8.43,4.48,4.48,0,0,0-.17-1.42c-1.1-3.33-13.06-5.82-13.74.76C159.5,98,159.18,105.19,163.08,107.55Z" fill="#ffc4b0"/><path d="M172.4,98.3a2.92,2.92,0,0,0-2.23.85,3.75,3.75,0,0,0-1.17,2.23.79.79,0,0,0,.41.88,1,1,0,0,0,1.47.31,8.29,8.29,0,0,0,2.08-1.94C173.49,99.88,173.57,98.52,172.4,98.3Z" fill="#ffc4b0"/><path d="M176.81,90.23a5,5,0,0,0-2.26-3.51A5.53,5.53,0,0,0,170,86a5,5,0,0,0-2.56-2.14,5.1,5.1,0,0,0-5.52,1.67A7.55,7.55,0,0,0,157,86.7a5.94,5.94,0,0,0-2.49,4.62,3.64,3.64,0,0,0,0,.8,4.48,4.48,0,0,0,.05,1.42c.62,3.26,3.45,4.05,5.17,4.23-.27-1.76,0-5.16,2-4.27a.79.79,0,0,1,.33.08c1.28.61.22,2.38,2.08,2.62s2.91-1.17,4.61.5-2,3.53,1.92,6.58a6.4,6.4,0,0,0,.08.66c0-.26,1.57-1.7,1.79-2,.64-.74,1.25-1.51,1.83-2.31a15.1,15.1,0,0,0,2.47-4.33A10.83,10.83,0,0,0,176.81,90.23Z" fill="#56403d"/><path d="M172,100.62c.18-1.16-.72-1.82-1.65-1.33a4.75,4.75,0,0,0-2.31,3.9,1.1,1.1,0,0,0,.32.86,1.05,1.05,0,0,0,.16.24,1.07,1.07,0,0,0,1.6-.08A6.21,6.21,0,0,0,172,100.62Z" fill="#ffc4b0"/><path d="M161.81,99c-.38-.07-3.92-1.36-3.92-1.36s-.13,3.52,1.74,4.33S161.81,99,161.81,99Z" fill="none" stroke="#333" stroke-miterlimit="10" stroke-width="0.75"/><path d="M163.67,99.62l4.14,1.41s0,3.5-2.71,2.92S163.67,99.62,163.67,99.62Z" fill="none" stroke="#333" stroke-miterlimit="10" stroke-width="0.75"/><path d="M169.72,99.14l-2,1.72c-.25.22.12.57.37.35l2-1.72C170.33,99.28,170,98.93,169.72,99.14Z" fill="#333"/><path d="M162.19,103.94c-.32,0-.79-.13-.78-.52a2.42,2.42,0,0,1,.29-.69c.19-.44.41-.86.63-1.28a.26.26,0,0,0-.45-.25c-.23.42-.44.84-.63,1.28a2.94,2.94,0,0,0-.38,1.08c0,.61.86.85,1.34.88C162.53,104.48,162.52,104,162.19,103.94Z" fill="#333"/><path d="M163.83,99.41a18.28,18.28,0,0,1-2.18-.6c-.31-.11-.43.39-.12.5a18.28,18.28,0,0,0,2.18.6C164,100,164.15,99.48,163.83,99.41Z" fill="#333"/><path d="M157.58,115.71l3.11,19.06s8.12-25.16,9.48-25.52-.73,59.76-.73,59.76l-6.61-3.43-.69-7.72s-1.29,7.23-1.71,7.66-8.38-1.32-10.68-5.24C149.14,159.24,157.58,115.71,157.58,115.71Z" fill="#3363a8"/><path d="M153.43,147.76S142,207,140.94,240.63c2.78,1.3,7.54,3.8,13.42,4,4.32.18,4.82-1.12,6.64-2.12-.23-3.92,2.23-36,2.53-37.24S169,183.8,169,183.8c-2.9-13.44-5-27.06-4.94-40.86l-10.68,4.82" fill="#3363a8"/><path d="M172.19,183.14s-1.83-11.22,6-14.12c5.35-2,6.9,9.07,6.9,9.07l3.77-1.63s-2.06-12.61-9.61-12.28-12.86,11.39-11.92,21.57Z" fill="#ffc050"/><path d="M160.83,188.2l31.63-17.46a2.13,2.13,0,0,1,3.16,1.87v30.15a2.13,2.13,0,0,1-1.08,1.85l-32.61,18.57a2.13,2.13,0,0,1-3.18-1.92l1-31.26A2.13,2.13,0,0,1,160.83,188.2Z" fill="#ffc050"/><ellipse cx="179.46" cy="196.53" rx="5.29" ry="2.26" transform="translate(-45.32 339.02) rotate(-79.97)" fill="#fff"/><path d="M183.06,168.51a46.71,46.71,0,0,0-.86-6.34,47.48,47.48,0,0,0-.55-7.28,70.35,70.35,0,0,0-7.88.12c0,1.31,0,2.61-.08,3.92q-.45,1.44-.8,2.9a1.29,1.29,0,0,0-.37.51,23.84,23.84,0,0,0-2.29,7.83,1.41,1.41,0,0,0,2.61.69q.6-1.32,1.12-2.67,0,1.83.05,3.66a1.43,1.43,0,0,0,1.41,1.38,1.7,1.7,0,0,0,1.67-1,1.65,1.65,0,0,0,1.93.57,2.37,2.37,0,0,0,1.2-1.38,1.81,1.81,0,0,0,1.65,0C183,170.92,183.13,169.65,183.06,168.51Z" fill="#ffc4b0"/><path d="M180.45,112.71c-1.34-2.91-5.41-4.3-8.67-6.16a.52.52,0,0,1-.2.49c-2.16,1.83-2.91,4.78-3.34,7.47a64.41,64.41,0,0,0-.7,9.21c-.11,7.19,1.14,14.32,1.25,21.5a15.69,15.69,0,0,0,3.31.43c.67-.12,0,7-.49,12.16a51.15,51.15,0,0,0,5.56,1.1h0c1.34.19,2.68.31,4,.37.81,0,1.63,0,2.45,0C187.28,137.87,183.3,118.89,180.45,112.71Z" fill="#3363a8"/><polygon points="161.76 112.46 158.66 132.36 160.43 136.94 164.86 131.22 164.81 113.81 163.63 109.87 161.76 112.46" fill="#56403d"/><path d="M163.07,185.78q-2.56-7.21-4.41-14.65a.23.23,0,0,0-.44.12q1.85,7.43,4.41,14.65C162.72,186.18,163.17,186.06,163.07,185.78Z" fill="#d2efff"/><polygon points="371.82 154.64 371.82 186.86 315.11 219.9 315.11 181.88 371.82 154.64" fill="#ffc050"/><polyline points="290.1 204.83 290.1 172.2 315.11 186.64 315.11 219.9" fill="#6de2fc"/><polygon points="315.11 219.9 315.11 186.64 290.1 172.2 290.1 204.83 315.11 219.9" fill="#146666"/><polygon points="314.87 187.03 289.92 172.62 348.23 139.45 371.82 154.64 314.87 187.03" fill="#fff"/><path d="M344.68,140.7c-3.74-.32-7.69-1.46-10.45-4v11.1a11.52,11.52,0,0,0,11.52,11.52h0a11.52,11.52,0,0,0,11.52-11.52V136.49C353.33,138.09,348.87,141.06,344.68,140.7Z" fill="#68e1fd"/><ellipse cx="345.74" cy="136.61" rx="11.52" ry="6.1" fill="#5ed18d"/><path d="M345.74,137.64s-7.83-1.15-9.91-13.82C335.84,123.82,342.52,127.51,345.74,137.64Z" fill="#5ed18d"/><path d="M346.89,136s-9-16.12,0-27A45.18,45.18,0,0,1,346.89,136Z" fill="#5ed18d"/><path d="M345.74,125.9s-7.83-1.15-9.91-13.82C335.84,112.07,342.52,115.76,345.74,125.9Z" fill="#5ed18d"/><path d="M346.69,131.06s-2-7.67,8.92-14.47C355.62,116.58,354.8,124.17,346.69,131.06Z" fill="#5ed18d"/><ellipse cx="345.74" cy="136.61" rx="11.52" ry="6.1" fill="#146666"/><path d="M345.74,137.64s-7.83-1.15-9.91-13.82C335.84,123.82,342.52,127.51,345.74,137.64Z" fill="#5ed18d"/><path d="M346.89,136s-9-16.12,0-27A45.18,45.18,0,0,1,346.89,136Z" fill="#5ed18d"/><path d="M345.74,125.9s-7.83-1.15-9.91-13.82C335.84,112.07,342.52,115.76,345.74,125.9Z" fill="#5ed18d"/><path d="M346.69,131.06s-2-7.67,8.92-14.47C355.62,116.58,354.8,124.17,346.69,131.06Z" fill="#5ed18d"/><ellipse cx="317.35" cy="169.54" rx="14.75" ry="8.64" fill="#ff912e"/><polygon points="302.61 169.54 302.61 167.04 304.21 169.04 302.61 169.54" fill="#e0944f"/><polygon points="332.1 167.04 332.1 169.54 330.23 169.54 331.6 167.54 332.1 167.04" fill="#e0944f"/><ellipse cx="317.35" cy="167.04" rx="14.75" ry="8.64" fill="#ffb92c"/><path d="M324.83,165.89a1.15,1.15,0,0,1,.12.65l-.06.23-2.69,0a1.22,1.22,0,0,0,.05-.23,1,1,0,0,0-.16-.49,1.47,1.47,0,0,0-.65-.6,3,3,0,0,0-1.26-.33,2.73,2.73,0,0,0-1.2.18q-.57.24-.44.64a2.33,2.33,0,0,0,.57.84,10.25,10.25,0,0,1,.82.94,1,1,0,0,1,.15,1,2.32,2.32,0,0,1-1.31,1,7.74,7.74,0,0,1-2.85.59,9.13,9.13,0,0,1-3.12-.44l-1.55.67-1.82-.88,1.51-.65a3.4,3.4,0,0,1-.72-.65,1.92,1.92,0,0,1-.36-.6,2,2,0,0,1-.09-.49,1.05,1.05,0,0,1,0-.34l.05-.13h2.69a2.15,2.15,0,0,0-.07.27,1.15,1.15,0,0,0,.22.61,2,2,0,0,0,.89.76,3.83,3.83,0,0,0,1.56.41,3.26,3.26,0,0,0,1.44-.23q.56-.24.42-.63a2.33,2.33,0,0,0-.6-.84,8.62,8.62,0,0,1-.82-.94,1,1,0,0,1-.11-1,2.51,2.51,0,0,1,1.37-1,7.41,7.41,0,0,1,2.74-.54,7.9,7.9,0,0,1,2.92.45l1.55-.66,1.69.92-1.55.67A2.2,2.2,0,0,1,324.83,165.89Z" fill="#ea8b24"/><ellipse cx="317.38" cy="167.15" rx="12.38" ry="7.25" fill="none" stroke="#f7931e" stroke-miterlimit="10" stroke-width="6"/><ellipse cx="317.35" cy="164.78" rx="14.75" ry="8.64" fill="#ff912e"/><polygon points="302.61 164.78 302.61 162.28 304.21 164.28 302.61 164.78" fill="#e0944f"/><polygon points="332.1 162.28 332.1 164.78 330.23 164.78 331.6 162.78 332.1 162.28" fill="#e0944f"/><ellipse cx="317.35" cy="162.28" rx="14.75" ry="8.64" fill="#ffb92c"/><path d="M324.83,161.13a1.15,1.15,0,0,1,.12.65l-.06.23-2.69,0a1.22,1.22,0,0,0,.05-.23,1,1,0,0,0-.16-.49,1.47,1.47,0,0,0-.65-.6,3,3,0,0,0-1.26-.33,2.73,2.73,0,0,0-1.2.18q-.57.24-.44.64a2.33,2.33,0,0,0,.57.84,10.25,10.25,0,0,1,.82.94,1,1,0,0,1,.15,1,2.32,2.32,0,0,1-1.31,1,7.74,7.74,0,0,1-2.85.59,9.13,9.13,0,0,1-3.12-.44l-1.55.67-1.82-.88,1.51-.65a3.4,3.4,0,0,1-.72-.65,1.92,1.92,0,0,1-.36-.6,2,2,0,0,1-.09-.49,1.05,1.05,0,0,1,0-.34l.05-.13h2.69a2.15,2.15,0,0,0-.07.27,1.15,1.15,0,0,0,.22.61,2,2,0,0,0,.89.76,3.83,3.83,0,0,0,1.56.41,3.26,3.26,0,0,0,1.44-.23q.56-.24.42-.63a2.33,2.33,0,0,0-.6-.84,8.62,8.62,0,0,1-.82-.94,1,1,0,0,1-.11-1,2.51,2.51,0,0,1,1.37-1,7.41,7.41,0,0,1,2.74-.54,7.9,7.9,0,0,1,2.92.45l1.55-.66,1.69.92-1.55.67A2.2,2.2,0,0,1,324.83,161.13Z" fill="#ea8b24"/><ellipse cx="317.38" cy="162.39" rx="12.38" ry="7.25" fill="none" stroke="#f7931e" stroke-miterlimit="10" stroke-width="2"/><ellipse cx="311.59" cy="161.14" rx="14.75" ry="8.64" fill="#ff912e"/><polygon points="296.84 161.14 296.84 158.65 298.45 160.64 296.84 161.14" fill="#e0944f"/><polygon points="326.34 158.65 326.34 161.14 324.46 161.14 325.83 159.14 326.34 158.65" fill="#e0944f"/><ellipse cx="311.59" cy="158.65" rx="14.75" ry="8.64" fill="#ffb92c"/><path d="M319.07,157.49a1.15,1.15,0,0,1,.12.65l-.06.23-2.69,0a1.22,1.22,0,0,0,.05-.23,1,1,0,0,0-.16-.49,1.47,1.47,0,0,0-.65-.6,3,3,0,0,0-1.26-.33,2.73,2.73,0,0,0-1.2.18q-.57.24-.44.64a2.33,2.33,0,0,0,.57.84,10.25,10.25,0,0,1,.82.94,1,1,0,0,1,.15,1,2.32,2.32,0,0,1-1.31,1,7.74,7.74,0,0,1-2.85.59,9.13,9.13,0,0,1-3.12-.44l-1.55.67-1.82-.88,1.51-.65a3.4,3.4,0,0,1-.72-.65,1.92,1.92,0,0,1-.36-.6A2,2,0,0,1,304,159a1.05,1.05,0,0,1,0-.34l.05-.13h2.69a2.15,2.15,0,0,0-.07.27,1.15,1.15,0,0,0,.22.61,2,2,0,0,0,.89.76,3.83,3.83,0,0,0,1.56.41,3.26,3.26,0,0,0,1.44-.23q.56-.24.42-.63a2.33,2.33,0,0,0-.6-.84,8.62,8.62,0,0,1-.82-.94,1,1,0,0,1-.11-1,2.51,2.51,0,0,1,1.37-1,7.41,7.41,0,0,1,2.74-.54,7.9,7.9,0,0,1,2.92.45l1.55-.66L320,156l-1.55.67A2.2,2.2,0,0,1,319.07,157.49Z" fill="#ea8b24"/><ellipse cx="311.61" cy="158.75" rx="12.38" ry="7.25" fill="none" stroke="#f7931e" stroke-miterlimit="10" stroke-width="2"/><ellipse cx="70.09" cy="205.17" rx="14.75" ry="8.64" fill="#ff912e"/><polygon points="55.34 205.17 55.34 202.67 56.95 204.67 55.34 205.17" fill="#e0944f"/><polygon points="84.83 202.67 84.83 205.17 82.96 205.17 84.33 203.16 84.83 202.67" fill="#e0944f"/><ellipse cx="70.09" cy="202.67" rx="14.75" ry="8.64" fill="#ffb92c"/><path d="M77.57,201.52a1.15,1.15,0,0,1,.12.65l-.06.23-2.69,0a1.22,1.22,0,0,0,.05-.23,1,1,0,0,0-.16-.49,1.47,1.47,0,0,0-.65-.6,3,3,0,0,0-1.26-.33,2.73,2.73,0,0,0-1.2.18q-.57.24-.44.64a2.33,2.33,0,0,0,.57.84,10.25,10.25,0,0,1,.82.94,1,1,0,0,1,.15,1,2.32,2.32,0,0,1-1.31,1,7.74,7.74,0,0,1-2.85.59,9.13,9.13,0,0,1-3.12-.44l-1.55.67-1.82-.88,1.51-.65a3.4,3.4,0,0,1-.72-.65,1.92,1.92,0,0,1-.36-.6,2,2,0,0,1-.09-.49,1.05,1.05,0,0,1,0-.34l.05-.13h2.69a2.15,2.15,0,0,0-.07.27,1.15,1.15,0,0,0,.22.61,2,2,0,0,0,.89.76,3.83,3.83,0,0,0,1.56.41,3.26,3.26,0,0,0,1.44-.23q.56-.24.42-.63a2.33,2.33,0,0,0-.6-.84,8.62,8.62,0,0,1-.82-.94,1,1,0,0,1-.11-1,2.51,2.51,0,0,1,1.37-1,7.41,7.41,0,0,1,2.74-.54,7.9,7.9,0,0,1,2.92.45l1.55-.66,1.69.92-1.55.67A2.2,2.2,0,0,1,77.57,201.52Z" fill="#ea8b24"/><ellipse cx="70.11" cy="202.78" rx="12.38" ry="7.25" fill="none" stroke="#f7931e" stroke-miterlimit="10" stroke-width="6"/><ellipse cx="70.09" cy="200.41" rx="14.75" ry="8.64" fill="#ff912e"/><polygon points="55.34 200.41 55.34 197.91 56.95 199.91 55.34 200.41" fill="#e0944f"/><polygon points="84.83 197.91 84.83 200.41 82.96 200.41 84.33 198.41 84.83 197.91" fill="#e0944f"/><ellipse cx="70.09" cy="197.91" rx="14.75" ry="8.64" fill="#ffb92c"/><path d="M77.57,196.76a1.15,1.15,0,0,1,.12.65l-.06.23-2.69,0a1.22,1.22,0,0,0,.05-.23,1,1,0,0,0-.16-.49,1.47,1.47,0,0,0-.65-.6,3,3,0,0,0-1.26-.33,2.73,2.73,0,0,0-1.2.18q-.57.24-.44.64a2.33,2.33,0,0,0,.57.84,10.25,10.25,0,0,1,.82.94,1,1,0,0,1,.15,1,2.32,2.32,0,0,1-1.31,1,7.74,7.74,0,0,1-2.85.59,9.13,9.13,0,0,1-3.12-.44l-1.55.67-1.82-.88,1.51-.65a3.4,3.4,0,0,1-.72-.65,1.92,1.92,0,0,1-.36-.6,2,2,0,0,1-.09-.49,1.05,1.05,0,0,1,0-.34l.05-.13h2.69a2.15,2.15,0,0,0-.07.27,1.15,1.15,0,0,0,.22.61,2,2,0,0,0,.89.76,3.83,3.83,0,0,0,1.56.41,3.26,3.26,0,0,0,1.44-.23q.56-.24.42-.63a2.33,2.33,0,0,0-.6-.84,8.62,8.62,0,0,1-.82-.94,1,1,0,0,1-.11-1,2.51,2.51,0,0,1,1.37-1,7.41,7.41,0,0,1,2.74-.54,7.9,7.9,0,0,1,2.92.45l1.55-.66,1.69.92-1.55.67A2.2,2.2,0,0,1,77.57,196.76Z" fill="#ea8b24"/><ellipse cx="70.11" cy="198.02" rx="12.38" ry="7.25" fill="none" stroke="#f7931e" stroke-miterlimit="10" stroke-width="6"/><ellipse cx="70.09" cy="195.63" rx="14.75" ry="8.64" fill="#ff912e"/><polygon points="55.34 195.63 55.34 193.13 56.95 195.13 55.34 195.63" fill="#e0944f"/><polygon points="84.83 193.13 84.83 195.63 82.96 195.63 84.33 193.63 84.83 193.13" fill="#e0944f"/><ellipse cx="70.09" cy="193.14" rx="14.75" ry="8.64" fill="#ffb92c"/><path d="M77.57,192a1.15,1.15,0,0,1,.12.65l-.06.23-2.69,0a1.22,1.22,0,0,0,.05-.23,1,1,0,0,0-.16-.49,1.47,1.47,0,0,0-.65-.6,3,3,0,0,0-1.26-.33,2.73,2.73,0,0,0-1.2.18q-.57.24-.44.64a2.33,2.33,0,0,0,.57.84,10.25,10.25,0,0,1,.82.94,1,1,0,0,1,.15,1,2.32,2.32,0,0,1-1.31,1,7.74,7.74,0,0,1-2.85.59,9.13,9.13,0,0,1-3.12-.44l-1.55.67-1.82-.88,1.51-.65a3.4,3.4,0,0,1-.72-.65,1.92,1.92,0,0,1-.36-.6,2,2,0,0,1-.09-.49,1.05,1.05,0,0,1,0-.34l.05-.13h2.69a2.15,2.15,0,0,0-.07.27,1.15,1.15,0,0,0,.22.61,2,2,0,0,0,.89.76,3.83,3.83,0,0,0,1.56.41,3.26,3.26,0,0,0,1.44-.23q.56-.24.42-.63a2.33,2.33,0,0,0-.6-.84,8.62,8.62,0,0,1-.82-.94,1,1,0,0,1-.11-1,2.51,2.51,0,0,1,1.37-1,7.41,7.41,0,0,1,2.74-.54,7.9,7.9,0,0,1,2.92.45l1.55-.66,1.69.92-1.55.67A2.2,2.2,0,0,1,77.57,192Z" fill="#ea8b24"/><ellipse cx="70.11" cy="193.24" rx="12.38" ry="7.25" fill="none" stroke="#f7931e" stroke-miterlimit="10" stroke-width="6"/><ellipse cx="70.09" cy="192.1" rx="14.75" ry="8.64" fill="#ff912e"/><polygon points="55.34 192.1 55.34 189.6 56.95 191.6 55.34 192.1" fill="#e0944f"/><polygon points="84.83 189.6 84.83 192.1 82.96 192.1 84.33 190.09 84.83 189.6" fill="#e0944f"/><ellipse cx="70.09" cy="189.6" rx="14.75" ry="8.64" fill="#ffb92c"/><path d="M77.57,188.45a1.15,1.15,0,0,1,.12.65l-.06.23-2.69,0a1.22,1.22,0,0,0,.05-.23,1,1,0,0,0-.16-.49,1.47,1.47,0,0,0-.65-.6,3,3,0,0,0-1.26-.33,2.73,2.73,0,0,0-1.2.18q-.57.24-.44.64a2.33,2.33,0,0,0,.57.84,10.25,10.25,0,0,1,.82.94,1,1,0,0,1,.15,1,2.32,2.32,0,0,1-1.31,1,7.74,7.74,0,0,1-2.85.59,9.13,9.13,0,0,1-3.12-.44l-1.55.67-1.82-.88,1.51-.65a3.4,3.4,0,0,1-.72-.65,1.92,1.92,0,0,1-.36-.6,2,2,0,0,1-.09-.49,1.05,1.05,0,0,1,0-.34l.05-.13h2.69a2.15,2.15,0,0,0-.07.27,1.15,1.15,0,0,0,.22.61,2,2,0,0,0,.89.76,3.83,3.83,0,0,0,1.56.41,3.26,3.26,0,0,0,1.44-.23q.56-.24.42-.63a2.33,2.33,0,0,0-.6-.84,8.62,8.62,0,0,1-.82-.94,1,1,0,0,1-.11-1,2.51,2.51,0,0,1,1.37-1,7.41,7.41,0,0,1,2.74-.54,7.9,7.9,0,0,1,2.92.45l1.55-.66,1.69.92-1.55.67A2.2,2.2,0,0,1,77.57,188.45Z" fill="#ea8b24"/><ellipse cx="70.11" cy="189.71" rx="12.38" ry="7.25" fill="none" stroke="#f7931e" stroke-miterlimit="10" stroke-width="6"/><ellipse cx="72.48" cy="187.32" rx="14.75" ry="8.64" fill="#ff912e"/><polygon points="57.73 187.32 57.73 184.82 59.34 186.82 57.73 187.32" fill="#e0944f"/><polygon points="87.23 184.82 87.23 187.32 85.36 187.32 86.73 185.32 87.23 184.82" fill="#e0944f"/><ellipse cx="72.48" cy="184.82" rx="14.75" ry="8.64" fill="#ffb92c"/><path d="M80,183.67a1.15,1.15,0,0,1,.12.65l-.06.23-2.69,0a1.22,1.22,0,0,0,.05-.23,1,1,0,0,0-.16-.49,1.47,1.47,0,0,0-.65-.6,3,3,0,0,0-1.26-.33,2.73,2.73,0,0,0-1.2.18q-.57.24-.44.64a2.33,2.33,0,0,0,.57.84,10.25,10.25,0,0,1,.82.94,1,1,0,0,1,.15,1,2.32,2.32,0,0,1-1.31,1,7.74,7.74,0,0,1-2.85.59,9.13,9.13,0,0,1-3.12-.44l-1.55.67-1.82-.88,1.51-.65a3.4,3.4,0,0,1-.72-.65,1.92,1.92,0,0,1-.36-.6,2,2,0,0,1-.09-.49,1.05,1.05,0,0,1,0-.34l.05-.13h2.69a2.15,2.15,0,0,0-.07.27,1.15,1.15,0,0,0,.22.61,2,2,0,0,0,.89.76,3.83,3.83,0,0,0,1.56.41,3.26,3.26,0,0,0,1.44-.23q.56-.24.42-.63a2.33,2.33,0,0,0-.6-.84,8.62,8.62,0,0,1-.82-.94,1,1,0,0,1-.11-1A2.51,2.51,0,0,1,72,182a7.41,7.41,0,0,1,2.74-.54,7.9,7.9,0,0,1,2.92.45l1.55-.66,1.69.92-1.55.67A2.2,2.2,0,0,1,80,183.67Z" fill="#ea8b24"/><ellipse cx="72.51" cy="184.93" rx="12.38" ry="7.25" fill="none" stroke="#f7931e" stroke-miterlimit="10" stroke-width="3"/><ellipse cx="77.71" cy="182.21" rx="14.75" ry="8.64" fill="#ff912e"/><polygon points="62.96 182.21 62.96 179.72 64.56 181.71 62.96 182.21" fill="#e0944f"/><polygon points="92.45 179.72 92.45 182.21 90.58 182.21 91.95 180.21 92.45 179.72" fill="#e0944f"/><ellipse cx="77.71" cy="179.72" rx="14.75" ry="8.64" fill="#ffb92c"/><path d="M85.19,178.56a1.15,1.15,0,0,1,.12.65l-.06.23-2.69,0a1.22,1.22,0,0,0,.05-.23,1,1,0,0,0-.16-.49,1.47,1.47,0,0,0-.65-.6,3,3,0,0,0-1.26-.33,2.73,2.73,0,0,0-1.2.18q-.57.24-.44.64a2.33,2.33,0,0,0,.57.84,10.25,10.25,0,0,1,.82.94,1,1,0,0,1,.15,1,2.32,2.32,0,0,1-1.31,1,7.74,7.74,0,0,1-2.85.59,9.13,9.13,0,0,1-3.12-.44l-1.55.67-1.82-.88,1.51-.65a3.4,3.4,0,0,1-.72-.65,1.92,1.92,0,0,1-.36-.6,2,2,0,0,1-.09-.49,1.05,1.05,0,0,1,0-.34l.05-.13h2.69a2.15,2.15,0,0,0-.07.27,1.15,1.15,0,0,0,.22.61,2,2,0,0,0,.89.76,3.83,3.83,0,0,0,1.56.41,3.26,3.26,0,0,0,1.44-.23q.56-.24.42-.63a2.33,2.33,0,0,0-.6-.84,8.62,8.62,0,0,1-.82-.94,1,1,0,0,1-.11-1,2.51,2.51,0,0,1,1.37-1,7.41,7.41,0,0,1,2.74-.54,7.9,7.9,0,0,1,2.92.45l1.55-.66,1.69.92-1.55.67A2.2,2.2,0,0,1,85.19,178.56Z" fill="#ea8b24"/><ellipse cx="77.73" cy="179.82" rx="12.38" ry="7.25" fill="none" stroke="#f7931e" stroke-miterlimit="10" stroke-width="2"/><ellipse cx="70.55" cy="174.94" rx="14.75" ry="8.64" fill="#ff912e"/><polygon points="55.8 174.94 55.8 172.44 57.41 174.44 55.8 174.94" fill="#e0944f"/><polygon points="85.3 172.44 85.3 174.94 83.42 174.94 84.8 172.94 85.3 172.44" fill="#e0944f"/><ellipse cx="70.55" cy="172.45" rx="14.75" ry="8.64" fill="#ffb92c"/><path d="M78,171.29a1.15,1.15,0,0,1,.12.65l-.06.23-2.69,0a1.22,1.22,0,0,0,.05-.23,1,1,0,0,0-.16-.49,1.47,1.47,0,0,0-.65-.6,3,3,0,0,0-1.26-.33,2.73,2.73,0,0,0-1.2.18q-.57.24-.44.64a2.33,2.33,0,0,0,.57.84,10.25,10.25,0,0,1,.82.94,1,1,0,0,1,.15,1,2.32,2.32,0,0,1-1.31,1,7.74,7.74,0,0,1-2.85.59,9.13,9.13,0,0,1-3.12-.44l-1.55.67-1.82-.88,1.51-.65a3.4,3.4,0,0,1-.72-.65,1.92,1.92,0,0,1-.36-.6,2,2,0,0,1-.09-.49,1.05,1.05,0,0,1,0-.34l.05-.13h2.69a2.15,2.15,0,0,0-.07.27,1.15,1.15,0,0,0,.22.61,2,2,0,0,0,.89.76,3.83,3.83,0,0,0,1.56.41,3.26,3.26,0,0,0,1.44-.23q.56-.24.42-.63a2.33,2.33,0,0,0-.6-.84,8.62,8.62,0,0,1-.82-.94,1,1,0,0,1-.11-1,2.51,2.51,0,0,1,1.37-1,7.41,7.41,0,0,1,2.74-.54,7.9,7.9,0,0,1,2.92.45l1.55-.66,1.69.92-1.55.67A2.2,2.2,0,0,1,78,171.29Z" fill="#ea8b24"/><ellipse cx="70.58" cy="172.55" rx="12.38" ry="7.25" fill="none" stroke="#f7931e" stroke-miterlimit="10" stroke-width="2"/><polygon points="290.1 204.83 262.32 223.46 286.88 237.58 315.11 219.9 290.1 204.83" fill="url(#linear-gradient-4)"/><polygon points="192.12 111.41 192.15 116.95 195.01 117.41 192.12 111.41" fill="#56403d"/><path d="M193.2,113.88l41.31,24a2.2,2.2,0,0,0,2.28,0l59-37.11a2.2,2.2,0,0,0-.13-3.8L255.55,75.29a2.2,2.2,0,0,0-2.14,0l-60.2,34.75A2.2,2.2,0,0,0,193.2,113.88Z" fill="#ffc050"/><path d="M241.32,74.69l29.39-17A1.54,1.54,0,0,1,273,59.06V81.49a2.45,2.45,0,0,1-1.24,2.13L242.84,100a1.84,1.84,0,0,1-2.8-1.57V76.91A2.56,2.56,0,0,1,241.32,74.69Z" fill="#56403d"/><polygon points="229.47 130.68 243.04 122.6 227.1 113.19 213.15 121.27 229.47 130.68" fill="#56403d"/><polygon points="235.4 130.06 248.97 121.98 233.03 112.57 219.08 120.66 235.4 130.06" fill="#68e1fd"/><polygon points="210.89 115.36 213.61 117.15 228.38 108.64 225.56 106.89 210.89 115.36" fill="#56403d"/><polyline points="255.86 88.83 255.86 98.43 262.52 94.85 262.52 85.42" fill="#56403d"/><ellipse cx="257.65" cy="96.95" rx="11.3" ry="2.69" transform="translate(-16.37 123.33) rotate(-26.12)" fill="#56403d"/></svg>