<svg xmlns="http://www.w3.org/2000/svg" xmlns:xlink="http://www.w3.org/1999/xlink" viewBox="0 0 400 300"><defs><linearGradient id="linear-gradient" x1="180.67" y1="271.75" x2="159.71" y2="249.52" gradientTransform="matrix(-1, 0, 0, 1, 382.61, 0)" gradientUnits="userSpaceOnUse"><stop offset="0" stop-color="#fff" stop-opacity="0"/><stop offset="1" stop-color="#9e005d"/></linearGradient><linearGradient id="linear-gradient-2" x1="274.42" y1="214.61" x2="253.46" y2="192.39" xlink:href="#linear-gradient"/><linearGradient id="linear-gradient-3" x1="227.12" y1="243.32" x2="206.16" y2="221.09" xlink:href="#linear-gradient"/><linearGradient id="linear-gradient-4" x1="169.54" y1="149.05" x2="182.83" y2="136.92" gradientTransform="matrix(1, 0, 0, 1, 0, 0)" xlink:href="#linear-gradient"/><linearGradient id="linear-gradient-5" x1="145.89" y1="149.02" x2="161.01" y2="136.39" gradientUnits="userSpaceOnUse"><stop offset="0" stop-color="#fff" stop-opacity="0"/><stop offset="1" stop-color="#009245"/></linearGradient></defs><g style="isolation:isolate"><g id="Layer_2" data-name="Layer 2"><polyline points="208.86 145.12 208.86 243.66 241.86 265.48 279.19 244.06 279.19 142.31" opacity="0.3"/><polygon points="241.86 163.66 241.86 265.48 279.19 244.06 279.19 142.31 241.86 163.66" opacity="0.3"/><polygon points="208.86 145.12 246.45 123.41 279.19 142.31 241.86 163.66 208.86 145.12" opacity="0.3"/><path d="M333.32,227.31,228,288.28a22.08,22.08,0,0,1-22.11,0L69.69,209.66a11.38,11.38,0,0,1,0-19.72L178,127.81a17.91,17.91,0,0,1,17.9,0l137.46,79.78A11.38,11.38,0,0,1,333.32,227.31Z" fill="#f0633f"/><path d="M209.39,245.29l34.95,18.05-35.61,22.34h-.93c-14.42-8-24.18-13.85-34.43-20.18C186.62,258.43,197.13,253.92,209.39,245.29Z" opacity="0.63" fill="url(#linear-gradient)" style="mix-blend-mode:multiply"/><polyline points="208.86 145.12 208.86 243.66 241.86 265.48 279.19 244.06 279.19 142.31" opacity="0.18"/><path d="M115.65,188.15l34.95,18.05L115,228.53h-.93c-14.42-8-24.18-13.85-34.43-20.18C92.87,201.29,103.38,196.78,115.65,188.15Z" opacity="0.63" fill="url(#linear-gradient-2)" style="mix-blend-mode:multiply"/><path d="M162.95,216.86l34.95,18.05-35.61,22.34h-.93c-14.42-8-24.18-13.85-34.43-20.18C140.17,230,150.69,225.49,162.95,216.86Z" opacity="0.63" fill="url(#linear-gradient-3)" style="mix-blend-mode:multiply"/><polyline points="115.7 145.12 115.7 188.94 148.7 207.19 186.03 187.73 186.03 142.31" fill="#8bd346"/><polygon points="148.7 163.66 148.7 207.19 186.03 187.73 186.03 142.31 148.7 163.66" fill="#72b22f"/><polygon points="115.7 145.12 153.29 123.41 186.03 142.31 148.7 163.66 115.7 145.12" fill="#72b22f"/><polyline points="161.67 146.59 161.67 217.87 194.67 237.05 232.01 215.13 232.01 143.79" fill="#f49992"/><polygon points="194.67 165.14 194.67 237.05 232.01 215.78 232.01 143.79 194.67 165.14" fill="#ea6b65"/><polygon points="161.67 146.59 199.27 124.89 232.01 143.79 194.67 165.14 161.67 146.59" fill="#ffc8c2"/><polyline points="208.86 145.12 208.86 243.66 241.86 265.48 279.19 244.06 279.19 142.31" fill="#68e1fd"/><polygon points="241.86 163.66 241.86 265.48 279.19 244.06 279.19 142.31 241.86 163.66" fill="#68e1fd"/><polyline points="208.86 145.12 208.86 243.66 241.86 265.48 279.19 244.06 279.19 142.31" opacity="0.12"/><polygon points="241.86 163.66 241.86 265.48 279.19 244.06 279.19 142.31 241.86 163.66" fill="#68e1fd"/><polygon points="241.86 163.66 241.86 265.48 279.19 244.06 279.19 142.31 241.86 163.66" opacity="0.31"/><path d="M171.78,152.27l16.52-10.71-8.11-5.82c-7.4,4.53-12.16,6.92-18.51,10.86C164.9,148.26,168.51,150.68,171.78,152.27Z" opacity="0.63" fill="url(#linear-gradient-4)" style="mix-blend-mode:multiply"/><path d="M191.43,85.82c-.16.24-.05,3,.44,3.5s1.87,2.13,2.31,1.86-.71-2.36-.49-2.66,1.54,1.34,1.59,1.89,1,3.57,1.7,3.46,1.92-2.88,1.87-4-2.25-6.09-2.25-6.09" fill="#ef986c"/><path d="M191,85.82s.37,1.14.37,1.14,5.42-1.3,6.14-1.68L197,83.57" fill="#fff"/><path d="M198,83.89c-2.51-10.51-4.66-21.13-6.87-31.7l-.09-.42L184.83,62.9c.88,3.72,3,16.6,4.75,22.9C193,85.9,195.3,85.73,198,83.89Z" fill="#2a343d"/><path d="M152.17,95.41a6.18,6.18,0,0,0-1.64-7.47c-3.83-3.23-6.24,4.37-6.24,4.37l-1.93-1.6s1.34-8.42,8.91-5.31,3.4,11.71,3.4,11.71Z" fill="#ce4823"/><path d="M149.74,82.34l.15-.26a.72.72,0,0,1,.08-.29l3.18-6.39a.53.53,0,0,1,.51-.33,6.28,6.28,0,0,1,.59-1.13,1.73,1.73,0,0,1,2,.3c.44-.25,1.17-.07,1.06.57s-.26,1.52-.41,2.28l0,0,.14-.21a.63.63,0,0,1,.4-.29c.34-.49.65-1,1-1.49.46-.75,1.6,0,1.14.76l-.47.75c.5,0,1,.54.56,1a22.72,22.72,0,0,0-3.46,5.62c-.11,1.37-.27,2.74-.48,4.11-.13.84-.32,2-1.43,1.93a.69.69,0,0,1-.65-.72q.14-1.4.39-2.79l-.62.87A18.32,18.32,0,0,1,152,88.45a1,1,0,0,1-1.07.38.83.83,0,0,1-.57-.53.82.82,0,0,1-1.12.12c-.52-.36-.46-1-.24-1.64C147.61,85.51,149,83.64,149.74,82.34Z" fill="#ef986c"/><path d="M157.09,103.08a4.39,4.39,0,0,0-.77-4.15c-3.66-4.49-12.75-15.47-13.74-15-1.23.56-8.51,16.27-8,17.06.41.6,10.06,10.28,14.79,15a2.24,2.24,0,0,0,3.71-.88Z" fill="#ce4823"/><path d="M174.83,131.06s-1,5.09-.6,5.52,2.78,1.68,3.27,1.54.94-1.18.94-1.18a6.88,6.88,0,0,0,1.44,2.44c.87.76,6.39,3.16,7.75,2.58s1.91-1.54,1.13-2.91-6.91-6.94-6.91-6.94" fill="#231e1b"/><path d="M153.5,131.52s-2.06,4.26-1.81,4.73a6.9,6.9,0,0,0,2.52,2.05c.46,0,1.1-.83,1.1-.83a6.1,6.1,0,0,0,.7,2.45c.59.86,4.88,4.14,6.22,3.92s2-.95,1.67-2.32-4.46-7.57-4.46-7.57" fill="#231e1b"/><path d="M184.83,83.89l-5.71,13.38s-7.79,19.6-9,22c-1.48,3-7.25,17.26-7.25,17.26s-9.3-2.86-10-4.89,16.45-49.44,16.45-49.44l.93-4.28" fill="#68e1fd"/><path d="M184.83,83.89l-5.71,13.38s-7.79,19.6-9,22c-1.48,3-7.25,17.26-7.25,17.26s-9.3-2.86-10-4.89,16.45-49.44,16.45-49.44l.93-4.28" opacity="0.3"/><path d="M163.14,81.45s-3.43,10.86,4.64,17,10.33,9.14,10.33,9.14l-7.18,22.66s6.21,3.36,12.31,2.67c0,0,9.88-24.67,6.77-32.69-2.54-6.55-13.46-14.4-13.46-14.4Z" fill="#68e1fd"/><path d="M151.69,77.43c-.34-.24,5-9.56,8.31-15.23s9-11.91,11.77-11.36,3,2.49,3.19,5.12-8.76,12.33-8.76,12.33l-7.58,12.88A47.61,47.61,0,0,1,151.69,77.43Z" fill="#2a343d"/><path d="M169.19,51.77a34,34,0,0,1,11.35-3.9c6.53-1,10.95.36,10.53,3.9s-6.45,29.41-6.83,29.41-9.09,8.66-21.45.1c0,0,7.48-24.17,8-24.81" fill="#2a343d"/><path d="M177.35,50.38s-3.22,1.22-3.57,2.26,5.19,20.23,6,20.49,8-21.63,7.44-22.75-5.31,0-5.31,0" fill="#fff"/><path d="M179.62,45.35l-2.28,5a7.93,7.93,0,0,0,5.47.91l2-6.3" fill="#ef986c"/><path d="M175.33,35.72a2.77,2.77,0,0,1,3.4-.85.53.53,0,0,1,.09-.14c.72-.78,1-1.6,2.15-1.91a5.88,5.88,0,0,1,3.09.11,3.77,3.77,0,0,1,2.31,1.7.47.47,0,0,1,.28-.07,4.14,4.14,0,0,1,4,4.23c-.09,1.87-1.57,4-3.5,4.09a6.9,6.9,0,0,1-2.89.38,1.17,1.17,0,0,1-.82-1.88l-.14-.09-.11,0a1,1,0,0,1-1.29.16l-.16-.1a3.34,3.34,0,0,1-.69-.25l-.27.09.09.27a1.1,1.1,0,0,1-.51,1.24,1.73,1.73,0,0,1-.66.15,6,6,0,0,0,2,1.79c1.06.53.45,1.94-.51,2,.47.35.29,2.5-.26,2.19a11.2,11.2,0,0,1-5.5-7.21C175,40.26,174.36,36.95,175.33,35.72Z" fill="#2a343d"/><path d="M187.95,40.07c.27,0,.28,9.06-3.45,9.66-4.7.76-6.47-4.83-6.47-4.83s-.69-4.14,2.24-5.52S184.58,40.67,187.95,40.07Z" fill="#ef986c"/><path d="M187.95,40.07s-3.71.69-5.7,0,.86,5.7-.6,5.7-1.38-3.45-2.5-2.16,1.69,5.29,1.69,5.29-4-2-4.92-5.46,3.48-6.73,7.71-6.39S187.95,40.07,187.95,40.07Z" fill="#2a343d"/><path d="M162.79,81.28l-.87,3.47S170,89.43,178,87.4l.81-2.81.7,2.73s4.39-1.17,6-1.8l-1.18-5.93" fill="#2a343d"/><path d="M179.29,51.18s0,2,.88,2.65a1.53,1.53,0,0,0,2.08-.39c.1-.34.56-2.14.56-2.14" fill="#ce4823"/><polygon points="180.18 53.83 177.68 67.63 179.68 74.31 182.24 67.35 181.64 53.6 180.18 53.83" fill="#ce4823"/><polygon points="152.02 77.66 151.36 78.99 157.47 82.16 158 80.9 152.02 77.66" fill="#fff"/><path d="M147.39,153.28l16.52-10.71-8.11-5.82c-7.4,4.53-12.16,6.92-18.51,10.86C140.51,149.27,144.12,151.69,147.39,153.28Z" opacity="0.63" fill="url(#linear-gradient-5)" style="mix-blend-mode:multiply"/><polygon points="208.86 145.12 246.45 123.41 279.19 142.31 241.86 163.66 208.86 145.12" fill="#68e1fd"/></g></g></svg>