<svg xmlns="http://www.w3.org/2000/svg" xmlns:xlink="http://www.w3.org/1999/xlink" viewBox="0 0 400 300"><defs><linearGradient id="linear-gradient" x1="306.98" y1="191" x2="302.25" y2="180.45" gradientUnits="userSpaceOnUse"><stop offset="0" stop-color="#fff" stop-opacity="0"/><stop offset="1" stop-color="#fbae17"/></linearGradient><linearGradient id="linear-gradient-2" x1="263.3" y1="180.3" x2="253.37" y2="158.18" xlink:href="#linear-gradient"/><linearGradient id="linear-gradient-3" x1="221.01" y1="247.48" x2="211.08" y2="225.36" xlink:href="#linear-gradient"/><linearGradient id="linear-gradient-4" x1="155.96" y1="252.61" x2="141.95" y2="221.4" xlink:href="#linear-gradient"/></defs><g style="isolation:isolate"><g id="Layer_2" data-name="Layer 2"><path d="M322.74,188.56,170.08,276.91a23.88,23.88,0,0,1-23.86,0L61.34,228.19a9.53,9.53,0,0,1-.07-16.49L220.4,118.5a9.53,9.53,0,0,1,9.59,0l92.75,53.59A9.53,9.53,0,0,1,322.74,188.56Z" fill="#fdf2d6"/><path d="M316.49,184.25c-3.62-2-5.56-2.91-11.79-6.33l-12.92,7.15L304.47,192C308.43,189.35,312.37,186.65,316.49,184.25Z" opacity="0.63" fill="url(#linear-gradient)" style="mix-blend-mode:multiply"/><path d="M283.23,166.13c-7.58-4.28-11.66-6.11-24.72-13.27l-27.08,15L258,182.38C266.34,176.82,274.6,171.18,283.23,166.13Z" opacity="0.63" fill="url(#linear-gradient-2)" style="mix-blend-mode:multiply"/><path d="M240.94,233.32c-7.58-4.28-11.66-6.11-24.72-13.27l-27.08,15,26.59,14.51C224.05,244,232.31,238.36,240.94,233.32Z" opacity="0.63" fill="url(#linear-gradient-3)" style="mix-blend-mode:multiply"/><path d="M147.06,214.86l-40.79,21.07,46.53,23.68c6.47-3,6.9-3.61,1.51-.62,16.83-9.28,25-14.37,37-21.75C174.66,228.17,170.36,226.78,147.06,214.86Z" opacity="0.63" fill="url(#linear-gradient-4)" style="mix-blend-mode:multiply"/><polygon points="152.8 221.78 90.52 221.78 90.52 138.04 152.8 140.35 152.8 221.78" fill="#68e1fd"/><ellipse cx="121.5" cy="220.05" rx="31.3" ry="18.38" fill="#68e1fd"/><path d="M90.52,138v79.38a11.06,11.06,0,0,0-.32,2.63c0,10.15,14,18.38,31.3,18.38,16.29,0,29.68-7.31,31.16-16.65h.14V140.35Z" opacity="0.17"/><ellipse cx="238.22" cy="157.71" rx="21.89" ry="12.82" fill="#ff912e"/><polygon points="216.33 157.71 216.33 154.01 218.72 156.97 216.33 157.71" fill="#e0944f"/><polygon points="260.11 154.01 260.11 157.71 257.33 157.71 259.37 154.74 260.11 154.01" fill="#e0944f"/><ellipse cx="238.22" cy="154.01" rx="21.89" ry="12.82" fill="#ffb92c"/><path d="M249.32,152.29a1.71,1.71,0,0,1,.17,1l-.09.34-4,0a1.82,1.82,0,0,0,.07-.34,1.49,1.49,0,0,0-.24-.73,2.19,2.19,0,0,0-1-.89,4.37,4.37,0,0,0-1.88-.49,4,4,0,0,0-1.78.27q-.84.36-.65.94a3.46,3.46,0,0,0,.85,1.25,15.22,15.22,0,0,1,1.21,1.39,1.46,1.46,0,0,1,.22,1.54,3.44,3.44,0,0,1-1.94,1.51,11.5,11.5,0,0,1-4.23.88,13.54,13.54,0,0,1-4.63-.65l-2.3,1L226.46,158l2.23-1a5,5,0,0,1-1.07-1,2.84,2.84,0,0,1-.53-.89,2.93,2.93,0,0,1-.14-.72,1.56,1.56,0,0,1,0-.5l.08-.19h4a3.19,3.19,0,0,0-.1.4,1.7,1.7,0,0,0,.32.91,3,3,0,0,0,1.32,1.13,5.68,5.68,0,0,0,2.32.6,4.83,4.83,0,0,0,2.14-.34q.83-.36.62-.94a3.45,3.45,0,0,0-.88-1.25,12.79,12.79,0,0,1-1.22-1.39,1.43,1.43,0,0,1-.17-1.55,3.73,3.73,0,0,1,2-1.54,11,11,0,0,1,4.06-.8,11.73,11.73,0,0,1,4.33.67l2.29-1,2.51,1.37-2.3,1A3.27,3.27,0,0,1,249.32,152.29Z" fill="#ea8b24"/><ellipse cx="238.26" cy="154.16" rx="18.37" ry="10.76" fill="none" stroke="#f7931e" stroke-miterlimit="10" stroke-width="2"/><ellipse cx="238.22" cy="153.04" rx="21.89" ry="12.82" fill="#ff912e"/><polygon points="216.33 153.04 216.33 149.34 218.72 152.3 216.33 153.04" fill="#e0944f"/><polygon points="260.11 149.34 260.11 153.04 257.33 153.04 259.37 150.07 260.11 149.34" fill="#e0944f"/><ellipse cx="238.22" cy="149.34" rx="21.89" ry="12.82" fill="#ffb92c"/><path d="M249.32,147.62a1.71,1.71,0,0,1,.17,1l-.09.34-4,0a1.82,1.82,0,0,0,.07-.34,1.49,1.49,0,0,0-.24-.73,2.19,2.19,0,0,0-1-.89,4.37,4.37,0,0,0-1.88-.49,4,4,0,0,0-1.78.27q-.84.36-.65.94a3.46,3.46,0,0,0,.85,1.25,15.22,15.22,0,0,1,1.21,1.39,1.46,1.46,0,0,1,.22,1.54,3.44,3.44,0,0,1-1.94,1.51,11.5,11.5,0,0,1-4.23.88,13.54,13.54,0,0,1-4.63-.65l-2.3,1-2.69-1.31,2.23-1a5,5,0,0,1-1.07-1,2.84,2.84,0,0,1-.53-.89,2.93,2.93,0,0,1-.14-.72,1.56,1.56,0,0,1,0-.5l.08-.19h4a3.19,3.19,0,0,0-.1.4,1.7,1.7,0,0,0,.32.91,3,3,0,0,0,1.32,1.13,5.68,5.68,0,0,0,2.32.6,4.83,4.83,0,0,0,2.14-.34q.83-.36.62-.94a3.45,3.45,0,0,0-.88-1.25,12.79,12.79,0,0,1-1.22-1.39,1.43,1.43,0,0,1-.17-1.55,3.73,3.73,0,0,1,2-1.54,11,11,0,0,1,4.06-.8,11.73,11.73,0,0,1,4.33.67l2.29-1,2.51,1.37-2.3,1A3.27,3.27,0,0,1,249.32,147.62Z" fill="#ea8b24"/><ellipse cx="238.26" cy="149.49" rx="18.37" ry="10.76" fill="none" stroke="#f7931e" stroke-miterlimit="10" stroke-width="2"/><ellipse cx="238.22" cy="148.6" rx="21.89" ry="12.82" fill="#ff912e"/><polygon points="216.33 148.6 216.33 144.9 218.72 147.86 216.33 148.6" fill="#e0944f"/><polygon points="260.11 144.9 260.11 148.6 257.33 148.6 259.37 145.63 260.11 144.9" fill="#e0944f"/><ellipse cx="238.22" cy="144.9" rx="21.89" ry="12.82" fill="#ffb92c"/><path d="M249.32,143.18a1.71,1.71,0,0,1,.17,1l-.09.34-4,0a1.82,1.82,0,0,0,.07-.34,1.49,1.49,0,0,0-.24-.73,2.19,2.19,0,0,0-1-.89,4.37,4.37,0,0,0-1.88-.49,4,4,0,0,0-1.78.27q-.84.36-.65.94a3.46,3.46,0,0,0,.85,1.25,15.22,15.22,0,0,1,1.21,1.39,1.46,1.46,0,0,1,.22,1.54,3.44,3.44,0,0,1-1.94,1.51,11.5,11.5,0,0,1-4.23.88,13.54,13.54,0,0,1-4.63-.65l-2.3,1-2.69-1.31,2.23-1a5,5,0,0,1-1.07-1,2.84,2.84,0,0,1-.53-.89,2.93,2.93,0,0,1-.14-.72,1.56,1.56,0,0,1,0-.5l.08-.19h4a3.19,3.19,0,0,0-.1.4,1.7,1.7,0,0,0,.32.91,3,3,0,0,0,1.32,1.13,5.68,5.68,0,0,0,2.32.6,4.83,4.83,0,0,0,2.14-.34q.83-.36.62-.94a3.45,3.45,0,0,0-.88-1.25,12.79,12.79,0,0,1-1.22-1.39,1.43,1.43,0,0,1-.17-1.55,3.73,3.73,0,0,1,2-1.54,11,11,0,0,1,4.06-.8,11.73,11.73,0,0,1,4.33.67l2.29-1,2.51,1.37-2.3,1A3.27,3.27,0,0,1,249.32,143.18Z" fill="#ea8b24"/><ellipse cx="238.26" cy="145.05" rx="18.37" ry="10.76" fill="none" stroke="#f7931e" stroke-miterlimit="10" stroke-width="2"/><ellipse cx="238.22" cy="144.08" rx="21.89" ry="12.82" fill="#ff912e"/><polygon points="216.33 144.08 216.33 140.37 218.72 143.33 216.33 144.08" fill="#e0944f"/><polygon points="260.11 140.37 260.11 144.08 257.33 144.08 259.37 141.1 260.11 140.37" fill="#e0944f"/><ellipse cx="238.22" cy="140.37" rx="21.89" ry="12.82" fill="#ffb92c"/><path d="M249.32,138.66a1.71,1.71,0,0,1,.17,1l-.09.34-4,0a1.82,1.82,0,0,0,.07-.34,1.49,1.49,0,0,0-.24-.73,2.19,2.19,0,0,0-1-.89,4.37,4.37,0,0,0-1.88-.49,4,4,0,0,0-1.78.27q-.84.36-.65.94a3.46,3.46,0,0,0,.85,1.25,15.22,15.22,0,0,1,1.21,1.39,1.46,1.46,0,0,1,.22,1.54,3.44,3.44,0,0,1-1.94,1.51,11.5,11.5,0,0,1-4.23.88,13.54,13.54,0,0,1-4.63-.65l-2.3,1-2.69-1.31,2.23-1a5,5,0,0,1-1.07-1,2.84,2.84,0,0,1-.53-.89,2.93,2.93,0,0,1-.14-.72,1.56,1.56,0,0,1,0-.5l.08-.19h4a3.19,3.19,0,0,0-.1.4,1.7,1.7,0,0,0,.32.91,3,3,0,0,0,1.32,1.13,5.68,5.68,0,0,0,2.32.6,4.83,4.83,0,0,0,2.14-.34q.83-.36.62-.94a3.45,3.45,0,0,0-.88-1.25,12.79,12.79,0,0,1-1.22-1.39,1.43,1.43,0,0,1-.17-1.55,3.73,3.73,0,0,1,2-1.54,11,11,0,0,1,4.06-.8,11.73,11.73,0,0,1,4.33.67l2.29-1,2.51,1.37-2.3,1A3.27,3.27,0,0,1,249.32,138.66Z" fill="#ea8b24"/><ellipse cx="238.26" cy="140.53" rx="18.37" ry="10.76" fill="none" stroke="#f7931e" stroke-miterlimit="10" stroke-width="2"/><ellipse cx="238.05" cy="138.52" rx="21.89" ry="12.82" fill="#ff912e"/><polygon points="216.16 138.52 216.16 134.82 218.54 137.78 216.16 138.52" fill="#e0944f"/><polygon points="259.94 134.82 259.94 138.52 257.16 138.52 259.2 135.55 259.94 134.82" fill="#e0944f"/><ellipse cx="238.05" cy="134.82" rx="21.89" ry="12.82" fill="#ffb92c"/><path d="M249.15,133.11a1.71,1.71,0,0,1,.17,1l-.09.34-4,0a1.82,1.82,0,0,0,.07-.34,1.49,1.49,0,0,0-.24-.73,2.19,2.19,0,0,0-1-.89,4.37,4.37,0,0,0-1.88-.49,4,4,0,0,0-1.78.27q-.84.36-.65.94a3.46,3.46,0,0,0,.85,1.25,15.22,15.22,0,0,1,1.21,1.39,1.46,1.46,0,0,1,.22,1.54,3.44,3.44,0,0,1-1.94,1.51,11.5,11.5,0,0,1-4.23.88,13.54,13.54,0,0,1-4.63-.65l-2.3,1-2.69-1.31,2.23-1a5,5,0,0,1-1.07-1,2.84,2.84,0,0,1-.53-.89,2.93,2.93,0,0,1-.14-.72,1.56,1.56,0,0,1,0-.5l.08-.19h4a3.19,3.19,0,0,0-.1.4,1.7,1.7,0,0,0,.32.91,3,3,0,0,0,1.32,1.13,5.68,5.68,0,0,0,2.32.6,4.83,4.83,0,0,0,2.14-.34q.83-.36.62-.94a3.45,3.45,0,0,0-.88-1.25,12.79,12.79,0,0,1-1.22-1.39,1.43,1.43,0,0,1-.17-1.55,3.73,3.73,0,0,1,2-1.54,11,11,0,0,1,4.06-.8,11.73,11.73,0,0,1,4.33.67l2.29-1,2.51,1.37-2.3,1A3.27,3.27,0,0,1,249.15,133.11Z" fill="#ea8b24"/><ellipse cx="238.09" cy="134.98" rx="18.37" ry="10.76" fill="none" stroke="#f7931e" stroke-miterlimit="10" stroke-width="2"/><ellipse cx="238.05" cy="133.85" rx="21.89" ry="12.82" fill="#ff912e"/><polygon points="216.16 133.85 216.16 130.15 218.54 133.11 216.16 133.85" fill="#e0944f"/><polygon points="259.94 130.15 259.94 133.85 257.16 133.85 259.2 130.88 259.94 130.15" fill="#e0944f"/><ellipse cx="238.05" cy="130.15" rx="21.89" ry="12.82" fill="#ffb92c"/><path d="M249.15,128.43a1.71,1.71,0,0,1,.17,1l-.09.34-4,0a1.82,1.82,0,0,0,.07-.34,1.49,1.49,0,0,0-.24-.73,2.19,2.19,0,0,0-1-.89,4.37,4.37,0,0,0-1.88-.49,4,4,0,0,0-1.78.27q-.84.36-.65.94a3.46,3.46,0,0,0,.85,1.25,15.22,15.22,0,0,1,1.21,1.39,1.46,1.46,0,0,1,.22,1.54,3.44,3.44,0,0,1-1.94,1.51,11.5,11.5,0,0,1-4.23.88,13.54,13.54,0,0,1-4.63-.65l-2.3,1-2.69-1.31,2.23-1a5,5,0,0,1-1.07-1,2.84,2.84,0,0,1-.53-.89,2.93,2.93,0,0,1-.14-.72,1.56,1.56,0,0,1,0-.5l.08-.19h4a3.19,3.19,0,0,0-.1.4,1.7,1.7,0,0,0,.32.91,3,3,0,0,0,1.32,1.13,5.68,5.68,0,0,0,2.32.6,4.83,4.83,0,0,0,2.14-.34q.83-.36.62-.94a3.45,3.45,0,0,0-.88-1.25,12.79,12.79,0,0,1-1.22-1.39,1.43,1.43,0,0,1-.17-1.55,3.73,3.73,0,0,1,2-1.54,11,11,0,0,1,4.06-.8,11.73,11.73,0,0,1,4.33.67l2.29-1,2.51,1.37-2.3,1A3.27,3.27,0,0,1,249.15,128.43Z" fill="#ea8b24"/><ellipse cx="238.09" cy="130.3" rx="18.37" ry="10.76" fill="none" stroke="#f7931e" stroke-miterlimit="10" stroke-width="2"/><ellipse cx="238.39" cy="129.41" rx="21.89" ry="12.82" fill="#ff912e"/><polygon points="216.5 129.41 216.5 125.71 218.89 128.67 216.5 129.41" fill="#e0944f"/><polygon points="260.28 125.71 260.28 129.41 257.5 129.41 259.54 126.44 260.28 125.71" fill="#e0944f"/><ellipse cx="238.39" cy="125.71" rx="21.89" ry="12.82" fill="#ffb92c"/><path d="M249.49,124a1.71,1.71,0,0,1,.17,1l-.09.34-4,0a1.82,1.82,0,0,0,.07-.34,1.49,1.49,0,0,0-.24-.73,2.19,2.19,0,0,0-1-.89,4.37,4.37,0,0,0-1.88-.49,4,4,0,0,0-1.78.27q-.84.36-.65.94a3.46,3.46,0,0,0,.85,1.25,15.22,15.22,0,0,1,1.21,1.39,1.46,1.46,0,0,1,.22,1.54,3.44,3.44,0,0,1-1.94,1.51,11.5,11.5,0,0,1-4.23.88,13.54,13.54,0,0,1-4.63-.65l-2.3,1-2.69-1.31,2.23-1a5,5,0,0,1-1.07-1,2.84,2.84,0,0,1-.53-.89,2.93,2.93,0,0,1-.14-.72,1.56,1.56,0,0,1,0-.5l.08-.19h4a3.19,3.19,0,0,0-.1.4,1.7,1.7,0,0,0,.32.91,3,3,0,0,0,1.32,1.13,5.68,5.68,0,0,0,2.32.6,4.83,4.83,0,0,0,2.14-.34q.83-.36.62-.94A3.45,3.45,0,0,0,237,126a12.79,12.79,0,0,1-1.22-1.39,1.43,1.43,0,0,1-.17-1.55,3.73,3.73,0,0,1,2-1.54,11,11,0,0,1,4.06-.8,11.73,11.73,0,0,1,4.33.67l2.29-1,2.51,1.37-2.3,1A3.27,3.27,0,0,1,249.49,124Z" fill="#ea8b24"/><ellipse cx="238.43" cy="125.87" rx="18.37" ry="10.76" fill="none" stroke="#f7931e" stroke-miterlimit="10" stroke-width="2"/><ellipse cx="238.39" cy="124.89" rx="21.89" ry="12.82" fill="#ff912e"/><polygon points="216.5 124.89 216.5 121.19 218.89 124.15 216.5 124.89" fill="#e0944f"/><polygon points="260.28 121.19 260.28 124.89 257.5 124.89 259.54 121.92 260.28 121.19" fill="#e0944f"/><ellipse cx="238.39" cy="121.19" rx="21.89" ry="12.82" fill="#ffb92c"/><path d="M249.49,119.47a1.71,1.71,0,0,1,.17,1l-.09.34-4,0a1.82,1.82,0,0,0,.07-.34,1.49,1.49,0,0,0-.24-.73,2.19,2.19,0,0,0-1-.89,4.37,4.37,0,0,0-1.88-.49,4,4,0,0,0-1.78.27q-.84.36-.65.94a3.46,3.46,0,0,0,.85,1.25,15.22,15.22,0,0,1,1.21,1.39,1.46,1.46,0,0,1,.22,1.54,3.44,3.44,0,0,1-1.94,1.51,11.5,11.5,0,0,1-4.23.88,13.54,13.54,0,0,1-4.63-.65l-2.3,1-2.69-1.31,2.23-1a5,5,0,0,1-1.07-1,2.84,2.84,0,0,1-.53-.89,2.93,2.93,0,0,1-.14-.72,1.56,1.56,0,0,1,0-.5l.08-.19h4a3.19,3.19,0,0,0-.1.4,1.7,1.7,0,0,0,.32.91,3,3,0,0,0,1.32,1.13,5.68,5.68,0,0,0,2.32.6,4.83,4.83,0,0,0,2.14-.34q.83-.36.62-.94a3.45,3.45,0,0,0-.88-1.25,12.79,12.79,0,0,1-1.22-1.39,1.43,1.43,0,0,1-.17-1.55,3.73,3.73,0,0,1,2-1.54,11,11,0,0,1,4.06-.8,11.73,11.73,0,0,1,4.33.67l2.29-1,2.51,1.37-2.3,1A3.27,3.27,0,0,1,249.49,119.47Z" fill="#ea8b24"/><ellipse cx="238.43" cy="121.34" rx="18.37" ry="10.76" fill="none" stroke="#f7931e" stroke-miterlimit="10" stroke-width="2"/><rect x="184.93" y="150.12" width="42.73" height="77.18" fill="#ffb3a6"/><ellipse cx="206.18" cy="151.92" rx="21.48" ry="12.61" fill="#ffd0ca"/><ellipse cx="206.18" cy="228.17" rx="21.48" ry="12.61" fill="#ffb3a6"/><path d="M208.34,192.13l3.1-1.51s.24-2.72-.83-3.27S208.34,192.13,208.34,192.13Z" fill="#196132"/><path d="M215.88,184.39s.43,6.69.89,7.37,6.41,3.8,6.89,5-6.63-.1-9-.68-4.51-1.76-4.6-2.63.86-5.36,0-5.27-1.75,4-1.75,4l-2.06-1.22,4.55-15.66" fill="#196132"/><path d="M222.43,185.47l3.1-1.51s.24-2.72-.83-3.27S222.43,185.47,222.43,185.47Z" fill="#196132"/><path d="M230,177.73s.43,6.69.89,7.37,6.41,3.8,6.89,5-6.63-.1-9-.68-4.51-1.76-4.6-2.63.86-5.36,0-5.27-1.75,4-1.75,4l-2.06-1.22,4.55-15.66" fill="#196132"/><path d="M206.92,127.56c-1.09,1-3.63,15.61-1.94,22.6s18.68,9.91,18.68,9.91l-4,17.81s6.51,4.92,12.72,2.9c2.24-.73,7.36-26.31,5.38-29.87S213.06,135,213.06,135" fill="#fff0d7"/><path d="M193.52,132.87c-1.09,1-4.22,9.23,0,19.29,2.78,6.63,17.94,11.31,17.94,11.31l-5.18,19.73s6.78,5.62,12.72,2.9,7.6-27,5.62-30.53-21.69-16.11-21.69-16.11" fill="#fff0d7"/><path d="M198.91,113.29s-11.24,4.67-8.1,20.58c2.21,11.21,13.32,12.45,13.32,12.45s7.28-4.58,6.46-6.12L200.71,135l11.2-5.66,8.09,8.48,5.78-4.5s-8.35-13.1-12-18.5S198.91,113.29,198.91,113.29Z" fill="#ff9a22"/><line x1="231.12" y1="131.9" x2="230.1" y2="130.91" fill="#fff7f0"/><path d="M213.44,140.36l-2-1.59a14.89,14.89,0,0,1,10.43-3.51,12.64,12.64,0,0,1,6.75-5.15l2.48,1.79" fill="#ffe8bc"/><polyline points="211.46 138.77 209.9 150.22 213.44 152.16 216.22 141.7" fill="#ffe8bc"/><path d="M213.44,140.36l-1.63,10.84,1.63,1s16.83-9.25,16.66-9.42,1-10.84,1-10.84" fill="#68e1fd"/><polygon points="229.9 131.03 213.44 140.36 214.98 141.23 231.12 131.9 229.9 131.03" fill="#68e1fd"/><polygon points="229.9 131.03 213.44 140.36 214.98 141.23 231.12 131.9 229.9 131.03" fill="#1371a5" opacity="0.42"/><path d="M215.56,141.87a.9.9,0,0,0-1.1-1.1,11,11,0,0,1-4,.67.83.83,0,0,0-.42.1l0,0a24.38,24.38,0,0,1-4.25,3.4l.46.21a26.82,26.82,0,0,0,2.1,3.44,2,2,0,0,0,1.58.79,4.92,4.92,0,0,0,.64.41,1.85,1.85,0,0,0,2.07-.18,1,1,0,0,0,.72.13.94.94,0,0,0,1-.1,1.81,1.81,0,0,0,.67-2.42,1.88,1.88,0,0,0,.07-2.39,5.69,5.69,0,0,0-1.36-1.37A2.32,2.32,0,0,0,215.56,141.87Z" fill="#fdba45"/><path d="M231.74,138.06l.28-.46a.85.85,0,0,0-.41-1.23l-.12-.12a.9.9,0,0,0-.36-1.13.91.91,0,0,0-.84,0,.79.79,0,0,0-.23.09,3.42,3.42,0,0,0-1.38,1.7.89.89,0,0,0,.41,1,.94.94,0,0,0,.31.1h0a5.5,5.5,0,0,0-.76,1.35c-.23.63.41,1.18,1,1.13l-.13.18c-.5.64.32,1.5,1,1.31a1.86,1.86,0,0,0,1.11-1c.29-.52.57-1.06.84-1.59A.94.94,0,0,0,231.74,138.06Z" fill="#fdba45"/><path d="M212.27,125.35s.27,10.1-.33,11.21-11.28,5.64-11.28,5.64l-6.61-8.33Z" fill="#ff9a22"/><path d="M206.84,108s1.88,4.1,1.16,5.57-4.68.46-4.68.46" fill="#1b6333"/><path d="M207.17,106s.12,8.33-3.3,9.23-5.23-3.33-5.23-3.33-.69-5.62.42-6.8S205.37,103.59,207.17,106Z" fill="#fdba45"/><path d="M208.49,105s-2.3,3.26-3.66,4.09-2.9.36-3.38,1.48,1.23,7.82-.33,9.07-4.62-2.37-6-.59-.62,5-2.73,5.75-4.6-2.55-2.59-5.16,2.21-3.88,1.06-4.74c-1.72-1.28.06-6,2.07-6.88s2.56-5.46,6.17-6.58S207.72,102.45,208.49,105Z" fill="#1b6333"/><path d="M211.47,122.14q0,7-.28,14c0,.53.8.53.82,0q.28-7,.28-14A.41.41,0,0,0,211.47,122.14Z" fill="#f26250"/><path d="M210.44,139.91a18.76,18.76,0,0,1-10.58-13.08c-.11-.52-.91-.3-.8.22a19.53,19.53,0,0,0,11,13.57C210.5,140.85,210.92,140.14,210.44,139.91Z" fill="#f26250"/><path d="M301.68,167.18c-.48-1-2.6-1.81-5.15-1.81s-4.77.82-5.18,1.89c-3,4.19-5.94,11-2.26,15.59a9.39,9.39,0,0,0,7.23,3.27h.44a9.39,9.39,0,0,0,7.23-3.27C307.7,178.25,304.69,171.36,301.68,167.18Z" fill="#68e1fd"/><ellipse cx="296.53" cy="167.62" rx="5.25" ry="2.25" opacity="0.5"/><path d="M302.66,148.51a43.45,43.45,0,0,0-5.83,18,125.67,125.67,0,0,0-2.11-22.91c0-.27-.46-.15-.41.11a125.07,125.07,0,0,1,2.07,25.63.2.2,0,0,0,.27.19c0,.06,0,.13,0,.19a.21.21,0,0,0,.42,0,43,43,0,0,1,6-21A.21.21,0,0,0,302.66,148.51Z" fill="#fe6162"/><path d="M299.34,155.5s3.25-10.45,10.22-14.32c0,0-1.41,2.07-.75,3.77s1.7,4.71-1.6,6.41-5.18,0-4.9,3.3,1.59,4.9-.53,6.5-3.92,3-4.62,6.45C297.16,167.62,298,159,299.34,155.5Z" fill="#fe6162"/><path d="M296.24,154.4s-1.35-16.06-4.18-20.12a7.46,7.46,0,0,1-.79,4.52c-1.23,2.32-2.54,3.13-1.83,6.16s3.57,2.42,3.3,5.45-2.67,2.46-1.47,6.27,5.27,6.33,5.27,6.33" fill="#fe6162"/><ellipse cx="121.5" cy="140.67" rx="31.3" ry="18.38" fill="#68e1fd"/><ellipse cx="121.5" cy="140.67" rx="31.3" ry="18.38" fill="#fff" opacity="0.56"/><ellipse cx="121.49" cy="137.8" rx="21.89" ry="12.82" fill="#ff912e"/><polygon points="99.6 137.8 99.6 134.1 101.98 137.06 99.6 137.8" fill="#e0944f"/><polygon points="143.38 134.1 143.38 137.8 140.6 137.8 142.63 134.83 143.38 134.1" fill="#e0944f"/><ellipse cx="121.49" cy="134.1" rx="21.89" ry="12.82" fill="#ffb92c"/><path d="M132.59,132.38a1.71,1.71,0,0,1,.17,1l-.09.34-4,0a1.82,1.82,0,0,0,.07-.34,1.49,1.49,0,0,0-.24-.73,2.19,2.19,0,0,0-1-.89,4.37,4.37,0,0,0-1.88-.49,4,4,0,0,0-1.78.27q-.84.36-.65.94a3.46,3.46,0,0,0,.85,1.25,15.22,15.22,0,0,1,1.21,1.39,1.46,1.46,0,0,1,.22,1.54,3.44,3.44,0,0,1-1.94,1.51,11.5,11.5,0,0,1-4.23.88,13.54,13.54,0,0,1-4.63-.65l-2.3,1-2.69-1.31,2.23-1a5,5,0,0,1-1.07-1,2.84,2.84,0,0,1-.53-.89,2.93,2.93,0,0,1-.14-.72,1.56,1.56,0,0,1,0-.5l.08-.19h4a3.19,3.19,0,0,0-.1.4,1.7,1.7,0,0,0,.32.91,3,3,0,0,0,1.32,1.13,5.68,5.68,0,0,0,2.32.6,4.83,4.83,0,0,0,2.14-.34q.83-.36.62-.94a3.45,3.45,0,0,0-.88-1.25,12.79,12.79,0,0,1-1.22-1.39,1.43,1.43,0,0,1-.17-1.55,3.73,3.73,0,0,1,2-1.54,11,11,0,0,1,4.06-.8,11.73,11.73,0,0,1,4.33.67l2.29-1,2.51,1.37-2.3,1A3.27,3.27,0,0,1,132.59,132.38Z" fill="#ea8b24"/><ellipse cx="121.53" cy="134.25" rx="18.37" ry="10.76" fill="none" stroke="#f7931e" stroke-miterlimit="10" stroke-width="2"/><ellipse cx="121.49" cy="133.13" rx="21.89" ry="12.82" fill="#ff912e"/><polygon points="99.6 133.13 99.6 129.43 101.98 132.39 99.6 133.13" fill="#e0944f"/><polygon points="143.38 129.43 143.38 133.13 140.6 133.13 142.63 130.16 143.38 129.43" fill="#e0944f"/><ellipse cx="121.49" cy="129.43" rx="21.89" ry="12.82" fill="#ffb92c"/><path d="M132.59,127.71a1.71,1.71,0,0,1,.17,1l-.09.34-4,0a1.82,1.82,0,0,0,.07-.34,1.49,1.49,0,0,0-.24-.73,2.19,2.19,0,0,0-1-.89,4.37,4.37,0,0,0-1.88-.49,4,4,0,0,0-1.78.27q-.84.36-.65.94a3.46,3.46,0,0,0,.85,1.25,15.22,15.22,0,0,1,1.21,1.39,1.46,1.46,0,0,1,.22,1.54,3.44,3.44,0,0,1-1.94,1.51,11.5,11.5,0,0,1-4.23.88,13.54,13.54,0,0,1-4.63-.65l-2.3,1-2.69-1.31,2.23-1a5,5,0,0,1-1.07-1,2.84,2.84,0,0,1-.53-.89,2.93,2.93,0,0,1-.14-.72,1.56,1.56,0,0,1,0-.5l.08-.19h4a3.19,3.19,0,0,0-.1.4,1.7,1.7,0,0,0,.32.91,3,3,0,0,0,1.32,1.13,5.68,5.68,0,0,0,2.32.6,4.83,4.83,0,0,0,2.14-.34q.83-.36.62-.94a3.45,3.45,0,0,0-.88-1.25,12.79,12.79,0,0,1-1.22-1.39,1.43,1.43,0,0,1-.17-1.55,3.73,3.73,0,0,1,2-1.54,11,11,0,0,1,4.06-.8,11.73,11.73,0,0,1,4.33.67l2.29-1,2.51,1.37-2.3,1A3.27,3.27,0,0,1,132.59,127.71Z" fill="#ea8b24"/><ellipse cx="121.53" cy="129.58" rx="18.37" ry="10.76" fill="none" stroke="#f7931e" stroke-miterlimit="10" stroke-width="2"/><ellipse cx="121.83" cy="128.69" rx="21.89" ry="12.82" fill="#ff912e"/><polygon points="99.94 128.69 99.94 124.99 102.32 127.95 99.94 128.69" fill="#e0944f"/><polygon points="143.72 124.99 143.72 128.69 140.94 128.69 142.98 125.72 143.72 124.99" fill="#e0944f"/><ellipse cx="121.83" cy="124.99" rx="21.89" ry="12.82" fill="#ffb92c"/><path d="M132.93,123.27a1.71,1.71,0,0,1,.17,1l-.09.34-4,0a1.82,1.82,0,0,0,.07-.34,1.49,1.49,0,0,0-.24-.73,2.19,2.19,0,0,0-1-.89,4.37,4.37,0,0,0-1.88-.49,4,4,0,0,0-1.78.27q-.84.36-.65.94a3.46,3.46,0,0,0,.85,1.25,15.22,15.22,0,0,1,1.21,1.39,1.46,1.46,0,0,1,.22,1.54,3.44,3.44,0,0,1-1.94,1.51,11.5,11.5,0,0,1-4.23.88,13.54,13.54,0,0,1-4.63-.65l-2.3,1L110.07,129l2.23-1a5,5,0,0,1-1.07-1,2.84,2.84,0,0,1-.53-.89,2.93,2.93,0,0,1-.14-.72,1.56,1.56,0,0,1,0-.5l.08-.19h4a3.19,3.19,0,0,0-.1.4,1.7,1.7,0,0,0,.32.91,3,3,0,0,0,1.32,1.13,5.68,5.68,0,0,0,2.32.6,4.83,4.83,0,0,0,2.14-.34q.83-.36.62-.94a3.45,3.45,0,0,0-.88-1.25,12.79,12.79,0,0,1-1.22-1.39,1.43,1.43,0,0,1-.17-1.55,3.73,3.73,0,0,1,2-1.54,11,11,0,0,1,4.06-.8,11.73,11.73,0,0,1,4.33.67l2.29-1,2.51,1.37-2.3,1A3.27,3.27,0,0,1,132.93,123.27Z" fill="#ea8b24"/><ellipse cx="121.87" cy="125.14" rx="18.37" ry="10.76" fill="none" stroke="#f7931e" stroke-miterlimit="10" stroke-width="2"/><ellipse cx="121.83" cy="124.17" rx="21.89" ry="12.82" fill="#ff912e"/><polygon points="99.94 124.17 99.94 120.46 102.32 123.42 99.94 124.17" fill="#e0944f"/><polygon points="143.72 120.46 143.72 124.17 140.94 124.17 142.98 121.19 143.72 120.46" fill="#e0944f"/><ellipse cx="121.83" cy="120.46" rx="21.89" ry="12.82" fill="#ffb92c"/><path d="M132.93,118.75a1.71,1.71,0,0,1,.17,1l-.09.34-4,0a1.82,1.82,0,0,0,.07-.34,1.49,1.49,0,0,0-.24-.73,2.19,2.19,0,0,0-1-.89,4.37,4.37,0,0,0-1.88-.49,4,4,0,0,0-1.78.27q-.84.36-.65.94a3.46,3.46,0,0,0,.85,1.25,15.22,15.22,0,0,1,1.21,1.39,1.46,1.46,0,0,1,.22,1.54,3.44,3.44,0,0,1-1.94,1.51,11.5,11.5,0,0,1-4.23.88,13.54,13.54,0,0,1-4.63-.65l-2.3,1-2.69-1.31,2.23-1a5,5,0,0,1-1.07-1,2.84,2.84,0,0,1-.53-.89,2.93,2.93,0,0,1-.14-.72,1.56,1.56,0,0,1,0-.5l.08-.19h4a3.19,3.19,0,0,0-.1.4,1.7,1.7,0,0,0,.32.91,3,3,0,0,0,1.32,1.13,5.68,5.68,0,0,0,2.32.6,4.83,4.83,0,0,0,2.14-.34q.83-.36.62-.94a3.45,3.45,0,0,0-.88-1.25,12.79,12.79,0,0,1-1.22-1.39,1.43,1.43,0,0,1-.17-1.55,3.73,3.73,0,0,1,2-1.54,11,11,0,0,1,4.06-.8,11.73,11.73,0,0,1,4.33.67l2.29-1,2.51,1.37-2.3,1A3.27,3.27,0,0,1,132.93,118.75Z" fill="#ea8b24"/><ellipse cx="121.87" cy="120.62" rx="18.37" ry="10.76" fill="none" stroke="#f7931e" stroke-miterlimit="10" stroke-width="2"/></g></g></svg>