<svg id="Layer_2" data-name="Layer 2" xmlns="http://www.w3.org/2000/svg" xmlns:xlink="http://www.w3.org/1999/xlink" viewBox="0 0 400 300"><defs><linearGradient id="linear-gradient" x1="100.82" y1="205.89" x2="83.44" y2="227.37" gradientUnits="userSpaceOnUse"><stop offset="0" stop-color="#999"/><stop offset="1" stop-color="#c4c4c4"/></linearGradient><linearGradient id="linear-gradient-2" x1="226.36" y1="211.05" x2="212.46" y2="228.24" xlink:href="#linear-gradient"/><linearGradient id="linear-gradient-3" x1="198.4" y1="235.92" x2="194.18" y2="241.15" xlink:href="#linear-gradient"/></defs><title>aaa</title><path d="M196.69,280.28,345.9,192.1c4.75-2.67,8.83-7,4.19-9.92L200.35,95.87c-2.25-1.39-5.66-2.3-7.94-1L35.77,185.8c-4.75,2.76-5.6,10.46-.85,13.22L177,280.14A19.84,19.84,0,0,0,196.69,280.28Z" fill="#c4c4c4"/><polyline points="93.92 193.5 61.24 213.53 94.44 232.97 129.12 212.19" fill="url(#linear-gradient)"/><path d="M306.92,156.79s-43.22,20.76-13.75,66l-13.68,8.09s-36.12-49.57,15.36-81Z" fill="#606060"/><polygon points="99.61 235.73 271.06 136.12 283 143 111.96 242.49 99.61 235.73" fill="#606060"/><path d="M207.19,187.09s-26.82,39.19-35.76,89.35l-16.67-9.52s16.1-52.6,31.59-71.59Z" fill="#606060"/><path d="M87.14,155c-3.38,2.74-8.53,5-12.12,7.48l78.74,45.15,12.09-6.9Z" fill="#606060"/><path d="M155,116.64c-4.38,2.19-7.68,4.34-12.16,6.31l81.75,47.55,12.09-6.9Z" fill="#606060"/><polyline points="136.37 150.15 136.37 136.51 198.03 133.97 198.03 147.61" fill="#afafaf"/><path d="M136.37,178.23c.69.23,28.46,16.48,28.46,16.48l33.19-19L169.3,159.35Z" fill="#afafaf"/><path d="M136.37,136.51c.69.23,28.46,16.48,28.46,16.48L198,134,169.3,117.63Z" fill="#bfbfbf"/><polygon points="164.84 194.71 164.84 152.99 136.37 136.51 136.37 178.23 164.84 194.71" fill="#aaa"/><polygon points="198.03 175.69 198.03 133.97 164.84 152.99 164.84 194.71 198.03 175.69" fill="#8e8e8e"/><polygon points="191.04 151.8 191.04 157.96 195.15 155.82 195.15 149.4 191.04 151.8" fill="#3c637a"/><polygon points="191.04 142.76 191.04 148.92 195.15 146.78 195.15 140.36 191.04 142.76" fill="#3c637a"/><polygon points="191.04 170.33 191.04 176.49 195.15 174.35 195.15 167.94 191.04 170.33" fill="#3c637a"/><polygon points="191.04 161.12 191.04 167.28 195.15 165.15 195.15 158.73 191.04 161.12" fill="#3c637a"/><polygon points="181.86 156.68 181.86 162.84 185.97 160.7 185.97 154.28 181.86 156.68" fill="#3c637a"/><polygon points="181.86 147.64 181.86 153.8 185.97 151.66 185.97 145.24 181.86 147.64" fill="#3c637a"/><polygon points="181.86 175.21 181.86 181.37 185.97 179.23 185.97 172.81 181.86 175.21" fill="#3c637a"/><polygon points="181.86 166 181.86 172.16 185.97 170.03 185.97 163.61 181.86 166" fill="#3c637a"/><polygon points="171.91 162.36 171.91 168.52 176.02 166.39 176.02 159.97 171.91 162.36" fill="#3c637a"/><polygon points="171.91 153.32 171.91 159.48 176.02 157.35 176.02 150.93 171.91 153.32" fill="#3c637a"/><polygon points="171.91 180.89 171.91 187.05 176.02 184.92 176.02 178.5 171.91 180.89" fill="#3c637a"/><polygon points="171.91 171.69 171.91 177.85 176.02 175.71 176.02 169.29 171.91 171.69" fill="#3c637a"/><polygon points="143.87 153.92 143.87 160.08 139.76 157.94 139.76 151.52 143.87 153.92" fill="#3c637a"/><polygon points="143.87 144.88 143.87 151.04 139.76 148.9 139.76 142.48 143.87 144.88" fill="#3c637a"/><polygon points="143.87 172.45 143.87 178.61 139.76 176.47 139.76 170.05 143.87 172.45" fill="#3c637a"/><polygon points="143.87 163.24 143.87 169.4 139.76 167.27 139.76 160.85 143.87 163.24" fill="#3c637a"/><polygon points="151.99 158.5 151.99 164.66 147.88 162.52 147.88 156.1 151.99 158.5" fill="#3c637a"/><polygon points="151.99 149.46 151.99 155.62 147.88 153.48 147.88 147.06 151.99 149.46" fill="#3c637a"/><polygon points="151.99 177.03 151.99 183.19 147.88 181.05 147.88 174.63 151.99 177.03" fill="#3c637a"/><polygon points="151.99 167.82 151.99 173.98 147.88 171.85 147.88 165.43 151.99 167.82" fill="#3c637a"/><polygon points="160.53 163.84 160.53 170 156.43 167.87 156.43 161.45 160.53 163.84" fill="#3c637a"/><polygon points="160.53 154.81 160.53 160.97 156.43 158.83 156.43 152.41 160.53 154.81" fill="#3c637a"/><polygon points="160.53 182.38 160.53 188.53 156.43 186.4 156.43 179.98 160.53 182.38" fill="#3c637a"/><polygon points="160.53 173.17 160.53 179.33 156.43 177.2 156.43 170.78 160.53 173.17" fill="#3c637a"/><polygon points="205.46 143.85 205.46 37.13 228.73 50.13 228.73 157.27 205.46 143.85" fill="#68e1fd"/><polygon points="205.46 143.85 205.46 37.13 228.73 50.13 228.73 157.27 205.46 143.85" fill="#1e4549" opacity="0.33"/><polygon points="228.73 50.13 252.37 37.13 252.37 143.39 228.73 157.27 228.73 50.13" fill="#68e1fd"/><polygon points="205.46 37.13 228.73 22.86 252.37 37.13 228.73 50.13 205.46 37.13" fill="#ccc"/><polygon points="252.37 37.13 228.73 50.13 205.46 37.13 205.46 40.28 228.73 53.09 252.37 40.06 252.37 37.13" fill="#1e4549"/><polygon points="249.56 50.88 249.56 45.9 246.59 47.52 246.59 52.31 249.56 50.88" fill="#e0e0e0"/><polygon points="242.17 54.87 242.17 49.88 239.21 51.51 239.21 56.3 242.17 54.87" fill="#e0e0e0"/><polygon points="234.51 59.58 234.51 54.59 231.54 56.22 231.54 61 234.51 59.58" fill="#e0e0e0"/><polygon points="249.56 68.75 249.56 63.77 246.59 65.39 246.59 70.18 249.56 68.75" fill="#e0e0e0"/><polygon points="242.17 72.74 242.17 67.75 239.21 69.38 239.21 74.17 242.17 72.74" fill="#e0e0e0"/><polygon points="234.51 77.44 234.51 72.46 231.54 74.08 231.54 78.87 234.51 77.44" fill="#e0e0e0"/><polygon points="249.56 89.2 249.56 84.21 246.59 85.84 246.59 90.63 249.56 89.2" fill="#e0e0e0"/><polygon points="242.17 93.18 242.17 88.2 239.21 89.82 239.21 94.61 242.17 93.18" fill="#e0e0e0"/><polygon points="234.51 97.89 234.51 92.91 231.54 94.53 231.54 99.32 234.51 97.89" fill="#e0e0e0"/><polygon points="249.56 109.44 249.56 104.45 246.59 106.08 246.59 110.87 249.56 109.44" fill="#e0e0e0"/><polygon points="242.17 113.43 242.17 108.44 239.21 110.07 239.21 114.86 242.17 113.43" fill="#e0e0e0"/><polygon points="234.51 118.14 234.51 113.15 231.54 114.78 231.54 119.56 234.51 118.14" fill="#e0e0e0"/><polygon points="249.56 129.69 249.56 124.7 246.59 126.33 246.59 131.12 249.56 129.69" fill="#e0e0e0"/><polygon points="242.17 133.67 242.17 128.69 239.21 130.31 239.21 135.1 242.17 133.67" fill="#e0e0e0"/><polygon points="234.51 138.38 234.51 133.39 231.54 135.02 231.54 139.81 234.51 138.38" fill="#e0e0e0"/><polygon points="206.81 50.94 206.81 45.95 209.78 47.58 209.78 52.37 206.81 50.94" fill="#e0e0e0"/><polygon points="214.2 54.92 214.2 49.94 217.17 51.56 217.17 56.35 214.2 54.92" fill="#e0e0e0"/><polygon points="221.87 59.63 221.87 54.64 224.83 56.27 224.83 61.06 221.87 59.63" fill="#e0e0e0"/><polygon points="206.81 68.8 206.81 63.82 209.78 65.44 209.78 70.23 206.81 68.8" fill="#e0e0e0"/><polygon points="214.2 72.79 214.2 67.81 217.17 69.43 217.17 74.22 214.2 72.79" fill="#e0e0e0"/><polygon points="221.87 77.5 221.87 72.51 224.83 74.14 224.83 78.93 221.87 77.5" fill="#e0e0e0"/><polygon points="206.81 89.25 206.81 84.27 209.78 85.89 209.78 90.68 206.81 89.25" fill="#e0e0e0"/><polygon points="214.2 93.24 214.2 88.25 217.17 89.88 217.17 94.67 214.2 93.24" fill="#e0e0e0"/><polygon points="221.87 97.94 221.87 92.96 224.83 94.59 224.83 99.38 221.87 97.94" fill="#e0e0e0"/><polygon points="206.81 109.5 206.81 104.51 209.78 106.14 209.78 110.92 206.81 109.5" fill="#e0e0e0"/><polygon points="214.2 113.48 214.2 108.5 217.17 110.12 217.17 114.91 214.2 113.48" fill="#e0e0e0"/><polygon points="221.87 118.19 221.87 113.2 224.83 114.83 224.83 119.62 221.87 118.19" fill="#e0e0e0"/><polygon points="206.81 129.74 206.81 124.75 209.78 126.38 209.78 131.17 206.81 129.74" fill="#e0e0e0"/><polygon points="214.2 133.72 214.2 128.74 217.17 130.37 217.17 135.16 214.2 133.72" fill="#e0e0e0"/><polygon points="221.87 138.43 221.87 133.45 224.83 135.07 224.83 139.86 221.87 138.43" fill="#e0e0e0"/><polygon points="252.37 74.14 228.53 86.46 205.46 74.35 205.46 79.28 228.73 91.38 252.37 79.28 252.37 74.14" fill="#2e5b5a"/><polygon points="252.37 94.61 228.53 106.94 205.46 94.83 205.46 99.76 228.73 111.86 252.37 99.76 252.37 94.61" fill="#2e5b5a"/><polygon points="252.37 114.86 228.53 127.18 205.46 115.07 205.46 120 228.73 132.1 252.37 120 252.37 114.86" fill="#2e5b5a"/><polygon points="252.19 133.45 228.35 145.77 205.28 133.66 205.28 138.59 228.55 150.69 252.19 138.59 252.19 133.45" fill="#2e5b5a"/><polygon points="252.37 54.59 228.53 66.91 205.46 54.8 205.46 59.73 228.73 71.83 252.37 59.73 252.37 54.59" fill="#2e5b5a"/><polygon points="82.21 212.65 82.21 105.93 105.48 118.93 105.48 226.07 82.21 212.65" fill="#68e1fd"/><polygon points="82.21 212.65 82.21 105.93 105.48 118.93 105.48 226.07 82.21 212.65" fill="#1e4549" opacity="0.33"/><polygon points="105.48 118.93 129.12 105.93 129.12 212.19 105.48 226.07 105.48 118.93" fill="#68e1fd"/><polygon points="82.21 105.93 105.48 91.66 129.12 105.93 105.48 118.93 82.21 105.93" fill="#ccc"/><polygon points="129.12 105.93 105.48 118.93 82.21 105.93 82.21 109.08 105.48 121.89 129.12 108.86 129.12 105.93" fill="#1e4549"/><polygon points="126.31 119.68 126.31 114.7 123.34 116.32 123.34 121.11 126.31 119.68" fill="#e0e0e0"/><polygon points="118.92 123.67 118.92 118.68 115.96 120.31 115.96 125.1 118.92 123.67" fill="#e0e0e0"/><polygon points="111.26 128.38 111.26 123.39 108.29 125.02 108.29 129.81 111.26 128.38" fill="#e0e0e0"/><polygon points="126.31 137.55 126.31 132.57 123.34 134.19 123.34 138.98 126.31 137.55" fill="#e0e0e0"/><polygon points="118.92 141.54 118.92 136.55 115.96 138.18 115.96 142.97 118.92 141.54" fill="#e0e0e0"/><polygon points="111.26 146.25 111.26 141.26 108.29 142.89 108.29 147.68 111.26 146.25" fill="#e0e0e0"/><polygon points="126.31 158 126.31 153.01 123.34 154.64 123.34 159.43 126.31 158" fill="#e0e0e0"/><polygon points="118.92 161.99 118.92 157 115.96 158.63 115.96 163.41 118.92 161.99" fill="#e0e0e0"/><polygon points="111.26 166.69 111.26 161.71 108.29 163.33 108.29 168.12 111.26 166.69" fill="#e0e0e0"/><polygon points="126.31 178.24 126.31 173.26 123.34 174.88 123.34 179.67 126.31 178.24" fill="#e0e0e0"/><polygon points="118.92 182.23 118.92 177.24 115.96 178.87 115.96 183.66 118.92 182.23" fill="#e0e0e0"/><polygon points="111.26 186.94 111.26 181.95 108.29 183.58 108.29 188.37 111.26 186.94" fill="#e0e0e0"/><polygon points="126.31 198.49 126.31 193.5 123.34 195.13 123.34 199.92 126.31 198.49" fill="#e0e0e0"/><polygon points="118.92 202.47 118.92 197.49 115.96 199.11 115.96 203.9 118.92 202.47" fill="#e0e0e0"/><polygon points="111.26 207.18 111.26 202.19 108.29 203.82 108.29 208.61 111.26 207.18" fill="#e0e0e0"/><polygon points="83.57 119.74 83.57 114.75 86.53 116.38 86.53 121.17 83.57 119.74" fill="#e0e0e0"/><polygon points="90.95 123.72 90.95 118.74 93.92 120.36 93.92 125.15 90.95 123.72" fill="#e0e0e0"/><polygon points="98.62 128.43 98.62 123.44 101.58 125.07 101.58 129.86 98.62 128.43" fill="#e0e0e0"/><polygon points="83.57 137.61 83.57 132.62 86.53 134.25 86.53 139.04 83.57 137.61" fill="#e0e0e0"/><polygon points="90.95 141.59 90.95 136.61 93.92 138.23 93.92 143.02 90.95 141.59" fill="#e0e0e0"/><polygon points="98.62 146.3 98.62 141.31 101.58 142.94 101.58 147.73 98.62 146.3" fill="#e0e0e0"/><polygon points="83.57 158.05 83.57 153.07 86.53 154.69 86.53 159.48 83.57 158.05" fill="#e0e0e0"/><polygon points="90.95 162.04 90.95 157.05 93.92 158.68 93.92 163.47 90.95 162.04" fill="#e0e0e0"/><polygon points="98.62 166.75 98.62 161.76 101.58 163.39 101.58 168.18 98.62 166.75" fill="#e0e0e0"/><polygon points="83.57 178.3 83.57 173.31 86.53 174.94 86.53 179.73 83.57 178.3" fill="#e0e0e0"/><polygon points="90.95 182.28 90.95 177.3 93.92 178.92 93.92 183.71 90.95 182.28" fill="#e0e0e0"/><polygon points="98.62 186.99 98.62 182 101.58 183.63 101.58 188.42 98.62 186.99" fill="#e0e0e0"/><polygon points="83.57 198.54 83.57 193.55 86.53 195.18 86.53 199.97 83.57 198.54" fill="#e0e0e0"/><polygon points="90.95 202.53 90.95 197.54 93.92 199.17 93.92 203.96 90.95 202.53" fill="#e0e0e0"/><polygon points="98.62 207.23 98.62 202.25 101.58 203.88 101.58 208.66 98.62 207.23" fill="#e0e0e0"/><polygon points="129.12 142.94 105.28 155.26 82.21 143.15 82.21 148.08 105.48 160.18 129.12 148.08 129.12 142.94" fill="#2e5b5a"/><polygon points="129.12 163.41 105.28 175.74 82.21 163.63 82.21 168.56 105.48 180.66 129.12 168.56 129.12 163.41" fill="#2e5b5a"/><polygon points="129.12 183.66 105.28 195.98 82.21 183.87 82.21 188.8 105.48 200.9 129.12 188.8 129.12 183.66" fill="#2e5b5a"/><polygon points="128.94 202.25 105.1 214.57 82.03 202.46 82.03 207.39 105.3 219.49 128.94 207.39 128.94 202.25" fill="#2e5b5a"/><polygon points="129.12 123.39 105.28 135.71 82.21 123.6 82.21 128.53 105.48 140.63 129.12 128.53 129.12 123.39" fill="#2e5b5a"/><polygon points="141.47 135.73 141.47 29.02 164.75 42.02 164.75 149.15 141.47 135.73" fill="#68e1fd"/><polygon points="141.47 135.73 141.47 29.02 164.75 42.02 164.75 149.15 141.47 135.73" fill="#1e4549" opacity="0.33"/><polygon points="164.75 42.02 188.38 29.02 188.38 135.28 164.75 149.15 164.75 42.02" fill="#68e1fd"/><polygon points="141.47 29.02 164.75 14.74 188.38 29.02 164.75 42.02 141.47 29.02" fill="#ccc"/><polygon points="188.38 29.02 164.75 42.02 141.47 29.02 141.47 32.17 164.75 44.98 188.38 31.95 188.38 29.02" fill="#1e4549"/><polygon points="185.57 42.77 185.57 37.78 182.61 39.41 182.61 44.2 185.57 42.77" fill="#e0e0e0"/><polygon points="178.18 46.75 178.18 41.77 175.22 43.39 175.22 48.18 178.18 46.75" fill="#e0e0e0"/><polygon points="170.52 51.46 170.52 46.48 167.56 48.1 167.56 52.89 170.52 51.46" fill="#e0e0e0"/><polygon points="185.57 60.64 185.57 55.65 182.61 57.28 182.61 62.07 185.57 60.64" fill="#e0e0e0"/><polygon points="178.18 64.62 178.18 59.64 175.22 61.26 175.22 66.05 178.18 64.62" fill="#e0e0e0"/><polygon points="170.52 69.33 170.52 64.34 167.56 65.97 167.56 70.76 170.52 69.33" fill="#e0e0e0"/><polygon points="185.57 81.08 185.57 76.1 182.61 77.72 182.61 82.51 185.57 81.08" fill="#e0e0e0"/><polygon points="178.18 85.07 178.18 80.08 175.22 81.71 175.22 86.5 178.18 85.07" fill="#e0e0e0"/><polygon points="170.52 89.78 170.52 84.79 167.56 86.42 167.56 91.21 170.52 89.78" fill="#e0e0e0"/><polygon points="185.57 101.33 185.57 96.34 182.61 97.97 182.61 102.76 185.57 101.33" fill="#e0e0e0"/><polygon points="178.18 105.31 178.18 100.33 175.22 101.95 175.22 106.74 178.18 105.31" fill="#e0e0e0"/><polygon points="170.52 110.02 170.52 105.03 167.56 106.66 167.56 111.45 170.52 110.02" fill="#e0e0e0"/><polygon points="185.57 121.57 185.57 116.58 182.61 118.21 182.61 123 185.57 121.57" fill="#e0e0e0"/><polygon points="178.18 125.56 178.18 120.57 175.22 122.2 175.22 126.99 178.18 125.56" fill="#e0e0e0"/><polygon points="170.52 130.26 170.52 125.28 167.56 126.91 167.56 131.69 170.52 130.26" fill="#e0e0e0"/><polygon points="142.83 42.82 142.83 37.84 145.79 39.46 145.79 44.25 142.83 42.82" fill="#e0e0e0"/><polygon points="150.21 46.81 150.21 41.82 153.18 43.45 153.18 48.24 150.21 46.81" fill="#e0e0e0"/><polygon points="157.88 51.51 157.88 46.53 160.84 48.16 160.84 52.94 157.88 51.51" fill="#e0e0e0"/><polygon points="142.83 60.69 142.83 55.7 145.79 57.33 145.79 62.12 142.83 60.69" fill="#e0e0e0"/><polygon points="150.21 64.68 150.21 59.69 153.18 61.32 153.18 66.11 150.21 64.68" fill="#e0e0e0"/><polygon points="157.88 69.38 157.88 64.4 160.84 66.03 160.84 70.81 157.88 69.38" fill="#e0e0e0"/><polygon points="142.83 81.14 142.83 76.15 145.79 77.78 145.79 82.57 142.83 81.14" fill="#e0e0e0"/><polygon points="150.21 85.12 150.21 80.14 153.18 81.76 153.18 86.55 150.21 85.12" fill="#e0e0e0"/><polygon points="157.88 89.83 157.88 84.84 160.84 86.47 160.84 91.26 157.88 89.83" fill="#e0e0e0"/><polygon points="142.83 101.38 142.83 96.39 145.79 98.02 145.79 102.81 142.83 101.38" fill="#e0e0e0"/><polygon points="150.21 105.37 150.21 100.38 153.18 102.01 153.18 106.8 150.21 105.37" fill="#e0e0e0"/><polygon points="157.88 110.08 157.88 105.09 160.84 106.72 160.84 111.5 157.88 110.08" fill="#e0e0e0"/><polygon points="142.83 121.62 142.83 116.64 145.79 118.27 145.79 123.05 142.83 121.62" fill="#e0e0e0"/><polygon points="150.21 125.61 150.21 120.63 153.18 122.25 153.18 127.04 150.21 125.61" fill="#e0e0e0"/><polygon points="157.88 130.32 157.88 125.33 160.84 126.96 160.84 131.75 157.88 130.32" fill="#e0e0e0"/><polygon points="188.38 66.02 164.54 78.34 141.47 66.23 141.47 71.17 164.75 83.27 188.38 71.17 188.38 66.02" fill="#2e5b5a"/><polygon points="188.38 86.5 164.54 98.82 141.47 86.71 141.47 91.64 164.75 103.74 188.38 91.64 188.38 86.5" fill="#2e5b5a"/><polygon points="188.38 106.74 164.54 119.07 141.47 106.96 141.47 111.89 164.75 123.99 188.38 111.89 188.38 106.74" fill="#2e5b5a"/><polygon points="188.2 125.33 164.36 137.66 141.29 125.55 141.29 130.48 164.56 142.58 188.2 130.48 188.2 125.33" fill="#2e5b5a"/><polygon points="188.38 46.48 164.54 58.8 141.47 46.69 141.47 51.62 164.75 63.72 188.38 51.62 188.38 46.48" fill="#2e5b5a"/><polyline points="219.7 166.4 219.7 159.85 249.31 158.63 249.31 165.18" fill="#afafaf"/><path d="M219.7,179.89c.33.11,13.67,7.92,13.67,7.92l15.94-9.13-13.8-7.85Z" fill="#afafaf"/><path d="M219.7,159.85c.33.11,13.67,7.92,13.67,7.92l15.94-9.13-13.8-7.85Z" fill="#bfbfbf"/><polygon points="233.37 187.81 233.37 167.76 219.7 159.85 219.7 179.89 233.37 187.81" fill="#aaa"/><polygon points="249.31 178.67 249.31 158.63 233.37 167.76 233.37 187.81 249.31 178.67" fill="#8e8e8e"/><polygon points="245.96 167.19 245.96 170.15 247.93 169.13 247.93 166.04 245.96 167.19" fill="#3c637a"/><polygon points="245.96 162.85 245.96 165.81 247.93 164.78 247.93 161.7 245.96 162.85" fill="#3c637a"/><polygon points="245.96 176.1 245.96 179.06 247.93 178.03 247.93 174.94 245.96 176.1" fill="#3c637a"/><polygon points="245.96 171.67 245.96 174.63 247.93 173.61 247.93 170.52 245.96 171.67" fill="#3c637a"/><polygon points="241.55 169.54 241.55 172.5 243.52 171.47 243.52 168.39 241.55 169.54" fill="#3c637a"/><polygon points="241.55 165.19 241.55 168.15 243.52 167.13 243.52 164.04 241.55 165.19" fill="#3c637a"/><polygon points="241.55 178.44 241.55 181.4 243.52 180.37 243.52 177.29 241.55 178.44" fill="#3c637a"/><polygon points="241.55 174.02 241.55 176.98 243.52 175.95 243.52 172.87 241.55 174.02" fill="#3c637a"/><polygon points="236.77 172.27 236.77 175.23 238.74 174.2 238.74 171.12 236.77 172.27" fill="#3c637a"/><polygon points="236.77 167.93 236.77 170.88 238.74 169.86 238.74 166.78 236.77 167.93" fill="#3c637a"/><polygon points="236.77 181.17 236.77 184.13 238.74 183.1 238.74 180.02 236.77 181.17" fill="#3c637a"/><polygon points="236.77 176.75 236.77 179.71 238.74 178.68 238.74 175.6 236.77 176.75" fill="#3c637a"/><polygon points="223.3 168.21 223.3 171.17 221.33 170.15 221.33 167.06 223.3 168.21" fill="#3c637a"/><polygon points="223.3 163.87 223.3 166.83 221.33 165.8 221.33 162.72 223.3 163.87" fill="#3c637a"/><polygon points="223.3 177.11 223.3 180.07 221.33 179.05 221.33 175.96 223.3 177.11" fill="#3c637a"/><polygon points="223.3 172.69 223.3 175.65 221.33 174.63 221.33 171.54 223.3 172.69" fill="#3c637a"/><polygon points="227.2 170.41 227.2 173.37 225.22 172.34 225.22 169.26 227.2 170.41" fill="#3c637a"/><polygon points="227.2 166.07 227.2 169.03 225.22 168 225.22 164.92 227.2 166.07" fill="#3c637a"/><polygon points="227.2 179.31 227.2 182.27 225.22 181.25 225.22 178.16 227.2 179.31" fill="#3c637a"/><polygon points="227.2 174.89 227.2 177.85 225.22 176.82 225.22 173.74 227.2 174.89" fill="#3c637a"/><polygon points="231.3 172.98 231.3 175.94 229.33 174.91 229.33 171.83 231.3 172.98" fill="#3c637a"/><polygon points="231.3 168.64 231.3 171.6 229.33 170.57 229.33 167.49 231.3 168.64" fill="#3c637a"/><polygon points="231.3 181.88 231.3 184.84 229.33 183.82 229.33 180.73 231.3 181.88" fill="#3c637a"/><polygon points="231.3 177.46 231.3 180.42 229.33 179.4 229.33 176.31 231.3 177.46" fill="#3c637a"/><polyline points="220.84 201.14 194.7 217.17 221.26 232.72 249 216.1" fill="url(#linear-gradient-2)"/><polyline points="211.25 190.62 211.25 179.96 259.45 177.98 259.45 188.64" fill="#afafaf"/><path d="M211.25,212.57c.54.18,22.25,12.88,22.25,12.88l25.95-14.86L237,197.82Z" fill="#afafaf"/><path d="M211.25,180c.54.18,22.25,12.88,22.25,12.88L259.45,178,237,165.2Z" fill="#bfbfbf"/><polygon points="233.5 225.46 233.5 192.84 211.25 179.96 211.25 212.57 233.5 225.46" fill="#aaa"/><polygon points="259.45 210.59 259.45 177.98 233.5 192.84 233.5 225.46 259.45 210.59" fill="#8e8e8e"/><polygon points="253.99 191.91 253.99 196.73 257.2 195.06 257.2 190.04 253.99 191.91" fill="#3c637a"/><polygon points="253.99 184.84 253.99 189.66 257.2 187.99 257.2 182.97 253.99 184.84" fill="#3c637a"/><polygon points="253.99 206.4 253.99 211.21 257.2 209.54 257.2 204.53 253.99 206.4" fill="#3c637a"/><polygon points="253.99 199.2 253.99 204.02 257.2 202.35 257.2 197.33 253.99 199.2" fill="#3c637a"/><polygon points="246.81 195.72 246.81 200.54 250.02 198.87 250.02 193.85 246.81 195.72" fill="#3c637a"/><polygon points="246.81 188.66 246.81 193.47 250.02 191.81 250.02 186.79 246.81 188.66" fill="#3c637a"/><polygon points="246.81 210.21 246.81 215.03 250.02 213.36 250.02 208.34 246.81 210.21" fill="#3c637a"/><polygon points="246.81 203.02 246.81 207.83 250.02 206.16 250.02 201.14 246.81 203.02" fill="#3c637a"/><polygon points="239.03 200.17 239.03 204.98 242.25 203.32 242.25 198.3 239.03 200.17" fill="#3c637a"/><polygon points="239.03 193.1 239.03 197.92 242.25 196.25 242.25 191.23 239.03 193.1" fill="#3c637a"/><polygon points="239.03 214.66 239.03 219.47 242.25 217.8 242.25 212.78 239.03 214.66" fill="#3c637a"/><polygon points="239.03 207.46 239.03 212.28 242.25 210.61 242.25 205.59 239.03 207.46" fill="#3c637a"/><polygon points="217.11 193.57 217.11 198.38 213.9 196.72 213.9 191.7 217.11 193.57" fill="#3c637a"/><polygon points="217.11 186.5 217.11 191.32 213.9 189.65 213.9 184.63 217.11 186.5" fill="#3c637a"/><polygon points="217.11 208.06 217.11 212.87 213.9 211.2 213.9 206.18 217.11 208.06" fill="#3c637a"/><polygon points="217.11 200.86 217.11 205.67 213.9 204 213.9 198.99 217.11 200.86" fill="#3c637a"/><polygon points="223.46 197.15 223.46 201.96 220.25 200.29 220.25 195.28 223.46 197.15" fill="#3c637a"/><polygon points="223.46 190.08 223.46 194.9 220.25 193.23 220.25 188.21 223.46 190.08" fill="#3c637a"/><polygon points="223.46 211.63 223.46 216.45 220.25 214.78 220.25 209.76 223.46 211.63" fill="#3c637a"/><polygon points="223.46 204.44 223.46 209.25 220.25 207.59 220.25 202.57 223.46 204.44" fill="#3c637a"/><polygon points="230.14 201.33 230.14 206.14 226.93 204.48 226.93 199.46 230.14 201.33" fill="#3c637a"/><polygon points="230.14 194.26 230.14 199.08 226.93 197.41 226.93 192.39 230.14 194.26" fill="#3c637a"/><polygon points="230.14 215.82 230.14 220.63 226.93 218.96 226.93 213.94 230.14 215.82" fill="#3c637a"/><polygon points="230.14 208.62 230.14 213.43 226.93 211.77 226.93 206.75 230.14 208.62" fill="#3c637a"/><polyline points="201.35 234.27 190.72 239.36 194.42 241.52 202.85 236.47" fill="url(#linear-gradient-3)"/><rect x="200.76" y="219.94" width="2.52" height="16.74" rx="1.26" ry="1.26" fill="#bc532a"/><path d="M208.25,223.37c-.58-2.53-3.17-13.65-7.75-10.38-2.35,1.68-3,4.29-4,6.86a20.42,20.42,0,0,0-1.46,6.63c-.07,4.63,4.64,5.2,8.24,5.18,2.08,0,5-1.24,5.53-3.49a10.82,10.82,0,0,0-.5-4.3Z" fill="#2c9135"/><path d="M208.47,223.86l-.11-.49c-.52-2.23-2.6-11.19-6.24-11,1.08,4.72,2.68,9.71,1.83,14.55a11.05,11.05,0,0,1-1.93,4.68c.48,0,1,0,1.42,0,2.08,0,5-1.24,5.53-3.49A10.82,10.82,0,0,0,208.47,223.86Z" fill="#156819"/></svg>