<svg xmlns="http://www.w3.org/2000/svg" xmlns:xlink="http://www.w3.org/1999/xlink" viewBox="0 0 400 300"><defs><linearGradient id="linear-gradient" x1="101.37" y1="229.43" x2="121.29" y2="212.14" gradientUnits="userSpaceOnUse"><stop offset="0" stop-color="#88a80d" stop-opacity="0"/><stop offset="0.5" stop-color="#88a80d" stop-opacity="0"/><stop offset="1" stop-color="#88a80d"/></linearGradient><linearGradient id="linear-gradient-2" x1="162.94" y1="264.16" x2="182.86" y2="246.87" xlink:href="#linear-gradient"/><linearGradient id="linear-gradient-3" x1="262.47" y1="213.28" x2="284.37" y2="194.27" xlink:href="#linear-gradient"/><linearGradient id="linear-gradient-4" x1="191.62" y1="175.69" x2="211.53" y2="158.4" xlink:href="#linear-gradient"/><linearGradient id="linear-gradient-5" x1="159.78" y1="194.7" x2="179.7" y2="177.42" xlink:href="#linear-gradient"/></defs><title>aaa</title><g style="isolation:isolate"><g id="Layer_2" data-name="Layer 2"><path d="M196.69,279.77,345.9,191.58c4.75-2.67,8.83-7,4.19-9.92L200.35,95.36c-2.25-1.39-5.66-2.3-7.94-1L35.77,185.29c-4.75,2.76-5.6,10.46-.85,13.22L177,279.63A19.84,19.84,0,0,0,196.69,279.77Z" fill="#6b9738"/><path d="M350.09,181.67,200.35,95.36c-2.25-1.39-5.66-2.3-7.94-1L35.77,185.29c-4.75,2.76-5.6,10.46-.85,13.22L177,279.63a19.84,19.84,0,0,0,19.67.14L345.9,191.58C350.65,188.92,354.73,184.54,350.09,181.67ZM315,190.87,195.74,261.34a15.86,15.86,0,0,1-15.72-.11L66.46,196.4c-3.8-2.2-3.12-8.36.68-10.57l125.17-72.64c1.83-1.06,4.55-.33,6.35.78l119.67,69C322,185.24,318.77,188.74,315,190.87Z" fill="#f7deba"/><path d="M264.18,230l-146.24-85q-6.63,3-13.23,6.13l148.44,86.34Z" fill="#f7deba"/><path d="M237.46,248.29,86,160.32a106.9,106.9,0,0,0-11.87,6.92l152.35,88.62Q232,252.06,237.46,248.29Z" fill="#f7deba"/><path d="M263,141.39,104.1,233.72q6,3.51,12.14,6.87L275,148.25A105.54,105.54,0,0,1,263,141.39Z" fill="#f7deba"/><path d="M309.26,162.12l12.35-7.18-11.73-7-13.52,7.85C300.63,158,304.91,160.13,309.26,162.12Z" fill="#f7deba"/><path d="M293.71,157.33,134,250.12q6.35,3.3,12.75,6.51l159.79-92.95C302.24,161.65,298,159.48,293.71,157.33Z" fill="#f7deba"/><rect x="252.12" y="197.31" width="2.52" height="16.74" rx="1.26" ry="1.26" fill="#bc532a"/><path d="M259.62,200.73c-.58-2.53-3.17-13.65-7.75-10.38-2.35,1.68-3,4.29-4,6.86a20.42,20.42,0,0,0-1.46,6.63c-.07,4.63,4.64,5.2,8.24,5.18,2.08,0,5-1.24,5.53-3.49a10.82,10.82,0,0,0-.5-4.3Z" fill="#2c9135"/><path d="M259.84,201.22l-.11-.49c-.52-2.23-2.6-11.19-6.24-11,1.08,4.72,2.68,9.71,1.83,14.55a11.05,11.05,0,0,1-1.93,4.68c.48,0,1,0,1.42,0,2.08,0,5-1.24,5.53-3.49A10.82,10.82,0,0,0,259.84,201.22Z" fill="#156819"/><rect x="146.5" y="137.14" width="2.52" height="16.74" rx="1.26" ry="1.26" fill="#bc532a"/><path d="M154,140.56c-.58-2.53-3.17-13.65-7.75-10.38-2.35,1.68-3,4.29-4,6.86a20.42,20.42,0,0,0-1.46,6.63c-.07,4.63,4.64,5.2,8.24,5.18,2.08,0,5-1.24,5.53-3.49a10.82,10.82,0,0,0-.5-4.3Z" fill="#2c9135"/><path d="M154.22,141.05l-.11-.49c-.52-2.23-2.6-11.19-6.24-11,1.08,4.72,2.68,9.71,1.83,14.55a11.05,11.05,0,0,1-1.93,4.68c.48,0,1,0,1.42,0,2.08,0,5-1.24,5.53-3.49A10.82,10.82,0,0,0,154.22,141.05Z" fill="#156819"/><rect x="259" y="150.31" width="2.52" height="16.74" rx="1.26" ry="1.26" fill="#bc532a"/><path d="M266.49,153.74c-.58-2.53-3.17-13.65-7.75-10.38-2.35,1.68-3,4.29-4,6.86a20.42,20.42,0,0,0-1.46,6.63c-.07,4.63,4.64,5.2,8.24,5.18,2.08,0,5-1.24,5.53-3.49a10.82,10.82,0,0,0-.5-4.3Z" fill="#2c9135"/><path d="M266.71,154.23l-.11-.49c-.52-2.23-2.6-11.19-6.24-11,1.08,4.72,2.68,9.71,1.83,14.55a11.05,11.05,0,0,1-1.93,4.68c.48,0,1,0,1.42,0,2.08,0,5-1.24,5.53-3.49A10.82,10.82,0,0,0,266.71,154.23Z" fill="#156819"/><rect x="147.71" y="215.6" width="2.52" height="16.74" rx="1.26" ry="1.26" fill="#bc532a"/><path d="M155.21,219c-.58-2.53-3.17-13.65-7.75-10.38-2.35,1.68-3,4.29-4,6.86a20.42,20.42,0,0,0-1.46,6.63c-.07,4.63,4.64,5.2,8.24,5.18,2.08,0,5-1.24,5.53-3.49a10.82,10.82,0,0,0-.5-4.3Z" fill="#2c9135"/><path d="M155.43,219.52l-.11-.49c-.52-2.23-2.6-11.19-6.24-11,1.08,4.72,2.68,9.71,1.83,14.55a11.05,11.05,0,0,1-1.93,4.68c.48,0,1,0,1.42,0,2.08,0,5-1.24,5.53-3.49A10.82,10.82,0,0,0,155.43,219.52Z" fill="#156819"/><rect x="227.85" y="168.98" width="2.52" height="16.74" rx="1.26" ry="1.26" fill="#bc532a"/><path d="M235.34,172.4c-.58-2.53-3.17-13.65-7.75-10.38-2.35,1.68-3,4.29-4,6.86a20.42,20.42,0,0,0-1.46,6.63c-.07,4.63,4.64,5.2,8.24,5.18,2.08,0,5-1.24,5.53-3.49a10.82,10.82,0,0,0-.5-4.3Z" fill="#2c9135"/><path d="M235.56,172.89l-.11-.49c-.52-2.23-2.6-11.19-6.24-11,1.08,4.72,2.68,9.71,1.83,14.55a11.05,11.05,0,0,1-1.93,4.68c.48,0,1,0,1.42,0,2.08,0,5-1.24,5.53-3.49A10.82,10.82,0,0,0,235.56,172.89Z" fill="#156819"/><polyline points="127.42 199.82 99.67 215.27 117.8 225.72 135.42 215.51" fill="url(#linear-gradient)" style="mix-blend-mode:multiply"/><polygon points="110.85 209.67 110.85 129.44 128.35 139.22 128.35 219.76 110.85 209.67" fill="#68e1fd"/><polygon points="110.85 209.67 110.85 129.44 128.35 139.22 128.35 219.76 110.85 209.67" fill="#1e4549" opacity="0.33"/><polygon points="128.35 139.22 146.12 129.44 146.12 209.33 128.35 219.76 128.35 139.22" fill="#68e1fd"/><polygon points="110.85 129.44 128.35 118.71 146.12 129.44 128.35 139.22 110.85 129.44" fill="#ccc"/><polygon points="146.12 129.44 128.35 139.22 110.85 129.44 110.85 131.81 128.35 141.44 146.12 131.65 146.12 129.44" fill="#1e4549"/><polygon points="144 139.78 144 136.03 141.78 137.25 141.78 140.85 144 139.78" fill="#e0e0e0"/><polygon points="138.45 142.78 138.45 139.03 136.22 140.25 136.22 143.85 138.45 142.78" fill="#e0e0e0"/><polygon points="132.69 146.31 132.69 142.57 130.46 143.79 130.46 147.39 132.69 146.31" fill="#e0e0e0"/><polygon points="144 153.21 144 149.47 141.78 150.69 141.78 154.29 144 153.21" fill="#e0e0e0"/><polygon points="138.45 156.21 138.45 152.46 136.22 153.69 136.22 157.29 138.45 156.21" fill="#e0e0e0"/><polygon points="132.69 159.75 132.69 156 130.46 157.22 130.46 160.82 132.69 159.75" fill="#e0e0e0"/><polygon points="144 168.59 144 164.84 141.78 166.06 141.78 169.66 144 168.59" fill="#e0e0e0"/><polygon points="138.45 171.58 138.45 167.83 136.22 169.06 136.22 172.66 138.45 171.58" fill="#e0e0e0"/><polygon points="132.69 175.12 132.69 171.37 130.46 172.6 130.46 176.2 132.69 175.12" fill="#e0e0e0"/><polygon points="144 183.81 144 180.06 141.78 181.28 141.78 184.88 144 183.81" fill="#e0e0e0"/><polygon points="138.45 186.8 138.45 183.05 136.22 184.28 136.22 187.88 138.45 186.8" fill="#e0e0e0"/><polygon points="132.69 190.34 132.69 186.59 130.46 187.82 130.46 191.42 132.69 190.34" fill="#e0e0e0"/><polygon points="144 199.02 144 195.28 141.78 196.5 141.78 200.1 144 199.02" fill="#e0e0e0"/><polygon points="138.45 202.02 138.45 198.27 136.22 199.5 136.22 203.1 138.45 202.02" fill="#e0e0e0"/><polygon points="132.69 205.56 132.69 201.81 130.46 203.03 130.46 206.63 132.69 205.56" fill="#e0e0e0"/><polygon points="111.87 139.82 111.87 136.07 114.1 137.29 114.1 140.9 111.87 139.82" fill="#e0e0e0"/><polygon points="117.42 142.82 117.42 139.07 119.65 140.29 119.65 143.89 117.42 142.82" fill="#e0e0e0"/><polygon points="123.19 146.36 123.19 142.61 125.42 143.83 125.42 147.43 123.19 146.36" fill="#e0e0e0"/><polygon points="111.87 153.25 111.87 149.51 114.1 150.73 114.1 154.33 111.87 153.25" fill="#e0e0e0"/><polygon points="117.42 156.25 117.42 152.5 119.65 153.73 119.65 157.33 117.42 156.25" fill="#e0e0e0"/><polygon points="123.19 159.79 123.19 156.04 125.42 157.26 125.42 160.87 123.19 159.79" fill="#e0e0e0"/><polygon points="111.87 168.63 111.87 164.88 114.1 166.1 114.1 169.7 111.87 168.63" fill="#e0e0e0"/><polygon points="117.42 171.62 117.42 167.88 119.65 169.1 119.65 172.7 117.42 171.62" fill="#e0e0e0"/><polygon points="123.19 175.16 123.19 171.41 125.42 172.64 125.42 176.24 123.19 175.16" fill="#e0e0e0"/><polygon points="111.87 183.85 111.87 180.1 114.1 181.32 114.1 184.92 111.87 183.85" fill="#e0e0e0"/><polygon points="117.42 186.84 117.42 183.09 119.65 184.32 119.65 187.92 117.42 186.84" fill="#e0e0e0"/><polygon points="123.19 190.38 123.19 186.63 125.42 187.86 125.42 191.46 123.19 190.38" fill="#e0e0e0"/><polygon points="111.87 199.06 111.87 195.32 114.1 196.54 114.1 200.14 111.87 199.06" fill="#e0e0e0"/><polygon points="117.42 202.06 117.42 198.31 119.65 199.54 119.65 203.14 117.42 202.06" fill="#e0e0e0"/><polygon points="123.19 205.6 123.19 201.85 125.42 203.08 125.42 206.68 123.19 205.6" fill="#e0e0e0"/><polygon points="146.12 157.26 128.2 166.53 110.85 157.42 110.85 161.13 128.35 170.23 146.12 161.13 146.12 157.26" fill="#2e5b5a"/><polygon points="146.12 172.66 128.2 181.92 110.85 172.82 110.85 176.53 128.35 185.62 146.12 176.53 146.12 172.66" fill="#2e5b5a"/><polygon points="146.12 187.88 128.2 197.14 110.85 188.04 110.85 191.74 128.35 200.84 146.12 191.74 146.12 187.88" fill="#2e5b5a"/><polygon points="145.98 201.85 128.06 211.12 110.72 202.01 110.72 205.72 128.21 214.82 145.98 205.72 145.98 201.85" fill="#2e5b5a"/><polygon points="146.12 142.57 128.2 151.83 110.85 142.73 110.85 146.44 128.35 155.53 146.12 146.44 146.12 142.57" fill="#2e5b5a"/><polyline points="188.62 234.12 160.87 249.57 179.69 260.76 198.03 250.09" fill="url(#linear-gradient-2)" style="mix-blend-mode:multiply"/><polyline points="166.09 228.36 166.09 219.39 206.63 217.72 206.63 226.69" fill="#afafaf"/><path d="M166.09,246.83c.45.15,18.72,10.84,18.72,10.84l21.83-12.5-18.89-10.75Z" fill="#afafaf"/><path d="M166.09,219.39c.45.15,18.72,10.84,18.72,10.84l21.83-12.5L187.74,207Z" fill="#bfbfbf"/><polygon points="184.81 257.66 184.81 230.23 166.09 219.39 166.09 246.83 184.81 257.66" fill="#aaa"/><polygon points="206.63 245.16 206.63 217.72 184.81 230.23 184.81 257.66 206.63 245.16" fill="#8e8e8e"/><polygon points="202.04 229.44 202.04 233.5 204.74 232.09 204.74 227.87 202.04 229.44" fill="#3c637a"/><polygon points="202.04 223.5 202.04 227.55 204.74 226.15 204.74 221.93 202.04 223.5" fill="#3c637a"/><polygon points="202.04 241.63 202.04 245.68 204.74 244.28 204.74 240.06 202.04 241.63" fill="#3c637a"/><polygon points="202.04 235.58 202.04 239.63 204.74 238.22 204.74 234 202.04 235.58" fill="#3c637a"/><polygon points="196 232.65 196 236.7 198.71 235.3 198.71 231.08 196 232.65" fill="#3c637a"/><polygon points="196 226.71 196 230.76 198.71 229.35 198.71 225.13 196 226.71" fill="#3c637a"/><polygon points="196 244.84 196 248.89 198.71 247.49 198.71 243.26 196 244.84" fill="#3c637a"/><polygon points="196 238.79 196 242.84 198.71 241.43 198.71 237.21 196 238.79" fill="#3c637a"/><polygon points="189.46 236.39 189.46 240.44 192.16 239.04 192.16 234.82 189.46 236.39" fill="#3c637a"/><polygon points="189.46 230.45 189.46 234.5 192.16 233.09 192.16 228.87 189.46 230.45" fill="#3c637a"/><polygon points="189.46 248.58 189.46 252.63 192.16 251.22 192.16 247 189.46 248.58" fill="#3c637a"/><polygon points="189.46 242.52 189.46 246.57 192.16 245.17 192.16 240.95 189.46 242.52" fill="#3c637a"/><polygon points="171.02 230.84 171.02 234.89 168.32 233.49 168.32 229.26 171.02 230.84" fill="#3c637a"/><polygon points="171.02 224.89 171.02 228.94 168.32 227.54 168.32 223.32 171.02 224.89" fill="#3c637a"/><polygon points="171.02 243.03 171.02 247.07 168.32 245.67 168.32 241.45 171.02 243.03" fill="#3c637a"/><polygon points="171.02 236.97 171.02 241.02 168.32 239.62 168.32 235.4 171.02 236.97" fill="#3c637a"/><polygon points="176.36 233.85 176.36 237.9 173.66 236.5 173.66 232.28 176.36 233.85" fill="#3c637a"/><polygon points="176.36 227.91 176.36 231.96 173.66 230.55 173.66 226.33 176.36 227.91" fill="#3c637a"/><polygon points="176.36 246.04 176.36 250.09 173.66 248.68 173.66 244.46 176.36 246.04" fill="#3c637a"/><polygon points="176.36 239.98 176.36 244.03 173.66 242.63 173.66 238.41 176.36 239.98" fill="#3c637a"/><polygon points="181.98 237.37 181.98 241.42 179.28 240.01 179.28 235.79 181.98 237.37" fill="#3c637a"/><polygon points="181.98 231.42 181.98 235.47 179.28 234.07 179.28 229.85 181.98 231.42" fill="#3c637a"/><polygon points="181.98 249.55 181.98 253.6 179.28 252.2 179.28 247.98 181.98 249.55" fill="#3c637a"/><polygon points="181.98 243.5 181.98 247.55 179.28 246.15 179.28 241.93 181.98 243.5" fill="#3c637a"/><polyline points="286.28 179.87 258.52 195.32 282.01 210.35 305.51 197.31" fill="url(#linear-gradient-3)" style="mix-blend-mode:multiply"/><polygon points="273.04 189.49 273.04 149.57 296.23 162.52 296.23 202.93 273.04 189.49" fill="#68e1fd"/><polygon points="273.04 189.49 273.04 149.57 296.23 162.52 296.23 202.93 273.04 189.49" fill="#1e4549" opacity="0.33"/><polygon points="296.23 162.52 319.77 149.57 319.77 189.13 296.23 202.93 296.23 162.52" fill="#68e1fd"/><polygon points="273.04 149.57 296.23 135.34 319.77 149.57 296.23 162.52 273.04 149.57" fill="#ccc"/><polygon points="319.77 149.57 296.23 162.52 273.04 149.57 273.04 152.71 296.23 165.47 319.77 152.49 319.77 149.57" fill="#1e4549"/><polygon points="316.98 163.27 316.98 158.3 314.02 159.92 314.02 164.69 316.98 163.27" fill="#e0e0e0"/><polygon points="309.62 167.24 309.62 162.27 306.66 163.9 306.66 168.67 309.62 167.24" fill="#e0e0e0"/><polygon points="301.98 171.93 301.98 166.97 299.03 168.59 299.03 173.36 301.98 171.93" fill="#e0e0e0"/><polygon points="316.98 181.08 316.98 176.11 314.02 177.73 314.02 182.5 316.98 181.08" fill="#e0e0e0"/><polygon points="309.62 185.05 309.62 180.08 306.66 181.7 306.66 186.47 309.62 185.05" fill="#e0e0e0"/><polygon points="301.98 189.74 301.98 184.77 299.03 186.39 299.03 191.16 301.98 189.74" fill="#e0e0e0"/><polygon points="274.39 163.32 274.39 158.36 277.34 159.98 277.34 164.75 274.39 163.32" fill="#e0e0e0"/><polygon points="281.75 167.3 281.75 162.33 284.7 163.95 284.7 168.72 281.75 167.3" fill="#e0e0e0"/><polygon points="289.39 171.99 289.39 167.02 292.34 168.64 292.34 173.41 289.39 171.99" fill="#e0e0e0"/><polygon points="274.39 181.13 274.39 176.16 277.34 177.78 277.34 182.55 274.39 181.13" fill="#e0e0e0"/><polygon points="281.75 185.1 281.75 180.13 284.7 181.75 284.7 186.53 281.75 185.1" fill="#e0e0e0"/><polygon points="289.39 189.79 289.39 184.82 292.34 186.44 292.34 191.22 289.39 189.79" fill="#e0e0e0"/><polygon points="278.97 149.84 278.97 120.68 295.91 130.14 295.91 159.65 278.97 149.84" fill="#68e1fd"/><polygon points="278.97 149.84 278.97 120.68 295.91 130.14 295.91 159.65 278.97 149.84" fill="#1e4549" opacity="0.33"/><polygon points="295.91 130.14 313.1 120.68 313.1 149.57 295.91 159.65 295.91 130.14" fill="#68e1fd"/><polygon points="278.97 120.68 295.91 110.29 313.1 120.68 295.91 130.14 278.97 120.68" fill="#ccc"/><polygon points="313.1 120.68 295.91 130.14 278.97 120.68 278.97 122.97 295.91 132.29 313.1 122.81 313.1 120.68" fill="#1e4549"/><polygon points="311.06 130.69 311.06 127.06 308.9 128.24 308.9 131.73 311.06 130.69" fill="#e0e0e0"/><polygon points="305.69 133.59 305.69 129.96 303.53 131.14 303.53 134.63 305.69 133.59" fill="#e0e0e0"/><polygon points="300.11 137.01 300.11 133.39 297.95 134.57 297.95 138.06 300.11 137.01" fill="#e0e0e0"/><polygon points="311.06 143.69 311.06 140.06 308.9 141.25 308.9 144.73 311.06 143.69" fill="#e0e0e0"/><polygon points="305.69 146.59 305.69 142.96 303.53 144.15 303.53 147.63 305.69 146.59" fill="#e0e0e0"/><polygon points="300.11 150.02 300.11 146.39 297.95 147.57 297.95 151.06 300.11 150.02" fill="#e0e0e0"/><polygon points="279.96 130.73 279.96 127.1 282.11 128.28 282.11 131.77 279.96 130.73" fill="#e0e0e0"/><polygon points="285.33 133.63 285.33 130 287.49 131.18 287.49 134.67 285.33 133.63" fill="#e0e0e0"/><polygon points="290.91 137.05 290.91 133.43 293.07 134.61 293.07 138.09 290.91 137.05" fill="#e0e0e0"/><polygon points="279.96 143.73 279.96 140.1 282.11 141.29 282.11 144.77 279.96 143.73" fill="#e0e0e0"/><polygon points="285.33 146.63 285.33 143 287.49 144.19 287.49 147.67 285.33 146.63" fill="#e0e0e0"/><polygon points="290.91 150.06 290.91 146.43 293.07 147.61 293.07 151.1 290.91 150.06" fill="#e0e0e0"/><polygon points="283.12 121.12 283.12 99.05 295.94 106.21 295.94 128.55 283.12 121.12" fill="#68e1fd"/><polygon points="283.12 121.12 283.12 99.05 295.94 106.21 295.94 128.55 283.12 121.12" fill="#1e4549" opacity="0.33"/><polygon points="295.94 106.21 308.96 99.05 308.96 120.92 295.94 128.55 295.94 106.21" fill="#68e1fd"/><polygon points="283.12 99.05 295.94 91.18 308.96 99.05 295.94 106.21 283.12 99.05" fill="#ccc"/><polygon points="308.96 99.05 295.94 106.21 283.12 99.05 283.12 100.78 295.94 107.84 308.96 100.66 308.96 99.05" fill="#1e4549"/><polygon points="307.41 106.62 307.41 103.88 305.78 104.77 305.78 107.41 307.41 106.62" fill="#e0e0e0"/><polygon points="303.34 108.82 303.34 106.07 301.71 106.97 301.71 109.61 303.34 108.82" fill="#e0e0e0"/><polygon points="299.12 111.41 299.12 108.67 297.49 109.56 297.49 112.2 299.12 111.41" fill="#e0e0e0"/><polygon points="307.41 116.47 307.41 113.72 305.78 114.62 305.78 117.26 307.41 116.47" fill="#e0e0e0"/><polygon points="303.34 118.67 303.34 115.92 301.71 116.81 301.71 119.45 303.34 118.67" fill="#e0e0e0"/><polygon points="299.12 121.26 299.12 118.51 297.49 119.41 297.49 122.05 299.12 121.26" fill="#e0e0e0"/><polygon points="283.86 106.65 283.86 103.91 285.5 104.8 285.5 107.44 283.86 106.65" fill="#e0e0e0"/><polygon points="287.93 108.85 287.93 106.1 289.56 107 289.56 109.64 287.93 108.85" fill="#e0e0e0"/><polygon points="292.15 111.44 292.15 108.7 293.79 109.59 293.79 112.23 292.15 111.44" fill="#e0e0e0"/><polygon points="283.86 116.5 283.86 113.75 285.5 114.65 285.5 117.29 283.86 116.5" fill="#e0e0e0"/><polygon points="287.93 118.69 287.93 115.95 289.56 116.84 289.56 119.48 287.93 118.69" fill="#e0e0e0"/><polygon points="292.15 121.29 292.15 118.54 293.79 119.44 293.79 122.08 292.15 121.29" fill="#e0e0e0"/><polyline points="295.96 103.91 295.96 84.13 285.71 98.19" fill="#39726f"/><polygon points="295.96 84.13 306.36 98.19 295.96 103.91 295.96 84.13" fill="#2e5b5a"/><rect x="269.09" y="187.26" width="2.52" height="16.74" rx="1.26" ry="1.26" fill="#bc532a"/><path d="M276.59,190.69c-.58-2.53-3.17-13.65-7.75-10.38-2.35,1.68-3,4.29-4,6.86a20.42,20.42,0,0,0-1.46,6.63c-.07,4.63,4.64,5.2,8.24,5.18,2.08,0,5-1.24,5.53-3.49a10.82,10.82,0,0,0-.5-4.3Z" fill="#2c9135"/><path d="M276.8,191.18l-.11-.49c-.52-2.23-2.6-11.19-6.24-11,1.08,4.72,2.68,9.71,1.83,14.55a11.05,11.05,0,0,1-1.93,4.68c.48,0,1,0,1.42,0,2.08,0,5-1.24,5.53-3.49A10.82,10.82,0,0,0,276.8,191.18Z" fill="#156819"/><polyline points="217.3 145.65 189.54 161.1 208.36 172.29 226.71 161.62" fill="url(#linear-gradient-4)" style="mix-blend-mode:multiply"/><polygon points="199.55 150.53 199.55 43.81 222.82 56.81 222.82 163.94 199.55 150.53" fill="#68e1fd"/><polygon points="199.55 150.53 199.55 43.81 222.82 56.81 222.82 163.94 199.55 150.53" fill="#1e4549" opacity="0.33"/><polygon points="222.82 56.81 246.46 43.81 246.46 150.07 222.82 163.94 222.82 56.81" fill="#68e1fd"/><polygon points="199.55 43.81 222.82 29.53 246.46 43.81 222.82 56.81 199.55 43.81" fill="#ccc"/><polygon points="246.46 43.81 222.82 56.81 199.55 43.81 199.55 46.96 222.82 59.77 246.46 46.74 246.46 43.81" fill="#1e4549"/><polygon points="243.65 57.56 243.65 52.58 240.68 54.2 240.68 58.99 243.65 57.56" fill="#e0e0e0"/><polygon points="236.26 61.55 236.26 56.56 233.3 58.19 233.3 62.98 236.26 61.55" fill="#e0e0e0"/><polygon points="228.59 66.25 228.59 61.27 225.63 62.9 225.63 67.68 228.59 66.25" fill="#e0e0e0"/><polygon points="243.65 75.43 243.65 70.44 240.68 72.07 240.68 76.86 243.65 75.43" fill="#e0e0e0"/><polygon points="236.26 79.42 236.26 74.43 233.3 76.06 233.3 80.85 236.26 79.42" fill="#e0e0e0"/><polygon points="228.59 84.12 228.59 79.14 225.63 80.77 225.63 85.55 228.59 84.12" fill="#e0e0e0"/><polygon points="243.65 95.88 243.65 90.89 240.68 92.52 240.68 97.31 243.65 95.88" fill="#e0e0e0"/><polygon points="236.26 99.86 236.26 94.88 233.3 96.5 233.3 101.29 236.26 99.86" fill="#e0e0e0"/><polygon points="228.59 104.57 228.59 99.58 225.63 101.21 225.63 106 228.59 104.57" fill="#e0e0e0"/><polygon points="243.65 116.12 243.65 111.14 240.68 112.76 240.68 117.55 243.65 116.12" fill="#e0e0e0"/><polygon points="236.26 120.11 236.26 115.12 233.3 116.75 233.3 121.54 236.26 120.11" fill="#e0e0e0"/><polygon points="228.59 124.81 228.59 119.83 225.63 121.45 225.63 126.24 228.59 124.81" fill="#e0e0e0"/><polygon points="243.65 136.36 243.65 131.38 240.68 133 240.68 137.79 243.65 136.36" fill="#e0e0e0"/><polygon points="236.26 140.35 236.26 135.37 233.3 136.99 233.3 141.78 236.26 140.35" fill="#e0e0e0"/><polygon points="228.59 145.06 228.59 140.07 225.63 141.7 225.63 146.49 228.59 145.06" fill="#e0e0e0"/><polygon points="200.91 57.61 200.91 52.63 203.87 54.26 203.87 59.04 200.91 57.61" fill="#e0e0e0"/><polygon points="208.29 61.6 208.29 56.61 211.25 58.24 211.25 63.03 208.29 61.6" fill="#e0e0e0"/><polygon points="215.96 66.31 215.96 61.32 218.92 62.95 218.92 67.74 215.96 66.31" fill="#e0e0e0"/><polygon points="200.91 75.48 200.91 70.5 203.87 72.13 203.87 76.91 200.91 75.48" fill="#e0e0e0"/><polygon points="208.29 79.47 208.29 74.48 211.25 76.11 211.25 80.9 208.29 79.47" fill="#e0e0e0"/><polygon points="215.96 84.18 215.96 79.19 218.92 80.82 218.92 85.61 215.96 84.18" fill="#e0e0e0"/><polygon points="200.91 95.93 200.91 90.94 203.87 92.57 203.87 97.36 200.91 95.93" fill="#e0e0e0"/><polygon points="208.29 99.92 208.29 94.93 211.25 96.56 211.25 101.35 208.29 99.92" fill="#e0e0e0"/><polygon points="215.96 104.63 215.96 99.64 218.92 101.27 218.92 106.06 215.96 104.63" fill="#e0e0e0"/><polygon points="200.91 116.17 200.91 111.19 203.87 112.81 203.87 117.6 200.91 116.17" fill="#e0e0e0"/><polygon points="208.29 120.16 208.29 115.17 211.25 116.8 211.25 121.59 208.29 120.16" fill="#e0e0e0"/><polygon points="215.96 124.87 215.96 119.88 218.92 121.51 218.92 126.3 215.96 124.87" fill="#e0e0e0"/><polygon points="200.91 136.42 200.91 131.43 203.87 133.06 203.87 137.85 200.91 136.42" fill="#e0e0e0"/><polygon points="208.29 140.4 208.29 135.42 211.25 137.04 211.25 141.83 208.29 140.4" fill="#e0e0e0"/><polygon points="215.96 145.11 215.96 140.13 218.92 141.75 218.92 146.54 215.96 145.11" fill="#e0e0e0"/><polygon points="246.46 80.81 222.62 93.14 199.55 81.03 199.55 85.96 222.82 98.06 246.46 85.96 246.46 80.81" fill="#2e5b5a"/><polygon points="246.46 101.29 222.62 113.62 199.55 101.51 199.55 106.44 222.82 118.54 246.46 106.44 246.46 101.29" fill="#2e5b5a"/><polygon points="246.46 121.54 222.62 133.86 199.55 121.75 199.55 126.68 222.82 138.78 246.46 126.68 246.46 121.54" fill="#2e5b5a"/><polygon points="246.27 140.13 222.44 152.45 199.37 140.34 199.37 145.27 222.64 157.37 246.27 145.27 246.27 140.13" fill="#2e5b5a"/><polygon points="246.46 61.27 222.62 73.59 199.55 61.48 199.55 66.41 222.82 78.51 246.46 66.41 246.46 61.27" fill="#2e5b5a"/><polyline points="185.47 164.67 157.71 180.12 176.53 191.3 194.88 180.63" fill="url(#linear-gradient-5)" style="mix-blend-mode:multiply"/><polygon points="169.72 174.28 169.72 94.06 187.22 103.83 187.22 184.37 169.72 174.28" fill="#68e1fd"/><polygon points="169.72 174.28 169.72 94.06 187.22 103.83 187.22 184.37 169.72 174.28" fill="#1e4549" opacity="0.33"/><polygon points="187.22 103.83 204.99 94.06 204.99 173.94 187.22 184.37 187.22 103.83" fill="#68e1fd"/><polygon points="169.72 94.06 187.22 83.32 204.99 94.06 187.22 103.83 169.72 94.06" fill="#ccc"/><polygon points="204.99 94.06 187.22 103.83 169.72 94.06 169.72 96.42 187.22 106.05 204.99 96.26 204.99 94.06" fill="#1e4549"/><polygon points="202.87 104.39 202.87 100.64 200.64 101.87 200.64 105.47 202.87 104.39" fill="#e0e0e0"/><polygon points="197.32 107.39 197.32 103.64 195.09 104.86 195.09 108.46 197.32 107.39" fill="#e0e0e0"/><polygon points="191.56 110.93 191.56 107.18 189.33 108.4 189.33 112 191.56 110.93" fill="#e0e0e0"/><polygon points="202.87 117.83 202.87 114.08 200.64 115.3 200.64 118.9 202.87 117.83" fill="#e0e0e0"/><polygon points="197.32 120.82 197.32 117.08 195.09 118.3 195.09 121.9 197.32 120.82" fill="#e0e0e0"/><polygon points="191.56 124.36 191.56 120.61 189.33 121.84 189.33 125.44 191.56 124.36" fill="#e0e0e0"/><polygon points="202.87 133.2 202.87 129.45 200.64 130.67 200.64 134.27 202.87 133.2" fill="#e0e0e0"/><polygon points="197.32 136.19 197.32 132.45 195.09 133.67 195.09 137.27 197.32 136.19" fill="#e0e0e0"/><polygon points="191.56 139.74 191.56 135.99 189.33 137.21 189.33 140.81 191.56 139.74" fill="#e0e0e0"/><polygon points="202.87 148.42 202.87 144.67 200.64 145.89 200.64 149.49 202.87 148.42" fill="#e0e0e0"/><polygon points="197.32 151.41 197.32 147.67 195.09 148.89 195.09 152.49 197.32 151.41" fill="#e0e0e0"/><polygon points="191.56 154.95 191.56 151.21 189.33 152.43 189.33 156.03 191.56 154.95" fill="#e0e0e0"/><polygon points="202.87 163.64 202.87 159.89 200.64 161.11 200.64 164.71 202.87 163.64" fill="#e0e0e0"/><polygon points="197.32 166.63 197.32 162.88 195.09 164.11 195.09 167.71 197.32 166.63" fill="#e0e0e0"/><polygon points="191.56 170.17 191.56 166.43 189.33 167.65 189.33 171.25 191.56 170.17" fill="#e0e0e0"/><polygon points="170.74 104.43 170.74 100.68 172.97 101.91 172.97 105.51 170.74 104.43" fill="#e0e0e0"/><polygon points="176.29 107.43 176.29 103.68 178.52 104.9 178.52 108.5 176.29 107.43" fill="#e0e0e0"/><polygon points="182.06 110.97 182.06 107.22 184.28 108.44 184.28 112.04 182.06 110.97" fill="#e0e0e0"/><polygon points="170.74 117.87 170.74 114.12 172.97 115.34 172.97 118.94 170.74 117.87" fill="#e0e0e0"/><polygon points="176.29 120.86 176.29 117.12 178.52 118.34 178.52 121.94 176.29 120.86" fill="#e0e0e0"/><polygon points="182.06 124.4 182.06 120.66 184.28 121.88 184.28 125.48 182.06 124.4" fill="#e0e0e0"/><polygon points="170.74 133.24 170.74 129.49 172.97 130.71 172.97 134.31 170.74 133.24" fill="#e0e0e0"/><polygon points="176.29 136.24 176.29 132.49 178.52 133.71 178.52 137.31 176.29 136.24" fill="#e0e0e0"/><polygon points="182.06 139.78 182.06 136.03 184.28 137.25 184.28 140.85 182.06 139.78" fill="#e0e0e0"/><polygon points="170.74 148.46 170.74 144.71 172.97 145.93 172.97 149.53 170.74 148.46" fill="#e0e0e0"/><polygon points="176.29 151.46 176.29 147.71 178.52 148.93 178.52 152.53 176.29 151.46" fill="#e0e0e0"/><polygon points="182.06 154.99 182.06 151.25 184.28 152.47 184.28 156.07 182.06 154.99" fill="#e0e0e0"/><polygon points="170.74 163.68 170.74 159.93 172.97 161.15 172.97 164.75 170.74 163.68" fill="#e0e0e0"/><polygon points="176.29 166.67 176.29 162.93 178.52 164.15 178.52 167.75 176.29 166.67" fill="#e0e0e0"/><polygon points="182.06 170.21 182.06 166.47 184.28 167.69 184.28 171.29 182.06 170.21" fill="#e0e0e0"/><polygon points="204.99 121.87 187.06 131.14 169.72 122.03 169.72 125.74 187.22 134.84 204.99 125.74 204.99 121.87" fill="#2e5b5a"/><polygon points="204.99 137.27 187.06 146.53 169.72 137.43 169.72 141.14 187.22 150.23 204.99 141.14 204.99 137.27" fill="#2e5b5a"/><polygon points="204.99 152.49 187.06 161.75 169.72 152.65 169.72 156.36 187.22 165.45 204.99 156.36 204.99 152.49" fill="#2e5b5a"/><polygon points="204.85 166.47 186.93 175.73 169.59 166.63 169.59 170.33 187.08 179.43 204.85 170.33 204.85 166.47" fill="#2e5b5a"/><polygon points="204.99 107.18 187.06 116.44 169.72 107.34 169.72 111.05 187.22 120.14 204.99 111.05 204.99 107.18" fill="#2e5b5a"/></g></g></svg>