<svg xmlns="http://www.w3.org/2000/svg" xmlns:xlink="http://www.w3.org/1999/xlink" viewBox="0 0 400 300"><defs><linearGradient id="linear-gradient" x1="286.27" y1="210.52" x2="298.72" y2="199.95" gradientUnits="userSpaceOnUse"><stop offset="0" stop-color="#88a80d" stop-opacity="0"/><stop offset="0.5" stop-color="#88a80d" stop-opacity="0"/><stop offset="1" stop-color="#88a80d"/></linearGradient><linearGradient id="linear-gradient-2" x1="206.99" y1="216.09" x2="231.88" y2="194.49" xlink:href="#linear-gradient"/><linearGradient id="linear-gradient-3" x1="126.9" y1="259.7" x2="134.88" y2="247.46" xlink:href="#linear-gradient"/><linearGradient id="linear-gradient-4" x1="65.54" y1="216.06" x2="84.91" y2="199.24" xlink:href="#linear-gradient"/><linearGradient id="linear-gradient-5" x1="117.6" y1="185.85" x2="136.97" y2="169.04" xlink:href="#linear-gradient"/></defs><title>aaa</title><g style="isolation:isolate"><g id="Layer_2" data-name="Layer 2"><path d="M196.69,279.77,345.9,191.58c4.75-2.67,8.83-7,4.19-9.92L200.35,95.36c-2.25-1.39-5.66-2.3-7.94-1L35.77,185.29c-4.75,2.76-5.6,10.46-.85,13.22L177,279.63A19.84,19.84,0,0,0,196.69,279.77Z" fill="#88bc46"/><polygon points="320.11 206.78 151 108.53 139.98 115.1 308.98 213.4 320.11 206.78" fill="#606060"/><polygon points="246.84 250.13 85.39 156.32 74.38 162.89 235.69 256.72 246.84 250.13" fill="#606060"/><polygon points="71.27 219.29 242.79 119.64 253.8 126.2 82.63 225.77 71.27 219.29" fill="#606060"/><polygon points="144.86 261.17 316.37 161.51 327.39 168.08 156.21 267.65 144.86 261.17" fill="#606060"/><rect x="53.54" y="179.8" width="2.52" height="16.74" rx="1.26" ry="1.26" fill="#bc532a"/><path d="M61,183.23c-.58-2.53-3.17-13.65-7.75-10.38-2.35,1.68-3,4.29-4,6.86a20.42,20.42,0,0,0-1.46,6.63c-.07,4.63,4.64,5.2,8.24,5.18,2.08,0,5-1.24,5.53-3.49a10.82,10.82,0,0,0-.5-4.3Z" fill="#2c9135"/><path d="M61.26,183.72l-.11-.49c-.52-2.23-2.6-11.19-6.24-11C56,177,57.58,182,56.73,186.8a11.05,11.05,0,0,1-1.93,4.68c.48,0,1,0,1.42,0,2.08,0,5-1.24,5.53-3.49A10.82,10.82,0,0,0,61.26,183.72Z" fill="#156819"/><rect x="181.56" y="176.24" width="2.52" height="16.74" rx="1.26" ry="1.26" fill="#bc532a"/><path d="M189.06,179.67c-.58-2.53-3.17-13.65-7.75-10.38-2.35,1.68-3,4.29-4,6.86a20.42,20.42,0,0,0-1.46,6.63c-.07,4.63,4.64,5.2,8.24,5.18,2.08,0,5-1.24,5.53-3.49a10.82,10.82,0,0,0-.5-4.3Z" fill="#2c9135"/><path d="M189.28,180.16l-.11-.49c-.52-2.23-2.6-11.19-6.24-11,1.08,4.72,2.68,9.71,1.83,14.55a11.05,11.05,0,0,1-1.93,4.68c.48,0,1,0,1.42,0,2.08,0,5-1.24,5.53-3.49A10.82,10.82,0,0,0,189.28,180.16Z" fill="#156819"/><rect x="198.25" y="188.26" width="2.52" height="16.74" rx="1.26" ry="1.26" fill="#bc532a"/><path d="M205.74,191.69c-.58-2.53-3.17-13.65-7.75-10.38-2.35,1.68-3,4.29-4,6.86a20.42,20.42,0,0,0-1.46,6.63c-.07,4.63,4.64,5.2,8.24,5.18,2.08,0,5-1.24,5.53-3.49a10.82,10.82,0,0,0-.5-4.3Z" fill="#2c9135"/><path d="M206,192.18l-.11-.49c-.52-2.23-2.6-11.19-6.24-11,1.08,4.72,2.68,9.71,1.83,14.55a11.05,11.05,0,0,1-1.93,4.68c.48,0,1,0,1.42,0,2.08,0,5-1.24,5.53-3.49A10.82,10.82,0,0,0,206,192.18Z" fill="#156819"/><rect x="278.1" y="155.14" width="2.52" height="16.74" rx="1.26" ry="1.26" fill="#bc532a"/><path d="M285.6,158.56c-.58-2.53-3.17-13.65-7.75-10.38-2.35,1.68-3,4.29-4,6.86a20.42,20.42,0,0,0-1.46,6.63c-.07,4.63,4.64,5.2,8.24,5.18,2.08,0,5-1.24,5.53-3.49a10.82,10.82,0,0,0-.5-4.3Z" fill="#2c9135"/><path d="M285.82,159.05l-.11-.49c-.52-2.23-2.6-11.19-6.24-11,1.08,4.72,2.68,9.71,1.83,14.55a11.05,11.05,0,0,1-1.93,4.68c.48,0,1,0,1.42,0,2.08,0,5-1.24,5.53-3.49A10.82,10.82,0,0,0,285.82,159.05Z" fill="#156819"/><rect x="195.16" y="106.46" width="2.52" height="16.74" rx="1.26" ry="1.26" fill="#bc532a"/><path d="M202.66,109.88c-.58-2.53-3.17-13.65-7.75-10.38-2.35,1.68-3,4.29-4,6.86A20.42,20.42,0,0,0,189.5,113c-.07,4.63,4.64,5.2,8.24,5.18,2.08,0,5-1.24,5.53-3.49a10.82,10.82,0,0,0-.5-4.3Z" fill="#2c9135"/><path d="M202.88,110.37l-.11-.49c-.52-2.23-2.6-11.19-6.24-11,1.08,4.72,2.68,9.71,1.83,14.55a11.05,11.05,0,0,1-1.93,4.68c.48,0,1,0,1.42,0,2.08,0,5-1.24,5.53-3.49A10.82,10.82,0,0,0,202.88,110.37Z" fill="#156819"/><rect x="205.61" y="243.45" width="2.52" height="16.74" rx="1.26" ry="1.26" fill="#bc532a"/><path d="M213.11,246.87c-.58-2.53-3.17-13.65-7.75-10.38-2.35,1.68-3,4.29-4,6.86a20.42,20.42,0,0,0-1.46,6.63c-.07,4.63,4.64,5.2,8.24,5.18,2.08,0,5-1.24,5.53-3.49a10.82,10.82,0,0,0-.5-4.3Z" fill="#2c9135"/><path d="M213.33,247.36l-.11-.49c-.52-2.23-2.6-11.19-6.24-11,1.08,4.72,2.68,9.71,1.83,14.55a11.05,11.05,0,0,1-1.93,4.68c.48,0,1,0,1.42,0,2.08,0,5-1.24,5.53-3.49A10.82,10.82,0,0,0,213.33,247.36Z" fill="#156819"/><polyline points="298.58 188.73 272.44 204.75 293.29 216.96 319.57 199.76" fill="url(#linear-gradient)" style="mix-blend-mode:multiply"/><polygon points="297.25 190.76 297.25 104.3 316.1 114.83 316.1 201.63 297.25 190.76" fill="#ffd9b6"/><polygon points="316.1 114.83 335.25 104.3 335.25 190.39 316.1 201.63 316.1 114.83" fill="#fc9"/><polygon points="297.25 104.3 316.1 92.73 335.25 104.3 316.1 114.83 297.25 104.3" fill="#9d9ca1"/><polygon points="316.1 114.83 335.25 80.76 335.25 104.3 316.1 114.83" fill="#fc9"/><polygon points="335.25 80.76 316.25 68.47 297.25 104.3 316.1 114.83 335.25 80.76" fill="#ffd9b6"/><polygon points="330.93 106.34 330.93 109.46 333.01 108.38 333.01 105.12 330.93 106.34" fill="#3c637a"/><polygon points="330.93 102 330.93 105.12 333.01 104.04 333.01 100.79 330.93 102" fill="#3c637a"/><polygon points="330.93 115 330.93 118.13 333.01 117.05 333.01 113.79 330.93 115" fill="#3c637a"/><polygon points="330.93 110.67 330.93 113.79 333.01 112.71 333.01 109.46 330.93 110.67" fill="#3c637a"/><polygon points="330.93 124.43 330.93 127.56 333.01 126.47 333.01 123.22 330.93 124.43" fill="#3c637a"/><polygon points="330.93 120.1 330.93 123.22 333.01 122.14 333.01 118.89 330.93 120.1" fill="#3c637a"/><polygon points="330.93 133.1 330.93 136.22 333.01 135.14 333.01 131.89 330.93 133.1" fill="#3c637a"/><polygon points="330.93 128.77 330.93 131.89 333.01 130.81 333.01 127.56 330.93 128.77" fill="#3c637a"/><polygon points="330.97 142.53 330.97 145.65 333.05 144.57 333.05 141.32 330.97 142.53" fill="#3c637a"/><polygon points="330.97 138.2 330.97 141.32 333.05 140.24 333.05 136.98 330.97 138.2" fill="#3c637a"/><polygon points="330.97 151.2 330.97 154.32 333.05 153.24 333.05 149.99 330.97 151.2" fill="#3c637a"/><polygon points="330.97 146.87 330.97 149.99 333.05 148.9 333.05 145.65 330.97 146.87" fill="#3c637a"/><polygon points="330.97 160.63 330.97 163.75 333.05 162.67 333.05 159.41 330.97 160.63" fill="#3c637a"/><polygon points="330.97 156.29 330.97 159.41 333.05 158.33 333.05 155.08 330.97 156.29" fill="#3c637a"/><polygon points="330.97 169.29 330.97 172.42 333.05 171.34 333.05 168.08 330.97 169.29" fill="#3c637a"/><polygon points="330.97 164.96 330.97 168.08 333.05 167 333.05 163.75 330.97 164.96" fill="#3c637a"/><polygon points="330.97 178.31 330.97 181.43 333.05 180.35 333.05 177.1 330.97 178.31" fill="#3c637a"/><polygon points="330.97 173.98 330.97 177.1 333.05 176.02 333.05 172.77 330.97 173.98" fill="#3c637a"/><polygon points="330.97 186.98 330.97 190.1 333.05 189.02 333.05 185.77 330.97 186.98" fill="#3c637a"/><polygon points="330.97 182.65 330.97 185.77 333.05 184.69 333.05 181.43 330.97 182.65" fill="#3c637a"/><polygon points="327.25 108.01 327.25 111.13 329.33 110.05 329.33 106.8 327.25 108.01" fill="#3c637a"/><polygon points="327.25 103.68 327.25 106.8 329.33 105.72 329.33 102.46 327.25 103.68" fill="#3c637a"/><polygon points="327.25 116.68 327.25 119.8 329.33 118.72 329.33 115.47 327.25 116.68" fill="#3c637a"/><polygon points="327.25 112.34 327.25 115.47 329.33 114.38 329.33 111.13 327.25 112.34" fill="#3c637a"/><polygon points="327.25 126.11 327.25 129.23 329.33 128.15 329.33 124.89 327.25 126.11" fill="#3c637a"/><polygon points="327.25 121.77 327.25 124.89 329.33 123.81 329.33 120.56 327.25 121.77" fill="#3c637a"/><polygon points="327.25 134.78 327.25 137.9 329.33 136.81 329.33 133.56 327.25 134.78" fill="#3c637a"/><polygon points="327.25 130.44 327.25 133.56 329.33 132.48 329.33 129.23 327.25 130.44" fill="#3c637a"/><polygon points="327.29 144.2 327.29 147.32 329.37 146.24 329.37 142.99 327.29 144.2" fill="#3c637a"/><polygon points="327.29 139.87 327.29 142.99 329.37 141.91 329.37 138.66 327.29 139.87" fill="#3c637a"/><polygon points="327.29 152.87 327.29 155.99 329.37 154.91 329.37 151.66 327.29 152.87" fill="#3c637a"/><polygon points="327.29 148.54 327.29 151.66 329.37 150.58 329.37 147.32 327.29 148.54" fill="#3c637a"/><polygon points="327.29 162.3 327.29 165.42 329.37 164.34 329.37 161.09 327.29 162.3" fill="#3c637a"/><polygon points="327.29 157.97 327.29 161.09 329.37 160.01 329.37 156.75 327.29 157.97" fill="#3c637a"/><polygon points="327.29 170.97 327.29 174.09 329.37 173.01 329.37 169.75 327.29 170.97" fill="#3c637a"/><polygon points="327.29 166.63 327.29 169.75 329.37 168.67 329.37 165.42 327.29 166.63" fill="#3c637a"/><polygon points="327.29 179.99 327.29 183.11 329.37 182.03 329.37 178.77 327.29 179.99" fill="#3c637a"/><polygon points="327.29 175.65 327.29 178.77 329.37 177.69 329.37 174.44 327.29 175.65" fill="#3c637a"/><polygon points="327.29 188.65 327.29 191.78 329.37 190.69 329.37 187.44 327.29 188.65" fill="#3c637a"/><polygon points="327.29 184.32 327.29 187.44 329.37 186.36 329.37 183.11 327.29 184.32" fill="#3c637a"/><polygon points="322.88 110.72 322.88 113.84 324.96 112.76 324.96 109.51 322.88 110.72" fill="#3c637a"/><polygon points="322.88 106.39 322.88 109.51 324.96 108.43 324.96 105.17 322.88 106.39" fill="#3c637a"/><polygon points="322.88 119.39 322.88 122.51 324.96 121.43 324.96 118.17 322.88 119.39" fill="#3c637a"/><polygon points="322.88 115.06 322.88 118.17 324.96 117.09 324.96 113.84 322.88 115.06" fill="#3c637a"/><polygon points="322.88 128.82 322.88 131.94 324.96 130.86 324.96 127.6 322.88 128.82" fill="#3c637a"/><polygon points="322.88 124.48 322.88 127.6 324.96 126.52 324.96 123.27 322.88 124.48" fill="#3c637a"/><polygon points="322.88 137.49 322.88 140.61 324.96 139.52 324.96 136.27 322.88 137.49" fill="#3c637a"/><polygon points="322.88 133.15 322.88 136.27 324.96 135.19 324.96 131.94 322.88 133.15" fill="#3c637a"/><polygon points="322.92 146.91 322.92 150.03 325 148.95 325 145.7 322.92 146.91" fill="#3c637a"/><polygon points="322.92 142.58 322.92 145.7 325 144.62 325 141.37 322.92 142.58" fill="#3c637a"/><polygon points="322.92 155.58 322.92 158.7 325 157.62 325 154.37 322.92 155.58" fill="#3c637a"/><polygon points="322.92 151.25 322.92 154.37 325 153.29 325 150.03 322.92 151.25" fill="#3c637a"/><polygon points="322.92 165.01 322.92 168.13 325 167.05 325 163.8 322.92 165.01" fill="#3c637a"/><polygon points="322.92 160.68 322.92 163.8 325 162.72 325 159.46 322.92 160.68" fill="#3c637a"/><polygon points="322.92 173.68 322.92 176.8 325 175.72 325 172.47 322.92 173.68" fill="#3c637a"/><polygon points="322.92 169.34 322.92 172.47 325 171.38 325 168.13 322.92 169.34" fill="#3c637a"/><polygon points="322.92 182.7 322.92 185.82 325 184.74 325 181.48 322.92 182.7" fill="#3c637a"/><polygon points="322.92 178.36 322.92 181.48 325 180.4 325 177.15 322.92 178.36" fill="#3c637a"/><polygon points="322.92 191.36 322.92 194.48 325 193.4 325 190.15 322.92 191.36" fill="#3c637a"/><polygon points="322.92 187.03 322.92 190.15 325 189.07 325 185.82 322.92 187.03" fill="#3c637a"/><polygon points="319.01 113.63 319.01 116.75 321.09 115.67 321.09 112.42 319.01 113.63" fill="#3c637a"/><polygon points="319.01 122.3 319.01 125.42 321.09 124.34 321.09 121.09 319.01 122.3" fill="#3c637a"/><polygon points="319.01 117.97 319.01 121.09 321.09 120.01 321.09 116.75 319.01 117.97" fill="#3c637a"/><polygon points="319.01 131.73 319.01 134.85 321.09 133.77 321.09 130.52 319.01 131.73" fill="#3c637a"/><polygon points="319.01 127.4 319.01 130.52 321.09 129.44 321.09 126.18 319.01 127.4" fill="#3c637a"/><polygon points="319.01 140.4 319.01 143.52 321.09 142.44 321.09 139.19 319.01 140.4" fill="#3c637a"/><polygon points="319.01 136.06 319.01 139.19 321.09 138.1 321.09 134.85 319.01 136.06" fill="#3c637a"/><polygon points="319.05 149.83 319.05 152.95 321.13 151.87 321.13 148.61 319.05 149.83" fill="#3c637a"/><polygon points="319.05 145.49 319.05 148.61 321.13 147.53 321.13 144.28 319.05 145.49" fill="#3c637a"/><polygon points="319.05 158.5 319.05 161.62 321.13 160.53 321.13 157.28 319.05 158.5" fill="#3c637a"/><polygon points="319.05 154.16 319.05 157.28 321.13 156.2 321.13 152.95 319.05 154.16" fill="#3c637a"/><polygon points="319.05 167.92 319.05 171.04 321.13 169.96 321.13 166.71 319.05 167.92" fill="#3c637a"/><polygon points="319.05 163.59 319.05 166.71 321.13 165.63 321.13 162.38 319.05 163.59" fill="#3c637a"/><polygon points="319.05 176.59 319.05 179.71 321.13 178.63 321.13 175.38 319.05 176.59" fill="#3c637a"/><polygon points="319.05 172.26 319.05 175.38 321.13 174.3 321.13 171.04 319.05 172.26" fill="#3c637a"/><polygon points="319.05 185.61 319.05 188.73 321.13 187.65 321.13 184.4 319.05 185.61" fill="#3c637a"/><polygon points="319.05 181.28 319.05 184.4 321.13 183.31 321.13 180.06 319.05 181.28" fill="#3c637a"/><polygon points="319.05 194.28 319.05 197.4 321.13 196.32 321.13 193.06 319.05 194.28" fill="#3c637a"/><polygon points="319.05 189.94 319.05 193.06 321.13 191.98 321.13 188.73 319.05 189.94" fill="#3c637a"/><polygon points="301.19 115.81 301.19 118.93 299.11 117.85 299.11 114.59 301.19 115.81" fill="#3c637a"/><polygon points="301.19 111.47 301.19 114.59 299.11 113.51 299.11 110.26 301.19 111.47" fill="#3c637a"/><polygon points="301.19 125.24 301.19 128.36 299.11 127.28 299.11 124.02 301.19 125.24" fill="#3c637a"/><polygon points="301.19 120.9 301.19 124.02 299.11 122.94 299.11 119.69 301.19 120.9" fill="#3c637a"/><polygon points="301.19 133.9 301.19 137.02 299.11 135.94 299.11 132.69 301.19 133.9" fill="#3c637a"/><polygon points="301.19 129.57 301.19 132.69 299.11 131.61 299.11 128.36 301.19 129.57" fill="#3c637a"/><polygon points="301.15 143.33 301.15 146.45 299.07 145.37 299.07 142.12 301.15 143.33" fill="#3c637a"/><polygon points="301.15 139 301.15 142.12 299.07 141.04 299.07 137.79 301.15 139" fill="#3c637a"/><polygon points="301.15 152 301.15 155.12 299.07 154.04 299.07 150.79 301.15 152" fill="#3c637a"/><polygon points="301.15 147.67 301.15 150.79 299.07 149.71 299.07 146.45 301.15 147.67" fill="#3c637a"/><polygon points="301.15 161.43 301.15 164.55 299.07 163.47 299.07 160.22 301.15 161.43" fill="#3c637a"/><polygon points="301.15 157.1 301.15 160.22 299.07 159.13 299.07 155.88 301.15 157.1" fill="#3c637a"/><polygon points="301.15 170.1 301.15 173.22 299.07 172.14 299.07 168.88 301.15 170.1" fill="#3c637a"/><polygon points="301.15 165.76 301.15 168.88 299.07 167.8 299.07 164.55 301.15 165.76" fill="#3c637a"/><polygon points="301.15 179.12 301.15 182.24 299.07 181.15 299.07 177.9 301.15 179.12" fill="#3c637a"/><polygon points="301.15 174.78 301.15 177.9 299.07 176.82 299.07 173.57 301.15 174.78" fill="#3c637a"/><polygon points="301.15 187.78 301.15 190.9 299.07 189.82 299.07 186.57 301.15 187.78" fill="#3c637a"/><polygon points="301.15 183.45 301.15 186.57 299.07 185.49 299.07 182.24 301.15 183.45" fill="#3c637a"/><polygon points="304.99 118.17 304.99 121.29 302.91 120.21 302.91 116.96 304.99 118.17" fill="#3c637a"/><polygon points="304.99 113.84 304.99 116.96 302.91 115.88 302.91 112.63 304.99 113.84" fill="#3c637a"/><polygon points="304.99 127.6 304.99 130.72 302.91 129.64 302.91 126.39 304.99 127.6" fill="#3c637a"/><polygon points="304.99 123.27 304.99 126.39 302.91 125.31 302.91 122.06 304.99 123.27" fill="#3c637a"/><polygon points="304.99 136.27 304.99 139.39 302.91 138.31 302.91 135.06 304.99 136.27" fill="#3c637a"/><polygon points="304.99 131.94 304.99 135.06 302.91 133.97 302.91 130.72 304.99 131.94" fill="#3c637a"/><polygon points="304.95 145.7 304.95 148.82 302.87 147.74 302.87 144.49 304.95 145.7" fill="#3c637a"/><polygon points="304.95 141.37 304.95 144.49 302.87 143.4 302.87 140.15 304.95 141.37" fill="#3c637a"/><polygon points="304.95 154.37 304.95 157.49 302.87 156.41 302.87 153.15 304.95 154.37" fill="#3c637a"/><polygon points="304.95 150.03 304.95 153.15 302.87 152.07 302.87 148.82 304.95 150.03" fill="#3c637a"/><polygon points="304.95 163.79 304.95 166.92 302.87 165.84 302.87 162.58 304.95 163.79" fill="#3c637a"/><polygon points="304.95 159.46 304.95 162.58 302.87 161.5 302.87 158.25 304.95 159.46" fill="#3c637a"/><polygon points="304.95 172.46 304.95 175.58 302.87 174.5 302.87 171.25 304.95 172.46" fill="#3c637a"/><polygon points="304.95 168.13 304.95 171.25 302.87 170.17 302.87 166.92 304.95 168.13" fill="#3c637a"/><polygon points="304.95 181.48 304.95 184.6 302.87 183.52 302.87 180.27 304.95 181.48" fill="#3c637a"/><polygon points="304.95 177.15 304.95 180.27 302.87 179.19 302.87 175.93 304.95 177.15" fill="#3c637a"/><polygon points="304.95 190.15 304.95 193.27 302.87 192.19 302.87 188.94 304.95 190.15" fill="#3c637a"/><polygon points="304.95 185.81 304.95 188.94 302.87 187.85 302.87 184.6 304.95 185.81" fill="#3c637a"/><polygon points="308.8 120.42 308.8 123.53 306.71 122.45 306.71 119.2 308.8 120.42" fill="#3c637a"/><polygon points="308.8 116.08 308.8 119.2 306.71 118.12 306.71 114.87 308.8 116.08" fill="#3c637a"/><polygon points="308.8 129.84 308.8 132.96 306.71 131.88 306.71 128.63 308.8 129.84" fill="#3c637a"/><polygon points="308.8 125.51 308.8 128.63 306.71 127.55 306.71 124.3 308.8 125.51" fill="#3c637a"/><polygon points="308.8 138.51 308.8 141.63 306.71 140.55 306.71 137.3 308.8 138.51" fill="#3c637a"/><polygon points="308.8 134.18 308.8 137.3 306.71 136.22 306.71 132.96 308.8 134.18" fill="#3c637a"/><polygon points="308.76 147.94 308.76 151.06 306.68 149.98 306.68 146.73 308.76 147.94" fill="#3c637a"/><polygon points="308.76 143.61 308.76 146.73 306.68 145.65 306.68 142.39 308.76 143.61" fill="#3c637a"/><polygon points="308.76 156.61 308.76 159.73 306.68 158.65 306.68 155.39 308.76 156.61" fill="#3c637a"/><polygon points="308.76 152.27 308.76 155.39 306.68 154.31 306.68 151.06 308.76 152.27" fill="#3c637a"/><polygon points="308.76 166.04 308.76 169.16 306.68 168.08 306.68 164.82 308.76 166.04" fill="#3c637a"/><polygon points="308.76 161.7 308.76 164.82 306.68 163.74 306.68 160.49 308.76 161.7" fill="#3c637a"/><polygon points="308.76 174.7 308.76 177.82 306.68 176.74 306.68 173.49 308.76 174.7" fill="#3c637a"/><polygon points="308.76 170.37 308.76 173.49 306.68 172.41 306.68 169.16 308.76 170.37" fill="#3c637a"/><polygon points="308.76 183.72 308.76 186.84 306.68 185.76 306.68 182.51 308.76 183.72" fill="#3c637a"/><polygon points="308.76 179.39 308.76 182.51 306.68 181.43 306.68 178.18 308.76 179.39" fill="#3c637a"/><polygon points="308.76 192.39 308.76 195.51 306.68 194.43 306.68 191.18 308.76 192.39" fill="#3c637a"/><polygon points="308.76 188.06 308.76 191.18 306.68 190.09 306.68 186.84 308.76 188.06" fill="#3c637a"/><polygon points="312.79 122.8 312.79 125.92 310.7 124.84 310.7 121.59 312.79 122.8" fill="#3c637a"/><polygon points="312.79 118.47 312.79 121.59 310.7 120.5 310.7 117.25 312.79 118.47" fill="#3c637a"/><polygon points="312.79 132.23 312.79 135.35 310.7 134.27 310.7 131.01 312.79 132.23" fill="#3c637a"/><polygon points="312.79 127.89 312.79 131.01 310.7 129.93 310.7 126.68 312.79 127.89" fill="#3c637a"/><polygon points="312.79 140.9 312.79 144.02 310.7 142.94 310.7 139.68 312.79 140.9" fill="#3c637a"/><polygon points="312.79 136.56 312.79 139.68 310.7 138.6 310.7 135.35 312.79 136.56" fill="#3c637a"/><polygon points="312.75 150.32 312.75 153.44 310.67 152.36 310.67 149.11 312.75 150.32" fill="#3c637a"/><polygon points="312.75 145.99 312.75 149.11 310.67 148.03 310.67 144.78 312.75 145.99" fill="#3c637a"/><polygon points="312.75 158.99 312.75 162.11 310.67 161.03 310.67 157.78 312.75 158.99" fill="#3c637a"/><polygon points="312.75 154.66 312.75 157.78 310.67 156.7 310.67 153.44 312.75 154.66" fill="#3c637a"/><polygon points="312.75 168.42 312.75 171.54 310.67 170.46 310.67 167.21 312.75 168.42" fill="#3c637a"/><polygon points="312.75 164.09 312.75 167.21 310.67 166.13 310.67 162.87 312.75 164.09" fill="#3c637a"/><polygon points="312.75 177.09 312.75 180.21 310.67 179.13 310.67 175.88 312.75 177.09" fill="#3c637a"/><polygon points="312.75 172.75 312.75 175.88 310.67 174.79 310.67 171.54 312.75 172.75" fill="#3c637a"/><polygon points="312.75 186.11 312.75 189.23 310.67 188.15 310.67 184.89 312.75 186.11" fill="#3c637a"/><polygon points="312.75 181.77 312.75 184.89 310.67 183.81 310.67 180.56 312.75 181.77" fill="#3c637a"/><polygon points="312.75 194.77 312.75 197.9 310.67 196.81 310.67 193.56 312.75 194.77" fill="#3c637a"/><polygon points="312.75 190.44 312.75 193.56 310.67 192.48 310.67 189.23 312.75 190.44" fill="#3c637a"/><polygon points="330.66 83.39 316.25 74.07 301.84 101.25 316.14 109.23 330.66 83.39" fill="none" stroke="#ddb287" stroke-miterlimit="10"/><polyline points="231.78 183.28 205.64 199.3 225.41 210.09 252.78 194.31" fill="url(#linear-gradient-2)" style="mix-blend-mode:multiply"/><polygon points="223.59 189.39 223.59 102.93 242.44 113.46 242.44 200.26 223.59 189.39" fill="#ffd9b6"/><polygon points="242.44 113.46 261.59 102.93 261.59 189.02 242.44 200.26 242.44 113.46" fill="#fc9"/><polygon points="223.59 102.93 242.44 91.36 261.59 102.93 242.44 113.46 223.59 102.93" fill="#9d9ca1"/><polygon points="242.44 113.46 261.59 79.38 261.59 102.93 242.44 113.46" fill="#fc9"/><polygon points="261.59 79.38 242.59 67.1 223.59 102.93 242.44 113.46 261.59 79.38" fill="#ffd9b6"/><polygon points="257.27 104.96 257.27 108.08 259.35 107 259.35 103.75 257.27 104.96" fill="#3c637a"/><polygon points="257.27 100.63 257.27 103.75 259.35 102.67 259.35 99.42 257.27 100.63" fill="#3c637a"/><polygon points="257.27 113.63 257.27 116.75 259.35 115.67 259.35 112.42 257.27 113.63" fill="#3c637a"/><polygon points="257.27 109.3 257.27 112.42 259.35 111.34 259.35 108.08 257.27 109.3" fill="#3c637a"/><polygon points="257.27 123.06 257.27 126.18 259.35 125.1 259.35 121.85 257.27 123.06" fill="#3c637a"/><polygon points="257.27 118.72 257.27 121.85 259.35 120.77 259.35 117.51 257.27 118.72" fill="#3c637a"/><polygon points="257.27 131.73 257.27 134.85 259.35 133.77 259.35 130.51 257.27 131.73" fill="#3c637a"/><polygon points="257.27 127.39 257.27 130.51 259.35 129.43 259.35 126.18 257.27 127.39" fill="#3c637a"/><polygon points="257.31 141.16 257.31 144.28 259.39 143.19 259.39 139.94 257.31 141.16" fill="#3c637a"/><polygon points="257.31 136.82 257.31 139.94 259.39 138.86 259.39 135.61 257.31 136.82" fill="#3c637a"/><polygon points="257.31 149.82 257.31 152.94 259.39 151.86 259.39 148.61 257.31 149.82" fill="#3c637a"/><polygon points="257.31 145.49 257.31 148.61 259.39 147.53 259.39 144.28 257.31 145.49" fill="#3c637a"/><polygon points="257.31 159.25 257.31 162.37 259.39 161.29 259.39 158.04 257.31 159.25" fill="#3c637a"/><polygon points="257.31 154.92 257.31 158.04 259.39 156.96 259.39 153.71 257.31 154.92" fill="#3c637a"/><polygon points="257.31 167.92 257.31 171.04 259.39 169.96 259.39 166.71 257.31 167.92" fill="#3c637a"/><polygon points="257.31 163.59 257.31 166.71 259.39 165.63 259.39 162.37 257.31 163.59" fill="#3c637a"/><polygon points="257.31 176.94 257.31 180.06 259.39 178.98 259.39 175.72 257.31 176.94" fill="#3c637a"/><polygon points="257.31 172.6 257.31 175.72 259.39 174.64 259.39 171.39 257.31 172.6" fill="#3c637a"/><polygon points="257.31 185.61 257.31 188.73 259.39 187.65 259.39 184.39 257.31 185.61" fill="#3c637a"/><polygon points="257.31 181.27 257.31 184.39 259.39 183.31 259.39 180.06 257.31 181.27" fill="#3c637a"/><polygon points="253.59 106.64 253.59 109.76 255.67 108.67 255.67 105.42 253.59 106.64" fill="#3c637a"/><polygon points="253.59 102.3 253.59 105.42 255.67 104.34 255.67 101.09 253.59 102.3" fill="#3c637a"/><polygon points="253.59 115.3 253.59 118.42 255.67 117.34 255.67 114.09 253.59 115.3" fill="#3c637a"/><polygon points="253.59 110.97 253.59 114.09 255.67 113.01 255.67 109.76 253.59 110.97" fill="#3c637a"/><polygon points="253.59 124.73 253.59 127.85 255.67 126.77 255.67 123.52 253.59 124.73" fill="#3c637a"/><polygon points="253.59 120.4 253.59 123.52 255.67 122.44 255.67 119.19 253.59 120.4" fill="#3c637a"/><polygon points="253.59 133.4 253.59 136.52 255.67 135.44 255.67 132.19 253.59 133.4" fill="#3c637a"/><polygon points="253.59 129.07 253.59 132.19 255.67 131.11 255.67 127.85 253.59 129.07" fill="#3c637a"/><polygon points="253.63 142.83 253.63 145.95 255.71 144.87 255.71 141.62 253.63 142.83" fill="#3c637a"/><polygon points="253.63 138.5 253.63 141.62 255.71 140.53 255.71 137.28 253.63 138.5" fill="#3c637a"/><polygon points="253.63 151.5 253.63 154.62 255.71 153.54 255.71 150.28 253.63 151.5" fill="#3c637a"/><polygon points="253.63 147.16 253.63 150.28 255.71 149.2 255.71 145.95 253.63 147.16" fill="#3c637a"/><polygon points="253.63 160.93 253.63 164.05 255.71 162.97 255.71 159.71 253.63 160.93" fill="#3c637a"/><polygon points="253.63 156.59 253.63 159.71 255.71 158.63 255.71 155.38 253.63 156.59" fill="#3c637a"/><polygon points="253.63 169.59 253.63 172.71 255.71 171.63 255.71 168.38 253.63 169.59" fill="#3c637a"/><polygon points="253.63 165.26 253.63 168.38 255.71 167.3 255.71 164.05 253.63 165.26" fill="#3c637a"/><polygon points="253.63 178.61 253.63 181.73 255.71 180.65 255.71 177.4 253.63 178.61" fill="#3c637a"/><polygon points="253.63 174.28 253.63 177.4 255.71 176.32 255.71 173.06 253.63 174.28" fill="#3c637a"/><polygon points="253.63 187.28 253.63 190.4 255.71 189.32 255.71 186.07 253.63 187.28" fill="#3c637a"/><polygon points="253.63 182.94 253.63 186.07 255.71 184.98 255.71 181.73 253.63 182.94" fill="#3c637a"/><polygon points="249.22 109.35 249.22 112.47 251.3 111.39 251.3 108.13 249.22 109.35" fill="#3c637a"/><polygon points="249.22 105.01 249.22 108.13 251.3 107.05 251.3 103.8 249.22 105.01" fill="#3c637a"/><polygon points="249.22 118.01 249.22 121.13 251.3 120.05 251.3 116.8 249.22 118.01" fill="#3c637a"/><polygon points="249.22 113.68 249.22 116.8 251.3 115.72 251.3 112.47 249.22 113.68" fill="#3c637a"/><polygon points="249.22 127.44 249.22 130.56 251.3 129.48 251.3 126.23 249.22 127.44" fill="#3c637a"/><polygon points="249.22 123.11 249.22 126.23 251.3 125.15 251.3 121.89 249.22 123.11" fill="#3c637a"/><polygon points="249.22 136.11 249.22 139.23 251.3 138.15 251.3 134.9 249.22 136.11" fill="#3c637a"/><polygon points="249.22 131.78 249.22 134.9 251.3 133.82 251.3 130.56 249.22 131.78" fill="#3c637a"/><polygon points="249.26 145.54 249.26 148.66 251.34 147.58 251.34 144.33 249.26 145.54" fill="#3c637a"/><polygon points="249.26 141.21 249.26 144.33 251.34 143.24 251.34 139.99 249.26 141.21" fill="#3c637a"/><polygon points="249.26 154.21 249.26 157.33 251.34 156.25 251.34 152.99 249.26 154.21" fill="#3c637a"/><polygon points="249.26 149.87 249.26 152.99 251.34 151.91 251.34 148.66 249.26 149.87" fill="#3c637a"/><polygon points="249.26 163.64 249.26 166.76 251.34 165.68 251.34 162.42 249.26 163.64" fill="#3c637a"/><polygon points="249.26 159.3 249.26 162.42 251.34 161.34 251.34 158.09 249.26 159.3" fill="#3c637a"/><polygon points="249.26 172.3 249.26 175.42 251.34 174.34 251.34 171.09 249.26 172.3" fill="#3c637a"/><polygon points="249.26 167.97 249.26 171.09 251.34 170.01 251.34 166.76 249.26 167.97" fill="#3c637a"/><polygon points="249.26 181.32 249.26 184.44 251.34 183.36 251.34 180.11 249.26 181.32" fill="#3c637a"/><polygon points="249.26 176.99 249.26 180.11 251.34 179.03 251.34 175.77 249.26 176.99" fill="#3c637a"/><polygon points="249.26 189.99 249.26 193.11 251.34 192.03 251.34 188.78 249.26 189.99" fill="#3c637a"/><polygon points="249.26 185.66 249.26 188.78 251.34 187.69 251.34 184.44 249.26 185.66" fill="#3c637a"/><polygon points="245.35 112.26 245.35 115.38 247.43 114.3 247.43 111.05 245.35 112.26" fill="#3c637a"/><polygon points="245.35 120.93 245.35 124.05 247.43 122.97 247.43 119.71 245.35 120.93" fill="#3c637a"/><polygon points="245.35 116.59 245.35 119.71 247.43 118.63 247.43 115.38 245.35 116.59" fill="#3c637a"/><polygon points="245.35 130.35 245.35 133.48 247.43 132.4 247.43 129.14 245.35 130.35" fill="#3c637a"/><polygon points="245.35 126.02 245.35 129.14 247.43 128.06 247.43 124.81 245.35 126.02" fill="#3c637a"/><polygon points="245.35 139.02 245.35 142.14 247.43 141.06 247.43 137.81 245.35 139.02" fill="#3c637a"/><polygon points="245.35 134.69 245.35 137.81 247.43 136.73 247.43 133.48 245.35 134.69" fill="#3c637a"/><polygon points="245.39 148.45 245.39 151.57 247.47 150.49 247.47 147.24 245.39 148.45" fill="#3c637a"/><polygon points="245.39 144.12 245.39 147.24 247.47 146.16 247.47 142.91 245.39 144.12" fill="#3c637a"/><polygon points="245.39 157.12 245.39 160.24 247.47 159.16 247.47 155.91 245.39 157.12" fill="#3c637a"/><polygon points="245.39 152.79 245.39 155.91 247.47 154.82 247.47 151.57 245.39 152.79" fill="#3c637a"/><polygon points="245.39 166.55 245.39 169.67 247.47 168.59 247.47 165.34 245.39 166.55" fill="#3c637a"/><polygon points="245.39 162.22 245.39 165.34 247.47 164.25 247.47 161 245.39 162.22" fill="#3c637a"/><polygon points="245.39 175.22 245.39 178.34 247.47 177.26 247.47 174 245.39 175.22" fill="#3c637a"/><polygon points="245.39 170.88 245.39 174 247.47 172.92 247.47 169.67 245.39 170.88" fill="#3c637a"/><polygon points="245.39 184.23 245.39 187.35 247.47 186.27 247.47 183.02 245.39 184.23" fill="#3c637a"/><polygon points="245.39 179.9 245.39 183.02 247.47 181.94 247.47 178.69 245.39 179.9" fill="#3c637a"/><polygon points="245.39 192.9 245.39 196.02 247.47 194.94 247.47 191.69 245.39 192.9" fill="#3c637a"/><polygon points="245.39 188.57 245.39 191.69 247.47 190.61 247.47 187.35 245.39 188.57" fill="#3c637a"/><polygon points="227.53 114.43 227.53 117.55 225.44 116.47 225.44 113.22 227.53 114.43" fill="#3c637a"/><polygon points="227.53 110.1 227.53 113.22 225.44 112.14 225.44 108.89 227.53 110.1" fill="#3c637a"/><polygon points="227.53 123.86 227.53 126.98 225.44 125.9 225.44 122.65 227.53 123.86" fill="#3c637a"/><polygon points="227.53 119.53 227.53 122.65 225.44 121.57 225.44 118.31 227.53 119.53" fill="#3c637a"/><polygon points="227.53 132.53 227.53 135.65 225.44 134.57 225.44 131.31 227.53 132.53" fill="#3c637a"/><polygon points="227.53 128.19 227.53 131.31 225.44 130.23 225.44 126.98 227.53 128.19" fill="#3c637a"/><polygon points="227.49 141.96 227.49 145.08 225.41 144 225.41 140.74 227.49 141.96" fill="#3c637a"/><polygon points="227.49 137.62 227.49 140.74 225.41 139.66 225.41 136.41 227.49 137.62" fill="#3c637a"/><polygon points="227.49 150.63 227.49 153.75 225.41 152.66 225.41 149.41 227.49 150.63" fill="#3c637a"/><polygon points="227.49 146.29 227.49 149.41 225.41 148.33 225.41 145.08 227.49 146.29" fill="#3c637a"/><polygon points="227.49 160.05 227.49 163.18 225.41 162.09 225.41 158.84 227.49 160.05" fill="#3c637a"/><polygon points="227.49 155.72 227.49 158.84 225.41 157.76 225.41 154.51 227.49 155.72" fill="#3c637a"/><polygon points="227.49 168.72 227.49 171.84 225.41 170.76 225.41 167.51 227.49 168.72" fill="#3c637a"/><polygon points="227.49 164.39 227.49 167.51 225.41 166.43 225.41 163.18 227.49 164.39" fill="#3c637a"/><polygon points="227.49 177.74 227.49 180.86 225.41 179.78 225.41 176.53 227.49 177.74" fill="#3c637a"/><polygon points="227.49 173.41 227.49 176.53 225.41 175.44 225.41 172.19 227.49 173.41" fill="#3c637a"/><polygon points="227.49 186.41 227.49 189.53 225.41 188.45 225.41 185.19 227.49 186.41" fill="#3c637a"/><polygon points="227.49 182.07 227.49 185.19 225.41 184.11 225.41 180.86 227.49 182.07" fill="#3c637a"/><polygon points="231.33 116.8 231.33 119.92 229.25 118.84 229.25 115.58 231.33 116.8" fill="#3c637a"/><polygon points="231.33 112.46 231.33 115.58 229.25 114.5 229.25 111.25 231.33 112.46" fill="#3c637a"/><polygon points="231.33 126.23 231.33 129.35 229.25 128.27 229.25 125.01 231.33 126.23" fill="#3c637a"/><polygon points="231.33 121.89 231.33 125.01 229.25 123.93 229.25 120.68 231.33 121.89" fill="#3c637a"/><polygon points="231.33 134.9 231.33 138.01 229.25 136.93 229.25 133.68 231.33 134.9" fill="#3c637a"/><polygon points="231.33 130.56 231.33 133.68 229.25 132.6 229.25 129.35 231.33 130.56" fill="#3c637a"/><polygon points="231.29 144.32 231.29 147.44 229.21 146.36 229.21 143.11 231.29 144.32" fill="#3c637a"/><polygon points="231.29 139.99 231.29 143.11 229.21 142.03 229.21 138.78 231.29 139.99" fill="#3c637a"/><polygon points="231.29 152.99 231.29 156.11 229.21 155.03 229.21 151.78 231.29 152.99" fill="#3c637a"/><polygon points="231.29 148.66 231.29 151.78 229.21 150.7 229.21 147.44 231.29 148.66" fill="#3c637a"/><polygon points="231.29 162.42 231.29 165.54 229.21 164.46 229.21 161.21 231.29 162.42" fill="#3c637a"/><polygon points="231.29 158.09 231.29 161.21 229.21 160.13 229.21 156.87 231.29 158.09" fill="#3c637a"/><polygon points="231.29 171.09 231.29 174.21 229.21 173.13 229.21 169.88 231.29 171.09" fill="#3c637a"/><polygon points="231.29 166.75 231.29 169.88 229.21 168.79 229.21 165.54 231.29 166.75" fill="#3c637a"/><polygon points="231.29 180.11 231.29 183.23 229.21 182.15 229.21 178.89 231.29 180.11" fill="#3c637a"/><polygon points="231.29 175.77 231.29 178.89 229.21 177.81 229.21 174.56 231.29 175.77" fill="#3c637a"/><polygon points="231.29 188.77 231.29 191.89 229.21 190.81 229.21 187.56 231.29 188.77" fill="#3c637a"/><polygon points="231.29 184.44 231.29 187.56 229.21 186.48 229.21 183.23 231.29 184.44" fill="#3c637a"/><polygon points="235.13 119.04 235.13 122.16 233.06 121.08 233.06 117.83 235.13 119.04" fill="#3c637a"/><polygon points="235.13 114.71 235.13 117.83 233.06 116.75 233.06 113.49 235.13 114.71" fill="#3c637a"/><polygon points="235.13 128.47 235.13 131.59 233.06 130.51 233.06 127.25 235.13 128.47" fill="#3c637a"/><polygon points="235.13 124.13 235.13 127.25 233.06 126.17 233.06 122.92 235.13 124.13" fill="#3c637a"/><polygon points="235.13 137.14 235.13 140.26 233.06 139.18 233.06 135.92 235.13 137.14" fill="#3c637a"/><polygon points="235.13 132.8 235.13 135.92 233.06 134.84 233.06 131.59 235.13 132.8" fill="#3c637a"/><polygon points="235.09 146.56 235.09 149.69 233.01 148.6 233.01 145.35 235.09 146.56" fill="#3c637a"/><polygon points="235.09 142.23 235.09 145.35 233.01 144.27 233.01 141.02 235.09 142.23" fill="#3c637a"/><polygon points="235.09 155.23 235.09 158.35 233.01 157.27 233.01 154.02 235.09 155.23" fill="#3c637a"/><polygon points="235.09 150.9 235.09 154.02 233.01 152.94 233.01 149.69 235.09 150.9" fill="#3c637a"/><polygon points="235.09 164.66 235.09 167.78 233.01 166.7 233.01 163.45 235.09 164.66" fill="#3c637a"/><polygon points="235.09 160.33 235.09 163.45 233.01 162.37 233.01 159.11 235.09 160.33" fill="#3c637a"/><polygon points="235.09 173.33 235.09 176.45 233.01 175.37 233.01 172.12 235.09 173.33" fill="#3c637a"/><polygon points="235.09 169 235.09 172.12 233.01 171.03 233.01 167.78 235.09 169" fill="#3c637a"/><polygon points="235.09 182.35 235.09 185.47 233.01 184.39 233.01 181.13 235.09 182.35" fill="#3c637a"/><polygon points="235.09 178.01 235.09 181.13 233.01 180.05 233.01 176.8 235.09 178.01" fill="#3c637a"/><polygon points="235.09 191.01 235.09 194.13 233.01 193.05 233.01 189.8 235.09 191.01" fill="#3c637a"/><polygon points="235.09 186.68 235.09 189.8 233.01 188.72 233.01 185.47 235.09 186.68" fill="#3c637a"/><polygon points="239.13 121.42 239.13 124.54 237.04 123.46 237.04 120.21 239.13 121.42" fill="#3c637a"/><polygon points="239.13 117.09 239.13 120.21 237.04 119.13 237.04 115.88 239.13 117.09" fill="#3c637a"/><polygon points="239.13 130.85 239.13 133.97 237.04 132.89 237.04 129.64 239.13 130.85" fill="#3c637a"/><polygon points="239.13 126.52 239.13 129.64 237.04 128.56 237.04 125.31 239.13 126.52" fill="#3c637a"/><polygon points="239.13 139.52 239.13 142.64 237.04 141.56 237.04 138.31 239.13 139.52" fill="#3c637a"/><polygon points="239.13 135.19 239.13 138.31 237.04 137.23 237.04 133.97 239.13 135.19" fill="#3c637a"/><polygon points="239.09 148.95 239.09 152.07 237 150.99 237 147.74 239.09 148.95" fill="#3c637a"/><polygon points="239.09 144.62 239.09 147.74 237 146.66 237 143.4 239.09 144.62" fill="#3c637a"/><polygon points="239.09 157.62 239.09 160.74 237 159.66 237 156.4 239.09 157.62" fill="#3c637a"/><polygon points="239.09 153.28 239.09 156.4 237 155.32 237 152.07 239.09 153.28" fill="#3c637a"/><polygon points="239.09 167.05 239.09 170.17 237 169.09 237 165.83 239.09 167.05" fill="#3c637a"/><polygon points="239.09 162.71 239.09 165.83 237 164.75 237 161.5 239.09 162.71" fill="#3c637a"/><polygon points="239.09 175.71 239.09 178.83 237 177.75 237 174.5 239.09 175.71" fill="#3c637a"/><polygon points="239.09 171.38 239.09 174.5 237 173.42 237 170.17 239.09 171.38" fill="#3c637a"/><polygon points="239.09 184.73 239.09 187.85 237 186.77 237 183.52 239.09 184.73" fill="#3c637a"/><polygon points="239.09 180.4 239.09 183.52 237 182.44 237 179.18 239.09 180.4" fill="#3c637a"/><polygon points="239.09 193.4 239.09 196.52 237 195.44 237 192.19 239.09 193.4" fill="#3c637a"/><polygon points="239.09 189.06 239.09 192.19 237 191.1 237 187.85 239.09 189.06" fill="#3c637a"/><polygon points="257 82.02 242.59 72.7 228.18 99.87 242.48 107.86 257 82.02" fill="none" stroke="#ddb287" stroke-miterlimit="10"/><polyline points="137.28 225.14 111.14 241.16 140.54 258.8 164.87 244.2" fill="url(#linear-gradient-3)" style="mix-blend-mode:multiply"/><polyline points="120.43 208.63 120.43 194.95 182.25 192.41 182.25 206.09" fill="#afafaf"/><path d="M120.43,236.79c.69.23,28.54,16.52,28.54,16.52l33.28-19.06-28.8-16.39Z" fill="#afafaf"/><path d="M120.43,195c.69.23,28.54,16.52,28.54,16.52l33.28-19.06L153.45,176Z" fill="#bfbfbf"/><polygon points="148.97 253.31 148.97 211.48 120.43 194.95 120.43 236.78 148.97 253.31" fill="#aaa"/><polygon points="182.25 234.24 182.25 192.41 148.97 211.48 148.97 253.31 182.25 234.24" fill="#8e8e8e"/><polygon points="175.25 210.28 175.25 216.46 179.36 214.32 179.36 207.88 175.25 210.28" fill="#68e1fd"/><polygon points="175.25 201.22 175.25 207.4 179.36 205.25 179.36 198.82 175.25 201.22" fill="#68e1fd"/><polygon points="175.25 228.86 175.25 235.04 179.36 232.9 179.36 226.46 175.25 228.86" fill="#68e1fd"/><polygon points="175.25 219.63 175.25 225.81 179.36 223.67 179.36 217.23 175.25 219.63" fill="#68e1fd"/><polygon points="166.04 215.17 166.04 221.35 170.16 219.21 170.16 212.77 166.04 215.17" fill="#68e1fd"/><polygon points="166.04 206.11 166.04 212.29 170.16 210.15 170.16 203.71 166.04 206.11" fill="#68e1fd"/><polygon points="166.04 233.75 166.04 239.93 170.16 237.79 170.16 231.35 166.04 233.75" fill="#68e1fd"/><polygon points="166.04 224.53 166.04 230.7 170.16 228.56 170.16 222.12 166.04 224.53" fill="#68e1fd"/><polygon points="156.07 220.87 156.07 227.05 160.19 224.91 160.19 218.47 156.07 220.87" fill="#68e1fd"/><polygon points="156.07 211.81 156.07 217.99 160.19 215.85 160.19 209.41 156.07 211.81" fill="#68e1fd"/><polygon points="156.07 239.46 156.07 245.63 160.19 243.49 160.19 237.05 156.07 239.46" fill="#68e1fd"/><polygon points="156.07 230.22 156.07 236.4 160.19 234.26 160.19 227.82 156.07 230.22" fill="#68e1fd"/><polygon points="127.95 212.41 127.95 218.58 123.83 216.44 123.83 210.01 127.95 212.41" fill="#68e1fd"/><polygon points="127.95 203.34 127.95 209.52 123.83 207.38 123.83 200.94 127.95 203.34" fill="#68e1fd"/><polygon points="127.95 230.99 127.95 237.16 123.83 235.02 123.83 228.59 127.95 230.99" fill="#68e1fd"/><polygon points="127.95 221.76 127.95 227.93 123.83 225.79 123.83 219.36 127.95 221.76" fill="#68e1fd"/><polygon points="136.09 217 136.09 223.17 131.97 221.03 131.97 214.6 136.09 217" fill="#68e1fd"/><polygon points="136.09 207.94 136.09 214.11 131.97 211.97 131.97 205.53 136.09 207.94" fill="#68e1fd"/><polygon points="136.09 235.58 136.09 241.76 131.97 239.62 131.97 233.18 136.09 235.58" fill="#68e1fd"/><polygon points="136.09 226.35 136.09 232.53 131.97 230.39 131.97 223.95 136.09 226.35" fill="#68e1fd"/><polygon points="144.66 222.36 144.66 228.54 140.54 226.4 140.54 219.96 144.66 222.36" fill="#68e1fd"/><polygon points="144.66 213.3 144.66 219.47 140.54 217.33 140.54 210.9 144.66 213.3" fill="#68e1fd"/><polygon points="144.66 240.94 144.66 247.12 140.54 244.98 140.54 238.54 144.66 240.94" fill="#68e1fd"/><polygon points="144.66 231.71 144.66 237.89 140.54 235.75 140.54 229.31 144.66 231.71" fill="#68e1fd"/><polyline points="89.28 185.41 63.14 201.44 83.18 212.37 100.8 202.16" fill="url(#linear-gradient-4)" style="mix-blend-mode:multiply"/><polygon points="82.77 194.14 82.77 121.26 98.67 130.14 98.67 203.3 82.77 194.14" fill="#68e1fd"/><polygon points="82.77 194.14 82.77 121.26 98.67 130.14 98.67 203.3 82.77 194.14" fill="#1e4549" opacity="0.33"/><polygon points="98.67 130.14 114.81 121.26 114.81 193.83 98.67 203.3 98.67 130.14" fill="#68e1fd"/><polygon points="82.77 121.26 98.67 111.52 114.81 121.26 98.67 130.14 82.77 121.26" fill="#9d9ca1"/><polyline points="86.58 117.68 86.58 120.41 99.27 127.75 111.95 120.41 111.95 117.68" fill="#cc9825"/><polygon points="86.58 117.71 99.17 109.99 111.95 117.71 99.17 124.74 86.58 117.71" fill="#f9e1aa"/><polygon points="114.81 126.4 98.53 134.82 82.78 126.55 82.78 127.82 98.52 136.09 114.81 127.67 114.81 126.4" fill="#ccc"/><polygon points="114.81 131.68 98.53 140.1 82.78 131.83 82.78 133.1 98.52 141.37 114.81 132.95 114.81 131.68" fill="#ccc"/><polygon points="114.81 137.44 98.46 145.89 82.78 137.65 82.78 138.93 98.46 147.16 114.81 138.71 114.81 137.44" fill="#ccc"/><polygon points="114.81 142.66 98.33 151.17 82.78 143 82.78 144.28 98.33 152.44 114.81 143.93 114.81 142.66" fill="#ccc"/><polygon points="114.81 147.74 98.59 156.12 82.78 147.81 82.78 149.09 98.59 157.39 114.81 149.01 114.81 147.74" fill="#ccc"/><polygon points="114.81 152.95 98.46 161.4 82.78 153.16 82.78 154.44 98.46 162.68 114.81 154.22 114.81 152.95" fill="#ccc"/><polygon points="114.81 158.11 98.66 166.46 82.78 158.12 82.78 159.4 98.65 167.73 114.81 159.38 114.81 158.11" fill="#ccc"/><polygon points="114.81 163.5 98.53 171.91 82.78 163.64 82.78 164.92 98.52 173.19 114.81 164.77 114.81 163.5" fill="#ccc"/><polygon points="114.81 168.88 98.4 177.36 82.78 169.16 82.78 170.43 98.39 178.63 114.81 170.15 114.81 168.88" fill="#ccc"/><polygon points="114.81 174.09 98.27 182.64 82.78 174.51 82.78 175.78 98.27 183.92 114.81 175.36 114.81 174.09" fill="#ccc"/><polygon points="114.81 179.87 98.66 188.22 82.78 179.88 82.78 181.15 98.65 189.49 114.81 181.14 114.81 179.87" fill="#ccc"/><polygon points="114.81 185.08 98.53 193.5 82.78 185.23 82.78 186.5 98.52 194.77 114.81 186.35 114.81 185.08" fill="#ccc"/><polygon points="114.81 190.16 98.46 198.6 82.78 190.37 82.78 191.64 98.46 199.88 114.81 191.43 114.81 190.16" fill="#ccc"/><rect x="70.22" y="191.82" width="2.52" height="16.74" rx="1.26" ry="1.26" fill="#bc532a"/><path d="M77.72,195.25c-.58-2.53-3.17-13.65-7.75-10.38-2.35,1.68-3,4.29-4,6.86a20.42,20.42,0,0,0-1.46,6.63c-.07,4.63,4.64,5.2,8.24,5.18,2.08,0,5-1.24,5.53-3.49a10.82,10.82,0,0,0-.5-4.3Z" fill="#2c9135"/><path d="M77.94,195.74l-.11-.49c-.52-2.23-2.6-11.19-6.24-11,1.08,4.72,2.68,9.71,1.83,14.55a11.05,11.05,0,0,1-1.93,4.68c.48,0,1,0,1.42,0,2.08,0,5-1.24,5.53-3.49A10.82,10.82,0,0,0,77.94,195.74Z" fill="#156819"/><polyline points="141.34 155.21 115.2 171.23 135.24 182.17 152.86 171.95" fill="url(#linear-gradient-5)" style="mix-blend-mode:multiply"/><polygon points="128.59 163.25 128.59 76.78 147.44 87.32 147.44 174.12 128.59 163.25" fill="#68e1fd"/><polygon points="128.59 163.25 128.59 76.78 147.44 87.32 147.44 174.12 128.59 163.25" fill="#1e4549" opacity="0.33"/><polygon points="147.44 87.32 166.59 76.78 166.59 162.88 147.44 174.12 147.44 87.32" fill="#68e1fd"/><polygon points="128.59 76.78 147.44 65.22 166.59 76.78 147.44 87.32 128.59 76.78" fill="#9d9ca1"/><polyline points="133.11 72.53 133.11 75.78 148.16 84.47 163.2 75.78 163.2 72.53" fill="#cc9825"/><polygon points="133.11 72.56 148.04 63.4 163.2 72.56 148.04 80.9 133.11 72.56" fill="#f9e1aa"/><polygon points="166.59 82.88 147.28 92.86 128.59 83.05 128.59 84.56 147.27 94.37 166.59 84.39 166.59 82.88" fill="#ccc"/><polygon points="166.59 89.15 147.28 99.13 128.59 89.32 128.59 90.83 147.27 100.64 166.59 90.65 166.59 89.15" fill="#ccc"/><polygon points="166.59 95.97 147.2 106 128.59 96.23 128.59 97.74 147.2 107.51 166.59 97.48 166.59 95.97" fill="#ccc"/><polygon points="166.59 102.16 147.05 112.27 128.59 102.57 128.59 104.09 147.04 113.78 166.59 103.67 166.59 102.16" fill="#ccc"/><polygon points="166.59 108.19 147.35 118.14 128.59 108.28 128.59 109.8 147.35 119.65 166.59 109.7 166.59 108.19" fill="#ccc"/><polygon points="166.59 114.38 147.2 124.4 128.59 114.63 128.59 116.14 147.2 125.91 166.59 115.89 166.59 114.38" fill="#ccc"/><polygon points="166.59 120.5 147.43 130.4 128.59 120.51 128.59 122.02 147.43 131.91 166.59 122 166.59 120.5" fill="#ccc"/><polygon points="166.59 126.89 147.28 136.88 128.59 127.06 128.59 128.57 147.27 138.38 166.59 128.4 166.59 126.89" fill="#ccc"/><polygon points="166.59 133.27 147.13 143.34 128.59 133.6 128.59 135.12 147.12 144.85 166.59 134.78 166.59 133.27" fill="#ccc"/><polygon points="166.59 139.46 146.97 149.6 128.59 139.95 128.59 141.46 146.97 151.12 166.59 140.97 166.59 139.46" fill="#ccc"/><polygon points="166.59 146.31 147.43 156.22 128.59 146.32 128.59 147.84 147.43 157.73 166.59 147.82 166.59 146.31" fill="#ccc"/><polygon points="166.59 152.5 147.28 162.48 128.59 152.67 128.59 154.18 147.27 163.99 166.59 154.01 166.59 152.5" fill="#ccc"/><polygon points="166.59 158.52 147.2 168.54 128.59 158.77 128.59 160.28 147.2 170.05 166.59 160.02 166.59 158.52" fill="#ccc"/></g></g></svg>