<svg xmlns="http://www.w3.org/2000/svg" xmlns:xlink="http://www.w3.org/1999/xlink" viewBox="0 0 400 300"><defs><linearGradient id="linear-gradient" x1="325.43" y1="210.88" x2="328.48" y2="204.62" gradientUnits="userSpaceOnUse"><stop offset="0" stop-color="#fff" stop-opacity="0"/><stop offset="1" stop-color="#f15a24"/></linearGradient><linearGradient id="linear-gradient-2" x1="151.73" y1="273.78" x2="189.29" y2="224.05" xlink:href="#linear-gradient"/><linearGradient id="linear-gradient-3" x1="99.39" y1="167.53" x2="117.78" y2="154.51" xlink:href="#linear-gradient"/></defs><title>PP</title><g style="isolation:isolate"><g id="Layer_2" data-name="Layer 2"><path d="M192.86,291.25,20.36,189.3c-5.49-3.08-10.2-8.15-4.85-11.46L188.63,78.06c2.6-1.61,6.54-2.66,9.18-1.13L378.89,182c5.49,3.19,6.48,12.1,1,15.29L215.6,291.09A22.94,22.94,0,0,1,192.86,291.25Z" fill="#69cca6"/><path d="M328.27,194.7c-5,3.91-10.23,7.52-15.5,11.05l13,7.62L345.42,201Z" opacity="0.63" fill="url(#linear-gradient)" style="mix-blend-mode:multiply"/><path d="M323.4,175.83s-2.68,23,9.51,27.5,18.71-7.14,18.9-27.5" fill="#06577a"/><ellipse cx="337.61" cy="175.83" rx="14.21" ry="8.21" fill="#f2696a"/><path d="M341.25,157.57s-5.58-8.05-3.14-13.62c0,0,2-3.58,4.85-4.14,0,0-.28,7.63,2.56,6.66s0-8,0-8,3-4,6.25-3.91,0,7.14,2.27,6,.14-7.13,2.7-7.84a53.69,53.69,0,0,1,7.1-1.14s2.42,7,0,8-6,1.33-4.26,2.87,6.54-.23,6.54-.23.3,3.92-1.34,5.61-11.3-2.05-9.6,1.31,8.1,1.68,8.1,1.68-3.27,4.67-7.1,6.8S341.25,157.57,341.25,157.57Z" fill="#8ccc00"/><path d="M342.56,177.71s-4-4-3.24-7.39c0,0,.76-2.24,2.31-2.87,0,0,.65,4.36,2.16,3.51s-.85-4.53-.85-4.53,1.26-2.61,3.13-2.89.76,4.05,1.93,3.15-.68-4.06.7-4.74a31,31,0,0,1,3.91-1.4s2.11,3.69.85,4.52-3.25,1.39-2.11,2.08,3.69-.83,3.69-.83.59,2.19-.16,3.33-6.64,0-5.31,1.77,4.78.09,4.78.09a15.12,15.12,0,0,1-3.31,4.62C349.07,177.74,342.56,177.71,342.56,177.71Z" fill="#8ccc00"/><path d="M327.74,169.12s-9.79.38-13.17-4.66c0,0-1.94-3.61-.89-6.32,0,0,6.28,4.34,7,1.42s-6.74-4.29-6.74-4.29-1.81-4.69.06-7.38,6,3.83,6.26,1.29-5.94-3.95-5.16-6.49a53.69,53.69,0,0,1,2.86-6.6s7.17,1.7,6.71,4.28-2.08,5.75.13,5.14,3.32-5.64,3.32-5.64,3.47,1.85,4,4.15-7.81,8.43-4.05,8.8,5.77-5.93,5.77-5.93,2.18,5.27,1.92,9.65S327.74,169.12,327.74,169.12Z" fill="#8ccc00"/><path d="M361.72,134.65q-1.55,1.32-3.13,2.68c.11-1.11.24-2.21.41-3.31.09-.58-.8-.83-.89-.25q-.35,2.21-.53,4.44c-2.74,2.41-5.47,4.92-8,7.59a33,33,0,0,1-.17-5.65c0-.59-.89-.59-.92,0a34,34,0,0,0,.27,6.53,64,64,0,0,0-4.55,5.49,18.32,18.32,0,0,1-3.17-7.39c-.11-.58-1-.34-.89.25a19,19,0,0,0,3.42,7.83.47.47,0,0,0,.09.08c-4.07,5.76-6.87,12.23-7.1,19.72,0,.6.91.59.92,0,.23-7.21,2.91-13.46,6.81-19a35.66,35.66,0,0,0,11.46,1.12c.59,0,.6-1,0-.92a34.94,34.94,0,0,1-10.89-1,67.07,67.07,0,0,1,6.44-7.48l.08,0c2.16.19,4.32.38,6.48.46a7.91,7.91,0,0,0,4-.47c.53-.27.06-1.07-.47-.8-1.49.75-3.58.35-5.18.26-1.37-.08-2.74-.2-4.11-.32,3.3-3.26,6.83-6.3,10.24-9.19C362.83,134.92,362.17,134.27,361.72,134.65Z" fill="#06577a"/><path d="M333.06,152.65a.46.46,0,0,0-.89-.25,16.38,16.38,0,0,1-5.93,8.53q-1.57-4.36-2.88-8.82a27.62,27.62,0,0,0,5.42-7.66c.26-.53-.54-1-.8-.47a26.91,26.91,0,0,1-4.93,7.09c-1-3.4-1.82-6.84-2.54-10.31-.12-.58-1-.34-.89.25q1.47,7.12,3.64,14.05a21.69,21.69,0,0,1-5-1.65c-.54-.25-1,.54-.47.8a22.69,22.69,0,0,0,5.84,1.86h0c1,3,2.07,6,3.24,9a22.36,22.36,0,0,1-8-1.77c-.54-.23-1,.57-.47.8A23.59,23.59,0,0,0,327.2,166q2.23,5.56,4.9,10.94c.27.53,1.06.06.8-.47a144.32,144.32,0,0,1-6.34-14.68h0A17.39,17.39,0,0,0,333.06,152.65Z" fill="#06577a"/><path d="M349.81,164.61l-2.54,4.27a8,8,0,0,1-.81-1.33c-.26-.54-1.05-.07-.8.47a8.81,8.81,0,0,0,1.06,1.68l0,0L344,174.34a1.89,1.89,0,0,1-.57-1.11c-.07-.58-1-.59-.92,0a2.91,2.91,0,0,0,1,1.9l-3.45,5.79a.46.46,0,0,0,.8.47l4.55-7.63a6.91,6.91,0,0,0,2.25-.34c.56-.18.32-1.08-.25-.89a6.15,6.15,0,0,1-1.43.27l4.61-7.73A.46.46,0,0,0,349.81,164.61Z" fill="#06577a"/><polyline points="235.66 259.61 193.67 287.39 106.82 236.29 153.06 211.04" opacity="0.63" fill="url(#linear-gradient-2)" style="mix-blend-mode:multiply"/><path d="M192.73,11.36c16.43,10.29,57.74,34.19,71.83,42.83,3.19,2,3.68,4.87,3.73,8.62l0,174.85a5.58,5.58,0,0,1-7.18,1.1l-69.33-39.18c-3.45-2-6.16-4.12-6.16-8.12l.6-176.93C186.2,10.69,189.48,9.32,192.73,11.36Z" fill="#68e1fd"/><path d="M186.33,13.28l22.54,13v4.87a2.34,2.34,0,0,0,1.17,2l17.44,10.08a1.54,1.54,0,0,0,2.31-1.33V38.37l32.75,19.2a2.08,2.08,0,0,1,1,1.79V234.21a1.41,1.41,0,0,1-2.12,1.22l-75.85-44a7.52,7.52,0,0,0,3.34,7c3.93,2.51,73,41.6,73,41.6s5.46,2.47,7.06-4.05V60.1a7.2,7.2,0,0,0-3-5.84C262.9,52,192.42,11,192.42,11S187.46,8.69,186.33,13.28Z" fill="#124577"/><path d="M173.49,49.29v16a6.28,6.28,0,0,0,4.76,5.31c4.33,1,4.92-4.72,4.92-4.72V54.07Z" fill="#c13d3d"/><path d="M182.91,55.66l.4,16.85a6.28,6.28,0,0,0,4.76,5.31c4.33,1,4.92-4.72,4.92-4.72V61.29Z" fill="#dd842a"/><path d="M193,61.38v16a6.28,6.28,0,0,0,4.76,5.31c4.33,1,4.92-4.72,4.92-4.72V66.16Z" fill="#c13d3d"/><path d="M202.67,67.22v16a6.28,6.28,0,0,0,4.76,5.31c4.33,1,4.92-4.72,4.92-4.72V72Z" fill="#dd842a"/><path d="M212.36,72.1v16a6.28,6.28,0,0,0,4.76,5.31c4.33,1,4.92-4.72,4.92-4.72V76.88Z" fill="#c13d3d"/><path d="M221.88,78.64v16a6.28,6.28,0,0,0,4.76,5.31c4.33,1,4.92-4.72,4.92-4.72V83.42Z" fill="#dd842a"/><polyline points="221.88 79.45 244.88 47.04 253.74 52.45 231.56 85.18" fill="#f29d40"/><polyline points="212.36 73.77 234.92 41.38 244.88 47.04 221.88 79.45" fill="#e04f4f"/><polyline points="202.67 68.07 226.13 35.95 234.92 41.38 212.36 73.85" fill="#f29d40"/><polyline points="192.99 62.18 215.76 30.13 226.13 35.95 202.67 68" fill="#e04f4f"/><polyline points="183.17 56.15 204.95 24.1 215.76 30.13 192.99 62.18" fill="#f29d40"/><polyline points="173.49 50.28 195.12 18.35 204.95 24.1 183.17 56.15" fill="#e04f4f"/><polyline points="163.8 44.62 186.33 13.28 195.12 18.35 173.49 50.28" fill="#f29d40"/><path d="M262.55,57.57s1,.21,1,2V90.39l-25.13,14.37,3.5-22Z" fill="#aa2b2b"/><path d="M231.56,85.18V99.52a6.28,6.28,0,0,0,4.76,5.31c4.33,1,4.92-4.72,4.92-4.72l-.19-9.43Z" fill="#c13d3d"/><polyline points="241.05 90.67 262.55 57.57 253.74 52.45 231.56 85.18" fill="#e04f4f"/><path d="M163.8,44.62V61.43a6.28,6.28,0,0,0,4.76,5.31c4.33,1,4.92-4.72,4.92-4.72V50.21Z" fill="#dd842a"/><path d="M181.79,150.92l81.79,47.25-28.2,16.65-83.14-47.13Z" fill="#ffa364"/><polygon points="235.38 214.82 235.38 261.18 263.58 243.43 263.58 198.17 235.38 214.82" fill="#ffbb8d"/><polygon points="152.24 167.69 152.24 210.54 235.38 261.18 235.38 214.82 152.24 167.69" fill="#e58341"/><path d="M56,118.69a4,4,0,0,1,4.33,0c2.4,1.76,2.41,6.58,0,10.79A11.07,11.07,0,0,1,56.06,134a4,4,0,0,1-4.33,0c-2.4-1.76-2.41-6.58,0-10.79A11.07,11.07,0,0,1,56,118.69Z" fill="#68e1fd"/><path d="M55.94,92.89c6.9-3.54,13.81-3.8,19.08.07.76.56.77,2.1,0,3.44a3.55,3.55,0,0,1-1.38,1.42,1.28,1.28,0,0,1-1.38,0c-4.51-3.3-10.42-3.08-16.32-.06s-11.79,8.85-16.26,16.75a3.55,3.55,0,0,1-1.38,1.42,1.28,1.28,0,0,1-1.38,0c-.77-.56-.77-2.1,0-3.44C42.15,103.23,49,96.42,55.94,92.89Z" fill="#68e1fd"/><path d="M55.9,79.55c9.51-4.88,19-5.15,26.45.28,1.23.91.35,4-1.37,4.87a1.27,1.27,0,0,1-1.38,0C72.95,79.82,64.42,80,55.91,84.4s-17,12.86-23.62,24.53a3.52,3.52,0,0,1-1.38,1.42,1.29,1.29,0,0,1-1.39,0c-.76-.56-.77-2.1,0-3.44C36.89,93.9,46.39,84.43,55.9,79.55Z" fill="#68e1fd"/><path d="M56,105.35c4.34-2.22,8.69-2.39,12,0,1.23.9.35,4-1.37,4.86a1.29,1.29,0,0,1-1.38,0c-2.55-1.87-5.9-1.75-9.24,0a23.6,23.6,0,0,0-9.21,9.49,3.52,3.52,0,0,1-1.38,1.42,1.29,1.29,0,0,1-1.39,0c-.76-.57-.77-2.11,0-3.44C47.3,111.86,51.64,107.58,56,105.35Z" fill="#68e1fd"/><path d="M106.79,171.51l39.88-23.59-28.61-2.07L89.44,160.71C93.92,163.88,102.25,168.44,106.79,171.51Z" opacity="0.63" fill="url(#linear-gradient-3)" style="mix-blend-mode:multiply"/><path d="M123.14,89.6c-9.12.63-8.64,15.37-9.26,21.49-.16,1.54,2.21,2.05,2.37.5.51-5.1.17-12,3-16.49.88-1.39,1.92-2.74,3.71-2.87a4,4,0,0,1,3,1.17c.8.72,1.22,3.57,1.36,4.42a36.23,36.23,0,0,1,.16,9.54c-.16,1.54,2.21,2.05,2.37.5C130.34,103,131.27,89,123.14,89.6Z" fill="#8ccc00"/><polyline points="136.78 99.49 139.52 104.06 145 105.2 140.89 119.37 129.24 111.83" fill="#dd842a"/><polygon points="108.68 115.03 136.78 99.49 135.86 122.56 114.39 124.62 108.68 115.03" fill="#c13d3d"/><polygon points="118.73 118.45 123.07 162.09 149.34 146.32 145 105.2 118.73 118.45" fill="#f29d40"/><polygon points="118.73 118.45 115.76 115.03 108.68 115.03 105.71 153.18 113.33 156.69 123.07 162.09 118.73 118.45" fill="#dd842a"/><path d="M134.88,96.89c-9.14.08-9.54,14.83-10.52,20.9-.25,1.52,2.09,2.18,2.34.64.82-5.06.89-12,4-16.28,1.27-1.77,3.49-3.25,5.68-2.1,2,1,2,3.36,2.18,5.29a36.23,36.23,0,0,1-.41,9.53c-.25,1.52,2.08,2.18,2.34.64C141.26,110.75,143,96.82,134.88,96.89Z" fill="#8ccc00"/><path d="M205.62,113.85l9.69-6.89c.69-.49,3.07-2.46,3.4-2.36,1,.29,2.48,3.45,3,4.24,4.54,7.09,8.7,14.44,12.85,21.77a.38.38,0,0,0,.65-.38q-3.92-6.93-8-13.79c-1.79-3-3.57-6-5.49-9-.76-1.15-1.62-3-2.85-3.71a.37.37,0,0,0-.38,0l-13.24,9.42c-.39.28,0,.93.38.65Z" fill="#754c24"/><ellipse cx="218.67" cy="105.36" rx="2.12" ry="2.46" fill="#c13d3d"/><polygon points="237.16 130.99 203.01 112.38 203.01 138.4 237.16 157.14 237.16 130.99" fill="#fff"/><path d="M209.25,125.23a4.66,4.66,0,0,1,1.31,1l-.22.9a4.15,4.15,0,0,0-1.05-.85c-1.1-.61-1.89-.15-1.9,1.55a4,4,0,0,0,1.86,3.58,2.29,2.29,0,0,0,1.07.33l.16,1.1a2.84,2.84,0,0,1-1.39-.45,5.69,5.69,0,0,1-2.73-5.07C206.37,125,207.61,124.33,209.25,125.23Z" fill="#c13d3d"/><polygon points="212.34 127.06 212.31 133.02 214.52 134.24 214.51 135.33 211.32 133.56 211.35 126.51 212.34 127.06" fill="#c13d3d"/><path d="M217.25,129.65a5.64,5.64,0,0,1,2.48,4.94c0,2.36-1.11,3.11-2.59,2.29a5.66,5.66,0,0,1-2.46-5C214.7,129.77,215.74,128.82,217.25,129.65Zm-.06,6.23c1,.53,1.49-.33,1.5-1.8s-.49-2.86-1.47-3.4-1.5.35-1.5,1.81a3.91,3.91,0,0,0,1.48,3.39" fill="#c13d3d"/><path d="M222.35,132.47a4.48,4.48,0,0,1,1.29,1.07l-.24.9a3.78,3.78,0,0,0-1.07-.93c-.62-.34-.89-.05-.9.35s.31,1,1,1.73a4.05,4.05,0,0,1,1.38,2.86c0,1.13-.67,1.75-2.05,1a5.16,5.16,0,0,1-1.45-1.24l.22-.95a4.46,4.46,0,0,0,1.3,1.17c.63.35,1,.16,1-.42s-.27-1-1-1.7a4.19,4.19,0,0,1-1.44-2.86C220.45,132.3,221.18,131.82,222.35,132.47Z" fill="#c13d3d"/><polygon points="227.87 135.64 227.87 136.69 225.72 135.5 225.71 137.33 227.74 138.44 227.73 139.49 225.71 138.37 225.7 140.44 227.96 141.69 227.96 142.75 224.71 140.96 224.75 133.91 227.87 135.64" fill="#c13d3d"/><path d="M232.61,139a5.65,5.65,0,0,1,.83,3.05c0,1.26-.33,2-.85,2.34s-1.39.2-2.44-.38a12.8,12.8,0,0,1-1.32-.83l0-6.93a9.9,9.9,0,0,1,1.56.71A5.57,5.57,0,0,1,232.61,139Zm-2.23,4.11c1.26.69,2,.18,2-1.59a3.77,3.77,0,0,0-1.89-3.5,3.22,3.22,0,0,0-.67-.3l0,5a4.39,4.39,0,0,0,.54.33l0,0" fill="#c13d3d"/></g></g></svg>