<svg id="Layer_2" data-name="Layer 2" xmlns="http://www.w3.org/2000/svg" xmlns:xlink="http://www.w3.org/1999/xlink" viewBox="0 0 400 300"><defs><linearGradient id="linear-gradient" x1="128.93" y1="173.81" x2="157.06" y2="151.67" gradientUnits="userSpaceOnUse"><stop offset="0" stop-color="#58e6ca"/><stop offset="1" stop-color="#5297a4"/></linearGradient><linearGradient id="linear-gradient-2" x1="216.91" y1="140.92" x2="231.05" y2="120.37" gradientUnits="userSpaceOnUse"><stop offset="0" stop-color="#ffc2a4"/><stop offset="1" stop-color="#dd6f31"/></linearGradient><linearGradient id="linear-gradient-3" x1="285.3" y1="211.67" x2="313.03" y2="194.52" xlink:href="#linear-gradient-2"/><linearGradient id="linear-gradient-4" x1="196.63" y1="270.73" x2="224.64" y2="248.68" xlink:href="#linear-gradient-2"/></defs><title>PP</title><path d="M193.23,278.3,13.5,172.08c-5.72-3.21-10.63-8.49-5.05-11.94l180.37-104c2.71-1.68,6.82-2.78,9.57-1.18L387,164.5c5.72,3.32,6.75,12.6,1,15.93L216.92,278.13A23.9,23.9,0,0,1,193.23,278.3Z" fill="#ffc2a4"/><path d="M173.72,182.49l-1.18-.89,1-13.94,6.13.22s-.31,6,1,7.42,5,.75,5.34.89,2.8-.38,3.8.81-4,4.06-6.55,4.47a16.34,16.34,0,0,1-5.26-.18s-.29-3.61-1.19-3.32-1.24,4.06-1.24,4.06Z" fill="#053855"/><path d="M159.68,143.78c-.51,14.58,10.48,28.4,10.48,28.4s3.33,4.52,12.37,2.6c1-.21,3.12-23.46,4.18-35.54C181.65,137.87,163.06,136.5,159.68,143.78Z" fill="#7ec971"/><path d="M190.11,199.28c.28,0,2.84-1,.69-2.67a44.28,44.28,0,0,0-4.47-3.06" fill="#fec64b"/><path d="M190.11,185.72s-2.15,8,0,12.22l-29.26,17.2L131.9,231.89V219.51" fill="#ffe8bc"/><path d="M191.08,184.48q-.1.83-.21,1.66l-59,33.37v12.37l58.92-34.37c0,.49,0,1,0,1.47l-61.21,35.42V217.54Z" fill="#fec64b"/><path d="M190.75,184.7l-60.81,34.81-85.33-50.1,59.51-34.13a5.87,5.87,0,0,1,5.91,0l80.74,47.85A.88.88,0,0,1,190.75,184.7Z" fill="#fec64b"/><path d="M129.63,234.41s-85.28-50.22-85-50.46,0-14.54,0-14.54l85.33,50.1Z" fill="#fec64b"/><path d="M190.77,183.18a2.17,2.17,0,0,1,.89,1.54c.1,1-1,1.54-1.39,1.76" fill="#fec64b"/><path d="M190.11,182.42c.28,0,2.84-1,.69-2.67a44.28,44.28,0,0,0-4.47-3.06" fill="#58e6ca"/><path d="M190.11,168.86s-2.15,8,0,12.22l-29.26,17.2L131.9,215V202.65" fill="#ffe8bc"/><path d="M191.08,167.62q-.1.83-.21,1.66l-59,33.37V215l58.92-34.37c0,.49,0,1,0,1.47l-61.21,35.42V200.67Z" fill="#58e6ca"/><path d="M190.75,167.84l-60.81,34.81-85.33-50.1,59.51-34.13a5.87,5.87,0,0,1,5.91,0l80.74,47.85A.88.88,0,0,1,190.75,167.84Z" fill="#58e6ca"/><path d="M129.63,217.55s-85.28-50.22-85-50.46,0-14.54,0-14.54l85.33,50.1Z" fill="#46d1b6"/><path d="M190.77,166.31a2.17,2.17,0,0,1,.89,1.54c.1,1-1,1.54-1.39,1.76" fill="#58e6ca"/><path d="M131.28,180.31l45-22.84-26.4-7.73-39.25,17.52A219.1,219.1,0,0,0,131.28,180.31Z" fill="url(#linear-gradient)"/><path d="M189.72,194.46l-1.18-.89,1-13.94,6.13.22s-.31,6,1,7.42,5,.75,5.34.89,2.8-.38,3.8.81-4,4.06-6.55,4.47a16.34,16.34,0,0,1-5.26-.18s-.29-3.61-1.19-3.32-1.24,4.06-1.24,4.06Z" fill="#053855"/><path d="M192.35,141.24a36.56,36.56,0,0,0-12.78-3.18c.75,5.46,1.44,9.25,1.56,9.52.3.69,5.91,35.34,5.91,35.34,6.63,2.68,14.47.44,14.47.44s-2.7-27-2.93-31.55q0-.73-.08-1.46A10.63,10.63,0,0,0,192.35,141.24Z" fill="#7ec971"/><polyline points="267.39 144.35 236.44 160.13 177.94 120.76 203.05 107.89 219.15 100.18" fill="url(#linear-gradient-2)"/><polyline points="323.56 200 288.04 220.6 267.43 210.73 292.54 197.85 308.64 190.15" fill="url(#linear-gradient-3)"/><path d="M270.21,50,269,140.3a4.48,4.48,0,0,1-6.69,3.83l-58.61-33.35a4.48,4.48,0,0,1-2.26-3.89v-95a2.52,2.52,0,0,1,3.79-2.18L268,46A4.48,4.48,0,0,1,270.21,50Z" fill="#68e1fd"/><path d="M219.05,17.73c.11.06,0,11.6,0,11.6l33.4,19.3V37.06Z" fill="#723d49"/><polygon points="208.82 23.95 262.69 55.08 262.69 130.16 208.82 100.56 208.82 23.95" fill="#fff"/><line x1="215.87" y1="46.43" x2="251.03" y2="65.2" fill="#fff"/><path d="M215.11,47.72,250.27,66.5c1.7.91,3.22-1.68,1.51-2.59L216.63,45.13c-1.7-.91-3.22,1.68-1.51,2.59Z" fill="#ccc"/><line x1="215.87" y1="60.74" x2="251.03" y2="79.52" fill="#fff"/><path d="M215.11,62l35.16,18.78c1.7.91,3.22-1.68,1.51-2.59L216.63,59.44c-1.7-.91-3.22,1.68-1.51,2.59Z" fill="#ccc"/><line x1="215.87" y1="75.05" x2="251.03" y2="93.83" fill="#fff"/><path d="M215.11,76.35l35.16,18.78c1.7.91,3.22-1.68,1.51-2.59L216.63,73.76c-1.7-.91-3.22,1.68-1.51,2.59Z" fill="#ccc"/><line x1="215.87" y1="89.36" x2="251.03" y2="108.14" fill="#fff"/><path d="M215.11,90.66l35.16,18.78c1.7.91,3.22-1.68,1.51-2.59L216.63,88.07c-1.7-.91-3.22,1.68-1.51,2.59Z" fill="#ccc"/><path d="M274.32,85c-.72-1.15-33.86-29.1-33.86-29.1l-.65.68,33.38,29.63Z" fill="#200904"/><path d="M278.35,87.42s-2.55-3.23-2.69-3.5-2.69-2.83-3.72-2.39-3.1,1.65-3.07,2.39,2.06.42,3.2-.13a5.8,5.8,0,0,0,1.1,5A8,8,0,0,0,278,91.05" fill="#f67770"/><path d="M302.25,185.38a3.45,3.45,0,0,1-.7,2.83c-1.07,1.15-5.15,4.77-5.54,5.55s-.93,2.92,0,3.66,2.74.82,5,0a39.29,39.29,0,0,0,8.56-5.35c1-1.07,0-12.09,0-12.09s-5.73-1.4-7.65,0Z" fill="#42210b"/><path d="M317.33,192.74a3.45,3.45,0,0,1-.7,2.83c-1.07,1.15-5.15,4.77-5.54,5.55s-.93,2.92,0,3.66,2.74.82,5,0a39.29,39.29,0,0,0,8.56-5.35c1-1.07,0-12.09,0-12.09s-5.73-1.4-7.65,0Z" fill="#42210b"/><path d="M301.55,114.14a142.89,142.89,0,0,0-3.12,25.09c-.19,12.12,1.24,44.69,1.24,44.69s3.36,3.23,10.74,2.09v-45.2s2.57,1,2.57,2.87,2.35,48.15,2.35,48.15,1.32,2.45,11-1.3c0,0,3.3-61.27-3.79-73.15" fill="#68e1fd"/><path d="M320.19,117.3c-1.7-.06-6.44,1.13-9.67.89a35.54,35.54,0,0,1-9.18-1.62c-.12-.57-.23-1.17-.32-1.83-2.14-16.56-1.57-28.18,0-30.8s11-4.7,15.27-3.51S327,86.62,327,86.62s-1.76,14-4.91,24C321.22,113.45,321.22,113.45,320.19,117.3Z" fill="#42210b"/><path d="M309.45,82c-1.51.32-1.79-3.86-1.15-4.25s7.72-.43,8.81.05c2.39,1.06,0,4.6,0,4.6" fill="#42210b"/><path d="M318.53,64.51c-1.36-.24-1.32-2.51-3.85-3.55s-5.51.45-6.64,1.26-1.92-.83-3.13.42-.44,3.17-1.15,3.86l-.1.08a3.53,3.53,0,0,0-.1,3.43,10.35,10.35,0,0,0,1.95,2l11.36,5.92c1.37-1,4-10.09,3.85-11.23A2.4,2.4,0,0,0,318.53,64.51Z" fill="#200904"/><path d="M306.06,68c-.52.56,1.18,11.51,4.52,11.91s7.27-4,7.62-5.33.14-8.33-1.21-9S309.19,64.62,306.06,68Z" fill="#f67770"/><path d="M307.62,64.82s-.66,2.55,3.33,3,4.26,1.37,4.73,2.77c.89,2.62,3.69,5.68,4.64-2.21,0-.38-2.82-5.78-5.91-6.2S307.62,64.82,307.62,64.82Z" fill="#200904"/><path d="M316,72s1.25-2.15,2.22-1.13.27,3.43-1,4.18" fill="#f67770"/><path d="M302.89,82.41s-4.47.71-10.41,11.22c0,0-13.53-7.41-14.55-7.24s-4.9,2.85-5.19,4.3,12.59,12.24,19.27,14S303.78,94.4,303.78,94.4" fill="#42210b"/><path d="M320.12,113.45l-3.48,1.21s-3,.95-3.23,1.8,3.42.08,4.18,0-3.36,3.89-3.34,4.56.68.76,1.16.57-.66,1.14.28,1.42a1.59,1.59,0,0,0,1.61-.66s.09,1.33,1,1.14,5.22-5,5.6-6.74S321.9,112.83,320.12,113.45Z" fill="#f67770"/><path d="M324,117.18s-1.62,5.15-2.58,5.08-1.21-2.25-1.21-2.25,2.63-3.89,3.28-4.19S324,117.18,324,117.18Z" fill="#f67770"/><path d="M326.86,86.43s10.49,12.67,11.61,17.18S325.14,119,325.14,119l-5.26-5.59s9.35-8.85,8-10.2-8.52-8.1-8.52-8.1" fill="#42210b"/><path d="M202.44,278l39.75-25.62-20.66-6L180,266.24C187.33,271.27,194.67,273.77,202.44,278Z" fill="url(#linear-gradient-4)"/><path d="M226.94,217.43a32,32,0,0,0-6.68,22c.89,12.85,8.12,16.58,8.12,16.58l8.61.48s10.24-3.34,8.9-20.05c-1.25-15.69-6.36-19.38-6.36-19.38" fill="#68e1fd"/><ellipse cx="233.28" cy="217.43" rx="6.34" ry="2.24" fill="#003b94"/><ellipse cx="233.28" cy="254.65" rx="6.34" ry="2.24" fill="#68e1fd"/><path d="M230.68,218.1l-7.67-44c-.17-1-1.63-.55-1.46.4l7.67,44C229.38,219.46,230.84,219.06,230.68,218.1Z" fill="#007f68"/><path d="M232.07,218.25a1.82,1.82,0,0,1,.71,0,1.59,1.59,0,0,1,.78.48q.92-18.45.33-36.92c0-1-1.55-1-1.51,0Q233,200,232.07,218.25Z" fill="#007f68"/><path d="M249.32,175.53a404.81,404.81,0,0,0-14.82,42.3.76.76,0,0,0,1.46.4,404.8,404.8,0,0,1,14.82-42.3C251.15,175,249.69,174.64,249.32,175.53Z" fill="#007f68"/><path d="M224.64,192.24s-.83-.1-4.45-3.91,1-6.67-1.14-11,.86-9.91,1.53-14.2a19.88,19.88,0,0,0,3.18,8.39c2.73,3.91,4.25,7.43,4,12.39a43.87,43.87,0,0,1-1.61,9.25" fill="#007f68"/><path d="M232.41,199s-.78-.3-3.37-4.88,2.55-6.24,1.55-10.91,3.24-9.41,4.93-13.41a19.88,19.88,0,0,0,1,8.91c1.7,4.45,2.32,8.25.84,13a43.87,43.87,0,0,1-3.81,8.58" fill="#007f68"/><path d="M243.22,191.1s-.7-.45-2.3-5.46,3.77-5.59,3.75-10.36,5.1-8.54,7.57-12.11a19.88,19.88,0,0,0-.8,8.94c.75,4.71.58,8.55-1.84,12.88a43.87,43.87,0,0,1-5.48,7.62" fill="#007f68"/><path d="M174.57,131.15l-8.95-6.33a1.9,1.9,0,0,1-.64-2.33l6.34-14.09a1.9,1.9,0,0,1,2.74-.83l10,6.23a1.9,1.9,0,0,1,.68,2.49l-7.39,14.19A1.9,1.9,0,0,1,174.57,131.15Z" fill="#1784aa"/><path d="M173.77,130.65l-8.95-6.33a1.9,1.9,0,0,1-.64-2.33l6.34-14.09a1.9,1.9,0,0,1,2.74-.83l10,6.23a1.9,1.9,0,0,1,.68,2.49L176.55,130A1.9,1.9,0,0,1,173.77,130.65Z" fill="#29abe2"/><polygon points="175.26 129.79 165.19 122.68 171.79 107.99 182.98 114.96 175.26 129.79" fill="#e4f5fd"/><path d="M170.6,114.22c-3.33,1.82-8.54,3.91-12,6.32-.56.39-1.4,1.72-.84,1.53-.24.27,2.05,1.17,1.84,1.47-.07.1,1.48-.76,1.57-.72v0a6,6,0,0,0,4.29.51l.58-.43,0,0,.14-.08a.34.34,0,0,1,.1-.11l.09-.06a.34.34,0,0,1,.13-.21c.77-.61,2.46-.93,2.64-1.95a2.09,2.09,0,0,0-.24-.77.29.29,0,0,1,.06-.39,2.34,2.34,0,0,0-.34-1.78l0-.05.2-.23a22.53,22.53,0,0,0,2.58-2.11.53.53,0,0,0,.16-.32v-.06a.49.49,0,0,0,0-.1A.63.63,0,0,0,170.6,114.22Z" fill="#e85454"/><path d="M168.9,117.83c-.25-.64-.62-.67-1.19-.42a20.07,20.07,0,0,0-3.32,1.89c-.17.12,0,.4.17.28.65-.44,3.46-2.52,4-1.61s-1.32,1.54-1.85,1.82l-2,1.08c-.19.1,0,.38.17.28l1.3-.67a.17.17,0,0,0,0,.1,2,2,0,0,0,.38.38,1.24,1.24,0,0,0-.14,1.15l.06.07a3.62,3.62,0,0,1-4.43.64c-.17-.13-.4.11-.23.24,1.32,1,4,.71,5-.76a1.8,1.8,0,0,0,.6-.19,3.89,3.89,0,0,0,1.57-1,1.31,1.31,0,0,0,0-1.33l0-.06a.83.83,0,0,0,0-1.18A1.26,1.26,0,0,0,168.9,117.83Zm-.14,3a2.09,2.09,0,0,1-.85.69c-.21.12-.73.49-.95.44-.42-.11-.17-.67,0-.91h0a2.32,2.32,0,0,0,.65-.39l.81-.51.27-.2A1,1,0,0,1,168.76,120.82Zm-1-.62c-.46.29-.83.65-1.27.14.65-.33,1.29-.66,1.9-1a1.54,1.54,0,0,0,.48-.43C169.18,119.45,168.07,120,167.73,120.2Z" fill="#653200"/><path d="M160.64,118s2.25.51,2.41,5.22l-1.68,4.19-9.15-4.75S154.41,119.94,160.64,118Z" fill="#88d3d8"/><path d="M182.33,120.24c-.68,1.5-1.36,2.87-1.93,4.41-.42-1-.81-1.86-1.31-2.84a.74.74,0,0,0-.08-.09.79.79,0,0,0-1.46.49,6.4,6.4,0,0,0,1.07,2.59.81.81,0,0,0-.21.16c-1.32,1.47-1,3.7-.85,5.51a.69.69,0,0,0,1,.56.71.71,0,0,0,.36-.09,5.93,5.93,0,0,0,2.39-3.43C182.14,125.2,183.1,122.67,182.33,120.24Z" fill="#e85454"/><path d="M148.17,120.12l3.31-1c.82.12,8,3,11,8.14a31.85,31.85,0,0,1,.73,4.73c.27,2.12.49,4.25.6,6.39a46.53,46.53,0,0,1-.11,7c-.1,1-.16,1.49-.34,2.47a4.41,4.41,0,0,1-1.3.79c-9.93,3.45-17.21-2.14-17.51-2.94s-.77-12.25-1-19.06A6.55,6.55,0,0,1,148.17,120.12Z" fill="#88d3d8"/><path d="M156.93,108.33s2.23,11.21-1.9,12.42-9-3.46-9.35-5.77S151.13,104.59,156.93,108.33Z" fill="#e85454"/><path d="M155.33,112.81c.13-.19,2.5-.81,3-2.81s-1.31-4.63-5.44-5-11.07,1.88-10,12.75,12,6.2,12.73,2.73A20.83,20.83,0,0,0,155.33,112.81Z" fill="#653200"/><path d="M155.33,112.81s.69,3.72,2.2,5.31,2.72,4.51.88,6.72,0,3.42,2.61,5.54,1,10.75-8.42,8.63-13.86-7.8-13.86-7.8,2.42-16.94,5-20.91" fill="#653200"/><path d="M162.45,127.44s2.13,7.14,4.26,7.36,5.36-2.94,7.64-7.05a6,6,0,0,1,6.55,5.73s-7.51,15.21-18.45,11.5" fill="#88d3d8"/><polygon points="171.53 117.36 172.71 116.99 173.21 118.66 177.05 117.29 177.22 118.46 172.54 120.18 171.53 117.36" fill="#e4f5fd"/><path d="M144.49,145.68s-1.75,11.42,6.1,16.17,20.08-.19,26.81-5.23-14.1-8.79-14.1-8.79S152.95,150.46,144.49,145.68Z" fill="#7ec971"/><polygon points="176 157.62 182.61 155.93 183.14 161.85 176 157.62" fill="#007f68"/></svg>