<svg xmlns="http://www.w3.org/2000/svg" xmlns:xlink="http://www.w3.org/1999/xlink" viewBox="0 0 400 300"><defs><linearGradient id="linear-gradient" x1="347.86" y1="212.24" x2="335.11" y2="194.73" gradientUnits="userSpaceOnUse"><stop offset="0" stop-color="#fff" stop-opacity="0"/><stop offset="0.99" stop-color="gray"/></linearGradient><linearGradient id="linear-gradient-2" x1="-87.08" y1="275.87" x2="-53.92" y2="248.14" gradientTransform="matrix(-1, 0, 0, 1, 159.53, 0)" xlink:href="#linear-gradient"/><linearGradient id="linear-gradient-3" x1="-106.01" y1="224.71" x2="-33.69" y2="164.22" gradientTransform="matrix(-1, 0, 0, 1, 159.53, 0)" xlink:href="#linear-gradient"/><linearGradient id="linear-gradient-4" x1="11.23" y1="216.93" x2="57.67" y2="178.09" gradientTransform="matrix(-1, 0, 0, 1, 159.53, 0)" xlink:href="#linear-gradient"/></defs><title>PP</title><g style="isolation:isolate"><g id="Layer_2" data-name="Layer 2"><path d="M194.28,288.83,14.56,182.61c-5.72-3.21-10.63-8.49-5.05-11.94l180.37-104c2.71-1.68,6.82-2.78,9.57-1.18L388.11,175c5.72,3.32,6.75,12.6,1,15.93L218,288.66A23.9,23.9,0,0,1,194.28,288.83Z" fill="#0f476d"/><path d="M370.52,202.38l-22-13.58-39.52,11,31,18.16A168.59,168.59,0,0,1,370.52,202.38Z" opacity="0.91" fill="url(#linear-gradient)" style="mix-blend-mode:multiply"/><polyline points="177.27 262.42 220.84 287.96 274.95 255.04 252.31 240.31" opacity="0.91" fill="url(#linear-gradient-2)" style="mix-blend-mode:multiply"/><polyline points="140.88 163.6 262.28 237.59 300.79 211.04 186.49 150.9" opacity="0.91" fill="url(#linear-gradient-3)" style="mix-blend-mode:multiply"/><polyline points="66.05 180.32 143.46 225.71 173.13 205.53 111.67 167.62" opacity="0.91" fill="url(#linear-gradient-4)" style="mix-blend-mode:multiply"/><ellipse cx="324.6" cy="189.67" rx="23.63" ry="13.84" fill="#ff912e"/><polygon points="300.98 189.67 300.98 185.67 303.55 188.87 300.98 189.67" fill="#e0944f"/><polygon points="348.23 185.67 348.23 189.67 345.23 189.67 347.43 186.46 348.23 185.67" fill="#e0944f"/><ellipse cx="324.6" cy="185.67" rx="23.63" ry="13.84" fill="#ffb92c"/><path d="M336.59,183.82a1.85,1.85,0,0,1,.19,1l-.09.37-4.31,0a2,2,0,0,0,.08-.37,1.61,1.61,0,0,0-.26-.79,2.36,2.36,0,0,0-1-1,4.72,4.72,0,0,0-2-.53,4.37,4.37,0,0,0-1.93.3q-.91.39-.7,1a3.74,3.74,0,0,0,.92,1.35,16.42,16.42,0,0,1,1.31,1.5,1.57,1.57,0,0,1,.23,1.66,3.72,3.72,0,0,1-2.1,1.63,12.41,12.41,0,0,1-4.57,1,14.62,14.62,0,0,1-5-.71l-2.48,1.07L311.91,190l2.41-1a5.44,5.44,0,0,1-1.16-1,3.07,3.07,0,0,1-.57-1,3.17,3.17,0,0,1-.15-.78,1.69,1.69,0,0,1,0-.54l.09-.21h4.31a3.44,3.44,0,0,0-.1.44,1.84,1.84,0,0,0,.35,1,3.24,3.24,0,0,0,1.43,1.22,6.13,6.13,0,0,0,2.51.65,5.22,5.22,0,0,0,2.31-.37q.9-.39.67-1a3.73,3.73,0,0,0-1-1.35,13.81,13.81,0,0,1-1.32-1.5,1.55,1.55,0,0,1-.18-1.67,4,4,0,0,1,2.2-1.66,11.87,11.87,0,0,1,4.39-.86,12.66,12.66,0,0,1,4.68.73l2.48-1.06,2.71,1.47-2.48,1.07A3.53,3.53,0,0,1,336.59,183.82Z" fill="#ea8b24"/><ellipse cx="324.65" cy="185.84" rx="19.83" ry="11.62" fill="none" stroke="#f7931e" stroke-miterlimit="10" stroke-width="2"/><ellipse cx="324.6" cy="184.63" rx="23.63" ry="13.84" fill="#ff912e"/><polygon points="300.98 184.63 300.98 180.63 303.55 183.82 300.98 184.63" fill="#e0944f"/><polygon points="348.23 180.63 348.23 184.63 345.23 184.63 347.43 181.42 348.23 180.63" fill="#e0944f"/><ellipse cx="324.6" cy="180.63" rx="23.63" ry="13.84" fill="#ffb92c"/><path d="M336.59,178.78a1.85,1.85,0,0,1,.19,1l-.09.37-4.31,0a2,2,0,0,0,.08-.37,1.61,1.61,0,0,0-.26-.79,2.36,2.36,0,0,0-1-1,4.72,4.72,0,0,0-2-.53,4.37,4.37,0,0,0-1.93.3q-.91.39-.7,1a3.74,3.74,0,0,0,.92,1.35,16.42,16.42,0,0,1,1.31,1.5,1.57,1.57,0,0,1,.23,1.66,3.72,3.72,0,0,1-2.1,1.63,12.41,12.41,0,0,1-4.57,1,14.62,14.62,0,0,1-5-.71l-2.48,1.07-2.91-1.42,2.41-1a5.44,5.44,0,0,1-1.16-1,3.07,3.07,0,0,1-.57-1,3.17,3.17,0,0,1-.15-.78,1.69,1.69,0,0,1,0-.54l.09-.21h4.31a3.44,3.44,0,0,0-.1.44,1.84,1.84,0,0,0,.35,1,3.24,3.24,0,0,0,1.43,1.22,6.13,6.13,0,0,0,2.51.65,5.22,5.22,0,0,0,2.31-.37q.9-.39.67-1a3.73,3.73,0,0,0-1-1.35,13.81,13.81,0,0,1-1.32-1.5,1.55,1.55,0,0,1-.18-1.67,4,4,0,0,1,2.2-1.66,11.87,11.87,0,0,1,4.39-.86,12.66,12.66,0,0,1,4.68.73l2.48-1.06,2.71,1.47-2.48,1.07A3.53,3.53,0,0,1,336.59,178.78Z" fill="#ea8b24"/><ellipse cx="324.65" cy="180.8" rx="19.83" ry="11.62" fill="none" stroke="#f7931e" stroke-miterlimit="10" stroke-width="2"/><ellipse cx="324.6" cy="179.84" rx="23.63" ry="13.84" fill="#ff912e"/><polygon points="300.98 179.84 300.98 175.84 303.55 179.03 300.98 179.84" fill="#e0944f"/><polygon points="348.23 175.84 348.23 179.84 345.23 179.84 347.43 176.63 348.23 175.84" fill="#e0944f"/><ellipse cx="324.6" cy="175.84" rx="23.63" ry="13.84" fill="#ffb92c"/><path d="M336.59,174a1.85,1.85,0,0,1,.19,1l-.09.37-4.31,0a2,2,0,0,0,.08-.37,1.61,1.61,0,0,0-.26-.79,2.36,2.36,0,0,0-1-1,4.72,4.72,0,0,0-2-.53,4.37,4.37,0,0,0-1.93.3q-.91.39-.7,1a3.74,3.74,0,0,0,.92,1.35,16.42,16.42,0,0,1,1.31,1.5,1.57,1.57,0,0,1,.23,1.66,3.72,3.72,0,0,1-2.1,1.63,12.41,12.41,0,0,1-4.57,1,14.62,14.62,0,0,1-5-.71l-2.48,1.07-2.91-1.42,2.41-1a5.44,5.44,0,0,1-1.16-1,3.07,3.07,0,0,1-.57-1,3.17,3.17,0,0,1-.15-.78,1.69,1.69,0,0,1,0-.54l.09-.21h4.31a3.44,3.44,0,0,0-.1.44,1.84,1.84,0,0,0,.35,1,3.24,3.24,0,0,0,1.43,1.22,6.13,6.13,0,0,0,2.51.65,5.22,5.22,0,0,0,2.31-.37q.9-.39.67-1a3.73,3.73,0,0,0-1-1.35,13.81,13.81,0,0,1-1.32-1.5,1.55,1.55,0,0,1-.18-1.67,4,4,0,0,1,2.2-1.66,11.87,11.87,0,0,1,4.39-.86,12.66,12.66,0,0,1,4.68.73l2.48-1.06,2.71,1.47-2.48,1.07A3.53,3.53,0,0,1,336.59,174Z" fill="#ea8b24"/><ellipse cx="324.65" cy="176.01" rx="19.83" ry="11.62" fill="none" stroke="#f7931e" stroke-miterlimit="10" stroke-width="2"/><ellipse cx="324.6" cy="174.95" rx="23.63" ry="13.84" fill="#ff912e"/><polygon points="300.98 174.95 300.98 170.96 303.55 174.15 300.98 174.95" fill="#e0944f"/><polygon points="348.23 170.96 348.23 174.95 345.23 174.95 347.43 171.75 348.23 170.96" fill="#e0944f"/><ellipse cx="324.6" cy="170.96" rx="23.63" ry="13.84" fill="#ffb92c"/><path d="M336.59,169.11a1.85,1.85,0,0,1,.19,1l-.09.37-4.31,0a2,2,0,0,0,.08-.37,1.61,1.61,0,0,0-.26-.79,2.36,2.36,0,0,0-1-1,4.72,4.72,0,0,0-2-.53,4.37,4.37,0,0,0-1.93.3q-.91.39-.7,1a3.74,3.74,0,0,0,.92,1.35,16.42,16.42,0,0,1,1.31,1.5,1.57,1.57,0,0,1,.23,1.66,3.72,3.72,0,0,1-2.1,1.63,12.41,12.41,0,0,1-4.57,1,14.62,14.62,0,0,1-5-.71l-2.48,1.07-2.91-1.42,2.41-1a5.44,5.44,0,0,1-1.16-1,3.07,3.07,0,0,1-.57-1,3.17,3.17,0,0,1-.15-.78,1.69,1.69,0,0,1,0-.54l.09-.21h4.31a3.44,3.44,0,0,0-.1.44,1.84,1.84,0,0,0,.35,1,3.24,3.24,0,0,0,1.43,1.22,6.13,6.13,0,0,0,2.51.65,5.22,5.22,0,0,0,2.31-.37q.9-.39.67-1a3.73,3.73,0,0,0-1-1.35,13.81,13.81,0,0,1-1.32-1.5,1.55,1.55,0,0,1-.18-1.67,4,4,0,0,1,2.2-1.66,11.87,11.87,0,0,1,4.39-.86,12.66,12.66,0,0,1,4.68.73l2.48-1.06L338,166.7l-2.48,1.07A3.53,3.53,0,0,1,336.59,169.11Z" fill="#ea8b24"/><ellipse cx="324.65" cy="171.12" rx="19.83" ry="11.62" fill="none" stroke="#f7931e" stroke-miterlimit="10" stroke-width="2"/><ellipse cx="324.42" cy="168.96" rx="23.63" ry="13.84" fill="#ff912e"/><polygon points="300.79 168.96 300.79 164.96 303.36 168.16 300.79 168.96" fill="#e0944f"/><polygon points="348.05 164.96 348.05 168.96 345.05 168.96 347.24 165.75 348.05 164.96" fill="#e0944f"/><ellipse cx="324.42" cy="164.96" rx="23.63" ry="13.84" fill="#ffb92c"/><path d="M336.4,163.11a1.85,1.85,0,0,1,.19,1l-.09.37-4.31,0a2,2,0,0,0,.08-.37,1.61,1.61,0,0,0-.26-.79,2.36,2.36,0,0,0-1-1,4.72,4.72,0,0,0-2-.53,4.37,4.37,0,0,0-1.93.3q-.91.39-.7,1a3.74,3.74,0,0,0,.92,1.35,16.42,16.42,0,0,1,1.31,1.5,1.57,1.57,0,0,1,.23,1.66,3.72,3.72,0,0,1-2.1,1.63,12.41,12.41,0,0,1-4.57,1,14.62,14.62,0,0,1-5-.71l-2.48,1.07-2.91-1.42,2.41-1a5.44,5.44,0,0,1-1.16-1,3.07,3.07,0,0,1-.57-1,3.17,3.17,0,0,1-.15-.78,1.69,1.69,0,0,1,0-.54l.09-.21h4.31a3.44,3.44,0,0,0-.1.44,1.84,1.84,0,0,0,.35,1,3.24,3.24,0,0,0,1.43,1.22,6.13,6.13,0,0,0,2.51.65,5.22,5.22,0,0,0,2.31-.37q.9-.39.67-1a3.73,3.73,0,0,0-1-1.35,13.81,13.81,0,0,1-1.32-1.5,1.55,1.55,0,0,1-.18-1.67,4,4,0,0,1,2.2-1.66,11.87,11.87,0,0,1,4.39-.86,12.66,12.66,0,0,1,4.68.73l2.48-1.06,2.71,1.47-2.48,1.07A3.53,3.53,0,0,1,336.4,163.11Z" fill="#ea8b24"/><ellipse cx="324.46" cy="165.13" rx="19.83" ry="11.62" fill="none" stroke="#f7931e" stroke-miterlimit="10" stroke-width="2"/><ellipse cx="324.42" cy="163.92" rx="23.63" ry="13.84" fill="#ff912e"/><polygon points="300.79 163.92 300.79 159.92 303.36 163.11 300.79 163.92" fill="#e0944f"/><polygon points="348.05 159.92 348.05 163.92 345.05 163.92 347.24 160.71 348.05 159.92" fill="#e0944f"/><ellipse cx="324.42" cy="159.92" rx="23.63" ry="13.84" fill="#ffb92c"/><path d="M336.4,158.07a1.85,1.85,0,0,1,.19,1l-.09.37-4.31,0a2,2,0,0,0,.08-.37,1.61,1.61,0,0,0-.26-.79,2.36,2.36,0,0,0-1-1,4.72,4.72,0,0,0-2-.53,4.37,4.37,0,0,0-1.93.3q-.91.39-.7,1a3.74,3.74,0,0,0,.92,1.35,16.42,16.42,0,0,1,1.31,1.5,1.57,1.57,0,0,1,.23,1.66,3.72,3.72,0,0,1-2.1,1.63,12.41,12.41,0,0,1-4.57,1,14.62,14.62,0,0,1-5-.71l-2.48,1.07-2.91-1.42,2.41-1a5.44,5.44,0,0,1-1.16-1,3.07,3.07,0,0,1-.57-1,3.17,3.17,0,0,1-.15-.78,1.69,1.69,0,0,1,0-.54l.09-.21h4.31a3.44,3.44,0,0,0-.1.44,1.84,1.84,0,0,0,.35,1,3.24,3.24,0,0,0,1.43,1.22,6.13,6.13,0,0,0,2.51.65,5.22,5.22,0,0,0,2.31-.37q.9-.39.67-1a3.73,3.73,0,0,0-1-1.35,13.81,13.81,0,0,1-1.32-1.5,1.55,1.55,0,0,1-.18-1.67,4,4,0,0,1,2.2-1.66,11.87,11.87,0,0,1,4.39-.86,12.66,12.66,0,0,1,4.68.73l2.48-1.06,2.71,1.47-2.48,1.07A3.53,3.53,0,0,1,336.4,158.07Z" fill="#ea8b24"/><ellipse cx="324.46" cy="160.09" rx="19.83" ry="11.62" fill="none" stroke="#f7931e" stroke-miterlimit="10" stroke-width="2"/><ellipse cx="324.79" cy="159.12" rx="23.63" ry="13.84" fill="#ff912e"/><polygon points="301.16 159.13 301.16 155.13 303.73 158.32 301.16 159.13" fill="#e0944f"/><polygon points="348.42 155.13 348.42 159.13 345.42 159.13 347.61 155.92 348.42 155.13" fill="#e0944f"/><ellipse cx="324.79" cy="155.13" rx="23.63" ry="13.84" fill="#ffb92c"/><path d="M336.77,153.28a1.85,1.85,0,0,1,.19,1l-.09.37-4.31,0a2,2,0,0,0,.08-.37,1.61,1.61,0,0,0-.26-.79,2.36,2.36,0,0,0-1-1,4.72,4.72,0,0,0-2-.53,4.37,4.37,0,0,0-1.93.3q-.91.39-.7,1a3.74,3.74,0,0,0,.92,1.35,16.42,16.42,0,0,1,1.31,1.5,1.57,1.57,0,0,1,.23,1.66,3.72,3.72,0,0,1-2.1,1.63,12.41,12.41,0,0,1-4.57,1,14.62,14.62,0,0,1-5-.71L315,160.86l-2.91-1.42,2.41-1a5.44,5.44,0,0,1-1.16-1,3.07,3.07,0,0,1-.57-1,3.17,3.17,0,0,1-.15-.78,1.69,1.69,0,0,1,0-.54l.09-.21h4.31a3.44,3.44,0,0,0-.1.44,1.84,1.84,0,0,0,.35,1,3.24,3.24,0,0,0,1.43,1.22,6.13,6.13,0,0,0,2.51.65,5.22,5.22,0,0,0,2.31-.37q.9-.39.67-1a3.73,3.73,0,0,0-1-1.35,13.81,13.81,0,0,1-1.32-1.5,1.55,1.55,0,0,1-.18-1.67,4,4,0,0,1,2.2-1.66,11.87,11.87,0,0,1,4.39-.86,12.66,12.66,0,0,1,4.68.73l2.48-1.06,2.71,1.47-2.48,1.07A3.53,3.53,0,0,1,336.77,153.28Z" fill="#ea8b24"/><ellipse cx="324.83" cy="155.3" rx="19.83" ry="11.62" fill="none" stroke="#f7931e" stroke-miterlimit="10" stroke-width="2"/><ellipse cx="324.79" cy="154.24" rx="23.63" ry="13.84" fill="#ff912e"/><polygon points="301.16 154.24 301.16 150.25 303.73 153.44 301.16 154.24" fill="#e0944f"/><polygon points="348.42 150.25 348.42 154.24 345.42 154.24 347.61 151.03 348.42 150.25" fill="#e0944f"/><ellipse cx="324.79" cy="150.24" rx="23.63" ry="13.84" fill="#ffb92c"/><path d="M336.77,148.39a1.85,1.85,0,0,1,.19,1l-.09.37-4.31,0a2,2,0,0,0,.08-.37,1.61,1.61,0,0,0-.26-.79,2.36,2.36,0,0,0-1-1,4.72,4.72,0,0,0-2-.53,4.37,4.37,0,0,0-1.93.3q-.91.39-.7,1a3.74,3.74,0,0,0,.92,1.35,16.42,16.42,0,0,1,1.31,1.5,1.57,1.57,0,0,1,.23,1.66,3.72,3.72,0,0,1-2.1,1.63,12.41,12.41,0,0,1-4.57,1,14.62,14.62,0,0,1-5-.71L315,156l-2.91-1.42,2.41-1a5.44,5.44,0,0,1-1.16-1,3.07,3.07,0,0,1-.57-1,3.17,3.17,0,0,1-.15-.78,1.69,1.69,0,0,1,0-.54l.09-.21h4.31a3.44,3.44,0,0,0-.1.44,1.84,1.84,0,0,0,.35,1,3.24,3.24,0,0,0,1.43,1.22,6.13,6.13,0,0,0,2.51.65,5.22,5.22,0,0,0,2.31-.37q.9-.39.67-1a3.73,3.73,0,0,0-1-1.35A13.81,13.81,0,0,1,322,149a1.55,1.55,0,0,1-.18-1.67,4,4,0,0,1,2.2-1.66,11.87,11.87,0,0,1,4.39-.86,12.66,12.66,0,0,1,4.68.73l2.48-1.06,2.71,1.47-2.48,1.07A3.53,3.53,0,0,1,336.77,148.39Z" fill="#ea8b24"/><ellipse cx="324.83" cy="150.41" rx="19.83" ry="11.62" fill="none" stroke="#f7931e" stroke-miterlimit="10" stroke-width="2"/><ellipse cx="85.8" cy="169.96" rx="26.47" ry="15.51" fill="#ff912e"/><polygon points="59.33 169.96 59.33 165.48 62.22 169.06 59.33 169.96" fill="#e0944f"/><polygon points="112.27 165.48 112.27 169.96 108.91 169.96 111.37 166.36 112.27 165.48" fill="#e0944f"/><ellipse cx="85.8" cy="165.48" rx="26.47" ry="15.51" fill="#ffb92c"/><path d="M99.23,163.41a2.07,2.07,0,0,1,.21,1.18l-.1.41-4.83,0a2.19,2.19,0,0,0,.09-.41,1.81,1.81,0,0,0-.29-.88,2.64,2.64,0,0,0-1.17-1.07,5.29,5.29,0,0,0-2.27-.6,4.89,4.89,0,0,0-2.16.33q-1,.44-.78,1.14a4.19,4.19,0,0,0,1,1.51,18.4,18.4,0,0,1,1.47,1.68,1.76,1.76,0,0,1,.26,1.86,4.16,4.16,0,0,1-2.35,1.83,13.9,13.9,0,0,1-5.12,1.07,16.38,16.38,0,0,1-5.6-.79l-2.78,1.19-3.26-1.59,2.7-1.16A6.1,6.1,0,0,1,73,168a3.44,3.44,0,0,1-.64-1.08,3.55,3.55,0,0,1-.16-.88,1.89,1.89,0,0,1,0-.61l.1-.23h4.83a3.85,3.85,0,0,0-.12.49,2.06,2.06,0,0,0,.39,1.1,3.63,3.63,0,0,0,1.6,1.36,6.87,6.87,0,0,0,2.81.73,5.85,5.85,0,0,0,2.59-.42q1-.43.76-1.13a4.17,4.17,0,0,0-1.07-1.51,15.47,15.47,0,0,1-1.48-1.68,1.73,1.73,0,0,1-.21-1.87,4.51,4.51,0,0,1,2.46-1.86,13.3,13.3,0,0,1,4.91-1,14.18,14.18,0,0,1,5.24.82l2.77-1.19,3,1.65-2.78,1.19A4,4,0,0,1,99.23,163.41Z" fill="#ea8b24"/><ellipse cx="85.85" cy="165.67" rx="22.22" ry="13.02" fill="none" stroke="#f7931e" stroke-miterlimit="10" stroke-width="2"/><ellipse cx="85.8" cy="164.31" rx="26.47" ry="15.51" fill="#ff912e"/><polygon points="59.33 164.31 59.33 159.83 62.22 163.41 59.33 164.31" fill="#e0944f"/><polygon points="112.27 159.83 112.27 164.31 108.91 164.31 111.37 160.71 112.27 159.83" fill="#e0944f"/><ellipse cx="85.8" cy="159.83" rx="26.47" ry="15.51" fill="#ffb92c"/><path d="M99.23,157.76a2.07,2.07,0,0,1,.21,1.18l-.1.41-4.83,0a2.19,2.19,0,0,0,.09-.41,1.81,1.81,0,0,0-.29-.88A2.64,2.64,0,0,0,93.14,157a5.29,5.29,0,0,0-2.27-.6,4.89,4.89,0,0,0-2.16.33q-1,.44-.78,1.14a4.19,4.19,0,0,0,1,1.51,18.4,18.4,0,0,1,1.47,1.68,1.76,1.76,0,0,1,.26,1.86,4.16,4.16,0,0,1-2.35,1.83,13.9,13.9,0,0,1-5.12,1.07,16.38,16.38,0,0,1-5.6-.79l-2.78,1.19-3.26-1.59,2.7-1.16A6.1,6.1,0,0,1,73,162.35a3.44,3.44,0,0,1-.64-1.08,3.55,3.55,0,0,1-.16-.88,1.89,1.89,0,0,1,0-.61l.1-.23h4.83A3.85,3.85,0,0,0,77,160a2.06,2.06,0,0,0,.39,1.1A3.63,3.63,0,0,0,79,162.5a6.87,6.87,0,0,0,2.81.73,5.85,5.85,0,0,0,2.59-.42q1-.43.76-1.13a4.17,4.17,0,0,0-1.07-1.51,15.47,15.47,0,0,1-1.48-1.68,1.73,1.73,0,0,1-.21-1.87,4.51,4.51,0,0,1,2.46-1.86,13.3,13.3,0,0,1,4.91-1,14.18,14.18,0,0,1,5.24.82l2.77-1.19,3,1.65-2.78,1.19A4,4,0,0,1,99.23,157.76Z" fill="#ea8b24"/><ellipse cx="85.85" cy="160.02" rx="22.22" ry="13.02" fill="none" stroke="#f7931e" stroke-miterlimit="10" stroke-width="2"/><ellipse cx="85.8" cy="158.94" rx="26.47" ry="15.51" fill="#ff912e"/><polygon points="59.33 158.94 59.33 154.46 62.22 158.04 59.33 158.94" fill="#e0944f"/><polygon points="112.27 154.46 112.27 158.94 108.91 158.94 111.37 155.35 112.27 154.46" fill="#e0944f"/><ellipse cx="85.8" cy="154.46" rx="26.47" ry="15.51" fill="#ffb92c"/><path d="M99.23,152.39a2.07,2.07,0,0,1,.21,1.18l-.1.41-4.83,0a2.19,2.19,0,0,0,.09-.41,1.81,1.81,0,0,0-.29-.88,2.64,2.64,0,0,0-1.17-1.07,5.29,5.29,0,0,0-2.27-.6,4.89,4.89,0,0,0-2.16.33q-1,.44-.78,1.14A4.19,4.19,0,0,0,89,154a18.4,18.4,0,0,1,1.47,1.68,1.76,1.76,0,0,1,.26,1.86,4.16,4.16,0,0,1-2.35,1.83,13.9,13.9,0,0,1-5.12,1.07,16.38,16.38,0,0,1-5.6-.79l-2.78,1.19-3.26-1.59,2.7-1.16A6.1,6.1,0,0,1,73,157a3.44,3.44,0,0,1-.64-1.08,3.55,3.55,0,0,1-.16-.88,1.89,1.89,0,0,1,0-.61l.1-.23h4.83a3.85,3.85,0,0,0-.12.49,2.06,2.06,0,0,0,.39,1.1,3.63,3.63,0,0,0,1.6,1.36,6.87,6.87,0,0,0,2.81.73,5.85,5.85,0,0,0,2.59-.42q1-.43.76-1.13a4.17,4.17,0,0,0-1.07-1.51,15.47,15.47,0,0,1-1.48-1.68,1.73,1.73,0,0,1-.21-1.87,4.51,4.51,0,0,1,2.46-1.86,13.3,13.3,0,0,1,4.91-1,14.18,14.18,0,0,1,5.24.82L97.82,148l3,1.65-2.78,1.19A4,4,0,0,1,99.23,152.39Z" fill="#ea8b24"/><ellipse cx="85.85" cy="154.65" rx="22.22" ry="13.02" fill="none" stroke="#f7931e" stroke-miterlimit="10" stroke-width="2"/><ellipse cx="85.8" cy="153.47" rx="26.47" ry="15.51" fill="#ff912e"/><polygon points="59.33 153.47 59.33 148.99 62.22 152.57 59.33 153.47" fill="#e0944f"/><polygon points="112.27 148.99 112.27 153.47 108.91 153.47 111.37 149.88 112.27 148.99" fill="#e0944f"/><ellipse cx="85.8" cy="148.99" rx="26.47" ry="15.51" fill="#ffb92c"/><path d="M99.23,146.92a2.07,2.07,0,0,1,.21,1.18l-.1.41-4.83,0a2.19,2.19,0,0,0,.09-.41,1.81,1.81,0,0,0-.29-.88,2.64,2.64,0,0,0-1.17-1.07,5.29,5.29,0,0,0-2.27-.6,4.89,4.89,0,0,0-2.16.33q-1,.44-.78,1.14a4.19,4.19,0,0,0,1,1.51,18.4,18.4,0,0,1,1.47,1.68,1.76,1.76,0,0,1,.26,1.86,4.16,4.16,0,0,1-2.35,1.83A13.9,13.9,0,0,1,83.22,155a16.38,16.38,0,0,1-5.6-.79l-2.78,1.19-3.26-1.59,2.7-1.16A6.1,6.1,0,0,1,73,151.51a3.44,3.44,0,0,1-.64-1.08,3.55,3.55,0,0,1-.16-.88,1.89,1.89,0,0,1,0-.61l.1-.23h4.83a3.85,3.85,0,0,0-.12.49,2.06,2.06,0,0,0,.39,1.1,3.63,3.63,0,0,0,1.6,1.36,6.87,6.87,0,0,0,2.81.73,5.85,5.85,0,0,0,2.59-.42q1-.43.76-1.13a4.17,4.17,0,0,0-1.07-1.51,15.47,15.47,0,0,1-1.48-1.68,1.73,1.73,0,0,1-.21-1.87,4.51,4.51,0,0,1,2.46-1.86,13.3,13.3,0,0,1,4.91-1,14.18,14.18,0,0,1,5.24.82l2.77-1.19,3,1.65-2.78,1.19A4,4,0,0,1,99.23,146.92Z" fill="#ea8b24"/><ellipse cx="85.85" cy="149.18" rx="22.22" ry="13.02" fill="none" stroke="#f7931e" stroke-miterlimit="10" stroke-width="2"/><ellipse cx="85.59" cy="146.75" rx="26.47" ry="15.51" fill="#ff912e"/><polygon points="59.13 146.75 59.13 142.28 62.01 145.85 59.13 146.75" fill="#e0944f"/><polygon points="112.06 142.28 112.06 146.75 108.7 146.75 111.17 143.16 112.06 142.28" fill="#e0944f"/><ellipse cx="85.59" cy="142.28" rx="26.47" ry="15.51" fill="#ffb92c"/><path d="M99,140.2a2.07,2.07,0,0,1,.21,1.18l-.1.41-4.83,0a2.19,2.19,0,0,0,.09-.41,1.81,1.81,0,0,0-.29-.88,2.64,2.64,0,0,0-1.17-1.07,5.29,5.29,0,0,0-2.27-.6,4.89,4.89,0,0,0-2.16.33q-1,.44-.78,1.14a4.19,4.19,0,0,0,1,1.51,18.4,18.4,0,0,1,1.47,1.68,1.76,1.76,0,0,1,.26,1.86,4.16,4.16,0,0,1-2.35,1.83A13.9,13.9,0,0,1,83,148.3a16.38,16.38,0,0,1-5.6-.79l-2.78,1.19-3.26-1.59,2.7-1.16a6.1,6.1,0,0,1-1.29-1.16,3.44,3.44,0,0,1-.64-1.08,3.55,3.55,0,0,1-.16-.88,1.89,1.89,0,0,1,0-.61l.1-.23H77a3.85,3.85,0,0,0-.12.49,2.06,2.06,0,0,0,.39,1.1,3.63,3.63,0,0,0,1.6,1.36,6.87,6.87,0,0,0,2.81.73,5.85,5.85,0,0,0,2.59-.42q1-.43.76-1.13a4.17,4.17,0,0,0-1.07-1.51,15.47,15.47,0,0,1-1.48-1.68,1.73,1.73,0,0,1-.21-1.87,4.51,4.51,0,0,1,2.46-1.86,13.3,13.3,0,0,1,4.91-1,14.18,14.18,0,0,1,5.24.82l2.77-1.19,3,1.65-2.78,1.19A4,4,0,0,1,99,140.2Z" fill="#ea8b24"/><ellipse cx="85.64" cy="142.46" rx="22.22" ry="13.02" fill="none" stroke="#f7931e" stroke-miterlimit="10" stroke-width="2"/><ellipse cx="85.59" cy="141.1" rx="26.47" ry="15.51" fill="#ff912e"/><polygon points="59.13 141.1 59.13 136.63 62.01 140.21 59.13 141.1" fill="#e0944f"/><polygon points="112.06 136.63 112.06 141.1 108.7 141.1 111.17 137.51 112.06 136.63" fill="#e0944f"/><ellipse cx="85.59" cy="136.63" rx="26.47" ry="15.51" fill="#ffb92c"/><path d="M99,134.55a2.07,2.07,0,0,1,.21,1.18l-.1.41-4.83,0a2.19,2.19,0,0,0,.09-.41,1.81,1.81,0,0,0-.29-.88,2.64,2.64,0,0,0-1.17-1.07,5.29,5.29,0,0,0-2.27-.6,4.89,4.89,0,0,0-2.16.33q-1,.44-.78,1.14a4.19,4.19,0,0,0,1,1.51,18.4,18.4,0,0,1,1.47,1.68,1.76,1.76,0,0,1,.26,1.86,4.16,4.16,0,0,1-2.35,1.83A13.9,13.9,0,0,1,83,142.65a16.38,16.38,0,0,1-5.6-.79l-2.78,1.19-3.26-1.59,2.7-1.16a6.1,6.1,0,0,1-1.29-1.16,3.44,3.44,0,0,1-.64-1.08,3.55,3.55,0,0,1-.16-.88,1.89,1.89,0,0,1,0-.61l.1-.23H77a3.85,3.85,0,0,0-.12.49,2.06,2.06,0,0,0,.39,1.1,3.63,3.63,0,0,0,1.6,1.36,6.87,6.87,0,0,0,2.81.73,5.85,5.85,0,0,0,2.59-.42q1-.43.76-1.13A4.17,4.17,0,0,0,83.91,137a15.47,15.47,0,0,1-1.48-1.68,1.73,1.73,0,0,1-.21-1.87,4.51,4.51,0,0,1,2.46-1.86,13.3,13.3,0,0,1,4.91-1,14.18,14.18,0,0,1,5.24.82l2.77-1.19,3,1.65-2.78,1.19A4,4,0,0,1,99,134.55Z" fill="#ea8b24"/><ellipse cx="85.64" cy="136.81" rx="22.22" ry="13.02" fill="none" stroke="#f7931e" stroke-miterlimit="10" stroke-width="2"/><ellipse cx="86.01" cy="135.74" rx="26.47" ry="15.51" fill="#ff912e"/><polygon points="59.54 135.74 59.54 131.26 62.42 134.84 59.54 135.74" fill="#e0944f"/><polygon points="112.48 131.26 112.48 135.74 109.12 135.74 111.58 132.14 112.48 131.26" fill="#e0944f"/><ellipse cx="86.01" cy="131.26" rx="26.47" ry="15.51" fill="#ffb92c"/><path d="M99.43,129.19a2.07,2.07,0,0,1,.21,1.18l-.1.41-4.83,0a2.19,2.19,0,0,0,.09-.41,1.81,1.81,0,0,0-.29-.88,2.64,2.64,0,0,0-1.17-1.07,5.29,5.29,0,0,0-2.27-.6,4.89,4.89,0,0,0-2.16.33q-1,.44-.78,1.14a4.19,4.19,0,0,0,1,1.51,18.4,18.4,0,0,1,1.47,1.68,1.76,1.76,0,0,1,.26,1.86,4.16,4.16,0,0,1-2.35,1.83,13.9,13.9,0,0,1-5.12,1.07,16.38,16.38,0,0,1-5.6-.79L75,137.68l-3.26-1.59,2.7-1.16a6.1,6.1,0,0,1-1.29-1.16,3.44,3.44,0,0,1-.64-1.08,3.55,3.55,0,0,1-.16-.88,1.89,1.89,0,0,1,0-.61l.1-.23h4.83a3.85,3.85,0,0,0-.12.49,2.06,2.06,0,0,0,.39,1.1,3.63,3.63,0,0,0,1.6,1.36,6.87,6.87,0,0,0,2.81.73,5.85,5.85,0,0,0,2.59-.42q1-.43.76-1.13a4.17,4.17,0,0,0-1.07-1.51,15.47,15.47,0,0,1-1.48-1.68,1.73,1.73,0,0,1-.21-1.87,4.51,4.51,0,0,1,2.46-1.86,13.3,13.3,0,0,1,4.91-1,14.18,14.18,0,0,1,5.24.82L98,124.84l3,1.65-2.78,1.19A4,4,0,0,1,99.43,129.19Z" fill="#ea8b24"/><ellipse cx="86.06" cy="131.45" rx="22.22" ry="13.02" fill="none" stroke="#f7931e" stroke-miterlimit="10" stroke-width="2"/><ellipse cx="93.98" cy="129.01" rx="26.47" ry="15.51" fill="#ff912e"/><polygon points="67.52 129.01 67.52 124.53 70.4 128.11 67.52 129.01" fill="#e0944f"/><polygon points="120.45 124.53 120.45 129.01 117.09 129.01 119.56 125.41 120.45 124.53" fill="#e0944f"/><ellipse cx="93.98" cy="124.53" rx="26.47" ry="15.51" fill="#ffb92c"/><path d="M107.41,122.46a2.07,2.07,0,0,1,.21,1.18l-.1.41-4.83,0a2.19,2.19,0,0,0,.09-.41,1.81,1.81,0,0,0-.29-.88,2.64,2.64,0,0,0-1.17-1.07,5.29,5.29,0,0,0-2.27-.6,4.89,4.89,0,0,0-2.16.33q-1,.44-.78,1.14a4.19,4.19,0,0,0,1,1.51,18.4,18.4,0,0,1,1.47,1.68,1.76,1.76,0,0,1,.26,1.86,4.16,4.16,0,0,1-2.35,1.83,13.9,13.9,0,0,1-5.12,1.07,16.38,16.38,0,0,1-5.6-.79L83,131l-3.26-1.59,2.7-1.16a6.1,6.1,0,0,1-1.29-1.16,3.44,3.44,0,0,1-.64-1.08,3.55,3.55,0,0,1-.16-.88,1.89,1.89,0,0,1,0-.61l.1-.23h4.83a3.85,3.85,0,0,0-.12.49,2.06,2.06,0,0,0,.39,1.1,3.63,3.63,0,0,0,1.6,1.36,6.87,6.87,0,0,0,2.81.73,5.85,5.85,0,0,0,2.59-.42q1-.43.76-1.13a4.17,4.17,0,0,0-1.07-1.51,15.47,15.47,0,0,1-1.48-1.68,1.73,1.73,0,0,1-.21-1.87,4.51,4.51,0,0,1,2.46-1.86,13.3,13.3,0,0,1,4.91-1,14.18,14.18,0,0,1,5.24.82l2.77-1.19,3,1.65L106.26,121A4,4,0,0,1,107.41,122.46Z" fill="#ea8b24"/><ellipse cx="94.03" cy="124.72" rx="22.22" ry="13.02" fill="none" stroke="#f7931e" stroke-miterlimit="10" stroke-width="2"/><ellipse cx="194.72" cy="253.04" rx="23.63" ry="13.84" fill="#ff912e"/><polygon points="171.1 253.04 171.1 249.05 173.67 252.24 171.1 253.04" fill="#e0944f"/><polygon points="218.35 249.05 218.35 253.04 215.35 253.04 217.55 249.84 218.35 249.05" fill="#e0944f"/><ellipse cx="194.72" cy="249.05" rx="23.63" ry="13.84" fill="#ffb92c"/><path d="M206.71,247.2a1.85,1.85,0,0,1,.19,1l-.09.37-4.31,0a2,2,0,0,0,.08-.37,1.61,1.61,0,0,0-.26-.79,2.36,2.36,0,0,0-1-1,4.72,4.72,0,0,0-2-.53,4.37,4.37,0,0,0-1.93.3q-.91.39-.7,1a3.74,3.74,0,0,0,.92,1.35,16.42,16.42,0,0,1,1.31,1.5,1.57,1.57,0,0,1,.23,1.66,3.72,3.72,0,0,1-2.1,1.63,12.41,12.41,0,0,1-4.57,1,14.62,14.62,0,0,1-5-.71l-2.48,1.07L182,253.37l2.41-1a5.44,5.44,0,0,1-1.16-1,3.07,3.07,0,0,1-.57-1,3.17,3.17,0,0,1-.15-.78,1.69,1.69,0,0,1,0-.54l.09-.21H187a3.44,3.44,0,0,0-.1.44,1.84,1.84,0,0,0,.35,1,3.24,3.24,0,0,0,1.43,1.22,6.13,6.13,0,0,0,2.51.65,5.22,5.22,0,0,0,2.31-.37q.9-.39.67-1a3.73,3.73,0,0,0-1-1.35,13.81,13.81,0,0,1-1.32-1.5,1.55,1.55,0,0,1-.18-1.67,4,4,0,0,1,2.2-1.66,11.87,11.87,0,0,1,4.39-.86,12.66,12.66,0,0,1,4.68.73l2.48-1.06,2.71,1.47-2.48,1.07A3.53,3.53,0,0,1,206.71,247.2Z" fill="#ea8b24"/><ellipse cx="194.77" cy="249.21" rx="19.83" ry="11.62" fill="none" stroke="#f7931e" stroke-miterlimit="10" stroke-width="2"/><ellipse cx="210.93" cy="236.36" rx="23.63" ry="13.84" fill="#ff912e"/><polygon points="187.3 236.36 187.3 232.37 189.88 235.56 187.3 236.36" fill="#e0944f"/><polygon points="234.56 232.37 234.56 236.36 231.56 236.36 233.76 233.15 234.56 232.37" fill="#e0944f"/><ellipse cx="210.93" cy="232.37" rx="23.63" ry="13.84" fill="#ffb92c"/><path d="M222.91,230.52a1.85,1.85,0,0,1,.19,1l-.09.37-4.31,0a2,2,0,0,0,.08-.37,1.61,1.61,0,0,0-.26-.79,2.36,2.36,0,0,0-1-1,4.72,4.72,0,0,0-2-.53,4.37,4.37,0,0,0-1.93.3q-.91.39-.7,1a3.74,3.74,0,0,0,.92,1.35,16.42,16.42,0,0,1,1.31,1.5,1.57,1.57,0,0,1,.23,1.66,3.72,3.72,0,0,1-2.1,1.63,12.41,12.41,0,0,1-4.57,1,14.62,14.62,0,0,1-5-.71l-2.48,1.07-2.91-1.42,2.41-1a5.44,5.44,0,0,1-1.16-1,3.07,3.07,0,0,1-.57-1,3.17,3.17,0,0,1-.15-.78,1.69,1.69,0,0,1,0-.54l.09-.21h4.31a3.44,3.44,0,0,0-.1.44,1.84,1.84,0,0,0,.35,1,3.24,3.24,0,0,0,1.43,1.22,6.13,6.13,0,0,0,2.51.65,5.22,5.22,0,0,0,2.31-.37q.9-.39.67-1a3.73,3.73,0,0,0-1-1.35,13.81,13.81,0,0,1-1.32-1.5,1.55,1.55,0,0,1-.18-1.67,4,4,0,0,1,2.2-1.66,11.87,11.87,0,0,1,4.39-.86,12.66,12.66,0,0,1,4.68.73l2.48-1.06,2.71,1.47-2.48,1.07A3.53,3.53,0,0,1,222.91,230.52Z" fill="#ea8b24"/><ellipse cx="210.97" cy="232.53" rx="19.83" ry="11.62" fill="none" stroke="#f7931e" stroke-miterlimit="10" stroke-width="2"/><ellipse cx="183.19" cy="238.19" rx="23.63" ry="13.84" fill="#ff912e"/><polygon points="159.56 238.19 159.56 234.2 162.13 237.39 159.56 238.19" fill="#e0944f"/><polygon points="206.81 234.2 206.81 238.19 203.82 238.19 206.01 234.99 206.81 234.2" fill="#e0944f"/><ellipse cx="183.19" cy="234.2" rx="23.63" ry="13.84" fill="#ffb92c"/><path d="M195.17,232.35a1.85,1.85,0,0,1,.19,1l-.09.37-4.31,0a2,2,0,0,0,.08-.37,1.61,1.61,0,0,0-.26-.79,2.36,2.36,0,0,0-1-1,4.72,4.72,0,0,0-2-.53,4.37,4.37,0,0,0-1.93.3q-.91.39-.7,1a3.74,3.74,0,0,0,.92,1.35,16.42,16.42,0,0,1,1.31,1.5,1.57,1.57,0,0,1,.23,1.66,3.72,3.72,0,0,1-2.1,1.63,12.41,12.41,0,0,1-4.57,1,14.62,14.62,0,0,1-5-.71l-2.48,1.07-2.91-1.42,2.41-1a5.44,5.44,0,0,1-1.16-1,3.07,3.07,0,0,1-.57-1,3.17,3.17,0,0,1-.15-.78,1.69,1.69,0,0,1,0-.54l.09-.21h4.31a3.44,3.44,0,0,0-.1.44,1.84,1.84,0,0,0,.35,1,3.24,3.24,0,0,0,1.43,1.22,6.13,6.13,0,0,0,2.51.65,5.22,5.22,0,0,0,2.31-.37q.9-.39.67-1a3.73,3.73,0,0,0-1-1.35,13.81,13.81,0,0,1-1.32-1.5,1.55,1.55,0,0,1-.18-1.67,4,4,0,0,1,2.2-1.66,11.87,11.87,0,0,1,4.39-.86,12.66,12.66,0,0,1,4.68.73l2.48-1.06,2.71,1.47L194.14,231A3.53,3.53,0,0,1,195.17,232.35Z" fill="#ea8b24"/><ellipse cx="183.23" cy="234.36" rx="19.83" ry="11.62" fill="none" stroke="#f7931e" stroke-miterlimit="10" stroke-width="2"/><ellipse cx="230.81" cy="250.04" rx="23.63" ry="13.84" fill="#ff912e"/><polygon points="207.18 250.04 207.18 246.04 209.75 249.23 207.18 250.04" fill="#e0944f"/><polygon points="254.43 246.04 254.43 250.04 251.43 250.04 253.63 246.83 254.43 246.04" fill="#e0944f"/><ellipse cx="230.81" cy="246.04" rx="23.63" ry="13.84" fill="#ffb92c"/><path d="M242.79,244.19a1.85,1.85,0,0,1,.19,1l-.09.37-4.31,0a2,2,0,0,0,.08-.37,1.61,1.61,0,0,0-.26-.79,2.36,2.36,0,0,0-1-1,4.72,4.72,0,0,0-2-.53,4.37,4.37,0,0,0-1.93.3q-.91.39-.7,1a3.74,3.74,0,0,0,.92,1.35,16.42,16.42,0,0,1,1.31,1.5,1.57,1.57,0,0,1,.23,1.66,3.72,3.72,0,0,1-2.1,1.63,12.41,12.41,0,0,1-4.57,1,14.62,14.62,0,0,1-5-.71L221,251.77l-2.91-1.42,2.41-1a5.44,5.44,0,0,1-1.16-1,3.07,3.07,0,0,1-.57-1,3.17,3.17,0,0,1-.15-.78,1.69,1.69,0,0,1,0-.54l.09-.21h4.31a3.44,3.44,0,0,0-.1.44,1.84,1.84,0,0,0,.35,1,3.24,3.24,0,0,0,1.43,1.22,6.13,6.13,0,0,0,2.51.65,5.22,5.22,0,0,0,2.31-.37q.9-.39.67-1a3.73,3.73,0,0,0-1-1.35,13.81,13.81,0,0,1-1.32-1.5,1.55,1.55,0,0,1-.18-1.67,4,4,0,0,1,2.2-1.66,11.87,11.87,0,0,1,4.39-.86,12.66,12.66,0,0,1,4.68.73l2.48-1.06,2.71,1.47-2.48,1.07A3.53,3.53,0,0,1,242.79,244.19Z" fill="#ea8b24"/><ellipse cx="230.85" cy="246.21" rx="19.83" ry="11.62" fill="none" stroke="#f7931e" stroke-miterlimit="10" stroke-width="2"/><ellipse cx="218.35" cy="241.2" rx="23.63" ry="13.84" fill="#ff912e"/><polygon points="194.72 241.2 194.72 237.2 197.3 240.4 194.72 241.2" fill="#e0944f"/><polygon points="241.98 237.2 241.98 241.2 238.98 241.2 241.18 237.99 241.98 237.2" fill="#e0944f"/><ellipse cx="218.35" cy="237.2" rx="23.63" ry="13.84" fill="#ffb92c"/><path d="M230.33,235.35a1.85,1.85,0,0,1,.19,1l-.09.37-4.31,0a2,2,0,0,0,.08-.37,1.61,1.61,0,0,0-.26-.79,2.36,2.36,0,0,0-1-1,4.72,4.72,0,0,0-2-.53,4.37,4.37,0,0,0-1.93.3q-.91.39-.7,1a3.74,3.74,0,0,0,.92,1.35,16.42,16.42,0,0,1,1.31,1.5,1.57,1.57,0,0,1,.23,1.66,3.72,3.72,0,0,1-2.1,1.63,12.41,12.41,0,0,1-4.57,1,14.62,14.62,0,0,1-5-.71l-2.48,1.07-2.91-1.42,2.41-1a5.44,5.44,0,0,1-1.16-1,3.07,3.07,0,0,1-.57-1,3.17,3.17,0,0,1-.15-.78,1.69,1.69,0,0,1,0-.54l.09-.21h4.31a3.44,3.44,0,0,0-.1.44,1.84,1.84,0,0,0,.35,1,3.24,3.24,0,0,0,1.43,1.22,6.13,6.13,0,0,0,2.51.65,5.22,5.22,0,0,0,2.31-.37q.9-.39.67-1a3.73,3.73,0,0,0-1-1.35,13.81,13.81,0,0,1-1.32-1.5,1.55,1.55,0,0,1-.18-1.67,4,4,0,0,1,2.2-1.66,11.87,11.87,0,0,1,4.39-.86,12.66,12.66,0,0,1,4.68.73l2.48-1.06,2.71,1.47L229.31,234A3.53,3.53,0,0,1,230.33,235.35Z" fill="#ea8b24"/><ellipse cx="218.39" cy="237.37" rx="19.83" ry="11.62" fill="none" stroke="#f7931e" stroke-miterlimit="10" stroke-width="2"/><path d="M165,218.59s.49,7.6-5.42,8.07c0,0,5,2.08,5.84,6.06,0,0,.62-5.56,5.7-6.13A7.82,7.82,0,0,1,165,218.59Z" fill="#fff"/><path d="M144.25,99.58s2.79-5.3,6.73-3.33,6.34,5.42,11.65,3.33,8.59-13.06,12.14-11.43,5.7,4.5,4.08,10-.9,6.81,1.43,7.52-6.11,9-12.73,7.16S144.25,99.58,144.25,99.58Z" fill="#68e1fd"/><path d="M150.27,116.71s-17.32,18.51-13.49,38.1,48.54,21.23,55,6.11.38-35.89-9.43-43.11c0,0,8.1-8.6,4.76-14.42s-8.76,4.89-11.68,3.36,6.35-19.08-3.78-19.76-7.49,18-11.8,17.09-12.1-9.74-15.57-4.51S152.67,110.95,150.27,116.71Z" fill="#68e1fd"/><path d="M182.32,117.93s8.1-8.6,4.76-14.42c-.85-1.48-1.83-1.88-2.88-1.7,2.52,4.43-2.21,9.19-5.43,12.45-1.26,1.28-3.1,2.59-4,4.13-2.74,4.49.19,8,3,11.49a31.43,31.43,0,0,1,6.44,12.44c3.15,13-3.13,24.1-13.28,28.72,9.68-.64,18.29-4,20.85-10C198.19,145.93,192.13,125.15,182.32,117.93Z" fill="#333" opacity="0.13"/><path d="M180.33,114.53a51.15,51.15,0,0,1-28.3-2.17c-3.24-1.18-4.64,4-1.42,5.16a56.48,56.48,0,0,0,31.14,2.17C185.12,119,183.69,113.84,180.33,114.53Z" fill="#c64f14"/><path d="M177.55,145.37c-.64-3-3.61-4.39-6.42-4.67a9.45,9.45,0,0,0-1.35,0c0-2.86,0-5.73,0-8.59a9.7,9.7,0,0,1,2,.43c1.23.41,1.92-1.48.69-1.89a9.11,9.11,0,0,0-2.73-.36c0-1.06,0-2.11,0-3.17,0-1.29-2-1.46-2-.16,0,1.14,0,2.29,0,3.43-.64.07-1.29.18-1.94.32,0-1,0-2,0-3,0-1.29-2-1.46-2-.16s0,2.49,0,3.74c-4.59,1.48-8.35,4.61-5.28,8.92a6.48,6.48,0,0,0,5.37,2.67c0,3,0,5.93,0,8.9-1.4-.12-2.79-.3-4.12-.5s-1.44,1.82-.16,2c1.09.16,2.6.33,4.28.4,0,1.38,0,2.75,0,4.13s2,1.46,2,.16,0-2.83,0-4.25c.7,0,1.4,0,2.11-.08,0,2.06.07,4.13.13,6.2,0,1.28,2,1.46,2,.16-.06-2.19-.09-4.38-.13-6.57C174.67,152.7,178.66,150.63,177.55,145.37Zm-14.85-4.94q-4.59-.56-.51-6.38a14.14,14.14,0,0,1,1.61-.82c0,2.54.05,5.07.07,7.61A4.82,4.82,0,0,1,162.7,140.43Zm3.09-8a10.75,10.75,0,0,1,1.93-.38c0,2.92,0,5.85,0,8.77-.64.07-1.28.13-1.9.15C165.86,138.15,165.83,135.3,165.8,132.45Zm.09,19.36c0-3,0-6,0-9l1.9-.1c0,3,.11,6,.18,9.07C167.28,151.82,166.58,151.83,165.89,151.81Zm4.07-.27c-.06-3-.13-5.9-.17-8.85.22,0,.44,0,.65,0,3.05.22,4.48.81,4.36,4S173,151,170,151.54Z" fill="#4a9e18"/><path d="M189.44,84.71s4.63-8.78,11.16-5.52,10.52,9,19.3,5.52S234.15,63.06,240,65.77s9.44,7.45,6.77,16.66-1.48,11.28,2.38,12.47-10.13,14.85-21.1,11.88S189.44,84.71,189.44,84.71Z" fill="#68e1fd"/><path d="M199.41,113.11S170.7,143.79,177,176.27s80.47,35.19,91.14,10.14.63-59.5-15.64-71.47c0,0,13.42-14.26,7.89-23.9s-14.52,8.11-19.36,5.58S251.61,65,234.82,63.85s-12.41,29.9-19.56,28.33S195.2,76,189.44,84.71,203.39,103.55,199.41,113.11Z" fill="#68e1fd"/><path d="M252.55,115.13s13.42-14.26,7.89-23.9c-1.41-2.45-3-3.12-4.77-2.81,4.18,7.34-3.67,15.23-9,20.63-2.09,2.12-5.15,4.3-6.7,6.85-4.55,7.44.31,13.29,5,19a52.1,52.1,0,0,1,10.68,20.62c5.23,21.61-5.19,39.94-22,47.61,16-1.06,30.32-6.61,34.56-16.57C278.86,161.55,268.81,127.11,252.55,115.13Z" fill="#333" opacity="0.13"/><path d="M249.24,109.5a84.8,84.8,0,0,1-46.91-3.6c-5.37-2-7.69,6.62-2.36,8.56a93.64,93.64,0,0,0,51.63,3.6C257.19,116.9,254.82,108.35,249.24,109.5Z" fill="#c64f14"/><path d="M244.64,160.62c-1.06-5-6-7.28-10.64-7.74a15.67,15.67,0,0,0-2.23,0c0-4.75-.06-9.5-.07-14.25a16.09,16.09,0,0,1,3.37.71c2,.68,3.18-2.46,1.14-3.14a15.1,15.1,0,0,0-4.53-.59c0-1.75,0-3.5,0-5.25,0-2.14-3.32-2.42-3.33-.27,0,1.9,0,3.79,0,5.69-1.05.12-2.13.3-3.22.53,0-1.68,0-3.37,0-5.05,0-2.13-3.36-2.42-3.33-.27s0,4.13.05,6.2c-7.61,2.46-13.84,7.64-8.74,14.8,2.34,3.29,5.5,4.25,8.91,4.43,0,4.92,0,9.84,0,14.75-2.32-.2-4.63-.49-6.84-.82s-2.38,3-.27,3.33c1.8.27,4.31.54,7.1.67,0,2.28,0,4.56,0,6.84s3.32,2.42,3.33.27c0-2.35,0-4.69,0-7,1.15,0,2.33,0,3.5-.13.08,3.42.11,6.85.21,10.27.06,2.13,3.39,2.42,3.33.27-.1-3.63-.14-7.26-.22-10.89C239.87,172.77,246.48,169.33,244.64,160.62ZM220,152.43q-7.61-.94-.85-10.57a23.44,23.44,0,0,1,2.67-1.37c0,4.2.09,8.41.11,12.61A8,8,0,0,1,220,152.43Zm5.13-13.22a17.82,17.82,0,0,1,3.21-.62c0,4.85,0,9.69.07,14.54-1.06.11-2.12.22-3.16.25C225.25,148.66,225.21,143.93,225.16,139.21Zm.15,32.09c0-5,0-10,0-14.93,1,0,2.1-.11,3.15-.17.06,5,.19,10,.29,15C227.61,171.31,226.46,171.33,225.31,171.3Zm6.75-.45c-.1-4.89-.22-9.78-.28-14.68.36,0,.73,0,1.08,0,5.06.37,7.43,1.35,7.23,6.63S237.13,169.9,232.06,170.85Z" fill="#4a9e18"/><path d="M114.26,109.57s.6,9.2-6.56,9.76c0,0,6.06,2.51,7.06,7.33,0,0,.75-6.72,6.9-7.41A9.46,9.46,0,0,1,114.26,109.57Z" fill="#fff"/><path d="M304.21,160.63s.6,9.2-6.56,9.76c0,0,6.06,2.51,7.06,7.33,0,0,.75-6.72,6.9-7.41A9.46,9.46,0,0,1,304.21,160.63Z" fill="#fff"/></g></g></svg>