<svg id="Layer_2" data-name="Layer 2" xmlns="http://www.w3.org/2000/svg" xmlns:xlink="http://www.w3.org/1999/xlink" viewBox="0 0 400 300"><defs><linearGradient id="linear-gradient" x1="140.44" y1="221.48" x2="187.6" y2="159.53" gradientUnits="userSpaceOnUse"><stop offset="0.01" stop-color="#ff9494"/><stop offset="1" stop-color="#d4145a"/></linearGradient></defs><title>PP</title><path d="M192.9,265,20.4,163c-5.49-3.08-10.2-8.15-4.85-11.46L188.68,51.77c2.6-1.61,6.54-2.66,9.18-1.13L378.93,155.73c5.49,3.19,6.48,12.1,1,15.29L215.64,264.79A22.94,22.94,0,0,1,192.9,265Z" fill="#ff9494"/><polyline points="267.6 199.56 170.92 251.96 57.69 185.04 140.24 130.5" fill="url(#linear-gradient)"/><path d="M198.74,220.16s-52.61-4.5-75.49-36.58l-.35-11.74L198.84,212Z" fill="#68e1fd"/><path d="M285.25,175.09c1,0,1.5.85,1.77,1.73V125.68l-91.6,46.41,5.09,16.81,5.19,25.1c3.4-.23,9.46-.53,12.57-.87,0-2.75,0-5.84,0-6a3.72,3.72,0,0,1,3.76-3.57c3.53,0,3.53,3.94,3.53,3.94v4.68q3.85-.56,7.39-1.22c0-2.85,0-6.26,0-6.41a3.72,3.72,0,0,1,3.76-3.57c3.53,0,3.53,3.94,3.53,3.94v4.51c1.95-.46,3.81-.93,5.6-1.43,0-2.85,0-6.26,0-6.41s.32-3.57,3.47-3.57,3.25,3.94,3.25,3.94v4q2.84-1,5.39-2c0-3,0-6.19,0-6.34s.35-4,3.71-4,3.48,4.44,3.48,4.44v2.73q1.26-.62,2.43-1.25c0-3.2,0-7.68,0-7.86s.3-3.84,3.23-3.84,3,4.24,3,4.24v3.7c.48-.33.95-.65,1.4-1,0-3.12,0-7.83,0-8s.3-3.74,3.23-3.74,3,4.13,3,4.13v2.41c.54-.54,1-1,1.49-1.54,0-2.63,0-9.44,0-9.64S283.25,175.09,285.25,175.09Z" fill="#68e1fd"/><path d="M287,176.82c-.27-.88-.78-1.73-1.77-1.73-2,0-2.2,3.1-2.2,3.35s0,7,0,9.64a23.61,23.61,0,0,0,4-5.48Z" fill="#16515b" opacity="0.71"/><path d="M278.51,183.09c-2.93,0-3.23,3.46-3.23,3.74s0,4.89,0,8a52.15,52.15,0,0,0,6.27-5.21v-2.41S281.54,183.09,278.51,183.09Z" fill="#16515b" opacity="0.71"/><path d="M270.85,187.86c-2.93,0-3.23,3.56-3.23,3.84s0,4.66,0,7.86a72.22,72.22,0,0,0,6.27-3.76v-3.7S273.87,187.86,270.85,187.86Z" fill="#16515b" opacity="0.71"/><path d="M261.7,193.64c-3.37,0-3.71,3.72-3.71,4s0,3.35,0,6.34c2.62-1,5-2.1,7.21-3.18v-2.73S265.18,193.64,261.7,193.64Z" fill="#16515b" opacity="0.71"/><path d="M249.33,198c-3.14,0-3.47,3.31-3.47,3.57s0,3.56,0,6.41q3.56-1,6.73-2.05v-4S252.58,198,249.33,198Z" fill="#16515b" opacity="0.71"/><path d="M236.72,201a3.72,3.72,0,0,0-3.76,3.57c0,.15,0,3.56,0,6.41q3.82-.71,7.3-1.53v-4.51S240.24,201,236.72,201Z" fill="#16515b" opacity="0.71"/><path d="M222,203.57a3.72,3.72,0,0,0-3.76,3.57c0,.14,0,3.23,0,6q3.78-.42,7.3-.93v-4.68S225.56,203.57,222,203.57Z" fill="#16515b" opacity="0.71"/><ellipse cx="205.69" cy="124.16" rx="81.32" ry="47.97" fill="#68e1fd"/><ellipse cx="207.09" cy="124.16" rx="73.58" ry="42.56" fill="#16515b" opacity="0.44"/><ellipse cx="205.59" cy="124.16" rx="67.25" ry="38.9" fill="#68e1fd"/><ellipse cx="208.51" cy="124.16" rx="58.39" ry="33.78" fill="#16515b" opacity="0.44"/><ellipse cx="208.51" cy="125.15" rx="53.06" ry="30.69" fill="#68e1fd"/><ellipse cx="210.15" cy="124.16" rx="47.07" ry="27.23" fill="#16515b" opacity="0.44"/><ellipse cx="210.15" cy="124.16" rx="40.33" ry="23.33" fill="#68e1fd"/><path d="M210.15,56.5V79.33s-70.88-5.21-80.94,37.8c0,0-17.41-29.08,22.78-50S210.15,56.5,210.15,56.5Z" fill="#68e1fd"/><path d="M198.74,177.27l-75.49-52.53-.1,49a2.68,2.68,0,0,1,.4,0c3.33,0,2.86,5,2.86,5v8.88l.73.86v-1.24c0-.28.28-3.76,3-3.76,3.33,0,2.86,5,2.86,5v5.95l.73.65V193.3c0-.28.31-3.76,3.32-3.76,3.62,0,3.11,5,3.11,5v5.57l1.61,1.12v-2.56c0-.28.35-3.76,3.79-3.76s3.55,4.16,3.55,4.16v6.65q1.06.58,2.12,1.13v-3.54a4,4,0,0,1,4.06-3.76c3.81,0,3.81,4.16,3.81,4.16v6.81q1.4.58,2.79,1.12v-4.31a4,4,0,0,1,4.24-3.76c4,0,4,4.16,4,4.16v6.74q2,.6,3.89,1.12v-5.43a4,4,0,0,1,4.24-3.76c4,0,4,4.16,4,4.16v7q1.85.38,3.59.69v-6.55a4,4,0,0,1,4.24-3.76c4,0,4,4.16,4,4.16v7.37c5.83.68,4.67.72,4.67.72Z" fill="#68e1fd"/><path d="M190.1,207.91a4,4,0,0,0-4.24,3.76v6.55c3,.54,5.82.93,8.21,1.21v-7.37S194.07,207.91,190.1,207.91Z" fill="#16515b" opacity="0.71"/><path d="M178.29,206.39a4,4,0,0,0-4.24,3.76v5.43c2.86.77,5.61,1.42,8.21,2v-7S182.27,206.39,178.29,206.39Z" fill="#16515b" opacity="0.71"/><path d="M166.18,203.57a4,4,0,0,0-4.24,3.76v4.31c2.78,1.07,5.53,2,8.21,2.82v-6.74S170.16,203.57,166.18,203.57Z" fill="#16515b" opacity="0.71"/><path d="M155.35,199.56a4,4,0,0,0-4.06,3.76v3.54c2.62,1.35,5.25,2.57,7.88,3.66v-6.81S159.16,199.56,155.35,199.56Z" fill="#16515b" opacity="0.71"/><path d="M145.61,194.93c-3.43,0-3.79,3.49-3.79,3.76v2.56c2.4,1.63,4.86,3.12,7.34,4.48v-6.65S149.16,194.93,145.61,194.93Z" fill="#16515b" opacity="0.71"/><path d="M137.1,189.53c-3,0-3.32,3.49-3.32,3.76V195a80.36,80.36,0,0,0,6.43,5.1v-5.57S140.73,189.53,137.1,189.53Z" fill="#16515b" opacity="0.71"/><path d="M130.19,183.41c-2.76,0-3,3.49-3,3.76v1.24a73.83,73.83,0,0,0,5.91,6v-5.95S133.52,183.41,130.19,183.41Z" fill="#16515b" opacity="0.71"/><path d="M123.55,173.65a2.68,2.68,0,0,0-.4,0l.1,9.89c1,1.38,2.07,2.7,3.16,4v-8.88S126.88,173.65,123.55,173.65Z" fill="#16515b" opacity="0.71"/><path d="M173.78,163.29a4.4,4.4,0,0,1,4.31-2.87,4.26,4.26,0,0,1,4.14,3.71,1.89,1.89,0,0,1,0,.36v9.89c4.06,1.57,3.57-.73,3.57-.73l-.59-21.55c-51.35-5.84-62.09-36.1-62.09-36.1l.09,24.35v-8.21h.19a2.83,2.83,0,0,1,2.67,2.68,1.86,1.86,0,0,1,0,.29v9.68c.47.62,1,1.23,1.45,1.84v-4.93a2.7,2.7,0,0,1,.13-.84,2.42,2.42,0,0,1,2.75-2,2.83,2.83,0,0,1,2.67,2.68,1.86,1.86,0,0,1,0,.29v11.08c.47.46.95.91,1.43,1.36V149a6.3,6.3,0,0,1,0-.86,3.15,3.15,0,0,1,3.31-3.07c2.74,0,2.93,2.91,3,3.71a2.55,2.55,0,0,1,0,.36v10.11l1.4.93V154a3.1,3.1,0,0,1,.18-1.06,4,4,0,0,1,3.81-2.87c2.85,0,3.53,2.91,3.67,3.71a2.12,2.12,0,0,1,0,.36v10.36q1,.48,1.95.92V158.2a3,3,0,0,1,.18-1.06,4.06,4.06,0,0,1,3.92-2.87c2.93,0,3.63,2.91,3.77,3.71a2.06,2.06,0,0,1,0,.36v10.32q1.35.48,2.68.92v-7.91a2.78,2.78,0,0,1,.2-1.06,4.4,4.4,0,0,1,4.31-2.87,4.26,4.26,0,0,1,4.14,3.71,1.89,1.89,0,0,1,0,.36v10.28l2.32.56v-8.3A2.78,2.78,0,0,1,173.78,163.29Z" fill="#68e1fd"/><path d="M182.27,164.49a1.89,1.89,0,0,0,0-.36,4.26,4.26,0,0,0-4.14-3.71,4.4,4.4,0,0,0-4.31,2.87,2.78,2.78,0,0,0-.2,1.06v8.3c3.13.73,6.06,1.29,8.68,1.73Zm-4.62,5.05a6.05,6.05,0,0,1,.55-.69A6.05,6.05,0,0,0,177.64,169.55Z" fill="#16515b" opacity="0.71"/><path d="M171.23,161.45a4.26,4.26,0,0,0-4.14-3.71,4.4,4.4,0,0,0-4.31,2.87,2.78,2.78,0,0,0-.2,1.06v7.91c3,1,5.89,1.81,8.68,2.51V161.81A1.89,1.89,0,0,0,171.23,161.45Z" fill="#16515b" opacity="0.71"/><path d="M159.87,158c-.14-.8-.84-3.67-3.77-3.71a4.06,4.06,0,0,0-3.92,2.87,3,3,0,0,0-.18,1.06v7.25c2.62,1.2,5.27,2.27,7.91,3.21V158.34A2.06,2.06,0,0,0,159.87,158Z" fill="#16515b" opacity="0.71"/><path d="M150,153.8c-.14-.8-.82-3.67-3.67-3.71a4,4,0,0,0-3.81,2.87,3.1,3.1,0,0,0-.18,1.06v6.18a75.08,75.08,0,0,0,7.68,4.32V154.16A2.12,2.12,0,0,0,150,153.8Z" fill="#16515b" opacity="0.71"/><path d="M140.93,148.79c-.11-.8-.3-3.71-3-3.71a3.15,3.15,0,0,0-3.31,3.07,6.3,6.3,0,0,0,0,.86v5.23a57.28,57.28,0,0,0,6.38,5V149.16A2.55,2.55,0,0,0,140.93,148.79Z" fill="#16515b" opacity="0.71"/><path d="M133.12,141.52a2.83,2.83,0,0,0-2.67-2.68,2.42,2.42,0,0,0-2.75,2,2.7,2.7,0,0,0-.13.84v4.93c2.72,3.32,5.57,6.26,5.57,6.26V141.8A1.86,1.86,0,0,0,133.12,141.52Z" fill="#16515b" opacity="0.71"/><path d="M126.1,134.82a2.83,2.83,0,0,0-2.67-2.68h-.19v8.23a27.08,27.08,0,0,0,2.88,4.42V135.1A1.86,1.86,0,0,0,126.1,134.82Z" fill="#16515b" opacity="0.71"/><path d="M122.9,155l.06.16v-2.78Z" fill="#16515b" opacity="0.71"/><path d="M198.74,191V177.27l-4.34-1.41c-61.81-10.41-71.15-35.5-71.15-35.5l-.18,7.31a3,3,0,0,1,.42,0c2.95,0,2.85,3,2.85,3V160.9q.7.91,1.48,1.81v-5.42a2.89,2.89,0,0,1,2.85-2.76c2.95,0,2.85,3,2.85,3v10.92l1.43,1.27v-5.81c0-.28.41-3.18,3.24-3.18,3.36,0,3.24,3.46,3.24,3.46V175l1.42.8v-6.54c0-.28.32-3.76,3.48-3.76,3.73,0,3.73,4,3.73,4v10c.65.3,1.3.59,1.95.87V173.6a4,4,0,0,1,4.24-3.76c4,0,4,4.16,4,4.16v9.59q1.43.5,2.84,1V177a4,4,0,0,1,4.24-3.76c4,0,4,4.16,4,4.16v9.41q1.41.34,2.79.65v-7.87a4,4,0,0,1,4.24-3.76c4,0,4,4.16,4,4.16v9C194.86,190.88,198.74,191,198.74,191Z" fill="#68e1fd"/><path d="M178.29,175.86a4,4,0,0,0-4.24,3.76v7.87c2.88.63,5.63,1.12,8.21,1.51v-9S182.27,175.86,178.29,175.86Z" fill="#16515b" opacity="0.71"/><path d="M167.29,173.27a4,4,0,0,0-4.24,3.76v7.5c2.81.9,5.56,1.67,8.21,2.31v-9.41S171.27,173.27,167.29,173.27Z" fill="#16515b" opacity="0.71"/><path d="M156.23,169.83A4,4,0,0,0,152,173.6v6.74c2.77,1.22,5.51,2.3,8.21,3.24V174S160.21,169.83,156.23,169.83Z" fill="#16515b" opacity="0.71"/><path d="M146.31,165.45c-3.15,0-3.48,3.49-3.48,3.76v6.54q3.61,2,7.21,3.71v-10S150,165.45,146.31,165.45Z" fill="#16515b" opacity="0.71"/><path d="M138.18,160.76c-2.83,0-3.24,2.91-3.24,3.18v5.81c3.56,3.11,6.48,5.2,6.48,5.2V164.22S141.53,160.76,138.18,160.76Z" fill="#16515b" opacity="0.71"/><path d="M130.66,154.52a2.89,2.89,0,0,0-2.85,2.76v5.42a68.07,68.07,0,0,0,5.69,5.78V157.56S133.61,154.52,130.66,154.52Z" fill="#16515b" opacity="0.71"/><path d="M123,147.68v4.71l.11-4.72Z" fill="#16515b" opacity="0.71"/><path d="M123.49,147.63a3,3,0,0,0-.42,0l-.11,4.72v2.78a22.92,22.92,0,0,0,3.38,5.72V150.68S126.44,147.63,123.49,147.63Z" fill="#16515b" opacity="0.71"/><path d="M194.07,205v-7.84s0-4.16-4-4.16a4,4,0,0,0-4.24,3.76c0,.28,0,7.19,0,7.19Z" fill="#16515b" opacity="0.71"/><path d="M182.27,203.57v-7.79s0-4.16-4-4.16a4,4,0,0,0-4.24,3.76v6.47Z" fill="#16515b" opacity="0.71"/><path d="M170.92,201.43v-8.09s0-4.16-4-4.16a4,4,0,0,0-4.24,3.76v5.84Z" fill="#16515b" opacity="0.71"/><path d="M160.32,198.12l.15-8.46s0-4.16-4-4.16a4,4,0,0,0-4.24,3.76v5.51Z" fill="#16515b" opacity="0.71"/><path d="M150,193.86v-9.45s0-3.89-3.34-3.89-3.56,3.26-3.56,3.52v6.14Z" fill="#16515b" opacity="0.71"/><path d="M141.28,188.63V178.48s0-3.89-3.07-3.89-3.28,3.26-3.28,3.52v6.16Z" fill="#16515b" opacity="0.71"/><path d="M133.32,182.57V172.42s.35-3.54-2.86-3.92c-3-.35-2.76,3.29-2.76,3.55v4.27Z" fill="#16515b" opacity="0.71"/><path d="M124,160.09a2,2,0,0,0-1.12.14v11.62l3.64,2.31V164S126.85,160.46,124,160.09Z" fill="#16515b" opacity="0.71"/><polygon points="189.96 168.66 189.47 149.27 185.24 152.1 185.24 174.37 189.96 168.66" fill="#68e1fd"/><polygon points="198.74 220.16 205.69 214 205.69 193.45 205.69 172.13 189.96 168.66 185.24 174.37 198.74 177.27 198.74 220.16" fill="#68e1fd"/><polygon points="189.96 168.66 189.47 149.27 185.24 152.1 185.24 174.37 189.96 168.66" fill="#16515b" opacity="0.71"/><path d="M189.46,149.27s-64.62-8.16-63.13-46.45,58.13-50.67,83.81-46.32l4.36-4.13s-88.38-8.4-92.92,50.75c-3.09,40.33,63.65,49,63.65,49Z" fill="#68e1fd"/><path d="M189.46,149.27s-64.62-8.16-63.13-46.45,58.13-50.67,83.81-46.32l4.36-4.13s-88.38-8.4-92.92,50.75c-3.09,40.33,63.65,49,63.65,49Z" fill="#fff" opacity="0.55"/><polygon points="214.51 52.38 214.51 76.61 210.15 79.33 210.15 56.5 214.51 52.38" fill="#68e1fd"/><polygon points="214.51 52.38 214.51 76.61 210.15 79.33 210.15 56.5 214.51 52.38" fill="#16515b" opacity="0.44"/><ellipse cx="210.15" cy="125.68" rx="33.26" ry="19.24" fill="#16515b" opacity="0.44"/><path d="M226.09,201.15v-6.79s0-4.66-3.78-4.66-4,3.91-4,4.22,0,8.4,0,8.4Z" fill="#16515b" opacity="0.71"/><path d="M240.33,197.93v-7.11s0-4.05-4-4.05a4,4,0,0,0-4.25,3.66c0,.27,0,9.7,0,9.7Z" fill="#16515b" opacity="0.71"/><path d="M253,193.64v-6.42s0-4.13-3.68-4.13a3.89,3.89,0,0,0-3.92,3.74c0,.28-.13,9.59-.13,9.59Z" fill="#16515b" opacity="0.71"/><path d="M263.12,188.38l.14-5.19s0-4.13-3.36-4.13-3.59,3.46-3.59,3.74,0,9.34,0,9.34Z" fill="#16515b" opacity="0.71"/><path d="M272.92,182.73v-5.34s0-4.13-3-4.13-3.23,3.46-3.23,3.74,0,9.71,0,9.71Z" fill="#16515b" opacity="0.71"/><path d="M280.66,176.23V171.5s0-4.13-3-4.13-3.23,3.46-3.23,3.74,0,10.48,0,10.48Z" fill="#16515b" opacity="0.71"/><path d="M286,169.84V164.1s0-3.7-2.07-3.7-2.2,3.1-2.2,3.35,0,10.67,0,10.67Z" fill="#16515b" opacity="0.71"/><path d="M285.15,156.5v-7s.34-3.7-2.07-3.7-2.2,3.1-2.2,3.35,0,10.55,0,10.55Z" fill="#16515b" opacity="0.71"/><path d="M279.42,162.14v-6.57s.2-4.09-2.71-3.79a3,3,0,0,0-2.89,3.43c0,.25,0,10.79,0,10.79Z" fill="#16515b" opacity="0.71"/><path d="M272.36,167.94v-6.07s.3-3.8-3-3.79a3,3,0,0,0-3.25,3.43c0,.25,0,10.79,0,10.79Z" fill="#16515b" opacity="0.71"/><path d="M262.89,173.63v-6.57s-.33-3.89-3.42-3.89-3.64,3.26-3.64,3.52,0,10.64,0,10.64Z" fill="#16515b" opacity="0.71"/><path d="M252.42,178.64v-7.52s-.35-4-3.72-4a3.94,3.94,0,0,0-4,3.61c0,.27,0,11.36,0,11.36Z" fill="#16515b" opacity="0.71"/><path d="M240,182.93v-8.57s-.38-4.09-4-4.09a4.15,4.15,0,0,0-4.3,3.7c0,.27,0,11.07,0,11.07Z" fill="#16515b" opacity="0.71"/><path d="M226,186.6V178s-.36-4.09-3.72-4.09a4,4,0,0,0-4,3.7c0,.27,0,10,0,10Z" fill="#16515b" opacity="0.71"/><polygon points="198.74 220.16 205.69 214 205.69 193.45 205.69 172.13 189.96 168.66 185.24 174.37 198.74 177.27 198.74 220.16" fill="#16515b" opacity="0.71"/></svg>