<svg id="Layer_2" data-name="Layer 2" xmlns="http://www.w3.org/2000/svg" xmlns:xlink="http://www.w3.org/1999/xlink" viewBox="0 0 400 300"><defs><linearGradient id="linear-gradient" x1="51.48" y1="182.99" x2="57.92" y2="178.03" gradientUnits="userSpaceOnUse"><stop offset="0" stop-opacity="0"/><stop offset="1" stop-color="#3f1e00"/></linearGradient><linearGradient id="linear-gradient-2" x1="239.88" y1="185.45" x2="227.22" y2="168.95" gradientUnits="userSpaceOnUse"><stop offset="0" stop-color="#fff" stop-opacity="0"/><stop offset="0.99" stop-color="#d46400"/></linearGradient><linearGradient id="linear-gradient-3" x1="74.65" y1="168.69" x2="90.15" y2="156.79" gradientUnits="userSpaceOnUse"><stop offset="0" stop-color="#aa4200" stop-opacity="0"/><stop offset="0.98" stop-color="#aa003d"/></linearGradient><linearGradient id="linear-gradient-4" x1="245.2" y1="165.65" x2="256.9" y2="149.89" gradientUnits="userSpaceOnUse"><stop offset="0" stop-color="#fff" stop-opacity="0"/><stop offset="1" stop-color="#d43500"/></linearGradient></defs><title>PP_</title><path d="M196.24,288.6,23.74,186.65c-5.49-3.08-10.2-8.15-4.85-11.46L192,75.41c2.6-1.61,6.54-2.66,9.18-1.13L382.28,179.37c5.49,3.19,6.48,12.1,1,15.29L219,288.44A22.94,22.94,0,0,1,196.24,288.6Z" fill="#007f68"/><path d="M160.16,156.73v29.39c0,3.86,6,3.87,6,0V156.73C166.16,152.87,160.16,152.86,160.16,156.73Z" fill="#173743"/><path d="M161.73,161.72s9.38,11.7,18.76,14.78,35.19-17.79,35.19-17.79l-35.91-23.08" fill="#68e1fd"/><path d="M186,93.38s-35.6,14.44-36.1,23,7.17,43.19,11.86,45.32,34.93-14.63,34.93-14.63" fill="#68e1fd"/><path d="M193,272l-49.67-27.94,6.16-50.82s.22-7.26,10.12-12.76c8.61-4.78,89.25-50.66,110.14-62.54a9.12,9.12,0,0,1,9.63.37c11,7.43,37.59,25.59,39.51,28.73,2.42,4,7,29.46,7,29.46l2.19,17.07-15.4-10L195,248.89Z" fill="#68e1fd"/><polygon points="312.71 183.55 325.92 176.49 329.34 194.36 312.71 183.55" fill="#13373d"/><path d="M318.42,140.58,276,116.06a3.82,3.82,0,0,0-3.81,0l-121,69.32a2.62,2.62,0,0,0,0,4.52l41.44,24.89a4.58,4.58,0,0,0,4.64,0l121.19-69.71A2.62,2.62,0,0,0,318.42,140.58Z" fill="#ffe1b6"/><path d="M203.29,201.62a4.64,4.64,0,0,1-1.74,2.25,8.46,8.46,0,0,1-3.16,1.47,10.39,10.39,0,0,1-3.64.22,9.2,9.2,0,0,1-2.92-.84l-.4-.21a5.11,5.11,0,0,1-2.11-2,3,3,0,0,1-.24-2.36,4.68,4.68,0,0,1,1.74-2.26,8.32,8.32,0,0,1,3.16-1.46,10.23,10.23,0,0,1,3.63-.21,9,9,0,0,1,2.89.82l.43.22a5.19,5.19,0,0,1,2.13,2A3,3,0,0,1,203.29,201.62Zm-4.35.8a2.44,2.44,0,0,0,1.2-1.88,2.07,2.07,0,0,0-1.28-1.66l-.25-.13a4.64,4.64,0,0,0-2.48-.44,5.11,5.11,0,0,0-2.69,1.07,2.44,2.44,0,0,0-1.2,1.88c0,.65.44,1.2,1.28,1.66l.24.12a4.68,4.68,0,0,0,2.48.44,5.11,5.11,0,0,0,2.69-1.06" fill="#9d5c38"/><polygon points="186.33 189.37 194.66 193.99 192.87 195.34 189.99 193.75 182.5 199.44 179.92 198 187.4 192.31 184.54 190.72 186.33 189.37" fill="#9d5c38"/><path d="M180.14,185.83l.45.23a4.55,4.55,0,0,1,2.42,2.57,3,3,0,0,1-.8,2.87L179.5,190a1.45,1.45,0,0,0,.08-1.28,2.33,2.33,0,0,0-1.11-1.1l-.2-.1a4.15,4.15,0,0,0-2.35-.36,5.33,5.33,0,0,0-2.62,1.08,2.57,2.57,0,0,0-1.23,1.85,1.76,1.76,0,0,0,1.11,1.55l.24.12a4.37,4.37,0,0,0,1.61.42,4.88,4.88,0,0,0,1.92-.25l2.72,1.51a9.09,9.09,0,0,1-4.22,1,8.84,8.84,0,0,1-3.79-.89l-.51-.27a5.11,5.11,0,0,1-2.13-2,2.69,2.69,0,0,1-.14-2.28,5.08,5.08,0,0,1,1.81-2.22,8.9,8.9,0,0,1,3.08-1.51,9.23,9.23,0,0,1,3.49-.26A8.83,8.83,0,0,1,180.14,185.83Z" fill="#9d5c38"/><path d="M58,187l3.45-9-5.26-3.87-11.23,4.93C49.76,182.53,52.82,184,58,187Z" opacity="0.32" fill="url(#linear-gradient)"/><path d="M175.77,171.68s9.79-6.21,14.55-8.62l13.53-7.93-6.6-4.28-21.92,3.66C176.13,156.94,169.79,163.35,175.77,171.68Z" fill="#204a51"/><path d="M215.43,112.15s1.69-5.2,1.55-7.45-1.39-5.52,0-6.21,3.09,4.07,3.09,4.07,4.22-8.83,5.49-8.27a2.77,2.77,0,0,1,1.33,2.29s1.35-2.22,1.87-1.3a4.73,4.73,0,0,1,0,2.76s1.25.22,1.4,1-1.77,4.14-1.77,4.14a1.28,1.28,0,0,1,1.1,1.16c.07,1-7.95,9-7.95,9" fill="#fbc76f"/><path d="M194.33,110.8s7.05,5.83,9.78,10.29,11.66-11.76,11.66-11.76,6.21,2,8.19,2.88-10,28.35-18.33,27.41-8-2.57-8-2.57" fill="#0096df"/><path d="M175.34,154.51c7.58,1.28,15.28.4,21.92-3.66,1-11.77,1.82-23.53.55-35.35a1.15,1.15,0,0,1,0-.28,10.63,10.63,0,0,0-3.51-4.41c-3.86-2.6-10.15-1.33-13.88.64a13.81,13.81,0,0,0-2.51,1.74C173.82,126.64,175.49,140.63,175.34,154.51Z" fill="#0096df"/><path d="M190,105.25l-6.84-1.43-.57,7.56s5.16,5.28,10.25,4.55l-1.45-6.29A20.26,20.26,0,0,1,190,105.25Z" fill="#fcbb5b"/><path d="M190.14,106a29.91,29.91,0,0,0-7-2.14L183,108s5.12,3.76,8.16,1.09A20.14,20.14,0,0,1,190.14,106Z" fill="#db9231"/><path d="M194.92,97s4.56-2.77,3.65-5.3-4.46-3.22-4.46-3.22-.56-3.23-3.19-3.61-7.17,1.77-7.17,1.77-3.94-.37-5.33,1.84-.89,6.17-.89,6.17,3.29,10,4.75,10.21,5.09-3.42,5.09-3.42" fill="#204a51"/><path d="M195,93.9s1.08,13.2-4.54,14.07-8-6.79-8-6.79-3.4-3.17-1.27-3.87,2.45.48,2.45.48-2.09-4.76.1-4.76S192.23,96.61,195,93.9Z" fill="#fbc76f"/><path d="M182.57,109.26s2.68,2.52,4.44,2.68l2.72,1.48,2.25,2.34v-3.25s-.67-2.93-.56-2.9,2.44,3.76,2.44,3.76l2.24,3.74-3.27-.32-1.41,2.39s-8.12-3.62-11-7.74Z" fill="#fff"/><path d="M226.5,96.06q-2.2,3.72-4.18,7.56c-.17.33.33.62.5.29q2-3.84,4.18-7.56A.29.29,0,0,0,226.5,96.06Z" fill="#204a51"/><path d="M228.35,97.79l-3.82,7c-.18.32.32.61.5.29l3.82-7C229,97.76,228.52,97.47,228.35,97.79Z" fill="#204a51"/><path d="M228.07,103.11a17.49,17.49,0,0,0-2,2.84.29.29,0,0,0,.5.29,16.74,16.74,0,0,1,1.9-2.73C228.72,103.23,228.32,102.83,228.07,103.11Z" fill="#204a51"/><path d="M220.62,103.38c-.33-.17-.62.32-.29.5a5.7,5.7,0,0,1,2.64,5.33.29.29,0,0,0,.57,0A6.24,6.24,0,0,0,220.62,103.38Z" fill="#204a51"/><path d="M177.94,113.18a19,19,0,0,0-6.68,7.38c-2.34,4.83-8.87,26.7-1.2,29.83s21-4,21-4l-.8-11.65-11.49,1.65" fill="#0096df"/><path d="M192.74,125.57c-.1.37-3.52,21.73-3.52,21.73l13.53-3.62,2.87-21.83Z" fill="#ff7f5c"/><path d="M187.41,136.05s2.39-6.12,3.62-5.74.86,3.5.86,3.5,6.12-3,7.74-1.62-2.45,4.88-3.54,5.62-8.16,3.37-8.16,3.37Z" fill="#fbc76f"/><path d="M175.34,151.18a116.52,116.52,0,0,0,11.77-3.31s1.06-6.12,1.11-5.93-.14,7.86-.63,8.39-12.26,4.18-12.26,4.18Z" fill="#363942"/><path d="M54.16,161.36A15.22,15.22,0,0,0,51,171.83c.43,6.11,3.86,7.89,3.86,7.89l4.1.23s4.87-1.59,4.24-9.54c-.6-7.46-3-9.22-3-9.22" fill="#68e1fd"/><ellipse cx="57.17" cy="161.36" rx="3.02" ry="1.07" fill="#003b94"/><ellipse cx="57.17" cy="179.06" rx="3.02" ry="1.07" fill="#68e1fd"/><path d="M55.93,161.68l-3.65-20.94c-.08-.46-.77-.26-.69.19l3.65,20.94C55.32,162.33,56,162.13,55.93,161.68Z" fill="#007f68"/><path d="M56.6,161.75a.87.87,0,0,1,.34,0,.75.75,0,0,1,.37.23q.44-8.77.16-17.56c0-.46-.74-.46-.72,0Q57,153.09,56.6,161.75Z" fill="#007f68"/><path d="M64.8,141.43a192.54,192.54,0,0,0-7.05,20.12.36.36,0,0,0,.69.19,192.54,192.54,0,0,1,7.05-20.12C65.67,141.19,65,141,64.8,141.43Z" fill="#007f68"/><path d="M53.06,149.38s-.39,0-2.12-1.86.45-3.17-.54-5.21.41-4.71.73-6.76a9.46,9.46,0,0,0,1.51,4,8.7,8.7,0,0,1,1.89,5.89,20.87,20.87,0,0,1-.76,4.4" fill="#007f68"/><path d="M56.76,152.61s-.37-.14-1.6-2.32,1.21-3,.74-5.19,1.54-4.47,2.34-6.38a9.46,9.46,0,0,0,.5,4.24,8.7,8.7,0,0,1,.4,6.18,20.87,20.87,0,0,1-1.81,4.08" fill="#007f68"/><path d="M61.9,148.83s-.33-.22-1.09-2.6,1.79-2.66,1.79-4.93,2.42-4.06,3.6-5.76a9.46,9.46,0,0,0-.38,4.25,8.7,8.7,0,0,1-.87,6.13,20.87,20.87,0,0,1-2.61,3.62" fill="#007f68"/><path d="M124.3,55.69c-3,8.57.16,17.77,7.14,20.53s15.1-1.94,18.14-10.51-.16-17.77-7.14-20.53S127.34,47.12,124.3,55.69Z" fill="#007f68"/><path d="M126.43,56.54c-3,8.57.16,17.77,7.14,20.53s15.1-1.94,18.14-10.51-.16-17.77-7.14-20.53S129.47,48,126.43,56.54Z" fill="#007f68"/><path d="M128.61,57.4c-2.52,7.09.13,14.7,5.91,17s12.5-1.6,15-8.7-.13-14.7-5.91-17S131.12,50.31,128.61,57.4Z" fill="#fff"/><path d="M139.4,61.2l3.91,5.64c.32.47-.36,1-.68.56l-3.91-5.64C138.4,61.29,139.08,60.73,139.4,61.2Z" fill="#007f68"/><path d="M139.57,52.37v8.69a.5.5,0,0,1-1,0V52.37A.5.5,0,0,1,139.57,52.37Z" fill="#007f68"/><path d="M231.51,162.14l23,12.8c-3.84,2.43-19.29,10.74-23,13.36l-23.75-15.2,3.91-9.51Z" opacity="0.32" fill="url(#linear-gradient-2)"/><polyline points="211.95 175.59 195.22 165.84 217.03 153.31 234.12 162.11" fill="#b3b3b3"/><path d="M216.29,156.36s-4.39,19.47-4.33,19.23,21.67-11.85,21.82-12.27,5.71-20.17,5.71-20.17Z" fill="#fff"/><ellipse cx="226.12" cy="160.79" rx="3.24" ry="1.44" transform="translate(-26.19 276.22) rotate(-60)" fill="#b3b3b3"/><polyline points="114.03 95.64 103.6 90.09 78.58 104.54 78.58 158.67 88.89 164.63" fill="#68e1fd"/><polyline points="114.03 95.64 103.6 90.09 78.58 104.54 78.58 158.67 88.89 164.63" fill="#152b3f" opacity="0.31"/><path d="M88.89,164.63c.79-.07,0-54.48,0-54.48L114,95.64V150.5Z" fill="#68e1fd"/><polyline points="114.03 105.88 89.01 119.96 78.58 114.64" fill="none" stroke="#f2f2f2" stroke-miterlimit="10" stroke-width="0.25"/><polyline points="114.03 119.96 89.01 134.04 78.58 128.72" fill="none" stroke="#f2f2f2" stroke-miterlimit="10" stroke-width="0.25"/><polyline points="114.03 132.63 89.01 146.71 78.58 141.4" fill="none" stroke="#f2f2f2" stroke-miterlimit="10" stroke-width="0.25"/><polyline points="114.03 145.42 89.01 159.5 78.58 154.19" fill="none" stroke="#f2f2f2" stroke-miterlimit="10" stroke-width="0.25"/><polygon points="88.89 110.16 78.58 104.54 103.6 90.09 114.03 95.64 88.89 110.16" fill="#68e1fd"/><polygon points="88.89 110.16 78.58 104.54 103.6 90.09 114.03 95.64 88.89 110.16" fill="#fff" opacity="0.43"/><ellipse cx="93.63" cy="111.95" rx="1.83" ry="1.52" transform="translate(-45.46 156.14) rotate(-67.72)" fill="#fff"/><path d="M110.65,102.48l-13.37,7.35c-.42.23,0,.88.38.65L111,103.13c.42-.23,0-.88-.38-.65Z" fill="#f2f2f2"/><ellipse cx="93.63" cy="124.26" rx="1.83" ry="1.52" transform="translate(-56.86 163.78) rotate(-67.72)" fill="#fff"/><path d="M110.65,114.79l-13.37,7.35c-.42.23,0,.88.38.65L111,115.44c.42-.23,0-.88-.38-.65Z" fill="#f2f2f2"/><ellipse cx="93.63" cy="137.71" rx="1.83" ry="1.52" transform="translate(-69.3 172.13) rotate(-67.72)" fill="#fff"/><path d="M110.65,128.25,97.29,135.6c-.42.23,0,.88.38.65L111,128.89c.42-.23,0-.88-.38-.65Z" fill="#f2f2f2"/><ellipse cx="93.63" cy="149.93" rx="1.83" ry="1.52" transform="translate(-80.61 179.71) rotate(-67.72)" fill="#fff"/><path d="M110.65,140.46l-13.37,7.35c-.42.23,0,.88.38.65L111,141.11c.42-.23,0-.88-.38-.65Z" fill="#f2f2f2"/><polyline points="78.58 158.67 68.11 166.59 78.58 172.78 88.89 164.63" fill="url(#linear-gradient-3)"/><polyline points="284.62 149.36 256.92 165.07 230.5 148.63 255.62 136.19" opacity="0.32" fill="url(#linear-gradient-4)"/><polygon points="278.32 123.53 303.89 138.22 268.08 158.93 242.83 143.85 278.32 123.53" fill="#d8d5d0"/><polygon points="242.83 138.11 242.83 143.85 248.65 140.98 242.83 138.11" fill="#d8d5d0"/><polygon points="303.89 132.48 303.89 138.22 298 135.49 303.89 132.48" fill="#d8d5d0"/><polygon points="278.32 117.79 303.89 132.48 268.08 153.19 242.83 138.11 278.32 117.79" fill="#eaeaea"/><path d="M247.73,135.7l-.07-.36L244,136s2.72,4.29,4.75,5.65C247.53,139.92,247.73,137.71,247.73,135.7Z" fill="#d8d5d0"/><line x1="275.98" y1="121.91" x2="288.8" y2="129.28" fill="#d8d5d0"/><path d="M275.6,122.56l12.82,7.37a.75.75,0,0,0,.76-1.3l-12.82-7.37a.75.75,0,0,0-.76,1.3Z" fill="#ccc"/><line x1="274.31" y1="123" x2="294.93" y2="134.85" fill="#d8d5d0"/><path d="M273.93,123.65l20.62,11.85a.75.75,0,0,0,.76-1.3l-20.62-11.85a.75.75,0,0,0-.76,1.3Z" fill="#ccc"/><line x1="272.64" y1="124.27" x2="293.27" y2="136.12" fill="#d8d5d0"/><path d="M272.27,124.92l20.62,11.85a.75.75,0,0,0,.76-1.3L273,123.62a.75.75,0,0,0-.76,1.3Z" fill="#ccc"/><line x1="270.95" y1="125.31" x2="291.57" y2="137.16" fill="#d8d5d0"/><path d="M270.57,126l20.62,11.85a.75.75,0,0,0,.76-1.3l-20.62-11.85a.75.75,0,0,0-.76,1.3Z" fill="#ccc"/><polygon points="261 133.49 266.82 130.14 268.26 130.97 262.43 134.3 261 133.49" fill="#68e1fd"/><polygon points="263.66 135.47 273.92 129.57 275.3 130.45 265.11 136.28 263.66 135.47" fill="#68e1fd"/><polygon points="266.82 137.33 272.99 133.78 274.55 134.55 268.26 138.14 266.82 137.33" fill="#68e1fd"/><polygon points="269.94 138.89 278.08 134.2 279.61 135 271.39 139.69 269.94 138.89" fill="#68e1fd"/><polygon points="272.98 140.75 275.98 139.02 277.45 139.82 274.41 141.56 272.98 140.75" fill="#68e1fd"/><polygon points="276.61 142.53 286.87 136.63 288.25 137.51 278.07 143.33 276.61 142.53" fill="#68e1fd"/><line x1="255.35" y1="134" x2="268.18" y2="141.37" fill="#d8d5d0"/><path d="M255,134.65,267.8,142a.75.75,0,0,0,.76-1.3l-12.82-7.37a.75.75,0,0,0-.76,1.3Z" fill="#ccc"/><line x1="253.69" y1="135.09" x2="274.31" y2="146.95" fill="#d8d5d0"/><path d="M253.31,135.74l20.62,11.85a.75.75,0,0,0,.76-1.3l-20.62-11.85a.75.75,0,0,0-.76,1.3Z" fill="#ccc"/><line x1="252.02" y1="136.36" x2="272.64" y2="148.21" fill="#d8d5d0"/><path d="M251.64,137l20.62,11.85a.75.75,0,0,0,.76-1.3L252.4,135.71a.75.75,0,0,0-.76,1.3Z" fill="#ccc"/><line x1="250.32" y1="137.4" x2="270.95" y2="149.25" fill="#d8d5d0"/><path d="M249.94,138.05l20.62,11.85a.75.75,0,0,0,.76-1.3L250.7,136.76a.75.75,0,0,0-.76,1.3Z" fill="#ccc"/><polyline points="303.89 133.78 268.26 154.5 242.83 139.69" fill="none" stroke="#ccc" stroke-miterlimit="10" stroke-width="0.5"/><polyline points="303.76 135.1 268.14 155.81 242.7 141" fill="none" stroke="#ccc" stroke-miterlimit="10" stroke-width="0.5"/><polyline points="303.76 136.99 268.14 157.71 242.7 142.89" fill="none" stroke="#ccc" stroke-miterlimit="10" stroke-width="0.5"/><polyline points="306.24 140.5 310 139.91 306.72 143.25" fill="#ffc65a"/><ellipse cx="306.24" cy="141.94" rx="1.12" ry="1.45" fill="#465ca2"/><polygon points="273.66 163.05 306.72 143.25 305.82 140.6 272.8 160.37 273.66 163.05" fill="#465ca2"/><ellipse cx="273.23" cy="161.71" rx="1.12" ry="1.45" fill="#283860"/><path d="M310,139.91l-1.42.22a.67.67,0,0,1,.38.84Z" fill="#465ca2"/><line x1="295.29" y1="76.79" x2="263.42" y2="58.43" fill="#204a51" stroke="#1b1464" stroke-miterlimit="10"/><line x1="293.09" y1="98.43" x2="256.97" y2="77.62" fill="#204a51" stroke="#1b1464" stroke-miterlimit="10"/><polyline points="277.58 43.86 277.58 65.07 277.58 86.56" fill="#204a51" stroke="#1b1464" stroke-miterlimit="10"/><path d="M290,38.08V52.35a3.4,3.4,0,0,1-5,3l-16.5-8.69a3.4,3.4,0,0,1-1.82-3V29a3.4,3.4,0,0,1,5-3l16.5,9.11A3.4,3.4,0,0,1,290,38.08Z" fill="#ff7f5c"/><path d="M304.75,74.78v10a2.38,2.38,0,0,1-3.49,2.11L289.7,80.8a2.38,2.38,0,0,1-1.27-2.11V68.4A2.38,2.38,0,0,1,292,66.31l11.56,6.38A2.38,2.38,0,0,1,304.75,74.78Z" fill="#ff7f5c"/><path d="M285.74,64.41v10a2.38,2.38,0,0,1-3.49,2.11l-11.56-6.09a2.38,2.38,0,0,1-1.27-2.11V58A2.38,2.38,0,0,1,273,55.94l11.56,6.38A2.38,2.38,0,0,1,285.74,64.41Z" fill="#ff7f5c"/><path d="M266.73,53.83v10a2.38,2.38,0,0,1-3.49,2.11l-11.56-6.09a2.38,2.38,0,0,1-1.27-2.11V47.45a2.38,2.38,0,0,1,3.53-2.09l11.56,6.38A2.38,2.38,0,0,1,266.73,53.83Z" fill="#ff7f5c"/><path d="M306.36,97.2v10a2.38,2.38,0,0,1-3.49,2.11l-11.56-6.09A2.38,2.38,0,0,1,290,101.1V90.81a2.38,2.38,0,0,1,3.53-2.09l11.56,6.38A2.38,2.38,0,0,1,306.36,97.2Z" fill="#ff7f5c"/><path d="M285.74,85.44v10a2.38,2.38,0,0,1-3.49,2.11l-11.56-6.09a2.38,2.38,0,0,1-1.27-2.11V79.06A2.38,2.38,0,0,1,273,77l11.56,6.38A2.38,2.38,0,0,1,285.74,85.44Z" fill="#ff7f5c"/><path d="M263.18,72.82v10a2.38,2.38,0,0,1-3.49,2.11l-11.56-6.09a2.38,2.38,0,0,1-1.27-2.11V66.43a2.38,2.38,0,0,1,3.53-2.09l11.56,6.38A2.38,2.38,0,0,1,263.18,72.82Z" fill="#ff7f5c"/><ellipse cx="340.99" cy="105.2" rx="14.31" ry="25.09" transform="translate(-14.11 69.87) rotate(-11.46)" fill="#ff7f5c"/><path d="M328,112.09l13-6.89,2.15,24.68S333.71,129.17,328,112.09Z" fill="#68e1fd"/></svg>