<svg xmlns="http://www.w3.org/2000/svg" xmlns:xlink="http://www.w3.org/1999/xlink" viewBox="0 0 400 300"><defs><linearGradient id="linear-gradient" x1="-2761.7" y1="219.09" x2="-2855.38" y2="269.57" gradientTransform="matrix(-1, 0, 0, 1, -2614.4, 0)" gradientUnits="userSpaceOnUse"><stop offset="0" stop-color="#d4a397"/><stop offset="1" stop-color="#fff"/></linearGradient><linearGradient id="linear-gradient-2" x1="313.74" y1="178.76" x2="283.55" y2="202.71" gradientUnits="userSpaceOnUse"><stop offset="0" stop-color="#d46a00"/><stop offset="1" stop-color="#fff"/></linearGradient></defs><title>PP</title><g style="isolation:isolate"><g id="Layer_2" data-name="Layer 2"><path d="M189.35,289.4,16.85,187.45C11.36,184.37,6.65,179.3,12,176L185.13,76.21c2.6-1.61,6.54-2.66,9.18-1.13L375.38,180.17c5.49,3.19,6.48,12.1,1,15.29L212.09,289.24A22.94,22.94,0,0,1,189.35,289.4Z" fill="#f7ce21"/><path d="M229,273.27q-3.82,2.4-7.68,4.74l-51.83-36.42,23.81-16.76,53.51,36A188.66,188.66,0,0,1,229,273.27Z" fill="url(#linear-gradient)" style="mix-blend-mode:multiply"/><path d="M202.25,221.3c.47,4.13,1,8.29.36,12.42-.13.89-.25,1.86-.43,2.83l10.52-1.77V221.3Z" fill="#f7931e"/><path d="M213.13,231.62c-2.79,2-4.87,3.16-4.87,3.16-2.22,0-6.35.52-5.08-2.61a28.68,28.68,0,0,1-5.46,6.94c-2.4,2.24-16,9.43-10.31,13.23,4.21,2.82,24.86-8.58,25.44-11.62A53.45,53.45,0,0,0,213.13,231.62Z" fill="#56403d"/><path d="M182.9,213.18c.47,4.13,1,8.29.36,12.42-.13.89-.25,1.86-.43,2.83l10.52-1.77V213.18Z" fill="#f7931e"/><path d="M193.77,223.5c-2.79,2-4.87,3.16-4.87,3.16-2.22,0-6.35.52-5.08-2.61a28.68,28.68,0,0,1-5.46,6.94c-2.4,2.24-16,9.43-10.31,13.23,4.21,2.82,24.86-8.58,25.44-11.62A53.45,53.45,0,0,0,193.77,223.5Z" fill="#56403d"/><path d="M175,103.65c-.63,26.58-1.32,84.7,3.61,113.14,0,0,1.29,4.18,16.83,1.75l1,7.82s10.91,3.34,21.24-1.48c0,0,.87-64.89-6.83-115.22C198.14,112,186.61,109.07,175,103.65Z" fill="#68e1fd"/><polyline points="162.7 94.43 179.37 78.72 189.69 54.65 160.88 70.22" fill="#aed159"/><path d="M199.26,55.66s12.93,1.39,17.19,16.47c5,17.67,1.71,21.64-3.8,26.24" fill="#c3ea75"/><path d="M212.39,83.39c-.56-9-2.41-18.31-7.72-25.77a17.2,17.2,0,0,0-5.42-2c-3.13-.55-6.37-.74-9.57-1-8.55,2.31-12.06,12.07-13.52,21.2l.46.15-1.2,27.51a22,22,0,0,0,1.28,2c7.31,6.11,18.65,6.48,28,6.09a13.72,13.72,0,0,0,6.19-1.93,2.45,2.45,0,0,0,1.19-1.79,74.12,74.12,0,0,0,.53-9.49C212.67,93.39,212.7,88.38,212.39,83.39Z" fill="#c3ea75"/><path d="M201.9,50.81s1.61.87,2.19,3.84.73,3.73-.52,4.38-6.88,3.12-11.27,3-8.22-.47-8.74-2.26.38-5.29.38-5.29" fill="#311e69"/><path d="M181.89,41.49s.47,15.59,7.94,16.75,10.59-4.94,11.25-9.83-3.18-14.73-11.89-13.18C181.59,36.58,181.89,41.49,181.89,41.49Z" fill="#f7931e"/><path d="M179.38,39.43A2.7,2.7,0,0,0,182,43.12,4,4,0,0,0,185,41.52c.84-1.07,1.41-2.59,3-2.47a2.18,2.18,0,0,1,1.91,1.63,6.86,6.86,0,0,0,.32,1.78,1.83,1.83,0,0,0,2.31.67c1.35-.48,2.29-1.4,3.81-.7a2.76,2.76,0,0,1,1.5,3.16,4,4,0,0,0-.33.93c-.1.46.43.61.74.38a.48.48,0,0,0,.21-.22,3.85,3.85,0,0,0,.29-.81,1.16,1.16,0,0,1,.92-.58c1,0,.92,1,.59,1.69a3.76,3.76,0,0,1-2.68,2,.48.48,0,0,0-.14.88.44.44,0,0,0,0,.41,4.81,4.81,0,0,1,.42,2.93.5.5,0,0,0,.36.63.4.4,0,0,0,.61.25,12.81,12.81,0,0,0,3.92-3.77,20.64,20.64,0,0,0,2.93-12.47c-.32-4.21-3.2-9.65-8.34-8.17a1.75,1.75,0,0,1-.63.11,1.5,1.5,0,0,1-.48-.15,10.59,10.59,0,0,0-10.13.86A6.7,6.7,0,0,0,184,32.38a4.69,4.69,0,0,0-4.89.57c-1.76,1.6-.52,4.65.71,6.2A.47.47,0,0,0,179.38,39.43Zm8.49-1.28L188,38h.1a1.31,1.31,0,0,0,.31.08,1.52,1.52,0,0,1,.85.36A3.15,3.15,0,0,0,187.87,38.14Zm-8-.66a4.33,4.33,0,0,0,.32.42l-.05,0C180,37.81,179.91,37.65,179.82,37.48Z" fill="#935542"/><path d="M189.71,118.54q1.17,41.59,4.21,83.1.86,11.66,1.86,23.31c.06.67-1,.66-1,0q-3.57-41.45-5.27-83-.47-11.68-.8-23.37A.52.52,0,0,1,189.71,118.54Z" fill="#fff"/><path d="M183.37,87.57l-.93-.83a62.57,62.57,0,0,1,8.5-12.12c.52-.58,1.38.28.86.86A61.25,61.25,0,0,0,183.37,87.57Z" fill="#311e69"/><path d="M193.17,75q5.27,4,10.72,7.85a46.68,46.68,0,0,0-1.18-6.75.61.61,0,0,1,1.17-.32,48.47,48.47,0,0,1,1.3,8l2.28,1.57c.64.43,0,1.49-.61,1q-7.3-4.94-14.29-10.3C191.94,75.56,192.55,74.51,193.17,75Z" fill="#311e69"/><path d="M182.45,86.75s13.82,19.46,30.2,11.63l-.22,6.49S191.63,105.31,182.45,86.75Z" fill="#311e69"/><path d="M188.75,51.38a1.91,1.91,0,0,0-2.4-.23c-1,.85-.69,2.67-.08,3.66a2.32,2.32,0,0,0,2.32,1C190.81,55.38,190,52.39,188.75,51.38Z" fill="#42210b"/><path d="M166.5,71.31s1.63-7.52,1.7-8.16-2.34-8.09-.38-8.52,3.42,3.79,3.42,3.79,4.12-5.65,6.28-6.35,6.84,3,7.07,5.5S176.55,67,176.55,67l-4,7.39" fill="#f7931e"/><path d="M167.06,61.17s-20.41,30.89-7.51,35.4C171,100.56,177.7,65,177.7,65Z" fill="#c3ea75"/><path d="M171.55,72.3a2.6,2.6,0,0,1-1.2-2.71c.28-1.93,2.9-1,2.9-1s.21-2.66,2.15-2.74S184,70.22,184,70.22l-.13-3.12c.07-.55.42-.67,1.07-.47,1.77.54,2.06,3.15,2.15,4.7a4.64,4.64,0,0,1-.19,1.72c-.14.42-.54,1-.23,1.4s4,1.92,4,1.92l-.38.73q-.55.65-1.07,1.31a24.17,24.17,0,0,0-3.78,5.46l-3.23-1.24s-11.33-1.86-11.86-3.26a5.09,5.09,0,0,1,0-3l-.65-1.69C169,73,171.55,72.3,171.55,72.3Z" fill="#f7931e"/><path d="M182,71.81a58.86,58.86,0,0,1-8.74-3.62c-.29-.15-.47.32-.19.47a58.86,58.86,0,0,0,8.74,3.62C182.13,72.38,182.32,71.91,182,71.81Z" fill="#42210b"/><path d="M181.19,75.11a44.78,44.78,0,0,1-10.08-2.81.25.25,0,0,0-.19.47,45.37,45.37,0,0,0,10.22,2.84C181.46,75.66,181.52,75.16,181.19,75.11Z" fill="#42210b"/><path d="M179.42,78.21c-3-.56-6.27-.86-9.14-2a.25.25,0,0,0-.19.47c2.92,1.12,6.21,1.43,9.28,2C179.69,78.78,179.74,78.27,179.42,78.21Z" fill="#42210b"/><path d="M186.88,59.44a6.09,6.09,0,0,0-2.93,5.1.59.59,0,0,0,.63-.09,5.9,5.9,0,0,0,1.55-2.25,5.74,5.74,0,0,0,.82-2.52A.78.78,0,0,0,186.88,59.44Z" fill="#5ba5a5"/><path d="M188.53,60.89a2.46,2.46,0,0,0,.35,1.05.32.32,0,0,0,.15-.22,13.14,13.14,0,0,0,.21-1.74.33.33,0,0,0-.06-.22A1.15,1.15,0,0,0,188.53,60.89Z" fill="#5ba5a5"/><path d="M198.34,61.06s3.74,11.87,2.81,12.89-5.14,1.9-6,.92S192.3,62,192.3,62" fill="#311e69"/><path d="M192.94,45.34c-1-.19-2.54-.47-3-1.5-.29-.66-1.26-.09-1,.57.59,1.32,2.39,1.77,3.67,2C193.35,46.55,193.65,45.47,192.94,45.34Z" fill="#42210b"/><path d="M184.5,43.79a5.63,5.63,0,0,1-1.66,1.05c-.66.28-.09,1.25.57,1a6.47,6.47,0,0,0,1.89-1.23C185.82,44.09,185,43.3,184.5,43.79Z" fill="#42210b"/><path d="M192.5,47.4l-2-.23c-.72-.08-.71,1,0,1.12l2,.23C193.22,48.6,193.21,47.48,192.5,47.4Z" fill="#42210b"/><path d="M184.82,47l-1.23.51c-.66.27-.37,1.36.3,1.08l1.23-.51C185.78,47.83,185.49,46.74,184.82,47Z" fill="#42210b"/><path d="M187.78,48.9c-.16,0-.33,0-.38-.13s.11-.52.13-.63a13.36,13.36,0,0,1,.43-1.43c.24-.68-.84-1-1.08-.3A5.86,5.86,0,0,0,186.3,49c.14.72.85.92,1.48,1S188.5,49,187.78,48.9Z" fill="#42210b"/><path d="M181.79,53.77c-.16-.09-11.48,1.69-15.47,1.75s-8.52-.06-7.31,2.11,4-1,2.78,2.6-4.29,5.86-.73,6.4,3.69-3.5,5-1.45.79,4.77,3.5,1.93S186.45,56.55,181.79,53.77Z" fill="#ddd"/><path d="M173.3,57.21c-1.74.4-3.51.72-5.29,1-2,.27-3.87.3-5.77.51.32,2-1.74,4.63-2.63,5.92C164.06,62.52,168.83,59.11,173.3,57.21Z" fill="#9b9b9b"/><path d="M165.31,64.66s5.4-3.2,6.72-3.81,6.34-3.64,6.34-3.64l-11.82,8.66S166.35,64.65,165.31,64.66Z" fill="#9b9b9b"/><path d="M298.84,171.09l-34,20.17s1.08,13.51,27.1,24.45l39.14-24.36" fill="url(#linear-gradient-2)" style="mix-blend-mode:multiply"/><ellipse cx="317.18" cy="177.22" rx="20.57" ry="19.13" fill="#68e1fd"/><ellipse cx="317.17" cy="165.92" rx="15.41" ry="8.33" fill="#1d3f75"/><path d="M316.38,98.75V164.1a1.32,1.32,0,0,0,2.63,0V98.75A1.32,1.32,0,0,0,316.38,98.75Z" fill="#1c7377"/><path d="M322.56,96.32a6.32,6.32,0,0,0,.39-5c-.6-1.8-1.48-3.53-2.18-5.3s-1.34-3.31-2.11-4.93h0c-.78.39-6.29,8.7-6.52,12.19s4.36,6.41,4.36,6.41l1.38.88c.25.16,2.64-1.82,2.92-2.06A7.43,7.43,0,0,0,322.56,96.32Z" fill="#1c7377"/><path d="M318.45,115.35v0c5.83-.57,9.85-5.47,12.6-10.56C324.87,105.1,319.18,109,318.45,115.35Z" fill="#1c7377"/><path d="M318,115.13h0c-1.77-5.58-7.41-8.5-13-10.12C306.64,111,311.64,115.74,318,115.13Z" fill="#1c7377"/><path d="M317.68,131.4v0c7.41-.72,12.54-7,16-13.44C325.84,118.36,318.61,123.31,317.68,131.4Z" fill="#1c7377"/><path d="M317.1,131.12h0c-2.25-7.1-9.42-10.81-16.49-12.88C302.65,125.84,309,131.89,317.1,131.12Z" fill="#1c7377"/><path d="M318.25,150.22v0c8.45-.82,14.29-7.94,18.27-15.32C327.55,135.36,319.31,141,318.25,150.22Z" fill="#1c7377"/><path d="M317.59,149.9h0c-2.56-8.09-10.74-12.32-18.79-14.68C301.12,143.89,308.36,150.78,317.59,149.9Z" fill="#1c7377"/><polygon points="85.54 58.52 69.18 67.2 69.18 116.63 85.54 107.18 85.54 58.52" fill="#68e1fd"/><path d="M55,92.89s-.52,16.72,0,16.2,45-26,45-26V66Z" fill="#68e1fd"/></g></g></svg>