<svg xmlns="http://www.w3.org/2000/svg" xmlns:xlink="http://www.w3.org/1999/xlink" viewBox="0 0 400 300"><defs><linearGradient id="_ÂÁ_Ï_ÌÌ_È_ËÂÌÚ_78" x1="815.39" y1="83.96" x2="822.58" y2="83.96" gradientTransform="matrix(-1, 0, 0, 1, 1074.84, 0)" gradientUnits="userSpaceOnUse"><stop offset="0" stop-color="#f6f7f2"/><stop offset="0.25" stop-color="#fff"/><stop offset="0.29" stop-color="#fafaf9"/><stop offset="0.41" stop-color="#f0f0ed"/><stop offset="0.57" stop-color="#eaebe6"/><stop offset="1" stop-color="#e8e9e4"/></linearGradient><linearGradient id="_ÂÁ_Ï_ÌÌ_È_ËÂÌÚ_62" x1="814.78" y1="78.62" x2="823.2" y2="78.62" gradientTransform="matrix(-1, 0, 0, 1, 1074.84, 0)" gradientUnits="userSpaceOnUse"><stop offset="0" stop-color="#4d4d4d"/><stop offset="1" stop-color="#262626"/></linearGradient><linearGradient id="_ÂÁ_Ï_ÌÌ_È_ËÂÌÚ_64" x1="815.01" y1="78.46" x2="822.97" y2="78.46" gradientTransform="matrix(-1, 0, 0, 1, 1074.84, 0)" gradientUnits="userSpaceOnUse"><stop offset="0" stop-color="#484848"/><stop offset="1" stop-color="#212121"/></linearGradient><linearGradient id="_ÂÁ_Ï_ÌÌ_È_ËÂÌÚ_62-2" x1="814.78" y1="78.15" x2="823.2" y2="78.15" xlink:href="#_ÂÁ_Ï_ÌÌ_È_ËÂÌÚ_62"/><linearGradient id="_ÂÁ_Ï_ÌÌ_È_ËÂÌÚ_62-3" x1="815.05" y1="77.61" x2="822.93" y2="77.61" xlink:href="#_ÂÁ_Ï_ÌÌ_È_ËÂÌÚ_62"/><linearGradient id="_ÂÁ_Ï_ÌÌ_È_ËÂÌÚ_79" x1="815.96" y1="76.11" x2="822.02" y2="76.11" gradientTransform="matrix(-1, 0, 0, 1, 1074.84, 0)" gradientUnits="userSpaceOnUse"><stop offset="0" stop-color="#262626"/><stop offset="1" stop-color="#4d4d4d"/></linearGradient><linearGradient id="_ÂÁ_Ï_ÌÌ_È_ËÂÌÚ_60" x1="815.58" y1="84.8" x2="822.38" y2="84.8" gradientTransform="matrix(-1, 0, 0, 1, 1074.84, 0)" gradientUnits="userSpaceOnUse"><stop offset="0" stop-color="#bfa993"/><stop offset="0.24" stop-color="#cfb79f"/><stop offset="0.67" stop-color="#8b7b6b"/><stop offset="0.79" stop-color="#837465"/><stop offset="1" stop-color="#7a6c5e"/></linearGradient><linearGradient id="linear-gradient" x1="185.11" y1="193.49" x2="166.84" y2="218.41" gradientUnits="userSpaceOnUse"><stop offset="0" stop-color="#7f3500"/><stop offset="0.04" stop-color="#843d0a"/><stop offset="1" stop-color="#fff"/></linearGradient><linearGradient id="_ÂÁ_Ï_ÌÌ_È_ËÂÌÚ_78-2" x1="872.48" y1="106.25" x2="879.68" y2="106.25" xlink:href="#_ÂÁ_Ï_ÌÌ_È_ËÂÌÚ_78"/><linearGradient id="_ÂÁ_Ï_ÌÌ_È_ËÂÌÚ_62-4" x1="871.88" y1="100.9" x2="880.3" y2="100.9" xlink:href="#_ÂÁ_Ï_ÌÌ_È_ËÂÌÚ_62"/><linearGradient id="_ÂÁ_Ï_ÌÌ_È_ËÂÌÚ_64-2" x1="872.11" y1="100.74" x2="880.07" y2="100.74" xlink:href="#_ÂÁ_Ï_ÌÌ_È_ËÂÌÚ_64"/><linearGradient id="_ÂÁ_Ï_ÌÌ_È_ËÂÌÚ_62-5" x1="871.88" y1="100.43" x2="880.3" y2="100.43" xlink:href="#_ÂÁ_Ï_ÌÌ_È_ËÂÌÚ_62"/><linearGradient id="_ÂÁ_Ï_ÌÌ_È_ËÂÌÚ_62-6" x1="872.15" y1="99.9" x2="880.03" y2="99.9" xlink:href="#_ÂÁ_Ï_ÌÌ_È_ËÂÌÚ_62"/><linearGradient id="_ÂÁ_Ï_ÌÌ_È_ËÂÌÚ_79-2" x1="873.06" y1="98.39" x2="879.12" y2="98.39" xlink:href="#_ÂÁ_Ï_ÌÌ_È_ËÂÌÚ_79"/><linearGradient id="_ÂÁ_Ï_ÌÌ_È_ËÂÌÚ_60-2" x1="872.68" y1="107.08" x2="879.47" y2="107.08" xlink:href="#_ÂÁ_Ï_ÌÌ_È_ËÂÌÚ_60"/><linearGradient id="linear-gradient-2" x1="241.96" y1="190.11" x2="223.45" y2="215.35" xlink:href="#linear-gradient"/><linearGradient id="linear-gradient-3" x1="197.41" y1="178" x2="183.22" y2="197.35" xlink:href="#linear-gradient"/><linearGradient id="linear-gradient-4" x1="77.05" y1="207.19" x2="67.15" y2="217.78" xlink:href="#linear-gradient"/></defs><title>ZZ</title><g style="isolation:isolate"><g id="Layer_2" data-name="Layer 2"><path d="M252.26,78.59l.27,3.58.35,4.61.06.82a1.52,1.52,0,0,0,.86,1.25,4.34,4.34,0,0,0,4.09,0,1.56,1.56,0,0,0,.87-1.24l.07-.85.37-4.64.27-3.38Z" fill="url(#_ÂÁ_Ï_ÌÌ_È_ËÂÌÚ_78)"/><g style="mix-blend-mode:multiply"><path d="M252.54,82.16l.35,4.61a2.14,2.14,0,0,0,.75.75,4.54,4.54,0,0,0,4.42,0,2.15,2.15,0,0,0,.77-.77l.37-4.64a2.33,2.33,0,0,1-.89.93,5,5,0,0,1-4.9,0A2.34,2.34,0,0,1,252.54,82.16Z" fill="#cfcdcc"/></g><path d="M252.26,78.59l.14,1.79a3.45,3.45,0,0,0,.47.34,6.32,6.32,0,0,0,6,0,3.51,3.51,0,0,0,.51-.37l.13-1.61Z" fill="#cfcdcc" style="mix-blend-mode:multiply"/><path d="M253.32,80.2a5.2,5.2,0,0,0,5.06,0,1.77,1.77,0,0,0,.05-3.24,5.17,5.17,0,0,0-5.14,0A1.77,1.77,0,0,0,253.32,80.2Z" fill="#f4f5f0"/><path d="M251.66,78.42a2.32,2.32,0,0,1,1.23-1.59,6.32,6.32,0,0,1,5.95,0,2.27,2.27,0,0,1,1.21,1.61h0v.13s0,.07,0,.11v0a2.25,2.25,0,0,1-1.24,1.72,6.32,6.32,0,0,1-5.95,0,2.21,2.21,0,0,1-1.22-1.72h0v0s0,0,0-.06v-.2Z" fill="url(#_ÂÁ_Ï_ÌÌ_È_ËÂÌÚ_62)"/><path d="M252.87,80.18a6.32,6.32,0,0,0,5.95,0c1.65-1,1.66-2.6,0-3.59a6.32,6.32,0,0,0-5.95,0C251.24,77.58,251.23,79.19,252.87,80.18Z" fill="#767676"/><path d="M251.89,78.27a2.2,2.2,0,0,1,1.16-1.5,6,6,0,0,1,5.63,0,2.14,2.14,0,0,1,1.15,1.52h0v.13s0,.07,0,.1v0a2.13,2.13,0,0,1-1.17,1.62,6,6,0,0,1-5.63,0,2.09,2.09,0,0,1-1.15-1.62h0v0s0,0,0-.06v-.19Z" fill="url(#_ÂÁ_Ï_ÌÌ_È_ËÂÌÚ_64)"/><path d="M253,79.93a6,6,0,0,0,5.63,0c1.56-.94,1.57-2.46,0-3.4a6,6,0,0,0-5.63,0C251.49,77.48,251.48,79,253,79.93Z" fill="#f4f5f0"/><path d="M251.66,77.95a2.32,2.32,0,0,1,1.23-1.59,6.32,6.32,0,0,1,5.95,0A2.27,2.27,0,0,1,260.05,78h0v.13s0,.07,0,.11v0a2.25,2.25,0,0,1-1.24,1.72,6.32,6.32,0,0,1-5.95,0,2.21,2.21,0,0,1-1.22-1.72h0v0s0,0,0-.06v-.2Z" fill="url(#_ÂÁ_Ï_ÌÌ_È_ËÂÌÚ_62-2)"/><path d="M251.77,78.52a2.57,2.57,0,0,0,1.11,1.19,6.32,6.32,0,0,0,6,0c1.65-1,1.66-2.6,0-3.59a4.07,4.07,0,0,0-.42-.22,6.4,6.4,0,0,0-5.53.23A2,2,0,0,0,251.77,78.52Z" fill="#767676"/><path d="M251.77,78.52l1.14.69,5.51-3.33a6.4,6.4,0,0,0-5.53.23A2,2,0,0,0,251.77,78.52Z" fill="#999" style="mix-blend-mode:multiply"/><path d="M251.93,77.44h0v0l0-.11.09-.48h.11a2.64,2.64,0,0,1,.93-.89,5.92,5.92,0,0,1,5.57,0,2.69,2.69,0,0,1,.85.77h.16l.1.63a1.94,1.94,0,0,1-1.14,2,5.92,5.92,0,0,1-5.57,0A2,2,0,0,1,251.93,77.44Z" fill="url(#_ÂÁ_Ï_ÌÌ_È_ËÂÌÚ_62-3)"/><path d="M253.15,78.49a5.73,5.73,0,0,0,5.4,0c1.49-.9,1.5-2.36,0-3.26a5.73,5.73,0,0,0-5.39,0C251.67,76.13,251.66,77.59,253.15,78.49Z" fill="#767676"/><path id="_Path_" data-name="&lt;Path&gt;" d="M257.73,78.4l.18.11.07,0a.11.11,0,0,0,.12,0l.08,0,.51-.31.18-.11a0,0,0,0,0,0-.06l-.25-.15a.11.11,0,0,0-.12,0l-.77.47A0,0,0,0,0,257.73,78.4Z" fill="#414141"/><path id="_Path_2" data-name="&lt;Path&gt;" d="M257.73,78.4l.05,0,.72-.44a.11.11,0,0,1,.12,0l.2.12.05,0a0,0,0,0,0,0-.06l-.25-.15a.11.11,0,0,0-.12,0l-.77.47A0,0,0,0,0,257.73,78.4Z" fill="#373737"/><path d="M255.83,78.53a4.37,4.37,0,0,0,2.23-.55,1.43,1.43,0,0,0,.82-1.14,1.41,1.41,0,0,0-.81-1.12,4.32,4.32,0,0,0-2.2-.54,4.37,4.37,0,0,0-2.23.55,1.43,1.43,0,0,0-.82,1.14,1.41,1.41,0,0,0,.81,1.12A4.32,4.32,0,0,0,255.83,78.53Z" fill="#666"/><path d="M254.77,78.42a5,5,0,0,0,1.07.11,4.36,4.36,0,0,0,2.23-.55,1.43,1.43,0,0,0,.82-1.14,1.08,1.08,0,0,0-.31-.72Z" fill="#373737"/><path d="M258.07,76.07a4.32,4.32,0,0,0-2.2-.54,4.37,4.37,0,0,0-2.23.55,1.58,1.58,0,0,0-.81,1,.89.89,0,0,1,0-.18,1.43,1.43,0,0,1,.82-1.14,4.37,4.37,0,0,1,2.23-.55,4.32,4.32,0,0,1,2.2.54,1.41,1.41,0,0,1,.81,1.12.89.89,0,0,1,0,.18A1.55,1.55,0,0,0,258.07,76.07Z" fill="url(#_ÂÁ_Ï_ÌÌ_È_ËÂÌÚ_79)"/><path d="M252.47,81.81l.28,3.75.07.87a2,2,0,0,0,.82.88,4.54,4.54,0,0,0,4.42,0,2,2,0,0,0,.84-.91l.07-.84.3-3.82a2.21,2.21,0,0,1-1,1.1,5,5,0,0,1-4.9,0A2.22,2.22,0,0,1,252.47,81.81Z" fill="url(#_ÂÁ_Ï_ÌÌ_È_ËÂÌÚ_60)"/><path d="M258.64,77.48a1,1,0,0,0,.24-.64,1.22,1.22,0,0,0-.52-.92l0,.34A1.46,1.46,0,0,1,258.64,77.48Z" fill="#2a2a2a"/><path d="M201.56,285l149.21-88.19c4.75-2.67,8.83-7,4.19-9.92l-149.75-86.3c-2.25-1.39-5.66-2.3-7.94-1L40.64,190.49c-4.75,2.76-5.6,10.46-.85,13.22l142.1,81.12A19.84,19.84,0,0,0,201.56,285Z" fill="#86b555"/><polygon points="91.02 161.26 256.31 253.48 302.5 226.19 138.52 133.69 91.02 161.26" fill="#ffeacb"/><line x1="82.65" y1="166.96" x2="248.15" y2="258.3" fill="none" stroke="#fce4bb" stroke-miterlimit="10" stroke-width="3"/><line x1="144.83" y1="128.53" x2="310.34" y2="219.87" fill="none" stroke="#fce4bb" stroke-miterlimit="10" stroke-width="3"/><rect x="181.92" y="101.08" width="3.75" height="24.84" rx="1.87" ry="1.87" fill="#bc532a"/><path d="M193.05,106.16c-.86-3.75-4.7-20.27-11.51-15.41-3.49,2.49-4.47,6.38-5.87,10.18a30.31,30.31,0,0,0-2.17,9.84c-.11,6.87,6.88,7.71,12.23,7.69,3.09,0,7.49-1.84,8.21-5.18.43-2-.31-4.4-.74-6.38Z" fill="#2c9135"/><path d="M193.38,106.89l-.16-.73c-.76-3.32-3.86-16.62-9.27-16.29,1.61,7,4,14.42,2.71,21.6a16.41,16.41,0,0,1-2.86,6.95c.72,0,1.43,0,2.11,0,3.09,0,7.49-1.84,8.21-5.18C194.55,111.25,193.81,108.87,193.38,106.89Z" fill="#156819"/><rect x="209.6" y="117.84" width="3.75" height="24.84" rx="1.87" ry="1.87" fill="#bc532a"/><path d="M220.72,122.92c-.86-3.75-4.7-20.27-11.51-15.41-3.49,2.49-4.47,6.38-5.87,10.18a30.31,30.31,0,0,0-2.17,9.84c-.11,6.87,6.88,7.71,12.23,7.69,3.09,0,7.49-1.84,8.21-5.18.43-2-.31-4.4-.74-6.38Z" fill="#2c9135"/><path d="M221,123.65l-.16-.73c-.76-3.32-3.86-16.62-9.27-16.29,1.61,7,4,14.42,2.71,21.6a16.41,16.41,0,0,1-2.86,6.95c.72,0,1.43,0,2.11,0,3.09,0,7.49-1.84,8.21-5.18C222.22,128,221.48,125.63,221,123.65Z" fill="#156819"/><rect x="238.98" y="134.21" width="3.75" height="24.84" rx="1.87" ry="1.87" fill="#bc532a"/><path d="M250.11,139.29c-.86-3.75-4.7-20.27-11.51-15.41-3.49,2.49-4.47,6.38-5.87,10.18a30.31,30.31,0,0,0-2.17,9.84c-.11,6.87,6.88,7.71,12.23,7.69,3.09,0,7.49-1.84,8.21-5.18.43-2-.31-4.4-.74-6.38Z" fill="#2c9135"/><path d="M250.43,140l-.16-.73C249.5,136,246.41,122.68,241,123c1.61,7,4,14.42,2.71,21.6a16.41,16.41,0,0,1-2.86,6.95c.72,0,1.43,0,2.11,0,3.09,0,7.49-1.84,8.21-5.18C251.6,144.38,250.86,142,250.43,140Z" fill="#156819"/><rect x="265.97" y="150.17" width="3.75" height="24.84" rx="1.87" ry="1.87" fill="#bc532a"/><path d="M277.09,155.25c-.86-3.75-4.7-20.27-11.51-15.41-3.49,2.49-4.47,6.38-5.87,10.18a30.31,30.31,0,0,0-2.17,9.84c-.11,6.87,6.88,7.71,12.23,7.69,3.09,0,7.49-1.84,8.21-5.18.43-2-.31-4.4-.74-6.38Z" fill="#2c9135"/><path d="M277.42,156l-.16-.73c-.76-3.32-3.86-16.62-9.27-16.29,1.61,7,4,14.42,2.71,21.6a16.41,16.41,0,0,1-2.86,6.95c.72,0,1.43,0,2.11,0,3.09,0,7.49-1.84,8.21-5.18C278.59,160.34,277.85,158,277.42,156Z" fill="#156819"/><rect x="295.98" y="168.2" width="3.75" height="24.84" rx="1.87" ry="1.87" fill="#bc532a"/><path d="M307.1,173.28c-.86-3.75-4.7-20.27-11.51-15.41-3.49,2.49-4.47,6.38-5.87,10.18a30.31,30.31,0,0,0-2.17,9.84c-.11,6.87,6.88,7.71,12.23,7.69,3.09,0,7.49-1.84,8.21-5.18.43-2-.31-4.4-.74-6.38Z" fill="#2c9135"/><path d="M307.43,174l-.16-.73C306.5,170,303.41,156.67,298,157c1.61,7,4,14.42,2.71,21.6a16.41,16.41,0,0,1-2.86,6.95c.72,0,1.43,0,2.11,0,3.09,0,7.49-1.84,8.21-5.18C308.6,178.37,307.86,176,307.43,174Z" fill="#156819"/><rect x="323.02" y="181.69" width="3.75" height="24.84" rx="1.87" ry="1.87" fill="#bc532a"/><path d="M334.15,186.77c-.86-3.75-4.7-20.27-11.51-15.41-3.49,2.49-4.47,6.38-5.87,10.18a30.31,30.31,0,0,0-2.17,9.84c-.11,6.87,6.88,7.71,12.23,7.69,3.09,0,7.49-1.84,8.21-5.18.43-2-.31-4.4-.74-6.38Z" fill="#2c9135"/><path d="M334.47,187.5l-.16-.73c-.76-3.32-3.86-16.62-9.27-16.29,1.61,7,4,14.42,2.71,21.6a16.41,16.41,0,0,1-2.86,6.95c.72,0,1.43,0,2.11,0,3.09,0,7.49-1.84,8.21-5.18C335.64,191.86,334.9,189.48,334.47,187.5Z" fill="#156819"/><path d="M208.71,80.39c0-.27-2.31,2.45-2.78,4.93s.53,9.8,1.39,10.63,4.75,1.89,4.75,1.89" fill="#42210b"/><path d="M225.9,61.84c1.52,5.6,2.87,11.24,4.27,16.87a10.93,10.93,0,0,1,.48,4.34,10.38,10.38,0,0,1-2.79,4.88,97.05,97.05,0,0,1-10,10A6.93,6.93,0,0,1,215,99.64a7.18,7.18,0,0,1-3-.19,3.37,3.37,0,0,1-1.59-.63,3.33,3.33,0,0,1-.83-2.21c-.8-7.16-.76-14.39-1-21.59-.07-2.42-.14-4.93.84-7.14A10.18,10.18,0,0,1,214.55,63c3.69-1.72,7.31-3.47,11.6-4.31" fill="#42210b"/><path d="M249.83,83.13c2-1.08,3.07-3.14,4.91-4.4l.11-.09.15-.05a1.25,1.25,0,0,1,1.39,1.81,5.12,5.12,0,0,1-2.22,2.14,1.13,1.13,0,0,1-.73.55,24.55,24.55,0,0,0-3.3,1.14,1.27,1.27,0,0,1-1.68-.44,1.34,1.34,0,0,1-.12-.94A1.17,1.17,0,0,0,249.83,83.13Z" fill="#ffc4b0"/><path d="M249.73,86.76v0c.72-1.68,1.34-3.4,2-5.09.43-.43.83-.89,1.25-1.34a1.17,1.17,0,0,1,.28,0,1.14,1.14,0,0,1,1.07,1.5l-.15.4a1.28,1.28,0,0,1,0,1q-.77,1.64-1.55,3.28a6.19,6.19,0,0,1-.74,1.53l-.32.66c-.69,1.42-2.82.18-2.13-1.24Z" fill="#ffc4b0"/><path d="M251.47,78.83h0c-.8.39-1.58.77-2.34,1.07-2.94,1.16-7.13,1.67-9.06-1.42a9.38,9.38,0,0,1-.95-2.1,5.2,5.2,0,0,1-.17-.5c-1-3.63-2.09-7.69-4.31-10.69l-6.89,21.88c1.59,4.51,7.38,5.8,11.64,6a29.51,29.51,0,0,0,10.81-1.68C251.85,87.47,251.78,83,251.47,78.83Z" fill="#5780f6"/><path d="M235.7,71.13c.71,5.65,0,11.66,2.35,17a18.76,18.76,0,0,0,3,4.67l.21.23c-5-.11-7-.85-7-.85l.8-24.88c.15.45.47,1.5.89,2.93A1,1,0,0,0,235.7,71.13Z" fill="#42210b"/><path d="M258,85l.31-.15a1,1,0,0,1-.06-1.86l.73-.37a1.06,1.06,0,0,1-.73-1.05c.08-.81,1.65-1.69,2.35-1.2a1,1,0,0,1,.32,1.43l-.17.21a1.05,1.05,0,0,1,.22,1.92l-.13.07a1,1,0,0,1,0,1.82,14.5,14.5,0,0,1-1.88,1,1.06,1.06,0,0,1-1.39-.45A1,1,0,0,1,258,85Z" fill="#ffc4b0"/><path d="M242.4,178.33a37.47,37.47,0,0,0-.28,9.77c.1.7.2,1.46.34,2.22l-8.27-1.39v-10.6Z" fill="#ffc4b0"/><path d="M242.35,183.89c.52,2.92,2.1,7,3.62,8.45,1.89,1.76,12.57,7.42,8.11,10.41-3.31,2.22-21.08-6.68-21.53-9.07-.33-1.74.61-7.18,1.15-10C236.24,185.25,239.53,185,242.35,183.89Z" fill="#42210b"/><path d="M231.6,180.91c-.51-9.41-1.87-26.65-2.07-27.51-.29-1.2-4.91-19.16-4.91-19.16,1.3-6,2.43-12.13,3.22-18.25,1.42-.12-1.76-16.52-.38-16.81,2.87-.6,5.52-4.57,8.19-5.82,2.73,15.45,11.57,61,13.61,85.23C247.27,182.83,238,183.5,231.6,180.91Z" fill="#68e1fd"/><path d="M204.83,164.47c-2.09,2.31-4.41,7.61-5.86,10.26-.31.57-.67,1.19-1,1.82l-5.39-4.42L198,160Z" fill="#ffc4b0"/><path d="M194.41,167.58c1.52,2.22,4,3.61,6.41,3.19-.25,1.84-1,5.33-.21,6.57,1.21,1.84,9.89,9.44,5.32,11.29-3.4,1.38-15.45-9.26-15.27-11.41C190.8,175.7,193.36,170,194.41,167.58Z" fill="#42210b"/><path d="M208.55,171.36a.41.41,0,0,1-.49.15,38.49,38.49,0,0,1-8-4.27c-2.48-1.94-3.61-4-5.62-6.67l1-1.75c4.73-9.56,14.09-41.57,14.54-43.78.53-2.6,2.7-25.93,2.7-25.93L234,85.24s-.74,20.36-2.43,38.44a86.81,86.81,0,0,1-3,9.35c-4.77,12.61-10.91,27.64-20.09,38.32Z" fill="#68e1fd"/><path d="M212.12,118.46a41.61,41.61,0,0,1,.77-5.65,42.29,42.29,0,0,1,.49-6.48,62.66,62.66,0,0,1,7,.11c0,1.16,0,2.33.07,3.49q.4,1.28.72,2.58a1.15,1.15,0,0,1,.33.45,21.24,21.24,0,0,1,2,7,1.25,1.25,0,0,1-2.32.61q-.53-1.18-1-2.38,0,1.63,0,3.26a1.27,1.27,0,0,1-1.26,1.23,1.51,1.51,0,0,1-1.48-.86,1.47,1.47,0,0,1-1.72.51,2.11,2.11,0,0,1-1.07-1.23,1.62,1.62,0,0,1-1.47,0C212.16,120.6,212.06,119.48,212.12,118.46Z" fill="#ffc4b0"/><path d="M229,61.19a4.85,4.85,0,0,1-1-.42l-.64,0c-2.9,1.2-10.24,4.58-12.26,9-2.54,5.5-6.64,21.4-3.45,40.48.73,0,1.46,0,2.19,0,1.2-.05,2.4-.17,3.59-.33h0a46.18,46.18,0,0,0,5-1c-.48-4.6-1-10.94-.44-10.83s8.69-1,13.3-4.68l.46-2.16c.27-4.49.68-9,.94-13.45.17-2.87.27-5.75.21-8.62C235.3,65.49,233.09,62.34,229,61.19Z" fill="#5780f6"/><path d="M229.92,64.16a4.87,4.87,0,0,1-2.3.67c-2.59.14-4.13-2.61-5.13-4.58a17.59,17.59,0,0,1-2.13-7.51,4,4,0,0,1,.15-1.27c1-3,11.63-5.18,12.23.68C233.11,55.62,233.39,62.06,229.92,64.16Z" fill="#ffc4b0"/><path d="M221.62,55.93a2.6,2.6,0,0,1,2,.76,3.34,3.34,0,0,1,1,2,.7.7,0,0,1-.37.78.91.91,0,0,1-1.31.28A7.38,7.38,0,0,1,221.12,58C220.65,57.33,220.58,56.12,221.62,55.93Z" fill="#ffc4b0"/><path d="M217.69,48.73a4.48,4.48,0,0,1,2-3.13,4.93,4.93,0,0,1,4.08-.6,4.45,4.45,0,0,1,2.28-1.9A4.55,4.55,0,0,1,231,44.59a6.73,6.73,0,0,1,4.32,1,5.29,5.29,0,0,1,2.22,4.11,3.24,3.24,0,0,1,0,.72,4,4,0,0,1,0,1.26c-.55,2.9-3.07,3.61-4.6,3.76.24-1.57,0-4.6-1.82-3.8a.7.7,0,0,0-.3.07c-1.14.54-.19,2.12-1.85,2.33s-2.59-1-4.11.45,1.81,3.14-1.71,5.86a5.7,5.7,0,0,1-.07.59c0-.23-1.39-1.51-1.6-1.75-.57-.66-1.11-1.35-1.63-2.05a13.45,13.45,0,0,1-2.2-3.86A9.64,9.64,0,0,1,217.69,48.73Z" fill="#333"/><path d="M222,58c-.16-1,.64-1.62,1.47-1.18a4.24,4.24,0,0,1,2.05,3.47,1,1,0,0,1-.29.76.94.94,0,0,1-.14.21,1,1,0,0,1-1.42-.07A5.53,5.53,0,0,1,222,58Z" fill="#ffc4b0"/><path d="M231,56.58c.33-.06,3.49-1.21,3.49-1.21s.12,3.14-1.55,3.85S231,56.58,231,56.58Z" fill="none" stroke="#333" stroke-miterlimit="10" stroke-width="0.75"/><path d="M229.4,57.1l-3.69,1.26s0,3.12,2.42,2.6S229.4,57.1,229.4,57.1Z" fill="none" stroke="#333" stroke-miterlimit="10" stroke-width="0.75"/><path d="M224,56.67l1.75,1.54c.22.19-.11.51-.33.32L223.68,57C223.46,56.8,223.79,56.48,224,56.67Z" fill="#333"/><path d="M230.71,61c.29,0,.7-.11.7-.46a2.16,2.16,0,0,0-.25-.62c-.17-.39-.36-.77-.56-1.14a.23.23,0,0,1,.4-.22c.2.37.39.75.56,1.14a2.62,2.62,0,0,1,.34,1c0,.54-.77.75-1.2.79S230.42,61,230.71,61Z" fill="#333"/><path d="M229.25,56.91a16.28,16.28,0,0,0,1.94-.53c.28-.09.38.35.11.44a16.28,16.28,0,0,1-1.94.53C229.07,57.41,229,57,229.25,56.91Z" fill="#333"/><path d="M226.37,138.92s3.57-12.56,5.57-19L230.15,158S228.13,143.86,226.37,138.92Z" fill="#42210b"/><path d="M217.09,65.16s6.91,3.21,3,24.11c0,0,6.21-10.66,5.87-17s-3.24-10.15-4.72-10.55S216.25,63.69,217.09,65.16Z" fill="#42210b"/><path d="M79.83,204.53V56.3h3.6V204.53" fill="#42210b"/><ellipse cx="81.28" cy="150.52" rx="7.62" ry="3.56" fill="#42210b"/><circle cx="81.63" cy="51.35" r="16.3" fill="#fcc000"/><path d="M73.66,150.52c0-.08-8.18,54-8.18,54s3.5,5.25,15.8,6,17.67-6,17.67-7.64-10-52.37-10-52.37" fill="#42210b"/><path d="M95.05,49a17.69,17.69,0,0,0-5.8-9.83c-1.94-1.67-4.79,1.15-2.83,2.83a14.19,14.19,0,0,1,4.77,8.06C91.72,52.58,95.58,51.51,95.05,49Z" fill="#fff"/><path d="M92.81,53.41a2,2,0,0,0-2,2v.14a2,2,0,0,0,4,0v-.14A2,2,0,0,0,92.81,53.41Z" fill="#fff"/><rect x="107.63" y="198.96" width="3.75" height="24.84" rx="1.87" ry="1.87" fill="#bc532a"/><path d="M118.76,204c-.86-3.75-4.7-20.27-11.51-15.41-3.49,2.49-4.47,6.38-5.87,10.18a30.31,30.31,0,0,0-2.17,9.84c-.11,6.87,6.88,7.71,12.23,7.69,3.09,0,7.49-1.84,8.21-5.18.43-2-.31-4.4-.74-6.38Z" fill="#2c9135"/><path d="M119.08,204.77l-.16-.73c-.76-3.32-3.86-16.62-9.27-16.29,1.61,7,4,14.42,2.71,21.6a16.41,16.41,0,0,1-2.86,6.95c.72,0,1.43,0,2.11,0,3.09,0,7.49-1.84,8.21-5.18C120.25,209.14,119.51,206.75,119.08,204.77Z" fill="#156819"/><rect x="135.3" y="215.72" width="3.75" height="24.84" rx="1.87" ry="1.87" fill="#bc532a"/><path d="M146.43,220.81c-.86-3.75-4.7-20.27-11.51-15.41-3.49,2.49-4.47,6.38-5.87,10.18a30.31,30.31,0,0,0-2.17,9.84c-.11,6.87,6.88,7.71,12.23,7.69,3.09,0,7.49-1.84,8.21-5.18.43-2-.31-4.4-.74-6.38Z" fill="#2c9135"/><path d="M146.75,221.53l-.16-.73c-.76-3.32-3.86-16.62-9.27-16.29,1.61,7,4,14.42,2.71,21.6a16.41,16.41,0,0,1-2.86,6.95c.72,0,1.43,0,2.11,0,3.09,0,7.49-1.84,8.21-5.18C147.93,225.9,147.18,223.51,146.75,221.53Z" fill="#156819"/><rect x="164.68" y="232.09" width="3.75" height="24.84" rx="1.87" ry="1.87" fill="#bc532a"/><path d="M175.81,237.18c-.86-3.75-4.7-20.27-11.51-15.41-3.49,2.49-4.47,6.38-5.87,10.18a30.31,30.31,0,0,0-2.17,9.84c-.11,6.87,6.88,7.71,12.23,7.69,3.09,0,7.49-1.84,8.21-5.18.43-2-.31-4.4-.74-6.38Z" fill="#2c9135"/><path d="M176.14,237.9l-.16-.73c-.76-3.32-3.86-16.62-9.27-16.29,1.61,7,4,14.42,2.71,21.6a16.41,16.41,0,0,1-2.86,6.95c.72,0,1.43,0,2.11,0,3.09,0,7.49-1.84,8.21-5.18C177.31,242.27,176.57,239.88,176.14,237.9Z" fill="#156819"/><rect x="191.67" y="248.05" width="3.75" height="24.84" rx="1.87" ry="1.87" fill="#bc532a"/><path d="M202.8,253.13c-.86-3.75-4.7-20.27-11.51-15.41-3.49,2.49-4.47,6.38-5.87,10.18a30.31,30.31,0,0,0-2.17,9.84c-.11,6.87,6.88,7.71,12.23,7.69,3.09,0,7.49-1.84,8.21-5.18.43-2-.31-4.4-.74-6.38Z" fill="#2c9135"/><path d="M203.13,253.86l-.16-.73c-.76-3.32-3.86-16.62-9.27-16.29,1.61,7,4,14.42,2.71,21.6a16.41,16.41,0,0,1-2.86,6.95c.72,0,1.43,0,2.11,0,3.09,0,7.49-1.84,8.21-5.18C204.3,258.22,203.56,255.84,203.13,253.86Z" fill="#156819"/><path d="M153.79,211.73c3.42,2.45,6.68,5.13,10,7.66s12.93,9.9,16.3,12.26c1.1-.6,2.7-2.19,3.78-2.84,6.37-3.86,9.25-9.36,15.31-13.67-6.35-6.61-19.83-24.86-24.25-28.08-6.19,5.28-21.69,13.73-29.34,19.37C148.29,208.29,151.16,209.85,153.79,211.73Z" opacity="0.46" fill="url(#linear-gradient)" style="mix-blend-mode:multiply"/><path d="M195.91,102.48a36.92,36.92,0,0,1-5.07-3.54c-1.72,2.9-.46,8,0,11.43.29-.21,1.74.36,2.07.26s.82-.29,1.22-.44,1.1-.39,1.64-.62a15.88,15.88,0,0,0,3.38-2,.89.89,0,0,0,.32-.36,1,1,0,0,0,0-.54,13.4,13.4,0,0,1-.19-2.7,1.35,1.35,0,0,0-.07-.59c-.2-.45-1.13-.3-1.54-.4A10.93,10.93,0,0,1,195.91,102.48Z" fill="#e6f1ff"/><path d="M189.63,72.2c.84,1.95,1.26,4.05,2.47,5.82,2.3,3.33,6.69,9.09,4.28,13.37-1,1.77-2.93,2.08-4.76,2.37l-6.76-15.84" fill="#ff6a26"/><path d="M187.35,151.65l.12-.21c4.33-9.65,4.87-21,4.74-31.48-1,.2-6.4-3.27-6.79-2.25-.48,1.25-1.81,4.05-2.91,4.76s4.6,9,3.88,10.07c-.91,1.4-1.32,3.52-1.88,5.11-.5,1.4-1,2.81-1.49,4.21-.78,2.2-1.57,4.41-2.35,6.61s-2.2,6.69-.35,8.7a3.45,3.45,0,0,0,1.94,1.06,1.51,1.51,0,0,0,1.13-.16,2.21,2.21,0,0,0,.56-.69Z" fill="#373737"/><path d="M184.69,199.35a6.36,6.36,0,0,0,2.94-1.17c2.08-1.62,1.53-3.65.28-5.35a13.38,13.38,0,0,1-2.67-1.66c-4.35-3.47-7.28-10.41-7.28-10.41l-7.76-1.59-1.24,12,3.24,1.19.71-3.67,1.62,5.37S181.14,198.07,184.69,199.35Z" fill="#17a5a3"/><path d="M195.84,217.45a5.14,5.14,0,0,0,2.37-.94c1.68-1.31,1.23-2.95.23-4.32a10.81,10.81,0,0,1-2.16-1.34c-3.51-2.8-5.88-8.41-5.88-8.41l-6.27-1.29-1,9.7,2.61,1,.57-3,1.31,4.34A66.24,66.24,0,0,0,195.84,217.45Z" fill="#17a5a3"/><path d="M181.86,167.32a12.42,12.42,0,0,0-.74-2.74c-1.59-4.53-3-9.14-4.14-13.79l0,.1c-4.55,9-6.09,18.92-7.55,28.8a40.45,40.45,0,0,0,5.56,2.25,37.5,37.5,0,0,0,3.87,1.11c.18-.51.36-1,.51-1.53.57-1.81,1-3.68,1.37-5.54s.77-3.82,1-5.76A11.51,11.51,0,0,0,181.86,167.32Z" fill="#373737"/><path d="M189.58,123.19c-.55,1.1-3.29-2.41-4.51-2.26-4.09.49-6.81,1.77-10.17-.69-.65-.47-2.29-.77-2.77-1.38-4.4,11.94-3.31,31,2.54,42a28.88,28.88,0,0,1,2.53,6.75c1.85,7.56,1.23,15.71,2.47,23.37.73,4.52,2,9,2.82,13.48,2.93.32,7.16-.5,8.33-2.85a2.92,2.92,0,0,0-.15-.45,20,20,0,0,1-1-3.3c-.94-3.81-.94-23.76-.62-28.58.29-4.4-1-8.75-1.87-13-1.23-6.07-2.32-12.48-1.16-18.64" fill="#4d4d4d"/><path d="M192,111.1a59.83,59.83,0,0,1-.16-6.69c.22-4.86.69-9.72.82-14.58a12.62,12.62,0,0,0-.25-4c-.7-2.3-2.77-2.81-4.55-4-1.13-.79-1.8-.69-3.17-.48a38.54,38.54,0,0,0-4.49,1,39.56,39.56,0,0,0-8.44,3.47,12.76,12.76,0,0,0-3.41,2.53,6.08,6.08,0,0,0-1.58,3.38,5,5,0,0,1,.41.94c2.58,8.06,7.86,20.31,3.78,28.9.22.23.44.46.67.68a12.78,12.78,0,0,0,4.38,2.58c.34.13.69.24,1,.34a21.27,21.27,0,0,0,6.07.72,10.7,10.7,0,0,0,6.15-1.51,10.28,10.28,0,0,0,1.65-1.5l.33-.38a5.79,5.79,0,0,0,.89-1.37,6.63,6.63,0,0,0,.23-2.86C192.34,115.83,192.14,113.47,192,111.1Z" fill="#68e1fd"/><path d="M176.42,84.15l0,.19a5.8,5.8,0,0,0,1,2.7,4.89,4.89,0,0,0,1.82,1.4,7.18,7.18,0,0,0,1.23.47c.23.07.47.13.71.18a6.37,6.37,0,0,0,1,.15,1.57,1.57,0,0,1,.79.12,2.07,2.07,0,0,1,.55.5l.1.13a27.76,27.76,0,0,1,2.18,3q.49.78.94,1.59c.14.28.29.54.43.82a3.64,3.64,0,0,1,.19.4c0,.07.07.16.11.24a.69.69,0,0,1,.08.2c0-.18,0-.37,0-.56s0-.22,0-.34a8.26,8.26,0,0,1,.11-.88c.08-.62.15-1.25.2-1.89a21.19,21.19,0,0,0,0-4.09,27.25,27.25,0,0,0-.86-4.31,16.57,16.57,0,0,1-.45-2c-.06-.47,0-1.12-.37-1.42s-1.33-13-2-8c-.23,1.62-2.09,5.93-3.39,4.91a17.83,17.83,0,0,1-2.58-2.5,15.9,15.9,0,0,0-.54,3.46,4.82,4.82,0,0,1-.85,2.85A3.57,3.57,0,0,0,176.42,84.15Z" fill="#ffdfcc"/><path d="M188.81,65.86c.4,1.07,2.48,12.7-2.15,13.6s-9.31-3.53-9.31-3.53a5.27,5.27,0,0,1,.73-7.1C181.63,65.25,188.81,65.86,188.81,65.86Z" fill="#ffcfb3"/><path d="M196.53,103.47a4.67,4.67,0,0,1,1.59-1.17q.55-.28,1.1-.54a8.28,8.28,0,0,1,1.38-.52,1.72,1.72,0,0,1,1.49.16,1.63,1.63,0,0,1,.54,1.15,10.84,10.84,0,0,1,0,1.32,10.24,10.24,0,0,0,.54,2.92,2.64,2.64,0,0,1-.07,1.56,1.92,1.92,0,0,1-.95.89,3.11,3.11,0,0,1-.58.2,6.09,6.09,0,0,1-.68.12,6.34,6.34,0,0,1-3.71-.48,2,2,0,0,1-.95-2.15.62.62,0,0,0,0-.21.64.64,0,0,0-.1-.19A2.73,2.73,0,0,1,196.53,103.47Z" fill="#ffbf99"/><path d="M195.17,100.87l.27,3.58.35,4.61.06.82a1.52,1.52,0,0,0,.86,1.25,4.34,4.34,0,0,0,4.09,0,1.56,1.56,0,0,0,.87-1.24l.07-.85.37-4.64.27-3.38Z" fill="url(#_ÂÁ_Ï_ÌÌ_È_ËÂÌÚ_78-2)"/><g style="mix-blend-mode:multiply"><path d="M195.44,104.45l.35,4.61a2.14,2.14,0,0,0,.75.75,4.54,4.54,0,0,0,4.42,0,2.15,2.15,0,0,0,.77-.77l.37-4.64a2.33,2.33,0,0,1-.89.93,5,5,0,0,1-4.9,0A2.34,2.34,0,0,1,195.44,104.45Z" fill="#cfcdcc"/></g><path d="M195.17,100.87l.14,1.79a3.45,3.45,0,0,0,.47.34,6.32,6.32,0,0,0,6,0,3.51,3.51,0,0,0,.51-.37l.13-1.61Z" fill="#cfcdcc" style="mix-blend-mode:multiply"/><path d="M196.22,102.48a5.2,5.2,0,0,0,5.06,0,1.77,1.77,0,0,0,.05-3.24,5.17,5.17,0,0,0-5.14,0A1.77,1.77,0,0,0,196.22,102.48Z" fill="#f4f5f0"/><path d="M194.56,100.7a2.32,2.32,0,0,1,1.23-1.59,6.32,6.32,0,0,1,5.95,0,2.27,2.27,0,0,1,1.21,1.61h0v.13s0,.07,0,.11v0a2.25,2.25,0,0,1-1.24,1.72,6.32,6.32,0,0,1-5.95,0,2.21,2.21,0,0,1-1.22-1.72h0v0s0,0,0-.06v-.2Z" fill="url(#_ÂÁ_Ï_ÌÌ_È_ËÂÌÚ_62-4)"/><path d="M195.77,102.46a6.32,6.32,0,0,0,5.95,0c1.65-1,1.66-2.6,0-3.59a6.32,6.32,0,0,0-5.95,0C194.14,99.86,194.13,101.47,195.77,102.46Z" fill="#767676"/><path d="M194.79,100.56a2.2,2.2,0,0,1,1.16-1.5,6,6,0,0,1,5.63,0,2.14,2.14,0,0,1,1.15,1.52h0v.13s0,.07,0,.1v0a2.13,2.13,0,0,1-1.17,1.62,6,6,0,0,1-5.63,0,2.09,2.09,0,0,1-1.15-1.62h0v0s0,0,0-.06v-.19Z" fill="url(#_ÂÁ_Ï_ÌÌ_È_ËÂÌÚ_64-2)"/><path d="M195.93,102.22a6,6,0,0,0,5.63,0c1.56-.94,1.57-2.46,0-3.4a6,6,0,0,0-5.63,0C194.39,99.76,194.38,101.28,195.93,102.22Z" fill="#f4f5f0"/><path d="M194.56,100.23a2.32,2.32,0,0,1,1.23-1.59,6.32,6.32,0,0,1,5.95,0,2.27,2.27,0,0,1,1.21,1.61h0v.13s0,.07,0,.11v0a2.25,2.25,0,0,1-1.24,1.72,6.32,6.32,0,0,1-5.95,0,2.21,2.21,0,0,1-1.22-1.72h0v0s0,0,0-.06v-.2Z" fill="url(#_ÂÁ_Ï_ÌÌ_È_ËÂÌÚ_62-5)"/><path d="M194.67,100.8a2.57,2.57,0,0,0,1.11,1.19,6.32,6.32,0,0,0,6,0c1.65-1,1.66-2.6,0-3.59a4.07,4.07,0,0,0-.42-.22,6.4,6.4,0,0,0-5.53.23A2,2,0,0,0,194.67,100.8Z" fill="#767676"/><path d="M194.67,100.8l1.14.69,5.51-3.33a6.4,6.4,0,0,0-5.53.23A2,2,0,0,0,194.67,100.8Z" fill="#999" style="mix-blend-mode:multiply"/><path d="M194.83,99.73h0v0l0-.11.09-.48H195a2.64,2.64,0,0,1,.93-.89,5.92,5.92,0,0,1,5.57,0,2.69,2.69,0,0,1,.85.77h.16l.1.63a1.94,1.94,0,0,1-1.14,2,5.92,5.92,0,0,1-5.57,0A2,2,0,0,1,194.83,99.73Z" fill="url(#_ÂÁ_Ï_ÌÌ_È_ËÂÌÚ_62-6)"/><path d="M196,100.77a5.73,5.73,0,0,0,5.4,0c1.49-.9,1.5-2.36,0-3.26a5.73,5.73,0,0,0-5.39,0C194.57,98.42,194.56,99.87,196,100.77Z" fill="#767676"/><path id="_Path_3" data-name="&lt;Path&gt;" d="M200.63,100.68l.18.11.07,0a.11.11,0,0,0,.12,0l.08,0,.51-.31.18-.11a0,0,0,0,0,0-.06l-.25-.15a.11.11,0,0,0-.12,0l-.77.47A0,0,0,0,0,200.63,100.68Z" fill="#414141"/><path id="_Path_4" data-name="&lt;Path&gt;" d="M200.63,100.68l.05,0,.72-.44a.11.11,0,0,1,.12,0l.2.12.05,0a0,0,0,0,0,0-.06l-.25-.15a.11.11,0,0,0-.12,0l-.77.47A0,0,0,0,0,200.63,100.68Z" fill="#373737"/><path d="M198.73,100.82a4.37,4.37,0,0,0,2.23-.55,1.43,1.43,0,0,0,.82-1.14A1.41,1.41,0,0,0,201,98a4.32,4.32,0,0,0-2.2-.54,4.37,4.37,0,0,0-2.23.55,1.43,1.43,0,0,0-.82,1.14,1.41,1.41,0,0,0,.81,1.12A4.32,4.32,0,0,0,198.73,100.82Z" fill="#666"/><path d="M197.67,100.7a5,5,0,0,0,1.07.11,4.36,4.36,0,0,0,2.23-.55,1.43,1.43,0,0,0,.82-1.14,1.08,1.08,0,0,0-.31-.72Z" fill="#373737"/><path d="M201,98.36a4.32,4.32,0,0,0-2.2-.54,4.37,4.37,0,0,0-2.23.55,1.58,1.58,0,0,0-.81,1,.89.89,0,0,1,0-.18,1.43,1.43,0,0,1,.82-1.14,4.37,4.37,0,0,1,2.23-.55A4.32,4.32,0,0,1,201,98a1.41,1.41,0,0,1,.81,1.12.89.89,0,0,1,0,.18A1.55,1.55,0,0,0,201,98.36Z" fill="url(#_ÂÁ_Ï_ÌÌ_È_ËÂÌÚ_79-2)"/><path d="M195.37,104.09l.28,3.75.07.87a2,2,0,0,0,.82.88,4.54,4.54,0,0,0,4.42,0,2,2,0,0,0,.84-.91l.07-.84.3-3.82a2.21,2.21,0,0,1-1,1.1,5,5,0,0,1-4.9,0A2.22,2.22,0,0,1,195.37,104.09Z" fill="url(#_ÂÁ_Ï_ÌÌ_È_ËÂÌÚ_60-2)"/><path d="M201.54,99.77a1,1,0,0,0,.24-.64,1.22,1.22,0,0,0-.52-.92l0,.34A1.46,1.46,0,0,1,201.54,99.77Z" fill="#2a2a2a"/><path d="M191.59,88.41c-.06.19-.23.2-.42.31A3.49,3.49,0,0,0,190,89.94a16.62,16.62,0,0,0-1.26,3q-.3.83-.63,1.66l-.32.8c-.06.14-.34.61-.3.75a4.82,4.82,0,0,1-.11-1.19,37.29,37.29,0,0,1,.26-4.55,6.68,6.68,0,0,1,.52-2.15c.46-1,1.35-1.7,1.54-2.76a2.39,2.39,0,0,1,.25-1,.2.2,0,0,1,.13-.1.21.21,0,0,1,.15.08,4.54,4.54,0,0,1,1.36,3,5.5,5.5,0,0,1,0,.8A.42.42,0,0,1,191.59,88.41Z" fill="#b3d5ff"/><path d="M185.16,93.08a3.25,3.25,0,0,0-2.53-.62,3.43,3.43,0,0,0-2,1.14,24.38,24.38,0,0,1-2.08-2A10.67,10.67,0,0,1,175.92,83c0,.13.23.47.29.57a4.57,4.57,0,0,0,.39.55,4.45,4.45,0,0,0,1,.89c.37.24.65.55,1,.83a15.26,15.26,0,0,0,1.32.93,30.32,30.32,0,0,1,4.74,3.15A8.6,8.6,0,0,1,187.51,96c0,.05,0,.1,0,.16A9.26,9.26,0,0,0,185.16,93.08Z" fill="#b3d5ff"/><path d="M176.42,84.15l0,.19a12.38,12.38,0,0,0,1,1.46,21.74,21.74,0,0,0,3.07,3.1c.23.07.47.13.71.18a6.37,6.37,0,0,0,1,.15,1.57,1.57,0,0,1,.79.12,2.07,2.07,0,0,1,.55.5l.1.13a27.76,27.76,0,0,1,2.18,3q.49.78.94,1.59c.14.28.29.54.43.82a3.64,3.64,0,0,1,.19.4c0,.07.07.16.11.24a.69.69,0,0,1,.08.2c0-.18,0-.37,0-.56a16.19,16.19,0,0,0-1.73-5.51c-1.21-2.38-2.75-4.54-4-6.89a7.13,7.13,0,0,1-1-3.22,21,21,0,0,0,0-2.4,17.83,17.83,0,0,1-2.58-2.5,15.9,15.9,0,0,0-.54,3.46,4.82,4.82,0,0,1-.85,2.85A3.57,3.57,0,0,0,176.42,84.15Z" fill="#ffcfb3"/><path d="M189.59,88.13a1.68,1.68,0,0,1,1.88-.47,10.37,10.37,0,0,0-1.4-4.14,5.31,5.31,0,0,0-1-1.25,22.76,22.76,0,0,0-2.87-1.82.9.9,0,0,0-.39-.17,11.15,11.15,0,0,1,.84,3.27q.18,1.71.32,3.42.11,1.36.19,2.72c0,.79,0,1.58.06,2.36q.13,2.14.4,4.26a9.8,9.8,0,0,1,.37-2.68,32.58,32.58,0,0,1,.61-3.32,4.91,4.91,0,0,1,.89-2.08Z" fill="#e6f1ff"/><path d="M182.18,91q-.71.68-1.35,1.42c-1.19-1.51-2.39-3-3.5-4.58a10.5,10.5,0,0,1-2-4.12,5.19,5.19,0,0,1,.28-2.71,6.8,6.8,0,0,1,.62-1.25,3.43,3.43,0,0,1,.8-1,.83.83,0,0,1,.66-.14q-.09.75-.21,1.5a3.8,3.8,0,0,0-.12,1.19,4.3,4.3,0,0,0,1,2.06c1.49,1.84,3.18,3.48,4.74,5.26a25.14,25.14,0,0,1,2.63,3.49,22.64,22.64,0,0,1,1.84,4.12q-.76-1.32-1.58-2.61a11.87,11.87,0,0,0-1.47-1.93,5.11,5.11,0,0,0-1.2-.94C182.84,90.55,182.64,90.6,182.18,91Z" fill="#e6f1ff"/><path d="M160.79,138a8.13,8.13,0,0,0,.6,3.08,3.45,3.45,0,0,0,.93,1.68,4.23,4.23,0,0,1,.33.28,2.27,2.27,0,0,1,.32.53,6.46,6.46,0,0,0,.85,1.3,2,2,0,0,0,1.8.89l.06,0a.24.24,0,0,0,.11-.06.42.42,0,0,0,.08-.15,1.12,1.12,0,0,0-.24-.88,3.93,3.93,0,0,1-.51-.78,2.33,2.33,0,0,1-.08-1.12c0-.44.1-.88.17-1.32a6.61,6.61,0,0,1,.18-.74c.06-.14.13-.28.2-.4s.14-.23.26-.19.12.26.13.4l0,.49a11.64,11.64,0,0,0,.1,1.2,3.63,3.63,0,0,0,.74,1.8.58.58,0,0,0,.19.17.45.45,0,0,0,.53-.12,1.1,1.1,0,0,0,.25-.54,5,5,0,0,0,0-1.64c-.12-1.06-.24-2.12-.37-3.19a15.14,15.14,0,0,0-.79-3,2,2,0,0,0-.1-.26,15.13,15.13,0,0,1-.6-1.46c-.12-.41-.12-.88-.24-1.27,0,.18-.6.36-.71.36a8.28,8.28,0,0,1-1.35-.13,3.14,3.14,0,0,1-1.48-.64c-.36,1.42-.74,2.84-1.1,4.26A8.16,8.16,0,0,0,160.79,138Z" fill="#ffdfcc"/><path d="M160.79,138a8.13,8.13,0,0,0,.6,3.08,3.45,3.45,0,0,0,.93,1.68,4.23,4.23,0,0,1,.33.28,2.27,2.27,0,0,1,.32.53,6.46,6.46,0,0,0,.85,1.3,2,2,0,0,0,1.8.89l.06,0a8.09,8.09,0,0,1-1.57-1.63,10.06,10.06,0,0,1-.78-1.51,15.31,15.31,0,0,1-.86-2.31,7.56,7.56,0,0,1-.07-3.34.74.74,0,0,1,.14-.37c.17-.19.46-.16.71-.14a4.27,4.27,0,0,0,3.3-1,15.13,15.13,0,0,1-.6-1.46c-.12-.41-.12-.88-.24-1.27,0,.18-.6.36-.71.36a8.28,8.28,0,0,1-1.35-.13,3.14,3.14,0,0,1-1.48-.64c-.36,1.42-.74,2.84-1.1,4.26A8.16,8.16,0,0,0,160.79,138Z" fill="#ffcfb3"/><path d="M169.23,116.1A144.67,144.67,0,0,1,174,98.49c.85-2.5,2.13-5,.52-7.47A7.53,7.53,0,0,0,171,87.9c-4.09-1.26-5.28,5.93-6.07,8.53a93.73,93.73,0,0,0-3.16,14.92c-.22,1.86-.45,3.74-.52,5.62s-.15,4-.07,6c.07,1.74.43,8.46.43,10.08a1.84,1.84,0,0,0,.11.62.71.71,0,0,0,.14.2,1.24,1.24,0,0,0,.29.28,4.48,4.48,0,0,0,1.78.93,2.62,2.62,0,0,0,2-.24.86.86,0,0,0,.31-.26c.23-.31.16-.84.25-1.22.12-.57.18-1.19.27-1.77.18-1.2.35-2.38.52-3.58C167.76,124,168.42,120,169.23,116.1Z" fill="#68e1fd"/><path d="M203.41,101.75q-.3.52-.62,1a1.29,1.29,0,0,1,.74.91,1.35,1.35,0,0,1-.3,1.15.19.19,0,0,0-.07.13c0,.05.05.09.09.13a.83.83,0,0,1,.2.73,2.82,2.82,0,0,1-.27.74.36.36,0,0,0,0,.12.42.42,0,0,0,.06.2,1.55,1.55,0,0,1,.09,1.1,1.31,1.31,0,0,1-.7.82,2.29,2.29,0,0,1-.87.14l-1.42,0a1.53,1.53,0,0,1-.83-.13.38.38,0,0,1-.17-.17.44.44,0,0,1,0-.21,1.44,1.44,0,0,1,.33-.81.54.54,0,0,1-.62-.39,1,1,0,0,1,.14-.79,2.68,2.68,0,0,1,.57-.58.51.51,0,0,1-.27-.56,1.57,1.57,0,0,1,1-1.11,4.21,4.21,0,0,0,1.31-.75c-.31-.11-.67-.27-.73-.6a.89.89,0,0,1,.07-.45,3.35,3.35,0,0,1,1.19-1.75,1.26,1.26,0,0,1,.94,0C203.67,100.94,203.63,101.36,203.41,101.75Z" fill="#ffcfb3"/><path d="M196.24,104.6a2.47,2.47,0,0,1-.44.3.57.57,0,0,0-.29.44.47.47,0,0,1,0,.13.09.09,0,0,1-.1.07l-.06,0A1.48,1.48,0,0,1,195,105a3.81,3.81,0,0,1-.3-1.61A.51.51,0,0,1,195,103a1.76,1.76,0,0,1,1.19-.14c.38.06.74.23.63.69A2,2,0,0,1,196.24,104.6Z" fill="#ffcfb3"/><path d="M177.86,61.21a16.07,16.07,0,0,0-7.52,8.11,55.7,55.7,0,0,0-2.43,9.36c-1.08,5.26-1.71,7.55-1.14,12.93.5,4.76,4.13,7.75,7.68,7.74a16.93,16.93,0,0,0,4.19-.36c2.72-.7,4.36-3.05,5.4-5.52a6.07,6.07,0,0,0,.62-3.21,4.67,4.67,0,0,0-1.52-2.64c-2.3-2.14-4.95-3-5.15-6.58a17.52,17.52,0,0,1,1.77-8,7,7,0,0,1,5.91-4.32c3.75-.36,6.16-5,2.49-7.34A10.14,10.14,0,0,0,177.86,61.21Z" fill="#ff6a26"/><path d="M180.63,73.71a5.12,5.12,0,0,0-1.17-2.87,1.22,1.22,0,0,0-1.94.17c-1,1.79.59,3.73,2.34,4a.53.53,0,0,0,.52-.82A.53.53,0,0,0,180.63,73.71Z" fill="#ffcfb3"/><path d="M226.67,221l1,.75c7.55-6.34,19.19-13.6,26.41-20.31-4.93-6.07-14-11.09-16.26-12.77-6.19,5.28-21.69,13.73-29.34,19.37,2.66,1.85,5.53,3.41,8.16,5.3C220,215.74,223.31,218.41,226.67,221Z" opacity="0.46" fill="url(#linear-gradient-2)" style="mix-blend-mode:multiply"/><path d="M186.28,202.35l.75.57c5.74-4.83,14.61-10.36,20.11-15.46-3.76-4.62-13.15-11.17-14.9-12.44-4.71,4-13.5,9.39-19.33,13.68,2,1.41,3.73,6.39,5.73,7.82C181.24,198.38,183.72,200.42,186.28,202.35Z" opacity="0.46" fill="url(#linear-gradient-3)" style="mix-blend-mode:multiply"/><path d="M76,222c7.32-5.63,16.75-11.79,22.94-17.54-4.93-6.07-14-11.09-16.26-12.77-5.7,4.87-19.31,12.43-27.4,18C61.87,214.31,69.24,217.7,76,222Z" opacity="0.46" fill="url(#linear-gradient-4)" style="mix-blend-mode:multiply"/></g></g></svg>