<svg id="Layer_2" data-name="Layer 2" xmlns="http://www.w3.org/2000/svg" xmlns:xlink="http://www.w3.org/1999/xlink" viewBox="0 0 400 300"><defs><linearGradient id="linear-gradient" x1="223.58" y1="155.16" x2="130.2" y2="208.6" gradientUnits="userSpaceOnUse"><stop offset="0" stop-color="#412d3a"/><stop offset="0.99" stop-color="#6f4f64"/></linearGradient></defs><title>ZZ</title><path d="M200.16,263.7l149.21-88.19c4.75-2.67,8.83-7,4.19-9.92L203.82,79.29c-2.25-1.39-5.66-2.3-7.94-1L39.25,169.22c-4.75,2.76-5.6,10.46-.85,13.22l142.1,81.12A19.84,19.84,0,0,0,200.16,263.7Z" fill="#adce46"/><polygon points="311.48 141.1 138.77 240.81 75.1 203.78 247.44 104.09 311.48 141.1" fill="#6f4f64"/><path d="M109.47,221.34l5.16,3,31.25-18.46-5.79-3C139.6,202.63,109.47,221.34,109.47,221.34Z" fill="#fff"/><path d="M198.71,171.51l5.16,3,31.25-18.46-5.79-3C228.84,152.81,198.71,171.51,198.71,171.51Z" fill="#fff"/><path d="M260.73,130.74l5.16,3,31.25-18.46-5.79-3C290.86,112,260.73,130.74,260.73,130.74Z" fill="#fff"/><path d="M228.33,52.21s11.86,18.66,19.51,20.4c0,0-5.28,11.28-20,9.11s-10.44-28.08-8.33-29.34" fill="#1e2128"/><path d="M201.54,34.72a25.06,25.06,0,0,0-1.17-4.35c-.59-1.22-3.92-3.59-3.67-4.46s3.63,1.35,3.63,1.35-2.32-5.13-1.83-5.71c.67-.8,2.72,4.24,2.69,3.92s-1.15-4.81-.34-5.76,1.83,5.09,1.83,5.09.27-3.94,1-4.42.44,5.24.44,5.24,1-2.69,1.65-2.67-1,5.2-1,5.2l1.51,6.5" fill="#fcd1c0"/><path d="M259.43,54.49a25.06,25.06,0,0,0,3.86-2.32c1-.91,2.37-4.76,3.28-4.76s-.3,3.86-.3,3.86,4.3-3.64,5-3.33c1,.43-3.33,3.78-3,3.66s4.31-2.43,5.44-1.92-4.38,3.16-4.38,3.16,3.86-.83,4.54-.23-4.92,1.87-4.92,1.87,2.87.25,3,.85-5.28.45-5.28.45L260.82,59" fill="#fcd1c0"/><path d="M219.44,60.19s-12.15-33-13.89-31.9-3.85-.28-5.13,3.22c-.86,2.34,9.8,42.5,14.6,43.15,10.16,1.37,12.85,3.54,12.85,3.54" fill="#ffc745"/><path d="M213,139.38,115.21,199.5l34.16,20L242,165.52a4.42,4.42,0,0,0,.16-7.54Z" fill="url(#linear-gradient)"/><path d="M211.19,146.92S207,157,212,161.46a47.45,47.45,0,0,0,7.71,4s-5.23-3-4.11-9.08a28.93,28.93,0,0,1,5.2-11.16" fill="#3e4359"/><ellipse cx="226.26" cy="151.04" rx="15.87" ry="9.89" transform="translate(-11.76 282.77) rotate(-62.69)" fill="#16171c"/><ellipse cx="226.26" cy="152.62" rx="7.93" ry="4.94" transform="translate(-13.16 283.62) rotate(-62.69)" fill="#deebf1"/><path d="M162.05,116.88a22.67,22.67,0,0,0-2.94,5.72,10.55,10.55,0,0,0-11.48,7.16c-3.34,8.64-3.63,22.67,1.18,32.88l2.55-3.24s7.43,2.68,8.57,5.09S163,181.11,163,181.11s10.82,7.89,23,6S210.66,165,211.78,164.2s32-18.78,34.37-21.19c5.91-6.07-.69-16.89-6.58-20.37-9-5.35-19.77-3.74-29.62-2.33-6.81,1-16.71,2-21.82,7.19a7.4,7.4,0,0,0-1,1.18,49.77,49.77,0,0,0-7,18.66l-5.88,3s4.73-12-4.15-22.14l4-6.21" fill="#68e1fd"/><path d="M208.16,162.67l-4.68-2.88s-8.52,1.32-13.32-2.64-4.08-7.08-4.08-7.08l-5.88-2.74-5.88,3c-1.07,7.25-1.47,15.43.57,22.53.94,3.26,2.61,6.51,5.75,7.93,3.92,1.78,8.77.06,12.07-2.27C198.8,174.23,203.33,168.24,208.16,162.67Z" fill="#2e2e75" opacity="0.56"/><path d="M137.86,188s-4.2,10.06.83,14.54a23,23,0,0,0,7.68,4s-5.2-3-4.08-9.07a28.93,28.93,0,0,1,5.2-11.16" fill="#3e4359"/><ellipse cx="152.93" cy="192.14" rx="15.87" ry="9.89" transform="translate(-87.96 239.85) rotate(-62.69)" fill="#16171c"/><ellipse cx="152.93" cy="193.72" rx="7.93" ry="4.94" transform="translate(-89.36 240.71) rotate(-62.69)" fill="#deebf1"/><path d="M211.78,164.2s-1-16.9,16-27.61c20.09-12.67,22.46,3.84,18.36,6.43C231.3,152.4,211.78,164.2,211.78,164.2Z" fill="#2e2e75" opacity="0.33"/><path d="M178.36,150.26a25.27,25.27,0,0,1-4.38,3.53c-1.77.93-3.7,4-2.78,6.73s12.2-3.2,14.39-5.13c0,0,.42-5.13-.5-6.65S178.36,150.26,178.36,150.26Z" fill="#131218"/><path d="M192.89,162.07S186,172.35,189,176.47s9.42-7.9,9.72-9.24a39.09,39.09,0,0,0,0-6Z" fill="#131218"/><path d="M210.26,107.41s4.65-4,11.32-.41,8.43,3.94,8.8,9-.25,7-3.4,9.17-7.67,3.53-15.22,9.32c0,0-5.78,3.77-8.43,1.76" fill="#414044"/><path d="M229.59,112.51c-2.7,4-7.31,6.25-11.49,8.41s-8.34,4.64-12.69,6.69l-2.06,8.59c2.64,2,8.43-1.76,8.43-1.76,7.55-5.79,12.07-7.17,15.22-9.32s3.77-4.14,3.4-9.17A9,9,0,0,0,229.59,112.51Z" fill="#131218"/><path d="M174.46,88a40.06,40.06,0,0,1-4.54,4.57c-2.19,1.8-12.29,8.88-12.29,8.88s4.33,4.43,5,4,10.91-5.82,14-8.69c2.28-2.15,4-3.68,5.09-4.9C179.2,90.43,177,89.5,174.46,88Z" fill="#fcd1c0"/><path d="M183.53,122.89,155.12,105s-2.4-.72-3.24,1.23,0,2.79,0,2.79L187,130.2a3.36,3.36,0,0,0,2.54-3.92Z" fill="#131218"/><path d="M160.58,99.3a22.64,22.64,0,0,1-3,2.2c-1.11.55-5.1,1.44-5.66,2.89s-1.55,3.44,0,5.66,4.44,2.33,5.1,1.55.22-2,.89-2.53,2.74-.35,4.09-1.46a15.81,15.81,0,0,1,1-2.41,36.93,36.93,0,0,1,3.18-2.39C164.17,101.72,162.57,100.56,160.58,99.3Z" fill="#fcd1c0"/><path d="M208.32,148.54s-6.93,10.28-3.87,14.4,9.42-7.9,9.72-9.24a39.09,39.09,0,0,0,0-6Z" fill="#131218"/><path d="M207.87,93.46c-.48.32-23.67,11.27-25.93,16.59s10.47,25.55,10.47,25.55a6.3,6.3,0,0,0,9-1.49s-2.9-14.73-4.19-17l10.63-4.67a60.1,60.1,0,0,0-2.42,13.37c-.32,6.76,2.42,22.71,2.42,22.71s4.67,2.42,7.25,0S220.76,119,220.76,119s8.28-5.33,9.7-10.32c1.9-6.64-3.14-14.36-3.14-14.36Z" fill="#ff7e78"/><path d="M192.89,107c-.48.32-23.67,11.27-25.93,16.59s10.47,25.55,10.47,25.55a6.3,6.3,0,0,0,9-1.49s-2.9-14.73-4.19-17L192.89,126a60.1,60.1,0,0,0-2.42,13.37c-.32,6.76,2.42,22.71,2.42,22.71s4.67,2.42,7.25,0,5.64-29.58,5.64-29.58,7.82-7.82,9.24-12.82a20.16,20.16,0,0,0-.05-11.76Z" fill="#1e2128"/><path d="M235.09,68.37a11.12,11.12,0,0,0-2.61-4.08C228,59.89,215,59.11,215,59.11l-.36-.06c-.06.25,0,.55-.22.75-4.56,5.24-7.25,18.33-6.57,33.65,6.11.46,19.18,2.78,20.8,2.4C229.06,86.43,231.63,77.12,235.09,68.37Z" fill="#ffc745"/><path d="M264.13,52.1l-.71-1.43c-7.75,1.4-27.09,4.57-43.66,17l8.1,10.48a132.14,132.14,0,0,1,38.79-19.35A34.17,34.17,0,0,0,264.13,52.1Z" fill="#ffc745"/><path d="M226.52,57.41l-.39,4.83s-1.74,1.11-6.66-.82l.58-5Z" fill="#f9b7ab"/><path d="M217.42,49.54c-.52.16-3.13,11,1.17,11.49s9.05-3.58,9.66-4.57S226.47,46.68,217.42,49.54Z" fill="#fcd1c0"/><path d="M216.62,46s-5.26,3.55-3,5.91c3.75,4,9.38,3.15,12.89,1.48" fill="#68e1fd"/><path d="M224.32,41.37a8.52,8.52,0,0,0-4.34.39,7.2,7.2,0,0,0-2.71,1.93c-1.08,1.21-1.4,2.61-2.13,4,0,0-1.15,2.18,4.39,4.7s3.87,2.68,4.49,4.8,2.87,2.32,5,1a10.83,10.83,0,0,0,5-7.67c.39-3.21-1.55-5.78-4.23-7.3A15.8,15.8,0,0,0,224.32,41.37Z" fill="#68e1fd"/><path d="M224.32,41.37a8.52,8.52,0,0,0-4.34.39,7.2,7.2,0,0,0-2.71,1.93c-1.08,1.21-1.4,2.61-2.13,4,0,0-1.15,2.18,4.39,4.7s3.87,2.68,4.49,4.8,2.87,2.32,5,1a10.83,10.83,0,0,0,5-7.67c.39-3.21-1.55-5.78-4.23-7.3A15.8,15.8,0,0,0,224.32,41.37Z" fill="#2e2e75" opacity="0.33"/><path d="M189.68,71.17a16.32,16.32,0,0,0-5.23,1.55c-2.84,1.66-8.11,7.42-10.6,15l8.35,4.5,4.23-6s4.69,18.94,6.06,21.1,20.25,1.12,22.45.59c0,0,1.25-24.52-8.44-34.13C202.09,69.39,189.68,71.17,189.68,71.17Z" fill="#c45e31"/><path d="M200,91.54c.11.55-2,11.46-3.52,14.57s-9.84,11.43-11,12-5.1,1.44-5.66,2.89-1.55,3.44,0,5.66,4.44,2.33,5.1,1.55.22-2,.89-2.53,2.74-.35,4.09-1.46a15.8,15.8,0,0,1,1-2.41c.44-.7,5.33-3,14.2-12.62,0,0,4.11-8.69,5-16.45Z" fill="#fcd1c0"/><path d="M199.25,67.85l1.3,4.67S199.3,74.16,194,74l-1.18-4.92Z" fill="#f9b7ab"/><path d="M188,63.58c-.43.33.84,11.41,5,10.39s7.27-6.47,7.5-7.61S195.53,57.79,188,63.58Z" fill="#fcd1c0"/><path d="M186,60.51s-3.72,5.14-.81,6.59c4.89,2.45,9.89-.26,12.62-3" fill="#68e1fd"/><path d="M191.68,53.54a8.52,8.52,0,0,0-3.94,1.86,7.2,7.2,0,0,0-1.88,2.74c-.59,1.51-.42,2.93-.63,4.48,0,0-.33,2.44,5.74,2.9s4.55,1.19,5.87,3,3.49,1.19,5-.73a10.83,10.83,0,0,0,2-8.91c-.74-3.15-3.44-4.9-6.48-5.4A15.8,15.8,0,0,0,191.68,53.54Z" fill="#68e1fd"/><path d="M191.68,53.54a8.52,8.52,0,0,0-3.94,1.86,7.2,7.2,0,0,0-1.88,2.74c-.59,1.51-.42,2.93-.63,4.48,0,0-.33,2.44,5.74,2.9s4.55,1.19,5.87,3,3.49,1.19,5-.73a10.83,10.83,0,0,0,2-8.91c-.74-3.15-3.44-4.9-6.48-5.4A15.8,15.8,0,0,0,191.68,53.54Z" fill="#2e2e75" opacity="0.33"/><path d="M66.55,153.5c3.39,3.86-.14,6.87.08,13a4.69,4.69,0,0,0,.28,1.45,23.57,23.57,0,0,0,10.72,4.56c.1-4.7,8.21-8.2,7.87-13.68-.36-5.7-8-2.6-5.23-8.94s1.8-14.4-2.68-17.37c-3.32-2.2-7.11-7.08-8.84-9.46,0,.68,0,1.36,0,2,.34,3.72-1.21,7.81-3.12,10.75-1.77,2.73-4.34,5-5.73,8a8.81,8.81,0,0,0-.38.95C58.2,149.8,63.62,150.16,66.55,153.5Z" fill="#cec300"/><path d="M70.16,142.14c.71,3.26,3.18,5.71,4.43,8.74,1.55,3.73-.11,7.23-.75,10.94-.67,3.91.84,7.21,2.77,10.46l.75.15a25.65,25.65,0,0,1-2.57-5.07,11.26,11.26,0,0,1-.28-6c.68-3.32,2-6.58.87-10-1.07-3.12-3.56-5.54-4.5-8.71-1.15-3.83,1.06-7.66.31-11.51a18.31,18.31,0,0,0-2.37-5.38l-.11-.18q0,.5-.07,1a16.74,16.74,0,0,1,1.92,4.34C71.46,134.65,69.35,138.38,70.16,142.14Z" fill="#2e6300"/><path d="M102.13,145.5c3.59-1.49,7.17-6.66,4.56-9.76s-2-7.66-2-7.66a5.88,5.88,0,0,1-3.1,3.19c-7.34,2.53-8,6.76-8.15,10s3.75,10.27-8,14c-10.91,3.49-3.23,16-2.1,17.73a49.49,49.49,0,0,0,7.08-.36,63,63,0,0,1,7.89-3.51c7-2.61,4.4-8.8,1.3-12.39S98.55,147,102.13,145.5Z" fill="#cfe217"/><path d="M104.51,128.92c-1.83,2.71-2.2,6-3.09,9.05-1,3.34-3.12,5.89-4.85,8.84a14,14,0,0,0-1.72,4.39c-.33,1.69-.36,3.43-.53,5.14a13.33,13.33,0,0,1-1.6,5.42,32.2,32.2,0,0,1-3.19,4.34c-1.7,2.07-3.43,4.34-4.12,6.93l.59,0c.71-2.53,2.46-4.73,4.12-6.76,2-2.46,4-5,4.53-8.17.64-3.54.29-7.06,2-10.34,1.47-2.75,3.61-5.11,4.74-8,1.34-3.46,1.44-7.36,3.56-10.5C105.21,128.9,104.72,128.62,104.51,128.92Z" fill="#2e6300"/><path d="M82.6,173a16.19,16.19,0,0,1,2.9-14.21c3.58-4.5,5.71-8.7,3.26-13.52a19.71,19.71,0,0,1-2.12-9.37c-3.59,7.34-7.17,9.94-6.38,13.94s-.14,5.78-2.63,12c-1.76,4.38,0,8.68,1.21,10.83C80.08,172.84,81.34,173,82.6,173Z" fill="#9abc0c"/><path d="M80.54,172.87l.64.05c-1.46-4.16-2-8.54.13-12.7,1.11-2.17,2.61-4.12,3.64-6.34a13.1,13.1,0,0,0,.92-7.25A23.7,23.7,0,0,1,87,136.49c.12-.35-.43-.5-.55-.15A23.22,23.22,0,0,0,85.17,145c.08,1.56.38,3.12.31,4.69a10.53,10.53,0,0,1-1.14,4.13c-1.11,2.28-2.68,4.3-3.77,6.6a13.8,13.8,0,0,0-1.17,7.8A22.92,22.92,0,0,0,80.54,172.87Z" fill="#2e6300"/><path d="M225.39,207.39c3.39,3.86-.14,6.87.08,13a4.69,4.69,0,0,0,.28,1.45,23.57,23.57,0,0,0,10.72,4.56c.1-4.7,8.21-8.2,7.87-13.68-.36-5.7-8-2.6-5.23-8.94s1.8-14.4-2.68-17.37c-3.32-2.2-7.11-7.08-8.84-9.46,0,.68,0,1.36,0,2,.34,3.72-1.21,7.81-3.12,10.75-1.77,2.73-4.34,5-5.73,8a8.81,8.81,0,0,0-.38.95C217,203.69,222.47,204.05,225.39,207.39Z" fill="#cec300"/><path d="M229,196c.71,3.26,3.18,5.71,4.43,8.74,1.55,3.73-.11,7.23-.75,10.94-.67,3.91.84,7.21,2.77,10.46l.75.15a25.65,25.65,0,0,1-2.57-5.07,11.26,11.26,0,0,1-.28-6c.68-3.32,2-6.58.87-10-1.07-3.12-3.56-5.54-4.5-8.71-1.15-3.83,1.06-7.66.31-11.51a18.31,18.31,0,0,0-2.37-5.38l-.11-.18q0,.5-.07,1a16.74,16.74,0,0,1,1.92,4.34C230.31,188.55,228.19,192.27,229,196Z" fill="#2e6300"/><path d="M261,199.39c3.59-1.49,7.17-6.66,4.56-9.76s-2-7.66-2-7.66a5.88,5.88,0,0,1-3.1,3.19c-7.34,2.53-8,6.76-8.15,10s3.75,10.27-8,14c-10.91,3.49-3.23,16-2.1,17.73a49.49,49.49,0,0,0,7.08-.36,63,63,0,0,1,7.89-3.51c7-2.61,4.4-8.8,1.3-12.39S257.39,200.88,261,199.39Z" fill="#cfe217"/><path d="M263.36,182.81c-1.83,2.71-2.2,6-3.09,9.05-1,3.34-3.12,5.89-4.85,8.84a14,14,0,0,0-1.72,4.39c-.33,1.69-.36,3.43-.53,5.14a13.33,13.33,0,0,1-1.6,5.42,32.2,32.2,0,0,1-3.19,4.34c-1.7,2.07-3.43,4.34-4.12,6.93l.59,0c.71-2.53,2.46-4.73,4.12-6.76,2-2.46,4-5,4.53-8.17.64-3.54.29-7.06,2-10.34,1.47-2.75,3.61-5.11,4.74-8,1.34-3.46,1.44-7.36,3.56-10.5C264.05,182.8,263.56,182.51,263.36,182.81Z" fill="#2e6300"/><path d="M241.44,226.9a16.19,16.19,0,0,1,2.9-14.21c3.58-4.5,5.71-8.7,3.26-13.52a19.71,19.71,0,0,1-2.12-9.37c-3.59,7.34-7.17,9.94-6.38,13.94s-.14,5.78-2.63,12c-1.76,4.38,0,8.68,1.21,10.83C238.93,226.73,240.18,226.84,241.44,226.9Z" fill="#9abc0c"/><path d="M239.39,226.76l.64.05c-1.46-4.16-2-8.54.13-12.7,1.11-2.17,2.61-4.12,3.64-6.34a13.1,13.1,0,0,0,.92-7.25,23.7,23.7,0,0,1,1.09-10.14c.12-.35-.43-.5-.55-.15a23.22,23.22,0,0,0-1.24,8.69c.08,1.56.38,3.12.31,4.69a10.53,10.53,0,0,1-1.14,4.13c-1.11,2.28-2.68,4.3-3.77,6.6a13.8,13.8,0,0,0-1.17,7.8A22.92,22.92,0,0,0,239.39,226.76Z" fill="#2e6300"/><path d="M306.37,173.83V54.11h2.9V173.83" fill="#42210b"/><ellipse cx="307.54" cy="130.21" rx="6.16" ry="2.87" fill="#42210b"/><circle cx="307.82" cy="50.12" r="13.16" fill="#fcc000"/><path d="M299.85,119.83c0-.08-8.18,54-8.18,54s3.5,5.25,15.8,6,17.67-6,17.67-7.64-10-52.37-10-52.37" fill="#42210b"/><path d="M266.21,179.3c3.39,3.86-.14,6.87.08,13a4.69,4.69,0,0,0,.28,1.45,23.57,23.57,0,0,0,10.72,4.56c.1-4.7,8.21-8.2,7.87-13.68-.36-5.7-8-2.6-5.23-8.94s1.8-14.4-2.68-17.37c-3.32-2.2-7.11-7.08-8.84-9.46,0,.68,0,1.36,0,2,.34,3.72-1.21,7.81-3.12,10.75-1.77,2.73-4.34,5-5.73,8a8.81,8.81,0,0,0-.38.95C257.86,175.6,263.28,176,266.21,179.3Z" fill="#cec300"/><path d="M269.82,167.94c.71,3.26,3.18,5.71,4.43,8.74,1.55,3.73-.11,7.23-.75,10.94-.67,3.91.84,7.21,2.77,10.46l.75.15a25.65,25.65,0,0,1-2.57-5.07,11.26,11.26,0,0,1-.28-6c.68-3.32,2-6.58.87-10-1.07-3.12-3.56-5.54-4.5-8.71-1.15-3.83,1.06-7.66.31-11.51a18.31,18.31,0,0,0-2.37-5.38l-.11-.18q0,.5-.07,1a16.74,16.74,0,0,1,1.92,4.34C271.12,160.46,269,164.18,269.82,167.94Z" fill="#2e6300"/><path d="M301.79,171.3c3.59-1.49,7.17-6.66,4.56-9.76s-2-7.66-2-7.66a5.88,5.88,0,0,1-3.1,3.19c-7.34,2.53-8,6.76-8.15,10s3.75,10.27-8,14c-10.91,3.49-3.23,16-2.1,17.73a49.49,49.49,0,0,0,7.08-.36A63,63,0,0,1,298,195c7-2.61,4.4-8.8,1.3-12.39S298.21,172.79,301.79,171.3Z" fill="#cfe217"/><path d="M304.17,154.72c-1.83,2.71-2.2,6-3.09,9.05-1,3.34-3.12,5.89-4.85,8.84a14,14,0,0,0-1.72,4.39c-.33,1.69-.36,3.43-.53,5.14a13.33,13.33,0,0,1-1.6,5.42,32.2,32.2,0,0,1-3.19,4.34c-1.7,2.07-3.43,4.34-4.12,6.93l.59,0c.71-2.53,2.46-4.73,4.12-6.76,2-2.46,4-5,4.53-8.17.64-3.54.29-7.06,2-10.34,1.47-2.75,3.61-5.11,4.74-8,1.34-3.46,1.44-7.36,3.56-10.5C304.87,154.71,304.38,154.42,304.17,154.72Z" fill="#2e6300"/><path d="M282.26,198.81a16.19,16.19,0,0,1,2.9-14.21c3.58-4.5,5.71-8.7,3.26-13.52a19.71,19.71,0,0,1-2.12-9.37c-3.59,7.34-7.17,9.94-6.38,13.94s-.14,5.78-2.63,12c-1.76,4.38,0,8.68,1.21,10.83C279.74,198.64,281,198.75,282.26,198.81Z" fill="#9abc0c"/><path d="M280.2,198.67l.64.05c-1.46-4.16-2-8.54.13-12.7,1.11-2.17,2.61-4.12,3.64-6.34a13.1,13.1,0,0,0,.92-7.25,23.7,23.7,0,0,1,1.09-10.14c.12-.35-.43-.5-.55-.15a23.22,23.22,0,0,0-1.24,8.69c.08,1.56.38,3.12.31,4.69a10.53,10.53,0,0,1-1.14,4.13c-1.11,2.28-2.68,4.3-3.77,6.6a13.8,13.8,0,0,0-1.17,7.8A22.92,22.92,0,0,0,280.2,198.67Z" fill="#2e6300"/><path d="M185.92,180.25c-7.56-6.6-12.06-20.49-11-30.24l-.57.29s4.73-12-4.15-22.14l4-6.21-12.09-5.08a22.67,22.67,0,0,0-2.94,5.72,10.55,10.55,0,0,0-11.48,7.16c-3.34,8.64-3.63,22.67,1.18,32.88l2.55-3.24s7.43,2.68,8.57,5.09S163,181.1,163,181.1s10.82,7.89,23,6a17.71,17.71,0,0,0,6.05-2.31A44.43,44.43,0,0,1,185.92,180.25Z" fill="#68e1fd"/><path d="M161.45,163.45a25.65,25.65,0,0,0-8.76-4.81c-4.72-1.29-17.52,22.75-17.52,25.92s2.59,7,9.11,5.84a73.26,73.26,0,0,0,13.22-6.87,17.22,17.22,0,0,1,11.07-3.26Z" fill="#68e1fd"/><path d="M161.45,163.45l-.32-.27a76.44,76.44,0,0,0-10.56,14,48.13,48.13,0,0,0-4.69,12.54,69.28,69.28,0,0,0,11.63-6.21,17.22,17.22,0,0,1,11.07-3.26Z" fill="#2e2e75" opacity="0.33"/><ellipse cx="156.9" cy="149.33" rx="5.31" ry="7.02" transform="translate(-44.37 69.29) rotate(-21.9)" fill="#31333f"/><ellipse cx="156.44" cy="149.52" rx="3.71" ry="4.9" transform="translate(-44.48 69.13) rotate(-21.9)" fill="#deebf1"/><path d="M163.51,108.63a4.94,4.94,0,0,0-4.18,3.11c-1.25,3-.44,3.65.71,4.8s14.06,8.27,14.06,8.27,2.31,1.33,4.45-1.6.89-5.84-.44-6.34S163.51,108.63,163.51,108.63Z" fill="#68e1fd"/><path d="M163.51,108.63a4.94,4.94,0,0,0-4.18,3.11c-1.25,3-.44,3.65.71,4.8s14.06,8.27,14.06,8.27,2.31,1.33,4.45-1.6.89-5.84-.44-6.34S163.51,108.63,163.51,108.63Z" fill="#2e2e75" opacity="0.33"/></svg>