<svg id="Layer_1" data-name="Layer 1" xmlns="http://www.w3.org/2000/svg" xmlns:xlink="http://www.w3.org/1999/xlink" viewBox="0 0 400 300"><defs><linearGradient id="linear-gradient" x1="265.63" y1="227.47" x2="288.26" y2="207.44" gradientUnits="userSpaceOnUse"><stop offset="0" stop-color="#bf5a00" stop-opacity="0.03"/><stop offset="0.84" stop-color="#bf5a00" stop-opacity="0.84"/><stop offset="1" stop-color="#bf5a00"/></linearGradient><linearGradient id="linear-gradient-2" x1="179.38" y1="244.97" x2="224.4" y2="161.64" xlink:href="#linear-gradient"/></defs><title>81-90</title><polygon points="219.09 283.64 355.76 204.74 184.59 105.12 47.27 184.4 219.09 283.64" fill="#ffe3cc"/><polyline points="150.51 20.15 147.26 18.28 88.81 52.79 88.84 115.97 91.59 117.47" fill="#68e1fd"/><polyline points="150.51 20.15 147.26 18.28 88.81 52.79 88.84 115.97 91.59 117.47" opacity="0.27"/><polygon points="91.59 54.16 91.59 117.47 150.51 82.32 150.51 20.15 91.59 54.16" fill="#68e1fd"/><polygon points="98.78 55.89 144.94 28.92 145.22 81.07 98.78 108.69 98.78 55.89" fill="#fff"/><ellipse cx="122" cy="70.47" rx="15.74" ry="12.47" transform="translate(15.95 163.22) rotate(-71.18)" fill="#68e1fd"/><polyline points="245.13 75.96 245.13 78.13 300.26 110.03 318.51 99.19 318.51 97.2" fill="#739be0"/><polygon points="245.13 75.96 263.28 65.6 318.51 97.2 300.06 107.85 245.13 75.96" fill="#a4c0ff"/><path d="M272,65c-1-1-.92-1.33-1-2.63-1.34-.48-3.41-1.6-5.41-1.45a20.53,20.53,0,0,0-4.45,1.45c-.61,2-1,3.07-3,4.09a12.41,12.41,0,0,1-1.39.6,2.58,2.58,0,0,0-1.64,2.81c.58,3.73,2.75,10.08,10.79,10.08,8.75,0,10.13-7.38,10.29-10.9a1.87,1.87,0,0,0-.91-1.7A17.17,17.17,0,0,1,272,65Z" fill="#a5dd73"/><ellipse cx="266.01" cy="62.42" rx="4.93" ry="1.84" fill="#200904"/><path d="M260.75,56.82c.58,2.22,1,4.49,1.34,6.75l.48.25.71.23.31.07a75.85,75.85,0,0,0-1.51-7.71c0-.13.06-.26.09-.4.65-.72,1.59-2,.6-2.56-.6-.36-1.05,0-1.38.6A25.77,25.77,0,0,0,257,45.69a6.57,6.57,0,0,0,.27-3.49c-.11-.93-.44-2.37-1.42-2.78a.74.74,0,0,0-.85.11c-.56.52-.49,1.48-.49,2.17,0,.49,0,1,0,1.46-.35-.3-.7-.6-1.08-.88,0,0,0,0,0,0a5.85,5.85,0,0,0-2.17-3.31c-.77-.53-2.21-1.13-3-.29-1.81,2,2.79,4.23,4.07,4.72a.67.67,0,0,0,.28,0,18.25,18.25,0,0,1,1.44,1.21,6.33,6.33,0,0,0-2.42-.19c-.94.12-2.43.56-2.62,1.68-.44,2.65,5.71,1.42,6.91,1.09a.65.65,0,0,0,.31-.19,21.21,21.21,0,0,1,1.91,3.08,6,6,0,0,0-2.37-.67c-.87-.05-2.5,0-2.95.9-.53,1.08.76,1.72,1.56,2a12.17,12.17,0,0,0,4.39.35.66.66,0,0,0,.46-.2c.32.8.6,1.62.86,2.44-1.42-1-4-1.41-5,0a.7.7,0,0,0,0,.71c.31.63,1.3.74,1.91.9a28.5,28.5,0,0,0,2.94.61A.72.72,0,0,0,260.75,56.82Z" fill="#f67770"/><path d="M262.6,48.39a.68.68,0,0,0,.16,0c.11.47.2,1,.3,1.43l-.21-.15a1.54,1.54,0,0,0-2.19.41c-.42.81.27,1.74.79,2.32A10.36,10.36,0,0,0,263.82,54l0,0a79.65,79.65,0,0,1,1,10.26l.68,0,.72,0a80.91,80.91,0,0,0-1.39-12.42.65.65,0,0,0,.54-.19c1-1.16,4.48-5.34,1.83-6.54-1.89-.86-2.68,1.56-3,3.64-.21-.91-.4-1.82-.64-2.73a.63.63,0,0,0,.19-.13c1.65-1.68,3.11-3.48,3.34-5.91h0a.69.69,0,0,0-.43-.93c-1.32-.41-2.27.66-2.95,1.66a7.32,7.32,0,0,0-1,2.28c-.26-.84-.52-1.67-.81-2.51A3.15,3.15,0,0,0,259.13,35c-1.72.57-2.15,2.58-1.76,4.17A2.58,2.58,0,0,0,260.62,41c.51,1.48,1,3,1.37,4.46a5,5,0,0,0-1.28-1.12c-.72-.44-2.07-1.09-2.72-.24s.29,2,1,2.58A8.57,8.57,0,0,0,262.6,48.39ZM261,39.47a.66.66,0,0,0-.26,0c-.85.32-1.77.27-2-.74s-.07-2.32,1.08-2.52C261.73,35.91,262.45,38.43,261,39.47Z" fill="#f67770"/><path d="M286.76,41.69a4,4,0,0,0-4.17,1.72.56.56,0,0,0-.4.34c-.35.17-.66.37-1,.56a5.1,5.1,0,0,0,.4-4,.7.7,0,0,0-.6-.46.63.63,0,0,0-.48.09l-.09.06,0,0A5.71,5.71,0,0,0,279,45.15a.71.71,0,0,0,.22.42c-6,4.33-9.17,11.34-10.93,18.57a7.24,7.24,0,0,0,1.55-.5C271.52,57,274.48,50.7,280,46.72c.86,1.7,2.71,2.27,4.49,2.42A.58.58,0,0,0,285,49a.74.74,0,0,0,.37-1,4.55,4.55,0,0,0-1.95-1.67,5.81,5.81,0,0,0-1.74-.7q.75-.44,1.56-.82a5,5,0,0,0,3.93-2.06A.7.7,0,0,0,286.76,41.69Z" fill="#f67770"/><path d="M276.15,43.24a.66.66,0,0,0-.28-.18.7.7,0,0,0-.95.22,6.1,6.1,0,0,0,.12,5.85.72.72,0,0,0,1.25-.1.71.71,0,0,0,.26-.32C277.29,46.91,277.56,44.78,276.15,43.24Z" fill="#f67770"/><path d="M272.29,47.72a.66.66,0,0,0-.28-.18.7.7,0,0,0-.95.22,6.1,6.1,0,0,0,.12,5.85.72.72,0,0,0,1.25-.1.71.71,0,0,0,.26-.32C273.43,51.39,273.7,49.27,272.29,47.72Z" fill="#f67770"/><path d="M281.74,51.25A.66.66,0,0,0,282,51a.7.7,0,0,0,0-1,6.1,6.1,0,0,0-5.77-1,.72.72,0,0,0-.14,1.25.71.71,0,0,0,.26.32C277.92,51.67,280,52.34,281.74,51.25Z" fill="#f67770"/><path d="M278.75,54.29a.66.66,0,0,0,.15-.3.7.7,0,0,0-.34-.91,6.1,6.1,0,0,0-5.79.85.72.72,0,0,0,.25,1.23.71.71,0,0,0,.35.22C275.25,55.88,277.39,55.88,278.75,54.29Z" fill="#f67770"/><path d="M275.52,67.6a12.29,12.29,0,0,1-6,2c-1.28.18-3.89,1.19-3.31,2.61.13.31.76.56,1,.82a2.83,2.83,0,0,1,.86,1.28c.29,1.43-1,2.47-2.29,2.78a8.25,8.25,0,0,1-3.33-.31c-.67-.12-2.57-.73-3.16-.26a2.4,2.4,0,0,0-.69.81A10.06,10.06,0,0,0,265.88,80c8.75,0,10.13-7.38,10.29-10.9A1.86,1.86,0,0,0,275.52,67.6Z" fill="#98d15d"/><polyline points="294.81 63.1 291.76 61.37 276.15 70.45 276.61 90.17 279.45 91.96" fill="#f2f2f2"/><polygon points="279.45 72.25 279.45 91.96 294.81 83.6 294.81 63.1 279.45 72.25" fill="#f67770"/><polyline points="299.63 66.15 296.57 64.43 280.96 73.5 281.42 93.23 284.27 95.01" fill="#f2f2f2"/><polygon points="284.27 75.31 284.27 95.01 299.63 86.65 299.63 66.15 284.27 75.31" fill="#f67770"/><path d="M138.53,123.9c-.52,1.39,0,90.16,0,90.16s.42,1.61,3.4.29V125.27Z" fill="#5b434d"/><path d="M243.93,153.8c-.52,1.39,0,90.16,0,90.16s.42,1.61,3.4.29V155.17Z" fill="#5b434d"/><path d="M199.84,192.86a3.92,3.92,0,0,1-.8,3.22c-1.22,1.31-5.86,5.42-6.3,6.31s-1.06,3.32,0,4.16,3.12.94,5.64,0a44.67,44.67,0,0,0,9.73-6.08c1.12-1.22,0-13.75,0-13.75s-6.51-1.59-8.7,0Z" fill="#f96156"/><path d="M192.24,204.1a2.59,2.59,0,0,0,.51,2.42c1.06.84,3.12.94,5.64,0a44.67,44.67,0,0,0,9.73-6.08,6,6,0,0,0,.48-2.83C204.38,201.64,195.46,208.37,192.24,204.1Z" fill="#391a3a"/><path d="M202.51,197.63a3.8,3.8,0,0,0-1.56-1.34,5.22,5.22,0,0,0-2.31-.24c-.64,0-.64,1,0,1a3,3,0,0,1,3,1.08C202,198.64,202.9,198.14,202.51,197.63Z" fill="#391a3a"/><path d="M201.09,199.36a4.47,4.47,0,0,0-4.27-1.5c-.63.13-.36,1.09.27,1a3.47,3.47,0,0,1,3.29,1.25C200.82,200.54,201.52,199.83,201.09,199.36Z" fill="#391a3a"/><path d="M215.28,200.53a3.92,3.92,0,0,1-.8,3.22c-1.22,1.31-5.86,5.42-6.3,6.31s-1.06,3.32,0,4.16,3.12.94,5.64,0a44.67,44.67,0,0,0,9.73-6.08c1.12-1.22,0-13.75,0-13.75s-6.51-1.59-8.7,0Z" fill="#f96156"/><path d="M207.68,211.77a2.59,2.59,0,0,0,.51,2.42c1.06.84,3.12.94,5.64,0a44.67,44.67,0,0,0,9.73-6.08,6,6,0,0,0,.48-2.83C219.82,209.31,210.9,216,207.68,211.77Z" fill="#391a3a"/><path d="M217.95,205.3a3.8,3.8,0,0,0-1.56-1.34,5.22,5.22,0,0,0-2.31-.24c-.64,0-.64,1,0,1a3,3,0,0,1,3,1.08C217.47,206.31,218.34,205.81,217.95,205.3Z" fill="#391a3a"/><path d="M216.53,207a4.47,4.47,0,0,0-4.27-1.5c-.63.13-.36,1.09.27,1a3.47,3.47,0,0,1,3.29,1.25C216.26,208.21,217,207.5,216.53,207Z" fill="#391a3a"/><path d="M201.15,115.2a67.85,67.85,0,0,0-5.65,25.2c-.22,13.78,1.41,50.81,1.41,50.81s3.82,3.67,12.21,2.38V142.2s2.93,1.09,2.93,3.27,2.68,54.74,2.68,54.74,1.5,2.79,12.48-1.47c0,0,1.5-68.81-6.56-82.32" fill="#5b434d"/><path d="M217.76,170.1c-.52,1.39,0,90.16,0,90.16s.42,1.61,3.4.29V171.48Z" fill="#5b434d"/><path d="M165.35,108.31c-.52,1.39,0,90.16,0,90.16s.42,1.61,3.4.29V109.68Z" fill="#5b434d"/><polygon points="168.02 141.06 139.93 157.43 139.93 154.22 165.29 139.47 168.02 141.06" fill="#5b434d"/><polyline points="135.88 120.68 135.88 124.05 221.31 173.48 249.61 156.68 249.61 153.6" fill="#68e1fd"/><polyline points="135.88 120.68 135.88 124.05 221.31 173.48 249.61 156.68 249.61 153.6" opacity="0.27"/><polygon points="135.88 120.68 164.01 104.64 249.61 153.6 221.01 170.1 135.88 120.68" fill="#68e1fd"/><polygon points="141.19 153.48 218.35 197.98 218.35 201.37 140.96 156.84 141.19 153.48" fill="#5b434d"/><polygon points="195.43 146.54 214.63 135.27 184.12 118.11 166.27 129.4 195.43 146.54" fill="#5b434d"/><polygon points="247.43 186.02 219.34 202.39 219.34 199.17 244.7 184.43 247.43 186.02" fill="#5b434d"/><path d="M200,118.83c5.25,1.82,10.61,1.92,16.1,1.6a32.14,32.14,0,0,0,5.43-7.72c4.69-9.7,6.38-26,6.38-26s-7-5.41-11.64-6.71-14.89,1-16.57,3.81-2.3,15.45,0,33.42C199.77,117.56,199.95,118.52,200,118.83Z" fill="#a5dd73"/><path d="M208.85,81.7c-1.64.35-1.95-4.19-1.25-4.61s8.38-.47,9.56.06c2.59,1.15,0,5,0,5" fill="#a5dd73"/><path d="M218.71,62.71c-1.48-.26-1.43-2.73-4.18-3.85s-6,.49-7.2,1.36-2.08-.9-3.4.46-.48,3.44-1.25,4.18l-.11.08a3.83,3.83,0,0,0-.11,3.72,11.23,11.23,0,0,0,2.11,2.15l12.33,6.43c1.49-1.05,4.34-11,4.18-12.19A2.6,2.6,0,0,0,218.71,62.71Z" fill="#200904"/><path d="M205.18,66.49c-.56.6,1.29,12.5,4.9,12.92S218,75,218.35,73.62s.16-9-1.31-9.76S208.57,62.83,205.18,66.49Z" fill="#f67770"/><path d="M206.87,63.05s-.71,2.77,3.61,3.29,4.62,1.49,5.13,3c1,2.85,4,6.16,5-2.39.05-.41-3.06-6.27-6.42-6.73S206.87,63.05,206.87,63.05Z" fill="#200904"/><path d="M216,70.86s1.36-2.34,2.41-1.23.29,3.72-1.13,4.54" fill="#f67770"/><path d="M183.24,120.21s-3.52,2.78-4.45,3.34,4,2.16,4.08,2.71,4.82-3.73,4.82-3.73Z" fill="#f67770"/><polygon points="195.43 146.54 187.91 127.25 158.76 110.03 166.27 129.4 195.43 146.54" fill="#6f97dd"/><path d="M199.7,83.81s-1.9,2.72-2.78,9.89-3.41,13.41-4.87,15.67-11.15,11.32-10.75,12.22,3,2.5,4.69,3.1a52.72,52.72,0,0,0,12.52-10.93c5-6.37,4.83-17.66,4.83-17.66" fill="#a5dd73"/><path d="M203,139.14a6.23,6.23,0,0,1,.46-2.21,3,3,0,0,1,1-.88,13.31,13.31,0,0,0,1.38-1l3.4-3.6-5.13-.77a39.07,39.07,0,0,1-3.5,2.07c-.23,0-3.5,2-3.34,2.5s2.36-1.18,2.36-1.18a24.54,24.54,0,0,0-3.52,1.93c-.4.47-.92,2.86-.56,3.19s.92,0,1.29-.18-.25,1,.32,1.19a4.11,4.11,0,0,0,1.33.23,1.2,1.2,0,0,0,1.38-.19,7.77,7.77,0,0,0,1.46-2.76s-.13,2.87.69,2.68C202.28,140.06,202.63,139.65,203,139.14Z" fill="#f67770"/><path d="M199.37,134.92a6,6,0,0,0-1.69,1.12,5.31,5.31,0,0,0-1.12,2.77c-.06.28.39.34.44.06a4.44,4.44,0,0,1,1.18-2.69,7.82,7.82,0,0,1,1.63-1A1.83,1.83,0,0,1,199.37,134.92Z" fill="#5b434d"/><path d="M200.57,135.42a8.8,8.8,0,0,0-1.38,1.23c-.68.87-.75,2.45-1,3.49-.07.28.38.34.44.06.31-1.29.41-2.75,1.39-3.7.36-.35.74-.69,1.13-1A5.3,5.3,0,0,1,200.57,135.42Z" fill="#5b434d"/><path d="M227.91,86.71s2,.43,1.74,7.7-2.06,21.69-5.36,25.19-18.44,16-18.44,16-4.69-2-4.32-3.77,16.4-17.59,16.4-17.59S220.36,82.09,227.91,86.71Z" fill="#a5dd73"/><path d="M200.72,89.3l-1.12,29.38c0,.64,1,.64,1,0l1.12-29.38C201.75,88.66,200.75,88.66,200.72,89.3Z" fill="#75a542"/><path d="M218,96.73l-1.54,9.44c-.52,3.2-.64,6.93-2.22,9.83s-4,5.14-6.06,7.53l-6.81,8c-.42.49.29,1.2.71.71l7.13-8.36c2-2.34,4.4-4.64,5.89-7.35s1.68-6.1,2.17-9.12L219,97C219.07,96.36,218.11,96.09,218,96.73Z" fill="#75a542"/><path d="M323.2,215.63,278.35,189.7l-43.68,26L278.27,240C293.13,231.67,308.31,223.91,323.2,215.63Z" opacity="0.32" fill="url(#linear-gradient)"/><path d="M348.77,162c-2.45-10.22-11-21.2-21.45-23.76a23.17,23.17,0,0,0-18.48,3.5c-6.26,4.34-7.67,11-11.3,17.2-6.68,11.47-23.49,17.25-27.52,29.83-2.71,8.46,2.53,16.69,8.92,21.87C300.52,228.16,335.7,218,346.61,193,350.68,183.76,351.28,172.44,348.77,162Z" fill="#f96156"/><path d="M348.81,161.82c-2.45-10.22-11-21.2-21.45-23.76-.47-.11-.94-.18-1.41-.26a21.62,21.62,0,0,1,6.84,5.39c6.4,7.56,7.4,18.51,6.88,28-.25,4.63-1,9.41-3.2,13.55s-5.65,6.39-10,8.16a45.78,45.78,0,0,0-11,5.74,34.3,34.3,0,0,1-6.71,4.24c-5.19,2.29-11.1,2-16.46.44a39.8,39.8,0,0,1-21.7-16.1c-.18.44-.35.89-.49,1.34-2.71,8.46,2.53,16.69,8.92,21.87,21.57,17.51,56.76,7.34,67.67-17.61C350.71,183.58,351.31,172.25,348.81,161.82Z" fill="#ef5959"/><path d="M294.63,177.4s1.68-11.11,15.32-23.41c0,0,11.32,7.59,18.65,17.68,0,0-3.44,12.38-17,22.88C311.61,194.56,298.76,184.48,294.63,177.4Z" fill="#68e1fd"/><path d="M328.6,171.67s-5,.87-9.57,6.86-9.44,11.87-7.42,16C311.61,194.56,322.65,187.59,328.6,171.67Z" opacity="0.27"/><path d="M309.73,183.45c-4.77-6.33-3.52-14.39-.59-21.22a.46.46,0,0,0-.85-.35C305.23,169,304,177.42,309,184A.46.46,0,0,0,309.73,183.45Z" opacity="0.27"/><path d="M166.93,197.77l-43.68,26,84.34,46.91,39.73-26.47-28-16.33,4.22-19.82s-22.61-11.81-22.61-11.81l-8.2,10.22Z" opacity="0.32" fill="url(#linear-gradient-2)"/><path d="M213.72,82.33a8.45,8.45,0,0,1-2.64.15c-.72-.08-2.51-.31-2.76-1.16a.33.33,0,0,0-.64.18c.29,1,1.45,1.26,2.35,1.47a9,9,0,0,0,3.87,0C214.31,82.88,214.14,82.24,213.72,82.33Z" fill="#75a542"/></svg>