<svg id="Layer_2" data-name="Layer 2" xmlns="http://www.w3.org/2000/svg" xmlns:xlink="http://www.w3.org/1999/xlink" viewBox="0 0 400 300"><defs><linearGradient id="linear-gradient" x1="192.97" y1="234.45" x2="182.47" y2="255.1" gradientUnits="userSpaceOnUse"><stop offset="0" stop-color="#6737fe"/><stop offset="1" stop-color="#b095fe"/></linearGradient><linearGradient id="linear-gradient-2" x1="313.54" y1="184" x2="270.9" y2="211.33" xlink:href="#linear-gradient"/></defs><title>PP</title><path d="M194.51,276,22,174c-5.49-3.08-10.2-8.15-4.85-11.46L190.29,62.78c2.6-1.61,6.54-2.66,9.18-1.13L380.54,166.74c5.49,3.19,6.48,12.1,1,15.29L217.25,275.8A22.94,22.94,0,0,1,194.51,276Z" fill="#b095fe"/><path d="M157,250.92c1.76,1,27.25,15.78,29,16.94l55.44-34.27-49.09-19.81L141.17,242C146.21,245.36,151.72,247.84,157,250.92Z" opacity="0.32" fill="url(#linear-gradient)"/><ellipse cx="209.25" cy="227.51" rx="34.94" ry="14.32" fill="#5a46af"/><rect x="193.44" y="125.1" width="32.72" height="55.84" fill="#c9745d"/><path d="M191,200.85a3.62,3.62,0,0,1,.41,1.69l.26,37c10.34,5.21,23.33-4.26,34-8.93-.33-10.53-1.09-36.46-.74-39.74.44-4.13,17.19-43.75,15.86-49.95S197.12,76.54,189.63,79s.88,9.91.88,16.92,20.27,33.43,25.12,41.28,1.76,24.35-8.37,23.94-11-34.67-19.62-34.26S187,143,184.34,164A65.36,65.36,0,0,0,191,200.85Z" fill="#fec5b2"/><path d="M119.27,20.63,108.45,81.06a12.2,12.2,0,0,0,4.12,11.46l74.72,63.34a8.82,8.82,0,0,0,14.39-5.18l9.15-51.11a16.89,16.89,0,0,0-5.56-15.74L128.59,17.34A5.69,5.69,0,0,0,119.27,20.63Z" fill="#68e1fd"/><polyline points="341.12 179.66 272.75 218.43 254.68 208.38 321.86 170.97" opacity="0.32" fill="url(#linear-gradient-2)"/><path d="M347.17,137.19a2.86,2.86,0,0,0-.5-1.07,6.38,6.38,0,0,0-1.56-1.36c-7.95-5.38-18.94-6.86-27.34-1.6-1.92,1.2-4.76,3.93-3.64,6.48.66,1.49,2.65,2.36,4,3,4.51,2,9.53,2.93,14.36,3.74,1.78.3,3.58.6,5.38.77a7.42,7.42,0,0,0,6.54-2.81C345.73,142.73,347.74,139.52,347.17,137.19Z" fill="#754c24"/><path d="M313.92,138.47s7.24,6.56,19.76,5.6,13.5-6.88,13.5-6.88-3.24,41.5-5,42.21-8.11,3.79-11.19,4-12.85-3.68-13.09-4.75S313.92,138.47,313.92,138.47Z" fill="#68e1fd"/><path d="M316.2,78c-.39-.78-1.57-.1-1.18.68,8.57,17.27,10.24,36.72,11.78,55.6.07.86,1.44.87,1.37,0C326.61,115.15,324.88,95.5,316.2,78Z" fill="#007f68"/><path d="M315.11,78.16s2.39,9-.08,13.44-4.51,5.38-1.56,11,10.84,6.32,11.37,10.58S321.06,85.77,315.11,78.16Z" fill="#007f68"/><path d="M342.51,94.34a112.68,112.68,0,0,0-10.87,44.09c0,1.06,1.63,1.06,1.67,0a110.63,110.63,0,0,1,10.64-43.26C344.4,94.22,343,93.38,342.51,94.34Z" fill="#007f68"/><path d="M343.67,98.72c0-.9-.2-2.67-.1-4.25q-.47.31-1,.6c-3.26,7.91-8.11,26.49-9.57,32.19,2-4.27,10.09-4.85,12.46-11a11.19,11.19,0,0,0,.14-8.08A29.81,29.81,0,0,1,343.67,98.72Z" fill="#007f68"/><polygon points="125.44 46.43 125.71 45.17 125.97 45.41 125.71 46.66 125.71 46.67 125.44 46.43" fill="#f15a24"/><path d="M122.47,50.38a3.31,3.31,0,0,1,.5.38,3.84,3.84,0,0,1,1,1.27,2,2,0,0,1,.18,1.25,1,1,0,0,1-.51.68,2,2,0,0,1-1,.19,4.77,4.77,0,0,1-1.12-.18l2.16,1.93-.12.56-3.15-2.83.11-.51a6,6,0,0,0,2,.17c.51-.06.8-.27.88-.64a1.24,1.24,0,0,0-.06-.67,1.83,1.83,0,0,0-.51-.69,1.7,1.7,0,0,0-.26-.2.53.53,0,0,0-.38-.09c-.16,0-.29.21-.37.49l-.71-.64c.13-.47.37-.7.71-.7A1.39,1.39,0,0,1,122.47,50.38Z" fill="#fff"/><polygon points="118.54 46.86 119.99 48.17 119.08 52.47 118.3 51.77 119.08 48.13 118.4 47.52 118.54 46.86" fill="#fff"/><g style="isolation:isolate"><polygon points="125.71 46.66 125.97 45.41 127.64 46.9 127.38 48.16 125.71 46.66" fill="#f8c401"/><polygon points="125.76 44.91 126.03 45.15 127.69 46.65 127.64 46.9 125.97 45.41 125.71 45.17 119.98 40.01 119.9 39.95 119.96 39.69 125.76 44.91" fill="#f15a24"/><path d="M129.25,49.84l.27-1.26,2.19,2c-.31.41-.89.43-1.53,0a3.37,3.37,0,0,1-.51-.39Z" fill="#f8c401"/><polygon points="131.82 50.36 131.84 50.38 131.81 50.5 131.78 50.63 131.71 50.56 129.51 48.59 129.57 48.33 131.82 50.36" fill="#f15a24"/><polygon points="128.37 44.96 129.71 46.16 128.98 49.6 129.11 49.73 127.51 48.29 127.64 48.4 128.37 44.96" fill="#f8c401"/><polygon points="128.16 44.47 130.03 46.15 129.57 48.33 129.51 48.59 129.25 49.84 129.11 49.73 128.98 49.6 129.71 46.16 128.37 44.96 127.64 48.4 127.51 48.28 127.38 48.16 127.64 46.9 127.69 46.65 128.16 44.47" fill="#f15a24"/><polygon points="121.02 36.63 126.9 39.54 126.47 41.54 121.02 36.63" fill="#f8c401"/><path d="M121,36.63l-.35-.31,0,.14.24-1.14c.17-.81.88-1,1.71-.48a3.38,3.38,0,0,1,.52.39l3.94,3.54-.16.76Z" fill="#f8c401"/><polygon points="127.06 38.78 127.33 39.02 127.19 39.68 126.74 41.78 126.69 42.03 126.03 45.15 125.76 44.91 126.42 41.79 126.47 41.54 126.9 39.54 127.06 38.78" fill="#f15a24"/><polygon points="127.19 39.68 128.98 40.57 128.41 43.28 126.74 41.78 127.19 39.68" fill="#f8c401"/><polygon points="128.99 40.52 129.26 40.76 128.63 43.77 126.69 42.03 126.74 41.78 128.41 43.28 128.98 40.57 128.99 40.52" fill="#f15a24"/><path d="M131.28,42.57A4.24,4.24,0,0,1,132.76,46l-.87,4.12a1.3,1.3,0,0,1-.07.23l-2.25-2,.46-2.18-1.88-1.68-.46,2.18L126,45.15l.66-3.12,1.94,1.74.63-3-.27-.24v0l-1.8-.89.14-.66-.27-.24Z" fill="#f8c401"/></g><path d="M129.2,32.28a1.46,1.46,0,0,1,0,.65.49.49,0,0,1-.33.42.84.84,0,0,1-.6-.16l-.07,0,.54,2-.91-.82-.48-1.88-.19-.17-.26,1.22-.83-.74.69-3.23,1.41,1.27a3.92,3.92,0,0,1,.66.75A2.56,2.56,0,0,1,129.2,32.28Zm-.82-.06a.64.64,0,0,0-.05-.4,1.27,1.27,0,0,0-.34-.44l-.51-.46-.17.82.51.46a1.31,1.31,0,0,0,.21.16.36.36,0,0,0,.18.06c.09,0,.15-.07.18-.2" fill="#fff"/><path d="M124.19,27.22a3.35,3.35,0,0,1,.52.4,4.46,4.46,0,0,1,1,1.29,3.1,3.1,0,0,1,.37,1.38l-.87-.79a1.83,1.83,0,0,0-.22-.61,2.17,2.17,0,0,0-.45-.56,1.48,1.48,0,0,0-.23-.18.6.6,0,0,0-.41-.1q-.28,0-.36.48a1.54,1.54,0,0,0,.08.86,1.94,1.94,0,0,0,.53.77,1.76,1.76,0,0,0,.26.2.87.87,0,0,0,.24.1.37.37,0,0,0,.37-.08l.87.79a.7.7,0,0,1-.74.38,1.56,1.56,0,0,1-.59-.23,3.69,3.69,0,0,1-.56-.42,4.34,4.34,0,0,1-.83-1,3.67,3.67,0,0,1-.46-1.11,2.36,2.36,0,0,1,0-1,1,1,0,0,1,.38-.68.81.81,0,0,1,.71-.06A1.83,1.83,0,0,1,124.19,27.22Z" fill="#fff"/><polygon points="129.86 32.28 131.98 34.19 131.84 34.81 130.55 33.65 130.4 34.32 131.56 35.36 131.43 35.95 130.28 34.91 130.13 35.63 131.43 36.8 131.3 37.42 129.17 35.51 129.86 32.28" fill="#fff"/><polygon points="135.98 37.79 136.81 38.53 136.12 41.76 135.29 41.02 135.98 37.79" fill="#fff"/><path d="M135.13,37.94a2.22,2.22,0,0,1,0,1,.91.91,0,0,1-.39.65.82.82,0,0,1-.73,0,2.15,2.15,0,0,1-.39-.19A4,4,0,0,1,133,39l-1.29-1.16.69-3.23,1.29,1.16a5.1,5.1,0,0,1,.91,1.05A3.67,3.67,0,0,1,135.13,37.94Zm-.8.28a1.45,1.45,0,0,0-.12-.92,2.89,2.89,0,0,0-.7-.92l-.39-.35-.39,1.84.39.36a2.54,2.54,0,0,0,.38.28.83.83,0,0,0,.42.14c.22,0,.36-.14.41-.44" fill="#fff"/><polygon points="137.15 38.84 139.82 41.24 139.69 41.86 138.76 41.03 138.21 43.64 137.38 42.9 137.94 40.28 137.02 39.46 137.15 38.84" fill="#fff"/><path d="M142.17,43.39a3.69,3.69,0,0,1,.53.4,4.46,4.46,0,0,1,1,1.29,3.11,3.11,0,0,1,.37,1.38l-.87-.78a1.82,1.82,0,0,0-.22-.62,2.24,2.24,0,0,0-.45-.56,1.59,1.59,0,0,0-.23-.17.6.6,0,0,0-.41-.1q-.27.06-.36.48a1.56,1.56,0,0,0,.08.87,2,2,0,0,0,.53.77,1.72,1.72,0,0,0,.26.19.78.78,0,0,0,.25.1.39.39,0,0,0,.37-.08l.87.78a.69.69,0,0,1-.74.38,1.46,1.46,0,0,1-.59-.22,3.66,3.66,0,0,1-.55-.42,4.52,4.52,0,0,1-.83-1,3.7,3.7,0,0,1-.46-1.1,2.39,2.39,0,0,1,0-1,1,1,0,0,1,.38-.68.81.81,0,0,1,.71-.06A1.78,1.78,0,0,1,142.17,43.39Z" fill="#fff"/><path d="M146.73,47.48l.57,4.33-.88-.79-.09-.78-1.27-1.14-.34.4-.87-.78,1.93-2.09Zm-1.34,1.21.86.77-.17-1.57-.68.8" fill="#fff"/><path d="M150.71,51.62a1.48,1.48,0,0,1,0,.65.49.49,0,0,1-.33.42.92.92,0,0,1-.63-.18l0,0,.54,2-.92-.82-.48-1.88-.18-.17-.26,1.22-.83-.74.69-3.23,1.41,1.27a3.82,3.82,0,0,1,.66.75A2.56,2.56,0,0,1,150.71,51.62Zm-.82-.06a.64.64,0,0,0-.05-.4,1.28,1.28,0,0,0-.33-.43l-.52-.46-.17.81.52.47.2.15a.37.37,0,0,0,.18.06c.09,0,.15-.07.18-.2" fill="#fff"/><path d="M154.06,55a2.28,2.28,0,0,1,0,1,1,1,0,0,1-.39.66.86.86,0,0,1-.74,0,2,2,0,0,1-.37-.18A4.08,4.08,0,0,1,152,56l-1.29-1.16.69-3.23,1.28,1.15a5.21,5.21,0,0,1,.91,1.06A3.67,3.67,0,0,1,154.06,55Zm-.8.29a1.48,1.48,0,0,0-.12-.92,2.75,2.75,0,0,0-.7-.92l-.39-.35-.39,1.84.39.35a2.55,2.55,0,0,0,.38.29.84.84,0,0,0,.42.14c.21,0,.35-.15.41-.44" fill="#fff"/><path d="M126.73,54.15a3.87,3.87,0,0,1,.58.44,4.54,4.54,0,0,1,.74.85,2.86,2.86,0,0,1,.4.84,1.56,1.56,0,0,1,0,.73c-.05.28-.18.44-.38.47a.86.86,0,0,1-.55-.15l-.19-.13v0a4.76,4.76,0,0,1,.65,1,1.59,1.59,0,0,1,.12.94c-.08.36-.27.54-.57.54a1.19,1.19,0,0,1-.58-.2,3.79,3.79,0,0,1-.57-.44,4.61,4.61,0,0,1-1.1-1.4,2.7,2.7,0,0,1-.29-1.5l.73.66a1.6,1.6,0,0,0,.15.83,2.38,2.38,0,0,0,.6.79,2,2,0,0,0,.3.23.61.61,0,0,0,.32.11c.16,0,.26-.11.31-.3a1.16,1.16,0,0,0-.18-.81,3.8,3.8,0,0,0-.8-1l-.17-.16.12-.58.18.16a3.54,3.54,0,0,0,.54.42q.55.33.65-.15a1,1,0,0,0-.1-.64,2,2,0,0,0-.49-.65,1.64,1.64,0,0,0-.25-.19.79.79,0,0,0-.35-.12c-.17,0-.3.1-.39.32l-.72-.65c.12-.39.34-.59.66-.58A1.28,1.28,0,0,1,126.73,54.15Z" fill="#fff"/><path d="M133.09,59.91l-.59,2.81.64.57-.13.61-.64-.57-.2.92-.74-.66.2-.93-2.3-2.07.12-.59,2.86-.79Zm-1.28,2.19.41-2-2,.55,1.6,1.43" fill="#fff"/><path d="M139.41,65.55l2.91,2.63-.13.62-2.25-2-.27,1.28a.82.82,0,0,1,.5.09l.18.09a3.11,3.11,0,0,1,.47.35,3.66,3.66,0,0,1,.75.9,2.91,2.91,0,0,1,.36.93,2.09,2.09,0,0,1,0,.83c-.1.45-.31.7-.63.74a1.11,1.11,0,0,1-.7-.2,3.66,3.66,0,0,1-.55-.42A4.53,4.53,0,0,1,139,70a2.41,2.41,0,0,1-.27-1.38l.72.65a1.67,1.67,0,0,0,.18.77,2.23,2.23,0,0,0,.54.71,1.92,1.92,0,0,0,.3.23.59.59,0,0,0,.41.11c.18,0,.31-.18.36-.46a1.4,1.4,0,0,0-.1-.82,2.27,2.27,0,0,0-.6-.8,1.92,1.92,0,0,0-.3-.23,1.12,1.12,0,0,0-.24-.11.43.43,0,0,0-.39,0l-.71-.64Z" fill="#fff"/><path d="M146.76,73.62l-.69-.63a1.75,1.75,0,0,0-.64-1.43,1.82,1.82,0,0,0-.27-.2.57.57,0,0,0-.54-.08c-.21.1-.38.41-.49.94l0,.21a.45.45,0,0,1,.53-.15,1.47,1.47,0,0,1,.38.17,2.8,2.8,0,0,1,.43.32,3.7,3.7,0,0,1,1,1.32,2.34,2.34,0,0,1,.15,1.4.86.86,0,0,1-.33.58.68.68,0,0,1-.63.05,1.56,1.56,0,0,1-.36-.17,3.53,3.53,0,0,1-.54-.41,3.82,3.82,0,0,1-1.23-1.8,4,4,0,0,1,0-1.92c.16-.77.42-1.23.76-1.38a.94.94,0,0,1,.85.16,3.66,3.66,0,0,1,.55.42,3.59,3.59,0,0,1,1,1.29A2.67,2.67,0,0,1,146.76,73.62Zm-2.33-.85c-.22,0-.35.09-.41.36a1.5,1.5,0,0,0,.1.88,2.48,2.48,0,0,0,.66.92,2.15,2.15,0,0,0,.3.23.77.77,0,0,0,.39.13c.19,0,.32-.14.37-.41a1.42,1.42,0,0,0-.1-.88,2.39,2.39,0,0,0-.62-.83,2.09,2.09,0,0,0-.31-.24,1,1,0,0,0-.39-.15" fill="#fff"/><path d="M155.37,80.49a1.53,1.53,0,0,1,.07.75.52.52,0,0,1-.33.43.89.89,0,0,1-.66-.15,3.56,3.56,0,0,1,.57,1,1.67,1.67,0,0,1,.08.9c-.09.42-.31.6-.68.55a1.72,1.72,0,0,1-.65-.25,4.35,4.35,0,0,1-.65-.5A5.12,5.12,0,0,1,152,81.78a2.1,2.1,0,0,1-.26-1.4.56.56,0,0,1,.37-.49,1.09,1.09,0,0,1,.75.18,3,3,0,0,1-.5-.89,1.5,1.5,0,0,1-.07-.79.54.54,0,0,1,.31-.41.81.81,0,0,1,.62.06l.26.13a4.19,4.19,0,0,1,.63.49,4.91,4.91,0,0,1,.82.93A3.3,3.3,0,0,1,155.37,80.49Zm-1,2.25a1.2,1.2,0,0,0-.16-.81,2.94,2.94,0,0,0-.66-.83,2.42,2.42,0,0,0-.38-.29,1.09,1.09,0,0,0-.36-.15c-.21,0-.34.07-.4.32a1.29,1.29,0,0,0,.14.82,2.91,2.91,0,0,0,.67.86,2.57,2.57,0,0,0,.38.29.87.87,0,0,0,.38.14c.2,0,.33-.1.39-.34m.28-2.05a1.1,1.1,0,0,0-.13-.72,2.5,2.5,0,0,0-.58-.74,2.08,2.08,0,0,0-.33-.25.75.75,0,0,0-.32-.12c-.18,0-.29.08-.35.3a1.08,1.08,0,0,0,.12.71,2.71,2.71,0,0,0,.93,1,.77.77,0,0,0,.31.12q.27,0,.34-.31" fill="#fff"/><polygon points="148.24 73.55 151.24 76.23 151.13 76.76 148.63 79.04 147.86 78.35 150.37 76.17 148.11 74.15 148.24 73.55" fill="#fff"/><path d="M164.14,88.4a4,4,0,0,1,0,1.9c-.16.76-.41,1.23-.75,1.4a.87.87,0,0,1-.86-.13,3.43,3.43,0,0,1-.52-.4,3.78,3.78,0,0,1-1-1.31,2.61,2.61,0,0,1-.24-1.32l.69.62a1.55,1.55,0,0,0,.14.76,2,2,0,0,0,.51.68,1.86,1.86,0,0,0,.28.21.55.55,0,0,0,.53.08c.21-.1.37-.41.49-.94l0-.22a.45.45,0,0,1-.54.15,1.5,1.5,0,0,1-.38-.17,2.84,2.84,0,0,1-.41-.31,3.67,3.67,0,0,1-1-1.33,2.35,2.35,0,0,1-.16-1.41.94.94,0,0,1,.33-.58A.69.69,0,0,1,162,86a1.66,1.66,0,0,1,.35.16,3.67,3.67,0,0,1,.55.42A3.87,3.87,0,0,1,164.14,88.4Zm-.57.63a1.55,1.55,0,0,0-.1-.88,2.44,2.44,0,0,0-.66-.92,1.91,1.91,0,0,0-.29-.22.77.77,0,0,0-.39-.13c-.2,0-.32.15-.38.42a1.46,1.46,0,0,0,.1.88,2.37,2.37,0,0,0,.61.82,2.15,2.15,0,0,0,.32.24l.16.08a.57.57,0,0,0,.41,0,.39.39,0,0,0,.23-.33" fill="#fff"/><polygon points="165.66 89.23 167.11 90.54 166.2 94.84 165.43 94.15 166.2 90.5 165.52 89.88 165.66 89.23" fill="#fff"/><path d="M171.37,95a4,4,0,0,1,.05,2c-.15.68-.39,1.1-.73,1.25a.89.89,0,0,1-.85-.15,4.23,4.23,0,0,1-1.72-2.16,4,4,0,0,1,0-2q.22-1,.73-1.26a.92.92,0,0,1,.85.15,3.67,3.67,0,0,1,.56.43A3.71,3.71,0,0,1,171.37,95Zm-.68,1.29a3.33,3.33,0,0,0,0-1.29,1.94,1.94,0,0,0-.66-1.06,2,2,0,0,0-.31-.24c-.22-.13-.39-.15-.52,0a1.7,1.7,0,0,0-.43,1,3.45,3.45,0,0,0,0,1.31,2,2,0,0,0,.67,1.08,2,2,0,0,0,.3.23q.33.2.52,0a1.66,1.66,0,0,0,.44-1" fill="#fff"/><path d="M176,99.17a4,4,0,0,1,0,1.94c-.14.68-.38,1.1-.73,1.26a.91.91,0,0,1-.85-.15,3.61,3.61,0,0,1-.55-.42,3.7,3.7,0,0,1-1.16-1.74,4,4,0,0,1,0-2q.21-1,.73-1.26a.92.92,0,0,1,.85.15,3.68,3.68,0,0,1,.56.43A3.73,3.73,0,0,1,176,99.17Zm-.69,1.29a3.25,3.25,0,0,0,0-1.3,1.94,1.94,0,0,0-.66-1.06,2.07,2.07,0,0,0-.32-.24c-.22-.13-.39-.14-.52,0a1.65,1.65,0,0,0-.43,1,3.32,3.32,0,0,0-.05,1.31,2,2,0,0,0,.67,1.07,2,2,0,0,0,.3.23c.22.13.4.15.53,0a1.73,1.73,0,0,0,.43-1" fill="#fff"/><polygon points="116.89 56.27 119.05 58.22 118.95 58.68 117.4 57.29 117.17 58.38 118.56 59.63 118.47 60.07 117.07 58.82 116.83 59.93 118.39 61.34 118.29 61.8 116.13 59.86 116.89 56.27" fill="#fff"/><polygon points="119.64 58.75 120.25 59.3 119.59 62.44 120.9 63.61 120.81 64.06 118.88 62.34 119.64 58.75" fill="#fff"/><path d="M128.15,66.47l.64,4.79-.66-.59-.12-1-1.6-1.43-.46.51-.65-.58,2.14-2.28Zm-1.46,1.43L127.94,69l-.27-2.24-1,1.12" fill="#fff"/><polygon points="123.28 62.02 125.74 64.23 125.64 64.68 123.27 65.72 125.11 67.37 125 67.84 122.48 65.57 122.58 65.12 124.94 64.08 123.18 62.5 123.28 62.02" fill="#fff"/><polygon points="122.04 60.91 122.65 61.46 121.89 65.04 121.28 64.49 122.04 60.91" fill="#fff"/><path d="M132.31,70.43a1.45,1.45,0,0,1,.16.93c-.05.23-.15.36-.3.39a.83.83,0,0,1-.52-.14l0,0a2.55,2.55,0,0,1,.49.8,1.43,1.43,0,0,1,.09.76c-.06.29-.22.44-.47.43a1.08,1.08,0,0,1-.45-.17,3.56,3.56,0,0,1-.52-.39l-1.5-1.35.76-3.59,1.48,1.33A3.57,3.57,0,0,1,132.31,70.43Zm-.72,2.09a1,1,0,0,0-.11-.6,2.28,2.28,0,0,0-.51-.64l-.76-.68L130,71.73l.77.69a2.08,2.08,0,0,0,.31.24.63.63,0,0,0,.26.1c.15,0,.24-.07.28-.24m.24-1.61a.83.83,0,0,0-.08-.54,2,2,0,0,0-.48-.61l-.73-.66-.23,1.07.76.68a1.88,1.88,0,0,0,.27.21.56.56,0,0,0,.25.09c.13,0,.22-.07.25-.25" fill="#fff"/><polygon points="133.32 71.05 135.48 73 135.39 73.46 133.83 72.07 133.6 73.15 135 74.4 134.9 74.85 133.51 73.6 133.27 74.72 134.83 76.11 134.73 76.58 132.56 74.64 133.32 71.05" fill="#fff"/><polygon points="135.79 73.27 138.51 75.72 138.41 76.18 137.35 75.24 136.7 78.36 136.08 77.8 136.74 74.69 135.69 73.74 135.79 73.27" fill="#fff"/><polygon points="138.97 76.13 139.58 76.67 139.26 78.18 141.04 79.78 141.36 78.28 141.97 78.83 141.22 82.42 140.6 81.86 140.94 80.25 139.16 78.65 138.82 80.26 138.21 79.71 138.97 76.13" fill="#fff"/><path d="M167.17,101.47a2.72,2.72,0,0,1,.42.32,3.19,3.19,0,0,1,.81,1.05,1.67,1.67,0,0,1,.15,1,.77.77,0,0,1-.42.56,1.64,1.64,0,0,1-.8.17,4,4,0,0,1-.94-.16l1.8,1.62-.1.48-2.63-2.37.09-.42a5,5,0,0,0,1.62.14c.43,0,.67-.22.74-.53a1,1,0,0,0,0-.57,1.53,1.53,0,0,0-.43-.58l-.21-.16a.43.43,0,0,0-.32-.08c-.14,0-.25.16-.31.4l-.6-.54c.11-.38.32-.58.6-.58A1.14,1.14,0,0,1,167.17,101.47Z" fill="#fff"/><polygon points="164.43 99.02 165.64 100.11 164.88 103.7 164.24 103.12 164.88 100.08 164.32 99.56 164.43 99.02" fill="#fff"/><path d="M174.58,108.09l2.44,2.19-.11.51L175,109.1l-.22,1.07a.65.65,0,0,1,.41.08l.16.08a2.57,2.57,0,0,1,.38.29,3.11,3.11,0,0,1,.63.75,2.54,2.54,0,0,1,.3.78,1.76,1.76,0,0,1,0,.7c-.08.37-.26.58-.53.61a1,1,0,0,1-.58-.17,3.11,3.11,0,0,1-.46-.35,3.69,3.69,0,0,1-.9-1.16,2,2,0,0,1-.23-1.15l.6.54a1.34,1.34,0,0,0,.14.64,1.83,1.83,0,0,0,.45.59,1.64,1.64,0,0,0,.25.19.52.52,0,0,0,.34.09q.22-.05.3-.39a1.13,1.13,0,0,0-.08-.68,1.87,1.87,0,0,0-.5-.67,1.72,1.72,0,0,0-.26-.2l-.19-.09a.35.35,0,0,0-.33,0l-.59-.54Z" fill="#fff"/><path d="M172.24,106a2.86,2.86,0,0,1,.42.32,3.19,3.19,0,0,1,.81,1.05,1.69,1.69,0,0,1,.15,1.05.78.78,0,0,1-.42.56,1.61,1.61,0,0,1-.8.16,3.9,3.9,0,0,1-.93-.14l1.79,1.61-.1.47-2.62-2.36.09-.43a5.25,5.25,0,0,0,1.62.14c.43,0,.67-.22.74-.53a1,1,0,0,0,0-.57,1.52,1.52,0,0,0-.43-.58,1.41,1.41,0,0,0-.22-.17.44.44,0,0,0-.32-.08c-.13,0-.24.18-.3.41l-.6-.54c.11-.39.31-.58.6-.58A1.11,1.11,0,0,1,172.24,106Z" fill="#fff"/><polygon points="170.75 103.26 171.34 103.8 168.69 108.19 168.09 107.64 170.75 103.26" fill="#fff"/><path d="M195.77,92l.58,4.32-.72-.64-.1-.86-1.37-1.23-.38.43-.71-.65L195,91.26Zm-1.32,1.25,1,.9-.21-1.81-.79.91" fill="#fff"/><path d="M193.12,89.79a1.3,1.3,0,0,1,.15.85c0,.21-.13.32-.27.35a.62.62,0,0,1-.43-.11l-.06,0a2.25,2.25,0,0,1,.44.72,1.24,1.24,0,0,1,.08.68q-.09.4-.42.38a1,1,0,0,1-.42-.15,3.11,3.11,0,0,1-.47-.36l-1.46-1.31.69-3.23,1.43,1.29A3.23,3.23,0,0,1,193.12,89.79Zm-.78,1.74a.69.69,0,0,0-.07-.47,1.7,1.7,0,0,0-.39-.49l-.64-.58-.19.88.64.58a1.62,1.62,0,0,0,.25.19.53.53,0,0,0,.2.08c.11,0,.18-.06.21-.2m.21-1.39a.65.65,0,0,0-.07-.43,1.52,1.52,0,0,0-.37-.47l-.6-.55-.18.84.61.55a1.61,1.61,0,0,0,.22.17.44.44,0,0,0,.19.07c.11,0,.17-.05.2-.18" fill="#fff"/><polygon points="197.39 93.38 198.07 93.99 199.13 97.57 199.59 95.36 200.27 95.97 199.59 99.2 198.91 98.59 197.85 95.02 197.39 97.21 196.71 96.6 197.39 93.38" fill="#fff"/><polygon points="200.89 96.52 201.57 97.14 201.27 98.58 202.84 98.27 203.65 99 201.88 99.3 202.97 102.23 202.15 101.49 201.2 98.89 200.89 100.36 200.21 99.75 200.89 96.52" fill="#fff"/><polygon points="120.67 36.32 121.02 36.63 126.47 41.54 126.42 41.79 120.62 36.57 120.64 36.46 120.67 36.32" fill="#f15a24"/><path d="M126.42,41.79l-.66,3.12L120,39.71a1.74,1.74,0,0,1,0-.26l.61-2.87Z" fill="#f8c401"/><path d="M120,40l5.73,5.15-.27,1.26-4-3.55A4.71,4.71,0,0,1,120,40Z" fill="#f8c401"/><path d="M105.76,52v61.39a12.2,12.2,0,0,0,6.08,10.56l84.71,49.18a8.82,8.82,0,0,0,13.25-7.63V113.53A16.89,16.89,0,0,0,201.56,99l-87.2-51.95A5.69,5.69,0,0,0,105.76,52Z" fill="#dd5e57"/><path d="M191,200.85a3.62,3.62,0,0,1,.41,1.69l.26,37c2,1.06,6.78,1.53,9,1.91a60.13,60.13,0,0,0,11.51.61c5-.06,9.92-.28,14.71-2.19-.32-10.35-2.35-45.69-2-49,.38-3.54,12.71-33.1,15.41-45.4-7.48.22-15,0-22.46-.49.45,7.78-3.18,16.48-10.58,16.18-10.14-.41-11-34.67-19.62-34.26S187,143,184.34,164A65.36,65.36,0,0,0,191,200.85Z" fill="#fec5b2"/><path d="M114.1,67.48a4.08,4.08,0,0,1,1.26,1.18,4.48,4.48,0,0,1,.71,1.58l-1-.6a2.62,2.62,0,0,0-.37-.68,2.05,2.05,0,0,0-.55-.5c-.28-.17-.49-.19-.64-.06a.91.91,0,0,0-.2.77,2.5,2.5,0,0,0,.32,1.07,1.93,1.93,0,0,0,.69.74.85.85,0,0,0,.53.16.41.41,0,0,0,.31-.27l1,.6a.9.9,0,0,1-.56.81,1.49,1.49,0,0,1-1.2-.29,4.08,4.08,0,0,1-1-.88,4.77,4.77,0,0,1-.71-1.2,4.12,4.12,0,0,1-.31-1.31,1.92,1.92,0,0,1,.15-1,.73.73,0,0,1,.61-.4A1.82,1.82,0,0,1,114.1,67.48Z" fill="#fff"/><path d="M118.78,72.9l1,2.29-1-.62-1-2.17-.22-.13.11,1.66-.94-.57L116.49,69l1.61,1a3.39,3.39,0,0,1,.79.65,3,3,0,0,1,.51.78,2.47,2.47,0,0,1,.21.82.83.83,0,0,1-.18.68A.64.64,0,0,1,118.78,72.9Zm-.23-.9c.08,0,.12-.16.1-.34a1,1,0,0,0-.16-.49,1.21,1.21,0,0,0-.41-.39l-.59-.35.07,1.11.59.35c.19.11.32.15.4.11" fill="#fff"/><polygon points="122.41 72.51 122.47 73.36 120.98 72.47 121.04 73.39 122.36 74.18 122.41 74.99 121.1 74.2 121.16 75.18 122.64 76.07 122.7 76.92 120.28 75.47 119.99 71.05 122.41 72.51" fill="#fff"/><path d="M126.27,75.84a3.93,3.93,0,0,1,.32,1.29,1.77,1.77,0,0,1-.17,1,.75.75,0,0,1-.65.36,2.19,2.19,0,0,1-1.07-.38l-1.47-.88-.29-4.42,1.47.88a4.53,4.53,0,0,1,1.1.93A4.72,4.72,0,0,1,126.27,75.84Zm-.88,1.47c.19-.1.27-.35.24-.75a2.31,2.31,0,0,0-.37-1.11,2.57,2.57,0,0,0-.88-.85l-.45-.27.17,2.52.45.27c.37.22.64.28.83.19" fill="#fff"/><polygon points="127.91 75.81 128.2 80.23 127.26 79.66 126.97 75.25 127.91 75.81" fill="#fff"/><polygon points="131.36 77.88 131.41 78.73 130.35 78.09 130.59 81.66 129.64 81.09 129.41 77.53 128.37 76.9 128.31 76.05 131.36 77.88" fill="#fff"/><path d="M139.24,82.65,141,87.89l-1-.6-.3-1-1.45-.87-.19.66-1-.59L138.16,82Zm-.85,2.15,1,.59-.59-1.92-.39,1.33" fill="#fff"/><path d="M134.63,79.8A4.1,4.1,0,0,1,135.88,81a4.45,4.45,0,0,1,.71,1.57l-1-.6a2.4,2.4,0,0,0-.37-.68,2,2,0,0,0-.55-.5c-.27-.16-.49-.19-.64-.06a.92.92,0,0,0-.19.77,2.48,2.48,0,0,0,.31,1.06,2,2,0,0,0,.69.74.82.82,0,0,0,.53.16.38.38,0,0,0,.31-.27l1,.6a.91.91,0,0,1-.55.82,1.51,1.51,0,0,1-1.2-.29,4,4,0,0,1-1-.88,4.65,4.65,0,0,1-.71-1.2,4.16,4.16,0,0,1-.31-1.31,1.9,1.9,0,0,1,.16-1,.71.71,0,0,1,.61-.4A1.81,1.81,0,0,1,134.63,79.8Z" fill="#fff"/><path d="M143.32,87.64l1,2.29-1-.62-1-2.17-.21-.13.11,1.66-.94-.57L141,83.69l1.61,1a3.39,3.39,0,0,1,.79.65,3,3,0,0,1,.51.78,2.47,2.47,0,0,1,.21.82.83.83,0,0,1-.18.68A.64.64,0,0,1,143.32,87.64Zm-.23-.9c.08,0,.12-.16.1-.34a1,1,0,0,0-.16-.49,1.21,1.21,0,0,0-.41-.39l-.59-.35.07,1.11.59.35c.19.11.32.15.4.11" fill="#fff"/><path d="M147.85,88.8a3.83,3.83,0,0,1,.32,1.3,1.69,1.69,0,0,1-.17,1,.72.72,0,0,1-.65.36,2.14,2.14,0,0,1-1.06-.37l-1.47-.88-.29-4.42,1.47.88a4.58,4.58,0,0,1,1.85,2.12ZM147,90.27c.19-.1.27-.35.24-.75a2.31,2.31,0,0,0-.37-1.11,2.57,2.57,0,0,0-.88-.85l-.45-.27.17,2.52.45.27c.37.22.64.28.83.19" fill="#fff"/><polygon points="115.62 95.74 116.01 101.62 115.13 101.09 114.8 96.1 114.02 95.63 113.96 94.74 115.62 95.74" fill="#fff"/><path d="M119,97.67a3.64,3.64,0,0,1,1.21,1.16,3.14,3.14,0,0,1,.51,1.51,1.7,1.7,0,0,1-.26,1.09,1.94,1.94,0,0,1-.81.68,3.2,3.2,0,0,1-1,.29l2.46,1.48.05.77-3.6-2.16,0-.7a4.48,4.48,0,0,0,1.78-.67,1.29,1.29,0,0,0,.61-1.21,2,2,0,0,0-.24-.83,1.74,1.74,0,0,0-.65-.65c-.3-.18-.52-.2-.65-.07a1.06,1.06,0,0,0-.19.78l-.82-.49c0-.65.14-1.06.45-1.21A1.3,1.3,0,0,1,119,97.67Z" fill="#fff"/><path d="M123.93,100.55a3.87,3.87,0,0,1,.89.73,3.46,3.46,0,0,1,.59.9,2.63,2.63,0,0,1,.24.91.88.88,0,0,1-.21.76c-.17.14-.42.13-.74,0v0a4.77,4.77,0,0,1,.87,1,2.43,2.43,0,0,1,.37,1.14c0,.5-.08.81-.35.95s-.67,0-1.21-.28a4.33,4.33,0,0,1-1.36-1.28,4.09,4.09,0,0,1-.67-1.77l.83.5a2.5,2.5,0,0,0,.36,1,2.27,2.27,0,0,0,.75.74c.29.17.51.22.65.15s.2-.26.19-.53a1.72,1.72,0,0,0-.39-.95,3.39,3.39,0,0,0-1-.84l-.19-.12-.05-.79.19.12.05,0c.76.46,1.12.38,1.08-.23a1.63,1.63,0,0,0-.26-.78,1.88,1.88,0,0,0-.62-.6.69.69,0,0,0-.62-.12c-.16.08-.25.27-.26.58l-.82-.49c0-.56.14-.9.42-1S123.39,100.23,123.93,100.55Z" fill="#fff"/><path d="M130.81,108.49l.73.44.05.84-.73-.44.08,1.27-.84-.51-.08-1.27-2.62-1.58-.05-.8,2.32-2.32.89.54ZM130,108l-.18-2.7-1.64,1.61L130,108" fill="#fff"/><path d="M141.09,110.94l.06.84-2.56-1.54.11,1.75a.58.58,0,0,1,.47-.11,1.94,1.94,0,0,1,.71.27,3.39,3.39,0,0,1,.91.8,3.84,3.84,0,0,1,.58,1,3.71,3.71,0,0,1,.23,1.06c0,.62-.08,1-.36,1.22s-.7.13-1.28-.22a4.16,4.16,0,0,1-1.35-1.29,3.64,3.64,0,0,1-.63-1.63l.82.49a2.47,2.47,0,0,0,.37.9,2.14,2.14,0,0,0,.68.65c.34.2.58.24.73.11a.91.91,0,0,0,.19-.76,2.2,2.2,0,0,0-1.07-1.74,1,1,0,0,0-.58-.19.37.37,0,0,0-.34.22l-.82-.49-.22-3.39Z" fill="#fff"/><path d="M146.35,116.59a3.79,3.79,0,0,1,.53,1.72,1.74,1.74,0,0,1-.13.9.63.63,0,0,1-.55.35,1.73,1.73,0,0,1-1-.32,3.82,3.82,0,0,1-1.59-1.72,6.91,6.91,0,0,1-.56-2.42,3.4,3.4,0,0,1,.29-2.1c.26-.34.74-.3,1.42.1a3.42,3.42,0,0,1,1.2,1.19,4.1,4.1,0,0,1,.56,1.55l-.79-.48a2.11,2.11,0,0,0-1-1.53c-.37-.22-.64-.22-.8,0a2.43,2.43,0,0,0-.17,1.41l0,.29a.48.48,0,0,1,.43-.43,1.37,1.37,0,0,1,.85.25A3.57,3.57,0,0,1,146.35,116.59Zm-.48,1.93c.17-.09.24-.32.22-.69a2.26,2.26,0,0,0-.33-1.07A2.3,2.3,0,0,0,145,116a.94.94,0,0,0-.74-.17c-.2.07-.29.28-.27.64a2.5,2.5,0,0,0,.34,1.07,2.35,2.35,0,0,0,.85.85c.31.18.55.23.71.13" fill="#fff"/><polygon points="151.26 117.11 151.31 117.83 149.72 121.86 148.84 121.34 150.47 117.42 147.9 115.88 147.84 115.06 151.26 117.11" fill="#fff"/><path d="M156.39,123.36a2.75,2.75,0,0,1,.32,1.11c0,.57-.11.9-.45,1a1.81,1.81,0,0,1-1.37-.37,4.67,4.67,0,0,1-1.43-1.31,3.24,3.24,0,0,1-.62-1.66,1,1,0,0,1,.2-.79.73.73,0,0,1,.72-.11,3.31,3.31,0,0,1-.69-.91,2.48,2.48,0,0,1-.28-1,1,1,0,0,1,.15-.67.65.65,0,0,1,.57-.21,2.38,2.38,0,0,1,1,.38,4.45,4.45,0,0,1,1,.8,4,4,0,0,1,.65.94,2.47,2.47,0,0,1,.26.92.91.91,0,0,1-.17.7.62.62,0,0,1-.63.11A3.93,3.93,0,0,1,156.39,123.36Zm-.75,1.18c.19-.07.27-.28.25-.61a1.81,1.81,0,0,0-.36-1,2.75,2.75,0,0,0-.82-.75,1.08,1.08,0,0,0-.78-.21c-.2,0-.29.25-.27.59a2,2,0,0,0,.36,1,2.62,2.62,0,0,0,.83.78,1,1,0,0,0,.8.2m-2-4.52a1.68,1.68,0,0,0,.31.86,2.28,2.28,0,0,0,.72.66.89.89,0,0,0,.69.19c.17-.05.24-.24.22-.54a1.7,1.7,0,0,0-.31-.85,2.33,2.33,0,0,0-.73-.68.84.84,0,0,0-.69-.17c-.16.06-.24.24-.22.54" fill="#fff"/><path d="M166.13,126.65a6.81,6.81,0,0,1,.57,2.41,3.68,3.68,0,0,1-.27,2.11c-.25.37-.71.36-1.37,0a3.6,3.6,0,0,1-1.24-1.22,4,4,0,0,1-.59-1.57l.79.48a2.51,2.51,0,0,0,.34.91,1.89,1.89,0,0,0,.64.63c.37.22.64.22.8,0a2.5,2.5,0,0,0,.17-1.42l0-.29a.5.5,0,0,1-.44.42,1.33,1.33,0,0,1-.85-.24,3.58,3.58,0,0,1-1.23-1.24,3.76,3.76,0,0,1-.53-1.71,1.76,1.76,0,0,1,.13-.9.61.61,0,0,1,.55-.35,1.77,1.77,0,0,1,1,.33A3.84,3.84,0,0,1,166.13,126.65Zm-.44,1.59a.73.73,0,0,0,.11-.53,2.52,2.52,0,0,0-.33-1.07,2.36,2.36,0,0,0-.85-.86.73.73,0,0,0-.71-.13c-.17.1-.24.32-.22.7a2.32,2.32,0,0,0,.33,1.07,2.28,2.28,0,0,0,.78.77,1.21,1.21,0,0,0,.52.19.41.41,0,0,0,.37-.14" fill="#fff"/><polygon points="169.38 128.02 169.77 133.9 168.89 133.37 168.56 128.38 167.78 127.91 167.72 127.02 169.38 128.02" fill="#fff"/><path d="M174.41,131.73a6.87,6.87,0,0,1,.59,2.45,3.1,3.1,0,0,1-.3,1.93c-.26.36-.73.33-1.41-.08a3.78,3.78,0,0,1-1.52-1.68,6.9,6.9,0,0,1-.58-2.46,3.12,3.12,0,0,1,.29-1.93c.26-.35.73-.32,1.42.09A3.77,3.77,0,0,1,174.41,131.73ZM174,135.1a3.24,3.24,0,0,0,.12-1.42,5.7,5.7,0,0,0-.33-1.67,2,2,0,0,0-.88-1c-.43-.26-.7-.25-.83,0a3.19,3.19,0,0,0-.12,1.41,5.84,5.84,0,0,0,.32,1.69,2.05,2.05,0,0,0,.9,1.05c.42.25.69.25.81,0" fill="#fff"/><path d="M179.72,134.91a6.85,6.85,0,0,1,.58,2.45,3.12,3.12,0,0,1-.29,1.93c-.26.36-.73.33-1.42-.08a3.77,3.77,0,0,1-1.52-1.67,6.9,6.9,0,0,1-.58-2.46,3.12,3.12,0,0,1,.29-1.93c.26-.35.73-.32,1.41.09A3.79,3.79,0,0,1,179.72,134.91Zm-.37,3.37a3.39,3.39,0,0,0,.12-1.43,5.88,5.88,0,0,0-.32-1.67,2,2,0,0,0-.89-1.05c-.42-.25-.7-.25-.82,0a3.19,3.19,0,0,0-.12,1.41,5.84,5.84,0,0,0,.32,1.69,2,2,0,0,0,.89,1.05c.42.25.69.25.82,0" fill="#fff"/><polygon points="117.58 108.93 117.63 109.57 115.86 108.5 115.95 109.99 117.54 110.94 117.58 111.55 115.99 110.6 116.09 112.12 117.86 113.19 117.91 113.83 115.44 112.35 115.11 107.45 117.58 108.93" fill="#fff"/><polygon points="118.96 109.76 119.24 114.04 120.73 114.93 120.77 115.55 118.58 114.24 118.26 109.34 118.96 109.76" fill="#fff"/><polygon points="121.69 111.4 122.01 116.3 121.31 115.88 120.99 110.98 121.69 111.4" fill="#fff"/><polygon points="125.21 113.51 125.25 114.13 123.42 116.52 125.52 117.78 125.56 118.43 122.69 116.7 122.65 116.09 124.46 113.68 122.45 112.47 122.41 111.83 125.21 113.51" fill="#fff"/><path d="M128,115.25l1.9,5.77-.75-.45-.4-1.26-1.82-1.09-.26.86-.74-.45,1.27-3.87Zm-.91,2.48,1.43.86-.87-2.72-.56,1.87" fill="#fff"/><path d="M133.15,121a2.18,2.18,0,0,1,.29.92c0,.41-.07.66-.29.76s-.57,0-1-.27l-1.72-1-.32-4.9,1.69,1a3.13,3.13,0,0,1,1,.93,2.2,2.2,0,0,1,.41,1.11.72.72,0,0,1-.17.63.53.53,0,0,1-.54,0A2.82,2.82,0,0,1,133.15,121Zm-.61.83c.13,0,.2-.19.18-.44a1.39,1.39,0,0,0-.26-.71,2,2,0,0,0-.63-.58l-.87-.52.1,1.56.88.53a.78.78,0,0,0,.6.17m-1.72-4.3.1,1.47.86.52q.37.22.55.15c.12-.06.17-.2.16-.43a1.29,1.29,0,0,0-.23-.65,1.78,1.78,0,0,0-.6-.55l-.84-.5" fill="#fff"/><polygon points="136.34 120.19 136.38 120.83 134.6 119.76 134.7 121.25 136.29 122.2 136.33 122.81 134.74 121.86 134.84 123.38 136.62 124.44 136.66 125.09 134.18 123.6 133.86 118.7 136.34 120.19" fill="#fff"/><polygon points="139.79 122.26 139.83 122.9 138.62 122.17 138.9 126.44 138.2 126.02 137.92 121.75 136.72 121.03 136.68 120.4 139.79 122.26" fill="#fff"/><polygon points="143.73 124.63 144.06 129.53 143.35 129.11 143.21 126.91 141.18 125.69 141.32 127.89 140.63 127.47 140.31 122.57 141 122.99 141.14 125.05 143.16 126.26 143.03 124.21 143.73 124.63" fill="#fff"/><polygon points="170.74 140.85 171.06 145.75 170.32 145.3 170.05 141.15 169.4 140.76 169.35 140.02 170.74 140.85" fill="#fff"/><path d="M172.94,142.08a3,3,0,0,1,1,1,2.6,2.6,0,0,1,.43,1.26,1.39,1.39,0,0,1-.22.91,1.61,1.61,0,0,1-.67.57,2.76,2.76,0,0,1-.87.24l2,1.23,0,.64-3-1.8,0-.58a4,4,0,0,0,1.48-.56,1.09,1.09,0,0,0,.51-1,1.66,1.66,0,0,0-.2-.69,1.46,1.46,0,0,0-.54-.54q-.37-.22-.54-.06a.9.9,0,0,0-.17.65l-.67-.4c0-.54.12-.88.37-1A1.06,1.06,0,0,1,172.94,142.08Z" fill="#fff"/><polygon points="176.84 142.93 175.69 149.7 175.02 149.3 176.16 142.52 176.84 142.93" fill="#fff"/><path d="M178.72,145.55a3,3,0,0,1,1,1,2.58,2.58,0,0,1,.42,1.25,1.4,1.4,0,0,1-.22.91,1.68,1.68,0,0,1-.67.57,2.79,2.79,0,0,1-.88.24l2.05,1.23,0,.64-3-1.8,0-.58a4.06,4.06,0,0,0,1.48-.56,1.09,1.09,0,0,0,.51-1,1.66,1.66,0,0,0-.2-.69,1.48,1.48,0,0,0-.54-.54c-.25-.15-.43-.17-.55-.06a.92.92,0,0,0-.16.65l-.68-.41c0-.54.12-.88.37-1A1.08,1.08,0,0,1,178.72,145.55Z" fill="#fff"/><path d="M183.69,148.55l0,.7L181.61,148l.1,1.46a.44.44,0,0,1,.39-.09,1.44,1.44,0,0,1,.58.22,2.86,2.86,0,0,1,.77.67,3.15,3.15,0,0,1,.48.85,3.18,3.18,0,0,1,.2.89c0,.52-.06.85-.3,1s-.59.1-1.07-.18a3.5,3.5,0,0,1-1.12-1.07,3.06,3.06,0,0,1-.52-1.36l.69.41a2,2,0,0,0,.31.76,1.79,1.79,0,0,0,.57.55c.27.16.48.2.6.09a.75.75,0,0,0,.16-.63,1.8,1.8,0,0,0-.26-.83,1.85,1.85,0,0,0-.63-.61.89.89,0,0,0-.48-.16.32.32,0,0,0-.29.18l-.67-.4-.19-2.82Z" fill="#fff"/><path d="M195.3,116.73l1.71,5.21-.82-.49-.33-1-1.56-.94-.22.72-.82-.49,1.15-3.5Zm-.84,2.19,1.15.69-.7-2.21-.45,1.52" fill="#fff"/><path d="M192.68,117.52a2.06,2.06,0,0,1,.26.83c0,.37-.07.6-.27.68s-.52,0-.93-.25l-1.66-1-.29-4.41,1.63,1a2.93,2.93,0,0,1,.92.84,2,2,0,0,1,.37,1,.65.65,0,0,1-.15.56.46.46,0,0,1-.48,0A2.43,2.43,0,0,1,192.68,117.52Zm-.68.58q.16,0,.14-.34a1.09,1.09,0,0,0-.2-.55,1.55,1.55,0,0,0-.49-.44l-.73-.44.08,1.21.74.44c.21.12.36.17.46.13m-1.4-3.56.07,1.14.7.42a.58.58,0,0,0,.43.12q.14-.06.12-.33a1,1,0,0,0-.18-.51,1.4,1.4,0,0,0-.46-.42l-.69-.41" fill="#fff"/><polygon points="200.43 119.76 200.72 124.17 199.94 123.71 198.01 119.67 198.2 122.66 197.43 122.19 197.14 117.78 197.91 118.25 199.85 122.32 199.65 119.3 200.43 119.76" fill="#fff"/><polygon points="204.28 122.08 202.78 123.25 204.57 126.49 203.63 125.92 202.07 123.04 202.2 125.06 201.42 124.59 201.13 120.18 201.91 120.65 202.04 122.63 203.35 121.52 204.28 122.08" fill="#fff"/><path d="M124.34,93.64l-.11-1.72,2.55,1.53c-.11.87-.83,1.16-1.74.61Z" fill="#f8c401"/><polygon points="119.99 91.03 119.88 89.31 120.19 89.5 120.3 91.22 120.15 91.13 119.99 91.03" fill="#f15a24"/><g style="isolation:isolate"><path d="M113.29,85.36l6.59,4L120,91l-4.74-2.84A4.77,4.77,0,0,1,113.29,85.36Z" fill="#f8c401"/><polygon points="120.19 89.5 122.09 90.64 122.2 92.36 120.3 91.22 120.19 89.5" fill="#f8c401"/><polygon points="119.86 88.97 120.16 89.15 122.06 90.29 122.09 90.64 120.19 89.5 119.88 89.31 113.29 85.36 113.25 85.33 113.23 84.99 119.86 88.97" fill="#f15a24"/><path d="M119.58,84.71l.28,4.25-6.62-4v-.08L113,80.73Z" fill="#f8c401"/><polygon points="112.93 80.39 113.32 80.62 119.56 84.36 119.58 84.71 112.95 80.73 112.93 80.39" fill="#f15a24"/><polygon points="123.72 88.75 124.03 93.46 124.18 93.55 122.36 92.45 122.5 92.54 122.19 87.83 123.72 88.75" fill="#f8c401"/><polygon points="119.56 84.36 113.32 80.62 119.38 81.63 119.56 84.36" fill="#f8c401"/><polygon points="126.78 93.13 126.81 93.47 126.77 93.45 124.22 91.92 124.2 91.57 126.78 93.13" fill="#f15a24"/><polygon points="124 88.59 124.2 91.57 124.22 91.92 124.34 93.64 124.18 93.55 124.03 93.46 123.72 88.75 122.19 87.83 122.5 92.54 122.36 92.45 122.2 92.36 122.09 90.64 122.06 90.29 121.87 87.3 124 88.59" fill="#f15a24"/><path d="M119.37,81.63l-6.06-1-.39-.23-.11-1.63c-.08-1.18.71-1.64,1.75-1l4.74,2.84Z" fill="#f8c401"/><polygon points="119.31 80.59 119.61 80.78 119.67 81.68 119.86 84.55 119.88 84.89 120.16 89.15 119.86 88.97 119.58 84.71 119.56 84.36 119.38 81.63 119.31 80.59" fill="#f15a24"/><polygon points="119.67 81.68 121.52 81.98 121.76 85.69 119.86 84.55 119.67 81.68" fill="#f8c401"/><polygon points="121.51 81.92 121.52 81.98 119.67 81.68 119.61 80.78 121.51 81.92" fill="#f8c401"/><polygon points="121.51 81.92 121.82 82.1 122.09 86.22 119.88 84.89 119.86 84.55 121.76 85.69 121.52 81.98 121.51 81.92" fill="#f15a24"/><path d="M124.35,83.62a4.66,4.66,0,0,1,2,3.28l.4,6.15s0,.05,0,.08l-2.58-1.55-.2-3-2.14-1.28.2,3-1.9-1.14-.28-4.25,2.21,1.32-.27-4.12Z" fill="#f8c401"/></g></svg>