<svg xmlns="http://www.w3.org/2000/svg" xmlns:xlink="http://www.w3.org/1999/xlink" viewBox="0 0 400 300"><defs><linearGradient id="linear-gradient" x1="63.4" y1="192.65" x2="50.24" y2="208.68" gradientTransform="matrix(-1, 0, 0, 1, 352.14, 0)" gradientUnits="userSpaceOnUse"><stop offset="0" stop-color="#7f4e00"/><stop offset="1" stop-color="#fff"/></linearGradient><linearGradient id="linear-gradient-2" x1="2792.22" y1="163.78" x2="2786.2" y2="169.5" gradientTransform="matrix(-1, 0, 0, 1, 3103.38, 0)" xlink:href="#linear-gradient"/><linearGradient id="linear-gradient-3" x1="2834.72" y1="224.94" x2="2828.71" y2="230.66" gradientTransform="matrix(-1, 0, 0, 1, 3103.38, 0)" xlink:href="#linear-gradient"/><linearGradient id="linear-gradient-4" x1="2856.97" y1="235.87" x2="2850.96" y2="241.58" gradientTransform="matrix(-1, 0, 0, 1, 3103.38, 0)" xlink:href="#linear-gradient"/><linearGradient id="linear-gradient-5" x1="2875.91" y1="249.43" x2="2869.89" y2="255.14" gradientTransform="matrix(-1, 0, 0, 1, 3103.38, 0)" xlink:href="#linear-gradient"/><linearGradient id="linear-gradient-6" x1="2898.15" y1="260.35" x2="2892.14" y2="266.07" gradientTransform="matrix(-1, 0, 0, 1, 3103.38, 0)" xlink:href="#linear-gradient"/><linearGradient id="linear-gradient-7" x1="2978.25" y1="154.44" x2="2972.24" y2="160.16" gradientTransform="matrix(-1, 0, 0, 1, 3103.38, 0)" xlink:href="#linear-gradient"/><linearGradient id="linear-gradient-8" x1="2773.53" y1="152.61" x2="2767.52" y2="158.32" gradientTransform="matrix(-1, 0, 0, 1, 3103.38, 0)" xlink:href="#linear-gradient"/><linearGradient id="linear-gradient-9" x1="165.08" y1="235.54" x2="147.33" y2="251.07" xlink:href="#linear-gradient"/><linearGradient id="linear-gradient-10" x1="265.33" y1="178.16" x2="245.93" y2="201.77" xlink:href="#linear-gradient"/><linearGradient id="linear-gradient-11" x1="218.58" y1="205.36" x2="208.34" y2="217.83" xlink:href="#linear-gradient"/><linearGradient id="linear-gradient-12" x1="123.62" y1="181.46" x2="106.89" y2="201.83" xlink:href="#linear-gradient"/><linearGradient id="linear-gradient-13" x1="2812.37" y1="210.45" x2="2806.36" y2="216.17" gradientTransform="matrix(-1, 0, 0, 1, 3103.38, 0)" xlink:href="#linear-gradient"/><linearGradient id="linear-gradient-14" x1="2790.12" y1="199.53" x2="2784.11" y2="205.24" gradientTransform="matrix(-1, 0, 0, 1, 3103.38, 0)" xlink:href="#linear-gradient"/><linearGradient id="linear-gradient-15" x1="3045.53" y1="196.7" x2="3039.52" y2="202.42" gradientTransform="matrix(-1, 0, 0, 1, 3103.38, 0)" xlink:href="#linear-gradient"/><linearGradient id="linear-gradient-16" x1="2893.38" y1="203.17" x2="2887.37" y2="208.88" gradientTransform="matrix(-1, 0, 0, 1, 3103.38, 0)" xlink:href="#linear-gradient"/></defs><title>PP</title><g style="isolation:isolate"><g id="Layer_5" data-name="Layer 5"><polygon points="304.54 182.35 233.31 223.34 235.23 224.44 222.83 231.77 220.76 230.56 159.79 265.64 172.07 272.9 315.42 188.73 304.54 182.35" fill="#4f4f4f"/><polygon points="327.4 181.7 366.17 158.94 355.74 152.89 316.53 175.45 327.4 181.7" fill="#4f4f4f"/><polygon points="121.75 172.42 61.11 207.32 73.28 214.51 133.35 179.24 121.75 172.42" fill="#4f4f4f"/><polygon points="216.3 130.53 205.53 124.21 133.29 165.78 144.89 172.46 216.3 130.53" fill="#4f4f4f"/><polygon points="227.28 124.09 266.47 101.08 256.15 95.08 216.51 117.89 227.28 124.09" fill="#4f4f4f"/><polygon points="216.51 117.89 155.82 82.97 145.46 88.94 205.53 124.21 216.51 117.89" fill="#4f4f4f"/><polygon points="227.28 124.09 216.3 130.53 304.54 182.35 316.53 175.45 227.28 124.09" fill="#4f4f4f"/><polygon points="315.42 188.73 351.27 209.78 363.78 202.64 327.4 181.7 315.42 188.73" fill="#4f4f4f"/><polygon points="304.54 182.35 315.42 188.73 327.4 181.7 316.53 175.45 304.54 182.35" fill="#4f4f4f"/><polygon points="227.28 124.09 216.51 117.89 205.53 124.21 216.3 130.53 227.28 124.09" fill="#4f4f4f"/><polygon points="133.29 165.78 72.66 130.9 61.74 137.19 121.75 172.42 133.29 165.78" fill="#4f4f4f"/><polygon points="133.35 179.24 220.76 230.56 233.31 223.34 144.89 172.46 133.35 179.24" fill="#4f4f4f"/><polygon points="222.83 231.77 235.23 224.44 233.31 223.34 220.76 230.56 222.83 231.77" fill="#4f4f4f"/><polygon points="133.29 165.78 121.75 172.42 133.35 179.24 144.89 172.46 133.29 165.78" fill="#4f4f4f"/><polygon points="144.89 172.46 233.31 223.34 304.54 182.35 216.3 130.53 144.89 172.46" fill="#ffdaae"/><path d="M291.61,214.72s-24-12.61-25.84-13.86l23-22.11,33.62,18.73C320,199.2,294,213,291.61,214.72Z" opacity="0.68" fill="url(#linear-gradient)" style="mix-blend-mode:multiply"/><polygon points="316.53 175.45 355.74 152.89 266.47 101.08 227.28 124.09 316.53 175.45" fill="#ffdaae"/><polygon points="298.22 182.57 298.22 100.97 281.83 64.57 270.44 71.3 256.13 90.97 256.13 171.71 265.79 200.86 298.22 182.57" fill="#68e1fd"/><polygon points="298.32 181.61 298.32 156.07 266.17 173.57 265.89 199.9 298.32 181.61" fill="#fff" opacity="0.31"/><path d="M284.86,163.45c.29-.18.08-56.83.08-56.83L298.32,100v56.06Z" fill="#fff" opacity="0.31"/><path d="M256.23,89.93s14-19.22,14.32-19.6,14.4,36.29,14.4,36.29l-.08,56.83Z" fill="#1e4549" opacity="0.75"/><polygon points="270.03 125.37 261.02 130.25 261.63 135.4 271.76 129.82 270.03 125.37" fill="#1e4549" opacity="0.33"/><polygon points="272.2 130.94 261.77 136.59 262.31 141.13 273.72 134.85 272.2 130.94" fill="#1e4549" opacity="0.33"/><polygon points="277.68 144.99 263.67 152.57 264.13 156.42 278.94 148.25 277.68 144.99" fill="#1e4549" opacity="0.33"/><polygon points="274.16 135.97 262.45 142.31 262.89 146.04 275.4 139.15 274.16 135.97" fill="#1e4549" opacity="0.33"/><polygon points="275.84 140.28 263.03 147.22 263.53 151.4 277.23 143.85 275.84 140.28" fill="#1e4549" opacity="0.33"/><polygon points="256.23 89.93 258.97 113.06 264.13 110.22 256.23 89.93" fill="#1e4549" opacity="0.33"/><polygon points="279.39 149.4 264.26 157.58 264.81 162.15 280.9 153.28 279.39 149.4" fill="#1e4549" opacity="0.33"/><polygon points="268.19 120.66 260.38 124.89 260.88 129.06 269.6 124.25 268.19 120.66" fill="#1e4549" opacity="0.33"/><polygon points="281.35 154.43 264.95 163.31 265.39 167.05 282.58 157.58 281.35 154.43" fill="#1e4549" opacity="0.33"/><polygon points="266.03 172.41 284.41 162.28 283.03 158.74 265.53 168.21 266.17 173.57 266.03 172.41" fill="#1e4549" opacity="0.33"/><polygon points="264.56 111.32 259.12 114.26 259.65 118.79 266.09 115.25 264.56 111.32" fill="#1e4549" opacity="0.33"/><polygon points="266.52 116.35 259.8 119.99 260.24 123.69 267.76 119.55 266.52 116.35" fill="#1e4549" opacity="0.33"/><polygon points="284.41 162.28 284.41 162.28 284.86 163.45 284.41 162.28" fill="#1e4549"/><g opacity="0.82"><polygon points="266.17 173.57 284.86 163.45 284.41 162.28 266.03 172.41 266.17 173.57" fill="#1e4549" opacity="0.82"/><polygon points="282.58 157.58 265.39 167.05 265.53 168.21 283.03 158.74 282.58 157.58" fill="#1e4549" opacity="0.82"/><polygon points="280.9 153.28 264.81 162.15 264.95 163.31 281.35 154.43 280.9 153.28" fill="#1e4549" opacity="0.82"/><polygon points="278.94 148.25 264.13 156.42 264.26 157.58 279.39 149.4 278.94 148.25" fill="#1e4549" opacity="0.82"/><polygon points="269.6 124.25 260.88 129.06 261.02 130.25 270.03 125.37 269.6 124.25" fill="#1e4549" opacity="0.82"/><polygon points="267.76 119.55 260.24 123.69 260.38 124.89 268.19 120.66 267.76 119.55" fill="#1e4549" opacity="0.82"/><polygon points="266.09 115.25 259.65 118.79 259.8 119.99 266.52 116.35 266.09 115.25" fill="#1e4549" opacity="0.82"/><polygon points="264.13 110.22 258.97 113.06 259.12 114.26 264.56 111.32 264.13 110.22" fill="#1e4549" opacity="0.82"/><polygon points="277.23 143.85 263.53 151.4 263.67 152.57 277.68 144.99 277.23 143.85" fill="#1e4549" opacity="0.82"/><polygon points="275.4 139.15 262.89 146.04 263.03 147.22 275.84 140.28 275.4 139.15" fill="#1e4549" opacity="0.82"/><polygon points="273.72 134.85 262.31 141.13 262.45 142.31 274.16 135.97 273.72 134.85" fill="#1e4549" opacity="0.82"/><polygon points="271.76 129.82 261.63 135.4 261.77 136.59 272.2 130.94 271.76 129.82" fill="#1e4549" opacity="0.82"/></g><polygon points="265.89 199.9 256.13 171.71 256.13 90.97 266.17 173.57 265.89 199.9" fill="#1e4549" opacity="0.75"/><path d="M61.74,137.19,9,167.56c-5.59,3.46-.67,8.75,5.06,12l47,27.78,60.64-34.9Z" fill="#ffdaae"/><path d="M256.15,95.09l-56.7-32.91c-2.76-1.6-6.88-.5-9.59,1.18L155.82,83l60.69,34.92Z" fill="#ffdaae"/><polygon points="205.53 124.21 145.46 88.94 72.66 130.9 133.29 165.78 205.53 124.21" fill="#ffdaae"/><path d="M172.07,272.9,194.27,286a24,24,0,0,0,23.75-.17l133.25-76.07-35.84-21Z" fill="#ffdaae"/><polygon points="133.35 179.24 73.28 214.51 159.79 265.64 220.76 230.56 133.35 179.24" fill="#ffdaae"/><path d="M388.57,171.94l-22.4-13L327.4,181.7l36.38,20.93,25.81-14.74C395.33,184.57,394.3,175.27,388.57,171.94Z" fill="#ffdaae"/><path d="M232.68,106.29V61.87L216.32,71v42.23l.34.08C221.82,110.58,227.48,108.94,232.68,106.29Z" fill="#68e1fd"/><path d="M232.68,106.29V61.87L216.32,71v42.23l.34.08C221.82,110.58,227.48,108.94,232.68,106.29Z" fill="#1e4549" opacity="0.33"/><path d="M216.32,113.24V71l-16.61-9.14v43.28C205.59,107.1,210.36,111.64,216.32,113.24Z" fill="#68e1fd"/><polygon points="232.68 61.88 216.32 51.84 199.71 61.88 216.32 71.01 232.68 61.88" fill="#ccc"/><polygon points="199.71 61.88 216.32 71.01 232.68 61.88 232.68 64.09 216.32 73.09 199.71 63.94 199.71 61.88" fill="#1e4549"/><polygon points="201.68 71.54 201.68 68.03 203.77 69.18 203.77 72.54 201.68 71.54" fill="#e0e0e0"/><polygon points="206.88 74.34 206.88 70.84 208.96 71.98 208.96 75.35 206.88 74.34" fill="#e0e0e0"/><polygon points="212.26 77.65 212.26 74.15 214.34 75.29 214.34 78.66 212.26 77.65" fill="#e0e0e0"/><polygon points="201.68 84.1 201.68 80.59 203.77 81.74 203.77 85.11 201.68 84.1" fill="#e0e0e0"/><polygon points="206.88 86.9 206.88 83.4 208.96 84.54 208.96 87.91 206.88 86.9" fill="#e0e0e0"/><polygon points="212.26 90.21 212.26 86.71 214.34 87.85 214.34 91.22 212.26 90.21" fill="#e0e0e0"/><polygon points="201.68 98.47 201.68 94.97 203.77 96.11 203.77 99.48 201.68 98.47" fill="#e0e0e0"/><polygon points="206.88 101.27 206.88 97.77 208.96 98.91 208.96 102.28 206.88 101.27" fill="#e0e0e0"/><polygon points="212.26 104.58 212.26 101.08 214.34 102.22 214.34 105.59 212.26 104.58" fill="#e0e0e0"/><polygon points="231.72 71.58 231.72 68.07 229.64 69.22 229.64 72.58 231.72 71.58" fill="#e0e0e0"/><polygon points="226.53 74.38 226.53 70.88 224.45 72.02 224.45 75.38 226.53 74.38" fill="#e0e0e0"/><polygon points="221.15 77.69 221.15 74.18 219.06 75.33 219.06 78.69 221.15 77.69" fill="#e0e0e0"/><polygon points="231.72 84.14 231.72 80.63 229.64 81.78 229.64 85.14 231.72 84.14" fill="#e0e0e0"/><polygon points="226.53 86.94 226.53 83.44 224.45 84.58 224.45 87.94 226.53 86.94" fill="#e0e0e0"/><polygon points="221.15 90.25 221.15 86.74 219.06 87.89 219.06 91.25 221.15 90.25" fill="#e0e0e0"/><polygon points="231.72 98.51 231.72 95 229.64 96.15 229.64 99.51 231.72 98.51" fill="#e0e0e0"/><polygon points="226.53 101.31 226.53 97.81 224.45 98.95 224.45 102.32 226.53 101.31" fill="#e0e0e0"/><polygon points="221.15 104.62 221.15 101.12 219.06 102.26 219.06 105.63 221.15 104.62" fill="#e0e0e0"/><polygon points="199.71 87.88 216.46 96.55 232.68 88.03 232.68 91.5 216.32 100 199.71 91.5 199.71 87.88" fill="#2e5b5a"/><polygon points="199.71 102.28 216.46 110.94 232.68 102.43 232.68 105.89 216.32 114.4 199.71 105.89 199.71 102.28" fill="#2e5b5a"/><polygon points="199.71 74.15 216.46 82.81 232.68 74.3 232.68 77.76 216.32 86.27 199.71 77.76 199.71 74.15" fill="#2e5b5a"/><polygon points="271.27 73.33 282.66 66.61 283.57 68.62 272.15 75.22 271.27 73.33" fill="#1e4549" opacity="0.52"/><polygon points="273.33 77.81 284.72 71.08 285.63 73.09 274.21 79.69 273.33 77.81" fill="#1e4549" opacity="0.52"/><polygon points="275.32 82.48 286.7 75.75 287.61 77.77 276.19 84.36 275.32 82.48" fill="#1e4549" opacity="0.52"/><polygon points="277.38 86.95 288.76 80.23 289.67 82.24 278.25 88.83 277.38 86.95" fill="#1e4549" opacity="0.52"/><polygon points="279.1 91.63 290.49 84.9 291.4 86.92 279.98 93.51 279.1 91.63" fill="#1e4549" opacity="0.52"/><polygon points="281.16 96.1 292.55 89.37 293.46 91.39 282.04 97.98 281.16 96.1" fill="#1e4549" opacity="0.52"/><polygon points="283.15 100.78 294.53 94.05 295.44 96.07 284.02 102.66 283.15 100.78" fill="#1e4549" opacity="0.52"/><polygon points="285.21 105.25 296.59 98.52 297.5 100.54 286.08 107.13 285.21 105.25" fill="#1e4549" opacity="0.52"/><g opacity="0.52"><polygon points="284.82 107.59 298.2 100.97 298.2 102.08 284.83 108.72 284.82 107.59" fill="#1e4549"/><polygon points="284.82 110.01 298.2 103.4 298.2 104.51 284.83 111.14 284.82 110.01" fill="#1e4549"/><polygon points="284.66 112.67 298.04 106.06 298.04 107.17 284.67 113.81 284.66 112.67" fill="#1e4549"/><polygon points="284.66 115.09 298.04 108.48 298.04 109.59 284.67 116.23 284.66 115.09" fill="#1e4549"/><polygon points="284.66 117.76 298.04 111.14 298.04 112.25 284.67 118.89 284.66 117.76" fill="#1e4549"/><polygon points="284.66 120.18 298.04 113.56 298.04 114.67 284.67 121.31 284.66 120.18" fill="#1e4549"/><polygon points="284.82 122.84 298.2 116.23 298.2 117.34 284.83 123.97 284.82 122.84" fill="#1e4549"/><polygon points="284.82 125.26 298.2 118.65 298.2 119.76 284.83 126.4 284.82 125.26" fill="#1e4549"/><polygon points="284.66 127.92 298.04 121.31 298.04 122.42 284.67 129.06 284.66 127.92" fill="#1e4549"/><polygon points="284.66 130.35 298.04 123.73 298.04 124.84 284.67 131.48 284.66 130.35" fill="#1e4549"/><polygon points="284.66 133.01 298.04 126.4 298.04 127.51 284.67 134.14 284.66 133.01" fill="#1e4549"/><polygon points="284.66 135.43 298.04 128.82 298.04 129.93 284.67 136.56 284.66 135.43" fill="#1e4549"/></g><g opacity="0.52"><polygon points="284.9 137.86 298.28 131.25 298.28 132.35 284.91 138.99 284.9 137.86" fill="#1e4549"/><polygon points="284.9 140.28 298.28 133.67 298.28 134.78 284.91 141.41 284.9 140.28" fill="#1e4549"/><polygon points="284.74 142.94 298.12 136.33 298.12 137.44 284.75 144.08 284.74 142.94" fill="#1e4549"/><polygon points="284.74 145.37 298.12 138.75 298.12 139.86 284.75 146.5 284.74 145.37" fill="#1e4549"/><polygon points="284.74 148.03 298.12 141.41 298.12 142.52 284.75 149.16 284.74 148.03" fill="#1e4549"/><polygon points="284.74 150.45 298.12 143.84 298.12 144.94 284.75 151.58 284.74 150.45" fill="#1e4549"/><polygon points="284.9 153.11 298.28 146.5 298.28 147.61 284.91 154.24 284.9 153.11" fill="#1e4549"/><polygon points="284.9 155.53 298.28 148.92 298.28 150.03 284.91 156.67 284.9 155.53" fill="#1e4549"/><polygon points="284.74 158.2 298.12 151.58 298.12 152.69 284.75 159.33 284.74 158.2" fill="#1e4549"/><polygon points="284.74 160.62 298.12 154 298.12 155.11 284.75 161.75 284.74 160.62" fill="#1e4549"/><polygon points="284.74 163.28 298.12 156.67 298.12 157.78 284.75 164.41 284.74 163.28" fill="#1e4549"/></g><polygon points="265.77 200.86 298.2 182.57 298.28 179.78 265.77 198.16 265.77 200.86" fill="#1e4549" opacity="0.52"/><polygon points="265.77 194.87 298.2 176.58 298.28 173.79 265.77 192.17 265.77 194.87" fill="#1e4549" opacity="0.52"/><polygon points="265.77 188.65 298.2 170.36 298.28 167.57 265.77 185.95 265.77 188.65" fill="#1e4549" opacity="0.52"/><polygon points="265.77 181.62 298.2 163.33 298.28 160.54 265.77 178.92 265.77 181.62" fill="#1e4549" opacity="0.52"/><path d="M164.12,258.11l-43.25-25.56c-1.38-.77-2.56-2-1.22-2.87l43.4-25a2.44,2.44,0,0,1,2.3-.28l45.4,26.35c1.38.8,1.62,3,.25,3.83l-41.19,23.51A5.75,5.75,0,0,1,164.12,258.11Z" fill="#254068"/><polyline points="119.09 227.04 119.09 230.39 211.93 232.86 211.93 229.16" fill="#254068"/><path d="M164.12,254.43l-43.25-25.56c-1.38-.77-2.56-2-1.22-2.87l43.4-25a2.44,2.44,0,0,1,2.3-.28L210.77,227c1.38.8,1.62,3,.25,3.83l-41.19,23.51A5.75,5.75,0,0,1,164.12,254.43Z" fill="#7a7a7a"/><path d="M310.07,166.78l2-1.85,9.12,4.31c-.94.48-2.29,1.3-3.61,2.07A66.55,66.55,0,0,1,310.07,166.78Z" opacity="0.68" fill="url(#linear-gradient-2)" style="mix-blend-mode:multiply"/><rect x="309.96" y="151.1" width="2.36" height="15.65" rx="1.13" ry="1.13" transform="translate(622.29 317.85) rotate(-180)" fill="#bc532a"/><path d="M305.32,154.3c.54-2.36,3-12.77,7.25-9.71,2.2,1.57,2.82,4,3.69,6.41a19.09,19.09,0,0,1,1.36,6.2c.07,4.33-4.34,4.86-7.71,4.84-1.94,0-4.72-1.16-5.17-3.27a10.12,10.12,0,0,1,.46-4Z" fill="#2c9135"/><path d="M305.11,154.76l.1-.46c.48-2.09,2.43-10.47,5.84-10.26-1,4.42-2.5,9.08-1.71,13.6a10.34,10.34,0,0,0,1.8,4.38c-.45,0-.9,0-1.33,0-1.94,0-4.72-1.16-5.17-3.27A10.11,10.11,0,0,1,305.11,154.76Z" fill="#156819"/><path d="M267.56,227.95l2-1.85,9.12,4.31c-.94.48-2.29,1.3-3.61,2.07A66.55,66.55,0,0,1,267.56,227.95Z" opacity="0.68" fill="url(#linear-gradient-3)" style="mix-blend-mode:multiply"/><rect x="267.46" y="212.26" width="2.36" height="15.65" rx="1.13" ry="1.13" transform="translate(537.28 440.18) rotate(-180)" fill="#bc532a"/><path d="M262.81,215.47c.54-2.36,3-12.77,7.25-9.71,2.2,1.57,2.82,4,3.69,6.41a19.09,19.09,0,0,1,1.36,6.2c.07,4.33-4.34,4.86-7.71,4.84-1.94,0-4.72-1.16-5.17-3.27a10.12,10.12,0,0,1,.46-4Z" fill="#2c9135"/><path d="M262.6,215.93l.1-.46c.48-2.09,2.43-10.47,5.84-10.26-1,4.42-2.5,9.08-1.71,13.6a10.34,10.34,0,0,0,1.8,4.38c-.45,0-.9,0-1.33,0-1.94,0-4.72-1.16-5.17-3.27A10.11,10.11,0,0,1,262.6,215.93Z" fill="#156819"/><path d="M245.32,238.87l2-1.85,9.12,4.31c-.94.48-2.29,1.3-3.61,2.07A66.55,66.55,0,0,1,245.32,238.87Z" opacity="0.68" fill="url(#linear-gradient-4)" style="mix-blend-mode:multiply"/><rect x="245.21" y="223.19" width="2.36" height="15.65" rx="1.13" ry="1.13" transform="translate(492.79 462.03) rotate(-180)" fill="#bc532a"/><path d="M240.56,226.39c.54-2.36,3-12.77,7.25-9.71,2.2,1.57,2.82,4,3.69,6.41a19.09,19.09,0,0,1,1.36,6.2c.07,4.33-4.34,4.86-7.71,4.84-1.94,0-4.72-1.16-5.17-3.27a10.12,10.12,0,0,1,.46-4Z" fill="#2c9135"/><path d="M240.36,226.85l.1-.46c.48-2.09,2.43-10.47,5.84-10.26-1,4.42-2.5,9.08-1.71,13.6a10.34,10.34,0,0,0,1.8,4.38c-.45,0-.9,0-1.33,0-1.94,0-4.72-1.16-5.17-3.27A10.11,10.11,0,0,1,240.36,226.85Z" fill="#156819"/><path d="M226.38,252.43l2-1.85,9.12,4.31c-.94.48-2.29,1.3-3.61,2.07A66.55,66.55,0,0,1,226.38,252.43Z" opacity="0.68" fill="url(#linear-gradient-5)" style="mix-blend-mode:multiply"/><rect x="226.27" y="236.75" width="2.36" height="15.65" rx="1.13" ry="1.13" transform="translate(454.91 489.14) rotate(-180)" fill="#bc532a"/><path d="M221.63,239.95c.54-2.36,3-12.77,7.25-9.71,2.2,1.57,2.82,4,3.69,6.41a19.09,19.09,0,0,1,1.36,6.2c.07,4.33-4.34,4.86-7.71,4.84-1.94,0-4.72-1.16-5.17-3.27a10.12,10.12,0,0,1,.46-4Z" fill="#2c9135"/><path d="M221.42,240.41l.1-.46c.48-2.09,2.43-10.47,5.84-10.26-1,4.42-2.5,9.08-1.71,13.6a10.34,10.34,0,0,0,1.8,4.38c-.45,0-.9,0-1.33,0-1.94,0-4.72-1.16-5.17-3.27A10.11,10.11,0,0,1,221.42,240.41Z" fill="#156819"/><path d="M204.14,263.35l2-1.85,9.12,4.31c-.94.48-2.29,1.3-3.61,2.07A66.55,66.55,0,0,1,204.14,263.35Z" opacity="0.68" fill="url(#linear-gradient-6)" style="mix-blend-mode:multiply"/><rect x="204.03" y="247.67" width="2.36" height="15.65" rx="1.13" ry="1.13" transform="translate(410.42 510.99) rotate(-180)" fill="#bc532a"/><path d="M199.38,250.87c.54-2.36,3-12.77,7.25-9.71,2.2,1.57,2.82,4,3.69,6.41a19.09,19.09,0,0,1,1.36,6.2c.07,4.33-4.34,4.86-7.71,4.84-1.94,0-4.72-1.16-5.17-3.27a10.12,10.12,0,0,1,.46-4Z" fill="#2c9135"/><path d="M199.18,251.33l.1-.46c.48-2.09,2.43-10.47,5.84-10.26-1,4.42-2.5,9.08-1.71,13.6a10.34,10.34,0,0,0,1.8,4.38c-.45,0-.9,0-1.33,0-1.94,0-4.72-1.16-5.17-3.27A10.11,10.11,0,0,1,199.18,251.33Z" fill="#156819"/><path d="M124,157.45l2-1.85,9.12,4.31c-.94.48-2.29,1.3-3.61,2.07A66.55,66.55,0,0,1,124,157.45Z" opacity="0.68" fill="url(#linear-gradient-7)" style="mix-blend-mode:multiply"/><rect x="123.93" y="141.77" width="2.36" height="15.65" rx="1.13" ry="1.13" transform="translate(250.22 299.18) rotate(-180)" fill="#bc532a"/><path d="M119.28,145c.54-2.36,3-12.77,7.25-9.71,2.2,1.57,2.82,4,3.69,6.41a19.09,19.09,0,0,1,1.36,6.2c.07,4.33-4.34,4.86-7.71,4.84-1.94,0-4.72-1.16-5.17-3.27a10.12,10.12,0,0,1,.46-4Z" fill="#2c9135"/><path d="M119.08,145.43l.1-.46c.48-2.09,2.43-10.47,5.84-10.26-1,4.42-2.5,9.08-1.71,13.6a10.34,10.34,0,0,0,1.8,4.38c-.45,0-.9,0-1.33,0-1.94,0-4.72-1.16-5.17-3.27A10.11,10.11,0,0,1,119.08,145.43Z" fill="#156819"/><path d="M328.75,155.61l2-1.85,9.12,4.31c-.94.48-2.29,1.3-3.61,2.07A66.55,66.55,0,0,1,328.75,155.61Z" opacity="0.68" fill="url(#linear-gradient-8)" style="mix-blend-mode:multiply"/><rect x="328.65" y="139.93" width="2.36" height="15.65" rx="1.13" ry="1.13" transform="translate(659.66 295.5) rotate(-180)" fill="#bc532a"/><path d="M324,143.13c.54-2.36,3-12.77,7.25-9.71,2.2,1.57,2.82,4,3.69,6.41a19.09,19.09,0,0,1,1.36,6.2c.07,4.33-4.34,4.86-7.71,4.84-1.94,0-4.72-1.16-5.17-3.27a10.12,10.12,0,0,1,.46-4Z" fill="#2c9135"/><path d="M323.79,143.59l.1-.46c.48-2.09,2.43-10.47,5.84-10.26-1,4.42-2.5,9.08-1.71,13.6a10.34,10.34,0,0,0,1.8,4.38c-.45,0-.9,0-1.33,0-1.94,0-4.72-1.16-5.17-3.27A10.11,10.11,0,0,1,323.79,143.59Z" fill="#156819"/><path d="M184.42,260.16s-32.33-30.67-34.15-31.93l26.32-8,44.69,18.3C218.9,240.29,186.81,258.44,184.42,260.16Z" opacity="0.68" fill="url(#linear-gradient-9)" style="mix-blend-mode:multiply"/><path d="M99.91,207.22S58.2,184,56.38,182.74l40.71-11.49L130.71,190C128.33,191.7,102.29,205.51,99.91,207.22Z" opacity="0.68" fill="url(#linear-gradient-10)" style="mix-blend-mode:multiply"/><path d="M140,220.84s-22-11.87-23.05-12.58l21.47-7.71,19,10.56C156,212.09,141.3,219.87,140,220.84Z" opacity="0.68" fill="url(#linear-gradient-11)" style="mix-blend-mode:multiply"/><polygon points="101.36 179.77 101.36 64.4 76.2 78.45 76.2 194.28 101.36 179.77" fill="#68e1fd"/><polygon points="101.36 179.77 101.36 64.4 76.2 78.45 76.2 194.28 101.36 179.77" fill="#1e4549" opacity="0.33"/><polygon points="76.2 78.45 50.65 64.4 50.65 179.28 76.2 194.28 76.2 78.45" fill="#68e1fd"/><polygon points="101.36 64.4 76.2 48.96 50.65 64.4 76.2 78.45 101.36 64.4" fill="#9d9ca1"/><polyline points="95.33 49.51 95.33 63.05 75.25 74.66 55.17 63.05 55.17 49.51" fill="#cc9825"/><polygon points="95.33 49.51 75.4 37.29 55.17 49.51 75.4 60.64 95.33 49.51" fill="#f9e1aa"/><polygon points="50.65 72.53 76.42 85.85 101.36 72.76 101.36 74.78 76.43 87.87 50.65 74.54 50.65 72.53" fill="#ccc"/><polygon points="50.65 80.89 76.42 94.21 101.36 81.12 101.36 83.14 76.43 96.23 50.65 82.9 50.65 80.89" fill="#ccc"/><polygon points="50.65 90 76.52 103.38 101.36 90.34 101.36 92.36 76.53 105.39 50.65 92.01 50.65 90" fill="#ccc"/><polygon points="50.65 98.26 76.72 111.74 101.36 98.81 101.36 100.83 76.73 113.76 50.65 100.27 50.65 98.26" fill="#ccc"/><polygon points="50.65 106.31 76.32 119.58 101.36 106.43 101.36 108.45 76.32 121.59 50.65 108.32 50.65 106.31" fill="#ccc"/><polygon points="50.65 114.56 76.52 127.94 101.36 114.9 101.36 116.92 76.53 129.96 50.65 116.57 50.65 114.56" fill="#ccc"/><polygon points="50.65 122.73 76.22 135.95 101.36 122.74 101.36 124.76 76.22 137.96 50.65 124.74 50.65 122.73" fill="#ccc"/><polygon points="50.65 131.26 76.42 144.58 101.36 131.49 101.36 133.5 76.43 146.59 50.65 133.27 50.65 131.26" fill="#ccc"/><polygon points="50.65 139.78 76.62 153.21 101.36 140.22 101.36 142.24 76.63 155.22 50.65 141.79 50.65 139.78" fill="#ccc"/><polygon points="50.65 148.03 76.83 161.57 101.36 148.69 101.36 150.71 76.83 163.58 50.65 150.04 50.65 148.03" fill="#ccc"/><polygon points="50.65 157.17 76.22 170.39 101.36 157.19 101.36 159.21 76.22 172.41 50.65 159.18 50.65 157.17" fill="#ccc"/><polygon points="50.65 165.43 76.42 178.75 101.36 165.66 101.36 167.68 76.43 180.77 50.65 167.44 50.65 165.43" fill="#ccc"/><polygon points="50.65 173.46 76.52 186.84 101.36 173.79 101.36 175.81 76.53 188.85 50.65 175.47 50.65 173.46" fill="#ccc"/><polygon points="78.3 63.54 78.3 67.79 93.55 59.1 93.55 55.01 78.3 63.54" fill="#fff"/><polygon points="72.8 64.23 72.8 68.47 57.55 59.79 57.55 55.69 72.8 64.23" fill="#fff"/><path d="M142.79,208.57V173.7l-12.84,7.17V214l.27.06C134.27,211.94,138.71,210.65,142.79,208.57Z" fill="#68e1fd"/><path d="M142.79,208.57V173.7l-12.84,7.17V214l.27.06C134.27,211.94,138.71,210.65,142.79,208.57Z" fill="#1e4549" opacity="0.33"/><path d="M129.95,214V180.87l-13-7.17v34C121.52,209.21,125.27,212.77,129.95,214Z" fill="#68e1fd"/><polygon points="142.79 173.7 129.95 165.82 116.9 173.7 129.95 180.87 142.79 173.7" fill="#ccc"/><polygon points="116.9 173.7 129.95 180.87 142.79 173.7 142.79 175.44 129.95 182.5 116.9 175.31 116.9 173.7" fill="#1e4549"/><polygon points="118.45 181.29 118.45 178.53 120.09 179.43 120.09 182.07 118.45 181.29" fill="#e0e0e0"/><polygon points="122.53 183.49 122.53 180.73 124.17 181.63 124.17 184.28 122.53 183.49" fill="#e0e0e0"/><polygon points="126.76 186.08 126.76 183.33 128.4 184.23 128.4 186.87 126.76 186.08" fill="#e0e0e0"/><polygon points="118.45 191.15 118.45 188.4 120.09 189.29 120.09 191.94 118.45 191.15" fill="#e0e0e0"/><polygon points="122.53 193.35 122.53 190.6 124.17 191.5 124.17 194.14 122.53 193.35" fill="#e0e0e0"/><polygon points="126.76 195.95 126.76 193.19 128.4 194.09 128.4 196.74 126.76 195.95" fill="#e0e0e0"/><polygon points="118.45 202.43 118.45 199.68 120.09 200.58 120.09 203.22 118.45 202.43" fill="#e0e0e0"/><polygon points="122.53 204.63 122.53 201.88 124.17 202.78 124.17 205.42 122.53 204.63" fill="#e0e0e0"/><polygon points="126.76 207.23 126.76 204.48 128.4 205.38 128.4 208.02 126.76 207.23" fill="#e0e0e0"/><polygon points="142.04 181.31 142.04 178.56 140.41 179.46 140.41 182.1 142.04 181.31" fill="#e0e0e0"/><polygon points="137.97 183.51 137.97 180.76 136.33 181.66 136.33 184.31 137.97 183.51" fill="#e0e0e0"/><polygon points="133.74 186.11 133.74 183.36 132.1 184.26 132.1 186.9 133.74 186.11" fill="#e0e0e0"/><polygon points="142.04 191.18 142.04 188.43 140.41 189.32 140.41 191.97 142.04 191.18" fill="#e0e0e0"/><polygon points="137.97 193.38 137.97 190.63 136.33 191.52 136.33 194.17 137.97 193.38" fill="#e0e0e0"/><polygon points="133.74 195.98 133.74 193.22 132.1 194.12 132.1 196.77 133.74 195.98" fill="#e0e0e0"/><polygon points="142.04 202.46 142.04 199.71 140.41 200.61 140.41 203.25 142.04 202.46" fill="#e0e0e0"/><polygon points="137.97 204.66 137.97 201.91 136.33 202.81 136.33 205.45 137.97 204.66" fill="#e0e0e0"/><polygon points="133.74 207.26 133.74 204.51 132.1 205.41 132.1 208.05 133.74 207.26" fill="#e0e0e0"/><polygon points="116.9 194.12 130.06 200.92 142.79 194.24 142.79 196.96 129.95 203.64 116.9 196.96 116.9 194.12" fill="#2e5b5a"/><polygon points="116.9 205.42 130.06 212.22 142.79 205.54 142.79 208.26 129.95 214.94 116.9 208.26 116.9 205.42" fill="#2e5b5a"/><polygon points="116.9 183.33 130.06 190.13 142.79 183.45 142.79 186.17 129.95 192.85 116.9 186.17 116.9 183.33" fill="#2e5b5a"/><polyline points="158.82 141.04 164.96 148.29 164.96 164.48 158.36 158.52" fill="#c4873f"/><polyline points="158.82 171.05 164.96 178.31 164.96 194.49 158.36 188.54" fill="#c4873f"/><polyline points="158.82 207 164.96 214.26 164.96 230.44 158.36 224.49" fill="#c4873f"/><polyline points="176.97 141.73 170.84 148.98 170.84 165.17 177.44 159.21" fill="#c4873f"/><polyline points="176.97 171.74 170.84 179 170.84 195.18 177.44 189.23" fill="#c4873f"/><polyline points="176.97 207.69 170.84 214.95 170.84 231.13 177.44 225.18" fill="#c4873f"/><rect x="164.2" y="122.57" width="6.98" height="119.34" rx="2.58" ry="2.58" fill="#f4ca8e"/><rect x="176.07" y="110.34" width="6.98" height="119.34" rx="2.58" ry="2.58" fill="#f4ca8e"/><rect x="152.19" y="110.34" width="6.98" height="119.34" rx="2.58" ry="2.58" fill="#f4ca8e"/><path d="M171.18,137.53V125a2.44,2.44,0,0,0-2.44-2.44h-2.1A2.44,2.44,0,0,0,164.2,125v17.11Z" fill="#e2aa6d"/><path d="M183.05,130.07V112.78a2.44,2.44,0,0,0-2.44-2.44h-2.1a2.44,2.44,0,0,0-2.44,2.44v21.57C178.37,132.88,180.7,131.45,183.05,130.07Z" fill="#e2aa6d"/><path d="M159.17,145.38V112.78a2.44,2.44,0,0,0-2.44-2.44h-2.1a2.44,2.44,0,0,0-2.44,2.44v37.09Z" fill="#e2aa6d"/><path d="M144.57,87.31a38.85,38.85,0,0,1-6-2.4,30.53,30.53,0,0,0,2.86,25.75c.63.33,1.28.59,1.92.89V89.07A1.76,1.76,0,0,1,144.57,87.31Z" fill="#406099"/><path d="M172.88,90.08c-2.08.14-4.26.23-6.54.23-1.84,0-3.58-.06-5.24-.15v25.92a72.25,72.25,0,0,0,11.64,0V90.75A1.92,1.92,0,0,1,172.88,90.08Z" fill="#406099"/><path d="M157.25,89.84a68.26,68.26,0,0,1-10.49-1.9,1.77,1.77,0,0,1,.4,1.13v22.62a1.76,1.76,0,0,1-.49,1.25,53,53,0,0,0,10.57,2.68V89.91S157.25,89.86,157.25,89.84Z" fill="#406099"/><path d="M198.48,94.73A30.71,30.71,0,0,0,196.9,85a73.08,73.08,0,0,1-10.11,3,1.81,1.81,0,0,1,1.85,1.85v23.44c1.75-.46,3.29-.92,4.51-1.31A30.64,30.64,0,0,0,198.48,94.73Z" fill="#406099"/><path d="M185.78,88.28a91.55,91.55,0,0,1-9.45,1.5,1.82,1.82,0,0,1,.28,1v24.93c3-.37,5.7-.86,8.16-1.4V89.91A1.72,1.72,0,0,1,185.78,88.28Z" fill="#406099"/><path d="M144.57,87.31c.68.21,1.42.42,2.2.63A2,2,0,0,0,144.57,87.31Z" fill="#254068"/><path d="M147.16,89.07a1.77,1.77,0,0,0-.4-1.13c-.78-.21-1.52-.42-2.2-.63a1.76,1.76,0,0,0-1.27,1.76v22.48q1.67.77,3.37,1.4a1.76,1.76,0,0,0,.49-1.25Z" fill="#254068"/><path d="M161.1,89.91c0-2.46-3.77-2.48-3.85-.07,1.23.13,2.51.24,3.85.32Z" fill="#254068"/><path d="M157.25,89.84s0,0,0,.07v25.72q1.94.29,3.87.45V90.16C159.76,90.08,158.48,90,157.25,89.84Z" fill="#254068"/><path d="M172.88,90.08q1.77-.12,3.45-.3A2,2,0,0,0,172.88,90.08Z" fill="#254068"/><path d="M176.33,89.78q-1.67.18-3.45.3a1.92,1.92,0,0,0-.14.67v25.32q2-.16,3.87-.39V90.75A1.82,1.82,0,0,0,176.33,89.78Z" fill="#254068"/><path d="M185.78,88.28l1-.23A2.1,2.1,0,0,0,185.78,88.28Z" fill="#254068"/><path d="M186.79,88.05l-1,.23a1.72,1.72,0,0,0-1,1.63v24.37c1.39-.3,2.68-.62,3.87-.93V89.91A1.81,1.81,0,0,0,186.79,88.05Z" fill="#254068"/><path d="M149.56,119.58a30.67,30.67,0,0,0,36.58-.22,58.82,58.82,0,0,1-18.2,2.84A66.7,66.7,0,0,1,149.56,119.58Z" fill="#f4ca8e"/><path d="M190.11,115.8a31,31,0,0,0,3-3.76c-8.71,2.8-32.25,8.71-51.77-1.38a31.07,31.07,0,0,0,4.33,5.56C147.22,116.86,168.14,125.24,190.11,115.8Z" fill="#f4ca8e"/><path d="M190.11,115.8c-22,9.43-42.9,1.06-44.41.43a31,31,0,0,0,3.85,3.35,66.7,66.7,0,0,0,18.38,2.62,58.82,58.82,0,0,0,18.2-2.84A31,31,0,0,0,190.11,115.8Z" fill="#c4873f"/><path d="M170.84,91.6l-19.21,22.89s-7-1.66-10.25-3.83A31,31,0,0,1,137,97.39a35,35,0,0,1,1.42-12.29Z" fill="#254068" opacity="0.32"/><path d="M196.9,85a30.77,30.77,0,0,0-58.38-.13c2.73,1.4,11.89,5.4,27.83,5.4A86.85,86.85,0,0,0,196.9,85Z" fill="#f4ca8e"/><ellipse cx="167.69" cy="85.11" rx="29.26" ry="6.5" fill="#e2ac64"/><path d="M151.41,68.35l-2.85,2.24s12.45,14.58,20,13.28,19.23-11.49,19.85-11.93l-3-2.39L184,68.35" fill="#c4873f"/><path d="M151.41,68.35c-.42.09,11,9.63,16.23,10.23S184,68.35,184,68.35,160.94,66.41,151.41,68.35Z" fill="#e2ac64"/><path d="M149.86,83.49a1.35,1.35,0,0,0,0,2.7A1.35,1.35,0,0,0,149.86,83.49Z" fill="#406099"/><path d="M148.26,75.28a1.35,1.35,0,0,0,0,2.7A1.35,1.35,0,0,0,148.26,75.28Z" fill="#406099"/><path d="M163.83,85.7a1.35,1.35,0,0,0,0,2.7A1.35,1.35,0,0,0,163.83,85.7Z" fill="#406099"/><path d="M166.53,75.77a1.35,1.35,0,0,0,0,2.7A1.35,1.35,0,0,0,166.53,75.77Z" fill="#406099"/><path d="M169.84,67.8a1.35,1.35,0,0,0,0,2.7A1.35,1.35,0,0,0,169.84,67.8Z" fill="#406099"/><path d="M181.45,75a1.35,1.35,0,0,0,0,2.7A1.35,1.35,0,0,0,181.45,75Z" fill="#406099"/><path d="M190.55,83a1.35,1.35,0,0,0,0,2.7A1.35,1.35,0,0,0,190.55,83Z" fill="#406099"/><polyline points="141.38 88.17 149.57 84.91 157.25 73.05 166.99 77.12 169.84 69.16 181.73 76.38 188.68 73.05 190.55 84.36 178.51 81.69 172.74 90.75 163.83 87.05 158.36 77.98 147.77 76.63 140.69 79.95 157.24 91.17 169.22 81.66 183.05 89.49 195.25 81.03" fill="none" stroke="#406099" stroke-miterlimit="10" stroke-width="0.5"/><polyline points="151.41 68.35 162.53 69.98 165.14 63.93" fill="none" stroke="#406099" stroke-miterlimit="10" stroke-width="0.5"/><line x1="169.84" y1="69.15" x2="178.51" y2="65.89" fill="none" stroke="#406099" stroke-miterlimit="10" stroke-width="0.5"/><path d="M162.46,68.52a1.35,1.35,0,0,0,0,2.7A1.35,1.35,0,0,0,162.46,68.52Z" fill="#406099"/><path d="M157.86,77.26a1.35,1.35,0,0,0,0,2.7A1.35,1.35,0,0,0,157.86,77.26Z" fill="#406099"/><path d="M168.85,80.85a1.35,1.35,0,0,0,0,2.7A1.35,1.35,0,0,0,168.85,80.85Z" fill="#406099"/><path d="M179.3,80.85a1.35,1.35,0,0,0,0,2.7A1.35,1.35,0,0,0,179.3,80.85Z" fill="#406099"/><path d="M242.32,205.6S205.86,185.21,204,184l27-9.58,33.62,18.73C262.24,194.83,244.7,203.88,242.32,205.6Z" opacity="0.68" fill="url(#linear-gradient-12)" style="mix-blend-mode:multiply"/><polygon points="237.91 184.29 237.91 107.22 221.11 116.6 221.11 193.98 237.91 184.29" fill="#68e1fd"/><polygon points="237.91 184.29 237.91 107.22 221.11 116.6 221.11 193.98 237.91 184.29" fill="#1e4549" opacity="0.33"/><polygon points="221.11 116.6 204.04 107.22 204.04 183.96 221.11 193.98 221.11 116.6" fill="#68e1fd"/><polygon points="237.91 107.22 221.11 96.9 204.04 107.22 221.11 116.6 237.91 107.22" fill="#9d9ca1"/><polygon points="204.04 112.65 221.25 121.55 237.91 112.8 237.91 114.15 221.26 122.89 204.04 113.99 204.04 112.65" fill="#ccc"/><polygon points="204.04 118.23 221.25 127.13 237.91 118.39 237.91 119.73 221.26 128.48 204.04 119.58 204.04 118.23" fill="#ccc"/><polygon points="204.04 124.32 221.32 133.26 237.91 124.55 237.91 125.89 221.33 134.6 204.04 125.66 204.04 124.32" fill="#ccc"/><polygon points="204.04 129.84 221.46 138.84 237.91 130.2 237.91 131.55 221.46 140.19 204.04 131.18 204.04 129.84" fill="#ccc"/><polygon points="204.04 135.21 221.19 144.08 237.91 135.29 237.91 136.64 221.19 145.42 204.04 136.55 204.04 135.21" fill="#ccc"/><polygon points="204.04 140.73 221.32 149.66 237.91 140.95 237.91 142.3 221.33 151.01 204.04 142.07 204.04 140.73" fill="#ccc"/><polygon points="204.04 146.18 221.12 155.01 237.91 146.19 237.91 147.54 221.12 156.36 204.04 147.52 204.04 146.18" fill="#ccc"/><polygon points="204.04 151.88 221.25 160.78 237.91 152.03 237.91 153.38 221.26 162.13 204.04 153.22 204.04 151.88" fill="#ccc"/><polygon points="204.04 157.57 221.39 166.54 237.91 157.87 237.91 159.21 221.39 167.89 204.04 158.91 204.04 157.57" fill="#ccc"/><polygon points="204.04 163.09 221.53 172.13 237.91 163.52 237.91 164.87 221.53 173.47 204.04 164.43 204.04 163.09" fill="#ccc"/><polygon points="204.04 169.19 221.12 178.02 237.91 169.2 237.91 170.55 221.12 179.37 204.04 170.53 204.04 169.19" fill="#ccc"/><polygon points="204.04 174.71 221.25 183.61 237.91 174.86 237.91 176.21 221.26 184.95 204.04 176.05 204.04 174.71" fill="#ccc"/><polygon points="204.04 180.07 221.32 189.01 237.91 180.29 237.91 181.64 221.33 190.35 204.04 181.41 204.04 180.07" fill="#ccc"/><path d="M289.92,213.46l2-1.85,9.12,4.31c-.94.48-2.29,1.3-3.61,2.07A66.55,66.55,0,0,1,289.92,213.46Z" opacity="0.68" fill="url(#linear-gradient-13)" style="mix-blend-mode:multiply"/><rect x="289.81" y="197.77" width="2.36" height="15.65" rx="1.13" ry="1.13" transform="translate(581.99 411.19) rotate(-180)" fill="#bc532a"/><path d="M285.16,201c.54-2.36,3-12.77,7.25-9.71,2.2,1.57,2.82,4,3.69,6.41a19.09,19.09,0,0,1,1.36,6.2c.07,4.33-4.34,4.86-7.71,4.84-1.94,0-4.72-1.16-5.17-3.27a10.12,10.12,0,0,1,.46-4Z" fill="#2c9135"/><path d="M285,201.43l.1-.46c.48-2.09,2.43-10.47,5.84-10.26-1,4.42-2.5,9.08-1.71,13.6a10.34,10.34,0,0,0,1.8,4.38c-.45,0-.9,0-1.33,0-1.94,0-4.72-1.16-5.17-3.27A10.11,10.11,0,0,1,285,201.43Z" fill="#156819"/><path d="M312.16,202.53l2-1.85,9.12,4.31c-.94.48-2.29,1.3-3.61,2.07A66.55,66.55,0,0,1,312.16,202.53Z" opacity="0.68" fill="url(#linear-gradient-14)" style="mix-blend-mode:multiply"/><rect x="312.06" y="186.85" width="2.36" height="15.65" rx="1.13" ry="1.13" transform="translate(626.47 389.34) rotate(-180)" fill="#bc532a"/><path d="M307.41,190c.54-2.36,3-12.77,7.25-9.71,2.2,1.57,2.82,4,3.69,6.41a19.09,19.09,0,0,1,1.36,6.2c.07,4.33-4.34,4.86-7.71,4.84-1.94,0-4.72-1.16-5.17-3.27a10.12,10.12,0,0,1,.46-4Z" fill="#2c9135"/><path d="M307.2,190.51l.1-.46c.48-2.09,2.43-10.47,5.84-10.26-1,4.42-2.5,9.08-1.71,13.6a10.34,10.34,0,0,0,1.8,4.38c-.45,0-.9,0-1.33,0-1.94,0-4.72-1.16-5.17-3.27A10.11,10.11,0,0,1,307.2,190.51Z" fill="#156819"/><path d="M56.76,199.71l2-1.85,9.12,4.31c-.94.48-2.29,1.3-3.61,2.07A66.55,66.55,0,0,1,56.76,199.71Z" opacity="0.68" fill="url(#linear-gradient-15)" style="mix-blend-mode:multiply"/><rect x="56.65" y="184.02" width="2.36" height="15.65" rx="1.13" ry="1.13" transform="translate(115.66 383.7) rotate(-180)" fill="#bc532a"/><path d="M52,187.23c.54-2.36,3-12.77,7.25-9.71,2.2,1.57,2.82,4,3.69,6.41a19.09,19.09,0,0,1,1.36,6.2C64.38,194.46,60,195,56.6,195c-1.94,0-4.72-1.16-5.17-3.27a10.12,10.12,0,0,1,.46-4Z" fill="#2c9135"/><path d="M51.8,187.68l.1-.46c.48-2.09,2.43-10.47,5.84-10.26-1,4.42-2.5,9.08-1.71,13.6a10.34,10.34,0,0,0,1.8,4.38c-.45,0-.9,0-1.33,0-1.94,0-4.72-1.16-5.17-3.27A10.11,10.11,0,0,1,51.8,187.68Z" fill="#156819"/><path d="M208.9,206.17l2-1.85,9.12,4.31c-.94.48-2.29,1.3-3.61,2.07A66.55,66.55,0,0,1,208.9,206.17Z" opacity="0.68" fill="url(#linear-gradient-16)" style="mix-blend-mode:multiply"/><rect x="208.8" y="190.49" width="2.36" height="15.65" rx="1.13" ry="1.13" transform="translate(419.95 396.63) rotate(180)" fill="#bc532a"/><path d="M204.15,193.69c.54-2.36,3-12.77,7.25-9.71,2.2,1.57,2.82,4,3.69,6.41a19.09,19.09,0,0,1,1.36,6.2c.07,4.33-4.34,4.86-7.71,4.84-1.94,0-4.72-1.16-5.17-3.27a10.12,10.12,0,0,1,.46-4Z" fill="#2c9135"/><path d="M203.94,194.15l.1-.46c.48-2.09,2.43-10.47,5.84-10.26-1,4.42-2.5,9.08-1.71,13.6a10.34,10.34,0,0,0,1.8,4.38c-.45,0-.9,0-1.33,0-1.94,0-4.72-1.16-5.17-3.27A10.11,10.11,0,0,1,203.94,194.15Z" fill="#156819"/></g></g></svg>