<svg xmlns="http://www.w3.org/2000/svg" xmlns:xlink="http://www.w3.org/1999/xlink" viewBox="0 0 400 300"><defs><linearGradient id="linear-gradient" x1="178.08" y1="251.82" x2="194.07" y2="266.35" gradientUnits="userSpaceOnUse"><stop offset="0" stop-color="#d4a397"/><stop offset="1" stop-color="#fff"/></linearGradient><pattern id="_10_dpi_10_" data-name="10 dpi 10%" width="28.8" height="28.8" patternTransform="translate(25.07 30.56) scale(0.34)" patternUnits="userSpaceOnUse" viewBox="0 0 28.8 28.8"><rect width="28.8" height="28.8" fill="none"/><circle cx="28.8" cy="28.8" r="0.72" fill="#231f20"/><circle cx="14.4" cy="28.8" r="0.72" fill="#231f20"/><circle cx="28.8" cy="14.4" r="0.72" fill="#231f20"/><circle cx="14.4" cy="14.4" r="0.72" fill="#231f20"/><circle cx="7.2" cy="21.6" r="0.72" fill="#231f20"/><circle cx="21.6" cy="21.6" r="0.72" fill="#231f20"/><circle cx="7.2" cy="7.2" r="0.72" fill="#231f20"/><circle cx="21.6" cy="7.2" r="0.72" fill="#231f20"/><circle cy="28.8" r="0.72" fill="#231f20"/><circle cy="14.4" r="0.72" fill="#231f20"/><circle cx="28.8" r="0.72" fill="#231f20"/><circle cx="14.4" r="0.72" fill="#231f20"/><circle r="0.72" fill="#231f20"/></pattern><linearGradient id="linear-gradient-2" x1="180.63" y1="180.78" x2="208.34" y2="211.76" xlink:href="#linear-gradient"/><linearGradient id="linear-gradient-3" x1="338.16" y1="183.49" x2="351.62" y2="195.73" xlink:href="#linear-gradient"/></defs><title>PP</title><g style="isolation:isolate"><g id="Layer_2" data-name="Layer 2"><path d="M194.28,291.14,14.56,184.93C8.84,181.71,3.93,176.44,9.51,173L189.88,69c2.71-1.68,6.82-2.78,9.57-1.18L388.11,177.34c5.72,3.32,6.75,12.6,1,15.93L218,291A23.9,23.9,0,0,1,194.28,291.14Z" fill="#dd6f31"/><path d="M177.94,244.42l-16.65,9.64L184,268.13c.2,0,17.27,9.81,17.47,9.81,9.13-5-.69-13.13,5.8-17.14C198.84,256.33,185.71,249.89,177.94,244.42Z" fill="url(#linear-gradient)" style="mix-blend-mode:multiply"/><path d="M180.72,57.85,160.51,163l-2.86,14.89c-.36,1.89,2.53,2.69,2.89.8L180.75,73.54l2.86-14.89c.36-1.89-2.53-2.69-2.89-.8Z" fill="#42210b"/><path d="M211.07,125.58,234.35,191c.64,1.81,3.54,1,2.89-.8L214,124.78c-.64-1.81-3.54-1-2.89.8Z" fill="#42210b"/><path d="M146,41.28s-1.16-.5-1,13.28,1,82.49,1,82.49l20.09-13L155.58,43.27S150.63,37,146,41.28Z" fill="#f7a269"/><polygon points="149.85 45.91 166.6 164.89 225.92 130 211.96 17.29 149.85 45.91" fill="#ff8522"/><path d="M150.87,53.15s2.89-7,.69-9.9a4.82,4.82,0,0,0-5.53-2s36.85-19.65,63.46-31.94c0,0,9.09,3.14,3,12.32Z" fill="#ffba8b"/><polygon points="166.12 164.89 171.69 166.95 231.68 131.1 231.68 128.21 225.7 128.21 166.12 162.76 166.12 164.89" fill="#363634"/><path d="M175.18,162.94l-2.06,63.15c-.06,1.93,2.94,1.93,3,0l2.06-63.15c.06-1.93-2.94-1.93-3,0Z" fill="#42210b"/><ellipse cx="189.16" cy="88.42" rx="22.09" ry="29.12" fill="#fff"/><ellipse cx="189.16" cy="88.42" rx="22.09" ry="29.12" fill="url(#_10_dpi_10_)"/><path d="M190.79,88.42,184.36,60s11.12-4.68,19.57,6.78Z" fill="#fd7382"/><path d="M190.79,88.42s17.42,14.85,17.86,13.72,8.78-18.76-4.71-35.36Z" fill="#8787d1"/><line x1="174.18" y1="135.27" x2="218.14" y2="111.76" fill="none" stroke="#fff" stroke-miterlimit="10"/><line x1="174.18" y1="140.65" x2="218.14" y2="117.14" fill="none" stroke="#fff" stroke-miterlimit="10"/><line x1="174.18" y1="146.54" x2="218.14" y2="123.03" fill="none" stroke="#fff" stroke-miterlimit="10"/><path d="M163.14,63.18l44-23.51c1.7-.91.19-3.5-1.51-2.59l-44,23.51c-1.7.91-.19,3.5,1.51,2.59Z" fill="#fff"/><path d="M173.34,225c0-.91-15-48.5-15-48.5l87.85,14.17-68.09,50.75Z" fill="url(#linear-gradient-2)" style="mix-blend-mode:multiply"/><path d="M339.9,177.32l-17.5,9.84L345,201.31h.59c9.13-5,17.16-3.59,23.65-7.6C360.81,189.24,347.67,182.8,339.9,177.32Z" fill="url(#linear-gradient-3)" style="mix-blend-mode:multiply"/><path d="M314.23,160.05s-2.05,24.33,10.93,28.62,19.45-8.14,19-29.57" fill="#68e1fd"/><ellipse cx="329.17" cy="159.58" rx="14.95" ry="8.65" transform="translate(-4.91 10.55) rotate(-1.82)" fill="#06577a"/><path d="M332.39,140.23S326.26,132,328.63,126c0,0,2-3.83,5-4.52,0,0,0,8,2.91,6.92s-.27-8.4-.27-8.4,3-4.35,6.45-4.33.24,7.51,2.59,6.21-.09-7.51,2.58-8.34a56.52,56.52,0,0,1,7.44-1.43s2.77,7.25.27,8.37-6.23,1.6-4.39,3.16,6.87-.46,6.87-.46.45,4.11-1.22,6-12-1.78-10.06,1.7,8.58,1.5,8.58,1.5-3.28,5-7.25,7.39S332.39,140.23,332.39,140.23Z" fill="#8ccc00"/><path d="M334.44,161.39s-4.37-4-3.65-7.67c0,0,.72-2.39,2.33-3.1,0,0,.83,4.57,2.39,3.62s-1-4.74-1-4.74,1.24-2.79,3.2-3.14.94,4.24,2.13,3.25-.85-4.25.57-5a32.65,32.65,0,0,1,4.07-1.61s2.35,3.82,1,4.72-3.37,1.58-2.15,2.26,3.85-1,3.85-1,.69,2.29-.06,3.51-7,.27-5.53,2,5-.07,5-.07a15.92,15.92,0,0,1-3.33,5C341.3,161.2,334.44,161.39,334.44,161.39Z" fill="#8ccc00"/><path d="M318.57,152.84s-10.28.73-14-4.47c0,0-2.16-3.74-1.15-6.62,0,0,6.76,4.36,7.4,1.26s-7.23-4.29-7.23-4.29-2.06-4.87-.19-7.76,6.46,3.83,6.63,1.15-6.38-4-5.65-6.65a56.52,56.52,0,0,1,2.79-7s7.6,1.55,7.2,4.27-2,6.12.31,5.4,3.3-6,3.3-6,3.71,1.83,4.36,4.23-7.93,9.13-4,9.4,5.87-6.43,5.87-6.43,2.47,5.47,2.34,10.09S318.57,152.84,318.57,152.84Z" fill="#8ccc00"/><path d="M353.16,115.44q-1.59,1.44-3.2,2.92c.08-1.17.18-2.34.32-3.5.08-.62-.87-.85-.95-.23q-.3,2.34-.41,4.69c-2.81,2.62-5.59,5.36-8.16,8.26a34.75,34.75,0,0,1-.37-5.94c0-.63-1-.59-1,0a35.74,35.74,0,0,0,.51,6.86,67.34,67.34,0,0,0-4.6,5.93,19.29,19.29,0,0,1-3.58-7.67c-.14-.61-1.07-.32-.93.29a20,20,0,0,0,3.86,8.12.49.49,0,0,0,.1.09c-4.09,6.2-6.81,13.1-6.82,21,0,.63,1,.6,1,0,0-7.6,2.61-14.26,6.53-20.26a37.54,37.54,0,0,0,12.09.79c.62-.06.59-1,0-1a36.78,36.78,0,0,1-11.49-.69,70.61,70.61,0,0,1,6.53-8.09l.09,0c2.28.13,4.56.26,6.84.27a8.32,8.32,0,0,0,4.22-.63c.55-.3,0-1.12-.52-.82-1.55.84-3.75.49-5.44.45-1.45,0-2.89-.12-4.33-.2,3.36-3.54,7-6.86,10.47-10C354.34,115.68,353.62,115,353.16,115.44Z" fill="#06577a"/><path d="M323.61,135.34a.49.49,0,0,0-.95-.23,17.24,17.24,0,0,1-6,9.17q-1.8-4.54-3.32-9.18a29.08,29.08,0,0,0,5.45-8.24c.25-.57-.6-1-.86-.46A28.33,28.33,0,0,1,313,134c-1.13-3.55-2.14-7.13-3-10.76-.15-.61-1.08-.32-.93.29q1.79,7.45,4.3,14.67a22.83,22.83,0,0,1-5.36-1.57c-.57-.25-1,.61-.46.86a23.88,23.88,0,0,0,6.2,1.76h0c1.13,3.17,2.38,6.29,3.71,9.39a23.54,23.54,0,0,1-8.52-1.6c-.58-.22-1,.63-.46.86a24.83,24.83,0,0,0,9.4,1.71q2.53,5.78,5.52,11.35c.3.55,1.12,0,.82-.52a151.93,151.93,0,0,1-7.16-15.23h0A18.31,18.31,0,0,0,323.61,135.34Z" fill="#06577a"/><path d="M341.63,147.35l-2.53,4.57a8.4,8.4,0,0,1-.89-1.38c-.29-.56-1.11,0-.82.52a9.28,9.28,0,0,0,1.18,1.74l0,0-2.75,5a2,2,0,0,1-.63-1.15c-.1-.61-1.07-.59-1,0a3.06,3.06,0,0,0,1.13,2l-3.44,6.2a.49.49,0,0,0,.86.46l4.53-8.18a7.27,7.27,0,0,0,2.36-.43c.59-.21.3-1.15-.29-.93a6.47,6.47,0,0,1-1.5.33l4.59-8.29A.49.49,0,0,0,341.63,147.35Z" fill="#06577a"/><path d="M226.75,54.25l-30,44,5.8,5.3,29.25-45A58.73,58.73,0,0,1,226.75,54.25Z" fill="#fff" opacity="0.64"/><path d="M213.74,51.87l-23.1,34a53.5,53.5,0,0,0,3,9.39l27.55-42.38C218.7,52.55,216.25,51.69,213.74,51.87Z" fill="#fff" opacity="0.64"/><path d="M208.12,107a19.58,19.58,0,0,1-6.66-1.15c-6.15-2.21-10.81-7.28-13.13-14.28a33.94,33.94,0,0,1,.65-22A33.94,33.94,0,0,1,202.51,52.2c6.24-3.92,13.07-4.85,19.21-2.64C234.19,54,239.78,70.32,234.2,85.85,229.59,98.67,218.77,107,208.12,107ZM215,53.39a18.57,18.57,0,0,0-9.84,3A28.92,28.92,0,0,0,193.7,71.28,28.93,28.93,0,0,0,193.08,90c1.83,5.51,5.4,9.46,10.07,11.14,9.87,3.55,21.68-4.09,26.34-17s.41-26.34-9.46-29.89A14.81,14.81,0,0,0,215,53.39Z" fill="#68e1fd"/><path d="M210.38,105l2.2,51c.17,3.85,6.17,3.87,6,0l-2.2-51c-.17-3.85-6.17-3.87-6,0Z" fill="#68e1fd"/><path d="M220.21,138.41a1,1,0,0,0,.3-1.1,1.49,1.49,0,0,0-.84-.84,1.43,1.43,0,0,0,.18-1.26,1.55,1.55,0,0,0-.32-.58c-.12-.13-.33-.34-.52-.31l.08-.07a.53.53,0,0,1-.11-.39,1,1,0,0,0-.06-.17,1.53,1.53,0,0,0-.4-.48,1.44,1.44,0,0,0-1.14-.32,3,3,0,0,0-1.25.69,39.08,39.08,0,0,1-4.41,2.94c-.21.12-.49.23-.66.07A.55.55,0,0,1,211,136c.31-1.21,1.14-2.26,1.35-3.49a.72.72,0,0,0,0-.43.54.54,0,0,0-.61-.24,1.45,1.45,0,0,0-.6.37c-2.37,2.12-3.9,5-5.38,7.8a21.35,21.35,0,0,0,2.93,4,1.26,1.26,0,0,0,.74.44,1.32,1.32,0,0,0,.55-.12l7-2.65c.91-.34,1.81-.68,2.7-1.09.55-.25,1.16-.64,1.18-1.24A1.1,1.1,0,0,0,220.21,138.41Z" fill="#eead97"/><path d="M219,134.32c-1.32.78-3.59,1.82-4.92,2.6" fill="none" stroke="#8c6239" stroke-miterlimit="10" stroke-width="0.25"/><path d="M219.67,136.47c-1.19.52-3.06,1.27-4.25,1.79" fill="none" stroke="#8c6239" stroke-miterlimit="10" stroke-width="0.25"/><path d="M220.21,138.42c-1.13.4-2.88,1-4,1.36" fill="none" stroke="#8c6239" stroke-miterlimit="10" stroke-width="0.25"/><path d="M178.29,245.62c-1.75-1.13-4.14.82-5.65.64s-2.07-8.5-2.07-8.5l-8.77-.27-.52,16.56a15.62,15.62,0,0,0,3.65,1.83s-.58-7.58,1-7.4,2.19,6,4.09,6.61,7.78-3.14,8.77-3.8S180,246.76,178.29,245.62Z" fill="#363634"/><path d="M196.48,256.37c-1.75-1.13-4.14.82-5.65.64s-2.07-8.5-2.07-8.5l-8.77-.27-.52,16.57a15.65,15.65,0,0,0,3.64,1.83s-.59-7.58,1-7.4,2.19,6,4.09,6.61S196,262.71,197,262,198.23,257.5,196.48,256.37Z" fill="#363634"/><path d="M163.43,163.9s-6.55,12.45-5.33,81.92c0,0,7.25,5,18.67,2.39,0,0,.41-81-.74-83.93S163.43,163.9,163.43,163.9Z" fill="#68e1fd"/><path d="M185.18,162.44c2.45,16,4.94,32.11,6.3,48.3,1.17,13.79,1.47,27.66,2.26,41.48l.09,1.51a24.55,24.55,0,0,1-21.23.47s-3.1-67.45-2.81-76.68.75-19.92,5.89-21.37S185.18,162.44,185.18,162.44Z" fill="#68e1fd"/><path d="M162.85,129.84s-13.18,17-9.93,22.81,16.92,1.26,16.92,1.26" fill="#a8c64e"/><path d="M209.88,139.85a23.73,23.73,0,0,0-1.29-5.53c-3.92,4.9-9.84,11.36-11.76,8.4-9.45-14.51-21-16.14-21-16.14s-12.35-4-14.19,1.34.15,35,2.16,37.39l.11.1a17.06,17.06,0,0,0,3.21,1.64,29.16,29.16,0,0,0,5.32,1.11c3.84.16,9.32-1.11,12.46-3.35,1.62-4.18,2.07-18.32,2.07-18.32s3.59,10.35,11.15,8.37c3.34-.87,8.31-5.25,12.48-9.44C210.53,143.55,210.15,141.7,209.88,139.85Z" fill="#b8d766"/><path d="M182.81,114.91s.42,11.17-1.8,11.36-6.49-.94-6.47-3.14,0-7.22,2-7.92S181.79,112.91,182.81,114.91Z" fill="#eead97"/><path d="M183,116.15a4.74,4.74,0,0,0-1.95-7c-4.75-2.75-12.69-2.17-14.62,4-1.82,5.8.13,6.85-2.67,8.77s-6.51,3.92-5.08,7.67,2.3,2.42,3,4-2.13,4-.49,6.73,9.72,5,12.74,1.65,1.34-8.08,3.56-9a5.21,5.21,0,0,0,3.19-5.55c-.48-2.08-4.66-5.79-3-8S183,116.15,183,116.15Z" fill="#744122"/><path d="M170.29,183.59c0-.84-1.35-.89-1.33,0q.71,35.32,3.54,70.54c.07.83,1.4.88,1.33,0Q171,218.92,170.29,183.59Z" fill="#165c63"/><path d="M66.62,80.23c-.14-.39-.73-.12-.59.27.42,1.16.45,2.93-.63,3.76a1.22,1.22,0,0,1-.25.15,1.05,1.05,0,0,0,0-.48,2.18,2.18,0,0,0-.42-.89,4.94,4.94,0,0,1-.38-.55,7,7,0,0,1,.64-.74c.28-.3-.12-.8-.41-.5l-.37.4a.33.33,0,0,0-.51.12,1,1,0,0,0-.06.64,2.39,2.39,0,0,0-.31.85c-.74.66-.29,2.21.92,1.92l.15-.05a1.32,1.32,0,0,0,.33,0,2.26,2.26,0,0,0,1.84-1.52A4.72,4.72,0,0,0,66.62,80.23ZM64,83.64l0,0a.25.25,0,0,0,.19-.23l.11.17a.79.79,0,0,1,.09.83A.91.91,0,0,1,64,83.64Z" fill="#ff413b"/><path d="M63.49,64.47c.28-.31-.25-.69-.52-.38a2.33,2.33,0,0,0,.28,3.33c.32.26.7-.26.38-.52A1.68,1.68,0,0,1,63.49,64.47Z" fill="#ff413b"/><path d="M78.66,69.47l-.34,0-.4-.4c-.3-.28-.8.12-.5.41l.09.08a12.77,12.77,0,0,0-2.67.7c-.39.15-.12.74.27.59a11.7,11.7,0,0,1,2-.57,2.11,2.11,0,0,0-.35,1.47,1.09,1.09,0,0,0,.43.66.32.32,0,0,0,.58.2,1,1,0,0,0,.26,0,1.53,1.53,0,0,0,1.09-1.36,1.82,1.82,0,0,0-.28-1l.14-.31A.33.33,0,0,0,78.66,69.47ZM77.5,71.75a.92.92,0,0,1,0-.59,2.83,2.83,0,0,1,.55-1h0l.09.11Z" fill="#ff413b"/><path d="M50.09,102.93c-.39-.13-.63.47-.24.6.85.28,2.19.72,2.07,1.85-.06.57-.51.92-1.05.61a2.58,2.58,0,0,1-.83-1.15c-.18-.37-.77-.11-.59.27a2.83,2.83,0,0,0,1.4,1.59,1.25,1.25,0,0,0,1.54-.62C53.27,104.42,51.39,103.37,50.09,102.93Z" fill="#ff413b"/><path d="M49.1,75.3c-.29-.3-.79.11-.5.41a2,2,0,1,1-3,2.46c-.23-.35-.73.07-.5.41a2.61,2.61,0,1,0,4-3.28Z" fill="#ff413b"/><path d="M72,51.14C82,55.74,84.28,72.49,77,88.54s-21.44,25.33-31.52,20.73S31.72,85.6,39,69.55,61.88,46.54,72,51.14Z" fill="#68e1fd"/><path d="M72,51.14C82,55.74,84.28,72.49,77,88.54s-21.44,25.33-31.52,20.73S31.72,85.6,39,69.55,61.88,46.54,72,51.14Z" opacity="0.13"/><path d="M69.49,58c8.08,3.69,10.06,16.72,4.41,29.09S57.12,106.56,49,102.87,37.77,85,43.42,72.61,61.41,54.36,69.49,58Z" fill="#fff"/><path d="M65.17,61.75,58.5,82l1.85-1L51,78.85c-1.88-.42-2.68,2.47-.8,2.89l9.39,2.12a1.54,1.54,0,0,0,1.85-1l6.67-20.27c.6-1.84-2.29-2.63-2.89-.8Z" fill="#42210b"/><path d="M58.52,61.79a1.19,1.19,0,0,0,.37,2.35A1.19,1.19,0,0,0,58.52,61.79Z" fill="#606060"/><path d="M61.06,97.49a1.19,1.19,0,0,0,.37,2.35A1.19,1.19,0,0,0,61.06,97.49Z" fill="#606060"/><path d="M74.09,75.37a1.19,1.19,0,0,0,.37,2.35A1.19,1.19,0,0,0,74.09,75.37Z" fill="#606060"/><path d="M44.62,83.57A1.19,1.19,0,0,0,45,85.92,1.19,1.19,0,0,0,44.62,83.57Z" fill="#606060"/><path d="M59.94,82.42S51,64.16,51,64.18,45,71,42.72,78.9Z" fill="#36b2bf" opacity="0.37"/></g></g></svg>