<svg xmlns="http://www.w3.org/2000/svg" xmlns:xlink="http://www.w3.org/1999/xlink" viewBox="0 0 400 300"><defs><linearGradient id="linear-gradient" x1="346.81" y1="166.87" x2="341.03" y2="157.19" gradientUnits="userSpaceOnUse"><stop offset="0" stop-color="#fff" stop-opacity="0"/><stop offset="0.99" stop-color="#ffa86a"/></linearGradient></defs><title>151-160</title><g style="isolation:isolate"><g id="Layer_2" data-name="Layer 2"><path d="M372.42,145.52,236.81,66.66a6.41,6.41,0,0,0-6.41,0L27.62,182.7a6.41,6.41,0,0,0,0,11.12L157.28,268.7a20.93,20.93,0,0,0,20.93,0L372.4,156.62A6.41,6.41,0,0,0,372.42,145.52Z" fill="#febc32"/><polygon points="67.31 185.19 157.09 237.03 320.28 142.4 230.31 89.25 67.31 185.19" fill="none" stroke="#42210b" stroke-miterlimit="10"/><path d="M179.75,140.51s-8.86,2.24-6.25,16.47l19.42-11S185.06,139.15,179.75,140.51Z" fill="#68e1fd"/><path d="M179.75,140.51s-8.86,2.24-6.25,16.47l19.42-11S185.06,139.15,179.75,140.51Z" fill="#06489e" opacity="0.39"/><path d="M206.33,228c15.25-8.9,28.64-16.53,43.57-25.15-1.13-.55-1.81-1.15-2.83-1.63-27.7-13.29-17.27-32.85-17.17-52.93,0-6.41-.1-13.12-2.07-19.34a16.06,16.06,0,0,0-3.45-6.49,8.35,8.35,0,0,0-3.95-2.51c-1.71-.34-3.33.83-4.69,1.54L211,124l-12.57,6.6-10.2,5.35-1.8.95-7.52,3.95c1.43-.75,4.54,1.79,5.3,2.58a16.06,16.06,0,0,1,3.45,6.49c2,6.22,2.1,12.93,2.07,19.34C189.61,189.06,180,214.59,206.33,228Z" fill="#68e1fd"/><path d="M217,156.64v6.22l1.63-1v-6.08C218.07,156,217.52,156.31,217,156.64Z" fill="#fff"/><path d="M220.26,152.67v8.4l1.63-1v-8.16Z" fill="#fff"/><path d="M223.52,148.33v11l1.63-1V147.66C224.61,147.9,224.07,148.12,223.52,148.33Z" fill="#fff"/><path d="M204.3,163.87a6.36,6.36,0,0,1,4.38-2.23,3.87,3.87,0,0,1,.8.08,4.63,4.63,0,0,1,2.71,1.87,26.72,26.72,0,0,1,2-2.52,7.53,7.53,0,0,0-4.1-2.46c-2.76-.58-5.64.49-8.12,3a15.94,15.94,0,0,0-2,2.48c.91.55,1.79,1.13,2.67,1.72A12.8,12.8,0,0,1,204.3,163.87Z" fill="#56403d"/><path d="M204.31,186.28c-1.52-.46-2.78-1.85-3.57-4a16.24,16.24,0,0,1-.4-8.86,18.14,18.14,0,0,1,2-5.37c-.88-.58-1.77-1.17-2.67-1.72a21.29,21.29,0,0,0-2.46,6.43,19.44,19.44,0,0,0,.53,10.63c1.13,3,3.07,5.1,5.51,5.88C203.6,188.27,203.93,187.27,204.31,186.28Z" fill="#ffa197"/><path d="M216.34,166.31a11.82,11.82,0,0,0-1.65-3.06,26.66,26.66,0,0,0-2.08,2.59,9.4,9.4,0,0,1,.75,1.58,17.66,17.66,0,0,1-3.55,16.8c-1.56,1.6-3.26,2.37-4.81,2.2-.4,1-.73,2-1.05,3h0a7.14,7.14,0,0,0,1.48.15,9.41,9.41,0,0,0,6.64-3.19,20.8,20.8,0,0,0,4.26-20.13Z" fill="#f2f2f2"/><ellipse cx="208.24" cy="174.29" rx="3.6" ry="1.99" transform="translate(11.98 361.96) rotate(-83.65)" fill="#f2f2f2"/><path d="M195.14,156.44l31.33-18.32a.75.75,0,0,0-.76-1.3l-31.33,18.32a.75.75,0,0,0,.76,1.3Z" fill="#f2f2f2"/><path d="M193.81,153.42l31.33-18.32a.75.75,0,0,0-.76-1.3l-31.33,18.32a.75.75,0,0,0,.76,1.3Z" fill="#f2f2f2"/><path d="M195.14,159.78l31.33-18.32a.75.75,0,0,0-.76-1.3l-31.33,18.32a.75.75,0,0,0,.76,1.3Z" fill="#f2f2f2"/><path d="M195.14,201.92l31.33-18.32a.75.75,0,0,0-.76-1.3l-31.33,18.32a.75.75,0,0,0,.76,1.3Z" fill="#f2f2f2"/><path d="M195.37,205.32,226.69,187a.75.75,0,0,0-.76-1.3L194.61,204a.75.75,0,0,0,.76,1.3Z" fill="#f2f2f2"/><path d="M196,208.59l31.33-18.32a.75.75,0,0,0-.76-1.3l-31.33,18.32a.75.75,0,0,0,.76,1.3Z" fill="#f2f2f2"/><path d="M136.78,160,136,201.93a2.64,2.64,0,0,1-3.81,2.31L96.6,186.5a3.49,3.49,0,0,1-1.93-3.19l.76-41.93a2.85,2.85,0,0,1,4.15-2.49l35.31,18A3.49,3.49,0,0,1,136.78,160Z" fill="#ffb3a6"/><path d="M126.33,177.76V157.41l-17.92.86-.49,16.56c-2.21.74-4.89,1.66-6.36,3.58-1.21,1.58-1.66,4.25.11,5.63s4.42.5,6.09-.5a7.14,7.14,0,0,0,3.09-3.29,9.22,9.22,0,0,0,.22-3.32l.12-6,.19-9.26h12.7v14.75a1.3,1.3,0,0,0-.31.17c-2.79.35-5.75.82-7.86,2.82a5.22,5.22,0,0,0-1.63,3.62,2.15,2.15,0,0,0,0,.57,3.71,3.71,0,0,0,1.56,2.65,6.16,6.16,0,0,0,7.35-.43A9.24,9.24,0,0,0,126.33,177.76Z" fill="#e54b5d"/><line x1="270.02" y1="102.93" x2="270.02" y2="171.55" fill="none" stroke="#42210b" stroke-miterlimit="10"/><path d="M241.83,89.52v34a1.9,1.9,0,0,0,2.84,1.64l47.27-27.18a1.9,1.9,0,0,0,1-1.64V61.88a1.9,1.9,0,0,0-2.84-1.64l-46.9,27A2.64,2.64,0,0,0,241.83,89.52Z" fill="#68e1fd"/><polygon points="249.44 89.07 249.44 118.9 288.74 96.3 288.74 66.45 249.44 89.07" fill="#fff"/><path d="M249.44,118.9l9.41-20.82a4.27,4.27,0,0,1,5.62-2.14L269.09,98l9-15.17a2.94,2.94,0,0,1,4.3-.85l6.34,4.78V96.3Z" fill="#8ccc00"/><path d="M113.44,192.11c.15,2.84,0,19.71,0,19.71" fill="none" stroke="#42210b" stroke-miterlimit="10"/><line x1="144.87" y1="112.92" x2="144.87" y2="139.33" fill="none" stroke="#42210b" stroke-miterlimit="10"/><line x1="161.75" y1="103.39" x2="161.75" y2="129.8" fill="none" stroke="#42210b" stroke-miterlimit="10"/><line x1="173.98" y1="96.69" x2="173.98" y2="123.1" fill="none" stroke="#42210b" stroke-miterlimit="10"/><path d="M214.38,50c-1.11-1.41-16.67-10.64-16.67-10.64l0,.08c-3.19-3.53-9.11-2.29-16.8,4.4,0,0-.27-7.35-9.07-8.53s-11.32,2.82-11.32,2.82-3-13.93-20.62-8.7c-16,4.75-13.77,20.87-13.77,20.87s-10-2.5-17.93,8.47-7.36,23.8-7.36,23.8S84,88.62,81.92,103.86a37.36,37.36,0,0,0-.33,4l0,.39a45.58,45.58,0,0,0,.88,9.78,6.37,6.37,0,0,0,3.12,4.44l17.77,10.14a25.37,25.37,0,0,0-1.81-13l88-51.08s6.73-5.92,9.56-13.76L205.82,53S215.49,51.4,214.38,50Z" fill="#68e1fd"/><path d="M214.38,50c-1.11-1.41-16.67-10.64-16.67-10.64l0,.08c-3.19-3.53-9.11-2.29-16.8,4.4,0,0-.27-7.35-9.07-8.53s-11.32,2.82-11.32,2.82-3-13.93-20.62-8.7c-16,4.75-13.77,20.87-13.77,20.87s-10-2.5-17.93,8.47-7.36,23.8-7.36,23.8S84,88.62,81.92,103.86a37.36,37.36,0,0,0-.33,4l0,.39a45.58,45.58,0,0,0,.88,9.78,6.37,6.37,0,0,0,3.12,4.44l17.77,10.14a25.37,25.37,0,0,0-1.81-13l88-51.08s6.73-5.92,9.56-13.76L205.82,53S215.49,51.4,214.38,50Z" opacity="0.15"/><path d="M113,133.77l93.56-54.32S218,69.4,217.33,58.12,209.16,45,198,54.77c0,0-.23-9.45-9.07-8.53s-12.19,6.7-12.19,6.7,1.76-16.8-15.9-11.57a24.56,24.56,0,0,0-17.63,19.86s-10-2.5-17.93,8.47-7.36,23.8-7.36,23.8S101.12,99.57,99,114.8,104.17,136.89,113,133.77Z" fill="#68e1fd"/><path d="M340.83,145.51l-22.16,12.94L344,173.17h.64c8.82-5.83,15.2-8.22,22.08-11.76C358.16,155.92,349.7,150.33,340.83,145.51Z" opacity="0.63" fill="url(#linear-gradient)" style="mix-blend-mode:multiply"/><ellipse cx="331.49" cy="150.6" rx="14.95" ry="13.89" fill="#68e1fd"/><ellipse cx="331.48" cy="142.4" rx="11.19" ry="6.05" fill="#1d3f75"/><path d="M330.9,93.6v47.48a1,1,0,0,0,1.91,0V93.6A1,1,0,0,0,330.9,93.6Z" fill="#1c7377"/><path d="M335.39,91.83a4.59,4.59,0,0,0,.29-3.63c-.44-1.31-1.07-2.57-1.59-3.85s-1-2.41-1.53-3.58h0c-.56.28-4.57,6.32-4.74,8.85S331,94.3,331,94.3l1,.64c.18.12,1.92-1.32,2.12-1.49A5.39,5.39,0,0,0,335.39,91.83Z" fill="#1c7377"/><path d="M332.41,105.66v0c4.23-.41,7.16-4,9.15-7.67C337.07,98.22,332.94,101,332.41,105.66Z" fill="#1c7377"/><path d="M332.08,105.5h0c-1.28-4.05-5.38-6.17-9.41-7.35C323.83,102.49,327.46,105.94,332.08,105.5Z" fill="#1c7377"/><path d="M331.85,117.32v0c5.39-.52,9.11-5.06,11.65-9.76C337.78,107.85,332.52,111.45,331.85,117.32Z" fill="#1c7377"/><path d="M331.43,117.11h0c-1.63-5.16-6.85-7.85-12-9.36C320.93,113.28,325.55,117.68,331.43,117.11Z" fill="#1c7377"/><path d="M332.26,131v0c6.14-.6,10.38-5.77,13.27-11.13C339,120.2,333,124.3,332.26,131Z" fill="#1c7377"/><path d="M331.79,130.76h0c-1.86-5.88-7.8-9-13.65-10.66C319.82,126.4,325.08,131.4,331.79,130.76Z" fill="#1c7377"/></g></g></svg>