<svg id="Layer_2" data-name="Layer 2" xmlns="http://www.w3.org/2000/svg" xmlns:xlink="http://www.w3.org/1999/xlink" viewBox="0 0 400 300"><defs><linearGradient id="linear-gradient" x1="225.24" y1="274.71" x2="213.4" y2="258.09" gradientUnits="userSpaceOnUse"><stop offset="0" stop-color="#ff6161"/><stop offset="1" stop-color="#9e005d"/></linearGradient><linearGradient id="linear-gradient-2" x1="243.23" y1="228.76" x2="218.66" y2="192.51" xlink:href="#linear-gradient"/><linearGradient id="linear-gradient-3" x1="373.58" y1="194.62" x2="367.76" y2="186.45" xlink:href="#linear-gradient"/><linearGradient id="linear-gradient-4" x1="60.98" y1="179.77" x2="53.7" y2="169.55" xlink:href="#linear-gradient"/></defs><title>PP</title><path d="M194.28,289.28,14.56,183.06c-5.72-3.21-10.63-8.49-5.05-11.94l180.37-104c2.71-1.68,6.82-2.78,9.57-1.18L388.11,175.48c5.72,3.32,6.75,12.6,1,15.93L218,289.11A23.9,23.9,0,0,1,194.28,289.28Z" fill="#ff6161"/><path d="M219.27,287l37.18-20.4-42-25.14L179.68,262.7C192.17,271.63,219.27,287,219.27,287Z" fill="url(#linear-gradient)"/><polyline points="155.46 231.69 199.22 259.93 314.89 202.05 263.14 171.06" fill="url(#linear-gradient-2)"/><path d="M226.91,243.56l-3.39-5,64.77-44.35c1.39-.95,2.79-1.87,4.19-2.8,9.82-6.47,18.3-12.06,19-23.93.67-11.22-8.17-18.79-13.5-22.31-22.62-14.92-48,5.4-48.27,5.61l-3.79-4.65c.29-.24,29.1-23.29,55.36-6,11.07,7.3,16.82,17.13,16.19,27.67-.89,14.87-11.47,21.84-21.7,28.58-1.37.9-2.75,1.81-4.1,2.74Z" fill="#68e1fd"/><path d="M185.57,246.39v10.72l23,11.86,21.68-12s7.14-13.7-3-20.2" fill="#3129a3"/><path d="M185.57,246.39l23.93,13.39L231,247.85s3.54-6.9-5.76-12.55-19.35-1-19.35-1Z" fill="#6565c4"/><polygon points="179.68 256.52 179.68 262.7 195.8 271.91 195.8 265.65 179.68 256.52" fill="#a7a7a7"/><polygon points="179.68 256.52 195.75 265.65 205.87 259.93 189.81 250.58 179.68 256.52" fill="#dbdbdb"/><path d="M205.87,259.93v6.49s-10.07,5.82-10.07,5.49v-6.26Z" fill="silver"/><polygon points="181.08 258.95 181.08 262.46 194.15 270.04 194.15 266.38 181.08 258.95" fill="#595958"/><path d="M274.07,175.19v-.07h0l0-14.91-11.66,6.53-52.13-29.91a9,9,0,0,0-8.94,0l-87.93,50.76-14.46-4.38v15.3h0a3.79,3.79,0,0,0,2,3L164.84,237a7.4,7.4,0,0,0,7.35-.1l100.45-59.27a2.88,2.88,0,0,0,1.43-2.46Z" fill="#68e1fd"/><path d="M274.07,175.19v-.07h0l0-14.91-11.66,6.53-52.13-29.91a9,9,0,0,0-8.94,0l-87.93,50.76-14.46-4.38v15.3h0a3.79,3.79,0,0,0,2,3L164.84,237a7.4,7.4,0,0,0,7.35-.1l100.45-59.27a2.88,2.88,0,0,0,1.43-2.46Z" fill="#3129a3" opacity="0.28"/><path d="M100.91,187.21l63.93,35.49a7.4,7.4,0,0,0,7.35-.1l100.45-59.27a2.92,2.92,0,0,0,0-5l-62.35-35.78a9,9,0,0,0-8.94,0l-100.46,58A3.85,3.85,0,0,0,100.91,187.21Z" fill="#68e1fd"/><ellipse cx="109.58" cy="198.51" rx="2.25" ry="2.72" transform="translate(-97.18 105.42) rotate(-36.86)" fill="#fff"/><line x1="116.7" y1="202.93" x2="128.97" y2="209.98" fill="#fff"/><path d="M116.07,204l12.27,7.05a1.25,1.25,0,0,0,1.26-2.16l-12.27-7.05a1.25,1.25,0,0,0-1.26,2.16Z" fill="#fff"/><path d="M274.19,154.61v-.07h0l0-14.91-11.66,6.53-52.13-29.91a9,9,0,0,0-8.94,0L113.5,167,99,162.63v15.3h0a3.79,3.79,0,0,0,2,3L165,216.43a7.4,7.4,0,0,0,7.35-.1l100.45-59.27a2.88,2.88,0,0,0,1.43-2.46Z" fill="#68e1fd"/><path d="M274.19,154.61v-.07h0l0-14.91-11.66,6.53-52.13-29.91a9,9,0,0,0-8.94,0L113.5,167,99,162.63v15.3h0a3.79,3.79,0,0,0,2,3L165,216.43a7.4,7.4,0,0,0,7.35-.1l100.45-59.27a2.88,2.88,0,0,0,1.43-2.46Z" fill="#3129a3" opacity="0.28"/><path d="M101,165.63,165,201.12a7.4,7.4,0,0,0,7.35-.1l100.45-59.27a2.92,2.92,0,0,0,0-5l-62.35-35.78a9,9,0,0,0-8.94,0L101,158.94A3.85,3.85,0,0,0,101,165.63Z" fill="#68e1fd"/><ellipse cx="109.69" cy="177.93" rx="2.25" ry="2.72" transform="translate(-84.81 101.38) rotate(-36.86)" fill="#fff"/><line x1="116.82" y1="182.35" x2="129.08" y2="189.4" fill="#fff"/><path d="M116.18,183.43l12.27,7.05a1.25,1.25,0,0,0,1.26-2.16l-12.27-7.05a1.25,1.25,0,0,0-1.26,2.16Z" fill="#fff"/><path d="M274.19,133.19v-.07h0l0-14.91-11.66,6.53L210.37,94.83a9,9,0,0,0-8.94,0L113.5,145.59,99,141.21v15.3h0a3.79,3.79,0,0,0,2,3L165,195a7.4,7.4,0,0,0,7.35-.1l100.45-59.27a2.88,2.88,0,0,0,1.43-2.46Z" fill="#68e1fd"/><path d="M274.19,133.19v-.07h0l0-14.91-11.66,6.53L210.37,94.83a9,9,0,0,0-8.94,0L113.5,145.59,99,141.21v15.3h0a3.79,3.79,0,0,0,2,3L165,195a7.4,7.4,0,0,0,7.35-.1l100.45-59.27a2.88,2.88,0,0,0,1.43-2.46Z" fill="#3129a3" opacity="0.28"/><path d="M101,145.22,165,180.7a7.4,7.4,0,0,0,7.35-.1l100.45-59.27a2.92,2.92,0,0,0,0-5L210.37,80.52a9,9,0,0,0-8.94,0L101,138.52A3.85,3.85,0,0,0,101,145.22Z" fill="#68e1fd"/><ellipse cx="109.69" cy="156.51" rx="2.25" ry="2.72" transform="translate(-71.96 97.09) rotate(-36.86)" fill="#fff"/><line x1="116.82" y1="160.93" x2="129.08" y2="167.98" fill="#fff"/><path d="M116.18,162l12.27,7.05a1.25,1.25,0,0,0,1.26-2.16l-12.27-7.05a1.25,1.25,0,0,0-1.26,2.16Z" fill="#fff"/><path d="M193.9,92.33c-.65.32-6,10-1.62,12.23s11.58-.41,11.18-2.77,2.45-4.66-1.3-10.33" fill="#3129a3"/><path d="M230.49,182.29s1.82,3.5,3.23,4.4,8.7-.08,8.7,1.6-8.84,4.07-11.92,4.49a8.12,8.12,0,0,1-3.62-3.37,84.85,84.85,0,0,1-4.52-9.4" fill="#3129a3"/><path d="M238,176.9s1.82,3.5,3.23,4.4,8.7-.08,8.7,1.6S241,187,238,187.39a8.12,8.12,0,0,1-3.62-3.37,84.85,84.85,0,0,1-4.52-9.4" fill="#3129a3"/><path d="M207.1,108.91s9.62,13.54,12,15.17c0,0-7,2.57-7.06,7.95,0,0-8.44-4.61-10.32-7.24S207.1,108.91,207.1,108.91Z" fill="#ffc36c"/><path d="M218.2,158.15c2.13,5.28,4.24,10.56,6.46,15.79C222,169.32,218.94,163.12,218.2,158.15Z" fill="#d86044"/><path d="M196,123.9c2.78-1.61,8.51-9.78,8.59.53,0,0,20.84,10,23.17,20.25,1.64,7.23,9.73,23.55,13.35,33.09a25.64,25.64,0,0,1-10.64,4.52c-4.08-8.75-7.62-17.74-11.24-26.7a1,1,0,0,0-1.15-.62c0-.22,0-.43.09-.64,0,0-15.08-.85-21.46-7.68C192.92,142.59,193.25,125.51,196,123.9Z" fill="#d86044"/><path d="M188.58,126.47c2.78-1.61,12-8.51,12,1.79,0,0,14.58,7.83,16.91,18.07,2,8.64,14,30.4,15.52,37.38-2.94,1.36-4.75,2.79-7.93,3-3-3.85-14.92-18-22-31.15A60.59,60.59,0,0,1,188,144.37C184.2,140.3,185.8,128.08,188.58,126.47Z" fill="#ea7554"/><path d="M185.9,131.51S184,113.45,188.59,107s14.32-9.47,16.9-8.15,2.8,28.21-1.37,29.24A140.06,140.06,0,0,1,185.9,131.51Z" fill="#ffc36c"/><polyline points="210 145.31 198.33 139.21 217.87 125.03 228.8 128.75" fill="#3129a3"/><path d="M209.95,144.17c-.23-.84,4.65-17.07,4.65-17.07l22.68-14.42L231,131.21l-21,14.1Z" fill="#3129a3"/><path d="M194.23,109.51c-.1.41-3.33,12.64,2.56,17.26s9.42,5.87,9.42,5.87-5.06,5.49-4.7,7.8c0,0-22.48-6.14-17.33-30.65" fill="#ffc36c"/><path d="M203.17,90.92s1.72,11.23-3.3,13.34c-3.66,1.54-6-3.22-6.54-6.13a9.78,9.78,0,0,1,3.81-9.08C199.55,87.19,202.65,87.5,203.17,90.92Z" fill="#ffac99"/><path d="M195.21,94.35s1-.48,1.43-.07-.35,2.17,1,2.24,5.14,0,7.36-2.66-.55-8.92-5.4-9.39-11.79,4-12.67,10.8-.73,7.17-2.83,9.2-4.76,2.18-3.22,5.8,5.85,2,5.92,5.25,4.53,6.66,9.14,3.94,3.75-7.8.68-10S192.53,97,195.21,94.35Z" fill="#3129a3"/><path d="M205.12,133.89s4.91-.22,4.82.38-2.08,1.58-2.08,1.58,3.37,2.85,3.26,3.24-1.66,2.79-3.26,2.91-5.91-3.48-5.91-3.48A20.74,20.74,0,0,1,205.12,133.89Z" fill="#ffac99"/><path d="M370.55,199.93,388.39,191l-20.05-12-16.62,9.36C357.46,192.45,370.55,199.93,370.55,199.93Z" fill="url(#linear-gradient-3)"/><polyline points="340.79 159.44 340.9 182.84 361.35 194.31 376.21 185.73 376.21 162.46" fill="#68e1fd"/><polygon points="361.35 194.31 361.31 171.06 376.21 162.46 376.21 185.73 361.35 194.31" fill="#606060" opacity="0.21"/><polygon points="343.79 164.47 343.79 169.53 357.96 177.61 357.96 172.65 343.79 164.47" fill="#606060" opacity="0.21"/><polygon points="343.79 170.48 343.79 175.54 357.96 183.62 357.96 178.66 343.79 170.48" fill="#606060" opacity="0.21"/><ellipse cx="355.13" cy="173.53" rx="0.64" ry="0.9" transform="translate(-14.87 34.51) rotate(-5.45)" fill="#fff"/><ellipse cx="354.67" cy="179.52" rx="0.64" ry="0.9" transform="translate(-15.45 34.5) rotate(-5.45)" fill="#fff"/><polygon points="343.79 176.32 343.79 181.37 357.96 189.46 357.96 184.5 343.79 176.32" fill="#606060" opacity="0.21"/><ellipse cx="354.67" cy="185.36" rx="0.64" ry="0.9" transform="matrix(1, -0.09, 0.09, 1, -16, 34.52)" fill="#fff"/><polygon points="361.31 171.06 340.79 159.44 355.81 150.65 376.21 162.43 361.31 171.06" fill="#68e1fd"/><polygon points="361.31 171.06 340.79 159.44 355.81 150.65 376.21 162.43 361.31 171.06" fill="#fff" opacity="0.44"/><path d="M57.19,186.42l22.34-11.18-25.11-15L33.61,171.92C40.8,177.06,57.19,186.42,57.19,186.42Z" fill="url(#linear-gradient-4)"/><polyline points="67.11 145.11 67.01 168.5 46.56 179.98 31.69 171.4 31.69 148.12" fill="#68e1fd"/><polygon points="46.56 179.98 46.6 156.73 31.69 148.12 31.69 171.4 46.56 179.98" fill="#606060" opacity="0.21"/><polygon points="64.12 150.14 64.12 155.19 49.95 163.28 49.95 158.32 64.12 150.14" fill="#606060" opacity="0.21"/><polygon points="64.12 156.15 64.12 161.2 49.95 169.29 49.95 164.33 64.12 156.15" fill="#606060" opacity="0.21"/><ellipse cx="52.78" cy="159.19" rx="0.9" ry="0.64" transform="translate(-110.71 196.61) rotate(-84.55)" fill="#fff"/><ellipse cx="53.23" cy="165.19" rx="0.9" ry="0.64" transform="translate(-116.26 202.49) rotate(-84.55)" fill="#fff"/><polygon points="64.12 161.98 64.12 167.04 49.95 175.13 49.95 170.17 64.12 161.98" fill="#606060" opacity="0.21"/><ellipse cx="53.23" cy="171.02" rx="0.9" ry="0.64" transform="translate(-122.07 207.77) rotate(-84.55)" fill="#fff"/><polygon points="46.6 156.73 67.11 145.11 52.1 136.31 31.69 148.09 46.6 156.73" fill="#68e1fd"/><polygon points="46.6 156.73 67.11 145.11 52.1 136.31 31.69 148.09 46.6 156.73" fill="#fff" opacity="0.44"/></svg>