<svg id="Layer_2" data-name="Layer 2" xmlns="http://www.w3.org/2000/svg" xmlns:xlink="http://www.w3.org/1999/xlink" viewBox="0 0 400 300"><defs><linearGradient id="linear-gradient" x1="226.7" y1="170.27" x2="246.72" y2="144.69" gradientUnits="userSpaceOnUse"><stop offset="0" stop-color="#006d29"/><stop offset="1" stop-color="#003429"/></linearGradient><linearGradient id="linear-gradient-2" x1="187.04" y1="242.53" x2="232.27" y2="203.33" xlink:href="#linear-gradient"/></defs><title>PP</title><path d="M195.14,273.46,22.64,171.51c-5.49-3.08-10.2-8.15-4.85-11.46L190.91,60.27c2.6-1.61,6.54-2.66,9.18-1.13L381.17,164.23c5.49,3.19,6.48,12.1,1,15.29L217.87,273.29A22.94,22.94,0,0,1,195.14,273.46Z" fill="#006d29"/><path d="M175.15,113.88c.52,2.52-8.47,49.1-7.18,49.92s15.2-48.34,15.2-48.34" fill="#844040"/><path d="M265.05,217.09c.09,0,49.29-29.21,49.35-29.16l-92.22-56.21L170,113.05,149.44,149.6C161.7,156.92,252,211.27,265.05,217.09Z" opacity="0.32" fill="url(#linear-gradient)"/><path d="M314.56,151.44s-.76,35.82-1.85,36.84-5.89-33-5.89-33" fill="#844040"/><path d="M265.73,166.66c.85,2.43-2.07,49.78-.68,50.43s8.84-49.9,8.84-49.9" fill="#844040"/><polyline points="332.75 136.39 332.75 144.84 329.9 144.84 328.91 140.19" fill="#a85c5c"/><polygon points="166.1 109.59 166.1 101.28 169.59 105.88 166.1 109.59" fill="#a85c5c"/><path d="M169.48,103.23l44.34-25.6a10.34,10.34,0,0,1,10.34,0l105.16,60.71a6.91,6.91,0,0,1,0,12L284.9,176a9.89,9.89,0,0,1-9.89,0L169.48,115A6.81,6.81,0,0,1,169.48,103.23Z" fill="#a85c5c"/><path d="M169,95.69l44.34-25.6a10.34,10.34,0,0,1,10.34,0L328.82,130.8a6.91,6.91,0,0,1,0,12L284.4,168.41a9.89,9.89,0,0,1-9.89,0L169,107.49A6.81,6.81,0,0,1,169,95.69Z" fill="#c96f6f"/><path d="M177.89,249.9c4.74,2.25,16.41,10.63,21.08,13l19-17.81,36.27-27-25.65-17.77-74.38,36.75C164.3,240.2,168.38,245.4,177.89,249.9Z" opacity="0.32" fill="url(#linear-gradient-2)"/><path d="M223.43,189.47c-3.65-2.55-8-3.95-12.59-2.93-4.95,1.09-9.23,4.2-14.27,5-.8.12-4-.08-4.47.38-14,13.27,25.18,11.85,25.18,11.85,3.81-3.12,7.39-6.18,11.17-9.33C227.31,191.84,225.38,190.84,223.43,189.47Z" fill="#f8997c"/><path d="M205,208.71l-1.39,40.05c-.05,1.52,2.31,1.52,2.36,0l1.39-40.05C207.39,207.19,205,207.2,205,208.71Z" fill="#844040"/><path d="M234.37,230.14q-10.71-10.48-20.47-21.88c-1-1.16-2.65.52-1.67,1.67q9.75,11.39,20.47,21.88C233.79,232.87,235.46,231.21,234.37,230.14Z" fill="#844040"/><path d="M196.79,205q-8.32,15.7-15.66,31.87c-.62,1.37,1.41,2.57,2,1.19q7.35-16.17,15.66-31.87C199.54,204.86,197.5,203.66,196.79,205Z" fill="#844040"/><path d="M227.79,193.21a19,19,0,0,1-9.5,6.87c-5.36,1.61-13.15.85-16-4.67-5.13-10-.31-22.62-5.73-32.38a9.91,9.91,0,0,0-6.28-5.08c-3.51-.76-5.92,1.84-7.19,4.89-2.28,5.48-2.2,12.3-2.09,18.14a97.6,97.6,0,0,0,1,14.09s3.28,19.58,28.84,14.32a38.8,38.8,0,0,0,12.56-4.58,17.24,17.24,0,0,0,5.12-4.44C230.18,198.13,229.14,195.47,227.79,193.21Z" fill="#68e1fd"/><path d="M245.49,212s-.21,3.58.9,4.57,7.07-1.78,8.66-.79-6,8.14-8.66,8.54-5.14-3.4-5.14-3.4v5.39l-3,1.72L236,226.7l.66-14.71Z" fill="#8787d1"/><path d="M235.27,214.63c3.18,2.74,6.6,2.65,10.54,1,2.84-5,6.18-35.37-.92-40.23-7.62-5.21-19.52-4.28-21.51-3.72l-29.17,4.78c-2.24,3.81,3.69,23.76,16.64,24.31s21.22-4.32,21.22-4.32Z" fill="#124577"/><path d="M223.93,131.27a6.92,6.92,0,0,0-3.27,3l0,.1c-2.05,1.68-2.37,4.75-4.55,6.26,0,.06-2.05,1.5-2.07,1.56s.2-2.81.19-2.79v0c-.71,1.94-1.4,3.88-2,5.85a1.21,1.21,0,0,0,.31.14l-.23.11-.2.12a.66.66,0,0,1-.39.44,1.55,1.55,0,0,0,2.17,1.82l6.6-3.22a18.39,18.39,0,0,0,2.58-.75c0-.69.11-1.38.17-2.06a5.79,5.79,0,0,0,.44-5.46.62.62,0,0,1,.12-.12l0-.07a5,5,0,0,0,2.07-3.28C225.92,132,225,130.78,223.93,131.27Z" fill="#f7931e"/><path d="M215.54,137.5s7.52,4.67,8.3,8.56c0,0-5.28,11.47-4.93,11.93,6,7.78-11.93-4.93-11.93-4.93S210.61,142.17,215.54,137.5Z" fill="#68e1fd"/><path d="M232.66,140.36c.62,5.19-6,12.43-8.8,13.82-3.83,1.91-5.32-14-22.15-13.94-1.09,0-6.55-2.32-9.42,4.85s0,27.74,1.91,31.32c1.69,3.16,12.91,10.76,28.93,2.63l.24-7.41s9.46-.2,14.46-7.16c4.67-6.48,7.44-16.23,7-21C241.06,141.83,236.38,139.13,232.66,140.36Z" fill="#68e1fd"/><path d="M215.54,137.5s7.52,4.67,8.3,8.56c0,0-5.28,11.47-4.93,11.93,6,7.78-11.93-4.93-11.93-4.93S210.61,142.17,215.54,137.5Z" fill="#8787d1"/><path d="M246.27,134a1.6,1.6,0,0,0-2.13-1.13,1.8,1.8,0,0,0-.64-1,1.61,1.61,0,0,0-1.82-.08,1.86,1.86,0,0,0-.46.38l-.1-.11a1.68,1.68,0,0,0-1.83-.5,1.57,1.57,0,0,0-.5.37,25.29,25.29,0,0,0-.71-2.71c-.27-.89-.71-2.53-1.81-2.73-.72-.13-1,.4-1.19,1a2,2,0,0,0-.07,1.34,14.35,14.35,0,0,0,.26,1.79c.1.84.19,1.69.27,2.54v0a.56.56,0,0,0-.4.16,3.06,3.06,0,0,0-1.08,3.46,26.42,26.42,0,0,0,2,5.11.58.58,0,0,0,.81.26l.08.31a.62.62,0,0,0,1.22-.07l0-.12a.59.59,0,0,0,.21.11l.05.68c0,.63,1,.63,1.19.11l.06.5c.08.69,1.18.62,1.22-.07l0-.56a.71.71,0,0,0,.53-.27.68.68,0,0,0,.44.25.57.57,0,0,0,.59.08l0,.15a.69.69,0,0,0,.81.46c0,.07,0,.14,0,.21,0,.79,1.24.89,1.23.1q0-2.36-.13-4.73a.59.59,0,0,0,.18-.14C245.79,137.93,246.89,135.81,246.27,134Zm-6.6-1.19a.4.4,0,0,1,.34-.05.69.69,0,0,0-.08.15h-.37A.51.51,0,0,1,239.67,132.84Z" fill="#f7931e"/><path d="M210.62,121.29c0,.17,1,10.69-1.31,13s-8.61,1.36-10.16-1.17-3.46-5.87-1.8-9.79S210.34,118.71,210.62,121.29Z" fill="#f7931e"/><path d="M207.25,128.14a1,1,0,0,0-.18-1.12,5.08,5.08,0,0,0-2.84-1.77,2.13,2.13,0,0,0-2.49,1.34c-.72,2.39,3.15,3.09,4.73,3.29a1.06,1.06,0,0,0,1.05-1.05A.94.94,0,0,0,207.25,128.14Z" fill="#ffe8e6"/><path d="M232.66,140.36c.62,5.19-6,12.43-8.8,13.82-3.83,1.91-5.32-14-22.15-13.94-1.09,0-6.55-2.32-9.42,4.85s0,27.74,1.91,31.32c1.69,3.16,12.91,10.76,28.93,2.63l.24-7.41s9.46-.2,14.46-7.16c4.67-6.48,7.44-16.23,7-21C241.06,141.83,236.38,139.13,232.66,140.36Z" fill="#8787d1"/><path d="M231.34,169.82a20.73,20.73,0,0,1-24.28-8.06c-.34-.51-1.17,0-.83.48a21.69,21.69,0,0,0,25.36,8.5C232.17,170.53,231.92,169.61,231.34,169.82Z" fill="#fff"/><path d="M221.88,152.4a15.41,15.41,0,0,0-3.73-5.27c-1.83-1.67-4.1-2.74-6-4.3-.38-.31-.94.23-.55.55,1.81,1.48,3.94,2.5,5.71,4a14.84,14.84,0,0,1,3.91,5.38C221.41,153.25,222.08,152.86,221.88,152.4Z" fill="#fff"/><path d="M210.85,122.78l-3.35,1.76s2.59,9.86,3.37,12.45-2.33,6.22-12.45,6.48-9.6-15-7.26-20.75,9.34-8.3,15-6.74A5.88,5.88,0,0,1,210.85,122.78Z" fill="#b24d16"/><path d="M228.93,195.5a1.61,1.61,0,0,0-2.69-.48,18.08,18.08,0,0,1-7.94,5.05c-5.36,1.61-13.15.85-16-4.67-5.11-10-.35-22.52-5.67-32.28a10.76,10.76,0,0,0-4-4.25c-4.8-2.77-8,.26-9.53,4-2.28,5.48-2.2,12.3-2.09,18.14a97.6,97.6,0,0,0,1,14.09s3.28,19.58,28.84,14.32a38.8,38.8,0,0,0,12.56-4.58,17.24,17.24,0,0,0,5.12-4.44A5,5,0,0,0,228.93,195.5Z" fill="#68e1fd"/><polyline points="244.23 135.77 244.23 136.71 244.7 137.29" fill="#adcee1"/><path d="M263.15,124.31,244.77,135.7a1.14,1.14,0,0,0,0,2l27.89,15.78a2.55,2.55,0,0,0,2.55,0l18.3-10.75c1.33-1.09,1.23-3.15,0-3.23L265.8,124.26A2.59,2.59,0,0,0,263.15,124.31Z" fill="#88d3d8"/><path d="M263.15,123.52l-18.38,11.39a1.14,1.14,0,0,0,0,2l27.89,15.78a2.55,2.55,0,0,0,2.55,0l18.3-10.75a1.42,1.42,0,0,0,0-2.45L265.8,123.48A2.59,2.59,0,0,0,263.15,123.52Z" fill="#fff"/><path d="M263.9,122s7.63-24.63,7.58-24.63.24-1.09,1.6-.48l29.29,17.24s1.42.58,1.14,1.9-7.46,24.1-7.46,24.1a1.24,1.24,0,0,1-1.38.48c-.89-.28-30.09-17.24-30.09-17.24A1.12,1.12,0,0,1,263.9,122Z" fill="#053855"/><polygon points="271.97 99.12 301.96 116.61 295.74 137.49 265.36 120.53 271.97 99.12" fill="#68e1fd"/><path d="M262,126.13l-6.72,4.19a.81.81,0,0,0,0,1.39l24.12,13.75a2.37,2.37,0,0,0,2.37,0c1.55-.9,4.22-2.53,5.85-3.53a1,1,0,0,0,0-1.69l-24.28-14.11A1.31,1.31,0,0,0,262,126.13Z" fill="#68e1fd"/><path d="M262.38,137.49l8.43,4.74a.84.84,0,0,1,0,1.46l-5,2.9a1.12,1.12,0,0,1-1.12,0l-8.62-4.92a.7.7,0,0,1,0-1.22l5.15-3A1.12,1.12,0,0,1,262.38,137.49Z" fill="#68e1fd"/><path d="M262,126.13l-6.72,4.19a.81.81,0,0,0,0,1.39l24.12,13.75a2.37,2.37,0,0,0,2.37,0c1.55-.9,4.22-2.53,5.85-3.53a1,1,0,0,0,0-1.69l-24.28-14.11A1.31,1.31,0,0,0,262,126.13Z" fill="#053855" opacity="0.1"/><path d="M262.38,137.49l8.43,4.74a.84.84,0,0,1,0,1.46l-5,2.9a1.12,1.12,0,0,1-1.12,0l-8.62-4.92a.7.7,0,0,1,0-1.22l5.15-3A1.12,1.12,0,0,1,262.38,137.49Z" fill="#053855" opacity="0.1"/><path d="M188.45,109.44a5.14,5.14,0,0,0-5.14-5,5.36,5.36,0,0,0-5.31,4.26,6.24,6.24,0,0,0,.53,4,3.67,3.67,0,0,0,3.18,2c.41,0,.83,0,1.24.06a3.07,3.07,0,0,0,1.62-.41A5.12,5.12,0,0,0,188.45,109.44Z" fill="#fff"/><path d="M159.51,115.5a4.73,4.73,0,0,0-.43-.36,6.8,6.8,0,0,0-1-4.32c-1.16-1.9-3.32-3.84-5.68-3.73a5.14,5.14,0,0,0-4.74,5.26,5.06,5.06,0,0,0,.06.57A6.21,6.21,0,0,0,146,114a5.64,5.64,0,0,0,6.06,9.27c.14-.06.27-.13.4-.2h0a5.64,5.64,0,0,0,6.91-.63A4.91,4.91,0,0,0,159.51,115.5Z" fill="#fff"/><path d="M166.38,150.76c-2.11-6-7.55-9.65-13.74-10.38-.48-.06-1-.09-1.43-.11a15.44,15.44,0,0,0-9.57-9.72,17.48,17.48,0,0,0-6.51-1,18,18,0,0,0-1.61-2c-2.32-7.13-8.15-13-16.17-13.68s-16.93,5.51-21.71,13.28l-.25-.08a16.94,16.94,0,0,0-18.73,7.32A17.29,17.29,0,0,0,75,148.76c-8,2.73-12.73,15.51-9.48,23.68,2.17,5.44,7,7.93,12.35,9a18.94,18.94,0,0,0-.06,6.67A17,17,0,0,0,89.85,202a20.74,20.74,0,0,0,14-1c5.15,5.7,14.37,7.88,22.54,4.8A20.87,20.87,0,0,0,137,197.34c7.59,2.13,16,0,21.18-7.19,3.29-4.61,6-10.83,4.57-16.54a14.47,14.47,0,0,0,2.72-3.62C168.48,164.39,168.44,156.62,166.38,150.76Z" fill="#fff"/><polygon points="192.34 96.2 213.61 83.12 229.37 92.51 207.34 105.44 192.34 96.2" fill="#68e1fd"/><polygon points="217.86 106.34 239.13 93.26 254.88 102.65 232.86 115.58 217.86 106.34" fill="#68e1fd"/><polygon points="236.37 119.61 247 113.07 254.88 117.77 243.87 124.23 236.37 119.61" fill="#68e1fd"/><path d="M122.6,144.71V134.09a1.87,1.87,0,0,1,2.69-1.68l19,9.34a4.43,4.43,0,0,1,2.48,4v11.85Z" fill="#5a3f2a"/><polyline points="146.77 157.58 146.77 167.73 144.56 168.91 144.56 156.12" fill="#5a3f2a"/><path d="M121.31,145.33V134.91a1.84,1.84,0,0,1,2.65-1.65l18.66,9.17a4.35,4.35,0,0,1,2.43,3.91V158Z" fill="#835e41"/><polygon points="144.56 168.91 142.39 167.81 142.39 159.24 144.56 159.24 144.56 168.91" fill="#835e41"/><polygon points="102.63 184.62 144.56 163.42 145.06 157.97 144.32 157.58 102.63 178.47 102.63 184.62" fill="#5a3f2a"/><polyline points="144.08 154.63 144.08 157.8 130.47 164.74 128.65 162.1" fill="#e0cfb3"/><path d="M109.76,151.25l13-7.27,20.69,9.73a1,1,0,0,1,0,1.88l-12.06,6.19Z" fill="#f6f5f0"/><path d="M120.39,148c-.32-1.58.35-3.21,1-4.64a23.2,23.2,0,0,1,1.84-3.44c.76-1.19,1.64-2.46,3.18-2.52a6.69,6.69,0,0,1,2,.3,44.71,44.71,0,0,1,9.54,3.64c2.29,1.21,5.21,2.54,5.15,5.76,0,2.42-3.84,9.31-6.33,9.68-1.2.18-2.73-.68-3.79-1.14-2-.85-3.86-1.83-5.74-2.83-1.47-.78-2.91-1.57-4.41-2.3a4.13,4.13,0,0,1-2.18-1.92A3.59,3.59,0,0,1,120.39,148Z" fill="#febc22"/><path d="M135.81,150.15a16.46,16.46,0,0,0-1.64,6,6.35,6.35,0,0,0,2.51.61c1.8-.26,3.22-2.77,4.06-4.15,1.39-2.29,3.24-5.21,1.66-7.9C139.68,143.27,136.74,148.32,135.81,150.15Z" fill="#f9ab0b"/><path d="M126.28,158.27c-5-2.39-4.25-2.15-11.88-5.94L110,150.13,84.74,162.5l19.85,12.56v5.28l28.14-14.19V161.5Z" fill="#4d57d0"/><polygon points="132.73 161.5 104.59 175.06 104.59 180.34 132.73 166.14 132.73 161.5" fill="#3d4bb2"/><path d="M102.25,189.1l2-1v-15s0-2.33-5.35-5-16.69-8.46-17-8.38-3.26-.54-3.88,4.11,0,13.66,0,13.66l1.86.78,1.86-1v-5.9l16.85,7.86,3.64,9.91" fill="#573c29"/><path d="M102.25,179.16v-6.05a4,4,0,0,0-2.41-3.34c-2.41-1.16-19-9.47-19.09-9.24s-2.25-.47-2.72,3.26v13.66l1.86.78v-4.81l20.33,10.48v4.19l2,1Z" fill="#835e41"/></svg>