<svg id="Layer_2" data-name="Layer 2" xmlns="http://www.w3.org/2000/svg" xmlns:xlink="http://www.w3.org/1999/xlink" viewBox="0 0 400 300"><defs><linearGradient id="linear-gradient" x1="65.95" y1="207.93" x2="76.62" y2="196.59" gradientUnits="userSpaceOnUse"><stop offset="0" stop-color="#ff734d" stop-opacity="0"/><stop offset="1" stop-color="#42210b"/></linearGradient><linearGradient id="linear-gradient-2" x1="138.6" y1="254.96" x2="160.17" y2="232.02" xlink:href="#linear-gradient"/><linearGradient id="linear-gradient-3" x1="181.25" y1="129.2" x2="191.92" y2="117.86" xlink:href="#linear-gradient"/></defs><title>PP</title><path d="M197.51,287.46,25,185.51c-5.49-3.08-10.2-8.15-4.85-11.46L193.28,74.27c2.6-1.61,6.54-2.66,9.18-1.13L383.54,178.23c5.49,3.19,6.48,12.1,1,15.29L220.24,287.3A22.94,22.94,0,0,1,197.51,287.46Z" fill="#ff734d"/><path d="M58.66,205.47a2.33,2.33,0,0,1,2,.49c0,.25,0,.47-.05.7,3.13,1.94,6.27,3.87,9.43,5.76l1.46-.61q7.4-7.41,14.88-14.72c-1.71-1.23-3.36-2.54-5-3.84a156.92,156.92,0,0,0-23,12Z" opacity="0.41" fill="url(#linear-gradient)"/><path d="M152.25,224.28c-6.61,2.73-23.66,11.27-34,17a87.24,87.24,0,0,0,11.07,5.63c3.81,1.76,7.14,4.24,10.72,6.4,5.69,3.43,12.12,5.75,17.24,10,7.24-6.13,19.28-15.29,25.82-20.47.23,0,2.47-2.2,2.3-3.55C178.22,235.87,153.71,225.42,152.25,224.28Z" opacity="0.41" fill="url(#linear-gradient-2)"/><path d="M144,234l-1.58-1,0-17.79,7.81-.28s.15,7.59,2,9.32,6.41.49,6.86.64,3.52-.74,4.9.68-4.68,5.52-7.9,6.27a20.8,20.8,0,0,1-6.7.25s-.7-4.55-1.82-4.1-1.2,5.26-1.2,5.26Z" fill="#68e1fd"/><path d="M138.15,139.87a126.26,126.26,0,0,0-1.94,18.49c-.13,7,2.34,62.94,2.34,62.94s4.64,5.44,15.94,2.16c1.64-.47,2.16-54.59,2.16-54.59L152.78,144" fill="#fc9c54"/><path d="M159.82,105.68a.31.31,0,0,1,.52,0,13.72,13.72,0,0,1,2,10.29c-.08.38-.66.22-.59-.16a13.09,13.09,0,0,0-1.67-9.37,21.64,21.64,0,0,0-2.56,10.4.3.3,0,0,1-.61,0A22.29,22.29,0,0,1,159.82,105.68Z" fill="#42a200"/><path d="M165.42,247.77l-1.58-1,0-17.79,7.81-.28s.15,7.59,2,9.32,6.41.49,6.86.64,3.52-.74,4.9.68-4.68,5.52-7.9,6.27a20.8,20.8,0,0,1-6.7.25s-.7-4.55-1.82-4.1-1.2,5.26-1.2,5.26Z" fill="#68e1fd"/><path d="M162.62,142.46s7.2,26.58,10.13,50.37c.7,5.71,6.61,39.77,6.61,39.77s-9.74,3.56-18.4.77c0,0-10.3-43.46-10.74-44.31s-7.39-29-8.19-49.2" fill="#fc9c54"/><path d="M140.61,108.64l4.11-1.55c1.05.07,10.4,3.13,14.65,9.32a40.52,40.52,0,0,1,1.36,5.93c.54,2.67,1,5.35,1.34,8a59.2,59.2,0,0,1,.5,8.86c0,1.27-.07,1.91-.2,3.17a5.61,5.61,0,0,1-1.58,1.12c-12.28,5.28-22-1.13-22.49-2.12s-2.11-15.47-3-24.09A8.34,8.34,0,0,1,140.61,108.64Z" fill="#68e1fd"/><path d="M150.64,92.87s3.86,14-1.27,15.93-11.73-3.57-12.39-6.46S142.95,88.66,150.64,92.87Z" fill="#f04900"/><path d="M125.31,88.68a6.52,6.52,0,0,1,7.76-3.44c2.83.92,4.54,3.35,5.37,6.06,2.55-2.23,6.35-3.36,11.17-1.88,0,0,4.73,2,3.87,5s-4.45,3-7.46,3.59-.57,3.23-.72,6.2-1.49,3.46-2.74,3.72-6.93-1-7.73-7.67a8.89,8.89,0,0,1-.06-1.23,15.92,15.92,0,0,1-2.35.07,8.73,8.73,0,0,1-5-1.38A7.58,7.58,0,0,1,125.31,88.68Z" fill="#fc9c54"/><path d="M155.58,108.21a2.67,2.67,0,0,1-.47-1.9,1,1,0,0,1,1.82-.42l.44.6c.07-.77.15-1.54.26-2.31a1,1,0,0,1,2,.07c0,.24.06.49.08.73a4,4,0,0,1,.17.79c1.09.14,2.39.54,2.58,1.79,0,0,0,.06,0,.08.84,0,1.66.33,1.69,1.33a3.68,3.68,0,0,1,0,.57c.85.25,1.47.68,1.35,1.79a16.34,16.34,0,0,1-1,3.77,1,1,0,0,1-.76.57c-.12.54-.26,1.07-.41,1.6a1.5,1.5,0,0,1-2.52.28,1.18,1.18,0,0,1-.3-.06,1,1,0,0,1-.83.14,1,1,0,0,1-1.51-.45,1,1,0,0,1-.33-.84c0-.23,0-.46,0-.68v0Q156.64,111.95,155.58,108.21Z" fill="#f04900"/><path d="M157.29,113.4c.32.08,4.82-4.05,8.23-2.63,0,0,13,21.92.87,27.72-6,2.88-10.67-6-10.67-6l3.45-6.82Z" fill="#68e1fd"/><path d="M158.37,114.29a43.8,43.8,0,0,1,5.78,15.16c.11.63-.85.9-1,.27a43,43,0,0,0-5.68-14.92C157.17,114.24,158,113.74,158.37,114.29Z" fill="#653200"/><path d="M156,133.33c1,1.95,2.28,4,4.28,5a6.56,6.56,0,0,0,7.23-1.12c4.26-3.67,3.62-10,2.77-14.93-.11-.63.85-.9,1-.27,1,5.54,1.51,12.74-3.72,16.45a7.52,7.52,0,0,1-7.09,1c-2.5-1-4.09-3.38-5.29-5.69C154.79,133.27,155.66,132.76,156,133.33Z" fill="#653200"/><path d="M145.05,159.41c.64,12.71,4.39,24.89,7.57,37.13s5.89,24.43,8.21,36.78l-1.08-.3q-3.53-18.71-8.34-37.15c-3.15-12-6.73-24-7.36-36.46C144,158.77,145,158.77,145.05,159.41Z" fill="#653200"/><polygon points="173.28 191.41 189.89 201.19 264.99 157.46 274.22 162.99 281.79 138.08 240.82 142.88 248.38 147.86 173.28 191.41" fill="#68e1fd"/><path d="M189.41,200.43l21-11.82s24.24-12.62,46.87,5.91l-8.21,4.91L286.75,203l-7-21.83-8,4.81s-34.05-24.64-68.9-7.61l-22.23,12Z" fill="#68e1fd"/><polygon points="81.97 34.57 81.97 49.79 117.28 30.05 124.86 18.58 117.2 14.33 81.97 34.57" fill="#bc3202"/><polygon points="83.76 35.75 83.76 50.98 119.07 31.24 126.35 19.36 118.99 15.51 83.76 35.75" fill="#f04900"/><rect x="77.58" y="25.88" width="8.77" height="173.97" rx="4.39" ry="4.39" fill="#68e1fd"/><polygon points="118.44 63.33 83.76 43.21 83.76 59.24 118.35 78.63 124.94 74.47 118.44 63.33" fill="#f04900"/><polygon points="116.65 64.27 81.97 44.15 81.97 60.18 116.53 79.9 123.28 75.63 116.65 64.27" fill="#bc3202"/><polygon points="83.76 43.21 81.97 44.15 83.76 45.19 83.76 43.21" fill="#f04900"/><path d="M173.13,126.87c1.3-.22,2.35-.19,2.86.4-.91,9,5.56,4.6,8.4,6.87l2.44-1q7.4-7.41,14.88-14.72c-1.71-1.23-3.36-2.54-5-3.84A157.58,157.58,0,0,0,173.13,126.87Z" opacity="0.41" fill="url(#linear-gradient-3)"/><path d="M202.4,118.49V74.14h-9.66v44.74C196.08,119.85,199.59,120,202.4,118.49Z" fill="#a83f1e"/><path d="M198.55,74.26v45.43a9.72,9.72,0,0,0,3.85-1.07V74.26Z" fill="#7f2b14"/><path d="M211,78.29c6-.29,13.69-2.45,11.44-9.14-1.33-4-5.42-7.44-8-10.58s-2-5.24-5-8.3c2.49.1,6.1-.37,6.71-2.83.54-2.16-11.07-15.4-16.09-20.77a3.21,3.21,0,0,0-4.36-.32c-6,4.76-21.25,17.44-19.12,21.09,1.29,2.2,3.89,3,6.21,3.17C177.31,56.11,171,63,170.42,70.33c-.55,6.36,6,7.21,12,6.88-4.19,5.09-15.56,19.6-13,24,1.37,2.32,5.78,3.09,8.39,3.61a83.37,83.37,0,0,0,17.2,1.66,53,53,0,0,0,17.1-2.58,24,24,0,0,0,8.34-4.59c2.67-2.51,1.18-5.18-.55-7.7C216.92,87.21,214,82.75,211,78.29Z" fill="#77c457"/><path d="M209.45,50.27s-7.31-.48-12.4-.34l25.79,21.2s.69-2.46-3.87-7.51A103.77,103.77,0,0,1,209.45,50.27Z" fill="#0d5b23"/><path d="M211,78.29H196l24.5,21a3.73,3.73,0,0,0,1.08-4.84C220,91.63,211,78.29,211,78.29Z" fill="#0d5b23"/></svg>