<svg xmlns="http://www.w3.org/2000/svg" xmlns:xlink="http://www.w3.org/1999/xlink" viewBox="0 0 400 300"><defs><linearGradient id="linear-gradient" x1="303.05" y1="190.64" x2="286.95" y2="201.37" gradientUnits="userSpaceOnUse"><stop offset="0" stop-color="#e0584e"/><stop offset="1" stop-color="#ffb3a6"/></linearGradient><linearGradient id="linear-gradient-2" x1="139.39" y1="242.55" x2="135.55" y2="249.43" xlink:href="#linear-gradient"/><linearGradient id="linear-gradient-3" x1="68.93" y1="197.17" x2="61.18" y2="203.04" xlink:href="#linear-gradient"/><linearGradient id="linear-gradient-4" x1="199.46" y1="173.96" x2="158.66" y2="209.53" xlink:href="#linear-gradient"/><linearGradient id="linear-gradient-5" x1="176.89" y1="149.59" x2="198.15" y2="124.18" gradientUnits="userSpaceOnUse"><stop offset="0" stop-opacity="0"/><stop offset="0.99" stop-color="#1a1a1a"/></linearGradient></defs><title>aaa</title><g style="isolation:isolate"><g id="Layer_2" data-name="Layer 2"><path d="M196.69,279.77,345.9,191.58c4.75-2.67,8.83-7,4.19-9.92L200.35,95.36c-2.25-1.39-5.66-2.3-7.94-1L35.77,185.29c-4.75,2.76-5.6,10.46-.85,13.22L177,279.63A19.84,19.84,0,0,0,196.69,279.77Z" fill="#ffb3a6"/><polyline points="318.7 192.93 287.83 211.42 271.77 198.76 299.42 181.74" opacity="0.32" fill="url(#linear-gradient)"/><polyline points="193.44 264.38 176.41 276.52 84.75 221.79 102.19 211.05" opacity="0.32" fill="url(#linear-gradient-2)"/><path d="M94.71,216l32.79-18.6a1.91,1.91,0,0,1,1.89,0L216.12,247a1.91,1.91,0,0,1,.06,3.28l-31.89,19.83a1.91,1.91,0,0,1-2,0L94.7,219.27A1.91,1.91,0,0,1,94.71,216Z" fill="#e2e2e2"/><polygon points="217.08 248.69 217.08 247.07 215.91 248.38 217.08 248.69" fill="#e2e2e2"/><path d="M93.74,217.5c0-.11,0-1.22,0-1.22l1.16,1.22Z" fill="#e2e2e2"/><polyline points="84.68 198.68 66.32 209.88 48.48 199.22 65.92 188.49" opacity="0.32" fill="url(#linear-gradient-3)"/><path d="M228.5,75a4.76,4.76,0,0,1-3.39-3.93c-.39-3.17,2.28-7.28,9.08-6.89s19.18,5.34,13.17,35.91c0,0-14.75-6.65-20.39-12.26C227,87.85,226.78,77.78,228.5,75Z" fill="#4e2200"/><polyline points="271.16 178.04 192.32 226.11 115.72 180.38 190.62 134.27" opacity="0.32" fill="url(#linear-gradient-4)"/><polyline points="240.41 153.15 240.41 188.81 243.05 188.81 243.62 152.23" fill="gray"/><polyline points="255.42 139.43 260.71 178.21 258.06 178.21 252.54 140.87" fill="gray"/><path d="M205.8,161.22s-2.26,7.4-2.76,8.15-7.9,5.64-7.77,7.15,2.92,2.13,4.65,2,11.77-4.31,12.39-5.54.63-11.76.63-11.76Z" fill="#5c2d1d"/><path d="M217.69,169.87s-2.26,7.4-2.76,8.15-7.9,5.64-7.77,7.15,2.92,2.13,4.65,2,11.77-4.31,12.39-5.54.63-11.76.63-11.76Z" fill="#5c2d1d"/><path d="M256.86,102.57c-.7,2-4.65,31.7-4.65,31.7l-4-1.33,5.18-30.53" fill="gray"/><polyline points="255.42 139.43 255.5 134.64 251.25 136.09 252.54 140.87" fill="#a9cbf8"/><path d="M245.84,132s10.65,4.09,9.58,8.11-9.57,13.87-15,13-12.09-5.59-12.09-5.59" fill="#4a42a4"/><path d="M245.84,127.12s10.65,4.09,9.58,8.11-9.57,13.87-15,13-12.09-5.59-12.09-5.59" fill="#a6aced"/><path d="M250.05,89.77s10.29,2.57,11.33,8.49,1.34,16.84-13.26,12.6-7.71-15.21-7.71-15.21" fill="#a6aced"/><path d="M237.17,102.41s3.33,14,.86,21.49-16.51,13.49-16.51,13.49l-5.92,30.12A19.09,19.09,0,0,1,201,165.78s1.64-26.58,4.13-33.33,21.8-20,21.8-20" fill="#5c2d1d"/><path d="M237.74,120.21s-19.31,13.25-21.8,20-4.13,33.33-4.13,33.33a19.09,19.09,0,0,0,14.61,1.73l5.92-30.12s10-2.87,12.51-10.36,1.45-18.87,1.45-18.87" fill="#5c2d1d"/><path d="M248.23,87.94c-4.61-5.67-14.33-5-14.33-5s-5.65-3.38-10.37.62c-1.43,1.21-1.89,4.62-1.87,9a16,16,0,0,0,1.61,4.89c1.28,2.51,2.65,4.9,3.05,7.73.49,3.44,0,6.58-2.45,9,6.05,5.45,12.82,9.42,21.45,7.86C248.9,113.38,250.45,90.68,248.23,87.94Z" fill="#ffe9c7"/><path d="M231.57,122.88c-3.48,3.47-7.2,6.81-10.43,10.51-2.81,3.21-3.91,7.29-5,11.33-2.54,9.41-3.67,19.12-4.8,28.77-.07.59.85.58.92,0,1.08-9.29,2.18-18.62,4.54-27.69,1.16-4.45,2.32-8.87,5.5-12.33s6.61-6.64,9.92-9.94A.46.46,0,0,0,231.57,122.88Z" fill="#5c2d1d"/><path d="M227.9,118.23c.86-5.67,2.14-11.31,2.13-17.06,0-6.52-1.76-13-.19-19.48a8.13,8.13,0,0,0-6.32,1.89c-1.43,1.21-1.89,4.62-1.87,9a16,16,0,0,0,1.61,4.89c1.28,2.51,2.65,4.9,3.05,7.73.49,3.44,0,6.58-2.45,9C225.19,115.46,226.48,117.27,227.9,118.23Z" fill="#ff7351"/><path d="M248.23,87.94a13.29,13.29,0,0,0-6.89-4.16c-.91,7.29-1.37,14.62-2.1,21.92-.55,5.51-.74,11.07-1.24,16.59a22.72,22.72,0,0,0,7.32-.17C248.9,113.38,250.45,90.68,248.23,87.94Z" fill="#ff7351"/><path d="M271.79,149.8l2-1.08L183.86,97.24,125.39,130.4l.79.46v43.77a.44.44,0,0,0,.87,0V131.37l86.47,50.52.21-.12v31.52a.44.44,0,0,0,.87,0v-32l56.56-31.15s0,0,0,0V178a.44.44,0,0,0,.87,0V150.18A.39.39,0,0,0,271.79,149.8Z" fill="#68e1fd"/><path d="M271.79,149.8l2-1.08L183.86,97.24,125.39,130.4l.79.46v43.77a.44.44,0,0,0,.87,0V131.37l86.47,50.52.21-.12v31.52a.44.44,0,0,0,.87,0v-32l56.56-31.15s0,0,0,0V178a.44.44,0,0,0,.87,0V150.18A.39.39,0,0,0,271.79,149.8Z" opacity="0.15"/><path d="M181.61,128.78l-28.24,15.73c4.72,3,23.71,13.2,28.27,16.41l29.19-18.68L206,130.56Z" opacity="0.32" fill="url(#linear-gradient-5)"/><polyline points="209.47 143.01 230.03 131.03 203.24 115.62 182.23 126.44" fill="#b3b3b3"/><path d="M204.15,119.37s5.4,23.93,5.32,23.64-26.63-14.56-26.81-15.07-7-24.79-7-24.79Z" fill="#fff"/><polygon points="198.04 115.89 209.96 106.63 215.02 110.88 203.78 119.16 198.04 115.89" fill="#ffe0ce"/><path d="M223,84.26s-13.27,20.79-16.26,23.38a12.59,12.59,0,0,1-1.56,1.08,31.65,31.65,0,0,1,6,7.24,33.33,33.33,0,0,0,3.82-3.51c2.54-3,10.14-13.32,10.14-13.32Z" fill="#ff7351"/><path d="M232.75,79.92c0,1.87,0,3.74-.05,5.61.34.86.81,1.45,1.49,1.38,2.23-.24,4.88-3.57,4.88-3.57l.64-7.21Z" fill="#f9c7af"/><path d="M228.08,72c.28,1.18.77,11.94,5.82,11s5.81-6.84,5.81-6.84-3.51-1-3.51-2.73C236.2,68.61,227.24,68.46,228.08,72Z" fill="#ffe0ce"/><polygon points="224.62 100.16 223.9 89.22 220.6 105.05 224.62 100.16" fill="#895851"/><path d="M224.94,125.13a44.21,44.21,0,0,0-5.63,3.17,8.37,8.37,0,0,0-3.23,3.14c-.22.48-1.16,2.25-.67,2.75s1.59,0,1.59,0-.06,1,.29,1.25,1.41-.59,1.41-.59.48,1.24,1.15.94,1.86-2.06,1.86-2.06-.13,1.36.46,1.36,3.09-3.45,3.09-3.45l11.15-6.94s-.75-3.39-.91-3.54c-.73-.67.28-.72-.66-1.08-.35-.13-1.25.48-1.54.62-1,.52-2.07,1.07-3.09,1.63-1.69.91-3.31,1.83-5,2.67Z" fill="#ffe0ce"/><path d="M224,129.6a12.05,12.05,0,0,0-2.63,4.51c-.07.21.26.3.33.09a11.64,11.64,0,0,1,2.55-4.36C224.42,129.68,224.18,129.44,224,129.6Z" fill="#5c2d1d"/><path d="M222.48,128.57a13,13,0,0,0-3.9,6.51.17.17,0,0,0,.33.09,12.7,12.7,0,0,1,3.82-6.36C222.88,128.66,222.64,128.42,222.48,128.57Z" fill="#5c2d1d"/><path d="M220.91,128.21a13.66,13.66,0,0,0-4.07,6.06c-.07.21.26.29.33.09a13.33,13.33,0,0,1,4-5.91C221.31,128.31,221.07,128.07,220.91,128.21Z" fill="#5c2d1d"/><path d="M234.91,116.55c-.15.64-3.07,2.57-6.11,4.43a15.43,15.43,0,0,1,7.63,7c3.48-1.79,7-3.82,8.35-5.24,2.84-3.1,3.78-16.08,3.78-16.08Z" fill="#ff7351"/><path d="M227.5,72.9s3.49,1.81,10.76.51c0,0-1.42-5.58-7.21-6.08S227.5,72.9,227.5,72.9Z" fill="#4e2200"/><polyline points="293.78 183.74 293.78 187.59 322.03 187.59 322.03 183.74" fill="#002a40"/><ellipse cx="307.91" cy="187.59" rx="14.12" ry="8.28" fill="#002a40"/><ellipse cx="307.91" cy="183.74" rx="14.12" ry="8.28" fill="#434f54"/><path d="M310.83,185.13v-79.9H305v79.61A6.72,6.72,0,0,0,310.83,185.13Z" fill="#002a40"/><path d="M291.56,128.95s14.31,11.33,23.61,12,11.07-2.89,10.75-7.7-2.57-9-5.29-12.51-4.49-8.5,1.6-17.8,10.26-12.83,6.42-19.41-19.89-14.59-25.18-11.87-1.6,5.13-4.65,9S292.24,87.67,297,93,290.92,109.54,291.56,128.95Z" fill="#002a40"/><path d="M320.83,76.46a25.44,25.44,0,0,1,0-12.17c1.66-6.45-7.45-3.13-11.5,0s.65,6.15-1.11,12.17" fill="#002a40"/><path d="M308.4,70.87c-4.28,3.44-7.17,9.92-9.11,14.22C294.38,96,293,108,289.87,119.46c.59.35,1.19.69,1.79,1,2.5-9,3.83-18.35,6.67-27.28a65.67,65.67,0,0,1,6.24-13.91A33.73,33.73,0,0,1,309,73C308.78,72.29,308.59,71.58,308.4,70.87Z" fill="#ff7351"/><path d="M320,70.21q0,1.76-.08,3.51a6.09,6.09,0,0,1,.53,2.51c0,4.95-4.85,10.12-7.31,14.23a89.1,89.1,0,0,0-5.87,11.45c-3.25,7.82-4.69,16.08-3.36,24.42l2.12.47c-2.62-14.24,3.76-27.42,11.21-39.18C320.27,82.84,325.63,74.13,320,70.21Z" fill="#ff7351"/><path d="M99.64,59.56l.76,41.91a2.64,2.64,0,0,0,3.81,2.31L139.83,86a3.49,3.49,0,0,0,1.93-3.19L141,40.92a2.85,2.85,0,0,0-4.15-2.49l-35.31,18A3.49,3.49,0,0,0,99.64,59.56Z" fill="#68e1fd"/><path d="M123.35,60.53c-1.34,7.55-4,23.18-11.82,18.34-1.07,1.65-2.25,3.43-3,4.28-1.52,1.82-.91,6.54,4.56,5.63a20.6,20.6,0,0,0,9.73-4.56c.76-.61,4.71-14.9,5.47-15.36s-.76,13.23,0,12.77,4-2,4-2V65.51s-.22-5.88-.52-7.66A14.72,14.72,0,0,1,123.35,60.53Z" fill="#002a40"/><path d="M94.71,214.66l32.79-18.6a1.91,1.91,0,0,1,1.89,0l86.73,49.6a1.91,1.91,0,0,1,.06,3.28l-31.89,19.83a1.91,1.91,0,0,1-2,0L94.7,218A1.91,1.91,0,0,1,94.71,214.66Z" fill="#fff"/><polyline points="190.28 253.78 190.28 254.81 197.82 254.81 197.82 253.78" fill="#434f54"/><ellipse cx="194.05" cy="254.81" rx="3.77" ry="2.21" fill="#434f54"/><ellipse cx="194.05" cy="253.78" rx="3.77" ry="2.21" fill="#728489"/><polygon points="99.47 216.57 116.52 226.41 146.66 208.86 129.68 199.18 99.47 216.57" fill="#68e1fd"/><polygon points="118.47 227.35 135.52 237.19 165.59 219.68 148.68 209.96 118.47 227.35" fill="#68e1fd"/><polygon points="137.29 238.16 154.34 248 184.45 230.47 167.49 220.77 137.29 238.16" fill="#68e1fd"/><polygon points="156.27 249.04 173.32 258.88 203.45 241.33 186.48 231.65 156.27 249.04" fill="#68e1fd"/><g style="mix-blend-mode:multiply"><polygon points="99.47 216.57 116.52 226.41 146.66 208.86 129.68 199.18 99.47 216.57" fill="#68e1fd"/><polygon points="118.47 227.35 135.52 237.19 165.59 219.68 148.68 209.96 118.47 227.35" fill="#68e1fd"/><polygon points="137.29 238.16 154.34 248 184.45 230.47 167.49 220.77 137.29 238.16" fill="#68e1fd"/><polygon points="156.27 249.04 173.32 258.88 203.45 241.33 186.48 231.65 156.27 249.04" fill="#68e1fd"/><g opacity="0.38"><polygon points="118.56 227.35 135.6 237.19 165.67 219.68 148.76 209.96 118.56 227.35" fill="#e0e0e0"/><polygon points="137.37 238.16 154.42 248 184.53 230.47 167.58 220.77 137.37 238.16" fill="#b3b3b3"/><polygon points="156.36 249.04 173.4 258.88 203.53 241.33 186.56 231.65 156.36 249.04" fill="gray"/></g></g><path d="M64.89,176.28s-2.38,20.47,8.45,24.43S90,194.37,90.13,176.28" fill="#06577a"/><ellipse cx="77.51" cy="176.28" rx="12.62" ry="7.29" fill="#f2696a"/><path d="M80.74,160.06s-5-7.15-2.79-12.09c0,0,1.78-3.18,4.31-3.68,0,0-.25,6.78,2.27,5.91s0-7.09,0-7.09,2.65-3.59,5.55-3.48,0,6.34,2,5.31.13-6.33,2.4-7a47.69,47.69,0,0,1,6.31-1s2.15,6.18,0,7.07-5.3,1.18-3.79,2.55,5.81-.2,5.81-.2.27,3.48-1.19,5-10-1.82-8.53,1.17,7.19,1.49,7.19,1.49-2.9,4.15-6.31,6S80.74,160.06,80.74,160.06Z" fill="#8ccc00"/><path d="M81.9,178s-3.58-3.53-2.88-6.57a4.65,4.65,0,0,1,2.05-2.55s.58,3.88,1.92,3.11-.76-4-.76-4,1.12-2.32,2.78-2.57.68,3.6,1.71,2.8-.6-3.61.62-4.21a27.55,27.55,0,0,1,3.47-1.25s1.88,3.28.75,4-2.88,1.24-1.88,1.85,3.27-.74,3.27-.74.52,1.95-.14,3-5.89,0-4.72,1.57,4.24.08,4.24.08a13.43,13.43,0,0,1-2.94,4.1C87.69,178,81.9,178,81.9,178Z" fill="#8ccc00"/><path d="M68.75,170.32s-8.69.34-11.7-4.14c0,0-1.72-3.21-.79-5.61,0,0,5.58,3.86,6.21,1.26s-6-3.81-6-3.81-1.6-4.16.05-6.55,5.35,3.41,5.56,1.15-5.27-3.51-4.58-5.76A47.69,47.69,0,0,1,60,141s6.37,1.51,6,3.8-1.85,5.11.12,4.56,2.95-5,2.95-5S72.15,146,72.64,148s-6.93,7.49-3.6,7.82,5.12-5.27,5.12-5.27,1.94,4.68,1.7,8.57S68.75,170.32,68.75,170.32Z" fill="#8ccc00"/><path d="M98.92,139.71q-1.38,1.17-2.78,2.38c.1-1,.21-2,.37-2.94.08-.52-.71-.74-.79-.22q-.31,2-.47,3.95c-2.44,2.14-4.86,4.37-7.11,6.74a29.32,29.32,0,0,1-.15-5c0-.53-.79-.53-.82,0a30.15,30.15,0,0,0,.24,5.8,56.81,56.81,0,0,0-4,4.88,16.27,16.27,0,0,1-2.81-6.56c-.1-.52-.89-.3-.79.22a16.83,16.83,0,0,0,3,7,.42.42,0,0,0,.08.07,31.75,31.75,0,0,0-6.31,17.51c0,.53.8.53.82,0a30.85,30.85,0,0,1,6-16.91,31.67,31.67,0,0,0,10.18,1c.52,0,.53-.86,0-.82a31,31,0,0,1-9.67-.89,59.58,59.58,0,0,1,5.72-6.64l.07,0c1.92.17,3.83.34,5.76.41a7,7,0,0,0,3.57-.41c.47-.24.06-.95-.41-.71-1.33.67-3.18.31-4.6.23-1.22-.07-2.43-.18-3.65-.28,2.93-2.9,6.07-5.6,9.1-8.16C99.91,139.94,99.32,139.37,98.92,139.71Z" fill="#06577a"/><path d="M73.47,155.69a.41.41,0,0,0-.79-.22,14.55,14.55,0,0,1-5.27,7.58q-1.4-3.87-2.55-7.83a24.53,24.53,0,0,0,4.82-6.8c.23-.47-.48-.89-.71-.41a23.9,23.9,0,0,1-4.38,6.3c-.86-3-1.62-6.07-2.25-9.16-.11-.52-.9-.3-.79.22q1.31,6.33,3.23,12.48a19.26,19.26,0,0,1-4.48-1.46c-.48-.22-.89.48-.41.71a20.15,20.15,0,0,0,5.18,1.65h0c.87,2.7,1.84,5.37,2.88,8a19.86,19.86,0,0,1-7.14-1.57c-.48-.2-.9.5-.41.71a21,21,0,0,0,7.88,1.7q2,4.94,4.35,9.72c.24.47.95.06.71-.41a128.19,128.19,0,0,1-5.63-13h0A15.45,15.45,0,0,0,73.47,155.69Z" fill="#06577a"/><path d="M88.34,166.31l-2.26,3.79a7.08,7.08,0,0,1-.72-1.18c-.23-.48-.94-.06-.71.41a7.83,7.83,0,0,0,.95,1.5l0,0L83.19,175a1.67,1.67,0,0,1-.5-1c-.06-.52-.89-.52-.82,0a2.59,2.59,0,0,0,.9,1.69l-3.06,5.14a.41.41,0,0,0,.71.41l4-6.78a6.14,6.14,0,0,0,2-.3c.5-.16.29-1-.22-.79a5.46,5.46,0,0,1-1.27.24l4.09-6.86A.41.41,0,0,0,88.34,166.31Z" fill="#06577a"/></g></g></svg>