<svg xmlns="http://www.w3.org/2000/svg" xmlns:xlink="http://www.w3.org/1999/xlink" viewBox="0 0 400 300"><defs><linearGradient id="linear-gradient" x1="237.36" y1="134.52" x2="249.59" y2="154.46" gradientUnits="userSpaceOnUse"><stop offset="0" stop-color="#9e005d"/><stop offset="1" stop-color="#fff"/></linearGradient><linearGradient id="linear-gradient-2" x1="133.32" y1="192.59" x2="148.11" y2="216.71" xlink:href="#linear-gradient"/><linearGradient id="linear-gradient-3" x1="238.52" y1="199.14" x2="253.31" y2="223.26" xlink:href="#linear-gradient"/><linearGradient id="linear-gradient-4" x1="88.03" y1="221.45" x2="116.4" y2="196.96" gradientUnits="userSpaceOnUse"><stop offset="0.01" stop-color="#fbb03b" stop-opacity="0"/><stop offset="1" stop-color="#e76224" stop-opacity="0.97"/></linearGradient><linearGradient id="linear-gradient-5" x1="190.89" y1="165.95" x2="219.26" y2="141.46" xlink:href="#linear-gradient-4"/><linearGradient id="linear-gradient-6" x1="188.9" y1="230.92" x2="217.27" y2="206.43" xlink:href="#linear-gradient-4"/></defs><title>A_</title><g style="isolation:isolate"><g id="Layer_2" data-name="Layer 2"><path d="M362.84,159.12,234.76,84.63a6.06,6.06,0,0,0-6.05,0L37.17,194.24a6.06,6.06,0,0,0,0,10.5l122.49,70.72a19.77,19.77,0,0,0,19.77,0L362.83,169.6A6.06,6.06,0,0,0,362.84,159.12Z" fill="#bc0f5d"/><path d="M255.79,154.62c-4.27,2.52-13.56,6.66-17.64,9.38l-34-20.92,45.31-20.72,30.2,18.32C277.28,141.92,258.08,153.28,255.79,154.62Z" fill="url(#linear-gradient)" style="mix-blend-mode:multiply"/><path d="M155.61,216.91c-5.17,3-16.39,8-21.33,11.34L93.13,203l54.79-25.06L184.44,200C181.59,201.55,158.37,215.28,155.61,216.91Z" fill="url(#linear-gradient-2)" style="mix-blend-mode:multiply"/><path d="M260.81,223.45c-5.17,3-16.39,8-21.33,11.34l-41.14-25.3,54.79-25.06,36.52,22.15C286.79,208.1,263.57,221.83,260.81,223.45Z" fill="url(#linear-gradient-3)" style="mix-blend-mode:multiply"/><polyline points="145.39 198.87 97.69 226.84 70.04 210.04 109.09 187.25" opacity="0.46" fill="url(#linear-gradient-4)" style="mix-blend-mode:multiply"/><polyline points="248.25 143.37 200.55 171.34 172.91 154.54 211.95 131.75" opacity="0.46" fill="url(#linear-gradient-5)" style="mix-blend-mode:multiply"/><polyline points="246.26 208.34 198.56 236.31 170.91 219.51 209.96 196.72" opacity="0.46" fill="url(#linear-gradient-6)" style="mix-blend-mode:multiply"/><path d="M122.22,172.91a68.07,68.07,0,0,1,17.5-.86c7.89.69,17.64,4.6,22.41,11.78,7.15,10.78-4.07,19.48-13.67,24.2A73.41,73.41,0,0,1,116.63,216c-9.72.05-20.8-1.51-28.95-7.16a13.09,13.09,0,0,1-3.6-17.51C91.62,178.46,108.81,175.24,122.22,172.91Z" fill="none" stroke="#f7931e" stroke-miterlimit="10" stroke-width="2"/><path d="M93.13,202.32s.91-14.55,1.25-18.15c.31-3.25,1.39-17.56,10.34-22.07,11.3-5.71,24.34-13.12,36.37-9.67,9.76,2.8,13.09,36.57,13,38.83C153.87,195.3,123.6,216.7,93.13,202.32Z" fill="#68e1fd"/><path d="M110.94,159c.21-.1,6.61,4.68,6.9,11.78S119.23,207,119.23,207s15.51-.91,25.14-7.6c0,0-2.19-33.78-5.23-40.4s-11.59-6.62-11.59-6.62Z" fill="#68e1fd"/><path d="M110.94,159c.21-.1,6.61,4.68,6.9,11.78S119.23,207,119.23,207s15.51-.91,25.14-7.6c0,0-2.19-33.78-5.23-40.4s-11.59-6.62-11.59-6.62Z" fill="#4b1b13" opacity="0.47"/><path d="M135.79,133.17a14,14,0,0,0,3.78-6.49c1.39-4.53-.93-11.11-5.84-11.72s-6.42,1.93-6.42,1.93S109,113.66,106.18,128h0c-.52,4-2.72,18.61,9.18,21.81S123,136.11,123,136.11" fill="#4b1b13"/><path d="M136.3,130s0,9.45,0,13c.05,3.7-1.51,13.71-7.6,13.39s-12.33-7.4-12.33-9c0,0-6.15-3.83-2.68-6.78s3.75,2,3.75,2,1.89-2.74,2-10.1A32.11,32.11,0,0,0,136.3,130Z" fill="#ffac73"/><path d="M116.65,157.14c3.11,2.86,8.16,3.4,12.83,2.73a1.52,1.52,0,0,0,1.4-1.32c.08-1.43.16-2.86.29-4.29l-16.05-7.85,1.24,10.23S116.46,156.83,116.65,157.14Z" fill="#ffac73"/><path d="M127.67,160.05c.63,0,1.25-.11,1.87-.2a1.47,1.47,0,0,0,1.35-1.28c0-.74.07-1.49.12-2.23-3.4,0-9.45-.8-12.64-7.1A13.73,13.73,0,0,0,127.67,160.05Z" fill="#e5894a"/><path d="M232.48,113.6a98.17,98.17,0,0,1,17.15.07c7.66.67,17.13,4.46,21.76,11.44,6.94,10.47-3.95,18.91-13.27,23.51a71.29,71.29,0,0,1-30.92,7.69c-9.44.05-20.2-1.47-28.11-7-8.8-6.11-6.06-18.23,3-23.29,7.13-4,11.44-6.5,19.13-9C224.57,116,229,113.83,232.48,113.6Z" fill="none" stroke="#f7931e" stroke-miterlimit="10" stroke-width="2"/><path d="M204.07,143.23s.88-14.13,1.21-17.63c.3-3.16,1.35-17,10-21.43,11-5.54,23.63-12.74,35.32-9.39,9.48,2.72,12.71,35.52,12.6,37.71C263.06,136.42,233.66,157.19,204.07,143.23Z" fill="#8ea7d9"/><path d="M222.93,100.33s-2,12.3,9.56,13.27c8.1.68,6.31-5.89,6.31-5.89s4,3.22,8.18.73-2.68-12.29-5.84-12.94S230.46,95,222.93,100.33Z" fill="#fff"/><circle cx="220.4" cy="69.41" r="9.15" transform="translate(21.44 186.93) rotate(-48.05)" fill="#f4c458"/><path d="M246.47,77.05a11,11,0,0,0,2.39-6.4,10.38,10.38,0,0,0-.16-3.37,4.7,4.7,0,0,0-2.18-2.71,11.22,11.22,0,0,1-2.13-1.82S220.46,58.1,217.72,72h0c-.5,3.91-.21,15.69,10.5,20.62,10.87,5,5.82-12.75,5.82-12.75" fill="#f4c458"/><path d="M240.68,96.88l-14.29-7,1.21,9.94s.1.19.29.49c2.59,2.39,6.58,3.1,10.53,2.84a1.79,1.79,0,0,0,1.66-1.62C240.23,100,240.41,98.43,240.68,96.88Z" fill="#fcded2"/><path d="M246.93,74.4s.84-4.66-4.41-5.47c-1.4-.22-2.75-.22-3.61,1.09-1.05,1.62-1.2,3.53-2.72,4.9a5.35,5.35,0,0,1-5.58.89c0,1.55.19,2.71,2.08,3.22S245.45,77.44,246.93,74.4Z" fill="#fcded2"/><path d="M228,70c5.7-2,11.13-3.23,17.17-2.41a1,1,0,0,1,1,1c.44-2.42,1-8.53-3.9-10.39-6.19-2.33-16.53.61-19.39,6.19a17.75,17.75,0,0,0-2,8.92C222.95,71.71,225.52,70.87,228,70Z" fill="#f4c458"/><path d="M240.3,99.46l-.23,2.09s-9.51-.27-10.83-8Z" fill="#eab1a2"/><path d="M247,74s0,9.18,0,12.59c0,3.6-3.55,13-7.38,13-6,0-12-7.19-12-8.76,0,0-6-3.72-2.6-6.58s3.64,2,3.64,2,1.83-2.66,2-9.81A31.19,31.19,0,0,0,247,74Z" fill="#fcded2"/><path d="M255.45,139.62a17.69,17.69,0,0,0,1.59-1.11,106.66,106.66,0,0,0-2.86-21.24c-.29-1.22-2.16-.7-1.87.52a104.33,104.33,0,0,1,2.83,22Z" fill="#5d84c1"/><path d="M219,147.64a5.8,5.8,0,0,1,.83.08l.71-24.51a1,1,0,0,0-1.94,0l-.71,24.35A6.75,6.75,0,0,1,219,147.64Z" fill="#5d84c1"/><path d="M248.87,139.13a1.37,1.37,0,0,0-.59-.84,4.55,4.55,0,0,0-.44-5,3,3,0,0,0-1.36-.82,4.24,4.24,0,0,0-1.78-2.75,4.7,4.7,0,0,0-2.92-4.16h0a5.13,5.13,0,0,0-.85-.37,1.38,1.38,0,0,0-.86,0,7,7,0,0,0-.9,0,5.46,5.46,0,0,0-8-1.93,3.27,3.27,0,0,0-.49-.46c-1.26-.89-2.78-.74-4.22-.5a4.31,4.31,0,0,0-3.26,1.93,3.17,3.17,0,0,0-.23.53,3.08,3.08,0,0,0-3.75.94,3.47,3.47,0,0,0-.67,1.39,4.2,4.2,0,0,0-2.46.59,3.46,3.46,0,0,0-1.46,3.2,4.89,4.89,0,0,0-.47.63,4.73,4.73,0,0,0-3,2.21,3.86,3.86,0,0,0-.5,2.35,3.45,3.45,0,0,0-2.91,3.05,2.72,2.72,0,0,0,1.08,2.65,3.57,3.57,0,0,0-.1,3.64,4.25,4.25,0,0,0,1.27,1.41,3.36,3.36,0,0,0-.64,4.24,3.66,3.66,0,0,0,2.61,1.72c0,.09.07.18.11.27a3.61,3.61,0,0,0,.35.52c-.4,1.55-.63,3.49,1.25,4a3.9,3.9,0,0,0,1.92,0,2.65,2.65,0,0,0,3.5.62l.47.14a1.52,1.52,0,0,0,1.85-1,6.84,6.84,0,0,0-.13-4c.16-.4.33-.79.51-1.18a1.51,1.51,0,0,0,.4-.81c.18-.34.36-.67.55-1s.55-.61.8-.93a1.36,1.36,0,0,0,1.45-1.05,3.86,3.86,0,0,0-.2-2.54,3.15,3.15,0,0,0,1.67-2.37,3.79,3.79,0,0,0,0-.82,2.76,2.76,0,0,0,1.91-.06,3.08,3.08,0,0,0,1.72-1.56c1.3,1.22,3.11,2,4.78,1.09a3.21,3.21,0,0,0,1.54-1.69,4,4,0,0,0,1.92.48,2.08,2.08,0,0,0,1.87-1.11,3.31,3.31,0,0,0,1.08.66l.44,5.42a1.68,1.68,0,0,0,.06.32,1.55,1.55,0,0,0,1.68,2.27A7.42,7.42,0,0,0,248.87,139.13Z" fill="#312725"/><path d="M226.52,178.25a101.09,101.09,0,0,1,17.66.07c7.89.69,17.64,4.6,22.41,11.78,7.15,10.78-4.07,19.48-13.67,24.2a73.41,73.41,0,0,1-31.84,7.92c-9.72.05-20.8-1.51-28.95-7.16-9.07-6.29-6.24-18.78,3.07-24,7.34-4.1,11.78-6.69,19.7-9.22C218.36,180.75,222.91,178.48,226.52,178.25Z" fill="none" stroke="#f7931e" stroke-miterlimit="10" stroke-width="2"/><path d="M198.56,209.39s.91-14.55,1.25-18.15c.31-3.25,1.39-17.56,10.34-22.07,11.3-5.71,24.34-13.12,36.37-9.67,9.76,2.8,13.09,36.57,13,38.83C259.3,202.37,229,223.76,198.56,209.39Z" fill="#ff8386"/><path d="M221.68,170.91c0,.66,8,9.75,9.9,8.57s2.81-9.31,4-8.57,5.53,6,6.17,5.58-.94-14.35-2.22-16.69S221.68,165.73,221.68,170.91Z" fill="#2b415d"/><path d="M241.73,137.07s0,9.45,0,13c.05,3.7-1.51,13.71-7.6,13.39s-12.33-7.4-12.33-9c0,0-6.15-3.83-2.68-6.78s3.75,2,3.75,2,1.89-2.74,2-10.1A32.11,32.11,0,0,0,241.73,137.07Z" fill="#c27a62"/><path d="M222.08,164.21c3.11,2.86,8.16,3.4,12.83,2.73a1.52,1.52,0,0,0,1.4-1.32c.08-1.43.16-2.86.29-4.29l-16.05-7.85,1.24,10.23S221.89,163.9,222.08,164.21Z" fill="#c27a62"/><path d="M233.1,167.12c.63,0,1.25-.11,1.87-.2a1.47,1.47,0,0,0,1.35-1.28c0-.74.07-1.49.12-2.23-3.4,0-9.45-.8-12.64-7.1A13.73,13.73,0,0,0,233.1,167.12Z" fill="#a8523b"/><path d="M216.7,214.22c.3,0,.6,0,.9,0q-.13-9.12,0-18.25a1,1,0,0,0-2,0q-.08,9.06,0,18.12Z" fill="#bc424b"/><path d="M249.68,206.59h0l.21-.1.54-.3.64-.35.53-.29q0-10.84-.64-21.67c-.07-1.28-2.07-1.29-2,0q.62,11.15.65,22.32A1,1,0,0,0,249.68,206.59Z" fill="#bc424b"/><path d="M244.69,137.93a1.4,1.4,0,0,0-1.24-1.07,3.31,3.31,0,0,0,0-.65c-.06-1.93-3.06-1.93-3,0a.57.57,0,0,1-.13.39,1.65,1.65,0,0,0-1.5-1.49,1.42,1.42,0,0,0-.7-.19,1.51,1.51,0,0,0-1.5,1.5,3.88,3.88,0,0,0,.14.75c-.28.42-.57.84-.88,1.24-.19.24-1.73,1.59-2.08,1l.05,0a1.47,1.47,0,0,0-1-2.51,1.41,1.41,0,0,0-1.09-.51,1.51,1.51,0,0,0-1.5,1.5c0,.07,0,.14,0,.21a4.33,4.33,0,0,1-3-.2,1,1,0,0,0-.4-.07,2.67,2.67,0,0,0-.23-.43,1.54,1.54,0,0,0-2.05-.54,1.51,1.51,0,0,0-.54,2.05,1.56,1.56,0,0,1,.14.22s0,0,0,0a1.27,1.27,0,0,0-.66,0,1.5,1.5,0,0,0-2.89.81,3.31,3.31,0,0,0,2,2.34c0,.1,0,.19.05.29a1.36,1.36,0,0,0-1,2.14,5,5,0,0,0,.73.81c-.07.2-.13.4-.19.6a1.64,1.64,0,0,0-.08.17,8,8,0,0,0,.57,6.45,1.51,1.51,0,0,0,2.59,0,12.69,12.69,0,0,0,1.26-6.14,3.89,3.89,0,0,0,.58-.18,4.23,4.23,0,0,0,2.26-2.43,4.27,4.27,0,0,0,2.85-2,3.61,3.61,0,0,0,2.55.46,4.82,4.82,0,0,0,2.77-1.69,3.79,3.79,0,0,0,3.41,1.81A3.84,3.84,0,0,0,244.69,137.93Z" fill="#312725"/><path d="M310.35,152s-2.21,17.72,7.84,21.15,15.42-5.49,15.58-21.15" fill="#68e1fd"/><ellipse cx="322.05" cy="152.03" rx="11.71" ry="6.32" fill="#06577a"/><path d="M322.05,152s0-24.55-12.54-34.53c0,0-6.69,4-5,10.11s8.88,1.57,10.12,4.78-2.47,4.15.06,7.42S322.05,145.72,322.05,152Z" fill="#99ce34"/><path d="M324.6,150s-1-28.46,5.3-36.91,10.47,3.15,7.62,8.33-7.81,3.88-6,8.33,4.87,6.78,1.38,8.69S324.34,146.34,324.6,150Z" fill="#99ce34"/><path d="M137.12,128.85a9.72,9.72,0,0,0-6.84.37c-3.71,1.64-6.6,2.58-10.31.52a1.41,1.41,0,0,0-.31-.17l-.06,0a1.52,1.52,0,0,0-2.13,1.9c-.18,3.63-.83,7.86-.23,11.58,0,2.55,3.34,14.84,13.65,15.56,0,0,5.42-.09,5.42-14.33a10.9,10.9,0,0,1-4.6,3.48c-2,.61-6.85-.55-10.84-2.75v0c-1.35-3.43-.82-7.82-.5-11.71a11.94,11.94,0,0,0,5.74.74c3.72-.44,6.32-3.31,10.24-2.22A1.5,1.5,0,0,0,137.12,128.85Z" fill="#4b1b13"/></g></g></svg>