<svg id="Layer_2" data-name="Layer 2" xmlns="http://www.w3.org/2000/svg" xmlns:xlink="http://www.w3.org/1999/xlink" viewBox="0 0 400 300"><defs><linearGradient id="linear-gradient" x1="121.23" y1="219.32" x2="147.94" y2="189.1" gradientUnits="userSpaceOnUse"><stop offset="0" stop-opacity="0"/><stop offset="0.99" stop-color="#552800"/></linearGradient><linearGradient id="linear-gradient-2" x1="316.21" y1="187.88" x2="335.92" y2="169.34" xlink:href="#linear-gradient"/><linearGradient id="linear-gradient-3" x1="204" y1="207.57" x2="233.47" y2="207.57" gradientUnits="userSpaceOnUse"><stop offset="0.01" stop-color="#fcca4c"/><stop offset="1" stop-color="#de9f3b"/></linearGradient><linearGradient id="linear-gradient-4" x1="238.47" y1="212.33" x2="267.94" y2="212.33" xlink:href="#linear-gradient-3"/><linearGradient id="linear-gradient-5" x1="213.77" y1="223.82" x2="243.25" y2="223.82" xlink:href="#linear-gradient-3"/></defs><title>PP</title><path d="M195.14,273.46,22.64,171.51c-5.49-3.08-10.2-8.15-4.85-11.46L190.91,60.27c2.6-1.61,6.54-2.66,9.18-1.13L381.17,164.23c5.49,3.19,6.48,12.1,1,15.29L217.87,273.29A22.94,22.94,0,0,1,195.14,273.46Z" fill="#ff8d8d"/><path d="M63.37,190.44c2.8.86,5.9,4.44,8.77,5,1.76.35,5.24,4.62,7,4.76L125,223.82,281.91,149l-78-52.69L54.26,183.57C58.88,187,58,188.78,63.37,190.44Z" opacity="0.32" fill="url(#linear-gradient)"/><path d="M206.29,77V43.82a5.85,5.85,0,0,1,8.43-5.25l59.44,29.2a13.86,13.86,0,0,1,7.75,12.44v37.06Z" fill="#5a3f2a"/><polyline points="281.91 117.28 281.91 149.04 274.99 152.74 274.99 112.72" fill="#5a3f2a"/><path d="M202.27,79V46.37a5.75,5.75,0,0,1,8.28-5.16l58.38,28.68a13.62,13.62,0,0,1,7.61,12.22v36.4Z" fill="#835e41"/><polygon points="274.99 152.74 268.21 149.29 268.21 122.5 274.99 122.5 274.99 152.74" fill="#835e41"/><polygon points="143.83 201.88 274.99 135.54 276.54 118.51 274.23 117.28 143.83 182.64 143.83 201.88" fill="#5a3f2a"/><polyline points="273.5 108.07 273.5 117.97 230.92 139.67 225.21 131.42" fill="#e0cfb3"/><path d="M166.12,97.49l40.8-22.74,64.71,30.44a3.27,3.27,0,0,1,.1,5.88L234,130.43Z" fill="#f6f5f0"/><path d="M199.38,87.24c-1-4.93,1.11-10.05,3-14.52a72.57,72.57,0,0,1,5.76-10.77c2.36-3.73,5.12-7.69,10-7.89a20.93,20.93,0,0,1,6.12.94A139.84,139.84,0,0,1,254,66.36c7.16,3.8,16.3,7.93,16.1,18-.15,7.57-12,29.14-19.8,30.27-3.76.55-8.55-2.13-11.85-3.57-6.12-2.67-12.07-5.73-18-8.86-4.61-2.44-9.1-4.9-13.79-7.19-2.64-1.29-5.73-3.13-6.83-6A11.22,11.22,0,0,1,199.38,87.24Z" fill="#68e1fd"/><path d="M247.62,94a51.49,51.49,0,0,0-5.13,18.7c3.55,1.37,6.36,2.13,7.85,1.92,5.63-.82,10.07-8.67,12.7-13,4.36-7.17,10.14-16.29,5.2-24.71C259.73,72.53,250.52,88.31,247.62,94Z" fill="#351b0c" opacity="0.24"/><path d="M217,106.23s9.71,7,13.46,8.06,8-2.68,9.74-4.81-7.67-25.63-7.67-25.63L229,86.33l2.83,18.49c-1.26.3-12.64-6.88-12.64-6.88" fill="#ef9a9a"/><path d="M223.12,90.48l-5.48,3.77s-4-3.24-4-6.3,8.45-.94,8.45-.94" fill="#ef9a9a"/><polygon points="221.91 91.31 218.75 93.49 216.64 87.05 220.51 87.33 221.91 91.31" fill="#d17474"/><path d="M238.21,76.95c.07,1.44-7.54,15.67-13.44,15.53s-6.08-10.95-6.08-10.95-1.22-4,.54-5,3.84-.94,4.73.67-.27-3.39,3.83-4.45S238,73.2,238.21,76.95Z" fill="#ef9a9a"/><path d="M227,79.43c-.28.3,4.62,4,5.13,4.28,1.83,1,4.88,1.94,5.87-.69.91-2.42,1.83-6.29.21-9.7-2.58-5.44-9.5-8.39-16.39-5s-12.62,11.64-10.26,17,8.12,3.57,8.12,3.57L222.28,84s-3.34-3.79.06-4.33c2.53-.41,2.21,2.38,2.21,2.38Z" fill="#351b0c"/><path d="M217.64,94.25s2.77,4.11,3,6.81-9,20.1-15.51,24-13-5.47-14.12-7.92S194.27,89,199.38,85.2,213.65,86,215,88.73" fill="#ff952c"/><path d="M216.85,119.7c-10.15-12.3-17.19-19.42-37.16-18.58l-13.8-6.9-79,38.71L149,172.22v16.5l88-44.4V129.78Z" fill="#68e1fd"/><polygon points="237.01 129.78 149 172.22 149 188.72 237.01 144.32 237.01 129.78" fill="#351b0c" opacity="0.24"/><path d="M142.64,215.88l6.31-3.16V165.87s0-7.28-16.75-15.78S80,123.63,79,123.87s-10.2-1.7-12.14,12.87,0,42.73,0,42.73l5.83,2.43,5.83-3.16V160.28l52.71,24.6,11.38,31" fill="#573c29"/><path d="M142.64,184.8V165.87s0-6.8-7.53-10.44S75.64,125.81,75.4,126.54s-7-1.46-8.5,10.2v42.73l5.83,2.43V166.84l63.6,32.77v13.11l6.31,3.16Z" fill="#835e41"/><path d="M312.27,192c2.8.86,5.61,1.7,8.49,2.28a43.48,43.48,0,0,0,5.32.61l3-2,20.68-15.38-15.82-5.26-37.42,13C301.14,188.66,306.85,190.34,312.27,192Z" opacity="0.32" fill="url(#linear-gradient-2)"/><path d="M341.49,160.76c-3.73-.32-7.66-1.45-10.42-4v11.06a11.48,11.48,0,0,0,11.48,11.48h0A11.48,11.48,0,0,0,354,167.82V156.56C350.11,158.16,345.67,161.12,341.49,160.76Z" fill="#68e1fd"/><ellipse cx="342.55" cy="156.68" rx="11.48" ry="6.09" fill="#5ed18d"/><path d="M342.55,157.71s-7.81-1.15-9.87-13.78C332.67,143.93,339.33,147.61,342.55,157.71Z" fill="#5ed18d"/><path d="M343.7,156.1s-9-16.07,0-26.87A45,45,0,0,1,343.7,156.1Z" fill="#5ed18d"/><path d="M342.55,146s-7.81-1.15-9.87-13.78C332.67,132.22,339.33,135.9,342.55,146Z" fill="#5ed18d"/><path d="M343.5,151.15s-2-7.65,8.9-14.43C352.39,136.72,351.57,144.28,343.5,151.15Z" fill="#5ed18d"/><ellipse cx="342.55" cy="156.68" rx="11.48" ry="6.09" fill="#146666"/><path d="M342.55,157.71s-7.81-1.15-9.87-13.78C332.67,143.93,339.33,147.61,342.55,157.71Z" fill="#5ed18d"/><path d="M343.7,156.1s-9-16.07,0-26.87A45,45,0,0,1,343.7,156.1Z" fill="#5ed18d"/><path d="M342.55,146s-7.81-1.15-9.87-13.78C332.67,132.22,339.33,135.9,342.55,146Z" fill="#5ed18d"/><path d="M343.5,151.15s-2-7.65,8.9-14.43C352.39,136.72,351.57,144.28,343.5,151.15Z" fill="#5ed18d"/><path d="M196.62,93.69c-.61.29-4.3,11.51-3.48,13.93S208,120.45,208.34,121s1.72,7.21,3.33,8.28,5.17,1.39,6.33.88,2.34-3.31,1.86-4.11-5.48-5.66-6.2-6.89-12.07-14.07-11.71-15,1.91-7.86,1.91-7.86S198.52,92.79,196.62,93.69Z" fill="#ef9a9a"/><path d="M254.64,86.15a5.14,5.14,0,0,0-5.14-5,5.36,5.36,0,0,0-5.31,4.26,6.24,6.24,0,0,0,.53,4,3.67,3.67,0,0,0,3.18,2c.41,0,.83,0,1.24.06a3.07,3.07,0,0,0,1.62-.41A5.12,5.12,0,0,0,254.64,86.15Z" fill="#fff"/><path d="M282.07,130.38a7.12,7.12,0,0,0-.65-.55,10.25,10.25,0,0,0-1.43-6.51c-1.74-2.87-5-5.79-8.56-5.62a7.75,7.75,0,0,0-7.14,7.93,7.62,7.62,0,0,0,.09.85,9.36,9.36,0,0,0-2.69,1.66,8.5,8.5,0,0,0,9.13,14c.21-.09.4-.2.6-.3h0a8.5,8.5,0,0,0,10.42-.95A7.4,7.4,0,0,0,282.07,130.38Z" fill="#fff"/><path d="M292.93,182.56c-2.21-6.28-7.9-10.09-14.37-10.86-.5-.06-1-.09-1.5-.12a16.15,16.15,0,0,0-10-10.16,18.28,18.28,0,0,0-6.81-1,18.84,18.84,0,0,0-1.69-2.14c-2.43-7.45-8.52-13.6-16.91-14.3S224,149.75,219,157.87l-.26-.08a17.71,17.71,0,0,0-19.59,7.65,18.08,18.08,0,0,0-1.77,15c-8.34,2.86-13.31,16.22-9.91,24.76,2.27,5.69,7.36,8.29,12.91,9.45a19.8,19.8,0,0,0-.06,7,17.82,17.82,0,0,0,12.62,14.46,21.69,21.69,0,0,0,14.61-1c5.39,6,15,8.24,23.57,5a21.82,21.82,0,0,0,11.18-8.86c7.93,2.22,16.78,0,22.15-7.52,3.44-4.82,6.22-11.33,4.78-17.29a15.13,15.13,0,0,0,2.84-3.79C295.13,196.81,295.08,188.69,292.93,182.56Z" fill="#fff"/><path d="M207.27,195.29c-4.6,2.92-9,9.52-4.46,14.32,5.75,6.1,1.5,21.32,23.4,21.11s18.69-8.6,31.68-8.38c7.34.12,24.85-3.12,21.75-14-1-3.34-4.27-4.36-7-5.79a75.33,75.33,0,0,0-11.79-4.66,114.58,114.58,0,0,0-36.08-5.9c-5.58.07-11.68.1-16.72,2.85Q207.64,195.05,207.27,195.29Z" fill="#fcca4c"/><polygon points="232.21 200.67 204 207.25 212.02 214.47 233.47 202.55 232.21 200.67" fill="url(#linear-gradient-3)"/><path d="M230.46,172.8v-.1c-.07-.59.76-.63,1-.13l0,.06a.5.5,0,0,1,0,.07,100.36,100.36,0,0,1,.73,13,.51.51,0,0,1-1,.23.53.53,0,0,1-.82-.4A85,85,0,0,1,230.46,172.8Z" fill="#ab9e5a"/><path d="M220.64,182.63c0-.07.09-.11.13-.17a.42.42,0,0,1,.08-.31c2.43-3.47,7-2,9.09.92a4.27,4.27,0,0,1,1.06,2.37c.07.6-.8.63-1,.1a.47.47,0,0,1-.12-.22,5.13,5.13,0,0,0-.86-1.77,5.74,5.74,0,0,0-2.87-1.35c-1.34-.27-3.86-.54-4.66.94C221.2,183.7,220.33,183.2,220.64,182.63Z" fill="#575c1c"/><path d="M219.55,179.25c4.13-2.82,10.81.89,11.38,5.66a.41.41,0,0,1-.45.48.4.4,0,0,1-.58-.21c-1.73-4-5.17-6.86-9.68-5.11l-.1,0-.06,0C219.52,180.48,219,179.61,219.55,179.25Z" fill="#636d27"/><path d="M222,176.54l.08-.09a1.06,1.06,0,0,1,.84-.2c4.87-.46,8.85,4.44,8.89,9.07a.47.47,0,0,1-.56.48.52.52,0,0,1-.81-.24c-.67-2.05-1.07-4.29-2.62-5.91a7.21,7.21,0,0,0-5.65-2.15C221.57,177.54,221.52,176.73,222,176.54Z" fill="#746927"/><path d="M224.41,174.25a.5.5,0,0,1,.33-.06c4.91.84,7,5.4,7.1,10,0,.11,0,.22,0,.33,0,.65-1,.64-1,0v0a.47.47,0,0,1,0-.07c0-.07,0-.15,0-.22-.33-4.05-2.43-7.81-6.57-8.92A.5.5,0,0,1,224.41,174.25Z" fill="#7d7a33"/><path d="M231.42,172.8v-.1c.07-.59-.76-.63-1-.13l0,.06a.5.5,0,0,0,0,.07,100.36,100.36,0,0,0-.73,13,.51.51,0,0,0,1,.23.53.53,0,0,0,.82-.4A85,85,0,0,0,231.42,172.8Z" fill="#ab9e5a"/><path d="M241.23,182.63c0-.07-.09-.11-.13-.17a.42.42,0,0,0-.08-.31c-2.43-3.47-7-2-9.09.92a4.27,4.27,0,0,0-1.06,2.37c-.07.6.8.63,1,.1a.47.47,0,0,0,.12-.22,5.13,5.13,0,0,1,.86-1.77,5.74,5.74,0,0,1,2.87-1.35c1.34-.27,3.86-.54,4.66.94C240.67,183.7,241.54,183.2,241.23,182.63Z" fill="#575c1c"/><path d="M242.33,179.25c-4.13-2.82-10.81.89-11.38,5.66a.41.41,0,0,0,.45.48.4.4,0,0,0,.58-.21c1.73-4,5.17-6.86,9.68-5.11l.1,0,.06,0C242.36,180.48,242.86,179.61,242.33,179.25Z" fill="#636d27"/><path d="M239.88,176.54l-.08-.09a1.06,1.06,0,0,0-.84-.2c-4.87-.46-8.85,4.44-8.89,9.07a.47.47,0,0,0,.56.48.52.52,0,0,0,.81-.24c.67-2.05,1.07-4.29,2.62-5.91a7.21,7.21,0,0,1,5.65-2.15C240.3,177.54,240.35,176.73,239.88,176.54Z" fill="#746927"/><path d="M237.47,174.25a.5.5,0,0,0-.33-.06c-4.91.84-7,5.4-7.1,10,0,.11,0,.22,0,.33,0,.65,1,.64,1,0v0a.47.47,0,0,0,0-.07c0-.07,0-.15,0-.22.33-4.05,2.43-7.81,6.57-8.92A.5.5,0,0,0,237.47,174.25Z" fill="#7d7a33"/><path d="M228.84,202.75c0-.25.84-9.94.67-12.81s-.33-6-.33-6h2.6s.67,16.94,1.69,18.79Z" fill="#974c13"/><polygon points="266.68 205.43 238.47 212.01 246.5 219.23 267.94 207.31 266.68 205.43" fill="url(#linear-gradient-4)"/><path d="M264.93,177.56v-.1c-.07-.59.76-.63,1-.13l0,.06a.5.5,0,0,1,0,.07,100.36,100.36,0,0,1,.73,13,.51.51,0,0,1-1,.23.53.53,0,0,1-.82-.4A85,85,0,0,1,264.93,177.56Z" fill="#ab9e5a"/><path d="M255.11,187.39c0-.07.09-.11.13-.17a.42.42,0,0,1,.08-.31c2.43-3.47,7-2,9.09.92a4.27,4.27,0,0,1,1.06,2.37c.07.6-.8.63-1,.1a.47.47,0,0,1-.12-.22,5.13,5.13,0,0,0-.86-1.77,5.74,5.74,0,0,0-2.87-1.35c-1.34-.27-3.86-.54-4.66.94C255.67,188.46,254.8,188,255.11,187.39Z" fill="#575c1c"/><path d="M254,184c4.13-2.82,10.81.89,11.38,5.66a.41.41,0,0,1-.45.48.4.4,0,0,1-.58-.21c-1.73-4-5.17-6.86-9.68-5.11l-.1,0-.06,0C254,185.24,253.49,184.37,254,184Z" fill="#636d27"/><path d="M256.47,181.3l.08-.09a1.06,1.06,0,0,1,.84-.2c4.87-.46,8.85,4.44,8.89,9.07a.47.47,0,0,1-.56.48.52.52,0,0,1-.81-.24c-.67-2.05-1.07-4.29-2.62-5.91a7.21,7.21,0,0,0-5.65-2.15C256,182.3,256,181.49,256.47,181.3Z" fill="#746927"/><path d="M258.88,179a.5.5,0,0,1,.33-.06c4.91.84,7,5.4,7.1,10,0,.11,0,.22,0,.33,0,.65-1,.64-1,0v0a.47.47,0,0,1,0-.07c0-.07,0-.15,0-.22-.33-4.05-2.43-7.81-6.57-8.92A.5.5,0,0,1,258.88,179Z" fill="#7d7a33"/><path d="M265.89,177.56v-.1c.07-.59-.76-.63-1-.13l0,.06a.5.5,0,0,0,0,.07,100.36,100.36,0,0,0-.73,13,.51.51,0,0,0,1,.23.53.53,0,0,0,.82-.4A85,85,0,0,0,265.89,177.56Z" fill="#ab9e5a"/><path d="M275.71,187.39c0-.07-.09-.11-.13-.17a.42.42,0,0,0-.08-.31c-2.43-3.47-7-2-9.09.92a4.27,4.27,0,0,0-1.06,2.37c-.07.6.8.63,1,.1a.47.47,0,0,0,.12-.22,5.13,5.13,0,0,1,.86-1.77,5.74,5.74,0,0,1,2.87-1.35c1.34-.27,3.86-.54,4.66.94C275.15,188.46,276,188,275.71,187.39Z" fill="#575c1c"/><path d="M276.8,184c-4.13-2.82-10.81.89-11.38,5.66a.41.41,0,0,0,.45.48.4.4,0,0,0,.58-.21c1.73-4,5.17-6.86,9.68-5.11l.1,0,.06,0C276.83,185.24,277.33,184.37,276.8,184Z" fill="#636d27"/><path d="M274.35,181.3l-.08-.09a1.06,1.06,0,0,0-.84-.2c-4.87-.46-8.85,4.44-8.89,9.07a.47.47,0,0,0,.56.48.52.52,0,0,0,.81-.24c.67-2.05,1.07-4.29,2.62-5.91a7.21,7.21,0,0,1,5.65-2.15C274.77,182.3,274.82,181.49,274.35,181.3Z" fill="#746927"/><path d="M271.94,179a.5.5,0,0,0-.33-.06c-4.91.84-7,5.4-7.1,10,0,.11,0,.22,0,.33,0,.65,1,.64,1,0v0a.47.47,0,0,0,0-.07c0-.07,0-.15,0-.22.33-4.05,2.43-7.81,6.57-8.92A.5.5,0,0,0,271.94,179Z" fill="#7d7a33"/><path d="M263.31,207.51c0-.25.84-9.94.67-12.81s-.33-6-.33-6h2.6s.67,16.94,1.69,18.79Z" fill="#974c13"/><polygon points="241.98 216.92 213.77 223.5 221.8 230.72 243.25 218.81 241.98 216.92" fill="url(#linear-gradient-5)"/><path d="M240.23,189.06V189c-.07-.59.76-.63,1-.13l0,.06a.5.5,0,0,1,0,.07,100.36,100.36,0,0,1,.73,13,.51.51,0,0,1-1,.23.53.53,0,0,1-.82-.4A85,85,0,0,1,240.23,189.06Z" fill="#ab9e5a"/><path d="M230.41,198.88c0-.07.09-.11.13-.17a.42.42,0,0,1,.08-.31c2.43-3.47,7-2,9.09.92a4.27,4.27,0,0,1,1.06,2.37c.07.6-.8.63-1,.1a.47.47,0,0,1-.12-.22,5.13,5.13,0,0,0-.86-1.77,5.74,5.74,0,0,0-2.87-1.35c-1.34-.27-3.86-.54-4.66.94C231,200,230.1,199.45,230.41,198.88Z" fill="#575c1c"/><path d="M229.32,195.5c4.13-2.82,10.81.89,11.38,5.66a.41.41,0,0,1-.45.48.4.4,0,0,1-.58-.21c-1.73-4-5.17-6.86-9.68-5.11l-.1,0-.06,0C229.29,196.74,228.79,195.87,229.32,195.5Z" fill="#636d27"/><path d="M231.77,192.8l.08-.09a1.06,1.06,0,0,1,.84-.2c4.87-.46,8.85,4.44,8.89,9.07a.47.47,0,0,1-.56.48.52.52,0,0,1-.81-.24c-.67-2.05-1.07-4.29-2.62-5.91a7.21,7.21,0,0,0-5.65-2.15C231.35,193.79,231.3,193,231.77,192.8Z" fill="#746927"/><path d="M234.18,190.51a.5.5,0,0,1,.33-.06c4.91.84,7,5.4,7.1,10,0,.11,0,.22,0,.33,0,.65-1,.64-1,0v0a.47.47,0,0,1,0-.07c0-.07,0-.15,0-.22-.33-4.05-2.43-7.81-6.57-8.92A.5.5,0,0,1,234.18,190.51Z" fill="#7d7a33"/><path d="M241.19,189.06V189c.07-.59-.76-.63-1-.13l0,.06a.5.5,0,0,0,0,.07,100.36,100.36,0,0,0-.73,13,.51.51,0,0,0,1,.23.53.53,0,0,0,.82-.4A85,85,0,0,0,241.19,189.06Z" fill="#ab9e5a"/><path d="M251,198.88c0-.07-.09-.11-.13-.17a.42.42,0,0,0-.08-.31c-2.43-3.47-7-2-9.09.92a4.27,4.27,0,0,0-1.06,2.37c-.07.6.8.63,1,.1a.47.47,0,0,0,.12-.22,5.13,5.13,0,0,1,.86-1.77,5.74,5.74,0,0,1,2.87-1.35c1.34-.27,3.86-.54,4.66.94C250.45,200,251.32,199.45,251,198.88Z" fill="#575c1c"/><path d="M252.1,195.5c-4.13-2.82-10.81.89-11.38,5.66a.41.41,0,0,0,.45.48.4.4,0,0,0,.58-.21c1.73-4,5.17-6.86,9.68-5.11l.1,0,.06,0C252.13,196.74,252.63,195.87,252.1,195.5Z" fill="#636d27"/><path d="M249.65,192.8l-.08-.09a1.06,1.06,0,0,0-.84-.2c-4.87-.46-8.85,4.44-8.89,9.07a.47.47,0,0,0,.56.48.52.52,0,0,0,.81-.24c.67-2.05,1.07-4.29,2.62-5.91a7.21,7.21,0,0,1,5.65-2.15C250.07,193.79,250.12,193,249.65,192.8Z" fill="#746927"/><path d="M247.24,190.51a.5.5,0,0,0-.33-.06c-4.91.84-7,5.4-7.1,10,0,.11,0,.22,0,.33,0,.65,1,.64,1,0v0a.47.47,0,0,0,0-.07c0-.07,0-.15,0-.22.33-4.05,2.43-7.81,6.57-8.92A.5.5,0,0,0,247.24,190.51Z" fill="#7d7a33"/><path d="M238.61,219c0-.25.84-9.94.67-12.81s-.33-6-.33-6h2.6s.67,16.94,1.69,18.79Z" fill="#974c13"/></svg>