<svg id="Layer_2" data-name="Layer 2" xmlns="http://www.w3.org/2000/svg" viewBox="0 0 400 300"><title>PP</title><path d="M195.14,273.46,22.64,171.51c-5.49-3.08-10.2-8.15-4.85-11.46L190.91,60.27c2.6-1.61,6.54-2.66,9.18-1.13L381.17,164.23c5.49,3.19,6.48,12.1,1,15.29L217.87,273.29A22.94,22.94,0,0,1,195.14,273.46Z" fill="#db3b3b"/><path d="M165.73,140.92H363.14l-47.3-15.23s3.64-47.54-25.47-49.36S256.7,100,256.7,100s-11.83-9.1-25.47-4.55-13.65,22.74-13.65,22.74Z" fill="#dcfff3"/><path d="M297.42,107.2c2,13.14-2,24.07-8.83,33.71h74.55l-47.3-15.23s3.64-47.54-25.47-49.36a39.14,39.14,0,0,0-11.31.87C289.2,82.93,295.47,94.47,297.42,107.2Z" fill="#a7e8cf"/><ellipse cx="128.96" cy="204.13" rx="35.26" ry="12.25" fill="#ad2d2d"/><path d="M141.57,70.4l-1-6s1.36-6,.49-6.43-2.33,4-2.33,4-4.66-7-5.61-6.88-3.47,4.9-3.18,6.7,3.58,5.26,4.45,6.14S138,74.67,138,74.67" fill="#ffc494"/><path d="M108.5,162.25s18.61-.7,21-2.79-2.17-12.09-2.17-12.09-16.84,7.35-18.94,7.78" fill="#ffc494"/><path d="M198.23,66.74l1.46-5.85s-.85-6.1.05-6.45,2,4.16,2,4.16,5.23-6.54,6.17-6.38,3,5.17,2.6,6.94-4,4.94-4.95,5.74-4.13,6.39-4.13,6.39" fill="#ffc494"/><path d="M181.12,58.59s4.72,19.2,6.44,19.16S198,65.16,198,65.16s5.72,5.18,6.38,6.27S193.76,96,182.15,92.13s-12.41-15.69-12.41-15.69" fill="#ea8518"/><path d="M152,148.83c-10,5.17-18.86,10.23-34,26.59.32,5.07.87,6.58,3.29,5.1,8.66-5.27,20.32-11.51,31.3-17.89A19.25,19.25,0,0,1,152,148.83Z" fill="#fdba45"/><path d="M128.2,176.5s-9.31,5.24-10.15,7-2.2,10.82-2.12,12.31-.51,3.62-1.63,3.69-5.78-2.47-7.52-5.8,1.69-6.7.93-8.73-1.8-3.58-.44-5.39,11.65-4.32,15.34-8.4S128.2,176.5,128.2,176.5Z" fill="#ffc494"/><path d="M112.24,188.5c.49,1.93,1.91,4.85,3.89,5.18a16.85,16.85,0,0,0-.16,2.16c.08,1.48-.51,3.62-1.63,3.69s-5.78-2.47-7.52-5.8,1.69-6.7.93-8.73-1.8-3.58-.44-5.39c.58-.78,2.83-1.69,5.48-2.8A22.82,22.82,0,0,0,112.24,188.5Z" fill="#475ba2"/><path d="M143.35,66.92c2.09,3.23,4.27,10.69,4.27,10.69s5-8.12,7.83-13.07S172.9,53.8,172.9,53.8s5.39,2.8,8.23,4.79c2,1.39,2.17,4.44,2.48,6.6.53,3.66,2.19,7.7,1.17,11.48a61,61,0,0,1-2.95,8c-1.69,4-3.53,7.87-5.47,11.73,0,0-11.95-2-16.86-4l1.59-11s-10.2,12.36-15.42,12.45c-4.43.08-8.53-14.49-9.66-20.12A17.58,17.58,0,0,1,143.35,66.92Z" fill="#ff9a22"/><line x1="164.22" y1="87.66" x2="184.41" y2="83.06" fill="#ff9a22"/><line x1="214.15" y1="94.76" x2="212.92" y2="92.76" fill="#fff7f0"/><path d="M187.71,42.69s-2,13.58-7.86,14.13S172.24,50,172.24,50s.38-9.33,2.5-11S185.41,38.37,187.71,42.69Z" fill="#fdba45"/><path d="M183.58,42.81a9.61,9.61,0,0,0,3.51,2.92c1.81.63,3.48-1.74,4.09-3.12s.44-6.5-8-8.87S168,37.3,167,41.62s-3.24,15.15-3.24,15.15,7.69,1.55,11.35,1.54c0,0-.4-10.43.94-13.3S183.58,42.81,183.58,42.81Z" fill="#475ba2"/><path d="M148.4,189.38c-27-11.1-27.81-35.66-32.11-38.11,16.47-4.62,31.37-38.82,32.5-42.47C151.39,100.37,160,91.68,160,91.68l17.14,2.54s3.12,12.72,2.08,19.94c-.42,2.91-12.51,63.16-15.15,73.61C159.18,189.54,152.74,191.17,148.4,189.38Z" fill="#68e1fd"/><path d="M114,161.23s-10.55,1.65-12,3-5.85,9.37-6.3,10.78S94,178.28,92.94,178s-4.55-4.34-5-8.06,3.93-5.69,3.93-7.85-.44-4,1.47-5.21,12.43,0,17.31-2.5S114,161.23,114,161.23Z" fill="#ffc494"/><path d="M94.87,166.88c-.21,2,.09,5.21,1.83,6.21a16.85,16.85,0,0,0-.91,2c-.44,1.42-1.74,3.21-2.82,2.89s-4.55-4.34-5-8.06,3.93-5.69,3.93-7.85-.44-4,1.47-5.21c.82-.53,3.24-.59,6.11-.7A22.82,22.82,0,0,0,94.87,166.88Z" fill="#475ba2"/><path d="M75.88,143.68h70.68l-16.94-5.45s1.3-17-9.12-17.67S108.45,129,108.45,129s-4.23-3.26-9.12-1.63-4.89,8.14-4.89,8.14Z" fill="#dcfff3"/><path d="M123,131.61a16,16,0,0,1-3.16,12.07h26.69l-16.94-5.45s1.3-17-9.12-17.67a14,14,0,0,0-4.05.31C120.09,122.92,122.33,127.05,123,131.61Z" fill="#a7e8cf"/><path d="M169.09,228.67h70.68l-16.94-5.45s1.3-17-9.12-17.67S201.67,214,201.67,214s-4.23-3.26-9.12-1.63-4.89,8.14-4.89,8.14Z" fill="#dcfff3"/><path d="M216.24,216.6a16,16,0,0,1-3.16,12.07h26.69l-16.94-5.45s1.3-17-9.12-17.67a14,14,0,0,0-4.05.31C213.3,207.91,215.55,212,216.24,216.6Z" fill="#a7e8cf"/><polygon points="221.38 35.09 229.01 50.56 246.08 53.04 233.73 65.08 236.64 82.08 221.38 74.06 206.11 82.08 209.02 65.08 196.67 53.04 213.74 50.56 221.38 35.09" fill="#68e1fd"/><polygon points="249.1 118.72 253.84 128.32 264.44 129.86 256.77 137.34 258.58 147.89 249.1 142.91 239.62 147.89 241.43 137.34 233.76 129.86 244.36 128.32 249.1 118.72" fill="#68e1fd"/><polygon points="274.85 167.39 282.81 183.51 300.6 186.1 287.73 198.65 290.77 216.37 274.85 208.01 258.94 216.37 261.97 198.65 249.1 186.1 266.89 183.51 274.85 167.39" fill="#68e1fd"/><path d="M199.69,60.89,199,53.3s.81-.25,1.59,1.12,0,4,2.52,4c1.82,0,1.92,2.52,2.35,3.7" fill="#ffc494"/></svg>