<svg xmlns="http://www.w3.org/2000/svg" viewBox="0 0 400 300"><title>PP</title><g style="isolation:isolate"><g id="Layer_2" data-name="Layer 2"><path d="M196.53,286.66,24,184.71c-5.49-3.08-10.2-8.15-4.85-11.46L192.31,73.47c2.6-1.61,6.54-2.66,9.18-1.13L382.56,177.43c5.49,3.19,6.48,12.1,1,15.29L219.27,286.49A22.94,22.94,0,0,1,196.53,286.66Z" fill="#ffc2a4"/><path d="M163.83,158.19s-16.11-4.8-14.39,0-5.48,9.94-5.48,9.94-13-1-11.65,3.43-2.74,8.22-2.74,8.22l-9.25,5.48,4.8,6.85-9.94,11,5.83,6.17-3.43,11h12l1.37,9.25,12.68,2.74,2.4,11s1.37-7.2,12.34-2.06,18.5,2.06,18.5,2.06l6.51,8.91s5.48-13.36,12-6.85,12,0,12,0l5.83,6.85s.69-13.71,8.22-9.25,12.34-2.74,12.34-2.74l5.83-.69,9.94,3.43s-8.91-11.65,4.45-8.91,14-3.77,14-3.77l5.14-2.4,7.54-3.08,1.37-7.2,8.57-6.17-4.45-4.45L297.47,199l-9.59-5.14,4.8-8.91L281,178.41l3.08-8.22-12.34-2.4.69-6.85-11.31-1.37.34-6.51-15.08,1.71-6.51-8.57-14,5.14s-.34-15.42-11-9.94-15.76-1-18.16,1.71-7.88,4.8-7.88,4.8l-8.22-1.71-1,5.83-5.48-1.71-5.48.34-1.37,5.48Z" fill="#ffa63e"/><path d="M243.83,230.7s16,5.05,14.39.23,5.64-9.85,5.64-9.85,13,1.23,11.7-3.24,2.87-8.18,2.87-8.18l9.34-5.34-4.69-6.93,10.11-10.81-5.73-6.26,3.6-10.91-12-.19-1.22-9.27L265.21,157,263,146s-1.48,7.17-12.37,1.86-18.47-2.35-18.47-2.35l-6.37-9s-5.69,13.28-12.1,6.66-12-.19-12-.19L196,136s-.9,13.69-8.37,9.12-12.38,2.55-12.38,2.55l-5.84.59-9.88-3.58s8.72,11.79-4.6,8.84-14.11,3.55-14.11,3.55l-5.18,2.32-7.59,3-1.48,7.17-8.66,6,4.38,4.52-11.43,7.7,9.51,5.29-4.94,8.83L127,208.63l-3.21,8.17,12.3,2.59-.79,6.84,11.29,1.55-.45,6.5,15.1-1.47,6.37,8.67,14.13-4.92s.1,15.42,10.81,10.11,15.74,1.28,18.19-1.43,8-4.67,8-4.67l8.2,1.84,1.12-5.81,5.45,1.8,5.49-.26,1.46-5.46Z" fill="#ffd46e"/><path d="M160.43,144.16s-16.11-4.8-14.39,0-5.48,9.94-5.48,9.94-13-1-11.65,3.43-2.74,8.22-2.74,8.22l-9.25,5.48,4.8,6.85-9.94,11,5.83,6.17-3.43,11h12l1.37,9.25,12.68,2.74,2.4,11s1.37-7.2,12.34-2.06,18.5,2.06,18.5,2.06l6.51,8.91s5.48-13.36,12-6.85,12,0,12,0l5.83,6.85s.69-13.71,8.22-9.25,12.34-2.74,12.34-2.74l5.83-.69,9.94,3.43s-8.91-11.65,4.45-8.91,14-3.77,14-3.77l5.14-2.4,7.54-3.08,1.37-7.2,8.57-6.17-4.45-4.45,11.31-7.88-9.59-5.14,4.8-8.91-11.65-6.51,3.08-8.22-12.34-2.4.69-6.85-11.31-1.37.34-6.51L243,140.74l-6.51-8.57-14,5.14s-.34-15.42-11-9.94-15.76-1-18.16,1.71-7.88,4.8-7.88,4.8l-8.22-1.71-1,5.83-5.48-1.71-5.48.34-1.37,5.48Z" fill="#ffc655"/><path d="M158.61,166.08c-4.13-3.74-22.45-5.93-18.41-3.17s7.36,7.32,4,8.72-19,1.78-11.65,3.43,17.81,1.14,12.06,7.25-5.75,11.13-5.75,11.13l11,2-5.29,13.4s17.66-3,17,0,2.34,8,2.34,8l10.72,2.34,16.27,3.34,6.81-1.55,5.91,4.56,4.6-4.57,10.86,3.23,3-7.69,17.38.33v-8.7l12.06-4.35-1.67-4.14,10.7-6-2.84-4.86,7.52-3.12s-6-.89-4.68-6.24a67.54,67.54,0,0,0,1.67-8.7l-1.34-4.6.46-3-4.11-4.77" fill="#f78b1e"/><path d="M192.29,84.69S169,91.41,171.15,126.19s53.78,0,53.78,0" fill="#ffda22"/><path d="M224.93,126.19a37.48,37.48,0,0,0,.86-7.42l5-14.12c6.92-19.46-4.71-36.28-27-36-7.09.09-16.4,5.12-18.65,12.13C181.24,103.62,202.85,124.65,224.93,126.19Z" fill="#ffda22"/><path d="M228.37,106.55a13,13,0,0,1,5.17-13.6s11.59,8.82,10,10.61S228.37,106.55,228.37,106.55Z" fill="#e7a48a"/><ellipse cx="213.74" cy="92.95" rx="3.94" ry="4.39" transform="translate(5.92 198.47) rotate(-50.42)" fill="#3f271f"/><path d="M192.85,72s-9.91,14.6-4.23,25.3C188.62,97.34,176.09,81.46,192.85,72Z" fill="#d8a71e"/><path d="M253.54,151.59a125.45,125.45,0,0,0-2.07-17.43c-.35-1.86-.74-3.67-1.17-5.42-.23-1-.49-1.92-.77-2.89a83.15,83.15,0,0,0-3-8.73c-1-2.47-2.16-4.94-3.42-7.37a13,13,0,0,0-4.43,2.6c-1.49,1.34-2.86,4.68-4.68,5.47-3.65,1.57-7.21-3.53-9.39-5.65a27,27,0,0,0-7.39-5.4,14.83,14.83,0,0,0-13.25.27c-6.93,3.59-13.34,16.87-22.25,12.25-5.48-2.85-8.9-8.51-14.66-11.06a16.53,16.53,0,0,0-3.54-1.11c-1.33,2.57-2.56,5.19-3.68,7.83a114.88,114.88,0,0,0-4.22,11.77c-.26.87-.51,1.75-.75,2.63a117,117,0,0,0-3,14.82q-.37,2.7-.61,5.41c-.27,3.1-.41,6.2-.4,9.28.07,30,13.93,58.07,53.49,58.63,36.5.52,48.48-28.19,49.32-56.83C253.72,157.61,253.68,154.58,253.54,151.59Z" fill="#68e1fd"/><path d="M226.48,208c-29.13-4-55.54-23.95-62.16-53.35-3.37-15-2.29-30.78,1.75-45.83a11.21,11.21,0,0,1-2.57-1.15c-1.22,2.38-2.35,4.79-3.38,7.24a114.91,114.91,0,0,0-4.22,11.77c-.26.87-.51,1.75-.75,2.63a117,117,0,0,0-3,14.82q-.37,2.7-.61,5.41c-.27,3.1-.41,6.2-.4,9.28.07,30,13.93,58.07,53.49,58.63,12.65.18,22.36-3.16,29.67-8.78C231.68,208.59,229.09,208.39,226.48,208Z" fill="#16a79e" opacity="0.41" style="mix-blend-mode:multiply"/><path d="M184.44,84.65c8.17,4.24,14.05-7.95,20.42-11.24A13.61,13.61,0,0,1,217,73.16a24.82,24.82,0,0,1,6.78,5c2,2,5.27,6.63,8.62,5.19,1.68-.72,2.93-3.78,4.3-5a11.9,11.9,0,0,1,4.07-2.38c-8.79-17-23.73-32-39.78-31.17-7.7.39-15.65,4.41-23.31,13.6a84.36,84.36,0,0,0-9.95,15.13,15.17,15.17,0,0,1,3.25,1C176.27,76.83,179.41,82,184.44,84.65Z" fill="#68e1fd"/><polygon points="228.03 115.76 235.87 130.36 224.93 138.17 234.27 156.65 215.29 137.65 224.93 126.19 219.97 107.69 228.03 115.76" fill="#42210b" opacity="0.51"/><path d="M251.48,129.39a5.09,5.09,0,0,0-2.71,3.36c-1,3.48-5.16,16.47-10.51,10.54-2.09-2.31-2.91-5.48-5.23-7.74a17.55,17.55,0,0,0-7.19-4.11A21.49,21.49,0,0,0,209,133.91c-5.92,3.49-8.59,9.75-13.87,13.72-6.07,4.57-11.84.49-16.17-4.09-3.81-4-7.59-8.21-13-10.1a19.17,19.17,0,0,0-11.72-.29c-.74,4.56-1.66,9.19-2.46,13.85a10.36,10.36,0,0,1,10.58-3.17c5.29,1.69,8.71,7.95,12.82,11.39,10.65,8.91,23.88,5.77,32.06-4.54,3.63-4.57,9-10.9,15.69-8.63,5.29,1.8,6.14,9.44,11.29,12.16s11.38,1.43,15.85-1.86a18.12,18.12,0,0,0,4-4.1A69.32,69.32,0,0,0,251.48,129.39Z" fill="#ffa4a4"/><path d="M250.57,166.46c-1.08,2.1-2.71,6.58-5.49,4.92-2.05-1.23-3.75-4.46-5.49-6.18-3.51-3.47-7.76-6.52-12.57-7.86a19.82,19.82,0,0,0-15.87,2c-4.72,3-7.32,8.4-11.25,12.26-4.27,4.19-9.27,6.5-15.05,3.89-5.16-2.32-9.19-6.73-13.76-10-6.07-4.31-14.2-6.65-21.07-4.25a55.94,55.94,0,0,0,.65,12.65,6.06,6.06,0,0,0,.48-.46c7.82-8.59,21.38,8.12,28.15,11.52,10.78,5.42,21.56,1.69,29.49-6.75,3.53-3.76,6.41-10.66,12.25-10.73s10.35,4.75,13.88,8.85,7.52,7.8,13.55,6.55a12.27,12.27,0,0,0,2.73-.92,52.76,52.76,0,0,0,2.48-10.67,70.72,70.72,0,0,0,.44-7.57A4.74,4.74,0,0,0,250.57,166.46Z" fill="#ffa4a4"/><path d="M193.89,132.4a7.12,7.12,0,0,0-3.08-4.1,6.5,6.5,0,0,0-1.76-.79l-.35-.08a6.9,6.9,0,0,0-1.75-.19,5.9,5.9,0,0,0-3.89,1.61l0,0a4.79,4.79,0,0,0-.61.5,7,7,0,0,0-1,8.36,7.09,7.09,0,0,0,1.14,1.43,6.5,6.5,0,0,0,2.75,1.6,7,7,0,0,0,8.59-8.37Z" fill="#ffa4a4"/><path d="M230.41,182.7a7.89,7.89,0,0,0-4.55-3.61,7.46,7.46,0,0,0-3.19-.21,6,6,0,0,0-4.64,1.49,8,8,0,0,0,9.51,12.78C231,191.06,232.52,186.27,230.41,182.7Z" fill="#ffa4a4"/><path d="M63.11,176.69S49.9,161,41,158.73s-25.26-5.87-15.55-14,33.42,4.47,33.42,17.42c0,0-6.22-36,6.22-38s-1.55,41-1.55,41,3.5-20,19.43-16.32S81.77,163,74.38,165.38,63.11,176.69,63.11,176.69Z" fill="#9cbc3b"/><path d="M122.57,134.39s-7.2-8.57-12.07-9.79S96.72,121.4,102,117s18.22,2.44,18.22,9.5c0,0-3.39-19.63,3.39-20.69s-.85,22.37-.85,22.37,1.91-10.88,10.59-8.9-.64,7.66-4.66,9S122.57,134.39,122.57,134.39Z" fill="#9cbc3b"/><path d="M348,203s-13.21-15.72-22.15-18-25.26-5.87-15.55-14,33.42,4.47,33.42,17.42c0,0-6.22-36,6.22-38s-1.55,41-1.55,41,3.5-20,19.43-16.32-1.17,14.06-8.55,16.43S348,203,348,203Z" fill="#9cbc3b"/><path d="M289.69,148.7s-7.2-8.57-12.07-9.79-13.77-3.2-8.47-7.61,18.22,2.44,18.22,9.5c0,0-3.39-19.63,3.39-20.69s-.85,22.37-.85,22.37,1.91-10.88,10.59-8.9-.64,7.66-4.66,9S289.69,148.7,289.69,148.7Z" fill="#9cbc3b"/></g></g></svg>