<svg id="Layer_2" data-name="Layer 2" xmlns="http://www.w3.org/2000/svg" xmlns:xlink="http://www.w3.org/1999/xlink" viewBox="0 0 400 300"><defs><linearGradient id="linear-gradient" x1="131.07" y1="250.42" x2="191.52" y2="190.52" gradientUnits="userSpaceOnUse"><stop offset="0" stop-color="#817ce5"/><stop offset="1" stop-color="#454168"/></linearGradient><linearGradient id="linear-gradient-2" x1="68.5" y1="194.94" x2="100.92" y2="162.8" xlink:href="#linear-gradient"/><linearGradient id="linear-gradient-3" x1="286.91" y1="208.93" x2="319.33" y2="176.79" xlink:href="#linear-gradient"/></defs><title>PP</title><path d="M195.53,286.49,23,184.54c-5.49-3.08-10.2-8.15-4.85-11.46L191.31,73.3c2.6-1.61,6.54-2.66,9.18-1.13L381.56,177.27c5.49,3.19,6.48,12.1,1,15.29L218.27,286.33A22.94,22.94,0,0,1,195.53,286.49Z" fill="#817ce5"/><polygon points="90.82 224.3 152.81 260.93 229.32 219.07 178.84 174.62 90.82 224.3" fill="url(#linear-gradient)"/><path d="M199.22,176.54c-17.37-6-33.53-13.45-48.46-23.87q-.39,2.56-.65,5.14c2.09,1.65,4.27,3.08,6.06,4.29a110.76,110.76,0,0,0,15.41,8.55c11.45,5.3,23.57,9,35.45,13.17,12.79,4.48,27.27,9.81,37.94,18.8q.74-1.37,1.4-2.8C235.8,186.4,214.07,181.7,199.22,176.54Z" fill="#68e1fd"/><path d="M178.91,144.79c13.24,6.24,27.08,11.07,40.68,16.46,10.81,4.29,22.58,9.45,32.41,16.49a111.86,111.86,0,0,0-3.56-39.06c-3.83-14-10.95-27.35-21.95-37.87-5-4.78-10.92-9-17.93-11.1a30.6,30.6,0,0,0-11.84-1.22c-10.36,1-19.12,8.17-25,15.34a94.83,94.83,0,0,0-15.53,27.75,39.48,39.48,0,0,0,4,3A151.09,151.09,0,0,0,178.91,144.79Z" fill="#68e1fd"/><path d="M162.17,186.45a116.44,116.44,0,0,1-11.85-7.31c3.34,25.17,18.64,46.48,54,46.09,12.68-.14,22.32-3.6,29.52-9.21-12-9.54-28-13.83-42.3-18.2C181.5,194.75,171.48,191.41,162.17,186.45Z" fill="#68e1fd"/><path d="M198.82,169.22c-13.7-5.29-27.43-10.76-40.2-18.06-2.28-1.3-4.58-2.72-6.82-4.26q-.59,2.86-1,5.77c14.92,10.42,31.09,17.83,48.46,23.87,14.85,5.16,36.58,9.86,47.15,23.28a57,57,0,0,0,2.42-6.19C235.74,181.13,213.22,174.78,198.82,169.22Z" fill="#ff7384"/><path d="M239.45,210.69c-12.85-11.82-34.17-16.87-49-22-11.84-4.12-23.73-8.54-34.56-14.94-2-1.21-4.17-2.51-6.25-3.9a84.68,84.68,0,0,0,.7,9.32,116.44,116.44,0,0,0,11.85,7.31c9.31,5,19.33,8.29,29.39,11.36,14.32,4.37,30.33,8.66,42.3,18.2A39.63,39.63,0,0,0,239.45,210.69Z" fill="#ff7384"/><path d="M153.47,139.93c17.88,13.71,38.21,21.28,59.31,28.6,13.26,4.6,27.4,9.6,37.71,18.81a80.5,80.5,0,0,0,1.5-9.61c-9.83-7-21.6-12.21-32.41-16.49C206,155.86,192.15,151,178.91,144.79a151.09,151.09,0,0,1-18.75-10.23,39.48,39.48,0,0,1-4-3c-.91,2.49-1.72,5-2.43,7.46Z" fill="#cc3637"/><path d="M153.47,139.93q-.94,3.42-1.68,7c2.23,1.54,4.54,3,6.82,4.26,12.77,7.3,26.51,12.77,40.2,18.06,14.4,5.56,36.92,11.92,50,24.41.67-2,1.23-4.14,1.7-6.27-10.31-9.21-24.45-14.21-37.71-18.81C191.68,161.22,171.36,153.64,153.47,139.93Z" fill="#cc3637"/><path d="M171.59,170.65a110.76,110.76,0,0,1-15.41-8.55c-1.79-1.21-4-2.64-6.06-4.29q-.3,3-.43,6a118.85,118.85,0,0,0,23.23,14.65c9.79,4.56,20.34,7.3,30.63,10.49,13.85,4.3,27.37,9.62,38.4,18.6a46.15,46.15,0,0,0,3-4.9c-10.67-9-25.15-14.32-37.94-18.8C195.15,179.65,183,176,171.59,170.65Z" fill="#cc3637"/><path d="M149.62,169.82c2.09,1.4,4.21,2.69,6.25,3.9,10.83,6.4,22.72,10.82,34.56,14.94,14.84,5.16,36.16,10.21,49,22q1.32-1.53,2.5-3.17c-11-9-24.55-14.3-38.4-18.6-10.29-3.19-20.84-5.93-30.63-10.49a118.85,118.85,0,0,1-23.23-14.65Q149.56,166.81,149.62,169.82Z" fill="#cc3637"/><path d="M255.33,49.72c-11.26-7.91-29.52,1.79-36,12-7.57,12-8.52,26.64-9.91,40.46a16,16,0,0,0,7.34,4.09c3.48-12,16.49-17.07,26.36-23.19C252.65,77.17,270.07,60.07,255.33,49.72Z" fill="#ed84af"/><path d="M189.27,97.87S185.2,82,184.38,69.36c-.63-9.83-1.17-20.95-6.91-29.36-6.39-9.37-20.84-9.7-29.7-3.54-12.86,8.94-4,26,7.4,31.9,13.72,7.07,21.91,18.69,24.73,34C179.9,102.35,181.83,107.26,189.27,97.87Z" fill="#ed84af"/><path d="M175.39,85.36a44.08,44.08,0,0,0-14.92-19.52c-5.48-4.09-11.76-8.34-13.56-15.36-1.13-4.41-1.21-10.18,1.28-14.27-.14.09-.29.17-.42.26-12.86,8.94-4,26,7.4,31.9,13.24,6.82,21.31,17.89,24.4,32.4C179.19,95.45,177.29,90,175.39,85.36Z" fill="#ce6192" opacity="0.51"/><path d="M182.79,101.61s.06,0,.09,0l3.85-.89S176.66,63.93,174.11,56,162,36.26,155,42.77s6.74,18.61,12.09,25.2c4.71,5.81,12.86,27.31,15.55,33.61Z" fill="#ffc0dd"/><path d="M209.43,102.16c-1.28-1,2.69-13.8,3.24-15.64a52.25,52.25,0,0,1,12.87-21.91c5-5,15.19-13.39,22.43-7.76,5.39,4.19-5.49,10.38-8.4,12.16-7,4.27-14.77,9.77-18.29,17.43-2.79,6.09-5.5,12.21-8.57,18.18Z" fill="#ffc0dd"/><path d="M223.7,66.36c5.15-8.5,13.7-17,23.68-19.47-10.55-1-23,6.76-28.05,14.8-7.57,12-8.52,26.64-9.91,40.46a17.64,17.64,0,0,0,3.9,2.8C214.73,91.54,216.56,78.15,223.7,66.36Z" fill="#ce6192" opacity="0.48"/><path d="M229.18,106.55c-.06.37-3.26-1.8-3.24-1.78-3.34-2.31-7.56,1.5-6.61,5.08a2.19,2.19,0,0,0,.24.56,9.2,9.2,0,0,0-2.66-1,6.37,6.37,0,0,0-6.31,2.05,6.8,6.8,0,0,0-1.4,2.77l-.37-.24c-4.11-2.37-8-.38-9.57,3.32l-.64-.84a7.8,7.8,0,0,0-5.82-2.16,7,7,0,0,0-3.85,1.55c-2.44-4.09-7.48-5.81-11.34-2.5a9.62,9.62,0,0,0-1.45-2.34,6.54,6.54,0,0,0-6-2.06c-.22,0-.43.09-.64.14a8,8,0,0,0-1.39-2.43,6.18,6.18,0,0,0-6.79-1.92c-4.38,1.43-3.76,7.26-.52,8.63,0,0,0,0,0,.06a22.08,22.08,0,0,0,.26,2.51,7,7,0,0,0,2.39,3.54,6.2,6.2,0,0,0,6.37,1c.1.29.19.55.26.71a6.52,6.52,0,0,0,6.47,4.36,7.83,7.83,0,0,0,5.37-3.06c.19.51.39,1,.62,1.52a8.5,8.5,0,0,0,3.15,3.53,7.26,7.26,0,0,0,7.18.09,6.15,6.15,0,0,0,1.3-1.15c3.05,4.41,10.57,4.57,12.72-.91.07-.19.19-.52.31-.92,2.31,1.67,5.22,2.35,7.85.82a7.07,7.07,0,0,0,3.18-5.39c.29.11.56.2.76.26,5,1.43,7.81-1.33,8.93-5.08,4.49.77,9-.63,9.95-6.25S230.17,100.84,229.18,106.55Z" fill="#368219"/><path d="M239.89,112.5c-1.73-3.78-6.23-2.48-7.73.5a5.24,5.24,0,0,0-6.14,2.85,6,6,0,0,0-7.91,2.36,4.91,4.91,0,0,0-.24.5,6.48,6.48,0,0,0-1.07-.6,6.61,6.61,0,0,0-7.65,2.79,8.84,8.84,0,0,0-1.28,4.71,6.06,6.06,0,0,0-6.14-2.5,6.9,6.9,0,0,0-3.5,1.91l-.16.18a6.38,6.38,0,0,0-.8-.8,6.47,6.47,0,0,0-7.72-.3,13.42,13.42,0,0,0-1.47,1.21c-1.82-3.71-6-5.22-9.67-2.79,0-.1,0-.2-.07-.28a6.73,6.73,0,0,0-7.91-4.83,7.19,7.19,0,0,0-.71.22,8.84,8.84,0,0,0-2.36-3.93,4.6,4.6,0,0,0-3.35-1.33c-1.77-2.2-5.61-2.89-7.5.27-2.48,4.14-4.18,11.44,1.57,13.92a5.92,5.92,0,0,0,3.6.31,6.66,6.66,0,0,0,.4.9,7.39,7.39,0,0,0,5,3.61,6.84,6.84,0,0,0,3.23-.16,6.66,6.66,0,0,0,3.12,3.15c1.79.83,5.18.52,7.43-.89a6.94,6.94,0,0,0,2.89,3.42,6.61,6.61,0,0,0,6.1.17,6,6,0,0,0,2.34-2.24c.09.16.19.32.3.46a6,6,0,0,0,5.64,2.57,6.65,6.65,0,0,0,4.59-2.7,7.82,7.82,0,0,0,9.94,1,9.72,9.72,0,0,0,3.77-5.52,6.39,6.39,0,0,0,6.57.09,5.63,5.63,0,0,0,2-2.11A6,6,0,0,0,234.2,125a6,6,0,0,0,3.58-1.24C241.41,120.91,241.7,116.45,239.89,112.5Z" fill="#56a835"/><path d="M241,146.21a6.41,6.41,0,0,0-4.39-4.47,5.94,5.94,0,0,0-1.24-.19,11.72,11.72,0,0,0-.51-2.11c-.94-2.7-4.88-3.64-6.4-.84a11.44,11.44,0,0,0-1.25,3.75,6,6,0,0,0-5.29,3.83,5.24,5.24,0,0,0,3.48,6.49,5.46,5.46,0,0,0,1.87.29c.61,2.26,2.08,4.78,4.72,4.78s4.36-2.58,4.89-4.85a8.48,8.48,0,0,0,.18-1.1A4.42,4.42,0,0,0,241,146.21Z" fill="#fff7e9"/><path d="M188.87,202.49c-.45-2.77-3.22-4.42-5.88-4.37a9.48,9.48,0,0,0-2.3.36c-.16-3.08-1.2-6-4.81-5.58-2.85.3-3.73,2.76-3.85,5.47a7.62,7.62,0,0,0-1.22-.43c-2.64-.66-6,0-6.79,3-1,4.22,3.53,6.19,7.6,6.8a6,6,0,0,0,1.32,5.19,5.92,5.92,0,0,0,6.93,1.2,6.72,6.72,0,0,0,3.56-5.88c0-.13,0-.25,0-.37C186.67,207.53,189.46,206.14,188.87,202.49Z" fill="#fff7e9"/><path d="M217.68,209.1c0-2.72-2.13-4.12-4.45-4.55a17.62,17.62,0,0,0-1.79-2.74c-1.18-1.48-3.72-1.23-4.95,0l-.11.14a3.09,3.09,0,0,0-1.25,2.69c0,.44,0,.89,0,1.36l-.07,0c-2,.86-3.44,2.94-2.49,5.18a4.36,4.36,0,0,0,3.91,2.49,8,8,0,0,0,2.26,3.13c1.91,1.55,5.21,1.25,5.85-1.54a16.45,16.45,0,0,0,.33-2A4.36,4.36,0,0,0,217.68,209.1Z" fill="#fff7e9"/><polygon points="46.9 180.92 80.16 200.58 121.21 178.12 94.12 154.27 46.9 180.92" fill="url(#linear-gradient-2)"/><path d="M78.78,179.63a48.52,48.52,0,0,0,30,3.57c6.1-1.21,12.16-3.92,16.07-8.51,0-.66.08-1.32.08-2a26.56,26.56,0,1,0-53.13,0c0,.78,0,1.55.11,2.32A27.86,27.86,0,0,0,78.78,179.63Z" fill="#68e1fd"/><path d="M98.41,146.14c-.33,0-.66,0-1,0A31.11,31.11,0,0,1,111.68,163c1.73,5,1.77,9.85,1.74,15.05,0,1.29,0,2.59.1,3.88a25.58,25.58,0,0,0,11.37-7.25c0-.66.08-1.32.08-2A26.56,26.56,0,0,0,98.41,146.14Z" fill="#606060" opacity="0.44"/><polygon points="265.31 194.91 298.57 214.57 339.62 192.11 312.53 168.26 265.31 194.91" fill="url(#linear-gradient-3)"/><path d="M297.19,193.62a48.52,48.52,0,0,0,30,3.57c6.1-1.21,12.16-3.92,16.07-8.51,0-.66.08-1.32.08-2a26.56,26.56,0,0,0-53.13,0c0,.78,0,1.55.11,2.32A27.86,27.86,0,0,0,297.19,193.62Z" fill="#68e1fd"/><path d="M316.82,160.13c-.33,0-.66,0-1,0A31.11,31.11,0,0,1,330.09,177c1.73,5,1.77,9.85,1.74,15.05,0,1.29,0,2.59.1,3.88a25.58,25.58,0,0,0,11.37-7.25c0-.66.08-1.32.08-2A26.56,26.56,0,0,0,316.82,160.13Z" fill="#606060" opacity="0.44"/></svg>