<svg xmlns="http://www.w3.org/2000/svg" xmlns:xlink="http://www.w3.org/1999/xlink" viewBox="0 0 400 300"><defs><linearGradient id="linear-gradient" x1="104.8" y1="170.15" x2="64.74" y2="202.75" gradientUnits="userSpaceOnUse"><stop offset="0" stop-color="#d4a397"/><stop offset="1" stop-color="#fff"/></linearGradient><linearGradient id="linear-gradient-2" x1="229.79" y1="213.66" x2="170.13" y2="262.23" xlink:href="#linear-gradient"/><linearGradient id="linear-gradient-3" x1="342.47" y1="187.54" x2="290.22" y2="219.12" xlink:href="#linear-gradient"/></defs><title>PP</title><g style="isolation:isolate"><g id="Layer_2" data-name="Layer 2"><path d="M196.76,288.47,24.27,186.52c-5.49-3.08-10.2-8.15-4.85-11.46L192.54,75.28c2.6-1.61,6.54-2.66,9.18-1.13L382.8,179.24c5.49,3.19,6.48,12.1,1,15.29L219.5,288.3A22.94,22.94,0,0,1,196.76,288.47Z" fill="#a4d9cf"/><path d="M80.27,179.4,49.13,196.24s13.43,11.59,24.36,16.19l30.25-22.21" fill="url(#linear-gradient)" style="mix-blend-mode:multiply"/><path d="M197.73,52.66s-7.4,25.6-9.22,24.94-13.1-5.39-13.1-5.39l-3.87,12.91s15.69,12.06,22.73,9.76,5.43-22.51,7.47-20.74" fill="#68e1fd"/><path d="M197.73,52.66s-7.4,25.6-9.22,24.94-13.1-5.39-13.1-5.39l-3.87,12.91s15.69,12.06,22.73,9.76,5.43-22.51,7.47-20.74" fill="#2e8593" opacity="0.46"/><path d="M189,230.22l-41.87,22.65s14.88,15.59,29.58,21.77l51.21-31.41" fill="url(#linear-gradient-2)" style="mix-blend-mode:multiply"/><path d="M218.57,223s1.12,7,.89,9.06-4.94,8.14-7.06,9-4.81,1.51-3.54,4.77,14-2.23,15-3.06,2.18-9,2.56-8.62.2,9.23,1.47,9.06,0-22.33,0-22.33" fill="#ff831d"/><path d="M193,214.21s0,7.05-.52,9.09-6.14,7.28-8.37,7.8-5,.75-4.24,4.16,14.18,0,15.34-.69,3.55-8.53,3.87-8.12-1.24,9.15,0,9.17,3.43-22.06,3.43-22.06" fill="#ff831d"/><path d="M219.1,226.75l.36,5.32s5.37-.37,8.81-3.51V226" fill="#d17213"/><path d="M192.93,217.2l-.23,5.33s5.38.22,9.15-2.52l.28-2.52" fill="#d17213"/><path d="M194.27,97S181.77,168.88,182,214.26c0,0,16.14,7.87,25.83,2.85,0,0,3.71-107.65,8.16-115.21" fill="#5e331f"/><path d="M205.73,101.18s3.32,97.45,3.85,124c0,0,21.9,5.28,24.29-.76s-8.33-125.19-8.33-125.19" fill="#5e331f"/><path d="M233.38,225.16c6.32-13.39,5-35.36,3.09-46.28s-.66-21.88-.37-39.7-8.35-36.92-8.35-36.92l-6.35,1.1" fill="#5e331f"/><path d="M209.39,104.17c6.25,1.58,13.2,2.87,19-.53,9.63-40.58,2.57-53.16-14-58-6.57-1.9-13.41,1.6-16.64,7-1.83,15.66-3.39,30.14-3.47,45.79,0,.79,5.55,2.76,6.31,3.05a61.52,61.52,0,0,0,6.88,2.16Z" fill="#68e1fd"/><path d="M209.63,126a.51.51,0,0,0-1,0q-1.3,50.15.71,100.3c0,.65,1,.66,1,0Q208.33,176.14,209.63,126Z" fill="#fff"/><path d="M230.47,102.27s-4.7,4.67-5.32,4.94-2.42-1.11-2.95-1.31c-1.3-.49-4.15-1-5.2.29-.45.56,4.12,2.4,4.4,2.18,0,0-7.1,5.56-7.54,7.46s2.09,2.81,2.09,2.81-1.6,2.29.2,3.07a2.61,2.61,0,0,0,2.95-.45s0,2.66,1.83,2.47l1.81-.19a5.11,5.11,0,0,0,2.89.77c1.5-.14,6.29-10.64,6.29-10.64l5.25-5Z" fill="#ffd2bb"/><path d="M221.37,111a59.16,59.16,0,0,1-5.82,7.53c-.22.24.19.55.41.3a59.16,59.16,0,0,0,5.82-7.53C222,111,221.55,110.71,221.37,111Z" fill="#42210b"/><path d="M224.36,112.65a45,45,0,0,1-5.38,9c-.2.26.21.57.41.3a45.6,45.6,0,0,0,5.45-9.16C225,112.53,224.49,112.35,224.36,112.65Z" fill="#42210b"/><path d="M226.9,115.19c-1.34,2.78-2.49,5.86-4.32,8.35a.26.26,0,0,0,.41.3c1.86-2.54,3-5.65,4.38-8.47C227.52,115.07,227,114.89,226.9,115.19Z" fill="#42210b"/><path d="M207,46.55h0s-1,8.68,5.66,6.11a55.24,55.24,0,0,0,8.08-3.92V43.51" fill="#ffb392"/><path d="M234.23,58.78s19.66,18,18.76,28.85S237.69,112,237.69,112l-9.28-8.41s6.43-12.67,5.81-14.56-4.51-4.9-4.51-4.9" fill="#68e1fd"/><path d="M202.83,28.2s-3.2,17.33,4.07,20.14,14-10.31,14-14.34C220.88,25.63,212.57,26.35,202.83,28.2Z" fill="#ffd2bb"/><path d="M244.4,72.45a5.54,5.54,0,0,0-1.31-3c-1.5-1.72-3.88-2.46-5.18-4.38-2.11-3.13,1.29-5.9,1.55-9,.48-5.71-6.9-6.38-10.11-9.22-1.71-1.51-2.37-3.57-3-5.71-1.84-6.6-2.22-14.7-8.66-18.76a13.9,13.9,0,0,0-6.68-1.78c-2.69-.15-5.77.1-8,1.71a8.49,8.49,0,0,0-3.61,6.28c-.11,1.8.44,4.65,2.64,4.92,1.44.17,2.17-.94,3.07-1.82s1.63-2.28,2.67-3.24a4.72,4.72,0,0,1,2.43-1.27c3.67-.57.35,6,.29,7.41a3.16,3.16,0,0,0,.62,2.12A4.21,4.21,0,0,0,213.35,38c1.75.49,4.8,1.39,3.73,3.89-.59,1.38-2,2.46-2.72,3.8-1.6,2.83-1.81,6.1.29,8.75a18.53,18.53,0,0,0,3.47,3.15,6.12,6.12,0,0,1,2.61,4.09c0,.1,0,.2,0,.3-.34,2.68-1.47,6.08-1.36,9.06-.24.89.38,2.29.77,3.08a9.44,9.44,0,0,0,2.22,2.83,14.87,14.87,0,0,0,14.16,2.88c2.41-.72,5.19-1.63,6.83-3.66A4.91,4.91,0,0,0,244.4,72.45Zm-5.83-16.26a6,6,0,0,0,0-1.12,5.34,5.34,0,0,0-.18-.83A4.11,4.11,0,0,1,238.57,56.19Z" fill="#5e331f"/><ellipse cx="202.71" cy="37.87" rx="2.47" ry="2.85" fill="none" stroke="#42210b" stroke-miterlimit="10"/><ellipse cx="209.85" cy="38.41" rx="2.47" ry="2.85" fill="none" stroke="#42210b" stroke-miterlimit="10"/><path d="M207.56,37.68c0-.26-.39-.36-.6-.42a2.09,2.09,0,0,0-.54-.1q.08-.35.14-.7c.05-.27-.37-.39-.42-.12s-.12.58-.18.86h-.06c-.3.09-1.21.61-.81,1a.22.22,0,0,0,.36-.22.77.77,0,0,1,.39-.31c-.08.34-.17.68-.27,1-.27.86-.81,1.73-1,2.6-.14.65.32.87.94,1a.22.22,0,0,0,.12-.42c-.76-.19-.57-.6-.33-1.18s.35-.88.5-1.33.37-1.2.52-1.8a1.58,1.58,0,0,1,.39,0,1.77,1.77,0,0,1,.41.13.2.2,0,0,0,.26.19h0A.23.23,0,0,0,207.56,37.68Z" fill="#42210b"/><path d="M204.8,43a11.48,11.48,0,0,0,3.35-.66s2.68,3.08.72,4.54S204.92,44.09,204.8,43Z" fill="#5e331f"/><path d="M183.23,72.77a10,10,0,0,0-3.65,1,1,1,0,0,0-.12,1.74l-.38.19a1,1,0,0,0,.23,1.92,6.53,6.53,0,0,0,3.75-.58,2.73,2.73,0,0,0,2-2.26A1.88,1.88,0,0,0,183.23,72.77Z" fill="#ffd2bb"/><path d="M180.92,79.48l-.61-.46-.48,1.84Z" fill="none"/><path d="M176.54,80.23q1.17.93,2.35,1.83l.94-1.2.48-1.84-1.67-1.27Z" fill="#fa8f1f"/><path d="M167.17,83.42l-.41.49v.63a1.91,1.91,0,0,0,.53,1.36A9.14,9.14,0,0,0,169,87.29l.92-1Q168.52,84.86,167.17,83.42Z" fill="#fa8f1f"/><path d="M175.76,86.08,173.33,84,171.4,86.2c.8.78,1.62,1.54,2.44,2.29h.05Z" fill="#fa8f1f"/><path d="M168.77,80l-1.91-1.72-.05,3.18.35.38Z" fill="#fa8f1f"/><path d="M180.6,77.89l1-3.7-2.24,2.72Z" fill="#fa8f1f"/><path d="M166.94,73.4l0,2.46,1.17-1.42Z" fill="#fa8f1f"/><path d="M170,87.82a7.89,7.89,0,0,0,2.17.65h.1c-.52-.48-1-1-1.55-1.46Z" fill="#fa8f1f"/><path d="M171.22,77.22q-1.18-1-2.35-2.06l-1.62,2,2.24,2Z" fill="#fa8f1f"/><path d="M177.79,77.09c-1-.75-1.92-1.52-2.86-2.3l-2.17,2.35q1.46,1.24,2.94,2.43Z" fill="#fa8f1f"/><path d="M167.88,82.61q1.35,1.45,2.76,2.84l1.88-2.17q-1.48-1.29-3-2.6Z" fill="#fa8f1f"/><path d="M172,77.92l-1.75,2q1.46,1.31,2.94,2.6L175,80.38Q173.51,79.17,172,77.92Z" fill="#fa8f1f"/><path d="M177.24,85.93l.91.76a1.76,1.76,0,0,0,.35-.67l.63-2.43,0,0Z" fill="#fa8f1f"/><path d="M174,83.17l2.39,2.05,1.8-2.31q-1.2-.92-2.38-1.86Z" fill="#fa8f1f"/><path d="M175.53,88.14a9.25,9.25,0,0,0,1.74-.78l-.69-.58Z" fill="#fa8f1f"/><path d="M181.23,73.72l-.13,0c-.29.09-.2-.07-.47-.08-.6.74-1.56,1.86-2.17,2.6q-1.32-1-2.61-2.09c-.6,0-1.19-.05-1.78-.1l0,0-2.17,2.34q-1.21-1-2.39-2.1l.74-.88q-.56-.15-1.11-.35l-.43.51L167,72l0,1.44,1.13,1-1.17,1.42,0,2.37L168.77,80l-1.62,1.84-.35-.38,0,2.49.41-.49q1.35,1.44,2.75,2.83l-.92,1a8.51,8.51,0,0,0,1,.52l.72-.81c.51.49,1,1,1.55,1.46a7.06,7.06,0,0,0,1.61,0c-.83-.75-1.64-1.51-2.44-2.29L173.33,84l2.44,2.09-1.87,2.41a8,8,0,0,0,1.63-.35l1.05-1.36.69.58.5-.31a1.73,1.73,0,0,0,.38-.35l-.91-.76,1.84-2.36,0,0,.71-2.73-.94,1.2q-1.18-.91-2.35-1.83l2.1-2.48L180.31,79l.29-1.13-1.28-1,2.24-2.72.07-.26a.61.61,0,0,1,.06-.15C181.53,73.82,181.4,73.68,181.23,73.72Zm-14,3.42,1.62-2q1.16,1,2.35,2.06l-1.74,1.93Zm3.39,8.31q-1.41-1.4-2.76-2.84l1.69-1.93q1.47,1.31,3,2.6Zm2.58-3q-1.48-1.29-2.94-2.6l1.75-2q1.47,1.25,3,2.46Zm5,.44-1.8,2.31L174,83.17l1.82-2.12Q177,82,178.23,82.91Zm-2.52-3.35q-1.49-1.2-2.94-2.43l2.17-2.35c.94.78,1.89,1.55,2.86,2.3Z" fill="#e06622"/><path d="M181.69,73.78l.78-.77,1.16-1.09a.61.61,0,0,0,.18-.35l.38-2.6a.61.61,0,0,0-.51-.69l-16.86-2.45a.61.61,0,0,0-.69.53,13.69,13.69,0,0,0-.14,2.8,22.19,22.19,0,0,0,.92,2.07.6.6,0,0,1,.06.28V72l1.78,1.65.43-.51q.55.2,1.11.35l-.74.88q1.19,1.06,2.39,2.1l2.17-2.34,0,0c.59,0,1.18.08,1.78.1q1.29,1.07,2.61,2.09l2.41-2.39Z" fill="#fa8f1f"/><path d="M181.69,73.78A37.43,37.43,0,0,1,167,71.5l-.11,6.73S179.57,76,181.69,73.78Z" fill="#7f443c" opacity="0.29" style="mix-blend-mode:multiply"/><path d="M185.68,59c-2.74-3.74-8.3-5.22-12.72-5-2.77.17-6,1.56-6.76,4.11a2.62,2.62,0,0,0-2.81,2.37c-1.28,9.79,13.73,11.9,20.26,8.5C187.45,67,188.14,62.39,185.68,59Z" fill="#ffb6b6"/><path d="M185.46,58.74s-5.14,4.7-11.85,4S166,58.26,167,56.68" fill="#ff8f8f"/><path d="M186.89,54.49c-.36-4.78-6.37-8.1-11.58-7.94a2.92,2.92,0,0,0-1.23-.25,8.89,8.89,0,0,0-7.84,5.24c-1.24,2.91.79,6,3.36,7.66C174.65,62.48,187.49,62.43,186.89,54.49Z" fill="#c9611b"/><path d="M184.93,50.32a12.52,12.52,0,0,1-10.7,3.56c-7.52-1.09-6.51-4.68-4.9-6" fill="#aa4c0c"/><path d="M186.91,45.71c-.28-4.47-5.55-7.52-10.14-7.33a2.42,2.42,0,0,0-1.08-.23,8,8,0,0,0-6.95,5c-1.12,2.73.65,5.59,2.9,7.13C176.05,53.27,187.37,53.12,186.91,45.71Z" fill="#ffdbc2"/><path d="M178.37,41.88a1.21,1.21,0,0,0,.64,0,3,3,0,0,0,2.52-2.37,3.49,3.49,0,0,0-1.25-3.28c-1.91-1.47-5.24-.77-5.61,1.86A3.53,3.53,0,0,0,178.37,41.88Z" fill="#ec3945"/><path d="M178.37,41.9a1.17,1.17,0,0,0,.3,0,3.21,3.21,0,0,1-1.58-2,3.58,3.58,0,0,1,1.52-4,3.13,3.13,0,0,1,.56-.26c-1.88-.59-4.19.26-4.5,2.43A3.53,3.53,0,0,0,178.37,41.9Z" fill="#c11a2a"/><path d="M177.51,29.18c-.21-.36-.73,0-.52.39a10.64,10.64,0,0,1,1.32,6.72.33.33,0,0,0,.65.09A11.38,11.38,0,0,0,177.51,29.18Z" fill="#5ba80c"/><path d="M180.26,36.88c-.34-.25-.75.26-.41.51a1.34,1.34,0,0,1,.57,1.15c0,.42.63.51.65.09A2,2,0,0,0,180.26,36.88Z" fill="#fff"/><path d="M180.62,39.41a.33.33,0,0,0-.09.65A.33.33,0,0,0,180.62,39.41Z" fill="#fff"/><path d="M181.69,50.56c-1.14-.69-1.75-1.24-3.21-1.15a3.39,3.39,0,0,1-1.35,0c-.45-.16-.5-.32-.77-.68-.1-.13,0-.38-.12-.52a1.94,1.94,0,0,0-1.49-1.09c-.68-.22-1.38-.27-1.49-1.17-.07-.59.1-.49.31-1a4,4,0,0,0,.28-1.69c0-1,1.38-1.89.75-2.81-.42-.62-1.5-.63-1.78-1.46a1.22,1.22,0,0,1-.05-.23,8.32,8.32,0,0,0-4.06,4.26c-1.12,2.73.65,5.59,2.9,7.13a13.84,13.84,0,0,0,11.93.89A5.05,5.05,0,0,1,181.69,50.56Z" fill="#f4c6a6"/><path d="M168.08,77.25s1.82.4,2-1.09S167,72,167,72s-1.64-1.75-2.84-.74c-.95.8-.34,2.37,0,3a1.9,1.9,0,0,0-.44-.06A1.8,1.8,0,0,0,162,75.21c-.49,1.05,0,2.29.62,3.27a1.39,1.39,0,0,0-.64.7,2.53,2.53,0,0,0,1.08,2.74c.51,1.33,3.69,2,3.69,2a1.39,1.39,0,0,0,1.76-.62c.69-1.11-.9-2.36-.9-2.36s1.46.7,2-.25S168.08,77.25,168.08,77.25Z" fill="#ffd2bb"/><polyline points="324.39 188.33 273.96 212.5 282.78 240.08 347.06 194.97" fill="url(#linear-gradient-3)" style="mix-blend-mode:multiply"/><path d="M330.33,156.58A35.12,35.12,0,0,0,323,180.73c1,14.1,8.91,18.19,8.91,18.19l9.45.53s11.23-3.67,9.77-22c-1.37-17.21-7-21.26-7-21.26" fill="#68e1fd"/><ellipse cx="337.28" cy="156.58" rx="6.96" ry="2.46" fill="#003b94"/><ellipse cx="337.28" cy="197.42" rx="6.96" ry="2.46" fill="#68e1fd"/><path d="M334.43,157.32,326,109c-.18-1.05-1.78-.61-1.6.44l8.42,48.3C333,158.81,334.61,158.37,334.43,157.32Z" fill="#007f68"/><path d="M336,157.48a2,2,0,0,1,.77,0,1.74,1.74,0,0,1,.86.52q1-20.24.36-40.51c0-1.07-1.7-1.07-1.66,0Q336.94,137.5,336,157.48Z" fill="#007f68"/><path d="M354.89,110.61A444.16,444.16,0,0,0,338.62,157a.83.83,0,0,0,1.6.44,444.16,444.16,0,0,1,16.26-46.41C356.9,110.06,355.29,109.63,354.89,110.61Z" fill="#007f68"/><path d="M327.8,128.94s-.91-.11-4.88-4.29,1-7.32-1.25-12,.94-10.88,1.67-15.58a21.82,21.82,0,0,0,3.49,9.2c3,4.29,4.67,8.16,4.35,13.6A48.14,48.14,0,0,1,329.42,130" fill="#007f68"/><path d="M336.33,136.39s-.86-.33-3.69-5.35,2.79-6.85,1.7-12,3.56-10.32,5.41-14.71a21.82,21.82,0,0,0,1.15,9.78c1.86,4.89,2.54,9,.92,14.25a48.14,48.14,0,0,1-4.18,9.41" fill="#007f68"/><path d="M348.19,127.69s-.77-.5-2.52-6,4.14-6.13,4.12-11.37S355.38,101,358.1,97a21.82,21.82,0,0,0-.88,9.8c.82,5.16.64,9.38-2,14.13a48.14,48.14,0,0,1-6,8.36" fill="#007f68"/><path d="M105.79,162.27l-.25.09c-.57.27-.43-.09-1,0-1,1.73-2.61,4.39-3.63,6.11-2.05-1.13-4.1-2.28-6.12-3.47-1.25.15-2.49.29-3.73.39l.07,0q-1.87,2.78-3.72,5.58-2.85-1.75-5.67-3.55L83,165.37q-1.21-.13-2.42-.35l-.72,1.21c-1.43-.93-2.84-1.88-4.25-2.83l.43,3c.9.59,1.79,1.2,2.69,1.78l-1.95,3.34.71,4.94L82,179.4q-1.38,2.18-2.73,4.37l-.85-.67.75,5.17.69-1.14c2.19,1.69,4.41,3.34,6.66,4.95l-1.57,2.47a17.89,17.89,0,0,0,2.19.76l1.22-1.92c1.22.86,2.46,1.69,3.7,2.52a14.83,14.83,0,0,0,3.34-.49c-2-1.28-3.91-2.59-5.84-3.93,1.09-1.74,2.17-3.5,3.25-5.25q2.87,1.78,5.76,3.52l-3.07,5.63a16.76,16.76,0,0,0,3.27-1.28l1.73-3.17,1.63,1c.36-.29.67-.57.94-.81a3.65,3.65,0,0,0,.67-.86l-2.15-1.28,3-5.52.1.05.55-5.91-1.56,2.81q-2.76-1.49-5.49-3c1.18-2,2.35-3.9,3.52-5.86,1.3.7,2.6,1.39,3.9,2.08l.23-2.44-3-1.59q1.88-3.19,3.73-6.4l.05-.57a1.28,1.28,0,0,1,.08-.34C106.43,162.38,106.11,162.13,105.79,162.27ZM77.9,174.06q1.34-2.33,2.71-4.65,2.77,1.78,5.57,3.49-1.49,2.29-3,4.59C81.44,176.35,79.66,175.21,77.9,174.06Zm9.83,16.11c-2.26-1.62-4.49-3.27-6.68-5q1.42-2.29,2.86-4.57,3.49,2.23,7,4.41C89.84,186.75,88.79,188.46,87.73,190.16Zm4.36-7q-3.5-2.18-7-4.4,1.48-2.33,3-4.64c2.32,1.4,4.66,2.76,7,4.11Q93.6,180.66,92.08,183.12Zm10.54-.76-3,5.41c-1.89-1.15-3.78-2.3-5.65-3.46q1.54-2.5,3.06-5Q99.83,180.86,102.63,182.36Zm-6.36-6.11c-2.32-1.33-4.64-2.67-6.93-4.06q1.85-2.81,3.72-5.6c2.21,1.31,4.45,2.58,6.7,3.82C98.61,172.36,97.43,174.3,96.26,176.25Z" fill="#68e1fd"/><path d="M107.07,174.34l-1.42-.76-.37,4Z" fill="none"/><path d="M98.23,177.36q2.73,1.54,5.49,3l1.56-2.81.37-4c-1.3-.69-2.61-1.38-3.9-2.08C100.59,173.46,99.41,175.41,98.23,177.36Z" fill="#68e1fd"/><path d="M79.86,187.12l-.69,1.14.19,1.31a4,4,0,0,0,1.56,2.64,19.21,19.21,0,0,0,4,2.31l1.57-2.47C84.27,190.46,82,188.82,79.86,187.12Z" fill="#68e1fd"/><path d="M98.58,189.75q-2.88-1.75-5.76-3.52c-1.08,1.75-2.16,3.51-3.25,5.25,1.92,1.35,3.87,2.65,5.84,3.93l.11,0Z" fill="#68e1fd"/><path d="M82,179.4l-4.54-2.93,1,6.63.85.67Q80.63,181.58,82,179.4Z" fill="#68e1fd"/><path d="M105.88,171.15l.75-8q-1.86,3.21-3.73,6.4Z" fill="#68e1fd"/><path d="M76,166.4l.74,5.13,1.95-3.34C77.8,167.6,76.91,167,76,166.4Z" fill="#68e1fd"/><path d="M87.14,195.3a16.58,16.58,0,0,0,4.71.61h.21c-1.24-.83-2.48-1.67-3.7-2.52Z" fill="#68e1fd"/><path d="M86.17,172.9q-2.8-1.72-5.57-3.49-1.36,2.32-2.71,4.65c1.77,1.16,3.54,2.29,5.32,3.43Q84.68,175.19,86.17,172.9Z" fill="#68e1fd"/><path d="M99.77,170.41c-2.25-1.24-4.5-2.51-6.7-3.82q-1.88,2.79-3.72,5.6c2.29,1.38,4.6,2.73,6.93,4.06C97.43,174.3,98.61,172.36,99.77,170.41Z" fill="#68e1fd"/><path d="M81,185.19c2.19,1.7,4.42,3.35,6.68,5,1.07-1.7,2.12-3.42,3.17-5.13q-3.51-2.19-7-4.41Q82.46,182.9,81,185.19Z" fill="#68e1fd"/><path d="M88.09,174.08q-1.5,2.31-3,4.64,3.48,2.22,7,4.4,1.51-2.46,3-4.93C92.75,176.84,90.41,175.48,88.09,174.08Z" fill="#68e1fd"/><path d="M101.59,188.95l2.15,1.28a3.7,3.7,0,0,0,.49-1.51l.49-5.24-.1-.05Z" fill="#68e1fd"/><path d="M94,184.31c1.88,1.16,3.77,2.31,5.65,3.46l3-5.41q-2.79-1.51-5.56-3.06Q95.55,181.81,94,184.31Z" fill="#68e1fd"/><path d="M98.78,194.11a19.45,19.45,0,0,0,3.36-2.21l-1.63-1Z" fill="#68e1fd"/><g opacity="0.29" style="mix-blend-mode:multiply"><path d="M105.79,162.27l-.25.09c-.57.27-.43-.09-1,0-1,1.73-2.61,4.39-3.63,6.11-2.05-1.13-4.1-2.28-6.12-3.47-1.25.15-2.49.29-3.73.39l.07,0q-1.87,2.78-3.72,5.58-2.85-1.75-5.67-3.55L83,165.37q-1.21-.13-2.42-.35l-.72,1.21c-1.43-.93-2.84-1.88-4.25-2.83l.43,3c.9.59,1.79,1.2,2.69,1.78l-1.95,3.34.71,4.94L82,179.4q-1.38,2.18-2.73,4.37l-.85-.67.75,5.17.69-1.14c2.19,1.69,4.41,3.34,6.66,4.95l-1.57,2.47a17.89,17.89,0,0,0,2.19.76l1.22-1.92c1.22.86,2.46,1.69,3.7,2.52a14.83,14.83,0,0,0,3.34-.49c-2-1.28-3.91-2.59-5.84-3.93,1.09-1.74,2.17-3.5,3.25-5.25q2.87,1.78,5.76,3.52l-3.07,5.63a16.76,16.76,0,0,0,3.27-1.28l1.73-3.17,1.63,1c.36-.29.67-.57.94-.81a3.65,3.65,0,0,0,.67-.86l-2.15-1.28,3-5.52.1.05.55-5.91-1.56,2.81q-2.76-1.49-5.49-3c1.18-2,2.35-3.9,3.52-5.86,1.3.7,2.6,1.39,3.9,2.08l.23-2.44-3-1.59q1.88-3.19,3.73-6.4l.05-.57a1.28,1.28,0,0,1,.08-.34C106.43,162.38,106.11,162.13,105.79,162.27ZM77.9,174.06q1.34-2.33,2.71-4.65,2.77,1.78,5.57,3.49-1.49,2.29-3,4.59C81.44,176.35,79.66,175.21,77.9,174.06Zm9.83,16.11c-2.26-1.62-4.49-3.27-6.68-5q1.42-2.29,2.86-4.57,3.49,2.23,7,4.41C89.84,186.75,88.79,188.46,87.73,190.16Zm4.36-7q-3.5-2.18-7-4.4,1.48-2.33,3-4.64c2.32,1.4,4.66,2.76,7,4.11Q93.6,180.66,92.08,183.12Zm10.54-.76-3,5.41c-1.89-1.15-3.78-2.3-5.65-3.46q1.54-2.5,3.06-5Q99.83,180.86,102.63,182.36Zm-6.36-6.11c-2.32-1.33-4.64-2.67-6.93-4.06q1.85-2.81,3.72-5.6c2.21,1.31,4.45,2.58,6.7,3.82C98.61,172.36,97.43,174.3,96.26,176.25Z" fill="#7f443c"/></g><path d="M106.76,162.25l1.35-1.85,2-2.66a1.28,1.28,0,0,0,.26-.8l-.09-5.53a1.28,1.28,0,0,0-1.3-1.25l-35.81.58A1.27,1.27,0,0,0,72,152.06c.08,1.85.28,5.1.64,5.85a46.65,46.65,0,0,0,2.61,4,1.25,1.25,0,0,1,.22.55l.14.95c1.41,1,2.83,1.9,4.25,2.83l.72-1.21q1.21.22,2.42.35l-1.24,2.08q2.82,1.81,5.67,3.55,1.84-2.8,3.72-5.58l-.07,0c1.24-.1,2.48-.23,3.73-.39,2,1.19,4.06,2.34,6.12,3.47l4.2-5.76Z" fill="#68e1fd"/><path d="M106.76,162.25s-15.25,5.36-31,1.86l2,14S103.1,167.56,106.76,162.25Z" fill="#7f443c" opacity="0.29" style="mix-blend-mode:multiply"/><path d="M110.07,130.27c-6.93-6.85-19-8.05-28.07-6-5.7,1.28-11.89,5.24-12.65,10.8a5.51,5.51,0,0,0-5,5.85c.62,20.74,32.48,20.1,44.89,10.84C116.44,146.33,116.31,136.43,110.07,130.27Z" fill="#c5d82e"/><path d="M109.48,129.76S100.39,141.23,86.23,142s-17.34-6.73-15.73-10.35" fill="#b0bc15"/><path d="M111.08,120.47c-2.35-9.8-15.94-14.68-26.69-12.59a6.13,6.13,0,0,0-2.63-.12,18.68,18.68,0,0,0-14.5,13.51c-1.6,6.45,3.66,12.17,9.54,14.77C88.34,141.15,115,136.73,111.08,120.47Z" fill="#f6ec0f"/><path d="M105.6,112.47a26.32,26.32,0,0,1-21,11c-16,.26-15.08-7.53-12.19-10.84" fill="#f4c811"/><path d="M108.16,102.23c-2.08-9.17-14-13.75-23.5-11.81a5.09,5.09,0,0,0-2.31-.11C76.13,91.42,71,96.88,69.59,102.95s3.23,11.39,8.41,13.83C88.17,121.57,111.61,117.45,108.16,102.23Z" fill="#f25524"/><path d="M89.15,97.17a2.53,2.53,0,0,0,1.32-.22c2.46-1.09,4.55-2.9,4.43-5.77a7.34,7.34,0,0,0-3.69-6.4c-4.46-2.41-11.14.17-11,5.74C80.29,95,85,98.06,89.15,97.17Z" fill="#ec3945"/><path d="M89.16,97.2a2.45,2.45,0,0,0,.64,0,6.74,6.74,0,0,1-4-3.71,7.52,7.52,0,0,1,1.82-8.74A6.58,6.58,0,0,1,88.72,84c-4.09-.6-8.62,2-8.52,6.55S85,98.09,89.16,97.2Z" fill="#c11a2a"/><path d="M83.11,71.09c-.55-.69-1.5.31-1,1a22.37,22.37,0,0,1,5,13.5.69.69,0,0,0,1.37,0A23.93,23.93,0,0,0,83.11,71.09Z" fill="#5ba80c"/><path d="M91.4,86.15c-.78-.41-1.46.79-.67,1.2a2.83,2.83,0,0,1,1.56,2.19c.1.87,1.47.86,1.37,0A4.24,4.24,0,0,0,91.4,86.15Z" fill="#fff"/><path d="M93,91.27a.69.69,0,0,0,0,1.37A.69.69,0,0,0,93,91.27Z" fill="#fff"/><path d="M99,114.06c-2.6-1.05-4-2-7-1.31a7.14,7.14,0,0,1-2.78.51c-1-.18-1.15-.49-1.83-1.15-.25-.24-.21-.77-.42-1-1.27-1.53-1.84-1.51-3.47-1.75s-2.95-.1-3.48-1.93c-.35-1.2.05-1,.31-2.09a8.33,8.33,0,0,0,0-3.6c-.25-2.14,2.22-4.39.61-6.08-1.08-1.14-3.33-.8-4.18-2.42a2.55,2.55,0,0,1-.18-.46,17.49,17.49,0,0,0-7,10.2c-1.4,6,3.23,11.39,8.41,13.83,6.43,3,18.16,2.49,25-2.16A10.63,10.63,0,0,1,99,114.06Z" fill="#d83f16"/></g></g></svg>