<svg xmlns="http://www.w3.org/2000/svg" xmlns:xlink="http://www.w3.org/1999/xlink" viewBox="0 0 400 300"><defs><linearGradient id="linear-gradient" x1="299.73" y1="202.43" x2="302.33" y2="197.09" gradientUnits="userSpaceOnUse"><stop offset="0" stop-color="#fff" stop-opacity="0"/><stop offset="1" stop-color="#f15a24"/></linearGradient><linearGradient id="linear-gradient-2" x1="116.76" y1="257.82" x2="125.57" y2="239.76" xlink:href="#linear-gradient"/></defs><title>0</title><g style="isolation:isolate"><g id="Layer_2" data-name="Layer 2"><path d="M331.64,187.69,222.39,124.16a5.17,5.17,0,0,0-5.16,0L53.86,217.65a5.17,5.17,0,0,0,0,9l104.47,60.32a16.86,16.86,0,0,0,16.86,0l156.45-90.3A5.17,5.17,0,0,0,331.64,187.69Z" fill="#f6967d"/><path d="M302.16,188.62c-4.27,3.34-8.73,6.42-13.23,9.43l11.13,6.5L316.79,194Z" opacity="0.63" fill="url(#linear-gradient)" style="mix-blend-mode:multiply"/><polygon points="185.83 234.75 129.22 270.54 69.7 235.76 114.82 208.79 185.83 234.75" opacity="0.63" fill="url(#linear-gradient-2)" style="mix-blend-mode:multiply"/><path d="M133.74,263.83l-36.22-22a6.62,6.62,0,0,1-3.06-6.5l1.91-140Z" fill="#68e1fd"/><polygon points="96.58 241.07 140.51 211.31 133.74 263.83 96.58 241.07" fill="#68e1fd"/><path d="M133.74,263.83l-36.22-22a6.62,6.62,0,0,1-3.06-6.5l1.91-140Z" fill="#606060" opacity="0.61"/><polygon points="96.58 241.07 140.51 211.31 133.74 263.83 96.58 241.07" fill="#606060" opacity="0.61"/><path d="M96.17,94.41l35.2,166.24a4.62,4.62,0,0,0,6.84,3l137.31-79.5a6.4,6.4,0,0,0,3-7L241.31,15.07A6.4,6.4,0,0,0,231.87,11L99.23,87.54A6.4,6.4,0,0,0,96.17,94.41Z" fill="#68e1fd"/><polygon points="102.58 94 134.98 245.51 270.85 169.88 234.19 18.68 102.58 94" fill="none" stroke="#1b1464" stroke-miterlimit="10"/><ellipse cx="143.05" cy="247.28" rx="1.65" ry="2.03" transform="translate(-31.43 21.07) rotate(-7.59)" fill="#fff"/><ellipse cx="144.73" cy="253.6" rx="1.65" ry="2.03" transform="translate(-32.25 21.35) rotate(-7.59)" fill="#fff"/><path d="M147,246.34l10.58-6a.75.75,0,0,0-.76-1.3l-10.58,6a.75.75,0,0,0,.76,1.3Z" fill="#f2f2f2"/><path d="M149.13,252.66l10.58-6a.75.75,0,0,0-.76-1.3l-10.58,6a.75.75,0,0,0,.76,1.3Z" fill="#f2f2f2"/><path d="M172.76,231.4l59-33.46a.38.38,0,0,0-.38-.65l-59,33.46a.38.38,0,0,0,.38.65Z" fill="#f2f2f2"/><path d="M174.81,236.17l59.25-33.79a.38.38,0,0,0-.38-.65l-59.25,33.79a.38.38,0,0,0,.38.65Z" fill="#f2f2f2"/><ellipse cx="251" cy="187.76" rx="1.65" ry="2.03" transform="translate(-22.61 34.82) rotate(-7.59)" fill="#fff"/><ellipse cx="252.68" cy="194.08" rx="1.65" ry="2.03" transform="translate(-23.43 35.1) rotate(-7.59)" fill="#fff"/><path d="M255,186.81l10.58-6a.75.75,0,0,0-.76-1.3l-10.58,6a.75.75,0,0,0,.76,1.3Z" fill="#f2f2f2"/><path d="M257.08,193.13l10.58-6a.75.75,0,0,0-.76-1.3l-10.58,6a.75.75,0,0,0,.76,1.3Z" fill="#f2f2f2"/><path d="M218.14,154.69c-.19-.28-.37-.35-.66-.06s-.75,1-1.47.56c-.26-.17-.85.33-1.3.5s-.88.28-1.1.89c-.05.15-.29.21-.43.32s-.4.24-.43.4a1.26,1.26,0,0,1-.78,1.1.91.91,0,0,0-.12.61c.27.22.66.39.38.86a3,3,0,0,1-.94.87c-.17.12-.43,0-.62.06l-.31-.87c-.55,1.65-.33,2.3.8,2.89.6.31,1.18.65,1.87,1a2.66,2.66,0,0,0-.73,0,.6.6,0,0,0-.3.37.45.45,0,0,0,.1.39c.79.36.58.71,0,1.08a2.14,2.14,0,0,0-.26.24l3.92-.12.8,1.34c-.5-.09-1-.34-1.39-.19s-.68.72-1.1,1.21l1.49.8-.18.36h-1.2l-.11.23,2.33,2.63c-.28-.1-.43-.14-.57-.21-.91-.44-1.07-.3-1,.78-.34-.23-.69-.61-1.09-.68-.66-.12-.4.52-.41,1.06-.42-.28-1-.3-.94-1s-.31-.83-.72-1-.7-.2-1.22-.35c.34-.77.64-1.44,1-2.1a.4.4,0,0,1,.28-.19c.68-.08,1.35-.16,2-.21.28,0,.81-.82.69-1.11,0-.09-.18-.18-.25-.16a7.56,7.56,0,0,0-2,.67c-.6.4-1.06,1.31-1.89,1.18-.08,0-.22.3-.29.41l-1.44-1,.71-.39c0-.64-.38-.59-.66-.35-.7.61-1.24,0-1.8-.17a5.15,5.15,0,0,1-1.09-.89c-.19-.15-.4-.37-.62-.38-1.16-.06-1.56-.92-1.77-2.13a17.33,17.33,0,0,0-.75-2.51c-.05-.16-.23-.38-.34-.36-.86.17-1.5-.53-2.29-.63s-1.46-.14-2.19-.26a10.57,10.57,0,0,1-2-.47,2.13,2.13,0,0,0-2.15.23c-.07.05-.18.13-.24.11-.77-.3-1.53-.62-2.36-1l.4-.58a2.22,2.22,0,0,0-.4-.22,1.79,1.79,0,0,1-1.4-1.29c-.21-.7-.82-.68-1.35-.66-.12,0-.3.38-.34.61-.08.42-.07.86-.12,1.54-.42-.44-.7-.7-.94-1a1.11,1.11,0,0,1-.16-1.2.6.6,0,0,0-.22-.48c-.1-.07-.3,0-.45.09-.9.25-1.09,1.51-1.92,1.93-.41.21-.33.9,0,1.21s.48.42.71.63c0,0,0,0,0,.07a2,2,0,0,0,1.39,2.66,5.54,5.54,0,0,1,2.05.35,4.22,4.22,0,0,1,1.28,1.52,3.59,3.59,0,0,0,1.7,1.54,3.17,3.17,0,0,0,3.58-.32,3.21,3.21,0,0,1,.67-.33,2.54,2.54,0,0,1,0,.51c-.36,1-.29,1.14.59,1.13,1.36,0,2.72-.07,4.06,0a3.66,3.66,0,0,1,1.71.59c.28.18.36.75.53,1.14l-.22.25a2.17,2.17,0,0,1-.67-.37c-.38-.42-.75-.62-1.29-.3a.86.86,0,0,1-.75,0c-.46-.24-.73,0-.8.47a15.13,15.13,0,0,0-.15,2.41c0,.2.37.55.52.51,1-.3,1.47.42,1.77,1.35-.24.25-.55.45-.68.75a1.68,1.68,0,0,0-.09,1.06,1.29,1.29,0,0,1,0,1.17,7.58,7.58,0,0,0-.26,1,2.06,2.06,0,0,1-.39.71c-.08.09-.43,0-.44,0a3.68,3.68,0,0,1,0-.76,7.62,7.62,0,0,0-.07-1.29c.49-.88.48-.87-.2-1.71-.53-.65-1-1.34-1.57-2-.29-.36-.56-.7-1-.17-.29.32-1-.06-1.19-.48s-.46-.71-1-.6-1.33.33-1.83-.19a1.22,1.22,0,0,0-1.62-.22c-1,.55-1.81,0-2.66-.32-.27-.11-.56-.18-.82-.31a5.15,5.15,0,0,1-.68-.4c-.15-.1-.27-.33-.41-.32-1,0-1.7-.86-2.61-1.12a.37.37,0,0,1-.2-.16l-1.25-2.09a1.05,1.05,0,0,0-1.17-.62,2.85,2.85,0,0,1-1.09-.11c-1.38-.31-2,.09-2.27,1.73a2,2,0,0,1-.85,1.35,5.39,5.39,0,0,0-1.73,2.73,1.6,1.6,0,0,1-.68.7,1.72,1.72,0,0,1-2.24-.17c-.11-.09-.39-.14-.43-.07-.52.91-1.23.59-1.9.57-.14,0-.36,0-.42.07a15,15,0,0,0-1.33,2.21,2.36,2.36,0,0,0,.1,1.37c.21.73.57,1.38.74,2.12a1.76,1.76,0,0,1-.29,1.12,14.71,14.71,0,0,1-1.6,2.16,18,18,0,0,1-1.56,1.12,5.46,5.46,0,0,0-.93,1.14c-.09.13,0,.41,0,.61-.19.48-.39,1-.59,1.51s-.37,1.1-.61,1.61c-.72,1.57-.43,3.19,1.32,3.91a4.76,4.76,0,0,0-1.72,4.5c-1.84.25-2,2-2.42,3.66-.67-.43-1,.21-1.54.45a10.18,10.18,0,0,1-2.2.54,4.51,4.51,0,0,0-1,.28,4.79,4.79,0,0,0-.87.69c-.09.08-.15.27-.23.28-1,.12-1.29,1-1.73,1.84-.09.16-.4.33-.53.27a2.06,2.06,0,0,1-1.31-1.21,2.81,2.81,0,0,0-1.6-1.86,2.14,2.14,0,0,0-2.21.71.89.89,0,0,1-.53.2c-.71,0-1.43,0-2.13,0,0-.65,0-1.45,0-2.24s-.16-1.55-.25-2.45a4.62,4.62,0,0,1-.53.09,1.2,1.2,0,0,1-.35-.07l.12-.41a5.54,5.54,0,0,0,.25-1.19c-.43.29-.35,1.2-1.13,1a11,11,0,0,1,.51-2.77,13,13,0,0,0,.45-2.6,10.44,10.44,0,0,0-.51-5.41,3.9,3.9,0,0,1,.11-1.27,1.08,1.08,0,0,0,0-.35c-.1-.4-.23-.79-.37-1.24l-.19.07a4.32,4.32,0,0,0-.28-.59,6.28,6.28,0,0,0-.48-.57c.39-1.12,1.28-1.18,2-1.51,0-1.1.71-1.87,1.5-1.36a2.32,2.32,0,0,0,2.29-.05c1.24-.5,2.43-.2,3.64-.33a4.69,4.69,0,0,0,1.22-.25,3,3,0,0,1,1.7-.4c.27.05.59-.15.89-.2a3.33,3.33,0,0,1,1,0c1.14.18,2-.76,2-2.12,0-1.07.1-2.15,0-3.21a21.23,21.23,0,0,0-.46-2.54l.21-.16.78.83c.16-1.11-.63-1.2-1-1.46l-.39-2.24a2.57,2.57,0,0,1-2.14-1.1c-.08-.09-.05-.32-.09-.48a3.4,3.4,0,0,0-.2-.64c-.24-.49-.86-.49-1-1.13-.05-.17-.58-.11-.89-.16-.61-.09-1.22-.18-1.84-.25a8.12,8.12,0,0,0-1,0l-.34-.37c.09-.21.27-.51.24-.55-.24-.28-.19-1.07-.89-.59.09-1,.73-.94,1.15-1.21s.76-.43,1.13-.68.8-.29,1.1.17.45.57.88.05c.26-.31.8-.28,1.22-.41l.81-.24-1.28-3.23.83-.4c.11.86.53,1.07,1.23.84s1.51.16,1.92-1c-.37-.34-.34-.73.08-1.09a10.4,10.4,0,0,1,.83-.7,2,2,0,0,0,.94-2.45c-.27-1.37-.23-1.49.81-2.22a2,2,0,0,0,.61-.5,3.58,3.58,0,0,1,2.89-1.71,9.49,9.49,0,0,0-.54-1.09,1.53,1.53,0,0,1-.1-1.53,3.67,3.67,0,0,0,.27-1.3,2.63,2.63,0,0,1,.65-2.29c.27-.24.29-.87.55-1.15.63-.67,1.28-1.46,2.26-1,.11.05.27,0,.54-.1-.48-.45-.82-.86-.23-1.4s1.06-.5,1.46.2c.37-.29.37-.29.49-1.68l.81-.38-1-1.48c.36-.28.28-.57-.11-1a11.31,11.31,0,0,1-.89-1.72,1.7,1.7,0,0,0-.64-.71c-.39-.18-.63-.34-.52-.93a1.63,1.63,0,0,0-.21-.83c-.21-.47-.46-.92-.77-1.53h1l.24-1.06.55.38.12-.19a.8.8,0,0,0-.07-.28c-.49-.6-.14-.93.31-1.27s.8-.23,1,.31.37,1,1,.59c.07,0,.26.22.39.35-.12.16-.24.46-.35.46-.57,0-.53.42-.43.79.16.61.25,1.15-.3,1.61-.06.05,0,.23-.07.35a3.2,3.2,0,0,0,1,2.66c.09.06.24.08.28.17.18.42.22,1,.85.75a10.39,10.39,0,0,1,1.3-.31l-.21,1a1,1,0,0,0,1.4-.59,2.49,2.49,0,0,1,.33-.56,7.68,7.68,0,0,0,.59-.83,1,1,0,0,1,1.34-.57,2.36,2.36,0,0,0,3-.83c.48-.58,1-1.13,1.46-1.7a1.84,1.84,0,0,0,.35-.58,6.85,6.85,0,0,1,1.94-2.91.71.71,0,0,1,1.17,0c.57.62,1,.69,1.5,0,.81-1.12,2-1.5,2.94-2.24a12.82,12.82,0,0,1,1.55-1c.51-.28.7-.57.4-1.2s-.63-.9-1.18-.68c-.72.29-1.45.51-2,.71-.68-1.43-1.34-2.69-1.9-4a6.45,6.45,0,0,1-.19-1.54,6.22,6.22,0,0,1-.16-.73,3.75,3.75,0,0,1,.1-1.53,1.36,1.36,0,0,1,2.25-.27c.38.36.82.57,1.17.13a1.64,1.64,0,0,0,.41-1.79,7.93,7.93,0,0,1-1.25-2.8c0-.33-.3-.44-.58,0-.13.2-.65.36-.68.29-.17-.31-1-.09-.48-.9a1,1,0,0,1-.62-1.47,12.81,12.81,0,0,1,.84-1.54c.73-.94,1.42-1.93,2.64-2.11.54-.08,1.06-.63,1.58-1,.23,1.1,0,2.33.84,3.12a7.11,7.11,0,0,1,1,1.3,1,1,0,0,1,.12.57c-.05.68.23,1,.76,1.07.32,0,.46.19.62.57s.71.78,1.11,1.12a2.08,2.08,0,0,0,.63.38c.37.14.2,1.11.86.76.37-.19.71-.47,1.09-.62a.61.61,0,0,1,.6.09c.31.35.51.37.68-.15s.53-.95,1.12-.92.93,0,1.14.69a2.5,2.5,0,0,0,.8,1.27,5.35,5.35,0,0,0,2.08,1c.46.08.84,0,1,.77.65-1,1.28-.38,2-.28a4.07,4.07,0,0,0-.09.67c0,.64-.2,1-.77,1.06a.93.93,0,0,0-.58.55c-.06.17.14.51.3.68.45.48.93.92,1.41,1.35.18.17.42.41.61.38s.79-.32.8-.47c0-1.43,1.12-1.88,1.75-2.74.1-.14.48-.13.65,0a5.37,5.37,0,0,0,1,.65c.17.32.29.73.54.92a1,1,0,0,0,.93.17c.65-.35,1.25-.73,1.9-.19a2.17,2.17,0,0,1,.39.37c.48.66.71.65,1.25-.06.06-.08.15-.19.21-.18,1,0,1.35-.86,1.72-1.67.22-.47.4-.43.71-.26.53.28,1,.32,1.48-.37a4.82,4.82,0,0,1,1.77-1c.5-.26,1-.48,1.54-.74.53.26.74.7.64,1.54,0,.41.37,1.19.68,1.24.94.16,1.09,1.06,1.49,1.82-.11.15-.2.39-.34.46-.94.43-1,1.46-1.13,2.34a3.78,3.78,0,0,0,.39,1.45c-.39.84-.76,1.67-1.17,2.47s-.84,1.55-1.22,2.35a12.76,12.76,0,0,0-.37,1.27,1.07,1.07,0,0,1-.42.54,7.37,7.37,0,0,0-.12,1,1.34,1.34,0,0,0,.15.78,3.24,3.24,0,0,0,.94.65c1.39.7,1.49.65,2.31-1a5.59,5.59,0,0,1,.6-.79l.39,1.32c-.34.26-.72.52-1.08.82-.17.14-.42.37-.42.54a3.42,3.42,0,0,1-.65,1.85,3.81,3.81,0,0,0-.3,1.17c-.06.31,0,.7-.17.91a1.74,1.74,0,0,1-.83.55c-.09,0-.28-.29-.38-.48-.23-.47-.32-1.18-1-1a16.62,16.62,0,0,0-2,.72l1.14-3c-.48-.66-.72-.67-1.42,0a8.4,8.4,0,0,0-.76.91c-.49.65-1.09.67-1.46.1l.6-.76-.11-.18c-.46.11-1,.7-1.42-.15v.9c-.25.29-.58.66-.9,1a1.48,1.48,0,0,0-.35,1.4,3.59,3.59,0,0,1-.32,2.77,4.94,4.94,0,0,1-.52.55,4.6,4.6,0,0,1,.71.82,5.48,5.48,0,0,1,.66,1.62c.09.52-.54.81-1.29.39a16.73,16.73,0,0,0,.4,1.68c.4,1.1.84,2.18,1.25,3.28a.59.59,0,0,1-.08.47,1.45,1.45,0,0,0-.35,1.88,2.53,2.53,0,0,1,.11,1.91,2.31,2.31,0,0,0,0,.41,2.16,2.16,0,0,1,2,1.12c.3.54.94.55,1.51.41a3.31,3.31,0,0,1,.78-.18,1.64,1.64,0,0,1,.58.25c-.15.21-.29.56-.46.59-.93.19-1.34,1.17-2,1.8a.45.45,0,0,0-.09.21c-.16.75-.31,1.5-.46,2.25Z" fill="#fff"/><path d="M173.49,88.8a4.54,4.54,0,0,1,.27,1.29c-.06.61.1,1,.54,1.14s.47.43.38.9a6.31,6.31,0,0,0-.06,1.23,3.91,3.91,0,0,1-.84,2.31s-.09.06-.1.1c-.2.84-.39,1.68-.6,2.52a6.19,6.19,0,0,1-.27.72l-.15-.07a2.64,2.64,0,0,1,.33.92c0,.26-.28.52-.41.73.21.59.45,1.19.63,1.82a11.33,11.33,0,0,0,.14,1.17,19.07,19.07,0,0,0,1.24,2.5c.13.21.73.32.81.2.3-.44.47-.07.67,0,.45.18.88.42,1.32.63s.64,1,.2,1.8c-.14.26-.32.5-.46.71l-1-1c.15,1.67-1.4,1.24-1.55,2.42,0,0,.17.05.23,0a1.51,1.51,0,0,1,1.57-.36c.24.09.65-.33,1-.53.15-.09.3-.2.63-.43l-.33,1.24-.55-.21A2.18,2.18,0,0,1,176,113l.57.08c.54,2.67,2,5,1.57,8.09-.22.11-.54.24-.84.4-1.21.64-1.46,1.45-.92,2.85a.69.69,0,0,1-.07.55,6.89,6.89,0,0,1-1.23.82c-.14.07-.51-.12-.51-.2,0-.72-.48-.92-.83-1.25s-.33-1-.34-1.55c0-.21-.11-.54-.23-.59-1.29-.49-1.9-1.9-2.86-2.84-.13-.13-.11-.47-.15-.72-.14-.95-.4-1.15-1.21-.92l-.8-2.14c-.65-.06-1.07,0-1.44-2.12a1.18,1.18,0,0,0-.25,1.62,2,2,0,0,1,.26.74c.07.87-.07,1-.78.89-.47,1.51-.62,3.17-1.72,4.35-.54.57-1.09.87-1.81.37-.43-.3-1-.23-1.54-.44a1.21,1.21,0,0,1-.59-.74c0-.15.33-.47.44-.62l.08-2.5-1.26,1.28-.28-.23a2.41,2.41,0,0,0,.33-.34c.21-.32.4-.66.62-1l-.39-.14.47-2.28c-.71,0-.5.81-.77,1.18l-.39-.37-.38.66c-.2-1,0-2.1-1-2.48l2.48-1.43c-.9-.4-1.55.9-2.56.52l.6-.56-.88-1.11a2.79,2.79,0,0,1,.61-.56,2.3,2.3,0,0,1,.8-.11v-.26l-1.28,0c-.09-.71.4-.68.64-.92l1-1.38-.53-.38,1.38-.35.09-.2-1.18-.74,1.5-.71,0-.27.39.46.16-.17c-.38-.37-.16-.79-.12-1.2s0-.59.41-.74c.22-.08.34-.63.55-1.07.59,1.49,1-.09,1.42-.05a8.75,8.75,0,0,0,.42-1.38,4.19,4.19,0,0,0-.17-1.1c-.37.35-.61.53-.53,1.15.05.41-.35.93-.55,1.4l-.24,0-.09-.77-.4.22c0-.1,0-.17.06-.24.05-.24.08-.49.16-.73.19-.64.38-1.29.62-1.91,0-.1.35-.07.67-.13,0-.26-.07-.53-.1-.8a1,1,0,0,1,0-.4,4.51,4.51,0,0,1,.58-1.45c.58-.75-.17-1.13-.37-1.65a1.47,1.47,0,0,1,.29-1.4l-.39-.49c.17-.63,1.2-.4,1-1.39l-1,.34c0-.61,0-1.21,0-1.8a2.88,2.88,0,0,1,1.28-1.74c.15,0,.26-.25.4-.38l-.13-.19-1,.21-.06-.11.89-.75-.36-.46a2.32,2.32,0,0,1-.1-.91c.07-.22.4-.35.69-.58l.1-1-.53-.48.88-.12.25-.94-1.14.53-.22-.12c1.19-.94.35-2.16.81-3.24l1.2-.49c-.05-.6-1.31-.41-.72-1.56l.43.73L166,78l-.08-1.26.08,0,.44,1.48h.14l.24-2.66.8.24c.07-.6-.76-1.16.06-1.69l.88.27.16-.12c-.79-.93-.41-1.86.08-3l-.74-.13,1-.75c.15.71.25,1.33.41,1.93.05.2.25.33.38.49a2.45,2.45,0,0,0,.18-.71c0-.6-.15-1.2-.23-1.8l.18-.1.65.81c.53-.68.17-1.38,0-2s-.2-.8.57-.92c-.11.56-.29,1.17.3,1.43.16.07.38,0,.62-.06a4.42,4.42,0,0,1-.18-.62c0-.36-.58-1.06.42-.76.33.1.77-.23,1.16-.31a3.62,3.62,0,0,1,.7,0c0,1.24-.76,1.71-1.63,2.27.77.09,1.34.19,1.92.21.14,0,.31-.27.43-.44.27-.38.47-.31.48,0a17.31,17.31,0,0,0-.47,1.77,15.92,15.92,0,0,0-.12,1.71,8,8,0,0,1,.51,1,1.24,1.24,0,0,0,1.38.92,1.58,1.58,0,0,1,1.77,1.5,8.11,8.11,0,0,0,.09,1.08,1.4,1.4,0,0,0,.36.76c.6.45,1.25.81,1.86,1.23a1.73,1.73,0,0,1,1,1.36,5.07,5.07,0,0,0,1,2c.15.22.55.19.89.28.11.56.41.94,1,.9.45,0,.64.39.58.83-.13.95.4,1.08,1,1.18a5.86,5.86,0,0,0,.86,0,1.54,1.54,0,0,1,1.6,1.83c-.1,2.69.08,5.4-.52,8.07a3.49,3.49,0,0,1-.69,1.17c-.6.82-1.25,1.59-1.83,2.42s-1,1.58-1.51,2.33-1.1.79-1.47.34c-.62,0-1.14.1-1.66.1-1.1,0-1.25-.17-1.54-1.47a4.23,4.23,0,0,0-1.18-2.22A10.07,10.07,0,0,1,177,97.08a1.68,1.68,0,0,1-.1-.74c0-.42,0-.84,0-1.35.42-.19.55-.58.46-1.23a8,8,0,0,1,.17-1.64c.11-1.29.18-2.59.32-3.88a2.31,2.31,0,0,1,.45-1,2.23,2.23,0,0,0-2.2-2.19c-.23,0-.45.32-.68.48l-1.65,1.06Z" fill="#fff"/><path d="M243.1,149.65c0,.62,0,1,0,1.43s.09.82-.43.83c-.12-.22-.2-.56-.35-.59-.78-.15-.6-.82-.45-1.37s0-.87-.4-1-.63.23-.69.7a3.61,3.61,0,0,1-.15,1,1.31,1.31,0,0,1-.65.66c-1.45.42-1.79,1-1.84,2.7a3.28,3.28,0,0,1-.47,1.47c-.33.57-.81,1-1.19,1.55a1.3,1.3,0,0,1-1.56.53c-1.45-.43-2.71.23-3.91,1.2-.1.08-.12.43-.08.61.1.47.26.92.38,1.34-.27.4-.54.75-.76,1.14a1.38,1.38,0,0,1-2.2.44c-.07-.08-.15-.29-.19-.28a19.37,19.37,0,0,0-1.79.87c-.08,0-.05.42-.07.64l-.37-.26.19-1-1.88,1.67.15,0,.39-.79-.31-.22a1.8,1.8,0,0,0-.69-.06c-.52.16-.71-.25-.74-.65-.08-.8-.46-.89-1-.74l-1.37.37-.56-1.06.79.56,1-1-1.11-.07.15-1c-.35-.24-.74-.37-.94-.68a4.77,4.77,0,0,1-.29-1.37l-1.34,1.47c-.81-.88-.5-2-.19-3,.15-.49.48-1.26,1.23-1.18.22,0,.49-.2.7-.39.74-.65,1.46-1.32,2.17-2a3.25,3.25,0,0,0,.39-.59l-.11-.15-.53.15-.12-.14,1.66-1.9-.07-.18-.75.43c-.16.09-.33.28-.46.25a4,4,0,0,1-.79-.4,6.71,6.71,0,0,1,.6-.7c.47-.41.95-.8,1.43-1.18a6.09,6.09,0,0,1,.89-.56c.84-.44,1.06-.8,1.11-1.89a.89.89,0,0,1,0-.23,19.7,19.7,0,0,1,2.1-4.65c.38-.58,1.06-.89,1.57-1.37s1.16-.69,1.15-1.66a4.08,4.08,0,0,0,.85.39,1,1,0,0,0,1.15-.58c.22-.44.43-.68.87-.25s1,.19,1.29-.45A.71.71,0,0,1,235,136c1.23,0,2.11-1.09,3.12-1.72.24-.15.39-.57.55-.88a3.43,3.43,0,0,1,1.51-1.73,3.27,3.27,0,0,0,1.53-2.36,13.43,13.43,0,0,1,.62-2.16,7.35,7.35,0,0,1,1.14-1.33c.26-.31.48-.66.72-1l-.11-.18a23.45,23.45,0,0,1,2.45-.15,1.2,1.2,0,0,1,.85.56c.74,1.18,1.16,1.27,2.25.44.21-.16.74-.2.77-.1a2.4,2.4,0,0,1,.22,1.43c-.26.59-.2.73.26.94a5.93,5.93,0,0,1,1.35.93c.48.42,1.1.72,1.2,1.6,0,.12.42.27.6.2a.68.68,0,0,1,.92.29,4.47,4.47,0,0,0,.62.61l.16-.26-.31,1.39c-.15-.1-.28-.13-.35-.23-.27-.4-.48-.16-.7.11l-1.23,1.43c-.46.53-1.24.85-.92,1.92-.58,0-.77.46-1,1a4.91,4.91,0,0,1-1.2,1.81,4.42,4.42,0,0,0-1.34,2.33,6.43,6.43,0,0,1-2,3.28,1,1,0,0,1-.54.29c-.76,0-1.13.43-1.42,1.27s-.65,1.76-1.64,2c-.58.13-.68,1.27-.2,1.73A.82.82,0,0,0,243.1,149.65Z" fill="#fff"/><path d="M148.5,137.39a5.21,5.21,0,0,0-1,.85c-.27.38-1-.6-.88.49l-1-.31c.15-.58.35-1.26.49-2a.82.82,0,0,0-.11-.62c-.45-.37-.33-.79-.14-1.39l-.91.51.15-.71-.71.22.23-1.21a3.58,3.58,0,0,0,.09-1.19,7.45,7.45,0,0,1-.44.61,1.79,1.79,0,0,1-.37.26c-.07-.17-.23-.35-.2-.5a12.21,12.21,0,0,1,.36-1.38c.21-.69.09-1-.34-1.1l-.08-1.24.63-.38.22-2.53c1,.45,1.81-.56,2.72-.74.35.85-.31,1.33-.66,1.8a3,3,0,0,0-.5,2l3.12-1c.43-.14.63.1.55.55a19.12,19.12,0,0,1-.58,2.51,10.06,10.06,0,0,1-.79,1.54l.65.29-1.69,1.33c.56-.05,1.1.09,1.36-.16a.87.87,0,0,1,1.28,0,4.24,4.24,0,0,1,1.1,1.35c.35.61.56,1.33.87,2a1,1,0,0,0,.58.55,2.18,2.18,0,0,1,1.76,1.74,3,3,0,0,0,.52.78h-.66c.49.44.87.74,1.19,1.1s.2,1-.13,1.48c.39.41.63.51,1-.07a1.34,1.34,0,0,1,1.23-.44,1.46,1.46,0,0,1,.95,1,3.18,3.18,0,0,1-.84,2.71c-.15.16-.14.51-.23.91l-.54.43c.55.58,1.15.23,1.76.22.13.77-.48,1.07-.79,1.46a3.06,3.06,0,0,1-1.8,1c-1.15.29-2.43.38-3.36,1.58-.15.2-.58.1-.89.13a4.32,4.32,0,0,0-.89.11,1,1,0,0,0-.78,1.19,2.05,2.05,0,0,1-.17.66,1.92,1.92,0,0,0-2.67,1.37l-.43-.31c.29-.53.59-1,.84-1.55a7.31,7.31,0,0,0,.51-1.28,2,2,0,0,1,1.39-1.46c1.15-.15,1.4-.41,1.85-2.16-.45.42-.75.74-1.09,1a1,1,0,0,1-.69.25c-.45-.14-.86-.45-1.31-.59-.25-.08-.55.08-.83.1s-.53.09-.66,0a.44.44,0,0,1,.16-.74c.16-.09.27-.3.42-.4,1-.7,1.24-1.36.62-3.16l-.74.4c.13-.28.27-.61.43-.91a1.82,1.82,0,0,1,1.6-.94c.67-.07.69-.13.48-.85a5.65,5.65,0,0,1-.05-1.59,7.22,7.22,0,0,1,.13-.9C148.41,140.12,148.23,139.73,148.5,137.39Z" fill="#fff"/><path d="M123,102.81l.52.59.34-2.17.72,1.29c.46-.45.11-1.55,1.06-1.39l.6,1.35.16,0-.13-1.3.12-.09.65.78.51-.71c.8.12.92,0,1-1.1.43-.2.59.07.68.51s.36.6.91.11c-.49.78,0,.81.28,1l-.2.76,1.25.79.08,1.61-.33.07.14.13-.6,1c0,.06-.15.09-.15.15-.16,1.09-.9,1.29-1.62,1.57-.24.09-.43.39-.66.56-.41.31-.82.61-1.25.87s-1.1.17-1.36,1a1,1,0,0,1-.9.4c-.81-.25-1.73-.27-2.29-1.23a1,1,0,0,0-1.23-.57,2.19,2.19,0,0,1-1.34-.21,5.67,5.67,0,0,0,.73-.35c.41-.27.87-.51.47-1.22-.07-.13.09-.45.15-.74l-.45.07c-.12-1.61-1.24-1-2-1.27.73-.11,1.47-.2,2.2-.34a3.31,3.31,0,0,0,.71-.32l-.07-.26-.72.07-.06-.15.81-.65c-.62-1.35-1.58-.68-2.46-.47l-.07-.18.76-.59.09-1.48.18,0,.91,1.21c.37-.68.21-1-.29-1.31l.72-.18-.86-.64c.34.05.58,0,.66.12a10.44,10.44,0,0,1,1,1.73c.07.17-.21.58-.36.94l.42,1.65Z" fill="#fff"/><path d="M140.63,140.29l-.9.07a6.43,6.43,0,0,1,.37-1.14,1.55,1.55,0,0,1,.66-.65c.13-.06.36.19.66.38l.44-1.11.32.16a1.23,1.23,0,0,0-.27.3c0,.09,0,.23,0,.35s.26,0,.35-.09.19-.34.31-.39c.35-.13.89-.42,1-.25a6.45,6.45,0,0,1,.8,1.56l-.16.18.37,0a2.75,2.75,0,0,0,0,.54,1.22,1.22,0,0,1-.64,1.42.67.67,0,0,0-.3.94,6.61,6.61,0,0,1,.36,5.08,2.18,2.18,0,0,0,0,.62c-1.33-.3-2,1.34-3.25,1.73a2.11,2.11,0,0,1-2,1.36l.05-.6-.65.25.32-.59-1,.05.63-1-.89,0v-.19l.89-.13c-.12-.93.5-1.17,1.27-1.53l-.81-.13c.35-.61-.05-1.65,1-1.75l-.06-.23-2.06-.67.73-1.34a5.9,5.9,0,0,1-.42-.83c-.18-.52.14-.89.47-.71.58.32,1.09-.17,1.56-.07Z" fill="#fff"/><path d="M198.17,177.3c0,.89,0,1.73,0,2.58,0,.2,0,.49.14.56.7.45.7,1.17.51,2a1.54,1.54,0,0,1-1.65,0c-.27-.18-.7,0-1.06,0-.61,0-1.21-.09-1.81-.1a4.86,4.86,0,0,0-1.29.09c-.52.13-.8,0-.86-.64s0-1,.62-.79c.08,0,.29-.13.31-.23.13-.77.58-.67,1-.58,1,.21,1.59-.72,2.32-1.2A13.78,13.78,0,0,0,198.17,177.3Z" fill="#fff"/><path d="M179.92,177c1.33-.08,1.41-1.37,2-2.16.88.15,1.24,1.06,1.73,1.78.06.09,0,.34-.06.52a1.92,1.92,0,0,0,0,.59c.28,1.06.58,2.12.91,3.31a3.57,3.57,0,0,0-.68,0c-.36.1-.71.21-.57.83a.71.71,0,0,1-.13.55.67.67,0,0,1-.53,0c-.74-.26-.73-1-.84-1.78a4.54,4.54,0,0,0-1.4-3.06A3.63,3.63,0,0,1,179.92,177Z" fill="#fff"/><path d="M237.2,161.12a15.8,15.8,0,0,1,1-2.39,15.59,15.59,0,0,1,1.67-1.94c0,.31-.41,1,.52,1.17-.64,1.09-1.17,2.14-1.82,3.07C238.13,161.7,237.83,161.64,237.2,161.12Z" fill="#fff"/><path d="M180.72,169.3a8,8,0,0,1,.86,4.62c-.69.31-.89-.3-1.17-.76s-.55-.57-.61-.92a3.1,3.1,0,0,1,.09-1.51c.13-.36.53-.6.85-.94Z" fill="#fff"/><path d="M223.29,171.6l.36.56.88-1.18.18.12a1.8,1.8,0,0,1-.24.56c-.65.63-1.31,1.24-2,1.84-.16.14-.39.37-.52.32-1-.38-1.68.49-2.5.8-.2.08-.58.14-.62,0a.54.54,0,0,1,.39-.79l1-.22c.08,0,.19,0,.25,0Z" fill="#fff"/><path d="M171.48,126.7l.4-.89,1.17.3-.5-1.33.55-.48c.25.65.57,1.15.23,1.87-.07.15.18.49.25.66l-.59.84A1.12,1.12,0,0,1,171.48,126.7Z" fill="#fff"/><path d="M168.57,185.88c.46-.68.89-1.71,2-.85,0,.14-.08.39-.11.64-.08.63-.44.66-.82.57S168.94,186,168.57,185.88Z" fill="#fff"/><path d="M213,164.67a3.54,3.54,0,0,1,.63-.09c.34,0,.7.19,1,.08a1,1,0,0,1,1.48.67l-3.1-.3Z" fill="#fff"/><path d="M180.56,113.36c-.23,1.09.78,1.94,0,2.86C179.71,115.21,179.63,113.88,180.56,113.36Z" fill="#fff"/><path d="M169.68,128.37c.41-.57,1.22-.78,1.43-.33a1.2,1.2,0,0,1,0,.94C170.8,129.38,170.08,129.05,169.68,128.37Z" fill="#fff"/><path d="M167.69,123.07a3.64,3.64,0,0,1,.08-1,4.23,4.23,0,0,1,.56-.87,5.39,5.39,0,0,1,.48.9,2.33,2.33,0,0,1,0,.74l-1.13.19Z" fill="#fff"/><path d="M184.62,109.43a1.14,1.14,0,0,1,.24-1.94c.12-.08.34-.12.42,0a.62.62,0,0,1,.05.48,4.8,4.8,0,0,1-.33.68Z" fill="#fff"/><path d="M142.55,126.82c-.08.42-.14.85-.25,1.27,0,.15-.25.38-.3.36a2.52,2.52,0,0,1-.52-.37l1-1.37Z" fill="#fff"/><path d="M218.85,159.41l-.66.75c.32-1.07.48-1.2,1-1a1.44,1.44,0,0,1,.34.26l-.22.36-.35-.3Z" fill="#fff"/><path d="M226.76,166.3a1.28,1.28,0,0,1-.06-1.77h.22Z" fill="#fff"/><path d="M167.69,123.07l0,0c-.11.16-.2.41-.33.46a2,2,0,0,0-1.21,1.65,1.42,1.42,0,0,1,.66-1.57Z" fill="#fff"/><path d="M164.1,79.16c.61.5.06.84-.19,1.19C163.55,79.91,163.59,79.68,164.1,79.16Z" fill="#fff"/><path d="M142.3,130.16l.53-.47.4,1.11-.09.13Z" fill="#fff"/><path d="M173.34,129c-.41.75-.8.76-1.15,0Z" fill="#fff"/><path d="M218.14,154.69l-.63,1.55c-.23-.41,0-.95.63-1.55Z" fill="#fff"/><path d="M162.9,82.1c.16.41.29.7.39,1a.9.9,0,0,1,.05.36s-.17.13-.17.11a1,1,0,0,1-.2-.39C162.93,82.86,162.93,82.54,162.9,82.1Z" fill="#fff"/><path d="M298,172.52s-2.29,19.66,8.12,23.47,16-6.1,16.13-23.47" fill="#06577a"/><ellipse cx="310.13" cy="172.52" rx="12.12" ry="7.01" fill="#f2696a"/><path d="M313.23,156.93s-4.76-6.87-2.68-11.62c0,0,1.71-3.05,4.14-3.54,0,0-.24,6.51,2.18,5.68s0-6.82,0-6.82,2.55-3.45,5.34-3.34,0,6.09,1.94,5.1.12-6.08,2.3-6.69a45.82,45.82,0,0,1,6.06-1s2.06,5.94,0,6.79-5.09,1.14-3.64,2.45,5.58-.2,5.58-.2.26,3.34-1.14,4.79-9.65-1.75-8.19,1.12,6.91,1.43,6.91,1.43-2.79,4-6.06,5.8S313.23,156.93,313.23,156.93Z" fill="#8ccc00"/><path d="M314.35,174.12s-3.44-3.39-2.76-6.31a4.46,4.46,0,0,1,2-2.45s.56,3.72,1.85,3-.73-3.87-.73-3.87,1.08-2.23,2.67-2.47.65,3.46,1.65,2.69-.58-3.47.59-4a26.47,26.47,0,0,1,3.34-1.2s1.8,3.15.72,3.86-2.77,1.19-1.8,1.78,3.15-.71,3.15-.71.5,1.87-.14,2.84-5.66,0-4.53,1.51,4.08.08,4.08.08a12.91,12.91,0,0,1-2.82,3.94C319.91,174.14,314.35,174.12,314.35,174.12Z" fill="#8ccc00"/><path d="M301.7,166.79s-8.35.32-11.24-4c0,0-1.65-3.08-.76-5.39,0,0,5.36,3.7,6,1.21s-5.75-3.66-5.75-3.66-1.54-4,0-6.29,5.14,3.27,5.34,1.1-5.07-3.37-4.4-5.54a45.82,45.82,0,0,1,2.44-5.64s6.12,1.45,5.73,3.65-1.78,4.91.11,4.38,2.83-4.81,2.83-4.81,3,1.58,3.42,3.54-6.66,7.2-3.46,7.51,4.92-5.06,4.92-5.06,1.86,4.49,1.64,8.23S301.7,166.79,301.7,166.79Z" fill="#8ccc00"/><path d="M330.7,137.37,328,139.65c.09-.95.2-1.89.35-2.83.08-.5-.68-.71-.76-.21q-.3,1.89-.45,3.79c-2.34,2.05-4.66,4.2-6.83,6.48a28.17,28.17,0,0,1-.14-4.82c0-.51-.76-.51-.79,0a29,29,0,0,0,.23,5.57,54.59,54.59,0,0,0-3.88,4.69,15.64,15.64,0,0,1-2.7-6.3c-.09-.5-.85-.29-.76.21a16.17,16.17,0,0,0,2.92,6.68.4.4,0,0,0,.08.07,30.5,30.5,0,0,0-6.06,16.83c0,.51.77.51.79,0a29.64,29.64,0,0,1,5.81-16.25,30.43,30.43,0,0,0,9.78,1c.5,0,.51-.82,0-.79a29.82,29.82,0,0,1-9.29-.86,57.24,57.24,0,0,1,5.5-6.38l.07,0c1.84.16,3.68.33,5.53.39a6.75,6.75,0,0,0,3.43-.4c.45-.23.05-.91-.4-.68-1.27.64-3.05.3-4.42.22-1.17-.07-2.34-.17-3.51-.27,2.81-2.79,5.83-5.38,8.74-7.84C331.65,137.6,331.09,137,330.7,137.37Z" fill="#06577a"/><path d="M306.24,152.73a.39.39,0,0,0-.76-.21,14,14,0,0,1-5.06,7.28q-1.34-3.72-2.45-7.53a23.57,23.57,0,0,0,4.63-6.53c.22-.46-.46-.86-.68-.4a23,23,0,0,1-4.21,6c-.82-2.9-1.55-5.84-2.16-8.8-.1-.5-.86-.29-.76.21q1.26,6.08,3.11,12a18.51,18.51,0,0,1-4.31-1.41c-.46-.22-.86.46-.4.68a19.36,19.36,0,0,0,5,1.59h0c.83,2.6,1.77,5.16,2.76,7.7a19.08,19.08,0,0,1-6.86-1.51c-.46-.2-.86.48-.4.68a20.13,20.13,0,0,0,7.57,1.63q1.9,4.74,4.18,9.34c.23.45.91.06.68-.4a123.17,123.17,0,0,1-5.41-12.53h0A14.84,14.84,0,0,0,306.24,152.73Z" fill="#06577a"/><path d="M320.54,162.93l-2.17,3.64a6.81,6.81,0,0,1-.69-1.14c-.22-.46-.9-.06-.68.4a7.52,7.52,0,0,0,.91,1.44l0,0-2.35,3.95a1.61,1.61,0,0,1-.48-.95c-.06-.5-.85-.5-.79,0a2.48,2.48,0,0,0,.87,1.62l-2.94,4.94a.39.39,0,0,0,.68.4l3.88-6.51a5.9,5.9,0,0,0,1.92-.29c.48-.16.27-.92-.21-.76a5.25,5.25,0,0,1-1.22.23l3.93-6.6A.39.39,0,0,0,320.54,162.93Z" fill="#06577a"/></g></g></svg>