<svg id="Layer_1" data-name="Layer 1" xmlns="http://www.w3.org/2000/svg" xmlns:xlink="http://www.w3.org/1999/xlink" viewBox="0 0 400 300"><defs><linearGradient id="linear-gradient" x1="140.91" y1="239.93" x2="287.56" y2="128.65" gradientUnits="userSpaceOnUse"><stop offset="0" stop-opacity="0"/><stop offset="1" stop-color="#006837"/></linearGradient></defs><title>1</title><path d="M165,97.55l-2.54,12.25s-5.84,5-4.84,6.13,3.33-1.21,3.33-1.21-3.72,3.36-1.8,6.52,5,3,5.85,1.72S167,111.63,167,111.63l6.87-17.24" fill="#ffc6b2"/><path d="M165,97.55l8.94-3.16s2.69-17.43,4-23.85c2-10-.36-14.1-.36-14.1s4.71-9.32.92-10-9.25,14.49-9.95,22.22S165,97.55,165,97.55Z" fill="#ffc6b2"/><path d="M176.93,44.34s-9,4.34-9.9,24.19c0,0,9.48,1.85,13.58.84" fill="#68e1fd"/><ellipse cx="195.08" cy="219.45" rx="137.49" ry="63.52" fill="#9abb38"/><path d="M232.77,158.28a111.51,111.51,0,0,0-15.13,6.54c-8.76,4.52-19.7,11-23.07,20.91-3,8.68,3.26,16.68,10.78,20.38,8,4,17.51,5,26.29,6,15.51,1.78,36.26,1.1,49.06,11.54,5.08,4.15,8.38,11,7.14,17.59-1.45,7.74-8.93,11.78-15.49,14.72-6.22,2.78-20.72,6.54-20.74,15.48a7,7,0,0,0,2.52,5.29c46.39-10.21,78.45-32.06,78.45-57.38C332.57,190.34,290.38,165.85,232.77,158.28Z" fill="#c6d844"/><polygon points="164.16 200.54 94.89 242.17 135.16 266.55 199.66 228.03 209.61 209.38 186.23 193.37 164.16 200.54" fill="url(#linear-gradient)"/><path d="M194.06,131.66s3,24.92,4.76,31.3,3.25,46.42,3.25,46.42,5.36,3.83,9.95,0c0,0,2.42-32.44,1.14-41.11s0-42.81,0-42.81" fill="#ffc6b2"/><path d="M176.52,124.47s-.61,18.39,0,24.45,3.23,44.45,3.23,44.45,4.44,3.84,8.89,0c0,0,2.93-19,2.58-22.63s-1-49.5-1-49.5" fill="#ffc6b2"/><path d="M205.39,92.31s8.93,11.22,7.65,38c0,0-14,9.87-25.44,2.53l-6.55-43" fill="#f15a24"/><path d="M176.66,86.05s-5.82,31.37-5.73,42.27c.05,6.46,17.31,5.12,23.13,3.34s-2.85-48.28-2.85-48.28" fill="#f15a24"/><path d="M195.35,32.85c0,.1,22.2,20.1,15.52,27.28s-15.52-2.6-15.52-2.6l-2.79-22.77" fill="#f18f22"/><path d="M194.06,223.69a5.21,5.21,0,0,0,1,5.78c2.55,2.72,5.91,1.36,8.74,0s10.83-8.49,9.73-10.38-1.52-9.71-1.52-9.71" fill="#fff"/><path d="M201.95,206.28s-1.29,7.39-3.12,9.78-6.17,8.26-4.76,9.79,2.46-3,4.76-1.74,1.58,4.57,3.25,3.91,9.5-6.87,10.37-10.83-1.09-10.91-1.09-10.91" fill="#68e1fd"/><path d="M166,204.14s-.32,4.41,3.67,5.24,8.94-1.6,11.18-2.62,10.38-7.89,10.38-7.89l-1-9.58" fill="#fff"/><path d="M179.42,188.63s-2.39,5.93-6.7,8.17-7.67,6.55-6.71,7.35,3-2.08,4.15-1.28,1.11,4.29,2.47,3.42,4.24,1.37,8.23-1.34,2.71-3.83,6.07-5.11,3.35-10.54,3.35-10.54S181.82,191.16,179.42,188.63Z" fill="#68e1fd"/><path d="M206.35,51.47c-1.82-6.38-12.07-8.66-23.69-8.32a14.33,14.33,0,0,0-5.74,1.19c-4,5.87-3.15,13.89-2.53,20.63.7,7.57.82,21.07,1.37,26.11,10.44,5.39,26.82,1.83,29.62,1.23C205.39,92.31,208.18,57.85,206.35,51.47Z" fill="#68e1fd"/><polygon points="168.5 89.82 132.07 209.38 136.19 212.71 172.43 89.82 168.5 89.82" fill="#68e1fd"/><path d="M134.85,208h-3.68s-10.05,6.82-9.91,11.71.43,6.46,1.44,7.61,3.59,1.15,3.59,1.15" fill="#68e1fd"/><path d="M134.85,208h-3.68s-10.05,6.82-9.91,11.71.43,6.46,1.44,7.61,3.59,1.15,3.59,1.15" opacity="0.61"/><path d="M134.85,208s-11,8.69-10.72,12.42.14,7.61,2.15,8,9.91-15.8,9.91-15.8Z" fill="#68e1fd"/><circle cx="139.37" cy="222.66" r="5.46" fill="#fff"/><ellipse cx="250.4" cy="253.18" rx="13.34" ry="5.21" fill="#5f7020"/><path d="M251,118.36s-1.67,7.21,8.39,6.77S278,129.41,280.69,139c0,0-10.53-5.15-18.15,0s-11.6-2.46-11.6-2.46Z" fill="#68e1fd"/><path d="M249.56,119V257.06a1.38,1.38,0,0,0,2.75,0V119A1.38,1.38,0,0,0,249.56,119Z" fill="#606060"/><path d="M187.21,103.74c0-.64-1-.64-1,0l1.61,29.2c0,.64,1,.64,1,0Z" fill="#842e13"/><path d="M208.13,65.67l-.8-.25A71.21,71.21,0,0,1,197,66.79c-.28,7.18-1.78,14.08-6.79,19.67-5.93,6.62-11.81,11.18-18.81,16.69l3.57,7s22-12.83,26.58-18.65C210.38,80.42,208.13,65.67,208.13,65.67Z" fill="#ffc6b2"/><path d="M177.88,108.47l-5.47,3.33s-3.33,7.51-5.55,7.51-4.73-2.13-5.72-3.26,1.28-6.24,1.28-6.24-2.55.14-3.26-1.34,7.71-2,7.71-2l7.52-5.47" fill="#ffc6b2"/><path d="M199.78,45.75S210.39,45.62,211,69l-15.31,1.57-2.49-9.42" fill="#68e1fd"/><path d="M190.63,38.33l.58,6s-4.11,2.55-7.71.82L183,41.39" fill="#ffb39c"/><path d="M181.76,36.58c-9.38,1.09-8.65-6.5-8.65-6.5-1.5-15.85,15.44-12.82,15.44-12.82s12.78,3,4.87,18.85" fill="#f18f22"/><path d="M174.8,24.44s.69,19.56,8.75,18.64,7.59-7.59,7.59-7.59,1.15-12.2-5.52-14.5S174.8,24.44,174.8,24.44Z" fill="#ffc6b2"/><path d="M174.8,24.44s4.66,7,10.46,6.46,5.37,7.43,5.37,7.43,5.58-2.53,5.47-10.09c-.06-4.29-6-11.36-11.62-11S173.52,20.48,174.8,24.44Z" fill="#f18f22"/><path d="M194.09,28.85s2.5,3,.65,5.14l-11.39,1.44s-5,3-7.18,3.27-3.4-2.31-6.08-1.85a24.19,24.19,0,0,1-4.3.42L174.33,32l.94-2.56S186.62,31.79,194.09,28.85Z" fill="#68e1fd"/></svg>