<svg xmlns="http://www.w3.org/2000/svg" xmlns:xlink="http://www.w3.org/1999/xlink" viewBox="0 0 400 300"><defs><linearGradient id="linear-gradient" x1="318.22" y1="180.68" x2="265.63" y2="209.02" gradientUnits="userSpaceOnUse"><stop offset="0" stop-color="#d4a397"/><stop offset="1" stop-color="#fff"/></linearGradient><linearGradient id="linear-gradient-2" x1="194.67" y1="191.66" x2="142.01" y2="220.03" xlink:href="#linear-gradient"/><linearGradient id="linear-gradient-3" x1="173.9" y1="250.13" x2="159.81" y2="273.18" xlink:href="#linear-gradient"/></defs><title>OK</title><g style="isolation:isolate"><g id="Layer_2" data-name="Layer 2"><path d="M48.41,214.32l118.21,70.05a12.77,12.77,0,0,0,13,0l148.58-87.87a5.52,5.52,0,0,0-.18-9.61L199.34,117.17,48.41,206.47A4.56,4.56,0,0,0,48.41,214.32Z" fill="#9292e0"/><polygon points="305.35 192.54 244.8 228.5 234.88 219.22 294.74 185.07 305.35 192.54" fill="url(#linear-gradient)" style="mix-blend-mode:multiply"/><path d="M290.73,168.56s.61,26.75,9.75,27.38,9.75-27.38,9.75-27.38" fill="#68e1fd"/><path d="M290.73,168.56s.61,26.75,9.75,27.38,9.75-27.38,9.75-27.38" fill="#68e1fd"/><ellipse cx="300.48" cy="168.56" rx="9.75" ry="5.06" fill="#311e69"/><path d="M297.83,172a127.64,127.64,0,0,0-9.14-30.85c-.35-.8-1.53-.11-1.18.69a126.33,126.33,0,0,1,9,30.52C296.66,173.23,298,172.86,297.83,172Z" fill="#311e69"/><path d="M303.4,173.7q-1-19.42-3.48-38.72c-.11-.86-1.47-.87-1.36,0Q301,154.23,302,173.63C302.49,173.64,302.95,173.67,303.4,173.7Z" fill="#311e69"/><path d="M285.68,138.64a7.24,7.24,0,0,0-4.81.38c-1.1.49-3.37,1.87-2.92,3.35s3.2,1.25,4.29.92a6.23,6.23,0,0,0,3.77-3.5.76.76,0,0,0,0-.16A.66.66,0,0,0,285.68,138.64Z" fill="#c3ea75"/><path d="M288.24,137.05c-.29-1.76-.4-3.81-1.62-5.22a3.1,3.1,0,0,0-3.83-.9c-1.34.82-1,2.67-.29,3.79,1,1.61,2.91,2.3,4.4,3.4a.58.58,0,0,0,.91-.29A.72.72,0,0,0,288.24,137.05Zm-2.08-3.34a5.27,5.27,0,0,0-1.13-1.36l0-.17A3.66,3.66,0,0,1,286.16,133.71Z" fill="#c3ea75"/><path d="M291.78,134.24c-2.2-1-2.58,2.78-2.63,4.05a.59.59,0,0,0,.45.63.68.68,0,0,0,.95,0c.74-.67,1.68-1.3,1.91-2.32C292.64,135.84,292.64,134.63,291.78,134.24Z" fill="#c3ea75"/><path d="M300.56,126.19c-.47-1.52-2-2.89-3.66-2.17s-1.38,3-1.06,4.48,1.17,4.13,2.87,4.38a3.17,3.17,0,0,0,1.41-.39A10.38,10.38,0,0,0,300.56,126.19Zm-1.46,4.06v0a6.56,6.56,0,0,0,0-.74,4.45,4.45,0,0,1,0,1.09C299.16,130.46,299.13,130.36,299.1,130.25Z" fill="#c3ea75"/><path d="M305.72,131.4c-1.64.44-3.31,1.17-4,2.83a.72.72,0,0,0,.12.76c.06,1.57,3.24.77,4.13.6,1.43-.28,3.16-1,3.1-2.73C309,131,307.08,131,305.72,131.4Zm1.91,2a.79.79,0,0,0-.09-.31,2.18,2.18,0,0,0,.18-.28A.52.52,0,0,1,307.63,133.37Z" fill="#c3ea75"/><path d="M297.14,133.27c-.63-.85-3-3.52-4.1-1.94a1.83,1.83,0,0,0,.39,2.2,5,5,0,0,0,2.58,1.13.71.71,0,0,0,.8-.47A.59.59,0,0,0,297.14,133.27Zm-2.8-.77h0l.69.46-.11,0A1.59,1.59,0,0,1,294.34,132.5Z" fill="#c3ea75"/><path d="M199.07,14.52C210.85,21.9,240.49,39,250.59,45.25c2.29,1.41,2.64,3.5,2.68,6.18l0,125.43a4,4,0,0,1-5.15.79l-49.74-28.1c-2.47-1.45-4.42-3-4.42-5.82l.43-126.92C194.38,14,196.73,13.06,199.07,14.52Z" fill="#68e1fd"/><path d="M200.84,36.53V46.73a2.74,2.74,0,0,0,1.36,2.37l35.11,20.42a2.74,2.74,0,0,0,4.11-2.29l.27-10a2.74,2.74,0,0,0-1.36-2.44L204.95,34.17A2.74,2.74,0,0,0,200.84,36.53Z" fill="#fff" opacity="0.6"/><path d="M194.48,15.9l16.17,9.34v3.49a1.68,1.68,0,0,0,.84,1.45L224,37.41a1.11,1.11,0,0,0,1.66-1V33.9l23.49,13.77a1.49,1.49,0,0,1,.74,1.28V174.38a1,1,0,0,1-1.52.88L194,143.72a5.4,5.4,0,0,0,2.4,5c2.82,1.8,52.39,29.84,52.39,29.84s3.92,1.77,5.06-2.91V49.48a5.16,5.16,0,0,0-2.13-4.19c-2.27-1.65-52.83-31-52.83-31S195.29,12.61,194.48,15.9Z" fill="#124577"/><path d="M212.23,82a1.64,1.64,0,0,0-.09-1.3,1.37,1.37,0,0,0-1.55-.66,1,1,0,0,0,0-.11,2.24,2.24,0,0,0-.08-.53,1.68,1.68,0,0,0-.56-.86,1.41,1.41,0,0,0-.32-.19c.53-.67,1.06-1.34,1.52-2s1-1.95,0-2.38-1.72,1-2.19,1.59q-1.28,1.48-2.53,3a2.52,2.52,0,0,0-2.54.54,41.63,41.63,0,0,0-3.94,4,.68.68,0,0,0,0,.89.71.71,0,0,0-.08.48c.06.31.13.61.2.91a11.74,11.74,0,0,0,.42,1.48.7.7,0,0,0,.78.46.62.62,0,0,0,.62.88c2.09-.2,4.16-.47,6.23-.82,1.63-.28,3.48-.65,4-2.48a.68.68,0,0,0,0-.34,1.9,1.9,0,0,0,.6-1A1.62,1.62,0,0,0,212.23,82Z" fill="#f7931e"/><path d="M210.19,80a9,9,0,0,0-2,.9,7.14,7.14,0,0,0-1.46-2.4c-.22-.25-.59.12-.37.37A5.37,5.37,0,0,1,207.93,82c-.05,1.27-1.24,1.35-1.95.46-.37-.47-.68-1-1-1.51-.18-.27-.63,0-.45.26l1,1.51a2.15,2.15,0,0,0,.78.86,1.88,1.88,0,0,0,1.81-.44,1.68,1.68,0,0,0,.2-1.74l.07,0a8.43,8.43,0,0,1,1.93-.87C210.65,80.38,210.51,79.88,210.19,80Z" fill="#42210b"/><path d="M208.89,83.07a3.86,3.86,0,0,1,1.32-.49l1.44-.42a.26.26,0,0,0-.14-.5,23.26,23.26,0,0,0-2.52.77,1.34,1.34,0,0,0-.93,1.2.84.84,0,0,0,.54.81,1.32,1.32,0,0,0-.42,1,.81.81,0,0,0,.59.74.26.26,0,0,0,.14-.5c-.48-.12-.06-.72.12-.9a.25.25,0,0,0,.07-.17,7.26,7.26,0,0,0,2.39-.32.26.26,0,0,0-.14-.5,7.77,7.77,0,0,1-1.55.27,4.24,4.24,0,0,1-.64,0C208.55,84,208.47,83.41,208.89,83.07Z" fill="#42210b"/><path d="M165.46,92.09s-7.27.78-9.67,9.26c-2.81,9.93-1,12.17,2.14,14.75" fill="#c3ea75"/><path d="M148.74,222.12q2.15,1.35,4.32,2.67l29.14-20.48-13.38-9.42-30.08,20.23A106.06,106.06,0,0,0,148.74,222.12Z" fill="url(#linear-gradient-2)" style="mix-blend-mode:multiply"/><path d="M163.78,192.9a26.77,26.77,0,0,0-.2,7c.07.5.14,1,.24,1.59l-5.91-1V192.9Z" fill="#f7931e"/><path d="M157.66,198.7c1.57,1.12,2.74,1.77,2.74,1.77,1.25,0,3.57.29,2.86-1.47a16.12,16.12,0,0,0,3.07,3.9c1.35,1.26,9,5.3,5.8,7.44-2.37,1.59-14-4.82-14.3-6.53A30,30,0,0,1,157.66,198.7Z" fill="#56403d"/><path d="M174.66,188.33a26.77,26.77,0,0,0-.2,7c.07.5.14,1,.24,1.59l-5.91-1v-7.58Z" fill="#f7931e"/><path d="M168.54,194.14c1.57,1.12,2.74,1.77,2.74,1.77,1.25,0,3.57.29,2.86-1.47a16.12,16.12,0,0,0,3.07,3.9c1.35,1.26,9,5.3,5.8,7.44-2.37,1.59-14-4.82-14.3-6.53A30,30,0,0,1,168.54,194.14Z" fill="#56403d"/><path d="M178.86,119s1.85,50.26-1.81,71.37c0,0-.73,2.35-9.46,1l-.59,4.4a18.42,18.42,0,0,1-11.94-.83s-2.43-48.81,4.85-77.18" fill="#311e69"/><path d="M201.89,88.73,199.53,80S187.1,93.44,172,91.42c-2.15.22-4.38.29-6.51.67a9.67,9.67,0,0,0-3,1.1c-3,4.19-4,9.41-4.34,14.49-.17,2.8-.16,5.62-.14,8.42a41.66,41.66,0,0,0,.3,5.34,1.38,1.38,0,0,0,.67,1,7.71,7.71,0,0,0,3.48,1.09c5.27.22,11.64,0,15.75-3.43a12.37,12.37,0,0,0,.72-1.12l-.67-15.46S195.33,98.15,201.89,88.73Z" fill="#c3ea75"/><path d="M174.26,83.42s2.32,8.46-1.51,10.31-6.51-.91-7.67-3.43-.71-8.44,4.22-9C173.61,80.73,174.26,83.42,174.26,83.42Z" fill="#f7931e"/><path d="M175,81.81c.41-1,.57-2.88-.64-3.45a2.64,2.64,0,0,0-2.72.5,3.77,3.77,0,0,0-1.47-.69,6,6,0,0,0-5.59,1.21.85.85,0,0,1-.23.16,1,1,0,0,1-.36,0c-3,.05-3.65,3.45-3.14,5.77a11.6,11.6,0,0,0,3.63,6.22A7.2,7.2,0,0,0,167.22,93a.22.22,0,0,0,.29-.24.28.28,0,0,0,.09-.4,2.71,2.71,0,0,1-.26-1.64.25.25,0,0,0-.07-.22A.27.27,0,0,0,167,90a2.12,2.12,0,0,1-1.77-.61c-.28-.29-.51-.86,0-1a.65.65,0,0,1,.59.16,2.16,2.16,0,0,0,.29.39.27.27,0,0,0,.15.08c.2.07.47-.1.34-.33a2.22,2.22,0,0,0-.33-.44,1.55,1.55,0,0,1,.29-1.94c.7-.62,1.36-.28,2.16-.25a1,1,0,0,0,1.13-.74,3.86,3.86,0,0,0-.12-1,1.22,1.22,0,0,1,.76-1.19c.86-.33,1.41.39,2,.83a2.22,2.22,0,0,0,1.84.37,1.52,1.52,0,0,0,.82-2.42A.26.26,0,0,0,175,81.81ZM169.8,83a.85.85,0,0,1,.4-.34l.15-.09h.05l.08,0A1.77,1.77,0,0,0,169.8,83Zm4.84-1.79,0,0a2.43,2.43,0,0,0,.1-.28C174.69,81,174.67,81.13,174.64,81.22Z" fill="#935542"/><path d="M170.83,135.13q-.66,23.38-2.37,46.72-.48,6.55-1,13.1c0,.37.55.37.58,0q2-23.3,3-46.68.27-6.57.45-13.14A.29.29,0,0,0,170.83,135.13Z" fill="#fff"/><path d="M181,101.45a1.46,1.46,0,0,0,.68-1.53c-.16-1.09-1.63-.56-1.63-.56s-.12-1.5-1.21-1.54-4.81,2.45-4.81,2.45l.07-1.75c0-.31-.24-.38-.6-.27-1,.3-1.16,1.77-1.21,2.64a2.61,2.61,0,0,0,.11,1c.08.24.3.54.13.78a12.69,12.69,0,0,1-2.26,1.08l.21.41.6.74a13.59,13.59,0,0,1,2.12,3.07l1.82-.7s6.37-1,6.67-1.83a2.86,2.86,0,0,0,0-1.67l.37-.95C182.47,101.85,181,101.45,181,101.45Z" fill="#f7931e"/><path d="M175.16,101.17a33.09,33.09,0,0,0,4.92-2c.16-.08.27.18.1.27a33.09,33.09,0,0,1-4.92,2C175.09,101.49,175,101.22,175.16,101.17Z" fill="#42210b"/><path d="M175.62,103a25.17,25.17,0,0,0,5.67-1.58.14.14,0,0,1,.1.27,25.5,25.5,0,0,1-5.74,1.6C175.47,103.33,175.44,103,175.62,103Z" fill="#42210b"/><path d="M176.61,104.77a29.24,29.24,0,0,0,5.14-1.1.14.14,0,0,1,.1.27,29.56,29.56,0,0,1-5.21,1.12C176.46,105.09,176.43,104.8,176.61,104.77Z" fill="#42210b"/><path d="M174.39,110l.52-.47a35.18,35.18,0,0,0-4.78-6.81c-.29-.33-.77.16-.48.48A34.43,34.43,0,0,1,174.39,110Z" fill="#311e69"/><path d="M168.89,103q-3,2.27-6,4.41a26.24,26.24,0,0,1,.66-3.79.34.34,0,0,0-.66-.18,27.25,27.25,0,0,0-.73,4.47l-1.28.88c-.36.24,0,.83.34.59q4.1-2.78,8-5.79C169.57,103.28,169.23,102.69,168.89,103Z" fill="#311e69"/><path d="M174.91,109.56s-7.77,10.94-17,6.54l.13,3.65S169.75,120,174.91,109.56Z" fill="#311e69"/><path d="M162.82,281.19q2.15,1.35,4.32,2.67l34.34-24-32.23-20.55-37,24.16C135.46,266,159.37,279,162.82,281.19Z" fill="url(#linear-gradient-3)" style="mix-blend-mode:multiply"/><polyline points="155.16 224.77 155.16 247.49 181.27 248.49 196.33 236.68 196.33 213.75" fill="#68e1fd"/><polyline points="155.16 224.77 155.16 247.49 181.27 248.49 196.33 236.68 196.33 213.75" fill="#0fb7ce" opacity="0.86"/><path d="M196.33,213.75a40.49,40.49,0,0,0-15-2.73c-13.65,0-24.87,6-26.16,13.75l26.33-.23Z" fill="#68e1fd"/><polygon points="181.49 224.54 181.03 245.61 196.31 234.19 196.33 213.75 181.49 224.54" fill="#68e1fd"/><path d="M185.69,259.81v5.9s7.22-.57,12.89-3.93,7-6.3,7.3-9c.05-.43.09-7.17.09-7.17" fill="#c90180"/><path d="M181,245.61l15.28-11.42s9.06,3.1,9.65,11.42-12,13.49-20.28,14.2Z" fill="#f0008d"/><polygon points="181.49 224.54 181.03 245.61 196.31 234.19 196.33 213.75 181.49 224.54" fill="#0fb7ce" opacity="0.65"/><path d="M186.13,248.64v17a40.31,40.31,0,0,1-21.31-3.14c-7.58-3.47-9-7.63-9.66-10.73v-18" fill="#edaf24"/><path d="M155.16,233.77h26.1l4.87,14.86s-13.53,1.8-23.55-4.3C153.9,239.05,155.16,233.77,155.16,233.77Z" fill="#ffcb44"/><g style="isolation:isolate"><path d="M210.64,100.89c3.4,1.6,5.9,6.59,5.6,11.15a9.36,9.36,0,0,1-.4,2.21c-1,3.07-3.5,4.46-6.29,3.15a9,9,0,0,1-3.65-3.5,13.31,13.31,0,0,1-2-7.64C204.24,101.69,207.24,99.29,210.64,100.89Z" fill="#34a853"/><path d="M223.86,77.3a4,4,0,0,0-1.65.11c-3.06.88-4.38,5.4-3,10.1l4.32,14.29-7.74,12.44a9.36,9.36,0,0,0,.4-2.21c.3-4.56-2.2-9.55-5.6-11.15s-6.4.8-6.7,5.36a13.31,13.31,0,0,0,2,7.64c-2.27-3.58-2.71-8.48-.92-11.37l14.46-23.23A4,4,0,0,1,223.86,77.3Z" fill="#fbbc04"/><path d="M225.33,77.74c2.1,1,4,3.41,5,6.56l10.6,35c1.42,4.7.09,9.21-3,10.1a4.36,4.36,0,0,1-3.1-.33c-2.1-1-4.05-3.42-5-6.57l-6.27-20.73-4.32-14.29c-1.42-4.69-.09-9.21,3-10.1a4,4,0,0,1,1.65-.11A5,5,0,0,1,225.33,77.74Z" fill="#4285f4"/></g><path d="M112.85,56.91Q88.89,69,65.79,82.73a.5.5,0,0,0,.5.86q23.08-13.71,47.05-25.83C113.92,57.48,113.42,56.62,112.85,56.91Z" fill="#f7931e"/><path d="M59,80.46l54-31a2.27,2.27,0,0,1,3.4,2v20a5.45,5.45,0,0,1-2.79,4.76L61.21,105.5a2.27,2.27,0,0,1-3.38-2V82.43A2.27,2.27,0,0,1,59,80.46Z" fill="#05c69f"/><polyline points="62.81 101.25 62.81 112.94 72.58 98.39" fill="#05c69f"/><path d="M107.83,61.67l-28.66,16c-1.69.94-.18,3.53,1.51,2.59l28.66-16c1.69-.94.18-3.53-1.51-2.59Z" fill="#f2f2f2"/><path d="M109.08,69.66,65.77,93.82c-1.69.94-.18,3.53,1.51,2.59L110.6,72.25c1.69-.94.18-3.53-1.51-2.59Z" fill="#f2f2f2"/><path d="M113.93,103.89Q90,116,66.88,129.71a.5.5,0,0,0,.5.86q23.08-13.71,47.05-25.83C115,104.46,114.51,103.6,113.93,103.89Z" fill="#f7931e"/><path d="M60.05,127.44l54-31a2.27,2.27,0,0,1,3.4,2v20a5.45,5.45,0,0,1-2.79,4.76L62.29,152.48a2.27,2.27,0,0,1-3.38-2V129.41A2.27,2.27,0,0,1,60.05,127.44Z" fill="#05c69f"/><polyline points="63.9 148.22 63.9 159.92 73.66 145.37" fill="#05c69f"/><path d="M108.92,108.65l-28.66,16c-1.69.94-.18,3.53,1.51,2.59l28.66-16c1.69-.94.18-3.53-1.51-2.59Z" fill="#f2f2f2"/><path d="M110.17,116.64,66.85,140.8c-1.69.94-.18,3.53,1.51,2.59l43.32-24.16c1.69-.94.18-3.53-1.51-2.59Z" fill="#f2f2f2"/></g></g></svg>