<svg id="Layer_2" data-name="Layer 2" xmlns="http://www.w3.org/2000/svg" xmlns:xlink="http://www.w3.org/1999/xlink" viewBox="0 0 400 300"><defs><linearGradient id="linear-gradient" x1="195.45" y1="245.85" x2="220.99" y2="221.82" gradientUnits="userSpaceOnUse"><stop offset="0" stop-opacity="0"/><stop offset="0.99" stop-color="#552800"/></linearGradient><linearGradient id="linear-gradient-2" x1="300.36" y1="201.65" x2="325.91" y2="177.62" xlink:href="#linear-gradient"/></defs><title>PP</title><path d="M194.73,278.19,29,180.22c-5.28-3-9.8-7.83-4.66-11L190.67,73.33c2.5-1.55,6.29-2.56,8.82-1.09l174,101c5.28,3.06,6.22,11.63.94,14.69L216.58,278A22,22,0,0,1,194.73,278.19Z" fill="#ff70b0"/><path d="M190.34,251.17c3.63,1.11,7.28,2.21,11,3a56.35,56.35,0,0,0,6.89.79l3.87-2.62,26.8-19.93-20.5-6.82-48.49,16.9C175.91,246.85,183.31,249,190.34,251.17Z" opacity="0.32" fill="url(#linear-gradient)"/><path d="M177.41,84.92l-2.53-6.26s0-6.89-1.07-7.14-1.55,4.93-1.55,4.93-6.81-6.43-7.84-6.11-2.57,6.21-1.8,8.1S167.84,83.29,169,84s5.58,6.43,5.58,6.43" fill="#ffc494"/><path d="M164.14,193.41s20.14-5.39,22.25-8.26S181,172.48,181,172.48s-16.56,12.21-18.74,13.2" fill="#ffc494"/><path d="M238.36,66.84l.14-6.75s-2.44-6.45-1.54-7,3.2,4.05,3.2,4.05,4.08-8.43,5.15-8.5,4.61,4.89,4.57,6.93-3.15,6.39-4,7.5S243,71,243,71" fill="#ffc494"/><path d="M217.66,62.19s9.93,19.79,11.8,19.32,8.29-16.34,8.29-16.34,7.53,4.23,8.53,5.26-5.51,29.49-19.15,28.12-17.45-14-17.45-14" fill="#ea8518"/><path d="M214.56,112.09c1.12-.61,2.29-1.21,3.4-1.75,4.48,8.48,6.91,17.57,9,26.86.28,3.21.53,6.42.72,9.63,1.15,19.5-2.65,49-3.56,68.47-.15,3.17-1.89,2.74-6.8-.14C205.92,166.79,220.52,169.76,214.56,112.09Z" fill="#fdba45"/><path d="M224.71,206.41s-1,11.92.19,13.83,8.67,8.82,10.1,9.67,3,2.74,2.41,3.82-5.92,3.82-10.09,3.36-5.17-5.76-7.53-6.32-4.45-.56-5.28-3,3.28-13.52,1.79-19.5S224.71,206.41,224.71,206.41Z" fill="#ffc494"/><path d="M225.85,228.74c2.09.75,5.7,1.26,7.24-.37a18.86,18.86,0,0,0,1.9,1.5c1.43.85,3,2.74,2.41,3.82s-5.92,3.82-10.09,3.36-5.17-5.76-7.53-6.32-4.45-.56-5.28-3c-.36-1,.2-3.68.83-6.84C218.24,224.29,221.61,227.22,225.85,228.74Z" fill="#475ba2"/><path d="M178.49,80.67c3.09,3,7.32,10.61,7.32,10.61s3.48-10.11,5.3-16.21S207.49,59,207.49,59s6.58,1.72,10.17,3.19c2.5,1,3.47,4.31,4.35,6.59,1.49,3.86,4.3,7.87,4.13,12.24a68.35,68.35,0,0,1-1.24,9.42c-.86,4.75-1.9,9.47-3.06,14.16,0,0-13.54.8-19.4-.17l-1-12.42s-8.07,16-13.74,17.43c-4.81,1.18-12.91-13.69-15.55-19.57A19.68,19.68,0,0,1,178.49,80.67Z" fill="#ff9a22"/><line x1="206.43" y1="98.13" x2="227.33" y2="88.1" fill="#ff9a22"/><line x1="262.7" y1="93.47" x2="260.86" y2="91.6" fill="#fff7f0"/><path d="M220.9,43.21s1.15,15.34-5.07,17.38-10-5.56-10-5.56-1.9-10.28,0-12.58S217.31,39.06,220.9,43.21Z" fill="#fdba45"/><path d="M216.42,44.36s2.43,2.08,4.56,2.32,3.37-2.77,3.69-4.42-1.14-7.21-10.9-7.7S198.08,42.2,198,47.19s.23,17.35.23,17.35S207,64.31,211,63.4c0,0-3-11.29-2.28-14.76S216.42,44.36,216.42,44.36Z" fill="#475ba2"/><path d="M214.44,213.12c-32.2-5.42-39.22-32-44.52-33.62,16.84-9.14,24.6-50.17,24.92-54.44.75-9.86,7.94-21.48,7.94-21.48l19.35-1.49s6.57,13.11,7.23,21.26c.26,3.28,2,72.06,1.75,84.13C226.25,210.6,219.63,214,214.44,213.12Z" fill="#68e1fd"/><path d="M169.92,190.93s-11.11,4.42-12.31,6.3-4.06,11.68-4.19,13.34-1.1,3.94-2.36,3.85-6-3.61-7.48-7.56,2.87-7.18,2.33-9.55-1.47-4.24.31-6,13.58-3.05,18.27-7S169.92,190.93,169.92,190.93Z" fill="#ffc494"/><path d="M150.41,201.85c.26,2.21,1.4,5.67,3.54,6.33a18.86,18.86,0,0,0-.5,2.37c-.13,1.66-1.1,3.94-2.36,3.85s-6-3.61-7.48-7.56,2.87-7.18,2.33-9.55-1.47-4.24.31-6c.77-.78,3.39-1.45,6.5-2.28C151,193.05,149.89,197.37,150.41,201.85Z" fill="#475ba2"/><path d="M295.25,207c3.63,1.11,7.28,2.21,11,3a56.35,56.35,0,0,0,6.89.79L317,208.1l26.8-19.93-20.5-6.82-48.49,16.9C280.83,202.65,288.23,204.83,295.25,207Z" opacity="0.32" fill="url(#linear-gradient-2)"/><path d="M333.12,166.49c-4.84-.42-9.93-1.88-13.51-5.19v14.34a14.88,14.88,0,0,0,14.88,14.88h0a14.88,14.88,0,0,0,14.88-14.88V161.05C344.3,163.13,338.54,167,333.12,166.49Z" fill="#68e1fd"/><ellipse cx="334.5" cy="161.2" rx="14.88" ry="7.89" fill="#5ed18d"/><path d="M334.5,162.54s-10.12-1.49-12.8-17.86C321.7,144.68,330.33,149.45,334.5,162.54Z" fill="#5ed18d"/><path d="M336,160.46s-11.61-20.83,0-34.82A58.37,58.37,0,0,1,336,160.46Z" fill="#5ed18d"/><path d="M334.5,147.36s-10.12-1.49-12.8-17.86C321.7,129.51,330.33,134.27,334.5,147.36Z" fill="#5ed18d"/><path d="M335.72,154s-2.53-9.91,11.53-18.7C347.26,135.33,346.2,145.13,335.72,154Z" fill="#5ed18d"/><ellipse cx="334.5" cy="161.2" rx="14.88" ry="7.89" fill="#146666"/><path d="M334.5,162.54s-10.12-1.49-12.8-17.86C321.7,144.68,330.33,149.45,334.5,162.54Z" fill="#5ed18d"/><path d="M336,160.46s-11.61-20.83,0-34.82A58.37,58.37,0,0,1,336,160.46Z" fill="#5ed18d"/><path d="M334.5,147.36s-10.12-1.49-12.8-17.86C321.7,129.51,330.33,134.27,334.5,147.36Z" fill="#5ed18d"/><path d="M335.72,154s-2.53-9.91,11.53-18.7C347.26,135.33,346.2,145.13,335.72,154Z" fill="#5ed18d"/><g style="isolation:isolate"><path d="M211.84,50.08l9.25,3.43h0l-1.08-.4-1.15-.42-1.19-.44-1.21-.45-1.21-.45-1.19-.44-1.15-.42-1.08-.4,9.26,3.43v0l-9.29-3.44v0l2.24.83-.29-.11-.28-.11-.28-.1-.28-.1-.27-.1-.27-.1-.26-.1Z" fill="#ffd900"/><path d="M214.83,63.06l-9.29-3.44c4.92-1.75,6.17-9,6.26-9.5l9.29,3.44C221,54.09,219.75,61.31,214.83,63.06Z" fill="#ffd900"/><path d="M219.59,53.84,210.3,50.4a9.06,9.06,0,0,1,1.51-.31l9.29,3.44A9.06,9.06,0,0,0,219.59,53.84Z" fill="#f15a24"/><path d="M211.81,50.07a36,36,0,0,0,.82-7.91l9.29,3.44a36,36,0,0,1-.82,7.91Z" fill="#ffd900"/><path d="M205.27,59.71l.26-.1,9.29,3.44-.26.1-1.09-.4-1.15-.43-1.19-.44-1.22-.45L208.7,61l-1.19-.44-1.15-.43Z" fill="#ffd900"/><path d="M205.23,59.72l.31-.1,9.29,3.44-.31.1-1.09-.4-1.15-.43-1.19-.44-1.22-.45L208.66,61l-1.19-.44-1.15-.43Z" fill="#483400"/><path d="M205,59.81l.31-.1,9.29,3.44-.31.1-.31.09-9.29-3.44Z" fill="#ffd900"/><path d="M214,37.54,223.24,41a8.23,8.23,0,0,1-1.55,1.59,1.31,1.31,0,0,1-.39.19l-1.08-.4-1.15-.43-1.19-.44L216.66,41l-1.22-.45-1.19-.44-1.15-.43-1.09-.4a1.31,1.31,0,0,0,.39-.19A8.23,8.23,0,0,0,214,37.54Z" fill="#ffd900"/><path d="M212,39.33h0l9.29,3.44h0L212,39.33Z" fill="#ffd900"/><path d="M215.48,31.79a1.29,1.29,0,0,0-.7-.69l9.29,3.44a1.29,1.29,0,0,1,.7.69,3,3,0,0,1,.28,1.07A7.42,7.42,0,0,1,223.24,41L214,37.54a7.42,7.42,0,0,0,1.81-4.68A3,3,0,0,0,215.48,31.79Z" fill="#ffd900"/><path d="M211,39.25a1.55,1.55,0,0,0,1,.08l9.29,3.44a1.55,1.55,0,0,1-1-.08Z" fill="#ffd900"/><path d="M204.65,59.9A1.45,1.45,0,0,1,205,60l3.62,1.34,2,.73.71.26.37.14,2.26.84a6.07,6.07,0,0,1-1.42.2l-9.29-3.44A6.07,6.07,0,0,0,204.65,59.9Z" fill="#ffd900"/><path d="M214.78,31.1l9.29,3.44a1.24,1.24,0,0,0-.8,0,2.09,2.09,0,0,0-.74.42,4.37,4.37,0,0,0-1.14,1.7l-9.29-3.44a4.37,4.37,0,0,1,1.14-1.7,2.09,2.09,0,0,1,.74-.42A1.24,1.24,0,0,1,214.78,31.1Z" fill="#f15a24"/><path d="M202.1,60l.26.1.83.31.58.21.59.22,2.26.84,4.78,1.77h0l-1.09-.4-1.15-.43-1.19-.44-1.22-.45-1.22-.45-1.19-.44-1.15-.43-1.09-.4Z" fill="#ffd900"/><path d="M201.68,59.84h0l9.29,3.44h0Z" fill="#483400"/><path d="M201.89,59.92l.17,0,9.29,3.44-.17,0-1-.37-1.05-.39-1.09-.4-1.11-.41-1.11-.41-1.09-.4-1.05-.39-1-.37-.09,0-.1,0-.21-.08-.1,0-.1,0-.1,0Z" fill="#ffd900"/><path d="M201.64,59.83a7.38,7.38,0,0,0,3.59-.11l9.29,3.44a7.38,7.38,0,0,1-3.59.11Z" fill="#483400"/><path d="M210.93,63.27l-9.29-3.44c.13-.38,2.61-7.62,8.66-9.43l9.29,3.44C213.54,55.65,211.06,62.89,210.93,63.27Z" fill="#f15a24"/><path d="M210.27,63l-1.15-.43-1.19-.44-1.22-.45-1.22-.45-1.19-.44-1.15-.43-1.09-.4h0l.26.1.83.31.58.21.59.22,2.26.84,3.95,1.46c-3.75-1.89-4-9.45-3.82-13l-9.29-3.44c-.16,3.62.09,11.54,4.17,13.13h0l.78.29,1,.37,1.05.39,1.09.4,1.11.41,1.11.41,1.09.4,1.05.39,1,.37-.3-.13Z" fill="#483400"/><path d="M211.06,63.29l.33.12a4.44,4.44,0,0,0,1.13.13l-.31-.11A8.61,8.61,0,0,1,211.06,63.29Z" fill="#ffd900"/><path d="M201.89,59.92l.8.3,8.49,3.14-.21-.07-9.29-3.44Z" fill="#ffd900"/><path d="M201.62,59.82l9.29,3.44h0l-1.09-.4-1.15-.43L207.51,62l-1.22-.45-1.22-.45-1.19-.44-1.15-.43-1.09-.4Z" fill="#483400"/><path d="M221.92,45.6a36,36,0,0,1-.83,8,6.66,6.66,0,0,0-1.5.28c-6.05,1.81-8.53,9-8.66,9.43a7.38,7.38,0,0,0,3.59-.11l.31-.1-.57.2c-7.29,2.18-7.71-8.68-7.52-13.12Z" fill="#483400"/><path d="M212.1,33.21a1.89,1.89,0,0,0-1.06-1l9.29,3.44a1.89,1.89,0,0,1,1.06,1Z" fill="#ffd900"/><path d="M211,32.17l9.29,3.44h0a1.71,1.71,0,0,0-1,0L210,32.15a1.71,1.71,0,0,1,1,0Z" fill="#f15a24"/><path d="M220.31,42.69,211,39.25a5.77,5.77,0,0,1-.68-.32,3.92,3.92,0,0,1-1.63-1.46,4.27,4.27,0,0,1-.15-4.18A2.48,2.48,0,0,1,210,32.15l9.29,3.44a2.48,2.48,0,0,0-1.39,1.15,4.27,4.27,0,0,0,.15,4.18,3.92,3.92,0,0,0,1.63,1.46A5.77,5.77,0,0,0,220.31,42.69Z" fill="#f15a24"/><polygon points="206.74 50.13 197.45 46.7 212.63 42.16 221.92 45.6 206.74 50.13" fill="#483400"/><path d="M198.48,43.19h0l9.29,3.44h0l-9.29-3.44Z" fill="#ffd900"/><path d="M201.72,35.47a1.26,1.26,0,0,0-.66-.6l9.29,3.44a1.26,1.26,0,0,1,.66.6,2.94,2.94,0,0,1,.33,1,7.42,7.42,0,0,1-1.62,4.75,8.41,8.41,0,0,1-1.49,1.7,1.37,1.37,0,0,1-.46.25l-9.29-3.44a1.37,1.37,0,0,0,.46-.25,8.41,8.41,0,0,0,1.49-1.7,7.42,7.42,0,0,0,1.62-4.75A2.94,2.94,0,0,0,201.72,35.47Z" fill="#ffd900"/><path d="M197.26,43.07a1.92,1.92,0,0,0,1.22.12l9.29,3.44a1.92,1.92,0,0,1-1.22-.12Z" fill="#ffd900"/><path d="M201.07,34.88l9.29,3.44a1.23,1.23,0,0,0-.79,0l-9.29-3.44A1.23,1.23,0,0,1,201.07,34.88Z" fill="#f15a24"/><path d="M207.66,40.57l-9.29-3.44a4.46,4.46,0,0,1,1.07-1.76,2.15,2.15,0,0,1,.84-.51l9.29,3.44a2.15,2.15,0,0,0-.84.51A4.46,4.46,0,0,0,207.66,40.57Z" fill="#f15a24"/><path d="M198.37,37.13a1.87,1.87,0,0,0-1-.89l9.29,3.44a1.87,1.87,0,0,1,1,.89C204.87,39.54,200.62,39.07,198.37,37.13Z" fill="#ffd900"/><path d="M206.55,46.51l-9.29-3.44-.41-.16a3.78,3.78,0,0,1-1.71-1.3,4.08,4.08,0,0,1-.34-4.1,2.55,2.55,0,0,1,1.49-1.28,1.75,1.75,0,0,1,.92,0l.18.06,9.29,3.44-.18-.06a1.75,1.75,0,0,0-.92,0,2.55,2.55,0,0,0-1.49,1.28,4.08,4.08,0,0,0,.34,4.1,3.78,3.78,0,0,0,1.71,1.3Z" fill="#f15a24"/><path d="M206.77,68.3l-9.29-3.44c-5.12-1.9-8.59-7.71-8.56-15.62.05-11.34,7.3-22.69,16.2-25.35l9.29,3.44c-8.9,2.66-16.15,14-16.2,25.35C198.17,60.59,201.64,66.41,206.77,68.3Z" fill="#f7b600"/><path d="M214.41,27.34c8.9-2.66,16.07,4.38,16,15.72s-7.3,22.69-16.2,25.35-16.07-4.38-16-15.72S205.51,30,214.41,27.34Zm6.68,26.22a36,36,0,0,0,.83-8l-15.18,4.54c-.2,4.44.22,15.3,7.52,13.12l.57-.2c4.92-1.75,6.17-9,6.26-9.5M204.43,45a3.78,3.78,0,0,0,1.71,1.3,2.47,2.47,0,0,0,1.63.28,1.37,1.37,0,0,0,.46-.25,8.41,8.41,0,0,0,1.49-1.7,7.42,7.42,0,0,0,1.62-4.75,2.94,2.94,0,0,0-.33-1,1.18,1.18,0,0,0-1.44-.61,2.15,2.15,0,0,0-.84.51,4.46,4.46,0,0,0-1.07,1.76,1.82,1.82,0,0,0-1.16-.95,1.75,1.75,0,0,0-.92,0,2.55,2.55,0,0,0-1.49,1.28,4.08,4.08,0,0,0,.34,4.1M223.24,41a7.42,7.42,0,0,0,1.81-4.68,3,3,0,0,0-.28-1.07,1.19,1.19,0,0,0-1.5-.7,2.09,2.09,0,0,0-.74.42,4.37,4.37,0,0,0-1.14,1.7,1.89,1.89,0,0,0-1.1-1.05,1.71,1.71,0,0,0-1,0,2.48,2.48,0,0,0-1.39,1.15,4.27,4.27,0,0,0,.15,4.18,3.92,3.92,0,0,0,1.63,1.46,2.28,2.28,0,0,0,1.67.4,1.31,1.31,0,0,0,.39-.19A8.23,8.23,0,0,0,223.24,41" fill="#ffd900"/><path d="M219.59,53.84a9.06,9.06,0,0,1,1.51-.31c-.09.57-1.34,7.78-6.26,9.53l-.31.1a7.38,7.38,0,0,1-3.59.11C211.06,62.89,213.54,55.65,219.59,53.84Z" fill="#f15a24"/><path d="M219.25,35.59a1.71,1.71,0,0,1,1,0,1.89,1.89,0,0,1,1.1,1.05,4.37,4.37,0,0,1,1.14-1.7,2.09,2.09,0,0,1,.74-.42,1.19,1.19,0,0,1,1.5.7,3,3,0,0,1,.28,1.07A7.42,7.42,0,0,1,223.24,41a8.23,8.23,0,0,1-1.55,1.59,1.31,1.31,0,0,1-.39.19,2.28,2.28,0,0,1-1.67-.4A3.92,3.92,0,0,1,218,40.91a4.27,4.27,0,0,1-.15-4.18A2.48,2.48,0,0,1,219.25,35.59Z" fill="#f15a24"/><path d="M212.57,24l9.29,3.44a11.62,11.62,0,0,0-7.46-.1l-9.29-3.44A11.62,11.62,0,0,1,212.57,24Z" fill="#f7b600"/><path d="M209.57,38.31a1.18,1.18,0,0,1,1.44.61,2.94,2.94,0,0,1,.33,1,7.42,7.42,0,0,1-1.62,4.75,8.41,8.41,0,0,1-1.49,1.7,1.37,1.37,0,0,1-.46.25,2.47,2.47,0,0,1-1.63-.28,3.78,3.78,0,0,1-1.71-1.3,4.08,4.08,0,0,1-.34-4.1,2.55,2.55,0,0,1,1.49-1.28,1.75,1.75,0,0,1,.92,0,1.82,1.82,0,0,1,1.16.95,4.46,4.46,0,0,1,1.07-1.76A2.15,2.15,0,0,1,209.57,38.31Z" fill="#f15a24"/></g></svg>