<svg xmlns="http://www.w3.org/2000/svg" xmlns:xlink="http://www.w3.org/1999/xlink" viewBox="0 0 400 300"><defs><linearGradient id="linear-gradient" x1="280.39" y1="190.82" x2="254.24" y2="214.69" gradientUnits="userSpaceOnUse"><stop offset="0" stop-color="#d4a397"/><stop offset="1" stop-color="#fff"/></linearGradient><linearGradient id="linear-gradient-2" x1="161.6" y1="185.79" x2="134.76" y2="210.29" xlink:href="#linear-gradient"/></defs><title>PP</title><g style="isolation:isolate"><g id="Layer_2" data-name="Layer 2"><path d="M199.1,272,26.6,170.1C21.11,167,16.4,162,21.76,158.64L194.88,58.86c2.6-1.61,6.54-2.66,9.18-1.13L385.13,162.82c5.49,3.19,6.48,12.1,1,15.29L221.84,271.89A22.94,22.94,0,0,1,199.1,272Z" fill="#16a79e"/><path d="M283.32,164.2c-15.52,8.41-46.54,26.87-61.2,36.69l37.72,28.34,70.66-41Z" fill="url(#linear-gradient)" style="mix-blend-mode:multiply"/><ellipse cx="270.14" cy="182.46" rx="11.73" ry="6.81" transform="translate(-27.2 316.09) rotate(-58.24)" fill="#084f77"/><polyline points="276.32 172.48 282.3 175.94 269.95 195.89 263.97 192.43" fill="#084f77"/><ellipse cx="276.12" cy="185.91" rx="11.73" ry="6.81" transform="translate(-27.3 322.81) rotate(-58.24)" fill="#0d2c49"/><ellipse cx="276.36" cy="186.05" rx="6.78" ry="4.21" transform="translate(-22.94 332.36) rotate(-60)" fill="#99c2c4"/><polygon points="309.99 128.15 319.47 122.48 319.47 117.63 314.73 115.35 304.61 121.48 309.99 128.15" fill="#d32a6f"/><polygon points="309.99 128.15 309.67 123.32 319.47 117.63 319.47 122.48 309.99 128.15" fill="#ef4381"/><polygon points="323.22 135.26 332.69 129.59 332.69 124.74 327.96 122.46 317.84 128.6 323.22 135.26" fill="#d32a6f"/><polygon points="323.22 135.26 322.9 130.43 332.69 124.74 332.69 129.59 323.22 135.26" fill="#ef4381"/><polygon points="258.8 145.11 258.8 184.13 284.37 198.24 284.37 159.22 258.8 145.11" fill="#108e85"/><polygon points="284.37 159.22 328.47 134.08 328.47 173.33 284.37 198.24 284.37 159.22" fill="#fa7998"/><polygon points="258.8 145.11 302.67 119.53 328.47 134.08 284.37 159.22 258.8 145.11" fill="#ddb34b"/><ellipse cx="294.93" cy="193.26" rx="11.73" ry="6.81" transform="translate(-24.64 342.28) rotate(-58.24)" fill="#084f77"/><polyline points="301.11 183.28 307.09 186.74 294.74 206.69 288.76 203.23" fill="#084f77"/><ellipse cx="300.92" cy="196.71" rx="11.73" ry="6.81" transform="translate(-24.74 349) rotate(-58.24)" fill="#0d2c49"/><ellipse cx="301.15" cy="196.85" rx="6.78" ry="4.21" transform="translate(-19.9 359.23) rotate(-60)" fill="#99c2c4"/><ellipse cx="299.82" cy="163.05" rx="8.9" ry="6.92" transform="translate(31.9 374.46) rotate(-66.81)" fill="#ddb34b"/><ellipse cx="309.67" cy="159.22" rx="8.9" ry="6.92" transform="translate(41.39 381.19) rotate(-66.81)" fill="#d32a6f"/><path d="M302.84,167.84l1-.51-.67-.34Z" fill="none"/><path d="M308.32,165l.24-.12-.17-.05Z" fill="none"/><path d="M301.88,170.4l2.35,1.41q.67-1.8,1.37-3.58l-1.78-.9-1,.51Z" fill="#f7b063"/><path d="M301.1,168.74l-1,.53.67.42Z" fill="#f7b063"/><path d="M306.53,165.92l-1.27.66.84.42Z" fill="#f7b063"/><path d="M314.79,165.55l1.68-4.79-3.54,1.84q-.35,1-.72,2.06Z" fill="#f7b063"/><path d="M298.72,170l-2.4,1.25,3.09,2.06.87-2.33Z" fill="#f7b063"/><path d="M307.27,167.58l2.09,1c.39-1,.77-2.08,1.14-3.13l-2-.62-.24.12Q307.79,166.29,307.27,167.58Z" fill="#f7b063"/><path d="M311.22,163.48l-1,.53.75.24Z" fill="#f7b063"/><path d="M310.55,169.18l2.54,1.2,1.26-3.59-2.59-.89Q311.17,167.54,310.55,169.18Z" fill="#f7b063"/><path d="M301.41,171.66l-.89,2.37,2.33,1.55q.45-1.26.91-2.52C303,172.59,302.2,172.13,301.41,171.66Z" fill="#f7b063"/><path d="M305.38,172.49l2,1.17q.76-1.9,1.49-3.81l-2.12-1Q306.07,170.64,305.38,172.49Z" fill="#f7b063"/><path d="M308.56,174.31l2.64,1.47,1.46-4.16-2.56-1.21Q309.34,172.37,308.56,174.31Z" fill="#f7b063"/><path d="M306.91,178.29l2.76,1.84,1.08-3.08-2.69-1.5Q307.5,176.92,306.91,178.29Z" fill="#f7b063"/><path d="M304.92,173.74q-.47,1.29-.93,2.59l1.82,1.21q.56-1.33,1.11-2.66Z" fill="#f7b063"/><path d="M312.21,164.66q.36-1,.72-2.06l-1.7.89-.26.77-.75-.24-1.65.86,2,.62c-.38,1-.75,2.09-1.14,3.13l-2.09-1q.52-1.3,1-2.59l-1.78.93L306.1,167l-.84-.42-1.44.75,1.78.9q-.7,1.78-1.37,3.58l-2.35-1.41,1-2.56-1.74.9-.35.95-.67-.42-1.36.71,1.56,1-.87,2.33,1.12.75.89-2.37c.78.48,1.57.94,2.36,1.4q-.46,1.26-.91,2.52l1.13.75q.46-1.3.93-2.59l2,1.15q-.55,1.33-1.11,2.66l1.11.74q.58-1.37,1.15-2.74l2.69,1.5.44-1.26-2.64-1.47q.78-1.94,1.53-3.9l2.56,1.21.44-1.24-2.54-1.2q.62-1.64,1.21-3.29l2.59.89.43-1.24Zm-4.8,9-2-1.17q.69-1.85,1.4-3.68l2.12,1Q308.17,171.76,307.41,173.66Z" fill="#e59342"/><ellipse cx="287.02" cy="140.38" rx="18.88" ry="8.88" fill="#d32a6f"/><ellipse cx="287.02" cy="138.37" rx="18.88" ry="8.88" fill="#fa7998"/><rect x="303.16" y="59.55" width="4.44" height="71.95" rx="2.22" ry="2.22" fill="#084f77"/><path d="M270.72,80.21l34-30.09L342.12,77.9s-9.24,18.27-35.7,18.27S270.72,80.21,270.72,80.21Z" fill="#ef4381"/><path d="M270.72,80.21a26.43,26.43,0,0,0,11.38,10.16l22.65-40.25Z" fill="#ddb34b"/><path d="M304.74,50.13l-7.58,45.34s13.25,2,20.89-.6Z" fill="#ddb34b"/><path d="M304.74,50.13,333.8,87.35s5.93-5,8.32-9.45Z" fill="#ddb34b"/><path d="M201.44,186c0-2.76-.24-5.51-.5-8.26l-35.05-17.84c-15.93,8.63-47.78,27.58-62.83,37.66l38.72,29.09,63.9-39.36c1.59-2.29-4.9,1.87-4.1-.83A.92.92,0,0,1,201.44,186Z" fill="url(#linear-gradient-2)" style="mix-blend-mode:multiply"/><path d="M165.71,76.55S147.51,22.92,143,19.92c-4.06-2.7-11.41,2.39-9,5.51s24.22,59.24,24.22,59.24" fill="#68e1fd"/><rect x="158.18" y="99.32" width="44.06" height="32.24" fill="#fc93b4"/><ellipse cx="182.09" cy="177.21" rx="29.39" ry="17.36" fill="#093e3e" opacity="0.5"/><ellipse cx="182.56" cy="173.67" rx="29.39" ry="17.36" fill="#68e1fd"/><path d="M175.95,145.55v22.78s6.14,4.61,12.29,0V145.55" fill="#68e1fd"/><path d="M175.95,145.55v22.78s6.14,4.61,12.29,0V145.55" fill="#093e3e" opacity="0.5"/><ellipse cx="204.99" cy="95.88" rx="25.87" ry="24.2" fill="#f8c691"/><ellipse cx="159.84" cy="98.17" rx="25.87" ry="24.2" fill="#e07d46"/><ellipse cx="182.56" cy="76.55" rx="25.87" ry="24.2" fill="#592a1a"/><path d="M134,100.75S145.48,122,183.37,122s46.08-21.25,46.08-21.25-2,46.59-45.31,46.59S134,113.55,134,100.75Z" fill="#68e1fd"/></g></g></svg>