<svg id="Layer_2" data-name="Layer 2" xmlns="http://www.w3.org/2000/svg" xmlns:xlink="http://www.w3.org/1999/xlink" viewBox="0 0 400 300"><defs><linearGradient id="linear-gradient" x1="127.57" y1="231.54" x2="148.79" y2="200.01" gradientUnits="userSpaceOnUse"><stop offset="0" stop-color="#ffe41f"/><stop offset="1" stop-color="#ff4b28"/></linearGradient><linearGradient id="linear-gradient-2" x1="317.3" y1="201.68" x2="327.7" y2="186.22" xlink:href="#linear-gradient"/><linearGradient id="linear-gradient-3" x1="80.38" y1="159.26" x2="89.5" y2="145.7" xlink:href="#linear-gradient"/><linearGradient id="linear-gradient-4" x1="56.81" y1="194.95" x2="65.93" y2="181.38" xlink:href="#linear-gradient"/><linearGradient id="linear-gradient-5" x1="190.79" y1="257.57" x2="218.88" y2="215.81" xlink:href="#linear-gradient"/></defs><title>331-340</title><path d="M196.24,288.6,23.74,186.65c-5.49-3.08-10.2-8.15-4.85-11.46L192,75.41c2.6-1.61,6.54-2.66,9.18-1.13L382.28,179.37c5.49,3.19,6.48,12.1,1,15.29L219,288.44A22.94,22.94,0,0,1,196.24,288.6Z" fill="#ffe41f"/><path d="M165.2,202l-6.71-.28-52.27,24.09,12.59,17,48.71-33.21C166.32,207.24,166.68,204.23,165.2,202Z" fill="url(#linear-gradient)"/><path d="M335.93,187.32l-7.65-.32-26.9,12.4,16.09,9.85L338.58,196C337.21,193.29,337.62,189.85,335.93,187.32Z" fill="url(#linear-gradient-2)"/><path d="M96.72,146.66,90,146.38l-23.6,10.88,14.12,8.64L99,154.28C97.84,151.9,98.2,148.89,96.72,146.66Z" fill="url(#linear-gradient-3)"/><path d="M73.15,182.35l-6.71-.28-23.6,10.88L57,201.59,75.47,190C74.27,187.59,74.63,184.58,73.15,182.35Z" fill="url(#linear-gradient-4)"/><polyline points="286.38 212.35 186.11 272.19 135.38 243.06 200.95 208.76" fill="url(#linear-gradient-5)"/><polygon points="238.87 49.66 181.96 82.06 181.96 217.01 231 245.07 286.38 212.35 286.38 77.4 238.87 49.66" fill="#68e1fd"/><polygon points="181.96 82.06 238.87 49.66 286.38 77.4 231 110.12 181.96 82.06" fill="#fff" opacity="0.49"/><polygon points="231 110.12 231 245.07 286.38 212.35 286.38 77.4 231 110.12" opacity="0.2"/><path d="M292.35,61.89s6.67-4.76,7.16-8.63a5.42,5.42,0,0,0-3-5.47l-4.61,5.47" fill="#e56461"/><path d="M177.06,65.28a15.55,15.55,0,0,0,.83-5.83c-.32-1.6-2.45-7.82-1.76-8.5,1.89-1.88,1.92,3.77,2.73,3.21s2.49-6.42,3.45-7.22,4,1.12,4.33,3A19,19,0,0,1,185.9,56l-5,12.23" fill="#f67770"/><path d="M161.27,195a4.49,4.49,0,0,0,.92,3.69c1.39,1.5,6.72,6.22,7.22,7.24s1.21,3.81,0,4.78-3.57,1.07-6.47,0-9.87-5.58-11.16-7,0-15.77,0-15.77,7.47-1.82,10,0Z" fill="#42210b"/><path d="M141.6,204.6a4.49,4.49,0,0,0,.92,3.69c1.39,1.5,6.72,6.22,7.22,7.24s1.21,3.81,0,4.78-3.57,1.07-6.47,0-9.87-5.58-11.16-7,0-15.77,0-15.77,7.47-1.82,10,0Z" fill="#42210b"/><path d="M162.18,102.11S166,119,166.24,134.83s-1.62,58.28-1.62,58.28-4.38,4.21-14,2.73V136.9s-3.36,1.25-3.36,3.75-3.07,62.78-3.07,62.78-1.72,3.19-14.31-1.69c0,0-4.3-79.9,4.94-95.39" fill="#e6e6e6"/><path d="M137.87,106.23c2.22-.08,8.4,1.47,12.6,1.16a46.34,46.34,0,0,0,12-2.11c.16-.74.3-1.52.41-2.38,2.8-21.59,2.05-36.74,0-40.16S148.56,56.61,143,58.16s-14,8.06-14,8.06,2.3,18.32,6.41,31.35C136.53,101.21,136.53,101.21,137.87,106.23Z" fill="#42210b"/><path d="M151.88,60.2c2,.42,2.34-5,1.5-5.54s-10.07-.56-11.49.07c-3.12,1.38,0,6,0,6" fill="#42210b"/><path d="M140,37.38c1.78-.31,1.72-3.27,5-4.63s7.19.59,8.65,1.64,2.51-1.08,4.08.55.58,4.14,1.5,5l.13.1a4.6,4.6,0,0,1,.13,4.47A13.5,13.5,0,0,1,157,47.12l-14.82,7.73c-1.78-1.27-5.22-13.16-5-14.65A3.13,3.13,0,0,1,140,37.38Z" fill="#200904"/><path d="M156.3,41.92c.67.72-1.54,15-5.89,15.53s-9.47-5.24-9.93-6.95-.19-10.86,1.57-11.72S152.22,37.53,156.3,41.92Z" fill="#f67770"/><path d="M154.27,37.79s.86,3.32-4.34,3.95-5.55,1.79-6.17,3.61c-1.16,3.42-4.81,7.4-6.05-2.88-.06-.5,3.67-7.54,7.71-8.09S154.27,37.79,154.27,37.79Z" fill="#200904"/><path d="M143.3,47.18s-1.63-2.81-2.9-1.47-.35,4.47,1.36,5.45" fill="#f67770"/><path d="M162.88,62.73A70.47,70.47,0,0,1,169,76.81s6.8-16.32,8.12-16.09,5.85,3.06,6.23,4.95-6.73,27-15.45,29.27-13.63-17.11-13.63-17.11" fill="#42210b"/><path d="M138,101.21l4.54,1.58s4,1.24,4.21,2.35-4.46.11-5.45,0,4.38,5.08,4.36,5.95-.89,1-1.51.74.87,1.49-.37,1.86a2.08,2.08,0,0,1-2.11-.87s-.12,1.73-1.36,1.49-6.81-6.56-7.31-8.79S135.64,100.4,138,101.21Z" fill="#f67770"/><path d="M132.92,106.08s2.12,6.72,3.37,6.62,1.58-2.93,1.58-2.93-3.43-5.07-4.28-5.47S132.92,106.08,132.92,106.08Z" fill="#f67770"/><path d="M129.18,66S115.5,82.49,114,88.38s17.38,20.08,17.38,20.08l6.85-7.29s-12.2-11.54-10.45-13.31,11.11-10.56,11.11-10.56" fill="#42210b"/><path d="M187.57,106,154.08,247.52c-.81,3.4,4.44,4.86,5.25,1.45l33.48-141.48c.81-3.4-4.44-4.86-5.25-1.45Z" fill="#4444a5"/><path d="M219,122.79,185.51,264.27c-.81,3.4,4.44,4.86,5.25,1.45l33.48-141.48c.81-3.4-4.44-4.86-5.25-1.45Z" fill="#4444a5"/><path d="M184.08,128.35,215.5,145.9c3.06,1.71,5.81-3,2.75-4.7l-31.42-17.55c-3.06-1.71-5.81,3-2.75,4.7Z" fill="#4444a5"/><path d="M180.81,148l30.14,16.84c3.06,1.71,5.81-3,2.75-4.7l-30.14-16.84c-3.06-1.71-5.81,3-2.75,4.7Z" fill="#4444a5"/><path d="M177.15,164l30.1,16.81c3.06,1.71,5.81-3,2.75-4.7l-30.1-16.81c-3.06-1.71-5.81,3-2.75,4.7Z" fill="#4444a5"/><path d="M172.42,181.08l29.82,16.66c3.06,1.71,5.81-3,2.75-4.7l-29.82-16.66c-3.06-1.71-5.81,3-2.75,4.7Z" fill="#4444a5"/><path d="M168.32,196.77l29.88,16.69c3.06,1.71,5.81-3,2.75-4.7l-29.88-16.69c-3.06-1.71-5.81,3-2.75,4.7Z" fill="#4444a5"/><path d="M163.76,215l31.42,17.55c3.06,1.71,5.81-3,2.75-4.7L166.51,210.3c-3.06-1.71-5.81,3-2.75,4.7Z" fill="#4444a5"/><ellipse cx="231" cy="80.62" rx="23.46" ry="9.71" fill="#ffe41f"/><path d="M251.17,20.17l-3.69,6c-1.69,2.74,2.57,5.37,4.26,2.62l3.69-6C257.12,20.05,252.86,17.43,251.17,20.17Z" fill="#ffe41f"/><path d="M267.29,29.71l-10,2.38c-3.13.74-2,5.61,1.15,4.86l10-2.38C271.57,33.83,270.42,29,267.29,29.71Z" fill="#ffe41f"/><path d="M262.78,43.65l-5.38-1.48A2.5,2.5,0,1,0,256,47l5.38,1.48a2.5,2.5,0,1,0,1.35-4.81Z" fill="#ffe41f"/><path d="M204.69,29.91,211,33c2.9,1.41,5.09-3.08,2.19-4.49l-6.32-3.08C204,24,201.8,28.49,204.69,29.91Z" fill="#ffe41f"/><path d="M212.6,12.93,216,22.66c1,3,5.78,1.42,4.73-1.63l-3.35-9.73C216.28,8.26,211.55,9.88,212.6,12.93Z" fill="#ffe41f"/><path d="M226.91,16l-.94,5.5a2.5,2.5,0,1,0,4.92.87l.94-5.5a2.5,2.5,0,1,0-4.92-.87Z" fill="#ffe41f"/><path d="M61.91,182c-1.11,0-3.41-2.81-4.16-3.65a19.16,19.16,0,0,1-3.14-4.72c-4.48-9.71,1.52-22.73,12.7-23.5a20.69,20.69,0,0,1,2.38,0c7.34.34,12.93,7.65,13.61,14.55a20.44,20.44,0,0,1-1.77,10.16,15.36,15.36,0,0,1-2.78,4.11c-.8.84-3.18,3.42-4.41,3.39Z" fill="#fbb03b"/><path d="M65.46,182.74,64,163.34s-2.61-4.76-4.43-1.39,2,5.57,9.69,5.24,9.12-4,7.44-5.38-4.49.54-4.63,1.53-1.74,19.4-1.74,19.4" fill="none" stroke="#f2f2f2" stroke-miterlimit="10" stroke-width="0.5"/><path d="M77.58,179.84a17,17,0,0,1-8.67,1.87c-3.18,0-6.82,0-9.68-1.59a1,1,0,0,0-.16.51v2.45a1,1,0,0,0,1,1H77a1,1,0,0,0,1-1v-2.45A1,1,0,0,0,77.58,179.84Z" fill="#ccc"/><rect x="59.08" y="184.09" width="18.91" height="4.46" rx="1.19" ry="1.19" fill="#ccc"/><path d="M60.09,188.55s.87,3.23,8.45,3.11S78,187.55,78,187.55" fill="#ccc"/><path d="M77.18,182.48a19.78,19.78,0,0,1-17.43,1c-.49-.21-.92.52-.43.73a20.67,20.67,0,0,0,18.28-1C78.08,182.95,77.66,182.22,77.18,182.48Z" fill="#afa7a1"/><path d="M76.43,186.9a18.51,18.51,0,0,1-16.24.68c-.49-.21-.92.51-.43.73a19.41,19.41,0,0,0,17.09-.68C77.33,187.38,76.9,186.65,76.43,186.9Z" fill="#afa7a1"/><path d="M83.76,146.43c-1.16,0-3.57-2.94-4.35-3.82a20,20,0,0,1-3.29-4.94c-4.69-10.15,1.59-23.78,13.29-24.59a21.65,21.65,0,0,1,2.49,0c7.67.35,13.53,8,14.23,15.22a21.38,21.38,0,0,1-1.85,10.63,16.07,16.07,0,0,1-2.91,4.3c-.83.88-3.33,3.58-4.61,3.55Z" fill="#fbb03b"/><path d="M87.47,147.19,86,126.9s-2.73-5-4.64-1.46,2.06,5.83,10.13,5.48,9.54-4.16,7.78-5.63-4.7.56-4.85,1.6-1.82,20.29-1.82,20.29" fill="none" stroke="#f2f2f2" stroke-miterlimit="10" stroke-width="0.5"/><path d="M100.16,144.16a17.83,17.83,0,0,1-9.06,2c-3.32,0-7.13,0-10.12-1.67a1,1,0,0,0-.17.53v2.57a1,1,0,0,0,1,1H99.54a1,1,0,0,0,1-1V145A1,1,0,0,0,100.16,144.16Z" fill="#ccc"/><rect x="80.8" y="148.6" width="19.78" height="4.67" rx="1.19" ry="1.19" fill="#ccc"/><path d="M81.85,153.27s.91,3.38,8.84,3.25,9.89-4.3,9.89-4.3" fill="#ccc"/><path d="M99.74,146.92a20.69,20.69,0,0,1-18.23,1c-.52-.22-1,.54-.45.76a21.62,21.62,0,0,0,19.12-1C100.68,147.41,100.23,146.64,99.74,146.92Z" fill="#afa7a1"/><path d="M98.95,151.55a19.37,19.37,0,0,1-17,.71c-.52-.22-1,.53-.45.76a20.3,20.3,0,0,0,17.88-.71C99.89,152,99.45,151.28,98.95,151.55Z" fill="#afa7a1"/><path d="M324.09,188.64c-1.11,0-3.41-2.81-4.16-3.65a19.16,19.16,0,0,1-3.14-4.72c-4.48-9.71,1.52-22.73,12.7-23.5a20.69,20.69,0,0,1,2.38,0c7.34.34,12.93,7.65,13.61,14.55a20.44,20.44,0,0,1-1.77,10.16,15.36,15.36,0,0,1-2.78,4.11c-.8.84-3.18,3.42-4.41,3.39Z" fill="#fbb03b"/><path d="M327.64,189.37,326.22,170s-2.61-4.76-4.43-1.39,2,5.57,9.69,5.24,9.12-4,7.44-5.38-4.49.54-4.63,1.53-1.74,19.4-1.74,19.4" fill="none" stroke="#f2f2f2" stroke-miterlimit="10" stroke-width="0.5"/><path d="M339.76,186.47a17,17,0,0,1-8.67,1.87c-3.18,0-6.82,0-9.68-1.59a1,1,0,0,0-.16.51v2.45a1,1,0,0,0,1,1h16.9a1,1,0,0,0,1-1v-2.45A1,1,0,0,0,339.76,186.47Z" fill="#ccc"/><rect x="321.26" y="190.72" width="18.91" height="4.46" rx="1.19" ry="1.19" fill="#ccc"/><path d="M322.26,195.18s.87,3.23,8.45,3.11,9.46-4.11,9.46-4.11" fill="#ccc"/><path d="M339.36,189.11a19.78,19.78,0,0,1-17.43,1c-.49-.21-.92.52-.43.73a20.67,20.67,0,0,0,18.28-1C340.26,189.57,339.83,188.84,339.36,189.11Z" fill="#afa7a1"/><path d="M338.6,193.53a18.51,18.51,0,0,1-16.24.68c-.49-.21-.92.51-.43.73a19.41,19.41,0,0,0,17.09-.68C339.51,194,339.08,193.27,338.6,193.53Z" fill="#afa7a1"/><path d="M223.47,72c-1.38,0-4.24-3.5-5.17-4.54a23.84,23.84,0,0,1-3.91-5.87c-5.58-12.08,1.89-28.29,15.81-29.25a25.75,25.75,0,0,1,3,0c9.13.42,16.09,9.52,16.93,18.11a25.44,25.44,0,0,1-2.2,12.64,19.12,19.12,0,0,1-3.46,5.11c-1,1-4,4.26-5.49,4.22Z" fill="#fbb03b"/><path d="M227.89,72.91l-1.77-24.14s-3.24-5.92-5.52-1.73S223,54,232.66,53.57s11.36-5,9.26-6.7-5.59.67-5.77,1.91S234,72.91,234,72.91" fill="none" stroke="#f2f2f2" stroke-miterlimit="10" stroke-width="0.5"/><path d="M243,69.31c-3.28,1.84-6.83,2.33-10.78,2.33s-8.49,0-12-2a1.21,1.21,0,0,0-.2.63v3.05a1.25,1.25,0,0,0,1.25,1.25h21a1.25,1.25,0,0,0,1.25-1.25V70.29A1.23,1.23,0,0,0,243,69.31Z" fill="#ccc"/><rect x="219.95" y="74.59" width="23.54" height="5.55" rx="1.19" ry="1.19" fill="#ccc"/><path d="M221.2,80.15s1.08,4,10.52,3.87,11.77-5.11,11.77-5.11" fill="#ccc"/><path d="M242.48,72.6a24.62,24.62,0,0,1-21.69,1.21c-.61-.26-1.15.64-.53.91A25.72,25.72,0,0,0,243,73.5C243.6,73.17,243.07,72.27,242.48,72.6Z" fill="#afa7a1"/><path d="M241.54,78.1a23,23,0,0,1-20.21.84c-.61-.27-1.15.64-.53.91A24.15,24.15,0,0,0,242.07,79C242.66,78.69,242.13,77.78,241.54,78.1Z" fill="#afa7a1"/></svg>