<svg xmlns="http://www.w3.org/2000/svg" xmlns:xlink="http://www.w3.org/1999/xlink" viewBox="0 0 400 300"><defs><linearGradient id="linear-gradient" x1="152.21" y1="163.9" x2="129.55" y2="197.27" gradientUnits="userSpaceOnUse"><stop offset="0" stop-color="#78b46a"/><stop offset="0.03" stop-color="#7f3500"/><stop offset="1" stop-color="#fff"/></linearGradient><linearGradient id="linear-gradient-2" x1="166.56" y1="230.11" x2="143.9" y2="263.48" xlink:href="#linear-gradient"/><linearGradient id="linear-gradient-3" x1="1831.45" y1="147.18" x2="1814.05" y2="166.26" gradientTransform="translate(-1538.93)" xlink:href="#linear-gradient"/></defs><title>A</title><g style="isolation:isolate"><g id="Layer_2" data-name="Layer 2"><path d="M200.42,286.63,367,193.12a8,8,0,0,0,.3-13.71L205.81,79.35a8,8,0,0,0-8.19-.12L21.39,181.51a8,8,0,0,0,0,13.77l157.14,91.18A22.07,22.07,0,0,0,200.42,286.63Z" fill="#ff6670"/><path d="M143.86,208.08c-20-11.7-40.46-22.69-45.47-26.21-.21-.17-1.89-.88-2.06-1l22.38-15.07,62.67,20.44C180.94,186.91,143.86,208.08,143.86,208.08Z" fill="url(#linear-gradient)" style="mix-blend-mode:multiply"/><path d="M157.56,274c-20-11.7-39.82-22.45-44.83-26-.21-.17-1.89-.88-2.06-1L133.06,232l62.67,20.44C195.29,253.12,157.56,274,157.56,274Z" fill="url(#linear-gradient-2)" style="mix-blend-mode:multiply"/><path d="M186.62,153l20.35,9.8a4.68,4.68,0,0,1,.33,8.27l-48.24,28.14a4.68,4.68,0,0,1-6.3-1.51L141,179.47" fill="#56403d"/><path d="M75.89,105.87,238.22,12.35a7.32,7.32,0,0,1,11,6.35V116a6.09,6.09,0,0,1-3,5.27l-173,99.87a3.93,3.93,0,0,1-5.89-3.4V120.85A17.28,17.28,0,0,1,75.89,105.87Z" fill="#68e1fd"/><path d="M238.2,19.7,80.81,110.27a11,11,0,0,0-5.53,9.57v72.93a4,4,0,0,0,6,3.46L241.76,104.1a3.93,3.93,0,0,0,2-3.41V22.91A3.7,3.7,0,0,0,238.2,19.7Z" fill="#193a42"/><ellipse cx="172.71" cy="153.41" rx="3.91" ry="3.42" transform="translate(-10.6 293.98) rotate(-79.1)" fill="#ab643c"/><path d="M257.67,163.07l42.47,24.27a2.92,2.92,0,0,1,0,5.06L182.2,260.24a9.42,9.42,0,0,1-9.41,0l-39.73-22.94a3,3,0,0,1,0-5.27l119.35-68.94A5.28,5.28,0,0,1,257.67,163.07Z" fill="#974c26"/><path d="M193.5,201.75l12.12,7.18-9,5.23c-2.54-1.48-9.81-5.77-12.16-7.16Z" fill="#fff"/><path d="M206.78,194l12.12,7.18-11.39,6.62c-2-1.15-9.34-5.49-12.17-7.16Z" fill="#fff"/><path d="M255,166l12.31,7.07-11,6.36c-1.73-1-9.17-5.39-12.17-7.16Z" fill="#fff"/><path d="M229.09,181.08l12.12,7.18-9,5.22c-2.13-1.24-9.44-5.55-12.17-7.16Z" fill="#fff"/><path d="M242.38,173.37l12.12,7.18-11.39,6.61c-1.34-.77-9-5.27-12.17-7.16Z" fill="#fff"/><path d="M182.61,208.08l12.12,7.18-8.61,5c-2.59-1.51-9.87-5.81-12.16-7.16Z" fill="#fff"/><path d="M218.2,187.41l12.12,7.18-9.53,5.53c-2.24-1.3-9.53-5.6-12.16-7.16Z" fill="#fff"/><path d="M172.11,214.17l12.12,7.18L172.84,228c-2.38-1.39-9.66-5.68-12.16-7.16Z" fill="#fff"/><polygon points="158.83 221.89 170.95 229.07 150.51 240.94 138.19 233.87 158.83 221.89" fill="#fff"/><path d="M268.92,175.19l12.31,7.07-15.92,9.25c-2.08-1.21-9.4-5.53-12.17-7.16Z" fill="#fff"/><path d="M238,193.14l12.12,7.18-9,5.23c-2.41-1.4-9.68-5.69-12.16-7.16Z" fill="#fff"/><path d="M215.71,206.09l12.12,7.18-11.39,6.62c-2.29-1.33-9.57-5.63-12.16-7.16Z" fill="#fff"/><path d="M227.13,199.46l12.12,7.18-9.53,5.53c-2.5-1.46-9.78-5.75-12.16-7.16Z" fill="#fff"/><path d="M202.42,213.81,214.54,221l-9,5.23c-2.78-1.62-10.1-5.95-12.16-7.16Z" fill="#fff"/><path d="M191.53,220.13l12.12,7.18-8.61,5c-2.83-1.65-10.17-6-12.16-7.16Z" fill="#fff"/><path d="M251.3,185.42l12.12,7.18L252,199.22c-1.8-1-9.21-5.41-12.17-7.16Z" fill="#fff"/><path d="M181,226.22l12.12,7.18L181.76,240c-2.63-1.54-9.92-5.84-12.16-7.16Z" fill="#fff"/><polygon points="179.87 241.12 164.39 250.11 152.08 243.04 167.75 233.94 179.87 241.12" fill="#fff"/><polygon points="188.94 239.89 197.96 245.25 187.5 251.3 178.34 246.04 188.94 239.89" fill="#fff"/><polygon points="185.34 252.56 176.44 257.71 167.27 252.47 176.33 247.21 185.34 252.56" fill="#fff"/><polygon points="284.12 184.62 293.55 189.86 282.84 196.06 273.58 190.74 284.12 184.62" fill="#fff"/><polygon points="271.58 191.9 280.69 197.31 269.25 203.94 260 198.63 271.58 191.9" fill="#fff"/><polygon points="257.99 199.79 267.08 205.19 200.13 243.99 190.96 238.72 257.99 199.79" fill="#fff"/><path d="M280.74,145.49l-17.34,10.28s5.37,9.42,18.61,15l20.2-10.86" fill="url(#linear-gradient-3)" style="mix-blend-mode:multiply"/><ellipse cx="294.85" cy="149.38" rx="16.08" ry="11.33" fill="#68e1fd"/><ellipse cx="294.86" cy="142.69" rx="12.05" ry="4.93" fill="#974c26"/><path d="M295.66,142.81c.95-1.33,1.9-2.73,2.89-4.29,1.27-2,2.47-4,3.56-6.15a40.59,40.59,0,0,0,2.6-5.82,48.61,48.61,0,0,0,1.9-6.68c.12-.6.23-1.19.33-1.79,0-.28.05-.25.05-.21s0-.19,0-.52c.11-1.22.19-2.43.2-3.66a30.75,30.75,0,0,0-2.39-12.32,53.11,53.11,0,0,0-8.6,21q-.13.67-.24,1.35s-.12.82-.17,1.16l-.13,1.14q-.09.86-.16,1.73c-.18,2.22-.26,4.44-.25,6.67C295.3,137.25,295.44,140,295.66,142.81Zm5.12-33.25q.44-.5.9-1h0a2,2,0,0,0-.06.86A2.76,2.76,0,0,0,300.78,109.56Z" fill="#999a1c"/><path d="M296,143c.08-1.63.12-3.32.12-5.17,0-2.37-.11-4.74-.33-7.09a40.59,40.59,0,0,0-1-6.3,48.61,48.61,0,0,0-2-6.65c-.22-.57-.45-1.13-.69-1.69-.11-.26-.09-.24-.07-.2l-.24-.46c-.57-1.08-1.15-2.15-1.81-3.18a30.75,30.75,0,0,0-8.67-9.07,53.11,53.11,0,0,0,4.13,22.34q.26.64.53,1.27l.48,1.07.5,1q.39.77.8,1.54c1.05,2,2.19,3.88,3.39,5.75C292.66,138.53,294.28,140.79,296,143ZM282.3,112.27q.1-.65.24-1.3h0a2,2,0,0,0,.42.76A2.76,2.76,0,0,0,282.3,112.27Z" fill="#999a1c"/><path d="M296,143.86c-.48-.91-1-1.83-1.61-2.83-.77-1.28-1.59-2.52-2.47-3.72a25.53,25.53,0,0,0-2.55-3.09,30.57,30.57,0,0,0-3.23-2.94l-.92-.69c-.14-.1-.12-.1-.1-.09l-.28-.17c-.66-.4-1.32-.79-2-1.14a19.34,19.34,0,0,0-7.61-2.1,33.4,33.4,0,0,0,9.44,10.72l.7.51.6.42.6.39.93.57q1.8,1.08,3.69,2C292.81,142.51,294.42,143.21,296,143.86Zm-17.3-12.18q-.16-.39-.29-.78h0a1.26,1.26,0,0,0,.47.27A1.73,1.73,0,0,0,278.74,131.68Z" fill="#999a1c"/><path d="M295.66,142.81c.95-1.33,1.9-2.73,2.89-4.29,1.27-2,2.47-4,3.56-6.15a40.59,40.59,0,0,0,2.6-5.82,48.61,48.61,0,0,0,1.9-6.68c.12-.6.23-1.19.33-1.79,0-.28.05-.25.05-.21s0-.19,0-.52c.11-1.22.19-2.43.2-3.66a30.75,30.75,0,0,0-2.39-12.32,53.11,53.11,0,0,0-8.6,21q-.13.67-.24,1.35s-.12.82-.17,1.16l-.13,1.14q-.09.86-.16,1.73c-.18,2.22-.26,4.44-.25,6.67C295.3,137.25,295.44,140,295.66,142.81Zm5.12-33.25q.44-.5.9-1h0a2,2,0,0,0-.06.86A2.76,2.76,0,0,0,300.78,109.56Z" fill="#999a1c"/><path d="M296,143c.08-1.63.12-3.32.12-5.17,0-2.37-.11-4.74-.33-7.09a40.59,40.59,0,0,0-1-6.3,48.61,48.61,0,0,0-2-6.65c-.22-.57-.45-1.13-.69-1.69-.11-.26-.09-.24-.07-.2l-.24-.46c-.57-1.08-1.15-2.15-1.81-3.18a30.75,30.75,0,0,0-8.67-9.07,53.11,53.11,0,0,0,4.13,22.34q.26.64.53,1.27l.48,1.07.5,1q.39.77.8,1.54c1.05,2,2.19,3.88,3.39,5.75C292.66,138.53,294.28,140.79,296,143ZM282.3,112.27q.1-.65.24-1.3h0a2,2,0,0,0,.42.76A2.76,2.76,0,0,0,282.3,112.27Z" fill="#999a1c"/><path d="M296,143.86c-.48-.91-1-1.83-1.61-2.83-.77-1.28-1.59-2.52-2.47-3.72a25.53,25.53,0,0,0-2.55-3.09,30.57,30.57,0,0,0-3.23-2.94l-.92-.69c-.14-.1-.12-.1-.1-.09l-.28-.17c-.66-.4-1.32-.79-2-1.14a19.34,19.34,0,0,0-7.61-2.1,33.4,33.4,0,0,0,9.44,10.72l.7.51.6.42.6.39.93.57q1.8,1.08,3.69,2C292.81,142.51,294.42,143.21,296,143.86Zm-17.3-12.18q-.16-.39-.29-.78h0a1.26,1.26,0,0,0,.47.27A1.73,1.73,0,0,0,278.74,131.68Z" fill="#999a1c"/><path d="M170.08,97.44a5,5,0,0,1,1.78-.65,2.75,2.75,0,0,1,2.75,1.08,11.8,11.8,0,0,0-2.37,7.7c.19,2.71,1.38,3.86,3.19,4a34.55,34.55,0,0,1-2.92,8.53,7.24,7.24,0,0,1-1.26,1.86c-.26.25-.53.46-.79.69a6.25,6.25,0,0,1-2.34.49,3.7,3.7,0,0,0-1.51.51,7.09,7.09,0,0,0-1.48,1.19l-2,2.09-.66.38a2,2,0,0,1-2-.52c-1.92-1.67-3.17-4.2-3.73-7.61-.09-.53-.14-1.09-.22-1.64l0-1.9c0-.12,0-.24,0-.37a17,17,0,0,1,1.44-6,11.42,11.42,0,0,1,4.09-5.1,3.93,3.93,0,0,1,1.68-.56c.59,0,1.19-.14,1.78-.21a1.15,1.15,0,0,0,.43-.15,1.82,1.82,0,0,0,.42-.35c.46-.49.92-.94,1.38-1.45A10.19,10.19,0,0,1,170.08,97.44Z" fill="#fff"/><path d="M170.13,90.12l.15-.08a9.18,9.18,0,0,1-.35,3.39A13.19,13.19,0,0,1,167,99a8.33,8.33,0,0,1-1,.8l-.06,0c-.14.08-.19,0-.2-.23a11.28,11.28,0,0,1,.87-4.51,11.54,11.54,0,0,1,3.48-4.94Z" fill="#fff"/></g></g></svg>