<svg xmlns="http://www.w3.org/2000/svg" xmlns:xlink="http://www.w3.org/1999/xlink" viewBox="0 0 400 300"><defs><linearGradient id="linear-gradient" x1="324.51" y1="185.86" x2="292.04" y2="207.39" gradientUnits="userSpaceOnUse"><stop offset="0.01" stop-color="#4d4d4d"/><stop offset="1" stop-color="#fff"/></linearGradient><linearGradient id="linear-gradient-2" x1="173.97" y1="192.59" x2="132.58" y2="253.54" xlink:href="#linear-gradient"/><linearGradient id="linear-gradient-3" x1="203.91" y1="160.79" x2="165.37" y2="202.37" gradientUnits="userSpaceOnUse"><stop offset="0" stop-color="#8997e8"/><stop offset="1" stop-color="#b3d1f4"/></linearGradient></defs><title>A</title><g style="isolation:isolate"><g id="Layer_2" data-name="Layer 2"><path d="M201.07,288.75l166.6-93.5a8,8,0,0,0,.3-13.71L206.47,81.48a8,8,0,0,0-8.19-.12L22.05,183.64a8,8,0,0,0,0,13.77L179.19,288.6A22.07,22.07,0,0,0,201.07,288.75Z" fill="#b8b3ba"/><path d="M290.8,220.54s43.24-24.93,43.51-25.34L318,178.27l-49.82,29.12Z" fill="url(#linear-gradient)" style="mix-blend-mode:multiply"/><path d="M132.59,261s72-42,72.41-42.7l-48.26-15.74-62.6,36.13Z" fill="url(#linear-gradient-2)" style="mix-blend-mode:multiply"/><path d="M230,114.26s-21.94-15.38-23.82-15.73-5.53,1.65-5.65,4.24,27,17,27,17" fill="#fff"/><path d="M174,196.73s12.27,5.43,22.89-10.38,16.28-41.05,13.45-52.85S195,115.56,192.5,114.26s32.2-3.18,37.39,6.73,9.72,21.94,4.51,49.55S212,210.4,212,210.4,191,223.63,190,224.1s-15.1,0-16,0-3.68-2.77-3.68-2.77" fill="url(#linear-gradient-3)"/><path d="M221.77,114.26l3.87,2.33A12.23,12.23,0,0,0,221.77,114.26Z" fill="#c7dcf7"/><path d="M168.74,153s12.25-23.58,29.2-32.19c18.64-9.48,28.87-3.26,32.45,13.92S227.65,173,227.65,173s1.37,1.37,2.42.95,4.43-7.38,4.32-25.92-1.44-27-12.62-33.76c-20.07-12.1-55,15.51-58.48,33.54S168.74,153,168.74,153Z" fill="#c7dcf9"/><path d="M201.7,102.16C169.83,85.73,138.23,136,138.23,136L165,150.95c.38-.33-4.77,7.29.38-.33,0,0,7.67-16,22.67-26.94,16.72-12.22,28.3-11.6,33.69-9.42Z" fill="#fff"/><path d="M175.91,221.45s5,5.06,16.16,0,24.15-12.36,34.83-30.67S234,138.4,234,138.4l-7.31-19.68s-1-4.54,3.26-4.46c0,0,10.49,8.3,8.29,43.32s-20.6,50-25,54.8S191.76,227.76,184.06,229s-13.2-4.53-13.2-4.53" fill="#c7dcf9"/><path d="M146.34,71a4.16,4.16,0,0,0,2.21-3.68V45.93a4.17,4.17,0,0,0-6.26-3.6l-33.5,19.54a4.17,4.17,0,0,0-2.07,3.7l1.18,27.06Z" fill="#68e1fd"/><polyline points="107.89 92.63 107.89 98.52 115.87 85.73" fill="#68e1fd"/><line x1="112.95" y1="68.7" x2="142.3" y2="51.87" fill="#ffac99"/><path d="M113.58,69.78,142.93,53a1.25,1.25,0,0,0-1.26-2.16L112.32,67.62a1.25,1.25,0,0,0,1.26,2.16Z" fill="#fff"/><line x1="114.42" y1="77.25" x2="143.77" y2="60.41" fill="#ffac99"/><path d="M115,78.33,144.4,61.49a1.25,1.25,0,0,0-1.26-2.16L113.79,76.17A1.25,1.25,0,0,0,115,78.33Z" fill="#fff"/><path d="M308.86,163.91s-3.4,27.29,12.07,32.58,23.75-8.46,24-32.58" fill="#68e1fd"/><ellipse cx="326.89" cy="163.91" rx="18.03" ry="9.73" fill="#06577a"/><path d="M326.89,163.91s0-37.81-19.32-53.19c0,0-10.3,6.15-7.72,15.57s13.67,2.41,15.59,7.36-3.8,6.39.09,11.43S326.89,154.18,326.89,163.91Z" fill="#99ce34"/><path d="M330.81,160.72s-1.59-43.84,8.16-56.85,16.12,4.86,11.74,12.83-12,6-9.3,12.83,7.51,10.44,2.13,13.38S330.41,155.15,330.81,160.72Z" fill="#99ce34"/><path d="M126.12,136.34V193.7a6.32,6.32,0,0,0,3.2,5.48l40.33,23.1a4.2,4.2,0,0,0,6.31-3.56V164.1a12.07,12.07,0,0,0-6.24-10.53l-37.33-20.81A4.2,4.2,0,0,0,126.12,136.34Z" fill="#c7dcf7"/><path d="M120.23,137.45l7.36-4.47s2.81,5.5-.28,6C125.17,139.38,120.23,137.45,120.23,137.45Z" fill="#c7dcf7"/><polygon points="166.81 226.49 173.78 222.33 166.92 218.89 166.81 226.49" fill="#c7dcf7"/><path d="M118.41,141.07v57.36a6.32,6.32,0,0,0,3.2,5.48L161.94,227a4.2,4.2,0,0,0,6.31-3.56V168.83A12.07,12.07,0,0,0,162,158.3l-37.33-20.81A4.2,4.2,0,0,0,118.41,141.07Z" fill="#193a42"/><path d="M170.91,187.62c-.95-.27-1.35-1.72-.9-3.25s1.59-2.54,2.53-2.27,1.35,1.72.9,3.25S171.86,187.89,170.91,187.62Z" fill="#193a42"/><path d="M174,182.51s-1.5-.62-1.62-.45-2,3.11-2,3.11l.22,1.55.28.89,1.44.41" fill="#193a42"/><path d="M172.35,188c-.95-.27-1.35-1.72-.9-3.25s1.59-2.54,2.53-2.27,1.35,1.72.9,3.25S173.29,188.3,172.35,188Z" fill="#3c6268"/><path d="M170.18,207.06V196.71s-.05-2,1.61-2.27,1.45,1.71,1.45,1.71V206a2.25,2.25,0,0,1-1.53,1.58C170.45,207.91,170.18,207.06,170.18,207.06Z" fill="#193a42"/><path d="M173.53,194.77l-1.2-.32s-.49,0-.35.41S173.53,194.77,173.53,194.77Z" fill="#193a42"/><polyline points="171.9 207.89 170.66 207.54 171.08 206.9 172.1 207.17" fill="#193a42"/><path d="M171.32,207.37V197s-.05-2,1.61-2.27,1.45,1.71,1.45,1.71v9.8a2.25,2.25,0,0,1-1.53,1.58C171.58,208.21,171.32,207.37,171.32,207.37Z" fill="#3c6268"/><path d="M145,170.14a4.85,4.85,0,0,1-.44,2.56,2.43,2.43,0,0,1-1.86,1.41,2,2,0,0,1-1.31-.36l-.12-.08-.08-.06,0,0c0-.17,0-.34,0-.51a4.12,4.12,0,0,1,.65-2.27,2.18,2.18,0,0,1,2.66-.89,3.34,3.34,0,0,1,.44.17Z" fill="#fff"/><path d="M144.58,175.81a7,7,0,0,1,.9.7,9.88,9.88,0,0,1,2.17,2.83,11.45,11.45,0,0,1,.57,1.3l-.34.09a2.27,2.27,0,0,0-1.46,1.52,6.07,6.07,0,0,0-.26,2.24,9.52,9.52,0,0,0,.39,2.36,11.85,11.85,0,0,0,1.55,3.26c.15.23.33.43.49.64l0,.13c-.11.3-.21.6-.33.89a7.43,7.43,0,0,1-1.59,2.44,2.42,2.42,0,0,1-1,.72,1.51,1.51,0,0,1-1.29-.24,3.15,3.15,0,0,1-.36-.27,11.39,11.39,0,0,1-1.2-1.27,7.42,7.42,0,0,0-1.4-1.33l-.07,0a3.72,3.72,0,0,0-1.5-.56c-.35-.05-.7-.1-1.06-.18a2,2,0,0,1-.58-.26,3.93,3.93,0,0,1-1.2-1.36c-.24-.4-.47-.83-.67-1.26a32.22,32.22,0,0,1-2.21-6.49,24.32,24.32,0,0,1-.64-5.39A8.56,8.56,0,0,1,134,173a2.5,2.5,0,0,1,2.88-1.81,3.55,3.55,0,0,1,1.28.52l.3.21a9.91,9.91,0,0,1,1.2,1.17l1.29,1.44a1.61,1.61,0,0,0,.3.26.79.79,0,0,0,.31.12l1.3.22a4.64,4.64,0,0,1,1.64.57Z" fill="#fff"/><path d="M227.65,173s-19.19-7.67-19.91-8.5.42-4.25.42-4.25l-1.63,5.25s18.56,9.48,23.54,8.45" fill="#06577a" opacity="0.19"/><path d="M253.57,33.07V82.69a5.47,5.47,0,0,0,2.77,4.74l34.89,20a3.63,3.63,0,0,0,5.46-3.08V57.08a10.44,10.44,0,0,0-5.4-9.11L259,30A3.63,3.63,0,0,0,253.57,33.07Z" fill="#68e1fd"/><ellipse cx="274.03" cy="54.22" rx="4.92" ry="6.68" transform="translate(-0.77 104.4) rotate(-21.54)" fill="#fff"/><ellipse cx="265.08" cy="65.58" rx="4.92" ry="6.68" transform="translate(-5.57 101.9) rotate(-21.54)" fill="#fff"/><ellipse cx="284.09" cy="72.51" rx="4.92" ry="6.68" transform="translate(-6.78 109.37) rotate(-21.54)" fill="#fff"/><ellipse cx="274.03" cy="83.19" rx="4.92" ry="6.68" transform="matrix(0.93, -0.37, 0.37, 0.93, -11.41, 106.42)" fill="#fff"/></g></g></svg>