<svg id="Layer_2" data-name="Layer 2" xmlns="http://www.w3.org/2000/svg" viewBox="0 0 400 300"><title>PP_</title><path d="M190.64,291.1,15.06,187.33C9.47,184.2,4.68,179,10.13,175.66L186.34,74.11C189,72.47,193,71.4,195.69,73L380,179.92c5.59,3.25,6.59,12.31,1,15.56L213.79,290.94A23.35,23.35,0,0,1,190.64,291.1Z" fill="#a19ae5"/><g style="isolation:isolate"><path d="M194.52,82.49v28a2.28,2.28,0,0,1,0,.4,5.42,5.42,0,0,0-.09,1v-28a5.42,5.42,0,0,1,.09-1A2.28,2.28,0,0,0,194.52,82.49Z" fill="#68e1fd"/><path d="M194.84,86.51v28a2,2,0,0,1-.51,1.34.81.81,0,0,0-.24.51v-28a.81.81,0,0,1,.24-.51A2,2,0,0,0,194.84,86.51Z" fill="#68e1fd"/><path d="M182.84,88.36v28c-.07-.83-.13-1.52-.19-2.1v-28C182.71,86.84,182.77,87.53,182.84,88.36Z" fill="#68e1fd"/><path d="M176.5,90.15v28a3.42,3.42,0,0,0,0-.42c-.24-1.76-.34-3.54-.48-5.32v-28c.14,1.77.24,3.55.48,5.32A3.42,3.42,0,0,1,176.5,90.15Z" fill="#68e1fd"/><path d="M196.13,89.84v28a.77.77,0,0,1-.29.51v-28A.77.77,0,0,0,196.13,89.84Z" fill="#68e1fd"/><path d="M195.7,118.78v-28a.49.49,0,0,1,.15-.37v28A.49.49,0,0,0,195.7,118.78Z" fill="#68e1fd"/><path d="M195.8,91.31v28a.76.76,0,0,1-.42.66,3.23,3.23,0,0,1-1.45.35v-28a3.23,3.23,0,0,0,1.45-.35A.76.76,0,0,0,195.8,91.31Z" fill="#68e1fd"/><path d="M194.78,93.9v28a1,1,0,0,1-.59.88,6.35,6.35,0,0,1-2.59.65,5.24,5.24,0,0,0-2.25.59,2,2,0,0,0-.83,1,3.53,3.53,0,0,0-.37,1.34v-28a3.53,3.53,0,0,1,.37-1.34,2,2,0,0,1,.83-1,5.24,5.24,0,0,1,2.25-.59,6.35,6.35,0,0,0,2.59-.65A1,1,0,0,0,194.78,93.9Z" fill="#68e1fd"/><path d="M132.51,126v-28a1.11,1.11,0,0,0,.25.62c.15.21.28.42.44.68v28c-.16-.26-.29-.47-.44-.68A1.11,1.11,0,0,1,132.51,126Z" fill="#68e1fd"/><path d="M191.93,102.68v28l-2.16-.06v-28Z" fill="#68e1fd"/><path d="M189.46,132.38v-28c0-.25.25-.51.75-.81l.46-.26v28l-.46.26C189.71,131.87,189.46,132.13,189.46,132.38Z" fill="#68e1fd"/><path d="M129.3,129.05V101a.2.2,0,0,0,0,0c.09.46,1,.87,1.59,1.29s1.45.8,1.72,1.27c.76,1.35,1.66,1.65,4,1a13.08,13.08,0,0,1,4.71-.28c5.35.55,9.32,2.16,11.51,4.87a12.69,12.69,0,0,0,5.74,3.66c.56.2,1.26.48,1.39.8v28c-.14-.31-.83-.6-1.39-.8a12.69,12.69,0,0,1-5.74-3.66c-2.18-2.72-6.15-4.32-11.51-4.87a13.08,13.08,0,0,0-4.71.28c-2.35.62-3.24.32-4-1-.26-.47-1.14-.84-1.72-1.27s-1.5-.83-1.59-1.29A.2.2,0,0,1,129.3,129.05Z" fill="#68e1fd"/><path d="M132.15,105.91v28a1.81,1.81,0,0,1-1,1.65,11,11,0,0,1-2.69,1v-28a11,11,0,0,0,2.69-1A1.81,1.81,0,0,0,132.15,105.91Z" fill="#68e1fd"/><path d="M125.91,134.66v-28a.17.17,0,0,0,.06.14c.78.64,1.66,1.23,2.49,1.83v28c-.82-.59-1.71-1.19-2.49-1.83A.17.17,0,0,1,125.91,134.66Z" fill="#68e1fd"/><path d="M126.58,105.86c1.31-.8,3-1,5.51-.59a1.9,1.9,0,0,1-1,2.28,11,11,0,0,1-2.69,1c-.82-.59-1.71-1.19-2.49-1.83-.16-.13,0-.48.25-.64Z" fill="#68e1fd"/><path d="M197.93,109.4v28l-.24.27v-28Z" fill="#68e1fd"/><path d="M160,114.11v28a1.17,1.17,0,0,0-.08-.43v-28A1.17,1.17,0,0,1,160,114.11Z" fill="#68e1fd"/><path d="M172.75,144.43v-28a5.57,5.57,0,0,1,.2-1.57,1.6,1.6,0,0,1,.75-1,5.57,5.57,0,0,1,2.79-.54,11.24,11.24,0,0,0,1.51,0c1.2-.19,2.36-.45,3.53-.69a10.87,10.87,0,0,1,2.44-.52,20,20,0,0,0,8.53-1.62,12.21,12.21,0,0,1,2.62-.53c.84-.13,1.72-.19,2.57-.27v28c-.85.09-1.73.15-2.57.27a12.21,12.21,0,0,0-2.62.53,20,20,0,0,1-8.53,1.62,10.87,10.87,0,0,0-2.44.52c-1.17.24-2.33.5-3.53.69a11.24,11.24,0,0,1-1.51,0,5.57,5.57,0,0,0-2.79.54,1.6,1.6,0,0,0-.75,1A5.57,5.57,0,0,0,172.75,144.43Z" fill="#68e1fd"/><path d="M172.84,118.09v28a1.15,1.15,0,0,1-.66,1.06v-28A1.15,1.15,0,0,0,172.84,118.09Z" fill="#68e1fd"/><path d="M166.06,149.93v-28a1,1,0,0,1,.56-.83,2.65,2.65,0,0,1,1.37-.35,5.66,5.66,0,0,0,3.36-1.07l.82-.49v28l-.82.49a5.66,5.66,0,0,1-3.36,1.07,2.65,2.65,0,0,0-1.37.35A1,1,0,0,0,166.06,149.93Z" fill="#68e1fd"/><path d="M182.53,121.61v28a1.61,1.61,0,0,1-.52,1,20.58,20.58,0,0,1-1.72,1.8v-28a20.58,20.58,0,0,0,1.72-1.8A1.61,1.61,0,0,0,182.53,121.61Z" fill="#68e1fd"/><path d="M181.52,153V125a0,0,0,0,0,0,0v28A0,0,0,0,1,181.52,153Z" fill="#68e1fd"/><path d="M180.3,124.38v28a2.53,2.53,0,0,1-1.2.34,2.91,2.91,0,0,0-1.35.27.68.68,0,0,0-.34.49.42.42,0,0,1-.18.28v-28a.42.42,0,0,0,.18-.28.68.68,0,0,1,.34-.49,2.91,2.91,0,0,1,1.35-.27A2.53,2.53,0,0,0,180.3,124.38Z" fill="#68e1fd"/><path d="M191.63,126.2v28c0-.61-.82-1.08-1.9-1.29v-28C190.81,125.11,191.63,125.58,191.63,126.2Z" fill="#68e1fd"/><path d="M176.71,154.57v-28c0-.23.17-.48.53-.76v28C176.88,154.09,176.71,154.34,176.71,154.57Z" fill="#68e1fd"/><path d="M189.73,124.91v28l-3.22,2.42v-28Z" fill="#68e1fd"/><path d="M186.51,127.33v28a1.7,1.7,0,0,1-1.78.1c-1.16-.76-2.19-1.58-3.21-2.4V125c1,.82,2,1.64,3.21,2.4A1.7,1.7,0,0,0,186.51,127.33Z" fill="#68e1fd"/><path d="M178.83,128v28c0,.13-.1.28-.3.44v-28C178.73,128.32,178.83,128.18,178.83,128Z" fill="#68e1fd"/><path d="M188.83,129.61v28l-2.77-1.2v-28Z" fill="#68e1fd"/><path d="M178.53,128.49v28c-.17.15-.21.34-.38.48a9,9,0,0,1-1,1,1.06,1.06,0,0,1-.42.15,6.59,6.59,0,0,1-4.34-.54c-.85-.56-1.65-1.14-2.43-1.73a2.62,2.62,0,0,0-2.7-.35,5.42,5.42,0,0,1-4.56-.15,19.31,19.31,0,0,0-3.38-1c-1-.24-1.48-.55-1.58-1.17-.26-1.63-.72-3.25-1-4.87-.09-.44-.38-.68-1.15-.81s-1.41-.41-2.16-.49c-2.1-.23-2.73-1-2.77-2.1v-28c0,1.09.67,1.86,2.77,2.1.75.08,1.42.36,2.16.49s1.06.37,1.15.81c.31,1.62.76,3.24,1,4.87.1.62.61.93,1.58,1.17a19.31,19.31,0,0,1,3.38,1,5.42,5.42,0,0,0,4.56.15,2.62,2.62,0,0,1,2.7.35c.78.59,1.59,1.17,2.43,1.73a6.59,6.59,0,0,0,4.34.54,1.06,1.06,0,0,0,.42-.15,9,9,0,0,0,1-1C178.32,128.82,178.36,128.63,178.53,128.49Z" fill="#68e1fd"/><path d="M179,157.29v-28a3.52,3.52,0,0,0,1,1.89c.18.21,1.3.18,2,.25.29,0,.59,0,.91,0v28c-.32,0-.61,0-.91,0-.7-.07-1.82,0-2-.25A3.52,3.52,0,0,1,179,157.29Z" fill="#68e1fd"/><path d="M184,133.67v28c0-.27-.21-.49-.69-.73s-.7-.35-.7-.59v-28c0,.24.21.35.7.59S184,133.39,184,133.67Z" fill="#68e1fd"/><path d="M183.57,163v-28c0,1.13,1.58,1.9,4,1.81v28C185.15,164.89,183.57,164.12,183.57,163Z" fill="#68e1fd"/><path d="M192.62,138.67v28a1.79,1.79,0,0,0-.23-.83c-.44-.83-1.49-1.16-3.6-1.13l-1.25,0v-28l1.25,0c2.11,0,3.16.3,3.6,1.13A1.79,1.79,0,0,1,192.62,138.67Z" fill="#68e1fd"/><path d="M226.26,168.28v-28q0-.11,0-.23a1.25,1.25,0,0,1,.64-1,3.47,3.47,0,0,1,2.08-.35,3,3,0,0,0,1.75-.34.9.9,0,0,0,.49-.72v28a.9.9,0,0,1-.49.72,3,3,0,0,1-1.75.34,3.47,3.47,0,0,0-2.08.35,1.25,1.25,0,0,0-.64,1Q226.26,168.17,226.26,168.28Z" fill="#68e1fd"/><path d="M202,142.65v28c0-.53-.51-.93-1.4-1.2-3.53-1.12-3.76-1.11-6.61.13-.76.33-1.52.65-2.29,1a1.46,1.46,0,0,1-1.77-.25c-.38-.39-.58-.67-.58-.91v-28c0,.24.21.52.58.91a1.46,1.46,0,0,0,1.77.25c.78-.31,1.53-.64,2.29-1,2.85-1.24,3.08-1.25,6.61-.13C201.47,141.72,202,142.12,202,142.65Z" fill="#68e1fd"/><path d="M243.43,145.92v28c0,.2-.24.46-.52.63v-28C243.19,146.38,243.43,146.12,243.43,145.92Z" fill="#68e1fd"/><path d="M242.25,175.29v-28c0-.19.19-.41.67-.69v28C242.44,174.88,242.25,175.1,242.25,175.29Z" fill="#68e1fd"/><path d="M208.5,149.14v28c0-1.21-.84-2.25-2.5-3.13-.76-.4-1.56-.78-2.37-1.16-1-.49-1.69-1.06-1.69-1.81V143c0,.75.65,1.32,1.69,1.81.81.37,1.61.75,2.37,1.16C207.66,146.89,208.5,147.93,208.5,149.14Z" fill="#68e1fd"/><path d="M245.42,150.15v28a.71.71,0,0,1-.35.52c-.24.18-.36.35-.36.51v-28c0-.16.12-.33.36-.51A.71.71,0,0,0,245.42,150.15Z" fill="#68e1fd"/><path d="M213.42,153.4v28c0-.27-.22-.52-.68-.75-1.26-.63-2.53-1.25-3.68-1.93a1.2,1.2,0,0,1-.64-.87v-28a1.2,1.2,0,0,0,.64.87c1.15.68,2.42,1.3,3.68,1.93C213.2,152.88,213.42,153.13,213.42,153.4Z" fill="#68e1fd"/><path d="M209.74,157.75v28a.85.85,0,0,1-.22.53.41.41,0,0,0-.09.27v-28a.41.41,0,0,1,.09-.27A.85.85,0,0,0,209.74,157.75Z" fill="#68e1fd"/><path d="M212,184.92v-28a4.12,4.12,0,0,0,.49,1.9v28A4.12,4.12,0,0,1,212,184.92Z" fill="#68e1fd"/><path d="M261.94,187.32v-28c0-.49.4-1.09,1.1-2a5,5,0,0,0,1.1-2.71v28a5,5,0,0,1-1.1,2.71C262.33,186.23,261.94,186.83,261.94,187.32Z" fill="#68e1fd"/><path d="M215.43,161v28l-1.9,0v-28Z" fill="#68e1fd"/><path d="M201.69,187.18v-28c0,.51.24,1.1,1.3,1.38,1.29.33,2.63.6,3.92.9v28c-1.29-.29-2.63-.56-3.92-.9C201.93,188.29,201.69,187.7,201.69,187.18Z" fill="#68e1fd"/><path d="M213.57,162.62v28l-.49-.17v-28Z" fill="#68e1fd"/><path d="M213.08,162.46v28l-3.55,1.69v-28Z" fill="#68e1fd"/><path d="M206.68,190.18v-28c0,.8,1,1.41,2.86,2v28C207.65,191.59,206.68,191,206.68,190.18Z" fill="#68e1fd"/><path d="M260.26,168.64v28c-1-2.2-1.9-4.37-2.92-6.53a2.57,2.57,0,0,0-1.34-.84v-28a2.57,2.57,0,0,1,1.34.84C258.36,164.27,259.3,166.44,260.26,168.64Z" fill="#68e1fd"/><path d="M256.06,162v28c0,.78-.14,1.57-.14,2.34v-28C255.92,163.61,256.06,162.83,256.06,162Z" fill="#68e1fd"/><path d="M207.79,165.53v28l-1.77.86v-28Z" fill="#68e1fd"/><path d="M204,167.07v28l-4.13-2v-28Z" fill="#68e1fd"/><path d="M266.87,163v28c0,.36-.34.81-.91,1.6a15.14,15.14,0,0,0-1.54,3,1.15,1.15,0,0,1-.48.47,5,5,0,0,1-2.59.62c-.35,0-.71-.07-1.1-.11v-28c.39,0,.74.1,1.1.11a5,5,0,0,0,2.59-.62,1.15,1.15,0,0,0,.48-.47,15.14,15.14,0,0,1,1.54-3C266.53,163.85,266.87,163.4,266.87,163Z" fill="#68e1fd"/><path d="M257.42,167.71v28c0,.5-1.16.84-1.44,1.48v-28C256.26,168.55,257.42,168.21,257.42,167.71Z" fill="#68e1fd"/><path d="M256,169.19v28c-.79-.48-1.32-.77-1.78-1.09a1.94,1.94,0,0,0-2.5-.12V168a1.94,1.94,0,0,1,2.5.12C254.67,168.42,255.2,168.71,256,169.19Z" fill="#68e1fd"/><path d="M250,197.61v-28c0-.4.59-.82,1.76-1.58v28C250.55,196.79,250,197.21,250,197.61Z" fill="#68e1fd"/><path d="M212,170.49v28c0-1.19-.21-1.34-2-1.64v-28C211.82,169.15,212,169.3,212,170.49Z" fill="#68e1fd"/><path d="M210,168.85v28c0,.82-.06,1.74-.09,2.65v-28C210,170.59,210,169.67,210,168.85Z" fill="#68e1fd"/><path d="M210,171.51v28l-.35.1v-28Z" fill="#68e1fd"/><path d="M204.76,199.08V171a.5.5,0,0,1,.28-.41,1.64,1.64,0,0,1,.4-.17,3.2,3.2,0,0,1,1.5-.1c1,.36,1.79.83,2.66,1.25v28c-.87-.42-1.7-.89-2.66-1.25a3.2,3.2,0,0,0-1.5.1,1.64,1.64,0,0,0-.4.17A.5.5,0,0,0,204.76,199.08Z" fill="#68e1fd"/><path d="M212.18,171.86v28c0-.45-.13-.91-.14-1.37v-28C212,171,212.18,171.41,212.18,171.86Z" fill="#68e1fd"/><path d="M246.87,202.2v-28a.25.25,0,0,1,0-.15v28A.25.25,0,0,0,246.87,202.2Z" fill="#68e1fd"/><path d="M256.55,174.53v28c0,.53-.39,1.12-1.17,1.81v-28C256.16,175.65,256.55,175.07,256.55,174.53Z" fill="#68e1fd"/><path d="M255.38,176.34v28c-1.85-.47-3.78-.92-5.6-1.48-.41-.12-.51-.6-.63-.92s-.38-.76-1.18-.62a1.5,1.5,0,0,0-.53.21,2.33,2.33,0,0,0-.54.47V174a2.33,2.33,0,0,1,.54-.47,1.5,1.5,0,0,1,.53-.21c.8-.13,1,.24,1.18.62s.22.8.63.92C251.6,175.42,253.53,175.86,255.38,176.34Z" fill="#68e1fd"/><path d="M247.82,176.27v28a3.39,3.39,0,0,1-.12.86,1.81,1.81,0,0,0-.05.43v-28a1.81,1.81,0,0,1,.05-.43A3.39,3.39,0,0,0,247.82,176.27Z" fill="#68e1fd"/><path d="M209.12,179.28v28a5.11,5.11,0,0,0-2.15-4.09,14.35,14.35,0,0,0-3.63-1.78c-2.33-.88-3.49-1.7-3.49-2.63v-28c0,.93,1.16,1.74,3.49,2.63a14.35,14.35,0,0,1,3.63,1.78A5.11,5.11,0,0,1,209.12,179.28Z" fill="#68e1fd"/><path d="M248.24,179.11v28c0,.48-.37.92-1,1.29-1.22.75-2.62,1.34-3.85,2v-28c1.22-.68,2.63-1.28,3.85-2C247.86,180,248.24,179.59,248.24,179.11Z" fill="#68e1fd"/><path d="M239.3,184.55v28l-1.63.5v-28Z" fill="#68e1fd"/><path d="M243.4,182.43v28a1.9,1.9,0,0,0-.86.9,18.18,18.18,0,0,1-.44,1.93v-28a18.18,18.18,0,0,0,.44-1.93A1.9,1.9,0,0,1,243.4,182.43Z" fill="#68e1fd"/><path d="M209.12,207.63v-28a22.1,22.1,0,0,0,.43,3.66c.18,1,1.13,1.79,3.06,2.1.55.09,1,.24,1.73.4v28c-.69-.16-1.19-.31-1.73-.4-1.93-.31-2.88-1.06-3.06-2.1A22.1,22.1,0,0,1,209.12,207.63Z" fill="#68e1fd"/><path d="M240.76,186.46v28c-1.8-.43-1.27-1.21-1.45-1.91v-28C239.49,185.25,239,186,240.76,186.46Z" fill="#68e1fd"/><path d="M242.1,185.27v28c-.23.44-.9.81-1.35,1.19v-28C241.2,186.08,241.87,185.71,242.1,185.27Z" fill="#68e1fd"/><path d="M238.65,185.92v28c0,.19-.14.4-.44.62v-28C238.51,186.32,238.65,186.11,238.65,185.92Z" fill="#68e1fd"/><path d="M238.21,186.54v28c-1.2.75-2.26.06-3.31,0v-28C235.95,186.6,237,187.29,238.21,186.54Z" fill="#68e1fd"/><path d="M214,187.88v28l-1.53-1.43v-28Z" fill="#68e1fd"/><path d="M243.22,188.81v28c0,.12-.08.22-.23.32a4.34,4.34,0,0,1-1.19.39,13.73,13.73,0,0,0-3.49,1c-.73.45-.81,1.07-.93,2.41t0,.06V193s0,0,0-.06c.12-1.34.2-2,.93-2.41a13.73,13.73,0,0,1,3.49-1,4.34,4.34,0,0,0,1.19-.39C243.14,189,243.22,188.92,243.22,188.81Z" fill="#68e1fd"/><path d="M246,194.43v28a1.76,1.76,0,0,0-.48.2,3.09,3.09,0,0,0-.52.43v-28a3.09,3.09,0,0,1,.52-.43A1.76,1.76,0,0,1,246,194.43Z" fill="#68e1fd"/><path d="M245,195.06v28a2.79,2.79,0,0,1-.51.43,2.48,2.48,0,0,1-1.7.23v-28a2.48,2.48,0,0,0,1.7-.23A2.79,2.79,0,0,0,245,195.06Z" fill="#68e1fd"/><path d="M241,224.22v-28s0-.05,0-.08v28S241,224.19,241,224.22Z" fill="#68e1fd"/><path d="M200.78,196.61v28a.22.22,0,0,0,0-.1.88.88,0,0,1-.09-.39v-28a.88.88,0,0,0,.09.39A.22.22,0,0,1,200.78,196.61Z" fill="#68e1fd"/><path d="M242.62,196.69v28l-1.6-.6v-28Z" fill="#68e1fd"/><path d="M242.78,195.71v28c0,.29-.1.58-.17,1v-28C242.68,196.29,242.74,196,242.78,195.71Z" fill="#68e1fd"/><path d="M225.68,197v28c0-.35-.43-.65-1.35-1v-28C225.25,196.4,225.68,196.69,225.68,197Z" fill="#68e1fd"/><path d="M221.92,227.09V199a.35.35,0,0,1,0-.08,6,6,0,0,1,2.41-2.87v28a6,6,0,0,0-2.41,2.87A.35.35,0,0,0,221.92,227.09Z" fill="#68e1fd"/><path d="M218.8,199.52v28l-2.43-.72v-28Z" fill="#68e1fd"/><path d="M199.61,200.37v28c0-.53-1.43-.67-1.6-1.28v-28C198.18,199.7,199.61,199.85,199.61,200.37Z" fill="#68e1fd"/><path d="M225.46,200.38v28a1.35,1.35,0,0,0-.39-.86,1.22,1.22,0,0,1-.36-.8v-28a1.22,1.22,0,0,0,.36.8A1.35,1.35,0,0,1,225.46,200.38Z" fill="#68e1fd"/><path d="M193.24,202.47v28c0-.15-.24-.33-.7-.68a1,1,0,0,1-.41-.78V201a1,1,0,0,0,.41.78C193,202.14,193.24,202.33,193.24,202.47Z" fill="#68e1fd"/><path d="M218.6,228.67v-28a1.76,1.76,0,0,0,1.58,1.78,5.45,5.45,0,0,0,4.22-1.23v28a5.45,5.45,0,0,1-4.22,1.23A1.76,1.76,0,0,1,218.6,228.67Z" fill="#68e1fd"/><path d="M212.59,230.85v-28a4.37,4.37,0,0,1,2.36-3.33,7.18,7.18,0,0,1,1.43-.67v28a7.18,7.18,0,0,0-1.43.67A4.37,4.37,0,0,0,212.59,230.85Z" fill="#68e1fd"/><path d="M225.43,228.74v-28c0,.37.33.57,1,.67a6.68,6.68,0,0,1,3,1.14,8.35,8.35,0,0,0,.8.4v28a8.35,8.35,0,0,1-.8-.4,6.68,6.68,0,0,0-3-1.14C225.76,229.31,225.44,229.1,225.43,228.74Z" fill="#68e1fd"/><path d="M242.46,197.7v28a2,2,0,0,1-.15.52,21.41,21.41,0,0,1-1.08,3.33,2.24,2.24,0,0,1-.82,1c-.69.42-1.67.37-3.13-.09a3.1,3.1,0,0,0-1.9,0,4.56,4.56,0,0,1-1.86,0c-1.53-.39-1.92-.5-2.55-.12a9.15,9.15,0,0,0-.8.59v-28a9.15,9.15,0,0,1,.8-.59c.63-.39,1-.27,2.55.12a4.56,4.56,0,0,0,1.86,0,3.1,3.1,0,0,1,1.9,0c1.46.46,2.44.52,3.13.09a2.24,2.24,0,0,0,.82-1,21.41,21.41,0,0,0,1.08-3.33A2,2,0,0,0,242.46,197.7Z" fill="#68e1fd"/><path d="M228.63,235.92v-28a4.68,4.68,0,0,1,1.64-3.23v28A4.68,4.68,0,0,0,228.63,235.92Z" fill="#68e1fd"/><path d="M191.11,208v28c0-.52-.68-.63-2.3-.53-1.17.07-1.83-.22-1.83-.79v-28c0,.57.66.86,1.83.79C190.44,207.38,191.11,207.49,191.11,208Z" fill="#68e1fd"/><path d="M213.1,204.8v28a2.3,2.3,0,0,1-1.11,1.76c-1.28,1-1.81,2.28-2.8,3.39-.6.67-1.55,1.24-2.23,1.88-.34.32-.71.71-.71,1.06v-28c0-.35.37-.74.71-1.06.68-.65,1.63-1.22,2.23-1.88,1-1.12,1.52-2.39,2.8-3.39A2.3,2.3,0,0,0,213.1,204.8Z" fill="#68e1fd"/><path d="M214,209.55v28c0-.25-.42-.37-1.23-.38s-1.59-.06-2.79-.12v-28c1.2.05,2,.11,2.79.12S214,209.3,214,209.55Z" fill="#68e1fd"/><path d="M189.65,213.4v28a.16.16,0,0,0,0-.06,2.72,2.72,0,0,1-.2-1v-28a2.72,2.72,0,0,0,.2,1A.16.16,0,0,1,189.65,213.4Z" fill="#68e1fd"/><path d="M219.35,241.77v-28c0-.18.12-.34.37-.5a4.22,4.22,0,0,1,1-.39,22.85,22.85,0,0,1,7.91-1.11,20.74,20.74,0,0,0,2.3-.14v28a20.74,20.74,0,0,1-2.3.14,22.85,22.85,0,0,0-7.91,1.11,4.22,4.22,0,0,0-1,.39C219.47,241.42,219.35,241.59,219.35,241.77Z" fill="#68e1fd"/><path d="M206.3,213.5v28a1.47,1.47,0,0,1-.67,1.39c-.64.39-1.78.5-3.63.4v-28c1.84.1,3,0,3.63-.4A1.47,1.47,0,0,0,206.3,213.5Z" fill="#68e1fd"/><path d="M201.57,244.33v-28a1.5,1.5,0,0,1,.44-1v28A1.5,1.5,0,0,0,201.57,244.33Z" fill="#68e1fd"/><path d="M206.66,241.7v-28a1,1,0,0,0,.18.55,8.83,8.83,0,0,0,4.49,3.45v28a8.83,8.83,0,0,1-4.49-3.45A1,1,0,0,1,206.66,241.7Z" fill="#68e1fd"/><path d="M223.2,218v28a1.63,1.63,0,0,1-.07.46,1.59,1.59,0,0,0-.06.43v-28a1.59,1.59,0,0,1,.06-.43A1.63,1.63,0,0,0,223.2,218Z" fill="#68e1fd"/><path d="M203.58,219.3v28a.48.48,0,0,1-.28.41,8.51,8.51,0,0,1-2.65.62c-1.37.2-2.67.38-3.75-.37a1.32,1.32,0,0,0-1.43,0v-28a1.32,1.32,0,0,1,1.43,0c1.08.74,2.38.56,3.75.37a8.51,8.51,0,0,0,2.65-.62A.48.48,0,0,0,203.58,219.3Z" fill="#68e1fd"/><path d="M195.47,219.94v28c-.45.33-1,.65-1,1v-28C194.51,220.6,195,220.27,195.47,219.94Z" fill="#68e1fd"/><path d="M222.18,221.07v28c0-.2-.32-.4-1-.68l-1.26-.48v-28l1.26.48C221.86,220.67,222.18,220.87,222.18,221.07Z" fill="#68e1fd"/><path d="M219.92,219.9v28c-.54.66-1,1.25-1.51,1.84a6.36,6.36,0,0,1-.92.92l-.15.1a1.44,1.44,0,0,1-1.65-.09c-.08-.06-.19-.12-.23-.19-.45-.89-1.48-1.37-3.2-1.42-.27,0-.75-.21-.76-.33-.1-1-.12-2.07-.17-3.08v-28c.05,1,.07,2,.17,3.08,0,.12.49.32.76.33,1.72.05,2.75.52,3.2,1.42,0,.07.14.13.23.19a1.44,1.44,0,0,0,1.65.09l.15-.1a6.36,6.36,0,0,0,.92-.92C218.91,221.15,219.38,220.56,219.92,219.9Z" fill="#68e1fd"/><path d="M209.95,222.27v28l-2.14,1.07v-28Z" fill="#68e1fd"/><path d="M190.35,251.54v-28a.56.56,0,0,1,.32-.46,2.23,2.23,0,0,1,.95-.26,5.12,5.12,0,0,0,2.17-.55,1.42,1.42,0,0,0,.72-1.31v28a1.42,1.42,0,0,1-.72,1.31,5.12,5.12,0,0,1-2.17.55,2.23,2.23,0,0,0-.95.26A.56.56,0,0,0,190.35,251.54Z" fill="#68e1fd"/><path d="M226.94,221.76v28c0,.25-.27.53-.81.86l-.15.09c-.81.47-1.67.92-2.62,1.44v-28c1-.53,1.81-1,2.62-1.44l.15-.09C226.67,222.29,226.94,222,226.94,221.76Z" fill="#68e1fd"/><path d="M223.36,224.16v28l-1.3-1.57v-28Z" fill="#68e1fd"/><path d="M215.48,204.51a4.2,4.2,0,0,1,2.66-.55,5.07,5.07,0,0,0,1.95-.31,4.23,4.23,0,0,1,3.14,0,11.79,11.79,0,0,0,4.41.73,20.86,20.86,0,0,1,2.62.27c-2.38,2.39-2.17,4.66.64,6.94a20.74,20.74,0,0,1-2.3.14,22.85,22.85,0,0,0-7.91,1.11,4.22,4.22,0,0,0-1,.39c-.57.35-.46.76.24,1.33s1.44,1,2.1,1.59c.84.71,1.34,1.47,1.08,2.35-.3,1.07.47,1.83,2.22,2.32s2.06,1,.78,1.81l-.15.09c-.81.47-1.67.92-2.62,1.44l-1.3-1.57c-2.6,1.49-2.66,1.52-4.36,1.61,1-.7,1.83-1.38,2.78-2l.65-.37.6-.33c.73-.45.61-.67-.55-1.15l-1.26-.48c-.54.66-1,1.25-1.51,1.84a6.36,6.36,0,0,1-.92.92l-.15.1a1.44,1.44,0,0,1-1.65-.09c-.08-.06-.19-.12-.23-.19-.45-.89-1.48-1.37-3.2-1.42-.27,0-.75-.21-.76-.33-.1-1-.12-2.07-.17-3.08a8.83,8.83,0,0,1-4.49-3.45.87.87,0,0,1,.34-1.33,4.29,4.29,0,0,1,2.34-.43,3,3,0,0,0,1.8-.33,2,2,0,0,0,.27-.2c.72-.64,1.48-1.28,2.18-1.92s.25-.8-1-.82c-.79,0-1.59-.06-2.79-.12.52-.28.89-.44,1.15-.6l.18-.13c.76-.62,1.5-1.25,2.17-1.89.46-.44.71-.93,1.2-1.35A5.59,5.59,0,0,1,215.48,204.51Z" fill="#68e1fd"/><path d="M222.06,222.59v28c-2.6,1.49-2.66,1.52-4.36,1.61v-28C219.4,224.11,219.46,224.08,222.06,222.59Z" fill="#68e1fd"/><path d="M182.29,248.56v-28a1,1,0,0,0,0,.27c.17.51.69,1,.69,1.51,0,1.13,1.05,1.75,3.1,1.75a7.59,7.59,0,0,1,2.5.48v28a7.59,7.59,0,0,0-2.5-.48c-2,0-3.1-.63-3.1-1.75,0-.5-.53-1-.69-1.51A1,1,0,0,1,182.29,248.56Z" fill="#68e1fd"/><path d="M194,253.35v-28a1,1,0,0,0,0,.28v28A1,1,0,0,1,194,253.35Z" fill="#68e1fd"/><path d="M213.55,255.77v-28A1,1,0,0,1,214,227c.33-.24.68-.47,1-.7l1.55-.93v28l-1.55.93c-.37.22-.72.45-1,.7A1,1,0,0,0,213.55,255.77Z" fill="#68e1fd"/><path d="M185.66,229.28v28a2,2,0,0,0-.59-1.4,1.42,1.42,0,0,1-.47-.92V227a1.42,1.42,0,0,0,.47.92A2,2,0,0,1,185.66,229.28Z" fill="#68e1fd"/><path d="M183.68,233.19v28l-2.78-1.11v-28Z" fill="#68e1fd"/><path d="M194,262.06V234a.43.43,0,0,1,.07-.22v28A.42.42,0,0,0,194,262.06Z" fill="#68e1fd"/><path d="M201.85,236.32v28c-2.28.09-2.58,0-2.61-1,0-.69-.59-.9-1.66-1s-2.39-.33-3.56-.5v-28c1.17.17,2.36.36,3.56.5s1.64.33,1.66,1C199.27,236.34,199.58,236.42,201.85,236.32Z" fill="#68e1fd"/><path d="M195.9,235v28c0,.08-.05.17-.18.28v-28C195.85,235.18,195.9,235.09,195.9,235Z" fill="#68e1fd"/><path d="M198.65,236.63v28a.6.6,0,0,1-.17.43v-28A.6.6,0,0,0,198.65,236.63Z" fill="#68e1fd"/><path d="M191.56,237.11v28c-2.18.71-3.53-.43-5.23-.38v-28C188,236.67,189.38,237.82,191.56,237.11Z" fill="#68e1fd"/><path d="M202.14,238.13v28a12,12,0,0,0-.29-1.8v-28A12,12,0,0,1,202.14,238.13Z" fill="#68e1fd"/><path d="M180,264.06V236c0,.3.22.6.67.9.83.55,1.86,1,2.86,1.54v28c-1-.53-2-1-2.86-1.54C180.24,264.65,180,264.36,180,264.06Z" fill="#68e1fd"/><path d="M186.33,236.73v28l-2.8,1.72v-28Z" fill="#68e1fd"/><path d="M198.48,237.06v28a6.06,6.06,0,0,1-1,.85c-.59.36-1.17.32-2.72.12a1.73,1.73,0,0,0-1.1.1.86.86,0,0,0-.34.58,7.92,7.92,0,0,0-.17,1.1v-28a7.92,7.92,0,0,1,.17-1.1.86.86,0,0,1,.34-.58,1.73,1.73,0,0,1,1.1-.1c1.55.2,2.13.24,2.72-.12A6.06,6.06,0,0,0,198.48,237.06Z" fill="#68e1fd"/><path d="M190.72,266.93v-28c0,.54.71.77,2.46.94v28C191.43,267.7,190.72,267.47,190.72,266.93Z" fill="#68e1fd"/><path d="M224.09,240.76v28l-3.52-.41v-28Z" fill="#68e1fd"/><path d="M220.57,240.35v28c-.11.3-.24.58-.33.84v-28C220.34,240.93,220.46,240.64,220.57,240.35Z" fill="#68e1fd"/><path d="M223,242.33v28a1.13,1.13,0,0,1,0,.21,2,2,0,0,0,0,.36v-28a2,2,0,0,1,0-.36A1.13,1.13,0,0,0,223,242.33Z" fill="#68e1fd"/><path d="M208.46,245.07v28c0-.32-.41-.59-1.24-.75a18.71,18.71,0,0,0-3.12-.24,2.75,2.75,0,0,1-2-.65,3,3,0,0,1-1.25-2v-28a3,3,0,0,0,1.25,2,2.75,2.75,0,0,0,2,.65,18.71,18.71,0,0,1,3.12.24C208.06,244.48,208.46,244.75,208.46,245.07Z" fill="#68e1fd"/><path d="M219.69,246.33v28l-.92-.55v-28Z" fill="#68e1fd"/><path d="M223,243.24v28a1.21,1.21,0,0,1-.68,1.19,26.78,26.78,0,0,0-2.6,1.9v-28a26.78,26.78,0,0,1,2.6-1.9A1.21,1.21,0,0,0,223,243.24Z" fill="#68e1fd"/><path d="M207.13,274.66v-28a.14.14,0,0,0,0,.1v28A.14.14,0,0,1,207.13,274.66Z" fill="#68e1fd"/><path d="M218.77,245.78v28c-.84.48-1.31.86-1.84,1.2V247C217.45,246.64,217.92,246.26,218.77,245.78Z" fill="#68e1fd"/><path d="M211.18,246.88v28a19.4,19.4,0,0,1-2.5.43,2.56,2.56,0,0,1-1.52-.6v-28a2.56,2.56,0,0,0,1.52.6A19.4,19.4,0,0,0,211.18,246.88Z" fill="#68e1fd"/><path d="M216.93,247v28a4.66,4.66,0,0,1-5.75-.1v-28A4.66,4.66,0,0,0,216.93,247Z" fill="#68e1fd"/><g opacity="0.44"><path d="M194.52,82.49v28a2.28,2.28,0,0,1,0,.4,5.42,5.42,0,0,0-.09,1v-28a5.42,5.42,0,0,1,.09-1A2.28,2.28,0,0,0,194.52,82.49Z" fill="#275259"/><path d="M194.84,86.51v28a2,2,0,0,1-.51,1.34.81.81,0,0,0-.24.51v-28a.81.81,0,0,1,.24-.51A2,2,0,0,0,194.84,86.51Z" fill="#275259"/><path d="M182.84,88.36v28c-.07-.83-.13-1.52-.19-2.1v-28C182.71,86.84,182.77,87.53,182.84,88.36Z" fill="#275259"/><path d="M176.5,90.15v28a3.42,3.42,0,0,0,0-.42c-.24-1.76-.34-3.54-.48-5.32v-28c.14,1.77.24,3.55.48,5.32A3.42,3.42,0,0,1,176.5,90.15Z" fill="#275259"/><path d="M196.13,89.84v28a.77.77,0,0,1-.29.51v-28A.77.77,0,0,0,196.13,89.84Z" fill="#275259"/><path d="M195.7,118.78v-28a.49.49,0,0,1,.15-.37v28A.49.49,0,0,0,195.7,118.78Z" fill="#275259"/><path d="M195.8,91.31v28a.76.76,0,0,1-.42.66,3.23,3.23,0,0,1-1.45.35v-28a3.23,3.23,0,0,0,1.45-.35A.76.76,0,0,0,195.8,91.31Z" fill="#275259"/><path d="M194.78,93.9v28a1,1,0,0,1-.59.88,6.35,6.35,0,0,1-2.59.65,5.24,5.24,0,0,0-2.25.59,2,2,0,0,0-.83,1,3.53,3.53,0,0,0-.37,1.34v-28a3.53,3.53,0,0,1,.37-1.34,2,2,0,0,1,.83-1,5.24,5.24,0,0,1,2.25-.59,6.35,6.35,0,0,0,2.59-.65A1,1,0,0,0,194.78,93.9Z" fill="#275259"/><path d="M132.51,126v-28a1.11,1.11,0,0,0,.25.62c.15.21.28.42.44.68v28c-.16-.26-.29-.47-.44-.68A1.11,1.11,0,0,1,132.51,126Z" fill="#275259"/><path d="M191.93,102.68v28l-2.16-.06v-28Z" fill="#275259"/><path d="M189.46,132.38v-28c0-.25.25-.51.75-.81l.46-.26v28l-.46.26C189.71,131.87,189.46,132.13,189.46,132.38Z" fill="#275259"/><path d="M129.3,129.05V101a.2.2,0,0,0,0,0c.09.46,1,.87,1.59,1.29s1.45.8,1.72,1.27c.76,1.35,1.66,1.65,4,1a13.08,13.08,0,0,1,4.71-.28c5.35.55,9.32,2.16,11.51,4.87a12.69,12.69,0,0,0,5.74,3.66c.56.2,1.26.48,1.39.8v28c-.14-.31-.83-.6-1.39-.8a12.69,12.69,0,0,1-5.74-3.66c-2.18-2.72-6.15-4.32-11.51-4.87a13.08,13.08,0,0,0-4.71.28c-2.35.62-3.24.32-4-1-.26-.47-1.14-.84-1.72-1.27s-1.5-.83-1.59-1.29A.2.2,0,0,1,129.3,129.05Z" fill="#275259"/><path d="M132.15,105.91v28a1.81,1.81,0,0,1-1,1.65,11,11,0,0,1-2.69,1v-28a11,11,0,0,0,2.69-1A1.81,1.81,0,0,0,132.15,105.91Z" fill="#275259"/><path d="M125.91,134.66v-28a.17.17,0,0,0,.06.14c.78.64,1.66,1.23,2.49,1.83v28c-.82-.59-1.71-1.19-2.49-1.83A.17.17,0,0,1,125.91,134.66Z" fill="#275259"/><path d="M126.58,105.86c1.31-.8,3-1,5.51-.59a1.9,1.9,0,0,1-1,2.28,11,11,0,0,1-2.69,1c-.82-.59-1.71-1.19-2.49-1.83-.16-.13,0-.48.25-.64Z" fill="#275259"/><path d="M197.93,109.4v28l-.24.27v-28Z" fill="#275259"/><path d="M160,114.11v28a1.17,1.17,0,0,0-.08-.43v-28A1.17,1.17,0,0,1,160,114.11Z" fill="#275259"/><path d="M172.75,144.43v-28a5.57,5.57,0,0,1,.2-1.57,1.6,1.6,0,0,1,.75-1,5.57,5.57,0,0,1,2.79-.54,11.24,11.24,0,0,0,1.51,0c1.2-.19,2.36-.45,3.53-.69a10.87,10.87,0,0,1,2.44-.52,20,20,0,0,0,8.53-1.62,12.21,12.21,0,0,1,2.62-.53c.84-.13,1.72-.19,2.57-.27v28c-.85.09-1.73.15-2.57.27a12.21,12.21,0,0,0-2.62.53,20,20,0,0,1-8.53,1.62,10.87,10.87,0,0,0-2.44.52c-1.17.24-2.33.5-3.53.69a11.24,11.24,0,0,1-1.51,0,5.57,5.57,0,0,0-2.79.54,1.6,1.6,0,0,0-.75,1A5.57,5.57,0,0,0,172.75,144.43Z" fill="#275259"/><path d="M172.84,118.09v28a1.15,1.15,0,0,1-.66,1.06v-28A1.15,1.15,0,0,0,172.84,118.09Z" fill="#275259"/><path d="M166.06,149.93v-28a1,1,0,0,1,.56-.83,2.65,2.65,0,0,1,1.37-.35,5.66,5.66,0,0,0,3.36-1.07l.82-.49v28l-.82.49a5.66,5.66,0,0,1-3.36,1.07,2.65,2.65,0,0,0-1.37.35A1,1,0,0,0,166.06,149.93Z" fill="#275259"/><path d="M182.53,121.61v28a1.61,1.61,0,0,1-.52,1,20.58,20.58,0,0,1-1.72,1.8v-28a20.58,20.58,0,0,0,1.72-1.8A1.61,1.61,0,0,0,182.53,121.61Z" fill="#275259"/><path d="M181.52,153V125a0,0,0,0,0,0,0v28A0,0,0,0,1,181.52,153Z" fill="#275259"/><path d="M180.3,124.38v28a2.53,2.53,0,0,1-1.2.34,2.91,2.91,0,0,0-1.35.27.68.68,0,0,0-.34.49.42.42,0,0,1-.18.28v-28a.42.42,0,0,0,.18-.28.68.68,0,0,1,.34-.49,2.91,2.91,0,0,1,1.35-.27A2.53,2.53,0,0,0,180.3,124.38Z" fill="#275259"/><path d="M191.63,126.2v28c0-.61-.82-1.08-1.9-1.29v-28C190.81,125.11,191.63,125.58,191.63,126.2Z" fill="#275259"/><path d="M176.71,154.57v-28c0-.23.17-.48.53-.76v28C176.88,154.09,176.71,154.34,176.71,154.57Z" fill="#275259"/><path d="M189.73,124.91v28l-3.22,2.42v-28Z" fill="#275259"/><path d="M186.51,127.33v28a1.7,1.7,0,0,1-1.78.1c-1.16-.76-2.19-1.58-3.21-2.4V125c1,.82,2,1.64,3.21,2.4A1.7,1.7,0,0,0,186.51,127.33Z" fill="#275259"/><path d="M178.83,128v28c0,.13-.1.28-.3.44v-28C178.73,128.32,178.83,128.18,178.83,128Z" fill="#275259"/><path d="M188.83,129.61v28l-2.77-1.2v-28Z" fill="#275259"/><path d="M178.53,128.49v28c-.17.15-.21.34-.38.48a9,9,0,0,1-1,1,1.06,1.06,0,0,1-.42.15,6.59,6.59,0,0,1-4.34-.54c-.85-.56-1.65-1.14-2.43-1.73a2.62,2.62,0,0,0-2.7-.35,5.42,5.42,0,0,1-4.56-.15,19.31,19.31,0,0,0-3.38-1c-1-.24-1.48-.55-1.58-1.17-.26-1.63-.72-3.25-1-4.87-.09-.44-.38-.68-1.15-.81s-1.41-.41-2.16-.49c-2.1-.23-2.73-1-2.77-2.1v-28c0,1.09.67,1.86,2.77,2.1.75.08,1.42.36,2.16.49s1.06.37,1.15.81c.31,1.62.76,3.24,1,4.87.1.62.61.93,1.58,1.17a19.31,19.31,0,0,1,3.38,1,5.42,5.42,0,0,0,4.56.15,2.62,2.62,0,0,1,2.7.35c.78.59,1.59,1.17,2.43,1.73a6.59,6.59,0,0,0,4.34.54,1.06,1.06,0,0,0,.42-.15,9,9,0,0,0,1-1C178.32,128.82,178.36,128.63,178.53,128.49Z" fill="#275259"/><path d="M179,157.29v-28a3.52,3.52,0,0,0,1,1.89c.18.21,1.3.18,2,.25.29,0,.59,0,.91,0v28c-.32,0-.61,0-.91,0-.7-.07-1.82,0-2-.25A3.52,3.52,0,0,1,179,157.29Z" fill="#275259"/><path d="M184,133.67v28c0-.27-.21-.49-.69-.73s-.7-.35-.7-.59v-28c0,.24.21.35.7.59S184,133.39,184,133.67Z" fill="#275259"/><path d="M183.57,163v-28c0,1.13,1.58,1.9,4,1.81v28C185.15,164.89,183.57,164.12,183.57,163Z" fill="#275259"/><path d="M192.62,138.67v28a1.79,1.79,0,0,0-.23-.83c-.44-.83-1.49-1.16-3.6-1.13l-1.25,0v-28l1.25,0c2.11,0,3.16.3,3.6,1.13A1.79,1.79,0,0,1,192.62,138.67Z" fill="#275259"/><path d="M226.26,168.28v-28q0-.11,0-.23a1.25,1.25,0,0,1,.64-1,3.47,3.47,0,0,1,2.08-.35,3,3,0,0,0,1.75-.34.9.9,0,0,0,.49-.72v28a.9.9,0,0,1-.49.72,3,3,0,0,1-1.75.34,3.47,3.47,0,0,0-2.08.35,1.25,1.25,0,0,0-.64,1Q226.26,168.17,226.26,168.28Z" fill="#275259"/><path d="M202,142.65v28c0-.53-.51-.93-1.4-1.2-3.53-1.12-3.76-1.11-6.61.13-.76.33-1.52.65-2.29,1a1.46,1.46,0,0,1-1.77-.25c-.38-.39-.58-.67-.58-.91v-28c0,.24.21.52.58.91a1.46,1.46,0,0,0,1.77.25c.78-.31,1.53-.64,2.29-1,2.85-1.24,3.08-1.25,6.61-.13C201.47,141.72,202,142.12,202,142.65Z" fill="#275259"/><path d="M243.43,145.92v28c0,.2-.24.46-.52.63v-28C243.19,146.38,243.43,146.12,243.43,145.92Z" fill="#275259"/><path d="M242.25,175.29v-28c0-.19.19-.41.67-.69v28C242.44,174.88,242.25,175.1,242.25,175.29Z" fill="#275259"/><path d="M208.5,149.14v28c0-1.21-.84-2.25-2.5-3.13-.76-.4-1.56-.78-2.37-1.16-1-.49-1.69-1.06-1.69-1.81V143c0,.75.65,1.32,1.69,1.81.81.37,1.61.75,2.37,1.16C207.66,146.89,208.5,147.93,208.5,149.14Z" fill="#275259"/><path d="M245.42,150.15v28a.71.71,0,0,1-.35.52c-.24.18-.36.35-.36.51v-28c0-.16.12-.33.36-.51A.71.71,0,0,0,245.42,150.15Z" fill="#275259"/><path d="M213.42,153.4v28c0-.27-.22-.52-.68-.75-1.26-.63-2.53-1.25-3.68-1.93a1.2,1.2,0,0,1-.64-.87v-28a1.2,1.2,0,0,0,.64.87c1.15.68,2.42,1.3,3.68,1.93C213.2,152.88,213.42,153.13,213.42,153.4Z" fill="#275259"/><path d="M209.74,157.75v28a.85.85,0,0,1-.22.53.41.41,0,0,0-.09.27v-28a.41.41,0,0,1,.09-.27A.85.85,0,0,0,209.74,157.75Z" fill="#275259"/><path d="M212,184.92v-28a4.12,4.12,0,0,0,.49,1.9v28A4.12,4.12,0,0,1,212,184.92Z" fill="#275259"/><path d="M261.94,187.32v-28c0-.49.4-1.09,1.1-2a5,5,0,0,0,1.1-2.71v28a5,5,0,0,1-1.1,2.71C262.33,186.23,261.94,186.83,261.94,187.32Z" fill="#275259"/><path d="M215.43,161v28l-1.9,0v-28Z" fill="#275259"/><path d="M201.69,187.18v-28c0,.51.24,1.1,1.3,1.38,1.29.33,2.63.6,3.92.9v28c-1.29-.29-2.63-.56-3.92-.9C201.93,188.29,201.69,187.7,201.69,187.18Z" fill="#275259"/><path d="M213.57,162.62v28l-.49-.17v-28Z" fill="#275259"/><path d="M213.08,162.46v28l-3.55,1.69v-28Z" fill="#275259"/><path d="M206.68,190.18v-28c0,.8,1,1.41,2.86,2v28C207.65,191.59,206.68,191,206.68,190.18Z" fill="#275259"/><path d="M260.26,168.64v28c-1-2.2-1.9-4.37-2.92-6.53a2.57,2.57,0,0,0-1.34-.84v-28a2.57,2.57,0,0,1,1.34.84C258.36,164.27,259.3,166.44,260.26,168.64Z" fill="#275259"/><path d="M256.06,162v28c0,.78-.14,1.57-.14,2.34v-28C255.92,163.61,256.06,162.83,256.06,162Z" fill="#275259"/><path d="M207.79,165.53v28l-1.77.86v-28Z" fill="#275259"/><path d="M204,167.07v28l-4.13-2v-28Z" fill="#275259"/><path d="M266.87,163v28c0,.36-.34.81-.91,1.6a15.14,15.14,0,0,0-1.54,3,1.15,1.15,0,0,1-.48.47,5,5,0,0,1-2.59.62c-.35,0-.71-.07-1.1-.11v-28c.39,0,.74.1,1.1.11a5,5,0,0,0,2.59-.62,1.15,1.15,0,0,0,.48-.47,15.14,15.14,0,0,1,1.54-3C266.53,163.85,266.87,163.4,266.87,163Z" fill="#275259"/><path d="M257.42,167.71v28c0,.5-1.16.84-1.44,1.48v-28C256.26,168.55,257.42,168.21,257.42,167.71Z" fill="#275259"/><path d="M256,169.19v28c-.79-.48-1.32-.77-1.78-1.09a1.94,1.94,0,0,0-2.5-.12V168a1.94,1.94,0,0,1,2.5.12C254.67,168.42,255.2,168.71,256,169.19Z" fill="#275259"/><path d="M250,197.61v-28c0-.4.59-.82,1.76-1.58v28C250.55,196.79,250,197.21,250,197.61Z" fill="#275259"/><path d="M212,170.49v28c0-1.19-.21-1.34-2-1.64v-28C211.82,169.15,212,169.3,212,170.49Z" fill="#275259"/><path d="M210,168.85v28c0,.82-.06,1.74-.09,2.65v-28C210,170.59,210,169.67,210,168.85Z" fill="#275259"/><path d="M210,171.51v28l-.35.1v-28Z" fill="#275259"/><path d="M204.76,199.08V171a.5.5,0,0,1,.28-.41,1.64,1.64,0,0,1,.4-.17,3.2,3.2,0,0,1,1.5-.1c1,.36,1.79.83,2.66,1.25v28c-.87-.42-1.7-.89-2.66-1.25a3.2,3.2,0,0,0-1.5.1,1.64,1.64,0,0,0-.4.17A.5.5,0,0,0,204.76,199.08Z" fill="#275259"/><path d="M212.18,171.86v28c0-.45-.13-.91-.14-1.37v-28C212,171,212.18,171.41,212.18,171.86Z" fill="#275259"/><path d="M246.87,202.2v-28a.25.25,0,0,1,0-.15v28A.25.25,0,0,0,246.87,202.2Z" fill="#275259"/><path d="M256.55,174.53v28c0,.53-.39,1.12-1.17,1.81v-28C256.16,175.65,256.55,175.07,256.55,174.53Z" fill="#275259"/><path d="M255.38,176.34v28c-1.85-.47-3.78-.92-5.6-1.48-.41-.12-.51-.6-.63-.92s-.38-.76-1.18-.62a1.5,1.5,0,0,0-.53.21,2.33,2.33,0,0,0-.54.47V174a2.33,2.33,0,0,1,.54-.47,1.5,1.5,0,0,1,.53-.21c.8-.13,1,.24,1.18.62s.22.8.63.92C251.6,175.42,253.53,175.86,255.38,176.34Z" fill="#275259"/><path d="M247.82,176.27v28a3.39,3.39,0,0,1-.12.86,1.81,1.81,0,0,0-.05.43v-28a1.81,1.81,0,0,1,.05-.43A3.39,3.39,0,0,0,247.82,176.27Z" fill="#275259"/><path d="M209.12,179.28v28a5.11,5.11,0,0,0-2.15-4.09,14.35,14.35,0,0,0-3.63-1.78c-2.33-.88-3.49-1.7-3.49-2.63v-28c0,.93,1.16,1.74,3.49,2.63a14.35,14.35,0,0,1,3.63,1.78A5.11,5.11,0,0,1,209.12,179.28Z" fill="#275259"/><path d="M248.24,179.11v28c0,.48-.37.92-1,1.29-1.22.75-2.62,1.34-3.85,2v-28c1.22-.68,2.63-1.28,3.85-2C247.86,180,248.24,179.59,248.24,179.11Z" fill="#275259"/><path d="M239.3,184.55v28l-1.63.5v-28Z" fill="#275259"/><path d="M243.4,182.43v28a1.9,1.9,0,0,0-.86.9,18.18,18.18,0,0,1-.44,1.93v-28a18.18,18.18,0,0,0,.44-1.93A1.9,1.9,0,0,1,243.4,182.43Z" fill="#275259"/><path d="M209.12,207.63v-28a22.1,22.1,0,0,0,.43,3.66c.18,1,1.13,1.79,3.06,2.1.55.09,1,.24,1.73.4v28c-.69-.16-1.19-.31-1.73-.4-1.93-.31-2.88-1.06-3.06-2.1A22.1,22.1,0,0,1,209.12,207.63Z" fill="#275259"/><path d="M240.76,186.46v28c-1.8-.43-1.27-1.21-1.45-1.91v-28C239.49,185.25,239,186,240.76,186.46Z" fill="#275259"/><path d="M242.1,185.27v28c-.23.44-.9.81-1.35,1.19v-28C241.2,186.08,241.87,185.71,242.1,185.27Z" fill="#275259"/><path d="M238.65,185.92v28c0,.19-.14.4-.44.62v-28C238.51,186.32,238.65,186.11,238.65,185.92Z" fill="#275259"/><path d="M238.21,186.54v28c-1.2.75-2.26.06-3.31,0v-28C235.95,186.6,237,187.29,238.21,186.54Z" fill="#275259"/><path d="M214,187.88v28l-1.53-1.43v-28Z" fill="#275259"/><path d="M243.22,188.81v28c0,.12-.08.22-.23.32a4.34,4.34,0,0,1-1.19.39,13.73,13.73,0,0,0-3.49,1c-.73.45-.81,1.07-.93,2.41t0,.06V193s0,0,0-.06c.12-1.34.2-2,.93-2.41a13.73,13.73,0,0,1,3.49-1,4.34,4.34,0,0,0,1.19-.39C243.14,189,243.22,188.92,243.22,188.81Z" fill="#275259"/><path d="M246,194.43v28a1.76,1.76,0,0,0-.48.2,3.09,3.09,0,0,0-.52.43v-28a3.09,3.09,0,0,1,.52-.43A1.76,1.76,0,0,1,246,194.43Z" fill="#275259"/><path d="M245,195.06v28a2.79,2.79,0,0,1-.51.43,2.48,2.48,0,0,1-1.7.23v-28a2.48,2.48,0,0,0,1.7-.23A2.79,2.79,0,0,0,245,195.06Z" fill="#275259"/><path d="M241,224.22v-28s0-.05,0-.08v28S241,224.19,241,224.22Z" fill="#275259"/><path d="M200.78,196.61v28a.22.22,0,0,0,0-.1.88.88,0,0,1-.09-.39v-28a.88.88,0,0,0,.09.39A.22.22,0,0,1,200.78,196.61Z" fill="#275259"/><path d="M242.62,196.69v28l-1.6-.6v-28Z" fill="#275259"/><path d="M242.78,195.71v28c0,.29-.1.58-.17,1v-28C242.68,196.29,242.74,196,242.78,195.71Z" fill="#275259"/><path d="M225.68,197v28c0-.35-.43-.65-1.35-1v-28C225.25,196.4,225.68,196.69,225.68,197Z" fill="#275259"/><path d="M221.92,227.09V199a.35.35,0,0,1,0-.08,6,6,0,0,1,2.41-2.87v28a6,6,0,0,0-2.41,2.87A.35.35,0,0,0,221.92,227.09Z" fill="#275259"/><path d="M218.8,199.52v28l-2.43-.72v-28Z" fill="#275259"/><path d="M199.61,200.37v28c0-.53-1.43-.67-1.6-1.28v-28C198.18,199.7,199.61,199.85,199.61,200.37Z" fill="#275259"/><path d="M225.46,200.38v28a1.35,1.35,0,0,0-.39-.86,1.22,1.22,0,0,1-.36-.8v-28a1.22,1.22,0,0,0,.36.8A1.35,1.35,0,0,1,225.46,200.38Z" fill="#275259"/><path d="M193.24,202.47v28c0-.15-.24-.33-.7-.68a1,1,0,0,1-.41-.78V201a1,1,0,0,0,.41.78C193,202.14,193.24,202.33,193.24,202.47Z" fill="#275259"/><path d="M218.6,228.67v-28a1.76,1.76,0,0,0,1.58,1.78,5.45,5.45,0,0,0,4.22-1.23v28a5.45,5.45,0,0,1-4.22,1.23A1.76,1.76,0,0,1,218.6,228.67Z" fill="#275259"/><path d="M212.59,230.85v-28a4.37,4.37,0,0,1,2.36-3.33,7.18,7.18,0,0,1,1.43-.67v28a7.18,7.18,0,0,0-1.43.67A4.37,4.37,0,0,0,212.59,230.85Z" fill="#275259"/><path d="M225.43,228.74v-28c0,.37.33.57,1,.67a6.68,6.68,0,0,1,3,1.14,8.35,8.35,0,0,0,.8.4v28a8.35,8.35,0,0,1-.8-.4,6.68,6.68,0,0,0-3-1.14C225.76,229.31,225.44,229.1,225.43,228.74Z" fill="#275259"/><path d="M242.46,197.7v28a2,2,0,0,1-.15.52,21.41,21.41,0,0,1-1.08,3.33,2.24,2.24,0,0,1-.82,1c-.69.42-1.67.37-3.13-.09a3.1,3.1,0,0,0-1.9,0,4.56,4.56,0,0,1-1.86,0c-1.53-.39-1.92-.5-2.55-.12a9.15,9.15,0,0,0-.8.59v-28a9.15,9.15,0,0,1,.8-.59c.63-.39,1-.27,2.55.12a4.56,4.56,0,0,0,1.86,0,3.1,3.1,0,0,1,1.9,0c1.46.46,2.44.52,3.13.09a2.24,2.24,0,0,0,.82-1,21.41,21.41,0,0,0,1.08-3.33A2,2,0,0,0,242.46,197.7Z" fill="#275259"/><path d="M228.63,235.92v-28a4.68,4.68,0,0,1,1.64-3.23v28A4.68,4.68,0,0,0,228.63,235.92Z" fill="#275259"/><path d="M191.11,208v28c0-.52-.68-.63-2.3-.53-1.17.07-1.83-.22-1.83-.79v-28c0,.57.66.86,1.83.79C190.44,207.38,191.11,207.49,191.11,208Z" fill="#275259"/><path d="M213.1,204.8v28a2.3,2.3,0,0,1-1.11,1.76c-1.28,1-1.81,2.28-2.8,3.39-.6.67-1.55,1.24-2.23,1.88-.34.32-.71.71-.71,1.06v-28c0-.35.37-.74.71-1.06.68-.65,1.63-1.22,2.23-1.88,1-1.12,1.52-2.39,2.8-3.39A2.3,2.3,0,0,0,213.1,204.8Z" fill="#275259"/><path d="M214,209.55v28c0-.25-.42-.37-1.23-.38s-1.59-.06-2.79-.12v-28c1.2.05,2,.11,2.79.12S214,209.3,214,209.55Z" fill="#275259"/><path d="M189.65,213.4v28a.16.16,0,0,0,0-.06,2.72,2.72,0,0,1-.2-1v-28a2.72,2.72,0,0,0,.2,1A.16.16,0,0,1,189.65,213.4Z" fill="#275259"/><path d="M219.35,241.77v-28c0-.18.12-.34.37-.5a4.22,4.22,0,0,1,1-.39,22.85,22.85,0,0,1,7.91-1.11,20.74,20.74,0,0,0,2.3-.14v28a20.74,20.74,0,0,1-2.3.14,22.85,22.85,0,0,0-7.91,1.11,4.22,4.22,0,0,0-1,.39C219.47,241.42,219.35,241.59,219.35,241.77Z" fill="#275259"/><path d="M206.3,213.5v28a1.47,1.47,0,0,1-.67,1.39c-.64.39-1.78.5-3.63.4v-28c1.84.1,3,0,3.63-.4A1.47,1.47,0,0,0,206.3,213.5Z" fill="#275259"/><path d="M201.57,244.33v-28a1.5,1.5,0,0,1,.44-1v28A1.5,1.5,0,0,0,201.57,244.33Z" fill="#275259"/><path d="M206.66,241.7v-28a1,1,0,0,0,.18.55,8.83,8.83,0,0,0,4.49,3.45v28a8.83,8.83,0,0,1-4.49-3.45A1,1,0,0,1,206.66,241.7Z" fill="#275259"/><path d="M223.2,218v28a1.63,1.63,0,0,1-.07.46,1.59,1.59,0,0,0-.06.43v-28a1.59,1.59,0,0,1,.06-.43A1.63,1.63,0,0,0,223.2,218Z" fill="#275259"/><path d="M203.58,219.3v28a.48.48,0,0,1-.28.41,8.51,8.51,0,0,1-2.65.62c-1.37.2-2.67.38-3.75-.37a1.32,1.32,0,0,0-1.43,0v-28a1.32,1.32,0,0,1,1.43,0c1.08.74,2.38.56,3.75.37a8.51,8.51,0,0,0,2.65-.62A.48.48,0,0,0,203.58,219.3Z" fill="#275259"/><path d="M195.47,219.94v28c-.45.33-1,.65-1,1v-28C194.51,220.6,195,220.27,195.47,219.94Z" fill="#275259"/><path d="M222.18,221.07v28c0-.2-.32-.4-1-.68l-1.26-.48v-28l1.26.48C221.86,220.67,222.18,220.87,222.18,221.07Z" fill="#275259"/><path d="M219.92,219.9v28c-.54.66-1,1.25-1.51,1.84a6.36,6.36,0,0,1-.92.92l-.15.1a1.44,1.44,0,0,1-1.65-.09c-.08-.06-.19-.12-.23-.19-.45-.89-1.48-1.37-3.2-1.42-.27,0-.75-.21-.76-.33-.1-1-.12-2.07-.17-3.08v-28c.05,1,.07,2,.17,3.08,0,.12.49.32.76.33,1.72.05,2.75.52,3.2,1.42,0,.07.14.13.23.19a1.44,1.44,0,0,0,1.65.09l.15-.1a6.36,6.36,0,0,0,.92-.92C218.91,221.15,219.38,220.56,219.92,219.9Z" fill="#275259"/><path d="M209.95,222.27v28l-2.14,1.07v-28Z" fill="#275259"/><path d="M190.35,251.54v-28a.56.56,0,0,1,.32-.46,2.23,2.23,0,0,1,.95-.26,5.12,5.12,0,0,0,2.17-.55,1.42,1.42,0,0,0,.72-1.31v28a1.42,1.42,0,0,1-.72,1.31,5.12,5.12,0,0,1-2.17.55,2.23,2.23,0,0,0-.95.26A.56.56,0,0,0,190.35,251.54Z" fill="#275259"/><path d="M226.94,221.76v28c0,.25-.27.53-.81.86l-.15.09c-.81.47-1.67.92-2.62,1.44v-28c1-.53,1.81-1,2.62-1.44l.15-.09C226.67,222.29,226.94,222,226.94,221.76Z" fill="#275259"/><path d="M223.36,224.16v28l-1.3-1.57v-28Z" fill="#275259"/><path d="M215.48,204.51a4.2,4.2,0,0,1,2.66-.55,5.07,5.07,0,0,0,1.95-.31,4.23,4.23,0,0,1,3.14,0,11.79,11.79,0,0,0,4.41.73,20.86,20.86,0,0,1,2.62.27c-2.38,2.39-2.17,4.66.64,6.94a20.74,20.74,0,0,1-2.3.14,22.85,22.85,0,0,0-7.91,1.11,4.22,4.22,0,0,0-1,.39c-.57.35-.46.76.24,1.33s1.44,1,2.1,1.59c.84.71,1.34,1.47,1.08,2.35-.3,1.07.47,1.83,2.22,2.32s2.06,1,.78,1.81l-.15.09c-.81.47-1.67.92-2.62,1.44l-1.3-1.57c-2.6,1.49-2.66,1.52-4.36,1.61,1-.7,1.83-1.38,2.78-2l.65-.37.6-.33c.73-.45.61-.67-.55-1.15l-1.26-.48c-.54.66-1,1.25-1.51,1.84a6.36,6.36,0,0,1-.92.92l-.15.1a1.44,1.44,0,0,1-1.65-.09c-.08-.06-.19-.12-.23-.19-.45-.89-1.48-1.37-3.2-1.42-.27,0-.75-.21-.76-.33-.1-1-.12-2.07-.17-3.08a8.83,8.83,0,0,1-4.49-3.45.87.87,0,0,1,.34-1.33,4.29,4.29,0,0,1,2.34-.43,3,3,0,0,0,1.8-.33,2,2,0,0,0,.27-.2c.72-.64,1.48-1.28,2.18-1.92s.25-.8-1-.82c-.79,0-1.59-.06-2.79-.12.52-.28.89-.44,1.15-.6l.18-.13c.76-.62,1.5-1.25,2.17-1.89.46-.44.71-.93,1.2-1.35A5.59,5.59,0,0,1,215.48,204.51Z" fill="#275259"/><path d="M222.06,222.59v28c-2.6,1.49-2.66,1.52-4.36,1.61v-28C219.4,224.11,219.46,224.08,222.06,222.59Z" fill="#275259"/><path d="M182.29,248.56v-28a1,1,0,0,0,0,.27c.17.51.69,1,.69,1.51,0,1.13,1.05,1.75,3.1,1.75a7.59,7.59,0,0,1,2.5.48v28a7.59,7.59,0,0,0-2.5-.48c-2,0-3.1-.63-3.1-1.75,0-.5-.53-1-.69-1.51A1,1,0,0,1,182.29,248.56Z" fill="#275259"/><path d="M194,253.35v-28a1,1,0,0,0,0,.28v28A1,1,0,0,1,194,253.35Z" fill="#275259"/><path d="M213.55,255.77v-28A1,1,0,0,1,214,227c.33-.24.68-.47,1-.7l1.55-.93v28l-1.55.93c-.37.22-.72.45-1,.7A1,1,0,0,0,213.55,255.77Z" fill="#275259"/><path d="M185.66,229.28v28a2,2,0,0,0-.59-1.4,1.42,1.42,0,0,1-.47-.92V227a1.42,1.42,0,0,0,.47.92A2,2,0,0,1,185.66,229.28Z" fill="#275259"/><path d="M183.68,233.19v28l-2.78-1.11v-28Z" fill="#275259"/><path d="M194,262.06V234a.43.43,0,0,1,.07-.22v28A.42.42,0,0,0,194,262.06Z" fill="#275259"/><path d="M201.85,236.32v28c-2.28.09-2.58,0-2.61-1,0-.69-.59-.9-1.66-1s-2.39-.33-3.56-.5v-28c1.17.17,2.36.36,3.56.5s1.64.33,1.66,1C199.27,236.34,199.58,236.42,201.85,236.32Z" fill="#275259"/><path d="M195.9,235v28c0,.08-.05.17-.18.28v-28C195.85,235.18,195.9,235.09,195.9,235Z" fill="#275259"/><path d="M198.65,236.63v28a.6.6,0,0,1-.17.43v-28A.6.6,0,0,0,198.65,236.63Z" fill="#275259"/><path d="M191.56,237.11v28c-2.18.71-3.53-.43-5.23-.38v-28C188,236.67,189.38,237.82,191.56,237.11Z" fill="#275259"/><path d="M202.14,238.13v28a12,12,0,0,0-.29-1.8v-28A12,12,0,0,1,202.14,238.13Z" fill="#275259"/><path d="M180,264.06V236c0,.3.22.6.67.9.83.55,1.86,1,2.86,1.54v28c-1-.53-2-1-2.86-1.54C180.24,264.65,180,264.36,180,264.06Z" fill="#275259"/><path d="M186.33,236.73v28l-2.8,1.72v-28Z" fill="#275259"/><path d="M198.48,237.06v28a6.06,6.06,0,0,1-1,.85c-.59.36-1.17.32-2.72.12a1.73,1.73,0,0,0-1.1.1.86.86,0,0,0-.34.58,7.92,7.92,0,0,0-.17,1.1v-28a7.92,7.92,0,0,1,.17-1.1.86.86,0,0,1,.34-.58,1.73,1.73,0,0,1,1.1-.1c1.55.2,2.13.24,2.72-.12A6.06,6.06,0,0,0,198.48,237.06Z" fill="#275259"/><path d="M190.72,266.93v-28c0,.54.71.77,2.46.94v28C191.43,267.7,190.72,267.47,190.72,266.93Z" fill="#275259"/><path d="M224.09,240.76v28l-3.52-.41v-28Z" fill="#275259"/><path d="M220.57,240.35v28c-.11.3-.24.58-.33.84v-28C220.34,240.93,220.46,240.64,220.57,240.35Z" fill="#275259"/><path d="M223,242.33v28a1.13,1.13,0,0,1,0,.21,2,2,0,0,0,0,.36v-28a2,2,0,0,1,0-.36A1.13,1.13,0,0,0,223,242.33Z" fill="#275259"/><path d="M208.46,245.07v28c0-.32-.41-.59-1.24-.75a18.71,18.71,0,0,0-3.12-.24,2.75,2.75,0,0,1-2-.65,3,3,0,0,1-1.25-2v-28a3,3,0,0,0,1.25,2,2.75,2.75,0,0,0,2,.65,18.71,18.71,0,0,1,3.12.24C208.06,244.48,208.46,244.75,208.46,245.07Z" fill="#275259"/><path d="M219.69,246.33v28l-.92-.55v-28Z" fill="#275259"/><path d="M223,243.24v28a1.21,1.21,0,0,1-.68,1.19,26.78,26.78,0,0,0-2.6,1.9v-28a26.78,26.78,0,0,1,2.6-1.9A1.21,1.21,0,0,0,223,243.24Z" fill="#275259"/><path d="M207.13,274.66v-28a.14.14,0,0,0,0,.1v28A.14.14,0,0,1,207.13,274.66Z" fill="#275259"/><path d="M218.77,245.78v28c-.84.48-1.31.86-1.84,1.2V247C217.45,246.64,217.92,246.26,218.77,245.78Z" fill="#275259"/><path d="M211.18,246.88v28a19.4,19.4,0,0,1-2.5.43,2.56,2.56,0,0,1-1.52-.6v-28a2.56,2.56,0,0,0,1.52.6A19.4,19.4,0,0,0,211.18,246.88Z" fill="#275259"/><path d="M216.93,247v28a4.66,4.66,0,0,1-5.75-.1v-28A4.66,4.66,0,0,0,216.93,247Z" fill="#275259"/></g><path d="M132.81,97.42a3.57,3.57,0,0,1,1.82-.28,11.4,11.4,0,0,0,2.94-.18,46.5,46.5,0,0,1,10.66-1.05c2.07,0,4.15,0,6.21-.06a22.28,22.28,0,0,0,10.5-2.31,8.24,8.24,0,0,1,1.6-.4l.71-1.31c2.82,1.27,5.2.31,7.57-.26a3.9,3.9,0,0,0,1.12-.41c.55-.34.61-.79.52-1.45-.24-1.76-.34-3.54-.48-5.32,2.2-.14,3.14.2,3.73,1.35.82,1.58,1.18,1.91,3.13,2.6-.07-.83-.13-1.52-.19-2.1,1.19-.37,2.32-.8,3.55-1.08a6.36,6.36,0,0,1,2.24-.06,2,2,0,0,0,1.36-.14,1,1,0,0,0,.28-.26c.4-.53.7-1.08,1.05-1.63.48-.75,1-1.5,1.47-2.28,1.73.61,2,1.16,1.87,2.08a5.12,5.12,0,0,0,.15,2.53,2.28,2.28,0,0,1-.31,2.42c-.5.57-.22.95.72,1.24s1.43.66.8,1.27a.6.6,0,0,0-.1.65.76.76,0,0,1-.36,1,3.23,3.23,0,0,1-1.45.35l.12.21c.91,1,1,1.73.15,2.25a6.35,6.35,0,0,1-2.59.65,5.24,5.24,0,0,0-2.25.59,2,2,0,0,0-.83,1c-.46,1.05-.8,2.09.89,2.94,1.42.72,2.47,1.55,2.51,2.73l-2.16-.06.9.63-.46.26c-1.2.74-1,1.18.76,2,1.58.7,3.24,1.34,4.68,2.11a14.6,14.6,0,0,1,2.3,1.81l-.24.27c-.85.09-1.73.15-2.57.27a12.21,12.21,0,0,0-2.62.53A20,20,0,0,1,184,112.1a10.87,10.87,0,0,0-2.44.52c-1.17.24-2.33.5-3.53.69a11.24,11.24,0,0,1-1.51,0,5.57,5.57,0,0,0-2.79.54,1.6,1.6,0,0,0-.75,1,8.76,8.76,0,0,0-.11,3.13,1.16,1.16,0,0,1-.66,1.2l-.82.49a5.66,5.66,0,0,1-3.36,1.07,2.65,2.65,0,0,0-1.37.35.91.91,0,0,0-.52,1.08c.14.39,1,.84,1.77,1a3.94,3.94,0,0,0,2.73-.24,1.8,1.8,0,0,0,.36-.29c.08-.09.25-.15.32-.24a2.48,2.48,0,0,1,.61-.53,4.57,4.57,0,0,1,3.35-.26,2.25,2.25,0,0,0,1.75-.2,2.4,2.4,0,0,0,.31-.23,3.5,3.5,0,0,1,.45-.33,3.57,3.57,0,0,1,2.68-.36c2.14.42,2.6,1,1.58,2.15a20.58,20.58,0,0,1-1.72,1.8,2.53,2.53,0,0,1-1.2.34,2.91,2.91,0,0,0-1.35.27.68.68,0,0,0-.34.49.42.42,0,0,1-.18.28c-1,.77-.52,1.32.85,1.74.79.24,1,.56.45,1-.17.15-.21.34-.38.48a9,9,0,0,1-1,1,1.06,1.06,0,0,1-.42.15,6.59,6.59,0,0,1-4.34-.54c-.85-.56-1.65-1.14-2.43-1.73a2.62,2.62,0,0,0-2.7-.35,5.42,5.42,0,0,1-4.56-.15,19.31,19.31,0,0,0-3.38-1c-1-.24-1.48-.55-1.58-1.17-.26-1.63-.72-3.25-1-4.87-.09-.44-.38-.68-1.15-.81s-1.41-.41-2.16-.49c-2.1-.23-2.73-1-2.77-2.1a3.46,3.46,0,0,1,.66-.17,16.13,16.13,0,0,0,5.64-1.29,5.68,5.68,0,0,1,1.17-.09,7.08,7.08,0,0,0,1.58-.23,1.54,1.54,0,0,0,.29-1.46c-.14-.31-.83-.6-1.39-.8a12.69,12.69,0,0,1-5.74-3.66c-2.18-2.72-6.15-4.32-11.51-4.87a13.08,13.08,0,0,0-4.71.28c-2.35.62-3.24.32-4-1-.26-.47-1.14-.84-1.72-1.27s-1.5-.83-1.59-1.29c0-.21.25-.46.63-.7a8.12,8.12,0,0,1,.82-.43,19.65,19.65,0,0,1,2.46-.72c-.16-.26-.29-.47-.44-.68C132.4,98,132.43,97.65,132.81,97.42Z" fill="#68e1fd"/><path d="M217.95,131.56a15.48,15.48,0,0,1,2.48,2.58,3.2,3.2,0,0,0,1.33.64c1.25.31,2.58.52,3.84.83a1,1,0,0,1,.69.57c.12.69.94.79,1.94.77a10.65,10.65,0,0,1,1.09,0c.81.09,1.9.08,1.91.71a.9.9,0,0,1-.49.72,3,3,0,0,1-1.75.34,3.47,3.47,0,0,0-2.08.35,1.25,1.25,0,0,0-.64,1c-.11,1.32.71,2.19,3,2.8s4,1.41,6.09,2.08a21.44,21.44,0,0,0,2.3.51,8.61,8.61,0,0,1,1.8-.85c1.62-.36,3.85.39,4,1.35,0,.21-.21.49-.52.67-.9.53-.78.82-.28,1.18.77.57,1.43,1.17,2.24,1.72.6.4.78.77.21,1.22s-.45.8.36,1.15c2.78,1.19,5.45,2.47,8.31,3.6a9.84,9.84,0,0,0,6.53.08c1.23-.37,2.57-.63,3.86-.94a5,5,0,0,1-1.1,2.71c-1.7,2.21-1.61,2.55,1.63,4.16,2.73,1.36,2.65,1.34,1.31,3.2a15.14,15.14,0,0,0-1.54,3,1.15,1.15,0,0,1-.48.47,5,5,0,0,1-2.59.62c-.35,0-.71-.07-1.1-.11-1-2.2-1.9-4.37-2.92-6.53a2.57,2.57,0,0,0-1.34-.84c.32,2.05-.93,4.13,1.2,6.05.82.75-.87,1.08-1.21,1.87-.79-.48-1.32-.77-1.78-1.09a1.94,1.94,0,0,0-2.5-.12c-2.35,1.54-2.36,1.68.1,3.07,1,.56,2,1.09,3.06,1.64,2.06,1.13,2.24,2.12.52,3.64-1.85-.47-3.78-.92-5.6-1.48-.41-.12-.51-.6-.63-.92s-.38-.76-1.18-.62a1.5,1.5,0,0,0-.53.21,2.33,2.33,0,0,0-.54.47c-.13.17,0,.46.2.64a2.35,2.35,0,0,1,.6,2.49,1.31,1.31,0,0,0,.2,1.18c.67.81.29,1.52-.65,2.1-1.22.75-2.62,1.34-3.85,2a1.9,1.9,0,0,0-.86.9,18.18,18.18,0,0,1-.44,1.93c-.23.44-.9.81-1.35,1.19-1.8-.43-1.27-1.21-1.45-1.91l-1.63.5c1,.44,1.31.91.53,1.49-1.2.75-2.26.06-3.31,0a5.87,5.87,0,0,0,2.32.72c1,.1,2.05,0,3,.12a6.18,6.18,0,0,1,2.38.74c.65.46.77.76.36,1a4.34,4.34,0,0,1-1.19.39,13.73,13.73,0,0,0-3.49,1c-.73.45-.81,1.07-.93,2.41,0,.53.43.77,2.4,1.17L242,192.5l4,1.93a1.76,1.76,0,0,0-.48.2,3.09,3.09,0,0,0-.52.43,2.79,2.79,0,0,1-.51.43,2.48,2.48,0,0,1-1.7.23c0,.29-.1.58-.17,1l-1.6-.6c0,.42.13,1,.58,1,1.2.24.84.67.72,1.08a21.41,21.41,0,0,1-1.08,3.33,2.24,2.24,0,0,1-.82,1c-.69.42-1.67.37-3.13-.09a3.1,3.1,0,0,0-1.9,0,4.56,4.56,0,0,1-1.86,0c-1.53-.39-1.92-.5-2.55-.12a9.15,9.15,0,0,0-.8.59,8.35,8.35,0,0,1-.8-.4,6.68,6.68,0,0,0-3-1.14c-.76-.11-1.08-.36-1-.84a1.24,1.24,0,0,0-.37-1c-.56-.63-.45-1.21.18-1.79s.53-1.15-.92-1.64a6,6,0,0,0-2.41,2.87c-.09.39.54.87,1,1.26a12.23,12.23,0,0,0,1.49,1,5.45,5.45,0,0,1-4.22,1.23c-1.44-.33-1.9-1.38-1.37-2.89l-2.43-.72a7.18,7.18,0,0,0-1.43.67c-1.81,1.11-2.85,2.9-2.13,4.29.53,1,.39,1.86-.81,2.8s-1.81,2.28-2.8,3.39c-.6.67-1.55,1.24-2.23,1.88-.36.34-.76.76-.7,1.13.12.94,0,1.55-.63,1.92s-1.78.5-3.63.4c-.82.92-.39,1.78.51,2.62s1.37,1.45.79,1.81a8.51,8.51,0,0,1-2.65.62c-1.37.2-2.67.38-3.75-.37a1.32,1.32,0,0,0-1.43,0c-.45.33-1,.65-1,1a1.42,1.42,0,0,1-.72,1.31,5.12,5.12,0,0,1-2.17.55,2.23,2.23,0,0,0-.95.26c-.52.32-.41.83.37,1.21a30.62,30.62,0,0,0,3,1.34c-.19-.61.24-1,.79-1.33l.44-.25.41-.24a3.51,3.51,0,0,0,.46-.33,4.53,4.53,0,0,1,.64-.47c1.64-1,4-1.22,6.13-1.7l.38-1,2.79,1.35,1.37-.65,2.45,1.33-2.14,1.07c.79.32,1.51.63,2.29.91a2.17,2.17,0,0,0,.88,0c3-.43,3.62-.33,5.61,1.09l-1.55.93c-.37.22-.72.45-1,.7s-.55.65-.4.91a46.07,46.07,0,0,0,2.67,4.27,13.31,13.31,0,0,0,1.73,1.35c1.73,1.57,3.52,3.12,5,4.74a7.27,7.27,0,0,1,1.07,2.49l-3.52-.41c-.11.3-.24.58-.33.84,1.3.39,3,.15,2.75,1.36-.12.66.25,1.3-.7,1.89a26.78,26.78,0,0,0-2.6,1.9l-.92-.55c-.84.48-1.31.86-1.84,1.2a4.66,4.66,0,0,1-5.75-.1,19.4,19.4,0,0,1-2.5.43,2.56,2.56,0,0,1-1.52-.6c-.15-.18.23-.59.58-.8,1.09-.67,1-1.3-.52-1.58a18.71,18.71,0,0,0-3.12-.24,2.75,2.75,0,0,1-2-.65c-1.2-1.09-1.86-2.13-.47-3.37a2.32,2.32,0,0,0,.48-1.82,10,10,0,0,0-.29-1.91c-2.28.09-2.58,0-2.61-1,0-.69-.59-.9-1.66-1s-2.39-.33-3.56-.5c-.59,1,2.66.65,1.69,1.5,1,.35,2,.62,2.75,1,.25.11.23.57,0,.78a6.06,6.06,0,0,1-1,.85c-.59.36-1.17.32-2.72.12a1.73,1.73,0,0,0-1.1.1.86.86,0,0,0-.34.58,7.92,7.92,0,0,0-.17,1.1c-2.44-.23-2.85-.59-2.16-1.73.17-.28.31-.55.55-1-2.18.71-3.53-.43-5.23-.38l-2.8,1.72c-1-.53-2-1-2.86-1.54s-.87-1.27.19-2c.33-.22.67-.44,1-.66l1.78-1.08-2.78-1.11c1-.21,1.76-.44,2.56-.53a3.55,3.55,0,0,0,1.46-.4,1.17,1.17,0,0,0,.55-.73,2.37,2.37,0,0,0-.4-2.55c-.74-.8-.59-1.4.36-2a7.42,7.42,0,0,1,1-.49c.71-.31,1.46-.58,2.19-.87a7.59,7.59,0,0,0-2.5-.48c-2,0-3.1-.63-3.1-1.75,0-.5-.53-1-.69-1.51a.81.81,0,0,1,.21-.85,8.42,8.42,0,0,1,1-.74,7.16,7.16,0,0,1,.86-.45,9.63,9.63,0,0,0,1.18-.61c2-1.26,2.8-2.89,3.92-4.42.08-.12.18-.26.13-.37-.65-1.61.4-3.07,1.2-4.57.64-1.17.2-1.43-2-1.29-1.25.08-1.92-.26-1.82-.92a8.24,8.24,0,0,1,3.5-4.75,4.31,4.31,0,0,1,1.8,1.2,5.75,5.75,0,0,0,.8-.34c.33-.2.12-.37-.54-.87s-.43-1.54.48-2.1a2.84,2.84,0,0,1,.85-.34c1-.23,1.37.14,1.56.55.26.63.44,1.27.67,1.93a5.32,5.32,0,0,0,2.72-.62,2.59,2.59,0,0,0,.63-.54c.67-.8-1.26-.88-1.45-1.59.73-.58,1.6-1.25,2.42-2,.21-.18.41-.44.32-.62-.34-.71.3-1.24,1-1.72a11.22,11.22,0,0,0,4.09-4,4,4,0,0,1,1.43-1.25c.37-.23.77-.44,1.14-.65a5.13,5.13,0,0,1,2.06-.23,6.49,6.49,0,0,0,3.47-.83l-1.53-1.43,1.89-.7c-.69-.16-1.19-.31-1.73-.4-1.93-.31-2.88-1.06-3.06-2.1a20.93,20.93,0,0,1-.43-3.83,5.09,5.09,0,0,0-2.15-4.22,14.35,14.35,0,0,0-3.63-1.78c-4.17-1.58-4.58-3-1.34-5.1l.63-.4,1.38-.84-4.13-2c2.65-.77,6.11-.56,7.92.46l-1.77.86a7.57,7.57,0,0,1,1,.85,4.48,4.48,0,0,1,.51,1c.47-.06,1-.17,1.58-.21a2.49,2.49,0,0,0,1.13-.27,1,1,0,0,0,.46-.71,15,15,0,0,1,1.14-3.14,1.92,1.92,0,0,1,.65-.7,5.3,5.3,0,0,0,1.81-.51c.68-.42.64-1.09,1.15-1.65l-1.9,0c0,.53,0,1,0,1.56l-.49-.17-3.55,1.69c-2.43-.77-3.34-1.57-2.63-2.74-1.29-.29-2.63-.56-3.92-.9s-1.35-1-1.28-1.6a29.58,29.58,0,0,1,1-4.08,13,13,0,0,1,2.95,1.28c0,.14.24.14.45.1a3,3,0,0,1,2.82.41c.55.53,1.13,1,.59,1.67-.23.28,0,.69.11,1.18l2.89-.69a4.25,4.25,0,0,1,.7-4.89c.38-.47.23-.86-.47-1.22-1.26-.63-2.53-1.25-3.68-1.93-.39-.23-.69-.64-.63-.95.33-1.49-.49-2.73-2.42-3.76-.76-.4-1.56-.78-2.37-1.16-1.15-.54-1.82-1.18-1.67-2,.11-.61-.41-1.07-1.39-1.36-3.53-1.12-3.76-1.11-6.61.13-.76.33-1.52.65-2.29,1a1.46,1.46,0,0,1-1.77-.25c-.66-.68-.79-1-.21-1.39a5.83,5.83,0,0,1,1.07-.46,4.86,4.86,0,0,0,1-.43,1.49,1.49,0,0,0,.68-2.17c-.44-.83-1.49-1.16-3.6-1.13l-1.25,0c-2.94.11-4.65-1.07-3.73-2.63.29-.51.18-.83-.54-1.18-.88-.43-.84-.45-.34-1.53-.32,0-.61,0-.91,0-.7-.07-1.82,0-2-.25-.56-.67-1.18-1.45-1-2.13a.67.67,0,0,1,.33-.37,7.47,7.47,0,0,1,4.8-.35,21.19,21.19,0,0,1,1.9,1,3.64,3.64,0,0,0,2.78.34l-2.77-1.2c.67-.2,1.18-.39,1.73-.53s.95-.09,1.32-.22a14.24,14.24,0,0,0,2.1-.79.85.85,0,0,0,.3-.27c.47-.81-.46-1.46-1.78-1.7l-3.22,2.42a1.7,1.7,0,0,1-1.78.1c-1.16-.76-2.19-1.58-3.21-2.4-.08-.07.16-.3.38-.44.66-.37,1.38-.64,1.95-1,1.23-.8,2.33-1.6,3.53-2.43l2.72,1.53a25.34,25.34,0,0,0,8.93,2.77c3.6.54,7.17.76,10.81,1s5.45,1.19,6.28,3.08A4.44,4.44,0,0,0,217.95,131.56ZM212,170.49c0-1.19-.21-1.34-2-1.64,0,.82-.06,1.74-.09,2.65l-.35.1c-.87-.42-1.7-.89-2.66-1.25a3.2,3.2,0,0,0-1.5.1,1.64,1.64,0,0,0-.4.17c-.39.24-.36.58,0,.86a2.33,2.33,0,0,0,1.24.15c2.08-.29,2.08-.31,3.06.81.06.06.09.16.18.19a5,5,0,0,0,1.7.42.92.92,0,0,0,.36-.14,1.27,1.27,0,0,0,.57-.71,8.29,8.29,0,0,0-.11-1.72" fill="#68e1fd"/></g><polygon points="165.18 83.28 187.01 95.23 187.01 100.98 165.18 88.83 165.18 83.28" fill="#e60607"/><polygon points="165.18 72.66 187.01 84.6 187.01 90.36 165.18 78.21 165.18 72.66" fill="#e60607"/><rect x="186.02" y="82.61" width="4.95" height="39.02" fill="#e60607"/><path d="M185.74,119s3,2.41,5.23,0v-1.72s.95,0,1.29,1.49v6.42s-.56,1.72-3.76,1.63-4.06-2.15-4.06-2.15v-5.9s.09-1.5,1.29-1.5Z" fill="#a3a3a3"/><rect x="161.26" y="68.88" width="4.95" height="39.02" fill="#e60607"/><path d="M161,105.32s3,2.41,5.23,0V103.6s.95,0,1.29,1.49v6.42s-.56,1.72-3.76,1.63-4.06-2.15-4.06-2.15v-5.9s.09-1.5,1.29-1.5Z" fill="#a3a3a3"/><path d="M150.13,61.15s3.43-2.57,3.81-2.28,13.32,13,50.42,29.21L201,90.66S169.5,78.21,150.13,61.15Z" fill="#5a231f"/><rect x="150.13" y="59.63" width="2.95" height="1.52" fill="#680f0d"/><polygon points="204.36 88.08 204.36 86.56 201.79 87.32 202.6 89.14 204.36 88.08" fill="#5a231f"/><path d="M150.13,59.63s3.43-2.57,3.81-2.28,13.32,13,50.42,29.21L201,89.14S169.5,76.69,150.13,59.63Z" fill="#6c594b"/><path d="M229,144.5v10.1a16.37,16.37,0,0,1,3.28-2.09v-9.7A13.47,13.47,0,0,0,229,144.5Z" fill="none"/><path d="M246,153a6,6,0,0,1,.84,1v-6.73a5.81,5.81,0,0,0-2.28-3.66,8.57,8.57,0,0,0-3.81-1.52V151A8.1,8.1,0,0,1,246,153Z" fill="none"/><path d="M234.75,142.24v9.39l.72-.17a24.76,24.76,0,0,1,2.87-.41v-9.1A23.09,23.09,0,0,0,234.75,142.24Z" fill="none"/><path d="M218,164.31v10.2h0a55.09,55.09,0,0,1,2.38-7.18V156.63A48.1,48.1,0,0,0,218,164.31Z" fill="none"/><path d="M222.84,151.61v10.66a30.22,30.22,0,0,1,3.76-5.34V146.56A25.37,25.37,0,0,0,222.84,151.61Z" fill="none"/><path d="M238.35,141.95v-2.44a25.24,25.24,0,0,0-3.59.27v2.46A23.09,23.09,0,0,1,238.35,141.95Z" fill="#ed1c24"/><path d="M220.41,167.32a55.09,55.09,0,0,0-2.38,7.18h0v-10.2a48.1,48.1,0,0,1,2.38-7.68v-5.37h2.43v.35a25.37,25.37,0,0,1,3.76-5v-2.9H229v.84a13.47,13.47,0,0,1,3.28-1.68v-2.55c-5.19,1.48-9.65,5.84-13,12.71a49,49,0,0,0-3.74,11l0,.11v12.87H220l.2-1a51,51,0,0,1,2.24-7.11h-2Z" fill="#ed1c24"/><path d="M226.6,156.93a30.22,30.22,0,0,0-3.76,5.34v5.56a34.3,34.3,0,0,1,5.28-9H226.6Z" fill="#ed1c24"/><path d="M232.32,152.52A16.37,16.37,0,0,0,229,154.6v3.26a15.44,15.44,0,0,1,3.79-2.89h-.51Z" fill="#ed1c24"/><path d="M249.3,147.14a8.22,8.22,0,0,0-3.18-5.38,11.08,11.08,0,0,0-5.34-2.1v2.47a8.57,8.57,0,0,1,3.81,1.52,5.81,5.81,0,0,1,2.28,3.66V154a6,6,0,0,0-.84-1,8.1,8.1,0,0,0-5.24-2v2.44a5.72,5.72,0,0,1,3.54,1.32,4.66,4.66,0,0,1,1.21,3.71l-.32,2,4.08-1.38v-12Z" fill="#ed1c24"/><path d="M235.48,151.46l-.72.17v2.53a11.21,11.21,0,0,1,1.21-.32,22.72,22.72,0,0,1,2.39-.36V151A24.76,24.76,0,0,0,235.48,151.46Z" fill="#ed1c24"/><path d="M220.41,156.63v10.69c.36-.89.77-1.8,1.21-2.73s.8-1.59,1.22-2.33V151.61A39.44,39.44,0,0,0,220.41,156.63Z" fill="#ed1c24"/><path d="M221.62,164.59c-.45.93-.85,1.84-1.21,2.73v1.54h2q.2-.51.42-1v-5.56Q222.21,163.38,221.62,164.59Z" fill="#ed1c24"/><path d="M222.84,151.26h-2.43v5.37a39.44,39.44,0,0,1,2.43-5Z" fill="#ed1c24"/><path d="M226.6,146.56v10.36A21.14,21.14,0,0,1,229,154.6V144.5A17,17,0,0,0,226.6,146.56Z" fill="#ed1c24"/><path d="M226.6,156.93v1.94h1.52c.3-.35.6-.68.92-1V154.6A21.14,21.14,0,0,0,226.6,156.93Z" fill="#ed1c24"/><path d="M229,144.5v-.84H226.6v2.9A17,17,0,0,1,229,144.5Z" fill="#ed1c24"/><path d="M234.26,142.31a12.37,12.37,0,0,0-1.94.5v9.7a13.85,13.85,0,0,1,2.43-.89v-9.39Z" fill="#ed1c24"/><path d="M232.32,152.52V155h.51a11.92,11.92,0,0,1,1.92-.81v-2.53A13.85,13.85,0,0,0,232.32,152.52Z" fill="#ed1c24"/><path d="M234.26,142.31l.49-.08v-2.46l-.9.14a14.62,14.62,0,0,0-1.53.35v2.55A12.37,12.37,0,0,1,234.26,142.31Z" fill="#ed1c24"/><path d="M238.35,151a16.47,16.47,0,0,1,2.43,0v-8.87a15.09,15.09,0,0,0-2.43-.2Z" fill="#ed1c24"/><path d="M240.78,142.14v-2.47a17.8,17.8,0,0,0-2.43-.16v2.44A15.09,15.09,0,0,1,240.78,142.14Z" fill="#ed1c24"/><path d="M238.35,151v2.44a14,14,0,0,1,2.43,0V151A16.47,16.47,0,0,0,238.35,151Z" fill="#ed1c24"/><path d="M216.78,176.69l12,7.19s8.86-27.4,23.85-26.19l-12.87-6.28a20.16,20.16,0,0,0-15.6,8.41A44.66,44.66,0,0,0,216.78,176.69Z" fill="#fbb03b"/><path d="M240.42,151.49v10.1a16.37,16.37,0,0,1,3.28-2.09v-9.7A13.47,13.47,0,0,0,240.42,151.49Z" fill="none"/><path d="M257.4,160a6,6,0,0,1,.84,1V154.3a5.81,5.81,0,0,0-2.28-3.66,8.57,8.57,0,0,0-3.81-1.52V158A8.1,8.1,0,0,1,257.4,160Z" fill="none"/><path d="M246.13,149.23v9.39l.72-.17a24.76,24.76,0,0,1,2.87-.41v-9.1A23.09,23.09,0,0,0,246.13,149.23Z" fill="none"/><path d="M229.4,171.3v10.2h0a55.09,55.09,0,0,1,2.38-7.18V163.62A48.1,48.1,0,0,0,229.4,171.3Z" fill="none"/><path d="M234.22,158.6v10.66a30.22,30.22,0,0,1,3.76-5.34V153.55A25.37,25.37,0,0,0,234.22,158.6Z" fill="none"/><path d="M249.73,148.93v-2.44a25.24,25.24,0,0,0-3.59.27v2.46A23.09,23.09,0,0,1,249.73,148.93Z" fill="#ed1c24"/><path d="M231.78,174.31a55.09,55.09,0,0,0-2.38,7.18h0V171.3a48.1,48.1,0,0,1,2.38-7.68v-5.37h2.43v.35a25.37,25.37,0,0,1,3.76-5v-2.9h2.43v.84a13.47,13.47,0,0,1,3.28-1.68v-2.55c-5.19,1.48-9.65,5.84-13,12.71a49,49,0,0,0-3.74,11l0,.11v12.87h4.38l.2-1a51,51,0,0,1,2.24-7.11h-2Z" fill="#ed1c24"/><path d="M238,163.92a30.22,30.22,0,0,0-3.76,5.34v5.56a34.3,34.3,0,0,1,5.28-9H238Z" fill="#ed1c24"/><path d="M243.7,159.51a16.37,16.37,0,0,0-3.28,2.09v3.26a15.44,15.44,0,0,1,3.79-2.89h-.51Z" fill="#ed1c24"/><path d="M260.68,154.13a8.22,8.22,0,0,0-3.18-5.38,11.08,11.08,0,0,0-5.34-2.1v2.47a8.57,8.57,0,0,1,3.81,1.52,5.81,5.81,0,0,1,2.28,3.66V161a6,6,0,0,0-.84-1,8.1,8.1,0,0,0-5.24-2v2.44a5.72,5.72,0,0,1,3.54,1.32,4.66,4.66,0,0,1,1.21,3.71l-.32,2,4.08-1.38v-12Z" fill="#ed1c24"/><path d="M246.86,158.45l-.72.17v2.53a11.21,11.21,0,0,1,1.21-.32,22.72,22.72,0,0,1,2.39-.36V158A24.76,24.76,0,0,0,246.86,158.45Z" fill="#ed1c24"/><path d="M231.78,163.62v10.69c.36-.89.77-1.8,1.21-2.73s.8-1.59,1.22-2.33V158.6A39.44,39.44,0,0,0,231.78,163.62Z" fill="#ed1c24"/><path d="M233,171.58c-.45.93-.85,1.84-1.21,2.73v1.54h2q.2-.51.42-1v-5.56Q233.59,170.36,233,171.58Z" fill="#ed1c24"/><path d="M234.22,158.25h-2.43v5.37a39.44,39.44,0,0,1,2.43-5Z" fill="#ed1c24"/><path d="M238,153.55v10.36a21.14,21.14,0,0,1,2.43-2.32v-10.1A17,17,0,0,0,238,153.55Z" fill="#ed1c24"/><path d="M238,163.92v1.94h1.52c.3-.35.6-.68.92-1v-3.26A21.14,21.14,0,0,0,238,163.92Z" fill="#ed1c24"/><path d="M240.42,151.49v-.84H238v2.9A17,17,0,0,1,240.42,151.49Z" fill="#ed1c24"/><path d="M245.64,149.3a12.37,12.37,0,0,0-1.94.5v9.7a13.85,13.85,0,0,1,2.43-.89v-9.39Z" fill="#ed1c24"/><path d="M243.7,159.51V162h.51a11.92,11.92,0,0,1,1.92-.81v-2.53A13.85,13.85,0,0,0,243.7,159.51Z" fill="#ed1c24"/><path d="M245.64,149.3l.49-.08v-2.46l-.9.14a14.62,14.62,0,0,0-1.53.35v2.55A12.37,12.37,0,0,1,245.64,149.3Z" fill="#ed1c24"/><path d="M249.73,158a16.47,16.47,0,0,1,2.43,0v-8.87a15.09,15.09,0,0,0-2.43-.2Z" fill="#ed1c24"/><path d="M252.16,149.13v-2.47a17.8,17.8,0,0,0-2.43-.16v2.44A15.09,15.09,0,0,1,252.16,149.13Z" fill="#ed1c24"/><path d="M249.73,158v2.44a14,14,0,0,1,2.43,0V158A16.47,16.47,0,0,0,249.73,158Z" fill="#ed1c24"/></svg>