<svg xmlns="http://www.w3.org/2000/svg" xmlns:xlink="http://www.w3.org/1999/xlink" viewBox="0 0 400 300"><defs><linearGradient id="linear-gradient" x1="297.82" y1="134.45" x2="276.24" y2="176.24" gradientTransform="matrix(-1, 0, 0, 1, 385.77, 0)" gradientUnits="userSpaceOnUse"><stop offset="0" stop-color="#1800bf"/><stop offset="1" stop-color="#fff"/></linearGradient><linearGradient id="linear-gradient-2" x1="169.39" y1="268.75" x2="203.78" y2="227.61" gradientUnits="userSpaceOnUse"><stop offset="0" stop-color="#4e62d4" stop-opacity="0"/><stop offset="0.99" stop-color="#4444a5"/></linearGradient><linearGradient id="linear-gradient-3" x1="351.76" y1="182.61" x2="314.05" y2="205.14" gradientUnits="userSpaceOnUse"><stop offset="0" stop-color="gray"/><stop offset="1" stop-color="#fff"/></linearGradient><linearGradient id="linear-gradient-4" x1="189.53" y1="245.37" x2="226.15" y2="213.63" gradientUnits="userSpaceOnUse"><stop offset="0" stop-opacity="0"/><stop offset="0.99" stop-color="#1a1a1a"/></linearGradient></defs><title>PP</title><g style="isolation:isolate"><g id="Layer_2" data-name="Layer 2"><path d="M196.24,288.6,23.74,186.65c-5.49-3.08-10.2-8.15-4.85-11.46L192,75.41c2.6-1.61,6.54-2.66,9.18-1.13L382.28,179.37c5.49,3.19,6.48,12.1,1,15.29L219,288.44A22.94,22.94,0,0,1,196.24,288.6Z" fill="#6182e0"/><path d="M129.48,140.34l.78-.19,19.57,14.59c10,8.06,8,11.56,2.84,14.9-3,1.95-53.89,35.51-56.89,37.43L57,179.56C64,175.53,122.5,144.54,129.48,140.34Z" fill="url(#linear-gradient)" style="mix-blend-mode:multiply"/><ellipse cx="63.66" cy="178.58" rx="6.68" ry="3.13" fill="#484887"/><polyline points="56.99 174.59 56.99 178.58 70.34 178.58 70.34 174.59" fill="#484887"/><ellipse cx="63.66" cy="174.59" rx="6.68" ry="3.13" fill="#6969bc"/><path d="M61.93,116.91v56.27s1.47,2.53,3.48,0V115S65.09,113.36,61.93,116.91Z" fill="#484887"/><ellipse cx="129.09" cy="144.14" rx="6.68" ry="3.13" fill="#484887"/><polyline points="122.42 140.15 122.42 144.14 135.77 144.14 135.77 140.15" fill="#484887"/><ellipse cx="129.09" cy="140.15" rx="6.68" ry="3.13" fill="#6969bc"/><path d="M127.35,82.47v56.27s1.47,2.53,3.48,0V80.57S130.51,78.92,127.35,82.47Z" fill="#484887"/><path d="M53.43,69.49,133.81,24a4.24,4.24,0,0,1,6.33,3.69v49.4A4.24,4.24,0,0,1,138,80.78L57.61,126.27a4.24,4.24,0,0,1-6.33-3.69V73.18A4.24,4.24,0,0,1,53.43,69.49Z" fill="#68e1fd"/><path d="M57.1,127.85l60.1-34,15-8.5c2.14-1.21,4.72-2.28,6.69-3.78,3-2.32,2.37-5.7,2.37-9.11V31.83c0-3.15.85-7.78-2.57-9.5-2.76-1.39-5.29.61-7.61,1.92L117.8,31.77l-38,21.49c-8.82,5-18,9.62-26.57,15-2.92,1.85-3.09,4.14-3.09,7.29v43.78c0,4.31.22,10.86,6.67,8.6,1.36-.48.77-2.65-.6-2.17-5.49,1.92-3.83-9.87-3.83-11.7V76.63c0-2.78-.25-4.69,2.17-6.5s5.73-3.24,8.47-4.79l15.07-8.53,35.62-20.15,14-7.91c1.95-1.1,5.08-3.82,7.32-4.14a4.18,4.18,0,0,1,4,2.6c.44,1.41,0,3.82,0,5.28v38c0,2.78.92,7.19-1.42,9.26-1.73,1.54-4.53,2.56-6.52,3.69l-13.86,7.84L56,125.9A1.13,1.13,0,0,0,57.1,127.85Z" fill="#2e3192"/><path d="M129.09,75.13s-5.93-22.71-16.36-16.78S107.21,88,99.85,87.59,84.11,72.08,77.77,75.13,71.64,105.71,63.66,110" fill="#fff"/><polyline points="128.42 45.23 119.88 71.49 104.2 61.03 97.5 83.7 85.51 77.55 75.75 96.51 62.57 85.93" fill="none" stroke="#42210b" stroke-miterlimit="10" stroke-width="0.75"/><ellipse cx="61.93" cy="85.08" rx="2.86" ry="1.81" transform="translate(-30.09 136.14) rotate(-82.98)" fill="#89562c"/><ellipse cx="128.42" cy="45.23" rx="2.86" ry="1.81" transform="translate(67.83 167.16) rotate(-82.98)" fill="#89562c"/><path d="M231.72,118.22l.87,62.48s7.71,2.62,15,0l-1.44-59.17,4.25,72.69a17,17,0,0,0,13.07,0l-1.36-81.35-33.51-15Z" fill="#484887"/><path d="M250.29,56.45s-5.76-3.19-11.06-1.64-5.52,25-5.6,26.52.56,20.92.56,20.92l8.29,3.19Z" fill="#fff"/><path d="M226.3,94.5c-5.13.39-14.58-14.66-14.58-14.66C217,77.07,217.21,71,217.21,71l12.91,11.88" fill="#dbdbdb"/><path d="M211.72,79.84s-2.45-.52-.55-5.08,4.65-5,6-3.76S216.41,80.19,211.72,79.84Z" fill="#9e9e9e"/><path d="M236.39,177.42s-.64,8.64-2.14,9.91-7.44,5.83-8.46,6.57-.05,3.21,3.46,3.21S239.46,193,239.46,193l5-1.84s.69-8.36-.37-13.52S236.39,177.42,236.39,177.42Z" fill="#4a2b0f"/><path d="M253.13,191.38s-3.49,16.84-1.2,18.13,7.47-1.49,8.27-4.38.5-20,0-20.13" fill="#4a2b0f"/><path d="M242.49,54.36s-8.1-2.3-12.07,7c-5.38,12.54-5.64,84.24-5.64,84.24a18.8,18.8,0,0,0,8.86,4.83s.69-74,1.28-78.68C235.88,64,242.49,54.36,242.49,54.36Z" fill="#dbdbdb"/><path d="M236.3,54.93s-4.57,5.44-4.23,5.44S233.72,62,233.72,62l-2.59,2.5,3.31,35S232,74.09,242.51,54.43C242.51,54.43,238,53.89,236.3,54.93Z" fill="#eef3f7"/><path d="M250.29,56.45s8.12,2.83,10.23,10.29c2.18,7.69,2.52,85.07,2.52,85.88s-5.16,4-9.52,4.69-10.78-1.83-10.78-1.83l-1.16-45.12s.55-25.94,1.16-30.88S250.29,56.45,250.29,56.45Z" fill="#dbdbdb"/><path d="M254,118.87q-.37-19.19-.34-38.38a.67.67,0,0,0-1.34,0q-.06,19.37.35,38.73Z" fill="#9e9e9e"/><path d="M251.16,143.08s17.67-16.79,18.91-16,1.11,26.17.86,26.91-12.39,13.21-13.85,13.58-7.13,0-7.13,0Z" fill="#4a2b0f"/><path d="M256.57,140.4s-2.09-11.27,4-13.39,4.45,6.58,4.45,6.58l2.12-2.5s-.5-8.66-6.89-6.36-7.34,10.74-6.28,17" fill="#4a2b0f"/><path d="M262.74,116.26a18.36,18.36,0,0,1-7,2.46,23.59,23.59,0,0,1-1.95,5.05c-.45,2-.5,3.86,1.51,3.67a.67.67,0,0,0,.56-.41c.06.54.12,1.07.19,1.61a.5.5,0,0,0,.15.27,1,1,0,0,0,1.14.7.89.89,0,0,0,.45-.17,1.13,1.13,0,0,0,.81,1,1,1,0,0,0,1.19-.52,1.23,1.23,0,0,0,1.56.48,1.56,1.56,0,0,0,.75-.91.62.62,0,0,0,.27-.25c1.56-2.7,1.26-5.65.48-8.52C262.79,119.2,262.76,117.73,262.74,116.26Z" fill="#f0b387"/><path d="M250.29,56.19l3.23,1.89-1.22,6.81-4,.53,1.29,3.8s-4.25,9.36-5,10.95S241.9,97.3,241.9,97.3s.47-16.83,1-19S246.41,62.59,250.29,56.19Z" fill="#eef3f7"/><path d="M261.84,115.49a25.11,25.11,0,0,1-8.65,3.08c-.85.14-.49,1.43.36,1.29a26.14,26.14,0,0,0,9-3.22A.67.67,0,0,0,261.84,115.49Z" fill="#9e9e9e"/><path d="M241.57,57.28s.84,2.63,2.94,2.56,3.68-1.37,4.51-3.78" fill="#d89261"/><path d="M238.17,46.58a4.29,4.29,0,0,1-2.13-4c0-3,4.69-5.31,6.62-5.58,2.49-.35,10.79.68,11.3,6.88.36,4.31-2.59,12-4.76,12" fill="#4a2b0f"/><path d="M249.59,51.63a27.9,27.9,0,0,0-.78-2.86q-.16-.48-.34-1c-.59-1.53-1.49-1.07-2.9-1.08a13,13,0,0,1-3.18-.32,17.15,17.15,0,0,1-4.52-1.94c-.21,3.32-.35,13.08,5.07,13.92,3.29.51,5.09-.79,6.09-2.35C249.25,54.59,249.42,53.11,249.59,51.63Z" fill="#f0b387"/><path d="M248.4,51.24s1.31-3.32,2.3-1.67c1.11,1.83-1.26,3.12-1.26,3.12" fill="#f0b387"/><ellipse cx="238.91" cy="50.08" rx="2.17" ry="2.59" transform="translate(-4.21 71.96) rotate(-16.98)" fill="none" stroke="#42210b" stroke-miterlimit="10" stroke-width="0.25"/><ellipse cx="244.75" cy="51.5" rx="2.17" ry="2.59" transform="translate(-4.37 73.72) rotate(-16.98)" fill="none" stroke="#42210b" stroke-miterlimit="10" stroke-width="0.25"/><line x1="246.82" y1="50.87" x2="251.13" y2="47.95" fill="none" stroke="#42210b" stroke-miterlimit="10" stroke-width="0.25"/><path d="M241.23,50.73s1,0,1.32.36" fill="none" stroke="#42210b" stroke-miterlimit="10" stroke-width="0.25"/><polyline points="277.26 238.31 192.58 289.95 110.31 240.82 190.76 191.3" opacity="0.32" fill="url(#linear-gradient-2)"/><path d="M277.93,208l2.1-1.16-96.54-55.3-62.8,35.62.85.49v47a.47.47,0,0,0,.94,0V188.18l92.88,54.26.22-.12v33.85a.47.47,0,0,0,.94,0V241.8l60.75-33.46s0,0,0,0v29.92a.47.47,0,0,0,.94,0V208.39A.42.42,0,0,0,277.93,208Z" fill="#dbdbdb"/><path d="M159.79,159.41s-11,19.84-12.62,24.18,3,14.2,17.82,14.39,17.73-11.19,17.44-12.89-13.53-25.68-13.53-25.68" fill="#c0f3f8"/><path d="M159.26,149.46v16.37s-11.07,16.7-10.15,19.88,5,8.8,16.3,8.88c12.6.09,14.71-9.41,14.71-10.21s-10.56-18.69-10.56-18.69V149.46" fill="#c0f3f8"/><ellipse cx="164.41" cy="149.46" rx="5.16" ry="2.93" fill="#93d8db"/><path d="M169.57,165.7v-3.23c-3-2.18-7.81-2.48-10.31.22v3.15c-1.66,2.5-3.24,5.06-4.77,7.64-1.22,2.07-2.42,4.16-3.48,6.32-.94,1.89-2.37,4.36-1.71,6.51,2,6.55,9.57,9.08,15.72,9.12,4,0,8.29-.83,11.38-3.58,2.33-2.06,4.55-5.6,3.33-8.79a46.68,46.68,0,0,0-3.48-6.36c-2.14-3.68-4.36-7.31-6.62-10.92Z" fill="#68e1fd"/><ellipse cx="164.41" cy="162.56" rx="5.16" ry="2.64" fill="#68e1fd"/><path d="M172.75,181.77q-2-5.35-3.59-10.84a1.16,1.16,0,0,0-2.23.62q1.57,5.5,3.59,10.84C171,183.77,173.27,183.17,172.75,181.77Z" fill="#fff"/><path d="M173,185.12a1.16,1.16,0,0,0,0,2.32A1.16,1.16,0,0,0,173,185.12Z" fill="#fff"/><path d="M342.25,169.11c-14.73,8.59-25.26,14.36-47.92,27.3,17.15,10.42,30.44,20,32.37,21.14l50.92-29.89C373.67,185.58,360.59,178.18,342.25,169.11Z" fill="url(#linear-gradient-3)" style="mix-blend-mode:multiply"/><polygon points="377.62 187.67 345.48 169.12 327.96 179.05 360.42 197.84 377.62 187.67" fill="#ffb164"/><polyline points="343.85 180.25 343.85 183.96 359.25 192.64 367.71 187.64 367.71 184.39" fill="#dbdbdb"/><polygon points="367.71 184.39 352.26 175.47 343.85 180.25 359.45 189.27 367.71 184.39" fill="#606060"/><polygon points="345.87 103.81 328.01 95.04 328.01 179.2 345.87 169.11 345.87 103.81" fill="#e87f18"/><polygon points="377.62 130.42 345.48 111.86 327.96 121.8 360.42 140.59 377.62 130.42" fill="#ffb164"/><polygon points="356 120.89 365.87 115.17 369.05 116.9 359.18 123.23 356 120.89" fill="#19847e"/><polygon points="359.04 122.43 359.04 134.94 369.05 129.36 369.05 116.9 359.04 122.43" fill="#04aaa8"/><polyline points="359.04 122.43 356 120.89 356 133.26 359.04 134.94" fill="#2252a4"/><polygon points="377.68 103.66 345.53 85.1 328.01 95.04 360.47 113.83 377.68 103.66" fill="#ffb164"/><polygon points="377.68 158.86 345.53 140.3 328.01 150.24 360.47 169.03 377.68 158.86" fill="#ffb164"/><polygon points="360.47 113.83 377.68 103.66 377.62 187.67 360.42 197.84 360.47 113.83" fill="#ff9c28"/><polygon points="330.77 137.75 339.45 132.72 342.25 134.24 333.56 139.81 330.77 137.75" fill="#19847e"/><polygon points="333.44 139.11 333.44 150.12 342.25 145.2 342.25 134.24 333.44 139.11" fill="#04aaa8"/><polyline points="333.44 139.11 330.77 137.75 330.77 148.64 333.44 150.12" fill="#2252a4"/><polygon points="334.05 138.37 343.91 132.66 347.09 134.39 337.22 140.72 334.05 138.37" fill="#19847e"/><polygon points="337.08 139.92 337.08 152.43 347.09 146.85 347.09 134.39 337.08 139.92" fill="#04aaa8"/><polyline points="337.08 139.92 334.05 138.37 334.05 150.75 337.08 152.43" fill="#2252a4"/><path d="M357,89.66a13.62,13.62,0,0,1-8.08-3.11v8.58a8.91,8.91,0,0,0,8.91,8.91h0a8.91,8.91,0,0,0,8.91-8.91V86.41C363.69,87.65,360.24,89.94,357,89.66Z" fill="#68e1fd"/><ellipse cx="357.82" cy="86.5" rx="8.91" ry="4.72" fill="#5ed18d"/><path d="M357.82,87.3s-6.06-.89-7.66-10.69C350.16,76.61,355.32,79.46,357.82,87.3Z" fill="#5ed18d"/><path d="M358.71,86.05s-6.95-12.47,0-20.84A34.94,34.94,0,0,1,358.71,86.05Z" fill="#5ed18d"/><path d="M357.82,78.21s-6.06-.89-7.66-10.69C350.16,67.53,355.32,70.38,357.82,78.21Z" fill="#5ed18d"/><path d="M358.55,82.21S357,76.28,365.45,71C365.45,71,364.82,76.88,358.55,82.21Z" fill="#5ed18d"/><ellipse cx="357.82" cy="86.5" rx="8.91" ry="4.72" fill="#146666"/><path d="M357.82,87.3s-6.06-.89-7.66-10.69C350.16,76.61,355.32,79.46,357.82,87.3Z" fill="#5ed18d"/><path d="M358.71,86.05s-6.95-12.47,0-20.84A34.94,34.94,0,0,1,358.71,86.05Z" fill="#5ed18d"/><path d="M357.82,78.21s-6.06-.89-7.66-10.69C350.16,67.53,355.32,70.38,357.82,78.21Z" fill="#5ed18d"/><path d="M358.55,82.21S357,76.28,365.45,71C365.45,71,364.82,76.88,358.55,82.21Z" fill="#5ed18d"/><path d="M210.3,240.62l26.79-16.52-21.27-12.67-27.66,15.19C195.09,231.91,203.17,235.62,210.3,240.62Z" opacity="0.32" fill="url(#linear-gradient-4)"/><path d="M213.47,171.1v5.84a5.51,5.51,0,0,1-1.53,2.81c-1.19,1-6,3.08-5.93,7.84.08,4.28-.09,33.34-.09,33.34h35V187.59s-1.06-5-4.58-7.39a9.14,9.14,0,0,1-2.23-1.65c-1-1.3-.5-2.87-.34-5.09a25.64,25.64,0,0,0-.12-2.93" fill="#68e1fd"/><polyline points="211.94 164.81 211.94 170.84 235.77 170.84 235.77 164.81" fill="#dbdbdb"/><ellipse cx="223.85" cy="170.84" rx="11.92" ry="5.24" fill="#dbdbdb"/><ellipse cx="223.85" cy="164.82" rx="11.92" ry="5.24" fill="#ededed"/><ellipse cx="223.41" cy="220.45" rx="17.49" ry="6.71" fill="#68e1fd"/><path d="M240.9,189c-.45.09-14.11,5-26.93,1.71v23s14.93,5.43,26.93-2Z" fill="#fff"/><path d="M209.81,76.74s4.2.73,6.89-.64,1.34-5.65-.73-5.59a32.42,32.42,0,0,0-6.16,1.36" fill="#f0b387"/><path d="M205.32,74.06s-8,13.2-9.16,16.43,2.25,10.55,13.24,10.69,13.17-8.31,13-9.58-9.94-17.92-9.94-17.92" fill="#c0f3f8"/><path d="M204.93,66.46V78.35s-8,12.13-7.37,14.44,3.63,6.39,11.84,6.45c9.15.06,10.68-6.83,10.68-7.41s-7.67-13.57-7.67-13.57V66.46" fill="#c0f3f8"/><ellipse cx="208.68" cy="66.46" rx="3.74" ry="2.13" fill="#93d8db"/><path d="M212.42,78.25V75.91c-2.16-1.58-5.67-1.8-7.49.16v2.29c-1.2,1.82-2.36,3.67-3.46,5.55-.89,1.5-1.75,3-2.53,4.59-.68,1.38-1.72,3.16-1.24,4.73,1.46,4.76,6.95,6.59,11.41,6.62,2.92,0,6-.61,8.26-2.6,1.69-1.5,3.31-4.07,2.42-6.38a33.9,33.9,0,0,0-2.53-4.62c-1.55-2.67-3.17-5.31-4.81-7.93Z" fill="#68e1fd"/><ellipse cx="208.68" cy="75.97" rx="3.74" ry="1.92" fill="#68e1fd"/><path d="M214.73,89.92Q213.26,86,212.12,82a.84.84,0,0,0-1.62.45q1.14,4,2.61,7.87C213.49,91.37,215.11,90.94,214.73,89.92Z" fill="#fff"/><path d="M214.88,92.36a.84.84,0,0,0,0,1.68A.84.84,0,0,0,214.88,92.36Z" fill="#fff"/><path d="M205.67,66.88s-1.85.11-2.07.92a1.16,1.16,0,0,0,.44,1.25s-1.8.71-1.52,1.74a6.77,6.77,0,0,0,.54,1.51s-1.58.89-1.25,1.65,4,2.77,5,2,0-2.39,0-2.39,1.47-1.39,1.25-2-1.14-1.07-1.14-1.07,1.58-1,1.16-1.9S205.67,66.88,205.67,66.88Z" fill="#f0b387"/><path d="M214.77,69.85a26.75,26.75,0,0,1-3-1.18,1.6,1.6,0,0,0-1.54.15c-1.23.84-3.51,2.54-3.07,3.28.61,1,3.34-.25,3.8-.34s1.68,2.35,5.1,2c0,0,1.81-2.25,1.25-2.72A14.35,14.35,0,0,0,214.77,69.85Z" fill="#f0b387"/></g></g></svg>