<svg id="Layer_2" data-name="Layer 2" xmlns="http://www.w3.org/2000/svg" viewBox="0 0 400 300"><title>PP_</title><path d="M190.64,291.1,15.06,187.33C9.47,184.2,4.68,179,10.13,175.66L186.34,74.11C189,72.47,193,71.4,195.69,73L380,179.92c5.59,3.25,6.59,12.31,1,15.56L213.79,290.94A23.35,23.35,0,0,1,190.64,291.1Z" fill="#c7b299"/><g style="isolation:isolate"><path d="M136.58,106.61v19.8c0-.19-.25-.36-.39-.48l-.62-.54v-19.8l.62.54C136.32,106.25,136.58,106.42,136.58,106.61Z" fill="#1e7059"/><path d="M132.47,128v0Z" fill="#1e7059"/><path d="M143.27,109.41v19.8c0,.32-.2.6-.63.84v-19.8C143.06,110,143.27,109.74,143.27,109.41Z" fill="#1e7059"/><path d="M122.25,113.25v19.8c0-.27-.23-.56-.23-.78v-19.8C122,112.69,122.25,113,122.25,113.25Z" fill="#1e7059"/><path d="M116.7,114.58v19.8a1.59,1.59,0,0,0-.56-1.14v-19.8A1.59,1.59,0,0,1,116.7,114.58Z" fill="#1e7059"/><path d="M116.93,116v19.8a6.35,6.35,0,0,1-.76-.16v-19.8A6.35,6.35,0,0,0,116.93,116Z" fill="#1e7059"/><path d="M117.79,116.43v19.8c0-.24-.24-.39-.86-.45V116C117.55,116,117.79,116.19,117.79,116.43Z" fill="#1e7059"/><path d="M139,136.62V116.78a1.39,1.39,0,0,1,.14-.61c.79-1.67,1.57-3.35,2.42-5a2.33,2.33,0,0,1,1.06-.91v19.8a2.33,2.33,0,0,0-1.06.91c-.85,1.66-1.63,3.34-2.42,5a1.39,1.39,0,0,0-.14.61S139,136.61,139,136.62Z" fill="#1e7059"/><path d="M173.91,115v19.8a1.13,1.13,0,0,1-.14.48,4.59,4.59,0,0,1-.4.74,3.21,3.21,0,0,0-.73,1.92v-19.8a3.21,3.21,0,0,1,.73-1.92,4.59,4.59,0,0,0,.4-.74A1.13,1.13,0,0,0,173.91,115Z" fill="#1e7059"/><path d="M117.24,137.49v-19.8c0,.3.37.47,1.28.89v19.8C117.61,138,117.24,137.8,117.24,137.49Z" fill="#1e7059"/><path d="M119.77,119.37v19.8c0-.15-.19-.29-.6-.49-.21-.11-.44-.19-.66-.29v-19.8c.22.1.45.19.66.29C119.58,119.08,119.77,119.22,119.77,119.37Z" fill="#1e7059"/><path d="M139.08,117.87v19.8s0,.1,0,.14c0,.68-.14,1.35-.23,2.09v-19.8c.09-.75.19-1.42.23-2.09C139.08,118,139.08,117.92,139.08,117.87Z" fill="#1e7059"/><path d="M138.85,120.11v19.8l-2.28.35v-19.8Z" fill="#1e7059"/><path d="M119.85,121.85v19.8a16.22,16.22,0,0,0-2.14-.83c-.48-.17-1-.33-1.45-.49v-19.8c.48.16,1,.31,1.45.49A16.22,16.22,0,0,1,119.85,121.85Z" fill="#1e7059"/><path d="M120.28,122.64v19.8a.9.9,0,0,0-.43-.79v-19.8A.9.9,0,0,1,120.28,122.64Z" fill="#1e7059"/><path d="M175.22,122.53v19.8a2,2,0,0,1-.08.54,1,1,0,0,0,0,.26v-19.8a1,1,0,0,1,0-.26A2,2,0,0,0,175.22,122.53Z" fill="#1e7059"/><path d="M142.43,119.16V139a20.26,20.26,0,0,1-.24,2.69c-.1.9-.18,1.81-.28,2.74V124.6c.1-.94.18-1.84.28-2.74A20.26,20.26,0,0,0,142.43,119.16Z" fill="#1e7059"/><path d="M124,124.84v19.8a18.9,18.9,0,0,0-3.6-.74c-1.11-.11-1.77-.39-2-1.08V123c.19.69.85,1,2,1.08A18.9,18.9,0,0,1,124,124.84Z" fill="#1e7059"/><polygon points="124.18 125.88 124.19 145.68 122.11 144.93 122.1 125.12 124.18 125.88" fill="#1e7059"/><path d="M121,145.77V126a1.21,1.21,0,0,0,.14.47v19.8A1.21,1.21,0,0,1,121,145.77Z" fill="#1e7059"/><path d="M118.68,127v19.8c-.17,0-.3-.24-.45-.37v-19.8C118.38,126.76,118.51,127,118.68,127Z" fill="#1e7059"/><path d="M121.43,127.12v19.8l-.28-.68v-19.8Z" fill="#1e7059"/><path d="M120.76,128.22V148a.22.22,0,0,0-.06-.16,2.71,2.71,0,0,0-2-1.05V127a2.71,2.71,0,0,1,2,1.05A.22.22,0,0,1,120.76,128.22Z" fill="#1e7059"/><path d="M176.32,126.4v19.8a2.39,2.39,0,0,1-1.09,1.92v-19.8A2.39,2.39,0,0,0,176.32,126.4Z" fill="#1e7059"/><path d="M117.37,148.37v-19.8a.46.46,0,0,0,0,.21,6.49,6.49,0,0,0,1.3,1.31v19.8a6.49,6.49,0,0,1-1.3-1.31A.46.46,0,0,1,117.37,148.37Z" fill="#1e7059"/><path d="M120.36,129.76v19.8a6.07,6.07,0,0,0-1.65.33v-19.8A6.07,6.07,0,0,1,120.36,129.76Z" fill="#1e7059"/><path d="M176.29,129.66v19.8a.26.26,0,0,1,0,.09,3,3,0,0,0-.18,1.05V130.8a3,3,0,0,1,.18-1.05A.26.26,0,0,0,176.29,129.66Z" fill="#1e7059"/><path d="M119.31,150.66v-19.8c0,.18.25.31.7.4a8.05,8.05,0,0,0,3.37.24,5.61,5.61,0,0,1,1.38.09v19.8a5.61,5.61,0,0,0-1.38-.09,8.05,8.05,0,0,1-3.37-.24C119.56,151,119.31,150.84,119.31,150.66Z" fill="#1e7059"/><path d="M176.39,132.76v19.8a1,1,0,0,1-.47.72v-19.8A1,1,0,0,0,176.39,132.76Z" fill="#1e7059"/><path d="M127.75,133.55v19.8a1.14,1.14,0,0,0-.25-.67v-19.8A1.14,1.14,0,0,1,127.75,133.55Z" fill="#1e7059"/><path d="M127.5,132.88v19.8L126,154.41v-19.8Z" fill="#1e7059"/><path d="M126,134.61v19.8l-.72-1v-19.8Z" fill="#1e7059"/><path d="M122.86,135.32v19.8a3.64,3.64,0,0,0-1.72-1.26,8.85,8.85,0,0,1-1.7-1.38v-19.8a8.85,8.85,0,0,0,1.7,1.38A3.64,3.64,0,0,1,122.86,135.32Z" fill="#1e7059"/><path d="M111.24,153.73v-19.8c0,.23.15.44.63.65a15.36,15.36,0,0,1,1.6.88v19.8a15.36,15.36,0,0,0-1.6-.88C111.39,154.17,111.24,154,111.24,153.73Z" fill="#1e7059"/><path d="M125.26,133.61v19.8l-1.75,2.11v-19.8Z" fill="#1e7059"/><path d="M123.51,135.73v19.8c-.31-.18-.57-.27-.65-.4v-19.8C122.94,135.46,123.21,135.55,123.51,135.73Z" fill="#1e7059"/><path d="M129,135.08v19.8c-2,1.14-2.76,1.36-4,1.12V136.2C126.28,136.44,127,136.22,129,135.08Z" fill="#1e7059"/><path d="M175.92,133.47v19.8A7.19,7.19,0,0,0,174,154a9.59,9.59,0,0,0-2.62,2.61v-19.8a9.59,9.59,0,0,1,2.62-2.61A7.19,7.19,0,0,1,175.92,133.47Z" fill="#1e7059"/><path d="M111.89,137.2V157c0-.54-.74-.57-1.3-.7s-1.62-.19-1.77-1.16v-19.8c.14,1,1.07,1,1.77,1.16S111.89,136.65,111.89,137.2Z" fill="#1e7059"/><path d="M116.05,138.75v19.8a.14.14,0,0,0,0-.11,2.21,2.21,0,0,0-1.4-.32v-19.8a2.21,2.21,0,0,1,1.4.32A.14.14,0,0,1,116.05,138.75Z" fill="#1e7059"/><path d="M127.73,138.93v19.8c0-.15,0-.33-.05-.62v-19.8C127.69,138.6,127.73,138.78,127.73,138.93Z" fill="#1e7059"/><path d="M114.61,138.31v19.8a5.12,5.12,0,0,0-1.2.69V139A5.12,5.12,0,0,1,114.61,138.31Z" fill="#1e7059"/><path d="M113.4,139v19.8c-.57.35-.86.41-1.22.18-.87-.54-1.69-1.12-2.63-1.75v-19.8c.95.63,1.76,1.21,2.63,1.75C112.55,139.42,112.83,139.36,113.4,139Z" fill="#1e7059"/><path d="M123.83,138.84v19.8a3.27,3.27,0,0,0-.95,1.44v-19.8A3.27,3.27,0,0,1,123.83,138.84Z" fill="#1e7059"/><path d="M122.88,140.29v19.8a4.62,4.62,0,0,1-1.35-.9v-19.8A4.62,4.62,0,0,0,122.88,140.29Z" fill="#1e7059"/><path d="M121.53,139.39v19.8c-2.48,1.36-3.15,1.37-5.9.13v-19.8C118.38,140.76,119.05,140.75,121.53,139.39Z" fill="#1e7059"/><path d="M181,136.31v19.8a.48.48,0,0,1-.19.35,8.88,8.88,0,0,1-1.59,1.2,4.87,4.87,0,0,1-.6.28,7.1,7.1,0,0,0-.88.41,2.75,2.75,0,0,0-1.69,2.18v-19.8a2.75,2.75,0,0,1,1.69-2.18,7.1,7.1,0,0,1,.88-.41,4.87,4.87,0,0,0,.6-.28,8.88,8.88,0,0,0,1.59-1.2A.48.48,0,0,0,181,136.31Z" fill="#1e7059"/><path d="M125.41,141.48v19.8c-.57-1-1.08-1.8-1.58-2.64v-19.8C124.33,139.68,124.84,140.52,125.41,141.48Z" fill="#1e7059"/><path d="M127.67,138.31v19.8c-1.67.93-.81,2.25-2.27,3.18v-19.8C126.86,140.56,126,139.24,127.67,138.31Z" fill="#1e7059"/><path d="M176.11,141.45v19.8a1.13,1.13,0,0,1-.71,1v-19.8A1.13,1.13,0,0,0,176.11,141.45Z" fill="#1e7059"/><path d="M127.53,159.61v-19.8c0,.25.16.48.76.66.17.05.2.34.22.53a11.24,11.24,0,0,1,0,1.13c0,1.09.05,1.09,1.76,1.14a2.66,2.66,0,0,1,1.19.3v19.8a2.66,2.66,0,0,0-1.19-.3c-1.71,0-1.73,0-1.76-1.14a11.24,11.24,0,0,0,0-1.13c0-.18,0-.48-.22-.53C127.69,160.09,127.53,159.86,127.53,159.61Z" fill="#1e7059"/><path d="M175.4,142.43v19.8c-.94.48-1.85.88-2.85,1.34v-19.8C173.55,143.31,174.46,142.91,175.4,142.43Z" fill="#1e7059"/><path d="M126,166.27v-19.8c0,.25.34.47,1,.67.44.13.93.21,1.5.34v19.8c-.57-.13-1.05-.21-1.5-.34C126.29,166.74,126,166.51,126,166.27Z" fill="#1e7059"/><path d="M140.2,153.78v19.8c0-1.34-.88-2-3.41-2.65-2.09-.52-4.38-.75-6.59-1.07-.89-.13-1.82-.15-2.94-.24v-19.8c1.11.08,2,.11,2.94.24,2.21.32,4.5.55,6.59,1.07C139.32,151.74,140.2,152.44,140.2,153.78Z" fill="#1e7059"/><path d="M245,173.63v-19.8c0-.27.3-.58.89-1v19.8C245.28,173,245,173.35,245,173.63Z" fill="#1e7059"/><path d="M165.19,158.36v19.8c0-1.67-2.35-2.91-5.09-2.51a1.89,1.89,0,0,1-2-.6,23.26,23.26,0,0,0-1.89-1.95c-.61-.53-1.08-.64-1.62-.33a2.86,2.86,0,0,0-.48.35c-.4.35-.73.73-1.15,1.06s-1,.67-1.58,1.08v-19.8c.6-.41,1.12-.72,1.58-1.08s.75-.72,1.15-1.06a2.86,2.86,0,0,1,.48-.35c.54-.3,1-.2,1.62.33a23.26,23.26,0,0,1,1.89,1.95,1.89,1.89,0,0,0,2,.6C162.83,155.45,165.19,156.69,165.19,158.36Z" fill="#1e7059"/><path d="M150.72,177.46v-19.8c0-.15,0-.31,0-.46,0-.34.58-.66,1-1.13v19.8c-.44.47-1,.79-1,1.13C150.72,177.15,150.72,177.31,150.72,177.46Z" fill="#1e7059"/><path d="M139.57,177v-19.8c0,.23.34.45,1,.43v19.8C139.91,177.5,139.57,177.27,139.57,177Z" fill="#1e7059"/><path d="M193.54,157.12v19.8a2.62,2.62,0,0,0-2.36.09l-.67.37a11.11,11.11,0,0,1-1.55.76v-19.8a11.11,11.11,0,0,0,1.55-.76l.67-.37A2.62,2.62,0,0,1,193.54,157.12Z" fill="#1e7059"/><path d="M257.1,158.46v19.8a6.18,6.18,0,0,1-1.32-.2,2.1,2.1,0,0,0-.94.09v-19.8a2.1,2.1,0,0,1,.94-.09A6.18,6.18,0,0,0,257.1,158.46Z" fill="#1e7059"/><path d="M188.09,178.94v-19.8c0-.26.24-.48.87-.8v19.8C188.33,178.46,188.09,178.69,188.09,178.94Z" fill="#1e7059"/><path d="M254.84,158.35v19.8a2.87,2.87,0,0,1-.65.5,6.33,6.33,0,0,1-3.13.48h-1.93v-19.8h1.93a6.33,6.33,0,0,0,3.13-.48A2.87,2.87,0,0,0,254.84,158.35Z" fill="#1e7059"/><path d="M165.11,161.94v19.8a5.1,5.1,0,0,0-.33-1.57.8.8,0,0,1,0-.25v-19.8a.8.8,0,0,0,0,.25A5.1,5.1,0,0,1,165.11,161.94Z" fill="#1e7059"/><path d="M154.84,163.6v19.8a.77.77,0,0,1-.3.54,4.14,4.14,0,0,1-.82.57v-19.8a4.14,4.14,0,0,0,.82-.57A.77.77,0,0,0,154.84,163.6Z" fill="#1e7059"/><path d="M188.34,160v19.8a1,1,0,0,1-.65.87,3.61,3.61,0,0,1-.58.25,4.12,4.12,0,0,0-.66.3,2,2,0,0,0-.81.72,3.68,3.68,0,0,1-1.63,1.62,15.44,15.44,0,0,1-3.69,1.26,1.22,1.22,0,0,1-1.34-.28,2.63,2.63,0,0,0-1.36-.55,9.22,9.22,0,0,0-1.77.09v-19.8a9.22,9.22,0,0,1,1.77-.09,2.63,2.63,0,0,1,1.36.55,1.22,1.22,0,0,0,1.34.28,15.44,15.44,0,0,0,3.69-1.26,3.68,3.68,0,0,0,1.63-1.62,2,2,0,0,1,.81-.72,4.12,4.12,0,0,1,.66-.3,3.61,3.61,0,0,0,.58-.25A1,1,0,0,0,188.34,160Z" fill="#1e7059"/><path d="M153.73,164.71v19.8c-1.39.69-2.25.62-2.84-.09a5,5,0,0,1-.71-1.49,6,6,0,0,0-.84-2.11,4,4,0,0,1-1-2.43,2.17,2.17,0,0,0-.57-1.05c-.52-.61-1.13-1.19-1.7-1.77s-1.27-1.41-2-2.06c-.49-.41-.83-.53-1.13-.36a1.42,1.42,0,0,0-.47.53,6.87,6.87,0,0,0-.42.88c-.37.87-.69,1.75-1.12,2.61a.86.86,0,0,1-.36.3v-19.8a.86.86,0,0,0,.36-.3c.43-.86.75-1.74,1.12-2.61a6.87,6.87,0,0,1,.42-.88,1.42,1.42,0,0,1,.47-.53c.3-.17.64,0,1.13.36.76.65,1.36,1.37,2,2.06s1.18,1.16,1.7,1.77a2.17,2.17,0,0,1,.57,1.05,4,4,0,0,0,1,2.43,6,6,0,0,1,.84,2.11,5,5,0,0,0,.71,1.49C151.48,165.33,152.34,165.4,153.73,164.71Z" fill="#1e7059"/><path d="M192.12,165.75v19.8a1,1,0,0,0-.07-.38c-.62-1.62-1.28-3.25-2-4.86a2.6,2.6,0,0,1-.28-1v-19.8a2.6,2.6,0,0,0,.28,1c.72,1.61,1.37,3.24,2,4.86A1,1,0,0,1,192.12,165.75Z" fill="#1e7059"/><path d="M192,186.36v-19.8c0,.3.36.4,1.22.39v19.8C192.32,186.76,192,186.66,192,186.36Z" fill="#1e7059"/><path d="M179.74,167.05v19.8a.3.3,0,0,1-.06.19v-19.8A.3.3,0,0,0,179.74,167.05Z" fill="#1e7059"/><path d="M207.81,166.17V186a3.22,3.22,0,0,1-.31,1,1.51,1.51,0,0,1-.47.39V167.6a1.51,1.51,0,0,0,.47-.39A3.22,3.22,0,0,0,207.81,166.17Z" fill="#1e7059"/><path d="M179.68,167.25v19.8a2.68,2.68,0,0,1-1.26.27,11.6,11.6,0,0,1-1.7-.21,14.68,14.68,0,0,0-6.66.63v-19.8a14.68,14.68,0,0,1,6.66-.63,11.6,11.6,0,0,0,1.7.21A2.68,2.68,0,0,0,179.68,167.25Z" fill="#1e7059"/><path d="M272.86,168v19.8a.7.7,0,0,0,0-.24c-.17-.46-.4-.91-.59-1.37a2.44,2.44,0,0,1-.24-.89v-19.8a2.44,2.44,0,0,0,.24.89c.2.46.42.91.59,1.37A.7.7,0,0,1,272.86,168Z" fill="#1e7059"/><path d="M267.34,164.07v19.8a4.52,4.52,0,0,1-.62,1.59,8,8,0,0,0-.67,2.35.67.67,0,0,0,0,.1v-19.8a.67.67,0,0,1,0-.1,8,8,0,0,1,.67-2.35A4.52,4.52,0,0,0,267.34,164.07Z" fill="#1e7059"/><path d="M210.17,169.28v19.8a3.75,3.75,0,0,0-2.36-3.11v-19.8A3.75,3.75,0,0,1,210.17,169.28Z" fill="#1e7059"/><path d="M207,167.6v19.8a4,4,0,0,0-1.45.29,1.35,1.35,0,0,0-.52.59c-.32.57-.58,1.15-.94,1.88v-19.8c.36-.73.62-1.3.94-1.88a1.35,1.35,0,0,1,.52-.59A4,4,0,0,1,207,167.6Z" fill="#1e7059"/><path d="M204.13,170.35v19.8a29.36,29.36,0,0,1-4.54-1.87,8.9,8.9,0,0,0-6.42-1.54v-19.8a8.9,8.9,0,0,1,6.42,1.54A29.36,29.36,0,0,0,204.13,170.35Z" fill="#1e7059"/><path d="M164.37,183.55v-19.8a.53.53,0,0,0,.17.35,3.9,3.9,0,0,1,1.14,3.14c0,.9.47,1.59,1.9,2,1.26.36,2.44.83,3.68,1.21a4.69,4.69,0,0,0,1.8.16v19.8a4.69,4.69,0,0,1-1.8-.16c-1.24-.38-2.42-.85-3.68-1.21-1.42-.41-1.89-1.1-1.9-2a3.9,3.9,0,0,0-1.14-3.14A.53.53,0,0,1,164.37,183.55Z" fill="#1e7059"/><path d="M212.84,174.31v19.8c0-.26-.34-.44-1.09-.86-.38-.2-.73-.42-1.07-.65a1.92,1.92,0,0,1-1-1.55v-19.8a1.92,1.92,0,0,0,1,1.55c.34.23.69.45,1.07.65C212.5,173.87,212.84,174,212.84,174.31Z" fill="#1e7059"/><path d="M299.23,194.38v-19.8c0-.06,0-.12,0-.18,0-.56.33-1.12.36-1.68a1.25,1.25,0,0,1,.67-1.14,3.39,3.39,0,0,1,1-.33V191a3.39,3.39,0,0,0-1,.33,1.25,1.25,0,0,0-.67,1.14c0,.56-.31,1.12-.36,1.68C299.23,194.26,299.23,194.32,299.23,194.38Z" fill="#1e7059"/><path d="M215.64,179.47v19.8a1.65,1.65,0,0,0-.65-1.06,17.5,17.5,0,0,0-2.49-2c-.36-.23-.51-.45-.51-.67v-19.8c0,.22.15.44.51.67a17.5,17.5,0,0,1,2.49,2A1.65,1.65,0,0,1,215.64,179.47Z" fill="#1e7059"/><path d="M300.12,176.71v19.8a1.83,1.83,0,0,1-.89,1.42c-.63.48-1.37.9-2,1.39a11.77,11.77,0,0,0-1.18,1.25v-19.8a11.77,11.77,0,0,1,1.18-1.25c.6-.49,1.34-.92,2-1.39A1.83,1.83,0,0,0,300.12,176.71Z" fill="#1e7059"/><path d="M310.25,201.11v-19.8a2.32,2.32,0,0,1,0-.26v19.8A2.32,2.32,0,0,0,310.25,201.11Z" fill="#1e7059"/><path d="M299.7,181.65v19.8a1.51,1.51,0,0,1-.3.68,3.44,3.44,0,0,0-.69,1.38v-19.8a3.44,3.44,0,0,1,.69-1.38A1.51,1.51,0,0,0,299.7,181.65Z" fill="#1e7059"/><path d="M312.56,185.06v19.8a.19.19,0,0,1,0,.1,6.24,6.24,0,0,1-2.34,2.69v-19.8a6.24,6.24,0,0,0,2.34-2.69A.19.19,0,0,0,312.56,185.06Z" fill="#1e7059"/><path d="M195.92,188v19.8a1.4,1.4,0,0,0-.29-.75c-.14-.22-.31-.43-.44-.66a.92.92,0,0,1-.13-.42v-19.8a.92.92,0,0,0,.13.42c.12.23.29.44.44.66A1.4,1.4,0,0,1,195.92,188Z" fill="#1e7059"/><path d="M309,208.74v-19.8c0-.3.31-.62,1.18-1.08v19.8C309.33,208.11,309,208.44,309,208.74Z" fill="#1e7059"/><path d="M202.55,190.79v19.8a2.31,2.31,0,0,0-.58-1.3c-.22-.29-1.47-.34-2.27-.38-1.11-.07-2.24,0-3.37,0-.36,0-.7,0-1.28-.07V189c.57,0,.92.07,1.28.07,1.13,0,2.26,0,3.37,0,.8,0,2.05.1,2.27.38A2.31,2.31,0,0,1,202.55,190.79Z" fill="#1e7059"/><path d="M310.46,190.48v19.8a10.4,10.4,0,0,0-2.05.34v-19.8A10.4,10.4,0,0,1,310.46,190.48Z" fill="#1e7059"/><path d="M307.23,211.6v-19.8c0-.24.36-.55,1.19-1v19.8C307.59,211,307.23,211.36,307.23,211.6Z" fill="#1e7059"/><path d="M133.09,193v19.8a6,6,0,0,0-.56-1.95,2.51,2.51,0,0,1-.2-.91V190.1a2.51,2.51,0,0,0,.2.91A6,6,0,0,1,133.09,193Z" fill="#1e7059"/><path d="M203.6,195.57v19.8l-1.29-.19v-19.8Z" fill="#1e7059"/><path d="M307.23,191.88v19.8c0,.54-.42.88-.93,1.23s-1.08.76-1.69,1.1c-.88.48-1.21.89-1.21,1.37v-19.8c0-.48.33-.88,1.21-1.37.61-.34,1.14-.73,1.69-1.1S307.23,192.42,307.23,191.88Z" fill="#1e7059"/><path d="M200.73,213.27V193.52a15.18,15.18,0,0,0,.23,1.86,1.66,1.66,0,0,0,.86,1.18v19.8a1.66,1.66,0,0,1-.86-1.18,15.18,15.18,0,0,1-.23-1.86Z" fill="#1e7059"/><path d="M202.31,195.39v19.8l-.5,1.16v-19.8Z" fill="#1e7059"/><path d="M128.53,216.45v-19.8c0,.31.38.53,1.12.57a15.51,15.51,0,0,0,2.54-.27l1.09-.15v19.8l-1.09.15a15.51,15.51,0,0,1-2.54.27C128.91,217,128.53,216.76,128.53,216.45Z" fill="#1e7059"/><path d="M133.27,197.17V217c0-.07,0-.14,0-.2V197C133.27,197,133.27,197.1,133.27,197.17Z" fill="#1e7059"/><path d="M169.44,190.89v19.8c0,.25-.18.48-.54.69l-.2.1-.4.2a2.34,2.34,0,0,0-1.3,1.62c-.24,1.12-1.49,1.95-2.7,2.76s-2.18,1.52-3.26,2.28v-19.8c1.08-.76,2.14-1.54,3.26-2.28s2.46-1.63,2.7-2.76a2.34,2.34,0,0,1,1.3-1.62l.4-.2.2-.1C169.26,191.37,169.44,191.14,169.44,190.89Z" fill="#1e7059"/><polygon points="161.04 198.54 161.05 218.34 160.92 218.45 160.91 198.64 161.04 198.54" fill="#1e7059"/><path d="M303.56,196.51v19.8a1,1,0,0,1-.59.91,4.53,4.53,0,0,1-1.67.42c-1.14.12-2.31.16-3.46.23a8.47,8.47,0,0,0-3.66.88V199a8.47,8.47,0,0,1,3.66-.88c1.16-.07,2.32-.11,3.46-.23a4.53,4.53,0,0,0,1.67-.42A1,1,0,0,0,303.56,196.51Z" fill="#1e7059"/><path d="M145.5,217.43v-19.8a2,2,0,0,1,0-.32,1.36,1.36,0,0,1,.73-1,3.45,3.45,0,0,1,2.34-.21,2.23,2.23,0,0,1,1.83,1.43c.35.9.73,1,2.11.68a2.72,2.72,0,0,1,2.12.24c1.22.71,4.89.78,6.26.16v19.8c-1.37.62-5,.55-6.26-.16a2.72,2.72,0,0,0-2.12-.24c-1.38.33-1.76.22-2.11-.68a2.23,2.23,0,0,0-1.83-1.43,3.45,3.45,0,0,0-2.34.21,1.36,1.36,0,0,0-.73,1A2,2,0,0,0,145.5,217.43Z" fill="#1e7059"/><path d="M216.33,199.76v19.8c0-1.37-.73-2.7-2.39-4-1.44-1.11-2.63-2.34-4.21-3.37a4.79,4.79,0,0,0-4.48,0,2.15,2.15,0,0,0-1,1,12.43,12.43,0,0,0-.34,1.26c-.09.3-.22.61-.34.91v-19.8c.12-.3.25-.61.34-.91a12.43,12.43,0,0,1,.34-1.26,2.15,2.15,0,0,1,1-1,4.79,4.79,0,0,1,4.48,0c1.58,1,2.77,2.26,4.21,3.37C215.6,197.07,216.33,198.4,216.33,199.76Z" fill="#1e7059"/><path d="M145.84,220.64v-19.8c0-.18.23-.36.57-.56l1-.55v19.8l-1,.55C146.07,220.27,145.84,220.46,145.84,220.64Z" fill="#1e7059"/><path d="M131.4,220.37v-19.8a3.52,3.52,0,0,0,.25,1.26v19.8A3.52,3.52,0,0,1,131.4,220.37Z" fill="#1e7059"/><path d="M132.42,202.35v19.8l-.78-.52v-19.8Z" fill="#1e7059"/><path d="M135.33,202.83v19.8c-.07-.18-.59-.35-.95-.4-.64-.08-1.31-.07-2-.09v-19.8c.66,0,1.33,0,2,.09C134.75,202.48,135.26,202.66,135.33,202.83Z" fill="#1e7059"/><path d="M140.88,203.29v19.8c-1.49-.65-2.22-.75-3.22-.19a7.38,7.38,0,0,0-.8.53v-19.8a7.38,7.38,0,0,1,.8-.53C138.66,202.54,139.4,202.64,140.88,203.29Z" fill="#1e7059"/><path d="M136.87,203.63v19.8c-.73-.1-1.31-.27-1.54-.79v-19.8C135.57,203.36,136.14,203.53,136.87,203.63Z" fill="#1e7059"/><path d="M141.85,203.66v19.8a3,3,0,0,1-1-.37v-19.8A3,3,0,0,0,141.85,203.66Z" fill="#1e7059"/><path d="M146.94,201.84v19.8a.18.18,0,0,1,0,.07.89.89,0,0,1-.4.37,2.12,2.12,0,0,1-.36.16,3.94,3.94,0,0,1-1.14.09,3.85,3.85,0,0,0-1.74.23.85.85,0,0,0-.44.65s0,0-.06.06a2.23,2.23,0,0,1-.92.18v-19.8a2.23,2.23,0,0,0,.92-.18s.06,0,.06-.06a.85.85,0,0,1,.44-.65,3.85,3.85,0,0,1,1.74-.23,3.94,3.94,0,0,0,1.14-.09,2.12,2.12,0,0,0,.36-.16.89.89,0,0,0,.4-.37A.18.18,0,0,0,146.94,201.84Z" fill="#1e7059"/><path d="M248.88,205.17V225c0-1.48-.07-2.95-.14-4.42a4.18,4.18,0,0,0-.16-.65V200.1a4.18,4.18,0,0,1,.16.65C248.81,202.22,248.88,203.69,248.88,205.17Z" fill="#1e7059"/><path d="M294.18,199v19.8a44.91,44.91,0,0,0-5.07,3.63,6.91,6.91,0,0,1-1.31.95,9.26,9.26,0,0,1-4.09,1c-1.7.1-3.37.41-4.88.61v-19.8c1.51-.2,3.18-.51,4.88-.61a9.26,9.26,0,0,0,4.09-1,6.91,6.91,0,0,0,1.31-.95A44.91,44.91,0,0,1,294.18,199Z" fill="#1e7059"/><path d="M210.83,206.72v19.8a2.78,2.78,0,0,0-.05-.52.73.73,0,0,1,0-.14v-19.8a.73.73,0,0,0,0,.14A2.78,2.78,0,0,1,210.83,206.72Z" fill="#1e7059"/><path d="M207.93,210v19.8l-.88-.79v-19.8Z" fill="#1e7059"/><path d="M224.13,210.16V230a26.68,26.68,0,0,1-4-.8v-19.8A26.68,26.68,0,0,0,224.13,210.16Z" fill="#1e7059"/><path d="M279,206.3v19.8a.68.68,0,0,1-.08.33,5.16,5.16,0,0,1-2,2.16,6.64,6.64,0,0,1-2.24.72,6.65,6.65,0,0,0-1.13.35,6.41,6.41,0,0,0-.95.39c-.21.12-.31.23-.31.36v-19.8c0-.13.1-.24.31-.36a6.41,6.41,0,0,1,.95-.39,6.65,6.65,0,0,1,1.13-.35,6.64,6.64,0,0,0,2.24-.72,5.16,5.16,0,0,0,2-2.16A.68.68,0,0,0,279,206.3Z" fill="#1e7059"/><path d="M220.27,210v19.8a.39.39,0,0,1-.24.37,3.81,3.81,0,0,1-1.05.29c-.37.06-.75.12-1.11.2a2.07,2.07,0,0,0-.52.19.47.47,0,0,0-.29.39v-19.8a.47.47,0,0,1,.29-.39,2.07,2.07,0,0,1,.52-.19c.36-.08.74-.14,1.11-.2a3.81,3.81,0,0,0,1.05-.29A.39.39,0,0,0,220.27,210Z" fill="#1e7059"/><path d="M224,230.94v-19.8c0,.56.5.82,1.46.82a4.22,4.22,0,0,0,2.05-.36,1.6,1.6,0,0,0,.81-1.22,1.77,1.77,0,0,1,.88-1.32,4.31,4.31,0,0,1,2.8-.19c1.44.26,2.85.6,4.26.93a6.66,6.66,0,0,0,3.87-.3,12.26,12.26,0,0,0,1.88-.82,3.78,3.78,0,0,0,2.12-2.51c.09-.48.86-.9,1.3-1.36a20.08,20.08,0,0,0,2.18-2.3,10.93,10.93,0,0,0,1-2.42v19.8a10.93,10.93,0,0,1-1,2.42,20.08,20.08,0,0,1-2.18,2.3c-.44.45-1.21.88-1.3,1.36a3.78,3.78,0,0,1-2.12,2.51,12.26,12.26,0,0,1-1.88.82,6.66,6.66,0,0,1-3.87.3c-1.42-.33-2.82-.66-4.26-.93a4.31,4.31,0,0,0-2.8.19,1.77,1.77,0,0,0-.88,1.32,1.6,1.6,0,0,1-.81,1.22,4.22,4.22,0,0,1-2.05.36C224.53,231.76,224,231.5,224,230.94Z" fill="#1e7059"/><path d="M210.47,213.25v19.8a.75.75,0,0,0-.43-.66c-1.18-.39-2.41-.91-3.78-.18a4.55,4.55,0,0,1-.89.17v-19.8a4.55,4.55,0,0,0,.89-.17c1.37-.72,2.6-.2,3.78.18A.75.75,0,0,1,210.47,213.25Z" fill="#1e7059"/><path d="M217.46,212.38v19.8c0,.4-.32.76-.88,1.11s-.79.7-1.24,1v-19.8c.45-.32.76-.72,1.24-1S217.46,212.78,217.46,212.38Z" fill="#1e7059"/><path d="M213.29,213.09v19.8a6.16,6.16,0,0,0-1,.65,6.1,6.1,0,0,1-.73.51,2.92,2.92,0,0,1-1.82.33v-19.8a2.92,2.92,0,0,0,1.82-.33,6.1,6.1,0,0,0,.73-.51A6.16,6.16,0,0,1,213.29,213.09Z" fill="#1e7059"/><path d="M273.73,212.18V232c0,.12-.09.23-.27.34a3.57,3.57,0,0,1-.8.29c-1.23.32-2.56.52-3.86.75a7.09,7.09,0,0,0-2,.56.8.8,0,0,0-.49.72v-19.8a.8.8,0,0,1,.49-.72,7.09,7.09,0,0,1,2-.56c1.3-.23,2.62-.43,3.86-.75a3.57,3.57,0,0,0,.8-.29C273.64,212.41,273.73,212.3,273.73,212.18Z" fill="#1e7059"/><path d="M214.08,215.09v19.8l-.79-2v-19.8Z" fill="#1e7059"/><path d="M215.34,214.51v19.8a13.58,13.58,0,0,1-1.26.58v-19.8A13.58,13.58,0,0,0,215.34,214.51Z" fill="#1e7059"/><path d="M232.65,219.61v19.8a.6.6,0,0,0,0-.19,10.44,10.44,0,0,0-.91-2.33,2.43,2.43,0,0,1-.43-1v-19.8a2.43,2.43,0,0,0,.43,1,10.44,10.44,0,0,1,.91,2.33A.6.6,0,0,1,232.65,219.61Z" fill="#1e7059"/><path d="M251.7,241.3V221.5a.69.69,0,0,1,0-.24,7.64,7.64,0,0,1,3.7-4.15,15.61,15.61,0,0,1,4.07-1.5,13.28,13.28,0,0,1,7.19.37v19.8a13.28,13.28,0,0,0-7.19-.37,15.61,15.61,0,0,0-4.07,1.5,7.64,7.64,0,0,0-3.7,4.15A.69.69,0,0,0,251.7,241.3Z" fill="#1e7059"/><path d="M231.42,225v19.8a6.69,6.69,0,0,0-2.27-4.43v-19.8A6.69,6.69,0,0,1,231.42,225Z" fill="#1e7059"/><path d="M252.87,246.44v-19.8a1.37,1.37,0,0,1,.35-.73c.51-.68,1.11-1.33,1.75-2.1v19.8c-.65.77-1.25,1.42-1.75,2.1A1.37,1.37,0,0,0,252.87,246.44Z" fill="#1e7059"/><path d="M253.7,227.3v19.8c-.33.14-.68.24-.92.38v-19.8C253,227.54,253.36,227.44,253.7,227.3Z" fill="#1e7059"/><path d="M252.78,227.67v19.8a6.56,6.56,0,0,1-.8.57,2.85,2.85,0,0,1-2.32,0v-19.8a2.85,2.85,0,0,0,2.32,0A6.56,6.56,0,0,0,252.78,227.67Z" fill="#1e7059"/><path d="M229.84,229.68v19.8c0-.17-.21-.41-.55-.81v-19.8C229.63,229.28,229.84,229.52,229.84,229.68Z" fill="#1e7059"/><path d="M229.48,231.69v19.8c0-.16-.13-.3-.3-.45-.35-.31-.65-.64-1-1v-19.8c.36.35.66.68,1,1C229.35,231.39,229.48,231.53,229.48,231.69Z" fill="#1e7059"/><path d="M235.89,251.86v-19.8a.23.23,0,0,1,.14-.2,2,2,0,0,1,1-.11,3,3,0,0,0,1.54-.24,1.06,1.06,0,0,0,.54-.87,1.45,1.45,0,0,1,.82-1.12,3.78,3.78,0,0,1,1.14-.38c2.22-.42,4.44-.84,6.69-1.16a5.37,5.37,0,0,1,2,.32v19.8a5.37,5.37,0,0,0-2-.32c-2.25.32-4.48.74-6.69,1.16a3.78,3.78,0,0,0-1.14.38,1.45,1.45,0,0,0-.82,1.12,1.06,1.06,0,0,1-.54.87,3,3,0,0,1-1.54.24,2,2,0,0,0-1,.11A.23.23,0,0,0,235.89,251.86Z" fill="#1e7059"/><path d="M228.86,234.89v19.8a.37.37,0,0,0,0,0,6.29,6.29,0,0,0-.41-1.65,1.38,1.38,0,0,1-.13-.44v-19.8a1.38,1.38,0,0,0,.13.44,6.29,6.29,0,0,1,.41,1.65A.37.37,0,0,1,228.86,234.89Z" fill="#1e7059"/><path d="M236.51,233.09v19.8c0,.21-.18.4-.49.63a17.1,17.1,0,0,0-2.31,2,.76.76,0,0,0-.25.51v-19.8a.76.76,0,0,1,.25-.51,17.1,17.1,0,0,1,2.31-2C236.33,233.49,236.51,233.3,236.51,233.09Z" fill="#1e7059"/><path d="M227.3,256.55v-19.8a2.26,2.26,0,0,0,.09.58,5.44,5.44,0,0,0,.21.54v19.8a5.44,5.44,0,0,1-.21-.54A2.26,2.26,0,0,1,227.3,256.55Z" fill="#1e7059"/><path d="M235.51,237.66v19.8l-.47.24a1.82,1.82,0,0,0-.74.63v-19.8a1.82,1.82,0,0,1,.74-.63Z" fill="#1e7059"/><polygon points="234.3 238.53 234.31 258.34 232.71 259.23 232.7 239.42 234.3 238.53" fill="#1e7059"/><path d="M227.09,259.26v-19.8a.54.54,0,0,1,.27-.56,2.82,2.82,0,0,1,.84-.24,6.3,6.3,0,0,1,4.51.76v19.8a6.3,6.3,0,0,0-4.51-.76,2.82,2.82,0,0,0-.84.24A.54.54,0,0,0,227.09,259.26Z" fill="#1e7059"/><path d="M227.08,239.49v19.8a1.46,1.46,0,0,1-.83,1.31,3.57,3.57,0,0,1-1.59.39v-19.8a3.57,3.57,0,0,0,1.59-.39A1.46,1.46,0,0,0,227.08,239.49Z" fill="#1e7059"/><path d="M223.87,259.62v-19.8a1.89,1.89,0,0,0,.81,1.38V261A1.89,1.89,0,0,1,223.87,259.62Z" fill="#1e7059"/><path d="M142,181.74l.15-.07c1.34-.55,2.76-1,4.16-1.54a3,3,0,0,1,2.74.22c1.91,1.2,3.79,2.43,5.82,3.56a18.62,18.62,0,0,0,3.54,1.45,5.23,5.23,0,0,0,4-.29c.82-.44,1.4-.21,1.72.27a13.83,13.83,0,0,1,1.25,2.35,2.71,2.71,0,0,0,1.61,1.49,13.73,13.73,0,0,1,1.77.92c.78.48.84,1.06.08,1.49l-.2.1-.4.2a2.34,2.34,0,0,0-1.3,1.62c-.24,1.12-1.49,1.95-2.7,2.76s-2.18,1.52-3.26,2.28l-.14.11c-1.37.62-5,.55-6.26-.16a2.72,2.72,0,0,0-2.12-.24c-1.38.33-1.76.22-2.11-.68a2.23,2.23,0,0,0-1.83-1.43,3.45,3.45,0,0,0-2.34.21,1.36,1.36,0,0,0-.73,1,1.76,1.76,0,0,0,1.11,1.92c.25.14.46.3.75.49l-1,.55c-.66.37-.89.71.1,1.05.25.09.49.41.42.58a.89.89,0,0,1-.4.37,2.12,2.12,0,0,1-.36.16,3.94,3.94,0,0,1-1.14.09,3.85,3.85,0,0,0-1.74.23.85.85,0,0,0-.44.65s0,0-.06.06a2.23,2.23,0,0,1-.92.18,3,3,0,0,1-1-.37c-1.49-.65-2.22-.75-3.22-.19a7.38,7.38,0,0,0-.8.53c-.73-.1-1.31-.27-1.54-.79-.07-.18-.59-.35-.95-.4-.64-.08-1.31-.07-2-.09l-.78-.52c-.6-1.56-.12-3,1.5-4.26.22-.17.1-.5.15-.77l-1.09.15a15.51,15.51,0,0,1-2.54.27c-1.17-.06-1.44-.57-.75-1.17a3.54,3.54,0,0,1,.58-.39l.22-.12a8.06,8.06,0,0,1,.94-.41,9.73,9.73,0,0,0,1.23-.56c1.72-1,1.31-1.89.66-3.55a1.7,1.7,0,0,1,.92-2.44c1.33-.72,2.72-1.3,4-2a7.49,7.49,0,0,0,1.55-1.32c.29-.27.44-.64.79-.83l.39-.19a2.51,2.51,0,0,0,1.25-1.76A1.44,1.44,0,0,1,142,181.74Z" fill="#7aceb8"/><path d="M116.15,113.44a22.42,22.42,0,0,1,3-.48,9.9,9.9,0,0,1,3.14.32c0-.4-.48-.84-.06-1.07a13.2,13.2,0,0,1,2.64-.17c.13-.3.21-.48.37-.57s.67-.08,1.71,0l1-.85,1-.81a4,4,0,0,0,2.46-.52c.58-.33,1-.75,1-1.16a.7.7,0,0,1,.39-.68,2.16,2.16,0,0,1,.77-.22c.72-.09,1.47-.09,2.18-.21a1.92,1.92,0,0,0,.64-.22c.37-.3,0-.55-.25-.73l-.62-.54c.26-.07.53-.13.77-.21s.5-.21.77-.3l3.2-1,.64,2.8,1.61-.12c.25.88.49,1.66.69,2.45.12.43-.07.78-.6,1.08a2.33,2.33,0,0,0-1.06.91c-.85,1.66-1.63,3.34-2.42,5a1.39,1.39,0,0,0-.14.61c0,.41.09.82.06,1.23,0,.68-.14,1.35-.23,2.09l-2.28.35c1.61-.11,3.66.44,4.92-.26a2,2,0,0,0,.94-1.18,19.27,19.27,0,0,1-.24,2.84c-.1.9-.18,1.81-.28,2.74a5.79,5.79,0,0,0,2.14-.57,1.77,1.77,0,0,0,.94-1.23c.12-.55.18-1.18.82-1.54a2.05,2.05,0,0,1,.58-.21,4,4,0,0,0,1.14-.4,3.59,3.59,0,0,0,1.06-.94,2.93,2.93,0,0,1,.84-.75,3.81,3.81,0,0,1,2.43-.21c.3,0,.61.08.92.09a1.75,1.75,0,0,0,.87-.14.55.55,0,0,0,.28-.38,1.49,1.49,0,0,1,.8-1,4.76,4.76,0,0,1,1.54-.47c1-.17,2.09-.36,3.08-.62a12.61,12.61,0,0,0,2.51-.86l.53-.29c1.12-.62,2.15-1.31,3.25-1.95a4,4,0,0,1,4.22-.18,20,20,0,0,0,3,1.22c1.14.28,1.23.68.94,1.27a4.59,4.59,0,0,1-.4.74c-1.24,1.67-.86,3.22.92,4.67a2,2,0,0,1,.86,2.2,1.1,1.1,0,0,0,.17.89c1.1,1.55,1.59,3.08-.08,4.37.45.58,1.18,1.05,1,1.42a5.24,5.24,0,0,0,.11,2.95.91.91,0,0,1-.46.78,7.19,7.19,0,0,0-1.89.68,9.59,9.59,0,0,0-2.62,2.61l4.17-2.32c1.6.45,3.11.9,4.66,1.3.77.2.9.6.54.92a8.88,8.88,0,0,1-1.59,1.2,4.87,4.87,0,0,1-.6.28,7.1,7.1,0,0,0-.88.41c-1.2.67-1.89,1.59-1.64,2.59.14.54-.08.95-.67,1.28-.94.48-1.85.88-2.85,1.34a16.58,16.58,0,0,0,6-.39,3.87,3.87,0,0,0,.92-.35,1.55,1.55,0,0,0,.85-1.1c.11-.56.23-1.13.35-1.69a.78.78,0,0,1,.4-.55,3,3,0,0,1,1.15-.26c3-.28,6.16.05,9.09-.68a3.14,3.14,0,0,0,2.58,1.07c.89.06,1.79.06,2.66.19a15.1,15.1,0,0,1,3,.64,2.89,2.89,0,0,0,2.18.11,2.89,2.89,0,0,1,1.66.08c1.56.87,3.22,1.72,3.67,3.11l.87-.34c1.46,1,2.83,1.92,4.26,2.83a10.16,10.16,0,0,0,1.09.4,21.79,21.79,0,0,1,2.52,1.19,15.65,15.65,0,0,0,6.86,2.63,57.29,57.29,0,0,0,6.37.08,5,5,0,0,0,1.78-.25,3.52,3.52,0,0,1,3,.12c1,.33,2,.61,3,.86.83.21,1.78.26,2.56.51a3.39,3.39,0,0,0,2.77,0c.84.94,2.46.65,3.74.89-1.28.86-1.19,1.3.39,1.87.9.32,1.85.59,2.78.87,2.07.64,4.17,1.25,6.21,1.92a12.24,12.24,0,0,1,1.86.95,6.18,6.18,0,0,1-1.32-.2,2.1,2.1,0,0,0-.94.09,2.87,2.87,0,0,1-.65.5,6.33,6.33,0,0,1-3.13.48h-1.93a4.54,4.54,0,0,0,3.42.91,11.17,11.17,0,0,1,3.58.38,2.72,2.72,0,0,0,1.13,0,1.7,1.7,0,0,1,.51-.45c.72-.4,1.6,0,2.3.25,1.69.61,3.29,1.33,4.9,2,2.8,1.21,2.74,1.21,1.75,3.2a8,8,0,0,0-.67,2.35c-.07.5.39.76,1.32.7,1.5-.11,3-.18,4.51-.23a1.74,1.74,0,0,0,.75-.15.43.43,0,0,0,.17-.59c-.17-.46-.4-.91-.59-1.37-.39-.93-.35-1.32.42-1.75a9.73,9.73,0,0,1,1-.47c2-.8,3.87-1.72,5.85-2.53a10.26,10.26,0,0,1,2.9-.82,22.41,22.41,0,0,1,4.83,0c2.19.3,4.28.89,6.42,1.35l3.14,2.1c.07,2.63,1.25,5,4.5,7a3.39,3.39,0,0,0-1,.33,1.25,1.25,0,0,0-.67,1.14c0,.56-.31,1.12-.36,1.68a1.32,1.32,0,0,0,.29,1,1.61,1.61,0,0,1-.29,2.7c-.63.48-1.37.9-2,1.39a11.77,11.77,0,0,0-1.18,1.25c.72.12,1.44.29,2.17.37,1.54.15,1.72.3,1.15,1.2-1.1,1.72-1.1,1.71,1.61,2.58a2.69,2.69,0,0,0,2.31-.16c1.21-.72,2.34-1.37,3.5-2l1.35-.75c.58-.31,1.25-.57,2.08-.95-.16,1.41,1,2.34,1.87,3.33.21.24.53.57.41.77a6.24,6.24,0,0,1-2.34,2.69c-1.23.65-1.33,1-1,1.44a8.67,8.67,0,0,0,1.31,1.19,10.4,10.4,0,0,0-2.05.34c-.84.43-1.2.74-1.19,1,0,.59-.39.93-.93,1.3s-1.08.76-1.69,1.1c-1.13.62-1.35,1.11-1.13,1.8a1.06,1.06,0,0,1-.5,1.42,4.53,4.53,0,0,1-1.67.42c-1.14.12-2.31.16-3.46.23a8.47,8.47,0,0,0-3.66.88,44.91,44.91,0,0,0-5.07,3.63,6.91,6.91,0,0,1-1.31.95,9.26,9.26,0,0,1-4.09,1c-1.7.1-3.37.41-4.88.61.06.6.33,1.07.12,1.45a5.16,5.16,0,0,1-2,2.16,6.64,6.64,0,0,1-2.24.72,6.65,6.65,0,0,0-1.13.35,6.41,6.41,0,0,0-.95.39c-.56.31-.36.59.52,1.21.67.48.82.78.35,1a3.57,3.57,0,0,1-.8.29c-1.23.32-2.56.52-3.86.75a7.09,7.09,0,0,0-2,.56c-.67.37-.62.9-.08,1.86a13.28,13.28,0,0,0-7.19-.37,15.61,15.61,0,0,0-4.07,1.5,7.64,7.64,0,0,0-3.7,4.15c-.14.39.12.87.36,1.27a8.28,8.28,0,0,0,1,1.18,5.43,5.43,0,0,0,1.82.09c-.65.77-1.25,1.42-1.75,2.1-.4.53-.69,1.08.5,1.39-.33.14-.68.24-.92.38a6.56,6.56,0,0,1-.8.57,2.85,2.85,0,0,1-2.32,0,5.37,5.37,0,0,0-2-.32c-2.25.32-4.48.74-6.69,1.16a3.78,3.78,0,0,0-1.14.38,1.45,1.45,0,0,0-.82,1.12,1.06,1.06,0,0,1-.54.87,3,3,0,0,1-1.54.24,2,2,0,0,0-1,.11c-.24.13-.16.39.22.76s.32.72-.22,1.11a17.1,17.1,0,0,0-2.31,2c-.49.51-.25,1,.63,1.34.4.15.74.37,1.17.58l-.47.24a1.82,1.82,0,0,0-.74.63l-1.59.89a6.3,6.3,0,0,0-4.51-.76,2.82,2.82,0,0,0-.84.24c-.24.13-.28.31-.27.6a1.46,1.46,0,0,1-.83,1.31,3.57,3.57,0,0,1-1.59.39c-1.63-1.41-.54-2.53,1.09-3.61l1.84.28a5.44,5.44,0,0,1-.21-.54,1.24,1.24,0,0,1,.6-1.64,3.17,3.17,0,0,1,.49-.22.7.7,0,0,0,.39-.63,6.29,6.29,0,0,0-.41-1.65c-.12-.3-.26-.57.08-.76,1.24-.54,1-.85.65-1.2s-.65-.64-1-1a6.73,6.73,0,0,0,1.52-.36c.31-.17.1-.42-.41-1,3.14-2.76,2.57-5.52-.14-8.33,1-.13,1.69-.24,2.41-.31a2.18,2.18,0,0,0,.81-.21.47.47,0,0,0,.26-.61,10.44,10.44,0,0,0-.91-2.33c-.47-.8-.63-1.12-.11-1.4a7.36,7.36,0,0,1,1.32-.47l1.27-.35c2.34-.67,4.76-1.26,7-2a17.48,17.48,0,0,0,2.83-1.21c1.58-.88,2.65-2,2.76-3.57.05-.65,1-1.27,1.53-1.91.21-.27.56-.54.56-.81,0-1.54-.07-3.07-.14-4.6a4.18,4.18,0,0,0-.16-.65,10.93,10.93,0,0,1-1,2.42,20.08,20.08,0,0,1-2.18,2.3c-.44.45-1.21.88-1.3,1.36a3.78,3.78,0,0,1-2.12,2.51,12.26,12.26,0,0,1-1.88.82,6.66,6.66,0,0,1-3.87.3c-1.42-.33-2.82-.66-4.26-.93a4.31,4.31,0,0,0-2.8.19,1.77,1.77,0,0,0-.88,1.32,1.6,1.6,0,0,1-.81,1.22,4.22,4.22,0,0,1-2.05.36c-1,0-1.51-.29-1.45-.91,0-.29.07-.59.11-.88a26.68,26.68,0,0,1-4-.8c.23.52.27.78-.06,1a3.81,3.81,0,0,1-1.05.29c-.37.06-.75.12-1.11.2a2.07,2.07,0,0,0-.52.19c-.3.17-.4.4-.16.7.53.7.25,1.25-.61,1.78-.48.3-.79.7-1.24,1a13.58,13.58,0,0,1-1.26.58l-.79-2a6.16,6.16,0,0,0-1,.65,6.1,6.1,0,0,1-.73.51,2.92,2.92,0,0,1-1.82.33,5.22,5.22,0,0,0,.71-1.23.74.74,0,0,0-.42-.75c-1.18-.39-2.41-.91-3.78-.18a4.55,4.55,0,0,1-.89.17,3.05,3.05,0,0,1,1.53-2.15,5,5,0,0,1,1-.42l-.88-.79a2.05,2.05,0,0,1,.53-.23,6,6,0,0,0,2.2-.6,1.88,1.88,0,0,0,1-2.19.65.65,0,0,1,.38-.73,2.42,2.42,0,0,1,1.06-.24,2.92,2.92,0,0,0,1.29-.31,1.61,1.61,0,0,0,.6-.57c.25-.42.63-.81.93-1.22,1.85-2.57,1.88-5-1.1-7.34-1.44-1.11-2.63-2.34-4.21-3.37a4.79,4.79,0,0,0-4.48,0,2.15,2.15,0,0,0-1,1,12.43,12.43,0,0,0-.34,1.26c-.09.3-.22.61-.34.91l-1.29-.19-.5,1.16a1.66,1.66,0,0,1-.86-1.18,15.18,15.18,0,0,1-.23-1.86,1.28,1.28,0,0,1,.25-.8,5,5,0,0,1,1-.88c1-.78.58-1.63,0-2.34-.22-.29-1.47-.34-2.27-.38-1.11-.07-2.24,0-3.37,0-.36,0-.7,0-1.28-.07,1.09-.61,1-1.19.57-1.8-.14-.22-.31-.43-.44-.66-.21-.4-.16-.7.18-.89a2.28,2.28,0,0,1,.91-.22,8.61,8.61,0,0,1,1.95.1c.89.14,1.76.35,2.61.57a1.75,1.75,0,0,0,1.28,0,1.08,1.08,0,0,0,.37-.35,7.92,7.92,0,0,1,1.15-1l1.45,1.71.92-.81a26.23,26.23,0,0,1,4.72-3.49,19.34,19.34,0,0,1,3.3-1.45,5.76,5.76,0,0,0,1-.4c.86-.48.84-1,0-1.84a17.5,17.5,0,0,0-2.49-2c-.65-.43-.63-.78-.23-1.26.84-1,.81-1-.53-1.74-.38-.2-.73-.42-1.07-.65-1.07-.71-1.29-1.53-.78-2.44.79-1.4-.11-3.23-2.08-4.19a3.22,3.22,0,0,1-.31,1,1.51,1.51,0,0,1-.47.39,4,4,0,0,0-1.45.29,1.35,1.35,0,0,0-.52.59c-.32.57-.58,1.15-.94,1.88a29.36,29.36,0,0,1-4.54-1.87,8.9,8.9,0,0,0-6.42-1.54c-1,0-1.35-.14-1.17-.6a1.36,1.36,0,0,0,.05-1c-.62-1.62-1.28-3.25-2-4.86-.46-1.05-.43-1.47.65-2.07l.61-.31c.71-.33,1.44-.65,2.23-1a2.62,2.62,0,0,0-2.36.09l-.67.37a11.11,11.11,0,0,1-1.55.76c-.88.44-1,.7-.77,1.13s.18,1-.49,1.41a3.61,3.61,0,0,1-.58.25,4.12,4.12,0,0,0-.66.3,2,2,0,0,0-.81.72,3.68,3.68,0,0,1-1.63,1.62,15.44,15.44,0,0,1-3.69,1.26,1.22,1.22,0,0,1-1.34-.28,2.63,2.63,0,0,0-1.36-.55,9.22,9.22,0,0,0-1.77.09,5.16,5.16,0,0,0,1,.85c.82.47,1.79.83,2.58,1.31.28.17.46.61.3.8a2.68,2.68,0,0,1-1.26.27,11.6,11.6,0,0,1-1.7-.21,14.68,14.68,0,0,0-6.66.63l3,2.66a4.69,4.69,0,0,1-1.8-.16c-1.24-.38-2.42-.85-3.68-1.21-1.42-.41-1.89-1.1-1.9-2a3.9,3.9,0,0,0-1.14-3.14c-.14-.12-.23-.36-.13-.47,1-1.06.75-2.13.38-3.26-.17-.52.27-1.11.37-1.67.33-1.83-2.15-3.27-5.06-2.84a1.89,1.89,0,0,1-2-.6,23.26,23.26,0,0,0-1.89-1.95c-.61-.53-1.08-.64-1.62-.33a2.86,2.86,0,0,0-.48.35c-.4.35-.73.73-1.15,1.06s-1,.67-1.58,1.08l.38.61c-.44.47-1,.79-1,1.13a3.72,3.72,0,0,0,.32,2,13.35,13.35,0,0,0,1.71,2.48,4.64,4.64,0,0,0,1.39,1.15c.75.41.91.82.4,1.3a4.14,4.14,0,0,1-.82.57c-1.39.69-2.25.62-2.84-.09a5,5,0,0,1-.71-1.49,6,6,0,0,0-.84-2.11,4,4,0,0,1-1-2.43,2.17,2.17,0,0,0-.57-1.05c-.52-.61-1.13-1.19-1.7-1.77s-1.27-1.41-2-2.06c-.49-.41-.83-.53-1.13-.36a1.42,1.42,0,0,0-.47.53,6.87,6.87,0,0,0-.42.88c-.37.87-.69,1.75-1.12,2.61a.86.86,0,0,1-.36.3c-.66,0-1-.23-1-.47.1-.82.34-1.64.51-2.46.42-2-.21-2.87-3.29-3.62-2.09-.52-4.38-.75-6.59-1.07-.89-.13-1.82-.15-2.94-.24l1.19-2.35c-.57-.13-1.05-.21-1.5-.34-1.17-.35-1.34-.76-.43-1.27,1.07-.55,2.12-.95,3.12-1.4.63-.29,1.23-.6,1.84-.89a2.66,2.66,0,0,0-1.19-.3c-1.71,0-1.73,0-1.76-1.14a11.24,11.24,0,0,0,0-1.13c0-.18,0-.48-.22-.53-1.14-.34-.69-.87-.56-1.38a3.33,3.33,0,0,0,0-.77c-1.67.93-.81,2.25-2.27,3.18-.57-1-1.08-1.8-1.58-2.64a3.27,3.27,0,0,0-.95,1.44,4.62,4.62,0,0,1-1.35-.9c-2.48,1.36-3.15,1.37-5.9.13.16-.32.55-.72.37-.88a2.21,2.21,0,0,0-1.4-.32,5.12,5.12,0,0,0-1.2.69c-.57.35-.86.41-1.22.18-.87-.54-1.69-1.12-2.63-1.75l2.32-.06c.18-.73-.66-.74-1.27-.89s-1.62-.19-1.77-1.16l4.43.53.21-.41a15.36,15.36,0,0,0-1.6-.88c-1-.44-.54-.95-.3-1.45a.75.75,0,0,1,.31-.33,1.32,1.32,0,0,1,1,0c2,.66,4,1.29,5.91,2.05,1.61.65,3,1.52,4.56,2.18a4,4,0,0,0,3.77-.09,8.37,8.37,0,0,0,1.89-1.82c-2,1.14-2.76,1.36-4,1.12.64-.48,1.3-.94,1.87-1.44s1.24-1,.61-1.88L126,134.61l-.72-1-1.75,2.11c-.31-.18-.57-.27-.65-.4a3.64,3.64,0,0,0-1.72-1.26,8.85,8.85,0,0,1-1.7-1.38c1.64-.15,3-.22,4.21-.41a5.27,5.27,0,0,0,1.1-.68,5.61,5.61,0,0,0-1.38-.09,8.05,8.05,0,0,1-3.37-.24c-.72-.14-.93-.39-.41-.79.28-.22.52-.47.77-.71a6.07,6.07,0,0,0-1.65.33,6.49,6.49,0,0,1-1.3-1.31c-.16-.32.13-.73.22-1.1A9.62,9.62,0,0,1,119,128c.35.13.57.39.91.54a3.78,3.78,0,0,0,.81.12c0-.19.15-.44,0-.57a2.71,2.71,0,0,0-2-1.05c-.17,0-.3-.24-.45-.37a2.25,2.25,0,0,1,.74-.17c.32.05.56.24.88.33s.91.18,1.59.32l-.28-.68c-.18-.4-.19-.64,0-.76a2.33,2.33,0,0,1,1.22,0l1.78.24-2.08-.75a6.44,6.44,0,0,1,1.85-.28,18.9,18.9,0,0,0-3.6-.74c-1.11-.11-1.77-.39-2-1.08a4.72,4.72,0,0,0,.77,0,6.29,6.29,0,0,0,1.1-.24.91.91,0,0,0-.43-.91,16.22,16.22,0,0,0-2.14-.83c-.48-.17-1-.33-1.45-.49a7.68,7.68,0,0,0,2.8-.55c.87-.52,1-.67.12-1.11-.21-.11-.44-.19-.66-.29-1.5-.69-1.52-.7-.87-1.75.3-.49.2-.77-.71-.86a6.35,6.35,0,0,1-.76-.16A1.57,1.57,0,0,0,116.15,113.44Z" fill="#7aceb8"/></g><polygon points="196.59 140.4 196.59 93.09 196.59 91.42 193.97 83.82 191.23 91.19 190.88 139.45 196.59 140.4" fill="#68e1fd"/><path d="M196.53,91.18a7,7,0,0,1-5.19-.19.63.63,0,0,0-.86.35l0,.1a.63.63,0,0,0,.14.66,5.4,5.4,0,0,0,3.53,1.09A4.79,4.79,0,0,0,197,92.4a.57.57,0,0,0,.14-.13,1.5,1.5,0,0,0,.14-.23A.63.63,0,0,0,196.53,91.18Z" fill="#39726f" opacity="0.81"/><path d="M196.53,103.08a7,7,0,0,1-5.19-.19.63.63,0,0,0-.86.35l0,.1a.63.63,0,0,0,.14.66,5.4,5.4,0,0,0,3.53,1.09,4.79,4.79,0,0,0,2.92-.79.57.57,0,0,0,.14-.13,1.5,1.5,0,0,0,.14-.23A.63.63,0,0,0,196.53,103.08Z" fill="#39726f" opacity="0.81"/><path d="M196.38,115a7,7,0,0,1-5.19-.19.63.63,0,0,0-.86.35l0,.1a.63.63,0,0,0,.14.66A5.4,5.4,0,0,0,194,117a4.79,4.79,0,0,0,2.92-.79.57.57,0,0,0,.14-.13,1.5,1.5,0,0,0,.14-.23A.63.63,0,0,0,196.38,115Z" fill="#39726f" opacity="0.81"/><path d="M196.38,127.63a7,7,0,0,1-5.19-.19.63.63,0,0,0-.86.35l0,.1a.63.63,0,0,0,.14.66,5.4,5.4,0,0,0,3.53,1.09,4.79,4.79,0,0,0,2.92-.79.57.57,0,0,0,.14-.13,1.5,1.5,0,0,0,.14-.23A.63.63,0,0,0,196.38,127.63Z" fill="#39726f" opacity="0.81"/><polygon points="266.52 174.96 266.52 127.64 266.52 125.98 263.9 118.37 261.16 125.75 260.81 174 266.52 174.96" fill="#68e1fd"/><path d="M266.46,125.73a7,7,0,0,1-5.19-.19.63.63,0,0,0-.86.35l0,.1a.63.63,0,0,0,.14.66,5.4,5.4,0,0,0,3.53,1.09A4.79,4.79,0,0,0,267,127a.57.57,0,0,0,.14-.13,1.5,1.5,0,0,0,.14-.23A.63.63,0,0,0,266.46,125.73Z" fill="#39726f" opacity="0.81"/><path d="M266.46,137.63a7,7,0,0,1-5.19-.19.63.63,0,0,0-.86.35l0,.1a.63.63,0,0,0,.14.66,5.4,5.4,0,0,0,3.53,1.09,4.79,4.79,0,0,0,2.92-.79.57.57,0,0,0,.14-.13,1.5,1.5,0,0,0,.14-.23A.63.63,0,0,0,266.46,137.63Z" fill="#39726f" opacity="0.81"/><path d="M266.31,149.52a7,7,0,0,1-5.19-.19.63.63,0,0,0-.86.35l0,.1a.63.63,0,0,0,.14.66,5.4,5.4,0,0,0,3.53,1.09,4.79,4.79,0,0,0,2.92-.79.57.57,0,0,0,.14-.13,1.5,1.5,0,0,0,.14-.23A.63.63,0,0,0,266.31,149.52Z" fill="#39726f" opacity="0.81"/><path d="M266.31,162.18a7,7,0,0,1-5.19-.19.63.63,0,0,0-.86.35l0,.1a.63.63,0,0,0,.14.66,5.4,5.4,0,0,0,3.53,1.09,4.79,4.79,0,0,0,2.92-.79.57.57,0,0,0,.14-.13,1.5,1.5,0,0,0,.14-.23A.63.63,0,0,0,266.31,162.18Z" fill="#39726f" opacity="0.81"/><polygon points="283.24 181.95 270.31 187.25 172.74 141.07 172.74 131.54 173.82 131.2 186.27 136.31 244.71 162.71 283.24 181.95" fill="#36393d"/><polygon points="283.24 181.95 283.02 180.15 279.65 180.7 279.65 182.31 283.24 181.95" fill="#36393d"/><polygon points="283.02 180.15 270.1 185.45 172.53 139.27 172.53 129.75 173.61 129.4 186.06 134.51 244.49 160.91 283.02 180.15" fill="#676c70"/><path d="M228,173.43c0,.18-1.94,6-1.94,6a1.63,1.63,0,0,0,.48,2.09c1.15,1.08,17.28,8.38,17.28,8.38a10.85,10.85,0,0,0,5.7.36c3.1-.66,14.5-5.93,14.5-5.93l-8.63-4.16-9.27-5.08-12.47-2.44" fill="#68e1fd"/><path d="M252,181.48a8.41,8.41,0,0,1-4.65,1.55c-2.51-.06-6.43-2-6.43-2l-12.55-6s-1.84-2.59,2.51-3.14S252,181.48,252,181.48Z" fill="#68e1fd"/><path d="M255.44,180.14s-5.46,2.77-8,2.71-6.43-2-6.43-2l-12.55-6s-.17-3.77,4.18-4.32S255.44,180.14,255.44,180.14Z" fill="#fff" opacity="0.59"/><polygon points="243.87 179.38 233.27 174.01 233.17 129.32 244.68 133.63 243.87 179.38" fill="#68e1fd"/><polygon points="243.87 179.38 233.27 174.01 233.17 129.32 244.68 133.63 243.87 179.38" fill="#39726f" opacity="0.28"/><polygon points="260.59 171.62 260.59 164.23 250.42 169.51 250.42 176.13 249.56 176.6 249.56 136.03 261.26 130.76 261.26 170.66 260.59 171.62" fill="#68e1fd"/><polygon points="260.59 171.62 260.59 164.23 250.42 169.51 250.42 176.13 249.56 176.6 249.56 136.03 261.26 130.76 261.26 170.66 260.59 171.62" fill="#39726f" opacity="0.81"/><polyline points="246.86 115.76 244.68 115.12 235.16 130.18 247.08 134.76 249.56 123.78" fill="#68e1fd"/><polyline points="246.86 115.76 244.68 115.12 235.16 130.18 247.08 134.76 249.56 123.78" fill="#fff" opacity="0.59"/><polyline points="261.26 130.76 261.26 129.32 258.07 127 247.25 133.16 247.25 136.99" fill="#68e1fd"/><polygon points="259.51 128.13 251.02 114.4 246.86 115.76 247.25 133.16 259.51 128.13" fill="#68e1fd"/><polygon points="259.51 128.13 251.02 114.4 246.86 115.76 247.25 133.16 259.51 128.13" fill="#39726f" opacity="0.81"/><polygon points="249.63 180.7 249.63 133.39 249.63 131.72 247.02 124.11 244.28 131.49 243.93 179.75 249.63 180.7" fill="#68e1fd"/><path d="M249.58,131.48a7,7,0,0,1-5.19-.19.63.63,0,0,0-.86.35l0,.1a.63.63,0,0,0,.14.66,5.4,5.4,0,0,0,3.53,1.09,4.79,4.79,0,0,0,2.92-.79.57.57,0,0,0,.14-.13,1.5,1.5,0,0,0,.14-.23A.63.63,0,0,0,249.58,131.48Z" fill="#39726f" opacity="0.81"/><path d="M249.58,143.37a7,7,0,0,1-5.19-.19.63.63,0,0,0-.86.35l0,.1a.63.63,0,0,0,.14.66,5.4,5.4,0,0,0,3.53,1.09,4.79,4.79,0,0,0,2.92-.79.57.57,0,0,0,.14-.13,1.5,1.5,0,0,0,.14-.23A.63.63,0,0,0,249.58,143.37Z" fill="#39726f" opacity="0.81"/><path d="M249.43,155.27a7,7,0,0,1-5.19-.19.63.63,0,0,0-.86.35l0,.1a.63.63,0,0,0,.14.66,5.4,5.4,0,0,0,3.53,1.09,4.79,4.79,0,0,0,2.92-.79.57.57,0,0,0,.14-.13,1.5,1.5,0,0,0,.14-.23A.63.63,0,0,0,249.43,155.27Z" fill="#39726f" opacity="0.81"/><path d="M249.43,167.93a7,7,0,0,1-5.19-.19.63.63,0,0,0-.86.35l0,.1a.63.63,0,0,0,.14.66,5.4,5.4,0,0,0,3.53,1.09,4.79,4.79,0,0,0,2.92-.79.57.57,0,0,0,.14-.13,1.5,1.5,0,0,0,.14-.23A.63.63,0,0,0,249.43,167.93Z" fill="#39726f" opacity="0.81"/><polygon points="235.95 175.55 235.95 128.24 235.95 126.57 233.33 118.96 230.59 126.34 230.24 174.6 235.95 175.55" fill="#68e1fd"/><path d="M235.89,126.33a7,7,0,0,1-5.19-.19.63.63,0,0,0-.86.35l0,.1a.63.63,0,0,0,.14.66,5.4,5.4,0,0,0,3.53,1.09,4.79,4.79,0,0,0,2.92-.79.57.57,0,0,0,.14-.13,1.5,1.5,0,0,0,.14-.23A.63.63,0,0,0,235.89,126.33Z" fill="#39726f" opacity="0.81"/><path d="M235.89,138.22a7,7,0,0,1-5.19-.19.63.63,0,0,0-.86.35l0,.1a.63.63,0,0,0,.14.66,5.4,5.4,0,0,0,3.53,1.09,4.79,4.79,0,0,0,2.92-.79.57.57,0,0,0,.14-.13,1.5,1.5,0,0,0,.14-.23A.63.63,0,0,0,235.89,138.22Z" fill="#39726f" opacity="0.81"/><path d="M235.74,150.12a7,7,0,0,1-5.19-.19.63.63,0,0,0-.86.35l0,.1a.63.63,0,0,0,.14.66,5.4,5.4,0,0,0,3.53,1.09,4.79,4.79,0,0,0,2.92-.79.57.57,0,0,0,.14-.13,1.5,1.5,0,0,0,.14-.23A.63.63,0,0,0,235.74,150.12Z" fill="#39726f" opacity="0.81"/><path d="M235.74,162.78a7,7,0,0,1-5.19-.19.63.63,0,0,0-.86.35l0,.1a.63.63,0,0,0,.14.66,5.4,5.4,0,0,0,3.53,1.09,4.79,4.79,0,0,0,2.92-.79.57.57,0,0,0,.14-.13,1.5,1.5,0,0,0,.14-.23A.63.63,0,0,0,235.74,162.78Z" fill="#39726f" opacity="0.81"/><path d="M157.77,140.17c0,.18-1.94,6-1.94,6a1.63,1.63,0,0,0,.48,2.09c1.15,1.08,17.28,8.38,17.28,8.38a10.85,10.85,0,0,0,5.7.36c3.1-.66,14.5-5.93,14.5-5.93l-8.63-4.16-9.27-5.08-12.47-2.44" fill="#68e1fd"/><path d="M181.76,148.22a8.41,8.41,0,0,1-4.65,1.55c-2.51-.06-6.43-2-6.43-2l-12.55-6s-1.84-2.59,2.51-3.14S181.76,148.22,181.76,148.22Z" fill="#68e1fd"/><path d="M185.18,146.88s-5.46,2.77-8,2.71-6.43-2-6.43-2l-12.55-6s-.17-3.77,4.18-4.32S185.18,146.88,185.18,146.88Z" fill="#fff" opacity="0.59"/><polygon points="173.61 146.12 163.01 140.75 162.92 96.06 174.43 100.37 173.61 146.12" fill="#68e1fd"/><polygon points="173.61 146.12 163.01 140.75 162.92 96.06 174.43 100.37 173.61 146.12" fill="#39726f" opacity="0.28"/><polygon points="190.34 138.36 190.34 130.97 180.17 136.25 180.17 142.86 179.31 143.34 179.31 102.77 191.01 97.5 191.01 137.4 190.34 138.36" fill="#68e1fd"/><polygon points="190.34 138.36 190.34 130.97 180.17 136.25 180.17 142.86 179.31 143.34 179.31 102.77 191.01 97.5 191.01 137.4 190.34 138.36" fill="#39726f" opacity="0.81"/><polyline points="176.6 82.5 174.43 81.86 164.9 96.92 176.83 101.5 179.31 90.52" fill="#68e1fd"/><polyline points="176.6 82.5 174.43 81.86 164.9 96.92 176.83 101.5 179.31 90.52" fill="#fff" opacity="0.59"/><polyline points="191.01 97.5 191.01 96.06 187.81 93.74 177 99.9 177 103.73" fill="#68e1fd"/><polygon points="189.26 94.87 180.76 81.14 176.6 82.5 177 99.9 189.26 94.87" fill="#68e1fd"/><polygon points="189.26 94.87 180.76 81.14 176.6 82.5 177 99.9 189.26 94.87" fill="#39726f" opacity="0.81"/><polygon points="179.38 147.44 179.38 100.13 179.38 98.46 176.77 90.85 174.03 98.23 173.68 146.49 179.38 147.44" fill="#68e1fd"/><path d="M179.32,98.22a7,7,0,0,1-5.19-.19.63.63,0,0,0-.86.35l0,.1a.63.63,0,0,0,.14.66,5.4,5.4,0,0,0,3.53,1.09,4.79,4.79,0,0,0,2.92-.79.57.57,0,0,0,.14-.13,1.5,1.5,0,0,0,.14-.23A.63.63,0,0,0,179.32,98.22Z" fill="#39726f" opacity="0.81"/><path d="M179.32,110.11a7,7,0,0,1-5.19-.19.63.63,0,0,0-.86.35l0,.1a.63.63,0,0,0,.14.66,5.4,5.4,0,0,0,3.53,1.09,4.79,4.79,0,0,0,2.92-.79.57.57,0,0,0,.14-.13,1.5,1.5,0,0,0,.14-.23A.63.63,0,0,0,179.32,110.11Z" fill="#39726f" opacity="0.81"/><path d="M179.17,122a7,7,0,0,1-5.19-.19.63.63,0,0,0-.86.35l0,.1a.63.63,0,0,0,.14.66,5.4,5.4,0,0,0,3.53,1.09,4.79,4.79,0,0,0,2.92-.79.57.57,0,0,0,.14-.13,1.5,1.5,0,0,0,.14-.23A.63.63,0,0,0,179.17,122Z" fill="#39726f" opacity="0.81"/><path d="M179.17,134.67a7,7,0,0,1-5.19-.19.63.63,0,0,0-.86.35l0,.1a.63.63,0,0,0,.14.66,5.4,5.4,0,0,0,3.53,1.09,4.79,4.79,0,0,0,2.92-.79.57.57,0,0,0,.14-.13,1.5,1.5,0,0,0,.14-.23A.63.63,0,0,0,179.17,134.67Z" fill="#39726f" opacity="0.81"/><polygon points="165.69 142.29 165.69 94.98 165.69 93.31 163.08 85.7 160.34 93.08 159.99 141.34 165.69 142.29" fill="#68e1fd"/><path d="M165.64,93.07a7,7,0,0,1-5.19-.19.63.63,0,0,0-.86.35l0,.1a.63.63,0,0,0,.14.66,5.4,5.4,0,0,0,3.53,1.09,4.79,4.79,0,0,0,2.92-.79.57.57,0,0,0,.14-.13,1.5,1.5,0,0,0,.14-.23A.63.63,0,0,0,165.64,93.07Z" fill="#39726f" opacity="0.81"/><path d="M165.64,105a7,7,0,0,1-5.19-.19.63.63,0,0,0-.86.35l0,.1a.63.63,0,0,0,.14.66,5.4,5.4,0,0,0,3.53,1.09,4.79,4.79,0,0,0,2.92-.79.57.57,0,0,0,.14-.13,1.5,1.5,0,0,0,.14-.23A.63.63,0,0,0,165.64,105Z" fill="#39726f" opacity="0.81"/><path d="M165.49,116.86a7,7,0,0,1-5.19-.19.63.63,0,0,0-.86.35l0,.1a.63.63,0,0,0,.14.66,5.4,5.4,0,0,0,3.53,1.09,4.79,4.79,0,0,0,2.92-.79.57.57,0,0,0,.14-.13,1.5,1.5,0,0,0,.14-.23A.63.63,0,0,0,165.49,116.86Z" fill="#39726f" opacity="0.81"/><path d="M165.49,129.52a7,7,0,0,1-5.19-.19.63.63,0,0,0-.86.35l0,.1a.63.63,0,0,0,.14.66,5.4,5.4,0,0,0,3.53,1.09,4.79,4.79,0,0,0,2.92-.79.57.57,0,0,0,.14-.13,1.5,1.5,0,0,0,.14-.23A.63.63,0,0,0,165.49,129.52Z" fill="#39726f" opacity="0.81"/><line x1="270.14" y1="179.05" x2="264.95" y2="176.6" fill="#676c70"/><path d="M270.33,178.72l-5.19-2.44c-.43-.2-.82.44-.38.65l5.19,2.44c.43.2.82-.44.38-.65Z" fill="#f2f2f2"/><line x1="228.49" y1="160.45" x2="223.3" y2="158" fill="#676c70"/><path d="M228.68,160.12l-5.19-2.44c-.43-.2-.82.44-.38.65l5.19,2.44c.43.2.82-.44.38-.65Z" fill="#f2f2f2"/><line x1="215.44" y1="154.5" x2="210.25" y2="152.06" fill="#676c70"/><path d="M215.63,154.18l-5.19-2.44c-.43-.2-.82.44-.38.65l5.19,2.44c.43.2.82-.44.38-.65Z" fill="#f2f2f2"/><line x1="202.6" y1="147.68" x2="197.4" y2="145.24" fill="#676c70"/><path d="M202.78,147.36l-5.19-2.44c-.43-.2-.82.44-.38.65l5.19,2.44c.43.2.82-.44.38-.65Z" fill="#f2f2f2"/><line x1="186.45" y1="140.07" x2="181.26" y2="137.62" fill="#676c70"/><path d="M186.64,139.74l-5.19-2.44c-.43-.2-.82.44-.38.65l5.19,2.44c.43.2.82-.44.38-.65Z" fill="#f2f2f2"/></svg>