<svg xmlns="http://www.w3.org/2000/svg" xmlns:xlink="http://www.w3.org/1999/xlink" viewBox="0 0 400 300"><defs><linearGradient id="linear-gradient" x1="58.69" y1="147" x2="77.41" y2="134.25" gradientUnits="userSpaceOnUse"><stop offset="0" stop-color="#fff" stop-opacity="0"/><stop offset="0.81" stop-color="#262626" stop-opacity="0.57"/><stop offset="1" stop-opacity="0.67"/></linearGradient><linearGradient id="linear-gradient-2" x1="94.07" y1="168.75" x2="112.79" y2="155.99" xlink:href="#linear-gradient"/><linearGradient id="linear-gradient-3" x1="127.57" y1="186.19" x2="146.29" y2="173.44" xlink:href="#linear-gradient"/><linearGradient id="linear-gradient-4" x1="159.35" y1="210.27" x2="177.31" y2="198.03" xlink:href="#linear-gradient"/><linearGradient id="linear-gradient-5" x1="186.43" y1="230.82" x2="212.07" y2="214.43" xlink:href="#linear-gradient"/><linearGradient id="linear-gradient-6" x1="222.19" y1="252.62" x2="244.03" y2="240.86" xlink:href="#linear-gradient"/><linearGradient id="linear-gradient-7" x1="253.11" y1="225.3" x2="259.83" y2="210.92" xlink:href="#linear-gradient"/><linearGradient id="linear-gradient-8" x1="193.11" y1="197.45" x2="199.74" y2="183.27" xlink:href="#linear-gradient"/><linearGradient id="linear-gradient-9" x1="132.47" y1="164.27" x2="139.84" y2="148.5" xlink:href="#linear-gradient"/></defs><title>PP</title><g style="isolation:isolate"><g id="Layer_2" data-name="Layer 2"><path d="M381.17,164.23,200.09,59.14c-2.64-1.53-6.59-.48-9.18,1.13l-126.73,73h0L264.74,246.54h0l117.41-67C387.64,176.33,386.66,167.42,381.17,164.23Z" fill="#da7b5d"/><polygon points="302.04 202.17 123.29 98.8 107.95 107.95 284.66 212.09 302.04 202.17" fill="#c8c8cc"/><polygon points="372.08 185.28 173.39 70.38 157.9 79.22 354.7 195.2 372.08 185.28" fill="#c8c8cc"/><polygon points="171.62 177.94 287.4 110.28 273.74 102.36 156.83 169.27 171.62 177.94" fill="#c8c8cc"/><polygon points="277.21 223.72 379.63 163.34 365.97 155.41 261.97 214.93 277.21 223.72" fill="#c8c8cc"/><polygon points="191.14 143.45 191.14 29.64 215.96 43.51 215.96 157.76 191.14 143.45" fill="#68e1fd"/><polygon points="191.14 143.45 191.14 29.64 215.96 43.51 215.96 157.76 191.14 143.45" fill="#1e4549" opacity="0.33"/><polygon points="215.96 43.51 241.16 29.64 241.16 142.97 215.96 157.76 215.96 43.51" fill="#68e1fd"/><polygon points="191.14 29.64 215.96 14.42 241.16 29.64 215.96 43.51 191.14 29.64" fill="#ccc"/><polygon points="241.16 29.64 215.96 43.51 191.14 29.64 191.14 33 215.96 46.66 241.16 32.77 241.16 29.64" fill="#1e4549"/><polygon points="238.17 44.31 238.17 38.99 235.01 40.73 235.01 45.83 238.17 44.31" fill="#e0e0e0"/><polygon points="230.29 48.56 230.29 43.24 227.13 44.98 227.13 50.08 230.29 48.56" fill="#e0e0e0"/><polygon points="222.12 53.58 222.12 48.26 218.96 50 218.96 55.1 222.12 53.58" fill="#e0e0e0"/><polygon points="238.17 63.37 238.17 58.05 235.01 59.78 235.01 64.89 238.17 63.37" fill="#e0e0e0"/><polygon points="230.29 67.62 230.29 62.3 227.13 64.03 227.13 69.14 230.29 67.62" fill="#e0e0e0"/><polygon points="222.12 72.64 222.12 67.32 218.96 69.05 218.96 74.16 222.12 72.64" fill="#e0e0e0"/><polygon points="238.17 85.17 238.17 79.85 235.01 81.59 235.01 86.7 238.17 85.17" fill="#e0e0e0"/><polygon points="230.29 89.42 230.29 84.11 227.13 85.84 227.13 90.95 230.29 89.42" fill="#e0e0e0"/><polygon points="222.12 94.44 222.12 89.13 218.96 90.86 218.96 95.97 222.12 94.44" fill="#e0e0e0"/><polygon points="238.17 106.76 238.17 101.44 235.01 103.18 235.01 108.28 238.17 106.76" fill="#e0e0e0"/><polygon points="230.29 111.01 230.29 105.69 227.13 107.43 227.13 112.54 230.29 111.01" fill="#e0e0e0"/><polygon points="222.12 116.03 222.12 110.72 218.96 112.45 218.96 117.56 222.12 116.03" fill="#e0e0e0"/><polygon points="238.17 128.35 238.17 123.03 235.01 124.77 235.01 129.87 238.17 128.35" fill="#e0e0e0"/><polygon points="230.29 132.6 230.29 127.28 227.13 129.02 227.13 134.13 230.29 132.6" fill="#e0e0e0"/><polygon points="222.12 137.62 222.12 132.3 218.96 134.04 218.96 139.15 222.12 137.62" fill="#e0e0e0"/><polygon points="192.59 44.37 192.59 39.05 195.75 40.78 195.75 45.89 192.59 44.37" fill="#e0e0e0"/><polygon points="200.46 48.62 200.46 43.3 203.62 45.03 203.62 50.14 200.46 48.62" fill="#e0e0e0"/><polygon points="208.64 53.64 208.64 48.32 211.8 50.05 211.8 55.16 208.64 53.64" fill="#e0e0e0"/><polygon points="192.59 63.42 192.59 58.11 195.75 59.84 195.75 64.95 192.59 63.42" fill="#e0e0e0"/><polygon points="200.46 67.67 200.46 62.36 203.62 64.09 203.62 69.2 200.46 67.67" fill="#e0e0e0"/><polygon points="208.64 72.69 208.64 67.38 211.8 69.11 211.8 74.22 208.64 72.69" fill="#e0e0e0"/><polygon points="192.59 85.23 192.59 79.91 195.75 81.65 195.75 86.75 192.59 85.23" fill="#e0e0e0"/><polygon points="200.46 89.48 200.46 84.16 203.62 85.9 203.62 91 200.46 89.48" fill="#e0e0e0"/><polygon points="208.64 94.5 208.64 89.18 211.8 90.92 211.8 96.03 208.64 94.5" fill="#e0e0e0"/><polygon points="192.59 106.82 192.59 101.5 195.75 103.23 195.75 108.34 192.59 106.82" fill="#e0e0e0"/><polygon points="200.46 111.07 200.46 105.75 203.62 107.49 203.62 112.59 200.46 111.07" fill="#e0e0e0"/><polygon points="208.64 116.09 208.64 110.77 211.8 112.51 211.8 117.61 208.64 116.09" fill="#e0e0e0"/><polygon points="192.59 128.41 192.59 123.09 195.75 124.82 195.75 129.93 192.59 128.41" fill="#e0e0e0"/><polygon points="200.46 132.66 200.46 127.34 203.62 129.07 203.62 134.18 200.46 132.66" fill="#e0e0e0"/><polygon points="208.64 137.68 208.64 132.36 211.8 134.1 211.8 139.2 208.64 137.68" fill="#e0e0e0"/><polygon points="241.16 69.11 215.74 82.25 191.14 69.33 191.14 74.59 215.96 87.5 241.16 74.59 241.16 69.11" fill="#2e5b5a"/><polygon points="241.16 90.95 215.74 104.09 191.14 91.17 191.14 96.43 215.96 109.34 241.16 96.43 241.16 90.95" fill="#2e5b5a"/><polygon points="241.16 112.54 215.74 125.68 191.14 112.76 191.14 118.02 215.96 130.93 241.16 118.02 241.16 112.54" fill="#2e5b5a"/><polygon points="240.97 132.36 215.55 145.5 190.95 132.59 190.95 137.85 215.76 150.75 240.97 137.85 240.97 132.36" fill="#2e5b5a"/><polygon points="241.16 48.26 215.74 61.41 191.14 48.49 191.14 53.75 215.96 66.65 241.16 53.75 241.16 48.26" fill="#2e5b5a"/><polygon points="132.94 147.47 132.94 34.33 157.62 48.11 157.62 161.69 132.94 147.47" fill="#68e1fd"/><polygon points="132.94 147.47 132.94 34.33 157.62 48.11 157.62 161.69 132.94 147.47" fill="#1e4549" opacity="0.33"/><polygon points="157.62 48.11 182.67 34.33 182.67 146.98 157.62 161.69 157.62 48.11" fill="#68e1fd"/><polygon points="132.94 34.33 157.62 19.2 182.67 34.33 157.62 48.11 132.94 34.33" fill="#9d9ca1"/><polyline points="138.86 28.77 138.86 33.01 158.55 44.39 178.24 33.01 178.24 28.77" fill="#cc9825"/><polygon points="138.86 28.81 158.4 16.82 178.24 28.81 158.4 39.72 138.86 28.81" fill="#f9e1aa"/><polygon points="182.67 42.3 157.4 55.37 132.94 42.53 132.94 44.51 157.39 57.34 182.67 44.28 182.67 42.3" fill="#ccc"/><polygon points="182.67 50.51 157.4 63.57 132.94 50.73 132.94 52.71 157.39 65.55 182.67 52.48 182.67 50.51" fill="#ccc"/><polygon points="182.67 59.44 157.3 72.56 132.94 59.77 132.94 61.75 157.29 74.53 182.67 61.41 182.67 59.44" fill="#ccc"/><polygon points="182.67 67.54 157.1 80.76 132.94 68.08 132.94 70.05 157.09 82.73 182.67 69.51 182.67 67.54" fill="#ccc"/><polygon points="182.67 75.43 157.5 88.44 132.94 75.55 132.94 77.53 157.49 90.42 182.67 77.4 182.67 75.43" fill="#ccc"/><polygon points="182.67 83.52 157.3 96.64 132.94 83.85 132.94 85.83 157.29 98.62 182.67 85.5 182.67 83.52" fill="#ccc"/><polygon points="182.67 91.53 157.6 104.49 132.94 91.55 132.94 93.53 157.59 106.47 182.67 93.5 182.67 91.53" fill="#ccc"/><polygon points="182.67 99.89 157.4 112.96 132.94 100.12 132.94 102.1 157.39 114.94 182.67 101.86 182.67 99.89" fill="#ccc"/><polygon points="182.67 108.25 157.2 121.42 132.94 108.68 132.94 110.66 157.19 123.39 182.67 110.22 182.67 108.25" fill="#ccc"/><polygon points="182.67 116.34 157 129.62 132.94 116.99 132.94 118.97 156.99 131.59 182.67 118.32 182.67 116.34" fill="#ccc"/><polygon points="182.67 125.31 157.6 138.27 132.94 125.33 132.94 127.3 157.59 140.25 182.67 127.28 182.67 125.31" fill="#ccc"/><polygon points="182.67 133.41 157.4 146.47 132.94 133.63 132.94 135.61 157.39 148.44 182.67 135.38 182.67 133.41" fill="#ccc"/><polygon points="182.67 141.28 157.3 154.39 132.94 141.61 132.94 143.59 157.29 156.37 182.67 143.25 182.67 141.28" fill="#ccc"/><polygon points="193.68 182.41 193.68 80.16 215.98 92.62 215.98 195.27 193.68 182.41" fill="#68e1fd"/><polygon points="193.68 182.41 193.68 80.16 215.98 92.62 215.98 195.27 193.68 182.41" fill="#1e4549" opacity="0.33"/><polygon points="215.98 92.62 238.62 80.16 238.62 181.98 215.98 195.27 215.98 92.62" fill="#68e1fd"/><polygon points="193.68 80.16 215.98 66.49 238.62 80.16 215.98 92.62 193.68 80.16" fill="#9d9ca1"/><polyline points="199.03 75.13 199.03 78.97 216.82 89.26 234.62 78.97 234.62 75.13" fill="#cc9825"/><polygon points="199.03 75.17 216.69 64.34 234.62 75.17 216.69 85.04 199.03 75.17" fill="#f9e1aa"/><polygon points="238.62 87.37 215.78 99.18 193.68 87.58 193.68 89.36 215.78 100.97 238.62 89.15 238.62 87.37" fill="#ccc"/><polygon points="238.62 94.78 215.78 106.59 193.68 94.99 193.68 96.78 215.78 108.38 238.62 96.56 238.62 94.78" fill="#ccc"/><polygon points="238.62 102.86 215.69 114.71 193.68 103.16 193.68 104.94 215.69 116.5 238.62 104.64 238.62 102.86" fill="#ccc"/><polygon points="238.62 110.18 215.51 122.12 193.68 110.66 193.68 112.45 215.51 123.91 238.62 111.96 238.62 110.18" fill="#ccc"/><polygon points="238.62 117.31 215.87 129.07 193.68 117.42 193.68 119.2 215.87 130.85 238.62 119.09 238.62 117.31" fill="#ccc"/><polygon points="238.62 124.62 215.69 136.48 193.68 124.92 193.68 126.71 215.69 138.26 238.62 126.41 238.62 124.62" fill="#ccc"/><polygon points="238.62 131.86 215.97 143.58 193.68 131.88 193.68 133.66 215.96 145.36 238.62 133.64 238.62 131.86" fill="#ccc"/><polygon points="238.62 139.42 215.78 151.23 193.68 139.62 193.68 141.41 215.78 153.01 238.62 141.2 238.62 139.42" fill="#ccc"/><polygon points="238.62 146.97 215.6 158.87 193.68 147.36 193.68 149.15 215.6 160.66 238.62 148.75 238.62 146.97" fill="#ccc"/><polygon points="238.62 154.29 215.42 166.28 193.68 154.87 193.68 156.66 215.42 168.07 238.62 156.07 238.62 154.29" fill="#ccc"/><polygon points="238.62 162.39 215.97 174.1 193.68 162.4 193.68 164.19 215.96 175.89 238.62 164.17 238.62 162.39" fill="#ccc"/><polygon points="238.62 169.71 215.78 181.51 193.68 169.91 193.68 171.7 215.78 183.3 238.62 171.49 238.62 169.71" fill="#ccc"/><polygon points="238.62 176.82 215.69 188.68 193.68 177.12 193.68 178.91 215.69 190.46 238.62 178.6 238.62 176.82" fill="#ccc"/><polygon points="237.96 159.02 237.96 61.16 259.3 73.08 259.3 171.33 237.96 159.02" fill="#ffd9b6"/><polygon points="259.3 73.08 280.97 61.16 280.97 158.6 259.3 171.33 259.3 73.08" fill="#fc9"/><polygon points="237.96 61.16 259.3 48.07 280.97 61.16 259.3 73.08 237.96 61.16" fill="#9d9ca1"/><polygon points="259.3 73.08 280.97 34.52 280.97 61.16 259.3 73.08" fill="#fc9"/><polygon points="280.97 34.52 259.46 20.61 237.96 61.16 259.3 73.08 280.97 34.52" fill="#ffd9b6"/><polygon points="276.08 63.47 276.08 67 278.44 65.78 278.44 62.09 276.08 63.47" fill="#3c637a"/><polygon points="276.08 58.56 276.08 62.09 278.44 60.87 278.44 57.19 276.08 58.56" fill="#3c637a"/><polygon points="276.08 73.28 276.08 76.81 278.44 75.58 278.44 71.9 276.08 73.28" fill="#3c637a"/><polygon points="276.08 68.37 276.08 71.9 278.44 70.68 278.44 67 276.08 68.37" fill="#3c637a"/><polygon points="276.08 83.95 276.08 87.48 278.44 86.26 278.44 82.58 276.08 83.95" fill="#3c637a"/><polygon points="276.08 79.04 276.08 82.58 278.44 81.35 278.44 77.67 276.08 79.04" fill="#3c637a"/><polygon points="276.08 93.76 276.08 97.29 278.44 96.07 278.44 92.39 276.08 93.76" fill="#3c637a"/><polygon points="276.08 88.85 276.08 92.39 278.44 91.16 278.44 87.48 276.08 88.85" fill="#3c637a"/><polygon points="276.13 104.43 276.13 107.96 278.48 106.74 278.48 103.06 276.13 104.43" fill="#3c637a"/><polygon points="276.13 99.53 276.13 103.06 278.48 101.83 278.48 98.15 276.13 99.53" fill="#3c637a"/><polygon points="276.13 114.24 276.13 117.77 278.48 116.55 278.48 112.87 276.13 114.24" fill="#3c637a"/><polygon points="276.13 109.34 276.13 112.87 278.48 111.64 278.48 107.96 276.13 109.34" fill="#3c637a"/><polygon points="276.13 124.91 276.13 128.45 278.48 127.22 278.48 123.54 276.13 124.91" fill="#3c637a"/><polygon points="276.13 120.01 276.13 123.54 278.48 122.32 278.48 118.64 276.13 120.01" fill="#3c637a"/><polygon points="276.13 134.72 276.13 138.26 278.48 137.03 278.48 133.35 276.13 134.72" fill="#3c637a"/><polygon points="276.13 129.82 276.13 133.35 278.48 132.13 278.48 128.45 276.13 129.82" fill="#3c637a"/><polygon points="276.13 144.93 276.13 148.46 278.48 147.24 278.48 143.56 276.13 144.93" fill="#3c637a"/><polygon points="276.13 140.03 276.13 143.56 278.48 142.33 278.48 138.65 276.13 140.03" fill="#3c637a"/><polygon points="276.13 154.74 276.13 158.27 278.48 157.05 278.48 153.37 276.13 154.74" fill="#3c637a"/><polygon points="276.13 149.84 276.13 153.37 278.48 152.15 278.48 148.46 276.13 149.84" fill="#3c637a"/><polygon points="271.92 65.36 271.92 68.89 274.27 67.67 274.27 63.99 271.92 65.36" fill="#3c637a"/><polygon points="271.92 60.45 271.92 63.99 274.27 62.76 274.27 59.08 271.92 60.45" fill="#3c637a"/><polygon points="271.92 75.17 271.92 78.7 274.27 77.48 274.27 73.8 271.92 75.17" fill="#3c637a"/><polygon points="271.92 70.27 271.92 73.8 274.27 72.57 274.27 68.89 271.92 70.27" fill="#3c637a"/><polygon points="271.92 85.84 271.92 89.38 274.27 88.15 274.27 84.47 271.92 85.84" fill="#3c637a"/><polygon points="271.92 80.94 271.92 84.47 274.27 83.25 274.27 79.56 271.92 80.94" fill="#3c637a"/><polygon points="271.92 95.65 271.92 99.19 274.27 97.96 274.27 94.28 271.92 95.65" fill="#3c637a"/><polygon points="271.92 90.75 271.92 94.28 274.27 93.06 274.27 89.38 271.92 90.75" fill="#3c637a"/><polygon points="271.96 106.33 271.96 109.86 274.32 108.63 274.32 104.95 271.96 106.33" fill="#3c637a"/><polygon points="271.96 101.42 271.96 104.95 274.32 103.73 274.32 100.05 271.96 101.42" fill="#3c637a"/><polygon points="271.96 116.14 271.96 119.67 274.32 118.44 274.32 114.76 271.96 116.14" fill="#3c637a"/><polygon points="271.96 111.23 271.96 114.76 274.32 113.54 274.32 109.86 271.96 111.23" fill="#3c637a"/><polygon points="271.96 126.81 271.96 130.34 274.32 129.12 274.32 125.44 271.96 126.81" fill="#3c637a"/><polygon points="271.96 121.9 271.96 125.44 274.32 124.21 274.32 120.53 271.96 121.9" fill="#3c637a"/><polygon points="271.96 136.62 271.96 140.15 274.32 138.93 274.32 135.25 271.96 136.62" fill="#3c637a"/><polygon points="271.96 131.71 271.96 135.25 274.32 134.02 274.32 130.34 271.96 131.71" fill="#3c637a"/><polygon points="271.96 146.82 271.96 150.36 274.32 149.13 274.32 145.45 271.96 146.82" fill="#3c637a"/><polygon points="271.96 141.92 271.96 145.45 274.32 144.23 274.32 140.55 271.96 141.92" fill="#3c637a"/><polygon points="271.96 156.64 271.96 160.17 274.32 158.94 274.32 155.26 271.96 156.64" fill="#3c637a"/><polygon points="271.96 151.73 271.96 155.26 274.32 154.04 274.32 150.36 271.96 151.73" fill="#3c637a"/><polygon points="266.97 68.43 266.97 71.96 269.32 70.74 269.32 67.05 266.97 68.43" fill="#3c637a"/><polygon points="266.97 63.52 266.97 67.05 269.32 65.83 269.32 62.15 266.97 63.52" fill="#3c637a"/><polygon points="266.97 78.24 266.97 81.77 269.32 80.55 269.32 76.86 266.97 78.24" fill="#3c637a"/><polygon points="266.97 73.33 266.97 76.86 269.32 75.64 269.32 71.96 266.97 73.33" fill="#3c637a"/><polygon points="266.97 88.91 266.97 92.44 269.32 91.22 269.32 87.54 266.97 88.91" fill="#3c637a"/><polygon points="266.97 84 266.97 87.54 269.32 86.31 269.32 82.63 266.97 84" fill="#3c637a"/><polygon points="266.97 98.72 266.97 102.25 269.32 101.03 269.32 97.35 266.97 98.72" fill="#3c637a"/><polygon points="266.97 93.81 266.97 97.35 269.32 96.12 269.32 92.44 266.97 93.81" fill="#3c637a"/><polygon points="267.01 109.39 267.01 112.92 269.37 111.7 269.37 108.02 267.01 109.39" fill="#3c637a"/><polygon points="267.01 104.49 267.01 108.02 269.37 106.8 269.37 103.11 267.01 104.49" fill="#3c637a"/><polygon points="267.01 119.2 267.01 122.73 269.37 121.51 269.37 117.83 267.01 119.2" fill="#3c637a"/><polygon points="267.01 114.3 267.01 117.83 269.37 116.61 269.37 112.92 267.01 114.3" fill="#3c637a"/><polygon points="267.01 129.88 267.01 133.41 269.37 132.18 269.37 128.5 267.01 129.88" fill="#3c637a"/><polygon points="267.01 124.97 267.01 128.5 269.37 127.28 269.37 123.6 267.01 124.97" fill="#3c637a"/><polygon points="267.01 139.69 267.01 143.22 269.37 141.99 269.37 138.31 267.01 139.69" fill="#3c637a"/><polygon points="267.01 134.78 267.01 138.31 269.37 137.09 269.37 133.41 267.01 134.78" fill="#3c637a"/><polygon points="267.01 149.89 267.01 153.42 269.37 152.2 269.37 148.52 267.01 149.89" fill="#3c637a"/><polygon points="267.01 144.99 267.01 148.52 269.37 147.29 269.37 143.61 267.01 144.99" fill="#3c637a"/><polygon points="267.01 159.7 267.01 163.24 269.37 162.01 269.37 158.33 267.01 159.7" fill="#3c637a"/><polygon points="267.01 154.8 267.01 158.33 269.37 157.11 269.37 153.42 267.01 154.8" fill="#3c637a"/><polygon points="262.59 71.72 262.59 75.26 264.94 74.03 264.94 70.35 262.59 71.72" fill="#3c637a"/><polygon points="262.59 81.53 262.59 85.07 264.94 83.84 264.94 80.16 262.59 81.53" fill="#3c637a"/><polygon points="262.59 76.63 262.59 80.16 264.94 78.94 264.94 75.26 262.59 76.63" fill="#3c637a"/><polygon points="262.59 92.21 262.59 95.74 264.94 94.52 264.94 90.83 262.59 92.21" fill="#3c637a"/><polygon points="262.59 87.3 262.59 90.83 264.94 89.61 264.94 85.93 262.59 87.3" fill="#3c637a"/><polygon points="262.59 102.02 262.59 105.55 264.94 104.33 264.94 100.64 262.59 102.02" fill="#3c637a"/><polygon points="262.59 97.11 262.59 100.64 264.94 99.42 264.94 95.74 262.59 97.11" fill="#3c637a"/><polygon points="262.63 112.69 262.63 116.22 264.99 115 264.99 111.32 262.63 112.69" fill="#3c637a"/><polygon points="262.63 107.78 262.63 111.32 264.99 110.09 264.99 106.41 262.63 107.78" fill="#3c637a"/><polygon points="262.63 122.5 262.63 126.03 264.99 124.81 264.99 121.13 262.63 122.5" fill="#3c637a"/><polygon points="262.63 117.59 262.63 121.13 264.99 119.9 264.99 116.22 262.63 117.59" fill="#3c637a"/><polygon points="262.63 133.17 262.63 136.7 264.99 135.48 264.99 131.8 262.63 133.17" fill="#3c637a"/><polygon points="262.63 128.27 262.63 131.8 264.99 130.57 264.99 126.89 262.63 128.27" fill="#3c637a"/><polygon points="262.63 142.98 262.63 146.51 264.99 145.29 264.99 141.61 262.63 142.98" fill="#3c637a"/><polygon points="262.63 138.08 262.63 141.61 264.99 140.39 264.99 136.7 262.63 138.08" fill="#3c637a"/><polygon points="262.63 153.19 262.63 156.72 264.99 155.5 264.99 151.82 262.63 153.19" fill="#3c637a"/><polygon points="262.63 148.28 262.63 151.82 264.99 150.59 264.99 146.91 262.63 148.28" fill="#3c637a"/><polygon points="262.63 163 262.63 166.53 264.99 165.31 264.99 161.63 262.63 163" fill="#3c637a"/><polygon points="262.63 158.09 262.63 161.63 264.99 160.4 264.99 156.72 262.63 158.09" fill="#3c637a"/><polygon points="242.41 74.19 242.41 77.72 240.06 76.49 240.06 72.81 242.41 74.19" fill="#3c637a"/><polygon points="242.41 69.28 242.41 72.81 240.06 71.59 240.06 67.91 242.41 69.28" fill="#3c637a"/><polygon points="242.41 84.86 242.41 88.39 240.06 87.17 240.06 83.48 242.41 84.86" fill="#3c637a"/><polygon points="242.41 79.95 242.41 83.48 240.06 82.26 240.06 78.58 242.41 79.95" fill="#3c637a"/><polygon points="242.41 94.67 242.41 98.2 240.06 96.97 240.06 93.29 242.41 94.67" fill="#3c637a"/><polygon points="242.41 89.76 242.41 93.29 240.06 92.07 240.06 88.39 242.41 89.76" fill="#3c637a"/><polygon points="242.37 105.34 242.37 108.87 240.01 107.65 240.01 103.97 242.37 105.34" fill="#3c637a"/><polygon points="242.37 100.43 242.37 103.97 240.01 102.74 240.01 99.06 242.37 100.43" fill="#3c637a"/><polygon points="242.37 115.15 242.37 118.68 240.01 117.46 240.01 113.78 242.37 115.15" fill="#3c637a"/><polygon points="242.37 110.24 242.37 113.78 240.01 112.55 240.01 108.87 242.37 110.24" fill="#3c637a"/><polygon points="242.37 125.82 242.37 129.35 240.01 128.13 240.01 124.45 242.37 125.82" fill="#3c637a"/><polygon points="242.37 120.92 242.37 124.45 240.01 123.22 240.01 119.54 242.37 120.92" fill="#3c637a"/><polygon points="242.37 135.63 242.37 139.16 240.01 137.94 240.01 134.26 242.37 135.63" fill="#3c637a"/><polygon points="242.37 130.73 242.37 134.26 240.01 133.03 240.01 129.35 242.37 130.73" fill="#3c637a"/><polygon points="242.37 145.84 242.37 149.37 240.01 148.15 240.01 144.47 242.37 145.84" fill="#3c637a"/><polygon points="242.37 140.93 242.37 144.47 240.01 143.24 240.01 139.56 242.37 140.93" fill="#3c637a"/><polygon points="242.37 155.65 242.37 159.18 240.01 157.96 240.01 154.28 242.37 155.65" fill="#3c637a"/><polygon points="242.37 150.74 242.37 154.28 240.01 153.05 240.01 149.37 242.37 150.74" fill="#3c637a"/><polygon points="246.72 76.86 246.72 80.39 244.37 79.17 244.37 75.49 246.72 76.86" fill="#3c637a"/><polygon points="246.72 71.96 246.72 75.49 244.37 74.27 244.37 70.58 246.72 71.96" fill="#3c637a"/><polygon points="246.72 87.53 246.72 91.07 244.37 89.84 244.37 86.16 246.72 87.53" fill="#3c637a"/><polygon points="246.72 82.63 246.72 86.16 244.37 84.94 244.37 81.26 246.72 82.63" fill="#3c637a"/><polygon points="246.72 97.34 246.72 100.88 244.37 99.65 244.37 95.97 246.72 97.34" fill="#3c637a"/><polygon points="246.72 92.44 246.72 95.97 244.37 94.75 244.37 91.07 246.72 92.44" fill="#3c637a"/><polygon points="246.68 108.02 246.68 111.55 244.32 110.33 244.32 106.64 246.68 108.02" fill="#3c637a"/><polygon points="246.68 103.11 246.68 106.64 244.32 105.42 244.32 101.74 246.68 103.11" fill="#3c637a"/><polygon points="246.68 117.83 246.68 121.36 244.32 120.14 244.32 116.45 246.68 117.83" fill="#3c637a"/><polygon points="246.68 112.92 246.68 116.45 244.32 115.23 244.32 111.55 246.68 112.92" fill="#3c637a"/><polygon points="246.68 128.5 246.68 132.03 244.32 130.81 244.32 127.13 246.68 128.5" fill="#3c637a"/><polygon points="246.68 123.59 246.68 127.13 244.32 125.9 244.32 122.22 246.68 123.59" fill="#3c637a"/><polygon points="246.68 138.31 246.68 141.84 244.32 140.62 244.32 136.94 246.68 138.31" fill="#3c637a"/><polygon points="246.68 133.41 246.68 136.94 244.32 135.71 244.32 132.03 246.68 133.41" fill="#3c637a"/><polygon points="246.68 148.52 246.68 152.05 244.32 150.82 244.32 147.14 246.68 148.52" fill="#3c637a"/><polygon points="246.68 143.61 246.68 147.14 244.32 145.92 244.32 142.24 246.68 143.61" fill="#3c637a"/><polygon points="246.68 158.33 246.68 161.86 244.32 160.63 244.32 156.95 246.68 158.33" fill="#3c637a"/><polygon points="246.68 153.42 246.68 156.95 244.32 155.73 244.32 152.05 246.68 153.42" fill="#3c637a"/><polygon points="251.03 79.4 251.03 82.93 248.67 81.71 248.67 78.03 251.03 79.4" fill="#3c637a"/><polygon points="251.03 74.49 251.03 78.03 248.67 76.8 248.67 73.12 251.03 74.49" fill="#3c637a"/><polygon points="251.03 90.07 251.03 93.6 248.67 92.38 248.67 88.7 251.03 90.07" fill="#3c637a"/><polygon points="251.03 85.17 251.03 88.7 248.67 87.47 248.67 83.79 251.03 85.17" fill="#3c637a"/><polygon points="251.03 99.88 251.03 103.41 248.67 102.19 248.67 98.51 251.03 99.88" fill="#3c637a"/><polygon points="251.03 94.98 251.03 98.51 248.67 97.28 248.67 93.6 251.03 94.98" fill="#3c637a"/><polygon points="250.98 110.55 250.98 114.09 248.63 112.86 248.63 109.18 250.98 110.55" fill="#3c637a"/><polygon points="250.98 105.65 250.98 109.18 248.63 107.96 248.63 104.28 250.98 105.65" fill="#3c637a"/><polygon points="250.98 120.36 250.98 123.9 248.63 122.67 248.63 118.99 250.98 120.36" fill="#3c637a"/><polygon points="250.98 115.46 250.98 118.99 248.63 117.77 248.63 114.09 250.98 115.46" fill="#3c637a"/><polygon points="250.98 131.04 250.98 134.57 248.63 133.34 248.63 129.66 250.98 131.04" fill="#3c637a"/><polygon points="250.98 126.13 250.98 129.66 248.63 128.44 248.63 124.76 250.98 126.13" fill="#3c637a"/><polygon points="250.98 140.85 250.98 144.38 248.63 143.16 248.63 139.47 250.98 140.85" fill="#3c637a"/><polygon points="250.98 135.94 250.98 139.47 248.63 138.25 248.63 134.57 250.98 135.94" fill="#3c637a"/><polygon points="250.98 151.05 250.98 154.59 248.63 153.36 248.63 149.68 250.98 151.05" fill="#3c637a"/><polygon points="250.98 146.15 250.98 149.68 248.63 148.46 248.63 144.78 250.98 146.15" fill="#3c637a"/><polygon points="250.98 160.86 250.98 164.4 248.63 163.17 248.63 159.49 250.98 160.86" fill="#3c637a"/><polygon points="250.98 155.96 250.98 159.49 248.63 158.27 248.63 154.59 250.98 155.96" fill="#3c637a"/><polygon points="255.54 82.1 255.54 85.63 253.19 84.41 253.19 80.72 255.54 82.1" fill="#3c637a"/><polygon points="255.54 77.19 255.54 80.72 253.19 79.5 253.19 75.82 255.54 77.19" fill="#3c637a"/><polygon points="255.54 92.77 255.54 96.3 253.19 95.08 253.19 91.4 255.54 92.77" fill="#3c637a"/><polygon points="255.54 87.86 255.54 91.4 253.19 90.17 253.19 86.49 255.54 87.86" fill="#3c637a"/><polygon points="255.54 102.58 255.54 106.11 253.19 104.89 253.19 101.21 255.54 102.58" fill="#3c637a"/><polygon points="255.54 97.67 255.54 101.21 253.19 99.98 253.19 96.3 255.54 97.67" fill="#3c637a"/><polygon points="255.5 113.25 255.5 116.78 253.14 115.56 253.14 111.88 255.5 113.25" fill="#3c637a"/><polygon points="255.5 108.35 255.5 111.88 253.14 110.66 253.14 106.97 255.5 108.35" fill="#3c637a"/><polygon points="255.5 123.06 255.5 126.59 253.14 125.37 253.14 121.69 255.5 123.06" fill="#3c637a"/><polygon points="255.5 118.16 255.5 121.69 253.14 120.47 253.14 116.78 255.5 118.16" fill="#3c637a"/><polygon points="255.5 133.74 255.5 137.27 253.14 136.04 253.14 132.36 255.5 133.74" fill="#3c637a"/><polygon points="255.5 128.83 255.5 132.36 253.14 131.14 253.14 127.46 255.5 128.83" fill="#3c637a"/><polygon points="255.5 143.55 255.5 147.08 253.14 145.85 253.14 142.17 255.5 143.55" fill="#3c637a"/><polygon points="255.5 138.64 255.5 142.17 253.14 140.95 253.14 137.27 255.5 138.64" fill="#3c637a"/><polygon points="255.5 153.75 255.5 157.28 253.14 156.06 253.14 152.38 255.5 153.75" fill="#3c637a"/><polygon points="255.5 148.85 255.5 152.38 253.14 151.16 253.14 147.47 255.5 148.85" fill="#3c637a"/><polygon points="255.5 163.56 255.5 167.09 253.14 165.87 253.14 162.19 255.5 163.56" fill="#3c637a"/><polygon points="255.5 158.66 255.5 162.19 253.14 160.97 253.14 157.28 255.5 158.66" fill="#3c637a"/><polygon points="275.77 37.49 259.46 26.95 243.16 57.7 259.34 66.74 275.77 37.49" fill="none" stroke="#ddb287" stroke-miterlimit="10"/><polygon points="252.39 209.41 252.39 95.6 277.21 109.46 277.21 223.72 252.39 209.41" fill="#68e1fd"/><polygon points="252.39 209.41 252.39 95.6 277.21 109.46 277.21 223.72 252.39 209.41" fill="#1e4549" opacity="0.33"/><polygon points="277.21 109.46 302.41 95.6 302.41 208.92 277.21 223.72 277.21 109.46" fill="#68e1fd"/><polygon points="252.39 95.6 277.21 80.38 302.41 95.6 277.21 109.46 252.39 95.6" fill="#ccc"/><polygon points="302.41 95.6 277.21 109.46 252.39 95.6 252.39 98.96 277.21 112.62 302.41 98.73 302.41 95.6" fill="#1e4549"/><polygon points="299.42 110.27 299.42 104.95 296.25 106.68 296.25 111.79 299.42 110.27" fill="#e0e0e0"/><polygon points="291.54 114.52 291.54 109.2 288.38 110.93 288.38 116.04 291.54 114.52" fill="#e0e0e0"/><polygon points="283.36 119.54 283.36 114.22 280.2 115.95 280.2 121.06 283.36 119.54" fill="#e0e0e0"/><polygon points="299.42 129.32 299.42 124.01 296.25 125.74 296.25 130.85 299.42 129.32" fill="#e0e0e0"/><polygon points="291.54 133.57 291.54 128.26 288.38 129.99 288.38 135.1 291.54 133.57" fill="#e0e0e0"/><polygon points="283.36 138.59 283.36 133.28 280.2 135.01 280.2 140.12 283.36 138.59" fill="#e0e0e0"/><polygon points="299.42 151.13 299.42 145.81 296.25 147.55 296.25 152.65 299.42 151.13" fill="#e0e0e0"/><polygon points="291.54 155.38 291.54 150.06 288.38 151.8 288.38 156.9 291.54 155.38" fill="#e0e0e0"/><polygon points="283.36 160.4 283.36 155.08 280.2 156.82 280.2 161.93 283.36 160.4" fill="#e0e0e0"/><polygon points="299.42 172.72 299.42 167.4 296.25 169.13 296.25 174.24 299.42 172.72" fill="#e0e0e0"/><polygon points="291.54 176.97 291.54 171.65 288.38 173.39 288.38 178.49 291.54 176.97" fill="#e0e0e0"/><polygon points="283.36 181.99 283.36 176.67 280.2 178.41 280.2 183.51 283.36 181.99" fill="#e0e0e0"/><polygon points="299.42 194.31 299.42 188.99 296.25 190.72 296.25 195.83 299.42 194.31" fill="#e0e0e0"/><polygon points="291.54 198.56 291.54 193.24 288.38 194.97 288.38 200.08 291.54 198.56" fill="#e0e0e0"/><polygon points="283.36 203.58 283.36 198.26 280.2 200 280.2 205.1 283.36 203.58" fill="#e0e0e0"/><polygon points="253.83 110.32 253.83 105.01 257 106.74 257 111.85 253.83 110.32" fill="#e0e0e0"/><polygon points="261.71 114.57 261.71 109.26 264.87 110.99 264.87 116.1 261.71 114.57" fill="#e0e0e0"/><polygon points="269.88 119.59 269.88 114.28 273.05 116.01 273.05 121.12 269.88 119.59" fill="#e0e0e0"/><polygon points="253.83 129.38 253.83 124.06 257 125.8 257 130.91 253.83 129.38" fill="#e0e0e0"/><polygon points="261.71 133.63 261.71 128.31 264.87 130.05 264.87 135.16 261.71 133.63" fill="#e0e0e0"/><polygon points="269.88 138.65 269.88 133.34 273.05 135.07 273.05 140.18 269.88 138.65" fill="#e0e0e0"/><polygon points="253.83 151.19 253.83 145.87 257 147.6 257 152.71 253.83 151.19" fill="#e0e0e0"/><polygon points="261.71 155.44 261.71 150.12 264.87 151.85 264.87 156.96 261.71 155.44" fill="#e0e0e0"/><polygon points="269.88 160.46 269.88 155.14 273.05 156.88 273.05 161.98 269.88 160.46" fill="#e0e0e0"/><polygon points="253.83 172.78 253.83 167.46 257 169.19 257 174.3 253.83 172.78" fill="#e0e0e0"/><polygon points="261.71 177.03 261.71 171.71 264.87 173.44 264.87 178.55 261.71 177.03" fill="#e0e0e0"/><polygon points="269.88 182.05 269.88 176.73 273.05 178.47 273.05 183.57 269.88 182.05" fill="#e0e0e0"/><polygon points="253.83 194.36 253.83 189.05 257 190.78 257 195.89 253.83 194.36" fill="#e0e0e0"/><polygon points="261.71 198.62 261.71 193.3 264.87 195.03 264.87 200.14 261.71 198.62" fill="#e0e0e0"/><polygon points="269.88 203.64 269.88 198.32 273.05 200.05 273.05 205.16 269.88 203.64" fill="#e0e0e0"/><polygon points="302.41 135.06 276.99 148.21 252.39 135.29 252.39 140.55 277.21 153.46 302.41 140.55 302.41 135.06" fill="#2e5b5a"/><polygon points="302.41 156.9 276.99 170.05 252.39 157.13 252.39 162.39 277.21 175.29 302.41 162.39 302.41 156.9" fill="#2e5b5a"/><polygon points="302.41 178.49 276.99 191.64 252.39 178.72 252.39 183.98 277.21 196.88 302.41 183.98 302.41 178.49" fill="#2e5b5a"/><polygon points="302.22 198.32 276.8 211.46 252.2 198.55 252.2 203.81 277.01 216.71 302.22 203.81 302.22 198.32" fill="#2e5b5a"/><polygon points="302.41 114.22 276.99 127.36 252.39 114.45 252.39 119.71 277.21 132.61 302.41 119.71 302.41 114.22" fill="#2e5b5a"/><path d="M67,150.67c8.11,9,2.56,20.66,14.09,26.36s32-8.54,44.4-.57,1.71,35.34,12.38,39.37,24.79-.67,36.73,6.16,9.63,18.78,19.53,22.62,24.57-11.1,39.65-4.7c6.83,2.9,10.54,10,11.85,17.51l19.08-10.89L64.18,133.3h0l-30,17.31S58.93,141.68,67,150.67Z" fill="#f7d7c1"/><path d="M22.64,171.51l172.5,101.95a22.94,22.94,0,0,0,22.74-.16l27.79-15.86c-1.3-7.5-5-14.61-11.85-17.51-15.08-6.4-29.75,8.54-39.65,4.7s-7.6-15.79-19.53-22.62-26.06-2.13-36.73-6.16,0-31.4-12.38-39.37-32.87,6.26-44.4.57-6-17.36-14.09-26.36-32.89-.06-32.9-.06L17.79,160C12.43,163.36,17.14,168.42,22.64,171.51Z" fill="#91dce1"/><polygon points="277.93 239.01 79.24 124.11 63.75 132.94 260.55 248.93 277.93 239.01" fill="#747474"/><path d="M69.65,143.38l-26.28,6.13,9.06,8.15,20.14-12.18C72,144.55,70.39,144.2,69.65,143.38Z" fill="url(#linear-gradient)"/><path d="M70,79.57s0,0,0,0v-.11c-.11-.9,1.16-1,1.46-.21a.63.63,0,0,1,0,.1.76.76,0,0,1,0,.11A152.8,152.8,0,0,1,72.62,99.2a.78.78,0,0,1-1.45.35.81.81,0,0,1-1.24-.6A129.35,129.35,0,0,1,70,79.57Z" fill="#ab9e5a"/><path d="M55,94.52c.06-.1.14-.17.2-.26a.64.64,0,0,1,.12-.47c3.7-5.28,10.67-3.11,13.84,1.4a6.5,6.5,0,0,1,1.61,3.61c.11.92-1.21,1-1.48.16a.72.72,0,0,1-.18-.33,7.8,7.8,0,0,0-1.31-2.7,8.74,8.74,0,0,0-4.37-2.06c-2-.41-5.88-.82-7.1,1.43C55.88,96.16,54.56,95.39,55,94.52Z" fill="#575c1c"/><path d="M53.36,89.38C59.65,85.09,69.83,90.74,70.7,98a.63.63,0,0,1-.69.73.61.61,0,0,1-.89-.31C66.49,92.32,61.26,88,54.38,90.62a.69.69,0,0,1-.15,0l-.1.06C53.32,91.26,52.55,89.93,53.36,89.38Z" fill="#636d27"/><path d="M57.09,85.26a.81.81,0,0,1,.13-.13,1.61,1.61,0,0,1,1.28-.3C65.92,84.13,72,91.59,72,98.64a.72.72,0,0,1-.85.72A.79.79,0,0,1,69.94,99c-1-3.13-1.63-6.53-4-9a11,11,0,0,0-8.61-3.27C56.45,86.78,56.38,85.54,57.09,85.26Z" fill="#746927"/><path d="M60.76,81.77a.76.76,0,0,1,.51-.09c7.47,1.28,10.59,8.22,10.8,15.16,0,.17,0,.33,0,.5.06,1-1.48,1-1.53,0v-.06a.71.71,0,0,1,0-.11c0-.11,0-.22,0-.33-.5-6.17-3.69-11.89-10-13.59A.76.76,0,0,1,60.76,81.77Z" fill="#7d7a33"/><path d="M71.44,79.57s0,0,0,0v-.11c.11-.9-1.16-1-1.46-.21a.63.63,0,0,0,0,.1.76.76,0,0,0,0,.11A152.8,152.8,0,0,0,68.79,99.2a.78.78,0,0,0,1.45.35.81.81,0,0,0,1.24-.6A129.35,129.35,0,0,0,71.44,79.57Z" fill="#ab9e5a"/><path d="M86.38,94.52c-.06-.1-.14-.17-.2-.26a.64.64,0,0,0-.12-.47c-3.7-5.28-10.67-3.11-13.84,1.4a6.5,6.5,0,0,0-1.61,3.61c-.11.92,1.21,1,1.48.16a.72.72,0,0,0,.18-.33,7.8,7.8,0,0,1,1.31-2.7A8.74,8.74,0,0,1,78,93.87c2-.41,5.88-.82,7.1,1.43C85.53,96.16,86.85,95.39,86.38,94.52Z" fill="#575c1c"/><path d="M88,89.38C81.76,85.09,71.59,90.74,70.72,98a.63.63,0,0,0,.69.73.61.61,0,0,0,.89-.31C74.92,92.32,80.16,88,87,90.62a.69.69,0,0,0,.15,0l.1.06C88.09,91.26,88.86,89.93,88,89.38Z" fill="#636d27"/><path d="M84.32,85.26a.81.81,0,0,0-.13-.13,1.61,1.61,0,0,0-1.28-.3c-7.41-.7-13.47,6.76-13.53,13.8a.72.72,0,0,0,.85.72A.79.79,0,0,0,71.47,99c1-3.13,1.63-6.53,4-9a11,11,0,0,1,8.61-3.27C85,86.78,85,85.54,84.32,85.26Z" fill="#746927"/><path d="M80.65,81.77a.76.76,0,0,0-.51-.09C72.67,83,69.55,89.91,69.34,96.85c0,.17,0,.33,0,.5-.06,1,1.48,1,1.53,0v-.06a.71.71,0,0,0,0-.11c0-.11,0-.22,0-.33.5-6.17,3.69-11.89,10-13.59A.76.76,0,0,0,80.65,81.77Z" fill="#7d7a33"/><path d="M68.75,145.44a3.82,3.82,0,0,0,1.72.58,4,4,0,0,0,1.88-.41.36.36,0,0,0,.22-.34c-.06-9.52-.5-48.41-.5-48.41H69.13s.18,3.52.37,6.75C69.56,104.63,68.84,136.29,68.75,145.44Z" fill="#974c13"/><path d="M105,165.13l-26.28,6.13,9.06,8.15,20.14-12.18C107.35,166.3,105.77,165.94,105,165.13Z" fill="url(#linear-gradient-2)"/><path d="M105.35,101.26s0,0,0,0v-.11c-.11-.9,1.16-1,1.46-.21a.63.63,0,0,1,0,.1.76.76,0,0,1,0,.11A152.8,152.8,0,0,1,108,120.89a.78.78,0,0,1-1.45.35.81.81,0,0,1-1.24-.6A129.35,129.35,0,0,1,105.35,101.26Z" fill="#ab9e5a"/><path d="M90.41,116.21c.06-.1.14-.17.2-.26a.64.64,0,0,1,.12-.47c3.7-5.28,10.67-3.11,13.84,1.4a6.5,6.5,0,0,1,1.61,3.61c.11.92-1.21,1-1.48.16a.72.72,0,0,1-.18-.33,7.8,7.8,0,0,0-1.31-2.7,8.74,8.74,0,0,0-4.37-2.06c-2-.41-5.88-.82-7.1,1.43C91.26,117.85,89.94,117.08,90.41,116.21Z" fill="#575c1c"/><path d="M88.74,111.07c6.29-4.29,16.46,1.36,17.33,8.61a.63.63,0,0,1-.69.73.61.61,0,0,1-.89-.31c-2.63-6.09-7.87-10.44-14.74-7.78a.69.69,0,0,1-.15,0l-.1.06C88.7,112.95,87.93,111.62,88.74,111.07Z" fill="#636d27"/><path d="M92.47,106.95a.81.81,0,0,1,.13-.13,1.61,1.61,0,0,1,1.28-.3c7.41-.7,13.47,6.76,13.53,13.8a.72.72,0,0,1-.85.72.79.79,0,0,1-1.24-.37c-1-3.13-1.63-6.53-4-9a11,11,0,0,0-8.61-3.27C91.83,108.46,91.76,107.23,92.47,106.95Z" fill="#746927"/><path d="M96.14,103.46a.76.76,0,0,1,.51-.09c7.47,1.28,10.59,8.22,10.8,15.16,0,.17,0,.33,0,.5.06,1-1.48,1-1.53,0V119a.71.71,0,0,1,0-.11c0-.11,0-.22,0-.33-.5-6.17-3.69-11.89-10-13.59A.76.76,0,0,1,96.14,103.46Z" fill="#7d7a33"/><path d="M106.82,101.26s0,0,0,0v-.11c.11-.9-1.16-1-1.46-.21a.63.63,0,0,0,0,.1.76.76,0,0,0,0,.11,152.8,152.8,0,0,0-1.12,19.79.78.78,0,0,0,1.45.35.81.81,0,0,0,1.24-.6A129.35,129.35,0,0,0,106.82,101.26Z" fill="#ab9e5a"/><path d="M121.76,116.21c-.06-.1-.14-.17-.2-.26a.64.64,0,0,0-.12-.47c-3.7-5.28-10.67-3.11-13.84,1.4a6.5,6.5,0,0,0-1.61,3.61c-.11.92,1.21,1,1.48.16a.72.72,0,0,0,.18-.33,7.8,7.8,0,0,1,1.31-2.7,8.74,8.74,0,0,1,4.37-2.06c2-.41,5.88-.82,7.1,1.43C120.91,117.85,122.23,117.08,121.76,116.21Z" fill="#575c1c"/><path d="M123.43,111.07c-6.29-4.29-16.46,1.36-17.33,8.61a.63.63,0,0,0,.69.73.61.61,0,0,0,.89-.31c2.63-6.09,7.87-10.44,14.74-7.78a.69.69,0,0,0,.15,0l.1.06C123.47,112.95,124.24,111.62,123.43,111.07Z" fill="#636d27"/><path d="M119.7,106.95a.81.81,0,0,0-.13-.13,1.61,1.61,0,0,0-1.28-.3c-7.41-.7-13.47,6.76-13.53,13.8a.72.72,0,0,0,.85.72.79.79,0,0,0,1.24-.37c1-3.13,1.63-6.53,4-9a11,11,0,0,1,8.61-3.27C120.34,108.46,120.41,107.23,119.7,106.95Z" fill="#746927"/><path d="M116,103.46a.76.76,0,0,0-.51-.09c-7.47,1.28-10.59,8.22-10.8,15.16,0,.17,0,.33,0,.5-.06,1,1.48,1,1.53,0V119a.71.71,0,0,0,0-.11c0-.11,0-.22,0-.33.5-6.17,3.69-11.89,10-13.59A.76.76,0,0,0,116,103.46Z" fill="#7d7a33"/><path d="M104.13,167.13a3.82,3.82,0,0,0,1.72.58,4,4,0,0,0,1.88-.41.36.36,0,0,0,.22-.34c-.06-9.52-.5-48.41-.5-48.41h-2.94s.18,3.52.37,6.75C104.94,126.32,104.22,158,104.13,167.13Z" fill="#974c13"/><path d="M138.53,182.58l-26.28,6.13,9.06,8.15,20.14-12.18C140.85,183.75,139.27,183.39,138.53,182.58Z" fill="url(#linear-gradient-3)"/><path d="M139.07,118.62s0,0,0,0v-.11c-.11-.9,1.16-1,1.46-.21a.63.63,0,0,1,0,.1.76.76,0,0,1,0,.11,152.8,152.8,0,0,1,1.12,19.79.78.78,0,0,1-1.45.35A.81.81,0,0,1,139,138,129.35,129.35,0,0,1,139.07,118.62Z" fill="#ab9e5a"/><path d="M124.13,133.58c.06-.1.14-.17.2-.26a.64.64,0,0,1,.12-.47c3.7-5.28,10.67-3.11,13.84,1.4a6.5,6.5,0,0,1,1.61,3.61c.11.92-1.21,1-1.48.16a.72.72,0,0,1-.18-.33,7.8,7.8,0,0,0-1.31-2.7,8.74,8.74,0,0,0-4.37-2.06c-2-.41-5.88-.82-7.1,1.43C125,135.22,123.65,134.45,124.13,133.58Z" fill="#575c1c"/><path d="M122.46,128.44c6.29-4.29,16.46,1.36,17.33,8.61a.63.63,0,0,1-.69.73.61.61,0,0,1-.89-.31c-2.63-6.09-7.87-10.44-14.74-7.78a.69.69,0,0,1-.15,0l-.1.06C122.42,130.32,121.65,129,122.46,128.44Z" fill="#636d27"/><path d="M126.19,124.32a.81.81,0,0,1,.13-.13,1.61,1.61,0,0,1,1.28-.3c7.41-.7,13.47,6.76,13.53,13.8a.72.72,0,0,1-.85.72.79.79,0,0,1-1.24-.37c-1-3.13-1.63-6.53-4-9a11,11,0,0,0-8.61-3.27C125.55,125.83,125.47,124.6,126.19,124.32Z" fill="#746927"/><path d="M129.86,120.83a.76.76,0,0,1,.51-.09C137.83,122,141,129,141.17,135.9c0,.17,0,.33,0,.5.06,1-1.48,1-1.53,0v-.06a.71.71,0,0,1,0-.11c0-.11,0-.22,0-.33-.5-6.17-3.69-11.89-10-13.59A.76.76,0,0,1,129.86,120.83Z" fill="#7d7a33"/><path d="M140.53,118.62s0,0,0,0v-.11c.11-.9-1.16-1-1.46-.21a.63.63,0,0,0,0,.1.76.76,0,0,0,0,.11,152.8,152.8,0,0,0-1.12,19.79.78.78,0,0,0,1.45.35.81.81,0,0,0,1.24-.6A129.35,129.35,0,0,0,140.53,118.62Z" fill="#ab9e5a"/><path d="M155.48,133.58c-.06-.1-.14-.17-.2-.26a.64.64,0,0,0-.12-.47c-3.7-5.28-10.67-3.11-13.84,1.4a6.5,6.5,0,0,0-1.61,3.61c-.11.92,1.21,1,1.48.16a.72.72,0,0,0,.18-.33,7.8,7.8,0,0,1,1.31-2.7,8.74,8.74,0,0,1,4.37-2.06c2-.41,5.88-.82,7.1,1.43C154.63,135.22,155.95,134.45,155.48,133.58Z" fill="#575c1c"/><path d="M157.14,128.44c-6.29-4.29-16.46,1.36-17.33,8.61a.63.63,0,0,0,.69.73.61.61,0,0,0,.89-.31c2.63-6.09,7.87-10.44,14.74-7.78a.69.69,0,0,0,.15,0l.1.06C157.19,130.32,158,129,157.14,128.44Z" fill="#636d27"/><path d="M153.41,124.32a.81.81,0,0,0-.13-.13,1.61,1.61,0,0,0-1.28-.3c-7.41-.7-13.47,6.76-13.53,13.8a.72.72,0,0,0,.85.72.79.79,0,0,0,1.24-.37c1-3.13,1.63-6.53,4-9a11,11,0,0,1,8.61-3.27C154.05,125.83,154.13,124.6,153.41,124.32Z" fill="#746927"/><path d="M149.74,120.83a.76.76,0,0,0-.51-.09c-7.47,1.28-10.59,8.22-10.8,15.16,0,.17,0,.33,0,.5-.06,1,1.48,1,1.53,0v-.06a.71.71,0,0,0,0-.11c0-.11,0-.22,0-.33.5-6.17,3.69-11.89,10-13.59A.76.76,0,0,0,149.74,120.83Z" fill="#7d7a33"/><path d="M137.84,184.5a3.82,3.82,0,0,0,1.72.58,4,4,0,0,0,1.88-.41.36.36,0,0,0,.22-.34c-.06-9.52-.5-48.41-.5-48.41h-2.94s.18,3.52.37,6.75C138.66,143.69,137.94,175.35,137.84,184.5Z" fill="#974c13"/><polygon points="176.29 204.95 144.45 212.38 153.51 220.53 177.04 206.25 176.29 204.95" fill="url(#linear-gradient-4)"/><path d="M174.45,140.31s0,0,0,0v-.11c-.11-.9,1.16-1,1.46-.21a.63.63,0,0,1,0,.1.76.76,0,0,1,0,.11,152.8,152.8,0,0,1,1.12,19.79.78.78,0,0,1-1.45.35.81.81,0,0,1-1.24-.6A129.35,129.35,0,0,1,174.45,140.31Z" fill="#ab9e5a"/><path d="M159.51,155.27c.06-.1.14-.17.2-.26a.64.64,0,0,1,.12-.47c3.7-5.28,10.67-3.11,13.84,1.4a6.5,6.5,0,0,1,1.61,3.61c.11.92-1.21,1-1.48.16a.72.72,0,0,1-.18-.33,7.8,7.8,0,0,0-1.31-2.7,8.74,8.74,0,0,0-4.37-2.06c-2-.41-5.88-.82-7.1,1.43C160.36,156.91,159,156.13,159.51,155.27Z" fill="#575c1c"/><path d="M157.84,150.12c6.29-4.29,16.46,1.36,17.33,8.61a.63.63,0,0,1-.69.73.61.61,0,0,1-.89-.31c-2.63-6.09-7.87-10.44-14.74-7.78a.69.69,0,0,1-.15,0l-.1.06C157.8,152,157,150.68,157.84,150.12Z" fill="#636d27"/><path d="M161.57,146a.81.81,0,0,1,.13-.13,1.61,1.61,0,0,1,1.28-.3c7.41-.7,13.47,6.76,13.53,13.8a.72.72,0,0,1-.85.72.79.79,0,0,1-1.24-.37c-1-3.13-1.63-6.53-4-9a11,11,0,0,0-8.61-3.27C160.93,147.52,160.85,146.29,161.57,146Z" fill="#746927"/><path d="M165.24,142.52a.76.76,0,0,1,.51-.09c7.47,1.28,10.59,8.22,10.8,15.16,0,.17,0,.33,0,.5.06,1-1.48,1-1.53,0V158a.71.71,0,0,1,0-.11c0-.11,0-.22,0-.33-.5-6.17-3.69-11.89-10-13.59A.76.76,0,0,1,165.24,142.52Z" fill="#7d7a33"/><path d="M175.91,140.31s0,0,0,0v-.11c.11-.9-1.16-1-1.46-.21a.63.63,0,0,0,0,.1.76.76,0,0,0,0,.11,152.8,152.8,0,0,0-1.12,19.79.78.78,0,0,0,1.45.35.81.81,0,0,0,1.24-.6A129.35,129.35,0,0,0,175.91,140.31Z" fill="#ab9e5a"/><path d="M190.86,155.27c-.06-.1-.14-.17-.2-.26a.64.64,0,0,0-.12-.47c-3.7-5.28-10.67-3.11-13.84,1.4a6.5,6.5,0,0,0-1.61,3.61c-.11.92,1.21,1,1.48.16a.72.72,0,0,0,.18-.33,7.8,7.8,0,0,1,1.31-2.7,8.74,8.74,0,0,1,4.37-2.06c2-.41,5.88-.82,7.1,1.43C190,156.91,191.33,156.13,190.86,155.27Z" fill="#575c1c"/><path d="M192.52,150.12c-6.29-4.29-16.46,1.36-17.33,8.61a.63.63,0,0,0,.69.73.61.61,0,0,0,.89-.31c2.63-6.09,7.87-10.44,14.74-7.78a.69.69,0,0,0,.15,0l.1.06C192.57,152,193.34,150.68,192.52,150.12Z" fill="#636d27"/><path d="M188.79,146a.81.81,0,0,0-.13-.13,1.61,1.61,0,0,0-1.28-.3c-7.41-.7-13.47,6.76-13.53,13.8a.72.72,0,0,0,.85.72.79.79,0,0,0,1.24-.37c1-3.13,1.63-6.53,4-9a11,11,0,0,1,8.61-3.27C189.43,147.52,189.51,146.29,188.79,146Z" fill="#746927"/><path d="M185.12,142.52a.76.76,0,0,0-.51-.09c-7.47,1.28-10.59,8.22-10.8,15.16,0,.17,0,.33,0,.5-.06,1,1.48,1,1.53,0V158a.71.71,0,0,0,0-.11c0-.11,0-.22,0-.33.5-6.17,3.69-11.89,10-13.59A.76.76,0,0,0,185.12,142.52Z" fill="#7d7a33"/><path d="M173.23,206.18a3.82,3.82,0,0,0,1.72.58,4,4,0,0,0,1.88-.41A.36.36,0,0,0,177,206c-.06-9.52-.5-48.41-.5-48.41h-2.94s.18,3.52.37,6.75C174,165.38,173.32,197,173.23,206.18Z" fill="#974c13"/><polygon points="206.77 223.4 174.92 230.82 183.98 238.97 207.52 224.7 206.77 223.4" fill="url(#linear-gradient-5)"/><path d="M204.92,158.76s0,0,0,0v-.11c-.11-.9,1.16-1,1.46-.21a.63.63,0,0,1,0,.1.76.76,0,0,1,0,.11,152.8,152.8,0,0,1,1.12,19.79.78.78,0,0,1-1.45.35.81.81,0,0,1-1.24-.6A129.35,129.35,0,0,1,204.92,158.76Z" fill="#ab9e5a"/><path d="M190,173.71c.06-.1.14-.17.2-.26a.64.64,0,0,1,.12-.47c3.7-5.28,10.67-3.11,13.84,1.4a6.5,6.5,0,0,1,1.61,3.61c.11.92-1.21,1-1.48.16a.72.72,0,0,1-.18-.33,7.8,7.8,0,0,0-1.31-2.7,8.74,8.74,0,0,0-4.37-2.06c-2-.41-5.88-.82-7.1,1.43C190.83,175.35,189.51,174.58,190,173.71Z" fill="#575c1c"/><path d="M188.31,168.57c6.29-4.29,16.46,1.36,17.33,8.61a.63.63,0,0,1-.69.73.61.61,0,0,1-.89-.31c-2.63-6.09-7.87-10.44-14.74-7.78a.69.69,0,0,1-.15,0l-.1.06C188.27,170.45,187.5,169.12,188.31,168.57Z" fill="#636d27"/><path d="M192,164.45a.81.81,0,0,1,.13-.13,1.61,1.61,0,0,1,1.28-.3c7.41-.7,13.47,6.76,13.53,13.8a.72.72,0,0,1-.85.72.79.79,0,0,1-1.24-.37c-1-3.13-1.63-6.53-4-9a11,11,0,0,0-8.61-3.27C191.4,166,191.33,164.73,192,164.45Z" fill="#746927"/><path d="M195.71,161a.76.76,0,0,1,.51-.09c7.47,1.28,10.59,8.22,10.8,15.16,0,.17,0,.33,0,.5.06,1-1.48,1-1.53,0v-.06a.71.71,0,0,1,0-.11c0-.11,0-.22,0-.33-.5-6.17-3.69-11.89-10-13.59A.76.76,0,0,1,195.71,161Z" fill="#7d7a33"/><path d="M206.39,158.76s0,0,0,0v-.11c.11-.9-1.16-1-1.46-.21a.63.63,0,0,0,0,.1.76.76,0,0,0,0,.11,152.8,152.8,0,0,0-1.12,19.79.78.78,0,0,0,1.45.35.81.81,0,0,0,1.24-.6A129.35,129.35,0,0,0,206.39,158.76Z" fill="#ab9e5a"/><path d="M221.33,173.71c-.06-.1-.14-.17-.2-.26A.64.64,0,0,0,221,173c-3.7-5.28-10.67-3.11-13.84,1.4a6.5,6.5,0,0,0-1.61,3.61c-.11.92,1.21,1,1.48.16a.72.72,0,0,0,.18-.33,7.8,7.8,0,0,1,1.31-2.7,8.74,8.74,0,0,1,4.37-2.06c2-.41,5.88-.82,7.1,1.43C220.48,175.35,221.8,174.58,221.33,173.71Z" fill="#575c1c"/><path d="M223,168.57c-6.29-4.29-16.46,1.36-17.33,8.61a.63.63,0,0,0,.69.73.61.61,0,0,0,.89-.31c2.63-6.09,7.87-10.44,14.74-7.78a.69.69,0,0,0,.15,0l.1.06C223,170.45,223.81,169.12,223,168.57Z" fill="#636d27"/><path d="M219.27,164.45a.81.81,0,0,0-.13-.13,1.61,1.61,0,0,0-1.28-.3c-7.41-.7-13.47,6.76-13.53,13.8a.72.72,0,0,0,.85.72.79.79,0,0,0,1.24-.37c1-3.13,1.63-6.53,4-9a11,11,0,0,1,8.61-3.27C219.91,166,220,164.73,219.27,164.45Z" fill="#746927"/><path d="M215.6,161a.76.76,0,0,0-.51-.09c-7.47,1.28-10.59,8.22-10.8,15.16,0,.17,0,.33,0,.5-.06,1,1.48,1,1.53,0v-.06a.71.71,0,0,0,0-.11c0-.11,0-.22,0-.33.5-6.17,3.69-11.89,10-13.59A.76.76,0,0,0,215.6,161Z" fill="#7d7a33"/><path d="M203.7,224.63a3.82,3.82,0,0,0,1.72.58,4,4,0,0,0,1.88-.41.36.36,0,0,0,.22-.34c-.06-9.52-.5-48.41-.5-48.41h-2.94s.18,3.52.37,6.75C204.51,183.82,203.79,215.48,203.7,224.63Z" fill="#974c13"/><polygon points="242.15 245.08 210.3 252.51 219.36 260.66 242.9 246.38 242.15 245.08" fill="url(#linear-gradient-6)"/><path d="M240.3,180.44s0,0,0,0v-.11c-.11-.9,1.16-1,1.46-.21a.63.63,0,0,1,0,.1.76.76,0,0,1,0,.11A152.8,152.8,0,0,1,243,200.08a.78.78,0,0,1-1.45.35.81.81,0,0,1-1.24-.6A129.35,129.35,0,0,1,240.3,180.44Z" fill="#ab9e5a"/><path d="M225.36,195.4c.06-.1.14-.17.2-.26a.64.64,0,0,1,.12-.47c3.7-5.28,10.67-3.11,13.84,1.4a6.5,6.5,0,0,1,1.61,3.61c.11.92-1.21,1-1.48.16a.72.72,0,0,1-.18-.33,7.8,7.8,0,0,0-1.31-2.7,8.74,8.74,0,0,0-4.37-2.06c-2-.41-5.88-.82-7.1,1.43C226.21,197,224.89,196.27,225.36,195.4Z" fill="#575c1c"/><path d="M223.69,190.26c6.29-4.29,16.46,1.36,17.33,8.61a.63.63,0,0,1-.69.73.61.61,0,0,1-.89-.31c-2.63-6.09-7.87-10.44-14.74-7.78a.69.69,0,0,1-.15,0l-.1.06C223.65,192.14,222.88,190.81,223.69,190.26Z" fill="#636d27"/><path d="M227.42,186.14a.81.81,0,0,1,.13-.13,1.61,1.61,0,0,1,1.28-.3c7.41-.7,13.47,6.76,13.53,13.8a.72.72,0,0,1-.85.72.79.79,0,0,1-1.24-.37c-1-3.13-1.63-6.53-4-9a11,11,0,0,0-8.61-3.27C226.78,187.65,226.71,186.42,227.42,186.14Z" fill="#746927"/><path d="M231.09,182.65a.76.76,0,0,1,.51-.09c7.47,1.28,10.59,8.22,10.8,15.16,0,.17,0,.33,0,.5.06,1-1.48,1-1.53,0v-.06a.71.71,0,0,1,0-.11c0-.11,0-.22,0-.33-.5-6.17-3.69-11.89-10-13.59A.76.76,0,0,1,231.09,182.65Z" fill="#7d7a33"/><path d="M241.77,180.44s0,0,0,0v-.11c.11-.9-1.16-1-1.46-.21a.63.63,0,0,0,0,.1.76.76,0,0,0,0,.11,152.8,152.8,0,0,0-1.12,19.79.78.78,0,0,0,1.45.35.81.81,0,0,0,1.24-.6A129.35,129.35,0,0,0,241.77,180.44Z" fill="#ab9e5a"/><path d="M256.71,195.4c-.06-.1-.14-.17-.2-.26a.64.64,0,0,0-.12-.47c-3.7-5.28-10.67-3.11-13.84,1.4a6.5,6.5,0,0,0-1.61,3.61c-.11.92,1.21,1,1.48.16a.72.72,0,0,0,.18-.33,7.8,7.8,0,0,1,1.31-2.7,8.74,8.74,0,0,1,4.37-2.06c2-.41,5.88-.82,7.1,1.43C255.86,197,257.18,196.27,256.71,195.4Z" fill="#575c1c"/><path d="M258.38,190.26c-6.29-4.29-16.46,1.36-17.33,8.61a.63.63,0,0,0,.69.73.61.61,0,0,0,.89-.31c2.63-6.09,7.87-10.44,14.74-7.78a.69.69,0,0,0,.15,0l.1.06C258.42,192.14,259.19,190.81,258.38,190.26Z" fill="#636d27"/><path d="M254.65,186.14a.81.81,0,0,0-.13-.13,1.61,1.61,0,0,0-1.28-.3c-7.41-.7-13.47,6.76-13.53,13.8a.72.72,0,0,0,.85.72.79.79,0,0,0,1.24-.37c1-3.13,1.63-6.53,4-9a11,11,0,0,1,8.61-3.27C255.29,187.65,255.36,186.42,254.65,186.14Z" fill="#746927"/><path d="M251,182.65a.76.76,0,0,0-.51-.09c-7.47,1.28-10.59,8.22-10.8,15.16,0,.17,0,.33,0,.5-.06,1,1.48,1,1.53,0v-.06a.71.71,0,0,0,0-.11c0-.11,0-.22,0-.33.5-6.17,3.69-11.89,10-13.59A.76.76,0,0,0,251,182.65Z" fill="#7d7a33"/><path d="M239.08,246.32a3.82,3.82,0,0,0,1.72.58,4,4,0,0,0,1.88-.41.36.36,0,0,0,.22-.34c-.06-9.52-.5-48.41-.5-48.41h-2.94s.18,3.52.37,6.75C239.89,205.51,239.17,237.17,239.08,246.32Z" fill="#974c13"/><path d="M252.39,209.41l-20.33,10.94,24.75,14.81,20.4-11.44C276.61,222.8,253.13,210.23,252.39,209.41Z" fill="url(#linear-gradient-7)" style="mix-blend-mode:multiply"/><path d="M193.56,182.33l-20.33,10.94,22.25,13.32L216,195.27C215.38,194.35,194.3,183.14,193.56,182.33Z" fill="url(#linear-gradient-8)" style="mix-blend-mode:multiply"/><path d="M133,147.45l-22.61,12.16,24.74,14.81,22.8-12.58C157.23,160.81,133.79,148.35,133,147.45Z" fill="url(#linear-gradient-9)" style="mix-blend-mode:multiply"/></g></g></svg>