<svg xmlns="http://www.w3.org/2000/svg" xmlns:xlink="http://www.w3.org/1999/xlink" viewBox="0 0 400 300"><defs><linearGradient id="linear-gradient" x1="-3252.89" y1="232.58" x2="-3178.21" y2="184.5" gradientTransform="translate(3491.02)" gradientUnits="userSpaceOnUse"><stop offset="0" stop-color="#fff" stop-opacity="0"/><stop offset="0.99" stop-color="#006837"/></linearGradient><linearGradient id="linear-gradient-2" x1="-3382.67" y1="242.7" x2="-3307.98" y2="194.63" xlink:href="#linear-gradient"/><linearGradient id="linear-gradient-3" x1="-3335.59" y1="269.29" x2="-3293.27" y2="242.05" xlink:href="#linear-gradient"/></defs><title>OK</title><g style="isolation:isolate"><g id="Layer_2" data-name="Layer 2"><path d="M195.84,278.75l149.75-84a7.16,7.16,0,0,0,.27-12.32L200.69,92.45a7.16,7.16,0,0,0-7.36-.11L34.92,184.27a7.16,7.16,0,0,0,0,12.38l141.25,82A19.84,19.84,0,0,0,195.84,278.75Z" fill="#9fd32d"/><path d="M313.54,188.23a1.62,1.62,0,0,1-.52.35c-19.83,8.57-40.21,15.71-60.57,22.89-8.22,2.9-16.57,5.69-24.76,8.83a86.23,86.23,0,0,0,13,7.21c1.17.53,14.37,8.5,15.71,9l62.21-36.76Z" opacity="0.32" fill="url(#linear-gradient)" style="mix-blend-mode:multiply"/><path d="M37.57,101.26v33.36a2,2,0,0,0,2.92,1.69l43-24.77a3.72,3.72,0,0,0,1.86-3.22V77.22a1.08,1.08,0,0,0-1.6-1Z" fill="#68e1fd"/><path d="M84.65,76.19a1.4,1.4,0,0,0-.73,0l-46.38,25.1s26.12,4.3,29,3.42c2.6-.79,15.63-23.73,18.29-28.44Z" fill="#124577" opacity="0.82"/><path d="M321,192V117.27c0-3.32-2.26-6.46-5.54-6.92a6.49,6.49,0,0,0-7.43,6.42v77.4a5.84,5.84,0,0,0,9.12,4.85l.13-.09A8.47,8.47,0,0,0,321,192Z" fill="#68e1fd"/><path d="M321,144.24v-27c0-3.32-2.26-6.46-5.54-6.92a6.49,6.49,0,0,0-7.43,6.42v43A108,108,0,0,0,321,144.24Z" opacity="0.27"/><path d="M247.41,113s65.5-4.16,69.68-2.23,5.88,8.87,4.29,18.53-32.82,48.58-32.82,48.58" fill="#68e1fd"/><path d="M292.34,133.31c9.51-5.82,19.42-10.93,29-16.65a9.57,9.57,0,0,0-3.08-5.3c-18.23,8.93-36.2,18.37-54.34,27.48l5.48,8.64C277.09,142.85,284.67,138,292.34,133.31Z" fill="#fff" opacity="0.51"/><path d="M290,141.49c10.59-6.73,21.61-12.84,32-19.93,0-.43,0-.87-.05-1.29-9.21,5.45-18.72,10.39-27.85,16-7.64,4.68-15.18,9.5-22.85,14.11l1.35,2.13C278.4,148.88,284.2,145.17,290,141.49Z" fill="#fff" opacity="0.51"/><path d="M227.19,134c.19-.68,6.87-31.14,37.12-18.18,27.34,11.72,28.17,46.57,26.32,55.1-1.51,6.94-8.59,16.39-22.29,19.81" fill="#8c0000"/><ellipse cx="255.81" cy="153.73" rx="27.91" ry="39.23" transform="translate(-40.03 114.35) rotate(-23.42)" fill="#ce4242"/><path d="M285.18,155.49l-29.64,7.76-6.49-13.77,26.82-16.7S283.56,144.52,285.18,155.49Z" fill="#fff"/><ellipse cx="252.72" cy="156.17" rx="6.14" ry="7.64" transform="translate(-43.33 131.44) rotate(-26.94)" fill="#f7d600"/><path d="M268.91,85.72l6.62,9.05c2.3,3.14,7.18-.42,4.88-3.57l-6.62-9.05C271.49,79,266.61,82.58,268.91,85.72Z" fill="#ce4242"/><path d="M293,73.07,290.66,88c-.6,3.84,5.37,4.78,6,.93L298.95,74C299.55,70.16,293.57,69.23,293,73.07Z" fill="#ce4242"/><path d="M313,90.3l-7.82,6c-3.08,2.38.48,7.26,3.57,4.88l7.82-6C319.65,92.8,316.1,87.92,313,90.3Z" fill="#ce4242"/><path d="M70.11,115v33.36A2,2,0,0,0,73,150.06l43-24.77a3.72,3.72,0,0,0,1.86-3.22V91a1.08,1.08,0,0,0-1.6-1Z" fill="#68e1fd"/><path d="M117.18,89.93a1.4,1.4,0,0,0-.73,0L70.07,115s26.12,4.3,29,3.42c2.6-.79,15.63-23.73,18.29-28.44Z" fill="#124577" opacity="0.82"/><path d="M134.93,70.11c.6.57,1.19,1.15,1.78,1.74a2.77,2.77,0,0,1-.08-2,1.23,1.23,0,0,1,2.22-.31q2,3,4.05,6c0-.16.09-.32.14-.48a7.67,7.67,0,0,1,1.22-2.91c1.31-1.35,2.24.34,2.12,1.93-.17,2.13-1,4-.27,6.2a8.68,8.68,0,0,0,2.25,2.86q1.32,1.36,2.69,2.67a1.22,1.22,0,0,1-1.14,2,1.18,1.18,0,0,1-1.11,1.73c0,1-1.22,2-2,1a47,47,0,0,0-6.4-6.66q-3.76-2.43-7.38-5.07c-1.23-.9-.1-3,1.2-2.1l.19.13-2.1-1.72c-1-.86.37-2.73,1.46-1.91l.26.2h0l0,0,.71.55-.9-1a2.82,2.82,0,0,1-1-2A1.23,1.23,0,0,1,134.93,70.11Z" fill="#f9c882"/><path d="M142.27,76.65a.27.27,0,0,1,.38.38,4.19,4.19,0,0,0-1,4.36c.11.33-.41.47-.52.14A4.74,4.74,0,0,1,142.27,76.65Z" fill="#42210b"/><path d="M136.76,71.41q2.16,2.13,4.15,4.43c.22.26-.15.64-.38.38q-2-2.3-4.15-4.43C136.13,71.55,136.51,71.17,136.76,71.41Z" fill="#42210b"/><path d="M134.22,73.12,139.11,77c.27.21-.11.59-.38.38l-4.89-3.88C133.57,73.29,134,72.91,134.22,73.12Z" fill="#42210b"/><path d="M133.82,76.06q2.09,1.37,4.22,2.67c.29.18,0,.65-.27.47q-2.13-1.3-4.22-2.67C133.27,76.34,133.53,75.87,133.82,76.06Z" fill="#42210b"/><path d="M233.92,78.2c-.81.2-1.61.41-2.41.63a2.77,2.77,0,0,0,1.06-1.7,1.23,1.23,0,0,0-1.78-1.37q-3.24,1.64-6.5,3.22c0-.16.08-.32.12-.49a7.67,7.67,0,0,0,.38-3.13c-.47-1.82-2.12-.82-2.8.63-.91,1.93-1.11,4-2.84,5.52a8.68,8.68,0,0,1-3.37,1.36c-1.21.35-2.44.68-3.66,1a1.22,1.22,0,0,0,0,2.32,1.18,1.18,0,0,0,.11,2c-.54.88.09,2.3,1.25,1.83a47,47,0,0,1,8.86-2.62q4.47-.25,8.92-.75c1.52-.17,1.57-2.55,0-2.42l-.23,0,2.67-.46c1.33-.23,1-2.56-.32-2.38l-.32,0H233l-.89.13,1.27-.42c.79-.27,1.51-.45,1.91-1.24A1.23,1.23,0,0,0,233.92,78.2Z" fill="#f9c882"/><path d="M224.3,80.24a.27.27,0,0,0-.52.14,4.19,4.19,0,0,1-1.29,4.29c-.26.23.12.61.38.38A4.74,4.74,0,0,0,224.3,80.24Z" fill="#42210b"/><path d="M231.68,78.42q-2.94.78-5.8,1.79c-.32.11-.18.63.14.52q2.86-1,5.8-1.79A.27.27,0,0,0,231.68,78.42Z" fill="#42210b"/><path d="M233,81.16l-6.17.95c-.34.05-.2.57.14.52l6.17-.95C233.52,81.63,233.37,81.11,233,81.16Z" fill="#42210b"/><path d="M231.92,83.91q-2.49.15-5,.23c-.34,0-.35.55,0,.54q2.5-.07,5-.23C232.27,84.43,232.27,83.89,231.92,83.91Z" fill="#42210b"/><path d="M155.79,181.74s-.15,7.89-1.08,9.12-9.2,5.63-9.67,7.64,1,4.89,5,3.81,13.43-7.23,13.43-7.23V178" fill="#42210b"/><path d="M187.46,190.72l1,8.56s-3.63,13.2-2.18,14.8,6.67,3.34,8.7,0-.87-15.67-.87-15.67l-.15-9.28" fill="#42210b"/><path d="M168.43,100.13s-10.26,41.63-10.72,48-3.53,37.44-3.53,37.44,9.74,4.33,16.32,2.14l5.13-39.14,5.76-41S170.88,97.18,168.43,100.13Z" fill="#174399"/><path d="M188.11,110c7.24,30.71,8.09,53.91,11.78,80.77,0,0-15.69,5.73-19.15.18-2.34-27.37-4.24-54.81-5.11-82.27Z" fill="#174399"/><path d="M216.89,77.42c-6.59,2.51-14.42,4.78-19.8,4.08a93.56,93.56,0,0,1-19.78-4.91c-.87-.29-10.25-3.88-13.72-.78S161.05,89,161.05,89L148.39,78c-4.7,1.69-6.56,6.53-7,11.36.21.21.39.39.48.5q1.36,1.61,2.76,3.18c4.16,4.66,8.91,10.05,15,12.08a10.86,10.86,0,0,0,7.31-.45c1.81-.68,4.47-2.88,6.44-2.16.51.19,1,.56,1.53.49,1.46-.18,3.41-2.5,4.78-3.22,3.8-2,8.25-2.27,12.45-2.48a90.9,90.9,0,0,0,13.62-1.5c1.32-.27,15.33-3.86,15.63-3.26C218.67,86.94,218,83.57,216.89,77.42Z" fill="#8141c4"/><path d="M167.54,68c-.93,4.39-.15,10.47,4.55,11.16,6.06.9,7.56-3.22,7.24-8.29-.25-4-2.35-10.32-7.78-8.5a5.6,5.6,0,0,0-3,2.8A11.25,11.25,0,0,0,167.54,68Z" fill="#f9c882"/><path d="M167.2,69a7,7,0,0,1-3.76-6.73c.25-2.69,2.87-6.13,5.9-4.85,2.06.87,1.5.94,1.5.94a4.25,4.25,0,0,1,4-1.43c2.87.25,3.37,2,3.37,2s3.26,1.09,4.12,3.16c1,2.37-1.25,9.45-2.31,11.43s-1.68-2-2.06-3.67a4,4,0,0,0-2.4-3c-1.77-.48-2.64,1.09-4,1.75A5,5,0,0,1,167.2,69Z" fill="#42210b"/><path d="M178.63,111.69c3.81-.23,5.92-.3,9.49-1.73l.63-20.11L164.5,101.22s.91,4.87,1.95,9.32A34.71,34.71,0,0,0,178.63,111.69Z" fill="#8141c4"/><path d="M166.3,110a104.47,104.47,0,0,1-2.74-17.51c-.05-.73-1.19-.74-1.14,0a106.31,106.31,0,0,0,2.78,17.81C165.38,111,166.48,110.73,166.3,110Z" fill="#42210b"/><ellipse cx="167.79" cy="71.77" rx="2.44" ry="2.81" fill="none" stroke="#42210b" stroke-miterlimit="10" stroke-width="0.5"/><ellipse cx="174.19" cy="72.44" rx="2.44" ry="2.81" fill="none" stroke="#42210b" stroke-miterlimit="10" stroke-width="0.5"/><line x1="170.23" y1="72.25" x2="171.75" y2="72.44" fill="none" stroke="#42210b" stroke-miterlimit="10" stroke-width="0.5"/><line x1="176.62" y1="72.44" x2="179.59" y2="70.04" fill="none" stroke="#42210b" stroke-miterlimit="10" stroke-width="0.5"/><path d="M114.47,243.12c1.17.53,14.37,8.5,15.71,9l62.21-36.76-6.53-14.8-30.89-9L89.36,228.18C100.41,234.61,102.83,237.82,114.47,243.12Z" opacity="0.32" fill="url(#linear-gradient-2)" style="mix-blend-mode:multiply"/><path d="M166.17,270.59c.58.27,7.19,4.25,7.85,4.51l31.11-18.38-3.26-7.4-24.54-9.48-34.6,18.22C148.26,261.26,160.36,267.94,166.17,270.59Z" opacity="0.32" fill="url(#linear-gradient-3)" style="mix-blend-mode:multiply"/><ellipse cx="184.47" cy="250.83" rx="21.89" ry="12.82" fill="#ff912e"/><polygon points="162.59 250.84 162.59 247.13 164.97 250.09 162.59 250.84" fill="#e0944f"/><polygon points="206.36 247.13 206.36 250.84 203.58 250.84 205.62 247.86 206.36 247.13" fill="#e0944f"/><ellipse cx="184.47" cy="247.13" rx="21.89" ry="12.82" fill="#ffb92c"/><path d="M195.58,245.42a1.71,1.71,0,0,1,.17,1l-.09.34-4,0a1.82,1.82,0,0,0,.07-.34,1.49,1.49,0,0,0-.24-.73,2.19,2.19,0,0,0-1-.89,4.37,4.37,0,0,0-1.88-.49,4,4,0,0,0-1.78.27q-.84.36-.65.94a3.46,3.46,0,0,0,.85,1.25,15.22,15.22,0,0,1,1.21,1.39,1.46,1.46,0,0,1,.22,1.54,3.44,3.44,0,0,1-1.94,1.51,11.5,11.5,0,0,1-4.23.88,13.54,13.54,0,0,1-4.63-.65l-2.3,1-2.69-1.31,2.23-1a5,5,0,0,1-1.07-1,2.84,2.84,0,0,1-.53-.89,2.93,2.93,0,0,1-.14-.72,1.56,1.56,0,0,1,0-.5l.08-.19h4a3.19,3.19,0,0,0-.1.4,1.7,1.7,0,0,0,.32.91,3,3,0,0,0,1.32,1.13,5.68,5.68,0,0,0,2.32.6,4.83,4.83,0,0,0,2.14-.34q.83-.36.62-.94a3.45,3.45,0,0,0-.88-1.25,12.79,12.79,0,0,1-1.22-1.39,1.43,1.43,0,0,1-.17-1.55,3.73,3.73,0,0,1,2-1.54,11,11,0,0,1,4.06-.8,11.73,11.73,0,0,1,4.33.67l2.29-1,2.51,1.37-2.3,1A3.27,3.27,0,0,1,195.58,245.42Z" fill="#ea8b24"/><ellipse cx="184.51" cy="247.29" rx="18.37" ry="10.76" fill="none" stroke="#f7931e" stroke-miterlimit="10" stroke-width="6"/><ellipse cx="184.47" cy="243.77" rx="21.89" ry="12.82" fill="#ff912e"/><polygon points="162.59 243.77 162.59 240.07 164.97 243.03 162.59 243.77" fill="#e0944f"/><polygon points="206.36 240.07 206.36 243.77 203.58 243.77 205.62 240.8 206.36 240.07" fill="#e0944f"/><ellipse cx="184.47" cy="240.07" rx="21.89" ry="12.82" fill="#ffb92c"/><path d="M195.58,238.35a1.71,1.71,0,0,1,.17,1l-.09.34-4,0a1.82,1.82,0,0,0,.07-.34,1.49,1.49,0,0,0-.24-.73,2.19,2.19,0,0,0-1-.89,4.37,4.37,0,0,0-1.88-.49,4,4,0,0,0-1.78.27q-.84.36-.65.94a3.46,3.46,0,0,0,.85,1.25,15.22,15.22,0,0,1,1.21,1.39,1.46,1.46,0,0,1,.22,1.54,3.44,3.44,0,0,1-1.94,1.51,11.5,11.5,0,0,1-4.23.88,13.54,13.54,0,0,1-4.63-.65l-2.3,1-2.69-1.31,2.23-1a5,5,0,0,1-1.07-1,2.84,2.84,0,0,1-.53-.89,2.93,2.93,0,0,1-.14-.72,1.56,1.56,0,0,1,0-.5l.08-.19h4a3.19,3.19,0,0,0-.1.4,1.7,1.7,0,0,0,.32.91,3,3,0,0,0,1.32,1.13,5.68,5.68,0,0,0,2.32.6,4.83,4.83,0,0,0,2.14-.34q.83-.36.62-.94a3.45,3.45,0,0,0-.88-1.25,12.79,12.79,0,0,1-1.22-1.39,1.43,1.43,0,0,1-.17-1.55,3.73,3.73,0,0,1,2-1.54,11,11,0,0,1,4.06-.8,11.73,11.73,0,0,1,4.33.67l2.29-1,2.51,1.37-2.3,1A3.27,3.27,0,0,1,195.58,238.35Z" fill="#ea8b24"/><ellipse cx="184.51" cy="240.22" rx="18.37" ry="10.76" fill="none" stroke="#f7931e" stroke-miterlimit="10" stroke-width="2"/><ellipse cx="175.92" cy="238.37" rx="21.89" ry="12.82" fill="#ff912e"/><polygon points="154.03 238.37 154.03 234.67 156.41 237.63 154.03 238.37" fill="#e0944f"/><polygon points="197.81 234.67 197.81 238.37 195.03 238.37 197.06 235.4 197.81 234.67" fill="#e0944f"/><ellipse cx="175.92" cy="234.67" rx="21.89" ry="12.82" fill="#ffb92c"/><path d="M187,233a1.71,1.71,0,0,1,.17,1l-.09.34-4,0a1.82,1.82,0,0,0,.07-.34,1.49,1.49,0,0,0-.24-.73,2.19,2.19,0,0,0-1-.89,4.37,4.37,0,0,0-1.88-.49,4,4,0,0,0-1.78.27q-.84.36-.65.94a3.46,3.46,0,0,0,.85,1.25,15.22,15.22,0,0,1,1.21,1.39,1.46,1.46,0,0,1,.22,1.54,3.44,3.44,0,0,1-1.94,1.51,11.5,11.5,0,0,1-4.23.88,13.54,13.54,0,0,1-4.63-.65l-2.3,1-2.69-1.31,2.23-1a5,5,0,0,1-1.07-1,2.84,2.84,0,0,1-.53-.89,2.93,2.93,0,0,1-.14-.72,1.56,1.56,0,0,1,0-.5l.08-.19h4a3.19,3.19,0,0,0-.1.4,1.7,1.7,0,0,0,.32.91,3,3,0,0,0,1.32,1.13,5.68,5.68,0,0,0,2.32.6,4.83,4.83,0,0,0,2.14-.34q.83-.36.62-.94a3.45,3.45,0,0,0-.88-1.25,12.79,12.79,0,0,1-1.22-1.39,1.43,1.43,0,0,1-.17-1.55,3.73,3.73,0,0,1,2-1.54,11,11,0,0,1,4.06-.8,11.73,11.73,0,0,1,4.33.67l2.29-1,2.51,1.37-2.3,1A3.27,3.27,0,0,1,187,233Z" fill="#ea8b24"/><ellipse cx="175.96" cy="234.83" rx="18.37" ry="10.76" fill="none" stroke="#f7931e" stroke-miterlimit="10" stroke-width="2"/></g></g></svg>