<svg xmlns="http://www.w3.org/2000/svg" xmlns:xlink="http://www.w3.org/1999/xlink" viewBox="0 0 400 300"><defs><linearGradient id="linear-gradient" x1="299.78" y1="185.28" x2="287.92" y2="196.56" gradientUnits="userSpaceOnUse"><stop offset="0" stop-color="#00a99d"/><stop offset="1" stop-color="#fff"/></linearGradient><linearGradient id="linear-gradient-2" x1="266.47" y1="190.94" x2="258.76" y2="198.27" xlink:href="#linear-gradient"/><linearGradient id="linear-gradient-3" x1="195.6" y1="220.18" x2="185.42" y2="229.86" xlink:href="#linear-gradient"/></defs><title>PP</title><g style="isolation:isolate"><g id="Layer_2" data-name="Layer 2"><path d="M197.32,283.88l-171-103.63c-5.44-3.13-10.11-8.28-4.8-11.65L193.13,67.17c2.57-1.64,6.48-2.71,9.1-1.15L381.69,172.84c5.44,3.24,6.42,12.3,1,15.54L219.85,283.71A22.24,22.24,0,0,1,197.32,283.88Z" fill="#4aa4e8"/><path d="M110.79,161S92.25,192.19,91.1,193.9s-5.2,12.43-3.47,15.37S109,222.54,118.1,227.84c4.65,2.72,22.13,11,25,12.82s36.59,3,59.63,2.37,57.81-25.5,73.09-26.68S342,186.75,342,181.69s-56.88-43.78-56.88-43.78" fill="#d2e58f"/><path d="M194.85,167.8l17.09-42,20.92-32L244,81.53,249,73h13l7.6,3.57,35.78,84.09-25,14.76-18.34-4.92-5.37,4.92-23.26,8.95,3.58-8.5H222.14S198.88,170,194.85,167.8Z" fill="#68e1fd"/><path d="M194.85,167.8l17.09-42,20.92-32L244,81.53,249,73h13l7.6,3.57,35.78,84.09-25,14.76-18.34-4.92-5.37,4.92-23.26,8.95,3.58-8.5H222.14S198.88,170,194.85,167.8Z" fill="#68e1fd"/><path d="M220.46,204.59c1.91-3.17,3.23-6.52,6.35-8.71,5.57-3.89,13-4,19.79-3.92L198.11,78l-10.5-4.93H169.69l-10.5,7.4L147.45,96.55l-20.29,49.63L111.3,196.74c5.56,3.09,21.32,18.42,21.32,18.42H153l14.3,4.34,12.88-5,7.41-6.8,24.86,6.67A40.29,40.29,0,0,0,220.46,204.59Z" fill="#68e1fd"/><path d="M220.46,204.59c1.91-3.17,3.23-6.52,6.35-8.71,5.57-3.89,13-4,19.79-3.92L198.11,78l-10.5-4.93H169.69l-10.5,7.4L147.45,96.55l-20.29,49.63L111.3,196.74c5.56,3.09,21.32,18.42,21.32,18.42H153l14.3,4.34,12.88-5,7.41-6.8,24.86,6.67A40.29,40.29,0,0,0,220.46,204.59Z" fill="#153e42" opacity="0.27"/><path d="M215.72,211.1l0,0a46.38,46.38,0,0,0,4.71-6.55c1.91-3.17,3.23-6.52,6.35-8.71,5.57-3.89,13-4,19.79-3.92L198.11,78l-10.5-4.93H177.27c-.76,22.9-3.77,47.7,5.22,69,2.45-3.59,4.18-7.64,7.61-10.47a1.19,1.19,0,0,1,2,.52c2,8.05,2.28,16.39,3.91,24.51,1.5-1.67,2.91-3.4,4.28-5.2a1.2,1.2,0,0,1,2.15.28c4.77,19.36,7.72,39.15,13.61,58.23A1,1,0,0,1,215.72,211.1Z" fill="#153e42" opacity="0.46"/><polygon points="147.45 96.56 163.27 96.56 173.54 119.48 178.62 96.56 187.61 111.14 196.26 94.38 207.88 100.99 198.11 78.02 187.61 73.09 169.69 73.09 159.19 80.49 147.45 96.56" fill="#daedef"/><polygon points="241.94 181.03 225.22 105.43 215.87 119.75 241.94 181.03" fill="#153e42" opacity="0.46"/><path d="M269.55,76.66l-7.6-3.57H251.83c-.53,9.79-1.82,19.71.28,29.32a36.58,36.58,0,0,0,4.73-2.84,1.18,1.18,0,0,1,1.61.42c3.69,8.64,2.35,18.07,3,27.22a32.55,32.55,0,0,1,3.08-2.85c.6-.48,1.83-.45,2,.52.54,3.83.4,7.74,1.12,11.52a14.93,14.93,0,0,0,1.11-1.69,1.2,1.2,0,0,1,2.15.28c5,12.66,4.53,26.45,6.49,39.73l2.92.78,25-14.76Z" fill="#153e42" opacity="0.7"/><polygon points="244 81.53 245.35 96.2 251.33 85.06 255.95 105.43 258.84 85.7 266.58 93.93 270.35 84.52 276.39 92.64 269.55 76.55 261.94 72.98 248.97 72.98 244 81.53" fill="#daedef"/><path d="M84.64,146.18h42.52L117,142.9s.78-10.24-5.49-10.63-7.25,5.09-7.25,5.09a6.41,6.41,0,0,0-5.49-1c-2.94,1-2.94,4.9-2.94,4.9Z" fill="#dcfff3"/><path d="M113,138.92a9.65,9.65,0,0,1-1.9,7.26h16.06L117,142.9s.78-10.24-5.49-10.63a8.43,8.43,0,0,0-2.44.19A8.77,8.77,0,0,1,113,138.92Z" fill="#a7e8cf"/><path d="M261.23,147.61h59.24L306.28,143s1.09-14.27-7.64-14.81-10.1,7.1-10.1,7.1-3.55-2.73-7.64-1.37-4.1,6.83-4.1,6.83Z" fill="#dcfff3"/><path d="M300.75,137.49a13.44,13.44,0,0,1-2.65,10.12h22.37L306.28,143s1.09-14.27-7.64-14.81a11.75,11.75,0,0,0-3.4.26C298.29,130.21,300.17,133.67,300.75,137.49Z" fill="#a7e8cf"/><path d="M301.34,191.17,298.91,188l-18.54,8.34c1.81.93,4.44,2.52,7,4C292.37,197.81,296.7,194.38,301.34,191.17Z" opacity="0.68" fill="url(#linear-gradient)" style="mix-blend-mode:multiply"/><rect x="297.69" y="170.66" width="3.15" height="20.87" rx="1.57" ry="1.57" fill="#bc532a"/><path d="M307,174.93c-.73-3.15-4-17-9.67-12.95-2.93,2.09-3.76,5.36-4.93,8.55a25.46,25.46,0,0,0-1.82,8.27c-.09,5.77,5.78,6.48,10.28,6.46,2.59,0,6.29-1.54,6.89-4.36.36-1.7-.26-3.7-.62-5.36Z" fill="#2c9135"/><path d="M307.31,175.54l-.14-.61c-.64-2.79-3.24-14-7.78-13.69,1.35,5.89,3.34,12.11,2.28,18.14a13.79,13.79,0,0,1-2.4,5.84c.6,0,1.2,0,1.77,0,2.59,0,6.29-1.54,6.89-4.36C308.29,179.21,307.67,177.2,307.31,175.54Z" fill="#156819"/><path d="M267.49,194.77l-1.58-2-12.06,5.42c1.18.6,2.89,1.64,4.54,2.6A82.23,82.23,0,0,0,267.49,194.77Z" opacity="0.68" fill="url(#linear-gradient-2)" style="mix-blend-mode:multiply"/><rect x="265.11" y="181.43" width="2.05" height="13.57" rx="1.02" ry="1.02" fill="#bc532a"/><path d="M271.19,184.21c-.47-2-2.57-11.07-6.28-8.42-1.9,1.36-2.44,3.48-3.2,5.56a16.56,16.56,0,0,0-1.18,5.38c-.06,3.75,3.76,4.21,6.68,4.2,1.69,0,4.09-1,4.48-2.83a8.77,8.77,0,0,0-.4-3.49Z" fill="#2c9135"/><path d="M271.36,184.61l-.09-.4c-.42-1.81-2.11-9.08-5.06-8.9.88,3.83,2.17,7.88,1.48,11.8a9,9,0,0,1-1.56,3.79c.39,0,.78,0,1.15,0,1.69,0,4.09-1,4.48-2.83A8.77,8.77,0,0,0,271.36,184.61Z" fill="#156819"/><path d="M196.94,225.23l-2.09-2.69-15.92,7.16c1.55.8,3.81,2.17,6,3.44C189.24,230.93,193,228,196.94,225.23Z" opacity="0.68" fill="url(#linear-gradient-3)" style="mix-blend-mode:multiply"/><rect x="193.81" y="207.62" width="2.7" height="17.92" rx="1.02" ry="1.02" fill="#bc532a"/><path d="M201.83,211.28c-.62-2.7-3.39-14.62-8.3-11.12-2.51,1.79-3.23,4.6-4.23,7.34a21.87,21.87,0,0,0-1.56,7.1c-.08,5,5,5.57,8.83,5.55,2.23,0,5.4-1.32,5.92-3.74.31-1.46-.22-3.18-.53-4.6Z" fill="#2c9135"/><path d="M202.07,211.81l-.12-.53c-.55-2.39-2.78-12-6.68-11.75,1.16,5.06,2.87,10.4,2,15.58a11.84,11.84,0,0,1-2.06,5c.52,0,1,0,1.52,0,2.23,0,5.4-1.32,5.92-3.74C202.91,215,202.38,213.24,202.07,211.81Z" fill="#156819"/></g></g></svg>