<svg id="Layer_2" data-name="Layer 2" xmlns="http://www.w3.org/2000/svg" xmlns:xlink="http://www.w3.org/1999/xlink" viewBox="0 0 400 300"><defs><linearGradient id="linear-gradient" x1="43.66" y1="174.87" x2="55.08" y2="167.3" gradientUnits="userSpaceOnUse"><stop offset="0" stop-color="#ff912e"/><stop offset="1" stop-color="#bb652e"/></linearGradient><linearGradient id="linear-gradient-2" x1="200.95" y1="257.81" x2="210.31" y2="251.61" xlink:href="#linear-gradient"/><linearGradient id="linear-gradient-3" x1="329.72" y1="184.88" x2="339.08" y2="178.68" xlink:href="#linear-gradient"/><linearGradient id="linear-gradient-4" x1="220.65" y1="108.53" x2="230.01" y2="102.32" xlink:href="#linear-gradient"/></defs><title>PP</title><path d="M194.51,276,22,174c-5.49-3.08-10.2-8.15-4.85-11.46L190.29,62.78c2.6-1.61,6.54-2.66,9.18-1.13L380.54,166.74c5.49,3.19,6.48,12.1,1,15.29L217.25,275.8A22.94,22.94,0,0,1,194.51,276Z" fill="#ff912e"/><path d="M78.06,162.58c.58-1.73,49.2-75.89,52.23-78.92s4.13-2.75,5-4.68,12.12-15.42,13.49-17.07,5-4.68,6.33-5,13.49,5.23,15.7,6.06,7.44,11.29,9.91,11.57,13.22,1.65,14,2.75,17.62,34.15,17.62,34.15l14.59,46.26s4.08,25.06,1.49,27-57.67,6.88-61.52,5.78-48.19-3-54.52-3.86-24.78-9.09-27.54-10.74S78.06,162.58,78.06,162.58Z" fill="#68e1fd"/><path d="M135.25,79l1.52,9.18L84.86,175.92s-3-2.11-6.8-13.33l29.35-45.27,19.53-29.09A30.6,30.6,0,0,1,135.25,79Z" fill="#351b0c" opacity="0.24"/><path d="M185.55,105.45l-28.21,8-8,35.47-18,39,35.6,2.57s48-.94,61.52-5.78Z" fill="#351b0c" opacity="0.24"/><path d="M194.73,77.33s-9.18,24-9.18,28.12,9.18,33.89,9.18,33.89l33.71,45.38s2.4-.05-1.49-27l-5.3-18.67-9.29-27.59Z" fill="#351b0c" opacity="0.4"/><polygon points="136.76 88.16 142.55 109.27 157.34 113.49 136.76 113.66 124.28 109.28 136.76 88.16" fill="#351b0c" opacity="0.4"/><polyline points="221.65 139.07 183.82 189.91 202.73 188.71" fill="#351b0c" opacity="0.4"/><path d="M225,131.95s6.63,17.33,6.63,20.31S225,176.73,225,176.73L200.62,209.5s-5.63-6.36-6.87-11.24l11.77-21.73,6.71-19.92Z" fill="#68e1fd"/><path d="M309.21,193.51c-.42-1.25-35.53-54.8-37.72-57s-3-2-3.58-3.38-8.75-11.14-9.74-12.33-3.58-3.38-4.57-3.58-9.74,3.78-11.33,4.37-5.37,8.15-7.16,8.35-9.54,1.19-10.14,2-12.73,24.66-12.73,24.66L201.7,190s-2.95,18.1-1.08,19.49,41.64,5,44.43,4.18,34.8-2.19,39.37-2.78,17.9-6.56,19.89-7.76S309.21,193.51,309.21,193.51Z" fill="#68e1fd"/><path d="M267.92,133.14l-1.09,6.63,37.48,63.37s2.13-1.52,4.91-9.63L288,160.82l-14.1-21A22.1,22.1,0,0,0,267.92,133.14Z" fill="#351b0c" opacity="0.24"/><path d="M231.59,152.25,252,158.06l5.81,25.61,13,28.15L245,213.68s-34.66-.68-44.43-4.18Z" fill="#351b0c" opacity="0.24"/><path d="M225,131.95s6.63,17.33,6.63,20.31S225,176.73,225,176.73L200.62,209.5s-5.63-6.36-6.87-11.24l11.77-21.73,6.71-19.92Z" fill="#351b0c" opacity="0.24"/><polygon points="266.82 139.77 262.64 155.01 251.96 158.06 266.82 158.18 275.84 155.01 266.82 139.77" fill="#351b0c" opacity="0.4"/><path d="M199.15,188.3s-56.15-5.12-49.81,15.78-39.6,21.82-39.6,21.82l46.74,27.63s28.68-15.25,19.55-32.75c-11.52-22.11,21.63-29.6,21.63-29.6" fill="#cc630d"/><path d="M197.87,190.67c-.86,1.6-50.34-4.86-44,16s-39.6,21.82-39.6,21.82L161,256.17s28.68-15.25,19.55-32.75c-11.52-22.11,13.19-25.16,13.19-25.16" fill="#fcd5b9"/><path d="M61.48,167.09l-3.23-2.34-20.11,8.63c2.1,1.08,5.16,2.93,8.11,4.65C52.08,175,56.09,170.82,61.48,167.09Z" opacity="0.68" fill="url(#linear-gradient)"/><rect x="58.25" y="143.52" width="3.66" height="24.24" rx="1.36" ry="1.36" fill="#bc532a"/><path d="M69.11,148.48c-.84-3.66-4.59-19.77-11.22-15-3.4,2.43-4.36,6.22-5.72,9.93A29.57,29.57,0,0,0,50,153c-.11,6.71,6.71,7.53,11.93,7.5,3,0,7.3-1.79,8-5.06.42-2-.3-4.29-.72-6.22Z" fill="#2c9135"/><path d="M69.42,149.19l-.16-.71c-.75-3.23-3.76-16.21-9-15.89,1.57,6.84,3.88,14.07,2.65,21.07a16,16,0,0,1-2.79,6.78c.7,0,1.39,0,2.06,0,3,0,7.3-1.79,8-5.06C70.57,153.45,69.85,151.12,69.42,149.19Z" fill="#156819"/><path d="M215.57,251.43l-2.65-1.92-16.5,7.08c1.72.88,4.23,2.4,6.65,3.82C207.86,258,211.14,254.49,215.57,251.43Z" opacity="0.68" fill="url(#linear-gradient-2)"/><rect x="212.92" y="232.1" width="3" height="19.88" rx="1.36" ry="1.36" fill="#bc532a"/><path d="M221.82,236.17c-.69-3-3.76-16.22-9.21-12.33-2.79,2-3.58,5.1-4.69,8.14a24.25,24.25,0,0,0-1.73,7.88c-.09,5.5,5.51,6.17,9.79,6.15,2.47,0,6-1.47,6.57-4.15.35-1.62-.24-3.52-.59-5.11Z" fill="#2c9135"/><path d="M222.08,236.75l-.13-.58c-.61-2.65-3.08-13.3-7.41-13,1.29,5.61,3.18,11.54,2.17,17.28a13.13,13.13,0,0,1-2.29,5.56c.57,0,1.14,0,1.69,0,2.47,0,6-1.47,6.57-4.15C223,240.24,222.43,238.33,222.08,236.75Z" fill="#156819"/><path d="M344.34,178.5l-2.65-1.92-16.5,7.08c1.72.88,4.23,2.4,6.65,3.82C336.62,185,339.91,181.56,344.34,178.5Z" opacity="0.68" fill="url(#linear-gradient-3)"/><rect x="341.69" y="159.17" width="3" height="19.88" rx="1.36" ry="1.36" fill="#bc532a"/><path d="M350.59,163.24c-.69-3-3.76-16.22-9.21-12.33-2.79,2-3.58,5.1-4.69,8.14a24.25,24.25,0,0,0-1.73,7.88c-.09,5.5,5.51,6.17,9.79,6.15,2.47,0,6-1.47,6.57-4.15.35-1.62-.24-3.52-.59-5.11Z" fill="#2c9135"/><path d="M350.85,163.82l-.13-.58c-.61-2.65-3.08-13.3-7.41-13,1.29,5.61,3.18,11.54,2.17,17.28a13.13,13.13,0,0,1-2.29,5.56c.57,0,1.14,0,1.69,0,2.47,0,6-1.47,6.57-4.15C351.79,167.31,351.2,165.41,350.85,163.82Z" fill="#156819"/><path d="M235.27,102.15l-2.65-1.92-16.5,7.08c1.72.88,4.23,2.4,6.65,3.82C227.56,108.68,230.84,105.21,235.27,102.15Z" opacity="0.68" fill="url(#linear-gradient-4)"/><rect x="232.62" y="82.82" width="3" height="19.88" rx="1.36" ry="1.36" fill="#bc532a"/><path d="M241.52,86.89c-.69-3-3.76-16.22-9.21-12.33-2.79,2-3.58,5.1-4.69,8.14a24.25,24.25,0,0,0-1.73,7.88c-.09,5.5,5.51,6.17,9.79,6.15,2.47,0,6-1.47,6.57-4.15.35-1.62-.24-3.52-.59-5.11Z" fill="#2c9135"/><path d="M241.78,87.47l-.13-.58c-.61-2.65-3.08-13.3-7.41-13,1.29,5.61,3.18,11.54,2.17,17.28a13.13,13.13,0,0,1-2.29,5.56c.57,0,1.14,0,1.69,0,2.47,0,6-1.47,6.57-4.15C242.72,91,242.13,89.05,241.78,87.47Z" fill="#156819"/></svg>