<svg id="Layer_2" data-name="Layer 2" xmlns="http://www.w3.org/2000/svg" xmlns:xlink="http://www.w3.org/1999/xlink" viewBox="0 0 400 300"><defs><linearGradient id="linear-gradient" x1="169.22" y1="251.07" x2="199.28" y2="227.33" gradientUnits="userSpaceOnUse"><stop offset="0" stop-opacity="0"/><stop offset="0.99" stop-color="#1a1a1a"/></linearGradient><linearGradient id="linear-gradient-2" x1="61.54" y1="185.97" x2="75.55" y2="166.05" xlink:href="#linear-gradient"/></defs><title>PP</title><path d="M21.33,166.12,177.55,77.21a25.05,25.05,0,0,1,25,.13l161,93.75a13.92,13.92,0,0,1-.07,24.11L213.23,281.47a33.57,33.57,0,0,1-33.46,0L21.28,190.29A13.92,13.92,0,0,1,21.33,166.12Z" fill="#e5e1e1"/><path d="M210.9,73.93l23.85-8.31s.52,8.64-1.71,14.59l-20.8,12.06" fill="#003c4f"/><path d="M182.59,260.2l40-23.78-28-19.35L148.1,240.24C159.16,247.08,171.87,252.89,182.59,260.2Z" opacity="0.32" fill="url(#linear-gradient)"/><line x1="81.39" y1="115.26" x2="81.39" y2="115.12" fill="none" stroke="#61587d"/><line x1="77.68" y1="115.26" x2="77.68" y2="115.12" fill="none" stroke="#61587d"/><line x1="70.27" y1="115.12" x2="70.27" y2="115.26" fill="none" stroke="#61587d"/><line x1="73.98" y1="115.26" x2="73.98" y2="115.12" fill="none" stroke="#61587d"/><line x1="66.56" y1="115.12" x2="66.56" y2="115.26" fill="none" stroke="#61587d"/><path d="M209.42,209.79c-.17.76-2.1,9.45,0,12.28,2.25,3,5.87,4.68,8.75,7.12,1.5,1.27,7.15,8.88,2.79,9.7-3,.57-12.09-2.27-17.76-6.42s-9.61-5-9.83-7.14,3.48-19.79,3.48-19.79" fill="#363942"/><path d="M208.18,216.78c.28-3.91.48-8.27.5-10.54A34,34,0,0,0,208.18,216.78Z" fill="#363942"/><path d="M190.37,221.16s.51,8.16,1.7,10.37,6.08,11.35,3.53,14.41-13.73-3.36-15.26-9.14-3.06-6.29-3.57-8.67,1.87-14.78,1.87-14.78" fill="#363942"/><path d="M217.5,115.29s-5,97.46-7.92,99.59-10.84,2.92-16-.91l5.76-41.57L192,225.27s-14.5,2.35-19-3.15c-1.27-1.56,11.4-105.91,11.4-105.91" fill="#ff7f5c"/><path d="M217,108.92q-.53-9.13-1.15-18.26c-.63-9.14.47-28.63-8.09-34.4-4.66-3.15-12.28-1.61-16.79.77-10.28,5.42-19.17,27.82-20.21,36.74a9,9,0,0,0,.17,2.82c4.51,1.72,9.68,1.64,12.15,6.61,2,3.93,1.49,8.59,1.37,13,.66.65,1.06,1,1.06,1,19.71,9.75,32,0,32,0C218.19,116.66,217.06,109.81,217,108.92Z" fill="#68e1fd"/><path d="M194.23,47.81,193.54,57s6.24,6.38,12.4,5.5l-3-12.81" fill="#fcbb5b"/><path d="M194.23,47.81l-.22,5s6.5,4.79,10.14,1.09S194.23,47.81,194.23,47.81Z" fill="#db9231"/><path d="M170.76,93.77s-1.24,10.54,8.25,11.64,33.23-13.13,33.23-13.13-1.22-7-3.78-9.49-22,2.49-22,2.49" fill="#68e1fd"/><path d="M201.41,128.41A827.57,827.57,0,0,1,192,216.16c-.15.91,1.25,1.31,1.4.39a831.24,831.24,0,0,0,9.44-88.14C202.91,127.48,201.46,127.48,201.41,128.41Z" fill="#363942"/><polygon points="209.89 94.65 183.08 103.2 184.57 112.05 209.89 94.65" fill="#003c4f"/><polygon points="218.83 90.98 226.52 65.32 248.14 53.74 239.58 81.55 218.83 90.98" fill="#ff7f5c"/><path d="M193.54,54.39s3.25,3,5.37,3.24l3.29,1.79,2.72,2.83V58.32s-.81-3.54-.68-3.51,2.95,4.55,2.95,4.55l2.72,4.53-4-.39-1.71,2.89S194.4,62,191,57Z" fill="#fff"/><path d="M191,44.43c0-.25-2.37-3.93-1.82-6a3.75,3.75,0,0,1,2.22-2.59s-.79-5,3.62-5.37,14.13-.45,15.4,2.16,0,7-3.45,7.65-10.8-.5-10.8-.5.76,6.1-5.17,4.63" fill="#363942"/><path d="M207.25,38.2s3.64,16.13-2.72,17.58-11-8.23-11-8.23-4.16-3.35-1.76-4.34,2.85.36,2.85.36-2.78-5.28-.27-5.47S204.31,41.53,207.25,38.2Z" fill="#fbc76f"/><circle cx="207.43" cy="43.34" r="2.7" transform="translate(118 235.45) rotate(-76.84)" fill="none" stroke="#42210b" stroke-miterlimit="10" stroke-width="0.25"/><circle cx="199.8" cy="43.41" r="3" transform="translate(112.04 228.08) rotate(-76.84)" fill="none" stroke="#42210b" stroke-miterlimit="10" stroke-width="0.25"/><line x1="194.31" y1="43.05" x2="196.75" y2="43.3" fill="none" stroke="#42210b" stroke-miterlimit="10" stroke-width="0.25"/><line x1="202.8" y1="43.46" x2="204.73" y2="43.37" fill="none" stroke="#42210b" stroke-miterlimit="10" stroke-width="0.25"/><path d="M203.71,44.72s2.19,2.43-.17,3" fill="none" stroke="#42210b" stroke-miterlimit="10" stroke-width="0.25"/><polyline points="105.13 164.89 57.17 192.47 37.47 179.3 80.69 155.68" opacity="0.32" fill="url(#linear-gradient-2)"/><polyline points="77.04 142.79 77.04 160.91 106.35 160.91 106.35 142.79" fill="#f8997c"/><ellipse cx="91.7" cy="142.79" rx="14.66" ry="7.21" fill="#dd654a"/><ellipse cx="91.7" cy="161.61" rx="14.66" ry="7.21" fill="#f8997c"/><path d="M108.11,100.66C105,99.4,100.73,95.19,97,95.32c-1.42,3.49-1.84,7.58-2.27,11.12A100.92,100.92,0,0,0,94.3,125q.13,2.07.34,4.12a3.29,3.29,0,0,0,.33,1.16q0,7.17,0,14.34a.46.46,0,0,0,.91,0q0-6.9,0-13.8a20.34,20.34,0,0,0,4.2-1.94,14.28,14.28,0,0,0,5.91-7.42c2.37-6.59.87-13.94,3.12-20.46C108.76,100.91,108.43,100.79,108.11,100.66Z" fill="#297600"/><path d="M101.77,89.87a11.49,11.49,0,0,0-4.19,4.28,7.18,7.18,0,0,0-.66,1.27l-.13.28h0a19.16,19.16,0,0,0-.7,2.27,2.83,2.83,0,0,1,1.56-1.23,3.88,3.88,0,0,1,2.45-.23,10.25,10.25,0,0,1,2.24,1.2c1,.63,2.05,1.34,3.09,2,4.86,3.09,11.32,3.4,15.07-1.09,0-.18.09-.36.13-.54C121.18,95,112.51,83.63,101.77,89.87Z" fill="#5fad00"/><path d="M118.35,100.53c.2-.14.4-.27.61-.4a.42.42,0,0,0-.12-.35c-2.94-3-6.09-6-10.1-7.46a17.3,17.3,0,0,0-9-.89c-.33.38-.62.78-.92,1.18,3.27-1.09,7.4-.41,10.37.86,3.55,1.51,6.37,4.22,9,6.95A.44.44,0,0,0,118.35,100.53Z" fill="#297600"/><path d="M69.14,107.09a12.24,12.24,0,0,0-6.55,11.74c.35,8.65,14.6.2,18.38-7.09s4.38,3.11,4.38,3.11" fill="#297600"/><path d="M82,104.07a25.8,25.8,0,0,0-7.91,1.1,19.19,19.19,0,0,0-4.92,1.92A15.87,15.87,0,0,0,72,108.61c1.79.72,3.66,1.62,4.6,3.3a6.57,6.57,0,0,1,.55,1.3c.87,2.84.12,6.3,1.29,9.16S82,127.75,85.35,128c4,.24,5.85-3.61,6.65-6.95s1.88-7.89.61-11.32C91.14,105.7,85.77,104.26,82,104.07Z" fill="#5fad00"/><path d="M87.26,117.57c-1.68-5.46-5.26-10.62-10.49-13h-.2l-.25.08-.95.24c6.09,2.26,9.92,8.27,11.48,14.4,2,7.85,1.32,16.35,1.34,24.37a.42.42,0,0,0,.84,0C89,135.07,89.82,125.88,87.26,117.57Z" fill="#297600"/><path d="M334.38,59.08c4.09,11.55-.21,23.93-9.61,27.66s-20.35-2.61-24.44-14.16.21-23.93,9.61-27.66S330.29,47.53,334.38,59.08Z" fill="#68e1fd"/><path d="M331.51,60.21c4.09,11.55-.21,23.93-9.61,27.66s-20.35-2.61-24.44-14.16.21-23.93,9.61-27.66S327.42,48.67,331.51,60.21Z" fill="#68e1fd"/><path d="M328.57,61.38c3.39,9.56-.17,19.8-8,22.89s-16.84-2.16-20.22-11.72.17-19.8,8-22.89S325.19,51.82,328.57,61.38Z" fill="#fff"/><path d="M314,66.49l-5.27,7.6c-.44.63.48,1.38.92.75l5.27-7.6C315.39,66.61,314.47,65.86,314,66.49Z" fill="#007f68"/><path d="M313.81,54.6V66.31a.67.67,0,0,0,1.35,0V54.6A.67.67,0,0,0,313.81,54.6Z" fill="#007f68"/><path d="M246.49,63.77l.86-.76a1.5,1.5,0,0,0-2.12-2.12l-3.32,2.95a1.52,1.52,0,0,0,0,2.12,1.43,1.43,0,0,0,.88.41l-1.19,1.24a1.43,1.43,0,0,0-.07,2c-.3.31-.61.61-.89.94a1.54,1.54,0,0,0,0,2.12l0,0c-.25.25-.49.51-.71.78a1.54,1.54,0,0,0,0,2.12,1.51,1.51,0,0,0,2.12,0,12.55,12.55,0,0,1,3-2.62,1.54,1.54,0,0,0,0-2.6c.46-.43.92-.86,1.41-1.27a1.51,1.51,0,0,0,0-2.12h0l.68-.7A1.52,1.52,0,0,0,246.49,63.77Z" fill="#fbc76f"/><polygon points="219.12 80.52 212.6 65.64 216.5 63.27 222.25 78.53 219.12 80.52" fill="#973f00"/><path d="M212.6,65.64l-.68-1.44a1.45,1.45,0,0,1,.63-1.9l1.58-.84a1.45,1.45,0,0,1,2.07.84l.31,1" fill="#ff7f5c"/><path d="M225.6,78.23c-1.85,0-5.29.34-5.29.34a4.86,4.86,0,0,0-2.42-1.5c-1.29-.19-4.54,2.8-5.57,4-.44.51-2.68,1.29-5.09,2a4.13,4.13,0,0,1,.29,1.12c.27,2.44.53,4.87.93,7.29,2.84-1,6.17-2.11,6.45-2.32.49-.36,9.17-2.29,10.14-3.86S228.28,78.3,225.6,78.23Z" fill="#fbc76f"/><path d="M207.3,80.74a.73.73,0,0,0-.89-.51L184,86.92a.73.73,0,0,0,.39,1.4L206,81.86q1.43,6.55,2.44,13.18c.14.92,1.54.53,1.4-.39Q208.83,87.65,207.3,80.74Z" fill="#003c4f"/></svg>