<svg xmlns="http://www.w3.org/2000/svg" xmlns:xlink="http://www.w3.org/1999/xlink" viewBox="0 0 400 300"><defs><linearGradient id="linear-gradient" x1="105.61" y1="261.04" x2="125.9" y2="241.09" gradientUnits="userSpaceOnUse"><stop offset="0" stop-color="#fff" stop-opacity="0"/><stop offset="1" stop-color="#0071bc"/></linearGradient><linearGradient id="linear-gradient-2" x1="290.32" y1="198.75" x2="294.23" y2="194.38" gradientUnits="userSpaceOnUse"><stop offset="0" stop-color="#fff" stop-opacity="0"/><stop offset="1" stop-color="#22b573"/></linearGradient></defs><title>0</title><g style="isolation:isolate"><g id="Layer_2" data-name="Layer 2"><path d="M329.49,182.1,220.24,118.56a5.17,5.17,0,0,0-5.16,0L51.71,212.05a5.17,5.17,0,0,0,0,9l104.47,60.32a16.86,16.86,0,0,0,16.86,0L329.47,191A5.17,5.17,0,0,0,329.49,182.1Z" fill="#82aa8e"/><polygon points="236.29 209.03 134.35 268.05 63.82 225.64 151.67 171.1 236.29 209.03" opacity="0.63" fill="url(#linear-gradient)" style="mix-blend-mode:multiply"/><path d="M138.15,263.49l-36.22-22a6.62,6.62,0,0,1-3.06-6.5l1.91-140Z" fill="#68e1fd"/><polygon points="101 240.73 144.93 210.97 138.15 263.49 101 240.73" fill="#68e1fd"/><path d="M138.15,263.49l-36.22-22a6.62,6.62,0,0,1-3.06-6.5l1.91-140Z" fill="#606060" opacity="0.47"/><polygon points="101 240.73 144.93 210.97 138.15 263.49 101 240.73" fill="#606060" opacity="0.47"/><path d="M100.58,94.06l35.2,166.24a4.62,4.62,0,0,0,6.84,3l137.31-79.5a6.4,6.4,0,0,0,3-7L245.72,14.72a6.4,6.4,0,0,0-9.44-4.11L103.64,87.19A6.4,6.4,0,0,0,100.58,94.06Z" fill="#68e1fd"/><polygon points="106.99 93.65 139.4 245.17 275.26 169.53 238.61 18.34 106.99 93.65" fill="none" stroke="#1b1464" stroke-miterlimit="10"/><ellipse cx="147.46" cy="246.94" rx="1.65" ry="2.03" transform="translate(-31.34 21.65) rotate(-7.59)" fill="#fff"/><ellipse cx="149.14" cy="253.26" rx="1.65" ry="2.03" transform="translate(-32.16 21.93) rotate(-7.59)" fill="#fff"/><path d="M151.43,246,162,240a.75.75,0,0,0-.76-1.3l-10.58,6a.75.75,0,0,0,.76,1.3Z" fill="#f2f2f2"/><path d="M153.54,252.32l10.58-6a.75.75,0,0,0-.76-1.3l-10.58,6a.75.75,0,0,0,.76,1.3Z" fill="#f2f2f2"/><path d="M177.17,231.05l59-33.46a.38.38,0,0,0-.38-.65l-59,33.46a.38.38,0,0,0,.38.65Z" fill="#f2f2f2"/><path d="M179.22,235.83,238.47,202a.38.38,0,0,0-.38-.65l-59.25,33.79a.38.38,0,0,0,.38.65Z" fill="#f2f2f2"/><ellipse cx="255.41" cy="187.41" rx="1.65" ry="2.03" transform="translate(-22.53 35.4) rotate(-7.59)" fill="#fff"/><ellipse cx="257.09" cy="193.73" rx="1.65" ry="2.03" transform="translate(-23.35 35.68) rotate(-7.59)" fill="#fff"/><path d="M259.38,186.47l10.58-6a.75.75,0,0,0-.76-1.3l-10.58,6a.75.75,0,0,0,.76,1.3Z" fill="#f2f2f2"/><path d="M261.49,192.79l10.58-6a.75.75,0,0,0-.76-1.3l-10.58,6a.75.75,0,0,0,.76,1.3Z" fill="#f2f2f2"/><path d="M131.61,146.28c1,0,1.17-.57,1.36-1.49.45-2.16-.31-4-1-5.89-.53-1.42-.56-3-1-4.46-.54-1.72-1.3-3.37-1.88-4.85l.51-1.09.42.4.36-.06a13.81,13.81,0,0,0-.44-1.95c-.32-.85-.87-1.63-1.11-2.49a4.78,4.78,0,0,1,.15-1.81c.11-.8.26-1.59.4-2.39s.22-1.4.34-2.1l.36,0,.27,1.75c.31-.57.39-.89.59-1,1.6-1.26,3.07-3.14,4.88-3.55a34.19,34.19,0,0,0,4.59-1.57c.67-.25,1.47-.15,2.18-.34,1.57-.42,3-1,3.45-2.86a1,1,0,0,1,.4-.62,1.52,1.52,0,0,0,.76-1.9,1.74,1.74,0,0,1,.73-2,4.79,4.79,0,0,0,.82-1l1.07,2.22.69-.86-.49-2.08,2,.64c-.07-.63-.35-1.26-.14-1.61a12.16,12.16,0,0,1,1.65-1.9l.23.25c0-.34-.16-.93,0-1a8.56,8.56,0,0,0,2.46-1.48c.25-.25.72-.29,1.08-.42l.16-.42,2.63,2.71,2.82.29c0-.18.13-.45,0-.56-1.12-1.41.41-2,.88-2.92.09-.17.44-.31.42-.4-.33-1.4.81-1.81,1.61-2.42a1.88,1.88,0,0,1,.94-.19,9.39,9.39,0,0,0,1.72-.1c.34-.09.8-.51.81-.78s-.38-.71-.68-1-.56-.23-.82-.55l1.42-.16c1.27,1.88,3.71,1.46,5.46,2.53l1.14-.61,1.07,1.44.28-1.46,1.28.82c-.74.7-.58,2.1-2,2.3-.14,0-.26.4-.32.63-.26,1-.49,2-.84,3.5l3.16,2.3c.6.44,1.18.89,1.79,1.31a46.7,46.7,0,0,0,4,2.67c1,.55,1.78.05,2.27-1a15.58,15.58,0,0,0,1.47-8,4.69,4.69,0,0,1,.27-1.45c.43-1.76.86-3.52,1.33-5.27.08-.28.38-.5.86-1.09l2.43,9.29c.48-.12,1.32-.43,1.37-.34.43.85,1.66,1.05,1.59,2.34a7.48,7.48,0,0,0,1,4.49,3.64,3.64,0,0,1,.19,2,4.39,4.39,0,0,0,1.88,3.16c1.14.65,2.21,1.43,3.28,2.19.13.09.13.38.15.58s-.09.49,0,.56c1.15,1,1.18,2.4,1.55,3.7a.9.9,0,0,0,.21.3c.37,0,.83-.18.88-.08.31.53,1.62.11,1.25,1.13-.51,1.4.7,2,1.22,2.83a22.05,22.05,0,0,0,1.92,2.44c.24.3.5.59.85,1l.85-1.32c0,.42,0,.71-.09,1-.27,1.6-.64,3.2-.79,4.81-.06.65.44,1.34.52,2a5.34,5.34,0,0,1-.15,1.93,41.12,41.12,0,0,1-1.54,5.1,10.1,10.1,0,0,1-2.31,3.9c-1.51,1.29-2.11,3-3.13,4.55a14,14,0,0,0-1.13,2.19,31.5,31.5,0,0,0-1.59,4c-.36,1.29-.71,1.55-2.06,1.71a7,7,0,0,0-3.33,1.1c-1.45,1.11-2.76,1.78-4.46.71a3.74,3.74,0,0,0-.57-.24l.43-1-.24-.22a18.25,18.25,0,0,0-1.94,1.42,1.71,1.71,0,0,1-2.51.09,3.65,3.65,0,0,0-2.18-.48c-1.64.11-3.56-2.16-3.19-3.78a3.87,3.87,0,0,0-.28-1.77,14.93,14.93,0,0,0-.68-1.63l-1.82.63-.2-.24a2.24,2.24,0,0,0,.2-3.31c-.69,1-.62,2.72-2.7,2.44,1.72-1.63,2-3.8,3-6.07-1.38,1.23-2.47,2.13-3.46,3.13a19.52,19.52,0,0,0-1.63,2.21c-.12-.12-.54-.35-.69-.71-.36-.85-.56-1.77-.91-2.63-.13-.33-.53-.55-.71-.88s-.19-.8-.42-1.09a4.32,4.32,0,0,0-1.38-1.29c-1.18-.54-2.65-.25-3.69-1.28a1,1,0,0,0-.68-.26c-1.83.21-3.74-.25-5.49.77a7.36,7.36,0,0,1-4.46,1,4.13,4.13,0,0,0-1.92.7c-1.37.69-3,1-3.6,2.78-.09.27-.76.5-1.17.5-1.19,0-2.37-.17-3.56-.18-1,0-1.9.13-2.85.22a1,1,0,0,0-.45.2l-2.91,2.05a4.87,4.87,0,0,1-4.91-.49c-.27-.26-.53-.68-.83-.72C131.39,147.94,131.51,147.2,131.61,146.28Z" fill="#fff"/><path d="M191.56,85.66l.56,1.28a8.76,8.76,0,0,1-2,.7,20.78,20.78,0,0,1-3-.12V72c.32-.1.47-.2.55-.16,1.9.82,3.81,1.62,5.68,2.51,1,.47,1.83,1.17,2.8,1.66a2,2,0,0,1,1.15,2.51,26.79,26.79,0,0,1,3.26,1.26c.56.3.9,1,1.56,1.73l-2.68.3,1.86,2.55a9.47,9.47,0,0,1,1.2,1.74c.4.95,1,1.36,1.59,1.21l1.72,1.78a1.06,1.06,0,0,0,.27.59,12.22,12.22,0,0,0,1.46,1l-.14.35a4.58,4.58,0,0,1-1.17,0c-1.28-.35-2.52-.88-3.82-1.11a2.26,2.26,0,0,1-1.79-1.06c-.43-.68-1.39-1.12-1.62-1.82-.62-1.85-2-2.51-3.66-2.95a2.42,2.42,0,0,0-2.26.63A7.39,7.39,0,0,1,191.56,85.66Z" fill="#fff"/><path d="M228.17,175.63c1.42-1.31,2.61-2.5,3.9-3.57a15.8,15.8,0,0,1,2.32-1.39c1.54-.88,3.11-1.71,4.62-2.64.43-.27.66-.83,1-1.22s.92-.92,1.37-1.4a12,12,0,0,0,.86-1c.37-.5.72-1,1.25-1.79l.88,1.86,2.08-.56c-.33,2.49-2.14,3.7-3.77,5-.71.56-.94.92-.28,1.51l-2.22.52a3.16,3.16,0,0,0-2.24,2.14,8.32,8.32,0,0,1-3.87,4,2.63,2.63,0,0,1-2.67-.13,11.58,11.58,0,0,0-1.87-.47A9.17,9.17,0,0,1,228.17,175.63Z" fill="#fff"/><path d="M248.5,165.42l-1.06-.74c.52-.92,1.48-1.86,1.37-2.65s-1.38-1.24-2.24-1.95a4.71,4.71,0,0,1,.78-.53c1.66-.65,2.17-2.06,2.38-3.63.08-.63.28-1.31-.27-1.89-.08-.08.19-.44.19-.67s0-.61-.2-.71a3.19,3.19,0,0,1-1.37-3.26c2,.37,2.62.94,2.3,3.37-.16,1.23.45,1.54,1,2.14l.41-1.15.3,0a2.83,2.83,0,0,1,.15.9,1.51,1.51,0,0,0,1,1.85c.83.36,1.51.54,2.25-.26.28-.31.94-.27,1.43-.39l.24.43L255,159.42s0,.11-.05.11c-2.83,0-2.5,3.35-4.52,4.27A9.54,9.54,0,0,0,248.5,165.42Z" fill="#fff"/><path d="M189,163.15a5.84,5.84,0,0,1,1.5.41c1.56,1.07,3.1.55,4.63,0,.67-.24,1-.11.86.62-.23.92,0,1.92-.87,2.74-.45.43-.44,1.35-.64,2.06-.39-.28-.61-1.1-1.22-.15a2.39,2.39,0,0,1-1.52,1c-.93.1-2-1.43-2.11-2.5,0-.62-.27-1.23-.37-1.85S189.11,164.07,189,163.15Z" fill="#fff"/><path d="M209.9,77l-.25-1.56,1.72.6c-.21.46-.41.92-.63,1.38,0,.07-.16.1-.17.16,0,.37.11,1-.06,1.07a18.25,18.25,0,0,1-3.86,1.87c-1.54.43-2.69-.78-4-1.4l.05-.37c.49,0,1,0,1.47,0s1.26-.15,1.9-.22a2,2,0,0,1,.46,0c.76.1,1.52.37,2-.58C208.84,77.63,209.37,77.43,209.9,77Z" fill="#fff"/><path d="M234.55,113.85l5.57,5.05c-1.69.37-4.92-2.38-5.85-4.74Z" fill="#fff"/><path d="M216.67,78.62c.7.86,1.42,1.72,2.09,2.61a.67.67,0,0,1-.18.6c-.25.07-.69.06-.79-.09-.6-.9-1.12-1.84-1.66-2.77Z" fill="#fff"/><path d="M164,93.78c.17-.66.07-1.44,1.23-1,.4.14.95-.12,1.43-.2C166.82,93.82,166.28,94.08,164,93.78Z" fill="#fff"/><path d="M226.49,87.74l2.78,1.14C227.36,89.46,226.58,89.1,226.49,87.74Z" fill="#fff"/><path d="M174.36,152.16c.92-1.31,1.68-1.36,3.13-.35Z" fill="#fff"/><path d="M241.53,103.12c-1.42-.18-1.05-1.23-1.13-2.44l1.47,2.14Z" fill="#fff"/><path d="M229,85.54l1.36,3C229.21,88,229,87.49,229,85.54Z" fill="#fff"/><polygon points="311.97 190.35 293.66 200.92 281.03 193.33 299.01 182.16 311.97 190.35" opacity="0.63" fill="url(#linear-gradient-2)" style="mix-blend-mode:multiply"/><path d="M289.7,140.71a8.38,8.38,0,0,1,4.08.8,6.63,6.63,0,0,1,2.88,3.28c.63,1.32.9,3.2,2.21,4a3.83,3.83,0,0,1,1.29,1.12,3.36,3.36,0,0,1,.4,3.13c-.58,1.16-3,1.87-4.09,1.66" fill="#8fdb5e"/><path d="M288.63,140.86a7.87,7.87,0,0,0-6.95,6,10.39,10.39,0,0,0-.05,4.91c.31,1.3,1.08,3.56,2.67,3.66,2.15.13,2.84-1.88,3.52-3.53s1.39-3.47,3.11-4.12a4.63,4.63,0,0,1,5,1.12Z" fill="#1e8c0e"/><path d="M298.46,149.58c-1.3-1.68-2.38-3.51-3.63-5.22a15.55,15.55,0,0,0-2.52-3c-3-1.45-6.75-.12-9,2.42.3.09.72.11,1,.19a8.51,8.51,0,0,1,3.42,2.42c1.32,1.46,2.35,3.25,3.52,4.81,1.9,2.52,4.42,4.6,7.67,3.09C301,153.28,299.37,150.77,298.46,149.58Z" fill="#8fdb5e"/><path d="M309,128s6.73-.53,6.6,10.12-10.18,3.64-8-2.77" fill="#1e8c0e"/><path d="M308,138.45c-.07-3.24,3.57-5.6,6.64-6a6.22,6.22,0,0,0-6.09-4.76c-4.61.12-8.06,4.8-8.84,10.32a10.56,10.56,0,0,0,3.39,9l2.22,1.9C309.45,147.3,307.93,141.4,308,138.45Z" fill="#8fdb5e"/><path d="M326.36,146.07a14.06,14.06,0,0,0-1.56-5.78,6.37,6.37,0,0,0-4.38-3.39l-3.79,7.3s5.65-9.88,3.34-2.27,5.3,16.13,6.34,4.79C326.33,146.49,326.34,146.28,326.36,146.07Z" fill="#1e8c0e"/><path d="M299.58,165.07s-5.06,3.3-3.66,11a42.32,42.32,0,0,0,2.25,7.82c1,2.51,1.7,5.74,4.23,7.16a9,9,0,0,0,8.37.11c2.17-1.33,2.95-4.34,3.74-6.58a40.85,40.85,0,0,0,1.94-8.51C318.85,157.44,299.58,165.07,299.58,165.07Z" fill="#68e1fd"/><ellipse cx="306.4" cy="166.19" rx="7.39" ry="2.67" fill="#34323d"/><path d="M307,152c-1-2.49-3-4.58-3.57-7.25a9.49,9.49,0,0,1,3.78-9.69c.56-.41,0-1.36-.55-.94-4.72,3.43-5.64,9.29-2.88,14.28a26,26,0,0,1,2.49,4.73c.68,2.22-.08,3.83-1.12,5.5a6.33,6.33,0,0,0-1.64-4.48c-1.23-1.14-3-1.33-4.56-1.84-2.94-1-5.53-2.67-6-6-.11-.69-1.16-.4-1.05.29a7.88,7.88,0,0,0,4.54,5.82,31.64,31.64,0,0,0,4.38,1.52,5.1,5.1,0,0,1,2.89,2.83c.7,1.61.22,2.71-.17,4.27-.51,2-1.32,3.76.07,5.68.41.56,1.36,0,.94-.55-2.21-3.05,1.32-6,2.52-8.58A6.75,6.75,0,0,0,307,152Z" fill="#1e8c0e"/><path d="M320.63,145.26c-4.67-.82-7.85,2.79-7.57,7.31a17.14,17.14,0,0,0,.63,3.35,8.76,8.76,0,0,1,.62,2.9,4.41,4.41,0,0,1-2.67,3.12,6.36,6.36,0,0,0-3.94,4.33.55.55,0,0,0,1.05.29c1.08-4,6.6-3.38,6.64-7.74,0-2.13-1.11-4.12-1.24-6.25-.23-3.72,2.2-7,6.19-6.26C321,146.44,321.32,145.39,320.63,145.26Z" fill="#1e8c0e"/><path d="M324.8,140.29c-1.81-3.34-5.1-4.12-8.32-3.13a10.61,10.61,0,0,0-1.3.63c-8.11,6-2.35,19.57-1.1,19.46,4.13-.34,3.7-2.77,5.09-9.57a6.42,6.42,0,0,1,6.45-5.44A12,12,0,0,0,324.8,140.29Z" fill="#8fdb5e"/><path d="M323,138.07a6.76,6.76,0,0,0-6.91,3.31c-3,5-2.28,10.73-1.89,16.2.05.7,1.14.7,1.09,0-.29-4-.84-7.87.23-11.75.53-1.9,1.16-4,2.68-5.38a5.6,5.6,0,0,1,6.1-.87l-.41-.56C323.62,138.71,323.32,138.39,323,138.07Z" fill="#1e8c0e"/></g></g></svg>