<svg id="Layer_1" data-name="Layer 1" xmlns="http://www.w3.org/2000/svg" viewBox="0 0 400 300"><title>1</title><path d="M230.39,187.81a6.67,6.67,0,0,0-1.4.21c-.44-3.3-2.06-2.56-2.06-2.56l.52,3.24-5.35,5.09,2.82,2.37s5.91-3.12,6.75-3.7c.56-.39.35-1.7.3-2.25a14.6,14.6,0,0,0-.21-1.46C231.6,188,231,187.81,230.39,187.81Z" fill="#f7bcaa"/><path d="M208.88,185.64c1.28.77,8.74,7.35,9.88,7.46s7.87-3.73,7.87-3.73,4.45,2.72,2,6.23c0,0-8.12,6.2-13.68,4" fill="#e71624"/><path d="M297.72,71.21s3.4,3-.84,9-49.2,7.23-54.25-21.79S297.72,71.21,297.72,71.21Z" fill="#68e1fd"/><path d="M298.07,72c1.59,1.36,1.12,3.09.57,4.92a7.68,7.68,0,0,1-6,5.51,36.73,36.73,0,0,1-8.31,1.15A59,59,0,0,1,273.68,83a53.26,53.26,0,0,1-11.21-2.79,37.16,37.16,0,0,1-10.12-5.58,25.89,25.89,0,0,1-9.72-16.26c-.4-2.27-.59-4.88.46-7a5.73,5.73,0,0,1,4-3,16.11,16.11,0,0,1,6.69.24,50.27,50.27,0,0,1,8.41,2.64c3.13,1.24,6.19,2.67,9.2,4.2s6.08,3.2,9.06,4.92q4,2.33,8,4.8,3,1.89,6,3.85c1,.67,2.08,1.32,3.06,2.06C297.58,71.12,298,71.93,298.07,72Z" opacity="0.61"/><ellipse cx="206" cy="244.47" rx="93.98" ry="39.16" fill="#d36d29"/><path d="M195.79,192.32l-22.1-35.87-13.12-21.31a48.68,48.68,0,0,1-2.84-4.62c-.06-.13-.21-.43-.06,0a3.83,3.83,0,0,1-.08-.81c-.1-1.44-.28-2.88-.42-4.32l-2.47-25.34c-.06-.63-1.06-.64-1,0l2.18,22.43c.25,2.52.07,5.6.78,8a14.16,14.16,0,0,0,1.78,3l27.5,44.64,9,14.59c.34.55,1.2,0,.86-.5Z" fill="#42210b"/><path d="M130,116.5l26.69,14.05c.57.3,1.08-.56.5-.86l-26.69-14.05c-.57-.3-1.08.56-.5.86Z" fill="#42210b"/><path d="M142.8,108.21l16.65,27c.34.55,1.2,0,.86-.5l-16.65-27c-.34-.55-1.2,0-.86.5Z" fill="#42210b"/><path d="M198.56,190.43,188,145.31l-6.47-27.64c-.52-2.22-1-4.44-1.56-6.65-.17-.7-.12-.42-.1-.62a34.33,34.33,0,0,1,.81-3.72l6-27.6c.14-.63-.83-.9-1-.27l-5.37,24.58c-.48,2.2-1.62,5-1.52,7.27a27,27,0,0,0,1.07,4.58l13.43,57.38,4.23,18.08c.15.63,1.11.36,1-.27Z" fill="#42210b"/><path d="M159.38,87.45,179,110.37c.42.49,1.12-.22.71-.71L160.09,86.74c-.42-.49-1.12.22-.71.71Z" fill="#42210b"/><path d="M172.55,84l7.54,31.88c.15.63,1.11.36,1-.27l-7.54-31.88c-.15-.63-1.11-.36-1,.27Z" fill="#42210b"/><path d="M205.37,187.52,208,136.41l1.66-31.65c.14-2.69.34-5.37.42-8.06,0-.31.13-1.2,0-.77a25.36,25.36,0,0,1,1.5-3.38l12.61-28.39c.26-.58-.6-1.09-.86-.5L212.05,89.19c-.92,2.08-2.42,4.41-2.88,6.66a40.73,40.73,0,0,0-.3,5.77l-3.43,65.58-1.06,20.33c0,.64,1,.64,1,0Z" fill="#42210b"/><path d="M194.4,69.34,209.25,96c.31.56,1.18.06.86-.5L195.26,68.83c-.31-.56-1.18-.06-.86.5Z" fill="#42210b"/><path d="M211,66.52l-2.13,34.78c0,.64,1,.64,1,0L212,66.52c0-.64-1-.64-1,0Z" fill="#42210b"/><path d="M210,190.7l13.73-51,9.37-34.77,3.06-11.36a35.72,35.72,0,0,1,1-3.83,38.07,38.07,0,0,1,3.16-4.45l5.94-8.36,8.58-12.07c.37-.53-.49-1-.86-.5l-16.91,23.8a8.56,8.56,0,0,0-1.41,3.25l-2.57,9.55-18.79,69.74-5.32,19.74a.5.5,0,0,0,1,.27Z" fill="#42210b"/><path d="M225.5,61.14l10.94,28.11c.23.59,1.2.34,1-.27L226.47,60.88c-.23-.59-1.2-.34-1,.27Z" fill="#42210b"/><path d="M243.53,61.15l-8.67,33.58a.5.5,0,0,0,1,.27l8.67-33.58a.5.5,0,0,0-1-.27Z" fill="#42210b"/><path d="M117.29,164.76l30.09,2.05c.64,0,.64-1,0-1l-30.09-2.05c-.64,0-.64,1,0,1Z" fill="#42210b"/><path d="M125.59,152q27.42,18.7,55.27,36.65c4,2.56,8.4,4.79,11.57,8.26.44.48,1.14-.23.71-.71-2.65-2.9-6-4.69-9.29-6.82l-18.71-12.1c-7.84-5.07-15.62-10.19-23.33-15.45l-15.7-10.7c-.53-.36-1,.5-.5.86Z" fill="#42210b"/><path d="M132.25,140.24l15,26.67a.5.5,0,0,0,.86-.5l-15-26.67a.5.5,0,0,0-.86.5Z" fill="#42210b"/><path d="M244.45,235.68s0-.12,3.05-.12,5.09-1.6,5.85-.55-5.33,6-9.8,6.38l-4.13-4S243,234.35,244.45,235.68Z" fill="#2d313a"/><path d="M226.63,240.67s3.79,4.14,4.14,6.09,4,4.71,5.86,4.37,1.11-3.4.88-4.44-3.18-4.6-3.18-4.6L232,238" fill="#2d313a"/><path d="M191.57,200.71s-1.85-6,.44-8.14,14.48-8.31,16.87-6.94,6.5,9.54,6.61,10.52-9.43,6.13-9.43,6.13l-5.28,3.2" fill="#e71624"/><path d="M192.78,205.49s3.87-5.16,6.45-3.87,12.41,17.84,12.41,17.84a61.65,61.65,0,0,1-6.76,3.49c-4.23,1.72-9.53-4.55-9.53-4.55Z" fill="#2d313a"/><path d="M217.31,224.85s-6.91,6-15.94,4.71-9.88-16.33-8.59-24.08c0,0,2.58,15.49,9,16.78s14.2-6.45,14.2-6.45Z" fill="#ff235b"/><path d="M213,218.8l-6,2.92s2.11,6.92,1.69,7.42,8.64-3,9.93-4.29S213,218.8,213,218.8Z" fill="#961238"/><path d="M233.7,240.64a120.58,120.58,0,0,0-7.36-15.79c-3.87-6.45-5.16-11.62-10.33-14.2s-9,2.58-9,2.58l7.75,10.33c2.75,3.67,7.26,13.23,9.64,18.47C227.44,242.34,231.14,242.29,233.7,240.64Z" fill="#68e1fd"/><path d="M217.24,203.6s13.35,7.91,16.82,10.91c2.19,1.89,11.69,20.61,11.69,20.61s-3.83,5-7.7,3.73l-8.8-17.15-14.55-8.42S212.07,202.32,217.24,203.6Z" fill="#68e1fd"/><path d="M63.61,127.68S58.82,142,72.5,157.08s40.35,24.62,51.29,16.41,17.1-79.33,82.75-101.9S298.86,73,298.86,73s-24.62-40.35-71.81-53.34S88.23,30.57,63.61,127.68Z" fill="#68e1fd"/><ellipse cx="197.93" cy="257.43" rx="23.16" ry="4.67" fill="#93430d"/><path d="M203.32,208.07l-4.09,5.84s3.11,8.14,12.41,5.55" fill="#68e1fd"/><polygon points="199.23 213.91 196.34 207.96 202.07 201.53 204.97 207.72 199.23 213.91" fill="#e71624"/><path d="M200.52,199s10.33-6.45,12.91-6.45,6.45,12.91,6.45,12.91-1.29,6.45-6.45,7.75a36.12,36.12,0,0,1-7.75,1.29s-6.45-10.33-6.45-11.62A13,13,0,0,1,200.52,199Z" fill="#2d313a"/><path d="M205,185.67a5.51,5.51,0,0,1,3.59,3.6c.92,2.92,1.78,6.9,1.78,6.9l2.52-2.7s-1.71-8-5.22-9.49S205,185.67,205,185.67Z" fill="#2d313a"/><path d="M195.35,189.55s5,3.87,6.17,8.87,2.62.73,2.62.73-3.2-9.82-5.57-11A2.24,2.24,0,0,0,195.35,189.55Z" fill="#2d313a"/><path d="M204.13,180.83s1.93,6.6-.56,8.32c-1.65,1.14-4.43.68-5.13-.38s-2.93-8.58-1.5-9S204.13,180.83,204.13,180.83Z" fill="#f7bcaa"/><path d="M202.78,183.31a5.18,5.18,0,0,1-1.27.29.52.52,0,0,0,.23,1,5,5,0,0,0,1.57-.4.55.55,0,0,0,.26-.57v-.06C203.51,183.14,203.06,183.1,202.78,183.31Z" fill="#010200"/><path d="M200.39,183a15.44,15.44,0,0,0-2.56,1.13,2.11,2.11,0,0,0,.26,2.08c.52.48,3-.12,3.37-.76S202.57,182.87,200.39,183Z" fill="#2d313a"/><path d="M201.59,185.13a2.8,2.8,0,0,0,.28-1.06c0-.27-.09-.87-.45-.91a.42.42,0,0,0-.18,0l-1.3.47a5,5,0,0,0-1.15.45,1.49,1.49,0,0,0-.52,1.53c.1.65,1.49.21,1.85.12a5.15,5.15,0,0,0,.76-.27C201,185.45,201.52,185.28,201.59,185.13Z" fill="#2d313a"/><path d="M205.13,181.69a14.63,14.63,0,0,0-2.41,1,1.64,1.64,0,0,0,.2,1.83c.4.32,2,0,2.89-.41A3.12,3.12,0,0,0,205.13,181.69Z" fill="#2d313a"/><path d="M205.84,183.78a3.11,3.11,0,0,0-.46-1.74l-.53.18a5.73,5.73,0,0,0-1.16.43,1.3,1.3,0,0,0-.57,1.37c.08.57,1.49.14,1.85.05a6,6,0,0,0,.77-.26Z" fill="#2d313a"/><path d="M198.09,186.22l-.34-.66a2,2,0,0,1,1.67-2.58c1.73-.39,5.34-1.16,5.34-1.16l.37-.13s.54-.65-.75-2.54-4.27-2.53-7.42-1-3.88,5.56-1.69,8.51,3.59,2.48,3.59,2.48.46,0,.46-.4a15.89,15.89,0,0,0-1.22-2.5Z" fill="#2d313a"/><path d="M195.43,199.34,198,193.1l4.71,1.36s-.14,12.63-7,14S191,194.65,191,194.65" fill="#e71624"/><path d="M198.61,192.58s.38-2.64,1.31-2.72.85,1.36.85,1.36,2.54-1.36,4.11.89c.67,1-2.82,3.49-2.82,3.49l-4-1.74Z" fill="#f7bcaa"/><path d="M205.69,214.52s-4.07,4.62-7.45,3.09,6.73-9.9,6.73-9.9Z" fill="#2d313a"/><path d="M197.36,194.17a27.1,27.1,0,0,0-3.31,7.48.24.24,0,0,0,.46.13,26.67,26.67,0,0,1,3.26-7.37C197.94,194.15,197.53,193.91,197.36,194.17Z" fill="#2d313a"/><path d="M222.55,217a13.59,13.59,0,0,0-7.32-4.63.25.25,0,0,0-.14.49,13.15,13.15,0,0,1,7.1,4.5C222.39,217.58,222.75,217.22,222.55,217Z" fill="#2d313a"/></svg>