<svg id="Layer_2" data-name="Layer 2" xmlns="http://www.w3.org/2000/svg" viewBox="0 0 400 300"><title>PP_</title><path d="M17.51,162.67,184.72,67.51a26.82,26.82,0,0,1,26.76.13L383.77,168a14.9,14.9,0,0,1-.08,25.8L222.9,286.14a35.93,35.93,0,0,1-35.81,0L17.45,188.54A14.9,14.9,0,0,1,17.51,162.67Z" fill="#fbb03b"/><path d="M348.79,180.32l.37-28.38c0,.17.24.41.83.75a29,29,0,0,0,4.25,2L353.88,183a29,29,0,0,1-4.25-2C349,180.73,348.79,180.49,348.79,180.32Z" fill="#4378c4"/><path d="M350,187.39l.37-28.38c0,1.17.88,2.42,1.81,3.47l-.37,28.38C350.89,189.81,350,188.56,350,187.39Z" fill="#4378c4"/><path d="M354.5,163.16l-.37,28.38a.65.65,0,0,0-.05-.3c-.23-.47-1.55-.69-2.27-.38l.37-28.38c.72-.31,2-.09,2.27.38A.65.65,0,0,1,354.5,163.16Z" fill="#4378c4"/><path d="M374.71,163.45l-.37,28.38v0l.37-28.38Z" fill="#4378c4"/><path d="M363,165.11l-.37,28.38a4.41,4.41,0,0,0-.8.19l.37-28.38A4.41,4.41,0,0,1,363,165.11Z" fill="#4378c4"/><path d="M354.13,191.69l.37-28.38a.49.49,0,0,0,.25.49c.88.52,2.28-.31,3.27-.12,1.26.24,1.09.79,2,1.27a3.56,3.56,0,0,0,2.27.34l-.37,28.38a3.56,3.56,0,0,1-2.27-.34c-.86-.48-.69-1-2-1.27-1-.19-2.39.63-3.27.12A.49.49,0,0,1,354.13,191.69Z" fill="#4378c4"/><path d="M377.29,165.94l-.37,28.38a.32.32,0,0,1-.22.28,1.68,1.68,0,0,1-.53.14l.37-28.38a1.68,1.68,0,0,0,.53-.14A.32.32,0,0,0,377.29,165.94Z" fill="#4378c4"/><path d="M364.73,166.55l-.37,28.38c-.31-.26-.3-.58-.46-.88a1.32,1.32,0,0,0-1.24-.56l.37-28.38a1.32,1.32,0,0,1,1.24.56C364.43,166,364.42,166.28,364.73,166.55Z" fill="#4378c4"/><path d="M368.54,165.61,368.17,194l-3.81.94.37-28.38Z" fill="#4378c4"/><path d="M368.08,195.25l.37-28.38a.28.28,0,0,0,.11.25l-.37,28.38A.28.28,0,0,1,368.08,195.25Z" fill="#4378c4"/><path d="M349.3,151.76a5.25,5.25,0,0,1,2.39.06,14.69,14.69,0,0,1,3.64,1.57c2.34,1.22,5.48,1.79,8.25,2.71a12.68,12.68,0,0,1,3.86,2.08,24.61,24.61,0,0,0,3.93,2.68c1.53.75,3.4,1.57,3.34,2.64,0,.45,3.48,2.17,2.37,2.72a1.68,1.68,0,0,1-.53.14,7.36,7.36,0,0,1-1.21,0c-2.06-.07-3.7.9-5.77,1a1.76,1.76,0,0,1-1-.19.33.33,0,0,1-.11-.33c0-.4.06-.79.09-1.19l-3.81.94c-.31-.26-.3-.58-.46-.88a1.32,1.32,0,0,0-1.24-.56,4.41,4.41,0,0,0-.8.19A3.56,3.56,0,0,1,360,165c-.86-.48-.69-1-2-1.27-1-.19-2.39.63-3.27.12-.42-.25-.15-.63-.3-.94-.23-.47-1.55-.69-2.27-.38-1-1.12-1.95-2.48-1.8-3.71.09-.73.72-2.84,1.69-3.38l.13-.07a10.52,10.52,0,0,1,2-.65,29,29,0,0,1-4.25-2C349.13,152.19,349,151.9,349.3,151.76Z" fill="#9ac0ff"/><path d="M376.55,166.36l-.37,28.38a7.36,7.36,0,0,1-1.21,0c-2.06-.07-3.7.9-5.77,1a1.76,1.76,0,0,1-1-.19l.37-28.38a1.76,1.76,0,0,0,1,.19c2.06-.08,3.71-1,5.77-1A7.36,7.36,0,0,0,376.55,166.36Z" fill="#4378c4"/><path d="M140,103.88l-.37,28.38a2.32,2.32,0,0,0-.62-1.46,1.4,1.4,0,0,1-.41-.73l.37-28.38a1.4,1.4,0,0,0,.41.73A2.32,2.32,0,0,1,140,103.88Z" fill="#4378c4"/><path d="M217.16,107.63,216.79,136c0,.31-.27.56-.69.76a11.28,11.28,0,0,1-1.66.59,11.44,11.44,0,0,0-1.72.61c-.5.25-.84.55-.84,1l.37-28.38c0-.41.34-.71.84-1a11.44,11.44,0,0,1,1.72-.61,11.28,11.28,0,0,0,1.66-.59C216.89,108.19,217.16,107.95,217.16,107.63Z" fill="#4378c4"/><path d="M91.63,140.3,92,111.92c0,.37.07.74.08,1.11l-.37,28.38C91.7,141,91.63,140.66,91.63,140.3Z" fill="#4378c4"/><path d="M216.5,115.81l-.37,28.38a5,5,0,0,1-.15,1.14,1.67,1.67,0,0,0-.06.4l.37-28.38a1.67,1.67,0,0,1,.06-.4A5,5,0,0,0,216.5,115.81Z" fill="#4378c4"/><path d="M91.65,141.51,92,113.12c0,.09.16.18.36.23,4.63,1.18,5.82,3.86,10,5.06L102,146.8c-4.19-1.2-5.39-3.88-10-5.06C91.81,141.69,91.65,141.6,91.65,141.51Z" fill="#4378c4"/><path d="M103.78,122l-.37,28.38a1.92,1.92,0,0,0,0-.34A16.29,16.29,0,0,0,102,146.8l.37-28.38a16.29,16.29,0,0,1,1.36,3.23A1.93,1.93,0,0,1,103.78,122Z" fill="#4378c4"/><path d="M241.24,124l-.37,28.38c0,.42-.51.88-.52,1.29l.37-28.38C240.72,124.89,241.23,124.44,241.24,124Z" fill="#4378c4"/><path d="M227.13,126.48l-.37,28.38c0-.17-.19-.42-.66-.76a12.27,12.27,0,0,0-1.4-.64,1.3,1.3,0,0,1-.76-1.22l.37-28.38a1.3,1.3,0,0,0,.76,1.22,12.27,12.27,0,0,1,1.4.64C226.94,126.06,227.14,126.31,227.13,126.48Z" fill="#4378c4"/><path d="M253.92,128.79l-.37,28.38c0,1.44-2.9,1.9-3.11,3a.39.39,0,0,0,0,.07l.37-28.38a.39.39,0,0,1,0-.07C251,130.69,253.9,130.22,253.92,128.79Z" fill="#4378c4"/><path d="M102.61,132l-.37,28.38c-.46.12-.78.19-1.05.28l.37-28.38C101.83,132.14,102.15,132.08,102.61,132Z" fill="#4378c4"/><path d="M96.44,159.13l.37-28.38a2.46,2.46,0,0,0,1.62,1.77,5,5,0,0,0,3.13-.28l-.37,28.38a5,5,0,0,1-3.13.28A2.46,2.46,0,0,1,96.44,159.13Z" fill="#4378c4"/><path d="M86.64,169,87,140.59c0,.12.08.23.28.34l-.37,28.38C86.73,169.21,86.64,169.09,86.64,169Z" fill="#4378c4"/><path d="M284.29,172.67l.37-28.38a16.79,16.79,0,0,1,1.58-6.81l-.37,28.38A16.79,16.79,0,0,0,284.29,172.67Z" fill="#4378c4"/><path d="M94.93,149l-.37,28.38c-1-.21-2-.34-3-.48a6.48,6.48,0,0,1-1.58-.36,4.33,4.33,0,0,1-1.06-.79,8.89,8.89,0,0,0-1.62-.94c-3.7-1.85-7.68-1.75-11.5-3.14-1.41-.51-2.34-1.38-4.54-1.24l.37-28.38c2.2-.15,3.13.73,4.54,1.24,3.81,1.38,7.79,1.28,11.5,3.14a8.89,8.89,0,0,1,1.62.94,4.33,4.33,0,0,0,1.06.79,6.48,6.48,0,0,0,1.58.36C93,148.7,94,148.83,94.93,149Z" fill="#4378c4"/><path d="M88,179.91l.37-28.38a.39.39,0,0,0,0,.14c.12.33.59.61,1,.88L89,180.93c-.45-.26-.91-.54-1-.88A.39.39,0,0,1,88,179.91Z" fill="#4378c4"/><path d="M264.47,155.52l-.37,28.38a.4.4,0,0,0-.15-.31l.37-28.38A.4.4,0,0,1,264.47,155.52Z" fill="#4378c4"/><path d="M264.35,155.29,264,183.67c0,.57-2.58,3.18-3.2,3.57l.37-28.38C261.77,158.47,264.35,155.86,264.35,155.29Z" fill="#4378c4"/><path d="M263.81,184.77l.37-28.38c0,.24.15.47.58.55l-.37,28.38C264,185.23,263.8,185,263.81,184.77Z" fill="#4378c4"/><path d="M286.4,148.29,286,176.67c0,1.48-3.33,3.87-4.4,4.53-.3.19-.62.37-1,.54a10.16,10.16,0,0,1-2,.76,52.27,52.27,0,0,1-8.29,1.68c-1.37.07-3-.17-4,.31-.39.2-.71.51-1.08.69a1.4,1.4,0,0,1-.93.13l.37-28.38a1.4,1.4,0,0,0,.93-.13c.37-.19.69-.49,1.08-.69,1-.48,2.61-.25,4-.31a52.27,52.27,0,0,0,8.29-1.68,10.16,10.16,0,0,0,2-.76c.34-.17.66-.35,1-.54C283.07,152.16,286.38,149.76,286.4,148.29Z" fill="#4378c4"/><path d="M68.23,159.73l-.37,28.38c0-.39-.35-.71-.44-1a.59.59,0,0,1,0-.17l.37-28.38a.59.59,0,0,0,0,.17C67.87,159,68.23,159.33,68.23,159.73Z" fill="#4378c4"/><path d="M65.29,189.85l.37-28.38c0,.17.14.31.48.37l-.37,28.38C65.43,190.17,65.28,190,65.29,189.85Z" fill="#4378c4"/><path d="M97.26,166l-.37,28.38a.53.53,0,0,0-.15-.41l.37-28.38A.53.53,0,0,1,97.26,166Z" fill="#4378c4"/><path d="M112.53,164l-.37,28.38a4.71,4.71,0,0,0-2.52.5,4.6,4.6,0,0,0-.81.52,10.72,10.72,0,0,1-2,1.55l.37-28.38a10.72,10.72,0,0,0,2-1.55,4.6,4.6,0,0,1,.81-.52A4.71,4.71,0,0,1,112.53,164Z" fill="#4378c4"/><path d="M107.21,166.55l-.37,28.38c-1.41.59-3.37.58-3.93-.07-.36-.42,0-1-.69-1.3a2.79,2.79,0,0,0-2,.06l.37-28.38a2.79,2.79,0,0,1,2-.06c.66.33.33.89.69,1.3C103.84,167.13,105.8,167.14,107.21,166.55Z" fill="#4378c4"/><path d="M100.57,165.25l-.37,28.38a5,5,0,0,0-1,.7,5.26,5.26,0,0,1-1,.71,3.15,3.15,0,0,1-2.2.19l.37-28.38a3.15,3.15,0,0,0,2.2-.19,5.26,5.26,0,0,0,1-.71A5,5,0,0,1,100.57,165.25Z" fill="#4378c4"/><path d="M245.64,197.54l.37-28.38a7.63,7.63,0,0,1,4.77-7.27,20.36,20.36,0,0,1,3-1.21c2.27-.71,5-.64,7.34-1.81l-.37,28.38c-2.3,1.18-5.07,1.11-7.34,1.81a20.36,20.36,0,0,0-3,1.21,7.63,7.63,0,0,0-4.77,7.27Z" fill="#4378c4"/><path d="M93.2,196.12l.37-28.38a1.17,1.17,0,0,1,.31-.74,4,4,0,0,1,1.18-.87,5.31,5.31,0,0,1,2-.55L96.74,194a5.31,5.31,0,0,0-2,.55,4,4,0,0,0-1.18.87A1.17,1.17,0,0,0,93.2,196.12Z" fill="#4378c4"/><path d="M90.28,167l-.37,28.38a1,1,0,0,1-.52.48,3.67,3.67,0,0,1-2.12.26l.37-28.38a3.67,3.67,0,0,0,2.12-.26A1,1,0,0,0,90.28,167Z" fill="#4378c4"/><path d="M67.48,167.35l-.37,28.38a4.54,4.54,0,0,0-2.83.24l.37-28.38A4.54,4.54,0,0,1,67.48,167.35Z" fill="#4378c4"/><path d="M64.64,167.59,64.28,196c-.19.09-.62-.26-.79-.35l.37-28.38C64,167.33,64.45,167.68,64.64,167.59Z" fill="#4378c4"/><path d="M94.12,168.63,93.76,197a28.56,28.56,0,0,0-3.85-1.63L90.28,167A28.56,28.56,0,0,1,94.12,168.63Z" fill="#4378c4"/><path d="M69.43,169.21l-.37,28.38a.44.44,0,0,0-.19-.31,3.32,3.32,0,0,0-2.53-.4l.37-28.38a3.32,3.32,0,0,1,2.53.4A.44.44,0,0,1,69.43,169.21Z" fill="#4378c4"/><path d="M65.29,197.8l.37-28.38c0-.29.32-.6,1-.92l-.37,28.38C65.61,197.2,65.29,197.51,65.29,197.8Z" fill="#4378c4"/><path d="M63.85,167.24l-.37,28.38a16.2,16.2,0,0,0-3,2.2l.37-28.38A16.2,16.2,0,0,1,63.85,167.24Z" fill="#4378c4"/><path d="M56.67,195.47,57,167.09a.62.62,0,0,0,.24.5,8.12,8.12,0,0,0,3.57,1.84l-.37,28.38A8.12,8.12,0,0,1,56.91,196,.62.62,0,0,1,56.67,195.47Z" fill="#4378c4"/><path d="M109.49,194.06l.37-28.38a.88.88,0,0,0,.19.55,1.3,1.3,0,0,0,.74.48c1,.25,2.1-.25,3.14-.11,1.95.27,1.09,1.84,2.57,2.43,1.62.66,9.4,1.44,11.47,1.28,1.39-.11,2.66-.42,4.05-.52,1-.08,2.15,0,3.18-.17a5.08,5.08,0,0,0,1.56-.43,1.05,1.05,0,0,0,.61-.59L137,197a1.05,1.05,0,0,1-.61.59,5.08,5.08,0,0,1-1.56.43c-1,.13-2.13.09-3.18.17-1.39.11-2.66.42-4.05.52-2.07.16-9.84-.62-11.47-1.28-1.47-.59-.62-2.16-2.57-2.43-1-.15-2.18.36-3.14.11a1.3,1.3,0,0,1-.74-.48A.88.88,0,0,1,109.49,194.06Z" fill="#4378c4"/><path d="M65.78,169.73l-.37,28.38a4.74,4.74,0,0,1-2.94-1l.37-28.38A4.74,4.74,0,0,0,65.78,169.73Z" fill="#4378c4"/><path d="M143.53,171.15l-.37,28.38c0-.64-5.3-2.1-6.17-2.56l.37-28.38C138.23,169.06,143.54,170.51,143.53,171.15Z" fill="#4378c4"/><path d="M145.59,173.26l-.37,28.38a2.9,2.9,0,0,0-1.41-1.74c-.24-.09-.65-.24-.65-.31l.37-28.38c0,.08.41.22.65.31A2.9,2.9,0,0,1,145.59,173.26Z" fill="#4378c4"/><path d="M87.64,167.74l-.37,28.38a36.75,36.75,0,0,1-4.14.85c-1.89.32-3.8.66-5.69,1a3.13,3.13,0,0,0-.84.26,1.67,1.67,0,0,0-.86,1.06,1.54,1.54,0,0,1-.77,1,2.29,2.29,0,0,1-.57.19c-1.3.26-2.48-.55-3.85-.75-1.86-.29-3.78.62-5.66.36l.37-28.38c1.88.26,3.8-.64,5.66-.36,1.37.2,2.55,1,3.85.75a2.29,2.29,0,0,0,.57-.19,1.54,1.54,0,0,0,.77-1,1.67,1.67,0,0,1,.86-1.06,3.13,3.13,0,0,1,.84-.26c1.89-.35,3.8-.68,5.69-1A36.74,36.74,0,0,0,87.64,167.74Z" fill="#4378c4"/><path d="M145,202.13l.37-28.38c0,.22.28.38.68.54a2.24,2.24,0,0,0,1.69-.07c2.9-.85,9-.29,11.63.65,1.81.65,3.39,1.66,5.61,1.71.81,0,1.45,0,1.83.47l-.37,28.38c-.38-.44-1-.45-1.83-.47-2.22,0-3.8-1.06-5.61-1.71-2.64-.94-8.72-1.5-11.63-.65a2.24,2.24,0,0,1-1.69.07C145.26,202.51,145,202.35,145,202.13Z" fill="#4378c4"/><path d="M253.14,207.69l.37-28.38c0-.42.34-.72.84-1a10.94,10.94,0,0,1,1.5-.56,5,5,0,0,0,.75-.31c.38-.19.73-.4,1.11-.6l-.37,28.38c-.38.19-.73.41-1.11.6a5,5,0,0,1-.75.31,10.94,10.94,0,0,0-1.5.56C253.48,207,253.14,207.27,253.14,207.69Z" fill="#4378c4"/><path d="M253.55,179.61,253.18,208c0,.1-.17.23-.34.32a2.35,2.35,0,0,0-1.12,1l.37-28.38a2.35,2.35,0,0,1,1.12-1C253.38,179.84,253.54,179.71,253.55,179.61Z" fill="#4378c4"/><path d="M252.08,180.94l-.37,28.38a2.55,2.55,0,0,1-1.07,1l.37-28.38A2.55,2.55,0,0,0,252.08,180.94Z" fill="#4378c4"/><path d="M165.36,182.72,165,211.1a1.92,1.92,0,0,0-1.77,0l.37-28.38A1.92,1.92,0,0,1,165.36,182.72Z" fill="#4378c4"/><path d="M165.45,182.94l-.37,28.38a.3.3,0,0,0-.1-.22l.37-28.38A.3.3,0,0,1,165.45,182.94Z" fill="#4378c4"/><path d="M162.82,211.92l.37-28.38a1.07,1.07,0,0,1,.4-.84l-.37,28.38A1.07,1.07,0,0,0,162.82,211.92Z" fill="#4378c4"/><path d="M251,181.94l-.37,28.38c-1.47.61-3.59.69-4.74,1.26a1.47,1.47,0,0,0-.7.62c-.15.29-.1.64-.52.85l.37-28.38c.42-.21.37-.56.52-.85a1.47,1.47,0,0,1,.7-.62C247.42,182.62,249.54,182.55,251,181.94Z" fill="#4378c4"/><path d="M150.45,203.26l.37-28.38c0,1.53,3,2.6,4.68,3.76,2.45,1.67,4.72,3.79,7.7,5.18l-.37,28.38c-3-1.4-5.26-3.52-7.7-5.18C153.41,205.86,150.43,204.79,150.45,203.26Z" fill="#4378c4"/><path d="M245,184.67l-.37,28.38a3.13,3.13,0,0,1-.94.19l-5.64.57.37-28.38,5.64-.57A3.13,3.13,0,0,0,245,184.67Z" fill="#4378c4"/><path d="M238.47,185.44l-.37,28.38a4.82,4.82,0,0,0-4.35-.41l.37-28.38A4.82,4.82,0,0,1,238.47,185.44Z" fill="#4378c4"/><path d="M234.12,185l-.37,28.38a8.65,8.65,0,0,0-.83.47l.37-28.38A8.65,8.65,0,0,1,234.12,185Z" fill="#4378c4"/><path d="M233.29,185.5l-.37,28.38a6.83,6.83,0,0,1-.7.41,3.78,3.78,0,0,1-.59.24l.37-28.38a3.78,3.78,0,0,0,.59-.24A6.83,6.83,0,0,0,233.29,185.5Z" fill="#4378c4"/><path d="M219,217.49l.37-28.38c0-.21.25-.41.6-.59a5.36,5.36,0,0,1,1-.35,59.32,59.32,0,0,1,9-1.68,11.12,11.12,0,0,0,2-.34l-.37,28.38a11.12,11.12,0,0,1-2,.34,59.32,59.32,0,0,0-9,1.68,5.36,5.36,0,0,0-1,.35C219.3,217.07,219.05,217.28,219,217.49Z" fill="#4378c4"/><path d="M179.4,197.1,179,225.48h0c-.09-3.62-8-8-12.27-10.78-1-.68-2.17-1.47-2.16-2.28L165,184c0,.81,1.11,1.6,2.16,2.28,4.25,2.76,12.17,7.16,12.27,10.78Z" fill="#4378c4"/><path d="M188.26,227l.37-28.38a.5.5,0,0,1,0-.23l-.37,28.38A.5.5,0,0,0,188.26,227Z" fill="#4378c4"/><path d="M182.4,199,182,227.34a6.45,6.45,0,0,1-3.7-.06l.37-28.38A6.45,6.45,0,0,0,182.4,199Z" fill="#4378c4"/><path d="M220.79,190.2l-.37,28.38c0,.2-.21.41-.42.58a10.89,10.89,0,0,1-2.1,1.34,20.14,20.14,0,0,1-5.69,1.75,30.42,30.42,0,0,0-4.84.86,5,5,0,0,0-.58.25,8.19,8.19,0,0,0-1,.65,7.58,7.58,0,0,1-1,.65,4.66,4.66,0,0,1-.65.27,15.21,15.21,0,0,1-4,.4c-2.8.09-9.42,2.71-11.72,1.47l.37-28.38c2.3,1.24,8.92-1.38,11.72-1.47a15.21,15.21,0,0,0,4-.4,4.66,4.66,0,0,0,.65-.27,7.58,7.58,0,0,0,1-.65,8.19,8.19,0,0,1,1-.65,5,5,0,0,1,.58-.25,30.42,30.42,0,0,1,4.84-.86,20.14,20.14,0,0,0,5.69-1.75,10.89,10.89,0,0,0,2.1-1.34C220.58,190.61,220.78,190.4,220.79,190.2Z" fill="#4378c4"/><path d="M188.63,199.06l-.37,28.38c0,.32,0,.66-.29.78s-.61,0-1.29-.38a4.52,4.52,0,0,1-.92-1,2.18,2.18,0,0,0-1.66-.62,1.9,1.9,0,0,0-.76.19,3.24,3.24,0,0,0-.64.46,3.18,3.18,0,0,1-.65.46L182.4,199a3.18,3.18,0,0,0,.65-.46,3.24,3.24,0,0,1,.64-.46,1.9,1.9,0,0,1,.76-.19,2.18,2.18,0,0,1,1.66.62,4.52,4.52,0,0,0,.92,1c.68.42,1.07.49,1.29.38S188.62,199.38,188.63,199.06Z" fill="#4378c4"/><path d="M96.75,106.72a5.67,5.67,0,0,1,3.13-.56,10.75,10.75,0,0,1,2.48.78c1.61.58,4.15.75,5.44.11a1.85,1.85,0,0,0,.42-.28c.46-.43.47-1,1.13-1.33a5,5,0,0,1,3.25.16,9.09,9.09,0,0,0,2.93.76,8.24,8.24,0,0,0,3.18-.78,5.46,5.46,0,0,1,3.34-.31,6.69,6.69,0,0,0,1.36.53,2.11,2.11,0,0,0,1.3-.22,8.92,8.92,0,0,0,1.14-.78,8,8,0,0,1,5.87-.48c2,.72,4.64,2.43,6.8,1.34a3.61,3.61,0,0,0,.94-.69,1.76,1.76,0,0,0-.13-2.55c-.27-.34-.63-.75-.22-1a2.9,2.9,0,0,1,2.31.06,10.89,10.89,0,0,1,1.43,1.12c2.27,1.57,11.87.74,14.76.08a4.27,4.27,0,0,0,1-.35,9.6,9.6,0,0,0,1.19-.75,8.74,8.74,0,0,1,1.18-.75,4,4,0,0,1,1.55-.43,9.07,9.07,0,0,0,2.52-.22,1.16,1.16,0,0,0,.56-.74,2,2,0,0,1,1.07-1,7,7,0,0,1,1.66-.55,19.2,19.2,0,0,1,5-.33c1.42.1,2.92.83,4.36.41a4.4,4.4,0,0,0,.91-.47,5.62,5.62,0,0,1,.55-.33,10.78,10.78,0,0,1,2.49-.59,5.24,5.24,0,0,0,1.37-.46,5.49,5.49,0,0,0,1.76-1.45,1.56,1.56,0,0,1,.52-.46c1.16-.44,2.44.16,3.54,0a5.64,5.64,0,0,0,1.77-.55,16.85,16.85,0,0,0,1.6-1,7,7,0,0,1,.69-.4,10.52,10.52,0,0,1,2.84-.89c1-.17,1.81-.05,2.21.48,1.73,2.3,2.19,4.62,4.6,6.84,3.4,3.14,9.08,4.71,13.24,7.41,1.87,1.22,1.66,1.86.74,2.32a11.28,11.28,0,0,1-1.66.59,11.44,11.44,0,0,0-1.72.61c-.51.25-.85.56-.84,1s.46,1,.92,1.46a2.14,2.14,0,0,1,.42-.27,3.89,3.89,0,0,1,1-.32,5.87,5.87,0,0,1,1.78,5.5c-.33,1.26.82,1.7,1.9,2.8.77.79.62,1.71.79,2.58a6.35,6.35,0,0,0,4.11,4c1,.4,3.19.73,3.81.42.31-.15.24-.46-.49-1a12.27,12.27,0,0,0-1.4-.64c-1.54-.79-.56-3,1.39-4a4.39,4.39,0,0,1,2.78-.4,7.26,7.26,0,0,1,1.92.72,16.18,16.18,0,0,0,6.83,1.69c1.14,0,2.58,0,3.09.55s-.94,1.47-.13,2.07,2.42.22,3.74.25,2.59.58,4,.75c1,.13,2.12,0,3.09.24,1.31.27,2.09,1,2.16,1.69.16,1.54-2.88,2-3.11,3.13-.18,1,3.23,1,4.37,1.17,1.87.35,2.81.42,3.65,0a3.6,3.6,0,0,0,.68-.45,2.56,2.56,0,0,1,1.23-.14c3.07.61,2.22.69,3.1,1.92a4.76,4.76,0,0,0,3.5,2.37,15,15,0,0,0,5.33,0,18.81,18.81,0,0,0,4.57-1.21c1-.54,1.09-1.32,2-1.76a3,3,0,0,1,.9-.27,3.46,3.46,0,0,1,2.92.92c.48.58.46,1.23.79,1.84a2.83,2.83,0,0,0,2.41,1.3,16.34,16.34,0,0,0-1.35,9.7c4.18.64-1.43,4.75-2.88,5.64-.3.19-.62.37-1,.54a10.16,10.16,0,0,1-2,.76,52.27,52.27,0,0,1-8.29,1.68c-1.37.07-3-.17-4,.31-.39.2-.71.51-1.08.69a1.4,1.4,0,0,1-.93.13c-.59-.11-.65-.51-.51-.81s.39-.63.09-.91c.35.31-2.51,3.24-3.17,3.65-2.3,1.18-5.07,1.11-7.34,1.81a20.36,20.36,0,0,0-3,1.21,8.84,8.84,0,0,0-3.06,2.26c-1.68,2.23-2.31,5.65-1,8,.87,1.57,4.89,4.55,8.71,4.46a9.55,9.55,0,0,1,2.3.28c-.38.19-.73.41-1.11.6a5,5,0,0,1-.75.31,10.94,10.94,0,0,0-1.5.56c-.6.3-1,.67-.8,1.23,0,.11-.15.25-.34.35a2.35,2.35,0,0,0-1.12,1,2.55,2.55,0,0,1-1.07,1c-1.47.61-3.59.69-4.74,1.26a1.47,1.47,0,0,0-.7.62c-.15.29-.1.64-.52.85a3.13,3.13,0,0,1-.94.19l-5.64.57a4.82,4.82,0,0,0-4.35-.41,8.65,8.65,0,0,0-.83.47,6.83,6.83,0,0,1-.7.41,3.78,3.78,0,0,1-.59.24,11.12,11.12,0,0,1-2,.34,59.32,59.32,0,0,0-9,1.68,5.36,5.36,0,0,0-1,.35c-.5.25-.79.55-.46.85s.9.36,1.14.61,0,.57-.32.81a10.89,10.89,0,0,1-2.1,1.34,20.14,20.14,0,0,1-5.69,1.75,30.42,30.42,0,0,0-4.84.86,5,5,0,0,0-.58.25,8.19,8.19,0,0,0-1,.65,7.58,7.58,0,0,1-1,.65,4.66,4.66,0,0,1-.65.27,15.21,15.21,0,0,1-4,.4c-2.8.09-9.42,2.71-11.72,1.47-.12.18.14,1.19-.33,1.42-.22.11-.61,0-1.29-.38a4.52,4.52,0,0,1-.92-1,2.18,2.18,0,0,0-1.66-.62,1.9,1.9,0,0,0-.76.19,3.24,3.24,0,0,0-.64.46,3.18,3.18,0,0,1-.65.46,6.45,6.45,0,0,1-3.7-.06c.48-.2.69-1.66.69-1.81-.09-3.62-8-8-12.27-10.78-1.25-.81-2.62-1.79-2-2.76.18-.27.5-.57.24-.83a1.92,1.92,0,0,0-1.77,0,1.18,1.18,0,0,0-.38,1.13c-3-1.4-5.26-3.52-7.7-5.18-1.82-1.23-5.07-2.36-4.64-4,1.76,1,3.71.35,5.51.38a9.91,9.91,0,0,1,4.05.77,24.29,24.29,0,0,0,2.48,1,9.1,9.1,0,0,0,1.51.17c.23.05.44.13.68.16a3.14,3.14,0,0,0,1.71,0c-.38-.44-1-.45-1.83-.47-2.22,0-3.8-1.06-5.61-1.71-2.64-.94-8.72-1.5-11.63-.65a2.24,2.24,0,0,1-1.69.07c-.57-.23-.91-.46-.5-.87s-.72-1.66-1.35-1.91c-.24-.1-.68-.25-.65-.32.28-.62-5.27-2.13-6.16-2.61a1.05,1.05,0,0,1-.61.59,5.08,5.08,0,0,1-1.56.43c-1,.13-2.13.09-3.18.17-1.39.11-2.66.42-4.05.52-2.07.16-9.84-.62-11.47-1.28-1.47-.59-.62-2.16-2.57-2.43-1-.15-2.18.36-3.14.11a1.3,1.3,0,0,1-.74-.48c-.47-.62,0-1.34.87-1.8a4.61,4.61,0,0,1,1.61-.44,4.71,4.71,0,0,0-2.52.5,4.6,4.6,0,0,0-.81.52,10.72,10.72,0,0,1-2,1.55c-1.41.59-3.37.58-3.93-.07-.36-.42,0-1-.69-1.3a2.79,2.79,0,0,0-2,.06,5,5,0,0,0-1,.7,5.26,5.26,0,0,1-1,.71,3.15,3.15,0,0,1-2.2.19c1.09-.28.93-1.09.72-1.25a5.31,5.31,0,0,0-2,.55,4,4,0,0,0-1.18.87,1,1,0,0,0,.24,1.63A28.56,28.56,0,0,0,90.28,167a1,1,0,0,1-.52.48,3.67,3.67,0,0,1-2.12.26,36.74,36.74,0,0,1-4.14.85c-1.89.32-3.8.66-5.69,1a3.13,3.13,0,0,0-.84.26,1.67,1.67,0,0,0-.86,1.06,1.54,1.54,0,0,1-.77,1,2.29,2.29,0,0,1-.57.19c-1.3.26-2.48-.55-3.85-.75-1.86-.29-3.78.62-5.66.36L69,169.61c.17-.09.35-.19.41-.32s0-.27-.18-.38a3.32,3.32,0,0,0-2.53-.4c-1,.44-1.22.88-.92,1.23a4.74,4.74,0,0,1-2.94-1l4.63-1.43a4.54,4.54,0,0,0-2.83.24c-.19.09-.62-.26-.79-.35a16.2,16.2,0,0,0-3,2.2,8.12,8.12,0,0,1-3.57-1.84c-1.35-1.11,3.27-3.94,4.51-4.75a5.68,5.68,0,0,1,.58-.33,6.68,6.68,0,0,1,3.77-.67c-.74-.12-.55-.66,0-.94.71-.26,1.37-.38,1.8-.59.66-.7,0-1.15-.16-1.62s.47-1,1.26-1.43c.94-.42,1.56-.65,2.09-.91a3.35,3.35,0,0,0,.89-.6c3.22.3,6.42.68,9.64,1a1.91,1.91,0,0,0,.72,0c.8-1,.38-1.81,1-2.53a1.91,1.91,0,0,1,.58-.43,3.27,3.27,0,0,1,1.52-.32,8.46,8.46,0,0,0,1.41.05,2.94,2.94,0,0,0,1.1-.64,1.88,1.88,0,0,1,1.41-.34c-.45-.26-.91-.54-1-.88s.06-.49.37-.65a4.18,4.18,0,0,1,1.41-.09,6.5,6.5,0,0,0,3.33-.67A3.22,3.22,0,0,0,94.93,149c-1-.21-2-.34-3-.48a6.48,6.48,0,0,1-1.58-.36,4.33,4.33,0,0,1-1.06-.79,8.89,8.89,0,0,0-1.62-.94c-3.7-1.85-7.68-1.75-11.5-3.14-1.41-.51-2.34-1.38-4.54-1.24a3.15,3.15,0,0,1,1.59-.86c.81-.19,1.71-.28,2.54-.45a3.32,3.32,0,0,0,.86-.27,2.43,2.43,0,0,0,.86-.76,2.5,2.5,0,0,1,.92-.8,3.11,3.11,0,0,1,2.18-.17,2.44,2.44,0,0,1,.68.43c1.33,1,3.76,1.38,6,1.72-.59-.3-.16-.72.47-1a4.88,4.88,0,0,1,.61-.25c4.12-1.4,8.44-2.67,11.78-4.34.87-.91,1.56-1.86,2.3-2.8.11-.14.09-.3.17-.55-.46.12-.78.19-1.05.28a5,5,0,0,1-3.13.28c-.84-.21-1.74-1.35-1.61-1.87a5.21,5.21,0,0,1,.38-1.58,9.08,9.08,0,0,1,1.54-1.55c.52-.5,1.08-1,1.61-1.47,1.57-1.42,3.69-2.67,3.41-4.4a16.29,16.29,0,0,0-1.36-3.23c-4.19-1.2-5.39-3.88-10-5.06-.27-.07-.47-.2-.29-.33a5.06,5.06,0,0,1,0-1.59,3.15,3.15,0,0,1,.91-1.17c1.08-1,1.81-2.12,3-3.08A4.36,4.36,0,0,1,96.75,106.72Z" fill="#9ac0ff"/><path d="M164.56,162.77l8.28-4.17s2.88-10.7,9.6-14.78c0,0-12,1.08-13.55,5.16S164.56,162.77,164.56,162.77Z" fill="#4d3706"/><path d="M215.66,146c-.59.16,6.72,6.77,7.32,12.62l8.25,3.81,2.55-2.87S224.18,143.7,215.66,146Z" fill="#4d3706"/><path d="M197.93,182.21l7.61-4.22s-6.05-25,6.15-30.09,19.54,14.49,19.54,14.49l7.25-3.76-19-25.83-21.53,14.46Z" fill="#68e1fd"/><polygon points="173.89 129.19 173.89 133.27 197.93 147.26 222.05 132.94 222.05 129.19 197.93 142.83 173.89 129.19" fill="#4d3706"/><polygon points="189.15 99.83 185.98 101.9 185.98 102.9 197.97 109.98 210.37 102.85 210.37 101.9 206.93 100.22 189.15 99.83" fill="#4d3706"/><path d="M198,107.48l9.31-5.39s-5.39-27.35-6-51.59L198,52.42Z" fill="#68e1fd"/><polygon points="173.89 129.19 197.93 115.85 222.05 129.19 197.93 142.83 173.89 129.19" fill="#68e1fd"/><polygon points="181.54 132.1 187.15 129.19 191.1 111.52 188.09 110.87 181.54 132.1" fill="#4d3706"/><path d="M197.93,182.21V147.27l-22.06-13.09-18.39,24.74,7.09,3.85s6.72-19.43,18.59-15.59,9.24,24.59,7.56,30.47Z" fill="#68e1fd"/><path d="M188.78,102.07l9.19,5.41,0-55.07L194.6,50.5S192.94,77.3,188.78,102.07Z" fill="#68e1fd"/><polygon points="197.97 141.09 197.97 109.98 187.36 103.91 176.88 129.19 181.54 132.1 188.86 111.72 193.02 114.05 193.27 138.59 197.97 141.09" fill="#68e1fd"/><g opacity="0.51"><path d="M197.93,182.21V147.27l-22.06-13.09-18.39,24.74,7.09,3.85s6.72-19.43,18.59-15.59,9.24,24.59,7.56,30.47Z" fill="#344e4f"/><path d="M188.78,102.07l9.19,5.41,0-55.07L194.6,50.5S192.94,77.3,188.78,102.07Z" fill="#344e4f"/><polygon points="197.97 141.09 197.97 109.98 187.36 103.91 176.88 129.19 181.54 132.1 188.86 111.72 193.02 114.05 193.27 138.59 197.97 141.09" fill="#344e4f"/></g><polygon points="214.42 132.1 208.81 129.19 204.87 111.52 207.88 110.87 214.42 132.1" fill="#4d3706"/><polygon points="197.97 109.98 208.82 103.91 218.81 129.19 214.4 132.1 207.08 111.64 202.83 113.97 203.42 138.23 197.97 141.09 197.97 109.98" fill="#68e1fd"/><polygon points="194.65 48.43 193.92 48.91 193.92 50.19 198.01 52.42 202.14 50.11 202.14 49.04 198.03 48.16 194.65 48.43" fill="#4d3706"/><polygon points="194.62 46.2 194.62 49.15 197.97 50.81 201.28 49.02 201.28 46.2 194.62 46.2" fill="#68e1fd"/><polygon points="196.56 42.84 193.84 44.65 193.84 45.94 197.93 48.16 202.06 45.85 202.06 44.78 198.61 43.29 196.56 42.84" fill="#4d3706"/><polygon points="200.5 42.51 200.5 44.66 197.96 46.03 195.41 44.76 195.41 42.51 197.95 41.39 200.5 42.51" fill="#68e1fd"/><polygon points="197.97 43.58 198.61 43.29 198.61 34.35 197.95 34.38 197.97 43.58" fill="#4d3706"/><polyline points="197.97 43.58 197.35 43.29 197.35 34.35 197.95 34.38" fill="#4d3706"/><polygon points="155.02 126.71 155.02 149.21 145.84 154.15 145.84 132.03 155.02 126.71" fill="#68e1fd"/><polygon points="155.02 126.71 155.02 149.21 145.84 154.15 145.84 132.03 155.02 126.71" fill="#344e4f" opacity="0.51"/><polygon points="138.11 149.92 140.41 148.79 140.41 142.51 138.11 143.14 138.11 149.92" fill="#344e4f"/><polygon points="127.96 141.47 125.81 142.83 125.25 127.9 127.96 127.35 127.96 141.47" fill="#344e4f"/><polygon points="120.23 137.49 118.13 138.47 117.81 132.94 118.33 131.03 119.77 131.03 120.23 130.46 120.23 137.49" fill="#344e4f"/><path d="M145.85,154.15l-3.18-1.69s.33-8.13-2.54-8.72-2,6.18-2,6.18L135,148V135.54s0-5.86-4.88-6.83-4.3,3.71-4.3,3.71v10.41L122.36,141v-4.55s.13-3.25-1.82-3.9-2.28.39-2.41.91,0,5,0,5L115,136.65V113.94L145.85,132Z" fill="#68e1fd"/><polygon points="157.09 124.7 145.44 131.57 113.25 112.58 124.09 105.21 157.09 124.7" fill="#68e1fd"/><polygon points="145.44 131.57 113.25 112.58 113.25 113.8 145.44 132.79 157.09 126.26 157.09 124.7 145.44 131.57" fill="#68e1fd"/><polygon points="145.44 131.57 113.25 112.58 113.25 113.8 145.44 132.79 157.09 126.26 157.09 124.7 145.44 131.57" fill="#344e4f" opacity="0.51"/><polygon points="154.64 123.56 145.56 128.66 114.64 110.5 124.09 105.21 154.64 123.56" fill="#68e1fd"/><polygon points="145.58 128.65 145.58 130.2 154.64 125.11 154.64 123.56 145.58 128.65" fill="#68e1fd"/><polygon points="114.64 110.5 114.64 111.78 145.58 130.2 145.56 128.66 114.64 110.5" fill="#68e1fd"/><g opacity="0.51"><polygon points="145.58 128.65 145.58 130.2 154.64 125.11 154.64 123.56 145.58 128.65" fill="#344e4f"/><polygon points="114.64 110.5 114.64 111.78 145.58 130.2 145.56 128.66 114.64 110.5" fill="#344e4f"/></g><polygon points="153.78 120.08 145.83 124.55 115.5 106.73 124.16 102.28 153.78 120.08" fill="#68e1fd"/><polygon points="145.84 124.54 145.84 127.56 153.78 123.09 153.78 120.08 145.84 124.54" fill="#68e1fd"/><polygon points="115.5 106.73 115.5 109.98 145.84 127.56 145.83 124.55 115.5 106.73" fill="#68e1fd"/><g opacity="0.51"><polygon points="145.84 124.54 145.84 127.56 153.78 123.09 153.78 120.08 145.84 124.54" fill="#344e4f"/><polygon points="115.5 106.73 115.5 109.98 145.84 127.56 145.83 124.55 115.5 106.73" fill="#344e4f"/></g></svg>