<svg xmlns="http://www.w3.org/2000/svg" xmlns:xlink="http://www.w3.org/1999/xlink" viewBox="0 0 400 300"><defs><linearGradient id="linear-gradient" x1="239.79" y1="190.66" x2="206.99" y2="248.69" gradientUnits="userSpaceOnUse"><stop offset="0" stop-color="#d4a397"/><stop offset="1" stop-color="#fff"/></linearGradient><linearGradient id="linear-gradient-2" x1="128.52" y1="162.4" x2="105.81" y2="202.58" xlink:href="#linear-gradient"/></defs><title>PP</title><g style="isolation:isolate"><g id="Layer_2" data-name="Layer 2"><path d="M194.51,282.6,22,180.65c-5.49-3.08-10.2-8.15-4.85-11.46L190.29,69.41c2.6-1.61,6.54-2.66,9.18-1.13L380.54,173.37c5.49,3.19,6.48,12.1,1,15.29L217.25,282.43A22.94,22.94,0,0,1,194.51,282.6Z" fill="#ef7816"/><path d="M240.5,180.05c-33.7,20.34-66.75,41.75-99.3,63.88,16.64,10.06,33.14,19.27,44.06,25.5,31.78-19,83.2-45.63,115-64.6C289.31,197.75,264,190.59,240.5,180.05Z" fill="url(#linear-gradient)" style="mix-blend-mode:multiply"/><path d="M177.52,181.46C163.31,174.79,133,158,126.7,152.53c-35.29,14.35-35.21,16.65-68.64,35.06-1,.53-5.15,4-6.1,4.52,8.82,9.12,38.82,22.62,55.59,33.15C139.49,203.44,144.49,201.58,177.52,181.46Z" fill="url(#linear-gradient-2)" style="mix-blend-mode:multiply"/><path d="M197.89,219.41l-8.1,8.1c-3.64,3.65,2,9.3,5.66,5.66l8.1-8.1C207.19,221.43,201.54,215.77,197.89,219.41Z" fill="#b27039"/><path d="M319.47,159.2s5.09,25.16-16.08,43.13-35.64,9.59-46.78,12.38-15.41,15.09-38.29,16.77-24.17-18.82-24.17-18.82" fill="#68e1fd"/><path d="M319.47,159.2s5.09,25.16-16.08,43.13-35.64,9.59-46.78,12.38-15.41,15.09-38.29,16.77-24.17-18.82-24.17-18.82" fill="#146666" opacity="0.47"/><path d="M233.45,215.71c3.89-3.15,7.43-6.72,11.66-10,7.68-6,16.57-10.06,25.74-13.2,10.95-3.75,23.45-5,33.54-10.85a47.41,47.41,0,0,0,4.09-2.7c5.74-4.38,10.24-9.73,10.91-16.54,1.27-13-9.46-23.25-20.34-28.26-15.54-7.15-32.66-5.94-45.53,5.76-8.06,7.32-13.55,16.83-20.08,25.42-2.59,3.41-7.86,7.57-13.73,12.23-15.22,12.07-34.5,27.49-21.8,41.86,6.35,7.18,16.72,6,24.79,2.82A40.75,40.75,0,0,0,233.45,215.71Z" fill="#fff4c5"/><path d="M291,147.61c-.76.51-12.24,5.77-15.91,7.79s-9.61,1.05-13.69,1.44c-4.76.46-9.55,2.39-12.53,6.26-3.27,4.25-4,9.92-7.36,14.11-5.33,6.58-17.5,19.26-17.5,19.26s16-13.69,19-15c3.55-1.48,10.06.55,13.72.88,6.6.6,15.84,3,19.83-4.23,3.34-6-1-14.15,4.23-19.44C285.4,154.14,291,147.61,291,147.61Z" fill="#f4e6ab"/><path d="M140.08,59a1.06,1.06,0,0,1,0-.16,154.16,154.16,0,0,0,4.1-24.4c-11.75,8.08-16,23.8-17.22,29.39C132.11,63.93,136.28,61.87,140.08,59Z" fill="#8fbf4b"/><path d="M151.1,49.23a1,1,0,0,1,0-.61,128.56,128.56,0,0,1,7.47-19.35,52,52,0,0,0-5.93,1.26,27.2,27.2,0,0,0-6.27,2.59A157.25,157.25,0,0,1,142.61,57C145.48,54.49,148.22,51.7,151.1,49.23Z" fill="#8fbf4b"/><path d="M156.49,45.29a45.5,45.5,0,0,1,8.79-3.85l7.25-11.68A34.85,34.85,0,0,0,160.9,29a126,126,0,0,0-7.34,18.26A31.19,31.19,0,0,1,156.49,45.29Z" fill="#8fbf4b"/><path d="M190,36.17c-5.78,2.48-12.1,3.77-18.26,5.41l14.89,1.29C190.25,38.32,191,35,191,35l-.52,0A.78.78,0,0,1,190,36.17Z" fill="#8fbf4b"/><path d="M187.87,34.9c-4.12-.66-8.07-3-13.34-4.59l-6.35,10.23C174.74,38.65,181.55,37.42,187.87,34.9Z" fill="#8fbf4b"/><path d="M126.61,65.81v.05s11.86,2.74,31.79-4.61l-16.71-1.1C137.37,63.55,132.65,66.06,126.61,65.81Z" fill="#8fbf4b"/><path d="M155.31,48.44,176.71,52a48.22,48.22,0,0,0,8.4-7.3l-18.59-1.61A42.44,42.44,0,0,0,155.31,48.44Z" fill="#8fbf4b"/><path d="M143.91,58.3l18.83,1.24,1.67-.71a76,76,0,0,0,9.87-5.19L153.1,50.08C149.94,52.62,147,55.61,143.91,58.3Z" fill="#8fbf4b"/><path d="M171.78,41.58c6.16-1.64,12.48-2.93,18.26-5.41a.78.78,0,0,0,.43-1.1,13.44,13.44,0,0,1-2.6-.17c-6.33,2.52-13.13,3.75-19.68,5.64l6.35-10.23q-1-.29-2-.55l-7.25,11.68a45.5,45.5,0,0,0-8.79,3.85,31.19,31.19,0,0,0-2.92,2A126,126,0,0,1,160.9,29c-.77.07-1.57.16-2.39.29A128.56,128.56,0,0,0,151,48.63a1,1,0,0,0,0,.61c-2.88,2.47-5.61,5.25-8.48,7.73a157.25,157.25,0,0,0,3.7-23.84q-1.1.62-2.11,1.32a154.16,154.16,0,0,1-4.1,24.4,1.06,1.06,0,0,0,0,.16c-3.8,2.87-8,4.92-13.1,4.82-.24,1.12-.35,1.82-.37,2,6,.25,10.76-2.26,15.07-5.66l16.71,1.1q2.11-.78,4.34-1.71L143.91,58.3c3.09-2.69,6-5.68,9.19-8.21l21.18,3.56q1.28-.8,2.43-1.61l-21.4-3.59a42.44,42.44,0,0,1,11.21-5.32l18.59,1.61c.58-.64,1.1-1.26,1.57-1.86Z" fill="#719348"/><path d="M161.75,190.13a31.71,31.71,0,0,0,8.72-3.74c12.86-8.07,24.86-20.1,27.27-35.69,1.39-9-.64-18-4.44-26.19-5.8-12.44-16.72-21.1-27.28-29.35A191.51,191.51,0,0,1,150.63,82.3c-5-4.79-8.83-11.38-15.37-14.2-5.9-2.54-13.69-2.61-18.61,2s-7.52,11.7-9.79,18c-5.07,14.05-7.59,29.17-8.7,44-.69,9.16-1.33,18.54.41,27.63C103.87,187.3,137.45,196.62,161.75,190.13Z" fill="#68e1fd"/><path d="M161.75,190.13a31.71,31.71,0,0,0,8.72-3.74,76.91,76.91,0,0,0,14.48-11.59c-8.76,3.22-18.83,3.14-27.95,2.05-12.1-1.45-24.24-4.52-33.44-13-9.35-8.6-15.28-20.74-17.93-33A93,93,0,0,1,107.25,87l-.39,1.08c-5.07,14.05-7.59,29.17-8.7,44-.69,9.16-1.33,18.54.41,27.63C103.87,187.3,137.45,196.62,161.75,190.13Z" fill="#146666" opacity="0.47"/><path d="M190.05,137.58a43.85,43.85,0,0,0-18.89-27c-4.32-2.8-8.9,3.76-4.57,6.57a35.63,35.63,0,0,1,15.6,22C183.37,144.09,191.24,142.61,190.05,137.58Z" fill="#146666" opacity="0.47"/><path d="M162.57,106.59c1.71-4.85-5.83-7.52-7.54-2.66S160.86,111.45,162.57,106.59Z" fill="#146666" opacity="0.47"/><path d="M121.86,54.05a38.43,38.43,0,0,0-.35,19.13c1.16,5,8.88,2.89,7.71-2.13a29.71,29.71,0,0,1,.35-14.88C130.95,51.21,123.23,49.09,121.86,54.05Z" fill="#d0935c"/><path d="M259.57,159.21a18.58,18.58,0,0,0-7.09,5.34,6.75,6.75,0,0,0-2.13,2.43c-1.13,1.54-.91,3.65,1.6,3.64,3.11,0,6.61-1.94,9-3.83,1.14-.92,3.37-2.7,3.51-4.46a2.81,2.81,0,0,0,.22-.49C265.7,158.41,261.65,158.33,259.57,159.21Z" fill="#7f7030"/><path d="M275,171.59c-.73-2.64-4.33-1.62-6.16-1-3.15,1.11-5.78,3.2-8.36,5.26a1.18,1.18,0,0,0-.44,1.36,1.52,1.52,0,0,0,1.28,2.25,18.7,18.7,0,0,0,9.77-2.07C273.09,176.34,275.73,174.23,275,171.59Z" fill="#7f7030"/></g></g></svg>