<svg id="Layer_1" data-name="Layer 1" xmlns="http://www.w3.org/2000/svg" xmlns:xlink="http://www.w3.org/1999/xlink" viewBox="0 0 400 300"><defs><linearGradient id="linear-gradient" x1="51.24" y1="192.16" x2="89.34" y2="171.38" gradientUnits="userSpaceOnUse"><stop offset="0" stop-color="#fff" stop-opacity="0"/><stop offset="0.97" stop-color="#628b50"/></linearGradient><linearGradient id="linear-gradient-2" x1="214.31" y1="227.51" x2="251.2" y2="207.38" xlink:href="#linear-gradient"/><linearGradient id="linear-gradient-3" x1="266.77" y1="195.12" x2="304.14" y2="174.74" xlink:href="#linear-gradient"/></defs><title>61-70</title><polygon points="35 181.67 181.5 265.21 374 150.19 231.14 69.07 35 181.67" fill="#d9e021"/><path d="M118,165.38a.67.67,0,0,1,0-.73c.14-.25-3.62-1-3.48-1.26.18-.62-2.24-.75-2.07-1.37-6.34-2.81-7.64-3.78-12.46-8.44L49.1,181.94,70,193.88l47.66-27.08Q117.85,166.09,118,165.38Z" opacity="0.32" fill="url(#linear-gradient)"/><path d="M278.74,201.11a.67.67,0,0,1,0-.73c.14-.25-3.62-1-3.48-1.26.18-.62-2.24-.75-2.07-1.37-6.34-2.81-7.64-3.78-12.46-8.44l-47.35,30.4,19,10.83,46-28Q278.55,201.81,278.74,201.11Z" opacity="0.32" fill="url(#linear-gradient-2)"/><polyline points="327.16 135.7 172.93 241.8 77.06 191.22 149.34 151.81" fill="#bfbf0c"/><path d="M59,176.16l91.92,53.07s38.67-4.65,79.8-28.11S328.51,134,328.51,134L244,85.08,124.49,155.65S91.45,171.76,59,176.16Z" fill="#68e1fd"/><path d="M69.44,177.7l83.09,48s38.81-7.57,76-28.78,88.39-60.67,88.39-60.67L240.55,92,132.5,155.79S102.63,170.35,69.44,177.7Z" fill="none" stroke="#2e3192" stroke-miterlimit="10"/><path d="M254.4,133.73c-14.89,21.15-39,29.53-63.68,31.91,0-.71,0-1.43,0-2.14s-1.24-.78-1.21,0,0,1.5,0,2.25a187.73,187.73,0,0,1-22.68.55.56.56,0,0,0-.34-.12c-11-.14-17.68-9.44-21.8-18.87a31.33,31.33,0,0,0,4.65,2c6.92,2.39,15.63,3.87,22.85,2.14,4.94-1.18,12.61-6.05,8.3-11.88-2.31-3.12-6.62-4.94-10-6.67a108.78,108.78,0,0,0-14.43-6.16c-.74-.26-1.05.91-.32,1.17,7.3,2.54,15.06,5.68,21.39,10.22,2.51,1.8,4.23,4.14,2.56,7.22-1.15,2.13-3.44,3.44-5.64,4.27a25,25,0,0,1-10.54,1.19,59.8,59.8,0,0,1-11-1.8,29.18,29.18,0,0,1-8.58-3.41c-.62-1.53-1.18-3-1.68-4.51-.29-.85-.55-1.72-.79-2.6,1.55-2.2,4.81-3.91,7-4.61a36,36,0,0,1,10.7-1.25.61.61,0,0,0,0-1.21c-6.13,0-13.84.56-18.1,5.62-2.48-10.25-1.56-22.12,8.21-28.2.66-.41.05-1.46-.61-1-10.54,6.56-11.42,19.52-8.52,30.5-2,3.31-.09,6,2.72,7.92,3.78,9.2,9.84,18.58,19.63,20.7a.58.58,0,0,0,.55.43,202.23,202.23,0,0,0,20.82,0,.58.58,0,0,0-.05.09c-.83,2.48-1.8,12.16,3.48,10.85,1.9-.47,2.33-2.86,2.63-4.45a43.18,43.18,0,0,0,.71-7c25.11-2.41,49.6-11,64.75-32.51C255.9,133.7,254.85,133.1,254.4,133.73ZM141.92,143.89a4,4,0,0,1-1.18-3.72c.13.42.25.84.39,1.26.29.85.6,1.72.93,2.6ZM188.72,174a5.76,5.76,0,0,1-.47,1.68c-1.09,1.91-3.34.35-3.75-1.27a12,12,0,0,1,.53-6.67.52.52,0,0,0,0-.47q2.25-.14,4.49-.34A40.56,40.56,0,0,1,188.72,174Z" fill="#606060"/><path d="M156.1,116.81a3.83,3.83,0,0,0-4.89-.66.6.6,0,0,0-.2.25.53.53,0,0,0-.28.17,3.59,3.59,0,0,0-.26.37l-.11,0h-.81a.61.61,0,0,0,0,1.21H150a3.88,3.88,0,0,0,.76,3.3,3.37,3.37,0,0,0,4.88.29A3.41,3.41,0,0,0,156.1,116.81ZM155,120.68a2.18,2.18,0,0,1-3.32,0,2.58,2.58,0,0,1,0-3.21.62.62,0,0,0,.09-.17.56.56,0,0,0,.14-.06C154.07,115.64,157.14,118.55,155,120.68Z" fill="#606060"/><path d="M172.14,116.11a.61.61,0,0,0,0,1.21A.61.61,0,0,0,172.14,116.11Z" fill="#606060"/><path d="M168.6,168.22c-.28-.72-1.45-.4-1.17.32,1.17,3,1.95,10.25-2,11.52-1.46.47-2-.37-2.9-1.41a14.47,14.47,0,0,1-1.79-2.48,15.38,15.38,0,0,1-1.84-5.55c-.11-.77-1.28-.44-1.17.32a16.17,16.17,0,0,0,3.17,7.64c1.05,1.36,3,3.82,5,3.14s2.82-3.5,3.26-5.21A13.36,13.36,0,0,0,168.6,168.22Z" fill="#606060"/><path d="M236.57,153.63c-.17-.76-1.34-.44-1.17.32a12.64,12.64,0,0,1-2.15,10.26,10.11,10.11,0,0,1-3.7,3.37c-4.2,1.85-4.9-3.91-5.17-6.5-.08-.77-1.29-.78-1.21,0,.25,2.32.72,6.4,2.77,8,1.87,1.43,4.4-.37,5.89-1.58A14,14,0,0,0,236.57,153.63Z" fill="#606060"/><path d="M175.34,120.51c-1.57-2.11-4.61-2.2-7-2-.77.05-.78,1.26,0,1.21a17.76,17.76,0,0,1,2.29,0c-.46,1.74-.74,4,.42,5.52a2.6,2.6,0,0,0,4.15,0A4,4,0,0,0,175.34,120.51Zm-.8,3.5c-.72,1.48-2.4,1.13-2.87-.34a7,7,0,0,1,.19-3.87,5.11,5.11,0,0,1,1.42.52A2.74,2.74,0,0,1,174.54,124Z" fill="#606060"/><path d="M214.92,91.88c-.66.32-1.32.62-2,.94a32.17,32.17,0,0,0-3.13-3.89c-.66-.65-1.19-1.23-2.16-1.19-1.18,0-2.33.92-3.36,1.42l-6.42,3.12-24.63,12c-.66.32-.16,1.25.49,1.08a.59.59,0,0,0,.23.73,12.84,12.84,0,0,0,6.9,2.14.61.61,0,0,0,0-1.21,11.62,11.62,0,0,1-6.28-2l-.07,0,19.7-9.58,9.64-4.69a14.27,14.27,0,0,1,2.68-1.3c1.47-.3,2.14.25,3.17,1.29a23.54,23.54,0,0,1,2.16,2.63q-14.29,6.83-29.17,12.29c-.73.27-.41,1.44.32,1.17q15.09-5.51,29.58-12.47l.27.35q-16.35,9-32.73,18c-.68.37-.07,1.42.61,1Q197.4,104.61,214,95.4a.62.62,0,0,0,.12-1l-.49-.65c.62-.3,1.24-.58,1.86-.88S215.62,91.53,214.92,91.88Z" fill="#619eb0"/><path d="M153.52,139a2.31,2.31,0,0,0-3.59-.29c-.51.58.34,1.44.86.86a1.09,1.09,0,0,1,1.69,0c.42.66-.2,1.44-.87,1.54s-.44,1.28.32,1.17A2.29,2.29,0,0,0,153.52,139Z" fill="#619eb0"/><path d="M161.64,136a.61.61,0,0,0-1.21,0,3.46,3.46,0,0,0,.83,2.11.59.59,0,0,0-.84.53c0,.85-.27,2.24.5,2.84a1.65,1.65,0,0,0,1.93-.08C165,139.76,161.63,137.58,161.64,136Zm.13,4.53c-.23-.08-.13-1.6-.14-1.89,0,0,0,0,0,0l.19.27C162,139,162.74,140.81,161.77,140.49Z" fill="#619eb0"/><path d="M182.09,186.23s7,15.37,16.47,16.35,9.55-27.75,9.55-27.75S187.71,163.65,182.09,186.23Z" fill="#e55757"/><path d="M233.09,152.88s7,15.37,16.47,16.35,9.55-27.75,9.55-27.75S238.71,130.3,233.09,152.88Z" fill="#e55757"/><path d="M138.57,166.37s3.74,16.46,12.82,19.35,15-25.25,15-25.25S148.64,145.4,138.57,166.37Z" fill="#e55757"/><path d="M133.5,157.19c7.81,22.24,33,31.72,55.07,31.34,28.15-.49,56.56-19,69-44.22,11.9-24.06,5.67-51.58-17.35-66.12-34.16-21.58-85.15-2.05-102.17,32.69-6.7,13.68-9.69,31-4.78,45.69Z" fill="#f28f8f"/><path d="M111.38,85a19.59,19.59,0,0,1,2-3,4.44,4.44,0,0,1,1.83-.71c.38.09,0,1.06,0,1.06s3.72-1,4.1-.67-.38,1.59-1.08,2.37-5.63,3.19-5.63,3.19Z" fill="#ffb7a2"/><path d="M118.9,82l2.52-4.47a.31.31,0,0,0-.39-.44l-3.48,1.42a1.2,1.2,0,0,0-.59.52l-2.34,4.15,0,0C116,82.7,117.49,82.43,118.9,82Z" fill="#42342d"/><path d="M106.95,55.89s-4.53-.45-6.89,3.09-7.92,16.6-6.49,17.69,9.18,2.36,13,1.26S110.17,68,110.17,68" fill="#42342d"/><path d="M108.3,147.08s-.25,6.71,1,8.74,7.35,5.45,5.73,6.89-5.43.71-6.71-.86a31.78,31.78,0,0,1-2.26-3.46v2.54s-2.55-1.52-2.55-1.62-.59-15.15-.59-15.15" fill="#42342d"/><path d="M99,149.9s-.25,6.7,1,8.72,7.69,6.66,6.05,8.09-5.43.12-7-1.85a23.14,23.14,0,0,1-2.31-3.69v2.54s-2.57-1.52-2.57-1.61S93.6,147,93.6,147" fill="#42342d"/><path d="M111.17,93.37c.32.84,3.32,50,.16,56.25a15.9,15.9,0,0,1-8.35,1.76L102,155s-7.76,2.41-13.36.07c0,0,2.68-51.2,6.64-60.68" fill="#68e1fd"/><path d="M112.31,83q.11-2,.17-4.06c.08-2.42.57-5.78-1.12-7.8-1.12-1.34-2.94-1.54-4.5-2.09a6,6,0,0,0-2.09-.33,6.91,6.91,0,0,0-1.37.31c-1.68,0-3.88,1.39-5.43,2.13-.77.37-1.17,2.75-1.82,3.31-1.4,3.36-1.72,3.61-1.79,7.28a.73.73,0,0,0-.1.19c-.36,1.13-.16,5.12.13,8.89,0,.07,0,.15,0,.22l0,0c.13,1.72.29,3.39.42,4.7,5.19,2.08,11.07,1.36,16.39-.32.41-.13.6-5.91.67-6.59C112.07,86.89,112.21,85,112.31,83Z" fill="#c64f14"/><path d="M111.47,60.47c.22.12-.85,10.62-5.07,9.64a4.86,4.86,0,0,1-4.1-5.38c.09-.88,2.08-3.11,2.74-4S110.51,60,111.47,60.47Z" fill="#ffb7a2"/><path d="M112.5,59.36c-.55-2.64-5.21-4.66-9.53-2.63-2.69,1.27-5.34,8.58-2.36,10.06s2.22.76,2.22.76a3.6,3.6,0,0,1-.11-.55.49.49,0,0,1,0-.23c0-.06,0-.13,0-.2s0-.1,0-.14A9.22,9.22,0,0,1,105,61.11c1.32-1.32,3.11-1.24,4.82-1a5.4,5.4,0,0,1,1.66.34l-.27,2.73A3.62,3.62,0,0,0,112.5,59.36Z" fill="#42342d"/><path d="M111.49,62.22l-3.9-.31V60.62L106.8,62l-1.14-.28s-1.93,6-2.83,5.87-1.29-3.1-1-4.65,2.19-4.54,5.3-4.55S112.19,59.38,111.49,62.22Z" fill="#42342d"/><path d="M105.92,84.43a37,37,0,0,1-4.59,1c-.5,0-1.1-.13-1.26-.6a1.34,1.34,0,0,1,0-.54,50,50,0,0,1,.79-6.25c.29-1.85.6-4.37-.32-6.1-1.37-2.56-4.06-.14-5.07,1.43-1.67,2.6-1.84,6.26-2,9.26-.4,10.16,2.08,10.59,5.5,10.49s13.87-2.67,14-4.06A14.17,14.17,0,0,0,111.34,84C111,83.3,108.39,83.82,105.92,84.43Z" fill="#af4e23"/><path d="M105.71,105.12q-.77,23.19-3.21,46.28c-.05.48.69.47.74,0q2.43-23.08,3.21-46.28C106.47,104.64,105.72,104.64,105.71,105.12Z" fill="#fff"/><path d="M255.49,164.21s1.57-3,3.77-1.87,3.56,3,6.53,1.87,4.82-7.32,6.8-6.4,3.19,2.52,2.29,5.63-.5,3.81.8,4.22-3.43,5-7.13,4S255.49,164.21,255.49,164.21Z" fill="#f2ae16"/><path d="M258.86,173.81s-9.71,10.37-7.56,21.35,27.21,11.9,30.81,3.43.21-20.12-5.29-24.16c0,0,4.54-4.82,2.67-8.08s-4.91,2.74-6.55,1.89,3.56-10.69-2.12-11.08-4.2,10.11-6.61,9.58-6.78-5.46-8.73-2.53S260.2,170.58,258.86,173.81Z" fill="#ffd008"/><path d="M276.83,174.5s4.54-4.82,2.67-8.08c-.48-.83-1-1.06-1.61-1,1.41,2.48-1.24,5.15-3,7a15.23,15.23,0,0,0-2.27,2.31c-1.54,2.52.11,4.49,1.69,6.44a17.61,17.61,0,0,1,3.61,7c1.77,7.3-1.76,13.5-7.44,16.1,5.43-.36,10.25-2.24,11.68-5.6C285.72,190.19,282.32,178.55,276.83,174.5Z" fill="#f2ae16"/><path d="M275.71,172.59a28.67,28.67,0,0,1-15.86-1.22c-1.82-.66-2.6,2.24-.8,2.89a31.66,31.66,0,0,0,17.46,1.22C278.39,175.1,277.59,172.2,275.71,172.59Z" fill="#c64f14"/><path d="M274.15,189.88c-.36-1.69-2-2.46-3.6-2.62a5.3,5.3,0,0,0-.75,0c0-1.61,0-3.21,0-4.82a5.44,5.44,0,0,1,1.14.24c.69.23,1.08-.83.39-1.06a5.1,5.1,0,0,0-1.53-.2c0-.59,0-1.18,0-1.77s-1.12-.82-1.13-.09,0,1.28,0,1.92c-.36,0-.72.1-1.09.18,0-.57,0-1.14,0-1.71,0-.72-1.14-.82-1.13-.09s0,1.4,0,2.1c-2.57.83-4.68,2.58-3,5a3.63,3.63,0,0,0,3,1.5c0,1.66,0,3.33,0,5-.79-.07-1.57-.17-2.31-.28s-.81,1-.09,1.13,1.46.18,2.4.23c0,.77,0,1.54,0,2.31s1.12.82,1.13.09,0-1.59,0-2.38c.39,0,.79,0,1.18,0,0,1.16,0,2.31.07,3.47,0,.72,1.15.82,1.13.09,0-1.23,0-2.45-.08-3.68C272.54,194,274.77,192.82,274.15,189.88Zm-8.32-2.77q-2.57-.32-.29-3.57a7.92,7.92,0,0,1,.9-.46c0,1.42,0,2.84,0,4.26A2.7,2.7,0,0,1,265.83,187.11Zm1.73-4.47a6,6,0,0,1,1.08-.21c0,1.64,0,3.28,0,4.92-.36,0-.72.08-1.07.09C267.6,185.83,267.58,184.24,267.56,182.64Zm.05,10.85c0-1.68,0-3.36,0-5l1.06-.06c0,1.7.06,3.39.1,5.09C268.39,193.49,268,193.5,267.62,193.49Zm2.28-.15c0-1.65-.07-3.31-.09-5h.37c1.71.12,2.51.46,2.45,2.24S271.61,193,269.9,193.34Z" fill="#4a9e18"/><path d="M169.21,99.93l13.46,5.7h0S199,91,214.48,85.08L200,80.16S182,87.87,169.21,99.93Z" fill="#e55757"/><polygon points="200 80.16 199.61 92.9 203.96 90.23 214.48 85.08 200 80.16" fill="#b23232"/><path d="M241.33,78.4c-10.91-6.89-23.53-9.58-36.21-8.94A54.39,54.39,0,0,1,235,88.84c9.05,11.66,13.32,25.6,10.57,40.26-2.79,14.85-11.24,28.48-21.9,39A72.42,72.42,0,0,1,186,187.73c-1.42.27-2.85.51-4.3.72a75.16,75.16,0,0,0,7.93.29c28.15-.49,56.56-19,69-44.22C270.58,120.45,264.36,92.94,241.33,78.4Z" fill="#e87474"/><path d="M186.24,61.32a26.86,26.86,0,0,1,9.5,2.24c4.78,2.16-9.5,6.06-9.5,6.06" fill="#f2ae16"/><ellipse cx="184.66" cy="77.39" rx="16.24" ry="14.83" transform="translate(51.22 226.66) rotate(-70.94)" fill="#f2ae16"/><ellipse cx="189.1" cy="78.36" rx="16.24" ry="14.83" transform="translate(53.29 231.51) rotate(-70.94)" fill="#ffd008"/><ellipse cx="189.1" cy="78.36" rx="14.23" ry="12.99" transform="translate(53.29 231.51) rotate(-70.94)" fill="none" stroke="#f7931e" stroke-miterlimit="10"/><path d="M195.23,79.62c-.87-1.77-2.75-2.53-4.6-2.82q-.07-2.39-.17-4.79a6,6,0,0,1,1.23.3c1.21.44,1.74-1.5.53-1.93a6.3,6.3,0,0,0-1.86-.33c0-.88-.08-1.77-.13-2.65-.07-1.28-2.07-1.29-2,0,.05.94.09,1.87.14,2.81-2.85.58-5.49,2.6-4.91,5.75.43,2.32,2.65,2.56,4.62,2.66l.59,0q.05,2.27.08,4.55a16.77,16.77,0,0,1-2.57-.72C185,82,184.46,84,185.66,84.4a15.63,15.63,0,0,0,3.11.81c0,.52,0,1,0,1.57a1,1,0,0,0,2,0c0-.48,0-1,0-1.45a6.49,6.49,0,0,0,3.09-.83A3.64,3.64,0,0,0,195.23,79.62Zm-8-3c-1.76-.81-2-2.24-.6-3.46a4.53,4.53,0,0,1,1.88-1q.1,2.3.17,4.59A4,4,0,0,1,187.18,76.59Zm5.67,6.18a3.64,3.64,0,0,1-2.1.6q0-2.27-.08-4.55c.18,0,.35.06.53.11C192.71,79.37,194.94,81.19,192.85,82.77Z" fill="#f7931e"/><path d="M170.89,55.49v2.93a1.5,1.5,0,0,0,3,0V55.49A1.5,1.5,0,0,0,170.89,55.49Z" fill="#f7931e"/><path d="M181.65,44V54.64a1.5,1.5,0,0,0,3,0V44A1.5,1.5,0,0,0,181.65,44Z" fill="#f7931e"/><path d="M192.29,51.34V57a1.5,1.5,0,0,0,3,0V51.34A1.5,1.5,0,0,0,192.29,51.34Z" fill="#f7931e"/><ellipse cx="144.15" cy="135.91" rx="2.66" ry="3.72" fill="#7c5050"/><ellipse cx="169.21" cy="144.16" rx="2.66" ry="3.72" fill="#7c5050"/><ellipse cx="153.12" cy="154.17" rx="9.9" ry="12.5" transform="translate(-56.84 210.16) rotate(-60.13)" fill="#ea7171"/><ellipse cx="150.9" cy="155.82" rx="9.9" ry="12.5" transform="translate(-59.38 209.06) rotate(-60.13)" fill="#f7aaaa"/><circle cx="144.98" cy="154.13" r="2.38" fill="#7c5050"/><circle cx="154.85" cy="157.15" r="2.38" fill="#7c5050"/><path d="M331.78,167.94a.67.67,0,0,1,0-.73c.14-.25-3.62-1-3.48-1.26.18-.62-2.24-.75-2.07-1.37-6.34-2.81-7.64-3.78-12.46-8.44l-47.28,32.31L285,198.55l46.47-29.19Q331.6,168.64,331.78,167.94Z" opacity="0.32" fill="url(#linear-gradient-3)"/><path d="M310.08,130.5s1.57-3,3.77-1.87,3.56,3,6.53,1.87,4.82-7.32,6.8-6.4,3.19,2.52,2.29,5.63-.5,3.81.8,4.22-3.43,5-7.13,4S310.08,130.5,310.08,130.5Z" fill="#f2ae16"/><path d="M313.45,140.1s-9.71,10.37-7.56,21.35,27.21,11.9,30.81,3.43.21-20.12-5.29-24.16c0,0,4.54-4.82,2.67-8.08s-4.91,2.74-6.55,1.89,3.56-10.69-2.12-11.08-4.2,10.11-6.61,9.58-6.78-5.46-8.73-2.53S314.79,136.87,313.45,140.1Z" fill="#ffd008"/><path d="M331.42,140.78s4.54-4.82,2.67-8.08c-.48-.83-1-1.06-1.61-1,1.41,2.48-1.24,5.15-3,7a15.23,15.23,0,0,0-2.27,2.31c-1.54,2.52.11,4.49,1.69,6.44a17.61,17.61,0,0,1,3.61,7c1.77,7.3-1.76,13.5-7.44,16.1,5.43-.36,10.25-2.24,11.68-5.6C340.31,156.48,336.91,144.83,331.42,140.78Z" fill="#f2ae16"/><path d="M330.3,138.88a28.67,28.67,0,0,1-15.86-1.22c-1.82-.66-2.6,2.24-.8,2.89a31.66,31.66,0,0,0,17.46,1.22C333,141.38,332.18,138.49,330.3,138.88Z" fill="#c64f14"/><path d="M328.74,156.16c-.36-1.69-2-2.46-3.6-2.62a5.3,5.3,0,0,0-.75,0c0-1.61,0-3.21,0-4.82a5.44,5.44,0,0,1,1.14.24c.69.23,1.08-.83.39-1.06a5.1,5.1,0,0,0-1.53-.2c0-.59,0-1.18,0-1.77s-1.12-.82-1.13-.09,0,1.28,0,1.92c-.36,0-.72.1-1.09.18,0-.57,0-1.14,0-1.71,0-.72-1.14-.82-1.13-.09s0,1.4,0,2.1c-2.57.83-4.68,2.58-3,5a3.63,3.63,0,0,0,3,1.5c0,1.66,0,3.33,0,5-.79-.07-1.57-.17-2.31-.28s-.81,1-.09,1.13,1.46.18,2.4.23c0,.77,0,1.54,0,2.31s1.12.82,1.13.09,0-1.59,0-2.38c.39,0,.79,0,1.18,0,0,1.16,0,2.31.07,3.47,0,.72,1.15.82,1.13.09,0-1.23,0-2.45-.08-3.68C327.13,160.27,329.36,159.11,328.74,156.16Zm-8.32-2.77q-2.57-.32-.29-3.57a7.92,7.92,0,0,1,.9-.46c0,1.42,0,2.84,0,4.26A2.7,2.7,0,0,1,320.42,153.39Zm1.73-4.47a6,6,0,0,1,1.08-.21c0,1.64,0,3.28,0,4.92-.36,0-.72.08-1.07.09C322.19,152.11,322.17,150.52,322.15,148.92Zm.05,10.85c0-1.68,0-3.36,0-5l1.06-.06c0,1.7.06,3.39.1,5.09C323,159.77,322.59,159.78,322.2,159.77Zm2.28-.15c0-1.65-.07-3.31-.09-5h.37c1.71.12,2.51.46,2.45,2.24S326.2,159.3,324.49,159.62Z" fill="#4a9e18"/></svg>