<svg id="Layer_2" data-name="Layer 2" xmlns="http://www.w3.org/2000/svg" xmlns:xlink="http://www.w3.org/1999/xlink" viewBox="0 0 400 300"><defs><linearGradient id="linear-gradient" x1="115.52" y1="175.02" x2="152.37" y2="112.23" gradientUnits="userSpaceOnUse"><stop offset="0" stop-color="#bfbfbf"/><stop offset="1" stop-color="#6a6a6a"/></linearGradient><linearGradient id="linear-gradient-2" x1="242.19" y1="233.84" x2="286.62" y2="207.68" xlink:href="#linear-gradient"/></defs><title>PP</title><path d="M188.38,283.07,15.88,181.12C10.39,178,5.68,173,11,169.65L184.15,69.88c2.6-1.61,6.54-2.66,9.18-1.13L374.41,173.84c5.49,3.19,6.48,12.1,1,15.29L211.12,282.9A22.94,22.94,0,0,1,188.38,283.07Z" fill="#bfbfbf"/><path d="M225.61,146.67a24.18,24.18,0,0,0-.44-10.31L168.29,89.18,20.69,177c9.54,6.06,66.56,42.1,76.43,47.6L220.27,155C221,152.94,225.17,148.78,225.61,146.67Z" fill="url(#linear-gradient)"/><path d="M288.59,218.88a24.18,24.18,0,0,0-.44-10.31L274.36,199l-65.58,36.83q14.31,9.09,29.12,17.34l48.87-27.89A50.9,50.9,0,0,0,288.59,218.88Z" fill="url(#linear-gradient-2)"/><path d="M48.93,157.69,56.4,145.1c8.19-6.39,28.39-21.44,28.39-21.44,5.84-7.35,21.95-23.41,21.95-23.41,11.44-8.42,54.18-31.2,57.4-31.56S178.55,70.8,180.27,71s7-3.4,7-3.4c15.52,1.28,30.69,14,37.94,19.51a19.52,19.52,0,0,1,7.37,14.13s.77,26.59.32,28-4.75,4.43-4.75,4.43.14-15-10.7-9.67-13.17,23.78-14.17,24.75-54,31.6-65.74,38.39c.11-3.31-.31-6.75-2.82-9.14-2.91-2.78-7.21-2.41-10.67-1a18.67,18.67,0,0,0-8.67,6.87c-3.12,3.84-4.62,8.89-5.37,13.71-.09.6-.42,8.88-.54,8.92-28.59,9.36-60.27-25-60.9-27.64S48.93,157.69,48.93,157.69Z" fill="#151a1e"/><path d="M214.77,105.58c-.51-.09-4.75.45-5.27.4,0,.15-6.42,8-6.28,7.89s.66-.22-3.75,2.65c-3.64,2.38-11.54,1.92-15.39,3.94a3.16,3.16,0,0,1-.36,3.42l-.12.14a2.55,2.55,0,0,1-.06,2.66c-1,1.56,0,1.21-1.53,2.31s-5.24,3.78-6.86,4.64c-2.54,1.35-4.83-1.41-4.12-3.47a81.7,81.7,0,0,0-10.32,6.43c-3.26,2.46-6.27,5-9.92,6.74-3.38,4.33-7.87,6-10.79,10.6l.6,31.38c16-9.25,61.75-35.76,62.58-36.56,1-1,3.33-19.44,14.17-24.75.34-.17.66-.31,1-.43C217.11,117.38,217.9,111.08,214.77,105.58Z" fill="#fff"/><path d="M71.43,182.39c10.69,6.78,21.68,9.75,40.3,7.27-.33,1.32-1.56,6.56-1.77,7.88-.09.6-.42,8.88-.54,8.92-28.59,9.36-60.27-25-60.9-27.64-.58-2.48.25-18.35.38-20.8C54,168.64,55.3,172.16,71.43,182.39Z" fill="#2e2e75" opacity="0.33"/><path d="M59.32,176.14s-.16,4.3-.08,4.37a59.92,59.92,0,0,0,16.55,10.08l.08-4.18S66,181.58,59.32,176.14Z" fill="#68e1fd"/><path d="M110.54,101.32c-2.22-2.12-22,19.92-23.29,22.88s-3.08,4.88,1,9.44,27.31,18.15,31.93,19.29,7.11,3.57,13.34-2.14,15.71-24.37,15.71-24.37S121.84,112.15,110.54,101.32Z" fill="#68e1fd"/><path d="M88.56,119.69s-4.39-3.71-7.34-2.37,3.57,6.34,3.57,6.34Z" fill="#1f1971"/><ellipse cx="217.1" cy="140.25" rx="18.3" ry="12.23" transform="translate(-3.67 274.66) rotate(-64.2)" fill="#3f4549"/><ellipse cx="218.31" cy="140.33" rx="9.95" ry="6.65" transform="translate(-3.05 275.79) rotate(-64.2)" fill="#ddd"/><path d="M84.51,186.73a5.47,5.47,0,0,1-2.19-1.25c-1.16-1.23-.35-2.82.53-3.94a5.85,5.85,0,0,1,3.42-2.08,75.92,75.92,0,0,1,8.19-1.65c1.84-.27,3.69-.49,5.54-.63a21.58,21.58,0,0,1,6,.07c2.08.44,1.59,3.13.86,4.52a14.09,14.09,0,0,1-5.61,5.23A12.73,12.73,0,0,1,96,188.62a24.43,24.43,0,0,1-5.87-.45,32.4,32.4,0,0,1-4.23-1C85.47,187,85,186.89,84.51,186.73Z" fill="#68e1fd"/><path d="M48.93,157.69s3.46,6.79,5.5,8.51,3,.56,3.27-1.17-1-19.92-1.31-19.93S51.08,147.58,48.93,157.69Z" fill="#68e1fd"/><path d="M61.76,163.41c.61.29,1.29.87,1.77,1.16q5.18,3.14,10.31,6.34l5.14,3.2c1.13.7,3.63,1.55,2.51,3.22a21.8,21.8,0,0,1-4.28,4.51c-1.16,1-2,1.26-3.43.45-2.51-1.47-5-2.91-7.53-4.41-1.93-1.16-4.13-2.57-4.74-4.9a43.31,43.31,0,0,1-1.3-7.4c-.07-.83-.21-2.57,1.06-2.34A1.91,1.91,0,0,1,61.76,163.41Z" fill="#68e1fd"/><path d="M92.72,199.38a2.12,2.12,0,0,1,1.52,2c0,2.12-1.94,2-3.43,2.08-1.86.07-18.57-5.59-29.44-14.09S48.63,173.6,48.63,173.6l.1-5.57s2.67,11.57,16.92,20.06a104.61,104.61,0,0,0,18.51,8.67c2,.71,4,1.36,6.07,1.93A19.87,19.87,0,0,1,92.72,199.38Z" fill="#68e1fd"/><path d="M203.87,94.43l11.85.73s1.71.64.7-2.22S204,78.39,188.69,74.86c0,0-21.13-3.66-17.22-2.15C173.7,73.56,190.92,81.7,203.87,94.43Z" fill="#68e1fd"/><path d="M203.21,113.86c3.87-2.74,7.75-5.47,11.55-8.29a19.71,19.71,0,0,0-6.93-2.27,35.66,35.66,0,0,0-4.42,0Z" fill="#68e1fd"/><path d="M177.14,111a72.34,72.34,0,0,0-22.29,16.75A84,84,0,0,0,140,152.67a1.73,1.73,0,0,0,2.53,2.1c6.62-4.13,19.74-12.35,29.19-18.42l2.37-1.53v-.17l2.65-1.89Z" fill="#68e1fd"/><path d="M199.71,103.65a61.39,61.39,0,0,0-10.2,2.34c-2.39.76-4.77,1.64-7.13,2.62L182,129l16.61-11.88.85-.6Z" fill="#68e1fd"/><ellipse cx="123.92" cy="192.9" rx="18.93" ry="12.34" transform="translate(-103.69 220.5) rotate(-64.2)" fill="#3f4549"/><ellipse cx="125.03" cy="192.92" rx="10.29" ry="6.71" transform="translate(-103.07 221.5) rotate(-64.2)" fill="#ddd"/><path d="M158,115.92s6.94-3.24,7.5-3.91-.5-5.34-.5-5.34S155.68,105.31,158,115.92Z" fill="#af3e20"/><path d="M151.76,97.79a3.08,3.08,0,0,1-.57.18,12.57,12.57,0,0,0-6.53,3.35,15.85,15.85,0,0,0-2.81,4.19L158,115.92a20.79,20.79,0,0,1,.45-5.14c.54-1.54,6.54-4.11,6.54-4.11Z" fill="#ff4a0e"/><path d="M139.77,98.33a16.84,16.84,0,0,1,6-4.52l-11-7.38s-6.45,2.87-7.52,3.76-2,4.66-2,4.66l11.81,7.6A20.75,20.75,0,0,1,139.77,98.33Z" fill="#1ca3ff"/><path d="M147,103.26a14.78,14.78,0,0,1,6.85-4.07l-8.36-5.59c-2.53.68-5.49,1.18-7.58,2.81-1.62,1.27-1.92,3.23-2.08,5.23l9.74,6.27A6.06,6.06,0,0,1,147,103.26Z" fill="#fff"/><path d="M157.89,152.76c.68.23,1.15,1,1.19,2.16a6.48,6.48,0,0,1-.87,3.41,8.84,8.84,0,0,1-3.32,3.18,7.24,7.24,0,0,1-.8.41l.13,4.31-2.32,1.32-.36-11.9a27.78,27.78,0,0,1,3.16-2.05C156.14,152.78,157.18,152.51,157.89,152.76Zm-3.08,6.67a3.55,3.55,0,0,0,1.95-3.12c0-1.11-.71-1.4-1.88-.73a5.69,5.69,0,0,0-1,.66l.11,3.55a3.85,3.85,0,0,0,.79-.37" fill="#151a1e"/><path d="M165,147.6c3.18-1.82,5,0,5.1,3.3a10.26,10.26,0,0,1-4.89,9.25c-3.07,1.75-4.95.08-5.05-3.35A10.49,10.49,0,0,1,165,147.6Zm.27,10.31c1.58-.9,2.43-3.17,2.36-5.51-.07-2.17-1-3.52-2.63-2.6s-2.45,3.18-2.38,5.53,1.08,3.48,2.65,2.58" fill="#151a1e"/><polygon points="173.83 142.76 174.12 152.53 178.24 150.18 178.31 152.47 171.84 156.17 171.48 144.1 173.83 142.76" fill="#151a1e"/><polygon points="181.68 138.28 182.04 150.34 179.69 151.68 179.33 139.62 181.68 138.28" fill="#151a1e"/><path d="M188.88,134a5.82,5.82,0,0,1,2.56-.92l-.41,2.44a4.79,4.79,0,0,0-2,.67,6.45,6.45,0,0,0-3.18,5.87c.07,2.42,1.35,3.24,3.43,2a9.3,9.3,0,0,0,1.94-1.5l.42,1.93a10.74,10.74,0,0,1-2.64,2c-3.58,2-5.5.5-5.6-2.94A11,11,0,0,1,188.88,134Z" fill="#151a1e"/><polygon points="199.24 128.25 199.31 130.49 195.27 132.8 195.34 135.3 199.15 133.12 199.22 135.34 195.41 137.52 195.5 140.38 199.75 137.95 199.82 140.19 193.22 143.96 192.85 131.9 199.24 128.25" fill="#151a1e"/><path d="M259.81,113.33s1,10.95,1.36,11.8,4.53,3.31,4.53,3.31l.7-14.25S261.49,111,259.81,113.33Z" fill="#4f5555"/><path d="M292.8,201.89c-.15-3.15-.36-5.62-.36-5.62l-10.44.88a41.42,41.42,0,0,1,1,12.29c-.39,4-2.39,8-2.35,11.8a5.42,5.42,0,0,0,2.92,4.08c4.54,1.93,7.47-4.85,8.68-10.1C292.16,210.78,292.53,206.34,292.8,201.89Z" fill="#33302f"/><path d="M268.78,194.16s-1.1,5.66-3.3,8.24-12.49,5.11-9.38,9.1,13.71-3.3,17.77-4.37a21.27,21.27,0,0,0,6.72-3L279,195.29" fill="#33302f"/><path d="M265.16,114.19s1.29,35.73,1.79,41.94S268,194.75,268,194.75s3.59,2.66,11.29.92c0,0,1.68-28.18,1.43-33.4s5.12-43.84,4.38-43.75S265.16,114.19,265.16,114.19Z" fill="#14333e"/><path d="M280.76,202.57a14.44,14.44,0,0,0,11.72.43c.29-4.21,1.48-23.53-.06-40.91,0,0,2-42.51-1.24-46.24s-23.12,0-23.12,0,7.71,32.81,8.45,36.79,4,15.66,4.23,22.37C280.93,180.25,280.82,195.93,280.76,202.57Z" fill="#20404d"/><path d="M310.33,101.75A50.07,50.07,0,0,0,298.89,84c-3.92-3.93-8-8.15-13.6-9.38a60.45,60.45,0,0,0-10-.84c-7-.34-9.85,3.88-10.59,6.84s0,33.8,0,33.8,3.54,3.25,10.59,3.69a64.5,64.5,0,0,0,14.06-.89s.3-6.49.3-9.45,4.13-7.38,4.13-8,5,3.54,5,3.54c-1.9,2.37-4.69,7.51-5.26,11.2,1.36,1.43,1.2,3.11,2.71,4.38,6.76-5.52,11.95-10.32,13.58-12.78A4.89,4.89,0,0,0,310.33,101.75Z" fill="#1f404a"/><path d="M280.62,75a.59.59,0,0,1-.2-.8l.31-.47a.61.61,0,0,1,.05-.31,2.93,2.93,0,0,1,.91-1.11l0-2.53-8.13,1.86v6.16a5.82,5.82,0,0,0,6.61-1.13.47.47,0,0,1,0-.45Z" fill="#ffb92c"/><path d="M280.79,73.38a2.89,2.89,0,0,1,1.11-1.26c0-1.61-.14-3.81-.14-3.81l-8.2,5.47v2.09s4.64-1.22,6.93-1.79l.26-.39A.61.61,0,0,1,280.79,73.38Z" fill="#dd920e"/><path d="M280.4,62.9l.88.06a.52.52,0,0,1-.07,1l-.88-.06A.52.52,0,0,1,280.4,62.9Z" fill="#1c5028"/><path d="M269.36,59.86s.07,13,3.29,13.8,6.82-2.4,8.07-4S285,62,284,60.43,271.34,57.62,269.36,59.86Z" fill="#ffb92c"/><path d="M286.42,56.35a3.75,3.75,0,0,0-.56-.22,3.86,3.86,0,0,0-.58-.12,3.38,3.38,0,0,0-.08-1.26A4,4,0,0,0,282,51.87a4.76,4.76,0,0,0-3.77,1,4,4,0,0,0-.82-.67,5.34,5.34,0,0,0-5.59.07,5.07,5.07,0,0,0-1.87,2.49,35.74,35.74,0,0,0-.88,7.8,11.88,11.88,0,0,0,5.12-1.16c2,.15,4.15.52,4.84,2.64h0a9.83,9.83,0,0,1,.55,1.24,1.88,1.88,0,0,1,2.92-.45c.81.83-1,3.53-1.72,4.51a3.43,3.43,0,0,0,.31,1.81,3,3,0,0,0,.65.8l.09,0a32.56,32.56,0,0,0,4-8.38A22.32,22.32,0,0,0,286.42,56.35Z" fill="#1c5028"/><path d="M286.36,59.2l-16.67-7.27.12,5.24s6.09,4.58,9.32,3.85S286.36,59.2,286.36,59.2Z" fill="#1a2d33"/><path d="M269.81,57.17l.06-1.3s4.85,4.49,16.67,3.17l0,1.15s-12.67.55-13,.63S269.81,57.17,269.81,57.17Z" fill="#caccce"/><path d="M286.39,62.41s-9.9,1.9-15.88.6c-4.22-.91-4.54-4.28-2.09-5.37l1.38-.48a19.06,19.06,0,0,0,10.34,3.36c5.92,0,6.34-.34,6.34-.34Z" fill="#223f4d"/><ellipse cx="272.89" cy="55.15" rx="1.77" ry="1.23" transform="translate(206.15 325.44) rotate(-87.55)" fill="#b3bdc3"/><path d="M286.54,59s-21.12-6.11-18.78-9.63,8.28-.89,13,.56,11.45,6.89,10.07,8.56S286.54,59,286.54,59Z" fill="#3b5967"/><path d="M279.86,64.34l-2.79.39-.56-.09q-3.63-1-7.29-1.83a.43.43,0,0,0-.53.33l-.13,0a4.45,4.45,0,0,0-.24,1.49c0,1.5.67,2.72,1.49,2.72a1.05,1.05,0,0,0,.76-.39,3.13,3.13,0,0,0-.15.88c0,1,.78.92,1.42,1.36.46.32.9-.44.44-.75-.19-.13-.55-.18-.7-.32-.37-.33-.16-.88-.07-1.26l.6-2.4.64.16a4.16,4.16,0,0,0-.2,1.27c0,1.78,1.07,3.23,2.38,3.23s2.38-1.44,2.38-3.23c0-.1,0-.19,0-.29l2.8-.39C280.64,65.11,280.4,64.27,279.86,64.34Z" fill="#1a2d33"/><polygon points="281.82 71.94 277.63 76.49 273.55 86.04 273.55 77.76 273.55 73.79 272.01 74.02 272.53 78.31 269.72 79.86 272.59 93.52 280.4 81.61 279.27 79.36 281.82 71.94" fill="#305d68"/><path d="M279.27,79.36c.18-.53,3-4.83,3-4.83l-.58-2.27" fill="#305d68"/><path d="M284.38,94.88c.15-.33.31-.66.48-1,0-.22,0-.36,0-.36l-6.31-.76a10.15,10.15,0,0,1,.57,1.28Q281.74,94.46,284.38,94.88Z" fill="#ffb92c"/><path d="M283.82,96.89a4.86,4.86,0,0,1,.2-1l-4.64-.72a4.33,4.33,0,0,1,.06.74,5.1,5.1,0,0,1-.63,2.07c.19.67.89,2.65,2.37,2.8,1.23.12,2.32-.88,3-1.84A6.09,6.09,0,0,1,283.82,96.89Z" fill="#ffb92c"/><polygon points="298.35 89.59 299.55 90.22 300.75 89.59 300.53 90.93 301.5 91.88 300.15 92.07 299.56 93.29 298.95 92.07 297.61 91.88 298.58 90.93 298.35 89.59" fill="#ffb92c"/><path d="M296.15,91.75s4.15-3.91,4-3.91-.78-.89-.78-.89l-4,3.84Z" fill="#ffb92c"/><circle cx="278.52" cy="81.18" r="0.75" fill="#ffb92c"/><ellipse cx="271.07" cy="80.71" rx="0.52" ry="0.68" fill="#ffb92c"/><polygon points="270.3 90.62 265.46 88.34 265.46 89.97 270.3 92.22 270.3 90.62" fill="#ffb92c"/><path d="M264.62,105.93A7,7,0,0,0,260.7,109a15.87,15.87,0,0,0-.89,4.29h1.75s1.37-.54,1.37,1.07-.18,4.37.62,4.55,1.61-5.8,1.61-5.8Z" fill="#ffb92c"/><path d="M284.78,116.1s-15.17,1.16-19.63-2.95l.18,5.8s13.35,5,25.12,1.51l.73-4.62Z" fill="#555e60"/><path d="M293.8,114.24c-.31,0-2-.1-4,0s-5.6,1-5,1.87,2.18.62,3.52.52,2.07-.1,1.45.93a9.66,9.66,0,0,1-2.9,3.21c-1,.52-2.22.83-2.14,1.76s3.49,1.66,6.5.83,3.42-3.21,5.91-5.18Z" fill="#ffb92c"/><path d="M267.67,115.1v4.47a.74.74,0,0,0,.47.69,17.65,17.65,0,0,0,6,1,.75.75,0,0,0,.74-.75v-4.12a.74.74,0,0,0-.74-.74,13.52,13.52,0,0,1-5.46-1.23A.75.75,0,0,0,267.67,115.1Z" fill="#d1d1d1"/><path d="M260,223.86c-2.33-.85-5.78-.76-8.29-.9-4-.22-7.92-.27-11.88-.15-6.41.18-18.59,1.47-19.64-5.1-1.53-9.49,20.83-9.86,21.18-19.35.1-2.79-2.4-5.34-6.57-5.12-5,.27-9.42,3.69-12.56,6.14-4.44,3.47-8.52,7-13.78,9.88A74.4,74.4,0,0,1,191.28,216c-2.75.7-6.17,1.72-9.13,1.75-5.27.05-5.57-5.05-5.3-7.84.45-4.67,3.17-9.08,3.62-13.75.24-2.51-.63-6.07-4.34-7.16a7.36,7.36,0,0,0-9,4.78c-1.83,5.54-2.18,11.51-3.2,17.15l-3.23,17.93c-.12.65,1.31.64,1.43,0l5.5-30.54c.43-2.4.47-5.56,3-7.42,4.42-3.24,8.08.79,8.38,3.73.46,4.49-2.44,9-3.34,13.44-.61,3-.87,7.37,2.26,9.76,2.78,2.13,8.35.38,11.53-.35a72.25,72.25,0,0,0,27.91-12.63c4.25-3.27,8.06-7.29,13.6-9.54,2.28-.92,5.24-1.63,7.33-.07a3.67,3.67,0,0,1,1.32,4.46c-1,2.73-4,4.7-7.14,6.23-6.1,3-19,8.34-12.14,14.9,3,2.84,8.32,3.37,12.94,3.27,7.11-.15,14.06-.46,21.17.08,2.15.16,3.88.07,5.3,1.32,1,.9,1.15,1.32.36,2.4a6,6,0,0,1-2.11,1.57c-2.66,1.28-6.08,1.59-9.19,1.8A86.15,86.15,0,0,1,228,230.08c-3.2-.58-6.35-1.5-9.67-1.67a31.72,31.72,0,0,0-9.95,1.31c-4.14,1.13-10,2.33-10.12,6.1-.07,2.31,1,4.8,1.51,7.06.44,1.89.69,4,2.28,5.6,1.8,1.83,5,3,7.52,4.15l9.4,4.42c-3.74,5-12.84,1.07-17.66-.89-5.43-2.21-12.5-4-14.22-8.68-1.07-2.95-.8-6.52-4.16-8.78-1.75-1.18-6.06-2.28-7.95-.62-1.29,1.14-1.57,3.19-2.6,4.52a21.06,21.06,0,0,1-5.36,4.89c-5.46,3.48-13,2.47-18.34-.66-4.79-2.79-7.19-7.35-5.3-11.66,2-4.63,9-7.18,15.43-5.65.87.21,1.25-.78.38-1-8.12-1.93-16.45,2-17.69,8-1.32,6.33,4.95,11.88,13.2,13.69,9.73,2.13,17-3.25,20.39-9.32.58-1,1.1-2.37,3-2.59,2.32-.27,4.57,1.5,5.44,2.76,1.28,1.85,1.4,3.93,2,5.92,1,3.34,3.25,5.2,7.31,6.88,6.19,2.56,22.63,11.5,27.74,3.27.16-.26.1-.53-.26-.7l-8.87-4.17c-3.56-1.67-7.94-3.08-9.32-6.19-1-2.16-1.19-4.56-1.7-6.79-.46-2-1.28-4.14.66-5.87,1-.91,3.52-1.45,5-1.91a37.22,37.22,0,0,1,11.07-2.12c4.24,0,8.32,1.34,12.42,2a88.38,88.38,0,0,0,19.37.88c4.09-.27,9.27-.75,12-3.26C262.57,227.35,262.88,224.91,260,223.86Z" fill="#fff"/></svg>