<svg id="Layer_1" data-name="Layer 1" xmlns="http://www.w3.org/2000/svg" xmlns:xlink="http://www.w3.org/1999/xlink" viewBox="0 0 400 300"><defs><linearGradient id="linear-gradient" x1="167.75" y1="221.66" x2="181.66" y2="201.88" gradientUnits="userSpaceOnUse"><stop offset="0" stop-color="#fff" stop-opacity="0"/><stop offset="1" stop-color="#d43500"/></linearGradient><linearGradient id="linear-gradient-2" x1="93.36" y1="213.23" x2="109.13" y2="190.8" xlink:href="#linear-gradient"/><linearGradient id="linear-gradient-3" x1="237.85" y1="236.41" x2="265.78" y2="196.68" xlink:href="#linear-gradient"/></defs><title>-</title><ellipse cx="206.64" cy="201.29" rx="146.75" ry="66.5" fill="#fff3e7"/><polyline points="199.03 192.29 142.32 213.97 167.19 224.39 205.29 206.92 212.54 201.82 201.79 195.09" opacity="0.32" fill="url(#linear-gradient)"/><path d="M200.81,78.24s-2.06,7.63-1.7,8.12,6.12,2.22,10.56-.29" fill="#475ba2"/><polyline points="144.46 190.92 93.45 223.83 64.23 204.3 109.65 175.39" opacity="0.32" fill="url(#linear-gradient-2)"/><path d="M301.44,141.81l8,41.77s-1.41,3.34-4,2.22l-7.14-40.5" fill="#475ba2"/><path d="M286.69,179.51c.09.93,4.29,47.76,4.29,47.76a3,3,0,0,1-4.12,0l-4.52-52.5" fill="#475ba2"/><path d="M256.33,162.91l-17.8,35.73s-.28,1.91,3.26,1.31l19.39-38.74" fill="#475ba2"/><path d="M267.9,64.23l41.43,23.45a3.7,3.7,0,0,1,1.83,3.78l-13.63,88.67a3.7,3.7,0,0,1-5.42,2.68l-42.48-23.19a3.7,3.7,0,0,1-1.88-3.85l14.69-88.93A3.7,3.7,0,0,1,267.9,64.23Z" fill="#475ba2"/><path d="M264.84,65.5,306.27,89a3.7,3.7,0,0,1,1.83,3.78L294.47,181.4a3.7,3.7,0,0,1-5.42,2.68l-42.48-23.19a3.7,3.7,0,0,1-1.88-3.85l14.69-88.93A3.7,3.7,0,0,1,264.84,65.5Z" fill="#68e1fd"/><path d="M121.17,132.55l-9.52,46s-1.94,2-2.45-.47l8-46.28" fill="#d87f1e"/><path d="M90.8,152.86l-9.52,46s-1.94,2-2.45-.47l8-46.28" fill="#d87f1e"/><path d="M132.4,145c.09.2,12.32,44.73,12.32,44.73s.48,1.22-2.59,1.49l-12.9-43.11" fill="#d87f1e"/><path d="M100.4,160.8c-.3.52.69,47.59.69,47.59s1.26,2.16,2.57,0l.69-49.88" fill="#d87f1e"/><path d="M87.3,148.66a51,51,0,0,1,11.76,7.62A336.19,336.19,0,0,1,135,146c.61-.14.87.69.26.83a336.24,336.24,0,0,0-35.76,10.27.52.52,0,0,1-.59.21l-.92.33.83,4.83c.09.54-.85.78-.94.23L97,157.92l-1.93.69a.44.44,0,1,1-.26-.83l3.23-1.15A50.22,50.22,0,0,0,86.8,149.4C86.25,149.14,86.74,148.4,87.3,148.66Z" fill="#659ac6"/><path d="M85.73,150.23l5,5.55c.38.43-.3,1-.69.61l-5-5.55C84.65,150.41,85.34,149.8,85.73,150.23Z" fill="#659ac6"/><polyline points="140.66 141.15 140.66 147.5 100.81 167.74 78.83 156.54 78.83 151.35" fill="#ff9b0d"/><path d="M100.8,162l-22-10.72,39.07-21.56s22.46,11.62,22.76,11.44Z" fill="#ffc358"/><path d="M118.05,131.21s1.67,14.36-5.93,17.14-11.67-4.45-11.78-17.14" fill="#68e1fd"/><ellipse cx="109.2" cy="131.21" rx="8.86" ry="5.12" fill="#06577a"/><path d="M109.2,131.21s0-19.9,9.49-28c0,0,5.06,3.23,3.79,8.19s-6.72,1.27-7.66,3.87,1.87,3.36,0,6S109.2,126.09,109.2,131.21Z" fill="#8ccc00"/><path d="M107.27,129.53s.78-23.07-4-29.92-7.92,2.56-5.77,6.75,5.91,3.15,4.57,6.75-3.69,5.49-1,7S107.47,126.59,107.27,129.53Z" fill="#8ccc00"/><path d="M189.13,89.91V85.47s1.69-4.2,1.11-4.61-2.16,2.62-2.16,2.62-2.57-5.59-3.27-5.65-3.09,3.15-3.09,4.49,2,4.24,2.51,5A40,40,0,0,1,186,92.59" fill="#fdba45"/><path d="M202.78,87.14s-6.78,12.86-8,12.52-5.22-10.84-5.22-10.84a61.61,61.61,0,0,0-5.67,3.34c-.67.66,3.22,19.44,12.2,18.72s11.64-9,11.64-9" fill="#ea8518"/><path d="M204.15,119.93c-.73-.42-1.48-.82-2.21-1.2-3.06,5.51-4.77,11.44-6.29,17.51-.23,2.1-.43,4.21-.6,6.31-1,12.79,1.09,32.2,1.42,45,.05,2.09,1.2,1.82,4.46,0C209.09,156,199.46,157.71,204.15,119.93Z" fill="#fdba45"/><path d="M196.22,181.71s.47,7.84-.31,9.08a44.85,44.85,0,0,1-6.76,6.21c-.95.54-2,1.76-1.63,2.48s3.83,2.59,6.58,2.34,3.47-3.71,5-4.05,2.93-.31,3.51-1.87-2-8.92-.92-12.82S196.22,181.71,196.22,181.71Z" fill="#fdba45"/><path d="M195.17,196.35c-1.39.46-3.76.75-4.75-.34a12.38,12.38,0,0,1-1.27,1c-.95.54-2,1.76-1.63,2.48s3.83,2.59,6.58,2.34,3.47-3.71,5-4.05,2.93-.31,3.51-1.87c.25-.67-.08-2.42-.46-4.5A16.77,16.77,0,0,1,195.17,196.35Z" fill="#475ba2"/><path d="M214.36,125.28c-2.84-1.63-6.17-3.1-6.17-3.1-1.45,3.68-1,8.5-1.51,12.34-.55,4.46-1.07,8.92-1.42,13.39-1,12.79,1.09,32.2,1.42,45,.05,2.09,1.2,1.82,4.46,0C219.3,161.31,209.68,163.06,214.36,125.28Z" fill="#fdba45"/><path d="M228.24,99.79c-2.07,1.93-4.95,6.86-4.95,6.86S221.15,100,220,95.94,209.5,85.18,209.5,85.18s-4.34,1-6.72,2c-1.65.64-2.34,2.78-2.94,4.27-1,2.52-2.93,5.11-2.87,8a44.88,44.88,0,0,0,.69,6.2c.5,3.13,1.12,6.24,1.82,9.34,0,0,8.88.7,12.74.15l.82-8.14s5.08,10.63,8.79,11.62c3.14.84,8.66-8.82,10.47-12.64A12.92,12.92,0,0,0,228.24,99.79Z" fill="#ff9a22"/><line x1="209.67" y1="110.88" x2="196.08" y2="104.01" fill="#ff9a22"/><line x1="172.79" y1="107.06" x2="174.03" y2="105.86" fill="#fff7f0"/><path d="M200.91,74.63s-1,10.05,3.09,11.48,6.65-3.52,6.65-3.52,1.39-6.73.16-8.26S203.32,72,200.91,74.63Z" fill="#fdba45"/><path d="M203.83,75.44a7.07,7.07,0,0,1-3,1.46c-1.4.13-2.17-1.86-2.37-3s.84-4.72,7.26-4.91,10.2,5.23,10.2,8.5-.39,11.38-.39,11.38a61.26,61.26,0,0,1-8.37-.91s2.14-7.37,1.69-9.66S203.83,75.44,203.83,75.44Z" fill="#475ba2"/><path d="M202.88,186.25c3.62.4,8.25,1.78,11.75.8.49-9.13,2.45-55.54,2.29-58.34-.36-6.48-4.92-14.2-4.92-14.2l-12.68-1.24s-4.49,8.52-5,13.86c-.22,2.15-2.3,47.28-2.28,55.2A26,26,0,0,0,202.88,186.25Z" fill="#e5c6b4"/><path d="M206.44,187.07s.47,7.84-.31,9.08a44.85,44.85,0,0,1-6.76,6.21c-.95.54-2,1.76-1.63,2.48s3.83,2.59,6.58,2.34,3.47-3.71,5-4.05,2.93-.31,3.51-1.87-2-8.92-.92-12.82S206.44,187.07,206.44,187.07Z" fill="#fdba45"/><path d="M205.39,201.71c-1.39.46-3.76.75-4.75-.34a12.38,12.38,0,0,1-1.27,1c-.95.54-2,1.76-1.63,2.48s3.83,2.59,6.58,2.34,3.47-3.71,5-4.05,2.93-.31,3.51-1.87c.25-.67-.08-2.42-.46-4.5A16.77,16.77,0,0,1,205.39,201.71Z" fill="#475ba2"/><path d="M228.85,100.78s3.21-5.07,3.29-5.39,1.9-4.54,3-4.31,3.63-.2,3.93.92-2.72,1.1-2.72,1.1.5,3.38-.57,4.29-5.45,5.61-5.45,5.61" fill="#fdba45"/><polygon points="241.72 80.82 227.81 110.39 229.23 110.67 245.95 74.22 244.86 73.65 241.72 80.82" fill="#1b6333"/><polygon points="254.26 141.51 261.18 102.73 268.29 106.5 261.79 145.79 254.26 141.51" fill="#fff"/><polygon points="265.1 147.9 269.73 121.97 276.94 126.14 272.62 152.19 265.1 147.9" fill="#fff"/><polygon points="276.85 154.95 279.41 140.59 286.01 144.54 284.37 159.24 276.85 154.95" fill="#fff"/><ellipse cx="290.79" cy="105.75" rx="7.51" ry="9.64" fill="#fff"/><line x1="265.1" y1="82" x2="280.45" y2="90.44" fill="#fff" stroke="#f2f2f2" stroke-miterlimit="10"/><line x1="264.1" y1="86.22" x2="279.45" y2="94.67" fill="#fff" stroke="#f2f2f2" stroke-miterlimit="10"/><line x1="263.12" y1="90.44" x2="278.47" y2="98.89" fill="#fff" stroke="#f2f2f2" stroke-miterlimit="10"/><polygon points="290.98 227.27 243.37 254.8 196.96 228.13 241.79 199.95 309.44 183.58 290.98 227.27" opacity="0.32" fill="url(#linear-gradient-3)"/></svg>