<svg id="Layer_2" data-name="Layer 2" xmlns="http://www.w3.org/2000/svg" xmlns:xlink="http://www.w3.org/1999/xlink" viewBox="0 0 400 300"><defs><linearGradient id="linear-gradient" x1="75.45" y1="182.86" x2="93.15" y2="162.32" gradientUnits="userSpaceOnUse"><stop offset="0" stop-color="#297600"/><stop offset="0.99" stop-color="#294900"/></linearGradient><linearGradient id="linear-gradient-2" x1="289.74" y1="219.42" x2="319.16" y2="185.29" xlink:href="#linear-gradient"/></defs><title>PP</title><path d="M214.38,174.6c40.12-21.26-15-15.72-49-33-28.92-14.72-12.94-39.77-6.69-47.39L20.16,174c-5.35,3.32-.64,8.38,4.85,11.46l113.12,66.86c-.26-2.64-.47-5.4-.63-8.3C134.86,195.9,176.42,194.71,214.38,174.6Z" fill="#9cd354"/><path d="M383.54,178.23l-168-97.53c-3.63,6.85-11.2,25.78,7.7,38.19,23.42,15.37,108.52,13.39,51.73,70.85-42.61,43.1-5,49,16.87,56.7l92.72-52.93C390,190.33,389,181.42,383.54,178.23Z" fill="#9cd354"/><path d="M274.92,189.75c56.8-57.46-28.31-55.48-51.73-70.85-18.9-12.41-11.33-31.34-7.7-38.19l-13-7.57c-2.64-1.53-6.59-.48-9.18,1.13L158.7,94.2c-6.26,7.62-22.24,32.67,6.69,47.39,34,17.29,89.11,11.75,49,33-38,20.11-79.51,21.3-76.88,69.47.16,2.9.37,5.66.63,8.3l59.38,35.09a22.94,22.94,0,0,0,22.74-.16l71.55-40.85C269.94,238.72,232.32,232.85,274.92,189.75Z" fill="#f4e9dc"/><path d="M198.51,223.46c-.3.4-.36,7.55-2.8,8.86s-6.67,3.63-5.86,4.94,7.86.91,11.38-.81,6.14-7.86,7.25-8.26.4,4.83,1.11,4.73,2.92-7.55,1.91-10.07S198.51,223.46,198.51,223.46Z" fill="#406b91"/><path d="M181.56,219.34c-.3.4-.36,7.55-2.8,8.86s-6.67,3.63-5.86,4.94,7.86.91,11.38-.81,6.14-7.86,7.25-8.26.4,4.83,1.11,4.73,2.92-7.55,1.91-10.07S181.56,219.34,181.56,219.34Z" fill="#406b91"/><path d="M210.3,121.56c-5.9-11.51-3.49-19.78-2-23.91.14-.41.36-.92.62-1.49,1.23,6.56,4.08,21,6.48,27.74,3.17,8.91,15.25,27.19,15.25,27.19-5.14-9.67-2.57-28.24-2.57-28.24S219,109.7,218,106.37,216.58,91,216.58,91s.4-11.82-4.8-14c-6.2-3.53-18.6-5-18.6-5s-8.41-1.56-10,.52c-4.39,5.8.41,9.6-1.37,12.17-1.22,1.75-3,3.49-3,6.3-3.4,6.77-8.94,16.91-12.77,19.56,0,0,3.74,21.17-.42,29.37,0,0,12.49-22,18-35.9a18.91,18.91,0,0,1,.26,4.95c-.27,4.24-4.79,12.32-8.62,28s-18.87,77-16.23,79.69,9.44,2.66,9.44,2.66l.59,8.56s11.12,3.25,16.63-3.25c0,0,2.85,10.92,16.72,9.15s9.45-4.72,15.64-5,13.58-.89,13.58-1.77v-7.67s12.69-5.31,13.28-9.44S216.2,133.07,210.3,121.56Z" fill="#68e1fd"/><path d="M161,119.33s-2,19.63,4.64,20.56l4.16-8.2.83-11.74v-6.34" fill="#68e1fd"/><path d="M222.65,116.27s4.16,2.33,8,12.5,0,22.31,0,22.31L224,140.46l-.76-10.11" fill="#68e1fd"/><path d="M161,119.33s-2,19.63,4.64,20.56l4.16-8.2.83-11.74v-6.34" fill="#707070" opacity="0.6"/><path d="M169.28,108s-11.42,8.41-13.77,8.72-6.88-.59-9.25.13-8.15,5.23-7.1,5.67,4-.77,6.62-1.26,5.3-1.62,5.32-.56-5.7,3.28-4.5,3.74,9.86-.78,12.49-2.27c6.14-3.47,13.56-7.21,15.62-8.14" fill="#ffceb3"/><path d="M199.6,68.63l-7.82,1.81v3.82s-8.75,9.56-8.11,11.67,13.23,3.71,17.08,2.7c0,0-.23-9.64,0-11.9A31.11,31.11,0,0,1,199.6,68.63Z" fill="#ffceb3"/><polygon points="231.55 219.25 213.52 159.18 237.52 216.33 231.55 219.25" fill="#707070" opacity="0.6"/><path d="M218,228.64l-14.66-81.16,9,83.56A9.58,9.58,0,0,1,218,228.64Z" fill="#707070" opacity="0.6"/><path d="M179.71,228.1a14.49,14.49,0,0,0,4.6-2.12l1.3-1.41,4-90.48Z" fill="#707070" opacity="0.6"/><path d="M164.77,218.94s1.23.18,2.11.25l1.51.07,8.06-57Z" fill="#707070" opacity="0.6"/><path d="M222.65,116.27s4.16,2.33,8,12.5,0,22.31,0,22.31L224,140.46l-.76-10.11" fill="#707070" opacity="0.6"/><path d="M240.27,128.69c-2.07-1.36-6.68-1.77-8.84-2.73-1.5-.66-6.1-6.31-8.78-9.69l-.23.47a.61.61,0,0,1,.43.89c-.41.77-.82,1.53-1.24,2.28l-1.95,3.57c2.17,2.08,4.6,4.46,6.8,6.72s10.07,5.79,11.35,5.69-3.58-3.84-3.26-4.85,2.59.83,4.95,2,4.87,3.2,6,3.07S242.34,130.05,240.27,128.69Z" fill="#ffceb3"/><path d="M183.8,110.58l5.06,9.47,17.32-10.36,1.31,4.67s-17.15,5.66-18.78,10.19c0,0-2.67-7.61-6.07-10.94Z" fill="#707070" opacity="0.6"/><path d="M188.71,124.55s-4.5,9.15-3.1,10.59S191.34,134.24,188.71,124.55Z" fill="#707070" opacity="0.6"/><path d="M191.78,74.26s-2,7.93-1.21,7.93,8-7.16,8-7.16-3.69,5.4-8.17,7.87C190.38,82.9,189.48,82.22,191.78,74.26Z" fill="#ce7c0f"/><path d="M192,74.31s2.51.57,7.7-2.18V68l-5.51-.45L192,69.78Z" fill="#efb9a0"/><path d="M187.6,60.87a4.26,4.26,0,0,1-3.28-3.6A7.91,7.91,0,0,1,191,47.85c6-1.18,14.71,2.21,16.48,7.87s-3.6,14.78-6.4,15.23-6.18-1.69-6.18-1.69" fill="#fbb03b"/><path d="M186.48,56.46s.37,4.12.66,5.59-.66,6,4,10.08c0,0,4.78-.19,6.62-4.54s-.59-5.09-1.77-4.28-4.78-1.18-4.49-6.25c.18-3-1.84-2.57-2.13-1.4C189.42,55.65,187.07,53.66,186.48,56.46Z" fill="#ffceb3"/><path d="M187.34,44.63s-.38-2.59-.13-2.76,1.38,3.62,2.93,3.71a3.79,3.79,0,0,0,3.71-3.71s.45,4.6,3.33,4.37,3.4-3.5,3.91-3.76,1.12,8.37,1.12,8.37A20.75,20.75,0,0,1,193,52.31c-5.44-.32-5.65-1.9-5.65-1.9Z" fill="#fcee21"/><path d="M197.31,70.42s-2.82,3.29-1.32,6.5,2.29,4.61-.91,6.94-4.89,2.57-3.11,7.25,8.07,2.69,5.34,7.48S189.46,108.7,196,113.7s13.34-2.86,13.2-8.91-7.48-13.44-3.85-17.65,0-9.59-2.11-12.16,1.38-3.5-1-6.07" fill="#fbb03b"/><path d="M202.86,68.83c-1.8-.95-4.52.62-6.23,1.17a.56.56,0,0,0-.24.91.49.49,0,0,0,.44.25,15.26,15.26,0,0,0,4.48-.41c.7-.21,1.76-.59,1.82-1.44A.54.54,0,0,0,202.86,68.83Z" fill="#f9803d"/><path d="M190.38,82.9a3.24,3.24,0,0,0-2.11,1.89c-.77,1.64-.38,3,.49,2.8S192,85.08,190.38,82.9Z" fill="#ff5050"/><path d="M80.69,167.52c1-.16,1.77-.14,2.14.3-.68,6.75,4.18,3.45,6.3,5.16l1.83-.77q5.55-5.56,11.17-11c-1.28-.93-2.52-1.91-3.77-2.88A118.26,118.26,0,0,0,80.69,167.52Z" opacity="0.48" fill="url(#linear-gradient)"/><path d="M102.65,161.23V127.94H95.4v33.58A9.69,9.69,0,0,0,102.65,161.23Z" fill="#722611"/><path d="M99.76,128v34.09a7.3,7.3,0,0,0,2.89-.8V128Z" fill="#441409"/><path d="M109.11,131.06c4.51-.22,10.28-1.84,8.59-6.86-1-3-4.07-5.59-6-7.94s-1.53-3.93-3.72-6.23c1.87.08,4.58-.27,5-2.12.4-1.62-8.31-11.55-12.08-15.59a2.41,2.41,0,0,0-3.27-.24c-4.49,3.57-15.95,13.09-14.35,15.82,1,1.65,2.92,2.23,4.66,2.38-4.12,4.13-8.82,9.3-9.3,14.8-.41,4.77,4.47,5.41,9,5.17-3.14,3.82-11.68,14.71-9.73,18,1,1.74,4.34,2.32,6.3,2.71a62.56,62.56,0,0,0,12.91,1.24A39.76,39.76,0,0,0,110,150.29a18,18,0,0,0,6.26-3.44c2-1.88.88-3.89-.42-5.78C113.55,137.76,111.33,134.41,109.11,131.06Z" fill="#ffa836"/><path d="M107.95,110s-5.49-.36-9.31-.26L118,125.68s.52-1.85-2.9-5.64A77.88,77.88,0,0,1,107.95,110Z" fill="#a83f1e"/><path d="M109.11,131.06H97.85l18.39,15.79a2.8,2.8,0,0,0,.81-3.63C115.83,141.07,109.11,131.06,109.11,131.06Z" fill="#a83f1e"/><path d="M298.44,193.93c1.62-.27,2.94-.23,3.56.5-1.14,11.22,6.94,5.74,10.48,8.57l3-1.27q9.22-9.24,18.56-18.36c-2.13-1.54-4.2-3.17-6.26-4.79A196.53,196.53,0,0,0,298.44,193.93Z" opacity="0.48" fill="url(#linear-gradient-2)"/><path d="M334.94,183.48V128.16h-12V184C327.06,185.17,331.44,185.36,334.94,183.48Z" fill="#722611"/><path d="M330.14,128.31V185a12.13,12.13,0,0,0,4.8-1.34V128.31Z" fill="#441409"/><path d="M345.68,133.33c7.49-.36,17.08-3.05,14.27-11.4-1.66-4.93-6.76-9.28-10-13.19s-2.54-6.53-6.18-10.36c3.1.13,7.61-.46,8.37-3.53.67-2.69-13.8-19.2-20.07-25.9a4,4,0,0,0-5.43-.4c-7.46,5.94-26.51,21.75-23.85,26.3,1.6,2.75,4.85,3.7,7.75,4-6.85,6.87-14.66,15.46-15.45,24.6-.69,7.94,7.43,9,15,8.59-5.22,6.35-19.41,24.45-16.17,29.94,1.71,2.9,7.21,3.86,10.47,4.5a104,104,0,0,0,21.45,2.07c7.16-.08,14.54-.8,21.33-3.21,3.61-1.28,7.56-3,10.4-5.72,3.33-3.13,1.47-6.46-.69-9.61C353.06,144.47,349.37,138.9,345.68,133.33Z" fill="#ffa836"/><path d="M343.74,98.38s-9.12-.59-15.47-.43l32.17,26.44s.86-3.07-4.83-9.37S343.74,98.38,343.74,98.38Z" fill="#a83f1e"/><path d="M345.68,133.33H327l30.56,26.25s3.38-2.47,1.34-6S345.68,133.33,345.68,133.33Z" fill="#a83f1e"/><circle cx="318.26" cy="85.89" r="4.63" fill="#ed522e"/><path d="M319.59,81.36c.92,1.66.27,4.32-.86,5.6A6.67,6.67,0,0,1,314.95,89a4.63,4.63,0,1,0,4.64-7.66Z" fill="#b2351d"/><path d="M319,78.14c-.42-.56-1.38,0-1,.56a5,5,0,0,1,1,3.87c-.11.69.95,1,1.06.29A6.05,6.05,0,0,0,319,78.14Z" fill="#2c993e"/><circle cx="338.71" cy="91.9" r="4.63" fill="#ed522e"/><path d="M340,87.37c.92,1.66.27,4.32-.86,5.6A6.67,6.67,0,0,1,335.4,95,4.63,4.63,0,1,0,340,87.37Z" fill="#b2351d"/><path d="M339.45,84.14c-.42-.56-1.38,0-1,.56a5,5,0,0,1,1,3.87c-.11.69.95,1,1.06.29A6.05,6.05,0,0,0,339.45,84.14Z" fill="#2c993e"/><circle cx="317.17" cy="112.83" r="4.6" fill="#ed522e"/><path d="M318.49,108.33c.91,1.65.27,4.3-.86,5.57a6.63,6.63,0,0,1-3.76,2,4.6,4.6,0,1,0,4.62-7.62Z" fill="#b2351d"/><path d="M317.9,105.12c-.42-.56-1.37,0-.95.55a5,5,0,0,1,1,3.85c-.11.69.94,1,1.06.29A6,6,0,0,0,317.9,105.12Z" fill="#2c993e"/><circle cx="314.95" cy="153.77" r="4.63" fill="#ed522e"/><path d="M316.27,149.24c.92,1.66.27,4.32-.86,5.6a6.67,6.67,0,0,1-3.78,2.06,4.63,4.63,0,1,0,4.64-7.66Z" fill="#b2351d"/><path d="M315.68,146c-.42-.56-1.38,0-1,.56a5,5,0,0,1,1,3.87c-.11.69.95,1,1.06.29A6.05,6.05,0,0,0,315.68,146Z" fill="#2c993e"/><circle cx="338.39" cy="124.23" r="4.6" fill="#ed522e"/><path d="M339.71,119.72c.91,1.65.27,4.3-.86,5.57a6.63,6.63,0,0,1-3.76,2,4.6,4.6,0,1,0,4.62-7.62Z" fill="#b2351d"/><path d="M339.12,116.51c-.42-.56-1.37,0-.95.55a5,5,0,0,1,1,3.85c-.11.69.94,1,1.06.29A6,6,0,0,0,339.12,116.51Z" fill="#2c993e"/><circle cx="93.25" cy="121.14" r="4.6" fill="#ed522e"/><path d="M94.57,116.64c.91,1.65.27,4.3-.86,5.57a6.63,6.63,0,0,1-3.76,2,4.6,4.6,0,1,0,4.62-7.62Z" fill="#b2351d"/><path d="M94,113.43c-.42-.56-1.37,0-.95.55a5,5,0,0,1,1,3.85c-.11.69.94,1,1.06.29A6,6,0,0,0,94,113.43Z" fill="#2c993e"/><path d="M129.75,194.68s-9-2.14-11.73,4.06C118,198.75,127,201,129.75,194.68Z" fill="#aa6543"/><path d="M143.24,151.73s-9-2.14-11.73,4.06C131.52,155.79,140.47,158,143.24,151.73Z" fill="#aa6543"/><path d="M166.66,170s-9-2.14-11.73,4.06C154.94,174.07,163.9,176.31,166.66,170Z" fill="#ffe885"/><path d="M86.55,186.32s-9-2.14-11.73,4.06C74.82,190.39,83.78,192.63,86.55,186.32Z" fill="#ffe885"/><path d="M300,219.86s-9-2.14-11.73,4.06C288.25,223.93,297.21,226.17,300,219.86Z" fill="#aa6543"/><path d="M266.78,117.67s-9-2.14-11.73,4.06C255,121.74,264,124,266.78,117.67Z" fill="#aa6543"/><path d="M310.16,178.48s-9-2.14-11.73,4.06C298.44,182.54,307.39,184.78,310.16,178.48Z" fill="#ffe885"/></svg>