<svg id="Layer_2" data-name="Layer 2" xmlns="http://www.w3.org/2000/svg" xmlns:xlink="http://www.w3.org/1999/xlink" viewBox="0 0 400 300"><defs><linearGradient id="linear-gradient" x1="162.23" y1="197.5" x2="176.82" y2="185.68" gradientUnits="userSpaceOnUse"><stop offset="0" stop-opacity="0.03"/><stop offset="0.97" stop-color="#7f4a00"/></linearGradient><linearGradient id="linear-gradient-2" x1="184.72" y1="269.22" x2="197.87" y2="258.56" xlink:href="#linear-gradient"/><linearGradient id="linear-gradient-3" x1="61.19" y1="220.85" x2="81.96" y2="191.31" gradientUnits="userSpaceOnUse"><stop offset="0" stop-color="#fff" stop-opacity="0"/><stop offset="1" stop-color="#d43500"/></linearGradient></defs><title>HA</title><path d="M202.86,282.77l165.24-97.66c5.26-3,9.77-7.8,4.64-11L206.9,78.55c-2.49-1.54-6.27-2.55-8.8-1.08L24.65,178.14c-5.26,3.05-6.2,11.59-.94,14.64l157.36,89.83A22,22,0,0,0,202.86,282.77Z" fill="#adce46"/><path d="M204.43,175c-11.72,4.16-30.82,7.67-43,10.25a.9.9,0,0,1-.37.28,11.62,11.62,0,0,1-10.14,0l-12.33,6.69,26.08,14.63L213,180.76C211.91,179.91,212.3,177.59,204.43,175Z" opacity="0.32" fill="url(#linear-gradient)"/><path d="M213,180.38V121.32H200.12v59.57C204.57,182.19,209.25,182.39,213,180.38Z" fill="#a83f1e"/><path d="M207.86,121.48V182a13,13,0,0,0,5.12-1.43V121.48Z" fill="#7f2b14"/><path d="M224.45,126.85c8-.39,18.23-3.26,15.24-12.17-1.77-5.27-7.22-9.91-10.7-14.08s-2.71-7-6.6-11.06c3.31.14,8.12-.49,8.93-3.77.71-2.88-14.73-20.5-21.43-27.65a4.28,4.28,0,0,0-5.8-.42c-8,6.34-28.3,23.22-25.46,28.08,1.71,2.94,5.17,3.95,8.27,4.22-7.32,7.33-15.65,16.5-16.5,26.27-.73,8.47,7.93,9.6,16,9.17-5.58,6.78-20.72,26.1-17.27,32,1.82,3.09,7.7,4.12,11.17,4.81a111,111,0,0,0,22.9,2.21c7.65-.08,15.52-.86,22.77-3.43,3.85-1.37,8.07-3.25,11.11-6.11,3.55-3.34,1.57-6.9-.74-10.25C232.33,138.73,228.39,132.79,224.45,126.85Z" fill="#52af45"/><path d="M222.38,89.54s-9.73-.63-16.52-.45l34.34,28.23s.92-3.28-5.15-10S222.38,89.54,222.38,89.54Z" fill="#0d5b23"/><path d="M224.45,126.85h-20l32.62,28s3.6-2.64,1.43-6.45S224.45,126.85,224.45,126.85Z" fill="#0d5b23"/><path d="M239.66,83s-3.52,15.6-4.18,17.43-6.23,10.95-6.23,10.95-5.21,2.84-4,3.47a3.13,3.13,0,0,0,2.54,0s-1.52,5.88-.76,7.25,3.55,2.06,5.69,1.15,2.12-7.43,2.47-8.39S246.48,95,247.58,83,239.66,83,239.66,83Z" fill="#ffc6b2"/><path d="M238.63,75.37s-3.41,3.87-3.46,17c0,0,9.85,4.36,11.88,2.18l2.45-12.36" fill="#68e1fd"/><path d="M262.81,129.16s2.14,17.55,3.35,22,2.29,32.68,2.29,32.68,3.77,2.69,7,0c0,0,1.7-22.84.81-28.94s0-30.14,0-30.14" fill="#ffc6b2"/><path d="M250.45,124.1s-.43,12.94,0,17.21,2.28,31.29,2.28,31.29a4.8,4.8,0,0,0,6.26,0s2.07-13.37,1.82-15.93-.68-34.85-.68-34.85" fill="#ffc6b2"/><path d="M245.06,61.5c0,.07,20.83,3.29,19.66,10.09S254.57,76,254.57,76L244.15,63.7" fill="#f18f22"/><path d="M262.81,194a3.67,3.67,0,0,0,.7,4.07c1.8,1.92,4.16,1,6.15,0s7.63-6,6.85-7.31-1.07-6.83-1.07-6.83" fill="#fff"/><path d="M268.36,181.7s-.91,5.2-2.2,6.89-4.34,5.82-3.35,6.89,1.73-2.14,3.35-1.22,1.11,3.22,2.29,2.76,6.69-4.84,7.3-7.62-.77-7.68-.77-7.68" fill="#68e1fd"/><path d="M243.06,180.19s-.22,3.1,2.59,3.69,6.3-1.12,7.87-1.84,7.31-5.55,7.31-5.55l-.68-6.75" fill="#fff"/><path d="M252.5,169.27s-1.68,4.18-4.72,5.75-5.4,4.61-4.72,5.17,2.14-1.46,2.92-.9.78,3,1.74,2.41,3,1,5.79-.95,1.91-2.7,4.27-3.6,2.36-7.42,2.36-7.42S254.18,171,252.5,169.27Z" fill="#68e1fd"/><path d="M249.92,100.58a47.64,47.64,0,0,0-2.41,13c-.44,7.84,2.75,53.71,2.75,53.71a24.49,24.49,0,0,0,14.62.77v10.48s8.07,2.62,16.89-3c0,0-1-69.61-15.29-83.21" fill="#f15a24"/><path d="M262.46,96.67a25.12,25.12,0,0,0,4-4.34A97.32,97.32,0,0,0,261,80.77c-3.11-5.07-6.23-10.86-12.39-12.35a41,41,0,0,0-7.09,4,10.09,10.09,0,0,0-2.92,2.91c-.12,5,.3,8.16,3.26,11.89s4.94,9.85,6.93,13.14C253.27,101.47,258.19,99.54,262.46,96.67Z" fill="#68e1fd"/><path d="M244.39,66.55l2.66,3.31s-1.44,3.08-4.23,3.45l-1.74-2" fill="#ffb39c"/><path d="M238.49,68.93c-5.11,4.26-7.6-.5-7.6-.5-7-8.76,4.16-13.51,4.16-13.51s8.69-3.16,10.13,9.23" fill="#f18f22"/><path d="M229.71,64.46s7.94,11.26,12.34,7.62,1.55-7.4,1.55-7.4-4-7.63-8.84-6.42S229.71,64.46,229.71,64.46Z" fill="#ffc6b2"/><path d="M229.71,64.46s5.44,2.31,8.65-.22,6,2.31,6,2.31a7.51,7.51,0,0,0-.67-8.06c-1.69-2.5-7.93-4.37-11.09-2S227.43,62.62,229.71,64.46Z" fill="#f18f22"/><path d="M261.31,116.88c-.07-.63-1.07-.64-1,0q2.8,26.36,4.41,52.82c0,.64,1,.64,1,0Q264.11,143.24,261.31,116.88Z" fill="#842e13"/><path d="M192.27,241.32c-6-4.11,13.56,9.34,8.27,4.27l-36.42,19.77,23.55,13.21L231.29,255C228.88,253.06,194.77,243,192.27,241.32Z" opacity="0.32" fill="url(#linear-gradient-2)"/><path d="M210.22,265.89V244.27l-19.35-10.81v21.45Z" fill="#c96336"/><path d="M210.22,244.27l18.83-10.81s.52,21.8,0,22.14-18.83,10.29-18.83,10.29Z" fill="#e27144"/><polygon points="229.06 233.46 210.22 221.95 190.87 233.46 210.22 244.27 229.06 233.46" fill="#9b4726"/><polygon points="190.87 233.46 183.87 221.33 203.7 209.67 210.22 221.95 190.87 233.46" fill="#e27144"/><polygon points="229.06 233.46 234.16 222.55 213.33 233.9 210.22 244.27 229.06 233.46" fill="#c96336"/><path d="M350.34,95.8c.1,1.58.19,3,.28,4.48l.41.22,2.73,1.24c2.27,1,4.55,2.07,6.83,3.07a9.08,9.08,0,0,0,5.3.94,15.44,15.44,0,0,0,1.84-.6,1.52,1.52,0,0,1-.1.25c-2.07,3.61-4.13,7.24-6.24,10.82-1.08,1.83-2.86,2.15-5.17,1.15l-1.82-.81-3-1.4-.56-.26c0,1.52-.05,3-.08,4.67-.15-.32-.23-.48-.3-.66L345,105.51c-.12-.3-.21-.54-.07-.78q2.64-4.35,5.26-8.7A2.1,2.1,0,0,1,350.34,95.8Z" fill="#68e1fd"/><path d="M318.65,82.71a16.41,16.41,0,0,0,5.51,5.35c.8.44,1.6.81,2.41,1.18l.4.18,1,.44,12.45,5.78.35.19.23,14.65-1-.45-4.61-2.09-3.07-1.41a14.82,14.82,0,0,1-4.65-3.21,8.74,8.74,0,0,1-1.86-2.8q-3.5-8.73-7-17.47Z" fill="#68e1fd"/><path d="M363.54,86.34l1.88,4.88c1,2.56,2,5.11,2.92,7.66a4.72,4.72,0,0,1-.18,4.51A3.49,3.49,0,0,1,365,104.7a13.64,13.64,0,0,1-5.5-1.38l-.93-.45a1.37,1.37,0,0,1-.5-.55q-2.63-6.5-5.24-13c0-.1-.06-.2-.11-.35Z" fill="#68e1fd"/><path d="M329.38,70.94a1,1,0,0,1,.59.62q2.83,7.09,5.7,14.2c0,.12.08.26.18.55l-3.38-3.57c-.33.47-.65.92-1,1.38-1.07,1.56-2.15,3.11-3.21,4.68-.15.23-.32.3-.63.15a30,30,0,0,1-4.82-2.67A13.92,13.92,0,0,1,318.1,80a4.58,4.58,0,0,1,0-4.15c1-1.69,1.92-3.43,2.88-5.14l.17-.34-3.39-4.52c.18.06.27.08.36.12Z" fill="#68e1fd"/><path d="M334.69,55l.41.2a13.14,13.14,0,0,1,4.39,4.71,34.59,34.59,0,0,1,3.3,6.75.77.77,0,0,1,0,.55c-1.81,2.65-3.64,5.29-5.46,7.93a.64.64,0,0,1-.12.11L326.07,62.76l.23-.35c1.73-2.33,3.45-4.68,5.22-7C332.26,54.48,333.38,54.37,334.69,55Z" fill="#68e1fd"/><path d="M350.35,61.51a10.74,10.74,0,0,1,5.31,5.94c.94,2.25,1.82,4.5,2.76,6.82l3.5-.48.06.1-.38.55c-1.78,2.63-3.57,5.25-5.35,7.89-.17.27-.37.27-.7.12-3.57-1.68-7.13-3.32-10.7-5l-.51-.26,3.17-.92-.29-.75c-1.56-3.84-3.1-7.69-4.69-11.53a24,24,0,0,0-3.78-6.43c-.5-.59-1.06-1.11-1.59-1.66-.15-.15-.32-.28-.47-.42l0-.13,3.09,1.41,3.09,1.4C345.38,59.29,347.87,60.37,350.35,61.51Z" fill="#68e1fd"/><path d="M146.19,142V122.58H142v19.56A5.65,5.65,0,0,0,146.19,142Z" fill="#a83f1e"/><path d="M144.51,122.64V142.5a4.25,4.25,0,0,0,1.68-.47V122.64Z" fill="#7f2b14"/><path d="M150,124.4c2.63-.13,6-1.07,5-4-.58-1.73-2.37-3.25-3.51-4.62s-.89-2.29-2.17-3.63c1.09,0,2.67-.16,2.93-1.24s-4.84-6.73-7-9.08a1.41,1.41,0,0,0-1.9-.14c-2.61,2.08-9.29,7.62-8.36,9.22a3.33,3.33,0,0,0,2.72,1.39c-2.4,2.41-5.14,5.42-5.42,8.62-.24,2.78,2.6,3.15,5.25,3-1.83,2.23-6.8,8.57-5.67,10.5.6,1,2.53,1.35,3.67,1.58a36.45,36.45,0,0,0,7.52.73,23.16,23.16,0,0,0,7.48-1.13,10.47,10.47,0,0,0,3.65-2c1.17-1.1.51-2.26-.24-3.37C152.54,128.3,151.25,126.35,150,124.4Z" fill="#52af45"/><path d="M149.27,112.15s-3.2-.21-5.42-.15l11.27,9.27s.3-1.08-1.69-3.28A45.37,45.37,0,0,1,149.27,112.15Z" fill="#0d5b23"/><path d="M150,124.4h-6.56l10.71,9.2a1.63,1.63,0,0,0,.47-2.12C153.86,130.23,150,124.4,150,124.4Z" fill="#0d5b23"/><path d="M150.37,221.17V201.78h-4.22v19.56A5.65,5.65,0,0,0,150.37,221.17Z" fill="#a83f1e"/><path d="M148.69,201.84V221.7a4.25,4.25,0,0,0,1.68-.47V201.84Z" fill="#7f2b14"/><path d="M154.14,203.6c2.63-.13,6-1.07,5-4-.58-1.73-2.37-3.25-3.51-4.62s-.89-2.29-2.17-3.63c1.09,0,2.67-.16,2.93-1.24s-4.84-6.73-7-9.08a1.41,1.41,0,0,0-1.9-.14c-2.61,2.08-9.29,7.62-8.36,9.22a3.33,3.33,0,0,0,2.72,1.39c-2.4,2.41-5.14,5.42-5.42,8.62-.24,2.78,2.6,3.15,5.25,3-1.83,2.23-6.8,8.57-5.67,10.5.6,1,2.53,1.35,3.67,1.58a36.45,36.45,0,0,0,7.52.73,23.16,23.16,0,0,0,7.48-1.13,10.47,10.47,0,0,0,3.65-2c1.17-1.1.51-2.26-.24-3.37C156.72,207.5,155.43,205.55,154.14,203.6Z" fill="#52af45"/><path d="M153.46,191.35s-3.2-.21-5.42-.15l11.27,9.27s.3-1.08-1.69-3.28A45.37,45.37,0,0,1,153.46,191.35Z" fill="#0d5b23"/><path d="M154.14,203.6h-6.56l10.71,9.2a1.63,1.63,0,0,0,.47-2.12C158,209.43,154.14,203.6,154.14,203.6Z" fill="#0d5b23"/><path d="M312,184.45V165.05h-4.22v19.56A5.65,5.65,0,0,0,312,184.45Z" fill="#a83f1e"/><path d="M310.28,165.11V185a4.25,4.25,0,0,0,1.68-.47V165.11Z" fill="#7f2b14"/><path d="M315.73,166.87c2.63-.13,6-1.07,5-4-.58-1.73-2.37-3.25-3.51-4.62s-.89-2.29-2.17-3.63c1.09,0,2.67-.16,2.93-1.24s-4.84-6.73-7-9.08a1.41,1.41,0,0,0-1.9-.14c-2.61,2.08-9.29,7.62-8.36,9.22a3.33,3.33,0,0,0,2.72,1.39c-2.4,2.41-5.14,5.42-5.42,8.62-.24,2.78,2.6,3.15,5.25,3-1.83,2.23-6.8,8.57-5.67,10.5.6,1,2.53,1.35,3.67,1.58a36.45,36.45,0,0,0,7.52.73,23.16,23.16,0,0,0,7.48-1.13,10.47,10.47,0,0,0,3.65-2c1.17-1.1.51-2.26-.24-3.37C318.31,170.77,317,168.82,315.73,166.87Z" fill="#52af45"/><path d="M315,154.62s-3.2-.21-5.42-.15l11.27,9.27s.3-1.08-1.69-3.28A45.37,45.37,0,0,1,315,154.62Z" fill="#0d5b23"/><path d="M315.73,166.87h-6.56l10.71,9.2a1.63,1.63,0,0,0,.47-2.12C319.64,172.7,315.73,166.87,315.73,166.87Z" fill="#0d5b23"/><path d="M54.69,190.69a101.48,101.48,0,0,1,10.15,5.86C70,200,77.72,202.68,82.5,206.65l37.18-21.38-50.17-8.09L50.65,188.25Q52.69,189.44,54.69,190.69Z" opacity="0.32" fill="url(#linear-gradient-3)"/><path d="M93,201.14V170.87L65.9,155.74v30Z" fill="#68e1fd"/><path d="M93,170.87l26.36-15.13s.73,30.51,0,31S93,201.14,93,201.14Z" fill="#68e1fd"/><polygon points="119.36 155.74 93 139.63 65.9 155.74 93 170.88 119.36 155.74" fill="#68e1fd"/><polygon points="65.9 155.74 56.11 138.76 83.87 122.43 93 139.63 65.9 155.74" fill="#68e1fd"/><path d="M93,170.87l26.36-15.13s.73,30.51,0,31S93,201.14,93,201.14Z" fill="#606060" opacity="0.49"/><polygon points="119.68 155.21 93.32 139.1 66.23 155.21 93.32 170.34 119.68 155.21" fill="#606060" opacity="0.8"/><polygon points="119.36 155.74 126.5 140.47 97.34 156.35 93 170.88 119.36 155.74" fill="#68e1fd"/></svg>