<svg xmlns="http://www.w3.org/2000/svg" xmlns:xlink="http://www.w3.org/1999/xlink" viewBox="0 0 400 300"><defs><linearGradient id="linear-gradient" x1="1880.7" y1="173.19" x2="1860.82" y2="194.99" gradientTransform="matrix(-1, 0, 0, 1, 1946.37, 0)" gradientUnits="userSpaceOnUse"><stop offset="0" stop-color="#78b46a"/><stop offset="0.03" stop-color="#7f3500"/><stop offset="1" stop-color="#fff"/></linearGradient><linearGradient id="linear-gradient-2" x1="209.64" y1="181.59" x2="255.19" y2="215.16" gradientTransform="matrix(-1, 0, 0, 1, 407.43, 0)" xlink:href="#linear-gradient"/></defs><title>HA</title><g style="isolation:isolate"><g id="Layer_2" data-name="Layer 2"><path d="M329.83,66.91s6.26,3.47,3,26l-38-22.52S310.38,56,329.83,66.91Z" fill="#364f6b"/><path d="M187,289.08l-165.77-98c-5.28-3-9.8-7.83-4.66-11L182.92,84.22c2.5-1.55,6.29-2.56,8.82-1.09l174,101c5.28,3.06,6.22,11.63.94,14.69L208.83,288.93A22,22,0,0,1,187,289.08Z" fill="#3fc1c9"/><path d="M329.83,66.91S318.56,61.5,307.33,80c-8.78,14.49-.19,87.68-12,105.86C287.19,198.49,270.3,205,270.3,205L148.13,128.72s15.4-6.33,21.2-18.91c4.88-10.57,13.37-78,16.45-89.67,2.1-7.94,9.48-12.29,17.43-12,6.23.2,11.54,3.49,17,6.12l34,16.36,70.43,33.85Z" fill="#f2f2f2"/><path d="M79.13,171.25,98.94,183s-6.14,10.77-21.27,17.13L54.59,187.71" fill="url(#linear-gradient)" style="mix-blend-mode:multiply"/><ellipse cx="63.01" cy="177.35" rx="18.38" ry="12.94" fill="#68e1fd"/><ellipse cx="63" cy="169.71" rx="13.77" ry="5.64" fill="#974c26"/><path d="M62.49,160.3c0-2.54-.09-5.09-.29-7.62q-.08-1-.18-2c0-.11-.1-.9-.15-1.3s-.2-1.36-.2-1.32q-.13-.77-.27-1.55a60.69,60.69,0,0,0-9.83-24,35.15,35.15,0,0,0-2.73,14.07c0,1.4.11,2.79.23,4.18,0,.37,0,.53,0,.59s0-.08.06.24c.12.68.24,1.37.38,2a55.55,55.55,0,0,0,2.18,7.63,46.39,46.39,0,0,0,3,6.65c1.25,2.4,2.61,4.74,4.07,7,1.14,1.78,2.22,3.38,3.31,4.9C62.33,166.67,62.49,163.49,62.49,160.3Zm-7.23-28.58a2.29,2.29,0,0,0-.06-1h0q.53.54,1,1.11A3.15,3.15,0,0,0,55.26,131.73Z" fill="#999a1c"/><path d="M67.23,162.27c1.38-2.14,2.68-4.33,3.88-6.57q.47-.87.92-1.76l.58-1.17.55-1.22q.31-.72.61-1.45a60.69,60.69,0,0,0,4.72-25.53,35.15,35.15,0,0,0-9.91,10.36c-.75,1.18-1.41,2.4-2.07,3.64l-.28.52s.05-.07-.08.23c-.27.64-.54,1.28-.79,1.93a55.55,55.55,0,0,0-2.29,7.59,46.39,46.39,0,0,0-1.1,7.2c-.25,2.7-.36,5.4-.37,8.11,0,2.12,0,4,.13,5.91C63.66,167.54,65.51,164.95,67.23,162.27Zm9.36-28a2.29,2.29,0,0,0,.48-.87h0q.15.74.27,1.49A3.15,3.15,0,0,0,76.59,134.32Z" fill="#999a1c"/><path d="M67.13,168.61q2.15-1.06,4.21-2.29l1.06-.65.69-.45.69-.48.79-.58a38.17,38.17,0,0,0,10.79-12.25,22.1,22.1,0,0,0-8.69,2.39c-.78.4-1.54.84-2.29,1.3l-.32.19s0,0-.12.1c-.35.26-.7.52-1,.79A34.94,34.94,0,0,0,69.22,160a29.17,29.17,0,0,0-2.92,3.53c-1,1.37-1.94,2.8-2.82,4.26-.69,1.14-1.29,2.2-1.84,3.23C63.5,170.3,65.33,169.49,67.13,168.61Zm14.08-12.06a1.44,1.44,0,0,0,.54-.31h0q-.16.45-.33.89A2,2,0,0,0,81.21,156.54Z" fill="#999a1c"/><path d="M62.49,160.3c0-2.54-.09-5.09-.29-7.62q-.08-1-.18-2c0-.11-.1-.9-.15-1.3s-.2-1.36-.2-1.32q-.13-.77-.27-1.55a60.69,60.69,0,0,0-9.83-24,35.15,35.15,0,0,0-2.73,14.07c0,1.4.11,2.79.23,4.18,0,.37,0,.53,0,.59s0-.08.06.24c.12.68.24,1.37.38,2a55.55,55.55,0,0,0,2.18,7.63,46.39,46.39,0,0,0,3,6.65c1.25,2.4,2.61,4.74,4.07,7,1.14,1.78,2.22,3.38,3.31,4.9C62.33,166.67,62.49,163.49,62.49,160.3Zm-7.23-28.58a2.29,2.29,0,0,0-.06-1h0q.53.54,1,1.11A3.15,3.15,0,0,0,55.26,131.73Z" fill="#999a1c"/><path d="M67.23,162.27c1.38-2.14,2.68-4.33,3.88-6.57q.47-.87.92-1.76l.58-1.17.55-1.22q.31-.72.61-1.45a60.69,60.69,0,0,0,4.72-25.53,35.15,35.15,0,0,0-9.91,10.36c-.75,1.18-1.41,2.4-2.07,3.64l-.28.52s.05-.07-.08.23c-.27.64-.54,1.28-.79,1.93a55.55,55.55,0,0,0-2.29,7.59,46.39,46.39,0,0,0-1.1,7.2c-.25,2.7-.36,5.4-.37,8.11,0,2.12,0,4,.13,5.91C63.66,167.54,65.51,164.95,67.23,162.27Zm9.36-28a2.29,2.29,0,0,0,.48-.87h0q.15.74.27,1.49A3.15,3.15,0,0,0,76.59,134.32Z" fill="#999a1c"/><path d="M67.13,168.61q2.15-1.06,4.21-2.29l1.06-.65.69-.45.69-.48.79-.58a38.17,38.17,0,0,0,10.79-12.25,22.1,22.1,0,0,0-8.69,2.39c-.78.4-1.54.84-2.29,1.3l-.32.19s0,0-.12.1c-.35.26-.7.52-1,.79A34.94,34.94,0,0,0,69.22,160a29.17,29.17,0,0,0-2.92,3.53c-1,1.37-1.94,2.8-2.82,4.26-.69,1.14-1.29,2.2-1.84,3.23C63.5,170.3,65.33,169.49,67.13,168.61Zm14.08-12.06a1.44,1.44,0,0,0,.54-.31h0q-.16.45-.33.89A2,2,0,0,0,81.21,156.54Z" fill="#999a1c"/><path d="M121.65,210.93l42.51-21,32.13,19.51-41.55,22.41C145.36,225.78,130.75,217.43,121.65,210.93Z" fill="url(#linear-gradient-2)" style="mix-blend-mode:multiply"/><path d="M282.48,213.59l4.68-2.63a6.94,6.94,0,0,1,6.77,3.82c3,5.4.35,8.25.35,8.25l-4.8,3.29" fill="#f2f2f2"/><path d="M199.59,269.8l13.06-15.92,69.59-40.29s5.25.16,7,4.78a10.26,10.26,0,0,1,0,8l-69.43,40.29Z" fill="#ffce81"/><path d="M289.49,218.36c-1.75-4.62-7-4.78-7-4.78L213.1,253.75c4.05,3.15,7.15,7.66,7.22,12.71l69.17-40.14A10.26,10.26,0,0,0,289.49,218.36Z" fill="#354e6a"/><path d="M199.59,269.8l4.81-5.87s3.79,1.45,2.63,4.7Z" fill="#354e6a"/><ellipse cx="277.8" cy="87.09" rx="7.54" ry="11.83" fill="#6bc630"/><path d="M280.6,84.17c-1.36,1.79-2.82,3.49-4.34,5.14l-1.89-2.88c-.71-1.07-2.27.18-1.57,1.25l2.27,3.45s.05,0,.08.08a1.12,1.12,0,0,0,1.79.3,69.23,69.23,0,0,0,5.25-6.15A1,1,0,0,0,280.6,84.17Z" fill="#364f6b"/><ellipse cx="276.25" cy="123.5" rx="7.54" ry="11.83" fill="#6bc630"/><path d="M279.33,120.72c-1.36,1.79-2.82,3.49-4.34,5.14L273.1,123c-.71-1.07-2.27.18-1.57,1.25l2.27,3.45s.05,0,.08.08a1.12,1.12,0,0,0,1.79.3,69.23,69.23,0,0,0,5.25-6.15A1,1,0,0,0,279.33,120.72Z" fill="#364f6b"/><ellipse cx="270.33" cy="159.18" rx="7.54" ry="11.83" fill="#6bc630"/><path d="M273.85,156.29c-1.36,1.79-2.82,3.49-4.34,5.14l-1.89-2.88c-.71-1.07-2.27.18-1.57,1.25l2.27,3.45s.05,0,.08.08a1.12,1.12,0,0,0,1.79.3,69.23,69.23,0,0,0,5.25-6.15A1,1,0,0,0,273.85,156.29Z" fill="#364f6b"/><path d="M262,77.93,210.11,52.48c-1.15-.56-2.2,1.14-1,1.71l51.85,25.46C262.06,80.2,263.11,78.5,262,77.93Z" fill="#364f6b"/><path d="M264,87.05q-32.87-16-66.14-31.16c-1.16-.53-2.21,1.17-1,1.71q33.26,15.17,66.14,31.16C264.09,89.32,265.14,87.62,264,87.05Z" fill="#364f6b"/><path d="M258.48,114.68,204.65,86.85c-1.19-.62-2.33,1.15-1.13,1.77l53.83,27.84C258.54,117.07,259.68,115.3,258.48,114.68Z" fill="#364f6b"/><path d="M260.41,124.29q-34.13-17.49-68.69-34.13c-1.2-.58-2.35,1.18-1.13,1.77q34.56,16.64,68.69,34.13C260.47,126.67,261.61,124.91,260.41,124.29Z" fill="#364f6b"/><path d="M254.12,147.57l-51-27.12c-1.13-.6-2.24,1.07-1.1,1.67l51,27.12C254.15,149.84,255.25,148.18,254.12,147.57Z" fill="#364f6b"/><path d="M255.85,156.75q-32.34-17-65.1-33.28c-1.14-.57-2.25,1.1-1.1,1.67q32.75,16.23,65.1,33.28C255.88,159,257,157.35,255.85,156.75Z" fill="#364f6b"/><path d="M168,192.78s6.05-2.69,7.51-2.8,3.89.39,1.77,3.06c0,0-6.36,4.16-7.2,4.29s-2.88-.51-2.93-.29-.24,1.83-.24,1.83-5.32,2-5.55-1.53c0-.46.77-7.07.77-7.07" fill="#e55600"/><path d="M161.06,177.19c1.05-6.84,3-13.47,3.78-20.39.5-4.35.86-8.73,1.4-13.08s2.16-8.56,3.2-12.87a.47.47,0,0,0-.22-.53c0-.15.09-.3.14-.45.54-.51,1.09-1,1.62-1.46l7.44,5s0,4.55-.28,11.16c-.86,3.85-1.52,7.28-2.5,10.93a1,1,0,0,1,.23.87,309,309,0,0,0-5.28,34.8,1,1,0,0,1-.66.87l-.21,1.8c-6.47,2.5-7.89-1.85-7.89-1.85s-.29-3.71-.66-8.85C161.05,181.14,161,179.16,161.06,177.19Z" fill="#34323d"/><path d="M206.93,105.89l.17.06a.83.83,0,0,1,.38-1.29c.36-.12.73-.22,1.1-.34a.73.73,0,0,1,.1-.12,2.25,2.25,0,0,1,.39-.28.71.71,0,0,1,.6-.32l.28,0c.31-.07.63-.13,1-.2l1.13-.25a.81.81,0,0,1,.16-.28,50.51,50.51,0,0,0,4.25-5.93c.46-.7,1.76-.28,1.44.6a17.19,17.19,0,0,1-1.15,2.88c1.67-1.7,2.58-2.08,4.1-3.92.65-.78,1.75.34,1.11,1.11-.39.47-1.93,1.66-2.32,2.12.75-.69,2.65-2.11,3.41-2.79s1.87.44,1.11,1.11q-1.82,1.62-3.59,3.29c1.07-.66,2.12-1.35,3.14-2.09.82-.6,1.6.77.79,1.36-1.17.85-2.38,1.64-3.62,2.38a15.91,15.91,0,0,0,2.3-.66c.94-.37,1.35,1.15.42,1.52-.77.3-1.57.55-2.36.8l-1.19.38a4.77,4.77,0,0,0-1.32.58,17.41,17.41,0,0,1-5,2.09l-.33.2a.69.69,0,0,1-.68,0,11.48,11.48,0,0,1-6.24-.5C205.58,107.06,206,105.54,206.93,105.89Z" fill="#fcbf81"/><path d="M183.83,93.15a8.71,8.71,0,0,1,.94-.9.13.13,0,0,0,0,.07.15.15,0,0,0,.25.14l.62-.47a.76.76,0,0,0-.07.24.65.65,0,0,0,.51.72.64.64,0,0,0,.82-.57l.26-.15a.65.65,0,0,0,0,.2.57.57,0,0,0,.8.53l.27-.12a.47.47,0,0,0,.35.14,14.62,14.62,0,0,0,1.76-.08.25.25,0,0,1,.06-.41,16.32,16.32,0,0,1,2.33-.63h.09l.06-.05a2.23,2.23,0,0,0,.43-1.54,1.75,1.75,0,0,0,.83-1.27.27.27,0,0,1-.12-.11,1.21,1.21,0,0,1-.14-.37,1.69,1.69,0,0,1-.09-.58.23.23,0,0,1,.16-.21c-.13-.41-.3-.82-.46-1.19a6.52,6.52,0,0,0,2.06-3.16.56.56,0,0,0-.89-.6,11.82,11.82,0,0,0-1.07,1,.47.47,0,0,0-.21.11,69.23,69.23,0,0,1-5.64,5c-.33.26-4.22,2.94-4,3.13C183.66,92.07,179.75,96.25,183.83,93.15Zm2.09-1,0,0a.15.15,0,0,0,.21.09h0a.58.58,0,0,0,.42.25.36.36,0,0,1-.67-.29Z" fill="#fcbf81"/><path d="M184.52,92.11a6.07,6.07,0,0,0,2-1.1,1.17,1.17,0,0,1,1.67.11,6.84,6.84,0,0,0,.37-.85,1.23,1.23,0,0,1,2.32.8,6,6,0,0,1-2.07,3,10,10,0,0,1-3.31,1.33A1.26,1.26,0,0,1,184,93.87l-.07-.12A1.24,1.24,0,0,1,184.52,92.11Z" fill="#fcbf81"/><path d="M187.91,94.31a5,5,0,0,0,2.93-2,.14.14,0,0,0,.17.11l1.14-.29a2.29,2.29,0,0,0,.67-.24c.49-.31.35-.91.35-1.41a.15.15,0,0,0,0-.09l.2-.17a2.1,2.1,0,0,0,.75-1c.08-.42-.2-.82-.26-1.23a1,1,0,0,0-.19-1.17c-.41-.4-.82-.12-1.21.15q-1.26.86-2.46,1.81c-.16.12,0,.35.2.23q.65-.51,1.32-1a5.78,5.78,0,0,1,1.39-1c1.24-.23.53,1.12.24,1.43s-.37.34-.56.5L191.31,90l0,0a.14.14,0,0,0-.05.11A4.31,4.31,0,0,1,187.85,94C187.66,94.06,187.72,94.36,187.91,94.31Zm3.77-4a.14.14,0,0,0-.16,0s0-.07,0-.1a11.66,11.66,0,0,0,2.1-1.91c0,.12.08.23.12.36a.93.93,0,0,1-.29,1C193.1,90,192.18,90.93,191.67,90.35ZM191,92.07a4.29,4.29,0,0,0,.53-1.48c.41.42.94.25,1.39,0a3.38,3.38,0,0,1,0,.64c0,.32-.25.45-.54.53C191.89,91.85,191.42,92,191,92.07Z" fill="#34323d"/><path d="M170.16,100.63c.48-.75,16.39-10.38,17.36-11.58a8.31,8.31,0,0,1,.62,9.35s-8.92,10.45-13.56,11.38" fill="#5f66fc"/><path d="M181.25,202.73l3.6,1.29a2,2,0,0,0,1.45,1.32.8.8,0,0,0,.5.28,9.42,9.42,0,0,0,4.27-.69c1.72-.54,8.44-3.11,6.58,1.71-1.23.86-2.6,1.61-3.85,2.37-.71.43-1.41.86-2.14,1.26a4.25,4.25,0,0,1-1.26.58c-1,.15-3.31-.58-3.37-.33s-.28,2.1-.28,2.1-6.12,2.34-6.39-1.76C180.33,210.32,181.25,202.73,181.25,202.73Z" fill="#e55600"/><path d="M176.19,165.95c-.75-12.09-1.16-24.26-3.72-36.14-.11-3.09-2.11-1.12-2-2.34,1.09-9.95,15.58,1.89,15.58,1.89.59.48.66,3.53.78,4.22q1,5.73,1.68,11.5c2.4,19.42,1.51,38.75.53,58.23-3.08,3.15-5.09,4.09-10.05,2.06-1-12.75-1.93-25.5-2.75-38.27Z" fill="#34323d"/><path d="M168,120.22a126.13,126.13,0,0,1-.39-18c.11-1.57.54-5.43,2.11-6.34,3.45-2,8.25-.21,11.16,1.93,3.88,2.86,6.12,29.46,6.13,36-5.34,2.11-12.32,2.91-17.78.65-.48-.2-.59-6.73-.66-7.54C168.36,124.73,168.16,122.48,168,120.22Z" fill="#8b93fc"/><path d="M179,111.55a9.22,9.22,0,0,0,6.78,8.1c0,.37.12,2.67.15,3-4.36-1-7.57-6.51-8-11.14C177.88,110.85,179,110.85,179,111.55Z" fill="#34323d"/><path d="M179.16,84.49c.34.16,2,7.61.06,11.58s-8.26-1.69-9.44-5.21S172.77,81.48,179.16,84.49Z" fill="#fcbf81"/><path d="M178.89,85.44a3.36,3.36,0,0,1-2.56,2.63c-2.13.36-3.87.54-3.94,1.48s3.62.55,3.23,2.66a16,16,0,0,1-1.36,4.09c-.41,1-5.78-3.3-6.73-9.07S171.78,81,172,81a5.09,5.09,0,0,1,3.48-1.44c2.52-.07,3,1,3,1A3,3,0,0,1,182,81.58c1.89,2.19.71,5.31-2.05,6.15Z" fill="#e55600"/><path d="M180.62,100.73s13.65,4.62,18.07,3.76a99,99,0,0,0,12.45-4.11c3.55,2,4.63,6.45,3.42,10.27-5.19,1.92-20.61,7.33-26.08,5.83-6.62-1.81-14-4.5-14-4.5S167.32,107.27,180.62,100.73Z" fill="#8b93fc"/><polygon points="87.33 106.38 94.79 110.14 91.73 105.51 87.33 106.38" fill="#e55600"/><polygon points="115.71 49.66 122.99 53.23 117 53.83 115.71 49.66" fill="#e55600"/><ellipse cx="102.38" cy="78.46" rx="31.76" ry="18.7" transform="translate(-13.38 135.36) rotate(-63.64)" fill="#e55600"/><ellipse cx="108.89" cy="81.68" rx="31.76" ry="18.7" transform="translate(-12.65 142.99) rotate(-63.64)" fill="#535468"/><ellipse cx="108.89" cy="81.68" rx="28.4" ry="15.61" transform="translate(-12.65 142.99) rotate(-63.64)" fill="#c9e2f4"/><path d="M113.85,81.19l3.7-8.39s.39-1.78-.9-2.25-2.11,1.16-2.11,1.16L112,80.87" fill="#313556"/><path d="M112,81.36l-11.06-5.94a1.09,1.09,0,0,0-.64-.13,1.54,1.54,0,0,0-1.42,1.14c-.32,1.28,2.08,1.93,2.08,1.93l10.12,4" fill="#313556"/><ellipse cx="112.77" cy="82.16" rx="3.05" ry="2.43" transform="translate(-2.51 160.77) rotate(-70.37)" fill="#535468"/><path d="M134.92,53.52a10.94,10.94,0,0,0-9.69-7.31c-1.32-.06-1.7,2-.37,2a9,9,0,0,1,8.12,6A1,1,0,0,0,134.92,53.52Z" fill="#313556"/><path d="M125.36,39.19c-1.32-.13-1.7,1.91-.37,2A16.74,16.74,0,0,1,139.86,54c.33,1.29,2.27.55,1.94-.73A18.71,18.71,0,0,0,125.36,39.19Z" fill="#313556"/><path d="M71.17,60.57a29.83,29.83,0,0,0-4.73,23.31c.34,1.66,2.78,1.38,2.43-.31a27.08,27.08,0,0,1,4.18-21.31C74,60.89,72.12,59.19,71.17,60.57Z" fill="#313556"/><path d="M74.16,67.79a21.5,21.5,0,0,0-2.34,12.95c.21,1.71,2.58,1,2.38-.66a18.22,18.22,0,0,1,2-10.88C77,67.7,75,66.29,74.16,67.79Z" fill="#313556"/></g></g></svg>