<svg xmlns="http://www.w3.org/2000/svg" xmlns:xlink="http://www.w3.org/1999/xlink" viewBox="0 0 400 300"><defs><linearGradient id="linear-gradient" x1="231.6" y1="223.62" x2="194.71" y2="274.25" gradientUnits="userSpaceOnUse"><stop offset="0.02" stop-color="#42210b"/><stop offset="1" stop-color="#fff"/></linearGradient><linearGradient id="linear-gradient-2" x1="255.83" y1="229.96" x2="199.51" y2="260.3" gradientUnits="userSpaceOnUse"><stop offset="0" stop-color="#d4a397"/><stop offset="1" stop-color="#fff"/></linearGradient><linearGradient id="linear-gradient-3" x1="290.3" y1="213.21" x2="272.79" y2="237.46" xlink:href="#linear-gradient-2"/></defs><title>101-110</title><g style="isolation:isolate"><g id="Layer_2" data-name="Layer 2"><path d="M64.13,204.91c30.33,16.28,119.57,67.78,147.67,84a17.05,17.05,0,0,0,17.14,0l107-62.46a6.39,6.39,0,0,0-.07-11.07L185.25,130.11a5.11,5.11,0,0,0-5,0L64,196.18A5,5,0,0,0,64.13,204.91Z" fill="#ed6128"/><path d="M182.34,271.87c2.05,1.2,4.1,2.37,6.18,3.5l55.94-31.71-13-8.29c-4.2,3.4-18.72,9.55-23.38,12.3-10.16,6-18.5,9.91-28.89,15.5a61.79,61.79,0,0,1-5.8,2.71A56,56,0,0,0,182.34,271.87Z" fill="url(#linear-gradient)" style="mix-blend-mode:multiply"/><path d="M88,104.9a4.37,4.37,0,0,0-2.17,3.81V216c-.16,2.19,2.32,4.21,4.33,3.06l43.93-25c1.77-1,82.18-46.24,82.18-48.28l4.36-112.4a2.11,2.11,0,0,0-3.14-1.92C197.87,42.53,96.9,99.73,88,104.9Z" fill="#68e1fd"/><polygon points="96.71 114.84 96.71 204.88 106.4 198.71 106.4 109.24 96.71 114.84" fill="#fff" opacity="0.6"/><path d="M109.88,95.39,89.8,107.16a1.27,1.27,0,0,0-.63,1.1v107.2a.87.87,0,0,0,1.3.75L216.36,143a5.75,5.75,0,0,1-2.37,4.6C211.59,149.11,90.15,219,90.15,219s-3.35,1.52-4.33-2.48V108.71a4.41,4.41,0,0,1,1.82-3.58c1.94-1.41,127-74.24,127-74.24s4.55-1.67,6.06,1.07l-98,56" fill="#124577"/><path d="M224.43,9.15c-7,4.16-24.37,14.43-29.56,17.45a2.9,2.9,0,0,0-1.44,2.53v71.28c-.11,1.46,1.54,2.8,2.88,2l29.19-16.62a3.34,3.34,0,0,0,1.92-3v-72A2,2,0,0,0,224.43,9.15Z" fill="#ffa513"/><path d="M192.22,275l50.55-31-14.31-10.08-51.9,34.91C181.62,271.3,187,272.86,192.22,275Z" fill="url(#linear-gradient-2)" style="mix-blend-mode:multiply"/><path d="M219.35,237.54c0,.19-4,9.2-4.84,9.76s-3.63-1.2-4.56-.2-2.14,3.11-.07,4,8.23,1.72,9.35,1.23a19,19,0,0,0,3-2.06s.58-4.83,1.22-4.17.41,5.87.87,6a5.06,5.06,0,0,0,1.8-.26l-.59-15.23" fill="#cee831"/><path d="M236.46,229.44c0,.19-4.28,9.06-5.19,9.58s-3.58-1.33-4.55-.36-2.25,3-.21,4,8.17,2,9.3,1.57a19,19,0,0,0,3.12-1.95s.75-4.81,1.37-4.12.2,5.88.66,6a5.06,5.06,0,0,0,1.81-.2l0-15.24" fill="#cee831"/><path d="M221.41,154.74s-12.59,64.51-11.55,79.49c0,0,2.5,10,24.14,6.66,0,0,1.87-7.49,1-20.18s-3.12-66-3.12-66Z" fill="#42210b"/><path d="M223.69,231,227,154l13-1.21s5.67,19.84,4.42,29.41,1.46,22.27,2.08,28.92c.56,6,.78,16.3-1.28,20.92C238.21,234.05,230.66,233.37,223.69,231Z" fill="#42210b"/><path d="M234.91,237.24a128.71,128.71,0,0,0,2.18-14.61,52,52,0,0,0,.05-7.21,70.21,70.21,0,0,0-1.05-7.37,53.48,53.48,0,0,1-.6-13.24c.34-4.54,1-9,1.46-13.57a48.85,48.85,0,0,0-.49-15.3c-.15-.65.86-.93,1-.28,2,9,.07,18.21-.77,27.26A54.39,54.39,0,0,0,237,207c.38,2.28.84,4.54,1.09,6.84a48,48,0,0,1,.17,7.4,119.76,119.76,0,0,1-2.31,16.29C235.79,238.17,234.79,237.89,234.91,237.24Z" fill="#fff"/><path d="M234.1,121.53C232.8,121,213,97.42,212,97.86s-6.33,8-3.59,12.16,21,23.09,21,23.09" fill="#f25555"/><polyline points="207.31 139.44 211.73 137.56 207.9 114.16 195.26 120.07 196.74 131.08 198.59 142.37 207.31 139.44 205.94 137.67" fill="#124577"/><path d="M229.94,121.14c-1.23.45-6.58.45-8.3,5.42a112.27,112.27,0,0,0-3.06,11.27l-12.8-7.26s-.76,11.27.76,14.14,9,9.17,15.1,5.54c0,0-.57,4.4,0,5.73s14.65,3,17.9-1.24,1-24.17,1-24.17" fill="#ff6161"/><path d="M206,136.22c.21-1.61.26-3.24.43-4.86a8.15,8.15,0,0,1-1.21-1.15c-.44-.47-.86-1-1.27-1.45s-.54-1.07-.82-1.6l-.32-.66c-.4-.83-.77-2.15-1.72-2.53a1.24,1.24,0,0,0-1.71,1c-.16,1.46,2.31,4.56-.61,4.47a10.43,10.43,0,0,0-1.64.05c-1.11.15-2.14.69-1.73,2a2,2,0,0,0,.25.51,1.5,1.5,0,0,0-.9,2,1.66,1.66,0,0,0,1,1,1.07,1.07,0,0,0,0,1.36,1.63,1.63,0,0,0,1,.63,1.35,1.35,0,0,0,.07.65c.37,1,1.67,1.34,2.6,1.5a30.4,30.4,0,0,0,6.23.17C205.7,138.21,205.87,137.22,206,136.22Z" fill="#f7931e"/><path d="M200.75,95.33c-1.27,1.17-1.12,2.88-.67,4.58a.59.59,0,0,1,.35.13,27.38,27.38,0,0,0,3.07,1.83,19.83,19.83,0,0,0,2.57,1.18,7.21,7.21,0,0,1,2.45,1.5,37.92,37.92,0,0,1,1.76-4.54c-3-2.79-5.6-4.8-8.12-8.06-.27-.35-.88-1.49-1.24-1.45a.83.83,0,0,0-1,.75c-.22,1.45,1,2.64,1.86,3.67C201.85,95,200.71,95.28,200.75,95.33Z" fill="#f7931e"/><path d="M201.23,96.59c.31-.26-.14-.7-.44-.44a4.26,4.26,0,0,0-.69.73,3.3,3.3,0,0,0-.67,1.22,3.14,3.14,0,0,0,0,.32v0a.32.32,0,0,0,0,.14.83.83,0,0,0,.19.62c.31.29.71,0,.93-.26a3.11,3.11,0,0,0,.61-1.23c.1-.34.27-.76,0-1.05Z" fill="#f7931e"/><path d="M208.14,103.7a5.71,5.71,0,0,0-2.58-1.54c-1.33-.36-2.75-.4-3.27-2-.31-.93,0-1.82-.55-2.69a6.81,6.81,0,0,0-.42-.54l-.3-.35a.88.88,0,0,1-.34-.63.67.67,0,0,1,.88-.6,1.86,1.86,0,0,1,.66.47l0,.05c.39.27.76.57,1.12.88s.75-.18.44-.44c-.72-.62-2.25-2.21-3.3-1.44a1,1,0,0,0-.48.89h0a11,11,0,0,0-.89,1.61,2.29,2.29,0,0,0-.32,1.26,1.26,1.26,0,0,0,1.07,1,1.46,1.46,0,0,0,0,.41,1.49,1.49,0,0,0,1.74.94.24.24,0,0,0,.22-.21,3.2,3.2,0,0,0,.88,1.05,4.75,4.75,0,0,0,2.12.74,5.27,5.27,0,0,1,2.8,1.5A.31.31,0,0,0,208.14,103.7ZM200,99.07l-.07,0c-.29.14-.47-.68-.47-.8a2.46,2.46,0,0,1,.36-.87c.14-.3.3-.59.47-.87a7.82,7.82,0,0,0,.54.77v0A9.74,9.74,0,0,0,200,99.07Zm1.49,1.39c-.91.12-1-.65-.79-1.34a9.4,9.4,0,0,1,.54-1.22l.1.18c.35.77.11,1.64.39,2.44A.33.33,0,0,0,201.52,100.45Z" fill="#42210b"/><path d="M222.48,105.32c-.8.51-.77,13.16,2.83,14.72,4.7,2,8.47-3.52,8.91-6.51S231.76,99.44,222.48,105.32Z" fill="#f7931e"/><path d="M247.27,125.69a5.53,5.53,0,0,1-1.67-1.69,7.52,7.52,0,0,1-.3-2.59c-.12-2.14-.67-4.4-2.65-5.58-1.26-.75-3-.09-4.09-1.24-1.19-1.3-.8-3.22-1-4.81-.85-8.27-13-9.77-16.94-3a4.86,4.86,0,0,0,1.43,6.52A4.8,4.8,0,0,0,224,114c1,.16,2,.13,2.43,1.23.65,1.63-.55,3.32-1.13,4.77-.92,2.26-1.21,5.51,1,7.14a11.33,11.33,0,0,0,3.56,1.31,2.8,2.8,0,0,1,1.39.77c.59.74.22,1.76.09,2.59a4.08,4.08,0,0,0,0,1.33,2.82,2.82,0,0,0,.67,2.35c1.32,1.61,3.75,1.66,5.67,1.56a17.7,17.7,0,0,0,6.46-1.59c1.79-.81,4-2.07,4.93-3.88C250.21,129.43,249,127.15,247.27,125.69Z" fill="#42210b"/><path d="M226.53,136.87a27,27,0,0,1-1.18,7.6,9.11,9.11,0,0,1-4.09,5.41c-.4.24,0,.88.37.63a9.6,9.6,0,0,0,4.24-5.29,26.73,26.73,0,0,0,1.39-8.35A.36.36,0,0,0,226.53,136.87Z" fill="#124577" opacity="0.7"/><path d="M273.75,245.35l36.31-24.69L293.2,204.27l-42,28.24C256.28,235,268.57,243.21,273.75,245.35Z" fill="url(#linear-gradient-3)" style="mix-blend-mode:multiply"/><path d="M276.08,178.91v37.91s36.43,2,36.43,0V178.91" fill="#68e1fd"/><ellipse cx="294.3" cy="216.49" rx="18.22" ry="8.32" fill="#68e1fd"/><ellipse cx="294.3" cy="178.91" rx="18.22" ry="8.32" fill="#3129a3"/><path d="M282.94,185.38l.13.07c.7.24,1.41.46,2.13.65l-5-41.51a2.49,2.49,0,0,0-2.54.47l5.08,40.25Z" fill="#f78b72"/><path d="M288.6,186.67l1.54-39a2.49,2.49,0,0,0-2.58.06l-1.26,38.57A20.42,20.42,0,0,0,288.6,186.67Z" fill="#f78b72"/><path d="M294.3,187.23l5-40.62L309.44,152l-4.1,34.12A31,31,0,0,1,294.3,187.23Z" fill="#fcb749"/><path d="M159.52,120.48l1.5,34.27s21.6-6,23.07-36.47l-1-6.22Z" fill="#cee831"/><path d="M159.52,120.48l5.86-32.15s15.52.86,16.5,25.83Z" fill="#ffa513"/><path d="M155.84,161a19.19,19.19,0,0,1-3.39-.3c-7.42-1.32-13.52-6.86-17.17-15.6-3.44-8.22-4.32-18.43-2.48-28.73,4-22.18,18.8-37.46,33.77-34.79,7.42,1.32,13.52,6.86,17.17,15.6,3.44,8.22,4.32,18.43,2.48,28.73h0C184.39,136.22,180,145.49,174,152,168.49,157.89,162.16,161,155.84,161Zm7.43-72.86c-10.21,0-20.75,12.8-23.72,29.44-1.61,9-.88,17.86,2.06,24.89,2.72,6.51,7,10.59,12.05,11.5s10.48-1.45,15.29-6.61c5.18-5.57,8.93-13.61,10.54-22.64h0c1.61-9,.88-17.86-2.06-24.89-2.72-6.51-7-10.59-12.05-11.5A11.93,11.93,0,0,0,163.27,88.14Z" fill="#f2f2f2"/><line x1="198.74" y1="33.36" x2="221.98" y2="20.1" fill="#f2f2f2" stroke="#f2f2f2" stroke-miterlimit="10"/><line x1="198.74" y1="38.65" x2="221.98" y2="25.39" fill="#f2f2f2" stroke="#f2f2f2" stroke-miterlimit="10"/><line x1="198.18" y1="45.27" x2="221.41" y2="32.02" fill="#f2f2f2" stroke="#f2f2f2" stroke-miterlimit="10"/><line x1="198.18" y1="50.56" x2="221.41" y2="37.31" fill="#f2f2f2" stroke="#f2f2f2" stroke-miterlimit="10"/><line x1="200.4" y1="73.3" x2="223.64" y2="60.05" fill="#f2f2f2" stroke="#f2f2f2" stroke-miterlimit="10"/><line x1="200.4" y1="78.6" x2="223.64" y2="65.34" fill="#f2f2f2" stroke="#f2f2f2" stroke-miterlimit="10"/><line x1="199.83" y1="85.22" x2="223.07" y2="71.97" fill="#f2f2f2" stroke="#f2f2f2" stroke-miterlimit="10"/><line x1="199.83" y1="90.51" x2="223.07" y2="77.26" fill="#f2f2f2" stroke="#f2f2f2" stroke-miterlimit="10"/><path d="M200.35,68.66s.37-10.17,4.67-9.4,4.28,2.57,7,0,1.39-9.68,5.7-9.68,3.69,8.18,3.69,8.18Z" fill="#fff"/><polygon points="111.49 107.24 111.49 180.79 119.41 175.75 119.41 102.66 111.49 107.24" fill="#fff" opacity="0.6"/><path d="M72.4,155.93l47-27.12a2.47,2.47,0,0,1,3.7,2.14V166.8a3.91,3.91,0,0,1-2,3.4L74.82,196.36a2.94,2.94,0,0,1-4.47-2.5V159.48A4.1,4.1,0,0,1,72.4,155.93Z" fill="#cee831"/><line x1="95.11" y1="157.06" x2="118.34" y2="143.81" fill="#f2f2f2" stroke="#fff" stroke-miterlimit="10"/><line x1="95.11" y1="162.36" x2="118.34" y2="149.1" fill="#f2f2f2" stroke="#fff" stroke-miterlimit="10"/><line x1="94.54" y1="168.98" x2="117.78" y2="155.73" fill="#f2f2f2" stroke="#fff" stroke-miterlimit="10"/><line x1="94.54" y1="174.27" x2="117.78" y2="161.02" fill="#f2f2f2" stroke="#fff" stroke-miterlimit="10"/><path d="M76.7,179.06v11.73l3.08-2V177.36C78.72,177.88,77.69,178.44,76.7,179.06Z" fill="#fff"/><path d="M82.85,171.56v15.85l3.08-2v-15.4Z" fill="#fff"/><path d="M89,163.38v20.78l3.08-2V162.1C91.08,162.56,90.06,163,89,163.38Z" fill="#fff"/></g></g></svg>