<svg xmlns="http://www.w3.org/2000/svg" xmlns:xlink="http://www.w3.org/1999/xlink" viewBox="0 0 400 300"><defs><linearGradient id="linear-gradient" x1="302.12" y1="198.06" x2="279" y2="221.75" gradientUnits="userSpaceOnUse"><stop offset="0.01" stop-color="#a67c52"/><stop offset="1" stop-color="#fff"/></linearGradient><linearGradient id="linear-gradient-2" x1="222.84" y1="209.32" x2="196.17" y2="256.5" xlink:href="#linear-gradient"/><linearGradient id="linear-gradient-3" x1="125.94" y1="177.47" x2="108.41" y2="217.91" xlink:href="#linear-gradient"/><linearGradient id="linear-gradient-4" x1="120.93" y1="175.3" x2="103.41" y2="215.74" xlink:href="#linear-gradient"/><linearGradient id="linear-gradient-5" x1="208.41" y1="176.91" x2="186.98" y2="189.71" gradientUnits="userSpaceOnUse"><stop offset="0" stop-color="gray"/><stop offset="1" stop-color="#fff"/></linearGradient></defs><title>a</title><g style="isolation:isolate"><g id="Layer_2" data-name="Layer 2"><ellipse cx="211.76" cy="200.88" rx="142.52" ry="60.46" fill="#fecab5"/><path d="M297.23,188.11c-14.73,8.59-25.26,14.36-47.92,27.3,17.15,10.42,30.44,20,32.37,21.14L328,208.26C324.08,206.17,315.58,197.18,297.23,188.11Z" fill="url(#linear-gradient)" style="mix-blend-mode:multiply"/><path d="M143.66,253.59c27.2,7.53,55.44,7.21,83.44,7.08l32.28-19.85c-4-2.09-30.18-9.55-48.52-18.61-14.49,8.45-44.88,18.74-67.37,31.37A.57.57,0,0,1,143.66,253.59Z" fill="url(#linear-gradient-2)" style="mix-blend-mode:multiply"/><path d="M79.22,223.62c2.71,3.7,5.92,7.37,9.86,9.79a61.64,61.64,0,0,0,8.29,4l64.4-37.8c-5.16-2.72-22.2-12.36-46.11-24.18-15.09,8.8-26.81,15.34-45.47,25.92A47.62,47.62,0,0,0,79.22,223.62Z" fill="url(#linear-gradient-3)" style="mix-blend-mode:multiply"/><path d="M92.07,236.33c1.67,1.14,2.81,1.91,3.32,2.21l.72-.43C94.76,237.53,93.41,237,92.07,236.33Z" fill="url(#linear-gradient-4)" style="mix-blend-mode:multiply"/><path d="M180.43,135c-.24-4.1.61-8.36,1.08-12.32a101.35,101.35,0,0,1,3.75-18.52C189,92,197.12,78.5,212.75,79.12,245,80.4,246.37,132,246.27,138.68s-13.12,23.63-38.48,22.22c-7.59-.42-14.19-5.08-19-10.19-3-3.18-5.87-6.69-7.36-10.74A17.44,17.44,0,0,1,180.43,135Z" fill="#53b7b7"/><path d="M199.9,132.07s-5.2-26.66-.9-30c9.3-7.15,23.79-4.78,27.09.82s-.93,29.94-.93,29.94S206.2,135.66,199.9,132.07Z" fill="#f9aa43"/><path d="M274.34,200.61s5.16,13.54,35.42,13.54c38.87,0,46.68-60.27,21.61-82a32.88,32.88,0,0,0-3.52-2.67,23.21,23.21,0,0,0-18.09-3.2c-21.34,4.85-9.8,27.21-19.31,34.54S261,174.36,274.34,200.61Z" fill="#68e1fd"/><path d="M306.7,136.84s16.12-2.5,18.06,15.67-4.32,30.26-14.25,32.2-26.22-10.27-22.18-19.06S306.7,136.84,306.7,136.84Z" fill="#050c29" opacity="0.1"/><path d="M299.75,220.19c-.14.19-1.33,4.37-1.89,5.56s-2,7.25,1.89,8.37,5.67-5.69,5.92-8.06a52.43,52.43,0,0,0,0-6.52" fill="#050c29"/><path d="M265.9,201.22a5.15,5.15,0,0,1-.86,1.64c-.44.37-5.3,2-6.36,2.58s-2.49,2.26-2.31,3.7,15-.61,17.46-2.42c0,0,.53-1.62-.58-5.89S265.9,201.22,265.9,201.22Z" fill="#050c29"/><path d="M297.24,164s-23.23-.61-29.41,3.85-3.88,32.4-2.89,33.53,8.55.47,9.39-.75l.2-22.89s23.08-1.37,24.12-1.47,1.34,2.69.71,3.29-2.64,4.19-2.7,6.08,1.61,34.82,1.61,34.82,6.18,2.42,9.11-1.17c0,0,.86-19.89.34-26.08,0,0,8.9-11.77,10.1-17.79a22.12,22.12,0,0,0-.71-11.06" fill="#ff475a"/><path d="M299,163.95s-3.14-26.4-.35-29.49,10.71-1,14,1.13,7.59,3.51,9,9.12c1.74,6.81-5.4,22.25-7.26,23.18S304.34,170.24,299,163.95Z" fill="#f9aa43"/><path d="M306.41,133.23s-6-5.25-9.59,0-3.3,11.18-4.85,14.33c-1.64,3.32-9.23,17.66-9.23,17.66s5.23,1.05,6.41,4.18c0,0,10-14.86,11.38-19.25" fill="#f9aa43"/><path d="M309.71,133.78s10.42,4.56,12,10.93c1.09,4.38-2,21.19-3.43,22.6s-12.51,9.17-14.15,9.17c0,0-1.61-4.13-5.12-4.24,0,0,12.38-8.14,12.33-9.32s3.12-13.71,3.12-13.71" fill="#f9aa43"/><path d="M298.83,130a3.89,3.89,0,0,1-1.68-3.84c.35-2.75,6.18-8.6,12.38-6.16s3.81,10.27,2.75,12.37a7.24,7.24,0,0,1-3.6,3.36c-.25-.08-3.57-1.57-3.57-1.57" fill="#010e20"/><path d="M298.89,129.1c-.12-.11-.38,8.41,3,10.09s7-4.06,7-4.06,1.74-1.79.7-2.67-1.83.62-1.83.62-.59,1-1,1,.36-2.8-1-3.68S300.81,130.87,298.89,129.1Z" fill="#ffc08d"/><polygon points="286.91 188.11 303.62 178.97 280.38 165.92 265.76 175.45 286.91 188.11" fill="#4179b6"/><polygon points="261.84 160.82 285.6 174.4 286.91 188.11 265.76 175.45 261.84 160.82" fill="#003f99"/><path d="M301,170.94a14.86,14.86,0,0,1-2.66,2.11,37.21,37.21,0,0,0-5.12,1.56c-.65.43-3,3.79-2.81,4.24s1.71-.39,3-2.13c-.27.34-2.31,2.92-2,3.31s1.6-.08,3.41-2.31c0,0-2,2.49-1.75,2.91s2.78-2.1,3-2.07-1.29,1.43-.93,2,2.6-1.45,3.1-1.92,1.85-.1,3.65-1.32a13.55,13.55,0,0,0,2.54-2.66A5.27,5.27,0,0,0,301,170.94Z" fill="#ffc08d"/><path d="M286.85,165.65l0,0a6.5,6.5,0,0,0-3.57-1.24,43.87,43.87,0,0,0-2.37,3.76c-.3.65-.55,3.26-.25,3.41a1.39,1.39,0,0,0,.85-.05s-.05.65.5.65.6-.25.6-.25.2,1,.65,1.1a2.12,2.12,0,0,0,1,.05s.55,1.15,1.1,1,.05-2.51,0-3,.3-2.36.85-2.46.8,1.45,1,2-.05,2.56.54,2.61.61-.5.71-1.25.35-3.66-.3-4.41S287,165.7,286.85,165.65Z" fill="#ffc08d"/><path d="M143.63,193.43S138.48,207,108.22,207c-38.87,0-46.68-60.27-21.61-82a32.88,32.88,0,0,1,3.52-2.67,23.21,23.21,0,0,1,18.09-3.2c21.34,4.85,9.8,27.21,19.31,34.54S157,167.18,143.63,193.43Z" fill="#8ea3ff"/><path d="M111.27,129.66s-16.12-2.5-18.06,15.67,4.32,30.26,14.25,32.2,26.22-10.27,22.18-19.06S111.27,129.66,111.27,129.66Z" fill="#7c96f7"/><path d="M118.22,213c.14.19,1.33,4.37,1.89,5.56s2,7.25-1.89,8.37-5.67-5.69-5.92-8.06a52.43,52.43,0,0,1,0-6.52" fill="#050c29"/><path d="M152.07,194a5.15,5.15,0,0,0,.86,1.64c.44.37,5.3,2,6.36,2.58s2.49,2.26,2.31,3.7-15-.61-17.46-2.42c0,0-.53-1.62.58-5.89S152.07,194,152.07,194Z" fill="#050c29"/><path d="M120.73,156.8s23.23-.61,29.41,3.85,5.13,32,4.14,33.12-12.29,1.09-13.14-.14l2.3-23.1s-23.08-1.37-24.12-1.47-1.34,2.69-.71,3.29,2.64,4.19,2.7,6.08-.46,34.91-.46,34.91-9.42,2.62-12.35-1c0,0,.31-22.43.82-28.61,0,0-8-9.52-9.18-15.54a22.12,22.12,0,0,1,.71-11.06" fill="#ff475a"/><path d="M118.95,156.77s3.14-26.4.35-29.49-10.71-1-14,1.13-7.59,3.51-9,9.12c-1.74,6.81,5.4,22.25,7.26,23.18S113.63,163.06,118.95,156.77Z" fill="#68e1fd"/><path d="M111.56,126.06s6-5.25,9.59,0,3.3,11.18,4.85,14.33c1.64,3.32,9.23,17.66,9.23,17.66s-5.23,1.05-6.41,4.18c0,0-10-14.86-11.38-19.25" fill="#68e1fd"/><path d="M108.26,126.6s-10.42,4.56-12,10.93c-1.09,4.38,2,21.19,3.43,22.6s12.51,9.17,14.15,9.17c0,0,1.61-4.13,5.12-4.24,0,0-12.38-8.14-12.33-9.32S103.5,142,103.5,142" fill="#68e1fd"/><path d="M120.43,117.18a2.62,2.62,0,0,0-1.73-3.85,3.69,3.69,0,0,0-2.12.06,3.61,3.61,0,0,0-5.24,0,4.65,4.65,0,0,0-.88,1.48c-2-.11-4.1.46-4.92,2.58-1.14,2.93.31,6.19,1.7,8.76a2.27,2.27,0,0,0,4.11-.54l.22-.8a3.26,3.26,0,0,0,2-1.73,2.44,2.44,0,0,0,.19-.6,3.67,3.67,0,0,0,.45,0l.13.12a2.22,2.22,0,0,0,2.15,1.66c2-.12,4-.56,5-2.41A3.65,3.65,0,0,0,120.43,117.18Z" fill="#010e20"/><path d="M119.14,120.64c.13-.12.43,9.45-3.32,11.34s-7.83-4.56-7.83-4.56-2-2-.79-3,2.06.69,2.06.69.66,1.16,1.13,1.18-.4-3.14,1.08-4.14S117,122.63,119.14,120.64Z" fill="#ffc08d"/><ellipse cx="113.3" cy="126.48" rx="1.79" ry="2.04" fill="none" stroke="#42210b" stroke-miterlimit="10" stroke-width="0.25"/><ellipse cx="118.04" cy="125.7" rx="2.13" ry="1.65" transform="translate(-33.59 207.82) rotate(-75.24)" fill="none" stroke="#42210b" stroke-miterlimit="10" stroke-width="0.25"/><line x1="110.29" y1="125.89" x2="111.5" y2="126.48" fill="none" stroke="#42210b" stroke-miterlimit="10" stroke-width="0.25"/><line x1="115.09" y1="126.48" x2="116.39" y2="126.19" fill="none" stroke="#42210b" stroke-miterlimit="10" stroke-width="0.25"/><polygon points="131.06 180.94 114.35 171.8 137.59 158.74 152.21 168.27 131.06 180.94" fill="#4179b6"/><polygon points="156.13 153.65 132.37 167.23 131.06 180.94 152.21 168.27 156.13 153.65" fill="#003f99"/><path d="M124.71,167.44a37.21,37.21,0,0,0-5.12-1.56,12,12,0,0,1-2.29-1.78c-1.08,1.33-2.16,2.67-3.23,4a11.13,11.13,0,0,0,2,2c1.8,1.22,3.15.85,3.65,1.32s2.73,2.45,3.1,1.92-1.17-1.93-.93-2,2.74,2.5,3,2.07-1.75-2.91-1.75-2.91c1.81,2.23,3.13,2.73,3.41,2.31s-1.77-3-2-3.31c1.28,1.74,2.83,2.57,3,2.13S125.36,167.87,124.71,167.44Z" fill="#ffc08d"/><path d="M131.12,158.47l0,0a6.5,6.5,0,0,1,3.57-1.24A43.87,43.87,0,0,1,137,161c.3.65.55,3.26.25,3.41a1.39,1.39,0,0,1-.85-.05s.05.65-.5.65-.6-.25-.6-.25-.2,1-.65,1.1a2.12,2.12,0,0,1-1,.05s-.55,1.15-1.1,1-.05-2.51,0-3-.3-2.36-.85-2.46-.8,1.45-1,2,.05,2.56-.54,2.61-.61-.5-.71-1.25-.35-3.66.3-4.41S131,158.52,131.12,158.47Z" fill="#ffc08d"/><path d="M205,87.65s.19,11.15,5.65,11.64,7.64-5.89,7.38-10.24S207.7,83.18,205,87.65Z" fill="#ffc08d"/><path d="M220.05,84.24c-2.23-4.28-10.68-6.23-15-1.35-3.24,3.7-4.18,15.06-1.52,15.84a7.72,7.72,0,0,0,5.12-.62,13.52,13.52,0,0,1-2.4-9.36.63.63,0,0,1,.95-.47h4.36l.93-2.34.12,2.34h2.71l1-1.58s.73,3.64,1.13,6.1S216,97.9,216,97.9s3.93,1.11,5,.75S222.28,88.52,220.05,84.24Z" fill="#010e20"/><path d="M199,102.11a12.77,12.77,0,0,0-4.11,7.48c-.62,4.61,2.41,17.52,2.41,17.52H206l-1.08-16" fill="#f9aa43"/><path d="M203.65,109.37c-.05-.53-.89-.54-.84,0q.58,5.7,1.48,11.35c.08.53.89.31.81-.22Q204.21,115,203.65,109.37Z" fill="#010e20"/><path d="M220.79,110c0-.54-.85-.54-.84,0a70.74,70.74,0,0,1-.65,12c-.07.53.73.75.81.22A72,72,0,0,0,220.79,110Z" fill="#010e20"/><polygon points="192.07 118.86 231.44 118.86 226.96 139.43 195.56 139.43 192.07 118.86" fill="#003f99"/><path d="M195.56,139.43s-3.13,7.29-2.57,11.27,4.16,19.52,8.66,22,19.91,2.47,21.68.87,6.79-21.07,6.53-24.38-2.91-9.71-2.91-9.71" fill="#050c29"/><ellipse cx="209.5" cy="179.94" rx="49.96" ry="24.08" fill="#e88815"/><path d="M179.69,189.18q-3.6,9.61-7.11,19.26c-3.51,9.65-7.12,19.29-10.17,29.1a15.54,15.54,0,0,0-1.16,4.56c0,2.21,1.9,2.9,3.44,1.14.87-1,21.16-54.07,21.16-54.07Z" fill="#e88815"/><path d="M241,187.9q3.6,9.61,7.11,19.26c3.51,9.65,7.12,19.29,10.17,29.1a15.54,15.54,0,0,1,1.16,4.56c0,2.21-1.9,2.9-3.44,1.14-.87-1-21.16-54.07-21.16-54.07Z" fill="#e88815"/><path d="M213,166.88q.17,10.26.25,20.53c.08,10.27.25,20.56-.16,30.82a15.54,15.54,0,0,1-.44,4.68c-.76,2.08-2.76,2.1-3.62-.07-.49-1.22-1.84-58-1.84-58Z" fill="#e88815"/><path d="M117.29,163.56q-4-3.86-8.25-7.35a.43.43,0,0,0,.11-.33q-.36-6.07-.45-12.15a.5.5,0,0,0-1,0q.08,5.87.43,11.74l-.67-.54c-.5-.4-1.21.31-.71.71a128.47,128.47,0,0,1,9.82,8.63C117,164.71,117.75,164,117.29,163.56Z" fill="#4179b6"/><path d="M120.78,134.27c0-.64-1-.64-1,0q-.7,11-.49,22.11a.47.47,0,0,0,0,.13l0,.59a.5.5,0,0,0,1,0Q120.05,145.68,120.78,134.27Z" fill="#4179b6"/><path d="M203,169.24c-8.37,4.88-14.36,8.16-27.23,15.51,9.75,5.92,17.3,11.37,18.4,12l28.94-17C220.86,178.6,213.43,174.39,203,169.24Z" fill="url(#linear-gradient-5)" style="mix-blend-mode:multiply"/><ellipse cx="210.86" cy="173.33" rx="14.81" ry="10.43" fill="#68e1fd"/><ellipse cx="210.85" cy="167.17" rx="11.09" ry="4.54" fill="#974c26"/><path d="M210.44,159.6c0-2-.07-4.1-.23-6.14q-.06-.8-.14-1.59l-.12-1c0-.31-.16-1.09-.16-1.06q-.1-.62-.22-1.25a48.9,48.9,0,0,0-7.92-19.36,28.32,28.32,0,0,0-2.2,11.34c0,1.13.09,2.24.18,3.37,0,.3,0,.43,0,.48s0-.07,0,.19c.09.55.19,1.1.3,1.65a44.76,44.76,0,0,0,1.75,6.15,37.37,37.37,0,0,0,2.39,5.36c1,1.94,2.11,3.82,3.28,5.66.92,1.44,1.79,2.73,2.66,3.95C210.31,164.72,210.44,162.16,210.44,159.6Zm-5.82-23a1.84,1.84,0,0,0-.05-.8h0q.43.43.83.89A2.54,2.54,0,0,0,204.61,136.57Z" fill="#999a1c"/><path d="M214.26,161.18c1.11-1.72,2.16-3.49,3.12-5.29q.38-.7.74-1.42l.46-.94.44-1q.25-.58.49-1.17a48.9,48.9,0,0,0,3.81-20.57,28.32,28.32,0,0,0-8,8.35c-.6,1-1.14,1.94-1.66,2.93l-.23.42s0-.05-.06.19c-.22.51-.43,1-.64,1.55a44.76,44.76,0,0,0-1.85,6.12,37.37,37.37,0,0,0-.88,5.8c-.2,2.17-.29,4.35-.3,6.53,0,1.7,0,3.26.11,4.76C211.38,165.42,212.87,163.34,214.26,161.18Zm7.54-22.52a1.84,1.84,0,0,0,.39-.7h0q.12.6.22,1.2A2.54,2.54,0,0,0,221.8,138.66Z" fill="#999a1c"/><path d="M214.18,166.28q1.73-.86,3.39-1.85l.86-.53.56-.36.55-.39.64-.47a30.75,30.75,0,0,0,8.7-9.87,17.81,17.81,0,0,0-7,1.93c-.63.32-1.24.68-1.84,1l-.26.15s0,0-.09.08l-.84.63a28.15,28.15,0,0,0-3,2.71,23.5,23.5,0,0,0-2.35,2.85c-.81,1.11-1.56,2.25-2.27,3.43-.55.92-1,1.77-1.48,2.6C211.25,167.65,212.73,167,214.18,166.28Zm11.34-9.72a1.16,1.16,0,0,0,.43-.25h0q-.13.36-.27.72A1.6,1.6,0,0,0,225.52,156.57Z" fill="#999a1c"/><path d="M210.44,159.6c0-2-.07-4.1-.23-6.14q-.06-.8-.14-1.59l-.12-1c0-.31-.16-1.09-.16-1.06q-.1-.62-.22-1.25a48.9,48.9,0,0,0-7.92-19.36,28.32,28.32,0,0,0-2.2,11.34c0,1.13.09,2.24.18,3.37,0,.3,0,.43,0,.48s0-.07,0,.19c.09.55.19,1.1.3,1.65a44.76,44.76,0,0,0,1.75,6.15,37.37,37.37,0,0,0,2.39,5.36c1,1.94,2.11,3.82,3.28,5.66.92,1.44,1.79,2.73,2.66,3.95C210.31,164.72,210.44,162.16,210.44,159.6Zm-5.82-23a1.84,1.84,0,0,0-.05-.8h0q.43.43.83.89A2.54,2.54,0,0,0,204.61,136.57Z" fill="#999a1c"/><path d="M214.26,161.18c1.11-1.72,2.16-3.49,3.12-5.29q.38-.7.74-1.42l.46-.94.44-1q.25-.58.49-1.17a48.9,48.9,0,0,0,3.81-20.57,28.32,28.32,0,0,0-8,8.35c-.6,1-1.14,1.94-1.66,2.93l-.23.42s0-.05-.06.19c-.22.51-.43,1-.64,1.55a44.76,44.76,0,0,0-1.85,6.12,37.37,37.37,0,0,0-.88,5.8c-.2,2.17-.29,4.35-.3,6.53,0,1.7,0,3.26.11,4.76C211.38,165.42,212.87,163.34,214.26,161.18Zm7.54-22.52a1.84,1.84,0,0,0,.39-.7h0q.12.6.22,1.2A2.54,2.54,0,0,0,221.8,138.66Z" fill="#999a1c"/><path d="M214.18,166.28q1.73-.86,3.39-1.85l.86-.53.56-.36.55-.39.64-.47a30.75,30.75,0,0,0,8.7-9.87,17.81,17.81,0,0,0-7,1.93c-.63.32-1.24.68-1.84,1l-.26.15s0,0-.09.08l-.84.63a28.15,28.15,0,0,0-3,2.71,23.5,23.5,0,0,0-2.35,2.85c-.81,1.11-1.56,2.25-2.27,3.43-.55.92-1,1.77-1.48,2.6C211.25,167.65,212.73,167,214.18,166.28Zm11.34-9.72a1.16,1.16,0,0,0,.43-.25h0q-.13.36-.27.72A1.6,1.6,0,0,0,225.52,156.57Z" fill="#999a1c"/></g></g></svg>