<svg id="Layer_2" data-name="Layer 2" xmlns="http://www.w3.org/2000/svg" xmlns:xlink="http://www.w3.org/1999/xlink" viewBox="0 0 400 300"><defs><linearGradient id="linear-gradient" x1="139.83" y1="244.23" x2="215.3" y2="180.26" gradientUnits="userSpaceOnUse"><stop offset="0.01" stop-color="#286e63"/><stop offset="1" stop-color="#284963"/></linearGradient><linearGradient id="linear-gradient-2" x1="280.36" y1="168.63" x2="283.41" y2="165.39" gradientUnits="userSpaceOnUse"><stop offset="0" stop-color="#ff734d" stop-opacity="0"/><stop offset="1" stop-color="#42210b"/></linearGradient><linearGradient id="linear-gradient-3" x1="254.44" y1="129.76" x2="257.49" y2="126.51" xlink:href="#linear-gradient-2"/><linearGradient id="linear-gradient-4" x1="329.27" y1="175.56" x2="332.32" y2="172.31" xlink:href="#linear-gradient-2"/><linearGradient id="linear-gradient-5" x1="125.76" y1="150.07" x2="128.81" y2="146.83" xlink:href="#linear-gradient-2"/><linearGradient id="linear-gradient-6" x1="86.57" y1="209.36" x2="89.62" y2="206.11" xlink:href="#linear-gradient-2"/></defs><title>PP</title><path d="M194.38,288.08,14.93,182c-5.71-3.21-10.61-8.48-5-11.93L190,66.3c2.7-1.67,6.81-2.77,9.55-1.18L387.9,174.45c5.72,3.32,6.74,12.58,1,15.9L218,287.91A23.86,23.86,0,0,1,194.38,288.08Z" fill="#2c7e72"/><path d="M107.1,218.17s32.76-26.38,64.95-48.31c14.16-9.65,65.87-1.35,69.67-1.2S291,209.19,298,226.18c0,0-84.6,48-92.91,47S107.1,218.17,107.1,218.17Z" fill="#286e63"/><polyline points="170.97 178.82 101.81 233.37 161.71 268.77 244.41 188.75" fill="url(#linear-gradient)"/><polygon points="220.14 168.66 183.3 175.31 170.97 183.04 170.97 189.08 202.65 207.2 212.71 207.2 244.41 188.75 244.41 182.08 220.14 168.66" fill="#b8bccc"/><polygon points="220.17 164.38 183.38 171.04 170.97 178.82 170.97 184.75 202.7 202.92 212.75 202.92 244.41 184.47 244.41 177.81 220.17 164.38" fill="#dbdce1"/><polygon points="219.16 132.22 184.92 138.42 173.37 145.66 173.37 151.17 202.9 168.08 212.25 168.08 241.71 150.92 241.71 144.72 219.16 132.22" fill="#dbdce1"/><polygon points="218.03 133.91 186.99 139.53 176.6 146.03 176.6 151.12 203.29 166.39 211.77 166.39 238.48 150.85 238.48 145.23 218.03 133.91" fill="#b8bccc"/><polygon points="218.06 130.31 187.06 135.92 176.6 142.48 176.6 147.47 203.34 162.78 211.8 162.78 238.48 147.24 238.48 141.63 218.06 130.31" fill="#dbdce1"/><path d="M210.44,146.41c.07.29.73,2.94,1.54,3.74a3,3,0,0,1-.77,4c-1.43.81-5.72,0-6.15-.51s-5.92-2.32-5.92-2.32,3.74-5.24,4.77-5.53S210.44,146.41,210.44,146.41Z" fill="#c6c6c6"/><path d="M214.41,144.14a49.38,49.38,0,0,1,6.17,2.5,8.37,8.37,0,0,0,3.82.59c.59-.07,1.76-2.64,1.54-3.74s-4.7-5.73-4.7-5.73Z" fill="#c6c6c6"/><path d="M244.94,23.54a54.19,54.19,0,0,1,3.47-4.18c1-.9,5.2-2.41,5.73-2.64s5.39-1,5.67-.6.05,1.36-.7,2.19a45.39,45.39,0,0,1-5,4.22c-1,.6-6.33,4.15-7,4.3a40.25,40.25,0,0,0-4.52,2.86L242,24.84Z" fill="#68e1fd"/><path d="M169.23,68.17c-.48.08-4.16-.64-5.68-.56s-5.84,1.2-5.6,1.76,3.84.08,3.36.4-7.67,4-7.91,5.2,0,3.55,1.52,3.7,6.55-1,8.71-1.3,5.76-3.26,5.76-3.26l5.17-2s.25-3.25-1.66-4.52-1.52-.47-1.52-.47Z" fill="#68e1fd"/><path d="M244.94,23.54a54.19,54.19,0,0,1,3.47-4.18c1-.9,5.2-2.41,5.73-2.64s5.39-1,5.67-.6.05,1.36-.7,2.19a45.39,45.39,0,0,1-5,4.22c-1,.6-6.33,4.15-7,4.3a40.25,40.25,0,0,0-4.52,2.86L242,24.84Z" fill="#153e42" opacity="0.27"/><path d="M187.69,118.44c-.24.59-.95,25.92-.71,26.75s3.2,2.25,3.79,3.91,5.09,3.67,5.09,3.67,3.43-1.78,5.09-1.78,3.79-3,5.33-3,3,.71,4.62-.24,5.56-3,6.27-4,3-4,4-4,2-1.42,2-1.42l-1.32-32.41Z" fill="#68e1fd"/><path d="M187.69,118.44c-.24.59-.95,25.92-.71,26.75s3.2,2.25,3.79,3.91,5.09,3.67,5.09,3.67,3.43-1.78,5.09-1.78,3.79-3,5.33-3,3,.71,4.62-.24,5.56-3,6.27-4,3-4,4-4,2-1.42,2-1.42l-1.32-32.41Z" fill="#153e42" opacity="0.27"/><path d="M217.17,34.77a54.1,54.1,0,0,0,5.46-1.41c.59-.35,22.31-9.78,22.31-9.82s.59,4.23,0,5.62-3.05,9.14-3.05,9.14S227.21,45,227,45.34s-3.76,8-3.76,8-1.29,53.42-1.41,54.36-13.27,6.69-13.27,6.69l3.41-64.11" fill="#68e1fd"/><path d="M168.26,66.82a7.78,7.78,0,0,0,0,5.21c1,2.62,5,7.23,6,6.56s1.77-5.82,1.67-7.78S169.85,65.91,168.26,66.82Z" fill="#68e1fd"/><path d="M169.23,68.17c-.48.08-4.16-.64-5.68-.56s-5.84,1.2-5.6,1.76,3.84.08,3.36.4-7.67,4-7.91,5.2,0,3.55,1.52,3.7,6.55-1,8.71-1.3,5.76-3.26,5.76-3.26l5.17-2s.25-3.25-1.66-4.52-1.52-.47-1.52-.47Z" fill="#153e42" opacity="0.27"/><path d="M218.06,30.41l-.89-2.16s-4.27-4.39-4.89-4.39-4.77-1.08-6.47.69S199,35.41,198.74,35.8a16.48,16.48,0,0,0,0,3.39s-8.39,5.77-9.24,7.24-3.23,5.16-3.23,5.16S173.8,63.74,172.41,64.43s-4.16,2.39-4.16,2.39,6.39,2.31,6.31,5.31.23,5.08-.31,6.47c0,0,12.78-8.77,13.62-9.47s-1.69,44.72-1.69,44.72l-.19,4.88s2.14,4,4.17,4,5.59-1.53,7,0,3.66.41,4.68-1.53,2.44-2.75,3.66-2.75,4.07-1.73,4.07-2.54S218.06,30.41,218.06,30.41Z" fill="#68e1fd"/><path d="M216.65,30.37a1.16,1.16,0,0,1,.43,1.42,4.47,4.47,0,0,0-.31,1.64c0,1.5-2.24,5.34-2.24,6s-.64,4.06-1.07,4.06h-2.56l-2.35-3.42s-1.82-1.39-1.82-2.83a33.09,33.09,0,0,1,.64-4c0-.43,4.6-4,6.31-4A6.27,6.27,0,0,1,216.65,30.37Z" fill="#153e42" opacity="0.27"/><polygon points="241.71 150.92 241.71 181.98 212.47 199.21 212.47 168.08 241.71 150.92" fill="#b8bccc"/><rect x="202.9" y="168.08" width="9.57" height="31.13" fill="#a5a9b7"/><polygon points="173.37 151.17 173.37 182.37 202.9 199.21 202.9 168.08 173.37 151.17" fill="#868a96"/><path d="M198.68,39.22c-1.48,1-5.91,4.16-7.86,5.94v.12a1.45,1.45,0,0,1,.67.69c2.38,4.79,2.2,9.85,2.08,15.09-.17,7.49-.66,14.94-.91,22.42a297.8,297.8,0,0,1-3.7,38.14,2.75,2.75,0,0,0,1.67.75c2,0,5.59-1.53,7,0s3.66.41,4.68-1.53,2.44-2.75,3.66-2.75l.11,0c.32-4.66.5-9.36,1.12-13.88a251.9,251.9,0,0,0,2.62-29.56C210,66.42,211.64,39,198.68,39.22Z" fill="#68e1fd"/><path d="M198.68,39.22c-1.48,1-5.91,4.16-7.86,5.94v.12a1.45,1.45,0,0,1,.67.69c2.38,4.79,2.2,9.85,2.08,15.09-.17,7.49-.66,14.94-.91,22.42a297.8,297.8,0,0,1-3.7,38.14,2.75,2.75,0,0,0,1.67.75c2,0,5.59-1.53,7,0s3.66.41,4.68-1.53,2.44-2.75,3.66-2.75l.11,0c.32-4.66.5-9.36,1.12-13.88a251.9,251.9,0,0,0,2.62-29.56C210,66.42,211.64,39,198.68,39.22Z" fill="#fff" opacity="0.31"/><path d="M146.54,112.87h42.52l-10.19-3.28s.78-10.24-5.49-10.63-7.25,5.09-7.25,5.09a6.41,6.41,0,0,0-5.49-1c-2.94,1-2.94,4.9-2.94,4.9Z" fill="#dcfff3"/><path d="M174.9,105.61a9.65,9.65,0,0,1-1.9,7.26h16.06l-10.19-3.28s.78-10.24-5.49-10.63a8.43,8.43,0,0,0-2.44.19A8.77,8.77,0,0,1,174.9,105.61Z" fill="#a7e8cf"/><path d="M279.05,201.28H338.3l-14.2-4.57s1.09-14.27-7.64-14.81-10.1,7.1-10.1,7.1-3.55-2.73-7.64-1.37-4.1,6.83-4.1,6.83Z" fill="#dcfff3"/><path d="M318.57,191.16a13.44,13.44,0,0,1-2.65,10.12H338.3l-14.2-4.57s1.09-14.27-7.64-14.81a11.75,11.75,0,0,0-3.4.26C316.11,183.88,318,187.34,318.57,191.16Z" fill="#a7e8cf"/><path d="M65.39,165.94h59.24l-14.2-4.57s1.09-14.27-7.64-14.81-10.1,7.1-10.1,7.1-3.55-2.73-7.64-1.37-4.1,6.83-4.1,6.83Z" fill="#dcfff3"/><path d="M104.91,155.82a13.44,13.44,0,0,1-2.65,10.12h22.37l-14.2-4.57s1.09-14.27-7.64-14.81a11.75,11.75,0,0,0-3.4.26C102.44,148.54,104.32,152,104.91,155.82Z" fill="#a7e8cf"/><path d="M278,168c.37-.06.67-.05.82.12-.26,2.57,1.59,1.32,2.4,2l.7-.29q2.11-2.12,4.25-4.21c-.49-.35-1-.73-1.44-1.1A45.05,45.05,0,0,0,278,168Z" opacity="0.41" fill="url(#linear-gradient-2)"/><path d="M286.41,165.57V152.89h-2.76v12.79A3.69,3.69,0,0,0,286.41,165.57Z" fill="#a83f1e"/><path d="M285.31,152.93v13a2.78,2.78,0,0,0,1.1-.31V152.93Z" fill="#7f2b14"/><path d="M288.87,154.08c1.72-.08,3.92-.7,3.27-2.61-.38-1.13-1.55-2.13-2.3-3s-.58-1.5-1.42-2.37c.71,0,1.74-.1,1.92-.81s-3.16-4.4-4.6-5.94a.92.92,0,0,0-1.25-.09c-1.71,1.36-6.08,5-5.47,6a2.18,2.18,0,0,0,1.78.91c-1.57,1.57-3.36,3.54-3.54,5.64-.16,1.82,1.7,2.06,3.44,2-1.2,1.46-4.45,5.6-3.71,6.86.39.66,1.65.88,2.4,1a23.83,23.83,0,0,0,4.92.47,15.15,15.15,0,0,0,4.89-.74,6.85,6.85,0,0,0,2.39-1.31c.76-.72.34-1.48-.16-2.2C290.56,156.63,289.71,155.35,288.87,154.08Z" fill="#77c457"/><path d="M288.42,146.06s-2.09-.14-3.55-.1l7.37,6.06s.2-.7-1.11-2.15A29.67,29.67,0,0,1,288.42,146.06Z" fill="#0d5b23"/><path d="M288.87,154.08h-4.29l7,6a1.07,1.07,0,0,0,.31-1.38C291.42,157.89,288.87,154.08,288.87,154.08Z" fill="#0d5b23"/><path d="M252.12,129.09c.37-.06.67-.05.82.12-.26,2.57,1.59,1.32,2.4,2l.7-.29q2.11-2.12,4.25-4.21c-.49-.35-1-.73-1.44-1.1A45.05,45.05,0,0,0,252.12,129.09Z" opacity="0.41" fill="url(#linear-gradient-3)"/><path d="M260.48,126.69V114h-2.76v12.79A3.69,3.69,0,0,0,260.48,126.69Z" fill="#a83f1e"/><path d="M259.38,114v13a2.78,2.78,0,0,0,1.1-.31V114Z" fill="#7f2b14"/><path d="M262.95,115.2c1.72-.08,3.92-.7,3.27-2.61-.38-1.13-1.55-2.13-2.3-3s-.58-1.5-1.42-2.37c.71,0,1.74-.1,1.92-.81s-3.16-4.4-4.6-5.94a.92.92,0,0,0-1.25-.09c-1.71,1.36-6.08,5-5.47,6a2.18,2.18,0,0,0,1.78.91c-1.57,1.57-3.36,3.54-3.54,5.64-.16,1.82,1.7,2.06,3.44,2-1.2,1.46-4.45,5.6-3.71,6.86.39.66,1.65.88,2.4,1a23.83,23.83,0,0,0,4.92.47,15.15,15.15,0,0,0,4.89-.74,6.85,6.85,0,0,0,2.39-1.31c.76-.72.34-1.48-.16-2.2C264.64,117.75,263.79,116.48,262.95,115.2Z" fill="#77c457"/><path d="M262.5,107.19s-2.09-.14-3.55-.1l7.37,6.06s.2-.7-1.11-2.15A29.67,29.67,0,0,1,262.5,107.19Z" fill="#0d5b23"/><path d="M262.95,115.2h-4.29l7,6a1.07,1.07,0,0,0,.31-1.38C265.5,119,262.95,115.2,262.95,115.2Z" fill="#0d5b23"/><path d="M326.95,174.89c.37-.06.67-.05.82.12-.26,2.57,1.59,1.32,2.4,2l.7-.29q2.11-2.12,4.25-4.21c-.49-.35-1-.73-1.44-1.1A45.05,45.05,0,0,0,326.95,174.89Z" opacity="0.41" fill="url(#linear-gradient-4)"/><path d="M335.32,172.49V159.81h-2.76v12.79A3.69,3.69,0,0,0,335.32,172.49Z" fill="#a83f1e"/><path d="M334.22,159.85v13a2.78,2.78,0,0,0,1.1-.31V159.85Z" fill="#7f2b14"/><path d="M337.78,161c1.72-.08,3.92-.7,3.27-2.61-.38-1.13-1.55-2.13-2.3-3s-.58-1.5-1.42-2.37c.71,0,1.74-.1,1.92-.81s-3.16-4.4-4.6-5.94a.92.92,0,0,0-1.25-.09c-1.71,1.36-6.08,5-5.47,6a2.18,2.18,0,0,0,1.78.91c-1.57,1.57-3.36,3.54-3.54,5.64-.16,1.82,1.7,2.06,3.44,2-1.2,1.46-4.45,5.6-3.71,6.86.39.66,1.65.88,2.4,1a23.83,23.83,0,0,0,4.92.47,15.15,15.15,0,0,0,4.89-.74,6.85,6.85,0,0,0,2.39-1.31c.76-.72.34-1.48-.16-2.2C339.47,163.55,338.62,162.28,337.78,161Z" fill="#77c457"/><path d="M337.33,153s-2.09-.14-3.55-.1l7.37,6.06s.2-.7-1.11-2.15A29.67,29.67,0,0,1,337.33,153Z" fill="#0d5b23"/><path d="M337.78,161h-4.29l7,6a1.07,1.07,0,0,0,.31-1.38C340.33,164.81,337.78,161,337.78,161Z" fill="#0d5b23"/><path d="M123.44,149.41c.37-.06.67-.05.82.12-.26,2.57,1.59,1.32,2.4,2l.7-.29q2.11-2.12,4.25-4.21c-.49-.35-1-.73-1.44-1.1A45.05,45.05,0,0,0,123.44,149.41Z" opacity="0.41" fill="url(#linear-gradient-5)"/><path d="M131.81,147V134.33H129v12.79A3.69,3.69,0,0,0,131.81,147Z" fill="#a83f1e"/><path d="M130.71,134.37v13a2.78,2.78,0,0,0,1.1-.31V134.37Z" fill="#7f2b14"/><path d="M134.27,135.52c1.72-.08,3.92-.7,3.27-2.61-.38-1.13-1.55-2.13-2.3-3s-.58-1.5-1.42-2.37c.71,0,1.74-.1,1.92-.81s-3.16-4.4-4.6-5.94a.92.92,0,0,0-1.25-.09c-1.71,1.36-6.08,5-5.47,6a2.18,2.18,0,0,0,1.78.91c-1.57,1.57-3.36,3.54-3.54,5.64-.16,1.82,1.7,2.06,3.44,2-1.2,1.46-4.45,5.6-3.71,6.86.39.66,1.65.88,2.4,1a23.83,23.83,0,0,0,4.92.47,15.15,15.15,0,0,0,4.89-.74,6.85,6.85,0,0,0,2.39-1.31c.76-.72.34-1.48-.16-2.2C136,138.07,135.11,136.79,134.27,135.52Z" fill="#77c457"/><path d="M133.82,127.51s-2.09-.14-3.55-.1l7.37,6.06s.2-.7-1.11-2.15A29.67,29.67,0,0,1,133.82,127.51Z" fill="#0d5b23"/><path d="M134.27,135.52H130l7,6a1.07,1.07,0,0,0,.31-1.38C136.83,139.33,134.27,135.52,134.27,135.52Z" fill="#0d5b23"/><path d="M84.24,208.69c.37-.06.67-.05.82.12-.26,2.57,1.59,1.32,2.4,2l.7-.29q2.11-2.12,4.25-4.21c-.49-.35-1-.73-1.44-1.1A45.05,45.05,0,0,0,84.24,208.69Z" opacity="0.41" fill="url(#linear-gradient-6)"/><path d="M92.61,206.29V193.61H89.85v12.79A3.69,3.69,0,0,0,92.61,206.29Z" fill="#a83f1e"/><path d="M91.51,193.65v13a2.78,2.78,0,0,0,1.1-.31V193.65Z" fill="#7f2b14"/><path d="M95.07,194.8c1.72-.08,3.92-.7,3.27-2.61-.38-1.13-1.55-2.13-2.3-3s-.58-1.5-1.42-2.37c.71,0,1.74-.1,1.92-.81s-3.16-4.4-4.6-5.94A.92.92,0,0,0,90.7,180c-1.71,1.36-6.08,5-5.47,6a2.18,2.18,0,0,0,1.78.91c-1.57,1.57-3.36,3.54-3.54,5.64-.16,1.82,1.7,2.06,3.44,2-1.2,1.46-4.45,5.6-3.71,6.86.39.66,1.65.88,2.4,1a23.83,23.83,0,0,0,4.92.47,15.15,15.15,0,0,0,4.89-.74,6.85,6.85,0,0,0,2.39-1.31c.76-.72.34-1.48-.16-2.2C96.76,197.35,95.92,196.08,95.07,194.8Z" fill="#77c457"/><path d="M94.63,186.79s-2.09-.14-3.55-.1l7.37,6.06s.2-.7-1.11-2.15A29.67,29.67,0,0,1,94.63,186.79Z" fill="#0d5b23"/><path d="M95.07,194.8H90.78l7,6a1.07,1.07,0,0,0,.31-1.38C97.63,198.61,95.07,194.8,95.07,194.8Z" fill="#0d5b23"/></svg>