<svg id="Layer_1" data-name="Layer 1" xmlns="http://www.w3.org/2000/svg" xmlns:xlink="http://www.w3.org/1999/xlink" viewBox="0 0 400 300"><defs><linearGradient id="linear-gradient" x1="219.45" y1="160.12" x2="245.72" y2="115.56" gradientUnits="userSpaceOnUse"><stop offset="0" stop-opacity="0"/><stop offset="1" stop-color="#4d4d4d"/></linearGradient><linearGradient id="linear-gradient-2" x1="168.25" y1="222.55" x2="200.21" y2="168.37" xlink:href="#linear-gradient"/><linearGradient id="linear-gradient-3" x1="277.64" y1="191.73" x2="306.91" y2="142.09" xlink:href="#linear-gradient"/></defs><title>#41-50</title><path d="M203.82,260.38,68.91,182.22A5.33,5.33,0,0,1,69,173l116.6-65.88a5.33,5.33,0,0,1,5.33,0l137.28,81a5.33,5.33,0,0,1,0,9.21L218.91,260.39A15.06,15.06,0,0,1,203.82,260.38Z" fill="#5db256"/><path d="M218.56,173.46,240,154l-9.62-6.26L200.52,163.4C206.3,166.91,210.45,168.39,218.56,173.46Z" opacity="0.68" fill="url(#linear-gradient)"/><path d="M295.36,216.25l-152.55-85L68.37,173.3a4.94,4.94,0,0,0,0,8.58L204,260.46a14.79,14.79,0,0,0,14.81,0Z" fill="#e8dfca"/><path d="M177.62,245.2l30.72-21.9L189.15,214l-58.66,3.84C136.27,221.36,169.51,240.13,177.62,245.2Z" opacity="0.68" fill="url(#linear-gradient-2)"/><path d="M295.36,216.25l29.26-17.78-62.62-32-29.21,14.94C238.57,184.89,287.25,211.18,295.36,216.25Z" opacity="0.68" fill="url(#linear-gradient-3)"/><polyline points="242.68 179.27 240.68 178.31 240.68 161.63 244.08 162.26" fill="#603d00"/><polygon points="245.08 162.26 245.08 177.52 242.6 179.27 242.6 163.47 245.08 162.26" fill="#8f6000"/><polyline points="322.21 200.21 320.21 199.26 320.21 182.57 323.62 183.2" fill="#603d00"/><polygon points="324.62 183.2 324.62 198.47 322.13 200.21 322.13 184.42 324.62 183.2" fill="#8f6000"/><polyline points="302.97 211.6 300.97 210.64 300.97 193.96 304.38 194.59" fill="#603d00"/><polygon points="305.38 194.59 305.38 209.85 302.89 211.6 302.89 195.8 305.38 194.59" fill="#8f6000"/><polygon points="263.63 123.56 268.17 122.29 329.24 157.51 324.91 186.21 301.97 199.51 240.68 164.54 240.68 161.63 263.32 151.07 263.63 123.56" fill="#9b4607"/><path d="M202.85,58.61a16.79,16.79,0,0,0-5.08-4.42,10.52,10.52,0,0,0-2.39-12.72c-2.82-2.58-6.69-4.53-10.6-3.76a9.3,9.3,0,0,0-3.56,1.53,15.29,15.29,0,0,0-6.6-.81c-3.81.46-6.33,4.15-7.78,7.44a10.53,10.53,0,0,0-.91,4.65c-5.49.58-10.73,3.85-10.93,9.77A10.9,10.9,0,0,0,159,69c-4.62,3-7.53,8.46-3.83,13.75,5,7.17,14.61,11.19,22.84,8,5.37,5.39,15.71,3.87,20.49-2A15.16,15.16,0,0,0,200.56,73C204.64,69.23,206.76,63.78,202.85,58.61Z" fill="#3a9b2c"/><path d="M173.83,121.7c.14,1.38.32,4.52,4.83,5.13s4.85-4,4.85-4S179.32,93.32,181.46,86s10-14.27,10-14.27,1.44-2.87-1.79-2.29-9.87,11-9.87,11V64.35a11.74,11.74,0,0,0-2.43.62c-.42.29-3.71,55.33-3.71,55.33" fill="#ce640d"/><path d="M152,160.51,141,162s-2.45-.24-2.9-3.45,1.57-3.28,1.57-3.28L150,152.24" fill="#ffbe92"/><path d="M140,153c.78.05,1.81,1.4,1.86,1.66s-1.42.36-1.42.36c-2,1.81-1.57,4.69-1.1,5s2.4-1.59,3-1a7.07,7.07,0,0,1,1.12,3.56c-.12.38-2.72.05-2.87.16-1.64,1.18-2.83,3.79-3.46,5.66s-.93,3.39-2.55,4.59a3.28,3.28,0,0,1-3.19.57c-1.14-.55-1.58-2.16-1.72-3.31-.37-2.91.61-5.93,1.59-8.64a40.32,40.32,0,0,1,3.07-7.08C134.61,154,139.2,152.95,140,153Z" fill="#68e1fd"/><path d="M196.28,134.71s10,12.17,5.41,23.46c-4.13,10.27-33,9.56-51,6.67,0,0-7.5-4.74-3.27-12.61,0,0,23-3.37,26.51-3.6" fill="#68e1fd"/><path d="M196.28,134.71s10,12.17,5.41,23.46c-4.13,10.27-33,9.56-51,6.67,0,0-7.5-4.74-3.27-12.61,0,0,23-3.37,26.51-3.6" fill="#111224" opacity="0.23"/><path d="M198.53,130.87a.8.8,0,0,1,.73-.5,1.79,1.79,0,0,0,.43,1.84,9.24,9.24,0,0,0,2.91,2c.49.38,1,.75,1.5,1.11a1.54,1.54,0,0,0,1.1.26,5.26,5.26,0,0,0,1.52,1.36,14.69,14.69,0,0,1,2.38,1.69c.56.5,1.9,1.52,1.5,2.18s-1.39.46-2.37,0l.23.28c.73.91,1.07,2.49-.54,2.55a1.5,1.5,0,0,1-.18,1.69c-.93.78-1.67,0-2.09-.44a1.53,1.53,0,0,1-1.36.39,1.32,1.32,0,0,1-.95-.71c-3.14,1.53-4.27-6.26-4.56-9.19C198.38,134,197.94,132.16,198.53,130.87Z" fill="#ffbe92"/><path d="M204.65,141.55a1.21,1.21,0,0,1,.49-.84,3.47,3.47,0,0,1-2.1-1.21,3.11,3.11,0,0,1-.37-3,.25.25,0,0,1,.46.18,2.62,2.62,0,0,0,.44,2.73,3.82,3.82,0,0,0,2.44,1l.09,0a1,1,0,0,1,0-.17c.4-1.18,1.79-.29,2.24.35.18.26-.2.57-.38.31s-.6-.76-1-.75c-.81,0-.09,1.3,0,1.54a18.48,18.48,0,0,0,1.15,1.93c.18.26-.21.57-.38.31a19.52,19.52,0,0,1-1.21-2,4.73,4.73,0,0,1-.42-1c-2,.07-.65,2.7-.22,3.77.12.29-.33.5-.45.2a9.79,9.79,0,0,1-.84-2.85h0c-.73-.12-1.56-.05-1.45.93a8.53,8.53,0,0,0,.48,1.59c.1.3-.35.5-.45.2-.25-.76-.76-1.74-.43-2.54S203.94,141.43,204.65,141.55Z" fill="#111224"/><path d="M197.64,200.53V211.1a4.22,4.22,0,0,1-4.13,2.91,3.4,3.4,0,0,1-3.52-3l-.84-9.81" fill="#ffbe92"/><path d="M187.67,210.41c.2-.84,1.83-1.71,2.12-1.72s.14,1.6.14,1.6c1.6,2.51,4.8,2.52,5.19,2.06s-1.31-2.87-.59-3.46,3.66-.78,4-.59-.42,2.95-.33,3.13c1,2,3.61,3.73,5.52,4.74s3.51,1.61,4.52,3.56a3.6,3.6,0,0,1,.05,3.56c-.8,1.14-2.62,1.33-3.89,1.29-3.21-.11-6.31-1.7-9.07-3.23a44.21,44.21,0,0,1-7.13-4.56C187.8,216.4,187.48,211.25,187.67,210.41Z" fill="#68e1fd"/><path d="M198.38,117.44c1.3,6.82,3.53,12.94,7.8,18.22-.25.7-1.84,3.93-9.79,3.93l-7.14-9.41Z" fill="#ffb839"/><path d="M194.18,136.38S205.1,163.7,205.07,170s-5,33.66-5,33.66-6,3.75-14.08,0c0,0,1-30.45-.23-34.79s-12.65-25.79-6.07-34.21Z" fill="#68e1fd"/><path d="M196.28,134.71c.83-.84,6-22.13,2.61-26.82s-18.8,3.1-21.13,6.48,1.61,18.14,1.9,20.34S190.08,141,196.28,134.71Z" fill="#feca5c"/><path d="M184.51,137.71l.16,0a102.42,102.42,0,0,0,3.77,15.4c1.89,5.72,4.89,11.18,5.84,17.16s.61,12,.53,17.87q-.11,8.58-.57,17.15l-.81.05q.45-8.6.57-17.21c.08-6.28.52-12.91-.76-19.1-1.22-5.92-4.23-11.41-6-17.17a103,103,0,0,1-3.38-14.37A5,5,0,0,0,184.51,137.71Z" fill="#fff"/><path d="M193.65,101.06c.11.55.49,9.78-4,11.32s-9.78-7.95-7.59-12.47S192.39,94.75,193.65,101.06Z" fill="#ffbe92"/><path d="M185.55,102.65c-.76,1-.78,3.57-.5,4.82a8.51,8.51,0,0,1,0,1.7,12.79,12.79,0,0,1,.08,1.48,9.73,9.73,0,0,1-1.19-1.15.52.52,0,0,1-.55.06,2.75,2.75,0,0,1-.49-.31c-.38-.26-.82-.4-1.21-.63a3.86,3.86,0,0,1-1.51-2.17,10.33,10.33,0,0,1-.7-3,10.77,10.77,0,0,1,1.09-5.9c2.43-4.65,8.66-4.75,12.48-1.7-.18-.39-.65-1.61.69-1.32,1.59.34,2.86,3.55,2.86,3.55.23-.57-.55-2.1-.55-2.1s1.87.33,1.57,3.39-4,4.94-5.13,2.3-1.53-2.28-1.53-2.28c1.2,2.16.06,3.74-2.59,4.24A2.55,2.55,0,0,1,185.55,102.65Z" fill="#bc4515"/><path d="M183.43,105.3a1.51,1.51,0,0,1,2.35-.42,5.48,5.48,0,0,1,1.15,1.95.88.88,0,0,1,0,.61,1.24,1.24,0,0,1,0,1.18,1.18,1.18,0,0,1-1.59.42C184.16,108.45,182.64,106.7,183.43,105.3Z" fill="#f9635c"/><path d="M191.45,94.74s-7.47,1.56-6.55,10.44l-2.34-.68s-1.67-7.59,6.52-10.72A2.51,2.51,0,0,1,191.45,94.74Z" fill="#68e1fd"/><path d="M181.54,96.29s-.66-6.34-5.73-6.23-4.74,4.2-8.16,4.2-6.18-6.85-10.27-4.86-7,15.16,2.87,15.75,11.49-8.25,14-7,3.54,5.59,6.85,5.72" fill="#bc4515"/><ellipse cx="183.81" cy="106.83" rx="2.81" ry="3.04" fill="#68e1fd"/><ellipse cx="183.81" cy="106.83" rx="2.81" ry="3.04" fill="#111224" opacity="0.23"/><ellipse cx="183.19" cy="106.83" rx="2.43" ry="3.04" fill="#68e1fd"/><path d="M169.06,133.87a.76.76,0,0,1,.5-.86c-.54-.8.59-1.94,1.32-1.2q.4.41.82.78a.86.86,0,0,1,1.19-.6.77.77,0,0,1,.84.16l1.83,1.61.05,0a5.33,5.33,0,0,0,2.89.77,13.63,13.63,0,0,1,2.71.14c.69.11,2.25.25,2.25,1s-.86,1.05-1.83,1.21l.32.11c1,.35,2.16,1.23,1.35,2.34a.94.94,0,0,1,.43,1.19c-.34,1.07-1.23,1.08-2.09.84-.18.43-.37.83-.87,1a2.68,2.68,0,0,1-1.61-.29c-1.69,2.3-5.94-2.56-7.63-4.72C170.48,136.37,169.24,135.17,169.06,133.87Z" fill="#ffbe92"/><path d="M163.35,125.92c.89-5.31,4.86-8.58,9.47-10.81,2.34-1.13,4.78-2,7.17-3,1.35-.58,2.69-1.18,4-1.78.26-.12.38.66.44.37l-.6,10.09c-2,.93-1.88,1.8-3.85,2.78-1.67.83-5.32,1.69-5.75,3.74a4,4,0,0,0-.06,1.24l0,0,0,0c.24,1.82,1.69,3.41,3.33,4.58a44.4,44.4,0,0,1-5.24,6.42S162,133.78,163.35,125.92Z" fill="#feca5c"/><path d="M259.89,150c.2-2,3.73-26.44,3.73-26.44L326,159.26l-3.46,26.2Z" fill="#ce640d"/><polygon points="259.89 150 240.23 161.99 301.72 196.91 322.5 185.46 259.89 150" fill="#ce640d"/><path d="M259.89,150l62.6,35.45-1.7.94-62.09-35.67Z" fill="#9b4607"/><path d="M266.88,71.38a22.08,22.08,0,0,0-6.68-5.81,13.84,13.84,0,0,0-3.14-16.72c-3.71-3.39-8.8-6-13.93-4.94a12.22,12.22,0,0,0-4.69,2,20.1,20.1,0,0,0-8.68-1.06c-5,.61-8.32,5.46-10.23,9.79a13.85,13.85,0,0,0-1.2,6.11c-7.22.76-14.11,5.06-14.37,12.85A14.34,14.34,0,0,0,209.19,85c-6.07,4-9.9,11.12-5,18.07,6.61,9.43,19.21,14.71,30,10.53,7.06,7.08,20.65,5.08,26.94-2.58,4.8-5.85,5.86-14.39,2.74-20.75C269.23,85.34,272,78.18,266.88,71.38Z" fill="#26721e"/><path d="M266.34,71.39a22.08,22.08,0,0,0-6.68-5.81,13.84,13.84,0,0,0-3.14-16.72c-3.71-3.39-8.8-6-13.93-4.94a12.14,12.14,0,0,0-2.11.64c3.36,2.33,6.36,5.21,8,9,2.27,5.35.22,10.43-3.1,14.71,4.93,2.17,11.2,3.82,12.35,9.84s-4,9.21-9,10.57c3.13,2.18,5.55,5.14,5.55,9.23,0,4.6-2.81,9.54-6.15,12.57s-7.85,4.48-12.42,4.85c7.39,5,19.2,2.79,24.94-4.2,4.8-5.85,5.86-14.39,2.74-20.75C268.69,85.35,271.48,78.19,266.34,71.39Z" fill="#106004"/><path d="M248.31,84.81c-4.25.77-13,14.48-13,14.48l0-21.12a15.44,15.44,0,0,0-3.19.81c-.55.38-4.88,72.74-4.88,72.74l.11,1.11a10.85,10.85,0,0,0,7.24,3.31c2.26.17,3.81-.9,5.41-2.12-.85-6.2-5.1-38.7-2.56-47.44,2.81-9.68,13.18-18.76,13.18-18.76S252.56,84,248.31,84.81Z" fill="#ce640d"/><path d="M234.62,156.14c2.26.17,3.82-.91,5.42-2.12-.84-6.14-5.1-38.72-2.56-47.47a35.53,35.53,0,0,1,6.4-11.49c-1.55,2-3.48,3.63-5,5.65a40.56,40.56,0,0,0-2.79,4.18c-1.66,9-3.13,18.08-3.28,27.26-.13,8,.51,15.95,1.09,23.91C234.14,156.09,234.38,156.12,234.62,156.14Z" fill="#9b4607"/></svg>