<svg id="Layer_2" data-name="Layer 2" xmlns="http://www.w3.org/2000/svg" xmlns:xlink="http://www.w3.org/1999/xlink" viewBox="0 0 400 300"><defs><linearGradient id="linear-gradient" x1="98.36" y1="250.19" x2="154.69" y2="208.48" gradientUnits="userSpaceOnUse"><stop offset="0" stop-color="#96cf40"/><stop offset="1" stop-color="#003128"/></linearGradient><linearGradient id="linear-gradient-2" x1="216.19" y1="274.85" x2="235.24" y2="260.74" gradientTransform="translate(-4.99 -135.76) scale(1.01 1.51)" xlink:href="#linear-gradient"/><linearGradient id="linear-gradient-3" x1="307.61" y1="265.65" x2="326.66" y2="251.55" gradientTransform="translate(39.3 -125.44) scale(0.83 1.35)" xlink:href="#linear-gradient"/><linearGradient id="linear-gradient-4" x1="90.11" y1="170.87" x2="101.09" y2="162.74" gradientTransform="translate(6.17 -44.52) scale(0.83 1.35)" xlink:href="#linear-gradient"/></defs><title>PP</title><path d="M196.24,288.6,23.74,186.65c-5.49-3.08-10.2-8.15-4.85-11.46L192,75.41c2.6-1.61,6.54-2.66,9.18-1.13L382.28,179.37c5.49,3.19,6.48,12.1,1,15.29L219,288.44A22.94,22.94,0,0,1,196.24,288.6Z" fill="#96cf40"/><polyline points="196.67 229.04 139 254.76 74.18 216.46 151.28 171.66" fill="url(#linear-gradient)"/><path d="M82.8,166a1.88,1.88,0,0,0,1.89.54c1-.4,6.46-3.54,8.28-7.46a2.54,2.54,0,0,0-1.68-2.71"/><path d="M69.77,166c-.18-.35.67-8.46,7.79-13.68S93.33,150,93.33,150s2.09-6.56,3.71-5.61,2.57,8.27,1.24,9.22-4.09.19-4.09.19-2.38,6.46-7.22,10.07S72.43,171,69.77,166Z" fill="#f15a24"/><path d="M74.85,154.74a8.3,8.3,0,0,1,3.43-5.12c2.92-2.17,10.64-3.67,12-3s1.41,2.93,1.41,2.93S81.68,149.07,74.85,154.74Z"/><path d="M83.25,159.14c.38,0,3.71-.26,3.89.35s-2.87,2.89-3.89,3.07S83.25,159.14,83.25,159.14Z"/><circle cx="75.56" cy="160.92" r="0.73"/><path d="M108.85,215.78s14.52,16.84,34.84,20.9,34.84,3.48,62.71-11.61,77.8-44.71,77.8-44.71L292,149.88l10.74-7V120.85" fill="#68e1fd"/><path d="M97.65,210l2.72,8.44s35.81,6,65.61-1.22,91-46.87,91-46.87l6-22.85,42.26-24.38s4.61-2.93,4.68-6.52,0-8.8,0-8.8" fill="#9e4d32"/><path d="M97.65,210s-5-25.11,6-38.53,71.83-47,71.83-47l9.45-24.36,46.48-27.34s14.17-5.47,24.86,0,50.71,27.34,50.71,27.34,7.71,7.46,0,14.42-50.46,29.33-50.46,29.33l-4.23,21.38-37.33,21.43-20.88,12c-7.07,4.06-14.63,8-22.61,10.33-8.57,2.51-17.76,3-26.62,3.78a175.52,175.52,0,0,1-22.81.51c-4.14-.19-8.28-.54-12.4-1.09C108.34,212,97.84,211,97.65,210Z" fill="#c06435"/><path d="M195.47,132.16l-71.42,39s-19.56,17.17-14.31,33.15c0,0,37.68,8.11,68.69-7.16s66.07-36.25,66.07-36.25Z" fill="#68e1fd"/><path d="M248.07,138.71l-51.4-28.62,42.06-23.25a8.94,8.94,0,0,1,8.3-.19l41.89,20.77a6,6,0,0,1,0,10.66Z" fill="#68e1fd"/><polygon points="248.07 138.71 244.5 160.89 195.47 132.16 196.67 110.09 248.07 138.71" fill="#68e1fd"/><polygon points="248.07 138.71 244.5 160.89 195.47 132.16 196.67 110.09 248.07 138.71" opacity="0.33"/><polygon points="252.25 165.22 244.5 160.89 248.07 138.71 256.48 143.84 252.25 165.22" fill="#63302d"/><path d="M109.63,205s-6.05-13.25,8.56-27.69c10.33-10.2,77.28-45.11,77.28-45.11l2.44-21.86L236.8,87.9s3.94-3.86,12.13-.21,37.64,20.63,37.64,20.63,6.57,3.89,4.41,8.11c0,0,7.1-5.12,4.81-8.67-2.64-4.08-46.43-26.84-47.16-26.84s-6.68-3.41-15.56,2.42c-10.79,7.08-39.9,21.57-39.9,21.57L188.3,128,145.15,151.4S119.1,165.24,114,175.26,105.62,194.39,109.63,205Z" fill="#9e4d32"/><path d="M160.57,66.3c-.95.65-2.9.06-3.88-.1a7.91,7.91,0,0,1-3.36-1.15c-1.07-.72-2.07,1-1,1.73a11,11,0,0,0,4.85,1.49c1.45.2,3.12.63,4.42-.25C162.63,67.31,161.63,65.57,160.57,66.3Z" fill="#8fb4d8"/><path d="M159.77,71.09a19.46,19.46,0,0,1-7.47-1.45c-1.22-.42-1.75,1.52-.53,1.93a20.88,20.88,0,0,0,8,1.52C161.05,73,161.06,71,159.77,71.09Z" fill="#8fb4d8"/><path d="M159,74.52a22.42,22.42,0,0,1-7.27-1.35c-1.21-.44-1.74,1.49-.53,1.93a24.12,24.12,0,0,0,7.8,1.42A1,1,0,0,0,159,74.52Z" fill="#8fb4d8"/><path d="M157.73,78.14q-3.16-.58-6.28-1.3c-1.25-.29-1.79,1.64-.53,1.93q3.13.71,6.28,1.3C158.46,80.31,159,78.38,157.73,78.14Z" fill="#8fb4d8"/><path d="M150.94,63.18a106.49,106.49,0,0,0-9.08,21.35s1.87,7.61,4,15" fill="#091b2d"/><path d="M151.28,171.66c.12.54,1.5,6.76,0,8.79-1.61,2.18-4.2,3.35-6.26,5.09-1.08.91-5.12,6.36-2,6.94,2.16.41,8.65-1.62,12.71-4.6s6.88-3.55,7-5.11-2.49-14.16-2.49-14.16" fill="#363942"/><path d="M152.17,176.67c-.2-2.8-.34-5.92-.36-7.54A24.29,24.29,0,0,1,152.17,176.67Z" fill="#363942"/><path d="M164.91,179.8s-.36,5.84-1.22,7.42-4.35,8.12-2.53,10.31,9.83-2.41,10.92-6.54,2.19-4.5,2.55-6.2-1.34-10.58-1.34-10.58" fill="#363942"/><path d="M145.5,104s3.6,69.74,5.67,71.27,7.76,2.09,11.45-.65l-4.12-29.75,5.24,37.84s10.37,1.68,13.57-2.26c.91-1.12-8.16-75.79-8.16-75.79" fill="#003264"/><path d="M178.94,88.64c-.74-6.35-7-22.25-14.35-26.23-1.16,2.9-3.41,5.64-4.68,8.26-1.18,2.43-2.21,5-3.44,7.36-.54,1.06-1.36,1.88-1.94,2.92a12.08,12.08,0,0,1-1.23,2.15.5.5,0,0,1-.84-.22,15,15,0,0,1-.38-5.1c.08-2.05-.19-4.07-.24-6.12a50.3,50.3,0,0,1,1-10.09c-.13.07-.26.14-.38.22-6.12,4.13-5.34,18.08-5.79,24.62q-.45,6.53-.82,13.07c0,.63-.85,5.54-.34,5.94,0,0,8.77,7,22.88,0,0,0,.28-.26.76-.72-.09-3.17-.42-6.5,1-9.32,1.77-3.56,5.47-3.5,8.7-4.73A6.46,6.46,0,0,0,178.94,88.64Z" fill="#00326d"/><path d="M162.6,61.74l-.45-6-6.27,1.31-1.41,6.13C156.22,66.33,161.16,64.71,162.6,61.74Z" fill="#fcbb5b"/><path d="M162.15,55.75l.16,3.58s-4.65,3.43-7.26.78S162.15,55.75,162.15,55.75Z" fill="#db9231"/><path d="M166.62,46.73c-.37-1.47-1.92-.12-1.92-.12s.63-3.59-2.53-3.88a34.76,34.76,0,0,0-8.78.19,20.42,20.42,0,0,0-.13,6.62l.25.07c2.43.5,7.73-.24,7.73-.24s-.61,4.36,3.64,3.37C164.9,52.57,167,48.2,166.62,46.73Z" fill="#363942"/><path d="M153.33,48.11s-2.78,11.5,1.75,12.61,8-5.76,8-5.76,3-2.35,1.31-3.08-2,.22-2,.22,2-3.75.25-3.91S155.4,50.52,153.33,48.11Z" fill="#fbc76f"/><circle cx="153.15" cy="51.78" r="1.93" transform="translate(-7.5 33.7) rotate(-12.26)" fill="none" stroke="#42210b" stroke-miterlimit="10" stroke-width="0.25"/><circle cx="158.6" cy="51.91" r="2.15" transform="translate(-7.41 34.86) rotate(-12.26)" fill="none" stroke="#42210b" stroke-miterlimit="10" stroke-width="0.25"/><line x1="162.54" y1="51.72" x2="160.79" y2="51.87" fill="none" stroke="#42210b" stroke-miterlimit="10" stroke-width="0.25"/><line x1="156.45" y1="51.92" x2="155.08" y2="51.83" fill="none" stroke="#42210b" stroke-miterlimit="10" stroke-width="0.25"/><path d="M155.79,52.81s-1.59,1.71.09,2.18" fill="none" stroke="#42210b" stroke-miterlimit="10" stroke-width="0.25"/><path d="M178.94,88.64s.89,7.54-5.91,8.33-23.78-9.4-23.78-9.4.87-5,2.7-6.79,15.74,1.78,15.74,1.78" fill="#00326d"/><path d="M157,113.43a592.23,592.23,0,0,0,6.72,62.8c.11.65-.89.93-1,.28A594.86,594.86,0,0,1,156,113.43C155.94,112.76,157,112.77,157,113.43Z" fill="#363942"/><path d="M152.8,79.32a.52.52,0,0,1,.64-.36l16,4.78a.52.52,0,0,1-.28,1l-15.47-4.62q-1,4.69-1.75,9.43c-.1.66-1.1.38-1-.28Q151.7,84.26,152.8,79.32Z" fill="#091b2d"/><polygon points="150.94 89.27 170.13 95.39 169.06 101.72 150.94 89.27" fill="#091b2d"/><path d="M162.64,62.29l-7.16,17.27,7.16-6.91-.82-2.09,2.29-1s2.1-5.28,1.45-6.54l-3-1.5Z" fill="#1c60a3"/><path d="M153.77,66.23,152,80.78l-2.28-10.83,1.79-.93-1.79-3.53a7.82,7.82,0,0,1,5.37-4.83Z" fill="#1c60a3"/><path d="M166.8,47.39s2.69-3.41,1.92-4.24-14.84-3.68-16-3.34.73,6,.73,6S157.1,49.74,166.8,47.39Z" fill="#d0d2d6"/><path d="M153.06,44.32a30.31,30.31,0,0,0,14.46,2.09l-.71,1s-9,2-13.76-1.52Z" fill="#6688d3"/><path d="M153.42,45.79s-4.7.92-3.92,2.3,8.21,4.17,16.62,1.6l.69-2.3S158.35,48.65,153.42,45.79Z" fill="#091b2d"/><path d="M168.9,43.23c-.12.83-4,.37-8.59-.29s-8.2-1.87-8.08-2.69,3.93-1,8.51-.3S169,42.4,168.9,43.23Z" fill="#f5f6f7"/><polygon points="165.67 78.94 164.74 78.29 163.69 78.69 164.01 77.61 163.31 76.73 164.44 76.71 165.06 75.77 165.43 76.83 166.51 77.13 165.61 77.81 165.67 78.94" fill="#fbb03b"/><path d="M162.15,53.37a6.68,6.68,0,0,1-3,2.68,8.85,8.85,0,0,1-3.07.4c-1.16,0-2.61-1.16-3.69-1,0,1.47.2,4.54,2.61,5.25,4.38,1.29,5.6-2.27,6.31-3.09s1.18-3.86,1.18-3.86Z" fill="#091b2d"/><path d="M155.48,55.19a2.09,2.09,0,0,0-1.43-.43c-1,0-1.59,0-1,.21a12.26,12.26,0,0,0,2.72.55c.71.07,3.2.6,2.83.23S157.5,54.81,155.48,55.19Z" fill="#091b2d"/><polygon points="153.69 80.11 152.37 79.86 150.56 88.06 152.13 88.38 153.69 80.11" fill="#fff"/><g style="isolation:isolate"><polygon points="120.81 132.85 124 130.93 120.15 133.55 116.96 135.47 120.81 132.85" fill="#63302d"/><path d="M120.08,133.6l-3.19,1.92.07,0,3.19-1.92Z" fill="#63302d"/><path d="M117,126.63l3.19-1.92a2,2,0,0,1,1.94.1,3.81,3.81,0,0,1,.4.24L119.32,127a3.8,3.8,0,0,0-.4-.24A2,2,0,0,0,117,126.63Z" fill="#63302d"/><path d="M121.43,130.07l3.19-1.92a2.53,2.53,0,0,1-.62,2.78l-3.19,1.92A2.53,2.53,0,0,0,121.43,130.07Z" fill="#63302d"/><polygon points="124.12 128.23 127.32 126.31 124.62 128.15 121.42 130.07 124.12 128.23" fill="#63302d"/><path d="M103.76,95.69,107,93.77a2,2,0,0,1,1.93.09l-3.19,1.92A2,2,0,0,0,103.76,95.69Z" fill="#63302d"/><path d="M143.53,154.45l-3.19,1.92a2,2,0,0,0,.82-1.74l3.19-1.92A2,2,0,0,1,143.53,154.45Z" fill="#63302d"/><path d="M136.66,143.88l3.19-1.92a1.47,1.47,0,0,1,.4-.17l-3.19,1.92A1.47,1.47,0,0,0,136.66,143.88Z" fill="#63302d"/><path d="M116.27,102.88l-3.19,1.92a1.49,1.49,0,0,0,.49-.49l3.19-1.92A1.49,1.49,0,0,1,116.27,102.88Z" fill="#63302d"/><polygon points="105.69 95.78 108.88 93.86 114.43 96.7 111.24 98.63 105.69 95.78" fill="#63302d"/><polygon points="141.25 148.4 144.45 146.47 144.36 152.71 141.16 154.63 141.25 148.4" fill="#63302d"/><path d="M111.24,98.63l3.19-1.92a5.21,5.21,0,0,1,2.22,2.49l-3.19,1.92A5.21,5.21,0,0,0,111.24,98.63Z" fill="#63302d"/><path d="M139.84,145,143,143a5.34,5.34,0,0,1,1.41,3.44l-3.19,1.92A5.34,5.34,0,0,0,139.84,145Z" fill="#63302d"/><polygon points="139.88 142.23 143.07 140.31 143.03 143.04 139.84 144.96 139.88 142.23" fill="#63302d"/><polygon points="113.46 101.11 116.65 99.19 119.39 100.6 116.19 102.52 113.46 101.11" fill="#63302d"/><path d="M126.4,126.67l3.19-1.92a35.93,35.93,0,0,0,10.76,10.42l-3.19,1.92A35.93,35.93,0,0,1,126.4,126.67Z" fill="#63302d"/><path d="M119.42,107.31l3.19-1.92a36.62,36.62,0,0,0,5,16.19l-3.19,1.92A36.62,36.62,0,0,1,119.42,107.31Z" fill="#63302d"/><polygon points="137.42 119.17 140.61 117.25 129.59 124.75 126.4 126.67 137.42 119.17" fill="#63302d"/><path d="M123.84,94.4,127,92.48c-2.41,2.12-4,5.47-4.35,9.8l-3.19,1.92C119.86,99.87,121.43,96.53,123.84,94.4Z" fill="#63302d"/><polygon points="140.19 120.74 143.38 118.82 143.13 136.61 139.93 138.53 140.19 120.74" fill="#63302d"/><polygon points="119.49 104.21 122.68 102.28 138.27 110.28 135.08 112.2 119.49 104.21" fill="#63302d"/><path d="M139.93,138.53l3.19-1.92c4.49,2,8.61,2.05,11.82.52l-3.19,1.92C148.54,140.59,144.42,140.52,139.93,138.53Z" fill="#63302d"/><polygon points="121.73 86.72 124.93 84.79 126.57 87.39 123.38 89.31 121.73 86.72" fill="#63302d"/><polygon points="125.74 93.06 128.94 91.14 140.98 110.21 137.78 112.13 125.74 93.06" fill="#63302d"/><path d="M113.17,75.41l3.19-1.92a2,2,0,0,1,1.93.09,4.92,4.92,0,0,1,1.84,1.76l-3.19,1.92a4.92,4.92,0,0,0-1.84-1.76A2,2,0,0,0,113.17,75.41Z" fill="#63302d"/><polygon points="116.94 77.27 120.14 75.35 124.14 81.67 120.94 83.6 116.94 77.27" fill="#63302d"/><path d="M120.94,83.6l3.19-1.92a4.68,4.68,0,0,1,.79,3.12l-3.19,1.92A4.68,4.68,0,0,0,120.94,83.6Z" fill="#63302d"/><polygon points="141.94 119.16 145.14 117.24 156.92 135.9 153.73 137.82 141.94 119.16" fill="#63302d"/><polygon points="156.09 141.56 159.29 139.64 160.84 142.1 157.65 144.03 156.09 141.56" fill="#63302d"/><path d="M157.65,144l3.19-1.92a2.69,2.69,0,0,1,.9.29,4.93,4.93,0,0,1,1.83,1.76l-3.19,1.92a4.93,4.93,0,0,0-1.83-1.76A2.69,2.69,0,0,0,157.65,144Z" fill="#63302d"/><polygon points="160.38 146.08 163.58 144.16 167.58 150.48 164.38 152.4 160.38 146.08" fill="#63302d"/><path d="M167.58,154.89l-3.19,1.92.07,0c1-.7,1-2.66-.07-4.36l3.19-1.92c1.07,1.71,1.11,3.66.07,4.36Z" fill="#63302d"/><polygon points="142.35 116.23 145.54 114.31 161.76 122.63 158.57 124.55 142.35 116.23" fill="#63302d"/><polygon points="140.83 94.77 144.03 92.85 143.76 111 140.57 112.92 140.83 94.77" fill="#63302d"/><path d="M161.79,129.34l3.19-1.92c-.42,5.55-2.5,9.73-5.7,12.22l-3.19,1.92C159.29,139.08,161.37,134.89,161.79,129.34Z" fill="#63302d"/><path d="M123.37,89.32l3.19-1.92c3.9-2.2,9.06-2.25,14.73.31l-3.19,1.92C132.43,87.07,127.27,87.12,123.37,89.32Z" fill="#63302d"/><polygon points="161.85 126.23 165.05 124.31 167.62 125.63 164.42 127.55 161.85 126.23" fill="#63302d"/><polygon points="140.93 88.14 144.12 86.22 144.08 89.15 140.88 91.07 140.93 88.14" fill="#63302d"/><polygon points="153.67 108.52 156.87 106.59 145.54 114.31 142.35 116.23 153.67 108.52" fill="#63302d"/><path d="M144.52,86.06,141.33,88a2,2,0,0,0,.82-1.74l3.19-1.92A2,2,0,0,1,144.52,86.06Z" fill="#63302d"/><path d="M164.92,127.06l3.19-1.92a2,2,0,0,1,1.92.09l-3.19,1.92A2,2,0,0,0,164.92,127.06Z" fill="#63302d"/><path d="M140.88,91.07l3.19-1.92a42.15,42.15,0,0,1,13.08,12.71L154,103.78A42.15,42.15,0,0,0,140.88,91.07Z" fill="#63302d"/><path d="M155.95,107l3.19-1.92A42.52,42.52,0,0,1,165,124.31l-3.19,1.92A42.52,42.52,0,0,0,155.95,107Z" fill="#63302d"/><polygon points="142.24 80 145.43 78.08 145.34 84.31 142.15 86.24 142.24 80" fill="#63302d"/><polygon points="166.84 127.15 170.04 125.23 175.59 128.07 172.39 130 166.84 127.15" fill="#63302d"/><polygon points="158.04 105.54 161.24 103.61 159.14 105.04 155.95 106.97 158.04 105.54" fill="#63302d"/><path d="M137.65,75.48l3.19-1.92a2,2,0,0,1,1.93.09,5.35,5.35,0,0,1,2.66,4.43L142.24,80a5.35,5.35,0,0,0-2.66-4.43A2,2,0,0,0,137.65,75.48Z" fill="#63302d"/><path d="M177.43,134.25l-3.19,1.92a2,2,0,0,0,.82-1.74,5.36,5.36,0,0,0-2.66-4.43l3.19-1.92a5.36,5.36,0,0,1,2.66,4.43A2,2,0,0,1,177.43,134.25Z" fill="#63302d"/><polygon points="164.3 103.21 167.5 101.29 163.65 103.91 160.46 105.83 164.3 103.21" fill="#63302d"/><path d="M163.58,104l-3.19,1.92.07,0,3.19-1.92Z" fill="#63302d"/><path d="M160.46,97l3.19-1.92a2,2,0,0,1,1.93.09,4.93,4.93,0,0,1,1.84,1.76c1.07,1.7,1.11,3.66.07,4.36l-3.19,1.92c1-.7,1-2.66-.07-4.36a4.93,4.93,0,0,0-1.84-1.76A2,2,0,0,0,160.46,97Z" fill="#63302d"/><path d="M172.39,130a5.36,5.36,0,0,1,2.66,4.43,1.74,1.74,0,0,1-2.75,1.65l-5.55-2.85a5.25,5.25,0,0,1-2.23-2.48l-2.74-1.41c-.42,5.55-2.5,9.73-5.7,12.22l1.56,2.46a2.69,2.69,0,0,1,.9.29,4.93,4.93,0,0,1,1.83,1.76l4,6.33c1.07,1.71,1.11,3.66.07,4.36a1.93,1.93,0,0,1-2,0,4.89,4.89,0,0,1-1.83-1.76l-4-6.33a4.69,4.69,0,0,1-.79-3.12l-1.71-2.71c-3.84,1.94-8.8,1.88-14.25-.58l0,2.73a5.34,5.34,0,0,1,1.41,3.44l-.09,6.23a1.74,1.74,0,0,1-2.75,1.65,5.35,5.35,0,0,1-2.66-4.43l.09-6.23a1.79,1.79,0,0,1,1.23-1.9l0-2.93a41.93,41.93,0,0,1-13-12.56l-2.7,1.84a2.53,2.53,0,0,1-.62,2.78L117,135.48a1.93,1.93,0,0,1-2,0,4.9,4.9,0,0,1-1.83-1.76c-1.08-1.71-1.11-3.66-.08-4.37l3.85-2.62a2,2,0,0,1,2,.06,3.81,3.81,0,0,1,.4.24l2.81-1.92a42.7,42.7,0,0,1-6-19.43l-2.56-1.31a1.73,1.73,0,0,1-2.42.4l-5.55-2.85a5.35,5.35,0,0,1-2.66-4.43,1.74,1.74,0,0,1,2.75-1.65l5.55,2.85a5.21,5.21,0,0,1,2.22,2.49l2.74,1.41c.4-5.3,2.31-9.36,5.27-11.87l-1.54-2.44a2.69,2.69,0,0,1-.91-.29,4.9,4.9,0,0,1-1.83-1.76l-4-6.33c-1.08-1.71-1.11-3.66-.08-4.37a1.94,1.94,0,0,1,2,.05,4.92,4.92,0,0,1,1.84,1.76l4,6.33a4.68,4.68,0,0,1,.79,3.12l1.64,2.6c3.9-2.2,9.06-2.25,14.73.31l0-2.73a5.34,5.34,0,0,1-1.41-3.44l.09-6.23a1.74,1.74,0,0,1,2.75-1.65A5.35,5.35,0,0,1,142.24,80l-.09,6.23a1.78,1.78,0,0,1-1.22,1.91l0,2.93A42.15,42.15,0,0,1,154,103.78l2-1.34a2.54,2.54,0,0,1,.62-2.79L160.4,97a1.94,1.94,0,0,1,2,.05,4.93,4.93,0,0,1,1.84,1.76c1.07,1.7,1.11,3.66.07,4.36l-3.85,2.62a1.92,1.92,0,0,1-2,0,3.76,3.76,0,0,1-.42-.25l-2.1,1.43a42.52,42.52,0,0,1,5.91,19.27l2.57,1.32a1.72,1.72,0,0,1,2.42-.4Zm-34.61-17.87.27-18.81c-4.73-2.09-9-2.05-12.31-.26l12,19.07m-18.36-4.82a36.62,36.62,0,0,0,5,16.19l11.42-7.78-16.4-8.42m22.93,8.92,16.22,8.32a36.5,36.5,0,0,0-4.9-16l-11.32,7.71m-2.42,22.31c4.49,2,8.61,2.05,11.82.52l-11.57-18.31-.26,17.79m13.8-.72c2.64-2.1,4.38-5.58,4.77-10.16l-16.56-8.49,11.78,18.65m-12.9-43-.26,18.15,11.13-7.58a36.15,36.15,0,0,0-10.87-10.57m-3.67,42.32.26-17.92-11,7.5a35.93,35.93,0,0,0,10.76,10.42M123.84,94.4c-2.41,2.12-4,5.47-4.35,9.8l15.59,8L123.84,94.4" fill="#68e1fd"/></g><path d="M135.47,118.59l-10.42,77.2c-.64,4.71,3.52,6.72,4.15,2l10.42-77.2C140.26,115.89,136.11,113.88,135.47,118.59Z" fill="#63302d"/><ellipse cx="138.13" cy="117.6" rx="4.54" ry="7.31" transform="translate(-36.81 69.58) rotate(-25.06)" fill="#63302d"/><path d="M138.75,76.31c.45-1,7.43,1.65,7.43,1.65s-1.69-3.68-.69-4.35,2.83,2.93,2.83,2.93l3.88,5.57.67.43A34.78,34.78,0,0,1,152,87.1c-2.16-.16-6.14-2.47-6.62-2.57a27.42,27.42,0,0,1-5.28-3.24C139.16,80.38,138.3,77.29,138.75,76.31Z" fill="#fbc76f"/><path d="M302.83,207a2.5,2.5,0,0,0,2.51.72c1.34-.54,8.59-4.71,11-9.92a3.38,3.38,0,0,0-2.24-3.6"/><path d="M285.51,207c-.24-.46.88-11.25,10.36-18.19s21-3.16,21-3.16,2.78-8.72,4.93-7.45,3.41,11,1.64,12.26-5.43.25-5.43.25-3.16,8.59-9.6,13.39S289,213.73,285.51,207Z" fill="#2b68e0"/><path d="M292.26,192.05c-.22.19.68-3.92,4.56-6.81s14.15-4.88,15.94-4,1.87,3.89,1.87,3.89S301.35,184.51,292.26,192.05Z"/><path d="M303.44,197.89c.51,0,4.94-.35,5.17.47s-3.81,3.85-5.17,4.08S303.44,197.89,303.44,197.89Z"/><circle cx="293.21" cy="200.26" r="0.98"/><path d="M195.78,254.63a18.93,18.93,0,0,0,7.3-11.68c1.22-7.54,9.49-32.61,25.31-37s21.17,3.16,18,11.68-6.08,11.2-2.19,14.12,7.58,2.68,3.06,9.25-21.8,15.09-31.53,14.85-15.09-.73-18.74,1.95C197,257.79,194.32,258.28,195.78,254.63Z" fill="#fdd400"/><path d="M240.33,226.56c1.37-.34,7.8-3.75,9-8.87s1-13.92,5.32-13,5.63,23.77,2.73,24.79-5.29-4.78-7.76-2.9-9.3,7.17-9.3,7.17" fill="#fdd400"/><ellipse cx="213.7" cy="238.5" rx="1.56" ry="3" fill="#606060"/><path d="M222.28,229.67a21.32,21.32,0,0,1,.4-2.72q.59-2.73,1.21-5.46s-.85,10,0,14a24.35,24.35,0,0,0,3.95,8.14c-2.15-2.31-5.52-4.86-5.61-8.19A51.17,51.17,0,0,1,222.28,229.67Z" fill="#43c9af"/><path d="M226.31,228.35a21.32,21.32,0,0,1,.4-2.72q.59-2.73,1.21-5.46s-.85,10,0,14a24.35,24.35,0,0,0,3.95,8.14c-2.15-2.31-5.52-4.86-5.61-8.19A51.17,51.17,0,0,1,226.31,228.35Z" fill="#43c9af"/><path d="M231.38,226.15a21.32,21.32,0,0,1,.4-2.72q.59-2.73,1.21-5.46s-.85,10,0,14a24.35,24.35,0,0,0,3.95,8.14c-2.15-2.31-5.52-4.86-5.61-8.19A51.17,51.17,0,0,1,231.38,226.15Z" fill="#43c9af"/><ellipse cx="226.95" cy="264.76" rx="19.31" ry="3.76" transform="translate(-84.94 108.78) rotate(-22.83)" opacity="0.45" fill="url(#linear-gradient-2)"/><ellipse cx="303.49" cy="220.25" rx="15.72" ry="3.37" transform="translate(-61.68 134.99) rotate(-22.83)" opacity="0.45" fill="url(#linear-gradient-3)"/><ellipse cx="86.5" cy="178.67" rx="9.06" ry="1.94" transform="translate(-62.54 47.55) rotate(-22.83)" opacity="0.45" fill="url(#linear-gradient-4)"/></svg>