<svg xmlns="http://www.w3.org/2000/svg" xmlns:xlink="http://www.w3.org/1999/xlink" viewBox="0 0 400 300"><defs><linearGradient id="linear-gradient" x1="90.52" y1="187.61" x2="113.26" y2="206.7" gradientUnits="userSpaceOnUse"><stop offset="0" stop-color="#7f4e00"/><stop offset="1" stop-color="#fff"/></linearGradient><linearGradient id="linear-gradient-2" x1="190.71" y1="219.06" x2="193.06" y2="216.57" gradientUnits="userSpaceOnUse"><stop offset="0" stop-color="#ff734d" stop-opacity="0"/><stop offset="1" stop-color="#42210b"/></linearGradient><linearGradient id="linear-gradient-3" x1="183.64" y1="270.96" x2="186.96" y2="267.43" xlink:href="#linear-gradient-2"/><linearGradient id="linear-gradient-4" x1="218.89" y1="247.56" x2="222.22" y2="244.02" xlink:href="#linear-gradient-2"/><linearGradient id="linear-gradient-5" x1="-1670.36" y1="189.61" x2="-1687.14" y2="210.03" gradientTransform="matrix(-1, 0, 0, 1, -1447.86, 0)" xlink:href="#linear-gradient"/><linearGradient id="linear-gradient-6" x1="-1643.16" y1="173.29" x2="-1659.93" y2="193.71" gradientTransform="matrix(-1, 0, 0, 1, -1447.86, 0)" xlink:href="#linear-gradient"/><linearGradient id="linear-gradient-7" x1="149.62" y1="239.01" x2="167.09" y2="253.67" xlink:href="#linear-gradient"/></defs><title>PP</title><g style="isolation:isolate"><g id="Layer_5" data-name="Layer 5"><path d="M194.49,286.21,14.36,179.75c-5.74-3.22-10.65-8.51-5.06-12L190.08,63.59c2.71-1.68,6.83-2.78,9.59-1.18L388.76,172.15c5.74,3.33,6.76,12.63,1,16L218.24,286A24,24,0,0,1,194.49,286.21Z" fill="#669a45"/><path d="M109.53,219.62s-35.21-18.84-37.26-20.25l39.86-15.22,28.3,18.3C137.75,204.39,112.22,217.69,109.53,219.62Z" opacity="0.68" fill="url(#linear-gradient)" style="mix-blend-mode:multiply"/><path d="M74.9,119.31c-5.73,2.56-11.3,5.47-16.86,8.42l91,52.39,15.77-9.32Z" fill="#f9b176"/><path d="M393.3,184,189,64.29,147.76,88.07,350.07,210.8l40.53-23.14A10.62,10.62,0,0,0,393.3,184Z" fill="#fba43b"/><polygon points="337.74 217.82 135.43 95.09 176.7 71.3 382.85 192.07 337.74 217.82" fill="#20bba6"/><path d="M206.8,58.85c-.11.43-.55,25.15-.55,25.15s1.69,1.06,2.69,0l-.87-25.42Z" fill="#aa4d0e"/><path d="M206.75,56.83s-.56,5.43,4.06,7.06a8.15,8.15,0,0,0-2-7.06S207.06,56,206.75,56.83Z" fill="#336b3c"/><path d="M207.43,57.42s3,4.56,7.61,2.89A8.15,8.15,0,0,0,209,56.15S207.12,56.55,207.43,57.42Z" fill="#1f532d"/><path d="M208.47,57.94s3.46-4.1,1.52-7.6a10.48,10.48,0,0,0-2.75,6.5S207.81,58.31,208.47,57.94Z" fill="#1f532d"/><path d="M207.61,57.86s5.36.29,7-3.38a10.48,10.48,0,0,0-6.85,1.73S206.91,57.55,207.61,57.86Z" fill="#336b3c"/><path d="M208.3,57.79s.56-5.43-4.06-7.06a8.15,8.15,0,0,0,2,7.06S208,58.67,208.3,57.79Z" fill="#336b3c"/><path d="M207.61,57.2s-3-4.56-7.61-2.89a8.15,8.15,0,0,0,6.05,4.16S207.93,58.08,207.61,57.2Z" fill="#1f532d"/><path d="M206.57,56.69s-3.46,4.1-1.52,7.6a10.48,10.48,0,0,0,2.75-6.5S207.24,56.32,206.57,56.69Z" fill="#1f532d"/><path d="M207.44,56.77s-5.36-.29-7,3.38a10.48,10.48,0,0,0,6.85-1.73S208.13,57.08,207.44,56.77Z" fill="#336b3c"/><path d="M188.93,218.55c.29,0,.52,0,.63.09-.2,2,1.22,1,1.85,1.51l.54-.22q1.63-1.63,3.27-3.24c-.38-.27-.74-.56-1.1-.84A34.64,34.64,0,0,0,188.93,218.55Z" opacity="0.41" fill="url(#linear-gradient-2)"/><path d="M195.36,216.71V207h-2.12v9.84A2.84,2.84,0,0,0,195.36,216.71Z" fill="#a83f1e"/><path d="M194.51,207v10a2.14,2.14,0,0,0,.85-.24V207Z" fill="#7f2b14"/><path d="M197.25,207.87c1.32-.06,3-.54,2.52-2a8.56,8.56,0,0,0-1.77-2.33c-.6-.71-.45-1.15-1.09-1.83.55,0,1.34-.08,1.48-.62s-2.43-3.38-3.54-4.57a.71.71,0,0,0-1-.07c-1.31,1-4.67,3.83-4.2,4.64a1.67,1.67,0,0,0,1.37.7c-1.21,1.21-2.58,2.72-2.72,4.34-.12,1.4,1.31,1.59,2.64,1.51-.92,1.12-3.42,4.31-2.85,5.28.3.51,1.27.68,1.84.79a18.33,18.33,0,0,0,3.78.36,11.65,11.65,0,0,0,3.76-.57,5.27,5.27,0,0,0,1.83-1c.59-.55.26-1.14-.12-1.69C198.55,209.83,197.9,208.85,197.25,207.87Z" fill="#77c457"/><path d="M196.91,201.71s-1.61-.1-2.73-.08l5.67,4.66s.15-.54-.85-1.65A22.81,22.81,0,0,1,196.91,201.71Z" fill="#0d5b23"/><path d="M197.25,207.87H194l5.39,4.63a.82.82,0,0,0,.24-1.06C199.22,210.8,197.25,207.87,197.25,207.87Z" fill="#0d5b23"/><polygon points="142.88 255.7 158.65 265.02 356.13 151.33 339.94 142.86 142.88 255.7" fill="#f9b176"/><path d="M181.1,270.24c.41-.07.73-.06.89.13-.28,2.81,1.74,1.44,2.62,2.14l.76-.32q2.31-2.31,4.64-4.59c-.53-.38-1-.79-1.57-1.2A49.16,49.16,0,0,0,181.1,270.24Z" opacity="0.41" fill="url(#linear-gradient-3)"/><path d="M190.23,267.63V253.79h-3v14A4,4,0,0,0,190.23,267.63Z" fill="#a83f1e"/><path d="M189,253.83V268a3,3,0,0,0,1.2-.33V253.83Z" fill="#7f2b14"/><path d="M192.92,255.08c1.87-.09,4.27-.76,3.57-2.85-.42-1.23-1.69-2.32-2.51-3.3s-.64-1.63-1.55-2.59c.78,0,1.9-.11,2.09-.88s-3.45-4.8-5-6.48a1,1,0,0,0-1.36-.1c-1.87,1.49-6.63,5.44-6,6.58a2.37,2.37,0,0,0,1.94,1c-1.71,1.72-3.67,3.87-3.87,6.15-.17,2,1.86,2.25,3.75,2.15-1.31,1.59-4.85,6.11-4,7.49.43.73,1.8,1,2.62,1.13a26,26,0,0,0,5.37.52,16.53,16.53,0,0,0,5.34-.8,7.47,7.47,0,0,0,2.6-1.43c.83-.78.37-1.62-.17-2.4C194.76,257.87,193.84,256.47,192.92,255.08Z" fill="#77c457"/><path d="M192.43,246.34s-2.28-.15-3.87-.11l8,6.61s.21-.77-1.21-2.34A32.37,32.37,0,0,1,192.43,246.34Z" fill="#0d5b23"/><path d="M192.92,255.08h-4.68l7.64,6.56a1.16,1.16,0,0,0,.34-1.51C195.71,259.24,192.92,255.08,192.92,255.08Z" fill="#0d5b23"/><path d="M216.36,246.84c.41-.07.73-.06.89.13-.28,2.81,1.74,1.44,2.62,2.14l.76-.32q2.31-2.31,4.64-4.59c-.53-.38-1-.79-1.57-1.2A49.16,49.16,0,0,0,216.36,246.84Z" opacity="0.41" fill="url(#linear-gradient-4)"/><path d="M225.49,244.22V230.38h-3v14A4,4,0,0,0,225.49,244.22Z" fill="#a83f1e"/><path d="M224.29,230.42v14.17a3,3,0,0,0,1.2-.33V230.42Z" fill="#7f2b14"/><path d="M228.17,231.68c1.87-.09,4.27-.76,3.57-2.85-.42-1.23-1.69-2.32-2.51-3.3s-.64-1.63-1.55-2.59c.78,0,1.9-.11,2.09-.88s-3.45-4.8-5-6.48a1,1,0,0,0-1.36-.1c-1.87,1.49-6.63,5.44-6,6.58a2.37,2.37,0,0,0,1.94,1c-1.71,1.72-3.67,3.87-3.87,6.15-.17,2,1.86,2.25,3.75,2.15-1.31,1.59-4.85,6.11-4,7.49.43.73,1.8,1,2.62,1.13a26,26,0,0,0,5.37.52,16.53,16.53,0,0,0,5.34-.8,7.47,7.47,0,0,0,2.6-1.43c.83-.78.37-1.62-.17-2.4C230,234.46,229.1,233.07,228.17,231.68Z" fill="#77c457"/><path d="M227.69,222.94s-2.28-.15-3.87-.11l8,6.61s.21-.77-1.21-2.34A32.37,32.37,0,0,1,227.69,222.94Z" fill="#0d5b23"/><path d="M228.17,231.68h-4.68l7.64,6.56a1.16,1.16,0,0,0,.34-1.51C231,235.84,228.17,231.68,228.17,231.68Z" fill="#0d5b23"/><path d="M228.3,70.78c-.11.43-.55,25.15-.55,25.15s1.69,1.06,2.69,0l-.87-25.42Z" fill="#aa4d0e"/><path d="M228.25,68.77s-.56,5.43,4.06,7.06a8.15,8.15,0,0,0-2-7.06S228.56,67.89,228.25,68.77Z" fill="#336b3c"/><path d="M228.93,69.36s3,4.56,7.61,2.89a8.15,8.15,0,0,0-6.05-4.16S228.62,68.48,228.93,69.36Z" fill="#1f532d"/><path d="M230,69.88s3.46-4.1,1.52-7.6a10.48,10.48,0,0,0-2.75,6.5S229.31,70.24,230,69.88Z" fill="#1f532d"/><path d="M229.11,69.79s5.36.29,7-3.38a10.48,10.48,0,0,0-6.85,1.73S228.41,69.48,229.11,69.79Z" fill="#336b3c"/><path d="M229.8,69.73s.56-5.43-4.06-7.06a8.15,8.15,0,0,0,2,7.06S229.49,70.6,229.8,69.73Z" fill="#336b3c"/><path d="M229.11,69.14s-3-4.56-7.61-2.89a8.15,8.15,0,0,0,6.05,4.16S229.43,70,229.11,69.14Z" fill="#1f532d"/><path d="M228.07,68.62s-3.46,4.1-1.52,7.6a10.48,10.48,0,0,0,2.75-6.5S228.74,68.25,228.07,68.62Z" fill="#1f532d"/><path d="M228.94,68.7s-5.36-.29-7,3.38a10.48,10.48,0,0,0,6.85-1.73S229.63,69,228.94,68.7Z" fill="#336b3c"/><path d="M273.27,98.29c-.11.43-.55,25.15-.55,25.15s1.69,1.06,2.69,0L274.53,98Z" fill="#aa4d0e"/><path d="M273.22,96.28s-.56,5.43,4.06,7.06a8.15,8.15,0,0,0-2-7.06S273.53,95.4,273.22,96.28Z" fill="#336b3c"/><path d="M273.91,96.87s3,4.56,7.61,2.89a8.15,8.15,0,0,0-6.05-4.16S273.59,96,273.91,96.87Z" fill="#1f532d"/><path d="M274.94,97.38s3.46-4.1,1.52-7.6a10.48,10.48,0,0,0-2.75,6.5S274.28,97.75,274.94,97.38Z" fill="#1f532d"/><path d="M274.08,97.3s5.36.29,7-3.38a10.48,10.48,0,0,0-6.85,1.73S273.38,97,274.08,97.3Z" fill="#336b3c"/><path d="M274.77,97.24s.56-5.43-4.06-7.06a8.15,8.15,0,0,0,2,7.06S274.46,98.11,274.77,97.24Z" fill="#336b3c"/><path d="M274.08,96.64s-3-4.56-7.61-2.89a8.15,8.15,0,0,0,6.05,4.16S274.4,97.52,274.08,96.64Z" fill="#1f532d"/><path d="M273,96.13s-3.46,4.1-1.52,7.6a10.48,10.48,0,0,0,2.75-6.5S273.71,95.76,273,96.13Z" fill="#1f532d"/><path d="M273.91,96.21s-5.36-.29-7,3.38a10.48,10.48,0,0,0,6.85-1.73S274.61,96.52,273.91,96.21Z" fill="#336b3c"/><path d="M385.35,161.68c-.11.43-.55,25.15-.55,25.15s1.69,1.06,2.69,0l-.87-25.42Z" fill="#aa4d0e"/><path d="M385.3,159.67s-.56,5.43,4.06,7.06a8.15,8.15,0,0,0-2-7.06S385.62,158.8,385.3,159.67Z" fill="#336b3c"/><path d="M386,160.26s3,4.56,7.61,2.89a8.15,8.15,0,0,0-6.05-4.16S385.68,159.39,386,160.26Z" fill="#1f532d"/><path d="M387,160.78s3.46-4.1,1.52-7.6a10.48,10.48,0,0,0-2.75,6.5S386.37,161.14,387,160.78Z" fill="#1f532d"/><path d="M386.16,160.69s5.36.29,7-3.38a10.48,10.48,0,0,0-6.85,1.73S385.47,160.38,386.16,160.69Z" fill="#336b3c"/><path d="M386.86,160.63s.56-5.43-4.06-7.06a8.15,8.15,0,0,0,2,7.06S386.55,161.5,386.86,160.63Z" fill="#336b3c"/><path d="M386.17,160s-3-4.56-7.61-2.89a8.15,8.15,0,0,0,6.05,4.16S386.48,160.91,386.17,160Z" fill="#1f532d"/><path d="M385.13,159.52s-3.46,4.1-1.52,7.6a10.48,10.48,0,0,0,2.75-6.5S385.8,159.16,385.13,159.52Z" fill="#1f532d"/><path d="M386,159.61s-5.36-.29-7,3.38a10.48,10.48,0,0,0,6.85-1.73S386.69,159.92,386,159.61Z" fill="#336b3c"/><polygon points="255.85 264.89 240.09 274.21 42.6 160.52 58.79 152.05 255.85 264.89" fill="#f9b176"/><polygon points="79.07 203.22 113.12 184.51 73.64 14.65 79.07 203.22" fill="#68e1fd"/><polygon points="79.07 203.22 113.12 184.51 73.64 14.65 79.07 203.22" fill="#1e4549" opacity="0.33"/><polygon points="73.64 14.65 79.07 203.22 37.29 179.68 73.64 14.65" fill="#68e1fd"/><polygon points="75.62 78.17 75.47 78.09 75.54 80.54 75.63 80.59 87.52 74.35 87.01 72.19 75.62 78.17" fill="#2e5b5a"/><polygon points="75.88 87.91 75.75 87.84 75.82 90.29 75.89 90.33 89.56 83.15 89.06 80.99 75.88 87.91" fill="#2e5b5a"/><polygon points="76.22 97.83 76.03 97.74 76.1 100.19 76.22 100.25 91.65 92.15 91.15 89.99 76.22 97.83" fill="#2e5b5a"/><polygon points="76.46 107.87 76.32 107.8 76.39 110.25 76.47 110.29 93.76 101.21 93.26 99.05 76.46 107.87" fill="#2e5b5a"/><polygon points="76.76 117.28 76.59 117.19 76.66 119.64 76.77 119.7 95.74 109.74 95.24 107.58 76.76 117.28" fill="#2e5b5a"/><polygon points="77.01 127.32 76.88 127.25 76.95 129.7 77.02 129.74 97.85 118.8 97.34 116.64 77.01 127.32" fill="#2e5b5a"/><polygon points="77.29 136.12 77.14 136.04 77.21 138.49 77.3 138.54 99.7 126.77 99.2 124.62 77.29 136.12" fill="#2e5b5a"/><polygon points="77.53 146.48 77.44 146.43 77.51 148.88 77.54 148.9 101.87 136.12 101.37 133.96 77.53 146.48" fill="#2e5b5a"/><polygon points="77.78 157.81 77.76 157.81 77.83 160.2 104.25 146.33 103.75 144.17 77.78 157.81" fill="#2e5b5a"/><polygon points="78.05 167.83 78.12 170.21 106.35 155.39 105.85 153.23 78.05 167.83" fill="#2e5b5a"/><polygon points="78.4 178.89 78.37 178.88 78.44 181.29 108.57 165.47 108.57 164.91 108.18 163.25 78.4 178.89" fill="#2e5b5a"/><polygon points="78.66 188.92 78.73 191.3 110.79 174.47 110.29 172.31 78.66 188.92" fill="#2e5b5a"/><polygon points="78.95 197.33 78.9 197.3 78.97 199.74 112.56 182.11 112.06 179.95 78.95 197.33" fill="#2e5b5a"/><polygon points="72.5 77.75 72.65 77.67 72.58 80.12 72.49 80.17 60.6 73.93 61.1 71.77 72.5 77.75" fill="#2e5b5a"/><polygon points="72.19 87.91 72.32 87.84 72.25 90.29 72.18 90.33 58.51 83.15 59.01 80.99 72.19 87.91" fill="#2e5b5a"/><polygon points="73.5 100.17 73.64 100.09 73.57 102.54 73.49 102.58 56.2 93.5 56.7 91.35 73.5 100.17" fill="#2e5b5a"/><polygon points="73.04 110.76 73.21 110.68 73.14 113.13 73.03 113.18 54.06 103.22 54.57 101.06 73.04 110.76" fill="#2e5b5a"/><polygon points="72.89 120.94 73.02 120.87 72.95 123.32 72.88 123.35 52.05 112.41 52.55 110.26 72.89 120.94" fill="#2e5b5a"/><polygon points="72.43 131.13 72.58 131.05 72.51 133.5 72.42 133.55 50.01 121.78 50.51 119.63 72.43 131.13" fill="#2e5b5a"/><polygon points="72.25 141.9 72.35 141.85 72.28 144.3 72.25 144.32 47.91 131.54 48.41 129.38 72.25 141.9" fill="#2e5b5a"/><polygon points="72.24 152.43 72.25 152.42 72.18 154.82 45.76 140.94 46.27 138.79 72.24 152.43" fill="#2e5b5a"/><polygon points="71.79 163.72 71.72 166.11 43.49 151.29 43.99 149.13 71.79 163.72" fill="#2e5b5a"/><path d="M71.05,174.4l-29.2-15.33q-.26,1.08-.49,2.17L71,176.8l.07-2.41Z" fill="#2e5b5a"/><path d="M39.87,167.88c-.13.73-.28,1.46-.45,2.18l31.77,16.68.07-2.39Z" fill="#2e5b5a"/><polygon points="71.21 193.59 71.26 193.56 71.19 196 37.6 178.36 38.1 176.2 71.21 193.59" fill="#2e5b5a"/><path d="M200.48,94.52a24.9,24.9,0,0,1,4,4.54,15.74,15.74,0,0,1-9-.2c-4.37-1.61-14.89-8-15.15-8.14A15.34,15.34,0,0,1,179.09,88" fill="#189681"/><path d="M179.09,84.15c-.1.15,0,3.88,0,3.88s5.58,4.12,8.54,5.87,7.42,3.54,14.26,4.12V94.67a37.52,37.52,0,0,0-6.5-6.6s.44-.92-.34-1.36-7.33-4.32-7.33-4.32l-4.65-2.47-3.76,2.13a1.13,1.13,0,0,0-.5,1.4Z" fill="#fff"/><path d="M201.89,96.05s-7.17-.37-11.3-2.69-11.54-7.06-11.54-7.06l0,1.72,7.2,5s5.4,4.23,15.6,5Z" fill="#3d639b"/><polygon points="195.39 88.08 195.39 91.11 190.6 93.37 179.06 86.31 178.82 83.46 189.79 90.53 195.39 88.08" fill="#ccccce"/><polygon points="188.07 89.94 188.07 91.35 187.03 90.75 187.03 89.23 188.07 89.94" fill="#6a4e39"/><polygon points="186.65 89.12 186.65 90.53 185.61 89.94 185.61 88.41 186.65 89.12" fill="#6a4e39"/><polygon points="184.36 87.56 184.36 88.97 183.32 88.38 183.32 86.86 184.36 87.56" fill="#6a4e39"/><polygon points="183.04 86.74 183.04 88.16 182 87.56 182 86.04 183.04 86.74" fill="#6a4e39"/><path d="M201.89,94.67s-7.84-.42-12-1.68h0a25,25,0,0,0,12,3.06Z" fill="#7c9bc1"/><path d="M233.83,214.75s-36.07-20.09-37.65-21.17l35.21-9.94,29.08,16.2C258.42,201.32,235.89,213.26,233.83,214.75Z" opacity="0.68" fill="url(#linear-gradient-5)" style="mix-blend-mode:multiply"/><path d="M206.62,198.42S170.55,178.33,169,177.25l35.21-9.94,29.08,16.2C231.21,185,208.68,196.94,206.62,198.42Z" opacity="0.68" fill="url(#linear-gradient-6)" style="mix-blend-mode:multiply"/><path d="M192.53,174.27V132L177,140.71v40.17l.32.08C182.21,178.36,187.59,176.79,192.53,174.27Z" fill="#68e1fd"/><path d="M192.53,174.27V132L177,140.71v40.17l.32.08C182.21,178.36,187.59,176.79,192.53,174.27Z" fill="#1e4549" opacity="0.33"/><path d="M177,180.88V140.71L161.17,132v41.17C166.77,175,171.3,179.36,177,180.88Z" fill="#68e1fd"/><polygon points="192.53 132.02 176.97 122.48 161.17 132.02 176.97 140.71 192.53 132.02" fill="#ccc"/><polygon points="161.17 132.02 176.97 140.71 192.53 132.02 192.53 134.13 176.97 142.69 161.17 133.98 161.17 132.02" fill="#1e4549"/><polygon points="163.05 141.22 163.05 137.88 165.03 138.97 165.03 142.17 163.05 141.22" fill="#e0e0e0"/><polygon points="167.99 143.88 167.99 140.55 169.97 141.63 169.97 144.84 167.99 143.88" fill="#e0e0e0"/><polygon points="173.11 147.03 173.11 143.69 175.09 144.78 175.09 147.98 173.11 147.03" fill="#e0e0e0"/><polygon points="163.05 153.16 163.05 149.83 165.03 150.92 165.03 154.12 163.05 153.16" fill="#e0e0e0"/><polygon points="167.99 155.83 167.99 152.5 169.97 153.58 169.97 156.78 167.99 155.83" fill="#e0e0e0"/><polygon points="173.11 158.98 173.11 155.64 175.09 156.73 175.09 159.93 173.11 158.98" fill="#e0e0e0"/><polygon points="163.05 166.84 163.05 163.5 165.03 164.59 165.03 167.79 163.05 166.84" fill="#e0e0e0"/><polygon points="167.99 169.5 167.99 166.17 169.97 167.25 169.97 170.46 167.99 169.5" fill="#e0e0e0"/><polygon points="173.11 172.65 173.11 169.31 175.09 170.4 175.09 173.6 173.11 172.65" fill="#e0e0e0"/><polygon points="191.63 141.25 191.63 137.92 189.64 139 189.64 142.21 191.63 141.25" fill="#e0e0e0"/><polygon points="186.69 143.92 186.69 140.58 184.71 141.67 184.71 144.87 186.69 143.92" fill="#e0e0e0"/><polygon points="181.56 147.06 181.56 143.73 179.58 144.82 179.58 148.02 181.56 147.06" fill="#e0e0e0"/><polygon points="191.63 153.2 191.63 149.87 189.64 150.95 189.64 154.16 191.63 153.2" fill="#e0e0e0"/><polygon points="186.69 155.86 186.69 152.53 184.71 153.62 184.71 156.82 186.69 155.86" fill="#e0e0e0"/><polygon points="181.56 159.01 181.56 155.68 179.58 156.77 179.58 159.97 181.56 159.01" fill="#e0e0e0"/><polygon points="191.63 166.87 191.63 163.54 189.64 164.63 189.64 167.83 191.63 166.87" fill="#e0e0e0"/><polygon points="186.69 169.54 186.69 166.2 184.71 167.29 184.71 170.49 186.69 169.54" fill="#e0e0e0"/><polygon points="181.56 172.68 181.56 169.35 179.58 170.44 179.58 173.64 181.56 172.68" fill="#e0e0e0"/><polygon points="161.17 156.76 177.11 165 192.53 156.91 192.53 160.2 176.97 168.29 161.17 160.2 161.17 156.76" fill="#2e5b5a"/><polygon points="161.17 170.46 177.11 178.7 192.53 170.6 192.53 173.9 176.97 181.99 161.17 173.9 161.17 170.46" fill="#2e5b5a"/><polygon points="161.17 143.69 177.11 151.93 192.53 143.84 192.53 147.13 176.97 155.22 161.17 147.13 161.17 143.69" fill="#2e5b5a"/><path d="M232.59,189.44V127.17L209.65,140v59.2l.48.11C217.37,195.46,225.3,193.15,232.59,189.44Z" fill="#68e1fd"/><path d="M232.59,189.44V127.17L209.65,140v59.2l.48.11C217.37,195.46,225.3,193.15,232.59,189.44Z" fill="#1e4549" opacity="0.33"/><path d="M209.65,199.19V140l-23.29-12.81v60.68C194.61,190.58,201.29,196.94,209.65,199.19Z" fill="#68e1fd"/><polygon points="232.59 127.17 209.65 113.11 186.36 127.17 209.65 139.98 232.59 127.17" fill="#ccc"/><polygon points="186.36 127.17 209.65 139.98 232.59 127.17 232.58 130.28 209.65 142.9 186.36 130.06 186.36 127.17" fill="#1e4549"/><polygon points="189.13 140.72 189.13 135.81 192.05 137.41 192.05 142.13 189.13 140.72" fill="#e0e0e0"/><polygon points="196.41 144.65 196.41 139.74 199.33 141.34 199.33 146.06 196.41 144.65" fill="#e0e0e0"/><polygon points="203.96 149.29 203.96 144.38 206.88 145.98 206.88 150.7 203.96 149.29" fill="#e0e0e0"/><polygon points="189.13 158.33 189.13 153.42 192.05 155.02 192.05 159.74 189.13 158.33" fill="#e0e0e0"/><polygon points="196.41 162.26 196.41 157.35 199.33 158.95 199.33 163.67 196.41 162.26" fill="#e0e0e0"/><polygon points="203.96 166.9 203.96 161.99 206.88 163.59 206.88 168.31 203.96 166.9" fill="#e0e0e0"/><polygon points="189.13 178.48 189.13 173.57 192.05 175.17 192.05 179.89 189.13 178.48" fill="#e0e0e0"/><polygon points="196.41 182.41 196.41 177.5 199.33 179.1 199.33 183.82 196.41 182.41" fill="#e0e0e0"/><polygon points="203.96 187.05 203.96 182.14 206.88 183.74 206.88 188.46 203.96 187.05" fill="#e0e0e0"/><polygon points="231.25 140.78 231.25 135.87 228.33 137.47 228.33 142.19 231.25 140.78" fill="#e0e0e0"/><polygon points="223.97 144.71 223.97 139.79 221.05 141.4 221.05 146.12 223.97 144.71" fill="#e0e0e0"/><polygon points="216.42 149.34 216.42 144.43 213.5 146.03 213.5 150.75 216.42 149.34" fill="#e0e0e0"/><polygon points="231.25 158.39 231.25 153.47 228.33 155.08 228.33 159.8 231.25 158.39" fill="#e0e0e0"/><polygon points="223.97 162.31 223.97 157.4 221.05 159 221.05 163.72 223.97 162.31" fill="#e0e0e0"/><polygon points="216.42 166.95 216.42 162.04 213.5 163.64 213.5 168.36 216.42 166.95" fill="#e0e0e0"/><polygon points="231.25 178.54 231.25 173.62 228.33 175.23 228.33 179.94 231.25 178.54" fill="#e0e0e0"/><polygon points="223.97 182.46 223.97 177.55 221.05 179.15 221.05 183.87 223.97 182.46" fill="#e0e0e0"/><polygon points="216.42 187.1 216.42 182.19 213.5 183.79 213.5 188.51 216.42 187.1" fill="#e0e0e0"/><polygon points="186.36 163.64 209.85 175.78 232.58 163.85 232.58 168.71 209.65 180.63 186.36 168.71 186.36 163.64" fill="#2e5b5a"/><polygon points="186.36 183.82 209.85 195.96 232.58 184.03 232.58 188.89 209.65 200.81 186.36 188.89 186.36 183.82" fill="#2e5b5a"/><polygon points="186.36 144.38 209.85 156.52 232.58 144.59 232.58 149.45 209.65 161.37 186.36 149.45 186.36 144.38" fill="#2e5b5a"/><path d="M164.23,263.59s-27-14.47-28.62-15.56l23.12-13.33L188,250.4C185.9,251.9,166.29,262.11,164.23,263.59Z" opacity="0.68" fill="url(#linear-gradient-7)" style="mix-blend-mode:multiply"/><polygon points="158.72 234.71 158.72 128.7 135.61 141.62 135.61 248.04 158.72 234.71" fill="#68e1fd"/><polygon points="158.72 234.71 158.72 128.7 135.61 141.62 135.61 248.04 158.72 234.71" fill="#1e4549" opacity="0.33"/><polygon points="135.61 141.62 112.13 128.7 112.13 234.25 135.61 248.04 135.61 141.62" fill="#68e1fd"/><polygon points="158.72 128.7 135.61 114.52 112.13 128.7 135.61 141.62 158.72 128.7" fill="#9d9ca1"/><polygon points="112.13 136.18 135.81 148.42 158.72 136.39 158.72 138.24 135.81 150.27 112.13 138.02 112.13 136.18" fill="#ccc"/><polygon points="112.13 143.86 135.81 156.1 158.72 144.07 158.72 145.92 135.81 157.95 112.13 145.71 112.13 143.86" fill="#ccc"/><polygon points="112.13 152.23 135.9 164.52 158.72 152.54 158.72 154.39 135.91 166.37 112.13 154.08 112.13 152.23" fill="#ccc"/><polygon points="112.13 159.82 136.09 172.2 158.72 160.32 158.72 162.18 136.09 174.05 112.13 161.66 112.13 159.82" fill="#ccc"/><polygon points="112.13 167.21 135.72 179.4 158.72 167.32 158.72 169.18 135.72 181.25 112.13 169.06 112.13 167.21" fill="#ccc"/><polygon points="112.13 174.79 135.9 187.09 158.72 175.1 158.72 176.96 135.91 188.94 112.13 176.64 112.13 174.79" fill="#ccc"/><polygon points="112.13 182.3 135.62 194.44 158.72 182.31 158.72 184.17 135.63 196.29 112.13 184.14 112.13 182.3" fill="#ccc"/><polygon points="112.13 190.13 135.81 202.38 158.72 190.34 158.72 192.2 135.81 204.23 112.13 191.98 112.13 190.13" fill="#ccc"/><polygon points="112.13 197.96 136 210.3 158.72 198.37 158.72 200.22 136 212.15 112.13 199.81 112.13 197.96" fill="#ccc"/><polygon points="112.13 205.55 136.18 217.98 158.72 206.15 158.72 208 136.19 219.84 112.13 207.4 112.13 205.55" fill="#ccc"/><polygon points="112.13 213.95 135.62 226.09 158.72 213.96 158.72 215.82 135.63 227.94 112.13 215.79 112.13 213.95" fill="#ccc"/><polygon points="112.13 221.53 135.81 233.77 158.72 221.74 158.72 223.6 135.81 235.62 112.13 223.38 112.13 221.53" fill="#ccc"/><polygon points="112.13 228.91 135.9 241.2 158.72 229.22 158.72 231.07 135.91 243.05 112.13 230.76 112.13 228.91" fill="#ccc"/><polygon points="302.01 196.14 346.98 171.06 334.76 163.64 291.05 189.49 302.01 196.14" fill="#189681"/><path d="M321.08,191.92a25.62,25.62,0,0,1,4.15,4.67,16.19,16.19,0,0,1-9.24-.21c-4.49-1.66-15.31-8.26-15.59-8.37a15.78,15.78,0,0,1-1.32-2.77" fill="#189681"/><path d="M299.08,181.24c-.1.15,0,4,0,4s5.74,4.24,8.78,6,7.63,3.64,14.67,4.24v-3.44a38.59,38.59,0,0,0-6.69-6.79s.45-.95-.35-1.4-7.54-4.44-7.54-4.44l-4.78-2.54-3.87,2.19a1.17,1.17,0,0,0-.51,1.44Z" fill="#fff"/><path d="M322.53,193.49s-7.38-.39-11.62-2.76S299,183.47,299,183.47l0,1.77,7.41,5.18s5.55,4.36,16,5.09Z" fill="#3d639b"/><polygon points="315.85 185.29 315.85 188.4 310.91 190.73 299.05 183.47 298.8 180.54 310.09 187.81 315.85 185.29" fill="#ccccce"/><polygon points="308.31 187.2 308.31 188.66 307.25 188.04 307.25 186.48 308.31 187.2" fill="#6a4e39"/><polygon points="306.85 186.36 306.85 187.81 305.79 187.2 305.79 185.63 306.85 186.36" fill="#6a4e39"/><polygon points="304.5 184.76 304.5 186.21 303.43 185.6 303.43 184.03 304.5 184.76" fill="#6a4e39"/><polygon points="303.14 183.92 303.14 185.37 302.07 184.75 302.07 183.19 303.14 183.92" fill="#6a4e39"/><path d="M322.53,192.07s-8.07-.43-12.29-1.73h0a25.66,25.66,0,0,0,12.29,3.15Z" fill="#7c9bc1"/><path d="M221.13,210.41c.3-.3,30.08-30.5,29.89-66.38l2.2-.19c0,.22,3.82,21.88,14.51,29a12.75,12.75,0,0,0,10.32,1.86c17.92-4.14,29.6-58.56,30.88-64.74a1.29,1.29,0,0,1,1.3-1l1.11.18.1.95c.56,5.33,4.28,23.35,28.42,31.56l2.3.78-127.06,74Zm57.42-33.55a14.91,14.91,0,0,1-12-2.17c-7.34-4.89-11.55-15.59-13.67-22.92-2.65,24.63-17.73,45.62-25.5,55l51.38-29.94ZM310.1,115c-3.11,13.73-11.5,45.83-24.25,57.67l51-29.74C318.23,135.76,312.11,122.73,310.1,115Z" fill="#aa4d0e"/><path d="M255.35,156.34a24,24,0,0,0,1.26,2.73v32.54H254.4V156.34Z" fill="#aa4d0e"/><path d="M261.06,167.18l.64.74v19.86h-2.21V165.16A18.57,18.57,0,0,0,261.06,167.18Z" fill="#aa4d0e"/><path d="M266.45,172.45V185h-2.21V170.7A13.31,13.31,0,0,0,266.45,172.45Z" fill="#aa4d0e"/><path d="M238.48,190.32v13.36h-2.21v-9.56C237,192.89,237.76,191.61,238.48,190.32Z" fill="#aa4d0e"/><path d="M243.57,179.89v19.95h-2.21v-15Q242.53,182.37,243.57,179.89Z" fill="#aa4d0e"/><path d="M246.3,172.17a1.65,1.65,0,0,0,.42-.45,24,24,0,0,0,1.59-3V197H246.1V172.82C246.17,172.6,246.24,172.38,246.3,172.17Z" fill="#aa4d0e"/><path d="M316.2,156.45h-1V122.8a17.92,17.92,0,0,0,2.21,3.76v29.39C317,156.11,316.59,156.27,316.2,156.45Z" fill="#aa4d0e"/><path d="M320.34,130l.59.61a1.75,1.75,0,0,0-.13.63v21.39h-.53V129.89Z" fill="#aa4d0e"/><path d="M326.3,135.38c.31.21.6.45.92.63v13.8h-.92Z" fill="#aa4d0e"/><path d="M297,168.09V150.62c.79-1.94,1.52-3.91,2.21-5.89v22C298.51,167.15,297.77,167.61,297,168.09Z" fill="#aa4d0e"/><path d="M303.23,164.67h-1.1V137.05l2.21-5.72v32.88C304,164.36,303.6,164.51,303.23,164.67Z" fill="#aa4d0e"/><path d="M307.54,161.87h-.66V126.6l2.21-8.69v42.88C308.57,161.15,308.05,161.5,307.54,161.87Z" fill="#aa4d0e"/><polygon points="235.43 219.56 222.8 211.95 339.94 142.86 354.43 151.05 235.43 219.56" fill="#f9b176"/><path d="M268.72,151.41v58.06H265.4V153.38l-11.61-6.3V192c-.57.22-1.13.46-1.69.72l-1.63.76v-52Z" fill="#aa4d0e"/><path d="M236.06,218.78c.3-.3,30.08-30.5,29.89-66.38l2.2-.19c0,.22,3.82,21.88,14.51,29A12.75,12.75,0,0,0,293,183.07c17.92-4.14,29.6-58.56,30.88-64.74a1.29,1.29,0,0,1,1.3-1l1.11.18.1.95c.56,5.33,4.28,23.35,28.42,31.56l2.3.78L230,224.81Zm57.42-33.55a14.91,14.91,0,0,1-12-2.17c-7.34-4.89-11.55-15.59-13.67-22.92-2.65,24.63-17.73,45.62-25.5,55l51.38-29.94ZM325,123.35c-3.11,13.73-11.5,45.83-24.25,57.67l51-29.74C333.16,144.12,327,131.1,325,123.35Z" fill="#aa4d0e"/><path d="M270.28,164.71a24,24,0,0,0,1.26,2.73V200h-2.21V164.71Z" fill="#aa4d0e"/><path d="M276,175.55l.64.74v19.86h-2.21V173.53A18.57,18.57,0,0,0,276,175.55Z" fill="#aa4d0e"/><path d="M281.38,180.82v12.53h-2.21V179.06A13.31,13.31,0,0,0,281.38,180.82Z" fill="#aa4d0e"/><path d="M253.41,198.68V212H251.2v-9.56C251.95,201.25,252.69,200,253.41,198.68Z" fill="#aa4d0e"/><path d="M258.5,188.26V208.2h-2.21v-15Q257.46,190.74,258.5,188.26Z" fill="#aa4d0e"/><path d="M261.23,180.53a1.65,1.65,0,0,0,.42-.45,24,24,0,0,0,1.59-3v28.36H261V181.18C261.1,181,261.17,180.75,261.23,180.53Z" fill="#aa4d0e"/><path d="M331.13,164.82h-1V131.17a17.92,17.92,0,0,0,2.21,3.76v29.39C331.92,164.48,331.52,164.64,331.13,164.82Z" fill="#aa4d0e"/><path d="M335.27,138.34c.7.75,1.41,1.5,2.14,2.22V161h-2.21V138.26Z" fill="#aa4d0e"/><path d="M342.15,144.38v13.8h-2.21V142.86A18.12,18.12,0,0,0,342.15,144.38Z" fill="#aa4d0e"/><path d="M312,176.46V159c.79-1.94,1.52-3.91,2.21-5.89v22C313.44,175.52,312.7,176,312,176.46Z" fill="#aa4d0e"/><path d="M318.16,173h-1.1V145.42l2.21-5.72v32.88C318.9,172.73,318.53,172.87,318.16,173Z" fill="#aa4d0e"/><path d="M322.47,170.24h-.66V135l2.21-8.69v42.88C323.5,169.51,323,169.87,322.47,170.24Z" fill="#aa4d0e"/><polygon points="325.68 186.94 326.19 116.01 307.94 106.1 307.94 159.35 311.26 159.35 311.26 111.68 322.86 117.98 322.36 186.91 325.68 186.94" fill="#aa4d0e"/></g></g></svg>