<svg xmlns="http://www.w3.org/2000/svg" xmlns:xlink="http://www.w3.org/1999/xlink" viewBox="0 0 400 300"><defs><linearGradient id="linear-gradient" x1="209.6" y1="269.89" x2="221.42" y2="260.58" gradientUnits="userSpaceOnUse"><stop offset="0" stop-color="#fff" stop-opacity="0"/><stop offset="0.98" stop-color="#aa6800"/></linearGradient><linearGradient id="linear-gradient-2" x1="105.13" y1="164.36" x2="81.82" y2="196.35" gradientUnits="userSpaceOnUse"><stop offset="0" stop-color="#f15a24"/><stop offset="1" stop-color="#fff"/></linearGradient><linearGradient id="linear-gradient-3" x1="123.37" y1="244.61" x2="178.53" y2="208.45" xlink:href="#linear-gradient"/></defs><title>0</title><g style="isolation:isolate"><g id="Layer_2" data-name="Layer 2"><path d="M65.14,191.41l165,92a9.73,9.73,0,0,0,10.16-.42l83.59-56a9.73,9.73,0,0,0-.72-16.61L166.27,123.91a9.73,9.73,0,0,0-9.39,0l-91.7,50.48A9.73,9.73,0,0,0,65.14,191.41Z" fill="#ffe922"/><path d="M254,231.37l-55.38,32.51,12.9,7.14,54.71-31.09C258.83,234.92,260.4,237.56,254,231.37Z" opacity="0.32" fill="url(#linear-gradient)"/><polyline points="287.92 212.74 305.8 209.96 290.24 225.82" fill="#ffc65a"/><ellipse cx="287.92" cy="219.63" rx="5.31" ry="6.89" fill="#68e1fd"/><polygon points="227.13 262.12 290.24 225.82 285.93 213.24 222.6 249.68 227.13 262.12" fill="#68e1fd"/><ellipse cx="225.06" cy="255.77" rx="5.31" ry="6.89" fill="#68e1fd"/><ellipse cx="225.06" cy="255.77" rx="5.31" ry="6.89" fill="#505a63" opacity="0.52"/><path d="M305.8,210,299,211s2.53.85,1.8,4Z" fill="#895415"/><path d="M91.65,199.11c6.5-5.58,11.23-10.79,18-16.09l-23.67-2.39-15.06,5.94C77.68,190.94,84.66,195,91.65,199.11Z" fill="url(#linear-gradient-2)" style="mix-blend-mode:multiply"/><path d="M88.29,170.31a3,3,0,0,1-1.23-.27l-.19,1.25,20,.51v-1.49Z" fill="#ef8a3f"/><path d="M87.05,170.08l-.18,1.2,11.05,6.38v-1.55C94.2,174.31,90.61,172.23,87.05,170.08Z" fill="#ef8a3f"/><path d="M98.21,83.78a3.19,3.19,0,0,1-1.92-.28L83.61,181.36c.77.47,1.57.89,2.35,1.33l12.83-99Z" fill="#ef8a3f"/><path d="M101.13,83.67a6.38,6.38,0,0,1-1.39,0c-.37,0-.75,0-1.12.06l8.57,100.34a20.33,20.33,0,0,1,2-.85l.34-.17.06,0Z" fill="#ef8a3f"/><path d="M99.74,83.67a11.51,11.51,0,0,0-1.53.11,3.81,3.81,0,0,1-.6,0l-.84,106h0a2.61,2.61,0,0,1,1.34-.11h.72l.42,0,.84-106Z" fill="#ef8a3f"/><path d="M85.91,85.36v21.92s25.22.75,25.22,0V85.36" fill="#68e1fd"/><ellipse cx="98.52" cy="85.32" rx="12.61" ry="5.84" fill="#68e1fd"/><ellipse cx="98.52" cy="85.32" rx="12.61" ry="5.84" fill="#091114" opacity="0.46"/><ellipse cx="98.52" cy="107.61" rx="12.61" ry="5.84" fill="#68e1fd"/><path d="M263.39,149.84c0-4.59-7.17-4.6-7.14,0q.21,29.55,2.32,59c.33,4.55,7.46,4.59,7.14,0Q263.6,179.39,263.39,149.84Z" fill="#091114"/><path d="M219.08,133.46l-25.4,34.78c-2.71,3.71,3.48,7.28,6.16,3.6l25.4-34.78C228,133.35,221.76,129.79,219.08,133.46Z" fill="#091114"/><path d="M317.41,92.72,184,15.92a4.08,4.08,0,0,0-6.1,3.21l-8.56,106.42a4.08,4.08,0,0,0,2.05,3.87l130.58,74a4.08,4.08,0,0,0,6.06-3.1L319.42,96.7A4.08,4.08,0,0,0,317.41,92.72Z" fill="#d15713"/><polygon points="304.04 118.39 247.51 86.74 239.65 152.84 296.32 184.67 304.04 118.39" fill="#68e1fd"/><path d="M197,48.19s.08,23.17-4.13,27.77L210.4,86.2a18.19,18.19,0,0,0,3.55-8c.38-2.61,1.65-19.87,1.65-19.87Z" fill="#68e1fd"/><path d="M218.43,60.58s.08,23.17-4.13,27.77l17.54,10.24a18.19,18.19,0,0,0,3.55-8C235.77,88,237,70.74,237,70.74Z" fill="#68e1fd"/><polygon points="262.93 91.15 260.99 98.61 292.78 115.91 295.03 109.39 262.93 91.15" fill="#091114"/><circle cx="228.15" cy="65.44" r="2.96" fill="#e28133"/><polygon points="225.02 146.13 230.38 104.76 194.31 83.13 225.02 146.13" fill="#ad3c04"/><polygon points="193.29 83.66 225.02 102.21 225.02 146.13 193.29 127.14 193.29 83.66" fill="#ff876a"/><circle cx="208.1" cy="52.88" r="2.9" fill="#e28133"/><path d="M171.65,200.33l-71.13,39.91,26,15.56,69.58-39.53C186.72,209.88,179.8,208.2,171.65,200.33Z" opacity="0.32" fill="url(#linear-gradient-3)"/><path d="M193.38,94.37s-.58-4,0-5.48a33.19,33.19,0,0,0,.93-5.77,1.61,1.61,0,0,1,1.86,1c.55,1.33-.6,4.6-.6,4.6s3.28,6.81,0,9.91S193.38,94.37,193.38,94.37Z" fill="#ffac99"/><path d="M171.6,115.63l21.78-21.26s4.93,10.72,0,15.63l-20,19.88" fill="#091114"/><path d="M167.53,203.53s-3,4.17-2.76,6.61,4.08,6.55,4.95,8.29,1.1,2.51,0,3.78S159.25,215.31,159,214s1.31-6.32,1.31-6.32l-4.16,5.26-3-1.79,6.43-10.83" fill="#ea7554"/><path d="M168.72,222.34c-.25-.25-7.68-2.83-7.68-2.83s-3.49-3.63-3.39-5,1.38-6.88,2.68-6.82,1.45,7.33,1.45,7.33Z" fill="#af4127"/><path d="M177.56,210.45l1,11.11s2.4,1.76,3,1.6,2.35-.61,2.37-.89-.85-7.85-.6-8,3.93,5.78,5.08,5.91,10-5,9.12-6.94-5.1-.93-7.2-.94a7.37,7.37,0,0,1-6.57-4.82" fill="#ea7554"/><path d="M183.13,180.35l5.38,28.48s-3.11,4.06-14.21,3.55L166,192.18" fill="#ffc65a"/><path d="M185.51,135.65s8.29,12.1,5.74,31.68c-2.26,17.36-19.6,37.81-19.6,37.81s-5.19,2.29-16-7.92l11.91-18.93s-11.61-26.89,2.1-44" fill="#ffc65a"/><path d="M208.88,112.44a1.21,1.21,0,0,1,2.42,0c0,.81,0,1.63,0,2.44l.27-.53a34.92,34.92,0,0,0,2.11-7c.3-1.56,2.54-.86,2.33.64a24.28,24.28,0,0,1-.74,3.48l.24-.1a1.59,1.59,0,0,1,2,1.12,2.25,2.25,0,0,1,.06,1.15l.18,0a1.75,1.75,0,0,1,.88,2.7,1.61,1.61,0,0,1,.58.95,2.34,2.34,0,0,1-1,2.22c-.83.69-1.74,1.59-2.5,2.33-1,1-2.13,1.94-3.06,2.72s-2.47-1.79-2.49-2.65a1.11,1.11,0,0,1-1.45-1.13Q209,116.63,208.88,112.44Z" fill="#ffac99"/><path d="M213.72,115q.86-1.79,1.58-3.63c.1-.26.53-.15.42.12q-.74,1.9-1.62,3.73C214,115.5,213.59,115.28,213.72,115Z" fill="#af594a"/><path d="M184.25,108.95a39.85,39.85,0,0,1,5.6,6.18c1.56,2.53,7.84,9.45,10.42,7.37s7.16-6.06,7.16-6.06,6.53,4.49,5.85,9.16c0,0-5.8,11.85-14.84,9.23s-11.29-6-11.29-6l-1.37,7.7s-11.22,3.51-16.41-1.7c0,0-3.41-22.14-.9-25.44" fill="#091114"/><path d="M185.5,95.54c.08.26.28,8.29-2.45,9s-7.37-1.14-8.58-3.69.52-10.65,4.82-11.12S184.73,93.2,185.5,95.54Z" fill="#ffac99"/><path d="M182.19,97c-1.8,1.22-.66,3.53.1,5a7.7,7.7,0,0,1,.8,3.67,4.81,4.81,0,0,0,1.17,3.24,12.8,12.8,0,0,1,1.53,2.44,36.21,36.21,0,0,1-12.07.15,93.59,93.59,0,0,1-9.83-1.32,5.92,5.92,0,0,1,.47-2c.77-1.77,2-2.72,1.74-4.8-.23-1.61-.64-3.19-.08-4.78s2-2.4,3.29-3.37a8.43,8.43,0,0,0,1.08-.94l.28-.48a23.43,23.43,0,0,1,2.42-4.13,7.13,7.13,0,0,1,3.89-2,11.58,11.58,0,0,1,8.88,2s2.34,2.25,1.61,4.66S183.8,95.93,182.19,97Z" fill="#e28133"/><path d="M184.24,186.22s-9.49,16.43-12.59,18.93l2.64,7.23S185.32,196.9,184.24,186.22Z" fill="#ea7554"/><path d="M167.78,177.42A51.74,51.74,0,0,0,172.73,157c0-.56.9-.57.88,0a52.85,52.85,0,0,1-5.07,20.87C168.3,178.37,167.54,177.93,167.78,177.42Z" fill="#ea7554"/></g></g></svg>