<svg id="Layer_2" data-name="Layer 2" xmlns="http://www.w3.org/2000/svg" xmlns:xlink="http://www.w3.org/1999/xlink" viewBox="0 0 400 300"><defs><linearGradient id="linear-gradient" x1="282.26" y1="230.16" x2="303.54" y2="199.2" gradientUnits="userSpaceOnUse"><stop offset="0" stop-color="#cfe217"/><stop offset="1" stop-color="#297600"/></linearGradient><linearGradient id="linear-gradient-2" x1="134.98" y1="248.81" x2="165.26" y2="204.77" xlink:href="#linear-gradient"/></defs><title>PP</title><path d="M192.93,289.57l-165.77-98c-5.28-3-9.8-7.83-4.66-11L188.87,84.7c2.5-1.55,6.29-2.56,8.82-1.09l174,101c5.28,3.06,6.22,11.63.94,14.69L214.78,289.41A22,22,0,0,1,192.93,289.57Z" fill="#cfe217"/><polyline points="310.54 185.07 259.38 215.57 278.45 236.64 332.81 204.48" opacity="0.32" fill="url(#linear-gradient)"/><polyline points="156.83 172.05 77.1 221.96 157.7 268.61 229.6 222.23" opacity="0.32" fill="url(#linear-gradient-2)"/><path d="M262.82,82.2l-.28.16c-1.15-10.43-8.84-46.37-38.43-59.05-10.53-4.51-17.57-3.91-22.28-1.1L167.34,41.95l19.87,16.14,5.11-3.73V160.62l35.24,20.18V221l34.7-20.33.42.24s.21-82.89.08-109.12Z" fill="#68e1fd"/><path d="M157.21,182.27v-118S157.21,31.34,189,45,227.29,99,227.57,105.9s0,116.66,0,116.66Z" fill="#68e1fd"/><polygon points="137.64 199.83 204.18 237.58 204.08 160.64 137.64 123.67 137.64 199.83" fill="#68e1fd"/><path d="M157.21,182.27v-118S157.21,31.34,189,45,227.29,99,227.57,105.9s0,116.66,0,116.66Z" fill="#2d9bad"/><polygon points="228.09 143.33 204.08 160.64 204.08 229.39 204.18 237.58 262.3 202.21 228.09 143.33" fill="#68e1fd"/><polygon points="137.64 199.83 204.18 237.58 204.08 160.64 137.64 123.67 137.64 199.83" fill="#68e1fd"/><polygon points="137.64 199.83 204.18 237.58 204.08 160.64 137.64 123.67 137.64 199.83" fill="#2d9bad"/><polygon points="137.06 124.34 157.41 106.2 228.09 143.33 204.08 160.64 137.06 124.34" fill="#68e1fd"/><polygon points="137.06 124.34 157.41 106.2 228.09 143.33 204.08 160.64 137.06 124.34" fill="#fff" opacity="0.53"/><ellipse cx="244.67" cy="162.26" rx="9.69" ry="6.23" transform="translate(-18.19 293.02) rotate(-60)" fill="#bc4f2e"/><polyline points="249.51 153.86 256.28 157.25 246.58 174.04 239.82 170.65" fill="#bc4f2e"/><ellipse cx="251.43" cy="165.64" rx="9.69" ry="6.23" transform="matrix(0.5, -0.87, 0.87, 0.5, -17.74, 300.57)" fill="#f15a24"/><rect x="245.09" y="105.9" width="5.97" height="50.88" rx="2.71" ry="2.71" fill="#3e4851"/><circle cx="248.07" cy="100.7" r="11.32" fill="#df544f"/><ellipse cx="251.67" cy="165.78" rx="5.52" ry="3.73" transform="matrix(0.5, -0.87, 0.87, 0.5, -17.74, 300.85)" fill="#fff"/><path d="M160,66.19l59.58,34.4s1-34.67-28.75-48.71C160,37.32,160,66.19,160,66.19Z" fill="#fcee21"/><polygon points="199.73 171.08 170.34 153.67 170.34 173.5 199.73 190.46 199.73 171.08" fill="#34547b"/><polygon points="141.95 161.51 141.95 192.98 199.73 226.72 199.73 194.68 141.95 161.51" fill="#34547b"/><ellipse cx="204.4" cy="146.11" rx="4.98" ry="2.29" transform="translate(-25.91 45.68) rotate(-12)" fill="#34547b"/><polyline points="208.84 142.04 209.27 145.08 199.52 147.15 199.09 144.11" fill="#34547b"/><ellipse cx="203.96" cy="143.08" rx="4.98" ry="2.29" transform="translate(-25.29 45.52) rotate(-12)" fill="#f15a24"/><ellipse cx="192.68" cy="141.26" rx="4.98" ry="2.29" transform="translate(-25.16 43.14) rotate(-12)" fill="#34547b"/><polyline points="197.11 137.19 197.55 140.23 187.8 142.3 187.36 139.26" fill="#34547b"/><ellipse cx="192.24" cy="138.23" rx="4.98" ry="2.29" transform="translate(-24.53 42.98) rotate(-12)" fill="#f15a24"/><ellipse cx="182.46" cy="136.85" rx="4.98" ry="2.29" transform="translate(-24.46 40.92) rotate(-12)" fill="#34547b"/><polyline points="186.9 132.78 187.34 135.81 177.59 137.88 177.15 134.85" fill="#34547b"/><ellipse cx="182.03" cy="133.81" rx="4.98" ry="2.29" transform="translate(-23.84 40.76) rotate(-12)" fill="#f15a24"/><ellipse cx="166.01" cy="126.44" rx="4.98" ry="2.29" transform="translate(-22.66 37.27) rotate(-12)" fill="#34547b"/><polyline points="170.45 122.37 170.89 125.4 161.14 127.47 160.7 124.44" fill="#34547b"/><ellipse cx="165.57" cy="123.4" rx="4.98" ry="2.29" transform="translate(-22.04 37.11) rotate(-12)" fill="#f15a24"/><ellipse cx="155.8" cy="122.02" rx="4.98" ry="2.29" transform="translate(-21.96 35.05) rotate(-12)" fill="#34547b"/><polyline points="160.24 117.95 160.67 120.98 150.92 123.06 150.49 120.02" fill="#34547b"/><ellipse cx="155.36" cy="118.99" rx="4.98" ry="2.29" transform="translate(-21.34 34.89) rotate(-12)" fill="#f15a24"/><polygon points="153.35 144.98 141.95 138.23 141.95 145.92 153.35 152.5 153.35 144.98" fill="#34547b"/><path d="M163.7,64.88,214.19,94S213,66.53,189.73,55.49,163.7,64.88,163.7,64.88Z" fill="none" stroke="#f15a24" stroke-miterlimit="10"/><path d="M175.09,63.58l24,13.87a1.5,1.5,0,0,0,1.51-2.59L176.61,61a1.5,1.5,0,0,0-1.51,2.59Z" fill="#f15a24"/><path d="M162.63,77.27V99.14a2.2,2.2,0,0,0,1.1,1.91l9.52,5.5a1.09,1.09,0,0,0,1.64-.95V83.44a1.79,1.79,0,0,0-.9-1.56l-9.72-5.56A1.09,1.09,0,0,0,162.63,77.27Z" fill="#df544f"/><ellipse cx="168.34" cy="91.43" rx="3.12" ry="4.54" transform="translate(-21.36 64.75) rotate(-20.5)" fill="#fff"/><polygon points="164.01 95.57 173.5 100.89 173.5 103.89 164.01 98.46 164.01 95.57" fill="#fcee21"/><polygon points="164.37 80.05 173.87 85.38 173.87 88.37 164.37 82.94 164.37 80.05" fill="#fcee21"/><path d="M182.82,88.77v21.87a2.2,2.2,0,0,0,1.1,1.91l9.52,5.5a1.09,1.09,0,0,0,1.64-.95V94.94a1.79,1.79,0,0,0-.9-1.56l-9.72-5.56A1.09,1.09,0,0,0,182.82,88.77Z" fill="#df544f"/><ellipse cx="188.53" cy="102.94" rx="3.12" ry="4.54" transform="translate(-24.11 72.56) rotate(-20.5)" fill="#fff"/><polygon points="184.2 107.07 193.7 112.4 193.7 115.39 184.2 109.96 184.2 107.07" fill="#fcee21"/><polygon points="184.56 91.55 194.06 96.88 194.06 99.87 184.56 94.44 184.56 91.55" fill="#fcee21"/><path d="M205.53,100.82v21.87a2.2,2.2,0,0,0,1.1,1.91l9.52,5.5a1.09,1.09,0,0,0,1.64-.95V107a1.79,1.79,0,0,0-.9-1.56l-9.72-5.56A1.09,1.09,0,0,0,205.53,100.82Z" fill="#df544f"/><ellipse cx="211.24" cy="114.99" rx="3.12" ry="4.54" transform="translate(-26.89 81.27) rotate(-20.5)" fill="#fff"/><polygon points="206.91 119.12 216.41 124.44 216.41 127.44 206.91 122.01 206.91 119.12" fill="#fcee21"/><polygon points="207.27 103.6 216.77 108.93 216.77 111.92 207.27 106.49 207.27 103.6" fill="#fcee21"/><polygon points="177.15 198.77 154.99 185.65 154.99 200.6 177.15 213.39 177.15 198.77" fill="#1d3349"/><polygon points="154.99 200.6 166.85 192.67 154.99 185.65 154.99 200.6" fill="#040607"/><polygon points="153.35 155.85 141.95 149.09 141.95 156.79 153.35 163.37 153.35 155.85" fill="#34547b"/><polygon points="166.85 152.65 155.45 145.89 155.45 153.59 166.85 160.17 166.85 152.65" fill="#34547b"/><polygon points="166.85 163.51 155.45 156.76 155.45 164.45 166.85 171.04 166.85 163.51" fill="#34547b"/><path d="M155.79,88.63s5.29-4.55,5.85-5.63.24-10.11,2.46-9.88,5.86,1.37,5.72,3-.25,1.33-.25,1.33a1.44,1.44,0,0,1,1.12.9c.43.87-3.61,4.61-3.73,5.22s-5.58,8.83-5.82,9.08" fill="#ffb9a1"/><path d="M170,133.76s6.3,3.74,7.58,3.67,3.63-1.66,4.26-1.94,1,.58,1,.58,3.43-1.13,4.75-.16-2.7,3.5-4.15,4.3a13.65,13.65,0,0,1-5.46,1.71s-5.32-1.49-8.88-2.59" fill="#ffb9a1"/><path d="M159.72,83.9s6.21,2.93,5.57,6.75c0,0-13.62,23.08-18.78,24.64s-8.1-8.59-6.69-10.08S159.72,83.9,159.72,83.9Z" fill="#6182e0"/><path d="M131.3,200c-.42,1-2.28,14.73-2.16,17.43s4.19,2.95,5.44,2.85,3.7-1.24,5.25-1.29,10.14-1.68,9.9-4-1.73-4.47-3.67-4.58-7.17.22-7.17.22l.53-12.46" fill="#ffb9a1"/><path d="M133.08,135.15a119.85,119.85,0,0,0-2.31,18.76c-.13,6.51-2.13,55-2.13,55s5.49,3.25,15.92.22c1.51-.44,3.43-44.92,3.43-44.92l-3.57-22.94" fill="#42210b"/><path d="M152.22,215.81c-.37,1-1.53,14.83-1.27,17.51s4.33,2.73,5.58,2.57,3.63-1.43,5.18-1.56,10-2.19,9.69-4.45-2-4.38-3.89-4.39-7.15.58-7.15.58l-.11-12.47" fill="#ffb9a1"/><path d="M152.81,140s7.36,24.37,10.07,46.35c.65,5.27,1.47,34,1.47,34a17.92,17.92,0,0,1-14.61,2s-1.88-36.34-2.09-37.2c-3.08-12.34-7.47-27.14-8.21-45.8" fill="#42210b"/><path d="M153.6,126.47c.35-5.16,2.22-7.87,1-12.88-3.72-4-10.71-8.93-11.46-9.08l-4,.92a7.7,7.7,0,0,0-6,7.29c-.21,8-.51,21.36-.19,22.42s8.17,7.79,19.73,4.86C153.13,135.5,153.29,131,153.6,126.47Z" fill="#6182e0"/><path d="M151.53,93.78s1.63,12-2.81,13-9.28-4.24-9.51-6.7S145.64,89.46,151.53,93.78Z" fill="#ffb9a1"/><path d="M153.87,96.35A1.25,1.25,0,0,0,155,94.89c-.45-2.49-2.16-7.53-8.48-7.64-4.84-.09-7.88,2.05-9.3,5.3h0l-.09.19-.36,1.05a12.77,12.77,0,0,0-.44,4.82c.2,4.56,3.65,7.12,8,7.65,0,0-1.79-6.73,1.13-5.66s5.36.73,4.45-3.94Z" fill="#844308"/><path d="M141.93,93.17l.42.46S142.36,93.37,141.93,93.17Z" fill="#844308"/><path d="M140.34,91.41c-.86-.26-10.74-4-13.6.75s-.38,12-3.87,13-13.54.42-14.47,4.91,3.65,6.87,2.58,8.86c-2.74,1.73-4.91,4-3.68,7.5a8.4,8.4,0,0,0,3.75,4.28c4.15,2.45,9.78.56,13.19-2.33,3-2.54,2.72-5.53,1.56-8.94-.89-2.61-2.44-5.77.47-7.69,4.33-2.84,9.36.41,10.83-2.84s-4.87-14.55.23-15.55c2.82-.56,4.05-.4,4.59-.15Z" fill="#844308"/><path d="M171.7,229.89a5.77,5.77,0,0,0-2.34-3.91,10.56,10.56,0,0,1-6.21,4.26,20.48,20.48,0,0,1-11.83-1,36.5,36.5,0,0,0-.05,4c.26,2.68,4.33,2.73,5.58,2.57s3.63-1.43,5.18-1.56S172.06,232.14,171.7,229.89Z" fill="#42210b"/><path d="M147.25,210.8a13.15,13.15,0,0,1-9.5,4.34,32.38,32.38,0,0,1-5.81-.59,6.86,6.86,0,0,1-2.62-.85,34.41,34.41,0,0,0-.21,3.81c.14,2.69,4.21,2.92,5.46,2.81s3.69-1.27,5.24-1.33,10.13-1.75,9.87-4A5.59,5.59,0,0,0,147.25,210.8Z" fill="#42210b"/><path d="M154.63,113.59s6.54,12.55,8.88,14.76,12.07,5.9,12.67,6.79-1.35,4.27-2.13,5.7S162,139.28,160,137.72s-9.5-7.29-12.36-13.92a8.07,8.07,0,0,1,2.9-10.21" fill="#6182e0"/><ellipse cx="316.14" cy="196.39" rx="21.89" ry="12.82" fill="#ff912e"/><polygon points="294.25 196.39 294.25 192.69 296.63 195.65 294.25 196.39" fill="#e0944f"/><polygon points="338.02 192.69 338.02 196.39 335.25 196.39 337.28 193.42 338.02 192.69" fill="#e0944f"/><ellipse cx="316.14" cy="192.69" rx="21.89" ry="12.82" fill="#ffb92c"/><path d="M327.24,191a1.71,1.71,0,0,1,.17,1l-.09.34-4,0a1.82,1.82,0,0,0,.07-.34,1.49,1.49,0,0,0-.24-.73,2.19,2.19,0,0,0-1-.89,4.37,4.37,0,0,0-1.88-.49,4,4,0,0,0-1.78.27q-.84.36-.65.94a3.46,3.46,0,0,0,.85,1.25,15.22,15.22,0,0,1,1.21,1.39,1.46,1.46,0,0,1,.22,1.54,3.44,3.44,0,0,1-1.94,1.51,11.5,11.5,0,0,1-4.23.88,13.54,13.54,0,0,1-4.63-.65l-2.3,1-2.69-1.31,2.23-1a5,5,0,0,1-1.07-1,2.84,2.84,0,0,1-.53-.89,2.93,2.93,0,0,1-.14-.72,1.56,1.56,0,0,1,0-.5l.08-.19h4a3.19,3.19,0,0,0-.1.4,1.7,1.7,0,0,0,.32.91,3,3,0,0,0,1.32,1.13,5.68,5.68,0,0,0,2.32.6,4.83,4.83,0,0,0,2.14-.34q.83-.36.62-.94a3.45,3.45,0,0,0-.88-1.25,12.79,12.79,0,0,1-1.22-1.39,1.43,1.43,0,0,1-.17-1.55,3.73,3.73,0,0,1,2-1.54,11,11,0,0,1,4.06-.8,11.73,11.73,0,0,1,4.33.67l2.29-1,2.51,1.37-2.3,1A3.27,3.27,0,0,1,327.24,191Z" fill="#ea8b24"/><ellipse cx="316.18" cy="192.84" rx="18.37" ry="10.76" fill="none" stroke="#f7931e" stroke-miterlimit="10" stroke-width="6"/><ellipse cx="316.14" cy="186.57" rx="21.89" ry="12.82" fill="#ff912e"/><polygon points="294.25 186.57 294.25 182.87 296.63 185.83 294.25 186.57" fill="#e0944f"/><polygon points="338.02 182.87 338.02 186.57 335.25 186.57 337.28 183.6 338.02 182.87" fill="#e0944f"/><ellipse cx="316.14" cy="182.87" rx="21.89" ry="12.82" fill="#ffb92c"/><path d="M327.24,181.15a1.71,1.71,0,0,1,.17,1l-.09.34-4,0a1.82,1.82,0,0,0,.07-.34,1.49,1.49,0,0,0-.24-.73,2.19,2.19,0,0,0-1-.89,4.37,4.37,0,0,0-1.88-.49,4,4,0,0,0-1.78.27q-.84.36-.65.94a3.46,3.46,0,0,0,.85,1.25,15.22,15.22,0,0,1,1.21,1.39,1.46,1.46,0,0,1,.22,1.54,3.44,3.44,0,0,1-1.94,1.51,11.5,11.5,0,0,1-4.23.88,13.54,13.54,0,0,1-4.63-.65l-2.3,1-2.69-1.31,2.23-1a5,5,0,0,1-1.07-1,2.84,2.84,0,0,1-.53-.89,2.93,2.93,0,0,1-.14-.72,1.56,1.56,0,0,1,0-.5l.08-.19h4a3.19,3.19,0,0,0-.1.4,1.7,1.7,0,0,0,.32.91,3,3,0,0,0,1.32,1.13,5.68,5.68,0,0,0,2.32.6,4.83,4.83,0,0,0,2.14-.34q.83-.36.62-.94a3.45,3.45,0,0,0-.88-1.25,12.79,12.79,0,0,1-1.22-1.39,1.43,1.43,0,0,1-.17-1.55,3.73,3.73,0,0,1,2-1.54,11,11,0,0,1,4.06-.8,11.73,11.73,0,0,1,4.33.67l2.29-1,2.51,1.37-2.3,1A3.27,3.27,0,0,1,327.24,181.15Z" fill="#ea8b24"/><ellipse cx="316.18" cy="183.02" rx="18.37" ry="10.76" fill="none" stroke="#f7931e" stroke-miterlimit="10" stroke-width="2"/><ellipse cx="316.14" cy="178.56" rx="21.89" ry="12.82" fill="#ff912e"/><polygon points="294.25 178.56 294.25 174.86 296.63 177.82 294.25 178.56" fill="#e0944f"/><polygon points="338.02 174.86 338.02 178.56 335.25 178.56 337.28 175.59 338.02 174.86" fill="#e0944f"/><ellipse cx="316.14" cy="174.86" rx="21.89" ry="12.82" fill="#ffb92c"/><path d="M327.24,173.15a1.71,1.71,0,0,1,.17,1l-.09.34-4,0a1.82,1.82,0,0,0,.07-.34,1.49,1.49,0,0,0-.24-.73,2.19,2.19,0,0,0-1-.89,4.37,4.37,0,0,0-1.88-.49,4,4,0,0,0-1.78.27q-.84.36-.65.94a3.46,3.46,0,0,0,.85,1.25A15.22,15.22,0,0,1,320,175.9a1.46,1.46,0,0,1,.22,1.54,3.44,3.44,0,0,1-1.94,1.51,11.5,11.5,0,0,1-4.23.88,13.54,13.54,0,0,1-4.63-.65l-2.3,1-2.69-1.31,2.23-1a5,5,0,0,1-1.07-1,2.84,2.84,0,0,1-.53-.89,2.93,2.93,0,0,1-.14-.72,1.56,1.56,0,0,1,0-.5l.08-.19h4a3.19,3.19,0,0,0-.1.4,1.7,1.7,0,0,0,.32.91,3,3,0,0,0,1.32,1.13,5.68,5.68,0,0,0,2.32.6,4.83,4.83,0,0,0,2.14-.34q.83-.36.62-.94a3.45,3.45,0,0,0-.88-1.25,12.79,12.79,0,0,1-1.22-1.39,1.43,1.43,0,0,1-.17-1.55,3.73,3.73,0,0,1,2-1.54,11,11,0,0,1,4.06-.8,11.73,11.73,0,0,1,4.33.67l2.29-1,2.51,1.37-2.3,1A3.27,3.27,0,0,1,327.24,173.15Z" fill="#ea8b24"/><ellipse cx="316.18" cy="175.02" rx="18.37" ry="10.76" fill="none" stroke="#f7931e" stroke-miterlimit="10" stroke-width="6"/><ellipse cx="316.14" cy="171.4" rx="21.89" ry="12.82" fill="#ff912e"/><polygon points="294.25 171.4 294.25 167.7 296.63 170.66 294.25 171.4" fill="#e0944f"/><polygon points="338.02 167.7 338.02 171.4 335.25 171.4 337.28 168.43 338.02 167.7" fill="#e0944f"/><ellipse cx="316.14" cy="167.7" rx="21.89" ry="12.82" fill="#ffb92c"/><path d="M327.24,166a1.71,1.71,0,0,1,.17,1l-.09.34-4,0a1.82,1.82,0,0,0,.07-.34,1.49,1.49,0,0,0-.24-.73,2.19,2.19,0,0,0-1-.89,4.37,4.37,0,0,0-1.88-.49,4,4,0,0,0-1.78.27q-.84.36-.65.94a3.46,3.46,0,0,0,.85,1.25,15.22,15.22,0,0,1,1.21,1.39,1.46,1.46,0,0,1,.22,1.54,3.44,3.44,0,0,1-1.94,1.51,11.5,11.5,0,0,1-4.23.88,13.54,13.54,0,0,1-4.63-.65l-2.3,1-2.69-1.31,2.23-1a5,5,0,0,1-1.07-1,2.84,2.84,0,0,1-.53-.89,2.93,2.93,0,0,1-.14-.72,1.56,1.56,0,0,1,0-.5l.08-.19h4a3.19,3.19,0,0,0-.1.4,1.7,1.7,0,0,0,.32.91,3,3,0,0,0,1.32,1.13,5.68,5.68,0,0,0,2.32.6,4.83,4.83,0,0,0,2.14-.34q.83-.36.62-.94a3.45,3.45,0,0,0-.88-1.25,12.79,12.79,0,0,1-1.22-1.39,1.43,1.43,0,0,1-.17-1.55,3.73,3.73,0,0,1,2-1.54,11,11,0,0,1,4.06-.8,11.73,11.73,0,0,1,4.33.67l2.29-1,2.51,1.37-2.3,1A3.27,3.27,0,0,1,327.24,166Z" fill="#ea8b24"/><ellipse cx="316.18" cy="167.86" rx="18.37" ry="10.76" fill="none" stroke="#f7931e" stroke-miterlimit="10" stroke-width="2"/><ellipse cx="307.74" cy="160.19" rx="21.89" ry="12.82" fill="#ff912e"/><polygon points="285.85 160.19 285.85 156.49 288.23 159.44 285.85 160.19" fill="#e0944f"/><polygon points="329.63 156.49 329.63 160.19 326.85 160.19 328.88 157.22 329.63 156.49" fill="#e0944f"/><ellipse cx="307.74" cy="156.49" rx="21.89" ry="12.82" fill="#ffb92c"/><path d="M318.84,154.77a1.71,1.71,0,0,1,.17,1l-.09.34-4,0a1.82,1.82,0,0,0,.07-.34,1.49,1.49,0,0,0-.24-.73,2.19,2.19,0,0,0-1-.89,4.37,4.37,0,0,0-1.88-.49,4,4,0,0,0-1.78.27q-.84.36-.65.94a3.46,3.46,0,0,0,.85,1.25,15.22,15.22,0,0,1,1.21,1.39,1.46,1.46,0,0,1,.22,1.54,3.44,3.44,0,0,1-1.94,1.51,11.5,11.5,0,0,1-4.23.88,13.54,13.54,0,0,1-4.63-.65l-2.3,1L296,160.49l2.23-1a5,5,0,0,1-1.07-1,2.84,2.84,0,0,1-.53-.89,2.93,2.93,0,0,1-.14-.72,1.56,1.56,0,0,1,0-.5l.08-.19h4a3.19,3.19,0,0,0-.1.4,1.7,1.7,0,0,0,.32.91,3,3,0,0,0,1.32,1.13,5.68,5.68,0,0,0,2.32.6,4.83,4.83,0,0,0,2.14-.34q.83-.36.62-.94a3.45,3.45,0,0,0-.88-1.25,12.79,12.79,0,0,1-1.22-1.39,1.43,1.43,0,0,1-.17-1.55,3.73,3.73,0,0,1,2-1.54,11,11,0,0,1,4.06-.8,11.73,11.73,0,0,1,4.33.67l2.29-1,2.51,1.37-2.3,1A3.27,3.27,0,0,1,318.84,154.77Z" fill="#ea8b24"/><ellipse cx="307.78" cy="156.64" rx="18.37" ry="10.76" fill="none" stroke="#f7931e" stroke-miterlimit="10" stroke-width="2"/></svg>