<svg id="Layer_2" data-name="Layer 2" xmlns="http://www.w3.org/2000/svg" xmlns:xlink="http://www.w3.org/1999/xlink" viewBox="0 0 400 300"><defs><linearGradient id="linear-gradient" x1="91.61" y1="199.52" x2="114.04" y2="183.88" gradientUnits="userSpaceOnUse"><stop offset="0" stop-color="#007f68"/><stop offset="1" stop-color="#00674c"/></linearGradient><linearGradient id="linear-gradient-2" x1="121.26" y1="225.22" x2="220.66" y2="151.91" xlink:href="#linear-gradient"/><linearGradient id="linear-gradient-3" x1="190.71" y1="273.82" x2="264.32" y2="219.54" xlink:href="#linear-gradient"/></defs><title>PP</title><path d="M194.28,291.14,14.56,184.93C8.84,181.71,3.93,176.44,9.51,173L189.88,69c2.71-1.68,6.82-2.78,9.57-1.18L388.11,177.34c5.72,3.32,6.75,12.6,1,15.93L218,291A23.9,23.9,0,0,1,194.28,291.14Z" fill="#007f68"/><path d="M142.84,169.36s.75,1.81-1.95,3.29S92.24,206,92.24,206l-11.39-6.58,55.82-31.29Z" fill="url(#linear-gradient)"/><path d="M222.67,154.64s.44,12.13-3.59,15.7-81.94,58.18-81.94,58.18L113,214Z" fill="url(#linear-gradient-2)"/><path d="M272.77,231l-56.46,49.2c.13,1.6-37.68-22.76-37.68-22.76l71-35" fill="url(#linear-gradient-3)"/><path d="M216.48,6.64c-14.58,8.64-50.67,30-61.46,36.27a6,6,0,0,0-3,5.26V196.33c-.22,3,3.2,5.82,6,4.23L218.67,166c2.44-1.4,4-3.37,4-6.18V10.17A4.1,4.1,0,0,0,216.48,6.64Z" fill="#68e1fd"/><path d="M222.27,8.39,203,19.54v4.12a2,2,0,0,1-1,1.71L187.2,33.91a1.3,1.3,0,0,1-2-1.13v-3L157.51,46a1.76,1.76,0,0,0-.87,1.52V195.61a1.2,1.2,0,0,0,1.8,1l64.23-37.23a6.37,6.37,0,0,1-2.83,5.91c-3.33,2.12-61.84,35.23-61.84,35.23s-4.63,2.09-6-3.43v-149a6.09,6.09,0,0,1,2.51-4.94c2.68-1.95,61.95-36.59,61.95-36.59A4.19,4.19,0,0,1,222.27,8.39Z" fill="#124577"/><path d="M188.2,72.81c3.28-3.37,6.82-5.15,10.13-5.15a9,9,0,0,1,1.86.19,10.7,10.7,0,0,1,6.28,4.33,61.79,61.79,0,0,1,4.73-5.82,17.42,17.42,0,0,0-9.49-5.7c-6.38-1.35-13.05,1.14-18.78,7a36.86,36.86,0,0,0-4.55,5.75c2.1,1.27,4.14,2.62,6.18,4A29.61,29.61,0,0,1,188.2,72.81Z" fill="#56403d"/><path d="M188.23,124.63c-3.51-1.05-6.42-4.29-8.25-9.21-2.16-5.82-2.49-13.1-.93-20.49a42,42,0,0,1,4.69-12.42c-2-1.35-4.09-2.71-6.19-4a49.25,49.25,0,0,0-5.7,14.88c-1.85,8.74-1.41,17.46,1.23,24.57s7.11,11.8,12.75,13.59C186.57,129.24,187.34,126.91,188.23,124.63Z" fill="#ffa197"/><path d="M216,78.45a27.34,27.34,0,0,0-3.83-7.08,61.66,61.66,0,0,0-4.8,6A21.74,21.74,0,0,1,209.15,81c2.16,5.82,2.49,13.1.93,20.49s-4.81,13.91-9.15,18.36c-3.61,3.71-7.53,5.49-11.13,5.09-.92,2.31-1.7,4.67-2.44,7h.05a16.51,16.51,0,0,0,3.42.36c5.3,0,10.65-2.54,15.36-7.37,5.3-5.43,9.23-13.23,11.08-22S218.69,85.56,216,78.45Z" fill="#f2f2f2"/><ellipse cx="198.49" cy="101.05" rx="8.32" ry="4.59" transform="translate(76.09 287.13) rotate(-83.65)" fill="#f2f2f2"/><path d="M216.92,136.53l-42.4,23.68a1.47,1.47,0,0,0,1.43,2.56l42.4-23.68A1.47,1.47,0,0,0,216.92,136.53Z" fill="#f2f2f2"/><path d="M216.24,131l-42.4,23.68a1.47,1.47,0,0,0,1.43,2.56l42.4-23.68A1.47,1.47,0,0,0,216.24,131Z" fill="#f2f2f2"/><path d="M110.19,189.5l30.7-16.85a3.76,3.76,0,0,0,1.95-3.29V113.09a3.76,3.76,0,0,0-5.63-3.25l-30.7,17.72a3.76,3.76,0,0,0-1.88,3.25v55.4A3.76,3.76,0,0,0,110.19,189.5Z" fill="#fdd400"/><path d="M112.05,150.31v13.47c0,3.91,6.08,3.92,6.08,0V150.31C118.13,146.39,112.05,146.39,112.05,150.31Z" fill="#56403d"/><path d="M120.32,136.48v21.74c0,3.91,6.08,3.92,6.08,0V136.48C126.4,132.57,120.32,132.56,120.32,136.48Z" fill="#ffa197"/><path d="M130.11,120.73V154.1c0,3.91,6.08,3.92,6.08,0V120.73C136.2,116.82,130.11,116.81,130.11,120.73Z" fill="#f2f2f2"/><path d="M122.55,167.55l-7.52,4c-1.07.56-.12,2.18.94,1.62l7.52-4C124.56,168.61,123.62,167,122.55,167.55Z" fill="#f2f2f2"/><path d="M135.73,166.56q-10.49,5.63-21.19,10.83c-1.08.53-.14,2.14.94,1.62q10.7-5.21,21.19-10.83C137.73,167.61,136.79,166,135.73,166.56Z" fill="#f2f2f2"/><path d="M131,102.34l32.37-17.77a4,4,0,0,0,2.06-3.47V21.75a4,4,0,0,0-5.94-3.43L127.11,37a4,4,0,0,0-2,3.43V98.86A4,4,0,0,0,131,102.34Z" fill="#ffa197"/><path d="M133,61V75.21c0,4.13,6.41,4.13,6.41,0V61C139.38,56.87,133,56.87,133,61Z" fill="#56403d"/><path d="M141.68,46.43V69.35c0,4.13,6.41,4.13,6.41,0V46.43C148.09,42.3,141.68,42.29,141.68,46.43Z" fill="#68e1fd"/><path d="M152,29.81V65c0,4.13,6.41,4.13,6.41,0V29.81C158.43,25.69,152,25.68,152,29.81Z" fill="#f2f2f2"/><path d="M144,79.19l-7.93,4.17c-1.12.59-.13,2.29,1,1.7L145,80.89C146.16,80.3,145.16,78.6,144,79.19Z" fill="#f2f2f2"/><path d="M157.93,78.15q-11.06,5.93-22.35,11.43c-1.14.56-.14,2.26,1,1.7q11.29-5.49,22.35-11.43C160,79.25,159.05,77.55,157.93,78.15Z" fill="#f2f2f2"/><path d="M270,208.72c.53,1.26,2.9,18.77,2.75,22.2s-5.34,3.76-6.93,3.63-4.71-1.58-6.69-1.65-12.92-2.14-12.61-5,2.21-5.69,4.67-5.84,9.14.28,9.14.28l-.67-15.87" fill="#ff6753"/><path d="M267.73,126.06a152.67,152.67,0,0,1,2.94,23.9c.17,8.29,2.71,70.06,2.71,70.06s-4.79,2.89-18.08-1c-1.93-.56-3.73-57.39-3.73-57.39l1.71-27.8" fill="#68e1fd"/><path d="M249.67,222.43a16.76,16.76,0,0,0,12.1,5.53,41.24,41.24,0,0,0,7.4-.75,8.74,8.74,0,0,0,3.33-1.08,43.84,43.84,0,0,1,.27,4.85c-.18,3.43-5.36,3.72-7,3.58s-4.7-1.61-6.67-1.7-12.9-2.23-12.57-5.12A7.12,7.12,0,0,1,249.67,222.43Z" fill="#42210b"/><path d="M223.43,89S221,85.42,221,83.66s2.14.55,2.14.55l-.28-4.43s1.65,2.58,2.49,3.79,3.52,6.94,4,8,4.81,3.79,4.81,3.79-1.25,4.07-2.57,4.35-7.81-5.57-7.81-5.57Z" fill="#f04900"/><path d="M231.56,90.53s-4.83,4.28-4,9.14c0,0,6.08,12.08,12.65,14.07s10.32-10.95,8.52-12.85S231.56,90.53,231.56,90.53Z" fill="#f7944b"/><path d="M216.31,103.06s-2.25-2.07-1.86-2.7,1.39-6.43.91-7.59c-.85-2.07-3,2.53-3,2.53l-.61-8.09s-2.36,2.56-2.25,4-.12,11.13,0,11.85,2.14,5.94,2.14,5.94" fill="#f04900"/><path d="M242.94,228.82c.47,1.28,1.95,18.89,1.62,22.31s-5.52,3.48-7.1,3.27-4.62-1.82-6.59-2-12.79-2.79-12.34-5.67,2.49-5.57,5-5.59,9.11.74,9.11.74l.14-15.88" fill="#ff6753"/><path d="M242.6,132.25A252.76,252.76,0,0,0,231,182.43c-.83,6.72-3.14,52.14-3.14,52.14s8.43,5.81,18.62,2.53c0,0,7.64-55.38,7.91-56.47,3.92-15.72,4.27-25.49,5.21-49.26" fill="#68e1fd"/><path d="M241.59,115c-.45-6.57-2.83-10-1.32-16.4C245,93.45,253.92,87.23,254.87,87l5,1.17a9.81,9.81,0,0,1,7.59,9.29c.27,10.19.65,27.21.24,28.57s-10.4,9.92-25.13,6.19C242.18,126.51,242,120.75,241.59,115Z" fill="#fdd400"/><path d="M244.22,73.37s-2.08,15.28,3.58,16.57,11.82-5.41,12.11-8.54S251.72,67.86,244.22,73.37Z" fill="#f04900"/><path d="M241.25,76.64a1.59,1.59,0,0,1-1.45-1.86c.58-3.17,2.75-9.59,10.81-9.74,6.16-.11,10,2.62,11.85,6.75h0l.11.24.46,1.34a16.26,16.26,0,0,1,.56,6.14c-.26,5.81-4.65,9.07-10.23,9.74,0,0,2.28-8.58-1.43-7.21s-6.83.93-5.66-5Z" fill="#844308"/><path d="M256.45,72.58l-.54.59S255.9,72.84,256.45,72.58Z" fill="#844308"/><path d="M258.48,70.35c1.09-.33,13.68-5.06,17.33,1s.49,15.27,4.93,16.51,17.25.54,18.43,6.26c1.15,5.54-4.65,8.75-3.28,11.29,3.49,2.2,6.25,5.11,4.68,9.56a10.7,10.7,0,0,1-4.78,5.45c-5.28,3.12-12.45.72-16.8-3-3.81-3.23-3.47-7-2-11.39,1.14-3.32,3.11-7.36-.6-9.79-5.52-3.62-11.93.52-13.8-3.62s6.21-18.53-.3-19.81c-3.6-.71-5.16-.51-5.85-.2Z" fill="#844308"/><path d="M210.89,108.66a9.23,9.23,0,0,1,5.42-5.89c4.78,4.53,10.64,9.45,12.56,8.68,2.82-1.13,8.45-14.27,16.45-14.93s7.78,10.41,7.78,10.41-14,21.55-21.54,21.92c-6.1.3-17.19-10.41-21.54-15.58A21.76,21.76,0,0,1,210.89,108.66Z" fill="#fdd400"/><path d="M218.52,246.74a7.35,7.35,0,0,1,3-5,13.45,13.45,0,0,0,7.91,5.42A26.09,26.09,0,0,0,244.49,246a46.49,46.49,0,0,1,.07,5.15c-.33,3.42-5.52,3.48-7.1,3.27s-4.62-1.82-6.59-2S218.07,249.62,218.52,246.74Z" fill="#42210b"/></svg>