<svg id="Layer_2" data-name="Layer 2" xmlns="http://www.w3.org/2000/svg" xmlns:xlink="http://www.w3.org/1999/xlink" viewBox="0 0 400 300"><defs><linearGradient id="linear-gradient" x1="185.58" y1="250.37" x2="215.08" y2="231.24" gradientUnits="userSpaceOnUse"><stop offset="0" stop-color="#fff" stop-opacity="0"/><stop offset="0.99" stop-color="#dc841e"/></linearGradient><linearGradient id="linear-gradient-2" x1="279.4" y1="222.11" x2="320.2" y2="187.97" xlink:href="#linear-gradient"/></defs><title>PP</title><path d="M194.73,278.19,29,180.22c-5.28-3-9.8-7.83-4.66-11L190.67,73.33c2.5-1.55,6.29-2.56,8.82-1.09l174,101c5.28,3.06,6.22,11.63.94,14.69L216.58,278A22,22,0,0,1,194.73,278.19Z" fill="#ffd4bf"/><path d="M185.92,260.72l47.79-27.1-22.56-10.18-44.88,25Q176.27,254.31,185.92,260.72Z" opacity="0.32" fill="url(#linear-gradient)"/><path d="M227.14,67.09c1.47,1.22,7.51,42.29,6.57,45.24s-10.08,7.42-10.08,7.42" fill="#b22b6b"/><path d="M172.63,66.7l-.58-1a.94.94,0,0,0,.39-1.2c-.5-1.12-1-2.24-1.53-3.35a.9.9,0,0,0,0-.41,25.06,25.06,0,0,1-.85-7.69c.23-2.08.85-4.08,1-6.16.07-.74-.78-1-1.33-.76a2.15,2.15,0,0,0-1,1.11,7.19,7.19,0,0,0-1.21,3.14,4.81,4.81,0,0,0-.36-1.41q-.21-.85-.42-1.7a12.39,12.39,0,0,0-.89-2.6c-.39-.78-1.28-1.14-1.73-.63-.68.77,0,2.17.11,3.07s.27,1.69.5,2.6c-.35-.84-1.06-2.3-1.52-3.32-.36-.78-1.37-3.32-2.49-3s-.59,2.08-.28,2.9l.87,2.36c.26.7.55,1.62.85,2.26,0,0-1.18-1.72-1.76-2.63-.47-.72-1-1.78-2-1.45-.68.21-.64,1.23-.32,1.83.85,1.6,1.79,3.15,2.78,4.66-.63-.59-1.25-1.2-1.9-1.77a.92.92,0,0,0-1.5.77.76.76,0,0,0,.14.47l8.13,11.68a17.1,17.1,0,0,0,3.3,5c.78.82,2-.42,1.25-1.25l-.11-.13a.88.88,0,0,0,.08-.13.93.93,0,0,0,.62-.48l.06,0a.89.89,0,0,0,.28.13A.87.87,0,0,0,172.63,66.7Z" fill="#ffb7a2"/><path d="M166.37,51a5.33,5.33,0,0,0-2,4.63c0,.4.66.4.62,0a4.76,4.76,0,0,1,1.81-4.19C167.13,51.23,166.68,50.79,166.37,51Z" fill="#42342d"/><path d="M165.51,50.08q-.67-2.46-1.13-5c-.07-.39-.67-.23-.6.17q.46,2.51,1.13,5A.31.31,0,0,0,165.51,50.08Z" fill="#42342d"/><path d="M162.88,51.46a35.73,35.73,0,0,1-2-5.65.31.31,0,0,0-.6.17,36.71,36.71,0,0,0,2.11,5.8C162.51,52.14,163,51.82,162.88,51.46Z" fill="#42342d"/><path d="M161.91,53.91a23.46,23.46,0,0,1-3.34-5.05c-.18-.36-.72,0-.54.31a24.09,24.09,0,0,0,3.44,5.18C161.74,54.65,162.18,54.21,161.91,53.91Z" fill="#42342d"/><path d="M221.22,204.79s-.45,12.37,1.81,16.11,13.55,10.05,10.57,12.69-10,1.31-12.36-1.59a58.57,58.57,0,0,1-4.17-6.39l0,4.69s-4.7-2.8-4.7-3-1.08-27.91-1.08-27.91" fill="#42342d"/><path d="M204.13,210s-.46,12.34,1.83,16.07,14.17,12.27,11.16,14.9-10,.21-12.93-3.4a42.66,42.66,0,0,1-4.25-6.79l0,4.67s-4.74-2.79-4.74-3-1.09-27.84-1.09-27.84" fill="#42342d"/><path d="M226.53,105.78c.6,1.55,6.13,92.15.3,103.68a29.31,29.31,0,0,1-15.39,3.25l-1.9,6.75s-14.3,4.44-24.63.13c0,0-6-80.93,12.28-114.14" fill="#68e1fd"/><path d="M226.71,104.76c.35-4.16.35-9.64.42-10.61q.26-3.71.47-7.42.26-4.49.44-9c.18-4.31.68-9.38-2.31-12.94-3.16-3.72-9.94-4.92-14.55-4.32s-8.85,3.56-11.93,7.36a276.91,276.91,0,0,0-2.09,37.6C206.09,108.07,219.73,110.58,226.71,104.76Z" fill="#ff5ba4"/><path d="M210.54,61.19a22,22,0,0,0-10.42,3.23c-2.38,1.56-3.76,4.09-6.34,5.38-3.47,1.74-8.55,1.72-11.41-1.22A63.41,63.41,0,0,1,178,63.3c-1.07-1.37-5.46-8.49-7.78-7.63-2.71,1-6.61,4.82-6.78,7S174.78,87.41,184.9,89A27,27,0,0,0,203,85" fill="#ff5ba4"/><path d="M208.1,57.24V63.7a13.17,13.17,0,0,0,7.8,0V57.9" fill="#fcaa97"/><path d="M221.61,42.39c.45.11,3.31,19.36-4.68,19.52s-9.53-6.13-9.77-7.74,2.3-6.5,3.09-8.32S219.66,41.91,221.61,42.39Z" fill="#ffb7a2"/><path d="M222.6,40.44c-2.41-4.35-11.73-5.34-18.22.61a9.52,9.52,0,0,0-2.62,6.53A13.69,13.69,0,0,0,209.43,59s0,0,0-.07,0-.24-.07-.36,0-.17-.05-.26c-.68-3.36-.53-7.6,1.06-10.62s4.8-3.89,7.95-4.38a10,10,0,0,1,3.12-.31l1,4.94A6.67,6.67,0,0,0,222.6,40.44Z" fill="#edb033"/><circle cx="198.72" cy="42.81" r="6.15" transform="translate(-2.49 13.88) rotate(-3.98)" fill="#edb033"/><path d="M222.55,46.37H215l-.7-2.27-.65,2.82-2.15.13s-.11,11.63-1.77,11.88-4-4.74-4.23-7.66,1.36-9.22,6.82-10.91C219.16,38.24,222.23,41,222.55,46.37Z" fill="#edb033"/><path d="M216.46,127.45q-1.42,42.74-5.91,85.3c-.09.88,1.28.87,1.37,0q4.48-42.53,5.91-85.3C217.86,126.57,216.49,126.57,216.46,127.45Z" fill="#fff"/><polyline points="348.68 186.37 278.98 225.9 260.56 215.65 329.04 177.5" opacity="0.32" fill="url(#linear-gradient-2)"/><path d="M329,161.6s-3.95,27,13,27.06c16.31.09,12.1-27.39,12.1-27.39S342.25,151,329,161.6Z" fill="#68e1fd"/><path d="M329,161.6s-3.95,27,13,27.06c16.31.09,12.1-27.39,12.1-27.39S342.25,151,329,161.6Z" opacity="0.15"/><ellipse cx="341.5" cy="161.6" rx="12.55" ry="5.18" fill="#68e1fd"/><ellipse cx="341.5" cy="161.6" rx="12.55" ry="5.18" opacity="0.7"/><path d="M321.74,122.22s-8.75-2.1-5.39-9.38C316.35,112.84,322.37,114,321.74,122.22Z" fill="#938f05"/><path d="M327.06,129.56s-1.21-6.22,3.65-8.73C330.71,120.83,334.61,127.35,327.06,129.56Z" fill="#938f05"/><path d="M332.51,139.1s-1.45-7.44,4.36-10.44C336.88,128.66,341.55,136.45,332.51,139.1Z" fill="#938f05"/><path d="M336.74,149.49S335.29,142,341.11,139C341.11,139,345.78,146.84,336.74,149.49Z" fill="#938f05"/><path d="M326.53,129.73s-3.09-5.53-8.42-4.32C318.12,125.41,319.33,132.91,326.53,129.73Z" fill="#938f05"/><path d="M332.06,139.33s-3.95-6.47-10.27-4.77C321.8,134.56,323.6,143.47,332.06,139.33Z" fill="#938f05"/><path d="M336.26,149.58s-4.64-6-10.73-3.61C325.53,146,328.3,154.62,336.26,149.58Z" fill="#938f05"/><path d="M339.53,166.85h.12a6,6,0,0,1,1.23.09.6.6,0,0,0,0-.12A89.69,89.69,0,0,0,322,121.29c-.54-.69-1.5.28-1,1a88,88,0,0,1,18.46,44.57Z" fill="#42352f"/><path d="M360.23,134.1s7.5-1.8,4.62-8C364.85,126.06,359.69,127.08,360.23,134.1Z" fill="#938f05"/><path d="M355.67,140.4s1-5.33-3.13-7.49C352.54,132.91,349.19,138.5,355.67,140.4Z" fill="#938f05"/><path d="M351,148.58s1.24-6.38-3.74-9C347.25,139.62,343.24,146.31,351,148.58Z" fill="#938f05"/><path d="M347.36,157.49s1.24-6.38-3.74-9C343.62,148.53,339.61,155.22,347.36,157.49Z" fill="#938f05"/><path d="M356.12,140.54s2.65-4.75,7.22-3.7C363.34,136.84,362.3,143.27,356.12,140.54Z" fill="#938f05"/><path d="M351.38,148.78s3.39-5.55,8.81-4.09C360.18,144.69,358.63,152.33,351.38,148.78Z" fill="#938f05"/><path d="M347.78,157.57s4-5.14,9.2-3.1C357,154.47,354.6,161.9,347.78,157.57Z" fill="#938f05"/><path d="M360,133.31a76.9,76.9,0,0,0-15.32,33.44c.4-.06.81-.12,1.21-.16a75.52,75.52,0,0,1,14.93-32.45C361.28,133.55,360.46,132.72,360,133.31Z" fill="#42352f"/><g style="isolation:isolate"><path d="M213.51,43a.49.49,0,0,0-.25-.34l8.15,3.86a.49.49,0,0,1,.25.34l-1-.45-1-.48-1-.5-1.07-.51-1.07-.51-1-.5-1-.48Z" fill="#ffd900"/><path d="M213.27,42.64l8.15,3.86a.52.52,0,0,0-.41,0l-8.15-3.86A.52.52,0,0,1,213.27,42.64Z"/><path d="M213.54,43.16a1.15,1.15,0,0,0,0-.18l8.15,3.86a1.15,1.15,0,0,1,0,.18,12.48,12.48,0,0,1-7.76,12.71l-8.15-3.86A12.48,12.48,0,0,0,213.54,43.16Z" fill="#ffd900"/><path d="M210.83,39a1.33,1.33,0,0,0,1.07,0l7.2,3.41,1,.45a1.33,1.33,0,0,1-1.07,0Z" fill="#ffd900"/><path d="M213.8,36A1.62,1.62,0,0,0,213,34.4l8.15,3.86a1.62,1.62,0,0,1,.78,1.58L213.8,36l8.15,3.86a3.47,3.47,0,0,1-1.9,3L211.9,39A3.47,3.47,0,0,0,213.8,36Z" fill="#ffd900"/><path d="M213,34.4l8.15,3.86a1.33,1.33,0,0,0-1.07,0l-8.15-3.86A1.33,1.33,0,0,1,213,34.4Z"/><path d="M210,57.8l-8.15-3.86a4.26,4.26,0,0,0,2.83.19,8,8,0,0,0,1.07-.33c3.58-1.39,6.48-5.36,6.06-9.39a1.83,1.83,0,0,1,1-1.75L221,46.51a1.83,1.83,0,0,0-1,1.75c.42,4-2.48,8-6.06,9.39a8,8,0,0,1-1.07.33A4.26,4.26,0,0,1,210,57.8Z"/><path d="M219,42.89,210.83,39a1.62,1.62,0,0,1-.78-1.58,3.48,3.48,0,0,1,1.9-3l8.15,3.86a3.48,3.48,0,0,0-1.9,3A1.62,1.62,0,0,0,219,42.89Z"/><path d="M200.64,56a6.6,6.6,0,0,0,5.15-.15l8.15,3.86a6.6,6.6,0,0,1-5.15.15Z" fill="#ffd900"/><path d="M201.88,53.94a3.3,3.3,0,0,1-1.5-1.46l8.15,3.86A3.3,3.3,0,0,0,210,57.8Z" fill="#ffd900"/><path d="M200.38,52.47a4.57,4.57,0,0,1-.39-1l8.15,3.86a4.57,4.57,0,0,0,.39,1l-1-.45-1-.48-1-.5-1.07-.51-.53-.25-1.06-.5-.52-.25-.51-.24-1-.47A1.84,1.84,0,0,1,200.38,52.47Z" fill="#ffd900"/><path d="M200,51.46l0-.17,8.15,3.86,0,.17-1-.45-1-.48-1-.5-1.07-.51L203,52.88l-1-.5-1-.48Z" fill="#ffd900"/><path d="M199.85,48.79a.74.74,0,0,0-.19-.7L207.81,52a.74.74,0,0,1,.19.7,7.75,7.75,0,0,0,.1,2.5l-1-.45-1-.48-1-.5L204,53.22,203,52.71l-1-.5-1-.48-1-.45A7.75,7.75,0,0,1,199.85,48.79Z" fill="#ffd900"/><path d="M199.66,48.09l-.08,0,8.15,3.86.08,0-1-.45-1-.48-1-.5L203.73,50l-.53-.25-1.06-.5-.52-.25-1-.48A10.45,10.45,0,0,1,199.66,48.09Z" fill="#ffd900"/><path d="M208.78,59.87,200.64,56c-1.8-.85-2.93-2.93-2.54-6.54a1.73,1.73,0,0,1,1-1.41.63.63,0,0,1,.5,0l8.15,3.86a.63.63,0,0,0-.5,0,1.73,1.73,0,0,0-1,1.41C205.86,56.94,207,59,208.78,59.87Z"/><path d="M199,44l8.15,3.86a1.33,1.33,0,0,1-1.07,0L198,44A1.33,1.33,0,0,0,199,44Z" fill="#ffd900"/><path d="M200.93,41a1.62,1.62,0,0,0-.78-1.58l8.15,3.86a1.62,1.62,0,0,1,.78,1.58L200.93,41l8.15,3.86a3.47,3.47,0,0,1-1.9,3L199,44h0A3.47,3.47,0,0,0,200.93,41Z" fill="#ffd900"/><path d="M200.15,39.41l8.15,3.86a1.33,1.33,0,0,0-1.07,0l-8.15-3.86A1.33,1.33,0,0,1,200.15,39.41Z"/><path d="M206.1,47.9,198,44a1.62,1.62,0,0,1-.78-1.58,3.48,3.48,0,0,1,1.9-3l8.15,3.86a3.48,3.48,0,0,0-1.9,3A1.62,1.62,0,0,0,206.1,47.9Z"/><path d="M221,46.51c.34-.13.64,0,.69.51a12.48,12.48,0,0,1-7.76,12.71c-4.2,1.64-8.38.09-7.7-6.39a1.73,1.73,0,0,1,1-1.41c.44-.17.84,0,.76.73-.43,4.1,1.76,6.07,4.86,5.33a8,8,0,0,0,1.07-.33c3.58-1.39,6.48-5.36,6.06-9.39A1.83,1.83,0,0,1,221,46.51Z"/><path d="M207.23,43.28c1-.4,1.87.31,1.85,1.58a3.47,3.47,0,0,1-1.9,3c-1,.4-1.87-.3-1.85-1.58A3.48,3.48,0,0,1,207.23,43.28Z"/><path d="M204.94,68.21l-8.15-3.86c-4.12-2-6.78-6.83-6.7-13.56.13-10.94,7.43-22.61,16.31-26.07l8.15,3.86c-8.88,3.46-16.18,15.13-16.31,26.07C198.16,61.37,200.82,66.25,204.94,68.21Z" fill="#ffc41d"/><path d="M214.55,28.58c-8.88,3.46-16.18,15.13-16.31,26.07s7,17,15.86,13.52S230.28,53,230.41,42.11,223.43,25.12,214.55,28.58Zm-9.23,17.74a3.48,3.48,0,0,1,1.9-3c1-.4,1.87.31,1.85,1.58a3.47,3.47,0,0,1-1.9,3c-1,.4-1.87-.3-1.85-1.58m8.61,13.41q-.39.15-.79.27l-.2.06a7.94,7.94,0,0,1-1.53.26h-.91l-.55-.07-.48-.11-.32-.1-.31-.13-.3-.15-.2-.12-.22-.15-.26-.21-.19-.17-.18-.19a4.26,4.26,0,0,1-.33-.42l-.2-.31a5.56,5.56,0,0,1-.58-1.49q-.08-.32-.13-.67a10.87,10.87,0,0,1,0-2.68v-.07l0-.13v-.06a1.82,1.82,0,0,1,.13-.35l.06-.11a1.6,1.6,0,0,1,.76-.7.6.6,0,0,1,.55,0l0,0,.05,0,0,.06,0,.05,0,.09v0l0,.08a1.08,1.08,0,0,1,0,.16,1.56,1.56,0,0,1,0,.19q-.05.48-.05.92a6.09,6.09,0,0,0,.42,2.4l.11.24q.09.18.19.34a3.29,3.29,0,0,0,1.09,1.09l.2.11.11.05.22.09.19.07.06,0,.19,0,.14,0,.36.05.27,0a5.23,5.23,0,0,0,1.38-.15l.54-.15.27-.09.26-.1A10,10,0,0,0,219,53l.08-.17q.12-.25.23-.51l.07-.17a9,9,0,0,0,.3-.89l0-.18a8.08,8.08,0,0,0,.26-2q0-.38,0-.75a1.45,1.45,0,0,1,0-.15,1.66,1.66,0,0,1,.1-.57l0-.07a2,2,0,0,1,.13-.25l0-.06a2,2,0,0,1,.16-.22,1.49,1.49,0,0,1,.56-.43l.09,0h.09a.44.44,0,0,1,.21,0h0l.1.07a.55.55,0,0,1,.13.22v0l0,.06V47h0v0a12.48,12.48,0,0,1-7.76,12.71M220,42.88c-1,.4-1.87-.3-1.85-1.58a3.48,3.48,0,0,1,1.9-3c1-.4,1.87.31,1.85,1.58a3.47,3.47,0,0,1-1.9,3" fill="#ffd900"/><path d="M220.1,38.26c1-.4,1.87.31,1.85,1.58a3.47,3.47,0,0,1-1.9,3c-1,.4-1.87-.3-1.85-1.58A3.48,3.48,0,0,1,220.1,38.26Z"/><path d="M215.56,24.69l8.15,3.86a11.38,11.38,0,0,0-9.16,0l-8.15-3.86A11.38,11.38,0,0,1,215.56,24.69Z" fill="#ffc41d"/></g></svg>