<svg id="Layer_2" data-name="Layer 2" xmlns="http://www.w3.org/2000/svg" xmlns:xlink="http://www.w3.org/1999/xlink" viewBox="0 0 400 300"><defs><linearGradient id="linear-gradient" x1="85.18" y1="210.7" x2="99.18" y2="190.79" gradientUnits="userSpaceOnUse"><stop offset="0" stop-color="#fff" stop-opacity="0"/><stop offset="1" stop-color="#d43500"/></linearGradient><linearGradient id="linear-gradient-2" x1="147.13" y1="169.68" x2="163.8" y2="159.16" xlink:href="#linear-gradient"/><linearGradient id="linear-gradient-3" x1="182.31" y1="209.83" x2="196.48" y2="189.67" xlink:href="#linear-gradient"/><linearGradient id="linear-gradient-4" x1="295.02" y1="221.28" x2="309.02" y2="201.36" xlink:href="#linear-gradient"/><linearGradient id="linear-gradient-5" x1="234.53" y1="252.83" x2="248.53" y2="232.91" xlink:href="#linear-gradient"/></defs><title>PP</title><path d="M21.33,166.12,177.55,77.21a25.05,25.05,0,0,1,25,.13l161,93.75a13.92,13.92,0,0,1-.07,24.11L213.23,281.47a33.57,33.57,0,0,1-33.46,0L21.28,190.29A13.92,13.92,0,0,1,21.33,166.12Z" fill="#fbb03b"/><polyline points="128.76 189.63 80.8 217.21 61.1 204.04 109.52 176.54" opacity="0.32" fill="url(#linear-gradient)"/><polyline points="219.07 155.34 166.34 186.47 127.76 150.85 174.77 122.86" opacity="0.32" fill="url(#linear-gradient-2)"/><polyline points="235.24 194.7 187.28 222.28 149.12 196.88 195.19 169.03" opacity="0.32" fill="url(#linear-gradient-3)"/><path d="M174.55,157.38l-28.08-17.27s7.1-5.68,11.09-3.7,4.57,2.75,4.57,2.75,2.89-6.25,7.91-4.92,6.24,4.92,6.24,4.92,2.18-5.88,7.1-2.75a12.33,12.33,0,0,1,5.33,8.82l-.54,20.37Z" fill="#fff"/><path d="M210.19,160.81l28.08-17.27s-7.1-5.68-11.09-3.7-4.57,2.75-4.57,2.75-2.89-6.25-7.91-4.92-6.24,4.92-6.24,4.92-2.18-5.88-7.1-2.75a12.33,12.33,0,0,0-5.33,8.82l.54,20.37Z" fill="#fff"/><path d="M205.56,112.78S215.91,124,215.9,130.32s0,27,0,27h-4.33S202.7,136.06,197,129.07,205.56,112.78,205.56,112.78Z" fill="#68e1fd"/><path d="M205.56,112.78S215.91,124,215.9,130.32s0,27,0,27h-4.33S202.7,136.06,197,129.07,205.56,112.78,205.56,112.78Z" fill="#363636" opacity="0.61"/><path d="M179.6,112.78S169.25,124,169.26,130.32s0,27,0,27h4.33s8.87-21.28,14.52-28.27S179.6,112.78,179.6,112.78Z" fill="#68e1fd"/><path d="M179.6,112.78S169.25,124,169.26,130.32s0,27,0,27h4.33s8.87-21.28,14.52-28.27S179.6,112.78,179.6,112.78Z" fill="#363636" opacity="0.61"/><path d="M202.74,38a95.72,95.72,0,0,0-9.88-20.15s-5.1,7.21-9.81,20.32C188.89,41.5,196.2,40.44,202.74,38Z" fill="#68e1fd"/><ellipse cx="192.58" cy="83.49" rx="10.52" ry="9.69" fill="#68e1fd"/><path d="M192.86,17.89S161.66,62,182.42,130.21c0,0,2.35,14.57,9.75,14.27s13.11-16.09,13.11-16.09S222.25,63,192.86,17.89Z" fill="#68e1fd"/><path d="M202.74,38a95.72,95.72,0,0,0-9.88-20.15s-5.1,7.21-9.81,20.32C188.89,41.5,196.2,40.44,202.74,38Z" fill="#363636" opacity="0.61"/><ellipse cx="192.58" cy="83.49" rx="10.52" ry="9.69" fill="#363636" opacity="0.61"/><path d="M182.42,130.21s-7.13,7.7-7.12,12.09,0,18.62,0,18.62h3s6.11-14.66,10-19.48S182.42,130.21,182.42,130.21Z" fill="#68e1fd"/><path d="M202.74,130.21s7.13,7.7,7.12,12.09,0,18.62,0,18.62h-3s-6.11-14.66-10-19.48S202.74,130.21,202.74,130.21Z" fill="#68e1fd"/><path d="M182.42,130.21s-7.13,7.7-7.12,12.09,0,18.62,0,18.62h3s6.11-14.66,10-19.48S182.42,130.21,182.42,130.21Z" fill="#363636" opacity="0.29"/><path d="M202.74,130.21s7.13,7.7,7.12,12.09,0,18.62,0,18.62h-3s-6.11-14.66-10-19.48S202.74,130.21,202.74,130.21Z" fill="#363636" opacity="0.29"/><path d="M189.41,143s-12.13,2.2-14.13,7.45-.52,8.78-.52,8.78-7.66.24-9,5.79,0,7.29,0,7.29-17.09.71-16.6,18.77v5.79l40.29-24.34Z" fill="#fff"/><path d="M195.19,141.35s12.13,2.2,14.13,7.45.52,8.78.52,8.78,7.66.24,9,5.79,0,7.29,0,7.29,17.09.71,16.6,18.77v5.79l-40.29-24.34Z" fill="#fff"/><polygon points="130.63 122.86 130.63 188.62 115.04 197.57 114.62 132.16 130.63 122.86" fill="#d1d1d1"/><polygon points="101.64 124.03 101.11 190.14 115.04 197.57 114.62 132.16 101.64 124.03" fill="#bcbcbc"/><polygon points="101.64 124.03 114.62 132.16 130.63 122.86 117.47 114.84 101.64 124.03" fill="#efefef"/><polyline points="110.74 121.42 110.74 125.86 119.62 122.52 119.62 117.16" fill="#ba3602"/><ellipse cx="115.18" cy="124.09" rx="4.81" ry="2.37" transform="translate(-42.39 62.15) rotate(-25.67)" fill="#ba3602"/><ellipse cx="115.17" cy="119.24" rx="4.92" ry="2.43" transform="translate(-40.29 61.66) rotate(-25.67)" fill="#dd5112"/><path d="M86.43,69.65s5.25-4.53,5.81-5.59.24-10.05,2.45-9.82,5.83,1.36,5.68,3-.25,1.33-.25,1.33a1.43,1.43,0,0,1,1.11.89c.43.86-3.59,4.58-3.7,5.19s-5.54,8.77-5.78,9" fill="#f04900"/><path d="M100.58,114.5s6.26,3.71,7.54,3.65,3.61-1.65,4.24-1.93,1,.57,1,.57,3.41-1.12,4.72-.16-2.69,3.48-4.12,4.28a13.56,13.56,0,0,1-5.43,1.7s-5.28-1.48-8.82-2.58" fill="#f04900"/><path d="M90.34,64.95s6.18,2.91,5.53,6.71c0,0-13.53,22.93-18.66,24.49s-8.05-8.54-6.64-10S90.34,64.95,90.34,64.95Z" fill="#f7944b"/><path d="M62.09,180.35c-.42,1-2.26,14.64-2.14,17.32s4.16,2.93,5.4,2.83,3.67-1.23,5.22-1.29,10.08-1.67,9.84-3.93-1.72-4.44-3.64-4.55-7.13.22-7.13.22l.52-12.38" fill="#ff6753"/><path d="M63.86,115.87a119.09,119.09,0,0,0-2.29,18.64c-.13,6.47-2.11,54.65-2.11,54.65s5.45,3.23,15.82.22c1.5-.44,3.41-44.63,3.41-44.63L75.14,122" fill="#ed4049"/><path d="M83.2,196c-.37,1-1.52,14.74-1.26,17.4s4.31,2.72,5.54,2.55,3.61-1.42,5.14-1.55,10-2.18,9.62-4.42-1.94-4.35-3.87-4.36-7.11.58-7.11.58l-.11-12.39" fill="#ff6753"/><path d="M83.47,120.7s7.31,24.22,10,46.06c.65,5.24,1.46,33.76,1.46,33.76a17.81,17.81,0,0,1-14.52,2s-1.86-36.11-2.08-37c-3.06-12.26-7.42-27-8.16-45.51" fill="#ed4049"/><path d="M84.25,107.25c.35-5.13,2.21-7.82,1-12.79-3.69-4-10.65-8.87-11.39-9L70,86.34A7.65,7.65,0,0,0,64,93.59c-.21,8-.51,21.23-.18,22.28s8.11,7.74,19.6,4.83C83.79,116.22,83.94,111.73,84.25,107.25Z" fill="#fdd400"/><path d="M82.2,74.77s1.62,11.92-2.8,12.92S70.18,83.48,70,81,76.35,70.47,82.2,74.77Z" fill="#f04900"/><path d="M84.52,77.32a1.24,1.24,0,0,0,1.13-1.45c-.45-2.47-2.14-7.48-8.43-7.6-4.81-.09-7.83,2-9.24,5.26h0l-.09.19-.36,1a12.69,12.69,0,0,0-.44,4.79c.2,4.53,3.63,7.08,8,7.6,0,0-1.78-6.69,1.12-5.63s5.33.73,4.42-3.91Z" fill="#844308"/><path d="M72.65,74.16l.42.46S73.09,74.36,72.65,74.16Z" fill="#844308"/><path d="M71.07,72.42c-.85-.26-10.67-3.95-13.52.74S57.18,85.07,53.71,86s-13.46.42-14.38,4.88S43,97.75,41.9,99.73c-2.72,1.72-4.88,4-3.65,7.45A8.35,8.35,0,0,0,42,111.43c4.12,2.44,9.71.56,13.1-2.32,3-2.52,2.71-5.5,1.55-8.89-.89-2.59-2.43-5.74.47-7.64,4.31-2.82,9.3.41,10.76-2.82S63,75.31,68.09,74.31c2.81-.55,4-.4,4.56-.15Z" fill="#844308"/><path d="M102.24,210a5.73,5.73,0,0,0-2.33-3.88,10.49,10.49,0,0,1-6.17,4.23,20.35,20.35,0,0,1-11.76-1,36.27,36.27,0,0,0-.05,4c.26,2.67,4.31,2.72,5.54,2.55s3.61-1.42,5.14-1.55S102.6,212.26,102.24,210Z" fill="#42210b"/><path d="M77.95,191a13.07,13.07,0,0,1-9.44,4.31,32.17,32.17,0,0,1-5.77-.58,6.82,6.82,0,0,1-2.6-.84,34.2,34.2,0,0,0-.21,3.79c.14,2.67,4.18,2.9,5.42,2.79s3.67-1.26,5.21-1.32,10.07-1.74,9.81-4A5.56,5.56,0,0,0,77.95,191Z" fill="#42210b"/><path d="M85.28,94.45s6.5,12.47,8.82,14.67,12,5.86,12.59,6.75-1.34,4.24-2.12,5.67-12-1.55-14-3.1-9.44-7.24-12.28-13.83a8,8,0,0,1,2.88-10.15" fill="#fdd400"/><path d="M231.68,157.34c0,.57-9.91-56.07-9.91-56.07l82-47,8.55,56.56Z" fill="#68e1fd"/><path d="M271.15,228.9l4.25-1.18-.67-5.18S270.13,223.31,271.15,228.9Z" fill="#42210b"/><path d="M276.94,213.83s1.5,17.51,1.09,17.71-4.49.56-4.49.25-.24-8-.24-8-2,3.39-2.15,5.07c0,0-4.89-2.78-5.79-5s2.09-11.58,3.23-12.09" fill="#7f252b"/><path d="M260.63,238.08l4.81-5.1-3.14-4S259.37,235.44,260.63,238.08Z" fill="#42210b"/><path d="M267.79,217.83l2.25,21a24.93,24.93,0,0,1-4.29,1.14,13.63,13.63,0,0,1-2.6-1.23l-.81-7s-2.08,2.08-1.71,6.35c0-.29-3.32-1.39-3.75-1.58A24.87,24.87,0,0,1,253,234.4c-1.28-.88-6-4.8-3.48-6.36,2.17-1.33,9.2-.69,9.2-.69l.1-8.67" fill="#7f252b"/><path d="M276.19,142.56a.5.5,0,0,1,.5-.61,16.16,16.16,0,0,0-2.36-5.16L254,134.4s-4.08,14.54-5.66,39.58c-1.22,19.42,8.31,48.29,8.31,48.29s9.86,2.5,14.6-2.37l-.19-4.18a49.74,49.74,0,0,0,7.33-.6C280.83,191,279,166.55,276.19,142.56Z" fill="#8cc63f"/><path d="M271.81,218.78l-2.55-18c-.81-5.73-2.06-11.63-2.09-17.44s2-11,2.93-16.57a64.85,64.85,0,0,0,.7-16.25c-.1-1.26-1.92-1.27-1.82,0a63.06,63.06,0,0,1-1.1,18.14c-1.14,5.33-2.72,10.38-2.49,15.92s1.34,11.2,2.12,16.72l2.55,18C270.23,220.56,272,220,271.81,218.78Z" fill="#42210b"/><path d="M242.9,128.73c-.89-.28-1.79-.53-2.69-.78l-.08,0a57.1,57.1,0,0,0-7.83-2.29l-5.09-3.51h0a.85.85,0,0,0-1.38.51c-.29.85,1.5,2.69,2.09,3.19l.22.19c.12.1.58.59.73.57a12.16,12.16,0,0,0-5,1.41.92.92,0,0,0,0,1.58,2.62,2.62,0,0,0,1,.23l-.18.07c-1.13.47-1.66,1.38-.66,2.38a.91.91,0,0,0,.3.2.77.77,0,0,0,.76.19l0,.17a1.19,1.19,0,0,0,.09,1.09,1.35,1.35,0,0,0,1.88.31l.42-.16c.46,1.14,1.73,1.15,2.84.74s2.44-1,3.65-1.48l3.65,1.42c1,.38,2.73,1.53,3.81,1.14s.64-2.16-.47-1.77c.23-.08-.25-.13-.39-.18l-1-.39a8.08,8.08,0,0,0,2.88.57.92.92,0,0,0,.64-1.57,12.12,12.12,0,0,0-1.69-1.36,1,1,0,0,0,0-.63l.12,0a.94.94,0,0,0,.63-.12l.2.06C243.56,130.85,244,129.09,242.9,128.73Z" fill="#fe6162"/><path d="M267.84,104.81s-11.32,0-15.23,7.12c-3.28,6-2.67,16-2.67,16l-13-1a5.36,5.36,0,0,0-2.81,6.26c.51,2.56,13.44,3.75,20.58,5.51s20,2.29,22.06-2,1.78-21.66-.59-26.66S267.84,104.81,267.84,104.81Z" fill="#ffac2a"/><path d="M257.44,93.86s-.59,8.61,2,10.6,7-1.3,7-1.3" fill="#fe6162"/><path d="M259.59,89.55A8.35,8.35,0,0,0,257,93c-2.17,5.42,3.67,12.15,8.87,13.19l2.7-.85s3.57-5.26,3.57-8.21a10.89,10.89,0,0,0-3-7.66C266.32,86.88,262.34,87.39,259.59,89.55Z" fill="#7f252b"/><path d="M265.85,106.18s-9.75,28.09-2.4,32.74,21.68.41,18.88-6.55-13.77-27-13.77-27" fill="#7f252b"/><path d="M298.3,102.49s-4-4.23-4.78-6.36S294,87,293,86.41s-2.22,2.19-2,3c0,.09,0,.06-.05,0a1.61,1.61,0,0,1-.25-.38c-.32-.52-.63-1.05-.94-1.58-.41-.69-.81-1.37-1.24-2a18.86,18.86,0,0,0-1.22-1.76c-.17-.21-.55-.81-.88-.72a.2.2,0,0,0-.14.2,3.8,3.8,0,0,0,.3,1.4c.15.46.31.91.47,1.36s.26.74.36,1.12c0,.08.13.42,0,.41s-.08,0-.1-.06a11.59,11.59,0,0,1-1.23-1.32c-.58-.66-1.17-1.33-1.79-2a11.91,11.91,0,0,0-.94-.91,2.27,2.27,0,0,0-.89-.56c-1-.17.41,1.87.52,2.07.43.71.88,1.41,1.29,2.14.07.12.65,1,.42,1.14a.17.17,0,0,1-.12,0,2.73,2.73,0,0,1-.81-.53c-.35-.29-.68-.6-1-.91s-.68-.63-1-.92a3.06,3.06,0,0,0-.88-.56c-.14,0-.41-.07-.5.1s0,.31.06.42a4.52,4.52,0,0,0,.48.87c.49.76,1.06,1.47,1.59,2.19.24.32.48.65.7,1a2.17,2.17,0,0,1,.35.7.42.42,0,0,1,0,.09c0,.83-1.86-1.42-2.81-1.06s2,3.23,3.57,4.41a41.93,41.93,0,0,1,4.55,3.76c.51.67,4.16,7.22,6.2,9" fill="#f04900"/><path d="M337.44,180.49c.42,1,2.3,14.91,2.18,17.63s-4.24,3-5.5,2.88-3.74-1.26-5.31-1.31-10.26-1.7-10-4,1.75-4.52,3.71-4.64,7.26.22,7.26.22l-.53-12.6" fill="#ff6753"/><path d="M339.12,194.33a19.33,19.33,0,0,1-12.84-.16,5.88,5.88,0,0,1-3.5-3.19h-.21c-2,.1-3.48,2.31-3.74,4.61s8.42,4,10,4.07,4,1.23,5.3,1.35,5.38-.12,5.52-2.84a35.78,35.78,0,0,0-.22-4Z" fill="#312a87"/><path d="M306.71,77.62s-1.94-2.86-1.94-4.26,1.7.44,1.7.44l-.22-3.52s1.31,2.05,2,3,2.79,5.51,3.16,6.32,3.82,3,3.82,3-1,3.23-2,3.45-6.2-4.43-6.2-4.43Z" fill="#f04900"/><path d="M312.67,79.22s-3.83,3.4-3.18,7.26c0,0,4.83,9.59,10,11.17s8.2-8.69,6.76-10.2S312.67,79.22,312.67,79.22Z" fill="#6949c1"/><path d="M335.64,114.84a34.21,34.21,0,0,1,4,15.29c.13,6.58.5,59.33.5,59.33s-5.55,3.29-16.1.23c-1.53-.44-3.47-45.44-3.47-45.44L324.15,121" fill="#4739aa"/><path d="M316,196.45c.37,1,1.55,15,1.29,17.72s-4.38,2.77-5.64,2.6-3.67-1.44-5.24-1.58-10.16-2.22-9.8-4.5,2-4.43,3.94-4.44,7.23.59,7.23.59l.11-12.61" fill="#ff6753"/><path d="M320.7,180.55a6,6,0,0,1,.25-.71A79.36,79.36,0,0,1,326.53,160c.66-3.63,1.1-6,1.14-6.21,3.11-12.48.79-15.87,1.54-34.74l-13.53.69s-7.44,24.66-10.19,46.89C304.83,172,304,201,304,201a18.13,18.13,0,0,0,14.79,2l.27-1.53C317.35,194.54,318.86,187.34,320.7,180.55Z" fill="#4739aa"/><path d="M314.88,106.06c-.36-5.22-2.25-8-1.05-13,3.76-4.09,10.84-9,11.6-9.19l4,.93a7.79,7.79,0,0,1,6,7.38c.22,8.1.52,21.61.19,22.69s-8.26,7.88-20,4.92C315.35,115.2,315.19,110.62,314.88,106.06Z" fill="#a07def"/><path d="M316.37,75.23s-1.65,12.14,2.85,13.16,9.39-4.29,9.62-6.78S322.32,70.85,316.37,75.23Z" fill="#f04900"/><path d="M317.76,69c-.47.18-4.59,2.66-4.32,4.33s1,5.39,2.16,4.79,1.19-2.83,2.17-1.16,1.8,2.94,2.79,2.52a2.37,2.37,0,0,1,1.91.08s0,8.76,1,8.18,5.28-2.39,6.83-5c1-1.67,1.22-4.79,1-7.3a7.9,7.9,0,0,0-1-3.4C329.08,70.22,321.11,67.71,317.76,69Z" fill="#fbb03b"/><path d="M330.33,72s4.86,6.28,4.44,14-14.22,8.87-14.22,8.87l1.91-15.33" fill="#fbb03b"/><path d="M290.5,101a7.33,7.33,0,0,1,4.31-4.67c3.8,3.6,8.45,7.5,10,6.89,2.24-.9,6.71-11.33,13.06-11.86S324,99.65,324,99.65s-11.09,17.11-17.1,17.41c-4.84.24-13.65-8.27-17.1-12.37A17.28,17.28,0,0,1,290.5,101Z" fill="#a07def"/><path d="M314,209.77c-4,.89-8.47,1.53-11.58-1.91a5.91,5.91,0,0,1-1-1.59l-.94,0c-2,0-3.58,2.16-3.94,4.44s8.24,4.37,9.8,4.5,4,1.41,5.24,1.58,5.38.12,5.64-2.6a41.52,41.52,0,0,0-.08-4.62A11.43,11.43,0,0,1,314,209.77Z" fill="#312a87"/><path d="M333.39,131.31c.08-.59-.82-.84-.9-.25-3.39,23.94-15.87,46.49-14,71.13,0,.6,1,.6.93,0C317.55,177.64,330,155.16,333.39,131.31Z" fill="#a07def"/><polyline points="338.6 200.2 290.64 227.78 270.94 214.61 314.17 190.99" opacity="0.32" fill="url(#linear-gradient-4)"/><polyline points="278.11 231.75 230.15 259.33 210.45 246.17 258.86 218.67" opacity="0.32" fill="url(#linear-gradient-5)"/></svg>