<svg id="Layer_1" data-name="Layer 1" xmlns="http://www.w3.org/2000/svg" xmlns:xlink="http://www.w3.org/1999/xlink" viewBox="0 0 400 300"><defs><linearGradient id="linear-gradient" x1="177.83" y1="237.75" x2="281.58" y2="166.58" gradientUnits="userSpaceOnUse"><stop offset="0" stop-color="#97f7b4"/><stop offset="0.98" stop-color="#5dc29e"/></linearGradient></defs><title>-</title><path d="M54.51,214.76c34.11,19.79,109.77,63.49,131.22,75.88a11.43,11.43,0,0,0,11.51,0l173.7-102.11a11.43,11.43,0,0,0-.16-19.81l-132.45-75a11.43,11.43,0,0,0-11.42.09L54.46,195A11.43,11.43,0,0,0,54.51,214.76Z" fill="#97f7b4"/><path d="M173,262.5l86.92-47.17,8.32-7.5,2.6-5.35-2.64-27.58s-2-4.78-4.6-5.65-134.39,67.93-134.39,67.93Z" fill="url(#linear-gradient)"/><path d="M240.17,99.24c1.19.58,2.45,1.18,3.75,1.67a64.29,64.29,0,0,0,6.81-.17,8.9,8.9,0,0,1,2.87-.22,1.2,1.2,0,0,1,1.16,1.49,2.52,2.52,0,0,1-2,1.66c-.74.19-1.5.35-2.25.51a49.26,49.26,0,0,0,6.68,2.62c1.44.48.85,2.79-.61,2.3l-1.56-.53a27.51,27.51,0,0,1,2.51,1.65c1,.73.51,2.66-.89,2.19a38.7,38.7,0,0,1-5.48-2.34q1.64,1.16,3.35,2.23c1.3.81.13,2.88-1.18,2.07q-2.4-1.49-4.68-3.17c.36.66.72,1.33,1.05,2,.68,1.37-1.36,2.6-2,1.22s-1.36-2.6-2.11-3.85l-.15-.06q-5.7-2.7-11.28-5.62c-1.36-.71-.18-2.78,1.18-2.07l1.72.89a1.39,1.39,0,0,1,.61-.9,1.19,1.19,0,0,1,.9-1.86A1.24,1.24,0,0,1,240.17,99.24Z" fill="#ffc285"/><path d="M249.91,105.42c-1.35,1.42-3,2.83-5.08,2.41-.42-.08-.31-.75.11-.66,1.85.37,3.26-.94,4.44-2.18C249.68,104.68,250.21,105.11,249.91,105.42Z" fill="#6d320b"/><path d="M251.33,106.87a50.39,50.39,0,0,0,5.5,1.84c.31.08.23.58-.08.5a51.52,51.52,0,0,1-5.62-1.87C250.82,107.2,251,106.75,251.33,106.87Z" fill="#6d320b"/><path d="M250.22,109.23a26.86,26.86,0,0,0,6.54,2.86c.31.09.23.58-.08.5a27.32,27.32,0,0,1-6.66-2.89C249.74,109.53,249.94,109.07,250.22,109.23Z" fill="#6d320b"/><path d="M247.74,110.5a29.73,29.73,0,0,0,5,3.09c.29.14.08.6-.21.46a30.39,30.39,0,0,1-5.08-3.16C247.17,110.69,247.49,110.3,247.74,110.5Z" fill="#6d320b"/><path d="M186.78,96.14c-9.55-1.4-19.82,0-27.09,6.78-6.72,6.29-10,15.22-14.8,22.9-2.46,4-5.2,7.8-8.9,10.71a24.81,24.81,0,0,1-10.09,4.78c-14.6,3.15-29-5.7-43.55-2.54-8.63,1.87-14.84,8.48-19.37,15.7-5.06,8-7.86,17.27-9.34,26.59-1.64,10.31-.53,21.3-.07,31.71L70.2,201.22,223,112.46s-8.35-5.19-10-5.86A62.5,62.5,0,0,0,186.78,96.14Z" fill="#6e89fe"/><ellipse cx="125.47" cy="95.64" rx="19.34" ry="14.72" transform="translate(7.9 200.85) rotate(-79.14)" fill="#f99943"/><path d="M248.83,85c.84-2.25,1.59-4.53,2.34-6.84a46.92,46.92,0,0,0,2.54-10.09c-.6-1.61-2.76-2.84-4.28-3.2-1.91-.46-3.87.36-5.81.32-2.53,0-4.53-1-6.89-1.72a12.85,12.85,0,0,0-7.39.34c-4.56,1.41-9.21.92-13-2.09-2.15-1.71-3.83-3.11-6.55-3.82-4.2-1.11-8.53-.32-11.3,3.21-2.49,3.19-3,7.37-.39,10.63a10,10,0,0,0,5.3,2.95c1.85.53,3.58,1.62,5.48,2l.21,0a42.39,42.39,0,0,1,5.35.72c2.23.66,4.3,1.77,6.49,2.56,2.91,1,5.73.64,8.72.26,3.81-.48,5.83.7,8.78,2.87l.53.37a12.75,12.75,0,0,0,6.92,1.84A16.81,16.81,0,0,0,248.83,85Z" fill="#6e89fe"/><path d="M247.53,163.51s10.75-.37,12.48,2.48,2.95,10.94,5.72,11.34,3.57-6.46,3.95-11.18-.46-7-1.48-7.17-8.74-3.06-9.07-4.44,9.4.15,9.4.15l-.42-4.78L245,151.15Z" fill="#f77819"/><path d="M217.1,169.26l37.76-.07s-2.14-14.43-7.5-21.53L220,144.17" fill="#f28830"/><path d="M249.33,198.68s4.65,5.2,3.15,8.59-8.12,9.69-6.71,12.48,8.19-.86,12.75-3.54,6.13-4.91,5.61-5.94-2.79-10-1.74-11.13,5.88,8.69,5.88,8.69l2.6-5.35-14.41-18.4Z" fill="#f77819"/><path d="M177.23,57.66c-.66-1.14-1.34-2.37-1.92-3.63a64.29,64.29,0,0,1-.27-6.81,8.9,8.9,0,0,0,0-2.88,1.2,1.2,0,0,0-1.57-1.06A2.52,2.52,0,0,0,172,45.36c-.14.75-.25,1.52-.36,2.28a49.26,49.26,0,0,1-3-6.49c-.58-1.41-2.84-.67-2.26.76l.63,1.52a27.51,27.51,0,0,0-1.81-2.4c-.79-.93-2.69-.33-2.12,1a38.7,38.7,0,0,0,2.69,5.32q-1.27-1.56-2.44-3.2c-.89-1.24-2.88.06-2,1.31q1.65,2.3,3.47,4.46c-.68-.32-1.37-.63-2.07-.92-1.41-.59-2.5,1.53-1.09,2.12s2.68,1.19,4,1.85l.07.15Q168.71,58.66,172,64c.8,1.31,2.79,0,2-1.31l-1-1.66a1.39,1.39,0,0,0,.86-.67,1.19,1.19,0,0,0,1.8-1A1.24,1.24,0,0,0,177.23,57.66Z" fill="#ffc285"/><path d="M170.43,48.35c-1.32,1.44-2.63,3.15-2.08,5.22.11.42.76.26.65-.16-.49-1.82.72-3.32,1.88-4.58C171.18,48.52,170.72,48,170.43,48.35Z" fill="#6d320b"/><path d="M168.89,47a50.39,50.39,0,0,1-2.19-5.36c-.1-.3-.59-.19-.49.12a51.52,51.52,0,0,0,2.24,5.49C168.59,47.55,169,47.31,168.89,47Z" fill="#6d320b"/><path d="M166.6,48.29A26.86,26.86,0,0,1,163.32,42c-.11-.3-.6-.19-.49.12a27.32,27.32,0,0,0,3.32,6.46C166.34,48.79,166.79,48.56,166.6,48.29Z" fill="#6d320b"/><path d="M165.5,50.84a29.73,29.73,0,0,1-3.41-4.76c-.16-.28-.61,0-.44.24a30.39,30.39,0,0,0,3.49,4.86C165.35,51.43,165.71,51.09,165.5,50.84Z" fill="#6d320b"/><path d="M188.89,97.74s-12.41,38.31-10.4,55.77,35.28,15.56,35.28,15.56l26.82,34.74a40.38,40.38,0,0,0,25.83-15.19s-8.6-12.09-14.7-18.2-22.65-27.57-23.34-34.08-8.24-30.9-15.89-34.91" fill="#f99943"/><path d="M209.93,72.57l-8.13-1.62a26.87,26.87,0,0,1-18.18-8.1,52.33,52.33,0,0,1-7.44-9.74,25,25,0,0,0-6.49,5.54,30.69,30.69,0,0,0-2.66,3.5c3.54,7.36,10.3,18,21.14,22.12,0,0,.39,4.06.71,13.47a24.06,24.06,0,0,0,25,4.84S212.68,76.56,209.93,72.57Z" fill="#68e1fd"/><path d="M208,72.31s15.81,20.13,37.8,26.9c0,0-1.45,8.12-4.87,11.2,0,0-29.82-13.51-36.69-25.57" fill="#68e1fd"/><path d="M198.69,64.93s-2.87,8.31,2.43,12.07,12.49-4.1,10.52-11.5S202.06,57.81,198.69,64.93Z" fill="#ffc285"/><path d="M212.34,75.84a2.63,2.63,0,0,1-2.44-.73c-.78-.79-.71-1.91-.72-2.94a3.83,3.83,0,0,0-1.73-3.4c-1.39-.94-3.14-1.21-4.4-2.36-.13-.12-.26-.25-.37-.38a3.44,3.44,0,0,0,.54.41c2,1.24,5.09,1.54,6,2s-.57,4.27,1.14,5.93,5.75-8.74,3.41-11.57-10.06-6.14-13.41-1.44a12.09,12.09,0,0,0,.34,1.24,6.19,6.19,0,0,0,1.35,3.48c1.25,1.55,3.06,1.9,4.71,2.85a3.35,3.35,0,0,1,1.87,2.8,8.16,8.16,0,0,0,.31,2.89,3.11,3.11,0,0,0,3.52,1.67C212.81,76.25,212.65,75.77,212.34,75.84Z" fill="#6e89fe"/><path d="M214.57,169.37a129,129,0,0,1-14.95-30.77q-1.54-4.67-2.71-9.44a.92.92,0,0,0-1.79.43,130.87,130.87,0,0,0,12.72,32.27q2.39,4.29,5.11,8.39C213.6,171.23,215.23,170.37,214.57,169.37Z" fill="#f77819"/><polygon points="87.95 123.7 87.26 224.43 78.98 228.94 78.98 122.12 87.95 123.7" fill="#68e1fd"/><polyline points="66.54 76.69 77.15 70.72 113.58 129.06 104.36 135.46" fill="#68e1fd"/><g opacity="0.5"><polygon points="87.95 123.7 87.26 224.43 78.98 228.94 78.98 122.12 87.95 123.7" fill="#0da6bf" opacity="0.5"/><polyline points="66.54 76.69 77.15 70.72 113.58 129.06 104.36 135.46" fill="#0da6bf" opacity="0.5"/></g><polygon points="28.72 92.99 66.54 76.69 104.36 135.46 78.98 122.12 78.98 228.94 53.05 213.76 51.75 106.78 28.72 92.99 28.72 92.99" fill="#68e1fd"/><polygon points="140.36 186.22 139.87 257.59 134 260.79 134 185.09 140.36 186.22" fill="#68e1fd"/><polyline points="125.18 152.39 132.7 148.16 158.52 189.5 151.98 194.03" fill="#68e1fd"/><polygon points="140.36 186.22 139.87 257.59 134 260.79 134 185.09 140.36 186.22" fill="#0da6bf" opacity="0.5"/><polyline points="125.18 152.39 132.7 148.16 158.52 189.5 151.98 194.03" fill="#0da6bf" opacity="0.5"/><polygon points="98.22 163.92 125.18 152.31 152.14 194.2 134.05 184.69 134.05 260.79 114.64 249.36 114.64 173.75 98.22 163.92 98.22 163.92" fill="#68e1fd"/><polygon points="182.97 236.51 182.67 284.88 179.03 286.86 179.03 234.81 182.97 236.51" fill="#68e1fd"/><polyline points="173.09 214.51 177.71 211.93 195.12 239.9 191.17 242.6" fill="#68e1fd"/><polygon points="182.97 236.51 182.67 284.88 179.03 286.86 179.03 234.81 182.97 236.51" fill="#0da6bf" opacity="0.5"/><polyline points="173.09 214.51 177.71 211.93 195.12 239.9 191.17 242.6" fill="#0da6bf" opacity="0.5"/><polygon points="155 222.3 173.09 214.51 191.17 242.6 179.04 236.23 179.04 286.86 166.02 279.6 166.02 228.89 155 222.3 155 222.3" fill="#68e1fd"/></svg>