<svg xmlns="http://www.w3.org/2000/svg" xmlns:xlink="http://www.w3.org/1999/xlink" viewBox="0 0 400 300"><defs><linearGradient id="linear-gradient" x1="150.53" y1="146.1" x2="79.45" y2="194.62" gradientUnits="userSpaceOnUse"><stop offset="0" stop-color="gray"/><stop offset="1" stop-color="#fff"/></linearGradient><linearGradient id="linear-gradient-2" x1="220.46" y1="219.27" x2="173.21" y2="257.25" xlink:href="#linear-gradient"/><linearGradient id="linear-gradient-3" x1="320.52" y1="165.52" x2="268.16" y2="194.66" xlink:href="#linear-gradient"/><linearGradient id="linear-gradient-4" x1="342.48" y1="186.29" x2="309.96" y2="208.48" xlink:href="#linear-gradient"/><linearGradient id="linear-gradient-5" x1="197.52" y1="231.55" x2="181.68" y2="245.58" xlink:href="#linear-gradient"/></defs><title>PP</title><g style="isolation:isolate"><g id="Layer_2" data-name="Layer 2"><path d="M194.28,287.67,14.56,181.45C8.84,178.24,3.93,173,9.51,169.5l180.37-104c2.71-1.68,6.82-2.78,9.57-1.18L388.11,173.86c5.72,3.32,6.75,12.6,1,15.93L218,287.5A23.9,23.9,0,0,1,194.28,287.67Z" fill="#d9e021"/><polyline points="125.03 136.55 42.27 194.71 79.3 214.58 160.61 166.18" fill="url(#linear-gradient)" style="mix-blend-mode:multiply"/><polyline points="157.56 227.75 127 243.78 191.63 280.47 249.85 246.26" fill="url(#linear-gradient-2)" style="mix-blend-mode:multiply"/><ellipse cx="205.31" cy="236.19" rx="51.3" ry="20.32" fill="#56c5d8"/><ellipse cx="205.31" cy="232.21" rx="51.3" ry="20.32" fill="#68e1fd"/><path d="M118.59,50.3v95.12a3,3,0,0,0,1.5,2.59l36,20.76a3,3,0,0,0,4.49-2.59v-95a3,3,0,0,0-1.49-2.59l-36-20.91A3,3,0,0,0,118.59,50.3Z" fill="#68e1fd"/><path d="M152.51,128.22c-.46-1.94-1-3.88-1.37-5.82a42,42,0,0,1-.63-6.77,41,41,0,0,1-.06-4.27c.12-2.19.39-4.29.55-6.45a6.73,6.73,0,0,1,.07-.83s0,0,.06-.84c-.66-8.09-1.82-19-2.3-27.66a26.25,26.25,0,0,1-4.6-2.47c-.91,4.84-1.63,16.84-5.71,15.21-5.1-2-7.06-20.72-8.15-22.2A9.06,9.06,0,0,0,127,64c-.06,1.8-.07,3.62-.05,5.45.08,8.47.7,17.41-.69,25,.24,1.78.47,3.56.67,5.34a81.36,81.36,0,0,1,.29,12.6,41.88,41.88,0,0,1-1.06,8,3.4,3.4,0,0,0,.14,2c.41,1.08.84,2.15,1.32,3.19.84,1.84,1.8,3.6,2.57,5.47,2,4.84,3.91,9.73,5.87,14.6.59,1.46,1.23,2.92,1.89,4.34a2.44,2.44,0,0,0,1.21,1.35,1.53,1.53,0,0,0,.31.09,6.23,6.23,0,0,1,1.24.37c.33.13.67.29,1,.46l.18.08a1.08,1.08,0,0,0,1,0,4.23,4.23,0,0,0,1.7-2.37c1.12-2.9,2.21-5.83,3.36-8.7a19.26,19.26,0,0,1,2.81-5.1,14.28,14.28,0,0,0,2.21-4.07,3.12,3.12,0,0,0,.05-1.88C152.83,129.59,152.67,128.91,152.51,128.22Z" fill="#006837"/><g opacity="0.67"><path d="M118.59,50.3v95.12a3,3,0,0,0,1.5,2.59l36,20.76a3,3,0,0,0,4.49-2.59v-95a3,3,0,0,0-1.49-2.59l-36-20.91A3,3,0,0,0,118.59,50.3Z" fill="#589aa5"/><path d="M152.51,128.22c-.46-1.94-1-3.88-1.37-5.82a42,42,0,0,1-.63-6.77,41,41,0,0,1-.06-4.27c.12-2.19.39-4.29.55-6.45a6.73,6.73,0,0,1,.07-.83s0,0,.06-.84c-.66-8.09-1.82-19-2.3-27.66a26.25,26.25,0,0,1-4.6-2.47c-.91,4.84-1.63,16.84-5.71,15.21-5.1-2-7.06-20.72-8.15-22.2A9.06,9.06,0,0,0,127,64c-.06,1.8-.07,3.62-.05,5.45.08,8.47.7,17.41-.69,25,.24,1.78.47,3.56.67,5.34a81.36,81.36,0,0,1,.29,12.6,41.88,41.88,0,0,1-1.06,8,3.4,3.4,0,0,0,.14,2c.41,1.08.84,2.15,1.32,3.19.84,1.84,1.8,3.6,2.57,5.47,2,4.84,3.91,9.73,5.87,14.6.59,1.46,1.23,2.92,1.89,4.34a2.44,2.44,0,0,0,1.21,1.35,1.53,1.53,0,0,0,.31.09,6.23,6.23,0,0,1,1.24.37c.33.13.67.29,1,.46l.18.08a1.08,1.08,0,0,0,1,0,4.23,4.23,0,0,0,1.7-2.37c1.12-2.9,2.21-5.83,3.36-8.7a19.26,19.26,0,0,1,2.81-5.1,14.28,14.28,0,0,0,2.21-4.07,3.12,3.12,0,0,0,.05-1.88C152.83,129.59,152.67,128.91,152.51,128.22Z" fill="#589aa5"/></g><path d="M92.48,64.46v95.12a3,3,0,0,0,1.5,2.59l36,20.76a3,3,0,0,0,4.49-2.59v-95A3,3,0,0,0,133,82.78L97,61.87A3,3,0,0,0,92.48,64.46Z" fill="#68e1fd"/><path d="M92.48,64.46v95.12a3,3,0,0,0,1.5,2.59l36,20.76a3,3,0,0,0,4.49-2.59v-95A3,3,0,0,0,133,82.78L97,61.87A3,3,0,0,0,92.48,64.46Z" fill="#589aa5" opacity="0.4"/><path d="M126.4,142.37c-.46-1.94-1-3.88-1.37-5.82a42,42,0,0,1-.63-6.77,41,41,0,0,1-.06-4.27c.12-2.19.39-4.29.55-6.45a6.73,6.73,0,0,1,.07-.83s0,0,.06-.84c-.66-8.09-1.82-19-2.3-27.66a26.25,26.25,0,0,1-4.6-2.47c-.91,4.84-1.63,16.84-5.71,15.21-5.1-2-7.06-20.72-8.15-22.2a9.06,9.06,0,0,0-3.38-2.15c-.06,1.8-.07,3.62-.05,5.45.08,8.47.7,17.41-.69,25,.24,1.78.47,3.56.67,5.34a81.36,81.36,0,0,1,.29,12.6,41.88,41.88,0,0,1-1.06,8,3.4,3.4,0,0,0,.14,2c.41,1.08.84,2.15,1.32,3.19.84,1.84,1.8,3.6,2.57,5.47,2,4.84,3.91,9.73,5.87,14.6.59,1.46,1.23,2.92,1.89,4.34a2.44,2.44,0,0,0,1.21,1.35,1.53,1.53,0,0,0,.31.09,6.23,6.23,0,0,1,1.24.37c.33.13.67.29,1,.46l.18.08a1.08,1.08,0,0,0,1,0,4.23,4.23,0,0,0,1.7-2.37c1.12-2.9,2.21-5.83,3.36-8.7a19.26,19.26,0,0,1,2.81-5.1,14.28,14.28,0,0,0,2.21-4.07,3.12,3.12,0,0,0,.05-1.88C126.71,143.75,126.56,143.06,126.4,142.37Z" fill="#f7ce21"/><path d="M65.32,81.13v95.12a3,3,0,0,0,1.5,2.59l36,20.76a3,3,0,0,0,4.49-2.59V102a3,3,0,0,0-1.49-2.59l-36-20.91A3,3,0,0,0,65.32,81.13Z" fill="#68e1fd"/><path d="M99.24,159.05c-.46-1.94-1-3.88-1.37-5.82a42,42,0,0,1-.63-6.77,41,41,0,0,1-.06-4.27c.12-2.19.39-4.29.55-6.45a6.73,6.73,0,0,1,.07-.83s0,0,.06-.84C97.2,126,96,115,95.56,106.4a26.25,26.25,0,0,1-4.6-2.47c-.91,4.84-1.63,16.84-5.71,15.21-5.1-2-7.06-20.72-8.15-22.2a9.06,9.06,0,0,0-3.38-2.15c-.06,1.8-.07,3.62-.05,5.45.08,8.47.7,17.41-.69,25,.24,1.78.47,3.56.67,5.34a81.36,81.36,0,0,1,.29,12.6,41.88,41.88,0,0,1-1.06,8,3.4,3.4,0,0,0,.14,2c.41,1.08.84,2.15,1.32,3.19.84,1.84,1.8,3.6,2.57,5.47,2,4.84,3.91,9.73,5.87,14.6.59,1.46,1.23,2.92,1.89,4.34a2.44,2.44,0,0,0,1.21,1.35,1.53,1.53,0,0,0,.31.09,6.23,6.23,0,0,1,1.24.37c.33.13.67.29,1,.46l.18.08a1.08,1.08,0,0,0,1,0,4.23,4.23,0,0,0,1.7-2.37c1.12-2.9,2.21-5.83,3.36-8.7a19.26,19.26,0,0,1,2.81-5.1A14.28,14.28,0,0,0,99.67,163a3.12,3.12,0,0,0,.05-1.88C99.55,160.42,99.4,159.74,99.24,159.05Z" fill="#ed1e79"/><ellipse cx="107.33" cy="100.34" rx="9.46" ry="11.38" transform="translate(-22.11 30.83) rotate(-14.84)" fill="#0071bc"/><path d="M110.1,95.46c-1.52,2-3.07,3.95-4.62,5.91L104.36,100a1.82,1.82,0,1,0-2.74,2.4l2.42,2.93a2.15,2.15,0,0,0,3.07-.18q3-3.8,6-7.67C114.53,95.63,111.51,93.6,110.1,95.46Z" fill="#fff"/><path d="M308.45,170.86l-13.55-6.12-45,25.09c6.65,7.15,15.34,12,24.27,16.55l41.42-24.06C314.77,177.6,310,175.42,308.45,170.86Z" fill="url(#linear-gradient-3)" style="mix-blend-mode:multiply"/><path d="M286,145.17s-5.89,40.25,19.45,40.39c24.35.13,18.07-40.88,18.07-40.88S305.78,129.28,286,145.17Z" fill="#68e1fd"/><path d="M286,145.17s-5.89,40.25,19.45,40.39c24.35.13,18.07-40.88,18.07-40.88S305.78,129.28,286,145.17Z" opacity="0.15"/><ellipse cx="304.66" cy="145.17" rx="18.73" ry="7.73" fill="#68e1fd"/><ellipse cx="304.66" cy="145.17" rx="18.73" ry="7.73" opacity="0.7"/><path d="M275.17,86.39s-13.06-3.13-8-14C267.13,72.39,276.11,74.17,275.17,86.39Z" fill="#938f05"/><path d="M283.11,97.35s-1.81-9.28,5.44-13C288.56,84.32,294.38,94,283.11,97.35Z" fill="#938f05"/><path d="M291.25,111.58s-2.16-11.11,6.51-15.59C297.76,96,304.74,107.63,291.25,111.58Z" fill="#938f05"/><path d="M297.56,127.09S295.4,116,304.07,111.5C304.07,111.5,311,123.13,297.56,127.09Z" fill="#938f05"/><path d="M282.32,97.6s-4.61-8.26-12.56-6.44C269.76,91.15,271.58,102.34,282.32,97.6Z" fill="#938f05"/><path d="M290.57,111.92s-5.89-9.66-15.32-7.12C275.25,104.81,277.95,118.1,290.57,111.92Z" fill="#938f05"/><path d="M296.83,127.23s-6.92-9-16-5.39C280.82,121.84,285,134.75,296.83,127.23Z" fill="#938f05"/><path d="M301.72,153h.18a9,9,0,0,1,1.83.14.9.9,0,0,0,0-.19,133.86,133.86,0,0,0-28.15-68c-.81-1-2.24.42-1.44,1.44A131.41,131.41,0,0,1,301.71,153Z" fill="#42352f"/><path d="M332.62,104.12s11.2-2.69,6.9-12C339.52,92.11,331.81,93.64,332.62,104.12Z" fill="#938f05"/><path d="M325.8,113.52s1.55-8-4.67-11.18C321.14,102.34,316.14,110.69,325.8,113.52Z" fill="#938f05"/><path d="M318.83,125.73s1.86-9.53-5.59-13.37C313.24,112.36,307.26,122.34,318.83,125.73Z" fill="#938f05"/><path d="M313.41,139s1.86-9.53-5.59-13.37C307.82,125.66,301.84,135.64,313.41,139Z" fill="#938f05"/><path d="M326.48,113.74s4-7.08,10.78-5.53C337.26,108.21,335.7,117.81,326.48,113.74Z" fill="#938f05"/><path d="M319.4,126s5.06-8.29,13.14-6.11C332.55,119.92,330.23,131.32,319.4,126Z" fill="#938f05"/><path d="M314,139.15s5.94-7.68,13.74-4.62C327.77,134.53,324.21,145.61,314,139.15Z" fill="#938f05"/><path d="M332.26,102.93a114.78,114.78,0,0,0-22.86,49.91c.59-.09,1.2-.18,1.81-.24a112.72,112.72,0,0,1,22.29-48.44C334.19,103.3,333,102.05,332.26,102.93Z" fill="#42352f"/><polyline points="321.62 189.72 291.06 205.75 315.48 218.86 348.63 197.72" fill="url(#linear-gradient-4)" style="mix-blend-mode:multiply"/><circle cx="336.06" cy="179.15" r="22.09" fill="#fff"/><path d="M320.23,181c1-9,5.36-19,13.37-23.78a22.06,22.06,0,0,0-9.23,40.65A25.09,25.09,0,0,1,320.23,181Z" fill="#ff912e"/><path d="M342.29,196.6c1.12-4.9,2.13-9.76,1.83-14.82a56.63,56.63,0,0,0-7.51-24.72c-4.81,3.53-6.56,11.23-7.65,16.6-2,9.86-1.07,19.34,4.81,27.44a22.73,22.73,0,0,0,2.3.12,23.08,23.08,0,0,0,5.22-.62C341.69,199.28,342,197.91,342.29,196.6Z" fill="#ff912e"/><path d="M348.46,164.32a31.5,31.5,0,0,1,6.85,14.87A24.88,24.88,0,0,1,353,193.25a22,22,0,0,0-11.62-35.5C344.25,159.21,346.65,162,348.46,164.32Z" fill="#ff912e"/><path d="M176.77,249.14a66.22,66.22,0,0,0,10.5,1.36l24.47-16-17.46-5.48q-14.41,8-29,15.5C168.42,247.31,172.72,248.34,176.77,249.14Z" fill="url(#linear-gradient-5)" style="mix-blend-mode:multiply"/><path d="M232,140.88c-.2-3.06,2.38-25.7,1.83-30.17s3.69-44.79-7-51.74c-1.58-1-5.34-1.49-6.45-1-5.71,5-1.1,13.1.53,19.63,1.24,5,.74,10.14.32,15.17a74.64,74.64,0,0,0,.55,15c.49,4.22,1.33,8.6,1.33,12.86.48,7.38,2.18,20.16,2.18,20.16s-6.43,14.91-4,15.57,5.11-10.35,5-7,.43,10.15-1.46,12.88-.55,3.63,4,.07,5.31-4.95,5.53-9.53S232.24,143.95,232,140.88Z" fill="#f7bf9e"/><path d="M220.63,57.65c-2.6-.22-5.2-.33-7.81-.59s-4.87-.67-7.25-.72a.68.68,0,0,1-.39.31,8.94,8.94,0,0,0-2.05,1.44.61.61,0,0,1-.59.08c-3.17,4.17-8.09,10.73-8,11.09.18.53,4,19.43,10.74,20.32s19.7-9.35,19.78-16.42C225.14,69.36,222.81,62.88,220.63,57.65Z" fill="#f7bf9e"/><path d="M193.62,78.56c-.5,3.14-2.5,17.21-2.78,18.06-1.41,4.28-3.26,27-4.05,29.95s-3.91,6.68-4.59,11.22-.17,6.05,3.58,10.42,5.24,3.74,3.91.7.46-9.59,1.06-12.92,1.07,8,3.6,7.82-.89-16-.89-16,4.14-12.21,6-19.36c1.48-5.58,4.31-13.67,5.82-18.83C200.87,89.57,198,78.14,193.62,78.56Z" fill="#e7a477"/><path d="M189.51,122.28s6.25,24,7.09,28.21S202.92,168,204.1,173s9.89,34.43,8.79,38.49S208,227,205.6,229s-4.82,2.89-3.88,5,4.34,3,8.43,1.44,6.14-7.86,9.25-9.7,6.83-5,5.59-8.62-4.13-7.53-4.57-9.71,1.17-31.43-3.6-41.28,2.92-48-6.93-62.67S185.67,100.37,189.51,122.28Z" fill="#e7a477"/><path d="M199.35,127.66s-.24,24.82-.52,29.08,1.52,18.59,1.35,23.72.56,35.82-1.56,39.45-8.77,13.63-11.6,15-5.41,1.53-5,3.78,3.41,4,7.77,3.59,8-6,11.46-7,7.91-3.08,7.64-6.86-2-8.35-1.87-10.57,9.34-30,7.3-40.78,15.36-45.61,9.67-62.31S198.66,122.13,199.35,127.66Z" fill="#f7bf9e"/><path d="M217.59,74.06c-1-4.82,4.62-14.5,4.23-15.93a1.35,1.35,0,0,0-.2-.39c-1.56-.15-3.12-.25-4.68-.35a22.8,22.8,0,0,0-4.18,7.82c-1.3,4.43-6.07,8.47-11,7.06-3.78-1.09-3.67-4.89-1-8.89,1.15-1.72,4.48-6.17,5.07-7h-.34a4.46,4.46,0,0,0-3.29,1.56c-2.06,2.46-4.32,4.76-6.41,7.21s-4.35,5.28-5.3,8.42.12,6,1.36,8.75A16.68,16.68,0,0,1,193.7,89a55.74,55.74,0,0,1-1,11.7c-.75,4-1.67,8.15-1.37,12.27.52,7.29,6.55,16.79,9.28,17.45s5.47-11.07,12.63-14.45,11.07,0,11.07,0-3.13-7.16-5.6-11.59,1.42-21.38,3-24.11C221.68,80.23,218.64,78.87,217.59,74.06Z" fill="#ed1e79"/><path d="M204,45.57a57.25,57.25,0,0,1,2.1,7.72c.55,2.3,1.38,4.47,2,6.7l11.11-4.47-5.55-13.81Z" fill="#eaab8b"/><path d="M197.4,34s1.56-8.65,11.94-9.91,12.93,10,13.69,17a45.2,45.2,0,0,1-1.28,14.48L210.86,61.2s2.18-14.67-.53-17.39-6.88,5.95-6.9,8l-5.83,5.74A66.51,66.51,0,0,1,197.4,34Z" fill="#dd6f31"/><path d="M199.4,36.72s1.51,9.61,2.06,11.12,3.18,6.83,4.78,7.17,7.63-3.27,8.77-6.31l.43-2.14s4.42-4.4,1.91-5.54A2.33,2.33,0,0,0,214,42.21a7.87,7.87,0,0,1-6.33-1.1C204.67,39,205.89,35.5,199.4,36.72Z" fill="#f7bf9e"/></g></g></svg>