<svg id="Layer_1" data-name="Layer 1" xmlns="http://www.w3.org/2000/svg" xmlns:xlink="http://www.w3.org/1999/xlink" viewBox="0 0 400 300"><defs><linearGradient id="linear-gradient" x1="97.35" y1="158.08" x2="118.67" y2="124.75" gradientUnits="userSpaceOnUse"><stop offset="0" stop-color="#f15a24" stop-opacity="0"/><stop offset="1" stop-color="#f15a24"/></linearGradient><linearGradient id="linear-gradient-2" x1="164.32" y1="122.09" x2="185.64" y2="88.75" xlink:href="#linear-gradient"/></defs><title>#41-50</title><path d="M37.93,180.41,181.6,263.36a19.87,19.87,0,0,0,19.9,0l167.73-97.21a12.71,12.71,0,0,0,0-22l-144.3-83a18,18,0,0,0-17.94,0l-169,97.26A12.71,12.71,0,0,0,37.93,180.41Z" fill="#feca5c"/><path d="M95.74,166.18l34.77-22.38-21.06-9.28L74.65,156C81,159.85,89.52,162.18,95.74,166.18Z" opacity="0.68" fill="url(#linear-gradient)"/><polygon points="77.42 184.74 193.84 252.16 359.24 156.55 241.89 89.13 77.42 184.74" fill="#fff6e9"/><polygon points="83.86 185.4 193.37 248.63 352.3 156.84 243.34 93.33 83.86 185.4" fill="#296f86"/><polygon points="116.41 204.3 239.33 131.56 315.51 178.09 193.37 248.63 116.41 204.3" fill="#5aa8b5"/><path d="M276.66,97.2c-.1-6-7.25-10.17-11.09-4.27-3.69,5.67-3.33,14.93-3.18,21.43a1.13,1.13,0,0,0,2.25,0,72,72,0,0,1,.87-13.91c.4-2.27.91-6.24,3.12-7.55,3.36-2,5.73,1.32,5.78,4.3a1.13,1.13,0,0,0,2.25,0Z" fill="#ccc"/><path d="M265.1,90.2c-.1-6-7.25-10.17-11.09-4.27-3.69,5.67-3.33,14.93-3.18,21.43a1.13,1.13,0,0,0,2.25,0A72,72,0,0,1,254,93.46c.4-2.27.91-6.24,3.12-7.55,3.36-2,5.73,1.32,5.78,4.3a1.13,1.13,0,0,0,2.25,0Z" fill="#ccc"/><path d="M251.94,103.69c0-.19,11.56,6.89,11.56,6.89" fill="none" stroke="#ccc" stroke-miterlimit="10" stroke-width="2"/><path d="M252.57,98.25c0-.19,11.26,6.7,11.26,6.7" fill="none" stroke="#ccc" stroke-miterlimit="10" stroke-width="2"/><rect x="98.24" y="125.68" width="1.9" height="16.62" rx="0.95" ry="0.95" fill="#296f86"/><rect x="117.26" y="133.11" width="1.9" height="16.62" rx="0.95" ry="0.95" fill="#296f86"/><path d="M128.84,133.33a1,1,0,0,1-.23-.23v10.71a1,1,0,0,0,1.9,0v-9.58A10.28,10.28,0,0,1,128.84,133.33Z" fill="#296f86"/><polygon points="102.08 107.67 90.36 115.15 99.58 130.33 112.19 123.42 102.08 107.67" fill="#68e1fd"/><polygon points="112.19 123.42 131.53 133.99 119.16 141.64 99.58 130.33 112.19 123.42" fill="#68e1fd"/><circle cx="289.3" cy="143.8" r="13.93" fill="#68e1fd"/><path d="M289.3,130a13.91,13.91,0,0,0-3.8.54,17.85,17.85,0,0,1,11,15,22.87,22.87,0,0,1-2,11.31A13.92,13.92,0,0,0,289.3,130Z" fill="#68e1fd"/><path d="M287.19,130a14.22,14.22,0,0,0-2.28.59,25.22,25.22,0,0,0,4.38,27.06h.2a13.84,13.84,0,0,0,7-1.92C297.4,146.56,294,135.21,287.19,130Z" fill="#fff6e9"/><ellipse cx="288.29" cy="174.48" rx="8.01" ry="2.55" fill="#296f86"/><path d="M186.4,170.21c1.77-.78,13.6,9.16,13.6,9.16s-9.86,2.51-14.13,3a43.53,43.53,0,0,1-8.89,0S176.34,174.61,186.4,170.21Z" fill="#68e1fd"/><path d="M243.2,142.78c-2.74-.17-3.48,1.31-4.51.8s-3.31-1.2-3.82-.17a11.21,11.21,0,0,0-.74,2.85,34.11,34.11,0,0,1-4.6,2.21c1.11,1,1.91,1.45,3,2.46,3.06-2,5.61-3.59,6.34-3.91,1.95-.85,6.7-3,6.7-3S245.94,143,243.2,142.78Z" fill="#ffcdb2"/><path d="M252.88,146.26c-2.74-.17-3.48,1.31-4.51.8s-3.31-1.2-3.82-.17a9.33,9.33,0,0,0-.58,3,61.68,61.68,0,0,0-8.52,3.84c.09.07-.12-.44,0-.37a37.61,37.61,0,0,0,4.35,2.67c4.07-2.63,7.88-5.1,8.79-5.5,1.95-.85,6.7-3,6.7-3S255.62,146.43,252.88,146.26Z" fill="#ffcdb2"/><path d="M234.24,146.72a.42.42,0,0,1-.26-.4c-2.28.7-6.63,2.2-8.64,4-2.8,2.45-16.21,7.48-16.21,7.48l-17.81,8L169.55,177.6s6.2,2.56,15.58,0,9.87-4.63,15.23-6.7,17.42-10.72,20.1-11.94c2.13-1,12.13-7.64,17.11-10.76C236.45,147.73,235.36,147.18,234.24,146.72Z" fill="#68e1fd"/><path d="M244,149.87c-1.91.56-7.12,2.21-9.38,4.19-2.8,2.45-16.21,7.48-16.21,7.48l-17.81,8L178.8,181.36s6.2,2.56,15.58,0,9.87-4.63,15.23-6.7,17.42-10.72,20.1-11.94c2.21-1,12.85-8.13,17.62-11.08C246.18,151.1,245.06,150.51,244,149.87Z" fill="#68e1fd"/><path d="M170.52,179.1s-5.41,4.12-7.76,5.53-5.87,4.56-9.66,7.54c-2.47,1.94-8.73,6.21-8.64,7.44s6.41-1.23,7-.66-1,2.83.28,2.64,1.41-4.05,2.07-4.62,9-6.62,10.9-8.21c1.43-1.18,14.46-7.9,14.46-7.9" fill="#ffcdb2"/><path d="M171.41,177.89s-9.08,7.27-11.44,8.7-5.61,4.36-9.24,7.26c1.17.92,2.39,1.78,3.58,2.66,2.76-2.06,6.39-4.77,7.59-5.76,1.43-1.18,14.46-8,14.46-8Z" fill="#68e1fd"/><path d="M168.24,178.84s3,3.48,6.43,4.06,4.55-1.32,4.47-3.48a16.18,16.18,0,0,0-1.24-4.8S169.09,170.81,168.24,178.84Z" fill="#ffcdb2"/><path d="M175.54,173.86c-.05-.21-.43-.19-.47.08A14.88,14.88,0,0,1,174,178a.26.26,0,0,0,.3.35l-.06.23a.24.24,0,0,0,.46.13q.67-2.27,1.15-4.59A.25.25,0,0,0,175.54,173.86Z" fill="#090003"/><path d="M172.14,180.47a3.13,3.13,0,0,1-.65.7c-.24.19.1.52.34.34a3.53,3.53,0,0,0,.72-.79C172.72,180.46,172.31,180.22,172.14,180.47Z" fill="#090003"/><path d="M174.64,177.62l0,0a1.47,1.47,0,0,0-1.68,0c-.73.54-1.38,2.17-.87,2.92.36.53,1.11.37,1.61.18a2.08,2.08,0,0,0,1.31-1.75A1.48,1.48,0,0,0,174.64,177.62Z" fill="#087ae4"/><path d="M168.73,179.37a22.25,22.25,0,0,0,2.35-3.41,3.7,3.7,0,0,1,4-2,8.11,8.11,0,0,1,3.33,2s-.48-5.68-4.05-6.59-7-.1-8.1,4.35S168.73,179.37,168.73,179.37Z" fill="#68e1fd"/><path d="M177.49,173.72c.37-.3,1.43-2.14,3.42-2.82a24.37,24.37,0,0,0,6.34-4.16c1.12-1.06,6.52-9.88,9.94-7.89s4.16,13,4.16,13,4.78,7.59,4.35,9-.5,3.26-1.62,2.57a20.22,20.22,0,0,1-3.23-3.54s.68,1.77-.19,1.66-2.24-3.59-2.24-3.59l-1.06-5.53-2-5.16-6.21,7.64" fill="#ffcdb2"/><path d="M197,171.38l.64,0,.07,0a32.26,32.26,0,0,1,3.59-.5c-.28-2.81-1.3-10.38-4.07-12-3.42-2-8.82,6.84-9.94,7.89a24.37,24.37,0,0,1-6.34,4.16c-2,.68-3,2.53-3.42,2.82l11.68,1.21,6.21-7.64Z" fill="#68e1fd"/><ellipse cx="210.63" cy="199.21" rx="45.71" ry="6.45" transform="translate(-68.48 120.81) rotate(-27.71)" fill="#296f86"/><path d="M162.71,130.19l34.77-22.38-21.06-9.28L141.62,120C147.94,123.85,156.5,126.18,162.71,130.19Z" opacity="0.68" fill="url(#linear-gradient-2)"/><rect x="165.26" y="91.1" width="1.9" height="16.62" rx="0.95" ry="0.95" fill="#296f86"/><rect x="184.28" y="98.53" width="1.9" height="16.62" rx="0.95" ry="0.95" fill="#296f86"/><path d="M195.86,98.75a1,1,0,0,1-.23-.23v10.71a1,1,0,0,0,1.9,0V99.65A10.28,10.28,0,0,1,195.86,98.75Z" fill="#296f86"/><polygon points="169.1 73.09 157.38 80.57 166.59 95.75 179.21 88.84 169.1 73.09" fill="#68e1fd"/><polygon points="179.21 88.84 198.54 99.41 186.18 107.06 166.59 95.75 179.21 88.84" fill="#68e1fd"/><path d="M139.16,106.57v20.27h5V107.17A10.22,10.22,0,0,1,139.16,106.57Z" fill="#fd9d68"/><ellipse cx="140.47" cy="108.25" rx="26.61" ry="10.33" fill="#68e1fd"/><ellipse cx="140.47" cy="108.25" rx="26.61" ry="10.33" opacity="0.18"/><path d="M144.14,105.49V66.33h-5V104.7A8.51,8.51,0,0,0,144.14,105.49Z" fill="#fd9d68"/><path d="M117.7,82.09a144.1,144.1,0,0,0,28.69,1.41c9.6-.58,22-2.11,30.7-7.8-1.38-8-18.18-14.28-38.7-14.28-21.43,0-38.81,6.87-38.81,15.34,0,.17,0,.33,0,.5C104.73,80.73,111.74,81.25,117.7,82.09Z" fill="#ffcdb2"/><path d="M99.58,76.76V67.49s33.3-21,37.07-20.72,41.52,15.13,40.55,17,0,13,0,13" fill="#ffcdb2"/></svg>