<svg id="Layer_2" data-name="Layer 2" xmlns="http://www.w3.org/2000/svg" viewBox="0 0 400 300"><title>PP_</title><path d="M194.51,285.8,15.15,179.8c-5.71-3.21-10.61-8.47-5-11.92l180-103.74c2.7-1.67,6.8-2.77,9.55-1.18L387.93,172.23c5.71,3.32,6.73,12.58,1,15.89l-170.8,97.51A23.85,23.85,0,0,1,194.51,285.8Z" fill="#dddd6b"/><path d="M190.49,113.36l-.06,6.89c0-.39-.39-.83-.39-1.14l.06-6.89C190.1,112.53,190.49,113,190.49,113.36Z"/><path d="M176.26,118.11,176.2,125c0-.42-.42-.64-1.28-.64-1.85,0-2.57-.52-3.18-1.24a10.3,10.3,0,0,0-2.13-1.32,11.7,11.7,0,0,1-2-1.29c-1.92-2-3.71-3.93-5.55-5.9-.23-.24-.43-.49-.66-.75l.06-6.89c.23.26.44.51.66.75,1.84,2,3.63,3.95,5.55,5.9a11.7,11.7,0,0,0,2,1.29,10.3,10.3,0,0,1,2.13,1.32c.61.72,1.33,1.23,3.18,1.24C175.84,117.48,176.26,117.69,176.26,118.11Z"/><path d="M176.2,125.08l.06-6.89a.94.94,0,0,0,.63.74c1.11.47,2.37.86,3.71,1.33l-.06,6.89c-1.33-.47-2.59-.86-3.71-1.33A.94.94,0,0,1,176.2,125.08Z"/><path d="M267.39,121.57l-.06,6.89a4.68,4.68,0,0,0-1.62-1l.06-6.89A4.68,4.68,0,0,1,267.39,121.57Z"/><path d="M264.32,122.35l-.06,6.89-2.16-.45.06-6.89Z"/><path d="M293.5,123.79l-.06,6.89a2.2,2.2,0,0,0-.46-1c-.09-.16-.46-.28-.77-.46l.06-6.89c.31.18.68.31.77.46A2.2,2.2,0,0,1,293.5,123.79Z"/><path d="M136,122.69l-.06,6.89-1,.59.06-6.89Z"/><path d="M135.51,126l-.06,6.89c0-.25-.25-.54-.77-.87-.31-.2-.66-.38-.94-.58-.49-.34-.74-.64-.74-.89l.06-6.89c0,.25.25.55.74.89.29.2.64.39.94.58C135.26,125.44,135.52,125.73,135.51,126Z"/><path d="M188.06,128.4l-.06,6.89a1.34,1.34,0,0,0-.09-.46,9.43,9.43,0,0,0-5.06-5.74c-1-.51-2.41-1-2.4-1.66l.06-6.89c0,.69,1.42,1.15,2.4,1.66a9.43,9.43,0,0,1,5.06,5.74A1.34,1.34,0,0,1,188.06,128.4Z"/><path d="M306,130l-.06,6.89-.92-1.06.06-6.89Z"/><path d="M158.09,132.24l-.06,6.89-.26,1.05.06-6.89Z"/><path d="M143.57,131.29l-.06,6.89A3.92,3.92,0,0,1,143,140c-.18.33-.32.67-.54,1.15l.06-6.89c.23-.48.36-.81.54-1.15A3.92,3.92,0,0,0,143.57,131.29Z"/><path d="M115,134l-.06,6.89c0-.27-.24-.53-.9-.76a5.85,5.85,0,0,0-3.85-.21c-.91.28-1.66.69-2.62.93a12.63,12.63,0,0,1-2.18.11l.06-6.89a12.63,12.63,0,0,0,2.18-.11c1-.24,1.7-.64,2.62-.93a5.85,5.85,0,0,1,3.85.21C114.73,133.43,115,133.69,115,134Z"/><path d="M107.49,140.65l-.06,6.89c0-.5-.56-1-1.55-1.46-.59-.29-.9-.48-.9-.63l.06-6.89c0,.15.31.33.9.63C106.93,139.68,107.5,140.16,107.49,140.65Z"/><path d="M324.77,146.63l-.06,6.89a1.31,1.31,0,0,1-.39.78.75.75,0,0,0-.17.49l.06-6.89a.75.75,0,0,1,.17-.49A1.31,1.31,0,0,0,324.77,146.63Z"/><path d="M113.68,148.18l-.06,6.89c0-.26-.54-.36-1.71-.34-1.35,0-1.65-.23-1.77-.79-.35-1.64-1-3.24-3.82-4.47a.3.3,0,0,1-.17-.3l.06-6.89a.3.3,0,0,0,.17.3c2.84,1.23,3.47,2.83,3.82,4.47.12.56.43.81,1.77.79C113.14,147.82,113.68,147.92,113.68,148.18Z"/><path d="M95,154.07,95,161s0-.08,0-.12c0-.21-.35-.44-.65-.63s-.57-.46-.57-.65l.06-6.89c0,.19.19.41.57.65s.64.42.65.63Q95,154,95,154.07Z"/><path d="M329.13,155.9l-.06,6.89c0,.25-.32.57-.87,1.09a.91.91,0,0,0-.34.64l.06-6.89a.91.91,0,0,1,.34-.64C328.81,156.46,329.13,156.15,329.13,155.9Z"/><path d="M90.23,165.43l.06-6.89c0,.12.07.21.24.27a4.39,4.39,0,0,1,3,2.68l-.06,6.89a4.39,4.39,0,0,0-3-2.68C90.3,165.64,90.23,165.55,90.23,165.43Z"/><path d="M96.18,165.46l-.06,6.89a1.21,1.21,0,0,0-.32-.72c-.65-.82-1.07-1.69-1.62-2.53a5.11,5.11,0,0,0-.67-.73l.06-6.89a5.11,5.11,0,0,1,.67.73c.55.84,1,1.7,1.62,2.53A1.21,1.21,0,0,1,96.18,165.46Z"/><path d="M93.07,174l.06-6.89c0,.67,1.21,1,2.41,1.21,1.38.29,2.86.49,4.25.78.37.08.56.34.83.52l-.06,6.89c-.27-.18-.46-.44-.83-.52-1.39-.29-2.87-.48-4.25-.78C94.28,174.95,93.07,174.66,93.07,174Z"/><path d="M92.45,170.62l-.06,6.89a1.89,1.89,0,0,0-.11-.55,9.44,9.44,0,0,0-.85-1.53l.06-6.89a9.44,9.44,0,0,1,.85,1.53A1.89,1.89,0,0,1,92.45,170.62Z"/><path d="M335.92,164.82l-.06,6.89c0,.46-.46.88-1.38,1.31q-.41.19-.93.38c-2.26.82-3.64,1.3-4.49,1.69-1.77.82-1.22,1.28-1.47,3.73a3.4,3.4,0,0,1-1.37,1.85l.06-6.89a3.4,3.4,0,0,0,1.37-1.85c.25-2.44-.3-2.9,1.47-3.73.85-.39,2.23-.87,4.49-1.69q.53-.19.93-.38C335.47,165.7,335.92,165.28,335.92,164.82Z"/><path d="M258.69,176.75l-.06,6.89c0-1.2-1.19-1.56-4.29-1.37a8.17,8.17,0,0,0-.83.1l.06-6.89a8.17,8.17,0,0,1,.83-.1C257.5,175.18,258.7,175.54,258.69,176.75Z"/><path d="M313.56,184.1l.06-6.89a1.6,1.6,0,0,1,0-.26.88.88,0,0,1,.54-.68,3.5,3.5,0,0,1,1.77-.14,7.85,7.85,0,0,0,1.69,0c1.11-.13,2.19-.3,3.27-.48l3.2-.53a7,7,0,0,1,1-.09c.83,0,1.67,0,2.5,0l-.06,6.89c-.83,0-1.67,0-2.5,0a7,7,0,0,0-1,.09l-3.2.53c-1.08.17-2.17.34-3.27.48a7.85,7.85,0,0,1-1.69,0,3.5,3.5,0,0,0-1.77.14.88.88,0,0,0-.54.68A1.6,1.6,0,0,0,313.56,184.1Z"/><path d="M313.66,178l-.06,6.89a1.27,1.27,0,0,1-.1.51,1.64,1.64,0,0,1-.76.64l.06-6.89a1.64,1.64,0,0,0,.76-.64A1.27,1.27,0,0,0,313.66,178Z"/><path d="M270.68,181.2l-.06,6.89c-.27-.31-.7-.61-.77-.92-.29-1.51-3.52-2.91-7.32-3l.06-6.89c3.8.07,7,1.47,7.32,3C270,180.59,270.41,180.89,270.68,181.2Z"/><path d="M258.56,184.35l.06-6.89c0,.94,1,1.65,2.65,2.22l2,.71-.06,6.89-2-.71C259.54,186,258.55,185.29,258.56,184.35Z"/><path d="M275,179.49l-.06,6.89a7.42,7.42,0,0,0-1.35.67,7.45,7.45,0,0,1-.83.47l.06-6.89a7.45,7.45,0,0,0,.83-.47A7.42,7.42,0,0,1,275,179.49Z"/><path d="M272.76,180.64l-.06,6.89a13.19,13.19,0,0,1-2.08.56l.06-6.89A13.19,13.19,0,0,0,272.76,180.64Z"/><path d="M254.61,179l-.06,6.89a7.83,7.83,0,0,1-.24,1.66,2.84,2.84,0,0,0-.08.61l.06-6.89a2.84,2.84,0,0,1,.08-.61A7.83,7.83,0,0,0,254.61,179Z"/><path d="M312.8,179.11l-.06,6.89a33.69,33.69,0,0,0-10.27,2.5,5.94,5.94,0,0,1-4.19.41,7.67,7.67,0,0,0-2.07.17c-1,.11-1.88.33-2.85.36-1.63,0-3.28,0-4.91,0a5.17,5.17,0,0,1-3.41-1.06,9.84,9.84,0,0,0-3.12-1.44,20.22,20.22,0,0,0-4-.77,9,9,0,0,0-3,.27l.06-6.89a9,9,0,0,1,3-.27,20.22,20.22,0,0,1,4,.77,9.84,9.84,0,0,1,3.12,1.44,5.17,5.17,0,0,0,3.41,1.06c1.64,0,3.29.09,4.91,0,1,0,1.89-.25,2.85-.36a7.67,7.67,0,0,1,2.07-.17,5.94,5.94,0,0,0,4.19-.41A33.69,33.69,0,0,1,312.8,179.11Z"/><path d="M261.71,188.56l.06-6.89c0,.3.43.6,1.28,1.14L263,189.7C262.14,189.16,261.71,188.87,261.71,188.56Z"/><path d="M266,180.36l-.06,6.89c0,.17-.17.34-.57.53-.64.31-.81.81-1.27,1.21a9.15,9.15,0,0,1-1.11.71l.06-6.89a9.15,9.15,0,0,0,1.11-.71c.46-.4.63-.9,1.27-1.21C265.83,180.7,266,180.53,266,180.36Z"/><path d="M100.82,181.72l-.06,6.89a2.56,2.56,0,0,0,0-.39A19.87,19.87,0,0,0,99,183.88a18.08,18.08,0,0,0-1-2.19,2.31,2.31,0,0,0-1-.56c-1.42-.47-3-.86-4.3-1.4-.71-.29-1.36-.64-1.35-1l.06-6.89c0,.4.65.74,1.35,1,1.29.54,2.88.92,4.3,1.4a2.31,2.31,0,0,1,1,.56,18.08,18.08,0,0,1,1,2.19,19.87,19.87,0,0,1,1.69,4.34A2.56,2.56,0,0,1,100.82,181.72Z"/><path d="M255.93,184l-.06,6.89c0,.1,0,.21,0,.31l.06-6.89C255.91,184.18,255.93,184.07,255.93,184Z"/><path d="M215.6,192l.06-6.89c0-.13.1-.23.26-.31a3.75,3.75,0,0,1,1.21-.21c1.86-.1,3.72-.17,5.59-.2a5.13,5.13,0,0,0,2-.3,1.11,1.11,0,0,0,.61-.62.84.84,0,0,1,.43-.33,5,5,0,0,1,.85-.29c1.24-.31,2.57-.55,3.85-.83a8.6,8.6,0,0,1,1.66-.4c4.37,0,8.8-.27,12.85.85a8,8,0,0,0,2.29.31,10.4,10.4,0,0,1,4.46.77,15.83,15.83,0,0,0,2.18.81,12.1,12.1,0,0,0,2.06.08l-.06,6.89a12.1,12.1,0,0,1-2.06-.08,15.83,15.83,0,0,1-2.18-.81,10.4,10.4,0,0,0-4.46-.77,8,8,0,0,1-2.29-.31c-4.05-1.11-8.48-.88-12.85-.85a8.6,8.6,0,0,0-1.66.4c-1.28.28-2.61.52-3.85.83a5,5,0,0,0-.85.29.84.84,0,0,0-.43.33,1.11,1.11,0,0,1-.61.62,5.13,5.13,0,0,1-2,.3c-1.87,0-3.74.1-5.59.2a3.75,3.75,0,0,0-1.21.21C215.69,191.72,215.6,191.82,215.6,192Z"/><path d="M95.77,187.94l-.06,6.89c0-.29-.34-.55-.72-.81s-.63-.49-.63-.7l.06-6.89c0,.2.23.43.63.7S95.78,187.65,95.77,187.94Z"/><path d="M93.7,191.91l-.06,6.89a.89.89,0,0,0-.26-.58,1.67,1.67,0,0,1-.5-1.06l.06-6.89a1.67,1.67,0,0,0,.5,1.06A.89.89,0,0,1,93.7,191.91Z"/><path d="M215.86,185.57l-.06,6.89a.83.83,0,0,1-.47.6c-2.05,1.12-4.11,2.25-6.33,3.3-1.36.64-2.29,1.33-2.54,2.21-.59,2.1-2.42,3.85-5.47,5.27A26.34,26.34,0,0,1,198.1,205a6.51,6.51,0,0,0-.7.27c-.7.32-1.07.71-1.07,1.16l.06-6.89c0-.46.37-.84,1.07-1.16a6.51,6.51,0,0,1,.7-.27A26.34,26.34,0,0,0,201,197c3-1.42,4.88-3.17,5.47-5.27.25-.88,1.18-1.57,2.54-2.21,2.23-1,4.28-2.17,6.33-3.3A.83.83,0,0,0,215.86,185.57Z"/><path d="M88.8,199.37l-.06,6.89a2.12,2.12,0,0,0-.73-1.45,6.77,6.77,0,0,1-.88-1.05,1.46,1.46,0,0,1-.26-.78l.06-6.89a1.46,1.46,0,0,0,.26.78,6.77,6.77,0,0,0,.88,1.05A2.12,2.12,0,0,1,88.8,199.37Z"/><path d="M196.71,201l-.06,6.89a3.53,3.53,0,0,1-1.75,2.67c-.31.23-.46.44-.46.65l.06-6.89c0-.21.14-.42.46-.65A3.53,3.53,0,0,0,196.71,201Z"/><path d="M88.89,204.66l-.06,6.89a1.09,1.09,0,0,0-.62-1c-.91-.54-1.46-1-1.45-1.58l.06-6.89c0,.54.55,1,1.45,1.58A1.09,1.09,0,0,1,88.89,204.66Z"/><path d="M197.67,207.21l-.06,6.89c0,.28-.29.54-.83.79l.06-6.89C197.38,207.76,197.67,207.49,197.67,207.21Z"/><path d="M113.91,213.37l-.06,6.89c0-.26-.31-.48-1-.63a46.19,46.19,0,0,0-5.49-1c-2.61-.28-5.33-.37-8-.56-2.32-.17-4.33-.64-5.37-1.63a13.74,13.74,0,0,0-6.45-3c-2.15-.5-3.05-1.31-3-2.43l.06-6.89c0,1.12.89,1.93,3,2.43a13.74,13.74,0,0,1,6.45,3c1,1,3,1.47,5.37,1.63,2.66.19,5.38.28,8,.56a46.19,46.19,0,0,1,5.49,1C113.6,212.89,113.91,213.11,113.91,213.37Z"/><path d="M183.33,223.54l.06-6.89a.85.85,0,0,1,0-.18c.38-1.69,1.89-3.19,4.45-4.41l1.15-.54c2.54-1.18,5.16-2.32,7.84-3.5l-.06,6.89c-2.67,1.19-5.3,2.33-7.84,3.5l-1.15.54c-2.56,1.22-4.07,2.73-4.45,4.41A.85.85,0,0,0,183.33,223.54Z"/><path d="M184.65,218.66l-.06,6.89c0,.1-.07.18-.23.25l.06-6.89C184.58,218.84,184.64,218.75,184.65,218.66Z"/><path d="M181.4,227.46l.06-6.89c0-.44.25-.8.84-1.08a10.8,10.8,0,0,1,2.12-.58l-.06,6.89a10.8,10.8,0,0,0-2.12.58C181.65,226.66,181.4,227,181.4,227.46Z"/><path d="M161.61,225.35l-.06,6.89c0-.45-.55-1-1.08-1.39-2.53-2-6.25-3.16-11.34-3.38-2.21-.09-4.42-.24-6.62-.4a9.08,9.08,0,0,1-5.17-1.65c-1.32-1.14-3-1.56-5.89-1.22a31.84,31.84,0,0,1-5,0,8,8,0,0,1-2.75-.45c-1.84-1.08-4.48-.87-6.86-1.11-1.56-.16-3.08-.41-5-.66l.06-6.89c1.88.25,3.4.5,5,.66,2.38.24,5,0,6.86,1.11a8,8,0,0,0,2.75.45,31.84,31.84,0,0,0,5,0c2.84-.33,4.58.08,5.89,1.22a9.08,9.08,0,0,0,5.17,1.65c2.19.16,4.4.31,6.62.4,5.08.22,8.81,1.38,11.34,3.38C161.06,224.38,161.61,224.89,161.61,225.35Z"/><path d="M181.55,221.26l-.06,6.89a3,3,0,0,1-.71,1.46,8.67,8.67,0,0,1-2,2.28,5.39,5.39,0,0,1-.89.5,18.09,18.09,0,0,1-2.33.84,11,11,0,0,1-2.7.28,14.63,14.63,0,0,0-5.82.91,5.83,5.83,0,0,0-.53.28l.06-6.89a5.83,5.83,0,0,1,.53-.28,14.63,14.63,0,0,1,5.82-.91,11,11,0,0,0,2.7-.28,18.09,18.09,0,0,0,2.33-.84,5.39,5.39,0,0,0,.89-.5,8.67,8.67,0,0,0,2-2.28A3,3,0,0,0,181.55,221.26Z"/><path d="M161.44,107l4-1c.6.33,1.35.72,2,1.13s1.24.86,2,1.23a3.69,3.69,0,0,0,1.56.38c2.12-.6,2.57.17,3.18.76a6.9,6.9,0,0,1,5.1.41c2.26.94,4.55,1.88,7,2.72a38.26,38.26,0,0,0,4.21.89c.14-.57-.76-1.26-.16-1.54a4.3,4.3,0,0,1,1.81-.09l.33-.91c1.66.92,3.32.83,5.34.54a6.85,6.85,0,0,1,5.29.89c1.59.92,3.3,1.8,5.07,2.65a5.09,5.09,0,0,0,2,.35,16,16,0,0,1,10.45,3,4.18,4.18,0,0,1,.5.42c2.09-.35,3.26.09,4.1.85s1.79.78,3.33.67c3.28-.23,6.71-.17,9.87-.55a56.74,56.74,0,0,1,11.49.2c3.91.3,7.21.87,9.63,2.35a6,6,0,0,0,1.37.63,6.5,6.5,0,0,0,2.13.47,3.89,3.89,0,0,0,1.27-1l-2.16-.45a47.27,47.27,0,0,1,5.24-.32,4.68,4.68,0,0,0-1.62-1,7.75,7.75,0,0,1,2.9.45c1.39.58,2.54,1.27,3.95,1.84a9.24,9.24,0,0,0,2.25.32,32.22,32.22,0,0,1,3.48.24,3.47,3.47,0,0,0,2,.09,1,1,0,0,0,.51-.56c1.92.44,3.57.9,5.36,1.21a39.41,39.41,0,0,0,5.07.51,5.5,5.5,0,0,0,2-.37c.51-.54,0-1-.23-1.49-.09-.16-.46-.28-.77-.46,1.37.07,3.38.94,3.8,1.59a1.71,1.71,0,0,1,.22.47c.28,1.06,1,1.92,3,2.66,2.37.85,4.23,2,6.67,2.95l-.92-1.06c1.25-.18,1.64.1,2,.57a4.79,4.79,0,0,0,1.51,1.1c1.53.78,3.25,1.49,4.7,2.29.42.23.14.71.34,1.06a5,5,0,0,0,1,1.18,16.19,16.19,0,0,1,2.64,2.4,8.63,8.63,0,0,0,3.62,3.17,3.39,3.39,0,0,1,1.38,1.37,35.87,35.87,0,0,0,2.24,3.94c.43.56.25.91-.14,1.38a1.16,1.16,0,0,0-.09,1c.28,1.43.75,2.86.89,4.29.09.87.64,1.52,2.11,2.09,2.27.88,2.27.95,1,2.17-.75.71-.13,1.27.61,1.88,1.14.93,2.14,1.89,3.28,2.81a18.64,18.64,0,0,0,2.17,1.46c2,1.21,2.18,2.09.22,3q-.41.19-.93.38c-2.26.82-3.64,1.3-4.49,1.69-1.77.82-1.22,1.28-1.47,3.73a3.4,3.4,0,0,1-1.37,1.85A12.93,12.93,0,0,0,327.6,175c-.83,0-1.67,0-2.5,0a7,7,0,0,0-1,.09l-3.2.53c-1.08.17-2.17.34-3.27.48a7.85,7.85,0,0,1-1.69,0,3.5,3.5,0,0,0-1.77.14.88.88,0,0,0-.54.68c-.09.5.13,1-.08,1.52a1.64,1.64,0,0,1-.76.64,33.69,33.69,0,0,0-10.27,2.5,5.94,5.94,0,0,1-4.19.41,7.67,7.67,0,0,0-2.07.17c-1,.11-1.88.33-2.85.36-1.63,0-3.28,0-4.91,0a5.17,5.17,0,0,1-3.41-1.06A9.84,9.84,0,0,0,282,180a20.22,20.22,0,0,0-4-.77,9,9,0,0,0-3,.27,7.42,7.42,0,0,0-1.35.67,7.45,7.45,0,0,1-.83.47,13.19,13.19,0,0,1-2.08.56c-.27-.31-.7-.61-.77-.92-.29-1.51-3.52-2.91-7.32-3,.45.43.8.8,1.22,1.16s1.16.93,1.78,1.39.63.66-.17,1c-.64.31-.81.81-1.27,1.21a9.15,9.15,0,0,1-1.11.71c-1.74-1.11-1.74-1.19.21-2.41l-2-.71c-1.82-.63-2.83-1.42-2.62-2.49.32-1.57-.78-2-4.24-1.83a8.17,8.17,0,0,0-.83.1,17.44,17.44,0,0,1,1,2.84,6,6,0,0,1-.19,2.32,2.61,2.61,0,0,0,1.37,2.92c.31.21.13.57.18.86a12.1,12.1,0,0,1-2.06-.08,15.83,15.83,0,0,1-2.18-.81,10.4,10.4,0,0,0-4.46-.77,8,8,0,0,1-2.29-.31c-4.05-1.11-8.48-.88-12.85-.85a8.6,8.6,0,0,0-1.66.4c-1.28.28-2.61.52-3.85.83a5,5,0,0,0-.85.29.84.84,0,0,0-.43.33,1.11,1.11,0,0,1-.61.62,5.13,5.13,0,0,1-2,.3c-1.87,0-3.74.1-5.59.2a3.75,3.75,0,0,0-1.21.21c-.27.13-.36.33-.11.65s-.07.59-.41.77c-2.05,1.12-4.11,2.25-6.33,3.3-1.36.64-2.29,1.33-2.54,2.21-.59,2.1-2.42,3.85-5.47,5.27a26.34,26.34,0,0,1-2.88,1.12,6.51,6.51,0,0,0-.7.27c-.91.42-1.26.94-1,1.6.59,1.33,0,2.57-1.52,3.69-.71.52-.53.95.12,1.41s1.47,1,2.17,1.57.5,1-.41,1.4c-2.67,1.19-5.3,2.33-7.84,3.5l-1.15.54c-2.56,1.22-4.07,2.73-4.45,4.41-.12.54.32,1.17.87,1.68.38.34.53.59.14.77a10.8,10.8,0,0,0-2.12.58,1.16,1.16,0,0,0-.78,1.53c.15.55-.29,1.16-.67,1.7a8.67,8.67,0,0,1-2,2.28,5.39,5.39,0,0,1-.89.5,18.09,18.09,0,0,1-2.33.84,11,11,0,0,1-2.7.28,14.63,14.63,0,0,0-5.82.91,5.83,5.83,0,0,0-.53.28,2.85,2.85,0,0,1-2.27,0c-1.47-.49-3.09-.87-4.48-1.26.64-.39,1.7-.75,1.78-1.16s-.5-1-1.07-1.49c-2.53-2-6.25-3.16-11.34-3.38-2.21-.09-4.42-.24-6.62-.4a9.08,9.08,0,0,1-5.17-1.65c-1.32-1.14-3-1.56-5.89-1.22a31.84,31.84,0,0,1-5,0,8,8,0,0,1-2.75-.45c-1.84-1.08-4.48-.87-6.86-1.11-1.56-.16-3.08-.41-5-.66.68-.49,1.07-.8,1.53-1.09.76-.49.66-1-.47-1.23a46.19,46.19,0,0,0-5.49-1c-2.61-.28-5.33-.37-8-.56-2.32-.17-4.33-.64-5.37-1.63a13.74,13.74,0,0,0-6.45-3c-2.44-.57-3.27-1.54-3-2.9L88.83,205a1.1,1.1,0,0,0-.56-1.35c-1.57-.93-2.07-1.77-.48-2.84,1.31-.88,1.26-1.92.27-2.92a6.77,6.77,0,0,1-.88-1.05c-.5-.79-.32-1.51.93-2.09,1.68-.65,2.93-1.17,4.23-1.66S94,192,93.44,191.33c-.81-.92-.69-1.7.69-2.34a7.46,7.46,0,0,1,.84-.32c1.33-.59.77-1.08.09-1.54s-.89-.81-.18-1.14a5.53,5.53,0,0,1,.87-.29,14.31,14.31,0,0,0,2.31-.82c2-.93,2.94-2.15,2.73-3.55A19.87,19.87,0,0,0,99.1,177a18.08,18.08,0,0,0-1-2.19,2.31,2.31,0,0,0-1-.56c-1.42-.47-3-.86-4.3-1.4-1.12-.47-2.09-1-.57-1.79.39-.19.25-.66.14-1a9.44,9.44,0,0,0-.85-1.53c1.15.11,2,.14,2.86.27,1.66.27,3.26.61,4.92.88a6.87,6.87,0,0,0,1.36-.08c-.27-.18-.46-.44-.83-.52-1.39-.29-2.87-.48-4.25-.78s-2.92-.67-2.25-1.67c.3,0,.77-.05,1.17-.14a5.14,5.14,0,0,0,1.09-.33c.74-.34.79-.81.3-1.43-.65-.82-1.07-1.69-1.62-2.53a5.11,5.11,0,0,0-.67-.73,4.39,4.39,0,0,0-3-2.68c-.61-.21.05-.94,1-1.36a2.9,2.9,0,0,1,1.25-.3,3.63,3.63,0,0,0,1.56-.2.94.94,0,0,0,.55-.85,14.56,14.56,0,0,0,.21-2.15c0-.21-.35-.44-.65-.63-.69-.42-.75-.79-.22-1a4.14,4.14,0,0,1,1.29-.28c.8-.07,1.63-.08,2.44-.1,1.63,0,3.27-.14,4.9-.13a18.12,18.12,0,0,0,7.85-1.5,14.12,14.12,0,0,0,2.51-1.5c.92-.69.62-1-1.21-.92-1.35,0-1.65-.23-1.77-.79-.35-1.64-1-3.24-3.82-4.47-.27-.12-.19-.6.1-.77,1.63-1,1.18-1.77-.53-2.62-.85-.42-1.11-.62-.73-.8a7.7,7.7,0,0,1,1.41-.34,22.32,22.32,0,0,0,5.16-1.56,9.7,9.7,0,0,0,2.78-1.86c.53-.52.68-1-.51-1.44a5.85,5.85,0,0,0-3.85-.21c-.91.28-1.66.69-2.62.93a12.63,12.63,0,0,1-2.18.11c.3-.3.42-.72.86-.92a182,182,0,0,1,20.6-4.79c2.32-.4,4.53-.92,6.8-1.39a6.1,6.1,0,0,0,1.29-.38c.79-.37.71-.83-.23-1.43-.31-.2-.66-.38-.94-.58-.87-.61-1-1.07-.29-1.39a7.88,7.88,0,0,1,2.45-.45l-1,.59c4.88.43,5.71,2.27,6.91,3.93,1.38,1.93,2.27,3.89,1.18,5.92-.18.33-.32.67-.54,1.15,2-.21,3.2-.38,4.44-.45s2.58-.11,3.85-.06c1.9.08,3.78.19,5-.38a2.3,2.3,0,0,0,1-.84,7.47,7.47,0,0,1,1.25-.32l-.26,1.05a29.24,29.24,0,0,0,3.41-.38,19.83,19.83,0,0,1,7.22-.55,8.74,8.74,0,0,0,4.54-.79c2.38-.94,2.38-.91,5.06-.23a5.73,5.73,0,0,0,2.11.11c2.16-.44,4.3-.93,6.29-1.5,1.6-.68,1.75-1.36,1.52-2a9.43,9.43,0,0,0-5.06-5.74c-1.12-.58-2.79-1.08-2.32-1.94-1.33-.47-2.59-.86-3.71-1.33a.91.91,0,0,1-.63-.77c0-.46-.39-.68-1.28-.69-1.85,0-2.57-.52-3.18-1.24a10.3,10.3,0,0,0-2.13-1.32,11.7,11.7,0,0,1-2-1.29c-1.92-2-3.71-3.93-5.55-5.9C161.87,107.47,161.67,107.22,161.44,107Z" fill="#225870"/><path d="M166.56,227.82l-.06,6.89a2.85,2.85,0,0,1-2.27,0c-1.47-.49-3.09-.87-4.48-1.26l.06-6.89c1.39.38,3,.77,4.48,1.26A2.85,2.85,0,0,0,166.56,227.82Z"/><path d="M351.56,180.41l-.06,6.89a.23.23,0,0,1,0,.11,1,1,0,0,0-.14.47l.06-6.89a1,1,0,0,1,.14-.47A.23.23,0,0,0,351.56,180.41Z"/><path d="M331.15,183.85l-.06,6.89c0-.38-.72-.59-1.53-.79-.41-.1-.9-.15-1.27-.28-.55-.2-1-.44-1.52-.67l.06-6.89c.5.22,1,.47,1.52.67.36.13.85.18,1.27.28C330.43,183.25,331.16,183.47,331.15,183.85Z"/><path d="M355.11,183.68l-.06,6.89c0,.1-.09.2-.27.28a6,6,0,0,1-1.41.34,4.43,4.43,0,0,0-1.11.29c-.26.12-.38.27-.38.44l.06-6.89c0-.17.12-.32.38-.44a4.43,4.43,0,0,1,1.11-.29,6,6,0,0,0,1.41-.34C355,183.87,355.11,183.78,355.11,183.68Z"/><path d="M352.77,186.6l-.06,6.89c0,.22-.16.39-.49.55a10.83,10.83,0,0,1-2.08.56c-.48.1-1,.18-1.41.31a2.75,2.75,0,0,1-2.41-.22,4.91,4.91,0,0,0-3.4-.52,5.66,5.66,0,0,1-4.13-.71c-1.41-1.1-3.51-1.58-6-1.83-.62-.06-1.19-.22-2-.38l.06-6.89c.82.16,1.39.31,2,.38,2.54.26,4.64.73,6,1.83a5.66,5.66,0,0,0,4.13.71,4.91,4.91,0,0,1,3.4.52,2.75,2.75,0,0,0,2.41.22c.43-.13.94-.21,1.41-.31a10.83,10.83,0,0,0,2.08-.56C352.62,187,352.77,186.82,352.77,186.6Z"/><path d="M326.84,182.11l2-.35a3.82,3.82,0,0,1,.52,0c5.05,0,6.34-.12,7.66-.74.9-.42,1.81-1.08,3.91-2.15.83-.43,1-1.12,1.57-1.66a2.71,2.71,0,0,1,.69-.48,1.27,1.27,0,0,1,.48-.13,5.38,5.38,0,0,1,2.13.31c1.9,1,3.65,2,5.41,3,.24.14.4.4.3.57-.49.85.34,1.45,1.67,2,.31.12.62.25.89.39,1,.51,1.28.82.74,1.08a6,6,0,0,1-1.41.34,4.43,4.43,0,0,0-1.11.29c-.5.23-.48.55-.11,1,.69.82.81,1.23.08,1.57a10.83,10.83,0,0,1-2.08.56c-.48.1-1,.18-1.41.31a2.75,2.75,0,0,1-2.41-.22,4.91,4.91,0,0,0-3.4-.52,5.66,5.66,0,0,1-4.13-.71c-1.41-1.1-3.51-1.58-6-1.83-.62-.06-1.19-.22-2-.38.9-.73-.06-1-1.17-1.3-.41-.1-.9-.15-1.27-.28C327.81,182.58,327.34,182.34,326.84,182.11Z" fill="#225870"/><path d="M286.83,137.33c-.36.51-1.4,3.91-3.91,3.49s-3.91-4.47-5.73-3.49-1.54,4.19-2.79,5.59-2.51,3.49-1.68,4.19,1.12,1.4,2.37.84,3.35-4.19,3.77-3.21,1.54,2.64,4.75,3.42,3.07,2.87,4.89,2.59-2-2.23-1.12-2.65,4.33-2.23,5.45-1.54-1,1.54,1.54,2.79,6.28,1.82,5.45,3.77-8.38,3.35-6.56,5.59,11.17-4.47,11.31-6-5.87-3.21-5-5.45,2.37-7.29,1-10.07c0,0,5,6,8.8,4.06s6.7-8.24,5.73-9.5-4.19,6.42-6,5.45-6.42-6.56-12.29-5.59S289.09,134.14,286.83,137.33Z" fill="#68e1fd"/><path d="M276.8,139.7s-.82-5.86,0-6.68,2.35,5.86,2.35,6.68.23-6.1,1.41-6.22,0,7.39,0,7.39" fill="#68e1fd"/><path d="M291.74,145.88c1.1.66,2.51,4.58,1.31,5.56s-4.9,2.72-4.14,3.6,8.93-5.23,8.93-5.23l-2.29-6.21" fill="#68e1fd"/><path d="M115.42,168.79l4.14,3.08s6.95,17.57,19.86,20.71a38,38,0,0,0,22.71-1.26l4,1.13s41-23.3,41-23.58,10.42-15.09,10.42-15.09L179.44,131.7Z" fill="#7c605f"/><path d="M115.42,163.8l4.14,3.08s6.95,17.57,19.86,20.71a38,38,0,0,0,22.71-1.26l4,1.13s41-23.3,41-23.58S217.6,148.8,217.6,148.8l-38.16-22.09Z" fill="#d89e8f"/><polygon points="115.42 168.79 115.42 163.8 123.06 166.29 120.9 169.77 115.42 168.79" fill="#7c605f"/><polygon points="217.6 148.8 217.6 153.79 214.16 155.79 211.98 152.91 217.6 148.8" fill="#7c605f"/><path d="M126.66,159.1v4.56A13.26,13.26,0,0,0,137.21,170l2.94-.69,7.35-2.59,4.5-.17,4.93-2.42,6.21-.26-.42-2.85" fill="#937471"/><path d="M128,156.95c-.25.49-1.37,2.16-1.37,2.16s1.66,6.63,10,8.1a55,55,0,0,0,10.62-3.2s4.32-.09,4.75-.43,3.8-2.07,4.24-2.25,6.4-.35,6.4-.35l.42-4" fill="#c9a293"/><path d="M128.82,156.95s-1,2.62,2.42,5.13,11.24-.41,11.24-.41" fill="#68e1fd"/><path d="M128.82,156.95s-1,2.62,2.42,5.13,11.24-.41,11.24-.41" fill="#344e4f" opacity="0.75"/><path d="M178.51,132.11s-14.64,3.7-21,10.5l4.82,5.08,5.17-2.4" fill="#68e1fd"/><path d="M178.51,132.11s-14.64,3.7-21,10.5l4.82,5.08,5.17-2.4" fill="#344e4f" opacity="0.51"/><path d="M160.6,143.74c-.26-.26,8.52-9.3,17.91-11.62,0,0-5.34,21.61-6.11,22.9s-8.78,5.6-8.78,5.6l-1.46-11" fill="#68e1fd"/><path d="M160.6,143.74c-.26-.26,8.52-9.3,17.91-11.62,0,0-5.34,21.61-6.11,22.9s-8.78,5.6-8.78,5.6l-1.46-11" fill="#fff" opacity="0.32"/><path d="M144.6,144.94c-.1-.43,2.23-8.35,2.57-8.44s9,1.72,13,5.94,5.42,13,3.44,18.17l-3-.43" fill="#68e1fd"/><path d="M138.39,149.59c-.64.52-2,4.22-1.64,5.6s11.88,6.54,11.88,6.54l2.15.35-3-8.39" fill="#68e1fd"/><path d="M144.6,145.75s1.45-3.47,4.64-4.42c0,0,10.59,6.37,11.36,18.85Z" fill="#68e1fd"/><path d="M138.39,149.59c-.64.52-2,4.22-1.64,5.6s11.88,6.54,11.88,6.54l2.15.35-3-8.39" fill="#344e4f" opacity="0.51"/><path d="M141.58,164.66l7.06-2.93s-6.23-8-11.45-8.18S141.58,164.66,141.58,164.66Z" fill="#68e1fd"/><path d="M146.14,146.15s9.81,5.34,14.46,14c0,0-3.19-.6-4.39,0s-4.13,2.32-4.13,2.32l-1.29-.43" fill="#68e1fd"/><path d="M141.58,164.66l7.06-2.93s-6.23-8-11.45-8.18S141.58,164.66,141.58,164.66Z" fill="#fff" opacity="0.32"/><path d="M139.68,165.52s-7.66-8.09-13.6-9.13c0,0,2-4.22,11.11-2.84,0,0,4.39,4.91,4.39,11.11Z" fill="#68e1fd"/><path d="M146.14,146.15s9.81,5.34,14.46,14c0,0-3.19-.6-4.39,0s-4.13,2.32-4.13,2.32l-1.29-.43" fill="#fff" opacity="0.32"/><path d="M149.76,162.08h1s.69-11.28-4.65-15.93c0,0-9.12-3-12.74,2.32C133.4,148.47,145.62,151.49,149.76,162.08Z" fill="#68e1fd"/><path d="M144.6,145.75s1.45-3.47,4.64-4.42c0,0,10.59,6.37,11.36,18.85Z" fill="#344e4f" opacity="0.51"/><path d="M147.78,169.92v5.34s4,7.1,12.37,7.4l3.45-.81,8.62-3,5.27-.2,5.78-2.84,7.28-.3-.49-3.34" fill="#937471"/><path d="M149.38,167.39c-.29.57-1.61,2.53-1.61,2.53s2,7.78,11.77,9.5A64.45,64.45,0,0,0,172,175.67s5.07-.1,5.57-.51,4.46-2.43,5-2.64,7.5-.41,7.5-.41l.49-4.73" fill="#c9a293"/><path d="M150.31,167.39s-1.22,3.08,2.84,6,13.18-.48,13.18-.48" fill="#68e1fd"/><path d="M150.31,167.39s-1.22,3.08,2.84,6,13.18-.48,13.18-.48" fill="#344e4f" opacity="0.75"/><path d="M208.57,138.28s-17.16,4.34-24.63,12.32l5.65,6,6.06-2.81" fill="#68e1fd"/><path d="M208.57,138.28s-17.16,4.34-24.63,12.32l5.65,6,6.06-2.81" fill="#344e4f" opacity="0.51"/><path d="M187.57,151.9c-.3-.3,10-10.9,21-13.63,0,0-6.26,25.34-7.17,26.85s-10.3,6.56-10.3,6.56l-1.72-12.92" fill="#68e1fd"/><path d="M187.57,151.9c-.3-.3,10-10.9,21-13.63,0,0-6.26,25.34-7.17,26.85s-10.3,6.56-10.3,6.56l-1.72-12.92" fill="#fff" opacity="0.32"/><path d="M168.81,153.32c-.11-.5,2.61-9.79,3-9.89s10.5,2,15.24,7,6.36,15.24,4,21.3l-3.53-.5" fill="#68e1fd"/><path d="M161.53,158.77c-.75.61-2.32,4.95-1.92,6.56S173.54,173,173.54,173l2.52.41-3.53-9.84" fill="#68e1fd"/><path d="M168.81,154.26s1.7-4.07,5.44-5.18c0,0,12.42,7.47,13.32,22.11Z" fill="#68e1fd"/><path d="M161.53,158.77c-.75.61-2.32,4.95-1.92,6.56S173.54,173,173.54,173l2.52.41-3.53-9.84" fill="#344e4f" opacity="0.51"/><path d="M165.26,176.43l8.28-3.43s-7.31-9.38-13.43-9.59S165.26,176.43,165.26,176.43Z" fill="#68e1fd"/><path d="M170.61,154.73s11.51,6.26,17,16.45c0,0-3.73-.71-5.15,0s-4.85,2.73-4.85,2.73l-1.51-.5" fill="#68e1fd"/><path d="M165.26,176.43l8.28-3.43s-7.31-9.38-13.43-9.59S165.26,176.43,165.26,176.43Z" fill="#fff" opacity="0.32"/><path d="M163,177.44s-9-9.49-15.95-10.7c0,0,2.32-4.95,13-3.33,0,0,5.15,5.75,5.15,13Z" fill="#68e1fd"/><path d="M170.61,154.73s11.51,6.26,17,16.45c0,0-3.73-.71-5.15,0s-4.85,2.73-4.85,2.73l-1.51-.5" fill="#fff" opacity="0.32"/><path d="M174.85,173.41h1.21s.81-13.23-5.45-18.68c0,0-10.69-3.53-14.94,2.73C155.67,157.45,170,161,174.85,173.41Z" fill="#68e1fd"/><path d="M168.81,154.26s1.7-4.07,5.44-5.18c0,0,12.42,7.47,13.32,22.11Z" fill="#344e4f" opacity="0.51"/></svg>