<svg id="Layer_2" data-name="Layer 2" xmlns="http://www.w3.org/2000/svg" xmlns:xlink="http://www.w3.org/1999/xlink" viewBox="0 0 400 300"><defs><linearGradient id="linear-gradient" x1="206.55" y1="263.89" x2="152.79" y2="229.54" gradientUnits="userSpaceOnUse"><stop offset="0" stop-color="#094da7"/><stop offset="1" stop-color="#1b1464"/></linearGradient><linearGradient id="linear-gradient-2" x1="342.81" y1="186.78" x2="287.08" y2="151.17" xlink:href="#linear-gradient"/></defs><title>PP</title><path d="M194.28,287.39,14.56,181.17C8.84,178,3.93,172.68,9.51,169.22l180.37-104c2.71-1.68,6.82-2.78,9.57-1.18L388.11,173.58c5.72,3.32,6.75,12.6,1,15.93L218,287.22A23.9,23.9,0,0,1,194.28,287.39Z" fill="#094da7"/><polyline points="120.76 223.49 208.71 280.09 231.72 265.15 145.78 217.88" fill="url(#linear-gradient)"/><polyline points="249.95 151.03 342.59 200.04 372.63 182.26 302.63 141.88" fill="url(#linear-gradient-2)"/><path d="M270.8,21.57S326,17.76,340.3,78.91c13.45,57.61-36.65,77.86-36.65,77.86" fill="#68e1fd"/><path d="M270.8,21.57S326,17.76,340.3,78.91c13.45,57.61-36.65,77.86-36.65,77.86" fill="#2e3192" opacity="0.31"/><ellipse cx="272.29" cy="90.25" rx="60.41" ry="71.06" transform="translate(-11.56 131.66) rotate(-26.64)" fill="#68e1fd"/><ellipse cx="271.83" cy="91.29" rx="19.22" ry="22.99" transform="translate(-13.17 122.89) rotate(-24.89)" fill="#2e3192" opacity="0.49"/><ellipse cx="272.2" cy="91.29" rx="30.09" ry="37.44" transform="translate(-13.14 123.04) rotate(-24.89)" fill="none" stroke="#2e3192" stroke-miterlimit="10" stroke-width="4"/><ellipse cx="271.66" cy="90.57" rx="39.2" ry="47.36" transform="translate(-11.77 131.41) rotate(-26.64)" fill="none" stroke="#2e3192" stroke-miterlimit="10" stroke-width="4"/><ellipse cx="271.99" cy="91.58" rx="51.93" ry="61.04" transform="translate(-12.19 131.67) rotate(-26.64)" fill="none" stroke="#2e3192" stroke-miterlimit="10" stroke-width="4"/><ellipse cx="271.92" cy="91.78" rx="60.41" ry="71.06" transform="translate(-12.29 131.65) rotate(-26.64)" fill="none" stroke="#2e3192" stroke-miterlimit="10" stroke-width="4"/><polygon points="138.89 208.66 207.87 168.83 191.4 158.68 244.35 160.98 244.35 189.78 224.41 177.9 156.22 219.3 138.89 208.66" fill="#68e1fd"/><path d="M151.41,95.92l4.39-3.29a.88.88,0,0,1,.41-.7q6.29-4.38,12.56-8.8a1,1,0,0,1,1.58.55c.44.76-.12,1.55-.83,2.14s-1.59,1.31-2.39,2a1,1,0,0,1,.26.28c.64,1,1.71,2.42,1.72,3.67s-1,1.87-1.78,2.55l0,.18c.16,1.54-.52,2-1.74,2.73a1,1,0,0,1-.81.14,17.12,17.12,0,0,1-2.67,1.42l-3.7,1.88c-.94.48-1.62-.65-1.24-1.41-.74.06-1.05-.75-.86-1.38a.85.85,0,0,1-.21-.33l0-.05-1.28,1c-1,.81-2.26-.8-1.23-1.61l.91-.72-1.87,1.4A1,1,0,0,1,151.41,95.92Z" fill="#f04900"/><path d="M122.33,224.51l-1.58-1,0-17.79,7.81-.28s.15,7.59,2,9.32,6.41.49,6.86.64,3.52-.74,4.9.68-4.68,5.52-7.9,6.27a20.8,20.8,0,0,1-6.7.25s-.7-4.55-1.82-4.1-1.2,5.26-1.2,5.26Z" fill="#ff6753"/><path d="M116.46,130.33a126.26,126.26,0,0,0-1.94,18.49c-.13,7,2.34,62.94,2.34,62.94s4.64,5.44,15.94,2.16c1.64-.47,2.16-54.59,2.16-54.59l-3.86-24.84" fill="#a03dff"/><path d="M121.65,102.08c.62,0,21.41-.54,35.46-13.13,0,0,6.73,6.6,4,11.65,0,0-19.92,19.19-35.11,15.26" fill="#fc9c54"/><path d="M138.12,96.14a.31.31,0,0,1,.52,0,13.72,13.72,0,0,1,2,10.29c-.08.38-.66.22-.59-.16a13.09,13.09,0,0,0-1.67-9.37,21.64,21.64,0,0,0-2.56,10.4.3.3,0,0,1-.61,0A22.29,22.29,0,0,1,138.12,96.14Z" fill="#42a200"/><path d="M143.73,238.24l-1.58-1,0-17.79,7.81-.28s.15,7.59,2,9.32,6.41.49,6.86.64,3.52-.74,4.9.68-4.68,5.52-7.9,6.27a20.8,20.8,0,0,1-6.7.25s-.7-4.55-1.82-4.1-1.2,5.26-1.2,5.26Z" fill="#ff6753"/><path d="M140.93,132.92s7.2,26.58,10.13,50.37c.7,5.71,6.61,39.77,6.61,39.77s-9.74,3.56-18.4.77c0,0-10.3-43.46-10.74-44.31s-7.39-29-8.19-49.2" fill="#a03dff"/><path d="M118.92,99.1,123,97.55c1.05.07,10.4,3.13,14.65,9.32A40.52,40.52,0,0,1,139,112.8c.54,2.67,1,5.35,1.34,8a59.2,59.2,0,0,1,.5,8.86c0,1.27-.07,1.91-.2,3.17a5.61,5.61,0,0,1-1.58,1.12c-12.28,5.28-22-1.13-22.49-2.12s-2.11-15.47-3-24.09A8.34,8.34,0,0,1,118.92,99.1Z" fill="#ffaf68"/><path d="M129,83.33s3.86,14-1.27,15.93-11.73-3.57-12.39-6.46S121.25,79.12,129,83.33Z" fill="#f04900"/><path d="M127.91,79.89c-3.46-1.47-7.54-.62-10.64,1.32-3.48,2.19-4.65,5.8-4.1,9.8.91,6.5,6.46,7.69,7.69,7.44s2.59-.75,2.74-3.72-2.29-5.63.72-6.2,6.6-.58,7.46-3.59S127.92,79.89,127.91,79.89Z" fill="#653200"/><path d="M122.36,113.62c1.89-5.64,2.95-7.85,2.37-11a54,54,0,0,1-.23-7.9c-.79-.54-2.12-1.37-1.8-2.46a1.23,1.23,0,0,1,1.75-.69l.13.09c.07-2.15.15-3.72.15-3.72l-8.95-5.61s-7.42,4.42-10,16c-.79,3.55-1.15,7.18-2,10.73a36.21,36.21,0,0,1-3,7.92c-1.2,2.39-2.21,4.68-1.57,7.42a14.26,14.26,0,0,0,6.4,8.81c7,4.34,17.79,2.58,19.12-5.05S120.47,119.26,122.36,113.62Z" fill="#653200"/><path d="M133.89,98.68a2.67,2.67,0,0,1-.47-1.9,1,1,0,0,1,1.82-.42l.44.6c.07-.77.15-1.54.26-2.31a1,1,0,0,1,2,.07c0,.24.06.49.08.73a4,4,0,0,1,.17.79c1.09.14,2.39.54,2.58,1.79,0,0,0,.06,0,.08.84,0,1.66.33,1.69,1.33a3.68,3.68,0,0,1,0,.57c.85.25,1.47.68,1.35,1.79a16.34,16.34,0,0,1-1,3.77,1,1,0,0,1-.76.57c-.12.54-.26,1.07-.41,1.6a1.5,1.5,0,0,1-2.52.28,1.18,1.18,0,0,1-.3-.06,1,1,0,0,1-.83.14,1,1,0,0,1-1.51-.45,1,1,0,0,1-.33-.84c0-.23,0-.46,0-.68v0Q134.94,102.41,133.89,98.68Z" fill="#f04900"/><path d="M135.6,103.86c.32.08,4.82-4.05,8.23-2.63,0,0,13,21.92.87,27.72-6,2.88-10.67-6-10.67-6l3.45-6.82Z" fill="#ffaf68"/><path d="M136.67,104.75a43.8,43.8,0,0,1,5.78,15.16c.11.63-.85.9-1,.27a43,43,0,0,0-5.68-14.92C135.47,104.7,136.34,104.2,136.67,104.75Z" fill="#f04900"/><path d="M134.26,123.8c1,1.95,2.28,4,4.28,5a6.56,6.56,0,0,0,7.23-1.12c4.26-3.67,3.62-10,2.77-14.93-.11-.63.85-.9,1-.27,1,5.54,1.51,12.74-3.72,16.45a7.52,7.52,0,0,1-7.09,1c-2.5-1-4.09-3.38-5.29-5.69C133.1,123.73,134,123.23,134.26,123.8Z" fill="#f04900"/><path d="M123.36,149.88c.64,12.71,4.39,24.89,7.57,37.13s5.89,24.43,8.21,36.78l-1.08-.3q-3.53-18.71-8.34-37.15c-3.15-12-6.73-24-7.36-36.46C122.33,149.23,123.33,149.24,123.36,149.88Z" fill="#653200"/><path d="M269.71,93.92l-62.86,42.83a2,2,0,0,1-2.78-.5h0a1.79,1.79,0,0,1,.46-2.53L268.61,91l-3.13-8.31,13.94,4.22-5.81,15.79Z" fill="#fff"/><path d="M161.77,87.69v17.59a2.93,2.93,0,0,0,3.71.17l.06-17.75,17.64,6.52s6.33-3.49,6.33-12.84-6.21-13.72-6.21-13.72L161.77,82.37Z" fill="#68e1fd"/><path d="M184.36,67.4c-1.25-1.47-3.36.66-2.12,2.12,5.78,6.81,5.86,15.78.63,22.9-1.14,1.56,1.46,3.05,2.59,1.51C191.54,85.67,191,75.17,184.36,67.4Z" fill="#fc9c54"/><polygon points="37.2 124.27 52.03 116.13 52.03 90.91 37.2 99.47 37.2 124.27" fill="#68e1fd"/><polygon points="65.82 97.42 80.65 89.29 80.65 64.06 65.82 72.63 65.82 97.42" fill="#68e1fd"/><polygon points="91.6 70.8 106.43 62.66 106.43 37.44 91.6 46 91.6 70.8" fill="#68e1fd"/></svg>