<svg xmlns="http://www.w3.org/2000/svg" xmlns:xlink="http://www.w3.org/1999/xlink" viewBox="0 0 400 300"><defs><linearGradient id="linear-gradient" x1="167.85" y1="162.38" x2="137.4" y2="199.36" gradientUnits="userSpaceOnUse"><stop offset="0" stop-color="#ed1c24"/><stop offset="1" stop-color="#fff"/></linearGradient><linearGradient id="linear-gradient-2" x1="266.27" y1="228.03" x2="235.19" y2="265.77" xlink:href="#linear-gradient"/><pattern id="_10_dpi_10_" data-name="10 dpi 10%" width="28.8" height="28.8" patternTransform="matrix(-0.21, 0.07, 0.07, 0.21, -6.4, 3.9)" patternUnits="userSpaceOnUse" viewBox="0 0 28.8 28.8"><rect width="28.8" height="28.8" fill="none"/><circle cx="28.8" cy="28.8" r="0.72" fill="#231f20"/><circle cx="14.4" cy="28.8" r="0.72" fill="#231f20"/><circle cx="28.8" cy="14.4" r="0.72" fill="#231f20"/><circle cx="14.4" cy="14.4" r="0.72" fill="#231f20"/><circle cx="7.2" cy="21.6" r="0.72" fill="#231f20"/><circle cx="21.6" cy="21.6" r="0.72" fill="#231f20"/><circle cx="7.2" cy="7.2" r="0.72" fill="#231f20"/><circle cx="21.6" cy="7.2" r="0.72" fill="#231f20"/><circle cy="28.8" r="0.72" fill="#231f20"/><circle cy="14.4" r="0.72" fill="#231f20"/><circle cx="28.8" r="0.72" fill="#231f20"/><circle cx="14.4" r="0.72" fill="#231f20"/><circle r="0.72" fill="#231f20"/></pattern><pattern id="_10_dpi_10_3" data-name="10 dpi 10%" width="28.8" height="28.8" patternTransform="matrix(-0.21, 0.07, 0.07, 0.21, -8.76, 8.82)" patternUnits="userSpaceOnUse" viewBox="0 0 28.8 28.8"><rect width="28.8" height="28.8" fill="none"/><circle cx="28.8" cy="28.8" r="0.72" fill="#231f20"/><circle cx="14.4" cy="28.8" r="0.72" fill="#231f20"/><circle cx="28.8" cy="14.4" r="0.72" fill="#231f20"/><circle cx="14.4" cy="14.4" r="0.72" fill="#231f20"/><circle cx="7.2" cy="21.6" r="0.72" fill="#231f20"/><circle cx="21.6" cy="21.6" r="0.72" fill="#231f20"/><circle cx="7.2" cy="7.2" r="0.72" fill="#231f20"/><circle cx="21.6" cy="7.2" r="0.72" fill="#231f20"/><circle cy="28.8" r="0.72" fill="#231f20"/><circle cy="14.4" r="0.72" fill="#231f20"/><circle cx="28.8" r="0.72" fill="#231f20"/><circle cx="14.4" r="0.72" fill="#231f20"/><circle r="0.72" fill="#231f20"/></pattern><pattern id="_10_dpi_10_5" data-name="10 dpi 10%" width="28.8" height="28.8" patternTransform="matrix(-0.21, 0.07, 0.07, 0.21, 0.78, 5.55)" patternUnits="userSpaceOnUse" viewBox="0 0 28.8 28.8"><rect width="28.8" height="28.8" fill="none"/><circle cx="28.8" cy="28.8" r="0.72" fill="#231f20"/><circle cx="14.4" cy="28.8" r="0.72" fill="#231f20"/><circle cx="28.8" cy="14.4" r="0.72" fill="#231f20"/><circle cx="14.4" cy="14.4" r="0.72" fill="#231f20"/><circle cx="7.2" cy="21.6" r="0.72" fill="#231f20"/><circle cx="21.6" cy="21.6" r="0.72" fill="#231f20"/><circle cx="7.2" cy="7.2" r="0.72" fill="#231f20"/><circle cx="21.6" cy="7.2" r="0.72" fill="#231f20"/><circle cy="28.8" r="0.72" fill="#231f20"/><circle cy="14.4" r="0.72" fill="#231f20"/><circle cx="28.8" r="0.72" fill="#231f20"/><circle cx="14.4" r="0.72" fill="#231f20"/><circle r="0.72" fill="#231f20"/></pattern></defs><title>121-130</title><g style="isolation:isolate"><g id="Layer_2" data-name="Layer 2"><path d="M324.58,215.44,192,138.52a6.67,6.67,0,0,0-6.69,0L89.94,193.6a6.67,6.67,0,0,0,0,11.56l131,75.37a6.67,6.67,0,0,0,6.55.06l97-53.54A6.67,6.67,0,0,0,324.58,215.44Z" fill="#7e9325"/><path d="M157.71,176.19c-19.33,8.68-21.39,10.76-40.31,21.66l14.4,6.49,40.09-21.07C166.5,180.69,161.94,180.38,157.71,176.19Z" fill="url(#linear-gradient)" style="mix-blend-mode:multiply"/><path d="M257.29,243.16c-18.56,6.27-24.66,9.29-43.57,20.19l17.66,8,40.09-21.07C266.07,247.66,261.52,247.34,257.29,243.16Z" fill="url(#linear-gradient-2)" style="mix-blend-mode:multiply"/><path d="M98.59,98.87c-.14-.39-.72-.12-.58.26.41,1.14.45,2.88-.62,3.7a1.2,1.2,0,0,1-.25.15,1,1,0,0,0,0-.47,2.14,2.14,0,0,0-.42-.87,4.85,4.85,0,0,1-.38-.54,6.89,6.89,0,0,1,.63-.73c.28-.29-.12-.79-.4-.49l-.36.39a.32.32,0,0,0-.5.12,1,1,0,0,0-.06.63,2.35,2.35,0,0,0-.31.84c-.73.65-.28,2.18.91,1.89l.15-.05a1.29,1.29,0,0,0,.33,0,2.23,2.23,0,0,0,1.81-1.5A4.64,4.64,0,0,0,98.59,98.87ZM96,102.23l0,0a.24.24,0,0,0,.19-.22l.11.17a.78.78,0,0,1,.08.81A.89.89,0,0,1,96,102.23Z" fill="#ff413b"/><path d="M95.51,83.38c.28-.3-.24-.68-.51-.37a2.29,2.29,0,0,0,.28,3.27c.32.26.69-.26.37-.51A1.65,1.65,0,0,1,95.51,83.38Z" fill="#ff413b"/><path d="M110.43,88.3l-.33,0-.39-.39c-.29-.28-.79.12-.49.4l.09.08a12.56,12.56,0,0,0-2.62.69c-.38.15-.12.73.26.58a11.5,11.5,0,0,1,2-.56,2.07,2.07,0,0,0-.35,1.44,1.07,1.07,0,0,0,.42.65.32.32,0,0,0,.57.2,1,1,0,0,0,.26,0,1.51,1.51,0,0,0,1.08-1.33,1.79,1.79,0,0,0-.27-1l.14-.31A.32.32,0,0,0,110.43,88.3Zm-1.14,2.24a.91.91,0,0,1,0-.58,2.78,2.78,0,0,1,.54-1h0l.08.11Z" fill="#ff413b"/><path d="M82.34,121.2c-.39-.13-.62.46-.23.59.84.28,2.15.71,2,1.82-.06.57-.5.9-1,.6a2.54,2.54,0,0,1-.82-1.13c-.18-.37-.76-.11-.58.26a2.78,2.78,0,0,0,1.38,1.56,1.23,1.23,0,0,0,1.51-.61C85.46,122.66,83.61,121.63,82.34,121.2Z" fill="#ff413b"/><path d="M81.36,94c-.28-.29-.78.11-.49.4a1.94,1.94,0,1,1-3,2.42c-.23-.34-.72.06-.49.4a2.57,2.57,0,1,0,4-3.22Z" fill="#ff413b"/><path d="M103.84,70.27c9.91,4.52,12.11,21,4.91,36.77s-21.08,24.91-31,20.39-13.49-23.27-6.29-39.05S93.93,65.75,103.84,70.27Z" fill="#68e1fd"/><path d="M103.84,70.27c9.91,4.52,12.11,21,4.91,36.77s-21.08,24.91-31,20.39-13.49-23.27-6.29-39.05S93.93,65.75,103.84,70.27Z" opacity="0.13"/><path d="M101.41,77.07c7.95,3.63,9.89,16.44,4.34,28.61s-16.5,19.1-24.45,15.47-11.08-17.59-5.52-29.77S93.46,73.44,101.41,77.07Z" fill="#fff"/><path d="M97.14,80.69l-6.56,19.93,1.85-1L83.19,97.5c-1.88-.42-2.68,2.47-.8,2.89l9.23,2.08a1.54,1.54,0,0,0,1.85-1L100,81.49c.6-1.84-2.29-2.63-2.89-.8Z" fill="#42210b"/><path d="M90.62,80.75A1.17,1.17,0,0,0,91,83.06,1.17,1.17,0,0,0,90.62,80.75Z" fill="#606060"/><path d="M93.12,115.85a1.17,1.17,0,0,0,.36,2.31A1.17,1.17,0,0,0,93.12,115.85Z" fill="#606060"/><path d="M105.93,94.09a1.17,1.17,0,0,0,.36,2.31A1.17,1.17,0,0,0,105.93,94.09Z" fill="#606060"/><path d="M77,102.16a1.17,1.17,0,0,0,.36,2.31A1.17,1.17,0,0,0,77,102.16Z" fill="#606060"/><path d="M92,101s-8.77-18-8.79-17.93-5.95,6.73-8.14,14.48Z" fill="#36b2bf" opacity="0.37"/><path d="M313.37,193.27a2.39,2.39,0,0,0,2.77-.67s.49-.09.49-2.22V91.75a6.05,6.05,0,0,0-2.16-4.46,71.33,71.33,0,0,0-7.55-4.62L197.32,19.4l-1.23-.63a1.94,1.94,0,0,0-2.44.63,3.93,3.93,0,0,0-.54,1.79c0,1,0,11,0,11v88.74a6.14,6.14,0,0,0,2,4.53Z" fill="#5f66fc"/><path d="M314.62,178.32V93.22c0-2.83-.39-4.41-2.57-5.59l-115.62-67A1.53,1.53,0,0,0,194,21.91l.28,87.51Z" fill="#68e1fd"/><path d="M201.83,100.26v.06a1.89,1.89,0,0,0,.94,1.63l19.28,11.13a1.5,1.5,0,0,0,2.26-1.3h0a2,2,0,0,0-1-1.73L204.1,99A1.51,1.51,0,0,0,201.83,100.26Z" fill="#fff"/><path d="M236.28,117.82v.06a1.89,1.89,0,0,0,.94,1.63l19.28,11.13a1.5,1.5,0,0,0,2.26-1.3h0a2,2,0,0,0-1-1.73l-19.21-11.1A1.51,1.51,0,0,0,236.28,117.82Z" fill="#fff"/><path d="M276.62,138.06v.06a1.89,1.89,0,0,0,.94,1.63l19.28,11.13a1.5,1.5,0,0,0,2.26-1.3h0a2,2,0,0,0-1-1.73l-19.21-11.1A1.51,1.51,0,0,0,276.62,138.06Z" fill="#fff"/><ellipse cx="218.71" cy="68.42" rx="14.44" ry="19.03" transform="translate(-10.4 73.44) rotate(-18.63)" fill="#fff"/><ellipse cx="218.71" cy="68.42" rx="14.44" ry="19.03" transform="translate(-10.4 73.44) rotate(-18.63)" fill="url(#_10_dpi_10_)"/><path d="M217.7,68.76l-2-18.95s-7.86-.58-10.71,8.29Z" fill="#fd7382"/><path d="M217.7,68.76S210,81.59,209.5,81,200.15,71.2,205,58.1Z" fill="#8787d1"/><ellipse cx="254.86" cy="87.38" rx="14.44" ry="19.03" transform="translate(-14.56 85.98) rotate(-18.63)" fill="#fff"/><ellipse cx="254.86" cy="87.38" rx="14.44" ry="19.03" transform="translate(-14.56 85.98) rotate(-18.63)" fill="url(#_10_dpi_10_3)"/><path d="M253.85,87.72,244.06,72s-2.87,3.5-2.87,5Z" fill="#fd7382"/><path d="M253.85,87.72s-7.69,12.83-8.19,12.22-9.35-9.78-4.47-22.88Z" fill="#8787d1"/><ellipse cx="292.83" cy="108.31" rx="14.44" ry="19.03" transform="translate(-19.25 99.21) rotate(-18.63)" fill="#fff"/><ellipse cx="292.83" cy="108.31" rx="14.44" ry="19.03" transform="translate(-19.25 99.21) rotate(-18.63)" fill="url(#_10_dpi_10_5)"/><path d="M291.82,108.65l-2-18.95S282,89.13,279.16,98Z" fill="#fd7382"/><path d="M291.82,108.65s-13.66,0-13.81-.77c-.64-3.41.3-8.51,1.15-9.89Z" fill="#8787d1"/><path d="M245.46,156.58q-3.27-1.66-6.44-3.5a25.75,25.75,0,0,0-1.25-2.37,3.29,3.29,0,0,0-3.38-1.8,1.14,1.14,0,0,0,.08,2.24l.18.21c-2.63.12-7.36.51-6.29,3.09a2,2,0,0,0-.27.26,1.66,1.66,0,0,0,.16,2.28,1.92,1.92,0,0,0,1.79.48,1.8,1.8,0,0,0,2.31.86l.64-.2a1,1,0,0,0,1.23,1.13l2.17-.42c4.92,1.57,7.37,2.14,9.22,3.4.77.52,0,.72,0,0a1,1,0,0,0-.24-1.48l-.21-.15a1,1,0,0,0,.18-1.52l-.26-.3A1.17,1.17,0,0,0,245.46,156.58Z" fill="#ff7d09"/><path d="M270.67,232.19l1.2,16.93-2.12,1.83-2.35-.61s.3-4.48-.52-5.46-2.24,3.88-3,3.86-10.4-2.59-10.53-3.76c-.18-1.56,2-3.35,6-2.36,4.4,1.07,5.17-3.89,5.87-8.65" fill="#9e005d"/><path d="M263.79,235.57s4.18,1.77,11.36-2.82c0,0-2.48-22.45-2.27-26.32s4.53-31.78-.8-37.94-14.9,53-14.45,53.37" fill="#68e1fd"/><path d="M267.27,245.53l-.4-.65a2.36,2.36,0,0,0-2.33-.56c-1.16.54-1,4.55-1,4.55l4-1.49A4.36,4.36,0,0,0,267.27,245.53Z" fill="#60003e"/><path d="M257.63,240.49l-.42,17-2.28,1.62-2.28-.83s.73-4.43,0-5.49-2.6,3.65-3.39,3.55-10.1-3.56-10.13-4.75c0-1.58,2.28-3.15,6.24-1.78,4.28,1.48,5.52-3.38,6.66-8.05" fill="#9e005d"/><path d="M253,253.44l-.34-.69a2.36,2.36,0,0,0-2.27-.77c-1.2.42-1.41,4.44-1.41,4.44l4.12-1.11A4.36,4.36,0,0,0,253,253.44Z" fill="#60003e"/><path d="M256.24,175.12s-7.1,19.15-8.71,27.44-1.67,39.39-1.1,40.23,7.48,2.31,12.13,2.23,4-36.76,4-36.76,12.68-32.13,9.29-35.65S256.24,175.12,256.24,175.12Z" fill="#68e1fd"/><path d="M256,175.48c6.44,2,14.63-.4,18.57-5.94-.74-9.06-2.3-24-4.62-26.29-3.36-3.25-10.65,1.37-13.28,5.9-1.36,2.34-3.93,10.67-3.93,10.67l-9.92-5.65-3,7.06s6.8,12.81,16,9.89Z" fill="#fd7382"/><path d="M262.16,158.85a.38.38,0,0,0-.76,0c0,2.88-.09,6-1.48,8.55a7.18,7.18,0,0,1-5.7,4c-.49,0-.49.78,0,.76a7.85,7.85,0,0,0,6.2-4.13C262,165.3,262.18,162,262.16,158.85Z" fill="#fff"/><path d="M258.69,126.78c-.52.11-1.36.94-2.62,3.9s1.75,6.73,3.06,7.52,3.21,3.87,3.21,3.87,4.81,1.17,8-4.73S266.5,125.07,258.69,126.78Z" fill="#ffb468"/><path d="M257.33,130.07s-2.42,9.85,1.15,12.1,8.39-3.72,8.85-6.11S265.18,128.51,257.33,130.07Z" fill="#ff7d09"/><path d="M257.33,130.07s-.6,6.44,2.73,7.85,3.4,3.43,3.4,3.43,6.1-3.26,6.73-6.14S262,127.49,257.33,130.07Z" fill="#ffb468"/><path d="M268.53,137.8c-1.21,9.64,1.22,22-2.79,31.05-.25.55-.78,3.07-1.19,3.06l9.73-5.3c3.9-2.42,6.74-4,5.35-10.1s-9.24-19.17-9.24-19.17Z" fill="#ffb468"/><path d="M253.68,155a74.33,74.33,0,0,0-1.44,7.76c-.06.48.7.48.76,0a72.45,72.45,0,0,1,1.41-7.56C254.54,154.72,253.8,154.51,253.68,155Z" fill="#fff"/><path d="M267.38,142.16l-.91-2a43.17,43.17,0,0,1-5.57,2.39c-2.29.7-1.65,3.34-1.65,3.34S264.58,145.94,267.38,142.16Z" fill="#fd7382"/><path d="M271.33,174.56c-.06-.64-1.06-.64-1,0,1,11.46-4,22-6.75,32.87-2.77,11.08-2.85,22.9-3.76,34.24-.05.64.95.64,1,0,.95-11.85,1-24.17,4.17-35.69C267.79,195.64,272.3,185.5,271.33,174.56Z" fill="#9e005d"/><polyline points="185.19 78.61 183.18 69.2 196.08 66.72 199.91 86.14 186.47 88.75" fill="#fd7382"/><path d="M180.91,85.2s.66-4,.92-5.05,2-3,2.84-3.69c1-.84,3.38-2.23,3.45-1.36s-2.42,3.44-2.42,3.44.81,4.06.28,6a9,9,0,0,1-1.53,3.13" fill="#ffac99"/><path d="M179.85,84.93c-1.92,2.24-5.19,7-5.19,7a77.7,77.7,0,0,1-4.81-10.74c-1.62-4.92-5.57-5-5.57-5L167,98.33a7.32,7.32,0,0,0,8.78,2.36c4.67-1.76,9.07-9.72,9.93-13.39A20.59,20.59,0,0,0,179.85,84.93Z" fill="#ffc36c"/><polyline points="167.95 141.28 164.69 173.28 157.38 168.54 157.19 131.57" fill="#ffac99"/><path d="M172,183c-.72-1.33-2.24-2.36-3.36-3.33a8,8,0,0,1-2.8-3.74c-.28-.79-.52-11-.27-11l-.16,0a8.58,8.58,0,0,1-8.32,1.57c-.38,5.28-.74,11.76-.44,12.19a9.43,9.43,0,0,0,2.74,1.63l0-6.06.9,5.83a3.65,3.65,0,0,0,.93,1.24,7.32,7.32,0,0,0,2.16,1.08,20.79,20.79,0,0,0,4.51,1.55c1.1.2,3.69.51,4.21-.86Z" fill="#d86044"/><polyline points="158.83 143.43 155.56 175.44 148.24 167.91 148.07 133.72" fill="#ffac99"/><path d="M156.89,167.93q.52-6,.89-12.07a25.39,25.39,0,0,0,9.89-4.11c2.42-10.57,1.13-42.41,1.13-42.41l-20.65,1.78c-5,14.69-.76,44.09-.76,44.09a20.87,20.87,0,0,0,9.37.81q-.34,5.57-.81,11.13a8.76,8.76,0,0,1-7.92.31c-.41,5.44-.85,12.9-.53,13.36a9.43,9.43,0,0,0,2.74,1.63l0-6.06.9,5.83a3.65,3.65,0,0,0,.93,1.24,7.32,7.32,0,0,0,2.16,1.08,20.79,20.79,0,0,0,4.51,1.55c1.1.2,3.69.51,4.21-.86l-.06-.12c-.72-1.33-2.24-2.36-3.36-3.33a8,8,0,0,1-2.8-3.74,88.55,88.55,0,0,1-.37-9.63A.52.52,0,0,0,156.89,167.93Z" fill="#d86044"/><path d="M168.83,89.46c-.24-6.4-.48-15.79-9.44-13.68a1.09,1.09,0,0,1-.58,0,18.73,18.73,0,0,0-7.14,5.32c-4.34,5.51-3.52,30-3.52,30a24.1,24.1,0,0,0,20.65-1.78C168.89,102.71,169.08,96.09,168.83,89.46Z" fill="#ffc36c"/><path d="M148.33,120.65s.78,6.63,0,7.94c-.37.58-.85-2.81-.85-2.81s-.69,4.2-1.22,4.9-3-1.15-3.43-3,2-8.09,2-8.09Z" fill="#ffac99"/><path d="M153.69,97.85c.33,4.15-3.56,23.55-3.56,23.55-3.11,1-6.34.11-7-.56s1.78-23.69,3.34-30.81,5.21-9,5.21-9" fill="#ffc36c"/><path d="M164.06,66.26s4,10.68-.35,12.82c-3.62,1.8-6.91-1.87-7.83-4.3-1.09-2.87.66-6.87,2.65-9.13C160.29,63.64,163,63.38,164.06,66.26Z" fill="#ffac99"/><path d="M160.94,62.09c-3.21-.28-6.19.62-8,3.27a17.8,17.8,0,0,0-3.24,10.75,5,5,0,0,0,2.68,4,5.75,5.75,0,0,0,1.17.51c1.45.44,3.65,1,5,0-1-2.82-.91-6.64.49-8.37,0,0-.21-2.19.21-1.87s-.1,1.94,1.13,1.87,4.59-.46,6.2-3C167.57,67.69,165.22,62.46,160.94,62.09Z" fill="#d86044"/><path d="M158.58,74.45s-.2-1.82-1.31-1.46-.43,2.76.94,3.34" fill="#ffac99"/><path d="M168.15,89.06a139.5,139.5,0,0,1,.65,20.28s-.85-9.82-.85-11.07S168.15,89.06,168.15,89.06Z" fill="#e09b41"/><polygon points="151.86 112.19 153.71 93.48 154.36 112.65 151.86 112.19" fill="#e09b41"/></g></g></svg>