<svg id="Layer_1" data-name="Layer 1" xmlns="http://www.w3.org/2000/svg" xmlns:xlink="http://www.w3.org/1999/xlink" viewBox="0 0 400 300"><defs><linearGradient id="linear-gradient" x1="203.81" y1="219.63" x2="270.17" y2="178.3" gradientUnits="userSpaceOnUse"><stop offset="0.01" stop-color="#39b54a" stop-opacity="0"/><stop offset="0.99" stop-color="#009245"/></linearGradient></defs><title>91-100</title><polygon points="50.62 171.19 229.47 274.69 363.71 197.57 186.86 95.47 50.62 171.19" fill="#94e155"/><path d="M223,177.34l-45.92,27.52a5,5,0,0,1,2.53,2.55c4.89,10.24,14.54,17.51,24,23.35,8,5,10.63,4.49,19.4,6,25.44-15.57,57.91-32.36,64.92-38.67l-.11-15.66Z" opacity="0.41" fill="url(#linear-gradient)"/><line x1="65.69" y1="178.16" x2="200.84" y2="101.12" fill="none" stroke="#fff" stroke-miterlimit="10" stroke-width="5"/><line x1="211.92" y1="264.41" x2="347.07" y2="187.36" fill="none" stroke="#fff" stroke-miterlimit="10" stroke-width="5"/><line x1="61.22" y1="177.77" x2="61.22" y2="105.2" fill="none" stroke="#754c24" stroke-miterlimit="10" stroke-width="3"/><line x1="230.03" y1="200.78" x2="230.03" y2="273.34" fill="none" stroke="#754c24" stroke-miterlimit="10" stroke-width="3"/><path d="M58.9,102.28l162.88,94v42.74L59,144.4Z" fill="none" stroke="#f2f2f2" stroke-miterlimit="10" stroke-width="2"/><path d="M70.56,109c.3.17,0,42.12,0,42.12" fill="none" stroke="#f2f2f2" stroke-miterlimit="10" stroke-width="2"/><path d="M84,117.08c.3.17,0,42.12,0,42.12" fill="none" stroke="#f2f2f2" stroke-miterlimit="10" stroke-width="2"/><path d="M98.9,126c.3.17,0,42.12,0,42.12" fill="none" stroke="#f2f2f2" stroke-miterlimit="10" stroke-width="2"/><path d="M112.36,134.1c.3.17,0,42.12,0,42.12" fill="none" stroke="#f2f2f2" stroke-miterlimit="10" stroke-width="2"/><path d="M126.46,141.93c.3.17,0,42.12,0,42.12" fill="none" stroke="#f2f2f2" stroke-miterlimit="10" stroke-width="2"/><path d="M139.93,150c.3.17,0,42.12,0,42.12" fill="none" stroke="#f2f2f2" stroke-miterlimit="10" stroke-width="2"/><path d="M155.77,158.64c.3.17,0,42.12,0,42.12" fill="none" stroke="#f2f2f2" stroke-miterlimit="10" stroke-width="2"/><path d="M169.23,166.71c.3.17,0,42.12,0,42.12" fill="none" stroke="#f2f2f2" stroke-miterlimit="10" stroke-width="2"/><path d="M182.3,174.41c.3.17,0,42.12,0,42.12" fill="none" stroke="#f2f2f2" stroke-miterlimit="10" stroke-width="2"/><line x1="195.34" y1="181.18" x2="195.34" y2="224.36" fill="none" stroke="#f2f2f2" stroke-miterlimit="10" stroke-width="2"/><path d="M209,189c.3.17,0,42.12,0,42.12" fill="none" stroke="#f2f2f2" stroke-miterlimit="10" stroke-width="2"/><line x1="58.9" y1="111.68" x2="219.98" y2="204.6" fill="none" stroke="#f2f2f2" stroke-miterlimit="10" stroke-width="2"/><line x1="58.9" y1="123.36" x2="219.98" y2="216.28" fill="none" stroke="#f2f2f2" stroke-miterlimit="10" stroke-width="2"/><line x1="58.9" y1="133.74" x2="219.98" y2="226.65" fill="none" stroke="#f2f2f2" stroke-miterlimit="10" stroke-width="2"/><path d="M172.78,120.83a7.25,7.25,0,0,0-3.95,1.09c-3,2.24-4.38,6.74-3.44,10.94.76,3.41,2.93,5.73,5.95,6.36,2.15.45,4.82-.26,5.57-2.23a12.8,12.8,0,0,0,.62-3.8,12,12,0,0,1,.91-4.57,8.11,8.11,0,0,1,5.92-4.4c.5-.07.93-.12,1.31-.15a12.44,12.44,0,0,0-6.24-5.51,10.86,10.86,0,0,1-5.05,2.1C173.86,120.74,173.31,120.79,172.78,120.83Z" fill="#68e1fd"/><path d="M179.22,129a11.14,11.14,0,0,0-.82,4.25,13.63,13.63,0,0,1-.68,4.05c-.77,2-3,2.92-5.08,2.92a7.2,7.2,0,0,1-1.47-.15c-3.36-.7-5.77-3.26-6.61-7-1-4.52.54-9.38,3.76-11.81a8,8,0,0,1,4.39-1.26c.51,0,1-.09,1.54-.17a10.36,10.36,0,0,0,4.2-1.6,12.41,12.41,0,1,0,7.65,6.69c-.42,0-.94.07-1.61.16A7.32,7.32,0,0,0,179.22,129Z" fill="#68e1fd"/><path d="M184.37,124.22a8.11,8.11,0,0,0-5.92,4.4,12,12,0,0,0-.91,4.57,12.8,12.8,0,0,1-.62,3.8c-.75,2-3.42,2.68-5.57,2.23-3-.63-5.18-2.95-5.95-6.36-.94-4.2.48-8.7,3.44-10.94a7.25,7.25,0,0,1,3.95-1.09c.53,0,1.07-.09,1.6-.18a10.86,10.86,0,0,0,5.05-2.1c-.32-.13-.65-.25-1-.35a10.36,10.36,0,0,1-4.2,1.6c-.5.08-1,.12-1.54.17a8,8,0,0,0-4.39,1.26c-3.23,2.44-4.77,7.29-3.76,11.81.84,3.75,3.25,6.31,6.61,7a7.2,7.2,0,0,0,1.47.15c2.11,0,4.31-.9,5.08-2.92a13.63,13.63,0,0,0,.68-4.05,11.14,11.14,0,0,1,.82-4.25,7.32,7.32,0,0,1,5.28-3.92c.66-.1,1.19-.14,1.61-.16q-.2-.43-.42-.84C185.31,124.1,184.88,124.14,184.37,124.22Z" fill="#fff"/><path d="M249,108.25c-.15,4.82,3.46,28.54,6.26,36.6s19.36,35.41,21.7,35.62,6.53-1.06,6.06-3.81-15.54-33.06-15.82-35.86.28-39.14-1.75-41.39S249.25,99.27,249,108.25Z" fill="#f18d69"/><path d="M282.12,174.32l3.53,7.84-.86,4.06-7.09-3.46-5-7.18S279.72,176.11,282.12,174.32Z" fill="#f18d69"/><path d="M228.77,68.53C226.91,71,222.28,78.79,217.48,81s-9,6.55-9.44,6.91-3.37,3-2.64,3.67,1.76.29,3.38-.89l.75-.72a5.94,5.94,0,0,0,5.77-1.64s1.47,0,1.5-.2,17.45-11.9,18.66-14.85,3.44-18.16,3.44-18.16-3.7-5-6.31-4.41S228.77,68.53,228.77,68.53Z" fill="#f18d69"/><path d="M234.58,102.49c-.8,2.08-5.16,25.6-6,29.06-1.11,4.45-7,45.81-5.3,46.81s-.16,5.81,4.44,0,17.07-50,18.47-52.41,10.44-29.59,10.44-29.59" fill="#f18d69"/><path d="M278.75,183.42s-1.73-2.86-.73-3.73,5.26-1.8,5.73-1.07,0,4.46.33,4.4a2.8,2.8,0,0,0,1-2.13,20.84,20.84,0,0,1,1.8,5.19c.27,2.13-.07,2.8.73,5.26s.87,4.53.27,5.59-7.13,1.4-8.32.87-1.8-3.2-1.53-4.2-.29-5.93-.31-6.73,0-4.13,0-4.13Z" fill="#68e1fd"/><path d="M241.48,78.13s-14.32,42.22-15.41,66c0,0,7.08,5.87,14.51,3l8.26-27.07s3.33,19.34,5.74,24.76a79.33,79.33,0,0,0,6.14,10.83s7.89.8,11.14-4c0,0-3.69-12-3.47-15.45s1.35-38.21-6.55-49.34A21.21,21.21,0,0,0,241.48,78.13Z" fill="#68e1fd"/><path d="M261.21,75.45c0-.07,0-.13,0-.17-.44-5.9,1.37-15-2-20.24-3.8-5.91-16.5-8.06-22.79-6.29a16,16,0,0,0-2.22.77c-4.32,2-4.23,15.6-4.71,16.86l12,11.74L239,86.71c9.2,7.66,19.66,5,24.39,3.12C263.68,89.71,261.45,77.46,261.21,75.45Z" fill="#e96968"/><path d="M277.45,55.79A15.31,15.31,0,0,0,281,53.36c2.14-1.87,4.54-3.47,6.46-5.58a.39.39,0,0,0,.12-.21.38.38,0,0,0-.11-.26,7.17,7.17,0,0,0-4.84-2.39c-1.77-.26-4.13.16-5.78-.54a1.86,1.86,0,0,1-1.06-1.77,13.68,13.68,0,0,1,.09-1.58A8.36,8.36,0,0,0,274,34.94c-2.11-2.23-5.25-1-7.7,0-2.28.9-5.22,1.92-7.44.36a6.43,6.43,0,0,1-2-3.07,10.82,10.82,0,0,0-2.43-3.44c-3.83-3.57-10.1,3.33-10.1,3.33l1.2,1.1c3.27-1.31,6-.4,7.48,2.78s1.6,7.73,5.61,8.81a11,11,0,0,0,4,.15c2.13-.22,5.12-1,7.08.23a4.37,4.37,0,0,1,1.61,2.15,23.37,23.37,0,0,1,1.08,4.19c.21,1.12.2,2.69.93,3.61C274.4,56.58,276,56.46,277.45,55.79Z" fill="#842626"/><path d="M201.32,91.63c0-.21-2.75.77-5.09-.27s-11.51-6.15-18.36-5-9.62,5.55-8.23,10.49,6.91,10.1,12.6,11.12,11.41-1.76,13.32-5.6,2.29-7,6-8.45" fill="#912c31"/><path d="M195.35,93.14l-.1,0a18.82,18.82,0,0,1,1.3,3.87,15.2,15.2,0,0,1,4.59-3.87l0-.35A16.25,16.25,0,0,1,195.35,93.14Z" fill="#fff"/><path d="M200.73,91.21a3.23,3.23,0,0,0,.32,3.35c1.2,2,16.1-2.24,16.1-2.24s2-4-.48-5S200.73,91.21,200.73,91.21Z" fill="#febd59"/><path d="M193.07,103.93a6.26,6.26,0,0,0,2-3.92c.44-4.3-2.46-8.37-6.1-10.33A17.15,17.15,0,0,0,178.05,88a16,16,0,0,0-2.74.72c-2.29.83-4.46,2.79-4.52,5.41-.07,3,1.81,5.81,3.76,7.88C179.22,107,187.69,109.1,193.07,103.93Z" fill="#fff"/><path d="M216.74,91.73a17.68,17.68,0,0,1-2.76.16,1,1,0,0,1-.32-.19.35.35,0,0,0-.24-.1,4.23,4.23,0,0,0-.38-.26c-.39-.24-1.09-.33-1.34.17a.55.55,0,0,0-.05.19,1.55,1.55,0,0,0-1.47-.57c-.58.2-.44.76-.05,1.38-.26-.2-.51-.4-.78-.59-.45-.31-1.11-.36-1.34.24s.36,1.23.76,1.62a3.09,3.09,0,0,0,.91.57,6.11,6.11,0,0,0,3.83.83.42.42,0,0,0,.27-.16,1.77,1.77,0,0,0,1.25-.17.53.53,0,0,0,.22-.44l.33-.19c.41-.07.94-.22.93-.68a.47.47,0,0,0,0-.11,3.88,3.88,0,0,0,.67-1.14A.42.42,0,0,0,216.74,91.73Z" fill="#f18d69"/><path d="M235.49,42.6a7.94,7.94,0,0,1,.24-9.66c3.81-5.28,13.31-2,14.24,4.65s-3.7,9.89-5.87,10" fill="#842626"/><path d="M234.58,40c.2.87,3.15,11.77,9.27,10.37,6.78-1.55,3.2-16.86-3-16.9S234.19,38.37,234.58,40Z" fill="#ffb087"/><path d="M234.7,41.61c.06.21-.93-3.45,2.16-4.38s4-.79,4.74.86a3,3,0,0,0,3.59,1.72c.86-.43,2-1.72,2.32.43s-1.1,2.95-1,3.16l1.34,2s2.75-5.07,1.67-7-5.82-6.9-9.84-6.54S233,35.57,234.7,41.61Z" fill="#842626"/><path d="M239.48,76.55c-2.59,1.75-9.51,7.54-14.78,8.07S214,87.82,213.52,88s-4.16,1.69-3.7,2.59,1.56.86,3.49.27l.94-.44a5.94,5.94,0,0,0,6,.35s1.38.51,1.48.31,20.4-5.47,22.51-7.85,9.24-16,9.24-16-1.86-5.9-4.5-6.25S239.48,76.55,239.48,76.55Z" fill="#f18d69"/><path d="M223.13,173.06c-.14-.77-1-4.48-.15-4.39s5.16.08,5.23,1.23-1,2.78,0,2.77,2.47-3.41,3.12-2.17,2.26,9.86,1.19,11.55-2.69,1.69-4.46,2.15-.92,2.77-4,3.54-9.69,0-10.61-1.08-.15-3,.69-3.54,6.07-3.07,6.84-4.77S223.13,173.06,223.13,173.06Z" fill="#68e1fd"/></svg>