<svg xmlns="http://www.w3.org/2000/svg" xmlns:xlink="http://www.w3.org/1999/xlink" viewBox="0 0 400 300"><defs><linearGradient id="linear-gradient" x1="83.53" y1="178.69" x2="70.55" y2="191.02" gradientUnits="userSpaceOnUse"><stop offset="0" stop-color="#00a99d"/><stop offset="1" stop-color="#fff"/></linearGradient><linearGradient id="linear-gradient-2" x1="113.31" y1="161.75" x2="104.14" y2="170.46" xlink:href="#linear-gradient"/><linearGradient id="linear-gradient-3" x1="302.5" y1="193.9" x2="296.1" y2="199.98" xlink:href="#linear-gradient"/></defs><title>PP</title><g style="isolation:isolate"><g id="Layer_2" data-name="Layer 2"><path d="M185.93,290.51,13.43,188.56c-5.49-3.08-10.2-8.15-4.85-11.46L181.71,77.32c2.6-1.61,6.54-2.66,9.18-1.13L372,181.28c5.49,3.19,6.48,12.1,1,15.29L208.67,290.35A22.94,22.94,0,0,1,185.93,290.51Z" fill="#5297a4"/><polygon points="134.03 115.39 25.32 181.63 94.77 226.05 343.06 201.19 362.65 189.69 248.56 126.88 134.03 115.39" fill="#80ad1f"/><path d="M190.53,85.68c-12.65-5.73-25.71,2.76-38.72,13.34-14.5,11-37.46,32.92-42.94,44.63,8,1.47,35.17,15,42.94,14.59a290.48,290.48,0,0,0,45.88-6.55l68.56-16.48S209.66,94.35,190.53,85.68Z" fill="#8cb739"/><polygon points="166.16 70 183.96 60.23 188.36 59.05 191.35 61.42 210.28 71.3 196.71 81.55 186.07 83.76 179.06 81.22 172.08 76.13 166.16 70" fill="#ffe7d4"/><polygon points="171.63 75.55 186.81 66.63 203.57 75.38 193.23 81.55 188.59 82.62 183.49 81.86 171.63 75.55" fill="#eabc9d"/><polygon points="172.62 76.49 186.81 68.35 203.57 77.09 193.23 83.27 188.59 84.34 183.49 83.58 172.62 76.49" fill="#dda37c"/><polygon points="172.08 64.38 176.43 66.79 181.75 64.07 177.19 61.42 172.08 64.38" fill="#175660"/><path d="M172.08,64.38v2.94l4.3,2.36s0-2.89,0-2.89S172.08,64.38,172.08,64.38Z" fill="#eabc9d"/><polygon points="176.38 69.69 181.75 66.79 181.75 64.07 176.38 66.79 176.38 69.69" fill="#eabc9d"/><polygon points="181.85 59.05 186.12 61.42 191.35 58.75 186.87 56.15 181.85 59.05" fill="#175660"/><path d="M181.85,59.05v2.89l4.22,2.32s0-2.85,0-2.85S181.85,59.05,181.85,59.05Z" fill="#eabc9d"/><polygon points="186.07 64.27 191.35 61.42 191.35 58.75 186.07 61.42 186.07 64.27" fill="#eabc9d"/><polygon points="201.01 63.74 196.67 66.15 191.35 63.43 195.9 60.78 201.01 63.74" fill="#175660"/><path d="M201,63.74v2.94L196.71,69s0-2.89,0-2.89S201,63.74,201,63.74Z" fill="#eabc9d"/><polygon points="196.71 69.05 191.35 66.15 191.35 63.43 196.71 66.15 196.71 69.05" fill="#eabc9d"/><polygon points="174.07 65.65 176 66.61 176 76.93 187.41 83.47 199.53 76.68 199.53 68.55 182.41 62.36 174.07 65.65" fill="#68e1fd"/><polygon points="176 76.93 187.41 83.47 187.29 70.78 181.78 62.72 174.07 65.65 176 66.61 176 76.93" fill="#68e1fd"/><polygon points="176 76.93 187.41 83.47 187.29 70.78 181.78 62.72 174.07 65.65 176 66.61 176 76.93" fill="#153e42" opacity="0.27"/><path d="M193.67,55.9s-3.82,3.34-7.73,3l-11.86,6.73,7.71-2.93Z" fill="#175660"/><path d="M189.64,74.16s-5.68-5.35-7.85-11.45l11.88-6.82s3.93,7.7,7.85,11.52Z" fill="#ffe7d4"/><polygon points="161.47 70.56 166.72 73.62 166.72 76.34 172 79.4 172 76.76 177.53 79.82 177.53 82.54 182.81 85.6 182.81 82.61 188.38 85.76 192.62 83.37 192.62 85.76 198.47 82.58 198.47 80.03 203.69 77.19 203.69 79.76 208.73 76.92 208.73 74.36 213.96 71.53 213.96 104.69 188.69 118.49 161.47 103.56 161.47 70.56" fill="#68e1fd"/><path d="M190.07,103.07V95.85c0-.12.54-3.46,2.83-4.54s3.54.21,3.67.79,0,7.29,0,7.29Z" fill="#175660"/><path d="M197.9,99V91.8c0-.12.54-3.46,2.83-4.54s3.54.21,3.67.79,0,7.29,0,7.29Z" fill="#175660"/><path d="M205.9,95V87.77c0-.12.54-3.46,2.83-4.54s3.54.21,3.67.79,0,7.29,0,7.29Z" fill="#175660"/><path d="M185.27,102.21V95c0-.12-.54-3.46-2.83-4.54s-3.54.21-3.67.79,0,7.29,0,7.29Z" fill="#175660"/><path d="M177.43,98.15V90.94c0-.12-.54-3.46-2.83-4.54s-3.54.21-3.67.79,0,7.29,0,7.29Z" fill="#175660"/><path d="M169.44,94.13V86.91c0-.12-.54-3.46-2.83-4.54s-3.54.21-3.67.79,0,7.29,0,7.29Z" fill="#175660"/><polygon points="161.47 70.56 165.53 68.31 170.82 71.3 166.72 73.62 161.47 70.56" fill="#175660"/><polygon points="166.76 76.34 170.82 74.09 176.11 77.08 172 79.4 166.76 76.34" fill="#175660"/><polygon points="166.72 73.62 166.72 76.34 170.82 74.09 170.82 71.3 166.72 73.62" fill="#eabc9d"/><polygon points="172.28 76.76 176.35 74.51 181.64 77.5 177.53 79.82 172.28 76.76" fill="#175660"/><polygon points="177.57 82.54 181.63 80.29 186.92 83.28 182.81 85.6 177.57 82.54" fill="#175660"/><polygon points="177.53 79.82 177.53 82.54 181.63 80.29 181.63 77.5 177.53 79.82" fill="#eabc9d"/><path d="M192.72,85.76c.07,0,5.74-3.18,5.74-3.18l-3.91-2.29-3.7,2.08Z" fill="#175660"/><polygon points="182.98 82.61 187.16 80.29 192.62 83.37 188.38 85.76 182.98 82.61" fill="#175660"/><polygon points="194.55 80.29 194.55 77.85 198.47 80.03 198.47 82.58 194.55 80.29" fill="#eabc9d"/><polygon points="194.55 77.85 199.68 75.04 203.69 77.19 198.47 80.03 194.55 77.85" fill="#175660"/><polygon points="199.6 77.58 204.82 74.63 208.74 76.92 203.51 79.76 199.6 77.58" fill="#175660"/><polygon points="204.82 74.63 204.82 72.19 208.73 74.36 208.73 76.92 204.82 74.63" fill="#eabc9d"/><polygon points="204.82 72.18 209.95 69.37 213.96 71.53 208.73 74.36 204.82 72.18" fill="#175660"/><path d="M226.72,118.34l-16.9,11.31s-15.29-11.32-16.24-16.51a36.32,36.32,0,0,0-1.7-6.9l16.91-8.19Z" fill="#ffe7d4"/><path d="M189.7,98.36l1.3-.65s3.71,18.55,21.21,27l.39,11.75-13.7-13.86-7-11.07Z" fill="#ffe7d4"/><path d="M189.7,98.36c.19.56,4.82,19.18,21.88,27.35v13S193.24,129,189.7,115.29Z" fill="#68e1fd"/><path d="M189.7,98.36c.19.56,4.82,19.18,21.88,27.35v13S193.24,129,189.7,115.29Z" fill="#153e42" opacity="0.27"/><path d="M208,84.37l1.3-.65s9.08,17.26,26.57,25.75l-5,13-13.7-13.86-7-11.07Z" fill="#ffe7d4"/><path d="M208,84.37c.19.56,10.21,18,27.27,26.13l1.63,12.66s-25-12.47-28-23.08Z" fill="#68e1fd"/><path d="M208,84.37c.19.56,10.21,18,27.27,26.13l1.63,12.66s-25-12.47-28-23.08Z" fill="#153e42" opacity="0.27"/><path d="M94.77,226c.86-1,45.51-64.24,62.38-67.12s75.42-30.28,99.89-18.32,86,60.59,86,60.59-122.78,76.64-144.67,79.61S94.77,226,94.77,226Z" fill="#94c14c"/><polygon points="208.56 113.47 232.53 100.31 238.45 98.72 242.47 101.91 267.96 115.21 249.7 129.02 235.37 131.99 225.94 128.57 216.54 121.71 208.56 113.47" fill="#ffe7d4"/><polygon points="215.93 120.93 236.36 108.92 258.94 120.7 245 129.01 238.77 130.46 231.9 129.43 215.93 120.93" fill="#dda37c"/><polygon points="217.26 122.2 236.36 111.24 258.94 123.02 245 131.33 238.77 132.77 231.9 131.74 217.26 122.2" fill="#eabc9d"/><polygon points="216.54 105.9 222.38 109.14 229.55 105.48 223.41 101.91 216.54 105.9" fill="#175660"/><path d="M216.54,105.9v4l5.79,3.18s-.06-3.9,0-3.9S216.54,105.9,216.54,105.9Z" fill="#dda37c"/><polygon points="222.32 113.04 229.55 109.14 229.55 105.48 222.32 109.14 222.32 113.04" fill="#eabc9d"/><polygon points="229.69 98.72 235.43 101.91 242.47 98.31 236.44 94.81 229.69 98.72" fill="#175660"/><path d="M229.69,98.72v3.89l5.69,3.13s-.06-3.83,0-3.83S229.69,98.72,229.69,98.72Z" fill="#dda37c"/><polygon points="235.37 105.75 242.47 101.91 242.47 98.31 235.37 101.91 235.37 105.75" fill="#eabc9d"/><polygon points="255.48 105.04 249.64 108.28 242.47 104.62 248.61 101.06 255.48 105.04" fill="#175660"/><path d="M255.48,105v4l-5.79,3.18s.06-3.9,0-3.9S255.48,105,255.48,105Z" fill="#eabc9d"/><polygon points="249.7 112.18 242.47 108.28 242.47 104.62 249.7 108.28 249.7 112.18" fill="#dda37c"/><polygon points="202.25 114.22 209.31 118.34 209.31 122 216.43 126.12 216.43 122.56 223.87 126.68 223.87 130.35 230.99 134.47 230.99 130.44 238.48 134.69 244.18 131.47 244.18 134.69 252.06 130.4 252.06 126.96 259.09 123.14 259.09 126.6 265.88 122.78 265.88 119.34 272.92 115.52 272.92 160.17 238.9 178.75 202.25 158.65 202.25 114.22" fill="#68e1fd"/><path d="M240.75,158v-9.72c0-.17.73-4.65,3.81-6.11s4.77.28,4.94,1.07,0,9.81,0,9.81Z" fill="#175660"/><path d="M251.3,152.53v-9.72c0-.17.73-4.65,3.81-6.11s4.77.28,4.94,1.07,0,9.81,0,9.81Z" fill="#175660"/><path d="M262.06,147.11v-9.72c0-.17.73-4.65,3.81-6.11s4.77.28,4.94,1.07,0,9.81,0,9.81Z" fill="#175660"/><path d="M234.29,156.83v-9.72c0-.17-.73-4.65-3.81-6.11s-4.77.28-4.94,1.07,0,9.81,0,9.81Z" fill="#175660"/><path d="M223.74,151.37v-9.72c0-.17-.73-4.65-3.81-6.11s-4.77.28-4.94,1.07,0,9.81,0,9.81Z" fill="#175660"/><path d="M213,146v-9.72c0-.17-.73-4.65-3.81-6.11s-4.77.28-4.94,1.07,0,9.81,0,9.81Z" fill="#175660"/><polygon points="202.25 114.22 207.72 111.19 214.84 115.21 209.31 118.34 202.25 114.22" fill="#175660"/><polygon points="209.37 122 214.83 118.97 221.96 123 216.43 126.12 209.37 122" fill="#175660"/><polygon points="209.31 118.34 209.31 122 214.83 118.97 214.83 115.21 209.31 118.34" fill="#dda37c"/><polygon points="216.81 122.56 222.28 119.53 229.4 123.56 223.87 126.68 216.81 122.56" fill="#175660"/><polygon points="223.93 130.35 229.39 127.31 236.52 131.34 230.99 134.47 223.93 130.35" fill="#175660"/><polygon points="223.87 126.68 223.87 130.35 229.39 127.31 229.39 123.56 223.87 126.68" fill="#dda37c"/><path d="M244.33,134.69c.09,0,7.73-4.29,7.73-4.29l-5.27-3.09-5,2.81Z" fill="#175660"/><polygon points="231.2 130.44 236.84 127.31 244.18 131.47 238.48 134.69 231.2 130.44" fill="#175660"/><polygon points="246.79 127.31 246.79 124.03 252.06 126.96 252.06 130.4 246.79 127.31" fill="#dda37c"/><polygon points="246.79 124.03 253.7 120.24 259.09 123.14 252.06 126.96 246.79 124.03" fill="#175660"/><polygon points="253.58 123.67 260.61 119.69 265.89 122.78 258.85 126.6 253.58 123.67" fill="#175660"/><polygon points="260.61 119.69 260.61 116.41 265.88 119.34 265.88 122.78 260.61 119.69" fill="#dda37c"/><polygon points="260.61 116.4 267.52 112.62 272.92 115.52 265.88 119.34 260.61 116.4" fill="#175660"/><path d="M85.24,185.12l-2.66-3.43-20.28,9.12c2,1,4.86,2.76,7.64,4.38C75.43,192.39,80.16,188.63,85.24,185.12Z" opacity="0.68" fill="url(#linear-gradient)" style="mix-blend-mode:multiply"/><rect x="80.43" y="152.38" width="5" height="33.14" rx="2.01" ry="2.01" fill="#bc532a"/><path d="M95.27,159.16c-1.15-5-6.27-27-15.35-20.56-4.65,3.32-6,8.5-7.82,13.58a40.43,40.43,0,0,0-2.89,13.13c-.15,9.17,9.18,10.29,16.32,10.26,4.12,0,10-2.45,10.95-6.92.58-2.69-.41-5.87-1-8.51Z" fill="#2c9135"/><path d="M95.71,160.13l-.22-1c-1-4.42-5.14-22.17-12.36-21.73,2.14,9.35,5.3,19.24,3.62,28.81a21.89,21.89,0,0,1-3.82,9.27c1,0,1.9.06,2.82.06,4.12,0,10-2.45,10.95-6.92C97.27,165.95,96.29,162.77,95.71,160.13Z" fill="#156819"/><path d="M114.52,166.29l-1.88-2.42-14.33,6.44c1.4.72,3.43,1.95,5.4,3.1C107.59,171.43,110.93,168.77,114.52,166.29Z" opacity="0.68" fill="url(#linear-gradient-2)" style="mix-blend-mode:multiply"/><rect x="111.12" y="143.17" width="3.53" height="23.41" rx="1.77" ry="1.77" fill="#bc532a"/><path d="M121.6,148c-.81-3.53-4.43-19.1-10.84-14.52-3.28,2.34-4.21,6-5.53,9.59a28.56,28.56,0,0,0-2,9.27c-.1,6.48,6.48,7.27,11.53,7.24,2.91,0,7.05-1.73,7.73-4.88.41-1.9-.29-4.15-.69-6Z" fill="#2c9135"/><path d="M121.91,148.64l-.15-.69c-.72-3.12-3.63-15.66-8.73-15.35,1.51,6.61,3.75,13.59,2.55,20.35a15.46,15.46,0,0,1-2.7,6.55c.68,0,1.35,0,2,0,2.91,0,7.05-1.73,7.73-4.88C123,152.75,122.32,150.51,121.91,148.64Z" fill="#156819"/><path d="M303.34,197.07,302,195.38l-10,4.5c1,.5,2.4,1.36,3.77,2.16A68.2,68.2,0,0,0,303.34,197.07Z" opacity="0.68" fill="url(#linear-gradient-3)" style="mix-blend-mode:multiply"/><rect x="300.97" y="180.93" width="2.46" height="16.33" rx="1.23" ry="1.23" fill="#bc532a"/><path d="M308.29,184.28c-.57-2.46-3.09-13.33-7.56-10.13-2.29,1.64-2.94,4.19-3.86,6.69a19.93,19.93,0,0,0-1.42,6.47c-.07,4.52,4.52,5.07,8,5.06,2,0,4.92-1.21,5.4-3.41a10.56,10.56,0,0,0-.48-4.2Z" fill="#2c9135"/><path d="M308.5,184.76l-.11-.48c-.5-2.18-2.53-10.92-6.09-10.71,1.06,4.61,2.61,9.48,1.78,14.2a10.79,10.79,0,0,1-1.88,4.57c.47,0,.94,0,1.39,0,2,0,4.92-1.21,5.4-3.41A10.56,10.56,0,0,0,308.5,184.76Z" fill="#156819"/><path d="M185.76,180.53,208,195.38s20.07-14.86,21.31-21.67,2.23-9.05,2.23-9.05l-22.2-10.75Z" fill="#ffe7d4"/><path d="M234.36,154.29l-1.71-.85s-4.87,24.35-27.84,35.5l-.52,15.42,18-18.19,9.16-14.53Z" fill="#ffe7d4"/><path d="M234.36,154.29c-.24.73-6.33,25.18-28.72,35.9v17.13s24.08-12.86,28.72-30.81Z" fill="#68e1fd"/><path d="M234.36,154.29c-.24.73-6.33,25.18-28.72,35.9v17.13s24.08-12.86,28.72-30.81Z" fill="#153e42" opacity="0.27"/><path d="M210.39,135.94l-1.71-.85s-11.91,22.66-34.89,33.81L180.32,186l18-18.19,9.16-14.53Z" fill="#ffe7d4"/><path d="M210.39,135.94c-.24.73-13.41,23.58-35.8,34.3l-2.14,16.62s32.85-16.37,36.76-30.29Z" fill="#68e1fd"/><path d="M210.39,135.94c-.24.73-13.41,23.58-35.8,34.3l-2.14,16.62s32.85-16.37,36.76-30.29Z" fill="#153e42" opacity="0.27"/><polygon points="136.7 186.38 163.74 171.53 170.41 169.75 174.95 173.35 203.71 188.35 183.1 203.92 166.94 207.27 156.3 203.42 145.69 195.68 136.7 186.38" fill="#ffe7d4"/><polygon points="145.01 194.8 168.06 181.25 193.52 194.54 177.81 203.92 170.77 205.54 163.02 204.38 145.01 194.8" fill="#eabc9d"/><polygon points="146.51 196.23 168.06 183.86 193.52 197.15 177.81 206.53 170.77 208.15 163.02 206.99 146.51 196.23" fill="#dda37c"/><polygon points="145.69 177.84 152.29 181.5 160.37 177.37 153.45 173.35 145.69 177.84" fill="#175660"/><path d="M145.69,177.84v4.47l6.53,3.59s-.07-4.4,0-4.4S145.69,177.84,145.69,177.84Z" fill="#eabc9d"/><polygon points="152.22 185.9 160.37 181.5 160.37 177.37 152.22 181.5 152.22 185.9" fill="#eabc9d"/><polygon points="160.53 169.75 167.01 173.35 174.95 169.28 168.15 165.33 160.53 169.75" fill="#175660"/><path d="M160.53,169.75v4.39l6.42,3.53s-.07-4.32,0-4.32S160.53,169.75,160.53,169.75Z" fill="#eabc9d"/><polygon points="166.94 177.67 174.95 173.35 174.95 169.28 166.94 173.35 166.94 177.67" fill="#eabc9d"/><polygon points="189.63 176.87 183.03 180.53 174.95 176.4 181.88 172.38 189.63 176.87" fill="#175660"/><path d="M189.63,176.87v4.47l-6.53,3.59s.07-4.4,0-4.4S189.63,176.87,189.63,176.87Z" fill="#eabc9d"/><polygon points="183.1 184.93 174.95 180.53 174.95 176.4 183.1 180.53 183.1 184.93" fill="#eabc9d"/><polygon points="129.58 187.23 137.54 191.87 137.54 196.01 145.57 200.65 145.57 196.64 153.97 201.28 153.97 205.42 162 210.07 162 205.53 170.45 210.31 176.88 206.68 176.88 210.31 185.76 205.48 185.76 201.6 193.7 197.3 193.7 201.19 201.36 196.88 201.36 193 209.3 188.69 209.3 239.07 170.92 260.02 129.58 237.34 129.58 187.23" fill="#68e1fd"/><path d="M173,236.6v-11c0-.19.82-5.25,4.3-6.9s5.38.32,5.57,1.2,0,11.07,0,11.07Z" fill="#175660"/><path d="M184.91,230.44v-11c0-.19.82-5.25,4.3-6.9s5.38.32,5.57,1.2,0,11.07,0,11.07Z" fill="#175660"/><path d="M197.05,224.33v-11c0-.19.82-5.25,4.3-6.9s5.38.32,5.57,1.2,0,11.07,0,11.07Z" fill="#175660"/><path d="M165.72,235.3v-11c0-.19-.82-5.25-4.3-6.9s-5.38.32-5.57,1.2,0,11.07,0,11.07Z" fill="#175660"/><path d="M153.82,229.14v-11c0-.19-.82-5.25-4.3-6.9s-5.38.32-5.57,1.2,0,11.07,0,11.07Z" fill="#175660"/><path d="M141.68,223v-11c0-.19-.82-5.25-4.3-6.9s-5.38.32-5.57,1.2,0,11.07,0,11.07Z" fill="#175660"/><polygon points="129.58 187.23 135.75 183.8 143.78 188.35 137.54 191.87 129.58 187.23" fill="#175660"/><polygon points="137.6 196.01 143.78 192.59 151.81 197.13 145.57 200.65 137.6 196.01" fill="#175660"/><polygon points="137.54 191.87 137.54 196.01 143.78 192.59 143.78 188.35 137.54 191.87" fill="#eabc9d"/><polygon points="146 196.64 152.17 193.22 160.21 197.76 153.97 201.28 146 196.64" fill="#175660"/><polygon points="154.03 205.42 160.2 202 168.23 206.54 162 210.07 154.03 205.42" fill="#175660"/><polygon points="153.97 201.28 153.97 205.42 160.2 202 160.2 197.76 153.97 201.28" fill="#eabc9d"/><path d="M177,210.32c.11,0,8.72-4.83,8.72-4.83L179.82,202l-5.62,3.16Z" fill="#175660"/><polygon points="162.24 205.53 168.6 202 176.88 206.68 170.45 210.31 162.24 205.53" fill="#175660"/><polygon points="179.82 202 179.82 198.29 185.76 201.6 185.76 205.48 179.82 202" fill="#eabc9d"/><polygon points="179.82 198.29 187.62 194.02 193.7 197.3 185.76 201.6 179.82 198.29" fill="#175660"/><polygon points="187.49 197.88 195.42 193.4 201.37 196.89 193.43 201.19 187.49 197.88" fill="#175660"/><polygon points="195.42 193.4 195.42 189.69 201.36 193 201.36 196.88 195.42 193.4" fill="#eabc9d"/><polygon points="195.42 189.69 203.21 185.42 209.3 188.69 201.36 193 195.42 189.69" fill="#175660"/><polygon points="146.17 174.09 149.43 175.72 149.43 193.22 168.78 204.31 189.32 192.78 189.32 179 160.3 168.52 146.17 174.09" fill="#68e1fd"/><polygon points="149.43 193.22 168.78 204.31 168.58 182.79 159.25 169.12 146.17 174.09 149.43 175.72 149.43 193.22" fill="#68e1fd"/><polygon points="149.43 193.22 168.78 204.31 168.58 182.79 159.25 169.12 146.17 174.09 149.43 175.72 149.43 193.22" fill="#153e42" opacity="0.27"/><path d="M179.39,157.56s-6.48,5.66-13.11,5.11l-20.11,11.41,13.07-5Z" fill="#175660"/><path d="M172.56,188.52s-9.63-9.07-13.31-19.4l20.14-11.56s6.65,13,13.31,19.53Z" fill="#ffe7d4"/></g></g></svg>