<svg id="Layer_2" data-name="Layer 2" xmlns="http://www.w3.org/2000/svg" xmlns:xlink="http://www.w3.org/1999/xlink" viewBox="0 0 400 300"><defs><linearGradient id="linear-gradient" x1="132.41" y1="213.63" x2="179.47" y2="161.21" gradientUnits="userSpaceOnUse"><stop offset="0.01" stop-color="#f2f2f2"/><stop offset="1" stop-color="#6a6a6a"/></linearGradient></defs><title>PP</title><path d="M190.07,294.21,17.57,192.26c-5.49-3.08-10.2-8.15-4.85-11.46L185.85,81c2.6-1.61,6.54-2.66,9.18-1.13L376.1,185c5.49,3.19,6.48,12.1,1,15.29L212.81,294A22.94,22.94,0,0,1,190.07,294.21Z" fill="#96cf40"/><path d="M334.44,172.35,161.36,272.51a11.57,11.57,0,0,1-11.56,0L25,196.64l173.22-100Z" fill="#f2f2f2"/><path d="M214.11,205.55c-3.66-8.75-8.73-16.8-13.67-24.86a461.74,461.74,0,0,0-28.69-41.77L50,211.33c10.13,6.43,70.65,44.69,81.12,50.53l86-48.57C216.17,210.7,215.18,208.11,214.11,205.55Z" fill="url(#linear-gradient)"/><path d="M339.9,94.91V71.64a7.86,7.86,0,0,0-3.9-6.79L237.25,7.24A7.86,7.86,0,0,0,225.43,14V58.41l0,0V81.69a7.86,7.86,0,0,0,3.92,6.8l98.75,57.28a7.86,7.86,0,0,0,11.81-6.8v-44Z" fill="#68e1fd"/><polyline points="190.19 146.85 212.25 160.49 212.53 166.2 189.26 150.84" fill="#e27623"/><path d="M189.9,137.56,178.11,170.9l1.66,1.12a10.77,10.77,0,0,0,1.35-.71c.53-.35,14.72-34.88,14.72-34.88" fill="#e27623"/><polyline points="212.11 132.44 217.15 152.97 213.8 193.09 212.29 193.94 210.39 192.56 211.68 152.56 207.27 132.1" fill="#e27623"/><path d="M187,128.27s-1,4.4.34,7,5.85-3.29,5.85-3.29" fill="#ffb469"/><polyline points="210.03 105.48 207.99 121.69 212.1 124.19 214.1 106.81" fill="#ca6b00"/><polyline points="235.98 119.32 237.31 141.51 237.95 174.05 236.01 175.03 234.25 173.74 232.34 141.67 231.13 118.98" fill="#e27623"/><path d="M232.89,121.86c1.18.45,3.88-1.26,4.74-2.42,4.69-6.35,4.1-15.46-3.22-20.19-3.24-2.1-6.59-4.19-9.81-6.34-2.86-1.91-5.92-3.58-8.67-5.63a6.63,6.63,0,0,0-1.15-.74,4.11,4.11,0,0,0-4.44,1.18" fill="#ffb469"/><path d="M233.22,121.6c2,.07,3.4-2.54,4.11-4.09,2-4.25,2.86-12.52-1.94-15.35a.6.6,0,0,1-.32-.5l-9.16-6.17-7.08-4.77c-1.24-.83-2.4-1.77-3.64-2.61s-2.45-1.8-3.92-1-2,2.58-2.32,4.21a26.42,26.42,0,0,0-.21,11.45,10,10,0,0,0,4.52,5.77l6.58,4.45,12.2,8.21a2.71,2.71,0,0,0,.63.35A1.9,1.9,0,0,0,233.22,121.6Z" fill="#fcbd4c"/><path d="M233.39,139.3l.37.25a9.56,9.56,0,0,1,2.69,2.34c1.76,2.55-.3,5.18-2.33,6.75-5.49,4.23-13.58,7.45-20.47,5.26A62.26,62.26,0,0,1,197,145.17c-4.2-2.94-9.46-6.5-10.23-12a7.89,7.89,0,0,1,2.55-6.63c11.89-12,26.53,1.06,37,8.06Z" fill="#ffb469"/><path d="M237.17,140.07a14.64,14.64,0,0,1-.1,4.68,13.17,13.17,0,0,1-3.47,4.3c-1.35.94-.08-6.2-.08-6.2" fill="#ffb469"/><path d="M233.6,136.24l.37.25a9.56,9.56,0,0,1,2.69,2.34c1.76,2.55-.3,5.18-2.33,6.75-5.49,4.23-13.58,7.45-20.47,5.26a62.26,62.26,0,0,1-16.61-8.74c-4.2-2.94-9.46-6.5-10.23-12a7.89,7.89,0,0,1,2.55-6.63c11.89-12,26.53,1.06,37,8.06Z" fill="#fcbd4c"/><path d="M207.5,94s-3.44,17-4.43,20.33-12.17,7.73-10,10.09,9.58,5.32,9.58,5.32,9.77-10.43,10.86-13.25" fill="#5e331f"/><path d="M176.55,181.09A21.33,21.33,0,0,1,181,178.8c1.61-.57,6.46-5.5,6.84-6s1.31-2.95,2.13-3.06,2.57,1,2.57,1,2.71-2.43,4.84-1.45c0,0,2,1.22,1.51,7a1.36,1.36,0,0,1,.18.16,23.64,23.64,0,0,1,0,2.75,7.73,7.73,0,0,1-3.57,2.85c-1.84.81-5.91,3.8-8.46,4.28a21.1,21.1,0,0,1-9-.87,3,3,0,0,1-1.82-2.55A2.59,2.59,0,0,1,176.55,181.09Z" fill="#e05e00"/><path d="M192,170.45s3.15-2.25,5.35-1.19,1.55,6.25,1.55,6.25-.23,3-3.93,4.46-3.22,3.06-8,4.19-9.71-.38-10.52-1.87,2.21-2.52,2.43-2.69,4.61-2.47,5.66-3.69,2.9-3.34,3.58-4.4,1-2,2.11-1.86A3.48,3.48,0,0,1,192,170.45Z" fill="#ffc019"/><path d="M182.18,177.55a.32.32,0,0,0,.37.29h.09a22.87,22.87,0,0,1,2.83,1.87.33.33,0,0,0,.5-.33q-.24-.79-.45-1.59a10.65,10.65,0,0,1,2.18.5.32.32,0,0,0,.25-.59h0a.46.46,0,0,1-.05-.12,4.14,4.14,0,0,0-.17-.44l-.36-.88a6.79,6.79,0,0,1,1.68.63c.35.19.7-.3.4-.51a11,11,0,0,0-.52-1.67,8.07,8.07,0,0,1,2.35.34c.4.12.61-.49.21-.61a9,9,0,0,0-2.85-.37,10.82,10.82,0,0,0-.61-1.1c-.22-.35-.8-.07-.58.29s.33.55.48.84c-.54,0-1.08.09-1.62.15a.34.34,0,0,0-.17,0,.26.26,0,0,0-.2.22.31.31,0,0,0,0,.21l.35.76a7.66,7.66,0,0,0-1.4,0l0,0a6.62,6.62,0,0,1-.49.49q.14.58.28,1.15a11.31,11.31,0,0,0-1.89.1h0C182.56,177.28,182.37,177.42,182.18,177.55Zm4.87-2-.32-.7c.5-.05,1-.1,1.49-.12a10.23,10.23,0,0,1,.46,1.3A7.59,7.59,0,0,0,187,175.51Zm-1.71,1.59q-.13-.5-.25-1a7,7,0,0,1,1.51,0l.27.64c.08.18.14.44.22.68A11.24,11.24,0,0,0,185.34,177.1Zm-1.61.61a10.33,10.33,0,0,1,1.1,0l.24.88C184.64,178.28,184.19,178,183.73,177.71Z" fill="#e05e00"/><path d="M218.4,117s4.84,14.24,3.12,16.58S204.08,147,202.75,148.3s-3,21.78-3,21.78c-4.36,2.33-9.57-.44-9.57-.44s-2.76-25.06.28-30,19.4-22.93,20.11-24.17" fill="#b76748"/><path d="M216.67,119.15c-.71,1.24-17.07,19.19-20.11,24.17s-.28,30-.28,30,5.21,2.77,9.57.44c0,0,1.66-20.46,3-21.78s17.29-12.21,18.77-14.71c4.56-7.72,1-18.35,1-18.35" fill="#b76748"/><path d="M214.64,79.76a.34.34,0,0,1,0,.69A.34.34,0,0,1,214.64,79.76Z" fill="#1c5028"/><path d="M230.68,122.71a43.72,43.72,0,0,0,1.48-9,95.09,95.09,0,0,0,.29-12.8,9.65,9.65,0,0,0-1.53-5.2c-2.62-3.4-10.27-7.8-14.58-8.48-10-1.57-10.16,13-10,19.11.09,2.69,1.28,10.07,4.73,12.89s14.32,6.49,16.63,6.65C229,125.91,230,124.33,230.68,122.71Z" fill="#5e331f"/><path d="M221.55,79.18l.72.05a.43.43,0,0,1-.06.86l-.72-.05A.43.43,0,0,1,221.55,79.18Z" fill="#1c5028"/><path d="M215.14,82.44a6.61,6.61,0,0,0,6.65,1.82c.54-.15.7.7.17.85a7.48,7.48,0,0,1-7.47-2.1C214.1,82.6,214.76,82,215.14,82.44Z" fill="#1c5028"/><path d="M212.45,76.67s0,10.68,2.7,11.37,5.7-.47,6.73-1.76,3.48-7.85,2.6-9.14S214.09,74.83,212.45,76.67Z" fill="#ffbe8d"/><path d="M222.59,84.82l0,5.27s-1.71,1.21-6.28-.66l-.45-3.08" fill="#ffbe8d"/><path d="M211,72.79a4.34,4.34,0,0,1,1.9-.16,4.2,4.2,0,0,1,1.61-2.22,4.4,4.4,0,0,1,4.6-.05,3.32,3.32,0,0,1,.67.55,3.92,3.92,0,0,1,3.11-.82,3.31,3.31,0,0,1,2.66,2.39,2.78,2.78,0,0,1,.06,1,3.16,3.16,0,0,1,2.67,2.41,3.13,3.13,0,0,1-.58,2.72,2.76,2.76,0,0,1,.41,3,3.07,3.07,0,0,1-2.59,1.76,2.93,2.93,0,0,1,0,1.58c-.65,1.22-2.2,1.64-3.64,1.87,0-.67,0-1.34,0-2a.72.72,0,0,0,0-.18,5.93,5.93,0,0,0,1.3-1.39c.5-.7.89-1.72.19-2.43a1.55,1.55,0,0,0-2.4.37,8.1,8.1,0,0,0-.45-1h0c-.56-1.75-2.32-2.06-4-2.18-2.62,1.16-6.38,1.86-7.19-1.42A3,3,0,0,1,211,72.79Z" fill="#bc4824"/><path d="M232.52,107.15s.93,12-2.66,19.45-11.78,10.08-11.78,10.08-6.15-2.31-5.81-3.42S221.2,124,221.2,124l.68-11.32" fill="#5e331f"/><path d="M223.56,90l-1.11-1.76A18.52,18.52,0,0,1,218.33,90c-1.16.11-2.14-1.62-2.14-1.62S214.84,90,215,90.24s.14,4.87.31,4.67S217.75,93,217.75,93l-.23,2.69,6.85-5.26Z" fill="#b76748"/><polygon points="119.18 165.81 119.18 172.45 123.26 172.45 119.18 165.81" fill="#d3514a"/><polygon points="232.59 196.69 232.59 191.02 229 195.54 232.59 196.69" fill="#d3514a"/><path d="M175.84,156.13,225,184.23s15.81,10.54,1.76,22.83-33.37,12.29-45.66,7-56.2-31.61-56.2-31.61-16.8-12.62,7-26.34A42.68,42.68,0,0,1,175.84,156.13Z" fill="#d3514a"/><path d="M175.84,150.72,225,178.82s15.81,10.54,1.76,22.83-33.37,12.29-45.66,7-56.2-31.61-56.2-31.61-16.8-12.62,7-26.34A42.68,42.68,0,0,1,175.84,150.72Z" fill="#d3514a"/><path d="M119.18,128.52c.7,1.6,0,43.93,0,43.93l113.05,21.3V159.39" fill="#d3514a"/><polygon points="119.18 128.52 119.18 135.16 123.26 135.16 119.18 128.52" fill="#d3514a"/><polygon points="232.59 159.4 232.59 153.73 229 158.25 232.59 159.4" fill="#d3514a"/><path d="M175.84,118.84,225,146.94s15.81,10.54,1.76,22.83-33.37,12.29-45.66,7-56.2-31.61-56.2-31.61-16.8-12.62,7-26.34A42.68,42.68,0,0,1,175.84,118.84Z" fill="#d3514a"/><path d="M175.84,113.43,225,141.53s15.81,10.54,1.76,22.83-33.37,12.29-45.66,7-56.2-31.61-56.2-31.61-16.8-12.62,7-26.34A42.68,42.68,0,0,1,175.84,113.43Z" fill="#68e1fd"/><polygon points="157.74 140.91 183.44 126.65 198.04 135.08 173.19 149.61 157.74 140.91" fill="#f1756b"/><polyline points="101.7 124.24 106.71 121.81 106.71 119.29 101.02 117.65" fill="#665265"/><rect x="106.54" y="117.76" width="2.66" height="105.28" transform="translate(215.74 340.81) rotate(-180)" fill="#42210b"/><path d="M106.9,173l21.47,43c.65,1.3,2.59.16,1.94-1.14l-21.47-43c-.65-1.3-2.59-.16-1.94,1.14Z" fill="#42210b"/><path d="M106.79,172.73,124.93,249c.33,1.41,2.5.81,2.17-.6L109,172.13c-.33-1.41-2.5-.81-2.17.6Z" fill="#42210b"/><path d="M106.9,172.07,78,220a1.13,1.13,0,0,0,1.94,1.14l28.92-47.89a1.13,1.13,0,0,0-1.94-1.14Z" fill="#42210b"/><path d="M101.7,119.25v5l-8.18-4.4V107.68" fill="#42210b"/><ellipse cx="129.54" cy="98.26" rx="3.59" ry="4.82" transform="translate(-15.82 25.41) rotate(-10.56)" fill="#42210b"/><path d="M130.42,103a9.15,9.15,0,0,1-1.39,0,2.59,2.59,0,0,1-1.82-.84c-.3-.23-.57-.91-.87-1.14l-3.5,2L122,98.52l3.82-.74,1.54-3.62" fill="#42210b"/><polygon points="105.21 121.81 93.52 115.5 93.52 99.81 105.27 106.43 105.21 121.81" fill="#42210b"/><polygon points="105.21 100.63 124.73 94.91 124.73 111.38 105.21 121.81 105.21 100.63" fill="#5e3a26"/><polygon points="93.52 99.81 114.06 88.41 124.73 94.91 105.27 106.43 93.52 99.81" fill="#5e3a26"/><polygon points="100.17 105.22 100.17 122.42 94.43 119.26 94.43 102.23 100.17 105.22" fill="#5e3a26"/><ellipse cx="128.71" cy="98.59" rx="3.59" ry="4.82" transform="translate(-15.89 25.26) rotate(-10.56)" fill="#42210b"/><ellipse cx="107.9" cy="162.76" rx="4.01" ry="1.19" fill="#42210b"/><ellipse cx="107.9" cy="171.91" rx="4.01" ry="1.19" fill="#42210b"/><polyline points="103.89 162.76 103.89 171.91 111.91 171.91 111.91 162.76" fill="#42210b"/><g style="isolation:isolate"><path d="M253.92,42.4c0,.11,0,.22.06.32l-1.13.15c.06-.35,0-.79.17-.8S253.61,42.27,253.92,42.4Z" fill="#fff"/><path d="M255.2,43.19a1.38,1.38,0,0,0,.34,1.62c0-.4,0-.7,0-1a1.53,1.53,0,0,1,.81,0c.22.11.25.42.28,1.11a1.51,1.51,0,0,1,.83.17c.88.45,1.39,1.69,2.21,2.3v.09c-.13,1.08,1,1.66,1.44,2.61l-.49.28-.74-1h-.26a6.4,6.4,0,0,0,.21.86,3.24,3.24,0,0,1,.33,1l-.83-.75.24.72-.14.1a13.64,13.64,0,0,0-1.06-1.43A12.63,12.63,0,0,0,257,48.79a2.58,2.58,0,0,0,.83.29c.17,0,.25-.29.38-.44l1.17.79c-.78-1.24-1.34-2.14-1.94-3a1.69,1.69,0,0,0-.55-.5h0c-.78-.38-1.56-.71-2.34-1.06,0-.08,0-.17,0-.26l.24-.05c-.15-.3-.47-.75-.41-.83A1.38,1.38,0,0,1,255.2,43.19Z" fill="#fff"/><path d="M253.93,40.83a10.8,10.8,0,0,0,1.34,1.33,3.61,3.61,0,0,0,.43.26c.4.21.83.35,1.24.53,0,.13,0,.25,0,.37-.65-.26-1.3-.49-1.94-.82l-.07,0C254.3,42.16,253.7,41.74,253.93,40.83Z" fill="#fff"/><path d="M259.68,39.48c.61.32,1.22.66,1.83,1a2.25,2.25,0,0,1,.74.87l-1.51-.47.55.55L258,41.27l.58.56-1.81.07.84.69,0,.12-2.74-1.42.59-.37.49.61.17-.08-.59-1.06,1.2.62-1-1.52.11-.14,1,1-.42-.73,1.12.28-1.14-.58c-.34-.17-.68-.36-1-.56a1.21,1.21,0,0,1-.43-.55c0-.1.18-.33.29-.31a26.12,26.12,0,0,1,3.06,1C258.81,39,259.24,39.26,259.68,39.48Z" fill="#fff"/></g><path d="M272.83,56.49a2.67,2.67,0,0,1,.85.88l0,0a1.21,1.21,0,0,0-.73-.07,1.15,1.15,0,0,1-.72-.06,1.4,1.4,0,0,1-.58-.75A1.73,1.73,0,0,1,272.83,56.49Z" fill="#fff"/><path d="M261.58,57.62l.93,1.5-1.43-1Z" fill="#fff"/><path d="M269.8,44.26c1,.51,1.95,1.21,2.92,1.81,0,.1,0,.21,0,.31l-2.59-.93c0,.09,0,.19,0,.29l1.42.53-.07.52,1.45.06-.74.73a4.45,4.45,0,0,1,2.31.41,4.15,4.15,0,0,1,.78.53l-1.85-.13-.9,1.19.46.28-.57.54.78.88-.49,0-.28.87-1.07-.42c0,.11,0,.22,0,.34l.68.4-.47-.1.51,1.15-.17.05-.68-.72-.41.34.85.74c-.63-.09-1-.12-1.46-.21-.6-.13-1.17-.33-1.64.1-.24.22-.9-.12-1.35-.11a.8.8,0,0,0-.57.37c-.34.45-.62,1-.93,1.44a4.53,4.53,0,0,1-1.91-3.08,6,6,0,0,1-.19-1.36c0-.17.1-.43.19-.41.71.2.79-.27.6-.85a9.64,9.64,0,0,0-.88-1.59,3.78,3.78,0,0,0-2-3.39l-.3-.13a7.62,7.62,0,0,1-.74-.3c-.32-.17-.33-.31-.36-.75l.77.33.06-.17-1.51-1.13v-.22c.46.11.92.26,1.36.33.21,0,.48,0,.57-.12s-.1-.44-.19-.8l1.43.26c.29-.42,1,0,1.6.16.14.07.29.44.41.63l1.31.2,1,1c0-.34-.19-.81-.08-.87s.53,0,.8.14c.61.29,1.24.41,1.81.68Z" fill="#fff"/><path d="M308.53,102.2a1.51,1.51,0,0,1,.61,1,10.17,10.17,0,0,0,1.08,2c.29-.59.5-1,.77-1.55.25.78.41,1.44.66,2.08a14.49,14.49,0,0,0,.9,1.92,2.8,2.8,0,0,1,.34,2.84,7,7,0,0,1-1.08,1.57.83.83,0,0,1-1,0,2.62,2.62,0,0,1-.66-.5,3.46,3.46,0,0,1-1.23-2.66l-.59.54a2.86,2.86,0,0,0-1.69-1.89l-.38-.19c-1.18-.61-2.06-.13-3.08-.63-.08-1.2-.16-2.36-.25-3.67a2.67,2.67,0,0,1,.92-.21,3.32,3.32,0,0,0,2.4-.78.53.53,0,0,1,.4-.07,1.56,1.56,0,0,0,.44.39c.39.2.63-.14,1-.25A.56.56,0,0,1,308.53,102.2Z" fill="#fff"/><path d="M308.89,98.94l.48,1a3.09,3.09,0,0,1,1,.3c.93.48,1.62,1.52,2.34,3.5a4.59,4.59,0,0,0-.69-1l-.14-.09a6.41,6.41,0,0,0-.95-.26c-.17-.24-.79-.55-.67-1.22,0-.07-.11-.23-.19-.33-.49-.6-1-1.18-1.47-1.77Z" fill="#fff"/><path d="M305,94.91c.35.49.26.91-.69,2.54-1.36-.83-1.44-.94-1.56-2Z" fill="#fff"/><path d="M286.81,91.3l.23.16c-.49.89-1,1.78-1.48,2.66,0,.08-.26.1-.38,0h0a.7.7,0,0,1-.22-.46c.08-.65.18-1.29.31-1.92a.31.31,0,0,1,.26-.2C285.93,91.46,286.37,91.38,286.81,91.3Z" fill="#fff"/><path d="M296.2,62.61a1.58,1.58,0,0,1-.45.11l-2.29-.24c-.86-.08-1.28.65-1,1.77l-1-1.1C293.07,61.76,294.21,61.63,296.2,62.61Z" fill="#fff"/><path d="M275.74,61.75l.57.49h0c-.41.74.49,1.59.58,2.36a.71.71,0,0,1-.19.48,4.42,4.42,0,0,1-.88-.67c-.08-.08-.1-.5,0-.52.49-.15.25-.46,0-.92a4.87,4.87,0,0,1-.32-1.25Z" fill="#fff"/><path d="M299.43,92.34c1.27,1.17,2.37,3.54,1.94,4.34Z" fill="#fff"/><path d="M282.73,53.64l.72.88c-.15.16-.29.33-.45.48s-.36.29-.56.46l-.4-.67.58.12c-.06-.3.06-.73-.22-.87a.75.75,0,0,0-.47,0,7.35,7.35,0,0,1-.48-.8l.18-.1,1,.93Z" fill="#fff"/><path d="M312.74,87.9a1,1,0,0,1-.76,1.29,1.2,1.2,0,0,1-.77,0,.71.71,0,0,1-.29-.32Z" fill="#fff"/><path d="M318,116.62l.2.45c-.75,0-1.06,1-2,.56l-.13-.27Z" fill="#fff"/><path d="M275,62.53l.22.29c-.17.37,0,1.12-1,.6l-.18-.1Z" fill="#fff"/><ellipse cx="300.7" cy="92.22" rx="0.01" transform="translate(139 362) rotate(-76.11)" fill="#fff"/><path d="M325.73,83.58a5.86,5.86,0,0,0,1.08.78l-.82.44-1.33-1.52-1.35,0c.12.32.27.74.43,1.12l-.88-.12a8,8,0,0,1-2.69-.55c-.61-.27-1.16-.14-1,.81a.42.42,0,0,1-.07.37c-.52.39-1.07.75-1.72,1.2.14-1.54.47-2.68,1.9-2.79.36,0,.62-.32.93-.5l-.11-.22c-.14,0-.32-.13-.4-.08s-.35.28-.58.16a1.72,1.72,0,0,1-.45-.4,1,1,0,0,0-.29-.24c-.44-.23-.86.12-1.23.31a.7.7,0,0,1-.5,0,2.66,2.66,0,0,0-.86-.71,5.48,5.48,0,0,0-.74-.3,5.25,5.25,0,0,1-.72-.29l-.2-.11c-.47-.24-1.07.18-1.57.34a3.78,3.78,0,0,0-.8.57,7.81,7.81,0,0,1,1.06.81,1.38,1.38,0,0,1,.38.83,2.52,2.52,0,0,1-1.33,1.94c-.36.19-.64.55-1.23.25l-.23-.14c-.24-.13-.61.35-1,.41-.61.09-.41.51-.17,1,.33.69-.06.73-.49.74,0-1.14-.21-1.86-.75-2.14a1.16,1.16,0,0,0-.35-.11l.09-.66-1.52.28,1,1c-1.17.09,0,1.54-.27,2.23,0,.08.06.35,0,.35-.8.11-1,1.24-2.08.87-.55-.19-1.12-.32-1.67-.46s-.9.26-.68.91a3.74,3.74,0,0,0,.25.54c.59,1.11.4,1.56-.73,1.62L301,90.53c-.65.3-.5,1-.33,1.64-.16-.26-.43-.55-.42-.74,0-.73.15-1.41.26-2.22l-.72-.19-.71-2.65a18.36,18.36,0,0,1-2.45.61c-1,.14-.55,1.74-1.63,2.1-.27-1.64-.51-3.1-.76-4.55a.32.32,0,0,1-.16,0c-.12-.06-.17-.23-.31-.49a6,6,0,0,0-1.29-1.71c-.92-.74-1.94-1.22-2.87-1.93-.32-.24-.5-.84-.78-1.24a4.27,4.27,0,0,0-.59-.57,1.75,1.75,0,0,0-.09.66,8.23,8.23,0,0,0,.37,1.17,1.27,1.27,0,0,0,.56.73,1.23,1.23,0,0,0,1,0l.08.23c.18.38.59,1,.51,1.1a2.63,2.63,0,0,1-1.39.79,17.6,17.6,0,0,1-2.69-.05l-1.88-6.12-.65-.55a.64.64,0,0,0,0,.29c.58,2,.79,4,1.9,5.94.15.27.12.64.3.88a1.15,1.15,0,0,0,.41.31l.34.16a6.49,6.49,0,0,0,.79.26,2.21,2.21,0,0,1-1.56,2c-1.46.14-2,1.05-2,2.73,0,.8.12,1.78-1,1.8-.71,0-.82.77-.67,1.43a13.66,13.66,0,0,1-1.61,1.49,1.8,1.8,0,0,1-1.3.25,4.71,4.71,0,0,1-1.15-.31c-.47-.24-.48-.66-.56-1.84a24.08,24.08,0,0,0-.51-3.4,3.11,3.11,0,0,1,.29-2.25,2.48,2.48,0,0,0,.09-1.34c-.09-.63-.36-1.3-.47-1.93a5.56,5.56,0,0,1,0-1.13c0-.28.09-.69,0-.84a9.61,9.61,0,0,0-1.77-1.62l-.2-.11a14.25,14.25,0,0,0-1.75-.6l-.32-.14c-1.6-.83-2.8-3.23-2.24-4.67,0-.1.11-.19.09-.28-.35-1.71.74-2,1.68-2.42a4.49,4.49,0,0,0,1.17-.88.73.73,0,0,1,1-.2,1.77,1.77,0,0,1,.28.18,2,2,0,0,0,.46.19c.78.21,1.55.35,2.32.63l.28.12c.52.27.57.62.23,1.16l2.21,2.35a.74.74,0,0,1,.9-.19,2.21,2.21,0,0,1,.71.72,1.72,1.72,0,0,0,.58.49c.49.25,1,.41,1.41.59s1-.52.95-1.49c-.41-.19-.85-.34-1.26-.55l-.37-.22a1.25,1.25,0,0,1-.54-1.51,8.49,8.49,0,0,1,1.28.28,4.46,4.46,0,0,1,.55.24c.25.13.5.28.75.42s.45.35.68.47a1.18,1.18,0,0,0,.72,0,6.87,6.87,0,0,0-.31-.67c-.2-.31-.42-.6-.66-.94l.52-.62-.12-.26-1.31.23a5.08,5.08,0,0,0-.67-.83,1.35,1.35,0,0,0-1.2,1.45,2,2,0,0,1-.43-.19c-.43-.22-.87-.46-1,.42L280,68.73c-.51.42-.29,1.1.77,2.44-.21-.1-.38-.14-.48-.19-.45-.61-.75-1.16-1.11-1.68a2.21,2.21,0,0,0-.69-.63,4.67,4.67,0,0,0-.93-.3c-.1,0-.25-.09-.3,0a8.19,8.19,0,0,0-1.2,1,1.07,1.07,0,0,1-1.31.07,2.15,2.15,0,0,1-.41-.28c-.78-.66-.54-1-.26-1.5a2.53,2.53,0,0,0,.18-.76.65.65,0,0,1,.34.09,3.59,3.59,0,0,1,.45.3,3.48,3.48,0,0,0,.43.28.44.44,0,0,0,.69-.22c.15-.31-.27-1.09-.39-1.5l3.48-.59.15-1.15.23.13a1.35,1.35,0,0,1-.1.46c-.23.38,0,.71.36.9.85.39,1.65.67,2.47,1,.07-.39.14-.69.22-1.07a2.92,2.92,0,0,0,.47.33c.34.18.48,0,.21-.7l1.49.46c0-.11,0-.22,0-.33l-.58-.29-.39-.22c-.31-.19-.83-.45-.89-.65-.12-.43-.18-1,.34-1a3.54,3.54,0,0,0,.88-.39,1.4,1.4,0,0,0-.52-.69A.52.52,0,0,0,283,62a3.09,3.09,0,0,1-.76.47c-.68.21-.86.67-.32,1.57l-1.4,1.32c-.21-.94-.35-1.55-.5-2.21l-1,.19c-.49-1.16-.28-1.75.5-1.93a4,4,0,0,0,1.23-.6c.56-.34,1-.91,1.62-1.08a4.33,4.33,0,0,1,1.9.29,9.11,9.11,0,0,1,1.27.55l-.18.41c.5.4,1,.78,1.48,1.23s.86,1,1.39,1.59a1.09,1.09,0,0,1-1-.05,13,13,0,0,1-1.37-1.14,13,13,0,0,0,.45,1.56,1.65,1.65,0,0,0,.57.7c.36.11.85.11.92-.11.16-.45.4-.49.71-.33a2.78,2.78,0,0,1,.43.3c.08-.35.16-.69.23-1a2.32,2.32,0,0,1,.16.92,8.52,8.52,0,0,1,.94.11,10.1,10.1,0,0,1,1.21.37c.61.24,1.22.53,1.83.75.1,0,.17-.26.31-.5l1.93,1.71c0-.46-.24-1.1-.06-1.36s.79-.39,1.31-.6l-.48,3.64c.38-.28.72-.52,1.13-.84L298,69c0-.59.07-1.18-.53-1.49a1.63,1.63,0,0,0-.33-.12.64.64,0,0,1,0-.22c.07-.34.14-.68.21-1l.92,1.05-.11-.28c.22-.09.42-.28.66-.23a1.18,1.18,0,0,1,.32.25,1.52,1.52,0,0,0,.35.27,7.15,7.15,0,0,0-.4-1,5.26,5.26,0,0,0,1,.29c.29,0,.54-.15.82-.14a7.71,7.71,0,0,1,1.59.11,7.48,7.48,0,0,1,1.3.57l-.69.45.16.27c.43,0,.82,0,1-.54.11-.35.43-.56.71-.89.35.73.54,1.24,1,1.5l.26.1a6.22,6.22,0,0,1,1.2,1c0,.1,0,.2,0,.3l-2.43.22.44.24a4,4,0,0,1,1.55.44,12,12,0,0,1,1.79,1.24,4.06,4.06,0,0,0,.61.4,1.88,1.88,0,0,0,.42.16,2.29,2.29,0,0,1,.55.19,1.49,1.49,0,0,1,.76,1.11,1.32,1.32,0,0,0,.59.78l.72.39.36.17.35.19.24.14c.32.16.62.22.81-.26.07-.17.22-.19.41-.09a2.34,2.34,0,0,1,.87,1.06,10.63,10.63,0,0,1,1.19.69c.6.46,1.2,1,1.76,1.48.33.3.59.73.92,1a13.67,13.67,0,0,0,1.42,1c.43.29.89.56,1.37.86l.05-.4.69.34.42.24a3.38,3.38,0,0,1,.88.69C324.74,82.18,325.19,82.93,325.73,83.58Zm-35.62-7.49h.39l-1-1.7a1.54,1.54,0,0,0,.41,0,4.27,4.27,0,0,0,.43-.36,4,4,0,0,0-.62-.58l-.06,0c-1-.36-1.38.2-1,1.35a7.09,7.09,0,0,1,.17,1.4l-.27.15,1.35,1c.06-.37.13-.72.22-1.18m13.45,2.78c1.1.41,1.72.08,1.65-.88l-1.65.88" fill="#fff"/><path d="M300.7,92.21h0v-.06l0,0h0Z" fill="#fff"/><path d="M256.38,68.3l1.85,1.26c.65.74,1.31,1.59,2.06,2.29s1.13,1.77.71,2.37a2.79,2.79,0,0,1,.38.06,7,7,0,0,0,2.48,2.16A3.29,3.29,0,0,1,265,78c.1.32-.3.8-.63.93-.49.21-.61.61-.75,1.15-.19.84-.37,1.73-1.6,1.45-.56-.13-1.2-.13-1.41.75-.14.64-.95.92-1.55,1.19-.25.11-.75-.21-1.1-.32,0,.23.13.82-.07,1s-.75,0-1.29,0c0,0-.08.24-.16.51l-.64-.38a1.9,1.9,0,0,1-.08.33c-.16.29-.25.72-.52.83-.47.21-.34.51,0,.94l-1.52,1.41-.71-1.12.23-1.77c.32,0,.63-.7.6-1.41A4.65,4.65,0,0,1,254,82c.44-1.68,1-3.32,1.36-5,.05-.24-.26-.72-.43-1.09-.27-.58-.6-1.15-.85-1.73s-.32-1-.51-1.5c-.61-1.57-.56-2.28.46-2.93.55-.35.52-.9.33-1.67l.09.06a.61.61,0,0,0,.57-.08.61.61,0,0,1,.59-.08,1.39,1.39,0,0,1,.52.68C256.23,68.52,256.34,68.37,256.38,68.3Z" fill="#fff"/><path d="M253.26,67.41l.28.33A2.68,2.68,0,0,1,253.26,67.41Z" fill="#fff"/><path d="M254.26,62.24l.08.25Z" fill="#fff"/><path d="M246.14,38.17a6.78,6.78,0,0,1,1.23,1,4.6,4.6,0,0,0-.89.29.84.84,0,0,1-.84.13,1.47,1.47,0,0,1-.58-.8C245.44,38.15,245.67,37.92,246.14,38.17Z" fill="#fff"/><path d="M249.61,38.8l.76.84-1.94-.45Z" fill="#fff"/><path d="M249.7,40.46,250.83,43c0,.06-.1.25-.15.35a23.85,23.85,0,0,1-2.22-.91l-.15-.08A7.94,7.94,0,0,1,247,41.12l1.22.46c0-.07,0-.15,0-.23L247,40.57l.52-.1-.74-.48-.07-.23,1.13-.2,0,.37,1.74,1.42Z" fill="#fff"/><path d="M254,37.62l1.76,2.32c-.46-.07-.8.35-1.25.12a1.34,1.34,0,0,1-.45-.43c-.1-.15-.06-.39-.09-.7l-.75-.42Z" fill="#fff"/><path d="M252.13,41.55c.08.37.15.71.22,1.1l-.73.12c0-.52,0-.93,0-1.38Z" fill="#fff"/><path d="M254.8,47.37l1,1-1,.19C254.78,48.11,254.78,47.81,254.8,47.37Z" fill="#fff"/><path d="M261.09,55.91l.8.77c-.19.11-.35.32-.57.3a3.34,3.34,0,0,1-1.21-.28l-.11-.06-.2-.11a1.57,1.57,0,0,0-2.07.45l1.37-.08c.07.43.14.78.22,1.22-.38,0-.77-.09-1.15-.11-.18,0-.45-.06-.5.06-.32.68-1,.63-1.68.7-.2,0-.13.74-.2,1.25-1,.09-2.1.32-1.54,2.22a3.36,3.36,0,0,0-1.34-2.07,1.82,1.82,0,0,0-1.07-.16,2.64,2.64,0,0,0-.75-.75c-.28-.15-.54-.06-.88.27a2.28,2.28,0,0,0-.43,2.4,1.87,1.87,0,0,0,.8,1.14.9.9,0,0,0,1.07-.22c.09-.08.27,0,.63-.1-.23.66-.39,1.12-.57,1.65L253,65c0,.8-.31,1.54.29,2.38a4.11,4.11,0,0,1-.8-1.06,8.34,8.34,0,0,0-2.67-3.14,5,5,0,0,1-2.08-2.89,10.71,10.71,0,0,0-1-2.2c-.31-.69-.61-1.36-1-2.25-.11.4-.16.63-.21.8-.53-1.2-1.11-2.43-1.62-3.67a2.59,2.59,0,0,1-.17-1.11c0-.95.14-1.87.22-2.82l.32.78h.19c-.11-.34-.13-.8-.35-1a8.13,8.13,0,0,1-1.42-2.49,8.29,8.29,0,0,0-.66-1c.22-.09,0-1.25-.51-1.69s-1.05-1-1.6-1.45-1.07-.8-1.62-1.21l-.89.33-.17-.27.5-.29a.87.87,0,0,0-.2-.14.84.84,0,0,0-1,.14,3,3,0,0,1-.91.71c.2-.67.1-1-.37-1.28a2.47,2.47,0,0,0-.47-.18c-.29-.15-.6-.72-1-1.26-.14-.44.13-.66.7-.62.41,0,.78,0,.52-.74a4.1,4.1,0,0,1-.85-.23,1.41,1.41,0,0,1-.67-.94l2,.82-1.22-1.84c1,.09,1.79.11,2.66.27a.75.75,0,0,1,.2.07,2.47,2.47,0,0,1,.74.66,4,4,0,0,0,1.28,1.12,2.18,2.18,0,0,0,.6.21,1.34,1.34,0,0,1,.39.13c.22.11.4.27.62.4s.68.73,1,.92a.57.57,0,0,0,.56,0,1,1,0,0,0,.4.41c.35.18.71,0,1.06.16a.33.33,0,0,0,.28,0,10.53,10.53,0,0,0,.92.79c.68.47,1.39.88,2.07,1.36.11.08.13.41.26.56a2.63,2.63,0,0,0,.68.63c.23.11.44.16.63.26s.47.37.52,1c.18-.62.4-.78.75-.6a2.47,2.47,0,0,1,.51.4,2.44,2.44,0,0,0,.56.38c.34.18.73.32,1.14.53l.26.6c.18-.13.39-.18.44-.36s.16-.68.05-.8c-.71-.75-.42-1,.2-1.16l.79,2.31.47,0c.06.4.1.73.18,1.36l1.11-1.06.48.68c-.32.17.11,1.14-.69.8l-.22-.12-.17-.1c-.2-.1-.39-.13-.45.21l-.76-.44.68,1-1.58-.54.34.5a4.89,4.89,0,0,0-.58.2c-.86.45-.62,1.76.44,2.61a21.38,21.38,0,0,1,1.84,1.79c.11.12.09.39.15.6a6,6,0,0,0,.31,1,1.07,1.07,0,0,0,.37.38c.2,0,.31-.19.33-.35a5.7,5.7,0,0,0,0-.92c.82.07,1-.44.77-1.35a7.38,7.38,0,0,1,0-1.59l.19.09c1.22.63,1.61,1.95,2.23,3.1l.86-.22C260.42,54,260.78,55,261.09,55.91Zm-6.76,1.49,1.93-.07-.09-.32-1.33-.08-.11-.2.63-.4-.58-.67a4,4,0,0,1-.55-.68,2.58,2.58,0,0,0-.86-1.13c-.32-.17-.67,0-1.13.37l.38.21.21.08a2.44,2.44,0,0,1,.44.15c.25.13.31.31,0,.7-.18.23-.12.71-.18,1.15.69.08.32-1.15,1.1-.75l.11.06c0,.49,0,.94,0,1.57M245,42.85l1.8.1a3.69,3.69,0,0,0-.92-.83c-.41-.21-.7,0-.89.72m1.67,2.76h1.75l0-.16L247,44.85l-.39.48.1.28" fill="#fff"/><path d="M300.7,92.23c.28.61,1,1.24.46,1.82A2,2,0,0,1,300.7,92.23Z" fill="#fff"/><path d="M347.34,70.65a5.1,5.1,0,0,0-2.5-4.45l-35.54-21a1.94,1.94,0,0,0-2.92,1.64h0l-.1,8.2a5,5,0,0,0,2.46,4.39L342.57,79.6A3.1,3.1,0,0,0,347.26,77Z" fill="#f15a24"/><ellipse cx="311.1" cy="54.14" rx="1.46" ry="2.74" transform="translate(-3.48 26.64) rotate(-4.88)" fill="#fff"/><polygon points="319.72 55.72 319.52 60.91 321.94 62.26 321.89 63.47 318.08 61.36 318.33 54.95 319.72 55.72" fill="#fff"/><polygon points="326.18 59.28 325.93 65.7 324.55 64.93 324.8 58.52 326.18 59.28" fill="#fff"/><path d="M334,63.59l-2.3,5.28L330.06,68l-1.7-7.5,1.51.83.64,3.13c.17.88.34,1.71.45,2.59l0,0a18.1,18.1,0,0,1,.64-2l.88-2.32Z" fill="#fff"/><polygon points="340.23 67.04 340.18 68.23 337.81 66.92 337.75 68.25 340 69.49 339.95 70.67 337.71 69.43 337.65 70.96 340.15 72.34 340.11 73.53 336.21 71.38 336.47 64.96 340.23 67.04" fill="#fff"/></svg>