<svg id="Layer_2" data-name="Layer 2" xmlns="http://www.w3.org/2000/svg" xmlns:xlink="http://www.w3.org/1999/xlink" viewBox="0 0 400 300"><defs><linearGradient id="linear-gradient" x1="179.31" y1="235.26" x2="207.85" y2="215.54" gradientUnits="userSpaceOnUse"><stop offset="0.01" stop-color="#ffb392"/><stop offset="0.99" stop-color="#dd6f31"/></linearGradient><linearGradient id="linear-gradient-2" x1="130.93" y1="227.97" x2="176.62" y2="196.4" xlink:href="#linear-gradient"/><linearGradient id="linear-gradient-3" x1="237.93" y1="204.11" x2="283.62" y2="172.54" xlink:href="#linear-gradient"/></defs><title>PP</title><path d="M195.22,288.83,15.5,182.61c-5.72-3.21-10.63-8.49-5.05-11.94l180.37-104c2.71-1.68,6.82-2.78,9.57-1.18L389,175c5.72,3.32,6.75,12.6,1,15.93L218.91,288.66A23.9,23.9,0,0,1,195.22,288.83Z" fill="#ffb392"/><path d="M177.32,242.24l4.15,2.8,34.71-24.43-16.52-6.19-16.76,9.3-18.57,10.62A116.42,116.42,0,0,1,177.32,242.24Z" fill="url(#linear-gradient)"/><path d="M132,240.87l50.39-28.64,8.42-5.46-14.14-21.56-33.51,18.6L106,225.07A232.85,232.85,0,0,1,132,240.87Z" fill="url(#linear-gradient-2)"/><path d="M238.95,217l50.39-28.64,8.42-5.46-14.14-21.56L250.1,180,213,201.21A232.85,232.85,0,0,1,238.95,217Z" fill="url(#linear-gradient-3)"/><path d="M163.92,181.91c-.53,1.26-2.9,18.77-2.75,22.2s5.34,3.76,6.93,3.63,4.71-1.58,6.69-1.65,12.92-2.14,12.61-5-2.21-5.69-4.67-5.84-9.14.28-9.14.28l.67-15.87" fill="#55823d"/><path d="M166.18,99.25a152.67,152.67,0,0,0-2.94,23.9c-.17,8.29-2.71,70.06-2.71,70.06s7,4.14,20.28.28c1.93-.56,4.37-57.22,4.37-57.22L180.64,107" fill="#55823d"/><path d="M184.24,195.62a16.76,16.76,0,0,1-12.1,5.53,41.24,41.24,0,0,1-7.4-.75,8.74,8.74,0,0,1-3.33-1.08,43.84,43.84,0,0,0-.27,4.85c.18,3.43,5.36,3.72,7,3.58s4.7-1.61,6.67-1.7,12.9-2.23,12.57-5.12A7.12,7.12,0,0,0,184.24,195.62Z" fill="#55823d"/><g style="isolation:isolate"><path d="M240.47,99.7l-12.89-5.94a59.51,59.51,0,0,0,12.77-7.57l12.89,5.94A59.51,59.51,0,0,1,240.47,99.7Z" fill="#2e3192"/><path d="M234.94,92.12l-12.89-5.94a1.58,1.58,0,0,0,1.17.07,3.83,3.83,0,0,0,.85-.39,66.68,66.68,0,0,0,12.52-9.49c.27-.25.54-.48,1-.91l12.89,5.94c-.49.43-.77.66-1,.91A66.68,66.68,0,0,1,237,91.8a3.83,3.83,0,0,1-.85.39A1.58,1.58,0,0,1,234.94,92.12Z" fill="#2e3192"/><path d="M217.47,83.23l12.89,5.94a16,16,0,0,0-11.56-.61,26.74,26.74,0,0,0-5.38,2.3c-11.65,6.46-19.42,20.9-19.16,35.1,0,1.54.19,3,.31,4.73l-12.89-5.94c-.11-1.68-.28-3.19-.31-4.73-.26-14.21,7.52-28.65,19.16-35.1a26.74,26.74,0,0,1,5.38-2.3A16,16,0,0,1,217.47,83.23Z" fill="#2e3192"/><path d="M137.74,213.23l-12.89-5.94-.38-.18,12.89,5.94Z" fill="#2e3192"/><path d="M137.35,213l-12.89-5.94a4.3,4.3,0,0,1-.47-.34l12.89,5.94A4.3,4.3,0,0,0,137.35,213Z" fill="#2e3192"/><path d="M136.87,212.71,124,206.76a50.78,50.78,0,0,0,5.09-1.22c10.77-3.18,20.6-10,29.74-20.85l12.89,5.94c-9.14,10.86-19,17.67-29.74,20.85A50.78,50.78,0,0,1,136.87,212.71Z" fill="#2e3192"/><path d="M150.37,177.23l-12.89-5.94a26.85,26.85,0,0,0,4.17-.86,24.65,24.65,0,0,0,6.13-2.78l12.89,5.94a24.65,24.65,0,0,1-6.13,2.78A26.84,26.84,0,0,1,150.37,177.23Z" fill="#2e3192"/><path d="M159.25,189.19l-12.89-5.94a14.81,14.81,0,0,1-8.88-12l12.89,5.94A14.81,14.81,0,0,0,159.25,189.19Z" fill="#2e3192"/><path d="M163.35,128.08l-12.89-5.94q13.68,6.31,31.23,2.61l12.89,5.94Q177,134.4,163.35,128.08Z" fill="#2e3192"/><path d="M142.59,150.75l-12.89-5.94a17.76,17.76,0,0,0,10.17.41l12.89,5.94A17.76,17.76,0,0,1,142.59,150.75Z" fill="#2e3192"/><path d="M153.14,172.08l-12.89-5.94a15.69,15.69,0,0,1-5.77-4.63c-3.34-4.23-5-9.71-4.78-16.69l12.89,5.94c-.18,7,1.43,12.46,4.78,16.69A15.69,15.69,0,0,0,153.14,172.08Z" fill="#2e3192"/><path d="M152.77,151.16l-12.89-5.94c-10.11-7.48-12.18-19.37-6.19-36.16L146.58,115C140.59,131.79,142.66,143.68,152.77,151.16Z" fill="#2e3192"/><path d="M240.47,99.7a59.51,59.51,0,0,0,12.77-7.57c-.41.78-.81,1.55-1.23,2.32a24.15,24.15,0,0,1-1.33,2.44c-2.77,4-5.54,8-8.37,11.91a3.87,3.87,0,0,0-.92,2.41c-.36,24.52-8,47.57-22.87,68.95-9.37,13.44-20.56,23.16-33.13,29.55a75,75,0,0,1-12.78,5.16,53.31,53.31,0,0,1-23.26,1.83,43,43,0,0,1-12-3.66,3.66,3.66,0,0,1-.48-.35,50.78,50.78,0,0,0,5.09-1.22c10.77-3.18,20.6-10,29.74-20.85-11,1.82-20.32-4.08-21.33-13.42a26.84,26.84,0,0,0,4.17-.86,24.65,24.65,0,0,0,6.13-2.78c-5.55,0-10-1.93-13.29-6.14s-5-9.71-4.78-16.69a17.76,17.76,0,0,0,10.17.41c-10.11-7.48-12.18-19.37-6.19-36.16,12.47,14.59,28.36,19.83,48,15.69-.11-1.68-.28-3.19-.31-4.73-.26-14.21,7.52-28.65,19.16-35.1a26.74,26.74,0,0,1,5.38-2.3,15.91,15.91,0,0,1,15.54,3.17,1.75,1.75,0,0,0,1.76.46,3.83,3.83,0,0,0,.85-.39,66.68,66.68,0,0,0,12.52-9.49c.27-.25.54-.48,1-.91A44.45,44.45,0,0,1,240.47,99.7Z" fill="#68e1fd"/></g><path d="M191.76,202.68c-.47,1.28-1.95,18.89-1.62,22.31s5.52,3.48,7.1,3.27,4.62-1.82,6.59-2,12.79-2.79,12.34-5.67-2.49-5.57-5-5.59-9.11.74-9.11.74L202,199.88" fill="#ffdacf"/><path d="M204.94,165.16c-3.45-28-12.83-59-12.83-59l-13.65-.7c0-.1,0-.19,0-.29.22-5.15-7.78-5.14-8,0a47.94,47.94,0,0,0,2.27,16.8c1.66,5.11,5.37,9.69,6.34,15.09.56,3.09,1.36,6.17,2.09,9.23,1.39,5.79,2.92,11.55,4.36,17.33.27,1.09,2.66,47.38,2.66,47.38,10.19,3.28,18.62-2.53,18.62-2.53S205.76,171.87,204.94,165.16Z" fill="#55823d"/><path d="M223.13,53.1l-7.94-4.25a2.46,2.46,0,0,0-2.52.42c-.27.18-.26.23-.19.48l.3,1.13,1.15,4.31,1.59,5.93,1.66,6.22,1.38,5.17.75,2.8a1.38,1.38,0,0,1,0,.18l2.28-1.41a1,1,0,0,0,.49-.8l1.54-19.2A1,1,0,0,0,223.13,53.1Z" fill="#653200"/><path d="M213.74,49.3l8.09,4.45a1.13,1.13,0,0,1,.58,1.1L220.5,74.68a1.13,1.13,0,0,1-1.71.86L211.37,71a1.13,1.13,0,0,1-.54-1l1.24-19.77A1.13,1.13,0,0,1,213.74,49.3Z" fill="#844308"/><polygon points="213.3 51.01 220.81 55.31 219.09 74.3 212.06 70.36 213.3 51.01" fill="#68e1fd"/><path d="M211.27,62.89s2.44-3.61,2.44-5.36-2.14.55-2.14.55l.28-4.43s-1.65,2.58-2.49,3.79-3.52,6.94-4,8-4.81,3.79-4.81,3.79,1.25,4.07,2.57,4.35S211,68,211,68Z" fill="#ffdacf"/><path d="M203.15,64.4s4.83,4.28,4,9.14c0,0-6.08,12.08-12.65,14.07S184.18,76.66,186,74.76,203.15,64.4,203.15,64.4Z" fill="#eac011"/><path d="M218.4,76.92s2.25-2.07,1.86-2.7-1.39-6.43-.91-7.59c.85-2.07,3,2.53,3,2.53l.61-8.09s2.36,2.56,2.25,4,.12,11.13,0,11.85-2.14,5.94-2.14,5.94" fill="#ffdacf"/><path d="M193.12,88.87c.45-6.57,2.83-10,1.32-16.4-4.73-5.15-13.65-11.37-14.6-11.57l-5,1.17a9.81,9.81,0,0,0-7.59,9.29c-.27,10.19-.65,27.21-.24,28.57s10.4,9.92,25.13,6.19C192.52,100.37,192.72,94.61,193.12,88.87Z" fill="#fdd400"/><path d="M190.48,47.23s2.08,15.28-3.58,16.57-11.82-5.41-12.11-8.54S183,41.72,190.48,47.23Z" fill="#ffdacf"/><path d="M193.46,50.5a1.59,1.59,0,0,0,1.45-1.86c-.58-3.17-2.75-9.59-10.81-9.74-6.16-.11-10,2.62-11.85,6.75h0l-.11.24-.46,1.34a16.26,16.26,0,0,0-.56,6.14c.26,5.81,4.65,9.07,10.23,9.74,0,0-2.28-8.58,1.43-7.21s6.83.93,5.66-5Z" fill="#f76c28"/><path d="M178.25,46.45l.54.59S178.81,46.71,178.25,46.45Z" fill="#f76c28"/><path d="M176.23,44.22c-1.09-.33-13.68-5.06-17.33,1s-.49,15.27-4.93,16.51-17.25.54-18.43,6.26c-1.15,5.54,4.65,8.75,3.28,11.29-3.49,2.2-6.25,5.11-4.68,9.56a10.7,10.7,0,0,0,4.78,5.45c5.28,3.12,12.45.72,16.8-3,3.81-3.23,3.47-7,2-11.39-1.14-3.32-3.11-7.36.6-9.79,5.52-3.62,11.93.52,13.8-3.62s-6.21-18.53.3-19.81c3.6-.71,5.16-.51,5.85-.2Z" fill="#f76c28"/><path d="M223.82,82.53a9.23,9.23,0,0,0-5.42-5.89c-4.78,4.53-10.64,9.45-12.56,8.68-2.82-1.13-8.45-14.27-16.45-14.93s-7.78,10.41-7.78,10.41,14,21.55,21.54,21.92c6.1.3,17.19-10.41,21.54-15.58A21.76,21.76,0,0,0,223.82,82.53Z" fill="#fdd400"/><path d="M216.18,220.61a7.35,7.35,0,0,0-3-5,13.45,13.45,0,0,1-7.91,5.42,26.09,26.09,0,0,1-15.07-1.22,46.49,46.49,0,0,0-.07,5.15c.33,3.42,5.52,3.48,7.1,3.27s4.62-1.82,6.59-2S216.64,223.48,216.18,220.61Z" fill="#42210b"/><g style="isolation:isolate"><path d="M320.51,129.3l-6.71-3.09a31,31,0,0,0,6.65-3.94l6.71,3.09A31,31,0,0,1,320.51,129.3Z" fill="#2e3192"/><path d="M317.63,125.35l-6.71-3.09a.82.82,0,0,0,.61,0,2,2,0,0,0,.44-.2,34.7,34.7,0,0,0,6.52-4.94l.54-.47,6.71,3.09-.54.47a34.7,34.7,0,0,1-6.52,4.94,2,2,0,0,1-.44.2A.82.82,0,0,1,317.63,125.35Z" fill="#2e3192"/><path d="M308.54,120.72l6.71,3.09a8.33,8.33,0,0,0-6-.32,13.91,13.91,0,0,0-2.8,1.2c-6.06,3.36-10.11,10.87-10,18.27,0,.8.1,1.58.16,2.46l-6.71-3.09c-.06-.88-.14-1.66-.16-2.46-.13-7.39,3.91-14.91,10-18.27a13.91,13.91,0,0,1,2.8-1.2A8.33,8.33,0,0,1,308.54,120.72Z" fill="#2e3192"/><path d="M267,188.37l-6.71-3.09-.2-.09,6.71,3.09Z" fill="#2e3192"/><path d="M266.84,188.28l-6.71-3.09a2.24,2.24,0,0,1-.25-.18l6.71,3.09A2.24,2.24,0,0,0,266.84,188.28Z" fill="#2e3192"/><path d="M266.59,188.1,259.89,185a26.43,26.43,0,0,0,2.65-.63c5.6-1.65,10.72-5.2,15.48-10.85l6.71,3.09c-4.76,5.65-9.87,9.19-15.48,10.85A26.43,26.43,0,0,1,266.59,188.1Z" fill="#2e3192"/><path d="M273.62,169.64l-6.71-3.09a14,14,0,0,0,2.17-.45,12.83,12.83,0,0,0,3.19-1.45l6.71,3.09a12.83,12.83,0,0,1-3.19,1.45A14,14,0,0,1,273.62,169.64Z" fill="#2e3192"/><path d="M278.24,175.86l-6.71-3.09a7.71,7.71,0,0,1-4.62-6.23l6.71,3.09A7.71,7.71,0,0,0,278.24,175.86Z" fill="#2e3192"/><path d="M280.37,144.06,273.66,141q7.12,3.28,16.25,1.36l6.71,3.09Q287.47,147.35,280.37,144.06Z" fill="#2e3192"/><path d="M269.57,155.86l-6.71-3.09a9.24,9.24,0,0,0,5.29.21l6.71,3.09A9.24,9.24,0,0,1,269.57,155.86Z" fill="#2e3192"/><path d="M275.06,167l-6.71-3.09a8.16,8.16,0,0,1-3-2.41,13,13,0,0,1-2.49-8.69l6.71,3.09a13,13,0,0,0,2.49,8.69A8.16,8.16,0,0,0,275.06,167Z" fill="#2e3192"/><path d="M274.87,156.07,268.16,153c-5.26-3.89-6.34-10.08-3.22-18.82l6.71,3.09C268.53,146,269.61,152.18,274.87,156.07Z" fill="#2e3192"/><path d="M320.51,129.3a31,31,0,0,0,6.65-3.94l-.64,1.21a12.57,12.57,0,0,1-.69,1.27c-1.44,2.08-2.88,4.15-4.36,6.2a2,2,0,0,0-.48,1.26,63.27,63.27,0,0,1-11.9,35.88,46.91,46.91,0,0,1-17.24,15.38,39,39,0,0,1-6.65,2.69,27.74,27.74,0,0,1-12.1,1,22.38,22.38,0,0,1-6.24-1.9,1.9,1.9,0,0,1-.25-.18,26.43,26.43,0,0,0,2.65-.63c5.6-1.65,10.72-5.2,15.48-10.85-5.74.95-10.58-2.12-11.1-7a14,14,0,0,0,2.17-.45,12.83,12.83,0,0,0,3.19-1.45,8.26,8.26,0,0,1-6.92-3.19,13,13,0,0,1-2.49-8.69,9.24,9.24,0,0,0,5.29.21c-5.26-3.89-6.34-10.08-3.22-18.82,6.49,7.59,14.76,10.32,25,8.17-.06-.88-.14-1.66-.16-2.46-.13-7.39,3.91-14.91,10-18.27a13.91,13.91,0,0,1,2.8-1.2,8.28,8.28,0,0,1,8.09,1.65.91.91,0,0,0,.92.24,2,2,0,0,0,.44-.2,34.7,34.7,0,0,0,6.52-4.94l.54-.47A23.13,23.13,0,0,1,320.51,129.3Z" fill="#68e1fd"/></g><g style="isolation:isolate"><path d="M98.52,53.1l-5.65-2.6a26.07,26.07,0,0,0,5.59-3.32l5.65,2.6A26.07,26.07,0,0,1,98.52,53.1Z" fill="#2e3192"/><path d="M96.1,49.78l-5.65-2.6a.69.69,0,0,0,.51,0,1.68,1.68,0,0,0,.37-.17,29.21,29.21,0,0,0,5.48-4.16l.45-.4,5.65,2.6-.45.4A29.21,29.21,0,0,1,97,49.64a1.68,1.68,0,0,1-.37.17A.69.69,0,0,1,96.1,49.78Z" fill="#2e3192"/><path d="M88.45,45.89l5.65,2.6A7,7,0,0,0,89,48.22a11.71,11.71,0,0,0-2.35,1c-5.1,2.83-8.51,9.15-8.4,15.38,0,.68.08,1.33.13,2.07l-5.65-2.6c0-.74-.12-1.4-.13-2.07-.11-6.22,3.29-12.55,8.4-15.38a11.71,11.71,0,0,1,2.35-1A7,7,0,0,1,88.45,45.89Z" fill="#2e3192"/><path d="M53.52,102.84l-5.65-2.6-.17-.08,5.65,2.6Z" fill="#2e3192"/><path d="M53.35,102.76l-5.65-2.6a1.88,1.88,0,0,1-.21-.15l5.65,2.6A1.88,1.88,0,0,0,53.35,102.76Z" fill="#2e3192"/><path d="M53.14,102.61,47.49,100a22.25,22.25,0,0,0,2.23-.53c4.72-1.39,9-4.37,13-9.13l5.65,2.6c-4,4.76-8.31,7.74-13,9.13A22.25,22.25,0,0,1,53.14,102.61Z" fill="#2e3192"/><path d="M59.05,87.06l-5.65-2.6a11.76,11.76,0,0,0,1.83-.38,10.8,10.8,0,0,0,2.68-1.22l5.65,2.6a10.8,10.8,0,0,1-2.68,1.22A11.76,11.76,0,0,1,59.05,87.06Z" fill="#2e3192"/><path d="M62.94,92.31,57.3,89.7a6.49,6.49,0,0,1-3.89-5.24l5.65,2.6A6.49,6.49,0,0,0,62.94,92.31Z" fill="#2e3192"/><path d="M64.74,65.54l-5.65-2.6a21.39,21.39,0,0,0,13.68,1.14l5.65,2.6A21.39,21.39,0,0,1,64.74,65.54Z" fill="#2e3192"/><path d="M55.65,75.47,50,72.86a7.78,7.78,0,0,0,4.46.18l5.65,2.6A7.78,7.78,0,0,1,55.65,75.47Z" fill="#2e3192"/><path d="M60.26,84.81l-5.65-2.6a6.87,6.87,0,0,1-2.53-2A10.92,10.92,0,0,1,50,72.86l5.65,2.6a10.92,10.92,0,0,0,2.09,7.31A6.87,6.87,0,0,0,60.26,84.81Z" fill="#2e3192"/><path d="M60.1,75.65,54.46,73C50,69.77,49.12,64.56,51.75,57.2l5.65,2.6C54.77,67.16,55.68,72.37,60.1,75.65Z" fill="#2e3192"/><path d="M98.52,53.1a26.07,26.07,0,0,0,5.59-3.32l-.54,1a10.58,10.58,0,0,1-.58,1.07c-1.21,1.75-2.43,3.5-3.67,5.22a1.7,1.7,0,0,0-.4,1.06,53.26,53.26,0,0,1-10,30.2A39.49,39.49,0,0,1,74.39,101.3a32.86,32.86,0,0,1-5.6,2.26,23.35,23.35,0,0,1-10.19.8,18.84,18.84,0,0,1-5.26-1.6,1.6,1.6,0,0,1-.21-.15,22.25,22.25,0,0,0,2.23-.53c4.72-1.39,9-4.37,13-9.13-4.84.8-8.9-1.79-9.34-5.88a11.76,11.76,0,0,0,1.83-.38,10.8,10.8,0,0,0,2.68-1.22,7,7,0,0,1-5.82-2.69,10.92,10.92,0,0,1-2.09-7.31,7.78,7.78,0,0,0,4.46.18c-4.43-3.28-5.34-8.48-2.71-15.84,5.46,6.39,12.42,8.69,21,6.87,0-.74-.12-1.4-.13-2.07-.11-6.22,3.29-12.55,8.4-15.38a11.71,11.71,0,0,1,2.35-1,7,7,0,0,1,6.81,1.39.76.76,0,0,0,.77.2,1.68,1.68,0,0,0,.37-.17,29.21,29.21,0,0,0,5.48-4.16l.45-.4A19.47,19.47,0,0,1,98.52,53.1Z" fill="#68e1fd"/></g><path d="M317.88,66.66l-54-31a2.27,2.27,0,0,0-3.4,2v20a5.45,5.45,0,0,0,2.79,4.76l52.37,29.31a2.27,2.27,0,0,0,3.38-2V68.64A2.27,2.27,0,0,0,317.88,66.66Z" fill="#68e1fd"/><polyline points="314.03 87.45 314.03 99.15 304.27 84.6" fill="#68e1fd"/><line x1="267.58" y1="46.27" x2="296.24" y2="62.25" fill="#68e1fd"/><path d="M266.82,47.56l28.66,16c1.69.94,3.2-1.65,1.51-2.59L268.34,45c-1.69-.94-3.2,1.65-1.51,2.59Z" fill="#f2f2f2"/><line x1="266.33" y1="54.26" x2="309.64" y2="78.41" fill="#68e1fd"/><path d="M265.57,55.55l43.32,24.16c1.69.94,3.2-1.65,1.51-2.59L267.09,53c-1.69-.94-3.2,1.65-1.51,2.59Z" fill="#f2f2f2"/></svg>