<svg xmlns="http://www.w3.org/2000/svg" xmlns:xlink="http://www.w3.org/1999/xlink" viewBox="0 0 400 300"><defs><linearGradient id="linear-gradient" x1="144.77" y1="258.29" x2="180.87" y2="206.88" gradientUnits="userSpaceOnUse"><stop offset="0" stop-color="#fff" stop-opacity="0"/><stop offset="1"/></linearGradient></defs><title>pp</title><g style="isolation:isolate"><g id="Layer_2" data-name="Layer 2"><path d="M200.08,287.53l144.18-85.21c4.59-2.58,8.53-6.81,4.05-9.58l-144.7-83.4c-2.17-1.34-5.47-2.23-7.68-.94L44.58,196.23C40,198.9,39.17,206.35,43.76,209l137.31,78.38A19.17,19.17,0,0,0,200.08,287.53Z" fill="#f15a24"/><path d="M188.79,261.74l103.1-60.93c3.28-1.84,6.1-4.87,2.9-6.85L191.31,134.32c-1.55-1-3.91-1.59-5.49-.68L77.6,196.46c-3.28,1.91-3.87,7.23-.59,9.14l98.18,56.05A13.71,13.71,0,0,0,188.79,261.74Z" fill="#c1441e"/><polygon points="168.49 189.36 85.91 233.73 155.71 273.57 247.91 219.78 168.49 189.36" opacity="0.5" fill="url(#linear-gradient)" style="mix-blend-mode:multiply"/><path d="M244.26,206.49c.27-1.35,27-73.32,27-73.32s-29.38,58.77-29.38,59.58S244.26,206.49,244.26,206.49Z" fill="#68e1fd"/><path d="M241.83,185.74S269.6,100,269.06,99.2s-30.46,74.94-30.46,74.94Z" fill="#68e1fd"/><path d="M237.25,171c0-.63,31.81-71.8,31.81-71.8l-33.7,64.7Z" fill="#68e1fd"/><path d="M264.48,74.67c-.27.81-29.11,89.23-29.11,89.23s-7-9.17-7-10.51S264.48,74.67,264.48,74.67Z" fill="#68e1fd"/><polygon points="235.36 151.23 256.52 57.96 229.97 143.68 235.36 151.23" fill="#68e1fd"/><path d="M226.74,133.17s23.72-91.12,22.91-89.77-37.2,107.83-37.2,107.83l6.47,4.58Z" fill="#68e1fd"/><polygon points="218.65 139.1 235.36 42.05 214.6 128.86 218.65 139.1" fill="#68e1fd"/><path d="M230,22.91c.27,1.08-12.4,110.26-12.4,110.26l-7.28-1.35Z" fill="#68e1fd"/><path d="M216,16.44c0,1.08-14.29,118.66-14.29,118.66s10.78,1.12,10.78,0S216,16.44,216,16.44Z" fill="#68e1fd"/><path d="M203,16.44c0,.54-7,114.29-7,114.29l8.09-3.49Z" fill="#68e1fd"/><path d="M193.85,9.44,188.73,128s10.78-4.85,11.32-4.85S193.85,9.44,193.85,9.44Z" fill="#68e1fd"/><polygon points="181.18 26.42 193.04 122.39 179.83 121.31 181.18 26.42" fill="#68e1fd"/><path d="M186.6,155.7c-.27-2.16-19.44-113.64-19.44-113.64s14.23,115.44,14.25,116.3C181.66,168,186.6,155.7,186.6,155.7Z" fill="#68e1fd"/><g opacity="0.47"><path d="M244.26,206.49c.27-1.35,27-73.32,27-73.32s-29.38,58.77-29.38,59.58S244.26,206.49,244.26,206.49Z" fill="#5f5d51"/><path d="M241.83,185.74S269.6,100,269.06,99.2s-30.46,74.94-30.46,74.94Z" fill="#5f5d51"/><path d="M237.25,171c0-.63,31.81-71.8,31.81-71.8l-33.7,64.7Z" fill="#5f5d51"/><path d="M264.48,74.67c-.27.81-29.11,89.23-29.11,89.23s-7-9.17-7-10.51S264.48,74.67,264.48,74.67Z" fill="#5f5d51"/><polygon points="235.36 151.23 256.52 57.96 229.97 143.68 235.36 151.23" fill="#5f5d51"/><path d="M226.74,133.17s23.72-91.12,22.91-89.77-37.2,107.83-37.2,107.83l6.47,4.58Z" fill="#5f5d51"/><polygon points="218.65 139.1 235.36 42.05 214.6 128.86 218.65 139.1" fill="#5f5d51"/><path d="M230,22.91c.27,1.08-12.4,110.26-12.4,110.26l-7.28-1.35Z" fill="#5f5d51"/><path d="M216,16.44c0,1.08-14.29,118.66-14.29,118.66s10.78,1.12,10.78,0S216,16.44,216,16.44Z" fill="#5f5d51"/><path d="M203,16.44c0,.54-7,114.29-7,114.29l8.09-3.49Z" fill="#5f5d51"/><path d="M193.85,9.44,188.73,128s10.78-4.85,11.32-4.85S193.85,9.44,193.85,9.44Z" fill="#5f5d51"/><polygon points="181.18 26.42 193.04 122.39 179.83 121.31 181.18 26.42" fill="#5f5d51"/><path d="M186.6,155.7c-.27-2.16-19.44-113.64-19.44-113.64s14.23,115.44,14.25,116.3C181.66,168,186.6,155.7,186.6,155.7Z" fill="#5f5d51"/></g><path d="M184.59,154.67l-4.46-76.75,10.41,67.23L183.4,60.44l11.9,71V47.58c0,.89,6.54,94.75,6.54,94.75L206,49.07l4.76,89.81,5.95-84.11s-2.38,75.21-2.08,74.32,12.49-66,12.49-66l-4.76,79.21,22.31-63.22-12.79,69.61,19.93-52.43-13.68,74.05,23.5-56.42s-17,79.44-17.85,82.41,4.46,8.92,3.57,9.22S225,171.63,225,171.63l-18.74-19Z" fill="#68e1fd"/><polyline points="136.7 186.25 133.25 227.37 139.37 188.76" fill="#a09c93"/><polygon points="125.03 211.1 123.55 226.15 133.25 213.72 134.4 225.23 140.97 211.1 140.32 231.51 146.22 213.72 148.21 237.06 155.36 218.02 158.96 238.26 165.3 228.68 170.31 247.25 173.85 234.44 183.13 247.25 189.08 238.26 193.3 244.3 201.43 233.61 203.76 240.84 210.38 227.37 211.87 237.06 218.02 225.4 227.1 226.15 237.94 226.15 235.28 222.77 243.7 223.92 242.55 218.77 249.64 219.64 244.95 196.47 240.65 185.3 237.01 178.01 241.71 156.86 240.08 142.86 229.06 159.16 231.63 139.94 217.29 155.69 219.66 135.48 209.57 148.97 212.47 117.58 203.12 143.68 193.3 120.21 189.67 148.48 179.76 131.4 177.38 157.68 172.19 130.12 171.32 166.88 162.5 134.69 163.33 166.95 151.39 157.41 155.36 172.79 145 166.95 146.22 179.26 135.39 178.01 133.25 191.87 125.03 211.1" fill="#68e1fd"/><polygon points="125.03 211.1 123.55 226.15 133.25 213.72 134.4 225.23 140.97 211.1 140.32 231.51 146.22 213.72 148.21 237.06 155.36 218.02 158.96 238.26 165.3 228.68 170.31 247.25 173.85 234.44 183.13 247.25 189.08 238.26 193.3 244.3 201.43 233.61 203.76 240.84 210.38 227.37 211.87 237.06 218.02 225.4 227.1 226.15 237.94 226.15 235.28 222.77 243.7 223.92 242.55 218.77 249.64 219.64 244.95 196.47 240.65 185.3 237.01 178.01 241.71 156.86 240.08 142.86 229.06 159.16 231.63 139.94 217.29 155.69 219.66 135.48 209.57 148.97 212.47 117.58 203.12 143.68 193.3 120.21 189.67 148.48 179.76 131.4 177.38 157.68 172.19 130.12 171.32 166.88 162.5 134.69 163.33 166.95 151.39 157.41 155.36 172.79 145 166.95 146.22 179.26 135.39 178.01 133.25 191.87 125.03 211.1" fill="#382a1c" opacity="0.4"/><path d="M129.63,210.28c0,.43-1.64,4.69-3.22,8.69-1.46,3.7-2.86,7.18-2.86,7.18l9.7-12.43.82-16.52,9.53-11.89-4.23,11.89v12.75l-1,5.07-1,5.29-4.77,15.45,8.38-17,2.63-11.29,3.45-11.94,7.49-9.29-.46,5.62-3.25,16.93.33,6.9-4.95,22.56L154.54,215,159,238.26l1-24.55,8.31,33.87,2-20.22,5.7,21.86,4.58-18.69,3.85,17.87-1.3-25.48-.43-16.12,4.46,20.56-1.1-28.86-18.29-6.24-4.87-10.83L143.18,178l-9.93,9.17-6.08,14.1L125,211.1l5.37-10Z" fill="#5f5d51"/><path d="M229.06,189.63l-51.89-28.16-31,18.71-9.47,7.35S152,198.58,152.12,199s9.29,6.17,9.29,6.17l20.9,2,6.49,2.63Z" fill="#68e1fd"/><path d="M229.06,189.63l-51.89-28.16-31,18.71-9.47,7.35S152,198.58,152.12,199s9.29,6.17,9.29,6.17l20.9,2,6.49,2.63Z" fill="#382a1c" opacity="0.55"/><path d="M195.11,92.58s3.41-1.49,3-3.63a3.17,3.17,0,0,0-3.84-2.77c-1.71.43-4.1,1.93-3,4.8C192,92.9,195.11,92.58,195.11,92.58Z" fill="#5f5d51"/><ellipse cx="207.14" cy="75.26" rx="2.86" ry="3.94" fill="#5f5d51"/><polygon points="193.3 104.84 198.13 170.03 201.65 170.03 196.78 104.41 193.3 104.84" fill="#68e1fd"/><path d="M202.85,91.94s-.57,72.89,0,73.18,3.44,1,3.44,1l1.58-73.53Z" fill="#68e1fd"/><path d="M229.34,90.66c-1.43,1.41-23,72-23,72.74a31.66,31.66,0,0,0,1.52,4.56l23.77-76" fill="#68e1fd"/><path d="M248.1,123.31c-.72.14-7.59,2.58-7.59,2.58l-24.78,14.06-29.17,22.17,36.18-19.4,26.71-17.54" fill="#68e1fd"/><path d="M248.53,138.77c-.86.14-58.86,26.21-58.86,26.21l46.26-17.19,13.71-7" fill="#68e1fd"/><path d="M238.36,108c-.14.45-3.88,9-3.88,9l-1.7,1s-23.77,60.15-23.2,60.72,4-1.58,4-1.58l23.92-58.57,2.58-8.88" fill="#68e1fd"/><polygon points="193.3 104.84 198.13 170.03 201.65 170.03 196.78 104.41 193.3 104.84" fill="#382a1c" opacity="0.4"/><path d="M202.85,91.94s-.57,72.89,0,73.18,3.44,1,3.44,1l1.58-73.53Z" fill="#382a1c" opacity="0.4"/><path d="M229.34,90.66c-1.43,1.41-23,72-23,72.74a31.66,31.66,0,0,0,1.52,4.56l23.77-76" fill="#382a1c" opacity="0.4"/><path d="M248.1,123.31c-.72.14-7.59,2.58-7.59,2.58l-24.78,14.06-29.17,22.17,36.18-19.4,26.71-17.54" fill="#382a1c" opacity="0.4"/><path d="M248.53,138.77c-.86.14-58.86,26.21-58.86,26.21l46.26-17.19,13.71-7" fill="#382a1c" opacity="0.4"/><path d="M238.36,108c-.14.45-3.88,9-3.88,9l-1.7,1s-23.77,60.15-23.2,60.72,4-1.58,4-1.58l23.92-58.57,2.58-8.88" fill="#382a1c" opacity="0.4"/><path d="M150.93,181l-26.53-7.27-1.25,5.51s1.06,3.63-1.76,4,0-4.22,0-4.22l1.41-6.56-8.21-2.23h-2.34l-1.64-1.41a5.79,5.79,0,0,0-2.58,0c-1.06.35-.7-3.52,0-4.1s2.58,0,2.58,0l.35,1.64s2.93-.12,3.4.47,8.67,2.93,8.67,2.93l2.11-7.39s-.12-3.75,1.52-3.63-.35,4.34-.35,4.34l-1.17,7L160,179l-6,3.28Z" fill="#68e1fd"/><path d="M158,177.4l-1.67-27.46-5.62.59s-3.1,2.17-4.34-.38,4-1.36,4-1.36l6.67-.78-.54-8.49-.76-2.22.8-2a5.79,5.79,0,0,0-.83-2.44c-.67-.89,3.1-1.8,3.88-1.32s.83,2.44.83,2.44l-1.44.86s1.06,2.74.65,3.37,0,9.16,0,9.16l7.67-.38s3.51-1.32,3.93.27-4.22,1.07-4.22,1.07l-7,1.16,2.79,35.83-5-4.6Z" fill="#68e1fd"/><path d="M162,176.9l-13.17-24.15L144,155.67s-1.89,3.28-4.09,1.5,3-2.93,3-2.93l5.7-3.54-4.09-7.46-1.63-1.69-.13-2.16a5.79,5.79,0,0,0-1.79-1.86c-1-.52,2-2.95,3-2.85s1.79,1.86,1.79,1.86l-.94,1.39s2.12,2,2,2.77,3.91,8.28,3.91,8.28l6.78-3.6s2.62-2.69,3.67-1.42-3.37,2.76-3.37,2.76l-5.88,4L169.71,182l-6.51-2Z" fill="#68e1fd"/><path d="M161,178.75l-18.87-20-3.94,4.05s-1,3.65-3.58,2.49,2.2-3.6,2.2-3.6l4.62-4.87-5.85-6.17-2-1.22-.67-2.06a5.79,5.79,0,0,0-2.2-1.34c-1.08-.25,1.23-3.37,2.14-3.5s2.2,1.34,2.2,1.34l-.55,1.58s2.56,1.43,2.66,2.17,5.88,7,5.88,7l5.65-5.21s1.85-3.26,3.19-2.31-2.56,3.52-2.56,3.52L144.63,156l25.08,25.74-6.81-.31Z" fill="#68e1fd"/><path d="M147.76,186.67l-18-26-5.17,3.93s-1.75,4-4.49,2.21,3.11-3.72,3.11-3.72l6.08-4.75-5.59-8-2.07-1.73-.41-2.45a6.65,6.65,0,0,0-2.27-1.9c-1.19-.47,2-3.62,3-3.61s2.27,1.9,2.27,1.9l-.9,1.71s2.67,2.06,2.65,2.92,5.48,9,5.48,9l7.31-4.95s2.66-3.39,4-2.08-3.51,3.56-3.51,3.56l-6.22,5.33,24.1,33.52-7.69-1.52Z" fill="#68e1fd"/><g opacity="0.63"><path d="M150.93,181l-26.53-7.27-1.25,5.51s1.06,3.63-1.76,4,0-4.22,0-4.22l1.41-6.56-8.21-2.23h-2.34l-1.64-1.41a5.79,5.79,0,0,0-2.58,0c-1.06.35-.7-3.52,0-4.1s2.58,0,2.58,0l.35,1.64s2.93-.12,3.4.47,8.67,2.93,8.67,2.93l2.11-7.39s-.12-3.75,1.52-3.63-.35,4.34-.35,4.34l-1.17,7L160,179l-6,3.28Z" fill="#382a1c"/><path d="M158,177.4l-1.67-27.46-5.62.59s-3.1,2.17-4.34-.38,4-1.36,4-1.36l6.67-.78-.54-8.49-.76-2.22.8-2a5.79,5.79,0,0,0-.83-2.44c-.67-.89,3.1-1.8,3.88-1.32s.83,2.44.83,2.44l-1.44.86s1.06,2.74.65,3.37,0,9.16,0,9.16l7.67-.38s3.51-1.32,3.93.27-4.22,1.07-4.22,1.07l-7,1.16,2.79,35.83-5-4.6Z" fill="#382a1c"/><path d="M162,176.9l-13.17-24.15L144,155.67s-1.89,3.28-4.09,1.5,3-2.93,3-2.93l5.7-3.54-4.09-7.46-1.63-1.69-.13-2.16a5.79,5.79,0,0,0-1.79-1.86c-1-.52,2-2.95,3-2.85s1.79,1.86,1.79,1.86l-.94,1.39s2.12,2,2,2.77,3.91,8.28,3.91,8.28l6.78-3.6s2.62-2.69,3.67-1.42-3.37,2.76-3.37,2.76l-5.88,4L169.71,182l-6.51-2Z" fill="#382a1c"/><path d="M161,178.75l-18.87-20-3.94,4.05s-1,3.65-3.58,2.49,2.2-3.6,2.2-3.6l4.62-4.87-5.85-6.17-2-1.22-.67-2.06a5.79,5.79,0,0,0-2.2-1.34c-1.08-.25,1.23-3.37,2.14-3.5s2.2,1.34,2.2,1.34l-.55,1.58s2.56,1.43,2.66,2.17,5.88,7,5.88,7l5.65-5.21s1.85-3.26,3.19-2.31-2.56,3.52-2.56,3.52L144.63,156l25.08,25.74-6.81-.31Z" fill="#382a1c"/><path d="M147.76,186.67l-18-26-5.17,3.93s-1.75,4-4.49,2.21,3.11-3.72,3.11-3.72l6.08-4.75-5.59-8-2.07-1.73-.41-2.45a6.65,6.65,0,0,0-2.27-1.9c-1.19-.47,2-3.62,3-3.61s2.27,1.9,2.27,1.9l-.9,1.71s2.67,2.06,2.65,2.92,5.48,9,5.48,9l7.31-4.95s2.66-3.39,4-2.08-3.51,3.56-3.51,3.56l-6.22,5.33,24.1,33.52-7.69-1.52Z" fill="#382a1c"/></g><polygon points="171.32 166.88 161.55 200.41 167.44 199.1 175 160.8 171.32 166.88" fill="#a09c93"/><polyline points="191.1 167.96 189.67 168.53 155.77 182.01 144.43 190.72 148.73 195.03 157.9 185.3" fill="#a09c93"/><polygon points="197.47 173.29 154.54 195.54 158.77 199.2 197.47 173.29" fill="#a09c93"/><polygon points="228.08 186.25 229.56 188.25 194.06 206 179.76 208.14 228.08 186.25" fill="#5f5d51"/><path d="M213.78,178.83c0,.06-16.31,22.9-16.31,22.9l-8.39,2.19,18.78-28.16Z" fill="#5f5d51"/><polygon points="201.43 174.44 189.08 189.24 167.44 199.1 176.01 203.07 191.1 192.03 201.43 174.44" fill="#5f5d51"/><polygon points="148.21 190.55 192.42 171.32 154.54 194 148.21 190.55" fill="#5f5d51"/><path d="M183.21,165l-35,12.26-11.5,9s1.73,2.68,2.67,2.51S183.21,165,183.21,165Z" fill="#a09c93"/><path d="M169.71,160.8c-.47.49-17.51,31.06-17.51,31.06l-4-1.31Z" fill="#5f5d51"/><polygon points="196.73 173.29 206.81 177.33 166.33 187.14 196.73 173.29" fill="#5f5d51"/><polygon points="177.38 161.46 185.68 164.98 168.27 171.32 157.18 172.44 177.38 161.46" fill="#5f5d51"/><path d="M219.66,181.49c.37-.31,5.17,3.81,5.17,3.81l-43.42,17.77,8.27-6.76Z" fill="#a09c93"/><polygon points="173.85 200.41 209.58 178.73 201.43 174.44 173.85 200.41" fill="#a09c93"/><path d="M144.43,190.72l1,19.23L141,237.07S149,209.95,149,209.12s-.3-14.09-.3-14.09Z" fill="#a09c93"/><polyline points="154.54 195.54 155.44 207.48 156.59 213.89 148.21 242 156.59 223.75 159.96 213.72 158.77 199.2" fill="#a09c93"/><polyline points="161.55 200.41 165.46 218.77 163.5 232.96 166.33 240.19 168.27 221.94 171.43 213.89 167.44 199.1" fill="#a09c93"/><polyline points="176.01 203.07 175 229.18 177.63 249.23 178.94 227.37 178.94 203.07" fill="#a09c93"/><path d="M172.2,131.61s2.08-6.23,4.15-13.85c0,0,1.62-2.08.81-3s-3.35,0-2.37,2.54c0,0-3.29,7.73-3.75,13,0,0-2.08,1.38-1,2.77S173.35,132.88,172.2,131.61Z" fill="#5f5d51"/><path d="M173.55,120.55l-10.12-7.62a58.39,58.39,0,0,0-3.58-5c-.35-.12-2.88,4.38-2.65,5s4.38,1.33,4.38,1.33l10.81,8.28s27.39,25,49.89,43.35S241.55,182,241.55,182s-39.18-41.21-66.5-61.17" fill="#5f5d51"/><ellipse cx="249.46" cy="124.02" rx="3.22" ry="2.72" fill="#5f5d51"/><circle cx="249.64" cy="139.45" r="3.4" fill="#5f5d51"/><path d="M243.23,125.74c-.43.14-8-7.16-8-7.16l8.88,17.47.86-1.29Z" fill="#5f5d51"/><path d="M236.65,135.48l8.31,16.4a21.06,21.06,0,0,1-6.78-5.23C235.36,143.21,236.65,135.48,236.65,135.48Z" fill="#5f5d51"/><ellipse cx="239.22" cy="107.97" rx="2.58" ry="3.22" fill="#5f5d51"/><path d="M229.06,112.14l14.18,8.31s-4.67,1.83-8,.86S229.06,112.14,229.06,112.14Z" fill="#5f5d51"/><ellipse cx="230.2" cy="90.58" rx="2.58" ry="3.22" fill="#5f5d51"/><path d="M205.71,76c.14.57-.72,13.29-.72,13.29l-6.86-2.55,4.71,5.16,5.87,1.86,3.87-1.21-4.87-2V77.19" fill="#5f5d51"/><polygon points="217.29 99.53 221.27 99.53 233.05 108.28 234.48 112.92 217.29 99.53" fill="#5f5d51"/><path d="M193.3,90.66v12.69s-2.56-1.71-3.31-3.63-.21-2.88-1.28-2.72-2.56-.37-2,1.23a9,9,0,0,0,6.61,6.61c4.8,1.17,9.6-.32,10.13-1.17s-.53-2.35-1.39-2.35-1,1-1.6,1.17a7.83,7.83,0,0,1-4.69,1.17l-.32-13" fill="#5f5d51"/><path d="M230.31,215.43l.86-28.32-5.82.08s-3.38,1.94-4.42-.8,4.22-1,4.22-1l6.91-.18.24-8.75-.57-2.35,1-2a6,6,0,0,0-.62-2.58c-.61-1,3.35-1.55,4.11-1s.62,2.58.62,2.58l-1.56.75s.83,2.91.35,3.52-.84,9.39-.84,9.39l7.9.33s3.73-1,4,.65-4.43.7-4.43.7L235,187l-.5,37h0Z" fill="#382a1c"/><path d="M208.6,220.76l-3-31.62-6.46.89s-3.5,2.62-5-.28,4.56-1.72,4.56-1.72l7.66-1.16-.94-9.77-1-2.53.85-2.35a6.68,6.68,0,0,0-1.05-2.79c-.81-1,3.51-2.19,4.43-1.67s1.05,2.79,1.05,2.79l-1.63,1s1.32,3.12.88,3.86.37,10.56.37,10.56l8.84-.73s4-1.66,4.55.17-4.83,1.39-4.83,1.39l-8.08,1.6.26,53.86h0Z" fill="#382a1c"/><path d="M191.36,230.89,184,200l-6.28,1.78s-3.1,3.08-5,.42,4.28-2.33,4.28-2.33l7.43-2.21-2.28-9.55-1.3-2.38.52-2.44a6.68,6.68,0,0,0-1.43-2.61c-.94-.87,3.17-2.66,4.16-2.27s1.43,2.61,1.43,2.61l-1.47,1.26s1.74,2.9,1.41,3.7,1.83,10.41,1.83,10.41l8.65-1.95s3.74-2.19,4.53-.47-4.59,2-4.59,2l-7.78,2.7L195.86,252h0Z" fill="#382a1c"/><path d="M201.6,214.58,200.39,189l-5.24.48s-2.91,2-4-.41,3.74-1.22,3.74-1.22l6.22-.65-.39-7.91-.68-2.08.77-1.86a5.39,5.39,0,0,0-.74-2.28c-.62-.83,2.91-1.64,3.63-1.18s.74,2.28.74,2.28l-1.35.78s.95,2.56.56,3.15-.1,8.53-.1,8.53l7.15-.26s3.29-1.18,3.66.3-3.94.94-3.94.94l-6.57,1L202,232h0Z" fill="#382a1c"/><path d="M226.75,216.81l-10.1-23.54-4.74,2.29s-2,2.88-3.92,1,3.07-2.45,3.07-2.45l5.6-2.79-3.14-7.27-1.36-1.71.07-2a5.39,5.39,0,0,0-1.5-1.88c-.87-.56,2.15-2.55,3-2.38s1.5,1.88,1.5,1.88l-1,1.21s1.79,2.07,1.63,2.75,2.9,8,2.9,8l6.6-2.75s2.66-2.26,3.53-1-3.36,2.26-3.36,2.26l-5.8,3.23L233.26,233h0Z" fill="#382a1c"/><path d="M193.32,222.31l-1.21-25.59-5.24.48s-2.91,2-4-.41,3.74-1.22,3.74-1.22l6.22-.65-.39-7.91-.68-2.08.77-1.86a5.39,5.39,0,0,0-.74-2.28c-.62-.83,2.91-1.64,3.63-1.18s.74,2.28.74,2.28l-1.35.78s.95,2.56.56,3.15-.1,8.53-.1,8.53l7.15-.26s3.29-1.18,3.66.3-3.94.94-3.94.94l-6.57,1-1.8,43.41h0Z" fill="#382a1c"/><path d="M219,232l-1.08-45-5.79.61s-3.19,2.24-4.47-.39,4.11-1.4,4.11-1.4l6.87-.81-.56-8.74-.78-2.29.83-2.07a6,6,0,0,0-.86-2.51c-.69-.91,3.19-1.85,4-1.36s.86,2.51.86,2.51l-1.48.89s1.09,2.82.67,3.47,0,9.43,0,9.43l7.9-.4s3.62-1.36,4,.28-4.34,1.1-4.34,1.1l-7.25,1.19,2.88,36.9h0Z" fill="#382a1c"/><path d="M147.79,226.47s-.49,3.72-2.73,5.18-10.14,3.53-8.89,6.44,6.36,3.32,8.89,2.7,11.33-6.32,11.33-6.32L155,221.89" fill="#734f37"/><path d="M161,234.74s-.49,3.72-2.73,5.18-10.14,3.53-8.89,6.44,6.36,3.32,8.89,2.7,11.33-6.32,11.33-6.32l-1.39-12.58" fill="#734f37"/><path d="M180.18,142.91s-5,4.86-3.51,7.75,7.65,4,7.65,4l4.69-5.87-1.63-4.94" fill="#e88f80"/><path d="M175.45,171.13s-22.11,7.32-25.76,17.25-4.61,38.78-2,40.72c0,0,10.14,1.2,13.92-6.91,0,0,.64-12.93.1-21.75,0,0,11.48-.07,18.74-6.07,4.33-3.58,6.2-20.69,3.63-22.65S176.85,160.84,175.45,171.13Z" fill="#1e2128"/><path d="M179,175.48s-15.58,5.95-19.23,15.88-4,45.72-1.34,47.66c0,0,8.56,3.4,12.34-4.7,0,0,2.74-23.07,2.21-31.9a61,61,0,0,0,16.53-9.22c4.33-3.58,4.32-16,1.75-18S180.36,165.19,179,175.48Z" fill="#1e2128"/><path d="M183.22,152.24s-.22-3.55,2.22-5.25,8.54-4.34,10.11-3.15-1.84,6-1.84,6,5.12,4.35,6.17,8-4.06,20.51-5.78,23.39-23.36,11-24.62,10.63-6.94-7.1-6.13-7.82,12.63-5,12.36-6c0,0-7.46.31-7.14-1.78s.91-4.31.91-4.31-11.14,10.88-12.57,10.62-6.16-2-6.16-2.89,16.68-16.55,16.68-17.34,3-17.67,4.82-19.4c4.52-4.2,6-.81,6.19-2s2.52,1,1.21,4.72S179.17,152.11,183.22,152.24Z" fill="#353942"/><path d="M152.09,180.28l-4.72,4.86c-.84.87.07,4.6,1.24,4.6s3.49-2.94,3.49-2.94-.4,2.28.55,2.43.59-3,1-3.53a34.17,34.17,0,0,1,2.22-3.4l-.33-.41A12.48,12.48,0,0,1,152.09,180.28Z" fill="#ffac99"/><path d="M173.63,177.36l-.6-.05c-7.43,4.17-13.88,9.88-15.5,18.7-1,5.62-.89,11.51-1.16,17.2l-1,20.82c-.06,1.22,1.85,1.22,1.9,0,.51-10.92.82-21.88,1.54-32.79.77-11.72,7.47-18.47,17.53-23.57l.05,0A11.52,11.52,0,0,1,173.63,177.36Z" fill="#1e2128"/><path d="M164.81,186.07c-1.24.72-4.47,2.64-4.88,3.29-.51.81,1.73-.08,1.67.28s-3.19,2.6-3.21,4-.58,2.14.46,2.61,3.91-1.51,5-2.06a33.9,33.9,0,0,0,4.27-3.79A15.14,15.14,0,0,1,164.81,186.07Z" fill="#ffac99"/><path d="M200,155.25c-.74-.68-6.32-5.39-6.32-5.39l-10.49,2.38-6,14.24,3-23.57s-7.65-2.25-7.93,0c-.25,2.05-3.32,27.64-4,33.06,2.61,1.58,6.38,2.21,9.57,2.2C180.74,175.4,200.72,155.89,200,155.25Z" fill="#1e2128"/><path d="M179.18,142.52s-2.63,1.84-3.87,0,.93-3.87.93-3.87-3.07-.84-2.35-2.38,1.61-3.53,3.07-3.46,10.13-9,13.92-7.13,2.59,8.61,3.68,9.49,3.6,3.24.33,5.22c0,0,3,1.47.19,3.8s-9.13,0-9.13,0" fill="#734f37"/><path d="M177.77,130.17s-2.9,13.31,4.26,16.2c5.22,2.11,8.82-3.42,9.66-6.86,1-4.05-1.35-8.45-5.16-11.14C183.14,126,178.66,126.11,177.77,130.17Z" fill="#ffac99"/><path d="M177.06,134.86s2.58.29,3.16-1.44-1.29-4.32.87-4.17,4.31,1.16,4.31,2.81-1.28,10.79,2,9.9a14.84,14.84,0,0,0,5.94-3.66s3-13.23-4.22-14.38S176.09,124.9,177.06,134.86Z" fill="#734f37"/><path d="M192.29,136.58c-2.48-1.56-3.64,3.9-3.5,5.33.08.82,1.37.83,1.29,0,0,0,0,0,0-.07l.1,0a4.7,4.7,0,0,0,2.45-2.44C193,138.51,193.25,137.18,192.29,136.58Z" fill="#ffac99"/><path d="M177.5,139.73s1.44,1.38,2.46.68,1.51-.19,2.59.84,3.27,0,3.27,0l3.08-.84s-.09,4-1.35,5.36a7.71,7.71,0,0,1-6.48,1.9C178.64,147.22,177.66,140.86,177.5,139.73Z" fill="#734f37"/><ellipse cx="186.11" cy="160.14" rx="1.55" ry="2.49" fill="#a5a5a5"/></g></g></svg>