<svg xmlns="http://www.w3.org/2000/svg" xmlns:xlink="http://www.w3.org/1999/xlink" viewBox="0 0 400 300"><defs><linearGradient id="linear-gradient" x1="204.79" y1="189.97" x2="177.27" y2="208.76" gradientUnits="userSpaceOnUse"><stop offset="0" stop-color="gray"/><stop offset="1" stop-color="#fff"/></linearGradient><linearGradient id="linear-gradient-2" x1="158.54" y1="135.65" x2="86.3" y2="199.86" xlink:href="#linear-gradient"/><linearGradient id="linear-gradient-3" x1="313.73" y1="192.99" x2="273.71" y2="212.69" xlink:href="#linear-gradient"/><linearGradient id="linear-gradient-4" x1="220.86" y1="247.44" x2="188.35" y2="269.64" xlink:href="#linear-gradient"/></defs><title>PP</title><g style="isolation:isolate"><g id="Layer_2" data-name="Layer 2"><path d="M194.28,287.67,14.56,181.45C8.84,178.24,3.93,173,9.51,169.5l180.37-104c2.71-1.68,6.82-2.78,9.57-1.18L388.11,173.86c5.72,3.32,6.75,12.6,1,15.93L218,287.5A23.9,23.9,0,0,1,194.28,287.67Z" fill="#e15ae5"/><polyline points="201.33 186.96 164.18 210.7 175.66 216.86 204.82 196.19" fill="url(#linear-gradient)" style="mix-blend-mode:multiply"/><path d="M89.95,219.22c5-2.68,72.64-49,72.64-49-.69-2.06-46.78-14-63.79-3.15L47,196.59Z" fill="url(#linear-gradient-2)" style="mix-blend-mode:multiply"/><polygon points="123.87 85.78 80.14 178.76 83.13 180.62 126.89 88 123.87 85.78" fill="#565ec0"/><path d="M126,87.16s-6.64,42.16-19.13,53.09S69,161.34,69,161.34l35.14,21.08s50.36-10.54,52.31-75.35Z" fill="#68e1fd"/><polygon points="156.44 107.07 112.72 200.05 115.71 201.91 159.47 109.29 156.44 107.07" fill="#565ec0"/><polygon points="158.04 170.22 147.42 126.25 144.16 133.2 154.71 170.22 158.04 170.22" fill="#403d8c"/><polygon points="125.98 171.84 162.59 164.46 162.59 170.22 124.69 176.88 125.98 171.84" fill="#403d8c"/><path d="M119.24,191.13C118.33,190.53,85,172,85,172l-2.12,4.85,34.56,19.71Z" fill="#403d8c"/><path d="M315.85,193.14l-62.1,14.48,21.41,19.26,47.6-28.79C321.34,195.91,317.6,195.07,315.85,193.14Z" fill="url(#linear-gradient-3)" style="mix-blend-mode:multiply"/><path d="M317.13,42s0-.07,0-.11,0-.17,0-.25c-.26-2.12,2.75-2.25,3.46-.49a1.48,1.48,0,0,1,.08.23,1.78,1.78,0,0,1,.08.25,361.08,361.08,0,0,1,2.64,46.76,1.83,1.83,0,0,1-3.42.83A1.91,1.91,0,0,1,317,87.81,305.65,305.65,0,0,1,317.13,42Z" fill="#ab9e5a"/><path d="M281.82,77.36c.13-.24.32-.4.47-.62a1.52,1.52,0,0,1,.28-1.12c8.75-12.47,25.21-7.36,32.7,3.3a15.35,15.35,0,0,1,3.8,8.53c.26,2.16-2.87,2.25-3.5.38a1.7,1.7,0,0,1-.43-.78,18.44,18.44,0,0,0-3.09-6.38c-2.68-2.6-6.53-4.1-10.32-4.86-4.81-1-13.89-1.93-16.78,3.38C283.83,81.23,280.71,79.41,281.82,77.36Z" fill="#575c1c"/><path d="M277.88,65.21c14.86-10.14,38.9,3.22,41,20.35a1.48,1.48,0,0,1-1.62,1.72,1.44,1.44,0,0,1-2.09-.74c-6.22-14.38-18.59-24.66-34.83-18.39a1.63,1.63,0,0,1-.35.06l-.23.13C277.78,69.65,276,66.51,277.88,65.21Z" fill="#636d27"/><path d="M286.69,55.47a1.92,1.92,0,0,1,.3-.31,3.8,3.8,0,0,1,3-.71c17.52-1.66,31.83,16,32,32.62a1.7,1.7,0,0,1-2,1.71,1.87,1.87,0,0,1-2.92-.87c-2.42-7.39-3.86-15.44-9.43-21.25a25.94,25.94,0,0,0-20.34-7.73C285.18,59.05,285,56.14,286.69,55.47Z" fill="#746927"/><path d="M295.37,47.23a1.8,1.8,0,0,1,1.19-.21c17.65,3,25,19.43,25.53,35.83,0,.4.08.79.1,1.18.13,2.33-3.49,2.32-3.62,0,0,0,0-.09,0-.13a1.68,1.68,0,0,1-.06-.26c0-.26,0-.52,0-.79-1.19-14.57-8.73-28.1-23.64-32.11C292.74,50.19,293.44,47.16,295.37,47.23Z" fill="#7d7a33"/><path d="M320.59,42s0-.07,0-.11,0-.17,0-.25c.26-2.12-2.75-2.25-3.46-.49a1.48,1.48,0,0,0-.08.23,1.78,1.78,0,0,0-.08.25,361.08,361.08,0,0,0-2.64,46.76,1.83,1.83,0,0,0,3.42.83,1.91,1.91,0,0,0,2.94-1.43A305.65,305.65,0,0,0,320.59,42Z" fill="#ab9e5a"/><path d="M355.9,77.36c-.13-.24-.32-.4-.47-.62a1.52,1.52,0,0,0-.28-1.12c-8.75-12.47-25.21-7.36-32.7,3.3a15.35,15.35,0,0,0-3.8,8.53c-.26,2.16,2.87,2.25,3.5.38a1.7,1.7,0,0,0,.43-.78,18.44,18.44,0,0,1,3.09-6.38c2.68-2.6,6.53-4.1,10.32-4.86,4.81-1,13.89-1.93,16.78,3.38C353.89,81.23,357,79.41,355.9,77.36Z" fill="#575c1c"/><path d="M359.84,65.21c-14.86-10.14-38.9,3.22-41,20.35a1.48,1.48,0,0,0,1.62,1.72,1.44,1.44,0,0,0,2.09-.74c6.22-14.38,18.59-24.66,34.83-18.39a1.63,1.63,0,0,0,.35.06l.23.13C359.95,69.65,361.76,66.51,359.84,65.21Z" fill="#636d27"/><path d="M351,55.47a1.92,1.92,0,0,0-.3-.31,3.8,3.8,0,0,0-3-.71c-17.52-1.66-31.83,16-32,32.62a1.7,1.7,0,0,0,2,1.71,1.87,1.87,0,0,0,2.92-.87c2.42-7.39,3.86-15.44,9.43-21.25a25.94,25.94,0,0,1,20.34-7.73C352.54,59.05,352.72,56.14,351,55.47Z" fill="#746927"/><path d="M342.36,47.23a1.8,1.8,0,0,0-1.19-.21c-17.65,3-25,19.43-25.53,35.83,0,.4-.08.79-.1,1.18-.13,2.33,3.49,2.32,3.62,0,0,0,0-.09,0-.13a1.68,1.68,0,0,0,.06-.26c0-.26,0-.52,0-.79,1.19-14.57,8.73-28.1,23.64-32.11C345,50.19,344.28,47.16,342.36,47.23Z" fill="#7d7a33"/><path d="M314.24,197.68A9,9,0,0,0,318.3,199a9.56,9.56,0,0,0,4.45-1,.86.86,0,0,0,.51-.8c-.15-22.51-1.18-114.4-1.18-114.4h-6.94s.42,8.32.87,16C316.16,101.25,314.46,176.06,314.24,197.68Z" fill="#974c13"/><polyline points="200 250.87 169.44 266.9 193.87 280.01 227.01 258.88" fill="url(#linear-gradient-4)" style="mix-blend-mode:multiply"/><circle cx="216" cy="244.06" r="17.77" fill="#68e1fd"/><path d="M203.26,245.54c.79-7.26,4.31-15.27,10.75-19.13a17.75,17.75,0,0,0-7.43,32.7A20.19,20.19,0,0,1,203.26,245.54Z" fill="#053855" opacity="0.58"/><path d="M221,258.1a42,42,0,0,0,1.47-11.92,45.56,45.56,0,0,0-6-19.89c-3.87,2.84-5.28,9-6.16,13.36-1.61,7.93-.86,15.56,3.87,22.08a18.29,18.29,0,0,0,1.85.1,18.57,18.57,0,0,0,4.2-.49C220.52,260.26,220.77,259.16,221,258.1Z" fill="#053855" opacity="0.58"/><path d="M226,232.13a25.34,25.34,0,0,1,5.51,12,20,20,0,0,1-1.84,11.31,17.72,17.72,0,0,0-9.35-28.56A19.09,19.09,0,0,1,226,232.13Z" fill="#053855" opacity="0.58"/><path d="M204.92,145.39l-6.31,50.39a8.45,8.45,0,0,0,6.21.41L210.67,145C208.8,145.91,206.59,146.48,204.92,145.39Z" fill="#974c13"/><path d="M210.38,147.51l9.69-84.86-4.73-.42-10.66,85.11A4.54,4.54,0,0,0,210.38,147.51Z" fill="#974c13"/><ellipse cx="213.2" cy="68.64" rx="33.43" ry="55.58" transform="matrix(0.14, -0.99, 0.99, 0.14, 116.27, 270.55)" fill="#68e1fd"/><path d="M221.17,49.76,173.86,89.2s17.39,13.23,43.73,13.39Z" fill="#17619e" opacity="0.61"/><path d="M221.65,49.73c-2.55-.71-60.13,2.5-60.13,2.5S172.4,34.3,199.23,35.67Z" fill="#17619e" opacity="0.61"/><path d="M221.17,49.76l24.87-5s24.07,10,22.15,31.87Z" fill="#17619e" opacity="0.61"/></g></g></svg>