<svg xmlns="http://www.w3.org/2000/svg" xmlns:xlink="http://www.w3.org/1999/xlink" viewBox="0 0 400 300"><defs><linearGradient id="linear-gradient" x1="2884.29" y1="155.61" x2="2915.61" y2="128.56" gradientTransform="matrix(-1, 0, 0, 1, 3075.73, 0)" gradientUnits="userSpaceOnUse"><stop offset="0" stop-color="#fff" stop-opacity="0"/><stop offset="0.99" stop-color="gray"/></linearGradient><linearGradient id="linear-gradient-2" x1="2847.13" y1="195.13" x2="2878.46" y2="168.09" xlink:href="#linear-gradient"/><linearGradient id="linear-gradient-3" x1="2810.54" y1="252.74" x2="2841.86" y2="225.69" xlink:href="#linear-gradient"/></defs><title>141-150</title><g style="isolation:isolate"><g id="Layer_2" data-name="Layer 2"><path d="M44.65,153.13,167.56,81.65a5.81,5.81,0,0,1,5.81,0L357.18,186.84a5.81,5.81,0,0,1,0,10.08L239.66,264.78a19,19,0,0,1-19,0l-176-101.59A5.81,5.81,0,0,1,44.65,153.13Z" fill="#3e5a70"/><polyline points="117.84 122.06 45.55 163.61 100.84 195.53 200.95 139.7" fill="#68e1fd"/><polyline points="157.59 162.48 100.84 195.53 169.7 235.27 248.45 182.53" fill="#f78546"/><path d="M282.63,177.33v50.84l-60.57,37-10-5.47L169.7,235.27l51-35" fill="#ffa7bd"/><polyline points="128.1 130.67 180.77 161.56 211.3 143.01 168.18 117.84" opacity="0.63" fill="url(#linear-gradient)" style="mix-blend-mode:multiply"/><polyline points="165.26 170.19 217.93 201.08 248.45 182.53 205.34 157.36" opacity="0.63" fill="url(#linear-gradient-2)" style="mix-blend-mode:multiply"/><ellipse cx="160.85" cy="72.54" rx="37.71" ry="52.42" transform="translate(-14.15 49.96) rotate(-16.92)" fill="#68e1fd"/><path d="M185.13,134.28s-1-16.07-1.38-20c-.34-3.59-1.54-19.38-11.41-24.37-12.48-6.3-26.87-14.49-40.17-10.68-10.77,3.09-14.45,40.38-14.33,42.87C118.06,126.53,151.48,150.16,185.13,134.28Z" fill="#68e1fd"/><path d="M138,57.93s-2.64-2.16-4.18-7.17,1-12.27,6.45-12.94S147.38,40,147.38,40s20.22-3.58,23.34,12.28h0c.57,4.44,3,20.55-10.14,24.08s-8.42-15.13-8.42-15.13" fill="#4b1b13"/><path d="M137.46,54.43s.05,10.44,0,14.32c-.06,4.09,1.67,15.13,8.39,14.78s13.61-8.17,13.61-10c0,0,6.79-4.23,3-7.48s-4.14,2.25-4.14,2.25-2.08-3-2.22-11.15A35.46,35.46,0,0,1,137.46,54.43Z" fill="#ffac73"/><path d="M159.15,84.39c-3.43,3.16-9,3.75-14.16,3a1.68,1.68,0,0,1-1.55-1.46c-.08-1.58-.18-3.16-.32-4.74l17.73-8.67-1.37,11.3S159.37,84.05,159.15,84.39Z" fill="#ffac73"/><path d="M147,87.61c-.69-.05-1.38-.12-2.06-.22A1.62,1.62,0,0,1,143.44,86c0-.82-.08-1.64-.14-2.47,3.75,0,10.43-.88,14-7.84A15.16,15.16,0,0,1,147,87.61Z" fill="#e5894a"/><path d="M160.85,80.76c-1.43,1-2.91,1.86-4.4,2.73a36.17,36.17,0,0,1-6.61,3.22c-1.92.65-5.27,1.6-6.41-.81a3.69,3.69,0,0,1-.07-1.32,8.73,8.73,0,0,0-.06-1.61l0,0A5.17,5.17,0,0,1,141,81.28a.47.47,0,0,1-.09-.2h0S136.25,94.41,137,95s6.32-2.63,6.32-2.63,2.4,4.91,3.35,5.4,13.21-10.29,14.85-13.36Z" fill="#d4dee8"/><path d="M138.58,94.45c-.28.11-.9,2.94,0,5.63,0,0,2.29,1,2.72.87s4.18-4.38,4-4.62S143,92.18,143,92.18Z" fill="#f47a63"/><path d="M138.58,100.08s-8.2,31.93-7.64,32.2,7.67,3.94,10.19,4.11l.17-35.44" fill="#f47a63"/><ellipse cx="139.63" cy="65.49" rx="3.52" ry="4.78" fill="none" stroke="#42210b" stroke-miterlimit="10" stroke-width="0.75"/><ellipse cx="149.52" cy="67.76" rx="3.9" ry="4.78" fill="none" stroke="#42210b" stroke-miterlimit="10" stroke-width="0.75"/><line x1="143.15" y1="66.64" x2="145.62" y2="66.99" fill="none" stroke="#42210b" stroke-miterlimit="10" stroke-width="0.75"/><line x1="153.42" y1="67.76" x2="158.94" y2="66.38" fill="none" stroke="#42210b" stroke-miterlimit="10" stroke-width="0.75"/><ellipse cx="198.29" cy="113.11" rx="37.71" ry="52.42" transform="translate(-24.34 62.61) rotate(-16.92)" fill="#f78546"/><path d="M222.94,174.35s-1-15.6-1.34-19.47c-.33-3.49-1.49-18.82-11.08-23.67-12.12-6.12-26.1-14.07-39-10.37-10.46,3-14,39.22-13.92,41.64C157.8,166.82,190.26,189.76,222.94,174.35Z" fill="#2b415d"/><path d="M202.12,127s2.25,13.58-10.55,14.65c-8.95.75-7-6.51-7-6.51s-4.38,3.55-9,.81,3-13.57,6.45-14.29S193.8,121.14,202.12,127Z" fill="#68e1fd"/><circle cx="204.91" cy="92.83" r="10.11" fill="#4b1b13"/><path d="M176.12,101.27a12.19,12.19,0,0,1-2.64-7.07,11.46,11.46,0,0,1,.17-3.72,5.19,5.19,0,0,1,2.41-3,12.39,12.39,0,0,0,2.35-2s26.43-5.13,29.46,10.26h0c.56,4.31.23,17.32-11.59,22.77-12,5.53-6.43-14.08-6.43-14.08" fill="#4b1b13"/><path d="M182.51,123.17l15.77-7.71-1.33,11s-.11.21-.32.54c-2.86,2.64-7.26,3.42-11.63,3.14a2,2,0,0,1-1.84-1.79C183,126.59,182.81,124.87,182.51,123.17Z" fill="#ffac73"/><path d="M175.61,98.34s-.93-5.15,4.87-6c1.55-.24,3-.25,4,1.2,1.16,1.78,1.32,3.9,3,5.41a5.91,5.91,0,0,0,6.16,1c0,1.71-.21,3-2.3,3.55S177.24,101.7,175.61,98.34Z" fill="#ffac73"/><path d="M196.49,93.46c-6.3-2.24-12.29-3.56-19-2.66a1.15,1.15,0,0,0-1.09,1.13c-.49-2.67-1.14-9.42,4.3-11.47,6.84-2.57,18.25.68,21.41,6.84a19.6,19.6,0,0,1,2.19,9.84C202.09,95.37,199.25,94.44,196.49,93.46Z" fill="#4b1b13"/><path d="M182.93,126l.25,2.31s10.5-.3,12-8.83Z" fill="#e28e54"/><path d="M175.57,97.87s.05,10.14,0,13.9c-.05,4,3.92,14.36,8.15,14.35,6.58,0,13.22-7.94,13.22-9.68,0,0,6.6-4.11,2.87-7.27s-4,2.19-4,2.19-2-2.94-2.16-10.83A34.44,34.44,0,0,1,175.57,97.87Z" fill="#ffac73"/><path d="M166.2,170.36a19.54,19.54,0,0,1-1.76-1.22,117.77,117.77,0,0,1,3.16-23.45c.32-1.34,2.39-.77,2.07.57a115.2,115.2,0,0,0-3.13,24.28Z" fill="#17283a"/><path d="M206.44,179.22a6.4,6.4,0,0,0-.91.08l-.79-27.06a1.07,1.07,0,0,1,2.14,0l.78,26.89A7.46,7.46,0,0,0,206.44,179.22Z" fill="#17283a"/><path d="M198.62,118.86A16,16,0,0,1,194,110.4c-.81-5.05,5.94-2.77,7-.59S201.74,117.69,198.62,118.86Z" fill="#4b1b13"/><ellipse cx="243.45" cy="168.09" rx="37.71" ry="52.42" transform="translate(-38.39 78.14) rotate(-16.92)" fill="#ffa7bd"/><polyline points="201.85 227.8 254.52 258.69 285.05 240.14 241.94 214.97" opacity="0.63" fill="url(#linear-gradient-3)" style="mix-blend-mode:multiply"/><path d="M262.18,233.39s-1-16.07-1.38-20c-.34-3.59-1.54-19.38-11.41-24.37-12.48-6.3-26.87-14.49-40.17-10.68-10.77,3.09-14.45,40.38-14.33,42.87C195.11,225.64,228.53,249.26,262.18,233.39Z" fill="#2b415d"/><path d="M236.65,190.9c0,.85-1,2.13-1.37,2.84-3.2,6.1-6,12.54-9.07,18.77s-3.54,23.19-3.9,24.31c0,.11-12.25-4.45-12.35-4.38s-1-8.85-1-9.39c-.14-9.76-.86-14.74.93-22.25,1.27-5.33,3.59-8.94,4.82-14.27.58-2.54,1-5.59,2.26-7.9C218.38,176.05,236.65,185.19,236.65,190.9Z" fill="#68e1fd"/><path d="M242.15,238.72c-.33,0-.66,0-1,.05q.14-10.07.05-20.15a1.1,1.1,0,0,1,2.21,0q.09,10-.05,20Z" fill="#17283a"/><path d="M205.73,230.3h0a1.42,1.42,0,0,0-.23-.11l-.6-.33-.7-.39-.58-.32q0-12,.71-23.92c.08-1.41,2.29-1.42,2.21,0q-.69,12.32-.72,24.65A1.1,1.1,0,0,1,205.73,230.3Z" fill="#17283a"/><path d="M217,178.64s-2.39,16.33-1,18l5.59-4.38,3.33,7,13.91-12.08Z" fill="#2b415d"/><path d="M214.51,153.54s.05,10.44,0,14.32c-.06,4.09,1.67,15.13,8.39,14.78s13.61-8.17,13.61-10c0,0,6.79-4.23,3-7.48s-4.14,2.25-4.14,2.25-2.08-3-2.22-11.15A35.46,35.46,0,0,1,214.51,153.54Z" fill="#ffac73"/><path d="M236.2,183.5c-3.43,3.16-9,3.75-14.16,3a1.68,1.68,0,0,1-1.55-1.46c-.08-1.58-.18-3.16-.32-4.74l17.73-8.67-1.37,11.3S236.41,183.16,236.2,183.5Z" fill="#ffac73"/><path d="M224,186.72c-.69-.05-1.38-.12-2.06-.22a1.62,1.62,0,0,1-1.49-1.41c0-.82-.08-1.64-.14-2.47,3.75,0,10.43-.88,14-7.84A15.16,15.16,0,0,1,224,186.72Z" fill="#e5894a"/><path d="M259.29,182.64c-6.27-6.93-9.3-20.71-9.3-20.71l-.08,0c-1.77-15.15-12.58-19.74-22-20.27s-16.61,3-17.12,9.4,3.76,9,3.76,9,16,4.64,17.06,2.66,1.26-11.12,2.2.86c.31,4,.23,7.93.2,11.89A85.86,85.86,0,0,0,235.21,190c.58,3.56,1.11,7.54,4.58,9.48a18.7,18.7,0,0,0,18-.25,229.86,229.86,0,0,1,3.93,26.89s11-.69,12.28-17.11S265.57,189.57,259.29,182.64Z" fill="#4b1b13"/><ellipse cx="236.77" cy="88.31" rx="15.06" ry="18.22" transform="translate(-11.7 42.26) rotate(-9.96)" fill="#68e1fd"/><path d="M226.18,90.35l6.15,7.25a1.51,1.51,0,0,0,2.12,0l12.9-14.5c1.28-1.44-.83-3.57-2.12-2.12l-12.9,14.5h2.12l-6.15-7.25c-1.25-1.47-3.36.66-2.12,2.12Z" fill="#f2f2f2"/><ellipse cx="279.27" cy="156.04" rx="14.58" ry="18.22" transform="translate(-30.03 74.34) rotate(-14.4)" fill="#ea6d2f"/><path d="M277.6,146.64v16.9a1.5,1.5,0,0,0,3,0v-16.9a1.5,1.5,0,0,0-3,0Z" fill="#f2f2f2"/><path d="M271.67,152.85,285,160.5a1.5,1.5,0,0,0,1.51-2.59l-13.36-7.65a1.5,1.5,0,0,0-1.51,2.59Z" fill="#f2f2f2"/><ellipse cx="186.44" cy="35.37" rx="15.06" ry="18.22" transform="translate(-3.31 32.77) rotate(-9.96)" fill="#f78546"/><ellipse cx="185.74" cy="35.5" rx="6.05" ry="7.13" transform="translate(-3.12 25.89) rotate(-7.91)" fill="#fff"/></g></g></svg>