<svg id="Layer_2" data-name="Layer 2" xmlns="http://www.w3.org/2000/svg" viewBox="0 0 400 300"><title>PP</title><path d="M194.51,271.16,22,169.22c-5.49-3.08-10.2-8.15-4.85-11.46L190.29,58c2.6-1.61,6.54-2.66,9.18-1.13L380.54,161.94c5.49,3.19,6.48,12.1,1,15.29L217.25,271A22.94,22.94,0,0,1,194.51,271.16Z" fill="#47a0da"/><path d="M253,127.93l81.2,48.32,5.3-3.12a11.16,11.16,0,0,0,0-19.2L251,101.23a17,17,0,0,0-17.39,0L107.44,176.52a11.16,11.16,0,0,0-.51,18.84l7.38,5,121.27-72.38A17,17,0,0,1,253,127.93Z" fill="#e6e6e2"/><path d="M209.14,249.8l125-73.54L253,127.93a17,17,0,0,0-17.39,0L114.31,200.32l72.6,48.82A20.87,20.87,0,0,0,209.14,249.8Z" fill="#cecece"/><path d="M103.54,65.38s-12.69,2.9-12.69,15v62.91s2.64,15.16,23.79,15.16,23.09-15.16,23.09-15.16V83.88s1.59-18.5-15-18.5Z" fill="#68e1fd"/><polyline points="105.07 57.7 105.07 73.15 123.55 73.15 123.55 57.7" fill="#b0ca6f"/><ellipse cx="114.31" cy="57.69" rx="9.24" ry="5.19" fill="#c2dd8c"/><ellipse cx="114.31" cy="73.06" rx="9.24" ry="5.19" fill="#b0ca6f"/><rect x="112.27" y="36.99" width="5.08" height="22.77" rx="0.99" ry="0.99" fill="#68e1fd"/><path d="M136,49.94a.93.93,0,0,0,0-.11,1.33,1.33,0,0,0-.58-.61c-5.62-4.58-11.25-10.35-18.27-12.61-3.56-1.15-11.74-1.91-12,3.81-.26,4.9,8.95,8,12.15,9.39,3.48,1.5,8,4.13,11.74,4.38,2.69.18,4.37-1.24,6.58-2.68A1.25,1.25,0,0,0,136,49.94Z" fill="#68e1fd"/><path d="M136,48.43a.93.93,0,0,0,0-.11,1.33,1.33,0,0,0-.58-.61c-5.62-4.58-11.25-10.35-18.27-12.61-3.56-1.15-11.74-1.91-12,3.81-.26,4.9,8.95,8,12.15,9.39,3.48,1.5,8,4.13,11.74,4.38,2.69.18,4.37-1.24,6.58-2.68A1.25,1.25,0,0,0,136,48.43Z" fill="#68e1fd"/><path d="M90.85,95.29c0-.26,6.7,9.08,24,9.08s23-9.09,23-9.09v22.84s-9.34,9.6-23,9.6-24-9.86-24-9.86Z" fill="#faf9fe"/><path d="M276.44,117.94s-3.33,3.74,0,10.45,17.53,19.4,21.72,20.71,9.09-1.22,11.51-2.78-.14-24-9.26-28.38S276.44,117.94,276.44,117.94Z" fill="#50990b"/><path d="M260.83,184.25c1.53,0,4.13,4.2,23.24-1,5.11-1.38,16.24-12.12,16.05-18.64s0-17.34,0-17.34l8.79-4.85s-1.53-25.16-21.79-25.54L276.62,124s-15.67,2.42-31.34,15.1S209,165,209,169.11s1.34,4.1,1.34,4.1-10.89,4.85-9.55,8.95,2.29,4.1,2.29,4.1-3.25,5.59.19,7.83,11.66-3.73,11.66-3.73-1,3.8,3.82,4.23S260.83,184.25,260.83,184.25Z" fill="#f1927c"/><path d="M261,181.7a3.83,3.83,0,0,1,1-1.72,22.84,22.84,0,0,1,4.21-2.81,45,45,0,0,1,6.73-3.59c3.48-1.48,4.74-2,6.13-5.77,1.1-3,2.05-6,2.95-9.06a.93.93,0,0,1,.47-.58,17.16,17.16,0,0,1-8.21-12c-.2-1.26,1.78-1.8,2-.53a15.45,15.45,0,0,0,9.38,11.9c1.21.52.16,2.24-1,1.73L284,159a1,1,0,0,1,0,.3c-1,3.32-2,6.62-3.24,9.87-.54,1.44-1,3.17-2.25,4.2-1.9,1.58-5.15,2.15-7.31,3.24a45.69,45.69,0,0,0-7.85,5.11c-2.58,6.62,9.8,3.18,11.91,2.63a66.48,66.48,0,0,0,10.85-3.91c1.19-.54,2.23,1.18,1,1.73a75.54,75.54,0,0,1-11.68,4.08,41.82,41.82,0,0,1-7.46,1.41c-1.81.14-4,.21-5.58-.73a3.1,3.1,0,0,1-1.55-2.65A8.1,8.1,0,0,1,261,181.7Z" fill="#b25546"/><path d="M213.43,191.26c1.45-5.63,8.82-8.44,13.49-11a210,210,0,0,1,22.22-10.6c1.22-.5,1.75,1.44.55,1.93-6.29,2.58-12.45,5.43-18.44,8.61-4.62,2.45-14.45,6.2-15.84,11.62A1,1,0,0,1,213.43,191.26Z" fill="#b25546"/><path d="M212.67,178.19c9.29-5,18.84-9.66,28.26-14.45,1.17-.6,2.21,1.13,1,1.73l-20.29,10.33c-5.06,2.58-20.74,8.31-18.79,15.73a1,1,0,0,1-2,.53C199,184.83,207.36,181.07,212.67,178.19Z" fill="#b25546"/><path d="M212,169.76c7.67-4.4,15.49-8.58,23.23-12.86,1.15-.64,2.19,1.09,1,1.73l-18.51,10.25c-6.16,3.41-13.52,6.63-15,14.11-.26,1.26-2.24.73-2-.53C202,176.3,206.75,172.78,212,169.76Z" fill="#b25546"/><path d="M251.21,144.79a31.15,31.15,0,0,0,20.89,12.64c1.3.2.75,2.13-.55,1.93a33.07,33.07,0,0,1-22.12-13.56C248.67,144.74,250.45,143.74,251.21,144.79Z" fill="#b25546"/><path d="M309.66,146.31s1.14-16.5-9.28-24.09-23.75-3.74-23.94-4.29,27.4-18.67,27.4-18.67,14.08-3.11,22.34,8.61a35,35,0,0,1,6.38,23.62Z" fill="#b1d501"/><circle cx="197.42" cy="162.91" r="4.51" fill="#a6cfdf"/><path d="M199.3,159.71c-.66-.41-1.26.63-.61,1a2.08,2.08,0,0,1,1,1.53c.08.76,1.28.77,1.21,0A3.36,3.36,0,0,0,199.3,159.71Z" fill="#fff"/><path d="M199.86,163.89a.6.6,0,0,0,0,1.21A.6.6,0,0,0,199.86,163.89Z" fill="#fff"/><circle cx="214.39" cy="197.81" r="4.51" fill="#a6cfdf"/><path d="M216.27,194.62c-.66-.41-1.26.63-.61,1a2.08,2.08,0,0,1,1,1.53c.08.76,1.28.77,1.21,0A3.36,3.36,0,0,0,216.27,194.62Z" fill="#fff"/><path d="M216.83,198.8a.6.6,0,0,0,0,1.21A.6.6,0,0,0,216.83,198.8Z" fill="#fff"/><circle cx="186.9" cy="172.11" r="4.51" fill="#a6cfdf"/><path d="M188.78,168.92c-.66-.41-1.26.63-.61,1a2.08,2.08,0,0,1,1,1.53c.08.76,1.28.77,1.21,0A3.36,3.36,0,0,0,188.78,168.92Z" fill="#fff"/><path d="M189.34,173.1a.6.6,0,0,0,0,1.21A.6.6,0,0,0,189.34,173.1Z" fill="#fff"/><circle cx="193.17" cy="185.17" r="6.72" fill="#a6cfdf"/><path d="M196,180.42c-1-.62-1.88.93-.91,1.55a3.09,3.09,0,0,1,1.44,2.28c.11,1.14,1.91,1.15,1.79,0A5,5,0,0,0,196,180.42Z" fill="#fff"/><path d="M196.8,186.64a.9.9,0,0,0,0,1.79A.9.9,0,0,0,196.8,186.64Z" fill="#fff"/><circle cx="207.11" cy="210.2" r="6.72" fill="#a6cfdf"/><path d="M209.91,205.45c-1-.62-1.88.93-.91,1.55a3.09,3.09,0,0,1,1.44,2.28c.11,1.14,1.91,1.15,1.79,0A5,5,0,0,0,209.91,205.45Z" fill="#fff"/><path d="M210.74,211.67a.9.9,0,0,0,0,1.79A.9.9,0,0,0,210.74,211.67Z" fill="#fff"/><circle cx="197.42" cy="175.8" r="3.9" fill="#a6cfdf"/><path d="M199,173c-.57-.36-1.09.54-.53.9a1.79,1.79,0,0,1,.84,1.32c.06.66,1.11.67,1,0A2.9,2.9,0,0,0,199,173Z" fill="#fff"/><path d="M199.53,176.65a.52.52,0,0,0,0,1A.52.52,0,0,0,199.53,176.65Z" fill="#fff"/><circle cx="203.07" cy="168.79" r="3.9" fill="#a6cfdf"/><path d="M204.7,166c-.57-.36-1.09.54-.53.9a1.79,1.79,0,0,1,.84,1.32c.06.66,1.11.67,1,0A2.9,2.9,0,0,0,204.7,166Z" fill="#fff"/><path d="M205.18,169.64a.52.52,0,0,0,0,1A.52.52,0,0,0,205.18,169.64Z" fill="#fff"/><circle cx="196.8" cy="168.82" r="3.9" fill="#a6cfdf"/><path d="M198.42,166.07c-.57-.36-1.09.54-.53.9a1.79,1.79,0,0,1,.84,1.32c.06.66,1.11.67,1,0A2.9,2.9,0,0,0,198.42,166.07Z" fill="#fff"/><path d="M198.91,169.67a.52.52,0,0,0,0,1A.52.52,0,0,0,198.91,169.67Z" fill="#fff"/><circle cx="223.49" cy="158.12" r="7.94" fill="#a6cfdf"/><path d="M226.8,152.5c-1.16-.73-2.22,1.11-1.07,1.83a3.66,3.66,0,0,1,1.71,2.7c.13,1.35,2.26,1.36,2.12,0A5.91,5.91,0,0,0,226.8,152.5Z" fill="#fff"/><path d="M227.78,159.85a1.06,1.06,0,0,0,0,2.12A1.06,1.06,0,0,0,227.78,159.85Z" fill="#fff"/><path d="M210.74,120.73s-2.58,8.58-5.19,12.49-3.88,11,1.6,13,12.57-1,10.7-7.06S210.74,127.07,210.74,120.73Z" fill="#a6cfdf"/><path d="M215.34,136.18c-.52-.95-2-.1-1.45.85.65,1.18,1.36,2.45,1,3.84a.84.84,0,0,0,1.62.45C217,139.46,216.22,137.79,215.34,136.18Z" fill="#fff"/><path d="M213.78,142.86a.84.84,0,0,0,0,1.68A.84.84,0,0,0,213.78,142.86Z" fill="#fff"/><circle cx="250.84" cy="190.22" r="8.06" fill="#a6cfdf"/><path d="M254.2,184.52c-1.18-.74-2.26,1.12-1.09,1.86a3.71,3.71,0,0,1,1.73,2.74c.13,1.37,2.29,1.38,2.15,0A6,6,0,0,0,254.2,184.52Z" fill="#fff"/><path d="M255.2,192a1.08,1.08,0,0,0,0,2.15A1.08,1.08,0,0,0,255.2,192Z" fill="#fff"/><path d="M245.07,164.9c-1.56-5.22-6.56-10.7-12.52-9.56-2.84.54-5.28,2.74-7.59,4.34a96.93,96.93,0,0,0-8.57,6.34,25.37,25.37,0,0,0-5,5.83,3.93,3.93,0,0,0-4.84,3.79c-.09,7.15-3.29,14.25-.67,21.31,1.9,5.11,7.11,9.17,12.56,6.28,2.56-1.36,4.05-3.78,5.34-6.26,2.61-5,4.41-4.35,9.1-3.37,6.17,1.29,8.75-4.21,9-9.4C242.13,177.29,247.25,172.22,245.07,164.9Z" fill="#dc5ecb"/><path d="M235.65,164.33s6.94-1.68,3.63-7.74c-1.85-3.38-14-1-14-1s3.57-2.07,1.22-5.59c-1-1.52-3.29-1.57-4.92-1.64a47.61,47.61,0,0,0-6.66.22c-6.52.65-13,2.18-19.48,3.33-2.79.5-5.59,1-8.37,1.55-1.77.38-9.37,3.83-11,4.75-5.48,3.17-7.47,8.48-13.55,16.74-1.43,1.95-22.24,27.51-22.24,27.51l-15.79,10.83,26.94,20.05,15.17-10.58,2.62-2.08c14.07-4,27.57-10.71,32.86-25.46a2.07,2.07,0,0,0,.12-.73l.68-.54s24-8.1,25.59-13.68c1.3-4.54-5.57-3.17-8.55-2.48,4.88-1.35,18.63-3.81,21.93-8.4C246.3,163.28,235.65,164.33,235.65,164.33Z" fill="#f1927c"/><path d="M226.32,154q-14.59,2.76-29,6.42a74.65,74.65,0,0,0-9.09,2.59l.92,1.33c4.34-1.79,9.52-2.54,13.42-3.5q12-2.94,24.18-5.22C227.83,155.42,227.38,153.8,226.32,154Z" fill="#b25546"/><path d="M237,163a250.82,250.82,0,0,0-29.6,3.63c-4.73.88-10.12,1.55-14.39,4,.26.48.52,1,.78,1.44,5-2.93,12.13-3.49,17.3-4.37a247.65,247.65,0,0,1,25.92-3C238.1,164.59,238.11,162.91,237,163Z" fill="#b25546"/><path d="M235,173.82c-7.38.9-14.77,1.77-22.15,2.69-5.25.65-10.39,1.42-15.07,3.88q.35.77.68,1.54c5.41-2.88,11.52-3.39,17.55-4.12l19-2.3C236.08,175.37,236.1,173.69,235,173.82Z" fill="#b25546"/><path d="M108.33,216.69s-3.33,3.74,0,10.45,17.53,19.4,21.72,20.71,9.09-1.22,11.51-2.78-.14-24-9.26-28.38S108.33,216.69,108.33,216.69Z" fill="#50990b"/><path d="M141.55,245.06s1.14-16.5-9.28-24.09-23.75-3.74-23.94-4.29S135.73,198,135.73,198s14.08-3.11,22.34,8.61a35,35,0,0,1,6.38,23.62Z" fill="#b1d501"/><path d="M165.33,79.82v39.88a9.5,9.5,0,0,0,8.4,3.17c5.53-.6,6.59-7.25,6.59-7.25V79.82" fill="#68e1fd"/><path d="M205.77,111.11l16-5.87L178.18,64.62a.28.28,0,0,1-.23-.1c-2.91-3.09-7.63-2-10.43.68a6.21,6.21,0,0,0-2.14,4.74c.18,2.4,1.08,4,3.23,6.48Z" fill="#68e1fd"/><path d="M165.33,79.82v39.88a9.5,9.5,0,0,0,8.4,3.17c5.53-.6,6.59-7.25,6.59-7.25V79.82" fill="#093e3e" opacity="0.29"/><polygon points="165.37 68.71 165.33 69.12 165.33 79.82 204.14 115.61 221.72 110.01 221.72 105.25 165.37 68.71" fill="#68e1fd"/><path d="M205.77,111.11l16-5.87L178.18,64.62a.28.28,0,0,1-.23-.1c-2.91-3.09-7.63-2-10.43.68a6.21,6.21,0,0,0-2.14,4.74c.18,2.4,1.08,4,3.23,6.48Z" fill="#fff" opacity="0.42"/></svg>