<svg id="Layer_2" data-name="Layer 2" xmlns="http://www.w3.org/2000/svg" xmlns:xlink="http://www.w3.org/1999/xlink" viewBox="0 0 400 300"><defs><linearGradient id="linear-gradient" x1="189.68" y1="113.3" x2="202.69" y2="99.76" gradientUnits="userSpaceOnUse"><stop offset="0" stop-color="#ff246e"/><stop offset="1" stop-color="#9e005d"/></linearGradient><linearGradient id="linear-gradient-2" x1="223.69" y1="184.13" x2="267.18" y2="161.85" xlink:href="#linear-gradient"/><linearGradient id="linear-gradient-3" x1="97.56" y1="189.01" x2="130.14" y2="159.24" xlink:href="#linear-gradient"/></defs><title>PP</title><path d="M199.32,256.06,26.82,154.12C21.32,151,16.61,146,22,142.65L195.09,42.88c2.6-1.61,6.54-2.66,9.18-1.13L385.35,146.84c5.49,3.19,6.48,12.1,1,15.29L222.05,255.9A22.94,22.94,0,0,1,199.32,256.06Z" fill="#ff246e"/><path d="M225.36,102.85,207.92,81.68l-32.76,20,19.48,20C204.18,115.36,217.6,108.3,225.36,102.85Z" fill="url(#linear-gradient)"/><path d="M291.9,176.48l-42.24-39.3L186.4,175.89,234,212.49C253.65,199.31,275.92,187.7,291.9,176.48Z" fill="url(#linear-gradient-2)"/><polyline points="179.13 179.06 122.44 210.41 50.19 167.71 92.2 141.86" fill="url(#linear-gradient-3)"/><path d="M204.23,36.44s-9.59,2.19-9.59,11.32V95.3s2,11.45,18,11.45S230.06,95.3,230.06,95.3V50.43s1.2-14-11.32-14Z" fill="#68e1fd"/><polyline points="205.39 30.64 205.39 42.32 219.35 42.32 219.35 30.64" fill="#b0ca6f"/><ellipse cx="212.37" cy="30.64" rx="6.98" ry="3.92" fill="#c2dd8c"/><ellipse cx="212.37" cy="42.25" rx="6.98" ry="3.92" fill="#b0ca6f"/><rect x="210.82" y="14.99" width="3.84" height="17.2" rx="0.99" ry="0.99" fill="#b3b3b3"/><path d="M228.77,24.78a.7.7,0,0,0,0-.09,1,1,0,0,0-.44-.46c-4.24-3.46-8.5-7.82-13.8-9.53-2.69-.87-8.87-1.44-9.1,2.88-.19,3.7,6.76,6.05,9.18,7.09,2.63,1.13,6,3.12,8.87,3.31,2,.13,3.31-.93,5-2A.94.94,0,0,0,228.77,24.78Z" fill="#b3b3b3"/><path d="M228.77,23.64a.7.7,0,0,0,0-.09,1,1,0,0,0-.44-.46c-4.24-3.46-8.5-7.82-13.8-9.53-2.69-.87-8.87-1.44-9.1,2.88-.19,3.7,6.76,6.05,9.18,7.09,2.63,1.13,6,3.12,8.87,3.31,2,.13,3.31-.93,5-2A.94.94,0,0,0,228.77,23.64Z" fill="#e6e6e6"/><path d="M194.64,59c0-.2,5.06,6.86,18.1,6.86S230.09,59,230.09,59V76.3s-7.06,7.25-17.35,7.25-18.1-7.45-18.1-7.45Z" fill="#faf9fe"/><path d="M332.15,85.06,301.71,120.2l-47.2,10.33-19.93-7.28a2,2,0,0,0-2.59,1.48c-.29,1.59.24,3.81,4.24,5.69,7.1,3.33,14.49,6.45,14.49,6.45l-4.9,2.32L215.75,138a2,2,0,0,0-2.12,2.06c0,1.77.76,4.09,4.16,4.63,4.93.78,25.94,3,25.94,3l1.66,6.73-14.62,5.41-17.14,5.52a1.78,1.78,0,0,0-1.2,2.1c.47,2,2,5,7.23,4.45,7.64-.85,24.86-6.64,24.86-6.64l9.58-2.48-2.47,7.06-18.34,10.71s-5.73,2.71-5.41,4.7,1.5,4.38,6.1,3.95,19.91-8.08,19.91-8.08L274.66,166l-7.49,9.24s-4.9,5.21-3.09,9.25,7.37,3.24,11.31,2.06,16.18-9.84,16.18-9.84,7.59-4.61,8-4.68,7.18-8.55,7.92-10.76,7-19.83,7-19.83L355,104.28C349.91,95.17,342.48,87.59,332.15,85.06Z" fill="#f4a998"/><path d="M356.9,119.73,316,117l-28.7,1-24.18,6.78L247.74,135c-1.67,1.1-1.91,4.17-1.91,4.17l9.94,1.58s-10.3,3.82-12,6.9-.46,6.76,1.66,6.73,12.83-3.3,12.83-3.3-7.8,6.83-8.62,11.18a9.5,9.5,0,0,0,2,7.53s16.93-11.09,19.24-10,1,8-1.85,10c0,0-4,2.71-1.86,5.42s16.15-4.63,17-6.86a13.35,13.35,0,0,1,3.75-5.61c1.88-1.69,18.89-9.37,21.87-15.57a9.45,9.45,0,0,1,5.73-1.65c2.5.29,30.8,5,39.07,6.34C358.9,141.95,359.37,130,356.9,119.73Z" fill="#ffc1ae"/><path d="M124.07,74.22c.45-.09,16.51,26.59,19.62,27.46s16-.27,20.52.07a16.31,16.31,0,0,1,9.69,4.18c1.82,1.67,4.71,6.18,7.25,9,0,0,2.63,5.35-2.87,6.93s-11.39-7.74-13.36-7.28,9.47,22.58,9.63,25.68,4.5,22.48,4.5,22.48,5.33,14.38.08,16.29-6.71-2.4-6.71-2.4.59,5.22-2.62,7.26-7-2.3-7.79-6.22c0,0,0,6.31-3.55,6.55s-6.2-3.94-7.53-7.06a4.71,4.71,0,0,1-6.32,1.17c-3.79-2.29-7.32-19.06-7.32-19.06L124.5,118.38,99.27,93S105,78.13,124.07,74.22Z" fill="#f4a998"/><path d="M172.59,177a4.42,4.42,0,0,0,1.66,1.61.56.56,0,0,0,0-.32l-7.05-26.57c-.21-.8-1.52-.64-1.3.17L172.56,177Z" fill="#b25546"/><path d="M162.38,177.71c-.66-2.49-1.06-5.1-1.62-7.19l-3.54-13.28c-.21-.8-1.52-.64-1.3.17l4.5,16.9c.47,1.76.83,3.68,1.39,5.5Q162.12,178.77,162.38,177.71Z" fill="#b25546"/><path d="M151.53,176.77q-2.26-8.19-4.31-16.44c-.2-.81-1.5-.65-1.3.17q2.12,8.6,4.49,17.13C150.78,177.32,151.16,177,151.53,176.77Z" fill="#b25546"/><path d="M62.24,133.25s26.5.42,29.66-.13a20.77,20.77,0,0,0,8.39-3.81c1.15-1.13,7.62-11.88,10.21-14s9.71-9,11.54-10.73,12-9.18,12-9.18,3.68.71,1.91,6.33-5.61,7.68-7.56,10.09-6.34,7.58-5.22,8.83,6.86.06,13.28.35,19.78.86,24.4,1.3a129.52,129.52,0,0,1,16.69,3.05c2.57.82,5.68,2.84,3.73,5.36,0,0,8.7-.28,8.45,4.36s-6,4.53-6,4.53a2.6,2.6,0,0,1,2.37,3c-.38,2.73-1.41,3.69-3.31,4.51s-10.54,1.4-10.54,1.4a4.7,4.7,0,0,1-.85,5.38C169,156.28,160.59,158,160.59,158s-10.13,2-13.37,2.42-6.91.33-8.37.83-8.3,3.13-14.54,3.65-16.78.45-19.75.34-9.07-2.06-10.52-2.36-38.13,2.26-38.13,2.26S55.32,148.09,62.24,133.25Z" fill="#ffc1ae"/><path d="M180.79,131.33l2.35,0c2.39,0,5,.54,6.67,2.43a3.22,3.22,0,0,0-2.55-2.66c-5-1.51-10.12-1.29-15.24-1.12-5.5.18-11,.28-16.54.17-2.12,0-4.25,0-6.37-.19a96.77,96.77,0,0,0-11.07-.84,1.86,1.86,0,0,0-.84.15.65.65,0,0,0-.36.71c.12.38.62.45,1,.44,4.38,0,8.67.69,13,1,4.53.3,9.07.35,13.61.21,3.1-.1,6.19-.32,9.29-.39C176.13,131.22,178.46,131.28,180.79,131.33Z" fill="#b25546"/><path d="M180.13,139.42c2.25,0,4.61.35,5.87,1.74-.72-5-13-2.91-16-2.8q-14.86.52-29.71,1.34c-.84,0-.67,1.35.17,1.3q10.74-.59,21.49-1,5.06-.2,10.12-.37A58.61,58.61,0,0,1,180.13,139.42Z" fill="#b25546"/><path d="M172.92,150.39c-.82-2.78-3.65-2.17-5.89-1.91A238.37,238.37,0,0,1,137,150c-.83,0-1,1.29-.18,1.3,5.42.06,10.84,0,16.25-.34q4.32-.24,8.64-.64l3.69-.37,1.2-.14a15.15,15.15,0,0,1,1.84-.26,2.36,2.36,0,0,1,.47,0,3,3,0,0,1,2.49,1,3.13,3.13,0,0,1-.36,4.08C172.41,153.71,173.48,152.25,172.92,150.39Z" fill="#b25546"/><circle cx="295.03" cy="177.56" r="6.75" fill="#68e1fd"/><path d="M297.65,173.08a1,1,0,0,0-1,1.73,2.17,2.17,0,0,1,1.09,1.69,1,1,0,0,0,1,1,1,1,0,0,0,1-1A4.25,4.25,0,0,0,297.65,173.08Z" fill="#fff"/><path d="M298.48,178.35a1,1,0,0,0,0,2A1,1,0,0,0,298.48,178.35Z" fill="#fff"/><circle cx="258.35" cy="125.86" r="4.69" fill="#68e1fd"/><path d="M260.17,122.75a.69.69,0,0,0-.7,1.2,1.5,1.5,0,0,1,.76,1.17.71.71,0,0,0,.69.69.7.7,0,0,0,.69-.69A3,3,0,0,0,260.17,122.75Z" fill="#fff"/><path d="M260.75,126.41a.69.69,0,0,0,0,1.39A.69.69,0,0,0,260.75,126.41Z" fill="#fff"/><circle cx="160.59" cy="121.76" r="4.69" fill="#68e1fd"/><path d="M162.4,118.66a.69.69,0,0,0-.7,1.2,1.5,1.5,0,0,1,.76,1.17.71.71,0,0,0,.69.69.7.7,0,0,0,.69-.69A3,3,0,0,0,162.4,118.66Z" fill="#fff"/><path d="M163,122.31a.69.69,0,0,0,0,1.39A.69.69,0,0,0,163,122.31Z" fill="#fff"/><circle cx="168.72" cy="159.79" r="6.11" fill="#68e1fd"/><path d="M171.09,155.74a.91.91,0,0,0-.91,1.56,2,2,0,0,1,1,1.53.93.93,0,0,0,.9.9.91.91,0,0,0,.9-.9A3.85,3.85,0,0,0,171.09,155.74Z" fill="#fff"/><path d="M171.84,160.51a.9.9,0,0,0,0,1.81A.9.9,0,0,0,171.84,160.51Z" fill="#fff"/><circle cx="150.15" cy="117.04" r="4.24" fill="#68e1fd"/><path d="M151.79,114.23a.63.63,0,0,0-.63,1.08,1.36,1.36,0,0,1,.69,1.06.64.64,0,0,0,.63.63.63.63,0,0,0,.63-.63A2.67,2.67,0,0,0,151.79,114.23Z" fill="#fff"/><path d="M152.31,117.53a.63.63,0,0,0,0,1.25A.63.63,0,0,0,152.31,117.53Z" fill="#fff"/><circle cx="249.19" cy="122.31" r="3.28" fill="#68e1fd"/></svg>