<svg id="Layer_2" data-name="Layer 2" xmlns="http://www.w3.org/2000/svg" viewBox="0 0 400 300"><title>PP</title><path d="M199.32,256.06,26.82,154.12C21.32,151,16.61,146,22,142.65L195.09,42.88c2.6-1.61,6.54-2.66,9.18-1.13L385.35,146.84c5.49,3.19,6.48,12.1,1,15.29L222.05,255.9A22.94,22.94,0,0,1,199.32,256.06Z" fill="#55823d"/><path d="M93.12,79.61s12.66,21.83,12.89,22.53,2.79,16.51,3.26,20.7.93,17,3.49,20.93,15.12,26,15.12,26,2.33,1.4,5.58-3,1.16-10.46,0-14.88,14.42,5.12,18.84,10.46,23.72,13.72,29.3,16,14.42,3.26,16.51,0l2.09-3.26s5.77,3.71,9.41,1.75,4.39-6.51,3.18-7.72-32.69-14.08-32.69-14.08,18.31,4.69,23,5.15S212,158,212,155s-12.87-5.75-12.87-5.75,3.78-3,2.27-4.54-17-8.17-17-8.17S169,127,166.3,123.93s-22.55-17.56-25.58-21.19-14.38-33.6-14.38-33.6S102.58,71.32,93.12,79.61Z" fill="#f4a998"/><path d="M44.29,119.14c.36-.94,30.89,5.14,34.3,5.69s12.56-1.93,15.72-3.83,20.2-5.12,20.2-5.12,7.3-.26,10.28-.54,18.79,1.71,20.64,3.13,1.7,5.55-2.17,7.9c-5.44,3.31-20.43,3.32-8.07,3.2,3.28,0-8.54-.14-13,0s-10.17,3.13-10.56,7.12,2.45,10.53,5.44,12.1,7.68,11,8.4,13.95-4,5.55-4,5.55,1.66,4.34-.76,6.62-7.81.88-7.81.88.52,4.36-2.32,5.35a8.51,8.51,0,0,1-5.67-.26s.05,3.36-4.36,3.78S78.69,168.27,78,167.13s-21.77-7.26-23.05-7.68-14.94-6-14.94-6S38.08,135.33,44.29,119.14Z" fill="#ffc1ae"/><path d="M132.06,146.62A33.82,33.82,0,0,0,123.22,133c-.76-.68-1.82.49-1.07,1.17a32,32,0,0,1,8.4,13c1.71,4.53,4.71,11.36,3.31,16.1-.29,1,1.26,1.3,1.55.33C137,158.3,133.91,151.51,132.06,146.62Z" fill="#b25546"/><path d="M211.25,152.3a91.09,91.09,0,0,1-43.07-19.39c-.78-.64-1.91.47-1.12,1.12a92.58,92.58,0,0,0,43.77,19.79C211.83,154,212.25,152.46,211.25,152.3Z" fill="#b25546"/><path d="M213.14,167.16a115.89,115.89,0,0,1-52-28c-.74-.69-1.86.42-1.12,1.12a117.54,117.54,0,0,0,52.66,28.38C213.71,168.92,214.13,167.4,213.14,167.16Z" fill="#b25546"/><path d="M200.08,176.3c-4.3-.93-8.05-3.87-11.71-6.19q-5.75-3.65-11.45-7.39-11.39-7.48-22.56-15.3c-.84-.58-1.63.79-.8,1.37q11.79,8.24,23.82,16.13,5.7,3.73,11.46,7.37c3.43,2.17,6.78,4.66,10.81,5.54C200.65,178,201.07,176.52,200.08,176.3Z" fill="#b25546"/><path d="M114.15,175a10.88,10.88,0,0,1-4-4.89c-.4-.93-1.76-.13-1.37.8a12.31,12.31,0,0,0,4.61,5.46C114.2,176.93,115,175.56,114.15,175Z" fill="#b25546"/><path d="M106.68,180a4.65,4.65,0,0,1-3.23-2.83c-.36-.94-1.89-.53-1.53.42a6.29,6.29,0,0,0,4.34,3.94A.79.79,0,0,0,106.68,180Z" fill="#b25546"/><path d="M135.67,127.72c-9.21,1.94-19.5-.65-27.54,5.37-.81.6,0,2,.8,1.37a17.89,17.89,0,0,1,4.21-2.33c-2.44,4.81-3.27,9.1.23,13.79,4.21,5.64,16.24,13.56,9.12,21.47-1.55-2.77-4.17-5.41-6-7.45-.68-.76-1.8.36-1.12,1.12,3.12,3.46,10.62,9.88,4.66,14.24-.81.6,0,2,.8,1.37,3.25-2.38,3.45-5.16,2.34-7.89a.69.69,0,0,0,.41-.22c3.95-4.35,2.66-10.09-.6-14.45-2-2.66-4.55-4.78-6.76-7.25a14.64,14.64,0,0,1-3.57-5.59c-.85-3.18.75-6.26,2.2-9a.74.74,0,0,0,0-.74c6.72-2,14.36-.84,21.27-2.3C137.09,129,136.67,127.51,135.67,127.72Z" fill="#b25546"/><path d="M287.92,73.81l-9.57,24s-14.19,1.2-18.15,1.31-9.06.86-12.27,2.72-11.11,7.76-11.72,11.22,1.66,9.94,7.13,7.87a105.66,105.66,0,0,0,11-5.07c2.31-1.1,2.39,2.77,1.58,6.27s-10.17,24.53-13,29.26-11.09,23.24-11.09,23.24S228.58,183,234,186.17s9.64-5.58,9.64-5.58L259.9,150,247,185s-8.19,13.31-.67,16.51,13-12.08,13-12.08,10.15-28.51,11.33-28.94-1.93,26.77-1.93,26.77l-1,14.7s-.85,4.28,4,4.85,7.2-3.82,7.7-6.39,1.11-8.12,1.11-8.12,1,3.77,5.44,1.95,7-20.93,7-20.93l1.92-9.92s8.82-23.26,8.78-25.23,12.16-49.43,12.16-49.43,5.31-8.58,5.19-9.22S298.19,67.44,287.92,73.81Z" fill="#f4a998"/><path d="M290.68,102.84c-.59.24-5.76,1.34-7,2.09s-11.08,7.58-12.18,9.32,1.56,6.36,5,5.84" fill="#f4a998"/><path d="M363.58,90.52s-29.94-1.24-33.4-2.11-12.54-3.23-17.31-1.58S287.2,104.35,283.65,107s-9.49,11.68-10.07,15.35a8.71,8.71,0,0,0,2.79,8.11,6.12,6.12,0,0,0,.13,5.39c1.46,3,5.32,2.88,5.32,2.88s2,4.41,5.62,5.15a10.66,10.66,0,0,0,7,3.07s14.68-2.37,16.61-3.12,21.7-3.55,24.61-5.26,9.42-6.29,11.14-8.17,2.68-3.61,3.66-3.92,19.22,3.89,19.25,3.37S371.36,107.61,363.58,90.52Z" fill="#ffc1ae"/><path d="M281.59,137.88l36.51-20.19c1-.53,1.7,1,.74,1.52L282.33,139.4C281.38,139.93,280.64,138.4,281.59,137.88Z" fill="#b25546"/><path d="M287.66,141.88c7.31,1.19,15.37-2.21,22-5,5.89-2.45,11.67-5.09,17.79-7,1-.32,1.35,1.35.31,1.67-7.47,2.29-14.42,5.84-21.72,8.57-5.71,2.13-12.34,4.37-18.49,3.38C286.45,143.4,286.58,141.7,287.66,141.88Z" fill="#b25546"/><path d="M245.15,121.47c4.11-2.07,5.46-6.53,4.84-10.86-.15-1.08,1.51-1.4,1.67-.31a14.63,14.63,0,0,1-.29,5.8,13.21,13.21,0,0,1,3.95-.17,25.36,25.36,0,0,0-1.61-7.47c-.39-1,1.13-1.76,1.52-.74,2.56,6.57,2,13.31,1.09,20.16-.14,1.08-1.84.94-1.69-.14a66.33,66.33,0,0,0,.76-10.09,11.89,11.89,0,0,0-4.71.39,10.27,10.27,0,0,1-4.78,5A.85.85,0,0,1,245.15,121.47Z" fill="#b25546"/><path d="M231.81,173.31c6.73-12.72,13.4-25.47,18.75-38.84.4-1,2-.45,1.6.57-5.4,13.51-12.16,26.38-18.95,39.23C232.7,175.23,231.3,174.26,231.81,173.31Z" fill="#b25546"/><path d="M238.64,185.33a234.82,234.82,0,0,0,19-33.56.88.88,0,0,1,.68-.51,20.79,20.79,0,0,0-1.75-2.69c-.66-.86.58-2,1.25-1.15a22.68,22.68,0,0,1,4.38,9.69.85.85,0,0,1-1.66.36,21.32,21.32,0,0,0-1.49-4.75,237.37,237.37,0,0,1-19,33.52C239.46,187.14,238,186.23,238.64,185.33Z" fill="#b25546"/><path d="M269.85,160a13.71,13.71,0,0,0,4.74,1.69c1.07.17.94,1.86-.14,1.69a16,16,0,0,1-5.55-2C267.95,160.85,268.91,159.45,269.85,160Z" fill="#b25546"/><path d="M255.81,194.91q5.54-17.26,12.65-33.95c.42-1,2.05-.52,1.63.48q-7.11,16.68-12.65,33.95A.85.85,0,0,1,255.81,194.91Z" fill="#b25546"/><path d="M279.45,192q1.28-13.5,3.46-26.89l-.33.13c-1,.39-1.76-1.13-.74-1.52l7.57-2.94c1-.39,1.76,1.13.74,1.52l-5.42,2.1q-2.27,13.81-3.6,27.74A.85.85,0,0,1,279.45,192Z" fill="#b25546"/><path d="M256.8,129.86c11.13-2.49,24.09-7.94,30.31-18.06.57-.93,2,0,1.4,1-3.68,6-9.59,10.38-16.13,13.55a52.54,52.54,0,0,0,3.94,8.38c-.44-2.45.61-4.38,2.26-6.33,2.54-3,5.54-5.82,8.34-8.59s6-4.06,9.36-5.83a122.4,122.4,0,0,0,13.65-8.42c.88-.63,2,.65,1.11,1.28a152.83,152.83,0,0,1-17.48,10.41c-3.59,1.88-5.82,4.13-8.63,7s-8.08,6.52-6.8,10.89c.2.68-.43,1-1,.93a52,52,0,0,0,9.28,11.05c.81.73-.48,1.83-1.28,1.11A52.67,52.67,0,0,1,270.85,127a72.52,72.52,0,0,1-13.74,4.5C256,131.76,255.73,130.1,256.8,129.86Z" fill="#b25546"/><path d="M191.86,39.54s-9.59,2.19-9.59,11.32V98.39s2,11.45,18,11.45,17.44-11.45,17.44-11.45V53.52s1.2-14-11.32-14Z" fill="#68e1fd"/><polyline points="193.02 33.73 193.02 45.41 206.98 45.41 206.98 33.73" fill="#b0ca6f"/><ellipse cx="200" cy="33.73" rx="6.98" ry="3.92" fill="#c2dd8c"/><ellipse cx="200" cy="45.34" rx="6.98" ry="3.92" fill="#b0ca6f"/><rect x="198.46" y="18.09" width="3.84" height="17.2" rx="0.99" ry="0.99" fill="#b3b3b3"/><path d="M216.4,27.87a.7.7,0,0,0,0-.09,1,1,0,0,0-.44-.46c-4.24-3.46-8.5-7.82-13.8-9.53-2.69-.87-8.87-1.44-9.1,2.88-.19,3.7,6.76,6.05,9.18,7.09,2.63,1.13,6,3.12,8.87,3.31,2,.13,3.31-.93,5-2A.94.94,0,0,0,216.4,27.87Z" fill="#b3b3b3"/><path d="M216.4,26.73a.7.7,0,0,0,0-.09,1,1,0,0,0-.44-.46c-4.24-3.46-8.5-7.82-13.8-9.53-2.69-.87-8.87-1.44-9.1,2.88-.19,3.7,6.76,6.05,9.18,7.09,2.63,1.13,6,3.12,8.87,3.31,2,.13,3.31-.93,5-2A.94.94,0,0,0,216.4,26.73Z" fill="#e6e6e6"/><path d="M182.27,62.14c0-.2,5.06,6.86,18.1,6.86s17.35-6.87,17.35-6.87V79.39s-7.06,7.25-17.35,7.25-18.1-7.45-18.1-7.45Z" fill="#faf9fe"/><circle cx="142.64" cy="106.92" r="6.75" fill="#68e1fd"/><path d="M145.26,102.44a1,1,0,0,0-1,1.73,2.17,2.17,0,0,1,1.09,1.69,1,1,0,0,0,1,1,1,1,0,0,0,1-1A4.25,4.25,0,0,0,145.26,102.44Z" fill="#fff"/><path d="M146.09,107.71a1,1,0,0,0,0,2A1,1,0,0,0,146.09,107.71Z" fill="#fff"/><circle cx="153.36" cy="113.67" r="3.91" fill="#68e1fd"/><path d="M154.88,111.08a.58.58,0,0,0-.58,1,1.25,1.25,0,0,1,.63,1,.59.59,0,0,0,.58.58.58.58,0,0,0,.58-.58A2.46,2.46,0,0,0,154.88,111.08Z" fill="#fff"/><path d="M155.36,114.13a.58.58,0,0,0,0,1.16A.58.58,0,0,0,155.36,114.13Z" fill="#fff"/><circle cx="136.66" cy="155.29" r="6.75" fill="#68e1fd"/><path d="M139.28,150.81a1,1,0,0,0-1,1.73,2.17,2.17,0,0,1,1.09,1.69,1,1,0,0,0,1,1,1,1,0,0,0,1-1A4.25,4.25,0,0,0,139.28,150.81Z" fill="#fff"/><path d="M140.11,156.09a1,1,0,0,0,0,2A1,1,0,0,0,140.11,156.09Z" fill="#fff"/><circle cx="242.36" cy="166.67" r="3.91" fill="#68e1fd"/><path d="M243.88,164.08a.58.58,0,0,0-.58,1,1.25,1.25,0,0,1,.63,1,.59.59,0,0,0,.58.58.58.58,0,0,0,.58-.58A2.46,2.46,0,0,0,243.88,164.08Z" fill="#fff"/><path d="M244.36,167.13a.58.58,0,0,0,0,1.16A.58.58,0,0,0,244.36,167.13Z" fill="#fff"/></svg>