<svg id="Layer_2" data-name="Layer 2" xmlns="http://www.w3.org/2000/svg" xmlns:xlink="http://www.w3.org/1999/xlink" viewBox="0 0 400 300"><defs><linearGradient id="linear-gradient" x1="169.82" y1="120.73" x2="208.04" y2="86.2" gradientUnits="userSpaceOnUse"><stop offset="0.01" stop-color="#16a79e"/><stop offset="1" stop-color="#225870"/></linearGradient><linearGradient id="linear-gradient-2" x1="272.49" y1="188.7" x2="286.98" y2="137.65" xlink:href="#linear-gradient"/><linearGradient id="linear-gradient-3" x1="115.29" y1="188.78" x2="171.05" y2="127.94" xlink:href="#linear-gradient"/></defs><title>PP</title><path d="M199.32,256.06,26.82,154.12C21.32,151,16.61,146,22,142.65L195.09,42.88c2.6-1.61,6.54-2.66,9.18-1.13L385.35,146.84c5.49,3.19,6.48,12.1,1,15.29L222.05,255.9A22.94,22.94,0,0,1,199.32,256.06Z" fill="#16a79e"/><path d="M209.54,94.15l-21.41-2.06-32.18,15.75,21.59,23.67c9-7.28,28.1-19.11,37.33-26.07A93.38,93.38,0,0,0,209.54,94.15Z" fill="url(#linear-gradient)"/><polyline points="362.39 152.17 259.71 215.1 255.7 213.96 199.23 166.63 234.74 143.29" fill="url(#linear-gradient-2)"/><polyline points="199.23 166.63 150.81 202.05 133.28 215.1 64.09 175.21 91.97 156.33" fill="url(#linear-gradient-3)"/><path d="M229.78,119.44s15.93,11,17.52,10.73c5.69-1,9.56-4.12,15.32-1.44,5,2.32,8.29,6.44,12,10.34s7.27,7.64,10.87,11.49c3.43,3.66,6.85,7.32,10.19,11.06,1.61,1.8,4,3.85,5,6.1,1.38,3.1,5,7.66,2.37,12.45s-14.72,3.92-14.72,3.92a3.16,3.16,0,0,1-1.06,3.43c-1.79,1.58-11.61.49-14.67,1.15s-6.25,1.66-8.65-.53-17-14.13-17.81-16.81-5.55-19.13-7.71-19.27-23-5.29-23-5.29S218.63,122.42,229.78,119.44Z" fill="#f4a998"/><path d="M267.08,176a91.76,91.76,0,0,0-11.17-13.82c-.67-.69.45-1.67,1.12-1q2.36,2.41,4.52,5a42.78,42.78,0,0,0,1.83-4.19c.34-.9,1.76-.43,1.42.47a46.17,46.17,0,0,1-2.07,4.7.7.7,0,0,1-.18.22,94.91,94.91,0,0,1,6,8.21c7.28-1.49,14.93,3.89,19,9.47.56.77-.55,1.77-1.12,1-3.81-5.2-10.83-10.34-17.64-9a.87.87,0,0,1-.65.16c-.17,0-.35.08-.52.13C266.83,177.54,266.52,176.43,267.08,176Z" fill="#b25546"/><path d="M296.74,127.38s-4.87-3.14-7.21-3.69-16.08,1.55-16.08,1.55-3.62.27-4.07,3.6A86.21,86.21,0,0,1,266.89,140c-.48,1.2-.69,3.24.42,3.8" fill="#ea9a8b"/><path d="M350.59,124s-36.17,9.89-39,9.52-7-1.44-8.62-2.65-7-4.07-8.82-4.38-16,2.75-18.57,4.61-13.14,16.56-13.82,19.25,2.38,5.7,3.68,5.88c0,0-2.08,4.32-.81,6.62a10.15,10.15,0,0,0,3,3.42s-.89,4.59,1.39,7,6.67,1.52,6.67,1.52.39,3.46,2.51,5.21,5.08,1.22,7.13.74,5-2.92,7-3.51,15-2.61,18.66-4.51,11.48-6,14.53-7.89,7.63-5.79,9.62-7,27.22-5.59,27.22-5.59S362.25,138,350.59,124Z" fill="#ffc1ae"/><path d="M264,162.07c-1.26-2.79-.5-5.54,1.28-7.94,2.86-3.83,6.63-7,9.58-10.79.74-1,2.33.07,1.58,1-1.82,2.34-3.74,4.6-5.78,6.74-2.53,2.66-6.84,6-5,10.12C266.22,162.35,264.52,163.19,264,162.07Z" fill="#b25546"/><path d="M280.45,155c.94-.76,2.2.65,1.25,1.42-3.43,2.76-16.22,10.28-11.14,15.59.84.88-.58,2.13-1.42,1.25C262.53,166.37,276.23,158.42,280.45,155Z" fill="#b25546"/><path d="M286.86,166c1-.62,1.87,1.08.83,1.7-2.05,1.22-13.18,6.79-10.4,10.44.73,1-.68,2.22-1.42,1.25C271.39,173.5,283,168.29,286.86,166Z" fill="#b25546"/><path d="M280.28,139.83a.65.65,0,0,1,.5-.74,5.36,5.36,0,0,1,2.43-.18.65.65,0,0,1,.59.67.63.63,0,0,1-.67.59,4.55,4.55,0,0,0-2.11.16A.63.63,0,0,1,280.28,139.83Z" fill="#b25546"/><path d="M285.23,151.27a.64.64,0,0,1,.29-.84l1.65-.65a.65.65,0,0,1,.84.29.64.64,0,0,1-.29.84l-1.65.65A.65.65,0,0,1,285.23,151.27Z" fill="#b25546"/><path d="M291.37,164.32a.64.64,0,0,1,.5-.74.88.88,0,0,0,.53-.51c.3-.75,1.5-.36,1.2.39a2.24,2.24,0,0,1-1.49,1.35A.63.63,0,0,1,291.37,164.32Z" fill="#b25546"/><path d="M153.66,163.52s3,19.34,3.09,20.93-5.21,2.27-7.91-.75c-1.67-1.88-2.68-8.31-3.22-10.18s-2.56-28.76-2.56-28.76l-.84-8.54,9.32-1.16Z" fill="#dd877f"/><path d="M162.18,176.19s7.87,17.92,8.37,19.42-4.45,3.54-7.83,1.31c-2.1-1.38-4.73-7.34-5.73-9s-9.88-27.13-9.88-27.13l-3-8,8.71-3.52Z" fill="#ea998c"/><path d="M159.08,150.76s1.44-5.46,1.12-9-4.65-26.89-5.77-30.19-2.89-9.07-4.49-12-13.79-19.89-13.79-19.89-13.63,3.85-21,14.27c0,0,11.23,14.77,12.35,17.57s7.54,31.1,7.54,31.1" fill="#f4a998"/><path d="M196.49,162.91s2.74-5.09-2.15-8.23-15.87-4.11-21.74-4.51c-4.84-.32-19.57-1.74-24.64-2.23-3,.23-6,.32-9,.32h-.81l-16.8,1a.43.43,0,0,1-.33.19,61.44,61.44,0,0,1-6.25.19l-1.48.09.69-.1a98.27,98.27,0,0,1-13.1-1.36c-5.25-.86-10.61-2.1-15.2-4.86h-.08c-4,.35-20-5.78-20-5.78-5.74,5.26-8.56,31-8.56,31s8.82,1,13.71,1.57,31,4.9,34.09,4.9,28.6-.59,31.73-1,5.88-3.72,9.66-3.92,17.57-1.57,17.57-1.57,16.85,4.51,19.2,4.31,2.35-4.9,2.35-4.9,5.09,1.18,7.84,1.57,5.68,0,6.07-2.94S196.49,162.91,196.49,162.91Z" fill="#ffc1ae"/><path d="M155.66,147.2c.53.53,2.28,15.78,3.68,19.11s7,13.33,6.66,14.9-1.78,4.15-6.66,2.63-11.4-15.08-13-18.94-6.33-16-6.33-16,0-10.17,7.21-12.19S155.66,147.2,155.66,147.2Z" fill="#f4a998"/><path d="M118.36,149.63h.09l5.33-.78,1.56.08c3.37-.9,6.82-.54,10.27-.48a101.15,101.15,0,0,0,11-.42c4.42-1.61,8.74-5,6.61-8.9-2.63-4.81-28.22-5.53-31.73-5.35s-18.93.88-25.07,2.45c-5.46,1.4-8.7,6.55-12.2,7.91,4.35,2.4,9.33,3.53,14.21,4.33A80.27,80.27,0,0,0,118.36,149.63Z" fill="#ffc1ae"/><path d="M122.95,109.73A40.72,40.72,0,0,0,127,123.25c3.38,6.94,3,18.2,9.43,19.33s8.19-5.1,7.47-8.66-2.85-8.72-3-12.81.27-9.07-1.38-13a7.52,7.52,0,0,0-8.37-4.51C128.42,104,122.64,106.2,122.95,109.73Z" fill="#f4a998"/><path d="M143.33,128.82a30.59,30.59,0,0,1-1-9.63c.25-2.54.5-4.61-.41-7-.36-1-1.9-.54-1.54.42,1.45,3.87-.13,8.29.49,12.35.81,5.3,3.12,10.66,0,15.68-.54.88.84,1.68,1.38.81C144.75,137.47,144.27,133.2,143.33,128.82Z" fill="#b25546"/><path d="M147.74,147.5a162.7,162.7,0,0,0-20.86,1.22,91.5,91.5,0,0,1-27.66-1.16c-1-.18-1.44,1.36-.42,1.54,8.92,1.58,17.66,2.47,26.7,1.39,5.76-.69,11.49-1.15,17.24-1.32A21.5,21.5,0,0,0,147.74,147.5Z" fill="#b25546"/><path d="M195.42,161.41q-19-3.43-38.21-5.82c-1-.13-1,1.47,0,1.6q19,2.37,37.78,5.76C196,163.13,196.43,161.59,195.42,161.41Z" fill="#b25546"/><path d="M185.93,167.56l-25,.05a.8.8,0,0,0,0,1.6l25-.05A.8.8,0,0,0,185.93,167.56Z" fill="#b25546"/><path d="M135.77,167.7a15.86,15.86,0,0,1-3.73.12c-1-.08-1,1.52,0,1.6a17.6,17.6,0,0,0,4.16-.18C137.21,169.09,136.78,167.55,135.77,167.7Z" fill="#b25546"/><path d="M196,37.53s-9.59,2.19-9.59,11.32V96.39s2,11.45,18,11.45,17.44-11.45,17.44-11.45V51.52s1.2-14-11.32-14Z" fill="#68e1fd"/><polyline points="197.21 31.73 197.21 43.41 211.17 43.41 211.17 31.73" fill="#b0ca6f"/><ellipse cx="204.19" cy="31.73" rx="6.98" ry="3.92" fill="#c2dd8c"/><ellipse cx="204.19" cy="43.34" rx="6.98" ry="3.92" fill="#b0ca6f"/><rect x="202.64" y="16.08" width="3.84" height="17.2" rx="0.99" ry="0.99" fill="#b3b3b3"/><path d="M220.58,25.87a.7.7,0,0,0,0-.09,1,1,0,0,0-.44-.46c-4.24-3.46-8.5-7.82-13.8-9.53-2.69-.87-8.87-1.44-9.1,2.88-.19,3.7,6.76,6.05,9.18,7.09,2.63,1.13,6,3.12,8.87,3.31,2,.13,3.31-.93,5-2A.94.94,0,0,0,220.58,25.87Z" fill="#b3b3b3"/><path d="M220.58,24.73a.7.7,0,0,0,0-.09,1,1,0,0,0-.44-.46c-4.24-3.46-8.5-7.82-13.8-9.53-2.69-.87-8.87-1.44-9.1,2.88-.19,3.7,6.76,6.05,9.18,7.09,2.63,1.13,6,3.12,8.87,3.31,2,.13,3.31-.93,5-2A.94.94,0,0,0,220.58,24.73Z" fill="#e6e6e6"/><path d="M186.46,60.13c0-.2,5.06,6.86,18.1,6.86s17.35-6.87,17.35-6.87V77.39s-7.06,7.25-17.35,7.25-18.1-7.45-18.1-7.45Z" fill="#faf9fe"/><circle cx="164.09" cy="141.5" r="6.75" fill="#68e1fd"/><path d="M166.71,137a1,1,0,0,0-1,1.73,2.17,2.17,0,0,1,1.09,1.69,1,1,0,0,0,1,1,1,1,0,0,0,1-1A4.25,4.25,0,0,0,166.71,137Z" fill="#fff"/><path d="M167.54,142.29a1,1,0,0,0,0,2A1,1,0,0,0,167.54,142.29Z" fill="#fff"/><circle cx="140.04" cy="177.55" r="6.75" fill="#68e1fd"/><path d="M142.65,173.07a1,1,0,0,0-1,1.73,2.17,2.17,0,0,1,1.09,1.69,1,1,0,0,0,1,1,1,1,0,0,0,1-1A4.25,4.25,0,0,0,142.65,173.07Z" fill="#fff"/><path d="M143.49,178.34a1,1,0,0,0,0,2A1,1,0,0,0,143.49,178.34Z" fill="#fff"/><circle cx="174.82" cy="148.25" r="3.91" fill="#68e1fd"/><path d="M176.33,145.66a.58.58,0,0,0-.58,1,1.25,1.25,0,0,1,.63,1,.59.59,0,0,0,.58.58.58.58,0,0,0,.58-.58A2.46,2.46,0,0,0,176.33,145.66Z" fill="#fff"/><path d="M176.81,148.71a.58.58,0,0,0,0,1.16A.58.58,0,0,0,176.81,148.71Z" fill="#fff"/><circle cx="263.69" cy="126.71" r="6.75" fill="#68e1fd"/><path d="M266.3,122.23a1,1,0,0,0-1,1.73,2.17,2.17,0,0,1,1.09,1.69,1,1,0,0,0,1,1,1,1,0,0,0,1-1A4.25,4.25,0,0,0,266.3,122.23Z" fill="#fff"/><path d="M267.14,127.5a1,1,0,0,0,0,2A1,1,0,0,0,267.14,127.5Z" fill="#fff"/><circle cx="261.69" cy="145.58" r="3.91" fill="#68e1fd"/><path d="M263.21,143a.58.58,0,0,0-.58,1,1.25,1.25,0,0,1,.63,1,.59.59,0,0,0,.58.58.58.58,0,0,0,.58-.58A2.46,2.46,0,0,0,263.21,143Z" fill="#fff"/><path d="M263.69,146a.58.58,0,0,0,0,1.16A.58.58,0,0,0,263.69,146Z" fill="#fff"/><circle cx="298.11" cy="184.3" r="6.75" fill="#68e1fd"/><path d="M300.72,179.82a1,1,0,0,0-1,1.73,2.17,2.17,0,0,1,1.09,1.69,1,1,0,0,0,1,1,1,1,0,0,0,1-1A4.25,4.25,0,0,0,300.72,179.82Z" fill="#fff"/><path d="M301.56,185.1a1,1,0,0,0,0,2A1,1,0,0,0,301.56,185.1Z" fill="#fff"/></svg>