<svg xmlns="http://www.w3.org/2000/svg" xmlns:xlink="http://www.w3.org/1999/xlink" viewBox="0 0 400 300"><defs><linearGradient id="linear-gradient" x1="335.89" y1="176.37" x2="296.77" y2="213.57" gradientUnits="userSpaceOnUse"><stop offset="0" stop-color="#9736bb"/><stop offset="1" stop-color="#fff"/></linearGradient><linearGradient id="linear-gradient-2" x1="227.38" y1="134.64" x2="164.81" y2="194.14" gradientUnits="userSpaceOnUse"><stop offset="0.01" stop-color="#0071bc"/><stop offset="1" stop-color="#fff"/></linearGradient><linearGradient id="linear-gradient-3" x1="244.65" y1="132.83" x2="209.55" y2="166.21" xlink:href="#linear-gradient-2"/><linearGradient id="linear-gradient-4" x1="156.51" y1="182.25" x2="106.7" y2="229.61" xlink:href="#linear-gradient-2"/></defs><title>PP_</title><g style="isolation:isolate"><g id="Layer_2" data-name="Layer 2"><path d="M192.34,288.42l-165.77-98c-5.28-3-9.8-7.83-4.66-11L188.28,83.55c2.5-1.55,6.29-2.56,8.82-1.09l174,101c5.28,3.06,6.22,11.63.94,14.69L214.19,288.26A22,22,0,0,1,192.34,288.42Z" fill="#6182e0"/><path d="M99.23,201.78l61.3,33.9a11.38,11.38,0,0,0,11.2-.1l115-66.39a5.61,5.61,0,0,0-.09-9.76l-59.41-32.79a7.6,7.6,0,0,0-7.47.07L99.18,196.31A3.14,3.14,0,0,0,99.23,201.78Z" fill="#4266b7"/><path d="M298,219.41c11.84-7.49,44.27-24.24,44.27-24.24l-16.21-9.82-46,19.28C286.33,208.25,291.69,215.83,298,219.41Z" opacity="0.68" fill="url(#linear-gradient)" style="mix-blend-mode:multiply"/><polyline points="129.37 34.08 126.85 32.62 81.37 59.47 81.39 108.62 83.53 109.79" fill="#68e1fd"/><polyline points="129.37 34.08 126.85 32.62 81.37 59.47 81.39 108.62 83.53 109.79" opacity="0.27"/><polygon points="83.53 60.54 83.53 109.79 129.37 82.45 129.37 34.08 83.53 60.54" fill="#68e1fd"/><polygon points="89.13 61.88 125.04 40.9 125.26 81.47 89.13 102.96 89.13 61.88" fill="#fff"/><path d="M111.12,73.52a2.57,2.57,0,0,0-.69-1.39l.12-.17a2,2,0,0,0-.19-2.74,6.92,6.92,0,0,0,.54-1.36,2.31,2.31,0,0,0-.48-2.24c.78-2.49-3-4.47-4.59-1.92A10.29,10.29,0,0,0,104.11,69a3.54,3.54,0,0,0,.09,2.75,3.39,3.39,0,0,0,.32.49l-.17.34a2.87,2.87,0,0,0-.22,1.79,2.18,2.18,0,0,0-.6,2.2c-.43.37-.85.76-1.29,1.12-2.31,1.93.63,5.07,3,3.93q4-1.91,8.08-3.68C116.2,76.69,113.91,72.64,111.12,73.52Z" fill="#fbb03b"/><path d="M107.86,58.28c-7.92,2.86-8.11,15-7.68,21.84.2,3.2,5.2,3.22,5,0-.29-4.67-.63-12.3,2.84-15.9a3.53,3.53,0,0,1,1-.88q.75-.61.1.2c.79.79,1.06,2.59,1.23,3.63a29.19,29.19,0,0,1-.17,8.11c-.35,3.19,4.65,3.17,5,0C115.65,71.31,116,55.35,107.86,58.28Z" fill="#9643e9"/><path d="M99.23,197.57l61.3,33.9a11.38,11.38,0,0,0,11.2-.1l115-66.39a5.61,5.61,0,0,0-.09-9.76l-59.41-32.79a7.6,7.6,0,0,0-7.47.07L99.18,192.1A3.14,3.14,0,0,0,99.23,197.57Z" fill="#68e1fd"/><path d="M341.93,178.12c-1.28-1.26-1.18-1.7-1.33-3.36-1.72-.61-4.37-2-6.93-1.86-1.83.13-4.29,1.39-5.7,1.86-.78,2.6-1.29,3.92-3.78,5.23a15.88,15.88,0,0,1-1.77.77,3.3,3.3,0,0,0-2.1,3.6c.74,4.77,3.52,12.89,13.8,12.89,11.2,0,13-9.44,13.17-13.95a2.4,2.4,0,0,0-1.16-2.17A22,22,0,0,1,341.93,178.12Z" fill="#a5dd73"/><ellipse cx="334.29" cy="174.76" rx="6.31" ry="2.36" fill="#200904"/><path d="M327.55,167.59c.74,2.84,1.26,5.75,1.71,8.64q.3.17.61.32l.91.29.4.09a97.07,97.07,0,0,0-1.94-9.86c0-.17.08-.34.11-.51.83-.92,2-2.52.77-3.28-.77-.46-1.35,0-1.77.76a33,33,0,0,0-5.54-10.69c.66-1.23.5-3.21.35-4.47s-.56-3-1.81-3.56a.94.94,0,0,0-1.08.14c-.71.67-.62,1.89-.63,2.77,0,.62,0,1.25,0,1.87-.44-.39-.9-.77-1.38-1.13,0,0,0,0,0,0a7.49,7.49,0,0,0-2.78-4.24c-1-.68-2.83-1.45-3.82-.37-2.32,2.53,3.57,5.41,5.21,6a.85.85,0,0,0,.36.06,23.35,23.35,0,0,1,1.85,1.55,8.1,8.1,0,0,0-3.09-.25c-1.2.15-3.11.72-3.35,2.15-.57,3.4,7.3,1.82,8.84,1.4a.84.84,0,0,0,.4-.24,27.14,27.14,0,0,1,2.45,3.94,7.62,7.62,0,0,0-3-.86c-1.12-.07-3.2,0-3.77,1.15-.68,1.38,1,2.2,2,2.54a15.57,15.57,0,0,0,5.62.45.85.85,0,0,0,.58-.26c.41,1,.77,2.07,1.1,3.13-1.81-1.28-5.06-1.81-6.39,0a.89.89,0,0,0,0,.9c.4.81,1.66.94,2.44,1.15a36.47,36.47,0,0,0,3.76.79A.92.92,0,0,0,327.55,167.59Z" fill="#f67770"/><path d="M329.91,156.81a.87.87,0,0,0,.2,0c.15.61.25,1.22.39,1.83-.09-.06-.17-.13-.27-.19a2,2,0,0,0-2.8.53c-.53,1,.34,2.22,1,3a13.26,13.26,0,0,0,3,2l.06,0a101.93,101.93,0,0,1,1.32,13.13c.29,0,.58,0,.87.05s.61,0,.92,0a103.54,103.54,0,0,0-1.77-15.89.84.84,0,0,0,.7-.25c1.25-1.48,5.74-6.83,2.34-8.37-2.42-1.1-3.43,2-3.88,4.66-.27-1.16-.51-2.33-.82-3.49a.8.8,0,0,0,.25-.17c2.12-2.15,4-4.46,4.27-7.57h0a.88.88,0,0,0-.55-1.19c-1.69-.53-2.9.85-3.77,2.12a9.36,9.36,0,0,0-1.3,2.91c-.33-1.07-.67-2.14-1-3.21a4,4,0,0,0-3.59-7.1c-2.2.73-2.75,3.3-2.26,5.33a3.31,3.31,0,0,0,4.17,2.38c.65,1.89,1.22,3.8,1.76,5.71a6.38,6.38,0,0,0-1.64-1.43c-.92-.56-2.65-1.4-3.48-.31s.37,2.58,1.27,3.31A11,11,0,0,0,329.91,156.81Zm-2-11.42a.85.85,0,0,0-.33.05c-1.09.41-2.26.35-2.6-.95s-.09-3,1.39-3.22C328.8,140.84,329.72,144.06,327.86,145.39Z" fill="#f67770"/><path d="M360.83,148.23a5.14,5.14,0,0,0-5.33,2.2.72.72,0,0,0-.51.44c-.44.22-.84.47-1.26.71a6.53,6.53,0,0,0,.51-5.07.89.89,0,0,0-.77-.59.81.81,0,0,0-.61.12l-.12.07,0,0a7.31,7.31,0,0,0-1.86,6.51.91.91,0,0,0,.28.54c-7.7,5.53-11.74,14.51-14,23.77a9.27,9.27,0,0,0,2-.64c2.2-8.47,6-16.55,13.05-21.65,1.1,2.18,3.47,2.91,5.75,3.1a.75.75,0,0,0,.65-.24,1,1,0,0,0,.48-1.26,5.82,5.82,0,0,0-2.49-2.14,7.44,7.44,0,0,0-2.22-.9q1-.56,2-1a6.42,6.42,0,0,0,5-2.64A.9.9,0,0,0,360.83,148.23Z" fill="#f67770"/><path d="M347.25,150.22a.84.84,0,0,0-.35-.23.9.9,0,0,0-1.21.28c-1.31,2-1.08,5.55.15,7.49a.92.92,0,0,0,1.6-.12.9.9,0,0,0,.33-.4C348.72,154.91,349.06,152.19,347.25,150.22Z" fill="#f67770"/><path d="M342.32,156a.84.84,0,0,0-.35-.23.9.9,0,0,0-1.21.28c-1.31,2-1.08,5.55.15,7.49a.92.92,0,0,0,1.6-.12.9.9,0,0,0,.33-.4C343.78,160.65,344.12,157.93,342.32,156Z" fill="#f67770"/><path d="M354.41,160.47a.84.84,0,0,0,.3-.3.9.9,0,0,0,0-1.24c-1.68-1.66-5.24-2.12-7.38-1.28a.92.92,0,0,0-.18,1.59.9.9,0,0,0,.33.41C349.52,161,352.13,161.86,354.41,160.47Z" fill="#f67770"/><path d="M350.58,164.36a.84.84,0,0,0,.19-.38.9.9,0,0,0-.43-1.17c-2.11-1.06-5.64-.38-7.41,1.09a.92.92,0,0,0,.32,1.57.9.9,0,0,0,.44.28C346.11,166.39,348.85,166.39,350.58,164.36Z" fill="#f67770"/><path d="M346.45,181.39c-2.21,1.66-4.76,2.18-7.65,2.58-1.64.23-5,1.53-4.23,3.34.16.4,1,.72,1.26,1a3.62,3.62,0,0,1,1.1,1.64c.38,1.84-1.33,3.17-2.93,3.55-1.4.34-2.89-.15-4.26-.4-.86-.15-3.29-.93-4-.33a3.07,3.07,0,0,0-.89,1,12.88,12.88,0,0,0,9.3,3.39c11.2,0,13-9.44,13.17-13.95A2.38,2.38,0,0,0,346.45,181.39Z" fill="#98d15d"/><path d="M166.33,200.12c16.69-10.57,69.1-37.69,69.1-37.69l-27.56-17.76-67.69,37.43C149.08,187.22,157.42,195.07,166.33,200.12Z" opacity="0.68" fill="url(#linear-gradient-2)" style="mix-blend-mode:multiply"/><path d="M210.4,169.57c9.37-5.93,38.77-21.14,38.77-21.14l-15.46-10-38,21C200.73,162.33,205.4,166.73,210.4,169.57Z" opacity="0.68" fill="url(#linear-gradient-3)" style="mix-blend-mode:multiply"/><path d="M123.83,239.91C140.52,229.34,161,202.38,161,202.38l-17.58-8.29L87,219.89C95.85,225,114.92,234.86,123.83,239.91Z" opacity="0.68" fill="url(#linear-gradient-4)" style="mix-blend-mode:multiply"/><path d="M182,132.37c2.21.62,16.12,2.53,18.47,1.46s7.06-5.13,11.55-3.42S227,142,229.37,145s5.13,9.2,5.13,12.84-7.91,9.39-14.33,7.9S206.7,155.43,196,155" fill="#fbb03b"/><path d="M151.68,193s2.66,3.62,0,7-11.87,9.86-10.37,11.36A11.2,11.2,0,0,0,151.68,214s7.41-7.1,9.34-10.3V190.43" fill="#f7cac3"/><path d="M141.53,187.23s2.29,3.86-.69,7-12.78,8.65-11.43,10.29a11.2,11.2,0,0,0,10.07,3.57s8.07-6.35,10.3-9.34l1.29-13.17" fill="#f7cac3"/><path d="M192.17,137.29s-7.08-4.62-10.15-4.92-27.39-1.54-40.93,4.92-6.77,17.23-5.54,23.08,6.77,20.31,5.85,28c0,0,3.32,4.62,10.27,0,0,0-2.27-32.31-2.27-33.54s6.77-3.38,15.39-1.85" fill="#11aa7e"/><path d="M192.17,137.29c-1.23,0-26.46,4-32.62,6.77s-8.62,8-7.69,16.62.24,30.16-.19,32.31c0,0,7,2.46,10,0,0,0,5.23-19.69,5.54-33.85,0,0,7.08,3.78,18.77,2.46s12.62-7.08,13.23-9.54S192.17,137.29,192.17,137.29Z" fill="#15c899"/><path d="M190.44,195.44s-14.12,3.42-12.19,4.92,4.34-2.57,3.77,0-3.06,4.06-4,6.63,1.09,8.27,4,7.35,12.91-13.55,15.27-15.9,37.22-30.38,37.22-35.51.43-7.49-5.56-8.13-15.62,11.55-19,17.76S190.44,195.44,190.44,195.44Z" fill="#f7cac3"/><path d="M232.77,130.33s4.74-6.68,10.74-6.19,9.71,7.81,10.38,12-1.78,12.39-8.65,14S232,145,232,145" fill="#2b2742"/><path d="M240.48,127.39s-15.7,4.37-15.06,10.57,5.73,7.55,10.15,7.28c0,0,3.25,4.59,5.49,1.71a2.73,2.73,0,0,0-.92-4.41s6-.6,5.59-3.57S252.43,131.24,240.48,127.39Z" fill="#f7cac3"/></g></g></svg>