<svg xmlns="http://www.w3.org/2000/svg" xmlns:xlink="http://www.w3.org/1999/xlink" viewBox="0 0 400 300"><defs><linearGradient id="linear-gradient" x1="335.89" y1="175.69" x2="296.77" y2="212.89" gradientUnits="userSpaceOnUse"><stop offset="0" stop-color="#666"/><stop offset="1" stop-color="#fff"/></linearGradient><linearGradient id="linear-gradient-2" x1="244.94" y1="158.02" x2="215.14" y2="186.35" gradientUnits="userSpaceOnUse"><stop offset="0.01" stop-color="#0071bc"/><stop offset="1" stop-color="#fff"/></linearGradient><linearGradient id="linear-gradient-3" x1="167.23" y1="184.7" x2="137.43" y2="213.03" xlink:href="#linear-gradient-2"/></defs><title>PP_</title><g style="isolation:isolate"><g id="Layer_2" data-name="Layer 2"><path d="M192.34,288.42l-165.77-98c-5.28-3-9.8-7.83-4.66-11L188.28,83.55c2.5-1.55,6.29-2.56,8.82-1.09l174,101c5.28,3.06,6.22,11.63.94,14.69L214.19,288.26A22,22,0,0,1,192.34,288.42Z" fill="#dbdbdb"/><path d="M298,218.72c11.84-7.49,44.27-24.24,44.27-24.24l-16.21-9.82-46,19.28C286.33,207.57,291.69,215.14,298,218.72Z" opacity="0.68" fill="url(#linear-gradient)" style="mix-blend-mode:multiply"/><path d="M99.23,201.78l61.3,33.9a11.38,11.38,0,0,0,11.2-.1l115-66.39a5.61,5.61,0,0,0-.09-9.76l-59.41-32.79a7.6,7.6,0,0,0-7.47.07L99.18,196.31A3.14,3.14,0,0,0,99.23,201.78Z" fill="#b6b9bf"/><path d="M99.23,197.57l61.3,33.9a11.38,11.38,0,0,0,11.2-.1l115-66.39a5.61,5.61,0,0,0-.09-9.76l-59.41-32.79a7.6,7.6,0,0,0-7.47.07L99.18,192.1A3.14,3.14,0,0,0,99.23,197.57Z" fill="#68e1fd"/><path d="M341.93,178.12c-1.28-1.26-1.18-1.7-1.33-3.36-1.72-.61-4.37-2-6.93-1.86-1.83.13-4.29,1.39-5.7,1.86-.78,2.6-1.29,3.92-3.78,5.23a15.88,15.88,0,0,1-1.77.77,3.3,3.3,0,0,0-2.1,3.6c.74,4.77,3.52,12.89,13.8,12.89,11.2,0,13-9.44,13.17-13.95a2.4,2.4,0,0,0-1.16-2.17A22,22,0,0,1,341.93,178.12Z" fill="#a5dd73"/><ellipse cx="334.29" cy="174.76" rx="6.31" ry="2.36" fill="#200904"/><path d="M327.55,167.59c.74,2.84,1.26,5.75,1.71,8.64q.3.17.61.32l.91.29.4.09a97.07,97.07,0,0,0-1.94-9.86c0-.17.08-.34.11-.51.83-.92,2-2.52.77-3.28-.77-.46-1.35,0-1.77.76a33,33,0,0,0-5.54-10.69c.66-1.23.5-3.21.35-4.47s-.56-3-1.81-3.56a.94.94,0,0,0-1.08.14c-.71.67-.62,1.89-.63,2.77,0,.62,0,1.25,0,1.87-.44-.39-.9-.77-1.38-1.13,0,0,0,0,0,0a7.49,7.49,0,0,0-2.78-4.24c-1-.68-2.83-1.45-3.82-.37-2.32,2.53,3.57,5.41,5.21,6a.85.85,0,0,0,.36.06,23.35,23.35,0,0,1,1.85,1.55,8.1,8.1,0,0,0-3.09-.25c-1.2.15-3.11.72-3.35,2.15-.57,3.4,7.3,1.82,8.84,1.4a.84.84,0,0,0,.4-.24,27.14,27.14,0,0,1,2.45,3.94,7.62,7.62,0,0,0-3-.86c-1.12-.07-3.2,0-3.77,1.15-.68,1.38,1,2.2,2,2.54a15.57,15.57,0,0,0,5.62.45.85.85,0,0,0,.58-.26c.41,1,.77,2.07,1.1,3.13-1.81-1.28-5.06-1.81-6.39,0a.89.89,0,0,0,0,.9c.4.81,1.66.94,2.44,1.15a36.47,36.47,0,0,0,3.76.79A.92.92,0,0,0,327.55,167.59Z" fill="#f67770"/><path d="M329.91,156.81a.87.87,0,0,0,.2,0c.15.61.25,1.22.39,1.83-.09-.06-.17-.13-.27-.19a2,2,0,0,0-2.8.53c-.53,1,.34,2.22,1,3a13.26,13.26,0,0,0,3,2l.06,0a101.93,101.93,0,0,1,1.32,13.13c.29,0,.58,0,.87.05s.61,0,.92,0a103.54,103.54,0,0,0-1.77-15.89.84.84,0,0,0,.7-.25c1.25-1.48,5.74-6.83,2.34-8.37-2.42-1.1-3.43,2-3.88,4.66-.27-1.16-.51-2.33-.82-3.49a.8.8,0,0,0,.25-.17c2.12-2.15,4-4.46,4.27-7.57h0a.88.88,0,0,0-.55-1.19c-1.69-.53-2.9.85-3.77,2.12a9.36,9.36,0,0,0-1.3,2.91c-.33-1.07-.67-2.14-1-3.21a4,4,0,0,0-3.59-7.1c-2.2.73-2.75,3.3-2.26,5.33a3.31,3.31,0,0,0,4.17,2.38c.65,1.89,1.22,3.8,1.76,5.71a6.38,6.38,0,0,0-1.64-1.43c-.92-.56-2.65-1.4-3.48-.31s.37,2.58,1.27,3.31A11,11,0,0,0,329.91,156.81Zm-2-11.42a.85.85,0,0,0-.33.05c-1.09.41-2.26.35-2.6-.95s-.09-3,1.39-3.22C328.8,140.84,329.72,144.06,327.86,145.39Z" fill="#f67770"/><path d="M360.83,148.23a5.14,5.14,0,0,0-5.33,2.2.72.72,0,0,0-.51.44c-.44.22-.84.47-1.26.71a6.53,6.53,0,0,0,.51-5.07.89.89,0,0,0-.77-.59.81.81,0,0,0-.61.12l-.12.07,0,0a7.31,7.31,0,0,0-1.86,6.51.91.91,0,0,0,.28.54c-7.7,5.53-11.74,14.51-14,23.77a9.27,9.27,0,0,0,2-.64c2.2-8.47,6-16.55,13.05-21.65,1.1,2.18,3.47,2.91,5.75,3.1a.75.75,0,0,0,.65-.24,1,1,0,0,0,.48-1.26,5.82,5.82,0,0,0-2.49-2.14,7.44,7.44,0,0,0-2.22-.9q1-.56,2-1a6.42,6.42,0,0,0,5-2.64A.9.9,0,0,0,360.83,148.23Z" fill="#f67770"/><path d="M347.25,150.22a.84.84,0,0,0-.35-.23.9.9,0,0,0-1.21.28c-1.31,2-1.08,5.55.15,7.49a.92.92,0,0,0,1.6-.12.9.9,0,0,0,.33-.4C348.72,154.91,349.06,152.19,347.25,150.22Z" fill="#f67770"/><path d="M342.32,156a.84.84,0,0,0-.35-.23.9.9,0,0,0-1.21.28c-1.31,2-1.08,5.55.15,7.49a.92.92,0,0,0,1.6-.12.9.9,0,0,0,.33-.4C343.78,160.65,344.12,157.93,342.32,156Z" fill="#f67770"/><path d="M354.41,160.47a.84.84,0,0,0,.3-.3.9.9,0,0,0,0-1.24c-1.68-1.66-5.24-2.12-7.38-1.28a.92.92,0,0,0-.18,1.59.9.9,0,0,0,.33.41C349.52,161,352.13,161.86,354.41,160.47Z" fill="#f67770"/><path d="M350.58,164.36a.84.84,0,0,0,.19-.38.9.9,0,0,0-.43-1.17c-2.11-1.06-5.64-.38-7.41,1.09a.92.92,0,0,0,.32,1.57.9.9,0,0,0,.44.28C346.11,166.39,348.85,166.39,350.58,164.36Z" fill="#f67770"/><path d="M346.45,181.39c-2.21,1.66-4.76,2.18-7.65,2.58-1.64.23-5,1.53-4.23,3.34.16.4,1,.72,1.26,1a3.62,3.62,0,0,1,1.1,1.64c.38,1.84-1.33,3.17-2.93,3.55-1.4.34-2.89-.15-4.26-.4-.86-.15-3.29-.93-4-.33a3.07,3.07,0,0,0-.89,1,12.88,12.88,0,0,0,9.3,3.39c11.2,0,13-9.44,13.17-13.95A2.38,2.38,0,0,0,346.45,181.39Z" fill="#98d15d"/><polyline points="129.37 34.08 126.85 32.62 81.37 59.47 81.39 108.62 83.53 109.79" fill="#68e1fd"/><polyline points="129.37 34.08 126.85 32.62 81.37 59.47 81.39 108.62 83.53 109.79" opacity="0.27"/><polygon points="83.53 60.54 83.53 109.79 129.37 82.45 129.37 34.08 83.53 60.54" fill="#68e1fd"/><polygon points="89.13 61.88 125.04 40.9 125.26 81.47 89.13 102.96 89.13 61.88" fill="#fff"/><ellipse cx="107.19" cy="73.23" rx="12.24" ry="9.7" transform="translate(3.31 151.07) rotate(-71.18)" fill="#68e1fd"/><path d="M216.84,189.32c5.24-3.32,29.9-20,29.9-20l-6-6.48-35.35,19.89C208.17,184.29,214,187.73,216.84,189.32Z" opacity="0.68" fill="url(#linear-gradient-2)" style="mix-blend-mode:multiply"/><path d="M139.13,216c5.24-3.32,29.9-20,29.9-20l-6-6.48-35.35,19.89C130.45,211,136.33,214.41,139.13,216Z" opacity="0.68" fill="url(#linear-gradient-3)" style="mix-blend-mode:multiply"/><path d="M181.75,105.18a4.26,4.26,0,0,1-1.27-.2c-7-2.1-6-10.49-5.65-16.19.45-6.94.91-13.88,1.8-20.78s2.71-13.54,3-20.41a5.29,5.29,0,0,0,0-.76c-.23-2.34-1.56-6.49-.62-9.82s2.54-4.4,3.6-4.4a2.32,2.32,0,0,1,1.73,1.07,8.73,8.73,0,0,1,.93,3.74c.13,2.4-1.2,5.47,0,5.07s2.14-3.07,3.2-2.8.67,1.2,0,2.27-3.6,4.4-4,5.74a17.06,17.06,0,0,0-.18,4.35c0,3,0,6,0,9,0,8.59-.12,17.05.91,25.58.59,4.85,2.12,12.39-.65,16.85A3.28,3.28,0,0,1,181.75,105.18Z" fill="#f7cac3"/><path d="M178.55,135.31s-17,6.47-21.7,11,1.37,21.51,1.75,25.89.38,14.85.38,14.85a16.19,16.19,0,0,0,9.33,0s3.62-24.18.19-28.74c0,0,24.37-3.43,26.27-6.47S192.41,131.88,178.55,135.31Z" fill="#11aa7e"/><path d="M178.55,135.31s4.45,16.9,13.59,20.33,38.61-3.57,44.51-1.1c0,0,2.86-1.33,2.47-6.09,0,0-8.76-4.76-15.42-5.71s-7.61,1.71-13.13.57-7.23-7.23-12.37-9.33S180.08,130.36,178.55,135.31Z" fill="#15c899"/><path d="M192.92,96.42s-4,1.13-6.74,0-2.72-8.08-2.72-8.08-4.19,6.11-5.52,8.71-4.91,9-2.63,15.23c2.41,6.59,4.83,10.48,1.82,20.66,0,0,0,5.82,22.69,1.94,0,0-6.27-12-1.8-21.49S202.27,99,202.27,99Z" fill="#fbb03b"/><path d="M159,187.09s-1.07,5.55-3.92,6.93-10.12,2.66-10,4.74,7.86,4.85,12.82,3.7,10.4-4.51,11-5.89-.55-9.48-.55-9.48" fill="#f7cac3"/><path d="M236.65,154.54s3.06,2.51,3.06,5.5-2.21,5.73-3.06,7,4.1,5.34,7.49,3.78,4.17-5.93,4.56-8-1-10.52-2.08-12.35-4.29-1.56-7.49-2.08" fill="#f7cac3"/><path d="M178.39,82.08S176,70.62,189.47,72.87c9.64,1.6,8.67,18.68-.27,18.82" fill="#534741"/><path d="M179.63,81.14s-2.14,16.15,4.27,16.55,8.41-7.07,8.41-7.07,3.69-2.68,2.8-4.4-3.34-1.33-4.4,1.47c0,0,.93-10.31-5.6-10.69S179.63,81.14,179.63,81.14Z" fill="#f7cac3"/><path d="M197.94,108.86a4.26,4.26,0,0,1-1.27-.2c-7-2.1-6-10.49-5.65-16.19.45-6.94.91-13.88,1.8-20.78s2.71-13.54,3-20.41a5.29,5.29,0,0,0,0-.76c-.23-2.34-1.56-6.49-.62-9.82s2.54-4.4,3.6-4.4a2.32,2.32,0,0,1,1.73,1.07,8.73,8.73,0,0,1,.93,3.74c.13,2.4-1.2,5.47,0,5.07s2.14-3.07,3.2-2.8.67,1.2,0,2.27-3.6,4.4-4,5.74a17.06,17.06,0,0,0-.18,4.35c0,3,0,6,0,9,0,8.59-.12,17.05.91,25.58.59,4.85,2.12,12.39-.65,16.85A3.28,3.28,0,0,1,197.94,108.86Z" fill="#f7cac3"/></g></g></svg>