<svg id="Layer_1" data-name="Layer 1" xmlns="http://www.w3.org/2000/svg" viewBox="0 0 400 300"><path d="M82.48,99.27s-58.21,115.05,93.61,115,155.39-27.32,162.52-68.29-15.7-86.62-72.06-99.11S108.87,47.2,82.48,99.27Z" fill="#e6e6e6" opacity="0.3"/><ellipse cx="196.63" cy="247.33" rx="117.25" ry="11.24" fill="#e6e6e6" opacity="0.45"/><path d="M243.18,227.47s5.22-11.12,14.73-7.63-8.88,17.29,5.71,16.25,20.61-2.15,21.24,9.51H245.35Z" fill="#c9c9c9"/><path d="M192.08,142.38s-8.56,26.4,24.73,44.47c0,0-.71,17.13-19.26,16.41s-38.77-11.17-33.77-38.76S185.42,136.44,192.08,142.38Z" fill="#ffd200"/><path d="M192.08,142.38s-8.56,26.4,24.73,44.47c0,0-.71,17.13-19.26,16.41s-38.77-11.17-33.77-38.76S185.42,136.44,192.08,142.38Z" opacity="0.08"/><circle cx="257.93" cy="60.03" r="1.35" fill="#fff"/><path d="M143.8,245.6s17.36-49.47-1.19-77.53-12.72-48.52,11.71-64.69,53.93,5.47,56.78,32.58l-17.6-2.38,3.81,13.56-13.79-.57L183,160.4l-12.84-.16s-3.81,38.11,20,36.52l2.38-12,18.08,6.34,6.66-20.35,3.72,3a41.05,41.05,0,0,1,13.57,20c4.26,13.94,10.46,36.68,10.77,51.91Z" fill="#ffd200"/><ellipse cx="173.75" cy="116.78" rx="20.98" ry="18.69" transform="translate(-35.57 113.79) rotate(-33.09)" fill="#fff"/><ellipse cx="180.42" cy="111.54" rx="12.48" ry="12.93" transform="translate(-31.63 116.58) rotate(-33.09)" fill="#24285b"/><ellipse cx="180.42" cy="105.91" rx="5.96" ry="6.18" transform="translate(-28.56 115.67) rotate(-33.09)" fill="#fff" opacity="0.22"/><path d="M139.69,116.23s-3.58,30.75,9.74,42.16,26.32,67.55,23.46,87.21H143.8s11.81-30.92,5.15-61.52c0,0-.42-8-11.31-24.47C137.64,159.61,123.45,136.21,139.69,116.23Z" opacity="0.08"/><path d="M177.7,192.44s-6.55-13.62,6.77-21.14,25,.81,27.58-16.55,29.26-25.21,43-11.89c0,0-28.06-5-31.87,15.22,0,0-1.19,9.78-5.94,12.62l-6.66,20.35-18.08-6.34-2.38,12S184.25,198.5,177.7,192.44Z" fill="#68e1fd"/><path d="M183.39,196.08s-3.56-12.67,3.57-15.77,13.68,1.67,18.79-4.63,10.47-7.93,11.06-15.44,7.79-14.77,17.81-15.72a19.56,19.56,0,0,0-11.89,16.29s-1.16,7.64-5.44,9.89l-6.66,20.35-18.08-6.34-2.38,12S185.59,197.14,183.39,196.08Z" opacity="0.08"/><path d="M126.31,245.6S122.51,230,134.56,230s6.34,11.59,20,6.11,24.79-3.38,25.88,9.51Z" fill="#c9c9c9"/><circle cx="280.92" cy="72.58" r="38.92" fill="#24285b"/><ellipse cx="282.46" cy="46.27" rx="5.58" ry="10.71" transform="translate(207.64 322.54) rotate(-84.15)" opacity="0.08"/><ellipse cx="305.08" cy="54.19" rx="3.36" ry="6.46" transform="translate(108.69 293.86) rotate(-60.74)" opacity="0.08"/><ellipse cx="289.02" cy="59.86" rx="3.36" ry="6.46" transform="translate(151.37 320.95) rotate(-73.9)" opacity="0.08"/><path d="M247.23,53.07s-17.88-2.62-25.59,7.83,16,33.29,76.9,41.42S347.54,83,319.8,71c0,0,1.89,17.25-15.53,14.75C285.1,83,232.78,80.64,247.23,53.07Z" fill="#ffd200"/><path d="M247.23,53.07s-17.88-2.62-25.59,7.83,16,33.29,76.9,41.42S347.54,83,319.8,71c0,0,1.89,17.25-15.53,14.75C285.1,83,232.78,80.64,247.23,53.07Z" fill="#68e1fd"/></svg>