<svg id="Layer_1" data-name="Layer 1" xmlns="http://www.w3.org/2000/svg" viewBox="0 0 400 300"><path d="M108.09,68.63c-30.8,11.93-53.66,42.19-58.17,78.78-3.79,30.84,5.28,64.91,58.69,74.62,103.92,18.89,201.25,24.27,226.1-26.69s17.2-138.27-35.53-143.92C257.24,46.93,168.27,45.33,108.09,68.63Z" fill="#e6e6e6" opacity="0.3"/><path d="M159.27,83.89s-9.84,14.38,2.45,39.05-4.43,43.05-31,50.72l4.66,8.34s60.47-4.17,55.53-59.6S159.27,83.89,159.27,83.89Z" fill="#f4a28c"/><path d="M159.27,83.89s-9.84,14.38,2.45,39.05-4.43,43.05-31,50.72l4.66,8.34s60.47-4.17,55.53-59.6S159.27,83.89,159.27,83.89Z" opacity="0.08"/><path d="M160.94,81.38s-18,19.08-1,47.87l23.41-4.39Z" fill="#68e1fd"/><path d="M160.94,81.38s-18,19.08-1,47.87l23.41-4.39Z" opacity="0.08"/><path d="M153.55,113.33l9.87-4.12,7,11.89-13.68,2A39.72,39.72,0,0,1,153.55,113.33Z" fill="#24285b"/><path d="M206.07,173.57l8.23,22.74a23.12,23.12,0,0,0,29.37,13.95l41.66-14.57-4-9.32-32,6.91a9.42,9.42,0,0,1-11.41-9l-.49-22.76Z" fill="#68e1fd"/><path d="M206.07,173.57l8.23,22.74a23.12,23.12,0,0,0,29.37,13.95l41.66-14.57-4-9.32-32,6.91a9.42,9.42,0,0,1-11.41-9l-.49-22.76Z" opacity="0.18"/><ellipse cx="207.68" cy="252.64" rx="114.76" ry="10.94" fill="#e6e6e6" opacity="0.45"/><path d="M164.91,47.82s.06,6.64,1.59,10.91a3.33,3.33,0,0,0,4.29,2c2.14-.8,4.8-2.5,5.2-6.06l1.41-6a6,6,0,0,0-3.22-6.08C170.2,40.3,164.67,43.78,164.91,47.82Z" fill="#f4a28c"/><polygon points="174.11 48.71 185.95 66.96 175.42 72.76 171.04 57.15 174.11 48.71" fill="#f4a28c"/><path d="M172.48,52.8s-.2-2.55,1.73-2.53,2.24,3.69-.33,4.28Z" fill="#f4a28c"/><path d="M165.17,52l-1.6,2.73a1.06,1.06,0,0,0,.82,1.59l2.58.24Z" fill="#f4a28c"/><path d="M171.8,60.19a8,8,0,0,0,2.1-4s1.16,3.74-.5,9.37Z" fill="#ce8172" opacity="0.31"/><path d="M161.72,44.86v7.55l10.08-1s.22,4.93,4.51,4.77h.13a6.76,6.76,0,0,0,6.32-5.45c.8-4.17,1.32-10.11-1.67-12.11C176.31,35.43,164.05,33.71,161.72,44.86Z" fill="#68e1fd"/><path d="M161.72,50.27s-2.94,3.47-1.19,4,11.27-2.87,11.27-2.87S164.57,52.24,161.72,50.27Z" fill="#24285b"/><circle cx="175.79" cy="52.86" r="1.69" fill="#f4a28c"/><path d="M174.24,55.1l.4,3.85a1,1,0,0,1-.56,1l-6.92,3.39a1,1,0,0,1-1.38-.52l-1.52-3.7a1,1,0,0,1,.53-1.31l8-3.54A1,1,0,0,1,174.24,55.1Z" fill="none" stroke="#68e1fd" stroke-linecap="round" stroke-linejoin="round" stroke-width="0.5"/><polygon points="175.42 72.76 171.04 77.84 182.31 85.68 198.5 63.46 185.95 66.96 175.42 72.76" fill="#f4a28c"/><path d="M255.37,83.89s-11.28-28.12-29.66-32.48S191,65.55,191,65.55L179.74,83.89l-6.69-8.38S155.84,75.38,156.82,97c.4,8.76,4.86,15.54,10,20.51a133.35,133.35,0,0,1,30.59,43.42l1.07,2.5,42.29-17.65,3.76-53.58Z" fill="#68e1fd"/><polygon points="174.64 77.84 185.95 73.78 179.74 83.89 174.64 77.84" fill="#24285b"/><path d="M208.94,81.39s-5.54,16.55,6.71,22.19-4.17,27-4.17,27-8,4.5-2.54,11.94A17.54,17.54,0,0,1,211.48,158l29.3-12.23,1.35-15.69-10-27.7-11.59-8.58Z" opacity="0.08"/><path d="M233.39,102.37A27.34,27.34,0,0,0,212,113.27a6.24,6.24,0,0,0-.11,7.48c3.3,4.47,10.25,11.4,21.49,11a27.35,27.35,0,0,0,21.39-10.9,6.24,6.24,0,0,0,.1-7.48C251.58,108.93,244.64,102,233.39,102.37Z" fill="#ffd200"/><path d="M252,86.45s29.58,36.74,17.32,50.71S214,134.71,214,134.71l3.65-9.81s15.9,4.13,26.93,1.19-14.32-25.51-14.32-25.51Z" fill="#f4a28c"/><path d="M214,134.71s-11.41-5.79-8.94-13.88,8.94-.58,8.94-.58,6.4-2.75,3.65,4.65Z" fill="#24285b"/><path d="M215.65,88.62l8,7.47,26.57-22.31a58.57,58.57,0,0,0-5.52-8.23Z" fill="#24285b"/><ellipse cx="170.46" cy="100.42" rx="5.27" ry="6.65" transform="translate(-24.58 67.27) rotate(-20.86)" fill="#fff" opacity="0.46"/><path d="M240.78,145.74s13.05,22.31-7.39,34.57-66.67,8.56-67.29,61.16h-9.32s-12.79-49,41.71-78.08Z" fill="#68e1fd"/><path d="M240.78,145.74s13.05,22.31-7.39,34.57-66.67,8.56-67.29,61.16h-9.32s-12.79-49,41.71-78.08Z" opacity="0.08"/><path d="M174,181.87l13.63,17.24s-13.67,10.61-18.17,26.79l-14.82-4.24S153.26,196.7,174,181.87Z" fill="#24285b"/><path d="M154.59,221.66s0,8.76,1.08,19.81H166.1a104.11,104.11,0,0,1,3.31-15.57Z" fill="#fff"/><path d="M155.67,241.47a18.39,18.39,0,0,1-11.51,4.8s-1.73,6.13,5.75,5.18,12.66-1.73,14.77-1.73,5.13-2.3,1.42-8.25Z" fill="#68e1fd"/><path d="M285.74,195.5a18.41,18.41,0,0,1,9.62,7.93s6.23-1.34,1.89-7.5-7.45-10.39-8.43-12.25-4.44-3.46-7.95,2.6Z" fill="#68e1fd"/><polygon points="256.08 191.82 258.86 204.95 285.33 195.69 281.31 186.37 256.08 191.82" fill="#fff"/><path d="M240.07,190.05s-14,6.42-20.22,14.9c0,0,6,8,20.22,6.61L258.86,205l-2.78-13.13-6.74,1.46S244.52,195.2,240.07,190.05Z" fill="#24285b"/><path d="M138,171.19v10.68a35.56,35.56,0,0,1-13.89,2.32c-7.92-.25-4.79-9.71,1.28-9.45,0,0-.8-6.89,3.3-5.1S131.48,172.48,138,171.19Z" fill="#24285b"/></svg>