<svg id="Layer_1" data-name="Layer 1" xmlns="http://www.w3.org/2000/svg" viewBox="0 0 400 300"><title>_</title><path d="M282.48,60.7c30.21,11.11,53.76,42,60,80.4,5.29,32.39-3,72.14-52.42,90.31C239.64,250,98.28,258.19,71.71,205.55S50.3,85.6,104.09,62.06C141.79,45.56,223.48,39,282.48,60.7Z" fill="#e6e6e6" opacity="0.3"/><rect x="169.28" y="87.03" width="107.27" height="76.58" fill="#e6e6e6"/><polygon points="276.54 163.61 169.28 163.61 147.09 192.57 298.73 192.57 276.54 163.61" fill="#ccc"/><path d="M109.14,192.47s9.63-45.31,33.86-45.31,37.13,71.22-21.82,79Z" fill="#f4a28c"/><path d="M109.14,192.47s9.63-45.31,33.86-45.31,37.13,71.22-21.82,79Z" opacity="0.1"/><rect x="127.9" y="64.75" width="106.9" height="164.81" fill="#68e1fd"/><rect x="127.9" y="64.75" width="106.9" height="164.81" fill="#fff" opacity="0.46"/><rect x="136.58" y="78.15" width="89.52" height="123.29" fill="#fff"/><rect x="169.27" y="87.03" width="56.83" height="76.58" fill="#e6e6e6"/><polygon points="226.1 163.61 226.1 192.57 147.09 192.57 169.27 163.61 226.1 163.61" fill="#ccc"/><path d="M158.37,160.94s10.31,6.19,6.35,15.38-16,14.77-16.21,26.83,0,26.41,0,26.41H130.35V201.44Z" opacity="0.1"/><path d="M128.12,175.64s18.71-19.13,26.79-17.43c6.66,1.41,6.67,14.67-7.85,25.72a25.76,25.76,0,0,0-10.22,18.79c-.41,6.17-2.45,13.52-8.72,19.07-13.17,11.66-23,1.5-21.68-14.25S108.57,187.12,128.12,175.64Z" fill="#f4a28c"/><polygon points="132.96 253.1 135.4 219.27 99.69 208.45 86.35 253.1 132.96 253.1" fill="#68e1fd"/><polygon points="132.96 253.1 135.4 219.27 118.35 214.1 113.39 253.1 132.96 253.1" opacity="0.1"/><circle cx="161.01" cy="71.25" r="2.83" opacity="0.1"/><rect x="169.35" y="70.27" width="29.85" height="2.57" rx="1.04" opacity="0.1"/><circle cx="179.15" cy="214.91" r="9.02" fill="#24285b"/><rect x="166.06" y="150.97" width="30.56" height="30.56" fill="#ffd200"/><polygon points="200 146.25 224.31 170.56 200 170.56 200 146.25" fill="#ffd200"/><circle cx="181.34" cy="134.36" r="16.6" fill="#ffd200"/><rect x="142.09" y="111.29" width="8.28" height="8.28" fill="#e6e6e6"/><polygon points="150.36 92.13 142.09 92.13 142.09 83.85 150.36 92.13" fill="#e6e6e6"/><circle cx="146.22" cy="103.15" r="4.17" fill="#e6e6e6"/><path d="M258.59,165.9s-10-16.13-32.63-13.58c-17.68,2-12.51,12-3.94,14.11s24.49.54,19.36,14.3c-4.52,12.13-14.68-10.17-23.69-12.07s-10.92,8.42-1.69,17.08,21,25,35.6,19.15S267.65,181.43,258.59,165.9Z" fill="#f4a28c"/><polygon points="303.77 253.1 267.75 188.63 242.96 206.12 255.78 253.1 303.77 253.1" fill="#68e1fd"/><polygon points="275.84 253.1 254.44 198.03 242.96 206.12 255.78 253.1 275.84 253.1" opacity="0.1"/><path d="M226.31,174.79s-5.9-8.67-12.87-5.73-2.15,11.34-.27,13.54S226.31,174.79,226.31,174.79Z" fill="#f4a28c"/></svg>