<svg id="Layer_1" data-name="Layer 1" xmlns="http://www.w3.org/2000/svg" viewBox="0 0 400 300"><title>#99_ar_twocolour</title><path d="M102.33,115.4s2.88-9.57-9.63-12.56-33.14,13.5-43.91-2.37-9.27-32,12.26-38.14-.84-32.77,36.82-33.07S123,48.4,144.5,47.06s38.28,12.61,25.72,29.26S129.9,89.38,133.61,115.4Z" fill="#e6e6e6" opacity="0.3"/><ellipse cx="208.28" cy="257.63" rx="110.41" ry="15.41" fill="#e6e6e6" opacity="0.45"/><path d="M184.16,249.79s-3.7,2.6-7,.65-6.32.55-4.05,3.35,12.12,4.29,12.12,4.29l3.8-5.95Z" fill="#68e1fd"/><path d="M262.76,250.34s.42,4.5-2.92,6.43-2.66,5.77.89,5.19,9.74-8.41,9.74-8.41l-3.29-6.25Z" fill="#68e1fd"/><path d="M219.45,168.21l-39.22,81.4,10.9,5s34.5-68.59,60.35-73.38Z" fill="#24285b"/><path d="M211.68,84.77s-17.8,17-21.39,34.52-31.85,25.64-58.77,16.2l-2.69,11.19s57.42,34.55,90.62-19.29S211.68,84.77,211.68,84.77Z" fill="#f4a28c"/><path d="M130.84,241.87s-9.37-2.56-11.41-11.28c0,0,14.52-2.94,14.94,12Z" fill="#68e1fd" opacity="0.58"/><path d="M132,240.94s-6.55-10.35-.78-20c0,0,11,7,6.13,20.05Z" fill="#68e1fd" opacity="0.73"/><path d="M133.68,241s3.46-10.93,13.92-13c0,0,2,7.1-6.77,13Z" fill="#68e1fd"/><polygon points="126.88 240.7 128.78 253.7 140.75 253.75 142.51 240.77 126.88 240.7" fill="#24285b"/><circle cx="50.27" cy="101.4" r="3.54" fill="#c9c9c9"/><circle cx="138.62" cy="30.51" r="3.54" fill="#c9c9c9"/><circle cx="50.27" cy="39.97" r="3.54" fill="#c9c9c9" opacity="0.36"/><circle cx="164.24" cy="106.14" r="3.54" fill="#c9c9c9" opacity="0.36"/><path d="M226.07,51.83A30.67,30.67,0,0,0,225,60a2.5,2.5,0,0,0,2.66,2.33,5.53,5.53,0,0,0,5-3.29l2.25-4a4.46,4.46,0,0,0-1.06-5C231.43,47.51,226.73,48.87,226.07,51.83Z" fill="#f4a28c"/><polygon points="233.93 56.03 237.84 71.84 228.9 74.67 229.67 61.56 233.93 56.03" fill="#f4a28c"/><path d="M225.39,54.89l-1.71,1.62a.79.79,0,0,0,.26,1.32l1.8.7Z" fill="#f4a28c"/><path d="M229.65,61.89s3-1.39,3.86-2.63c0,0-.18,6.5-4.2,8.39Z" fill="#ce8172" opacity="0.31"/><path d="M231,56.33s.38-1.87,1.77-1.46.84,3.11-1.12,3Z" fill="#f4a28c"/><path d="M236.75,53.94l-1,1.79s-1.25,4.59-4.31,7-7.36,1.89-7.73-1.34c-.42-3.71,2.06-2.82,5.38-3s2.82-4.61,2.82-4.61a3.78,3.78,0,0,1-3.14-1.65,8.79,8.79,0,0,0-3.56-2.83c-2.94-1.24.65-5.1.65-5.1-2-1.09-.46-3.38,1.45-4.08s2.45,1.53,3.89,2,.87-1.88,3.67-1.31,1.28,2.64,3,4.16c0,0,1.94-1.48,3.43,1.88.86,1.93.42,2.83-.44,3.33A10.78,10.78,0,0,0,236.75,53.94Z" fill="#24285b"/><path d="M217.81,78.33s-17.55,12-29.76,38.24A36.81,36.81,0,0,1,172,133.83a35.16,35.16,0,0,1-3.68,1.66l4.93,21.94s31.73.92,50.19-30S217.81,78.33,217.81,78.33Z" fill="#68e1fd"/><path d="M207.54,87.59s-9,9.83-13.23,17.35c0,0-2.14,27.16,11.39,41.74l4.05-3.1,12.62-18.21Z" opacity="0.08"/><path d="M233.87,54.39s2.41-1.42,3.31.5-1.8,3.42-3.63,2.25A4,4,0,0,0,233.87,54.39Z" fill="#f4a28c"/><path d="M223.43,76.4l14.41-4.56s60.57-18,61.92,14.24c1.24,29.74-18.89,49.22-22,82.13H219.45S179.85,86.87,223.43,76.4Z" fill="#68e1fd"/><path d="M268.53,74.67s-16.31,15.6-6.9,35,6.28,32.3-8.08,29.61-31.18-12.12-31.18-12.12-9.87,8.53,0,13.46,27.2,10.6,20.89,27.59h34.47l2.44-12.28,14-25.32v-9.92L278.9,82.3Z" opacity="0.08"/><path d="M168.31,135.49l4.93,21.94a58.29,58.29,0,0,0,12.44-1.68L177,130.61A24.62,24.62,0,0,1,168.31,135.49Z" fill="#fff" opacity="0.39"/><path d="M219.45,168.21h58.28l-21,34.2A25,25,0,0,0,257,229l11.34,17.75-6.73,5.39-19.3-22.23a37,37,0,0,1-8.15-32.34l3.66-16.32Z" fill="#24285b"/><path d="M268.2,81.84A12.92,12.92,0,0,1,286,69.74c10.78,4.37,24.11,17.14,27.2,53.1,5.38,62.57-83.91,12.65-83.91,12.65l3.12-9.31s27.17,4.2,46.3,3.58A6.66,6.66,0,0,0,284,119.23C277.4,110.11,268.36,95.17,268.2,81.84Z" fill="#f4a28c"/><path d="M271.38,71.31S282.49,60.09,298,76.24,315,126.71,315,126.71s5.84,31.18-29.61,29.16L276,129.79s13-2.12,5.16-11.91C281.14,117.88,256.46,83.64,271.38,71.31Z" fill="#68e1fd"/><polygon points="275.98 129.79 268.8 128.73 276.73 155.97 285.4 155.88 275.98 129.79" fill="#68e1fd"/><rect x="214.19" y="100.47" width="14.23" height="25.4" fill="#ffd200"/><polygon points="275.98 129.79 268.8 128.73 276.73 155.97 285.4 155.88 275.98 129.79" fill="#fff" opacity="0.39"/><path d="M232.43,126.18s-6.55-8.36-10.73-7.17-9,11.72,7.61,16.48Z" fill="#f4a28c"/><path d="M131.52,135.49s-7.06-7.19-12.74-6.76-9.21,13,10.05,18Z" fill="#f4a28c"/><rect x="93.35" y="115.4" width="46.66" height="17.05" fill="#24285b"/><rect x="99.93" y="121.44" width="19.74" height="4.43" fill="#fff"/><circle cx="130.27" cy="123.65" r="3.34" fill="#68e1fd"/><circle cx="89.28" cy="63.32" r="25.72" fill="#68e1fd"/><circle cx="153.38" cy="79.02" r="14.15" fill="#ffd200"/><path d="M63.71,60.62S48.6,65.16,50.42,75.52s51.69,4.78,68.42-2.13,15.6-16.44-5.36-19c0,0,4.2,9.15-8.9,12C89.17,69.75,61.22,76.31,63.71,60.62Z" fill="#68e1fd"/><path d="M63.71,60.62S48.6,65.16,50.42,75.52s51.69,4.78,68.42-2.13,15.6-16.44-5.36-19c0,0,4.2,9.15-8.9,12C89.17,69.75,61.22,76.31,63.71,60.62Z" fill="#fff" opacity="0.48"/><ellipse cx="79.94" cy="47.06" rx="5.67" ry="4.29" transform="matrix(0.96, -0.27, 0.27, 0.96, -9.77, 23.47)" opacity="0.08"/><ellipse cx="92.7" cy="44.68" rx="2.99" ry="3.96" transform="translate(18.63 116.12) rotate(-69.7)" opacity="0.08"/><ellipse cx="159.42" cy="74.02" rx="2.91" ry="3.85" transform="translate(5.76 159.34) rotate(-53.95)" opacity="0.08"/><ellipse cx="88.91" cy="52.76" rx="2.99" ry="2.26" transform="translate(-10.98 26.12) rotate(-15.75)" opacity="0.08"/><ellipse cx="150.47" cy="71.81" rx="2.91" ry="2.2" opacity="0.08"/><circle cx="122.9" cy="97.86" r="6.71" fill="#24285b"/></svg>