<svg id="Layer_1" data-name="Layer 1" xmlns="http://www.w3.org/2000/svg" viewBox="0 0 400 300"><title>#136_asia_twocolour</title><rect x="89.35" y="64.87" width="210.12" height="160.45" fill="#c9c9c9"/><polyline points="152.14 64.95 194.12 30.33 233.17 64.95" fill="none" stroke="#24285b" stroke-miterlimit="10" stroke-width="2"/><rect x="85.58" y="61.51" width="217.35" height="10.08" fill="#ffd200"/><rect x="85.58" y="225.32" width="217.35" height="10.08" fill="#ffd200"/><circle cx="194.12" cy="29.83" r="4.89" fill="#68e1fd"/><rect x="106.86" y="86.7" width="175" height="123.37" fill="#fff"/><polygon points="287.69 235.4 287.69 201.36 307.1 201.36 299.97 235.4 287.69 235.4" opacity="0.08"/><rect x="295.8" y="194.22" width="41" height="71.81" fill="#e6e6e6"/><path d="M312.2,184s-8.52-2.33-10.37-10.25c0,0,13.19-2.67,13.57,10.95Z" fill="#68e1fd" opacity="0.58"/><path d="M313.24,183.11s-5.95-9.4-.71-18.2c0,0,10,6.37,5.57,18.22Z" fill="#68e1fd" opacity="0.73"/><path d="M314.77,183.12s3.15-9.93,12.65-11.82c0,0,1.78,6.45-6.15,11.84Z" fill="#68e1fd"/><polygon points="308.6 182.89 310.32 194.7 321.19 194.75 322.8 182.95 308.6 182.89" fill="#24285b"/><ellipse cx="316.3" cy="266.03" rx="41.31" ry="6.96" fill="#e6e6e6" opacity="0.45"/><rect x="249.51" y="99.49" width="23.63" height="25.9" fill="#24285b"/><circle cx="254.9" cy="106.82" r="1.57" fill="#68e1fd"/><circle cx="254.9" cy="112.87" r="1.57" fill="#fff"/><circle cx="254.9" cy="118.91" r="1.57" fill="#ffd200"/><rect x="259.7" y="105.45" width="9.54" height="2.23" fill="#fff" opacity="0.2"/><rect x="259.7" y="111.75" width="9.54" height="2.23" fill="#fff" opacity="0.2"/><rect x="259.7" y="117.92" width="9.54" height="2.23" fill="#fff" opacity="0.2"/><rect x="120.03" y="176.32" width="41.81" height="22.25" fill="#24285b"/><text transform="translate(127.43 191.07)" font-size="11.03" fill="#fff" font-family="Poppins-Bold, Poppins" font-weight="700">Asia</text><path d="M222,130.39c1.65,1.41,2.44,2.89,1.94,4.86l-2.46.89a3.68,3.68,0,0,1-.05-.58,22.28,22.28,0,0,0,.21-2.45,1.25,1.25,0,0,0-1.3-1.2v-1.65a2.42,2.42,0,0,0-3.3.6l-.44-.76a3.27,3.27,0,0,0,.55-.63c.1-.21.15-.65.06-.7s-.68-.26-.84-.13c-.68.55-1.25,1.25-1.94,1.81a4,4,0,0,1-1.26.4c-.1.47-.17,1,.75,1.18.21,0,.34.49.43.84a.87.87,0,0,0,1.2-.16l.07-.1c.24-.32.48-.4.88-.1a5,5,0,0,0,1.35.52l-1.43.55a3.39,3.39,0,0,0-1.87,2,.63.63,0,0,0,.22.55c.69.22.82.82,1.1,1.36s.58,1.06.91,1.65a4,4,0,0,0-.72-.23,6.76,6.76,0,0,0-.9,0l1.87,1.05-1.4,1a2.84,2.84,0,0,1,.68,0c.14.05.52.26.51.37a4.76,4.76,0,0,1-1.39,2.86c-.17.17-.4.44-.37.63a1.67,1.67,0,0,1-.78,1.55,21.06,21.06,0,0,1-1.89,1.65,7.37,7.37,0,0,1-1.81.64l-.94.3-.24-.48c-.09.05-.18.08-.18.1,0,.72-.38.85-1.05,1-.85.11-1.84.19-2.3,1.33l-.12-.79-1.37-.49c-.61.52-1.34,1.1-2.06,1.75a1.11,1.11,0,0,0-.22,1.54.75.75,0,0,0,.15.16c.85,1,1.72,2,2.51,3.08s.45,2.2.37,3.3c0,.55-1.65,1.23-2.26,1,.22,1.26-1,1.13-1.53,1.78a2.28,2.28,0,0,0-1.83-2.2,1.79,1.79,0,0,0-1.85-1.54c0-.67-.38-1-1-.74-.23,1-.5,2-.65,3-.05.31.25.66.36,1a9.76,9.76,0,0,0,.4,1.3,3,3,0,0,0,.81,1c.49.38,1.1.55,1.58,1a1.61,1.61,0,0,1,.49,1.19c-.15,1.05.41,1.85,1,2.89a3.59,3.59,0,0,1-2.62-1.44,4.87,4.87,0,0,1-.89-2.09,4.28,4.28,0,0,0-1.77-2.75.86.86,0,0,1-.34-1,11.4,11.4,0,0,0,.44-2.52,15.61,15.61,0,0,0-.79-2.79c-.17-.63-.3-1.27-.48-1.89a1.49,1.49,0,0,0-.29-.47l-1.45,1.28-1.17-.31a3.31,3.31,0,0,0-1.1-3.94c-.55-.44-1.21-.87-1.1-1.78,0-.22-.22-.52-.41-.71a8.44,8.44,0,0,0-1-.76l-.16,1.25c-.72.35-1.81-.12-2.61.55a3.58,3.58,0,0,0-.55.84c-.19.31-.37.89-.55.89-1.23,0-1.48,1.23-2.26,1.78-.95.68-1.82,1.47-2.75,2.19a1.76,1.76,0,0,0-.71,2.16,1.24,1.24,0,0,1-.14,1.45.79.79,0,0,0-.19.55c.17,1.18-.61,1.76-1.39,2.38a4.47,4.47,0,0,0-.64.86c-.6-.45-1.1-.81-1.17-1.65a6,6,0,0,0-.86-1.85c-.3-.63-.44-1.16-.68-1.73a15.38,15.38,0,0,1-.81-1.86,38.38,38.38,0,0,1-1-4,15.48,15.48,0,0,1,0-2.36c0-.15-.13-.28-.2-.43-.13.11-.32.21-.39.35s0,.47-.11.69a1,1,0,0,1-1.38.42l-.11-.07a.49.49,0,0,1-.13-.12l-.87-.9c.21-.14.39-.25.55-.37a1.68,1.68,0,0,0,.51-.55c-1.3.7-1.8-.62-2.67-1-.38-.15-.51-.88-.83-1.29a1,1,0,0,0-.77-.36c-.55,0-1.14.13-1.72.18-.74.06-1.48.1-2.24.14-.2-1,.1-1.33,1.65-1.51a6.16,6.16,0,0,0-1-1.71c-1.35-1.1-1.47-1.58-.33-3.11L160,139.2c-.12-.69-.25-1.47-.38-2.25a.5.5,0,0,1,0-.34,3.07,3.07,0,0,0,.46-2.91c-.44-.25-.83-.48-1.23-.69a10.74,10.74,0,0,0-2.56-1.23c-.6-.14-1.32.3-2,.55a6.42,6.42,0,0,0-.9.47l-.23-.18a4.77,4.77,0,0,0,.22-1.45,7.74,7.74,0,0,0-.69-1.62c-.08-.19-.13-.39-.2-.59a2.59,2.59,0,0,1,.55-.13h1.25c-.49-1.57-1.16-2.09-2.1-1.72l-.05-.63a9.37,9.37,0,0,1-1.25-1.1,7.55,7.55,0,0,1-.64-1.31l.71,0c-.29-1.54,1-.82,1.52-1.1a7.62,7.62,0,0,1,.14-.81c.31-1,0-1.1-.94-1.4-1.25-.43-2,.55-2.79.58-.37-.62-.55-1.32-1-1.65-1.38-1-1.53-1.26-.95-2.92.1-.3.22-.59.34-.9.66-.24.55,1.35,1.48.63-.55-1,.33-1.23.88-1.79,1-1,2-.58,3-.41.5.09.9.72,1.38,1.15l.19-.31c.45.6.88.55,1.49.1a4.58,4.58,0,0,1,1.65-.46h.17c.44.55.78,1.42,1.7.6,1,.67,1-.27,1.47-.82l-1.3-1c.79-.21.82-.71.45-1.4l1.26-.11.07-.17-.86-.41-.18-.93c1.1-.19,2.16-.35,3.24-.59a10.76,10.76,0,0,0,1.74-.58c.67-.28,1.3-.66,2-.89a3,3,0,0,1,1.19,0,5.08,5.08,0,0,1,.84.19l.37,1.59a7.33,7.33,0,0,1,1.62.12c.25.07.38.55.66,1l2.46-1.14c2,1,2.36,3.26,3.59,5l.76-.65c.6,1.22,1.65.43,2.51.63.5.12,1,.81,1.23,1.35.4.85.92.8,1.59.45.51.55.86,1.06,1.79.36a25.46,25.46,0,0,1,3.6-1.86,1.57,1.57,0,0,1,1.81.41,2.42,2.42,0,0,0,1.83.83c.29,0,.55.09.87.08s.6,0,.72-.17a1.77,1.77,0,0,0,.33-.91,7.9,7.9,0,0,1,.08-1.46.89.89,0,0,1,1.06-.65.86.86,0,0,1,.32.15c.5.25,1.1.3,1.6.55a1.25,1.25,0,0,1,.65.74,1.61,1.61,0,0,0,1.85,1.32,1.42,1.42,0,0,0,.35-.11,2.38,2.38,0,0,1,3.19.91.85.85,0,0,0,.26.24,5.48,5.48,0,0,0,4.73-.55c.58-.55,1.1-.92,1.94-.27a5.29,5.29,0,0,0,2.1.66c.55.11,1.65-.94,1.84-1.48a4.84,4.84,0,0,1,.85-1.91c.6-.64.55-1,0-1.53a2.06,2.06,0,0,1,2-.9,2.47,2.47,0,0,0,.65-.16c.16,0,.35-.18.47-.13,1.1.5,2.31.9,2.68,2.33a29.94,29.94,0,0,0,1.1,3.23,1,1,0,0,0,.67.55,2.54,2.54,0,0,1,2.2,1.83,1.24,1.24,0,0,0,1.55.83,1.07,1.07,0,0,0,.41-.21l.42-.3c.55-.4,1.07-.49,1.24.2-.24.67-.42,1.26-.66,1.83a11.58,11.58,0,0,1-.83,1.65c-.09.14-.43.12-.66.16s-.69,0-.84.17a1.11,1.11,0,0,0-.23.91,1.93,1.93,0,0,1-.41,2c-.42.61-1.16,1.19-1.1,2.2,0,.34-.5.79-.86,1.1A12.06,12.06,0,0,1,222,130.39Z" fill="#68e1fd"/><path d="M214.55,165.62c-.78-.08-1.08.13-.65.79l-.84.06c-.36,1.29.47,2.12,1.13,3.16-1.05-.2-1.41.28-1.28,1.21,0,.08,0,.22,0,.24-.89.55-.73,1.7-1.33,2.38-.32.36-.62,1.21-1.36.25-.22-.28-1-.19-1.5-.22s-.85.41-1.1-.27c0-.12-.43-.08-.62-.18s-.63-.28-.76-.55a16,16,0,0,1-1-2.29,1.31,1.31,0,0,1,.09-1.06,1.06,1.06,0,0,1,1-.26c.55.2.73,0,.93-.48.12-.28.5-.44.77-.63s.74-.55,1.1-.79c.55-.37,1.17-.69,1.7-1.1a3.59,3.59,0,0,0,.83-1c.6-1,.92-1,1.65-.1A5.8,5.8,0,0,0,214.55,165.62Z" fill="#68e1fd"/><path d="M235,178.79a5.07,5.07,0,0,0-1.39-.66,4.86,4.86,0,0,0-1.41.3c-.2-.87.13-1.18.82-1.1-.25-1.94-1.5-2.6-3.22-2.69a1.18,1.18,0,0,1-.52-.27c-.55-.36-1.06-.55-1.65-.06l-.82-1.32.72-.27-2.06-1.23c1-.34,2-1.3,3.1.08a1.78,1.78,0,0,0,1.1,2.06,11.67,11.67,0,0,0,1.61-1.29,1.06,1.06,0,0,1,1.48-.25l.06,0c.43.25,1,.26,1.43.48.28.13.67.45.68.7C235,175.14,235,177,235,178.79Z" fill="#68e1fd"/><path d="M202,175.6a1.87,1.87,0,0,1-2.2-.67c-.43-.51-1-.93-1.4-1.45s-.82-1.15-1.24-1.73c-.21-.3-.44-.59-.65-.9s-.51-.94-.83-1.36c-.49-.63-1-1.24-1.54-1.83s-1-1-1.54-1.57a4.15,4.15,0,0,1-.42-.74c.62.12,1.13.21,1.65.35a2.45,2.45,0,0,1,.88.45c.77.73,1.44,1.56,2.26,2.2a29.11,29.11,0,0,0,2.84,1.82c-.27,1-.14,1.2.84,1.44.19.55.13,1.24,1,1.28.13,0,.34.39.36.61C202.05,174.21,202,174.94,202,175.6Z" fill="#68e1fd"/><path d="M234,135.6c-.37-1-1-.35-1.35-.09-.5.4-.85.55-1.36.09-.06-.06-.33.11-.5.17.46.79-.63.85-.6,1.43h-.27l-.25-1.29c-1.33-1-2.44,1.16-4.09.69a8,8,0,0,1,1.88-1.4,12.6,12.6,0,0,1,2.26-.16c.28,0,.55-.34.78-.55s.59-.74,1-.92a4,4,0,0,0,2.44-2.53c.25-.87.37-1.78.55-2.64,1-.14,1.34.7,1.47,1.3s-.34,1.1-.55,1.71c-.14.42-.29.83-.4,1.26-.23,1-.44,2-.66,3Z" fill="#68e1fd"/><path d="M234.3,127.89l-.41-1.44,1.3-1.06.24.19.49-2.52c.86.71,1.5,1.9,2.91,1.65v1l-.19-.19L236.78,127a2,2,0,0,0-2.35-.22l.45.55Z" fill="#68e1fd"/><path d="M210.11,178.42c-2.94-.42-5.69-.63-8.25-1.69.44-.78.9-.89,1.81-.55s1.51.84,2.45.67a8.77,8.77,0,0,1,1.62,0c.11,0,.31,0,.33.06.33.76,1,.76,1.65.77C209.81,177.65,209.92,178.05,210.11,178.42Z" fill="#68e1fd"/><path d="M215.2,171c.59.66,1,1,1.56.29.16-.19.67-.07,1.1.07l-1,.86c.27.63.58,1.31.9,2l-.74.55-.82-1.89c-.64,0-.66,0-.66,1.05v1.65c-1,.23-.87-.43-.68-.84.27-.62,0-.93-.42-1.25a.46.46,0,0,1-.16-.41C214.56,172.48,214.85,171.85,215.2,171Z" fill="#68e1fd"/><path d="M217.34,152.94c.07.44,0,.76.17.95.39.49.12.78-.21,1.09s-.77.87-.47,1.57c.09.21-.25.59-.55.86.07-.64.14-1.1-.7-1.07-.17,0-.35-.75-.55-1.25l.47.09c.12-.64.17-1.27.34-1.87C216.12,152.33,216.93,153.64,217.34,152.94Z" fill="#68e1fd"/><path d="M218,163.25l.5-1c1,.88,1.55-.31,2.47-.5l.55,2.06c-1.92-.6-.71.71-1.05,1.22-.36-.17-.75-.35-1.1-.55-.11-.06-.27-.25-.24-.33C219.45,163.11,218.71,163.26,218,163.25Z" fill="#68e1fd"/><path d="M178,161.55a3,3,0,0,1,1.52,2.2c.19.8-.62.86-1.1,1.06-.09,0-.64-.55-.66-.87A16,16,0,0,1,178,161.55Z" fill="#68e1fd"/><path d="M217,146.43l-.84,2.75c-1-.76-.7-2.11.55-2.82Z" fill="#68e1fd"/><path d="M225.89,139.35l-.69-.37a2.66,2.66,0,0,0,.15-1c0-.2-.41-.32-.69-.53a.87.87,0,0,1,1.2-.27l.11.08C227.12,138,225.85,138.61,225.89,139.35Z" fill="#68e1fd"/><path d="M206.76,151.6a5.14,5.14,0,0,1-.66,1.07,1.88,1.88,0,0,1-.95.43c-.1,0-.44-.51-.38-.64a1.82,1.82,0,0,1,.78-.82A3.29,3.29,0,0,1,206.76,151.6Z" fill="#68e1fd"/><path d="M215.68,169.86c.44-1.14,1.21-.55,1.72-.41,1,.28,1.85.38,2.62-.65-.24,1.1-.77,1.34-1.61,1.13a8.52,8.52,0,0,0-1.75-.06Z" fill="#68e1fd"/><path d="M218.91,180c.18-.9,1.65-1.65,2.86-1.59Z" fill="#68e1fd"/><path d="M228.84,136.79l-1.65,1.13c0-.21-.23-.7-.13-.77a12,12,0,0,1,1.58-.75Z" fill="#68e1fd"/><path d="M217,178.58h-1.91C215.76,177.73,216.38,178.63,217,178.58Z" fill="#68e1fd"/><path d="M218.64,158.09l-1.1-.72.24-.49,1.1,1Z" fill="#68e1fd"/></svg>