<svg id="Layer_1" data-name="Layer 1" xmlns="http://www.w3.org/2000/svg" viewBox="0 0 400 300"><title>#25 baloons</title><path d="M155.93,190.72l-6.55,24.94a15.9,15.9,0,0,1-21.91,10.45l-11.19-5.05-3.51,7.09,9.58,6.62a30.9,30.9,0,0,0,44.88-10.94l9.21-17.39Z" fill="#68e1fd"/><path d="M155.93,190.72l-6.55,24.94a15.9,15.9,0,0,1-21.91,10.45l-11.19-5.05-3.51,7.09,9.58,6.62a30.9,30.9,0,0,0,44.88-10.94l9.21-17.39Z" opacity="0.08"/><rect x="224.86" y="66.96" width="0.99" height="96.52" fill="#a5a5a5"/><rect x="204.33" y="124.78" width="71.23" height="0.99" transform="translate(30.11 296.26) rotate(-66.74)" fill="#a5a5a5"/><rect x="207.87" y="80.86" width="0.99" height="80.34" transform="translate(-31.93 103.07) rotate(-25.87)" fill="#a5a5a5"/><path d="M272.79,200.76s4.51,1.14,5.23,5,4.66,4.55,5.32.91-4.79-12.3-4.79-12.3l-6.23.9Z" fill="#68e1fd"/><path d="M230.45,196.13l.4,2.56a13,13,0,0,0,15.86,10.64l27-6.4-1.15-9.12-20.67,2.27a7.31,7.31,0,0,1-8.1-6.92l-.16-3.44-16.42,7.56Z" fill="#24285b"/><ellipse cx="185.14" cy="71.35" rx="16.16" ry="20.85" transform="translate(-13.19 76.99) rotate(-22.7)" fill="#dbdbdb"/><ellipse cx="263.74" cy="79.92" rx="20.85" ry="16.16" transform="translate(64.83 270.66) rotate(-60.66)" fill="#dbdbdb"/><rect x="214.35" y="71.83" width="0.99" height="86.78" transform="translate(-22.26 58.53) rotate(-14.76)" fill="#a5a5a5"/><path d="M265.19,226.58s1.7,4.32-1,7.18-1,6.45,2.36,4.86,7.2-11.08,7.2-11.08L269.34,223Z" fill="#68e1fd"/><rect x="191.08" y="116.78" width="86.48" height="0.99" transform="translate(70.69 321.93) rotate(-77.94)" fill="#a5a5a5"/><ellipse cx="200.31" cy="54.13" rx="16.16" ry="20.85" transform="translate(-5 24.08) rotate(-6.79)" fill="#c9c9c9"/><ellipse cx="251.7" cy="61.82" rx="20.85" ry="16.16" transform="translate(85.68 260.84) rotate(-63.96)" fill="#c9c9c9"/><ellipse cx="228.04" cy="48.4" rx="27.61" ry="21.4" transform="translate(160.21 271.44) rotate(-85.07)" fill="#ffd200"/><ellipse cx="224.17" cy="34.01" rx="8.44" ry="6.54" transform="translate(73.52 203.45) rotate(-56.99)" fill="#fff" opacity="0.3"/><path d="M133.86,163.54s3.49,5.74,7,8.66a3.37,3.37,0,0,0,4.76-.48c1.44-1.8,2.87-4.65,1.38-7.95l-1.85-5.92a6,6,0,0,0-5.94-3.62C134.57,154.27,131.57,160.15,133.86,163.54Z" fill="#f4a28c"/><polygon points="146.29 159.71 163.5 166.52 159.78 177.38 145.98 166.27 146.29 159.71" fill="#f4a28c"/><path d="M136.24,167l0,3.19a1.08,1.08,0,0,0,1.54,1l2.36-1.12Z" fill="#f4a28c"/><path d="M127.47,157.57s-.28,6.76,5.82,4.75,5.56-3.21,5.56-3.21,3.34,7.61,8.17,4.66l1.32-3s-1.34-10.84-6.41-11.38C141.93,149.39,130.17,144,127.47,157.57Z" fill="#24285b"/><path d="M143.28,164.93s-1.63-5.17,1.7-5S148.54,166.32,143.28,164.93Z" fill="#f4a28c"/><path d="M157,175.78l6.47-9.49s6-4.89,18.24-5.93S233,154,233,154l9.12,29.82s-20.53,29.88-58.2,29.8c-18.91,0-32.82-18.31-27.43-36.44C156.67,176.71,156.82,176.25,157,175.78Z" fill="#68e1fd"/><path d="M186.08,181.76s11.72,20.53,50.27,0l.81,8.12s-22.78,24.91-50.25,23.67S186.08,181.76,186.08,181.76Z" opacity="0.08"/><path d="M163.44,183.52c.06,18.9,2.87,60.42,24.89,82.39l7.61-7.33s-9.72-16.33-9.08-43.32c.49-20.74,2.75-39.82-8.7-43.18C170.76,169.91,163.42,175.81,163.44,183.52Z" fill="#68e1fd"/><path d="M163.44,183.52c.06,18.9,2.87,60.42,24.89,82.39l7.61-7.33s-9.72-16.33-9.08-43.32c.49-20.74,2.75-39.82-8.7-43.18C170.76,169.91,163.42,175.81,163.44,183.52Z" fill="#fff" opacity="0.3"/><path d="M233,154s15.37-8.65,22.33,1.77c3.82,5.73,2.86,16.89,1.22,25.76a37.28,37.28,0,0,0,4.83,26.11l8.89,14.67-6.87,5.85-19.65-22.73a27.78,27.78,0,0,1-6.63-15.54l-.56-6.08Z" fill="#24285b"/><path d="M190.94,263.39s1,4.45,7.82,5.23,7.85-6.78,5-9.13-4.18,4.18-9.91,0Z" fill="#f4a28c"/><path d="M215.78,156.21l10.12,43.47,11.42-8.48-1.59-38.47A26.63,26.63,0,0,0,215.78,156.21Z" fill="#ffd200"/><polygon points="223.16 187.94 236.93 181.76 237.32 191.2 225.9 199.69 223.16 187.94" opacity="0.08"/><path d="M147.58,167.56a11,11,0,0,0-.2-4.6s3.35,1.41,3.57,7.31Z" opacity="0.08"/><path d="M113.52,226.62s-5-2.6-6.86-6.67,3.33-9.07,9.62,1.11Z" fill="#f4a28c"/><rect x="105.91" y="203.32" width="10.74" height="17.75" transform="translate(-102.79 104.56) rotate(-35.63)" fill="#ffd200"/><path d="M121.42,173.48H98.74v15.45h9.56c.7,2,1.78,5.51,1.78,5.51l1.86-5.51h9.48Z" fill="#e6e6e6"/><circle cx="104.83" cy="180.76" r="1.59" fill="#a5a5a5" opacity="0.38"/><circle cx="109.7" cy="180.76" r="1.59" fill="#a5a5a5" opacity="0.38"/><circle cx="114.73" cy="180.76" r="1.59" fill="#a5a5a5" opacity="0.38"/></svg>