<svg id="Layer_1" data-name="Layer 1" xmlns="http://www.w3.org/2000/svg" viewBox="0 0 400 300"><path d="M91.64,251.6s-38.7-42.9-19.35-96.46,77.4-91.73,151.08-79S354.61,121.21,304,251.35Z" fill="#dddbdb" opacity="0.18"/><rect x="187.59" y="106.56" width="16.34" height="9.02" fill="#24285b"/><path d="M195.69,94.3h0a5,5,0,0,1,5,5V112.2a0,0,0,0,1,0,0H190.66a0,0,0,0,1,0,0V99.34A5,5,0,0,1,195.69,94.3Z" fill="#24285b"/><rect x="193.12" y="88.77" width="5.19" height="2.98" fill="#24285b"/><rect x="195.04" y="82.39" width="1.28" height="15.66" fill="#24285b"/><path d="M195,85.28l-3-2-2.22,2s4,.09,5.24,2Z" fill="#24285b"/><path d="M196.1,85.28l3-2,2.22,2s-4,.09-5.24,2Z" fill="#24285b"/><rect x="275.85" y="170.05" width="11.4" height="75.06" fill="#68e1fd"/><rect x="273.98" y="175.66" width="15.15" height="4.26" fill="#68e1fd"/><rect x="273.81" y="242.13" width="15.4" height="4" fill="#68e1fd"/><rect x="272.02" y="246.13" width="19.23" height="5.19" fill="#68e1fd"/><rect x="244.87" y="170.05" width="11.4" height="75.06" fill="#68e1fd"/><rect x="243" y="175.66" width="15.15" height="4.26" fill="#68e1fd"/><rect x="242.83" y="242.13" width="15.4" height="4" fill="#68e1fd"/><rect x="241.04" y="246.13" width="19.23" height="5.19" fill="#68e1fd"/><rect x="208.19" y="170.05" width="11.4" height="75.06" fill="#68e1fd"/><rect x="206.32" y="175.66" width="15.15" height="4.26" fill="#68e1fd"/><rect x="206.15" y="242.13" width="15.4" height="4" fill="#68e1fd"/><rect x="204.36" y="246.13" width="19.23" height="5.19" fill="#68e1fd"/><rect x="172.38" y="170.05" width="11.4" height="75.06" fill="#68e1fd"/><rect x="170.66" y="175.66" width="15.15" height="4.26" fill="#68e1fd"/><rect x="170.49" y="242.13" width="15.4" height="4" fill="#68e1fd"/><rect x="168.7" y="246.13" width="19.23" height="5.19" fill="#68e1fd"/><rect x="138.08" y="170.05" width="11.4" height="75.06" fill="#68e1fd"/><rect x="136.36" y="175.66" width="15.15" height="4.26" fill="#68e1fd"/><rect x="136.19" y="242.13" width="15.4" height="4" fill="#68e1fd"/><rect x="134.4" y="246.13" width="19.23" height="5.19" fill="#68e1fd"/><circle cx="303.39" cy="52.72" r="16.06" fill="#ffd200"/><circle cx="303.39" cy="52.72" r="25.1" fill="#ffd200" opacity="0.15"/><rect x="79.34" y="251.6" width="243.82" height="10.1" rx="4.76" fill="#24285b"/><rect x="107.43" y="134.22" width="178.21" height="17.62" fill="#68e1fd"/><polygon points="107.43 134.22 103 129.79 288.7 129.79 285.64 134.22 107.43 134.22" fill="#ffd200"/><rect x="103.68" y="156.26" width="187.57" height="13.79" fill="#68e1fd"/><rect x="171.6" y="129.2" width="49.87" height="22.64" fill="#68e1fd"/><rect x="180.02" y="133.96" width="33.96" height="13.11" fill="#fff" opacity="0.44"/><rect x="165.13" y="134.22" width="6.47" height="17.62" opacity="0.08"/><rect x="221.47" y="134.22" width="6.47" height="17.62" opacity="0.08"/><rect x="107.1" y="170.05" width="11.4" height="75.06" fill="#68e1fd"/><polygon points="103.91 156.26 99.25 151.84 294.49 151.84 291.27 156.26 103.91 156.26" fill="#ffd200"/><rect x="99.26" y="170.05" width="195.23" height="5.62" fill="#68e1fd"/><rect x="99.26" y="170.05" width="195.23" height="5.62" fill="#fff" opacity="0.44"/><rect x="105.38" y="175.66" width="15.15" height="4.26" fill="#68e1fd"/><rect x="105.21" y="242.13" width="15.4" height="4" fill="#68e1fd"/><rect x="103.43" y="246.13" width="19.23" height="5.19" fill="#68e1fd"/><rect x="273.98" y="175.66" width="15.15" height="4.26" fill="#fff" opacity="0.72"/><rect x="273.81" y="242.13" width="15.4" height="4" fill="#fff" opacity="0.72"/><rect x="272.02" y="246.13" width="19.23" height="5.19" fill="#fff" opacity="0.72"/><rect x="243" y="175.66" width="15.15" height="4.26" fill="#fff" opacity="0.72"/><rect x="242.83" y="242.13" width="15.4" height="4" fill="#fff" opacity="0.72"/><rect x="241.04" y="246.13" width="19.23" height="5.19" fill="#fff" opacity="0.72"/><rect x="206.32" y="175.66" width="15.15" height="4.26" fill="#fff" opacity="0.72"/><rect x="206.15" y="242.13" width="15.4" height="4" fill="#fff" opacity="0.72"/><rect x="204.36" y="246.13" width="19.23" height="5.19" fill="#fff" opacity="0.72"/><rect x="170.66" y="175.66" width="15.15" height="4.26" fill="#fff" opacity="0.72"/><rect x="170.49" y="242.13" width="15.4" height="4" fill="#fff" opacity="0.72"/><rect x="168.7" y="246.13" width="19.23" height="5.19" fill="#fff" opacity="0.72"/><rect x="136.36" y="175.66" width="15.15" height="4.26" fill="#fff" opacity="0.72"/><rect x="136.19" y="242.13" width="15.4" height="4" fill="#fff" opacity="0.72"/><rect x="134.4" y="246.13" width="19.23" height="5.19" fill="#fff" opacity="0.72"/><rect x="105.38" y="175.66" width="15.15" height="4.26" fill="#fff" opacity="0.72"/><rect x="105.21" y="242.13" width="15.4" height="4" fill="#fff" opacity="0.72"/><rect x="103.43" y="246.13" width="19.23" height="5.19" fill="#fff" opacity="0.72"/><polygon points="171.6 129.2 168.7 122.9 223.6 122.9 221.47 129.2 171.6 129.2" fill="#ffd200"/><path d="M182.73,117.94a7.17,7.17,0,0,0-3.21-7,6,6,0,0,1-2.31-3.52c-1.19-4.09-1.7-6.81-4.43-5.62s-5.95,6.47-3.06,7.32,3.91-.17,3.91-.17-1.36,5.45.51,8.17l1.54,5.79h5.44A17,17,0,0,0,182.73,117.94Z" fill="#24285b"/><path d="M192.73,116.42a6.4,6.4,0,0,0-3.25-5.44,5.92,5.92,0,0,1-2.4-3.57c-1.19-4.09-1.7-6.81-4.42-5.62s-6,6.47-3.07,7.32,3.92-.17,3.92-.17-1.37,5.45.51,8.17l1.53,5.79H191A16.35,16.35,0,0,0,192.73,116.42Z" fill="#24285b"/><path d="M209.44,116.42a6.4,6.4,0,0,1,3.25-5.44,5.88,5.88,0,0,0,2.4-3.57c1.19-4.09,1.7-6.81,4.43-5.62s5.95,6.47,3.06,7.32-3.92-.17-3.92-.17,1.37,5.45-.51,8.17l-1.53,5.79h-5.45A16.35,16.35,0,0,1,209.44,116.42Z" fill="#24285b"/><path d="M199.68,117.84a6.94,6.94,0,0,1,3.13-6.86,5.89,5.89,0,0,0,2.41-3.57c1.19-4.09,1.7-6.81,4.42-5.62s6,6.47,3.07,7.32-3.92-.17-3.92-.17,1.36,5.45-.51,8.17l-1.53,5.79H201.3A17.25,17.25,0,0,1,199.68,117.84Z" fill="#24285b"/></svg>