<svg id="Layer_1" data-name="Layer 1" xmlns="http://www.w3.org/2000/svg" viewBox="0 0 400 300"><path d="M211.13,141.64s22.27,12.76,14.28,27.57-21,18.56-21,18.56l-9.83-46.13Z" fill="#24285b"/><path d="M211.13,141.64s22.27,12.76,14.28,27.57-21,18.56-21,18.56l-9.83-46.13Z" opacity="0.08"/><path d="M198.05,125.47S213,130.08,220.7,133s11,10.71,4.19,11.31-6.18-4-6.18-4l-18-2.24-9-3.14Z" fill="#f4a28c"/><path d="M198.05,125.47S213,130.08,220.7,133s11,10.71,4.19,11.31-6.18-4-6.18-4l-18-2.24-9-3.14Z" opacity="0.08"/><ellipse cx="195.62" cy="252.51" rx="134.98" ry="8.99" fill="#e6e6e6" opacity="0.3"/><path d="M146.05,251.78a36.12,36.12,0,1,1,36.11-36.12A36.16,36.16,0,0,1,146.05,251.78Zm0-68.23a32.12,32.12,0,1,0,32.11,32.11A32.15,32.15,0,0,0,146.05,183.55Z" fill="#24285b"/><path d="M186.81,217.16a1.5,1.5,0,0,1-1.5-1.5,39.26,39.26,0,1,0-78.52,0,1.5,1.5,0,0,1-3,0,42.26,42.26,0,1,1,84.52,0A1.5,1.5,0,0,1,186.81,217.16Z" fill="#68e1fd"/><path d="M295.58,217.16a1.5,1.5,0,0,1-1.5-1.5,39.26,39.26,0,1,0-78.51,0,1.5,1.5,0,1,1-3,0,42.26,42.26,0,1,1,84.51,0A1.5,1.5,0,0,1,295.58,217.16Z" fill="#68e1fd"/><path d="M150.82,209.86l39.57.61a9.9,9.9,0,0,1,9.77,11.16c0,.27-.09.55-.15.82a11.62,11.62,0,0,1-.73,2.29,9.84,9.84,0,0,1-11.19,5.47l-38.65-8.58a6,6,0,0,1-4.5-7.2h0A6,6,0,0,1,150.82,209.86Z" fill="#68e1fd"/><path d="M150.82,209.86l39.57.61a9.9,9.9,0,0,1,9.77,11.16c0,.27-.09.55-.15.82a11.62,11.62,0,0,1-.73,2.29,9.84,9.84,0,0,1-11.19,5.47l-38.65-8.58a6,6,0,0,1-4.5-7.2h0A6,6,0,0,1,150.82,209.86Z" fill="#fff" opacity="0.44"/><path d="M254.83,251.78a36.12,36.12,0,1,1,36.11-36.12A36.16,36.16,0,0,1,254.83,251.78Zm0-68.23a32.12,32.12,0,1,0,32.11,32.11A32.15,32.15,0,0,0,254.83,183.55Z" fill="#24285b"/><circle cx="146.05" cy="215.66" r="9.4" fill="#24285b"/><circle cx="253.74" cy="215.66" r="9.4" fill="#24285b"/><path d="M184.45,199.44a1.5,1.5,0,0,1-.51-2.92c.31-.1,30.38-11,47.08-33.5a1.5,1.5,0,1,1,2.4,1.79C216.18,188,186.22,198.9,185,199.35A1.51,1.51,0,0,1,184.45,199.44Z" fill="#68e1fd"/><path d="M253.74,217.16a1.5,1.5,0,0,1-.94-.33c-12.63-10.29-25.18-66-25.71-68.38a1.53,1.53,0,0,1,.25-1.21,1.49,1.49,0,0,1,1.06-.61c2.48-.27,9.68-1.83,10.12-5.34,0-.09,0-.17-.14-.34-2-2-12.62-2.06-19.53-1.41a1.5,1.5,0,0,1-.28-3c3-.28,18.26-1.5,22,2.32a3.31,3.31,0,0,1,1,2.79c-.65,5.22-7.73,7.1-11.11,7.71,2.16,9.26,13.61,56.41,24.31,65.13a1.5,1.5,0,0,1-.95,2.66Z" fill="#68e1fd"/><polygon points="235.04 153.46 259.45 147.84 261.64 170.14 240.5 174.09 235.04 153.46" fill="#ffd200"/><path d="M195.36,221.66a1.43,1.43,0,0,1-.29,0,1.49,1.49,0,0,1-1.12-1l-18.4-51.9-27.82,47a1.5,1.5,0,1,1-2.58-1.53l29.45-49.74a1.51,1.51,0,0,1,1.44-.73,1.5,1.5,0,0,1,1.27,1l18.62,52.54L234,175.66a1.5,1.5,0,0,1,2.24,2l-39.75,43.5A1.52,1.52,0,0,1,195.36,221.66Z" fill="#68e1fd"/><rect x="215.12" y="135.14" width="14.35" height="5.8" rx="2.9" fill="#24285b"/><path d="M176,167.76a2,2,0,0,1-2-2l-.17-10.4a2,2,0,0,1,2-2h0a2,2,0,0,1,2,2l.17,10.41a2,2,0,0,1-2,2Z" fill="#68e1fd"/><path d="M168.79,154.55a3.27,3.27,0,0,0,0,6,15.36,15.36,0,0,0,4.53,1.07c6.32.66,13.89-.7,17.66-1.52a2.58,2.58,0,0,0,2-2.93h0a2.6,2.6,0,0,0-1.69-2C187.56,153.79,177.35,150.78,168.79,154.55Z" fill="#ffd200"/><path d="M206.63,46.05a33.14,33.14,0,0,1-.15,8.79,2.66,2.66,0,0,1-3.19,2,5.86,5.86,0,0,1-4.72-4.27L196.84,48a4.75,4.75,0,0,1,1.94-5.14C201.69,40.63,206.41,42.83,206.63,46.05Z" fill="#f4a28c"/><polygon points="199.06 48.61 192.33 64.59 201.34 68.38 202.63 55.13 199.06 48.61" fill="#f4a28c"/><path d="M206.85,49.38l1.54,2a.85.85,0,0,1-.49,1.35l-2,.44Z" fill="#f4a28c"/><path d="M202.53,56.25a6.08,6.08,0,0,1-2.25-1.73s-2.74,5.55,1.7,7.19Z" fill="#ce8172" opacity="0.31"/><path d="M200.7,50s-.1-2-1.63-1.83-1.39,3.15.7,3.36Z" fill="#f4a28c"/><path d="M169,132.32s-9.73,17.06,3.49,21,26.59,14,19.81,28.22-9,22.21-9,22.21l25.21,4.35s15-49.78,1.67-58.16S192.33,138,192.33,138Z" fill="#24285b"/><path d="M200.89,49.43s-.49-2.31-2.32-1.74-1.5,3.3,1,4.12Z" fill="#f4a28c"/><path d="M190.6,64l4.1,1.36a30.26,30.26,0,0,1,12.5,8c7.16,7.56,17.38,21.22,12,33.15-8,17.6-26.81,30.25-26.81,30.25l-34-11.25S148.68,50.24,190.6,64Z" fill="#68e1fd"/><path d="M200.4,80.05s10.83,12.66-2.92,27.85-9.67,24.42-9.67,24.42l-16.17-15.53Z" opacity="0.08"/><path d="M196.53,73.72a15.73,15.73,0,0,0-21.83,2c-12.8,14.74-35.6,45.86-11.85,57.73,31.59,15.8,54.72,9.62,54.72,9.62s4.61,4.71,7.32,1.19-5.85-8.82-10.82-9.13-34.51-7.86-35.88-17C177,110.4,212.15,86.71,196.53,73.72Z" fill="#f4a28c"/><path d="M200.7,50s1.24,12.16-4.72,16.92-11.41-3.09-19.24,3.31-13.68,8.07-19.35,0,2.84-19,15.61-18.41c11.36.57,20.83.9,20.56-5.15-.2-4.69,3.33-8.85,8-8.6a12.36,12.36,0,0,1,4.31,1.11C215.55,43.43,200.7,50,200.7,50Z" fill="#24285b"/><polygon points="195.62 205.87 193 217.38 200 218.57 204.45 207.4 195.62 205.87" fill="#f4a28c"/><path d="M193,217.38l-1.84,5.79,14.86.68S205.51,217,193,217.38Z" fill="#68e1fd"/><rect x="187.38" y="222.96" width="15.96" height="5.87" rx="2.94" fill="#24285b"/></svg>