<svg id="Layer_1" data-name="Layer 1" xmlns="http://www.w3.org/2000/svg" viewBox="0 0 400 300"><title>#39 birthday</title><path d="M267.13,108.66S236,118.83,233.36,145.43s4.31,65.34-31.73,60.1v11.83l79.23-.22Z" fill="#68e1fd"/><path d="M267.13,108.66S236,118.83,233.36,145.43s4.31,65.34-31.73,60.1v11.83l79.23-.22Z" opacity="0.08"/><path d="M142.6,158.48s-6.28,49.35,18.4,49.35,27.62,1.33,28.5,10.8H135.28l-4.86-55.46Z" fill="#f4a28c"/><path d="M142.6,158.48s-6.28,49.35,18.4,49.35,27.62,1.33,28.5,10.8H135.28l-4.86-55.46Z" opacity="0.08"/><path d="M115.37,84.77s11.15,18.63-1.63,23.42-12.22-28.83-12.22-28.83Z" fill="#24285b"/><path d="M87.48,103.48s-36.14,16.44-35.7,42.41,27.77,71.47,27.77,71.47h58.16l0-30.11a63.59,63.59,0,0,1,6-26.86c5.91-12.7,9.13-36.2-30.57-56.91Z" fill="#68e1fd"/><path d="M94.37,107.91s14.47,10.08,18.78-4.43H99.79Z" fill="#fff"/><path d="M294.28,102.63l-15,1.1s-22.87,1.67-34.71,33.7c-8.49,22.94,5.43,82.84,5.43,82.84l81.16-3.13S366.43,108.53,294.28,102.63Z" fill="#68e1fd"/><rect x="59.18" y="217.36" width="291.47" height="10.86" fill="#e6e6e6"/><rect x="59.18" y="228.22" width="291.47" height="22.77" fill="#a5a5a5" opacity="0.4"/><path d="M112,71.22s3.15,6.67,3.69,11.69A3.7,3.7,0,0,1,112.34,87c-2.53.24-6-.18-8.14-3.55l-4.3-5.28a6.64,6.64,0,0,1,.28-7.66C103,66.24,110.26,67.06,112,71.22Z" fill="#f4a28c"/><polygon points="101.52 79.36 99.79 103.48 113.15 103.48 109.14 86.37 101.52 79.36" fill="#f4a28c"/><path d="M113.74,75.52l2.92,2a1.18,1.18,0,0,1,0,2L114.14,81Z" fill="#f4a28c"/><path d="M109.26,86.86a9,9,0,0,1-4.35-2.09s-.87,5.23,5.49,7Z" fill="#ce8172" opacity="0.31"/><path d="M107.09,74.79,104,75.86s3.4,13.31-1.09,24.88a12,12,0,0,1-18.34,5.06l-2.73-2a5.59,5.59,0,0,1,.52-9.32c5.06-3,10.32-8.33,9.35-17.41-1.14-10.69,8.55-17.15,15.53-15.41S114,73.15,107.09,74.79Z" fill="#24285b"/><path d="M105.88,79.06s-1-2.65-3-1.7-.45,4.78,2.41,4.13Z" fill="#f4a28c"/><path d="M282.63,71.22s-3.15,6.67-3.69,11.69A3.71,3.71,0,0,0,282.26,87c2.53.24,6-.18,8.14-3.55l4.31-5.28a6.63,6.63,0,0,0-.29-7.66C291.56,66.24,284.34,67.06,282.63,71.22Z" fill="#f4a28c"/><polygon points="293.08 79.36 294.82 103.48 281.46 103.48 285.46 86.37 293.08 79.36" fill="#f4a28c"/><path d="M280.86,75.52l-2.91,2a1.17,1.17,0,0,0,.05,2L280.46,81Z" fill="#f4a28c"/><path d="M285.34,86.86s4.78-1.29,6.3-2.89c0,0-1.89,9.47-8.25,11.23Z" fill="#ce8172" opacity="0.31"/><path d="M288.73,79.06s1-2.65,3-1.7.45,4.78-2.4,4.13Z" fill="#f4a28c"/><rect x="157.16" y="181.36" width="76.88" height="36.01" fill="#ffd200"/><rect x="166.69" y="154.27" width="57.83" height="27.08" fill="#ffd200"/><path d="M154.67,181.36v14.17a5.28,5.28,0,0,0,5.64,5.3c2.59-.21,5.31-1.32,6.38-4.73,2.26-7.26,9.52-5.45,9.29-.68s6.58,7.88,10,3.94,3.18-11.14,9.76-8.11,4.53,9.16,13.38,6.21,4.76-12,9.75-7.49c2.67,2.43,5.15,4.93,8.06,6.2a6.48,6.48,0,0,0,9-6v-8.77Z" fill="#ffd200"/><path d="M154.67,181.36v14.17a5.28,5.28,0,0,0,5.64,5.3c2.59-.21,5.31-1.32,6.38-4.73,2.26-7.26,9.52-5.45,9.29-.68s6.58,7.88,10,3.94,3.18-11.14,9.76-8.11,4.53,9.16,13.38,6.21,4.76-12,9.75-7.49c2.67,2.43,5.15,4.93,8.06,6.2a6.48,6.48,0,0,0,9-6v-8.77Z" fill="#fff" opacity="0.35"/><path d="M163.68,151.91v11a4.11,4.11,0,0,0,4.39,4.12,5.18,5.18,0,0,0,5-3.68c1.77-5.64,7.41-4.23,7.24-.53s5.11,6.14,7.76,3.07,2.47-8.66,7.58-6.31,3.53,7.13,10.41,4.83,3.71-9.35,7.59-5.82c2.08,1.89,4,3.83,6.27,4.82a5,5,0,0,0,7-4.7v-6.83Z" fill="#ffd200"/><path d="M163.68,151.91v11a4.11,4.11,0,0,0,4.39,4.12,5.18,5.18,0,0,0,5-3.68c1.77-5.64,7.41-4.23,7.24-.53s5.11,6.14,7.76,3.07,2.47-8.66,7.58-6.31,3.53,7.13,10.41,4.83,3.71-9.35,7.59-5.82c2.08,1.89,4,3.83,6.27,4.82a5,5,0,0,0,7-4.7v-6.83Z" fill="#fff" opacity="0.35"/><rect x="180.88" y="130.33" width="5.19" height="21.59" fill="#24285b"/><path d="M182.89,129.82s-4.36-3.18-.28-7.77C182.61,122.05,187.26,124.43,182.89,129.82Z" fill="#ffd200"/><rect x="190.53" y="130.33" width="5.19" height="21.59" fill="#24285b"/><path d="M192.54,129.82s-4.37-3.18-.28-7.77C192.26,122.05,196.91,124.43,192.54,129.82Z" fill="#ffd200"/><rect x="200.1" y="130.33" width="5.19" height="21.59" fill="#24285b"/><path d="M71.4,128.78s19.61,0,16.74,25.85C86,174,90.27,196.28,99.79,190.33s32.43-35.26,32.43-35.26a25.43,25.43,0,0,1-2.87,18.51c-5.51,9.48-9.47,43.78-9.47,43.78H83.08L71.4,197Z" opacity="0.08"/><path d="M202.11,129.82s-4.36-3.18-.28-7.77C201.83,122.05,206.48,124.43,202.11,129.82Z" fill="#ffd200"/><path d="M78.23,137.88c-2.5-12.26-19.06-14.51-24.75-3.37-4,7.77-6.34,18.28-2.58,31.3,8.82,30.47,7.05,51.55,32.18,51.55s45.06-51.55,45.06-51.55,12.67-13.08,5.62-23.26-15.21,17.87-15.21,17.87S95.42,194.13,83.08,193C73.93,192.16,82.92,160.82,78.23,137.88Z" fill="#f4a28c"/><rect x="114.2" y="162.49" width="16.03" height="4.83" transform="translate(89.46 -37.72) rotate(27.36)" fill="#24285b"/><circle cx="123.21" cy="164.93" r="4.51" fill="#ffd200"/><polygon points="91.6 75.53 102.12 61.7 77.35 48.63 91.6 75.53" fill="#ffd200"/><path d="M305.43,127.29S289,142.23,294.82,163.08s-23,24.68-47.94,13.51c0,0-5.65,13.47,8.49,15.84s32.51,13.63,28,24.71h47.74l1.7-5.87,5.78-29.76Z" opacity="0.08"/><path d="M301.57,64.06c-2.1-2.65.66-5.29-3.31-6.83s-3.69,2-5.7,1-2.24-4.41-5.21-3.86-5.76,3.53-3.15,5.62c0,0-8.76,6.67,1.16,8.46,0,0,.38,6.31,5.28,7.08,0,0-.37,6.65-5.28,6s-11.45-1.19-9.46,3.21,6.37,5,11.45,2.27a26.84,26.84,0,0,0,8.42-7.68l5.4-6.48" fill="#24285b"/><polygon points="301.17 72.88 291.34 57.15 316.99 49.29 301.17 72.88" fill="#ffd200"/><path d="M304.13,124.69a13.4,13.4,0,0,1,21.64-10.51c5.93,4.62,12.23,11.88,16.81,23.3,6.69,16.62,8.67,37.61,9.15,52.38A14.86,14.86,0,0,1,334.17,205l-68-14.34,1.61-12.54,58.1,4.83S303.94,152.75,304.13,124.69Z" fill="#68e1fd"/><path d="M304.13,124.69a13.4,13.4,0,0,1,21.64-10.51c5.93,4.62,12.23,11.88,16.81,23.3,6.69,16.62,8.67,37.61,9.15,52.38A14.86,14.86,0,0,1,334.17,205l-68-14.34,1.61-12.54,58.1,4.83S303.94,152.75,304.13,124.69Z" fill="#fff" opacity="0.29"/><path d="M267.77,178.1s-12.06-5.93-18.11.35,4.44,12.79,16.5,12.19l41.31,8.71,2.76-17.72Z" fill="#f4a28c"/><polygon points="308.75 181.51 304.85 198.8 315.79 201.11 318.68 182.33 308.75 181.51" fill="#fff"/><rect x="222.79" y="209.25" width="34.96" height="8.11" fill="#24285b"/><path d="M274,105.2s-3.7-6.1,5.17-8.09,27.15-4.94,27.27,7.67C306.41,104.78,296.51,111.52,274,105.2Z" fill="#68e1fd"/><path d="M274,105.2s-3.7-6.1,5.17-8.09,27.15-4.94,27.27,7.67C306.41,104.78,296.51,111.52,274,105.2Z" fill="#fff" opacity="0.29"/><rect x="29.75" y="103.26" width="3.78" height="8.28" transform="translate(-66.68 53.83) rotate(-45)" fill="#e6e6e6"/><rect x="237.19" y="63.53" width="3.78" height="8.28" transform="translate(22.17 188.88) rotate(-45)" fill="#e6e6e6" opacity="0.51"/><rect x="174.11" y="68.74" width="3.78" height="8.28" transform="translate(0.01 145.8) rotate(-45)" fill="#e6e6e6"/><rect x="157.04" y="117.91" width="3.78" height="8.28" transform="translate(-39.75 148.13) rotate(-45)" fill="#e6e6e6" opacity="0.51"/><rect x="216.82" y="107.18" width="3.78" height="8.28" transform="translate(142.78 -122.05) rotate(45)" fill="#e6e6e6"/><rect x="207.03" y="17.94" width="3.78" height="8.28" transform="translate(76.81 -141.26) rotate(45)" fill="#e6e6e6"/><rect x="361.45" y="188.29" width="3.78" height="8.28" transform="translate(242.49 -200.56) rotate(45)" fill="#e6e6e6"/><rect x="32.14" y="199.55" width="3.78" height="8.28" transform="translate(154 35.59) rotate(45)" fill="#e6e6e6" opacity="0.51"/><rect x="288.75" y="26.88" width="3.78" height="8.28" transform="translate(107.06 -196.43) rotate(45)" fill="#e6e6e6"/><rect x="358.84" y="31.15" width="3.78" height="8.28" transform="translate(80.7 265.41) rotate(-45)" fill="#e6e6e6"/><rect x="47.12" y="35.35" width="3.78" height="8.28" transform="translate(42.28 -23.09) rotate(45)" fill="#e6e6e6" opacity="0.51"/><rect x="130.96" y="21.31" width="3.78" height="8.28" transform="translate(20.91 101.4) rotate(-45)" fill="#e6e6e6"/><path d="M258.74,161.77l1.48-16.31c-2.87-.8-8.48-2.86-11.17-7.14a9.8,9.8,0,0,1-1.14-7.84c1.37-5.23,5.25-6.49,8.18-6,3.52.62,7.07,3.74,9,8.2,2.79-3.7,6.79-7,11.68-5.32a7.28,7.28,0,0,1,5,8.24c-.79,5.51-6.9,11.59-16.64,12l-.07-1.78ZM274.28,133c-2.53,0-5.69,4.85-7.36,8.44,5.58-.87,8.64-4.32,9-6.65a1.31,1.31,0,0,0-1-1.7A2,2,0,0,0,274.28,133Zm-19.44-2.58c-.31,0-.76.21-1.12,1.6a3.76,3.76,0,0,0,.41,3.13c1.25,2,4.19,3.4,6.5,4.18-.32-5-3.56-8.54-5.58-8.89Z" fill="#ffd200"/><rect x="348.76" y="99.34" width="3.78" height="8.28" transform="translate(29.53 278.26) rotate(-45)" fill="#e6e6e6" opacity="0.51"/><rect x="240.45" y="146.81" width="44.3" height="32.35" transform="translate(12.9 -19.14) rotate(4.28)" fill="#24285b"/><rect x="240.44" y="142.87" width="47.3" height="7.93" transform="translate(11.7 -19.3) rotate(4.28)" fill="#24285b"/><g opacity="0.29"><rect x="240.44" y="142.87" width="47.3" height="7.93" transform="translate(11.7 -19.3) rotate(4.28)" fill="#fff"/></g><rect x="258.89" y="141.01" width="7.25" height="39.38" transform="translate(12.73 -19.14) rotate(4.28)" fill="#ffd200"/></svg>