<svg id="Layer_1" data-name="Layer 1" xmlns="http://www.w3.org/2000/svg" viewBox="0 0 400 300"><path d="M136.76,50.41c-47.5,11.3-85,47-96,92.87-8.19,34.15-1,69.36,54.09,82.16C214,253.13,342.62,244,358,188.63S344.85,38.27,276.73,32.4C237.94,29.05,179.72,40.19,136.76,50.41Z" fill="#e6e6e6" opacity="0.3"/><path d="M230.57,127.48,218,117.1l12.73-4.63a1.49,1.49,0,0,1,2,1.63Z" fill="#24285b"/><polygon points="230.57 127.48 218 117.1 214.87 125.57 222.85 132.16 230.57 127.48" fill="#24285b"/><rect x="182.85" y="117.75" width="10.18" height="97.17" transform="translate(148.86 -81.58) rotate(39.53)" fill="#24285b"/><rect x="146.79" y="203.42" width="18.29" height="3.38" rx="1.69" transform="translate(166.22 -52.34) rotate(39.53)" fill="#24285b"/><path d="M154.63,240.82c-.73,0-8-2.56-9.14-1.65s-5.84,15-2.55,14.62,5.29-6.41,6.94-7.41,5.48,0,5.48,0Z" fill="#68e1fd"/><ellipse cx="200" cy="272.66" rx="82.04" ry="8.74" fill="#e6e6e6" opacity="0.3"/><path d="M231.08,263.81s3,2.43,6,.95,5.4.81,3.3,3.09-10.65,3-10.65,3l-3.3-5.16Z" fill="#68e1fd"/><path d="M171.91,189.66s-5.91,11.1,0,15.59,45.88,38.29,53.54,61l8.14-3.31s2-43.12-17.15-68.41Z" fill="#24285b"/><path d="M171.91,205.25s30.49,42.3-19.14,33.56v8.74s50.07,13.47,48.67-17.48S171.91,205.25,171.91,205.25Z" fill="#24285b"/><path d="M188.92,125.36s.26,8.91-1.53,11.27l11.33-1.9s-4.29-3-5.23-10.73Z" fill="#f4a28c"/><path d="M188.92,125.36s.26,8.91-1.53,11.27l11.33-1.9s-4.29-3-5.23-10.73Z" opacity="0.09"/><path d="M184.59,118.83s1.35,10.52,6.94,10.26,2.27-12,2.27-12-.68-5.92-4-6S182.2,111.54,184.59,118.83Z" fill="#f4a28c"/><path d="M185.07,121.23s-3-.21-2.49,1.19.45,3.42,3.46,1.83Z" fill="#f4a28c"/><path d="M194.08,119s2.61-1.43,2.76,0,1,3.3-2.4,3.1Z" fill="#f4a28c"/><path d="M144.93,158.18s-24.71-6.16-18.08-28.29,23.68-39.48,23.68-39.48l7.29,6.31s-18.37,30.06-12.61,37.67,22.18-.65,26.45,9.94S172.34,167.38,144.93,158.18Z" fill="#f4a28c"/><path d="M150.53,90.41c2.54-3.35,4.29-5.88,5-10.18a8.36,8.36,0,0,1,.77-3,2.19,2.19,0,0,1,2.61-1.09,3,3,0,0,1,1.28,1.64,25.69,25.69,0,0,1,2,11c-.14,3.85-1,5.92-4.38,7.87Z" fill="#f4a28c"/><path d="M129.82,151.8l16.3-17.6s4.23,2.64,12.21,2.35,13.77,2.18,15.33,9.66S173.18,178,129.82,151.8Z" fill="#68e1fd"/><path d="M129.82,151.8l16.3-17.6s4.23,2.64,12.21,2.35,13.77,2.18,15.33,9.66S173.18,178,129.82,151.8Z" fill="#fff" opacity="0.54"/><path d="M235.72,158.18s24.7-6.16,18.07-28.29-23.68-39.48-23.68-39.48l-7.29,6.31s18.37,30.06,12.62,37.67-22.18-.65-26.46,9.94S208.3,167.38,235.72,158.18Z" fill="#f4a28c"/><path d="M228.79,94.69c.89-1,1.79-2.26,1.56-3.59-.27-1.6-2-2.48-2.86-3.85-2-3.09.71-6.6-.88-9.66a1.84,1.84,0,0,0-1.06-1c-1.05-.28-1.87.89-2.34,1.87l-1.92,4a24.63,24.63,0,0,0-2.2,5.89,7.64,7.64,0,0,0,1,6c1.24,1.74,3.3,3.26,5.55,2.86C227.09,97,227.91,95.7,228.79,94.69Z" fill="#f4a28c"/><path d="M250.83,151.8l-16.31-17.6s-4.22,2.64-12.2,2.35-13.78,2.18-15.34,9.66S207.47,178,250.83,151.8Z" fill="#68e1fd"/><path d="M250.83,151.8l-16.31-17.6s-4.22,2.64-12.2,2.35-13.78,2.18-15.34,9.66S207.47,178,250.83,151.8Z" fill="#fff" opacity="0.54"/><path d="M162.48,178.74a49.87,49.87,0,0,1-5.11-20.35c0-.54,0-1.08,0-1.62,0-9.81,2.72-22.15,15.87-22.56,21.91-.67,49.45-3.38,53.35,11s-10.13,49.29-10.13,49.29l-46.16.37Z" fill="#68e1fd"/><path d="M185.07,121.23a16.7,16.7,0,0,0,1.1-5.75s8.1.52,9.24-5c0,0-2.18,1.22-5.24-.74s-13.7-.13-6.63,11.43Z" fill="#24285b"/><path d="M193.8,113.33s2.68,3.81.28,5.64L192,113.63Z" fill="#24285b"/><path d="M158.05,148.92s4.84,32.35,26.49,34.87S223.32,174,223.32,174l-6.88,20.53-46.16.37-8.45-17.53S155.09,163,158.05,148.92Z" opacity="0.09"/><path d="M188.28,93.61s5.64-5,8.48-1-.92,6.52-5.84,6.78S188.28,93.61,188.28,93.61Z" fill="#f4a28c"/><path d="M188.28,93.61s5.64-5,8.48-1-.92,6.52-5.84,6.78S188.28,93.61,188.28,93.61Z" opacity="0.08"/><circle cx="192.02" cy="69.32" r="36.17" fill="#24285b"/><rect x="198.64" y="29.45" width="12.69" height="12.69" transform="translate(26.71 -71.52) rotate(21.14)" fill="#24285b"/><path d="M247.9,44.24c-6.65-.88-9.55-5.87-12.62-11.16-3.42-5.88-6.95-12-16.2-13.24-5.2-.71-8.94.13-11.13,2.52-3.46,3.79-2,10.34-2,10.41l-1.95.45c-.07-.31-1.72-7.63,2.45-12.2,2.65-2.91,7-4,12.88-3.16,10.22,1.41,14.17,8.21,17.66,14.22,2.94,5.05,5.48,9.42,11.16,10.17Z" fill="#24285b"/><line x1="251.46" y1="40.16" x2="251.23" y2="34.69" fill="none" stroke="#ffd200" stroke-miterlimit="10" stroke-width="2"/><line x1="249.28" y1="50.87" x2="248.65" y2="58.66" fill="none" stroke="#ffd200" stroke-miterlimit="10" stroke-width="2"/><g opacity="0.44"><path d="M208.11,66.77c1.59-6.91-4-14.11-12.5-16s-16.65,2.1-18.23,9c-1.1,4.77,1.22,9.66,5.54,12.87l-.12.41a3.34,3.34,0,0,0,2.31,4.12l6.91,2a3.35,3.35,0,0,0,4.12-2.32l.18-.62C202.17,75.44,206.94,71.89,208.11,66.77ZM187.77,73a1.59,1.59,0,0,1-1.9.18.76.76,0,0,1-.32-.37.78.78,0,0,1-.05-.4A1.88,1.88,0,0,1,187.81,71C188.82,71.32,188.39,72.51,187.77,73ZM185.61,67a5.25,5.25,0,0,1-3.67-6.46c.78-2.78,4.19-6.16,7-5.37s4,5.45,3.19,8.23A5.27,5.27,0,0,1,185.61,67Zm8.53,7.92a1,1,0,0,1-.25.31.83.83,0,0,1-.47.16,1.61,1.61,0,0,1-1.53-1.15c-.24-.77,0-2,1.05-1.78A1.87,1.87,0,0,1,194.14,74.88Zm2.76-4.75a5.26,5.26,0,0,1-3.67-6.46c.78-2.77,4.2-6.15,7-5.37s4,5.46,3.18,8.24A5.26,5.26,0,0,1,196.9,70.13Z" fill="#fff"/><path d="M183.93,79.38h7.18a3.34,3.34,0,0,1,3.34,3.34v0a1.58,1.58,0,0,1-1.58,1.58H182.17a1.58,1.58,0,0,1-1.58-1.58v0A3.34,3.34,0,0,1,183.93,79.38Z" transform="translate(29.16 -47.71) rotate(15.71)" fill="#fff"/></g><line x1="254.92" y1="43.24" x2="261.9" y2="43.24" fill="none" stroke="#ffd200" stroke-miterlimit="10" stroke-width="2"/><line x1="255.27" y1="49.14" x2="260.23" y2="53.7" fill="none" stroke="#ffd200" stroke-miterlimit="10" stroke-width="2"/><line x1="245.01" y1="47.88" x2="239.38" y2="49.14" fill="none" stroke="#ffd200" stroke-miterlimit="10" stroke-width="2"/><path d="M166.07,192.05l-1.3-1.52c.32-.28,32.22-27.74,49.08-58.65l1.75,1C198.56,164.08,166.4,191.77,166.07,192.05Z" fill="#24285b"/><polygon points="165.42 185.62 220.89 185.62 218.78 191.85 165.42 191.29 165.42 185.62" fill="#24285b"/><rect x="208.03" y="181.49" width="13.94" height="13.94" fill="#24285b"/><rect x="206.08" y="180.36" width="3.9" height="16.75" rx="0.62" fill="#ffd200"/><rect x="206.08" y="184.02" width="3.9" height="0.84" fill="#fff" opacity="0.54"/><rect x="206.08" y="193.29" width="3.9" height="0.84" fill="#fff" opacity="0.54"/><rect x="210.54" y="180.36" width="3.9" height="16.75" rx="0.62" fill="#ffd200"/><rect x="210.54" y="184.02" width="3.9" height="0.84" fill="#fff" opacity="0.54"/><rect x="210.54" y="193.29" width="3.9" height="0.84" fill="#fff" opacity="0.54"/><rect x="215.01" y="180.36" width="3.9" height="16.75" rx="0.62" fill="#ffd200"/><rect x="215.01" y="184.02" width="3.9" height="0.84" fill="#fff" opacity="0.54"/><rect x="215.01" y="193.29" width="3.9" height="0.84" fill="#fff" opacity="0.54"/><rect x="219.47" y="180.36" width="3.9" height="16.75" rx="0.62" fill="#ffd200"/><rect x="219.47" y="184.02" width="3.9" height="0.84" fill="#fff" opacity="0.54"/><rect x="219.47" y="193.29" width="3.9" height="0.84" fill="#fff" opacity="0.54"/><rect x="166.48" y="181.49" width="13.94" height="13.94" fill="#24285b"/><rect x="164.53" y="180.36" width="3.9" height="16.75" rx="0.62" fill="#ffd200"/><rect x="164.53" y="184.02" width="3.9" height="0.84" fill="#fff" opacity="0.54"/><rect x="164.53" y="193.29" width="3.9" height="0.84" fill="#fff" opacity="0.54"/><rect x="168.99" y="180.36" width="3.9" height="16.75" rx="0.62" fill="#ffd200"/><rect x="168.99" y="184.02" width="3.9" height="0.84" fill="#fff" opacity="0.54"/><rect x="168.99" y="193.29" width="3.9" height="0.84" fill="#fff" opacity="0.54"/><rect x="173.46" y="180.36" width="3.9" height="16.75" rx="0.62" fill="#ffd200"/><rect x="173.46" y="184.02" width="3.9" height="0.84" fill="#fff" opacity="0.54"/><rect x="173.46" y="193.29" width="3.9" height="0.84" fill="#fff" opacity="0.54"/><rect x="177.92" y="180.36" width="3.9" height="16.75" rx="0.62" fill="#ffd200"/><rect x="177.92" y="184.02" width="3.9" height="0.84" fill="#fff" opacity="0.54"/><rect x="177.92" y="193.29" width="3.9" height="0.84" fill="#fff" opacity="0.54"/></svg>