<svg id="Layer_1" data-name="Layer 1" xmlns="http://www.w3.org/2000/svg" viewBox="0 0 400 300"><path d="M237,65.85s-26,7.83-22.36,37.84,32,53.59,28.57,75.5,9.53,10.38,14.52-6.82S237,65.85,237,65.85Z" fill="#68e1fd"/><path d="M237,65.85s-26,7.83-22.36,37.84,32,53.59,28.57,75.5,9.53,10.38,14.52-6.82S237,65.85,237,65.85Z" opacity="0.08"/><ellipse cx="193.02" cy="260.65" rx="164.47" ry="12.46" fill="#e6e6e6" opacity="0.45"/><path d="M300.3,250.09s2.05,4,5.88,3.84,5.3,3.43,2,4.83-12.64-1.88-12.64-1.88l-.45-5.5Z" fill="#68e1fd"/><path d="M251.23,150.88l-1.8,100.42h11.88s2.54-68.39,21.31-88.65Z" fill="#24285b"/><polygon points="304.8 142.09 304.8 251.3 292.77 251.3 282.62 162.65 251.23 150.88 304.8 142.09" fill="#24285b"/><path d="M246.15,42s-.56,6.07.43,10.11a3.07,3.07,0,0,0,3.73,2.23,6.75,6.75,0,0,0,5.31-5.05L257.47,44a5.46,5.46,0,0,0-2.37-5.86C251.68,35.67,246.31,38.33,246.15,42Z" fill="#f4a28c"/><polygon points="255.15 43.26 263.46 61.41 253.13 65.28 251.23 50.52 255.15 43.26" fill="#f4a28c"/><path d="M246,45.88l-1.71,2.34a1,1,0,0,0,.6,1.54l2.33.45Z" fill="#f4a28c"/><path d="M251.64,53.91a7.23,7.23,0,0,0,2.87-3s.83,3.56-2.07,8.1Z" fill="#ce8172" opacity="0.31"/><path d="M237,65.85a140.72,140.72,0,0,1,53-9.34A20.31,20.31,0,0,1,309.89,78.4l-5.09,63.69-53.57,8.79S233.41,133,221.57,98.61A26.08,26.08,0,0,1,237,65.85Z" fill="#68e1fd"/><path d="M258.27,49.85,254,49.39l-1.12-1.73a4.85,4.85,0,0,1-2-5s-8.1-.54-7.66-4,3.92-9.26,10.21-7.65S264.8,38.18,258.27,49.85Z" fill="#24285b"/><path d="M252.59,47.3s.06-2.35,1.82-2.16,1.7,3.58-.7,3.88Z" fill="#f4a28c"/><path d="M265.7,58.18A85.12,85.12,0,0,0,246,62.71s5.32,37.87,23.32,62.81C269.36,125.52,264.87,86.73,265.7,58.18Z" fill="#fff"/><path d="M265.7,58.18s-1.36-4.31-4.38-3.25a17,17,0,0,0-4.67,2.38S245.22,54,246,62.71C246,62.71,259,59.06,265.7,58.18Z" fill="#68e1fd"/><path d="M265.7,58.18s-1.36-4.31-4.38-3.25a17,17,0,0,0-4.67,2.38S245.22,54,246,62.71C246,62.71,259,59.06,265.7,58.18Z" fill="#fff" opacity="0.77"/><path d="M259.11,59.34s-.34-3.67-2.56-3.24-4.64-.14-3.38,4.22S258.81,63.42,259.11,59.34Z" fill="#24285b"/><path d="M258.42,61.55s2.83,25.69,8.76,40.53l2.18,23.44a99.68,99.68,0,0,1-11.82-21.69s-5.56-33-3.71-42Z" fill="#24285b"/><path d="M193,100.29s20.58-10,34.06,4.23,0,65.64,0,65.64H194.89Z" fill="#ffd200"/><circle cx="110.56" cy="67.61" r="20.69" fill="#e6e6e6"/><circle cx="110.56" cy="67.61" r="14.63" fill="#fff"/><path d="M110.56,70a1,1,0,0,1-1-1V59.2a1,1,0,1,1,2,0v8.68l6.92-1a1,1,0,0,1,1.13.85,1,1,0,0,1-.84,1.13L110.7,70Z" fill="#c1c1c1"/><path d="M172,110.12s-10.4.92-10.4,9.77c0,6.3.92,21.43-1.67,31.35A8.6,8.6,0,0,1,148.24,157l-24.38-10.34s-7.54-3.44-10.27-1.46,3.71,4.06,3.71,4.06-2.22,7.78,4.18,7.06,28.09,24.38,45.6,13.18S185.25,123.13,172,110.12Z" fill="#f4a28c"/><path d="M172,110.12s-10.4.92-10.4,9.77c0,6.3.92,21.43-1.67,31.35A8.6,8.6,0,0,1,148.24,157l-24.38-10.34s-7.54-3.44-10.27-1.46,3.71,4.06,3.71,4.06-2.22,7.78,4.18,7.06,28.09,24.38,45.6,13.18S185.25,123.13,172,110.12Z" opacity="0.08"/><path d="M177.07,79.15a31.35,31.35,0,0,0-2.52,8,2.53,2.53,0,0,0,2.27,2.78,5.58,5.58,0,0,0,5.55-2.42l2.94-3.6a4.51,4.51,0,0,0-.2-5.22C183.16,75.76,178.24,76.31,177.07,79.15Z" fill="#f4a28c"/><polygon points="184.2 84.7 185.38 101.16 176.27 101.16 179 89.49 184.2 84.7" fill="#f4a28c"/><path d="M175.86,82.09l-2,1.33a.8.8,0,0,0,0,1.36l1.68,1Z" fill="#f4a28c"/><path d="M178.92,89.82a6.18,6.18,0,0,0,3-1.42s.59,3.56-3.75,4.76Z" fill="#ce8172" opacity="0.31"/><path d="M176.27,101.16s-18.18,11-18.36,20.57a19.32,19.32,0,0,0,3.59,11.63,22.41,22.41,0,0,1,3.82,9.26l.47,27.54,39.85.85s25.92-54.23-10.35-70.72Z" fill="#68e1fd"/><path d="M201,111.88s-15.58,2.08-12.09,26.89c1.67,11.88,3.55,18.13-15.35,12.45l-8.13-4.71.4,23.65,39.85.85,5.85-17.15Z" opacity="0.08"/><path d="M176.27,101.16s.34,7.56,5.65,6.64,7.87-2.33,8.79-7.3Z" fill="#fff"/><path d="M175.13,79.61,182,82.53A33.52,33.52,0,0,0,184.17,98a8.53,8.53,0,0,0,13,3.59h0a3.81,3.81,0,0,0-.36-6.35c-3.45-2-7-5.69-6.38-11.88C191.65,71.84,178.21,67.7,175.13,79.61Z" fill="#24285b"/><path d="M196.67,119.26c-.36-8.59,11.47-11.58,15.14-3.8A37,37,0,0,1,215,127c2.14,18.26,5.6,38.47-9.58,44.52S163.9,145.6,163.9,145.6l5.07-4.85s20,15.75,28.27,14.48C202.94,154.36,197.32,134.9,196.67,119.26Z" fill="#f4a28c"/><path d="M169.39,140a15.2,15.2,0,0,0-5.37-6.72c-7.17-4.83-4,1.6-2.25,3.18,0,0-7,2.67,1.87,9.45Z" fill="#f4a28c"/><rect x="162.32" y="142.24" width="10.59" height="4.28" transform="translate(-52.24 168.92) rotate(-47.11)" fill="#24285b"/><circle cx="167.33" cy="144.37" r="2.89" fill="#fff"/><rect x="67.18" y="170.16" width="201.33" height="9.03" fill="#e6e6e6"/><rect x="67.18" y="179.19" width="201.33" height="79.61" fill="#ccc"/><path d="M94.37,170.16l-9.73-36h45.15l7.05,26.76a6.29,6.29,0,0,0,6.08,4.68h15v4.54Z" fill="#ffd200"/><path d="M279,71.78S272.1,88,284.94,97.47s7.1,42-3.89,48.51l23.75-3.89,3.57-44.65Z" opacity="0.08"/><ellipse cx="109.89" cy="148.99" rx="3.01" ry="3.81" transform="translate(-16.75 13.95) rotate(-6.75)" fill="#fff"/><path d="M279.05,73c-.37-10,8.22-18.29,17.7-15.23,15.58,5,41,17.29,46.12,39.14,7.67,32.78-41.47,45.45-41.47,45.45L294.64,135s29.05-18.52,19.48-32.4C306.52,91.55,279.7,90.79,279.05,73Z" fill="#68e1fd"/><path d="M279.05,73c-.37-10,8.22-18.29,17.7-15.23,15.58,5,41,17.29,46.12,39.14,7.67,32.78-41.47,45.45-41.47,45.45L294.64,135s29.05-18.52,19.48-32.4C306.52,91.55,279.7,90.79,279.05,73Z" fill="#fff" opacity="0.46"/><path d="M295.65,136.08s-6.87,8.55-1.46,11.68,7.21-5.37,7.21-5.37Z" fill="#f4a28c"/><path d="M330.11,246.49s-9.65-2.64-11.74-11.61c0,0,14.94-3,15.36,12.4Z" fill="#68e1fd" opacity="0.58"/><path d="M331.29,245.53s-6.74-10.65-.81-20.61c0,0,11.36,7.21,6.31,20.63Z" fill="#68e1fd" opacity="0.73"/><path d="M333,245.54s3.56-11.25,14.33-13.38c0,0,2,7.3-7,13.41Z" fill="#68e1fd"/><polygon points="326.03 245.28 327.99 258.66 340.3 258.71 342.11 245.35 326.03 245.28" fill="#24285b"/><path d="M227.08,170.16s25.57,65-44.21,88.55h85.64V170.16Z" opacity="0.08"/></svg>