<svg id="Layer_1" data-name="Layer 1" xmlns="http://www.w3.org/2000/svg" viewBox="0 0 400 300"><path d="M115.46,232.67s-1.8,4,.63,6.76.61,6.07-2.43,4.43-6.2-10.69-6.2-10.69l4.67-5Z" fill="#68e1fd"/><path d="M115.46,232.67s-1.8,4,.63,6.76.61,6.07-2.43,4.43-6.2-10.69-6.2-10.69l4.67-5Z" opacity="0.09"/><rect x="126.81" y="36.83" width="176.4" height="174.72" fill="#e6e6e6"/><circle cx="140.7" cy="50.22" r="4.42" fill="#ffd200"/><circle cx="153.15" cy="50.22" r="4.42" fill="#68e1fd"/><circle cx="165.07" cy="50.22" r="4.42" fill="#24285b"/><rect x="233.8" y="45.8" width="50.57" height="10.21" fill="#fff"/><path d="M209.5,85.93s14.92,18.71,4.34,37.47-34.52,15.54-34.52,15.54l-17.86,43.9a4.52,4.52,0,0,1-6,2.45l-4.58-1.94a1.75,1.75,0,0,0-2.1,2.64h0A15.53,15.53,0,0,1,150,202.35l-4.87,9.19H126.81l0-68.19,18.29,20.07,19.95-39.23s24.08,7.11,32.9-4.36S209.5,85.93,209.5,85.93Z" opacity="0.09"/><path d="M112.79,117.17s16.27,5.07,19.11,20.55,14,17.56,24.22,18l-1.06,6.53S121.47,173.53,116,148.45C110.1,121.86,112.79,117.17,112.79,117.17Z" fill="#f4a28c"/><path d="M112.79,117.17s16.27,5.07,19.11,20.55,14,17.56,24.22,18l-1.06,6.53S121.47,173.53,116,148.45C110.1,121.86,112.79,117.17,112.79,117.17Z" opacity="0.09"/><path d="M109.08,115.43s22,4.25,25.67,29.39c0,0-1.88,7.19-12.84,10.43S109.08,115.43,109.08,115.43Z" fill="#68e1fd"/><path d="M109.08,115.43s22,4.25,25.67,29.39c0,0-1.88,7.19-12.84,10.43S109.08,115.43,109.08,115.43Z" fill="#fff" opacity="0.44"/><path d="M86.17,115s-27.41,6.78-21,29.72A258,258,0,0,0,80,184.83l34.27-2.35S148.42,102.7,86.17,115Z" fill="#68e1fd"/><polygon points="90.38 91.62 86.17 115 100.09 123.4 97.04 98.82 90.38 91.62" fill="#f4a28c"/><path d="M97.68,102.65A8.58,8.58,0,0,1,93.49,100s.1,4.35,4.78,8.74Z" fill="#ce8172" opacity="0.31"/><path d="M101,89.9s1.47,7.11.82,12A3.64,3.64,0,0,1,97.68,105c-2.47-.36-5.7-1.57-7-5.28l-2.89-6a6.5,6.5,0,0,1,2-7.24C93.6,83.09,100.3,85.53,101,89.9Z" fill="#f4a28c"/><path d="M66.22,148.45S69.8,160.06,72.1,166c0,0,17.79,15.45,42.14,16.44,0,0,2.63-6.64,4-11.13S66.22,148.45,66.22,148.45Z" opacity="0.09"/><path d="M112.51,183s25-6.6,30.89,3.59-8.94,33.31-28.56,46.25L110,226.17s15.43-11.76,15.43-26.66c0,0-21.64.09-22.82-7.84S112.51,183,112.51,183Z" fill="#24285b"/><path d="M112.51,183s25-6.6,30.89,3.59-8.94,33.31-28.56,46.25L110,226.17s15.43-11.76,15.43-26.66c0,0-21.64.09-22.82-7.84S112.51,183,112.51,183Z" opacity="0.09"/><path d="M101.66,94.43,104,97a1.17,1.17,0,0,1-.51,1.9l-2.7.84Z" fill="#f4a28c"/><path d="M88.1,101.23,85.58,91.7s-5.5-.94-3.85-4.54,3.85-1.2,3.93-5.33,3.42-5,5.8-2.65,1.27-.92,4.23-1.36,3.75.88,3.82,3.13,4.34-.16,5.44,2.69,1.27,5.6-6.1,6.07S96.77,96.25,88.1,101.23Z" fill="#ffd200"/><path d="M94,97s-.38-2.76-2.43-2.3-1.54,4.45,1.34,4.5Z" fill="#f4a28c"/><rect x="158.6" y="120.45" width="10.79" height="22.29" transform="translate(66.35 -54.62) rotate(23.59)" fill="#68e1fd"/><path d="M192.19,67.53a32.15,32.15,0,1,0,16.6,42.33A32.15,32.15,0,0,0,192.19,67.53Zm-22.54,51.62a24.18,24.18,0,1,1,31.83-12.48A24.18,24.18,0,0,1,169.65,119.15Z" fill="#24285b"/><rect x="145.52" y="134.35" width="17.97" height="37.96" rx="4.72" transform="translate(74.25 -49.01) rotate(23.59)" fill="#24285b"/><path d="M150.79,151s9.14-1.3,8.1,5.75-9.73,0-9.73,0-15.15,12.7-30.91,14.57-63.17-16.56-52.2-41.64c8.08-18.46,39.16,28.62,53.2,26S150.79,151,150.79,151Z" fill="#f4a28c"/><path d="M162.7,157s6.29-4.29,2.46-8.58S159.89,152.67,162.7,157Z" fill="#f4a28c"/><path d="M68.85,125.41s13.61-6.17,35.45,20.68L88.51,166.67S49.59,149.6,68.85,125.41Z" fill="#68e1fd"/><path d="M68.85,125.41s13.61-6.17,35.45,20.68L88.51,166.67S49.59,149.6,68.85,125.41Z" fill="#fff" opacity="0.44"/><rect x="231.78" y="72.53" width="89.95" height="123.54" fill="#24285b"/><path d="M183.06,89.44a3.66,3.66,0,0,0-7.31-.1,7.13,7.13,0,0,0-3.55,6.16v4.35a7.13,7.13,0,0,0,7.12,7.13h0a7.13,7.13,0,0,0,7.13-7.13V95.5A7.12,7.12,0,0,0,183.06,89.44Z" fill="#999"/><polyline points="167.88 88.38 168.47 93.28 175.72 94.55" fill="none" stroke="#999" stroke-linejoin="round" stroke-width="2"/><polyline points="167.88 108.34 168.47 103.44 175.72 102.17" fill="none" stroke="#999" stroke-linejoin="round" stroke-width="2"/><line x1="173.64" y1="98.37" x2="163.55" y2="98.37" fill="none" stroke="#999" stroke-linejoin="round" stroke-width="2"/><polyline points="190.47 88.38 189.88 93.28 182.63 94.55" fill="none" stroke="#999" stroke-linejoin="round" stroke-width="2"/><polyline points="190.47 108.34 189.88 103.44 182.63 102.17" fill="none" stroke="#999" stroke-linejoin="round" stroke-width="2"/><line x1="184.71" y1="98.37" x2="194.81" y2="98.37" fill="none" stroke="#999" stroke-linejoin="round" stroke-width="2"/><rect x="248.53" y="110.03" width="56.74" height="35.86" opacity="0.09"/><rect x="265.58" y="85.43" width="31.75" height="8.24" fill="#e6e6e6" opacity="0.32"/><rect x="267.46" y="178.43" width="18.88" height="4.9" fill="#fff" opacity="0.11"/><circle cx="248.53" cy="89.55" r="8.82" fill="#ffd200"/><rect x="246.18" y="157.03" width="62.91" height="12.77" fill="#fff"/><rect x="246.18" y="157.03" width="47.62" height="12.77" fill="#68e1fd"/><path d="M80,184.83s6.26,15.74,20.82,18.49,43.18,32.92,42,50.17h10.35s-.45-40.2-41.45-65.75l2.54-5.26Z" fill="#24285b"/><text transform="translate(255.89 134.72)" font-size="20.35" fill="#fff" font-family="Poppins-Bold, Poppins" font-weight="700">80%</text><path d="M151.37,253.89s1.83,3.94,5.54,3.92,5,3.5,1.77,4.73-12.14-2.25-12.14-2.25l-.76-6.8Z" fill="#68e1fd"/><rect x="184.26" y="148.45" width="36.83" height="47.62" fill="#999" opacity="0.38"/></svg>