<svg id="Layer_1" data-name="Layer 1" xmlns="http://www.w3.org/2000/svg" viewBox="0 0 400 300"><path d="M81.89,37.69H288.26a29.85,29.85,0,0,1,29.85,29.85V183.3a0,0,0,0,1,0,0H81.89a0,0,0,0,1,0,0V37.69A0,0,0,0,1,81.89,37.69Z" fill="#ededed"/><path d="M188.24,49.41h95.55a21,21,0,0,1,21,21v84.72a8.33,8.33,0,0,1-8.33,8.33H179.91a0,0,0,0,1,0,0V57.74A8.33,8.33,0,0,1,188.24,49.41Z" fill="#fff" opacity="0.46"/><rect x="98.09" y="49.41" width="66.84" height="114.05" rx="9.61" fill="#fff" opacity="0.46"/><rect x="277.45" y="64.81" width="20.65" height="51.1" rx="8.1" fill="#ededed"/><polygon points="294.9 82.09 304.79 87.01 304.79 92.13 293.83 86.65 294.9 82.09" fill="#ededed"/><ellipse cx="200" cy="248.5" rx="140.26" ry="13.81" fill="#e6e6e6" opacity="0.45"/><path d="M191.48,248.6a2.9,2.9,0,0,1-2.89,2.9H158.23a2.9,2.9,0,0,1-2.9-2.9,2.9,2.9,0,0,1,2.9-2.89H159V215.65h28.83v30.06h.77A2.89,2.89,0,0,1,191.48,248.6Z" fill="#c9c9c9"/><path d="M187.82,215.65v9.2a11.5,11.5,0,0,1-1.22.89c-3.58,2.28-7.83,3.39-11.33,5.8-5.1,3.51-8.1,9.48-9.31,15.56a38.78,38.78,0,0,0-.61,4.4h-7.12a2.9,2.9,0,0,1-2.9-2.9,2.9,2.9,0,0,1,2.9-2.89H159V215.65Z" opacity="0.08"/><path d="M222.32,221.11c-16,4.87-59.76.84-71.36-1.2-24.26-4.26-33.31-96.06-24.05-115.43,3.27-6.83,11-11.11,20-13a56.1,56.1,0,0,1,28.72,1.75c6.68,2.34,12.12,6.11,14.73,11.24,5.65,11.12,7.66,56,8.34,80.3,26.45,5.75,27.76,19.46,29.48,30.87C228.54,218.13,226.29,219.89,222.32,221.11Z" fill="#ffd200"/><path d="M222.32,221.11c-16,4.87-59.76.84-71.36-1.2-24.26-4.26-33.31-96.06-24.05-115.43,3.27-6.83,11-11.11,20-13-3,2.71-6.59,4.65-9.52,7.4-6.14,5.77-5.09,17.46-4.57,25.29.58,8.93,2.3,17.74,4,26.52l7.23,37.18c1.09,5.57,2.5,11.67,7.07,15a18.62,18.62,0,0,0,8.26,2.95c9.93,1.53,20.05-.06,30.1-.1s20.82,1.85,28,8.89A27.88,27.88,0,0,1,222.32,221.11Z" opacity="0.08"/><path d="M201.75,245.7s0,4.7,3.6,5.1,4.5,4,1.2,4.85-11.66-3.6-11.66-3.6l1.37-7.86Z" fill="#68e1fd"/><path d="M178.59,202.06s16.67,1.81,17.67,18.29a106,106,0,0,1-1,23.54l9,2.72a108.39,108.39,0,0,0,9.6-37.74C215.34,187.26,180.75,192,178.59,202.06Z" fill="#24285b"/><path d="M216.83,245.82s2,3.81,5.65,3.61,5.1,3.22,2,4.59-14.3-2.87-14.3-2.87l1.59-5.45Z" fill="#68e1fd"/><path d="M161.22,183.64s.4,16.88,11.82,18.33,37.58-7.34,40.85,6.9-3.25,36.9-3.25,36.9l8.49,1.18s17.37-33.2,6.84-49.43-35.26-14.13-35.26-14.13Z" fill="#24285b"/><path d="M243,73.14s-4.08-6.22-3.37-7,2,.35,2,.35-1.68-3.91-.4-4.71,4.93-.8,5.73.89,2.4,9.78,2.4,9.78Z" fill="#f4a28c"/><path d="M203,96.5s41,4.28,42.64.28S241.34,71,241.34,71h8.54s16.62,37.85,6.22,42.12-42.07,6.6-42.07,6.6Z" fill="#68e1fd"/><path d="M203,96.5s41,4.28,42.64.28S241.34,71,241.34,71h8.54s16.62,37.85,6.22,42.12-42.07,6.6-42.07,6.6Z" fill="#fff" opacity="0.27"/><path d="M207.69,185.06,185,188.93l-23.71,4s-13.44-40-20.91-63.31c-3-9.24-5-15.85-4.84-16.28,10.28-32.45,30.74-22.81,61.12-18.6C237.62,100.47,207.69,185.06,207.69,185.06Z" fill="#68e1fd"/><path d="M207,143.1c-5.49,3.8-9.84,9-13.9,14.3A58.91,58.91,0,0,0,185.19,170a23.66,23.66,0,0,0-1.69,14.6,31.52,31.52,0,0,0,1.45,4.3l-23.71,4s-13.44-40-20.91-63.31c2.71-2.9,5.61-4.57,8.17-3.31,3,1.47,4,7.54,5.41,10.24,2.24,4.22,5.47,8,10,9.93,3.55,1.5,7.51,1.66,11.37,1.74C186.08,148.49,197.43,148.2,207,143.1Z" opacity="0.08"/><path d="M194.22,71.94a33.53,33.53,0,0,1,.48,8.86,2.68,2.68,0,0,1-3.07,2.26,5.93,5.93,0,0,1-5.07-4l-2.07-4.48a4.82,4.82,0,0,1,1.58-5.32C188.85,66.84,193.76,68.71,194.22,71.94Z" fill="#f4a28c"/><polygon points="185.57 75.85 182.57 93.11 192.2 94.09 190.52 81.14 185.57 75.85" fill="#f4a28c"/><path d="M194.68,75.28l1.69,1.89a.85.85,0,0,1-.39,1.39l-2,.6Z" fill="#f4a28c"/><path d="M190.71,82.87s-1.24-.12-3.59-1.94c0,0-.05,3.49,4.12,5.74Z" fill="#ce8172" opacity="0.31"/><path d="M187.53,76a2,2,0,0,0,2,1.62,7.64,7.64,0,0,1,5.57,1.73c2.66,2.54-.85,6.5-4.19,5s-7.34-8.18-7.34-8.18-2.57-5.43-1.21-8.39,9.91-6.16,12.45-.28c1.62,3.77-2,4.91-4.87,5.24A2.81,2.81,0,0,0,187.53,76Z" fill="#24285b"/><path d="M189.37,75.63s-.25-2-1.78-1.72-1.17,3.27.95,3.33Z" fill="#f4a28c"/><path d="M196.05,94.21s8.26,44-3.74,66.05c0,0-4-49.44-18.9-68.81C173.41,91.45,187.17,92.81,196.05,94.21Z" fill="#fff"/><path d="M196.05,94.21l11.64,23.22-5.76,13.38,4.14,11.74-13.76,17.71S204.47,148.61,196.05,94.21Z" fill="#fff" opacity="0.27"/><path d="M190.08,94a3.28,3.28,0,0,0-1.18-.59,12.94,12.94,0,0,0-1.72-.39,4.34,4.34,0,0,0-2.06,0,2,2,0,0,0-1.39,1.54c0,.54.5,1,.9,1.29a4.15,4.15,0,0,0,2.06.84l3.47-.42c.31,0,.49-1.31.43-1.55A1.5,1.5,0,0,0,190.08,94Z" fill="#24285b"/><path d="M190.16,96.36l-3.47.42s2.9,26.91,2.52,43.07l3.1,20.41s6.28-10.88,5.93-23.82C198.24,136.44,194.87,111.33,190.16,96.36Z" fill="#24285b"/><path d="M196.05,94.21l-4.47,2-3.79-2-3.21,2.29-11.17-5S187.15,91.94,196.05,94.21Z" fill="#68e1fd"/><path d="M196.05,94.21l-4.47,2-3.79-2-3.21,2.29-11.17-5A133.81,133.81,0,0,1,196.05,94.21Z" fill="#fff" opacity="0.55"/><path d="M173.41,91.45l1.18,35.41,9.62,4.28-4,11.76,12.06,17.36S188.08,110.58,173.41,91.45Z" fill="#fff" opacity="0.27"/><path d="M219.55,136s2.49-4.32,6-5.7,13.2-4.22,11.29-1.32-6.82,3.73-7.93,5.74-5.19,8.1-8,6.08A3.82,3.82,0,0,1,219.55,136Z" fill="#f4a28c"/><path d="M144,95.73s12.59-5.69,13.55,16.72c1,22.68,13.83,29.58,13.83,29.58s41.44-6.17,48.92-8.44l1.92,8.44s-46.14,35-65.77,26.49S126.34,109.78,144,95.73Z" fill="#68e1fd"/><path d="M144,95.73s12.59-5.69,13.55,16.72c1,22.68,13.83,29.58,13.83,29.58s41.44-6.17,48.92-8.44l1.92,8.44s-46.14,35-65.77,26.49S126.34,109.78,144,95.73Z" fill="#fff" opacity="0.27"/><path d="M182,69.48c0-.14,12-3.34,12-3.34s4.23-7.73,0-7.73-12.21,4.93-13.15,7.33A3.11,3.11,0,0,0,182,69.48Z" fill="#68e1fd"/><path d="M182.57,69.27s.93,1.07,7.66.21,7.73-1.47,7.13-2.4-3.38-.94-3.38-.94Z" fill="#68e1fd"/><path d="M182.57,69.27s.93,1.07,7.66.21,7.73-1.47,7.13-2.4-3.38-.94-3.38-.94Z" fill="#fff" opacity="0.44"/><circle cx="192.45" cy="64.46" r="2.4" fill="#ffd200"/><rect x="235.61" y="132.55" width="7.61" height="11.26" transform="translate(-32.66 187.07) rotate(-40.18)" fill="#24285b"/><rect x="246.37" y="139.28" width="10.84" height="27.11" transform="translate(-39.19 198.51) rotate(-40.18)" fill="#24285b"/><rect x="217.69" y="130.88" width="34.64" height="4.15" rx="2.07" transform="translate(-30.33 182.99) rotate(-40.18)" fill="#24285b"/><path d="M283.74,250.48V161.32a10.06,10.06,0,0,0-15.82-8.26l-19.64,13.67v27.65l-12,6.94v49.16Z" fill="#c9c9c9"/></svg>