<svg id="Layer_1" data-name="Layer 1" xmlns="http://www.w3.org/2000/svg" viewBox="0 0 400 300"><path d="M136.12,46.41c-45.78,10.1-82,42-92.58,83.08-7.89,30.55-1,62,52.15,73.5,114.83,24.77,238.86,16.6,253.72-32.94S336.7,35.55,271,30.29C233.65,27.3,177.53,37.27,136.12,46.41Z" fill="#e6e6e6" opacity="0.3"/><rect x="151.62" y="65.42" width="103.15" height="85.63" fill="#e6e6e6" opacity="0.43"/><path d="M166.21,178.48s-7.57,3.83-4.68,8.26,9.19-4.13,9.19-4.13Z" fill="#f4a28c"/><path d="M148.92,102.7a4.51,4.51,0,0,1,5.54-5.52,66,66,0,0,1,35.75,24.6c1.57,2.13,3.07,4.21,4.49,6.22a31.36,31.36,0,0,1-6.9,43.14l-16.29,12.19-6.44-5.89L178.14,165a17.11,17.11,0,0,0-.06-24.79l-25.66-24.31Z" fill="#68e1fd"/><path d="M148.92,102.7a4.51,4.51,0,0,1,5.54-5.52,66,66,0,0,1,35.75,24.6c1.57,2.13,3.07,4.21,4.49,6.22a31.36,31.36,0,0,1-6.9,43.14l-16.29,12.19-6.44-5.89L178.14,165a17.11,17.11,0,0,0-.06-24.79l-25.66-24.31Z" fill="#fff" opacity="0.46"/><ellipse cx="215.77" cy="257.92" rx="152.02" ry="13.24" fill="#e6e6e6" opacity="0.45"/><path d="M105.45,105.23a70.65,70.65,0,0,1,16.83-5.91c9.12-1.84,25.32-4.78,33.43-1.79s28.35,34,13,45.44l-7.87,20.12H124.82S97.31,133.93,105.45,105.23Z" fill="#68e1fd"/><path d="M117.73,110.53a36,36,0,0,1,5,15.13,59.88,59.88,0,0,0,6.91,22.91l7.91,14.52H124.82S114.5,152.39,110.56,141,108.76,115.86,117.73,110.53Z" opacity="0.08"/><path d="M133.82,80.65a31.69,31.69,0,0,1,2.85,8,2.57,2.57,0,0,1-2.19,2.9,5.64,5.64,0,0,1-5.72-2.25l-3.1-3.54a4.57,4.57,0,0,1,0-5.29C127.53,77.44,132.53,77.82,133.82,80.65Z" fill="#f4a28c"/><polygon points="127.22 84.43 126.48 101.13 135.71 100.88 132.54 88.83 127.22 84.43" fill="#f4a28c"/><path d="M135.15,83.58l2.07,1.28a.81.81,0,0,1,0,1.38l-1.66,1.08Z" fill="#f4a28c"/><path d="M133.29,91.59a6.06,6.06,0,0,1-3.17-1.43s.48,3,4.16,5.64Z" fill="#ce8172" opacity="0.31"/><path d="M119.12,116c0-10.17-12.66-14.86-19.46-7.3a42.1,42.1,0,0,0-10.82,23.23c-2.71,22.33.27,71.08.27,71.08h8.08s5.46-48.72,17.38-71.08C117.89,125.68,119.1,120.38,119.12,116Z" fill="#68e1fd"/><path d="M119.12,116c0-10.17-12.66-14.86-19.46-7.3a42.1,42.1,0,0,0-10.82,23.23c-2.71,22.33.27,71.08.27,71.08h8.08s5.46-48.72,17.38-71.08C117.89,125.68,119.1,120.38,119.12,116Z" fill="#fff" opacity="0.46"/><path d="M86.23,217.07v-3.45A4.72,4.72,0,0,1,91,208.9h4.43a4.72,4.72,0,0,1,4.72,4.72v3.7" fill="none" stroke="#24285b" stroke-miterlimit="10" stroke-width="2"/><rect x="76.85" y="215.7" width="33.71" height="21.96" fill="#ffd200"/><path d="M76.85,226s12.63,10.85,33.71,7.66v4H76.85Z" opacity="0.08"/><path d="M90.51,203s-2.42,8,.77,8,7,1.54,4.59-8Z" fill="#f4a28c"/><path d="M108.51,85.38l-9.05-7.7a28.35,28.35,0,1,0-2.28,4.26Z" fill="#24285b"/><path d="M74.38,49.92c.88,0,1.15.31,1.15,1.2V53c3.56.5,5.6,2.28,7.11,5.36.46.93.27,1.43-.78,1.9L80,61.12c-.88.42-1.31.23-1.81-.7a4.84,4.84,0,0,0-4.94-3c-3.28,0-4.79,1-4.79,3.16,0,1.43,1.31,2.32,2.67,2.59a21.3,21.3,0,0,0,2.77.42,18.18,18.18,0,0,1,5.14,1,7.18,7.18,0,0,1,2.28,1.23,7.48,7.48,0,0,1,2,5.41c0,4.2-2.82,7.06-7.8,7.79v2c0,.89-.27,1.2-1.15,1.2H72.25c-.88,0-1.19-.31-1.19-1.2v-2c-3.86-.5-6.45-2.47-7.72-5.94a1.26,1.26,0,0,1,.88-1.78l1.9-.69c1-.35,1.39-.12,1.81.85q1.27,3.24,5.21,3.24c3.55,0,5.33-1.12,5.33-3.4A2.36,2.36,0,0,0,76.81,69,13.2,13.2,0,0,0,73,68.26a17.56,17.56,0,0,1-5.18-1.12,7.27,7.27,0,0,1-2.23-1.28,7,7,0,0,1-2.09-5.25c0-4.17,2.63-6.94,7.57-7.6V51.12c0-.89.31-1.2,1.19-1.2Z" fill="#fff"/><rect x="204.04" y="183.24" width="134.13" height="72.05" fill="#c1c1c1"/><rect x="182.6" y="183.24" width="134.13" height="72.05" fill="#e6e6e6"/><path d="M267.36,183.33s-3.4-30.46,12.26-34.23,38.47-1.65,28.93,34.23Z" fill="#c1c1c1"/><polygon points="254.26 172.23 219.02 172.23 215.96 183.24 251.19 183.24 254.26 172.23" fill="#c1c1c1"/><polygon points="254.26 172.23 258.51 183.33 251.19 183.24 254.26 172.23" fill="#a5a5a5"/><path d="M127,88.85s-2.76.36-4.81-3.87,1.5-5.26,1.5-5.26.16-4.72,4.44-5.42,9.42,6.24,2.94,8C126.17,83.58,132.85,85.08,127,88.85Z" fill="#24285b"/><path d="M130.47,86.76s-.78-1.81-2.09-1.1-.19,3.31,1.77,2.79Z" fill="#f4a28c"/><circle cx="118.48" cy="83.14" r="4.18" fill="#24285b"/><path d="M122.4,85.36s-1.66,0-1.81-2.45,1.81-2.38,1.81-2.38S121.13,82.28,122.4,85.36Z" fill="#ffd200"/><path d="M124.82,163.09l-6.34,88.34,24.66-1,1.63-50.83a1,1,0,0,1,1.91-.06l4.94,50.13,22.7-.51-13.45-86Z" fill="#24285b"/><path d="M129.15,251a10.2,10.2,0,0,1-6.49,5.55c-5,1.53-.28,6.9,5.16,3.83a19.66,19.66,0,0,1,6-2.31,2.59,2.59,0,0,0,2.1-3l-.74-4.33Z" fill="#68e1fd"/><path d="M166.27,249.28a10.2,10.2,0,0,0,6.49,5.55c5,1.53.27,6.89-5.16,3.83a19.76,19.76,0,0,0-6-2.31,2.6,2.6,0,0,1-2.11-3l.74-4.34Z" fill="#68e1fd"/><path d="M119.6,99.77s13.4-3.12,24.8-3.52c0,0,16.34,28.88,7.32,39.43S123.69,116,119.6,99.77Z" fill="#fff"/><circle cx="148.84" cy="151.05" r="2.78" fill="#fff" opacity="0.46"/></svg>