<svg id="Layer_1" data-name="Layer 1" xmlns="http://www.w3.org/2000/svg" viewBox="0 0 400 300"><path d="M99,54.25c-30,14.46-51.39,49-54.29,89.92-2.44,34.47,9.92,84.23,63.27,93,103.81,17.07,212.48,25.67,234.93-32S340.1,32.08,287.59,27.8C245.84,24.4,157.58,26,99,54.25Z" fill="#e6e6e6" opacity="0.3"/><path d="M96.58,161.59s4-61.78,19.94-84.9c7.15-10.37,32.53-7.4,48.19-4.4a8.83,8.83,0,0,1,2.89,16.24c-4.82,2.87-12,5.1-22.61,5.25a8.41,8.41,0,0,0-8.1,6.61l-7.13,32.5Z" fill="#f4a28c"/><path d="M96.58,161.59s4-61.78,19.94-84.9c7.15-10.37,32.53-7.4,48.19-4.4a8.83,8.83,0,0,1,2.89,16.24c-4.82,2.87-12,5.1-22.61,5.25a8.41,8.41,0,0,0-8.1,6.61l-7.13,32.5Z" opacity="0.18"/><rect x="127.02" y="99.48" width="188.54" height="126.56" transform="translate(5.13 -6.76) rotate(1.77)" fill="#68e1fd"/><rect x="125.94" y="169.73" width="188.54" height="56.28" transform="translate(6.22 -6.71) rotate(1.77)" opacity="0.08"/><path d="M118,138.62,132,131a52.18,52.18,0,0,1,39.82-4.49c14.31,4.29,29,15.31,30.78,42.24L179,200.51s-26.71-17-33.5,5.12-17.05,46.28-17.05,46.28L67.12,252l11.69-56.35A76.28,76.28,0,0,1,118,138.62Z" fill="#f4a28c"/><path d="M118,138.62,132,131a52.18,52.18,0,0,1,39.82-4.49c14.31,4.29,29,15.31,30.78,42.24L179,200.51s-26.71-17-33.5,5.12-17.05,46.28-17.05,46.28L67.12,252l11.69-56.35A76.28,76.28,0,0,1,118,138.62Z" opacity="0.1"/><path d="M205,234,175.23,217.5a32.19,32.19,0,0,1-16.54-29.13l.73-23.8c.26-8.5,11.5-11.49,15.84-4.18,1.81,3.07,3.28,7.49,4,13.83C182.35,201.17,205,234,205,234Z" fill="#f4a28c"/><path d="M205,234,175.23,217.5a32.19,32.19,0,0,1-16.54-29.13l.73-23.8c.26-8.5,11.5-11.49,15.84-4.18,1.81,3.07,3.28,7.49,4,13.83C182.35,201.17,205,234,205,234Z" opacity="0.08"/><rect x="278.93" y="115.54" width="26.43" height="10.7" transform="translate(3.87 -8.96) rotate(1.77)" fill="#fff" opacity="0.39"/><path d="M297.8,180.68S286.93,141.34,280,137.82c-14.28-7.32-15.83,4.65-13.13,23.47s-13.83,40.63-26.7,40.53c-12.67-.11-45.27,2.83-49.29-44.18a47.34,47.34,0,0,0-.95-6.39c-1.17-5.11-3.81-13.3-8.89-14.49-10.8-2.52-12.3,10.06-11,23.48s7.31,45.53,18.65,59.19c17.11,20.62,58.16,38.17,58.16,38.17l64.23,2S306.4,224.24,297.8,180.68Z" fill="#f4a28c"/><circle cx="230.24" cy="163.57" r="41.82" fill="#68e1fd"/><circle cx="230.24" cy="163.57" r="41.82" fill="#fff" opacity="0.39"/><circle cx="230.24" cy="163.57" r="33.25" fill="#24285b"/><circle cx="235.91" cy="158.47" r="17.49" fill="#fff" opacity="0.08"/><circle cx="242.87" cy="155.24" r="6.86" fill="#fff" opacity="0.08"/><path d="M204.53,104.52l7-22.42a22.05,22.05,0,0,1,21.74-15.47l13.39.41A22.06,22.06,0,0,1,268,87.5l1.37,19Z" fill="#68e1fd"/><rect x="223.57" y="83.98" width="31.97" height="10.44" rx="4.77" transform="translate(2.87 -7.35) rotate(1.77)" fill="#24285b"/><rect x="138.46" y="86.55" width="30.68" height="10.81" transform="translate(2.91 -4.71) rotate(1.77)" fill="#ffd200"/><rect x="175.87" y="92.95" width="20.23" height="5.4" transform="translate(3.04 -5.7) rotate(1.77)" fill="#ffd200"/><rect x="175.87" y="92.95" width="20.23" height="5.4" transform="translate(3.04 -5.7) rotate(1.77)" fill="#fff" opacity="0.39"/><path d="M298,93h0a7,7,0,0,1,7,7v1.86a0,0,0,0,1,0,0H291a0,0,0,0,1,0,0V100A7,7,0,0,1,298,93Z" transform="translate(3.15 -9.15) rotate(1.77)" fill="#24285b"/></svg>