<svg id="Layer_1" data-name="Layer 1" xmlns="http://www.w3.org/2000/svg" viewBox="0 0 400 300"><g opacity="0.64"><polygon points="111.42 118.53 77.12 118.53 77.12 230.36 111.42 230.36 111.42 223.26 145.55 223.26 145.55 150.88 111.42 150.88 111.42 118.53" fill="#dddbdb"/><polygon points="240.03 50.38 207.1 50.38 207.1 188.76 239.69 188.76 239.69 215.57 280.37 215.57 280.37 151.23 240.03 151.23 240.03 50.38" fill="#dddbdb"/><rect x="290.83" y="109.36" width="49.88" height="106.21" fill="#dddbdb"/></g><circle cx="292.87" cy="54.71" r="17.11" fill="#ffd200"/><circle cx="292.87" cy="54.71" r="26.74" fill="#ffd200" opacity="0.15"/><polygon points="121.31 259.72 53.14 259.72 53.14 187.95 121.31 167.92 121.31 259.72" fill="#ffd200"/><rect x="119.8" y="68.04" width="68.17" height="191.68" fill="#68e1fd"/><rect x="187.98" y="121.75" width="68.17" height="137.97" fill="#68e1fd"/><rect x="187.98" y="121.75" width="68.17" height="137.97" fill="#fff" opacity="0.12"/><rect x="256.16" y="206.98" width="99.54" height="52.75" fill="#68e1fd"/><rect x="187.98" y="121.75" width="68.17" height="16.15" fill="#fff" opacity="0.44"/><rect x="39.85" y="259.72" width="328.85" height="8.3" rx="4.15" fill="#24285b"/><polygon points="119.8 68.04 187.97 68.04 153.88 20.12 119.8 68.04" fill="#68e1fd"/><polygon points="119.8 68.04 187.97 68.04 153.88 20.12 119.8 68.04" opacity="0.15"/><rect x="63" y="235.95" width="14.13" height="23.77" fill="#fff"/><rect x="146.73" y="235.95" width="14.13" height="23.77" fill="#fff"/><rect x="227.75" y="235.95" width="14.13" height="23.77" fill="#fff"/><rect x="267.79" y="235.95" width="14.13" height="23.77" fill="#fff"/><rect x="65.27" y="196.8" width="43.91" height="6.13" fill="#fff" opacity="0.44"/><rect x="65.27" y="212.12" width="43.91" height="6.13" fill="#fff" opacity="0.44"/><rect x="87.22" y="230.36" width="21.96" height="18.86" fill="#24285b"/><rect x="307.82" y="223.44" width="35.01" height="24.4" fill="#24285b"/><rect x="131.07" y="80.03" width="8.51" height="126.94" fill="#fff" opacity="0.47"/><rect x="150.14" y="80.03" width="8.51" height="126.94" fill="#fff" opacity="0.47"/><rect x="168.52" y="80.03" width="8.51" height="126.94" fill="#fff" opacity="0.47"/><rect x="118.23" y="135.09" width="72" height="14.55" fill="#68e1fd"/><rect x="118.23" y="135.09" width="72" height="14.55" opacity="0.15"/><rect x="198.49" y="149.65" width="12.6" height="16.51" fill="#fff" opacity="0.47"/><rect x="228.52" y="149.65" width="12.6" height="16.51" fill="#fff" opacity="0.47"/><rect x="198.49" y="178.33" width="12.6" height="16.51" fill="#fff" opacity="0.47"/><rect x="228.52" y="178.33" width="12.6" height="16.51" fill="#fff" opacity="0.47"/><rect x="198.49" y="206.92" width="12.6" height="16.51" fill="#fff" opacity="0.47"/><rect x="228.52" y="206.92" width="12.6" height="16.51" fill="#fff" opacity="0.47"/><rect x="198.49" y="106.75" width="28" height="15" fill="#24285b"/><rect x="286.52" y="194.84" width="28" height="12.36" fill="#24285b"/></svg>