<svg id="Layer_1" data-name="Layer 1" xmlns="http://www.w3.org/2000/svg" viewBox="0 0 400 300"><ellipse cx="206.55" cy="245.63" rx="152.81" ry="9.44" fill="#e6e6e6" opacity="0.45"/><path d="M330.66,230.27s-9.68-2.64-11.78-11.65c0,0,15-3,15.41,12.44Z" fill="#68e1fd" opacity="0.58"/><path d="M331.84,229.31s-6.76-10.69-.81-20.68c0,0,11.4,7.24,6.33,20.7Z" fill="#68e1fd" opacity="0.73"/><path d="M333.58,229.32S337.16,218,348,215.89c0,0,2,7.33-7,13.46Z" fill="#68e1fd"/><polygon points="326.57 229.06 328.53 242.48 340.88 242.53 342.7 229.13 326.57 229.06" fill="#24285b"/><polygon points="182.28 179.68 171.28 237.02 224.95 237.02 213.95 179.68 182.28 179.68" fill="#c9c9c9"/><rect x="163.95" y="231.35" width="68" height="11.57" fill="#e6e6e6"/><rect x="96.25" y="58.18" width="209.5" height="136.34" fill="#e6e6e6"/><rect x="96.25" y="58.18" width="209.5" height="120.67" fill="#fff" opacity="0.56"/><circle cx="112.34" cy="61.13" r="4.41" fill="#24285b"/><circle cx="125.45" cy="61.13" r="4.41" fill="#68e1fd"/><circle cx="137.8" cy="61.13" r="4.41" fill="#ffd200"/><polygon points="88.74 245.06 97.93 203.95 128.57 203.95 119.63 245.06 88.74 245.06" fill="#ffd200"/><polygon points="128.57 203.95 137.76 245.06 119.63 245.06 128.57 203.95" fill="#ffd200"/><polygon points="128.57 203.95 137.76 245.06 119.63 245.06 128.57 203.95" opacity="0.09"/><polygon points="96.71 78.44 96.71 96.66 306.21 96.66 306.21 63.47 217.87 44.03 120.08 60.08 105.08 64.27 96.85 76.67 96.71 78.44" opacity="0.03"/><polygon points="101.76 211.1 97.93 228.21 117.46 228.21 120.78 211.1 101.76 211.1" fill="#fff" opacity="0.5"/><polygon points="305.46 46.01 200.88 46.01 199.99 46.01 95.41 46.01 77.37 77.66 199.99 77.66 200.88 77.66 323.5 77.66 305.46 46.01" fill="#68e1fd"/><path d="M104.63,77.66h27.26a0,0,0,0,1,0,0v.11a13.46,13.46,0,0,1-13.46,13.46h-.34a13.46,13.46,0,0,1-13.46-13.46v-.11a0,0,0,0,1,0,0Z" fill="#68e1fd"/><path d="M159.54,77.66H186.8a0,0,0,0,1,0,0v.11a13.46,13.46,0,0,1-13.46,13.46H173a13.46,13.46,0,0,1-13.46-13.46v-.11A0,0,0,0,1,159.54,77.66Z" fill="#68e1fd"/><path d="M214.06,77.66h27.26a0,0,0,0,1,0,0v.11a13.46,13.46,0,0,1-13.46,13.46h-.34a13.46,13.46,0,0,1-13.46-13.46v-.11A0,0,0,0,1,214.06,77.66Z" fill="#68e1fd"/><path d="M269,77.66h27.26a0,0,0,0,1,0,0v.11a13.46,13.46,0,0,1-13.46,13.46h-.34A13.46,13.46,0,0,1,269,77.77v-.11A0,0,0,0,1,269,77.66Z" fill="#68e1fd"/><path d="M186.8,77.66v.11a13.46,13.46,0,0,0,13.46,13.46h.34a13.45,13.45,0,0,0,13.46-13.46V46H186.8Z" fill="#68e1fd"/><path d="M132.28,77.66v.11a13.46,13.46,0,0,0,13.46,13.46h.34a13.45,13.45,0,0,0,13.46-13.46v-.11L162.78,46h-24Z" fill="#68e1fd"/><path d="M77.37,77.66v.11A13.46,13.46,0,0,0,90.83,91.23h.34a13.46,13.46,0,0,0,13.46-13.46v-.11L116.75,46H95.41Z" fill="#68e1fd"/><path d="M262.09,46h-24l3.23,31.66h.4v.11a13.45,13.45,0,0,0,13.46,13.46h.34A13.46,13.46,0,0,0,269,77.77v-.11h-.4Z" fill="#68e1fd"/><path d="M305.46,46H284.12l12.12,31.66v.11A13.45,13.45,0,0,0,309.7,91.23H310A13.46,13.46,0,0,0,323.5,77.77v-.11Z" fill="#68e1fd"/><polyline points="162.78 127.83 200.43 101.79 234.02 127.83" fill="none" stroke="#68e1fd" stroke-miterlimit="10" stroke-width="2"/><g opacity="0.75"><path d="M186.8,77.66v.11a13.46,13.46,0,0,0,13.46,13.46h.34a13.45,13.45,0,0,0,13.46-13.46V46H186.8Z" fill="#fff"/><path d="M132.28,77.66v.11a13.46,13.46,0,0,0,13.46,13.46h.34a13.45,13.45,0,0,0,13.46-13.46v-.11L162.78,46h-24Z" fill="#fff"/><path d="M77.37,77.66v.11A13.46,13.46,0,0,0,90.83,91.23h.34a13.46,13.46,0,0,0,13.46-13.46v-.11L116.75,46H95.41Z" fill="#fff"/><path d="M262.09,46h-24l3.23,31.66h.4v.11a13.45,13.45,0,0,0,13.46,13.46h.34A13.46,13.46,0,0,0,269,77.77v-.11h-.4Z" fill="#fff"/><path d="M305.46,46H284.12l12.12,31.66v.11A13.45,13.45,0,0,0,309.7,91.23H310A13.46,13.46,0,0,0,323.5,77.77v-.11Z" fill="#fff"/></g><rect x="95.41" y="34.3" width="210.35" height="11.71" fill="#68e1fd"/><rect x="151.03" y="124.81" width="100.85" height="48.63" fill="#24285b"/><circle cx="200.43" cy="101.79" r="5.13" fill="#ffd200"/><path d="M175.7,147.27h-3.13a3.19,3.19,0,0,0-.35-1.08,2.82,2.82,0,0,0-.68-.81,3,3,0,0,0-1-.52,3.68,3.68,0,0,0-1.17-.18,3.56,3.56,0,0,0-2,.56,3.68,3.68,0,0,0-1.3,1.63,6.48,6.48,0,0,0-.47,2.59,6.55,6.55,0,0,0,.47,2.63,3.4,3.4,0,0,0,3.26,2.16,3.92,3.92,0,0,0,1.16-.17,3,3,0,0,0,.94-.48,2.59,2.59,0,0,0,.69-.78,2.88,2.88,0,0,0,.39-1h3.13a5.49,5.49,0,0,1-.61,1.94,5.76,5.76,0,0,1-1.29,1.67,6.09,6.09,0,0,1-1.93,1.16,7.18,7.18,0,0,1-2.53.42,6.92,6.92,0,0,1-3.5-.88,6.42,6.42,0,0,1-2.43-2.57,8.65,8.65,0,0,1-.89-4.07,8.53,8.53,0,0,1,.9-4.07,6.37,6.37,0,0,1,2.45-2.56,6.87,6.87,0,0,1,3.47-.89,7.55,7.55,0,0,1,2.37.36,6.19,6.19,0,0,1,1.93,1A5.43,5.43,0,0,1,175,145,6.17,6.17,0,0,1,175.7,147.27Z" fill="#fff"/><path d="M177.92,156.78V142.14H181v12.09h6.28v2.55Z" fill="#fff"/><path d="M202.22,149.46a8.54,8.54,0,0,1-.9,4.08,6.33,6.33,0,0,1-2.46,2.56,7.4,7.4,0,0,1-7,0,6.4,6.4,0,0,1-2.45-2.57,9.65,9.65,0,0,1,0-8.14,6.31,6.31,0,0,1,2.45-2.56,7.33,7.33,0,0,1,7,0,6.33,6.33,0,0,1,2.46,2.56A8.53,8.53,0,0,1,202.22,149.46Zm-3.14,0a6.52,6.52,0,0,0-.46-2.61,3.58,3.58,0,0,0-1.29-1.62,3.77,3.77,0,0,0-3.92,0,3.6,3.6,0,0,0-1.3,1.62,7.66,7.66,0,0,0,0,5.23,3.52,3.52,0,0,0,1.3,1.61,3.49,3.49,0,0,0,5.21-1.61A6.54,6.54,0,0,0,199.08,149.46Z" fill="#fff"/><path d="M212.45,146.35a1.81,1.81,0,0,0-.74-1.34,2.89,2.89,0,0,0-1.76-.48,3.43,3.43,0,0,0-1.28.21,1.83,1.83,0,0,0-.8.58,1.41,1.41,0,0,0-.27.85,1.17,1.17,0,0,0,.16.68,1.65,1.65,0,0,0,.51.51,3.4,3.4,0,0,0,.74.36,5.91,5.91,0,0,0,.9.26l1.32.32a9.08,9.08,0,0,1,1.76.57,5.34,5.34,0,0,1,1.38.88,3.65,3.65,0,0,1,.91,1.23,3.94,3.94,0,0,1,.34,1.62,4.1,4.1,0,0,1-.69,2.33,4.4,4.4,0,0,1-1.94,1.52,7.79,7.79,0,0,1-3.06.54,8,8,0,0,1-3.08-.54,4.42,4.42,0,0,1-2-1.62,4.7,4.7,0,0,1-.77-2.64h3a2.23,2.23,0,0,0,.43,1.22,2.29,2.29,0,0,0,1,.74,4.06,4.06,0,0,0,1.44.24,3.82,3.82,0,0,0,1.37-.22,2.13,2.13,0,0,0,.9-.64,1.49,1.49,0,0,0,.32-.94,1.2,1.2,0,0,0-.29-.83,2.29,2.29,0,0,0-.84-.57,9.59,9.59,0,0,0-1.36-.43l-1.59-.4a6.75,6.75,0,0,1-2.92-1.4,3.27,3.27,0,0,1-1.07-2.58,3.92,3.92,0,0,1,.71-2.33,4.76,4.76,0,0,1,2-1.55,7,7,0,0,1,2.86-.56,6.84,6.84,0,0,1,2.85.56,4.48,4.48,0,0,1,1.89,1.55,4.09,4.09,0,0,1,.71,2.3Z" fill="#fff"/><path d="M217.69,156.78V142.14h9.86v2.56h-6.77v3.48H227v2.56h-6.26v3.49h6.8v2.55Z" fill="#fff"/><path d="M235.21,156.78H230V142.14h5.23a7.82,7.82,0,0,1,3.8.88,6,6,0,0,1,2.46,2.51,9.39,9.39,0,0,1,0,7.85A6,6,0,0,1,239,155.9,7.83,7.83,0,0,1,235.21,156.78Zm-2.1-2.65h2a4.93,4.93,0,0,0,2.31-.49,3.14,3.14,0,0,0,1.42-1.52,6.55,6.55,0,0,0,.47-2.67,6.45,6.45,0,0,0-.47-2.65,3.14,3.14,0,0,0-1.42-1.52,5,5,0,0,0-2.3-.48h-2Z" fill="#fff"/></svg>