<svg id="Layer_1" data-name="Layer 1" xmlns="http://www.w3.org/2000/svg" viewBox="0 0 400 300"><title>_</title><ellipse cx="200" cy="240.19" rx="122.26" ry="6.96" fill="#e6e6e6" opacity="0.45"/><polygon points="234.36 240.01 230.59 237.21 247.06 215.05 247.06 176.88 251.76 176.88 251.76 216.6 234.36 240.01" fill="#a5a5a5"/><rect x="254.82" y="211.69" width="4.7" height="29.76" transform="translate(-83.96 193.42) rotate(-35.83)" fill="#a5a5a5"/><rect x="196.66" y="63.47" width="105.49" height="114.82" fill="#e6e6e6"/><rect x="196.66" y="161.41" width="105.49" height="16.88" fill="#c9c9c9"/><path d="M237.47,88.39s7.61-2.73,6.72,7.94-2.14,38.37-47,49.3V126l18.57-5.5,15.17-9.82,3-16.16Z" opacity="0.08"/><path d="M172.47,87.14A55.61,55.61,0,0,1,193.72,106c9.21,13.62,33.25,9.09,37.66-11.82,0,0,1.8-9.81,5-9.42s0,7.41,0,7.41,4.41.2,4,3.61-5.81,6.61-5.81,6.61-9.42,41.67-55.29,16.43Z" fill="#f4a28c"/><path d="M121.14,233.23s-1.32,3.67-4.64,4-4.19,3.52-1.2,4.37,10.67-3,10.67-3l-.21-4.79Z" fill="#68e1fd"/><path d="M166.72,233.23s1.32,3.67,4.63,4,4.19,3.52,1.21,4.37-10.68-3-10.68-3l.22-4.79Z" fill="#68e1fd"/><path d="M151.39,64.47a30.62,30.62,0,0,1,2,8,2.48,2.48,0,0,1-2.41,2.58,5.48,5.48,0,0,1-5.3-2.75L143,68.58a4.47,4.47,0,0,1,.53-5.13C145.62,60.73,150.43,61.6,151.39,64.47Z" fill="#f4a28c"/><polygon points="144.17 69.52 144.38 85.78 153.34 85.03 149.59 73.5 144.17 69.52" fill="#f4a28c"/><path d="M151.49,64.52a4.53,4.53,0,0,0-6.88-3.09,6.78,6.78,0,0,0-2.28,1.64,3.63,3.63,0,0,0-.6,2.49,12.89,12.89,0,0,0,2,6c.5.79.92,1.27,1.84.76a3.32,3.32,0,0,0,1.54-2,4,4,0,0,0-.24-3l2.42-1.19,1.21-.6c.21-.11.75-.25.89-.44A.84.84,0,0,0,151.49,64.52Z" fill="#24285b"/><path d="M147.54,70s-.58-1.82-1.91-1.27-.52,3.18,1.42,2.88Z" fill="#f4a28c"/><path d="M152.39,67.44l1.86,1.44a.79.79,0,0,1-.12,1.34l-1.72.88Z" fill="#f4a28c"/><path d="M150.06,75s-1.15.11-3.61-1.16c0,0,.55,3.2,4.74,4.54Z" fill="#ce8172" opacity="0.31"/><path d="M161.29,84.21a114.59,114.59,0,0,0-42.93,9.18A16.56,16.56,0,0,0,110,116l23.36,46.59,43.31-2.56s7.88-26.19,6.3-55.81A21.28,21.28,0,0,0,161.29,84.21Z" fill="#68e1fd"/><path d="M129.78,99.58s10.22,7.55,8.24,21-4,24,8.43,20.84,19.17-32.07,19.17-32.07l14.51.36L177.62,142l-8.42.58a9.1,9.1,0,0,0-8.3,7.28l-2.26,11.26-25.28,1.49-3.58-5.31L114,140.21,112,113Z" opacity="0.08"/><rect x="148.21" y="99.98" width="28.13" height="38.52" transform="translate(316.08 249.22) rotate(-176.11)" fill="#ffd200"/><path d="M127.75,193.54l-6.23,39.8,4.24.43,17.35-38.57c.24-.56.49-1.11.74-1.66Z" fill="#f4a28c"/><path d="M159.05,193.54c3.1,19,3,40.23,3,40.23L167,234l6.42-40.31Z" fill="#f4a28c"/><path d="M140.76,200.81l2.35-5.61a67.18,67.18,0,0,1,11.61-18.49c2.71,6.77,4.35,15.51,5.33,24.1H173l3.69-40.74-43.31,2.56-6.94,38.18Z" fill="#24285b"/><path d="M176.42,118.54s-9.64,17.77-29.06,12.75l-.42,6.22L175,139.42Z" opacity="0.08"/><path d="M162.27,129c-4.84-1.85-10,4.2-10,4.2S139,144.45,126.91,144.61c-9,.12,4.45-23.16,3.84-40.86a10.55,10.55,0,0,0-18.88-6.16c-5,6.33-9.54,16.91-9.16,34.29.8,37.08,22.57,47,56.17,6.45C158.88,138.33,167.12,130.86,162.27,129Z" fill="#f4a28c"/><path d="M289,227.39s-9.15-2.5-11.14-11c0,0,14.18-2.87,14.59,11.77Z" fill="#68e1fd" opacity="0.58"/><path d="M290.09,226.48s-6.4-10.11-.77-19.57c0,0,10.78,6.85,6,19.59Z" fill="#68e1fd" opacity="0.73"/><path d="M291.73,226.49s3.38-10.68,13.6-12.7c0,0,1.91,6.93-6.62,12.73Z" fill="#68e1fd"/><polygon points="285.1 226.25 286.95 238.94 298.64 238.99 300.36 226.31 285.1 226.25" fill="#24285b"/><path d="M156.71,93.78a2.17,2.17,0,1,0-2.15,2.39v1.91h2.17v-4.3Z" fill="#24285b"/><path d="M155.74,84.27c-.25-.65-1.28-.37-1,.28a9.37,9.37,0,0,1,.41,5.24,6.85,6.85,0,0,1-.94,2.48c-.53.73-1.63.4-2.35.17a11.22,11.22,0,0,1-4.08-2.69,14.14,14.14,0,0,1-3.42-4.13c-.29-.63-1.22-.08-.93.54A13.28,13.28,0,0,0,146.46,90,16.55,16.55,0,0,0,150,92.83c1.16.63,2.93,1.35,4.22.75A2.82,2.82,0,0,0,155.5,92a10.07,10.07,0,0,0,.72-2.34A10.44,10.44,0,0,0,155.74,84.27Z" fill="#24285b"/><rect x="238.01" y="71.1" width="22.8" height="9.9" opacity="0.08"/><circle cx="275.6" cy="117.92" r="4.39" opacity="0.08"/><circle cx="241.96" cy="132.99" r="4.39" opacity="0.08"/><circle cx="269.58" cy="142.77" r="4.39" opacity="0.08"/><path d="M268.83,103.91c.88-.86,1.78-1.69,2.71-2.5A1.07,1.07,0,0,0,270,99.89c-.93.81-1.83,1.65-2.71,2.5-.89-.85-1.79-1.69-2.72-2.5a1.07,1.07,0,0,0-1.52,1.52c.93.81,1.83,1.64,2.71,2.5-.93,1-1.84,1.92-2.72,2.92a1.11,1.11,0,0,0,0,1.52,1.1,1.1,0,0,0,1.53,0c.87-1,1.78-2,2.72-2.93.93,1,1.84,1.93,2.72,2.93a1.08,1.08,0,0,0,1.52,0,1.1,1.1,0,0,0,0-1.52C270.67,105.83,269.76,104.86,268.83,103.91Z" opacity="0.08"/><path d="M251.64,87.87c.88-.86,1.78-1.7,2.71-2.51a1.08,1.08,0,0,0,0-1.52,1.1,1.1,0,0,0-1.52,0c-.93.81-1.83,1.65-2.72,2.51-.88-.86-1.78-1.7-2.71-2.51a1.1,1.1,0,0,0-1.52,0,1.08,1.08,0,0,0,0,1.52c.93.81,1.82,1.65,2.71,2.51-.93.95-1.84,1.92-2.72,2.92a1.1,1.1,0,0,0,0,1.52,1.08,1.08,0,0,0,1.52,0c.88-1,1.79-2,2.72-2.93.93,1,1.85,1.93,2.72,2.93a1.07,1.07,0,1,0,1.52-1.52C253.48,89.79,252.57,88.82,251.64,87.87Z" opacity="0.08"/><path d="M249.31,117.71c.88-.86,1.78-1.7,2.7-2.51a1.07,1.07,0,0,0,0-1.52,1.1,1.1,0,0,0-1.52,0c-.92.81-1.82,1.65-2.71,2.51-.89-.86-1.79-1.7-2.71-2.51a1.1,1.1,0,0,0-1.52,0,1.07,1.07,0,0,0,0,1.52c.92.81,1.82,1.65,2.71,2.51-.93,1-1.84,1.92-2.72,2.92a1.1,1.1,0,0,0,0,1.52,1.08,1.08,0,0,0,1.52,0c.88-1,1.79-2,2.72-2.93.93,1,1.84,1.93,2.72,2.93a1.08,1.08,0,0,0,1.52,0,1.1,1.1,0,0,0,0-1.52C251.14,119.63,250.23,118.66,249.31,117.71Z" opacity="0.08"/><path d="M293.81,121.29l-2.64-3.12a1,1,0,0,0-.27-.31l0-.06a1.08,1.08,0,0,0-.76-.31,1.11,1.11,0,0,0-.76.31,1.08,1.08,0,0,0-.29.7,25,25,0,0,1-1.93,2.18,1,1,0,0,0-.47.4l-.18.32a1.08,1.08,0,0,0,1.69,1.3c.39-.38.75-.78,1.11-1.18a38.39,38.39,0,0,1-7.86,25.37c-.84,1.08.67,2.61,1.52,1.52a40.6,40.6,0,0,0,8.5-26.62l.86,1a1.09,1.09,0,0,0,.76.32,1.07,1.07,0,0,0,.76-.32A1.1,1.1,0,0,0,293.81,121.29Z" opacity="0.08"/><path d="M233.39,151.43c-1.91-.31-3.1-1.89-4.14-3.38a47.7,47.7,0,0,1-3.34-5.59A46.54,46.54,0,0,1,222.16,132c.79.49,1.6,1,2.44,1.38a1.1,1.1,0,0,0,1.47-.39,1.08,1.08,0,0,0-.39-1.47,31.08,31.08,0,0,1-4.11-2.47,1.08,1.08,0,0,0-1.43.33,1,1,0,0,0-.32.34l-2.37,4.51a1.08,1.08,0,1,0,1.86,1.08l1-1.85a48.73,48.73,0,0,0,4.13,10.76,42.22,42.22,0,0,0,3.7,5.89c1.2,1.58,2.67,3,4.7,3.38C234.17,153.72,234.75,151.65,233.39,151.43Z" opacity="0.08"/><path d="M226.9,92.67a12,12,0,0,0-2.17-5,1.23,1.23,0,0,0-1.35-.82A23.26,23.26,0,0,0,218,88.48a1.08,1.08,0,0,0,1.09,1.86,20.12,20.12,0,0,1,2.25-.81c-1,1.64-2,3.33-2.82,5.06-1.22,2.49-2.53,5.12-2,8,.24,1.36,2.31.79,2.08-.57-.42-2.39,1.13-5,2.18-7a57,57,0,0,1,2.92-5,10.72,10.72,0,0,1,.5,1,1.17,1.17,0,0,0,.05.11v0l.12.31.21.63a11.36,11.36,0,0,1,.31,1.28,1.07,1.07,0,0,0,1.32.75A1.09,1.09,0,0,0,226.9,92.67Z" opacity="0.08"/><path d="M274.52,89.93l3.19.12A1.08,1.08,0,0,0,278.78,89a1.09,1.09,0,0,0-1.07-1.07l-6-.22a1.1,1.1,0,0,0-.57,0H271a1.08,1.08,0,0,0-1.07,1.08,1,1,0,0,0,.15.5,9.72,9.72,0,0,0-.48,4.68c.18,1.36,2.26.78,2.07-.58a7,7,0,0,1,.25-2.91,22.22,22.22,0,0,1,7.92,17.76c-.06,1.38,2.09,1.38,2.15,0A24.35,24.35,0,0,0,274.52,89.93Z" opacity="0.08"/></svg>