<svg id="Layer_1" data-name="Layer 1" xmlns="http://www.w3.org/2000/svg" viewBox="0 0 400 300"><ellipse cx="119.35" cy="238.36" rx="71.55" ry="5.41" fill="#e6e6e6" opacity="0.45"/><ellipse cx="291.77" cy="238.36" rx="68.55" ry="5.41" fill="#e6e6e6" opacity="0.45"/><path d="M324.62,107.93s-16.87-3.73-26.24,1.19S277.25,138.9,238,138.07l1.33,8.34s50.44,1.68,71.87-17.83S324.62,107.93,324.62,107.93Z" fill="#ffd200"/><path d="M324.62,107.93s-16.87-3.73-26.24,1.19S277.25,138.9,238,138.07l1.33,8.34s50.44,1.68,71.87-17.83S324.62,107.93,324.62,107.93Z" fill="#fff" opacity="0.44"/><polygon points="322.95 89.73 322.79 106.64 313.53 105.88 317.37 93.89 322.95 89.73" fill="#f4a28c"/><path d="M316.41,96.48a6.05,6.05,0,0,0,3.26-1.28s-.64,3-4.47,5.48Z" fill="#ce8172" opacity="0.31"/><path d="M313.78,87.52a32.31,32.31,0,0,0-.52,8.55,2.57,2.57,0,0,0,2.92,2.2,5.68,5.68,0,0,0,4.89-3.78l2-4.31A4.66,4.66,0,0,0,321.61,85C319,82.64,314.23,84.41,313.78,87.52Z" fill="#f4a28c"/><path d="M313.31,90.74l-1.64,1.82A.83.83,0,0,0,312,93.9l1.91.59Z" fill="#f4a28c"/><path d="M103.26,106.64s11.5,4.42,11.09,18.6,4.23,24.11,13.9,24.51A53.83,53.83,0,0,0,145,148l2.42,6.89S119,167,105.89,151,103.26,106.64,103.26,106.64Z" fill="#68e1fd"/><path d="M103.26,106.64s11.5,4.42,11.09,18.6,4.23,24.11,13.9,24.51A53.83,53.83,0,0,0,145,148l2.42,6.89S119,167,105.89,151,103.26,106.64,103.26,106.64Z" fill="#fff" opacity="0.44"/><polygon points="82.98 86.9 83.13 103.8 92.39 103.05 88.56 91.05 82.98 86.9" fill="#f4a28c"/><path d="M89.51,93.64a6.09,6.09,0,0,1-3.26-1.27s.64,3,4.48,5.47Z" fill="#ce8172" opacity="0.31"/><path d="M313.53,86.45s.89,4.92,5.58,5l3.78,4.8L325,88.43s3.92-1.73,2.49-4.51-2.91-.5-4.17-3.85-3.76-3.11-4-1.89-1.89,1.29-2.72-.16c-.69-1.2-3.71.66-3.35,3a1.25,1.25,0,0,1-1,1.45,1.66,1.66,0,0,0-1.47,2A2,2,0,0,0,313.53,86.45Z" fill="#24285b"/><path d="M318.72,92.51s.25-2,1.71-1.65,1.11,3.16-.93,3.2Z" fill="#f4a28c"/><path d="M313.53,105.88l9.26.76s14.19-2.22,20.82,8.47c13.29,21.47-18.43,54.29-18.43,54.29S294.36,173,284.69,163c0,0,7.55-22.18,6.35-35.35S291,103.27,313.53,105.88Z" fill="#ffd200"/><path d="M92.15,84.68a32.36,32.36,0,0,1,.52,8.56,2.59,2.59,0,0,1-2.93,2.2,5.7,5.7,0,0,1-4.89-3.79l-2-4.31a4.66,4.66,0,0,1,1.48-5.14C87,79.8,91.69,81.57,92.15,84.68Z" fill="#f4a28c"/><path d="M90.91,85a20.54,20.54,0,0,1-4.75.15,4.33,4.33,0,0,1,.52,4.7,3.48,3.48,0,0,1-4,1.85L82,85.14a5.27,5.27,0,0,1,2.12-5,18.14,18.14,0,0,1,2.07-1.31c1.8-1,4.7,0,6.26-1.48a1.22,1.22,0,0,1,2,.59c.52,2,.51,5.17-2.07,6.56A4.78,4.78,0,0,1,90.91,85Z" fill="#24285b"/><path d="M87.21,89.67S87,87.7,85.5,88s-1.11,3.16.92,3.21Z" fill="#f4a28c"/><path d="M92.61,87.9l1.64,1.82a.83.83,0,0,1-.37,1.35L92,91.65Z" fill="#f4a28c"/><path d="M145.56,149.63s4.85-7.65,9.08-5.22c7.55,4.33-7.25,10.43-7.25,10.43Z" fill="#f4a28c"/><path d="M238.31,140.3s-11.23.75-9.69,5.47,10.66.64,10.66.64Z" fill="#f4a28c"/><path d="M326.73,115.93s-6.89,8.91-5.48,17.21,10.67,15.43-1.61,14.91-30.48-1.46-30.48-1.46l-1.37,5.79s18.72.34,23.67,5.24a8.71,8.71,0,0,1,2.07,10.21l11.65,1.57s7.65-8.46,10.32-12.94,10.33-12.29,10.33-12.29Z" opacity="0.08"/><path d="M50.36,127.45c-5.79-15.54,7.93-31.32,24-27.61l1.07.24,11.14,2.33s26.55,1,25.75,18.57,2,42,2,42l-32.29,9.21S58.61,149.56,50.36,127.45Z" fill="#68e1fd"/><path d="M47.8,214l8.34-23.5c4.28-12.08,3.29-34.25,28.65-42.55a28.33,28.33,0,0,1,8.76-1.32H343.08c18.28,0,33.11,15.37,32.88,34.21,0,.25,0,.5,0,.75-.59,25.32-4.33,38.69-4.33,38.69" fill="none" stroke="#24285b" stroke-linecap="round" stroke-linejoin="round" stroke-width="2"/><path d="M75.88,107.38s11.68,11-1.21,24.77,3,19.59,3,19.59,12.88-8.93,18.52-8.4,2.66,3.25,2.66,3.25h14l.38,5.15S83.2,152,82.06,172.23L69.64,158.54,49,143.93,50.3,130.1Z" opacity="0.08"/><path d="M86.29,141.48s2.73-4.45,9.38-2,4.56,12.38-4.69,6.84Z" fill="#f4a28c"/><path d="M77.14,111.53C76,102,65,97.37,57.12,102.69c-13.6,9.16-33.86,27-25.59,48.38,12.09,31.17,60.2-4.48,60.2-4.48L87,137.68s-25.8,12.69-34.58,4.72C45.31,136,79.45,129.92,77.14,111.53Z" fill="#68e1fd"/><path d="M77.14,111.53C76,102,65,97.37,57.12,102.69c-13.6,9.16-33.86,27-25.59,48.38,12.09,31.17,60.2-4.48,60.2-4.48L87,137.68s-25.8,12.69-34.58,4.72C45.31,136,79.45,129.92,77.14,111.53Z" fill="#fff" opacity="0.44"/><path d="M82.06,172.23l5.46,16.25a24.46,24.46,0,0,1-3.91,22.89L69.84,229l5.61,3.64,17.8-16a34.89,34.89,0,0,0,10.69-33.41h0a2.52,2.52,0,0,1,4-2.54c11,8.65,35,29.6,39.43,50.54h7.25s-10.28-48.6-40.29-68.15Z" fill="#24285b"/><path d="M71.71,230.16,69.47,232a1.81,1.81,0,0,0-.16,2.67L72,237.39a3.19,3.19,0,0,0,2.29,1h3.93a.92.92,0,0,0,.53-1.67l-2-1.46a3,3,0,0,1-1.24-2.64h0Z" fill="#68e1fd"/><path d="M149.2,231.17l.46,4a2.68,2.68,0,0,0,3.41,2.26l7.91-2.37a1.81,1.81,0,0,0,.16-3.41C157.94,230.41,153.38,229.35,149.2,231.17Z" fill="#68e1fd"/><path d="M254.16,231.17l-.46,4a2.67,2.67,0,0,1-3.4,2.26l-7.92-2.37a1.81,1.81,0,0,1-.15-3.41C245.42,230.41,250,229.35,254.16,231.17Z" fill="#ffd200"/><path d="M327.51,231.17l.46,4a2.67,2.67,0,0,0,3.4,2.26l7.91-2.37a1.81,1.81,0,0,0,.16-3.41C336.25,230.41,331.69,229.35,327.51,231.17Z" fill="#ffd200"/><path d="M327.79,113a8.27,8.27,0,0,1,11-3.47A25.57,25.57,0,0,1,351.06,122c5.24,11.95,13.9,32.81,0,35.24s-39.6-7.85-39.6-7.85l1.67-5.46s23.23,6.78,25.24-.59C340.11,137,321.44,124.9,327.79,113Z" fill="#ffd200"/><path d="M327.79,113a8.27,8.27,0,0,1,11-3.47A25.57,25.57,0,0,1,351.06,122c5.24,11.95,13.9,32.81,0,35.24s-39.6-7.85-39.6-7.85l1.67-5.46s23.23,6.78,25.24-.59C340.11,137,321.44,124.9,327.79,113Z" fill="#fff" opacity="0.44"/><path d="M312.88,144.75s-3.41-3.71-5.23-2.19-1.31,2.73-1.31,2.73-3.32,1.62-1,3.65,6.12.45,6.12.45Z" fill="#f4a28c"/><path d="M284.69,163,247.63,229l7.85,3s28.61-41.13,43.71-47.15c8.32-3.31,17.37.59,23.83,4.76a16,16,0,0,1,7,16.41l-4.57,26,8.46-1.82,9.1-18.79A27.59,27.59,0,0,0,337,179a123.11,123.11,0,0,0-11.77-9.58S296.47,165.76,284.69,163Z" fill="#24285b"/></svg>