<svg id="Layer_1" data-name="Layer 1" xmlns="http://www.w3.org/2000/svg" viewBox="0 0 400 300"><title>_</title><rect x="35.64" y="64.53" width="328.71" height="145.62" fill="#e6e6e6"/><rect x="308.21" y="144.02" width="40.12" height="66.13" fill="#24285b"/><rect x="304.83" y="139.4" width="46.46" height="4.62" fill="#24285b"/><path d="M325.12,128.45a1.48,1.48,0,0,0-2.1,0l-1.81,1.82a1.47,1.47,0,0,0-.29,1.67,6.26,6.26,0,0,0-1.54,4.12v3.34h.81v-3.34a5.46,5.46,0,0,1,1.26-3.5,1.47,1.47,0,0,0,1.85-.2l1.82-1.81A1.48,1.48,0,0,0,325.12,128.45Z" fill="#24285b"/><path d="M330.92,128.45a1.48,1.48,0,0,0-2.1,0L327,130.27a1.47,1.47,0,0,0-.3,1.67,6.25,6.25,0,0,0-1.53,4.12v3.34H326v-3.34a5.45,5.45,0,0,1,1.25-3.5,1.49,1.49,0,0,0,1.86-.2l1.82-1.81A1.48,1.48,0,0,0,330.92,128.45Z" fill="#24285b"/><path d="M336.71,128.45a1.47,1.47,0,0,0-2.09,0l-1.82,1.82a1.49,1.49,0,0,0-.29,1.67,6.25,6.25,0,0,0-1.53,4.12v3.34h.81v-3.34a5.45,5.45,0,0,1,1.25-3.5,1.49,1.49,0,0,0,1.86-.2l1.81-1.81A1.48,1.48,0,0,0,336.71,128.45Z" fill="#24285b"/><rect x="47.49" y="79.39" width="56.85" height="7.15" fill="#fff" opacity="0.46"/><rect x="47.49" y="91.05" width="80.26" height="3.57" fill="#fff" opacity="0.46"/><rect x="47.49" y="99.13" width="58.66" height="3.57" fill="#fff" opacity="0.46"/><rect x="159.17" y="79.39" width="42.96" height="7.15" fill="#fff" opacity="0.46"/><rect x="159.17" y="91.05" width="76.72" height="3.57" fill="#fff" opacity="0.46"/><rect x="159.17" y="99.13" width="56.08" height="3.57" fill="#fff" opacity="0.46"/><rect x="35.64" y="210.15" width="328.71" height="25.33" fill="#c9c9c9"/><circle cx="162.37" cy="139.86" r="11.95" fill="#c1c1c1" opacity="0.45"/><rect x="188.97" y="129.71" width="33.67" height="46.78" fill="#c1c1c1" opacity="0.45"/><rect x="152.47" y="160.81" width="23.13" height="15.68" fill="#c1c1c1"/><circle cx="67.7" cy="154.54" r="15.91" fill="#c1c1c1" opacity="0.43"/><rect x="65.79" y="130.18" width="27.65" height="27.65" fill="#c1c1c1" opacity="0.43"/><rect x="102.46" y="130.18" width="20.62" height="45.82" fill="#c1c1c1" opacity="0.43"/><path d="M277.74,205.26s.86,2.62,3,2.82,2.73,2.51.78,3.11-7-2.13-7-2.13l.14-3.41Z" fill="#68e1fd"/><path d="M248,205.26s-.86,2.62-3,2.82-2.73,2.51-.78,3.11,7-2.13,7-2.13l-.14-3.41Z" fill="#68e1fd"/><path d="M269.76,154.92l8.45,50.81H274L263.4,178.15A46.71,46.71,0,0,0,244.6,155l-3.1-1.93Z" fill="#24285b"/><path d="M241.5,153.09l4.36,52.64h5.61s-1.31-39.61,8.82-48Z" fill="#24285b"/><path d="M240.13,109s-21.72,23.53-36.81,30.71l2.86,7.23s36.58-12.57,43.47-22.35S240.13,109,240.13,109Z" fill="#68e1fd"/><path d="M240.13,109s-21.72,23.53-36.81,30.71l2.86,7.23s36.58-12.57,43.47-22.35S240.13,109,240.13,109Z" fill="#fff" opacity="0.46"/><path d="M259.91,87.84a25.14,25.14,0,0,0-.46,6.64,2,2,0,0,0,2.27,1.73,4.43,4.43,0,0,0,3.84-2.91L267.17,90A3.62,3.62,0,0,0,266,86C264,84.09,260.29,85.43,259.91,87.84Z" fill="#f4a28c"/><polygon points="266.88 90.57 267.4 103.68 260.15 103.45 262.68 94 266.88 90.57" fill="#f4a28c"/><path d="M260.88,88.13a16.13,16.13,0,0,0,3.7.15,3.33,3.33,0,0,0-.43,3.64,2.71,2.71,0,0,0,3.13,1.46l.54-5.11a4.08,4.08,0,0,0-1.62-3.86,16.44,16.44,0,0,0-1.61-1c-1.4-.76-3.67,0-4.87-1.18a1,1,0,0,0-1.6.44c-.41,1.53-.42,4,1.58,5.11A3.73,3.73,0,0,0,260.88,88.13Z" fill="#24285b"/><path d="M263.74,91.75s.21-1.53,1.34-1.27.85,2.46-.74,2.48Z" fill="#f4a28c"/><path d="M259.53,90.34l-1.29,1.4a.64.64,0,0,0,.28,1.05l1.48.46Z" fill="#f4a28c"/><path d="M262,96.05a4.72,4.72,0,0,0,2.49-1.11,7.47,7.47,0,0,1-3.28,4.41Z" fill="#ce8172" opacity="0.31"/><path d="M241.5,153.58l12.19.9,16.07,1.2h0c.34-.5,14.08-20.31,13.8-35.45-.15-8-4.2-14.67-16.17-16.53l-4.93-.16a30.69,30.69,0,0,1-3.59-.32c-3.81-.57-15.24-1.28-21.44,9.53C229.91,125.84,241.5,153.58,241.5,153.58Z" fill="#68e1fd"/><path d="M253.42,154.62l16.34,1.06h0c.34-.5,14.08-20.31,13.8-35.45-9.22-4.3-24.2-5.74-24.2-5.74s-3.06,3.14.57,7.48c4.46,5.33,6,12.63,3.37,19-1.72,4.15-4.17,10.72-9.62,13.47Z" opacity="0.08"/><path d="M260.64,109.25a11.3,11.3,0,0,1,12.86-3.76c8.52,3,23.11,10.24,24.68,24.54,2.23,20.33-30.26,24.79-30.26,24.79l-1.05-5.17s33.65-18.82,1.05-28.3C267.92,121.35,254.88,117,260.64,109.25Z" fill="#68e1fd"/><path d="M260.64,109.25a11.3,11.3,0,0,1,12.86-3.76c8.52,3,23.11,10.24,24.68,24.54,2.23,20.33-30.26,24.79-30.26,24.79l-1.05-5.17s33.65-18.82,1.05-28.3C267.92,121.35,254.88,117,260.64,109.25Z" fill="#fff" opacity="0.46"/><path d="M266.82,150.4s-5.56.1-4.59,3.59,5.69.83,5.69.83Z" fill="#f4a28c"/><path d="M203.78,140.93c-.05-.14-5.46-.73-5.8-.36-.77.82,1.2,1.15,1.2,1.15s-2.93,0-3.35.53.18,2,2.76,2.9,6.95.23,6.95.23Z" fill="#f4a28c"/><path d="M257.44,103.8a1.11,1.11,0,0,0,.5.84,2.49,2.49,0,0,0,1.25.36c.59,0,1.78-.21,1.68-1s-1.62-.88-2.2-.91a1.54,1.54,0,0,0-.88.12A.66.66,0,0,0,257.44,103.8Z" fill="#ffd200"/><path d="M258.14,104.32s-7.49,11.41-10,17.92L251,128l4.42-4.79s3.23-16.6,3.79-18.64Z" fill="#ffd200"/></svg>