<svg id="Layer_1" data-name="Layer 1" xmlns="http://www.w3.org/2000/svg" viewBox="0 0 400 300"><ellipse cx="197.5" cy="236.31" rx="134.14" ry="14.96" fill="#e6e6e6" opacity="0.3"/><rect x="109.26" y="142.23" width="18.09" height="90.22" fill="#c1c1c1"/><rect x="266.01" y="142.23" width="18.09" height="90.22" fill="#c1c1c1"/><rect x="82.23" y="106.3" width="226.32" height="58.7" rx="8.6" fill="#e6e6e6"/><path d="M148.13,78a19.26,19.26,0,0,1,18.74,3.91c8.92,7.74,14.49,24.3,25.87,24.85s26.73,7,26.73,7l-4.94,15.13-28.87.69S154.41,129.89,148.13,78Z" fill="#f4a28c"/><path d="M148.13,78a19.26,19.26,0,0,1,18.74,3.91c8.92,7.74,14.49,24.3,25.87,24.85s26.73,7,26.73,7l-4.94,15.13-28.87.69S154.41,129.89,148.13,78Z" opacity="0.09"/><path d="M150.78,79.6s40,6.48,35.13,34.15c-3.56,20-14,18.62-13.48,33.9l.24,9.71-41.8-6.44s1.91-14-3.42-27.65S107.51,76,150.78,79.6Z" fill="#68e1fd"/><path d="M221.36,78s-20.23,6-35.7,26.69l14.61,13.92S239.86,100.68,221.36,78Z" fill="#68e1fd"/><path d="M221.36,78s-20.23,6-35.7,26.69l14.61,13.92S239.86,100.68,221.36,78Z" fill="#fff" opacity="0.44"/><path d="M122.8,106.3H104.26s17,30.54,12.18,44.62,1.86,47.21,1.86,47.21h24.55L153,169.72Z" opacity="0.09"/><rect x="82.23" y="179.57" width="226.32" height="18.55" rx="4.68" fill="#e6e6e6"/><path d="M205.63,99.71A22,22,0,0,1,227.1,77.09c15.14-.31,38.32,1.61,47.25,15.06,13.74,20.7-8.87,58.26-8.87,58.26H224.59S206.42,122.81,205.63,99.71Z" fill="#68e1fd"/><polygon points="235.53 55.84 241.71 77.61 228.78 82.93 229.25 64.14 235.53 55.84" fill="#f4a28c"/><path d="M229,68.25a9.08,9.08,0,0,0,4.15-3.2s.35,4.6-4.14,9.72Z" fill="#ce8172" opacity="0.31"/><path d="M221.41,56.55s.69,7.66,2.85,12.46a3.86,3.86,0,0,0,5.13,1.91c2.4-1.12,5.31-3.34,5.45-7.49l1.09-7a6.93,6.93,0,0,0-4.29-6.74C226.82,47.37,220.76,51.9,221.41,56.55Z" fill="#f4a28c"/><path d="M223.35,56.53a30,30,0,0,0,6.88-1.78,6.41,6.41,0,0,0,1.23,6.93,5.22,5.22,0,0,0,6.58,1l-1.85-9.7a7.85,7.85,0,0,0-5.13-6.19,28.23,28.23,0,0,0-3.53-1c-3-.63-6.78,2-9.62.53A1.86,1.86,0,0,0,215.22,48c.09,3,1.45,7.6,5.74,8.51A7.36,7.36,0,0,0,223.35,56.53Z" fill="#24285b"/><path d="M230.61,61.6s-.46-2.92,1.77-3.09,2.93,4.06,0,5Z" fill="#f4a28c"/><path d="M130.87,150.92s-19.48,23.67-1.91,30.63,60.2,6.34,48.58-20.44l-5.8-4.35Z" fill="#24285b"/><path d="M255,92.13s-10.9,6.05-5.33,20.66,15.82,28-2.44,28-.44,9.28-.44,9.28l18.7.31,3.38-6.3,4.09-9.23,2.1-13.61Z" opacity="0.09"/><path d="M285.31,127.11s14.26,28,4.17,33.57c-8.06,4.46-19.82-27.31-19.82-27.31Z" fill="#f4a28c"/><path d="M285.31,127.11s14.26,28,4.17,33.57c-8.06,4.46-19.82-27.31-19.82-27.31Z" opacity="0.09"/><path d="M222.48,179.57H277s2.44-15.65-11.54-29.16H224.59S196.93,158.47,222.48,179.57Z" fill="#24285b"/><path d="M222.09,61.36l-1.59,3.29a1.23,1.23,0,0,0,1.1,1.77l3,0Z" fill="#f4a28c"/><polygon points="191.57 179.57 199.5 198.13 217.3 198.13 205.97 179.57 191.57 179.57" opacity="0.09"/><polygon points="247.22 179.57 255.16 198.13 272.95 198.13 261.62 179.57 247.22 179.57" opacity="0.09"/><path d="M301.83,137.2h0a.87.87,0,0,1-.87.87H251.7a5.15,5.15,0,0,1-4.87-3.56A23.17,23.17,0,0,0,225,118.45a22.3,22.3,0,0,0-7.29,1.22,10.15,10.15,0,0,1-9.69-1.8,29.44,29.44,0,0,0-18.58-6.61c-16.63,0-30.1,13.86-30.1,31s13.47,31,30.1,31A29.44,29.44,0,0,0,208,166.59a10.1,10.1,0,0,1,9.69-1.8A22.3,22.3,0,0,0,225,166a23.17,23.17,0,0,0,21.8-15.91,5.14,5.14,0,0,1,4.86-3.51H301a.87.87,0,0,1,.87.87v.08a1.19,1.19,0,0,0,1.19,1.19h15.2a3.6,3.6,0,0,0,3.61-3.61v-5.5a3.6,3.6,0,0,0-3.61-3.61H303A1.19,1.19,0,0,0,301.83,137.2Z" fill="#ffd200"/><path d="M280.62,146.59s.69,6.09,8.34,3.82S292.62,139.11,280.62,146.59Z" fill="#f4a28c"/><path d="M272.5,88.77c6.06,5.81,11.14,14.9,15.77,37.47l-18.61,7.13s-19.34-23.14-15.24-39.55A10.84,10.84,0,0,1,272.5,88.77Z" fill="#68e1fd"/><circle cx="193.79" cy="141.38" r="11.83" fill="#24285b"/><path d="M272.5,88.77c6.06,5.81,11.14,14.9,15.77,37.47l-18.61,7.13s-19.34-23.14-15.24-39.55A10.84,10.84,0,0,1,272.5,88.77Z" fill="#fff" opacity="0.44"/><path d="M187.36,106.3s-17.88,14.9-11.44,27.07,28.52,24.52,37.91,23.31,7-9.4,2.61-10.09-8.7,2.09-8.7,2.09-27.09-19.5-4.76-34.1Z" fill="#f4a28c"/><polygon points="185.66 104.67 200.26 118.59 208.03 114.29 185.66 104.67" fill="#68e1fd"/><polygon points="185.66 104.67 200.26 118.59 208.03 114.29 185.66 104.67" fill="#fff" opacity="0.44"/><path d="M217.74,166.65A11.17,11.17,0,0,0,204,162.27c-2.95,1.31-5.24,3.92-4.22,9,2.37,12,25.61,50.72,25.61,50.72l6.44-1.19S228.55,183.59,217.74,166.65Z" fill="#f4a28c"/><path d="M270.21,166.65a11.17,11.17,0,0,0-13.77-4.38c-2.95,1.31-5.24,3.92-4.23,9,2.38,12,26.57,50.54,26.57,50.54l6.44-1.67S281,183.59,270.21,166.65Z" fill="#f4a28c"/><rect x="228.97" y="133.37" width="6.97" height="14.9" fill="#fff" opacity="0.44"/><polygon points="141.5 55.68 139.65 79.83 153.03 79.9 149.01 62.3 141.5 55.68" fill="#f4a28c"/><path d="M150.05,66.12a8.77,8.77,0,0,1-4.52-2.22s.55,4.4,5.76,8.36Z" fill="#ce8172" opacity="0.31"/><path d="M154.94,53.65s.82,7.35-.31,12.28a3.69,3.69,0,0,1-4.46,2.78c-2.48-.6-5.65-2.13-6.56-6l-2.37-6.4A6.63,6.63,0,0,1,144,49.14C148.09,46,154.67,49.15,154.94,53.65Z" fill="#f4a28c"/><path d="M147.24,60.17s-.13-2.84-2.26-2.57-2,4.38.94,4.69Z" fill="#f4a28c"/><path d="M155.22,58.31l2.12,2.8a1.18,1.18,0,0,1-.69,1.87l-2.82.6Z" fill="#f4a28c"/><path d="M145,57.6s8.89,21.8,1.76,25.95-19.8,3.28-21.47-6,7.43-11.61,7.51-24.63,25.07-12.09,25.33-4.61S145,57.6,145,57.6Z" fill="#ffd200"/><path d="M225.43,221.91s-.62,5.19-4.86,6.56-4.39,5.86-.25,6.06,13-7.12,13-7.12l-1.69-8Z" fill="#68e1fd"/><path d="M156.91,171a11.14,11.14,0,0,1,13.77-4.38c2.95,1.31,5.24,3.91,4.23,9-2.38,12-25.61,50.72-25.61,50.72l-6.45-1.18S146.1,187.93,156.91,171Z" fill="#f4a28c"/><path d="M149.22,226.26s.62,5.18,4.86,6.55,4.4,5.86.25,6.06-13-7.12-13-7.12l1.69-8Z" fill="#68e1fd"/><path d="M151.74,168a11.15,11.15,0,0,1,14.44-.27c2.46,2.1,3.91,5.25,1.47,9.88-5.69,10.79-39,41.3-39,41.3l-5.84-3S136.55,181.13,151.74,168Z" fill="#f4a28c"/><path d="M128.6,218.75s-.89,5.15,2.79,7.67,2.54,6.87-1.49,5.88-10.45-10.54-10.45-10.54l3.91-7.23Z" fill="#68e1fd"/><path d="M142.14,91.22s17.2,18.12,11.69,43.37l8.13,6.23.38,15-31.47-4.85a46.94,46.94,0,0,0-1.11-20C126.76,120.21,142.14,91.22,142.14,91.22Z" opacity="0.09"/><path d="M278.82,221.91s-.61,5.19-4.85,6.56-4.4,5.86-.26,6.06,13-7.12,13-7.12l-1.69-8Z" fill="#68e1fd"/><path d="M135.29,83.14a8.47,8.47,0,0,0-10.56,2.14c-3.57,4.29-7.91,12.72-2.85,25.3,7.7,19.13,14,44,29.62,39.83s30.43-59,30.43-59,3.31-11.28-1.74-13.29-5.91,13.29-5.91,13.29-17.61,39.83-21.85,40.18C148.72,131.93,149.51,91.14,135.29,83.14Z" fill="#f4a28c"/></svg>