<svg id="Layer_1" data-name="Layer 1" xmlns="http://www.w3.org/2000/svg" viewBox="0 0 400 300"><ellipse cx="201.46" cy="251.33" rx="132.04" ry="16.77" fill="#e6e6e6" opacity="0.3"/><polygon points="155.98 175.67 177.59 244.96 182.61 244.96 177.92 173.55 155.98 175.67" fill="#f4a28c"/><path d="M138.58,167.24l4.34,28.27-18.76-14.75-3.6,4.2S139,215.15,153.9,211.69s5.55-49.33,5.55-49.33Z" fill="#f4a28c"/><path d="M178.57,124.36s-1.46,14.55,28.21,16.35A161.66,161.66,0,0,0,261,134.45l-51.51-23.51Z" fill="#68e1fd"/><path d="M178.57,124.36s-1.46,14.55,28.21,16.35A161.66,161.66,0,0,0,261,134.45l-51.51-23.51Z" opacity="0.18"/><polygon points="217.09 37.52 223.56 60.37 210.72 63.04 211.16 45.34 217.09 37.52" fill="#f4a28c"/><path d="M210.9,49.21a8.58,8.58,0,0,0,3.91-3s.33,4.33-3.9,9.16Z" fill="#ce8172" opacity="0.31"/><path d="M203.78,38.19s.65,7.22,2.68,11.73a3.65,3.65,0,0,0,4.84,1.81c2.26-1.06,5-3.15,5.13-7.06l1-6.61a6.5,6.5,0,0,0-4-6.34C208.88,29.54,203.17,33.81,203.78,38.19Z" fill="#f4a28c"/><path d="M205.6,38.17a28.66,28.66,0,0,0,6.49-1.67A6,6,0,0,0,213.25,43a4.93,4.93,0,0,0,6.2.89l-1.75-9.14A7.37,7.37,0,0,0,212.87,29a25.56,25.56,0,0,0-3.33-.95c-2.83-.59-6.38,1.85-9.06.49A1.75,1.75,0,0,0,198,30.11c.08,2.86,1.36,7.16,5.4,8A6.54,6.54,0,0,0,205.6,38.17Z" fill="#24285b"/><path d="M212.45,43S212,40.19,214.12,40s2.75,3.82,0,4.69Z" fill="#f4a28c"/><path d="M204.42,42.72l-1.5,3.1a1.16,1.16,0,0,0,1,1.66l2.82,0Z" fill="#f4a28c"/><polygon points="170.02 51.96 163.54 74.81 176.39 77.48 175.94 59.78 170.02 51.96" fill="#f4a28c"/><path d="M176.21,63.65a8.58,8.58,0,0,1-3.92-3S172,65,176.2,69.8Z" fill="#ce8172" opacity="0.31"/><path d="M183.32,52.63s-.64,7.22-2.68,11.73a3.64,3.64,0,0,1-4.83,1.81c-2.26-1.06-5-3.15-5.13-7.06l-1-6.61a6.52,6.52,0,0,1,4-6.34C178.23,44,183.94,48.25,183.32,52.63Z" fill="#f4a28c"/><path d="M174.66,57.39s.43-2.76-1.67-2.91-2.75,3.82,0,4.69Z" fill="#f4a28c"/><path d="M182.68,57.16l1.5,3.1a1.16,1.16,0,0,1-1,1.66l-2.82,0Z" fill="#f4a28c"/><path d="M211.53,170.76l14.21,77.15,4.17-1.42,4.25-53.91c.5-8.69-2.87-13.61,3.09-20l-6.19-6.84Z" fill="#f4a28c"/><path d="M206.67,63l16.87-3.5s26-2,39.73,14.69c15.53,18.79-9.61,82.52-9.61,82.52l-44.18,4.79S149.54,88.25,206.67,63Z" fill="#68e1fd"/><path d="M196.68,94.52s22.6,25.38-3.43,42a113.49,113.49,0,0,1-5.39-11.61C185.76,119.36,196.68,94.52,196.68,94.52Z" opacity="0.09"/><polygon points="223.82 237.48 230.74 236.04 229.91 246.49 225.74 247.91 223.82 237.48" fill="#68e1fd"/><polygon points="223.82 237.48 230.74 236.04 229.91 246.49 225.74 247.91 223.82 237.48" fill="#fff" opacity="0.46"/><path d="M254.77,168l8.16,78-4.41-.18-19.29-50.52c-2.93-8.2-1.09-13.87-8.6-18.28l4-8.31Z" fill="#f4a28c"/><polygon points="261.83 235.49 254.79 236.07 258.52 245.86 262.93 246.04 261.83 235.49" fill="#68e1fd"/><polygon points="261.83 235.49 254.79 236.07 258.52 245.86 262.93 246.04 261.83 235.49" fill="#fff" opacity="0.46"/><polygon points="209.48 161.53 215.54 196.38 234.44 196.38 237.04 171.15 253.66 156.75 209.48 161.53" fill="#24285b"/><polygon points="253.66 156.75 260.07 196.38 239.65 196.38 229.63 164.14 253.66 156.75" fill="#24285b"/><path d="M176.39,77.48s30.85,13.69,21,34.92c-7.11,15.37-15.22,12-18,24.43L176.5,149,145,137.63s4.8-17.85,3.4-29.95S142.34,65.39,176.39,77.48Z" fill="#68e1fd"/><path d="M167.55,84s11.26,17.87-.54,34.77c-2,2.86-3.78,5.87-5.52,8.91l-7.59,13.23L145,137.63l1.69-7.51Z" opacity="0.09"/><path d="M173,54.48s4.3,22.68-3.35,25.28-19.67-.7-19.47-10,9.4-9.71,12-22.2,26.44-6.74,25.23.49S173,54.48,173,54.48Z" fill="#ffd200"/><path d="M230.47,73.3s-9.31,15.86,6.78,30.54,18.52,33.71,7.6,35.34S231.3,125.32,223,126.51s-7.11,7-3.55,9.19,4.94,9.57,4.94,9.57l3.89-6.85s16.69,6.77,13.3,19.64l12.08-1.31,4.22-11.84,12.65-19-1-16Z" opacity="0.09"/><circle cx="223" cy="114.12" r="5.88" fill="#fff"/><path d="M162.56,75.4a9.66,9.66,0,0,0-13,.83c-2.47,2.62-4.55,7.15-3.92,15,1.4,17.22-4,37.66-20,26.84s-16.82-14.43-16.82-14.43l-5.61,6.27s15.42,27.77,35.24,24.17C156.37,130.79,178.35,87.43,162.56,75.4Z" fill="#68e1fd"/><path d="M162.56,75.4a9.66,9.66,0,0,0-13,.83c-2.47,2.62-4.55,7.15-3.92,15,1.4,17.22-4,37.66-20,26.84s-16.82-14.43-16.82-14.43l-5.61,6.27s15.42,27.77,35.24,24.17C156.37,130.79,178.35,87.43,162.56,75.4Z" fill="#fff" opacity="0.44"/><path d="M230.38,71.65a11.83,11.83,0,0,1,16.78-10.88c13,5.93,32.49,19.3,34.74,46.67,3.4,41.44-29.24,47.65-55.67,24.42l7-8.81s17.82,12.62,28.63,1.41C270.9,115.09,230.72,96,230.38,71.65Z" fill="#68e1fd"/><polygon points="217.71 116.95 228.28 116.95 223.34 139.18 217.71 116.95" fill="#ffd200"/><path d="M231.92,124.84s-6.5-5-10.71-3.7-4.28,12.91,6.41,9.1Z" fill="#f4a28c"/><circle cx="101.25" cy="93.76" r="5.88" fill="#24285b"/><polygon points="95.96 96.6 106.54 96.6 101.6 118.82 95.96 96.6" fill="#ffd200"/><path d="M230.38,71.65a11.83,11.83,0,0,1,16.78-10.88c13,5.93,32.49,19.3,34.74,46.67,3.4,41.44-29.24,47.65-55.67,24.42l7-8.81s17.82,12.62,28.63,1.41C270.9,115.09,230.72,96,230.38,71.65Z" fill="#fff" opacity="0.44"/><path d="M145,137.63,176.5,149l3.83,38-43-3S128,155.15,145,137.63Z" fill="#24285b"/><path d="M146.88,80.62s.73-9.75,5.74-9.75S158.77,81.16,146.88,80.62Z" fill="#f4a28c"/><path d="M107.25,105.39a7.24,7.24,0,0,0-7.89-3.28c-5.41,1.2-6.74,8.45,3.87,7.77Z" fill="#f4a28c"/><path d="M182.24,245s2.78,3.52,6.33,3.34,4.07,4.85-1.64,4.33a32.23,32.23,0,0,1-5.26-.9,9.18,9.18,0,0,0-4.82.17,1.56,1.56,0,0,1-1.63-.65c-1.62-1.91,2.36-6.29,2.36-6.29Z" fill="#68e1fd"/><path d="M121,185.08s-4.49-.1-6.62,2.75-6.32,0-2.28-4a30.21,30.21,0,0,1,4-3.47,9.4,9.4,0,0,0,2.94-3.82,1.52,1.52,0,0,1,1.54-.84c2.5,0,3.52,5.09,3.52,5.09Z" fill="#68e1fd"/><path d="M225.4,245.72s-1.8,3.39-5.06,3.2-4.57,2.84-1.78,4.08,10.8-1.42,10.8-1.42l.58-5.94Z" fill="#68e1fd"/><path d="M262.56,244.14s1.43,3.55,4.7,3.71,4.23,3.31,1.34,4.25-10.6-2.55-10.6-2.55l.05-6Z" fill="#68e1fd"/></svg>