<svg id="Layer_1" data-name="Layer 1" xmlns="http://www.w3.org/2000/svg" viewBox="0 0 400 300"><path d="M347.88,115.17C323.36,75.91,292.58,52,247.26,39.9c-42.58-11.34-94.56-9.85-135,8.65a141.35,141.35,0,0,0-47.8,35.81c-14.44,16.66-25,37-28.21,58.86s1.2,45,13.92,63c13,18.39,33.56,30.3,55.07,36.91,35.59,11,72.29,7.75,108.27,16,25.8,5.91,52.49,10.7,78.64,6.6s52-18.59,63.45-42.45c6.8-14.15,8.08-30.24,8.79-45.93.52-11.33.78-22.89-2.31-33.81C359.21,133.35,353.51,124.18,347.88,115.17Z" fill="#e6e6e6" opacity="0.3"/><rect x="101.8" y="83.33" width="147.72" height="91.67" rx="7.08" fill="#24285b"/><rect x="113.12" y="110.18" width="36.53" height="23.95" rx="5.32" fill="#fff" opacity="0.1"/><circle cx="212.78" cy="122.16" r="9.94" fill="#fff" opacity="0.1"/><circle cx="228.24" cy="122.16" r="9.94" fill="#fff" opacity="0.1"/><rect x="113.12" y="151.11" width="27.69" height="7.1" fill="#fff" opacity="0.1"/><rect x="145.58" y="151.11" width="27.69" height="7.1" fill="#fff" opacity="0.1"/><rect x="178.04" y="151.11" width="27.69" height="7.1" fill="#fff" opacity="0.1"/><rect x="210.5" y="151.11" width="27.69" height="7.1" fill="#fff" opacity="0.1"/><rect x="125.31" y="103.4" width="147.72" height="91.67" rx="7.08" fill="#ffd200"/><rect x="136.64" y="130.25" width="36.53" height="23.95" rx="5.32" fill="#fff" opacity="0.54"/><circle cx="236.3" cy="142.22" r="9.94" fill="#fff" opacity="0.54"/><circle cx="251.76" cy="142.22" r="9.94" fill="#fff" opacity="0.54"/><g opacity="0.54"><rect x="136.64" y="171.17" width="27.69" height="7.1" fill="#fff"/><rect x="169.1" y="171.17" width="27.69" height="7.1" fill="#fff"/><rect x="201.56" y="171.17" width="27.69" height="7.1" fill="#fff"/><rect x="234.01" y="171.17" width="27.69" height="7.1" fill="#fff"/></g><polygon points="238.76 86.5 238.76 166.44 166.92 166.44 166.92 86.5 170.18 93.01 173.45 86.5 176.71 93.01 179.98 86.5 183.25 93.01 186.51 86.5 189.78 93.01 193.04 86.5 196.31 93.01 199.57 86.5 202.84 93.01 206.1 86.5 209.37 93.01 212.64 86.5 215.9 93.01 219.17 86.5 222.43 93.01 225.7 86.5 228.96 93.01 232.23 86.5 235.49 93.01 238.76 86.5" fill="#f4f4f4"/><rect x="174.93" y="97.88" width="21.3" height="1.46" fill="#e6e6e6"/><rect x="211.36" y="97.88" width="19.38" height="1.46" fill="#e6e6e6"/><rect x="174.93" y="105.02" width="12.47" height="1.46" fill="#e6e6e6"/><rect x="211.36" y="105.02" width="19.38" height="1.46" fill="#e6e6e6"/><rect x="212.47" y="112.17" width="18.28" height="1.46" fill="#e6e6e6"/><rect x="174.93" y="112.17" width="15.94" height="1.46" fill="#e6e6e6"/><rect x="174.93" y="119.32" width="18.77" height="1.46" fill="#e6e6e6"/><rect x="211.84" y="119.32" width="18.91" height="1.46" fill="#e6e6e6"/><rect x="174.93" y="126.47" width="11.99" height="1.46" fill="#e6e6e6"/><rect x="212.47" y="126.47" width="18.28" height="1.46" fill="#e6e6e6"/><rect x="174.93" y="133.61" width="55.82" height="1.46" fill="#e6e6e6"/><rect x="205.53" y="140.76" width="25.22" height="1.46" fill="#e6e6e6"/><rect x="150.48" y="125" width="147.72" height="91.67" rx="7.08" fill="#68e1fd"/><rect x="161.81" y="151.85" width="36.53" height="23.95" rx="5.32" fill="#fff" opacity="0.54"/><circle cx="261.47" cy="163.82" r="9.94" fill="#fff" opacity="0.54"/><circle cx="276.93" cy="163.82" r="9.94" fill="#fff" opacity="0.54"/><g opacity="0.54"><rect x="161.81" y="192.78" width="27.69" height="7.1" fill="#fff"/><rect x="194.27" y="192.78" width="27.69" height="7.1" fill="#fff"/><rect x="226.73" y="192.78" width="27.69" height="7.1" fill="#fff"/><rect x="259.19" y="192.78" width="27.69" height="7.1" fill="#fff"/></g></svg>