<svg id="Layer_1" data-name="Layer 1" xmlns="http://www.w3.org/2000/svg" viewBox="0 0 400 300"><rect x="275.4" y="92.69" width="53.69" height="69.48" fill="#68e1fd"/><ellipse cx="200" cy="250.01" rx="129.09" ry="9.54" fill="#f2f2f2"/><path d="M130.34,122.52s-2.82,23,18.67,36.23l11.54-10.43L140.8,109.09Z" fill="#f4a28c"/><polygon points="119.04 178.8 149 243.8 153.91 243.16 140.23 173.93 119.04 178.8" fill="#f4a28c"/><path d="M101,172.78l7.84,27.09-20.22-12-3,4.57s21.91,27.16,36,21.89-.86-48.95-.86-48.95Z" fill="#f4a28c"/><path d="M106.16,128.26l28.44,10.3,9.71,48.3-42.4,2.54S82.25,165.34,106.16,128.26Z" fill="#24285b"/><path d="M153.55,243.21s3.17,3.09,6.62,2.46,4.59,4.22-1.06,4.44a30.29,30.29,0,0,1-5.26-.21,9.16,9.16,0,0,0-4.69.78,1.52,1.52,0,0,1-1.67-.43c-1.83-1.65,1.51-6.45,1.51-6.45Z" fill="#68e1fd"/><path d="M86.05,192.46s-4.4.47-6.12,3.53-6.18.85-2.75-3.65a30.6,30.6,0,0,1,3.52-3.91,9.18,9.18,0,0,0,2.39-4.11,1.51,1.51,0,0,1,1.39-1c2.44-.35,4.1,4.53,4.1,4.53Z" fill="#68e1fd"/><rect x="180.92" y="45.42" width="109.19" height="204.59" fill="#e6e6e6"/><rect x="190.31" y="54.07" width="90.41" height="170.37" rx="4.26" fill="#f2f2f2"/><polygon points="128.76 51 122.91 71.6 134.5 74.01 134.1 58.05 128.76 51" fill="#f4a28c"/><path d="M154.77,94.32s8.64,12.26,1.61,21.07-21.88,11.33-21.88,11.33Z" opacity="0.09"/><path d="M134.33,61.54a7.74,7.74,0,0,1-3.52-2.72s-.3,3.91,3.51,8.26Z" fill="#ce8172" opacity="0.31"/><path d="M140.75,51.6s-.58,6.51-2.41,10.58A3.28,3.28,0,0,1,134,63.81c-2-1-4.52-2.84-4.63-6.36l-.93-6a5.9,5.9,0,0,1,3.65-5.73C136.16,43.8,141.31,47.65,140.75,51.6Z" fill="#f4a28c"/><path d="M132.94,55.89s.39-2.48-1.51-2.62-2.48,3.45,0,4.23Z" fill="#f4a28c"/><path d="M140.18,55.68l1.35,2.8a1,1,0,0,1-.93,1.5l-2.55,0Z" fill="#f4a28c"/><path d="M134.5,74s27.82,12.35,19,31.5c-6.41,13.87-13.72,10.83-16.25,22l-2.62,11-28.44-10.3s4.33-16.09,3.07-27S103.79,63.11,134.5,74Z" fill="#68e1fd"/><path d="M237.14,92.69H146.87A5.27,5.27,0,0,0,141.61,98v57.53a5.27,5.27,0,0,0,5.26,5.26h90.27Z" fill="#ffd200"/><rect x="150.02" y="112.62" width="27.12" height="17.78" rx="3.95" fill="#fff" opacity="0.54"/><circle cx="224" cy="121.51" r="7.38" fill="#fff" opacity="0.54"/><path d="M237.14,114.32a7.61,7.61,0,0,0-1.66-.19,7.38,7.38,0,0,0,0,14.76,7.61,7.61,0,0,0,1.66-.19Z" fill="#fff" opacity="0.54"/><g opacity="0.54"><rect x="150.02" y="143" width="20.55" height="5.27" fill="#fff"/><rect x="174.12" y="143" width="20.55" height="5.27" fill="#fff"/><rect x="198.21" y="143" width="20.55" height="5.27" fill="#fff"/><rect x="222.31" y="143" width="14.83" height="5.27" fill="#fff"/></g><path d="M126.53,79.85s11.18,15,3.25,31.76c-5.71,12.12.49,15.51-1.07,18.25l-14.5,1.32-8-2.92,1.52-6.77Z" opacity="0.09"/><path d="M159.17,111.86s6.49.18,3.13,9.1-15.76,24.61-32.77,26.56-22.32-11.19-17-20.7c0,0,.84,9.8,13.15,4.34S159.17,111.86,159.17,111.86Z" opacity="0.09"/><path d="M131.43,53.27s3.88,20.45-3,22.8-17.74-.64-17.56-9,8.48-8.75,10.83-20,23.85-6.08,22.76.45S131.43,53.27,131.43,53.27Z" fill="#ffd200"/><path d="M127.09,81.78a10,10,0,0,0-17.75-3.89c-3,4-5,9.82-3.18,17.85,4.38,19.44-1.73,43.35,12.37,45s36.68-20.7,36.68-20.7l-3-5.45s-20.41,13.84-26.84,11.32C120.37,124,130.69,98.66,127.09,81.78Z" fill="#f4a28c"/><path d="M152.2,114.62s3.54-7.83,6.68-6.05,1.79,8.22-3.67,11.5Z" fill="#f4a28c"/><path d="M168.82,160.76s8.16,4,8.62-1.44S170,155.52,168.82,160.76Z" fill="#f4a28c"/><circle cx="235.51" cy="235.71" r="5.99" fill="#f2f2f2"/><path d="M304.78,239.65s-7.85-2.15-9.55-9.44c0,0,12.15-2.46,12.49,10.08Z" fill="#68e1fd" opacity="0.58"/><path d="M305.74,238.87s-5.48-8.66-.66-16.76c0,0,9.24,5.87,5.13,16.78Z" fill="#68e1fd" opacity="0.73"/><path d="M307.15,238.88S310,229.73,318.8,228c0,0,1.64,5.94-5.67,10.91Z" fill="#68e1fd"/><polygon points="301.46 238.67 303.05 249.55 313.06 249.59 314.54 238.72 301.46 238.67" fill="#24285b"/><polygon points="180.92 185.36 237.13 160.74 180.92 160.74 180.92 185.36" opacity="0.09"/></svg>