<svg id="Layer_1" data-name="Layer 1" xmlns="http://www.w3.org/2000/svg" viewBox="0 0 400 300"><ellipse cx="200" cy="246.75" rx="160" ry="8.59" fill="#e6e6e6" opacity="0.45"/><path d="M109.72,64.05C77.18,75.66,53.05,105.1,48.29,140.71c-4,30,12.43,67,69.59,68.71,125.73,3.77,207.7,14.61,225.55-38.58,19.18-57.18,8.78-120.68-46.9-126.18C252.25,40.29,173.26,41.38,109.72,64.05Z" fill="#e6e6e6" opacity="0.3"/><rect x="100.87" y="60.94" width="222.12" height="157.97" fill="#e6e6e6"/><rect x="121.4" y="88.67" width="179.91" height="111.64" rx="8.63" fill="#ffd200"/><rect x="135.2" y="129.38" width="44.49" height="29.16" rx="6.48" fill="#fff" opacity="0.54"/><circle cx="261.74" cy="149.42" r="8.88" fill="#fff" opacity="0.54"/><circle cx="275.54" cy="149.42" r="8.88" fill="#fff" opacity="0.54"/><g opacity="0.54"><rect x="135.2" y="173.22" width="33.72" height="8.65" fill="#fff"/><rect x="174.73" y="173.22" width="33.72" height="8.65" fill="#fff"/><rect x="214.26" y="173.22" width="33.72" height="8.65" fill="#fff"/><rect x="253.79" y="173.22" width="33.72" height="8.65" fill="#fff"/></g><path d="M130.13,147.61l-12.54.34L113.46,220h18c1-3.43,3.6-21.27,13.38-31.6,9.61-10.17,48.9-36.53,34.51-54.33-7-8.67-18.76,24.43-18.76,24.43L142,160.74l1.27-.66Z" opacity="0.05"/><polygon points="102.49 129.62 104.56 135.84 99.64 138.97 97.87 128.18 102.49 129.62" fill="#f4a28c"/><path d="M96.18,122.16a3.88,3.88,0,0,1,6.41-1.07c2.09,2.24,4.62,5.8,1.76,7.73-4.37,3-8.39-2.57-8.39-2.57A7,7,0,0,1,96.18,122.16Z" fill="#f4a28c"/><path d="M99.38,126s-1.13-.94-1.63.4,1.47,2,2.06,1.3S99.38,126,99.38,126Z" fill="#f4a28c"/><path d="M89.48,142.11s-20.26,12.26-22.93,41.06a10,10,0,0,0,7.57,10.67l23.75,5.73Z" fill="#68e1fd"/><path d="M89.48,142.11s-20.26,12.26-22.93,41.06a10,10,0,0,0,7.57,10.67l23.75,5.73Z" fill="#fff" opacity="0.2"/><path d="M100,124.37s2.33,6.66-1.72,6.24-1.84-3.28-3.85-6.24-1-5,2.12-7.57c1.41-1.19,2.35-1.75,2.92-2.38a2.18,2.18,0,0,1,3.65.52C104.16,117.5,104.17,120.92,100,124.37Z" fill="#24285b"/><path d="M84.79,148.13A16.31,16.31,0,0,1,95,139.21c8.67-2.6,25.12-8.06,30,0,6.65,11.09-3.59,54.64-3.59,54.64l-29.11,2.26S76.28,167.27,84.79,148.13Z" fill="#68e1fd"/><polygon points="121.4 193.89 117.57 243.94 111.52 243.94 106.11 205.05 92.73 196.15 121.4 193.89" fill="#24285b"/><polygon points="92.73 196.15 84.38 243.94 90.87 243.94 104.88 204.24 92.73 196.15" fill="#24285b"/><path d="M97.53,138.45s-13.62,43.85,25.7,46.76l-1.83,8.68-29.11,2.26a75.56,75.56,0,0,1-9.82-38.73s.25-11.18,8.12-16.13A17.73,17.73,0,0,1,97.53,138.45Z" opacity="0.08"/><path d="M117.4,243.94l3.79,3a.9.9,0,0,1-.55,1.6h-4.81a2.57,2.57,0,0,1-2.56-2.57v-2Z" fill="#68e1fd"/><path d="M84.84,243.94l-3.79,3a.9.9,0,0,0,.55,1.6h4.8A2.57,2.57,0,0,0,89,245.93v-2Z" fill="#68e1fd"/><path d="M176.94,134.74l-4.37-1.27L153.43,150.1h0a10.59,10.59,0,0,1-10.44,2,23.73,23.73,0,0,1-12.55-10c-6.88-11.17-18.57-7.13-18.57-7.13s-8.81,8.68,8.64,23.57c10.42,8.89,21.09,9.45,28,8.46a23.89,23.89,0,0,1,2.54-.17,6.57,6.57,0,0,0,2.37-.53,26.26,26.26,0,0,0,2.71-1.35h0C163.21,160.92,170.84,152.26,176.94,134.74Z" fill="#68e1fd"/><path d="M176.94,134.74l-4.37-1.27L153.43,150.1h0a10.59,10.59,0,0,1-10.44,2,23.73,23.73,0,0,1-12.55-10c-6.88-11.17-18.57-7.13-18.57-7.13s-8.81,8.68,8.64,23.57c10.42,8.89,21.09,9.45,28,8.46a23.89,23.89,0,0,1,2.54-.17,6.57,6.57,0,0,0,2.37-.53,26.26,26.26,0,0,0,2.71-1.35h0C163.21,160.92,170.84,152.26,176.94,134.74Z" fill="#fff" opacity="0.2"/><path d="M172.57,133.47s2.43-7,4.37-7.49,0,3.74,0,3.74,5.3,2.6,0,5Z" fill="#f4a28c"/><path d="M245,233.07s-10.25-2.8-12.47-12.34c0,0,15.87-3.2,16.32,13.18Z" fill="#68e1fd" opacity="0.58"/><path d="M246.21,232.05s-7.15-11.31-.86-21.89c0,0,12.07,7.66,6.71,21.91Z" fill="#68e1fd" opacity="0.73"/><path d="M248.06,232.06s3.78-11.95,15.21-14.21c0,0,2.14,7.75-7.4,14.24Z" fill="#68e1fd"/><polygon points="240.63 231.79 242.7 246 255.78 246.05 257.71 231.86 240.63 231.79" fill="#24285b"/><circle cx="127.61" cy="72.3" r="4.87" fill="#ffd200"/><circle cx="141.31" cy="72.3" r="4.87" fill="#68e1fd"/><circle cx="154.43" cy="72.3" r="4.87" fill="#24285b"/><polygon points="288.75 66.73 288.75 131.26 230.75 131.26 230.75 66.73 233.38 71.99 236.02 66.73 238.66 71.99 241.3 66.73 243.94 71.99 246.57 66.73 249.21 71.99 251.84 66.73 254.48 71.99 257.11 66.73 259.75 71.99 262.38 66.73 265.02 71.99 267.66 66.73 270.29 71.99 272.93 66.73 275.56 71.99 278.2 66.73 280.84 71.99 283.48 66.73 286.11 71.99 288.75 66.73" fill="#f4f4f4"/><rect x="237.22" y="75.91" width="17.19" height="1.57" fill="#e6e6e6"/><rect x="266.63" y="75.91" width="15.65" height="1.57" fill="#e6e6e6"/><rect x="237.22" y="83.61" width="10.06" height="1.57" fill="#e6e6e6"/><rect x="266.63" y="83.61" width="15.65" height="1.57" fill="#e6e6e6"/><rect x="267.52" y="91.3" width="14.76" height="1.57" fill="#e6e6e6"/><rect x="237.22" y="91.3" width="12.86" height="1.57" fill="#e6e6e6"/><rect x="237.22" y="98.99" width="15.16" height="1.57" fill="#e6e6e6"/><rect x="267.01" y="98.99" width="15.27" height="1.57" fill="#e6e6e6"/><rect x="237.22" y="106.69" width="9.68" height="1.57" fill="#e6e6e6"/><rect x="267.52" y="106.69" width="14.76" height="1.57" fill="#e6e6e6"/><rect x="237.22" y="114.38" width="45.06" height="1.57" fill="#e6e6e6"/><rect x="261.92" y="122.07" width="20.36" height="1.57" fill="#e6e6e6"/><rect x="184.16" y="81.36" width="32.3" height="32.3" fill="#f4f4f4"/><rect x="190.36" y="86.99" width="21.57" height="1.68" fill="#e6e6e6"/><rect x="190.36" y="93.75" width="21.57" height="1.68" fill="#e6e6e6"/><rect x="190.36" y="100.52" width="15.24" height="1.68" fill="#e6e6e6"/><rect x="285.19" y="233.83" width="53.69" height="11.46" fill="#ffd200"/><g opacity="0.3"><rect x="291.13" y="233.83" width="3.52" height="11.46" fill="#fff" opacity="0.54"/><rect x="300.71" y="233.83" width="3.52" height="11.46" fill="#fff" opacity="0.54"/><rect x="310.28" y="233.83" width="3.52" height="11.46" fill="#fff" opacity="0.54"/><rect x="319.85" y="233.83" width="3.52" height="11.46" fill="#fff" opacity="0.54"/><rect x="329.43" y="233.83" width="3.52" height="11.46" fill="#fff" opacity="0.54"/></g><rect x="279.25" y="222.38" width="53.69" height="11.46" fill="#ffd200"/><g opacity="0.3"><rect x="285.19" y="222.38" width="3.52" height="11.46" fill="#fff" opacity="0.54"/><rect x="294.77" y="222.38" width="3.52" height="11.46" fill="#fff" opacity="0.54"/><rect x="304.34" y="222.38" width="3.52" height="11.46" fill="#fff" opacity="0.54"/><rect x="313.91" y="222.38" width="3.52" height="11.46" fill="#fff" opacity="0.54"/><rect x="323.49" y="222.38" width="3.52" height="11.46" fill="#fff" opacity="0.54"/></g><rect x="285.19" y="210.92" width="53.69" height="11.46" fill="#ffd200"/><g opacity="0.3"><rect x="291.13" y="210.92" width="3.52" height="11.46" fill="#fff" opacity="0.54"/><rect x="300.71" y="210.92" width="3.52" height="11.46" fill="#fff" opacity="0.54"/><rect x="310.28" y="210.92" width="3.52" height="11.46" fill="#fff" opacity="0.54"/><rect x="319.85" y="210.92" width="3.52" height="11.46" fill="#fff" opacity="0.54"/><rect x="329.43" y="210.92" width="3.52" height="11.46" fill="#fff" opacity="0.54"/></g></svg>