<svg id="Layer_1" data-name="Layer 1" xmlns="http://www.w3.org/2000/svg" viewBox="0 0 400 300"><title>_</title><path d="M91.73,257.06S48.18,205.35,70,140.79s87.1-110.57,170-95.24,138,58.86,94.73,211.2Z" fill="#dddbdb" opacity="0.18"/><path d="M352,135.43a5.42,5.42,0,0,0-1.81.32,9,9,0,0,0,.43-2.76,9.13,9.13,0,0,0-18.26,0c0,.24,0,.48,0,.72a6.53,6.53,0,0,0-3-.72,6.61,6.61,0,0,0,0,13.22H352a5.39,5.39,0,0,0,0-10.78Z" fill="#dddbdb" opacity="0.3"/><path d="M227.22,61.08a3.86,3.86,0,0,0-1.32.23,6.79,6.79,0,0,0,.31-2,6.71,6.71,0,0,0-13.41,0,4.58,4.58,0,0,0,0,.53,4.92,4.92,0,0,0-2.2-.53,4.86,4.86,0,1,0,0,9.72h16.59a4,4,0,1,0,0-7.92Z" fill="#dddbdb" opacity="0.3"/><path d="M130.88,79.26a6.07,6.07,0,0,0-2.06.36,10.58,10.58,0,0,0,.48-3.15,10.42,10.42,0,1,0-20.84,0c0,.28,0,.55,0,.82a7.55,7.55,0,1,0-3.42,14.28h25.8a6.16,6.16,0,0,0,0-12.31Z" fill="#dddbdb" opacity="0.3"/><polygon points="135.22 254.06 135.22 147.36 106.78 103.31 78.35 147.36 78.35 211.18 60.89 211.18 60.89 254.06 135.22 254.06" fill="#e6e6e6"/><polygon points="339.11 254.06 339.11 202.21 321.48 174.9 317.76 180.66 307.26 164.39 295.15 183.15 295.15 145.11 286.98 145.11 286.98 138.14 273.98 138.14 273.98 115.33 270.03 115.33 270.03 138.14 257.03 138.14 257.03 145.11 248.86 145.11 248.86 59.48 245.03 59.48 245.03 53.03 218.57 53.03 218.57 59.48 213.69 59.48 213.69 206.12 205.68 206.12 205.68 166.36 198.78 166.36 198.78 161.31 195.6 161.31 173.16 138.14 150.73 161.31 147.55 161.31 147.55 166.36 140.65 166.36 140.65 254.06 339.11 254.06" fill="#e6e6e6"/><rect x="117.28" y="203.01" width="44.3" height="51.06" fill="#68e1fd"/><rect x="121.6" y="192.88" width="35.66" height="10.12" fill="#68e1fd"/><g opacity="0.54"><rect x="122.75" y="210.05" width="7.65" height="3.94" fill="#fff"/><rect x="135.61" y="210.05" width="7.65" height="3.94" fill="#fff"/><rect x="148.47" y="210.05" width="7.65" height="3.94" fill="#fff"/></g><g opacity="0.54"><rect x="122.75" y="220.04" width="7.65" height="3.94" fill="#fff"/><rect x="135.61" y="220.04" width="7.65" height="3.94" fill="#fff"/><rect x="148.47" y="220.04" width="7.65" height="3.94" fill="#fff"/></g><g opacity="0.54"><rect x="122.75" y="230.04" width="7.65" height="3.94" fill="#fff"/><rect x="135.61" y="230.04" width="7.65" height="3.94" fill="#fff"/><rect x="148.47" y="230.04" width="7.65" height="3.94" fill="#fff"/></g><g opacity="0.54"><rect x="122.75" y="240.03" width="7.65" height="3.94" fill="#fff"/><rect x="135.61" y="240.03" width="7.65" height="3.94" fill="#fff"/><rect x="148.47" y="240.03" width="7.65" height="3.94" fill="#fff"/></g><rect x="201.74" y="212.02" width="52.63" height="42.05" fill="#68e1fd"/><g opacity="0.54"><rect x="206.43" y="216.34" width="5.51" height="8.23" fill="#fff"/><rect x="215.86" y="216.34" width="5.51" height="8.23" fill="#fff"/><rect x="225.29" y="216.34" width="5.51" height="8.23" fill="#fff"/><rect x="234.73" y="216.34" width="5.51" height="8.23" fill="#fff"/><rect x="244.16" y="216.34" width="5.51" height="8.23" fill="#fff"/><rect x="206.43" y="228.93" width="5.51" height="8.23" fill="#fff"/><rect x="215.86" y="228.93" width="5.51" height="8.23" fill="#fff"/><rect x="225.29" y="228.93" width="5.51" height="8.23" fill="#fff"/><rect x="234.73" y="228.93" width="5.51" height="8.23" fill="#fff"/><rect x="244.16" y="228.93" width="5.51" height="8.23" fill="#fff"/><rect x="206.43" y="241.51" width="5.51" height="8.23" fill="#fff"/><rect x="215.86" y="241.51" width="5.51" height="8.23" fill="#fff"/><rect x="225.29" y="241.51" width="5.51" height="8.23" fill="#fff"/><rect x="234.73" y="241.51" width="5.51" height="8.23" fill="#fff"/><rect x="244.16" y="241.51" width="5.51" height="8.23" fill="#fff"/></g><path d="M183.47,102.77v51H179v-51h-9.84v151.3h24.16V102.77ZM176.34,238h-4.51V218.89h4.51Zm0-21.44h-4.51V197.46h4.51Zm0-21.43h-4.51V176h4.51Zm0-42.86h-4.51V133.16h4.51Zm0-21.44h-4.51V111.73h4.51Zm7.13,107.92H179V175.08h4.47Zm2.67-127h4.51v19.06h-4.51ZM190.65,238h-4.51V218.89h4.51Zm0-21.44h-4.51V197.46h4.51Zm0-21.43h-4.51V176h4.51Zm0-42.86h-4.51V133.16h4.51Z" fill="#68e1fd"/><path d="M179,102.77v28.9c-.91-.7-1.79-1.43-2.66-2.18V111.73h-4.51v13.61c-.91-.9-1.8-1.81-2.67-2.74V102.77Z" opacity="0.1"/><path d="M183.47,102.77v32.09c.87.58,1.76,1.13,2.67,1.66v-3.36h4.51v5.69q1.32.61,2.67,1.14V102.77Zm7.18,28h-4.51V111.73h4.51Z" opacity="0.1"/><path d="M210.8,80.44a27.32,27.32,0,1,1-2.87-12.2A27.13,27.13,0,0,1,210.8,80.44Z" fill="#68e1fd"/><path d="M210.8,80.44a27.13,27.13,0,0,1-2.87,12.2H159a27.28,27.28,0,0,1,0-24.4h48.91A27.13,27.13,0,0,1,210.8,80.44Z" fill="#68e1fd"/><path d="M210.8,80.44c0,.31,0,.63,0,.94a26.7,26.7,0,0,1-.41,3.93c-.12.64-.25,1.26-.4,1.88a27.63,27.63,0,0,1-2,5.45H159a27,27,0,0,1-2-5.45c-.17-.62-.3-1.24-.41-1.88a25.41,25.41,0,0,1-.42-3.93c0-.31,0-.63,0-.94s0-.63,0-.94a25.41,25.41,0,0,1,.42-3.93c.11-.64.24-1.26.41-1.88a27,27,0,0,1,2-5.45h48.91a27.63,27.63,0,0,1,2,5.45c.15.62.28,1.24.4,1.88a26.7,26.7,0,0,1,.41,3.93C210.79,79.81,210.8,80.13,210.8,80.44Z" fill="#fff" opacity="0.54"/><path d="M210.37,75.57H156.58c.11-.64.24-1.26.41-1.88h53C210.12,74.31,210.25,74.93,210.37,75.57Z" fill="#fff" opacity="0.54"/><path d="M210.8,80.44c0,.31,0,.63,0,.94H156.16c0-.31,0-.63,0-.94s0-.63,0-.94h54.62C210.79,79.81,210.8,80.13,210.8,80.44Z" fill="#fff" opacity="0.54"/><path d="M210.37,85.31c-.12.64-.25,1.26-.4,1.88H157c-.17-.62-.3-1.24-.41-1.88Z" fill="#fff" opacity="0.54"/><rect x="68.57" y="238.71" width="48.71" height="15.36" fill="#68e1fd"/><rect x="68.57" y="238.71" width="48.71" height="15.36" opacity="0.1"/><rect x="259.63" y="240.39" width="3.75" height="14.3" fill="#68e1fd"/><rect x="270.61" y="240.39" width="3.75" height="14.3" fill="#68e1fd"/><rect x="281.59" y="240.39" width="3.75" height="14.3" fill="#68e1fd"/><rect x="292.57" y="240.39" width="3.75" height="14.3" fill="#68e1fd"/><rect x="303.55" y="240.39" width="3.75" height="14.3" fill="#68e1fd"/><rect x="314.53" y="240.39" width="3.75" height="14.3" fill="#68e1fd"/><rect x="325.51" y="240.39" width="3.75" height="14.3" fill="#68e1fd"/><rect x="259.63" y="240.39" width="3.75" height="14.3" opacity="0.1"/><rect x="270.61" y="240.39" width="3.75" height="14.3" opacity="0.1"/><rect x="281.59" y="240.39" width="3.75" height="14.3" opacity="0.1"/><rect x="292.57" y="240.39" width="3.75" height="14.3" opacity="0.1"/><rect x="303.55" y="240.39" width="3.75" height="14.3" opacity="0.1"/><rect x="314.53" y="240.39" width="3.75" height="14.3" opacity="0.1"/><rect x="325.51" y="240.39" width="3.75" height="14.3" opacity="0.1"/><rect x="254.03" y="235.68" width="77.4" height="5.38" fill="#68e1fd"/><path d="M312.28,241.06s.31-54.44-.32-61.08a21.65,21.65,0,0,0-4.87-11.35s5.29,2.85,6.52,10.69c1.16,7.4,5.2,61.74,5.2,61.74Z" fill="#68e1fd"/><path d="M299.08,241.06s-.31-54.44.32-61.08a21.65,21.65,0,0,1,4.87-11.35s-5.29,2.85-6.52,10.69c-1.17,7.4-5.2,61.74-5.2,61.74Z" fill="#68e1fd"/><circle cx="305.74" cy="168.4" r="1.62" fill="#68e1fd"/><rect x="53.76" y="253.01" width="298.62" height="11.5" rx="5.75" fill="#24285b"/><circle cx="307.09" cy="78.16" r="23.95" fill="#ffd200" opacity="0.17"/><circle cx="307.09" cy="78.16" r="15.68" fill="#ffd200"/></svg>