<svg id="Layer_1" data-name="Layer 1" xmlns="http://www.w3.org/2000/svg" viewBox="0 0 400 300"><rect x="151.9" y="54.63" width="191.86" height="156.59" fill="#e6e6e6"/><rect x="182.71" y="144.02" width="65.12" height="40.88" fill="#fff" opacity="0.35"/><polygon points="204.02 124.96 226.27 126.52 210.68 211.22 151.9 211.22 151.9 170.54 204.02 124.96" opacity="0.08"/><rect x="172.37" y="76.93" width="75.45" height="55.67" fill="#fff" opacity="0.35"/><polyline points="182.71 120.33 190.8 105.09 203.71 112.66 214.68 96.37 226.28 102.74 235.06 88.87" fill="none" stroke="#c1c1c1" stroke-linecap="round" stroke-linejoin="round" stroke-width="2"/><circle cx="234.66" cy="89.51" r="2.66" fill="#24285b"/><circle cx="214.52" cy="96.56" r="2.66" fill="#68e1fd"/><polygon points="127.59 178.71 143.9 116.35 210.68 120.33 195.86 184.9 127.59 178.71" fill="#ffd200"/><polygon points="109.72 100.15 105.43 124.96 120.36 129.33 117.64 108.6 109.72 100.15" fill="#f4a28c"/><path d="M118.43,113.12a10.15,10.15,0,0,1-5-3.06s.15,5.13,5.72,10.27Z" fill="#ce8172" opacity="0.31"/><path d="M125.42,99.29s.14,8.56-1.69,14.11a4.3,4.3,0,0,1-5.46,2.72c-2.78-1-6.27-3.07-6.9-7.65l-2-7.64s-1.1-4.83,4-8S125.6,94.07,125.42,99.29Z" fill="#f4a28c"/><path d="M115.83,106s.17-3.29-2.31-3.21-2.77,4.83.56,5.51Z" fill="#f4a28c"/><path d="M125.23,104.68l2.15,3.46a1.38,1.38,0,0,1-1,2.09l-3.31.38Z" fill="#f4a28c"/><path d="M143.9,116.35l15.51.93s-6.06,48.79,13,65.49L146.25,180l-7-22.1,1.42-29.07Z" opacity="0.08"/><path d="M67.72,236.34S50.09,167.17,72,143.74s44.43-22.27,61.36-11.09,32.45,26.78,8.47,103.69Z" fill="#68e1fd"/><path d="M133.79,135.73s6.82-9.28,10.11-6.4-2.88,5.59-1.79,10.12S131.91,141.13,133.79,135.73Z" fill="#f4a28c"/><path d="M107.09,103.78s-2,6.76,2.74,8.57,8.18-4.56,9.47-10c0,0,7.83-.22,8-5.17s-1.67-8.93-8.65-8.26S106.71,90.85,107.09,103.78Z" fill="#24285b"/><path d="M118.64,142.92a12.28,12.28,0,0,1,15.86-9.76c8.43,2.52,14.9,12.79,17.87,23.28,6.11,21.63-.88,48.67,15.81,45.37s8.46-52.9,8.46-52.9l9.88-.47s18.57,71.95-21.63,76.18C129.47,228.35,112.56,177.09,118.64,142.92Z" fill="#68e1fd"/><path d="M118.64,142.92a12.28,12.28,0,0,1,15.86-9.76c8.43,2.52,14.9,12.79,17.87,23.28,6.11,21.63-.88,48.67,15.81,45.37s8.46-52.9,8.46-52.9l9.88-.47s18.57,71.95-21.63,76.18C129.47,228.35,112.56,177.09,118.64,142.92Z" fill="#fff" opacity="0.44"/><rect x="184.5" y="129.33" width="2.29" height="20.26" transform="translate(-41.11 89.53) rotate(-24.5)" fill="#24285b"/><path d="M105.43,125s-19.52,19.49-16.07,45,20.84,66.35,20.84,66.35H67.72s-12.5-46.22-3-79.64C64.69,156.7,70.71,132.9,105.43,125Z" opacity="0.08"/><path d="M178.45,148.83s.72-13.55,8.71-13.08-.64,12.69-.64,12.69Z" fill="#f4a28c"/><polygon points="67.72 236.34 74.31 259.18 150.02 259.18 141.79 236.34 67.72 236.34" fill="#24285b"/><path d="M290.15,80.32a24.77,24.77,0,1,0,24.77,24.77H290.15Z" fill="#24285b"/><path d="M294.93,74.12V98.89H319.7A24.77,24.77,0,0,0,294.93,74.12Z" fill="#68e1fd"/><rect x="281.1" y="200.76" width="28.76" height="24.68" fill="#ffd200"/><rect x="292.03" y="195.29" width="6.9" height="10.2" fill="#fff" opacity="0.53"/><rect x="269.54" y="144.02" width="48.43" height="40.88" fill="#c1c1c1"/><rect x="278.48" y="153.42" width="5.96" height="5.96" fill="#24285b"/><rect x="278.48" y="168.16" width="5.96" height="5.96" fill="#68e1fd"/><rect x="290.78" y="153.42" width="18.26" height="5.96" rx="2.98" opacity="0.08"/><rect x="290.78" y="168.16" width="18.26" height="5.96" rx="2.98" opacity="0.08"/><circle cx="184.98" cy="87.98" r="4.78" fill="#c1c1c1"/></svg>