<svg id="Layer_1" data-name="Layer 1" xmlns="http://www.w3.org/2000/svg" viewBox="0 0 400 300"><rect x="100.88" y="162.83" width="49.36" height="72.64" fill="#e6e6e6"/><rect x="171.74" y="145.08" width="49.36" height="90.39" fill="#e6e6e6"/><rect x="241.62" y="86.05" width="49.36" height="149.41" fill="#e6e6e6"/><polygon points="80.5 233.97 77.5 231.33 125.39 176.73 160.43 208.43 196.53 161.07 227.45 193.5 244.64 163.57 248.1 165.57 228.25 200.14 196.87 167.22 160.97 214.32 125.72 182.42 80.5 233.97" fill="#68e1fd"/><path d="M303.68,238.59H76.44a3,3,0,0,1-3-3V73.83a3,3,0,1,1,6,0V232.59H303.68a3,3,0,0,1,0,6Z" fill="#24285b"/><rect x="293.81" y="148.14" width="9.93" height="18.88" transform="translate(7.06 327.87) rotate(-58.08)" fill="#24285b"/><rect x="293.81" y="148.14" width="9.93" height="18.88" transform="translate(7.06 327.87) rotate(-58.08)" fill="#fff" opacity="0.29"/><circle cx="265.99" cy="137.16" r="34.5" fill="#ffd200"/><circle cx="265.99" cy="137.16" r="24.39" fill="#fff"/><rect x="311.8" y="151.43" width="17.88" height="39.77" rx="5.11" transform="translate(5.75 352.99) rotate(-58.08)" fill="#24285b"/><polygon points="253.25 134.77 273.27 147.84 273.89 124.61 253.25 134.77" fill="#68e1fd"/><path d="M259.94,139.14,249,154.7a20,20,0,0,0,6.69,4.58l10.47-16.06Z" fill="#68e1fd"/><circle cx="125.6" cy="181.12" r="7.79" fill="#68e1fd"/><circle cx="196.41" cy="165.13" r="7.79" fill="#68e1fd"/><circle cx="125.6" cy="181.12" r="7.79" fill="#fff" opacity="0.57"/><circle cx="196.41" cy="165.13" r="7.79" fill="#fff" opacity="0.57"/><path d="M122.44,152.55s-8.32-2.27-10.13-10c0,0,12.89-2.61,13.26,10.7Z" fill="#68e1fd" opacity="0.58"/><path d="M123.46,151.73s-5.81-9.19-.7-17.78c0,0,9.8,6.22,5.45,17.8Z" fill="#68e1fd" opacity="0.73"/><path d="M125,151.73s3.07-9.7,12.35-11.54c0,0,1.74,6.3-6,11.57Z" fill="#68e1fd"/><polygon points="118.92 151.51 120.61 163.05 131.23 163.1 132.79 151.57 118.92 151.51" fill="#24285b"/></svg>