<svg id="Layer_1" data-name="Layer 1" xmlns="http://www.w3.org/2000/svg" viewBox="0 0 400 300"><path d="M236.76,77.77S230.28,76,228.87,70c0,0,10-2,10.33,8.34Z" fill="#68e1fd" opacity="0.58"/><path d="M237.55,77.12S233,70,237,63.27c0,0,7.64,4.85,4.25,13.87Z" fill="#68e1fd" opacity="0.73"/><path d="M238.72,77.13s2.4-7.57,9.63-9c0,0,1.36,4.91-4.68,9Z" fill="#68e1fd"/><polygon points="234.02 76.96 235.33 85.95 243.61 85.98 244.83 77 234.02 76.96" fill="#24285b"/><rect x="137.66" y="85.74" width="117.7" height="89.22" fill="#e6e6e6"/><path d="M176.93,108.82s-26.42,30.51-19.34,46.86S169.22,175,169.22,175,185,123.13,176.93,108.82Z" fill="#68e1fd"/><path d="M176.93,108.82s-26.42,30.51-19.34,46.86S169.22,175,169.22,175,185,123.13,176.93,108.82Z" opacity="0.08"/><path d="M206,103.46s21.08-1.24,20.14,20.3-11,51.2-11,51.2H169.22s-.47-11.57-1.57-23.21S153.31,102.66,206,103.46Z" fill="#68e1fd"/><polygon points="206.24 77.74 206.01 103.46 189.5 109.6 197.7 84.06 206.24 77.74" fill="#f4a28c"/><path d="M196.25,88a9.29,9.29,0,0,0,5-1.94s-1,4.61-6.85,8.33Z" fill="#ce8172" opacity="0.31"/><path d="M195.31,73.78S192.32,81,192,86.4a3.94,3.94,0,0,0,3.75,4.15c2.7.11,6.38-.52,8.45-4.22l4.3-5.84a7,7,0,0,0-.71-8.11C204.54,68,196.91,69.26,195.31,73.78Z" fill="#f4a28c"/><path d="M193.67,78.45l-3,2.23a1.26,1.26,0,0,0,.16,2.12l2.7,1.43Z" fill="#f4a28c"/><path d="M206.73,88.42l4.6-9.63s6,.11,5-4.05-3.85-2.06-3.11-6.46-2.64-6-5.64-4-1.16-1.24-4.22-2.31-4.16.18-4.69,2.56-4.59-1-6.34,1.77S189.87,72,197.61,74,198.51,81.37,206.73,88.42Z" fill="#ffd200"/><path d="M223.13,128.46s-4.83,22.74-19.3,30.76S187.7,175,187.7,175H169.22s-1-21.76-1.81-25.12,9.56-5.6,9.56-5.6l18.27-1.06Z" opacity="0.08"/><path d="M201.26,82.69s1-2.87,3.06-2,.73,5.06-2.33,4.52Z" fill="#f4a28c"/><path d="M182.93,92.32a9.31,9.31,0,0,1,7.14-2.07c2.05.31,4,1.34,4.31,4.14.63,6.1-12.06,6.47-12.06,6.47L179,95.5Z" fill="#f4a28c"/><path d="M179,95.5l3.35,5.36s-17.66,27-3.35,35.48,17-20.76,28.15-28,22.33,5.82,16.67,18.71-28,35.7-46.08,29.09S147.05,126.05,179,95.5Z" fill="#68e1fd"/><path d="M179,95.5l3.35,5.36s-17.66,27-3.35,35.48,17-20.76,28.15-28,22.33,5.82,16.67,18.71-28,35.7-46.08,29.09S147.05,126.05,179,95.5Z" fill="#fff" opacity="0.44"/><rect x="137.66" y="35.21" width="35.56" height="35.56" fill="#e6e6e6"/><path d="M153.28,56.23v-.35a10.7,10.7,0,0,1,.33-2.85,4.21,4.21,0,0,1,.91-1.72A7.28,7.28,0,0,1,156,50.12a9.48,9.48,0,0,0,1.13-.84,3.67,3.67,0,0,0,.8-1,2.43,2.43,0,0,0,.3-1.2,2.28,2.28,0,0,0-.34-1.24A2.25,2.25,0,0,0,157,45a2.74,2.74,0,0,0-1.25-.29,2.91,2.91,0,0,0-1.26.29,2.5,2.5,0,0,0-1,.86,2.69,2.69,0,0,0-.41,1.41h-4.18a6.11,6.11,0,0,1,1-3.38,5.68,5.68,0,0,1,2.46-2,8.54,8.54,0,0,1,3.39-.66,9.17,9.17,0,0,1,3.6.67,5.7,5.7,0,0,1,2.46,1.94,5.75,5.75,0,0,1,.49,5.18,5.09,5.09,0,0,1-1.1,1.64A8.43,8.43,0,0,1,159.52,52a6.68,6.68,0,0,0-1.33,1,3.42,3.42,0,0,0-.77,1.21,5.34,5.34,0,0,0-.26,1.68v.35Zm2,6.55a2.37,2.37,0,0,1-1.74-.72,2.32,2.32,0,0,1-.71-1.73,2.28,2.28,0,0,1,.71-1.72,2.43,2.43,0,0,1,3.84,3,2.61,2.61,0,0,1-.89.89A2.32,2.32,0,0,1,155.31,62.78Z" fill="#c1c1c1"/><rect x="101.29" y="194.23" width="90.62" height="25.87" fill="#24285b"/><rect x="207.08" y="194.23" width="90.62" height="25.87" fill="#24285b"/><rect x="101.29" y="227.85" width="90.62" height="25.87" fill="#24285b"/><rect x="207.08" y="227.85" width="90.62" height="25.87" fill="#24285b"/><circle cx="116.1" cy="206.98" r="8.72" fill="#ffd200"/><circle cx="116.1" cy="240.79" r="8.72" fill="#ffd200"/><circle cx="221.82" cy="206.98" r="8.72" fill="#ffd200"/><circle cx="221.82" cy="240.79" r="8.72" fill="#ffd200"/><path d="M113.94,209.81h-1.23l2.75-7.64h1.34l2.75,7.64h-1.23l-2.16-6.25h-.06Zm.2-3h4v1h-4Z" fill="#24285b"/><path d="M113.36,244.19v-7.65h2.8a3,3,0,0,1,1.35.27,1.88,1.88,0,0,1,.8.72,1.94,1.94,0,0,1,.27,1,1.61,1.61,0,0,1-.18.8,1.42,1.42,0,0,1-.47.53,2,2,0,0,1-.64.28v.08a1.5,1.5,0,0,1,.74.24,1.71,1.71,0,0,1,.61.64,2.09,2.09,0,0,1,.23,1,2.05,2.05,0,0,1-.27,1.05,2,2,0,0,1-.85.74,3.4,3.4,0,0,1-1.46.27Zm1.16-4.34h1.54a1.57,1.57,0,0,0,.7-.15,1.21,1.21,0,0,0,.5-.42,1.14,1.14,0,0,0,.18-.64,1.08,1.08,0,0,0-.33-.8,1.43,1.43,0,0,0-1-.32h-1.57Zm0,3.35h1.66a1.78,1.78,0,0,0,1.19-.32,1.06,1.06,0,0,0,.36-.81,1.18,1.18,0,0,0-.19-.66,1.28,1.28,0,0,0-.52-.48,1.66,1.66,0,0,0-.8-.18h-1.7Z" fill="#24285b"/><path d="M225.14,205.33H224a1.74,1.74,0,0,0-.25-.66,1.72,1.72,0,0,0-.45-.48,1.93,1.93,0,0,0-.59-.3,2.26,2.26,0,0,0-.69-.1,2.16,2.16,0,0,0-1.18.33,2.22,2.22,0,0,0-.82,1,4.26,4.26,0,0,0,0,3.14,2.19,2.19,0,0,0,.82,1,2.3,2.3,0,0,0,1.86.23,1.81,1.81,0,0,0,1.05-.77A1.88,1.88,0,0,0,224,208h1.17a3.5,3.5,0,0,1-.36,1,2.87,2.87,0,0,1-.69.82,3.24,3.24,0,0,1-1,.53,3.57,3.57,0,0,1-1.16.18,3.39,3.39,0,0,1-1.77-.47,3.26,3.26,0,0,1-1.22-1.35,5.15,5.15,0,0,1,0-4.21,3.21,3.21,0,0,1,1.22-1.35,3.3,3.3,0,0,1,1.77-.47,3.47,3.47,0,0,1,1.13.17,3.1,3.1,0,0,1,.95.51,2.6,2.6,0,0,1,.7.81A3.19,3.19,0,0,1,225.14,205.33Z" fill="#24285b"/><path d="M221.78,244.19h-2.47v-7.65h2.55a3.8,3.8,0,0,1,1.93.46,3,3,0,0,1,1.24,1.31,4.45,4.45,0,0,1,.43,2,4.54,4.54,0,0,1-.44,2.06,2.93,2.93,0,0,1-1.25,1.31A4,4,0,0,1,221.78,244.19Zm-1.32-1h1.26a2.88,2.88,0,0,0,1.45-.33,2,2,0,0,0,.87-1,3.71,3.71,0,0,0,.29-1.54,3.61,3.61,0,0,0-.29-1.52,2,2,0,0,0-.85-1,2.84,2.84,0,0,0-1.4-.32h-1.33Z" fill="#24285b"/><rect x="131.98" y="205.38" width="50.68" height="5.11" rx="2.55" fill="#fff" opacity="0.23"/><rect x="236.91" y="205.38" width="50.68" height="5.11" rx="2.55" fill="#fff" opacity="0.23"/><rect x="131.98" y="238.74" width="50.68" height="5.11" rx="2.55" fill="#fff" opacity="0.23"/><rect x="236.91" y="238.74" width="50.68" height="5.11" rx="2.55" fill="#fff" opacity="0.23"/></svg>