<svg id="Layer_1" data-name="Layer 1" xmlns="http://www.w3.org/2000/svg" viewBox="0 0 400 300"><ellipse cx="200.49" cy="198.35" rx="123.47" ry="53.87" fill="#c1c1c1"/><ellipse cx="200.49" cy="192.83" rx="123.47" ry="53.87" fill="#e6e6e6"/><path d="M126.82,167.35s-16.56-.55-17.24,10.34,12.25,9.19,3.4,17-7.49,18,17.36,20.43,26.56-3,41.88,3.92,30,4.93,28.27-10.73S126.82,167.35,126.82,167.35Z" fill="#24285b"/><path d="M265.42,169.79s14-5.73,15.05,4.91-.51,5,12.43,8.1,11.4,10.38-.51,13.44,5.24,27-46.81,21.45S265.42,169.79,265.42,169.79Z" fill="#24285b"/><path d="M137.4,159.45a22.92,22.92,0,0,0-12.67,11.34c-2.4,5-3.44,11.64.74,19.61,9.28,17.72,22.35,16.88,42.18,16.45s40.5,15.3,72.13,11.66,39.23-29.79,23.2-45C247.33,158.7,202.72,135,137.4,159.45Z" fill="#68e1fd"/><path d="M137.4,159.45a22.92,22.92,0,0,0-12.67,11.34c-2.4,5-3.44,11.64.74,19.61,9.28,17.72,22.35,16.88,42.18,16.45s40.5,15.3,72.13,11.66,39.23-29.79,23.2-45C247.33,158.7,202.72,135,137.4,159.45Z" fill="#fff" opacity="0.36"/><path d="M137.4,150.17a22.92,22.92,0,0,0-12.67,11.34c-2.4,5-3.44,11.64.74,19.61,9.28,17.72,22.35,16.88,42.18,16.45s40.5,15.3,72.13,11.66,39.23-29.79,23.2-45C247.33,149.42,202.72,125.75,137.4,150.17Z" fill="#68e1fd"/><path d="M137.4,142.82a22.92,22.92,0,0,0-12.67,11.34c-2.4,5-3.44,11.64.74,19.62,9.28,17.71,22.35,16.87,42.18,16.45s40.5,15.29,72.13,11.65,39.23-29.79,23.2-45C247.33,142.07,202.72,118.4,137.4,142.82Z" fill="#68e1fd"/><path d="M137.4,142.82a22.92,22.92,0,0,0-12.67,11.34c-2.4,5-3.44,11.64.74,19.62,9.28,17.71,22.35,16.87,42.18,16.45s40.5,15.29,72.13,11.65,39.23-29.79,23.2-45C247.33,142.07,202.72,118.4,137.4,142.82Z" fill="#fff" opacity="0.36"/><path d="M137.4,133.54a22.92,22.92,0,0,0-12.67,11.34c-2.4,5-3.44,11.64.74,19.62,9.28,17.71,22.35,16.87,42.18,16.45s40.5,15.29,72.13,11.65,39.23-29.79,23.2-45C247.33,132.79,202.72,109.12,137.4,133.54Z" fill="#68e1fd"/><path d="M134.18,128.24s-9.06,2.74-6.53,16,7,25.94,23,28,25.07,4.85,44,1.27,37.66,19.19,57.49,8.22,31.85-8.82,25.1-32.46S196.82,98.51,134.18,128.24Z" fill="#68e1fd"/><path d="M134.18,128.24s-9.06,2.74-6.53,16,7,25.94,23,28,25.07,4.85,44,1.27,37.66,19.19,57.49,8.22,31.85-8.82,25.1-32.46S196.82,98.51,134.18,128.24Z" fill="#fff" opacity="0.36"/><path d="M134.18,116.43s-9.06,2.74-6.53,16,7,25.94,23,28,25.07,4.85,44,1.27S232.26,181,252.09,170s31.85-8.82,25.1-32.46S196.82,86.69,134.18,116.43Z" fill="#68e1fd"/><path d="M148.86,99.6A23,23,0,0,0,136.19,111c-2.4,4.94-3.43,11.64.74,19.61,9.28,17.71,22.36,16.87,42.18,16.45s40.5,15.3,72.14,11.66,39.23-29.8,23.2-45C258.79,98.86,214.18,75.18,148.86,99.6Z" fill="#68e1fd"/><path d="M148.86,99.6A23,23,0,0,0,136.19,111c-2.4,4.94-3.43,11.64.74,19.61,9.28,17.71,22.36,16.87,42.18,16.45s40.5,15.3,72.14,11.66,39.23-29.8,23.2-45C258.79,98.86,214.18,75.18,148.86,99.6Z" fill="#fff" opacity="0.36"/><path d="M148.86,90.32a23,23,0,0,0-12.67,11.35c-2.4,4.94-3.43,11.64.74,19.61,9.28,17.71,22.36,16.87,42.18,16.45s40.5,15.3,72.14,11.66,39.23-29.8,23.2-45C258.79,89.58,214.18,65.9,148.86,90.32Z" fill="#68e1fd"/><path d="M239.78,218.51s-6.31-27.2,0-46.61,11.57-49.36-15.23-59.23L241,98l10.9,7.15,10.55,12.59,8.69,8.52,6.07,11.25L272,148.91,266.17,161l-3.4,15.66.68,16.48-2.35,17.44S248.79,218,239.78,218.51Z" opacity="0.05"/><path d="M193.51,80.16s-24.19.48-30.83,5.17-7,10.83,4.94,9.81,19.09,4.39,10.48,9.09-22.82,9-29.84,29.67,2.51,28-5.49,43.28-6,25.82-6,25.82,5.23,4.59,12.09,3.6A44.37,44.37,0,0,1,153,178.71c7.32-14,1.87-34.64,6.81-43.23s18.39-18.22,31.58-23,20.92,8.55,33.18,5.83c15.67-3.47,7.75-9.58,18.47-7.36s29.75,15.34,24.86,30.63S254.09,161,256.13,177s5,33.58,5,33.58,4.9-2,6.43-7c0,0-4.59-18.61-2.38-32.4s14.75-22.08,13.93-37.76c-.58-11.14-5.38-17.45-8.12-20.18a5.1,5.1,0,0,1-.76-6.36c.93-1.42,2.61-2.3,5.68-1.06,0,0-18.22-18.72-42.73-22.64S193.51,80.16,193.51,80.16Z" fill="#24285b"/><path d="M192.77,88.84l5-17.3s14.54,7,22.88,9.68l-2,17.63S202,96,192.77,88.84Z" fill="#ffd200"/><path d="M192.77,88.84l5-17.3s14.54,7,22.88,9.68l-2,17.63S202,96,192.77,88.84Z" fill="#fff" opacity="0.38"/><path d="M197.8,71.54a173,173,0,0,1,20-2.62,79.49,79.49,0,0,1,16.73.68L248,77s-15.4,3.08-27.29,4.24C220.68,81.22,205.54,76.94,197.8,71.54Z" fill="#ffd200"/><path d="M248,77l-.58,14.29s-9,6.54-28.66,7.58l2-17.63Z" fill="#ffd200"/><path d="M248,77l-.58,14.29s-9,6.54-28.66,7.58l2-17.63Z" opacity="0.05"/><path d="M192.34,148.67s11.74,2.6,16.79,4.89c0,0-4.9,3.57-4.64,9.06s4.9,12.51-4,15.32-2.81-11.86-8.15-10.59-.62,21.44-9.68,20S172.83,176,179,165.81,191.55,156.56,192.34,148.67Z" fill="#24285b"/><path d="M216.7,201.35s11.66-1.74,14,1.08c.85,1,1.66,3.61,2.33,6.4a19,19,0,0,0,8.56,12.06c2,1.18,5.71,3.39.47,5.81-7.87,3.65-6.9,1.48-14.3,1.79-13.08.55-23.89-.43-17.37-11.71,0,0,8.82,1.73,12.78,1.74S228.18,203.78,216.7,201.35Z" fill="#24285b"/></svg>