<svg id="Layer_1" data-name="Layer 1" xmlns="http://www.w3.org/2000/svg" viewBox="0 0 400 300"><title>_</title><path d="M108.21,55.34C74.7,66.24,45.2,95,43.58,134.52c-.91,22,3.88,78.43,73.6,93.1,111.91,23.54,212.56,15.58,233.69-41.09C369.69,136.07,339.89,69,284,55.11,244.59,45.35,173.67,34,108.21,55.34Z" fill="#e6e6e6" opacity="0.3"/><ellipse cx="141.74" cy="251.56" rx="36.46" ry="5.21" fill="#e6e6e6" opacity="0.45"/><path d="M52.77,86.15s34.8,4.26,54.12,31c19.61,27.12,44,75.15,89.88,76.94,55.13,2.15,76.8-50.51,91.1-68.55s31.92-35.75,59.36-39.37" fill="none" stroke="#c9c9c9" stroke-miterlimit="10" stroke-width="10"/><path d="M52.77,194.13s34.8-4.25,54.12-31C126.5,136,150.89,88,196.77,86.22c55.13-2.15,76.8,50.51,91.1,68.55s31.92,35.75,59.36,39.36" fill="none" stroke="#c9c9c9" stroke-miterlimit="10" stroke-width="10"/><path d="M151.3,106c0,23,0,48.45,0,68.33h0" fill="none" stroke="#c9c9c9" stroke-miterlimit="10" stroke-width="10"/><path d="M183.78,115.09v-27" fill="none" stroke="#c9c9c9" stroke-miterlimit="10" stroke-width="10"/><path d="M183.75,192.23c0-7.86,0-17.95,0-29.14" fill="none" stroke="#c9c9c9" stroke-miterlimit="10" stroke-width="10"/><path d="M216.23,192.41c0-24.4,0-70.53,0-104.52" fill="none" stroke="#c9c9c9" stroke-miterlimit="10" stroke-width="10"/><path d="M248.71,175.91c0-20.55,0-47.5,0-71.52" fill="none" stroke="#c9c9c9" stroke-miterlimit="10" stroke-width="10"/><path d="M65,191.33c0-24.4,0-69,0-102.36" fill="none" stroke="#c9c9c9" stroke-miterlimit="10" stroke-width="10"/><path d="M97.45,106.68h0V137.9c0,12.66,0,25,0,35.72" fill="none" stroke="#c9c9c9" stroke-miterlimit="10" stroke-width="10"/><path d="M302.56,171.27c0-18.5,0-41.25,0-62.26" fill="none" stroke="#c9c9c9" stroke-miterlimit="10" stroke-width="10"/><path d="M335,191.45c0-10.34,0-24.35,0-39.59" fill="none" stroke="#c9c9c9" stroke-miterlimit="10" stroke-width="10"/><path d="M152.83,179.9l-10.55-53.23a22.09,22.09,0,0,0-4.06-1.55c-1.36-.22-8.13-1.3-10.73.32s1.77,59.87,1.77,59.87Z" fill="#24285b"/><polygon points="147.78 209.17 127.65 246.34 124.88 245.69 136.95 206.64 147.78 209.17" fill="#f4a28c"/><path d="M127.9,245.77s.48,2.52,2.33,3.36.79,3.54-2,1.77a17.15,17.15,0,0,1-2.44-1.85,5.38,5.38,0,0,0-2.49-1.18.87.87,0,0,1-.65-.76c-.33-1.39,2.85-2.57,2.85-2.57Z" fill="#68e1fd"/><polygon points="151.45 205.62 154.69 247.76 152.01 248.72 140.98 209.36 151.45 205.62" fill="#f4a28c"/><path d="M154.59,247.15s1.77,1.85,3.78,1.56,2.58,2.54-.7,2.55a16.49,16.49,0,0,1-3-.23,5.48,5.48,0,0,0-2.74.36.88.88,0,0,1-1-.28c-1-1,1-3.71,1-3.71Z" fill="#68e1fd"/><polygon points="152.84 179.9 160.02 239.94 141.34 239.94 139.79 185.9 152.84 179.9" fill="#24285b"/><polygon points="152.84 179.9 160.02 239.94 141.34 239.94 139.79 185.9 152.84 179.9" opacity="0.08"/><path d="M122.82,179.9l4.39,14.43a46.54,46.54,0,0,1-.52,28.75l-3.87,11.23,18.52,5.62,4.49-18.45a44.09,44.09,0,0,0-.57-23l-.08-.27a15.68,15.68,0,0,1,6.89-17.87l.76-.47Z" fill="#24285b"/><path d="M166.65,160.56a17.67,17.67,0,0,1-.38,8.09,9.09,9.09,0,0,1-5.3,5.85,8.61,8.61,0,0,1-6.56-.52,13.89,13.89,0,0,1-5.06-4.39c-3.84-5.15-.72-14,1.16-20.15,1-3.18,3.4-13.13,7.8-9.65,2.37,1.86,3.76,6.69,4.92,9.37A46,46,0,0,1,166.65,160.56Z" fill="#68e1fd"/><path d="M166.67,160.56a18.84,18.84,0,0,1-.36,8.09,8.89,8.89,0,0,1-4.95,5.85,7.62,7.62,0,0,1-6.15-.52,13.4,13.4,0,0,1-4.73-4.39,22.06,22.06,0,0,1-3-18.29c.92-3.18,7.23-15,11.35-11.51,2.21,1.86,3.52,6.69,4.6,9.37A48.17,48.17,0,0,1,166.67,160.56Z" opacity="0.08"/><path d="M135.94,106.34s-4.37-3.69-7.8-1.11-1.1,13-8.57,10.61c0,0,8.11,6.72,13.79-4.27Z" fill="#ffd200"/><path d="M132.46,113.49s-3-.42-1.74-4.46,4.57-3.89,5.53-2.83Z" fill="#68e1fd"/><path d="M141.31,111.3a22,22,0,0,1-1.38,5.71,1.78,1.78,0,0,1-2.37.85,3.94,3.94,0,0,1-2.46-3.48l-.45-3.23a3.17,3.17,0,0,1,2-3.07C138.89,107.05,141.64,109.17,141.31,111.3Z" fill="#f4a28c"/><polygon points="133.92 112.95 131.62 124.3 137.97 125.12 137.12 116.75 133.92 112.95" fill="#f4a28c"/><path d="M141,113.51l.71,1.52a.57.57,0,0,1-.51.81h-1.38Z" fill="#f4a28c"/><path d="M137.14,117a4.35,4.35,0,0,1-1.94-1.25s-.73,2.43,2.18,3.65Z" fill="#ce8172" opacity="0.31"/><path d="M134.16,113s.23-1.34-.8-1.43-1.37,1.85,0,2.29Z" fill="#f4a28c"/><path d="M140.62,111a10.16,10.16,0,0,1-3.37-.39s-1.16,3.82-4.37,4.45c0,0-2.27-6.16,1.58-8,3.23-1.54,5.67-3,7.89-.44A2.65,2.65,0,0,1,140.62,111Z" fill="#ffd200"/><path d="M127.49,125.44c3.26,16.13,9.46,54.92,10.73,71.21l-.67,0-17.83,1.71s-10.41-49.2-9.66-60.21c.49-7.19,8.83-10.56,14.55-12C125.69,125.8,126.67,125.59,127.49,125.44Z" fill="#68e1fd"/><path d="M159.59,152a34.5,34.5,0,0,0-4,11l-.32,34.34-5.42-.24c-.37-4-5.44-58.26-7.62-70.49l7.73,2.89a20.25,20.25,0,0,1,7.52,4.83C163.89,141,161.9,147.87,159.59,152Z" fill="#68e1fd"/><path d="M137.07,112.67s0-1.58-1.25-1.48-1.46,1.93,0,2.83Z" fill="#f4a28c"/><path d="M129.13,124.8s-.88-2.74,4.19-3.31,9.11,1.58,7.44,5.16C140.76,126.65,137,129.69,129.13,124.8Z" fill="#68e1fd"/><path d="M129.13,124.8s-.88-2.74,4.19-3.31,9.11,1.58,7.44,5.16C140.76,126.65,137,129.69,129.13,124.8Z" fill="#fff" opacity="0.46"/><path d="M127.75,134.82s4.7,7.49,0,17.66-1.49,14.13,12.94,13.94l16.92-10.27s-1.63,3.8-1.72,5.61l-.41,18.14H122.82l-.56-2-6.33-11.58L113,151.66Z" opacity="0.08"/><path d="M137.15,171.52c2.9-1.93,32-27,49.67-42.35l6.56,7.55c-.13.1-12.42,10.79-24.73,21.37-17.25,14.81-25.79,21.59-25.79,21.59S137.22,171.47,137.15,171.52Z" fill="#c9c9c9"/><path d="M149.9,167.34s2.36,4.18-2.2,5.06S143,176,143,176l-9.63-1.29Z" opacity="0.08"/><path d="M127.79,139.35a8.3,8.3,0,0,0-12.59-9.07c-7.5,5-18.12,15.37-13.72,32.58,6.56,25.7,26.74,17.23,41.53,7.5l-2.32-3.94S119,173,116.59,161.48a9.48,9.48,0,0,1,2.5-8.36C121.83,150.19,126.3,144.79,127.79,139.35Z" fill="#68e1fd"/><path d="M127.79,139.35a8.3,8.3,0,0,0-12.59-9.07c-7.5,5-18.12,15.37-13.72,32.58,6.56,25.7,26.74,17.23,41.53,7.5l-2.32-3.94S119,173,116.59,161.48a9.48,9.48,0,0,1,2.5-8.36C121.83,150.19,126.3,144.79,127.79,139.35Z" fill="#fff" opacity="0.46"/><path d="M140.69,166.42s6.38-3.72,8.82,0-6.5,3.94-6.5,3.94Z" fill="#f4a28c"/><path d="M158.76,165.71a4.26,4.26,0,0,0-2-2.65,1.66,1.66,0,0,0-2.33.53,5.31,5.31,0,0,0-.8,3.11,6.46,6.46,0,0,0,.45,2.66,3.13,3.13,0,0,0,1.94,1.79C159.32,172,159.32,167.67,158.76,165.71Z" fill="#f4a28c"/><circle cx="127.39" cy="81.25" r="9.41" fill="#e6e6e6"/><circle cx="134.9" cy="87.26" r="5.27" fill="#c9c9c9"/><polygon points="279.01 183.9 269.85 183.9 265.27 191.83 269.85 199.76 279.01 199.76 283.59 191.83 279.01 183.9" fill="#e6e6e6"/><polygon points="292.85 195.04 283.7 195.04 279.12 202.98 283.7 210.91 292.85 210.91 297.43 202.98 292.85 195.04" fill="#e6e6e6"/><polygon points="265.11 80.23 255.95 80.23 251.38 88.16 255.95 96.09 265.11 96.09 269.69 88.16 265.11 80.23" fill="#e6e6e6"/><polygon points="280.77 71.54 271.61 71.54 267.03 79.47 271.61 87.41 280.77 87.41 285.35 79.47 280.77 71.54" fill="#e6e6e6"/><polygon points="280.77 90.53 271.61 90.53 267.03 98.46 271.61 106.39 280.77 106.39 285.35 98.46 280.77 90.53" fill="#e6e6e6"/><path d="M262.91,239.14s-8-2.19-9.75-9.64c0,0,12.41-2.51,12.76,10.3Z" fill="#68e1fd" opacity="0.58"/><path d="M263.89,238.35s-5.59-8.85-.67-17.12c0,0,9.44,6,5.25,17.14Z" fill="#68e1fd" opacity="0.73"/><path d="M265.34,238.35s3-9.34,11.89-11.11c0,0,1.68,6.07-5.79,11.14Z" fill="#68e1fd"/><polygon points="259.53 238.14 261.15 249.25 271.38 249.29 272.88 238.2 259.53 238.14" fill="#24285b"/></svg>