<svg id="Layer_1" data-name="Layer 1" xmlns="http://www.w3.org/2000/svg" viewBox="0 0 400 300"><path d="M252.35,202.13a25.42,25.42,0,0,1-18.92-13.45c-2.57-5.11-3.72-11.86.3-19.75,9.21-18,24.7-23.77,35.64-20.18s12.37,22.21,9.53,32.41C276.46,189.9,270.25,205,252.35,202.13Z" fill="#ffd200"/><path d="M252.35,202.13a25.42,25.42,0,0,1-18.92-13.45c-2.57-5.11-3.72-11.86.3-19.75,9.21-18,24.7-23.77,35.64-20.18s12.37,22.21,9.53,32.41C276.46,189.9,270.25,205,252.35,202.13Z" fill="#fff" opacity="0.74"/><path d="M182.11,186a25.46,25.46,0,0,1-23.22-.3c-5-2.74-9.81-7.64-11-16.42-2.68-20.05,6.79-33.6,17.83-36.86s22.81,11.22,26.27,21.23C195,162.25,198.44,178.18,182.11,186Z" fill="#ffd200"/><path d="M208.17,76.84s5.36-24.16,36.68-35.73S295.91,54.39,285,66.64s-39.14-7.7-63.48,15Z" fill="#68e1fd"/><path d="M208.17,76.84s5.36-24.16,36.68-35.73S295.91,54.39,285,66.64s-39.14-7.7-63.48,15Z" opacity="0.09"/><path d="M224.08,85.38s9.53-29,41.19-20.27,34.39,43.13,11.58,49.06,1.13-48-45.22-21.7Z" fill="#68e1fd"/><path d="M183.92,121.28s-38.33-12.25-54.24-4.6-4.15,17,2.49,14.91,36.87-3.67,43.71,4-13.23,27.57-12.39,50.55,56.41,24,68.14,10.53,2.15-43.89,2.15-43.89,11.92,12.77,28.77,2.38c19.43-12,10.38-22.14,4.25-21.27-3.05.43-6.64,3.29-9.47,6.06a7.11,7.11,0,0,1-9.73.15C239.72,133,221.08,121.28,183.92,121.28Z" fill="#68e1fd"/><ellipse cx="203.07" cy="257.32" rx="122.2" ry="11.65" fill="#e6e6e6" opacity="0.3"/><path d="M142.36,121.85a27.6,27.6,0,0,1-25.08,2.22c-5.72-2.41-11.42-7.19-13.64-16.52-5.08-21.35,3.66-37,15.22-41.73s25.83,9.63,30.66,20.05C153.66,94.8,159.13,111.61,142.36,121.85Z" fill="#ffd200"/><path d="M171.74,183.22s2-17.79,11.23-30.06.26-18.33,9.2-27,31.91-7.87,31.91,4.09,1.28,20.91,4.09,29.58,6.63,28.34-2.81,34S168.42,213.81,171.74,183.22Z" fill="#fff" opacity="0.39"/><path d="M165.17,200.54A25.47,25.47,0,0,1,142,199.4c-4.91-2.93-9.52-8-10.37-16.81-2-20.14,8-33.33,19.17-36.2s22.38,12.06,25.47,22.19C178.9,177.26,181.79,193.3,165.17,200.54Z" fill="#ffd200"/><path d="M165.17,200.54A25.47,25.47,0,0,1,142,199.4c-4.91-2.93-9.52-8-10.37-16.81-2-20.14,8-33.33,19.17-36.2s22.38,12.06,25.47,22.19C178.9,177.26,181.79,193.3,165.17,200.54Z" opacity="0.08"/><path d="M237.24,205.85a25.5,25.5,0,0,1-22.56-5.49c-4.27-3.8-7.84-9.65-7-18.46,1.88-20.15,14.14-31.23,25.63-31.94s19.72,16,20.85,26.58C255.11,185.56,254.92,201.86,237.24,205.85Z" fill="#ffd200"/><path d="M126.55,183.12s86.81,23.55,155.23,0l-9.22,35.74a53.8,53.8,0,0,1-46.49,40.05,178,178,0,0,1-47.48-1.71,53.63,53.63,0,0,1-43.14-39.6Z" fill="#24285b"/><path d="M126.55,183.12s-6.89-5.41-12.51-2.61a13.22,13.22,0,0,1,12.51-4.34l-4.85-9.7s12.51,3.83,15.57,11v-13l9.45,13.79L152.08,167s2.3,11.75,9.45,13.53,5.61-14.29,5.61-14.29,5.88,12.36,7.92,16.9a24.4,24.4,0,0,1,7.15-12.05s-2.81,9.81,3.32,12.05,7.15-12.05,7.15-12.05L198,183.36s3.06,4.56,11.23,1.24,2.56-13,2.56-13S222,180.13,220,185.81c0,0,3.57-7.91,9.7-10.69,0,0-4.85,9.6,2.3,10.69s7.14-12.4,7.14-12.4l5.37,12.46,8.68-15.06,2,12.31,10.6-13.53.15,12.15s5.16-11.78,12.57-13.31c0,0-2.79,6.67-1.19,10.89,0,0,8.68-7.66,14.64.71,0,0-9.41,0-10.22,3.09C281.78,183.12,224.59,211.26,126.55,183.12Z" fill="#68e1fd"/><path d="M201.2,76.56a37,37,0,0,0-22.28,6.27c-7.26,5-13.18,13.17-5.93,25.57,13.83,23.62,43,28.77,55.68,19.26s17-33.41,4.61-42.63C222.71,77.17,216.19,77.1,201.2,76.56Z" fill="#68e1fd"/><path d="M207.81,77.89l15.53-34.64,6,36.6S219.91,83.36,207.81,77.89Z" fill="#24285b"/><circle cx="209.81" cy="95.11" r="5.04" fill="#24285b"/><path d="M174.87,90.57s10.08,1,14.26,14.11-.27,19.82-.27,19.82-20-12.56-19.17-28.26Z" fill="#fff" opacity="0.39"/><circle cx="208.17" cy="94.11" r="1.64" fill="#fff"/><ellipse cx="169.69" cy="90.81" rx="6.19" ry="5.43" fill="#24285b"/><ellipse cx="203.14" cy="224.7" rx="25.02" ry="18.34" fill="#fff" opacity="0.19"/><circle cx="112.62" cy="85.37" r="3.68" fill="#fff"/><circle cx="126.47" cy="75.4" r="3.68" fill="#fff"/><circle cx="141.45" cy="83.74" r="3.68" fill="#fff"/><circle cx="125.45" cy="93.56" r="3.68" fill="#fff"/><circle cx="141.45" cy="96.78" r="3.68" fill="#fff"/><circle cx="111.66" cy="101.94" r="3.68" fill="#fff"/><path d="M106.4,114.62s35.85-1.86,46.9-17.37c0,0,5.89,20.44-15.54,26.89C137.76,124.14,117.57,132.88,106.4,114.62Z" fill="#24285b"/><path d="M99.32,68.71h0l-8.13-.47a.5.5,0,0,1,0-1l8.13.47a.5.5,0,0,1,0,1Z" fill="#24285b"/><path d="M103.1,61.22a.48.48,0,0,1-.36-.16l-5.57-5.94a.49.49,0,0,1,0-.7.5.5,0,0,1,.71,0l5.57,5.94a.49.49,0,0,1-.37.84Z" fill="#24285b"/><path d="M111.48,60.06h-.1a.49.49,0,0,1-.39-.59l1.65-8a.5.5,0,1,1,1,.2l-1.65,8A.5.5,0,0,1,111.48,60.06Z" fill="#24285b"/></svg>