<svg id="Layer_1" data-name="Layer 1" xmlns="http://www.w3.org/2000/svg" viewBox="0 0 400 300"><path d="M258.29,167.19l-4.82-1.35c7.87-27.91,9.4-51.53,4.55-70.19C253.93,79.88,245.41,68,232.7,60.18s-29-10.92-46.16-9c-15.46,1.69-29.75,7.39-38.24,15.27-31.18,28.92-11.76,95.45-11.56,96.12L132,164c-.85-2.85-20.48-70.2,13-101.22,19-17.67,61.76-24.34,90.41-6.83,13.85,8.47,23.12,21.42,27.55,38.48C267.94,113.92,266.4,138.42,258.29,167.19Z" fill="#68e1fd"/><path d="M216.34,150.79a22.5,22.5,0,0,1-20-4.85,18.44,18.44,0,0,1-6.21-16.32c1.66-17.81,12.5-27.61,22.67-28.24s17.43,14.19,18.43,23.5C232.13,132.86,232,147.27,216.34,150.79Z" fill="#ffd200"/><path d="M184.35,149.19a22.53,22.53,0,0,1-20.52-.44c-4.42-2.47-8.61-6.84-9.58-14.61-2.21-17.75,6.27-29.65,16.06-32.45s20.08,10.1,23.06,19C195.92,128.28,198.86,142.39,184.35,149.19Z" fill="#ffd200"/><path d="M184.35,149.19a22.53,22.53,0,0,1-20.52-.44c-4.42-2.47-8.61-6.84-9.58-14.61-2.21-17.75,6.27-29.65,16.06-32.45s20.08,10.1,23.06,19C195.92,128.28,198.86,142.39,184.35,149.19Z" fill="#fff" opacity="0.74"/><path d="M190.77,177.11a27.61,27.61,0,0,1-24.47-6c-4.64-4.11-8.51-10.46-7.62-20,2-21.85,15.34-33.86,27.8-34.63s21.38,17.4,22.61,28.82C210.14,155.11,209.94,172.79,190.77,177.11Z" fill="#ffd200"/><path d="M190.77,177.11a27.61,27.61,0,0,1-24.47-6c-4.64-4.11-8.51-10.46-7.62-20,2-21.85,15.34-33.86,27.8-34.63s21.38,17.4,22.61,28.82C210.14,155.11,209.94,172.79,190.77,177.11Z" fill="#fff" opacity="0.4"/><path d="M160.67,179.84a27.61,27.61,0,0,1-24.47-6c-4.64-4.11-8.51-10.46-7.62-20,2-21.85,15.34-33.86,27.81-34.64s21.38,17.41,22.61,28.83C180.05,157.84,179.84,175.52,160.67,179.84Z" fill="#ffd200"/><path d="M240.57,183.38A29.14,29.14,0,0,1,214.11,181c-5.49-3.57-10.51-9.6-11.07-19.72-1.27-23.12,10.75-37.73,23.64-40.48s25,14.85,28.08,26.58C257.38,157.41,259.92,175.89,240.57,183.38Z" fill="#ffd200"/><path d="M240.57,183.38A29.14,29.14,0,0,1,214.11,181c-5.49-3.57-10.51-9.6-11.07-19.72-1.27-23.12,10.75-37.73,23.64-40.48s25,14.85,28.08,26.58C257.38,157.41,259.92,175.89,240.57,183.38Z" opacity="0.08"/><path d="M127.45,171.11,112.39,165s8.94-5.87,17.36-2.55l-4.85-15.32,18.89,12-2-13.79,20.43,14.05,5.36-14.05,8.94,15.07a36,36,0,0,1,15.06-11.49L188,162.43s12.76-5.11,11.23-14.81c0,0,8.68,5.62,5.62,14.81l6.38-17.11,7.4,16.09s8.43-6.9,6.64-16.09c0,0,5.62,10.73,6.13,14.56l11.23-14.56,1.54,14.56s6.89-13.54,17.61-12l-4.85,12.76s6.13-4.3,12.51-2.53L261,172.39Z" fill="#24285b"/><path d="M129.75,180.56l8.4,37.86A33.92,33.92,0,0,0,171.26,245h49.3a33.92,33.92,0,0,0,33.54-28.86l5.35-35.56Z" fill="#68e1fd"/><rect x="118.52" y="168.56" width="156.26" height="24" rx="12" fill="#68e1fd"/><rect x="118.52" y="168.56" width="156.26" height="24" rx="12" fill="#fff" opacity="0.39"/><path d="M227.54,192.56S237.84,236.39,203,245h17.46A34,34,0,0,0,254,216.1l3.61-23.54Z" opacity="0.09"/><path d="M194.6,188s-17.61-13-23.23-5.87-3.32,23.49,3.32,26,22-7.15,22-7.15Z" fill="#24285b"/><path d="M205.19,188s17.62-13,23.23-5.87,3.33,23.49-3.31,26-22-7.15-22-7.15Z" fill="#24285b"/><rect x="187.2" y="182.09" width="23.62" height="23.62" rx="11.81" fill="#24285b"/><rect x="187.2" y="182.09" width="23.62" height="23.62" rx="11.81" fill="#fff" opacity="0.19"/></svg>