<svg id="Layer_1" data-name="Layer 1" xmlns="http://www.w3.org/2000/svg" viewBox="0 0 400 300"><path d="M100.39,101.55s-48.9,99.76,40.14,122.32,153.37,5.93,163.15-51.46S290.23,66.62,224.39,56.7,121,65,100.39,101.55Z" fill="#e6e6e6" opacity="0.51"/><ellipse cx="205.3" cy="246.54" rx="127.99" ry="17.14" fill="#e6e6e6" opacity="0.3"/><path d="M178.28,158.49c54.77,4.73,23.95,44.57,44.44,46.35s23.81,15.75,23.81,15.75c9.32-17,19-20.92,26-20.94a6.25,6.25,0,0,1,5.22,9.75l-20.13,29.88a7,7,0,0,1-7.56,2.85A257,257,0,0,0,196.19,234c-22.5-.82-44.53,5.75-55.32,9.58A10.66,10.66,0,0,1,129,240.22c-9.33-11.46-27.5-35.65-16.2-37.45,14.85-2.38,26.73,17.22,26.73,17.22,3.86-8.91,17.82-14.55,17.82-14.55l2.08-11.88,18.82-35.07" fill="#68e1fd"/><path d="M184.35,86.87a50.83,50.83,0,0,0-30.63,8.61c-10,6.85-18.13,18.12-8.15,35.17,19,32.47,59.13,39.54,76.56,26.47s23.36-45.93,6.33-58.61C213.93,87.7,205,87.61,184.35,86.87Z" fill="#68e1fd"/><path d="M179.36,242.76s-34.75-18.12-22-52.57,39.5-48.12,60-44,27,37.42,24.05,56.43S228.07,257.31,179.36,242.76Z" fill="#ffd200"/><path d="M220.31,96.31s41.78-53,70.34-40.3-11.44,38.75-60.17,50.45Z" fill="#68e1fd"/><path d="M228.88,96.48s35.44-35.31,57.43-32.42-53,37.63-53,37.63Z" opacity="0.09"/><path d="M203.78,94.81s11.4-66.5,42.55-69,8.45,39.51-28.77,73.06Z" fill="#68e1fd"/><path d="M211.39,90.87s14.27-47.95,35-55.92-28.58,58.37-28.58,58.37Z" opacity="0.09"/><path d="M198.44,85.77,226.2,48.32l-2.44,45.47S211.51,95.51,198.44,85.77Z" fill="#24285b"/><circle cx="196.19" cy="112.37" r="6.93" fill="#24285b"/><path d="M148.15,106.12s13.87,1.39,19.61,19.41-.37,27.24-.37,27.24S139.93,135.51,141,113.92Z" fill="#fff" opacity="0.39"/><circle cx="193.94" cy="110.99" r="2.25" fill="#fff"/><ellipse cx="141.03" cy="106.46" rx="8.51" ry="7.46" fill="#24285b"/><path d="M233.12,162.63s9.5-2.63,11.88,12.22-5.65,16-11.88,12.17S223.61,167.35,233.12,162.63Z" fill="#68e1fd"/><circle cx="189.33" cy="167.66" r="6.29" fill="#fff"/><circle cx="212" cy="156.73" r="6.29" fill="#fff"/><circle cx="217.92" cy="182.62" r="6.29" fill="#fff"/><circle cx="195.44" cy="196.03" r="6.29" fill="#fff"/><circle cx="225.94" cy="210.59" r="6.29" fill="#fff"/><circle cx="173.99" cy="190.19" r="6.29" fill="#fff"/><path d="M154.57,204.3s45.59,1.87,73.7,30.22l-4.06,3.84s-16.14,15.12-43.94,5.36C180.27,243.72,153,231.48,154.57,204.3Z" fill="#24285b"/><path d="M155.15,213.12s36.29-3.13,67.37,26.57c0,0,1.88-.12,5.75-5.17,0,0-25-28.79-73.7-30.22A32.22,32.22,0,0,0,155.15,213.12Z" fill="#fff"/><polygon points="202.06 80.89 224.52 79.61 224.67 76.74 204.11 78.12 202.06 80.89" fill="#fff" opacity="0.2"/><polygon points="211.95 67.54 225.31 64.78 225.45 62.28 214.37 64.28 211.95 67.54" fill="#fff" opacity="0.2"/><path d="M174,240.05s-16.19-42.43,11-67.82,34.63-25.4,34.63-25.4-31.89-10.5-55.79,29.5c0,0-17.64,27.55-3.94,49.32A51.46,51.46,0,0,0,174,240.05Z" opacity="0.09"/><path d="M158.74,186.57s-7.15-5.36,0-16.08,20.34-6.37,15.25,4.73S158.74,186.57,158.74,186.57Z" fill="#68e1fd"/><path d="M301.87,228.54s-10.53-2.87-12.81-12.67c0,0,16.3-3.29,16.76,13.54Z" fill="#68e1fd" opacity="0.58"/><path d="M303.16,227.5s-7.36-11.63-.89-22.49c0,0,12.4,7.87,6.89,22.51Z" fill="#68e1fd" opacity="0.73"/><path d="M305.05,227.5s3.89-12.27,15.63-14.59c0,0,2.2,8-7.61,14.63Z" fill="#68e1fd"/><polygon points="297.42 227.23 299.55 241.82 312.99 241.88 314.97 227.3 297.42 227.23" fill="#24285b"/></svg>