<svg id="Layer_1" data-name="Layer 1" xmlns="http://www.w3.org/2000/svg" viewBox="0 0 400 300"><path d="M113.6,93.18s-48.51,90.33,39.83,110.75,152.17,5.38,161.87-46.59S302,61.56,236.62,52.58,134,60.05,113.6,93.18Z" fill="#e6e6e6" opacity="0.3"/><polygon points="138.57 151.5 152.16 129.42 165.45 154.2 188.71 134.18 201.65 162.05 220.73 141.51 236.62 165.07 255.17 142.72 266.65 172.62 250.94 186.22 230.7 193.06 176.32 184.41 147.63 179.27 140.98 161.24 138.57 151.5" fill="#24285b"/><path d="M161.52,155.91s1.21-25.38,30.61-34.64,62,19.33,52.37,55.58S149.84,207.06,161.52,155.91Z" fill="#ffd200"/><ellipse cx="199.53" cy="247.64" rx="115.77" ry="12.91" fill="#e6e6e6" opacity="0.3"/><path d="M193.25,121.47S175.9,98.05,150.8,99.94a3.84,3.84,0,0,0-2,6.93c8.23,6.08,19.7,17.66,17.69,34C166.48,140.85,180.64,124.85,193.25,121.47Z" fill="#ffd200"/><path d="M193.25,121.47S175.9,98.05,150.8,99.94a3.84,3.84,0,0,0-2,6.93c8.23,6.08,19.7,17.66,17.69,34C166.48,140.85,177.49,123.7,193.25,121.47Z" opacity="0.09"/><path d="M222.32,126.32s16.11-17.52,42.81-9.63a3.39,3.39,0,0,1,.24,6.42c-11.12,4.25-28.78,14.09-31.09,34.19Z" fill="#ffd200"/><path d="M186,159.72s-2-31.61,29.43-37.74c0,0-28.79-10.77-49,18.87S179.08,176.79,186,159.72Z" opacity="0.09"/><path d="M195.12,248.6s-86.13,10-65-110.45L145,161.7,170.41,137l8,28.83,25.5-20.51,13.35,20,26.32-17.56L251,174.36l21.34-24.29S303.58,257.24,195.12,248.6Z" fill="#68e1fd"/><circle cx="212.07" cy="98.11" r="30.01" fill="#ffd200"/><circle cx="209.64" cy="90.98" r="4.24" fill="#24285b"/><circle cx="210.58" cy="89.8" r="1.69" fill="#fff"/><path d="M238.87,84.61h37.61l-34.65,17.32S232.45,95.09,238.87,84.61Z" fill="#ffd200"/><path d="M238.87,84.61h37.61l-34.65,17.32S232.45,95.09,238.87,84.61Z" fill="#fff" opacity="0.64"/><path d="M130.38,202.84S192.67,226,271.8,211.41l-6.64,13s-59.43,10.88-130-8.66A52.48,52.48,0,0,1,130.38,202.84Z" fill="#fff" opacity="0.28"/><circle cx="158.9" cy="183.3" r="9.77" fill="#fff"/><circle cx="198.55" cy="175.44" r="9.77" fill="#fff"/><circle cx="238.43" cy="194.98" r="9.77" fill="#fff"/><path d="M127.26,161.24a14.86,14.86,0,0,1,5.56,14.2c-1.51,9.27-6,7.86-6,7.86S126.52,169.3,127.26,161.24Z" fill="#fff"/><path d="M275.9,170.43s-6.23,3.9-5.93,12.87S275.7,195,275.7,195A90.87,90.87,0,0,0,275.9,170.43Z" fill="#fff"/><rect x="178.41" y="69.3" width="1" height="8.14" transform="translate(95.41 247.78) rotate(-86.71)" fill="#24285b"/><rect x="183.48" y="59.08" width="1" height="8.14" transform="translate(6.58 142.94) rotate(-43.16)" fill="#24285b"/><rect x="191.89" y="60.47" width="8.14" height="1" transform="translate(96.47 240.48) rotate(-78.28)" fill="#24285b"/></svg>