<svg id="Layer_1" data-name="Layer 1" xmlns="http://www.w3.org/2000/svg" viewBox="0 0 400 300"><path d="M104.4,114.84s-48.51,90.32,39.83,110.75S296.4,231,306.11,179,292.76,83.21,227.43,74.23,124.83,81.7,104.4,114.84Z" fill="#e6e6e6" opacity="0.3"/><rect x="191.56" y="105.3" width="2" height="59.69" fill="#c1c1c1"/><path d="M236.36,176.19s9.59,3.11,27.89,16.89,27.18-3.12,19-13.42S245.06,163,234.23,164.91,224.31,174.1,236.36,176.19Z" fill="#68e1fd"/><path d="M222.61,160.26s7.36-27.36,32.58-20.91S293,167,281.82,177.76,262.21,150,247.63,155s-15.85,10.49-15.85,10.49Z" fill="#68e1fd"/><path d="M150.48,229.46c-4.43-11.58-3.49-24.65,3.32-35,4.76-7.23,12.76-13.85,26.14-14.54,30.6-1.55,49.86,14.42,53.43,31.49s-19.77,33-35.31,37C184.74,251.83,160.28,255.09,150.48,229.46Z" fill="#ffd200"/><path d="M199.93,223.22s-8-.22-9.75-10.94-23.73-11.24-27.05-2.05-9.78,21.1,2.64,37.11c0,0-12.62-3.84-17.27-24.81,0,0-3.05-14.44,4.64-27s49.65-3.14,49.65-3.14Z" opacity="0.09"/><path d="M208,161.85s-45.77-17.74-54.13.76,3.53,36-1,46.45c-4.12,9.44-1.33,15.42,5.81,17.39,4.09,1.12,5.57-4.3,6.08-9.15A21.59,21.59,0,0,1,170,205.43a36.32,36.32,0,0,0,5.94-9.08s19,6,35.94-1.46S226.62,175.77,208,161.85Z" fill="#68e1fd"/><path d="M243.31,184.35a27.3,27.3,0,0,1-4.4,16.55c-3.61,5.43-9.61,9.9-18.86,4.66-17.63-10-21.74-31.52-14.84-41s24.54-12.93,31.49-3.86C242.64,168.43,242.76,173.26,243.31,184.35Z" fill="#68e1fd"/><circle cx="229.49" cy="178.17" r="3.73" fill="#24285b"/><path d="M233.23,204s-.86-7.45-10.6-10.4S208,194,208,194s9.5,14.64,21.12,13.89Z" fill="#fff" opacity="0.39"/><circle cx="230.26" cy="179.37" r="1.21" fill="#fff"/><path d="M196.13,194s-5.51,26.17,3.8,29.21,11.15-30.42,11.15-30.42-5-14.26-10.42-15.27S196.13,194,196.13,194Z" fill="#68e1fd"/><ellipse cx="233.1" cy="207.82" rx="4.02" ry="4.58" transform="translate(-2.95 3.35) rotate(-0.82)" fill="#24285b"/><path d="M177.35,152.85s19.06-.35,30.68,9c0,0-12.29,9.29-12.61,37.18,0,0-8.64,3.14-19.52-2.68C175.9,196.35,167,171,177.35,152.85Z" fill="#24285b"/><path d="M231.51,156.75s-19.34-2.24-25.87,15.85c0,0-24.95-15.61-42.63-2.51L151.66,187s-4-18,5.54-28.7c0,0,5.34-5,19.34-3.94s.17,0,.17,0l.64-1.54s18-.14,30.68,9A23.91,23.91,0,0,1,231.51,156.75Z" opacity="0.09"/><ellipse cx="192.56" cy="66.68" rx="39.13" ry="45.65" fill="#e6e6e6"/><path d="M199.4,39.32a5.08,5.08,0,0,1,7.38-6.41c5.7,3.75,11.23,10.13,13.48,21,5.42,26.26-19.13,18.89-20.31,4.76C199.15,49.06,202.29,45.63,199.4,39.32Z" fill="#fff" opacity="0.56"/><polygon points="192.56 109.53 187.09 117.98 198.9 117.98 192.56 109.53" fill="#e6e6e6"/></svg>