<svg id="Layer_1" data-name="Layer 1" xmlns="http://www.w3.org/2000/svg" viewBox="0 0 400 300"><polygon points="242.14 201.71 244.07 261.62 155.89 261.62 154.02 201.71 242.14 201.71" fill="#24285b"/><path d="M237.21,91.94s40.39,2.48,38.71,68.61l-32.51-1.12Z" fill="#68e1fd"/><path d="M237.21,91.94s40.39,2.48,38.71,68.61l-32.51-1.12Z" fill="#fff" opacity="0.34"/><path d="M193.77,69s-2.25,16.35-6.26,20.12H208.8s-6.9-6.85-6.26-21.21Z" fill="#f4a28c"/><path d="M193.77,69s-2.25,16.35-6.26,20.12H208.8s-6.9-6.85-6.26-21.21Z" opacity="0.09"/><path d="M187.87,55.73s-.75,19.64,9.53,20.87,7.82-21.15,7.82-21.15.56-11-5.48-12.11S185.74,41.68,187.87,55.73Z" fill="#f4a28c"/><path d="M188,60.27s-5.35-1.31-4.91,1.4-.23,6.38,5.77,4.4Z" fill="#f4a28c"/><path d="M205.16,58.89s5.21-1.79,5,.94.82,6.34-5.33,4.93Z" fill="#f4a28c"/><path d="M142.21,172.51a92.25,92.25,0,0,1-9.46-37.68c0-1,0-2,0-3,.08-18.17,5-41,29.39-41.78,40.57-1.25,91.59-6.27,98.81,20.38s-18.77,91.29-18.77,91.29l-85.49.67Z" fill="#68e1fd"/><path d="M165.73,97.57s22.48,16.29,15.75,48l-6.72,31.76L203,150.28l5.31-28.12s12.94-7.69,15.19.64,0,30.52,0,30.52L200.9,202l-44.25.34-6.84-34.26,9.53-28.86Z" opacity="0.09"/><path d="M188,60.27s2.15-3,3.78-10.17c0,0,14.64,3.43,18.41-6.25,0,0-4.36,1.57-9.35-3s-25-4.44-15.62,18.85Z" fill="#24285b"/><circle cx="199.88" cy="122.16" r="6.82" fill="#fff"/><circle cx="208.33" cy="122.16" r="6.82" fill="#ffd200"/><path d="M206.38,48.52s3.73,7.77-1.22,10.37L203,48.52Z" fill="#24285b"/><path d="M200.9,202s-18.86,33.8-16.24,59.58H155.89L154,201.71Z" opacity="0.09"/><polygon points="211.56 148.27 196.8 148.27 194.75 126.55 213.82 126.55 211.56 148.27" fill="#24285b"/><path d="M171.38,111.16a20.25,20.25,0,0,0-35.17-12.61c-9.83,10.58-18.89,27.53-17.46,53.65,3,54.55,15.93,60.48,33.59,54.59,15.69-5.23,56.46-53.47,56.46-53.47l-7.9-7.71s-25.73,23-45.16,30.82C155.74,176.43,173,138.27,171.38,111.16Z" fill="#f4a28c"/><path d="M115.16,151.57,165.6,155s22.42-52.23-9.15-63S115,141.28,115.16,151.57Z" fill="#68e1fd"/><path d="M115.16,151.57,165.6,155s22.42-52.23-9.15-63S115,141.28,115.16,151.57Z" fill="#fff" opacity="0.34"/><path d="M200.9,145.61s7.3-5.42,16.26-3.18,2.33,8.7-8.36,10.89Z" fill="#f4a28c"/><path d="M194.74,117.12l-.92,1.92s.74,1,3.07,0,1.85-1.17,4,.88,1.78.84,4.77,0,5-2.43,6.82.37,2.66,1.87,2.66,1.87.71-6.16-5.37-6.82S197.64,112.73,194.74,117.12Z" fill="#24285b"/><path d="M227.61,86.57h.4a2,2,0,0,1,2,2V101a0,0,0,0,1,0,0h-4.48a0,0,0,0,1,0,0V88.62A2,2,0,0,1,227.61,86.57Z" fill="#24285b"/><polygon points="118.75 152.2 163.84 154.95 159.73 166.65 119.41 161.71 118.75 152.2" opacity="0.09"/><path d="M278.75,169.51c-3.45-13.21-14.43-48-33.56-60.33,0,0-15.2-15.74-20.68-11.61-4.66,3.52-2,14.74,8.47,16.69a7.23,7.23,0,0,1,6,7.17c-.31,17,.91,59.14,20,64.72,7.32,2.14,12.17.48,15.34-2.17A14.19,14.19,0,0,0,278.75,169.51Z" fill="#f4a28c"/></svg>