<svg id="Layer_1" data-name="Layer 1" xmlns="http://www.w3.org/2000/svg" viewBox="0 0 400 300"><path d="M180.61,253.36a26,26,0,0,1,50-3c.37-9.5,2.36-21.24,11.44-24.07,4.76-1.49,9.88.2,14.54,2A261.45,261.45,0,0,1,297,248.26,81.15,81.15,0,0,1,287.15,218c-.6-5.06.2-11.58,5.07-13.08,2.84-.88,5.85.46,8.51,1.78q13.14,6.51,26.07,13.39a314.5,314.5,0,0,1-42.69-52c-2.09-3.18-4.23-6.51-7.49-8.47s-7.24-2.28-11-2.32c-25-.21-51.67,10.75-67.52,30.47C184.13,205.15,184.4,232.35,180.61,253.36Z" fill="#ffd200"/><path d="M128.38,200.56c8.39-5.49,16.79-11.2,24-18.22,5-4.86,7.84-11.08,12.67-15.92,12.92-12.95,22.07-23.78,26.54-42.24a278.14,278.14,0,0,0,7.36-48.72c-5.4,2.4-12.07-.5-15.48-5.34s-4.14-11.07-3.94-17c-3.74,6.64-9.5,12.81-17,14.12s-16.31-4.35-15.89-12c1.53,12.33-12,23.73-23.79,22.78-7.5-.61-14.36-5.19-18.63-11.37,1.46,7.83,3.91,19.86,1.09,27.63-2.43,6.72-9.42,7.09-16,7.31a148.86,148.86,0,0,1-30-2,56.19,56.19,0,0,1,23.54,25.23c2.07,4.42,3.57,9.29,3.07,14.14-.64,6.09-4.3,11.4-8.09,16.2a173.27,173.27,0,0,1-37,34.81,65.45,65.45,0,0,1,20.49-1.81c5.57.39,12.16,2.43,13.53,7.85.81,3.21-.57,6.54-2,9.52a163.35,163.35,0,0,1-12.26,21.17c3.62-3.05,7.35-6.17,11.83-7.73s9.91-1.26,13.36,2c5.07,4.78,3.7,13,1.93,19.76C94.73,222.71,112.14,211.18,128.38,200.56Z" fill="#ffd200"/><path d="M250.09,61l6,14.82c1.72,4.22,3.71,8.77,7.72,11s9,1.39,13.07-.47a28.56,28.56,0,0,0,14.74-15.49c-.18,7.63-.09,16.05,4.93,21.81a26.15,26.15,0,0,0,8,5.69,79.11,79.11,0,0,0,45.16,8.05c-4.29,2.14-8.68,4.36-12,7.87s-5.25,8.64-3.74,13.19a15,15,0,0,0,5.82,7.15,29.58,29.58,0,0,0,25.86,4.15c-10.38,1.66-20.77,4.81-29.21,11.09s-14.69,16.08-14.84,26.6c0,1,1.2,2.42,1.66,1.49a74.21,74.21,0,0,0-46.81,3.53c-4.88,2.06-10.12,4.71-15.2,3.22-3-.88-5.42-3.11-7.38-5.55-8.32-10.33-9.83-24.44-10.41-37.69-.63-14.27-1.21-29-.58-43.27C243.41,86.91,254.58,72.05,250.09,61Z" fill="#ffd200"/><path d="M337.77,166.77c-.21,9.81-5.37,18.87-11.64,26.41-8.62,10.36-19.93,18.85-33,22.24s-27.86,1.13-38.13-7.58A85.18,85.18,0,0,1,201.85,232l-1.46.1a85.18,85.18,0,0,1-57-18.07A47.83,47.83,0,0,1,98.94,235c-17.74-2-30.5-42.54-10.45-51.75C81.16,186.58,72,181.3,69,173.83c-2.68-6.61-1.64-14.1.86-20.85.32-.88.68-1.75,1-2.61,6.22-14.29,19.59-26.73,35.17-26.65-4.55-11.12,4-23.26,13.42-30.73a96.45,96.45,0,0,1,77.41-18.81,20.76,20.76,0,0,0,6.64.65c2.47-.33,4.68-1.63,6.94-2.67a37,37,0,0,1,35.38,2.77c11.83,7.91,17.88,21.81,23.33,34.95,8.58-10.87,26.4-10.91,37.36-2.45s15.73,23,15.91,36.84C332,146.57,338,157,337.77,166.77Z" fill="#68e1fd"/><path d="M123.72,170.21c4.5-3.13,11.29-3.07,15.08.9,1.2-7.74,4.78-15.33,10.95-20.13s15.14-6.33,22-2.64a12.22,12.22,0,0,1,2.8-9.2,24.63,24.63,0,0,1,7.74-6,24.12,24.12,0,0,1,9.93-3.26,11.81,11.81,0,0,1,9.54,3.55,10.06,10.06,0,0,0-7.51-2,31.09,31.09,0,0,0-13.89,6.34c-4.84,4.53-5.83,11.73-6.54,18.32.12-1.09-4.63-3-5.44-3.24a18.33,18.33,0,0,0-6.73-.94,14.47,14.47,0,0,0-10.29,5c-5.51,6.79-7,15.91-7.91,24.6-3.48-3.75-8.77-5.13-13.77-6.23a12.7,12.7,0,0,0-5.26-.39,10.15,10.15,0,0,0-4.37,2.36,22.73,22.73,0,0,0-5.43,6.74C116.76,179,119.17,173.37,123.72,170.21Z" opacity="0.09"/><path d="M284.59,130.79c4.92,8.17,6.69,18,6,27.52.43-9.68-4.14-19.05-10.53-26.33a36.62,36.62,0,0,0-11.77-9.27c-10.13-4.72-18.37-.7-28.43-.21,2.84-5.36,12.14-8.25,17.85-8.26C268.79,114.23,279,121.53,284.59,130.79Z" opacity="0.09"/><path d="M149.72,235.53c-2.3,1.06-4.58,2.58-5.51,4.92s.14,5.58,2.61,6.11c1.91.41,3.85-.93,4.81-2.63a7.49,7.49,0,0,0-1.46-9" fill="#e6e6e6"/><path d="M257.4,205.34c8.15-4.09,13.86-12.4,15.5-21.37-5.72,6.83-12.6,13-20.94,16.13a29.12,29.12,0,0,1-25.46-2.2C225,210.44,251.28,208.42,257.4,205.34Z" opacity="0.09"/><path d="M216.66,81.07a26.43,26.43,0,0,1,11.65,20.4c-.81-6-5.06-10.84-9.39-15C213,80.76,206.62,76.14,198.61,74A51.85,51.85,0,0,1,216.66,81.07Z" opacity="0.09"/><path d="M79.25,76.65c1.22,2.89-1.53,6.61-4.65,6.29s-5.06-4.53-3.27-7.11,6.4-2.25,7.8.56" fill="#e6e6e6"/><path d="M354,197.87a4.29,4.29,0,0,0-.89-2.13,4.11,4.11,0,0,0-2.33-1.61l-3.14-.43a4.92,4.92,0,0,0-3.47.45,4.51,4.51,0,0,0-1.62,6.16,5,5,0,0,0,2.11,1.9,6.47,6.47,0,0,0,3.52,1.17,6.19,6.19,0,0,0,3.67-1,5.44,5.44,0,0,0,1.62-1.62A4.47,4.47,0,0,0,354,197.87Z" fill="#e6e6e6"/><path d="M312.58,230.35c-3.86,0-3.87,6,0,6S316.45,230.35,312.58,230.35Z" fill="#e6e6e6"/><path d="M279.5,58.57a1.43,1.43,0,0,0-.42-.64l-.4-.31a1.9,1.9,0,0,0-1-.28l-.53.07a2.06,2.06,0,0,0-.89.52l-.56.56a1.56,1.56,0,0,0-.41.64,1.4,1.4,0,0,0-.17.78,1.38,1.38,0,0,0,.17.77,1.56,1.56,0,0,0,.41.64l.41.31a2.07,2.07,0,0,0,1,.28l.53-.08a1.91,1.91,0,0,0,.88-.51l.56-.56a1.46,1.46,0,0,0,.42-.65,1.55,1.55,0,0,0,.17-.77A1.58,1.58,0,0,0,279.5,58.57Z" fill="#e6e6e6"/><path d="M218,46.64c-2.58,0-2.58,4,0,4S220.56,46.64,218,46.64Z" fill="#e6e6e6"/><path d="M58.61,127.86c-3.86,0-3.86,6,0,6S62.48,127.86,58.61,127.86Z" fill="#e6e6e6"/><path d="M37.22,112.09c-3.86,0-3.87,6,0,6S41.08,112.09,37.22,112.09Z" fill="#e6e6e6"/><path d="M201.85,232l-1.46.1a85.18,85.18,0,0,1-57-18.07A47.83,47.83,0,0,1,98.94,235c-17.74-2-30.5-42.54-10.45-51.75C81.16,186.58,72,181.3,69,173.83c-2.68-6.61-1.64-14.1.86-20.85a34.2,34.2,0,0,0,28.86,7.7c-8.19,8.17-7.47,22.76,0,31.59s20.05,12.2,31.52,10.67,22-7.35,31.21-14.3c4.34,20,21.93,34.38,40.3,43.32Z" opacity="0.09"/><path d="M183.35,132.55l-2.74-21s.76,18.2-6.37,14.64-10.32-7.32-10.32-6.76,2.13,22.9-5.69,16.71-8.58-4.7-8.58-4.7,3.94,16.52-2.06,13.14a77.74,77.74,0,0,0-11.45-5.25L149.75,151s7-6.58,21.68-2.07C171.43,148.91,172,138.84,183.35,132.55Z" fill="#ffd200"/></svg>