<svg id="Layer_1" data-name="Layer 1" xmlns="http://www.w3.org/2000/svg" viewBox="0 0 400 300"><rect x="83.47" y="48.11" width="249.9" height="177.63" fill="#e6e6e6"/><circle cx="286.6" cy="66.67" r="4.53" fill="#24285b"/><circle cx="300.07" cy="66.64" r="4.53" fill="#68e1fd"/><circle cx="312.76" cy="66.61" r="4.53" fill="#ffd200"/><rect x="83.67" y="81.62" width="249.71" height="143.88" transform="matrix(1, 0, 0, 1, -0.38, 0.52)" fill="#f2f2f2"/><rect x="124.83" y="61.82" width="146.04" height="9.05" fill="#fff"/><rect x="255.38" y="61.82" width="15.49" height="9.05" fill="#c9c9c9"/><path d="M108,59.84h1.59V57.05a23,23,0,0,0-2.32-.12c-2.31,0-3.89,1.45-3.89,4.11V63.5h-2.54v3.11h2.54v7.83h3.12V66.61h2.44l.39-3.11H106.5V61.35c0-.9.24-1.51,1.5-1.51Z" fill="#a5a5a5"/><rect x="100.84" y="102.06" width="47.99" height="45.04" fill="#24285b"/><path d="M127.38,117.63a24.21,24.21,0,0,1,2.17,6.1,2,2,0,0,1-1.67,2.22,4.32,4.32,0,0,1-4.37-1.72l-2.38-2.71a3.51,3.51,0,0,1,0-4C122.56,115.17,126.39,115.46,127.38,117.63Z" fill="#f4a28c"/><polygon points="122.33 120.52 121.76 133.29 128.82 133.1 126.4 123.88 122.33 120.52" fill="#f4a28c"/><path d="M124.82,122.29s-.6-1.37-1.6-.84-.15,2.54,1.35,2.14Z" fill="#f4a28c"/><path d="M128.39,119.87l1.58,1a.63.63,0,0,1,0,1.06l-1.27.83Z" fill="#f4a28c"/><path d="M127,126a4.66,4.66,0,0,1-2.42-1.09,7.29,7.29,0,0,0,3.17,4.31Z" fill="#ce8172" opacity="0.31"/><path d="M122,124l-2.74-4.65s-2.53-.76-1.42-2.78,2.74-1.1,3.36-3.71a2.32,2.32,0,0,1,4.21-1c.92,1.36,4.21-.1,4.15,2.29s-3.13,3.39-4,3.66C121.76,119,126.52,123.12,122,124Z" fill="#ffd200"/><path d="M100.84,147.11s3.28-12.58,20.92-13.82l7.06-.19s18.32-.49,20,14Z" fill="#68e1fd"/><path d="M117.58,133.83s-1.49-3.2,4.33-3.91,11.48-2.72,11.18,3.5C133.09,133.42,127.71,138.72,117.58,133.83Z" fill="#68e1fd"/><path d="M117.58,133.83s-1.49-3.2,4.33-3.91,11.48-2.72,11.18,3.5C133.09,133.42,127.71,138.72,117.58,133.83Z" fill="#fff" opacity="0.46"/><circle cx="105.27" cy="159.63" r="4.43" fill="#a5a5a5"/><rect x="115.47" y="157.31" width="30.54" height="5.07" rx="2.53" fill="#c9c9c9"/><circle cx="105.27" cy="173.78" r="4.43" fill="#a5a5a5"/><rect x="115.47" y="171.46" width="30.54" height="5.07" rx="2.53" fill="#c9c9c9"/><circle cx="105.27" cy="187.92" r="4.43" fill="#a5a5a5"/><rect x="115.47" y="185.6" width="30.54" height="5.07" rx="2.53" fill="#c9c9c9"/><rect x="159.04" y="102.06" width="105.45" height="30.41" fill="#fff"/><rect x="159.04" y="140.62" width="105.45" height="30.41" fill="#fff"/><rect x="159.04" y="179.17" width="105.45" height="30.41" fill="#fff"/><rect x="240.49" y="121.3" width="17.62" height="7.74" fill="#68e1fd"/><rect x="240.49" y="159.12" width="17.62" height="7.74" fill="#68e1fd"/><rect x="240.49" y="197.93" width="17.62" height="7.74" fill="#68e1fd"/><rect x="165.68" y="107.6" width="92.43" height="3.21" fill="#c9c9c9" opacity="0.28"/><rect x="165.68" y="114.06" width="92.43" height="3.21" fill="#c9c9c9" opacity="0.28"/><rect x="165.68" y="145.83" width="92.43" height="3.21" fill="#c9c9c9" opacity="0.28"/><rect x="165.68" y="152.29" width="92.43" height="3.21" fill="#c9c9c9" opacity="0.28"/><rect x="165.68" y="184.7" width="92.43" height="3.21" fill="#c9c9c9" opacity="0.28"/><rect x="165.68" y="191.16" width="92.43" height="3.21" fill="#c9c9c9" opacity="0.28"/><rect x="273.94" y="102.06" width="48.51" height="43.77" fill="#68e1fd"/><rect x="273.94" y="155.82" width="48.51" height="43.77" fill="#ffd200"/><text transform="translate(285.43 127.78)" font-size="12" fill="#24285b" font-family="Mont-HeavyDEMO, Mont" font-weight="800">ADS</text><text transform="translate(285.43 181.65)" font-size="12" fill="#24285b" font-family="Mont-HeavyDEMO, Mont" font-weight="800">ADS</text></svg>