<svg id="Layer_1" data-name="Layer 1" xmlns="http://www.w3.org/2000/svg" viewBox="0 0 400 300"><ellipse cx="205.88" cy="244.87" rx="172.62" ry="15.3" fill="#e6e6e6" opacity="0.45"/><path d="M65.39,144.75S40.49,173.44,43,197.11s22.37,40.54,22.37,40.54h8.48s-24.64-41.51-1.36-61.11S65.39,144.75,65.39,144.75Z" fill="#68e1fd"/><path d="M65.39,144.75S40.49,173.44,43,197.11s22.37,40.54,22.37,40.54h8.48s-24.64-41.51-1.36-61.11S65.39,144.75,65.39,144.75Z" fill="#fff" opacity="0.46"/><rect x="172.24" y="169.03" width="3.1" height="26.02" fill="#24285b"/><circle cx="173.6" cy="167.39" r="6.45" fill="#68e1fd"/><path d="M296.86,146.34s-6.75,1.19-8.45,14.68c-1.11,8.74-1.38,26.13-1.44,37.3a14.92,14.92,0,0,1-9.72,13.9L248,223.08s-3.13-5.9-6.66-3.28a3,3,0,0,0-1.11,3.79,5.35,5.35,0,0,1-1.13,5.49c-1.92,2.1-3.47,4.82-.22,6.1,5.67,2.22,11.47-5.28,11.47-5.28l42-9.48a20.75,20.75,0,0,0,15.37-14.54C313.61,185.27,321.87,145.23,296.86,146.34Z" fill="#f4a28c"/><path d="M296.86,146.34s-6.75,1.19-8.45,14.68c-1.11,8.74-1.38,26.13-1.44,37.3a14.92,14.92,0,0,1-9.72,13.9L248,223.08s-3.13-5.9-6.66-3.28a3,3,0,0,0-1.11,3.79,5.35,5.35,0,0,1-1.13,5.49c-1.92,2.1-3.47,4.82-.22,6.1,5.67,2.22,11.47-5.28,11.47-5.28l42-9.48a20.75,20.75,0,0,0,15.37-14.54C313.61,185.27,321.87,145.23,296.86,146.34Z" opacity="0.08"/><path d="M119.24,110.62s-1.41,7.29-3.95,11.68a3.73,3.73,0,0,1-5.12,1.34c-2.19-1.31-4.77-3.73-4.49-7.72l-.36-6.85a6.67,6.67,0,0,1,4.78-6C115,101.28,120.32,106.23,119.24,110.62Z" fill="#f4a28c"/><polygon points="105.38 110.31 95.13 132.37 107.69 137.16 110.11 119.18 105.38 110.31" fill="#f4a28c"/><path d="M117.39,110.42A29.15,29.15,0,0,1,111,108a6.21,6.21,0,0,1-1.86,6.54,5,5,0,0,1-6.41.26l2.73-9.14a7.58,7.58,0,0,1,5.53-5.43,26.22,26.22,0,0,1,3.49-.62c2.94-.31,6.31,2.55,9.19,1.45A1.79,1.79,0,0,1,126,103c-.39,2.91-2.14,7.16-6.35,7.61A7.06,7.06,0,0,1,117.39,110.42Z" fill="#ffd200"/><path d="M109.91,114.57s.73-2.76-1.39-3.14-3.21,3.61-.51,4.78Z" fill="#f4a28c"/><path d="M118.12,115.17l1.2,3.32a1.19,1.19,0,0,1-1.22,1.59l-2.88-.27Z" fill="#f4a28c"/><path d="M109.74,123.14a8.77,8.77,0,0,1-3.46-3.68s-1,4.33,2.46,9.89Z" fill="#ce8172" opacity="0.31"/><path d="M289.81,122.68S275.54,142.1,290,148s15.73-15.6,15.73-15.6L299.22,118Z" fill="#ffd200"/><path d="M286.14,109.62s.27,7.3,2.09,11.95a3.68,3.68,0,0,0,4.78,2.08c2.33-1,5.2-2.91,5.53-6.84l1.38-6.61a6.56,6.56,0,0,0-3.74-6.6C291.73,101.17,285.75,105.17,286.14,109.62Z" fill="#f4a28c"/><path d="M293.39,137.17l12.36-4.77s21.77,3.13,27.44,28.87,0,54.52,0,54.52l-35-1.74s5.31-16.58-5.15-23.12S266.68,169.35,293.39,137.17Z" fill="#68e1fd"/><polygon points="299.67 111.4 306.33 134.41 293.39 137.17 293.74 119.32 299.67 111.4" fill="#f4a28c"/><path d="M294.62,114.86s-.29-2.8,1.83-2.84,2.58,4-.23,4.73Z" fill="#f4a28c"/><path d="M286.55,114.21l-1.67,3a1.18,1.18,0,0,0,.95,1.74l2.84.17Z" fill="#f4a28c"/><path d="M293.5,123.22a8.64,8.64,0,0,0,3.93-3.06s.35,4.37-3.89,9.26Z" fill="#ce8172" opacity="0.31"/><path d="M284.45,98.89c-3.69,3.25-2.68,9.21,1.69,11.46a19.94,19.94,0,0,0,5.39,1.78c7.87,1.51,4,36.13,20.55,31.25s11.24-12.06,3.73-18.49-10.67-18.41-13.54-24.45C300.18,96,289.48,94.46,284.45,98.89Z" fill="#ffd200"/><path d="M292.21,213.84s-31.93,13.69-18.16,24.58,61.84,1.39,61.84,1.39v-6l-15.74-.94s19.29,1.58,13-17.06l-40-1.95Z" fill="#24285b"/><path d="M309.78,153.13s13.41,6.77,13.2,31.8-6.6,30-6.6,30l-18.19-.92Z" opacity="0.08"/><path d="M265.82,227s-19.3,18.6,27.22,16.46l17.55-5.07-4.84-9.68Z" fill="#24285b"/><path d="M335.89,233.79s13.48-1.16,14.36,6.11-14.36-.09-14.36-.09Z" fill="#f4a28c"/><path d="M295.65,147.48s-6.63,1.75-7.21,15.33c-.38,8.8.79,26.16,1.66,37.29a14.9,14.9,0,0,1-8.53,14.65L253.32,228l2.91,6.6,41.06-12.93a20.69,20.69,0,0,0,14.11-15.75C315.56,184.89,320.49,144.31,295.65,147.48Z" fill="#f4a28c"/><path d="M253.32,228s-3.6-5.62-6.9-2.71a3,3,0,0,0-.79,3.87,5.33,5.33,0,0,1-.68,5.56c-1.74,2.24-3.06,5.09.29,6.09,5.83,1.75,11-6.21,11-6.21Z" fill="#f4a28c"/><path d="M95.12,132.37l12.57,4.79S131,152,123.12,175.68s-18.68,52.39-18.68,52.39l-35.6-5.38S34.11,128.66,95.12,132.37Z" fill="#68e1fd"/><path d="M69.28,222.29,127,202.75a14.81,14.81,0,0,1,18.72,9.13l8.18,23.32-8.13,2.16-7.05-14a7.76,7.76,0,0,0-11.48-2.81C111.61,231.92,75.58,254,69.28,222.29Z" fill="#24285b"/><path d="M112.87,222.29s31.27-1.77,33.71,7.18-53.25,8.46-53.25,8.46Z" fill="#24285b"/><path d="M119.24,234.38a2.91,2.91,0,0,1,2.6-1.69c4.61-.09,16.21.21,15,5.24-1.12,4.61-10.8,2.08-15.85.41a2.89,2.89,0,0,1-1.73-4Z" fill="#f4a28c"/><path d="M84.25,151s-16.72,13.38-4.69,36.86,7.86,28.25,7.86,28.25l20.8-7-1.81-20.43L85.18,151Z" opacity="0.08"/><path d="M146.66,237.13l.58,1.91a3.23,3.23,0,0,0,3.09,2.27h8.16a1.72,1.72,0,0,0,1.12-3,14.27,14.27,0,0,0-6.65-2.84Z" fill="#f4a28c"/><path d="M86.61,145.69a12.25,12.25,0,0,1,15.63-5.53c6.4,2.73,13.38,9,13.23,23.09a105.48,105.48,0,0,0,5,33.72,7.62,7.62,0,0,0,10.89,4.3l33.17-18,4.66,8.71-40.08,27a13.82,13.82,0,0,1-17.43-1.62C97.51,203.43,72,172.92,86.61,145.69Z" fill="#68e1fd"/><path d="M86.61,145.69a12.25,12.25,0,0,1,15.63-5.53c6.4,2.73,13.38,9,13.23,23.09a105.48,105.48,0,0,0,5,33.72,7.62,7.62,0,0,0,10.89,4.3l33.17-18,4.66,8.71-40.08,27a13.82,13.82,0,0,1-17.43-1.62C97.51,203.43,72,172.92,86.61,145.69Z" fill="#fff" opacity="0.46"/><path d="M164.49,183.26s10.53-7.17,13.64,0-9,8.71-9,8.71Z" fill="#f4a28c"/><path d="M65.39,237.65s9.64-6,12.36-2.2S76.9,241.52,65.39,237.65Z" fill="#f4a28c"/><path d="M184,240.36c-5-.14-4.66-5.33-4.58-10.34.1-5.91,3-9.86,9.75-11.1,12.23-2.27,10.87,4.85,21.15,1.91s6,20.47,6,20.47Z" fill="#68e1fd"/><ellipse cx="217.45" cy="222.53" rx="8.54" ry="9.85" transform="translate(-69.84 103.09) rotate(-23.09)" fill="#f4a28c"/><circle cx="225.41" cy="222.94" r="3.1" fill="#68e1fd"/><path d="M213.59,213.47s5.23-1.59,3.58-7.8C217.17,205.67,225.64,217.58,213.59,213.47Z" fill="#ffd200"/><path d="M202.51,230.89l2.08,6a6.18,6.18,0,0,0,5.74,4.17l12,.22v-4.44l-8.94-.57a4,4,0,0,1-3.64-3.07c-.64-2.66-1.86-6.33-3.91-7.17C202.51,224.69,201.61,228.28,202.51,230.89Z" fill="#68e1fd"/><path d="M202.51,230.89l2.08,6a6.18,6.18,0,0,0,5.74,4.17l12,.22v-4.44l-8.94-.57a4,4,0,0,1-3.64-3.07c-.64-2.66-1.86-6.33-3.91-7.17C202.51,224.69,201.61,228.28,202.51,230.89Z" fill="#fff" opacity="0.46"/><path d="M183.31,231.89A4.51,4.51,0,0,1,189,230a5.14,5.14,0,0,1,3,5.91c-1,7.21-19.5,4.26-19.5,4.26v-4.26S180.61,236.18,183.31,231.89Z" fill="#68e1fd"/><path d="M183.31,231.89A4.51,4.51,0,0,1,189,230a5.14,5.14,0,0,1,3,5.91c-1,7.21-19.5,4.26-19.5,4.26v-4.26S180.61,236.18,183.31,231.89Z" fill="#fff" opacity="0.46"/><path d="M172.53,236.86s-8.93.25-6.65,2.72,6.65.55,6.65.55Z" fill="#f4a28c"/><path d="M222.3,238.13s6-.5,5.39,3.17H222.3Z" fill="#f4a28c"/><polygon points="103.14 60.43 103.14 78.8 115.01 78.8 117.61 86.11 120.68 78.8 132.55 78.8 132.55 60.43 103.14 60.43" fill="#e6e6e6"/><polygon points="279.66 61.96 279.66 80.33 291.53 80.33 294.13 87.64 297.19 80.33 309.06 80.33 309.06 61.96 279.66 61.96" fill="#e6e6e6"/><circle cx="110.17" cy="68.89" r="2.39" opacity="0.13"/><circle cx="117.82" cy="68.89" r="2.39" opacity="0.13"/><circle cx="125.86" cy="68.89" r="2.39" opacity="0.13"/><circle cx="286.7" cy="70.85" r="2.39" opacity="0.13"/><circle cx="294.36" cy="70.85" r="2.39" opacity="0.13"/><circle cx="302.39" cy="70.85" r="2.39" opacity="0.13"/></svg>