<svg id="Layer_1" data-name="Layer 1" xmlns="http://www.w3.org/2000/svg" viewBox="0 0 400 300"><path d="M106.49,80.71C74,95,49.94,131.22,45.2,175c-4,36.92,4.72,91.31,61.84,89.35,129-4.44,212.07,29.06,238.25-32S363.42,66.87,307.85,60.1C263.66,54.72,169.9,52.82,106.49,80.71Z" fill="#e6e6e6" opacity="0.3"/><path d="M205.63,28.15A111.8,111.8,0,1,0,317.43,140,111.81,111.81,0,0,0,205.63,28.15Zm49.91,171.4a77.42,77.42,0,0,1-49.91,18.14,78.59,78.59,0,0,1-9.64-.59,77.76,77.76,0,1,1,59.55-17.55Z" fill="#c9c9c9"/><path d="M276.61,226.33a111.21,111.21,0,0,1-50,23.44c-3.08-6.17-5.95-7-12.52-8.82-4.4-1.25-8.65-5.92-12.05-8.84-2.49-2.13-5-4.47-6.12-7.56a11.39,11.39,0,0,1,.05-7.45,78.59,78.59,0,0,0,9.64.59,77.42,77.42,0,0,0,49.91-18.14,45.58,45.58,0,0,1,11.79,8.65,33,33,0,0,1,8.51,14A25.86,25.86,0,0,1,276.61,226.33Z" opacity="0.08"/><path d="M204.87,62.22a77.59,77.59,0,0,0-60.54,29.92c-1.52,1.94-3,4-4.28,6A77.4,77.4,0,0,0,127.89,140a80.18,80.18,0,0,0,.6,9.73L94.7,153.94A111.81,111.81,0,0,1,204.54,28.17Z" fill="#fff" opacity="0.46"/><path d="M144.33,54.46V92.14c-1.52,1.94-3,4-4.28,6H101.91A111.76,111.76,0,0,1,133.6,54.46Z" opacity="0.08"/><path d="M249.3,187.09,234.88,132a3.74,3.74,0,0,0-3.85-2.79l-59.27,3.53a3.76,3.76,0,0,0-3.44,4.59l13.09,57a3.76,3.76,0,0,0,4,2.9L246,191.78A3.75,3.75,0,0,0,249.3,187.09Z" fill="#ffd200"/><polygon points="229.28 134.88 174.83 137.72 187.21 190.07 242.02 185.09 229.28 134.88" fill="#fff"/><polygon points="212.86 160.34 217.9 183.66 234.26 182.46 228.74 159.31 212.86 160.34" opacity="0.08"/><polygon points="225.88 139.39 181.58 142.21 184.96 157.41 229.68 153.8 225.88 139.39" fill="#e6e6e6"/><polygon points="268.29 112.82 272.58 137.63 257.65 142 260.37 121.27 268.29 112.82" fill="#f4a28c"/><path d="M259.58,125.79a10.15,10.15,0,0,0,5-3.06s-.16,5.13-5.72,10.27Z" fill="#ce8172" opacity="0.31"/><path d="M252.58,112s-.13,8.56,1.7,14.11a4.29,4.29,0,0,0,5.45,2.72c2.79-1,6.27-3.07,6.9-7.65l2-7.64s1.1-4.83-4-8S252.4,106.74,252.58,112Z" fill="#f4a28c"/><path d="M262.17,118.62s-.17-3.29,2.32-3.21,2.76,4.83-.56,5.51Z" fill="#f4a28c"/><path d="M252.77,117.35l-2.14,3.46a1.38,1.38,0,0,0,1,2.09l3.3.38Z" fill="#f4a28c"/><path d="M234.1,129l-15.51.93s6.07,48.79-13,65.49l26.12-2.82,7-22.1-1.42-29.07Z" opacity="0.08"/><path d="M310.28,249s17.64-69.17-4.23-92.6-44.44-22.27-61.37-11.09S212.24,172.1,236.22,249Z" fill="#68e1fd"/><path d="M244.21,148.4s-6.81-9.28-10.11-6.4,2.89,5.59,1.8,10.12S246.09,153.8,244.21,148.4Z" fill="#f4a28c"/><path d="M275.71,114.61c.09.21.17.43.25.64a107.34,107.34,0,0,0,13.05,24c2.48,3.43,5.3,7.13,5.05,11.36a13.69,13.69,0,0,1-2.27,6.17c-1.8,2.94-4.16,5.68-7.3,7.1-6.36,2.86-14.19-.73-18.15-6.46s-4.87-13-5.07-20c-.22-7.67.18-15.19-2.59-22.39-3.1,0-7.84-1.34-8-5.14-.18-4.94,1.67-8.93,8.64-8.26,4.68.45,10.17,2.15,13.06,6.13A29,29,0,0,1,275.71,114.61Z" fill="#24285b"/><path d="M259.36,155.59a12.27,12.27,0,0,0-15.85-9.76c-8.44,2.52-14.91,12.79-17.87,23.28-6.11,21.63.88,48.67-15.81,45.37s-8.47-52.9-8.47-52.9l-9.87-.47s-18.58,71.95,21.63,76.18C248.54,241,265.45,189.76,259.36,155.59Z" fill="#68e1fd"/><path d="M259.36,155.59a12.27,12.27,0,0,0-15.85-9.76c-8.44,2.52-14.91,12.79-17.87,23.28-6.11,21.63.88,48.67-15.81,45.37s-8.47-52.9-8.47-52.9l-9.87-.47s-18.58,71.95,21.63,76.18C248.54,241,265.45,189.76,259.36,155.59Z" fill="#fff" opacity="0.44"/><path d="M272.58,137.63s19.52,19.48,16.07,45S267.8,249,267.8,249h42.48s12.5-46.22,3-79.64C313.32,169.37,307.29,145.57,272.58,137.63Z" opacity="0.08"/><path d="M199.56,161.5s-.72-13.55-8.72-13.08.65,12.69.65,12.69Z" fill="#f4a28c"/><polygon points="310.28 249.01 308.65 271.85 227.99 271.85 236.22 249.01 310.28 249.01" fill="#24285b"/><rect x="82.79" y="176.78" width="75.45" height="55.67" transform="translate(241.03 409.24) rotate(-180)" fill="#e6e6e6"/><polyline points="147.91 220.19 139.81 204.94 126.91 212.51 115.93 196.22 104.33 202.59 95.56 188.72" fill="none" stroke="#c1c1c1" stroke-linecap="round" stroke-linejoin="round" stroke-width="2"/><circle cx="95.95" cy="189.36" r="2.66" fill="#24285b"/><circle cx="116.09" cy="196.41" r="2.66" fill="#68e1fd"/><circle cx="145.64" cy="187.83" r="4.78" fill="#c1c1c1"/><rect x="263.66" y="38.51" width="63" height="47.4" fill="#e6e6e6"/><rect x="270.99" y="60.43" width="8.75" height="17.98" opacity="0.08"/><rect x="283.28" y="51.18" width="8.75" height="27.23" opacity="0.08"/><rect x="296.43" y="64.79" width="8.75" height="13.62" opacity="0.08"/><rect x="309.25" y="48.68" width="8.75" height="29.73" fill="#68e1fd"/><rect x="83.42" y="48.81" width="56.03" height="43.71" fill="#ffd200"/><path d="M109.32,56h4.24v3c0,.19,0,.25.24.3a12.64,12.64,0,0,1,1.72.52,6.79,6.79,0,0,1,4.41,4.81c.13.57.19,1.15.28,1.74h-4.62a3.16,3.16,0,0,0-2-2.9v5.7l.08,0,.19,0A15.68,15.68,0,0,1,118,70.6a4.88,4.88,0,0,1,1.84,1.59,6.54,6.54,0,0,1,.65,5.93,6.64,6.64,0,0,1-4.29,4.22c-.85.31-1.74.49-2.65.74v2.25h-4.24V83c-.88-.25-1.74-.43-2.56-.73a6.74,6.74,0,0,1-4.56-4.91c-.13-.59-.17-1.2-.25-1.82h4.58a4.34,4.34,0,0,0,.82,2.16,3.58,3.58,0,0,0,2,1.21V72.8c-1.14-.35-2.25-.66-3.33-1a5.14,5.14,0,0,1-3.26-3.26,7.32,7.32,0,0,1-.33-3.08,6.39,6.39,0,0,1,1.36-3.47,7.43,7.43,0,0,1,4.56-2.67c.33-.07.67-.12,1-.18Zm4.25,23a3.49,3.49,0,0,0,2.18-1.13,2.29,2.29,0,0,0-.37-3.35,15.2,15.2,0,0,0-1.81-.86Zm-4.25-15.93a14.23,14.23,0,0,0-1.4.63,2.35,2.35,0,0,0-.75,3.35,4.06,4.06,0,0,0,2.15,1.11Z" fill="#fff"/><circle cx="252.19" cy="117.35" r="3.19" fill="#ccc"/><rect x="253.94" y="116.85" width="5.98" height="1" fill="#ccc"/></svg>