<svg id="Layer_1" data-name="Layer 1" xmlns="http://www.w3.org/2000/svg" viewBox="0 0 400 300"><title>#58 fishing</title><path d="M306.14,180.17l-.92-.42c.2-.43,19.14-43.52-12.13-71.95-19.82-18-11.45-27.39-4.06-35.66,4.68-5.23,9.09-10.17,6.2-16.83-7.46-17.2-37.4-7-37.7-6.85l-.33-.94c.31-.11,31.11-10.66,38.95,7.39,3.14,7.25-1.48,12.42-6.37,17.89-7.43,8.31-15.11,16.9,4,34.26C325.58,136,306.33,179.73,306.14,180.17Z" fill="#24285b"/><circle cx="84.82" cy="82.01" r="8.08" fill="#ffd200"/><circle cx="84.82" cy="82.01" r="4.31" opacity="0.18"/><path d="M99.56,88.84s-2.07-6.57,5.14-10.17,3.61,9,3.61,9Z" fill="#f4a28c"/><rect x="60.42" y="69.37" width="201.14" height="2.8" transform="translate(-12.03 39.32) rotate(-13.43)" fill="#ffd200"/><path d="M142.64,88.12l-27.31,52-6-52-11.12,1.1s-20.22,72.69,10.38,83,60.86-60.9,60.86-60.9Z" fill="#68e1fd"/><path d="M142.64,88.12l-27.31,52-6-52-11.12,1.1s-20.22,72.69,10.38,83,60.86-60.9,60.86-60.9Z" fill="#fff" opacity="0.46"/><polygon points="204.88 221.16 210.18 259.52 217.03 259.52 217.03 222.07 204.88 221.16" fill="#f4a28c"/><ellipse cx="194.8" cy="272.83" rx="136.72" ry="19.89" fill="#e6e6e6" opacity="0.45"/><path d="M171.06,36.27s-1.3,8.92-.13,15a4.53,4.53,0,0,0,5.34,3.57c3-.63,7-2.37,8.24-7.07L187.65,40s1.8-4.9-3.07-8.84S171.57,30.79,171.06,36.27Z" fill="#f4a28c"/><polygon points="187.52 43.4 193.18 72.41 176.97 74.38 179.3 53.03 187.52 43.4" fill="#f4a28c"/><path d="M188.89,36.13l-.51,11.58a6.12,6.12,0,0,1-7.24-2.87,7.52,7.52,0,0,1,.47-8.24,35.74,35.74,0,0,1-8.34.17,8.42,8.42,0,0,1-2.71-.71s-3.89-4.12.78-5.41S190,26.78,188.89,36.13Z" fill="#24285b"/><path d="M180.19,44.52s.26-3.46,2.85-3.05,2.24,5.43-1.33,5.69Z" fill="#f4a28c"/><path d="M170.53,41.93l-2.7,3.33a1.44,1.44,0,0,0,.77,2.31l3.4.85Z" fill="#f4a28c"/><path d="M179.23,53.64s3.36-1,5-3.17c0,0,1.82,6.21-5.64,9.28Z" fill="#ce8172" opacity="0.31"/><path d="M166,70.78s58-11.12,77.85,0-21.76,114.6-21.76,114.6L161,183.44S107.51,81.42,166,70.78Z" fill="#68e1fd"/><path d="M223,77.7S201.4,94.86,214.87,119c9.26,16.57-4,58.58-29.79,65.23l37,1.17s15.19-41.12,18.47-53.68S223,77.7,223,77.7Z" opacity="0.08"/><path d="M170.44,31l18.22,10.46S195,35.17,194.87,26,177,13.58,170.44,31Z" fill="#ffd200"/><polygon points="160.99 183.44 167.5 219.22 188.96 220.84 188.96 196.34 196.64 225.03 224.37 226.96 222.11 185.38 160.99 183.44" fill="#24285b"/><polygon points="174.73 219.77 179.24 252.43 185.08 252.43 185.08 220.55 174.73 219.77" fill="#f4a28c"/><polygon points="174.73 242.5 188.96 244.43 190.92 272.8 167.5 279.57 179 265.7 174.73 242.5" fill="#68e1fd"/><polygon points="204.34 244.43 218.56 246.36 220.53 274.73 197.11 281.5 208.6 267.64 204.34 244.43" fill="#68e1fd"/><rect x="58.25" y="88.52" width="29.49" height="8.46" transform="translate(-19.54 19.49) rotate(-13.43)" fill="#24285b"/><path d="M289.24,218.32s-5-29.27,18-42.35c0,0,13.62,36.63-13.46,43.8l5.32,14-5.55-6a8,8,0,0,0-8-2.32L279.89,227Z" fill="#ffd200"/><path d="M292.38,192.69s-7.94,1.29-11.2,7.7c0,0,5.22-1.57,9-.84S292.38,192.69,292.38,192.69Z" fill="#ffd200"/><path d="M294.16,189.06s8.07,4.87,16.4,3.63A57,57,0,0,0,307.21,176,33.6,33.6,0,0,0,294.16,189.06Z" fill="#fff" opacity="0.5"/><path d="M220.07,90.35c-1.92-15.72,15.18-26.73,28.4-18a23.17,23.17,0,0,1,10.47,16.5c1.46,9.71,5.57,24.2,9.77,37.53a24.88,24.88,0,0,1-24.25,32.32l-47.35-1V145.63l33.76-2.52a8.33,8.33,0,0,0,6.36-12.86C230.45,119.9,221.77,104.35,220.07,90.35Z" fill="#68e1fd"/><path d="M220.07,90.35c-1.92-15.72,15.18-26.73,28.4-18a23.17,23.17,0,0,1,10.47,16.5c1.46,9.71,5.57,24.2,9.77,37.53a24.88,24.88,0,0,1-24.25,32.32l-47.35-1V145.63l33.76-2.52a8.33,8.33,0,0,0,6.36-12.86C230.45,119.9,221.77,104.35,220.07,90.35Z" fill="#fff" opacity="0.46"/><path d="M198.55,175.07l-2.88-.37c0-.13,1.53-12.57-3.69-18-1.84-1.9-4.27-2.68-7.44-2.39-3.57.33-6.15,1.67-7.69,4-3.57,5.37-.77,14.39-.74,14.49l-2.76.88c-.13-.43-3.26-10.42,1.08-17,2-3.09,5.35-4.87,9.84-5.28,4-.38,7.34.72,9.8,3.27C200.26,161.12,198.62,174.5,198.55,175.07Z" fill="#ffd200"/><path d="M198.55,175.07l-2.88-.37c0-.13,1.53-12.57-3.69-18-1.84-1.9-4.27-2.68-7.44-2.39-3.57.33-6.15,1.67-7.69,4-3.57,5.37-.77,14.39-.74,14.49l-2.76.88c-.13-.43-3.26-10.42,1.08-17,2-3.09,5.35-4.87,9.84-5.28,4-.38,7.34.72,9.8,3.27C200.26,161.12,198.62,174.5,198.55,175.07Z" fill="#fff" opacity="0.5"/><path d="M197.11,149s-14-1.7-12.71,3.86,12.71,4.84,12.71,4.84Z" fill="#f4a28c"/><rect x="170.27" y="165.99" width="29.61" height="30.54" fill="#ffd200"/></svg>