<svg id="Layer_1" data-name="Layer 1" xmlns="http://www.w3.org/2000/svg" viewBox="0 0 400 300"><title>#27 fitness app</title><ellipse cx="207.79" cy="250.2" rx="151.73" ry="20.72" fill="#e6e6e6" opacity="0.45"/><rect x="145.16" y="42.16" width="114.13" height="204.69" fill="#c9c9c9"/><rect x="154.6" y="65.49" width="94.47" height="144.05" fill="#fff"/><circle cx="202.57" cy="227.99" r="11.17" fill="#fff" opacity="0.56"/><rect x="192.57" y="50.16" width="32" height="4.67" opacity="0.12"/><circle cx="180.98" cy="53" r="5.21" fill="#fff"/><path d="M183,158.34s9.47,9,5.9,19-28.27,25-28.75,69.52h-15l-2.41-84.52L153,147.67Z" opacity="0.08"/><rect x="175.77" y="126.84" width="55.23" height="14.49" fill="#e6e6e6"/><rect x="175.77" y="147.67" width="55.23" height="14.49" fill="#e6e6e6"/><circle cx="186.97" cy="154.91" r="2.42" opacity="0.12"/><circle cx="195.37" cy="154.91" r="2.42" opacity="0.12"/><circle cx="203.47" cy="154.91" r="2.42" opacity="0.12"/><circle cx="211.72" cy="154.91" r="2.42" opacity="0.12"/><circle cx="219.8" cy="154.91" r="2.42" opacity="0.12"/><path d="M289.9,234.41s-10.14-2.73-12.38-12.14c0,0,15.67-3.24,16.19,12.95Z" fill="#68e1fd" opacity="0.58"/><path d="M291.13,233.4s-7.12-11.16-.94-21.64c0,0,12,7.52,6.72,21.64Z" fill="#68e1fd" opacity="0.73"/><path d="M293,233.4s3.69-11.83,15-14.12c0,0,2.15,7.66-7.26,14.12Z" fill="#68e1fd"/><polygon points="285.61 233.16 287.72 247.2 300.65 247.2 302.5 233.16 285.61 233.16" fill="#24285b"/><rect x="67.77" y="87.84" width="29.47" height="3.95" transform="translate(49.77 -27.67) rotate(27)" fill="#ffd200"/><rect x="67.77" y="87.84" width="29.47" height="3.95" transform="translate(49.77 -27.67) rotate(27)" fill="#fff" opacity="0.53"/><rect x="57.7" y="70.23" width="16.56" height="21.9" rx="8.28" ry="8.28" transform="translate(44.05 -21.11) rotate(27)" fill="#ffd200"/><rect x="94.82" y="89.14" width="16.56" height="21.9" rx="8.28" ry="8.28" transform="translate(56.68 -35.9) rotate(27)" fill="#ffd200"/><path d="M118.76,123.82s-31.5-.47-45.84,12.53l10-38.87S91.26,97,92.59,92s-5.16-9-8.5-7C80,87.5,76.92,89.76,72.92,97.39s-55.66,78.29,26.34,57Z" fill="#f4a28c"/><path d="M140.22,245.2s-1.44,4.22-5.22,4.61-4.72,4.11-1.29,5,12.13-3.62,12.13-3.62l-.37-6Z" fill="#68e1fd"/><path d="M118,240.48s1.21,4.29-1.68,6.76-1.55,6,1.78,4.86,7.94-9.87,7.94-9.87l-3.73-4.75Z" fill="#68e1fd"/><path d="M101.3,131.06s-9.21,1.45-11.71,8.62-5.68,19.38-29.26,16c0,0,8.15,6.45,36.44-.72Z" opacity="0.08"/><path d="M124.71,100.21s-2.45,5.15-2.88,9a2.87,2.87,0,0,0,2.56,3.16,6.33,6.33,0,0,0,6.3-2.73l3.34-4.07a5.12,5.12,0,0,0-.2-5.91C131.62,96.38,126.05,97,124.71,100.21Z" fill="#f4a28c"/><polygon points="133.48 107.75 133.48 124.46 123.55 123.82 128.18 109.5 133.48 107.75" fill="#f4a28c"/><path d="M128.68,106.9s.81-2,2.29-1.31.34,3.7-1.86,3.19Z" fill="#f4a28c"/><path d="M123.33,103.53l-2.25,1.5a.92.92,0,0,0,0,1.55l1.9,1.14Z" fill="#f4a28c"/><path d="M127.43,111.8a11.5,11.5,0,0,0,3.24-1.84s.18,5.82-4.83,6.77Z" fill="#ce8172" opacity="0.31"/><path d="M128.12,107.54s2.91-3.56,4.34-1.12S129.58,111.93,128.12,107.54Z" fill="#f4a28c"/><path d="M118.76,123.82h20.11s24-.19,24,16.81-12.94,53-12.94,53h-36S70.26,129,118.76,123.82Z" fill="#68e1fd"/><polygon points="124.55 100.56 134.86 106.71 136.42 103.63 126.17 97.13 124.55 100.56" fill="#68e1fd"/><path d="M126.17,97.13s-2.16-2.67,0-4.25,3.84.83,4.92-.42,3.08-3.08,4.75-.58-.58,4.33,2.58,4.75,3.59,1.17,3.09,3.08-1.84,1.09-2.42,3.25-2.67.67-2.67.67Z" fill="#24285b"/><path d="M144.56,135.82a47.43,47.43,0,0,0-5.43,29.61c2.54,16.75-10.45,28.2-10.45,28.2h21.24s9.39-28.47,10.2-34.29S144.56,135.82,144.56,135.82Z" opacity="0.08"/><path d="M131.58,104.75s-1.44,5.21,1.87,5.88l1.41-3.92Z" fill="#24285b"/><path d="M156.19,127.39c10.2,3.82,27.28,12.71,32.16,30.52a15.51,15.51,0,0,1-5.94,16.68l-26.53,19a17.7,17.7,0,0,1-1,6.56,2.2,2.2,0,0,1-4.18-1l.1-4.41a12.43,12.43,0,0,1,2.09-6.63L169.67,163s-30-7.33-24.66-29.67A8.43,8.43,0,0,1,156.19,127.39Z" fill="#f4a28c"/><path d="M113.92,203.43l-4.66,7.94a19.23,19.23,0,0,0,2.84,23.2l5.2,5.31,4-3.35-4.39-7.65a11.49,11.49,0,0,1,.32-12l7.82-12.1Z" fill="#f4a28c"/><polygon points="137.09 210.35 140.22 245.2 145.47 245.18 147.59 207.85 137.09 210.35" fill="#f4a28c"/><polygon points="113.92 193.63 104.92 212.26 123.33 216.02 131.92 202.68 149.92 193.63 113.92 193.63" fill="#24285b"/><polygon points="149.92 193.63 150.08 217.95 130.58 219.5 128.51 201.44 113.92 193.63 149.92 193.63" fill="#24285b"/><path d="M77.64,132.87s5-2.19,6.62-7,7.83-10.67,14.33-7.5,4.17,6.76,12.17,6.11l-20,8.41Z" fill="#f4a28c"/><polygon points="75.8 90.63 82.92 97.48 80.44 107.14 69.81 100.8 75.8 90.63" fill="#68e1fd"/><polygon points="139.65 238.86 145.84 238.86 145.47 245.18 140.22 245.2 139.65 238.86" fill="#fff"/><polygon points="114.02 236.53 118.02 240.48 122.33 237.48 118.9 232.35 114.02 236.53" fill="#fff"/><rect x="187" y="178.17" width="29.17" height="15.46" fill="#ffd200"/><rect x="185.3" y="101.19" width="29.47" height="3.95" transform="translate(-1.09 2.15) rotate(-0.61)" fill="#68e1fd"/><rect x="173.11" y="92.22" width="16.56" height="21.9" rx="4.35" ry="4.35" transform="translate(-1.09 1.95) rotate(-0.61)" fill="#24285b"/><rect x="214.77" y="91.77" width="16.56" height="21.9" rx="4.35" ry="4.35" transform="translate(-1.09 2.39) rotate(-0.61)" fill="#24285b"/></svg>