<svg id="Layer_1" data-name="Layer 1" xmlns="http://www.w3.org/2000/svg" viewBox="0 0 400 300"><title>_</title><polygon points="308.84 63.1 91.16 63.1 42.32 236.65 357.68 236.65 308.84 63.1" fill="#68e1fd"/><path d="M96,68,53.79,226.74H346.21L304,68Zm126.15,1.31C222.36,80.51,212.6,90,200,90s-22.36-9.5-22.12-20.73Zm-63.6,154.88,2.27-30.08h78.42l2.27,30.08Zm85,0-2.57-32.36H159.08l-2.57,32.36h-29l8.79-66.4h127.5l8.79,66.4Zm-63.87-68.37c1-11.85,9.91-20.92,20.38-20.92s19.41,9.07,20.38,20.92Zm163.9,68.37h-69l-9.3-68.37H222.13c-1-12.88-10.78-22.71-22.13-22.71s-21.08,9.83-22.13,22.71H134.76l-9.3,68.37h-69L97.06,69.28h79.38c-.32,12,10.08,22.2,23.56,22.2s23.88-10.2,23.56-22.2h79.38Z" fill="#fff"/><ellipse cx="137.33" cy="96.12" rx="20.42" ry="4.45" opacity="0.08"/><path d="M146.93,43.35H127.72a14.4,14.4,0,0,0-9.28,3.38L105.78,57.35l10.5,12.31,6.19-5V95.94h29.71V64.66l6.19,5,10.5-12.31L156.21,46.73A14.4,14.4,0,0,0,146.93,43.35Z" fill="#ffd200"/><path d="M146.33,43.35c0,2.23-4.11,4-9.18,4s-9.19-1.82-9.19-4" opacity="0.08"/><rect x="122.47" y="70.63" width="29.72" height="11.1" fill="#fff" opacity="0.46"/><ellipse cx="262.67" cy="96.12" rx="20.42" ry="4.45" opacity="0.08"/><path d="M272.28,43.35H253.07a14.4,14.4,0,0,0-9.28,3.38L231.13,57.35l10.5,12.31,6.19-5V95.94h29.71V64.66l6.19,5,10.5-12.31L281.56,46.73A14.4,14.4,0,0,0,272.28,43.35Z" fill="#ffd200"/><path d="M271.68,43.35c0,2.23-4.11,4-9.19,4s-9.18-1.82-9.18-4" opacity="0.08"/><rect x="247.82" y="70.63" width="29.72" height="11.1" fill="#fff" opacity="0.46"/><ellipse cx="200" cy="148.9" rx="20.42" ry="4.45" opacity="0.08"/><path d="M209.6,96.12H190.4a14.46,14.46,0,0,0-9.29,3.38l-12.65,10.62L179,122.44l6.19-5v31.28h29.72V117.44l6.19,5,10.49-12.32L218.89,99.5A14.46,14.46,0,0,0,209.6,96.12Z" fill="#ffd200"/><path d="M209,96.12c0,2.24-4.12,4.06-9.19,4.06s-9.19-1.82-9.19-4.06" opacity="0.08"/><rect x="185.14" y="123.41" width="29.72" height="11.1" fill="#fff" opacity="0.46"/><ellipse cx="200" cy="216.86" rx="20.42" ry="4.45" opacity="0.08"/><path d="M209.6,164.09H190.4a14.41,14.41,0,0,0-9.29,3.38l-12.65,10.62L179,190.4l6.19-5v31.28h29.72V185.4l6.19,5,10.49-12.31-12.65-10.62A14.41,14.41,0,0,0,209.6,164.09Z" fill="#24285b"/><path d="M209,164.09c0,2.24-4.12,4-9.19,4s-9.19-1.81-9.19-4" fill="#fff" opacity="0.46"/><ellipse cx="300.53" cy="173.77" rx="20.42" ry="4.45" opacity="0.08"/><path d="M310.13,121h-19.2a14.46,14.46,0,0,0-9.28,3.38L269,135l10.5,12.31,6.18-5v31.28h29.72V142.3l6.19,5L332.08,135l-12.66-10.62A14.46,14.46,0,0,0,310.13,121Z" fill="#ffd200"/><path d="M309.54,121c0,2.24-4.11,4.05-9.19,4.05s-9.18-1.81-9.18-4.05" opacity="0.08"/><rect x="285.67" y="148.28" width="29.72" height="11.1" fill="#fff" opacity="0.46"/><ellipse cx="99.47" cy="173.77" rx="20.42" ry="4.45" opacity="0.08"/><path d="M109.07,121H89.87a14.46,14.46,0,0,0-9.29,3.38L67.92,135l10.5,12.31,6.19-5v31.28h29.72V142.3l6.18,5L131,135l-12.66-10.62A14.46,14.46,0,0,0,109.07,121Z" fill="#ffd200"/><path d="M108.47,121c0,2.24-4.11,4.05-9.18,4.05S90.1,123.23,90.1,121" opacity="0.08"/><rect x="84.61" y="148.28" width="29.72" height="11.1" fill="#fff" opacity="0.46"/></svg>