<svg id="Layer_1" data-name="Layer 1" xmlns="http://www.w3.org/2000/svg" viewBox="0 0 400 300"><path d="M294.21,154.31a5.75,5.75,0,0,1-5.22,0,4.71,4.71,0,0,1-2.5-3.67c-.65-4.51,1.46-7.58,3.93-8.33s5.16,2.48,6,4.72C297.06,148.93,297.87,152.51,294.21,154.31Z" fill="#ffd200"/><path d="M286.46,156.14a5.71,5.71,0,0,1-5.1,1.11,4.67,4.67,0,0,1-3.23-3.05c-1.6-4.26-.21-7.71,2.05-9s5.56,1.31,6.83,3.33C288.09,150.28,289.65,153.6,286.46,156.14Z" fill="#ffd200"/><path d="M286.46,156.14a5.71,5.71,0,0,1-5.1,1.11,4.67,4.67,0,0,1-3.23-3.05c-1.6-4.26-.21-7.71,2.05-9s5.56,1.31,6.83,3.33C288.09,150.28,289.65,153.6,286.46,156.14Z" fill="#fff" opacity="0.74"/><path d="M291,162.35a7,7,0,0,1-6.4,0,5.78,5.78,0,0,1-3.08-4.51c-.79-5.52,1.79-9.28,4.83-10.21s6.32,3,7.3,5.79C294.53,155.76,295.53,160.15,291,162.35Z" fill="#ffd200"/><path d="M291,162.35a7,7,0,0,1-6.4,0,5.78,5.78,0,0,1-3.08-4.51c-.79-5.52,1.79-9.28,4.83-10.21s6.32,3,7.3,5.79C294.53,155.76,295.53,160.15,291,162.35Z" fill="#fff" opacity="0.4"/><path d="M282.26,164.45a7,7,0,0,1-6.41,0,5.77,5.77,0,0,1-3.07-4.5c-.79-5.53,1.79-9.29,4.83-10.22s6.32,3,7.3,5.79C285.75,157.86,286.75,162.25,282.26,164.45Z" fill="#ffd200"/><path d="M303.79,157.77a7,7,0,0,1-6,2.2,5.73,5.73,0,0,1-4.44-3.15c-2.67-4.91-1.56-9.33,1-11.26s7,.65,8.86,2.89C304.77,150.37,307.23,154.14,303.79,157.77Z" fill="#ffd200"/><path d="M303.79,157.77a7,7,0,0,1-6,2.2,5.73,5.73,0,0,1-4.44-3.15c-2.67-4.91-1.56-9.33,1-11.26s7,.65,8.86,2.89C304.77,150.37,307.23,154.14,303.79,157.77Z" opacity="0.08"/><path d="M275.28,156.85h34a0,0,0,0,1,0,0v15.33a10.06,10.06,0,0,1-10.06,10.06H285.34a10.06,10.06,0,0,1-10.06-10.06V156.85a0,0,0,0,1,0,0Z" transform="translate(-31.44 72.71) rotate(-13.46)" fill="#c1c1c1"/><path d="M272.3,159l-3.77-15.73a17.51,17.51,0,1,1,34.06-8.15l3.77,15.73-1.95.46-3.76-15.73a15.51,15.51,0,1,0-30.17,7.22l3.76,15.74Z" fill="#24285b"/><rect x="268.81" y="154.71" width="43.91" height="9.53" transform="translate(-29.14 72.07) rotate(-13.46)" fill="#e6e6e6"/><path d="M111.65,171a5.76,5.76,0,0,1-4-3.38,4.7,4.7,0,0,1,.46-4.42c2.41-3.86,6-4.85,8.37-3.83s2.34,5.21,1.51,7.44C117.28,168.76,115.6,172,111.65,171Z" fill="#ffd200"/><path d="M104.54,167.45A5.74,5.74,0,0,1,99.92,165a4.71,4.71,0,0,1-.51-4.42c1.52-4.29,4.81-6,7.36-5.54s3.41,4.59,3.07,6.95C109.55,164,108.61,167.56,104.54,167.45Z" fill="#ffd200"/><path d="M104.54,167.45A5.74,5.74,0,0,1,99.92,165a4.71,4.71,0,0,1-.51-4.42c1.52-4.29,4.81-6,7.36-5.54s3.41,4.59,3.07,6.95C109.55,164,108.61,167.56,104.54,167.45Z" fill="#fff" opacity="0.74"/><path d="M104,175.15A7,7,0,0,1,99.15,171a5.75,5.75,0,0,1,.56-5.42c3-4.74,7.35-6,10.27-4.7s2.87,6.39,1.85,9.13C111,172.36,108.89,176.35,104,175.15Z" fill="#ffd200"/><path d="M104,175.15A7,7,0,0,1,99.15,171a5.75,5.75,0,0,1,.56-5.42c3-4.74,7.35-6,10.27-4.7s2.87,6.39,1.85,9.13C111,172.36,108.89,176.35,104,175.15Z" fill="#fff" opacity="0.4"/><path d="M96,171.09A7,7,0,0,1,91.08,167a5.78,5.78,0,0,1,.55-5.42c3-4.74,7.36-5.95,10.28-4.71s2.87,6.4,1.85,9.14C102.88,168.31,100.82,172.3,96,171.09Z" fill="#ffd200"/><path d="M116.74,179.85a7,7,0,0,1-6-2.18,5.77,5.77,0,0,1-1.37-5.28c1.12-5.47,4.82-8.14,8-8s4.93,5,4.92,7.92C122.25,174.83,121.71,179.3,116.74,179.85Z" fill="#ffd200"/><path d="M116.74,179.85a7,7,0,0,1-6-2.18,5.77,5.77,0,0,1-1.37-5.28c1.12-5.47,4.82-8.14,8-8s4.93,5,4.92,7.92C122.25,174.83,121.71,179.3,116.74,179.85Z" opacity="0.08"/><path d="M83.34,168.76h34a0,0,0,0,1,0,0v15.33a10.06,10.06,0,0,1-10.06,10.06H93.4a10.06,10.06,0,0,1-10.06-10.06V168.76A0,0,0,0,1,83.34,168.76Z" transform="translate(92.08 -25.74) rotate(26.66)" fill="#c1c1c1"/><path d="M123.16,176.22l-1.79-.9,7.26-14.45A15.51,15.51,0,1,0,100.91,147L93.65,161.4l-1.79-.89,7.26-14.46a17.51,17.51,0,0,1,31.3,15.71Z" fill="#24285b"/><rect x="83.72" y="168.01" width="43.91" height="9.53" transform="translate(88.75 -29.05) rotate(26.66)" fill="#e6e6e6"/><ellipse cx="204.26" cy="261.07" rx="122.2" ry="11.65" fill="#e6e6e6" opacity="0.3"/><path d="M286.79,246s-10.53-2.87-12.81-12.67c0,0,16.3-3.29,16.76,13.54Z" fill="#68e1fd" opacity="0.58"/><path d="M288.08,245s-7.35-11.63-.88-22.49c0,0,12.39,7.87,6.88,22.51Z" fill="#68e1fd" opacity="0.73"/><path d="M290,245s3.89-12.28,15.63-14.6c0,0,2.2,8-7.61,14.63Z" fill="#68e1fd"/><polygon points="282.34 244.69 284.47 259.28 297.91 259.34 299.89 244.76 282.34 244.69" fill="#24285b"/><polygon points="224.79 222.33 221.14 234.19 227.18 237.55 231.85 226.26 224.79 222.33" fill="#f4a28c"/><path d="M192.54,91.66c8.35-10.29,25-8.38,30.38,3.7a34.51,34.51,0,0,1,2.74,12.72c1.13,26.19,14.66,40.47,27.06,36s18.42-26.41,18.42-26.41,10.15-7.23,12.41,0-7.14,7.29-7.14,7.29-12.06,70.83-64.66,25.51C178.49,121.78,184,102.19,192.54,91.66Z" fill="#f4a28c"/><path d="M192.54,91.66c8.35-10.29,25-8.38,30.38,3.7a34.51,34.51,0,0,1,2.74,12.72c1.13,26.19,14.66,40.47,27.06,36s18.42-26.41,18.42-26.41,10.15-7.23,12.41,0-7.14,7.29-7.14,7.29-12.06,70.83-64.66,25.51C178.49,121.78,184,102.19,192.54,91.66Z" opacity="0.08"/><path d="M207.07,57s2.38,5.66,2.65,9.85a3.09,3.09,0,0,1-2.9,3.28,6.83,6.83,0,0,1-6.65-3.25l-3.39-4.54a5.52,5.52,0,0,1,.5-6.36C199.81,52.52,205.79,53.45,207.07,57Z" fill="#f4a28c"/><polygon points="197.32 62.14 194.96 82.14 206.22 83.46 203.4 68.27 197.32 62.14" fill="#f4a28c"/><path d="M208.39,60.62l2.35,1.72a1,1,0,0,1-.11,1.66l-2.1,1.14Z" fill="#f4a28c"/><path d="M203.65,69.55a7.1,7.1,0,0,1-3.06-1.21s-1.27,7.08,4.21,7.48Z" fill="#ce8172" opacity="0.31"/><path d="M201.72,63.28S201,61,199.31,61.76s-.54,4,1.86,3.52Z" fill="#f4a28c"/><path d="M205.75,57.09a17.52,17.52,0,0,1-5.46,2.22s1.42,6.8-2.94,10.43c0,0-8.61-7.48-4.27-13.52,3.62-5.06,6.14-9.26,11.65-7.26A4.6,4.6,0,0,1,205.75,57.09Z" fill="#24285b"/><path d="M201.75,62.59s-1.29-2.42-3.15-1.2-.61,4.17,2.4,4.29Z" fill="#f4a28c"/><path d="M195,82.14l5,.2a35.22,35.22,0,0,1,16.51,4.84c10.41,6.15,26.21,18.1,24,33.13-3.23,22.2-20.18,42.37-20.18,42.37l-41.56-1.61S143.77,80.28,195,82.14Z" fill="#68e1fd"/><path d="M190.22,90.41s22.38,16,8.93,44.36S202.63,162,202.63,162l-23.88-.93-3.88-10.27Z" opacity="0.08"/><path d="M178.75,161.07l8.07,79.09h21.57L202,174.39l11.27,10.43a27.6,27.6,0,0,1,7.4,29.13l-3.13,9.26,23.2,10.09,3.75-20.89A36.1,36.1,0,0,0,237,183.35l-16.68-20.67Z" fill="#24285b"/><path d="M193.72,98.15c-1.07-11.27-15.19-16-22.87-7.68-4.66,5-8.39,12.55-8.52,23.62C162,142.91,147.45,159.3,129,135.81a10.56,10.56,0,0,0-7.42-4.08c-3.74-.32-8.28,0-8.72,3.16-.85,6.21,3.94,6.48,7.23,6a4.18,4.18,0,0,1,4.34,2.1c3.6,6.54,13.92,22,30.15,19.62C172.16,160,197,132.49,193.72,98.15Z" fill="#f4a28c"/><polygon points="194.41 240.16 196.98 252.3 203.89 252.3 202.49 240.16 194.41 240.16" fill="#f4a28c"/><path d="M197,252.3l1.37,6,15.54-6S206.62,246.41,197,252.3Z" fill="#68e1fd"/><path d="M221.85,232,218,236.79l14.38,8.41S232.47,235.85,221.85,232Z" fill="#68e1fd"/><path d="M192.29,57.66s-4-13-17.42-10.06S169.6,64,150,63.47c0,0,11.75,5.69,21.79,0s9,4.13,20.48-.6Z" fill="#24285b"/></svg>