<svg id="Layer_1" data-name="Layer 1" xmlns="http://www.w3.org/2000/svg" viewBox="0 0 400 300"><path d="M200,36s8.46-1.63,12.09,5.52,1.85,16.05,15.12,11,20.94-13.79,31.41.65,14.7,6.21,25.27,5.88c20.51-.64,40.09,33.57,14.81,52S254,94.06,231.55,114.75s-35.26-61.67-35.26-61.67Z" fill="#24285b"/><path d="M113.73,138.69a5.76,5.76,0,0,1-5.08-1.24,4.71,4.71,0,0,1-1.58-4.15c.42-4.53,3.18-7,5.77-7.19s4.43,3.61,4.69,6C117.74,134.12,117.7,137.79,113.73,138.69Z" fill="#ffd200"/><path d="M105.76,138.67a5.72,5.72,0,0,1-5.22-.12,4.69,4.69,0,0,1-2.44-3.71c-.56-4.52,1.6-7.54,4.09-8.26s5.11,2.57,5.87,4.83C108.7,133.35,109.45,136.94,105.76,138.67Z" fill="#ffd200"/><path d="M105.76,138.67a5.72,5.72,0,0,1-5.22-.12,4.69,4.69,0,0,1-2.44-3.71c-.56-4.52,1.6-7.54,4.09-8.26s5.11,2.57,5.87,4.83C108.7,133.35,109.45,136.94,105.76,138.67Z" fill="#fff" opacity="0.74"/><path d="M108.77,145.77a7,7,0,0,1-6.23-1.51,5.8,5.8,0,0,1-1.94-5.1c.52-5.56,3.91-8.61,7.08-8.81s5.44,4.43,5.75,7.33C113.7,140.17,113.65,144.67,108.77,145.77Z" fill="#ffd200"/><path d="M108.77,145.77a7,7,0,0,1-6.23-1.51,5.8,5.8,0,0,1-1.94-5.1c.52-5.56,3.91-8.61,7.08-8.81s5.44,4.43,5.75,7.33C113.7,140.17,113.65,144.67,108.77,145.77Z" fill="#fff" opacity="0.4"/><path d="M99.74,145.77a7,7,0,0,1-6.23-1.51,5.8,5.8,0,0,1-1.94-5.1c.52-5.56,3.91-8.61,7.08-8.81s5.44,4.43,5.75,7.33C104.67,140.17,104.61,144.67,99.74,145.77Z" fill="#ffd200"/><path d="M122.23,144.28a7,7,0,0,1-6.36.74,5.75,5.75,0,0,1-3.59-4.1c-1.45-5.39.66-9.43,3.56-10.72s6.64,2.26,8,4.88C124.91,137.32,126.42,141.55,122.23,144.28Z" fill="#ffd200"/><path d="M122.23,144.28a7,7,0,0,1-6.36.74,5.75,5.75,0,0,1-3.59-4.1c-1.45-5.39.66-9.43,3.56-10.72s6.64,2.26,8,4.88C124.91,137.32,126.42,141.55,122.23,144.28Z" opacity="0.08"/><path d="M91.3,140.36h34a0,0,0,0,1,0,0v15.33a10.06,10.06,0,0,1-10.06,10.06H101.35A10.06,10.06,0,0,1,91.3,155.69V140.36A0,0,0,0,1,91.3,140.36Z" fill="#c1c1c1"/><path d="M126.34,138.15h-2V122a15.51,15.51,0,0,0-31,0v16.18h-2V122a17.51,17.51,0,0,1,35,0Z" fill="#24285b"/><ellipse cx="217.56" cy="261.07" rx="122.2" ry="11.65" fill="#e6e6e6" opacity="0.3"/><path d="M160,115.93s-19.42,4.56-37.89-10.07c0,0,.24-10.55-7.67-11.51s-10.32,11.27-2.88,15.59,26.1,29.26,53.82,24.7S171.24,108.5,160,115.93Z" fill="#f4a28c"/><path d="M160,115.93s-19.42,4.56-37.89-10.07c0,0,.24-10.55-7.67-11.51s-10.32,11.27-2.88,15.59,26.1,29.26,53.82,24.7S171.24,108.5,160,115.93Z" opacity="0.08"/><polygon points="196.39 46.65 203.33 71.09 190.81 76.82 191.34 55.72 196.39 46.65" fill="#f4a28c"/><path d="M191.2,59.45a30.09,30.09,0,0,0,6.66-3,12.77,12.77,0,0,1-6.81,10.72Z" fill="#ce8172" opacity="0.31"/><path d="M186.54,44s-2.44,8.29-2.15,14.19A4.33,4.33,0,0,0,189,62.26c3-.19,6.93-1.3,8.78-5.58l4-6.89s2.38-4.4-1.7-8.8S187.77,38.83,186.54,44Z" fill="#f4a28c"/><path d="M185.27,49.26l-3,2.78a1.38,1.38,0,0,0,.41,2.3l3.12,1.27Z" fill="#f4a28c"/><path d="M188,40s-5.57,7.67,6,13l6.74,9.25s5.69-9.12,6.38-15.94S195.32,28.39,188,40Z" fill="#24285b"/><path d="M194.08,53s.72-3.24,3.12-2.5,1.38,5.45-2,5.22Z" fill="#f4a28c"/><path d="M205,69.62l-17.9,8.19s-34.35,21.86-26.91,44.64,40.28,52.83,40.28,52.83l45.57-20.15s-14.39-30-15.83-58S205,69.62,205,69.62Z" fill="#68e1fd"/><rect x="87.21" y="138.15" width="43.91" height="9.53" fill="#e6e6e6"/><path d="M197.86,93s3.82,16.1,15.82,24.27,13.78,46.06,13.78,46.06l18.6-8.23s-11.91-26.41-15.38-52.42S197.86,93,197.86,93Z" opacity="0.09"/><path d="M212.24,71s26.95-4.66,48.07,7.68,20.55,59.09,20.55,59.09,5.25,14.63-2.53,15.82-6.95-14.76-6.95-14.76-12.17-38.6-22.44-38.87-20.58,14.67-40.34,4.6S185.07,70.58,212.24,71Z" fill="#f4a28c"/><path d="M200.49,175.28s-26.47,8.83-24.43,27.55,14.75,34,14.75,34l7.05-4.42s-11.29-30.3.65-32,46.32-15,49.72-33l-2.17-12.3Z" fill="#24285b"/><path d="M217.56,179.68s.72,35.75,25.91,38.81,38.62-10.89,38.62-10.89l-2.54-8.3s-42.21,19.91-39.15-24Z" fill="#24285b"/><path d="M193.41,235.24s-7.11,14-2.36,14.19S200,236.87,200,236.87l-2.14-4.42-3.15,2Z" fill="#68e1fd"/><path d="M280.38,202l6-2.23,5.66,8.89a2.13,2.13,0,0,1-1.93,3.29c-1.95-.18-4.73-1.38-8.28-5.25Z" fill="#68e1fd"/><path d="M192.82,79s1.62-8.44,12.34-9.8,35.41.85,35.41.85l3.4,33S210.9,119.41,196.8,97.9A22,22,0,0,1,192.82,79Z" fill="#68e1fd"/><path d="M192.82,79s1.62-8.44,12.34-9.8,35.41.85,35.41.85l3.4,33S210.9,119.41,196.8,97.9A22,22,0,0,1,192.82,79Z" fill="#fff" opacity="0.39"/></svg>