<svg id="Layer_1" data-name="Layer 1" xmlns="http://www.w3.org/2000/svg" viewBox="0 0 400 300"><circle cx="123.91" cy="89.71" r="13.17" fill="#ffd200"/><circle cx="123.91" cy="89.71" r="20.59" fill="#ffd200" opacity="0.15"/><polygon points="116.98 169.68 116.98 121.19 153.49 121.19 153.49 69.12 176.83 69.12 176.83 108.31 189.82 108.31 189.82 125.99 210.17 125.99 210.17 140.57 238.2 140.57 238.2 91.08 259.67 91.08 259.67 115.64 273.56 115.64 273.56 167.17 116.98 169.68" fill="#e6e6e6" opacity="0.39"/><path d="M232.13,74.74s-5.69-17.39,9.69-19.53,19.23,0,22.48-7.09,8.56-10.84,13.91-3.08-6.55,14.18,3.48,14.72,13.78-8.3,21.27.93,3.75,12.58-2.67,14S283,66.18,282.76,77.15s-11.5,13-15.38,6.15S261.62,66.58,257.08,71,241,74.74,241,74.74Z" fill="#e6e6e6" opacity="0.39"/><polygon points="141.49 66.07 141.49 66.18 127.04 92.13 127.04 167.72 141.49 167.87 141.49 167.76 155.94 167.61 155.94 92.02 141.49 66.07" fill="#68e1fd"/><rect x="138.54" y="145.38" width="50.04" height="22.34" fill="#24285b"/><polygon points="194.54 142.17 200.35 74.74 209.18 74.74 212.39 142.17 194.54 142.17" fill="#68e1fd"/><polygon points="194.54 142.17 200.35 74.74 209.18 74.74 212.39 142.17 194.54 142.17" opacity="0.09"/><polygon points="226.32 142.17 232.13 74.74 240.96 74.74 244.17 142.17 226.32 142.17" fill="#68e1fd"/><polygon points="226.32 142.17 232.13 74.74 240.96 74.74 244.17 142.17 226.32 142.17" opacity="0.09"/><polygon points="179.93 167.87 179.93 135.86 219.52 117.7 219.52 135.86 260.94 117.7 260.94 169 179.93 167.87" fill="#68e1fd"/><path d="M103.34,167.87c0,.53,0,1.07,0,1.61a91.22,91.22,0,0,0,182.44,0c0-.54,0-1.08,0-1.61Z" fill="#e6e6e6"/><path d="M112.33,209s7.82-15.38,20.17,3,30.27,7.22,18.41,37.52C150.91,249.6,127.74,242.06,112.33,209Z" fill="#c1c1c1"/><path d="M152.6,167.87s-7.26,14.21,9.2,14.7,23.49,5.32,17.19,17.91,3.87,16,13.56,17.92-.24,25.42,15.49,21.06.25-35.35,9-42.85,5.33-28.74,5.33-28.74Z" fill="#c1c1c1"/><path d="M228.62,167.87s-2.18,10.82,5.57,12.76,10.65-12.76,10.65-12.76Z" fill="#c1c1c1"/><path d="M238.55,223.24s-8.48,3.87-4.36,9.69,8,7,13.8,1.69S249.93,220.34,238.55,223.24Z" fill="#c1c1c1"/><path d="M271.23,167.87s-8.47,4-1.69,14,5.36,13.56-.47,15.5-5.41,15.95,8.18,10.63c0,0,10.4-20.18,8.49-40.1Z" fill="#c1c1c1"/><rect x="231.92" y="146.58" width="21.14" height="21.14" fill="#24285b"/><rect x="164.9" y="153.61" width="9.43" height="14.11" fill="#fff" opacity="0.1"/><rect x="138.54" y="135.86" width="41.38" height="9.52" fill="#24285b"/><rect x="138.54" y="135.86" width="41.38" height="9.52" fill="#fff" opacity="0.44"/><rect x="144.7" y="151.13" width="4.95" height="4.95" fill="#ffd200"/><rect x="189.11" y="139.69" width="5.43" height="4.95" fill="#fff"/><rect x="199.24" y="139.69" width="5.43" height="4.95" fill="#fff"/><rect x="131.99" y="97.77" width="5.43" height="4.95" fill="#fff"/><rect x="141.09" y="97.77" width="5.43" height="4.95" fill="#fff"/><rect x="131.99" y="107.25" width="5.43" height="4.95" fill="#fff"/><rect x="141.09" y="107.25" width="5.43" height="4.95" fill="#fff"/><polygon points="127.04 92.13 155.94 92.13 141.49 66.07 127.04 92.13" fill="#fff" opacity="0.44"/><path d="M198.52,154.48l1.61-3.09a2.63,2.63,0,0,1,2.33-1.42h14a2.64,2.64,0,0,1,2.45,1.68L220,154.6a3.5,3.5,0,0,0,3.27,2.24H225a2.45,2.45,0,0,1,2.45,2.45v2.59a2.45,2.45,0,0,1-2.45,2.45H188.44a2.4,2.4,0,0,1-2.4-2.41V160.7a2.68,2.68,0,0,1,2.06-2.61l8.27-1.93A3.26,3.26,0,0,0,198.52,154.48Z" fill="#ffd200"/><circle cx="196.14" cy="164.09" r="3.81" fill="#24285b"/><circle cx="196.14" cy="164.09" r="1.97" fill="#fff"/><circle cx="219.02" cy="164.09" r="3.81" fill="#24285b"/><path d="M201.54,152.43,200,156h8.43v-3.07a1.21,1.21,0,0,0-1.21-1.21h-4.51A1.23,1.23,0,0,0,201.54,152.43Z" fill="#fff" opacity="0.38"/><path d="M210.34,156h8.12l-1-3a1.82,1.82,0,0,0-1.72-1.25h-4.08a1.34,1.34,0,0,0-1.34,1.34Z" fill="#fff" opacity="0.38"/><rect x="204.9" y="158.94" width="2.5" height="1.07" fill="#24285b"/><circle cx="188.12" cy="160.84" r="1.37" fill="#fff"/><path d="M227.39,158.94h-3a2.4,2.4,0,0,0,3,2.45Z" fill="#fff"/><circle cx="218.98" cy="164.09" r="1.97" fill="#fff"/><path d="M200.35,74.74s-5.17-12.84,7.05-15.52,17.92-5.62,11.06-15.78,12.88-19.54,16.78-7.23,6.85,7.23,13.54,2.14,26-2.67,16.73,12-22.4-.53-30.27,8.56-5.72,16.59-26.06,15.79Z" fill="#e6e6e6"/></svg>