<svg id="Layer_1" data-name="Layer 1" xmlns="http://www.w3.org/2000/svg" viewBox="0 0 400 300"><title>#55 golf</title><path d="M189.15,86.25s-29.56,11.06-25.89,46-16,46-39.67,48.62v10.33s59.48,7.71,69.07-52.48Z" fill="#68e1fd"/><path d="M189.15,86.25s-29.56,11.06-25.89,46-16,46-39.67,48.62v10.33s59.48,7.71,69.07-52.48Z" fill="#fff" opacity="0.46"/><path d="M256.64,117.07c-3.52-1.56-7-1.95-9.5-1.27l-3-98.79-3,.09L244.21,118l0,.05c-1.32,3,2.11,7.41,7.67,9.87s11.13,2,12.46-1S262.2,119.52,256.64,117.07Z" fill="#ffd200"/><path d="M267.16,119.83c-3.52-1.55-7-2-9.49-1.27l-3-98.79-3,.09,3.08,100.9a.08.08,0,0,0,0,0c-1.33,3,2.1,7.41,7.66,9.87s11.13,2,12.46-1S272.72,122.29,267.16,119.83Z" fill="#ffd200"/><path d="M276.66,114.81c-3.52-1.56-7-2-9.49-1.27l-3-98.79-3,.09,3.08,100.89s0,0,0,0c-1.33,3,2.1,7.41,7.66,9.87s11.13,2,12.46-1S282.22,117.26,276.66,114.81Z" fill="#ffd200"/><path d="M271.58,117.92c-3.21-2.13-6.61-3.11-9.14-2.86L276.2,17.19l-3-.42-14.06,100,0,0c-1.81,2.72.82,7.66,5.88,11s10.63,3.88,12.44,1.15S276.64,121.28,271.58,117.92Z" fill="#ffd200"/><path d="M256.64,117.07c-3.52-1.56-7-1.95-9.5-1.27l-3-98.79-3,.09L244.21,118l0,.05c-1.32,3,2.11,7.41,7.67,9.87s11.13,2,12.46-1S262.2,119.52,256.64,117.07Z" opacity="0.17"/><path d="M267.16,119.83c-3.52-1.55-7-2-9.49-1.27l-3-98.79-3,.09,3.08,100.9a.08.08,0,0,0,0,0c-1.33,3,2.1,7.41,7.66,9.87s11.13,2,12.46-1S272.72,122.29,267.16,119.83Z" opacity="0.17"/><path d="M276.66,114.81c-3.52-1.56-7-2-9.49-1.27l-3-98.79-3,.09,3.08,100.89s0,0,0,0c-1.33,3,2.1,7.41,7.66,9.87s11.13,2,12.46-1S282.22,117.26,276.66,114.81Z" opacity="0.17"/><path d="M271.58,117.92c-3.21-2.13-6.61-3.11-9.14-2.86L276.2,17.19l-3-.42-14.06,100,0,0c-1.81,2.72.82,7.66,5.88,11s10.63,3.88,12.44,1.15S276.64,121.28,271.58,117.92Z" opacity="0.17"/><ellipse cx="194.8" cy="257.24" rx="136.72" ry="23.39" fill="#e6e6e6" opacity="0.45"/><path d="M201.44,245.67s-2.18,4.08-6.12,3.84-5.52,3.41-2.16,4.92,13-1.67,13-1.67l.58-5.65Z" fill="#68e1fd"/><path d="M191.93,55.16s-1,7-.1,11.69A3.53,3.53,0,0,0,196,69.64c2.38-.49,5.44-1.85,6.43-5.52l2.45-6a6.31,6.31,0,0,0-2.39-6.9C198.68,48.13,192.33,50.89,191.93,55.16Z" fill="#f4a28c"/><polygon points="204.77 60.73 209.19 83.36 196.54 84.91 198.36 68.25 204.77 60.73" fill="#f4a28c"/><path d="M191.54,55a6.39,6.39,0,0,0,2.11.55,27.87,27.87,0,0,0,6.51-.12,5.87,5.87,0,0,0-.37,6.43,4.78,4.78,0,0,0,5.65,2.23l.4-9a7.17,7.17,0,0,0-3.26-6.59" fill="#24285b"/><path d="M199.05,61.6s.21-2.7,2.23-2.37,1.74,4.23-1,4.43Z" fill="#f4a28c"/><path d="M191.52,59.58l-2.12,2.6A1.12,1.12,0,0,0,190,64l2.65.66Z" fill="#f4a28c"/><path d="M198.31,68.72a8.58,8.58,0,0,0,3.88-2.48s1.42,4.85-4.4,7.25Z" fill="#ce8172" opacity="0.31"/><path d="M250.47,242.59s1.08,4.49-2,6.93-1.84,6.22,1.66,5.11,8.62-9.92,8.62-9.92l-3.33-4.6Z" fill="#68e1fd"/><rect x="234.59" y="54.59" width="44" height="110.29" fill="#ffd200"/><path d="M123.59,182.09s-11.5-3.38-12.5,1-1,10.75,2,10.87,10.5-3.62,10.5-3.62Z" fill="#f4a28c"/><path d="M193.72,84.52l12.05-4.15s45.36-15.34,53.43.15,2.73,87.79,2.73,87.79l-45.75,12.57s-37.65-33-43.25-61.34S193.72,84.52,193.72,84.52Z" fill="#68e1fd"/><path d="M217.91,109.73s-10.88,13.48.65,24.48S234,164,209.78,174.86l6.14,6,46-12.57.66-10.63L250.26,145.3l-23.83-32.52Z" opacity="0.08"/><path d="M102.1,242.53c3.61-1.34,7.15-1.51,9.56-.68l9.06-98.43,3,.28-9.25,100.52a.08.08,0,0,1,0,.05c1.14,3.06-2.56,7.26-8.25,9.37S95,255,93.84,251.91,96.4,244.64,102.1,242.53Z" fill="#ffd200"/><rect x="118.26" y="142.66" width="5.25" height="26.62" transform="translate(226.96 322.36) rotate(-174.74)" fill="#24285b"/><rect x="240.57" y="16.21" width="5.25" height="26.62" transform="translate(-0.79 7.44) rotate(-1.75)" fill="#24285b"/><rect x="251.09" y="18.97" width="5.25" height="26.62" transform="translate(-0.87 7.76) rotate(-1.75)" fill="#24285b"/><rect x="260.59" y="13.95" width="5.25" height="26.62" transform="translate(-0.71 8.05) rotate(-1.75)" fill="#24285b"/><rect x="270.54" y="16.05" width="5.25" height="26.62" transform="translate(6.75 -37.76) rotate(8.01)" fill="#24285b"/><path d="M261.93,168.31s2.91,16.15-5.59,27.65-6.68,33,.75,43.86l-8.57,3.89S224,224,235.26,186.54l-17.35-6.14Z" fill="#24285b"/><polygon points="215.92 180.88 199.05 245.68 209.78 247.47 244.78 173.02 215.92 180.88" fill="#24285b"/><path d="M221.92,106.21s-3.86-33.89,18.24-37.87,29,19,29,19-16.25-15.36-32.55-2.39l19.53,33.3,10.8,29.05-1.43,7.12a4.09,4.09,0,0,1-5.36,3.07C250.45,154.08,228.13,142.47,221.92,106.21Z" fill="#24285b"/><path d="M230.59,107.53s-9.5-5.75-13.75-2,1.64,10.25,10.82,8.5Z" fill="#f4a28c"/><path d="M237,94.28a13.43,13.43,0,0,1,18.42-17.23c7.47,3.68,15,9.41,18.68,18.23,9,21.25,21,43.6,6,52.8S227.66,114,227.66,114l2.93-6.5,25.5,10.68S242.06,106.64,237,94.28Z" fill="#68e1fd"/><path d="M237,94.28a13.43,13.43,0,0,1,18.42-17.23c7.47,3.68,15,9.41,18.68,18.23,9,21.25,21,43.6,6,52.8S227.66,114,227.66,114l2.93-6.5,25.5,10.68S242.06,106.64,237,94.28Z" fill="#fff" opacity="0.46"/><path d="M188.29,55.16a51.84,51.84,0,0,0,17.58,1.23s2.31-5.09-.28-7.92c-2-2.25-13.82-2.74-18.58,1.41A3.05,3.05,0,0,0,188.29,55.16Z" fill="#ffd200"/><path d="M113.89,182a5.65,5.65,0,0,1,5,5.38c.26,4.91.23,8.14-6.54,6.38C112.37,193.78,110.32,184,113.89,182Z" fill="#f4a28c"/><circle cx="79" cy="235.36" r="6.11" fill="#e6e6e6"/><path d="M75,239.75H82.9a.83.83,0,0,1,.62,1.37l-1.81,2.08A7,7,0,0,0,80,247.68L79.91,253H77.78l-.18-5.57a7,7,0,0,0-1.5-4.12l-1.76-2.22A.83.83,0,0,1,75,239.75Z" fill="#24285b"/></svg>