<svg id="Layer_1" data-name="Layer 1" xmlns="http://www.w3.org/2000/svg" viewBox="0 0 400 300"><title>#22 graphic chart</title><ellipse cx="206.86" cy="253.36" rx="151.73" ry="20.72" fill="#e6e6e6" opacity="0.45"/><rect x="100" y="198.06" width="51" height="55.3" fill="#e6e6e6"/><rect x="181.36" y="167.67" width="51" height="85.69" fill="#c9c9c9"/><rect x="260.36" y="224.12" width="51" height="29.25" fill="#a5a5a5"/><path d="M248.06,184.09s2.12,3.58,5.65,3.21,5.1,2.85,2.14,4.33-11.78-1-11.78-1l-.74-5.06Z" fill="#68e1fd"/><path d="M229.59,84.8s21,12.14,23,37-6.76,31-28,24.75S229.59,84.8,229.59,84.8Z" fill="#68e1fd"/><path d="M229.59,84.8s21,12.14,23,37-6.76,31-28,24.75S229.59,84.8,229.59,84.8Z" fill="#fff" opacity="0.3"/><path d="M216.46,200.34s-1,4,1.73,6.26,1.6,5.61-1.54,4.58-7.65-9-7.65-9l3.05-4.1Z" fill="#68e1fd"/><path d="M199.44,53.82s2.94,6.21,3.43,10.88a3.44,3.44,0,0,1-3.08,3.79c-2.36.22-5.61-.17-7.58-3.31l-4-4.92a6.16,6.16,0,0,1,.27-7.12C191.13,49.19,197.85,49.94,199.44,53.82Z" fill="#f4a28c"/><polygon points="189.71 61.39 188.1 83.84 200.54 83.85 196.81 67.92 189.71 61.39" fill="#f4a28c"/><path d="M198,54.67a27,27,0,0,1-6.11,1.74,5.73,5.73,0,0,1,2.18,5.9,4.67,4.67,0,0,1-4.64,3.7l-3-8.32a7,7,0,0,1,1.17-7.08,25.07,25.07,0,0,1,2.26-2.37c2-1.84,6.11-1.54,7.65-3.94a1.66,1.66,0,0,1,2.84.11c1.3,2.38,2.32,6.51-.58,9.14A6.29,6.29,0,0,1,198,54.67Z" fill="#24285b"/><path d="M194.64,61.86s-1-2.46-2.76-1.58-.42,4.45,2.24,3.84Z" fill="#f4a28c"/><path d="M201.09,57.82l2.71,1.82a1.1,1.1,0,0,1,0,1.86l-2.3,1.37Z" fill="#f4a28c"/><path d="M196.92,68.37a8.42,8.42,0,0,1-4-1.94s-.81,4.86,5.11,6.5Z" fill="#ce8172" opacity="0.31"/><path d="M188.18,81.35c11.61-1.55,24.77-1.78,35.82.82a14.69,14.69,0,0,1,11.4,13.76c.5,14.73-.08,43.28-10.21,64.17l-38.38,5S170.74,141.32,164,116C159.65,99.49,162.47,84.8,188.18,81.35Z" fill="#68e1fd"/><path d="M192,100.44s-4.82,29.13,15.89,43.63l-21,21s-16.59-27.2-20.3-40.94C163,111.2,183.46,98.11,192,100.44Z" opacity="0.08"/><path d="M186.81,165.1s26.38-33.76,40.88-21.88,23,40.88,23,40.88l-11.76,4s-7.24-20-22.24-25.25C216.69,162.85,194.44,188.6,186.81,165.1Z" fill="#24285b"/><path d="M228.28,170.81l-9.53,32L207.85,199l5.34-36.16S223.37,158,228.28,170.81Z" fill="#24285b"/><polygon points="203.34 140.28 201.37 111.29 241.33 104.67 242.41 139.72 191.8 153.84 190.29 145.91 203.34 140.28" fill="#ffd200"/><path d="M192.49,94.43c-1.35-9.13-12.07-13.54-19.75-8.43-14.09,9.37-38.69,28.89-39.2,51.36-.73,31.52,35.53,24.27,60.33,10.86l-3-9.05s-32.39,8.69-34.92-3.26C153.94,126.19,195.33,113.56,192.49,94.43Z" fill="#68e1fd"/><path d="M192.49,94.43c-1.35-9.13-12.07-13.54-19.75-8.43-14.09,9.37-38.69,28.89-39.2,51.36-.73,31.52,35.53,24.27,60.33,10.86l-3-9.05s-32.39,8.69-34.92-3.26C153.94,126.19,195.33,113.56,192.49,94.43Z" fill="#fff" opacity="0.3"/><rect x="48.02" y="55.48" width="89" height="45.39" fill="#24285b"/><rect x="66.25" y="66.44" width="37.25" height="8.31" fill="#fff"/><rect x="66.25" y="80.12" width="37.25" height="8.31" fill="#fff" opacity="0.24"/><polygon points="111.75 83.25 119.25 68.19 127 83.25 111.75 83.25" fill="#68e1fd"/><rect x="264.85" y="60.93" width="89" height="45.39" fill="#24285b"/><rect x="283.07" y="71.89" width="37.25" height="8.31" fill="#fff"/><rect x="283.07" y="85.58" width="37.25" height="8.31" fill="#fff" opacity="0.24"/><polygon points="343.82 76.1 336.32 91.16 328.57 76.1 343.82 76.1" fill="#ffd200"/><circle cx="224.01" cy="124.57" r="3.75" fill="#fff"/><path d="M191.42,140.68s7.43-6.25,11,0l-9.1,5.82Z" fill="#f4a28c"/></svg>