<svg id="Layer_1" data-name="Layer 1" xmlns="http://www.w3.org/2000/svg" viewBox="0 0 400 300"><title>_</title><path d="M283.27,72.85c30.26,9.78,53.73,37.28,59.82,71.68,5.13,29-3.38,64.62-53.1,81.17-50.75,16.88-192.67,25-219-22S50.12,96.42,104.23,75C142.15,60.06,224.17,53.74,283.27,72.85Z" fill="#e6e6e6" opacity="0.3"/><rect x="204.68" y="234.27" width="83.33" height="20.46" fill="#c9c9c9"/><rect x="219.04" y="213.81" width="75.09" height="20.46" fill="#e6e6e6"/><path d="M134.77,248.2s-1.21,3.68-4.26,4-3.84,3.53-1.1,4.38,9.8-3,9.8-3l-.2-4.8Z" fill="#68e1fd"/><path d="M176.6,248.2s1.22,3.68,4.26,4,3.84,3.53,1.1,4.38-9.79-3-9.79-3l.19-4.8Z" fill="#68e1fd"/><path d="M146,177.41l-11.88,71.45h5.94l14.89-38.79a65.72,65.72,0,0,1,26.43-32.52l4.37-2.71Z" fill="#24285b"/><path d="M185.74,174.84l-6.14,74h-7.89s1.84-55.69-12.4-67.55Z" fill="#24285b"/><path d="M187.65,112.9S218.2,146,239.43,156.08l-4,10.17S184,148.57,174.27,134.82,187.65,112.9,187.65,112.9Z" fill="#68e1fd"/><path d="M187.65,112.9S218.2,146,239.43,156.08l-4,10.17S184,148.57,174.27,134.82,187.65,112.9,187.65,112.9Z" fill="#fff" opacity="0.46"/><path d="M159.84,83.09s1.14,5.51.65,9.33a2.83,2.83,0,0,1-3.19,2.43,6.25,6.25,0,0,1-5.41-4.09l-2.25-4.69a5.05,5.05,0,0,1,1.58-5.63C154.1,77.8,159.31,79.69,159.84,83.09Z" fill="#f4a28c"/><polygon points="150.05 86.92 149.32 105.36 159.51 105.04 155.95 91.75 150.05 86.92" fill="#f4a28c"/><path d="M158.48,83.49a22.85,22.85,0,0,1-5.2.21,4.7,4.7,0,0,1,.6,5.12,3.82,3.82,0,0,1-4.4,2.06l-.76-7.2A5.74,5.74,0,0,1,151,78.26a20.82,20.82,0,0,1,2.26-1.46c2-1.07,5.16,0,6.85-1.67a1.37,1.37,0,0,1,2.25.63c.58,2.15.6,5.64-2.22,7.18A5.32,5.32,0,0,1,158.48,83.49Z" fill="#24285b"/><path d="M154.46,88.58s-.29-2.15-1.89-1.79-1.19,3.46,1,3.49Z" fill="#f4a28c"/><path d="M160.38,86.6l1.82,2a.91.91,0,0,1-.4,1.47l-2.09.66Z" fill="#f4a28c"/><path d="M156.85,94.63a6.67,6.67,0,0,1-3.5-1.57s.54,3.34,4.61,6.21Z" fill="#ce8172" opacity="0.31"/><path d="M185.74,175.53l-17.14,1.26L146,178.47h0c-.49-.7-19.8-28.56-19.41-49.84.21-11.24,5.91-20.63,22.75-23.25l6.93-.22a44.89,44.89,0,0,0,5.05-.45c5.35-.81,21.42-1.8,30.15,13.4C202,136.52,185.74,175.53,185.74,175.53Z" fill="#68e1fd"/><path d="M169,177l-23,1.48h0c-.49-.7-19.8-28.56-19.41-49.84,13-6,34-8.08,34-8.08s4.29,4.42-.81,10.52c-6.27,7.5-8.48,17.76-4.74,26.8,2.42,5.82,5.87,15.06,13.54,18.93Z" opacity="0.08"/><path d="M158.81,113.19a15.88,15.88,0,0,0-18.07-5.29c-12,4.25-32.51,14.4-34.72,34.52-3.13,28.58,42.56,34.85,42.56,34.85l1.48-7.27s-47.33-26.46-1.48-39.79C148.58,130.21,166.92,124.15,158.81,113.19Z" fill="#68e1fd"/><path d="M158.81,113.19a15.88,15.88,0,0,0-18.07-5.29c-12,4.25-32.51,14.4-34.72,34.52-3.13,28.58,42.56,34.85,42.56,34.85l1.48-7.27s-47.33-26.46-1.48-39.79C148.58,130.21,166.92,124.15,158.81,113.19Z" fill="#fff" opacity="0.46"/><path d="M150.12,171.06s7.83.14,6.45,5-8,1.17-8,1.17Z" fill="#f4a28c"/><path d="M238.77,157.73c.08-.18,7.68-1,8.16-.5,1.08,1.15-1.69,1.62-1.69,1.62s4.12,0,4.71.75-.25,2.8-3.87,4.07-9.79.32-9.79.32Z" fill="#f4a28c"/><ellipse cx="242.91" cy="148.13" rx="17.36" ry="11.88" fill="#c9c9c9"/><circle cx="242.91" cy="85.95" r="42.62" fill="#ffd200"/><rect x="223.71" y="124.11" width="38.4" height="27.04" fill="#24285b"/><path d="M233.93,124.11c0-2.07-8.38-42.63-8.38-42.63H259.2l-9.08,42.63" fill="none" stroke="#24285b" stroke-miterlimit="10"/><path d="M272.23,203.66s-8-2.19-9.75-9.64c0,0,12.41-2.51,12.76,10.3Z" fill="#68e1fd" opacity="0.58"/><path d="M273.21,202.87s-5.59-8.85-.67-17.12c0,0,9.44,6,5.25,17.13Z" fill="#68e1fd" opacity="0.73"/><path d="M274.65,202.87s3-9.34,11.9-11.11c0,0,1.68,6.07-5.79,11.14Z" fill="#68e1fd"/><polygon points="268.85 202.66 270.47 213.77 280.69 213.81 282.2 202.72 268.85 202.66" fill="#24285b"/></svg>