<svg id="Layer_1" data-name="Layer 1" xmlns="http://www.w3.org/2000/svg" viewBox="0 0 400 300"><ellipse cx="189.87" cy="252.59" rx="142.03" ry="14.47" fill="#e6e6e6" opacity="0.45"/><path d="M146.21,64.36c-38.59,9.07-69.08,37.72-78,74.57-6.65,27.42-.81,55.69,43.95,66,96.78,22.23,201.31,14.9,213.84-29.56S315.25,54.61,259.91,49.89C228.4,47.2,181.1,56.15,146.21,64.36Z" fill="#e6e6e6" opacity="0.3"/><path d="M83,238.55S74.81,236.34,73,228.7c0,0,12.72-2.63,13.14,10.51Z" fill="#68e1fd" opacity="0.58"/><path d="M84,237.73s-5.78-9-.76-17.56c0,0,9.71,6.11,5.45,17.56Z" fill="#68e1fd" opacity="0.73"/><path d="M85.52,237.73s3-9.6,12.16-11.45c0,0,1.74,6.21-5.89,11.45Z" fill="#68e1fd"/><polygon points="79.56 237.54 81.27 248.93 91.77 248.93 93.27 237.54 79.56 237.54" fill="#24285b"/><path d="M83,238.55S74.81,236.34,73,228.7c0,0,12.72-2.63,13.14,10.51Z" fill="#68e1fd" opacity="0.58"/><path d="M84,237.73s-5.78-9-.76-17.56c0,0,9.71,6.11,5.45,17.56Z" fill="#68e1fd" opacity="0.73"/><path d="M85.52,237.73s3-9.6,12.16-11.45c0,0,1.74,6.21-5.89,11.45Z" fill="#68e1fd"/><polygon points="79.56 237.54 81.27 248.93 91.77 248.93 93.27 237.54 79.56 237.54" fill="#24285b"/><rect x="261.1" y="237.59" width="47.31" height="11.34" fill="#e6e6e6"/><rect x="250.76" y="226.5" width="47.31" height="11.34" fill="#e6e6e6" opacity="0.43"/><rect x="122.37" y="44.24" width="152.83" height="204.69" fill="#c9c9c9"/><rect x="135.01" y="67.58" width="126.5" height="164.08" fill="#24285b"/><rect x="185.1" y="52.24" width="32" height="4.67" opacity="0.12"/><circle cx="173.51" cy="55.08" r="5.21" fill="#fff"/><rect x="135.01" y="191.17" width="126.5" height="40.49" fill="#24285b"/><circle cx="169.8" cy="212.67" r="5.78" fill="#fff"/><circle cx="227.77" cy="212.67" r="5.78" fill="#fff" opacity="0.29"/><circle cx="199.28" cy="211.18" r="14.06" fill="#68e1fd"/><path id="Shape" d="M198.5,212.2a6.19,6.19,0,0,1-1.88-3.53.5.5,0,0,1,.15-.44L198,207a.53.53,0,0,0,.08-.66l-1.9-2.94a.53.53,0,0,0-.69-.2l-3,1.43a.53.53,0,0,0-.29.53,15.86,15.86,0,0,0,13.37,13.37.52.52,0,0,0,.53-.29l1.43-3a.54.54,0,0,0-.19-.69l-2.94-1.89a.54.54,0,0,0-.66.07l-1.19,1.19a.53.53,0,0,1-.44.16,6.26,6.26,0,0,1-3.53-1.88Z" fill="#fff"/><rect x="200.32" y="83.07" width="61.19" height="50.52" fill="#fff"/><path d="M240.16,101.58s6.08.14,9.13,7.77,3.36,10.22,3.36,10.22h-7.59Z" fill="#68e1fd"/><rect x="135.01" y="83.07" width="61.19" height="50.52" fill="#fff"/><path d="M158.59,108.05s-1.86-8.23,9.19-9.33,27.34-3.1,23.72,20.85h-27Z" fill="#ffd200"/><path d="M158.59,108.05s-1.86-8.23,9.19-9.33,27.34-3.1,23.72,20.85h-27Z" opacity="0.08"/><rect x="135.01" y="137.19" width="61.19" height="53.98" fill="#fff"/><rect x="200.32" y="137.19" width="61.19" height="53.98" fill="#fff"/><path d="M153.88,108.05s-1.86-8.23,9.19-9.33,27.34-3.1,23.72,20.85h-27Z" fill="#ffd200"/><path d="M160.37,96.43a15,15,0,0,0-1.21,3.87,1.23,1.23,0,0,0,1.1,1.35,2.7,2.7,0,0,0,2.7-1.18l1.42-1.75a2.19,2.19,0,0,0-.1-2.54A2.35,2.35,0,0,0,160.37,96.43Z" fill="#f4a28c"/><polygon points="163.35 99 165.12 106.83 160.74 107.49 161.21 101.53 163.35 99" fill="#f4a28c"/><path d="M160.91,96.73a9.61,9.61,0,0,0,2.18.62,2,2,0,0,0-.78,2.1,1.67,1.67,0,0,0,1.66,1.31l1-3a2.48,2.48,0,0,0-.41-2.52,10.76,10.76,0,0,0-.81-.85c-.73-.65-2.18-.54-2.73-1.39a.59.59,0,0,0-1,0c-.46.84-.82,2.32.21,3.25A2.28,2.28,0,0,0,160.91,96.73Z" fill="#24285b"/><path d="M162.09,99.29s.34-.88,1-.57.16,1.59-.79,1.38Z" fill="#f4a28c"/><path d="M159.79,97.86l-1,.64a.4.4,0,0,0,0,.67l.82.48Z" fill="#f4a28c"/><path d="M157.43,149.05a15.11,15.11,0,0,0,0,4.06,1.23,1.23,0,0,0,1.45,1,2.71,2.71,0,0,0,2.23-1.92l.85-2.09a2.2,2.2,0,0,0-.83-2.4A2.35,2.35,0,0,0,157.43,149.05Z" fill="#f4a28c"/><polygon points="160.85 150.66 165.04 157.5 161.11 159.53 159.64 153.74 160.85 150.66" fill="#f4a28c"/><path d="M159.91,151.28s.07-.94.77-.82.61,1.47-.36,1.54Z" fill="#f4a28c"/><path d="M157.29,150.58l-.74.9a.39.39,0,0,0,.21.63l.93.23Z" fill="#f4a28c"/><path d="M144.21,119.57s-.43-10.35,12.46-12.07,26.7-6.74,27.41,12.07Z" fill="#68e1fd"/><path d="M240.89,165.54s1.86-8.23-9.19-9.33-27.34-3.1-23.72,20.85h27Z" fill="#ffd200"/><path d="M173.14,108.86s-5.31,1.58-6.09,10.71h9.83Z" opacity="0.08"/><path d="M240.89,165.54s1.86-8.23-9.19-9.33-27.34-3.1-23.72,20.85h27Z" opacity="0.08"/><path d="M173.73,119.57s-3.69-8.81.62-12.08,10.37,3.38,9.73,12.08Z" fill="#68e1fd"/><path d="M173.73,119.57s-3.69-8.81.62-12.08,10.37,3.38,9.73,12.08Z" fill="#fff" opacity="0.46"/><path d="M246.39,165.54s1.86-8.23-9.19-9.33-27.34-3.1-23.72,20.85h27Z" fill="#ffd200"/><path d="M240.94,155.58a15.23,15.23,0,0,1-.35,4,1.23,1.23,0,0,1-1.53.83,2.71,2.71,0,0,1-2.05-2.12l-.65-2.16a2.2,2.2,0,0,1,1.06-2.31A2.35,2.35,0,0,1,240.94,155.58Z" fill="#f4a28c"/><polygon points="236.92 156.5 235.16 164.32 239.53 164.98 239.06 159.02 236.92 156.5" fill="#f4a28c"/><path d="M240.94,157.13l.64,1a.39.39,0,0,1-.27.6l-.94.14Z" fill="#f4a28c"/><path d="M256.06,177.06s.43-10.35-12.46-12.07-26.7-6.74-27.41,12.07Z" fill="#68e1fd"/><path d="M227.13,166.35s5.31,1.58,6.09,10.71h-9.83Z" opacity="0.08"/><path d="M240.16,101.58s6.08.14,9.13,7.77,3.36,10.22,3.36,10.22h-7.59Z" opacity="0.08"/><path d="M226.54,177.06s3.69-8.81-.62-12.08-10.37,3.38-9.73,12.08Z" fill="#68e1fd"/><path d="M226.54,177.06s3.69-8.81-.62-12.08-10.37,3.38-9.73,12.08Z" fill="#fff" opacity="0.46"/><rect x="175.25" y="86.21" width="17.76" height="5" fill="#68e1fd"/><rect x="175.25" y="144.81" width="17.76" height="5" fill="#68e1fd"/><rect x="204.08" y="86.21" width="17.76" height="5" fill="#68e1fd"/><rect x="204.08" y="144.81" width="17.76" height="5" fill="#68e1fd"/><path d="M236.36,159s1.71.06,1.29-1.94,3.9.21,4.33-2.16-1.3-3.28-3.34-2.68S234.25,153.73,236.36,159Z" fill="#24285b"/><path d="M238.26,157.58s0-.94-.69-.9-.74,1.41.21,1.57Z" fill="#f4a28c"/><polygon points="140.58 119.57 146.8 105.59 150.42 106.64 147.66 119.57 140.58 119.57" fill="#68e1fd"/><polygon points="140.58 119.57 146.8 105.59 150.42 106.64 147.66 119.57 140.58 119.57" fill="#fff" opacity="0.46"/><path d="M147.64,105.83s1.05-3.9,4.67-2.58-1.89,3.39-1.89,3.39Z" fill="#f4a28c"/><path d="M214.38,119.57s-4.29-9.25,2.53-14.52,21.43-7.24,26-1.26,3.19,15.78,3.19,15.78Z" fill="#68e1fd"/><polygon points="221.1 109.22 228.3 110.58 239.53 109.22 237.66 119.57 213.77 119.57 212.96 113.11 221.1 109.22" opacity="0.08"/><path d="M218.27,104c-4,2-11.89,7.3-12.16,12.31a3.09,3.09,0,0,0,3.11,3.24h18.5v-1.68L215,115.65s9.49-2.1,8.32-9.18A3.47,3.47,0,0,0,218.27,104Z" fill="#68e1fd"/><path d="M170.54,160.52s7.46-4.83,14.18-.18,4.92,16.71,4.92,16.71l-21.21,0Z" fill="#ffd200"/><path d="M170.54,160.52s7.46-4.83,14.18-.18,4.92,16.71,4.92,16.71l-21.21,0Z" opacity="0.08"/><path d="M218.27,104c-4,2-11.89,7.3-12.16,12.31a3.09,3.09,0,0,0,3.11,3.24h18.5v-1.68L215,115.65s9.49-2.1,8.32-9.18A3.47,3.47,0,0,0,218.27,104Z" fill="#fff" opacity="0.46"/><polygon points="225.15 117.53 222.65 108.86 236.6 108.09 234.85 117.69 234.76 119.57 225.56 119.57 225.15 117.53" fill="#ffd200"/><circle cx="229.97" cy="112.63" r="1.21" fill="#fff"/><path d="M161.73,158s-13.7,2.78-11.48,12c1.55,6.46-2.93,7-2.93,7h9Z" fill="#f4a28c"/><path d="M235.94,111.74s-2.35,6.65-10.7,6.25l.32,1.58h9.2l.09-1.88Z" opacity="0.08"/><path d="M226.85,100.2s-1.26,2.78.45,3.47,2.08-.43,2.08-.43,1.38,1.23,2.28,0a3.21,3.21,0,0,0-.76-4.2C229.68,98.2,226.85,100.2,226.85,100.2Z" fill="#fff"/><path d="M227.23,100.24a13.41,13.41,0,0,1,.34,1.39,1.69,1.69,0,0,0,1.51,1.63c1.63.07,1.69-2.49,1.69-2.49s.67-2.49-1.09-2.57C228.1,98.13,226.61,98.12,227.23,100.24Z" fill="#f4a28c"/><path d="M166.2,160.52s7.46-4.83,14.19-.18,4.91,16.71,4.91,16.71l-21.21,0Z" fill="#ffd200"/><path d="M230.69,100.88s0-.77.65-.83S232,101.45,230.69,100.88Z" fill="#f4a28c"/><path d="M153.27,177.05s-4.81-9.73,2-15,15.62-7.28,20.18-1.31,2.28,16.31,2.28,16.31Z" fill="#68e1fd"/><path d="M170.43,163.08s-4.92,3.2-2.34,10.44l-15-2.81.18,6.34h13.39l8.33-1.38v-5.61Z" opacity="0.08"/><path d="M227.71,100.87s.13-.76-.52-.92S226.38,101.24,227.71,100.87Z" fill="#f4a28c"/><path d="M227.23,100.24s-2.62,0-1.74-2.06,1.34-.67,1.67-2.21.79-1.89,1.67-1.38.3,1.93,1.45,1.39,1.92-1,2.29,0,.21,1.47-.52,1.92.68,1.63-1.19,2.45-3.18-1.17-3.18-1.17Z" fill="#24285b"/><path d="M158,160.2s-.76-2.78,3.75-4.07,5.48,1,5.48,1S162.06,161.11,158,160.2Z" fill="#68e1fd"/><path d="M158,160.2s-.76-2.78,3.75-4.07,5.48,1,5.48,1S162.06,161.11,158,160.2Z" fill="#fff" opacity="0.46"/><path d="M156.45,148.44a2.54,2.54,0,0,0,1.55.88,1.75,1.75,0,0,1,1.42,1.27c.71,2.59,2.77,8.36,7.24,8.51,5.79.19,6.3-1.93,5.27-4s-7.15-1.24-7.52-5c-.34-3.51-5.59-7.55-8-3.69A1.71,1.71,0,0,0,156.45,148.44Z" fill="#24285b"/><path d="M177.4,163.72a30.35,30.35,0,0,1,1.81,13.34H165.94l-11.34-5.34.75-2.42,16.4,4.7a30.67,30.67,0,0,1-1.88-8.79A3.9,3.9,0,0,1,177.4,163.72Z" fill="#f4a28c"/><path d="M155.35,169.29s-4.61-1.89-5.46,0,4.71,2.42,4.71,2.42Z" fill="#f4a28c"/><polygon points="143.08 177.07 141.39 167.51 153.38 167.51 154.42 175.66 159.93 175.74 159.93 177.07 143.08 177.07" fill="#ffd200"/><circle cx="148.09" cy="171.91" r="1.2" fill="#fff"/><rect x="135.01" y="67.58" width="126.5" height="15.49" fill="#fff"/><rect x="135.01" y="67.58" width="126.5" height="15.49" fill="#c9c9c9" opacity="0.27"/><rect x="135.01" y="177.05" width="61.19" height="14.13" fill="#c9c9c9" opacity="0.51"/><rect x="200.32" y="177.05" width="61.19" height="14.13" fill="#c9c9c9" opacity="0.51"/><rect x="200.32" y="119.46" width="61.19" height="14.13" fill="#c9c9c9" opacity="0.51"/><rect x="135.01" y="119.46" width="61.19" height="14.13" fill="#c9c9c9" opacity="0.51"/><circle cx="145.99" cy="75.41" r="4.6" fill="#c9c9c9"/><circle cx="152.25" cy="75.41" r="4.6" fill="#d1d1d1"/><circle cx="157.72" cy="75.41" r="4.6" fill="#e0e0e0"/><circle cx="163.38" cy="75.41" r="4.6" fill="#e5e5e5"/><rect x="229.62" y="71.57" width="24.27" height="7.53" fill="#ffd200"/></svg>