<svg id="Layer_1" data-name="Layer 1" xmlns="http://www.w3.org/2000/svg" viewBox="0 0 400 300"><title>#48 group presentation</title><path d="M84,115.74s-26.24,25.74-21.24,44.49,32.77,26,32.77,26L101.17,175Z" fill="#68e1fd"/><path d="M84,115.74s-26.24,25.74-21.24,44.49,32.77,26,32.77,26L101.17,175Z" opacity="0.08"/><ellipse cx="200.75" cy="253.5" rx="166.42" ry="20.4" fill="#e6e6e6" opacity="0.45"/><rect x="97.63" y="37.06" width="195.04" height="135.33" fill="#e6e6e6"/><path d="M103,77.55a36,36,0,0,1,9.37,19.09c1.54,11.43,12.33,17.36,12.33,17.36s14.66-5.59,22.66,1.74a72.43,72.43,0,0,1,12.88,16.07L188.9,86.28l4.56,2-14.92,24.31s6.63,4.19,2.55,9.86S153,179.6,153,179.6l-26,.46-9.14-30.17-19-41.4-6.4-18.12,5.22-12Z" opacity="0.08"/><polygon points="97.67 96.5 101.17 107 92.86 112.28 89.87 94.08 97.67 96.5" fill="#f4a28c"/><path d="M87,83.93a6.54,6.54,0,0,1,10.81-1.82c3.54,3.78,7.8,9.78,3,13-7.38,5-14.16-4.34-14.16-4.34A11.92,11.92,0,0,1,87,83.93Z" fill="#f4a28c"/><rect x="119.67" y="117.46" width="154.03" height="41.77" fill="#c9c9c9" opacity="0.61"/><path d="M92.41,90.37s-1.89-1.58-2.75.66,2.49,3.34,3.49,2.2S92.41,90.37,92.41,90.37Z" fill="#f4a28c"/><rect x="117.86" y="170.96" width="174.81" height="9.05" fill="#a5a5a5"/><rect x="72.25" y="167.01" width="31.25" height="26" transform="translate(-71.77 59.01) rotate(-26.82)" fill="#ffd200"/><path d="M83.16,117.43A21.2,21.2,0,0,1,96.48,105.8c11.29-3.4,32.08.32,38.42,10.88,8.67,14.46-4,60.39-4,60.39L92.93,180S72.06,142.37,83.16,117.43Z" fill="#68e1fd"/><polygon points="130.87 177.07 125.88 242.3 117.99 242.3 110.95 191.62 93.5 180.01 130.87 177.07" fill="#24285b"/><polygon points="93.5 180.01 82.62 242.3 91.08 242.3 109.35 190.55 93.5 180.01" fill="#24285b"/><path d="M99.76,104.8S82,162,133.26,165.76l-2.39,11.31L92.93,180s-14.6-24.36-12.8-50.48c0,0,.32-14.58,10.58-21A23.12,23.12,0,0,1,99.76,104.8Z" opacity="0.08"/><rect x="119.67" y="53.65" width="72.33" height="49.52" fill="#c9c9c9"/><path d="M84.6,242.16l-5.1,3.76a1.12,1.12,0,0,0,.67,2h8.54a1.12,1.12,0,0,0,1.12-1.12v-4.66Z" fill="#68e1fd"/><polygon points="124.67 98.44 139.75 68.11 154.83 90.82 167.84 73.24 185 97.82 124.67 98.44" fill="#fff"/><circle cx="154.83" cy="69.37" r="5.37" fill="#fff"/><path d="M124.9,242.16l4.79,3.76a1.13,1.13,0,0,1-.7,2h-6.07a3.24,3.24,0,0,1-3.25-3.25v-2.53Z" fill="#68e1fd"/><rect x="177.2" y="77.44" width="2.67" height="48.22" transform="translate(74.7 -75.66) rotate(30)" fill="#24285b"/><path d="M115.23,105.5a19.15,19.15,0,0,0,0,20.23c4.14,7,16.18,20.58,24.41,29.57a8.69,8.69,0,0,0,14-1.63l17.68-31.17-6-3.85-16.21,23.76S138,106,115.23,105.5Z" fill="#68e1fd"/><path d="M290.17,78.41s-7.5-6.51-11.28,3.47c-1.83,4.85-3.4,22.73,4.52,24.62s-20.41,1.09-22.74,14.66-5.34,39.9-24.34,26.9L226,131.81s-6.67-2.41-6.67,2.59,4.64,42.33,36,45.66h17.22l23.06-30.17-.65-49.4Z" opacity="0.08"/><path d="M115.23,105.5a19.15,19.15,0,0,0,0,20.23c4.14,7,16.18,20.58,24.41,29.57a8.69,8.69,0,0,0,14-1.63l17.68-31.17-6-3.85-16.21,23.76S138,106,115.23,105.5Z" fill="#fff" opacity="0.2"/><path d="M169.24,121.16s10-3.69,5.94-9.37-9.85,6.86-9.85,6.86Z" fill="#f4a28c"/><path d="M90.42,97.42,84.79,91.6A6.17,6.17,0,0,1,83.08,87c.14-3,.77-7.68,3.22-11.23,3.85-5.55,9-7.66,10.24-2.85s1.53-.9,4.63,1.65,2.46,4.05,0,5.41-7.56,3.31-8,7.36S96.54,94.69,90.42,97.42Z" fill="#24285b"/><rect x="203" y="58.46" width="70.33" height="7.67" fill="#c9c9c9"/><rect x="203" y="73.72" width="70.33" height="7.67" fill="#c9c9c9" opacity="0.61"/><rect x="203" y="88.97" width="70.33" height="7.67" fill="#c9c9c9" opacity="0.21"/><path d="M289,106.45s-16.51-2.2-19.82,11.59-3.79,32.91-17,36.73-20.61-22.7-20.61-22.7-3.08-7.44-6.39-8.45-5.69,6.32,0,10.82c0,0,4.79,33.87,30.22,32.68S289,131,289,106.45Z" fill="#f4a28c"/><path d="M289,106.45s-16.51-2.2-19.82,11.59-3.79,32.91-17,36.73-20.61-22.7-20.61-22.7-3.08-7.44-6.39-8.45-5.69,6.32,0,10.82c0,0,4.79,33.87,30.22,32.68S289,131,289,106.45Z" opacity="0.08"/><path d="M289,81.88s-10.89,12.82-2.19,17.44c12.76,6.78,14.32-16.66,14.32-16.66Z" fill="#24285b"/><path d="M289.82,83.17a32.71,32.71,0,0,0-2.66,8.43,2.66,2.66,0,0,0,2.39,2.94A5.92,5.92,0,0,0,295.43,92l3.1-3.81a4.78,4.78,0,0,0-.2-5.53C296.26,79.58,291.05,80.16,289.82,83.17Z" fill="#f4a28c"/><polygon points="297.36 89.04 298.61 106.45 288.97 106.45 291.86 94.1 297.36 89.04" fill="#f4a28c"/><path d="M288.54,86.28l-2.1,1.4a.86.86,0,0,0,0,1.44l1.78,1.07Z" fill="#f4a28c"/><path d="M291.78,94.45a6.45,6.45,0,0,0,3.14-1.5s.62,3.77-4,5Z" fill="#ce8172" opacity="0.31"/><path d="M294.22,88.82s.75-1.9,2.14-1.22.32,3.45-1.74,3Z" fill="#f4a28c"/><polygon points="271.55 205.58 263.4 242.65 268.14 242.65 284.01 205.58 271.55 205.58" fill="#f4a28c"/><polygon points="298.09 201.08 306.78 242.65 311.55 242.65 310.83 200.79 298.09 201.08" fill="#f4a28c"/><path d="M263.4,242.65s-2.64,3.34-6,3.17-3.87,4.6,1.55,4.11a29.61,29.61,0,0,0,5-.86,8.86,8.86,0,0,1,4.57.16,1.47,1.47,0,0,0,1.55-.62c1.53-1.8-2.24-6-2.24-6Z" fill="#68e1fd"/><path d="M311.2,242.65s2.64,3.34,6,3.17,3.86,4.6-1.56,4.11a29.61,29.61,0,0,1-5-.86,8.86,8.86,0,0,0-4.57.16,1.47,1.47,0,0,1-1.55-.62c-1.53-1.8,2.24-6,2.24-6Z" fill="#68e1fd"/><path d="M290.45,75.56a5.09,5.09,0,0,0-3.14,3.58c-.33,1.48-.06,3.25,2.31,4.46,4.73,2.41,6.8.82,6.4,3.88s-5.53,13.69,5,13,7.11-7.08,5.21-10.84-2-7-2.68-9.45C302.94,77.92,297.54,72.75,290.45,75.56Z" fill="#24285b"/><path d="M289,106.45h9.64s.66,0,1.8,0c21,.67,33.25,24,22.08,41.87-6.21,9.92-13.63,23.29-14.12,31.28l-37.49-1.9s2.85-24.31-4.1-38.21C266.78,139.49,254,117.62,289,106.45Z" fill="#68e1fd"/><path d="M309.53,114s-15.74,6-8.43,31.22c3.81,13.16-30,11.73-30,11.73s.62,10.1.27,14.69l17.22.91,21,1.37,1-3,6.38-12,.59-15.63-5-8.7Z" opacity="0.08"/><rect x="258.57" y="136.36" width="11.87" height="18.25" transform="translate(-33.3 96.07) rotate(-19.39)" fill="#ffd200"/><polygon points="271.33 171.65 309.61 173.66 319.83 212.44 264.5 210.46 271.33 171.65" fill="#24285b"/><path d="M306,121a8.16,8.16,0,0,1,14.46-5.51,35.09,35.09,0,0,1,8.08,23.29c-.32,22.69-3.38,47.25-52.32,20.41l2.64-7.19s21.72,10.44,30.79,7.05C316.35,156.6,306.72,136.62,306,121Z" fill="#f4a28c"/><path d="M278.89,152s-8.16-3.88-11.64,0,2.05,7.35,9,7.19Z" fill="#f4a28c"/><path d="M333.28,238.74s-8.69-2.33-10.61-10.4c0,0,13.44-2.78,13.88,11.1Z" fill="#68e1fd" opacity="0.58"/><path d="M334.34,237.88s-6.1-9.57-.8-18.55c0,0,10.26,6.45,5.76,18.55Z" fill="#68e1fd" opacity="0.73"/><path d="M335.91,237.88s3.16-10.14,12.84-12.1c0,0,1.84,6.57-6.22,12.1Z" fill="#68e1fd"/><polygon points="329.61 237.68 331.42 249.71 342.5 249.71 344.09 237.68 329.61 237.68" fill="#24285b"/><polygon points="184.25 249.16 181.09 246.72 193.15 231.15 193.15 171.65 197.15 171.65 197.15 232.51 184.25 249.16" fill="#a5a5a5"/><rect x="198.21" y="230.37" width="4" height="19.02" transform="translate(-96.89 143.15) rotate(-32.12)" fill="#a5a5a5"/></svg>