<svg id="Layer_1" data-name="Layer 1" xmlns="http://www.w3.org/2000/svg" viewBox="0 0 400 300"><ellipse cx="196.46" cy="265.06" rx="129.1" ry="12.46" fill="#e6e6e6" opacity="0.45"/><polyline points="279.3 101.3 279.3 260.11 115.89 260.11 115.89 56.31 230.79 56.31" fill="#e6e6e6"/><polygon points="230.79 56.31 230.79 101.3 279.3 101.3 230.79 56.31" fill="#24285b"/><rect x="188.16" y="100.15" width="15.06" height="41.11" fill="#68e1fd"/><rect x="188.16" y="100.15" width="15.06" height="41.11" transform="translate(316.39 -74.99) rotate(90)" fill="#68e1fd"/><rect x="128.91" y="69.64" width="36" height="20.17" opacity="0.13"/><rect x="138.36" y="154.91" width="119.49" height="63.66" fill="#fff" opacity="0.33"/><path d="M279.64,237.09h32.25a6.26,6.26,0,0,1,6.26,6.26V260a0,0,0,0,1,0,0h-38.5a0,0,0,0,1,0,0V237.09A0,0,0,0,1,279.64,237.09Z" fill="#ffd200"/><rect x="232.32" y="177.13" width="54.96" height="82.89" fill="#68e1fd"/><rect x="224.97" y="169.17" width="69.66" height="20.99" rx="6.14" fill="#68e1fd"/><rect x="224.97" y="169.17" width="69.66" height="20.99" rx="6.14" opacity="0.13"/><rect x="232.32" y="207.7" width="54.96" height="35.27" fill="#fff" opacity="0.46"/><path d="M246.64,234.47S266.36,236.94,248,260H232.32l4.42-22.92Z" opacity="0.08"/><path d="M237.22,228.27h2a6.51,6.51,0,0,1,6.51,6.51v11.12a0,0,0,0,1,0,0h-15a0,0,0,0,1,0,0V234.78A6.51,6.51,0,0,1,237.22,228.27Z" transform="translate(157.09 -89.06) rotate(31.17)" fill="#24285b"/><path d="M221.58,243.36h15a0,0,0,0,1,0,0v11.12a6.51,6.51,0,0,1-6.51,6.51h-2a6.51,6.51,0,0,1-6.51-6.51V243.36A0,0,0,0,1,221.58,243.36Z" transform="translate(163.58 -82.16) rotate(31.17)" fill="#68e1fd"/><path d="M219.91,228.27h2a6.51,6.51,0,0,1,6.51,6.51v11.12a0,0,0,0,1,0,0h-15a0,0,0,0,1,0,0V234.78A6.51,6.51,0,0,1,219.91,228.27Z" transform="translate(154.59 -80.1) rotate(31.17)" fill="#24285b"/><path d="M204.28,243.36h15a0,0,0,0,1,0,0v11.12a6.51,6.51,0,0,1-6.51,6.51h-2a6.51,6.51,0,0,1-6.51-6.51V243.36A0,0,0,0,1,204.28,243.36Z" transform="translate(161.08 -73.2) rotate(31.17)" fill="#68e1fd"/><rect x="138.36" y="230.32" width="40.85" height="12.65" fill="#fff"/></svg>