<svg id="Layer_1" data-name="Layer 1" xmlns="http://www.w3.org/2000/svg" viewBox="0 0 400 300"><polyline points="141.8 155.69 125.31 179.73 153.65 160.07" fill="none" stroke="#24285b" stroke-linecap="round" stroke-linejoin="round" stroke-width="8"/><path d="M134.07,142.38s-10.34-2.1-12.38,12.53,24.54,31.91,34.42,14.92S134.07,142.38,134.07,142.38Z" fill="#ffd200"/><path d="M134.07,142.38s-10.34-2.1-12.38,12.53,24.54,31.91,34.42,14.92S134.07,142.38,134.07,142.38Z" fill="#fff" opacity="0.44"/><path d="M271.38,136.05s23.49,11.64,17.36,33.13-43.16,8.8-43.16,8.8" fill="none" stroke="#24285b" stroke-linecap="round" stroke-linejoin="round" stroke-width="8"/><path d="M132.62,145.61c.13-.34-.1-11.08-.28-18.3A5.36,5.36,0,0,1,141,123c2.26,1.81,4.09,5,4.16,10.64C145.36,148.69,132.62,145.61,132.62,145.61Z" fill="#ffd200"/><path d="M132.62,145.61c.13-.34-.1-11.08-.28-18.3A5.36,5.36,0,0,1,141,123c2.26,1.81,4.09,5,4.16,10.64C145.36,148.69,132.62,145.61,132.62,145.61Z" opacity="0.09"/><ellipse cx="206.57" cy="248.81" rx="119.13" ry="12.31" fill="#e6e6e6" opacity="0.45"/><path d="M221.47,177s.6,30.87-5.62,52.53" fill="none" stroke="#24285b" stroke-linecap="round" stroke-linejoin="round" stroke-width="8"/><polygon points="228.16 207.86 207.02 207.86 207.02 248.19 247.33 248.19 225.88 235.03 228.16 207.86" fill="#ffd200"/><path d="M189.05,177s-6.22,30.87,0,52.53" fill="none" stroke="#24285b" stroke-linecap="round" stroke-linejoin="round" stroke-width="8"/><polygon points="176.12 205.76 196.97 209.25 190.31 249.02 150.56 242.37 173.89 232.94 176.12 205.76" fill="#ffd200"/><path d="M231.48,181.7s-7,13.73,5.45,15.09,13.61-10.22,13.61-10.22l-.85-14.67Z" fill="#ffd200"/><path d="M257.35,174.2s7.39,13.53-7.37,14.74l-1.65-14.74Z" fill="#ffd200"/><path d="M257.35,174.2s7.39,13.53-7.37,14.74l-1.65-14.74Z" fill="#fff" opacity="0.44"/><circle cx="215" cy="128.61" r="62.21" fill="#68e1fd"/><ellipse cx="183.24" cy="121.78" rx="4.76" ry="9" transform="translate(11.37 259.15) rotate(-72.24)" fill="#fff" opacity="0.36"/><ellipse cx="245.58" cy="141.75" rx="4.76" ry="9" transform="translate(35.69 332.4) rotate(-72.24)" fill="#fff" opacity="0.36"/><path d="M261.72,87.53a62.2,62.2,0,0,1-101.84,69.9,62.21,62.21,0,1,0,101.84-69.9Z" opacity="0.09"/><path d="M240.24,154.31s-9.54,24.9-40,15.45S177,132.65,177,132.65Z" fill="#24285b"/><path d="M211.75,94.64a7.25,7.25,0,0,0-4.78,0,10.42,10.42,0,0,0-3.57,2.11A10.12,10.12,0,0,0,202,92.82a7.26,7.26,0,0,0-3.74-3c-4.36-1.55-8.92.85-10.61,5.58-1.82,5.11,1,10.07,5.36,17.58.74,1.28,1.57,2.73,2.43,4.26a.94.94,0,0,0,.51.43,1,1,0,0,0,.67,0c1.63-.64,3.19-1.24,4.57-1.76,8.1-3.08,13.45-5.12,15.28-10.23C218.13,100.94,216.11,96.19,211.75,94.64Z" fill="#24285b"/><path d="M110.09,26a12.94,12.94,0,0,0-8,3,18.45,18.45,0,0,0-4.58,5.79,18.53,18.53,0,0,0-4.86-5.56,12.85,12.85,0,0,0-8.15-2.59c-8.27.2-14.34,7.11-14.12,16.08.24,9.69,8.18,16.13,20.21,25.88,2,1.65,4.35,3.53,6.76,5.53a1.68,1.68,0,0,0,1.13.4A1.72,1.72,0,0,0,99.59,74c2.3-2.12,4.52-4.11,6.48-5.86C117.6,57.83,125.22,51,125,41.32,124.76,32.35,118.36,25.74,110.09,26Z" fill="#e6e6e6"/><path d="M249,108.68a7.28,7.28,0,0,0-4.79,0,10.21,10.21,0,0,0-3.56,2.11,10.5,10.5,0,0,0-1.42-3.89,7.28,7.28,0,0,0-3.74-3c-4.36-1.56-8.93.84-10.61,5.57-1.83,5.12,1,10.08,5.36,17.59.73,1.28,1.57,2.72,2.42,4.25a1,1,0,0,0,1.19.43c1.63-.65,3.19-1.24,4.57-1.77,8.1-3.08,13.45-5.11,15.27-10.22C255.35,115,253.33,110.24,249,108.68Z" fill="#24285b"/><path d="M142.19,132.2S153,115,160.37,119.8s-5,22.8-5,22.8,16.73,9.69,10.44,19.12-15.4,11.82-26.38,5.07S127.87,145.35,142.19,132.2Z" fill="#ffd200"/><path d="M285.47,233.47s-9.64-2.63-11.74-11.6c0,0,14.94-3,15.37,12.4Z" fill="#68e1fd" opacity="0.58"/><path d="M286.66,232.52s-6.74-10.65-.81-20.61c0,0,11.36,7.21,6.31,20.63Z" fill="#68e1fd" opacity="0.73"/><path d="M288.39,232.53s3.56-11.25,14.32-13.38c0,0,2,7.3-7,13.41Z" fill="#68e1fd"/><polygon points="281.4 232.27 283.35 245.65 295.67 245.7 297.48 232.34 281.4 232.27" fill="#24285b"/><path d="M99.05,79.17s7.83,17.7-7.32,18.55S63.14,114.23,75.39,125.3s29.9-13.28,44.14-24,30.58,1.36,25.65,14" fill="none" stroke="#c9c9c9" stroke-linecap="round" stroke-linejoin="round" stroke-width="2" stroke-dasharray="1 10"/></svg>