<svg id="Layer_1" data-name="Layer 1" xmlns="http://www.w3.org/2000/svg" viewBox="0 0 400 300"><title>_</title><ellipse cx="200" cy="130.46" rx="154.17" ry="90.32" fill="#e6e6e6" opacity="0.3"/><ellipse cx="200" cy="251.44" rx="147.18" ry="11.33" fill="#e6e6e6" opacity="0.3"/><path d="M73.71,209.57a47.89,47.89,0,0,0,2.52,11.17,33.93,33.93,0,0,0,6.16,11l-.49.83S79.62,231,77,225.81a39.59,39.59,0,0,1-4.42-16.16Z" fill="#24285b"/><polygon points="81.93 225.56 79.24 228.1 80.36 229.98 83.38 227.23 81.93 225.56" fill="#24285b"/><polygon points="77.39 210.75 73.42 211.15 73.75 213.31 78.01 213.38 77.39 210.75" fill="#24285b"/><path d="M88.83,211.38s-4.13,5.53-1.31,10.69-1.11,9.61-5.26,6-6-18.66-6-18.66l7.27-4.35Z" fill="#68e1fd"/><path d="M139.15,249.65A48.49,48.49,0,0,0,150,253.24a33.86,33.86,0,0,0,12.57.35l.47.85s-2.48,1.18-8.3.74a39.66,39.66,0,0,1-16.14-4.52Z" fill="#24285b"/><polygon points="157.09 250.83 157.89 254.44 160.08 254.44 159.26 250.44 157.09 250.83" fill="#24285b"/><polygon points="142.06 247.1 140.35 250.72 142.38 251.54 144.63 247.92 142.06 247.1" fill="#24285b"/><path d="M219.84,112.33c-.65.73-11.61,20.23-12.05,40.61s6.8,34.4,6.8,34.4l-12.06,2s-13.73-17.75-19.06-32.83-5.62-34.22-5.62-34.22Z" fill="#68e1fd"/><path d="M219.84,112.33c-.65.73-11.61,20.23-12.05,40.61s6.8,34.4,6.8,34.4l-12.06,2s-13.73-17.75-19.06-32.83-5.62-34.22-5.62-34.22Z" opacity="0.08"/><path d="M304.87,250.32l-20.69,2.49-124-95.44,2.21-2.89,121.53,93,17.66-3.75a3.13,3.13,0,0,1,3.73,2.51l.49,2.75A1.1,1.1,0,0,1,304.87,250.32Z" fill="#24285b"/><path d="M148.48,237.62s2.62,6.38,8.5,6.61,7.66,5.9,2.46,7.63-19.08-4.45-19.08-4.45v-8.47Z" fill="#68e1fd"/><path d="M140.36,238.94l11.8-.49-11.55-95.14,15.85-11.67L97.41,120.93a38.54,38.54,0,0,0,7.92,30.51,86.63,86.63,0,0,1,11.37,17.78A350.29,350.29,0,0,1,140.36,238.94Z" fill="#24285b"/><path d="M133.7,213.85c2.38,7.79,4.66,16.18,6.66,25.09l11.8-.49-3-24.6Z" fill="#ffd200"/><path d="M163.82,133l-7.94,43.3c-1.51,8.2-7.75,14.71-20.65,20.13L88,214.11l-6.11-10.92,38.66-22.75a18.41,18.41,0,0,0,11-18.72l-3.5-35.23Z" fill="#24285b"/><path d="M110.05,186.61,81.87,203.19,88,214.11l30.85-11.56C116.19,197.1,113.09,191.86,110.05,186.61Z" fill="#ffd200"/><polygon points="271.76 63.93 238.41 69.26 233.67 91.89 265.22 76.25 271.76 63.93" fill="#f4a28c"/><path d="M260.39,78.91a12.19,12.19,0,0,1,1.54-6.85s-5.79,2.17-9.47,10.52Z" fill="#ce8172" opacity="0.31"/><path d="M279,77.34s-8.84,5.3-15.73,6.74a5.17,5.17,0,0,1-6.12-4c-.68-3.48-.58-8.39,3.81-11.8l6.75-6.71s4.37-4.06,10.67-.67S284.58,74.39,279,77.34Z" fill="#f4a28c"/><path d="M273.29,80.4,271,84.72a1.65,1.65,0,0,1-2.78.2l-2.39-3.22Z" fill="#f4a28c"/><path d="M266.31,71.36s3.53-1.8,1.95-4.35-6.7,0-5.41,3.91Z" fill="#f4a28c"/><path d="M233.67,91.89l4.74-22.63s-26.14-25.62-63-18.54c-68.82,13.21-78,70.25-78,70.25l29.14,15.26S211.25,171.84,233.67,91.89Z" fill="#68e1fd"/><path d="M188.91,92s-13.79,22.84-33.84,24.5-29.45,8.19-29.45,8.19l.88,11.56s23.42,9.18,43.9,7.85S202.09,98.27,188.91,92Z" opacity="0.08"/><path d="M196.16,91.12c1.71-10.08-7.95-18.41-17.75-15.49-16.11,4.82-42.07,16.55-57.82,44.23-24.12,42.38,58,62.56,58,62.56l2.07-15s-35.84-16.76-38.13-33.29C140.61,120.32,191.64,117.79,196.16,91.12Z" fill="#68e1fd"/><path d="M196.15,91.12c-1,6.06-4.46,10.88-9.13,14.86a55.32,55.32,0,0,1-9.45,6.35c-2.58,1.41-5.26,2.7-7.93,3.92-8.07,3.65-16.17,6.57-21.39,9.8-3.86,2.4-6.15,5-5.72,8.1,2.29,16.53,38.12,33.3,38.12,33.3l-2.05,15s-82.13-20.16-58-62.54a88.36,88.36,0,0,1,11.26-15.59,92,92,0,0,1,17.46-15c2.48-1.68,5-3.19,7.45-4.53a101.77,101.77,0,0,1,10.43-5,112.29,112.29,0,0,1,11.23-4A13.89,13.89,0,0,1,196.15,91.12Z" fill="#fff" opacity="0.46"/><rect x="174.34" y="162.87" width="7.01" height="23.37" rx="2.04" transform="translate(54.15 -41.77) rotate(15.77)" fill="#ffd200"/><path d="M181.39,165.85s10.3.11,13.91,4.6,4.18,15.23-.7,17.64-18.47-6.45-18.47-6.45Z" fill="#ffd200"/><path d="M269.71,58h20.6a0,0,0,0,1,0,0v4.7a6,6,0,0,1-6,6h-8.6a6,6,0,0,1-6-6V58a0,0,0,0,1,0,0Z" transform="translate(411.38 318.64) rotate(-129.98)" fill="#68e1fd"/><path d="M282.53,74.7l-3.12,2.62-7.27-8.58-3.32,2.78A1.67,1.67,0,1,1,266.67,69l3.62-2.82-2.1-2.44-3.7,2.85-.63-1.86s3.52-4.84,5.43-5.78Z" fill="#24285b"/><path d="M266.38,70.1a43.67,43.67,0,0,0-5.15,6.13A18.69,18.69,0,0,0,258.5,84a.88.88,0,0,0,.6,1.06.86.86,0,0,0,1-.6,17.74,17.74,0,0,1,2.56-7.38,40.84,40.84,0,0,1,4.89-5.79C268.36,70.51,267.15,69.3,266.38,70.1Z" fill="#24285b"/><path d="M169.64,116.25c-8.07,3.65-16.17,6.57-21.39,9.8l-16.41-21.77a92,92,0,0,1,17.46-15Z" fill="#fff" opacity="0.46"/><path d="M187,106a55.32,55.32,0,0,1-9.45,6.35L156.75,84.7a101.77,101.77,0,0,1,10.43-5Z" fill="#fff" opacity="0.46"/><rect x="293.25" y="247.6" width="17.53" height="7.45" fill="#ffd200"/><path d="M200.31,187.5c-.27,2.43,1.16,4.69,2.66,6.61a16.39,16.39,0,0,0,5.31,4.78c3.82,1.9,8.38.5,9.38-3.88.67-3-.73-6.87-2.34-9.39C212.11,180.61,201.11,180.4,200.31,187.5Z" fill="#ffd200"/></svg>