<svg id="Layer_1" data-name="Layer 1" xmlns="http://www.w3.org/2000/svg" viewBox="0 0 400 300"><title>_</title><path d="M337.15,117.79a5.36,5.36,0,0,0-1.8.32,9.31,9.31,0,0,0,.42-2.76,9.13,9.13,0,0,0-18.25,0c0,.25,0,.48,0,.72a6.69,6.69,0,0,0-3-.72,6.61,6.61,0,0,0,0,13.22h22.58a5.39,5.39,0,1,0,0-10.78Z" fill="#dddbdb" opacity="0.3"/><path d="M271.63,72.19a5.2,5.2,0,0,0-1.73.3,8.9,8.9,0,0,0,.41-2.65,8.77,8.77,0,1,0-17.54,0c0,.24,0,.46,0,.69a6.35,6.35,0,1,0-2.87,12h21.69a5.18,5.18,0,1,0,0-10.35Z" fill="#dddbdb" opacity="0.3"/><path d="M77.9,253.51S34.35,201.8,56.13,137.24s87.1-110.57,170-95.24,147.68,54.34,90.73,211.2Z" fill="#dddbdb" opacity="0.18"/><rect x="283.62" y="182.69" width="36.6" height="68.7" fill="#e6e6e6"/><rect x="222.52" y="140.45" width="20.55" height="110.93" fill="#e6e6e6"/><rect x="194.93" y="114.27" width="24.21" height="137.12" fill="#e6e6e6"/><rect x="199.01" y="106.39" width="16.75" height="7.88" fill="#e6e6e6"/><rect x="201.41" y="99.48" width="11.97" height="6.9" fill="#e6e6e6"/><rect x="141.78" y="102.93" width="45.05" height="148.46" fill="#e6e6e6"/><rect x="148.54" y="99.48" width="31.53" height="6.9" fill="#e6e6e6"/><rect x="163.18" y="59.18" width="2.25" height="40.3" fill="#e6e6e6"/><rect x="81.09" y="79.33" width="44.13" height="174.31" fill="#e6e6e6"/><rect x="170.65" y="200.66" width="112.97" height="50.73" fill="#e6e6e6"/><rect x="84.94" y="71.81" width="36.42" height="8.56" fill="#e6e6e6"/><rect x="43.93" y="249.46" width="298.62" height="11.5" rx="5.75" fill="#24285b"/><rect x="186.52" y="223.83" width="58.94" height="25.53" fill="#68e1fd"/><rect x="186.52" y="227.86" width="58.94" height="2.82" fill="#fff" opacity="0.54"/><polygon points="226.88 223.83 205.11 223.83 211 80.37 211.06 78.92 220.93 78.92 225.89 199.8 226.88 223.83" fill="#68e1fd"/><path d="M226.41,212.4l.47,11.43H205.11L211,80.37l.09.06C211.49,196.61,226.41,212.4,226.41,212.4Z" opacity="0.1"/><rect x="211.49" y="236.59" width="9.01" height="12.76" opacity="0.1"/><polygon points="215.99 65.32 219.03 74.65 228.84 74.65 220.9 80.42 223.94 89.76 215.99 83.99 208.05 89.76 211.09 80.42 203.15 74.65 212.96 74.65 215.99 65.32" fill="#ffd200"/><rect x="100.27" y="217.61" width="82.09" height="31.75" fill="#68e1fd"/><rect x="111.54" y="192.14" width="59.54" height="25.47" fill="#68e1fd"/><rect x="116.62" y="187.79" width="49.38" height="4.35" fill="#68e1fd"/><rect x="116.62" y="187.79" width="49.38" height="4.35" opacity="0.1"/><g opacity="0.54"><rect x="108.38" y="226.81" width="7.18" height="13.77" fill="#fff"/><rect x="120.12" y="226.81" width="7.18" height="13.77" fill="#fff"/><rect x="131.85" y="226.81" width="7.18" height="13.77" fill="#fff"/><rect x="143.59" y="226.81" width="7.18" height="13.77" fill="#fff"/><rect x="155.33" y="226.81" width="7.18" height="13.77" fill="#fff"/><rect x="167.06" y="226.81" width="7.18" height="13.77" fill="#fff"/></g><g opacity="0.54"><rect x="116.34" y="208.4" width="49.95" height="3.27" fill="#fff"/><rect x="116.34" y="200.66" width="49.95" height="3.27" fill="#fff"/></g><rect x="116.34" y="192.92" width="49.95" height="3.27" fill="#68e1fd"/><rect x="249.78" y="124.53" width="54.06" height="124.82" fill="#68e1fd"/><polygon points="303.84 124.53 249.78 124.53 258.43 108.2 295.19 108.2 303.84 124.53" fill="#68e1fd"/><rect x="267.43" y="99.38" width="18.77" height="8.82" fill="#68e1fd"/><rect x="254.99" y="130.16" width="43.64" height="1.69" fill="#fff" opacity="0.3"/><rect x="254.99" y="137.48" width="43.64" height="1.69" fill="#fff" opacity="0.3"/><rect x="254.99" y="144.8" width="43.64" height="1.69" fill="#fff" opacity="0.3"/><rect x="254.99" y="152.12" width="43.64" height="1.69" fill="#fff" opacity="0.3"/><rect x="254.99" y="159.44" width="43.64" height="1.69" fill="#fff" opacity="0.3"/><rect x="254.99" y="166.76" width="43.64" height="1.69" fill="#fff" opacity="0.3"/><rect x="254.99" y="174.09" width="43.64" height="1.69" fill="#fff" opacity="0.3"/><rect x="254.99" y="181.41" width="43.64" height="1.69" fill="#fff" opacity="0.3"/><rect x="254.99" y="188.73" width="43.64" height="1.69" fill="#fff" opacity="0.3"/><rect x="254.99" y="196.05" width="43.64" height="1.69" fill="#fff" opacity="0.3"/><rect x="254.99" y="203.37" width="43.64" height="1.69" fill="#fff" opacity="0.3"/><rect x="254.99" y="210.69" width="43.64" height="1.69" fill="#fff" opacity="0.3"/><rect x="254.99" y="218.01" width="43.64" height="1.69" fill="#fff" opacity="0.3"/><rect x="254.99" y="225.33" width="43.64" height="1.69" fill="#fff" opacity="0.3"/><rect x="254.99" y="232.65" width="43.64" height="1.69" fill="#fff" opacity="0.3"/><path d="M60.9,140.74a3.92,3.92,0,0,0-1.33.24,6.49,6.49,0,0,0,.32-2,6.71,6.71,0,0,0-13.42,0c0,.18,0,.35,0,.53a4.75,4.75,0,0,0-2.19-.53,4.86,4.86,0,1,0,0,9.71H60.9a4,4,0,1,0,0-7.92Z" fill="#dddbdb" opacity="0.3"/></svg>