<svg id="Layer_1" data-name="Layer 1" xmlns="http://www.w3.org/2000/svg" viewBox="0 0 400 300"><title>_</title><path d="M329.18,138.7C319.86,106.08,301,85,269.57,78.21,226,68.79,171,68.28,128.82,77.77c-15.69,3.54-31.46,10.12-42.38,22.88C66.2,124.3,60.74,176.44,80,202.55c8.57,11.63,22.89,16,36.38,18.6,51.33,10,104,4.45,156,.31,12.06-1,24.63-2,35-8.7C329.49,198.57,336.38,163.89,329.18,138.7Z" fill="#dddbdb" opacity="0.18"/><rect x="162.23" y="59.14" width="9.42" height="64.09" transform="translate(-18.11 135.24) rotate(-42.03)" fill="#e6e6e6"/><polygon points="151.01 66.48 154.49 70.34 143.37 72.08 141.99 70.54 145.54 67.34 151.01 66.48" fill="#ccc"/><polygon points="161.15 77.73 150.04 79.48 146.57 75.62 157.68 73.88 161.15 77.73" fill="#ccc"/><polygon points="167.82 85.13 156.71 86.88 153.23 83.02 164.34 81.27 167.82 85.13" fill="#ccc"/><polygon points="174.49 92.53 163.38 94.27 159.9 90.42 171.01 88.67 174.49 92.53" fill="#ccc"/><polygon points="181.16 99.93 170.05 101.67 166.57 97.81 177.68 96.07 181.16 99.93" fill="#ccc"/><polygon points="187.83 107.32 176.72 109.07 173.24 105.21 184.35 103.47 187.83 107.32" fill="#ccc"/><polygon points="191.02 110.86 191.9 111.84 187.47 115.83 183.39 116.47 179.91 112.61 191.02 110.86" fill="#ccc"/><rect x="155.82" y="74.92" width="9.42" height="64.09" transform="translate(-7.52 201.67) rotate(-63.08)" fill="#e6e6e6"/><polygon points="136.78 89.63 141.41 91.97 131.67 97.59 129.82 96.66 131.99 92.39 136.78 89.63" fill="#ccc"/><polygon points="150.29 96.48 140.55 102.1 135.92 99.75 145.66 94.13 150.29 96.48" fill="#ccc"/><polygon points="159.17 100.99 149.43 106.61 144.8 104.26 154.54 98.64 159.17 100.99" fill="#ccc"/><polygon points="168.05 105.5 158.31 111.12 153.68 108.77 163.42 103.15 168.05 105.5" fill="#ccc"/><polygon points="176.93 110.01 167.19 115.63 162.56 113.28 172.3 107.66 176.93 110.01" fill="#ccc"/><polygon points="185.81 114.52 176.07 120.14 171.44 117.79 181.18 112.17 185.81 114.52" fill="#ccc"/><polygon points="190.06 116.68 191.23 117.27 188.54 122.58 184.95 124.65 180.32 122.3 190.06 116.68" fill="#ccc"/><path d="M207.24,58.82s-1.06-10.32,3.62-24.08l3.71,1S208,49.07,208.43,59.14Z" fill="#24285b"/><circle cx="205.63" cy="102.65" r="34.39" fill="#68e1fd"/><circle cx="177.42" cy="137.05" r="34.39" fill="#68e1fd"/><circle cx="177.42" cy="137.05" r="34.39" opacity="0.1"/><circle cx="235.38" cy="137.05" r="34.39" fill="#68e1fd"/><circle cx="235.38" cy="137.05" r="34.39" fill="#fff" opacity="0.3"/><path d="M210,202.2v35.32l32.34,17.74H165.88l32.35-15.91V202.2a66.07,66.07,0,0,1-60.18-65.8H270.18A66,66,0,0,1,210,202.2Z" fill="#e6e6e6"/><path d="M208.05,55.41a9,9,0,0,0-5.41-2.23c-2.81-.33-5.92.14-7.91,2.15s-2.43,5.22-2.23,8.1a15.4,15.4,0,0,0,3.21,8.93c2.09,2.45,5.52,3.91,8.62,3a3.72,3.72,0,0,1,1-.22,3.28,3.28,0,0,1,1.31.44,11.3,11.3,0,0,0,9.58.47,11,11,0,0,0,5.1-5.56c1.84-4.18,3.05-12.14-.61-15.8A7.13,7.13,0,0,0,215.81,53a13.1,13.1,0,0,0-4,.4C211.42,53.53,207.86,55.22,208.05,55.41Z" fill="#ffd200"/><path d="M233.9,119.21c-.23-.44-.44-.89-.65-1.35-.1-.22-.21-.45-.3-.68.14.36,0-.09-.06-.16s-.09-.23-.14-.34c-.37-1-.7-1.91-1-2.88a1.41,1.41,0,0,0-2.72.75,35.46,35.46,0,0,0,2.41,6.08,1.43,1.43,0,0,0,1.93.51A1.44,1.44,0,0,0,233.9,119.21Z" opacity="0.1"/><path d="M205.55,96.72h-2.88a1.45,1.45,0,0,0-1,.41,1.41,1.41,0,0,0-.41,1,1.43,1.43,0,0,0,1.4,1.41h2.88a1.42,1.42,0,0,0,1-.42,1.37,1.37,0,0,0,.41-1A1.43,1.43,0,0,0,205.55,96.72Z" opacity="0.1"/><path d="M186.14,87.64a1.37,1.37,0,0,0-1-.41,1.43,1.43,0,0,0-1.41,1.4c-.11,1.39-.21,2.78-.32,4.16a1.48,1.48,0,0,0,.41,1,1.41,1.41,0,0,0,1,.41,1.44,1.44,0,0,0,1.41-1.41c.11-1.38.21-2.77.32-4.16A1.42,1.42,0,0,0,186.14,87.64Z" opacity="0.1"/><path d="M253.22,118a1.4,1.4,0,0,0-.65-.84,1.33,1.33,0,0,0-1.08-.14,12.91,12.91,0,0,0-4.16,2.58,1.43,1.43,0,0,0,0,2,1.46,1.46,0,0,0,2,0A8.14,8.14,0,0,1,250,121a11.22,11.22,0,0,1,2.22-1.3l.06,0a1.55,1.55,0,0,0,.84-.65A1.43,1.43,0,0,0,253.22,118Z" opacity="0.1"/><path d="M242.65,128.47a1.43,1.43,0,0,0-.64-.84,1.71,1.71,0,0,0-1.07-.14l.16,0a21.73,21.73,0,0,1-4.77.09,1.4,1.4,0,0,0-1.4,1.41,1.44,1.44,0,0,0,1.4,1.41,23.26,23.26,0,0,0,5.34-.17,1.4,1.4,0,0,0,.84-.65A1.43,1.43,0,0,0,242.65,128.47Z" opacity="0.1"/><path d="M221.31,122.68l-6.08.52a1.41,1.41,0,1,0,0,2.82l6.08-.52a1.41,1.41,0,0,0,0-2.82Z" opacity="0.1"/><path d="M224.78,96.38a1.47,1.47,0,0,0-.84-.65,1.59,1.59,0,0,0-1.09.15L218.21,98a1.34,1.34,0,0,0-.65.84,1.45,1.45,0,0,0,.14,1.08,1.43,1.43,0,0,0,.84.65,1.64,1.64,0,0,0,1.09-.14l4.64-2.07a1.37,1.37,0,0,0,.65-.84A1.48,1.48,0,0,0,224.78,96.38Z" opacity="0.1"/><path d="M207,85.63a37.16,37.16,0,0,1-2.59-4,1.42,1.42,0,0,0-1.93-.51,1.43,1.43,0,0,0-.5,1.93,35.68,35.68,0,0,0,2.59,4,1.51,1.51,0,0,0,.84.65,1.48,1.48,0,0,0,1.09-.14,1.42,1.42,0,0,0,.64-.84A1.34,1.34,0,0,0,207,85.63Z" opacity="0.1"/><path d="M226.7,87.12a21.42,21.42,0,0,1-2.28-1.51l-.6-.49a1.49,1.49,0,0,0-1-.42,1.41,1.41,0,0,0-1,2.41,21.3,21.3,0,0,0,3.45,2.44,1.43,1.43,0,0,0,1.09.15,1.47,1.47,0,0,0,.84-.65A1.44,1.44,0,0,0,226.7,87.12Z" opacity="0.1"/><path d="M184.75,110.74a1.45,1.45,0,0,0-1.74-1l-4.3,1.17a1.41,1.41,0,1,0,.75,2.71l4.3-1.16A1.42,1.42,0,0,0,184.75,110.74Z" opacity="0.1"/><path d="M192.83,124.78a30.89,30.89,0,0,1-1.79-3.54L191,121a1.6,1.6,0,0,0-.65-.84,1.43,1.43,0,0,0-1.09-.14,1.4,1.4,0,0,0-.84.65,1.33,1.33,0,0,0-.14,1.08,31,31,0,0,0,2.17,4.45,1.41,1.41,0,0,0,1.92.5A1.44,1.44,0,0,0,192.83,124.78Z" opacity="0.1"/><path d="M181.71,124.81a1.44,1.44,0,0,0-1.74-1l-5.27,1.47a1.41,1.41,0,0,0,.75,2.72l5.27-1.47A1.44,1.44,0,0,0,181.71,124.81Z" opacity="0.1"/><path d="M167.63,117.43a13.17,13.17,0,0,0-3.54-1.56A1.48,1.48,0,0,0,163,116a1.4,1.4,0,0,0-.5,1.93,1.43,1.43,0,0,0,.84.64c.45.13.9.29,1.34.46a13.25,13.25,0,0,1,1.53.82,1.41,1.41,0,0,0,1.92-.51A1.45,1.45,0,0,0,167.63,117.43Z" opacity="0.1"/><path d="M162,127.52a1.4,1.4,0,0,0-.65-.84,1.56,1.56,0,0,0-1.08-.15l-4.32.8a1.4,1.4,0,0,0-.84.65,1.4,1.4,0,0,0,.5,1.93,1.64,1.64,0,0,0,1.09.14l4.32-.8a1.41,1.41,0,0,0,1-1.73Z" opacity="0.1"/><path d="M261.87,127.11a1.43,1.43,0,0,0-1.74-1l-3.83,1.15a1.52,1.52,0,0,0-.84.65,1.41,1.41,0,0,0,1.59,2.07l3.83-1.15a1.43,1.43,0,0,0,1-1.73Z" fill="#fff" opacity="0.3"/><path d="M198.23,239.35V202.2a66.07,66.07,0,0,1-60.18-65.8h6.27c14.48,20.29,40.91,46.41,86.28,60.53A65.65,65.65,0,0,1,210,202.2v35.32l32.34,17.74H165.88Z" opacity="0.08"/></svg>