<svg id="Layer_1" data-name="Layer 1" xmlns="http://www.w3.org/2000/svg" viewBox="0 0 400 300"><ellipse cx="193.64" cy="235.07" rx="162.14" ry="11.88" fill="#e6e6e6" opacity="0.3"/><path d="M298.51,225.14s3.12,2.5,6.17,1,5.55.84,3.39,3.18-10.94,3.1-10.94,3.1l-3.39-5.3Z" fill="#68e1fd"/><path d="M218.29,207.58s-4,.51-5,3.77-4.46,3.41-4.64.24,5.35-10,5.35-10l6.18,1.23Z" fill="#68e1fd"/><path d="M237.7,148.94s-6.07,11.41,0,16,47.15,39.34,55,62.65l8.37-3.4S294,191,274.36,165Z" fill="#24285b"/><path d="M237.7,165S269,208.43,218,199.45v9s51.45,13.85,50-18S237.7,165,237.7,165Z" fill="#24285b"/><path d="M281.69,71.61a32.87,32.87,0,0,1-.16,8.79,2.64,2.64,0,0,1-3.18,2,5.9,5.9,0,0,1-4.73-4.27l-1.72-4.57a4.75,4.75,0,0,1,1.93-5.14C276.75,66.2,281.47,68.39,281.69,71.61Z" fill="#f4a28c"/><polygon points="274.12 74.18 267.39 90.16 276.39 93.95 277.68 80.7 274.12 74.18" fill="#f4a28c"/><path d="M281.91,75l1.54,2a.84.84,0,0,1-.49,1.34l-2,.45Z" fill="#f4a28c"/><path d="M277.58,81.82a6.1,6.1,0,0,1-2.24-1.73s-2.74,5.55,1.7,7.19Z" fill="#ce8172" opacity="0.31"/><path d="M275.76,75.56s-.11-2-1.63-1.83-1.4,3.14.69,3.35Z" fill="#f4a28c"/><path d="M275.94,75s-.48-2.31-2.31-1.75-1.5,3.31,1,4.13Z" fill="#f4a28c"/><path d="M265.66,89.55l4.09,1.36a30.56,30.56,0,0,1,12.51,8c7.15,7.57,17.38,21.23,12,33.16-8,17.6-26.81,30.25-26.81,30.25l-38.17-8S223.74,75.8,265.66,89.55Z" fill="#68e1fd"/><path d="M275.76,75.56S277,87.72,271,92.48s-11.41-3.09-19.24,3.31-13.68,8.07-19.35,0,2.84-19.05,15.61-18.41c11.35.56,20.82.9,20.56-5.15-.21-4.7,3.32-8.85,8-8.6A12.14,12.14,0,0,1,281,64.74C290.61,69,275.76,75.56,275.76,75.56Z" fill="#24285b"/><path d="M129.6,215s34.79,1.36,53.86-5.13,5-37.15,24.86-46.48,68.07-3.84,68.07-3.84" fill="none" stroke="#c1c1c1" stroke-miterlimit="10" stroke-width="4"/><circle cx="113.12" cy="133" r="34.83" fill="#ffd200"/><circle cx="113.12" cy="133" r="57.6" fill="#ffd200" opacity="0.14"/><path d="M55.09,227.22S49.9,225.8,48.77,221c0,0,8-1.63,8.27,6.67Z" fill="#68e1fd" opacity="0.58"/><path d="M55.73,226.7s-3.63-5.73-.44-11.09a9.22,9.22,0,0,1,3.4,11.1Z" fill="#68e1fd" opacity="0.73"/><path d="M56.66,226.7s1.92-6,7.71-7.2c0,0,1.08,3.93-3.75,7.22Z" fill="#68e1fd"/><polygon points="52.9 226.57 53.95 233.77 60.57 233.79 61.55 226.6 52.9 226.57" fill="#24285b"/><rect x="80.62" y="196.66" width="64.74" height="36.59" fill="#e6e6e6"/><path d="M261.37,99.9s6.12,18.67-3.93,32.72-1.76,20.68,17.65,23l1,6.22H243.1L229,156.87v-9.75l12.49-20.89Z" opacity="0.09"/><rect x="92.08" y="162.27" width="42.09" height="34.39" fill="#24285b"/><rect x="301.28" y="139.93" width="48.83" height="8.95" rx="3.64" fill="#e6e6e6"/><rect x="301.28" y="168.85" width="48.83" height="8.95" rx="3.64" fill="#e6e6e6"/><polyline points="101.88 161.42 94.69 130.08 107.89 143.11 113.12 126.9 119.92 143.27 129.6 129.58 125.76 161.42" fill="none" stroke="#fff" stroke-miterlimit="10"/><path d="M293.24,135.16h19.69a0,0,0,0,1,0,0v47.45a0,0,0,0,1,0,0H293.24A19.27,19.27,0,0,1,274,163.34v-8.91A19.27,19.27,0,0,1,293.24,135.16Z" fill="#9e9e9e"/><path d="M244.37,93c-6.14,4-16.39,12.45-19.71,25l24.51,12s20.55-26.77,8.67-36.57A11.4,11.4,0,0,0,244.37,93Z" fill="#68e1fd"/><path d="M244.37,93c-6.14,4-16.39,12.45-19.71,25l24.51,12s20.55-26.77,8.67-36.57A11.4,11.4,0,0,0,244.37,93Z" fill="#fff" opacity="0.54"/><path d="M226.82,119.12s-19,36.39-4.71,44.22,49.72,3.8,49.72,3.8,7.15,2.33,9-3.63-11.73-4.46-11.73-4.46-36,.16-32.44-9.05,12.51-19.94,12.51-19.94Z" fill="#f4a28c"/><path d="M301.89,182.61s7.79,5,12,1.84S307.38,176.43,301.89,182.61Z" fill="#f4a28c"/></svg>