<svg id="Layer_1" data-name="Layer 1" xmlns="http://www.w3.org/2000/svg" viewBox="0 0 400 300"><path d="M227.7,205.29a51.38,51.38,0,0,1-7.94-33.81l0-.23H182.66l0,.23a51.38,51.38,0,0,1-7.94,33.81H227.7Z" fill="#c9c9c9"/><rect x="89.75" y="31.74" width="224.94" height="140.14" fill="#24285b"/><rect x="89.75" y="146.41" width="224.94" height="28.8" fill="#c9c9c9"/><circle cx="202.29" cy="162.31" r="5.46" opacity="0.12"/><rect x="105.15" y="47.19" width="192.8" height="99.21" fill="#fff"/><path d="M183,175.25s0,5.75-.33,8.24l37-1.88a49.19,49.19,0,0,1-.14-6.36Z" opacity="0.08"/><polygon points="174.75 205.29 167.05 213.24 235.53 213.24 227.7 205.29 174.75 205.29" fill="#c9c9c9"/><rect x="167.05" y="213.24" width="68.47" height="3.65" fill="#adadad"/><rect x="171.04" y="119.67" width="52.01" height="7.49" fill="#68e1fd" opacity="0.32"/><rect x="206.54" y="119.67" width="16.51" height="7.49" fill="#68e1fd"/><polygon points="213.48 77.31 196.82 67.7 180.17 77.31 180.17 96.54 196.82 106.16 213.48 96.54 213.48 77.31" fill="#68e1fd"/><polygon points="180.17 77.31 196.82 67.7 213.48 77.31 196.82 86.93 180.17 77.31" fill="#fff" opacity="0.46"/><polygon points="196.82 86.93 196.82 106.16 213.48 96.54 213.48 77.31 196.82 86.93" opacity="0.08"/><circle cx="116.7" cy="58.35" r="3.19" fill="#24285b"/><circle cx="127.37" cy="58.35" r="3.19" fill="#68e1fd"/><circle cx="138.34" cy="58.35" r="3.19" fill="#ffd200"/><polygon points="104.01 225.54 252.79 225.54 270.92 263.66 92.54 263.66 104.01 225.54" fill="#c9c9c9"/><rect x="92.54" y="263.66" width="178.38" height="5.18" fill="#adadad"/><polygon points="110.95 231.47 104.01 254.41 212.69 254.41 206.47 231.47 110.95 231.47" fill="#fff" opacity="0.52"/><polygon points="214.13 231.47 223.1 254.41 259.45 254.41 248.35 231.47 214.13 231.47" fill="#fff" opacity="0.29"/><path d="M282.16,225.79s24.23-2.47,32.6,12.32,1.74,26.44-8.22,25.95S262.53,244,282.16,225.79Z" fill="#ffd200"/><path d="M282.16,225.79s24.23-2.47,32.6,12.32,1.74,26.44-8.22,25.95S262.53,244,282.16,225.79Z" opacity="0.08"/><path d="M279.22,223.18a7.75,7.75,0,0,1,6.06-3c7-.07,22.76,1.11,29.19,12.47,8.38,14.8,1.74,26.44-8.22,25.95C296.8,258.12,265.74,240.51,279.22,223.18Z" fill="#ffd200"/><circle cx="288.31" cy="227.71" r="2.94" fill="#fff" opacity="0.53"/></svg>