<svg id="Layer_1" data-name="Layer 1" xmlns="http://www.w3.org/2000/svg" viewBox="0 0 400 300"><ellipse cx="208.96" cy="249.54" rx="119.84" ry="15.22" fill="#e6e6e6" opacity="0.3"/><rect x="249.11" y="227.92" width="30.12" height="16.13" fill="#e6e6e6"/><rect x="266.22" y="238.15" width="30.12" height="7.81" fill="#c9c9c9"/><path d="M184,142.09s-23.49,1.43-32.45,17.5-13.59,72.29,5.57,85.89,89.6,13,103.5-5.26-11.55-30.79-13.8-49.15S245.46,131.69,184,142.09Z" fill="#ffd200"/><path d="M158.58,178.28s-6.12,41.82,9.41,52.31,42.18,12.34,42.18,12.34l7.66,11.47s12.4-1.13,17.82-2.42L228,243.89s13.69.43,12.87-9.3-9.41-16.17-4.65-29.29-7.3-33.74-7.3-33.74l-14.36-9.25Z" opacity="0.09"/><path d="M200.35,231.51s1.31,6.11,11.66,3.84-4.24-10-4.24-10Z" fill="#68e1fd"/><path d="M200.35,231.51s1.31,6.11,11.66,3.84-4.24-10-4.24-10Z" opacity="0.09"/><path d="M227,215.73s15.77-.61,19.84,9.82-16.35,14.84-27.91,10.66-16.69-16-16.69-16l13.37-5Z" fill="#24285b"/><path d="M227,215.73s15.77-.61,19.84,9.82-16.35,14.84-27.91,10.66-16.69-16-16.69-16l13.37-5Z" opacity="0.09"/><path d="M226.43,151.75s11.29.53,16.16,14.27,8.37,43.72.94,45.75-18.91-34.44-18.91-34.44Z" fill="#f4a28c"/><path d="M104,239s-6.35-1.74-7.73-7.65c0,0,9.84-2,10.12,8.17Z" fill="#68e1fd" opacity="0.58"/><path d="M104.78,238.32s-4.44-7-.53-13.58c0,0,7.48,4.76,4.16,13.59Z" fill="#68e1fd" opacity="0.73"/><path d="M105.92,238.32s2.35-7.41,9.43-8.81c0,0,1.33,4.81-4.58,8.83Z" fill="#68e1fd"/><polygon points="101.32 238.16 102.61 246.96 110.71 247 111.91 238.2 101.32 238.16" fill="#24285b"/><rect x="265.47" y="124.62" width="69.4" height="41.73" transform="translate(600.34 290.96) rotate(-180)" fill="#24285b"/><rect x="67.75" y="111.86" width="61.41" height="62.61" transform="translate(196.9 286.33) rotate(-180)" fill="#24285b"/><rect x="170.67" y="41.82" width="58.59" height="42.1" transform="translate(399.93 125.73) rotate(-180)" fill="#24285b"/><path d="M198.48,137.58s-1.33,9.63-3.69,11.84h12.54s-4.06-4-3.69-12.49Z" fill="#f4a28c"/><path d="M198.48,137.58s-1.33,9.63-3.69,11.84h12.54s-4.06-4-3.69-12.49Z" opacity="0.09"/><path d="M195,129.77s-.44,11.56,5.62,12.29,4.6-12.46,4.6-12.46.33-6.49-3.23-7.13S193.75,121.5,195,129.77Z" fill="#f4a28c"/><path d="M195.08,132.44s-3.15-.77-2.89.82-.13,3.76,3.4,2.6Z" fill="#f4a28c"/><path d="M205.19,131.63s3.06-1.06,2.95.55.49,3.73-3.14,2.9Z" fill="#f4a28c"/><path d="M234.48,188.59h14.15s-.57-35.68-23.86-37.5S234.48,188.59,234.48,188.59Z" fill="#68e1fd"/><path d="M234.48,188.59h14.15s-.57-35.68-23.86-37.5S234.48,188.59,234.48,188.59Z" fill="#fff" opacity="0.44"/><path d="M168.11,198.53a54.53,54.53,0,0,1-5.57-22.19c0-.58,0-1.17,0-1.76,0-10.7,3-24.17,17.31-24.61,23.89-.74,53.93-3.69,58.18,12s-11,53.76-11,53.76l-50.34.39Z" fill="#68e1fd"/><path d="M163.28,166s5.28,35.27,28.89,38,42.31-10.71,42.31-10.71L227,215.73l-50.34.39L167.41,197S160.06,181.31,163.28,166Z" opacity="0.09"/><path d="M238.94,211.93c4.92,2.78,10.13-3.17,6.82-7.75a51.57,51.57,0,0,0-4.82-5.82c-4.73-4.86-23-17.42-23-17.42l-4.41,5s7.47,7.41,11.94,12.31C228.18,201.19,233.4,208.81,238.94,211.93Z" fill="#f4a28c"/><rect x="211.69" y="170.94" width="9.85" height="16.86" transform="translate(22.7 -24.33) rotate(6.78)" fill="#ffd200"/><path d="M188.06,163.11c.69-12.12-16.11-16.61-22.37-6.21-2.84,4.72-5,11.19-5.5,20.09-1.89,32.59,6.22,42.43,15.94,40.34s33.74-29.64,33.74-29.64,9.22-3.57,4.22-10.7S206,183.1,206,183.1s-26.34,21.37-26.64,13C179.23,192.19,186.87,184.34,188.06,163.11Z" fill="#f4a28c"/><path d="M193.88,132.26l-1.13-3.74a3.8,3.8,0,0,0-1.77-2.28,2.67,2.67,0,0,1-1.27-3.08c.5-3.24,4.25-.91,3.74-3.54s3-4.66,4.46-3.65,2.84,3.54,3.85,1.92a3,3,0,0,1,4.81-.4c1.27,1.62-1.26,4.21,0,4.69s4.61,1.39,3.3,3.51a3.14,3.14,0,0,1-1.3,1.19,5.53,5.53,0,0,0-3.21,3.88l-.17.87a21.22,21.22,0,0,0-1.4-4.92c-.91-1.83-7.09-2.54-7.7-.81a41.19,41.19,0,0,0-1,6.54Z" fill="#24285b"/><path d="M158.91,185.77l24.52,4s13.77-32.27-1.83-38.73S156.68,164.29,158.91,185.77Z" fill="#68e1fd"/><path d="M158.91,185.77l24.52,4s13.77-32.27-1.83-38.73S156.68,164.29,158.91,185.77Z" fill="#fff" opacity="0.44"/><path d="M176.13,217.33l23.18-5.52a19.54,19.54,0,0,1,22,10.24l13.16,25-8.1,4.88L212,235.35a11.83,11.83,0,0,0-11.66-3.84C191.37,233.65,176.37,234.61,176.13,217.33Z" fill="#24285b"/><path d="M228.92,250.45l1.87,3a2.29,2.29,0,0,0,3.57.39l5.84-6a2.33,2.33,0,0,0-1.57-4C236.07,243.85,232.58,245.12,228.92,250.45Z" fill="#68e1fd"/><rect x="185.56" y="57.77" width="10.32" height="15.13" fill="#68e1fd"/><path d="M195.88,59.36s5.56.32,6.5-5.14l.56-3.23a1.9,1.9,0,0,1,3.15-1.07,4.12,4.12,0,0,1,1.24,2.94c.19,4-1.8,5.36,2.29,6.5s6.18,2.2,5.76,5.24-4.09,2.62-4.09,4.41-1,4.71-7.33,3.66-8.08-.94-8.08-.94Z" fill="#fff"/><circle cx="190.32" cy="62.72" r="1.97" fill="#fff" opacity="0.07"/><path d="M320.91,146.35h-.12v-4.76a4.43,4.43,0,0,0-4.24-4.42,1.42,1.42,0,0,0-.92-2.5,1.41,1.41,0,0,0-.91,2.5,4.43,4.43,0,0,0-4.2,4.42v4.76h0a1.6,1.6,0,0,0-1.6,1.6v.5a1.61,1.61,0,0,0,1.6,1.61h10.4a1.61,1.61,0,0,0,1.61-1.61V148A1.61,1.61,0,0,0,320.91,146.35Z" fill="#ffd200"/><path d="M313.72,151a2.14,2.14,0,0,0-.15.76,2.07,2.07,0,0,0,4.13,0,2.14,2.14,0,0,0-.15-.76Z" fill="#ffd200"/><rect x="277.87" y="137.47" width="21.63" height="4.94" fill="#fff"/><rect x="277.87" y="146.72" width="21.63" height="4.94" fill="#fff" opacity="0.28"/><path d="M103.12,99.35l-.14,0a.5.5,0,0,1-.34-.62,25.49,25.49,0,0,1,1.17-2.86.5.5,0,0,1,.66-.24.5.5,0,0,1,.24.67A22.32,22.32,0,0,0,103.6,99,.49.49,0,0,1,103.12,99.35Zm6.42-11.28a.49.49,0,0,1-.4-.8c.61-.79,1.26-1.57,1.93-2.34a.5.5,0,1,1,.76.66c-.66.75-1.3,1.52-1.9,2.29A.48.48,0,0,1,109.54,88.07Zm9.15-9.19a.53.53,0,0,1-.4-.19.5.5,0,0,1,.08-.7c.78-.62,1.59-1.24,2.41-1.83a.5.5,0,0,1,.59.81c-.81.59-1.61,1.19-2.37,1.8A.56.56,0,0,1,118.69,78.88Zm10.93-7a.5.5,0,0,1-.45-.28.51.51,0,0,1,.22-.67c.88-.44,1.79-.88,2.72-1.3a.49.49,0,0,1,.66.24.5.5,0,0,1-.24.67c-.93.41-1.82.85-2.69,1.28A.46.46,0,0,1,129.62,71.9Zm12-4.83a.51.51,0,0,1-.48-.35.51.51,0,0,1,.33-.63c1-.29,1.91-.57,2.9-.84a.5.5,0,0,1,.26,1c-1,.26-1.93.54-2.86.83Zm12.64-2.94a.5.5,0,0,1-.08-1c1-.16,2-.31,3-.44a.49.49,0,0,1,.57.43.51.51,0,0,1-.43.56c-1,.13-2,.28-3,.44Z" fill="#e6e6e6"/><path d="M300.57,107.05a.49.49,0,0,1-.47-.35c-.3-.94-.63-1.88-1-2.8a.5.5,0,0,1,.29-.65.52.52,0,0,1,.65.29c.36.94.69,1.9,1,2.85a.5.5,0,0,1-.33.63A.4.4,0,0,1,300.57,107.05Zm-5.46-11.74a.51.51,0,0,1-.43-.23c-.52-.83-1.08-1.65-1.66-2.46a.51.51,0,0,1,.12-.7.5.5,0,0,1,.7.12c.59.82,1.15,1.66,1.69,2.51a.49.49,0,0,1-.16.69A.48.48,0,0,1,295.11,95.31Zm-8.21-10a.52.52,0,0,1-.35-.14c-.71-.69-1.44-1.36-2.19-2a.49.49,0,0,1-.05-.7.51.51,0,0,1,.71-.05c.76.66,1.51,1.35,2.23,2.05a.5.5,0,0,1,0,.7A.48.48,0,0,1,286.9,85.29Zm-10.21-8a.53.53,0,0,1-.27-.08c-.84-.54-1.69-1.06-2.54-1.56a.5.5,0,1,1,.5-.86c.87.5,1.73,1,2.58,1.58a.5.5,0,0,1,.15.69A.51.51,0,0,1,276.69,77.27Zm-11.47-6.11a.46.46,0,0,1-.2,0c-.93-.4-1.85-.79-2.76-1.16a.5.5,0,1,1,.38-.92c.92.37,1.84.76,2.78,1.17a.49.49,0,0,1,.25.66A.5.5,0,0,1,265.22,71.16ZM253,66.71l-.15,0q-1.49-.43-2.88-.81a.5.5,0,0,1-.35-.61.48.48,0,0,1,.61-.35c.93.24,1.91.51,2.91.81a.5.5,0,0,1-.14,1Zm-12.7-2.92h-.08c-1.87-.3-3-.41-3-.42a.5.5,0,1,1,.1-1s1.13.12,3,.42a.5.5,0,0,1-.08,1Z" fill="#e6e6e6"/><path d="M273,209.07a.5.5,0,1,1,0-1c1,0,2,0,3-.11a.49.49,0,0,1,.54.46.5.5,0,0,1-.47.53c-1,.07-2,.11-3,.12Zm12.77-2a.49.49,0,0,1-.47-.34.51.51,0,0,1,.31-.64,28.75,28.75,0,0,0,2.73-1.09.5.5,0,0,1,.66.25.49.49,0,0,1-.24.66,27.35,27.35,0,0,1-2.83,1.13A.45.45,0,0,1,285.77,207.06Zm10.89-6.84a.47.47,0,0,1-.35-.14.49.49,0,0,1,0-.7,25.89,25.89,0,0,0,1.91-2.24.5.5,0,0,1,.7-.09.51.51,0,0,1,.1.7,29.62,29.62,0,0,1-2,2.32A.51.51,0,0,1,296.66,200.22Zm6.58-11.09a.41.41,0,0,1-.16,0,.49.49,0,0,1-.32-.63c.32-.92.6-1.87.85-2.84a.5.5,0,0,1,.61-.36.51.51,0,0,1,.36.61c-.26,1-.55,2-.87,2.91A.5.5,0,0,1,303.24,189.13Zm2.17-12.79h0a.49.49,0,0,1-.49-.51c0-.26,0-.5,0-.73,0-1.38-.08-2.2-.08-2.21a.51.51,0,0,1,.45-.55.52.52,0,0,1,.55.46s.08.87.08,2.3c0,.23,0,.49,0,.75A.5.5,0,0,1,305.41,176.34Z" fill="#e6e6e6"/><path d="M130.15,220.62c-1.06,0-2.06,0-3-.11a.5.5,0,0,1-.46-.54.49.49,0,0,1,.54-.46c.94.07,1.92.11,2.9.11a.53.53,0,0,1,.52.5A.47.47,0,0,1,130.15,220.62Zm-12.66-2.37a.48.48,0,0,1-.2,0,30,30,0,0,1-2.74-1.32A.5.5,0,1,1,115,216a27,27,0,0,0,2.65,1.28.5.5,0,0,1-.19,1Zm-10.44-7.53a.52.52,0,0,1-.38-.17c-.66-.75-1.31-1.54-1.92-2.36a.51.51,0,0,1,.11-.7.5.5,0,0,1,.7.1c.59.8,1.22,1.57,1.86,2.29a.51.51,0,0,1,0,.71A.55.55,0,0,1,107.05,210.72Zm-6.77-11.05a.5.5,0,0,1-.46-.3c-.38-.91-.74-1.87-1.08-2.84a.5.5,0,0,1,.31-.63.48.48,0,0,1,.63.3c.33,1,.69,1.89,1.07,2.78a.52.52,0,0,1-.27.66A.69.69,0,0,1,100.28,199.67Zm-3.5-12.51a.5.5,0,0,1-.49-.43c-.3-1.86-.37-3-.38-3a.5.5,0,0,1,1-.07s.08,1.14.36,3a.49.49,0,0,1-.41.57Z" fill="#e6e6e6"/><rect x="77.02" y="121.55" width="27.19" height="21.62" fill="#fff" opacity="0.23"/><rect x="108.68" y="124.95" width="12.59" height="2.94" fill="#fff"/><rect x="108.68" y="131.29" width="12.59" height="2.94" fill="#fff" opacity="0.23"/><rect x="108.68" y="137.12" width="12.59" height="2.94" fill="#fff" opacity="0.23"/><rect x="76.17" y="148.73" width="45.11" height="16.08" fill="#fff" opacity="0.23"/><polygon points="77.02 143.18 85.05 131.29 91.54 140.42 97.41 133.1 104.2 143.18 77.02 143.18" fill="#fff" opacity="0.73"/><circle cx="91.48" cy="128.45" r="2.45" fill="#fff"/></svg>