<svg id="Layer_1" data-name="Layer 1" xmlns="http://www.w3.org/2000/svg" viewBox="0 0 400 300"><ellipse cx="200.49" cy="251.93" rx="160.51" ry="21.62" fill="#e6e6e6" opacity="0.45"/><rect x="72.08" y="46.45" width="114.13" height="204.69" fill="#c9c9c9"/><rect x="81.52" y="56.79" width="94.47" height="182.04" fill="#fff"/><rect x="98.28" y="53.21" width="60.26" height="13.4" fill="#c9c9c9"/><rect x="119.49" y="54.45" width="32" height="4.67" opacity="0.12"/><circle cx="107.9" cy="57.29" r="5.21" fill="#fff"/><rect x="69.09" y="75.77" width="3" height="20.26" fill="#ffd200"/><rect x="69.09" y="101.55" width="3" height="40.73" fill="#ffd200"/><rect x="186.21" y="85.89" width="3" height="40.73" fill="#ffd200"/><rect x="212.34" y="46.45" width="114.13" height="204.69" transform="translate(538.81 297.59) rotate(-180)" fill="#c9c9c9"/><rect x="326.47" y="75.77" width="3" height="20.26" transform="translate(655.94 171.79) rotate(-180)" fill="#ffd200"/><rect x="326.47" y="101.55" width="3" height="40.73" transform="translate(655.94 243.84) rotate(-180)" fill="#ffd200"/><rect x="209.34" y="85.89" width="3" height="40.73" transform="translate(421.68 212.52) rotate(-180)" fill="#ffd200"/><rect x="102.69" y="185.38" width="52.01" height="7.49" fill="#68e1fd"/><rect x="119.49" y="99.26" width="14.44" height="27.49" fill="#68e1fd"/><ellipse cx="128.15" cy="149.54" rx="33.7" ry="7.25" fill="#e6e6e6" opacity="0.45"/><rect x="138.19" y="185.38" width="16.51" height="7.49" fill="#fff" opacity="0.46"/><rect x="110.79" y="104.7" width="33.02" height="44.09" fill="#24285b"/><polygon points="122.24 123.29 128.72 115.83 126.28 123.21 130.19 127.44 125.03 134.08 127 127.72 122.24 123.29" fill="#fff"/><rect x="226.7" y="59.12" width="39.32" height="36.9" opacity="0.12"/><circle cx="238.12" cy="69.29" r="5.21" fill="#fff"/><circle cx="254.46" cy="69.29" r="5.21" fill="#68e1fd"/><circle cx="238.12" cy="84.87" r="5.21" fill="#fff"/><circle cx="254.46" cy="84.87" r="5.21" fill="#fff"/><circle cx="269.21" cy="144.92" r="19.96" opacity="0.12"/></svg>