<svg id="Layer_1" data-name="Layer 1" xmlns="http://www.w3.org/2000/svg" viewBox="0 0 400 300"><polygon points="237.55 198.81 260.42 196.85 260.72 205.61 237.54 208.22 237.55 198.81" fill="#f4a28c"/><ellipse cx="206.06" cy="256.85" rx="122.2" ry="11.65" fill="#e6e6e6" opacity="0.3"/><path d="M163.34,119.26s-19.43,4.56-37.89-10.07c0,0,.24-10.56-7.68-11.51S107.46,109,114.9,113.26,141,142.52,168.72,138,174.61,111.82,163.34,119.26Z" fill="#f4a28c"/><path d="M163.34,119.26s-19.43,4.56-37.89-10.07c0,0,.24-10.56-7.68-11.51S107.46,109,114.9,113.26,141,142.52,168.72,138,174.61,111.82,163.34,119.26Z" opacity="0.08"/><path d="M187.41,42.43s0,9.23,7.72,11.91,14.09-1.56,19.79,5.43-5.25,23-23.09,7.11S180.7,41.59,187.41,42.43Z" fill="#24285b"/><polygon points="184.9 42.43 191.83 66.88 179.31 72.6 179.84 51.5 184.9 42.43" fill="#f4a28c"/><path d="M179.71,55.23a30.09,30.09,0,0,0,6.66-3A12.79,12.79,0,0,1,179.55,63Z" fill="#ce8172" opacity="0.31"/><path d="M175.05,39.74s-2.44,8.29-2.16,14.18A4.35,4.35,0,0,0,177.47,58c3-.19,6.93-1.3,8.77-5.58l4-6.89s2.37-4.4-1.71-8.8S176.28,34.61,175.05,39.74Z" fill="#f4a28c"/><path d="M173.78,45l-3,2.78a1.38,1.38,0,0,0,.42,2.3l3.11,1.27Z" fill="#f4a28c"/><path d="M176.54,35.79s-5.57,7.67,6,13l6.53,5.93s5.91-5.81,6.59-12.63S183.83,24.17,176.54,35.79Z" fill="#24285b"/><path d="M182.58,48.81s.72-3.25,3.12-2.51,1.39,5.45-2,5.22Z" fill="#f4a28c"/><path d="M193.52,65.41l-17.9,8.18s-34.34,21.86-26.91,44.64S189,171.06,189,171.06l45.56-20.15s-14.38-30-15.82-58S193.52,65.41,193.52,65.41Z" fill="#68e1fd"/><path d="M179.34,78.25s-10.42,24.46,12.93,34.05,26.47,19.19,18.07,22.31S172,136.29,172,136.29s-5.31,12.47,11.5,12.71,29.11,2.56,31.11,10.75l20-8.84s-4.62-10.34-5.79-14-.07-29.36-.07-29.36Z" opacity="0.08"/><path d="M171.83,214.39l-.15,30.82H182s2.12-31.43,9.45-52.49L179,188.14S170,203.4,171.83,214.39Z" fill="#f4a28c"/><path d="M187.17,97.76c-18.78-13-2.52-41.15,18.25-31.62.53.24,1.06.51,1.59.78,12.71,6.72,36.21,18.47,42,43.89s-39.09,34.77-71.23,31.42c0,0-17.17,2.39-12.78-9.84s15.09.72,15.09.72,38.46-2.15,42.3-15.34C224.67,109.83,201.54,107.71,187.17,97.76Z" fill="#f4a28c"/><path d="M234.56,150.91s8.77,16.51-6.18,26.87-28.85,2.76-41.62,40.23l-15.38-2.71s0-34.76,17.62-44.24Z" fill="#24285b"/><path d="M175.9,239.71s-8.24-3.35-8.55,2.14l-.09,1.63a5.5,5.5,0,0,1-5.24,5.2,13.38,13.38,0,0,1-2.83-.15,3.36,3.36,0,0,0-2.38,6.16,12.38,12.38,0,0,0,4.75,1.5c10.68,1.53,19,2.75,20.63-1.52S186.88,241.24,175.9,239.71Z" fill="#68e1fd"/><path d="M257.55,202.13s.63,8.88,5.69,6.72l1.5-.63a5.52,5.52,0,0,1,7,2.39,14.73,14.73,0,0,1,1.11,2.61,3.36,3.36,0,0,0,6.58-.58,12.51,12.51,0,0,0-.75-4.92c-3.35-10.26-5.94-18.26-10.49-17.84S254.06,191.6,257.55,202.13Z" fill="#68e1fd"/><path d="M206.87,170.61s2.37,39.54,20.07,39.54a66.72,66.72,0,0,0,12.33-1l.69-13.39s-14.19-.11-8.64-30.5Z" fill="#24285b"/><polygon points="200.47 105.97 220.89 72.6 237.12 85.37 218 113.12 200.47 105.97" fill="#ffd200"/><circle cx="220.32" cy="92.91" r="6.64" fill="#fff" opacity="0.45"/><polygon points="118.01 116.31 125.85 108.79 132.87 113.44 124.58 122.38 118.01 116.31" fill="#ffd200"/></svg>