<svg id="Layer_1" data-name="Layer 1" xmlns="http://www.w3.org/2000/svg" viewBox="0 0 400 300"><ellipse cx="200.96" cy="256.98" rx="114.41" ry="14.96" fill="#e6e6e6" opacity="0.3"/><path d="M159.86,230.3h94.89l-18.3-45.11-32.4-.88S158.83,170.9,159.86,230.3Z" fill="#24285b"/><path d="M159.86,230.3h94.89l-18.3-45.11-32.4-.88S158.83,170.9,159.86,230.3Z" opacity="0.27"/><polygon points="187.77 179.24 192.7 249.19 202.66 249.19 205.21 177.45 187.77 179.24" fill="#68e1fd"/><polygon points="221.72 178.57 216.79 248.53 206.83 248.53 204.28 176.78 221.72 178.57" fill="#68e1fd"/><polygon points="225.98 168.17 243.38 213.32 211.28 218.79 203.52 181.79 196.49 219.31 164.71 217.02 175.52 168.17 225.98 168.17" fill="#68e1fd"/><polygon points="225.98 168.17 243.38 213.32 211.28 218.79 203.52 181.79 196.49 219.31 164.71 217.02 175.52 168.17 225.98 168.17" opacity="0.09"/><polygon points="225.13 156.04 225.98 168.17 175.52 168.17 176.11 156.04 225.13 156.04" fill="#ffd200"/><polygon points="166.26 121.64 182.16 156.04 225.23 156.04 240.84 105.16 203.01 84.93 166.26 121.64" fill="#68e1fd"/><polygon points="166.26 121.64 182.16 156.04 225.23 156.04 240.84 105.16 203.01 84.93 166.26 121.64" opacity="0.09"/><polygon points="195.47 50.74 193.64 78.3 208.9 78.22 204.1 58.19 195.47 50.74" fill="#f4a28c"/><path d="M205.34,62.53a10,10,0,0,1-5.18-2.48s.67,5,6.66,9.47Z" fill="#ce8172" opacity="0.31"/><path d="M210.76,48.27s1,8.37-.2,14a4.23,4.23,0,0,1-5.06,3.22c-2.83-.65-6.46-2.36-7.55-6.78l-2.77-7.27s-1.58-4.62,3-8.2S210.4,43.14,210.76,48.27Z" fill="#f4a28c"/><path d="M211.13,53.57l2.46,3.17a1.35,1.35,0,0,1-.77,2.14l-3.2.72Z" fill="#f4a28c"/><path d="M192,54.52l2.91,5.53,7.14-4.26s3-5.41,1.84-10.31c0,0,5.16-.95,6.92,3.35,0,0,2.51-5.35-1.2-9.29s-11.34-3-13.84,1c0,0-10.84,2.39-4.71,12.39C191.39,53.43,191.72,54,192,54.52Z" fill="#24285b"/><path d="M202.06,55.79s-.18-3.25-2.61-2.91-2.2,5,1.13,5.34Z" fill="#f4a28c"/><path d="M190,50.74a9.21,9.21,0,0,1,0,6.45c-1.33,3.32-4.39,6.77,1,8.41s9.45,4.11,9.24-7.38c0,0-2.66-1.19-2.33-5.37s-7.76-2.47-7.76-2.47" fill="#24285b"/><path d="M203.65,51.65s-2.43,8.35.89,10.22a6.43,6.43,0,0,0,6,.4s.36,2.71-2.11,3.33-8.76,1.14-8.29-7.38a11.43,11.43,0,0,0,1.48-4.65C202,50.64,203.65,51.65,203.65,51.65Z" fill="#24285b"/><path d="M152.07,108.64s-10,52.08,14.85,54,34-2.55,34-2.55l-.84-8.05s-24.18,3.58-21.88-16.72,2.68-30.38-7.66-31.79S152.07,108.64,152.07,108.64Z" fill="#68e1fd"/><path d="M186.36,112.28s-6.78,62-10.84,83.81c-1.84,9.86-4,20.69-5.71,29.47a21.14,21.14,0,0,1-21.47,17l-34.44-1.21s36.23-79.25,36.23-126.88Z" fill="#24285b"/><path d="M211.16,59.25s-2.24.28-3.09,1.47c0,0,1.67-.12,3.09-.34Z" fill="#24285b"/><path d="M242.41,100.77s8.85,33.7,2.72,42.72-31.69,6-31.69,6l-1.79-9.54s26.16-1.71,11-27.07S236.62,84.26,242.41,100.77Z" fill="#68e1fd"/><path d="M209,78.48s-14.25-6.72-30-4.67-35.61,14.3-35.9,30.94,20.72,22.76,36.19,14.3C179.31,119.05,216.41,104.3,209,78.48Z" fill="#24285b"/><path d="M193.51,78.48s14.25-6.72,30-4.67,35.61,14.3,35.9,30.94-20.72,22.76-36.19,14.3C223.23,119.05,186.13,104.3,193.51,78.48Z" fill="#24285b"/><rect x="199.66" y="131.93" width="6.81" height="34.26" transform="translate(-39.75 82.03) rotate(-20.85)" fill="#68e1fd"/><polygon points="163.65 73.32 166.92 54.15 195.51 129.23 190.9 130.99 163.65 73.32" fill="#68e1fd"/><polygon points="163.65 73.32 166.92 54.15 195.51 129.23 190.9 130.99 163.65 73.32" fill="#fff" opacity="0.44"/><polygon points="182.11 66.29 166.92 54.15 195.51 129.23 200.12 127.47 182.11 66.29" fill="#68e1fd"/><polygon points="182.11 66.29 166.92 54.15 195.51 129.23 200.12 127.47 182.11 66.29" fill="#fff" opacity="0.67"/><rect x="186.55" y="129.06" width="19.74" height="5.11" transform="translate(-33.98 78.52) rotate(-20.85)" fill="#24285b"/><path d="M206.39,138.93s-16.77-.3-12.31,8.27,9.08,5.4,14.78,3.25l4.58-1S217.28,134.79,206.39,138.93Z" fill="#24285b"/><path d="M198.78,150.63s6.88-5.66,11.22-2.16.92,12.13-8.53,13.15l-6,3.19-2.18-13.53Z" fill="#24285b"/><polygon points="190.24 230.3 203.33 230.3 202.59 256.09 183.52 256.09 192.7 249.19 190.24 230.3" fill="#24285b"/><polygon points="219.25 230.3 206.16 230.3 206.9 256.09 225.97 256.09 216.79 249.19 219.25 230.3" fill="#24285b"/><path d="M214.1,110.23s7.81,64.07,11.87,85.86c1.95,10.44,4.21,22,6,31a19.33,19.33,0,0,0,19.63,15.53l36-1.26s-40.3-73.19-38.42-129.08Z" fill="#24285b"/><path d="M150,118.58s14.59,10.84,34.14-1.82l1.36,2.89L184.24,131s-18.87,13.44-34.8-4.23C149.44,126.76,149.79,122.26,150,118.58Z" opacity="0.12"/><path d="M214.65,114.72l1.68,13.39s20.12,12.77,33.18-1.79l-.29-5.84S232.85,126.87,214.65,114.72Z" opacity="0.12"/></svg>