<svg id="Layer_1" data-name="Layer 1" xmlns="http://www.w3.org/2000/svg" viewBox="0 0 400 300"><title>_</title><ellipse cx="200" cy="258.61" rx="154.55" ry="9.15" fill="#e6e6e6" opacity="0.45"/><rect x="60.7" y="37.07" width="278.59" height="199.84" fill="#e6e6e6"/><rect x="106.59" y="71.41" width="186.04" height="96.15" fill="#f2f2f2"/><rect x="106.59" y="173.45" width="186.04" height="22.07" fill="#f2f2f2"/><rect x="106.59" y="71.41" width="186.04" height="44.58" fill="#68e1fd"/><circle cx="143.44" cy="113.24" r="22.98" fill="#24285b"/><rect x="114.84" y="140.91" width="64.75" height="6.83" fill="#e6e6e6"/><rect x="114.84" y="153.65" width="43.28" height="6.83" fill="#e6e6e6"/><rect x="106.19" y="201.78" width="60.09" height="27.92" fill="#f2f2f2"/><rect x="169.56" y="201.78" width="60.09" height="27.92" fill="#f2f2f2"/><rect x="232.93" y="201.78" width="60.09" height="27.92" fill="#f2f2f2"/><rect x="235.88" y="122.07" width="49.09" height="8.56" fill="#e6e6e6"/><rect x="117.15" y="182.27" width="164.82" height="3.9" fill="#e6e6e6"/><circle cx="168.71" cy="184.67" r="4.2" fill="#68e1fd"/><rect x="60.7" y="32.23" width="278.59" height="21.62" fill="#24285b"/><rect x="106.59" y="38.76" width="64.67" height="8.56" fill="#e6e6e6"/><circle cx="259.44" cy="43.04" r="3.94" fill="#fff" opacity="0.2"/><circle cx="274" cy="43.04" r="3.94" fill="#fff" opacity="0.2"/><circle cx="288.56" cy="43.04" r="3.94" fill="#fff" opacity="0.2"/><circle cx="303.13" cy="43.04" r="3.94" fill="#fff" opacity="0.2"/><path d="M260.33,192.7s6.33,3.2,3.91,6.9-7.69-3.45-7.69-3.45Z" fill="#f4a28c"/><path d="M274.8,129.3a3.78,3.78,0,0,0-4.64-4.62,55.24,55.24,0,0,0-29.91,20.58c-1.32,1.78-2.57,3.52-3.75,5.2a26.24,26.24,0,0,0,5.76,36.1l13.63,10.2,5.39-4.93-10.93-10.45a14.31,14.31,0,0,1,0-20.74l21.47-20.34Z" fill="#68e1fd"/><path d="M274.8,129.3a3.78,3.78,0,0,0-4.64-4.62,55.24,55.24,0,0,0-29.91,20.58c-1.32,1.78-2.57,3.52-3.75,5.2a26.24,26.24,0,0,0,5.76,36.1l13.63,10.2,5.39-4.93-10.93-10.45a14.31,14.31,0,0,1,0-20.74l21.47-20.34Z" fill="#fff" opacity="0.46"/><path d="M287.42,110.85a26.36,26.36,0,0,0-2.37,6.68,2.15,2.15,0,0,0,1.83,2.43,4.74,4.74,0,0,0,4.78-1.89l2.6-3a3.84,3.84,0,0,0,0-4.43C292.69,108.16,288.5,108.48,287.42,110.85Z" fill="#f4a28c"/><polygon points="292.95 114.01 293.57 127.98 285.84 127.78 288.5 117.69 292.95 114.01" fill="#f4a28c"/><path d="M286.31,113.3l-1.73,1.07a.68.68,0,0,0,0,1.15l1.39.91Z" fill="#f4a28c"/><path d="M287.87,120a5,5,0,0,0,2.65-1.19,8,8,0,0,1-3.48,4.72Z" fill="#ce8172" opacity="0.31"/><path d="M270.54,251.88s-1.14,3.15-4,3.39-3.6,3-1,3.76,9.17-2.57,9.17-2.57l-.18-4.11Z" fill="#68e1fd"/><path d="M309.11,251.88s1.14,3.15,4,3.39,3.59,3,1,3.76-9.17-2.57-9.17-2.57l.19-4.11Z" fill="#68e1fd"/><path d="M275.2,123.89a98.61,98.61,0,0,1,36.87,7.89,14.22,14.22,0,0,1,7.18,19.45l-20.06,40-37.2-2.2a157.39,157.39,0,0,1-5.41-47.94A18.28,18.28,0,0,1,275.2,123.89Z" fill="#68e1fd"/><path d="M299.19,191.25l11.11,61.2h-5.55l-13.94-33.23a57.69,57.69,0,0,0-24.73-27.86L262,189.05Z" fill="#24285b"/><path d="M262,189.05l5.74,63.4h7.39s-1.73-47.71,11.6-57.86Z" fill="#24285b"/><path d="M301.65,134.72s-9.5,6.11-6.51,24.89a37.68,37.68,0,0,1-9,30.87l13,.77s8.35-17.43,10.59-21.13S301.65,134.72,301.65,134.72Z" opacity="0.08"/><path d="M299.72,140.41c0-8.51,10.6-12.44,16.29-6.11a35.24,35.24,0,0,1,9.05,19.44c2.27,18.68-.23,59.46-.23,59.46h-6.76s-4.57-40.76-14.54-59.46A28.73,28.73,0,0,1,299.72,140.41Z" fill="#68e1fd"/><path d="M299.72,140.41c0-8.51,10.6-12.44,16.29-6.11a35.24,35.24,0,0,1,9.05,19.44c2.27,18.68-.23,59.46-.23,59.46h-6.76s-4.57-40.76-14.54-59.46A28.73,28.73,0,0,1,299.72,140.41Z" fill="#fff" opacity="0.46"/><path d="M327.24,225V222.1a4,4,0,0,0-3.95-4h-3.7a4,4,0,0,0-3.95,4v3.09" fill="none" stroke="#24285b" stroke-miterlimit="10" stroke-width="2"/><rect x="306.89" y="223.84" width="28.2" height="18.37" transform="translate(641.98 466.05) rotate(-180)" fill="#ffd200"/><path d="M335.09,232.46s-10.57,9.07-28.2,6.4v3.35h28.2Z" opacity="0.08"/><path d="M323.66,213.2s2,6.73-.64,6.73-5.88,1.29-3.85-6.73Z" fill="#f4a28c"/><path d="M293.24,119.11l-2.66-1.43-.27-1.42a3.37,3.37,0,0,1,0-3.75s-5.12-2.49-3.92-4.62,5-5,8.64-2.28S300.55,113.25,293.24,119.11Z" fill="#24285b"/><path d="M290.23,116s.65-1.51,1.74-.92.16,2.77-1.47,2.33Z" fill="#f4a28c"/><path d="M295.87,126.47a59.8,59.8,0,0,0-14-2.23s-6.5,26-1.38,46.93C280.53,171.17,287.82,144.8,295.87,126.47Z" fill="#fff"/><path d="M295.87,126.47s.26-3.15-2-3.26a11.72,11.72,0,0,0-3.65.32s-6.56-5.14-8.32.71A138.08,138.08,0,0,1,295.87,126.47Z" fill="#68e1fd"/><path d="M295.87,126.47s.26-3.15-2-3.26a11.72,11.72,0,0,0-3.65.32s-6.56-5.14-8.32.71A138.08,138.08,0,0,1,295.87,126.47Z" fill="#fff" opacity="0.77"/><path d="M291.29,125.49s.74-2.47-.81-2.77-3-1.32-3.31,1.85S290,128.06,291.29,125.49Z" fill="#24285b"/><path d="M290.26,126.74s-4.92,17.43-5,28.63l-4.76,15.8a70.37,70.37,0,0,1-2-17.2s5.09-22.92,8.66-28.28Z" fill="#24285b"/><path d="M85.71,246.09s9.67-2.6,11.81-11.58c0,0-15-3.08-15.44,12.36Z" fill="#68e1fd" opacity="0.58"/><path d="M84.53,245.13s6.79-10.64.9-20.64c0,0-11.41,7.18-6.41,20.64Z" fill="#68e1fd" opacity="0.73"/><path d="M82.79,245.13s-3.52-11.28-14.28-13.46c0,0-2.06,7.3,6.92,13.46Z" fill="#68e1fd"/><polygon points="89.8 244.9 87.78 258.29 75.45 258.29 73.69 244.9 89.8 244.9" fill="#24285b"/></svg>