<svg id="Layer_1" data-name="Layer 1" xmlns="http://www.w3.org/2000/svg" viewBox="0 0 400 300"><title>_</title><path d="M325.66,134.49c-9-37-27.26-61-57.76-68.69-42.19-10.7-95.55-11.28-136.38-.5-15.21,4-30.49,11.49-41.07,26C70.84,118.14,64,170,82.64,199.69c8.31,13.2,23.74,25.46,36.82,28.44,49.74,11.32,100.77,5.06,151.17.36,11.68-1.09,23.85-2.28,33.94-9.88C326,202.49,332.64,163.1,325.66,134.49Z" fill="#dddbdb" opacity="0.18"/><rect x="218.73" y="170.85" width="14.33" height="92.12" transform="translate(-63.46 97.13) rotate(-21.35)" fill="#ffd200"/><path d="M215.8,171.4l10,25.53c-3.76,2-9.53,13.39-10,13.73l-13.3-34Z" opacity="0.1"/><path d="M243.72,184.81c-.29,2.27-2.52,3.75-4.61,4.69a34.72,34.72,0,0,1-10.18,2.81,9.9,9.9,0,0,0-4.36,1.09c-1.76,1.14-2.48,3.38-3.95,4.9a8.76,8.76,0,0,1-6.49,2.29,32.65,32.65,0,0,1-7-1.23,5.48,5.48,0,0,0-3.49,0,6.89,6.89,0,0,0-2.44,2.73c-2,2.92-5.47,5.17-8.9,4.41a2.37,2.37,0,0,1-2-1.56l0-.28a3.84,3.84,0,0,1,.22-1.1c3-9.62,6.43-18.05,5.25-28.45a9.4,9.4,0,0,1,.08-4.16c.7-2,2.72-3.19,4.65-4,4.42-2,9.05-3,13.7-4.26,3.63-1,5.12-2.89,8.18.6,2.5,2.84,5.08,5.62,7.84,8.21a60.3,60.3,0,0,0,8.27,6.6C241,179.7,244.1,181.82,243.72,184.81Z" fill="#68e1fd"/><path d="M230.25,171.45c-3.46,2.68-7.29,4.92-11,7.28-10.93,7-21.08,15.66-28.94,25.93a3.84,3.84,0,0,1,.22-1.1c3-9.62,6.43-18.05,5.25-28.45a9.4,9.4,0,0,1,.08-4.16c.7-2,2.72-3.19,4.65-4,4.42-2,9.05-3,13.7-4.26,3.63-1,5.12-2.89,8.18.6C224.91,166.08,227.49,168.86,230.25,171.45Z" opacity="0.1"/><path d="M247.81,81.12a70.23,70.23,0,0,1,4.73,22.32c0,.6.05,1.2.06,1.79a69.85,69.85,0,0,1-98.1,65.18A69.75,69.75,0,0,1,123.17,143a71.19,71.19,0,0,1-5.46-11l-.07-.19a70.23,70.23,0,0,1-4.07-15.58,70.67,70.67,0,0,1-.35-16.13A69.85,69.85,0,0,1,229.55,54.68a69.45,69.45,0,0,1,16.19,21.68C246.49,77.91,247.17,79.5,247.81,81.12Z" fill="#68e1fd"/><path d="M252.54,103.44A69.85,69.85,0,1,1,113,109.09c15.92,8.89,38.6,16.38,68.93,14.92C207.71,122.76,232.11,114,252.54,103.44Z" opacity="0.1"/><path d="M196.26,173.7a4.35,4.35,0,0,0-1.6,1,1.9,1.9,0,0,0-.44,1.28,9.94,9.94,0,0,0,.69,4.29.64.64,0,0,0,.44.46,1.8,1.8,0,0,0,.94-.16q8-2.91,15.93-6.08,3.94-1.57,7.88-3.23a25.62,25.62,0,0,0,3.8-1.64c.94-.58,2.08-1,3-1.65a2,2,0,0,0,.79-1.13,3,3,0,0,0-.36-1.81c-.53-1.23-1-2.38-2.54-2.45-2-.06-5.89,2.05-7.8,2.77C210,168,203.07,170.72,196.26,173.7Z" fill="#24285b"/><path d="M239,65.1c-2.09,1.52-4.2,3-6.37,4.38C221.39,76.69,208.78,82.06,195.34,83c-12.6.88-24.93-2.29-37.47-2.44-17.65-.21-32.1,8.3-44.65,19.5a69.74,69.74,0,0,1,5.78-22C129.26,71.7,140.84,67.25,153,66.68c12.53-.6,24.8,2.67,37.28,2.51C205,69,217.91,63,229.55,54.68A68.46,68.46,0,0,1,239,65.1Z" fill="#fff" opacity="0.3"/><path d="M247.81,81.12a68.61,68.61,0,0,1,2.86,9.12c-2.53,1.91-5.13,3.75-7.8,5.46-11.23,7.2-23.84,12.58-37.28,13.53-12.6.88-24.93-2.29-37.47-2.45-20.46-.24-36.6,11.22-50.48,25a70.23,70.23,0,0,1-4.07-15.58A112.29,112.29,0,0,1,125.15,107c11.22-7.75,24.29-13.4,38-14.06,12.53-.59,24.81,2.68,37.29,2.52,17.29-.22,32.11-8.43,45.26-19C246.49,77.91,247.17,79.5,247.81,81.12Z" fill="#fff" opacity="0.3"/><path d="M252.6,105.23a70.05,70.05,0,0,1-2.1,18.3c-10.56,6.39-22.26,11-34.67,11.91-12.6.88-24.92-2.29-37.46-2.44-18.58-.21-33.61,9.21-46.61,21.28A68.78,68.78,0,0,1,123.17,143a113.47,113.47,0,0,1,12.23-9.84c11.22-7.75,24.29-13.4,38-14,12.53-.6,24.81,2.67,37.28,2.51C226.56,121.41,240.3,114.53,252.6,105.23Z" fill="#fff" opacity="0.3"/><path d="M242,143.57a69.67,69.67,0,0,1-16.34,18.12c-12.45.78-24.63-2.32-37-2.48-12.92-.15-24.12,4.37-34.11,11.2a69.29,69.29,0,0,1-13.32-7.75c1.45-1.13,2.94-2.23,4.47-3.28,11.21-7.75,24.28-13.4,38-14,12.53-.6,24.8,2.67,37.28,2.5A58.76,58.76,0,0,0,242,143.57Z" fill="#fff" opacity="0.3"/></svg>