<svg id="Layer_1" data-name="Layer 1" xmlns="http://www.w3.org/2000/svg" viewBox="0 0 400 300"><path d="M89.67,258.79S46.12,207.08,67.89,142.52,155,32,237.91,47.28s147.69,54.34,90.73,211.2Z" fill="#dddbdb" opacity="0.18"/><path d="M90.67,194.2h7l7.39-8.2,6.68,8.2h7.4V135.78h7.39V129h28.85V146h8.1V107.09h13.37v-8.2l8.45,8.2H192V118h5.63v24.59h7v35.88h5.67V109.14h4.88V77.71h16.19V93.42h6.69v32.45h6.69v51.25l4.92,7.51v-67.3h33.08v61.5l5.64-5.81V106.74H292V87.27s25.69-6.49,25.69,0v167.4h-227Z" fill="#e6e6e6"/><path d="M92.67,123.1a19.74,19.74,0,0,0-4.3-3.28l4.88-2.32a7,7,0,0,0-5-2.23,21,21,0,0,0-5.61.72l4.67-3.46a4.56,4.56,0,0,0-4.06-.32,13.51,13.51,0,0,0-3.59,2.22,14.39,14.39,0,0,0,.56-2.42,1.1,1.1,0,0,0,0-.65.81.81,0,0,0-1.14-.2,2.33,2.33,0,0,0-.76,1c-.38.83-.73,1.7-1.19,2.49-.68-.78-2.14-2.52-3.34-2.43-1,.06-.67.45-1.1,1.21-.58,1-.28.89-1.48,1-1.73.08-3.13-.25-4.83.45a29.9,29.9,0,0,1,5.34,2.51,11.42,11.42,0,0,0-5.56.71,6.48,6.48,0,0,0-3.76,4l6,.17a9,9,0,0,0-6.54,7.91A32.7,32.7,0,0,0,68.2,128a10.76,10.76,0,0,0-4.2,9.13,16.08,16.08,0,0,0,4.66-3.82,11.83,11.83,0,0,0-.46,6.24c.12.64.44,1.4,1.09,1.47s1-.43,1.35-.89a24.87,24.87,0,0,0,2.91-5.27,11.57,11.57,0,0,0-.66,5.74A10.27,10.27,0,0,0,76.16,137a22.39,22.39,0,0,0,1.08,10,3.18,3.18,0,0,0,.94,1.54V255.64h3.6V146.47a11.94,11.94,0,0,0,.3-1.87l.84-8.15a5.91,5.91,0,0,1,1.77,3.71c1.92-2.26,1.32-5.64.62-8.52,2.38.86,2.93,4.29,5.24,5.31a.88.88,0,0,0,.59.09.9.9,0,0,0,.46-.4c.9-1.37.66-3.18.16-4.74a16.45,16.45,0,0,1-1.29-4.7l4.06.84A6.6,6.6,0,0,0,92.67,123.1Z" fill="#999"/><path d="M339.24,123.1a19.56,19.56,0,0,0-4.31-3.28l4.89-2.32a7,7,0,0,0-5-2.23,20.94,20.94,0,0,0-5.6.72l4.67-3.46a4.56,4.56,0,0,0-4.06-.32,13.51,13.51,0,0,0-3.59,2.22,14.39,14.39,0,0,0,.56-2.42,1.19,1.19,0,0,0,0-.65.81.81,0,0,0-1.14-.2,2.33,2.33,0,0,0-.76,1c-.38.83-.74,1.7-1.19,2.49-.68-.78-2.14-2.52-3.34-2.43-1,.06-.67.45-1.1,1.21-.58,1-.28.89-1.48,1-1.73.08-3.13-.25-4.83.45a30.23,30.23,0,0,1,5.34,2.51,11.42,11.42,0,0,0-5.56.71,6.48,6.48,0,0,0-3.76,4l6,.17a8.94,8.94,0,0,0-6.54,7.91,32.7,32.7,0,0,0,6.41-2.17,10.76,10.76,0,0,0-4.2,9.13,16.08,16.08,0,0,0,4.66-3.82,11.83,11.83,0,0,0-.46,6.24c.12.64.44,1.4,1.09,1.47s1-.43,1.35-.89a24.87,24.87,0,0,0,2.91-5.27,11.57,11.57,0,0,0-.66,5.74,10.37,10.37,0,0,0,3.27-3.57,22.39,22.39,0,0,0,1.08,10,3.18,3.18,0,0,0,.94,1.54V255.64h3.59V146.47a10.89,10.89,0,0,0,.31-1.87l.84-8.15a5.91,5.91,0,0,1,1.77,3.71c1.91-2.26,1.32-5.64.62-8.52,2.38.86,2.92,4.29,5.24,5.31a.88.88,0,0,0,.59.09.9.9,0,0,0,.46-.4c.9-1.37.66-3.18.15-4.74a16.76,16.76,0,0,1-1.28-4.7l4.06.84A6.6,6.6,0,0,0,339.24,123.1Z" fill="#999"/><path d="M318.76,158.18a14,14,0,0,0-3.08-2.36l3.5-1.66a5,5,0,0,0-3.61-1.6,15.18,15.18,0,0,0-4,.51l3.35-2.47a3.26,3.26,0,0,0-2.92-.24,9.7,9.7,0,0,0-2.57,1.6,11.54,11.54,0,0,0,.4-1.74.83.83,0,0,0,0-.47.58.58,0,0,0-.82-.14,1.71,1.71,0,0,0-.54.75c-.28.6-.53,1.23-.86,1.79-.48-.56-1.53-1.81-2.4-1.75-.71,0-.47.33-.79.87-.41.73-.2.64-1.06.68-1.24.07-2.25-.17-3.46.33a22.66,22.66,0,0,1,3.83,1.8,8.19,8.19,0,0,0-4,.51,4.66,4.66,0,0,0-2.7,2.86l4.31.13a6.38,6.38,0,0,0-4.69,5.67,23.5,23.5,0,0,0,4.6-1.55,7.69,7.69,0,0,0-3,6.55,11.23,11.23,0,0,0,3.34-2.75,8.57,8.57,0,0,0-.33,4.49c.09.46.32,1,.78,1s.73-.31,1-.64a17.66,17.66,0,0,0,2.09-3.78,8.25,8.25,0,0,0-.47,4.12,7.49,7.49,0,0,0,2.35-2.56,16,16,0,0,0,.77,7.16,2.35,2.35,0,0,0,.67,1.1V253.3H311V175a9.85,9.85,0,0,0,.22-1.34l.6-5.85a4.26,4.26,0,0,1,1.27,2.67c1.37-1.63.95-4.06.44-6.12,1.71.62,2.1,3.08,3.77,3.81a.52.52,0,0,0,.75-.23,4,4,0,0,0,.11-3.39,11.72,11.72,0,0,1-.92-3.38l2.91.6A4.71,4.71,0,0,0,318.76,158.18Z" fill="#999"/><path d="M112.83,158.18a14.29,14.29,0,0,0-3.09-2.36l3.51-1.66a5,5,0,0,0-3.62-1.6,15.23,15.23,0,0,0-4,.51L109,150.6a3.26,3.26,0,0,0-2.92-.24,9.7,9.7,0,0,0-2.57,1.6,10.44,10.44,0,0,0,.4-1.74.83.83,0,0,0,0-.47.58.58,0,0,0-.82-.14,1.71,1.71,0,0,0-.54.75c-.28.6-.53,1.23-.86,1.79-.48-.56-1.53-1.81-2.39-1.75s-.48.33-.79.87c-.42.73-.21.64-1.06.68-1.24.07-2.25-.17-3.47.33a22.3,22.3,0,0,1,3.83,1.8,8.19,8.19,0,0,0-4,.51,4.68,4.68,0,0,0-2.7,2.86l4.31.13a6.41,6.41,0,0,0-4.69,5.67,23.28,23.28,0,0,0,4.6-1.55,7.69,7.69,0,0,0-3,6.55,11.4,11.4,0,0,0,3.35-2.75,8.57,8.57,0,0,0-.34,4.49c.1.46.32,1,.79,1s.73-.31,1-.64a18.1,18.1,0,0,0,2.09-3.78,8.26,8.26,0,0,0-.48,4.12,7.39,7.39,0,0,0,2.35-2.56,16,16,0,0,0,.78,7.16,2.2,2.2,0,0,0,.67,1.1V253.3H105V175a8.51,8.51,0,0,0,.22-1.34l.6-5.85a4.16,4.16,0,0,1,1.27,2.67c1.38-1.63,1-4.06.45-6.12,1.7.62,2.1,3.08,3.76,3.81a.62.62,0,0,0,.42.06.59.59,0,0,0,.33-.29,3.94,3.94,0,0,0,.11-3.39,12.05,12.05,0,0,1-.92-3.38l2.92.6A4.75,4.75,0,0,0,112.83,158.18Z" fill="#999"/><path d="M203.18,228.47A90.85,90.85,0,1,1,294,137.62,90.95,90.95,0,0,1,203.18,228.47Zm0-175.7A84.85,84.85,0,1,0,288,137.62,84.95,84.95,0,0,0,203.18,52.77Z" fill="#68e1fd"/><path d="M203.18,201.24a63.62,63.62,0,1,1,63.62-63.62A63.69,63.69,0,0,1,203.18,201.24Zm0-124.24a60.62,60.62,0,1,0,60.62,60.62A60.69,60.69,0,0,0,203.18,77Z" fill="#68e1fd"/><path d="M203.18,162.36a24.74,24.74,0,1,1,24.73-24.74A24.76,24.76,0,0,1,203.18,162.36Zm0-46.47a21.74,21.74,0,1,0,21.73,21.73A21.76,21.76,0,0,0,203.18,115.89Z" fill="#68e1fd"/><rect x="115.33" y="136.12" width="175.7" height="3" fill="#68e1fd"/><rect x="115.33" y="136.12" width="175.7" height="3" transform="translate(-41.61 120.33) rotate(-30.07)" fill="#68e1fd"/><rect x="115.33" y="136.12" width="175.7" height="3" transform="translate(-17.35 245.27) rotate(-60.13)" fill="#68e1fd"/><rect x="201.68" y="49.77" width="3" height="175.7" transform="translate(-0.42 0.63) rotate(-0.18)" fill="#68e1fd"/><rect x="201.68" y="49.77" width="3" height="175.7" transform="translate(-41.66 121.03) rotate(-30.23)" fill="#68e1fd"/><rect x="201.68" y="49.77" width="3" height="175.7" transform="translate(-17.04 245.9) rotate(-60.29)" fill="#68e1fd"/><path d="M281.63,167.29h-4.29a6.65,6.65,0,0,0-6.65,6.65v17.59h17.59V173.94A6.65,6.65,0,0,0,281.63,167.29Z" fill="#68e1fd"/><rect x="270.69" y="175.22" width="7.76" height="13.45" fill="#fff" opacity="0.2"/><rect x="280.4" y="175.22" width="7.76" height="13.45" fill="#fff" opacity="0.2"/><path d="M129,167.29h-4.29a6.65,6.65,0,0,0-6.65,6.65v17.59h17.59V173.94A6.65,6.65,0,0,0,129,167.29Z" fill="#68e1fd"/><path d="M281.63,167.29h-4.29a6.65,6.65,0,0,0-6.65,6.65v17.59h17.59V173.94A6.65,6.65,0,0,0,281.63,167.29Z" opacity="0.08"/><path d="M129,167.29h-4.29a6.65,6.65,0,0,0-6.65,6.65v17.59h17.59V173.94A6.65,6.65,0,0,0,129,167.29Z" opacity="0.08"/><rect x="118.08" y="175.22" width="7.76" height="13.45" fill="#fff" opacity="0.2"/><rect x="127.79" y="175.22" width="7.76" height="13.45" fill="#fff" opacity="0.2"/><path d="M281.63,81.5h-4.29a6.65,6.65,0,0,0-6.65,6.65v17.59h17.59V88.15A6.65,6.65,0,0,0,281.63,81.5Z" fill="#68e1fd"/><rect x="270.69" y="89.43" width="7.76" height="13.45" fill="#fff" opacity="0.2"/><rect x="280.4" y="89.43" width="7.76" height="13.45" fill="#fff" opacity="0.2"/><path d="M129,81.5h-4.29a6.65,6.65,0,0,0-6.65,6.65v17.59h17.59V88.15A6.65,6.65,0,0,0,129,81.5Z" fill="#68e1fd"/><path d="M281.63,81.5h-4.29a6.65,6.65,0,0,0-6.65,6.65v17.59h17.59V88.15A6.65,6.65,0,0,0,281.63,81.5Z" opacity="0.08"/><path d="M129,81.5h-4.29a6.65,6.65,0,0,0-6.65,6.65v17.59h17.59V88.15A6.65,6.65,0,0,0,129,81.5Z" opacity="0.08"/><rect x="118.08" y="89.43" width="7.76" height="13.45" fill="#fff" opacity="0.2"/><rect x="127.79" y="89.43" width="7.76" height="13.45" fill="#fff" opacity="0.2"/><path d="M249.09,48.61H244.8a6.65,6.65,0,0,0-6.65,6.65V72.85h17.59V55.26A6.65,6.65,0,0,0,249.09,48.61Z" fill="#68e1fd"/><rect x="238.15" y="56.54" width="7.76" height="13.45" fill="#fff" opacity="0.2"/><rect x="247.87" y="56.54" width="7.76" height="13.45" fill="#fff" opacity="0.2"/><path d="M161.09,48.61H156.8a6.65,6.65,0,0,0-6.65,6.65V72.85h17.59V55.26A6.65,6.65,0,0,0,161.09,48.61Z" fill="#68e1fd"/><path d="M249.09,48.61H244.8a6.65,6.65,0,0,0-6.65,6.65V72.85h17.59V55.26A6.65,6.65,0,0,0,249.09,48.61Z" opacity="0.08"/><path d="M161.09,48.61H156.8a6.65,6.65,0,0,0-6.65,6.65V72.85h17.59V55.26A6.65,6.65,0,0,0,161.09,48.61Z" opacity="0.08"/><rect x="150.15" y="56.54" width="7.76" height="13.45" fill="#fff" opacity="0.2"/><rect x="159.86" y="56.54" width="7.76" height="13.45" fill="#fff" opacity="0.2"/><path d="M250.31,201.4H246a6.65,6.65,0,0,0-6.65,6.65v17.59H257V208.05A6.65,6.65,0,0,0,250.31,201.4Z" fill="#68e1fd"/><rect x="239.38" y="209.34" width="7.76" height="13.45" fill="#fff" opacity="0.2"/><rect x="249.09" y="209.34" width="7.76" height="13.45" fill="#fff" opacity="0.2"/><path d="M162.31,201.4H158a6.65,6.65,0,0,0-6.65,6.65v17.59H169V208.05A6.65,6.65,0,0,0,162.31,201.4Z" fill="#68e1fd"/><path d="M250.31,201.4H246a6.65,6.65,0,0,0-6.65,6.65v17.59H257V208.05A6.65,6.65,0,0,0,250.31,201.4Z" opacity="0.08"/><path d="M162.31,201.4H158a6.65,6.65,0,0,0-6.65,6.65v17.59H169V208.05A6.65,6.65,0,0,0,162.31,201.4Z" opacity="0.08"/><rect x="151.37" y="209.34" width="7.76" height="13.45" fill="#fff" opacity="0.2"/><rect x="161.08" y="209.34" width="7.76" height="13.45" fill="#fff" opacity="0.2"/><path d="M293.17,125.5h-4.29a6.64,6.64,0,0,0-6.64,6.65v17.59h17.58V132.15A6.65,6.65,0,0,0,293.17,125.5Z" fill="#68e1fd"/><rect x="282.24" y="133.44" width="7.76" height="13.45" fill="#fff" opacity="0.2"/><rect x="291.95" y="133.44" width="7.76" height="13.45" fill="#fff" opacity="0.2"/><path d="M116.55,125.5h-4.28a6.65,6.65,0,0,0-6.65,6.65v17.59H123.2V132.15A6.65,6.65,0,0,0,116.55,125.5Z" fill="#68e1fd"/><path d="M293.17,125.5h-4.29a6.64,6.64,0,0,0-6.64,6.65v17.59h17.58V132.15A6.65,6.65,0,0,0,293.17,125.5Z" opacity="0.08"/><path d="M116.55,125.5h-4.28a6.65,6.65,0,0,0-6.65,6.65v17.59H123.2V132.15A6.65,6.65,0,0,0,116.55,125.5Z" opacity="0.08"/><rect x="105.62" y="133.44" width="7.76" height="13.45" fill="#fff" opacity="0.2"/><rect x="115.33" y="133.44" width="7.76" height="13.45" fill="#fff" opacity="0.2"/><path d="M268.85,256.58C250.93,226.92,233.23,197,216.11,168q-6.48-11-13-21.93C186,174.46,169,203.27,152.51,231.2q-7.47,12.65-15,25.34l-7.48-4.42q7.51-12.69,15-25.34c17.72-30,36-61,54.42-91.38l3.72-6.31,3.74,6.31.11.18q8.29,14,16.57,28c17.11,28.94,34.8,58.86,52.69,88.48Z" fill="#ffd200"/><circle cx="203.18" cy="137.62" r="10.87" fill="#68e1fd"/><circle cx="203.18" cy="137.62" r="10.87" fill="#ffd200"/><path d="M205.39,36.39H201.1A6.65,6.65,0,0,0,194.45,43V60.62H212V43A6.64,6.64,0,0,0,205.39,36.39Z" fill="#68e1fd"/><path d="M205.39,36.39H201.1A6.65,6.65,0,0,0,194.45,43V60.62H212V43A6.64,6.64,0,0,0,205.39,36.39Z" opacity="0.08"/><rect x="194.45" y="44.32" width="7.76" height="13.45" fill="#fff" opacity="0.2"/><rect x="204.17" y="44.32" width="7.76" height="13.45" fill="#fff" opacity="0.2"/><path d="M205.39,213.52H201.1a6.65,6.65,0,0,0-6.65,6.65v17.59H212V220.17A6.65,6.65,0,0,0,205.39,213.52Z" fill="#68e1fd"/><path d="M205.39,213.52H201.1a6.65,6.65,0,0,0-6.65,6.65v17.59H212V220.17A6.65,6.65,0,0,0,205.39,213.52Z" opacity="0.08"/><rect x="194.45" y="221.46" width="7.76" height="13.45" fill="#fff" opacity="0.2"/><rect x="204.17" y="221.46" width="7.76" height="13.45" fill="#fff" opacity="0.2"/><circle cx="98.76" cy="63.27" r="11.25" fill="#ffd200"/><circle cx="98.76" cy="63.27" r="17.59" fill="#ffd200" opacity="0.15"/><path d="M320,62.12a5.13,5.13,0,0,0-1.8.32,9.37,9.37,0,0,0,.43-2.76,9.13,9.13,0,1,0-18.26,0c0,.24,0,.48,0,.72a6.61,6.61,0,1,0-3,12.5H320a5.39,5.39,0,0,0,0-10.78Z" fill="#dddbdb" opacity="0.3"/><path d="M94.49,96.39a3.05,3.05,0,0,0-1,.19A5.43,5.43,0,0,0,93.69,95,5.36,5.36,0,1,0,83,95c0,.14,0,.28,0,.42a3.88,3.88,0,1,0-1.76,7.33H94.49a3.16,3.16,0,1,0,0-6.32Z" fill="#dddbdb" opacity="0.3"/><rect x="63.2" y="252.11" width="279.04" height="11.5" rx="5.57" fill="#24285b"/></svg>