<svg id="Layer_1" data-name="Layer 1" xmlns="http://www.w3.org/2000/svg" viewBox="0 0 400 300"><path d="M286.7,197.47s59.24,8.17,60.77-14.81-42.81-21.91-16.05-60.74,6.65-69.47,6.65-69.47" fill="none" stroke="#ffd200" stroke-miterlimit="10" stroke-width="5"/><rect x="99.08" y="45.98" width="204.47" height="140.21" fill="#dddbdb"/><rect x="108.64" y="55.54" width="184.29" height="120.09" fill="#fff"/><polygon points="99.08 186.19 59.51 236.64 338.07 236.64 303.55 186.19 99.08 186.19" fill="#dddbdb"/><rect x="59.51" y="236.64" width="278.56" height="8.67" fill="#c9c9c9"/><polygon points="105.99 193.27 93.24 211.41 306.03 211.41 295.05 193.27 105.99 193.27" fill="#fff" opacity="0.56"/><polygon points="162.64 216.28 232.38 216.28 238.76 231.15 156.97 231.15 162.64 216.28" fill="#fff" opacity="0.28"/><rect x="158.25" y="142.64" width="88.52" height="12.75" fill="#68e1fd" opacity="0.32"/><rect x="218.67" y="142.64" width="28.1" height="12.75" fill="#68e1fd"/><polygon points="224.42 93.44 203.87 81.57 183.32 93.44 183.32 117.17 203.87 129.03 224.42 117.17 224.42 93.44" fill="#68e1fd"/><polygon points="183.32 93.44 203.87 81.57 224.42 93.44 203.87 105.3 183.32 93.44" fill="#fff" opacity="0.46"/><polygon points="203.87 105.3 203.87 129.03 224.42 117.17 224.42 93.44 203.87 105.3" opacity="0.08"/><circle cx="118.94" cy="65.67" r="3.32" fill="#24285b"/><circle cx="130.03" cy="65.67" r="3.32" fill="#68e1fd"/><circle cx="141.45" cy="65.67" r="3.32" fill="#ffd200"/></svg>