<svg id="Layer_1" data-name="Layer 1" xmlns="http://www.w3.org/2000/svg" viewBox="0 0 400 300"><path d="M136.76,61.39c-47.5,11.29-85,47-96,92.87-8.19,34.15-1,69.35,54.09,82.16C214,264.1,342.62,255,358,199.6S344.85,49.25,276.73,43.37C237.94,40,179.72,51.17,136.76,61.39Z" fill="#e6e6e6" opacity="0.3"/><circle cx="286.78" cy="82.21" r="15.2" fill="#ffd200"/><circle cx="286.78" cy="82.21" r="23.76" fill="#ffd200" opacity="0.15"/><path d="M348,133.1a5.2,5.2,0,0,0-1.73.3,9,9,0,0,0,.41-2.65,8.77,8.77,0,0,0-17.54,0c0,.23,0,.46,0,.69a6.35,6.35,0,1,0-2.88,12H348a5.18,5.18,0,1,0,0-10.35Z" fill="#dddbdb"/><path d="M94.16,143.18a5.2,5.2,0,0,0-1.73.3,8.77,8.77,0,1,0-17.13-2.65c0,.24,0,.47,0,.69a6.35,6.35,0,1,0-2.87,12h21.7a5.18,5.18,0,1,0,0-10.35Z" fill="#dddbdb" opacity="0.52"/><path d="M169.8,125.3a114.56,114.56,0,0,0,23.47-44.7c2.64-9.78,4.61-20.92,12.45-26.76,6.48-4.83,15.64-4.38,22.46-.12s11.45,11.78,13.87,19.79c3.69,12.21,3.32,26.94,12.28,35.54,6.91,6.63,17.14,7.22,25.56,11.45,17.71,8.9,24.33,31.59,29.09,51.78l18.18,77c-7.37-.27-14.73-.61-22.09-.61H131.51c-3.09,0,5.36-68.8,6.55-74.91C142.44,151.21,155.59,141.86,169.8,125.3Z" fill="#e6e6e6"/><path d="M327.16,249.27c-7.37-.27-14.73-.61-22.09-.61H131.51c-3.09,0,5.36-68.8,6.55-74.91,2.53-13,8-21.64,14.87-29.78,5-6,10.87-11.67,16.87-18.67A110.32,110.32,0,0,0,183.1,106,115.41,115.41,0,0,0,193.27,80.6c2.64-9.78,4.61-20.92,12.45-26.76,6.48-4.83,15.64-4.38,22.46-.12s11.45,11.78,13.87,19.79c3.69,12.21,3.32,26.94,12.28,35.54a22,22,0,0,0,3.73,2.86c6.11,3.79,13.69,4.92,20.36,7.9.5.21,1,.45,1.47.69,17.71,8.89,24.33,31.59,29.09,51.78Z" fill="#ccc" opacity="0.46"/><path d="M268.73,248.66H234.81a164.61,164.61,0,0,1-18-15.36c-26.66-25.5-50.87-55.05-63.86-89.33,5-6,10.87-11.67,16.87-18.67A110.32,110.32,0,0,0,183.1,106c2,8.23,7.47,15.77,13.79,21.64,8.62,8,19,13.94,27.67,21.9,18.72,17.2,27.84,42.18,36.3,66.15C264.65,226.37,268.47,237.33,268.73,248.66Z" fill="#ccc" opacity="0.46"/><path d="M198.19,135.18a121.64,121.64,0,0,1,31,46.9c6.4,17.45,3.53,27.92-15,34.59a209.14,209.14,0,0,1-90.07,11.38c-3.78-.36-7.8-.92-10.7-3.37-3.4-2.88-4.44-7.62-5.12-12a188.22,188.22,0,0,1-2.08-35.73c.36-9.59,1.54-19.45,6.24-27.81,4-7.07,10.18-12.56,15.22-18.92,8.26-10.41,7.62-23,11.3-35.23,1.43-4.79,3-9.91,6.87-13.06,5.61-4.53,14.36-3.08,19.92,1.52s8.58,11.54,10.92,18.36S181,115.73,185,121.68C188.59,126.88,193.59,130.88,198.19,135.18Z" fill="#e6e6e6"/><path d="M241.34,198.21h0a8,8,0,0,0-8-8H192.65v16.44h8.73v4h53.29v-4.5a8,8,0,0,0-8-8Z" fill="#68e1fd"/><path d="M241.34,198.21h0a8,8,0,0,0-8-8H192.65v16.44h8.73v4h53.29v-4.5a8,8,0,0,0-8-8Z" opacity="0.05"/><path d="M206.32,136.12v5.58h-65.8V119.94h-13V141.7h-.19v70.82h92v-76.4Z" fill="#68e1fd"/><path d="M219.3,179.35v33.17h-92v-58a28.65,28.65,0,0,0,2.38,2.88,37.62,37.62,0,0,0,20.89,10.79c7,1.24,14.24.81,21.38,1a128.83,128.83,0,0,1,45.72,9.51Z" opacity="0.05"/><path d="M184,178.6v-7H171v7H161v-7H148v7H138v-7H125v7H115v-7H102v41h82V178.6Z" fill="#68e1fd"/><g opacity="0.26"><path d="M184,178.6v-7H171v7H161v-7H148v7H138v-7H125v7H115v-7H102v41h82V178.6Z" fill="#fff"/></g><path d="M212.78,153a4.26,4.26,0,0,0-6.87,0L188,177.2v35.48H230.7V177.2ZM202.73,183.7a1.62,1.62,0,0,1-1.62,1.62h-1.83a1.62,1.62,0,0,1-1.62-1.62v-6.61a1.62,1.62,0,0,1,1.62-1.62h1.83a1.62,1.62,0,0,1,1.62,1.62Zm11.68,0a1.61,1.61,0,0,1-1.62,1.62H211a1.61,1.61,0,0,1-1.62-1.62v-6.61a1.61,1.61,0,0,1,1.62-1.62h1.82a1.61,1.61,0,0,1,1.62,1.62Z" fill="#68e1fd"/><path d="M212.78,153a4.26,4.26,0,0,0-6.87,0L188,177.2v35.48H230.7V177.2Z" fill="#68e1fd"/><path d="M212.78,153a4.26,4.26,0,0,0-6.87,0L188,177.2v35.48H230.7V177.2Z" fill="#fff" opacity="0.26"/><path d="M202,188.62a1.62,1.62,0,0,1-1.62,1.62h-1.83a1.62,1.62,0,0,1-1.62-1.62V182a1.62,1.62,0,0,1,1.62-1.62h1.83A1.62,1.62,0,0,1,202,182Z" fill="#68e1fd"/><rect x="208.79" y="180.39" width="5.06" height="9.85" rx="1.62" fill="#68e1fd"/><rect x="142.01" y="153.66" width="5.3" height="4.5" fill="#fff" opacity="0.26"/><rect x="156.44" y="153.66" width="5.3" height="4.5" fill="#fff" opacity="0.26"/><rect x="170.87" y="153.66" width="5.3" height="4.5" fill="#fff" opacity="0.26"/><rect x="185.3" y="153.66" width="5.3" height="4.5" fill="#fff" opacity="0.26"/><path d="M129.12,200.71h-6.76V194a3.38,3.38,0,0,1,6.76,0Z" fill="#68e1fd"/><path d="M153.33,200.71h-6.75V194a3.38,3.38,0,1,1,6.75,0Z" fill="#68e1fd"/><path d="M89.39,231.44H278.45a5.69,5.69,0,0,1,5.69,5.69v6.62a0,0,0,0,1,0,0H83.7a0,0,0,0,1,0,0v-6.62A5.69,5.69,0,0,1,89.39,231.44Z" fill="#ffd200"/><path d="M96.07,219.12H261.93a6.07,6.07,0,0,1,6.07,6.07v6.24a0,0,0,0,1,0,0H90a0,0,0,0,1,0,0v-6.24A6.07,6.07,0,0,1,96.07,219.12Z" fill="#ffd200"/><path d="M100.45,210.6H254.5a5.65,5.65,0,0,1,5.65,5.65v2.87a0,0,0,0,1,0,0H94.79a0,0,0,0,1,0,0v-2.87A5.65,5.65,0,0,1,100.45,210.6Z" fill="#ffd200"/><rect x="165.53" y="210.68" width="50.14" height="8.44" fill="#fff" opacity="0.26"/><rect x="170.88" y="219.12" width="55.92" height="12.31" fill="#fff" opacity="0.26"/><rect x="138.16" y="231.44" width="61.35" height="12.31" fill="#fff" opacity="0.26"/><path d="M274.37,184.19a221.79,221.79,0,0,1-12.23-38.25c-2.28-10.24-6-23.38-4.08-34,6.11,3.79,13.69,4.92,20.36,7.9-.51,6-2.49,12.25-3.45,18.14C272.48,153.2,276.93,169,274.37,184.19Z" fill="#ccc" opacity="0.46"/><path d="M262.25,247.7c-.45-5.68,3.55-10.74,7.89-14.44s9.37-6.86,12.3-11.75c1.74-2.9,2.65-6.31,4.83-8.89,4.29-5.09,12.22-5.43,18.45-3.1,7.38,2.77,13.33,8.54,17.69,15.1s7.29,13.95,10.2,21.28c-7.72-1-15.41-2.64-23.19-2.64Z" fill="#ccc"/><rect x="74.19" y="243.75" width="268.08" height="11.05" rx="5.35" fill="#24285b"/></svg>