<svg id="Layer_1" data-name="Layer 1" xmlns="http://www.w3.org/2000/svg" viewBox="0 0 400 300"><title>_</title><path d="M298.5,58.85c35.23,12.06,68.79,45.15,69.81,87.87S357.66,233,293.47,249.83C233.18,265.68,90,271.42,51.89,218.31,15.92,168.25,27.34,87,90.22,61,134.29,42.77,229.69,35.29,298.5,58.85Z" fill="#e6e6e6" opacity="0.3"/><polygon points="323.97 108.83 323.52 108.56 323.52 108.08 322.7 108.08 205.81 39.12 193.28 39.12 76.39 108.08 75.57 108.08 75.57 108.56 75.12 108.83 75.57 108.83 75.57 247.7 323.52 247.7 323.52 108.83 323.97 108.83" fill="#24285b"/><rect x="104.9" y="54.4" width="189.29" height="176.05" fill="#ffd200"/><polygon points="323.97 108.08 323.97 247.5 75.12 247.5 75.12 108.08 75.46 108.08 193.28 177.59 205.81 177.59 323.63 108.08 323.97 108.08" fill="#68e1fd"/><polygon points="193.28 177.79 205.81 177.79 323.97 247.49 75.12 247.49 193.28 177.79" fill="#fff" opacity="0.46"/><path d="M231,117.25l.57-1.25a5.13,5.13,0,0,1,2.8-2.89,3.93,3.93,0,0,1,5.32,2.79c.11.42.16.86.31,1.65.33-.63.53-1,.7-1.35,1.22-2.7,3-3.73,5.66-3.22a4.11,4.11,0,0,1,3.28,2.74,14.7,14.7,0,0,1,.84,4c.13,2.75,0,5.52,0,8.28a5.6,5.6,0,0,1-.1.59H245c0-.64,0-1.26,0-1.88,0-2.31,0-4.63-.05-6.94,0-.89-.09-2-1.35-2.13s-1.49.94-1.71,1.85a8.47,8.47,0,0,0-.21,1.88c0,2.39,0,4.77,0,7.25H236c0-.37-.06-.77-.06-1.16,0-2.5,0-5,0-7.5,0-1.65-.43-2.27-1.35-2.35s-1.62.62-1.83,2.14a28.38,28.38,0,0,0-.12,3.69c0,1.71,0,3.43,0,5.21h-5.6v-15.4h4.16l-.46,3.87Z" fill="#24285b"/><path d="M145.82,128.69h-5.67c0-1.31,0-2.57,0-3.82,0-1.87,0-3.73-.05-5.6,0-.76-.25-1.5-1.22-1.62a1.42,1.42,0,0,0-1.62,1.21,11.17,11.17,0,0,0-.42,2.75c-.06,2.34,0,4.68,0,7.08h-5.43v-15.4h4.15l-.45,3.9.19.08c.19-.41.38-.82.56-1.24,1-2.32,2.82-3.45,5-3.11a3.72,3.72,0,0,1,3.15,2.93,4.08,4.08,0,0,0,.51,1.42c.2-.44.4-.89.61-1.33,1.55-3.28,5.58-4.24,7.79-1.68a10.39,10.39,0,0,1,1.53,3.74,7,7,0,0,1,.12,2.11c0,2.8,0,5.59,0,8.48h-5.41v-4c0-1.68,0-3.36-.06-5,0-.82-.2-1.73-1.23-1.87s-1.5.71-1.7,1.57a10.36,10.36,0,0,0-.31,2.42C145.79,124,145.82,126.28,145.82,128.69Z" fill="#24285b"/><path d="M257.76,133h-5.62V113.3h4.18c-.17,1.34-.32,2.62-.48,3.9l.2.06c.14-.31.28-.62.43-.93.94-2,2.32-3.36,4.67-3.43a5.33,5.33,0,0,1,5.43,3.2,11.4,11.4,0,0,1,.06,9.75c-1.66,3.69-5.56,4.24-8.87,1.25Zm4.44-11.62a14.46,14.46,0,0,0-.77-2.79,1.71,1.71,0,0,0-3-.14c-1.09,1.47-1.18,4.58,0,6a2.33,2.33,0,0,0,1.75.81,2.29,2.29,0,0,0,1.51-1.19A11.41,11.41,0,0,0,262.2,121.33Z" fill="#24285b"/><path d="M202.91,108.51c1.43,0,2.81,0,4.17,0a1.09,1.09,0,0,1,.68.85c-.17,2.26-.43,4.5-.68,6.75,0,.25-.13.5-.17.75,0,.09.05.19.17.55.3-.59.52-1,.7-1.39a5,5,0,0,1,6.65-2.85,4.12,4.12,0,0,1,2.52,3.06,17,17,0,0,1,.58,3.75c.08,2.86,0,5.72,0,8.66h-5.61v-1.79c0-2.53,0-5.07-.09-7.6,0-.78-.23-1.51-1.19-1.63a1.53,1.53,0,0,0-1.75,1.22,9,9,0,0,0-.41,2.29c-.05,2.46,0,4.92,0,7.48h-5.57Z" fill="#24285b"/><path d="M156.71,119c0-1.45,0-2.79,0-4.12a1.08,1.08,0,0,1,.59-.76,17.11,17.11,0,0,1,8.34-1.14c2.85.38,4.71,2.61,5.13,6.08a22.26,22.26,0,0,1,.19,2.45c0,2.35,0,4.7,0,7.23-1.35,0-2.64,0-3.92,0-.19,0-.49-.51-.51-.81-.06-1,0-2,0-3l-.36-.07c-.16.33-.33.66-.49,1a5.53,5.53,0,0,1-6.37,3.16,4.3,4.3,0,0,1-3.51-3.73,4.85,4.85,0,0,1,2.69-5.19,11.69,11.69,0,0,1,5.58-.85h1.09c.15-1.31-.24-1.86-1.45-2-2.09-.31-4,.44-5.82,1.25Zm8.65,3.57c-1.47-.25-2.79-.36-3.9.46a1.86,1.86,0,0,0-.55,1.59c.07.29,1,.62,1.46.55C163.76,125,164.62,124,165.36,122.56Z" fill="#24285b"/><path d="M200.87,119.62a24.43,24.43,0,0,0-3.93-1.12,7.83,7.83,0,0,0-3.36.37,2.2,2.2,0,0,0-1.47,2.59,2.39,2.39,0,0,0,2.13,2,8.7,8.7,0,0,0,5.64-.9c.3-.16.6-.3,1.11-.54,0,1.71,0,3.29,0,4.86,0,.29-.48.64-.82.83-3.07,1.75-6.25,2.12-9.32.17s-3.61-5-3.28-8.28c.47-4.6,3.7-7.12,8.49-6.72a21.28,21.28,0,0,1,4.09,1,1.24,1.24,0,0,1,.73.84C200.91,116.36,200.87,118,200.87,119.62Z" fill="#24285b"/><path d="M185.76,128.68h-5.52v-20.1h5.52Z" fill="#24285b"/><path d="M219.32,113.6h5.54v15.06h-5.54Z" fill="#24285b"/><path d="M172.83,113.54h5.5v15.13h-5.5Z" fill="#24285b"/><path d="M175.43,113a14.68,14.68,0,0,1-2.49-1.07,1.64,1.64,0,0,1,0-2.81,4.59,4.59,0,0,1,5.22,0,1.66,1.66,0,0,1,0,2.88A13.82,13.82,0,0,1,175.43,113Z" fill="#24285b"/><path d="M222.09,113a13.29,13.29,0,0,1-2.57-1.06,1.66,1.66,0,0,1,0-2.88,4.61,4.61,0,0,1,5,0,1.69,1.69,0,0,1,0,3A13.5,13.5,0,0,1,222.09,113Z" fill="#24285b"/><path d="M139,54.4c-3.64,2.16-34.89,17.58-35.06,17.08S95,67.66,95,60s26.62-19.46,35.1-18.3S139,54.4,139,54.4Z" fill="#68e1fd"/><path d="M103.94,71.48,93.79,77.64s0,2.73,5.08,1.66c18.8-4,40.34-25.24,40.34-25.24Z" fill="#24285b"/></svg>