<svg id="Layer_1" data-name="Layer 1" xmlns="http://www.w3.org/2000/svg" xmlns:xlink="http://www.w3.org/1999/xlink" viewBox="0 0 400 300"><defs><linearGradient id="linear-gradient" x1="259.46" y1="90.33" x2="180.79" y2="86.33" gradientUnits="userSpaceOnUse"><stop offset="0" stop-color="#e6e6e6" stop-opacity="0"/><stop offset="1"/></linearGradient></defs><title>#80_market analysis_twocolour</title><ellipse cx="107.28" cy="250.33" rx="74.93" ry="14.2" fill="#e6e6e6" opacity="0.45"/><rect x="113.09" y="41.55" width="228.86" height="161.45" fill="#e6e6e6"/><circle cx="131.55" cy="56.04" r="4.4" fill="#24285b"/><circle cx="144.65" cy="56.04" r="4.4" fill="#68e1fd"/><circle cx="156.98" cy="56.04" r="4.4" fill="#ffd200"/><polygon points="67.3 62.72 67.3 81.09 79.17 81.09 81.76 88.4 84.83 81.09 96.7 81.09 96.7 62.72 67.3 62.72" fill="#e6e6e6"/><path d="M80.52,76h0a.93.93,0,0,1-.69-.35l-3.1-4a.91.91,0,0,1,.16-1.29.92.92,0,0,1,1.29.17l2.44,3.14,6-6.5a.91.91,0,1,1,1.34,1.24l-6.75,7.3A.9.9,0,0,1,80.52,76Z" opacity="0.12"/><path d="M119.92,75.56s4.61,1.3,4.35,8.62a21.17,21.17,0,0,1-.76,4.9A48.31,48.31,0,0,0,122,108.83l.06.41L165.5,152l9.18-49.21.83-16.73s7.24-1.21,7.49,4.47-2,17.19-2,17.19l3.11,1.49s6.71,51.76-9.58,58c-8.32,3.2-16.94,1.75-23.79,2.32a10.22,10.22,0,0,0-6,17.72c3.64,3.37,7.3,8.56,7,15.71H113.09l1.1-31.75-2-80Z" opacity="0.08"/><path d="M139.08,146.8l19.58,13.71a11.81,11.81,0,0,0,18.58-9.38l1-41.25h-9.43L164.75,142s-7.08-26.17-37.58-38.06S99.28,120.45,139.08,146.8Z" fill="#68e1fd"/><path d="M139.08,146.8l19.58,13.71a11.81,11.81,0,0,0,18.58-9.38l1-41.25h-9.43L164.75,142s-7.08-26.17-37.58-38.06S99.28,120.45,139.08,146.8Z" fill="#fff" opacity="0.46"/><path d="M118,82.6a30.54,30.54,0,0,1,.1,8.14,2.46,2.46,0,0,1-2.89,2,5.46,5.46,0,0,1-4.5-3.83L109,84.68a4.39,4.39,0,0,1,1.65-4.81C113.24,77.72,117.67,79.62,118,82.6Z" fill="#f4a28c"/><polygon points="109.89 85.86 106.48 101.56 115.27 102.82 114.22 90.89 109.89 85.86" fill="#f4a28c"/><path d="M108.55,88.52h0a.46.46,0,0,0,.38.42,3.25,3.25,0,0,0,3.57-1.66,4.08,4.08,0,0,0-.27-4.48,19.28,19.28,0,0,0,4.53.07,4.39,4.39,0,0,0,1.47-.39l1-3.75s1.79-3.79-.42-4.46-3.09,1.86-4.94.18-2.29-2.33-4.06-1.26.38,2.39-2.59,2.54-3,1.38-2.92,2.73a2.28,2.28,0,0,0,.63,1.21A15.06,15.06,0,0,1,108.55,88.52Z" fill="#24285b"/><path d="M113,87.1s-.16-1.88-1.56-1.65-1.21,3,.73,3.09Z" fill="#f4a28c"/><polygon points="174.31 82.46 262.75 65 262.75 116 174.31 98.33 174.31 82.46" opacity="0.08" fill="url(#linear-gradient)"/><path d="M118.26,85.68l1.48,1.8a.79.79,0,0,1-.42,1.26l-1.85.46Z" fill="#f4a28c"/><path d="M114.33,92.48s-1.13-.15-3.22-1.92c0,0-.17,3.21,3.56,5.42Z" fill="#ce8172" opacity="0.31"/><path d="M72.19,117.17a19.56,19.56,0,0,1,19.1-17.29c13.82-.25,37,.87,49.23,10.09,18.07,13.66-17.76,68-17.76,68l-33.94-2.26S69.43,141.49,72.19,117.17Z" fill="#68e1fd"/><rect x="101.26" y="128.15" width="26.81" height="33.3" transform="translate(18.4 -12.83) rotate(6.96)" fill="#ffd200"/><path d="M97.68,110s4.59,16.21-2.76,27.52S89.76,157,97,157s21.68-8.49,21.68-8.49l.55,1.09a8.61,8.61,0,0,1-1.74,10.12L100,176.43l-11.21-.75s-11-20.45-12.63-29.46S97.68,110,97.68,110Z" opacity="0.08"/><path d="M97,119.92c5.39-10.74-5.59-22.34-16.67-17.7a24.06,24.06,0,0,0-12.58,11.27c-9,17.73-28.66,40.35-12.44,51.67s55.81-7.92,55.81-7.92l-2.71-9s-29,9.78-38.77,3.37C69.63,151.58,87.38,139.08,97,119.92Z" fill="#68e1fd"/><path d="M97,119.92c5.39-10.74-5.59-22.34-16.67-17.7a24.06,24.06,0,0,0-12.58,11.27c-9,17.73-28.66,40.35-12.44,51.67s55.81-7.92,55.81-7.92l-2.71-9s-29,9.78-38.77,3.37C69.63,151.58,87.38,139.08,97,119.92Z" fill="#fff" opacity="0.46"/><path d="M109.07,150.44s6.34-4.74,9.62-1.92-7.82,7.92-7.82,7.92Z" fill="#f4a28c"/><path d="M88.82,175.68,71.35,245l8.07.22,17.43-40.58a52.26,52.26,0,0,1,25-26.28l.94-.46Z" fill="#24285b"/><path d="M122.76,177.94l7.32,12.16a34.23,34.23,0,0,1,3.44,27.56l-8.34,27.6h-7.71l3.87-29.39a21.93,21.93,0,0,0-6.28-18.43l-12.79-12.71Z" fill="#24285b"/><rect x="173.11" y="95.78" width="2.4" height="14.1" fill="#ffd200"/><rect x="173.11" y="95.78" width="2.4" height="14.1" opacity="0.08"/><ellipse cx="174.31" cy="90.4" rx="5.4" ry="7.94" fill="#ffd200"/><ellipse cx="174.31" cy="90.4" rx="2.92" ry="4.3" fill="#fff" opacity="0.46"/><path d="M77.76,245.15s.73,3.52,3.72,4.21,3.35,3.77.52,4.15-9.35-4.13-9.35-4.13l.83-4.34Z" fill="#68e1fd"/><path d="M123.74,245.15s.72,3.52,3.71,4.21,3.35,3.77.52,4.15-9.34-4.13-9.34-4.13l.82-4.34Z" fill="#68e1fd"/><path d="M170.72,109.88s-.85-5.81,4-7.06,3.58,7.06,3.58,7.06Z" fill="#f4a28c"/><rect x="266.01" y="65" width="96.58" height="126.67" fill="#f2f2f2"/><circle cx="314.3" cy="109.88" r="25.7" fill="none" stroke="#e6e6e6" stroke-miterlimit="10" stroke-width="8"/><path d="M314.3,135.58a25.59,25.59,0,0,1-17.05-6.47" fill="none" stroke="#24285b" stroke-miterlimit="10" stroke-width="8"/><path d="M314.3,84.18a25.7,25.7,0,0,1,25.7,25.7" fill="none" stroke="#68e1fd" stroke-miterlimit="10" stroke-width="8"/><path d="M340,109.88a25.7,25.7,0,0,1-25.7,25.7" fill="none" stroke="#ffd200" stroke-miterlimit="10" stroke-width="8"/><path d="M315,98.76c.58,0,.75.2.75.77v1.23a5.58,5.58,0,0,1,4.61,3.48c.3.6.17.92-.5,1.22l-1.23.55c-.57.28-.85.15-1.17-.45a3.15,3.15,0,0,0-3.21-1.92c-2.13,0-3.1.62-3.1,2a1.9,1.9,0,0,0,1.72,1.68,13.48,13.48,0,0,0,1.81.27,12.15,12.15,0,0,1,3.33.65,4.71,4.71,0,0,1,1.47.8,4.85,4.85,0,0,1,1.33,3.51c0,2.73-1.83,4.58-5.06,5.05V119c0,.57-.17.77-.75.77h-1.37c-.58,0-.78-.2-.78-.77v-1.28a5.71,5.71,0,0,1-5-3.86c-.2-.55,0-.92.58-1.15l1.23-.45c.62-.22.9-.07,1.17.55a3.28,3.28,0,0,0,3.38,2.11c2.3,0,3.46-.73,3.46-2.21a1.55,1.55,0,0,0-1.08-1.55,8.74,8.74,0,0,0-2.48-.47,11.22,11.22,0,0,1-3.35-.73,4.82,4.82,0,0,1-1.46-.83,4.54,4.54,0,0,1-1.35-3.4c0-2.7,1.71-4.51,4.91-4.93V99.53c0-.57.2-.77.78-.77Z" fill="#a5a5a5"/><rect x="298.67" y="150" width="32.83" height="8" fill="#a5a5a5"/><rect x="298.67" y="166" width="32.83" height="8" fill="#a5a5a5" opacity="0.19"/><rect x="184.11" y="172.33" width="72.26" height="18" fill="#fff"/><rect x="231.44" y="172.33" width="24.93" height="18" fill="#68e1fd"/><rect x="208.8" y="138.35" width="11.43" height="18.09" fill="#68e1fd"/><rect x="192.45" y="149.02" width="11.43" height="7.42" fill="#68e1fd"/><rect x="224.58" y="122.4" width="11.43" height="34.04" fill="#68e1fd"/><rect x="241.83" y="102.83" width="11.43" height="53.61" fill="#68e1fd"/><rect x="208.8" y="138.35" width="11.43" height="18.09" opacity="0.08"/><rect x="241.83" y="102.83" width="11.43" height="53.61" opacity="0.08"/></svg>