<svg id="Layer_1" data-name="Layer 1" xmlns="http://www.w3.org/2000/svg" viewBox="0 0 400 300"><path d="M88.44,93.46c-28.68,17.46-45.67,49.51-43,83,1.38,17.11,7.74,33.62,24.55,42.64,44.83,24,240.54,24.45,269.51-18s18.19-102.85-44.8-128C240.12,51.25,162.49,48.37,88.44,93.46Z" fill="#e6e6e6" opacity="0.3"/><polygon points="218.83 108.5 218.83 139.13 238.62 139.13 242.95 151.32 248.06 139.13 267.86 139.13 267.86 108.5 218.83 108.5" fill="#e6e6e6"/><circle cx="231.12" cy="123.07" r="3.2" fill="#fff"/><circle cx="243.34" cy="123.07" r="3.2" fill="#fff"/><circle cx="255.47" cy="123.07" r="3.2" fill="#fff"/><path d="M174.56,74s-4.75,1.28-5,3.91,2.52,12,2.49,12.2,5.77-.28,5.77-.28-3.26-6.56-1.38-8.82S178.78,73.5,174.56,74Z" fill="#f4a28c"/><path d="M163.6,72.6a109.64,109.64,0,0,0,14.11,11.49l2.63-2.15L168.26,70.48Z" fill="#c1c1c1"/><path d="M156.46,97.2c.29.28,17.22,17.44,18.94,14.44L169.54,88.5l8.28-1s17.64,42.43,8.63,42.43-28.73-11.07-28.73-11.07Z" fill="#68e1fd"/><path d="M156.46,97.2c.29.28,17.22,17.44,18.94,14.44L169.54,88.5l8.28-1s17.64,42.43,8.63,42.43-28.73-11.07-28.73-11.07Z" fill="#fff" opacity="0.46"/><path d="M75.42,147.84s-1.22,3.29-1,4.51.89,4.22,0,6.1S72.32,160,72.32,160s-.56,3.1-1,3.29-7.32-1.6-7.7-3.85,3.85-16.11,3.85-16.11Z" fill="#f4a28c"/><polygon points="128.35 186.18 164.35 249.21 169.26 248.13 149.33 179.4 128.35 186.18" fill="#f4a28c"/><path d="M107.05,178.56l5.83,28L93.37,192.83,90,197.22S110,226.38,124.7,222.14s2.94-49.56,2.94-49.56Z" fill="#f4a28c"/><path d="M138.13,69.14s-.28-2.78-2.35-2.39-1.7,4.39,1.17,4.54Z" fill="#f4a28c"/><polygon points="133.06 66.6 134.3 90.31 149.4 94.33 141.19 72.09 133.06 66.6" fill="#f4a28c"/><path d="M142.68,75.67A8.63,8.63,0,0,1,138,74.08s1.09,4.21,6.65,7.41Z" fill="#ce8172" opacity="0.31"/><path d="M145.86,62.94s1.72,7,1.25,12a3.63,3.63,0,0,1-4,3.27c-2.48-.28-5.75-1.36-7.13-5l-3.11-5.93a6.52,6.52,0,0,1,1.78-7.31C138.25,56.4,145,58.6,145.86,62.94Z" fill="#f4a28c"/><path d="M146.72,67.43l2.42,2.45a1.16,1.16,0,0,1-.44,1.91l-2.66.94Z" fill="#f4a28c"/><path d="M162.9,120.68c-6.28,15.73-14.56,12.8-16.7,25.35L144,158.38l-23-7-8.71-2.64-.39-.12.05-.22c.42-2.09,3.68-18.63,1.77-29.86-1-5.67-2.86-15.32-1-22.85,2-7.75,7.94-13.26,23.07-9.9,1.35.29,2.77.66,4.27,1.11a57.61,57.61,0,0,1,8.34,4.21C157,96.41,168.58,106.47,162.9,120.68Z" fill="#68e1fd"/><path d="M127.88,133.57c-1.85,3-1.37,4.77-2.95,7.89l-4,9.95c-2.48-.75-6.65-1.13-8.71-2.64a1.57,1.57,0,0,1-.34-.34c.42-2.09,3.68-18.63,1.77-29.86-1-5.67-2.86-15.32-1-22.85a15.05,15.05,0,0,1,4.27-3c4.21-1.88,11.43-1.07,11.46-1,2.21,1.59,5.19,12.07,6.06,14.61C137.54,115.16,132.89,125.51,127.88,133.57Z" opacity="0.09"/><path d="M117.34,86.26s-22.58,9-37.37,28.11S65.56,147,65.56,147l10.89,2.75s6.06-20,16.92-26,27.36-4.25,33.71-20S126.32,84.43,117.34,86.26Z" fill="#68e1fd"/><path d="M152.09,118.84c-.19-22.52-15.79-32.49-15.79-32.49s-.21-.2-.52-.53c1.35.29,2.77.66,4.27,1.11a57.61,57.61,0,0,1,8.34,4.21c.56.84,1.13,1.75,1.73,2.72C155.56,102.67,152.09,118.84,152.09,118.84Z" fill="#24285b"/><path d="M136.68,68s11.39,20.08,5,25S122.83,98.72,120,89.89s5.76-12.23,4.2-24.89,22.84-14.91,24-7.68S136.68,68,136.68,68Z" fill="#ffd200"/><path d="M111.86,148.65l32.1,9.73,13.76,37.92-48.14,5.37S95.79,167.05,111.86,148.65Z" fill="#24285b"/><path d="M168.9,248.21s3.47,2.84,6.9,1.91,5,3.85-.67,4.58a31,31,0,0,1-5.34.24,9.36,9.36,0,0,0-4.66,1.2,1.53,1.53,0,0,1-1.73-.28c-2-1.51.95-6.65.95-6.65Z" fill="#68e1fd"/><path d="M90.45,197.31S86,197.45,84,200.4s-6.32.39-2.5-3.89a31.2,31.2,0,0,1,3.86-3.69,9.29,9.29,0,0,0,2.74-4,1.53,1.53,0,0,1,1.49-.92c2.49-.17,3.79,4.9,3.79,4.9Z" fill="#68e1fd"/><polygon points="194.66 69.56 150.91 76 149.47 72.6 184.57 45.71 194.66 69.56" fill="#e6e6e6"/><rect x="187.2" y="42.67" width="4.13" height="30.22" rx="2.06" transform="translate(-7.56 78.25) rotate(-22.91)" fill="#c1c1c1"/><path d="M171.36,76.91a6.77,6.77,0,0,0,1.49,2.23,3.35,3.35,0,0,0,2.44,1,2.25,2.25,0,0,0,2-1.52c.47-1.65-1-4.35-2.73-4.7C172.66,73.48,170.44,74.84,171.36,76.91Z" fill="#f4a28c"/><rect x="268.12" y="58.11" width="53.07" height="40.04" fill="#e6e6e6"/><rect x="288.1" y="154.06" width="50.96" height="38.45" fill="#e6e6e6"/><polygon points="306.58 165.41 306.58 179.75 322.58 172.41 306.58 165.41" fill="#fff"/><rect x="181.14" y="162.05" width="70.05" height="52.85" fill="#e6e6e6"/><rect x="192.66" y="185.36" width="8.75" height="17.98" fill="#fff"/><rect x="204.94" y="176.11" width="8.75" height="27.23" fill="#fff"/><rect x="218.09" y="189.72" width="8.75" height="13.62" fill="#fff"/><rect x="230.91" y="173.61" width="8.75" height="29.73" fill="#fff"/><path d="M294.65,70.39l.36-.53a7.39,7.39,0,0,1,3.11-2.59,6.47,6.47,0,0,1,3.1-.51,6.3,6.3,0,0,1,4.11,1.9,6.21,6.21,0,0,1,1.72,3.52,10.61,10.61,0,0,1,0,2.58,9.46,9.46,0,0,1-2.58,5.8,32.29,32.29,0,0,1-2.92,2.81L296.27,88c-.52.46-1,.94-1.52,1.41l-.09.08-.38-.35c-1.71-1.61-3.48-3.15-5.25-4.69-1.16-1-2.33-2-3.41-3.09a13.1,13.1,0,0,1-2.09-2.6,9.24,9.24,0,0,1-1.18-3.31,13.51,13.51,0,0,1-.15-2.62,6.21,6.21,0,0,1,4.21-5.74,6.54,6.54,0,0,1,7,1.66,7.92,7.92,0,0,1,1.19,1.51A.37.37,0,0,0,294.65,70.39Z" fill="#fff"/><rect x="213.17" y="78.79" width="18.6" height="14.06" fill="#e6e6e6"/></svg>