<svg id="Layer_1" data-name="Layer 1" xmlns="http://www.w3.org/2000/svg" viewBox="0 0 400 300"><title>_</title><path d="M329.18,139.77C319.86,105.09,301,82.7,269.57,75.46,226,65.44,171,64.9,128.82,75c-15.69,3.76-31.46,10.76-42.38,24.33C66.2,124.47,60.74,179.91,80,207.68c8.57,12.36,22.89,17,36.38,19.77,51.33,10.6,104,4.73,156,.33,12.06-1,24.63-2.13,35-9.25C329.49,203.44,336.38,166.56,329.18,139.77Z" fill="#dddbdb" opacity="0.18"/><path d="M145.38,100.35a19.1,19.1,0,0,1,5-1.84,6.87,6.87,0,0,0,2.36-.75,7,7,0,0,0,1.85-2.23,18.82,18.82,0,0,1,11.87-8,6.49,6.49,0,0,0,2.6-.85,8,8,0,0,0,1.71-2.3c2.27-3.51,6.7-5,10.87-5.29,8.05-.56,14,2.17,16.43,10.21a27.24,27.24,0,0,1,13.55,3.64,48.5,48.5,0,0,1,4.82,3.38l3.43,2.63c3.37,2.56,6.94,5.45,7.94,9.57.35,1.45,5.89,4.27,7.19,5.17a42.81,42.81,0,0,0,7.74,4.69c4.89,2.07,8.14,4.77,9.83,10.2a19.93,19.93,0,0,1,.74,7.87c-.75,7.58-7.29,11.72-14.45,12.15a38.75,38.75,0,0,1-8.57-.84c-23.71-3.88-47.91-2.65-71.9-1.4a128.45,128.45,0,0,0-16.86,1.61c-6.76,1.24-12.6,2.2-18.73-1.69-4.06-2.58-9.5-7.53-9.75-12.75-.54-11.29,12-22.57,22.8-22.24A20.15,20.15,0,0,1,145.38,100.35Z" fill="#ddd"/><path d="M260.27,126.84v32.44A55.28,55.28,0,0,1,205,214.57H160.84a55.28,55.28,0,0,1-55.29-55.29V126.84Z" fill="#68e1fd"/><path d="M134.85,208.5H231a0,0,0,0,1,0,0v11.67a5,5,0,0,1-5,5H139.88a5,5,0,0,1-5-5V208.5A0,0,0,0,1,134.85,208.5Z" fill="#24285b"/><path d="M142.41,114.45a1,1,0,0,0-1.23-.69l-4.6,1.51a1,1,0,1,0,.53,1.92l4.6-1.51A1,1,0,0,0,142.41,114.45Z" fill="#fff" opacity="0.3"/><path d="M183.32,112.5l-5.58-1.66a1,1,0,0,0-1.23.7,1,1,0,0,0,.7,1.23l5.58,1.66a1,1,0,0,0,.53-1.93Z" fill="#fff" opacity="0.3"/><path d="M162.23,118.56a1,1,0,0,0-1.37-.36,43.91,43.91,0,0,1-6.39,2.23,1,1,0,0,0,.53,1.93,47.91,47.91,0,0,0,6.87-2.43A1,1,0,0,0,162.23,118.56Z" fill="#fff" opacity="0.3"/><path d="M208.09,117.05a37.16,37.16,0,0,0-8.72,2,1,1,0,0,0-.7,1.23,1,1,0,0,0,1.23.7,34.86,34.86,0,0,1,8.19-1.92,1,1,0,0,0,1-1A1,1,0,0,0,208.09,117.05Z" fill="#fff" opacity="0.3"/><path d="M193.58,108.64l-6.49-3.11a1,1,0,0,0-1.37.36,1,1,0,0,0,.36,1.37l6.49,3.1a1,1,0,0,0,1-1.72Z" fill="#fff" opacity="0.3"/><path d="M226.47,117.78a24.19,24.19,0,0,1-6.4-1.14,1,1,0,0,0-.53,1.93,26.73,26.73,0,0,0,6.93,1.21,1,1,0,0,0,0-2Z" fill="#fff" opacity="0.3"/><path d="M179.94,120.05a1,1,0,0,0-1.23-.7l-4.1,1.51a1,1,0,0,0-.7,1.23,1,1,0,0,0,1.23.69l4.1-1.5A1,1,0,0,0,179.94,120.05Z" fill="#fff"/><path d="M153.66,113.91l-3.52-2.14a1,1,0,0,0-1,1.73l3.52,2.14a1,1,0,0,0,1.36-.36A1,1,0,0,0,153.66,113.91Z" fill="#fff"/><path d="M238.05,121.51a7,7,0,0,1-1-1,8.66,8.66,0,0,1-.68-1.09,1,1,0,0,0-.59-.46,1,1,0,0,0-1.23.7,1,1,0,0,0,.1.77,8,8,0,0,0,1.95,2.49,1,1,0,0,0,1.42,0,1,1,0,0,0,.29-.71A1,1,0,0,0,238.05,121.51Z" fill="#fff"/><path d="M137.87,122.72a16.51,16.51,0,0,0-6.43.87,1,1,0,0,0,.53,1.93,14.59,14.59,0,0,1,5.9-.8,1,1,0,0,0,1-1A1,1,0,0,0,137.87,122.72Z" fill="#fff" opacity="0.3"/><path d="M251.84,188.63A55.24,55.24,0,0,1,205,214.57H160.84a55.28,55.28,0,0,1-55.29-55.29V126.84h9.11A101.24,101.24,0,0,0,136,154c17,15.42,38.81,25.11,61.35,29.53C215.21,187.05,233.62,187.37,251.84,188.63Z" opacity="0.05"/><path d="M215.06,135.19c-.61.18-1.39.65-1.15,1.25,7.92,4.17,17.15,5.05,26.1,4.89,3.22-.05,10.86-.24,11.31-4.81.3-3.08-3.39-3.84-5.76-4.29C235.69,130.4,224.55,132.39,215.06,135.19Z" fill="#fff" opacity="0.3"/><path d="M172,99.82a1,1,0,0,0-1.23-.69,21.32,21.32,0,0,0-5.35,1.67,1,1,0,0,0-.36,1.37,1,1,0,0,0,1.37.36l.34-.16.15-.06.57-.23c.41-.15.83-.29,1.25-.42a20.28,20.28,0,0,1,2.56-.61A1,1,0,0,0,172,99.82Z" fill="#fff" opacity="0.3"/><path d="M169,106.29a1.05,1.05,0,0,0-.29-.71,1,1,0,0,0-.71-.29c-.48,0-1.07.44-1,1l.54,4.08a1.05,1.05,0,0,0,.29.71,1,1,0,0,0,.71.29c.48,0,1.07-.44,1-1Z" fill="#fff" opacity="0.3"/><path d="M184.8,90a1,1,0,1,0-2,0l.26,3.57a1,1,0,0,0,2,0Z" fill="#fff" opacity="0.3"/><path d="M211.32,104.07a19.71,19.71,0,0,1-1.88-1.78c-.28-.31-.55-.63-.82-1l-.09-.12h0a2.35,2.35,0,0,0-.19-.25l-.39-.56a1,1,0,1,0-1.73,1,19.57,19.57,0,0,0,3.69,4.07,1.06,1.06,0,0,0,.71.3,1,1,0,0,0,.7-.3A1,1,0,0,0,211.32,104.07Z" fill="#fff" opacity="0.3"/><path d="M170.14,92.12a1,1,0,0,0-1.37-.36l-.25.11h0l-.45.17a8,8,0,0,1-.87.26c-.29.07-.59.13-.88.17h0l-.27,0a3.59,3.59,0,0,1-.47,0,1,1,0,0,0,0,2,11,11,0,0,0,4.21-1A1,1,0,0,0,170.14,92.12Z" fill="#fff" opacity="0.3"/><path d="M196.89,98.24c-.32-1.07-.64-2.14-1-3.21a1,1,0,0,0-1.93.54l1,3.2a1,1,0,1,0,1.92-.53Z" fill="#fff"/><path d="M156.44,102.93a1,1,0,0,0-.46-.6,1,1,0,0,0-.77-.1l-2.92,1.19a1.14,1.14,0,0,0-.6.46,1.08,1.08,0,0,0-.1.77,1,1,0,0,0,.46.6,1,1,0,0,0,.77.1l2.92-1.19a1.1,1.1,0,0,0,.6-.46A1,1,0,0,0,156.44,102.93Z" fill="#fff"/><path d="M205.47,110.74c-.21-.68-.42-1.36-.64-2a1,1,0,0,0-.46-.6,1.08,1.08,0,0,0-.77-.1,1,1,0,0,0-.59.46,1,1,0,0,0-.11.77c.22.68.43,1.36.64,2a1.08,1.08,0,0,0,.46.59,1,1,0,0,0,.77.1.93.93,0,0,0,.6-.46A1,1,0,0,0,205.47,110.74Z" fill="#fff"/><path d="M221.56,107.82a1,1,0,0,0-.46-.6l-.24-.1a1,1,0,0,0-.53,0l-1.87.34a1.06,1.06,0,0,0-.6.46,1,1,0,0,0-.1.77,1,1,0,0,0,.46.6l.24.1a1,1,0,0,0,.53,0l1.87-.34a1,1,0,0,0,.7-1.23Z" fill="#fff"/><polygon points="274.88 223.68 284.86 75.81 294.45 76.49 279.76 224.02 274.88 223.68" fill="#ffd200"/><polygon points="270.38 223.25 276.88 75.19 267.27 74.81 265.49 223.05 270.38 223.25" fill="#ffd200"/></svg>