<svg id="Layer_1" data-name="Layer 1" xmlns="http://www.w3.org/2000/svg" viewBox="0 0 400 300"><circle cx="335.99" cy="125.03" r="6.3" fill="#ffd200"/><circle cx="185.25" cy="137.03" r="6.3" fill="#ffd200"/><path d="M174.16,105.25c-4.68,4.94-4.44,17.39-.85,23.18,2.12,3.42,5.72,6.45,11.77,7.67,17.28,3.48,14.85,13.48,13.64,19.24s8.49,16.37,23.95,9.7,23.26,16.68,23.26,16.68l23.43,1.5s2.72-26.06,23.64-23.94,24.25-6.4,26.67-21.39,33.05-11.95,22.44-37.11-24.86-10.61-30-29.71S287.54,42.27,276,50.15s-21.56,7.36-27,1.6-25.59-6.5-32.26,12-22.38-14-33,12.17C180.62,83.51,191.26,87.22,174.16,105.25Z" fill="#8e8e8e"/><ellipse cx="120.88" cy="250.32" rx="66.01" ry="8.63" fill="#e6e6e6" opacity="0.3"/><path d="M138.13,167.44c-.56-7.72-9-12.27-15.94-8.84-7.54,3.73-16.79,12.28-18.71,31.88-3.34,34.19,44.94,33,44.94,33l1.89-6s-31.58-6.74-31-20.68C120,181.2,139,180,138.13,167.44Z" fill="#68e1fd"/><path d="M138.13,167.44c-.56-7.72-9-12.27-15.94-8.84-7.54,3.73-16.79,12.28-18.71,31.88-3.34,34.19,44.94,33,44.94,33l1.89-6s-31.58-6.74-31-20.68C120,181.2,139,180,138.13,167.44Z" fill="#fff" opacity="0.46"/><path d="M98.07,246.8s1,2.7,3.45,2.89,3.1,2.58.91,3.22-7.9-2.15-7.9-2.15l.13-3.54Z" fill="#68e1fd"/><path d="M121.75,246.8s1,2.7,3.45,2.89,3.11,2.58.91,3.22-7.9-2.15-7.9-2.15l.14-3.54Z" fill="#68e1fd"/><path d="M151.41,137.71a26.21,26.21,0,0,1-4.25,5.6,2.14,2.14,0,0,1-3-.2,4.7,4.7,0,0,1-1-5l1-3.77a3.81,3.81,0,0,1,3.68-2.41C150.77,131.87,152.79,135.52,151.41,137.71Z" fill="#f4a28c"/><polygon points="143.24 135.63 132.81 144.8 138.27 150.19 143.53 141.58 143.24 135.63" fill="#f4a28c"/><path d="M150.44,137.26a17.07,17.07,0,0,1-3.05-2.46,3.53,3.53,0,0,1-2.19,3.2,2.88,2.88,0,0,1-3.52-1l3.13-4.45a4.34,4.34,0,0,1,4-1.95,15.59,15.59,0,0,1,2,.3c1.65.36,3,2.52,4.71,2.44a1,1,0,0,1,1,1.47c-.73,1.51-2.45,3.49-4.81,3A3.9,3.9,0,0,1,150.44,137.26Z" fill="#24285b"/><path d="M145.64,138.16s.9-1.37-.18-2-2.39,1.38-1.14,2.5Z" fill="#f4a28c"/><path d="M150,140l.05,2a.68.68,0,0,1-.95.64l-1.51-.67Z" fill="#f4a28c"/><path d="M143.38,141.82a5.18,5.18,0,0,1-.94-2.61s-2.46,1.79-.56,5.08Z" fill="#ce8172" opacity="0.31"/><path d="M120.26,141s20.56,2.8,35.5,18.85-36.66,49-36.66,49l-27-9.28S90.29,134.08,120.26,141Z" fill="#68e1fd"/><path d="M152,217.09a.31.31,0,0,1-.13-.06l-3.3-1.72a9.81,9.81,0,0,1,9.09-17.38l3.3,1.73a.93.93,0,1,1-.86,1.65l-3.3-1.73a8,8,0,0,0-10.72,3.36,7.94,7.94,0,0,0,3.35,10.71l3.3,1.73a.93.93,0,0,1-.73,1.71Z" fill="#ffd200"/><path d="M123.86,150.29s7.08,14.38-4.69,27.2,10.23,24.18,10.23,24.18l-10.3,7.23-27-9.28s.42-12.5.83-18.52S123.86,150.29,123.86,150.29Z" opacity="0.08"/><path d="M152,217.09a.31.31,0,0,1-.13-.06l-3.3-1.72a9.81,9.81,0,0,1,9.09-17.38l3.3,1.73a.93.93,0,1,1-.86,1.65l-3.3-1.73a8,8,0,0,0-10.72,3.36,7.94,7.94,0,0,0,3.35,10.71l3.3,1.73a.93.93,0,0,1-.73,1.71Z" fill="#fff" opacity="0.6"/><path d="M123.86,150.29c-1.58-7.58-10.55-11-17-6.64-7,4.7-15,14.41-14.29,34.09,1.25,34.33,48.94,26.76,48.94,26.76l1.07-6.23s-32.2-2.47-33.48-16.37C107.69,166.34,126.43,162.64,123.86,150.29Z" fill="#68e1fd"/><path d="M123.86,150.29c-1.58-7.58-10.55-11-17-6.64-7,4.7-15,14.41-14.29,34.09,1.25,34.33,48.94,26.76,48.94,26.76l1.07-6.23s-32.2-2.47-33.48-16.37C107.69,166.34,126.43,162.64,123.86,150.29Z" fill="#fff" opacity="0.46"/><polygon points="160.91 193.73 144.69 217.21 167.36 229.08 175.53 201.38 160.91 193.73" fill="#ffd200"/><path d="M163.15,220.56,187,207.4l5.83,3a.92.92,0,0,1-.44,1.74l-2.66-.05a3.81,3.81,0,0,0-2,.55l-22.62,13.56Z" fill="#ffd200"/><path d="M142.29,200.11s5.7-2,7.47,1.29-2.23,4.54-8.23,3.1Z" fill="#f4a28c"/><polygon points="160.91 193.73 170.62 194.05 175.53 201.38 160.91 193.73" fill="#ffd200"/><polygon points="160.91 193.73 170.62 194.05 175.53 201.38 160.91 193.73" opacity="0.17"/><path d="M148.71,222.61s5.26,2.6,7.3-.63l-6.42-2.18Z" fill="#f4a28c"/><g opacity="0.48"><path d="M193.36,208.71l.46-.18" fill="none" stroke="#c9c9c9" stroke-linecap="round" stroke-linejoin="round" stroke-width="2"/><path d="M198.77,207.29c8.27-1.22,24.19.25,34.33,25.53" fill="none" stroke="#c9c9c9" stroke-linecap="round" stroke-linejoin="round" stroke-width="2" stroke-dasharray="1.02 5.11"/><path d="M234,235.2c0,.16.11.32.17.48" fill="none" stroke="#c9c9c9" stroke-linecap="round" stroke-linejoin="round" stroke-width="2"/></g><path d="M92.05,199.62l1.31,47.75H99l3.4-26.44a11.43,11.43,0,0,1,8.11-9.5l8.63-2.53Z" fill="#24285b"/><polygon points="119.1 208.9 122.83 247.37 117.42 247.37 105.58 211.41 119.1 208.9" fill="#24285b"/><path d="M226.3,249.52h67.3s-11.82-2.73-18.19-8.49-7.27-109.74-7.27-109.74l40.62-25.46v-5.46s-27.59,14.85-41.53,17.89L266,96.13H248.74l-2.12,50.24L213,124.32v8.49s23,11.77,33,29.68l-.25,62.75a22.93,22.93,0,0,1-11.7,19.91Z" fill="#e6e6e6"/><path d="M200.18,116.84s-7.83.91-5.33,8,10.63,3.63,7.05,11.3,7.35,12.21,11.07,8.19.85-10.64,8.71-9.87,10.46-13.26,3.19-14.17-3-9.55-9.78-10.45a6.07,6.07,0,0,0-6.23,2.9,9.58,9.58,0,0,1-8.68,4.14Z" fill="#c4c4c4"/><path d="M289.53,97s-7.83.91-5.32,8,10.62,3.62,7,11.29,7.36,12.22,11.07,8.19.85-10.63,8.71-9.87,10.46-13.25,3.19-14.16-3-9.55-9.78-10.46a6.08,6.08,0,0,0-6.22,2.9A9.63,9.63,0,0,1,289.53,97Z" fill="#c4c4c4"/><path d="M239.87,105s-2.5,7.73,9.32,7,19.56,6.82,22.74-7-11.14-28-23.19-22S239.87,105,239.87,105Z" fill="#8e8e8e"/><circle cx="216.74" cy="139.96" r="6.3" fill="#ffd200"/><circle cx="246.87" cy="113.81" r="6.3" fill="#ffd200"/><circle cx="274.61" cy="78.4" r="6.3" fill="#ffd200"/><circle cx="214.87" cy="88.87" r="6.3" fill="#ffd200"/><circle cx="290.78" cy="159.79" r="6.3" fill="#ffd200"/><circle cx="308.76" cy="116.79" r="6.3" fill="#ffd200"/></svg>