<svg id="Layer_1" data-name="Layer 1" xmlns="http://www.w3.org/2000/svg" viewBox="0 0 400 300"><title>_</title><path d="M241.3,57.17c-35.56-9.8-73.33-15.65-109.21-11.3-16.46,2-33.66,6.59-46.33,17.88C69,78.67,60.1,103.41,55.51,124.82c-6.57,30.62,2.33,59.77,25.24,81.43,19.09,18,44.1,28.52,69.34,35.77A350.07,350.07,0,0,0,237,255.46c27.56.76,53.2-1.4,74.64-20.66,14.48-13,24.72-30.37,30.45-49,7.86-25.51,5.72-51.86-9-74.37-14-21.33-36.33-36.3-60.2-44.48C262.63,63.46,252.07,60.13,241.3,57.17Z" fill="#e6e6e6" opacity="0.3"/><rect x="220.81" y="68.06" width="104.69" height="187.75" fill="#c9c9c9"/><rect x="229.47" y="89.47" width="86.65" height="132.14" fill="#fff"/><circle cx="273.47" cy="238.52" r="10.24" fill="#fff" opacity="0.56"/><rect x="264.3" y="75.4" width="29.35" height="4.28" opacity="0.12"/><circle cx="253.67" cy="78.01" r="4.78" fill="#fff"/><path d="M254.65,175.75l-7.83,8.17a5.85,5.85,0,0,1-9.26-1.09l-10.11-17.25a5.65,5.65,0,0,1-.62-1.53c-.44-1.85-1.66-6.36-3-6.87-1.7-.63-2.12,3.54-2.12,3.54s-4.89-3.26-7,0c-1.26,1.95,1.83,4.53,4.55,6.31a11.77,11.77,0,0,1,4.79,6.28c2.59,8.21,8.93,25.63,16.39,27.06,9.78,1.89,27-12.84,27-12.84Z" fill="#f4a28c"/><path d="M273.64,148.69s-31.15,5.05-27.33,26.57c2.77,15.59,10.9,14.48,10.48,26.36l-.18,7.56,33.14-1s-2.11-14.9,2-25.51S307.29,145.86,273.64,148.69Z" fill="#68e1fd"/><polygon points="280.85 130.09 282.29 148.88 271.88 148.93 275.01 135.24 280.85 130.09" fill="#f4a28c"/><path d="M283,152.7s-16.19,4.85-11.09,18.79,13.24,22.78,5.05,27.23-20.32,10.46-20.32,10.46h28l6.66-7.27,5.76-21Z" opacity="0.09"/><path d="M274.2,138.21a6.88,6.88,0,0,0,3.52-1.73s-.43,3.42-4.48,6.51Z" fill="#ce8172" opacity="0.31"/><path d="M270.4,128.51s-.63,5.72.24,9.55a2.9,2.9,0,0,0,3.47,2.17,6.37,6.37,0,0,0,5.1-4.68l1.84-5a5.15,5.15,0,0,0-2.14-5.57C275.73,122.59,270.61,125,270.4,128.51Z" fill="#f4a28c"/><polygon points="256.61 209.18 252.54 221.49 294.64 221.49 289.75 208.18 256.61 209.18" fill="#24285b"/><path d="M276.39,133.58s.1-2.21,1.76-2,1.54,3.41-.73,3.65Z" fill="#f4a28c"/><path d="M270.19,132.13l-1.66,2.18a.92.92,0,0,0,.54,1.46l2.19.46Z" fill="#f4a28c"/><path d="M278.15,131.58s-6.92,17-1.38,20.19,15.41,2.54,16.71-4.69-5.78-9-5.84-19.15-19.5-9.4-19.71-3.59S278.15,131.58,278.15,131.58Z" fill="#ffd200"/><path d="M283,152.7a8.28,8.28,0,0,1,12.24,1.91,44.41,44.41,0,0,1,7.23,26.79c-1.14,20.11,3.19,32.3-17.86,27.78-15.35-3.3-34-28.49-34-28.49s-6.24-4.13-1.42-10.22,8.51,8.36,8.51,8.36,25.23,21,30.33,14.92C292.46,188.38,269.88,163.78,283,152.7Z" fill="#f4a28c"/><rect x="74.5" y="44.18" width="104.69" height="187.75" fill="#c9c9c9"/><rect x="83.16" y="65.59" width="86.65" height="132.14" fill="#fff"/><circle cx="127.16" cy="214.64" r="10.24" fill="#fff" opacity="0.56"/><rect x="117.99" y="51.52" width="29.35" height="4.28" opacity="0.12"/><circle cx="107.36" cy="54.13" r="4.78" fill="#fff"/><path d="M149.81,148.19s-.64,22.84,10,27.36c13.22,5.64,27.91-7,34.24-13.46a11.77,11.77,0,0,1,6.84-3.47,9.64,9.64,0,0,0,6-3c3.61-4-4.25-7.66-7.44-4.68a2,2,0,0,0-1.06-2.9c-1-.56-1.88.86-2.47,2.45a8.33,8.33,0,0,1-5,5l-14.44,5.12a5.85,5.85,0,0,1-7.9-6.44l1.23-7.23Z" fill="#f4a28c"/><path d="M154.14,113.11s19.46,8.3,16.48,38.7l-19-1.63Z" fill="#68e1fd"/><path d="M154.14,113.11s19.46,8.3,16.48,38.7l-19-1.63Z" fill="#fff" opacity="0.36"/><polygon points="133.88 87.07 128.48 106.09 139.18 108.32 138.81 93.58 133.88 87.07" fill="#f4a28c"/><path d="M139,96.8a7.14,7.14,0,0,1-3.26-2.51s-.27,3.61,3.25,7.63Z" fill="#ce8172" opacity="0.31"/><path d="M128.48,106.09l6.35,1.32s29,3.13,30.21,19.52-15.23,58.25-15.23,58.25h-44S70.59,101.76,128.48,106.09Z" fill="#68e1fd"/><path d="M145,87.62s-.54,6-2.24,9.77a3,3,0,0,1-4,1.51A6.69,6.69,0,0,1,134.43,93l-.86-5.5a5.44,5.44,0,0,1,3.36-5.29C140.71,80.42,145.47,84,145,87.62Z" fill="#f4a28c"/><path d="M115.49,113.73s15,8.74,11.55,28.51-9.3,26.58,3.11,23.81,17.51-9,17.51-9,8.93,7.28,0,12.81-21,5.51-23,15.3H105.83s-1.53-4.29-3.55-9.69S115.49,113.73,115.49,113.73Z" opacity="0.09"/><path d="M143.44,87.61a24.08,24.08,0,0,1-5.4-1.4,5,5,0,0,1-1,5.44,4.1,4.1,0,0,1-5.16.74l1.46-7.61a6.15,6.15,0,0,1,4-4.85,22.17,22.17,0,0,1,2.77-.8c2.35-.49,5.31,1.55,7.55.42a1.45,1.45,0,0,1,2.1,1.34c-.07,2.38-1.13,6-4.5,6.67A5.86,5.86,0,0,1,143.44,87.61Z" fill="#ffd200"/><path d="M137.74,91.59s.36-2.3-1.39-2.43-2.29,3.19,0,3.91Z" fill="#f4a28c"/><circle cx="177.67" cy="157.04" r="35.33" opacity="0.08"/><circle cx="177.67" cy="157.04" r="35.33" fill="#ffd200"/><g opacity="0.08"><circle cx="178.25" cy="149.63" r="35.33"/></g><circle cx="177.67" cy="157.04" r="35.33" opacity="0.08"/><circle cx="178.25" cy="149.63" r="35.33" fill="#ffd200"/><path d="M176.23,133.92c1-.2,1.35.08,1.55,1.06l.42,2.09c4-.24,6.68,1.26,9,4.33.72.92.62,1.51-.43,2.26L184.9,145c-.88.66-1.39.54-2.15-.37a5.45,5.45,0,0,0-6.12-2.17c-3.62.73-5.06,2.13-4.57,4.56.32,1.57,2,2.26,3.52,2.26a24.89,24.89,0,0,0,3.16-.15,20.36,20.36,0,0,1,5.88,0,7.78,7.78,0,0,1,2.79.85,8.42,8.42,0,0,1,3.47,5.51c.93,4.64-1.54,8.42-6.86,10.34l.44,2.21c.2,1,0,1.38-1,1.58l-2.34.47c-1,.2-1.39-.07-1.59-1l-.44-2.17c-4.37.31-7.66-1.29-9.84-4.83a1.42,1.42,0,0,1,.58-2.16l1.93-1.19c1-.6,1.51-.44,2.2.53,1.42,2.2,3.57,3,6.47,2.42,3.92-.8,5.62-2.43,5.12-4.94a2.67,2.67,0,0,0-2.37-2.27,15,15,0,0,0-4.38,0,19.07,19.07,0,0,1-5.95-.08,8.14,8.14,0,0,1-2.76-.9,7.94,7.94,0,0,1-3.47-5.33c-.93-4.6,1.34-8.25,6.65-10.08l-.42-2.08c-.2-1,.07-1.39,1-1.59Z" fill="#fff"/><path d="M92.28,148.68s-2.48,25.4,10,26.81c9.41,1.07,24.5-4.24,33.72-6.87,4-1.14,5.93-1.67,9-4.47,3.67-3.36,8.77-5.75,4.81-8.94-7-5.67-12,4-12,4a78.18,78.18,0,0,1-18.06,3,7.38,7.38,0,0,1-7.33-9.28l2.33-8.75S98.21,128.75,92.28,148.68Z" fill="#f4a28c"/><path d="M144.42,91.39,145.67,94a1,1,0,0,1-.86,1.39l-2.35,0Z" fill="#f4a28c"/><path d="M105.24,111.74c-6.45,5-16.23,16-16,36.74l26.64,1.7s7.7-22.8-.35-36.45A7,7,0,0,0,105.24,111.74Z" fill="#68e1fd"/><path d="M105.24,111.74c-6.45,5-16.23,16-16,36.74l26.64,1.7s7.7-22.8-.35-36.45A7,7,0,0,0,105.24,111.74Z" fill="#fff" opacity="0.36"/><polygon points="105.83 185.18 105.83 198.15 153.83 198.15 149.81 185.18 105.83 185.18" fill="#24285b"/><path d="M210.68,145.66a6.1,6.1,0,0,0-1.49,3.66,3.55,3.55,0,0,0,.39,2.11,3.26,3.26,0,0,0,.93.92c1.45,1,3.68,1.16,4.84-.18a4.41,4.41,0,0,0,.87-2.85c0-1.2.14-3.57-.82-4.49C214.11,143.59,211.69,144.59,210.68,145.66Z" fill="#f4a28c"/></svg>