<svg id="Layer_1" data-name="Layer 1" xmlns="http://www.w3.org/2000/svg" viewBox="0 0 400 300"><rect x="299.98" y="117.3" width="61.26" height="27.7" fill="#e6e6e6" opacity="0.3"/><path d="M64.05,177.64s-34.22,11.7-17.88,52S129,244.93,223.49,251.56,353.58,242,353.58,204.69s-96.51-40.21-148.6-33.4S105.92,149.09,64.05,177.64Z" fill="#e6e6e6" opacity="0.3"/><rect x="215.53" y="161.07" width="107.74" height="58.16" fill="#c1c1c1"/><rect x="215.53" y="153.92" width="107.74" height="58.16" fill="#e6e6e6"/><rect x="73.57" y="161.07" width="107.74" height="58.16" fill="#c1c1c1"/><rect x="73.57" y="153.92" width="107.74" height="58.16" fill="#e6e6e6"/><rect x="174.13" y="176.03" width="1.74" height="12.13" fill="#c1c1c1"/><rect x="315.58" y="176.03" width="1.74" height="12.13" fill="#c1c1c1"/><rect x="89.91" y="161.31" width="77.73" height="43.39" fill="#fff"/><rect x="114.59" y="171.29" width="14.13" height="23.75" fill="#24285b"/><circle cx="82.05" cy="183.17" r="4.8" fill="#c1c1c1"/><path d="M73.57,153.92v21.55s8.51,10.8,17.19,7.7,6.64-11.11,13.79-8.38,10,11.48,17.11,8.38-2.3-15-2.3-15l-13.79-14.64Z" opacity="0.1"/><circle cx="150.04" cy="183.17" r="11.87" fill="#ffd200"/><rect x="231.86" y="161.31" width="77.73" height="43.39" fill="#fff"/><circle cx="272.26" cy="182.64" r="14.32" fill="#ffd200"/><circle cx="223.49" cy="183.17" r="4.8" fill="#c1c1c1"/><path d="M116.64,157.23s-2.42,12.35-11.55,8.52S86.58,150.2,92.15,142.52,118,143,116.64,157.23Z" fill="#f4a28c"/><path d="M116.64,157.23s-2.42,12.35-11.55,8.52S86.58,150.2,92.15,142.52,118,143,116.64,157.23Z" opacity="0.09"/><polygon points="68.48 138.19 34.35 125.03 51.46 89.62 83.39 107.33 68.48 138.19" fill="#68e1fd"/><polygon points="40.22 112.87 74.14 126.47 68.48 138.19 34.35 125.03 40.22 112.87" opacity="0.1"/><path d="M81.57,111.1l27,17a29.33,29.33,0,0,1,13.64,23L124,181.31c.36,5.9-7.88,7.74-10,2.23,0-.09-.07-.18-.1-.26-3.22-8.73.48-25.74-6-32.2s-14.49-1.32-12.21,9.34-8.91,13-10.85,4.32-6.3-15-14.42-30.6Z" fill="#f4a28c"/><circle cx="284.31" cy="191.63" r="5.5" fill="#24285b"/><text transform="translate(144.78 179.02) rotate(90)" font-size="13.82" fill="#fff" font-family="Panton-Black, Panton Black" font-weight="800">$</text><text transform="translate(266.54 177.64) rotate(90)" font-size="16.66" fill="#fff" font-family="Panton-Black, Panton Black" font-weight="800">$</text><path d="M281.81,191.53v0a.75.75,0,0,1,.26-.63l1.52-1.3a.75.75,0,0,1,1.06.08.76.76,0,0,1-.08,1.06l-.73.63,2.39,1.46a.75.75,0,0,1,.24,1,.74.74,0,0,1-1,.25l-3.27-2A.77.77,0,0,1,281.81,191.53Z" fill="#fff"/><path d="M128.77,139.64s11-49.91,43.64-59.32c33.93-9.78,92.18-10.43,103.59,68.91" fill="none" stroke="#a8a8a8" stroke-linecap="round" stroke-linejoin="round" stroke-width="2" stroke-dasharray="1 10"/><circle cx="200.05" cy="77.26" r="30.55" fill="#68e1fd"/><path d="M198.29,88.36h-.1a3.63,3.63,0,0,1-3-1.36l-6-7.51A3.62,3.62,0,1,1,194.86,75l2.89,3.63,7.43-11.26a3.62,3.62,0,0,1,6,4L201.05,86.75A3.64,3.64,0,0,1,198.29,88.36Z" fill="#fff"/><rect x="292.83" y="108.55" width="61.26" height="27.7" fill="#24285b"/><polygon points="337.77 127.85 348.49 127.85 343.13 117.3 337.77 127.85" fill="#ffd200"/><rect x="303.89" y="119.85" width="27.74" height="5.45" fill="#fff"/></svg>