<svg id="Layer_1" data-name="Layer 1" xmlns="http://www.w3.org/2000/svg" viewBox="0 0 400 300"><path d="M56.38,123.78c-29.55,40.95,0,111,0,111H344.79C366,179.59,370.12,88.11,263.27,69.54,226.76,63.19,96.53,68.16,56.38,123.78Z" fill="#e6e6e6" opacity="0.3"/><circle cx="99.93" cy="88.32" r="20.29" fill="#ffd200"/><circle cx="99.93" cy="88.32" r="31.71" fill="#ffd200" opacity="0.15"/><path d="M355.57,136.63a5,5,0,0,0-1.65.29,8.37,8.37,0,1,0-16.35-2.52c0,.22,0,.44,0,.66a6.06,6.06,0,1,0-2.75,11.46h20.71a4.95,4.95,0,0,0,0-9.89Z" fill="#dddbdb" opacity="0.52"/><path d="M327,88.89a7.84,7.84,0,0,0-2.62.46,13.24,13.24,0,1,0-25.86-4c0,.35,0,.7.05,1a9.59,9.59,0,1,0-4.33,18.14H327a7.82,7.82,0,0,0,0-15.64Z" fill="#dddbdb" opacity="0.52"/><path d="M75.45,232s1-21.12,3.45-23.53,5.5-3.44,7.23-8.95.34-26.85,1.72-30,2.41-13.42,2.41-13.42-1.38-17.9,0-18.59,8.6-3.44,9.29,0,1,46.82,1.72,49.91,3.79,7.92,5.17,8.27,15.83,2.06,17.21-.35,3.78-14.18,4.13-30.84,3.1-12.46,3.79-17-4.14-10.31,2.75-11.72,26.85-1,32,0,9,2.73,13.09,2.39-.51-7.58,2.75-11.36,18.59-3.1,18.59-3.1,80.74,30.93,84.68,31.67,23.9-2.61,24.52-.1,8.88,7.39,8.88,7.39-2.76,15.84,0,15.12,15.49,4.78,15.83,6.85,0,37.87,0,37.87L314.36,232Z" fill="#ccc"/><path d="M340,232H84.31c.67-.47,18.41-13,22-18.35s2.29-14.23,7.8-18.82,22-18.82,22-18.82,2.29-56.46,6-64.27,6-10.09,6-10.09l2.3-8.72h17l1.85,50s5.5.08,6,4.63c.35,3.46-.63,15.45-.52,21h0c0,1.73.19,2.83.52,2.83,1.37,0,11-8.95,11-8.95s-1.83-66.33,0-69.54,7.35-6.89,8.27-8.72-.92-10.09,3.21-11a42.17,42.17,0,0,1,11.26-1,9.88,9.88,0,0,1,3.89,1c3.21,1.84,11.47,7.81,12.4,10.56s.07,9.08,0,9.6v0h14.68s-2.76-8.72,0-9.18c1-.17,5.85-.21,11.59-.2,4.11,0,8.69,0,12.62.09,5.51,0,9.76.11,9.76.11l3,29.74s0,0,0,.09l1.12,11,.64.09c1.8.32,6.86,1.41,7.62,4,.91,3.22,5,46.36,5,46.36s7.33,4.46,14.27,9.75c5.46,4.17,10.68,8.84,11.9,12.28,2.75,7.8,2.75,12.39,5.05,12.85s17,6,17.45,9.64A100.05,100.05,0,0,1,340,232Z" fill="#68e1fd"/><path d="M174.65,168.6h0c-.14.64-2.58,11-6.25,11s.69-15.84,0-24.44-9-7.54-9-7.54V93h7.91l1.85,50s5.5.08,6,4.63C175.52,151.07,174.54,163.06,174.65,168.6Z" opacity="0.2"/><path d="M232.43,154.45c-.34,2.07-4.13,6.89-7.58,8.27s0-19.62,0-24.1-6.19-9.64-9.61-11.7-.37-7.58,0-12.4-3.78-11.35-5.85-14.8c-1.39-2.32-.9-17.44-.44-27.49a9.88,9.88,0,0,1,3.89,1c3.21,1.84,11.47,7.81,12.4,10.56s.07,9.08,0,9.6v0a102.18,102.18,0,0,1,1,10.44c0,3.45,3.79,7.23,6.19,10.67S232.77,152.39,232.43,154.45Z" opacity="0.2"/><path d="M264.1,84.12v7c0,4.14-3.1,2.76-3.44,4.82S260,108,258.6,110.53s-5.52,9.16-6.89,9.5c-1,.25-.56-23.06-.23-36C255.59,84,260.17,84.08,264.1,84.12Z" opacity="0.2"/><path d="M305.56,185.32c-3.36.84-6.42,1.21-7.38.12-2.41-2.76-10.32-4.48-15.59-.69s-4.37,8.26-4,13.77-2.07,14.12-2.25,15.84-5.67,1.37-5.67-7.24-1.37-15.14,0-17.55,8.61-11.36,11.36-20.66c1.91-6.43-1.22-29.61-3.37-43.74,1.8.32,6.86,1.41,7.62,4,.91,3.22,5,46.36,5,46.36S298.62,180,305.56,185.32Z" opacity="0.2"/><path d="M340,232H84.31c.61-.18,20.33-6.29,24.56-7.52s31,.72,31,.72,3.76-2.15,5.91-8.24,13.67-7.35,13.67-7.35c-3.34,2.87-4,14.34-4,14.34s8.42-.72,13.26-.55,17.2-3.58,19.52-3.4,2.33-5,3.76-9.85,11.47-8.06,11.47-8.06S199.88,208,199,211.6s.18,10.21,1.25,12.19,6.45.71,10.57.71,37.62.18,37.62.18a94.25,94.25,0,0,0,1.44-9.5c.18-3.23-2.88-9.67-2.88-9.67s2.7-.18,7.17,3.59,1.61,13.61,2.87,15.22,16.3,2.69,19.53,2.33,40.12,1.08,43.16,0,15-4,12.36-6.27-9.56-9.93-9.56-9.93c2.29.46,17,6,17.45,9.64A100.05,100.05,0,0,1,340,232Z" opacity="0.05"/><path d="M70.12,199.2a3.8,3.8,0,0,0-3.8,3.79v7.24a2.27,2.27,0,0,1-2.27,2.27H62.3V191.84a4.7,4.7,0,1,0-9.39,0V206H51.52a2.27,2.27,0,0,1-2.27-2.27v-7.23a3.8,3.8,0,1,0-7.59,0v11.16a5.62,5.62,0,0,0,5.62,5.61h5.63v20.05H62.3v-13.5h6a5.62,5.62,0,0,0,5.62-5.61V203A3.79,3.79,0,0,0,70.12,199.2Z" fill="#e6e6e6"/><path d="M243.12,202a3.35,3.35,0,0,0-3.34,3.34v6.37a2,2,0,0,1-2,2h-1.54V195.55a4.14,4.14,0,1,0-8.27,0V208h-1.22a2,2,0,0,1-2-2v-6.36a3.34,3.34,0,1,0-6.68,0v9.83a4.94,4.94,0,0,0,4.94,4.94h5V232h8.27V220.15h5.28a5,5,0,0,0,4.94-5v-9.83A3.34,3.34,0,0,0,243.12,202Z" fill="#e6e6e6"/><path d="M338.68,199.26a2.47,2.47,0,0,1,2.47,2.46v4.71a1.47,1.47,0,0,0,1.47,1.47h1.14V194.47a3.06,3.06,0,1,1,6.11,0v9.17h.91a1.47,1.47,0,0,0,1.47-1.47v-4.71a2.47,2.47,0,0,1,4.93,0v7.26a3.64,3.64,0,0,1-3.65,3.65h-3.66V232h-6.11v-19.4h-3.89a3.64,3.64,0,0,1-3.65-3.65v-7.26A2.46,2.46,0,0,1,338.68,199.26Z" fill="#e6e6e6"/><rect x="39.49" y="232.03" width="320.8" height="11.37" rx="5.68" fill="#24285b"/></svg>