<svg id="Layer_1" data-name="Layer 1" xmlns="http://www.w3.org/2000/svg" viewBox="0 0 400 300"><title>_</title><path d="M122.08,82.6C95.6,92.89,76,119,72.08,150.53c-3.27,26.59,4.53,56,50.44,64.35,89.33,16.29,173,20.93,194.35-23S331.66,72.63,286.33,67.75C250.28,63.88,173.8,62.51,122.08,82.6Z" fill="#e6e6e6" opacity="0.3"/><path d="M161.7,99.8s-35.6,9.92-25.38,40.52l21-1.67Z" fill="#68e1fd"/><path d="M161.7,99.8s-35.6,9.92-25.38,40.52l21-1.67Z" fill="#fff" opacity="0.44"/><path d="M196.19,91.8l-15.78,2.76s-57,6.19-32.26,52.43,86,20.45,86,20.45S287,85.81,196.19,91.8Z" fill="#68e1fd"/><rect x="98.91" y="140.32" width="202.26" height="115.39" rx="11" fill="#e6e6e6"/><path d="M262.42,149.55s-6.28,8.63-12.72,6.1S233,125.83,232.35,107.57a34.91,34.91,0,0,1,7.86-.8C243.43,107,262.42,149.55,262.42,149.55Z" opacity="0.08"/><path d="M237.4,90.1a20,20,0,0,0-1.79-6.66,6.12,6.12,0,0,0-2.1-2.56c-3.07-1.95-8,0-9.5,3.13a7,7,0,0,0-.32,4.79,20.32,20.32,0,0,0,3.53,6.41,32.85,32.85,0,0,0,3.17,4.16.47.47,0,0,0,.3.18.52.52,0,0,0,.3-.14l6.69-5.34C237.63,92.77,237.55,91.43,237.4,90.1Z" fill="#f4a28c"/><path d="M234.31,89.09s45.42,47.86,33.2,60.06C247.62,169,227.22,95.21,227.22,95.21Z" fill="#f4a28c"/><path d="M136.32,140.32s11.83-8.39,16.66-2.2S147.07,153.55,136.32,140.32Z" fill="#f4a28c"/><polygon points="186.4 65.42 183.49 94.59 201.43 103.59 195.29 73.63 186.4 65.42" fill="#f4a28c"/><path d="M196.45,78.28A10.63,10.63,0,0,1,191,75.47s.55,5.34,6.74,10.28Z" fill="#ce8172" opacity="0.31"/><path d="M199.27,62.28s2.49,8.6,2.17,14.71a4.5,4.5,0,0,1-4.76,4.24c-3.07-.21-7.17-1.38-9.06-5.82l-4.14-7.15s-2.44-4.57,1.81-9.11S198,57,199.27,62.28Z" fill="#f4a28c"/><path d="M200.56,67.78l3.11,2.9a1.43,1.43,0,0,1-.44,2.38L200,74.35Z" fill="#f4a28c"/><path d="M184.53,77.46,180.5,66s-6.85-.62-5.17-5.2,4.62-1.87,4.32-7,3.73-6.43,6.88-3.82,1.47-1.25,5.07-2.09,4.7.72,5,3.48,5.33-.61,7,2.78,2.1,6.78-6.92,8.07S194.71,70.49,184.53,77.46Z" fill="#ffd200"/><path d="M191.43,71.64s-.74-3.36-3.22-2.6-1.46,5.63,2.08,5.4Z" fill="#f4a28c"/><path d="M170.86,170.16h5.45l7.11,10.45V170.16h5.5V189h-5.5l-7.07-10.36V189h-5.49Z" fill="#b3b3b3"/><path d="M192.78,170.16h15.64v4h-9.79v3h9.08v3.85h-9.08v3.72H208.7V189H192.78Z" fill="#b3b3b3"/><path d="M209.9,170.16h5.54l2,10.57,2.92-10.57h5.52l2.93,10.56,2-10.56h5.51L232.15,189h-5.72l-3.31-11.88L219.82,189H214.1Z" fill="#b3b3b3"/><path d="M138.36,213l5.12,1.54a9.56,9.56,0,0,1-1.63,3.6,7,7,0,0,1-2.75,2.17,10.21,10.21,0,0,1-4.17.74,12,12,0,0,1-5-.9,7.93,7.93,0,0,1-3.37-3.15,10.6,10.6,0,0,1-1.42-5.76q0-4.68,2.49-7.2a11.34,11.34,0,0,1,12.66-1.08,8.52,8.52,0,0,1,3,4.43l-5.15,1.15a4.3,4.3,0,0,0-.57-1.26,3.37,3.37,0,0,0-1.2-1,3.68,3.68,0,0,0-4.62,1.23,6.8,6.8,0,0,0-.8,3.72c0,2.09.32,3.53.95,4.3a3.76,3.76,0,0,0,5.21.23A5.78,5.78,0,0,0,138.36,213Z" fill="#b3b3b3"/><path d="M157.92,217.58h-6.63l-.92,3.11h-6l7.09-18.88h6.37L165,220.69h-6.11Zm-1.21-4.09-2.09-6.78-2.06,6.78Z" fill="#b3b3b3"/><path d="M166.76,201.81h7.67l3,11.49,2.94-11.49H188v18.88h-4.78V206.3l-3.68,14.39h-4.33l-3.67-14.39v14.39h-4.78Z" fill="#b3b3b3"/><path d="M191.69,201.81h9.7a6.67,6.67,0,0,1,4.75,1.51,5.66,5.66,0,0,1,1.57,4.29,5.85,5.85,0,0,1-1.71,4.47,7.48,7.48,0,0,1-5.25,1.61h-3.2v7h-5.86Zm5.86,8.05H199a3.67,3.67,0,0,0,2.37-.58,1.88,1.88,0,0,0,.69-1.5,2.07,2.07,0,0,0-.6-1.51,3.08,3.08,0,0,0-2.23-.62h-1.66Z" fill="#b3b3b3"/><path d="M220.13,217.58h-6.62l-.92,3.11h-6l7.1-18.88h6.36l7.1,18.88h-6.11Zm-1.21-4.09-2.08-6.78-2.06,6.78Z" fill="#b3b3b3"/><path d="M229.27,201.81h5.85v18.88h-5.85Z" fill="#b3b3b3"/><path d="M248.8,213.86v-3.93h9v8a18.69,18.69,0,0,1-4.58,2.4,15.66,15.66,0,0,1-4.72.64,11.54,11.54,0,0,1-5.48-1.15,7.84,7.84,0,0,1-3.28-3.41,11.2,11.2,0,0,1-1.17-5.21,10.83,10.83,0,0,1,1.28-5.37,8.21,8.21,0,0,1,3.73-3.47,12.15,12.15,0,0,1,5.17-.92,14.47,14.47,0,0,1,4.68.57,6,6,0,0,1,2.57,1.76,7.63,7.63,0,0,1,1.54,3l-5.62,1a3.08,3.08,0,0,0-1.18-1.63,3.68,3.68,0,0,0-2.12-.57,3.82,3.82,0,0,0-3.06,1.33,6.43,6.43,0,0,0-1.14,4.22c0,2,.38,3.5,1.15,4.38a4.07,4.07,0,0,0,3.22,1.31,6,6,0,0,0,1.86-.28,9.91,9.91,0,0,0,2-1v-1.77Z" fill="#b3b3b3"/><path d="M261.31,201.81h5.45l7.11,10.45V201.81h5.5v18.88h-5.5l-7.07-10.36v10.36h-5.49Z" fill="#b3b3b3"/><polygon points="263.95 78.09 211.16 80.2 208.35 70.41 254.28 44.29 263.95 78.09" fill="#24285b"/><rect x="224.87" y="75.48" width="5.3" height="19.4" transform="translate(-12.89 120.21) rotate(-28.81)" fill="#24285b"/><path d="M226.91,83a1.53,1.53,0,0,1,1.19.32,1.78,1.78,0,0,1,.07,2.16c-.39.67-1,1.22-1.34,1.92a3.45,3.45,0,0,1,.92,3c-.14.73-.72,1.51-1.45,1.4a1.69,1.69,0,0,1-.91-.58c-1.07-1.13-2.32-3.34-1.88-5C223.86,85,225.56,83.18,226.91,83Z" fill="#f4a28c"/></svg>