<svg id="Layer_1" data-name="Layer 1" xmlns="http://www.w3.org/2000/svg" viewBox="0 0 400 300"><title>#100_news presenter_twocolour</title><path d="M91.45,87.71c-30.1,19.72-47.93,55.92-45.1,93.71,1.45,19.32,8,38.08,25.77,48.14,47.53,27,254.64,26.78,282.87-20.36,29.08-48.55,19.09-116.14-47-144.54C250.65,40,169.17,36.79,91.45,87.71Z" fill="#e6e6e6" opacity="0.3"/><rect x="46.44" y="39.42" width="75.84" height="70.84" fill="#ffd200"/><rect x="53.91" y="47.36" width="60.97" height="54.94" opacity="0.08"/><polygon points="53.91 102.38 69.72 70.36 84.36 92.73 98.87 73.08 114.89 102.38 53.91 102.38" fill="#fff" opacity="0.57"/><path d="M163.36,115.18s-16.18,9.88-34,53.59c-10.43,25.65-39.8-53.59-39.8-53.59l-14.43,7.34s19.9,67.67,47.6,82.46,52.57-9.21,54-38.89S163.36,115.18,163.36,115.18Z" fill="#68e1fd"/><path d="M163.36,115.18s-16.18,9.88-34,53.59c-10.43,25.65-39.8-53.59-39.8-53.59l-14.43,7.34s19.9,67.67,47.6,82.46,52.57-9.21,54-38.89S163.36,115.18,163.36,115.18Z" fill="#fff" opacity="0.25"/><path d="M165.71,206.77s-43.47-91,15.68-98.14,89.63-6.34,94.11,28.62-22,69.52-22,69.52Z" fill="#68e1fd"/><polygon points="144.04 190.01 137.84 163.05 180.69 163.05 173.73 192.13 173.12 197.88 144.95 196.32 144.04 190.01" fill="#ffd200"/><circle cx="159.64" cy="175.82" r="3.72" fill="#fff"/><circle cx="205.15" cy="186.61" r="3.72" fill="#fff"/><rect x="76.14" y="202.18" width="263.63" height="62.46" fill="#c9c9c9"/><rect x="76.14" y="196.03" width="263.63" height="11.27" fill="#e6e6e6"/><path d="M313.42,185.84S304,183.28,302,174.55c0,0,14.52-2.93,14.93,12.06Z" fill="#68e1fd" opacity="0.58"/><path d="M314.57,184.91s-6.55-10.36-.79-20c0,0,11,7,6.14,20.06Z" fill="#68e1fd" opacity="0.73"/><path d="M316.25,184.92s3.47-10.94,13.92-13c0,0,2,7.1-6.77,13Z" fill="#68e1fd"/><polygon points="309.46 184.67 311.36 197.67 323.32 197.72 325.09 184.73 309.46 184.67" fill="#24285b"/><path d="M200.6,79.32s-.31,6.59,1,10.91a3.3,3.3,0,0,0,4.14,2.22c2.17-.68,4.9-2.22,5.49-5.73l1.73-5.84a5.93,5.93,0,0,0-2.86-6.22C206.25,72.14,200.58,75.29,200.6,79.32Z" fill="#f4a28c"/><polygon points="212.49 83.86 214.94 105.34 203 105.84 206.01 90.01 212.49 83.86" fill="#f4a28c"/><path d="M202.24,79.53a26.94,26.94,0,0,0,6.06-.72,5.5,5.5,0,0,0,.25,6A4.48,4.48,0,0,0,214,86.41l-.46-8.47a6.73,6.73,0,0,0-3.65-5.85A24.09,24.09,0,0,0,207,70.83c-2.48-.88-6,.89-8.24-.66a1.59,1.59,0,0,0-2.48,1.14c-.27,2.59.36,6.63,3.9,7.89A6,6,0,0,0,202.24,79.53Z" fill="#24285b"/><path d="M207.83,84.67s-.05-2.54,1.86-2.42,2,3.79-.56,4.24Z" fill="#f4a28c"/><path d="M241,132.5s-7,14.52,3.64,29.83-17.52,20.56-28.52,20.56S199,187.43,200,196h61l18-16.35,2.33-19.38-11-19.54Z" opacity="0.08"/><path d="M200.62,83.48l-1.73,2.62a1,1,0,0,0,.73,1.62l2.54.38Z" fill="#f4a28c"/><path d="M205.72,92.45l4.77-3.2s-.17,4-5.34,6.7Z" fill="#ce8172" opacity="0.31"/><rect x="293.75" y="44.99" width="59.25" height="32.09" fill="#24285b"/><path d="M304.86,55h2.23V65.15h6.28V67h-8.51Z" fill="#fff"/><path d="M315.14,55h2.23V67h-2.23Z" fill="#fff"/><path d="M331.5,55l-5.23,12h-2.2l-5.25-12h2.42l4,9.27,4-9.27Z" fill="#fff"/><path d="M341.78,65.17V67h-9V55h8.77V56.9H335V60h5.8v1.84H335v3.31Z" fill="#fff"/><path d="M80.91,101.1s8.09-3.89,10.84,9.15l-9-.2Z" opacity="0.08"/><path d="M194.52,107s5.27-4.28,9.19-4.87c3.21-.49,5.54-1.69,10.32-2.14,3.48-.32,6.27,3.85,10.14,3.73l-19,70.78Z" fill="#fff"/><polygon points="194.52 107.01 180.69 130.81 194.52 142.46 187.61 152.32 205.15 174.5 194.52 107.01" fill="#fff" opacity="0.25"/><polygon points="224.17 103.73 238.48 127.54 224.65 139.19 231.56 149.05 205.15 174.5 224.17 103.73" fill="#fff" opacity="0.25"/><polygon points="203 111.45 205.15 118.04 210.97 111.45 206.99 105.09 203 111.45" fill="#24285b"/><polygon points="204.34 115.55 200.88 147.39 205.15 174.5 212.63 147.36 207.83 113.11 204.34 115.55" fill="#24285b"/><path d="M180.7,163.05s-8.47,28.6-36.17,30.34l.42,2.93,28.37-.29.41-3.9Z" opacity="0.08"/><path d="M240.75,130.43c-1.23-14.12,15.38-22.53,26.16-13.33,11.37,9.71,25.3,25.49,30.44,47.39,9.25,39.42-15.5,31.72-73,31.44l-1.5-9.71s48.62.69,42.93-15.81C261.75,158.72,242.25,147.7,240.75,130.43Z" fill="#68e1fd"/><path d="M240.75,130.43c-1.23-14.12,15.38-22.53,26.16-13.33,11.37,9.71,25.3,25.49,30.44,47.39,9.25,39.42-15.5,31.72-73,31.44l-1.5-9.71s48.62.69,42.93-15.81C261.75,158.72,242.25,147.7,240.75,130.43Z" fill="#fff" opacity="0.25"/><path d="M223.48,190.32S208.91,185.76,208,196l16.4-.1Z" fill="#f4a28c"/><path d="M87.58,116.22S82.75,97.92,77.75,100s1.75,11.58,1.75,11.58-10,1.31-2.48,10Z" fill="#f4a28c"/><path d="M299.24,196S319.5,246.49,231,264.64H339.77V196Z" opacity="0.08"/><rect x="39.53" y="52.44" width="35.44" height="11.93" fill="#24285b"/><circle cx="85.11" cy="70.96" r="4.1" fill="#fff"/></svg>