<svg id="Layer_1" data-name="Layer 1" xmlns="http://www.w3.org/2000/svg" viewBox="0 0 400 300"><title>#117_online meeting_twocolour</title><rect x="60.66" y="31.01" width="280.05" height="228.5" fill="#e6e6e6"/><rect x="204.16" y="75.11" width="118.31" height="70.58" fill="#fff"/><circle cx="83.26" cy="48.74" r="5.38" fill="#24285b"/><circle cx="99.28" cy="48.74" r="5.38" fill="#68e1fd"/><circle cx="114.37" cy="48.74" r="5.38" fill="#ffd200"/><path d="M281.18,110.9s11.75.28,17.66,15,6.49,19.76,6.49,19.76H290.67Z" fill="#68e1fd"/><rect x="77.88" y="75.11" width="118.31" height="70.58" fill="#fff"/><path d="M123.48,123.42s-3.6-15.91,17.76-18,52.87-6,45.87,40.3H134.9Z" fill="#ffd200"/><path d="M123.48,123.42s-3.6-15.91,17.76-18,52.87-6,45.87,40.3H134.9Z" opacity="0.08"/><rect x="77.88" y="152.28" width="118.31" height="70.58" fill="#fff"/><rect x="204.16" y="152.28" width="118.31" height="70.58" fill="#fff"/><path d="M114.37,123.42s-3.6-15.91,17.77-18,52.86-6,45.86,40.3H125.79Z" fill="#ffd200"/><circle cx="200.69" cy="253.35" r="19" fill="#24285b"/><path d="M207.4,255.85a9.14,9.14,0,0,1-2.85-.45,1.29,1.29,0,0,0-1.27.26l-1.8,1.36a10,10,0,0,1-4.47-4.47l1.32-1.75a1.29,1.29,0,0,0,.32-1.31,9.21,9.21,0,0,1-.46-2.86,1.28,1.28,0,0,0-1.28-1.28H194a1.28,1.28,0,0,0-1.28,1.28,14.73,14.73,0,0,0,14.71,14.72,1.29,1.29,0,0,0,1.29-1.29v-2.93A1.29,1.29,0,0,0,207.4,255.85Z" fill="#fff"/><path d="M126.92,100.94a29.44,29.44,0,0,0-2.35,7.5,2.37,2.37,0,0,0,2.13,2.61,5.24,5.24,0,0,0,5.21-2.29l2.76-3.39a4.25,4.25,0,0,0-.19-4.91C132.64,97.74,128,98.27,126.92,100.94Z" fill="#f4a28c"/><polygon points="132.68 105.93 136.09 121.05 127.62 122.34 128.54 110.81 132.68 105.93" fill="#f4a28c"/><path d="M128,101.53a18.39,18.39,0,0,0,4.21,1.19,4,4,0,0,0-1.49,4.07,3.2,3.2,0,0,0,3.19,2.54l2-5.73a4.83,4.83,0,0,0-.81-4.88,18.32,18.32,0,0,0-1.56-1.63c-1.4-1.26-4.21-1-5.27-2.7a1.14,1.14,0,0,0-2,.07c-.9,1.65-1.59,4.49.41,6.3A4.35,4.35,0,0,0,128,101.53Z" fill="#24285b"/><path d="M130.24,106.48s.66-1.7,1.9-1.09.29,3.06-1.54,2.65Z" fill="#f4a28c"/><path d="M125.79,103.71,123.92,105a.76.76,0,0,0,0,1.28l1.58.94Z" fill="#f4a28c"/><path d="M121.22,168.7a29.57,29.57,0,0,0-.06,7.85,2.38,2.38,0,0,0,2.8,1.88,5.25,5.25,0,0,0,4.32-3.71l1.65-4.05a4.26,4.26,0,0,0-1.61-4.64C125.76,164,121.49,165.82,121.22,168.7Z" fill="#f4a28c"/><polygon points="127.85 171.81 135.95 185.03 128.34 188.98 125.5 177.78 127.85 171.81" fill="#f4a28c"/><path d="M126,173s.14-1.81,1.5-1.6,1.18,2.85-.69,3Z" fill="#f4a28c"/><path d="M121,171.67l-1.42,1.74a.77.77,0,0,0,.41,1.22l1.78.44Z" fill="#f4a28c"/><path d="M95.67,145.69s-.83-20,24.08-23.34,51.63-13,53,23.34Z" fill="#68e1fd"/><path d="M282.6,200.59s3.6-15.91-17.77-18-52.86-6-45.86,40.31h52.21Z" fill="#ffd200"/><path d="M151.6,125s-10.27,3.06-11.77,20.71h19Z" opacity="0.08"/><path d="M282.6,200.59s3.6-15.91-17.77-18-52.86-6-45.86,40.31h52.21Z" opacity="0.08"/><path d="M152.75,145.69s-7.14-17,1.18-23.35,20.07,6.53,18.82,23.35Z" fill="#68e1fd"/><path d="M152.75,145.69s-7.14-17,1.18-23.35,20.07,6.53,18.82,23.35Z" fill="#fff" opacity="0.46"/><path d="M293.22,200.59s3.6-15.91-17.76-18-52.87-6-45.87,40.31H281.8Z" fill="#ffd200"/><path d="M282.69,181.34a29.47,29.47,0,0,1-.68,7.83,2.37,2.37,0,0,1-3,1.6,5.23,5.23,0,0,1-3.95-4.1l-1.26-4.18a4.25,4.25,0,0,1,2-4.47C278.62,176.2,282.69,178.45,282.69,181.34Z" fill="#f4a28c"/><polygon points="274.92 183.1 271.51 198.23 279.98 199.51 279.06 187.99 274.92 183.1" fill="#f4a28c"/><path d="M282.68,184.32l1.25,1.87a.76.76,0,0,1-.51,1.17l-1.83.28Z" fill="#f4a28c"/><path d="M311.93,222.87s.82-20-24.09-23.35-51.62-13-53,23.35Z" fill="#68e1fd"/><path d="M256,202.16s10.26,3.05,11.76,20.71h-19Z" opacity="0.08"/><path d="M281.18,110.9s11.75.28,17.66,15,6.49,19.76,6.49,19.76H290.67Z" opacity="0.08"/><path d="M254.84,222.87s7.14-17-1.18-23.36-20.07,6.54-18.82,23.36Z" fill="#68e1fd"/><path d="M254.84,222.87s7.14-17-1.18-23.36-20.07,6.54-18.82,23.36Z" fill="#fff" opacity="0.46"/><rect x="155.68" y="81.18" width="34.33" height="9.67" fill="#68e1fd"/><rect x="155.68" y="160.51" width="34.33" height="9.67" fill="#68e1fd"/><rect x="211.43" y="81.18" width="34.33" height="9.67" fill="#68e1fd"/><rect x="211.43" y="160.51" width="34.33" height="9.67" fill="#68e1fd"/><path d="M273.84,187.87s3.31.11,2.5-3.75,7.53.39,8.36-4.19-2.5-6.33-6.46-5.17S269.76,177.75,273.84,187.87Z" fill="#24285b"/><path d="M277.51,185.2s0-1.82-1.33-1.74-1.44,2.72.41,3Z" fill="#f4a28c"/><polygon points="88.64 145.69 100.67 118.65 107.67 120.7 102.33 145.69 88.64 145.69" fill="#68e1fd"/><polygon points="88.64 145.69 100.67 118.65 107.67 120.7 102.33 145.69 88.64 145.69" fill="#fff" opacity="0.46"/><path d="M102.3,119.13s2-7.55,9-5-3.66,6.57-3.66,6.57Z" fill="#f4a28c"/><path d="M231.33,145.69s-8.29-17.89,4.9-28.08,41.44-14,50.27-2.44,6.17,30.52,6.17,30.52Z" fill="#68e1fd"/><polygon points="244.33 125.68 258.26 128.3 279.98 125.68 276.34 145.69 230.17 145.69 228.6 133.2 244.33 125.68" opacity="0.08"/><path d="M238.87,115.62c-7.66,3.95-23,14.11-23.53,23.8a6,6,0,0,0,6,6.27h35.78v-3.24l-24.63-4.33s18.35-4.06,16.08-17.76A6.69,6.69,0,0,0,238.87,115.62Z" fill="#68e1fd"/><path d="M146.57,190.87s14.43-9.33,27.43-.34,9.5,32.31,9.5,32.31l-41,0Z" fill="#ffd200"/><path d="M146.57,190.87s14.43-9.33,27.43-.34,9.5,32.31,9.5,32.31l-41,0Z" opacity="0.08"/><path d="M238.87,115.62c-7.66,3.95-23,14.11-23.53,23.8a6,6,0,0,0,6,6.27h35.78v-3.24l-24.63-4.33s18.35-4.06,16.08-17.76A6.69,6.69,0,0,0,238.87,115.62Z" fill="#fff" opacity="0.46"/><polygon points="252.16 141.74 247.32 124.98 274.3 123.5 270.92 142.05 270.74 145.69 252.95 145.68 252.16 141.74" fill="#ffd200"/><circle cx="261.49" cy="132.27" r="2.34" fill="#fff"/><path d="M129.54,186.07s-26.49,5.38-22.2,23.28c3,12.5-5.66,13.52-5.66,13.52H119Z" fill="#f4a28c"/><path d="M273,130.55s-4.54,12.87-20.68,12.09l.61,3h17.79l.18-3.64Z" opacity="0.08"/><path d="M255.45,108.25s-2.44,5.36.87,6.69,4-.81,4-.81,2.67,2.37,4.42,0,.87-6.5-1.48-8.12S255.45,108.25,255.45,108.25Z" fill="#fff"/><path d="M256.18,108.31a24.72,24.72,0,0,1,.66,2.7c.22,1.25.88,3.07,2.92,3.15,3.15.14,3.28-4.82,3.28-4.82s1.29-4.81-2.12-5C257.86,104.23,255,104.22,256.18,108.31Z" fill="#f4a28c"/><path d="M138.18,190.87s14.43-9.33,27.43-.34,9.5,32.31,9.5,32.31l-41,0Z" fill="#ffd200"/><path d="M262.88,109.56s0-1.5,1.26-1.61S265.31,110.65,262.88,109.56Z" fill="#f4a28c"/><path d="M113.18,222.84s-9.3-18.8,3.88-29,30.2-14.09,39-2.54,4.41,31.53,4.41,31.53Z" fill="#68e1fd"/><path d="M146.35,195.82S136.84,202,141.84,216l-29-5.43.34,12.26h25.9l16.1-2.66V209.33Z" opacity="0.08"/><path d="M257.11,109.54s.25-1.48-1-1.79S254.54,110.25,257.11,109.54Z" fill="#f4a28c"/><path d="M256.18,108.31s-5.07,0-3.36-4,2.58-1.3,3.23-4.28,1.52-3.65,3.23-2.66.57,3.73,2.8,2.7,3.72-1.93,4.43-.07.41,2.85-1,3.72,1.31,3.14-2.31,4.72-6.15-2.25-6.15-2.25Z" fill="#24285b"/><path d="M122.29,190.27s-1.47-5.38,7.25-7.88,10.59,1.86,10.59,1.86S130.19,192,122.29,190.27Z" fill="#68e1fd"/><path d="M122.29,190.27s-1.47-5.38,7.25-7.88,10.59,1.86,10.59,1.86S130.19,192,122.29,190.27Z" fill="#fff" opacity="0.46"/><path d="M119.32,167.53a4.94,4.94,0,0,0,3,1.69,3.43,3.43,0,0,1,2.75,2.46c1.36,5,5.34,16.17,14,16.46,11.18.37,12.18-3.74,10.18-7.74s-13.83-2.39-14.54-9.64c-.67-6.79-10.81-14.6-15.57-7.14A3.35,3.35,0,0,0,119.32,167.53Z" fill="#24285b"/><path d="M159.84,197.07c2.24,5.55,4.24,14,3.5,25.8l-25.66,0-21.92-10.33,1.44-4.66,31.71,9.07s-3.5-9.1-3.63-17C145.14,191.59,156.73,189.33,159.84,197.07Z" fill="#f4a28c"/><path d="M117.2,207.85s-8.91-3.67-10.55,0,9.11,4.66,9.11,4.66Z" fill="#f4a28c"/><polygon points="93.48 222.88 90.21 204.39 113.4 204.39 115.41 220.15 126.05 220.3 126.05 222.88 93.48 222.88" fill="#ffd200"/><circle cx="103.17" cy="212.9" r="2.32" fill="#fff"/></svg>