<svg id="Layer_1" data-name="Layer 1" xmlns="http://www.w3.org/2000/svg" viewBox="0 0 400 300"><path d="M117.29,57.9l-1-6a7.31,7.31,0,0,1,7.21-8.51H289.05a7.08,7.08,0,0,1,7,8.26l-1.38,8.2Z" fill="#68e1fd"/><path d="M182.65,167.6s-9.19,7.85-1.9,16.64,9.84,21.45,21.22,14.17,4.47-22.13,4.47-22.13Z" fill="#f4a28c"/><path d="M182.65,167.6s-9.19,7.85-1.9,16.64,9.84,21.45,21.22,14.17,4.47-22.13,4.47-22.13Z" opacity="0.09"/><path d="M131.56,134.33,117.29,57.9a5.72,5.72,0,0,1,5.62-6.77H287.3a7.45,7.45,0,0,1,7.35,8.67L282,135.7Z" fill="#24285b"/><polygon points="130.12 62.35 140.19 123.83 271.35 123.83 280.56 62.35 130.12 62.35" fill="#fff"/><path d="M131.56,134.33,126.81,214a11.33,11.33,0,0,0,11.31,12H274.38a13.22,13.22,0,0,0,13.19-14.19L282,135.7Z" fill="#e6e6e6"/><polygon points="144.21 145.22 139.61 191.22 274.52 191.22 269.63 145.22 144.21 145.22" fill="#fff" opacity="0.5"/><path d="M177.21,102.87H165.43l-23.75,81.22,38.55,7.13s-5.36,23.44,6.39,34.8h23.23l5.86-39.45Z" opacity="0.09"/><rect x="152.36" y="102.29" width="99.2" height="64.09" transform="translate(383.89 -26.1) rotate(104.96)" fill="#ffd200"/><rect x="190.79" y="151.02" width="44.41" height="10.59" transform="matrix(-0.26, 0.97, -0.97, -0.26, 419.01, -9.11)" fill="#fff"/><rect x="182.62" y="97.58" width="23.71" height="10.59" rx="3.82" transform="matrix(-0.26, 0.97, -0.97, -0.26, 344.07, -58.44)" fill="#fff" opacity="0.46"/><rect x="157.1" y="139.92" width="52.1" height="10.59" rx="3.82" transform="translate(370.74 5.77) rotate(104.96)" fill="#fff" opacity="0.46"/><circle cx="225.51" cy="107.48" r="7.01" fill="#fff" opacity="0.3"/><path d="M191.84,164.45s-9.5,1.73-7,16.65l11.17,3Z" opacity="0.09"/><circle cx="223.5" cy="116.82" r="7.01" fill="#fff" opacity="0.3"/><path d="M200,240.51l.58-14.38s-9.46-7.37-6.65-27.56-5.73-20.31-2.6-32.62,16.27-2.77,19.47,11.74,15.23-7,15.23-7,13.7,5.64,9.18,33.41-2.95,36.39-2.95,36.39Z" fill="#f4a28c"/><rect x="152.4" y="73.72" width="106.47" height="29.15" fill="#fff"/><polygon points="257.08 102.87 154.19 102.87 152.4 98.75 258.87 98.75 257.08 102.87" fill="#e6e6e6"/><polygon points="193.23 232.27 236.16 229.47 240.75 272.36 190.67 272.36 193.23 232.27" fill="#68e1fd"/><polygon points="177.21 102.87 174.64 112.47 241.69 109.81 243.54 102.87 177.21 102.87" opacity="0.09"/><polygon points="175.8 76.28 178.62 86.49 229.62 86.49 233.27 76.28 175.8 76.28" fill="#68e1fd"/></svg>