<svg id="Layer_1" data-name="Layer 1" xmlns="http://www.w3.org/2000/svg" viewBox="0 0 400 300"><title>_</title><rect x="88.43" y="98.62" width="219.41" height="123.21" fill="#e6e6e6"/><rect x="88.43" y="78.03" width="219.41" height="20.59" fill="#c9c9c9"/><rect x="243.55" y="112.71" width="48.31" height="28.61" opacity="0.08"/><rect x="243.55" y="146.02" width="48.31" height="28.61" opacity="0.08"/><rect x="243.55" y="179.34" width="48.31" height="28.61" opacity="0.08"/><rect x="107.27" y="112.05" width="124.62" height="95.41" fill="#68e1fd"/><rect x="107.27" y="197.58" width="124.62" height="9.88" fill="#24285b"/><rect x="113.65" y="201.87" width="111.86" height="1.31" fill="#fff" opacity="0.46"/><circle cx="139.45" cy="202.52" r="3.8" fill="#ffd200"/><polygon points="156.78 181.95 156.78 133.24 193.75 157.59 156.78 181.95" fill="#fff" opacity="0.44"/><circle cx="101.55" cy="88.7" r="3.25" fill="#24285b"/><circle cx="112.37" cy="88.7" r="3.25" fill="#ffd200"/><circle cx="123.19" cy="88.7" r="3.25" fill="#68e1fd"/><path d="M307.84,78v51.68A38.92,38.92,0,0,1,251.41,78Z" opacity="0.08"/><rect x="250.21" y="151.66" width="57.64" height="70.07" opacity="0.08"/><rect x="259.06" y="155.49" width="81.51" height="74.3" fill="#f4f4f4"/><path d="M289.27,178.76H279a7.31,7.31,0,0,0-7.32,7.31v6.74a7.32,7.32,0,0,0,7.32,7.32h1l3.44,16.15,5.47-1.16-3.19-15h3.58l32.35,8.34V170.42Z" fill="#68e1fd"/><rect x="323.36" y="169" width="4.63" height="40.89" rx="1.8" fill="#68e1fd"/><rect x="278.5" y="181.97" width="10.3" height="2.61" opacity="0.08"/><rect x="88.43" y="182.13" width="59.68" height="39.46" opacity="0.08"/><rect x="74.38" y="185.31" width="69.5" height="48.19" fill="#f4f4f4"/><rect x="90.81" y="213.11" width="7.82" height="10" fill="#c1c1c1"/><rect x="105.43" y="205.41" width="7.82" height="17.7" fill="#ffd200"/><rect x="119.77" y="197.57" width="7.82" height="25.54" fill="#68e1fd"/><path d="M328.51,95.48a39.27,39.27,0,0,1-.26,4.5,39,39,0,1,1,.25-5.19C328.51,95,328.51,95.25,328.51,95.48Z" fill="#e6e6e6"/><circle cx="289.59" cy="95.48" r="27.48" fill="#68e1fd"/><circle cx="289.59" cy="95.48" r="16.75" fill="#e6e6e6"/><circle cx="289.59" cy="95.48" r="8.08" fill="#68e1fd"/><polygon points="331.16 71.14 318.7 77.26 319.31 69.82 331.77 63.7 331.16 71.14" fill="#ffd200"/><polygon points="332.66 74.19 320.2 80.31 326.46 84.38 338.92 78.25 332.66 74.19" fill="#ffd200"/><rect x="286.24" y="81.08" width="50.17" height="3.4" transform="translate(-4.59 145.81) rotate(-26.17)" fill="#24285b"/><rect x="286.24" y="81.08" width="50.17" height="3.4" transform="translate(-4.59 145.81) rotate(-26.17)" fill="#fff" opacity="0.27"/><rect x="88.43" y="109" width="44.46" height="35.83" opacity="0.08"/><rect x="77.87" y="105.4" width="51.69" height="35.83" fill="#f4f4f4"/><path d="M109.17,134.3a13,13,0,0,1-6.34,1.42C97,135.72,92,131.44,92,124.6c0-7.35,5.1-13.7,13-13.7,6.2,0,10.37,4.35,10.37,10.31,0,5.35-3,8.49-6.34,8.49-1.43,0-2.75-1-2.64-3.14h-.15a5.59,5.59,0,0,1-5,3.14c-2.07,0-3.86-1.68-3.86-4.5a8.43,8.43,0,0,1,8.46-8.45,9.32,9.32,0,0,1,3.81.75L108.46,124c-.53,2.71-.11,4,1.07,4,1.82,0,3.85-2.39,3.85-6.53,0-5.17-3.1-8.88-8.63-8.88-5.81,0-10.7,4.6-10.7,11.84,0,6,3.89,9.63,9.17,9.63a11.11,11.11,0,0,0,5.38-1.25Zm-2-15.41a6,6,0,0,0-1.78-.25c-3.14,0-5.67,3-5.67,6.42,0,1.57.78,2.71,2.35,2.71,2.07,0,4-2.64,4.35-4.85Z" fill="#c1c1c1"/></svg>