<svg id="Layer_1" data-name="Layer 1" xmlns="http://www.w3.org/2000/svg" viewBox="0 0 400 300"><path d="M260.51,194.77V136.84L234,142.61V180L207.81,162.8H181.24v28.54H155v33.79H146.3V161s-10.57-4.88-11-24.69c-.38,19.81-11,24.69-11,24.69V251.7H234v.5h52.29V191.84Z" fill="#dddbdb" opacity="0.18"/><path d="M101.68,251.28s-5.48-16.37,6-24.84,10.32,14.81,21.44,4.76,10.52-13.51,21.84,0,11.72-9.52,26.51,1.06,22-3.17,31.72-2.64,17.22,21.66,17.22,21.66Z" fill="#e6e6e6" opacity="0.37"/><path d="M308.79,251.28s5.48-16.37-6-24.84-10.32,14.81-21.44,4.76-10.52-13.51-21.84,0-11.71-9.52-26.51,1.06-22-3.17-31.71-2.64S184,251.28,184,251.28Z" fill="#e6e6e6"/><circle cx="133.34" cy="64.48" r="19.58" fill="#ffd200"/><circle cx="133.34" cy="64.48" r="30.61" fill="#ffd200" opacity="0.15"/><path d="M97.82,136.72a5.24,5.24,0,0,0-1.73.3,8.64,8.64,0,0,0,.41-2.65,8.77,8.77,0,1,0-17.54,0c0,.23,0,.46,0,.69a6.35,6.35,0,1,0-2.87,12H97.82a5.18,5.18,0,1,0,0-10.35Z" fill="#dddbdb"/><path d="M315.36,165.94a5,5,0,0,0-1.74.31,8.64,8.64,0,0,0,.41-2.65,8.77,8.77,0,0,0-17.54,0c0,.23,0,.46,0,.69a6.35,6.35,0,1,0-2.87,12h21.7a5.18,5.18,0,0,0,0-10.36Z" fill="#dddbdb" opacity="0.52"/><path d="M281,67.66a6.77,6.77,0,0,0-2.31.44,11.16,11.16,0,0,0,.48-3.53,11.68,11.68,0,1,0-23.35.44c0,.31,0,.62.07.92a8.55,8.55,0,0,0-3.85-.85A8.46,8.46,0,0,0,252.37,82l28.89-.54A6.9,6.9,0,0,0,281,67.66Z" fill="#dddbdb" opacity="0.33"/><rect x="86.39" y="251.5" width="236.64" height="10.1" rx="4.76" fill="#24285b"/><path d="M209,73.68h-9.93s6.8,109.2-40.48,168h14.57a31.46,31.46,0,0,1,61.9,0h15.24S203,186.85,209,73.68ZM192.1,199c4.37-10.52,7.15-33.36,7.15-33.36h8.34c1.59,13.11,6.95,33.36,6.95,33.36Z" fill="#68e1fd"/><rect x="177.51" y="195.2" width="53.31" height="5.36" rx="2.3" fill="#68e1fd"/><rect x="177.51" y="195.2" width="53.31" height="5.36" rx="2.3" fill="#fff" opacity="0.44"/><rect x="187.14" y="160.24" width="33.55" height="5.36" rx="2.3" fill="#68e1fd"/><rect x="187.14" y="160.24" width="33.55" height="5.36" rx="2.3" fill="#fff" opacity="0.44"/><path d="M195.08,63.75h17.33a0,0,0,0,1,0,0V74.44a6.64,6.64,0,0,1-6.64,6.64h-4.05a6.64,6.64,0,0,1-6.64-6.64V63.75A0,0,0,0,1,195.08,63.75Z" fill="#68e1fd"/><path d="M195.08,63.75h17.33a0,0,0,0,1,0,0V74.44a6.64,6.64,0,0,1-6.64,6.64h-4.05a6.64,6.64,0,0,1-6.64-6.64V63.75A0,0,0,0,1,195.08,63.75Z" fill="#fff" opacity="0.44"/><rect x="198.21" y="56.42" width="11.02" height="7.34" fill="#68e1fd"/><rect x="202.53" y="30.51" width="2.53" height="25.91" fill="#68e1fd"/><rect x="202.53" y="30.51" width="2.53" height="25.91" fill="#fff" opacity="0.44"/><rect x="145.51" y="240.41" width="118.47" height="10.87" fill="#ffd200"/></svg>