<svg id="Layer_1" data-name="Layer 1" xmlns="http://www.w3.org/2000/svg" viewBox="0 0 400 300"><path d="M72.46,232.16l-5.11,3,5.43,8.62a1.75,1.75,0,0,0,3.22-.79C76.25,239.64,75.8,235.24,72.46,232.16Z" fill="#68e1fd"/><path d="M77.08,177.72l5.48,24.22a22.44,22.44,0,0,1-4.17,18.72l-8.46,10.88,5.1,5,16.69-16.82A22.11,22.11,0,0,0,98.05,206l2.52-29.85Z" fill="#24285b"/><path d="M119.52,106.22l13.14,26.85a10.46,10.46,0,0,0,16.88,2.71L161,124.72l5.77,6.72s-11.11,17-25.41,24.31-36.92-31.83-36.92-31.83Z" fill="#68e1fd"/><path d="M119.52,106.22l13.14,26.85a10.46,10.46,0,0,0,16.88,2.71L161,124.72l5.77,6.72s-11.11,17-25.41,24.31-36.92-31.83-36.92-31.83Z" opacity="0.09"/><ellipse cx="198.84" cy="244.82" rx="152.11" ry="16.26" fill="#e6e6e6" opacity="0.3"/><rect x="187.03" y="113.72" width="3.06" height="11.73" fill="#24285b"/><path d="M188.56,112.66a3.38,3.38,0,0,1-.3-4.73S190.9,110.36,188.56,112.66Z" fill="#ffd200"/><rect x="195.26" y="113.72" width="3.06" height="11.73" fill="#24285b"/><path d="M196.79,112.66a3.38,3.38,0,0,1-.29-4.73S199.13,110.36,196.79,112.66Z" fill="#ffd200"/><rect x="203.65" y="113.72" width="3.06" height="11.73" fill="#24285b"/><path d="M205.18,112.66a3.38,3.38,0,0,1-.3-4.73S207.52,110.36,205.18,112.66Z" fill="#ffd200"/><path d="M284,81.59s-1.85,5.55-1.79,9.54a2.93,2.93,0,0,0,3,2.89,6.46,6.46,0,0,0,6.07-3.57l2.89-4.56a5.26,5.26,0,0,0-.95-6C290.58,76.83,285,78.15,284,81.59Z" fill="#f4a28c"/><polygon points="293.66 86.72 292.2 105.83 281.73 104.27 287 90.99 293.66 86.72" fill="#f4a28c"/><path d="M288.91,87.9s.56-2.18,2.17-1.62.81,3.72-1.5,3.48Z" fill="#f4a28c"/><polygon points="272.94 170 265.68 235.67 272.94 235.67 290.63 179.44 272.94 170" fill="#24285b"/><path d="M283,85.14,280.94,87a.93.93,0,0,0,.23,1.56l2.07.93Z" fill="#f4a28c"/><path d="M281.73,104.27s-16.27-.79-16.92-21.84,23.67-31.68,23.67-31.68,11.27-.66,7.36-7.38-12.6,2-12.6,2-35.14,8.25-34.49,38,16.49,42.32,16.49,42.32Z" fill="#f4a28c"/><path d="M285.72,93.85a7,7,0,0,0,3.8-1.19s-1,3.37-5.51,5.84Z" fill="#ce8172" opacity="0.31"/><path d="M112.35,71.11s0,5.85-1.32,9.62a3,3,0,0,1-3.76,1.8,6.49,6.49,0,0,1-4.63-5.31L101.35,72a5.23,5.23,0,0,1,2.79-5.38C107.64,64.52,112.53,67.55,112.35,71.11Z" fill="#f4a28c"/><polygon points="101.58 72.93 96.93 91.52 107.36 93.35 106.56 79.09 101.58 72.93" fill="#f4a28c"/><path d="M112.16,74.79l1.42,2.39a.93.93,0,0,1-.71,1.41l-2.26.23Z" fill="#f4a28c"/><path d="M106.87,82.21a7,7,0,0,1-3.24-2.34s-.15,3.51,3.38,7.29Z" fill="#ce8172" opacity="0.31"/><path d="M266.68,109.77S241,127.68,254,144.28,272.94,170,272.94,170l31.18-3.26s3.58-24.09,11.06-36.78,1.31-22.14-6.51-24.09S289.79,97.4,266.68,109.77Z" fill="#68e1fd"/><path d="M290.42,102.41s-14.46,12.91-7.18,27,6.28,38.89,6.28,38.89l14.6-1.52s3.92-22.52,8.37-31.4c0,0,4.18-7.63,5.41-11.65s-12.63-21.28-12.63-21.28Z" opacity="0.09"/><path d="M306.41,131.69c-12,5-20.41-12.25-9.29-19a67.46,67.46,0,0,1,9.79-5c11.94-4.78,29.3-31.69,18.88-49.7,0,0-5.86-10.78.87-12.55s5,12.12,5,12.12S349,85.84,333.39,106C324.92,116.94,315.53,127.86,306.41,131.69Z" fill="#f4a28c"/><path d="M304.12,166.74s3.22,9.17-1.12,14.19-28.79,17.82-28.79,17.82L303,203.52l-1.52,6.73s-32.55,2.39-38.62-6.94,17.75-28.43,17.75-28.43L272.94,170Z" fill="#24285b"/><path d="M288.91,84.22s-4,20.35,9.16,22.62,17.53-3.5,20.5-8.34-22.29,1.24-20.34-13.36-10.61-13.94-14.66-9.71S288.91,84.22,288.91,84.22Z" fill="#ffd200"/><polygon points="289.52 72.01 298.88 83.21 308.32 63.98 289.52 72.01" fill="#24285b"/><path d="M268,235.67s-6.51,11.15-2.28,11.47,7.26-11.47,7.26-11.47Z" fill="#68e1fd"/><path d="M301,210.32s3.86,9.47,7.13,6.77-5.39-12.51-5.39-12.51Z" fill="#68e1fd"/><rect x="162.86" y="158.5" width="67.91" height="89.44" fill="#e6e6e6"/><rect x="178.2" y="125.62" width="37.24" height="26.25" fill="#68e1fd"/><rect x="178.2" y="125.62" width="37.24" height="26.25" fill="#fff" opacity="0.45"/><polygon points="172.06 158.5 168.74 151.87 226.18 151.87 222.1 158.5 172.06 158.5" fill="#878787"/><path d="M177.08,126.67v8.47a2.86,2.86,0,0,0,3.87,2.71,8.14,8.14,0,0,0,3.62-3.34c3.4-5.38,6.63-3.11,7.49.86s7.14,3.18,9.19,0,4.93-5.22,7.66-1.64a10.67,10.67,0,0,0,4.41,3.26,2.36,2.36,0,0,0,3.25-2.19v-9a1.9,1.9,0,0,0-1.94-1.89l-35.67.84A1.93,1.93,0,0,0,177.08,126.67Z" fill="#68e1fd"/><path d="M177.08,126.67v8.47a2.86,2.86,0,0,0,3.87,2.71,8.14,8.14,0,0,0,3.62-3.34c3.4-5.38,6.63-3.11,7.49.86s7.14,3.18,9.19,0,4.93-5.22,7.66-1.64a10.67,10.67,0,0,0,4.41,3.26,2.36,2.36,0,0,0,3.25-2.19v-9a1.9,1.9,0,0,0-1.94-1.89l-35.67.84A1.93,1.93,0,0,0,177.08,126.67Z" fill="#68e1fd"/><path d="M100.11,78.82h3.52s4.08-3.48,3.38-8.19c0,0,3.79,2.67,6.71,0s.82-7.55-3.11-8.81S95.34,59.79,100.11,78.82Z" fill="#ffd200"/><polygon points="108.58 61.49 99.22 72.69 89.78 53.46 108.58 61.49" fill="#24285b"/><path d="M73,155.25s-6.13,19.81,5.45,24.2,36.64,63.05,36.64,63.05l8.29-3.18s-16-51.07-14.79-71.49Z" fill="#24285b"/><path d="M96.93,91.52l10.43,1.83s19.9,7.73,22,26.79-20.73,47.69-20.73,47.69L74.46,156.34S60.13,94.22,96.93,91.52Z" fill="#68e1fd"/><path d="M98.53,110.72A12.13,12.13,0,0,0,81.07,96.56a35.94,35.94,0,0,0-16.78,19.16c-8.51,22.46-12.48,52.11,10.95,48.86s36.92-14.87,36.92-14.87l-3.58-8.46s-30.9,14.64-33.34,5.45C73.42,139.85,93.47,127.71,98.53,110.72Z" fill="#68e1fd"/><path d="M98.53,110.72A12.13,12.13,0,0,0,81.07,96.56a35.94,35.94,0,0,0-16.78,19.16c-8.51,22.46-12.48,52.11,10.95,48.86s36.92-14.87,36.92-14.87l-3.58-8.46s-30.9,14.64-33.34,5.45C73.42,139.85,93.47,127.71,98.53,110.72Z" fill="#fff" opacity="0.29"/><path d="M109.36,143.11s9.9-3.22,10.93,2.22-8.13,4.38-8.13,4.38Z" fill="#f4a28c"/><path d="M162.6,126.55s3.18-6.26,8.15-4.81-4.45,9.12-4.45,9.12Z" fill="#f4a28c"/><path d="M117.31,241.64l2.83,5.18,8.75-5.22a1.75,1.75,0,0,0-.71-3.24C124.88,238,120.47,238.38,117.31,241.64Z" fill="#68e1fd"/></svg>