<svg id="Layer_1" data-name="Layer 1" xmlns="http://www.w3.org/2000/svg" viewBox="0 0 400 300"><title>_</title><polygon points="187.79 177.35 179.7 228.77 233.68 228.77 221.26 177.35 187.79 177.35" fill="#24285b"/><ellipse cx="205.34" cy="237.23" rx="105.09" ry="8.04" fill="#e6e6e6" opacity="0.45"/><rect x="167.38" y="219.76" width="75.91" height="16.52" fill="#24285b"/><rect x="97.36" y="54.73" width="213.07" height="138.44" fill="#68e1fd"/><rect x="97.36" y="161.54" width="213.07" height="31.62" opacity="0.08"/><circle cx="205.08" cy="175.47" r="8.56" opacity="0.08"/><circle cx="114.68" cy="68.54" r="3.73" fill="#24285b"/><circle cx="125.77" cy="68.54" r="3.73" fill="#fff"/><circle cx="136.23" cy="68.54" r="3.73" fill="#ffd200"/><path d="M275,223.89s-10.1-2.76-12.3-12.16c0,0,15.66-3.16,16.1,13Z" fill="#68e1fd" opacity="0.58"/><path d="M276.27,222.89s-7.06-11.16-.85-21.59c0,0,11.91,7.56,6.62,21.61Z" fill="#68e1fd" opacity="0.73"/><path d="M278.09,222.9s3.73-11.79,15-14c0,0,2.11,7.65-7.3,14.05Z" fill="#68e1fd"/><polygon points="270.76 222.63 272.81 236.64 285.71 236.7 287.61 222.7 270.76 222.63" fill="#24285b"/><path d="M201.16,80.37c4.37.12,8.76.12,13.12.41a18.15,18.15,0,0,1,10.54,4,11,11,0,0,1,4.1,8.16,25.14,25.14,0,0,1-5.24,17.3c-3,3.87-7.24,5.81-12,6.73a50.13,50.13,0,0,1-10.81.51,20.6,20.6,0,0,0-3,.19,3.71,3.71,0,0,0-3.44,3.35c-.52,3-1,6-1.5,9q-.91,5.61-1.78,11.24c-.09.6-.31.81-.92.81-3.59,0-7.18,0-10.77,0a1.88,1.88,0,0,1-2-2.42q2.19-13.87,4.36-27.75l4.47-28.36a3.13,3.13,0,0,1,3.54-3c3.8,0,7.59,0,11.38,0Z" fill="#fff"/><path d="M231.65,99.09a9.42,9.42,0,0,1,3.89,5.74c1,4,.34,8-.84,11.81a18.82,18.82,0,0,1-6.66,9.9,19.86,19.86,0,0,1-9.81,3.71c-1.94.22-3.9.25-5.86.31-1.7.05-2.54.55-2.92,2.21-.46,2-.76,4.1-1.09,6.16-.44,2.74-.85,5.48-1.28,8.22a2.83,2.83,0,0,1-3.14,2.67c-2.9,0-5.8,0-8.71,0-1.83,0-2.42-.72-2.12-2.54.55-3.44,1.09-6.88,1.64-10.32q1.2-7.47,2.41-14.92c.2-1.18.66-1.54,1.85-1.57,3.46-.09,6.94,0,10.38-.32,5.73-.5,11-2.33,15.18-6.5A24.88,24.88,0,0,0,231,101.6c.2-.79.37-1.58.56-2.37C231.52,99.21,231.55,99.19,231.65,99.09Z" fill="#fff"/><rect x="97.36" y="118.29" width="70.02" height="57.52" opacity="0.08"/><rect x="261.31" y="109.12" width="49.12" height="59.74" opacity="0.08"/><rect x="71.1" y="124.12" width="89.61" height="58.57" fill="#ffd200"/><rect x="80.35" y="164.03" width="15.64" height="5.11" fill="#fff" opacity="0.2"/><rect x="98.84" y="164.03" width="15.64" height="5.11" fill="#fff" opacity="0.2"/><rect x="117.33" y="164.03" width="15.64" height="5.11" fill="#fff" opacity="0.2"/><rect x="135.82" y="164.03" width="15.64" height="5.11" fill="#fff" opacity="0.2"/><rect x="80.35" y="137.68" width="21.35" height="13.71" rx="5.71" fill="#fff" opacity="0.2"/><circle cx="135.67" cy="144.97" r="6.38" fill="#fff" opacity="0.2"/><circle cx="144.54" cy="144.97" r="6.38" fill="#fff" opacity="0.2"/><rect x="267.23" y="124.45" width="61.67" height="51.01" fill="#e6e6e6"/><rect x="267.23" y="113.71" width="61.67" height="10.74" fill="#ccc"/><circle cx="292.14" cy="161.64" r="2.72" fill="#c9c9c9"/><circle cx="306.44" cy="161.64" r="2.72" fill="#c9c9c9"/><polygon points="286.5 144 284.59 138.04 278.14 138 278.14 139.7 282.74 139.7 284.43 144.9 288.55 158.13 310.03 158.13 314.44 144 286.5 144" fill="#c9c9c9"/></svg>