<svg id="Layer_1" data-name="Layer 1" xmlns="http://www.w3.org/2000/svg" viewBox="0 0 400 300"><ellipse cx="204.23" cy="234.26" rx="117.19" ry="29.34" fill="#e6e6e6" opacity="0.3"/><path d="M228.69,124.6c.76-1.7-9.77-15.26-14.67-35.6s-20.28-32.2-49.6-24.29S162.22,90.13,134,124.6s-23.16,109.6,54.8,98.87S228.69,124.6,228.69,124.6Z" fill="#ffd200"/><path d="M186.53,164.65c-7.1,16.55-14.9,44.73.42,65.12a33.44,33.44,0,0,0,30.12,13h0a26.43,26.43,0,0,1,12,1.53c6.65,2.53,19.8,5.36,36.12-2.26,23.79-11.1,32.91-36.87,25.37-56.3s-19.82-44.41-25.37-68.2-29.74-25.77-40-17.84c-9,6.94-13.79,33.91-25.47,45.86A63.33,63.33,0,0,0,186.53,164.65Z" fill="#ffd200"/><path d="M157.94,222.81s4.74-49.53,30.14-77.4S220,106.56,220,106.56l-4.26,40-32.4,77.54S173.27,226.2,157.94,222.81Z" opacity="0.05"/><path d="M227.19,101.72c3.3-.79,7-.23,8.62,5.12,0,0,10.36-9.52,17.1,0s4.37,33.3,17,61.06,20.62,55.51-18.23,70.18a38.36,38.36,0,0,1-19.24.2,38.09,38.09,0,0,0-16.38-.91c-6,1-15,.53-25.71-6.19,0,0-17.58-13.9-11.62-47.18a88.14,88.14,0,0,1,13.74-33.43c6.3-9.41,16.59-25.24,26.57-42.61A12.91,12.91,0,0,1,227.19,101.72Z" fill="#ffd200"/><path d="M227.19,101.72c3.3-.79,7-.23,8.62,5.12,0,0,10.36-9.52,17.1,0s4.37,33.3,17,61.06,20.62,55.51-18.23,70.18a38.36,38.36,0,0,1-19.24.2,38.09,38.09,0,0,0-16.38-.91c-6,1-15,.53-25.71-6.19,0,0-17.58-13.9-11.62-47.18a88.14,88.14,0,0,1,13.74-33.43c6.3-9.41,16.59-25.24,26.57-42.61A12.91,12.91,0,0,1,227.19,101.72Z" fill="#fff" opacity="0.64"/><path d="M226.1,154.8s-8.57,18.35-17.49,26.08-7.44,24.69,2.08,30.93,13.14,20.52,13.14,20.52S229.48,219,239,214.19s13.65-20.22,6.51-31.52S231.4,175.71,226.1,154.8Z" fill="#fff" opacity="0.38"/><path d="M224.92,237S215.15,106.84,254.1,81" fill="none" stroke="#24285b" stroke-linecap="round" stroke-miterlimit="10" stroke-width="3"/><path d="M232.5,191.9c-.58,1.28-1.21,2.54-1.83,3.8-1,2.06-2.1,5.69,2,7,5.87,1.91,7.06-6.76,5.39-14.09C236.87,183.38,234,188.56,232.5,191.9Z" fill="#24285b"/><path d="M216.15,191.28c.36,1.36.77,2.7,1.17,4.05.65,2.2,1.1,6-3.17,6.59-6.11.9-5.82-7.85-2.94-14.79C213.28,182.14,215.22,187.73,216.15,191.28Z" fill="#24285b"/><path d="M179.24,67.35s-14.58-1.29-17.34,5.08c-1.48,3.41,3.61,7,17.34,5.09s19-4.84,19-4.84S192.06,67.72,179.24,67.35Z" opacity="0.05"/><path d="M178.12,71.87s1.83-31.08-26-40.49" fill="none" stroke="#24285b" stroke-linecap="round" stroke-miterlimit="10" stroke-width="3"/><path d="M172.52,48.23S117.08,31.75,102,93.15C102,93.15,167.32,111.41,172.52,48.23Z" fill="#68e1fd"/><path d="M109.4,89.44s19.37-36.29,63.12-41.21l-.87,7S133.26,59.6,109.4,89.44Z" fill="#fff" opacity="0.19"/></svg>