<svg id="Layer_1" data-name="Layer 1" xmlns="http://www.w3.org/2000/svg" viewBox="0 0 400 300"><title>_</title><path d="M82.23,249.23s-20.81-44.76-16-110.45c4.55-61.71,81.27-108.82,164.19-94s138,56.89,94.73,204.15Z" fill="#dddbdb" opacity="0.18"/><path d="M134.93,66.29a5.42,5.42,0,0,0-1.81.32,9,9,0,0,0,.43-2.76,9.13,9.13,0,0,0-18.26,0c0,.24,0,.48,0,.72a6.53,6.53,0,0,0-3-.72,6.61,6.61,0,0,0,0,13.22h22.59a5.39,5.39,0,0,0,0-10.78Z" fill="#dddbdb" opacity="0.3"/><path d="M188.23,75.9a3.52,3.52,0,0,0-1.22.22,6.1,6.1,0,0,0,.29-1.87,6.17,6.17,0,0,0-12.33,0c0,.17,0,.33,0,.49a4.4,4.4,0,0,0-2-.49,4.47,4.47,0,0,0,0,8.94h15.26a3.65,3.65,0,0,0,0-7.29Z" fill="#dddbdb" opacity="0.3"/><path d="M303.15,70.85a3.86,3.86,0,0,0-1.22.21,6,6,0,0,0,.29-1.86,6.17,6.17,0,1,0-12.33,0c0,.16,0,.32,0,.49a4.4,4.4,0,0,0-2-.49,4.47,4.47,0,0,0,0,8.93h15.26a3.64,3.64,0,1,0,0-7.28Z" fill="#dddbdb" opacity="0.3"/><circle cx="240.43" cy="90.71" r="20.13" fill="#ffd200" opacity="0.17"/><circle cx="240.43" cy="90.71" r="13.18" fill="#ffd200"/><path d="M172.5,132.23v-11.9c0-2.93-2-5.65-4.43-7.92V100.6c0-5.46-9.88-9.89-9.88-9.89s-9.89,4.43-9.89,9.89v11.81c-2.47,2.27-4.43,5-4.43,7.92v11.9h-1.71v21.24H111.33V132.23H109v-11.9c0-2.93-2-5.65-4.43-7.92V100.6c0-5.46-9.88-9.89-9.88-9.89s-9.89,4.43-9.89,9.89v11.81c-2.47,2.27-4.43,5-4.43,7.92v11.9H78.7v115h96.09v-115Z" fill="#e6e6e6"/><polygon points="267.88 162.04 267.88 146.42 235.49 146.42 235.49 162.04 229.4 162.04 229.4 247.22 235.49 247.22 267.88 247.22 273.97 247.22 273.97 162.04 267.88 162.04" fill="#e6e6e6"/><path d="M321.85,115.39v-2.82h-1.53a18.63,18.63,0,0,0-36.46,0h-1.53v2.82h-2.71V247.22h44.94V115.39Z" fill="#e6e6e6"/><polygon points="197.64 80.76 197.89 80.76 199 104.67 196.53 104.67 197.64 80.76" fill="#68e1fd"/><polygon points="197.64 80.76 197.89 80.76 199 104.67 196.53 104.67 197.64 80.76" fill="#fff" opacity="0.3"/><rect x="194.66" y="110.54" width="6.21" height="7.74" fill="#68e1fd"/><rect x="194.66" y="110.54" width="6.21" height="7.74" opacity="0.1"/><path d="M197.77,115.56h0a8.89,8.89,0,0,1,8.89,8.89V138a0,0,0,0,1,0,0H188.87a0,0,0,0,1,0,0V124.46A8.89,8.89,0,0,1,197.77,115.56Z" fill="#68e1fd"/><rect x="134.45" y="182.71" width="126.64" height="7.49" fill="#68e1fd"/><rect x="128.58" y="190.2" width="138.38" height="4.94" fill="#68e1fd"/><rect x="128.58" y="190.2" width="138.38" height="4.94" fill="#fff" opacity="0.3"/><rect x="130.53" y="195.14" width="134.47" height="52.09" fill="#68e1fd"/><rect x="137.02" y="204.71" width="6.6" height="12.17" opacity="0.1"/><rect x="148.51" y="204.71" width="6.6" height="12.17" opacity="0.1"/><rect x="160" y="204.71" width="6.6" height="12.17" opacity="0.1"/><rect x="171.49" y="204.71" width="6.6" height="12.17" opacity="0.1"/><rect x="182.98" y="204.71" width="6.6" height="12.17" opacity="0.1"/><rect x="194.47" y="204.71" width="6.6" height="12.17" opacity="0.1"/><rect x="205.96" y="204.71" width="6.6" height="12.17" opacity="0.1"/><rect x="217.45" y="204.71" width="6.6" height="12.17" opacity="0.1"/><rect x="228.94" y="204.71" width="6.6" height="12.17" opacity="0.1"/><rect x="240.43" y="204.71" width="6.6" height="12.17" opacity="0.1"/><rect x="251.91" y="204.71" width="6.6" height="12.17" opacity="0.1"/><rect x="137.02" y="225.4" width="6.6" height="12.17" opacity="0.1"/><rect x="148.51" y="225.4" width="6.6" height="12.17" opacity="0.1"/><rect x="160" y="225.4" width="6.6" height="12.17" opacity="0.1"/><rect x="171.49" y="225.4" width="6.6" height="12.17" opacity="0.1"/><rect x="182.98" y="225.4" width="6.6" height="12.17" opacity="0.1"/><rect x="194.47" y="225.4" width="6.6" height="21.83" opacity="0.1"/><rect x="205.96" y="225.4" width="6.6" height="12.17" opacity="0.1"/><rect x="217.45" y="225.4" width="6.6" height="12.17" opacity="0.1"/><rect x="228.94" y="225.4" width="6.6" height="12.17" opacity="0.1"/><rect x="240.43" y="225.4" width="6.6" height="12.17" opacity="0.1"/><rect x="251.91" y="225.4" width="6.6" height="12.17" opacity="0.1"/><rect x="176.41" y="171.48" width="42.72" height="3.23" fill="#68e1fd"/><rect x="176.41" y="171.48" width="42.72" height="3.23" fill="#fff" opacity="0.3"/><rect x="178.02" y="174.71" width="39.49" height="11.23" fill="#68e1fd"/><rect x="184.66" y="143.56" width="26.21" height="27.91" fill="#68e1fd"/><polygon points="212.48 151.22 183.74 151.22 181.17 146.29 215.04 146.29 212.48 151.22" fill="#68e1fd"/><polygon points="212.48 151.22 183.74 151.22 181.17 146.29 215.04 146.29 212.48 151.22" fill="#fff" opacity="0.3"/><rect x="187" y="138.03" width="21.53" height="5.53" fill="#68e1fd"/><rect x="187" y="138.03" width="21.53" height="5.53" fill="#fff" opacity="0.3"/><g opacity="0.3"><rect x="192.24" y="122.46" width="1.96" height="11.4" fill="#fff"/><rect x="196.79" y="122.46" width="1.96" height="11.4" fill="#fff"/><rect x="201.34" y="122.46" width="1.96" height="11.4" fill="#fff"/></g><polygon points="199.82 103.61 195.71 103.61 193.81 110.5 201.72 110.5 199.82 103.61" fill="#68e1fd"/><rect x="193.21" y="109.52" width="9.11" height="1.91" fill="#68e1fd"/><rect x="195.09" y="176.59" width="5.36" height="11.23" opacity="0.1"/><rect x="249.36" y="174.71" width="3.51" height="11.74" fill="#68e1fd"/><rect x="142.66" y="174.71" width="3.51" height="11.74" fill="#68e1fd"/><circle cx="197.77" cy="160.78" r="5.89" fill="#fff" opacity="0.3"/><path d="M119.81,247.22a19.61,19.61,0,0,0-1.75-5.33,20.9,20.9,0,0,0-8.51-8.16,21.74,21.74,0,0,0-6-2.25c-.67-.14-5.61-.16-5.75-.37a13.81,13.81,0,0,0-22.86-3.05c-2.58,3-3.79,6.93-4.23,10.84a7.47,7.47,0,0,1-.69,2.86c-.56,1-1.58,1.59-2.2,2.52a5.07,5.07,0,0,0-.71,2.94Z" fill="#ccc"/><path d="M332.89,247.22a3.88,3.88,0,0,0-2.88-.8,12.07,12.07,0,0,0-16-13.55,12.74,12.74,0,0,0-22.21-1c-3-2.6-7.88-1.89-11,.62s-4.78,6.33-6.06,10.1a8.27,8.27,0,0,0-8.77,4.67Z" fill="#ccc"/><rect x="48.39" y="246.47" width="303.22" height="11.5" rx="5.75" fill="#24285b"/></svg>