<svg id="Layer_1" data-name="Layer 1" xmlns="http://www.w3.org/2000/svg" viewBox="0 0 400 300"><title>_</title><path d="M292.65,65.83c33.59,11.33,59.11,41.71,65,79.15,5,31.55-5.49,70-61.53,86.75-57.2,17.11-203.21,35.59-244.39-29C20.13,153.1,31.29,85.85,92.36,64,135.17,48.61,227.07,43.7,292.65,65.83Z" fill="#e6e6e6" opacity="0.3"/><path d="M308,120.84l-77.61,24.82a30.88,30.88,0,0,0-29.23-20.9V43.3A112.37,112.37,0,0,1,308,120.84Z" fill="#68e1fd"/><path d="M308,120.84l-77.61,24.82a30.88,30.88,0,0,0-29.23-20.9V43.3A112.37,112.37,0,0,1,308,120.84Z" opacity="0.08"/><path d="M283.85,155.65a82.58,82.58,0,0,1-34.47,67.18l-29.9-42.35A30.86,30.86,0,0,0,231,147.58h0L281,134A82.6,82.6,0,0,1,283.85,155.65Z" fill="#24285b"/><path d="M255.8,240.66a101,101,0,0,1-112-1.81L185,181.9a30.83,30.83,0,0,0,32.69-.2Z" fill="#68e1fd"/><path d="M255.8,240.66a101,101,0,0,1-112-1.81L185,181.9a30.83,30.83,0,0,0,32.69-.2Z" fill="#fff" opacity="0.46"/><path d="M182.52,180.2l-58.14,76.5s-35.65-25.94-45.22-69,1.78-69,1.78-69l90.74,27.91a30.88,30.88,0,0,0,10.84,33.61Z" fill="#68e1fd"/><path d="M198.84,124.9a30.86,30.86,0,0,0-26.34,19.35s-25.86-8.34-35.5-11.65a68.18,68.18,0,0,1,61.78-45.08Z" fill="#24285b"/><path d="M201.18,179.31a23.57,23.57,0,1,1,23.57-23.57A23.6,23.6,0,0,1,201.18,179.31Zm0-40.8a17.23,17.23,0,1,0,17.22,17.23A17.25,17.25,0,0,0,201.18,138.51Z" fill="#c9c9c9"/><path d="M201.18,179.31a23.53,23.53,0,0,1-15.64-5.94l4.21-4.75A17.18,17.18,0,0,0,201.18,173Z" fill="#e6e6e6"/><path d="M224.75,155.74H218.4a17.25,17.25,0,0,0-17.22-17.23v-6.34A23.6,23.6,0,0,1,224.75,155.74Z" fill="#24285b"/><path d="M201.18,179.31V173a17.25,17.25,0,0,0,17.22-17.22h6.35A23.61,23.61,0,0,1,201.18,179.31Z" fill="#ffd200"/><g opacity="0.08"><path d="M201.7,148.11c.41,0,.54.15.54.56v.9a4,4,0,0,1,3.35,2.53c.22.43.13.67-.36.89l-.9.4c-.41.2-.61.11-.85-.33a2.27,2.27,0,0,0-2.33-1.4c-1.55,0-2.26.45-2.26,1.49,0,.67.62,1.09,1.26,1.22a9.73,9.73,0,0,0,1.31.2,8.45,8.45,0,0,1,2.42.47,3.37,3.37,0,0,1,1.07.59,3.49,3.49,0,0,1,1,2.54c0,2-1.33,3.33-3.68,3.68v1c0,.42-.13.56-.54.56h-1c-.41,0-.56-.14-.56-.56v-.93a4.15,4.15,0,0,1-3.64-2.8.59.59,0,0,1,.42-.84l.89-.33c.46-.16.66-.05.86.4a2.37,2.37,0,0,0,2.45,1.53c1.68,0,2.51-.53,2.51-1.6a1.11,1.11,0,0,0-.78-1.13,6.43,6.43,0,0,0-1.8-.35,8.27,8.27,0,0,1-2.44-.52,3.58,3.58,0,0,1-1-.6,3.32,3.32,0,0,1-1-2.48c0-2,1.24-3.27,3.57-3.58v-.9c0-.41.15-.56.56-.56Z"/></g><rect x="98.52" y="70.3" width="44.36" height="5.55" fill="#e6e6e6"/><rect x="98.52" y="80.83" width="41.72" height="5.55" fill="#e6e6e6"/><rect x="98.52" y="92.81" width="32.64" height="5.55" fill="#e6e6e6"/><rect x="277.75" y="206.93" width="27.3" height="5.55" fill="#e6e6e6"/><rect x="277.75" y="218.91" width="21.36" height="5.55" fill="#e6e6e6"/><rect x="243.03" y="101.95" width="81.65" height="51.37" fill="#e6e6e6"/><polygon points="250.89 148.1 250.89 136.03 262.4 125.82 271.64 135.38 283.85 121.56 293.8 135.15 316.81 114.49 316.81 148.1 250.89 148.1" fill="#fff" opacity="0.46"/><rect x="250.89" y="107.16" width="23.09" height="3.12" fill="#fff" opacity="0.46"/><rect x="250.89" y="114.49" width="19.73" height="3.12" fill="#fff" opacity="0.46"/></svg>