<svg id="Layer_1" data-name="Layer 1" xmlns="http://www.w3.org/2000/svg" viewBox="0 0 400 300"><title>#9 pie chart</title><path d="M109.14,80.52c-52.68,6.84-75.73,71.27-38.33,109q.76.78,1.56,1.53C115,231.5,279.5,237.74,330.5,203.62s41-108.36-21-136C257.26,44.35,188.67,70.18,109.14,80.52Z" fill="#e6e6e6" opacity="0.26"/><ellipse cx="208.16" cy="254.91" rx="93.96" ry="12.85" fill="#e6e6e6" opacity="0.45"/><circle cx="200.75" cy="129.03" r="77.95" fill="#e6e6e6"/><path d="M200.75,51.08l-9.24,75.81,58.37,62.65s8.28-6.79,11.68-11.74S214.63,52.32,214.63,52.32,205.43,50.94,200.75,51.08Z" opacity="0.1"/><path d="M185,200.11s-17.7-1.58-37.32-14.42l-2.21,3.12a301.48,301.48,0,0,0,28.64,26.95Z" fill="#68e1fd"/><path d="M185,200.11s-17.7-1.58-37.32-14.42l-2.21,3.12a301.48,301.48,0,0,0,28.64,26.95Z" fill="#fff" opacity="0.2"/><path d="M191.07,200.79s15.09-.72,22.76,6.19,1.51,31.24-13.08,32.58-8.25-13.34-17.59-16.34S158.68,198,191.07,200.79Z" fill="#68e1fd"/><path d="M186.55,209.8s.53,5.3,10.15,7,16.6,11,4.68,16.26c0,0,7.51-.71,12.92-4.49,0,0,4.19-7.58,2.42-16.17s-17.12-11.16-17.12-11.16a78.51,78.51,0,0,0-9.31-.57C186.7,200.85,186.55,209.8,186.55,209.8Z" opacity="0.1"/><path d="M216.41,33.92l-8.62,89.41,89.56-6.61S294.72,45,216.41,33.92Z" fill="#24285b"/><path d="M207.79,123.33l63.09,63.92s31.34-24,26.47-70.53Z" fill="#ffd200"/><path d="M184.35,199.6s-2.4,9.44,2.2,10.2,5-10.2,5-10.2S185,194.66,184.35,199.6Z" fill="#f4a28c"/><path d="M183.54,195.75a2.72,2.72,0,0,0-.69,3.31,2,2,0,0,0,2.13,1.05c2.9-.26,6.35,1.67,6.35,1.67s2.47-1.79,1.58-4.38C192.1,195,187.67,192.17,183.54,195.75Z" fill="#24285b"/><path d="M200.62,201.17l14.92-.43a61.35,61.35,0,0,0,19-3.59l7.19-2.59,3.31,1.33-15.11,10.53a40.12,40.12,0,0,1-12,5.73c-6.33,1.77-14.94,2.84-20.46-1.87A5.18,5.18,0,0,1,200.62,201.17Z" fill="#68e1fd"/><path d="M200.62,201.17l14.92-.43a61.35,61.35,0,0,0,19-3.59l7.19-2.59,3.31,1.33-15.11,10.53a40.12,40.12,0,0,1-12,5.73c-6.33,1.77-14.94,2.84-20.46-1.87A5.18,5.18,0,0,1,200.62,201.17Z" fill="#fff" opacity="0.2"/><path d="M214.09,250.38s-3.38,5.25,0,5.94a4.66,4.66,0,0,0,4.9-1.72Z" fill="#68e1fd"/><path d="M189.59,231.86l-7.28.79a6.55,6.55,0,0,0-5.81,7.18L178,254.22h4.47l.6-12.69a2.74,2.74,0,0,1,3.23-2.56c5.42,1,16.71,2.71,22.88.67,8.34-2.75,5.14-11,5.14-11S202.34,236.5,189.59,231.86Z" fill="#24285b"/><path d="M214.81,230.85s5.35,13.63,5.16,21.66a3,3,0,0,1-5.65,1.27l-6.16-15.22Z" fill="#24285b"/><path d="M245,195.89s4-1.43,3.48-5.23l-6,4.22Z" fill="#f4a28c"/><path d="M178.89,254.22l-2.39,1.87a.57.57,0,0,0,.35,1h3a1.61,1.61,0,0,0,1.62-1.62v-1.26Z" fill="#68e1fd"/><path d="M145.72,188.43s-4.74-2.17-2.32-6.61l4.26,3.87Z" fill="#f4a28c"/><path d="M207.79,123.33l83.5,35.74s-4.52,13.09-20.41,28.18Z" fill="#68e1fd"/></svg>