<svg id="Layer_1" data-name="Layer 1" xmlns="http://www.w3.org/2000/svg" viewBox="0 0 400 300"><title>_</title><ellipse cx="206.74" cy="257.31" rx="137.87" ry="13.24" fill="#e6e6e6" opacity="0.45"/><path d="M87.68,172.52a17,17,0,0,0,2-1.09,29.13,29.13,0,0,0,14-2.93c5.08-2.27,10.79-5,13.27-10.26,1.85-3.94-4.13-7.16-6-3.2s-7.51,6.34-11.47,7.91c-.82.33-1.66.62-2.5.87,3.47-5.76,4.54-12.95.78-18.65-5.87-8.9-18.84-4.88-22.5,3.8a15.93,15.93,0,0,0,4.33,18.45c-6.87.14-15.1-3.67-17.44-9.35-1.65-4-8.19-2.14-6.52,1.9C60.23,171.07,76.63,177.65,87.68,172.52ZM93,155.47A15.47,15.47,0,0,1,88,164.34h-.08c-7.76-2-10.34-14.54-1.55-17.11C91.74,145.63,93.8,151,93,155.47Z" fill="#e6e6e6"/><path d="M342.86,126.64v36.15a12,12,0,0,1-9,11.63l-11.18,3c-7.44,18.46-21,34.42-38.56,46L281,248a6.85,6.85,0,0,1-6.79,6H250.45a6.84,6.84,0,0,1-6.79-6l-.95-7.31a131,131,0,0,1-53.09.3c-2.48-.5-4.93-1.08-7.35-1.72L181.14,248a6.85,6.85,0,0,1-6.79,6H150.62a6.84,6.84,0,0,1-6.79-6L140,218.57A105.66,105.66,0,0,1,122.09,201c-12.77-16-20.25-35.37-20.25-56.3,0-22.28,8.49-42.85,22.8-59.38,15.63-18,38.2-31.29,64.27-36.71a129.72,129.72,0,0,1,26.55-2.72,127.49,127.49,0,0,1,48,9.25L311.2,34.92,297.53,76.39a97.62,97.62,0,0,1,25.19,35.66l11.18,3A12,12,0,0,1,342.86,126.64Z" fill="#e6e6e6"/><circle cx="286.19" cy="115.82" r="7.53" opacity="0.08"/><path d="M177,60.05a146,146,0,0,1,37.8-4.49c12,.2,24.7,1.25,35.49,6.75,6.88,3.51.82,13.87-6.06,10.37-9.31-4.76-21-5.1-31.3-5.14a132.89,132.89,0,0,0-32.74,4.08C172.72,73.5,169.52,61.93,177,60.05Z" opacity="0.08"/><path d="M240,65.27a27,27,0,0,1-.36,4.18c-.06.4-.14.8-.22,1.19-.51-.17-1-.34-1.54-.49a70.24,70.24,0,0,0-17-2.46c-2.7-.11-5.37-.14-8-.15-2,0-4,0-6.06.13a130.16,130.16,0,0,0-17.17,1.92c-1.33.23-2.66.49-4,.77a27,27,0,0,1-.16-9.66c.15-.9.34-1.79.57-2.65.12-.48.26-.95.41-1.41A27.38,27.38,0,0,1,240,65.27Z" opacity="0.08"/><path d="M240,65.27a27,27,0,0,1-.36,4.18c-.06.4-.14.8-.22,1.19-.51-.17-1-.34-1.54-.49a70.24,70.24,0,0,0-17-2.46c-2.7-.11-5.37-.14-8-.15-2,0-4,0-6.06.13a130.16,130.16,0,0,0-17.17,1.92c-1.33.23-2.66.49-4,.77a27,27,0,0,1-.16-9.66c.15-.9.34-1.79.57-2.65.12-.48.26-.95.41-1.41A27.38,27.38,0,0,1,240,65.27Z" fill="#ffd200"/><g opacity="0.08"><path d="M241.23,58.77a22.75,22.75,0,0,1-.27,2.44,28,28,0,0,1-1,4.06,27,27,0,0,1-2.12,4.88,70.24,70.24,0,0,0-17-2.46c-2.7-.11-5.37-.14-8-.15-2,0-4,0-6.06.13a130.16,130.16,0,0,0-17.17,1.92A27,27,0,0,1,186.59,58c0-.44,0-.88,0-1.33a27,27,0,0,1,.36-4.18,27.36,27.36,0,0,1,54.31,6.31Z"/></g><path d="M240,65.27a27,27,0,0,1-.36,4.18c-.06.4-.14.8-.22,1.19-.51-.17-1-.34-1.54-.49a70.24,70.24,0,0,0-17-2.46c-2.7-.11-5.37-.14-8-.15-2,0-4,0-6.06.13a130.16,130.16,0,0,0-17.17,1.92c-1.33.23-2.66.49-4,.77a27,27,0,0,1-.16-9.66c.15-.9.34-1.79.57-2.65.12-.48.26-.95.41-1.41A27.38,27.38,0,0,1,240,65.27Z" opacity="0.08"/><path d="M241.23,58.77a22.75,22.75,0,0,1-.27,2.44,28,28,0,0,1-1,4.06,27,27,0,0,1-2.12,4.88,70.24,70.24,0,0,0-17-2.46c-2.7-.11-5.37-.14-8-.15-2,0-4,0-6.06.13a130.16,130.16,0,0,0-17.17,1.92A27,27,0,0,1,186.59,58c0-.44,0-.88,0-1.33a27,27,0,0,1,.36-4.18,27.36,27.36,0,0,1,54.31,6.31Z" fill="#ffd200"/><path d="M220.84,58.49a6.14,6.14,0,0,0-2-1.08,15.91,15.91,0,0,0-4.48-.87,19.47,19.47,0,0,1-2.42-.37,3.37,3.37,0,0,1-1.41-.61,2,2,0,0,1-.91-1.65c0-1.92,1.31-2.76,4.17-2.76a4.22,4.22,0,0,1,4.31,2.59c.43.81.81,1,1.58.61l1.65-.74c.91-.4,1.08-.84.67-1.65a7.52,7.52,0,0,0-6.19-4.68V45.63c0-.77-.24-1-1-1H213c-.78,0-1.05.27-1.05,1v1.65c-4.3.57-6.59,3-6.59,6.63a7,7,0,0,0,.23,1.82,5.51,5.51,0,0,0,1.58,2.76,6.3,6.3,0,0,0,2,1.11,14.85,14.85,0,0,0,4.51,1,11.36,11.36,0,0,1,3.33.64,2.05,2.05,0,0,1,1.45,2.08c0,2-1.55,3-4.65,3a4.4,4.4,0,0,1-4.54-2.83c-.37-.84-.74-1-1.58-.74l-1.65.6c-.78.31-1.05.81-.78,1.55a8.12,8.12,0,0,0,1.7,2.82c2-.09,4-.14,6.06-.13,2.58,0,5.25,0,8,.15a6.17,6.17,0,0,0,1.73-4.49A6.48,6.48,0,0,0,220.84,58.49Z" fill="#fff"/><path d="M189.62,241c-2.48-.5-4.93-1.08-7.35-1.72L181.14,248a6.85,6.85,0,0,1-6.79,6H150.62a6.84,6.84,0,0,1-6.79-6L140,218.57A105.66,105.66,0,0,1,122.09,201c-5.85-26.34-13.86-62-13.86-62s1.46-18.6,8.66-23.17c18.55-11.79,15-38.19,19-41.67a119,119,0,0,1,53-25.53V238.46C189.17,239.31,189.41,240.14,189.62,241Z" opacity="0.08"/><path d="M301.05,241.55s-8.23-2.21-10.05-9.85c0,0,12.72-2.62,13.14,10.52Z" fill="#68e1fd" opacity="0.58"/><path d="M302.05,240.74s-5.78-9.06-.76-17.57c0,0,9.71,6.11,5.46,17.57Z" fill="#68e1fd" opacity="0.73"/><path d="M303.53,240.74s3-9.6,12.16-11.46c0,0,1.75,6.22-5.89,11.46Z" fill="#68e1fd"/><polygon points="297.57 240.54 299.29 251.94 309.78 251.94 311.28 240.54 297.57 240.54" fill="#24285b"/><path d="M301.05,241.55s-8.23-2.21-10.05-9.85c0,0,12.72-2.62,13.14,10.52Z" fill="#68e1fd" opacity="0.58"/><path d="M302.05,240.74s-5.78-9.06-.76-17.57c0,0,9.71,6.11,5.46,17.57Z" fill="#68e1fd" opacity="0.73"/><path d="M303.53,240.74s3-9.6,12.16-11.46c0,0,1.75,6.22-5.89,11.46Z" fill="#68e1fd"/><polygon points="297.57 240.54 299.29 251.94 309.78 251.94 311.28 240.54 297.57 240.54" fill="#24285b"/><line x1="135.92" y1="117.6" x2="179.2" y2="117.6" fill="none" stroke="#b3b3b3" stroke-miterlimit="10" stroke-width="5"/><line x1="135.92" y1="149.75" x2="179.2" y2="149.75" fill="none" stroke="#b3b3b3" stroke-miterlimit="10" stroke-width="5"/><line x1="135.92" y1="183.29" x2="179.2" y2="183.29" fill="none" stroke="#b3b3b3" stroke-miterlimit="10" stroke-width="5"/><line x1="135.92" y1="215.44" x2="179.2" y2="215.44" fill="none" stroke="#b3b3b3" stroke-miterlimit="10" stroke-width="5"/><line x1="135.92" y1="242.49" x2="179.2" y2="242.49" fill="none" stroke="#b3b3b3" stroke-miterlimit="10" stroke-width="5"/><line x1="135.92" y1="33.38" x2="135.92" y2="262.73" fill="none" stroke="#b3b3b3" stroke-miterlimit="10" stroke-width="5"/><line x1="179.2" y1="33.38" x2="179.2" y2="262.73" fill="none" stroke="#b3b3b3" stroke-miterlimit="10" stroke-width="5"/><line x1="135.92" y1="53.29" x2="179.2" y2="53.29" fill="none" stroke="#b3b3b3" stroke-miterlimit="10" stroke-width="5"/><line x1="135.92" y1="85.44" x2="179.2" y2="85.44" fill="none" stroke="#b3b3b3" stroke-miterlimit="10" stroke-width="5"/><path d="M149.47,144.24a3.09,3.09,0,0,1,3.17,2.77,6.65,6.65,0,0,1-4.22,6.18c-2.93.86-4.17-1.94-3.88-4.41C144.77,146.82,147.57,144.49,149.47,144.24Z" fill="#f4a28c"/><circle cx="146.42" cy="120.2" r="27.37" opacity="0.08"/><circle cx="146.42" cy="120.2" r="27.37" fill="#ffd200"/><g opacity="0.08"><circle cx="147.76" cy="111.95" r="27.37"/></g><circle cx="146.42" cy="120.2" r="27.37" opacity="0.08"/><circle cx="147.76" cy="111.95" r="27.37" fill="#ffd200"/><path d="M148.64,99.71c.77,0,1,.27,1,1v1.65a7.52,7.52,0,0,1,6.19,4.68c.41.81.24,1.25-.67,1.65l-1.65.74c-.77.37-1.14.2-1.58-.61a4.22,4.22,0,0,0-4.31-2.59c-2.86,0-4.17.84-4.17,2.76a2.55,2.55,0,0,0,2.32,2.26,19.47,19.47,0,0,0,2.42.37,15.91,15.91,0,0,1,4.48.87,6.31,6.31,0,0,1,2,1.08,6.52,6.52,0,0,1,1.78,4.71c0,3.67-2.46,6.16-6.8,6.8v1.75c0,.78-.24,1-1,1h-1.85c-.77,0-1-.27-1-1v-1.71A7.67,7.67,0,0,1,139,120c-.27-.74,0-1.24.78-1.55l1.65-.6c.84-.3,1.21-.1,1.58.74a4.4,4.4,0,0,0,4.54,2.83c3.1,0,4.65-1,4.65-3a2.05,2.05,0,0,0-1.45-2.08,11.29,11.29,0,0,0-3.33-.64,14.85,14.85,0,0,1-4.51-1,5.46,5.46,0,0,1-3.77-5.69c0-3.63,2.29-6.06,6.6-6.63v-1.65c0-.77.27-1,1-1Z" fill="#fff"/><polygon points="101.78 113.38 104.27 120.84 98.37 124.58 96.25 111.67 101.78 113.38" fill="#f4a28c"/><path d="M94.22,104.46a4.64,4.64,0,0,1,7.68-1.28c2.51,2.67,5.54,6.94,2.11,9.26-5.24,3.55-10-3.09-10-3.09A8.45,8.45,0,0,1,94.22,104.46Z" fill="#f4a28c"/><path d="M98.06,109s-1.35-1.12-2,.48,1.77,2.36,2.48,1.56S98.06,109,98.06,109Z" fill="#f4a28c"/><path d="M96.64,114l-4-4.13a4.39,4.39,0,0,1-1.22-3.25,15.82,15.82,0,0,1,2.29-8c2.73-4,6.36-5.44,7.26-2s1.09-.64,3.29,1.18,1.75,2.87,0,3.83-5.37,2.35-5.69,5.23S101,112.1,96.64,114Z" fill="#24285b"/><path d="M104.27,120.84s29.61-12.18,37.59,10.69-4.28,56.57-4.28,56.57H104.27s-29.5-44.43-5.9-63.52Z" fill="#68e1fd"/><polygon points="104.27 188.1 110.01 257.31 116.89 257.31 121.87 203.58 137.58 188.1 104.27 188.1" fill="#24285b"/><path d="M111.54,257.31l.29,2.34a3.26,3.26,0,0,0,3.24,2.87h5a1.78,1.78,0,0,0,1.14-3.15,10.49,10.49,0,0,0-4.34-2.06Z" fill="#68e1fd"/><path d="M120.53,132.68c-3.73-10.28,9.48-18.11,16.68-9.88a32.54,32.54,0,0,1,6.17,11.43c7.58,23,9.37,36.25,34.13,36.76v7.41s-33.19,5.07-48.76-26.83A193.38,193.38,0,0,1,120.53,132.68Z" fill="#68e1fd"/><path d="M120.53,132.68c-3.73-10.28,9.48-18.11,16.68-9.88a32.54,32.54,0,0,1,6.17,11.43c7.58,23,9.37,36.25,34.13,36.76v7.41s-33.19,5.07-48.76-26.83A193.38,193.38,0,0,1,120.53,132.68Z" fill="#fff" opacity="0.46"/><path d="M177.51,172.78s6.28-1.42,7.65,2.67-7.65,3-7.65,3Z" fill="#f4a28c"/><path d="M137.58,188.1s19.41-2.69,25.53,8-9.53,39.83-9.53,39.83l-7-2.22s12.14-27.55-5.16-31a14.45,14.45,0,0,0-6,.15L116.89,207l3-18.21Z" fill="#24285b"/><path d="M148.7,234.37l-.42,1.52a3.19,3.19,0,0,0,.76,3.05l.49.51a3.2,3.2,0,0,0,2.31,1H156a1.35,1.35,0,0,0,.94-2.31,11.5,11.5,0,0,0-3.36-2.2Z" fill="#68e1fd"/></svg>