<svg id="Layer_1" data-name="Layer 1" xmlns="http://www.w3.org/2000/svg" viewBox="0 0 400 300"><path d="M108.55,70.16c-28,12.3-48.66,43.29-52.62,80.7-3.33,31.53,6.42,77.53,55.05,87.27,94.62,18.94,194,30.28,216.37-21.89s3-158.75-45-164.34C244.16,47.46,163.2,46.14,108.55,70.16Z" fill="#e6e6e6" opacity="0.3"/><rect x="117.35" y="39.9" width="166.3" height="72.92" fill="#68e1fd"/><polygon points="117.35 112.82 105.93 133.41 294.86 133.41 283.64 112.82 117.35 112.82" fill="#68e1fd"/><polygon points="117.35 112.82 105.93 133.41 294.86 133.41 283.64 112.82 117.35 112.82" fill="#fff" opacity="0.39"/><rect x="105.96" y="133.4" width="188.9" height="8.38" fill="#68e1fd"/><polygon points="105.96 141.79 121.19 196.34 278.61 196.34 294.86 141.79 105.96 141.79" fill="#24285b"/><circle cx="200.39" cy="76.36" r="27.95" fill="#68e1fd"/><circle cx="200.39" cy="76.36" r="27.95" fill="#fff" opacity="0.39"/><circle cx="200.39" cy="76.36" r="22.23" fill="#24285b"/><circle cx="204.08" cy="72.83" r="11.69" fill="#fff" opacity="0.08"/><circle cx="208.66" cy="70.53" r="4.59" fill="#fff" opacity="0.08"/><path d="M256,51.3h27.65a0,0,0,0,1,0,0V79.9a0,0,0,0,1,0,0H256a14.3,14.3,0,0,1-14.3-14.3v0A14.3,14.3,0,0,1,256,51.3Z" opacity="0.08"/><rect x="255.99" y="89.56" width="18.72" height="9.03" fill="#24285b"/><rect x="130.63" y="58.57" width="22.72" height="22.72" fill="#fff" opacity="0.39"/><rect x="130.63" y="97" width="22.72" height="7.31" fill="#24285b"/><rect x="151.82" y="31.56" width="89.87" height="8.34" fill="#24285b"/><rect x="130.63" y="157.51" width="138.3" height="106.55" fill="#ffd200"/><rect x="146.72" y="157.51" width="106.13" height="90.55" fill="#fff" opacity="0.5"/><rect x="130.63" y="157.51" width="138.3" height="11.55" opacity="0.08"/></svg>