<svg id="Layer_1" data-name="Layer 1" xmlns="http://www.w3.org/2000/svg" viewBox="0 0 400 300"><path d="M88.44,66.21c-28.68,17.46-45.67,49.51-43,83C46.85,166.3,53.21,182.8,70,191.82c44.83,24,240.54,24.45,269.51-18S357.72,71,294.73,45.8C240.12,24,162.49,21.12,88.44,66.21Z" fill="#e6e6e6" opacity="0.3"/><ellipse cx="200" cy="262" rx="157.91" ry="11.52" fill="#e6e6e6" opacity="0.45"/><path d="M99.55,259.57s8.92-12.83-4.38-16.36,3.2-20.82-9.18-23.09-10.32,16-10.32,16-8.55-7.37-14.44-1.18,2.36,13,2.36,13S51.67,252,59.1,259.57Z" fill="#e6e6e6"/><path d="M81.67,261.27s5.66-9.69,14-8.49,7.45,8.49,7.45,8.49Z" fill="#c9c9c9"/><path d="M294,198.12s4.92-6.86,12.9-3.9c6.65,2.47,9.37,8.13,14.76,7.82a3.53,3.53,0,0,1,3.68,4.09c-.53,3.18-2.47,6.39-8.46,4.83-10.8-2.82-6.73,8.56-16.54,4.13S288.28,207.07,294,198.12Z" fill="#24285b"/><polygon points="297.27 199.35 289.9 186.74 301.66 196.04 297.27 199.35" fill="#24285b"/><polygon points="300.91 197.38 298.58 182.96 306.19 195.87 300.91 197.38" fill="#24285b"/><circle cx="305.98" cy="199.17" r="1.43" fill="#fff"/><polygon points="291.65 202.53 308.68 215.43 304.6 220.04 287.23 207.24 291.65 202.53" fill="#ffd200"/><path d="M287.23,207.24s-14.4,13.59-31.8,8.88S230.25,227,236.17,234.37,311.93,253.09,304.6,220" fill="#24285b"/><path d="M243.81,224.82s-23.82-.33-23.26-31.34c0,0-17.89,34.53,23.26,37.3Z" fill="#24285b"/><path d="M262,233.38s6.3,15.55-10.36,15.92-12.59,10.6-12.59,10.6h-4.85s-2.9-11.81,4.12-14.91-2.16-10.62-2.16-10.62S246.46,216.34,262,233.38Z" fill="#24285b"/><path d="M305.13,224.82l1.38,7.34A23.79,23.79,0,0,0,315,246.29l7.4,6-1.85,2.16-15.31-6.71a10.35,10.35,0,0,1-4.86-4.36l-7.22-12.57Z" fill="#24285b"/><path d="M303.4,228.69l-3.4,6.65a23.81,23.81,0,0,0-2,16.35l2.2,9.25-2.79.58-8-14.68a10.46,10.46,0,0,1-1.18-6.42l2-14.36Z" fill="#24285b"/><path d="M272.06,237.87s1,9.44-4.72,14.57-4.72,9.08-4.72,9.08h-4.17a13.44,13.44,0,0,1,0-6.38,13.87,13.87,0,0,0-2.71-11.5l-3.85-4.94Z" fill="#24285b"/><path d="M180.34,81.51c.25-.17.67-2.51,1.84-2.09s10.51,9.9,9,10.91-2.34,1.44-3.17.77S180.34,81.51,180.34,81.51Z" fill="#24285b"/><rect x="177.39" y="159.88" width="11.51" height="15.02" rx="3.83" transform="translate(-14.97 18.02) rotate(-5.41)" fill="#24285b"/><polygon points="232.26 130.47 231.35 133.37 239.14 135.78 240.83 128.12 232.26 130.47" fill="#24285b"/><path d="M236,122.17l1-2.24a5,5,0,0,1,7.34-2.12l13,8.51a2.23,2.23,0,0,1,.56,3.19l-.22.29a4.08,4.08,0,0,1-4.95,1.27l-10.19-4.61Z" fill="#24285b"/><path d="M154.13,114.19s20,41.29,36.69,39.76,40.73-23.85,40.73-23.85l-10.39-5.36s-33.54,25.57-39.93-19.34C175.77,67,154.13,114.19,154.13,114.19Z" fill="#68e1fd"/><path d="M154.13,114.19s20,41.29,36.69,39.76,40.73-23.85,40.73-23.85l-10.39-5.36s-33.54,25.57-39.93-19.34C175.77,67,154.13,114.19,154.13,114.19Z" opacity="0.08"/><path d="M213.39,258.19l7,2.25a1.37,1.37,0,0,1,.05,2.59l-6.88,2.53a3.93,3.93,0,0,1-5-2.33l-1.05-2.86Z" fill="#24285b"/><path d="M113.6,246l-.32,7.34a1.37,1.37,0,0,1-2.48.73l-4.26-6a3.92,3.92,0,0,1,.92-5.46l2.48-1.77Z" fill="#24285b"/><polygon points="168.46 70.35 166.06 81.61 155.83 81.96 162.75 64.07 168.46 70.35" fill="#f4a28c"/><path d="M165.54,53.47a6.8,6.8,0,0,1,10.65,4.08C177.37,62.8,178,70.43,172,70.81c-9.26.59-10.4-11.36-10.4-11.36A12.41,12.41,0,0,1,165.54,53.47Z" fill="#f4a28c"/><path d="M170.29,59.26a1.21,1.21,0,0,0-.74.26,1.1,1.1,0,0,0-.2.35,1.89,1.89,0,0,0,.53,1.89,2.58,2.58,0,0,0,1.9.66c1.11-.06,3.23-1.25,2.85-2.66C174.29,58.51,171.2,59.15,170.29,59.26Z" fill="#24285b"/><path d="M175.28,59a1.19,1.19,0,0,0-.74.26.86.86,0,0,0-.2.36,1.87,1.87,0,0,0,.53,1.88,2.56,2.56,0,0,0,1.89.66c1.12-.05,3.24-1.25,2.85-2.66C179.28,58.22,176.18,58.87,175.28,59Z" fill="#24285b"/><polygon points="169.56 59.52 164.66 60.42 164.66 61.49 170.62 60.71 169.56 59.52" fill="#24285b"/><path d="M125.61,93.19a24.82,24.82,0,0,1,15.81-13.38c13.28-3.77,38.42-5.94,45.65,6.54,9.9,17.09-6.67,77.54-6.67,77.54l-44.48,2.77S112.16,122.2,125.61,93.19Z" fill="#68e1fd"/><path d="M170.39,164.71l-1.09-.46c8.07-19,1.29-80.76,1.22-81.38l1.17-.13C172,85.29,178.58,145.45,170.39,164.71Z" fill="#24285b"/><path d="M145.28,78.71s-21.82,66.62,38.13,72l-3,13.2-44.48,2.77s-15.28-24.83-14.08-59.35c0,0,.64-17.07,12.77-24.43A27,27,0,0,1,145.28,78.71Z" opacity="0.08"/><path d="M159.32,60.93s-1.86,6.83,2.58,7.93,3.95-10.87,6.59-11.19,10.86,1.49,11-6.88-8.6-7.51-12.69-4.08S156.55,48.19,159.32,60.93Z" fill="#24285b"/><path d="M152.7,78.56s-1.78-5.47,14.56-2.6A37.24,37.24,0,0,1,176,78.54c3.14,1.4,3.17,3.56-.7,3.93-4.22.42-9,.82-13.22,0C158.91,81.93,155.54,80.11,152.7,78.56Z" fill="#68e1fd"/><path d="M152.7,78.56s-1.78-5.47,14.56-2.6A37.24,37.24,0,0,1,176,78.54c3.14,1.4,3.17,3.56-.7,3.93-4.22.42-9,.82-13.22,0C158.91,81.93,155.54,80.11,152.7,78.56Z" opacity="0.08"/><path d="M162.88,81.67s49.56,23,74.66,41.72l-5.28,7.08s-56.63-13.69-80.07-16S127.68,67.15,162.88,81.67Z" fill="#68e1fd"/><path d="M162.88,81.67s49.56,23,74.66,41.72l-5.28,7.08s-56.63-13.69-80.07-16S127.68,67.15,162.88,81.67Z" fill="#fff" opacity="0.46"/><path d="M180.4,163.89,190,182.37c7.46,14.35,25.09,75.19,25.09,75.19l-8.81,3.24s-27.62-56.16-34.87-65.91h0a86.91,86.91,0,0,0-30.27-25.57l-5.23-2.66Z" fill="#68e1fd"/><path d="M135.92,166.66s6,36,4.35,45.25L109,239.51l5.57,7.81,40.76-20.91c6.65-5.85,8.7-53.75,8.7-53.75Z" fill="#68e1fd"/><path d="M237.54,123.39s6.56-.15,6.56,4.81-4.1,6.4-12.55,1.9Z" fill="#f4a28c"/><path d="M167,62.09s-.86-2.42-2.81-.86.47,4.3,2,3.81S167,62.09,167,62.09Z" fill="#f4a28c"/><rect x="134.48" y="162" width="47.84" height="6.34" transform="translate(-8.49 8.59) rotate(-3.02)" fill="#24285b"/><rect x="164.17" y="160.54" width="11.34" height="7.89" transform="translate(-9.28 10.15) rotate(-3.33)" fill="#ffd200"/><rect x="138.08" y="161" width="11.51" height="15.02" rx="3.83" transform="translate(-15.25 14.32) rotate(-5.41)" fill="#24285b"/><path d="M152.7,78.56S139.46,89,137.46,88s-6.83-2-4.84-3.58,14.27-8.85,15.77-8.76S152.7,78.56,152.7,78.56Z" fill="#24285b"/><path d="M321.36,261a35.06,35.06,0,0,1,3.7-6.46,5.73,5.73,0,0,1,3.21-2.58c1.84-.37,3.55,1,5,2.22a8.39,8.39,0,0,1,4.61-6.65,4.21,4.21,0,0,1,2.5-.5,3.83,3.83,0,0,1,2.73,2.36,11.37,11.37,0,0,1,.74,3.67c1.33-1.59,3.42-3.34,5.2-2.28a3.58,3.58,0,0,1,1.27,1.55c1.4,2.86,1.17,6.2.91,9.37l-1,0Z" fill="#e6e6e6"/></svg>