<svg id="Layer_1" data-name="Layer 1" xmlns="http://www.w3.org/2000/svg" viewBox="0 0 400 300"><title>#10 presentation</title><rect x="115.34" y="34.67" width="199.32" height="159.64" fill="#e6e6e6"/><path d="M134.43,54.9s15.28,5.47,7.38,17.81S134.43,104,134.43,104s44.81-8.76,43.9,36.05l17.58-3.33,14.25-15.27,14.48-24,4.27,2.35-23.75,51-6.82-4s-6.93,33-21.68,47.5H133.52l-9.86-49.22-8.32-55.65Z" opacity="0.1"/><path d="M130.2,97.45s24.64,6,33.64,53.36l30.82-23,6.29,7.44-35.9,37.56a9.32,9.32,0,0,1-13.16.32l-21.47-20.38Z" fill="#68e1fd"/><path d="M130.2,97.45s24.64,6,33.64,53.36l30.82-23,6.29,7.44-35.9,37.56a9.32,9.32,0,0,1-13.16.32l-21.47-20.38Z" fill="#fff" opacity="0.2"/><ellipse cx="199.5" cy="263.29" rx="145.16" ry="16.11" fill="#e6e6e6" opacity="0.45"/><path d="M127.86,67.85s.67,7.69-.63,12.8a3.87,3.87,0,0,1-4.73,2.79c-2.56-.69-5.83-2.36-6.69-6.44l-2.3-6.74a6.92,6.92,0,0,1,3-7.4C120.91,59.74,127.69,63.15,127.86,67.85Z" fill="#f4a28c"/><polygon points="114.66 72.04 105.86 91.42 117.31 99.91 119.59 81.68 114.66 72.04" fill="#f4a28c"/><path d="M114.25,91c-1.93-.47-3.86-1-5.76-1.61C100,86.7,73.7,80,66.2,98.37c-9,22,18,89,18,89l46-4,11-58S150.68,99.77,114.25,91Z" fill="#68e1fd"/><path d="M128,72.71l2.15,3a1.23,1.23,0,0,1-.77,1.93l-3,.56Z" fill="#f4a28c"/><path d="M119.53,82.2A9.43,9.43,0,0,1,116,78.58s-2.75,4.81,2.85,8.84Z" fill="#ce8172" opacity="0.31"/><path d="M133.62,99.91S112,104,107,89l11.3,3.16A44.46,44.46,0,0,1,133.62,99.91Z" opacity="0.08"/><path d="M310.14,245.7s-12.57-3.37-15.35-15c0,0,19.44-4,20.08,16.07Z" fill="#68e1fd" opacity="0.58"/><path d="M311.68,244.45s-8.83-13.83-1.17-26.83c0,0,14.83,9.33,8.33,26.83Z" fill="#68e1fd" opacity="0.73"/><path d="M313.94,244.45s4.57-14.66,18.57-17.5c0,0,2.67,9.5-9,17.5Z" fill="#68e1fd"/><polygon points="304.83 244.16 307.45 261.56 323.48 261.56 325.77 244.16 304.83 244.16" fill="#24285b"/><path d="M149.09,255.14s2,3.64,5.56,3.36,5,3,2,4.39-11.75-1.3-11.75-1.3l-.6-5.08Z" fill="#68e1fd"/><path d="M106,250.65s-.72,4.1,2.21,6.11,2,5.48-1.19,4.69S98.7,253,98.7,253l2.73-4.32Z" fill="#68e1fd"/><path d="M89.12,99.8s8.89,12.34,5.56,39.34,40.67,15.67,40.67,15.67l-5.15,28.56-46,4-5.63-15.18L67.15,132.58Z" opacity="0.08"/><polygon points="119.53 140.21 125.07 108.39 142.89 119.65 162.5 113.18 157.07 147.29 137.18 153.68 119.53 140.21" fill="#ffd200"/><path d="M69.21,93.11c-10.41,11.22-22.92,35.12-13.27,75.76A8.94,8.94,0,0,0,67,175.39l62.32-17.32L127,148.73l-48.66,6s13.49-28,10.77-54.93A11.55,11.55,0,0,0,69.21,93.11Z" fill="#68e1fd"/><path d="M121.12,131s7.41,11.38,15.57,12,19.19-3,20.38,4.24l-19.89,6.39-17.65-13.47Z" opacity="0.08"/><path d="M69.21,93.11c-10.41,11.22-22.92,35.12-13.27,75.76A8.94,8.94,0,0,0,67,175.39l62.32-17.32L127,148.73l-48.66,6s13.49-28,10.77-54.93A11.55,11.55,0,0,0,69.21,93.11Z" fill="#fff" opacity="0.2"/><path d="M88.55,153.47v15.94l40.8-11.34s12.66-1.26,15.33-7.26S135.35,141,127,148.73Z" fill="#f4a28c"/><polygon points="88.56 153.47 88.56 169.41 96.97 166.94 96.97 152.44 88.56 153.47" fill="#fff"/><polygon points="142.89 119.65 130.06 105.18 128.75 110.71 142.89 119.65" fill="#ffd200"/><path d="M84.2,187.37l17.58,20.82a25.7,25.7,0,0,1,3.34,28.11l-5.61,11.17,8.6,4.4L116,239.25a45.34,45.34,0,0,0,5.29-35.86h0A13.05,13.05,0,0,1,123.54,192l6.66-8.65Z" fill="#24285b"/><polygon points="142.89 119.65 159.02 108.39 159.02 114.33 142.89 119.65" fill="#ffd200"/><polygon points="198.34 138.96 224.6 92.33 226.58 93.52 202.97 141.42 198.34 138.96" fill="#24285b"/><path d="M130.2,183.37,152,255.14l-9.7,2s-14.87-43-29.58-63.68Z" fill="#24285b"/><path d="M170.59,145.77l8.93,11.9L201,135.25s8.88-.61,11.05-5.44-4.67-13-17.34-2Z" fill="#f4a28c"/><polygon points="167.01 148.44 175.69 161.67 181.56 155.54 173.53 143.59 167.01 148.44" fill="#fff"/><circle cx="203.05" cy="220.73" r="5.92" fill="none" stroke="#a5a5a5" stroke-miterlimit="10" stroke-width="3"/><rect x="115.34" y="20.81" width="199.32" height="13.86" fill="#c9c9c9"/><rect x="178.83" y="57.24" width="111.67" height="8.52" fill="#c9c9c9"/><rect x="178.83" y="74.49" width="111.67" height="8.52" fill="#c9c9c9" opacity="0.55"/><rect x="235.5" y="91.75" width="52.9" height="66.87" fill="#c9c9c9"/><polygon points="240.16 149.62 254.83 115.75 266.16 141.95 273.16 126.87 282.5 149.62 240.16 149.62" fill="#fff"/><circle cx="265.75" cy="107.54" r="5.92" fill="#fff"/><line x1="203.05" y1="214.81" x2="203.05" y2="194.31" fill="none" stroke="#a5a5a5" stroke-miterlimit="10" stroke-width="3"/><rect x="235.5" y="166" width="52.9" height="9.69" fill="#fff" opacity="0.57"/><path d="M114,76.15s2.57,7.35,6.28,8.35,9,1.48,8.45-4.87c-.37-3.95-4.87-2.52-10.12-1.45,0,0-2.48-4.93-2-8.05,0,0,3.35-.63,3-3.63,0,0,7.61,4.22,9.22,0s1.29-6.62-2.29-8.12-13.58-.5-16.08,4S114,76.15,114,76.15Z" fill="#24285b"/><path d="M114.71,75.06a3.33,3.33,0,0,0-1-3.41,2.2,2.2,0,0,0-2.47-.3c-2.57,1.19-.73,6.29,3,5.52Z" fill="#f4a28c"/></svg>