<svg id="Layer_1" data-name="Layer 1" xmlns="http://www.w3.org/2000/svg" viewBox="0 0 400 300"><rect x="107.8" y="112.68" width="49.87" height="46" fill="#ffd200"/><rect x="128.22" y="112.68" width="9.19" height="13.45" fill="#fff" opacity="0.44"/><rect x="141.16" y="142.98" width="9.28" height="9.28" fill="#fff"/><rect x="82.71" y="158.54" width="234.78" height="36.5" rx="18.25" fill="#e6e6e6"/><ellipse cx="197.82" cy="243.68" rx="161.02" ry="6.18" fill="#e6e6e6" opacity="0.45"/><path d="M160,109.25s-35.47,40.83-9.34,54.49c18.06,9.44,38.14-3.57,38.14-3.57Z" fill="#68e1fd"/><path d="M160,109.25s-35.47,40.83-9.34,54.49c18.06,9.44,38.14-3.57,38.14-3.57Z" opacity="0.08"/><path d="M221.81,240.46l4.78,3.74a1.13,1.13,0,0,1-.7,2h-6a3.23,3.23,0,0,1-3.23-3.24v-2.52Z" fill="#68e1fd"/><path d="M170.78,240.46,166,244.2a1.13,1.13,0,0,0,.7,2h6.05A3.23,3.23,0,0,0,176,243v-2.52Z" fill="#68e1fd"/><path d="M190.2,103,191,89.42s1-8.72,5.34-7.14,8.91,10.16,6.56,12.83c-1.27,1.44-2.6.56-4.31.72-1.47.14-1.21-.08-1.21,1.39v5.18Z" fill="#f4a28c"/><path d="M185.86,102.29s-27.18-2.42-30.73,15.92,21.74,53,21.74,53l35.24-1.37S266.87,92.91,185.86,102.29Z" fill="#68e1fd"/><path d="M209.83,109.7s-21.07,12.72-10.73,32.09c6.64,12.43-10.34,29-10.34,29l23.35-.91s8.56-12.69,10.27-17.63S209.83,109.7,209.83,109.7Z" opacity="0.08"/><polygon points="176.87 171.2 168.87 240.47 176.7 240.47 194.19 184.87 213.9 240.48 222.87 240.48 212.12 169.83 176.87 171.2" fill="#24285b"/><path d="M190.2,97.33h4.24s.92-7.83,3.92-9.33,6-4.33,3.33-6.92-6.45-5.58-10.89-2.5S184.79,89.08,190.2,97.33Z" fill="#24285b"/><path d="M185.1,86.17l23.18,1.13-2.64-3.9s-1.44-9.15-6.72-10.51S184.42,74.59,185.1,86.17Z" fill="#ffd200"/><rect x="55.72" y="62.46" width="59.91" height="180.88" fill="#e6e6e6"/><rect x="115.64" y="158.54" width="8.85" height="36.5" opacity="0.08"/><rect x="66.62" y="82.09" width="38.13" height="51.8" fill="#24285b"/><circle cx="78.43" cy="98.06" r="5.3" fill="#ffd200"/><circle cx="78.43" cy="115.04" r="5.3" fill="#68e1fd"/><rect x="88.83" y="92.76" width="10.09" height="27.57" fill="#fff" opacity="0.17"/><rect x="246.7" y="112.68" width="49.87" height="46" fill="#ffd200"/><rect x="267.13" y="112.68" width="9.19" height="13.45" fill="#fff" opacity="0.44"/><rect x="280.06" y="142.98" width="9.28" height="9.28" fill="#fff"/><rect x="323.44" y="197.44" width="49.87" height="46" fill="#ffd200"/><rect x="343.87" y="197.44" width="9.19" height="13.45" fill="#fff" opacity="0.44"/><rect x="356.8" y="227.74" width="9.28" height="9.28" fill="#fff"/><path d="M205.26,115c.85-7.82,9.53-12.35,16.25-8.25,4.71,2.87,9.41,7.9,12,16.66,5,17.16,2.55,27.32,36,27.83v9.19S198.45,177.71,205.26,115Z" fill="#68e1fd"/><path d="M205.26,115c.85-7.82,9.53-12.35,16.25-8.25,4.71,2.87,9.41,7.9,12,16.66,5,17.16,2.55,27.32,36,27.83v9.19S198.45,177.71,205.26,115Z" fill="#fff" opacity="0.39"/><path d="M269.47,152.9s8.72-1.24,9.57,1.31.26,5.09-9.57,4.33Z" fill="#f4a28c"/><polygon points="122.28 112.68 129.09 158.54 115.64 158.54 115.64 112.68 122.28 112.68" opacity="0.08"/><rect x="276.32" y="171.2" width="25.87" height="72.14" fill="#e6e6e6"/><circle cx="293.45" cy="175.92" r="8.74" opacity="0.08"/><polygon points="257.77 66.25 257.77 84.62 269.65 84.62 272.24 91.93 275.31 84.62 287.18 84.62 287.18 66.25 257.77 66.25" fill="#e6e6e6"/><path d="M271,79.54h0a.9.9,0,0,1-.68-.35l-3.11-4a.92.92,0,0,1,1.46-1.13l2.44,3.14,6-6.5a.9.9,0,0,1,1.29,0,.91.91,0,0,1,.05,1.3l-6.75,7.29A.93.93,0,0,1,271,79.54Z" opacity="0.12"/><polygon points="335.5 156.24 335.5 174.61 347.37 174.61 349.96 181.93 353.03 174.61 364.9 174.61 364.9 156.24 335.5 156.24" fill="#e6e6e6"/><path d="M348.72,169.53h0a.91.91,0,0,1-.69-.36l-3.11-4a.92.92,0,0,1,1.46-1.13l2.44,3.14,6-6.5a.92.92,0,1,1,1.34,1.25l-6.75,7.3A1,1,0,0,1,348.72,169.53Z" opacity="0.12"/></svg>