<svg id="Layer_1" data-name="Layer 1" xmlns="http://www.w3.org/2000/svg" viewBox="0 0 400 300"><title>#122_project presentation_twocolour</title><ellipse cx="277.38" cy="261.12" rx="86.69" ry="8.14" fill="#e6e6e6" opacity="0.45"/><rect x="74.81" y="39.78" width="227.75" height="157.06" fill="#e6e6e6"/><path d="M280.83,64.9s-7.89,1.33-4.67,10.34,6.19,21.32-2,24.74-36.5-3.92-47.45,34.31L206.61,98.86s-6.39,7.74,0,24.62c5.85,15.47,10.75,56.44,29.1,60.71a7.61,7.61,0,0,1,6,6.6l.61,6.06,16.32-.37L285,97.7l6.67-20.36Z" opacity="0.08"/><path d="M255.05,101.25s-16.19,22.51-19.49,41.51L215.88,105.9l-7,4.45s17.5,57.76,32.3,59.88S268,131.28,268,131.28Z" fill="#68e1fd"/><path d="M255.05,101.25s-16.19,22.51-19.49,41.51L215.88,105.9l-7,4.45s17.5,57.76,32.3,59.88S268,131.28,268,131.28Z" fill="#fff" opacity="0.46"/><circle cx="93.18" cy="54.19" r="4.38" fill="#24285b"/><circle cx="106.21" cy="54.19" r="4.38" fill="#68e1fd"/><circle cx="118.49" cy="54.19" r="4.38" fill="#ffd200"/><path d="M283.55,70.44a31.91,31.91,0,0,0,1,8.5,2.58,2.58,0,0,0,3.28,1.64A5.73,5.73,0,0,0,292,76l1.21-4.6a4.62,4.62,0,0,0-2.38-4.79C287.8,64.7,283.45,67.3,283.55,70.44Z" fill="#f4a28c"/><polygon points="293.38 74.02 295.44 90.78 286.12 91.26 288.36 78.87 293.38 74.02" fill="#f4a28c"/><path d="M294.18,75.31h0a.47.47,0,0,1-.34.49,3.41,3.41,0,0,1-3.95-1.23,4.31,4.31,0,0,1-.33-4.71,20.35,20.35,0,0,1-4.72.7,4.7,4.7,0,0,1-1.58-.2l-1.6-3.76s-2.39-3.71-.18-4.71,3.47,1.51,5.17-.5,2.06-2.74,4.05-1.87-.06,2.54,3.06,2.29,3.28,1,3.42,2.44a2.54,2.54,0,0,1-.49,1.35A15.77,15.77,0,0,0,294.18,75.31Z" fill="#24285b"/><path d="M289.33,74.45s-.1-2,1.4-1.93,1.66,2.91-.34,3.32Z" fill="#f4a28c"/><path d="M283.67,73.69l-1.29,2.08A.83.83,0,0,0,283,77l2,.23Z" fill="#f4a28c"/><path d="M288.1,80.52s1.19,0,3.55-1.69c0,0-.13,3.37-4.24,5.33Z" fill="#ce8172" opacity="0.31"/><path d="M331.06,119.42c1.83-14.49,2.16-21.35-23.14-29.32-12.05-3.8-29.11-1-44.82,6.12-31.17,14.17,5.53,50.67,2.27,75.51l40.16,5.74S327.08,151,331.06,119.42Z" fill="#68e1fd"/><path d="M304.63,89.25s-.48-5.69-11.72-4.62-16.77.27-16.75,6.76C276.16,91.39,282.79,99.38,304.63,89.25Z" fill="#68e1fd"/><path d="M304.63,89.25s-.48-5.69-11.72-4.62-16.77.27-16.75,6.76C276.16,91.39,282.79,99.38,304.63,89.25Z" fill="#fff" opacity="0.46"/><path d="M315,104.47s-10.91,5.92-10.39,24-5.15,24-15.77,24.9S315,150.63,315,150.63L323.87,129Z" opacity="0.08"/><path d="M314.53,107.37c0-8.15,10.5-11.67,15.24-5,4,5.61,7.41,13.67,8,25.11,1.6,30.43-1.38,42.29-13.46,42.29C315.83,169.73,314.55,130.66,314.53,107.37Z" fill="#68e1fd"/><path d="M314.53,107.37c0-8.15,10.5-11.67,15.24-5,4,5.61,7.41,13.67,8,25.11,1.6,30.43-1.38,42.29-13.46,42.29C315.83,169.73,314.55,130.66,314.53,107.37Z" fill="#68e1fd"/><path d="M314.53,107.37c0-8.15,10.5-11.67,15.24-5,4,5.61,7.41,13.67,8,25.11,1.6,30.43-1.38,42.29-13.46,42.29C315.83,169.73,314.55,130.66,314.53,107.37Z" fill="#fff" opacity="0.46"/><path d="M215.46,248.58s-8.52-2.33-10.37-10.25c0,0,13.19-2.67,13.57,10.95Z" fill="#68e1fd" opacity="0.58"/><path d="M216.5,247.73s-5.95-9.4-.71-18.2c0,0,10,6.38,5.57,18.22Z" fill="#68e1fd" opacity="0.73"/><path d="M218,247.74s3.14-9.93,12.64-11.81c0,0,1.78,6.45-6.15,11.84Z" fill="#68e1fd"/><polygon points="211.86 247.52 213.59 259.33 224.46 259.37 226.06 247.58 211.86 247.52" fill="#24285b"/><rect x="252.32" y="134.29" width="76.56" height="119.3" fill="#24285b"/><rect x="244.55" y="246.6" width="92.78" height="12.78" fill="#24285b"/><rect x="244.55" y="246.6" width="92.78" height="12.78" fill="#fff" opacity="0.08"/><path d="M278,140.13s-3.39-20.38,5.6-27.37" fill="none" stroke="#24285b" stroke-miterlimit="10" stroke-width="2"/><circle cx="283.97" cy="112.54" r="3.43" fill="#24285b"/><path d="M268,134.29s10.18-13.13,22.44,0Z" fill="#24285b"/><ellipse cx="291.13" cy="189.11" rx="20.53" ry="27.38" fill="#fff" opacity="0.08"/><path d="M214.51,106.78s-4.63-10.15-8.28-10.45,2.67,14,2.67,14Z" fill="#f4a28c"/><circle cx="142.07" cy="110.34" r="35.11" fill="#fff"/><path d="M142.07,75.24v35.1l34.38-7.15S171.65,75,142.07,75.24Z" fill="#ffd200"/><path d="M142.07,110.34l-19.52,29.19s19.68,15,42.47-2.63c0,0,15.6-11.3,11.43-33.71Z" fill="#24285b"/><rect x="120.47" y="165.94" width="43.19" height="14.34" fill="#a5a5a5" opacity="0.39"/><rect x="48.61" y="164.37" width="57.6" height="49.47" fill="#ffd200"/><path d="M78.32,174.78c.73,0,1,.26,1,1v1.55a7.13,7.13,0,0,1,5.85,4.42c.38.76.22,1.18-.64,1.56l-1.56.7c-.73.34-1.08.19-1.49-.58A4,4,0,0,0,77.36,181c-2.7,0-3.94.79-3.94,2.6a2.41,2.41,0,0,0,2.2,2.13,18.05,18.05,0,0,0,2.28.35,15,15,0,0,1,4.23.83,5.67,5.67,0,0,1,1.87,1,6.15,6.15,0,0,1,1.69,4.45c0,3.46-2.32,5.81-6.42,6.42v1.65c0,.73-.22,1-1,1H76.57c-.73,0-1-.25-1-1V198.8a7.23,7.23,0,0,1-6.36-4.89,1,1,0,0,1,.73-1.47l1.56-.57c.79-.28,1.14-.09,1.49.7a4.15,4.15,0,0,0,4.29,2.67c2.92,0,4.38-.92,4.38-2.8a1.93,1.93,0,0,0-1.36-2,10.9,10.9,0,0,0-3.15-.61,14.17,14.17,0,0,1-4.25-.92,5.91,5.91,0,0,1-1.85-1,5.8,5.8,0,0,1-1.71-4.32c0-3.43,2.16-5.72,6.23-6.26v-1.55c0-.73.25-1,1-1Z" fill="#fff"/><rect x="199.53" y="75.24" width="50.93" height="9.68" fill="#a5a5a5" opacity="0.39"/></svg>