<svg id="Layer_1" data-name="Layer 1" xmlns="http://www.w3.org/2000/svg" viewBox="0 0 400 300"><rect x="63.04" y="59.87" width="100.3" height="72.83" fill="#e6e6e6" opacity="0.44"/><ellipse cx="201.09" cy="267.29" rx="162.21" ry="13.24" fill="#e6e6e6" opacity="0.45"/><rect x="104.88" y="167.21" width="61.86" height="98.55" fill="#a5a5a5" opacity="0.79"/><rect x="131.88" y="167.21" width="53.51" height="98.55" fill="#e6e6e6"/><rect x="140.35" y="225.04" width="54.52" height="26.88" fill="#f2f2f2"/><circle cx="168.43" cy="237.41" r="3.77" fill="#a5a5a5"/><path d="M94.51,251.87s-10.94-2.94-13.36-13.1c0,0,16.92-3.5,17.47,14Z" fill="#68e1fd" opacity="0.58"/><path d="M95.84,250.78s-7.68-12-1-23.35c0,0,12.91,8.12,7.25,23.35Z" fill="#68e1fd" opacity="0.73"/><path d="M97.81,250.78s4-12.77,16.17-15.23c0,0,2.32,8.27-7.83,15.23Z" fill="#68e1fd"/><polygon points="89.89 250.53 92.16 265.67 106.12 265.67 108.11 250.53 89.89 250.53" fill="#24285b"/><rect x="104.88" y="167.21" width="61.86" height="98.55" fill="#a5a5a5" opacity="0.79"/><rect x="131.88" y="167.21" width="53.51" height="98.55" fill="#e6e6e6"/><rect x="140.35" y="225.04" width="54.52" height="26.88" fill="#f2f2f2"/><circle cx="168.43" cy="237.41" r="3.77" fill="#a5a5a5"/><rect x="139.1" y="184.98" width="54.52" height="26.88" fill="#a5a5a5" opacity="0.79"/><rect x="150.5" y="184.98" width="54.52" height="26.88" fill="#f2f2f2"/><circle cx="178.57" cy="197.35" r="3.77" fill="#a5a5a5"/><path d="M94.51,251.87s-10.94-2.94-13.36-13.1c0,0,16.92-3.5,17.47,14Z" fill="#68e1fd" opacity="0.58"/><path d="M95.84,250.78s-7.68-12-1-23.35c0,0,12.91,8.12,7.25,23.35Z" fill="#68e1fd" opacity="0.73"/><path d="M97.81,250.78s4-12.77,16.17-15.23c0,0,2.32,8.27-7.83,15.23Z" fill="#68e1fd"/><polygon points="89.89 250.53 92.16 265.67 106.12 265.67 108.11 250.53 89.89 250.53" fill="#24285b"/><path d="M285.32,260.19s2.15,3.46,5.59,3,5,2.68,2.18,4.19-11.53-.71-11.53-.71l-1.05-6.26Z" fill="#68e1fd"/><path d="M227.08,260.19s-2.15,3.46-5.59,3-5,2.68-2.18,4.19,11.53-.71,11.53-.71l1-6.26Z" fill="#68e1fd"/><path d="M266.48,93s18.92,4.42,23,24.79,4.35,38.29,15.46,38.91,19.15-42,19.15-42l8.33,2.16s-8.63,92.63-53.71,49.4S266.48,93,266.48,93Z" fill="#68e1fd"/><path d="M266.48,93s18.92,4.42,23,24.79,4.35,38.29,15.46,38.91,19.15-42,19.15-42l8.33,2.16s-8.63,92.63-53.71,49.4S266.48,93,266.48,93Z" fill="#fff" opacity="0.46"/><rect x="143.31" y="178.95" width="54.37" height="6.03" fill="#ffd200"/><rect x="143.31" y="178.95" width="54.37" height="6.03" opacity="0.08"/><path d="M248.42,63.58s1.32,6.36.74,10.76a3.25,3.25,0,0,1-3.67,2.8c-2.22-.32-5.11-1.4-6.23-4.72l-2.6-5.4a5.83,5.83,0,0,1,1.82-6.48C241.8,57.49,247.81,59.67,248.42,63.58Z" fill="#f4a28c"/><rect x="147.48" y="178.95" width="54.37" height="6.03" fill="#ffd200"/><polygon points="237.13 68 236.29 89.26 248.03 88.88 243.93 73.57 237.13 68" fill="#f4a28c"/><path d="M246.85,64a26.22,26.22,0,0,1-6,.25,5.41,5.41,0,0,1,.7,5.9,4.4,4.4,0,0,1-5.08,2.37l-.87-8.29A6.62,6.62,0,0,1,238.23,58a22.39,22.39,0,0,1,2.61-1.68c2.27-1.24,5.95-.06,7.89-1.93a1.57,1.57,0,0,1,2.59.73c.67,2.47.69,6.49-2.55,8.27A5.94,5.94,0,0,1,246.85,64Z" fill="#24285b"/><path d="M242.22,69.91s-.34-2.47-2.18-2.06-1.37,4,1.2,4Z" fill="#f4a28c"/><path d="M249,67.63l2.09,2.27a1,1,0,0,1-.45,1.7l-2.41.75Z" fill="#f4a28c"/><path d="M245,76.88a7.7,7.7,0,0,1-4-1.8s.63,3.84,5.32,7.15Z" fill="#ce8172" opacity="0.31"/><path d="M236.29,89.26,248,88.88s31.48.5,33.44,23.44-11.47,40.84-7,58.74l-42.71,5.46S161.74,106.17,236.29,89.26Z" fill="#68e1fd"/><path d="M230.69,104.74s14.45,11.57,4.84,32.3-3.68,27.32,10.72,23.49,20.23-19.41,20.23-19.41L273.56,163a29.19,29.19,0,0,0,.91,8l-42.71,5.46-1.55-1.62-19.34-27.2Z" opacity="0.08"/><rect x="256.48" y="119.68" width="31.69" height="42.86" transform="translate(26.35 -42.11) rotate(9.29)" fill="#ffd200"/><path d="M278.67,144.28s5,5.61.88,9.53-9.84,8.59-9.84,8.59l-14.33-2.46Z" opacity="0.08"/><rect x="269.16" y="117.22" width="12.82" height="6.68" transform="translate(23.07 -42.9) rotate(9.29)" fill="#24285b"/><path d="M232,120.31c7.25-14-9.7-28-22.22-18.46-6.57,5-12.76,12.31-14.73,22.5-4.75,24.61-2,46.71,14.83,53.15S270.56,152,270.56,152l-5.6-9.23s-38.32,27.41-47.55,8.67C211.6,139.69,225.73,132.39,232,120.31Z" fill="#68e1fd"/><path d="M232,120.31c7.25-14-9.7-28-22.22-18.46-6.57,5-12.76,12.31-14.73,22.5-4.75,24.61-2,46.71,14.83,53.15S270.56,152,270.56,152l-5.6-9.23s-38.32,27.41-47.55,8.67C211.6,139.69,225.73,132.39,232,120.31Z" fill="#fff" opacity="0.46"/><path d="M266.48,145.31s5.62-5.84,10.86-2.91-6.78,9.64-6.78,9.64Z" fill="#f4a28c"/><path d="M231.76,176.52l-8.09,84,8.22-.05s12.79-62.38,27.06-70.5,15.52-18.87,15.52-18.87Z" fill="#24285b"/><path d="M274.47,171.06l13.85,89.41-7.81,0s-11.39-57.58-32.24-71.06Z" fill="#24285b"/><path d="M325.46,115.08s-.95-9.93,4.61-9.28,2.31,11.08,2.31,11.08Z" fill="#f4a28c"/><rect x="320.06" y="86.65" width="6.57" height="19.12" transform="matrix(0.84, -0.54, 0.54, 0.84, -0.24, 191.62)" fill="#ffd200"/><rect x="320.06" y="86.65" width="6.57" height="19.12" transform="matrix(0.84, -0.54, 0.54, 0.84, -0.24, 191.62)" opacity="0.08"/><rect x="327.37" y="97.75" width="10.11" height="24.57" transform="translate(-6.31 198.79) rotate(-33)" fill="#24285b"/><path d="M295.76,54.88a21.55,21.55,0,1,0,29.81,6.34A21.55,21.55,0,0,0,295.76,54.88Zm20,30.84a15.22,15.22,0,1,1,4.48-21.06A15.21,15.21,0,0,1,315.78,85.72Z" fill="#ffd200"/><polyline points="301.62 74.22 306.37 79.78 313.12 67.77" fill="none" stroke="#68e1fd" stroke-linecap="round" stroke-linejoin="round" stroke-width="5"/><rect x="78.83" y="75.22" width="14.55" height="14.55" fill="#a5a5a5"/><rect x="78.83" y="102.97" width="14.55" height="14.55" fill="#a5a5a5"/><polyline points="83.61 81.79 85.12 85.12 90.03 80.29" fill="none" stroke="#fff" stroke-linecap="round" stroke-linejoin="round" stroke-width="2"/><polyline points="83.61 109.63 85.12 112.96 90.03 108.13" fill="none" stroke="#fff" stroke-linecap="round" stroke-linejoin="round" stroke-width="2"/><rect x="99.81" y="77.98" width="47.83" height="7.83" fill="#a5a5a5" opacity="0.19"/><rect x="99.81" y="105.44" width="47.83" height="7.83" fill="#a5a5a5" opacity="0.18"/></svg>