<svg id="Layer_1" data-name="Layer 1" xmlns="http://www.w3.org/2000/svg" viewBox="0 0 400 300"><path d="M104.48,64.51C72,76.66,47.93,107.45,43.18,144.69c-4,31.38,5.56,66.06,61.84,75.94,109.51,19.23,212.07,24.7,238.26-27.16S361.4,52.74,305.83,47C261.65,42.42,167.88,40.8,104.48,64.51Z" fill="#e6e6e6" opacity="0.3"/><path d="M161.16,195.85l-12-26.48a3.63,3.63,0,0,0-3.31-2.14H93.49a3.14,3.14,0,0,0-2.91,4.34l11.31,27.66a3.06,3.06,0,0,0,2.84,1.9h53A3.74,3.74,0,0,0,161.16,195.85Z" fill="#ffd200"/><path d="M154.12,194.35l-10-22.18a2.22,2.22,0,0,0-2-1.31H98.77a1.32,1.32,0,0,0-1.22,1.82l9.58,23.44a2.23,2.23,0,0,0,2.07,1.38h42.89A2.23,2.23,0,0,0,154.12,194.35Z" fill="#fff"/><rect x="105.71" y="200.94" width="79.4" height="4.99" transform="translate(290.82 406.88) rotate(-180)" fill="#ffd200"/><path d="M219.56,150.67s-4.72-11.86-8-11.36-.67,5.07-.67,5.07-8.07-3.41-10.64-1,13.15,11.49,13.15,11.49Z" fill="#f4a28c"/><polygon points="244.82 178.44 220.89 148.62 210.56 155.7 228.96 205.84 252.44 205.93 244.82 178.44" fill="#68e1fd"/><polygon points="244.82 178.44 220.89 148.62 210.56 155.7 228.96 205.84 252.44 205.93 244.82 178.44" opacity="0.09"/><rect x="62.38" y="205.83" width="266.32" height="33.36" fill="#e6e6e6"/><rect x="131.27" y="223.82" width="180.99" height="15.38" fill="#c1c1c1"/><polygon points="258.78 122.19 261.24 137.77 275.21 139 267.06 114.01 258.78 122.19" fill="#f4a28c"/><path d="M261.8,105.29a7.32,7.32,0,0,0-9.94,7.21c.23,5.79,1.68,13.91,8.08,12.63,9.79-2,7.65-14.72,7.65-14.72A13.32,13.32,0,0,0,261.8,105.29Z" fill="#f4a28c"/><path d="M308.9,239.19H256.62l-5.72-13.55a186.6,186.6,0,0,0-11.81-23.73c-17.33-28.83-5.18-66.66,27.91-69.71a41.94,41.94,0,0,1,26.65,6.6c17.94,11.27,26.89,32.61,23.3,53.49Z" fill="#68e1fd"/><path d="M269.75,153.05a16.35,16.35,0,0,0-26.86-11,45.63,45.63,0,0,0-11.68,15.11c-9.56,20-24.8,33.16-76.18,32v12.54s74.7,15.84,101.58-14.34C268.07,174.48,270.61,162.53,269.75,153.05Z" fill="#68e1fd"/><path d="M269.75,153.05a16.35,16.35,0,0,0-26.86-11,45.63,45.63,0,0,0-11.68,15.11c-9.56,20-24.8,33.16-76.18,32v12.54s74.7,15.84,101.58-14.34C268.07,174.48,270.61,162.53,269.75,153.05Z" fill="#fff" opacity="0.44"/><path d="M155,192.55s-10.31-6.87-15.68-2.09S155,201.68,155,201.68Z" fill="#f4a28c"/><path d="M276.79,239.19c24.4-19.82,20.21-64.05,20.21-64.05-1.58-26.07-30-42.94-30-42.94l-2.61-11.62,5,.49,3.57,11c34.1,2.51,43,37.53,43,37.53l-11.17,69.64Z" opacity="0.09"/><path d="M263.59,117.31c-2-3.5-4.34-7.55-8.27-9s-2.93-3.65-.46-6.25c4.31-4.55,12.9-3.49,16.88.89,1.53,1.69,2.7,3.69,4.23,5.39,3.86,4.3,9.62,6.27,14.4,9.53,2.12,1.44,4.26,3.66,3.83,6.19a6.83,6.83,0,0,1-2.5,3.71,21.2,21.2,0,0,1-11.76,5.63c-4.4.43-9.12-1.19-11.76-4.74-2.42-3.26-2.32-7.45-4.34-10.89C263.76,117.59,263.68,117.45,263.59,117.31Z" fill="#24285b"/><path d="M258.74,114.28s.28-3.5,3.42-2.13.9,5.86-1.25,5.74S258.74,114.28,258.74,114.28Z" fill="#f4a28c"/><path d="M326.59,239.19H295.06c-28.05-13.3-10.83-67.75,14.6-69.56,18.9-1.35,28.79,16.64,33.89,33.54A29.69,29.69,0,0,1,326.59,239.19Z" fill="#ffd200"/><path d="M326.69,239.19h-6.17L316,235.37c32-24.7-3.25-65.79-3.25-65.79,21.23.53,30.5,32.56,30.5,32.56C349.38,224.69,334.31,235.36,326.69,239.19Z" opacity="0.09"/><path d="M310.74,239.19a134.9,134.9,0,0,0-4.24-30.68,5.85,5.85,0,0,1,11.29-3.08,145.2,145.2,0,0,1,4.8,33.76Z" fill="#ffd200"/><path d="M310.74,239.19a134.9,134.9,0,0,0-4.24-30.68,5.85,5.85,0,0,1,11.29-3.08,145.2,145.2,0,0,1,4.8,33.76Z" fill="#fff" opacity="0.44"/><circle cx="81.14" cy="117.12" r="5.19" fill="#24285b"/><circle cx="167.19" cy="141.9" r="5.19" fill="#24285b"/><circle cx="205.69" cy="130.45" r="5.19" fill="#24285b"/><polygon points="83.01 203.53 79.28 203.53 79.28 114.62 167.99 141.04 204.09 129.08 206.29 118.82 209.93 119.6 207.29 131.95 168.05 144.95 83.01 119.62 83.01 203.53" fill="#24285b"/><rect x="198.49" y="110.54" width="20.47" height="9.72" fill="#24285b"/><rect x="213.37" y="108.38" width="17.13" height="12.97" rx="4.73" fill="#24285b"/><path d="M70.27,205.83a11.81,11.81,0,0,1,23.61,0Z" fill="#24285b"/><rect x="163.2" y="66.96" width="69.23" height="23.09" rx="2.61" fill="#e6e6e6"/><path d="M179.5,83.56a5.12,5.12,0,0,1-2-.39,4.79,4.79,0,0,1-1.59-1.07,5,5,0,0,1-1-1.6,5.56,5.56,0,0,1,0-4,5.16,5.16,0,0,1,1-1.61,4.62,4.62,0,0,1,1.59-1.06,5.43,5.43,0,0,1,4,0,4.62,4.62,0,0,1,1.59,1.06,5,5,0,0,1,1,1.61,5.56,5.56,0,0,1,0,4,4.84,4.84,0,0,1-1,1.6,4.79,4.79,0,0,1-1.59,1.07A5.12,5.12,0,0,1,179.5,83.56Zm0-1.23A3.51,3.51,0,0,0,182.87,80a4.32,4.32,0,0,0,.26-1.49,4.27,4.27,0,0,0-.26-1.48,3.64,3.64,0,0,0-.73-1.22A3.54,3.54,0,0,0,181,75a3.6,3.6,0,0,0-4.12.82,3.5,3.5,0,0,0-.74,1.22,4.27,4.27,0,0,0-.26,1.48,4.32,4.32,0,0,0,.26,1.49,3.46,3.46,0,0,0,.74,1.21A3.42,3.42,0,0,0,178,82,3.57,3.57,0,0,0,179.5,82.33Z" fill="#c1c1c1"/><path d="M186.39,73.69h1.71l5.3,7.91h0V73.69h1.31v9.62h-1.66l-5.35-7.91h0v7.91h-1.3Z" fill="#c1c1c1"/><path d="M204,73.69h1.18l4.12,9.62h-1.52l-1-2.38h-4.58l-.95,2.38h-1.52Zm2.34,6.1-1.8-4.41h0l-1.82,4.41Z" fill="#c1c1c1"/><path d="M210.54,73.69h1.3v9.62h-1.3Z" fill="#c1c1c1"/><path d="M214.31,73.69h3.39a4.12,4.12,0,0,1,1.52.25,2.56,2.56,0,0,1,.94.64,2.2,2.2,0,0,1,.48.87,3.44,3.44,0,0,1,.14.93,2.42,2.42,0,0,1-.16.89,2.58,2.58,0,0,1-.47.78,2.89,2.89,0,0,1-.75.58,2.44,2.44,0,0,1-1,.29l2.73,4.39h-1.63l-2.45-4.24h-1.45v4.24h-1.31Zm1.31,4.24h1.71a4.74,4.74,0,0,0,.75-.06,2.29,2.29,0,0,0,.67-.22,1.32,1.32,0,0,0,.47-.47,1.58,1.58,0,0,0,.17-.8,1.54,1.54,0,0,0-.17-.79,1.25,1.25,0,0,0-.47-.47,2,2,0,0,0-.67-.22,4.76,4.76,0,0,0-.75-.07h-1.71Z" fill="#c1c1c1"/></svg>