<svg id="Layer_1" data-name="Layer 1" xmlns="http://www.w3.org/2000/svg" viewBox="0 0 400 300"><title>_</title><path d="M335,135.06c-9.67-37.52-29.28-61.77-62.14-69.65-45.47-10.91-103-11.59-147-.75-16.4,4-32.88,11.58-44.31,26.24-21.18,27.15-27,87.1-6.92,117.16,8.93,13.38,23.88,18.4,38,21.44,53.6,11.55,108.61,5.29,162.94.63,12.6-1.09,25.72-2.27,36.61-9.94C335.18,203.9,342.44,164,335,135.06Z" fill="#dddbdb" opacity="0.18"/><polygon points="214.25 159.21 221.39 127.95 258.79 136.22 253.43 169.4 214.25 159.21" fill="#24285b"/><polygon points="230.44 156.34 248.21 124.21 287.13 137.27 276.42 163.13 230.44 156.34" fill="#68e1fd"/><polygon points="230.44 156.34 248.21 124.21 287.13 137.27 276.42 163.13 230.44 156.34" opacity="0.1"/><path d="M108.74,134.22c7.89-12.45,33.57-12.29,50.22-1.74s18,27.49,10.07,39.94-22,15.71-38.65,5.16S100.85,146.67,108.74,134.22Z" fill="#e6e6e6"/><ellipse cx="145.12" cy="155.14" rx="17.26" ry="19.29" transform="translate(-63.6 194.69) rotate(-57.64)" fill="#ffd200"/><path d="M288.3,150.58l-2.52,12.55-3,14.88-3.11,15.49c-7.95,28.12-33,47.46-61.42,47.46H169.74c-28.44,0-53.47-19.34-61.42-47.46L105.21,178l-3-14.88L99.7,150.58Z" fill="#68e1fd"/><rect x="135.08" y="231.27" width="117.85" height="16.67" rx="3.09" fill="#24285b"/><polygon points="166.35 117.74 293.9 65.1 297.29 73.39 168.07 121.96 166.35 117.74" fill="#ffd200"/><polygon points="166.44 115.87 292.72 60.25 289.08 52.07 164.59 111.71 166.44 115.87" fill="#ffd200"/><path d="M178.6,111.61c-4.11,6.12-.34,39-.34,39h34c.71,0-1.78-40.73-1.45-47.53.14-3,1.19-4.2,1.19-4.2S182.7,105.48,178.6,111.61Z" fill="#68e1fd"/><path d="M178.6,111.61c-4.11,6.12-.34,39-.34,39h34c.71,0-1.78-40.73-1.45-47.53.14-3,1.19-4.2,1.19-4.2S182.7,105.48,178.6,111.61Z" fill="#fff" opacity="0.5"/><path d="M188.65,150.58h-3a25.5,25.5,0,0,0,.44-3.14,18.29,18.29,0,0,0-1-7.2,45.47,45.47,0,0,1-2-6.62,19.94,19.94,0,0,1,.25-6.93,39.31,39.31,0,0,0,1.12-7c0-2.4-1-4.49-1.5-6.78a15.18,15.18,0,0,1-.25-4.49c1-.53,2.06-1.06,3.24-1.57-.05.22-.09.44-.13.66a14.9,14.9,0,0,0,.79,7.19,16.39,16.39,0,0,1,.77,6.38c-.21,2.36-.83,4.63-1.23,6.95a14.94,14.94,0,0,0,.35,6.94c.6,2.07,1.45,4.05,2,6.15A22,22,0,0,1,188.65,150.58Z" fill="#fff" opacity="0.5"/><path d="M197.33,150.58h-3a23.72,23.72,0,0,0,.44-3.14,18.47,18.47,0,0,0-1-7.2,44.29,44.29,0,0,1-2-6.62,19.94,19.94,0,0,1,.25-6.93,39.31,39.31,0,0,0,1.12-7c0-2.4-1-4.49-1.5-6.78a17.44,17.44,0,0,1,.49-8.44c1.16-.41,2.34-.8,3.52-1.17a25.45,25.45,0,0,0-1.15,4.21,15,15,0,0,0,.79,7.19,16.39,16.39,0,0,1,.78,6.38c-.22,2.36-.84,4.63-1.24,6.95a14.81,14.81,0,0,0,.36,6.94c.59,2.07,1.44,4.05,2,6.15A22,22,0,0,1,197.33,150.58Z" fill="#fff" opacity="0.5"/><path d="M206,150.58h-3a23.72,23.72,0,0,0,.44-3.14,18.29,18.29,0,0,0-1-7.2,44.29,44.29,0,0,1-2-6.62,19.94,19.94,0,0,1,.25-6.93,39.31,39.31,0,0,0,1.12-7c0-2.4-1-4.49-1.5-6.78-.84-4,.13-7.79,1.47-11.44,1.28-.36,2.5-.69,3.62-1a34.78,34.78,0,0,0-2.23,7,15,15,0,0,0,.79,7.19,16.39,16.39,0,0,1,.78,6.38c-.22,2.36-.84,4.63-1.24,6.95a14.81,14.81,0,0,0,.36,6.94c.6,2.07,1.44,4.05,2,6.15A21.85,21.85,0,0,1,206,150.58Z" fill="#fff" opacity="0.5"/><polygon points="285.78 163.13 282.79 178.01 105.21 178.01 102.22 163.13 285.78 163.13" fill="#fff" opacity="0.5"/></svg>