<svg id="Layer_1" data-name="Layer 1" xmlns="http://www.w3.org/2000/svg" viewBox="0 0 400 300"><path d="M107.73,55.16C75.26,67.3,51.18,98.09,46.43,135.33c-4,31.39,5.56,66.07,61.84,75.95C217.78,230.5,320.34,236,346.53,184.11S364.65,43.39,309.08,37.64C264.89,33.07,171.13,31.45,107.73,55.16Z" fill="#e6e6e6" opacity="0.3"/><path d="M235.6,88.33l-2,1c-9.28,4.61-47.32,24.62-45.37,41.58,2.22,19.3,50.89,7.19,50.89,7.19L242,104.34s-28.16,17.8-26.94,10.93l24-21" fill="#68e1fd"/><path d="M235.6,88.33l-2,1c-9.28,4.61-47.32,24.62-45.37,41.58,2.22,19.3,50.89,7.19,50.89,7.19L242,104.34s-28.16,17.8-26.94,10.93l24-21" fill="#fff" opacity="0.46"/><path d="M241.05,84.78a4.29,4.29,0,0,1,1.59,1.3,4.35,4.35,0,0,1,.61,3.89,7.86,7.86,0,0,1-3.09,3.58,2.86,2.86,0,0,1-.83.48,2,2,0,0,1-1.59-.29,4.69,4.69,0,0,1-1.19-1.16,5.71,5.71,0,0,1-.83-5c.44-1.51,1.69-3.19,3.39-3.22A4.21,4.21,0,0,1,241.05,84.78Z" fill="#f4a28c"/><path d="M249,71a28.85,28.85,0,0,1,.65,8.23,21,21,0,0,1-1.63,4.91c-1.83,5-3.06,10.11-1.12,15.31a14.29,14.29,0,0,0,8.11,8.38,24,24,0,0,0,8.53,1.06c3.83,0,7.75-.14,11.32-1.52s6.77-4.28,7.53-8a4.65,4.65,0,0,0-.16-2.74,6.05,6.05,0,0,0-2.14-2.3,96.31,96.31,0,0,1-8.28-6.47c-4.35-4.06-5.78-8.67-7.7-14.11a17,17,0,0,0-1.94-4.29c-2.17-3.08-6.25-4.4-10-4-1.46.15-3.2.87-3.3,2.34" fill="#24285b"/><path d="M267.46,102.08c-1.65-2-5.07-7.15-5.15-16l-7.09,1.27S254.1,100.71,251,104l.07.07Z" fill="#f4a28c"/><path d="M267.46,102.08c-1.65-2-5.07-7.15-5.15-16l-7.09,1.27S254.1,100.71,251,104l.07.07Z" opacity="0.09"/><path d="M249.84,76.76s.24,16,8.67,16.57S264,75.78,264,75.78s-1.17-9.54-6.14-10.16S247.5,65.41,249.84,76.76Z" fill="#f4a28c"/><path d="M250.15,80.45s-4.42-.83-3.94,1.35.09,5.21,4.89,3.33Z" fill="#f4a28c"/><path d="M264.05,78.58s4.16-1.69,4.13.55.95,5.12-4.13,4.24Z" fill="#f4a28c"/><path d="M250.16,80.25a2.14,2.14,0,0,0,1.29-.46C254,78,255,74.26,254.58,71.3a54,54,0,0,0,4,6.43A11.18,11.18,0,0,0,261.66,81c1.89,1.06,3.19-1.27,3.44-2.94a26.89,26.89,0,0,0-.28-8.81c-.48-2.6-1.34-5.44-3.62-6.79a7.88,7.88,0,0,0-2.76-.91,7.79,7.79,0,0,0-3.33,0,3.79,3.79,0,0,0-2.52,2c.27-.62-2.67,0-3,.12-2.12.92-2.33,4.76-2.44,6.74a17.86,17.86,0,0,0,1.54,8.35c.27.6.65,1.25,1.3,1.39A.9.9,0,0,0,250.16,80.25Z" fill="#24285b"/><path d="M277.83,118.33s43.06-13.22,48.95,15.33-6.16,60.41-6.16,60.41H250.55Z" fill="#ffd200"/><path d="M286.72,157.37c-3.31,11.58-7.18,23-10.36,31.88-3.6,10-6.31,16.76-6.31,16.76l-40.83-2.66a40.87,40.87,0,0,0,.14-10.08c-.31-3.42,4.39-7.59,3-12.34-.8-2.79-5.91-17.78-7.24-20.93-7.26-17.17-1.81-42.59,10.44-51.82s36.15-12.93,53.62-3.13C297.73,109.82,293.4,133.92,286.72,157.37Z" fill="#68e1fd"/><rect x="63.5" y="200.44" width="272.99" height="53.8" fill="#c9c9c9"/><rect x="63.5" y="194.07" width="272.99" height="11.67" fill="#e6e6e6"/><path d="M235.6,187.6s-23.48-6.8-20.66,6.47H235.6Z" fill="#f4a28c"/><rect x="184.8" y="190.42" width="44.42" height="3.65" fill="#e6e6e6"/><rect x="83.79" y="118.04" width="68.15" height="51.59" fill="#e6e6e6"/><path d="M289.48,163.9l-6.24,24.76-6.88.59-47,4c-.31-3.42,4.39-7.59,3-12.34,16.93-2.88,31.71-10.94,24.14-33.27-8.33-24.6,10-38,10-38l20.17,47.68Z" opacity="0.08"/><polygon points="111.62 158.56 104.29 194.07 140.54 194.07 140.54 189.35 122.42 188.19 120.87 158.56 111.62 158.56" fill="#c9c9c9"/><path d="M265.83,112.59a12.94,12.94,0,0,1,15.91-10.94c9.95,2.47,22.46,10.31,24.33,33.78,3.17,39.83-8.11,58.64-8.11,58.64H235.6v-7.88l43.33-5.29S262.41,140,265.83,112.59Z" fill="#68e1fd"/><path d="M265.83,112.59a12.94,12.94,0,0,1,15.91-10.94c9.95,2.47,22.46,10.31,24.33,33.78,3.17,39.83-8.11,58.64-8.11,58.64H235.6v-7.88l43.33-5.29S262.41,140,265.83,112.59Z" fill="#fff" opacity="0.46"/><path d="M78.94,186.18s-6.22-1.69-7.58-7.48c0,0,9.64-1.95,9.91,8Z" fill="#68e1fd" opacity="0.58"/><path d="M79.7,185.57s-4.35-6.87-.52-13.29a11.06,11.06,0,0,1,4.07,13.3Z" fill="#68e1fd" opacity="0.73"/><path d="M80.82,185.57s2.29-7.25,9.23-8.63c0,0,1.3,4.71-4.49,8.65Z" fill="#68e1fd"/><polygon points="76.31 185.41 77.57 194.03 85.51 194.07 86.68 185.45 76.31 185.41" fill="#24285b"/><path d="M178.19,189.81a5.84,5.84,0,0,1-3.19-.91l.44-.68c2.68,1.74,6.43.37,8.37-1.89,2.18-2.55,2.84-6.16,3.18-9,.07-.64.14-1.28.2-1.92a29.71,29.71,0,0,1,1.55-7.95c1.51-3.85,4.76-7.35,9.66-10.38,1.9-1.18,3.92-2.24,5.87-3.26,2.17-1.13,4.41-2.3,6.49-3.64,4.31-2.79,6.85-5.89,7.56-9.24a20.07,20.07,0,0,0,.27-4.13,25.4,25.4,0,0,1,.11-3.25,13.82,13.82,0,0,1,6.44-10,26.89,26.89,0,0,1,5.22-2.23c1-.35,2.07-.71,3.07-1.14a22.62,22.62,0,0,0,13.31-22.21l.8-.07a23.43,23.43,0,0,1-13.8,23c-1,.44-2.08.81-3.12,1.16a26.66,26.66,0,0,0-5.07,2.16,13,13,0,0,0-6.05,9.43,27.56,27.56,0,0,0-.11,3.15,20,20,0,0,1-.28,4.29c-.75,3.57-3.41,6.85-7.91,9.76-2.11,1.36-4.37,2.54-6.55,3.68-1.94,1-4,2.06-5.83,3.22-4.74,2.95-7.88,6.31-9.33,10a29.33,29.33,0,0,0-1.5,7.74c-.06.64-.13,1.29-.2,1.93-.35,3-1,6.73-3.37,9.46A8.58,8.58,0,0,1,178.19,189.81Z" fill="#24285b"/><path d="M178.73,187.56c-1.06-.31-15.9-5.15-15.9-5.15L161.47,178H147.23l-1.06,3.23L144,182v12.12h36.39S179.79,187.86,178.73,187.56Z" fill="#ffd200"/><path d="M249.35,100.93s-5,.92-6.81-1.78-4-16.84-4.18-18.25,3.58-6.11,4.86-5.2S247,81.6,246,82.58a21.71,21.71,0,0,1-3.43,2.34s.76,8.34,2.42,9.56,4.39-.84,5.3.71S251.89,100.72,249.35,100.93Z" fill="#ffd200"/></svg>