<svg id="Layer_1" data-name="Layer 1" xmlns="http://www.w3.org/2000/svg" viewBox="0 0 400 300"><path d="M257.76,103.58s-18.28-5.13-10.45-14.49,18.53-1.66,15.32,12.94Z" fill="#24285b"/><path d="M182.88,113.09s6.22,50.21,32.43,47,44.57-48.57,44.57-48.57l-5.59-3.86S238,139,219.57,138.28,217,111.05,203.22,86.54,178.29,99.81,182.88,113.09Z" fill="#f4a28c"/><path d="M240.7,121.38l12.42,8.08s6.53-10.61,7.71-17.91c0,0,6.09-3.35,4.48-8.86s-11.45,4.21-11.45,4.21Z" fill="#ffd200"/><path d="M265.48,105.64s43.62-2.67,40,37.29H245.36S243.64,117.77,265.48,105.64Z" fill="#24285b"/><path d="M196.3,77.13S213.61,90.79,212.25,132l-23.15,11Z" fill="#68e1fd"/><path d="M196.3,77.13S213.61,90.79,212.25,132l-23.15,11Z" fill="#fff" opacity="0.44"/><ellipse cx="202.38" cy="258.43" rx="142.37" ry="18.24" fill="#e6e6e6" opacity="0.3"/><polygon points="171.79 42.44 165.31 65.29 178.16 67.96 177.71 50.26 171.79 42.44" fill="#f4a28c"/><path d="M178,54.13a8.58,8.58,0,0,1-3.91-3s-.33,4.33,3.9,9.16Z" fill="#ce8172" opacity="0.31"/><path d="M185.09,43.11s-.64,7.22-2.68,11.73a3.64,3.64,0,0,1-4.83,1.81c-2.26-1.06-5-3.15-5.13-7.06l-1-6.61a6.5,6.5,0,0,1,4-6.34C180,34.46,185.7,38.73,185.09,43.11Z" fill="#f4a28c"/><path d="M183.27,43.09a28.79,28.79,0,0,1-6.49-1.67A6,6,0,0,1,175.62,48a4.92,4.92,0,0,1-6.19.89l1.74-9.15A7.38,7.38,0,0,1,176,33.87a25,25,0,0,1,3.32-.95c2.83-.59,6.38,1.85,9.06.49A1.75,1.75,0,0,1,190.92,35c-.08,2.87-1.36,7.17-5.4,8A6.8,6.8,0,0,1,183.27,43.09Z" fill="#24285b"/><path d="M176.42,47.87s.44-2.76-1.66-2.91-2.76,3.82,0,4.69Z" fill="#f4a28c"/><path d="M177.34,175.68l-14.21,77.15L159,251.41l-4.25-53.91c-.5-8.69,2.87-13.61-3.09-20l6.2-6.84Z" fill="#f4a28c"/><path d="M182.2,68l-16.86-3.5S139.73,60.33,125.94,77c-15.52,18.79,9.27,84.67,9.27,84.67l44.18,4.78S239.33,93.17,182.2,68Z" fill="#68e1fd"/><polygon points="165.05 242.4 158.14 240.96 158.96 251.41 163.13 252.83 165.05 242.4" fill="#68e1fd"/><polygon points="165.05 242.4 158.14 240.96 158.96 251.41 163.13 252.83 165.05 242.4" fill="#fff" opacity="0.46"/><path d="M134.1,172.94l-8.16,78,4.41-.18,19.29-50.52c2.94-8.2,1.1-13.87,8.6-18.28l-4-8.31Z" fill="#f4a28c"/><polygon points="127.05 240.41 134.09 240.99 130.35 250.78 125.94 250.96 127.05 240.41" fill="#68e1fd"/><polygon points="127.05 240.41 134.09 240.99 130.35 250.78 125.94 250.96 127.05 240.41" fill="#fff" opacity="0.46"/><circle cx="283.19" cy="137.82" r="14.44" fill="#fff" opacity="0.12"/><polygon points="179.39 166.45 173.34 201.29 154.43 201.29 151.83 176.06 135.21 161.67 179.39 166.45" fill="#24285b"/><path d="M157.3,76.46s9.06,24.85-2.51,42.12-6.47,32.9,0,34.19,17.07-3.64,17.07-3.64l7.53,11.09-8.83,5.29-25.13-2.6-13.34-9.66s-3.89-13.43-4.55-15.76S126.62,86.68,157.3,76.46Z" opacity="0.1"/><polygon points="135.21 161.67 128.8 201.29 149.23 201.29 159.24 169.06 135.21 161.67" fill="#24285b"/><path d="M163.47,250.64s1.8,3.39,5.06,3.2,4.57,2.84,1.78,4.08-10.8-1.42-10.8-1.42l-.58-5.94Z" fill="#68e1fd"/><path d="M126.32,249.06s-1.43,3.55-4.7,3.71-4.24,3.31-1.34,4.25,10.59-2.55,10.59-2.55l-.05-6Z" fill="#68e1fd"/><path d="M152.88,86.14c2.35-11.72-9.55-21.33-20.43-16.38-5,2.28-9.81,5.74-12.8,11-8.51,15-34.55,83.74-3.57,87.49s53-15.32,53-15.32l-3.79-7s-44.64,14.86-42.76,2.43C124,138.67,147.82,111.38,152.88,86.14Z" fill="#f4a28c"/><path d="M183.91,46.1l1.67,4.46A1.6,1.6,0,0,1,184,52.72l-3.89-.31Z" fill="#f4a28c"/><path d="M106,112.24,138,126s38-48.9,9.53-58.87C118.63,57,106,112.24,106,112.24Z" fill="#68e1fd"/><path d="M106,112.24,138,126s38-48.9,9.53-58.87C118.63,57,106,112.24,106,112.24Z" fill="#fff" opacity="0.44"/><polygon points="301.62 258.1 249.94 258.1 243.44 149.91 307.74 149.91 301.62 258.1" fill="#ffd200"/><path d="M281.84,189.32a1.92,1.92,0,0,0,2.18-1.26l1.65-4.71a.48.48,0,0,0-.69-.57l-1.23.71-3.25-5.63a2.25,2.25,0,0,0-1.95-1.12h-5a2.23,2.23,0,0,0-1.94,1.12l-3.49,6a1.11,1.11,0,0,0,.41,1.52l3.77,2.18a1.12,1.12,0,0,0,1.52-.41l2.24-3.88,2,3.47-1.24.71a.48.48,0,0,0,.15.88Z" fill="#fff"/><path d="M292.31,199.82a2.24,2.24,0,0,0,0-2.25l-3.53-6a1.12,1.12,0,0,0-1.53-.39l-3.76,2.2a1.12,1.12,0,0,0-.39,1.53l2.27,3.86-4,0v-1.43a.48.48,0,0,0-.84-.31l-3.23,3.79a1.93,1.93,0,0,0,0,2.52l3.28,3.75a.48.48,0,0,0,.84-.31v-1.43l6.5-.05a2.26,2.26,0,0,0,1.94-1.13Z" fill="#fff"/><path d="M270.79,198.8l-4.48,0,2-3.45,1.23.72a.48.48,0,0,0,.69-.57l-1.61-4.7a1.91,1.91,0,0,0-2.17-1.27l-4.91.9a.48.48,0,0,0-.15.88l1.23.72-3.28,5.62a2.26,2.26,0,0,0,0,2.25l2.49,4.35a2.28,2.28,0,0,0,1.94,1.13l7,0a1.13,1.13,0,0,0,1.12-1.11l0-4.36a1.12,1.12,0,0,0-1.11-1.12Z" fill="#fff"/><rect x="236.93" y="142.93" width="76.94" height="13.96" fill="#ffd200"/><rect x="236.93" y="142.93" width="76.94" height="13.96" fill="#fff" opacity="0.44"/><rect x="263.48" y="222.37" width="26.21" height="14.85" fill="#fff" opacity="0.44"/><polygon points="270.23 234.52 278.29 234.52 284.71 258.1 249.94 258.1 270.23 234.52" opacity="0.1"/><polygon points="269.04 230.4 244.11 230.4 243.18 230.4 218.25 230.4 210.71 258.1 243.18 258.1 244.11 258.1 276.58 258.1 269.04 230.4" fill="#ffd200"/><rect x="166.04" y="136.55" width="11.65" height="21.84" transform="translate(-39.74 66.79) rotate(-19.76)" fill="#68e1fd"/><rect x="166.04" y="136.55" width="11.65" height="21.84" transform="translate(-39.74 66.79) rotate(-19.76)" fill="#fff" opacity="0.44"/><polygon points="260.93 238.59 243.25 238.59 242.67 238.59 225.31 238.59 222.44 249.91 242.67 249.91 243.25 249.91 263.48 249.91 260.93 238.59" opacity="0.1"/><path d="M149.87,147.73l5,13.94s11.62-4.49,17-9.6c0,0,6.88,1,8.92-4.34s-11.66-3.58-11.66-3.58Z" fill="#ffd200"/></svg>