<svg id="Layer_1" data-name="Layer 1" xmlns="http://www.w3.org/2000/svg" viewBox="0 0 400 300"><path d="M117.41,50.22c-32.47,13-56.55,45.81-61.3,85.55-4,33.49,5.56,70.5,61.84,81,109.51,20.52,212.07,26.36,238.26-29s18.12-150.16-37.45-156.3C274.57,26.64,180.81,24.91,117.41,50.22Z" fill="#e6e6e6" opacity="0.3"/><ellipse cx="193.21" cy="259.05" rx="164.08" ry="9.55" fill="#e6e6e6" opacity="0.3"/><path d="M190.32,239.56h-130V219.9a18,18,0,0,1,14-17.58c10.34-2.39,14.78-4.63,21-9a26.39,26.39,0,0,0,8.41-10l6.71-13.94a27.82,27.82,0,0,1,16.71-5.58h64.07l-.8,75.81" fill="#68e1fd"/><path d="M190.32,239.56H58.5a1.5,1.5,0,0,1-1.5-1.5v-8.13a1.5,1.5,0,0,1,1.5-1.5H190.32" fill="#68e1fd"/><path d="M190.32,239.56H58.5a1.5,1.5,0,0,1-1.5-1.5v-8.13a1.5,1.5,0,0,1,1.5-1.5H190.32" fill="#fff" opacity="0.46"/><path d="M113.67,238A17.47,17.47,0,1,1,96.2,220.49,17.44,17.44,0,0,1,113.67,238Z" fill="#24285b"/><circle cx="96.2" cy="237.96" r="10.14" fill="#fff"/><path d="M118.41,177.73l-5.92,11.48a4.75,4.75,0,0,0,4.23,6.94H155a5.56,5.56,0,0,0,5.56-5.56v-9.88a5.56,5.56,0,0,0-5.56-5.56H122.64A4.77,4.77,0,0,0,118.41,177.73Z" fill="#24285b"/><path d="M146.36,202.36h44a0,0,0,0,1,0,0v26.07a0,0,0,0,1,0,0H127a0,0,0,0,1,0,0v-6.76A19.31,19.31,0,0,1,146.36,202.36Z" opacity="0.03"/><path d="M94.05,211.74a1.87,1.87,0,0,1-.28-3.67,21.94,21.94,0,0,1,13.16.64,26.49,26.49,0,0,1,10.77,7.14,4,4,0,0,1-2.31,6.61h0a4,4,0,0,1-4.29-2.05C109.53,217.44,105.32,212.88,94.05,211.74Z" opacity="0.03"/><rect x="127.05" y="222.52" width="63.27" height="1.72" fill="#24285b"/><rect x="152.89" y="202.36" width="12.12" height="5" rx="2.5" fill="#fff"/><polygon points="135.27 175.15 139.57 196.16 150.58 196.16 144.18 175.15 135.27 175.15" fill="#bed9f4" opacity="0.16"/><rect x="112.02" y="189.02" width="14.12" height="7.72" rx="3.86" fill="#68e1fd"/><rect x="112.02" y="189.02" width="14.12" height="7.72" rx="3.86" fill="#fff" opacity="0.46"/><path d="M63.94,209H77.39a2.19,2.19,0,0,1,1.84,3.38L75.65,218a5.42,5.42,0,0,1-4.57,2.5H60.29v-1.42a15.66,15.66,0,0,1,3.65-10Z" fill="#fff"/><path d="M201.87,142.26a116.25,116.25,0,0,1-55.17-13.93l-6.28-3.39c-11.24-6.06-25.35.5-27.52,13.09,0,.23-.07.45-.1.68L110.34,169h55a7.18,7.18,0,0,1,7.18,7.19v63.39H327.23v-82a15.3,15.3,0,0,0-15.3-15.3Z" fill="#24285b"/><rect x="172.52" y="222.52" width="154.7" height="1.72" fill="#68e1fd" opacity="0.23"/><rect x="172.52" y="211.18" width="154.7" height="1.72" fill="#68e1fd" opacity="0.23"/><path d="M194.18,177.32,193,192.25c-.28,3.73,2,7,4.89,7h42.21c2.71,0,4.9-2.84,4.9-6.35V177.94c0-3.5-2.19-6.34-4.9-6.34H199.06C196.54,171.6,194.42,174.07,194.18,177.32Z" fill="#fff" stroke="#68e1fd" stroke-miterlimit="10" stroke-width="5"/><path d="M285.44,177.32l-.7,14.93c-.18,3.73,1.22,7,3,7h26c1.66,0,3-2.84,3-6.35V177.94c0-3.5-1.36-6.34-3-6.34H288.45C286.89,171.6,285.59,174.07,285.44,177.32Z" fill="#fff" stroke="#68e1fd" stroke-miterlimit="10" stroke-width="5"/><rect x="217.06" y="172.73" width="3.83" height="25.43" fill="#68e1fd"/><path d="M299.47,238A17.48,17.48,0,1,1,282,220.49,17.44,17.44,0,0,1,299.47,238Z" fill="#24285b"/><circle cx="282" cy="237.96" r="10.14" fill="#fff"/><rect x="239.33" y="229.93" width="17.81" height="4.07" fill="#6cb4f1"/><path d="M149,156.33H126.73a3.94,3.94,0,0,1-3.91-4.35l.47-4.48A3.93,3.93,0,0,1,127.2,144H149a3.93,3.93,0,0,1,3.93,3.93v4.48A3.93,3.93,0,0,1,149,156.33Z" fill="#68e1fd" opacity="0.28"/><rect x="327.23" y="184.22" width="14.77" height="28.68" fill="#24285b"/><rect x="195.94" y="136.99" width="94.89" height="5.27" fill="#68e1fd"/><circle cx="306.45" cy="74.87" r="19.98" fill="#ffd200"/><circle cx="306.45" cy="74.87" r="31.23" fill="#ffd200" opacity="0.15"/><path d="M218.32,61.28a10.14,10.14,0,0,0-10.13-10.13,9.69,9.69,0,0,0-1.63.15,13.65,13.65,0,0,0-12-7.19l-.5,0a15.91,15.91,0,0,0,.5-3.93,16.21,16.21,0,1,0-32.41,0,15.91,15.91,0,0,0,.5,3.93l-.5,0a13.65,13.65,0,1,0,0,27.3h47.39v-.09A10.14,10.14,0,0,0,218.32,61.28Z" fill="#efefef"/><path d="M91.26,131.82a6.63,6.63,0,0,0-6.62-6.62,7.47,7.47,0,0,0-1.07.09,8.93,8.93,0,0,0-7.86-4.7l-.33,0a10.34,10.34,0,0,0,.33-2.57,10.6,10.6,0,0,0-21.19,0,10.34,10.34,0,0,0,.33,2.57l-.33,0a8.93,8.93,0,0,0,0,17.86h31v-.07A6.61,6.61,0,0,0,91.26,131.82Z" fill="#dddbdb"/><path d="M390.53,135.24a6.62,6.62,0,0,0-6.62-6.62,7.33,7.33,0,0,0-1.06.09A8.93,8.93,0,0,0,375,124l-.32,0a10.9,10.9,0,0,0,.32-2.57,10.6,10.6,0,1,0-21.19,0,10.4,10.4,0,0,0,.33,2.57l-.33,0a8.93,8.93,0,0,0,0,17.85h31v-.06A6.61,6.61,0,0,0,390.53,135.24Z" fill="#f2f2f2"/><rect x="201.22" y="113.51" width="83.51" height="23.48" fill="#ffd200"/><path d="M243.6,122.66h0a8,8,0,0,1,8,8V144a0,0,0,0,1,0,0h-16a0,0,0,0,1,0,0V130.66A8,8,0,0,1,243.6,122.66Z" fill="#24285b"/></svg>