<svg id="Layer_1" data-name="Layer 1" xmlns="http://www.w3.org/2000/svg" viewBox="0 0 400 300"><path d="M107.66,57.24c-31.59,13-55,45.93-59.65,85.77-3.9,33.57,5.41,70.67,60.18,81.24,106.57,20.57,206.38,26.43,231.86-29.06S357.69,44.65,303.61,38.5C260.61,33.61,169.36,31.88,107.66,57.24Z" fill="#e6e6e6" opacity="0.3"/><circle cx="131.62" cy="63.61" r="12.95" fill="#ffd200"/><circle cx="131.62" cy="63.61" r="20.23" fill="#ffd200" opacity="0.15"/><path d="M354.77,127a10.12,10.12,0,0,0-10.13-10.13A11,11,0,0,0,343,117a13.63,13.63,0,0,0-12-7.19c-.17,0-.34,0-.5,0a16.4,16.4,0,0,0,.5-3.93,16.21,16.21,0,0,0-32.42,0,16.4,16.4,0,0,0,.5,3.93c-.17,0-.33,0-.5,0a13.66,13.66,0,0,0,0,27.31H346V137A10.11,10.11,0,0,0,354.77,127Z" fill="#efefef"/><path d="M227.92,75.18h30.39c-3-2-18.1-20.36-18.1-20.36l8.37-2.41S298,80.34,287.14,88.23s-50.31,16-50.31,16Z" fill="#68e1fd"/><path d="M227.92,75.18h30.39c-3-2-18.1-20.36-18.1-20.36l8.37-2.41S298,80.34,287.14,88.23s-50.31,16-50.31,16Z" fill="#fff" opacity="0.19"/><path d="M214,55.52s2.4,5.6,2.69,9.75a3.06,3.06,0,0,1-2.86,3.26,6.74,6.74,0,0,1-6.61-3.18l-3.39-4.48a5.49,5.49,0,0,1,.47-6.31C206.74,51.14,212.67,52,214,55.52Z" fill="#f4a28c"/><polygon points="205.28 61.98 206.13 81.92 217.08 80.67 212.07 66.66 205.28 61.98" fill="#f4a28c"/><path d="M215.28,59.13l2.34,1.69a1,1,0,0,1-.1,1.65l-2.07,1.14Z" fill="#f4a28c"/><path d="M212.7,68.54s-1.4.17-4.47-1.29c0,0,.8,3.9,6,5.39Z" fill="#ce8172" opacity="0.31"/><path d="M207.51,61.69A2.22,2.22,0,0,0,210.13,63c1.75-.45,4.43-.76,6.62.57,3.58,2.19.63,7.46-3.45,6.59s-10.16-7.33-10.16-7.33-4.17-5.42-3.38-9,9.54-9.27,13.79-3.33c2.72,3.8-1.06,5.95-4.14,7a3.19,3.19,0,0,0-1.9,4.22Z" fill="#24285b"/><path d="M209.45,60.81s-.77-2.21-2.39-1.49-.52,3.93,1.86,3.48Z" fill="#f4a28c"/><path d="M223.1,75.18a133.49,133.49,0,0,0-50,10.68c-10.23,4.36-10,15.48-5.07,25.42l22.53,55.17,50.4-3s9.17-30.47,7.33-64.95A24.76,24.76,0,0,0,223.1,75.18Z" fill="#68e1fd"/><path d="M189.62,96.21S197.2,107,192,119.62s-5.75,22.19,6.2,19.57a100.56,100.56,0,0,0,13.34-4.07c4.07-1.5,7.77-4.07,12.34-3.65a3.76,3.76,0,0,1,3.94,4.74,12.17,12.17,0,0,1-2.4,5.91c-1.4,1.82-3.54,2.52-5.55,3.53a65.51,65.51,0,0,0-9.38,5.3c-5,3.67-6.42,8.62-5.8,14.66l-14.1.84L173.35,124.2Z" opacity="0.08"/><path d="M208.29,132.81s4.93-.85,6.79-1.88,9-5.54,11.26-3.56,2.08,7.32,0,9.76-18.79,3.37-18.79,3.37Z" fill="#f4a28c"/><path d="M210.84,131.68c0-.32.09-.63.14-.94-8.22,1.23-36.72,5.19-41.88,1.84s33.71-29.15,16.21-42.71a16.54,16.54,0,0,0-21,1c-10.13,9-25.44,27.07-20.85,51.74,3.75,20.18,50.06,4.8,66.37-1.3C210.1,138.1,210.41,134.88,210.84,131.68Z" fill="#68e1fd"/><path d="M210.84,131.68c0-.32.09-.63.14-.94-8.22,1.23-36.72,5.19-41.88,1.84s33.71-29.15,16.21-42.71a16.54,16.54,0,0,0-21,1c-10.13,9-25.44,27.07-20.85,51.74,3.75,20.18,50.06,4.8,66.37-1.3C210.1,138.1,210.41,134.88,210.84,131.68Z" fill="#fff" opacity="0.19"/><path d="M204,192.34a34.39,34.39,0,0,1,15.7-17.48l21.3-11.4-50.4,3" fill="#f4a28c"/><line x1="218.99" y1="171.23" x2="241" y2="163.46" fill="#f4a28c"/><polygon points="190.6 166.45 181.58 228.73 192.15 231.47 216.81 181.71 237.11 227.14 248.58 226.18 241 163.46 190.6 166.45" fill="#24285b"/><line x1="181.58" y1="228.73" x2="188.09" y2="229.52" fill="#68e1fd"/><line x1="181.58" y1="228.73" x2="188.09" y2="229.52" fill="#fff" opacity="0.46"/><rect x="96.99" y="96.21" width="3.8" height="142.26" rx="1.9" fill="#c1c1c1"/><polygon points="96.99 99.16 56.97 122.95 96.99 125.72 96.99 99.16" fill="#c1c1c1"/><polygon points="71.48 214.37 79.67 255.37 289.73 258.93 349.05 193.04 71.48 214.37" fill="#e6e6e6"/><path d="M209.82,43.74s-.84-1.62-5.2-1.69-8.1,3.17-7.25,7.18Z" fill="#e6e6e6"/><path d="M232.28,93.44c-2.54,10.14-13.94,8.3-28.16-1.27s-20.54-10.25-20.54-10.25a150.83,150.83,0,0,1,16.33-4.39,136.4,136.4,0,0,1,19.68-2.74c4.55-.26,7.58-.07,8.32.39C230,76.48,234.81,83.3,232.28,93.44Z" fill="#ffd200"/><path d="M223.79,99c-.17-.24-4.41,5.91-1,12.77C222.76,111.79,230.08,108.22,223.79,99Z" fill="#ffd200"/><path d="M223.79,99A17.7,17.7,0,0,0,234,109.72S234.46,100.69,223.79,99Z" fill="#ffd200"/><path d="M244.15,56.32s-4.13.19-6.28-2-4.7-4.41-3.29-5.92,6.1-3.09,8.17-2.53,5.83,6.51,5.83,6.51Z" fill="#f4a28c"/><polygon points="199.76 53.79 194.69 49.23 212.43 41.77 211.18 48.43 199.76 53.79" fill="#c1c1c1"/><path d="M215.71,83.35c-7.41,1.13-16.51-5.54-16.51-5.54l.71-.28a136.4,136.4,0,0,1,19.68-2.74C221.09,77.71,221.15,82.52,215.71,83.35Z" fill="#f4a28c"/><polygon points="254.2 44.59 214.21 55.11 214.89 58.85 256.03 54.64 254.2 44.59" fill="#24285b"/><rect x="254" y="43.18" width="3.19" height="12.69" rx="1.6" transform="translate(-4.74 46.43) rotate(-10.28)" fill="#24285b"/><path d="M233.57,51.62a3.4,3.4,0,0,0,3.33,1.74,5.87,5.87,0,0,0,5.39-4.7,2.07,2.07,0,0,0-.31-1.72,2.14,2.14,0,0,0-1.9-.49,16.45,16.45,0,0,0-2.48.56C235.38,47.65,232.3,48.59,233.57,51.62Z" fill="#f4a28c"/><polygon points="276.7 258.71 336.41 188.35 354.77 188.35 289.73 258.93 276.7 258.71" fill="#c1c1c1"/></svg>