<svg id="Layer_1" data-name="Layer 1" xmlns="http://www.w3.org/2000/svg" viewBox="0 0 400 300"><title>_</title><path d="M112.32,43.38c-51,18-73.81,80.78-70.21,136.38.88,13.58.48,33.69,10.4,43.3,25.11,24.33,52.81,31.53,84.7,35.55,38.37,4.84,77.19,8.16,115.75,4,46.78-5,88.36-21.49,101-76.21,4.68-20.17,5.93-41.58,1.55-61.83-6.94-32-27.34-53-53.66-66.34-41.13-20.83-87.74-23.53-133-22.62-18.55.38-37.32,1.34-55.09,7.22C113.33,43,112.82,43.2,112.32,43.38Z" fill="#dddbdb" opacity="0.18"/><path d="M162.07,230.56H61c-2.86-2.3-5.68-4.79-8.47-7.5a23.69,23.69,0,0,1-4.75-6.78V194.2q3.47,0,6.92.27c4.75.27,9.47.77,14.14,1.45,1.8.25,3.6.54,5.38.85l2.07.38c1.29.23,2.57.48,3.85.75l2.85.6q2.64.58,5.23,1.23l2.07.52,2.43.63c1.49.41,3,.82,4.44,1.25q2.56.74,5.07,1.52l2.07.66c1.31.42,2.61.85,3.89,1.29q2.64.9,5.18,1.82l4.42,1.65c1.29.49,2.55,1,3.79,1.49q3.07,1.22,6,2.45c2.89,1.23,5.63,2.45,8.22,3.64A249.41,249.41,0,0,1,162.07,230.56Z" fill="#ccc"/><path d="M349.43,198.11l-.34,2.61-.32,2.5a85.91,85.91,0,0,1-17.3,27.34H248s7.28-4.44,19-10c2.54-1.21,5.29-2.48,8.22-3.77,1.91-.84,3.9-1.69,6-2.53q3.94-1.65,8.21-3.25,2.6-1,5.28-1.91c3.45-1.21,7-2.38,10.66-3.47,2.44-.73,4.92-1.43,7.43-2.08l2.07-.52a6,6,0,0,1,.61-.15q1.5-.37,3-.72c2.73-.63,5.5-1.2,8.28-1.69.69-.13,1.39-.25,2.08-.36l.43-.07a143.23,143.23,0,0,1,15.44-1.72C346.24,198.2,347.84,198.14,349.43,198.11Z" fill="#ccc"/><path d="M288.56,199.65V170.1h-.76V142.86h-1V121.62a1.58,1.58,0,1,0-3.15,0v2.51h-11v-2.51a1.65,1.65,0,0,0-1.58-1.71,1.15,1.15,0,0,0-.26,0,1.52,1.52,0,0,0-.9.53,1.76,1.76,0,0,0-.41,1.15v21.24h-1V170.1h-.75v29.55h-.78v29.54h8.22V199.65h-.78V177.07h7.51v22.58h-.77v29.54h8.21V199.65Zm-4.91-71.39v14.6h-1v4h-9v-4h-1v-14.6Zm-9.27,44.68V170.1h-.76V151h9V170.1h-.76v2.84Z" fill="#68e1fd"/><path d="M135,199.65V170.1h-.75V142.86h-1V121.62a1.76,1.76,0,0,0-.41-1.15,1.52,1.52,0,0,0-.9-.53,1.15,1.15,0,0,0-.26,0,1.65,1.65,0,0,0-1.58,1.71v2.51H119v-2.51a1.58,1.58,0,1,0-3.15,0v21.24h-1V170.1h-.76v29.55h-.77v29.54h8.21V199.65h-.78V177.07h7.52v22.58h-.78v29.54h8.22V199.65ZM119,128.26h11v14.6h-1v4h-9v-4h-1Zm1.75,44.68V170.1H120V151h9V170.1h-.76v2.84Z" fill="#68e1fd"/><path d="M272.89,124.13A105.24,105.24,0,0,1,269.48,136a98.85,98.85,0,0,1-11.09,22.28c-.67,1-1.36,2-2.07,3a83.8,83.8,0,0,1-11.94,13.18c-.67.6-1.37,1.2-2.07,1.78a70.59,70.59,0,0,1-11.93,8c-.68.37-1.38.72-2.07,1.06a63,63,0,0,1-11.93,4.39c-.69.18-1.38.35-2.08.5a59.75,59.75,0,0,1-11.92,1.4H200.3a60.4,60.4,0,0,1-11.92-1.4c-.7-.15-1.39-.32-2.08-.5a63,63,0,0,1-11.93-4.39c-.69-.34-1.39-.69-2.07-1.06a70.59,70.59,0,0,1-11.93-8c-.7-.58-1.39-1.18-2.07-1.78a83,83,0,0,1-11.94-13.19c-.71-1-1.4-1.95-2.07-3A99,99,0,0,1,133.2,136a105.24,105.24,0,0,1-3.41-11.89h.26v-2.51a1.65,1.65,0,0,1,1.58-1.71,1.15,1.15,0,0,1,.26,0v2.38h-.26A102.43,102.43,0,0,0,135,133.9a96.46,96.46,0,0,0,10.81,21.7c.66,1,1.33,1.94,2,2.88a80.88,80.88,0,0,0,11.62,12.85c.67.59,1.34,1.17,2,1.73A67.91,67.91,0,0,0,173,180.85c.67.36,1.35.7,2,1a61.91,61.91,0,0,0,11.62,4.28c.68.17,1.35.34,2,.49A59.72,59.72,0,0,0,200.33,188h2A59,59,0,0,0,214,186.65c.68-.15,1.35-.32,2-.49a61.91,61.91,0,0,0,11.62-4.28c.67-.33,1.35-.67,2-1a67.91,67.91,0,0,0,11.61-7.79c.69-.56,1.37-1.14,2-1.73a81.73,81.73,0,0,0,11.62-12.84c.69-.94,1.36-1.9,2-2.88a96.33,96.33,0,0,0,10.81-21.71,102.43,102.43,0,0,0,3.32-11.58h-.26v-2.38a1.15,1.15,0,0,1,.26,0,1.65,1.65,0,0,1,1.58,1.71v2.51Z" fill="#68e1fd"/><path d="M146.36,204.66V158.58c-.71-1.1-1.41-2.23-2.07-3.37v49.45Z" fill="#68e1fd"/><path d="M160.37,204.66V175.13c-.7-.63-1.39-1.27-2.07-1.93v31.46Z" fill="#68e1fd"/><path d="M174.37,204.66V184.87c-.7-.36-1.39-.74-2.07-1.13v20.92Z" fill="#68e1fd"/><path d="M188.38,204.66V190.07c-.7-.16-1.39-.33-2.08-.52v15.11Z" fill="#68e1fd"/><path d="M202.38,204.66v-13.1H200.3v13.1Z" fill="#68e1fd"/><path d="M216.38,204.66V189.55c-.69.19-1.38.36-2.08.52v14.59Z" fill="#68e1fd"/><path d="M230.38,204.66V183.74c-.68.39-1.37.77-2.07,1.13v19.79Z" fill="#68e1fd"/><path d="M244.38,204.66V173.2c-.68.66-1.37,1.3-2.07,1.93v29.53Z" fill="#68e1fd"/><path d="M258.39,204.66V155.21c-.66,1.14-1.36,2.27-2.07,3.37v46.08Z" fill="#68e1fd"/><path d="M116.19,125.45c-.75,2.88-1.6,5.71-2.57,8.45a96.33,96.33,0,0,1-10.81,21.71c-.66,1-1.33,1.94-2,2.88a81.73,81.73,0,0,1-11.62,12.84c-.66.59-1.34,1.17-2,1.73a67.91,67.91,0,0,1-11.61,7.79c-.67.36-1.35.7-2,1a64.8,64.8,0,0,1-6.58,2.74v3.63a63.42,63.42,0,0,0,7.27-3c.69-.34,1.39-.69,2.07-1.06a70.59,70.59,0,0,0,11.93-8c.7-.58,1.4-1.18,2.07-1.78a83.8,83.8,0,0,0,11.94-13.18c.71-1,1.4-1.95,2.07-3A98.85,98.85,0,0,0,115.37,136a107.7,107.7,0,0,0,3.1-10.57Z" fill="#68e1fd"/><path d="M76.27,204.66V183.74c-.68.39-1.37.77-2.07,1.13v19.79Z" fill="#68e1fd"/><path d="M90.27,204.66V173.2c-.68.66-1.37,1.3-2.07,1.93v29.53Z" fill="#68e1fd"/><path d="M104.28,204.66V155.21c-.66,1.14-1.36,2.27-2.07,3.37v46.08Z" fill="#68e1fd"/><path d="M286.78,125.45c.74,2.88,1.6,5.71,2.57,8.45a96.72,96.72,0,0,0,10.8,21.71c.67,1,1.34,1.94,2,2.88a81.24,81.24,0,0,0,11.62,12.84c.65.59,1.34,1.17,2,1.73a67.52,67.52,0,0,0,11.61,7.79c.66.36,1.35.7,2,1a63,63,0,0,0,6.58,2.74v3.63a62,62,0,0,1-7.27-3c-.69-.34-1.39-.69-2.08-1.06a70.51,70.51,0,0,1-11.92-8c-.7-.58-1.4-1.18-2.07-1.78a83.31,83.31,0,0,1-11.94-13.18c-.71-1-1.4-1.95-2.07-3A98.43,98.43,0,0,1,287.6,136a102.47,102.47,0,0,1-3.1-10.57Z" fill="#68e1fd"/><path d="M326.69,204.66V183.74c.69.39,1.38.77,2.08,1.13v19.79Z" fill="#68e1fd"/><path d="M312.7,204.66V173.2c.68.66,1.37,1.3,2.07,1.93v29.53Z" fill="#68e1fd"/><path d="M298.69,204.66V155.21c.66,1.14,1.35,2.27,2.07,3.37v46.08Z" fill="#68e1fd"/><rect x="68.32" y="202.14" width="266.04" height="6.93" fill="#68e1fd"/><rect x="68.32" y="205.61" width="266.04" height="3.47" opacity="0.1"/><rect x="329.2" y="170.1" width="15.43" height="37.24" fill="#24285b"/><path d="M358.19,155.21A160.59,160.59,0,0,1,354,186.43q-1,4.2-2.17,8.1c-.65,2.13-1.36,4.19-2.1,6.19h-5.1V155.21Z" fill="#24285b"/><path d="M351.84,194.53c-.65,2.13-1.36,4.19-2.1,6.19-.32.85-.64,1.68-1,2.5a85.91,85.91,0,0,1-17.3,27.34h-71.8s2.64-1.79,7.27-4.58c2.28-1.38,5.05-3,8.22-4.76q2.77-1.56,6-3.24c2.56-1.35,5.31-2.76,8.21-4.17,3.24-1.58,6.67-3.18,10.26-4.74,2.71-1.18,5.52-2.35,8.39-3.47,1.55-.61,3.13-1.21,4.72-1.8l2.07-.74.61-.21c.69-.25,1.39-.49,2.09-.72q4.54-1.55,9.22-2.86c.69-.2,1.38-.39,2.08-.57l.43-.12a140.17,140.17,0,0,1,15.44-3.21C347,195,349.45,194.73,351.84,194.53Z" fill="#e6e6e6"/><path d="M54.68,158.86v45.8H44.22A102.5,102.5,0,0,1,43,194.39c-.4-5.17-.56-10.24-.84-14.63a177.58,177.58,0,0,1-.12-20.9Z" fill="#24285b"/><rect x="54.68" y="165.18" width="14.14" height="39.49" fill="#24285b"/><rect x="68.82" y="155.21" width="14.14" height="49.45" fill="#24285b"/><rect x="80.12" y="186.64" width="12.58" height="27.22" fill="#24285b"/><path d="M142.06,230.56H61c-2.86-2.3-5.68-4.79-8.47-7.5a23.69,23.69,0,0,1-4.75-6.78,46,46,0,0,1-3.54-11.62A102.5,102.5,0,0,1,43,194.39c1.61.08,3.21.2,4.81.35q3.48.33,6.92.82c4.79.68,9.52,1.59,14.14,2.68q2.72.63,5.38,1.35l2.07.56c1.29.36,2.58.74,3.85,1.12l2.76.86.09,0q2.66.84,5.23,1.73l2.07.73,2.43.9.22.08q4.52,1.68,8.75,3.47c4.13,1.73,8,3.51,11.68,5.26,2.92,1.4,5.66,2.79,8.21,4.13q3.19,1.68,6,3.24c3.23,1.8,6,3.44,8.22,4.8C139.8,229,142.06,230.56,142.06,230.56Z" fill="#e6e6e6"/><path d="M331.47,230.56C312,251.15,283.57,259.34,253,262.63c-38.56,4.14-77.38.81-115.75-4C108.87,255,83.83,249,61,230.56Z" fill="#68e1fd"/><path d="M331.47,230.56C312,251.15,283.57,259.34,253,262.63c-38.56,4.14-77.38.81-115.75-4C108.87,255,83.83,249,61,230.56Z" fill="#fff" opacity="0.7"/><path d="M330.73,125.84a5.42,5.42,0,0,0-1.81.32,9,9,0,0,0,.43-2.76,9.13,9.13,0,1,0-18.26,0c0,.25,0,.48,0,.72a6.61,6.61,0,1,0-3,12.5h22.59a5.39,5.39,0,0,0,0-10.78Z" fill="#dddbdb" opacity="0.3"/><path d="M203.57,123.52a5.42,5.42,0,0,0-1.81.32,9,9,0,0,0,.43-2.76,9.13,9.13,0,1,0-18.26,0c0,.24,0,.48,0,.72a6.53,6.53,0,0,0-3-.72,6.61,6.61,0,1,0,0,13.22h22.59a5.39,5.39,0,1,0,0-10.78Z" fill="#dddbdb" opacity="0.3"/><path d="M133.61,73.1a6.16,6.16,0,0,0-2.06.37,10.42,10.42,0,0,0-9.93-13.58,10.43,10.43,0,0,0-10.43,10.43c0,.27,0,.55,0,.82a7.55,7.55,0,1,0-3.41,14.28h25.79a6.16,6.16,0,0,0,0-12.32Z" fill="#dddbdb" opacity="0.3"/><circle cx="258.39" cy="78.21" r="23.95" fill="#ffd200" opacity="0.17"/><circle cx="258.39" cy="78.21" r="15.68" fill="#ffd200"/></svg>