<svg id="Layer_1" data-name="Layer 1" xmlns="http://www.w3.org/2000/svg" viewBox="0 0 400 300"><title>_</title><ellipse cx="200.16" cy="242.87" rx="162.22" ry="18.6" fill="#e6e6e6" opacity="0.3"/><path d="M301.61,232.39s-2.11,2-4.39,1-3.94.91-2.26,2.47,8,1.63,8,1.63l1.87-4.09Z" fill="#68e1fd"/><path d="M337,231.48s1,2.69-.69,4.45-.64,4,1.44,3,4.53-6.83,4.53-6.83l-3.08-3.27Z" fill="#68e1fd"/><path d="M342.68,180.88S344.9,189.66,341,194s-9.78,24.8,0,35l-3.86,3.64s-16.95-8.65-12.12-39.82l-12.1-12Z" fill="#24285b"/><path d="M313,130.85s-12,3.05-12.05,13,5.31,27.26-2.39,28.68-12.31-20-12.31-20l-5.48,2.22s5.84,36.59,26,30.55S313,130.85,313,130.85Z" fill="#68e1fd"/><path d="M313,130.85s-12,3.05-12.05,13,5.31,27.26-2.39,28.68-12.31-20-12.31-20l-5.48,2.22s5.84,36.59,26,30.55S313,130.85,313,130.85Z" fill="#fff" opacity="0.44"/><polygon points="323.72 114.57 327.37 127.43 320.14 128.93 320.39 118.97 323.72 114.57" fill="#f4a28c"/><path d="M320.24,121.15a4.87,4.87,0,0,0,2.2-1.69,7.63,7.63,0,0,1-2.19,5.15Z" fill="#ce8172" opacity="0.31"/><path d="M327.37,127.43l-4.29.89s-19.62,2.12-20.41,13.19S313,180.88,313,180.88h29.73S366.5,124.5,327.37,127.43Z" fill="#68e1fd"/><path d="M319.6,128.72s-1,34.1,2.3,52.26h6.52l-1.59-53.76Z" fill="#24285b"/><path d="M329.94,137.69a10.27,10.27,0,0,0,3.88,11.43c6.29,4.52,3.22,21.51-3.65,24.25s4.29,8.62,9.06,6.21,5.43-4,5.43-4,4.43-12.78,4.89-20.94S329.94,137.69,329.94,137.69Z" opacity="0.09"/><rect x="327.88" y="169.87" width="17.94" height="23.94" transform="translate(707.44 277.69) rotate(166.14)" fill="#ffd200"/><path d="M332.44,183.05s-1.11,2.74,2.75,3.31,12,0,12,0l-1.35-5.48Z" opacity="0.09"/><path d="M329.94,137.69a9,9,0,0,1,11.95-8.35c5,1.65,11.17,4.72,14.9,10.31,7.17,10.75,23.55,42.18-18,43.4l-1.22-4.63s25-6.91,13.94-21.51C342.91,145.55,329.91,146.32,329.94,137.69Z" fill="#68e1fd"/><path d="M329.94,137.69a9,9,0,0,1,11.95-8.35c5,1.65,11.17,4.72,14.9,10.31,7.17,10.75,23.55,42.18-18,43.4l-1.22-4.63s25-6.91,13.94-21.51C342.91,145.55,329.91,146.32,329.94,137.69Z" fill="#fff" opacity="0.44"/><path d="M284.92,153s-.31-5.3-2.43-6.8-1.77,2.3-1.77,2.3-2.13-2.48-3.9-1.33,3.9,7.53,3.9,7.53Z" fill="#f4a28c"/><path d="M316.24,115a25.41,25.41,0,0,0,1.5,6.6,2.06,2.06,0,0,0,2.73,1,4.53,4.53,0,0,0,2.88-4l.58-3.72a3.66,3.66,0,0,0-2.27-3.57C319.1,110.08,315.89,112.48,316.24,115Z" fill="#f4a28c"/><path d="M316.6,117.49l-.85,1.75a.65.65,0,0,0,.58.94h1.59Z" fill="#f4a28c"/><path d="M313,180.88l-12.42,51.79,6.21.91s12.43-35.5,20.63-42.78Z" fill="#24285b"/><path d="M337.71,179.06s-4.44-.71-5.92,2.36,7,1.63,7,1.63Z" fill="#f4a28c"/><path d="M324.93,118.84l-2.48-.6-1.51-.75s-1.09-.06-.7-2.71c0,0-5.34,1.84-6.05-1.32-.76-3.46,3.22-5,6.05-4.69a4.53,4.53,0,0,1,3.7,2.9S328.38,111,324.93,118.84Z" fill="#24285b"/><path d="M321.11,117.63s-.24-1.55.94-1.64,1.55,2.15,0,2.64Z" fill="#f4a28c"/><path d="M190.33,224s-7.9-2.16-9.62-9.51c0,0,12.24-2.48,12.59,10.16Z" fill="#68e1fd" opacity="0.58"/><path d="M191.29,223.17s-5.51-8.72-.66-16.88c0,0,9.31,5.91,5.17,16.9Z" fill="#68e1fd" opacity="0.73"/><path d="M192.72,223.18s2.91-9.21,11.73-11c0,0,1.65,6-5.71,11Z" fill="#68e1fd"/><polygon points="186.99 222.97 188.59 233.93 198.67 233.97 200.16 223.03 186.99 222.97" fill="#24285b"/><path d="M217.91,135.69a11.19,11.19,0,0,1-11.18-11.18v-69a13.62,13.62,0,1,0-27.24,0V71.43a13.34,13.34,0,0,1-26.68,0A5.49,5.49,0,0,0,147.34,66H136.12a5.48,5.48,0,0,0-5.47,5.47V85.58h-3.38V71.42a8.86,8.86,0,0,1,8.85-8.85h11.22a8.87,8.87,0,0,1,8.85,8.86,10,10,0,0,0,19.92,0V55.52a17,17,0,0,1,34,0v69a7.81,7.81,0,0,0,15.61,0V101.64a16.22,16.22,0,1,1,32.43,0v8.2h-3.38v-8.2a12.84,12.84,0,1,0-25.67,0v22.87A11.2,11.2,0,0,1,217.91,135.69Z" fill="#24285b"/><polygon points="217 235.66 246.32 147.43 246.32 116.31 272.06 116.31 272.06 147.43 301.38 235.66 217 235.66" fill="#e6e6e6"/><polygon points="249.5 162.19 268.88 162.19 291.03 228.76 227.35 228.76 249.5 162.19" fill="#ffd200"/><rect x="242.14" y="105.09" width="34.09" height="11.22" rx="2.94" fill="#e6e6e6"/><rect x="242.14" y="105.09" width="34.09" height="11.22" rx="2.94" opacity="0.03"/><circle cx="252.75" cy="195.71" r="3.71" fill="#fff" opacity="0.44"/><path d="M262.38,207.1c-2.9,0-2.9,4.51,0,4.51S265.29,207.1,262.38,207.1Z" fill="#fff" opacity="0.44"/><path d="M269.58,192.05c-2.9,0-2.91,4.51,0,4.51S272.48,192.05,269.58,192.05Z" fill="#fff" opacity="0.44"/><path d="M244.26,212.19c-2.9,0-2.91,4.5,0,4.5S247.16,212.19,244.26,212.19Z" fill="#fff" opacity="0.44"/><path d="M262.38,174c-5.07,0-5.08,7.89,0,7.89S267.47,174,262.38,174Z" fill="#fff" opacity="0.44"/><path d="M275.91,213.92c-3.63,0-3.64,5.64,0,5.64S279.54,213.92,275.91,213.92Z" fill="#fff" opacity="0.44"/><rect x="117.45" y="87.11" width="23.02" height="75.66" fill="#e6e6e6"/><circle cx="128.96" cy="195.47" r="40.18" fill="#e6e6e6"/><path d="M97.53,184.06a33.11,33.11,0,1,0,62.86,0Z" fill="#ffd200"/><rect x="111.27" y="81.07" width="35.39" height="12.08" rx="3.49" fill="#e6e6e6"/><rect x="111.27" y="81.07" width="35.39" height="12.08" rx="3.49" opacity="0.03"/><path d="M151,192.93a2.5,2.5,0,0,0-1.49-1.49,2,2,0,0,0-1.08-.24l-.75.1a2.73,2.73,0,0,0-1.24.72l-.44.57a2.76,2.76,0,0,0-.39,1.42v.29a2.26,2.26,0,0,0,.24,1.09,2.64,2.64,0,0,0,1.49,1.49,2.26,2.26,0,0,0,1.09.24l.75-.1a2.9,2.9,0,0,0,1.24-.73l.44-.57a2.73,2.73,0,0,0,.38-1.42V194A2,2,0,0,0,151,192.93Z" fill="#fff" opacity="0.44"/><path d="M129.46,212.49A2.64,2.64,0,0,0,128,211a2.26,2.26,0,0,0-1.09-.24l-.75.1a2.75,2.75,0,0,0-1.24.73l-.44.57a2.81,2.81,0,0,0-.39,1.42v.28a2.16,2.16,0,0,0,.25,1.09,2.06,2.06,0,0,0,.58.91,2.09,2.09,0,0,0,.91.58,2,2,0,0,0,1.08.24l.75-.1a2.73,2.73,0,0,0,1.24-.72l.44-.57a2.77,2.77,0,0,0,.39-1.43v-.28A2.26,2.26,0,0,0,129.46,212.49Z" fill="#fff" opacity="0.44"/><path d="M116.52,188.61c-3.62,0-3.63,5.63,0,5.63S120.15,188.61,116.52,188.61Z" fill="#fff" opacity="0.44"/><path d="M134.94,196.7c-5.8,0-5.81,9,0,9S140.75,196.7,134.94,196.7Z" fill="#fff" opacity="0.44"/><path d="M114.92,204.49a2.76,2.76,0,0,0-.72-1.25l-.57-.44a2.82,2.82,0,0,0-1.42-.38h-.29a2,2,0,0,0-1.08.24,2.09,2.09,0,0,0-.91.58,2.06,2.06,0,0,0-.58.91,2.12,2.12,0,0,0-.25,1.08c0,.25.07.5.1.75a2.93,2.93,0,0,0,.73,1.25l.57.44a2.82,2.82,0,0,0,1.42.38h.29a2.09,2.09,0,0,0,1.08-.24,2.19,2.19,0,0,0,.91-.58,3.23,3.23,0,0,0,.83-2Z" fill="#fff" opacity="0.44"/><path d="M146.86,213.59c-.09-.19-.19-.38-.29-.57a2,2,0,0,0-.72-.79,2.13,2.13,0,0,0-1-.51,2.24,2.24,0,0,0-1.12-.05,2.08,2.08,0,0,0-1.05.34l-.57.44a2.73,2.73,0,0,0-.72,1.24c0,.25-.07.5-.1.75a2.82,2.82,0,0,0,.38,1.42l.29.58a2.11,2.11,0,0,0,.72.79,2.16,2.16,0,0,0,1,.5,2,2,0,0,0,1.12.05,2.06,2.06,0,0,0,1-.33l.57-.44a2.88,2.88,0,0,0,.73-1.25c0-.25.06-.49.1-.74A2.77,2.77,0,0,0,146.86,213.59Z" fill="#fff" opacity="0.44"/><polygon points="96.56 194.87 99.47 237.18 96.77 238.11 86.03 198.53 96.56 194.87" fill="#f4a28c"/><path d="M99.37,236.56s1.76,1.87,3.78,1.6,2.57,2.57-.72,2.55a18.42,18.42,0,0,1-3.06-.25,5.25,5.25,0,0,0-2.74.33.9.9,0,0,1-1-.29c-1-1,1-3.71,1-3.71Z" fill="#68e1fd"/><polygon points="70.67 194.87 67.76 237.18 70.46 238.11 81.2 198.53 70.67 194.87" fill="#f4a28c"/><path d="M67.86,236.56s-1.76,1.87-3.78,1.6-2.57,2.57.72,2.55a18.42,18.42,0,0,0,3.06-.25,5.27,5.27,0,0,1,2.74.33.88.88,0,0,0,1-.29c1-1-1-3.71-1-3.71Z" fill="#68e1fd"/><polygon points="79.69 122.4 78.9 126.95 74.81 127.25 77.3 119.97 79.69 122.4" fill="#f4a28c"/><path d="M59.33,133.92c-5.46,4.67-12.47,13.34-15.09,23.12a14.11,14.11,0,0,0,7.27,16.27l18,9.06,2.33-3.22L59.43,169a6.61,6.61,0,0,1-.91-9.33c4.06-4.93,9.67-12.76,11-19.87A6.23,6.23,0,0,0,59.33,133.92Z" fill="#f4a28c"/><path d="M78.26,115.68a2.73,2.73,0,0,1,4.33,1.47c.55,2.08.93,5.13-1.48,5.38-3.7.38-4.35-4.39-4.35-4.39A5,5,0,0,1,78.26,115.68Z" fill="#f4a28c"/><rect x="55" y="175.19" width="26.33" height="18.6" transform="translate(-99.09 81) rotate(-37.97)" fill="#ffd200"/><path d="M93.13,132.82a27,27,0,0,0-31-.55c-4.09,2.78-7.24,6.94-5.8,13,3.39,14.13,14.21,23.45,14.55,35.87l25.62-1.72v-16a11,11,0,0,1,3.5-8.07c2.23-2.06,4.45-5.42,2.93-10C101.55,141.2,98.05,136.43,93.13,132.82Z" fill="#68e1fd"/><path d="M79,119.11s-.38-1-1.14-.3.25,1.72.84,1.5S79,119.11,79,119.11Z" fill="#f4a28c"/><path d="M80.44,139.48s-5.53,10.58.89,20.9-5.75,20.4-5.75,20.4l20.89-1.4v-9.12Z" opacity="0.08"/><path d="M69,129.44c1.23-1.56,4.71-3.83,4.29-10.86a7.74,7.74,0,0,1,2.7-6c4.87-3.49,8.66.1,7,2.51s-2.62,3.5-2.62,3.5,5.84,9.85,2.62,13.81C80.14,135.91,64,135.9,69,129.44Z" fill="#24285b"/><path d="M80.44,139.48a6.6,6.6,0,0,1,5.76-6.32c1.88-.2,4.08.42,6.3,2.89,4.11,4.56,7.77,16.22,9.62,22.93a2.54,2.54,0,0,0,4.45.88L119.72,143s2.63-4.25,4.11-3.31-1.74,3.31-1.74,3.31a2.4,2.4,0,0,1,1.74,3.21c-.89,2.54-13.65,25.44-18.65,26.39C95.79,174.33,79.51,157.73,80.44,139.48Z" fill="#f4a28c"/><polygon points="69.72 174.56 96.47 174.56 100.73 211.58 65.27 222.15 69.72 174.56" fill="#24285b"/></svg>