<svg id="Layer_1" data-name="Layer 1" xmlns="http://www.w3.org/2000/svg" viewBox="0 0 400 300"><title>_</title><rect x="82.11" y="64.78" width="244.34" height="174.74" fill="#e6e6e6"/><rect x="112.11" y="130.94" width="184.34" height="33.7" rx="16.85" fill="#fff" opacity="0.44"/><path d="M305.43,239.52H277.1a34.52,34.52,0,0,0-3.8-3.53c-16.8-13.41-8.69-21.33-13.79-41.86-6.19-24.9-23.24-3.95-37.74-28.47-5.35-9-5.66-20.61-1.17-30.81,2.3-5.22,2.62-5.57,8.51-7.61a12.63,12.63,0,0,1,5.5-.7q-1.32,5.55-2.63,11.09c-1,4.26-2,8.57-1.94,12.94s1.4,8.89,4.47,12,7.75,4.54,12.22,5a15.23,15.23,0,0,0,8.23-1c5.11-2.48,8.45-7.46,10-12.81a35.47,35.47,0,0,0,.9-13.5c-.52-4.86-2.21-8.73-6.35-11.48A24.66,24.66,0,0,0,242.8,125c.52-3.23,3.53-5.62,6.72-6.33,3.95-.89,8.22.16,11.91,1.63,1.46.58,12.25,4.65,12.4,5.81l2.46,19.64a5.13,5.13,0,0,1-1.46,4.89q-6.3,8.19-12.55,16.44L273,191.39Z" opacity="0.12"/><path d="M228.75,152.86l.83-.25v-1.19c0-.14-.21-.38-.25-.36-.51.21-.76-.15-.7-.48s.54-.51.86-.76c.07,0,.19,0,.36,0l-.13-.62c.87-.82,1.21-1.43,1-1.76-.5-.71-1.6-1.14-2.09-.83-.76.5-.76.89-.21,1.93l-2.17,3a1,1,0,0,0-.53.25c-.08.11.15.46.24.71l.33.91,4,.63Z" fill="#68e1fd"/><path d="M233,152.22V150.7a12.33,12.33,0,0,1-1-1c-.52-.6-1.07-.18-1.52,0s-.39.62.08.9c.07,0,.1.2.1.32,0,.37-.1,1,.07,1.07a9.91,9.91,0,0,0,2.09.77c.13,0,.34-.26.51-.4Z" fill="#68e1fd"/><path d="M280.08,183.21a2.42,2.42,0,0,0-3.05-1c-1.21.61-2.37,1.28-3.7,2l1.83.2c.4-.47.65-1,1-1.16a6.65,6.65,0,0,1,2.29-.76C279,182.43,279.47,182.91,280.08,183.21Z" fill="#68e1fd"/><path d="M273.5,185.22l-1.53.13.77-.87c-1.45-.39-3.05.17-3,1.07C271,185.44,272.32,186.06,273.5,185.22Z" fill="#68e1fd"/><path d="M277.9,147.05c.54,0,1,.2,1.21,0,.54-.46.89-.08,1.36.07a5.6,5.6,0,0,0,1.53,0c-1-1.63-1.31-1.73-2.6-1l-.25.15Z" fill="#68e1fd"/><rect x="263.05" y="165.95" width="8.9" height="25.92" transform="translate(583.75 238.55) rotate(156.91)" fill="#ffd200"/><rect x="263.05" y="165.95" width="8.9" height="25.92" transform="translate(583.75 238.55) rotate(156.91)" opacity="0.08"/><rect x="269.35" y="182.92" width="13.7" height="33.3" transform="translate(608.53 274.81) rotate(156.91)" fill="#24285b"/><path d="M226.46,155a29.21,29.21,0,1,0,15.41-38.32A29.21,29.21,0,0,0,226.46,155Zm7.89-3.37a20.63,20.63,0,1,1,27.06,10.89A20.62,20.62,0,0,1,234.35,151.58Z" fill="#ffd200"/><polygon points="340.83 251.96 313.28 217.13 300.54 224.95 292.22 230.06 300.91 251.96 340.83 251.96" fill="#68e1fd"/><path d="M310.52,218.83s-8-47.05-25.86-47.88-6.93,28-15.67,27-9.71,19.64,23.23,32.08Z" fill="#f4a28c"/><path d="M315.24,252c-5.6-10.23-11.13-20.37-14.7-27l-8.32,5.11,8.69,21.9Z" opacity="0.12"/><rect x="173.85" y="180.26" width="54.38" height="20.85" rx="8.43" opacity="0.12"/><path d="M168,109l5.33-.34a4,4,0,0,0,.7,2,3,3,0,0,0,2.48,1.1,2.73,2.73,0,0,0,1.85-.56,1.62,1.62,0,0,0,0-2.57,7.18,7.18,0,0,0-2.87-1.05,12.13,12.13,0,0,1-5.26-2.2,4.43,4.43,0,0,1-1.58-3.5,4.76,4.76,0,0,1,.81-2.64,5.42,5.42,0,0,1,2.43-2,11.51,11.51,0,0,1,4.46-.71,9,9,0,0,1,5.3,1.3,5.6,5.6,0,0,1,2.18,4.11l-5.29.31a2.82,2.82,0,0,0-.88-1.78,2.85,2.85,0,0,0-1.86-.56,2.28,2.28,0,0,0-1.47.41,1.29,1.29,0,0,0-.5,1,1,1,0,0,0,.41.78,4.6,4.6,0,0,0,1.88.67,23.62,23.62,0,0,1,5.26,1.6,5.6,5.6,0,0,1,2.32,2,5.14,5.14,0,0,1,.72,2.69,5.69,5.69,0,0,1-1,3.21,6,6,0,0,1-2.69,2.23,10.86,10.86,0,0,1-4.37.77q-4.62,0-6.41-1.79A7,7,0,0,1,168,109Z" fill="#c9c9c9"/><path d="M195.72,96.87h15v3.87h-9.4v2.89h8.72v3.69h-8.72v3.58H211V115H195.72Z" fill="#c9c9c9"/><path d="M221.77,106a8.59,8.59,0,0,1,9.36-9.39c3,0,5.34.81,7,2.43a9.17,9.17,0,0,1,2.44,6.81,11.12,11.12,0,0,1-1.07,5.22,7.59,7.59,0,0,1-3.09,3.16,10.16,10.16,0,0,1-5,1.14,11.64,11.64,0,0,1-5.08-1,7.67,7.67,0,0,1-3.26-3.09A10.32,10.32,0,0,1,221.77,106Zm5.6,0a6.06,6.06,0,0,0,1,3.94,3.87,3.87,0,0,0,5.57,0c.66-.79,1-2.19,1-4.22a5.57,5.57,0,0,0-1-3.74,3.52,3.52,0,0,0-2.8-1.18,3.39,3.39,0,0,0-2.72,1.2A6.06,6.06,0,0,0,227.37,106Z" fill="#c9c9c9"/><rect x="82.11" y="48.04" width="244.34" height="24.17" fill="#c9c9c9"/><circle cx="99.92" cy="59.53" r="4.6" fill="#24285b"/><circle cx="114.09" cy="59.53" r="4.6" fill="#ffd200"/><circle cx="128.26" cy="59.53" r="4.6" fill="#68e1fd"/><circle cx="131.71" cy="151.1" r="3.45" fill="#e6e6e6"/><circle cx="149.79" cy="151.1" r="3.45" fill="#e6e6e6"/><circle cx="167.88" cy="151.1" r="3.45" fill="#e6e6e6"/><rect x="81.88" y="184.35" width="57.64" height="48.19" opacity="0.08"/><rect x="65.17" y="179.92" width="69.5" height="48.19" fill="#f4f4f4"/><path d="M125.85,187.85a1.49,1.49,0,0,0-1.29-.37l-10.56,2a1.5,1.5,0,0,0,.56,2.95l5.69-1.08-17.56,18-10.18-10a1.52,1.52,0,0,0-1.07-.43,1.47,1.47,0,0,0-1.06.45L74.07,216a1.5,1.5,0,0,0,1.07,2.55,1.52,1.52,0,0,0,1.08-.45l15.26-15.64,10.17,10a1.63,1.63,0,0,0,1.07.43,1.51,1.51,0,0,0,1.06-.45l19.15-19.57-.61,5.94a1.51,1.51,0,0,0,1.34,1.65h.15a1.51,1.51,0,0,0,1.5-1.34l1-10.05A1.51,1.51,0,0,0,125.85,187.85Z" fill="#68e1fd"/><path d="M88.58,166s11.07-3,13.52-13.25c0,0-17.11-3.53-17.68,14.14Z" fill="#68e1fd" opacity="0.58"/><path d="M87.23,164.85s7.78-12.18,1-23.62c0,0-13.06,8.21-7.34,23.62Z" fill="#68e1fd" opacity="0.73"/><path d="M85.24,164.85s-4-12.91-16.35-15.41c0,0-2.35,8.37,7.92,15.41Z" fill="#68e1fd"/><polygon points="93.26 164.59 90.96 179.92 76.84 179.92 74.83 164.59 93.26 164.59" fill="#24285b"/></svg>