<svg id="Layer_1" data-name="Layer 1" xmlns="http://www.w3.org/2000/svg" viewBox="0 0 400 300"><rect x="87" y="47.36" width="222.72" height="161.84" transform="translate(-0.32 0.49) rotate(-0.14)" fill="#f2f2f2"/><rect x="86.79" y="47.64" width="222.8" height="31.59" fill="#e6e6e6"/><polygon points="65.87 242.16 116.51 201.39 135.91 216.85 102.97 267.25 65.87 242.16" fill="#f4a28c"/><polygon points="61.08 238.87 105.16 269.11 134.01 226.9 103.5 205.34 61.08 238.87" fill="#68e1fd"/><polygon points="123.42 219.41 86.79 256.68 105.16 269.11 134.01 226.9 123.42 219.41" opacity="0.06"/><circle cx="268.03" cy="63.8" r="4.04" fill="#24285b"/><circle cx="280.04" cy="63.77" r="4.04" fill="#68e1fd"/><circle cx="291.36" cy="63.74" r="4.04" fill="#ffd200"/><rect x="134.45" y="59.73" width="121.61" height="8.07" fill="#fff"/><rect x="243.15" y="59.73" width="12.9" height="8.07" fill="#c9c9c9"/><rect x="136.09" y="124.35" width="130.58" height="20.5" fill="#fff"/><rect x="237.66" y="124.35" width="29.01" height="20.5" fill="#68e1fd"/><rect x="168.43" y="96.38" width="61.03" height="11.37" fill="#a5a5a5"/><rect x="145.01" y="159.29" width="9.29" height="32.54" transform="translate(68.88 -40.52) rotate(19.95)" fill="#24285b"/><path d="M190.1,114.28s28.47,16.08,11.28,48.09-24.87,6.6-32.95,46.9H142.68L154.8,164l13.63,1.31,15.11-5.37,8.51-13.57v-18Z" opacity="0.06"/><rect x="145.01" y="159.29" width="9.29" height="32.54" transform="translate(68.88 -40.52) rotate(19.95)" fill="#fff" opacity="0.18"/><rect x="136.02" y="174.47" width="15.28" height="36.42" rx="4.65" transform="translate(74.36 -37.45) rotate(19.95)" fill="#24285b"/><rect x="175.28" y="180.26" width="49.55" height="7.32" fill="#c9c9c9"/><rect x="184.3" y="168.24" width="31.62" height="7.32" fill="#c9c9c9" opacity="0.39"/><path d="M175.72,104.1a33.3,33.3,0,1,0,19.94,42.67A33.3,33.3,0,0,0,175.72,104.1Zm-19.85,54.69a24.88,24.88,0,1,1,31.87-14.9A24.87,24.87,0,0,1,155.87,158.79Z" fill="#ffd200"/><path d="M116.51,201.39s9.73-10.57,17.51-18.12,10.08,6.09,19.83,4,17.31,34.24-17.94,29.56Z" fill="#f4a28c"/><text transform="translate(149.53 138.58)" font-size="13.25" fill="#24285b" font-family="Mont-HeavyDEMO, Mont" font-weight="800">S<tspan x="8.34" y="0" letter-spacing="-0.01em">E</tspan><tspan x="15.72" y="0">O</tspan></text><circle cx="253.9" cy="132.93" r="3.39" fill="none" stroke="#fff" stroke-miterlimit="10"/><line x1="252.3" y1="135.76" x2="250.03" y2="139.76" fill="none" stroke="#fff" stroke-miterlimit="10"/><rect x="102.36" y="59.77" width="22.21" height="8.07" fill="#24285b"/></svg>