<svg id="Layer_1" data-name="Layer 1" xmlns="http://www.w3.org/2000/svg" viewBox="0 0 400 300"><circle cx="201.25" cy="63.79" r="32.66" fill="#ffd200" opacity="0.15"/><circle cx="201.25" cy="63.79" r="19.78" fill="#ffd200" opacity="0.15"/><ellipse cx="204.59" cy="264.53" rx="106.63" ry="11.95" fill="#e6e6e6" opacity="0.3"/><path d="M201.25,50.85h0a8.67,8.67,0,0,1,8.67,8.67V69.62a0,0,0,0,1,0,0H192.57a0,0,0,0,1,0,0V59.53A8.67,8.67,0,0,1,201.25,50.85Z" fill="#ffd200"/><rect x="190.84" y="65.76" width="20.82" height="11.43" fill="#24285b"/><rect x="153.7" y="93.67" width="92.97" height="81.06" fill="#68e1fd"/><rect x="148.57" y="177.97" width="102.2" height="80" fill="#68e1fd"/><polygon points="148.57 177.97 153.62 171.5 246.83 171.5 250.77 177.97 148.57 177.97" fill="#68e1fd"/><polygon points="148.57 177.97 153.62 171.5 246.83 171.5 250.77 177.97 148.57 177.97" opacity="0.09"/><path d="M246.67,93.67c-5.21-13.24-24-23-46.36-23s-41.41,9.8-46.61,23Z" fill="#68e1fd"/><path d="M246.67,93.67c-5.21-13.24-24-23-46.36-23s-41.41,9.8-46.61,23Z" fill="#fff" opacity="0.44"/><path d="M228.08,88.53a2,2,0,0,0,1.24-3.59c-5.7-4.62-16.69-7.75-29.33-7.75s-23.73,3.13-29.48,7.75a2,2,0,0,0,1.24,3.59Z" fill="#fff" opacity="0.44"/><rect x="157.01" y="183.8" width="85.64" height="15.61" rx="4.6" fill="#fff" opacity="0.44"/><rect x="158.19" y="99.11" width="81.61" height="18.69" rx="5.74" fill="#24285b"/><rect x="160.09" y="124.66" width="78.3" height="41.16" rx="5.11" fill="#fff" opacity="0.44"/><rect x="166.47" y="131.28" width="64.82" height="26.5" rx="2.43" fill="#fff"/><rect x="187.3" y="131.28" width="0.93" height="26.5" fill="#24285b"/><rect x="210.01" y="131.28" width="0.93" height="26.5" fill="#24285b"/><path d="M172.35,150.52l6.19-9.22,0-.08h-5.45l.37-2.25h8.33l-.37,2.27-6.22,9.28Z" fill="#ffd200"/><path d="M194.47,150.52l6.18-9.22,0-.08h-5.45l.37-2.25h8.33l-.37,2.27-6.22,9.28Z" fill="#ffd200"/><path d="M215.84,150.52,222,141.3l0-.08H216.6L217,139h8.33l-.37,2.27-6.22,9.28Z" fill="#ffd200"/><path d="M198.88,215h0a17.64,17.64,0,0,1,17.64,17.64V258a0,0,0,0,1,0,0H181.24a0,0,0,0,1,0,0v-25.3A17.64,17.64,0,0,1,198.88,215Z" fill="#24285b"/><path d="M214,168.35h20.85a3.53,3.53,0,0,1,3.53,3.53v2.86a0,0,0,0,1,0,0H210.47a0,0,0,0,1,0,0v-2.86A3.53,3.53,0,0,1,214,168.35Z" fill="#24285b"/><ellipse cx="165.01" cy="173.2" rx="8" ry="3.08" fill="#ffd200"/><ellipse cx="186.3" cy="173.2" rx="8" ry="3.08" fill="#ffd200"/><ellipse cx="165.01" cy="173.2" rx="8" ry="3.08" fill="#fff" opacity="0.44"/><ellipse cx="186.3" cy="173.2" rx="8" ry="3.08" fill="#fff" opacity="0.44"/><ellipse cx="165.01" cy="171.38" rx="8" ry="3.08" fill="#ffd200"/><ellipse cx="186.3" cy="171.38" rx="8" ry="3.08" fill="#ffd200"/><path d="M257.88,158H248v-3.71h9.84a2.7,2.7,0,0,0,2.65-2.11l9.36-40.69,3.61.83L264.15,153A6.42,6.42,0,0,1,257.88,158Z" fill="#e6e6e6"/><circle cx="203.2" cy="58.6" r="3.96" fill="#fff" opacity="0.44"/><rect x="246.67" y="142.64" width="7.89" height="23.18" fill="#24285b"/><circle cx="271.24" cy="110.44" r="6.36" fill="#24285b"/><rect x="143.49" y="257.97" width="111.07" height="9.6" fill="#68e1fd"/><rect x="143.49" y="257.97" width="111.07" height="9.6" fill="#fff" opacity="0.44"/><path d="M273,256s-8.32-2.27-10.13-10c0,0,12.89-2.6,13.25,10.7Z" fill="#68e1fd" opacity="0.58"/><path d="M274,255.18s-5.82-9.19-.7-17.78c0,0,9.8,6.22,5.44,17.8Z" fill="#68e1fd" opacity="0.73"/><path d="M275.49,255.18s3.07-9.7,12.36-11.54c0,0,1.74,6.3-6,11.57Z" fill="#68e1fd"/><polygon points="269.46 254.97 271.15 266.5 281.77 266.55 283.33 255.03 269.46 254.97" fill="#24285b"/></svg>