<svg id="Layer_1" data-name="Layer 1" xmlns="http://www.w3.org/2000/svg" viewBox="0 0 400 300"><title>#104_slow working_twocolour</title><path d="M68.33,191.51S48.9,144.29,79.7,117.6s83-73.51,175.67-54.67,67.42,128.93,67.42,128.93Z" fill="#e6e6e6" opacity="0.4"/><path d="M175.55,143.21s-18.47-37.68,12.36-53.75,88.46-20.83,98.16,15.3-2,86.75-2,86.75l-98.65.09Z" fill="#24285b"/><path d="M175.55,143.21s-18.47-37.68,12.36-53.75,88.46-20.83,98.16,15.3-2,86.75-2,86.75l-98.65.09Z" fill="#fff" opacity="0.08"/><path d="M161,143.21s-18.47-37.68,12.36-53.75,88.46-20.83,98.16,15.3-2,86.75-2,86.75l-98.65.09Z" fill="#24285b"/><path d="M178.81,115s32.89-21.47,57.78-2.4,14.64,78.9,14.64,78.9H157.78S117.07,159.85,178.81,115Z" fill="#68e1fd"/><path d="M155.49,136.65s-33.47,45.18-9.41,54.86h20.83S188.18,130.91,155.49,136.65Z" fill="#68e1fd"/><polygon points="168.14 41.39 168.14 62.48 181.76 62.48 184.75 70.87 188.27 62.48 201.89 62.48 201.89 41.39 168.14 41.39" fill="#e6e6e6"/><path d="M82.91,182.24s-7.59-2.07-9.24-9.13c0,0,11.76-2.37,12.09,9.76Z" fill="#68e1fd" opacity="0.58"/><path d="M83.84,181.49s-5.3-8.38-.64-16.21c0,0,8.94,5.67,5,16.23Z" fill="#68e1fd" opacity="0.73"/><path d="M85.2,181.49S88,172.65,96.47,171c0,0,1.58,5.75-5.48,10.55Z" fill="#68e1fd"/><polygon points="79.7 181.3 81.24 191.81 90.92 191.86 92.35 181.35 79.7 181.3" fill="#24285b"/><rect x="58.95" y="198" width="277.98" height="65.86" fill="#c9c9c9"/><rect x="58.95" y="191.51" width="277.98" height="11.88" fill="#e6e6e6"/><path d="M281.33,191.62s7.49,51.89-46.33,72.24H336.93V191.51Z" opacity="0.08"/><rect x="189.23" y="189.61" width="37.61" height="1.9" fill="#fff"/><path d="M183.35,137.65s4.7,5.66-1.67,9.49-7.56,6.06-6.51,14.63-1,23.23-5.8,26.49h11.21v3.25H153l9.75-40.16,2.9-6.06,7-7.64Z" opacity="0.08"/><path d="M171.29,127s.58,8.82,5.91,8.23,4.73-3.93,4.73-3.93,5.2,1.25,5.83-3.13-3.45-9.22-7.71-9.7S171.29,127,171.29,127Z" fill="#fff"/><path d="M204.28,126.35S201,139,220.51,149.51s20,23.85,1.85,29.06-26,3.54-23.4,12.94h52.27s.72-6.78,1.52-13.19,7-51.44,7-51.44Z" opacity="0.08"/><path d="M172.3,126.58a37.17,37.17,0,0,1,2.79,3.1c1.17,1.51,3.34,3.43,6.1,2.1,4.25-2.05.91-8.7.91-8.7s-1.71-7.27-6.32-5.07C171.63,120,167.83,122,172.3,126.58Z" fill="#f4a28c"/><path d="M182,123.49s-1.1-1.95.52-3S186,123.21,182,123.49Z" fill="#f4a28c"/><path d="M174.4,127.55s-.71-2.13-2.6-1.64S171.51,130.32,174.4,127.55Z" fill="#f4a28c"/><path d="M172.3,126.58s-6.7,3.57-7.26-2.88,2.5-3.54,1.25-7.94-.59-5.91,2.37-5.81,3.41,4.53,5.61,1.58,3.55-5.18,5.82-3.22,2.56,3.47,1.31,5.63,3.95,3.21.3,7.87-9.73,1.38-9.73,1.38Z" fill="#ffd200"/><path d="M154.27,189.66a11.05,11.05,0,0,1-17-10.94,22.51,22.51,0,0,1,4-9.41c8.79-12.61,24.17-33.78,24.17-33.78s13.89-9,18.28-2.23S171.62,141,171.62,141,171.29,178.36,154.27,189.66Z" fill="#f4a28c"/><path d="M165.41,135.53l6.21,5.42s-1,50.73-24,50.65c0,0-15.42.52-10.43-17.58S147.35,158.84,165.41,135.53Z" fill="#68e1fd"/><path d="M165.41,135.53l6.21,5.42s-1,50.73-24,50.65c0,0-15.42.52-10.43-17.58S147.35,158.84,165.41,135.53Z" fill="#fff" opacity="0.46"/><polygon points="116.66 191.51 110.86 158.74 151.98 158.74 155.54 186.68 174.4 186.94 174.4 191.51 116.66 191.51" fill="#ffd200"/><circle cx="133.03" cy="174.45" r="4.12" fill="#fff"/><path d="M204.28,126.35c-3.72-10.6,4.64-21.54,15.87-21.39,18.7.25,49.25,5.14,59.41,33,15,41.12-59.05,47.71-59.05,47.71l-3.16-8.7s38.49-10.55,34.27-31.64C248.19,128.14,211.27,146.25,204.28,126.35Z" fill="#68e1fd"/><rect x="210.25" y="170.28" width="2.77" height="18.32" transform="translate(70.6 -59.51) rotate(19.16)" fill="#24285b"/><polygon points="207.32 187.64 207.41 191.58 209.93 188.55 207.32 187.64" fill="#ffd200"/><path d="M204.28,126.35c-3.72-10.6,4.64-21.54,15.87-21.39,18.7.25,49.25,5.14,59.41,33,15,41.12-59.05,47.71-59.05,47.71l-3.16-8.7s38.49-10.55,34.27-31.64C248.19,128.14,211.27,146.25,204.28,126.35Z" fill="#fff" opacity="0.46"/><path d="M218,177s-11.67,1-11.93,5.47,7.64,6.19,14.49,1.58Z" fill="#f4a28c"/><rect x="259.79" y="178.57" width="46.83" height="12.95" fill="#fff"/><polygon points="290.89 178.57 288 191.6 306.62 191.51 306.62 178.57 290.89 178.57" opacity="0.08"/><circle cx="176.6" cy="51.41" r="2.2" fill="#a5a5a5"/><circle cx="185.02" cy="51.41" r="2.2" fill="#a5a5a5"/><circle cx="193.36" cy="51.41" r="2.2" fill="#a5a5a5"/></svg>