<svg id="Layer_1" data-name="Layer 1" xmlns="http://www.w3.org/2000/svg" viewBox="0 0 400 300"><title>_</title><circle cx="200" cy="150" r="112.21" fill="#f2f2f2"/><circle cx="200" cy="150" r="85.66" opacity="0.05"/><circle cx="189.96" cy="230.47" r="18.21" fill="#ffd200"/><path d="M177.09,235.71c-.68.46-1.13.93-1.08,1.32a3,3,0,0,0,.55,1.22,21.85,21.85,0,0,0,4.88,5.27c1.47,1.15,3.24,2.09,4.27,0a44,44,0,0,0,2.89-7.72c.25-.9.68-3,0-3.79-.57-.62-1.86-.49-2.58-.35a15.28,15.28,0,0,0-3.88,1.55A44,44,0,0,0,177.09,235.71Z" fill="#fff" opacity="0.3"/><path d="M194.76,233.09c-.82-.53-2.08-1.41-3.13-1.18-1.35.3-1.39,1.69-1.55,2.8a37.87,37.87,0,0,0-.6,9.2,2,2,0,0,0,.25.92,1.9,1.9,0,0,0,1.74.52A14.68,14.68,0,0,0,201,240.7a2,2,0,0,0,.45-.67,2,2,0,0,0-.6-1.7A26.52,26.52,0,0,0,194.76,233.09Z" fill="#fff" opacity="0.3"/><path d="M180.28,221.48a2.81,2.81,0,0,0-2.47-.62c-3.1,1.18-4,6.11-3.27,8.9a2.29,2.29,0,0,0,1,1.52,2.57,2.57,0,0,0,1.85,0c1.85-.48,3.69-1,5.5-1.61,1.34-.44,5.4-.65,3.62-2.7a28.34,28.34,0,0,0-4.36-4.05C181.62,222.53,181,221.94,180.28,221.48Z" fill="#fff" opacity="0.3"/><path d="M202.42,234.39a2.54,2.54,0,0,0,1.64.19,2.37,2.37,0,0,0,1.24-1.87c.5-2.19.61-11.15-3.42-9.39q-2.53,1.11-5,2.31a36.61,36.61,0,0,0-4.8,2.43c-2.11,1.47,1.77,2.84,2.81,3.29C197.35,232.45,199.86,233.49,202.42,234.39Z" fill="#fff" opacity="0.3"/><path d="M183.49,219c-.84-1.58-.72-2.93,1.22-3.61a18.93,18.93,0,0,1,7.58-1.23,10.24,10.24,0,0,1,6.86,3.13.87.87,0,0,1,0,1.36,12.67,12.67,0,0,1-1.9,1.83l-4.48,3.76c-1,.83-2.74,2.92-4.23,2.2a3.63,3.63,0,0,1-1.28-1.3q-2-2.91-3.72-6A1.09,1.09,0,0,1,183.49,219Z" fill="#fff" opacity="0.3"/><path d="M266.3,114.06a25.26,25.26,0,0,1-.8,4.61c-2.68,10-11.14,18.06-20.12,23.68-13.4,8.39-29.14,13.8-39,26.85-3.79,5-6.83,10.64-10.79,15.55-18.8,23.28-59.46,27.32-78.56,2.36a58.43,58.43,0,0,1-10-21.25,92.27,92.27,0,0,1-2.51-25.77c1-30.42,17.54-53.25,45.67-64.75,3-1.25,6.14-2.34,9.28-3.3,13-4,26.7-5.76,40.3-6.84,24.11-1.91,43.82,4.53,58.31,24.85C263.14,97.08,267,105.46,266.3,114.06Z" opacity="0.1"/><path d="M266.3,110.16a25.26,25.26,0,0,1-.8,4.61c-2.68,10-11.14,18.06-20.12,23.68-13.4,8.39-29.14,13.8-39,26.85-3.79,5-6.83,10.64-10.79,15.55-18.8,23.28-59.46,27.32-78.56,2.36a58.43,58.43,0,0,1-10-21.25,92.27,92.27,0,0,1-2.51-25.77c1-30.42,17.54-53.25,45.67-64.75,3-1.25,6.14-2.34,9.28-3.3,13-4,26.7-5.76,40.3-6.84,24.11-1.91,43.82,4.53,58.31,24.85C263.14,93.18,267,101.56,266.3,110.16Z" fill="#68e1fd"/><path d="M254.77,98.86c3.52,8.38,3.93,18.4-.52,26.32a33.06,33.06,0,0,1-8.42,9.42,77.74,77.74,0,0,1-12.53,7.86c-2.08,1.09-4.24,2-6.21,3.32-.34.21-4.44,2.54-4.32,1.94,1.11-5.51,5.25-10.28,5.31-15.91s-4.54-10.9-10.07-12.43-11.6.13-16.28,3.45a20.77,20.77,0,0,0-8.38,11.88,15.2,15.2,0,0,0,3.47,13.82c2,2.05,4.56,3.4,6.7,5.27a3.8,3.8,0,0,1,1.37,1.93,3.68,3.68,0,0,1-.26,2c-1.26,3.51-4.24,6.11-6.61,8.89-2.72,3.19-5.32,6.49-8.1,9.63-5.47,6.16-12,11.87-20,13.83-6.61,1.61-14.65.84-21.11-1.08-20.5-6.1-32.57-27.44-30.87-48.14.19-2.32-.07-6.16,1.29-8.08,1.71-2.44,6-2.75,8.63-2.34,3.63.55,7,2.27,10.57,3a20.25,20.25,0,0,0,10.25-.55c-4.61-2.39-9.94-3.48-14-6.7-17.56-13.86,5.9-34.38,18-41.5A83.31,83.31,0,0,1,178.36,75a123.56,123.56,0,0,1,13.42-1.8c3.76-.33,5.79-2.34,8.39,1.52a11.67,11.67,0,0,1,1.53,2.79,7.7,7.7,0,0,1,.23,3.41c-.51,3.82-2.93,7.17-3.58,11,3.34-2,4.88-5.89,6.41-9.46s3.64-7.37,7.35-8.52,9.59,1,13.16,1.93a56.71,56.71,0,0,1,12.25,4.71A37.38,37.38,0,0,1,254.77,98.86Z" fill="#fff" opacity="0.3"/><path d="M204.65,127.78a13.42,13.42,0,0,0-4.62,4.49,10.71,10.71,0,0,0-.09,10.11,13.2,13.2,0,0,0,8,6.4,12.22,12.22,0,0,0,5.13.44,11.28,11.28,0,0,0,9.13-9.13c.75-4.38-1.52-9.75-4.66-12.87C214.15,123.85,208.24,125.53,204.65,127.78Z" fill="#fff" opacity="0.3"/><path d="M256.77,167.63l1.32-1a154,154,0,0,1,19-12.72c4.95-2.81,13.16-5.58,15-11.58,1.74-5.66-3.94-10.82-9.09-11.45s-10.17,1.61-14.76,4c-14.4,7.55-28.08,16.65-39.93,27.83a134.63,134.63,0,0,0-16.17,18.23c-4.18,5.67-17.08,20.43-9.52,27.47,9.23,8.57,19.32-2,24.42-9.2A155.12,155.12,0,0,1,256.77,167.63Z" fill="#68e1fd"/><path d="M219.67,173a27.6,27.6,0,0,0,5,17.93,19.17,19.17,0,0,1-7.89-7.59C214.13,178.26,219.67,173,219.67,173Z" fill="#fff" opacity="0.3"/><path d="M228.26,164a27.63,27.63,0,0,0,5,17.94,19.23,19.23,0,0,1-7.89-7.6C222.72,169.29,228.26,164,228.26,164Z" fill="#fff" opacity="0.3"/><path d="M238,155A27.66,27.66,0,0,0,242.92,173a19.22,19.22,0,0,1-7.89-7.6C232.42,160.32,238,155,238,155Z" fill="#fff" opacity="0.3"/><path d="M247.5,148.07a27.61,27.61,0,0,0,5,17.93,19.23,19.23,0,0,1-7.9-7.59C242,153.34,247.5,148.07,247.5,148.07Z" fill="#fff" opacity="0.3"/><path d="M256.84,142.11a27.64,27.64,0,0,0,5,17.93,19.23,19.23,0,0,1-7.89-7.59C251.29,147.39,256.84,142.11,256.84,142.11Z" fill="#fff" opacity="0.3"/><path d="M164.81,230.88c-.32,2.89-.55,5.6,1.87,7.63,3.2,2.69,5.66,3.39,9.85,3.19a25.34,25.34,0,0,0,8.63-1.7,13.59,13.59,0,0,0,6.66-5.57,17.11,17.11,0,0,0,1.84-5.92,16.66,16.66,0,0,0,0-6.41c-1.09-4.65-5.44-8.18-10.17-8.82a15.57,15.57,0,0,0-12.94,4.77A21.92,21.92,0,0,0,164.81,230.88Z" opacity="0.1"/><circle cx="172.74" cy="222.32" r="18.21" fill="#ffd200"/><path d="M159.87,227.56c-.68.47-1.13.93-1.08,1.32a2.94,2.94,0,0,0,.55,1.22,22,22,0,0,0,4.88,5.27c1.47,1.15,3.24,2.09,4.28,0a44.14,44.14,0,0,0,2.88-7.71c.25-.91.69-3,0-3.8-.56-.62-1.86-.49-2.58-.35a15.28,15.28,0,0,0-3.88,1.55A44.78,44.78,0,0,0,159.87,227.56Z" fill="#fff" opacity="0.3"/><path d="M177.54,224.94c-.81-.53-2.08-1.41-3.12-1.18-1.36.3-1.39,1.69-1.56,2.8a37.92,37.92,0,0,0-.6,9.21,1.81,1.81,0,0,0,.26.91,1.88,1.88,0,0,0,1.73.52,14.7,14.7,0,0,0,9.58-4.65,1.86,1.86,0,0,0,.44-.67,1.94,1.94,0,0,0-.6-1.7A26.56,26.56,0,0,0,177.54,224.94Z" fill="#fff" opacity="0.3"/><path d="M163.06,213.33a2.81,2.81,0,0,0-2.46-.62c-3.11,1.18-4,6.11-3.28,8.9a2.34,2.34,0,0,0,1,1.52,2.57,2.57,0,0,0,1.85,0c1.84-.48,3.68-1,5.49-1.61,1.34-.44,5.41-.65,3.62-2.7a27.89,27.89,0,0,0-4.36-4.05C164.4,214.38,163.76,213.79,163.06,213.33Z" fill="#fff" opacity="0.3"/><path d="M185.2,226.24a2.57,2.57,0,0,0,1.65.19,2.42,2.42,0,0,0,1.24-1.87c.49-2.19.6-11.15-3.43-9.39-1.68.74-3.36,1.51-5,2.31a35.87,35.87,0,0,0-4.79,2.43c-2.12,1.47,1.77,2.84,2.8,3.29C180.14,224.3,182.64,225.34,185.2,226.24Z" fill="#fff" opacity="0.3"/><path d="M166.27,210.86c-.83-1.58-.71-2.93,1.23-3.6a18.55,18.55,0,0,1,7.57-1.23,10.21,10.21,0,0,1,6.87,3.12,1.19,1.19,0,0,1,.33.61,1.1,1.1,0,0,1-.31.75,12.58,12.58,0,0,1-1.89,1.83l-4.48,3.77c-1,.82-2.75,2.91-4.24,2.19a3.45,3.45,0,0,1-1.27-1.3c-1.33-1.94-2.58-3.94-3.73-6Z" fill="#fff" opacity="0.3"/><path d="M217,212.49c3.91-1.05,7-4,9.59-7.13,3.4-4.08,6.28-8.56,9.55-12.75,10.15-13,23.85-22.92,38.49-30.54,6.8-3.55,14.42-7.24,17.3-14.34a4.58,4.58,0,0,0,.24-3.65c-.78-1.6-2.87-2-4.65-2.05-7.16-.2-14.2,1.9-20.8,4.66-21.22,8.86-39,24.61-53.25,42.66-3.64,4.62-10,11.91-9.61,18.24C204.2,213.08,213,213.56,217,212.49Z" opacity="0.1"/><path d="M275.65,192l1.32-1a155,155,0,0,1,19-12.71c4.95-2.81,13.17-5.59,15-11.59,1.74-5.66-3.94-10.81-9.09-11.45s-10.17,1.62-14.76,4c-14.4,7.55-28.08,16.66-39.93,27.83A135.24,135.24,0,0,0,231,205.23c-4.17,5.68-17.08,20.44-9.51,27.47,9.22,8.58,19.32-2,24.41-9.19A154.87,154.87,0,0,1,275.65,192Z" fill="#68e1fd"/><path d="M238.55,197.29a27.63,27.63,0,0,0,5,17.94,19.16,19.16,0,0,1-7.89-7.6C233,202.57,238.55,197.29,238.55,197.29Z" fill="#fff" opacity="0.3"/><path d="M247.15,188.33a27.57,27.57,0,0,0,4.95,17.93,19.23,19.23,0,0,1-7.89-7.59C241.6,193.61,247.15,188.33,247.15,188.33Z" fill="#fff" opacity="0.3"/><path d="M256.85,179.36a27.6,27.6,0,0,0,5,17.93,19.23,19.23,0,0,1-7.9-7.59C251.31,184.64,256.85,179.36,256.85,179.36Z" fill="#fff" opacity="0.3"/><path d="M266.38,172.38a27.63,27.63,0,0,0,5,17.94,19.29,19.29,0,0,1-7.9-7.6C260.84,177.66,266.38,172.38,266.38,172.38Z" fill="#fff" opacity="0.3"/><path d="M275.72,166.42a27.63,27.63,0,0,0,5,17.94,19.21,19.21,0,0,1-7.9-7.6C270.18,171.7,275.72,166.42,275.72,166.42Z" fill="#fff" opacity="0.3"/><path d="M235.89,236.8c3.91-1,7-4,9.59-7.12,3.4-4.08,6.28-8.56,9.55-12.75,10.16-13,23.85-22.92,38.49-30.55,6.8-3.54,14.42-7.24,17.3-14.34a4.56,4.56,0,0,0,.24-3.64c-.78-1.61-2.87-2-4.65-2.05-7.16-.2-14.2,1.89-20.8,4.65-21.21,8.87-39,24.61-53.25,42.67-3.64,4.61-10,11.91-9.61,18.24C223.08,237.4,231.87,237.88,235.89,236.8Z" opacity="0.1"/></svg>