<svg id="Layer_1" data-name="Layer 1" xmlns="http://www.w3.org/2000/svg" viewBox="0 0 400 300"><title>_</title><path d="M299.3,62.86c35.11,9.58,68.35,36.44,69,71.5s-11.42,70.89-75.73,85.32C232.14,233.23,89,239.23,51.36,196,15.86,155.22,28,88.4,91.09,66.5,135.32,51.15,230.74,44.14,299.3,62.86Z" fill="#e6e6e6" opacity="0.3"/><path d="M285.76,234.2c12.52-8.32,22.38-19.28,25.92-33.41.55-2.28.91-4.82-.24-6.87s-3.77-3.17-6.21-3.52c-4.9-.71-9.85.61-14.6,2a372.93,372.93,0,0,0-50.7,19.08c-21.92,10.14-52.13,18.45-69.53-3.72-6.48-8.25-10.1-18.34-13.55-28.25s-6.93-20-13.18-28.45c-2.78-3.75-7.36-7.42-11.66-5.62-4.95,2.07-4.75,9.06-3.7,14.32-7.59-2.73-10.93-11.28-15.39-18a44.82,44.82,0,0,0-15.49-14.31c-4-2.21-8.71-3.82-13-2.41-4.87,1.58-7.9,6.68-8.57,11.75-.88,6.75,1,12.73,4.24,18.39,2.45,4.23,7.62,17.45,12.06,19.45-4.07-1.83-7.27-5.1-10.71-7.95s-10-7.65-14.3-4.28c-1.93,1.52-2.47,4.24-2.31,6.69.45,6.77,5,12.49,9.7,17.4a162.37,162.37,0,0,0,21.37,18.87,17.17,17.17,0,0,0-10.25-.57,6.71,6.71,0,0,0-3.95,2.33c-6.16,8.75,13.13,20.78,18.61,24.41C113.06,240,129.1,245,143.87,248.9,189.55,261.05,245.05,261.27,285.76,234.2Z" fill="#e6e6e6"/><path d="M263.19,221.13c-34.53,8.67-86.9,18.12-103.53,16.86l-3.9-15.53c14.06-9,64.69-25.37,99.22-34,50.1-12.58,73.33-1,73.33-1S313.29,208.54,263.19,221.13Z" fill="#ccc"/><path d="M298.07,82.13c.94-2.09,2.15-5.32.92-5.93s-2.53,2.29-3.33,4.39c.19-2.14.4-6.68-1.56-5-2.54,2.16-1.71,10.61-1.71,10.61s-3.62,52-40.71,9.08C247,89.81,237.77,92,233.87,98.06a10.41,10.41,0,0,0,3.39,14.56c10.6,6.36,26.22,18,40.45,16.89,18.44-1.52,20.62-42.1,20.62-42.1C300.4,84.17,299.41,82.75,298.07,82.13Z" fill="#f4a28c"/><path d="M242.2,70.65a30.55,30.55,0,0,1-2,7.88,2.45,2.45,0,0,1-3.29,1.13,5.4,5.4,0,0,1-3.34-4.85L233,70.34a4.39,4.39,0,0,1,2.83-4.22C238.91,64.73,242.69,67.71,242.2,70.65Z" fill="#f4a28c"/><polygon points="233.08 71.15 227.45 86.16 235.95 88.67 236.63 76.74 233.08 71.15" fill="#f4a28c"/><path d="M241,70.61a20.13,20.13,0,0,1-4.35-1.24,4.07,4.07,0,0,1-.89,4.39,3.33,3.33,0,0,1-4.2.49l1.34-6.14a5,5,0,0,1,3.36-3.85,17.79,17.79,0,0,1,2.26-.58c1.91-.35,4.27,1.36,6.1.48a1.18,1.18,0,0,1,1.68,1.14c-.1,1.93-1,4.8-3.78,5.31A4.31,4.31,0,0,1,241,70.61Z" fill="#24285b"/><path d="M236.27,73.72s.34-1.85-1.07-2-1.93,2.53-.09,3.16Z" fill="#f4a28c"/><path d="M241.69,73.7l1,2.12a.78.78,0,0,1-.72,1.1l-1.91,0Z" fill="#f4a28c"/><path d="M236.59,79.36a5.78,5.78,0,0,1-2.46-2.25s-.46,2.9,2.12,6.38Z" fill="#ce8172" opacity="0.31"/><path d="M227.45,86.16l5.78,1.71a39.29,39.29,0,0,0,4.29,1c4.64.79,18.16,4.36,21.22,19.27,3.71,18.07-20.87,43.66-20.87,43.66l-29.86-6S184.81,79.07,227.45,86.16Z" fill="#68e1fd"/><path d="M241,148.33a49.82,49.82,0,0,1,20,9.5c-1.53,1-3.05,2-4.54,3.1-2.88,2-5.73,4.09-8.56,6.18-10.6-2.26-21.17.73-28.91-.35-14.3-2-10.94-20.95-10.94-20.95Z" fill="#24285b"/><path d="M281.13,189.14c-1.94,1.47-3.37-1.28-3.37-1.28s-2-18.19-16.81-30q-2.29,1.52-4.54,3.11c-2.88,2-5.73,4.09-8.56,6.18,9,1.91,18.86,8.82,26.21,24h0l1.86,4.49s6.78-2.73,8-4.65S283.06,187.67,281.13,189.14Z" fill="#f4a28c"/><path d="M228,102.61s.4,7.42-8.34,17.24,4.53,27.2,4.53,27.2L208,145.81s-7-21.86-6.27-36.25,25.46-6.85,25.46-6.85Z" opacity="0.08"/><path d="M227.53,94.44a16.7,16.7,0,0,0-16.22-8.3A67.77,67.77,0,0,0,200.53,88a51.52,51.52,0,0,0-11.8,4.6A35.74,35.74,0,0,0,178.4,101,31.82,31.82,0,0,0,172,114.2a48.47,48.47,0,0,0-.08,19,74.33,74.33,0,0,0,2.23,9.32,48.52,48.52,0,0,0,1.63,4.66l1,2.43s-4.25,6.19-1.93,7.32,4.91.16,6-3.45a13.28,13.28,0,0,0,0-6.55s-2.55-38.87,30.33-38.56a30,30,0,0,0,3.67-.16C220.34,107.61,233.38,104.94,227.53,94.44Z" fill="#f4a28c"/><path d="M229.57,189.76c.55-1.23,1.09-2.49,1.59-3.81-3.36-.92-6.74-1.83-10.1-2.78l-2.62-.72A41.37,41.37,0,0,0,213,153.84l21.57,1.74C236.11,169.67,233.64,181,229.57,189.76Z" fill="#24285b"/><path d="M231.16,186c-3.37-.92-6.74-1.83-10.1-2.77l-2.62-.73c-1.53,8.59-4.19,20.91-14.75,30.69l-3.07,3.2s2.38,5.81,4.42,6.78,3.13-1.23,1.44-3-.64-4.4-.64-4.4A57.86,57.86,0,0,0,231.16,186Z" fill="#f4a28c"/><path d="M130.58,123.67a17.31,17.31,0,0,0-3.23-6.78c-1.69-1.87-4.46-3-6.8-2.07-.74,4.53,1.87,15.65,6.64,17.83C133.86,135.68,131.68,127.35,130.58,123.67Z" fill="#e6e6e6"/><circle cx="146.13" cy="63.63" r="20.4" fill="#ffd200"/><path d="M119.87,93.72A8.69,8.69,0,0,0,111.19,85a8.1,8.1,0,0,0-1.4.13A11.69,11.69,0,0,0,99.49,79c-.15,0-.29,0-.43,0a13.9,13.9,0,1,0-26.93,0c-.14,0-.28,0-.43,0a11.71,11.71,0,0,0,0,23.41h40.62v-.08A8.67,8.67,0,0,0,119.87,93.72Z" fill="#e6e6e6" opacity="0.49"/><path d="M365.21,103.4a6.28,6.28,0,0,0-6.27-6.28,6.65,6.65,0,0,0-1,.09,8.46,8.46,0,0,0-7.45-4.45h-.31a9.75,9.75,0,0,0,.31-2.43,10,10,0,1,0-20.07,0,9.75,9.75,0,0,0,.31,2.43h-.31a8.46,8.46,0,1,0,0,16.91h29.35v-.06A6.27,6.27,0,0,0,365.21,103.4Z" fill="#e6e6e6" opacity="0.49"/></svg>