<svg id="Layer_1" data-name="Layer 1" xmlns="http://www.w3.org/2000/svg" viewBox="0 0 400 300"><polygon points="300.47 146.09 316.76 146.09 334.5 187.63 311.53 187.63 300.47 146.09" fill="#68e1fd"/><polygon points="300.47 146.09 316.76 146.09 334.5 187.63 311.53 187.63 300.47 146.09" opacity="0.09"/><path d="M252.51,123.19s8.08-15.4,16.25-25.21a3.19,3.19,0,0,1,5,.14c7.07,9.44,28.27,40.82,43,94.88H298.22Z" fill="#68e1fd"/><path d="M252.51,123.19s8.08-15.4,16.25-25.21a3.19,3.19,0,0,1,5,.14c7.07,9.44,28.27,40.82,43,94.88H298.22Z" fill="#fff" opacity="0.44"/><path d="M255.26,124.74s7.17-13.67,14.37-22.25a2.63,2.63,0,0,1,4.11.11c6.05,8.05,24.8,35.59,37.79,83.28H295.3Z" fill="#24285b"/><path d="M236.23,146.7s10.47-17.13,19.11-26.65a2.71,2.71,0,0,1,3.78-.22c8.09,7,38.39,34.59,42.73,60.38Z" fill="#68e1fd"/><path d="M236.23,146.7s10.47-17.13,19.11-26.65a2.71,2.71,0,0,1,3.78-.22c8.09,7,38.39,34.59,42.73,60.38Z" fill="#fff" opacity="0.44"/><path d="M239.58,146.76s9.15-15,16.54-23a1.82,1.82,0,0,1,2.52-.15c6.27,5.36,32.9,29.28,36.66,51.59Z" fill="#24285b"/><path d="M231.72,144.4A126.85,126.85,0,0,1,241,133.62a3.31,3.31,0,0,1,4.15-.4c8.3,5.52,37.72,26.59,47.55,54.41H236Z" fill="#68e1fd"/><path d="M243.48,132.68s47.6,9.66,62,54.09H282.27Z" fill="#68e1fd"/><path d="M231.72,144.4A126.85,126.85,0,0,1,241,133.62a3.31,3.31,0,0,1,4.15-.4c8.3,5.52,37.72,26.59,47.55,54.41H236Z" fill="#fff" opacity="0.44"/><path d="M233.53,148.11a88.49,88.49,0,0,1,8.66-11,1.78,1.78,0,0,1,2.31-.17c6.27,4.57,35.12,26.55,42.95,49.83l-49.8-.41Z" fill="#24285b"/><path d="M170.45,81.34S229.08,84.1,245,186.77H219l-22.74-52.72Z" fill="#68e1fd"/><path d="M156.54,112.51s5.33-20,11.5-29.87a2.78,2.78,0,0,1,4.28-.52c8.12,7.93,34.86,36.65,38.6,74.38Z" fill="#68e1fd"/><path d="M156.54,112.51s5.33-20,11.5-29.87a2.78,2.78,0,0,1,4.28-.52c8.12,7.93,34.86,36.65,38.6,74.38Z" fill="#fff" opacity="0.44"/><path d="M203,138.84s24.1,9.39,35.21,40.45H224.46Z" opacity="0.09"/><path d="M159.78,113.47s4.45-17.92,9.67-26a1.9,1.9,0,0,1,2.94-.32c6.32,6.22,29.43,31,32.59,62.93Z" fill="#24285b"/><path d="M150.14,111.49s51.79,1.45,84.08,74.39H208.35Z" fill="#68e1fd"/><path d="M138.74,127.63a60.16,60.16,0,0,1,9.75-15.28,2.83,2.83,0,0,1,3.6-.44c9,5.78,46.24,32,56.26,74h-12.1Z" fill="#68e1fd"/><path d="M138.74,127.63a60.16,60.16,0,0,1,9.75-15.28,2.83,2.83,0,0,1,3.6-.44c9,5.78,46.24,32,56.26,74h-12.1Z" fill="#fff" opacity="0.44"/><path d="M143.28,127.63a64.86,64.86,0,0,1,6.35-11,1.72,1.72,0,0,1,2.4-.29c7.48,5.74,44.56,35.6,51.23,69.52H190.88Z" fill="#24285b"/><path d="M116.36,127.69h31.41a14.34,14.34,0,0,1,8,2.43c10,6.73,36.36,27,40.48,55.76l-18.44.89Z" fill="#68e1fd"/><path d="M104.08,187.6s.16-39.26,9.4-58.49a2.64,2.64,0,0,1,3.6-1.18c10.21,5.25,50.43,27.6,60.73,58.84Z" fill="#68e1fd"/><path d="M104.08,187.6s.16-39.26,9.4-58.49a2.64,2.64,0,0,1,3.6-1.18c10.21,5.25,50.43,27.6,60.73,58.84Z" fill="#fff" opacity="0.44"/><path d="M107.1,187.6s-.79-28.8,7.92-55a1.55,1.55,0,0,1,2.26-.85c8.9,5.19,50.85,30.83,55,55Z" fill="#24285b"/><rect x="39.58" y="225.52" width="322.54" height="10.1" rx="4.76" fill="#24285b"/><rect x="54.8" y="200.48" width="76.85" height="7.23" fill="#ffd200"/><rect x="64.12" y="193.26" width="67.53" height="7.23" fill="#ffd200"/><rect x="79.05" y="185.29" width="52.6" height="7.96" fill="#ffd200"/><polygon points="155.27 185.29 159.1 179.29 200.98 179.29 197.4 188.1 155.27 188.1 155.27 185.29" fill="#ffd200"/><polygon points="155.27 185.29 159.1 179.29 200.98 179.29 197.4 188.1 155.27 188.1 155.27 185.29" opacity="0.09"/><rect x="131.65" y="185.29" width="44.81" height="22.42" fill="#ffd200"/><rect x="131.65" y="185.29" width="44.81" height="22.42" opacity="0.09"/><polygon points="176.46 207.71 176.46 185.29 198.54 185.29 200.98 179.29 320.21 179.29 326.2 188.1 326.2 207.71 176.46 207.71" fill="#ffd200"/><polygon points="256.5 207.71 256.5 184.53 300.18 207.71 256.5 207.71" opacity="0.09"/><polygon points="256.5 184.53 346.63 184.53 346.63 207.71 300.18 207.71 256.5 184.53" fill="#ffd200"/><polygon points="256.5 184.53 346.63 184.53 346.63 207.71 300.18 207.71 256.5 184.53" fill="#fff" opacity="0.44"/><polygon points="120.54 185.29 109.18 207.71 131.65 207.71 131.65 185.29 120.54 185.29" opacity="0.04"/><rect x="48.96" y="207.71" width="303.83" height="17.81" fill="#e6e6e6"/><rect x="48.96" y="216.62" width="303.83" height="8.9" fill="#c1c1c1" opacity="0.46"/></svg>