<svg id="Layer_1" data-name="Layer 1" xmlns="http://www.w3.org/2000/svg" viewBox="0 0 400 300"><path d="M52.78,120c-31,46.42,0,125.83,0,125.83H349c8.17-64.15,32.55-166.27-79.42-187.32C231.3,51.27,94.85,56.89,52.78,120Z" fill="#e6e6e6" opacity="0.3"/><circle cx="124.83" cy="78.02" r="19.04" fill="#ffd200"/><circle cx="124.83" cy="78.02" r="29.75" fill="#ffd200" opacity="0.15"/><path d="M300.93,116.54a5,5,0,0,0-1.73.31,9,9,0,0,0,.41-2.65,8.77,8.77,0,0,0-17.54,0c0,.23,0,.46,0,.69a6.35,6.35,0,1,0-2.88,12h21.7a5.18,5.18,0,1,0,0-10.36Z" fill="#dddbdb"/><path d="M259.48,74.76a5.2,5.2,0,0,0-1.73.31,9,9,0,0,0,.41-2.65,8.77,8.77,0,0,0-17.54,0c0,.23,0,.46,0,.69a6.27,6.27,0,0,0-2.87-.69,6.35,6.35,0,1,0,0,12.7h21.7a5.18,5.18,0,1,0,0-10.36Z" fill="#dddbdb" opacity="0.52"/><rect x="284.65" y="152.19" width="2.82" height="18.79" transform="translate(572.12 323.17) rotate(-180)" fill="#68e1fd"/><rect x="275.43" y="158.8" width="2.82" height="14.36" transform="translate(553.67 331.97) rotate(-180)" fill="#68e1fd"/><rect x="264.38" y="170.28" width="23.09" height="69.55" transform="translate(551.84 410.1) rotate(-180)" fill="#68e1fd"/><rect x="264.38" y="170.28" width="23.09" height="69.55" transform="translate(551.84 410.1) rotate(-180)" fill="#fff" opacity="0.26"/><rect x="235.23" y="170.28" width="29.15" height="69.55" transform="translate(499.61 410.1) rotate(-180)" fill="#68e1fd"/><path d="M248.46,182.32a1.79,1.79,0,0,1,1.38-.64h1.06a1.79,1.79,0,0,1,1.38.64l6.61,7.93v16.21h-17V190.25Z" opacity="0.05"/><path d="M248.46,213.44a1.8,1.8,0,0,1,1.38-.65h1.06a1.8,1.8,0,0,1,1.38.65l6.61,7.92v16.21h-17V221.36Z" opacity="0.05"/><path d="M274.93,182.32a1.16,1.16,0,0,1,1-.64h.74a1.16,1.16,0,0,1,1,.64l4.64,7.93v16.21h-12V190.25Z" opacity="0.05"/><path d="M274.93,213.44a1.17,1.17,0,0,1,1-.65h.74a1.17,1.17,0,0,1,1,.65l4.64,7.92v16.21h-12V221.36Z" opacity="0.05"/><path d="M242.41,152.19v18.08h26V152.19c0-7.2-8-14.58-13-14.58S242.41,145,242.41,152.19Z" fill="#68e1fd"/><rect x="254.91" y="131.24" width="1.06" height="8.54" transform="translate(510.88 271.01) rotate(-180)" fill="#68e1fd"/><rect x="241.85" y="153.95" width="27.72" height="2.72" transform="translate(511.42 310.62) rotate(-180)" fill="#68e1fd"/><rect x="241.85" y="153.95" width="27.72" height="2.72" transform="translate(511.42 310.62) rotate(-180)" fill="#fff" opacity="0.26"/><path d="M252.15,159.67h6.57a0,0,0,0,1,0,0V167a3.28,3.28,0,0,1-3.28,3.28h0a3.28,3.28,0,0,1-3.28-3.28v-7.32A0,0,0,0,1,252.15,159.67Z" transform="translate(510.88 329.95) rotate(-180)" opacity="0.05"/><path d="M265.17,163v7.32h3.29v-10.6a3.31,3.31,0,0,0-2.33,1A3.27,3.27,0,0,0,265.17,163Z" opacity="0.05"/><path d="M242.41,159.67v10.6h3.29V163A3.28,3.28,0,0,0,242.41,159.67Z" opacity="0.05"/><rect x="114.2" y="152.19" width="2.82" height="18.79" fill="#68e1fd"/><rect x="123.42" y="158.8" width="2.82" height="14.36" fill="#68e1fd"/><rect x="114.2" y="170.28" width="23.09" height="69.55" fill="#68e1fd"/><rect x="114.2" y="170.28" width="23.09" height="69.55" fill="#fff" opacity="0.26"/><rect x="137.29" y="170.28" width="29.15" height="69.55" fill="#68e1fd"/><path d="M153.21,182.32a1.8,1.8,0,0,0-1.39-.64h-1a1.79,1.79,0,0,0-1.38.64l-6.61,7.93v16.21h17V190.25Z" opacity="0.05"/><path d="M153.21,213.44a1.81,1.81,0,0,0-1.39-.65h-1a1.8,1.8,0,0,0-1.38.65l-6.61,7.92v16.21h17V221.36Z" opacity="0.05"/><path d="M126.74,182.32a1.16,1.16,0,0,0-1-.64H125a1.16,1.16,0,0,0-1,.64l-4.64,7.93v16.21h12V190.25Z" opacity="0.05"/><path d="M126.74,213.44a1.17,1.17,0,0,0-1-.65H125a1.17,1.17,0,0,0-1,.65l-4.64,7.92v16.21h12V221.36Z" opacity="0.05"/><path d="M159.26,152.19v18.08h-26V152.19c0-7.2,8-14.58,13-14.58S159.26,145,159.26,152.19Z" fill="#68e1fd"/><rect x="145.7" y="131.24" width="1.06" height="8.54" fill="#68e1fd"/><rect x="132.1" y="153.95" width="27.72" height="2.72" fill="#68e1fd"/><rect x="132.1" y="153.95" width="27.72" height="2.72" fill="#fff" opacity="0.26"/><path d="M146.23,159.67h0a3.28,3.28,0,0,1,3.28,3.28v7.32a0,0,0,0,1,0,0h-6.57a0,0,0,0,1,0,0V163a3.28,3.28,0,0,1,3.28-3.28Z" opacity="0.05"/><path d="M136.5,163v7.32h-3.29v-10.6a3.31,3.31,0,0,1,2.33,1A3.27,3.27,0,0,1,136.5,163Z" opacity="0.05"/><path d="M159.26,159.67v10.6H156V163A3.28,3.28,0,0,1,159.26,159.67Z" opacity="0.05"/><rect x="166.44" y="147.28" width="68.79" height="92.54" fill="#68e1fd"/><rect x="164.7" y="139.78" width="72.27" height="7.51" fill="#68e1fd"/><rect x="164.7" y="139.78" width="72.27" height="7.51" fill="#fff" opacity="0.26"/><polyline points="176.09 239.82 176.09 165.98 225.58 165.98 225.58 239.82" fill="none" stroke="#fff" stroke-miterlimit="10" opacity="0.26"/><polyline points="171.28 239.82 171.28 159.67 230.39 159.67 230.39 239.82" fill="none" stroke="#fff" stroke-miterlimit="10" opacity="0.26"/><path d="M200.83,177.6c6.13,0,21.19,15.75,21.19,27.45v34.77H179.65V205.05C179.65,193.35,194.71,177.6,200.83,177.6Z" opacity="0.2"/><path d="M200,96.23c9.64,0,33.57,15,33.57,33.57v10H166.44v-10C166.44,111.26,190.37,96.23,200,96.23Z" fill="#68e1fd"/><path d="M200,74h0a1.08,1.08,0,0,1,1.08,1.08v26.51a0,0,0,0,1,0,0h-2.16a0,0,0,0,1,0,0V75.07A1.08,1.08,0,0,1,200,74Z" fill="#68e1fd"/><rect x="197.85" y="79.62" width="4.32" height="13.7" rx="2.16" fill="#68e1fd"/><rect x="198.04" y="76.05" width="3.94" height="1.97" rx="0.99" fill="#68e1fd"/><polygon points="100.9 239.82 88.94 239.82 90.14 170.27 99.71 170.27 100.9 239.82" fill="#68e1fd"/><rect x="88.87" y="168.19" width="12.11" height="2.08" rx="1.04" fill="#68e1fd"/><rect x="87.73" y="195.9" width="14.39" height="2.08" rx="1.04" fill="#68e1fd"/><rect x="87.73" y="215.54" width="14.39" height="2.08" rx="1.04" fill="#68e1fd"/><rect x="88.87" y="168.19" width="12.11" height="2.08" rx="1.04" fill="#fff" opacity="0.26"/><rect x="87.73" y="195.9" width="14.39" height="2.08" rx="1.04" fill="#fff" opacity="0.26"/><rect x="87.73" y="215.54" width="14.39" height="2.08" rx="1.04" fill="#fff" opacity="0.26"/><rect x="88.87" y="161.59" width="12.11" height="2.08" rx="1.04" fill="#68e1fd"/><rect x="88.87" y="161.59" width="12.11" height="2.08" rx="1.04" fill="#fff" opacity="0.26"/><rect x="90.59" y="163.67" width="8.66" height="4.53" fill="#68e1fd"/><rect x="90.59" y="163.67" width="8.66" height="4.53" opacity="0.05"/><path d="M94.92,157.12a4.51,4.51,0,0,1,4.33,4.32v.15H90.59v-.15A4.51,4.51,0,0,1,94.92,157.12Z" fill="#68e1fd"/><polygon points="95.84 159.35 94.01 159.35 94.58 152.28 95.26 152.28 95.84 159.35" fill="#68e1fd"/><rect x="91.73" y="164.24" width="1.27" height="3.38" rx="0.63" opacity="0.1"/><rect x="94.29" y="164.24" width="1.27" height="3.38" rx="0.63" opacity="0.1"/><rect x="96.85" y="164.24" width="1.27" height="3.38" rx="0.63" opacity="0.1"/><polygon points="78.9 239.82 58.88 239.82 60.88 123.43 76.9 123.43 78.9 239.82" fill="#68e1fd"/><rect x="58.76" y="119.95" width="20.26" height="3.49" rx="1.74" fill="#68e1fd"/><rect x="56.85" y="166.32" width="24.09" height="3.49" rx="1.74" fill="#68e1fd"/><rect x="56.85" y="199.18" width="24.09" height="3.49" rx="1.74" fill="#68e1fd"/><rect x="58.76" y="119.95" width="20.26" height="3.49" rx="1.74" fill="#fff" opacity="0.26"/><rect x="56.85" y="166.32" width="24.09" height="3.49" rx="1.74" fill="#fff" opacity="0.26"/><rect x="56.85" y="199.18" width="24.09" height="3.49" rx="1.74" fill="#fff" opacity="0.26"/><rect x="58.76" y="108.89" width="20.26" height="3.49" rx="1.74" fill="#68e1fd"/><rect x="58.76" y="108.89" width="20.26" height="3.49" rx="1.74" fill="#fff" opacity="0.26"/><rect x="61.64" y="112.38" width="14.49" height="7.57" fill="#68e1fd"/><rect x="61.64" y="112.38" width="14.49" height="7.57" opacity="0.05"/><path d="M68.89,101.41a7.56,7.56,0,0,1,7.24,7.24v.24H61.64v-.24A7.57,7.57,0,0,1,68.89,101.41Z" fill="#68e1fd"/><polygon points="70.42 105.15 67.36 105.15 68.32 93.32 69.46 93.32 70.42 105.15" fill="#68e1fd"/><rect x="63.55" y="113.34" width="2.12" height="5.65" rx="1.06" opacity="0.1"/><rect x="67.83" y="113.34" width="2.12" height="5.65" rx="1.06" opacity="0.1"/><rect x="72.11" y="113.34" width="2.12" height="5.65" rx="1.06" opacity="0.1"/><polygon points="300.76 239.82 312.73 239.82 311.53 170.27 301.96 170.27 300.76 239.82" fill="#68e1fd"/><rect x="300.69" y="168.19" width="12.11" height="2.08" rx="1.04" transform="translate(613.49 338.47) rotate(-180)" fill="#68e1fd"/><rect x="299.55" y="195.9" width="14.39" height="2.08" rx="1.04" transform="translate(613.49 393.88) rotate(180)" fill="#68e1fd"/><rect x="299.55" y="215.54" width="14.39" height="2.08" rx="1.04" transform="translate(613.49 433.16) rotate(180)" fill="#68e1fd"/><rect x="300.69" y="168.19" width="12.11" height="2.08" rx="1.04" transform="translate(613.49 338.47) rotate(-180)" fill="#fff" opacity="0.26"/><rect x="299.55" y="195.9" width="14.39" height="2.08" rx="1.04" transform="translate(613.49 393.88) rotate(180)" fill="#fff" opacity="0.26"/><rect x="299.55" y="215.54" width="14.39" height="2.08" rx="1.04" transform="translate(613.49 433.16) rotate(180)" fill="#fff" opacity="0.26"/><rect x="300.69" y="161.59" width="12.11" height="2.08" rx="1.04" transform="translate(613.49 325.25) rotate(180)" fill="#68e1fd"/><rect x="300.69" y="161.59" width="12.11" height="2.08" rx="1.04" transform="translate(613.49 325.25) rotate(180)" fill="#fff" opacity="0.26"/><rect x="302.42" y="163.67" width="8.66" height="4.53" transform="translate(613.49 331.86) rotate(-180)" fill="#68e1fd"/><rect x="302.42" y="163.67" width="8.66" height="4.53" transform="translate(613.49 331.86) rotate(-180)" opacity="0.05"/><path d="M306.75,157.12a4.51,4.51,0,0,0-4.33,4.32v.15h8.66v-.15A4.51,4.51,0,0,0,306.75,157.12Z" fill="#68e1fd"/><polygon points="305.83 159.35 307.66 159.35 307.09 152.28 306.41 152.28 305.83 159.35" fill="#68e1fd"/><rect x="308.67" y="164.24" width="1.27" height="3.38" rx="0.63" transform="translate(618.61 331.86) rotate(180)" opacity="0.1"/><rect x="306.11" y="164.24" width="1.27" height="3.38" rx="0.63" transform="translate(613.49 331.86) rotate(-180)" opacity="0.1"/><rect x="303.56" y="164.24" width="1.27" height="3.38" rx="0.63" transform="translate(608.38 331.86) rotate(-180)" opacity="0.1"/><polygon points="322.77 239.82 342.79 239.82 340.79 123.43 324.77 123.43 322.77 239.82" fill="#68e1fd"/><rect x="322.65" y="119.95" width="20.26" height="3.49" rx="1.74" transform="translate(665.56 243.39) rotate(-180)" fill="#68e1fd"/><rect x="320.74" y="166.32" width="24.09" height="3.49" rx="1.74" transform="translate(665.56 336.12) rotate(-180)" fill="#68e1fd"/><rect x="320.74" y="199.18" width="24.09" height="3.49" rx="1.74" transform="translate(665.56 401.85) rotate(180)" fill="#68e1fd"/><rect x="322.65" y="119.95" width="20.26" height="3.49" rx="1.74" transform="translate(665.56 243.39) rotate(-180)" fill="#fff" opacity="0.26"/><rect x="320.74" y="166.32" width="24.09" height="3.49" rx="1.74" transform="translate(665.56 336.12) rotate(-180)" fill="#fff" opacity="0.26"/><rect x="320.74" y="199.18" width="24.09" height="3.49" rx="1.74" transform="translate(665.56 401.85) rotate(180)" fill="#fff" opacity="0.26"/><rect x="322.65" y="108.89" width="20.26" height="3.49" rx="1.74" transform="translate(665.56 221.26) rotate(-180)" fill="#68e1fd"/><rect x="322.65" y="108.89" width="20.26" height="3.49" rx="1.74" transform="translate(665.56 221.26) rotate(-180)" fill="#fff" opacity="0.26"/><rect x="325.53" y="112.38" width="14.49" height="7.57" transform="translate(665.56 232.33) rotate(-180)" fill="#68e1fd"/><rect x="325.53" y="112.38" width="14.49" height="7.57" transform="translate(665.56 232.33) rotate(-180)" opacity="0.05"/><path d="M332.78,101.41a7.56,7.56,0,0,0-7.25,7.24v.24H340v-.24A7.56,7.56,0,0,0,332.78,101.41Z" fill="#68e1fd"/><polygon points="331.25 105.15 334.31 105.15 333.35 93.32 332.21 93.32 331.25 105.15" fill="#68e1fd"/><rect x="336" y="113.34" width="2.12" height="5.65" rx="1.06" transform="translate(674.12 232.33) rotate(180)" opacity="0.1"/><rect x="331.72" y="113.34" width="2.12" height="5.65" rx="1.06" transform="translate(665.56 232.33) rotate(-180)" opacity="0.1"/><rect x="327.44" y="113.34" width="2.12" height="5.65" rx="1.06" transform="translate(657 232.33) rotate(180)" opacity="0.1"/><rect x="40.68" y="239.82" width="320.3" height="11.91" rx="5.96" fill="#24285b"/><path d="M112.17,228.63c0,4.86-2,6.67-4.57,6.67s-4.58-1.81-4.58-6.67,2-12.21,4.58-12.21S112.17,223.77,112.17,228.63Z" fill="#ccc"/><rect x="106.87" y="233.16" width="1.45" height="6.66" fill="#ccc"/><path d="M100.38,228.63c0,4.86-2,6.67-4.58,6.67s-4.57-1.81-4.57-6.67,2-12.21,4.57-12.21S100.38,223.77,100.38,228.63Z" fill="#ccc"/><rect x="95.07" y="233.16" width="1.45" height="6.66" fill="#ccc"/><path d="M88.58,228.63c0,4.86-2,6.67-4.57,6.67s-4.58-1.81-4.58-6.67,2-12.21,4.58-12.21S88.58,223.77,88.58,228.63Z" fill="#ccc"/><rect x="83.28" y="233.16" width="1.45" height="6.66" fill="#ccc"/><path d="M322.24,228.63c0,4.86-2.05,6.67-4.58,6.67s-4.57-1.81-4.57-6.67,2.05-12.21,4.57-12.21S322.24,223.77,322.24,228.63Z" fill="#ccc"/><rect x="316.94" y="233.16" width="1.45" height="6.66" fill="#ccc"/><path d="M310.44,228.63c0,4.86-2.05,6.67-4.57,6.67s-4.58-1.81-4.58-6.67,2-12.21,4.58-12.21S310.44,223.77,310.44,228.63Z" fill="#ccc"/><rect x="305.14" y="233.16" width="1.45" height="6.66" fill="#ccc"/><path d="M298.65,228.63c0,4.86-2,6.67-4.58,6.67s-4.57-1.81-4.57-6.67,2.05-12.21,4.57-12.21S298.65,223.77,298.65,228.63Z" fill="#ccc"/><rect x="293.35" y="233.16" width="1.45" height="6.66" fill="#ccc"/></svg>