<svg id="Layer_1" data-name="Layer 1" xmlns="http://www.w3.org/2000/svg" viewBox="0 0 400 300"><title>#78_team presentation_twocolour</title><path d="M92.59,64.32c-33.34,17.85-55.27,50.12-57.37,86-1.56,26.57,8,52.46,48.86,56.87,88.38,9.54,270.45,17.93,274.13-35.87C361.66,120.72,287-39.76,92.59,64.32Z" fill="#e6e6e6" opacity="0.27"/><ellipse cx="200.5" cy="243.16" rx="172.5" ry="17.94" fill="#e6e6e6" opacity="0.45"/><polyline points="303.21 180.12 303.21 219.09 286.67 241.34" fill="none" stroke="#a5a5a5" stroke-linecap="square" stroke-miterlimit="10" stroke-width="5"/><line x1="303.66" y1="219.71" x2="319.28" y2="241.34" fill="none" stroke="#a5a5a5" stroke-linecap="square" stroke-miterlimit="10" stroke-width="5"/><path d="M78.56,172.73s-20.85-35.07,0-47.63,50.1-22.34,58.49-1.81,7.23,49.44,7.23,49.44Z" fill="#24285b"/><path d="M110.57,99.7a33.42,33.42,0,0,1,5.15,7.35,2.72,2.72,0,0,1-1.42,3.58,6,6,0,0,1-6.47-.69l-4.17-2.75a4.84,4.84,0,0,1-1.49-5.4C103.24,98.19,108.46,97.17,110.57,99.7Z" fill="#f4a28c"/><polygon points="105.87 106.72 106.07 124.43 115.83 123.62 111.76 111.06 105.87 106.72" fill="#f4a28c"/><path d="M109.65,100.69a21.8,21.8,0,0,1-4.17,2.76,4.49,4.49,0,0,1,3,3.9,3.68,3.68,0,0,1-2.61,3.88l-4.18-5.54a5.53,5.53,0,0,1-.81-5.59,20.73,20.73,0,0,1,1.14-2.32c1.09-1.86,4.22-2.6,4.81-4.76a1.31,1.31,0,0,1,2.16-.6c1.54,1.48,3.28,4.34,1.73,7A5,5,0,0,1,109.65,100.69Z" fill="#24285b"/><path d="M108.87,106.87s-1.31-1.62-2.45-.53.74,3.43,2.59,2.35Z" fill="#f4a28c"/><path d="M112.75,102.31l2.47.73a.86.86,0,0,1,.41,1.4l-1.4,1.58Z" fill="#f4a28c"/><path d="M111.68,111.49a6.38,6.38,0,0,1-3.63-.6s.54,3.23,5,4.91Z" fill="#ce8172" opacity="0.31"/><path d="M105.52,122.88s-27.38,4.18-21.08,21.54,12.39,43.92,12.39,43.92H152s4-32.67,4.38-44.11S155.21,104.21,105.52,122.88Z" fill="#68e1fd"/><path d="M339.58,233.52s-6.17-1.68-7.52-7.43c0,0,9.57-1.94,9.85,7.94Z" fill="#68e1fd" opacity="0.58"/><path d="M340.34,232.91s-4.31-6.82-.52-13.2a11,11,0,0,1,4.05,13.22Z" fill="#68e1fd" opacity="0.73"/><path d="M341.45,232.92s2.28-7.21,9.18-8.58c0,0,1.29,4.68-4.47,8.6Z" fill="#68e1fd"/><polygon points="336.97 232.75 338.23 241.32 346.11 241.35 347.28 232.8 336.97 232.75" fill="#24285b"/><polygon points="94.23 52.56 94.23 70.93 106.1 70.93 108.69 78.24 111.76 70.93 123.63 70.93 123.63 52.56 94.23 52.56" fill="#e6e6e6"/><path d="M107.45,65.85h0a.93.93,0,0,1-.69-.35l-3.1-4a.9.9,0,0,1,.16-1.28.91.91,0,0,1,1.29.16l2.44,3.14,6-6.5a.9.9,0,0,1,1.29,0,.91.91,0,0,1,.05,1.3l-6.75,7.29A.91.91,0,0,1,107.45,65.85Z" opacity="0.12"/><path d="M135.93,129.49s-15.77,7.33-12.3,24S82,172.73,82,172.73h69l8.72-16.55-10.33-20.24Z" opacity="0.08"/><path d="M135.89,133.88c-1.92-9.21,8.78-15.72,16.32-10.09a49.36,49.36,0,0,1,19.43,30.94c5.09,27.49-55,19.32-55,19.32l1.12-7.4s32.8.11,32.55-10.47C150.11,149,137.83,143.2,135.89,133.88Z" fill="#68e1fd"/><path d="M135.89,133.88c-1.92-9.21,8.78-15.72,16.32-10.09a49.36,49.36,0,0,1,19.43,30.94c5.09,27.49-55,19.32-55,19.32l1.12-7.4s32.8.11,32.55-10.47C150.11,149,137.83,143.2,135.89,133.88Z" fill="#fff" opacity="0.46"/><path d="M82.57,134.88C75.2,142,64.34,156,69.29,172.73h50.65s5.61-7.33-11.89-6.08-22.8-5.33-11.8-17.18c5.59-6,3.53-11,.15-14.49A9.83,9.83,0,0,0,82.57,134.88Z" fill="#68e1fd"/><path d="M82.57,134.88C75.2,142,64.34,156,69.29,172.73h50.65s5.61-7.33-11.89-6.08-22.8-5.33-11.8-17.18c5.59-6,3.53-11,.15-14.49A9.83,9.83,0,0,0,82.57,134.88Z" fill="#fff" opacity="0.46"/><rect x="49" y="178.88" width="155.59" height="62.46" fill="#c9c9c9"/><rect x="49" y="172.73" width="155.59" height="11.27" fill="#e6e6e6"/><polygon points="180.28 172.73 168.95 225.47 182.42 225.47 178.34 241.34 204.59 241.34 204.24 190.37 196.2 171.91 180.28 172.73" opacity="0.08"/><polygon points="91.07 172.73 86.5 146.36 129.6 146.36 124.26 172.73 91.07 172.73" fill="#ffd200"/><circle cx="109.15" cy="159.51" r="3.33" fill="#fff"/><path d="M128.75,150.54s-9.51,19-37.68,22.19h33.19Z" opacity="0.08"/><polygon points="192.15 212.44 185.4 243.12 189.32 243.12 202.46 212.44 192.15 212.44" fill="#f4a28c"/><polygon points="214.12 208.71 221.32 243.12 225.27 243.12 224.68 208.47 214.12 208.71" fill="#f4a28c"/><path d="M248.91,162.77s2.44,10.3-2.74,17.55-25.95,8.24-25.17-11S248.91,162.77,248.91,162.77Z" fill="#68e1fd"/><path d="M248.91,162.77s2.44,10.3-2.74,17.55-25.95,8.24-25.17-11S248.91,162.77,248.91,162.77Z" fill="#fff" opacity="0.52"/><path d="M213.56,101.62s6.66,11.13-1,14-7.3-17.23-7.3-17.23Z" fill="#24285b"/><path d="M211.53,93.52a27.46,27.46,0,0,1,2.2,7,2.22,2.22,0,0,1-2,2.44,4.89,4.89,0,0,1-4.87-2.13l-2.57-3.15a4,4,0,0,1,.17-4.58C206.19,90.54,210.5,91,211.53,93.52Z" fill="#f4a28c"/><polygon points="205.28 98.38 204.24 112.79 212.23 112.8 209.84 102.57 205.28 98.38" fill="#f4a28c"/><path d="M195.35,112.45s-21.86,4.42-15.76,27.53,17,36.13,17,36.13L229,174.64s-1.19-15.53,3-24.83,8.18-32.78-19.77-37Z" fill="#68e1fd"/><path d="M212.58,96.09l1.74,1.17a.7.7,0,0,1,0,1.19l-1.47.88Z" fill="#f4a28c"/><path d="M209.9,102.86a5.48,5.48,0,0,1-2.6-1.24s-.51,3.12,3.29,4.17Z" fill="#ce8172" opacity="0.31"/><path d="M204.24,175.77h0a50.83,50.83,0,0,0-7.65.34L187,218.56l22.23.29h0l17.6.24L229,174.64Z" fill="#24285b"/><path d="M208.61,95.65l-1.86.64s2,7.95-.66,14.87a7.18,7.18,0,0,1-11,3L193.5,113a3.36,3.36,0,0,1,.31-5.58c3-1.78,6.17-5,5.59-10.4-.68-6.39,5.11-10.24,9.28-9.21A4.05,4.05,0,0,1,208.61,95.65Z" fill="#24285b"/><path d="M207.88,98.2s-.62-1.58-1.77-1-.27,2.85,1.44,2.46Z" fill="#f4a28c"/><polygon points="228.36 142.94 225.38 170.91 246.03 170.91 248.91 142.94 228.36 142.94" fill="#ffd200"/><path d="M230.7,156s2.52,1.44,1.54,6.24,14.34,3.34,14.34,3.34l-.55,5.33H225.38l.92-8.67Z" opacity="0.08"/><path d="M248.91,162.77s.72-6.37-3-6.76S242.11,166.39,248.91,162.77Z" fill="#f4a28c"/><path d="M224.33,158.69s1-6.08,4.69-5,.69,8.8-2.72,8.58Z" fill="#f4a28c"/><path d="M185.4,243.12s-2.18,2.77-5,2.63-3.2,3.81,1.29,3.4a24,24,0,0,0,4.13-.71,7.35,7.35,0,0,1,3.78.13,1.19,1.19,0,0,0,1.28-.51c1.28-1.49-1.85-4.94-1.85-4.94Z" fill="#68e1fd"/><path d="M225,243.12s2.18,2.77,5,2.63,3.2,3.81-1.29,3.4a24,24,0,0,1-4.13-.71,7.35,7.35,0,0,0-3.78.13,1.19,1.19,0,0,1-1.28-.51c-1.28-1.49,1.85-4.94,1.85-4.94Z" fill="#68e1fd"/><polygon points="230.71 138.04 220.51 138.04 219.45 131.57 229.65 131.57 230.71 138.04" opacity="0.08"/><path d="M204.34,137.82c-.36-6.77-10-7.6-11.53-1-1.58,7-3.23,17.59-.66,24,4.1,10.17,20.43,4,20.43,4s-15.11-3.33-10.88-13.4A32.55,32.55,0,0,0,204.34,137.82Z" opacity="0.08"/><polygon points="232.46 136.22 222.26 136.22 221.21 129.74 231.4 129.74 232.46 136.22" fill="#fff"/><polygon points="226.4 134.09 223.44 134.09 222.97 131.23 225.93 131.23 226.4 134.09" fill="#68e1fd" opacity="0.23"/><path d="M195.4,126.69a9,9,0,0,0-16-5.29c-2.76,3.46-4.63,8.25-4,14.82,1.84,19.39,11.25,41.89,22.73,41.89s28.18-15.87,28.18-15.87l-2-3.55s-16.33,9.81-25.52,8C191.6,165.19,196,144.62,195.4,126.69Z" fill="#68e1fd"/><path d="M195.4,126.69a9,9,0,0,0-16-5.29c-2.76,3.46-4.63,8.25-4,14.82,1.84,19.39,11.25,41.89,22.73,41.89s28.18-15.87,28.18-15.87l-2-3.55s-16.33,9.81-25.52,8C191.6,165.19,196,144.62,195.4,126.69Z" fill="#fff" opacity="0.46"/><rect x="259.99" y="56.87" width="86.45" height="122.26" fill="#e6e6e6"/><rect x="259.99" y="171.91" width="86.45" height="16.43" fill="#c9c9c9"/><circle cx="303.21" cy="99.39" r="27.7" fill="#fff"/><path d="M303.21,71.68V99.39l27.16-5.49S326,69.75,303.21,71.68Z" fill="#ffd200"/><path d="M303.21,99.39,326.79,114s7.22-10.46,3.58-20Z" fill="#24285b"/><rect x="283.23" y="137.86" width="39.96" height="8.44" fill="#a5a5a5" opacity="0.39"/><rect x="283.23" y="151.78" width="39.96" height="8.44" fill="#a5a5a5" opacity="0.13"/></svg>