<svg id="Layer_1" data-name="Layer 1" xmlns="http://www.w3.org/2000/svg" viewBox="0 0 400 300"><title>#121_team presentation_twocolour</title><line x1="196.68" y1="170.44" x2="196.68" y2="196.31" fill="none" stroke="#c9c9c9" stroke-miterlimit="10" stroke-width="3"/><circle cx="196.68" cy="201.45" r="5.14" fill="none" stroke="#c9c9c9" stroke-miterlimit="10" stroke-width="3"/><rect x="96.14" y="52.86" width="196.35" height="130.14" fill="#e6e6e6"/><rect x="96.14" y="52.86" width="196.35" height="19.43" fill="#c9c9c9"/><path d="M289.6,111.28S269.89,115,269.89,139c0,14.43-8.05,44-8.05,44H292.5V117.93Z" opacity="0.08"/><ellipse cx="308.01" cy="256.58" rx="54.42" ry="7.11" fill="#e6e6e6" opacity="0.45"/><ellipse cx="117.91" cy="256.78" rx="66.09" ry="7.11" fill="#e6e6e6" opacity="0.45"/><path d="M290.88,249.48s-1.17,3.09-4,3.29-3.6,2.93-1.08,3.69,9.09-2.4,9.09-2.4l-.15-5.15Z" fill="#68e1fd"/><path d="M327.5,248.91s-.74,3.66-3.56,3.86-3.59,2.93-1.07,3.69,9.09-2.4,9.09-2.4l-.15-5.15Z" fill="#68e1fd"/><polygon points="118.65 196.9 122.43 252 118.92 253.23 104.93 201.67 118.65 196.9" fill="#f4a28c"/><path d="M122.3,251.2s2.3,2.44,4.93,2.08,3.35,3.35-.94,3.33a22.8,22.8,0,0,1-4-.33,7,7,0,0,0-3.58.44,1.15,1.15,0,0,1-1.25-.38c-1.33-1.31,1.35-4.84,1.35-4.84Z" fill="#68e1fd"/><polygon points="84.92 196.9 81.14 252 84.65 253.23 98.64 201.67 84.92 196.9" fill="#f4a28c"/><path d="M81.26,251.2s-2.29,2.44-4.93,2.08-3.34,3.35,1,3.33a22.89,22.89,0,0,0,4-.33,6.94,6.94,0,0,1,3.57.44,1.16,1.16,0,0,0,1.26-.38c1.33-1.31-1.35-4.84-1.35-4.84Z" fill="#68e1fd"/><path d="M295,108.39s-19.75,6.57-18,32.86-10.57,59.19-10.57,59.19l6.31,2.2A209.69,209.69,0,0,0,295,148.14C302.53,117.31,295,108.39,295,108.39Z" fill="#68e1fd"/><path d="M295,108.39s-19.75,6.57-18,32.86-10.57,59.19-10.57,59.19l6.31,2.2A209.69,209.69,0,0,0,295,148.14C302.53,117.31,295,108.39,295,108.39Z" fill="#fff" opacity="0.46"/><path d="M303,106.75l8.86.28s27.31,1.91,31.45,18-14.83,54-14.83,54H292.63S261.63,109.47,303,106.75Z" fill="#68e1fd"/><path d="M302.69,87.68a30.39,30.39,0,0,0-.57,8.11,2.47,2.47,0,0,0,2.77,2.11,5.43,5.43,0,0,0,4.7-3.56l2-4.07a4.39,4.39,0,0,0-1.36-4.89C307.67,83.09,303.15,84.73,302.69,87.68Z" fill="#f4a28c"/><polygon points="311.19 91.01 311.83 107.03 302.97 106.75 306.07 95.21 311.19 91.01" fill="#f4a28c"/><path d="M303.87,88a19.78,19.78,0,0,0,4.52.18,4.09,4.09,0,0,0-.53,4.45,3.32,3.32,0,0,0,3.83,1.79l.66-6.25a5,5,0,0,0-2-4.71,16.9,16.9,0,0,0-2-1.27c-1.71-.93-4.48,0-5.95-1.45a1.18,1.18,0,0,0-1.95.55c-.51,1.86-.52,4.89,1.92,6.23A4.59,4.59,0,0,0,303.87,88Z" fill="#24285b"/><path d="M328.45,179s-4.81,35,5,69.95h-7.27s-13-20.6-16.31-63.12Z" fill="#24285b"/><path d="M307.36,92.45s.25-1.86,1.64-1.55,1,3-.91,3Z" fill="#f4a28c"/><path d="M302.21,90.73l-1.57,1.71a.78.78,0,0,0,.34,1.28l1.82.57Z" fill="#f4a28c"/><path d="M305.28,97.7a5.79,5.79,0,0,0,3.05-1.35s-.47,2.89-4,5.39Z" fill="#ce8172" opacity="0.31"/><path d="M292.63,179s-8.75,49.9-3.25,69.95h7.05s2.43-46.27,14.32-57.07L328.45,179Z" fill="#24285b"/><path d="M327.35,117.93s-14.54,5.53-6.61,27.86,5,25-3.38,23.51-19-32.31-19-32.31l-8.73,1.47,5,18.06,3.73-.15s-1.16,17,8,22.59h22.14L340,167V136.84Z" opacity="0.08"/><path d="M328.85,116.53a7.43,7.43,0,0,1,9.86.72c4.91,5,11.77,16.34,8.84,38.9-4.41,33.93-27.83,33.44-47.12-1.1l5.88-3.74s17.66,24.45,25.37,12.33C338.68,152.65,315.24,127.18,328.85,116.53Z" fill="#68e1fd"/><rect x="294.96" y="132.3" width="9.57" height="17.89" transform="translate(-20.21 55.08) rotate(-10.16)" fill="#ffd200"/><path d="M328.85,116.53a7.43,7.43,0,0,1,9.86.72c4.91,5,11.77,16.34,8.84,38.9-4.41,33.93-27.83,33.44-47.12-1.1l5.88-3.74s17.66,24.45,25.37,12.33C338.68,152.65,315.24,127.18,328.85,116.53Z" fill="#fff" opacity="0.46"/><path d="M305.41,151.88s-2.23-5.79-5-6.08,1.18,8.5,1.18,8.5Z" fill="#f4a28c"/><path d="M267.76,200.91s-2.39,7.61,1.58,9.07,3.37-7.34,3.37-7.34Z" fill="#f4a28c"/><path d="M150.69,138.27a26.61,26.61,0,1,1,26.6-26.61A26.64,26.64,0,0,1,150.69,138.27Zm0-46.05a19.44,19.44,0,1,0,19.44,19.44A19.46,19.46,0,0,0,150.69,92.22Z" fill="#fff"/><path d="M150.69,138.27a26.58,26.58,0,0,1-17.65-6.7l4.75-5.36a19.4,19.4,0,0,0,12.9,4.89Z" fill="#fff"/><path d="M177.29,111.66h-7.16a19.46,19.46,0,0,0-19.44-19.44V85.06A26.63,26.63,0,0,1,177.29,111.66Z" fill="#24285b"/><path d="M150.69,138.27V131.1a19.46,19.46,0,0,0,19.44-19.44h7.16A26.64,26.64,0,0,1,150.69,138.27Z" fill="#ffd200"/><rect x="135.66" y="148.31" width="30.05" height="12.41" fill="#68e1fd"/><path d="M151.27,103.06c.48,0,.62.16.62.63v1a4.6,4.6,0,0,1,3.78,2.85c.25.5.14.77-.41,1l-1,.45c-.47.23-.7.13-1-.37a2.6,2.6,0,0,0-2.63-1.58c-1.75,0-2.55.52-2.55,1.69a1.55,1.55,0,0,0,1.42,1.37,11.41,11.41,0,0,0,1.48.23,9.52,9.52,0,0,1,2.73.53,3.82,3.82,0,0,1,1.21.66,3.94,3.94,0,0,1,1.09,2.88c0,2.24-1.5,3.76-4.15,4.15v1.06c0,.48-.14.64-.62.64h-1.13c-.47,0-.63-.16-.63-.64v-1a4.68,4.68,0,0,1-4.11-3.17.66.66,0,0,1,.47-.94l1-.37c.51-.19.74-.06,1,.45a2.7,2.7,0,0,0,2.78,1.73c1.89,0,2.83-.6,2.83-1.81a1.27,1.27,0,0,0-.88-1.28,7.53,7.53,0,0,0-2-.39,9,9,0,0,1-2.75-.59,4,4,0,0,1-1.19-.68,3.72,3.72,0,0,1-1.11-2.79c0-2.22,1.4-3.7,4-4v-1c0-.47.16-.63.63-.63Z" fill="#a5a5a5"/><path d="M101,89.66s8.84-1.79,8.18,6.69-6.34,18.79,3.07,22.8S144,129.5,133.4,153.29l18.73-27.08s9.69,2,4.85,12.06S133.18,183,133.18,183l-23.35.37-6.17-37.46-12.34-37.1Z" opacity="0.08"/><rect x="201.82" y="87.49" width="60.02" height="41.78" fill="#fff" opacity="0.44"/><rect x="201.82" y="139.85" width="60.02" height="12.12" fill="#fff"/><rect x="240.03" y="139.85" width="21.81" height="12.12" fill="#24285b"/><rect x="209.9" y="110.75" width="8.15" height="12.56" fill="#a5a5a5"/><rect x="245.61" y="107.89" width="8.15" height="15.42" fill="#c9c9c9"/><rect x="221.91" y="100.73" width="8.15" height="22.58" fill="#c9c9c9"/><rect x="234.03" y="93.46" width="8.15" height="29.85" fill="#a5a5a5"/><polygon points="96.67 102.5 95.65 108.42 90.31 108.81 93.56 99.33 96.67 102.5" fill="#f4a28c"/><path d="M70.15,117.5C63,123.59,53.91,134.88,50.5,147.63A18.38,18.38,0,0,0,60,168.82l23.43,11.79,3-4.19L70.29,163.18A8.63,8.63,0,0,1,69.09,151c5.3-6.42,12.6-16.63,14.34-25.88A8.12,8.12,0,0,0,70.15,117.5Z" fill="#f4a28c"/><path d="M94.8,93.74a3.56,3.56,0,0,1,5.65,1.91c.72,2.72,1.22,6.69-1.93,7-4.82.5-5.66-5.71-5.66-5.71A6.56,6.56,0,0,1,94.8,93.74Z" fill="#f4a28c"/><rect x="64.51" y="171.26" width="34.3" height="24.23" transform="translate(-95.54 89.07) rotate(-37.97)" fill="#ffd200"/><path d="M114.18,116.07a35.16,35.16,0,0,0-40.42-.72c-5.33,3.63-9.43,9-7.55,16.89,4.4,18.41,18.5,30.54,18.94,46.72l33.39-2.24V155.88a14.23,14.23,0,0,1,4.54-10.5c2.92-2.68,5.81-7.06,3.83-13.06C125.15,127,120.59,120.78,114.18,116.07Z" fill="#68e1fd"/><path d="M95.73,98.21s-.5-1.24-1.48-.39.33,2.24,1.1,2S95.73,98.21,95.73,98.21Z" fill="#f4a28c"/><path d="M97.65,124.75S90.44,138.53,98.81,152s-7.49,26.58-7.49,26.58l27.22-1.83V164.84Z" opacity="0.08"/><path d="M82.8,111.66c1.6-2,6.14-5,5.59-14.14-.12-1.94.87-5.93,3.52-7.83,6.34-4.54,11.28.13,9.08,3.27s-3.42,4.56-3.42,4.56,7.61,12.84,3.42,18C97.26,120.09,76.17,120.09,82.8,111.66Z" fill="#24285b"/><path d="M97.65,124.75a8.6,8.6,0,0,1,7.51-8.24c2.44-.25,5.3.55,8.19,3.76,5.36,6,10.12,21.14,12.54,29.88a3.31,3.31,0,0,0,5.8,1.14l17.12-22s3.43-5.54,5.36-4.31-2.26,4.31-2.26,4.31,3.41.88,2.26,4.18-17.78,33.14-24.29,34.37C117.64,170.15,96.43,148.52,97.65,124.75Z" fill="#f4a28c"/><polygon points="83.69 170.44 118.54 170.44 124.08 218.67 77.88 232.44 83.69 170.44" fill="#24285b"/><path d="M149.09,247.47s-7-1.91-8.53-8.44c0,0,10.86-2.19,11.17,9Z" fill="#68e1fd" opacity="0.58"/><path d="M150,246.78s-4.89-7.75-.58-15c0,0,8.26,5.24,4.59,15Z" fill="#68e1fd" opacity="0.73"/><path d="M151.22,246.78s2.58-8.17,10.41-9.72c0,0,1.46,5.31-5.07,9.75Z" fill="#68e1fd"/><polygon points="146.13 246.6 147.55 256.32 156.5 256.36 157.82 246.65 146.13 246.6" fill="#24285b"/></svg>