<svg id="Layer_1" data-name="Layer 1" xmlns="http://www.w3.org/2000/svg" viewBox="0 0 400 300"><path d="M52.78,121.88c-31,42.91,0,116.31,0,116.31H349C357.15,178.89,381.53,84.5,269.56,65,231.3,58.4,94.85,63.6,52.78,121.88Z" fill="#e6e6e6" opacity="0.3"/><circle cx="138.75" cy="89.47" r="21.26" fill="#ffd200"/><circle cx="138.75" cy="89.47" r="33.23" fill="#ffd200" opacity="0.15"/><path d="M333.91,123.08a5.25,5.25,0,0,0-1.74.3,8.55,8.55,0,0,0,.41-2.65,8.77,8.77,0,1,0-17.54,0c0,.24,0,.47,0,.69a6.46,6.46,0,0,0-2.87-.69,6.35,6.35,0,1,0,0,12.7h21.7a5.18,5.18,0,0,0,0-10.35Z" fill="#dddbdb"/><path d="M280.37,89.75a8.32,8.32,0,0,0-2.75.48A13.87,13.87,0,1,0,250.53,86c0,.37,0,.73.05,1.1A9.88,9.88,0,0,0,246,86a10,10,0,1,0,0,20.1h34.33a8.2,8.2,0,0,0,0-16.39Z" fill="#dddbdb" opacity="0.52"/><polygon points="122.53 139.44 185.09 222.1 59.96 222.1 122.53 139.44" fill="#68e1fd"/><polygon points="122.53 139.44 97.48 222.1 59.96 222.1 122.53 139.44" opacity="0.2"/><rect x="110.72" y="186.15" width="21.63" height="1.29" opacity="0.05"/><rect x="133.41" y="193.26" width="18.51" height="1.29" opacity="0.05"/><rect x="115.4" y="174.09" width="15.85" height="1.29" opacity="0.05"/><rect x="125.7" y="167.65" width="15.85" height="1.29" opacity="0.05"/><rect x="122.53" y="153.21" width="7.9" height="1.29" opacity="0.05"/><polygon points="142.77 184.56 142.77 179.4 147.11 179.4 147.11 178.11 131.25 178.11 131.25 179.4 141.56 179.4 141.56 184.56 136.72 184.56 136.72 185.85 152.57 185.85 152.57 184.56 142.77 184.56" opacity="0.05"/><rect x="108.17" y="197.08" width="18.51" height="1.29" opacity="0.05"/><rect x="120.24" y="207.62" width="18.51" height="1.29" opacity="0.05"/><polygon points="146.47 215.31 146.47 209.71 145.26 209.71 145.26 215.31 132.91 215.31 132.91 216.59 151.42 216.59 151.42 215.31 146.47 215.31" opacity="0.05"/><polygon points="126 159.98 126 157.57 124.79 157.57 124.79 159.98 117.64 159.98 117.64 161.27 130.95 161.27 130.95 159.98 126 159.98" opacity="0.05"/><rect x="138" y="200.44" width="18.51" height="1.29" opacity="0.05"/><rect x="150.69" y="207.62" width="18.51" height="1.29" opacity="0.05"/><rect x="105.6" y="203.78" width="9.25" height="1.29" opacity="0.05"/><polygon points="282.93 145.89 345.5 228.56 220.37 228.56 282.93 145.89" fill="#68e1fd"/><polygon points="282.93 145.89 257.89 228.56 220.37 228.56 282.93 145.89" opacity="0.2"/><rect x="271.13" y="192.61" width="21.63" height="1.29" opacity="0.05"/><rect x="293.81" y="199.71" width="18.51" height="1.29" opacity="0.05"/><rect x="275.81" y="180.55" width="15.85" height="1.29" opacity="0.05"/><rect x="286.11" y="174.11" width="15.85" height="1.29" opacity="0.05"/><rect x="282.93" y="159.67" width="7.9" height="1.29" opacity="0.05"/><polygon points="303.17 191.02 303.17 185.85 307.51 185.85 307.51 184.56 291.66 184.56 291.66 185.85 301.96 185.85 301.96 191.02 297.12 191.02 297.12 192.31 312.98 192.31 312.98 191.02 303.17 191.02" opacity="0.05"/><rect x="268.58" y="203.54" width="18.51" height="1.29" opacity="0.05"/><rect x="280.64" y="214.08" width="18.51" height="1.29" opacity="0.05"/><polygon points="306.88 221.76 306.88 216.16 305.67 216.16 305.67 221.76 293.31 221.76 293.31 223.05 311.82 223.05 311.82 221.76 306.88 221.76" opacity="0.05"/><polygon points="286.41 166.44 286.41 164.02 285.19 164.02 285.19 166.44 278.05 166.44 278.05 167.73 291.35 167.73 291.35 166.44 286.41 166.44" opacity="0.05"/><rect x="298.41" y="206.89" width="18.51" height="1.29" opacity="0.05"/><rect x="311.1" y="214.08" width="18.51" height="1.29" opacity="0.05"/><rect x="266.01" y="210.24" width="9.25" height="1.29" opacity="0.05"/><polygon points="201.16 109.61 286.3 222.1 116.02 222.1 201.16 109.61" fill="#68e1fd"/><polygon points="201.16 109.61 167.07 222.1 116.02 222.1 201.16 109.61" opacity="0.2"/><rect x="185.09" y="173.18" width="29.43" height="1.75" opacity="0.05"/><rect x="215.96" y="182.85" width="25.19" height="1.75" opacity="0.05"/><rect x="191.46" y="156.77" width="21.57" height="1.75" opacity="0.05"/><rect x="205.48" y="148.01" width="21.57" height="1.75" opacity="0.05"/><rect x="201.16" y="128.36" width="10.75" height="1.75" opacity="0.05"/><polygon points="228.7 171.02 228.7 163.99 234.61 163.99 234.61 162.24 213.04 162.24 213.04 163.99 227.05 163.99 227.05 171.02 220.47 171.02 220.47 172.78 242.04 172.78 242.04 171.02 228.7 171.02" opacity="0.05"/><rect x="181.63" y="188.05" width="25.19" height="1.75" opacity="0.05"/><rect x="198.05" y="202.39" width="25.19" height="1.75" opacity="0.05"/><polygon points="233.75 212.86 233.75 205.23 232.09 205.23 232.09 212.86 215.28 212.86 215.28 214.61 240.47 214.61 240.47 212.86 233.75 212.86" opacity="0.05"/><polygon points="205.89 137.57 205.89 134.28 204.24 134.28 204.24 137.57 194.52 137.57 194.52 139.33 212.62 139.33 212.62 137.57 205.89 137.57" opacity="0.05"/><rect x="222.22" y="192.62" width="25.19" height="1.75" opacity="0.05"/><rect x="239.49" y="202.39" width="25.19" height="1.75" opacity="0.05"/><rect x="178.12" y="197.17" width="12.59" height="1.75" opacity="0.05"/><polygon points="286.3 222.09 167.07 222.09 201.16 109.61 286.3 222.09" fill="#fff" opacity="0.4"/><path d="M338.66,233.51l-236.81,2.88-58,.71c13.55-18.45,32.41-28.91,51.25-28.41,16.43.43,32.35,8.77,48.78,9.46,27.8,1.17,54.74-19.58,82.37-15.13,11.38,1.83,20.94,7.92,32.55,8.4l.68,0c7.87.18,15.7-1,23.57-1.08,16.69-.22,33.05,4.27,49.13,8.73,6.32,1.74,15.9,4,19.86,9.84C357.14,236.42,344.14,233.51,338.66,233.51Z" fill="#ccc"/><path d="M301.66,234c-.86,4-4.24,1.06-6.45.47-4.7-1.24-10.51-.28-15.37-.22l-34.64.42-68.34.83-51.35.62c-2.33,0-22.15,2.25-23.48.29,0,0-.16,0-.19,0,1.71-2.77,5.7-2.11,8.24-3.82a50.78,50.78,0,0,1,38.52-7.43c4.48,1,8.84,2.53,13.38,3.23,15.57,2.39,30.65-5.69,46.2-8.21a66.55,66.55,0,0,1,34.53,3.64c4.1,1.6,8,3.6,12.26,4.85a72.92,72.92,0,0,0,14,2.22C279.77,231.89,290.94,232.23,301.66,234Z" fill="#b3b3b3"/><rect x="37.65" y="231.85" width="324.7" height="11.91" rx="5.96" fill="#24285b"/><path d="M283.24,218.6l-8.91.44c7.27,4.15,16.29,2.7,24.61,3.73,7.89,1,15.63,4.31,23.53,3.35-1.13.13-3.7-1.77-4.72-2.31a30.61,30.61,0,0,0-3.74-1.62,54.66,54.66,0,0,0-9.79-3C297.31,217.94,290.22,218.26,283.24,218.6Z" fill="#b3b3b3"/><path d="M76.57,219a12.41,12.41,0,0,1,7.49-2.72,37,37,0,0,1,6.83,1,37.88,37.88,0,0,0,13.92-.18,27,27,0,0,1-8.08,5.26,9.93,9.93,0,0,1-5,1,17.8,17.8,0,0,1-4-1.29c-4.75-1.78-9.55-1.37-14.32,0A20.55,20.55,0,0,1,76.57,219Z" fill="#b3b3b3"/></svg>