<svg id="Layer_1" data-name="Layer 1" xmlns="http://www.w3.org/2000/svg" viewBox="0 0 400 300"><rect x="120.23" y="197.52" width="152.58" height="48.27" fill="#24285b"/><rect x="275.67" y="57.14" width="47.66" height="47.66" fill="#e6e6e6"/><line x1="193.4" y1="110.08" x2="193.4" y2="110.58" fill="none" stroke="#999" stroke-linecap="round" stroke-linejoin="round"/><line x1="193.4" y1="119.22" x2="193.4" y2="143.43" fill="none" stroke="#999" stroke-linecap="round" stroke-linejoin="round" stroke-dasharray="0.86 8.65"/><line x1="193.4" y1="147.75" x2="193.4" y2="148.25" fill="none" stroke="#999" stroke-linecap="round" stroke-linejoin="round"/><rect x="169.57" y="57.14" width="47.66" height="47.66" fill="#e6e6e6"/><text transform="translate(186.62 90.49)" font-size="27.57" fill="#999" font-family="Poppins-Bold, Poppins" font-weight="700">2</text><text transform="translate(292.83 90.49)" font-size="27.57" fill="#999" font-family="Poppins-Bold, Poppins" font-weight="700">3</text><line x1="299.5" y1="110.08" x2="299.5" y2="110.58" fill="none" stroke="#999" stroke-linecap="round" stroke-linejoin="round"/><line x1="299.5" y1="119.22" x2="299.5" y2="143.43" fill="none" stroke="#999" stroke-linecap="round" stroke-linejoin="round" stroke-dasharray="0.86 8.65"/><line x1="299.5" y1="147.75" x2="299.5" y2="148.25" fill="none" stroke="#999" stroke-linecap="round" stroke-linejoin="round"/><line x1="92.18" y1="110.08" x2="92.18" y2="110.58" fill="none" stroke="#999" stroke-linecap="round" stroke-linejoin="round"/><line x1="92.18" y1="119.22" x2="92.18" y2="143.43" fill="none" stroke="#999" stroke-linecap="round" stroke-linejoin="round" stroke-dasharray="0.86 8.65"/><line x1="92.18" y1="147.75" x2="92.18" y2="148.25" fill="none" stroke="#999" stroke-linecap="round" stroke-linejoin="round"/><rect x="68.35" y="57.14" width="47.66" height="47.66" fill="#e6e6e6"/><ellipse cx="124.06" cy="252.86" rx="29.95" ry="6.49" fill="#e6e6e6" opacity="0.3"/><rect x="52.61" y="148.25" width="286.98" height="8.47" rx="4.23" fill="#24285b"/><path d="M129.27,220c12.65-6.93,7.4-25.4,7.4-25.4l-12.76,1.44-12.76-1.44s-5,17.73,6.65,25a1.91,1.91,0,0,1,0,3.25c-11.75,7.22-6.7,25-6.7,25l12.76-1.44,12.76,1.44s5.24-18.42-7.35-25.37A1.39,1.39,0,0,1,129.27,220Z" fill="#68e1fd"/><path d="M129.27,220c12.65-6.93,7.4-25.4,7.4-25.4l-12.76,1.44-12.76-1.44s-5,17.73,6.65,25a1.91,1.91,0,0,1,0,3.25c-11.75,7.22-6.7,25-6.7,25l12.76-1.44,12.76,1.44s5.24-18.42-7.35-25.37A1.39,1.39,0,0,1,129.27,220Z" fill="#fff" opacity="0.68"/><path d="M111,245.92s2-3.42,9.28-4.26,11.53.78,15,4.71l-24.29.84Z" fill="#fff"/><rect x="107.6" y="246.37" width="32.56" height="6.76" rx="3.01" fill="#68e1fd"/><rect x="107.6" y="189.29" width="32.56" height="6.76" rx="3.01" transform="translate(247.77 385.35) rotate(180)" fill="#68e1fd"/><path d="M126.83,204.81c-4.33,1.28-6.58-2.16-11.93-.76a2.87,2.87,0,0,0-2.1,3.25c.51,3.06,2,8.2,6,10.14.31.14.62.28.93.4a3.69,3.69,0,0,1,2.35,3.43v23.81h1l.26-26.12a.3.3,0,0,1,.31-.3h0a.31.31,0,0,1,.29.3l.68,26.12h1.29V221.22a3.7,3.7,0,0,1,2.28-3.39,9.68,9.68,0,0,0,4.19-3.35c1.29-1.9,1.89-5.08,2.18-7.42a2.79,2.79,0,0,0-2.94-3.12A22.09,22.09,0,0,0,126.83,204.81Z" fill="#fff"/><circle cx="92.18" cy="152.43" r="9.13" fill="#ffd200"/><circle cx="194.12" cy="152.43" r="9.13" fill="#ffd200"/><circle cx="299.5" cy="152.43" r="9.13" fill="#ffd200"/><text transform="translate(87.1 90.49)" font-size="27.57" fill="#999" font-family="Poppins-Bold, Poppins" font-weight="700">1</text><text transform="translate(155.49 229.9)" font-size="21.99" fill="#fff" font-family="Poppins-Bold, Poppins" font-weight="700">TIMELINE</text><circle cx="272.96" cy="222.17" r="8.02" fill="#ffd200"/></svg>