<svg id="Layer_1" data-name="Layer 1" xmlns="http://www.w3.org/2000/svg" viewBox="0 0 400 300"><ellipse cx="210.18" cy="242.03" rx="114.41" ry="14.96" fill="#e6e6e6" opacity="0.3"/><polygon points="184.55 182.15 177.42 228 187.4 228 196.65 182.15 184.55 182.15" fill="#68e1fd"/><polygon points="225.34 182.15 232.46 228 222.49 228 213.24 182.15 225.34 182.15" fill="#68e1fd"/><polygon points="225.34 182.15 232.46 228 222.49 228 213.24 182.15 225.34 182.15" opacity="0.09"/><polygon points="184.55 182.15 177.42 228 187.4 228 196.65 182.15 184.55 182.15" opacity="0.09"/><polygon points="180.6 175.13 170.6 213.23 202.72 213.23 206.26 187.42 208.96 213.23 241.93 213.23 227.87 175.13 180.6 175.13" fill="#24285b"/><polygon points="177.42 228 165.63 238.3 187.04 236.43 187.4 228 177.42 228" fill="#24285b"/><polygon points="232.67 228 244.46 238.3 223.05 236.43 222.69 228 232.67 228" fill="#24285b"/><path d="M166,119.45s-39.83,55.82,14.59,55.68l4.49-15.29Z" fill="#68e1fd"/><path d="M241.24,119.45s39.83,55.82-14.59,55.68l-4.48-15.29Z" fill="#68e1fd"/><path d="M210.38,93.08s4.48,6.68-2.06,7.23-5.46-8.25-5.46-8.25Z" fill="#ffd200"/><path d="M210.38,93.08s4.48,6.68-2.06,7.23-5.46-8.25-5.46-8.25Z" opacity="0.09"/><polygon points="204.24 173.59 192.93 223.9 200.97 223.9 208.96 175.13 204.24 173.59" fill="#ffd200"/><polygon points="204.24 173.59 192.93 223.9 200.97 223.9 208.96 175.13 204.24 173.59" opacity="0.09"/><polygon points="195.62 78.7 193.61 108.98 210.38 108.9 205.11 86.9 195.62 78.7" fill="#f4a28c"/><path d="M206.47,91.67a11.05,11.05,0,0,1-5.7-2.73s.75,5.51,7.32,10.41Z" fill="#ce8172" opacity="0.31"/><path d="M212.42,76s1.12,9.2-.22,15.38a4.65,4.65,0,0,1-5.56,3.55c-3.11-.73-7.1-2.6-8.29-7.45l-3-8s-1.73-5.07,3.36-9S212,70.36,212.42,76Z" fill="#f4a28c"/><path d="M212.83,81.82l2.7,3.48a1.48,1.48,0,0,1-.85,2.35l-3.51.79Z" fill="#f4a28c"/><path d="M202.86,84.25s-.19-3.56-2.86-3.19-2.42,5.51,1.23,5.87Z" fill="#f4a28c"/><path d="M205.5,79.89s-2.39,6.72.63,8.55,5.05-.85,7,0,.91,7.16-3.57,7.3-9.35-3-6.82-12.21S205.5,79.89,205.5,79.89Z" fill="#ffd200"/><path d="M204.43,80.73a59.37,59.37,0,0,0-.49,13.11,5.21,5.21,0,0,1-2.09,4.67c-6.18,5-15.39-.43-13.55-8.19l.06-.24c2.06-7.94,5.33-8.5,3.84-15.14s13.27-13.37,19.68-6.83S213.77,78.49,204.43,80.73Z" fill="#ffd200"/><path d="M189.66,99.55h24.45v8.7s19.78-4.49,26.42,5.89-12.44,53-12.44,53H180.6S159.65,138,164.13,120.59s26.59-12.35,26.59-12.35Z" fill="#24285b"/><rect x="196.76" y="119.45" width="12.19" height="3.79" transform="translate(405.72 242.68) rotate(180)" fill="#ffd200"/><rect x="196.76" y="133.75" width="12.19" height="3.79" transform="translate(405.72 271.29) rotate(180)" fill="#ffd200"/><polygon points="206.26 172.1 204.24 223.9 209.95 223.9 211.26 172.84 206.26 172.1" fill="#ffd200"/><rect x="196.76" y="148.06" width="12.19" height="3.79" transform="translate(405.72 299.9) rotate(180)" fill="#ffd200"/><rect x="180.6" y="167.13" width="47.27" height="7.99" fill="#ffd200"/><circle cx="208.4" cy="170.48" r="5.68" fill="#ffd200"/><circle cx="208.4" cy="170.48" r="5.68" fill="#fff" opacity="0.44"/><rect x="215.99" y="119.82" width="11.5" height="14.03" rx="5.23" fill="#68e1fd"/></svg>