<svg id="Layer_1" data-name="Layer 1" xmlns="http://www.w3.org/2000/svg" viewBox="0 0 400 300"><title>_</title><rect x="30.4" y="35.71" width="339.19" height="161.37" fill="#f2f2f2"/><path d="M369.6,66.34V165.8a150.22,150.22,0,0,1-16.26,8c-29.94,12.56-62.65,16.55-94.82,20.82l-18.43,2.46c-35.72,4.71-71.63,8.83-107.46,5.91a232.43,232.43,0,0,1-36.87-5.91C72,191.26,49.37,181.39,30.4,166.52v-52c13.65,4.11,27.65,6.25,41.17,2.47,18.24-5.1,34.24-20.7,53-18.2,11.62,1.54,22.65,10.07,34,7,6.9-1.84,11.91-7.55,17.32-12.21a69.41,69.41,0,0,1,65-13.4c6.53,2.07,12.75,5.11,19.4,6.74,21.22,5.22,42.84-4.43,63.68-11A232.85,232.85,0,0,1,369.6,66.34Z" fill="#fff" opacity="0.44"/><path d="M30.4,134.07s50.19,5.8,77-13.49,29.4-1.09,59.12-4.34,22.8-26.79,59.51-23.48,43.6,24.78,78.63,7.22S369.6,78.29,369.6,78.29v186H30.4Z" fill="#e6e6e6"/><rect x="148.14" y="168.11" width="36.22" height="78.79" fill="#24285b"/><g opacity="0.2"><rect x="154.57" y="168.11" width="4.25" height="78.79" fill="#fff" opacity="0.44"/><rect x="164.13" y="168.11" width="4.25" height="78.79" fill="#fff" opacity="0.44"/><rect x="173.68" y="168.11" width="4.25" height="78.79" fill="#fff" opacity="0.44"/></g><rect x="312.75" y="168.11" width="36.22" height="78.79" fill="#24285b"/><g opacity="0.44"><rect x="312.75" y="234.96" width="36.22" height="5.4" fill="#fff" opacity="0.44"/><rect x="312.75" y="222.9" width="36.22" height="5.4" fill="#fff" opacity="0.44"/><rect x="312.75" y="210.84" width="36.22" height="5.4" fill="#fff" opacity="0.44"/><rect x="312.75" y="198.78" width="36.22" height="5.4" fill="#fff" opacity="0.44"/><rect x="312.75" y="186.71" width="36.22" height="5.4" fill="#fff" opacity="0.44"/><rect x="312.75" y="174.65" width="36.22" height="5.4" fill="#fff" opacity="0.44"/></g><polygon points="119.2 137.19 73.69 137.19 41.52 169.36 41.52 214.87 73.69 247.04 119.2 247.04 151.38 214.87 151.38 169.36 119.2 137.19" opacity="0.09"/><polygon points="125 128.6 79.49 128.6 47.31 160.77 47.31 206.28 79.49 238.46 125 238.46 157.18 206.28 157.18 160.77 125 128.6" fill="#68e1fd"/><polygon points="47.31 160.77 102.25 183.53 79.49 128.6 47.31 160.77" fill="#fff" opacity="0.44"/><polygon points="47.31 206.28 102.25 183.53 79.49 238.46 47.31 206.28" fill="#fff" opacity="0.44"/><polygon points="102.25 183.53 125 238.46 157.18 206.28 102.25 183.53" fill="#fff" opacity="0.44"/><polygon points="102.25 183.53 157.18 160.77 125 128.6 102.25 183.53" fill="#fff" opacity="0.44"/><polygon points="291.86 131.78 246.36 131.78 214.18 163.96 214.18 209.47 246.36 241.65 291.86 241.65 324.04 209.47 324.04 163.96 291.86 131.78" opacity="0.09"/><polygon points="293.19 122.68 247.69 122.68 215.51 154.86 215.51 200.37 247.69 232.54 293.19 232.54 325.37 200.37 325.37 154.86 293.19 122.68" fill="#68e1fd"/><polygon points="215.51 154.86 270.44 177.61 247.69 122.68 215.51 154.86" fill="#fff" opacity="0.44"/><polygon points="215.51 200.37 270.44 177.61 247.69 232.54 215.51 200.37" fill="#fff" opacity="0.44"/><polygon points="270.44 177.61 293.19 232.54 325.37 200.37 270.44 177.61" fill="#fff" opacity="0.44"/><polygon points="270.44 177.61 325.37 154.86 293.19 122.68 270.44 177.61" fill="#fff" opacity="0.44"/><polygon points="174.31 141.8 170.03 139.11 165.4 141.11 166.63 136.22 163.29 132.43 168.33 132.08 170.9 127.74 172.79 132.43 177.71 133.53 173.84 136.77 174.31 141.8" fill="#ffd200"/><polygon points="338.59 126.71 333.62 125.78 330.04 129.34 329.39 124.34 324.9 122.03 329.46 119.87 330.27 114.88 333.74 118.55 338.72 117.78 336.31 122.21 338.59 126.71" fill="#ffd200"/><polygon points="227.45 117.22 222.48 116.3 218.91 119.86 218.26 114.85 213.76 112.54 218.32 110.38 219.13 105.39 222.6 109.06 227.59 108.29 225.17 112.72 227.45 117.22" fill="#ffd200"/><path d="M87.79,94a2.46,2.46,0,0,0-3.33-.87,39.94,39.94,0,0,1-18.16,7.22,2.46,2.46,0,0,0-1.71,3,2.52,2.52,0,0,0,3,1.71,43.09,43.09,0,0,0,19.33-7.72A2.51,2.51,0,0,0,87.79,94Z" fill="#fff" opacity="0.44"/><path d="M203.23,66.83a2.5,2.5,0,0,0-3-1.71,57,57,0,0,0-29.49,13.61,2.44,2.44,0,1,0,3.45,3.45,52.46,52.46,0,0,1,27.34-12.35A2.45,2.45,0,0,0,203.23,66.83Z" fill="#fff" opacity="0.44"/><path d="M316.17,62.32c-11.32,5.83-23.55,12-36.67,10.37a2.46,2.46,0,0,0-2.44,2.44,2.5,2.5,0,0,0,2.44,2.44c13.94,1.69,27.11-4.85,39.13-11C321.43,65.1,319,60.89,316.17,62.32Z" fill="#fff" opacity="0.44"/><path d="M350.47,52.45A2.48,2.48,0,0,0,349,51.33l-.65-.09a2.41,2.41,0,0,0-1.23.33,26.74,26.74,0,0,0-7.44,4.85,2.45,2.45,0,0,0,0,3.45,2.48,2.48,0,0,0,3.44,0c.44-.4.89-.77,1.35-1.13a24.52,24.52,0,0,1,5.11-3,2.45,2.45,0,0,0,1.12-1.46A2.51,2.51,0,0,0,350.47,52.45Z" fill="#fff" opacity="0.44"/><path d="M213.82,235.44a2.73,2.73,0,0,0-.73-1.13,3.87,3.87,0,0,0-2.47-1l-.93.12a3.57,3.57,0,0,0-1.55.9l-.55.71a3.55,3.55,0,0,0-.47,1.77v.76a3.59,3.59,0,0,0,3.5,3.5l.93-.12a3.53,3.53,0,0,0,1.54-.9l.55-.71a3.56,3.56,0,0,0,.48-1.77v-.76A2.73,2.73,0,0,0,213.82,235.44Z" opacity="0.09"/><path d="M45.78,249.23a1.13,1.13,0,0,0-.32-.48l-.3-.24a1.54,1.54,0,0,0-.76-.2l-.39.05a1.47,1.47,0,0,0-.67.39l-.76.76a1.11,1.11,0,0,0-.31.49,1,1,0,0,0-.13.57,1.06,1.06,0,0,0,.13.58,1.11,1.11,0,0,0,.31.49l.3.23a1.47,1.47,0,0,0,.76.2l.4,0a1.57,1.57,0,0,0,.66-.38l.76-.77a1.27,1.27,0,0,0,.32-.48,1.46,1.46,0,0,0,0-1.16Z" opacity="0.09"/><path d="M193.77,165.32a1,1,0,0,0,0,2A1,1,0,0,0,193.77,165.32Z" opacity="0.09"/><path d="M347.72,130.88c-3.21,0-3.22,5,0,5S351,130.88,347.72,130.88Z" opacity="0.09"/></svg>