<svg id="Layer_1" data-name="Layer 1" xmlns="http://www.w3.org/2000/svg" viewBox="0 0 400 300"><title>#127_user avatar_twocolour</title><ellipse cx="114.95" cy="253.62" rx="50.25" ry="10.28" fill="#e6e6e6" opacity="0.45"/><ellipse cx="290.66" cy="253.62" rx="50.25" ry="10.28" fill="#e6e6e6" opacity="0.45"/><rect x="264.29" y="203.25" width="55.88" height="49.75" fill="#ffd200"/><circle cx="113.65" cy="108.97" r="69.9" fill="#24285b"/><path d="M153,100.9s21.47,14.12,15.55,51.37c0,0-6.7,9-15.62,14.54Z" fill="#68e1fd"/><path d="M153,100.9s21.47,14.12,15.55,51.37c0,0-6.7,9-15.62,14.54Z" fill="#fff" opacity="0.46"/><circle cx="289.69" cy="108.97" r="69.9" fill="#24285b"/><path d="M117.89,64.09s1.44,6.93.81,11.73a3.56,3.56,0,0,1-4,3.06c-2.41-.35-5.57-1.53-6.8-5.15l-2.83-5.89a6.37,6.37,0,0,1,2-7.08C110.67,57.44,117.22,59.82,117.89,64.09Z" fill="#f4a28c"/><polygon points="105.58 68.91 104.66 92.09 117.47 91.69 112.99 74.98 105.58 68.91" fill="#f4a28c"/><path d="M116.18,64.59a28.23,28.23,0,0,1-6.54.27,5.89,5.89,0,0,1,.76,6.43,4.81,4.81,0,0,1-5.54,2.59l-1-9A7.21,7.21,0,0,1,106.77,58a25.69,25.69,0,0,1,2.85-1.83c2.47-1.35,6.49-.07,8.61-2.1a1.71,1.71,0,0,1,2.82.79c.73,2.7.76,7.08-2.78,9A6.76,6.76,0,0,1,116.18,64.59Z" fill="#ffd200"/><path d="M111.13,71s-.38-2.7-2.39-2.25-1.49,4.36,1.32,4.4Z" fill="#f4a28c"/><path d="M118.57,68.5,120.85,71a1.13,1.13,0,0,1-.5,1.85l-2.63.82Z" fill="#f4a28c"/><path d="M114.13,78.59a8.34,8.34,0,0,1-4.41-2s.68,4.19,5.81,7.8Z" fill="#ce8172" opacity="0.31"/><path d="M66.79,160.84s-35.27-59.17,37-69.11l13.64,0s71.7-8.77,35.43,75.12h0a66.37,66.37,0,0,1-83.44-3.61Z" fill="#68e1fd"/><path d="M285.4,64.09S284,71,284.59,75.82a3.55,3.55,0,0,0,4,3.06c2.41-.35,5.57-1.53,6.79-5.15l2.83-5.89a6.37,6.37,0,0,0-2-7.08C292.61,57.44,286.06,59.82,285.4,64.09Z" fill="#f4a28c"/><polygon points="297.71 68.91 298.63 92.09 285.82 91.69 290.29 74.98 297.71 68.91" fill="#f4a28c"/><path d="M284.72,68.5,282.44,71a1.13,1.13,0,0,0,.49,1.85l2.63.82Z" fill="#f4a28c"/><path d="M289.16,78.59a8.32,8.32,0,0,0,4.4-2s-.68,4.19-5.8,7.8Z" fill="#ce8172" opacity="0.31"/><path d="M98.1,92.3l17.43,63.49,10-64.37S107.1,90,98.1,92.3Z" fill="#24285b"/><polygon points="109.02 101.11 108.44 129.99 115.53 155.79 119.73 128.78 113.64 100.9 109.02 101.11" fill="#fff"/><path d="M106.67,94.83s-1.14,6.54,2.63,6.77c6.9.44,6-1.18,5.15-7.6l-4.23-3Z" fill="#fff"/><polygon points="98.1 92.3 85.96 118.69 102.87 126.95 96.19 140.45 115.53 155.79 98.1 92.3" fill="#fff" opacity="0.32"/><path d="M279.76,93.75s-20-2.75-22,15.22,4.46,44.24-5.75,59.25l1.69,1a45.92,45.92,0,0,0,10.11,4.55h0S300.25,137.11,279.76,93.75Z" fill="#68e1fd"/><path d="M279.76,93.75s-20-2.75-22,15.22,4.46,44.24-5.75,59.25l1.69,1a45.92,45.92,0,0,0,10.11,4.55h0S300.25,137.11,279.76,93.75Z" fill="#fff" opacity="0.46"/><polygon points="115.53 155.79 125.55 91.42 138.66 118.38 124.33 127.12 132.72 141.28 115.53 155.79" fill="#fff" opacity="0.32"/><path d="M83.48,126.07s5.89,8.48,6.41,26.05,11.26,28.52,40.9,25.4c0,0-22.73,8.64-50.3-6.42L71,135.63Z" opacity="0.08"/><rect x="133.42" y="126.07" width="13.46" height="3.5" fill="#fff"/><polygon points="98.1 92.3 104.9 86.04 110.22 91.04 115.72 85.16 125.55 91.42 117.72 96.93 110.67 95.09 104.69 97.72 98.1 92.3" fill="#24285b"/><path d="M59.55,119.7c-3.08,7.83-4.71,18.43-1.36,31.81a83.21,83.21,0,0,0,22.3,19.59s-2.11-20.69,1.36-33c1.78-6.28,2.13-11.75,1-16.77C80.34,109.62,63.94,108.51,59.55,119.7Z" fill="#68e1fd"/><path d="M59.55,119.7c-3.08,7.83-4.71,18.43-1.36,31.81a83.21,83.21,0,0,0,22.3,19.59s-2.11-20.69,1.36-33c1.78-6.28,2.13-11.75,1-16.77C80.34,109.62,63.94,108.51,59.55,119.7Z" fill="#fff" opacity="0.32"/><circle cx="115.05" cy="165.81" r="2.42" fill="#24285b"/><path d="M285.82,91.69l12.81.4s31.68,2.61,33.51,25.42-5.35,50.71-5.35,50.71-29.19,21-65.14,4.8l.61-3.61a52.93,52.93,0,0,0-6.49-35.1c-4.64-8.13-6.85-18.79,4.54-27.55C281.28,90.64,285.82,91.69,285.82,91.69Z" fill="#68e1fd"/><path d="M279.76,93.75s-3-5.29,5.8-8.59S306.9,83,305.62,93.3C305.62,93.3,291.08,91,279.76,93.75Z" fill="#68e1fd"/><path d="M279.76,93.75s-3-5.29,5.8-8.59S306.9,83,305.62,93.3C305.62,93.3,291.08,91,279.76,93.75Z" fill="#fff" opacity="0.46"/><path d="M305.71,106.7s-21.44,12.12-10,25.23,10.84,21.73,8.64,33.88-30.63,11.4-30.63,11.4,18.71,6.08,40.91-2.82l20.62-27.25L320.8,109Z" opacity="0.08"/><path d="M285.82,61s0,7.86,7.29,8.05c0,0-.32,5.37,2.64,15.37s8.73,14.86,18.57,13.94l8.47,2.53a16.21,16.21,0,0,0-6.9-16.47c-9.31-6.51-10.78-10.83-10.18-17.78s-3.19-12.59-10.93-12.72S285.19,57.19,285.82,61Z" fill="#ffd200"/><path d="M292.16,71s.37-2.7,2.38-2.25,1.49,4.36-1.31,4.4Z" fill="#f4a28c"/><path d="M303.59,110.41c4.52-11.1,19.54-13.52,27-4.13,2.56,3.22,4.72,7.73,5.94,14,4.9,25.17,1.83,38.85,1.83,38.85s-13.71,13-23.67,15.23c0,0,6.46-12.83,2.27-30.66C313.54,129.28,297.75,124.73,303.59,110.41Z" fill="#68e1fd"/><path d="M303.59,110.41c4.52-11.1,19.54-13.52,27-4.13,2.56,3.22,4.72,7.73,5.94,14,4.9,25.17,1.83,38.85,1.83,38.85s-13.71,13-23.67,15.23c0,0,6.46-12.83,2.27-30.66C313.54,129.28,297.75,124.73,303.59,110.41Z" fill="#fff" opacity="0.46"/><path d="M302.66,224a11.15,11.15,0,1,0-11.83,11.12v3.26h-2.36a.68.68,0,1,0,0,1.35h2.36v2.93a.68.68,0,0,0,1.36,0v-2.93h2.37a.68.68,0,1,0,0-1.35h-2.37v-3.26A11.16,11.16,0,0,0,302.66,224Zm-21,0a9.8,9.8,0,1,1,9.8,9.8A9.82,9.82,0,0,1,281.71,224Z" fill="#fff"/><rect x="87.38" y="203.25" width="55.88" height="49.75" fill="#ffd200"/><path d="M126.48,212.27a.67.67,0,0,0-.67,0l-4.73,2.49a.68.68,0,1,0,.63,1.2l2.5-1.31-4.36,6.91a11.13,11.13,0,0,0-16.75,9.63A11.16,11.16,0,1,0,121,222.28l4.42-7-.06,3a.67.67,0,0,0,.66.69h0a.66.66,0,0,0,.67-.66l.11-5.4A.67.67,0,0,0,126.48,212.27Zm-2.42,18.89a9.8,9.8,0,1,1-9.8-9.8A9.81,9.81,0,0,1,124.06,231.16Z" fill="#fff"/></svg>