<svg id="Layer_1" data-name="Layer 1" xmlns="http://www.w3.org/2000/svg" viewBox="0 0 400 300"><title>#26 vr</title><path d="M144.81,53.73s11.9,3.27,21.4-12.23,25.5-29,47-14,28,40.5,62.5,24,57,2.16,50,30.08-23,30.79-5,54.85S319.88,187.5,286,186.5s-49.83-18.53-71.33-2-62.5-19.79-62.5-19.79L134.82,89.8Z" fill="#e6e6e6" opacity="0.47"/><path d="M152.21,118.5s15.67,47.34,35.17,46.17,40.83-33.87,40.83-33.87l-5.55-5.42s-39.78,43.45-46.11-10.71Z" fill="#f4a28c"/><path d="M145.25,71.44s4.13,17-2.2,21.71l-7.2-6.48L139.27,70Z" fill="#24285b"/><ellipse cx="196.06" cy="263.48" rx="108.39" ry="15.39" fill="#e6e6e6" opacity="0.45"/><path d="M167.1,255.05s2.18,4.33,6.32,4.17,5.7,3.72,2.15,5.21-13.63-2.06-13.63-2.06l-.51-6.55Z" fill="#68e1fd"/><path d="M141.73,56.81s3.64,6.39,4.55,11.34a3.7,3.7,0,0,1-3,4.3c-2.5.42-6,.27-8.36-2.92l-4.68-4.92A6.62,6.62,0,0,1,130,57C132.48,52.54,139.71,52.8,141.73,56.81Z" fill="#f4a28c"/><polygon points="131.96 65.69 132.06 89.8 145.34 88.79 140.07 72.08 131.96 65.69" fill="#f4a28c"/><path d="M143.81,61.45l3.05,1.72a1.18,1.18,0,0,1,.1,2l-2.33,1.66Z" fill="#f4a28c"/><path d="M145.34,88.79s20.18,7.1,31.57,20.78c8.44,10.12,5.89,25-.66,32.46a58.8,58.8,0,0,0-12.63,22.79l-2.21,8H123.66s-52.28-64.49,1.26-83Z" fill="#68e1fd"/><path d="M128.55,115.56s-3.58,20.76,10.1,22.76,20.68-17,20.68-17l10.17-.67-1.81,33.85s-4.57,9.2-5.13,14.17l-41,1.78L118,165.92l-11.35-14.18L111,133.65Z" opacity="0.08"/><path d="M121.31,71.17c-1,4.49-3.22,9.63-8.06,13.06L132,93.15s5.12-17.76,2.7-26.83c-1.42-5.37-1.24-6.84-1.24-6.84l11.39-2.92s-1.81-7.62-5.94-9.12c-3.87-1.41-20-1.1-17.59,11.64A30,30,0,0,1,121.31,71.17Z" fill="#24285b"/><path d="M136,64.17s-1.72-3.55-4.28-2-.12,6.65,3.76,5.46Z" fill="#f4a28c"/><polygon points="132.91 59.62 134.46 65.49 145.64 62.48 143.16 56.98 132.91 59.62" fill="#ffd200"/><polygon points="133.16 60.56 121.6 63.07 121.76 68.4 134.46 65.49 133.16 60.56" fill="#ffd200"/><polygon points="133.16 60.56 121.6 63.07 121.76 68.4 134.46 65.49 133.16 60.56" opacity="0.08"/><polygon points="143.49 57.72 134.46 60.07 135.54 64.13 145.25 61.61 143.49 57.72" fill="#fff" opacity="0.3"/><path d="M162.84,184.48s9,31.5,4.49,70.34l-5.9,1s-5.57-44-19-67Z" fill="#f4a28c"/><path d="M122.66,189.25s13.86,46.78-25,41.45V236s56.16,16,44-46.73Z" fill="#f4a28c"/><polygon points="136.17 117.3 164.17 115.56 162.09 150.34 134.46 151.74 136.17 117.3" fill="#ffd200"/><path d="M121.6,170.45l41-1.78s9.35,29.73,10.6,47H117.91S116,186.08,121.6,170.45Z" fill="#24285b"/><path d="M130,142.43s1.91-9.13,8.91-6.78S138.61,152.61,130,142.43Z" fill="#f4a28c"/><path d="M127.67,108.53a10.49,10.49,0,0,0-17.75-8A41.3,41.3,0,0,0,98.17,121c-5.22,22.7-13.31,47.48-1.83,51.13s23.47-3.9,38.48-26.34l-4.82-3.4-19,8.09S126.5,131.81,127.67,108.53Z" fill="#f4a28c"/><path d="M97.67,123.15l25.66,7.65s13.88-26.23-1.73-33.27S98.52,115.15,97.67,123.15Z" fill="#68e1fd"/><path d="M97.67,123.15l25.66,7.65s13.88-26.23-1.73-33.27S98.52,115.15,97.67,123.15Z" fill="#fff" opacity="0.3"/><path d="M99.17,236.47s-4.65,1.38-5.23,5.47-4.68,4.95-5.51,1.19,4.47-13,4.47-13l6.53.67Z" fill="#68e1fd"/><path d="M222.66,125.38s2.55-4.88,7.3-4.88,12.31,8-1.75,10.3Z" fill="#f4a28c"/><path d="M226.66,123.94a6.7,6.7,0,0,1,5.39-8.69l.21,0c6.49-.8,12.22,3.7,4,7.16a3,3,0,0,0-1.82,2.89l.42,8.61a2.45,2.45,0,0,1-2.16,2.54h0a2.44,2.44,0,0,1-2.61-1.69Z" fill="#ffd200"/><circle cx="253.54" cy="65.69" r="36.06" fill="#68e1fd"/><circle cx="296.89" cy="124.37" r="20.38" fill="#ffd200"/><circle cx="199.87" cy="106.41" r="11.64" fill="#24285b"/><circle cx="191.16" cy="37.09" r="2.93" fill="#fff"/><circle cx="167.65" cy="80.67" r="2.93" fill="#fff"/><circle cx="256.4" cy="127.3" r="2.93" fill="#fff"/><circle cx="199.87" cy="175" r="2.93" fill="#fff"/><circle cx="292.69" cy="163.33" r="2.93" fill="#fff"/><circle cx="309.3" cy="60.63" r="2.93" fill="#fff"/><path d="M220.05,52.31s-22.11.38-23.59,15,67.93,26.13,93.14,23.17,27.31-16.25,0-27.73c0,0,2.19,13.95-16.58,12.84C250.94,74.32,210.73,72.54,220.05,52.31Z" fill="#68e1fd"/><path d="M220.05,52.31s-22.11.38-23.59,15,67.93,26.13,93.14,23.17,27.31-16.25,0-27.73c0,0,2.19,13.95-16.58,12.84C250.94,74.32,210.73,72.54,220.05,52.31Z" fill="#fff" opacity="0.48"/><ellipse cx="247.13" cy="40.18" rx="7.95" ry="6.02" opacity="0.08"/><ellipse cx="265.25" cy="41.83" rx="4.2" ry="5.55" transform="translate(75.33 231.66) rotate(-53.95)" opacity="0.08"/><ellipse cx="305.58" cy="117.16" rx="4.2" ry="5.55" transform="translate(31.03 295.27) rotate(-53.95)" opacity="0.08"/><ellipse cx="257.06" cy="51.29" rx="4.19" ry="3.17" opacity="0.08"/><ellipse cx="292.69" cy="113.98" rx="4.19" ry="3.17" opacity="0.08"/></svg>