<svg id="Layer_1" data-name="Layer 1" xmlns="http://www.w3.org/2000/svg" viewBox="0 0 400 300"><title>_</title><path d="M195,150a85,85,0,0,1-45.22,75.11c-1.05.56-2.11,1.1-3.19,1.61a84.22,84.22,0,0,1-32.4,8.15c-1.37.06-2.76.1-4.16.1s-2.78,0-4.15-.1a84.27,84.27,0,0,1-32.41-8.15c-1.08-.51-2.14-1.05-3.19-1.61A85,85,0,0,1,74.85,72.64a85.15,85.15,0,0,1,70.37,0A85,85,0,0,1,195,150Z" fill="#68e1fd"/><path d="M108.37,155.24c-1.07,15.14-3,31.22-3.67,37.13l-.28,2.36-.08,4.38,0,1.58-33.06-.9h0c.09-.3,2.21-6.74-5.6-18.62-8-12.17-15.07-36.84-13.13-43.75s14,17.85,14,17.85,2.82-41.85,7.18-42.75,3.85,20.8,3.85,20.8,2.6-19.32,7-19.15c3.08.11,4,10.42,4.25,16.68.12,2.52.12,4.38.12,4.67,0-.29.08-2.22.32-4.75.53-5.76,1.89-14.62,5.17-14.28,2.81.28,4.18,7.82,4.83,14.1.47,4.54.56,8.42.56,8.42s.15-4.05.45-8.39a72.75,72.75,0,0,1,1.08-9.38c1-4.1,3.2-7,6.79,4.18a25.85,25.85,0,0,1,.84,5.78A205.49,205.49,0,0,1,108.37,155.24Z" fill="#f4a28c"/><path d="M105.88,234.87a84.65,84.65,0,0,1-32.41-8.15c-1.08-.51-2.14-1.05-3.19-1.61l1-25.32h0l24.77-.5,8.31-.17,1,0S105.57,217.87,105.88,234.87Z" fill="#ffd200"/><path d="M66.58,155.26s19.68,5.43,24.56,20.25A17.49,17.49,0,0,0,87.88,164C83.8,158.12,69.87,154.42,66.58,155.26Z" opacity="0.1"/><path d="M74.85,149.76s19-1.86,27,3.45c0,0-2.67-4.06-11.56-5.1A33.67,33.67,0,0,0,74.85,149.76Z" opacity="0.1"/><path d="M154.41,181.16c-7.82,11.88-5.7,18.32-5.6,18.62h0l-33.07.9,0-1.58-.08-4.38-.28-2.36c-.72-5.92-2.6-22-3.68-37.14A213,213,0,0,1,111,131.4a26.8,26.8,0,0,1,.86-6c3.59-11.23,5.77-8.28,6.78-4.18a87,87,0,0,1,1.23,11.66c.2,3.38.31,6.11.31,6.11s.06-2.57.33-6c.54-6.57,1.86-16.23,5.06-16.55,4.71-.48,5.45,18,5.49,19,0-1,.06-21.19,4.37-21.35s7,19.15,7,19.15-.51-21.7,3.86-20.8,7.18,42.75,7.18,42.75,12.1-24.78,14-17.85S162.41,169,154.41,181.16Z" fill="#f4a28c"/><path d="M149.78,225.11c-1.05.56-2.11,1.1-3.19,1.61a83.21,83.21,0,0,1-22.88,7.14,80.79,80.79,0,0,1-9.52,1c.3-17,.56-35.78.56-35.78l1,0,8,.16,25.1.51h0Z" fill="#ffd200"/><path d="M153.49,155.26s-19.68,5.43-24.56,20.25A17.49,17.49,0,0,1,132.19,164C136.27,158.12,150.19,154.42,153.49,155.26Z" opacity="0.1"/><path d="M145.22,149.76s-19-1.86-27,3.45c0,0,2.67-4.06,11.56-5.1A33.7,33.7,0,0,1,145.22,149.76Z" opacity="0.1"/><path d="M105.88,234.87A83.81,83.81,0,0,1,96,233.82V199.28l8.31-.17,1,0S105.57,217.87,105.88,234.87Z" opacity="0.1"/><path d="M123.71,199.27v34.59a80.79,80.79,0,0,1-9.52,1c.3-17,.56-35.78.56-35.78l1,0Z" opacity="0.1"/><path d="M145.22,72.64V94.41H74.85V72.64a85.15,85.15,0,0,1,70.37,0Z" fill="#24285b"/><rect x="87.54" y="94.41" width="44.99" height="4.14" fill="#24285b"/><path d="M109,131.19a205.49,205.49,0,0,1-.67,24.05c-3.85,0-7.69-.19-10.9-2.17a14.66,14.66,0,0,1-3-2.61c-.57-.63-1.11-1.28-1.65-1.94L91.49,147c-2-2.35-4.86-4.13-6.75-6.54-2.56-3.31-2.75-6.82,1.26-8.69a12.91,12.91,0,0,1,2.88-.91l.44-.08a49.41,49.41,0,0,1,10-.18h.43l.58,0C103.24,130.69,106.14,130.87,109,131.19Z" opacity="0.1"/><path d="M135,145a7.59,7.59,0,0,1-.61,2.92,7.5,7.5,0,0,1-.9,1.67,13.31,13.31,0,0,1-7.43,5.09c-4.55,1.23-9.36.64-14.08.6h-.31A213,213,0,0,1,111,131.4c3,.36,5.94.86,8.87,1.49l.64.14.76.17a25.38,25.38,0,0,1,9.06,3.57C133,138.67,135.06,141.68,135,145Z" opacity="0.1"/><path d="M87.28,127c-.94,1.94-1.64,4.63-.77,6.64,1,2.36,3.37,2.06,5.23,1.48a8,8,0,0,0,3,6.67,10.63,10.63,0,0,0,5.59,1.63,6.14,6.14,0,0,0,1.74,4.72,6.51,6.51,0,0,0,3.63,1.61,9.45,9.45,0,0,0,7.63-1.44,8.05,8.05,0,0,1,1.31-.93,4,4,0,0,1,2.06-.17,17.17,17.17,0,0,0,7.8-.88,12.53,12.53,0,0,0,6.52-6.11c.4-.77.7-2,.19-2.59a9.22,9.22,0,0,0,3.65-1.95,6.47,6.47,0,0,0,1.84-4.78,8.58,8.58,0,0,0-.55-2.5c-1.75-4.8-5.67-7.63-9.29-6.71,1.38-1.08,1-4.47-.3-5.74s-3-1.06-4.55-.8l-7.52,1.24a2.2,2.2,0,0,1-1,0,4.33,4.33,0,0,1-1.41-1.16c-2.29-2.25-5.66-1.68-7.55,1.3.43-.68-4.15-1.67-4.6-1.52a26.57,26.57,0,0,0-4.19,2.41A22.68,22.68,0,0,0,87.28,127Z" fill="#fff"/><path d="M99.55,106c-.27.66-.46,1.56.12,2a1.07,1.07,0,0,0,1.2,0,2.33,2.33,0,0,0,.75-1c.29-.7,1.15-4.07.15-4.38S99.8,105.39,99.55,106Z" fill="#fff"/><path d="M116.66,110.55a1.83,1.83,0,0,0,.75-1.64c0-1.7-1.33-3.58-2.16-5-.31-.53-.61-1-1.31-.94a12.63,12.63,0,0,0-.22,5.26C114,109.4,115.1,111.5,116.66,110.55Z" fill="#fff"/><path d="M123.79,105.68a1.39,1.39,0,0,0,1.79.59,1.43,1.43,0,0,0,.57-1.41,4.12,4.12,0,0,0-.61-1.49c-.37-.64-1.44-3.42-1.86-1.76C123.41,102.68,123.2,104.72,123.79,105.68Z" fill="#fff"/><path d="M374.93,150A85,85,0,0,1,337,220.76c-.55.37-1.11.73-1.67,1.08a82,82,0,0,1-8.81,4.88,83.23,83.23,0,0,1-20.85,6.79h0c-.55.12-1.1.21-1.65.31A86.77,86.77,0,0,1,290,235a84.43,84.43,0,0,1-36.56-8.25,79.74,79.74,0,0,1-7.61-4.13,85,85,0,0,1,34.08-157A85,85,0,0,1,374.93,150Z" fill="#68e1fd"/><path d="M316.51,137.34s-1.33,1.76-3.4,4.45c-5.78,7.47-17.4,22.05-22.79,25.66a146,146,0,0,1-13.78,8.15l-16.85,22.52-3.21,4.28-6.35,8.48L231,180.64l2.27-3,17.91-23.28s-2.89-13.75,1.16-24.2,3.78-25,6.29-27.76,7-.37,7.59,6.14,2.18,18.6,2.18,18.6,8-1.3,15-9.42S303.5,92.33,306.5,91.21s4.65,2.5,3.2,5.48c-1.21,2.45-9.35,14.13-12.19,18.19,3.89-5.45,18.1-25,20.9-24.46,3.27.65,4.09,4.15.8,9.16-3.18,4.86-13.2,18.26-13.82,19.09.8-1,19.63-23.25,22.36-22.6s4.85,3.3-.28,10.19c-5,6.65-13.16,19.84-13.71,20.74.86-1,15.43-17,18.05-15S316.51,137.34,316.51,137.34Z" fill="#f4a28c"/><path d="M316.51,137.34s-1.33,1.76-3.4,4.45c-5.78,7.47-17.4,22.05-22.79,25.66a146,146,0,0,1-13.78,8.15l-16.85,22.52-3.21,4.28-6.35,8.48L231,180.64l2.27-3,17.91-23.28s-2.89-13.75,1.16-24.2,3.78-25,6.29-27.76,7-.37,7.59,6.14,2.18,18.6,2.18,18.6,8-1.3,15-9.42S303.5,92.33,306.5,91.21s4.65,2.5,3.2,5.48c-1.21,2.45-9.35,14.13-12.19,18.19,3.89-5.45,18.1-25,20.9-24.46,3.27.65,4.09,4.15.8,9.16-3.18,4.86-13.2,18.26-13.82,19.09.8-1,19.63-23.25,22.36-22.6s4.85,3.3-.28,10.19c-5,6.65-13.16,19.84-13.71,20.74.86-1,15.43-17,18.05-15S316.51,137.34,316.51,137.34Z" opacity="0.1"/><path d="M257.58,203.58s-6.42,10.45-11.78,19a85.39,85.39,0,0,1-28.26-28.13l14.65-17.88,1,1.1,23.26,24.72Z" fill="#ffd200"/><path d="M313.11,141.79c-5.78,7.47-17.4,22.05-22.79,25.66a146,146,0,0,1-13.78,8.15l-16.85,22.52A37.91,37.91,0,0,1,263,179.21c1.28-2.57,3-5,3.47-7.85.89-5.82-3.93-10.87-5.42-16.57-1.24-4.72-.11-9.81,2-14.18a32.67,32.67,0,0,1,24.29-17.7,21,21,0,0,1,9.76.64c5.19,1.78,9.07,6.17,12,10.79A43.7,43.7,0,0,1,313.11,141.79Z" opacity="0.1"/><path d="M268.21,157.63a35.23,35.23,0,0,0,4.07-5.73,17.58,17.58,0,0,0,1.32-12.75c-.87-3.1-3.21-7.77-6.35-8.94-1.37,2.59,1.8,10,2.12,13.13A35.39,35.39,0,0,1,268.21,157.63Z" opacity="0.1"/><path d="M328.83,149.52a8.82,8.82,0,0,0-3.72-8.74,16.84,16.84,0,0,0,1.94-14.41,14,14,0,0,0-10.95-9.21c-.87-2.68-3.67-4.2-6.33-5.13a34.31,34.31,0,0,0-7.47-1.72c-3.38-.4-7.14-.18-9.69,2.09a10.55,10.55,0,0,0-7.57-.86,18.91,18.91,0,0,0-6.92,3.48,15.51,15.51,0,0,0-5.45,6.6c-1,2.7-.73,6,1.28,8.11-2.22-.09-3.65,2.27-4.57,4.29-1.87,4.1-3.77,8.41-3.53,12.9s3.41,9.18,7.9,9.52c-2.39,1.71-3.09,5.2-2,7.94a10.57,10.57,0,0,0,6.34,5.76,23.2,23.2,0,0,0,8.7,1.06,18.71,18.71,0,0,0,6.77-1.18c3.24-1.37,5.61-4.15,7.86-6.85.25,1.6,2.16,2.36,3.78,2.35a9.67,9.67,0,0,0,6.8-3.11c3,2,6.9-1.16,9.24-3C324.61,156.62,328.13,154.19,328.83,149.52Z" fill="#fff"/><path d="M335.34,221.84a82,82,0,0,1-8.81,4.88,83.23,83.23,0,0,1-20.85,6.79h0c-.95-3.6-2.8-10.33-4.82-16.23-1.73-5.06-3.59-9.5-5.1-10.8-4.06-3.5-7.19-1.72-14.72-9.89-3.26-3.53-7.48-8.07-11.07-12.21-4.72-5.45-8.39-10.22-7.43-11.19,1.68-1.7,7.49-1.85,13.1,3.5l0,.05c5.59,5.32,10.7,7.78,12.3,4.48.58-1.2.37-5.1-.23-10.06-.07-.6-.16-1.23-.25-1.87-1.12-8.52-3.16-19.32-4.32-25.11-2-9.75-7.12-17.87-2.13-18.14,4.61-.23,11.82,20.54,12.91,23.77-1.12-3.57-9.05-28.7-6.14-30.32,3.9-2.19,9.4,8.69,13.58,23.16-1.83-7.8-4.88-21.46-4.58-24.33.44-4,5.28-2.94,6.92,1.54,1.16,3.21,5.29,16.82,7.55,24.28.79,2.63,1.35,4.49,1.47,4.87-.09-.42-.53-2.49-1.08-5.36-1.6-8.05-4.21-22.31-3-23.4,1.7-1.55,4.34-3.46,6.65,3.68a3.25,3.25,0,0,1,.11.37c.07.2.15.41.22.64.66,2,1.76,5.34,3.1,9.45,2,6,4.43,13.77,6.69,21.39,3.37,11.36,6.27,22.48,6.39,27.5a101.87,101.87,0,0,1-.85,17.64l1.91,9.17Z" fill="#f4a28c"/><path d="M337,220.76c-.55.37-1.11.73-1.67,1.08a82,82,0,0,1-8.81,4.88,83.23,83.23,0,0,1-20.85,6.79h0c-.55.12-1.1.21-1.65.31-1.47-6.78-3.59-16.45-3.59-16.45l.42-.09,32-7.19,1.3-.29Z" fill="#ffd200"/><path d="M233.62,139.15a3,3,0,0,0,1.82,2.79,2.41,2.41,0,0,0,.26,3.53,4.66,4.66,0,0,0,3.84.72,5.14,5.14,0,0,0,3.84-2.54,2.9,2.9,0,0,0-1.44-3.87,3.29,3.29,0,0,0-1.42-6.18C237.3,133.26,233.45,135.68,233.62,139.15Z" fill="#fff"/><path d="M342.46,146.28a2.84,2.84,0,0,0,3.14,2.49,2.62,2.62,0,0,0,.07,3.62,5.71,5.71,0,0,0,3.65,1.52A7.39,7.39,0,0,0,355,152.6c3.9-3.33.44-8.94-2.71-11.4C348.75,138.45,341.71,141.07,342.46,146.28Z" fill="#fff"/><path d="M281.45,88c-2-.56-4.33-.72-6.13.37s-2.7,3.77-1.35,5.39a3.82,3.82,0,0,1,.61.78,3.15,3.15,0,0,1,.15,1,4,4,0,0,0,2.71,3.33,4.9,4.9,0,0,0,4.32-.69,3.79,3.79,0,0,0,1.73-3.09,2.35,2.35,0,0,0-2.37-2.28,2.69,2.69,0,0,0-1.34-4.94Z" fill="#fff"/></svg>