<svg id="Layer_1" data-name="Layer 1" xmlns="http://www.w3.org/2000/svg" viewBox="0 0 400 300"><title>_</title><path d="M248.49,95.14a.72.72,0,0,1,.46.14.29.29,0,0,1,.06.21c0,1.82,1.85,14.33,2.66,15.55a15.42,15.42,0,0,1,1.59,2.64,6.43,6.43,0,0,1,.48,2.74,1.42,1.42,0,0,1-.53,1.12,2.61,2.61,0,0,0-.66,1.58,14.19,14.19,0,0,0,0,2.06,11.29,11.29,0,0,1-.31,3.12c-.08.33-.24.71-.57.77s-.67-.32-.79-.69a1.93,1.93,0,0,0-.47-1c-.12-.09-.5.91-.52,1a5.63,5.63,0,0,0,0,1.23c.05,1.09.08,2.2.09,3.3-1.47,0-3-.46-4.42-.39-.68,0-2.32.4-2.66-.48a2.31,2.31,0,0,1,0-1.11,5.88,5.88,0,0,0,0-1.39c0-.21-.11-.46-.32-.51a.54.54,0,0,0-.4.12c-.32.22-.69.5-1.05.37s-.47-.59-.5-1a24.41,24.41,0,0,1,.3-5.91,20.11,20.11,0,0,1,1.2-4.77,11.47,11.47,0,0,0,.87-2c.11-.58.09-1.2.17-1.79.17-1.14.32-2.27.48-3.41.46-3.44,1-6.91,1.18-10.38,0-.09.09-1.1-.07-1.1l2.32,0A12.55,12.55,0,0,1,248.49,95.14Z" fill="#e6e6e6"/><path d="M223,109.83s10.9-1,11.76,1.73-3.63,2.46-3.63,2.46,5.71,4.87,4.86,7.77-13.86-5.65-13.86-5.65Z" fill="#f4a28c"/><polygon points="176.8 97.36 224.08 108.02 222.62 118.66 177.16 123.83 168.06 105.89 176.8 97.36" fill="#68e1fd"/><polygon points="176.8 97.36 224.08 108.02 222.62 118.66 177.16 123.83 168.06 105.89 176.8 97.36" opacity="0.09"/><ellipse cx="205.74" cy="242.03" rx="153.23" ry="14.92" fill="#e6e6e6" opacity="0.3"/><rect x="87.29" y="128.57" width="249.1" height="107.14" fill="#e6e6e6"/><rect x="102.67" y="143.98" width="169.29" height="91.73" fill="#c1c1c1"/><polygon points="153.19 56.89 151.08 70.24 139.11 71.29 146.09 49.88 153.19 56.89" fill="#f4a28c"/><path d="M150.6,42.41a6.28,6.28,0,0,1,8.52,6.18c-.2,5-1.45,11.92-6.93,10.82-8.39-1.69-6.55-12.61-6.55-12.61A11.43,11.43,0,0,1,150.6,42.41Z" fill="#f4a28c"/><path d="M170.06,125.2a158.52,158.52,0,0,0-10.12,20.34l-5.53,13.12-15.43.26-28.36.48L103.34,117a46.12,46.12,0,0,1,.83-19.49l.1-.34c0-.18.13-.45.23-.77a44.34,44.34,0,0,1,12.76-20.63l.34-.32a42.82,42.82,0,0,1,5.72-4.28,38.3,38.3,0,0,1,10.07-4.52l.16,0a32.31,32.31,0,0,1,4.68-.94l.65-.09a35.81,35.81,0,0,1,7.26-.06C174.5,68.09,184.91,100.5,170.06,125.2Z" fill="#68e1fd"/><path d="M143.79,83.33a14,14,0,0,1,23-9.41,39.07,39.07,0,0,1,10,13C185,104,198.06,115.28,242.1,114.26V125s-64,13.57-87-12.29C145.23,101.7,143.05,91.46,143.79,83.33Z" fill="#68e1fd"/><path d="M143.79,83.33a14,14,0,0,1,23-9.41,39.07,39.07,0,0,1,10,13C185,104,198.06,115.28,242.1,114.26V125s-64,13.57-87-12.29C145.23,101.7,143.05,91.46,143.79,83.33Z" fill="#fff" opacity="0.44"/><path d="M241.92,223.46s-9.67-2.64-11.77-11.64c0,0,15-3,15.4,12.43Z" fill="#68e1fd" opacity="0.58"/><path d="M243.1,222.5s-6.75-10.67-.81-20.66c0,0,11.39,7.24,6.33,20.68Z" fill="#68e1fd" opacity="0.73"/><path d="M244.84,222.51s3.57-11.28,14.35-13.41c0,0,2,7.32-7,13.44Z" fill="#68e1fd"/><polygon points="237.83 222.25 239.79 235.66 252.13 235.71 253.95 222.32 237.83 222.25" fill="#24285b"/><path d="M242.1,117.18a22.18,22.18,0,0,1,3.71-1.94c1.77-.74,3.21-1.91,5.07-2.55.48-.16,1.14-.25,1.41.19a1,1,0,0,1-.21,1.08,3.07,3.07,0,0,0-.66,1,15.17,15.17,0,0,1,5.26-1.25c.76,0,1.74.14,1.89.89a1.48,1.48,0,0,1-.14.82,9.63,9.63,0,0,1-4.29,4.34,27.58,27.58,0,0,1-3.85,1.91c-1.09.44-2,1.1-3,1.55-.36.15-5.15,1.63-5.15,1.84Z" fill="#f4a28c"/><path d="M120.44,102.27s-3.82,40.25,19.29,56.39l-.75.26-28.36.48L103.34,117a46.12,46.12,0,0,1,.83-19.49l.1-.34a50.75,50.75,0,0,1,13-21.4l.34-.32a37.55,37.55,0,0,1,15.79-8.8l.16,0a41.2,41.2,0,0,1,4.68-.94l.65-.09c.72-.08,1.44-.16,2.17-.21l3.07-9.38,4.26-.43-2.24,10S121.79,79.93,120.44,102.27Z" opacity="0.09"/><path d="M142.6,50.09s-1.33,4.48,2.19,6.26S152.73,50,152.73,50s7.82-1.35,11.05-5.44c1.77-2.24-.63-5.28-3.35-4.43a5.14,5.14,0,0,1-5-1.22C150.5,34.88,139.24,37.76,142.6,50.09Z" fill="#24285b"/><path d="M153.23,50.11s-.25-3-2.94-1.82-.77,5,1.07,4.91S153.23,50.11,153.23,50.11Z" fill="#f4a28c"/><rect x="259.18" y="125.12" width="9.33" height="3.44" fill="#ffd200"/><path d="M266,125.12h-4.26V90.42a6.34,6.34,0,1,0-12.68,0v4.76h-4.26V90.42a10.6,10.6,0,0,1,21.2,0Z" fill="#ffd200"/><path d="M153,167.08l-14.58,77.23-4.28-1.42-4.36-54c-.51-8.7,2.94-13.62-3.17-20L133,162.1Z" fill="#f4a28c"/><polygon points="140.43 233.87 133.34 232.43 134.18 242.89 138.46 244.31 140.43 233.87" fill="#68e1fd"/><polygon points="140.43 233.87 133.34 232.43 134.18 242.89 138.46 244.31 140.43 233.87" fill="#fff" opacity="0.46"/><path d="M108.66,164.33l-8.36,78.1,4.52-.18,19.8-50.57c3-8.2,1.12-13.88,8.82-18.29l-4.11-8.32Z" fill="#f4a28c"/><polygon points="101.43 231.88 108.65 232.45 104.82 242.25 100.3 242.44 101.43 231.88" fill="#68e1fd"/><polygon points="101.43 231.88 108.65 232.45 104.82 242.25 100.3 242.44 101.43 231.88" fill="#fff" opacity="0.46"/><polygon points="155.15 157.84 148.94 192.72 129.53 192.72 126.86 167.47 109.81 153.06 155.15 157.84" fill="#24285b"/><polygon points="109.81 153.06 103.23 192.72 124.19 192.72 134.47 160.45 109.81 153.06" fill="#24285b"/><path d="M138.81,242.12s1.85,3.39,5.2,3.2,4.68,2.84,1.82,4.08S134.75,248,134.75,248l-.6-6Z" fill="#68e1fd"/><path d="M105.43,240.69a4.7,4.7,0,0,0,4.22,3.36c3.35.15,4.43,2.38,1.46,3.32S99.33,246,99.33,246l1.25-6.17Z" fill="#68e1fd"/><path d="M252,114.29a7.66,7.66,0,0,0,.38,2.94c.07.15.17.32.33.33a.42.42,0,0,0,.32-.18,2,2,0,0,0,.35-.88,6.18,6.18,0,0,0-.17-3" fill="#e6e6e6"/><rect x="278.89" y="104.15" width="3.72" height="5.71" fill="#68e1fd"/><rect x="278.89" y="104.15" width="3.72" height="5.71" opacity="0.09"/><path d="M280.35,108.32h.79a6.13,6.13,0,0,1,6.13,6.13v14.12a0,0,0,0,1,0,0h-13a0,0,0,0,1,0,0V114.45a6.13,6.13,0,0,1,6.13-6.13Z" fill="#68e1fd"/><rect x="274.22" y="116.75" width="13.05" height="6.98" fill="#fff" opacity="0.44"/><polygon points="283.5 103.65 283.5 104.36 276.77 104.36 276.77 105.18 276.17 105.18 276.17 103.65 283.5 103.65" fill="#68e1fd"/></svg>