<svg id="Layer_1" data-name="Layer 1" xmlns="http://www.w3.org/2000/svg" viewBox="0 0 400 300"><path d="M302.8,235.24s-8.93-41.51,3.68-47.14,19.78,14.35,3.13,48.85Z" fill="#68e1fd" opacity="0.63"/><path d="M304.92,234.63s12.72-40.5,26.46-39.19,10.13,22.25-21.38,44Z" fill="#68e1fd" opacity="0.42"/><path d="M300.43,237.84s-30.5-29.53-23.16-41.22,24.42.93,29.77,38.85Z" fill="#68e1fd"/><path d="M123.58,113.91c3.55-15.73,26.6-14,27.75,2.07,1.37,19.21,6.52,46.37,24.68,47.53,21.92,1.41,31.61-6.6,34.85-10.24a9.31,9.31,0,0,1,5-2.93c2.89-.62,6.63-.61,7.9,3,2.17,6.18-8.32,7.26-8.32,7.26s-28.79,32.2-59.17,18.45C135.75,169.78,118.79,135.07,123.58,113.91Z" fill="#f4a28c"/><path d="M123.58,113.91c3.55-15.73,26.6-14,27.75,2.07,1.37,19.21,6.52,46.37,24.68,47.53,22.73,1.46,32.31-7.2,35.18-10.62a7,7,0,0,1,3.44-2.24c2.94-.85,7.67-1.46,9.13,2.7,2.17,6.18-8.32,7.26-8.32,7.26s-28.79,32.2-59.17,18.45C135.75,169.78,118.79,135.07,123.58,113.91Z" opacity="0.09"/><path d="M116.74,80.41S93.54,76.7,83.05,97.32s7.23,66.19,7.23,66.19H142.6S186.6,86.66,116.74,80.41Z" fill="#68e1fd"/><ellipse cx="205.31" cy="252.04" rx="170.13" ry="9.55" fill="#e6e6e6" opacity="0.3"/><path d="M150.22,243.71s2.19,3.65,5.8,3.24,5.22,2.88,2.21,4.42-13.48-1-13.48-1V243.9Z" fill="#68e1fd"/><path d="M102.64,243.71s-2.19,3.65-5.79,3.24-5.22,2.88-2.21,4.42,14.9-1.41,14.9-1.41l-1.42-6.06Z" fill="#68e1fd"/><polygon points="127.03 60.19 116.74 80.41 127.15 91.94 131.14 68.61 127.03 60.19" fill="#f4a28c"/><path d="M130.67,72.29a8.18,8.18,0,0,1-3.11-3.55s-1.11,4,2,9.31Z" fill="#ce8172" opacity="0.31"/><path d="M137.19,61.54s-.62,6.9-2.56,11.21A3.48,3.48,0,0,1,130,74.48c-2.16-1-4.79-3-4.9-6.74l-1-6.32A6.2,6.2,0,0,1,128,55.36C132.32,53.27,137.78,57.36,137.19,61.54Z" fill="#f4a28c"/><path d="M136.58,65.87l1.43,3a1.11,1.11,0,0,1-1,1.59l-2.69,0Z" fill="#f4a28c"/><path d="M122.3,68.35l.32-9.41s-4.77-2.37-2.27-5.21,3.85,0,5.06-3.79,4.5-3.6,6-.83,1.41-.49,4.24-.08,3.19,1.84,2.63,3.91,4,1.06,4.24,4-.39,5.48-7.26,3.88S131.6,66.18,122.3,68.35Z" fill="#ffd200"/><path d="M128.91,66.09s.41-2.64-1.59-2.78-2.64,3.65,0,4.48Z" fill="#f4a28c"/><path d="M112.29,95.57s9.46,19.11-3.92,35.93,3.58,32,3.58,32H90.28S84,145,82.69,138,84,102.69,112.29,95.57Z" opacity="0.09"/><path d="M92.43,86.61c-7.81,4.49-21.29,13.47-29.09,25.57l24.47,22.89s42.75-29.69,17.53-47.82A11.9,11.9,0,0,0,92.43,86.61Z" fill="#68e1fd"/><path d="M92,86.88c-7.86,4.58-21,13.44-28.61,25.3l24.47,22.89s42.26-29.34,18-47.51A12.58,12.58,0,0,0,92,86.88Z" fill="#fff" opacity="0.44"/><path d="M65.17,113.89s-25.12,28.68-17.62,40.92,35.06,25,35.06,25,1.85,10.06,7.77,9.3c2.32-.3,2.85-2.7,2.64-5.51a18.62,18.62,0,0,0-6.89-12.92c-8.45-6.87-23.82-23.2,1.68-35.65Z" fill="#f4a28c"/><path d="M142.6,163.51H90.28l9.41,80.3h11.93s-4.23-57.15,1.68-66.55l0,0a5.09,5.09,0,0,1,8.11-.44c14.05,16.35,19.48,67,19.48,67H152.5Z" fill="#24285b"/><polygon points="235.67 148.98 259.68 158.41 253.55 187.76 223.11 175.81 235.67 148.98" fill="#ffd200"/><path d="M228.64,172.34,222,169.61a10.6,10.6,0,1,1,8.27-19.51l6.51,2.83-1,2.23-6.51-2.83a8.16,8.16,0,1,0-6.37,15l6.63,2.74Z" fill="#ffd200"/><path d="M328.83,251.81s.14-8.65,6.93-9.44,14,1.11,13.33,9.44Z" fill="#e6e6e6"/><path d="M255.51,166.52l21.14-3.29A15.32,15.32,0,0,1,290,167.71h0a.76.76,0,0,1-.74,1.26l-1.82-.49a12.47,12.47,0,0,0-7.57.34l-27.26,10Z" fill="#ffd200"/><path d="M273,251.81s9.77-16.32,31.83-16.68,35.45,16.68,35.45,16.68Z" fill="#c1c1c1"/><path d="M259,251.81s.18-12,9.59-13.06,19.35,1.53,18.45,13.06Z" fill="#e6e6e6"/></svg>