<svg id="Layer_1" data-name="Layer 1" xmlns="http://www.w3.org/2000/svg" viewBox="0 0 400 300"><title>_</title><path d="M109.48,64.28c-32.47,13-56.55,45.81-61.3,85.55-4,33.49,5.56,70.5,61.84,81,109.51,20.52,212.07,26.36,238.26-29S366.4,51.72,310.83,45.59C266.65,40.71,172.88,39,109.48,64.28Z" fill="#e6e6e6" opacity="0.3"/><path d="M294.19,149.47c0-.61-2.13-20.4.38-21s3.56,7.43,3.56,7.43,9.24-5.2,11.65-1.59,2.34,11.49-.69,13.67-4.38,2.4-4.38,2.4l-.66,6.66Z" fill="#f4a28c"/><path d="M229.44,106.69s27.14,4.1,29.53,26-5.73,61.46,11.62,62.9,22.79-47,22.79-47L306,152.31s-4.84,82.22-50.8,73.32S229.44,106.69,229.44,106.69Z" fill="#68e1fd"/><path d="M229.44,106.69s27.14,4.1,29.53,26-5.73,61.46,11.62,62.9,22.79-47,22.79-47L306,152.31s-4.84,82.22-50.8,73.32S229.44,106.69,229.44,106.69Z" fill="#fff" opacity="0.44"/><path d="M205.34,56.66s-9.1-7.71-16.25-2.33-2.3,27.12-17.89,22.12c0,0,16.93,14,28.78-8.89Z" fill="#24285b"/><path d="M198.08,71.57s-6.18-.88-3.63-9.31S204,54.14,206,56.35Z" fill="#68e1fd"/><polygon points="246.16 256.68 240.59 210.09 213.38 222.61 214.36 256.68 246.16 256.68" fill="#68e1fd"/><path d="M216.56,67s-.76,7.34-2.9,11.9a3.7,3.7,0,0,1-4.94,1.77c-2.28-1.11-5.05-3.27-5.12-7.25l-.95-6.74a6.62,6.62,0,0,1,4.2-6.4C211.5,58.13,217.25,62.55,216.56,67Z" fill="#f4a28c"/><polygon points="201.13 70.43 196.34 94.11 209.58 95.83 207.8 78.35 201.13 70.43" fill="#f4a28c"/><path d="M215.84,71.6l1.48,3.17a1.17,1.17,0,0,1-1.07,1.68h-2.87Z" fill="#f4a28c"/><path d="M207.85,78.85a9.06,9.06,0,0,1-4-2.62s-1.52,5.07,4.56,7.62Z" fill="#ce8172" opacity="0.31"/><path d="M201.63,70.55s.48-2.8-1.65-3-2.86,3.85-.09,4.78Z" fill="#f4a28c"/><path d="M215.11,66.37a21.25,21.25,0,0,1-7-.82s-2.42,8-9.1,9.28c0,0-4.74-12.85,3.3-16.7,6.74-3.22,11.81-6.19,16.46-.91A5.53,5.53,0,0,1,215.11,66.37Z" fill="#24285b"/><path d="M192.85,95.68s-39.92,4.3-41.49,27.26S178,210.09,178,210.09h62.62L246.44,175a71.77,71.77,0,0,1,8.24-23c4.81-8.65,9-23-4.31-36.78a42.32,42.32,0,0,0-15.67-10.06l-23.43-8.74Z" fill="#68e1fd"/><path d="M207.72,69.85s0-3.29-2.62-3.08-3,4,0,5.9Z" fill="#f4a28c"/><path d="M191.15,95.16s-1.84-5.72,8.73-6.91,19,3.29,15.53,10.77C215.41,99,207.44,105.36,191.15,95.16Z" fill="#68e1fd"/><path d="M191.15,95.16s-1.84-5.72,8.73-6.91,19,3.29,15.53,10.77C215.41,99,207.44,105.36,191.15,95.16Z" fill="#fff" opacity="0.46"/><path d="M240.59,210.09H178v20.43c1.65,5.41-4.39,21.28-3.71,26.84l40.1-.68h31.8Z" fill="#68e1fd"/><path d="M188.27,116.05s9.8,15.63,0,36.83c-3.26,7.05-7.44,17.75-.23,23.83,3.58,3,8.68,4,13.18,4.61a84.74,84.74,0,0,0,10.32.66c4.53,0,6.57,1.11,10.81,2.53a25.44,25.44,0,0,0,5.09.77A22.82,22.82,0,0,1,239,190.16c6.39,5.17,2.8,12.93,1.62,19.93H178l-1.16-4.21L163.6,181.72l-6.06-30.53Z" opacity="0.08"/><path d="M202,155.16c-3.31-40-10.74-49.68-27.38-53.63S143.92,114.74,138,131.81,122.8,241,122.8,241l69.47,10.8S205.24,195.18,202,155.16ZM192.13,202,137,197.25s3-51.57,13.31-66.24S183,113.28,183,113.28,192.59,116.93,192.13,202Z" fill="#24285b"/><rect x="119.06" y="210.52" width="3.19" height="4.89" transform="translate(6.06 -3.32) rotate(1.62)" fill="#fff"/><rect x="119.06" y="210.52" width="3.19" height="4.89" transform="translate(6.06 -3.32) rotate(1.62)" opacity="0.09"/><path d="M120.38,214.09h0a5.59,5.59,0,0,1,5.59,5.59v11.76a0,0,0,0,1,0,0H114.79a0,0,0,0,1,0,0V219.68A5.59,5.59,0,0,1,120.38,214.09Z" transform="translate(6.34 -3.31) rotate(1.62)" fill="#ffd200"/><rect x="114.74" y="221.31" width="11.19" height="5.98" transform="translate(6.38 -3.31) rotate(1.62)" opacity="0.09"/><polygon points="123.1 210.16 123.08 210.77 117.31 210.6 117.29 211.31 116.78 211.29 116.82 209.98 123.1 210.16" fill="#ffd200"/><path d="M129.78,221.36l-15.68-.87-1.29,17.19s16.85,3.72,17,2.68.77-19,.77-19" fill="#24285b"/><path d="M234.48,183.88s4.92,8.73-4.61,10.56-9.76,7.51-9.76,7.51L200,199.26Z" opacity="0.08"/><path d="M188.34,125.51c4.18-15.32-13-27.71-26.26-18.92-15.64,10.39-37.79,32-28.62,67.95,13.7,53.61,55.79,36,86.65,15.65L215.25,182S170,195.76,165,171.67a19.79,19.79,0,0,1,5.21-17.45C175.91,148.12,185.24,136.86,188.34,125.51Z" fill="#68e1fd"/><path d="M188.34,125.51c4.18-15.32-13-27.71-26.26-18.92-15.64,10.39-37.79,32-28.62,67.95,13.7,53.61,55.79,36,86.65,15.65L215.25,182S170,195.76,165,171.67a19.79,19.79,0,0,1,5.21-17.45C175.91,148.12,185.24,136.86,188.34,125.51Z" fill="#fff" opacity="0.46"/><path d="M215.25,182s13.32-7.76,18.41,0-13.55,8.22-13.55,8.22Z" fill="#f4a28c"/><path d="M216.62,73.25a62.59,62.59,0,0,1-6.08-2h0a33.83,33.83,0,0,1-3-4,.5.5,0,0,0-.87.51,36.72,36.72,0,0,0,2.52,3.42l-2.51,3.2-2.88-3.36a.5.5,0,0,0-.7.71l3.19,3.72c.52,1.24,2.33,5.24,4,5.51,2,.33,3.29-.91,4.9-4.1,0,0,2.51.59,2.51-.7A6.85,6.85,0,0,0,216.62,73.25Z" fill="#ffd200"/></svg>