<svg id="Layer_1" data-name="Layer 1" xmlns="http://www.w3.org/2000/svg" viewBox="0 0 400 300"><title>#129_worldmap_twocolour</title><rect x="52.97" y="62.71" width="285.06" height="183.49" fill="#c9c9c9"/><rect x="73.03" y="84.04" width="242" height="146.71" fill="#fff"/><polyline points="146.03 64.63 194.03 25.04 238.7 64.63" fill="none" stroke="#24285b" stroke-miterlimit="10" stroke-width="2"/><path d="M192.31,122.33a1.62,1.62,0,0,1-.31,1.83.78.78,0,0,0,.16.69,1.69,1.69,0,0,0,1,.46c.54,0,1.15-.52,1.46.31,1.07-.07,1.86-1.14,3-.56.28.13.86-.33,1.33-.52a5.79,5.79,0,0,1,0-1c.27-1.44.52-1.51,1.66-.6.46-.4.64-.76.08-1.27s-.34-.76.26-.93a10,10,0,0,1,1.34-.16l1.69-.15V120a2.78,2.78,0,0,0-.94-.2,10.52,10.52,0,0,1-1.93.41,4.69,4.69,0,0,1-2-.67c-.33-.2.11-2,.48-2.27l2.23-1.76c-.46-.15-.87-.44-1.18-.35a4.38,4.38,0,0,0-1.51.83c-.37.3-.6.75-1,1.11s-.91.55-1.25.92c-.66.7-.57,1.19.19,1.74a.76.76,0,0,1,.35,1,.73.73,0,0,1-.44.39,1.5,1.5,0,0,0-.87,1.32c-.06.55-.06,1.35-1.05,1.14-1.21,1.57-1.17.05-1.51-.6a3.84,3.84,0,0,0-.18-.35c-.34-.56-.58-1.34-1.07-1.57-.34-.15-1,.5-1.57.76a1.26,1.26,0,0,1-1.58-.71,7,7,0,0,1-.48-1.7,1.44,1.44,0,0,1,.45-1.12,6.14,6.14,0,0,1,2.5-1.43c.68-.19,1.24-.93,1.77-1.52.75-.84,1.43-1.76,2.06-2.54l-1.39.34a7.53,7.53,0,0,1,1.05-.81,6.43,6.43,0,0,1,1.23-.27c.4-.24,1.08-1,1.6-.91.91.18,1.59-.51,2.46-.3.41.09.94-.4,1.61-.72l-.35.76a3.6,3.6,0,0,1,1.16-.38,13.57,13.57,0,0,1,2,.43l-.23.36c1.43.33,2.85.6,4.25,1a13.27,13.27,0,0,1,2.26,1c.61.3.65.76,0,1.07a5.08,5.08,0,0,1-3.68,0,2.72,2.72,0,0,0-1.17-.15l1.11.6a1.52,1.52,0,0,0,2.13,1.63l-.88-.58.08-.2,2.27.36-.41-.85q.67-.32,1.38-.57a11,11,0,0,1,1.51-.23,2.34,2.34,0,0,1-.35-.75,6.21,6.21,0,0,1,.08-1.22l1.71.37v.34l-.84.29c.63,1,.89.9,1.71.24a10.25,10.25,0,0,1,2.39-1.13,6.15,6.15,0,0,1,1-.19c.68,1.08,1.66,0,2.56.08.39,0,.83-.57,1.17.16a9.15,9.15,0,0,0,1.05-.33L222,111a32.47,32.47,0,0,1,3.67.68c1,.31,1.91,1,3.08.93a2.39,2.39,0,0,1-1.24-2.12A7.65,7.65,0,0,1,228.8,109a3.2,3.2,0,0,1,1.52-.35,4.58,4.58,0,0,1,1.15.27l-.56.82.43,2.87.4.13L230,114.51a2,2,0,0,0,2.53-2c.59,0,1.33-.29,1.38.75.67-.58.52-1.1-.31-1.14h-1.64c-.07-.69-.14-1.39-.21-2.21l1.17-.75v1l1,.15-.76-.66,1.23.17.09-.21-.59-.42.06-.22c.76.24,1.52.49,2.33.72a6.91,6.91,0,0,0,.91.15s.08-.24.06-.25l-1-.41-.27-.89,4-.34-.59-.63a11.29,11.29,0,0,1,5.86-1.08,8.91,8.91,0,0,0,2.11-.32c.06,0,.11-.08.17-.09a3.37,3.37,0,0,0,1.75-.76c.75-.53,1.64-1.15,2.45.06.15.24.66.22,1,.31a21.62,21.62,0,0,1,3.22.06c.39.06.68.75,1,1.17l-4.47,1.59v.19c.29,0,.59,0,.9,0s.75.09,1-.07c1-.76,2-.29,3.08-.18.41,0,.86-.24,1.26-.17a3.65,3.65,0,0,1,1.33.64,2,2,0,0,0,2.66-.52,1,1,0,0,1,.75-.17c1,.13,2,.3,3,.47-.13,1.16-.07,2.13,1.44,2.16l.4-.66h4.77l-.5-.83A11.21,11.21,0,0,1,276,109c1,.28,2.39.06,3.53.92.75.58,2.06.49,3.13.52s2.17-.19,2.95,1c.16.25.82.22,1.25.25a17,17,0,0,0,2,0,10.79,10.79,0,0,0,1.47-.26,6.91,6.91,0,0,1,.91,0l.19.32-.6.17.06.2,1.64.49-.31-1.26c1.78.22,3.58.15,5.15.75s3.34.76,4.28,2.41c.52-.71,1-.65,2.85.52-.6.5-1.6.53-1.79,1.46l-1.95-.58c-.33-.11-.65-.25-1-.38a5.4,5.4,0,0,1-.76-.29,1.82,1.82,0,0,1-.38-.45c-.06.19-.12.39-.17.59s0,.18-.07.31l-1.78.62a2,2,0,0,1,.93,1.91c-2.43-.44-4,.92-5.8,2.06a1.42,1.42,0,0,0-2-.22h0a1.44,1.44,0,0,1-.82.12c-1.31-.1-1.51,1.12-2.35,1.81l.81.17c.07.52.12,1,.18,1.51-.87.07-1.17.47-.64,1.27-.46.47-1.71.11-1.28,1.4-1.47-.22-1,1.62-2.14,1.93-.37-2.06-1.52-4.07,0-5.85,1.88-1.29,3.7-2.37,4.84-4.23l-.17-.25c-.2.07-.58.15-.58.2.05.69-.48.76-.93,1s-1.08,1.23-1.35-.22a4.57,4.57,0,0,0-1.8.16,3,3,0,0,0-1.15,1c-.15.19-.11.55-.18,1l-2.27.31.44-.68a13.29,13.29,0,0,1-3.19.18c-2.26-.47-3.5,1-4.93,2.17-.71.58-1.39,1.18-2,1.68a5.69,5.69,0,0,0,.93,1,1.1,1.1,0,0,0,.8,0c.34-.07.76-.47.93-.37.37.21.9.72.84,1-.34,1.56-.1,3.27-1.08,4.68s-1.75,2.56-2.64,3.83a1.5,1.5,0,0,1-2.08.38c-.44.65-1.33.88-1.4,1.95,0,.45-.89.84-1,1.27a23,23,0,0,1,1,2.79c.33,1.51-1.1,1.41-2.06,2,.08-1,.17-1.82.19-2.68,0-.23-.25-.66-.35-.64-1.18.12-.59-.57-.49-1a1.71,1.71,0,0,1,.17-.39,1.47,1.47,0,0,0-2,.22c-.06.08-.11.16-.16.24l-.29-.2.43-1.51c-.92-.2-1.18.71-1.74,1.09-.15.09-.24.29-.39.38a3.12,3.12,0,0,1-.59.19c.15.22.28.45.43.66s.36.51.41.57h2.45l-2.22,1.92c.59,1.43,1.06,2.6,1.55,3.78l-.76.68,1.11.16c-.49.95-1,1.9-1.45,2.85a11.4,11.4,0,0,1-1.16,2.11c-.6.69-1,1.61-2.2,1.72a6,6,0,0,0-2.16.89c-.33.17-.55.56-.89.93l-.13-.9a2.2,2.2,0,0,0-2.4,1.64c-.31,1.51.88,2.41,1.7,3.32l1.36-.35.16.23a11.71,11.71,0,0,0-.76,1,1.18,1.18,0,0,0-.28.62c.09,1.38.19,2.66-1.48,3.35-.46.19-.67,1-1.21,1.45v-1l-2.78-3.26a1.82,1.82,0,0,0-.31.47,6.53,6.53,0,0,1-.19,1.16c-.67,1.38.24,2.55.49,3.78.11.51.92.83,1.22,1.35a7,7,0,0,1,.6,1.77,8.32,8.32,0,0,1,.29,2.27,7.3,7.3,0,0,1-1.58-1.51,9,9,0,0,1-.58-2.16,3.28,3.28,0,0,0-.48-1.27,3.77,3.77,0,0,1-.68-3.45c.34-1.94-.58-3.67-.84-5.63-.65.55-.84,1.52-1.92,1,.68-1.51-.2-2.7-1-3.92a5.18,5.18,0,0,1-.52-1.57c-.76.16-1.51.28-2.2.47-.26.07-.65.24-.69.42-.27,1.44-1.65,2-2.35,3.09-.46.72-1.23,1.21-1.7,1.91a2.51,2.51,0,0,0-.18,1.43,7.5,7.5,0,0,1-1.78,5.4,32.67,32.67,0,0,1-2-6.19c-.53-2.09-.82-4.25-1.17-6.09l-.75.92-1.52-1.28.65-.26c-.76-.83-1.48-1.67-2.27-2.55-1.23,0-2.59.07-4,0s-1.43-.23-1.89-1.4a2.53,2.53,0,0,1-3.52-1.41,5.31,5.31,0,0,0-.23-.55c-.64-1.22-.83-1.24-1.73-.24l1.69,3.62.38-.92c.12.51.18.76.22.95l.18,1.05c.55-.11,1.23.41,1.65-.43a9.84,9.84,0,0,1,1.11-1.44,6.23,6.23,0,0,0,.15,1.29,1.4,1.4,0,0,0,.63.8c1.51.76,1.7,1.8.59,3a4.49,4.49,0,0,0-.47.75c-.14.25-.27.51-.43.76a6.91,6.91,0,0,1-2.27,1.86c-1,.57-1.75,1.41-2.68,2a28.86,28.86,0,0,1-2.74,1.47c-.52.26-.76,0-.87-.52-.28-1.61-.26-3.29-1.24-4.71a12,12,0,0,1-1-1.48c-.22-.44-.29-1-.47-1.43-.25-.66-.51-1.31-.76-2s-.71-1.58-1.1-2.36c-.22-.46-.5-.89-.69-1.24l-1.44.43-.09-.28.76-.57-1.52-1.57c.19-.11.55-.5.92-.52.95,0,1.24-.59,1.41-1.35.28-1.18.54-2.36.88-3.85l-1.63.76s-.06,0-.09,0c-.64-.16-1.58-.66-1.86-.41-.9.79-1.34-.12-1.86-.36s-.63-.85-.93-1.28l.14-1.83c-.65-.38-.63-.36-1.38.32-.15.13-.56,0-1,0a9.48,9.48,0,0,1,.76,1.25,1.36,1.36,0,0,1,.1.91,8.7,8.7,0,0,1-.76,1.37c-.67-1.51-2-2.71-2-4.64,0-.43-.61-1-1.07-1.24-.76-.45-1.55-.76-1.8-1.69,0-.1-.36-.09-.46-.2a2.83,2.83,0,0,1-.33-.62c-1,.25-1.09.71-.39,1.56.29.34.46.76.76,1.13a1.41,1.41,0,0,0,.65.57c.91.2,1.33,1,2,1.52.05,0,0,.17.08.36l-1.19-.51.34,1.2-.76,1c.45-1.68-.75-2.23-1.82-3a10.72,10.72,0,0,1-1.59-1.71c-.3-.34-.56-.71-.84-1a8.41,8.41,0,0,0-1.12.75,1.2,1.2,0,0,1-1.51.27c-.57-.23-1.19-.29-1.14.75,0,.33-.44.71-.72,1-.41.48-.91.9-1.28,1.4-.14.21,0,.59,0,1.13-.48,1.38-2,1.61-3.62,2l-.62-.83-1.06.12c-1.05-1.74.42-3.6-.46-5.38,1.52-.94,3.14-.2,4.74-.32.11-.89.76-1.82,0-2.69a19.22,19.22,0,0,1-1.77-2l1.9.08-.11-.9a1.58,1.58,0,0,0,2.1-.74l0-.08c.11-.2.37-.31.55-.48l1.67-1.66,2.14-.85a4.69,4.69,0,0,0-.06-.92C190.88,123.11,190.87,123.12,192.31,122.33Z" fill="#68e1fd"/><path d="M108.78,134.48h1.12a3.42,3.42,0,0,0-2-1.79,5.56,5.56,0,0,1-2.74-3.17c-.15-.34-.67-.52-1-.76l-.24.7c-.38-.89-1.51-1.25-.65-2.32,0-.06-.55-.9-.76-.86a3.24,3.24,0,0,1-2.34-.75,5.52,5.52,0,0,0-1.51-.52c-1.19-.24-2.38-.44-3.65-.66l.13.55-2.54.65.19-1.33-1.51,1.25c.29.58-2.12,2.62-3.63,3l.51.48,0,.3c-1.16-1-2.12,0-3.26,0l1.61-.86a10.86,10.86,0,0,0,1.72-.91A10.13,10.13,0,0,0,89.57,126h-2.9l-.22-1.18c-1.58,1.13-1.51-.75-2.26-1.07.42-1.6,1.89-1.37,3-1.76l-.19-.87c-1.71.16-2.1.68-4-.76.4-.12.75-.23,1.11-.37s.69-.35,1-.52c.62.76,1.12.8,2,.18l-3.7-1.46c.55-.22.89-.33,1.21-.48s.82-.46,1.25-.64c.84-.34,1.68-.66,2.54-.94a7.88,7.88,0,0,1,4.17.17,31.74,31.74,0,0,0,3.36.4,19.5,19.5,0,0,1,5.09,1,5.7,5.7,0,0,0,1.16.17c0-1.33,1-.26,1.47-.63a3.18,3.18,0,0,1,1.91-.37l-2.06.84.12.28,3.22-1.38,1.06.94.76-.6.39.66c.49-.81,1.16-.54,1.87-.37,1,.24,1.94.36,2.92.55.31.06.6.16,1,.29l-.62.48,0,.24a14.85,14.85,0,0,1,2.31-.14,10.7,10.7,0,0,1,2,.52l-.1-.76c.75,0,1.41,0,2.08,0,1.25.09,2.48.63,3.78-.16.25-.15.9.35,1.51.59l1.13-.89-1.69-1.28c-.14-.66.17-1.21,1-1.28.71-.06,1.6,1,1.52,1.74l1.08.19-.12,1.09.93-1.09,1,2.11,1.62-2.27,1.72.31v1.66l.22.27-1.63.35.53.85-1.87-1c.22.89-.23,1.08-.8,1a7,7,0,0,0-1.65-.22l2.21.65-1.63.76a2,2,0,0,0-.64.42c-.83,1-2.54,1.43-2.45,3.16a1,1,0,0,0,.42.76c.82.19.89.76.84,1.51,1.07-.59,1.86,0,2.75.5a27.87,27.87,0,0,0,3.29,1.26c.08.68-.05,1.76.95,2.39.21.12.56.37.61.32.26-.25.63-.59.62-.88a8.38,8.38,0,0,0-.42-1.71c.57-.49,1.51-.91,1.62-1.52s-.54-1.33-.91-2.11c.93-.66,0-1.67.11-2.69,1.81-.5,3.39.42,5,1.26a1.31,1.31,0,0,0,.65,1.74,1.1,1.1,0,0,0,.34.1c1.2.31,1.34-.94,1.83-1.64.52.76,1.06,1.37,1.51,2.09.25.43.15,1.14.47,1.43a12.15,12.15,0,0,0,2.11,1.31l-.56.37a5.3,5.3,0,0,1,1.29.32,1.41,1.41,0,0,1,.52.9,1,1,0,0,1-.5.71c-1.47.71-2.85,1.64-4.69,1.22-1.18-.27-2,.8-2.79,1.57a15.8,15.8,0,0,1,1.48-.6,3.19,3.19,0,0,1,1.15-.09c.1,0,.27.51.2.57-.76.71-.48,1.27.21,1.77.93.67,1.26.59,1.89-.33a.42.42,0,0,1,.36-.22l-.24.81.43-.25.16.26-3.44,1.84-.25-.06.71-1.51a29.34,29.34,0,0,0-3.25,1.68c-.26.18-.14.93-.19,1.42l.28.13a5.42,5.42,0,0,1-1,.21c-.83,0-1.32.23-1.41,1.22a5.26,5.26,0,0,1-.93,1.7l-.38-1.45a9.65,9.65,0,0,0,0,1.7c.39,1.73.3,2-1.21,2.85-.89.52-1.92,2.08-1.76,2.75.22.93.55,1.84.75,2.77a6,6,0,0,1-.08,1.52l-.49.06-1.51-4-.84.36c-.75-1.26-1.81-.46-2.77-.5l.41.92c-.87-.18-1.56-.29-2.27-.47-.52-.14-.92-.14-1.23.4-.16.26-.52.4-.76.62s-.57.43-.58.66c-.05,1.66-.07,3.33,0,5a2.86,2.86,0,0,0,.6,1.51c.33.41.94.95,1.34.88.76-.13,1.8.07,2-1.19s.67-1.51,2.17-1.28l-1.05,4.53a10,10,0,0,0,1.45-.07c1.27-.16,1.79.42,1.61,1.65-.22,1.51-.48,3.15,1.3,4.08,1.44-.7,1.42-.69,2.58.51a5.63,5.63,0,0,0,1,.66c.35-2,2-2.51,3.49-3.41-.12.82-.63,1.59-.12,2.37l.75-2c.8.38,1.46.7,2.12,1a3.45,3.45,0,0,0,2.2,0c.7-.15,1.07.62,1.6,1a4.61,4.61,0,0,1,.48.51,7.05,7.05,0,0,0,1,1,3.42,3.42,0,0,0,1.51.75c1.87.11,2.76.61,3.22,2.41a3.61,3.61,0,0,0,3.15,2.76c.65.15,1,.35.84,1,1.51,0,3-.3,4.11,1.15.1.12.26.28.4.29a1.69,1.69,0,0,1,1.6,1.77s0,.08,0,.12a4.86,4.86,0,0,1-1.17,2.27c-.47.69-1,1.22-1.44,1.84a.84.84,0,0,0-.08.38,28.79,28.79,0,0,1-.41,3.59,10.68,10.68,0,0,1-1.13,2.42c-.09.18-.35.27-.55.36-.93.35-1.89.62-2.79,1a2,2,0,0,0-1.14,1.91,8.64,8.64,0,0,1-1,2.46c-.13.31-.29.59-.5,1l-.17-.95c-1,1.92-1.76,4.08-4.49,2.26.35.62.61,1,.82,1.46a1.17,1.17,0,0,1-.41,1.61,1.31,1.31,0,0,1-.43.16c-.71.2-1.47.28-2.23.43.1,1.39-.21,1.63-1.84,1.15.76,1.8-.21,2.85-1.66,3.68a4.9,4.9,0,0,0,.66.56c.76.42.76.55.08,1.15-.5.44-1.2.9-1.31,1.44a3.08,3.08,0,0,0,.51,2.06c.3.46,1,.66,1.65,1.06a9.67,9.67,0,0,1-3,.23,5.79,5.79,0,0,1-2.69-1.6A4.55,4.55,0,0,1,139,208c-.14-.77-.24-1.57.76-2l-.76-.1.85-2.15h.2l.16.88h.13l.38-2.27c-.93-.1-.93-.65-.6-1.32.05-.11.23-.26.2-.32-.65-1.42.63-2.39.82-3.6s.24-2.37.4-3.55c.2-1.51.48-3,.67-4.58a7.61,7.61,0,0,0,.05-2.65,2.52,2.52,0,0,0-1.37-1.51c-2-.69-2.49-2.46-3.25-4-.61-1.24-.91-2.59-2-3.6a1.09,1.09,0,0,1,0-1.54l.08-.07a3.47,3.47,0,0,0,.56-.76c-.71-.23-.9-.72-.56-1.32a16.29,16.29,0,0,1,1.51-2.33c.89-1.08.84-1.94-.16-2.78a4.88,4.88,0,0,1-.84-1.4l-.37-.71h-.3l-.56,1.39-.55-.4a1.89,1.89,0,0,0-.6-.35c-.42-.1-.86-.11-.83-.72a.16.16,0,0,0-.06-.08c-1-.26-1.09-1.15-1.41-1.92a2.74,2.74,0,0,0-2.05-1.63,3.58,3.58,0,0,1-2-1.51c-.41-.5-.83-.82-1.51-.34a1.16,1.16,0,0,1-1,0c-1.45-.84-2.89-1.71-4.29-2.63a1.25,1.25,0,0,1-.5-1,3.24,3.24,0,0,0-.75-2.65c-.71-1-1.51-2-2.13-3s-1-1.9-1.52-2.81c-.19-.31-.63-.48-1-.75l-.29.21.94,1.93c.57,1.12,1.15,2.23,1.73,3.35.12.23.28.45.39.7s.23.63.35.94l-.41.17a21.22,21.22,0,0,0-1.35-2.59,5.27,5.27,0,0,0-1.29-1.11c0-.59.19-1.05,0-1.18-1-.92-1.18-2.26-1.74-3.39-.15-.28-.37-.65-.63-.72-1.51-.38-1.72-1.79-2.37-2.85a6.5,6.5,0,0,1-.75-1.46,9.6,9.6,0,0,1-.3-4A20.09,20.09,0,0,0,108.78,134.48Z" fill="#68e1fd"/><path d="M198.13,197.34a1.67,1.67,0,0,1-.93-1.8,3.3,3.3,0,0,0-1-2.21,5.14,5.14,0,0,1-1.26-3.47,7,7,0,0,0-1.28-3.35c-1-1.71-.33-3.2.38-4.66.32-.65.62-1.12.13-1.77a1,1,0,0,1-.14-.57,5.29,5.29,0,0,0-1.41-4,3.56,3.56,0,0,1-.75-3.91,2,2,0,0,0-.27-1.42,1.28,1.28,0,0,0-1-.37c-.75.07-1.22.1-1.51-.75s-1.21-.59-1.87-.44-1.28.48-1.94.69a4.37,4.37,0,0,1-.95.15,13,13,0,0,0-2.48.24,1.43,1.43,0,0,1-1.51-.22,26.15,26.15,0,0,1-2.27-1.92,22.6,22.6,0,0,1-1.72-2.5c-.13-.17-.35-.28-.49-.45s-.37-.4-.39-.62a7.71,7.71,0,0,1,.25-3,3.13,3.13,0,0,0-.06-2.31c-.63-1,0-1.57.34-2.27a31.18,31.18,0,0,1,1.61-2.8,1.09,1.09,0,0,1,.6-.43c1-.29,1.62-.75,1.6-1.93a2,2,0,0,1,1.12-1.82,7.58,7.58,0,0,0,1.51-1.59c1.08.87,2.27.43,3.44-.06a9.54,9.54,0,0,1,2.34-.63c1.13-.13,2.27-.21,3.41-.23a7.14,7.14,0,0,1,1.3.18c-.22.68-.44,1.32-.69,2.08.52,1,1.8.47,2.73.88.11.05.34,0,.35.05.22,1.17,1.4.89,2.07,1.38s.9.11.95-.55a1.11,1.11,0,0,1,1.12-1.1,1.21,1.21,0,0,1,.56.16,26.28,26.28,0,0,0,3,1.05,3.23,3.23,0,0,0,1.57-.12c.68-.19,1.17-.26,1.46.6a29.44,29.44,0,0,0,1.39,3.44c.41.91,1.25,1.73,1.35,2.64.15,1.52,1.13,2.52,1.56,3.83a2.8,2.8,0,0,0,.69,1c.52.53,1.15,1,1.62,1.56.26.31.23.84.45,1.2a.8.8,0,0,0,.71.34c1.29-.28,2.57-.63,4-1a6.68,6.68,0,0,1-.38,1.89c-1,2-2,4-3.87,5.56-1.42,1.16-2.32,3-3.43,4.54-.11.13-.14.49-.06.56.69.57.26,1.31.37,2s.5,1.12.6,1.71a7.43,7.43,0,0,1,.13,2.62c-.12.57-.76,1.07-1.23,1.51-.75.7-1.51,1.3-2.27,2-.11.1-.08.42,0,.61.09.35.25.68.36,1a1.52,1.52,0,0,1-.84,2l-.06,0a6.86,6.86,0,0,0-.76.42,3.28,3.28,0,0,1-.11,1.51c-1.13,1.81-2.27,3.72-4.46,4.36a16.27,16.27,0,0,1-2.7.28A4.89,4.89,0,0,0,198.13,197.34Z" fill="#68e1fd"/><path d="M150.87,117.82l-1.06-.85,2.36-1.21v-1l-2-.76.05-.3,2.06.3-1.61-1.13c-1,.57-1.26.35-1.29-1.1h.67c-.43-.62-.79-1.21-1.23-1.75a4.42,4.42,0,0,0-4.89-1.77,3,3,0,0,1-1.15.17c-.4-.08-1.14.37-1.18-.6,0-.12-.76-.21-1.22-.31v-.34l2-.12-3.37-1a3.87,3.87,0,0,1,.75-.41c1-.16,2-.25,2.95-.44.57-.12,1.32-.12,1.32-1.08h-1.43l-.06-.35,3.27-.84,0-.61c.09,0,.15-.07.21-.05.93.34,1.71-.38,2.61-.39a1.83,1.83,0,0,1,1.39.57c.25.22.76-.81,1.43-.22.13.11.45,0,.76,0l-.38-.65,3.41.87.08-.3a3.46,3.46,0,0,1-.83-.2.7.7,0,0,1-.38-.46.58.58,0,0,1,.41-.39c.87-.09,1.73-.1,2.59-.17a16.46,16.46,0,0,1,1.82-.23c2.4,0,4.79,0,7.18.2a16.63,16.63,0,0,1,3.19.83l-2.57.43v.41h.71a11.2,11.2,0,0,0,1.27-.14l-.51.81a24,24,0,0,0,3.25-.65,4.39,4.39,0,0,1,3.63.23c-2.06,1-4.31,1.62-5.63,3.6a4.25,4.25,0,0,1,1.42.11c.29.13.44.6.7,1l-1.43.09c-.09.59,1.42,1,.28,1.76l.65.68-1.48.21.67.76h-2.27c-.44.59-.36,1.06.5,1.39a1.43,1.43,0,0,1,1,1.77v0l-2-.83-.67.82,2.5.25a13,13,0,0,1-5.71,2.14c-.35,0-.76.44-1,.76a3.64,3.64,0,0,1-3.47,1.86c-.21,0-.68.51-.68.76a1.9,1.9,0,0,1-1,2c-.1,0-.15.23-.18.37-.17.72-.38,1.44-.5,2.17s-.54.55-1,.35a14.51,14.51,0,0,1-1.71-.75,2.52,2.52,0,0,1-.94-.92c-.82-1.51-1.58-3-2.32-4.53A2.23,2.23,0,0,1,150.87,117.82Z" fill="#68e1fd"/><path d="M275.47,182.68a4.94,4.94,0,0,1,.9.87,2.75,2.75,0,0,1,.48,1.36c-.06,1.1.75,1.51,1.41,2.07a1.93,1.93,0,0,1,.33.31,3.73,3.73,0,0,0,1.11,1.41,6,6,0,0,1,1.64,2.57,4.71,4.71,0,0,1-.44,4.16,12.13,12.13,0,0,0-1.57,3.62c-.07.34-2.44,1-2.78.88-.17-.08-.33-.19-.51-.29a2.11,2.11,0,0,1-2.92-.68,1.85,1.85,0,0,1-.21-.45,8,8,0,0,0-1-1.39l-.37.26.28-1.47-1.34,1.51c-.41-.69-.66-1.51-1.21-1.87a3.9,3.9,0,0,0-2.32-.49,9.26,9.26,0,0,0-3.17.88,3.88,3.88,0,0,1-2.35.76,3.21,3.21,0,0,0-1.72.59,1.33,1.33,0,0,1-1.78-.2,1,1,0,0,1-.16-.76c0-.44.25-.9.16-1.3a21.57,21.57,0,0,0-.87-2.49c-.16-.44-.47-.86,0-1.32.07-.07-.14-.39-.16-.6-.08-.69-.41-1.58-.1-2,.41-.59,1.33-.81,2-1.21,1-.58,2.57-.15,3-1.66a6.38,6.38,0,0,1,.15-.66,4,4,0,0,1,.38-.54l.36.28a17.76,17.76,0,0,1,1.62-1.84c.68-.61,1.1-.23,1.35.82a12.83,12.83,0,0,1,1.12-1.51,12.12,12.12,0,0,1,1.28-.88,3,3,0,0,0,.43-.45l2.59.62h0c-1,1.52-1,1.52.51,2.64l.85.58,1.09.69c.17-1,.32-1.8.46-2.61s.26-1.64.39-2.47h.33Z" fill="#68e1fd"/><path d="M137.42,115.86c.1-1.13-1-1.09-1.51-1.64-.26.6-.43,1.24-1.16.57-.15-.14-.5,0-.76-.07-1.21-.14-2.43-.26-3.64-.44-.23,0-.44-.26-.75-.44l1.09-.35c-1-.19-1.91-.26-1.46-1.4a2.08,2.08,0,0,1,2.61-1.32c-.21.47-.62,1-.58,1.4s.51.89.85,1.3c-.34-2.1-.16-2.46,1.34-2.67.75-.1,1.11.34,1.19,1.65a3.55,3.55,0,0,1,4,.25,2.64,2.64,0,0,0,1,.26h.29a13.5,13.5,0,0,1,2,1.07,9.2,9.2,0,0,1,1.24,1.4l-.89.18-.11.22,4,2.15-1.51,1.91-2-1.73-.39.93c.76.7,2.14,1.2,1.84,3l-1.13-.12.49,1.17c-1.4-.58-2.78-.62-3.68-1.87a2.09,2.09,0,0,0-2.26-.76,3,3,0,0,1-1.11-.18c.06-.31.11-.62.18-.92a1.5,1.5,0,0,1,.22-.54,2,2,0,0,1,.65-.59c.1,0,.35.22.52.34l-.65.84,1.43-.15V119l-.48-.17c.23-.75,1.65-.81,1.16-1.92A1.81,1.81,0,0,0,137.42,115.86Z" fill="#68e1fd"/><path d="M131,103.49c-.92.53-1.76-.38-2.78-1.12a26.28,26.28,0,0,1,4.25-.43,13.13,13.13,0,0,0,3.78-.68,10.54,10.54,0,0,1,2.86-.11c1.75,0,3.5.11,5.25.24a7.75,7.75,0,0,1,1.61.52c-.37.21-.69.4-1,.55q-2.28,1-4.62,1.93a4.59,4.59,0,0,1-1,.3,1.82,1.82,0,0,0-1.65,1.59l-2.19.9.95.55c-.82.11-1.46.86-2.23.07-.07-.08-.37,0-.56.07a9.69,9.69,0,0,1-4.54-.19l1.51-.44-.19-.5,1.38.11.09-.23-1.19-.56c.7-1.1,1.7-.17,2.59-.39l-2.14-1.28.26-.22c1.28.5,2.45-.26,3.78-.28C134,103,132.56,104.1,131,103.49Z" fill="#68e1fd"/><path d="M113.06,114.44l2.75-.17v-.18c-.56,0-1.13-.12-1.7-.14s-1.12,0-1.68,0v-.32l1.15-.43-1.57-.38c.54-1.26,1.66-1.43,2.9-1.61l-.06.68h.32c.52-.5,1-.32,1.44.09s.67-.75,1.15-.15a4.14,4.14,0,0,0,1,1l-.36-1.58h1.45a8.36,8.36,0,0,0,1,2.27c.46.56,1.3.81,1.89,1.39l-.91.08.41.76a5.43,5.43,0,0,1-1.61,0c-1.24-.46-2.27,0-3.44.35-.61.18-1.51.52-2-.5-.06-.13-.4-.14-.61-.2l-1.59-.45Z" fill="#68e1fd"/><path d="M278,177.4l-.75.54,2.26,2.36a3.1,3.1,0,0,1-2.54-1.39,1,1,0,0,0-1.84.08.83.83,0,0,1-1.06.5.75.75,0,0,1-.3-.18c-.61-.71-1.26-.68-2.27-.37l.82-1.14a1.91,1.91,0,0,0-1.45-1.51,14.28,14.28,0,0,1-2.11-.65c-.22-.09-.34-.43-.54-.68l.75-.34-1.9-.91a7.5,7.5,0,0,1,1.22-.47.87.87,0,0,1,1.1.56.83.83,0,0,1,0,.15,13.32,13.32,0,0,0,.47,1.34l.31.05a3.26,3.26,0,0,1,.47-.62c.6-.51,1.1-1,2-.28.71.54,1.84.52,2.65,1A22.43,22.43,0,0,1,278,177.4Z" fill="#68e1fd"/><path d="M253.94,171.47l.94.31,4-3.78,1.19,1.2c-1.17,1.11-1.22,1.87-.13,3-.86.34-1.56,1.87-1.52,3.48l-3.78-.75C254.48,173.88,253.45,172.9,253.94,171.47Z" fill="#68e1fd"/><path d="M213.45,184.21c2,.09,2.09-1.72,3.2-2.55a1.73,1.73,0,0,1,.31,2.27c-.09.12-.06.3-.1.45-.53,1.9-1,3.78-1.61,5.69a1.13,1.13,0,0,1-1.42.68,1.3,1.3,0,0,1-.38-.22,2.75,2.75,0,0,1-.34-2.7,5.58,5.58,0,0,0,.32-1.76C213.49,185.45,213.45,184.87,213.45,184.21Z" fill="#68e1fd"/><path d="M183.84,127.75l-.83-.25v-1.18c0-.14.22-.38.25-.36.5.21.76-.15.7-.47s-.54-.51-.85-.76c-.07,0-.19,0-.36,0l.12-.61c-.86-.82-1.19-1.43-1-1.75.5-.7,1.59-1.13,2.07-.82.76.49.76.88.22,1.91l2.15,3a1,1,0,0,1,.52.24c.09.11-.15.47-.23.71l-.33.9-3.94.63Z" fill="#68e1fd"/><path d="M251.8,177l-1.12-.09c-.86-1.22-1.82-2.61-2.79-4s-1.86-2.6-2.88-4c2.05.23,2.82,1.85,4.1,2.77a8,8,0,0,1,2.07,2.55c.15.25.61.33.88.47l-.29,2.33Z" fill="#68e1fd"/><path d="M221.81,110.88c-1.64.06-3-.08-4-1.1a25.31,25.31,0,0,0,2.37-2.26,5.33,5.33,0,0,1,3.12-1.52c1.21-.23,2.43-.41,3.66-.52a15.94,15.94,0,0,0,1.64-.45l.17.37a3.22,3.22,0,0,1-.87.48,21.65,21.65,0,0,0-3.39.68,8.72,8.72,0,0,0-3.78,2.57c-.15.18,0,.76.15,1A4.06,4.06,0,0,0,221.81,110.88Z" fill="#68e1fd"/><path d="M169.58,121l-1.41-.41,1.27-.67H168l-.14-.17,1.31-.76-.11-.32.75,1,3-.75.07-.33a6.93,6.93,0,0,1,1.43,1.38c.41.75-.46,1-.84,1.28a4.66,4.66,0,0,1-1.7.8,2.36,2.36,0,0,1-1.18,0,17.23,17.23,0,0,1-1.74-.53Z" fill="#68e1fd"/><path d="M270,142.45l-2.4.6c.72-1.19,1.1-1.37,2.92-1.37.15-.26.31-.53.45-.82a5.11,5.11,0,0,0,.21-.53,2.38,2.38,0,0,0,.91-.08c.35-.76.63-1.52.92-2.27.18-.49,0-1.23.92-1.2a2.26,2.26,0,0,1,0,2.54,3.28,3.28,0,0,0-.31,1.9c.12,1.05-.82,1.05-1.26,1.17-.82.22-1.51.43-1.75,1.37l-.3,0Z" fill="#68e1fd"/><path d="M108.65,109.94a15.14,15.14,0,0,1,5.38.83l-2.45,1.52c-.73.46-1.26.89-1.77,1.24l-1.7-1.11C108.27,111.76,109.27,111.15,108.65,109.94Z" fill="#68e1fd"/><path d="M127,105.55l.53-.45-2.12-.41c.4-1.08.9-1.7,1.94-1.51a4,4,0,0,1,.75.28,2.42,2.42,0,0,0,.91.21c.42.43.76,1.06,1.44.48l.92.76C130.26,106.37,128.94,106.59,127,105.55Z" fill="#68e1fd"/><path d="M192.75,102.77l3.21.28-.33-.76,5.39,2.16v.35h-1.91c-.12-.27-.16-.57-.32-.69a.79.79,0,0,0-.67,0c-.57.39-1.09.85-1.75,1.36l-1.51-.39.65-.34-1-.08,0-.18,1.21-.43v-.25a4.17,4.17,0,0,1-1.57.21,5,5,0,0,1-1.38-.93Z" fill="#68e1fd"/><path d="M127.66,108l.76-.21v.53c2.2,1.51,4.62,0,6.92.76a1.46,1.46,0,0,1-1.85.92l-.17-.06a4.15,4.15,0,0,0-.93,0c-1.34,0-2.69,0-4-.13-.22,0-.47-.44-.59-.75A4.65,4.65,0,0,1,127.66,108Z" fill="#68e1fd"/><path d="M113.86,108.82l-.3.06h-.26c-.09,0,0-.15,0-.19,1-1.24,2-.49,3-.13.45.16.88.32,1.51.58l-.53-1.2.63-.42c.09.07.19.12.22.18.22.54.37,1.13,1.19.69.11-.07.53.18.59.34a.8.8,0,0,1-.31.62c-1.52.27-3,.5-4.54.75-.06,0-.14-.11-.34-.29l1.51-.39v-.23l-3.36.28,0-.15,1-.37Z" fill="#68e1fd"/><path d="M289.46,205.11l4.16-3.61a2.67,2.67,0,0,1,.51.31c.14.12.3.47.25.52-.45.48-.48,1.32-1.29,1.51a.87.87,0,0,0-.47.33C291.45,205.77,291.45,205.77,289.46,205.11Z" fill="#68e1fd"/><path d="M261.72,174.29l.75,1.61-.64.46-.76-1.51c0,1.66,0,1.76-.56,2.13-.13-.61-.27-1.22-.4-1.84l-.21.06c.32-1,.63-2.09,1-3.17,1-.14,2.12.95,3-.47-.32,1.05-.43,1.12-1.26,1.07a3.94,3.94,0,0,0-1.37,0c-.89.29-.31.76-.12,1.15l1.59-.54.09.22Z" fill="#68e1fd"/><path d="M179.64,127.11V125.6a9.56,9.56,0,0,0,1-1c.52-.6,1.06-.18,1.51,0s.39.61-.08.89a.46.46,0,0,0-.1.32c0,.37.1,1-.07,1.07a9.49,9.49,0,0,1-2.07.75c-.13,0-.34-.25-.51-.39Z" fill="#68e1fd"/><path d="M125,110.87l-.66.54,1,.42c.29,1-.75,1-1.16,1.39-.08.07-.54-.29-.83-.46l-1.66-1,.08-.3,1.45.25-.76-.8A1.91,1.91,0,0,1,125,110.87Z" fill="#68e1fd"/><path d="M275.68,129.68l-.82,0c.09.86.18,1.69.27,2.46h-.83c.54-2.27-.71-4.7.59-7.21C275.17,126.65,275.42,128.16,275.68,129.68Z" fill="#68e1fd"/><path d="M251.77,177.05a11.18,11.18,0,0,0,1.72.46c.94.1,1.89.1,2.84.15a1,1,0,0,1,.65.18l-.56.29,1.47.6V179a15.55,15.55,0,0,1-2.2-.14,29.66,29.66,0,0,1-3.37-.71.76.76,0,0,1-.56-.92.52.52,0,0,1,.06-.16Z" fill="#68e1fd"/><path d="M273.75,135.64l-.44,1c-.4-1.23-.21-1.63.62-1.66l.29-2.07c.76.45.93,1.67,2.08,1.28l.19.86-1.6.93Z" fill="#68e1fd"/><path d="M273.31,107.15a11.05,11.05,0,0,1-1.51-.16c-.16,0-.41-.37-.37-.52s.3-.35.5-.49a.47.47,0,0,1,.38-.08c1.13.43,2.27,0,3.39.08.21,0,.41.28.62.42-.19.18-.35.47-.56.5C275,107,274.14,107.08,273.31,107.15Z" fill="#68e1fd"/><path d="M297.18,199.36a4.94,4.94,0,0,1-.39.76c-.47.64-1,1.26-1.47,1.87a.16.16,0,0,1-.22,0,.17.17,0,0,1,0-.14c-.24-.49-.49-1-.7-1.39l.63-1.67c.65-.29,1.12,1.56,2.13.27Z" fill="#68e1fd"/><path d="M122.13,108.51l-.07-.61,1.14.61-.28-.66a5.09,5.09,0,0,1,1.35,0c.17,0,.37.5.33.75s-.26.89-.48.93-.75-.23-1.13-.35-.54-.12-.8-.19a4.71,4.71,0,0,1-.83-.26,5.78,5.78,0,0,1-.75-.55c.12-.14.3-.39.34-.37a6.45,6.45,0,0,1,.82.54,1.12,1.12,0,0,1,.16.22Z" fill="#68e1fd"/><path d="M132.92,157.85a2.4,2.4,0,0,1,3-1c1.19.59,2.35,1.27,3.67,2l-1.82.21c-.4-.47-.64-1-1-1.16a6.5,6.5,0,0,0-2.26-.76C134,157.08,133.52,157.55,132.92,157.85Z" fill="#68e1fd"/><path d="M260.82,159.77c1.36.4,1.58,1,1.06,1.79s-.32,1.13.63,1.32a8.09,8.09,0,0,1,.83.28l-.32.71c-.62-.59-1.65-.46-2.27-1.29C260.06,161.54,261.49,160.87,260.82,159.77Z" fill="#68e1fd"/><path d="M128.84,110.62a1.29,1.29,0,0,1-1.41,1.18h0c-.13,0-.35.06-.36.11-.12.75-.69.5-.85.2s-.34-1.11-.12-1.37a2.19,2.19,0,0,1,1.42-.39A6,6,0,0,1,128.84,110.62Z" fill="#68e1fd"/><path d="M264.05,168.08l.14.71-.27.17-1.08-1.4-.81.17-.13-.21,2.55-1.44.18,2Z" fill="#68e1fd"/><path d="M246.81,102.14l-4.21,1c.05-.28,0-.65.15-.76A3.46,3.46,0,0,1,246.81,102.14Z" fill="#68e1fd"/><path d="M109.83,108.2a13.55,13.55,0,0,1,2-1,12.16,12.16,0,0,1,2.09-.35l.17.35a9.77,9.77,0,0,1-1,.89,4.19,4.19,0,0,1-.53-.38C111.86,108.51,110.17,108.83,109.83,108.2Z" fill="#68e1fd"/><path d="M139.45,159.84,141,160l-.75-.87c1.43-.38,3,.17,2.94,1.06C141.9,160.06,140.62,160.68,139.45,159.84Z" fill="#68e1fd"/><path d="M135.09,122c-.54,0-1,.19-1.21,0-.53-.46-.88-.09-1.35.07a5.46,5.46,0,0,1-1.51,0c1-1.62,1.3-1.72,2.57-1l.26.15Z" fill="#68e1fd"/><path d="M248.22,102.46l-.27,1c-2,.32-2.61.24-3.65-.63Z" fill="#68e1fd"/><path d="M202.6,102.93a24.18,24.18,0,0,1-2.95.14,7.08,7.08,0,0,1-2.11-.7h5.06Z" fill="#68e1fd"/><path d="M123.73,106.59l-3.33-.66.76-.33-1.09-.29V105c.45,0,.9.09,1.34.17a5.31,5.31,0,0,1,1.28.41,10.32,10.32,0,0,1,1.18.76Z" fill="#68e1fd"/><path d="M251.57,104.05l-3.71.3-.15-.16c.61-.36,1.19-.93,1.83-1a6.21,6.21,0,0,1,2.11.55Z" fill="#68e1fd"/><path d="M235.93,166a10.79,10.79,0,0,1,1,1.79c.08.2-.31.76-.6.86-.54.21-.75-.17-.71-.7s0-1.21,0-1.82Z" fill="#68e1fd"/><path d="M277.09,203.68l-1-2.11a8.24,8.24,0,0,1,1.72,0c.17,0,.42.61.34.8A7.23,7.23,0,0,1,277.09,203.68Z" fill="#68e1fd"/><path d="M267.16,143.19c1.07.87,1,1.92-.14,2.55l.06-1.51-.44-.26Z" fill="#68e1fd"/><path d="M220.2,101.63l2.51-.84.12.18c-.23.32-.41.85-.69.91a9.64,9.64,0,0,1-2,.05Z" fill="#68e1fd"/><path d="M191.12,137.1l.65-.26c.08.19.23.4.18.51-.23.48.29,1.39-.83,1.44Z" fill="#68e1fd"/><path d="M195.18,140.8l-1.64-1,.05-.21h1.79Z" fill="#68e1fd"/><path d="M134.61,110.68l2.46.46-.11.39C136.21,111.25,135.13,112.36,134.61,110.68Z" fill="#68e1fd"/><path d="M124.11,105.42c.8.16,1.34.25,1.89.38a.35.35,0,0,1,.13.32.52.52,0,0,1-.3.3C125.1,106.65,124.58,106.38,124.11,105.42Z" fill="#68e1fd"/><path d="M262,155.12l-.8,2.4C260.52,156.45,260.69,155.81,262,155.12Z" fill="#68e1fd"/><path d="M278.52,176.74a3.23,3.23,0,0,0,1.24,0c.34-.13.56-.54,1.05-.75a4.31,4.31,0,0,1-.53.87,1.1,1.1,0,0,1-1.54.14A1.38,1.38,0,0,1,278.52,176.74Z" fill="#68e1fd"/><path d="M125.27,109.26l1.62-.53.14,1a8.18,8.18,0,0,1-1,0,4.8,4.8,0,0,1-.76-.24Z" fill="#68e1fd"/><path d="M265.1,178.82l-2.51,1.71A2.24,2.24,0,0,1,265.1,178.82Z" fill="#68e1fd"/><path d="M124.53,116.94l1.38.83-.06.2-2.2-.19Z" fill="#68e1fd"/><path d="M125.16,107.39l2,.18c-.76.9-1.37.34-2,.07Z" fill="#68e1fd"/><path d="M115.28,106.58l2-.34C117,107.18,116.26,107.33,115.28,106.58Z" fill="#68e1fd"/><path d="M269.55,142.77c.56,1.3-.95.76-1,1.45C268.07,143.19,269.13,143.29,269.55,142.77Z" fill="#68e1fd"/><rect x="321.03" y="133.44" width="16.99" height="59.74" opacity="0.08"/><path d="M267.42,175.45H265.5c.09-.2.16-.55.25-.56C266.4,174.85,267.09,174.71,267.42,175.45Z" fill="#68e1fd"/><path d="M222.86,101.78l1.51-.12.06.46-1.52.19Z" fill="#68e1fd"/><rect x="47.85" y="58.87" width="294.87" height="11.52" fill="#ffd200"/><polygon points="86.03 159.64 96.66 159.64 96.66 230.75 52.97 230.75 52.97 160.04 86.03 159.64" opacity="0.08"/><rect x="47.85" y="246.2" width="294.87" height="11.52" fill="#ffd200"/><rect x="31.53" y="146.89" width="54.5" height="74.11" fill="#24285b"/><rect x="321.03" y="122.12" width="54.5" height="59.74" fill="#24285b"/><polygon points="52.97 188.05 58.78 168.74 64.03 188.05 58.5 208.62 52.97 188.05" fill="#fff"/><polygon points="59.13 183.15 78.44 188.96 59.13 194.21 38.56 188.68 59.13 183.15" fill="#fff"/><polygon points="54.03 184.52 58.5 188.68 58.78 168.74 54.03 184.52" fill="#68e1fd" opacity="0.54"/><polygon points="58.5 188.68 38.56 188.68 54.27 192.91 58.5 188.68" fill="#68e1fd" opacity="0.54"/><polygon points="58.5 188.68 58.5 208.62 62.73 192.91 58.5 188.68" fill="#68e1fd" opacity="0.54"/><polygon points="58.5 188.68 78.44 188.96 63.02 184.32 58.5 188.68" fill="#68e1fd" opacity="0.54"/><circle cx="194.03" cy="24.46" r="5.59" fill="#68e1fd"/><circle cx="333.48" cy="139.04" r="3.61" fill="#68e1fd"/><circle cx="333.48" cy="152.98" r="3.61" fill="#fff"/><circle cx="333.48" cy="166.92" r="3.61" fill="#ffd200"/><rect x="344.53" y="135.88" width="22" height="5.14" fill="#fff" opacity="0.2"/><rect x="344.53" y="150.41" width="22" height="5.14" fill="#fff" opacity="0.2"/><rect x="344.53" y="164.64" width="22" height="5.14" fill="#fff" opacity="0.2"/><rect x="47" y="154.33" width="23.83" height="5.3" fill="#68e1fd"/></svg>