<svg id="Layer_1" data-name="Layer 1" xmlns="http://www.w3.org/2000/svg" viewBox="0 0 400 300"><path d="M156.43,133.54s-16.21,4.82-50.54,29l-.53-.13A5.53,5.53,0,0,0,98.63,167l-1.29,8.2a3,3,0,0,0,4.52,3c8.7-5.57,28.05-16.4,61.41-27.7Z" fill="#f4a28c"/><path d="M156.43,133.54s-16.21,4.82-50.54,29l-.53-.13A5.53,5.53,0,0,0,98.63,167l-1.29,8.2a3,3,0,0,0,4.52,3c8.7-5.57,28.05-16.4,61.41-27.7Z" opacity="0.09"/><polygon points="189.98 143.4 162.52 151.16 157.81 136.49 197.32 131.95 189.98 143.4" fill="#24285b"/><ellipse cx="199.66" cy="224.4" rx="161.13" ry="32.63" fill="#e6e6e6" opacity="0.45"/><polygon points="116.05 203.56 93.78 236.26 300.44 236.26 281.65 203.56 116.05 203.56" fill="#ffd200"/><path d="M311.06,199.26s-9.68-2.64-11.78-11.64c0,0,15-3,15.41,12.44Z" fill="#68e1fd" opacity="0.58"/><path d="M312.24,198.31s-6.76-10.69-.81-20.68c0,0,11.4,7.24,6.33,20.7Z" fill="#68e1fd" opacity="0.73"/><path d="M314,198.31s3.57-11.28,14.37-13.42c0,0,2,7.33-7,13.45Z" fill="#68e1fd"/><polygon points="306.97 198.06 308.93 211.47 321.28 211.53 323.1 198.13 306.97 198.06" fill="#24285b"/><polygon points="147.05 212.87 173.31 215.85 179.89 200.12 155.05 204.86 147.05 212.87" fill="#f4a28c"/><path d="M141.43,212.79a54.65,54.65,0,0,0-9.2,3.06c-6.38,2.55-19.14.51-22.46,12.51,0,0,2.5-4.86,21.29-4s28-1.79,20.7-9.57S141.43,212.79,141.43,212.79Z" fill="#24285b"/><path d="M143.79,197.66s8-1.12,13.4-.06a4.05,4.05,0,0,1,3.17,4.79c-.57,2.72-2.14,6.22-6.35,7.34l-6.91,2.78a7.23,7.23,0,0,1-7.89-2.78C135.7,205.36,138.89,198.1,143.79,197.66Z" fill="#f4a28c"/><path d="M148.86,197.21l3-2.41a1.3,1.3,0,0,1,2.07.7l.74,3.05Z" fill="#f4a28c"/><path d="M143.51,199.36a23.55,23.55,0,0,1,1,7.68s9.1.48,12.25,7.24c0,0-12.39,8.4-18.6.88-5.19-6.31-9.68-10.91-5.29-17.23A6,6,0,0,1,143.51,199.36Z" fill="#24285b"/><path d="M149.14,206.3s-3.51.82-2.59,3.58,5.08,2.18,6.26-1.59Z" fill="#f4a28c"/><path d="M179.13,218.59s32.14,4.46,43.79-11S236,159.37,236,159.37l-42.48-8s-23.3,6-28.52,16.16S156.23,190.45,179.13,218.59Z" fill="#68e1fd"/><path d="M181.32,220.68c-13.82-2-14.77-21.75-1.19-25.05a21.2,21.2,0,0,1,2.44-.45c17.53-2.25,29.44,18.7,80.34,17.61,0,0,16-4.81,17.87,3.73C281.69,220.64,211.64,225.16,181.32,220.68Z" fill="#f4a28c"/><path d="M236,159.37l-5.12-25L190,138v15.34S213.74,161.38,236,159.37Z" fill="#f4a28c"/><path d="M230.91,134.36s-2.37-29.79-17.91-28.9-58.37,23.18-58.37,23.18l6.84,16.87Z" fill="#24285b"/><path d="M154.63,128.64s-16.22,4.82-50.54,29l-.53-.13a5.52,5.52,0,0,0-6.73,4.51l-1.3,8.2a3,3,0,0,0,4.52,3c8.71-5.56,28.05-16.4,61.42-27.7Z" fill="#f4a28c"/><path d="M190,140.94l11.52-1.85.78,17.53s-39,11.23-25.19,43.5l-6.6,6.74S152.87,184,166.75,165a51.15,51.15,0,0,1,23.19-12.66Z" opacity="0.09"/></svg>