<svg id="Layer_1" data-name="Layer 1" xmlns="http://www.w3.org/2000/svg" viewBox="0 0 400 300"><ellipse cx="195.85" cy="219.94" rx="161.13" ry="32.63" fill="#e6e6e6" opacity="0.45"/><polygon points="112.24 199.1 89.97 231.81 296.63 231.81 277.84 199.1 112.24 199.1" fill="#ffd200"/><path d="M175.82,224.76s9.22,5.39,27.12,3.6,45.8-10.22,54.31,3.45h39.37L277.84,199.1l-86.12.16Z" opacity="0.09"/><path d="M200.88,125.39c-3.17-13,10.74-24,22.24-17.27,3.29,1.93,6.12,5.23,7.84,10.58,6.89,21.41,27.35,98.28,27.35,98.28s11-2,9.82,3.7-19.83,3.68-19.83,3.68-22.47-53-37-75.46A76.94,76.94,0,0,1,200.88,125.39Z" fill="#f4a28c"/><path d="M200.88,125.39c-3.17-13,10.74-24,22.24-17.27,3.29,1.93,6.12,5.23,7.84,10.58,6.89,21.41,27.35,98.28,27.35,98.28s11-2,9.82,3.7-19.83,3.68-19.83,3.68-22.47-53-37-75.46A76.94,76.94,0,0,1,200.88,125.39Z" opacity="0.09"/><polygon points="201.37 78.29 204.11 104.51 220.85 107.53 210.89 84.36 201.37 78.29" fill="#f4a28c"/><path d="M181.83,119.16a23.48,23.48,0,0,1,19.82-18.37c5.1-.63,10.73-.55,15.71,1.32,13.28,5,35.87,18.65,32.8,32.59s-33.45,44.88-33.45,44.88l-38.08-19.23S177.29,139.62,181.83,119.16Z" fill="#68e1fd"/><path d="M215.48,71.84s2.81,7.54,2.93,13a4,4,0,0,1-4,4.12c-2.77,0-6.52-.75-8.52-4.61l-4.19-6.13a7.21,7.21,0,0,1,1-8.28C206.23,65.62,214,67.17,215.48,71.84Z" fill="#f4a28c"/><path d="M217,76.68l3,2.39a1.29,1.29,0,0,1-.23,2.16L217,82.61Z" fill="#f4a28c"/><path d="M213.76,71.93a23.39,23.39,0,0,1-7.27,2.61s1.49,9-4.41,13.48c0,0-10.86-10.26-4.86-17.92,5-6.42,8.54-11.78,15.64-8.86A6,6,0,0,1,213.76,71.93Z" fill="#24285b"/><path d="M208.21,78.91s-1.55-3.24-4-1.75-1,5.42,2.9,5.75Z" fill="#f4a28c"/><path d="M201.11,69.15s-5.57-5.27-11.48-2.46-11.23,9.44-8.35,16.7-5.61,13.69-5.61,13.69,21.65-.61,21.06-18.67Z" fill="#24285b"/><polygon points="178.63 160.35 172.71 174.07 204.69 191.66 216.71 179.58 178.63 160.35" fill="#f4a28c"/><path d="M196.84,115.19s-5.3,17.11-.49,31.44,11.38,29-.5,40.67l8.84,4.36,12-12.08,2.72-2.84Z" opacity="0.09"/><path d="M172.71,199.66S153,183.83,143.27,169.23a8.66,8.66,0,0,0-4.69-3.5c-4.11-1.22-11.13-3-13.94-1.65-4.09,1.95-3,6.75,3.94,8.3S157.91,220.88,172.71,199.66Z" fill="#f4a28c"/><path d="M172.71,199.66S153,183.83,143.27,169.23a8.66,8.66,0,0,0-4.69-3.5c-4.11-1.22-11.13-3-13.94-1.65-4.09,1.95-3,6.75,3.94,8.3S157.91,220.88,172.71,199.66Z" opacity="0.09"/><path d="M204.69,191.66s-10.27,31.55-25.21,33.06-51.32-47.55-51.32-47.55-11,.28-14.38-5.36c-2.6-4.33,12-3.34,18.83-2.64a7.86,7.86,0,0,1,5.43,3c5.13,6.51,19.13,23.17,29.32,24.5,12.68,1.67-8.46-10.17,5.35-22.58Z" fill="#f4a28c"/><path d="M167.36,196.65l-4.62,19.27s10.77,11.87,19.39,8.84,15.91-10.42,22.56-33.1l-32-17.59s-10.3,7.56-2.61,17.59C170.1,191.66,173.1,198.7,167.36,196.65Z" fill="#24285b"/><path d="M196.58,121.74C194.31,108.58,209,98.49,220,106c3.14,2.15,5.74,5.64,7.09,11.1,5.4,21.83,20.51,99.92,20.51,99.92s11.09-1.28,9.55,4.37c-.87,3.16-7,3.51-12.3,3.2a11.44,11.44,0,0,1-10.1-7.58c-5.44-15.28-19.19-52.79-29.37-71.14A76.73,76.73,0,0,1,196.58,121.74Z" fill="#f4a28c"/><path d="M307.25,194.81s-9.68-2.65-11.78-11.65c0,0,15-3,15.41,12.44Z" fill="#68e1fd" opacity="0.58"/><path d="M308.43,193.85s-6.76-10.69-.81-20.68c0,0,11.4,7.24,6.33,20.7Z" fill="#68e1fd" opacity="0.73"/><path d="M310.17,193.85s3.57-11.28,14.37-13.42c0,0,2,7.33-7,13.45Z" fill="#68e1fd"/><polygon points="303.16 193.6 305.12 207.02 317.47 207.07 319.29 193.67 303.16 193.6" fill="#24285b"/></svg>