<svg xmlns="http://www.w3.org/2000/svg" viewBox="0 0 400 300"><g id="_277_alien_flatline" data-name="#277_alien_flatline"><path d="M105.67,183.12s18.88-68,33.22-85.94,61.35.8,61.35.8,41.48-15.64,54.48-7c21.46,14.32,36.55,60.43,40.79,93.44.89,6.94-7,13.72-10.64,12.38s-32.35-52.16-32.35-52.16-13.75,21.75-15.44,33.52,2.54,52,2.54,52l-81.41,5.52s5.94-42.06,5.6-57.86-11-33.78-11-33.78-20.93,44.2-31,44.54A23.43,23.43,0,0,1,105.67,183.12Z" fill="#68e1fd"/><path d="M235.46,100.08c.59-17.78-32.22-15.1-42.66-14-6.8.74-34.27.36-30.69,13.72,3.44,12.85,19.68,19,31.49,20.32a50.79,50.79,0,0,0,33.8-8.74C231.38,108.71,235.3,104.89,235.46,100.08Z" fill="#fff"/><path d="M198.65,120.94a45.79,45.79,0,0,1-5.11-.29c-13.54-1.52-28.66-8.51-31.92-20.68a7.5,7.5,0,0,1,1-6.6c4.4-6.11,18.73-7,26.44-7.48,1.49-.09,2.78-.17,3.67-.27C217.66,82.9,228,87.05,232.28,91a11.35,11.35,0,0,1,3.68,9.07h0c-.14,4.15-2.92,8.1-8.28,11.75A52.29,52.29,0,0,1,198.65,120.94Zm8.51-35.17a131.76,131.76,0,0,0-14.31.85c-.92.1-2.22.18-3.72.27-7.54.47-21.57,1.34-25.69,7.06a6.48,6.48,0,0,0-.85,5.76c3.14,11.72,17.86,18.46,31.07,20A50.5,50.5,0,0,0,227.12,111c5.07-3.46,7.71-7.14,7.84-11a10.37,10.37,0,0,0-3.36-8.3C227.34,87.81,218.87,85.77,207.16,85.77Zm28.3,14.31h0Z" fill="#231f20"/><path d="M172.05,100.79c-1.09,2.73,1.6,5.44,4.14,6.93a44,44,0,0,0,40.6,1.71,16.21,16.21,0,0,0,5.83-4.19,7.42,7.42,0,0,0,1.59-6.76c-1.3-4-6.29-5.28-10.48-5.85-8-1.09-17.31-2.66-25.32-.63C184.25,93.06,173.62,96.91,172.05,100.79Z" fill="#231f20"/><path d="M198.15,114.12a43.9,43.9,0,0,1-22.22-6c-2.88-1.7-5.53-4.57-4.34-7.54h0c1.79-4.45,13.82-8.36,16.7-9.1,7.45-1.89,16-.7,23.51.35l2,.28c4,.54,9.47,1.77,10.9,6.19a7.93,7.93,0,0,1-1.68,7.23,17.19,17.19,0,0,1-6,4.33A43.66,43.66,0,0,1,198.15,114.12Zm-.91-22.6a35.74,35.74,0,0,0-8.71,1c-4.73,1.21-14.62,5.06-16,8.5h0c-1,2.39,1.51,4.89,3.92,6.31A43.18,43.18,0,0,0,216.57,109a16,16,0,0,0,5.67-4,7,7,0,0,0,1.5-6.3c-1.26-3.87-6.36-5-10.08-5.5l-2-.28A106.28,106.28,0,0,0,197.24,91.52Zm-25.19,9.27h0Z" fill="#231f20"/><path d="M136.15,147.08S125.48,160,118,165.4,102.78,182.73,104.72,191s3.49,12.84,15.56,9.56,24-41.65,29.7-49.43Z" fill="#fff"/><path d="M113.71,202.07a8.71,8.71,0,0,1-4.5-1.06c-2.84-1.69-3.85-5.19-5-9.95-1.94-8.23,5.55-20.34,13.49-26.06,7.33-5.28,17.93-18.11,18-18.24a.51.51,0,0,1,.53-.17l13.83,4a.5.5,0,0,1,.34.31.53.53,0,0,1-.07.46c-1.76,2.41-4.19,7.94-7,14.34-6.45,14.69-14.48,33-23,35.28A26.09,26.09,0,0,1,113.71,202.07Zm22.61-54.42c-1.54,1.84-11.16,13.22-18,18.16-7.67,5.52-14.91,17.4-13.1,25,1.1,4.66,2,7.83,4.51,9.32,2.14,1.27,5.45,1.23,10.43-.13,8-2.18,16.29-21,22.32-34.71,2.63-6,4.93-11.23,6.71-13.95Z" fill="#231f20"/><path d="M233.78,79a6.87,6.87,0,0,0-2.59-5.74c0-.09,0-.18,0-.28s19.62-39.15-31-39.15-31,39.15-31,39.15,0,.19,0,.28A6.85,6.85,0,0,0,166.71,79c0,4.68,3.06,10.65,7.63,14.25,7.45,15,21,25.32,25.9,25.32s18.46-10.32,25.91-25.32C230.72,89.62,233.78,83.65,233.78,79Z" fill="#fff"/><path d="M200.24,119c-5.35,0-19-10.94-26.29-25.5-4.57-3.63-7.74-9.61-7.74-14.57a7.41,7.41,0,0,1,2.56-6c-.8-1.68-7.47-16.58-.68-27.58,5-8.06,15.79-12.14,32.15-12.14s27.18,4.08,32.16,12.14c6.79,11,.12,25.9-.68,27.58a7.41,7.41,0,0,1,2.56,6c0,5-3.18,10.94-7.74,14.57C219.28,108.1,205.6,119,200.24,119Zm0-84.74c-16,0-26.52,3.92-31.29,11.66-6.89,11.14.71,26.61.79,26.77a.54.54,0,0,1,0,.22v.28a.49.49,0,0,1-.19.39,6.37,6.37,0,0,0-2.4,5.35c0,4.64,3.13,10.46,7.44,13.85a.55.55,0,0,1,.14.17c7.59,15.3,21,25.05,25.45,25.05S218.11,108.29,225.7,93a.55.55,0,0,1,.14-.17c4.31-3.39,7.44-9.21,7.44-13.85a6.37,6.37,0,0,0-2.4-5.35.49.49,0,0,1-.19-.39V73a.54.54,0,0,1,.05-.22c.08-.16,7.68-15.63.79-26.77C226.76,38.22,216.23,34.3,200.24,34.3Z" fill="#231f20"/><path d="M228.26,76.17s-12.82-1-25.17,12.93c0,0,3.54,6,13.3,5.06S230.48,81.76,228.26,76.17Z" fill="#68e1fd"/><path d="M171.46,76.17s12.83-1,25.17,12.93c0,0-3.54,6-13.29,5.06S169.25,81.76,171.46,76.17Z" fill="#68e1fd"/><path d="M169.3,73.23s9.1-3.92,20.66,2.1" fill="#fff"/><path d="M190,75.83a.53.53,0,0,1-.24-.06c-11.18-5.82-20.14-2.11-20.22-2.08a.5.5,0,0,1-.4-.92c.38-.16,9.45-3.94,21.09,2.11a.51.51,0,0,1,.21.68A.5.5,0,0,1,190,75.83Z" fill="#231f20"/><path d="M231.19,73.23S215.6,66.88,205,76.17" fill="#fff"/><path d="M205,76.67a.5.5,0,0,1-.37-.17.51.51,0,0,1,0-.71c4.44-3.88,10.48-5.64,17.45-5.07a34.12,34.12,0,0,1,9.27,2,.5.5,0,0,1-.38.93c-.15-.07-15.43-6.12-25.68,2.85A.5.5,0,0,1,205,76.67Z" fill="#231f20"/><path d="M174.34,93.22s.95,2.51,7,3.17" fill="#fff"/><path d="M181.32,96.89h-.06c-6.26-.67-7.34-3.37-7.38-3.49a.49.49,0,0,1,.29-.64.5.5,0,0,1,.64.28s1,2.26,6.56,2.86a.5.5,0,0,1-.05,1Z" fill="#231f20"/><path d="M226.15,93.22a13.58,13.58,0,0,1-6.37,3.17" fill="#fff"/><path d="M219.78,96.89a.5.5,0,0,1-.09-1,13.16,13.16,0,0,0,6.11-3,.5.5,0,0,1,.71,0,.5.5,0,0,1,0,.71,13.93,13.93,0,0,1-6.63,3.3Z" fill="#231f20"/><path d="M197.74,97.94a2.6,2.6,0,0,0,0,1.21.9.9,0,0,0,.9.68c.59-.07.78-.82.83-1.42s.56-3.78-.56-3.88C198,94.44,197.85,97.25,197.74,97.94Z" fill="#231f20"/><path d="M204,97.94a2.48,2.48,0,0,1,0,1.21.9.9,0,0,1-.9.68c-.59-.07-.79-.82-.83-1.42s-.56-3.78.56-3.88C203.73,94.44,203.9,97.25,204,97.94Z" fill="#231f20"/><path d="M216,100.46s-11.82,12.31-32.2-.77c0,0,5.42,13.36,16.48,13S216,100.46,216,100.46Z" fill="#fff"/><path d="M199.8,113.19c-11,0-16.44-13.18-16.5-13.31a.52.52,0,0,1,.14-.58.5.5,0,0,1,.59,0c10.38,6.66,18.42,6.51,23.35,5.23a18.94,18.94,0,0,0,8.22-4.39.5.5,0,0,1,.63-.07.51.51,0,0,1,.2.6c-.05.12-4.9,12.17-16.17,12.54ZM185,101c1.79,3.42,6.9,11.48,15.28,11.17,7.84-.26,12.41-6.58,14.28-9.91C210.51,105.05,200.11,110,185,101Z" fill="#231f20"/><path d="M207.46,110a.52.52,0,0,1-.21,0c-.24-.12-.42-.2-.31-1.62-3.66,1-10.72-.28-12.7-.69l-.28,1.63a.51.51,0,0,1-.37.4.52.52,0,0,1-.51-.17l-2-2.39a14.87,14.87,0,0,1-4.62-1.78.5.5,0,1,1,.51-.85,14,14,0,0,0,4.44,1.67.48.48,0,0,1,.32.17l1.4,1.7.19-1.06a.47.47,0,0,1,.21-.33.5.5,0,0,1,.39-.07c.1,0,9.88,2.18,13.35.58a.5.5,0,0,1,.7.5,1.5,1.5,0,0,1,0,.22l1.19-1.91a.52.52,0,0,1,.49-.24,5.09,5.09,0,0,0,3.48-1.19.5.5,0,0,1,.63.77,6.11,6.11,0,0,1-3.9,1.43c-.72,1.17-1.79,2.9-2,3.11A.58.58,0,0,1,207.46,110Z" fill="#231f20"/><path d="M157.75,111.36s-1.05,15.65,5.08,16.25S182,117.15,185,120.29s.51,8.66-5.46,11.65-3.32.3-7.56,4.93-8.41,8.67-14.32,9.71c0,0-3.37,10.91-11.28,10.31s-12.1-8.48-12.1-8.48c1.68-2.58,2.9-3.35,4.53-6,1.35-2.15,3.59-4.2,4.52-6.56,1-2.56.16-5.24-.65-7.71s-1.52-5.41-.11-7.63a.91.91,0,0,1,.41-.39.89.89,0,0,1,.63.11c1,.45,5.06,4.18,5.67,3.92,1-.44.88-5.19.93-6.11.08-1.28-.5-10.2,1.31-10.48S157.75,111.36,157.75,111.36Z" fill="#fff"/><path d="M147,157.41l-.68,0c-8.1-.61-12.33-8.41-12.5-8.74a.49.49,0,0,1,0-.51,25.52,25.52,0,0,1,2.25-2.93,24.76,24.76,0,0,0,2.28-3,27.2,27.2,0,0,1,1.86-2.52,16.38,16.38,0,0,0,2.61-4c1-2.44.11-5.06-.65-7.36-.88-2.66-1.57-5.69-.06-8.06a1.26,1.26,0,0,1,.68-.59,1.32,1.32,0,0,1,1,.13,16.07,16.07,0,0,1,2.37,1.73,22.89,22.89,0,0,0,2.95,2.13c.24-.28.51-1.39.56-4.84,0-.35,0-.63,0-.79s0-.74,0-1.41c-.1-5.85.15-9.29,1.73-9.54,2.06-.31,6.17,3.47,6.63,3.9a.5.5,0,0,1,.16.4c-.28,4.22,0,15.27,4.63,15.72,2.75.27,7.06-2,11.24-4.18,5-2.63,9.39-4.91,11.26-3a5.07,5.07,0,0,1,1.35,4.55c-.5,3-3.17,6-6.95,7.9A25.84,25.84,0,0,1,175.9,134c-.91.3-.91.3-2.85,2.42l-.68.75c-4.13,4.5-8.33,8.64-14.31,9.81C157.47,148.76,154.14,157.41,147,157.41Zm-12.16-9c.8,1.33,4.8,7.45,11.55,8,7.43.56,10.74-9.85,10.77-10a.5.5,0,0,1,.39-.34c5.83-1,10-5.11,14-9.56l.68-.74c2-2.23,2.12-2.32,3.28-2.7a25.41,25.41,0,0,0,3.74-1.59c3.51-1.76,6-4.5,6.42-7.18a4.1,4.1,0,0,0-1.08-3.68c-1.35-1.39-5.79.93-10.09,3.18s-8.76,4.57-11.8,4.29c-6.17-.6-5.66-14.46-5.54-16.55-1.64-1.5-4.47-3.65-5.63-3.48-.38.06-1,1.25-.88,8.54,0,.7,0,1.23,0,1.48s0,.42,0,.75c-.05,3.35-.26,5.38-1.22,5.79-.56.24-1.34-.28-3.91-2.32a18.91,18.91,0,0,0-2.16-1.6c-.19-.09-.25-.1-.27-.09s0,0-.15.18c-1.28,2-.63,4.77.17,7.2s1.73,5.27.63,8.05a17.48,17.48,0,0,1-2.76,4.23,25.87,25.87,0,0,0-1.79,2.42,25.61,25.61,0,0,1-2.37,3.15A25.8,25.8,0,0,0,134.88,148.43Z" fill="#231f20"/><path d="M158.52,122.14a3.88,3.88,0,0,0,2.32-3.44,10.67,10.67,0,0,0-.54-4.3,17.93,17.93,0,0,0-1.91-4.12c-1.24-2-3.39-4.11-6-3.36a4,4,0,0,0-2.62,4.73c.61,2.1,2.45,4,3.38,6S155.67,123,158.52,122.14Z" fill="#fff"/><path d="M157.6,122.79c-2.6,0-4-3.14-4.87-4.91a17.39,17.39,0,0,0-1.45-2.42,14.44,14.44,0,0,1-1.95-3.67,4.26,4.26,0,0,1,.4-3.24,4.32,4.32,0,0,1,2.56-2.11c3.26-1,5.65,2.18,6.52,3.58a17.87,17.87,0,0,1,2,4.23,11,11,0,0,1,.57,4.51c-.16,1.45-1,3.33-2.67,3.86h0A3.89,3.89,0,0,1,157.6,122.79Zm.92-.65h0Zm-5-14.88a2.92,2.92,0,0,0-.91.14,3.45,3.45,0,0,0-2.28,4.11,12.93,12.93,0,0,0,1.83,3.39,19.15,19.15,0,0,1,1.52,2.56c1.16,2.5,2.48,4.9,4.74,4.2,1.24-.38,1.84-1.86,2-3a9.83,9.83,0,0,0-.52-4.1,17.3,17.3,0,0,0-1.85-4C157.3,109.49,155.65,107.26,153.48,107.26Z" fill="#231f20"/><path d="M146.89,118.37a3.37,3.37,0,0,0-2.5-.86,2.65,2.65,0,0,0-1.58,1.23,6.11,6.11,0,0,0,.18,6.1,16.32,16.32,0,0,0,4.38,4.62,9.45,9.45,0,0,0,3.21,1.9c3.28.92,5.27-2.53,3.72-5.19A26.5,26.5,0,0,0,146.89,118.37Z" fill="#fff"/><path d="M151.63,132a4.62,4.62,0,0,1-1.19-.17,9.89,9.89,0,0,1-3.38-2,17,17,0,0,1-4.51-4.76,6.58,6.58,0,0,1-.16-6.61,3.07,3.07,0,0,1,1.9-1.46,3.89,3.89,0,0,1,2.9.94,27,27,0,0,1,7.54,8,4.26,4.26,0,0,1-.23,4.71A3.57,3.57,0,0,1,151.63,132Zm-6.87-14-.27,0a2.21,2.21,0,0,0-1.26,1,5.61,5.61,0,0,0,.19,5.59,16.11,16.11,0,0,0,4.26,4.47,9.1,9.1,0,0,0,3,1.81,2.69,2.69,0,0,0,3-.88,3.23,3.23,0,0,0,.16-3.58,26.06,26.06,0,0,0-7.26-7.64h0A3.47,3.47,0,0,0,144.76,118Z" fill="#231f20"/><path d="M138,144.07a7.53,7.53,0,0,1-1.82-4.41,11.56,11.56,0,0,1,.32-3.94,5.75,5.75,0,0,1,.29-.83c.63-1.38,1.56-1,2.88-.57a14.83,14.83,0,0,1,7.41,5.51,4.62,4.62,0,0,1,.83,1.73,1.94,1.94,0,0,1-.51,1.79,2.3,2.3,0,0,1-2.06.34,37.28,37.28,0,0,1-4.63-2.05" fill="#fff"/><path d="M138,144.57a.52.52,0,0,1-.38-.17,8.09,8.09,0,0,1-1.94-4.7,12.25,12.25,0,0,1,.33-4.12,7.76,7.76,0,0,1,.33-.9c.78-1.74,2.14-1.29,3.34-.88l.15,0a15.42,15.42,0,0,1,7.66,5.7,5.08,5.08,0,0,1,.91,1.93,2.43,2.43,0,0,1-.66,2.25,2.75,2.75,0,0,1-2.51.46,26.26,26.26,0,0,1-3.92-1.7l-.81-.39a.49.49,0,0,1-.24-.66.5.5,0,0,1,.67-.24l.82.4a28.2,28.2,0,0,0,3.71,1.62,1.94,1.94,0,0,0,1.61-.23,1.48,1.48,0,0,0,.35-1.33,4.33,4.33,0,0,0-.75-1.54,14.33,14.33,0,0,0-7.16-5.32l-.14,0c-1.4-.46-1.74-.49-2.12.35a4.55,4.55,0,0,0-.27.76,11.15,11.15,0,0,0-.3,3.76,7,7,0,0,0,1.69,4.12.5.5,0,0,1,0,.71A.5.5,0,0,1,138,144.57Z" fill="#231f20"/><path d="M144.06,146.19a3,3,0,0,1,.76,3.75c-.74,1.25-2.13,1.19-3.5,1.09s-3-.22-4.43-.47a7.74,7.74,0,0,1-4.17-1.81,3.08,3.08,0,0,1,1.5-5.53A12.68,12.68,0,0,1,144.06,146.19Z" fill="#fff"/><path d="M142.33,151.58c-.36,0-.72,0-1-.05-1.47-.11-3-.22-4.49-.48a8.28,8.28,0,0,1-4.43-1.94,3.58,3.58,0,0,1,1.75-6.38,13.08,13.08,0,0,1,10.28,3.1h0a3.39,3.39,0,0,1,.85,4.36A3.09,3.09,0,0,1,142.33,151.58Zm-6.53-8a7.75,7.75,0,0,0-1.48.14,3,3,0,0,0-1.9,1.13,3,3,0,0,0,.65,3.56,7.5,7.5,0,0,0,3.9,1.67,43.56,43.56,0,0,0,4.39.46c1.42.1,2.47.1,3-.85a2.51,2.51,0,0,0-.67-3.13h0A12.57,12.57,0,0,0,135.8,143.57Z" fill="#231f20"/><path d="M157.68,146.58s2.91-4.13-4.86-8.81" fill="#fff"/><path d="M157.68,147.08a.52.52,0,0,1-.29-.09.5.5,0,0,1-.12-.69h0a3.46,3.46,0,0,0,.35-2.56c-.41-1.88-2.16-3.79-5.06-5.54a.51.51,0,0,1-.17-.69.5.5,0,0,1,.69-.17c3.2,1.93,5.06,4,5.53,6.23a4.39,4.39,0,0,1-.52,3.3A.49.49,0,0,1,157.68,147.08Z" fill="#231f20"/><path d="M263.78,147.08S274.45,160,281.92,165.4s15.23,17.33,13.29,25.55-3.49,12.84-15.56,9.56-24-41.65-29.7-49.43Z" fill="#fff"/><path d="M286.22,202.07a26.09,26.09,0,0,1-6.7-1.08c-8.5-2.31-16.53-20.59-23-35.28-2.81-6.4-5.24-11.93-7-14.34a.5.5,0,0,1-.06-.46.47.47,0,0,1,.33-.31l13.84-4a.5.5,0,0,1,.52.17c.11.13,10.71,13,18,18.24,7.94,5.71,15.43,17.83,13.49,26.06-1.13,4.76-2.14,8.26-5,9.95A8.69,8.69,0,0,1,286.22,202.07Zm-35.47-50.71c1.78,2.72,4.08,8,6.71,13.95,6,13.73,14.29,32.53,22.32,34.71,5,1.36,8.29,1.4,10.43.13,2.5-1.49,3.41-4.66,4.51-9.32,1.81-7.62-5.43-19.5-13.1-25-6.85-4.94-16.47-16.32-18-18.16Z" fill="#231f20"/><path d="M242.18,111.36s1,15.65-5.08,16.25-19.14-10.46-22.19-7.32-.51,8.66,5.46,11.65,3.32.3,7.56,4.93,8.41,8.67,14.32,9.71c0,0,3.37,10.91,11.28,10.31s12.1-8.48,12.1-8.48c-1.68-2.58-2.9-3.35-4.53-6-1.35-2.15-3.59-4.2-4.52-6.56-1-2.56-.16-5.24.65-7.71s1.52-5.41.11-7.63a.91.91,0,0,0-.41-.39.89.89,0,0,0-.63.11c-1,.45-5.06,4.18-5.67,3.92-1-.44-.88-5.19-.93-6.11-.08-1.28.5-10.2-1.31-10.48S242.18,111.36,242.18,111.36Z" fill="#fff"/><path d="M252.9,157.41c-7.11,0-10.44-8.65-11-10.39-6-1.17-10.18-5.31-14.31-9.81l-.68-.75c-1.94-2.12-1.94-2.12-2.85-2.42a25.84,25.84,0,0,1-3.88-1.65c-3.78-1.89-6.45-4.92-7-7.9a5.07,5.07,0,0,1,1.35-4.55c1.87-1.92,6.22.36,11.26,3,4.18,2.19,8.5,4.45,11.24,4.18,4.63-.45,4.91-11.5,4.63-15.72a.5.5,0,0,1,.16-.4c.46-.43,4.57-4.2,6.63-3.9,1.58.25,1.83,3.69,1.73,9.54,0,.67,0,1.17,0,1.41s0,.44,0,.79c0,3.44.32,4.55.56,4.84a23.19,23.19,0,0,0,2.95-2.13,16.07,16.07,0,0,1,2.37-1.73,1.37,1.37,0,0,1,1-.13,1.26,1.26,0,0,1,.68.59c1.51,2.37.82,5.4-.06,8.06-.75,2.3-1.62,4.92-.65,7.36a16.38,16.38,0,0,0,2.61,4,27.2,27.2,0,0,1,1.86,2.52,23.76,23.76,0,0,0,2.29,3,26.77,26.77,0,0,1,2.24,2.93.49.49,0,0,1,0,.51c-.17.33-4.4,8.13-12.5,8.74Zm-36.41-37.19a1.63,1.63,0,0,0-1.22.42,4.08,4.08,0,0,0-1.09,3.68c.46,2.68,2.91,5.42,6.42,7.18a25.41,25.41,0,0,0,3.74,1.59c1.16.38,1.24.47,3.28,2.7l.68.74c4.07,4.45,8.21,8.53,14,9.56a.5.5,0,0,1,.39.34c0,.11,3.34,10.56,10.77,10,6.75-.51,10.75-6.63,11.55-8a25.8,25.8,0,0,0-2-2.57,25.61,25.61,0,0,1-2.37-3.15,25.87,25.87,0,0,0-1.79-2.42,17.48,17.48,0,0,1-2.76-4.23c-1.1-2.78-.14-5.7.63-8.05s1.45-5.19.17-7.2c-.1-.15-.14-.18-.15-.18a.7.7,0,0,0-.27.09,18.91,18.91,0,0,0-2.16,1.6c-2.57,2-3.35,2.56-3.91,2.32-1-.41-1.17-2.44-1.22-5.79,0-.33,0-.6,0-.75s0-.78,0-1.49c.13-7.28-.5-8.47-.88-8.53-1.15-.17-4,2-5.63,3.48.12,2.09.63,16-5.54,16.55-3,.28-7.5-2-11.8-4.29C222,122,218.47,120.22,216.49,120.22Z" fill="#231f20"/><path d="M241.41,122.14a3.88,3.88,0,0,1-2.32-3.44,10.67,10.67,0,0,1,.54-4.3,17.93,17.93,0,0,1,1.91-4.12c1.24-2,3.39-4.11,6-3.36a4,4,0,0,1,2.62,4.73c-.61,2.1-2.45,4-3.38,6S244.26,123,241.41,122.14Z" fill="#fff"/><path d="M242.33,122.79a3.89,3.89,0,0,1-1.07-.17h0c-1.71-.53-2.51-2.41-2.67-3.86a11,11,0,0,1,.57-4.51,18.27,18.27,0,0,1,2-4.23c.87-1.4,3.26-4.53,6.52-3.58a4.32,4.32,0,0,1,2.56,2.11,4.26,4.26,0,0,1,.4,3.24,14.44,14.44,0,0,1-1.95,3.67,17.39,17.39,0,0,0-1.45,2.42C246.37,119.65,244.92,122.79,242.33,122.79Zm-.77-1.13c2.25.7,3.57-1.7,4.73-4.2a19.15,19.15,0,0,1,1.52-2.56,12.93,12.93,0,0,0,1.83-3.39,3.45,3.45,0,0,0-2.28-4.11c-2.6-.77-4.64,1.95-5.4,3.15a17.3,17.3,0,0,0-1.85,4,9.83,9.83,0,0,0-.52,4.1c.12,1.15.72,2.63,2,3Z" fill="#231f20"/><path d="M253,118.37a3.37,3.37,0,0,1,2.5-.86,2.65,2.65,0,0,1,1.58,1.23,6.11,6.11,0,0,1-.18,6.1,16.32,16.32,0,0,1-4.38,4.62,9.45,9.45,0,0,1-3.21,1.9c-3.28.92-5.27-2.53-3.72-5.19A26.5,26.5,0,0,1,253,118.37Z" fill="#fff"/><path d="M248.3,132a3.59,3.59,0,0,1-2.87-1.39,4.26,4.26,0,0,1-.23-4.71,26.87,26.87,0,0,1,7.55-8h0a3.86,3.86,0,0,1,2.89-.94,3.07,3.07,0,0,1,1.9,1.46,6.58,6.58,0,0,1-.16,6.61,17,17,0,0,1-4.51,4.76,9.89,9.89,0,0,1-3.38,2A4.62,4.62,0,0,1,248.3,132Zm6.87-14a3.47,3.47,0,0,0-1.84.8h0a26,26,0,0,0-7.27,7.64,3.23,3.23,0,0,0,.16,3.58,2.69,2.69,0,0,0,3,.88,9.1,9.1,0,0,0,3-1.81,16.3,16.3,0,0,0,4.26-4.47,5.61,5.61,0,0,0,.19-5.59,2.21,2.21,0,0,0-1.26-1Zm-2.13.39h0Z" fill="#231f20"/><path d="M261.93,144.07a7.58,7.58,0,0,0,1.81-4.41,11.56,11.56,0,0,0-.32-3.94,5.75,5.75,0,0,0-.29-.83c-.63-1.38-1.56-1-2.88-.57a14.83,14.83,0,0,0-7.41,5.51,4.62,4.62,0,0,0-.83,1.73,2,2,0,0,0,.51,1.79,2.3,2.3,0,0,0,2.06.34,37.28,37.28,0,0,0,4.63-2.05" fill="#fff"/><path d="M261.93,144.57a.5.5,0,0,1-.34-.13.51.51,0,0,1,0-.71,7,7,0,0,0,1.69-4.12,11.15,11.15,0,0,0-.3-3.76,4.55,4.55,0,0,0-.27-.76c-.38-.84-.71-.82-2.11-.35l-.15,0a14.33,14.33,0,0,0-7.16,5.32,4.3,4.3,0,0,0-.75,1.55,1.46,1.46,0,0,0,.35,1.32,2,2,0,0,0,1.62.23,28.73,28.73,0,0,0,3.7-1.62l.82-.4a.5.5,0,0,1,.67.24.49.49,0,0,1-.24.66l-.81.4a27.16,27.16,0,0,1-3.92,1.69,2.75,2.75,0,0,1-2.51-.46,2.43,2.43,0,0,1-.66-2.25,5.08,5.08,0,0,1,.91-1.93,15.41,15.41,0,0,1,7.67-5.7l.14,0c1.2-.41,2.56-.86,3.34.88a6.75,6.75,0,0,1,.33.9,12.2,12.2,0,0,1,.33,4.12,8.09,8.09,0,0,1-1.94,4.7A.51.51,0,0,1,261.93,144.57Z" fill="#231f20"/><path d="M255.87,146.19a3,3,0,0,0-.76,3.75c.74,1.25,2.13,1.19,3.5,1.09s3-.22,4.43-.47a7.74,7.74,0,0,0,4.17-1.81,3.08,3.08,0,0,0-1.5-5.53A12.68,12.68,0,0,0,255.87,146.19Z" fill="#fff"/><path d="M257.6,151.58a3.09,3.09,0,0,1-2.92-1.39,3.39,3.39,0,0,1,.85-4.36h0a13.09,13.09,0,0,1,10.28-3.1,3.58,3.58,0,0,1,1.75,6.38,8.28,8.28,0,0,1-4.43,1.94c-1.5.26-3,.37-4.49.48C258.32,151.55,258,151.58,257.6,151.58Zm6.53-8a12.57,12.57,0,0,0-7.92,3h0a2.51,2.51,0,0,0-.67,3.13c.57.95,1.62.95,3,.85a43.56,43.56,0,0,0,4.39-.46,7.5,7.5,0,0,0,3.9-1.67,3,3,0,0,0,.65-3.56,3,3,0,0,0-1.9-1.13A7.75,7.75,0,0,0,264.13,143.57Zm-8.26,2.62h0Z" fill="#231f20"/><path d="M242.25,146.58s-2.91-4.13,4.86-8.81" fill="#fff"/><path d="M242.25,147.08a.49.49,0,0,1-.41-.21,4.39,4.39,0,0,1-.52-3.3c.47-2.2,2.33-4.3,5.53-6.23a.5.5,0,0,1,.69.17.51.51,0,0,1-.17.69c-2.9,1.75-4.65,3.66-5.06,5.54a3.46,3.46,0,0,0,.35,2.56.5.5,0,0,1-.13.69A.47.47,0,0,1,242.25,147.08Z" fill="#231f20"/><circle cx="200.44" cy="204.29" r="61.91" fill="#fff"/><path d="M200.44,142.37a61.92,61.92,0,1,1-61.92,61.92,61.91,61.91,0,0,1,61.92-61.92m0-.91a62.83,62.83,0,1,0,62.82,62.83,62.89,62.89,0,0,0-62.82-62.83Z" fill="#231f20"/><path d="M246.86,163.32a2.36,2.36,0,0,1-1.43.09l.83-.76q-1.68-1.85-3.51-3.56a2.78,2.78,0,0,0,1.4,2.23c-1.31.07-2.33-.71-3.48-1a37.18,37.18,0,0,0-4.13-.78l2.05,1.48a10,10,0,0,1-1.17.37c-.39-.83-.88-.15-1.33-.18-1-.06-2.12,1.13-2.89-.1a6.6,6.6,0,0,0-1.06.23,11,11,0,0,0-2.7,1.27c-.93.74-1.22.83-1.94-.28l.95-.32,0-.39-1.93-.41a6.33,6.33,0,0,0-.08,1.38,2.45,2.45,0,0,0,.39.81,15.42,15.42,0,0,0-1.69.26,14.9,14.9,0,0,0-1.56.65l.47,1-2.57-.42-.09.24,1,.64c-1.47.44-2.39-.33-2.39-1.83l-1.26-.67a2.91,2.91,0,0,1,1.33.16c1.39.3,2.79.65,4.15-.05.71-.36.67-.86,0-1.2a14.61,14.61,0,0,0-2.58-1.1c-1.57-.45-3.17-.76-4.79-1.13l.26-.41a16.07,16.07,0,0,0-2.25-.47,3.64,3.64,0,0,0-1.31.43l.39-.85c-.75.35-1.35.9-1.8.79-1-.22-1.76.55-2.79.35-.58-.11-1.35.76-1.8,1a7.55,7.55,0,0,0-1.39.31A8.61,8.61,0,0,0,205,162l1.58-.38c-.71.88-1.48,1.92-2.34,2.87-.59.65-1.22,1.5-2,1.71a7,7,0,0,0-2.82,1.61A1.64,1.64,0,0,0,199,169a8.3,8.3,0,0,0,.55,1.91,1.41,1.41,0,0,0,1.78.8c.62-.31,1.4-1.05,1.77-.88.56.26.83,1.15,1.21,1.77.08.13.14.27.21.4.35.74.31,2.45,1.68.68,1.11.24,1.11-.67,1.18-1.29a1.76,1.76,0,0,1,1-1.49.86.86,0,0,0,.1-1.58c-.85-.61-.95-1.17-.22-2,.39-.42,1-.64,1.41-1s.67-.91,1.09-1.25a5,5,0,0,1,1.67-.94c.35-.1.82.23,1.33.4-1,.79-1.77,1.38-2.52,2-.42.34-.91,2.37-.53,2.59a5.31,5.31,0,0,0,2.31.76,12.67,12.67,0,0,0,2.18-.46,3.19,3.19,0,0,1,1.06.22v.45l-1.92.17a12.7,12.7,0,0,0-1.51.18c-.68.15-.77.61-.29,1.05s.43,1-.09,1.43c-1.29-1.05-1.57-1-1.88.69a6.2,6.2,0,0,0,0,1.14c-.53.22-1.17.74-1.5.59-1.35-.65-2.24.55-3.44.64-.37-.94-1-.36-1.67-.35a1.89,1.89,0,0,1-1.1-.53c-.17-.14-.29-.65-.18-.77a1.86,1.86,0,0,0,.35-2.07c-1.63.89-1.62.89-1.24,2.55a5.44,5.44,0,0,1,.07,1l-2.42,1c-.78.77-1.33,1.33-1.89,1.87-.2.19-.49.32-.62.55a1.77,1.77,0,0,1-2.4.93c0,.34.08.66.12,1l-2.15-.1a21.94,21.94,0,0,0,2,2.2c.86,1,.16,2,0,3-1.8.14-3.6-.7-5.34.36,1,2-.67,4.1.52,6.07l1.18-.14.71.94c1.8-.43,3.55-.69,4.09-2.25,0-.6-.14-1,0-1.27.42-.57,1-1,1.45-1.58.31-.36.83-.78.81-1.15-.06-1.16.63-1.09,1.28-.84a1.35,1.35,0,0,0,1.66-.29,10,10,0,0,1,1.27-.87c.31.39.61.8,1,1.19a12.19,12.19,0,0,0,1.79,1.93c1.17.85,2.56,1.48,2.06,3.37l.82-1.14-.39-1.36,1.35.58c0-.22,0-.37-.09-.41-.79-.52-1.26-1.46-2.3-1.69-.28-.06-.54-.39-.73-.65s-.51-.88-.82-1.27c-.79-1-.65-1.47.43-1.76a3,3,0,0,0,.37.69c.12.13.49.12.52.24.29,1.08,1.21,1.4,2,1.9.51.31,1.2.92,1.2,1.39,0,2.19,1.56,3.52,2.32,5.24a8.77,8.77,0,0,0,.88-1.54,1.46,1.46,0,0,0-.1-1,12.23,12.23,0,0,0-.88-1.42c.49,0,.95.2,1.12,0,.85-.76.82-.78,1.55-.36-.06.8-.11,1.47-.15,2.07.33.49.57,1.23,1.05,1.45s1.08,1.29,2.09.4c.32-.28,1.38.28,2.1.46,0,0,.08,0,.11,0l1.83-.84c-.38,1.68-.67,3-1,4.34-.19.86-.52,1.51-1.6,1.54-.42,0-.83.46-1,.58l1.68,1.77-.82.64.11.32,1.61-.48c.22.39.54.88.79,1.4.43.87.84,1.76,1.24,2.66.32.72.61,1.45.89,2.19a16.16,16.16,0,0,0,.53,1.62,14.85,14.85,0,0,0,1.08,1.67c1.1,1.6,1.07,3.51,1.39,5.32.11.64.39.87,1,.58,1-.53,2.12-1,3.1-1.65s1.94-1.63,3-2.27a7.83,7.83,0,0,0,2.6-2.1c.19-.26.33-.55.5-.83a5.81,5.81,0,0,1,.52-.83c1.25-1.37,1-2.58-.67-3.4a1.73,1.73,0,0,1-.71-.9,7.27,7.27,0,0,1-.16-1.47,11.58,11.58,0,0,0-1.25,1.62c-.48.95-1.25.37-1.87.49-.07-.39-.13-.78-.21-1.17s-.11-.51-.23-1.08l-.44,1-1.9-4.08c1-1.13,1.22-1.11,1.94.27.1.2.19.41.27.62a2.81,2.81,0,0,0,4,1.59c.53,1.32.64,1.49,2.14,1.58s3.09,0,4.46,0l2.53,2.88-.72.3,1.66,1.44c.36-.43.71-.87.86-1,.39,2.08.71,4.51,1.31,6.87a36.88,36.88,0,0,0,2.27,7,8.5,8.5,0,0,0,2-6.09,2.84,2.84,0,0,1,.2-1.61c.54-.79,1.41-1.35,1.92-2.15.79-1.24,2.36-1.87,2.66-3.49,0-.21.48-.41.77-.48.81-.21,1.63-.35,2.48-.53a6.13,6.13,0,0,0,.59,1.77,10,10,0,0,1,1.25,2.13,62.58,62.58,0,0,0,.4-7A61.69,61.69,0,0,0,246.86,163.32Z" fill="#d1d3d4"/><path d="M161,252.05a3.58,3.58,0,0,0,.36-1.24,2.25,2.25,0,0,1,1.3-2.15c1-.46,2.1-.77,3.14-1.17a1.23,1.23,0,0,0,.63-.4,11.84,11.84,0,0,0,1.27-2.73,34.15,34.15,0,0,0,.47-4.05.89.89,0,0,1,.09-.44c.53-.69,1.15-1.34,1.63-2.07a6.24,6.24,0,0,0,1.32-2.6,1.92,1.92,0,0,0-1.8-2.13.72.72,0,0,1-.43-.33c-1.22-1.63-3-1.27-4.66-1.29.15-.7-.21-.93-.94-1.1a4.2,4.2,0,0,1-3.56-3.12c-.51-2-1.51-2.59-3.63-2.71a3.93,3.93,0,0,1-1.73-.84,7.69,7.69,0,0,1-1.11-1.1,3.82,3.82,0,0,0-.54-.59c-.59-.4-1-1.27-1.8-1.1a3.9,3.9,0,0,1-2.48,0c-.76-.33-1.5-.7-2.39-1.12-.23.61-.52,1.4-.83,2.26-.56-.89,0-1.76.14-2.68-1.64,1-3.54,1.59-3.93,3.84l-.11-.06A62,62,0,0,0,161,252.05Z" fill="#d1d3d4"/><path d="M148.62,184.15c2.08.47,3.63-.58,5.29-1.38a1.09,1.09,0,0,0,.57-.79,1.48,1.48,0,0,0-.59-1,5.21,5.21,0,0,0-1.46-.36l.64-.42a14.09,14.09,0,0,1-2.39-1.48c-.36-.33-.24-1.13-.52-1.61-.47-.82-1.08-1.55-1.66-2.36-.56.78-.71,2.19-2.07,1.85a1.62,1.62,0,0,1-1-.69,61.47,61.47,0,0,0-6.72,23.76,3.66,3.66,0,0,1,.72-.58c1.7-1,1.8-1.27,1.36-3.23a9.92,9.92,0,0,1,0-1.91l.43,1.63c.4-.71,1-1.29,1-1.92.11-1.11.66-1.36,1.6-1.38a4.63,4.63,0,0,0,1.09-.24l-.31-.14c.06-.55-.08-1.4.21-1.6a36.69,36.69,0,0,1,3.67-1.9l-.8,1.72.28.06,3.88-2.07-.17-.3-.48.28.26-.91a.48.48,0,0,0-.41.25c-.7,1-1.08,1.12-2.13.37-.78-.56-1.06-1.2-.23-2,.07-.07-.13-.64-.23-.65a3.55,3.55,0,0,0-1.3.1,17,17,0,0,0-1.66.68C146.4,185.05,147.29,183.84,148.62,184.15Z" fill="#d1d3d4"/><path d="M202.16,226.24a2.28,2.28,0,0,1,.29,1.6c-.48,1.65-.5,3,.85,4.4a5.93,5.93,0,0,1,1.58,4.53,1.08,1.08,0,0,0,.17.64c.54.74.21,1.27-.15,2-.8,1.64-1.57,3.33-.44,5.26a7.82,7.82,0,0,1,1.46,3.78,5.69,5.69,0,0,0,1.42,3.91,3.75,3.75,0,0,1,1.11,2.49,1.88,1.88,0,0,0,1.05,2,6.82,6.82,0,0,1,1.06-.35,18.86,18.86,0,0,0,3-.32c2.53-.72,3.76-2.89,5-4.92.24-.38.09-1,.13-1.72.15-.08.49-.3.86-.47a1.65,1.65,0,0,0,1-2.24c-.11-.39-.29-.77-.39-1.16-.05-.23-.09-.58,0-.69.83-.77,1.75-1.46,2.58-2.24.53-.51,1.25-1.07,1.38-1.71a8.49,8.49,0,0,0-.15-3c-.11-.66-.55-1.27-.67-1.93s.36-1.57-.42-2.21c-.09-.08,0-.48.07-.64,1.25-1.73,2.27-3.78,3.88-5.08,2.13-1.73,3.19-4,4.36-6.27a7.82,7.82,0,0,0,.43-2.14c-1.63.42-3.07.82-4.53,1.13a.94.94,0,0,1-.81-.38c-.24-.41-.21-1-.5-1.36-.53-.65-1.24-1.16-1.83-1.77a3.32,3.32,0,0,1-.78-1.13c-.48-1.48-1.59-2.65-1.76-4.32-.11-1-1.06-2-1.53-3a39.44,39.44,0,0,1-1.56-3.89c-.33-1-.88-.89-1.65-.68a3.69,3.69,0,0,1-1.77.13,35.25,35.25,0,0,1-3.41-1.18c-1-.38-1.8.05-1.89,1.06-.07.74-.38,1.14-1.08.62s-2.08-.24-2.33-1.55c0-.05-.27,0-.39-.07-1.06-.46-2.5.13-3.1-1l.79-2.34a9.61,9.61,0,0,0-1.47-.21c-1.28,0-2.57.09-3.84.26a11,11,0,0,0-2.65.71c-1.35.55-2.66,1-3.87.07a8.78,8.78,0,0,1-1.75,1.79,2.28,2.28,0,0,0-1.27,2.07c0,1.36-.72,1.84-1.8,2.17a1.32,1.32,0,0,0-.69.48c-.64,1-1.27,2.08-1.82,3.17-.38.76-1.09,1.41-.38,2.53a3.47,3.47,0,0,1,.08,2.6,8.49,8.49,0,0,0-.28,3.42c0,.25.26.49.44.71s.4.31.54.51a26.94,26.94,0,0,0,1.95,2.81,27,27,0,0,0,2.57,2.17,1.61,1.61,0,0,0,1.74.24,16.11,16.11,0,0,1,2.8-.27,4.86,4.86,0,0,0,1.08-.16,22.9,22.9,0,0,1,2.19-.78c.74-.16,1.76-.63,2.11.49s.89,1,1.7.9A1.42,1.42,0,0,1,202.16,226.24Z" fill="#d1d3d4"/><path d="M155.31,161.9a2.38,2.38,0,0,0,.62-.29l1.82,1.27-2.32-.33-.06.34,2.23.84v1.1l-2.66,1.35,1.22,1c0,.37-.11.72,0,1,.84,1.73,1.7,3.45,2.61,5.14a2.91,2.91,0,0,0,1.06,1,19,19,0,0,0,1.95.88c.49.21,1,.46,1.11-.4s.36-1.64.56-2.46c0-.15.1-.36.21-.41a2.13,2.13,0,0,0,1.07-2.2c0-.31.54-.91.78-.89a4.12,4.12,0,0,0,3.91-2.1c.27-.37.72-.83,1.12-.86a14.66,14.66,0,0,0,6.45-2.41l-2.83-.29.77-.93,2.24.95a1.62,1.62,0,0,0-1.11-2c-1-.38-1.06-.9-.56-1.57h2.59l-.75-.84,1.66-.24-.74-.77c1.3-.88-.4-1.32-.3-2l1.61-.1c-.29-.45-.45-1-.79-1.13a4.58,4.58,0,0,0-1.6-.12c1.49-2.24,4-3,6.36-4.07a5,5,0,0,0-4.1-.26,25.82,25.82,0,0,1-3.67.73l.57-.91c-.48.06-1,.12-1.44.16-.26,0-.53,0-.79,0l0-.46,2.91-.49c-1-.27-1.94-.64-2.89-.83A62.09,62.09,0,0,0,155.31,161.9Z" fill="#d1d3d4"/><path d="M147.44,172.26l-.36.6a6.93,6.93,0,0,1,.72.26Z" fill="#d1d3d4"/><path d="M150.82,167.32l0,0-.54.74Z" fill="#d1d3d4"/><path d="M148.52,171.92a2.5,2.5,0,0,0-.07-1.27c-.26.4-.51.79-.75,1.19Z" fill="#d1d3d4"/><path d="M226.41,246.13a3,3,0,0,0,.39,3,1.26,1.26,0,0,0,2-.51c.64-2.13,1.21-4.28,1.81-6.43,0-.16,0-.37.11-.49a1.93,1.93,0,0,0-.35-2.53c-1.24.93-1.37,3-3.61,2.88,0,.72,0,1.4,0,2.06A5.89,5.89,0,0,1,226.41,246.13Z" fill="#d1d3d4"/><path d="M196.52,177.88c.1-.27.36-.67.27-.79a1.15,1.15,0,0,0-.59-.27c-.87-1.19-1.63-2.23-2.43-3.34.66-1.16.63-1.6-.24-2.17-.55-.35-1.78.14-2.34.94-.25.36.12,1.05,1.09,2l-.14.69c.19,0,.33,0,.4.06.35.26.87.49,1,.83s-.22.77-.79.53a.82.82,0,0,0-.28.41c0,.41,0,.82,0,1.34l.92.27c-.48.38-.95.73-1.64,1.26l4.44-.71C196.35,178.36,196.43,178.12,196.52,177.88Z" fill="#d1d3d4"/><path d="M234.37,155.55a27.17,27.17,0,0,1-2.68,2.53c1.18,1.15,2.69,1.31,4.54,1.24-.51-.36-.93-.53-1.12-.83s-.35-.92-.18-1.12a8.89,8.89,0,0,1,3-2.34l-1.18-.89A4.39,4.39,0,0,0,234.37,155.55Z" fill="#d1d3d4"/><path d="M178.44,171.93a2.61,2.61,0,0,0,1.33,0,5.67,5.67,0,0,0,1.92-.91c.43-.35,1.41-.64.94-1.45A7.87,7.87,0,0,0,181,168l-.09.37-3.39.81-.82-1.1.13.36-1.48.86.15.19h1.59l-1.44.75,1.6.47-.81.59C177.14,171.54,177.78,171.79,178.44,171.93Z" fill="#d1d3d4"/><path d="M207.48,153.24c.73-.58,1.33-1.1,2-1.53a.82.82,0,0,1,.76,0c.18.12.22.46.36.77h2.16l0-.4-6.09-2.43.38.83-3.63-.32-.08.38a5.75,5.75,0,0,0,1.57,1.05,4.82,4.82,0,0,0,1.76-.24l0,.28-1.38.5,0,.19,1.09.1-.73.38Z" fill="#d1d3d4"/><path d="M191.39,175.85c.51-.32.6-.76.08-1s-1.11-.71-1.7,0c-.31.37-.7.67-1.13,1.09v1.75l-.36.17c.19.16.43.49.57.45a11.08,11.08,0,0,0,2.34-.85c.18-.11,0-.79.07-1.21C191.27,176.08,191.3,175.9,191.39,175.85Z" fill="#d1d3d4"/><path d="M139.36,211.19a2.07,2.07,0,0,0-.47-.18c0,.27.05.53.09.79a10.55,10.55,0,0,1,1.3.55c.44.22.71.78,1.17,1.31l2.05-.23C142,212.61,140.71,211.85,139.36,211.19Z" fill="#d1d3d4"/><path d="M147.42,214.94c.09-1-1.7-1.63-3.32-1.19l.86,1-1.68-.16C144.6,215.51,146,214.83,147.42,214.94Z" fill="#d1d3d4"/><path d="M214.55,149.71h-5.72a7.89,7.89,0,0,0,2.39.79,24.83,24.83,0,0,0,3.33-.16Z" fill="#d1d3d4"/><path d="M252.62,224.49c.32-.13.76-.75.68-1a12.36,12.36,0,0,0-1.14-2l-.34.15c0,.69,0,1.37,0,2.05S252,224.73,252.62,224.49Z" fill="#d1d3d4"/><path d="M202.33,188.61l-.74.3v1.91c1.27-.06.69-1.08.94-1.63C202.59,189.06,202.41,188.82,202.33,188.61Z" fill="#d1d3d4"/><path d="M206.43,191.73h-2l-.06.23,1.84,1.12C206.29,192.58,206.37,192.12,206.43,191.73Z" fill="#d1d3d4"/><path d="M140.43,70.25c1.34,3.22-5.15,11.4-15.55,15.75s-20.78,3.22-22.12,0,6-9.35,16.4-13.7S139.08,67,140.43,70.25Z" fill="#fff"/><path d="M111.36,89.35h-1c-4.31-.15-7.34-1.33-8.1-3.14s.6-4.22,3.93-7A51.41,51.41,0,0,1,119,71.85,51.42,51.42,0,0,1,133.14,68c4.32-.42,7,.31,7.75,2.11s-.54,4.8-3.46,8a37.35,37.35,0,0,1-26.07,11.31Zm24-20.52c-.64,0-1.34,0-2.09.11a50.93,50.93,0,0,0-13.89,3.83A50.61,50.61,0,0,0,106.87,80c-2.87,2.4-4.2,4.53-3.65,5.84s3.42,2.4,7.22,2.53a36.17,36.17,0,0,0,26.25-11c2.58-2.8,3.86-5.51,3.27-6.91C139.52,69.4,137.87,68.83,135.33,68.83Z" fill="#d1d3d4"/><path d="M142.39,67.91c1.3,3.12-7.34,9.3-19.12,14.22S101,88.87,99.71,85.76s7.06-10,18.84-14.9S141.09,64.8,142.39,67.91Z" fill="#fff"/><path d="M103.88,87.8c-2.54,0-4.12-.63-4.63-1.85-.73-1.75.93-4.36,4.66-7.35a62.73,62.73,0,0,1,14.45-8.2c12-5,23-6.23,24.49-2.68h0c1.65,4-8.89,10.49-19.39,14.88a73.87,73.87,0,0,1-15.82,4.86A25.11,25.11,0,0,1,103.88,87.8Zm33.58-21.14c-4.27,0-11.13,1.49-18.71,4.67a61,61,0,0,0-14.21,8c-3.26,2.61-4.89,4.92-4.37,6.19s3.24,1.55,7.31.9a72.38,72.38,0,0,0,15.59-4.8c12.9-5.39,19.83-11.24,18.86-13.56C141.53,67.16,139.92,66.66,137.46,66.66Z" fill="#d1d3d4"/><path d="M129.32,71.33a32,32,0,0,1-18,7.53,9.76,9.76,0,1,1,18-7.53Z" fill="#fff"/><path d="M111.32,79.36a.5.5,0,0,1-.46-.31,10.26,10.26,0,0,1,18.93-7.91.5.5,0,0,1-.13.56,32.57,32.57,0,0,1-18.31,7.66Zm9-13.53a9.27,9.27,0,0,0-8.67,12.5A33.16,33.16,0,0,0,120.72,76a33.85,33.85,0,0,0,8-4.85,9.22,9.22,0,0,0-4.88-4.66A9.4,9.4,0,0,0,120.32,65.83Z" fill="#d1d3d4"/><path d="M259.57,70.25c-1.34,3.22,5.15,11.4,15.55,15.75s20.78,3.22,22.12,0-6-9.35-16.4-13.7S260.92,67,259.57,70.25Z" fill="#fff"/><path d="M288.64,89.35A37.35,37.35,0,0,1,262.57,78c-2.92-3.18-4.22-6.16-3.46-8s3.43-2.53,7.75-2.11A57.88,57.88,0,0,1,293.77,79.2c3.33,2.78,4.69,5.2,3.93,7s-3.79,3-8.1,3.14Zm-24-20.52c-2.54,0-4.19.57-4.63,1.62-.59,1.4.69,4.11,3.27,6.91a36.17,36.17,0,0,0,26.25,11c3.8-.13,6.64-1.13,7.22-2.53S296,82.37,293.13,80a56.83,56.83,0,0,0-26.37-11C266,68.87,265.31,68.83,264.67,68.83Z" fill="#d1d3d4"/><path d="M257.61,67.91c-1.3,3.12,7.34,9.3,19.12,14.22s22.26,6.74,23.56,3.63-7.06-10-18.84-14.9S258.91,64.8,257.61,67.91Z" fill="#fff"/><path d="M296.12,87.8a25.11,25.11,0,0,1-3.76-.34,73.87,73.87,0,0,1-15.82-4.86c-10.5-4.39-21-10.92-19.39-14.88h0c1.49-3.55,12.47-2.34,24.49,2.68a62.73,62.73,0,0,1,14.45,8.2c3.73,3,5.39,5.6,4.66,7.35C300.24,87.17,298.66,87.8,296.12,87.8ZM258.07,68.11c-1,2.32,6,8.17,18.86,13.56a72.38,72.38,0,0,0,15.59,4.8c4.07.65,6.8.31,7.31-.9s-1.11-3.58-4.37-6.19a61,61,0,0,0-14.21-8c-11.94-5-22.09-5.83-23.18-3.22Z" fill="#d1d3d4"/><path d="M270.68,71.33a32,32,0,0,0,18,7.53,9.76,9.76,0,1,0-18-7.53Z" fill="#fff"/><path d="M288.68,79.36h0a32.57,32.57,0,0,1-18.31-7.66.5.5,0,0,1-.13-.56,10.26,10.26,0,1,1,18.93,7.91A.5.5,0,0,1,288.68,79.36Zm-17.4-8.17a33.85,33.85,0,0,0,8,4.85,33.24,33.24,0,0,0,9.07,2.29,9.26,9.26,0,0,0-17.07-7.14Z" fill="#d1d3d4"/><circle cx="283.92" cy="227.23" r="5.52" fill="#d1d3d4"/><path d="M114.74,212.46c-3.21,0-3.22,5,0,5S118,212.46,114.74,212.46Z" fill="#d1d3d4"/><path d="M103.48,235.35a1,1,0,0,0,0,2A1,1,0,0,0,103.48,235.35Z" fill="#d1d3d4"/><path d="M112.49,102.58c-2.57,0-2.58,4,0,4S115.07,102.58,112.49,102.58Z" fill="#d1d3d4"/><path d="M92.78,155c-2.57,0-2.58,4,0,4S95.36,155,92.78,155Z" fill="#d1d3d4"/><path d="M301.14,128.86a.5.5,0,0,0,0,1A.5.5,0,0,0,301.14,128.86Z" fill="#d1d3d4"/><path d="M282.55,104.65a.5.5,0,0,0,0,1A.5.5,0,0,0,282.55,104.65Z" fill="#d1d3d4"/><path d="M251.9,73.78a1.54,1.54,0,0,0-.38-.67l-.31-.23a1.41,1.41,0,0,0-.75-.2h-.57a1.17,1.17,0,0,0-.58.12,1.24,1.24,0,0,0-.48.31,1.21,1.21,0,0,0-.31.49,1.15,1.15,0,0,0-.13.58l.06.39a1.54,1.54,0,0,0,.38.67l.31.23a1.51,1.51,0,0,0,.75.21h.57a1.25,1.25,0,0,0,.57-.13,1.32,1.32,0,0,0,.8-.8,1.25,1.25,0,0,0,.13-.57Z" fill="#d1d3d4"/><path d="M309.1,120.68a3,3,0,0,0-.77-1.32l-.61-.47a3,3,0,0,0-1.52-.41h-.56a2.17,2.17,0,0,0-1.15.26,2.13,2.13,0,0,0-1,.62,2.25,2.25,0,0,0-.62,1,2.3,2.3,0,0,0-.26,1.16l.11.79a3,3,0,0,0,.77,1.33l.61.47a3,3,0,0,0,1.51.41h.56a2.3,2.3,0,0,0,1.16-.26,2.34,2.34,0,0,0,1-.62,2.22,2.22,0,0,0,.62-1,2.26,2.26,0,0,0,.25-1.15C309.17,121.21,309.13,121,309.1,120.68Z" fill="#d1d3d4"/><path d="M272.66,213.81a1.14,1.14,0,0,0-.31-.48,1.17,1.17,0,0,0-.48-.31,1.15,1.15,0,0,0-.58-.13l-.4.06a1.57,1.57,0,0,0-.66.38l-.23.3a1.48,1.48,0,0,0-.21.76V215a1.14,1.14,0,0,0,.13.57,1.11,1.11,0,0,0,.31.49,1.24,1.24,0,0,0,.48.31,1.27,1.27,0,0,0,.58.13l.4-.06a1.57,1.57,0,0,0,.66-.38l.24-.31a1.5,1.5,0,0,0,.2-.75v-.57A1.08,1.08,0,0,0,272.66,213.81Z" fill="#d1d3d4"/><path d="M264.22,238a1.21,1.21,0,0,0-.31-.48,1.11,1.11,0,0,0-.49-.31,1.06,1.06,0,0,0-.58-.13l-.39,0a1.47,1.47,0,0,0-.67.39l-.23.3a1.55,1.55,0,0,0-.21.76v.56a1.27,1.27,0,0,0,.13.58,1.24,1.24,0,0,0,.31.48,1.11,1.11,0,0,0,.49.31,1.14,1.14,0,0,0,.57.13l.4,0a1.56,1.56,0,0,0,.67-.39l.23-.3a1.47,1.47,0,0,0,.2-.76v-.56A1.14,1.14,0,0,0,264.22,238Z" fill="#d1d3d4"/><path d="M297.4,146.67a.5.5,0,0,1-.5-.5V140a.5.5,0,0,1,.5-.5.5.5,0,0,1,.5.5v6.19A.5.5,0,0,1,297.4,146.67Z" fill="#d1d3d4"/><path d="M300.5,143.57h-6.2a.5.5,0,0,1-.5-.5.51.51,0,0,1,.5-.5h6.2a.5.5,0,0,1,.5.5A.5.5,0,0,1,300.5,143.57Z" fill="#d1d3d4"/><path d="M134.3,251.78a.5.5,0,0,1-.5-.5v-6.2a.5.5,0,0,1,.5-.5.51.51,0,0,1,.5.5v6.2A.51.51,0,0,1,134.3,251.78Z" fill="#d1d3d4"/><path d="M137.39,248.68H131.2a.5.5,0,0,1,0-1h6.19a.5.5,0,0,1,0,1Z" fill="#d1d3d4"/><path d="M105.67,130.54a.5.5,0,0,1-.5-.5v-2.12a.5.5,0,0,1,1,0V130A.5.5,0,0,1,105.67,130.54Z" fill="#d1d3d4"/><path d="M105.67,135.6a.5.5,0,0,1-.5-.5V133a.5.5,0,0,1,1,0v2.11A.5.5,0,0,1,105.67,135.6Z" fill="#d1d3d4"/><path d="M109.26,132h-2.12a.5.5,0,1,1,0-1h2.12a.5.5,0,0,1,0,1Z" fill="#d1d3d4"/><path d="M104.19,132h-2.11a.5.5,0,1,1,0-1h2.11a.5.5,0,0,1,0,1Z" fill="#d1d3d4"/><path d="M155.59,70.14a.5.5,0,0,1-.5-.5V67.53a.5.5,0,0,1,.5-.5.5.5,0,0,1,.5.5v2.11A.5.5,0,0,1,155.59,70.14Z" fill="#d1d3d4"/><path d="M155.59,75.2a.5.5,0,0,1-.5-.5V72.59a.5.5,0,0,1,.5-.5.5.5,0,0,1,.5.5V74.7A.5.5,0,0,1,155.59,75.2Z" fill="#d1d3d4"/><path d="M159.18,71.62h-2.11a.5.5,0,0,1-.5-.5.5.5,0,0,1,.5-.5h2.11a.5.5,0,0,1,.5.5A.5.5,0,0,1,159.18,71.62Z" fill="#d1d3d4"/><path d="M154.12,71.62H152a.5.5,0,0,1-.5-.5.5.5,0,0,1,.5-.5h2.11a.5.5,0,0,1,.5.5A.5.5,0,0,1,154.12,71.62Z" fill="#d1d3d4"/></g></svg>