<svg xmlns="http://www.w3.org/2000/svg" viewBox="0 0 400 300"><g id="_279_alien_flatline" data-name="#279_alien_flatline"><rect x="41.3" y="44.1" width="317.39" height="211.8" fill="#fff"/><path d="M358.7,44.1V255.9H41.3V44.1H358.7m0-1H41.3a1,1,0,0,0-1,1V255.9a1,1,0,0,0,1,1H358.7a1,1,0,0,0,1-1V44.1a1,1,0,0,0-1-1Z" fill="#231f20"/><polygon points="208.66 187.74 41.3 255.9 41.3 163.6 149.38 144.33 208.66 187.74" fill="#d1d3d4"/><path d="M66.52,227.55a.51.51,0,0,1-.47-.32.5.5,0,0,1,.3-.64l87.49-32.48a.5.5,0,0,1,.35.93L66.7,227.52Z" fill="#fff"/><path d="M54.11,175.61a.5.5,0,0,1-.11-1c19.88-4.46,71.88-16.23,73.71-17.24a.5.5,0,0,1,.5.87c-2.1,1.23-66.64,15.7-74,17.34Z" fill="#fff"/><ellipse cx="207.71" cy="170.64" rx="77.39" ry="22.6" transform="translate(-27.08 39.74) rotate(-10.26)" fill="#231f20"/><path d="M171.1,197.33a138.75,138.75,0,0,1-14.44-.7c-15.4-1.62-24.49-5.92-25.61-12.1-2.31-12.76,29.55-28.84,72.54-36.63,20.39-3.69,40-4.84,55.17-3.24,15.4,1.62,24.49,5.92,25.61,12.1,2.31,12.75-29.56,28.84-72.54,36.62A232.71,232.71,0,0,1,171.1,197.33ZM244.31,145a231.39,231.39,0,0,0-40.53,3.93c-41.71,7.55-73.88,23.44-71.71,35.42,1,5.61,10,9.72,24.69,11.26,15.1,1.59,34.59.45,54.88-3.23,41.71-7.55,73.88-23.45,71.71-35.43-1-5.61-10-9.71-24.69-11.26A140,140,0,0,0,244.31,145Z" fill="#231f20"/><path d="M303.81,136.79c-18.22-4.69-57.19-3.21-101.36,4.79s-81.19,20.28-96.61,31.06l-9.24,1.67.67,3.71c2.21,12.18,53.4,18.5,113.17,7.68S315.93,151,313.72,138.82l-.67-3.71Z" fill="#fff"/><path d="M151.49,191.76c-31.44,0-53.24-5.55-54.71-13.65l-.67-3.71a.5.5,0,0,1,.4-.58l9.13-1.65c16-11.14,54-23.34,96.72-31.08s82.57-9.63,101.47-4.81l9.13-1.66a.54.54,0,0,1,.37.08.49.49,0,0,1,.21.32l.67,3.71c2.28,12.58-43.46,36.56-103.68,47.46A336.4,336.4,0,0,1,151.49,191.76Zm-54.31-17,.58,3.22c2.19,12.06,54.57,17.78,112.59,7.28,27.68-5,54.22-13.14,74.75-22.89,18.39-8.73,29.16-17.7,28.13-23.41l-.59-3.22-8.74,1.59a.55.55,0,0,1-.22,0c-18.72-4.82-58.42-2.93-101.14,4.8s-80.57,19.9-96.41,31a.5.5,0,0,1-.2.08Z" fill="#231f20"/><ellipse cx="204.82" cy="154.71" rx="109.98" ry="22.42" transform="translate(-24.29 38.97) rotate(-10.26)" fill="#fff"/><path d="M136,184.72c-1.68,0-3.32,0-4.93-.05-21.46-.47-33.89-4.12-35-10.27-2.29-12.65,43.67-31.2,104.63-42.24,28.94-5.24,56.55-7.87,77.8-7.4,21.46.47,33.89,4.11,35,10.26,2.29,12.65-43.67,31.2-104.63,42.24C182.16,182.11,156.53,184.72,136,184.72Zm137.57-59c-20.43,0-46,2.61-72.69,7.45-28.88,5.23-55.6,12.43-75.26,20.29-19.16,7.65-29.57,15.23-28.57,20.78s13.42,9,34,9.45c21.17.46,48.73-2.16,77.6-7.39S264.33,163.84,284,156c19.16-7.66,29.57-15.24,28.57-20.79s-13.42-9-34.05-9.44C276.92,125.72,275.28,125.7,273.61,125.7Z" fill="#231f20"/><path d="M263.67,135.64c.8,4.39-25.25,12.79-58.19,18.75s-60.27,7.24-61.06,2.85,5.06-60.45,49.19-68.44S262.88,131.25,263.67,135.64Z" fill="#fff"/><path d="M156.76,160.35c-8.16,0-12.47-1-12.83-3-.47-2.57,1-17.94,7.78-33.16,6.2-14,18.49-31.64,41.81-35.86s41,8,51.73,18.92c11.64,11.9,18.45,25.75,18.91,28.32h0c.45,2.47-5.2,5.62-16.78,9.35a342.35,342.35,0,0,1-41.81,10,342.14,342.14,0,0,1-42.65,5.32Q159.54,160.35,156.76,160.35Zm46.14-71.9a51.94,51.94,0,0,0-9.2.84c-22.89,4.15-35,21.47-41.08,35.28-7,15.9-8,30.76-7.71,32.58.09.48,1.36,2.82,18,2a342.31,342.31,0,0,0,42.52-5.3,340.45,340.45,0,0,0,41.67-10c15.83-5.1,16.2-7.74,16.11-8.22h0c-.33-1.82-6.49-15.38-18.65-27.8C235.44,98.64,221.28,88.45,202.9,88.45Z" fill="#231f20"/><path d="M263.67,135.65c.56,3.09-12.24,8.18-31.41,13-8,2-17.09,4-26.78,5.73-10.55,1.91-20.54,3.34-29.24,4.26-18.48,1.94-31.28,1.58-31.82-1.41-.58-3.2,13.11-8.53,33.33-13.5,7.51-1.84,15.93-3.64,24.85-5.25,6.54-1.19,12.85-2.18,18.78-3C245.34,132.24,263,132.12,263.67,135.65Z" fill="#231f20"/><path d="M157.12,160.38c-11.1,0-13-2-13.21-3-.34-1.87,2.67-4,9.18-6.66a195.48,195.48,0,0,1,24.54-7.43c7.79-1.91,16.16-3.68,24.88-5.26,6.41-1.16,12.74-2.17,18.8-3,20.18-2.74,42-4,42.87.56h0c.87,4.84-21.94,11.13-31.79,13.61-8.34,2.1-17.37,4-26.82,5.74-10.18,1.85-20.31,3.32-29.28,4.26A187.57,187.57,0,0,1,157.12,160.38Zm94.08-26.82A233.18,233.18,0,0,0,221.45,136c-6,.82-12.36,1.83-18.76,3-8.69,1.57-17,3.34-24.82,5.24-23.21,5.7-33.34,10.69-32.94,12.91s10.19,3.2,31.25,1c8.95-.94,19-2.41,29.21-4.25,9.43-1.7,18.43-3.63,26.75-5.72,21.86-5.51,31.41-10.3,31-12.42h0C262.92,134.41,258.81,133.56,251.2,133.56Z" fill="#231f20"/><path d="M149.1,159.4c8.2-4.53,29.35-10.51,54.56-15.08s47.12-6.38,56.38-5c2.51-1.39,3.82-2.64,3.63-3.67-.79-4.39-28.13-3.11-61.06,2.85s-59,14.36-58.19,18.75C144.6,158.27,146.27,159,149.1,159.4Z" fill="#d1d3d4"/><path d="M149.1,159.9H149c-3.21-.48-4.88-1.32-5.1-2.57-1-5.49,29.44-14.05,58.59-19.33a342.14,342.14,0,0,1,42.65-5.32c12.16-.56,18.55.4,19,2.87.23,1.26-1,2.63-3.88,4.2a.54.54,0,0,1-.31.06c-9.55-1.41-31.62.55-56.22,5s-45.95,10.36-54.4,15A.54.54,0,0,1,149.1,159.9Zm102.21-26.37c-1.76,0-3.78,0-6.1.15a342.31,342.31,0,0,0-42.52,5.3c-34.84,6.31-58.42,14.64-57.78,18.17.06.34.59,1.19,4.1,1.73,8.64-4.71,30-10.6,54.56-15s46.63-6.41,56.38-5c3.1-1.74,3.29-2.72,3.23-3.06S262.15,133.53,251.31,133.53Z" fill="#231f20"/><path d="M238.54,112.49a6.09,6.09,0,0,1-9.58,6c-3.2,2.62-7.41,6.63-9,10.68-.84,2.13-.11,4.17,1.4,6.31,2.63,3.75,7.65,7.8,10.88,13.16-8,2-17.09,4-26.78,5.73-10.55,1.91-20.54,3.34-29.24,4.26a76.71,76.71,0,0,1,1.51-14.91A35.34,35.34,0,0,1,182,132.51c5.27-8.35,6.79-19.51,6.63-26.34a6.11,6.11,0,1,1,5.13-1.7,44.83,44.83,0,0,1,2.82,23.38s13.35-9.6,15.87-20.53a6.09,6.09,0,1,1,4,.29,37.4,37.4,0,0,1-5.4,17.07s8.73-6.65,15.58-9.48c0-.18-.1-.36-.13-.53a6.1,6.1,0,1,1,12-2.18Z" fill="#68e1fd"/><path d="M176.24,159.15a.51.51,0,0,1-.34-.13.51.51,0,0,1-.16-.38,77.7,77.7,0,0,1,1.52-15,35.19,35.19,0,0,1,4.3-11.38c5-7.93,6.65-18.68,6.56-25.66a6.6,6.6,0,1,1,6.2-2,45.06,45.06,0,0,1,2.91,22.12c3-2.39,12.38-10.34,14.62-19.11A6.61,6.61,0,0,1,209.44,98a6.6,6.6,0,0,1,11.92,2.59A6.66,6.66,0,0,1,217,108a37.56,37.56,0,0,1-4.28,14.91,82.28,82.28,0,0,1,13.4-8l0-.14a6.6,6.6,0,1,1,13-2.36h0A6.59,6.59,0,0,1,229,119.13c-3.14,2.62-7.06,6.44-8.54,10.24-.68,1.75-.27,3.56,1.35,5.84a47,47,0,0,0,4.12,4.79,52.46,52.46,0,0,1,6.78,8.4.5.5,0,0,1-.3.75c-8.35,2.09-17.37,4-26.82,5.73-10.18,1.85-20.31,3.32-29.28,4.26Zm13.22-64.63a5.62,5.62,0,0,0-4.61,2.41,5.61,5.61,0,0,0,3.83,8.74.49.49,0,0,1,.43.48c.17,7.11-1.49,18.35-6.71,26.63a34.65,34.65,0,0,0-4.16,11.06,76.16,76.16,0,0,0-1.5,14.25c8.81-.94,18.7-2.39,28.65-4.19,9.18-1.66,18-3.53,26.09-5.56a55.12,55.12,0,0,0-6.3-7.65,48.23,48.23,0,0,1-4.21-4.9c-1.13-1.61-2.52-4.06-1.46-6.78,1.6-4.12,5.85-8.2,9.13-10.89a.51.51,0,0,1,.61,0,5.59,5.59,0,0,0,8.8-5.52h0a5.6,5.6,0,1,0-11,2c0,.16.08.33.12.49a.51.51,0,0,1-.29.59c-6.71,2.77-15.38,9.35-15.47,9.41a.48.48,0,0,1-.63,0,.5.5,0,0,1-.1-.63A36.78,36.78,0,0,0,216,107.58a.5.5,0,0,1,.36-.46,5.62,5.62,0,0,0,4-6.39,5.59,5.59,0,1,0-7.74,6.13.51.51,0,0,1,.29.57c-2.54,11-15.51,20.43-16.06,20.83a.5.5,0,0,1-.79-.49,44,44,0,0,0-2.8-23.11.49.49,0,0,1,.12-.54,5.61,5.61,0,0,0-3.93-9.6Z" fill="#231f20"/><circle cx="232.54" cy="113.58" r="3.89" fill="#fff"/><circle cx="189.46" cy="100.12" r="4.31" fill="#fff"/><circle cx="189.46" cy="100.12" r="2.5" fill="#231f20"/><circle cx="214.86" cy="101.72" r="4.31" fill="#fff"/><circle cx="214.86" cy="101.72" r="2.5" fill="#231f20"/><circle cx="232.54" cy="113.58" r="2.5" fill="#231f20"/><path d="M189,106.68a3.13,3.13,0,0,1-.47,0,.49.49,0,0,1-.45-.54.5.5,0,0,1,.54-.45,5.71,5.71,0,0,0,2.74-.49.51.51,0,0,1,.69.18.52.52,0,0,1-.19.69A6,6,0,0,1,189,106.68Z" fill="#231f20"/><path d="M158,126.47a.45.45,0,0,1-.16,0,.49.49,0,0,1-.31-.63c5.65-16.44,15.87-24.44,16-24.52a.5.5,0,1,1,.61.79c-.1.08-10.09,7.91-15.64,24A.49.49,0,0,1,158,126.47Z" fill="#d1d3d4"/><path d="M154.14,134.94h0a.52.52,0,0,1-.45-.55,21.5,21.5,0,0,1,1.91-4.36.5.5,0,1,1,.88.48,19.72,19.72,0,0,0-1.79,4A.5.5,0,0,1,154.14,134.94Z" fill="#d1d3d4"/><path d="M191.46,141.39s-2.05-3.93-.13-4.69,3.43,3.42,3.43,3.42" fill="#fff"/><path d="M191.46,141.89a.48.48,0,0,1-.44-.27c-.15-.28-1.44-2.83-.86-4.37a1.68,1.68,0,0,1,1-1,1.76,1.76,0,0,1,1.42,0c1.55.7,2.55,3.37,2.66,3.67a.49.49,0,0,1-.29.64.51.51,0,0,1-.65-.3c-.25-.71-1.15-2.65-2.13-3.1a.78.78,0,0,0-.65,0,.68.68,0,0,0-.41.42c-.36,1,.46,2.91.8,3.57a.5.5,0,0,1-.21.68A.46.46,0,0,1,191.46,141.89Z" fill="#231f20"/><path d="M209.82,137.67s.65-3.51,2-3.55,1.27,2.79,1.1,4.32" fill="#fff"/><path d="M212.93,138.94h-.06a.51.51,0,0,1-.44-.56c.2-1.79.07-3.22-.32-3.65a.33.33,0,0,0-.26-.11c-.62,0-1.3,1.84-1.54,3.14a.5.5,0,0,1-1-.18c.12-.65.81-3.91,2.49-4a1.31,1.31,0,0,1,1,.43c.8.86.76,2.89.58,4.45A.49.49,0,0,1,212.93,138.94Z" fill="#231f20"/><path d="M188.05,143.44a.5.5,0,0,1-.45-.27.49.49,0,0,1,.22-.67c.75-.39,18.4-9.29,27.15-3.57a.5.5,0,1,1-.55.83c-8.27-5.4-26,3.53-26.15,3.63A.59.59,0,0,1,188.05,143.44Z" fill="#231f20"/><circle cx="296.59" cy="212.46" r="25.97" fill="#fff"/><path d="M296.6,238.93a26.47,26.47,0,0,1-7-52,26.47,26.47,0,1,1,14,51A26.53,26.53,0,0,1,296.6,238.93Zm0-52a25.51,25.51,0,1,0,12.55,3.34A25.55,25.55,0,0,0,296.63,187Z" fill="#d1d3d4"/><path d="M265.31,226.68c-4.64,0-8.84-.68-9.48-3-1.06-3.87,8.69-8.85,14.59-11.48a.5.5,0,0,1,.66.25.49.49,0,0,1-.25.66c-11.08,4.93-14.51,8.56-14,10.3s5.28,3.12,17.32,1.68a185.91,185.91,0,0,0,48.24-13.28c11.07-4.91,14.5-8.53,14-10.29s-5.29-3.11-17.32-1.68a.5.5,0,1,1-.12-1c6.41-.76,17.33-1.47,18.4,2.4s-8.67,8.86-14.57,11.48A171.77,171.77,0,0,1,299,221a170.22,170.22,0,0,1-24.72,5A77.06,77.06,0,0,1,265.31,226.68Z" fill="#d1d3d4"/><circle cx="112.56" cy="80.1" r="17.49" fill="#fff"/><path d="M112.56,98.09a18,18,0,1,1,18-18A18,18,0,0,1,112.56,98.09Zm0-35a17,17,0,1,0,17,17A17,17,0,0,0,112.56,63.1Z" fill="#d1d3d4"/><circle cx="149.38" cy="240.09" r="8.84" fill="#fff"/><path d="M149.38,249.43a9.34,9.34,0,1,1,9.33-9.34A9.35,9.35,0,0,1,149.38,249.43Zm0-17.67a8.34,8.34,0,1,0,8.33,8.33A8.35,8.35,0,0,0,149.38,231.76Z" fill="#d1d3d4"/><path d="M278.72,67.62a1.9,1.9,0,0,0,0,3.8C281.16,71.42,281.17,67.62,278.72,67.62Z" fill="#d1d3d4"/><path d="M128,117.69c-3.67,0-3.68,5.7,0,5.7S131.63,117.69,128,117.69Z" fill="#d1d3d4"/><path d="M161.69,67.09c-3.67,0-3.67,5.7,0,5.7S165.37,67.09,161.69,67.09Z" fill="#d1d3d4"/><path d="M68.36,83.81a1.9,1.9,0,0,0,0,3.8A1.9,1.9,0,0,0,68.36,83.81Z" fill="#d1d3d4"/><path d="M194.75,212c-4.89,0-4.9,7.61,0,7.61S199.65,212,194.75,212Z" fill="#d1d3d4"/><path d="M211,237.24c-3.67,0-3.68,5.71,0,5.71S214.66,237.24,211,237.24Z" fill="#d1d3d4"/><path d="M266.91,194.13a.5.5,0,0,1-.5-.5v-5.89a.51.51,0,0,1,.5-.5.5.5,0,0,1,.5.5v5.89A.5.5,0,0,1,266.91,194.13Z" fill="#d1d3d4"/><path d="M269.86,191.19H264a.5.5,0,0,1-.5-.5.5.5,0,0,1,.5-.5h5.89a.5.5,0,0,1,.5.5A.51.51,0,0,1,269.86,191.19Z" fill="#d1d3d4"/><path d="M146.43,106.67a.5.5,0,0,1-.5-.5v-5.89a.51.51,0,0,1,.5-.5.5.5,0,0,1,.5.5v5.89A.5.5,0,0,1,146.43,106.67Z" fill="#d1d3d4"/><path d="M149.38,103.73h-5.89a.5.5,0,0,1,0-1h5.89a.5.5,0,0,1,0,1Z" fill="#d1d3d4"/><path d="M58.84,131.88a.5.5,0,0,1-.5-.5v-5.89a.5.5,0,0,1,.5-.5.5.5,0,0,1,.5.5v5.89A.51.51,0,0,1,58.84,131.88Z" fill="#d1d3d4"/><path d="M61.78,128.93H55.89a.5.5,0,1,1,0-1h5.89a.5.5,0,0,1,0,1Z" fill="#d1d3d4"/><path d="M310.93,106.67a.5.5,0,0,1-.5-.5v-5.89a.5.5,0,0,1,1,0v5.89A.5.5,0,0,1,310.93,106.67Z" fill="#d1d3d4"/><path d="M313.87,103.73H308a.5.5,0,0,1,0-1h5.89a.5.5,0,0,1,0,1Z" fill="#d1d3d4"/><path d="M109.15,134.19a.5.5,0,0,1-.5-.5v-2a.5.5,0,0,1,.5-.5.51.51,0,0,1,.5.5v2A.5.5,0,0,1,109.15,134.19Z" fill="#d1d3d4"/><path d="M109.15,139a.5.5,0,0,1-.5-.5v-2a.5.5,0,0,1,.5-.5.5.5,0,0,1,.5.5v2A.5.5,0,0,1,109.15,139Z" fill="#d1d3d4"/><path d="M112.56,135.59h-2a.5.5,0,0,1-.5-.5.5.5,0,0,1,.5-.5h2a.51.51,0,0,1,.5.5A.5.5,0,0,1,112.56,135.59Z" fill="#d1d3d4"/><path d="M107.74,135.59h-2a.5.5,0,0,1-.5-.5.5.5,0,0,1,.5-.5h2a.5.5,0,0,1,.5.5A.5.5,0,0,1,107.74,135.59Z" fill="#d1d3d4"/><path d="M275.31,90.47a.5.5,0,0,1-.5-.5V88a.5.5,0,0,1,.5-.5.5.5,0,0,1,.5.5v2A.5.5,0,0,1,275.31,90.47Z" fill="#d1d3d4"/><path d="M275.31,95.29a.5.5,0,0,1-.5-.5v-2a.5.5,0,0,1,.5-.5.5.5,0,0,1,.5.5v2A.51.51,0,0,1,275.31,95.29Z" fill="#d1d3d4"/><path d="M278.72,91.88h-2a.5.5,0,0,1-.5-.5.5.5,0,0,1,.5-.5h2a.5.5,0,0,1,.5.5A.51.51,0,0,1,278.72,91.88Z" fill="#d1d3d4"/><path d="M273.9,91.88h-2a.5.5,0,0,1-.5-.5.5.5,0,0,1,.5-.5h2a.5.5,0,0,1,.5.5A.5.5,0,0,1,273.9,91.88Z" fill="#d1d3d4"/><path d="M248.25,65.13a1,1,0,0,0,0,1.9A1,1,0,0,0,248.25,65.13Z" fill="#d1d3d4"/><path d="M185.25,75.89a.48.48,0,0,0,0,1A.48.48,0,0,0,185.25,75.89Z" fill="#d1d3d4"/><path d="M165.13,87.64a1.89,1.89,0,0,0-.49-.84l-.38-.3a1.92,1.92,0,0,0-1-.26h-.54a1.43,1.43,0,0,0-.73.17,1.28,1.28,0,0,0-.61.39,1.33,1.33,0,0,0-.39.61,1.43,1.43,0,0,0-.17.73l.07.51a1.89,1.89,0,0,0,.49.84l.38.3a1.92,1.92,0,0,0,1,.26h.54a1.43,1.43,0,0,0,.73-.17,1.36,1.36,0,0,0,.61-.39,2,2,0,0,0,.56-1.35C165.18,88,165.16,87.81,165.13,87.64Z" fill="#d1d3d4"/><path d="M347,135.45a1.43,1.43,0,0,0,0,2.85A1.43,1.43,0,0,0,347,135.45Z" fill="#d1d3d4"/><circle cx="85.06" cy="110.09" r="1.86" fill="#fff"/><path d="M85.06,112.45a2.36,2.36,0,1,1,2.37-2.36A2.36,2.36,0,0,1,85.06,112.45Zm0-3.72a1.36,1.36,0,1,0,1.37,1.36A1.36,1.36,0,0,0,85.06,108.73Z" fill="#d1d3d4"/><circle cx="238.26" cy="215.77" r="2.31" fill="#fff"/><path d="M238.26,218.58a2.81,2.81,0,1,1,2.81-2.81A2.81,2.81,0,0,1,238.26,218.58Zm0-4.62a1.81,1.81,0,1,0,1.81,1.81A1.81,1.81,0,0,0,238.26,214Z" fill="#d1d3d4"/><path d="M324.7,182.26a1.43,1.43,0,0,0,0,2.85A1.43,1.43,0,0,0,324.7,182.26Z" fill="#d1d3d4"/><path d="M311.85,160.24a1,1,0,0,0,0,1.9A1,1,0,0,0,311.85,160.24Z" fill="#d1d3d4"/><path d="M352.06,108.64a49.29,49.29,0,0,1-49.23-49.23,48.69,48.69,0,0,1,1.26-11.1.5.5,0,0,1,.6-.37.5.5,0,0,1,.38.6,47.24,47.24,0,0,0-1.24,10.87,48.2,48.2,0,0,0,53.48,47.94.5.5,0,0,1,.11,1A50.66,50.66,0,0,1,352.06,108.64Z" fill="#d1d3d4"/><path d="M44.86,200a.51.51,0,0,1-.48-.36.5.5,0,0,1,.34-.62l39.19-11.81a.5.5,0,1,1,.29,1L45,200A.32.32,0,0,1,44.86,200Z" fill="#fff"/><path d="M45.18,221.35a.51.51,0,0,1-.47-.32.52.52,0,0,1,.3-.65c1.08-.4,26.52-9.91,27.32-10.17a.5.5,0,1,1,.32.94c-.79.27-27,10.07-27.29,10.17A.57.57,0,0,1,45.18,221.35Z" fill="#fff"/><path d="M86.93,205a.5.5,0,0,1-.17-1l26.69-9.53a.5.5,0,0,1,.34.94L87.09,205A.45.45,0,0,1,86.93,205Z" fill="#fff"/></g></svg>