<svg xmlns="http://www.w3.org/2000/svg" viewBox="0 0 400 300"><g id="_199_american_football_flatline" data-name="#199_american_football_flatline"><path d="M325.79,256.83h-.05L74.87,230.5a.5.5,0,0,1-.44-.55.5.5,0,0,1,.55-.45l250.86,26.34a.49.49,0,0,1,.45.54A.5.5,0,0,1,325.79,256.83Z" fill="#d1d3d4"/><path d="M332.16,237.84h-.05L81.24,211.5a.5.5,0,0,1-.45-.55.5.5,0,0,1,.55-.44l250.87,26.33a.5.5,0,0,1,.45.55A.51.51,0,0,1,332.16,237.84Z" fill="#d1d3d4"/><path d="M179.27,217.29s-11.73.63-12.86,1.57-1.69,10.32,0,14.83,6.2,14.53,10.89,14.21-.38-17.22.19-18.72a57.56,57.56,0,0,1,3-5.54Z" fill="#231f20"/><path d="M177.08,248.4c-5.27,0-9.84-11.09-11.13-14.54-1.67-4.44-1.33-14.16.14-15.38,1.17-1,10.36-1.53,13.15-1.68a.52.52,0,0,1,.52.4l1.22,6.35a.53.53,0,0,1-.06.35,56.48,56.48,0,0,0-3,5.46,24.28,24.28,0,0,0,.61,4.28c.89,4.9,2.11,11.63.33,13.91a2.05,2.05,0,0,1-1.56.84Zm1.78-30.59c-5.54.31-11.49.92-12.13,1.43-.81.71-1.59,9.63.15,14.27,2.42,6.46,6.52,13.9,10.2,13.9h.18a1.1,1.1,0,0,0,.85-.46c1.5-1.93.23-8.94-.53-13.13-.54-2.93-.77-4.25-.56-4.8a53.29,53.29,0,0,1,2.94-5.46Z" fill="#231f20"/><path d="M99.3,261.51s-5.12,3.11-7.27,5.75-4.3,4.82-3.39,6,41.45,8.64,41.91,6.19S111,267.08,111,267.08Z" fill="#231f20"/><path d="M128.3,280.4c-8.77,0-39-5.54-40.05-6.86s.52-3.16,2.48-5.5l.91-1.09c2.19-2.68,7.19-5.74,7.4-5.87a.52.52,0,0,1,.47,0l11.65,5.58c6.14,3,20.35,10.33,19.88,12.87-.07.36-.37.61-.91.74A8.24,8.24,0,0,1,128.3,280.4Zm-29-18.32c-1,.63-5.09,3.26-6.92,5.5l-.92,1.1c-1.47,1.76-3,3.57-2.46,4.24.7.46,9.8,2.42,20.4,4.2,12.9,2.15,19.58,2.62,20.62,2.13-.35-1.53-10.18-7.21-19.32-11.72Z" fill="#231f20"/><path d="M232.82,236.16s-43.69-2.64-56.69-9.56c0,0-.85-.91-1.69-4.08a4.5,4.5,0,0,1,1.69-4.86s18.46-4.55,23-4.4c5.69.18,6.69,1.09,6.69,1.09,12.93-7.3,10.18-9,10.18-9Z" fill="#fff"/><path d="M232.82,236.68h0c-1.79-.11-44-2.73-56.91-9.62a.69.69,0,0,1-.13-.11c-.1-.1-1-1.1-1.81-4.3a5.07,5.07,0,0,1,1.9-5.42l.16-.07c.75-.18,18-4.42,22.92-4.42h.24c4.3.14,6,.69,6.68,1,8.62-4.91,9.79-7.06,9.9-7.76v-.07l-.18-.33a.52.52,0,0,1,.1-.62.53.53,0,0,1,.63-.07,1.06,1.06,0,0,1,.45.7l16.53,30.31a.51.51,0,0,1,0,.52A.52.52,0,0,1,232.82,236.68ZM176.46,226.2c11.81,6.19,49.07,9,55.46,9.39l-15.54-28.48c-1.1,1.87-4.55,4.45-10.3,7.69a.52.52,0,0,1-.6-.07h0s-1.15-.79-6.36-1h-.21c-4.59,0-21.14,4-22.57,4.37a4,4,0,0,0-1.41,4.25A12.1,12.1,0,0,0,176.46,226.2Z" fill="#231f20"/><path d="M219.11,143.23s16.78,45,19,63.48-.19,32.4-9.44,29.45c-5.38-1.7-14-8.38-22.81-21.81,2.82-7.14-9.14-20.58-12.22-27.88C186.28,169.09,219.11,143.23,219.11,143.23Z" fill="#231f20"/><path d="M231,237.06a8.18,8.18,0,0,1-2.49-.42c-5.31-1.69-14.15-8.35-23.08-22a.53.53,0,0,1,0-.46c1.83-4.65-3.05-12.32-7.36-19.08a66.4,66.4,0,0,1-4.86-8.42c-7.4-17.53,24.3-42.77,25.65-43.83a.52.52,0,0,1,.45-.09.51.51,0,0,1,.33.31c.17.45,16.82,45.27,19,63.6,1,8.8,1.93,24.28-3.84,29.05A5.75,5.75,0,0,1,231,237.06Zm-24.6-22.77c8.74,13.3,17.29,19.78,22.41,21.4a5.36,5.36,0,0,0,5.32-.75c3.95-3.26,5.22-13.53,3.48-28.17-2-17-16.64-57.12-18.71-62.72-4.19,3.45-31.4,26.6-24.81,42.23a65.22,65.22,0,0,0,4.78,8.28C203.22,201.41,208.15,209.16,206.38,214.29Z" fill="#231f20"/><path d="M130.21,220.12s-5.86.73-11.73,6.53-12.11,25.22-19.18,34.86c0,0-1.35,5.49,4.7,6.76s7-1.19,7-1.19l37.3-33A99.18,99.18,0,0,1,130.21,220.12Z" fill="#fff"/><path d="M107.09,269.14a16,16,0,0,1-3.2-.37A6.4,6.4,0,0,1,99.53,266a6.56,6.56,0,0,1-.74-4.65.51.51,0,0,1,.09-.18c3.32-4.54,6.46-11.24,9.5-17.73,3.39-7.24,6.59-14.09,9.74-17.2,5.92-5.85,11.78-6.64,12-6.67a.48.48,0,0,1,.42.15,99.15,99.15,0,0,0,17.94,13.9.52.52,0,0,1,.09.84l-37.23,32.9C111.13,267.85,110.16,269.14,107.09,269.14Zm-7.31-7.41a5.54,5.54,0,0,0,.63,3.77,5.43,5.43,0,0,0,3.69,2.26c5.45,1.14,6.36-.84,6.37-.86a.56.56,0,0,1,.14-.2l36.77-32.51A102.27,102.27,0,0,1,130,220.68a22.62,22.62,0,0,0-11.2,6.34c-3,3-6.18,9.74-9.53,16.9C106.28,250.41,103.14,257.12,99.78,261.73Z" fill="#231f20"/><path d="M220.76,145.88s-12.75,32.57-19.53,36a26.39,26.39,0,0,1-13.42,2.75s-24.74,38.91-42.38,51.51c0,0-11.45-1.47-15.89-16.83,0,0,13.79-33.53,21.88-44.61,0,0,1.06-28.63,14.16-47.08Z" fill="#231f20"/><path d="M145.43,236.66h-.06c-.12,0-11.83-1.7-16.31-17.19a.47.47,0,0,1,0-.33c.13-.33,13.8-33.47,21.85-44.6.11-2.29,1.71-29.52,14.25-47.19a.48.48,0,0,1,.56-.18l55.17,18.24a.49.49,0,0,1,.31.65c-.52,1.34-12.89,32.78-19.76,36.28a26.84,26.84,0,0,1-13.39,2.83c-2.18,3.39-25.58,39.42-42.35,51.4A.52.52,0,0,1,145.43,236.66Zm-15.37-17.3c2.26,7.65,6.31,11.67,9.32,13.7a16.61,16.61,0,0,0,5.93,2.58c17.35-12.53,41.83-50.87,42.08-51.26a.5.5,0,0,1,.47-.23A26.15,26.15,0,0,0,201,181.46c6.09-3.11,17.47-31.2,19.09-35.27l-54.32-18c-12.67,18.13-13.85,46.22-13.86,46.5a.55.55,0,0,1-.09.28C144.14,185.52,131.11,216.83,130.06,219.36Z" fill="#231f20"/><path d="M242.72,125.17s4.39,21,9.5,26.14,24.61,22.47,24.61,22.47l11.22-3.51s-4.66-19-15.33-30.88c0,0,4.86-21.27-2.91-32.56S242.72,125.17,242.72,125.17Z" fill="#fff"/><path d="M276.83,174.3a.56.56,0,0,1-.35-.13c-.19-.18-19.56-17.45-24.63-22.5s-9.46-25.53-9.64-26.4a.55.55,0,0,1,.08-.39c.56-.85,13.81-21,23-21.13a5.8,5.8,0,0,1,5,2.79c7.44,10.79,3.61,30.12,3,32.71,10.51,11.82,15.22,30.71,15.27,30.9a.51.51,0,0,1-.34.61L277,174.28Zm-33.56-49c.47,2.2,4.64,21,9.31,25.67S274.79,171.28,277,173.2l10.48-3.28c-.8-3-5.56-19.59-15.09-30.18a.49.49,0,0,1-.12-.46c0-.21,4.71-21.19-2.84-32.16a4.73,4.73,0,0,0-4.06-2.34h-.07C257.09,104.88,244.61,123.25,243.27,125.27Z" fill="#231f20"/><path d="M268.05,80.75s-72.92-22.28-87.56-15.83-15.86,25-15.86,25a77.89,77.89,0,0,0-12.39,19.78l25.15,8.73-6.19,23.65s11.87,13.24,29.28,13.24,21.33-3.86,21.33-3.86,13.44-13.88,17.88-17,3.45-2.37,3.45-2.37,19.1-.82,30.36-9C273.5,123.18,291.42,83.57,268.05,80.75Z" fill="#68e1fd"/><path d="M241.08,80.5l-3.16,7.23S229.15,98.17,222,93.44,215.92,77,215.92,77s15.65-28.6,18.51-41.84c0,0,13.88,4,26.08,6.7,0,0-.58,31.85-8.09,37.76C247.33,83.63,241.08,80.5,241.08,80.5Z" fill="#fff"/><path d="M226.08,95.21a7.82,7.82,0,0,1-4.37-1.33c-7.34-4.85-6.35-16.42-6.3-16.92a.76.76,0,0,1,.06-.2c.16-.28,15.65-28.68,18.45-41.7a.55.55,0,0,1,.24-.34.54.54,0,0,1,.41,0c.14,0,14,4,26.05,6.7a.5.5,0,0,1,.4.51c0,1.31-.66,32.16-8.28,38.15-4.51,3.55-9.77,1.82-11.4,1.15l-3,6.75a.57.57,0,0,1-.08.13C238,88.41,232.23,95.21,226.08,95.21Zm-9.65-18c-.08,1.15-.62,11.58,5.84,15.85s14.52-4.77,15.2-5.56l3.13-7.16a.55.55,0,0,1,.3-.28.53.53,0,0,1,.41,0c.06,0,6,2.93,10.79-.82,6.78-5.33,7.78-33.17,7.88-36.94-10.64-2.4-22.55-5.73-25.17-6.47C231.77,48.8,217.42,75.33,216.43,77.16Zm21.49,10.57h0Z" fill="#231f20"/><path d="M259.74,46.28a39.91,39.91,0,0,0-10.93-7.55A27,27,0,0,0,236,36a3.42,3.42,0,0,0-1.92.49c-1.23.91-2.79,1.13-4.12,2.09a13,13,0,0,0-3.59,3.89c-1.69,2.82-4.34,13,1.2,13.32,2.51.16,5.21-1.58,7.27-2.8,2.57-1.53,4.79-3.38,7.47-4.64.88-.41,2.08-1.89,3-1.91S248.15,48.34,249,49q3.94,3,8,5.77l-1.26-3.46a53.5,53.5,0,0,1,6.1,4.3c.37.34,3.57,3.86,3.62,3.53C266.74,55.05,262.29,48.91,259.74,46.28Z" fill="#231f20"/><path d="M265.38,59.64c-.31,0-.78-.42-3.17-3l-.73-.76a27.42,27.42,0,0,0-4-2.92l-.75-.48.73,2a.49.49,0,0,1-.75.58c-2.71-1.87-5.41-3.81-8-5.79-.23-.17-.52-.43-.85-.73-.69-.63-1.87-1.65-2.43-1.68a4,4,0,0,0-1.59,1,6.71,6.71,0,0,1-1.25.88A33.77,33.77,0,0,0,238,51.56c-.93.63-1.88,1.27-2.88,1.87l-.44.26c-2.06,1.23-4.61,2.76-7.11,2.61a3.59,3.59,0,0,1-3.1-2c-1.77-3.35.25-10,1.5-12.12a13.61,13.61,0,0,1,3.73-4,9.84,9.84,0,0,1,2.21-1.13,8.54,8.54,0,0,0,1.91-1,3.81,3.81,0,0,1,2.19-.59,27.39,27.39,0,0,1,13,2.77,40.39,40.39,0,0,1,11.08,7.65h0c2.62,2.72,7.2,9,5.81,13.33a.57.57,0,0,1-.34.34A.65.65,0,0,1,265.38,59.64Zm-9.66-8.87a.52.52,0,0,1,.29.09c.63.44,1.3.87,2,1.31a29.08,29.08,0,0,1,4.17,3c.1.09.39.4.77.81s1.55,1.64,2.19,2.25c.48-3.68-3.05-8.86-5.73-11.64h0a39.6,39.6,0,0,0-10.8-7.44,26.2,26.2,0,0,0-12.54-2.67,3,3,0,0,0-1.64.39A9.49,9.49,0,0,1,232.28,38a9.19,9.19,0,0,0-2,1,12.52,12.52,0,0,0-3.46,3.73c-1.34,2.25-2.95,8.34-1.47,11.14a2.55,2.55,0,0,0,2.28,1.43c2.18.14,4.6-1.3,6.54-2.46l.44-.27c1-.58,1.92-1.22,2.83-1.83a34.63,34.63,0,0,1,4.68-2.83,6,6,0,0,0,1-.75A4.1,4.1,0,0,1,245.36,46c1-.06,2.13,1,3.14,1.93.3.28.56.52.77.68,2.19,1.65,4.44,3.29,6.71,4.87l-.73-2a.51.51,0,0,1,.17-.57A.47.47,0,0,1,255.72,50.77Z" fill="#231f20"/><path d="M238.9,85.55a11.65,11.65,0,0,1-4.35-4.22c-1-1.75-.38-5.75-.38-5.75s1.24,2.61,6.91,4.92Z" fill="#231f20"/><path d="M238.9,86.05a.43.43,0,0,1-.22-.06,11.9,11.9,0,0,1-4.56-4.41c-1.08-1.89-.47-5.9-.44-6.07a.5.5,0,0,1,.94-.14s1.27,2.48,6.64,4.67a.5.5,0,0,1,.28.27.48.48,0,0,1,0,.39l-2.17,5a.55.55,0,0,1-.29.27A.47.47,0,0,1,238.9,86.05Zm-4.37-9.15a8.82,8.82,0,0,0,.45,4.19,11.27,11.27,0,0,0,3.69,3.75l1.75-4.08A16.43,16.43,0,0,1,234.53,76.9Z" fill="#231f20"/><path d="M248.81,55.77s2.41,8.39.92,9.24-4.3-.94-4.3-.94" fill="#fff"/><path d="M248.76,65.74a8,8,0,0,1-3.6-1.24.51.51,0,0,1-.16-.69.49.49,0,0,1,.69-.16c.67.42,2.8,1.49,3.8.93.59-.34,0-4.48-1.16-8.67a.51.51,0,0,1,.35-.62.49.49,0,0,1,.61.34c.76,2.64,2.34,8.88.69,9.82A2.55,2.55,0,0,1,248.76,65.74Z" fill="#231f20"/><ellipse cx="242.98" cy="53.79" rx="1.69" ry="1.2" transform="translate(118.62 269.36) rotate(-72.5)" fill="#231f20"/><ellipse cx="254.25" cy="57.34" rx="1.69" ry="1.2" transform="translate(123.12 282.59) rotate(-72.5)" fill="#231f20"/><path d="M262.57,48.68s-16.15-6.23-23.76-3.58-9.33,7.71-9.18,13c0,0,7.73,2.87,6.49,8.57s-4.27,10.4-9.35,8.38-14-8.29-14-8.29-8.19-18.7-1.53-32.69,27.15-17.36,41.39-10.81C265.24,29.12,264.83,34.83,262.57,48.68Z" fill="#fff"/><path d="M229.07,76.1a6.62,6.62,0,0,1-2.49-.52c-5.08-2-13.75-8.09-14.12-8.35a.54.54,0,0,1-.17-.22c-.08-.18-8.21-19.07-1.53-33.11,6.8-14.28,27.83-17.62,42.08-11.06,12.94,6,12.53,11.89,10.24,25.92a.53.53,0,0,1-.26.37.49.49,0,0,1-.44,0c-.16-.06-16.06-6.13-23.4-3.57-6.09,2.12-8.91,6-8.84,12.21,1.51.66,7.65,3.67,6.49,9-.95,4.34-2.74,7.41-5,8.64A5.25,5.25,0,0,1,229.07,76.1Zm-15.89-9.63c1.08.75,9.13,6.31,13.78,8.15a4.75,4.75,0,0,0,4.14-.06c2-1.09,3.64-3.91,4.52-8,1.13-5.2-6.1-8-6.17-8a.52.52,0,0,1-.34-.47c-.18-6.91,2.84-11.22,9.53-13.54,7-2.43,20.48,2.24,23.52,3.36,2.2-13.61,2.19-18.7-9.75-24.2-13.82-6.36-34.17-3.2-40.71,10.56C205.5,47.36,212.47,64.79,213.18,66.47Z" fill="#231f20"/><ellipse cx="223.48" cy="63.23" rx="3.54" ry="1.9" transform="translate(127.68 274.8) rotate(-81.44)" fill="#231f20"/><path d="M256.36,80.53c-18.83,0-33.77-15-33.92-15.17a.51.51,0,0,1,0-.73.52.52,0,0,1,.73,0c.15.15,15.61,15.68,34.68,14.82,1.83-.08,3.15-2.34,3.78-4.42.71-2.35.53-4.24.08-4.56-1.32-.84-23.64-4.49-38.32-6.74a.52.52,0,0,1-.43-.59.52.52,0,0,1,.59-.43c6.18.94,37.13,5.74,38.77,6.93,1.13.82.95,3.52.3,5.68-.94,3.14-2.71,5.07-4.73,5.16C257.38,80.51,256.87,80.53,256.36,80.53Z" fill="#231f20"/><path d="M243.21,78.2a.52.52,0,0,1-.35-.9,9.73,9.73,0,0,0,2.87-9.77.52.52,0,0,1,.33-.65.51.51,0,0,1,.65.33,10.79,10.79,0,0,1-3.16,10.85A.51.51,0,0,1,243.21,78.2Z" fill="#231f20"/><path d="M255.4,80.59a.54.54,0,0,1-.36-.14.51.51,0,0,1,0-.73c3.55-3.8,3-10.38,3-10.45a.53.53,0,0,1,.47-.56.51.51,0,0,1,.56.47c0,.29.59,7.1-3.29,11.25A.54.54,0,0,1,255.4,80.59Z" fill="#231f20"/><path d="M247.65,72.94c-4.46,0-7.78-4.22-7.83-4.28a.5.5,0,0,1,.79-.61c.21.27,5.17,6.54,10.88,2.61a.49.49,0,0,1,.69.12.5.5,0,0,1-.13.7A7.61,7.61,0,0,1,247.65,72.94Z" fill="#231f20"/><path d="M155.71,109.75a57,57,0,0,0-8,28.07c-.37,16.7,4.51,26.09,9,26.28s28.54-12.39,41.11-29.66l-4.13-10.51-14.83,4.88,4.7-16.33" fill="#fff"/><path d="M156.83,164.61h-.11c-4.89-.2-9.89-9.67-9.5-26.81a58,58,0,0,1,8.06-28.33.52.52,0,0,1,.72-.14.5.5,0,0,1,.14.71,57,57,0,0,0-7.89,27.79c-.35,15.67,4.15,25.57,8.52,25.75h.07c4.12,0,27.82-12.09,40.43-29.22l-3.85-9.79-14.37,4.73a.52.52,0,0,1-.65-.64l4.69-16.33a.52.52,0,0,1,1,.29L179.66,128l13.9-4.57a.5.5,0,0,1,.64.3l4.13,10.51a.51.51,0,0,1-.06.49C185.55,152.21,161.58,164.61,156.83,164.61Z" fill="#231f20"/><path d="M163.17,129.32a.51.51,0,0,1-.49-.36.52.52,0,0,1,.35-.65,26.87,26.87,0,0,1,16.05,0,.52.52,0,0,1-.37,1,26.32,26.32,0,0,0-15.39,0A.39.39,0,0,1,163.17,129.32Z" fill="#231f20"/><ellipse cx="204.99" cy="104.26" rx="14.94" ry="25.56" fill="#fff"/><path d="M205,130.34c-5.09,0-15.46-12.07-15.46-26.08,0-14.8,10.3-26.08,15.46-26.08s15.46,11.28,15.46,26.08C220.45,118.27,210.08,130.34,205,130.34Zm0-51.13c-4.88,0-14.43,11.34-14.43,25.05,0,13.94,10.36,25,14.43,25s14.43-11.11,14.43-25C219.42,90.55,209.87,79.21,205,79.21Z" fill="#231f20"/><path d="M211.25,118.82a.54.54,0,0,1-.21,0,.5.5,0,0,1-.24-.66c8.38-18.15-3.35-32.9-3.47-33a.5.5,0,0,1,.08-.7.5.5,0,0,1,.7.07c.12.15,12.23,15.39,3.6,34.1A.52.52,0,0,1,211.25,118.82Z" fill="#d1d3d4"/><path d="M206.92,90.47a.51.51,0,0,1-.48-.35.51.51,0,0,1,.33-.63c.17,0,4.19-1.3,6.19-1.22a.5.5,0,0,1,.48.51.53.53,0,0,1-.52.49,25.11,25.11,0,0,0-5.85,1.18Z" fill="#d1d3d4"/><path d="M209.26,96.63a.5.5,0,0,1-.46-.31.49.49,0,0,1,.27-.65,19.48,19.48,0,0,1,5.79-1.41.5.5,0,0,1,0,1h-.11a19.07,19.07,0,0,0-5.27,1.33A.43.43,0,0,1,209.26,96.63Z" fill="#d1d3d4"/><path d="M216.59,103.36h-.12a16.68,16.68,0,0,0-5.36,0,.5.5,0,0,1-.16-1,17.68,17.68,0,0,1,5.77,0,.5.5,0,0,1,.36.61A.5.5,0,0,1,216.59,103.36Z" fill="#d1d3d4"/><path d="M215.06,112.62a.65.65,0,0,1-.19,0,19.69,19.69,0,0,0-5-.9.49.49,0,0,1-.47-.52.47.47,0,0,1,.52-.47,19.66,19.66,0,0,1,5.3,1,.5.5,0,0,1-.19,1Z" fill="#d1d3d4"/><path d="M198.79,136.22s-5-3.86-7-7.41-1.55-5.4-1.55-5.4S192,110,193.3,109.05,203.72,96,205,96.52s2.67,1.55,2.25,3.52-5.07,6.76-4.79,9,.85,2.82.85,2.82,3.23,1.12,6.89-2.12,7.89-8.44,9.44-6.89-2.4,8.58-8.45,11.54c0,0,5.91-2.82,7.88-2s.17,9.29-1.67,11.82-7.9,5.64-12.33,7.61A16.81,16.81,0,0,0,198.79,136.22Z" fill="#fff"/><path d="M198.79,136.74a.56.56,0,0,1-.32-.11c-.2-.16-5.08-4-7.16-7.56s-1.63-5.71-1.6-5.8c.42-3.12,1.94-13.59,3.27-14.63a49.61,49.61,0,0,0,3.29-3.8c6.21-7.49,8-9.22,8.92-8.79,2.08.92,2.94,2.3,2.55,4.1a13.56,13.56,0,0,1-2.15,3.73c-1.23,1.78-2.77,4-2.63,5.11a6.43,6.43,0,0,0,.65,2.43c.64.16,3.26.59,6.24-2,.93-.82,1.9-1.78,2.85-2.71,3.1-3,5.78-5.69,7.29-4.17a2.18,2.18,0,0,1,.43,2c-.32,2-2.18,5.17-5.13,7.75,1.51-.44,3.06-.7,4-.31a1.89,1.89,0,0,1,1,1.32c.73,2.67-.86,9.1-2.45,11.29-2.05,2.82-8.73,6.08-12.53,7.77a16.36,16.36,0,0,0-6.07,4.21.55.55,0,0,1-.34.19ZM204.86,97c-1.06.35-5.43,5.62-7.79,8.47a44.78,44.78,0,0,1-3.45,4c-.7.64-2,7.63-2.91,14,0,.08-.41,1.8,1.49,5.07,1.66,2.86,5.33,6,6.53,7a18.69,18.69,0,0,1,6.12-4.13c3-1.32,10.14-4.7,12.12-7.43,1.44-2,2.94-8,2.28-10.4-.1-.35-.23-.58-.39-.65-1.27-.54-5.25.92-7.46,2a.53.53,0,0,1-.69-.25.52.52,0,0,1,.24-.68c4.81-2.35,8.05-7.17,8.46-9.6a1.4,1.4,0,0,0-.15-1.12c-.79-.79-3.71,2.08-5.84,4.18-.95.93-1.94,1.9-2.88,2.74-3.85,3.4-7.27,2.26-7.41,2.21a.41.41,0,0,1-.2-.12c-.11-.11-.7-.8-1-3.12-.19-1.5,1.33-3.69,2.8-5.81a13.86,13.86,0,0,0,2-3.37C207,98.65,206.43,97.75,204.86,97Z" fill="#231f20"/><path d="M184,111.37a.57.57,0,0,1-.18,0,.52.52,0,0,1-.3-.67c.27-.71,3.16-13.2,5.05-21.42a.51.51,0,1,1,1,.23c-.48,2.1-4.71,20.55-5.08,21.55A.53.53,0,0,1,184,111.37Z" fill="#231f20"/><path d="M233.7,135.89a.51.51,0,0,1-.49-.36.53.53,0,0,1,.34-.65,71.83,71.83,0,0,0,19.69-10.48.53.53,0,0,1,.73.11.51.51,0,0,1-.11.72,73,73,0,0,1-20,10.64Z" fill="#231f20"/><path d="M288.58,166.1s-17.06,4.59-16.18,6.05a18.41,18.41,0,0,0,3.06,3.34s-2.61,7.09-2.43,10,.14,11.45,1.48,13.29,4.25-.05,4.6-1.93.73-7.45.73-7.45,4.67,3.73,5.71,5.46.05,13.17,2.61,14.58,4.37-.2,4.26-8.83c0,0,4-4.69,3.64-10.6s-4.84-15.47-5.52-17.8S288.58,166.1,288.58,166.1Z" fill="#fff"/><path d="M289.64,210.46a3.71,3.71,0,0,1-1.73-.51c-1.7-.95-2-4.69-2.26-9.88-.1-2.13-.21-4.35-.54-4.89-.74-1.22-3.47-3.57-4.82-4.69-.13,1.69-.4,5.09-.67,6.51a4.24,4.24,0,0,1-3,3,2.32,2.32,0,0,1-2.49-.89c-1.06-1.46-1.3-6.1-1.47-11.14,0-1-.06-1.81-.1-2.42-.17-2.69,1.81-8.46,2.33-9.92a18.07,18.07,0,0,1-2.9-3.23.74.74,0,0,1,0-.68c.69-1.71,11.79-4.86,16.54-6.14a.52.52,0,0,1,.62.34s1.28,3.86,2,6.17c.17.58.6,1.66,1.14,3,1.54,3.9,4.12,10.43,4.4,14.9.35,5.52-2.93,9.93-3.63,10.81.05,5.43-.64,8.39-2.18,9.32A2.19,2.19,0,0,1,289.64,210.46Zm-9.8-21.52a.57.57,0,0,1,.33.11c.19.16,4.74,3.81,5.82,5.59.44.74.55,2.53.69,5.38.16,3.3.4,8.29,1.73,9a1.8,1.8,0,0,0,1.82.23c.81-.48,1.76-2.37,1.68-8.6a.46.46,0,0,1,.12-.34c0-.05,3.87-4.62,3.51-10.24-.27-4.3-2.81-10.73-4.33-14.58-.55-1.39-1-2.48-1.17-3.11-.53-1.82-1.44-4.58-1.8-5.67-7,1.9-14.35,4.32-15.31,5.31a19.33,19.33,0,0,0,2.86,3.06.5.5,0,0,1,.15.57c0,.07-2.57,7-2.39,9.83,0,.62.07,1.47.1,2.46.12,3.45.31,9.24,1.28,10.57a1.28,1.28,0,0,0,1.42.49,3.24,3.24,0,0,0,2.26-2.22c.34-1.82.72-7.33.72-7.38a.52.52,0,0,1,.31-.44A.45.45,0,0,1,279.84,188.94Z" fill="#231f20"/><path d="M292.42,201.18h-.09a.51.51,0,0,1-.41-.6c0-.08,1.43-8-1.46-13.23a.51.51,0,0,1,.9-.5c3.07,5.57,1.63,13.58,1.57,13.92A.52.52,0,0,1,292.42,201.18Z" fill="#231f20"/><path d="M285.21,263.1h-.07L277.25,262a.51.51,0,0,1-.43-.57.51.51,0,0,1,.57-.42l7.88,1.09a.5.5,0,0,1-.06,1Z" fill="#d1d3d4"/><path d="M159.94,266.58h-.08l-7.69-1.13a.5.5,0,0,1-.43-.56.51.51,0,0,1,.57-.43l7.7,1.13a.5.5,0,0,1-.07,1Z" fill="#d1d3d4"/><path d="M74.92,247.54h-.06l-7.09-.94a.51.51,0,0,1-.43-.56.5.5,0,0,1,.56-.43l7.09.94a.5.5,0,0,1-.07,1Z" fill="#d1d3d4"/><path d="M182.09,266H182l-9.15-1.2a.5.5,0,1,1,.13-1l9.15,1.19a.5.5,0,0,1,.43.56A.5.5,0,0,1,182.09,266Z" fill="#d1d3d4"/><path d="M236.45,280.06h-.09l-6.61-1.13a.5.5,0,1,1,.16-1l6.62,1.12a.51.51,0,0,1,.41.58A.49.49,0,0,1,236.45,280.06Z" fill="#d1d3d4"/><path d="M253.53,265.39h-.09l-6.62-1.12a.5.5,0,0,1,.17-1l6.62,1.13a.5.5,0,0,1-.08,1Z" fill="#d1d3d4"/><path d="M251.77,40.25a5.09,5.09,0,1,1,5.08-5.08A5.09,5.09,0,0,1,251.77,40.25Zm0-9.17a4.09,4.09,0,1,0,4.08,4.09A4.09,4.09,0,0,0,251.77,31.08Z" fill="#d1d3d4"/></g></svg>