<svg xmlns="http://www.w3.org/2000/svg" viewBox="0 0 400 300"><g id="_119_analyzing_process_flatline" data-name="#119_analyzing_process_flatline"><rect x="82.66" y="28.88" width="234.68" height="206.74" fill="#fff"/><path d="M317.34,236.12H82.66a.5.5,0,0,1-.5-.5V28.88a.5.5,0,0,1,.5-.5H317.34a.5.5,0,0,1,.5.5V235.62A.5.5,0,0,1,317.34,236.12Zm-234.18-1H316.84V29.38H83.16Z" fill="#d1d3d4"/><path d="M297.06,175.9h-3a.5.5,0,0,1-.5-.5.5.5,0,0,1,.5-.5h3a.5.5,0,0,1,.5.5A.5.5,0,0,1,297.06,175.9Zm-6,0h-3a.5.5,0,0,1-.5-.5.5.5,0,0,1,.5-.5h3a.5.5,0,0,1,.5.5A.5.5,0,0,1,291.06,175.9Zm-6,0h-3a.5.5,0,0,1-.5-.5.5.5,0,0,1,.5-.5h3a.5.5,0,0,1,.5.5A.5.5,0,0,1,285.06,175.9Zm-6,0h-3a.5.5,0,0,1-.5-.5.5.5,0,0,1,.5-.5h3a.5.5,0,0,1,.5.5A.5.5,0,0,1,279.06,175.9Zm-6,0h-3a.5.5,0,0,1-.5-.5.5.5,0,0,1,.5-.5h3a.5.5,0,0,1,.5.5A.5.5,0,0,1,273.06,175.9Zm-6,0h-3a.5.5,0,0,1-.5-.5.5.5,0,0,1,.5-.5h3a.5.5,0,0,1,.5.5A.5.5,0,0,1,267.06,175.9Zm-6,0h-3a.5.5,0,0,1-.5-.5.5.5,0,0,1,.5-.5h3a.5.5,0,0,1,.5.5A.5.5,0,0,1,261.06,175.9Zm-6,0h-3a.5.5,0,0,1-.5-.5.5.5,0,0,1,.5-.5h3a.5.5,0,0,1,.5.5A.5.5,0,0,1,255.06,175.9Zm-6,0h-3a.5.5,0,0,1-.5-.5.5.5,0,0,1,.5-.5h3a.5.5,0,0,1,.5.5A.5.5,0,0,1,249.06,175.9Zm-6,0h-3a.5.5,0,0,1-.5-.5.5.5,0,0,1,.5-.5h3a.5.5,0,0,1,.5.5A.5.5,0,0,1,243.06,175.9Zm-6,0h-3a.5.5,0,0,1-.5-.5.5.5,0,0,1,.5-.5h3a.5.5,0,0,1,.5.5A.5.5,0,0,1,237.06,175.9Zm-6,0h-3a.5.5,0,0,1-.5-.5.5.5,0,0,1,.5-.5h3a.5.5,0,0,1,.5.5A.5.5,0,0,1,231.06,175.9Zm-6,0h-3a.5.5,0,0,1-.5-.5.5.5,0,0,1,.5-.5h3a.5.5,0,0,1,.5.5A.5.5,0,0,1,225.06,175.9Zm-6,0h-3a.5.5,0,0,1-.5-.5.5.5,0,0,1,.5-.5h3a.5.5,0,0,1,.5.5A.5.5,0,0,1,219.06,175.9Zm-6,0h-3a.5.5,0,0,1-.5-.5.5.5,0,0,1,.5-.5h3a.5.5,0,0,1,.5.5A.5.5,0,0,1,213.06,175.9Zm-6,0h-3a.5.5,0,0,1-.5-.5.5.5,0,0,1,.5-.5h3a.5.5,0,0,1,.5.5A.5.5,0,0,1,207.06,175.9Zm-6,0h-3a.5.5,0,0,1-.5-.5.5.5,0,0,1,.5-.5h3a.5.5,0,0,1,.5.5A.5.5,0,0,1,201.06,175.9Zm-6,0h-3a.5.5,0,0,1-.5-.5.5.5,0,0,1,.5-.5h3a.5.5,0,0,1,.5.5A.5.5,0,0,1,195.06,175.9Zm-6,0h-3a.5.5,0,0,1-.5-.5.5.5,0,0,1,.5-.5h3a.5.5,0,0,1,.5.5A.5.5,0,0,1,189.06,175.9Zm-6,0h-3a.5.5,0,0,1-.5-.5.5.5,0,0,1,.5-.5h3a.5.5,0,0,1,.5.5A.5.5,0,0,1,183.06,175.9Zm-6,0h-3a.5.5,0,0,1-.5-.5.5.5,0,0,1,.5-.5h3a.5.5,0,0,1,.5.5A.5.5,0,0,1,177.06,175.9Zm-6,0h-3a.5.5,0,0,1-.5-.5.5.5,0,0,1,.5-.5h3a.5.5,0,0,1,.5.5A.5.5,0,0,1,171.06,175.9Zm-6,0h-3a.5.5,0,0,1-.5-.5.5.5,0,0,1,.5-.5h3a.5.5,0,0,1,.5.5A.5.5,0,0,1,165.06,175.9Zm-6,0h-3a.5.5,0,0,1-.5-.5.5.5,0,0,1,.5-.5h3a.5.5,0,0,1,.5.5A.5.5,0,0,1,159.06,175.9Zm-6,0h-3a.5.5,0,0,1-.5-.5.5.5,0,0,1,.5-.5h3a.5.5,0,0,1,.5.5A.5.5,0,0,1,153.06,175.9Zm-6,0h-3a.5.5,0,0,1-.5-.5.5.5,0,0,1,.5-.5h3a.5.5,0,0,1,.5.5A.5.5,0,0,1,147.06,175.9Zm-6,0h-3a.5.5,0,0,1-.5-.5.5.5,0,0,1,.5-.5h3a.5.5,0,0,1,.5.5A.5.5,0,0,1,141.06,175.9Zm-6,0h-3a.5.5,0,0,1-.5-.5.5.5,0,0,1,.5-.5h3a.5.5,0,0,1,.5.5A.5.5,0,0,1,135.06,175.9Zm-6,0h-3a.5.5,0,0,1-.5-.5.5.5,0,0,1,.5-.5h3a.5.5,0,0,1,.5.5A.5.5,0,0,1,129.06,175.9Zm-6,0h-3a.5.5,0,0,1-.5-.5.5.5,0,0,1,.5-.5h3a.5.5,0,0,1,.5.5A.5.5,0,0,1,123.06,175.9Zm-6,0h-3a.5.5,0,0,1-.5-.5.5.5,0,0,1,.5-.5h3a.5.5,0,0,1,.5.5A.5.5,0,0,1,117.06,175.9Zm-6,0h-3a.5.5,0,0,1-.5-.5.5.5,0,0,1,.5-.5h3a.5.5,0,0,1,.5.5A.5.5,0,0,1,111.06,175.9Zm-6,0h-3a.5.5,0,0,1-.5-.5.5.5,0,0,1,.5-.5h3a.5.5,0,0,1,.5.5A.5.5,0,0,1,105.06,175.9Z" fill="#d1d3d4"/><path d="M277.87,158.77h0a.51.51,0,0,1-.45-.33L238.1,49H196.72L152.08,77.72l-27.29,43.74a.5.5,0,0,1-.68.16L101.8,108.2a.5.5,0,1,1,.52-.85l21.88,13.16,27.09-43.42a.46.46,0,0,1,.16-.15L196.3,48.06a.53.53,0,0,1,.27-.08h41.89a.51.51,0,0,1,.47.33l39,108.66,19.55-41.38a.5.5,0,0,1,.66-.24.5.5,0,0,1,.24.67l-20.06,42.46A.51.51,0,0,1,277.87,158.77Z" fill="#d1d3d4"/><circle cx="124.36" cy="121.09" r="5.29" fill="#fff"/><path d="M124.36,126.87a5.79,5.79,0,1,1,5.79-5.78A5.78,5.78,0,0,1,124.36,126.87Zm0-10.57a4.79,4.79,0,1,0,4.79,4.79A4.79,4.79,0,0,0,124.36,116.3Z" fill="#d1d3d4"/><circle cx="151.72" cy="77.36" r="5.29" fill="#fff"/><path d="M151.72,83.14a5.79,5.79,0,1,1,5.78-5.78A5.79,5.79,0,0,1,151.72,83.14Zm0-10.57a4.79,4.79,0,1,0,4.78,4.79A4.8,4.8,0,0,0,151.72,72.57Z" fill="#d1d3d4"/><circle cx="238.46" cy="48.48" r="5.29" fill="#fff"/><path d="M238.46,54.27a5.79,5.79,0,1,1,5.78-5.79A5.79,5.79,0,0,1,238.46,54.27Zm0-10.58a4.79,4.79,0,1,0,4.78,4.79A4.8,4.8,0,0,0,238.46,43.69Z" fill="#d1d3d4"/><circle cx="277.87" cy="158.27" r="5.29" fill="#fff"/><path d="M277.87,164.05a5.79,5.79,0,1,1,5.79-5.78A5.78,5.78,0,0,1,277.87,164.05Zm0-10.57a4.79,4.79,0,1,0,4.79,4.79A4.79,4.79,0,0,0,277.87,153.48Z" fill="#d1d3d4"/><circle cx="196.57" cy="48.48" r="5.29" fill="#fff"/><path d="M196.57,54.27a5.79,5.79,0,1,1,5.79-5.79A5.79,5.79,0,0,1,196.57,54.27Zm0-10.58a4.79,4.79,0,1,0,4.79,4.79A4.79,4.79,0,0,0,196.57,43.69Z" fill="#d1d3d4"/><path d="M132.79,52.33h-24.5a.51.51,0,0,1-.5-.5.5.5,0,0,1,.5-.5h24.5a.5.5,0,0,1,.5.5A.5.5,0,0,1,132.79,52.33Z" fill="#d1d3d4"/><path d="M132.79,58.66h-24.5a.5.5,0,0,1-.5-.5.51.51,0,0,1,.5-.5h24.5a.5.5,0,0,1,.5.5A.5.5,0,0,1,132.79,58.66Z" fill="#d1d3d4"/><path d="M132.79,65h-24.5a.5.5,0,0,1,0-1h24.5a.5.5,0,0,1,0,1Z" fill="#d1d3d4"/><path d="M124.18,71.34H108.29a.5.5,0,1,1,0-1h15.89a.5.5,0,0,1,0,1Z" fill="#d1d3d4"/><path d="M298.25,76.8h-24.5a.5.5,0,0,1-.5-.5.5.5,0,0,1,.5-.5h24.5a.5.5,0,0,1,.5.5A.5.5,0,0,1,298.25,76.8Z" fill="#d1d3d4"/><path d="M298.25,83.14h-24.5a.5.5,0,0,1-.5-.5.5.5,0,0,1,.5-.5h24.5a.5.5,0,0,1,.5.5A.5.5,0,0,1,298.25,83.14Z" fill="#d1d3d4"/><path d="M290,89.48H273.75a.5.5,0,0,1,0-1H290a.5.5,0,0,1,0,1Z" fill="#d1d3d4"/><rect x="116.87" y="176.31" width="29.69" height="36.11" transform="translate(-103 188.56) rotate(-54.46)" fill="#fff"/><path d="M137.77,217.4a.43.43,0,0,1-.26-.09l-29.38-21a.47.47,0,0,1-.19-.29.48.48,0,0,1,.08-.35l17.26-24.16a.46.46,0,0,1,.64-.1l29.38,21a.46.46,0,0,1,.11.63L138.15,217.2a.46.46,0,0,1-.3.19ZM109,195.84l28.64,20.46,16.73-23.42-28.64-20.45Z" fill="#231f20"/><path d="M147.53,174.72s-6.2,13.58-7.29,12.17c-1.45-1.87.65-4.72.65-4.72l-5.79-3.94s6.45-8.06,6.76-8.3S147.53,174.72,147.53,174.72Z" fill="#fff"/><path d="M140.44,187.45a.7.7,0,0,1-.56-.28c-1.32-1.7-.18-4,.38-4.88l-5.42-3.69a.46.46,0,0,1-.19-.31.45.45,0,0,1,.1-.35c1.95-2.44,6.52-8.13,6.83-8.37s.62-.47,6.27,4.82a.46.46,0,0,1,.1.52c-1.69,3.71-5.8,12.35-7.43,12.54Zm-4.67-9.32,5.38,3.66a.46.46,0,0,1,.19.3.41.41,0,0,1-.08.35s-1.79,2.46-.75,4.05c1-.67,4.05-6.38,6.47-11.66-2-1.9-4.27-3.87-5-4.36C141.2,171.38,138.05,175.28,135.77,178.13Z" fill="#231f20"/><path d="M174.36,250.9s-.56,9.35-.53,12.89,0,6.86,4.16,6.1c2.27-.41,14.71-3.56,13.57-5.87s-9.23-2.91-9.23-2.91l.73-10.69" fill="#fff"/><path d="M176.88,270.46a3.19,3.19,0,0,1-2.09-.66c-1.37-1.14-1.39-3.43-1.41-5.87v-.13c0-3.52.52-12.83.53-12.93a.43.43,0,0,1,.48-.42.46.46,0,0,1,.43.48c0,.09-.56,9.37-.53,12.86v.14c0,2.21,0,4.3,1.08,5.16a3,3,0,0,0,2.54.36c3-.56,12.3-3.13,13.22-5a.27.27,0,0,0,0-.27c-.75-1.51-5.83-2.43-8.85-2.65a.46.46,0,0,1-.42-.49l.72-10.69a.45.45,0,0,1,.49-.42.44.44,0,0,1,.42.48l-.69,10.24c1.86.17,8.05.9,9.15,3.13a1.15,1.15,0,0,1,0,1.08c-1.38,2.75-13.75,5.42-13.87,5.44A6.48,6.48,0,0,1,176.88,270.46Z" fill="#231f20"/><path d="M203.44,252s-.56,9.35-.53,12.9,0,6.86,4.15,6.1c2.27-.42,15.7-2.56,14.55-4.88s-10.2-3.91-10.2-3.91l.72-10.68" fill="#fff"/><path d="M206,271.57a3.15,3.15,0,0,1-2.09-.66c-1.38-1.13-1.4-3.43-1.42-5.86v-.14c0-3.52.53-12.83.53-12.92a.46.46,0,0,1,.92,0c0,.1-.57,9.38-.53,12.86V265c0,2.21,0,4.3,1.08,5.16a3,3,0,0,0,2.53.36l.71-.13c10.45-1.83,13.11-3.14,13.51-3.92a.17.17,0,0,0,0-.18c-.76-1.53-6.46-3.05-9.87-3.66a.45.45,0,0,1-.38-.48l.73-10.69a.46.46,0,1,1,.91.07l-.7,10.28c1.94.36,9,1.84,10.13,4.08a1.07,1.07,0,0,1,0,1c-.74,1.46-5.11,2.81-14.16,4.4l-.71.13A7.3,7.3,0,0,1,206,271.57Z" fill="#231f20"/><path d="M172.08,155.73s-1.77,89.24-.26,97.76c0,0,5.84,6.58,13.41,3.3l8.47-70.43,6.14,70.36s4.85,4.81,15-3.19l-5.32-102.87Z" fill="#231f20"/><path d="M204.25,258.67a6.87,6.87,0,0,1-4.76-1.6.46.46,0,0,1-.15-.31l-5.72-65.55-7.89,65.64a.5.5,0,0,1-.3.4c-7.81,3.39-13.92-3.36-14-3.43a.53.53,0,0,1-.12-.25c-1.5-8.46.18-94.21.25-97.85a.5.5,0,0,1,.43-.49l37.45-5.07a.49.49,0,0,1,.38.11.5.5,0,0,1,.18.36l5.32,102.88a.49.49,0,0,1-.19.42C210.43,257.64,206.81,258.67,204.25,258.67Zm-3.93-2.2c.81.66,5.27,3.61,14-3.17l-5.28-102.07-36.48,4.94c-.13,6.68-1.67,88.25-.28,97.09.78.82,5.89,5.85,12.48,3.18l8.44-70.14a.5.5,0,0,1,.49-.44h0a.49.49,0,0,1,.49.46Z" fill="#231f20"/><path d="M191.51,79.88s2.79,11.3,2.15,13.93-4.13,3.55-4.13,3.55l2.53,9.44-16,1s-2.81-15.65-2.32-24.39S191.51,79.88,191.51,79.88Z" fill="#fff"/><path d="M176.09,108.29a.46.46,0,0,1-.45-.38c0-.16-2.82-15.8-2.33-24.5a5,5,0,0,1,2.15-4c4.75-3.33,15.71-.09,16.18,0a.47.47,0,0,1,.31.33c.12.46,2.81,11.44,2.15,14.15-.56,2.3-3,3.39-4,3.74l2.42,9a.43.43,0,0,1-.07.38.46.46,0,0,1-.34.19l-16,1Zm5.59-29.48A10.08,10.08,0,0,0,176,80.14a4,4,0,0,0-1.76,3.32c-.44,7.81,1.81,21.38,2.24,23.89l15-1-2.39-8.9a.47.47,0,0,1,0-.35.46.46,0,0,1,.28-.21s3.24-.89,3.8-3.21c.49-2-1.28-10.16-2.08-13.47A39.32,39.32,0,0,0,181.68,78.81Z" fill="#231f20"/><path d="M232.71,64.18s2-6.05,2.07-6.58-1.95-5.62-1.95-6.08.17-1.43.85-1.08,2.89,3.64,2.89,3.64,1.47-8.53,2-8.64,1.22.11,1.44,1.94a14.73,14.73,0,0,1-.52,4.47s3.58.38,3.95,1.28-3.19,14-3.19,14" fill="#fff"/><path d="M240.26,67.61l-.12,0a.47.47,0,0,1-.32-.56c1.65-6.1,3.34-13,3.2-13.76-.14-.31-1.84-.78-3.57-1a.45.45,0,0,1-.33-.2.41.41,0,0,1-.06-.37,14.29,14.29,0,0,0,.5-4.3c-.12-1-.38-1.37-.52-1.48a.41.41,0,0,0-.22-.07,64.61,64.61,0,0,0-1.8,8.28.46.46,0,0,1-.35.37.47.47,0,0,1-.48-.19,19.94,19.94,0,0,0-2.72-3.49c-.08,0-.18.32-.18.68,0,.2.46,1.42.81,2.39.9,2.54,1.18,3.39,1.13,3.74-.08.55-1.75,5.65-2.08,6.66a.46.46,0,0,1-.58.29.44.44,0,0,1-.29-.57c.76-2.31,2-6.12,2-6.51a33,33,0,0,0-1.08-3.3,13.24,13.24,0,0,1-.86-2.72c0-.26.05-1.15.61-1.48a.85.85,0,0,1,.9,0,13.2,13.2,0,0,1,2.43,2.86c1.37-7.74,1.85-7.84,2.18-7.9a1.34,1.34,0,0,1,1.07.21,2.9,2.9,0,0,1,.9,2.11,13.69,13.69,0,0,1-.4,4.14c1.31.17,3.44.59,3.8,1.5s-2.08,10.32-3.16,14.31A.48.48,0,0,1,240.26,67.61Z" fill="#231f20"/><path d="M201.43,101.7s-27.77,1.69-31.59,4.19-5,32.1-1.65,57.29L214.4,163S215.36,105.19,201.43,101.7Z" fill="#68e1fd"/><path d="M163.13,107.83s-9.6,28.61-10.89,31.13-13.17,32.68-13.17,32.68l9.14,5.93s23-29.79,24.5-39.41S163.13,107.83,163.13,107.83Z" fill="#68e1fd"/><path d="M185.32,103.87c1.33.06,34.55-12.2,35.13-13.5s11.67-30.45,11.67-30.45L243.48,61s-4.06,28.86-5.7,34.24c-2.5,8.21-25.75,26.57-34.8,33.5Z" fill="#68e1fd"/><path d="M182.65,72.68c4.2,1.25,8.92,5.35,9.85,9.83a12.7,12.7,0,0,1-.52,5.95,39.82,39.82,0,0,1-1.7,4.89c-1.08,2.54-4,4.19-4.26,7.19-.32,3.48,3,6.73,4.75,9.42a16.65,16.65,0,0,1,2.37,12.24,13.51,13.51,0,0,1-7.73,9.56c-3.24,1.35-6.9,1.23-10.38.83-5.38-.62-10.83-1.92-15.25-5-7.77-5.52-9.39-15.39-1.47-21.61,1.66-1.31,3.64-2.29,4.88-4,2.28-3.15,1.25-7.46,1.07-11.35a23.67,23.67,0,0,1,1.56-9.6,15.07,15.07,0,0,1,3.86-6C173.11,72,178.25,71.37,182.65,72.68Z" fill="#fff"/><path d="M179.17,133.32A37.3,37.3,0,0,1,175,133c-6.7-.77-11.62-2.4-15.46-5.13-4.25-3-6.76-7.3-6.87-11.76A13,13,0,0,1,158,105.57c.51-.41,1.06-.79,1.61-1.16a12.14,12.14,0,0,0,3.18-2.74c1.72-2.38,1.44-5.58,1.17-8.66-.07-.81-.15-1.62-.18-2.4a24.19,24.19,0,0,1,1.58-9.79,15.52,15.52,0,0,1,4-6.13c3.33-3,8.47-3.91,13.4-2.45C187,73.5,192,77.64,193,82.42a13.32,13.32,0,0,1-.53,6.17,39.42,39.42,0,0,1-1.72,4.93,12.48,12.48,0,0,1-2,2.94c-1.07,1.28-2.08,2.49-2.23,4.12-.23,2.46,1.58,4.89,3.19,7,.54.73,1.06,1.42,1.49,2.1a17,17,0,0,1,2.42,12.58,13.92,13.92,0,0,1-8,9.89A16.75,16.75,0,0,1,179.17,133.32Zm-1-60.85a12.28,12.28,0,0,0-8.18,2.9,14.71,14.71,0,0,0-3.74,5.78,23.42,23.42,0,0,0-1.52,9.41c0,.78.11,1.57.18,2.37.28,3.25.58,6.62-1.34,9.27a13,13,0,0,1-3.4,3c-.54.37-1.07.73-1.57,1.13a12.07,12.07,0,0,0-5,9.83c.1,4.17,2.46,8.2,6.48,11,3.71,2.63,8.49,4.21,15,5,3.19.37,6.89.57,10.15-.79a13,13,0,0,0,7.46-9.24,16.1,16.1,0,0,0-2.3-11.89c-.41-.65-.92-1.33-1.45-2-1.71-2.28-3.64-4.87-3.37-7.67.18-1.92,1.33-3.3,2.43-4.63a11.35,11.35,0,0,0,1.86-2.7,39.42,39.42,0,0,0,1.68-4.83,12.38,12.38,0,0,0,.51-5.74c-.91-4.38-5.65-8.33-9.53-9.48A15.47,15.47,0,0,0,178.16,72.47Z" fill="#231f20"/><path d="M167.27,155.58a.46.46,0,0,1-.45-.42c-.9-11.49-.92-12.78-.95-15.37,0-1.54-.05-3.46-.25-8.1a.46.46,0,1,1,.91,0c.2,4.65.23,6.58.25,8.13,0,2.56.05,3.85.95,15.31a.46.46,0,0,1-.42.49Z" fill="#231f20"/><path d="M140.87,182.32s-2.29-2.81.12-5" fill="#fff"/><path d="M140.87,182.78a.46.46,0,0,1-.36-.17c-.89-1.09-2-3.66.18-5.62a.46.46,0,0,1,.61.68c-2.06,1.86-.16,4.26-.08,4.36a.47.47,0,0,1-.06.65A.53.53,0,0,1,140.87,182.78Z" fill="#231f20"/><path d="M297.94,216.12H245.75a.5.5,0,0,1-.5-.5v-23a.5.5,0,0,1,.5-.5h52.19a.5.5,0,0,1,.5.5v23A.5.5,0,0,1,297.94,216.12Zm-51.69-1h51.19v-22H246.25Z" fill="#d1d3d4"/></g></svg>