<svg xmlns="http://www.w3.org/2000/svg" viewBox="0 0 400 300"><g id="_418_banana_flatline" data-name="#418_banana_flatline"><ellipse cx="200" cy="187.72" rx="135.85" ry="56.72" fill="#fff"/><path d="M200,131c75,0,135.85,25.4,135.85,56.72S275,244.44,200,244.44,64.15,219,64.15,187.72,125,131,200,131m0-1c-36.41,0-70.67,5.93-96.44,16.69-26.06,10.88-40.41,25.45-40.41,41s14.35,30.15,40.41,41c25.77,10.76,60,16.69,96.44,16.69s70.67-5.93,96.44-16.69c26.06-10.88,40.41-25.45,40.41-41s-14.35-30.15-40.41-41C270.67,135.93,236.41,130,200,130Z" fill="#231f20"/><path d="M200,229.3c-63.8,0-115.71-18.65-115.71-41.58S136.2,146.14,200,146.14s115.71,18.65,115.71,41.58S263.8,229.3,200,229.3Zm0-82.16c-63.25,0-114.71,18.2-114.71,40.58S136.75,228.3,200,228.3s114.71-18.2,114.71-40.58S263.25,147.14,200,147.14Z" fill="#d1d3d4"/><path d="M254.08,65.64c-7.5,12.79-12.91,19.3-12.91,19.3s-12.58-2.48-24.11,3.84S189.73,99.39,175.17,97s-56.63-20.51-62.81-20.49a31.26,31.26,0,0,0-10.69,1.87l-4,8s2.16,14.35,21.71,28.61,48.87,16.34,75.95,17.16,52.39-21.3,52.66-29.55,4.14-17,12.6-29.82C260.55,72.79,262.25,70.77,254.08,65.64Z" fill="#68e1fd"/><path d="M196.79,132.69c-.51,0-1,0-1.52,0-26.54-.81-56.51-2.88-76.23-17.26C99.55,101.19,97.22,87.05,97.13,86.46a.61.61,0,0,1,.05-.3l4-8a.47.47,0,0,1,.26-.24A31.29,31.29,0,0,1,112.36,76h0c3,0,13.62,3.92,25.92,8.45,13.71,5.05,29.26,10.78,37,12,12.86,2.12,28.4-.93,41.57-8.16C227.39,82.55,239,84.07,241,84.4a167.19,167.19,0,0,0,12.69-19,.48.48,0,0,1,.31-.23.54.54,0,0,1,.39.06c4.19,2.63,6.55,5,6.82,6.69a1.48,1.48,0,0,1-.23,1.2c-8.61,13-12.23,21.59-12.49,29.51C248.16,111.32,223.56,132.69,196.79,132.69ZM98.15,86.46c.31,1.56,3.42,15,21.48,28.13,19.49,14.22,49.28,16.27,75.67,17.07s51.87-20.73,52.15-29.07c.26-8.12,3.94-16.84,12.69-30.08,0,0,.86-1.83-5.89-6.17a159.58,159.58,0,0,1-12.7,18.92.49.49,0,0,1-.48.17c-.12,0-12.54-2.37-23.77,3.79-13.36,7.33-29.14,10.42-42.22,8.27-7.79-1.28-23.38-7-37.14-12.09C126.24,81.08,115.19,77,112.37,77h0A31.86,31.86,0,0,0,102,78.78Z" fill="#231f20"/><path d="M106.13,85.27s5.6,17.66,41.14,32.47,71.51,5.92,85-6" fill="#68e1fd"/><path d="M185.85,126a100.74,100.74,0,0,1-38.78-7.76c-35.34-14.73-41.19-32-41.42-32.78a.5.5,0,0,1,.33-.63.51.51,0,0,1,.63.32c0,.18,6,17.64,40.85,32.17,36,15,71.74,5.35,84.53-5.92a.51.51,0,0,1,.71,0,.49.49,0,0,1,0,.7C224.42,119.36,206.87,126,185.85,126Z" fill="#231f20"/><path d="M97.63,86.39s4.51-1.27,5.59-3.23,3.76-4.53,2.93-5.45c-3.56-3.93-6.1,2.56-7.4,5.18C98.69,83,97.14,86.52,97.63,86.39Z" fill="#231f20"/><path d="M97.64,86.88a.65.65,0,0,1-.47-.19c-.53-.65,1.06-3.88,1.13-4s.24-.5.38-.78c1-2.21,2.63-5.55,4.88-5.88a3.33,3.33,0,0,1,3,1.37c.83.91-.24,2.34-1.47,4a21.73,21.73,0,0,0-1.39,2c-1.18,2.12-5.67,3.4-5.9,3.47h-.12Zm6.28-9.9-.21,0c-1.73.25-3.23,3.42-4.13,5.32l-.38.79c-.19.39-.76,1.76-1,2.58,1.43-.48,3.93-1.53,4.62-2.77a19.63,19.63,0,0,1,1.45-2.13c.64-.85,1.81-2.44,1.54-2.74A2.68,2.68,0,0,0,103.92,77Z" fill="#231f20"/><path d="M258.51,76.67s-5.28,18.3-17,23.82a124.45,124.45,0,0,0-34.14,7.74c-18.6,7-29.38,17.06-50.55,14.45s-34.86-9.85-43.4-5.56l-4.64,11.81s.66,13.17,24.08,27.59,75,6.85,95.1-5.3,24-36.45,24.13-41.21,16.82-24.52,17.39-27.12S258.51,76.67,258.51,76.67Z" fill="#68e1fd"/><path d="M169.29,164.83c-14.19,0-27.59-2.29-36.66-7.88-23.37-14.4-24.29-27.44-24.32-28a.52.52,0,0,1,0-.21L113,116.94a.44.44,0,0,1,.24-.26c5.42-2.73,12.59-1,22.51,1.37a181.38,181.38,0,0,0,21.17,4.13c15.13,1.87,24.87-2.79,36.15-8.18,4.41-2.11,9-4.29,14.16-6.24a126.85,126.85,0,0,1,34.2-7.76C252.7,94.59,258,76.71,258,76.53a.52.52,0,0,1,.24-.3.58.58,0,0,1,.39,0c2.82.88,12,4,11.34,6.81-.23,1-2.36,4-6.09,9-4.73,6.42-11.21,15.21-11.29,18,0,.28-1.83,28-24.37,41.62C215.85,159.15,191.6,164.83,169.29,164.83Zm-60-35.82c.14,1.23,2,13.65,23.83,27.09,23.07,14.2,74.5,6.84,94.58-5.31,22.1-13.38,23.88-40.53,23.89-40.8.09-3.07,6.14-11.29,11.48-18.53,2.94-4,5.73-7.78,5.93-8.68.28-1.29-5-3.8-10.19-5.48-.95,3-6.27,18.53-17.08,23.65a.43.43,0,0,1-.19,0,125.39,125.39,0,0,0-34,7.7c-5.17,2-9.7,4.11-14.08,6.21-11.43,5.46-21.3,10.18-36.71,8.28A183.57,183.57,0,0,1,135.51,119c-9.61-2.3-16.58-4-21.66-1.53ZM241.54,100.5h0Z" fill="#231f20"/><path d="M264.15,83.64a40.36,40.36,0,0,1-2.76,20.67s-10.51,3.21-23.39,19.51-30.54,30.29-55.28,31.43-45.48-4.88-55,.66-7.67,9.62-17.52,9.7l-5.66,11.83s3.25,6.56,17,13.77,43.57,16.69,77.52,9.43,60.12-26.68,71-50.5S273,105.86,273,105.86s2-14.4,3.58-20.35Z" fill="#68e1fd"/><path d="M174.22,203.77c-27.92,0-48.22-9.7-52.84-12.12-13.76-7.2-17.11-13.71-17.25-14a.49.49,0,0,1,0-.44l5.66-11.82a.48.48,0,0,1,.44-.29c5.9-.05,7.44-1.53,10-4a34.89,34.89,0,0,1,7.29-5.64c5.71-3.34,15.21-2.59,27.23-1.65a221.07,221.07,0,0,0,28,.92c21.11-1,39.07-11.19,54.91-31.24,11.94-15.11,21.75-19,23.41-19.6a40.11,40.11,0,0,0,2.64-20.17.5.5,0,0,1,.13-.44.49.49,0,0,1,.44-.15L276.65,85a.55.55,0,0,1,.35.22.53.53,0,0,1,.06.41c-1.49,5.56-3.35,18.73-3.55,20.16.65,1.78,7.53,21.79-2.9,44.55-11.29,24.65-38,43.64-71.37,50.78A119.21,119.21,0,0,1,174.22,203.77Zm-69.08-26.35c.69,1.16,4.61,7,16.7,13.34,5.87,3.07,37.16,18,77.19,9.39,33.09-7.08,59.51-25.85,70.67-50.21,10.69-23.34,2.91-43.7,2.83-43.9a.54.54,0,0,1,0-.25c0-.14,1.89-13.67,3.45-19.87l-11.2-1.68a41.51,41.51,0,0,1-2.89,20.25.49.49,0,0,1-.32.29c-.1,0-10.53,3.39-23.15,19.35-16,20.29-34.23,30.63-55.64,31.62a220.81,220.81,0,0,1-28.08-.92c-11.86-.93-21.22-1.66-26.66,1.51a34,34,0,0,0-7.1,5.5c-2.59,2.5-4.32,4.16-10.35,4.27Zm156.25-73.11h0Z" fill="#231f20"/><path d="M277.27,91.86s2.19.17,1.06,11.4S275.83,130,255,157.31s-53.75,35.39-76.45,38.35S152.51,216,152.51,216l4.07,10.22s5.4,4.74,18.94,6.59,41.26,3.81,69.88-10.21,50.25-54.39,48.76-76.29c-.82-12-9.07-21.47-8.52-26.59s4.15-24.08,4.15-24.08Z" fill="#68e1fd"/><path d="M194,234.6a137.29,137.29,0,0,1-18.52-1.28c-13.54-1.86-19-6.52-19.21-6.71a.53.53,0,0,1-.13-.2l-4.07-10.22a.45.45,0,0,1,0-.28c0-.18,3.68-17.77,26.48-20.74,34.67-4.53,60.28-17.37,76.11-38.17,20.52-26.94,22.06-42.26,23.19-53.44l0-.35c1-9.53-.52-10.76-.67-10.86l0,0a.49.49,0,0,1-.34-.57.48.48,0,0,1,.53-.4.55.55,0,0,1,.21,0l12.41,3.77a.51.51,0,0,1,.35.57c0,.19-3.6,19-4.14,24-.22,2.11,1.24,5.22,2.94,8.82,2.28,4.82,5.11,10.83,5.58,17.68,1.56,23-20.77,62.92-49,76.78A117,117,0,0,1,194,234.6Zm-37-8.68c.75.6,6.3,4.72,18.59,6.41,25,3.42,49-.1,69.59-10.17,13.13-6.44,25.72-18.87,35.46-35,8.89-14.73,13.76-30,13-40.81-.45-6.66-3.24-12.58-5.48-17.33-1.84-3.89-3.29-7-3-9.35.5-4.64,3.52-20.78,4.06-23.67l-10.65-3.23c.55,1.49.88,4.51.27,10.54l0,.35c-1.14,11.3-2.7,26.78-23.38,54-16,21-41.84,34-76.78,38.55-21,2.74-25.22,18.18-25.6,19.8Z" fill="#231f20"/><path d="M296.73,85.32s-34.51-12.07-45.48-29.76c0,0-11.61,3.55-5.88,10.08,0,0,28.7,30.27,43.07,36C288.44,101.64,283.06,87.41,296.73,85.32Z" fill="#68e1fd"/><path d="M288.44,102.14a.41.41,0,0,1-.19,0C273.94,96.4,246.18,67.22,245,66c-1.5-1.71-2-3.39-1.56-5,1.09-3.84,7.4-5.8,7.67-5.89a.51.51,0,0,1,.57.22c10.75,17.34,44.87,29.43,45.22,29.55a.5.5,0,0,1-.09,1c-3.65.56-6.22,2.07-7.63,4.47-2.7,4.62-.3,11.12-.28,11.18a.49.49,0,0,1-.11.53A.5.5,0,0,1,288.44,102.14Zm-37.4-46c-1.32.46-5.83,2.25-6.64,5.09-.36,1.27.09,2.63,1.34,4.06.27.28,27.48,28.88,41.89,35.44-.61-2.14-1.59-7.06.69-11a10.18,10.18,0,0,1,6.6-4.6C287.93,82.52,260.78,71.4,251,56.16Z" fill="#231f20"/><ellipse cx="293.68" cy="93.81" rx="9.43" ry="8.02" transform="translate(67.84 303.68) rotate(-60.62)" fill="#231f20"/><path d="M292.52,103.42a7.44,7.44,0,0,1-4.37-1.38c-3.83-2.72-4.46-8.63-1.42-13.17a10.37,10.37,0,0,1,6.61-4.53,7.67,7.67,0,0,1,5.87,1.24c3.82,2.73,4.46,8.64,1.42,13.17a10.38,10.38,0,0,1-6.62,4.54A8.41,8.41,0,0,1,292.52,103.42Zm2.31-18.21a7.34,7.34,0,0,0-1.31.12,9.33,9.33,0,0,0-6,4.1c-2.74,4.09-2.22,9.39,1.17,11.8a6.62,6.62,0,0,0,5.1,1.07,9.38,9.38,0,0,0,6-4.1c2.74-4.09,2.21-9.39-1.17-11.8A6.47,6.47,0,0,0,294.83,85.21Z" fill="#231f20"/><path d="M111.65,169.63a4.93,4.93,0,0,0,.43-3.24c-.61-1.37-3-1.53-4.25-1.58-3.27-.13-3.37.91-4.83,3.84-1.18,2.39-2.5,4.88-.54,7.13,2.91,3.36,6,.51,7.58-2.7C110.41,172.33,111.13,171,111.65,169.63Z" fill="#231f20"/><path d="M105.23,177.79a4.19,4.19,0,0,1-3.15-1.68c-2.13-2.45-.79-5.13.38-7.5l.1-.19c.15-.3.29-.59.41-.85,1.12-2.33,1.63-3.39,4.88-3.26,1.83.08,4,.36,4.69,1.88.34.78.2,2-.43,3.62-.41,1.07-.94,2.13-1.33,2.91l-.28.58c-1.24,2.55-3,4.22-4.81,4.46A3.44,3.44,0,0,1,105.23,177.79Zm2-12.49c-2.09,0-2.38.61-3.38,2.7-.13.27-.27.56-.43.87l-.09.18c-1.14,2.3-2.21,4.46-.53,6.4a3.09,3.09,0,0,0,2.73,1.32c1.69-.23,3.2-2.17,4-3.91l.3-.59a31,31,0,0,0,1.29-2.82h0c.65-1.71.6-2.5.44-2.85-.5-1.15-3-1.26-3.81-1.29Z" fill="#231f20"/><path d="M169.07,182.67a112.57,112.57,0,0,1-39.49-7.18.5.5,0,1,1,.39-.92c.34.14,35.13,14.59,70.05,1.87,39.6-14.42,54.85-39.22,60.41-52.73a.51.51,0,0,1,.65-.27.5.5,0,0,1,.27.66c-5.62,13.65-21,38.73-61,53.28A91.36,91.36,0,0,1,169.07,182.67Z" fill="#231f20"/><path d="M151.21,215.59c-1.17,1.79-2.21,3.74-2,5.68a5.25,5.25,0,0,0,2.55,3.85c.63.47,5.57,3,6.14,2,.71-1.21-.5-2.58-1.22-3.78-2-3.26-.59-8.32-3.51-10.71C152.62,213.55,151.89,214.54,151.21,215.59Z" fill="#231f20"/><path d="M157.34,227.85c-1.73,0-5.42-2-5.89-2.33-1.55-1.15-2.55-2.26-2.75-4.2-.22-2.12.93-4.23,2.09-6h0c.27-.42.55-.82.81-1.21.41-.61.81-1.18,1.13-1.72a.5.5,0,0,1,.74-.13c1.81,1.48,2.1,3.84,2.39,6.12a12.29,12.29,0,0,0,1.23,4.73c.12.19.26.39.39.6.71,1.07,1.59,2.41.84,3.68a.9.9,0,0,1-.65.43A1.69,1.69,0,0,1,157.34,227.85Zm-5.71-12c-1.06,1.62-2.12,3.53-1.93,5.34.16,1.59,1,2.49,2.35,3.51.78.58,4.79,2.43,5.46,2.11.35-.63-.13-1.46-.86-2.57-.15-.22-.29-.43-.41-.64a12.69,12.69,0,0,1-1.37-5.12c-.25-2-.48-3.82-1.61-5.07-.26.4-.54.81-.83,1.24s-.54.79-.8,1.2Z" fill="#231f20"/><path d="M175.67,214.64a57.9,57.9,0,0,1-14-1.44.49.49,0,0,1-.34-.62.5.5,0,0,1,.61-.34c.33.09,32.89,8.83,72.6-18.44,35.07-24.08,38.77-41.87,42.35-59.08.4-1.95.8-3.88,1.25-5.81a.5.5,0,0,1,.6-.38.49.49,0,0,1,.37.6c-.44,1.92-.84,3.85-1.25,5.79-3.61,17.41-7.36,35.4-42.75,59.71C210.75,211.32,189.06,214.64,175.67,214.64Z" fill="#231f20"/><path d="M167.76,143.85c-.48,0-1,0-1.45,0-26.59-.62-53.89-13.49-54.16-13.62a.5.5,0,0,1-.23-.67.49.49,0,0,1,.66-.23c.27.13,27.38,12.91,53.75,13.52s60.06-15.89,72.71-28c10.47-10,10.77-9.77,11.23-9.39a.61.61,0,0,1,0,.86.5.5,0,0,1-.6.19c-.74.53-3,2.42-10,9.06C227.19,127.56,194.07,143.85,167.76,143.85Z" fill="#231f20"/><path d="M113.45,117.12c-1.46.25-5.14-.43-5.44,1.45a19.14,19.14,0,0,0,0,2.14c-.07,1.31-.89,2.43-1.39,3.63-1.22,2.87.57,3.07,2.18,4.59a32.89,32.89,0,0,0,3.21-4.77C112.25,123.77,114.76,116.9,113.45,117.12Z" fill="#231f20"/><path d="M108.83,129.43a.48.48,0,0,1-.34-.13,9.86,9.86,0,0,0-1.06-.85c-1.2-.89-2.34-1.73-1.24-4.31.15-.36.33-.71.51-1.06a4.62,4.62,0,0,0,.81-3.26,5.38,5.38,0,0,1,0-1.33c.38-2.38,4.45-1.63,5.86-1.86h0a.74.74,0,0,1,.75.3c.89,1.23-1.6,7.41-1.63,7.46a35.24,35.24,0,0,1-3.26,4.85.52.52,0,0,1-.36.19Zm4.5-11.79a12,12,0,0,1-1.4,0c-1.46,0-3.28,0-3.43,1a4.43,4.43,0,0,0,0,1.09,8.23,8.23,0,0,1,0,1,7.06,7.06,0,0,1-1,2.79c-.17.33-.34.67-.49,1-.78,1.85-.21,2.27.93,3.11.23.17.48.36.73.57a31.29,31.29,0,0,0,2.84-4.29C111.93,123.28,113.46,118.73,113.33,117.64Zm.12-.52h0Z" fill="#231f20"/></g></svg>