<svg xmlns="http://www.w3.org/2000/svg" viewBox="0 0 400 300"><g id="_556_bank_note_flatline" data-name="#556_bank_note_flatline"><polygon points="341.16 176.04 58.84 176.04 64.75 165.16 72.73 150.45 77.68 141.34 85.66 126.63 91.57 115.75 308.43 115.75 314.34 126.63 322.32 141.34 327.27 150.45 335.25 165.16 341.16 176.04" fill="#fff"/><path d="M308.43,115.75l5.91,10.88,8,14.71,4.95,9.11,8,14.71L341.16,176H58.84l5.91-10.88,8-14.71,5-9.11,8-14.71,5.91-10.88H308.43m0-1H91.57a1,1,0,0,0-.88.52l-5.91,10.88-8,14.71-5,9.11-8,14.71L58,175.56a1,1,0,0,0,.88,1.48H341.16a1,1,0,0,0,.88-1.48l-5.91-10.88-8-14.71-4.95-9.11-8-14.71-5.91-10.88a1,1,0,0,0-.88-.52Z" fill="#231f20"/><path d="M319.84,169.51H83.66a.5.5,0,0,1-.43-.25.52.52,0,0,1,0-.5c.2-.34.39-.69.56-1,1.33-2.79,1.44-5.33.29-7.15-1-1.58-2.91-2.45-5.37-2.45a.51.51,0,0,1-.45-.74l14.66-28.13a.52.52,0,0,1,.44-.27c4.82,0,10.45-3.26,12.29-7.12.1-.22.19-.44.28-.67a.5.5,0,0,1,.47-.33H297.12a.48.48,0,0,1,.46.33c.09.23.18.45.29.67,1.83,3.86,7.46,7.12,12.29,7.12a.51.51,0,0,1,.44.27l14.66,28.13a.51.51,0,0,1-.45.74c-2.47,0-4.38.87-5.38,2.46-1.14,1.81-1,4.35.29,7.15.17.35.36.7.56,1a.52.52,0,0,1,0,.5A.5.5,0,0,1,319.84,169.51Zm-235.34-1H319l-.18-.36c-1.48-3.12-1.57-6-.24-8.12a6.75,6.75,0,0,1,5.42-2.9L309.85,130c-5.17-.13-10.91-3.53-12.89-7.69-.07-.14-.13-.28-.19-.43h-190c-.06.15-.12.29-.19.43-2,4.16-7.71,7.56-12.88,7.69L79.51,157.13a6.73,6.73,0,0,1,5.41,2.9c1.33,2.11,1.25,5-.24,8.12Z" fill="#e6e7e8"/><polygon points="227.36 176.04 172.64 176.04 173.79 165.16 175.34 150.45 176.3 141.34 177.84 126.63 178.99 115.75 221.01 115.75 222.16 126.63 223.7 141.34 224.66 150.45 226.21 165.16 227.36 176.04" fill="#e6e7e8"/><path d="M221,115.75l1.15,10.88,1.54,14.71,1,9.11,1.55,14.71L227.36,176H172.64l1.15-10.88,1.55-14.71,1-9.11,1.54-14.71L179,115.75h42m0-1H179a1,1,0,0,0-1,.89l-1.14,10.88-1.55,14.71-1,9.11-1.54,14.72-1.15,10.88a1,1,0,0,0,.25.77,1,1,0,0,0,.74.33h54.72a1,1,0,0,0,.74-.33,1,1,0,0,0,.25-.77l-1.15-10.88-1.54-14.72-1-9.11-1.55-14.71L222,115.64a1,1,0,0,0-1-.89Z" fill="#231f20"/><path d="M250.14,107.25a11.93,11.93,0,0,1,6.25,6.8c2.84,7.4,6.57,27.25,6.57,27.25q12.57,1.27,25.11,2.88c3.93.51,7.86,1,11.76,1.69a25.06,25.06,0,0,0,4.78.63c1.65-.05,3.79-.63,5.36,0a.61.61,0,0,1,.4.35.75.75,0,0,1-.15.51l-1,1.67a13.43,13.43,0,0,1,2.11,1.06,3.1,3.1,0,0,1-.44,5.21,8.33,8.33,0,0,1-3.36.46c-1.36.11-2.71.2-4.08.18-2.76-.05-5.52-.31-8.28-.43-4.63-.22-9.26-.45-13.89-.73-10.22-.63-20.66-1.13-30.72-3.15-1.75-.35-5.18-.69-6.32-2.33C241,144.7,250.14,107.25,250.14,107.25Z" fill="#fff"/><path d="M303.86,156.46h-.45c-1.73,0-3.47-.14-5.16-.25-1-.07-2.09-.14-3.13-.18-5.2-.24-9.74-.48-13.9-.73l-2.41-.15c-9.38-.56-19.07-1.14-28.37-3l-.89-.16c-2-.35-4.66-.82-5.75-2.38-3.26-4.66,4.91-38.61,5.85-42.47a.52.52,0,0,1,.26-.32.49.49,0,0,1,.41,0,12.37,12.37,0,0,1,6.53,7.09c2.65,6.89,6,24.15,6.53,27,8.58.88,16.91,1.83,24.75,2.85,3.74.48,7.75,1,11.78,1.69.41.06.81.14,1.22.22a15.93,15.93,0,0,0,3.47.4c.46,0,1-.07,1.49-.13a8.58,8.58,0,0,1,4.07.18,1.07,1.07,0,0,1,.69.69,1.18,1.18,0,0,1-.2.9l-.74,1.19.24.11a6.75,6.75,0,0,1,1.45.77,3.6,3.6,0,0,1-.51,6,5.75,5.75,0,0,1-2.67.49c-.29,0-.59,0-.88,0C306.19,156.39,305,156.46,303.86,156.46ZM250.48,108c-2.61,10.78-8.35,37.5-5.86,41.07.85,1.22,3.41,1.67,5.1,2l.91.17c9.24,1.85,18.9,2.43,28.24,3l2.41.15c4.15.25,8.69.49,13.88.73q1.59.08,3.15.18c1.68.11,3.41.22,5.12.25,1.28,0,2.54-.06,4-.18.32,0,.63,0,1,0a4.86,4.86,0,0,0,2.21-.37,2.6,2.6,0,0,0,.38-4.37,5.82,5.82,0,0,0-1.24-.65c-.27-.12-.54-.23-.8-.37a.49.49,0,0,1-.25-.31.53.53,0,0,1,.06-.39l1-1.67a.41.41,0,0,0,.06-.11l-.07,0a7.61,7.61,0,0,0-3.58-.11c-.55.06-1.08.12-1.57.13a16.63,16.63,0,0,1-3.69-.42l-1.19-.22c-4-.66-8-1.2-11.74-1.68-8-1-16.4-2-25.1-2.88a.51.51,0,0,1-.44-.41c0-.2-3.76-19.89-6.55-27.16A11.86,11.86,0,0,0,250.48,108Z" fill="#231f20"/><path d="M129.06,133.93s1.62-42.43,2.76-45.51,5.18-6.48,3.72-9.72-6.8-10.52-7.77-13S125.5,56,120.64,54s-3.08,3.18-2.1,6.42,1.78,20.73,1.29,29.8-11.17,50.21-11.17,50.21" fill="#fff"/><path d="M108.66,140.91l-.13,0a.5.5,0,0,1-.36-.61c.11-.41,10.68-41.19,11.16-50.1.5-9.3-.37-26.63-1.27-29.63l-.14-.47c-.78-2.55-1.65-5.43-.37-6.6.67-.6,1.74-.59,3.28,0,4.17,1.72,5.83,7.08,6.82,10.28.22.71.41,1.33.58,1.76a52.08,52.08,0,0,0,3.59,6,68.83,68.83,0,0,1,4.18,7c1.08,2.41-.47,4.76-2,7a16,16,0,0,0-1.74,3.06c-.88,2.38-2.17,30.71-2.73,45.36a.5.5,0,1,1-1,0c.07-1.73,1.64-42.54,2.79-45.66A17.1,17.1,0,0,1,133.19,85c1.36-2,2.75-4.16,1.9-6.07A69.17,69.17,0,0,0,131,72.08a51.75,51.75,0,0,1-3.68-6.15c-.18-.47-.38-1.1-.61-1.83-.93-3-2.5-8.11-6.24-9.65-1.1-.46-1.89-.53-2.23-.23-.81.74.11,3.76.65,5.57l.15.47c1,3.4,1.79,21,1.31,30s-10.75,48.62-11.19,50.31A.5.5,0,0,1,108.66,140.91Z" fill="#231f20"/><path d="M132.78,112.53l.82-1.92C138,100.29,142,95,145.4,91.34s9.33-8.61,10.06-11.63-1.46-7.65-1.21-9.83.54-17.82-2.19-18.59c-5.59-1.58-7.53,19.32-9.72,23s-9.47,17.6-16.52,26.05c-2.34,2.82-6.12,7.23-10.13,12.23Z" fill="#fff"/><path d="M132.78,113H115.69a.5.5,0,0,1-.39-.81c3-3.79,5.89-7.18,8.19-9.91l2-2.33c5.63-6.75,11.48-17.16,14.63-22.75.78-1.4,1.41-2.52,1.85-3.24.66-1.1,1.36-4.18,2.11-7.44,1.47-6.43,3.14-13.71,6.07-15.45a2.64,2.64,0,0,1,2.1-.29c3.55,1,2.56,18.94,2.54,19.12a13,13,0,0,0,.58,3.58c.51,2.08,1.08,4.44.63,6.31-.56,2.33-3.82,5.52-7,8.61-1.17,1.15-2.29,2.24-3.22,3.25-3.08,3.33-7.21,8.52-11.7,19.12l-.82,1.93A.51.51,0,0,1,132.78,113Zm-16-1h15.72l.69-1.62c4.55-10.75,8.75-16,11.89-19.41.95-1,2.07-2.12,3.25-3.29,2.91-2.84,6.2-6.07,6.7-8.12.39-1.64-.15-3.87-.63-5.84a13.07,13.07,0,0,1-.6-3.93c.37-3.33.22-17.47-1.82-18a1.63,1.63,0,0,0-1.32.18c-2.56,1.52-4.32,9.21-5.61,14.82-.79,3.48-1.48,6.48-2.23,7.73-.43.71-1.05,1.82-1.83,3.21-3.16,5.62-9,16.08-14.73,22.9-.57.69-1.23,1.47-2,2.33C122.13,105.48,119.52,108.58,116.73,112Z" fill="#231f20"/><path d="M183.29,118.11s-8-3.82-23.62,1.07-31.73,11.31-31.73,11.31L137.45,105H121.37s-28.88,22.1-23,36.54,84.92,11.86,84.92,11.86Z" fill="#231f20"/><path d="M169.14,154.1c-23.15,0-66.79-1.47-71.23-12.37-2.52-6.18.64-14.32,9.38-24.2a110.82,110.82,0,0,1,13.78-12.93.51.51,0,0,1,.3-.1h16.08a.52.52,0,0,1,.41.21.54.54,0,0,1,.06.46l-9.12,24.45c3.83-1.5,17.52-6.78,30.72-10.91,15.64-4.9,23.65-1.21,24-1a.49.49,0,0,1,.29.45V153.4a.51.51,0,0,1-.49.5C182.48,153.93,177,154.1,169.14,154.1Zm-47.6-48.6c-2.1,1.65-28.18,22.43-22.7,35.85,2.32,5.72,17.62,9.53,44.22,11,18.48,1,36.57.62,39.73.53V118.45c-1.55-.6-9.35-3-23,1.21-15.42,4.83-31.53,11.23-31.69,11.3a.51.51,0,0,1-.54-.11.5.5,0,0,1-.12-.53l9.26-24.82Z" fill="#231f20"/><path d="M233.2,102.61S207.69,127.06,202.59,128c-4.43.84-8-7.54-19.3-9.92V153.4c10.81-.11,31.65-.5,43.25-1.9,16.14-1.94,29.74-4.19,34.36-23.47S245.35,102.79,233.2,102.61Z" fill="#68e1fd"/><path d="M183.29,153.9a.5.5,0,0,1-.35-.14.48.48,0,0,1-.15-.36V118.11a.53.53,0,0,1,.18-.39.53.53,0,0,1,.42-.1c6.41,1.34,10.42,4.61,13.35,7,2.33,1.89,4,3.27,5.76,2.93,3.92-.75,21.57-16.87,30.35-25.29a.48.48,0,0,1,.36-.14c8.17.12,19.72,2.85,25.38,10.14,3.35,4.3,4.29,9.65,2.79,15.9-4.85,20.24-20.07,22.08-34.78,23.85-11.54,1.39-32.09,1.79-43.31,1.9Zm.5-35.17V152.9c11.3-.12,31.36-.53,42.69-1.89,17.66-2.13,29.57-4.89,33.93-23.1,1.42-5.93.54-11-2.61-15-5.4-7-16.47-9.59-24.4-9.74-2.31,2.2-25.68,24.44-30.71,25.4-2.21.42-4.14-1.15-6.58-3.13C193.2,123,189.6,120.09,183.79,118.73Z" fill="#231f20"/><path d="M268,74.79c-.6-3.8-1.21-7.28-4.24-10.26a18.16,18.16,0,0,0-10.74-4.81,22.69,22.69,0,0,0-17.38,5.59,21.81,21.81,0,0,0-7.32,15.84c.06,6.38-1.37,12.84-1.54,19.32-.09,3.39-.34,7.89,2.72,10.23.88.67-.14-.84,1-.77,3.73.26,7.69.69,11.42.26,3.48-.39,6.62-2,10-2.48a15.15,15.15,0,0,1,6.43.83c.43.12.86.24,1.3.34a14.79,14.79,0,0,0,9.85-.67,9.07,9.07,0,0,0,5.32-7.92c0-2.79-1.62-5.28-2.83-7.8-2.38-4.94-2.77-10.51-3.67-15.85C268.22,76,268.13,75.4,268,74.79Z" fill="#fff"/><path d="M229.85,111.37a1.08,1.08,0,0,1-.62-.27c-3.15-2.4-3-6.74-2.93-10.23v-.41c.08-3,.43-6,.77-9a85.34,85.34,0,0,0,.77-10.34,22.27,22.27,0,0,1,7.49-16.21,23.23,23.23,0,0,1,17.77-5.72,18.63,18.63,0,0,1,11,5c3.22,3.16,3.81,6.91,4.38,10.54h0l.05.27c.08.52.16,1,.25,1.58.19,1.1.35,2.21.51,3.32.63,4.2,1.27,8.54,3.12,12.4.22.45.46.91.69,1.37,1.06,2.08,2.16,4.24,2.19,6.64a9.54,9.54,0,0,1-5.6,8.37,15.35,15.35,0,0,1-10.19.71l-1.31-.34-.32-.09a13.93,13.93,0,0,0-5.9-.74,33.06,33.06,0,0,0-4.63,1.18,29,29,0,0,1-5.42,1.31,52.87,52.87,0,0,1-9.74-.13l-1.77-.13h0v.14a.71.71,0,0,1-.32.74A.65.65,0,0,1,229.85,111.37ZM250.7,60.09A22.2,22.2,0,0,0,236,65.68a21.27,21.27,0,0,0-7.16,15.46,85.18,85.18,0,0,1-.78,10.47c-.33,2.91-.68,5.91-.76,8.87v.42c-.09,3.11-.19,7,2.19,9.12a.86.86,0,0,1,.22-.34,1.08,1.08,0,0,1,.81-.25l1.78.13a51.74,51.74,0,0,0,9.55.14,29.57,29.57,0,0,0,5.23-1.27,32.49,32.49,0,0,1,4.78-1.22,14.88,14.88,0,0,1,6.32.77l.31.08,1.28.34a14.39,14.39,0,0,0,9.52-.64,8.51,8.51,0,0,0,5-7.46c0-2.16-1.07-4.21-2.08-6.2-.24-.46-.47-.93-.7-1.39-1.92-4-2.57-8.41-3.2-12.68-.17-1.11-.33-2.21-.52-3.31-.09-.53-.17-1.06-.25-1.59l0-.26c-.55-3.47-1.11-7.05-4.1-10A17.63,17.63,0,0,0,253,60.22,19.58,19.58,0,0,0,250.7,60.09Z" fill="#231f20"/><path d="M264.44,77.93s2.81,9.34.85,16.23a10.23,10.23,0,0,1-8.26,7.55l-.64,12.34s-.27,6.31-8,4.94a13.3,13.3,0,0,1-10-8.19l.31-22.74s9-4.58,8.68-12.77C247.43,75.29,257.59,80.87,264.44,77.93Z" fill="#fff"/><path d="M250.5,119.68a11.79,11.79,0,0,1-2.15-.2A13.66,13.66,0,0,1,238,111a.47.47,0,0,1,0-.17l.31-22.73a.48.48,0,0,1,.27-.44c.09-.05,8.73-4.54,8.41-12.31a.51.51,0,0,1,.24-.44.5.5,0,0,1,.5,0c.1.06,10,5.43,16.58,2.62a.47.47,0,0,1,.4,0,.5.5,0,0,1,.27.3c.12.39,2.83,9.57.85,16.51a10.83,10.83,0,0,1-8.26,7.85l-.62,11.94a6.31,6.31,0,0,1-2.19,4.29A6.49,6.49,0,0,1,250.5,119.68Zm-11.56-9a12.9,12.9,0,0,0,9.58,7.78c2.4.42,4.27.12,5.56-.91a5.33,5.33,0,0,0,1.81-3.56l.64-12.34a.49.49,0,0,1,.44-.47,9.67,9.67,0,0,0,7.84-7.2c1.64-5.75-.16-13.37-.7-15.42-5.93,2.15-13.74-1.28-16.17-2.49-.24,7.19-7.2,11.43-8.7,12.26Z" fill="#231f20"/><path d="M243.1,86.69s-3.37-8.76-7.94-3.58,1.38,11.42,5.21,11.11" fill="#fff"/><path d="M240.09,94.73c-2.31,0-5-1.92-6.33-4.5a6.38,6.38,0,0,1,1-7.45c1.24-1.41,2.54-2,3.85-1.76,3,.54,4.86,5.29,4.94,5.49a.5.5,0,1,1-.93.36s-1.74-4.43-4.18-4.87c-1-.17-1.94.32-2.93,1.44a5.43,5.43,0,0,0-.88,6.34c1.17,2.33,3.72,4.08,5.68,3.94a.5.5,0,0,1,.08,1Z" fill="#231f20"/><path d="M256.15,95.36a9.88,9.88,0,0,1-2.73-.45.49.49,0,0,1-.32-.62.5.5,0,0,1,.63-.33c.65.21,2.58.66,3.58.21.24-.5-1.25-3.53-3.22-6.43a.51.51,0,0,1,.14-.7.5.5,0,0,1,.69.13c.89,1.32,3.76,5.73,3.32,7.28a1,1,0,0,1-.51.63A3.9,3.9,0,0,1,256.15,95.36Z" fill="#231f20"/><path d="M257,101.71s-6.64.49-10.37-.67c0,0,3.63,9.93,9.9,10.2Z" fill="#231f20"/><path d="M256.56,111.74h0c-6.53-.28-10.2-10.11-10.35-10.53a.5.5,0,0,1,.11-.52.53.53,0,0,1,.51-.13c3.6,1.12,10.12.66,10.18.65a.48.48,0,0,1,.39.15.52.52,0,0,1,.15.38l-.47,9.53A.5.5,0,0,1,256.56,111.74Zm-9.06-10c1,2.32,4.08,8.32,8.58,8.92l.42-8.45A39,39,0,0,1,247.5,101.78Z" fill="#231f20"/><ellipse cx="248.85" cy="85.23" rx="0.97" ry="1.7" transform="translate(-0.22 0.65) rotate(-0.15)" fill="#231f20"/><ellipse cx="258.06" cy="84.81" rx="0.97" ry="1.7" transform="translate(-0.22 0.67) rotate(-0.15)" fill="#231f20"/><path d="M227,96c-.39,4.46-.95,9.59.86,13.83,2.44,5.72,9.48,4.51,14.1,2.36,1.94-.9,4.06-2.08,4.6-4.14.45-1.73-.37-3.51-1.29-5a35.77,35.77,0,0,0-7.81-9.13" fill="#fff"/><path d="M234.71,114.49a9.26,9.26,0,0,1-3.33-.57,6.86,6.86,0,0,1-3.94-3.89c-1.78-4.18-1.34-9.14-.95-13.52l0-.55a.51.51,0,0,1,.55-.45.5.5,0,0,1,.45.54l0,.55c-.38,4.26-.82,9.09.87,13a5.88,5.88,0,0,0,3.38,3.34c2.54,1,6.3.51,10-1.23,2-.92,3.86-2,4.33-3.82.42-1.6-.44-3.33-1.24-4.66a34.82,34.82,0,0,0-7.7-9,.5.5,0,0,1-.07-.7.52.52,0,0,1,.71-.07,36.26,36.26,0,0,1,7.92,9.27c.9,1.49,1.86,3.46,1.34,5.43-.57,2.2-2.68,3.44-4.87,4.46A19.14,19.14,0,0,1,234.71,114.49Z" fill="#231f20"/><path d="M249.87,91.91a5.7,5.7,0,1,1,.85-.07A5,5,0,0,1,249.87,91.91Zm0-10.2a4.2,4.2,0,0,0-.7.05A4.59,4.59,0,0,0,245.33,87a4.59,4.59,0,0,0,8.25,2,4.54,4.54,0,0,0,.84-3.42A4.6,4.6,0,0,0,249.88,81.71Z" fill="#231f20"/><path d="M259.75,91.91a5.61,5.61,0,0,1-4.5-8.92,5.6,5.6,0,1,1,5.36,8.85A5,5,0,0,1,259.75,91.91Zm0-10.2a4.12,4.12,0,0,0-.7.05A4.59,4.59,0,0,0,255.22,87,4.51,4.51,0,0,0,257,90a4.58,4.58,0,0,0,6.43-1,4.54,4.54,0,0,0,.84-3.42A4.6,4.6,0,0,0,259.77,81.71Z" fill="#231f20"/><path d="M252.14,97.77a5.54,5.54,0,0,1-3.79-1.23,4.36,4.36,0,0,1-1.44-2.79.5.5,0,0,1,.47-.52.48.48,0,0,1,.53.47A3.37,3.37,0,0,0,249,95.8a5,5,0,0,0,3.81.94.5.5,0,1,1,.07,1Z" fill="#231f20"/><line x1="244.77" y1="85.23" x2="241.92" y2="84.39" fill="#fff"/><path d="M244.77,85.73a.36.36,0,0,1-.14,0l-2.85-.84a.5.5,0,1,1,.28-1l2.85.84a.5.5,0,0,1,.34.62A.49.49,0,0,1,244.77,85.73Z" fill="#231f20"/><path d="M266,87.14h-1.43a.5.5,0,0,1-.5-.5.5.5,0,0,1,.5-.5H266a.5.5,0,0,1,.5.5A.51.51,0,0,1,266,87.14Z" fill="#231f20"/><path d="M278.17,132.68c-2.63,4.38.32,14.09.32,14.09l3.9,2.83a12.33,12.33,0,0,0,12.7-21.13l-4.33-2.12S280.8,128.31,278.17,132.68Z" fill="#68e1fd"/><path d="M288.72,151.86a12.75,12.75,0,0,1-6.59-1.83l-3.94-2.86a.44.44,0,0,1-.18-.26c-.12-.4-3-10-.27-14.49s12.51-6.47,12.92-6.56a.51.51,0,0,1,.32,0l4.33,2.11a12.83,12.83,0,0,1-6.59,23.84Zm-9.8-5.4,3.76,2.73a11.82,11.82,0,0,0,12.15-20.29l-4.14-2c-1.28.27-9.78,2.22-12.09,6.06S278.56,145.2,278.92,146.46Z" fill="#231f20"/><circle cx="286.05" cy="137.42" r="12.33" fill="#68e1fd"/><path d="M286,150.25a12.83,12.83,0,1,1,11-6.22A12.87,12.87,0,0,1,286,150.25Zm0-24.65a11.82,11.82,0,1,0,6.08,1.69h0A11.69,11.69,0,0,0,286.07,125.6Z" fill="#231f20"/><path d="M254.14,148.33v6.35c0,2.4,5.87,4.34,13.11,4.34s13.1-1.94,13.1-4.34v-6.35Z" fill="#68e1fd"/><path d="M267.25,159.52c-6.6,0-13.61-1.69-13.61-4.84v-6.35a.51.51,0,0,1,.5-.5h26.21a.5.5,0,0,1,.5.5v6.35C280.85,157.83,273.84,159.52,267.25,159.52Zm-12.61-10.69v5.85c0,1.82,5.18,3.84,12.61,3.84s12.6-2,12.6-3.84v-5.85Z" fill="#231f20"/><ellipse cx="267.25" cy="148.33" rx="13.1" ry="4.35" fill="#231f20"/><path d="M267.25,153.18c-6.6,0-13.61-1.7-13.61-4.85s7-4.85,13.61-4.85,13.6,1.7,13.6,4.85S273.84,153.18,267.25,153.18Zm0-8.7c-7.43,0-12.61,2-12.61,3.85s5.18,3.85,12.61,3.85,12.6-2,12.6-3.85S274.68,144.48,267.25,144.48Z" fill="#231f20"/><path d="M257.23,139.64V146c0,2.4,5.87,4.35,13.1,4.35s13.11-2,13.11-4.35v-6.34Z" fill="#68e1fd"/><path d="M270.33,150.83c-6.59,0-13.6-1.7-13.6-4.85v-6.34a.5.5,0,0,1,.5-.5h26.21a.5.5,0,0,1,.5.5V146C283.94,149.13,276.93,150.83,270.33,150.83Zm-12.6-10.69V146c0,1.82,5.18,3.85,12.6,3.85s12.61-2,12.61-3.85v-5.84Z" fill="#231f20"/><ellipse cx="270.33" cy="139.64" rx="13.1" ry="4.35" fill="#231f20"/><path d="M270.33,144.48c-6.59,0-13.6-1.69-13.6-4.84s7-4.85,13.6-4.85,13.61,1.7,13.61,4.85S276.93,144.48,270.33,144.48Zm0-8.69c-7.42,0-12.6,2-12.6,3.85s5.18,3.84,12.6,3.84,12.61-2,12.61-3.84S277.76,135.79,270.33,135.79Z" fill="#231f20"/><path d="M254.55,129.94v6.35c0,2.4,5.87,4.34,13.1,4.34s13.11-1.94,13.11-4.34v-6.35Z" fill="#68e1fd"/><path d="M267.65,141.13c-6.59,0-13.6-1.69-13.6-4.84v-6.35a.5.5,0,0,1,.5-.5h26.21a.51.51,0,0,1,.5.5v6.35C281.26,139.44,274.25,141.13,267.65,141.13Zm-12.6-10.69v5.85c0,1.82,5.18,3.84,12.6,3.84s12.61-2,12.61-3.84v-5.85Z" fill="#231f20"/><ellipse cx="267.65" cy="129.94" rx="13.1" ry="4.35" fill="#231f20"/><path d="M267.65,134.79c-6.59,0-13.6-1.7-13.6-4.85s7-4.85,13.6-4.85,13.61,1.7,13.61,4.85S274.25,134.79,267.65,134.79Zm0-8.7c-7.42,0-12.6,2-12.6,3.85s5.18,3.85,12.6,3.85,12.61-2,12.61-3.85S275.08,126.09,267.65,126.09Z" fill="#231f20"/><path d="M288.64,147.23v6.34c0,2.4,5.86,4.35,13.1,4.35s13.11-1.95,13.11-4.35v-6.34Z" fill="#68e1fd"/><path d="M301.74,158.42c-6.59,0-13.6-1.7-13.6-4.85v-6.34a.5.5,0,0,1,.5-.5h26.21a.5.5,0,0,1,.5.5v6.34C315.35,156.72,308.34,158.42,301.74,158.42Zm-12.6-10.69v5.84c0,1.82,5.17,3.85,12.6,3.85s12.61-2,12.61-3.85v-5.84Z" fill="#231f20"/><ellipse cx="301.74" cy="147.23" rx="13.1" ry="4.35" fill="#231f20"/><path d="M301.74,152.08c-6.59,0-13.6-1.7-13.6-4.85s7-4.85,13.6-4.85,13.61,1.7,13.61,4.85S308.34,152.08,301.74,152.08Zm0-8.7c-7.43,0-12.6,2-12.6,3.85s5.17,3.85,12.6,3.85,12.61-2,12.61-3.85S309.17,143.38,301.74,143.38Z" fill="#231f20"/><path d="M286.93,139.71v6.34c0,2.4,5.87,4.35,13.11,4.35s13.1-2,13.1-4.35v-6.34Z" fill="#68e1fd"/><path d="M300,150.9c-6.6,0-13.61-1.7-13.61-4.85v-6.34a.5.5,0,0,1,.5-.5h26.21a.5.5,0,0,1,.5.5v6.34C313.64,149.2,306.63,150.9,300,150.9Zm-12.61-10.69v5.84c0,1.82,5.18,3.85,12.61,3.85s12.6-2,12.6-3.85v-5.84Z" fill="#231f20"/><ellipse cx="300.04" cy="139.71" rx="13.1" ry="4.35" fill="#231f20"/><path d="M300,144.56c-6.6,0-13.61-1.7-13.61-4.85s7-4.85,13.61-4.85,13.6,1.7,13.6,4.85S306.63,144.56,300,144.56Zm0-8.7c-7.43,0-12.61,2-12.61,3.85s5.18,3.85,12.61,3.85,12.6-2,12.6-3.85S307.46,135.86,300,135.86Z" fill="#231f20"/><path d="M289,130.55v6.34c0,2.4,5.87,4.35,13.11,4.35s13.1-2,13.1-4.35v-6.34Z" fill="#68e1fd"/><path d="M302.15,141.74c-6.6,0-13.61-1.7-13.61-4.85v-6.34a.5.5,0,0,1,.5-.5h26.21a.5.5,0,0,1,.5.5v6.34C315.75,140,308.74,141.74,302.15,141.74Zm-12.61-10.69v5.84c0,1.82,5.18,3.85,12.61,3.85s12.6-2,12.6-3.85v-5.84Z" fill="#231f20"/><ellipse cx="302.15" cy="130.55" rx="13.1" ry="4.35" fill="#231f20"/><path d="M302.15,135.4c-6.6,0-13.61-1.7-13.61-4.85s7-4.85,13.61-4.85,13.6,1.7,13.6,4.85S308.74,135.4,302.15,135.4Zm0-8.7c-7.43,0-12.61,2-12.61,3.85s5.18,3.85,12.61,3.85,12.6-2,12.6-3.85S309.58,126.7,302.15,126.7Z" fill="#231f20"/><path d="M286.93,121.35v6.35c0,2.4,5.87,4.35,13.11,4.35s13.1-2,13.1-4.35v-6.35Z" fill="#68e1fd"/><path d="M300,132.55c-6.6,0-13.61-1.7-13.61-4.85v-6.35a.51.51,0,0,1,.5-.5h26.21a.5.5,0,0,1,.5.5v6.35C313.64,130.85,306.63,132.55,300,132.55Zm-12.61-10.7v5.85c0,1.82,5.18,3.85,12.61,3.85s12.6-2,12.6-3.85v-5.85Z" fill="#231f20"/><ellipse cx="300.04" cy="121.35" rx="13.1" ry="4.35" fill="#231f20"/><path d="M300,126.2c-6.6,0-13.61-1.7-13.61-4.85s7-4.84,13.61-4.84,13.6,1.7,13.6,4.84S306.63,126.2,300,126.2Zm0-8.69c-7.43,0-12.61,2-12.61,3.84s5.18,3.85,12.61,3.85,12.6-2,12.6-3.85S307.46,117.51,300,117.51Z" fill="#231f20"/><path d="M291.16,113.83v6.35c0,2.4,5.86,4.35,13.1,4.35s13.1-2,13.1-4.35v-6.35Z" fill="#68e1fd"/><path d="M304.26,125c-6.59,0-13.6-1.7-13.6-4.85v-6.35a.5.5,0,0,1,.5-.5h26.2a.5.5,0,0,1,.5.5v6.35C317.86,123.33,310.86,125,304.26,125Zm-12.6-10.7v5.85c0,1.82,5.17,3.85,12.6,3.85s12.6-2,12.6-3.85v-5.85Z" fill="#231f20"/><ellipse cx="304.26" cy="113.83" rx="13.1" ry="4.35" fill="#231f20"/><path d="M304.26,118.68c-6.59,0-13.6-1.7-13.6-4.85s7-4.84,13.6-4.84,13.6,1.7,13.6,4.84S310.86,118.68,304.26,118.68Zm0-8.69c-7.43,0-12.6,2-12.6,3.84s5.17,3.85,12.6,3.85,12.6-2,12.6-3.85S311.69,110,304.26,110Z" fill="#231f20"/><path d="M288.28,106.31v6.35c0,2.4,5.87,4.35,13.11,4.35s13.1-2,13.1-4.35v-6.35Z" fill="#68e1fd"/><path d="M301.39,117.51c-6.6,0-13.61-1.7-13.61-4.85v-6.35a.5.5,0,0,1,.5-.5h26.21a.5.5,0,0,1,.5.5v6.35C315,115.81,308,117.51,301.39,117.51Zm-12.61-10.7v5.85c0,1.82,5.18,3.85,12.61,3.85s12.6-2,12.6-3.85v-5.85Z" fill="#231f20"/><ellipse cx="301.39" cy="106.31" rx="13.1" ry="4.35" fill="#68e1fd"/><path d="M301.39,111.16c-6.6,0-13.61-1.7-13.61-4.85s7-4.84,13.61-4.84,13.6,1.7,13.6,4.84S308,111.16,301.39,111.16Zm0-8.69c-7.43,0-12.61,2-12.61,3.84s5.18,3.85,12.61,3.85,12.6-2,12.6-3.85S308.81,102.47,301.39,102.47Z" fill="#231f20"/><path d="M273.84,155.2l.28,4.73c.06,3.17,6.11,5.63,13.51,5.49s13.36-2.82,13.3-6l-.29-4.72Z" fill="#68e1fd"/><path d="M287,165.92a24.87,24.87,0,0,1-9.09-1.54c-2.75-1.12-4.28-2.7-4.32-4.44l-.28-4.71a.51.51,0,0,1,.13-.37.48.48,0,0,1,.36-.16l26.8-.5a.47.47,0,0,1,.51.47l.28,4.72c0,1.77-1.43,3.4-4.14,4.62a25.3,25.3,0,0,1-9.64,1.91Zm-12.66-10.23.25,4.21c0,1.32,1.37,2.61,3.69,3.55a27,27,0,0,0,18.56-.35c2.28-1,3.58-2.36,3.56-3.67l-.26-4.22Z" fill="#231f20"/><ellipse cx="287.24" cy="154.95" rx="13.4" ry="5.74" transform="translate(-2.85 5.4) rotate(-1.07)" fill="#68e1fd"/><path d="M286.75,161.2a24.92,24.92,0,0,1-9.1-1.55c-2.75-1.12-4.28-2.69-4.31-4.44s1.44-3.38,4.14-4.6a25.35,25.35,0,0,1,9.64-1.9c7.77-.16,13.95,2.48,14,6h0c.07,3.5-6,6.35-13.78,6.5Zm1-11.5h-.57a24.31,24.31,0,0,0-9.25,1.81c-2.28,1-3.58,2.37-3.55,3.67s1.37,2.59,3.69,3.53a24.06,24.06,0,0,0,9.31,1.47c7-.13,12.85-2.64,12.8-5.48h0C300.09,152,294.45,149.7,287.71,149.7Z" fill="#231f20"/><path d="M254.37,122.42l.29,4.73c.06,3.17,6.11,5.63,13.51,5.49s13.35-2.82,13.29-6l-.29-4.72Z" fill="#68e1fd"/><path d="M267.56,133.14c-7.5,0-13.34-2.58-13.4-6l-.28-4.71a.47.47,0,0,1,.13-.37.48.48,0,0,1,.35-.16l26.81-.5a.49.49,0,0,1,.5.47l.29,4.72c0,1.77-1.44,3.4-4.14,4.62a25.34,25.34,0,0,1-9.64,1.91ZM254.9,122.91l.26,4.21c.05,2.86,6,5.15,13,5a24.31,24.31,0,0,0,9.25-1.82c2.28-1,3.57-2.36,3.55-3.67l-.26-4.22Z" fill="#231f20"/><ellipse cx="267.77" cy="122.17" rx="13.4" ry="5.74" transform="translate(-2.24 5.03) rotate(-1.07)" fill="#68e1fd"/><path d="M267.27,128.42c-7.5,0-13.33-2.58-13.4-6,0-1.75,1.44-3.38,4.15-4.6a28,28,0,0,1,19.34-.36c2.75,1.12,4.28,2.69,4.31,4.44h0c0,1.75-1.43,3.38-4.14,4.6a25.31,25.31,0,0,1-9.64,1.9Zm1-11.5h-.59a24.27,24.27,0,0,0-9.25,1.81c-2.28,1-3.58,2.37-3.56,3.67.06,2.84,6,5.14,13,5a24.27,24.27,0,0,0,9.25-1.81c2.28-1,3.58-2.37,3.55-3.67h0c0-1.3-1.36-2.59-3.68-3.53A23.73,23.73,0,0,0,268.27,116.92Z" fill="#231f20"/><path d="M227.37,125.67s7.23,43.81,15.34,44.86c15,1.94,44.58-17.08,44.58-17.08s15.07-1.38,15.15-2.68-5.11-1.53-5.11-1.53,9.07-.41,8.75-2-7-1-7-1,9-.73,8.26-2.43-8.26-.81-8.26-.81,7.77-1.54,6.88-3.24-15.47,2.63-15.47,2.63,5.43-3.15,3.73-5.1-9,6.24-9,6.24L251.18,156l-4.47-30.12s-1.85-7.77-10.27-7.77S227.37,125.67,227.37,125.67Z" fill="#fff"/><path d="M245,171.17a17.88,17.88,0,0,1-2.35-.14c-3.59-.47-7.34-8.27-11.14-23.2-2.79-11-4.61-22-4.63-22.08a.49.49,0,0,1,0-.12,9.11,9.11,0,0,1,9.57-8.07c8.72,0,10.73,8.08,10.75,8.16l4.4,29.55L285,143.1c.92-1,6.06-6.61,8.56-6.61h0a1.43,1.43,0,0,1,1.08.47,1.78,1.78,0,0,1,.43,1.49,5.17,5.17,0,0,1-1.88,2.66c5.51-1.53,12.47-3.1,13.26-1.58a1.08,1.08,0,0,1,0,1,5.14,5.14,0,0,1-2.73,1.74c1.9.06,3.69.39,4.11,1.35a1,1,0,0,1-.07.91c-.37.61-1.61,1.08-3.06,1.42,1,.22,1.73.61,1.86,1.25a.89.89,0,0,1-.19.76c-.57.74-2.74,1.18-4.86,1.45a2.63,2.63,0,0,1,1.13.65,1,1,0,0,1,.29.76c0,.42-.11,1.71-15.48,3.12C285.34,155.29,260.12,171.17,245,171.17Zm-17.13-45.51c2,12.13,8.56,43.55,14.9,44.38,14.61,1.9,44-16.82,44.25-17a.49.49,0,0,1,.23-.08c6.46-.59,13.51-1.59,14.64-2.28-.37-.4-2.45-.83-4.58-.93a.5.5,0,0,1,0-1c4.17-.19,8-.84,8.29-1.41-.13-.5-3.26-.82-6.45-.59a.5.5,0,0,1-.07-1c4-.32,7.63-1.14,7.84-1.75-.35-.79-4.29-.9-7.74-.49a.51.51,0,0,1-.56-.42.5.5,0,0,1,.4-.57c2.47-.49,6.12-1.56,6.53-2.42-.77-.81-8.33.84-14.87,2.78a.5.5,0,0,1-.4-.91c1-.57,3.58-2.35,3.79-3.67a.72.72,0,0,0-.19-.67.38.38,0,0,0-.34-.13c-1.62,0-5.7,3.91-7.9,6.37a.48.48,0,0,1-.2.14l-34.09,12.42a.52.52,0,0,1-.42,0,.5.5,0,0,1-.24-.36l-4.48-30.11a9.88,9.88,0,0,0-9.77-7.35C228.86,118.56,228,124.92,227.87,125.66Z" fill="#231f20"/><path d="M118.54,134.43a.51.51,0,0,1-.47-.31.5.5,0,0,1,.28-.65L124,131.2a.5.5,0,1,1,.37.93l-5.67,2.27Z" fill="#231f20"/><path d="M212.63,133.46c-3.65,0-12.49-4.79-12.87-5a.5.5,0,0,1,.48-.88c.09,0,9,4.87,12.39,4.87a.5.5,0,0,1,0,1Z" fill="#231f20"/><rect x="58.84" y="176.04" width="282.33" height="69.92" fill="#fff"/><path d="M341.16,176V246H58.84V176H341.16m0-1H58.84a1,1,0,0,0-1,1V246a1,1,0,0,0,1,1H341.16a1,1,0,0,0,1-1V176a1,1,0,0,0-1-1Z" fill="#231f20"/><path d="M199.89,221.67H122.26a.5.5,0,0,1,0-1h77.63a.5.5,0,0,1,0,1Z" fill="#231f20"/><rect x="171.76" y="175.6" width="56.48" height="73.19" fill="#e6e7e8"/><path d="M228.24,249.29H171.76a.5.5,0,0,1-.5-.5V175.6a.5.5,0,0,1,.5-.5h56.48a.5.5,0,0,1,.5.5v73.19A.5.5,0,0,1,228.24,249.29Zm-56-1h55.48V176.1H172.26Z" fill="#231f20"/><path d="M151.39,191.61H58.84a.5.5,0,0,1,0-1h92.55a.5.5,0,0,1,0,1Z" fill="#231f20"/><path d="M341.16,194.6H257.09a.5.5,0,0,1-.5-.5.5.5,0,0,1,.5-.5h84.07a.5.5,0,0,1,.5.5A.5.5,0,0,1,341.16,194.6Z" fill="#231f20"/><path d="M309.65,218.88h-73a.5.5,0,0,1-.5-.5.51.51,0,0,1,.5-.5h73a.51.51,0,0,1,.5.5A.5.5,0,0,1,309.65,218.88Z" fill="#231f20"/><path d="M341.16,236.4H257.79a.5.5,0,0,1,0-1h83.37a.5.5,0,0,1,0,1Z" fill="#231f20"/><path d="M138.45,236.4H76.34a.5.5,0,0,1,0-1h62.11a.5.5,0,0,1,0,1Z" fill="#231f20"/><path d="M128.1,205H90.27a.51.51,0,0,1-.5-.5.5.5,0,0,1,.5-.5H128.1a.5.5,0,0,1,.5.5A.51.51,0,0,1,128.1,205Z" fill="#231f20"/><path d="M270.33,205H241.92a.5.5,0,0,1-.5-.5.5.5,0,0,1,.5-.5h28.41a.5.5,0,0,1,.5.5A.5.5,0,0,1,270.33,205Z" fill="#231f20"/></g></svg>