<svg xmlns="http://www.w3.org/2000/svg" viewBox="0 0 400 300"><g id="_377_explosion_flatline" data-name="#377_explosion_flatline"><path d="M249.41,266.79l-7.85-52.19-81.7-7.15c-.66.76-4.06,26.64-8.14,59.34Z" fill="#231f20"/><path d="M249.41,267.29H151.72a.5.5,0,0,1-.49-.57c7.29-58.48,7.94-59.24,8.25-59.6a.48.48,0,0,1,.42-.17l81.7,7.16a.49.49,0,0,1,.45.42l7.86,52.18a.48.48,0,0,1-.12.4A.49.49,0,0,1,249.41,267.29Zm-97.12-1h96.54l-7.71-51.22-81-7.09C159.67,209.77,157.84,221.83,152.29,266.29Z" fill="#231f20"/><polygon points="177.75 127.06 177.75 226.56 227.8 226.56 223.31 125.11 199.77 121.61 177.75 127.06" fill="#fff"/><path d="M227.8,227.06H177.75a.5.5,0,0,1-.5-.5v-99.5a.51.51,0,0,1,.38-.49l22-5.44a.4.4,0,0,1,.19,0l23.54,3.49a.5.5,0,0,1,.43.47l4.49,101.46a.55.55,0,0,1-.14.37A.51.51,0,0,1,227.8,227.06Zm-49.55-1h49l-4.44-100.52-23-3.42-21.54,5.33Z" fill="#231f20"/><rect x="173.25" y="222.02" width="53.04" height="10.93" fill="#fff"/><path d="M226.28,233.44h-53a.5.5,0,0,1-.5-.5V222a.5.5,0,0,1,.5-.5h53a.5.5,0,0,1,.5.5v10.92A.5.5,0,0,1,226.28,233.44Zm-52.53-1h52v-9.92h-52Z" fill="#231f20"/><rect x="192.48" y="222.02" width="14.57" height="10.93" fill="#fff"/><path d="M207.05,233.44H192.48a.5.5,0,0,1-.5-.5V222a.5.5,0,0,1,.5-.5h14.57a.5.5,0,0,1,.5.5v10.92A.5.5,0,0,1,207.05,233.44Zm-14.07-1h13.57v-9.92H193Z" fill="#231f20"/><polygon points="196.57 132.21 200.44 137.18 189.33 198.85 200.44 214.98 210.65 197.78 202.99 137 208.26 132.21 202.1 128.87 196.57 132.21" fill="#d1d3d4"/><path d="M62.31,118.39l14.55,8.1S73.31,137.22,71.6,140l-16.9-7.61Z" fill="#fff"/><path d="M71.6,140.53a.46.46,0,0,1-.2-.05l-16.91-7.6a.53.53,0,0,1-.27-.3.51.51,0,0,1,0-.4l7.61-14a.48.48,0,0,1,.3-.24.51.51,0,0,1,.38,0l14.55,8.11a.48.48,0,0,1,.23.59c-.14.44-3.58,10.82-5.3,13.64A.51.51,0,0,1,71.6,140.53Zm-16.21-8.35,16,7.2c1.54-2.84,4.24-10.79,4.86-12.65L62.5,119.07Z" fill="#231f20"/><path d="M76,124.81s21.76,8.77,38.8,9.83,39.08-4.55,39.08-4.55l6,28.59s-22,9.62-43.86,5.43S70.53,141,70.53,141Z" fill="#68e1fd"/><path d="M180.75,61.72s0-12.45-3.36-22.71a49.48,49.48,0,0,1,26.07-5.72c12.26.68,23.87,7.94,23.87,7.94s-6.12,10.22-5,22C222.3,63.26,197.24,56.84,180.75,61.72Z" fill="#fff"/><path d="M222.3,63.76h-.12c-.25-.07-25.12-6.34-41.28-1.56a.48.48,0,0,1-.44-.07.52.52,0,0,1-.21-.4c0-.13,0-12.49-3.33-22.56a.48.48,0,0,1,.21-.58,50.26,50.26,0,0,1,26.36-5.79c12.25.68,24,7.94,24.1,8a.49.49,0,0,1,.17.68c-.06.1-6,10.24-5,21.74a.51.51,0,0,1-.17.42A.5.5,0,0,1,222.3,63.76ZM195.54,59.4a125.09,125.09,0,0,1,26.21,3.21c-.71-10.18,3.79-19.16,4.91-21.2-2.16-1.27-12.51-7-23.22-7.62A49.93,49.93,0,0,0,178,39.24c2.8,8.79,3.2,19.13,3.26,21.82A54.78,54.78,0,0,1,195.54,59.4Z" fill="#231f20"/><path d="M188.28,34.8c-.07,0,2.87,15.51,2.74,26.47" fill="#231f20"/><path d="M191,61.77h0a.5.5,0,0,1-.49-.51c.07-6.1-.79-14.61-2.57-25.3-.23-1.42-.25-1.53.2-1.65a.52.52,0,0,1,.63.48c0,.12.07.47.16,1,1.78,10.75,2.65,19.32,2.58,25.48A.51.51,0,0,1,191,61.77Z" fill="#231f20"/><ellipse cx="201.87" cy="70.98" rx="35.77" ry="13.82" fill="#231f20"/><path d="M201.87,85.29C181.53,85.29,165.6,79,165.6,71s15.93-14.32,36.27-14.32S238.14,63,238.14,71,222.21,85.29,201.87,85.29Zm0-27.63c-19.45,0-35.27,6-35.27,13.32s15.82,13.31,35.27,13.31,35.27-6,35.27-13.31S221.32,57.66,201.87,57.66Z" fill="#231f20"/><polygon points="185.17 118.3 216.45 118.39 215.9 128.97 193.81 128.97 183.08 124.42 185.17 118.3" fill="#231f20"/><path d="M215.9,129.47H193.81a.43.43,0,0,1-.19,0l-10.73-4.55a.5.5,0,0,1-.28-.62l2.09-6.12a.51.51,0,0,1,.47-.34h0l31.28.09a.48.48,0,0,1,.36.16.5.5,0,0,1,.14.37L216.4,129A.51.51,0,0,1,215.9,129.47Zm-22-1h21.51l.5-9.58-30.39-.09-1.82,5.34Z" fill="#231f20"/><path d="M181.36,64.84c-3.43,7.53-1.76,15.45-.9,23.32a2.61,2.61,0,0,0,.57,1.63c1,1.07,3,.37,4.37.35,1.94,0,3.93.26,5.87.35,3.35.15,6.7.25,10.06.2,4.83-.06,9.69.31,14.49-.38,2-.29,3.45-.29,4.8-1.75a11.58,11.58,0,0,0,2.12-3.42c.29-.7.53-1.41.75-2.11a28.39,28.39,0,0,0-.34-17.72C201.87,61.21,182.5,64.47,181.36,64.84Z" fill="#fff"/><path d="M208.53,91.23l-2.95,0c-1.42,0-2.83,0-4.25,0-2.93,0-6.14,0-10.08-.21-.75,0-1.51-.09-2.27-.15-1.18-.1-2.39-.19-3.57-.19-.33,0-.71.06-1.12.11-1.2.16-2.69.35-3.62-.61a3.1,3.1,0,0,1-.71-1.93c-.12-1.07-.25-2.15-.38-3.22-.83-6.75-1.69-13.73,1.33-20.36a.5.5,0,0,1,.3-.27c1.52-.49,20.79-3.63,42,.46a.52.52,0,0,1,.38.32,29.06,29.06,0,0,1,.35,18,22.06,22.06,0,0,1-.77,2.16A12.14,12.14,0,0,1,221,88.9c-1.31,1.41-2.66,1.59-4.38,1.81l-.72.1A51.82,51.82,0,0,1,208.53,91.23Zm-5.92-1,3,0a66.41,66.41,0,0,0,10.16-.39l.73-.1c1.64-.21,2.71-.35,3.78-1.5a10.78,10.78,0,0,0,2-3.27,21.14,21.14,0,0,0,.74-2.07,28.05,28.05,0,0,0-.24-17.13c-19.88-3.77-38.52-1.09-41.05-.49-2.79,6.31-1.95,13.07-1.15,19.61.13,1.08.27,2.15.38,3.23a2.25,2.25,0,0,0,.44,1.34c.58.61,1.69.46,2.77.32a11.5,11.5,0,0,1,1.24-.12c1.21,0,2.46.09,3.66.19.75.06,1.5.12,2.23.16,3.93.18,7.12.24,10,.2Z" fill="#231f20"/><path d="M187.34,84.76c-1-6.76-13.48-8.81-13.17-.86a10.93,10.93,0,0,0,3.07,7.54,8.48,8.48,0,0,0,8.38,2" fill="#fff"/><path d="M183.22,94.36a9.29,9.29,0,0,1-6.33-2.56,11.43,11.43,0,0,1-3.22-7.88,5.1,5.1,0,0,1,5-5.63c3.88-.35,8.6,2.2,9.2,6.4a.5.5,0,0,1-.43.56.48.48,0,0,1-.56-.42c-.52-3.65-4.69-5.85-8.12-5.54a4.11,4.11,0,0,0-4.06,4.59,10.49,10.49,0,0,0,2.92,7.2A7.9,7.9,0,0,0,185.45,93a.5.5,0,0,1,.64.3.51.51,0,0,1-.31.64A7.56,7.56,0,0,1,183.22,94.36Z" fill="#231f20"/><path d="M214.63,84.76c1-6.76,13.47-8.81,13.16-.86a10.92,10.92,0,0,1-3.06,7.54,8.49,8.49,0,0,1-8.38,2" fill="#fff"/><path d="M218.75,94.36a7.62,7.62,0,0,1-2.57-.43.5.5,0,0,1-.3-.64.49.49,0,0,1,.64-.3,8,8,0,0,0,7.86-1.91,10.43,10.43,0,0,0,2.91-7.2,4.1,4.1,0,0,0-4-4.59c-3.43-.31-7.61,1.89-8.12,5.54a.5.5,0,0,1-1-.14c.59-4.2,5.33-6.75,9.19-6.4a5.09,5.09,0,0,1,5,5.63,11.43,11.43,0,0,1-3.22,7.88A9.26,9.26,0,0,1,218.75,94.36Z" fill="#231f20"/><path d="M186.37,125.94s5.79,2.62,15.73,2.93,11.59-2.09,11.59-2.09l-.24-4.71-.55-11-.52-10.24-22.69-.7-1.08,8.33-.33,2.7Z" fill="#fff"/><path d="M203.81,129.4l-1.73,0c-9.92-.31-15.68-2.86-15.91-3a.48.48,0,0,1-.29-.52l3.32-25.77a.47.47,0,0,1,.51-.44l22.69.7a.49.49,0,0,1,.48.47l1.31,25.92a.56.56,0,0,1-.09.31C213.92,127.32,212.22,129.4,203.81,129.4Zm-16.89-3.77a46.82,46.82,0,0,0,15.19,2.74c8.14.25,10.57-1.35,11.07-1.78l-1.27-25.24-21.78-.66Z" fill="#231f20"/><path d="M188.28,111.2a19.32,19.32,0,0,0,7.22,6c4.79,2.55,12,5.47,17.95,4.85l-.55-11a62.69,62.69,0,0,1-13.08-.32c-3.82-.42-7.75-.87-11.21-2.29Z" fill="#231f20"/><path d="M211.76,122.65c-6.14,0-12.85-3.05-16.49-5a19.48,19.48,0,0,1-7.41-6.19.47.47,0,0,1-.08-.33l.33-2.7a.51.51,0,0,1,.69-.4c3.5,1.43,7.52,1.86,11.07,2.25a61.93,61.93,0,0,0,13,.32.5.5,0,0,1,.37.12.49.49,0,0,1,.17.36l.55,11a.51.51,0,0,1-.45.53A16.63,16.63,0,0,1,211.76,122.65Zm-23-11.57a19,19,0,0,0,7,5.7c3.79,2,11,5.28,17.19,4.83l-.5-10a62.7,62.7,0,0,1-12.67-.37A44.32,44.32,0,0,1,189,109.2Z" fill="#231f20"/><path d="M220.84,69.37l-1,27.33a17.07,17.07,0,0,1-.47,3.46,17.38,17.38,0,0,1-17.51,13.19l-2-.08a17.25,17.25,0,0,1-16.78-17.84l1-27.32s4.3,5.61,16.61,5.5S220.84,69.37,220.84,69.37Z" fill="#fff"/><path d="M202.5,113.86h-.61l-2-.08a17.94,17.94,0,0,1-16.72-13.34,17.54,17.54,0,0,1-.54-5l1-27.32a.51.51,0,0,1,.34-.46.52.52,0,0,1,.55.17c.05.06,4.26,5.31,15.88,5.31h.34c12-.1,19.87-4.14,20-4.18a.47.47,0,0,1,.5,0,.48.48,0,0,1,.23.44l-1,27.32a17.24,17.24,0,0,1-.49,3.57A17.92,17.92,0,0,1,202.5,113.86Zm-18-44.56-.92,26.14a16.63,16.63,0,0,0,.52,4.74,17,17,0,0,0,15.78,12.6l2,.07a16.75,16.75,0,0,0,17.47-16.17l.92-26.51a50.64,50.64,0,0,1-19.64,3.94C191.13,74.2,186.31,70.93,184.51,69.3Z" fill="#231f20"/><path d="M201.59,85.08s4.72,11.07,2.19,11.27a10.84,10.84,0,0,1-4.37-.51" fill="#fff"/><path d="M202.86,96.88a10.9,10.9,0,0,1-3.63-.57.5.5,0,1,1,.35-.93,10.76,10.76,0,0,0,4.16.47.18.18,0,0,0,.15-.1c.69-1.14-1.2-6.81-2.76-10.47a.5.5,0,1,1,.92-.39c.66,1.55,3.9,9.38,2.69,11.38a1.17,1.17,0,0,1-.92.58Z" fill="#231f20"/><ellipse cx="194.28" cy="82.41" rx="1.19" ry="2.39" fill="#231f20"/><ellipse cx="209.46" cy="82.41" rx="1.19" ry="2.39" fill="#231f20"/><path d="M216.45,118.39c-.43,0-14.49,10.48-14.49,10.48l8.69,9,8.69-14Z" fill="#fff"/><path d="M210.65,138.35a.52.52,0,0,1-.36-.16l-8.69-9a.48.48,0,0,1-.13-.39.46.46,0,0,1,.2-.36c14.18-10.58,14.57-10.58,14.78-10.58a.5.5,0,0,1,.44.27l2.89,5.41a.5.5,0,0,1,0,.5l-8.68,14a.48.48,0,0,1-.37.23Zm-7.93-9.42,7.84,8.11,8.2-13.25-2.51-4.71C214.52,120.2,207.61,125.29,202.72,128.93Z" fill="#231f20"/><path d="M185.17,118.3c.46,0,16.93,10.57,16.93,10.57l-10,9-10.05-14Z" fill="#fff"/><path d="M192.06,138.35H192a.49.49,0,0,1-.35-.2l-10-14a.48.48,0,0,1,0-.54l3.16-5.51a.5.5,0,0,1,.43-.25c.18,0,.61,0,17.2,10.65a.51.51,0,0,1,.23.38.5.5,0,0,1-.17.41l-10,9A.51.51,0,0,1,192.06,138.35Zm-9.45-14.57,9.53,13.32,9.13-8.17c-5.82-3.73-14-9-15.89-10Z" fill="#231f20"/><path d="M203.08,109l-.47,0c-8.5-.72-9.05-11.21-9.05-11.31a.5.5,0,0,1,.78-.43c8.84,6.12,15,1,15.3.76a.5.5,0,0,1,.56-.06.51.51,0,0,1,.26.5C210.41,98.89,209.12,109,203.08,109Zm-8.42-10.36c.34,2.51,1.81,8.82,8,9.34,4.35.35,6.07-5.9,6.59-8.53C207.11,100.74,201.63,103,194.66,98.65Z" fill="#231f20"/><path d="M202.8,104.84a23.84,23.84,0,0,1-7.49-1.29.49.49,0,0,1-.3-.64.51.51,0,0,1,.64-.3c.08,0,7.53,2.71,12.91,0a.5.5,0,0,1,.67.23.51.51,0,0,1-.22.67A14,14,0,0,1,202.8,104.84Z" fill="#231f20"/><path d="M64.39,115.36S46.71,125.8,52.7,131.69" fill="#fff"/><path d="M52.7,132.19a.49.49,0,0,1-.35-.15A4.27,4.27,0,0,1,51,128.31c.73-6,12.63-13.08,13.13-13.38a.51.51,0,0,1,.69.18.49.49,0,0,1-.18.68c-.12.08-12,7.14-12.65,12.64a3.3,3.3,0,0,0,1.06,2.9.5.5,0,0,1-.35.86Z" fill="#231f20"/><path d="M40.93,143s5.9-27.71,5.22-36-6.23-16.28-6.23-16.28,11.8-4.1,21.07-1c0,0-5.55,39.83-2.3,47.87s3.62,8.92,3.62,8.92S49.63,147.36,40.93,143Z" fill="#fff"/><path d="M59.48,147.06c-4.27,0-12.48-.46-18.77-3.6a.5.5,0,0,1-.27-.56c.06-.27,5.87-27.73,5.21-35.89s-6.09-16-6.14-16a.5.5,0,0,1,.24-.76c.49-.17,12.08-4.13,21.4-1a.51.51,0,0,1,.34.54c-.06.4-5.5,39.79-2.34,47.62s3.6,8.87,3.62,8.91a.5.5,0,0,1,0,.46.49.49,0,0,1-.39.24C62.19,147,61.13,147.06,59.48,147.06Zm-18-4.33c7.3,3.49,17.35,3.39,20.07,3.29l-3.35-8.26C55.11,130,59.82,94.54,60.44,90c-7.74-2.4-17.25.17-19.74.92,1.28,2,5.36,8.77,5.95,16C47.29,114.8,42.24,139.23,41.5,142.73Z" fill="#231f20"/><path d="M49.66,91.93s-10,1.74-14.45,3.73c0,0,9.38,9.57,8.61,16.9s-6.55,27.27-6.55,27.27,6.19-.67,16.21,2.06Z" fill="#fff"/><path d="M53.48,142.39l-.13,0c-9.8-2.67-16-2.05-16-2.05a.5.5,0,0,1-.43-.17.48.48,0,0,1-.1-.46c.06-.2,5.77-20,6.53-27.18.74-7-8.37-16.41-8.46-16.5a.49.49,0,0,1-.14-.44A.52.52,0,0,1,35,95.2c4.48-2,14.15-3.69,14.56-3.76a.5.5,0,0,1,.39.1.48.48,0,0,1,.19.35l3.83,50a.49.49,0,0,1-.18.42A.47.47,0,0,1,53.48,142.39Zm-14.24-3.14a55.08,55.08,0,0,1,13.69,2L49.2,92.52c-2,.38-9.16,1.76-13.13,3.32,2,2.15,8.94,10.21,8.25,16.77S39,135.65,38,139.28Q38.43,139.25,39.24,139.25Z" fill="#231f20"/><path d="M47.27,95.66s2.61,40.71,1.61,51.49c0,0,13.67,4.26,20.51,0,0,0-12.8-29-9.94-37.57S63.18,97.9,63.18,97.9Z" fill="#fff"/><path d="M61,149.55a46.27,46.27,0,0,1-12.26-1.93.48.48,0,0,1-.35-.52c1-10.61-1.59-51-1.62-51.41a.51.51,0,0,1,.16-.4.47.47,0,0,1,.41-.12L63.25,97.4a.49.49,0,0,1,.34.22.5.5,0,0,1,.07.41s-.91,3.22-3.74,11.71c-2.76,8.3,9.8,36.92,9.93,37.21a.5.5,0,0,1-.2.62A16.49,16.49,0,0,1,61,149.55Zm-11.58-2.77c2.2.63,13.3,3.52,19.33.16-1.6-3.69-12.51-29.31-9.78-37.52,2.17-6.5,3.2-9.88,3.56-11.11L47.81,96.24C48.12,101.31,50.24,136.28,49.42,146.78Z" fill="#231f20"/><path d="M53.65,89.7s-5.47,41.58-1.33,50.7a23.18,23.18,0,0,0,17.57-2.83s-12.82-5.73-9.56-19.18S71.21,99.64,71.21,99.64Z" fill="#fff"/><path d="M57.71,141.55a21.27,21.27,0,0,1-5.53-.67.48.48,0,0,1-.31-.28c-4.16-9.13,1.06-49.27,1.28-51a.51.51,0,0,1,.27-.38.49.49,0,0,1,.47,0L71.46,99.2a.51.51,0,0,1,0,.85c-.08,0-7.51,5.37-10.69,18.46-3.12,12.89,9.16,18.55,9.28,18.61a.47.47,0,0,1,.29.42.46.46,0,0,1-.23.45A23.08,23.08,0,0,1,57.71,141.55Zm-5-1.57a23,23,0,0,0,16.19-2.38C66,136,57,129.94,59.84,118.27c2.77-11.41,8.56-17,10.47-18.57L54.05,90.5C53.35,96.06,49.11,131.36,52.68,140Z" fill="#231f20"/><path d="M45.47,98.64s-1.1,28.59-3.75,37.37a50.42,50.42,0,0,1,16.61,0s-4.14-19.6,4-35C62.31,101,54.6,103.24,45.47,98.64Z" fill="#fff"/><path d="M58.33,136.51h-.1a50.22,50.22,0,0,0-16.42,0,.51.51,0,0,1-.57-.64c2.6-8.62,3.72-37,3.73-37.24a.5.5,0,0,1,.73-.42,24.57,24.57,0,0,0,16.47,2.32.49.49,0,0,1,.52.17.5.5,0,0,1,.06.55c-7.94,15.06-4,34.47-3.93,34.66a.52.52,0,0,1-.14.46A.51.51,0,0,1,58.33,136.51ZM45.94,99.43c-.19,4.55-1.25,27.26-3.53,36a51.74,51.74,0,0,1,15.29,0c-.62-3.63-3-20.11,3.68-33.66A25.83,25.83,0,0,1,45.94,99.43Z" fill="#231f20"/><path d="M64.39,128c-3.4-.58-6.79-4.69-6.74-6.64a24,24,0,0,1-4.13,1.8,3.42,3.42,0,0,1-3,0,2.43,2.43,0,0,1-.71-2.67A6,6,0,0,1,51.47,118a17.57,17.57,0,0,1,7-4.31c6-1.81,6.32-1,10.31,8.06" fill="#fff"/><path d="M64.39,128.47h-.08c-3.29-.56-6.44-4.06-7.06-6.36a23.67,23.67,0,0,1-3.57,1.5,3.92,3.92,0,0,1-3.48-.11,2.91,2.91,0,0,1-.89-3.23,6.36,6.36,0,0,1,1.82-2.59,17.82,17.82,0,0,1,7.19-4.43c6.4-1.93,6.91-.78,10.85,8.17l.07.17a.5.5,0,0,1-.26.66.51.51,0,0,1-.66-.25l-.07-.17c-3.94-8.94-4.09-9.29-9.64-7.62a16.87,16.87,0,0,0-6.79,4.19,5.6,5.6,0,0,0-1.56,2.17,2,2,0,0,0,.52,2.12c.55.38,1.37.37,2.59,0a22.89,22.89,0,0,0,4-1.76.47.47,0,0,1,.5,0,.5.5,0,0,1,.25.44c0,1.76,3.18,5.6,6.32,6.14a.48.48,0,0,1,.41.57A.49.49,0,0,1,64.39,128.47Z" fill="#231f20"/><path d="M50.89,115.11a2.3,2.3,0,0,1,.14.73c.13,5.36-7.06.73-9-.09-3.58-1.5-2.29-6,1.43-6.16,1.81-.09,3.35,1.19,4.69,2.4l1,.89A5.85,5.85,0,0,1,50.89,115.11Z" fill="#fff"/><path d="M49,118.89c-1.84,0-4.23-1.22-5.94-2.1-.49-.25-.9-.46-1.19-.58a3.51,3.51,0,0,1-2.36-3.9,4.09,4.09,0,0,1,4-3.22c1.94-.11,3.57,1.2,5.05,2.53l1,.89a6.39,6.39,0,0,1,1.9,2.44h0a3,3,0,0,1,.16.88,2.85,2.85,0,0,1-1.1,2.68A2.67,2.67,0,0,1,49,118.89Zm-5.32-8.81h-.15a3.1,3.1,0,0,0-3,2.4,2.54,2.54,0,0,0,1.77,2.8c.31.13.74.35,1.25.61,1.78.91,5.1,2.6,6.43,1.77.44-.28.65-.89.63-1.81a2,2,0,0,0-.11-.59,5.45,5.45,0,0,0-1.62-2l-1-.89C46.54,111.21,45.16,110.08,43.64,110.08Z" fill="#231f20"/><path d="M41,116.44a4,4,0,0,0-1.47,0,3.44,3.44,0,0,0-2,2.49,3.3,3.3,0,0,0,.17,2.9,3.47,3.47,0,0,0,2,1.06,20.71,20.71,0,0,0,7,.53c2.5-.24,5.29-2.9,2.68-5.14C47.48,116.71,43.31,116.71,41,116.44Z" fill="#fff"/><path d="M44.69,124a20.8,20.8,0,0,1-5.14-.64,3.87,3.87,0,0,1-2.25-1.24,3.57,3.57,0,0,1-.25-3.35A3.77,3.77,0,0,1,39.43,116a4.44,4.44,0,0,1,1.66,0h0c.44.06.95.1,1.49.14,2.43.2,5.46.45,7.07,1.83A2.88,2.88,0,0,1,50.74,121a4.88,4.88,0,0,1-4.05,2.9C46,124,45.35,124,44.69,124Zm-4.48-7.14a1.77,1.77,0,0,0-.52.06c-.92.24-1.43,1.3-1.69,2.15a2.72,2.72,0,0,0,.09,2.45,3,3,0,0,0,1.71.87,19.66,19.66,0,0,0,6.79.52,3.84,3.84,0,0,0,3.2-2.21,1.88,1.88,0,0,0-.79-2c-1.37-1.17-4.33-1.41-6.5-1.59L41,116.94h0A6.48,6.48,0,0,0,40.21,116.88Z" fill="#231f20"/><path d="M41.25,122.66c-1.93,0-4.45.43-4.11,3,.22,1.73,2.1,2.9,3.71,3.07a18.8,18.8,0,0,0,6.72-.48,2.77,2.77,0,0,0,1.23-.56,3.11,3.11,0,0,0,.61-1,4.19,4.19,0,0,0,.51-1.77C49.9,122.18,43.07,122.66,41.25,122.66Z" fill="#fff"/><path d="M42.88,129.36a18.12,18.12,0,0,1-2.08-.11c-1.85-.2-3.9-1.56-4.16-3.51a2.84,2.84,0,0,1,.6-2.32c.74-.84,2-1.25,4-1.26H42c2.2-.05,6.29-.14,7.83,1.36a1.94,1.94,0,0,1,.63,1.45,4.67,4.67,0,0,1-.55,2,3.64,3.64,0,0,1-.73,1.15,3.38,3.38,0,0,1-1.45.68A19.56,19.56,0,0,1,42.88,129.36Zm-1.63-6.2c-1.63,0-2.73.31-3.26.92a1.86,1.86,0,0,0-.36,1.53c.19,1.44,1.85,2.49,3.27,2.65a18.54,18.54,0,0,0,6.55-.47,2.39,2.39,0,0,0,1-.45,2.45,2.45,0,0,0,.49-.82,3.75,3.75,0,0,0,.47-1.56.94.94,0,0,0-.33-.73c-1.24-1.21-5.35-1.12-7.11-1.08Zm0-.5Z" fill="#231f20"/><path d="M40.43,128.88c-1.31,0-2.19-.21-2.84,1.13a2.7,2.7,0,0,0,.43,3.18,3.56,3.56,0,0,0,2,.73,15.6,15.6,0,0,0,5.57-.36,1.77,1.77,0,0,0,1.53-1.26,3.53,3.53,0,0,0,.44-1.46C47.6,128.54,41.93,128.89,40.43,128.88Z" fill="#fff"/><path d="M41.87,134.53a16.61,16.61,0,0,1-1.87-.11,4,4,0,0,1-2.32-.86,3.2,3.2,0,0,1-.54-3.76c.71-1.48,1.75-1.46,2.86-1.43h1c1.83,0,5.25-.07,6.54,1.2a1.73,1.73,0,0,1,.54,1.27,4.13,4.13,0,0,1-.48,1.67,3,3,0,0,1-.63,1,2.84,2.84,0,0,1-1.24.57A16,16,0,0,1,41.87,134.53Zm-2.34-5.17a1.33,1.33,0,0,0-1.49.87,2.21,2.21,0,0,0,.32,2.59,3.21,3.21,0,0,0,1.76.6,15.05,15.05,0,0,0,5.39-.34,1.88,1.88,0,0,0,.8-.34,2.1,2.1,0,0,0,.4-.65,3.23,3.23,0,0,0,.39-1.25.77.77,0,0,0-.24-.56c-1-1-4.38-.93-5.83-.91h-1.5Z" fill="#231f20"/><path d="M337.72,121.61s-6.61,2.75-11.56,1.65c0,0-2.21,12.57,3.16,18.33l19.13,2.18Z" fill="#fff"/><path d="M348.45,144.27h-.06l-19.13-2.17a.52.52,0,0,1-.3-.16c-5.48-5.87-3.39-18.23-3.3-18.75a.48.48,0,0,1,.22-.33.47.47,0,0,1,.38-.08c4.74,1.06,11.2-1.59,11.26-1.62a.5.5,0,0,1,.65.24l10.73,22.16a.5.5,0,0,1-.45.72Zm-18.89-3.16,18,2.06-10.13-20.92c-1.53.57-6.63,2.32-10.9,1.6C326.25,126.21,325.17,136.2,329.56,141.11Z" fill="#231f20"/><path d="M343.52,99.87a161.5,161.5,0,0,0-14.75,7.84s9.36,14.13,10.32,22.76-4.26,20.59-4.26,20.59,10.74,4.4,16.86,2.89Z" fill="#fff"/><path d="M348.73,154.77c-6.1,0-13.72-3.09-14.09-3.25a.5.5,0,0,1-.28-.27.48.48,0,0,1,0-.39c.05-.12,5.16-12,4.22-20.34S328.45,108.13,328.35,108a.52.52,0,0,1-.07-.38.52.52,0,0,1,.22-.32,162.28,162.28,0,0,1,14.81-7.87.5.5,0,0,1,.71.37l8.16,54.09a.5.5,0,0,1-.37.56A13.17,13.17,0,0,1,348.73,154.77Zm-13.24-4c2.06.79,10.41,3.79,15.63,2.78l-8-52.95c-2.12,1-9.33,4.51-13.67,7.25,1.6,2.46,9.25,14.65,10.13,22.55S336.46,148.43,335.49,150.78Z" fill="#231f20"/><path d="M341.84,115s-2.34-12.53-4.12-16.79c0,0,16.65-1.93,21.88,0,0,0-3.62,22.15-3,30.68s1.61,22.3,4.91,26.15c0,0-9.72,3.44-18,.55C343.52,155.6,343.43,122.68,341.84,115Z" fill="#fff"/><path d="M351,157.27a23.07,23.07,0,0,1-7.64-1.2.52.52,0,0,1-.34-.47c0-.33-.1-32.95-1.67-40.49h0c0-.13-2.35-12.52-4.1-16.69a.51.51,0,0,1,0-.45.52.52,0,0,1,.38-.24c.68-.08,16.83-1.92,22.11,0a.5.5,0,0,1,.32.55c0,.22-3.6,22.19-3,30.57l0,.46c.61,8.13,1.63,21.74,4.76,25.4a.51.51,0,0,1,.1.45.48.48,0,0,1-.32.34A35.14,35.14,0,0,1,351,157.27Zm-7-2c6.74,2.2,14.43.23,16.69-.45-3-4.52-3.93-17-4.56-25.38l0-.47c-.6-8,2.4-27.2,2.91-30.38-4.82-1.46-17.59-.23-20.61.08,1.74,4.7,3.81,15.71,3.91,16.27C343.85,122.21,344,151.47,344,155.24Z" fill="#231f20"/><path d="M355.14,100.56a42.14,42.14,0,0,0-5.73,13.9c-1.92,8.53,1.52,34.4,1.52,34.4s7.87,1.79,12.26,0c0,0-7.07-10.05-6.57-20s8.17-22.15,8.17-22.15Z" fill="#fff"/><path d="M358,150.16a36.41,36.41,0,0,1-7.22-.81.51.51,0,0,1-.39-.43c-.14-1.06-3.43-26-1.51-34.58a42.17,42.17,0,0,1,5.81-14.07.49.49,0,0,1,.68-.13l9.65,6.19a.5.5,0,0,1,.15.68c-.08.13-7.6,12.26-8.09,21.92s6.41,19.54,6.48,19.64a.51.51,0,0,1,.07.43.49.49,0,0,1-.29.32A14.54,14.54,0,0,1,358,150.16Zm-6.66-1.72c1.46.29,7.29,1.34,11,.17-1.47-2.25-6.75-11-6.3-19.73.45-9,6.61-19.7,8-22l-8.82-5.67a43.45,43.45,0,0,0-5.38,13.33C348.14,122.38,351,145.32,351.38,148.44Z" fill="#231f20"/><path d="M336.61,109.36s9.22,24,3.31,40.05c0,0,7,5.23,13.62,3.44,0,0-.69-38.67,0-44.73C353.54,108.12,342.81,106.61,336.61,109.36Z" fill="#fff"/><path d="M350.62,153.73c-5.67,0-10.75-3.73-11-3.92a.49.49,0,0,1-.17-.57c5.78-15.74-3.21-39.46-3.3-39.7a.49.49,0,0,1,.26-.63c6.25-2.78,16.76-1.34,17.2-1.28a.5.5,0,0,1,.43.55c-.68,6,0,44.27,0,44.66a.5.5,0,0,1-.37.49A11.47,11.47,0,0,1,350.62,153.73Zm-10.1-4.51c1.36.92,7.08,4.48,12.51,3.24-.07-4.22-.61-36.91,0-43.9-2.08-.24-10.45-1-15.75,1.08C338.47,113,345.73,134.36,340.52,149.22Z" fill="#231f20"/><path d="M345.74,122c-1,.63-2.11,1.45-2.21,2.64-.11,1.35,1.17,2.44,2.46,2.86a11.25,11.25,0,0,0,5.1.18,40.57,40.57,0,0,0,4.49-.91c2.3-.6,5-1.65,5.76-4.17a4.06,4.06,0,0,0-1.83-4.82C355.4,115.71,349.07,120,345.74,122Z" fill="#fff"/><path d="M348.61,128.41a9.12,9.12,0,0,1-2.78-.4c-1.44-.48-2.93-1.73-2.8-3.38.12-1.42,1.37-2.36,2.45-3h0l.74-.46c3.53-2.2,9.45-5.87,13.51-3.79a4.54,4.54,0,0,1,2.08,5.42c-.85,2.82-3.89,3.92-6.1,4.5a37.8,37.8,0,0,1-4.55.92A18.79,18.79,0,0,1,348.61,128.41Zm-2.61-6c-.93.57-1.89,1.29-2,2.25s1,2,2.11,2.35a11,11,0,0,0,4.88.15,39.47,39.47,0,0,0,4.43-.89c2.15-.57,4.71-1.52,5.41-3.83a3.59,3.59,0,0,0-1.58-4.24c-3.57-1.82-9.18,1.67-12.53,3.75Z" fill="#231f20"/><path d="M352.81,125.82c-1.6.34-3.42.85-4.11,2.33a3.46,3.46,0,0,0,.9,3.78,7.36,7.36,0,0,0,3.7,1.74c3.86.84,12.88.8,11.3-5.49C363.36,123.21,356.2,125.09,352.81,125.82Z" fill="#fff"/><path d="M357.11,134.55a19.22,19.22,0,0,1-3.92-.39,7.65,7.65,0,0,1-3.94-1.87,4,4,0,0,1-1-4.35c.76-1.62,2.59-2.21,4.46-2.61h0l.59-.13c3.67-.81,10.5-2.31,11.8,2.86a4.41,4.41,0,0,1-.94,4.39C362.62,134,359.75,134.55,357.11,134.55Zm-4.2-8.24c-1.51.32-3.16.77-3.76,2.05a3,3,0,0,0,.8,3.22,6.82,6.82,0,0,0,3.45,1.61c3,.64,8,.62,10-1.44a3.43,3.43,0,0,0,.69-3.45c-1-3.9-6-3.14-10.62-2.12Z" fill="#231f20"/><path d="M352.56,139.55a7,7,0,0,0-2.38.22,2.44,2.44,0,0,0-1.65,1.61c-.3,1.18.63,2.33,1.65,3a9.34,9.34,0,0,0,6.33,1.33c1.83-.25,5.3-2.06,3.57-4.35C358.63,139.42,354.68,139.62,352.56,139.55Z" fill="#fff"/><path d="M355.17,146.3a9.58,9.58,0,0,1-5.26-1.5c-1.14-.75-2.24-2.08-1.87-3.54a3,3,0,0,1,2-2,7.1,7.1,0,0,1,2.56-.25l.83,0c2.25,0,5.64.09,7.07,2a2.32,2.32,0,0,1,.4,2.41c-.66,1.56-3,2.55-4.31,2.74A11,11,0,0,1,355.17,146.3ZM351.93,140a4.86,4.86,0,0,0-1.59.21A2,2,0,0,0,349,141.5c-.24,1,.63,1.93,1.45,2.46a8.89,8.89,0,0,0,6,1.26c1.13-.16,3-1,3.51-2.14a1.35,1.35,0,0,0-.26-1.42c-1.14-1.51-4.24-1.56-6.29-1.59l-.85,0Z" fill="#231f20"/><path d="M353.24,132.42a8.35,8.35,0,0,0-2.86-.11,3,3,0,0,0-2.21,1.65c-.53,1.36.4,2.86,1.51,3.82a11.11,11.11,0,0,0,7.28,2.54c2.22,0,6.61-1.63,4.92-4.61C360.44,133.2,355.74,132.83,353.24,132.42Z" fill="#fff"/><path d="M356.91,140.82a11.72,11.72,0,0,1-7.56-2.66c-1.22-1-2.29-2.75-1.64-4.38a3.41,3.41,0,0,1,2.57-2,8.66,8.66,0,0,1,3,.11h0l1,.14c2.64.39,6.63,1,8,3.39a2.7,2.7,0,0,1,.09,2.83c-1,1.71-3.83,2.53-5.43,2.53Zm-5.55-8.09a4.24,4.24,0,0,0-.88.08,2.43,2.43,0,0,0-1.84,1.34c-.45,1.14.45,2.46,1.36,3.25a10.47,10.47,0,0,0,7,2.42c1.4,0,3.83-.73,4.58-2a1.72,1.72,0,0,0-.1-1.83c-1.14-2-4.83-2.54-7.28-2.9l-1-.15h0A11.43,11.43,0,0,0,351.36,132.73Z" fill="#231f20"/><path d="M333.3,125.41a8.62,8.62,0,0,1,.33-1.4c1.79-5.34,6-4.61,10.1-3,1.75.7,8.74,3.25,7.88,6.08-1,3.39-8.44,1.35-10.83,1.29-.14,1.35,1.71,5.64-3.06,9.16" fill="#fff"/><path d="M337.72,138.07a.5.5,0,0,1-.3-.9c3.6-2.65,3.19-5.74,2.95-7.59a5.71,5.71,0,0,1-.09-1.22.5.5,0,0,1,.51-.45,20.62,20.62,0,0,1,2.23.25c3,.42,7.43,1.05,8.12-1.19.44-1.47-2-3.25-7.21-5.31l-.39-.16c-1.93-.78-4.74-1.7-6.78-.76a5.32,5.32,0,0,0-2.65,3.43,8,8,0,0,0-.32,1.32.49.49,0,0,1-.57.41.5.5,0,0,1-.42-.56,8.77,8.77,0,0,1,.36-1.49,6.36,6.36,0,0,1,3.18-4c2.36-1.09,5.29-.18,7.57.74l.39.16c2.61,1,8.73,3.44,7.79,6.53s-5.91,2.36-9.21,1.89c-.6-.08-1.14-.16-1.59-.2,0,.15,0,.32.07.5.25,1.93.73,5.52-3.35,8.53A.52.52,0,0,1,337.72,138.07Z" fill="#231f20"/><path d="M182.08,123.35s4.26,73.48,0,121.1c0,0-26.73.48-37.83-1.88,0,0,6.07-109.46,9.59-112.48Z" fill="#68e1fd"/><path d="M325.46,124.81s-21.76,8.77-38.81,9.83-39.07-4.55-39.07-4.55l-6,28.59s22,9.62,43.85,5.43S330.89,141,330.89,141Z" fill="#68e1fd"/><path d="M219.34,123.35s-3,84.57-3.87,121.14c0,0,21.31,1.6,38.05-1.92,0,0-2.43-109.46-5.94-112.48Z" fill="#68e1fd"/><path d="M253.52,220.91a.5.5,0,0,1-.5-.47l-4-78.53a.49.49,0,0,1,.47-.52.49.49,0,0,1,.52.47l4,78.53a.5.5,0,0,1-.47.52Z" fill="#231f20"/><path d="M145.06,220.91h0a.5.5,0,0,1-.46-.54L151,141.85a.51.51,0,0,1,.54-.46.5.5,0,0,1,.46.54l-6.44,78.52A.5.5,0,0,1,145.06,220.91Z" fill="#231f20"/><path d="M155.19,226.34a.5.5,0,0,1-.28-.91l17.84-12.16a.5.5,0,0,1,.7.13.52.52,0,0,1-.13.7l-17.85,12.15A.49.49,0,0,1,155.19,226.34Z" fill="#231f20"/><path d="M243.42,224.06a.46.46,0,0,1-.28-.08l-17.85-12.16a.49.49,0,0,1-.13-.69.5.5,0,0,1,.69-.14l17.85,12.16a.5.5,0,0,1,.13.7A.49.49,0,0,1,243.42,224.06Z" fill="#231f20"/><path d="M57.35,161.05S60,176.24,50.5,187.29l17,8.57s7.19-15.47,4.4-31.49Z" fill="#fff"/><path d="M67.55,196.36a.46.46,0,0,1-.22-.06l-17.06-8.56a.52.52,0,0,1-.26-.35.49.49,0,0,1,.11-.42c9.24-10.74,6.76-25.68,6.74-25.83a.5.5,0,0,1,.15-.45.5.5,0,0,1,.45-.13l14.6,3.32a.48.48,0,0,1,.38.4c2.79,16-4.36,31.63-4.43,31.79a.53.53,0,0,1-.29.26A.51.51,0,0,1,67.55,196.36Zm-16.26-9.23,16,8c1.14-2.68,6.53-16.37,4.2-30.39L57.94,161.7C58.32,164.85,59.21,177.48,51.29,187.13Z" fill="#d1d3d4"/><path d="M340.34,163.09l-14.66,8.58s9.23,25,28.57,27.54c0,0,2.54-12.87,10.23-15.38C364.48,183.83,345.34,181.33,340.34,163.09Z" fill="#fff"/><path d="M354.25,199.71h-.06c-19.42-2.52-28.89-27.61-29-27.86a.5.5,0,0,1,.21-.61l14.66-8.58a.51.51,0,0,1,.45,0,.5.5,0,0,1,.29.33c4.86,17.69,23.54,20.35,23.72,20.38a.49.49,0,0,1,.44.45.5.5,0,0,1-.35.52c-7.31,2.38-9.86,14.87-9.89,15A.49.49,0,0,1,354.25,199.71ZM326.3,171.89c1.26,3.14,10.35,24.19,27.56,26.76.51-2.21,2.93-11.43,8.93-14.64-4.71-1.09-18.38-5.46-22.76-20.16Z" fill="#d1d3d4"/><path d="M294.38,179.23s-8,18.24-21.72,18.24l10.86,15s21.58-7.23,23-24.36Z" fill="#fff"/><path d="M283.52,213a.52.52,0,0,1-.41-.21l-10.85-15a.49.49,0,0,1,0-.52.48.48,0,0,1,.44-.27c13.2,0,21.18-17.76,21.26-17.94a.5.5,0,0,1,.75-.2l12.16,8.9a.48.48,0,0,1,.2.44c-1.44,17.26-23.13,24.72-23.35,24.79A.45.45,0,0,1,283.52,213Zm-9.9-15.05,10.08,13.95c2.74-1,20.83-8.29,22.31-23.52L294.57,180a44.92,44.92,0,0,1-5.53,8.67C284.35,194.41,279,197.6,273.62,197.94Z" fill="#d1d3d4"/><path d="M108.17,172.9l-9.94,10.77s11.84,20.7,27.58,18.68c0,0,2.38-10.12,6.67-14.66C132.48,187.69,112,185.06,108.17,172.9Z" fill="#fff"/><path d="M123.6,203c-14.72,0-25.33-18.26-25.8-19.08a.49.49,0,0,1,.07-.58l9.93-10.77a.49.49,0,0,1,.47-.14.48.48,0,0,1,.37.33c3.68,11.72,23.7,14.42,23.91,14.45a.49.49,0,0,1,.4.33.5.5,0,0,1-.1.51c-4.15,4.39-6.53,14.32-6.56,14.42a.49.49,0,0,1-.42.38A17.65,17.65,0,0,1,123.6,203ZM98.85,183.73c1.56,2.55,12.54,19.67,26.55,18.16.44-1.74,2.54-9.49,6.11-13.84a53.44,53.44,0,0,1-9.94-2.73c-7.08-2.75-11.76-6.7-13.6-11.47Z" fill="#d1d3d4"/><path d="M127.14,104.34s-4.2,7.46,8.59,12.73l7.74-11.82S130.24,98.09,127.14,104.34Z" fill="#fff"/><path d="M135.73,117.57a.43.43,0,0,1-.19,0c-5-2-8-4.68-9.14-7.82a7.21,7.21,0,0,1,.3-5.6,4.79,4.79,0,0,1,3-2.49c5.09-1.61,13.69,3,14.05,3.19a.49.49,0,0,1,.18.71l-7.74,11.83A.51.51,0,0,1,135.73,117.57Zm-3.6-15.29a7.16,7.16,0,0,0-2.17.3,3.77,3.77,0,0,0-2.37,2v0a6.36,6.36,0,0,0-.23,4.82c1,2.76,3.72,5.13,8.19,7l7.21-11C141.18,104.65,136.1,102.28,132.13,102.28Zm-5,2.06h0Z" fill="#d1d3d4"/><path d="M151.72,104.34s-.93-14.93-15.85-12.47l-8.73,12.47S134.93,96,145,114.19Z" fill="#fff"/><path d="M145,114.69h0a.53.53,0,0,1-.42-.26c-3.89-7-8-11-11.89-11.47a6.42,6.42,0,0,0-5.18,1.72.5.5,0,0,1-.78-.62l8.73-12.48a.5.5,0,0,1,.33-.2c4.57-.76,8.34,0,11.19,2.28,4.76,3.8,5.23,10.37,5.24,10.65a.48.48,0,0,1-.08.31l-6.7,9.85A.51.51,0,0,1,145,114.69Zm-13.13-12.77a7.44,7.44,0,0,1,.93,0c4.14.51,8.26,4.3,12.24,11.27l6.15-9c-.1-1-.84-6.57-4.86-9.77-2.58-2-6-2.76-10.19-2.11l-7.11,10.17A7.2,7.2,0,0,1,131.89,101.92Z" fill="#d1d3d4"/><path d="M315.51,224.71s.84-9.83,16.46-6.55l-.3,16.3S314.4,232.68,315.51,224.71Z" fill="#fff"/><path d="M331.67,235h-.05c-.48-.05-11.64-1.25-15.41-6.07a5.46,5.46,0,0,1-1.19-4.24,8.23,8.23,0,0,1,3.32-5.48c3.05-2.27,7.67-2.78,13.73-1.5a.49.49,0,0,1,.4.49l-.3,16.31a.53.53,0,0,1-.17.36A.51.51,0,0,1,331.67,235Zm-5.56-17a11.75,11.75,0,0,0-7.15,2,7.38,7.38,0,0,0-2.95,4.79v0a4.41,4.41,0,0,0,1,3.49c3.07,3.92,11.91,5.32,14.19,5.63l.28-15.34A27.4,27.4,0,0,0,326.11,218Zm-10.6,6.73h0Z" fill="#d1d3d4"/><path d="M339,240.68s-10.59,13.63-23.22,1.59l-.22-17.56s2,13,23.45,2.23Z" fill="#fff"/><path d="M326.51,247.74c-3.83,0-7.57-1.72-11.13-5.11a.51.51,0,0,1-.15-.36L315,224.72a.5.5,0,0,1,.46-.51.5.5,0,0,1,.54.42,7.5,7.5,0,0,0,3.88,5.08c4,2.07,10.55,1,18.84-3.22a.5.5,0,0,1,.73.45v13.74a.51.51,0,0,1-.11.31c-.2.25-4.89,6.19-11.87,6.71C327.15,247.73,326.83,247.74,326.51,247.74Zm-10.28-5.69c3.59,3.37,7.35,4.94,11.16,4.65,6-.44,10.33-5.33,11.06-6.2V227.75c-8.36,4.09-14.76,5-19,2.84a8.38,8.38,0,0,1-3.37-3.16ZM339,240.68h0Z" fill="#d1d3d4"/><path d="M294.15,104.38s-11.24-1.61-15.56-6.1-7.92-7-15.65-7.82l-1.59,16a55.32,55.32,0,0,1,11.86,4.89c5.92,3.35,8.67,6,15.45,6.37Z" fill="#fff"/><path d="M288.66,118.2h0c-5.51-.29-8.38-2-12.36-4.47-1-.62-2.09-1.28-3.31-2a54.77,54.77,0,0,0-11.73-4.83.52.52,0,0,1-.38-.54l1.59-16a.48.48,0,0,1,.18-.34A.51.51,0,0,1,263,90c7.83.87,11.52,3.37,16,8,4.15,4.32,15.16,5.94,15.27,5.95a.5.5,0,0,1,.36.25.49.49,0,0,1,0,.44l-5.49,13.32A.5.5,0,0,1,288.66,118.2Zm-26.77-12.13a56.88,56.88,0,0,1,11.57,4.82c1.22.7,2.31,1.36,3.33,2,3.76,2.3,6.51,4,11.54,4.31l5.12-12.41c-2.48-.41-11.38-2.15-15.22-6.14-4.18-4.34-7.66-6.73-14.85-7.62Z" fill="#d1d3d4"/><path d="M107.85,83.47S104.42,77.41,95,76.66s-14-6-14-6l8-9.36s4.13,3.17,11.26,2.52,14.27,3.48,15,4.61S107.85,83.47,107.85,83.47Z" fill="#fff"/><path d="M107.85,84a.48.48,0,0,1-.44-.25c0-.06-3.43-5.84-12.41-6.56-9.48-.76-14.14-6-14.34-6.2a.5.5,0,0,1,0-.65l8-9.37a.5.5,0,0,1,.68-.07s4.09,3.05,10.92,2.42c7.35-.67,14.64,3.57,15.48,4.83s-3.63,9.12-7.45,15.61A.51.51,0,0,1,107.85,84ZM81.72,70.61a21.79,21.79,0,0,0,13.36,5.55c7.73.62,11.51,4.71,12.74,6.37,3.63-6.22,7.18-13,7-13.94-.55-.79-7.38-5-14.52-4.3a17.87,17.87,0,0,1-11.22-2.36Z" fill="#d1d3d4"/><path d="M100.71,225.36s5.26,8.45-6,14.08l-8.64-19S97.52,219.73,100.71,225.36Z" fill="#fff"/><path d="M94.71,239.94a.47.47,0,0,1-.17,0,.5.5,0,0,1-.29-.26l-8.63-19A.49.49,0,0,1,86,220c.48,0,11.79-.7,15.1,5.13a9.73,9.73,0,0,1,1,7.31c-.85,3-3.26,5.51-7.18,7.47A.59.59,0,0,1,94.71,239.94Zm-7.87-19,8.1,17.79c3.39-1.78,5.47-4,6.21-6.61a8.89,8.89,0,0,0-.86-6.51v0C97.73,221.11,89.38,220.91,86.84,221Z" fill="#d1d3d4"/><path d="M100.71,225.36s-5.06-1.12-10.13,5.45-14.83,2.25-14.83,2.25L74.34,218s8.26,3,11.08-.94a8.32,8.32,0,0,1,7.5-3.29Z" fill="#fff"/><path d="M82.55,234.93a19.34,19.34,0,0,1-7-1.42.5.5,0,0,1-.3-.41L73.84,218a.51.51,0,0,1,.2-.44.49.49,0,0,1,.47-.07c.08,0,7.94,2.83,10.5-.76a8.75,8.75,0,0,1,8-3.49.51.51,0,0,1,.35.22l7.79,11.63a.52.52,0,0,1,0,.56.51.51,0,0,1-.52.21c-.2,0-4.85-.94-9.64,5.26A10.13,10.13,0,0,1,82.55,234.93Zm-6.33-2.22c1.57.61,9.65,3.38,14-2.21,3.85-5,7.71-5.7,9.55-5.72L92.64,214.2a7.7,7.7,0,0,0-6.82,3.1c-2.51,3.52-8.75,2-10.91,1.36Z" fill="#d1d3d4"/><path d="M199.77,247a.5.5,0,0,1-.43-.23c-.42-.69-2.91-4.31-2.93-4.35a.47.47,0,0,1-.09-.28V226.56a.5.5,0,0,1,.5-.5.5.5,0,0,1,.5.5V242c.45.66,2.48,3.61,2.87,4.25a.5.5,0,0,1-.16.69A.48.48,0,0,1,199.77,247Z" fill="#fff"/><path d="M200.57,264.47a.5.5,0,0,1-.5-.5V226.56a.5.5,0,0,1,1,0V264A.5.5,0,0,1,200.57,264.47Z" fill="#fff"/></g></svg>