<svg xmlns="http://www.w3.org/2000/svg" viewBox="0 0 400 300"><g id="_372_banker_flatline" data-name="#372_banker_flatline"><path d="M113.88,84.22s-39.13,17.43-38,31.63,82.09,33.5,82.09,33.5l8.43,26.53,10-60-42.56-9.11,6.65-12.16Z" fill="#68e1fd"/><path d="M147.38,74.49c.36.09,8,.63,10.1,1.88s8.66,9.73,5.89,9.73-9.53-5.54-9.73-5.8-6.26-.9-6.26-.9Z" fill="#fff"/><path d="M163.37,86.6c-2.86,0-9.09-5-10-5.89-.49-.17-3.4-.54-6-.81a.5.5,0,0,1-.45-.5V74.49a.49.49,0,0,1,.2-.4.52.52,0,0,1,.42-.09c.09,0,.39,0,.82.09,3.53.36,7.78.9,9.41,1.85,2,1.13,7.33,7.8,6.77,9.88A1.06,1.06,0,0,1,163.37,86.6ZM147.88,79c5.83.62,6,.85,6.16,1,.44.47,6.87,5.61,9.33,5.61a.41.41,0,0,0,.16,0s.06-.1,0-.45c-.51-2.2-4.78-7.46-6.28-8.33s-7-1.51-9-1.71l-.34,0Z" fill="#231f20"/><path d="M152.6,108l-43.47-14.3S106.4,91,108.82,82s6.09-10,6.09-10l44.82,9.32A27.29,27.29,0,0,0,152.6,108Z" fill="#fff"/><path d="M152.6,108.45l-.15,0L109,94.12a.45.45,0,0,1-.19-.11c-.12-.12-2.91-2.93-.44-12.16s6.29-10.28,6.45-10.32a.45.45,0,0,1,.23,0l44.81,9.32a.5.5,0,0,1,.38.35.53.53,0,0,1-.14.51,26.75,26.75,0,0,0-7,26.09.5.5,0,0,1-.12.51A.54.54,0,0,1,152.6,108.45ZM109.41,93.22l42.48,14a27.85,27.85,0,0,1,6.83-25.55L115,72.53c-.55.23-3.56,1.79-5.65,9.58S109,92.74,109.41,93.22Z" fill="#231f20"/><path d="M159.61,81.31c3,.81,8.27,8.57,6.31,15.9s-10.37,11.44-13.41,10.62-3.92-7.41-2-14.74S156.56,80.49,159.61,81.31Z" fill="#fff"/><path d="M153.38,108.44a3.86,3.86,0,0,1-1-.12c-3.36-.9-4.38-7.65-2.32-15.35s6.31-13,9.68-12.15,8.64,9.13,6.66,16.52a15.75,15.75,0,0,1-6.5,8.65A12.9,12.9,0,0,1,153.38,108.44ZM159,81.72c-2.67,0-6.18,5-7.92,11.5-1.86,6.93-1.12,13.4,1.61,14.13s10.89-3.16,12.8-10.27-3.32-14.58-6-15.29A1.88,1.88,0,0,0,159,81.72Z" fill="#231f20"/><path d="M162.31,100.72a7.7,7.7,0,0,1,2.23-8.36l8.37,2.24L170.67,103Z" fill="#fff"/><path d="M170.67,103.46h-.13l-8.36-2.24a.51.51,0,0,1-.32-.27,7.32,7.32,0,0,1-.2-4.87,7.54,7.54,0,0,1,2.6-4.13.49.49,0,0,1,.41-.06L173,94.11a.51.51,0,0,1,.35.62l-2.24,8.36A.48.48,0,0,1,170.67,103.46Zm-8-3.15,7.64,2,2-7.4-7.64-2a7.29,7.29,0,0,0-2,7.4Z" fill="#231f20"/><path d="M191.42,112.64S209,193.84,217,198.4s19.44-81.16,19.44-81.16Z" fill="#68e1fd"/><path d="M191.42,112.64l-23.13-.32s1.87,44.8-5.9,59L175,243.69h80.67s10.9-69.63,10.9-88.24V128.63l-33-13.79s-9.56,53.81-18.1,71.68C215.43,186.52,197.4,127,191.42,112.64Z" fill="#231f20"/><path d="M255.66,244.19H175a.5.5,0,0,1-.49-.41l-12.6-72.37a.51.51,0,0,1,0-.32c7.62-13.92,5.86-58.31,5.84-58.75a.46.46,0,0,1,.14-.37.57.57,0,0,1,.36-.16l23.14.33a.51.51,0,0,1,.45.31c5.44,13.09,21,64,23.64,72.66C223.8,166.42,233,115.28,233,114.75a.53.53,0,0,1,.25-.35.52.52,0,0,1,.44,0l33,13.79a.5.5,0,0,1,.31.46v26.82c0,18.44-10.8,87.62-10.91,88.32A.5.5,0,0,1,255.66,244.19Zm-80.25-1h79.82c.91-5.86,10.83-70.13,10.83-87.74V129l-32.14-13.42c-1.1,6-10.06,54.5-18,71.19a.5.5,0,0,1-.93-.07c-.18-.59-17.84-58.8-23.86-73.52l-22.28-.32c.19,5.3,1.4,45-5.9,58.59Z" fill="#231f20"/><polygon points="330.07 264.32 69.93 264.32 86.4 234.84 313.6 234.84 330.07 264.32" fill="#fff"/><path d="M330.07,264.83H69.93a.52.52,0,0,1-.43-.25.5.5,0,0,1,0-.5L86,234.6a.5.5,0,0,1,.44-.25H313.6a.5.5,0,0,1,.44.25l16.46,29.48a.5.5,0,0,1,0,.5A.52.52,0,0,1,330.07,264.83Zm-259.28-1H329.21l-15.9-28.48H86.69Z" fill="#231f20"/><polygon points="195.35 105.82 230.63 107.78 229.31 121.22 204.39 119.92 192.59 113.49 195.35 105.82" fill="#231f20"/><path d="M229.31,121.72h0l-24.91-1.29a.57.57,0,0,1-.22-.07l-11.8-6.42a.5.5,0,0,1-.23-.61l2.76-7.67a.52.52,0,0,1,.5-.33l35.28,2a.51.51,0,0,1,.35.17.53.53,0,0,1,.12.38l-1.32,13.43A.52.52,0,0,1,229.31,121.72Zm-24.78-2.3,24.33,1.27,1.22-12.44-34.38-1.91-2.49,6.92Z" fill="#231f20"/><path d="M241.6,73.91c2.11-4.06,2.92-9.64,3.87-14.07,1.52-7.09,1.47-14.89-3.1-21a25.42,25.42,0,0,0-11.66-8.36,32.6,32.6,0,0,0-20.36-.72c-4.73,1.38-9.49,4.28-10.95,9-9.53.57-11.87,9.43-11.3,17.28.49,6.84,2.47,13.67,2.79,20.38,7.81.89,15.69,2,23.61,2.27C220.8,78.87,237.86,81.15,241.6,73.91Z" fill="#fff"/><path d="M225.86,79.66c-3,0-5.91-.19-8.33-.35-1.17-.07-2.21-.14-3.05-.17-6.43-.24-12.91-1-19.18-1.75l-4.47-.52a.49.49,0,0,1-.44-.47A87.15,87.15,0,0,0,189,65.82c-.56-3.2-1.14-6.51-1.38-9.79-.25-3.45-.12-9.86,3.56-14.05A11.22,11.22,0,0,1,199,38.24c1.42-4.06,5.47-7.32,11.18-9a33.07,33.07,0,0,1,20.67.73,25.83,25.83,0,0,1,11.89,8.53c4,5.39,5.08,12.6,3.19,21.44-.18.82-.35,1.68-.52,2.57-.77,3.86-1.65,8.25-3.39,11.62h0C239.69,78.69,232.61,79.66,225.86,79.66Zm-34.5-3.74,4,.48c6.25.74,12.71,1.5,19.11,1.74.85,0,1.89.1,3.07.18,7.16.47,20.48,1.33,23.57-4.64,1.68-3.24,2.54-7.56,3.3-11.36.17-.89.35-1.75.52-2.58,1.83-8.55.82-15.49-3-20.63a24.79,24.79,0,0,0-11.43-8.19,32.06,32.06,0,0,0-20-.71c-2.62.76-8.9,3.14-10.61,8.65a.49.49,0,0,1-.45.35,10.4,10.4,0,0,0-7.52,3.43c-3.43,3.92-3.55,10-3.31,13.32s.81,6.51,1.36,9.69A89.22,89.22,0,0,1,191.36,75.92Zm50.24-2h0Z" fill="#231f20"/><path d="M199.53,72.87c-.63-8.66-14.63-12-14.8-1.87a14.92,14.92,0,0,0,3,9.78c2.22,2.69,6,4.2,9.32,3.06" fill="#fff"/><path d="M194.67,84.72a9.78,9.78,0,0,1-7.37-3.62c-2.63-3.18-3.12-7.26-3.07-10.11.08-4.84,3.19-6.65,6.07-6.73,4.3-.15,9.35,3.37,9.72,8.57a.5.5,0,1,1-1,.08c-.34-4.64-4.82-7.76-8.7-7.65-3.14.08-5,2.23-5.1,5.75,0,2.68.41,6.5,2.84,9.45,2.24,2.73,5.85,3.92,8.77,2.9a.5.5,0,0,1,.63.31.5.5,0,0,1-.3.64A7.53,7.53,0,0,1,194.67,84.72Z" fill="#231f20"/><path d="M230.31,74.48c1.52-8.55,15.79-10.42,14.91-.32a14.92,14.92,0,0,1-4,9.42c-2.48,2.44-6.43,3.54-9.58,2.07" fill="#fff"/><path d="M234.78,86.81a7.83,7.83,0,0,1-3.32-.71.5.5,0,0,1,.43-.91c2.8,1.31,6.5.5,9-2,2.73-2.68,3.58-6.43,3.81-9.11.31-3.5-1.37-5.84-4.47-6.25-3.81-.5-8.63,2.13-9.45,6.7a.5.5,0,1,1-1-.17c.91-5.14,6.3-8.09,10.56-7.52,2.86.38,5.76,2.5,5.34,7.33-.25,2.84-1.16,6.84-4.11,9.73A9.89,9.89,0,0,1,234.78,86.81Z" fill="#231f20"/><path d="M196.2,115.62s6.35,3.67,17.55,4.65,13.21-2,13.21-2l0-6,.11-14,.09-13.06L201.66,83l-1.78,10.53L199.33,97Z" fill="#fff"/><path d="M217.93,121c-1.25,0-2.65-.06-4.23-.19-11.17-1-17.49-4.57-17.75-4.72a.51.51,0,0,1-.25-.51l5.46-32.61a.51.51,0,0,1,.54-.41l25.55,2.22a.5.5,0,0,1,.46.5l-.25,33.06a.47.47,0,0,1-.09.28C227.29,118.69,225.62,121,217.93,121Zm-21.18-5.61a47.36,47.36,0,0,0,17,4.42c9.41.82,12.16-1.19,12.67-1.67l.25-32.4-24.64-2.15Z" fill="#231f20"/><path d="M199.33,97c1.65,3.27,4.64,6,7.75,8.09,5.23,3.52,13.16,7.66,19.93,7.22l.11-14a62.9,62.9,0,0,1-14.75-1.18c-4.27-.75-8.68-1.56-12.49-3.57Z" fill="#231f20"/><path d="M226,112.82c-7.18,0-15-4.55-19.19-7.35a23,23,0,0,1-7.92-8.27.48.48,0,0,1,0-.31l.56-3.42a.51.51,0,0,1,.27-.37.5.5,0,0,1,.46,0c3.85,2,8.36,2.82,12.34,3.52a62,62,0,0,0,14.63,1.18.51.51,0,0,1,.37.13.52.52,0,0,1,.16.37l-.11,14a.5.5,0,0,1-.47.49C226.69,112.8,226.34,112.82,226,112.82ZM199.85,96.89a22.15,22.15,0,0,0,7.51,7.75c4.16,2.81,12.11,7.41,19.15,7.17l.1-13a63.89,63.89,0,0,1-14.32-1.22c-3.85-.67-8.18-1.43-12-3.3Z" fill="#231f20"/><path d="M238.53,51.63l-2.69,31a20,20,0,0,1-.74,3.91,19.67,19.67,0,0,1-20.54,14l-2.29-.21A19.63,19.63,0,0,1,194.4,79c.39-4.47-.41-10.83,3.06-14.16a32.64,32.64,0,0,0,9.18-16.41c1.29,3.27,4.55,5.43,7.94,6.3,5.42,1.4,11.11.38,16.45-.81C231.68,53.81,238.46,52.49,238.53,51.63Z" fill="#fff"/><path d="M216.25,101.08c-.57,0-1.15,0-1.73-.07l-2.29-.21a20.24,20.24,0,0,1-18-16.09A19.88,19.88,0,0,1,193.9,79c.09-1,.11-2,.14-3.16.1-4,.22-8.59,3.07-11.32a32.28,32.28,0,0,0,9-16.15.49.49,0,0,1,.45-.39.5.5,0,0,1,.5.31c1.11,2.82,4,5.06,7.61,6,5.34,1.38,10.94.35,16.22-.82l.33-.07c5.53-1.14,6.6-1.73,6.8-1.91a.51.51,0,0,1,.5-.35.5.5,0,0,1,.47.5v0h0a.19.19,0,0,1,0,.08c-.05.64-.4,4.69-2.68,30.93a20.12,20.12,0,0,1-20.09,18.4ZM206.8,49.92a33.18,33.18,0,0,1-9,15.31c-2.55,2.45-2.66,6.79-2.76,10.63,0,1.14-.06,2.21-.14,3.21a19,19,0,0,0,.3,5.44,19.25,19.25,0,0,0,17.12,15.3l2.29.2A19.11,19.11,0,0,0,235.34,82.6s2.13-24.47,2.6-29.94a38.63,38.63,0,0,1-6.48,1.71l-.32.07c-5.39,1.2-11.12,2.24-16.68.81A12.38,12.38,0,0,1,206.8,49.92ZM238,51.59Z" fill="#231f20"/><path d="M236.43,75.87c.89,19.63-12.42,25.46-21.87,24.64l-2.29-.21C190.79,97.58,194.4,79,194.94,72.8c.68,5.29,2.77,13.83,7.24,15,2.27.61,4.74-5.09,7-6.15s8.48,0,11.84.4,4.46,6.17,6.16,7C228.33,89.59,233.71,84.69,236.43,75.87Z" fill="#d1d3d4"/><path d="M216.32,101.09c-.6,0-1.2,0-1.8-.08l-2.29-.21c-20.49-2.6-18.7-19.4-17.93-26.58,0-.54.11-1,.14-1.46a.5.5,0,0,1,1,0c.82,6.39,3.06,13.58,6.87,14.6,1,.26,2.36-1.47,3.56-3a10.64,10.64,0,0,1,3.1-3.12c2.05-1,6.89-.32,10.42.15l1.69.22c2.3.27,3.61,2.69,4.66,4.65.56,1,1.14,2.12,1.66,2.36.92.16,5.94-4.4,8.55-12.86a.49.49,0,0,1,.54-.35.51.51,0,0,1,.44.47c.38,8.46-1.88,15.28-6.52,19.75A20.5,20.5,0,0,1,216.32,101.09ZM195.07,76.53c-.7,8-.47,21,17.27,23.28l2.27.2a19.55,19.55,0,0,0,15.1-5.14c3.92-3.75,6-9.3,6.24-16.16-2.4,6-5.93,9.85-7.84,10.7a1.38,1.38,0,0,1-1.14.09c-.81-.39-1.41-1.5-2.11-2.8-1-1.84-2.12-3.92-3.9-4.13l-1.7-.22c-3.22-.43-8.08-1.08-9.87-.23A10.6,10.6,0,0,0,206.65,85c-1.45,1.86-3,3.8-4.6,3.35C198,87.23,196,81,195.07,76.53Z" fill="#231f20"/><path d="M216,67.92s5.71,14.56,2.83,14.67-6.8-2.23-6.8-2.23" fill="#fff"/><path d="M218.65,83.09c-3,0-6.7-2.21-6.86-2.3a.51.51,0,0,1-.18-.69.51.51,0,0,1,.69-.17s3.82,2.25,6.53,2.16A.19.19,0,0,0,219,82c.91-1.4-1.62-9.27-3.44-13.9a.5.5,0,1,1,.93-.36c.82,2.07,4.81,12.56,3.34,14.8a1.13,1.13,0,0,1-.95.54Z" fill="#231f20"/><path d="M230.63,107.78c-.49,0-17,12.48-17,12.48l9.2,11.94,10.73-17.36Z" fill="#68e1fd"/><path d="M222.8,132.7a.53.53,0,0,1-.4-.19l-9.2-11.94a.51.51,0,0,1-.1-.38.53.53,0,0,1,.19-.33c16.69-12.61,17.14-12.57,17.37-12.58a.52.52,0,0,1,.44.31l2.9,7.06a.51.51,0,0,1,0,.45l-10.73,17.36a.52.52,0,0,1-.4.24Zm-8.5-12.34,8.46,11L233,114.8l-2.6-6.31C228.38,109.79,220.09,116,214.3,120.36Z" fill="#231f20"/><path d="M195.35,105.82c.52,0,18.4,14.45,18.4,14.45l-11.93,10.84-10.4-18.47Z" fill="#68e1fd"/><path d="M201.82,131.61h-.08a.55.55,0,0,1-.36-.25L191,112.89a.5.5,0,0,1,0-.5l3.93-6.82a.49.49,0,0,1,.46-.25c.2,0,.68,0,18.68,14.56a.54.54,0,0,1,.19.37.52.52,0,0,1-.17.39l-11.92,10.84A.55.55,0,0,1,201.82,131.61Zm-9.82-19L202,130.31l11-10c-6.36-5.12-15.45-12.38-17.45-13.77Z" fill="#231f20"/><path d="M208.24,64.52a7.7,7.7,0,0,1-4.91-1.88.48.48,0,0,1,0-.7.49.49,0,0,1,.7,0,6.34,6.34,0,0,0,7.95.39.5.5,0,0,1,.69.15.49.49,0,0,1-.15.69A7.72,7.72,0,0,1,208.24,64.52Z" fill="#231f20"/><path d="M225.29,66.36a7.37,7.37,0,0,1-4.16-1.24.51.51,0,0,1-.09-.7.51.51,0,0,1,.71-.09c.15.12,3.87,2.87,8.81-1a.5.5,0,0,1,.62.79A9.48,9.48,0,0,1,225.29,66.36Z" fill="#231f20"/><path d="M218.16,93.15l-.67,0c-8.63-.45-9.69-6-9.73-6.2a.51.51,0,0,1,.41-.58.51.51,0,0,1,.58.41h0c0,.2,1,5,8.79,5.37,4.61.25,6.16-2.25,6.22-2.35a.5.5,0,0,1,.86.51C224.55,90.41,222.87,93.15,218.16,93.15Z" fill="#231f20"/><path d="M214.9,124.18a2.37,2.37,0,0,0-2-1.12,2.42,2.42,0,0,0-2.09,1.32l-12.14-2.86s1.32,9.67,2.42,10.77c.8.8,6.74-2.74,9.88-4.7a2.27,2.27,0,0,0,3.83,0c2.94,1.94,8.57,6.13,9.29,5.57,1-.77,4.45-11.24,4.34-11.57S219.76,123.21,214.9,124.18Z" fill="#231f20"/><circle cx="213.6" cy="135.92" r="1.6" fill="#231f20"/><circle cx="214.77" cy="151.26" r="1.6" fill="#231f20"/><circle cx="215.2" cy="166.92" r="1.6" fill="#231f20"/><path d="M149.36,84.83a9.42,9.42,0,0,1-.57,3.18,2.77,2.77,0,0,1-5.29.07,9.15,9.15,0,0,1-.68-3.6l-.44-8.59c-1.67,2.8-1.8,6.22-2.41,9.42a6.71,6.71,0,0,1-1.06,2.8,2.62,2.62,0,0,1-2.64,1.09c-1.3-.34-1.88-1.85-2.14-3.17a22.83,22.83,0,0,1,.19-9.7,5.12,5.12,0,0,0-3.45,3.54c-.3,1.12-.19,2.31-.44,3.45a2.87,2.87,0,0,1-2.16,2.44A2.54,2.54,0,0,1,125.85,84a7.47,7.47,0,0,1-.25-3.16l.23-3.56c.14-2.18.41-4.62,2.08-6a4.21,4.21,0,0,1,4.89-.3,7,7,0,0,1,8.59,1c.07.07,4.65-.75,5.5-.45a4.77,4.77,0,0,1,2.92,2.69C150.77,77.07,149.53,81.82,149.36,84.83Z" fill="#fff"/><path d="M146.18,90.49a3.71,3.71,0,0,1-3.13-2.2,9.64,9.64,0,0,1-.73-3.79L142,77.9A26.08,26.08,0,0,0,140.85,83c-.12.8-.24,1.59-.39,2.37a7.06,7.06,0,0,1-1.15,3,3.16,3.16,0,0,1-3.17,1.27c-1.24-.33-2.1-1.56-2.5-3.56a23.59,23.59,0,0,1,0-9A4.6,4.6,0,0,0,131.35,80a10.84,10.84,0,0,0-.23,1.76,12.25,12.25,0,0,1-.2,1.67,3.35,3.35,0,0,1-2.59,2.83,3,3,0,0,1-2.94-2,7.81,7.81,0,0,1-.29-3.37l.23-3.56c.16-2.4.46-4.87,2.25-6.39a4.76,4.76,0,0,1,5.22-.5,7.45,7.45,0,0,1,8.78,1l.86-.12c2.54-.35,4-.5,4.62-.29a5.28,5.28,0,0,1,3.22,3c.72,2.16.3,5.18-.08,7.85-.15,1.1-.29,2.14-.35,3h0a9.78,9.78,0,0,1-.6,3.36,3.61,3.61,0,0,1-2.81,2.25Zm-3.8-15.1h.12a.5.5,0,0,1,.37.46l.45,8.59a8.65,8.65,0,0,0,.63,3.41,2.28,2.28,0,0,0,4.38,0,8.61,8.61,0,0,0,.53-3c0-.92.2-2,.35-3.1.36-2.56.76-5.46.12-7.4a4.31,4.31,0,0,0-2.61-2.37,23.23,23.23,0,0,0-4.14.34c-1.35.19-1.36.19-1.55,0a6.5,6.5,0,0,0-7.95-.88.5.5,0,0,1-.55,0,3.72,3.72,0,0,0-4.3.26c-1.49,1.27-1.76,3.51-1.9,5.69l-.23,3.56a7.15,7.15,0,0,0,.22,2.95,2,2,0,0,0,1.9,1.41c.91-.1,1.53-1.13,1.72-2.05a9.42,9.42,0,0,0,.18-1.53,10.91,10.91,0,0,1,.27-1.94,5.6,5.6,0,0,1,3.79-3.89.5.5,0,0,1,.63.59,22.34,22.34,0,0,0-.19,9.49c.22,1.12.71,2.51,1.78,2.79a2.15,2.15,0,0,0,2.11-.91,6,6,0,0,0,1-2.6c.15-.76.27-1.55.39-2.33A19.59,19.59,0,0,1,142,75.63.5.5,0,0,1,142.38,75.39Zm7,9.44h0Z" fill="#231f20"/><path d="M111,125.75c-.22,0-.43,0-.65,0a.5.5,0,0,1-.47-.53.51.51,0,0,1,.53-.47c10.84.68,22.8-18.07,22.92-18.26a.5.5,0,1,1,.84.54C133.7,107.79,122.24,125.75,111,125.75Z" fill="#231f20"/><path d="M157.92,149.85a.5.5,0,0,1-.49-.4l-4.1-20.63a.48.48,0,0,1,.39-.58.5.5,0,0,1,.59.39l4.1,20.62a.49.49,0,0,1-.39.59Z" fill="#231f20"/><path d="M216,252.07l18.36-.74-2.95-24-14.07,1.07S218.81,247.32,216,252.07Z" fill="#fff"/><path d="M216,252.57a.51.51,0,0,1-.43-.24.53.53,0,0,1,0-.52c2.7-4.56,1.29-23.17,1.27-23.36a.51.51,0,0,1,.46-.54l14.07-1.07a.51.51,0,0,1,.54.44l2.95,24a.54.54,0,0,1-.12.38.5.5,0,0,1-.36.18l-18.36.74Zm1.88-23.7c.2,2.94,1.09,17.38-1.06,22.67l17-.69-2.83-23Z" fill="#231f20"/><path d="M266.56,128.63s12.86,1.7,13.57,9.38,4.65,18.19,6.08,24,14.29,78.29,8.57,83-66.19,7.07-66.19,7.07,4-4.38,2-12.36a22.2,22.2,0,0,0-6.87-11.79l38.6-8.08L261.73,202S268.52,154.68,266.56,128.63Z" fill="#68e1fd"/><path d="M284.2,230.39a.51.51,0,0,1-.44-.26c0-.08-4.4-7.81-11.76-9.18a71.82,71.82,0,0,0-9.64-.61.5.5,0,0,1-.5-.5.5.5,0,0,1,.5-.5h0a71,71,0,0,1,9.83.63c7.82,1.46,12.26,9.34,12.45,9.68a.49.49,0,0,1-.2.67A.44.44,0,0,1,284.2,230.39Z" fill="#231f20"/><path d="M189,204.2h25.46a0,0,0,0,1,0,0V246a2.55,2.55,0,0,1-2.55,2.55H191.57A2.55,2.55,0,0,1,189,246V204.2A0,0,0,0,1,189,204.2Z" fill="#fff"/><path d="M211.92,249H191.57a3.06,3.06,0,0,1-3.06-3V204.2a.51.51,0,0,1,.5-.5h25.46a.5.5,0,0,1,.5.5V246A3.06,3.06,0,0,1,211.92,249ZM189.51,204.7V246a2.05,2.05,0,0,0,2.06,2h20.35a2.05,2.05,0,0,0,2.05-2V204.7Z" fill="#231f20"/><path d="M191.52,248.51H212a0,0,0,0,1,0,0v2.16a2.66,2.66,0,0,1-2.66,2.66H194.18a2.66,2.66,0,0,1-2.66-2.66v-2.16A0,0,0,0,1,191.52,248.51Z" fill="#fff"/><path d="M209.31,253.84H194.18a3.16,3.16,0,0,1-3.16-3.17v-2.16a.5.5,0,0,1,.5-.5H212a.5.5,0,0,1,.5.5v2.16A3.17,3.17,0,0,1,209.31,253.84ZM192,249v1.66a2.17,2.17,0,0,0,2.16,2.17h15.13a2.17,2.17,0,0,0,2.16-2.17V249Z" fill="#231f20"/><path d="M214.47,224.8s7.69,1.34,5.81,6.16c0,0,4,4.69,1.07,8,0,0,2.55,4.15-1.34,6.43,0,0,2.28,5-2.41,6.3s-17-1.61-15.81-3.22,4.15-1.6,4.15-1.6-4.3-.13-4.23-3.22c0-1.94,3.7-1.94,3.7-1.94s-4.32-1.28-3.9-3.32c.51-2.48,4.3-2.91,4.3-2.91s-5.16-1.21-3.15-3.09,11.81-4,11.81-4Z" fill="#fff"/><path d="M214.57,252.56c-5,0-12.13-1.74-13.18-3.26a.9.9,0,0,1,0-1.09,4.26,4.26,0,0,1,2-1.37,3.3,3.3,0,0,1-2.21-3.16c0-1.21,1.07-1.86,2.23-2.18-1.29-.64-2.72-1.71-2.42-3.17a4.21,4.21,0,0,1,2.95-2.87c-1-.4-2-1-2.23-1.83a1.53,1.53,0,0,1,.58-1.56c1.87-1.75,9.77-3.63,11.65-4.06v-3.22a.53.53,0,0,1,.18-.38.54.54,0,0,1,.41-.11c.19,0,4.58.83,6,3.42a3.74,3.74,0,0,1,.24,3.15c.77,1,3.53,5,1.11,8.19a6,6,0,0,1,.59,4,4.46,4.46,0,0,1-1.91,2.61,6,6,0,0,1,.05,4.28,4.3,4.3,0,0,1-2.94,2.3A12,12,0,0,1,214.57,252.56Zm-12.34-3.8c.72,1.19,10.87,3.74,15.23,2.49a3.41,3.41,0,0,0,2.31-1.75,5.38,5.38,0,0,0-.21-3.86.5.5,0,0,1,.2-.64,3.63,3.63,0,0,0,1.81-2.22,5.31,5.31,0,0,0-.64-3.52.48.48,0,0,1,0-.59c2.62-3-1-7.34-1.08-7.39a.51.51,0,0,1-.09-.5,2.83,2.83,0,0,0-.08-2.56c-.94-1.68-3.58-2.51-4.76-2.8v3a.49.49,0,0,1-.39.49c-2.69.59-10,2.44-11.58,3.9-.24.22-.34.41-.29.57.17.66,2,1.38,3.21,1.66a.5.5,0,0,1,.39.51.5.5,0,0,1-.44.47s-3.44.43-3.87,2.52c-.27,1.3,2.54,2.44,3.55,2.74a.49.49,0,0,1,.35.55.51.51,0,0,1-.49.43c-.83,0-3.18.27-3.2,1.45-.05,2.56,3.59,2.7,3.75,2.71a.48.48,0,0,1,.48.5.5.5,0,0,1-.5.5S203.29,247.43,202.23,248.76Zm12.24-20.35h0Z" fill="#231f20"/><ellipse cx="201.82" cy="204.2" rx="12.13" ry="4.03" fill="#d1d3d4"/><path d="M201.82,208.73c-6.13,0-12.63-1.58-12.63-4.53s6.5-4.53,12.63-4.53,12.63,1.59,12.63,4.53S207.94,208.73,201.82,208.73Zm0-8.06c-6.86,0-11.63,1.86-11.63,3.53s4.77,3.53,11.63,3.53,11.63-1.86,11.63-3.53S208.67,200.67,201.82,200.67Z" fill="#231f20"/><path d="M209.87,236.35a26.57,26.57,0,0,1-4.15-.34.5.5,0,0,1,.18-1s5.91,1,9.2-.62a.5.5,0,0,1,.67.22.5.5,0,0,1-.22.67A13.18,13.18,0,0,1,209.87,236.35Z" fill="#231f20"/><path d="M211.32,242.9a29.5,29.5,0,0,1-6-.67.5.5,0,0,1,.23-1c.06,0,6.21,1.42,10.31,0a.49.49,0,0,1,.63.31.5.5,0,0,1-.31.64A15.26,15.26,0,0,1,211.32,242.9Z" fill="#231f20"/><path d="M211.36,248.21a21.29,21.29,0,0,1-5.56-.83.5.5,0,0,1-.34-.62.51.51,0,0,1,.63-.33s5.8,1.72,9,0a.5.5,0,0,1,.67.21.5.5,0,0,1-.2.68A9.1,9.1,0,0,1,211.36,248.21Z" fill="#231f20"/><path d="M268,172.36l-.17,0a.5.5,0,0,1-.3-.64c2.14-5.88,13.53-23.93,14-24.7a.5.5,0,0,1,.69-.15.49.49,0,0,1,.16.69c-.12.18-11.81,18.73-13.92,24.51A.49.49,0,0,1,268,172.36Z" fill="#231f20"/><path d="M203.82,208.18c-.17-1.34-.52-4.17-1-8-1.9-14.45-5.89-43-9.59-58.2-5.09-20.92-16.18-40.65-20.92-45.07l-.73,2.74s8.59,8.87,15.12,34.65c4.31,17,7.74,50.35,9.22,66.38.29,3.12.51,5.58.63,7.15" fill="#fff"/><path d="M203.82,208.68a.51.51,0,0,1-.5-.44c-.16-1.34-.51-4.17-1-8-1.61-12.27-5.76-42.49-9.57-58.16a144.09,144.09,0,0,0-10.56-28.61c-3.43-6.94-7.11-12.9-9.62-15.6l-.44,1.63c1.35,1.51,9,10.88,15.06,34.67,4.25,16.78,7.6,48.84,9.22,66.45.3,3.13.52,5.59.64,7.16a.5.5,0,0,1-1,.08c-.13-1.56-.35-4-.64-7.15-1.3-14.16-4.81-49-9.2-66.29-6.41-25.32-14.92-34.35-15-34.43a.53.53,0,0,1-.13-.48l.74-2.74a.47.47,0,0,1,.34-.35.5.5,0,0,1,.48.11c4.53,4.23,15.76,23.52,21.07,45.32,3.82,15.71,8,46,9.59,58.26.51,3.82.86,6.64,1,8a.49.49,0,0,1-.43.55Z" fill="#231f20"/><rect x="69.93" y="264.33" width="260.13" height="7.24" fill="#231f20"/><path d="M330.07,272.06H69.93a.5.5,0,0,1-.5-.5v-7.23a.5.5,0,0,1,.5-.5H330.07a.5.5,0,0,1,.5.5v7.23A.5.5,0,0,1,330.07,272.06Zm-259.64-1H329.57v-6.23H70.43Z" fill="#231f20"/><path d="M146.52,202.43c-2.67-6-2.08-29.21-2.08-29.21a5.13,5.13,0,0,0,1-2.18,2.47,2.47,0,0,0-1-2v-2.79h-7.58v2.79a2.47,2.47,0,0,0-1,2,5.13,5.13,0,0,0,1,2.18s.59,23.18-2.08,29.21-7.3,11.8-7.3,18.36V249.6s3.46,4.74,13.1,4.76,13.1-4.76,13.1-4.76V220.79C153.82,214.23,149.2,208.46,146.52,202.43Z" fill="#fff"/><path d="M140.72,254.86c-9.79,0-13.35-4.76-13.5-5a.54.54,0,0,1-.1-.3V220.79c0-4.78,2.38-9.14,4.68-13.36.93-1.7,1.89-3.46,2.66-5.2,2.48-5.6,2.09-26.74,2-28.83a5.51,5.51,0,0,1-1-2.29,2.79,2.79,0,0,1,1-2.27v-2.56a.5.5,0,0,1,.5-.5h7.58a.5.5,0,0,1,.5.5v2.56a2.79,2.79,0,0,1,1,2.27,5.51,5.51,0,0,1-1,2.29c-.05,2.09-.44,23.23,2,28.83h0c.77,1.74,1.73,3.5,2.66,5.2,2.3,4.22,4.68,8.58,4.68,13.36V249.6a.54.54,0,0,1-.1.3C154.07,250.1,150.51,254.84,140.72,254.86Zm-12.6-5.44c.62.72,4.21,4.43,12.6,4.44s12-3.72,12.6-4.44V220.79c0-4.52-2.32-8.77-4.56-12.88-.94-1.72-1.9-3.5-2.69-5.27-2.7-6.07-2.15-28.48-2.13-29.43a.47.47,0,0,1,.12-.31A4.81,4.81,0,0,0,145,171c.1-.8-.77-1.51-.78-1.52a.5.5,0,0,1-.2-.39v-2.29h-6.58v2.29a.5.5,0,0,1-.2.39s-.88.71-.78,1.52a4.81,4.81,0,0,0,.93,1.92.47.47,0,0,1,.12.31c0,.95.57,23.36-2.13,29.43-.79,1.77-1.75,3.55-2.69,5.27-2.24,4.11-4.56,8.36-4.56,12.88Z" fill="#231f20"/><ellipse cx="140.72" cy="166.26" rx="3.79" ry="1.37" fill="#231f20"/><path d="M140.72,168.13c-2.07,0-4.29-.58-4.29-1.87s2.22-1.87,4.29-1.87,4.29.58,4.29,1.87S142.79,168.13,140.72,168.13Zm0-2.74c-2.16,0-3.29.65-3.29.87s1.13.87,3.29.87,3.29-.65,3.29-.87S142.88,165.39,140.72,165.39Z" fill="#231f20"/><path d="M140.52,174.56a7.43,7.43,0,0,1-3.79-.92.49.49,0,0,1-.15-.68.48.48,0,0,1,.68-.16c.12.07,2.84,1.7,7,0a.5.5,0,0,1,.65.27.49.49,0,0,1-.27.65A10.5,10.5,0,0,1,140.52,174.56Z" fill="#231f20"/><path d="M140.48,170.69a6.29,6.29,0,0,1-3.88-1.24.5.5,0,1,1,.65-.77h0c.11.1,2.77,2.24,7-.05a.5.5,0,0,1,.47.88A9,9,0,0,1,140.48,170.69Z" fill="#231f20"/><path d="M140.87,249.94a17.09,17.09,0,0,1-10.2-3.62.52.52,0,0,1-.17-.38V225a.49.49,0,0,1,.21-.41.5.5,0,0,1,.46-.07,28.76,28.76,0,0,0,9,1.23,38.62,38.62,0,0,0,9.76-1.23.49.49,0,0,1,.44.07.51.51,0,0,1,.2.41V246.3a.49.49,0,0,1-.21.4A15.92,15.92,0,0,1,140.87,249.94Zm-9.37-4.24a14.72,14.72,0,0,0,18,.34V225.6a40.86,40.86,0,0,1-9.4,1.1,31.84,31.84,0,0,1-8.62-1.08Z" fill="#d1d3d4"/><path d="M133.43,228v16.28a12.43,12.43,0,0,0,14,0V228S141.84,230.2,133.43,228Z" fill="#d1d3d4"/><path d="M140.77,215a18.46,18.46,0,0,1-7.1-1.43.5.5,0,0,1-.29-.54l1.12-6.37a.47.47,0,0,1,.24-.34.49.49,0,0,1,.41,0c4.84,1.66,10.2,0,10.26,0a.51.51,0,0,1,.63.37l1.49,6.36a.51.51,0,0,1-.27.57A14.88,14.88,0,0,1,140.77,215Zm-6.33-2.19c1.41.54,6.84,2.32,12,0l-1.27-5.46a19.32,19.32,0,0,1-9.81,0Z" fill="#d1d3d4"/><path d="M142.51,196.37a.5.5,0,0,1-.5-.5V176a.5.5,0,0,1,.5-.5.5.5,0,0,1,.5.5v19.83A.51.51,0,0,1,142.51,196.37Z" fill="#d1d3d4"/><path d="M151.73,223.44a.51.51,0,0,1-.5-.47c-.29-4.16-2.77-10.73-2.79-10.8a.5.5,0,0,1,.29-.65.51.51,0,0,1,.64.29c.11.28,2.56,6.78,2.86,11.09a.49.49,0,0,1-.46.53Z" fill="#d1d3d4"/><path d="M136.6,208.64l-.54,3.35s5.16,1.57,8.78,0l-.45-3.35A12.14,12.14,0,0,1,136.6,208.64Z" fill="#d1d3d4"/><path d="M112,210.83a32.17,32.17,0,0,1-1.87-12.77,5.32,5.32,0,0,0,.93-2.18,2.57,2.57,0,0,0-.87-2v-2.78h-6.83v2.78a2.57,2.57,0,0,0-.87,2,5.27,5.27,0,0,0,.94,2.18,32.28,32.28,0,0,1-1.88,12.77c-2.41,6-8.41,8-8.41,14.55v25s5,3.79,13.64,3.8,13.63-3.8,13.63-3.8v-25C120.36,218.81,114.36,216.86,112,210.83Z" fill="#fff"/><path d="M106.73,254.69c-8.76,0-13.74-3.75-13.94-3.91a.49.49,0,0,1-.2-.4v-25c0-4,2.11-6.36,4.35-8.84a20.09,20.09,0,0,0,4.1-5.9,32,32,0,0,0,1.85-12.41,5.55,5.55,0,0,1-1-2.29,2.87,2.87,0,0,1,.87-2.24v-2.58a.5.5,0,0,1,.5-.5h6.83a.5.5,0,0,1,.5.5v2.58a2.87,2.87,0,0,1,.87,2.24,5.71,5.71,0,0,1-.94,2.29,31.63,31.63,0,0,0,1.85,12.41h0a19.88,19.88,0,0,0,4.09,5.9c2.24,2.48,4.35,4.82,4.35,8.84v25a.49.49,0,0,1-.2.4C120.46,250.94,115.48,254.67,106.73,254.69Zm-13.14-4.57a25.95,25.95,0,0,0,26.27,0V225.38c0-3.64-1.89-5.74-4.09-8.17a20.62,20.62,0,0,1-4.28-6.2h0a32.32,32.32,0,0,1-1.91-13,.42.42,0,0,1,.1-.26,5,5,0,0,0,.84-1.94,2.08,2.08,0,0,0-.71-1.54.52.52,0,0,1-.17-.38v-2.28h-5.83v2.28a.49.49,0,0,1-.17.38,2.08,2.08,0,0,0-.71,1.54,4.84,4.84,0,0,0,.85,1.94.45.45,0,0,1,.09.26A32.12,32.12,0,0,1,102,211a20.62,20.62,0,0,1-4.28,6.2c-2.19,2.43-4.09,4.53-4.09,8.17Z" fill="#231f20"/><ellipse cx="106.73" cy="191.1" rx="3.42" ry="1.37" fill="#231f20"/><path d="M106.73,193c-2,0-3.92-.64-3.92-1.87,0-2.46,7.83-2.46,7.83,0C110.64,192.33,108.67,193,106.73,193Zm0-2.74c-1.9,0-2.92.62-2.92.87s1,.87,2.92.87,2.91-.62,2.91-.87S108.62,190.23,106.73,190.23Z" fill="#231f20"/><path d="M106.55,199.4a6.39,6.39,0,0,1-3.46-.93.5.5,0,0,1,.57-.82h0c.1.07,2.52,1.68,6.2,0a.5.5,0,0,1,.67.24.49.49,0,0,1-.24.66A8.87,8.87,0,0,1,106.55,199.4Z" fill="#231f20"/><path d="M106.54,195.51a5.53,5.53,0,0,1-3.57-1.24.5.5,0,1,1,.68-.73c.11.1,2.46,2.2,6.24-.06a.48.48,0,0,1,.68.17.49.49,0,0,1-.17.68A7.48,7.48,0,0,1,106.54,195.51Z" fill="#231f20"/><path d="M106.88,250.72a18.11,18.11,0,0,1-10.6-3.62.49.49,0,0,1-.18-.38V229.53a.52.52,0,0,1,.21-.41.53.53,0,0,1,.46-.06,31.74,31.74,0,0,0,9.34,1.22,41.78,41.78,0,0,0,10.16-1.23.52.52,0,0,1,.44.08.51.51,0,0,1,.2.4v17.55a.5.5,0,0,1-.22.41A17.05,17.05,0,0,1,106.88,250.72Zm-9.78-4.24a15.88,15.88,0,0,0,18.81.33V230.18a44,44,0,0,1-9.8,1.1,34.77,34.77,0,0,1-9-1.08Z" fill="#d1d3d4"/><path d="M99.13,232.58v12.47a13.38,13.38,0,0,0,14.57,0V232.58S107.89,234.79,99.13,232.58Z" fill="#d1d3d4"/><path d="M116.41,222.37a.5.5,0,0,1-.46-.31,11.05,11.05,0,0,0-2.49-3.24,22.65,22.65,0,0,1-3.92-5c-2.37-4.24-3.11-11.24-3.14-11.53a.5.5,0,1,1,1-.1c0,.07.76,7.09,3,11.15a21.75,21.75,0,0,0,3.77,4.78,11.75,11.75,0,0,1,2.69,3.56.5.5,0,0,1-.27.65A.43.43,0,0,1,116.41,222.37Z" fill="#d1d3d4"/><path d="M117.19,227.33a.51.51,0,0,1-.5-.48c-.06-1.29,0-2.23,0-2.27a.5.5,0,0,1,1,.07,21.12,21.12,0,0,0,0,2.15.5.5,0,0,1-.47.53Z" fill="#d1d3d4"/></g></svg>