<svg xmlns="http://www.w3.org/2000/svg" viewBox="0 0 400 300"><g id="_333_bicycle_flatline" data-name="#333_bicycle_flatline"><rect x="257.94" y="125.98" width="10.16" height="27.67" transform="translate(-23.2 57.3) rotate(-11.91)" fill="#68e1fd"/><path d="M260.9,154.86a.45.45,0,0,1-.44-.37l-5.71-27.07a.41.41,0,0,1,.06-.34.46.46,0,0,1,.29-.2l9.94-2.1a.45.45,0,0,1,.34.07.44.44,0,0,1,.2.28l5.71,27.08a.46.46,0,0,1-.35.54l-9.94,2.1Zm-5.17-27.18,5.53,26.18,9-1.91-5.52-26.18Z" fill="#231f20"/><path d="M261.94,121.2l-5.45,1.15a5,5,0,0,0-1.37,4.62l-.17.41,9.94-2.1.17-.4A5.07,5.07,0,0,0,261.94,121.2Z" fill="#fff"/><path d="M255,127.84a.46.46,0,0,1-.36-.17.47.47,0,0,1-.06-.47l.11-.28a5.54,5.54,0,0,1,1.52-4.9.57.57,0,0,1,.23-.12l5.45-1.15a.46.46,0,0,1,.26,0,5.52,5.52,0,0,1,3.41,4,.54.54,0,0,1,0,.28l-.17.4a.45.45,0,0,1-.33.27l-9.94,2.1Zm1.77-5.08a4.63,4.63,0,0,0-1.17,4l9-2a4.59,4.59,0,0,0-2.69-3.16Z" fill="#231f20"/><rect x="255.87" y="118.14" width="5.75" height="3.69" transform="translate(-19.2 55.99) rotate(-11.91)" fill="#fff"/><path d="M256.31,122.84a.47.47,0,0,1-.45-.36l-.76-3.61a.45.45,0,0,1,.07-.34.39.39,0,0,1,.28-.2l5.63-1.19a.46.46,0,0,1,.54.35l.76,3.61a.44.44,0,0,1-.06.35.44.44,0,0,1-.29.19l-5.63,1.19Zm-.22-3.71.57,2.71,4.74-1-.58-2.71Z" fill="#231f20"/><path d="M205.33,233.15s3.38,6.31,3.86,7.09,18-10.19,17.35-11.79-13.1.41-13.1.41Z" fill="#fff"/><path d="M209.27,240.73a.49.49,0,0,1-.47-.25c-.48-.78-3.73-6.86-3.87-7.12a.47.47,0,0,1,0-.35.51.51,0,0,1,.23-.27l8.11-4.28a.34.34,0,0,1,.14-.05c4.78-.77,12.9-1.81,13.59-.13.86,2.08-13.69,10.65-15.73,11.7A5.45,5.45,0,0,1,209.27,240.73Zm-3.32-7.4c.7,1.31,2.87,5.35,3.5,6.46,2.17-.6,16-9.44,16.64-11.19-.78-.68-7-.18-12.5.7Z" fill="#231f20"/><polygon points="187.31 168.67 213.44 228.86 205.33 233.15 170.11 169.61 187.31 168.67" fill="#fff"/><path d="M205.33,233.6a.45.45,0,0,1-.4-.23l-35.22-63.54a.49.49,0,0,1,0-.44.47.47,0,0,1,.38-.24l17.2-.94a.46.46,0,0,1,.44.28l26.13,60.19a.44.44,0,0,1-.21.58l-8.11,4.29A.38.38,0,0,1,205.33,233.6ZM170.87,170l34.64,62.51,7.34-3.88L187,169.14Z" fill="#231f20"/><path d="M149,143c-.47,1.66,31.22,47.12,31.22,47.12l15.16-9.3s-13.56-40.15-21.1-44.09S150.41,138,149,143Z" fill="#231f20"/><path d="M180.22,190.65a.49.49,0,0,1-.41-.22c-9.57-13.72-31.77-45.83-31.29-47.53h0c.72-2.54,4.42-4.47,6.56-5.4,5.91-2.54,14.48-3.77,19.43-1.18,7.63,4,20.79,42.73,21.34,44.37a.49.49,0,0,1-.21.59l-15.16,9.29A.5.5,0,0,1,180.22,190.65ZM149.5,143.1c.52,2.28,18.58,28.76,30.86,46.37l14.42-8.83c-1.41-4.09-13.84-39.83-20.73-43.44-4.67-2.44-12.88-1.23-18.57,1.22C152.21,139.83,150,141.57,149.5,143.1ZM149,143h0Z" fill="#231f20"/><path d="M130.33,259.46a48.28,48.28,0,1,1,48.28-48.28A48.34,48.34,0,0,1,130.33,259.46Zm0-89.56a41.28,41.28,0,1,0,41.28,41.28A41.33,41.33,0,0,0,130.33,169.9Z" fill="#231f20"/><path d="M178.39,200.79a2,2,0,0,1-1.93-1.5,47.65,47.65,0,0,0-89.11-8.65,2,2,0,1,1-3.6-1.73,51.64,51.64,0,0,1,96.58,9.39,2,2,0,0,1-1.44,2.43A2.14,2.14,0,0,1,178.39,200.79Z" fill="#68e1fd"/><circle cx="130.33" cy="211.18" r="6.48" fill="#231f20"/><path d="M275.67,259.46A48.28,48.28,0,1,1,324,211.18,48.34,48.34,0,0,1,275.67,259.46Zm0-89.56A41.28,41.28,0,1,0,317,211.18,41.33,41.33,0,0,0,275.67,169.9Z" fill="#231f20"/><path d="M227.24,213.18a2,2,0,0,1-2-2,50.48,50.48,0,0,1,50.43-50.43,2,2,0,0,1,0,4,46.48,46.48,0,0,0-46.43,46.43A2,2,0,0,1,227.24,213.18Z" fill="#68e1fd"/><circle cx="275.67" cy="211.18" r="6.48" fill="#231f20"/><path d="M277,213.18a2,2,0,0,1-1.31-.49,69.65,69.65,0,0,1-14.25-18c-4.31-8.16-15-41.78-19.34-55.91-4.82,14.19-19.23,48.14-50.16,61.78a2,2,0,0,1-1.62-3.66c36.94-16.29,49.71-64.94,49.83-65.43a2,2,0,0,1,3.85-.09c.16.52,15.78,51.59,21,61.44a66.65,66.65,0,0,0,13.33,16.88,2,2,0,0,1-1.31,3.51Z" fill="#68e1fd"/><path d="M195.94,219.66a2.58,2.58,0,0,1-.38,0,2,2,0,0,1-1.51-1.32l-19.58-58a2,2,0,0,1,3.78-1.28l18.48,54.66,51.46-59a2,2,0,1,1,3,2.63L197.45,219A2,2,0,0,1,195.94,219.66Z" fill="#68e1fd"/><path d="M196,219.66h-.2l-66.17-6.48a2,2,0,0,1-1-3.6l51.25-37.68a2,2,0,0,1,2.37,3.22l-47,34.59,61,6a2,2,0,0,1-.19,4Z" fill="#68e1fd"/><path d="M242.12,133.94a2,2,0,0,1-1.85-1.24l-3.78-9.21-8.69-1.08a2,2,0,1,1,.49-4l9.85,1.22a2,2,0,0,1,1.61,1.23L244,131.18a2,2,0,0,1-1.85,2.76Z" fill="#231f20"/><path d="M183.76,152S158,150.11,158,152s3.38,8.26,7.89,8.63,15.39-2.15,17.83-4.73S183.76,152,183.76,152Z" fill="#d1d3d4"/><path d="M166.85,161.11c-.34,0-.67,0-1,0-4.86-.41-8.3-7.06-8.3-9.09a.68.68,0,0,1,.24-.52c1.74-1.62,21.93-.23,26,.06a.6.6,0,0,1,.19.06,2.66,2.66,0,0,1,1.29,1.78,3.39,3.39,0,0,1-1.18,2.83C181.64,158.8,171.73,161.11,166.85,161.11Zm-8.34-9c.13,1.73,3.26,7.72,7.46,8.07,4.51.37,15.17-2.18,17.46-4.6a2.57,2.57,0,0,0,.94-2,1.69,1.69,0,0,0-.75-1.08C172.18,151.6,159.83,151.26,158.51,152.1Z" fill="#231f20"/><path d="M195.94,218.66a1,1,0,0,1-.61-.22l-28-22.08a1,1,0,0,1-.17-1.4,1,1,0,0,1,1.41-.17l28,22.08a1,1,0,0,1-.62,1.79Z" fill="#231f20"/><path d="M217.53,236.49a1,1,0,0,1-.64-.23l-21.58-17.83a1,1,0,1,1,1.27-1.54l21.59,17.83a1,1,0,0,1,.13,1.41A1,1,0,0,1,217.53,236.49Z" fill="#231f20"/><rect x="163.43" y="194.33" width="18.29" height="3.03" rx="1.52" transform="translate(142.31 -63.43) rotate(34.73)" fill="#d1d3d4"/><path d="M178.84,202.17a2,2,0,0,1-1.12-.35h0l-12.54-8.69a2,2,0,0,1-.81-1.27,1.9,1.9,0,0,1,.32-1.48,2,2,0,0,1,1.27-.82,2,2,0,0,1,1.47.32L180,198.57a2,2,0,0,1-1.13,3.6Zm-.6-1.1a1.07,1.07,0,0,0,1.48-.27,1.07,1.07,0,0,0-.27-1.48l-12.54-8.69a1.06,1.06,0,0,0-1.47.27,1,1,0,0,0-.18.79,1.05,1.05,0,0,0,.44.68Z" fill="#231f20"/><rect x="207.29" y="235.63" width="19.49" height="3.03" rx="1.52" transform="translate(-92.43 150.14) rotate(-31.83)" fill="#d1d3d4"/><path d="M210.05,243.46a2.3,2.3,0,0,1-.45-.05,2,2,0,0,1-1.23-.89,2,2,0,0,1,.64-2.71l14-8.69a2,2,0,0,1,2.09,3.36h0l-14,8.68A1.93,1.93,0,0,1,210.05,243.46Zm14-11.72a1,1,0,0,0-.55.16l-14,8.68a1.05,1.05,0,0,0-.47.66,1,1,0,0,0,.13.8,1,1,0,0,0,1.46.34l14-8.68a1.06,1.06,0,0,0-.56-2Zm.8,2.35h0Z" fill="#231f20"/><path d="M253.26,153.38H250a.46.46,0,1,1,0-.91h3.31a.46.46,0,1,1,0,.91Z" fill="#d1d3d4"/><path d="M275.92,156.36h0L253.6,155a.45.45,0,0,1-.41-.36L248,131.41a.52.52,0,0,1,.09-.38.46.46,0,0,1,.35-.17l34.45-.66a.38.38,0,0,1,.37.18.47.47,0,0,1,.07.4l-7,25.25A.46.46,0,0,1,275.92,156.36ZM254,154.15l21.58,1.28,6.73-24.3-33.27.63Z" fill="#d1d3d4"/><path d="M259.27,155.37a.46.46,0,0,1-.46-.42l-1.88-23.77a.45.45,0,0,1,.42-.49.46.46,0,0,1,.49.42l1.88,23.77a.46.46,0,0,1-.42.49Z" fill="#d1d3d4"/><path d="M264.31,155.67h0a.45.45,0,0,1-.43-.48l1.38-24.07a.46.46,0,1,1,.91,0l-1.38,24.07A.45.45,0,0,1,264.31,155.67Z" fill="#d1d3d4"/><path d="M269.81,156h-.09a.46.46,0,0,1-.36-.54l5.06-24.73a.45.45,0,1,1,.89.18l-5.06,24.73A.45.45,0,0,1,269.81,156Z" fill="#d1d3d4"/><path d="M280.67,139.2h0c-31-.45-31.06-.65-31.17-1.12a.47.47,0,0,1,.35-.55.44.44,0,0,1,.28,0c1.29.22,18.9.55,30.55.72a.47.47,0,0,1,.45.47A.46.46,0,0,1,280.67,139.2Z" fill="#d1d3d4"/><path d="M279.05,145.08h0l-27.8-.82a.44.44,0,0,1-.44-.47.45.45,0,0,1,.45-.44h0l27.8.81a.46.46,0,0,1,0,.92Z" fill="#d1d3d4"/><path d="M277.46,150.8h0l-25-1.08a.45.45,0,0,1-.43-.47.44.44,0,0,1,.47-.44l25,1.07a.46.46,0,0,1,0,.92Z" fill="#d1d3d4"/><path d="M156,119.58s-8.66,13.4-9.23,22.3c-1.22,18.78,53.64,16.45,53.64,16.45l5.63-16.45-22.57-9.25Z" fill="#231f20"/><path d="M194.47,158.93c-11.65,0-36.8-1.05-45.3-9.74a9.33,9.33,0,0,1-2.86-7.35c.58-8.92,8.95-22,9.31-22.53a.49.49,0,0,1,.63-.18l27.48,13.05,22.54,9.23a.5.5,0,0,1,.28.63l-5.63,16.45a.48.48,0,0,1-.45.34C200.1,158.85,197.86,158.93,194.47,158.93Zm-38.25-38.71c-1.38,2.21-8.41,13.84-8.91,21.69a8.36,8.36,0,0,0,2.57,6.58c10.13,10.36,46.3,9.48,50.21,9.35l5.37-15.68-22.13-9.07Z" fill="#231f20"/><path d="M206.08,141.88s24.42,4.81,20.48,12-48.17,35.11-48.17,35.11L171.87,184,202,153.91Z" fill="#fff"/><path d="M178.39,189.4a.46.46,0,0,1-.27-.09l-6.52-4.91a.44.44,0,0,1-.18-.33.49.49,0,0,1,.13-.36l30-30.05,4.09-11.93a.44.44,0,0,1,.52-.3c.75.15,18.29,3.66,20.93,9.34a3.45,3.45,0,0,1-.14,3.28c-4,7.15-46.51,34.13-48.32,35.28A.55.55,0,0,1,178.39,189.4ZM172.57,184l5.85,4.4c3.68-2.35,44.06-28.12,47.74-34.79a2.55,2.55,0,0,0,.11-2.45C224,146.34,209,143,206.38,142.41l-4,11.65a1,1,0,0,1-.11.17ZM202,153.91h0Z" fill="#231f20"/><path d="M171.87,184s-5.4,2.94-4.83,4.91,16.89,13.8,17.08,11.73-5.73-11.73-5.73-11.73Z" fill="#fff"/><path d="M183.8,201.37c-2.85,0-16.67-10.44-17.2-12.3-.63-2.22,4.1-4.92,5.06-5.44a.46.46,0,0,1,.49,0l6.52,4.91a.43.43,0,0,1,.11.12c.62,1,6,9.86,5.79,12a.71.71,0,0,1-.68.66Zm-12-16.79c-2.08,1.17-4.67,3.16-4.36,4.24.51,1.79,14,11.44,16.18,11.64-.12-1.67-3.44-7.64-5.61-11.21Z" fill="#231f20"/><circle cx="195.38" cy="218.28" r="5.07" fill="#231f20"/><path d="M195.38,223.85a5.57,5.57,0,1,1,5.57-5.57A5.58,5.58,0,0,1,195.38,223.85Zm0-10.14a4.57,4.57,0,1,0,4.57,4.57A4.58,4.58,0,0,0,195.38,213.71Z" fill="#231f20"/><path d="M195.38,230a11.77,11.77,0,1,1,11.76-11.76A11.77,11.77,0,0,1,195.38,230Zm0-22.61a10.85,10.85,0,1,0,10.85,10.85A10.87,10.87,0,0,0,195.38,207.43Z" fill="#231f20"/><path d="M235.08,174.77a2,2,0,0,1-1.49-.67L227,166.75a2,2,0,1,1,3-2.68l6.61,7.36a2,2,0,0,1-.15,2.82A2,2,0,0,1,235.08,174.77Z" fill="#68e1fd"/><path d="M172.78,46.19a17.24,17.24,0,0,0-6.7-2c-3.4-.39-8.87-.1-11.91,1.83-3.62,2.29-4.07,7.37-7.16,10.23-3.28,3.06-8.4,3.24-12.7,2A17.6,17.6,0,0,0,161,59.31c3.13-3.37,4.51-6.43,9.37-5.63,2.14.36,7.24,3.5,8.29,0C179.48,50.88,174.76,47.33,172.78,46.19Z" fill="#fff"/><path d="M148.08,65.42l-.69,0a18.29,18.29,0,0,1-13.47-6.85.5.5,0,0,1,.53-.79c4.87,1.42,9.44.72,12.22-1.87a15.57,15.57,0,0,0,3-4.62c1.05-2.14,2.14-4.34,4.24-5.67,3-1.92,8.47-2.34,12.24-1.91A17.64,17.64,0,0,1,173,45.76h0c2,1.16,7.05,4.87,6.11,8.05a2.63,2.63,0,0,1-1.33,1.69c-1.51.76-3.77,0-5.58-.71a12.4,12.4,0,0,0-1.94-.61c-3.71-.62-5.15,1.09-7.35,3.68-.49.57-1,1.18-1.58,1.79A18.36,18.36,0,0,1,148.08,65.42ZM135.73,59.1a17.08,17.08,0,0,0,24.9-.13c.56-.6,1.07-1.2,1.55-1.76,2.24-2.64,4-4.72,8.27-4a12,12,0,0,1,2.12.66c1.64.59,3.67,1.33,4.79.76a1.66,1.66,0,0,0,.82-1.09c.69-2.33-3.59-5.71-5.65-6.9h0A16.77,16.77,0,0,0,166,44.68c-3.6-.4-8.76,0-11.59,1.76-1.86,1.18-2.84,3.17-3.87,5.27a16,16,0,0,1-3.21,4.91C144.61,59.17,140.35,60.06,135.73,59.1Z" fill="#231f20"/><path d="M174.77,48.39a6.89,6.89,0,0,0-3.08,3.31,5.25,5.25,0,0,0-.59,3,4,4,0,0,0,2.13,2.91,2.24,2.24,0,0,0,1.61.28,2.68,2.68,0,0,0,1.14-.78C178.27,54.71,181.49,45.2,174.77,48.39Z" fill="#231f20"/><path d="M174.43,58.41A3.12,3.12,0,0,1,173,58a4.53,4.53,0,0,1-2.4-3.28,5.79,5.79,0,0,1,.64-3.26,7.4,7.4,0,0,1,3.31-3.54c2.06-1,3.48-.93,4.25.13,1.51,2.1-.73,7.56-2.46,9.36a3.15,3.15,0,0,1-1.37.91A1.9,1.9,0,0,1,174.43,58.41Zm2.62-10.17a5.25,5.25,0,0,0-2.07.61h0a6.3,6.3,0,0,0-2.83,3.07,4.75,4.75,0,0,0-.56,2.68,3.57,3.57,0,0,0,1.88,2.54,1.86,1.86,0,0,0,1.24.24,2.17,2.17,0,0,0,.91-.65c1.59-1.64,3.43-6.59,2.36-8.08A1.08,1.08,0,0,0,177.05,48.24Zm-2.28.15h0Z" fill="#231f20"/><path d="M181.32,77.37c-1.39.43-2.92.21-4.82-1.27a12,12,0,0,1-3.44-4.76,20.61,20.61,0,0,1,3.43-21.44c5.17-5.81,15.7-8.2,21.11-1.34a10.11,10.11,0,0,1,1.91,8.34,3,3,0,0,1,2.27,2.41c.68,2.93-.6,4.8-2.92,6.35-3.82,2.55-7.89,4.7-11.59,7.42C185.11,74.67,183.37,76.73,181.32,77.37Z" fill="#fff"/><path d="M180.07,78.06a6.37,6.37,0,0,1-3.88-1.57,12.51,12.51,0,0,1-3.59-4.95,21,21,0,0,1,3.51-22,17.5,17.5,0,0,1,13-5.68A11.44,11.44,0,0,1,198,48.25a10.61,10.61,0,0,1,2.09,8.28,3.7,3.7,0,0,1,2.18,2.66c.86,3.73-1.38,5.72-3.14,6.89-1.57,1-3.21,2-4.79,3-2.27,1.38-4.61,2.8-6.77,4.39-.7.52-1.37,1.09-2,1.64a12.18,12.18,0,0,1-4.09,2.72A4.5,4.5,0,0,1,180.07,78.06Zm8.58-33.18a16.41,16.41,0,0,0-11.79,5.35,20.25,20.25,0,0,0-3.34,20.91,11.4,11.4,0,0,0,3.29,4.56c1.59,1.25,3,1.62,4.36,1.19h0a11.91,11.91,0,0,0,3.74-2.52c.65-.57,1.33-1.16,2.07-1.69,2.19-1.62,4.55-3.06,6.84-4.44,1.57-1,3.2-1.95,4.76-3,2.46-1.65,3.28-3.39,2.72-5.83a2.58,2.58,0,0,0-1.86-2,.51.51,0,0,1-.34-.21.49.49,0,0,1-.08-.39,9.58,9.58,0,0,0-1.81-7.92,10.5,10.5,0,0,0-8.17-4Z" fill="#231f20"/><path d="M195.93,65.64s2,6.24.93,7.13-3.21-.53-3.21-.53" fill="#fff"/><path d="M196,73.56a5.51,5.51,0,0,1-2.59-.9.5.5,0,1,1,.54-.84c.61.39,2.05,1.05,2.62.57.39-.41-.11-3.5-1.09-6.6a.51.51,0,0,1,.33-.63.5.5,0,0,1,.63.33c.62,2,1.93,6.67.78,7.66A1.84,1.84,0,0,1,196,73.56Z" fill="#231f20"/><path d="M197.18,58.48c1.69,2.44,0,6.07-.78,8.54q-1.53,5.22-3.32,10.37c-.75,2.18-6.49.58-7.31-.37-.8,4.08-.81,14.32-5.63,15.87a4.09,4.09,0,0,1-2.92-.35c-6.18-2.81-4.29-8.43-3.07-13.35.92-3.72,1.72-7.49,2.58-11.23,0,0,3.77,1.12,7.31-2.74S192,63.22,197.18,58.48Z" fill="#fff"/><path d="M179.22,93.53A5.43,5.43,0,0,1,177,93c-6.19-2.81-4.81-8.23-3.59-13l.23-.93c.62-2.48,1.19-5,1.74-7.48l.84-3.74a.51.51,0,0,1,.24-.32.53.53,0,0,1,.39,0c.14,0,3.54,1,6.8-2.6,1.8-2,3.82-2.53,6-3.12a15.5,15.5,0,0,0,7.2-3.65.53.53,0,0,1,.4-.12.47.47,0,0,1,.35.21c1.55,2.23.54,5.23-.28,7.64-.15.47-.3.91-.43,1.33-1,3.46-2.14,7-3.33,10.38a2.12,2.12,0,0,1-1.8,1.34,10.18,10.18,0,0,1-5.62-1c-.11.69-.2,1.49-.31,2.38-.58,5-1.39,11.78-5.52,13.12A3.49,3.49,0,0,1,179.22,93.53Zm-2.11-25c-.25,1.09-.49,2.17-.74,3.26-.55,2.46-1.12,5-1.74,7.5l-.23.93c-1.18,4.61-2.39,9.38,3,11.85a3.74,3.74,0,0,0,2.56.33c3.52-1.14,4.32-7.85,4.84-12.29.15-1.26.28-2.35.45-3.21a.48.48,0,0,1,.36-.39.55.55,0,0,1,.51.16,8.79,8.79,0,0,0,5.41,1.22c.58-.11.93-.34,1.05-.68,1.18-3.41,2.29-6.89,3.32-10.35.12-.42.28-.88.44-1.36.67-2,1.5-4.46.68-6.26a16.73,16.73,0,0,1-7.15,3.46c-2.08.58-3.89,1.08-5.5,2.83C181.44,68.79,178.32,68.73,177.11,68.55Z" fill="#231f20"/><path d="M193.74,74.77s-3.18.88-3.82-2.33" fill="#fff"/><path d="M192.79,75.38a3.58,3.58,0,0,1-1.86-.49,3.4,3.4,0,0,1-1.5-2.35.51.51,0,0,1,.4-.59.5.5,0,0,1,.59.39,2.43,2.43,0,0,0,1,1.7,3.08,3.08,0,0,0,2.17.24.5.5,0,0,1,.27,1A4.43,4.43,0,0,1,192.79,75.38Z" fill="#231f20"/><path d="M185.77,77s-2.9-1-3.7-3.42c0,0-.88,3.56,3.23,6.4Z" fill="#231f20"/><path d="M185.3,80.5a.52.52,0,0,1-.29-.09c-4.34-3-3.46-6.77-3.42-6.93a.5.5,0,0,1,.46-.38.49.49,0,0,1,.5.35c.71,2.17,3.35,3.08,3.38,3.09a.5.5,0,0,1,.33.55l-.47,3a.5.5,0,0,1-.29.38A.48.48,0,0,1,185.3,80.5Zm-2.71-5a6.38,6.38,0,0,0,2.34,3.63l.28-1.77A7.61,7.61,0,0,1,182.59,75.47Z" fill="#231f20"/><ellipse cx="195.23" cy="63.61" rx="1.3" ry="0.51" transform="matrix(0.34, -0.94, 0.94, 0.34, 68.57, 225.22)" fill="#231f20"/><path d="M188.3,65.38A5,5,0,0,0,188,62.7a7.38,7.38,0,0,0-.81-1.94,2.4,2.4,0,0,0-1.72-1.12,2.24,2.24,0,0,0-1.68.69,4.33,4.33,0,0,0-.93,1.61,7.78,7.78,0,0,0,1.55,7.63l-.14-.26" fill="#fff"/><path d="M184.43,70.07a.48.48,0,0,1-.37-.17,8.33,8.33,0,0,1-1.65-8.13A4.69,4.69,0,0,1,183.46,60a2.65,2.65,0,0,1,2.07-.83,2.83,2.83,0,0,1,2.09,1.33,7.43,7.43,0,0,1,.87,2.08,5.36,5.36,0,0,1,.3,3,.51.51,0,0,1-.62.35.5.5,0,0,1-.35-.61,4.59,4.59,0,0,0-.28-2.4,6.46,6.46,0,0,0-.75-1.81,1.88,1.88,0,0,0-1.33-.9,1.69,1.69,0,0,0-1.29.55,3.7,3.7,0,0,0-.82,1.41,7.37,7.37,0,0,0,1.11,6.74.47.47,0,0,1,.28.24l.13.26a.5.5,0,0,1-.44.73Z" fill="#231f20"/><path d="M193.65,98.83c0-4.89-18.54-35.22-30.79-20.11-5,6.22-6.15,26-13.62,51.94l34.27,2S193.65,115.53,193.65,98.83Z" fill="#68e1fd"/><path d="M171.74,82.19c-6.13-5.25-9,5.52-9.35,9.55a40.28,40.28,0,0,0,3.67,19.64,5.59,5.59,0,0,0,1.73,2.4,4,4,0,0,0,4.64-.5A8.9,8.9,0,0,0,175,109c1.44-4.52,1.48-9.36,1.25-14.1S175.25,85.21,171.74,82.19Z" fill="#231f20"/><path d="M169.61,114.82a3.67,3.67,0,0,1-2.1-.63,6.05,6.05,0,0,1-1.91-2.6,40.6,40.6,0,0,1-3.71-19.88c.23-3,1.84-9.71,5.33-11.16,1.51-.62,3.14-.2,4.84,1.26h0c3.67,3.15,4.4,8.38,4.64,13.08.21,4.4.23,9.55-1.27,14.28a9.47,9.47,0,0,1-2.68,4.49A5.07,5.07,0,0,1,169.61,114.82Zm-1-33.54a2.61,2.61,0,0,0-1,.2c-2.86,1.18-4.48,7.29-4.71,10.3a39.54,39.54,0,0,0,3.62,19.39,5.28,5.28,0,0,0,1.56,2.19,3.52,3.52,0,0,0,4-.47,8.4,8.4,0,0,0,2.36-4c1.46-4.59,1.44-9.62,1.23-13.93-.22-4.49-.91-9.47-4.29-12.37h0A4.48,4.48,0,0,0,168.59,81.28Z" fill="#231f20"/><path d="M190.16,105.52c-3.51-3.1-15.66-25.74-21.24-24.71s-8.73,10.07-4.18,15.65,15.92,18.56,22.43,21.25,37.51,5,37.51,5h5.12s-.47,2.4,1.16,2.17,7-5,5.42-8.21-6.2-4-7.2-4.19-7,3.57-7,3.57S193.68,108.62,190.16,105.52Z" fill="#fff"/><path d="M230.75,125.31a1.31,1.31,0,0,1-1-.4,2.42,2.42,0,0,1-.48-1.78h-4.6c-1.3-.1-31.18-2.31-37.69-5-7.59-3.13-21.09-19.52-22.6-21.38a10.91,10.91,0,0,1-1.56-10.65c1.14-3.11,3.39-5.25,6-5.74,4.07-.75,10.73,9.21,16.09,17.21,2.38,3.56,4.44,6.64,5.54,7.6h0c3.24,2.87,29.15,9.69,31.65,10.34,1.93-1.22,6.12-3.76,7.16-3.52l.26.06c1.42.3,5.72,1.22,7.25,4.37a4.29,4.29,0,0,1-.38,4c-1.26,2.38-4.06,4.73-5.39,4.92A1.27,1.27,0,0,1,230.75,125.31Zm-.95-3.1a.45.45,0,0,1,.44.55,2.21,2.21,0,0,0,.18,1.52c.06.07.18.15.47.11.85-.12,3.49-2.13,4.71-4.45a3.37,3.37,0,0,0,.37-3.11c-1.34-2.75-5.31-3.6-6.62-3.88l-.28-.06c-.63-.09-3.9,1.77-6.62,3.5a.46.46,0,0,1-.36.06c-1.17-.31-28.67-7.45-32.23-10.59h0c-1.18-1-3.17-4-5.69-7.78-4.65-7-11.67-17.46-15.17-16.82-2.3.43-4.29,2.35-5.31,5.15a10.07,10.07,0,0,0,1.4,9.76c1.5,1.84,14.87,18.07,22.25,21.12,6.37,2.63,37.06,4.9,37.37,4.93Z" fill="#231f20"/><circle cx="227.24" cy="122.22" r="2.64" fill="#231f20"/><path d="M202,154.41a.49.49,0,0,1-.47-.36.48.48,0,0,1,.33-.62c.25-.08,6.3-1.92,9.78-1a.49.49,0,0,1,.35.61.5.5,0,0,1-.61.36c-3.2-.86-9.17,1-9.23,1Z" fill="#231f20"/><path d="M122.41,204.62a.49.49,0,0,1-.3-.1L100.76,188a.5.5,0,0,1,.61-.79l21.35,16.55a.5.5,0,0,1-.31.89Z" fill="#d1d3d4"/><path d="M125.41,245h-.11a.5.5,0,0,1-.38-.6L129.84,222a.5.5,0,0,1,1,.22l-4.92,22.33A.51.51,0,0,1,125.41,245Z" fill="#d1d3d4"/><path d="M144.74,208.38a.5.5,0,0,1-.18-1l18.12-7a.5.5,0,0,1,.65.29.49.49,0,0,1-.29.64l-18.12,7A.57.57,0,0,1,144.74,208.38Z" fill="#d1d3d4"/><path d="M261.23,244.81a.44.44,0,0,1-.22-.05.5.5,0,0,1-.23-.67l11.11-22.34a.5.5,0,0,1,.67-.22.49.49,0,0,1,.22.67l-11.1,22.34A.51.51,0,0,1,261.23,244.81Z" fill="#d1d3d4"/><path d="M263.75,206.71a.45.45,0,0,1-.25-.07l-21-12.06a.5.5,0,0,1,.5-.86l21,12.06a.5.5,0,0,1-.25.93Z" fill="#d1d3d4"/><path d="M285.24,208.38a.51.51,0,0,1-.41-.2.5.5,0,0,1,.12-.7l21.4-15.41a.5.5,0,0,1,.58.81l-21.4,15.41A.52.52,0,0,1,285.24,208.38Z" fill="#d1d3d4"/><path d="M199.22,153.79h-.14l-48.21-13.32a.49.49,0,0,1-.35-.61.5.5,0,0,1,.62-.35l48.21,13.31a.51.51,0,0,1,.35.62A.49.49,0,0,1,199.22,153.79Z" fill="#fff"/></g></svg>