<svg xmlns="http://www.w3.org/2000/svg" viewBox="0 0 400 300"><g id="_375_bomb_flatline" data-name="#375_bomb_flatline"><ellipse cx="149.37" cy="229.3" rx="58.98" ry="4.49" fill="#e6e7e8"/><circle cx="157.08" cy="156.48" r="75.71" fill="#68e1fd"/><path d="M157.08,232.7a76.22,76.22,0,1,1,76.21-76.22A76.3,76.3,0,0,1,157.08,232.7Zm0-151.43a75.22,75.22,0,1,0,75.21,75.21A75.3,75.3,0,0,0,157.08,81.27Z" fill="#231f20"/><path d="M186.4,84.6l-8.34,9c-4.6,5-.58,16.2,9,25s21.06,11.92,25.66,6.93l8.34-9Z" fill="#231f20"/><path d="M206.4,128.45c-5.66,0-13.14-3.38-19.69-9.42a37.49,37.49,0,0,1-9.94-14.14c-1.76-4.91-1.44-9,.92-11.59l8.34-9a.51.51,0,0,1,.71,0l34.65,32a.5.5,0,0,1,.16.35.49.49,0,0,1-.13.36l-8.34,9A8.79,8.79,0,0,1,206.4,128.45Zm-20-43.14-8,8.67c-2.1,2.27-2.35,6-.72,10.57a36.26,36.26,0,0,0,9.68,13.74c9.35,8.62,20.54,11.74,25,7l8-8.67Z" fill="#231f20"/><ellipse cx="203.72" cy="100.57" rx="12.3" ry="23.57" transform="translate(-8.31 182.19) rotate(-47.33)" fill="#68e1fd"/><path d="M214.74,119.4c-5.66,0-13.14-3.38-19.69-9.42-9.76-9-13.8-20.53-9-25.72s16.61-2.09,26.37,6.9,13.8,20.54,9,25.73h0A8.78,8.78,0,0,1,214.74,119.4Zm-22-36.7a7.87,7.87,0,0,0-6,2.24c-4.41,4.78-.38,15.69,9,24.31s20.54,11.74,25,7h0c4.41-4.79.39-15.69-9-24.31C205.34,86,198.11,82.7,192.75,82.7Zm28.3,33.85h0Z" fill="#231f20"/><path d="M272.24,190.22a4.5,4.5,0,0,1-3.23-7.64c4.34-4.47,6.46-8.23,6.28-11.19-.23-4-4.86-7.75-9.77-11.73-7.85-6.38-18.61-15.12-13.29-29.89a125.76,125.76,0,0,1,8.1-17.1C269,96.5,272,89.61,256.74,81.33c-10-5.44-20.81-4.24-32.17,3.54A69.3,69.3,0,0,0,209.5,99.32a4.5,4.5,0,0,1-7.3-5.27C211.63,81,236.06,59.82,261,73.42c23.71,12.9,14.94,29.17,7.21,43.52a119.24,119.24,0,0,0-7.55,15.87c-3,8.35,2,13,10.5,19.86,6.2,5,12.61,10.24,13.08,18.19.33,5.66-2.55,11.55-8.81,18A4.54,4.54,0,0,1,272.24,190.22Z" fill="#fff"/><path d="M272.24,190.72a5,5,0,0,1-3.49-1.41,5,5,0,0,1-.1-7.08c4.24-4.36,6.31-8,6.14-10.82-.22-3.76-4.77-7.46-9.58-11.37-8-6.47-18.89-15.33-13.45-30.44a128.49,128.49,0,0,1,8.12-17.16c8.93-16.57,11.27-22.7-3.38-30.67-9.8-5.34-20.45-4.16-31.64,3.52a68.15,68.15,0,0,0-15,14.33,5,5,0,0,1-8.11-5.86C211.31,80.56,236,59.21,261.28,73c24.14,13.14,15.26,29.64,7.41,44.2a119.39,119.39,0,0,0-7.52,15.8c-2.89,8,2.05,12.56,10.34,19.3,6.29,5.1,12.79,10.38,13.27,18.55.34,5.81-2.59,11.82-9,18.38A5,5,0,0,1,272.24,190.72ZM244,77.48A26.7,26.7,0,0,1,257,80.89c15.61,8.49,12.44,16,3.79,32a125.67,125.67,0,0,0-8.07,17c-5.2,14.45,5.4,23,13.14,29.34,5,4,9.71,7.88,10,12.09.19,3.1-2,7-6.42,11.57a4,4,0,0,0,5.74,5.58c6.16-6.34,9-12.1,8.67-17.62-.45-7.73-6.78-12.87-12.89-17.83-8.64-7-13.78-11.76-10.66-20.42a119.68,119.68,0,0,1,7.58-15.94c7.62-14.15,16.26-30.18-7-42.84-24.67-13.43-48.86,7.53-58.2,20.49A4,4,0,0,0,209.09,99a69.33,69.33,0,0,1,15.2-14.57C231.08,79.81,237.68,77.48,244,77.48Z" fill="#231f20"/><polygon points="270.98 158.44 244.63 145.69 260.41 163.18 218.09 166.28 265.43 172.6 250.94 183.67 269.07 181.18 259.57 200.52 269.56 195.45 264.16 214.3 279.57 193.42 293.62 233.41 292.37 195.85 310.8 205.79 299.84 184.76 330.65 183.83 308.9 174.85 321.55 170.17 299.71 167.63 329.43 149.26 296.35 159.97 304.93 143.9 293.24 151.35 290.87 134.39 284.94 153.65 272.58 116.15 276.85 153.68 267.16 142.34 270.98 158.44" fill="#d1d3d4"/><path d="M293.62,233.91a.5.5,0,0,1-.47-.33l-13.73-39.1L264.57,214.6a.52.52,0,0,1-.63.15.52.52,0,0,1-.26-.59l5.08-17.74-9,4.54a.5.5,0,0,1-.68-.66l9.09-18.5L251,184.16a.49.49,0,0,1-.53-.3.5.5,0,0,1,.16-.59l13.53-10.34L218,166.78a.52.52,0,0,1-.44-.51.51.51,0,0,1,.47-.49l41.3-3L244.26,146a.5.5,0,0,1,.58-.79l25.41,12.3-3.57-15.08a.5.5,0,0,1,.86-.44l8.62,10.1-4.07-35.91a.5.5,0,0,1,1-.21l11.86,36,5.47-17.77a.5.5,0,0,1,1,.08l2.27,16.19,11-7a.5.5,0,0,1,.6.05.52.52,0,0,1,.11.61l-8,15,31.89-10.33a.5.5,0,0,1,.61.27.48.48,0,0,1-.19.63L301.2,167.3l20.41,2.37a.5.5,0,0,1,.11,1l-11.45,4.23,20.57,8.49a.5.5,0,0,1-.18,1l-30,.9,10.59,20.33a.5.5,0,0,1-.68.67L292.9,196.7l1.22,36.7a.49.49,0,0,1-.41.5Zm-14-41h.07a.5.5,0,0,1,.4.33l13,36.91-1.14-34.31a.5.5,0,0,1,.23-.44.52.52,0,0,1,.51,0l17,9.17L299.39,185a.53.53,0,0,1,0-.49.46.46,0,0,1,.41-.24l28.48-.86-19.59-8.09a.5.5,0,0,1,0-.93l10.69-3.95-19.77-2.3a.51.51,0,0,1-.43-.39.51.51,0,0,1,.23-.53l26.2-16.2-29.14,9.44a.5.5,0,0,1-.54-.16.52.52,0,0,1-.06-.56l7.69-14.38-10.09,6.42a.51.51,0,0,1-.48,0,.48.48,0,0,1-.28-.38l-2.07-14.73-5.26,17.11a.5.5,0,0,1-.48.35.58.58,0,0,1-.48-.34l-10.83-32.89,3.71,32.71a.5.5,0,0,1-.87.38l-8.34-9.77,3.34,14.09a.48.48,0,0,1-.18.5.47.47,0,0,1-.53.06l-24-11.63,14.07,15.58a.49.49,0,0,1,.09.52.48.48,0,0,1-.43.31L223,166.43l42.55,5.67a.49.49,0,0,1,.41.37.48.48,0,0,1-.18.52l-13,9.92L269,180.68a.51.51,0,0,1,.48.21.49.49,0,0,1,0,.51l-8.84,18,8.65-4.38a.5.5,0,0,1,.71.58l-4.63,16.18,13.76-18.64A.52.52,0,0,1,279.58,192.92Z" fill="#231f20"/><path d="M209.69,97.68a.5.5,0,0,1-.43-.25,16.27,16.27,0,0,1-2.08-8.06.5.5,0,0,1,.52-.48.49.49,0,0,1,.47.52,15.7,15.7,0,0,0,2,7.53.5.5,0,0,1-.19.68A.54.54,0,0,1,209.69,97.68Z" fill="#d1d3d4"/><path d="M215.33,91.06a.49.49,0,0,1-.45-.27,17.2,17.2,0,0,1-1.54-6.52c0-.29-.05-.62-.07-.7a.46.46,0,0,1,.16-.65.55.55,0,0,1,.72.18,2.49,2.49,0,0,1,.19,1.1,16.53,16.53,0,0,0,1.43,6.13.51.51,0,0,1-.21.68A.48.48,0,0,1,215.33,91.06Z" fill="#d1d3d4"/><path d="M221.62,85.85a.49.49,0,0,1-.48-.37c-1.34-5-.81-7.2-.78-7.29a.49.49,0,1,1,1,.24s-.47,2.06.78,6.8a.5.5,0,0,1-.35.61Z" fill="#d1d3d4"/><path d="M227.72,82a.5.5,0,0,1-.49-.43,19.41,19.41,0,0,1,.39-8,.51.51,0,0,1,.63-.33.5.5,0,0,1,.32.63,18.6,18.6,0,0,0-.35,7.52.5.5,0,0,1-.43.57Z" fill="#d1d3d4"/><path d="M234.48,78.81a.51.51,0,0,1-.49-.41c-.69-3.62,1.75-7.52,1.85-7.68a.5.5,0,0,1,.69-.15.49.49,0,0,1,.16.69s-2.33,3.72-1.72,7a.49.49,0,0,1-.4.58Z" fill="#d1d3d4"/><path d="M241.15,76.92a.27.27,0,0,1-.13,0,.48.48,0,0,1-.35-.61,15.25,15.25,0,0,1,3.89-6.51.5.5,0,0,1,.71,0,.5.5,0,0,1,0,.71,14.53,14.53,0,0,0-3.61,6A.49.49,0,0,1,241.15,76.92Z" fill="#d1d3d4"/><path d="M248.24,77.73a.47.47,0,0,1-.3-.1.5.5,0,0,1-.11-.69c.14-.18,3.26-4.4,6-5.61a.5.5,0,1,1,.4.91c-2.52,1.11-5.59,5.25-5.62,5.29A.51.51,0,0,1,248.24,77.73Z" fill="#d1d3d4"/><path d="M256.17,80.13a.49.49,0,0,1-.41-.22.5.5,0,0,1,.13-.7c.18-.12,4.52-3,8-2.71a.51.51,0,0,1,.45.54.5.5,0,0,1-.55.45c-3.08-.29-7.28,2.52-7.32,2.55A.49.49,0,0,1,256.17,80.13Z" fill="#d1d3d4"/><path d="M263.82,85.48a.49.49,0,0,1-.45-.29.5.5,0,0,1,.24-.67,15.31,15.31,0,0,1,8.53-1.11.5.5,0,0,1,.39.59.51.51,0,0,1-.59.39,14.53,14.53,0,0,0-7.91,1A.54.54,0,0,1,263.82,85.48Z" fill="#d1d3d4"/><path d="M275,97.12a.51.51,0,0,1-.4-.2c-2.13-2.83-6.22-3.23-6.26-3.23a.5.5,0,0,1-.46-.54.51.51,0,0,1,.54-.46c.19,0,4.57.44,7,3.63a.5.5,0,0,1-.1.7A.47.47,0,0,1,275,97.12Z" fill="#d1d3d4"/><path d="M271.73,108.34h0a.5.5,0,0,1-.48-.52c0-1.3-1.49-2.89-4.59-4.73-.37-.22-.43-.26-.51-.37a.5.5,0,0,1,.75-.65l.27.16c1.29.76,5.18,3.07,5.08,5.63A.5.5,0,0,1,271.73,108.34Z" fill="#d1d3d4"/><path d="M267.44,116.23h0a.5.5,0,0,1-.49-.51,5.7,5.7,0,0,0-3.58-5.38c-.25-.12-.41-.2-.48-.42a.5.5,0,0,1,.31-.63.48.48,0,0,1,.48.09l.14.07c2.79,1.38,4.18,3.5,4.13,6.29A.51.51,0,0,1,267.44,116.23Z" fill="#d1d3d4"/><path d="M264.1,123a.5.5,0,0,1-.5-.48,6.21,6.21,0,0,0-3.67-5.43c-.41-.23-.61-.34-.7-.58a.5.5,0,0,1,.28-.65.51.51,0,0,1,.58.16l.32.19a7.2,7.2,0,0,1,4.19,6.27.5.5,0,0,1-.48.52Z" fill="#d1d3d4"/><path d="M261.52,127.87a.5.5,0,0,1-.45-.29c-1.9-4-5.38-3.1-5.52-3.06a.5.5,0,0,1-.26-1,5.89,5.89,0,0,1,6.68,3.6.5.5,0,0,1-.23.67A.59.59,0,0,1,261.52,127.87Z" fill="#d1d3d4"/><path d="M259,135.05a.49.49,0,0,1-.48-.36c-.75-2.52-5.42-3.3-5.47-3.31a.5.5,0,1,1,.16-1c.21,0,5.35.88,6.27,4a.51.51,0,0,1-.34.62Z" fill="#d1d3d4"/><path d="M252.32,141.2a.5.5,0,0,1-.1-1c.19,0,4.61-.91,6.91-.22a.5.5,0,1,1-.29.95c-2.06-.61-6.38.24-6.42.25Z" fill="#d1d3d4"/><path d="M257.11,150.4a.49.49,0,0,1-.48-.36.5.5,0,0,1,.34-.62c.21-.06,5-1.43,7.61-1.38a.5.5,0,0,1,.49.51.47.47,0,0,1-.51.49c-2.36-.06-7.27,1.33-7.32,1.34A.3.3,0,0,1,257.11,150.4Z" fill="#d1d3d4"/><path d="M105.67,116.73a1,1,0,0,1-.63-.22,1,1,0,0,1-.15-1.41C128.38,85.8,160.64,88.37,161,88.39a1,1,0,1,1-.18,2c-.31,0-31.54-2.48-54.33,26A1,1,0,0,1,105.67,116.73Z" fill="#fff"/><path d="M98.62,129a.76.76,0,0,1-.21,0,1,1,0,0,1-.76-1.19,26.8,26.8,0,0,1,2.94-6.5,1,1,0,1,1,1.7,1,25.66,25.66,0,0,0-2.69,5.88A1,1,0,0,1,98.62,129Z" fill="#fff"/><path d="M301.48,132.62a.32.32,0,0,1-.13,0A.5.5,0,0,1,301,132l6.76-25.35a.49.49,0,0,1,.61-.35.5.5,0,0,1,.36.61L302,132.25A.51.51,0,0,1,301.48,132.62Z" fill="#d1d3d4"/><path d="M232.79,206a.5.5,0,0,1-.24-.93L248,196.47a.5.5,0,0,1,.68.19.49.49,0,0,1-.19.68L233,206A.54.54,0,0,1,232.79,206Z" fill="#d1d3d4"/><path d="M269.14,229.93l-.15,0a.51.51,0,0,1-.33-.63l2.9-9.24a.51.51,0,0,1,.63-.33.5.5,0,0,1,.32.63l-2.89,9.24A.51.51,0,0,1,269.14,229.93Z" fill="#d1d3d4"/><path d="M333.78,201.72a.42.42,0,0,1-.22-.05l-15.4-7.7a.5.5,0,0,1-.23-.67.51.51,0,0,1,.68-.22l15.39,7.7a.5.5,0,0,1,.23.67A.51.51,0,0,1,333.78,201.72Z" fill="#d1d3d4"/><path d="M333.78,162.48H322.89a.5.5,0,0,1,0-1h10.89a.5.5,0,0,1,0,1Z" fill="#d1d3d4"/><path d="M248.24,175.28h-12a.5.5,0,0,1-.5-.5.5.5,0,0,1,.5-.5h12a.51.51,0,0,1,.5.5A.5.5,0,0,1,248.24,175.28Z" fill="#d1d3d4"/><path d="M304.86,216.93a.49.49,0,0,1-.46-.31L301,208a.5.5,0,0,1,.28-.65.51.51,0,0,1,.65.28l3.38,8.64a.5.5,0,0,1-.29.65Z" fill="#d1d3d4"/><path d="M285.52,128.48a.5.5,0,0,1-.5-.5V115.73a.5.5,0,0,1,1,0V128A.5.5,0,0,1,285.52,128.48Z" fill="#d1d3d4"/></g></svg>