<svg xmlns="http://www.w3.org/2000/svg" viewBox="0 0 400 300"><g id="_538_boy_swimming_flatline" data-name="#538_boy_swimming_flatline"><rect x="29.5" y="25.62" width="327.26" height="237.86" fill="#68e1fd"/><path d="M356.76,264H29.5a.5.5,0,0,1-.5-.5V25.62a.5.5,0,0,1,.5-.5H356.76a.5.5,0,0,1,.5.5V263.48A.5.5,0,0,1,356.76,264ZM30,263H356.26V26.12H30Z" fill="#231f20"/><path d="M263.7,263.48H222.45c-48.31-32.75-166.57-113.1-164-116.2,3.31-3.94,57.76-44.91,57.76-44.91s217,88.27,218.7,98.53C336.17,208.1,290.83,243.2,263.7,263.48Z" fill="#231f20"/><path d="M263.7,264H222.45a.49.49,0,0,1-.28-.09C110.67,188.3,58.49,151.32,58,147.52a.73.73,0,0,1,.15-.56c3.31-3.94,55.61-43.32,57.84-45a.46.46,0,0,1,.48-.06c8.87,3.6,217.24,88.49,219,98.91,1.2,7.08-38.18,38.2-71.44,63.06A.51.51,0,0,1,263.7,264Zm-41.09-1h40.93c45.93-34.34,71.78-56.93,70.92-62-1.39-8.18-157.67-73.44-218.14-98C112.53,105.79,63,143.14,59,147.48,60.23,150.43,90,173.08,222.61,263Z" fill="#231f20"/><path d="M123.24,191.77a27.72,27.72,0,0,1-9.37,20.81,26.62,26.62,0,0,1-3.65,2.75,27.7,27.7,0,0,1-14.79,4.25,28.39,28.39,0,0,1-5.8-.6c-.68-.15-1.33-.32-2-.5a27.81,27.81,0,0,1-19.42-20.93,28.26,28.26,0,0,1-.6-5.78,27.74,27.74,0,0,1,6.85-18.28q.45-.53.93-1a27.83,27.83,0,0,1,15.92-8.21,27.28,27.28,0,0,1,3-.28l1.08,0a27.79,27.79,0,0,1,23.41,12.79c.38.6.75,1.22,1.09,1.86A27.68,27.68,0,0,1,123.24,191.77Z" fill="#fff"/><path d="M95.43,220.08a27.84,27.84,0,0,1-5.91-.62c-.67-.14-1.33-.31-2-.5a28.55,28.55,0,0,1-18.32-16.57,28,28,0,0,1-1.45-4.74,28.4,28.4,0,0,1,6.36-24.49c.31-.36.63-.7,1-1a28.44,28.44,0,0,1,16.21-8.35,25.91,25.91,0,0,1,3.08-.29l1.1,0a28.25,28.25,0,0,1,23.83,13c.43.68.79,1.3,1.11,1.9A28.31,28.31,0,0,1,114.21,213a27.2,27.2,0,0,1-3.72,2.8A28.28,28.28,0,0,1,95.43,220.08Zm0-55.62-1.06,0a26.21,26.21,0,0,0-3,.28,27.4,27.4,0,0,0-15.64,8.06c-.31.32-.62.65-.91,1a27.34,27.34,0,0,0-6.73,18,27.78,27.78,0,0,0,.59,5.67A26.59,26.59,0,0,0,70.1,202a27.55,27.55,0,0,0,17.68,16c.66.19,1.3.35,2,.49a27.85,27.85,0,0,0,5.7.59,27.31,27.31,0,0,0,24.06-40.23c-.31-.58-.66-1.18-1.07-1.84A27.24,27.24,0,0,0,95.43,164.46Z" fill="#231f20"/><path d="M92,181.05h0c-.18.14-1.75,1.48-4,3.52A247.93,247.93,0,0,0,69.64,202.2a27.7,27.7,0,0,1-2-10.43,27.74,27.74,0,0,1,6.85-18.28q.45-.53.93-1a36.63,36.63,0,0,1,13.58,6A31.08,31.08,0,0,1,92,181.05Z" fill="#68e1fd"/><path d="M69.64,202.7h-.08a.49.49,0,0,1-.38-.3,28,28,0,0,1-1.45-4.74,28.4,28.4,0,0,1,6.36-24.49c.31-.36.63-.7,1-1a.51.51,0,0,1,.47-.13,37.4,37.4,0,0,1,13.77,6.11,31.39,31.39,0,0,1,3.11,2.59.51.51,0,0,1,.15.36.47.47,0,0,1-.1.3.4.4,0,0,1-.13.13c-.27.23-1.77,1.51-4,3.48-4.56,4-13,11.66-18.3,17.57A.48.48,0,0,1,69.64,202.7ZM75.57,173c-.25.26-.49.53-.72.79a27.34,27.34,0,0,0-6.73,18,27.78,27.78,0,0,0,.59,5.67,27,27,0,0,0,1.1,3.82c5.35-5.85,13.42-13.14,17.84-17,1.72-1.52,3-2.63,3.64-3.17a28.34,28.34,0,0,0-2.6-2.13A36.41,36.41,0,0,0,75.57,173Z" fill="#231f20"/><path d="M119.93,178.61c-3.28-.31-6,5.12-9,5.22a62.7,62.7,0,0,0-11.46,1.09c-2.68.54-7.34-1-7.34-1l-.28-6.49-.56-13.14a27.28,27.28,0,0,1,3-.28l1.08,0a27.79,27.79,0,0,1,23.41,12.79C119.22,177.35,119.59,178,119.93,178.61Z" fill="#68e1fd"/><path d="M98.21,185.53A23.77,23.77,0,0,1,92,184.37a.52.52,0,0,1-.34-.46l-.83-19.63a.49.49,0,0,1,.42-.51,25.91,25.91,0,0,1,3.08-.29l1.1,0a28.25,28.25,0,0,1,23.83,13c.43.68.79,1.3,1.11,1.9a.51.51,0,0,1,0,.52.55.55,0,0,1-.47.22c-1.52-.14-3,1.22-4.44,2.55s-2.86,2.62-4.46,2.67a62.42,62.42,0,0,0-11.38,1.08A6.85,6.85,0,0,1,98.21,185.53Zm-5.56-2c1.08.33,4.63,1.34,6.75.91a64.24,64.24,0,0,1,11.54-1.1c1.24,0,2.49-1.19,3.82-2.41s2.76-2.53,4.34-2.78c-.21-.36-.43-.73-.68-1.13a27.23,27.23,0,0,0-24-12.53c-.85,0-1.7.1-2.53.21Z" fill="#231f20"/><path d="M123.24,191.77a27.72,27.72,0,0,1-9.37,20.81,26.62,26.62,0,0,1-3.65,2.75l-16-29-2.35-4.24h0l1.22-.26c.85-.18,17.82-5.41,25.8-5.13.38.6.75,1.22,1.09,1.86A27.68,27.68,0,0,1,123.24,191.77Z" fill="#fff"/><path d="M110.22,215.83l-.12,0a.47.47,0,0,1-.31-.24L91.38,182.39a.54.54,0,0,1-.06-.25.5.5,0,0,1,.5-.5l1.12-.25,1.11-.3c11.82-3.37,20.16-5,24.81-4.84a.48.48,0,0,1,.4.23c.43.67.79,1.29,1.11,1.89A28.31,28.31,0,0,1,114.21,213a27.2,27.2,0,0,1-3.72,2.8A.5.5,0,0,1,110.22,215.83ZM92.58,182.49l17.82,32.13a27.67,27.67,0,0,0,3.14-2.41,27.31,27.31,0,0,0,5.95-33.36c-.27-.52-.58-1-.93-1.61h-.35c-4.65,0-12.68,1.62-23.89,4.82-.64.18-1,.3-1.17.32Z" fill="#231f20"/><path d="M92,181.06h0c0,.08-.08.45-.21,1.07h0c-.19,1-.5,2.59-.83,4.63C89.68,194.65,87.82,209,89.63,219c-.68-.15-1.33-.32-2-.5a27.81,27.81,0,0,1-19.42-20.93,25,25,0,0,1,8.35-8.5,97,97,0,0,1,10.79-6.14A25.49,25.49,0,0,1,92,181.06Z" fill="#fff"/><path d="M89.63,219.48l-.11,0c-.67-.14-1.33-.31-2-.5a28.55,28.55,0,0,1-18.32-16.57,28,28,0,0,1-1.45-4.74.43.43,0,0,1,.06-.35,25.65,25.65,0,0,1,8.51-8.67,97,97,0,0,1,10.84-6.17A25,25,0,0,1,92,180.57a.49.49,0,0,1,.58.49h0c0,.17-.09.54-.22,1.16a.14.14,0,0,1,0,.07c-.18,1-.48,2.56-.81,4.55-1.28,7.72-3.16,22.13-1.36,32a.49.49,0,0,1-.15.44A.46.46,0,0,1,89.63,219.48ZM68.75,197.63a27.27,27.27,0,0,0,19,20.37c.41.12.82.22,1.23.32-1.61-10,.22-24,1.48-31.63.34-2.05.65-3.65.84-4.64a.24.24,0,0,1,0-.08,1.42,1.42,0,0,1,0-.2,38.08,38.08,0,0,0-3.82,1.59,97.54,97.54,0,0,0-10.73,6.11A24.87,24.87,0,0,0,68.75,197.63Z" fill="#231f20"/><path d="M113.87,212.58a26.62,26.62,0,0,1-3.65,2.75,27.7,27.7,0,0,1-14.79,4.25,28.39,28.39,0,0,1-5.8-.6c-.68-.15-1.33-.32-2-.5a99.43,99.43,0,0,1-.35-17.07,72.84,72.84,0,0,1,2.83-14.94,51.15,51.15,0,0,1,1.91-5.4v0s.37.29,1,.83,1.79,1.53,3,2.71a65.88,65.88,0,0,1,11.68,14A61.43,61.43,0,0,1,113.87,212.58Z" fill="#68e1fd"/><path d="M95.43,220.08a27.84,27.84,0,0,1-5.91-.62c-.67-.14-1.33-.31-2-.5a.5.5,0,0,1-.36-.43,101.05,101.05,0,0,1-.35-17.16,73.6,73.6,0,0,1,2.85-15,55.4,55.4,0,0,1,1.9-5.4.82.82,0,0,1,.12-.2.52.52,0,0,1,.69-.07s.37.29,1,.84c.5.42,1.58,1.33,3.07,2.72a67.2,67.2,0,0,1,11.77,14.08,61.94,61.94,0,0,1,6.14,14.14.49.49,0,0,1-.14.51,27.2,27.2,0,0,1-3.72,2.8A28.28,28.28,0,0,1,95.43,220.08Zm-7.33-2c.55.15,1.09.28,1.63.4a27.85,27.85,0,0,0,5.7.59A27.2,27.2,0,0,0,110,214.9a28.48,28.48,0,0,0,3.35-2.48,61.64,61.64,0,0,0-6-13.62A65.68,65.68,0,0,0,95.75,185c-1.47-1.37-2.52-2.27-3-2.68l-.49-.41c-.4,1-1,2.62-1.64,4.76a72.08,72.08,0,0,0-2.81,14.83A98.83,98.83,0,0,0,88.1,218.09Z" fill="#231f20"/><path d="M94.35,164a127.6,127.6,0,0,1-1.66,13.46c-.37,2.17-.65,3.61-.65,3.61a37.93,37.93,0,0,0-3.43-2.19,51.14,51.14,0,0,0-14.14-5.37q.45-.53.93-1a27.83,27.83,0,0,1,15.92-8.21A27.28,27.28,0,0,1,94.35,164Z" fill="#fff"/><path d="M92,181.55a.5.5,0,0,1-.29-.09,37.65,37.65,0,0,0-3.39-2.17,50.41,50.41,0,0,0-14-5.32.49.49,0,0,1-.27-.81c.31-.36.63-.7,1-1a28.44,28.44,0,0,1,16.21-8.35,25.91,25.91,0,0,1,3.08-.29.51.51,0,0,1,.37.15.53.53,0,0,1,.15.37,125.48,125.48,0,0,1-1.67,13.52c-.37,2.18-.65,3.63-.65,3.63a.49.49,0,0,1-.31.37A.52.52,0,0,1,92,181.55Zm-16.63-8.36a51.06,51.06,0,0,1,13.45,5.23c1,.56,1.92,1.15,2.83,1.78.12-.63.3-1.62.51-2.85.61-3.64,1.38-8.76,1.62-12.84a23.88,23.88,0,0,0-2.42.25,27.4,27.4,0,0,0-15.64,8.06Z" fill="#231f20"/><circle cx="92.04" cy="182.14" r="4.75" fill="#fff"/><path d="M92,187.39a5.25,5.25,0,1,1,5.25-5.25A5.26,5.26,0,0,1,92,187.39Zm0-9.5a4.25,4.25,0,1,0,4.25,4.25A4.25,4.25,0,0,0,92,177.89Z" fill="#231f20"/><path d="M148.64,52.56S64,104.44,67.74,110.16,243.36,249.31,257.06,239.81c34.63-24,76.31-56.29,74.14-60.62S148.64,52.56,148.64,52.56Z" fill="#fff"/><path d="M255.11,240.79a10.7,10.7,0,0,1-2-.22c-16.48-3.26-71.3-42.24-102.51-65.18-42.63-31.34-81.45-62.19-83.24-65a1.36,1.36,0,0,1-.15-1.1c1.92-8.5,78-55.21,81.21-57.2a.5.5,0,0,1,.54,0c7.37,5,180.53,122.43,182.73,126.82,2.72,5.44-48.89,43.61-74.3,61.25A3.91,3.91,0,0,1,255.11,240.79ZM148.62,53.15c-27.36,16.79-79,49.95-80.48,56.4a.49.49,0,0,0,0,.34c1.71,2.64,41.21,34,83,64.69,31.14,22.9,85.82,61.79,102.12,65,1.67.34,2.85.27,3.51-.18,40.39-28,75.66-56.62,74-60C328.57,175.74,210.82,95.32,148.62,53.15Z" fill="#231f20"/><path d="M249.3,220.47a.52.52,0,0,1-.42-.23c-15.25-23.76-64.92-42.55-65.42-42.74a.53.53,0,0,1-.24-.18c-13.83-20.23-54.74-41.67-55.15-41.89a.34.34,0,0,1-.16-.13c-15.36-19-40.82-24.83-41.07-24.88a.5.5,0,1,1,.22-1c.25.06,26,6,41.56,25.16,2.19,1.15,41.6,22.1,55.34,42,3,1.16,50.75,19.69,65.76,43.08a.5.5,0,0,1-.15.69A.53.53,0,0,1,249.3,220.47Z" fill="#d1d3d4"/><path d="M306.66,184.53a.46.46,0,0,1-.33-.13c-.45-.4-45.07-40.44-63-48.77l-.11-.07c-.42-.34-42.68-34-55.48-41l-.11-.08c-.2-.19-20.31-19.41-32.62-25.7a.5.5,0,0,1-.22-.67.52.52,0,0,1,.68-.22c12.14,6.21,31.69,24.76,32.8,25.82,12.76,7,53.9,39.77,55.53,41.08,18.11,8.44,62.76,48.51,63.21,48.91a.51.51,0,0,1,0,.71A.51.51,0,0,1,306.66,184.53Z" fill="#d1d3d4"/><path d="M289,192.83a.5.5,0,0,1-.33-.12c-.43-.37-42.94-37.09-67.73-45a.42.42,0,0,1-.18-.11c-.29-.26-29.17-26.41-45.37-33.15a.57.57,0,0,1-.18-.12c-.21-.24-21.71-23.79-42.33-35.93a.51.51,0,0,1-.17-.69.5.5,0,0,1,.68-.17c20.13,11.85,41.06,34.48,42.48,36,15.95,6.7,43.76,31.67,45.48,33.22,25,8,67.55,44.74,68,45.11a.51.51,0,0,1,.05.71A.48.48,0,0,1,289,192.83Z" fill="#d1d3d4"/><path d="M270.23,208.34a.54.54,0,0,1-.36-.14c-.34-.34-34.41-34-59.66-40.64a.54.54,0,0,1-.26-.16,189.1,189.1,0,0,0-17-17.1c-9.31-8.27-23.37-19.07-37.49-23.52a.49.49,0,0,1-.25-.17c-.23-.29-23.37-29.8-42.38-33.83a.52.52,0,0,1-.39-.6.51.51,0,0,1,.6-.38c18.93,4,41,31.69,42.87,34.08,14.25,4.52,28.37,15.37,37.72,23.68a193.82,193.82,0,0,1,17,17.07c13.32,3.55,28.88,14.44,39.61,23,11.65,9.26,20.27,17.8,20.36,17.89a.51.51,0,0,1,0,.71A.54.54,0,0,1,270.23,208.34Z" fill="#d1d3d4"/><path d="M78.65,114.54a.52.52,0,0,1-.38-.17.49.49,0,0,1,0-.7c.39-.35,39.82-35.06,75.32-51.35a.5.5,0,1,1,.41.91C118.69,79.46,79.37,114.07,79,114.41A.48.48,0,0,1,78.65,114.54Z" fill="#d1d3d4"/><path d="M221.08,105.38S229.56,83.79,233.14,82c1.12-.56,3.05-.1,4.21,0,2.84.3,5.66.79,8.47,1.29,13.35,2.33,26.23,7.9,39.33,11.32,1.88.49,4.33,1.47,6.32,1.16,2.71-.43,5.61-3.52,7.95-5a96.48,96.48,0,0,1,9.41-5.16c5.13-2.44,3.85,4.21,2.25,6.74q-5.85,9.28-12.07,18.32c-2.29,3.33-4.4,5.66-8.66,5-3.45-.5-6.38-2.62-9.13-4.64-5-3.69-34.54-9-34.54-9l-4.48,9.16" fill="#fff"/><path d="M291.68,116.34a10.1,10.1,0,0,1-1.4-.11c-3.64-.52-6.68-2.76-9.36-4.73-4.56-3.36-30.53-8.2-34-8.83l-4.31,8.82a.5.5,0,1,1-.9-.44l4.48-9.16a.52.52,0,0,1,.54-.27c1.21.22,29.7,5.36,34.75,9.07,2.58,1.91,5.51,4.06,8.91,4.55,4.08.6,6-1.72,8.17-4.82,4.12-6,8.18-12.15,12.06-18.3,1-1.67,1.87-5.1.91-6.18-.54-.61-1.67-.25-2.52.15a95.52,95.52,0,0,0-9.36,5.14A25.79,25.79,0,0,0,297.34,93c-1.79,1.4-3.82,3-5.8,3.31a12.67,12.67,0,0,1-5.25-.8c-.44-.13-.87-.26-1.27-.36-5.2-1.36-10.45-3.09-15.53-4.75-7.73-2.54-15.73-5.17-23.75-6.57-2.74-.48-5.57-1-8.45-1.28l-.8-.11a6.27,6.27,0,0,0-3.12,0c-2.8,1.41-9.48,17.18-11.82,23.13a.5.5,0,0,1-.93-.36c.87-2.23,8.65-21.83,12.3-23.66a6.77,6.77,0,0,1,3.72-.13c.27,0,.53.08.76.1,2.9.31,5.75.81,8.51,1.29C254,84.22,262,86.86,269.8,89.41c5.06,1.66,10.3,3.38,15.47,4.73l1.3.37a12,12,0,0,0,4.82.77c1.72-.27,3.64-1.78,5.33-3.11.86-.67,1.67-1.31,2.44-1.79a94.32,94.32,0,0,1,9.46-5.19c2.1-1,3.17-.51,3.7.09,1.47,1.65.25,5.68-.82,7.37-3.88,6.16-7.95,12.33-12.08,18.34C297.41,113.91,295.41,116.34,291.68,116.34Z" fill="#231f20"/><path d="M155.56,101.87l-11.5,4.61-19.77-6,11.1-7.44-5.56-9.62s-25.76,3.29-33.76,11.4c-14,14.24-3.68,27.93,43.31,31.81,0,0,19.89,24.06,43,38.31,0,0,20.57-19.61,29.56-37.75l-19-23s10-32.86-6.08-46.38c-4.7-4-33.1,14.11-33.1,14.11l6.89,6.17,10.92-2.26,0,10.89S159.46,94.17,155.56,101.87Z" fill="#fff"/><path d="M182.36,165.45a.5.5,0,0,1-.26-.08c-21.91-13.51-41.16-36.11-43-38.25-28.47-2.38-45.32-8.48-48.72-17.65-1.7-4.56.14-9.74,5.31-15,8-8.15,33-11.41,34.05-11.55a.48.48,0,0,1,.49.25l5.56,9.62a.49.49,0,0,1-.15.66l-10.23,6.85L144,106l11.17-4.47c3.74-7.17,14.09-13.92,15.84-15l0-10-10.33,2.13a.49.49,0,0,1-.43-.11l-6.89-6.17a.52.52,0,0,1-.17-.42.55.55,0,0,1,.23-.38c2.94-1.87,28.84-18.13,33.69-14.07,6.7,5.63,9.9,15.54,9.25,28.66a86.51,86.51,0,0,1-2.93,18l18.87,22.81a.48.48,0,0,1,.06.54c-8.93,18-29.45,37.68-29.66,37.88A.52.52,0,0,1,182.36,165.45ZM129.57,84c-3,.42-25.84,3.8-33.14,11.22-4.88,4.94-6.63,9.76-5.09,13.93,3.22,8.68,20.3,14.72,48.09,17a.48.48,0,0,1,.34.18c.2.24,19.91,23.93,42.53,38,2.46-2.4,20.67-20.41,29-37L192.5,104.51a.48.48,0,0,1-.09-.46c.1-.33,9.71-32.71-5.93-45.85-3.19-2.69-20.64,6.65-31.95,13.79l6.21,5.56,10.67-2.21a.53.53,0,0,1,.42.1.5.5,0,0,1,.18.39l0,10.89a.51.51,0,0,1-.24.43c-.12.07-12,7.46-15.8,14.95a.47.47,0,0,1-.26.24l-11.5,4.6a.53.53,0,0,1-.33,0l-19.77-6a.5.5,0,0,1-.35-.4.51.51,0,0,1,.22-.49l10.71-7.18Zm26,17.9h0Z" fill="#231f20"/><path d="M128.45,80.19a30.11,30.11,0,0,1,2-5.46,10.25,10.25,0,0,1,6.7-6c1.49-.39,3.06-.43,4.54-.86A4.64,4.64,0,0,0,145.06,65c.41-1.48-.83-3.36-2.35-3.1a14.94,14.94,0,0,1,11.13.88,10.57,10.57,0,0,1,5.06,6.13c.4,1.35.1,2.37.13,3.68,0,1.64.67,3.28.86,4.93.28,2.41-.44,4-1.26,6.22a25.74,25.74,0,0,1-6.4,10.37c-3.83,3.49-10.35,5.57-14.83,2.24A24.09,24.09,0,0,1,128.46,83,6.43,6.43,0,0,1,128.45,80.19Z" fill="#fff"/><path d="M142.71,98.52a9.19,9.19,0,0,1-5.6-1.77A24.44,24.44,0,0,1,128,83.14a6.9,6.9,0,0,1,0-3h0a21.48,21.48,0,0,1,1.53-4.38l.5-1.18a10.75,10.75,0,0,1,7-6.27,21.42,21.42,0,0,1,2.21-.41,17.15,17.15,0,0,0,2.33-.45,4.12,4.12,0,0,0,3-2.54,2.21,2.21,0,0,0-.53-2,1.38,1.38,0,0,0-1.25-.5.52.52,0,0,1-.58-.39.51.51,0,0,1,.36-.59,15.45,15.45,0,0,1,11.5.92,11.16,11.16,0,0,1,5.3,6.43,7.2,7.2,0,0,1,.19,2.64c0,.37,0,.76,0,1.17a15,15,0,0,0,.44,2.71,18.92,18.92,0,0,1,.42,2.17,11.23,11.23,0,0,1-1,5.76l-.25.69c-1.7,4.66-3.84,8.11-6.53,10.57A15.39,15.39,0,0,1,142.71,98.52ZM128.94,80.29a6,6,0,0,0,0,2.61,23.5,23.5,0,0,0,8.76,13c4.21,3.13,10.46,1.19,14.2-2.21,2.57-2.34,4.61-5.67,6.26-10.17l.26-.7a10.44,10.44,0,0,0,1-5.3,18.71,18.71,0,0,0-.4-2.06,14.85,14.85,0,0,1-.47-2.91c0-.44,0-.85,0-1.25a6.23,6.23,0,0,0-.15-2.3,10.07,10.07,0,0,0-4.82-5.83,13.9,13.9,0,0,0-9-1.23l.24.24a3.19,3.19,0,0,1,.75,2.91,5.09,5.09,0,0,1-3.71,3.23,17.8,17.8,0,0,1-2.46.48c-.73.11-1.42.21-2.1.38a9.74,9.74,0,0,0-6.35,5.69c-.16.39-.34.79-.51,1.2a20.74,20.74,0,0,0-1.47,4.17Z" fill="#231f20"/><path d="M154.3,107.89,142.39,95.74s2.67-5.69-5.85-14.34a37,37,0,0,0,17.16-9.48S164.24,80.34,167,85.51s-1.92,9.32-1.92,9.32l5.59,6.08" fill="#fff"/><path d="M154.3,108.39a.51.51,0,0,1-.36-.15L142,96.09a.49.49,0,0,1-.1-.56s2.37-5.52-5.75-13.78a.5.5,0,0,1,.26-.84,36.87,36.87,0,0,0,16.9-9.35.52.52,0,0,1,.66,0c.44.35,10.65,8.54,13.42,13.74,2.42,4.56-.59,8.41-1.68,9.58l5.27,5.72a.5.5,0,0,1-.74.68l-5.59-6.08a.52.52,0,0,1-.13-.36.53.53,0,0,1,.17-.35c.18-.16,4.34-4,1.81-8.72-2.39-4.5-11-11.66-12.81-13.15a38,38,0,0,1-16.21,9.1c6.93,7.39,5.9,12.59,5.45,13.93l11.69,11.92a.5.5,0,0,1,0,.71A.49.49,0,0,1,154.3,108.39Z" fill="#231f20"/><path d="M169.8,100a10.68,10.68,0,0,1-7.27,1.43c-4.54-.57-5.93-2.85-5.93-2.85a12.4,12.4,0,0,0,8.46-3.73Z" fill="#231f20"/><path d="M164.15,102a12.45,12.45,0,0,1-1.68-.11c-4.72-.59-6.23-3-6.29-3.08a.47.47,0,0,1,0-.5.48.48,0,0,1,.43-.26c.05,0,5,0,8.09-3.56a.52.52,0,0,1,.37-.16.53.53,0,0,1,.37.16l4.74,5.15a.52.52,0,0,1,.13.38.54.54,0,0,1-.21.36A10.63,10.63,0,0,1,164.15,102Zm-6.49-3a9.19,9.19,0,0,0,4.93,1.94,10.93,10.93,0,0,0,6.43-1l-4-4.3A12.69,12.69,0,0,1,157.66,99Z" fill="#231f20"/><path d="M151.92,81.89s6.71,2.09,6.62,3.46S156,87.84,156,87.84" fill="#fff"/><path d="M156,88.34a.5.5,0,0,1-.21-1c.84-.38,2.2-1.28,2.24-2.06-.1-.56-3-1.95-6.27-3a.49.49,0,0,1-.33-.62.48.48,0,0,1,.62-.33c2.65.82,7.08,2.44,7,4s-2.55,2.78-2.83,2.9A.46.46,0,0,1,156,88.34Z" fill="#231f20"/><path d="M155.6,93.55a.52.52,0,0,1-.49-.37.5.5,0,0,1,.35-.61,9.84,9.84,0,0,0,6.93-8.26.48.48,0,0,1,.55-.44.5.5,0,0,1,.44.55c-.78,7.15-7.58,9.09-7.65,9.11Z" fill="#231f20"/><path d="M150.32,81.22l-7.69,5.58S146,91.54,150,88.35C152.43,86.44,152.05,83.67,150.32,81.22Z" fill="#231f20"/><path d="M147.14,90a4.73,4.73,0,0,1-.65,0,7.25,7.25,0,0,1-4.27-2.82.5.5,0,0,1,.12-.69L150,80.81a.54.54,0,0,1,.37-.08.5.5,0,0,1,.33.2c2.12,3,2,5.93-.41,7.81A5,5,0,0,1,147.14,90Zm-3.79-3.06a5.82,5.82,0,0,0,3.29,2,4,4,0,0,0,3.07-1c2.48-2,1.36-4.63.48-6Z" fill="#231f20"/><path d="M159.74,73.9l-7.69,5.58s3.35,4.74,7.39,1.55C161.86,79.12,161.48,76.36,159.74,73.9Z" fill="#231f20"/><path d="M156.56,82.63a4.58,4.58,0,0,1-.64,0,7.22,7.22,0,0,1-4.27-2.82.5.5,0,0,1,.11-.69l7.69-5.58a.52.52,0,0,1,.38-.09.48.48,0,0,1,.32.2c2.12,3,2,5.93-.4,7.81A5.08,5.08,0,0,1,156.56,82.63Zm-3.79-3a5.86,5.86,0,0,0,3.29,2,3.94,3.94,0,0,0,3.07-1c2.48-2,1.36-4.63.49-6Z" fill="#231f20"/><path d="M150.32,81.71a.5.5,0,0,1-.37-.83A4.87,4.87,0,0,1,152,79.73a.48.48,0,0,1,.62.33.5.5,0,0,1-.33.62,3.93,3.93,0,0,0-1.63.88A.49.49,0,0,1,150.32,81.71Z" fill="#231f20"/><line x1="143.45" y1="87.27" x2="139.98" y2="94.08" fill="#231f20"/><path d="M140,94.58a.5.5,0,0,1-.44-.73L143,87a.51.51,0,0,1,.67-.22.49.49,0,0,1,.22.67l-3.47,6.81A.49.49,0,0,1,140,94.58Z" fill="#231f20"/><path d="M148.69,97.51a5.89,5.89,0,0,1-6.55,2.82,7.11,7.11,0,0,1-4-2.7,4.05,4.05,0,0,1-.74-1.62,2.86,2.86,0,0,1,1.24-2.71,4.62,4.62,0,0,1,2.45-1,6.89,6.89,0,0,1,2.07.23" fill="#fff"/><path d="M143.54,101a6.17,6.17,0,0,1-1.53-.19,7.66,7.66,0,0,1-4.23-2.9A4.34,4.34,0,0,1,137,96.1a3.33,3.33,0,0,1,1.42-3.19,5.11,5.11,0,0,1,2.71-1.11,7.49,7.49,0,0,1,2.23.24.5.5,0,0,1,.38.6.49.49,0,0,1-.59.38,6.81,6.81,0,0,0-1.93-.22,4,4,0,0,0-2.17.89,2.39,2.39,0,0,0-1.07,2.24,3.56,3.56,0,0,0,.66,1.41,6.68,6.68,0,0,0,3.67,2.51,5.41,5.41,0,0,0,6-2.58.5.5,0,1,1,.87.48A6.46,6.46,0,0,1,143.54,101Z" fill="#231f20"/><path d="M207,131.09s10.85-30.51,11.84-31.25,27.81,10.41,27.81,10.41l-9.85,37S206.88,146.59,207,131.09Z" fill="#231f20"/><path d="M236.83,147.78h0a69.4,69.4,0,0,1-15.08-2.3c-10-2.83-15.27-7.81-15.2-14.4a.41.41,0,0,1,0-.16c3.27-9.21,11-30.73,12-31.47.81-.62,10.33,2.87,28.3,10.34a.5.5,0,0,1,.29.59l-9.84,37A.5.5,0,0,1,236.83,147.78Zm-29.3-16.61c0,13.82,25.44,15.44,28.93,15.6l9.62-36.23c-9.7-4-25-10.13-27-10.23C218.14,101.83,211.7,119.45,207.53,131.17Z" fill="#231f20"/><path d="M234.45,124.62s30.84-20.14,36.15-16.85,18.88,62.38,20.27,62.72C296.78,172,307,174,307.37,174c1.81-.25,10.34-1.18,7.81,2.94-2.08,3.38-5.92,3.08-9.36,3.89-4.55,1.09-5.53,1.43-10.11,2.39q-6.25,1.31-12.53,2.53a5.57,5.57,0,0,1-6-3L259.24,134.9l-13.19,9.77Z" fill="#fff"/><path d="M282.13,186.31a6.09,6.09,0,0,1-5.42-3.33L259,135.69l-12.65,9.38a.52.52,0,0,1-.4.09.51.51,0,0,1-.33-.24l-11.6-20a.49.49,0,0,1,.16-.67c.07,0,7.82-5.1,16.11-9.68,17-9.38,19.69-7.73,20.57-7.18,3.33,2.07,8.95,22,15.4,45.87,2.19,8.11,4.26,15.78,4.87,16.83,5.79,1.44,15.55,3.39,16.23,3.42,1.62-.23,7.21-.84,8.5,1.14a2.3,2.3,0,0,1-.26,2.57c-1.72,2.79-4.55,3.24-7.29,3.67-.79.13-1.6.26-2.38.44-1.55.37-2.69.66-3.7.91-2,.49-3.4.84-6.42,1.48-4.23.88-8.45,1.74-12.53,2.53A5.6,5.6,0,0,1,282.13,186.31ZM259.24,134.4a.34.34,0,0,1,.14,0,.49.49,0,0,1,.33.3l17.91,47.86a5.09,5.09,0,0,0,5.47,2.64c4.07-.79,8.28-1.64,12.52-2.53,3-.63,4.42-1,6.38-1.47,1-.26,2.15-.54,3.71-.91.81-.19,1.65-.33,2.46-.45,2.63-.42,5.11-.82,6.59-3.22.41-.65.5-1.16.28-1.5-.72-1.1-4.44-1.13-7.59-.68-.56,0-11.29-2.13-16.7-3.48-.65-.16-1.12-1.48-5.45-17.51-4.37-16.18-11.69-43.25-15-45.28-4.08-2.51-26.41,10.88-35.21,16.59l11.08,19.15,12.74-9.44A.53.53,0,0,1,259.24,134.4Z" fill="#231f20"/><path d="M182.36,165s18.75,15.88,35.57,12.81,37.73-31.28,37.73-31.28l-18.54-26.29L207,131.09S184.48,157.57,182.36,165Z" fill="#231f20"/><path d="M213.51,178.65c-15.55,0-31.3-13.18-31.47-13.32a.49.49,0,0,1-.15-.52c2.12-7.4,23.84-33,24.77-34.05a.48.48,0,0,1,.2-.14L237,119.73a.48.48,0,0,1,.57.18l18.55,26.29a.5.5,0,0,1,0,.58,153.68,153.68,0,0,1-12.6,14.54c-9.81,9.94-18.37,15.64-25.45,16.93A25.1,25.1,0,0,1,213.51,178.65Zm-30.57-13.88c2.29,1.86,19.55,15.29,34.9,12.5,15.53-2.83,34.94-27.82,37.2-30.8l-18.11-25.68-29.6,10.72C205.83,133.28,185.44,157.42,182.94,164.77Z" fill="#231f20"/><path d="M204.48,139.6a.48.48,0,0,1-.42-.23.5.5,0,0,1,.15-.69c14.12-9,32.49-18.83,32.67-18.92a.51.51,0,0,1,.68.2.5.5,0,0,1-.21.67c-.18.1-18.52,9.93-32.61,18.89A.42.42,0,0,1,204.48,139.6Z" fill="#fff"/><path d="M144.06,107l-.15,0L130,102.75l-9.42-2.84c-4.16-1.27-4.16-1.27-4.09-1.72a.53.53,0,0,1,.74-.37c.62.22,6.4,2,13.06,4L144.2,106a.5.5,0,0,1,.34.62A.51.51,0,0,1,144.06,107Z" fill="#231f20"/><path d="M171.51,76.33a.5.5,0,0,1-.5-.5A13.68,13.68,0,0,1,173.19,68a.5.5,0,1,1,.8.6,12.9,12.9,0,0,0-2,7.23.49.49,0,0,1-.49.5Z" fill="#231f20"/><path d="M257.24,232.16a.48.48,0,0,1-.37-.17.5.5,0,0,1,0-.71c.37-.33,37.21-33.31,69-50.57a.5.5,0,0,1,.68.2.49.49,0,0,1-.21.67C294.69,198.8,257.94,231.7,257.57,232A.51.51,0,0,1,257.24,232.16Z" fill="#d1d3d4"/><path d="M70.89,219.2a18.45,18.45,0,0,0,9.32-2.43,2.81,2.81,0,0,1,1.26-.5,3.26,3.26,0,0,1,1.43.44,7.93,7.93,0,0,0,8.39-1.38,27,27,0,0,0,1.82,7.11,9,9,0,0,0,5.15,5c2.55.8,5.33,0,7.7-1.21a11.72,11.72,0,0,0,11.84,7.86" fill="#68e1fd"/><path d="M116.9,234.6a12.35,12.35,0,0,1-11.22-7.7c-2.79,1.33-5.4,1.67-7.57,1a9.48,9.48,0,0,1-5.45-5.24,23.92,23.92,0,0,1-1.72-6.39,8.5,8.5,0,0,1-8.25.91l-.19-.1a2.67,2.67,0,0,0-1-.3,2.39,2.39,0,0,0-1,.4,18.87,18.87,0,0,1-9.64,2.53.5.5,0,0,1-.49-.51.47.47,0,0,1,.51-.49A17.9,17.9,0,0,0,80,216.34a3.36,3.36,0,0,1,1.49-.57,3.06,3.06,0,0,1,1.46.4l.19.08A7.42,7.42,0,0,0,91,215a.5.5,0,0,1,.84.29,25.78,25.78,0,0,0,1.78,7,8.44,8.44,0,0,0,4.84,4.7c2.59.82,5.41-.18,7.32-1.17a.54.54,0,0,1,.43,0,.51.51,0,0,1,.28.31,11.22,11.22,0,0,0,11.32,7.51.5.5,0,0,1,.09,1C117.53,234.59,117.21,234.6,116.9,234.6Z" fill="#fff"/><path d="M96.78,258.69a11.38,11.38,0,0,1-1.07,4.79H45.14a11.38,11.38,0,0,1-1.07-4.79c0-9.36,11.8-16.94,26.35-16.94S96.78,249.33,96.78,258.69Z" fill="#231f20"/><path d="M95.71,264H45.14a.49.49,0,0,1-.45-.29,11.89,11.89,0,0,1-1.11-5c0-9.61,12-17.44,26.84-17.44s26.86,7.83,26.86,17.44a11.89,11.89,0,0,1-1.11,5A.51.51,0,0,1,95.71,264Zm-50.24-1H95.39a10.9,10.9,0,0,0,.9-4.29c0-9.07-11.61-16.44-25.87-16.44s-25.85,7.37-25.85,16.44A10.72,10.72,0,0,0,45.47,263Z" fill="#231f20"/><path d="M346.91,247a9.89,9.89,0,0,1-9.33-7.48,17.46,17.46,0,0,1-19.22-7.23.49.49,0,0,1,.17-.68.48.48,0,0,1,.68.16,16.42,16.42,0,0,0,18.59,6.63.48.48,0,0,1,.42,0,.5.5,0,0,1,.24.36,8.79,8.79,0,0,0,9.05,7.18.49.49,0,0,1,.54.45.49.49,0,0,1-.45.54Q347.26,247,346.91,247Z" fill="#fff"/><path d="M68.27,133.23H68.2a23,23,0,0,1-7.81-2.15,8.37,8.37,0,0,1-4.48-6.1,19.06,19.06,0,0,1-19.38-7.68.51.51,0,0,1,.14-.7.5.5,0,0,1,.69.14,18,18,0,0,0,18.9,7.13.46.46,0,0,1,.43.09.49.49,0,0,1,.19.39c0,2.22,1.57,4.52,4,5.86a22.1,22.1,0,0,0,7.48,2,.51.51,0,0,1,.42.57A.51.51,0,0,1,68.27,133.23Z" fill="#fff"/><path d="M177.91,246a19.23,19.23,0,0,1-6.5-1.06,14,14,0,0,1-8.58-8.2,29.91,29.91,0,0,1-9.21.28c-3.65-.64-6.65-2.62-8-5.32a.5.5,0,0,1,.22-.68.51.51,0,0,1,.67.22c1.23,2.42,4,4.21,7.31,4.79a30.39,30.39,0,0,0,9.32-.34.51.51,0,0,1,.55.35,12.9,12.9,0,0,0,8.09,8,21.26,21.26,0,0,0,11.79.35.49.49,0,0,1,.6.37.5.5,0,0,1-.38.6A26.23,26.23,0,0,1,177.91,246Z" fill="#fff"/><path d="M233,58c-2,0-3.74-1.14-5.49-2.25a16.31,16.31,0,0,0-3.81-2,13.41,13.41,0,0,0-4.5-.33,16.67,16.67,0,0,1-4.45-.27c-3.15-.78-5.47-3.24-7.7-5.62-2.44-2.59-4.74-5-8-5.33a13.47,13.47,0,0,0-4.3.56c-.78.19-1.57.38-2.38.5a14.31,14.31,0,0,1-14.77-8.14.5.5,0,0,1,.92-.41,13.27,13.27,0,0,0,13.71,7.56c.76-.11,1.53-.3,2.28-.48a14.4,14.4,0,0,1,4.63-.58c3.61.32,6.15,3,8.6,5.64,2.14,2.27,4.35,4.62,7.22,5.33a15.5,15.5,0,0,0,4.17.24,14.59,14.59,0,0,1,4.83.37,17.11,17.11,0,0,1,4.05,2.09c2.07,1.32,4,2.56,6.11,1.92a.49.49,0,0,1,.62.34.5.5,0,0,1-.33.62A4.89,4.89,0,0,1,233,58Z" fill="#fff"/><path d="M336.05,83.88A10.13,10.13,0,0,1,329.9,82a6.54,6.54,0,0,1-2.63-5.48c-3.89.51-8,.84-11.76-.32s-7.81-4.4-8.18-9l0-.22a2.15,2.15,0,0,0-.43-1.47,2,2,0,0,0-1.54-.13,28.1,28.1,0,0,1-13.44-.85,16.08,16.08,0,0,1-9.88-9,.49.49,0,0,1,.29-.64.5.5,0,0,1,.64.28,15.1,15.1,0,0,0,9.28,8.41,27.16,27.16,0,0,0,13,.8,2.86,2.86,0,0,1,2.31.34,2.94,2.94,0,0,1,.8,2.18v.21c.34,4.09,4.11,7.07,7.48,8.1,3.81,1.17,7.85.77,12,.21a.5.5,0,0,1,.43.15.53.53,0,0,1,.13.45,5.33,5.33,0,0,0,2.15,5.15,9.2,9.2,0,0,0,5.78,1.65.5.5,0,0,1,0,1Z" fill="#fff"/><path d="M53.64,184.77a6.47,6.47,0,0,1-5-2.71,13.54,13.54,0,0,1-2.16-6.32c-.09-.68-.18-1.22-.54-1.5a2.26,2.26,0,0,0-1.42-.25h-.27a12.45,12.45,0,0,1-9.63-4.71.5.5,0,1,1,.79-.61A11.42,11.42,0,0,0,44.29,173h.26a3.05,3.05,0,0,1,2.06.47,3.08,3.08,0,0,1,.9,2.15,12.77,12.77,0,0,0,2,5.86,5.12,5.12,0,0,0,5.11,2.18.5.5,0,0,1,.25,1A5,5,0,0,1,53.64,184.77Z" fill="#fff"/><path d="M92.49,60.6h-.06a19.09,19.09,0,0,1-8.9-3.21,10.57,10.57,0,0,1-4.47-7.64,27.2,27.2,0,0,1-26.56-9.3.51.51,0,1,1,.79-.63,26.13,26.13,0,0,0,26.14,8.81.51.51,0,0,1,.44.1.46.46,0,0,1,.18.4,9.36,9.36,0,0,0,4.07,7.46,18.24,18.24,0,0,0,8.44,3,.5.5,0,0,1-.07,1Z" fill="#fff"/><path d="M335.84,142.35a11.33,11.33,0,0,1-7.75-3.27,11.13,11.13,0,0,1-3.64-8.58v-.12a2.07,2.07,0,0,0-.06-.88c-.3-.74-1.55-.7-2.6-.59A16.71,16.71,0,0,1,307.37,123a.5.5,0,1,1,.77-.63,15.74,15.74,0,0,0,13.54,5.57c.9-.1,3-.33,3.64,1.2a3,3,0,0,1,.13,1.32v.12a10.74,10.74,0,0,0,11.29,10.74.5.5,0,0,1,.55.45.52.52,0,0,1-.45.55C336.5,142.33,336.17,142.35,335.84,142.35Z" fill="#fff"/></g></svg>