<svg xmlns="http://www.w3.org/2000/svg" viewBox="0 0 400 300"><g id="_261_bran_stark_flatline" data-name="#261_bran_stark_flatline"><rect x="43.78" y="46" width="312.68" height="207.99" fill="#fff"/><path d="M356.46,46V254H43.78V46H356.46m0-1H43.78a1,1,0,0,0-1,1V254a1,1,0,0,0,1,1H356.46a1,1,0,0,0,1-1V46a1,1,0,0,0-1-1Z" fill="#231f20"/><path d="M100.7,237.53H94.11l-50.57-.11a.5.5,0,0,1-.5-.5.5.5,0,0,1,.5-.5h0l50.57.11c16.73,0,34,.08,50.92-2,6.94-.85,14-2.1,20.82-3.3,15.41-2.71,31.34-5.51,47.15-4.12,4.15.37,8.34,1,12.39,1.67,7.12,1.12,14.49,2.28,21.76,1.84,6.1-.36,12.18-1.85,18.07-3.3l3.62-.88c7.5-1.78,15.26-3.26,22.77-4.7,21.39-4.09,43.52-8.32,62.15-20a.5.5,0,0,1,.69.15.51.51,0,0,1-.16.69c-18.79,11.75-41,16-62.5,20.1-7.49,1.44-15.24,2.92-22.72,4.7-1.21.28-2.41.58-3.62.87-5.92,1.46-12,3-18.24,3.33-7.38.44-14.8-.73-22-1.86-4-.63-8.2-1.29-12.32-1.65-15.68-1.38-31.54,1.41-46.89,4.11-6.83,1.2-13.9,2.44-20.87,3.31C130.42,237.32,115.39,237.53,100.7,237.53Z" fill="#d1d3d4"/><path d="M185.72,142.05s5.76.34,15.3.29,14.72-.29,14.72-.29a14.67,14.67,0,0,1-10.66,12.77C194.82,158,187.61,147.68,185.72,142.05Z" fill="#231f20"/><path d="M179.79,129a4.47,4.47,0,0,0,2.45-2,7.25,7.25,0,0,1-1.44,6.47.89.89,0,0,0-.28.53c0,.33.37.52.69.62a9.54,9.54,0,0,0,9.29-16.16,5,5,0,0,0-1.84-1.14c-2.42-.74-6.55.24-7.37,2.9C180.34,123.3,182.09,126,179.79,129Z" fill="#fff"/><path d="M183.87,135.54a9.32,9.32,0,0,1-2.82-.43c-.9-.28-1-.81-1-1.1a1.3,1.3,0,0,1,.4-.87,6.69,6.69,0,0,0,1.53-4.89,4.89,4.89,0,0,1-2,1.27.52.52,0,0,1-.57-.81c1.26-1.64,1.19-3.22,1.12-4.89a10.57,10.57,0,0,1,.29-3.75c.94-3,5.44-4,8-3.24a5.39,5.39,0,0,1,2,1.25,10,10,0,0,1-7,17.46ZM181.05,134s.12.06.31.12a9,9,0,0,0,8.8-15.29,4.32,4.32,0,0,0-1.65-1c-2.14-.66-6,.22-6.73,2.55a9.79,9.79,0,0,0-.25,3.4,9.65,9.65,0,0,1-.35,3.78,3.94,3.94,0,0,0,.61-.8.51.51,0,0,1,.94.11,7.71,7.71,0,0,1-1.53,6.94,1.67,1.67,0,0,0-.16.21Z" fill="#231f20"/><path d="M220,129a4.47,4.47,0,0,1-2.45-2,7.25,7.25,0,0,0,1.43,6.47.8.8,0,0,1,.28.53c0,.33-.37.52-.68.62a9.55,9.55,0,0,1-9.3-16.16,5.12,5.12,0,0,1,1.84-1.14c2.42-.74,6.56.24,7.38,2.9C219.49,123.3,217.74,126,220,129Z" fill="#fff"/><path d="M216,135.54a10,10,0,0,1-7-17.46,5.36,5.36,0,0,1,2-1.25c2.59-.79,7.09.22,8,3.24a10.58,10.58,0,0,1,.3,3.75c-.08,1.67-.15,3.25,1.12,4.89a.54.54,0,0,1,0,.62.53.53,0,0,1-.59.19,4.85,4.85,0,0,1-2-1.27,6.65,6.65,0,0,0,1.53,4.88,1.4,1.4,0,0,1,.4.88c0,.29-.14.82-1,1.1A9.37,9.37,0,0,1,216,135.54Zm-3.08-17.93a5.47,5.47,0,0,0-1.57.21,4.29,4.29,0,0,0-1.64,1,9,9,0,0,0,8.8,15.29.83.83,0,0,0,.33-.17s-.11-.09-.17-.15a7.77,7.77,0,0,1-1.54-7,.51.51,0,0,1,.44-.37.49.49,0,0,1,.51.26,4.29,4.29,0,0,0,.6.8,9.64,9.64,0,0,1-.34-3.78,9.79,9.79,0,0,0-.25-3.4C217.48,118.54,215,117.61,212.88,117.61Z" fill="#231f20"/><path d="M218.65,72.18c-7.2-6.8-17.87-5.2-21.53-3,0,0-5.93-4.4-13.49,3.6-2.69,2.84-4.43,6.58-5.81,10.2-4.26,11.2-6.44,22.37,2.36,32,2.82,3.07,5.69,6.19,9.25,8.35a25,25,0,0,0,16.18,3.12,33.44,33.44,0,0,0,15.3-6.5c2.92-2.17,4.48-7.7,5.63-11.17a39.47,39.47,0,0,0,2-12.89C228.42,87.05,225.13,78.3,218.65,72.18Z" fill="#fff"/><path d="M202,127.2a24.68,24.68,0,0,1-12.8-3.44c-3.66-2.21-6.56-5.38-9.37-8.45-9.21-10.06-6.62-21.57-2.46-32.52,1.22-3.21,3-7.29,5.91-10.37,6.84-7.22,12.54-4.62,13.88-3.84,4.12-2.26,14.64-3.6,21.87,3.22h0c6.27,5.92,9.93,14.69,10.06,24.08a39.64,39.64,0,0,1-2,13.05l-.33,1c-1.14,3.51-2.7,8.33-5.48,10.4A33.93,33.93,0,0,1,205.68,127,27.31,27.31,0,0,1,202,127.2Zm-9.1-58.73c-2.27,0-5.37,1-8.87,4.66-2.79,3-4.51,6.91-5.69,10-4.05,10.64-6.58,21.81,2.25,31.46,2.76,3,5.61,6.12,9.14,8.26a24.32,24.32,0,0,0,15.84,3.05,32.84,32.84,0,0,0,15.06-6.4c2.52-1.87,4-6.51,5.12-9.89l.33-1a38.86,38.86,0,0,0,2-12.71c-.13-9.1-3.67-17.61-9.74-23.34h0c-7.14-6.74-17.7-4.85-20.9-2.93a.51.51,0,0,1-.58,0A7,7,0,0,0,192.87,68.47Z" fill="#231f20"/><path d="M186.41,159.71S190,169,200.4,169s14.65-9.27,14.65-9.27l-.78-36.92-26.47.49Z" fill="#fff"/><path d="M200.4,169.5c-10.65,0-14.43-9.51-14.47-9.61a.45.45,0,0,1,0-.2l1.4-36.43a.51.51,0,0,1,.5-.5l26.48-.48h0a.52.52,0,0,1,.52.5l.77,36.92a.44.44,0,0,1-.05.22C215.47,160,211,169.5,200.4,169.5Zm-13.47-9.88a14.61,14.61,0,0,0,13.47,8.85c9.36,0,13.63-7.89,14.13-8.88l-.76-36.27-25.47.46Z" fill="#231f20"/><path d="M200.31,144c9.09,1.88,14.27-3,14.27-3l-1-20.37c-4.46.75-9,15-13.78,14.5-4-.42-8.59,1.67-12.27-.17C187,134.69,187.7,141.42,200.31,144Z" fill="#231f20"/><path d="M204.47,145a20.79,20.79,0,0,1-4.26-.46h0c-11.46-2.37-13.07-8-13.21-8.66s-.08-1,.19-1.23a.67.67,0,0,1,.63,0c2.1,1,4.53.73,7.1.39a21.45,21.45,0,0,1,5-.27c2.26.26,4.66-3.56,7-7.24,2.24-3.53,4.35-6.87,6.65-7.26a.51.51,0,0,1,.4.1.47.47,0,0,1,.18.37l1,20.37a.53.53,0,0,1-.16.39A15.85,15.85,0,0,1,204.47,145Zm-4.06-1.43c7.83,1.62,12.71-1.93,13.66-2.7l-.91-19.49c-1.72.79-3.6,3.76-5.43,6.64-2.61,4.12-5.06,8-7.94,7.69a21.32,21.32,0,0,0-4.74.28c-2.38.31-4.84.63-7.06-.22.43,1.55,3,5.85,12.42,7.8Z" fill="#231f20"/><path d="M182.2,112.32c-.25-2.77-1.6-7.14-5-7.3-1.17-.06-3.7.21-4.39,1.37a3,3,0,0,0-.31,1.39c-.27,6.58,4.1,16.82,12.38,15.08" fill="#fff"/><path d="M183.07,123.57a8.62,8.62,0,0,1-5.64-2.14c-3.8-3.21-5.61-9.31-5.43-13.68a3.41,3.41,0,0,1,.38-1.63c.87-1.47,3.8-1.67,4.86-1.62,3.8.18,5.22,5,5.47,7.78a.52.52,0,1,1-1,.09c-.21-2.47-1.4-6.69-4.49-6.84-1.34,0-3.44.29-3.93,1.12a2.66,2.66,0,0,0-.23,1.15c-.17,4.11,1.51,9.84,5.06,12.84a7.53,7.53,0,0,0,6.7,1.71.53.53,0,0,1,.61.4.51.51,0,0,1-.4.61A9.19,9.19,0,0,1,183.07,123.57Z" fill="#231f20"/><path d="M217.71,112.32c.25-2.77,1.6-7.14,5-7.3,1.17-.06,3.7.21,4.39,1.37a3,3,0,0,1,.31,1.39c.27,6.58-4.1,16.82-12.38,15.08" fill="#fff"/><path d="M216.84,123.57a9.19,9.19,0,0,1-1.93-.21.52.52,0,1,1,.22-1,7.51,7.51,0,0,0,6.69-1.71c3.55-3,5.23-8.73,5.06-12.84a2.52,2.52,0,0,0-.23-1.15c-.49-.83-2.59-1.17-3.93-1.12-3.09.15-4.28,4.37-4.49,6.84a.52.52,0,0,1-1-.09c.25-2.8,1.67-7.6,5.47-7.78,1.05,0,4,.15,4.86,1.62a3.41,3.41,0,0,1,.38,1.63c.18,4.37-1.62,10.47-5.43,13.68A8.62,8.62,0,0,1,216.84,123.57Z" fill="#231f20"/><path d="M216.58,97c1.49,4.06,4.25,6.88,4.54,11.58.2,3.2-5.1,33-21.55,33s-19.3-28.89-19.3-31.71a44,44,0,0,1,1.07-10.3c0,3.3,1,3.65,1.88,6.79l2-11.92,2.26,8.87-.06-7.08a14.65,14.65,0,0,0,6.88,8.79,19.31,19.31,0,0,1-2.63-9,29.35,29.35,0,0,0,5.47,10.32,21.36,21.36,0,0,1-1.82-12.11,12.18,12.18,0,0,0,6.24,8.06,25.43,25.43,0,0,0,9.55,2.51,14.31,14.31,0,0,1-6.79-10.65c2.71,4.26,5.83,8.85,10.41,10a16.82,16.82,0,0,1-4.3-9.53c1.71,3.35,3.71,6.27,7,7.41A25.81,25.81,0,0,1,216.58,97Z" fill="#fff"/><path d="M199.57,142.09c-7,0-12.68-5.24-16.3-15.14a63.18,63.18,0,0,1-3.52-17.09,42.44,42.44,0,0,1,1-9.75l.11-.64a.52.52,0,0,1,1,.09,8.21,8.21,0,0,0,.87,4l.31.72,1.63-9.92a.51.51,0,0,1,.49-.43.5.5,0,0,1,.52.39l1.21,4.75,0-2.83a.51.51,0,0,1,.44-.52.52.52,0,0,1,.57.37,14.56,14.56,0,0,0,5,7.44A19.82,19.82,0,0,1,191.12,96a.52.52,0,0,1,1-.17,29.13,29.13,0,0,0,3.17,7.08,22.06,22.06,0,0,1-.53-8.79.51.51,0,0,1,.49-.45.5.5,0,0,1,.52.42,11.66,11.66,0,0,0,6,7.7A21.64,21.64,0,0,0,209,104a15.18,15.18,0,0,1-5.26-9.82.52.52,0,0,1,.33-.55.51.51,0,0,1,.61.21c2.48,3.9,5,7.52,8.38,9.15a17.53,17.53,0,0,1-3.21-8.35.51.51,0,0,1,.36-.55.52.52,0,0,1,.61.26c1.4,2.74,3.07,5.42,5.77,6.76a33.32,33.32,0,0,1-.55-4.06.52.52,0,0,1,.4-.55.53.53,0,0,1,.6.33,30.91,30.91,0,0,0,1.88,4,18.17,18.17,0,0,1,2.69,7.75c.13,2.13-2.62,19.36-11,28.26C207.39,140.32,203.65,142.09,199.57,142.09ZM181.3,102.76a37.14,37.14,0,0,0-.52,7.1,62,62,0,0,0,3.46,16.74c3.51,9.59,8.67,14.46,15.33,14.46,3.79,0,7.27-1.66,10.34-4.94,8.14-8.67,10.83-25.41,10.7-27.48-.19-2.9-1.34-5-2.57-7.33l-.54-1a9,9,0,0,0,.38,1.55.52.52,0,0,1-.65.67,11.45,11.45,0,0,1-5.67-4.81,15.76,15.76,0,0,0,3.51,6.09.52.52,0,0,1-.51.86c-3.85-1-6.63-4.13-9.18-7.88a13.35,13.35,0,0,0,6,7.58.51.51,0,0,1,.23.61.5.5,0,0,1-.54.35,25.82,25.82,0,0,1-9.75-2.57,13.22,13.22,0,0,1-5.68-5.94,20.62,20.62,0,0,0,2,9.32.52.52,0,0,1-.87.55,29.08,29.08,0,0,1-3.71-5.78,17.91,17.91,0,0,0,1.72,3.87.52.52,0,0,1-.07.62.53.53,0,0,1-.62.09,14.86,14.86,0,0,1-6.1-6.46l0,4.29a.51.51,0,0,1-1,.14L185.29,97l-1.56,9.48a.53.53,0,0,1-.48.44.55.55,0,0,1-.53-.38,19.38,19.38,0,0,0-.94-2.54C181.6,103.54,181.44,103.17,181.3,102.76Z" fill="#231f20"/><path d="M201,124.55a26,26,0,0,1-3.09-.17,1.33,1.33,0,0,1-1-.67c-1.61-2.68,2.95-14.75,3.47-16.12a.51.51,0,1,1,1,.37c-1.91,5-4.57,13.52-3.55,15.22a.29.29,0,0,0,.23.17,27.78,27.78,0,0,0,6.12,0,.51.51,0,0,1,.57.45.52.52,0,0,1-.44.58A30.61,30.61,0,0,1,201,124.55Z" fill="#231f20"/><path d="M218.55,97.16s3.84,7.86.3,21.69c0,0,6.58-6.5,6.82-19.29" fill="#fff"/><path d="M218.85,119.37a.59.59,0,0,1-.26-.07.52.52,0,0,1-.24-.58c3.45-13.45-.23-21.25-.27-21.33a.52.52,0,0,1,.93-.45c.15.31,3.49,7.35.85,19.84a30.51,30.51,0,0,0,5.29-17.23.49.49,0,0,1,.53-.5.51.51,0,0,1,.5.52c-.24,12.86-6.7,19.38-7,19.65A.51.51,0,0,1,218.85,119.37Z" fill="#231f20"/><path d="M176.3,99.56c.43.13-2.49,8.22,4,17.44,0,0-1.5-8.51,2.35-21.44" fill="#fff"/><path d="M180.27,117.51a.5.5,0,0,1-.42-.22,22.58,22.58,0,0,1-4.1-16.86c0-.24.07-.52.08-.66a.49.49,0,0,1,0-.36.51.51,0,0,1,.64-.34c.5.15.44.6.33,1.5a21.38,21.38,0,0,0,2.75,14.32,56.7,56.7,0,0,1,2.6-19.47.52.52,0,1,1,1,.29c-3.77,12.64-2.36,21.11-2.34,21.2a.52.52,0,0,1-.31.56A.51.51,0,0,1,180.27,117.51Zm-4.12-17.46Zm0,0Zm0,0Z" fill="#231f20"/><path d="M206.65,130.26l-.17,0c-8.26-2.83-14.12,0-14.18,0a.52.52,0,1,1-.45-.93c.25-.12,6.28-3,15,0a.51.51,0,0,1,.32.65A.5.5,0,0,1,206.65,130.26Z" fill="#231f20"/><path d="M135.07,172.59s-10.39,37.14-15.19,54.33-5.6,27-5.6,27h29.19s14-39.79,21.18-45.79Z" fill="#231f20"/><path d="M143.47,254.41H114.28a.45.45,0,0,1-.36-.16.43.43,0,0,1-.13-.37c0-.1.85-10.06,5.61-27.09,4.8-17.2,15.19-54.33,15.19-54.33a.49.49,0,0,1,.86-.19L165,207.81a.5.5,0,0,1-.07.7c-7,5.84-20.9,45.18-21,45.57A.5.5,0,0,1,143.47,254.41Zm-28.64-1h28.28c1.44-4,13.83-38.64,20.85-45.34l-28.67-34.44c-1.62,5.8-10.58,37.82-14.93,53.41C116.25,241.76,115.07,251.14,114.83,253.42Z" fill="#231f20"/><path d="M266.39,172.59s10.39,37.14,15.19,54.33,5.59,27,5.59,27H258s-14-39.79-21.19-45.79Z" fill="#231f20"/><path d="M287.17,254.41H258a.5.5,0,0,1-.47-.33c-.14-.39-14-39.73-21-45.57a.49.49,0,0,1-.06-.7L266,172.27a.53.53,0,0,1,.49-.17.5.5,0,0,1,.37.36s10.4,37.13,15.2,54.33c4.75,17,5.6,27,5.61,27.09a.5.5,0,0,1-.13.37A.47.47,0,0,1,287.17,254.41Zm-28.83-1h28.28c-.24-2.28-1.42-11.66-5.52-26.37-4.35-15.59-13.31-47.61-14.94-53.41l-28.67,34.44C244.52,214.78,256.91,249.37,258.34,253.42Z" fill="#231f20"/><path d="M185.72,142.05a22.35,22.35,0,0,0-5.47,2c-.69.43-.82,2.2-.7,4.3-15.45,2.19-35.35,8.09-46.79,18.92l15.5,33.24h5.59L158.73,254h84l4.88-53.51h5.59l15.5-33.24c-11.45-10.83-31.35-16.73-46.79-18.92.11-2.1,0-3.87-.71-4.3a22.19,22.19,0,0,0-5.46-2s-4,6.91-14.91,6.91S185.72,142.05,185.72,142.05Z" fill="#68e1fd"/><path d="M200.05,159.47c-9.68,0-18.84-10.92-19.23-11.39a.52.52,0,0,1,.8-.66c.09.11,9.23,11,18.43,11,8.7,0,18.87-9.61,19.72-10.67a.51.51,0,0,1,1,.25C220.69,149,209.23,159.47,200.05,159.47Z" fill="#231f20"/><path d="M200.73,254.43a.51.51,0,0,1-.52-.51V159a.77.77,0,0,1,0-.15c0-.06,1.75-6,.13-9.64a.51.51,0,1,1,.94-.42c1.69,3.84.16,9.53-.06,10.28v94.89A.51.51,0,0,1,200.73,254.43Z" fill="#231f20"/><path d="M200.73,169.56a.53.53,0,0,1-.37-.15l-5.77-5.78a.52.52,0,1,1,.73-.73l5.41,5.41,5.41-5.41a.52.52,0,1,1,.73.73l-5.78,5.78A.51.51,0,0,1,200.73,169.56Z" fill="#231f20"/><circle cx="194.84" cy="163.17" r="1.25" fill="#231f20"/><circle cx="206.61" cy="163.17" r="1.25" fill="#231f20"/><path d="M200.73,180a.51.51,0,0,1-.37-.15l-5.77-5.77a.52.52,0,1,1,.73-.73l5.41,5.41,5.41-5.41a.52.52,0,0,1,.73.73l-5.78,5.77A.49.49,0,0,1,200.73,180Z" fill="#231f20"/><circle cx="194.84" cy="173.65" r="1.25" fill="#231f20"/><circle cx="206.61" cy="173.65" r="1.25" fill="#231f20"/><path d="M200.73,190.52a.51.51,0,0,1-.37-.15l-5.77-5.77a.52.52,0,0,1,.73-.73l5.41,5.41,5.41-5.41a.52.52,0,0,1,.73.73l-5.78,5.77A.49.49,0,0,1,200.73,190.52Z" fill="#231f20"/><circle cx="194.84" cy="184.13" r="1.25" fill="#231f20"/><circle cx="206.61" cy="184.13" r="1.25" fill="#231f20"/><path d="M200.73,201a.56.56,0,0,1-.37-.15l-5.77-5.78a.52.52,0,1,1,.73-.73l5.41,5.41,5.41-5.41a.52.52,0,0,1,.73.73l-5.78,5.78A.53.53,0,0,1,200.73,201Z" fill="#231f20"/><circle cx="194.84" cy="194.62" r="1.25" fill="#231f20"/><circle cx="206.61" cy="194.62" r="1.25" fill="#231f20"/><path d="M200.73,211.49a.51.51,0,0,1-.37-.15l-5.77-5.78a.51.51,0,0,1,0-.72.5.5,0,0,1,.73,0l5.41,5.41,5.41-5.41a.5.5,0,0,1,.73,0,.51.51,0,0,1,0,.72l-5.78,5.78A.49.49,0,0,1,200.73,211.49Z" fill="#231f20"/><circle cx="194.84" cy="205.1" r="1.25" fill="#231f20"/><circle cx="206.61" cy="205.1" r="1.25" fill="#231f20"/><path d="M200.73,222a.53.53,0,0,1-.37-.15l-5.77-5.77a.52.52,0,1,1,.73-.73l5.41,5.41,5.41-5.41a.52.52,0,0,1,.73.73l-5.78,5.77A.51.51,0,0,1,200.73,222Z" fill="#231f20"/><circle cx="194.84" cy="215.58" r="1.25" fill="#231f20"/><circle cx="206.61" cy="215.58" r="1.25" fill="#231f20"/><path d="M200.73,232.46a.56.56,0,0,1-.37-.15l-5.77-5.78a.52.52,0,0,1,.73-.73l5.41,5.41,5.41-5.41a.52.52,0,0,1,.73.73l-5.78,5.78A.53.53,0,0,1,200.73,232.46Z" fill="#231f20"/><circle cx="194.84" cy="226.07" r="1.25" fill="#231f20"/><circle cx="206.61" cy="226.07" r="1.25" fill="#231f20"/><path d="M200.73,242.94a.51.51,0,0,1-.37-.15L194.59,237a.52.52,0,1,1,.73-.73l5.41,5.41,5.41-5.41a.52.52,0,1,1,.73.73l-5.78,5.78A.49.49,0,0,1,200.73,242.94Z" fill="#231f20"/><circle cx="194.84" cy="236.55" r="1.25" fill="#231f20"/><circle cx="206.61" cy="236.55" r="1.25" fill="#231f20"/><path d="M200.73,253.42a.51.51,0,0,1-.37-.15l-5.77-5.77a.52.52,0,1,1,.73-.73l5.41,5.41,5.41-5.41a.52.52,0,1,1,.73.73l-5.78,5.77A.49.49,0,0,1,200.73,253.42Z" fill="#231f20"/><circle cx="194.84" cy="247.03" r="1.25" fill="#231f20"/><circle cx="206.61" cy="247.03" r="1.25" fill="#231f20"/><path d="M247.16,201h-.11a.51.51,0,0,1-.4-.61c0-.24,5-24,4.44-35.95a.52.52,0,0,1,1,0c.53,12-4.41,36-4.46,36.2A.51.51,0,0,1,247.16,201Z" fill="#231f20"/><path d="M244.4,195.7a.5.5,0,0,1-.49-.35c-.08-.23-8.12-23.62-15.16-37a.52.52,0,0,1,.22-.7.51.51,0,0,1,.69.22c7.08,13.47,15.14,36.93,15.23,37.17a.52.52,0,0,1-.33.65A.45.45,0,0,1,244.4,195.7Z" fill="#231f20"/><path d="M153.09,201a.51.51,0,0,1-.5-.41c-.05-.24-5-24.15-4.47-36.2a.54.54,0,0,1,.54-.49.51.51,0,0,1,.5.53c-.53,11.93,4.39,35.71,4.44,35.95a.51.51,0,0,1-.4.61Z" fill="#231f20"/><path d="M155.85,195.7a.45.45,0,0,1-.16,0,.52.52,0,0,1-.33-.65c.08-.24,8.15-23.7,15.23-37.17a.51.51,0,0,1,.69-.22.52.52,0,0,1,.22.7c-7,13.4-15.08,36.79-15.16,37A.5.5,0,0,1,155.85,195.7Z" fill="#231f20"/><path d="M111.06,106.51c-.45,0-7.72-2-10.94-1.4a31.11,31.11,0,0,0-7.58,3s-1.4,1.54,3.51,2.24c0,0-3.65.84-7.72,2.1S73,115.91,68.42,115.77,54.53,111,54.53,111s3.93,9.12,21.88,11.22,27.49-1,27.49-1,5,3.65,5.47,5.75-1,8-1,8,7.15,5.75,16.13,0,10.8-11.5,10.8-11.5-5.19-2.25-10.24-4.63-7.29-3.65-6-4.07,5.75,1,5.75,1a39.44,39.44,0,0,0,15.71-9c7.29-6.88,10.8-13.33,10-19.22,0,0-2.81,4.49-3.37,3.65s1.55-6.73-2.24-12.06c0,0,.56,9.25-4.91,14.3S119.33,106.09,111.06,106.51Z" fill="#d1d3d4"/><path d="M118,62.69a5.27,5.27,0,0,0-3.11,1.66,31.72,31.72,0,0,1-6.06,2.88c-3,1-6.14,2-6.36,1.82s1.59,1.32,5.23,0a67.34,67.34,0,0,0,7.72-3.5,3.45,3.45,0,0,0,.53,1.75c.53.75.38,1.74.91,1.51s.53-1.29.61-1.74,1.13-.93,1.13-.93,1,1.54,1.37,1.16-.38-1.75-.38-1.75l.48-1.74a25.63,25.63,0,0,0,6.94-2.2c3-1.59,5.46-5.3,5.46-5.3s-3.94,3.18-6.52,4.17A82.18,82.18,0,0,1,118,62.69Z" fill="#d1d3d4"/><path d="M271.56,101a5.27,5.27,0,0,0-3.41-.86,32.1,32.1,0,0,1-6.42-2c-2.91-1.32-5.86-2.68-5.93-3s.29,2,3.85,3.53a67.45,67.45,0,0,0,8.07,2.62,3.46,3.46,0,0,0-.78,1.65c-.12.92-.89,1.54-.35,1.73s1.26-.59,1.62-.88,1.47.08,1.47.08-.31,1.8.23,1.77.89-1.54.89-1.54l1.53-1a25.79,25.79,0,0,0,6.61,3c3.31.87,7.61-.24,7.61-.24s-5.06-.3-7.63-1.31A82.24,82.24,0,0,1,271.56,101Z" fill="#d1d3d4"/><path d="M155.57,112.07a10.72,10.72,0,0,1-7.46-.51,4.3,4.3,0,0,0,3,2.75,5.72,5.72,0,0,0,4.09-.5,2.74,2.74,0,0,1,1.32-.47c.38,0,.87.18,1.07-.14a1.36,1.36,0,0,0,.08-.57c.05-.57.58-.95,1-1.34a5.1,5.1,0,0,0,1.67-4,8,8,0,0,1-5.34,4.34v.57" fill="#d1d3d4"/><path d="M99.37,151.08a9.38,9.38,0,0,1,1.16-.2,4.17,4.17,0,0,1,1.65.37,12.46,12.46,0,0,1,2.71,1.52,15.76,15.76,0,0,0-4-.39c-1.16,0-2.85.82-3.93.62-.73-.13-1.31-.84-2.13-1.07s-1.58.07-2.38-.43C94.79,149.55,96.68,151.6,99.37,151.08Z" fill="#d1d3d4"/><path d="M249.55,60.69a6.44,6.44,0,0,1,1.15-.2,3.93,3.93,0,0,1,1.65.37,12.23,12.23,0,0,1,2.71,1.52,14.86,14.86,0,0,0-4-.39c-1.16,0-2.85.81-3.93.62-.73-.13-1.3-.84-2.12-1.08s-1.59.08-2.39-.42C245,59.16,246.85,61.21,249.55,60.69Z" fill="#d1d3d4"/><path d="M261.86,138.52a6.89,6.89,0,0,0-2.46,3.16,13.15,13.15,0,0,1,4.2-1.56,2,2,0,0,1,1.25.06,1.15,1.15,0,0,1,.42,1.63,13.08,13.08,0,0,0,3.36-1c.15-.07.31-.16.33-.32a.49.49,0,0,0-.17-.34l-.71-.76a5.14,5.14,0,0,1,5.41-.81,4.91,4.91,0,0,0-4.06-2.08c-1.53,0-2.33,1.08-3.67,1.46S263.21,137.67,261.86,138.52Z" fill="#d1d3d4"/><path d="M66.44,64.35A5.71,5.71,0,0,1,66.78,61a6.3,6.3,0,0,1,.94-1.25l2-2.31a27.65,27.65,0,0,0,1.19,4.3c.34.91.71,2,.18,2.79a3,3,0,0,1-2.32,1,7,7,0,0,0,3.35,1.75,1.13,1.13,0,0,1-1.27.65,5.34,5.34,0,0,1-1.45-.55,5.27,5.27,0,0,0-2.91-.36,2.47,2.47,0,0,1-.66.07,4.39,4.39,0,0,1-1.13-.41.93.93,0,0,0-1.1.17L65,65.44a.29.29,0,0,0,.11-.18c0-.11-.09-.19-.18-.25-1.11-.71-2.25-1.36-3.41-2a3.11,3.11,0,0,0-1.83-.5,5.46,5.46,0,0,1,5.84,1.05,3.92,3.92,0,0,0,.91-2.43" fill="#d1d3d4"/><path d="M335.55,143.66a5.72,5.72,0,0,0-.35-3.38,6.65,6.65,0,0,0-.93-1.25l-2-2.3A25.5,25.5,0,0,1,331,141c-.34.91-.71,2-.17,2.79a3,3,0,0,0,2.31.95,6.91,6.91,0,0,1-3.35,1.75,1.15,1.15,0,0,0,1.27.66,5.58,5.58,0,0,0,1.45-.56,5.31,5.31,0,0,1,2.92-.36,2.47,2.47,0,0,0,.66.07,4.19,4.19,0,0,0,1.12-.41,1,1,0,0,1,1.1.17L337,144.75a.34.34,0,0,1-.11-.18c0-.11.1-.19.19-.25,1.11-.71,2.24-1.36,3.41-2a3.1,3.1,0,0,1,1.82-.5,5.45,5.45,0,0,0-5.84,1.06,4,4,0,0,1-.9-2.44" fill="#d1d3d4"/><path d="M356.46,89.05v13.2a35.24,35.24,0,0,1-6.26.11c-2.38-.16-11.24-.37-11.6-3.77a2.6,2.6,0,0,1-1,2.29,30.41,30.41,0,0,0,11.68,10.46,12.25,12.25,0,0,1-11,4.37,5.2,5.2,0,0,1-2.84-1.16c-1.53.8-1.72,3.2-3.31,3.89a4,4,0,0,1-1.89.16l-7.25-.53a4.76,4.76,0,0,1-.24-1.88,2.43,2.43,0,0,0-1.57,1.58,13.58,13.58,0,0,1-6.66-4c-1.36-1.51-2.63-3.47-4.65-3.68l2.68-2.34-4.3.43a15.62,15.62,0,0,0-1.77-6.15,36.31,36.31,0,0,0,9.36-.65c1.79-.36,4.19-.85,5.64-2,2.11-1.65,2.35-4.13-.87-4-9.14.48-19.55-2.76-26.26-9.23-1.52-1.46-3-3-4.5-4.5s-2.67-4.11-4.29-5.55a26.46,26.46,0,0,0,7,4.51,128.06,128.06,0,0,1-7.83-10.15,38.67,38.67,0,0,0,4.22,3.2,16,16,0,0,1-4.07-9.43c.15,2,6.14,5,7.52,6.28,1.94,1.76,3.31,3.69,5.62,5.13a68,68,0,0,0,16.54,7.49c4.44,1.41,8.85,1.38,13.48,1.74a4.24,4.24,0,0,0,1.59-.07,3.94,3.94,0,0,0,1.42-.93c3.37-2.93,6.79-6.3,11.21-6.94,3.19-.47,6.39.59,9.44,1.63-.69,1.12-2.43.58-3.65,1.05A4.36,4.36,0,0,0,345.94,82c-.55,1.09-3.53,5.21-2.82,6.42s6.23.8,7.69.81C352.69,89.24,354.58,89.18,356.46,89.05Z" fill="#d1d3d4"/><path d="M76.2,176H73.27a.44.44,0,0,0,0,.87H76.2a.44.44,0,1,0,0-.87Z" fill="#d1d3d4"/><path d="M301.68,166a.43.43,0,0,0-.59-.15l-2.93,1.48a.43.43,0,0,0-.15.59.45.45,0,0,0,.59.16l2.92-1.48A.45.45,0,0,0,301.68,166Z" fill="#d1d3d4"/><path d="M337.78,180.56a.44.44,0,0,0-.62,0l-3.41,3.9a.44.44,0,0,0,0,.62.45.45,0,0,0,.61,0l3.42-3.91A.45.45,0,0,0,337.78,180.56Z" fill="#d1d3d4"/><path d="M297.76,184.51a.45.45,0,0,0-.59-.16l-2,1a.43.43,0,0,0,.44.75l2-1A.43.43,0,0,0,297.76,184.51Z" fill="#d1d3d4"/><path d="M253.55,79h0Z" fill="#d1d3d4"/><path d="M254.25,79a.46.46,0,0,0-.62,0l-.08.07h0l0,0-.22.13-.1,0,0,0-.24.07-.12,0h-.45l-.24-.06a.45.45,0,0,0-.54.31.44.44,0,0,0,.31.53,2.53,2.53,0,0,0,2.38-.57A.44.44,0,0,0,254.25,79Z" fill="#d1d3d4"/><path d="M62,143a.43.43,0,0,0,0,.86A.43.43,0,0,0,62,143Z" fill="#d1d3d4"/><path d="M95.84,199.47l-2.93-.74a.45.45,0,0,0-.53.31.44.44,0,0,0,.3.53l2.93.74a.46.46,0,0,0,.54-.31A.44.44,0,0,0,95.84,199.47Z" fill="#d1d3d4"/></g></svg>