<svg id="_410_breakfast_flatline" data-name="#410_breakfast_flatline" xmlns="http://www.w3.org/2000/svg" viewBox="0 0 400 300"><polygon points="125.11 163.81 125.11 88.07 179.19 88.07 179.19 156.36 125.11 163.81" fill="#68e1fd"/><path d="M125.11,164.31a.53.53,0,0,1-.33-.13.48.48,0,0,1-.17-.37V88.07a.5.5,0,0,1,.5-.5h54.08a.5.5,0,0,1,.5.5v68.29a.49.49,0,0,1-.43.49l-54.08,7.45Zm.5-75.74v74.66l53.08-7.31V88.57Z" fill="#231f20"/><rect x="103.05" y="88.07" width="22.07" height="87.38" fill="#231f20"/><path d="M125.11,176H103.05a.5.5,0,0,1-.5-.5V88.07a.5.5,0,0,1,.5-.5h22.06a.5.5,0,0,1,.5.5v87.38A.5.5,0,0,1,125.11,176Zm-21.56-1h21.06V88.57H103.55Z" fill="#231f20"/><ellipse cx="261.25" cy="158.67" rx="48.23" ry="8.59" fill="#fff"/><path d="M261.25,167.76c-31.65,0-48.73-4.68-48.73-9.09s17.08-9.09,48.73-9.09S310,154.26,310,158.67,292.9,167.76,261.25,167.76Zm0-17.18c-28.55,0-47.73,4.18-47.73,8.09s19.18,8.09,47.73,8.09S309,162.58,309,158.67,289.8,150.58,261.25,150.58Z" fill="#231f20"/><ellipse cx="258.51" cy="158.32" rx="22.72" ry="2.56" fill="#231f20"/><path d="M258.51,161.38c-2.38,0-23.22-.09-23.22-3.06s20.84-3.06,23.22-3.06,23.21.09,23.21,3.06S260.88,161.38,258.51,161.38Zm-22.17-3.06c1,.87,9.19,2.06,22.17,2.06s21.13-1.19,22.16-2.06c-1-.87-9.19-2.06-22.16-2.06S237.38,157.45,236.34,158.32Zm44.4.08h0Z" fill="#231f20"/><path d="M221.87,137.35A34.89,34.89,0,0,1,210,135.13a40.29,40.29,0,0,1-16.28-11c-4.88-5.65-6.33-11.49-4-16a10.12,10.12,0,0,1,6.18-5.11c10-3.17,26.2,5.19,26.89,5.55a1.5,1.5,0,0,1-1.39,2.66c-.16-.08-15.83-8.13-24.59-5.35a7.14,7.14,0,0,0-4.42,3.62c-1.75,3.39-.43,8,3.6,12.69,7.34,8.49,21.85,14.9,33.45,10.94a1.5,1.5,0,1,1,1,2.83A26.24,26.24,0,0,1,221.87,137.35Z" fill="#231f20"/><path d="M303.89,97.21c0,4.92,1.79,62.12-44,62.12s-44-57.2-44-62.12,19.7-8.91,44-8.91S303.89,92.29,303.89,97.21Z" fill="#fff"/><path d="M259.9,159.83c-11.67,0-21.28-3.72-28.56-11.05-14.1-14.22-16-38.08-15.93-51v-.53c0-5.89,22.62-9.41,44.49-9.41s44.49,3.52,44.49,9.41v.53c.11,13-1.83,36.82-15.93,51C281.18,156.11,271.58,159.83,259.9,159.83Zm0-71c-26,0-43.49,4.35-43.49,8.41v.54c-.24,29.83,9.7,44.33,15.64,50.32,7.08,7.14,16.45,10.76,27.85,10.76s20.77-3.62,27.85-10.76c5.94-6,15.88-20.49,15.64-50.32v-.54C303.39,93.15,285.92,88.8,259.9,88.8Z" fill="#231f20"/><path d="M303.89,97.21c0,1.46-1.75,2.85-4.86,4.07-7.3,2.87-22.08,4.84-39.13,4.84s-31.83-2-39.13-4.84c-3.1-1.22-4.86-2.61-4.86-4.07,0-4.92,19.7-8.91,44-8.91S303.89,92.29,303.89,97.21Z" fill="#fff"/><path d="M259.9,106.62c-16.61,0-31.67-1.87-39.31-4.87-3.44-1.36-5.18-2.89-5.18-4.54,0-5.89,22.62-9.41,44.49-9.41s44.49,3.52,44.49,9.41c0,1.65-1.74,3.18-5.18,4.54C291.57,104.75,276.51,106.62,259.9,106.62Zm0-17.82c-26,0-43.49,4.35-43.49,8.41,0,1.17,1.61,2.45,4.55,3.61,7.53,3,22.45,4.8,38.94,4.8s31.42-1.84,39-4.8c2.93-1.16,4.54-2.44,4.54-3.61C303.39,93.15,285.92,88.8,259.9,88.8Z" fill="#231f20"/><ellipse cx="259.9" cy="101.28" rx="39.13" ry="4.83" fill="#68e1fd"/><path d="M259.9,106.62c-16.61,0-31.67-1.87-39.31-4.87a.51.51,0,0,1-.32-.47.5.5,0,0,1,.32-.46c7.64-3,22.7-4.87,39.31-4.87s31.67,1.87,39.31,4.87a.48.48,0,0,1,.32.46.5.5,0,0,1-.32.47C291.57,104.75,276.51,106.62,259.9,106.62Zm-37.67-5.34c7.86,2.69,22.06,4.34,37.67,4.34s29.81-1.65,37.68-4.34C289.71,98.6,275.51,97,259.9,97S230.09,98.6,222.23,101.28Z" fill="#231f20"/><path d="M277.64,126a.56.56,0,0,1-.55-.56V105.36a.56.56,0,0,1,1.11,0v20.11A.56.56,0,0,1,277.64,126Z" fill="#d1d3d4"/><path d="M285.56,141.44H269.72a.55.55,0,0,1-.55-.55v-9.3a.56.56,0,0,1,.22-.44l8.1-6.12a.56.56,0,0,1,.68,0l7.73,6.12a.52.52,0,0,1,.21.43v9.3A.54.54,0,0,1,285.56,141.44Zm-15.28-1.1H285v-8.48l-7.2-5.69-7.53,5.7Z" fill="#d1d3d4"/><ellipse cx="200" cy="204.5" rx="148.03" ry="36.65" fill="#fff"/><path d="M200,241.66c-39.58,0-76.8-3.82-104.79-10.75-28.21-7-43.74-16.36-43.74-26.41S67,185.08,95.21,178.1c28-6.93,65.21-10.75,104.79-10.75s76.8,3.82,104.79,10.75c28.21,7,43.74,16.36,43.74,26.4S333,223.92,304.79,230.91C276.8,237.84,239.58,241.66,200,241.66Zm0-73.31c-81.35,0-147.53,16.22-147.53,36.15S118.65,240.66,200,240.66s147.53-16.22,147.53-36.16S281.35,168.35,200,168.35Z" fill="#231f20"/><path d="M200,230.18c-70.74,0-126.16-12.59-126.16-28.66S129.26,172.85,200,172.85s126.16,12.59,126.16,28.67S270.74,230.18,200,230.18ZM200,174c-33.51,0-65,2.92-88.7,8.22C88.2,187.35,75,194.4,75,201.52s13.25,14.16,36.35,19.34c23.69,5.3,55.19,8.22,88.7,8.22s65-2.92,88.7-8.22c23.1-5.18,36.35-12.23,36.35-19.34s-13.25-14.17-36.35-19.34C265,176.88,233.51,174,200,174Z" fill="#d1d3d4"/><path d="M75.74,191.17,77,200.5s72.64,21.12,77.14,20,60.26-28.72,60.26-28.72,7,2.26,9.57-.56-3.1-14.36-3.1-14.36l-143,14.64" fill="#231f20"/><path d="M153.71,221c-7.84,0-74-19.2-76.88-20a.51.51,0,0,1-.36-.41l-1.22-9.33a.5.5,0,1,1,1-.13l1.18,9c20.4,5.93,73,20.81,76.57,19.9,4.4-1.1,59.6-28.41,60.16-28.68a.48.48,0,0,1,.37,0c.07,0,6.76,2.12,9-.42,1.83-2-1.43-10.15-3-13.5L77.86,192a.5.5,0,1,1-.1-1l143-14.65a.5.5,0,0,1,.5.28c.59,1.21,5.7,11.93,3,14.91-2.5,2.78-8.69,1.13-9.9.77-4.06,2-55.75,27.56-60.17,28.67A2.53,2.53,0,0,1,153.71,221Z" fill="#231f20"/><path d="M75.74,191.17,150.36,165l-.09-.07a1.64,1.64,0,0,1,.74-3c9.82-1.27,35.2-3.82,49.74,1.55,18.3,6.75,24.47,16.44,22.51,18.36s-9.28.5-9.28.5-58.84,29.28-60.53,29.28S75.74,191.17,75.74,191.17Z" fill="#fff"/><path d="M153.45,212.2c-1.71,0-70-18.44-77.84-20.55a.49.49,0,0,1-.37-.46.51.51,0,0,1,.34-.49l73.86-25.88a2.15,2.15,0,0,1,1.51-3.3c10.17-1.32,35.4-3.82,50,1.57,15.38,5.68,22.34,13.52,23.11,17.14a2.06,2.06,0,0,1-.42,2c-2,1.94-8.25.91-9.55.67C203.87,188,155.16,212.2,153.45,212.2Zm-76-21.09c26.45,7.14,74.33,20,76,20.09,1.72-.29,37-17.64,60.3-29.23a.5.5,0,0,1,.32,0c2,.38,7.38,1,8.83-.37a1.27,1.27,0,0,0,.14-1.13c-.73-3.4-7.47-10.87-22.47-16.41-14.37-5.3-39.41-2.82-49.5-1.51a1.11,1.11,0,0,0-1,.84,1.13,1.13,0,0,0,.44,1.21l.08.06a.5.5,0,0,1-.12.88Z" fill="#231f20"/><path d="M75.74,173.53,77,182.86s72.64,21.11,77.14,20,60.26-28.72,60.26-28.72,7,2.25,9.57-.56-3.1-14.36-3.1-14.36l-143,14.64" fill="#231f20"/><path d="M153.71,203.38c-7.84,0-74-19.2-76.88-20a.52.52,0,0,1-.36-.42l-1.22-9.33a.5.5,0,0,1,1-.13l1.18,9c20.4,5.93,73,20.8,76.57,19.89,4.4-1.1,59.6-28.4,60.16-28.68a.48.48,0,0,1,.37,0c.07,0,6.76,2.12,9-.42,1.83-2-1.43-10.14-3-13.49L77.86,174.34a.5.5,0,0,1-.55-.44.51.51,0,0,1,.45-.55l143-14.64a.5.5,0,0,1,.5.28c.59,1.21,5.7,11.93,3,14.91-2.5,2.78-8.69,1.12-9.9.77-4.06,2-55.75,27.56-60.17,28.66A2.44,2.44,0,0,1,153.71,203.38Z" fill="#231f20"/><path d="M75.74,173.53l74.62-26.15-.09-.06a1.64,1.64,0,0,1,.74-2.95c9.82-1.28,35.2-3.83,49.74,1.54,18.3,6.76,24.47,16.45,22.51,18.36s-9.28.51-9.28.51-58.84,29.28-60.53,29.28S75.74,173.53,75.74,173.53Z" fill="#fff"/><path d="M153.45,194.56c-1.71,0-70-18.45-77.84-20.55a.51.51,0,0,1-.37-.47.53.53,0,0,1,.34-.49l73.86-25.88a2.15,2.15,0,0,1,1.51-3.3c10.17-1.32,35.4-3.81,50,1.57C216.3,151.12,223.26,159,224,162.58a2.09,2.09,0,0,1-.42,2c-2,1.93-8.25.91-9.55.67C203.87,170.37,155.16,194.56,153.45,194.56Zm-76-21.1c26.45,7.14,74.33,20,76,20.1,1.72-.29,37-17.64,60.3-29.23a.51.51,0,0,1,.32-.05c2,.38,7.38,1.05,8.83-.37a1.24,1.24,0,0,0,.14-1.12c-.73-3.4-7.47-10.87-22.47-16.41-14.37-5.31-39.41-2.83-49.5-1.52a1.13,1.13,0,0,0-1,.85,1.11,1.11,0,0,0,.44,1.2l.08.07a.49.49,0,0,1-.12.87Z" fill="#231f20"/><path d="M189.87,161.73a.56.56,0,0,1-.55-.48.55.55,0,0,1,.48-.62L198,159.5a.55.55,0,0,1,.62.48.54.54,0,0,1-.47.62L190,161.72Z" fill="#d1d3d4"/><path d="M174.67,168.21a.56.56,0,0,1-.41-.93l6.48-7a.54.54,0,0,1,.78,0,.55.55,0,0,1,0,.78l-6.47,7A.55.55,0,0,1,174.67,168.21Z" fill="#d1d3d4"/><path d="M150.36,165.58a.57.57,0,0,1-.55-.47.56.56,0,0,1,.47-.63l12.2-1.88a.56.56,0,0,1,.63.46.55.55,0,0,1-.47.63l-12.2,1.88Z" fill="#d1d3d4"/><path d="M159.74,178.91a.55.55,0,0,1-.53-.43l-1.69-7.32a.55.55,0,1,1,1.07-.25l1.69,7.32a.54.54,0,0,1-.41.66Z" fill="#d1d3d4"/><path d="M147.36,176.09h0l-10.7-.56a.55.55,0,0,1-.52-.59.54.54,0,0,1,.58-.52l10.7.57a.55.55,0,0,1,.52.58A.56.56,0,0,1,147.36,176.09Z" fill="#d1d3d4"/><path d="M124.27,165.67a.55.55,0,0,1-.13-1.09l12.11-2.81a.53.53,0,0,1,.66.41.54.54,0,0,1-.41.66l-12.11,2.82Z" fill="#d1d3d4"/><path d="M168.75,154.13a.54.54,0,0,1-.54-.5.54.54,0,0,1,.49-.6l8.45-.85a.55.55,0,0,1,.11,1.1l-8.45.84Z" fill="#d1d3d4"/><path d="M122,176.65a.59.59,0,0,1-.35-.12l-5.35-4.22a.56.56,0,0,1-.09-.78.57.57,0,0,1,.78-.09l5.35,4.23a.55.55,0,0,1-.34,1Z" fill="#d1d3d4"/><path d="M155,184.54h-.1l-11-2a.55.55,0,1,1,.2-1.09l11,2a.54.54,0,0,1,.44.64A.55.55,0,0,1,155,184.54Z" fill="#d1d3d4"/><path d="M151,157.79a.56.56,0,0,1-.49-.29.55.55,0,0,1,.23-.75l7.88-4.23a.55.55,0,1,1,.52,1l-7.88,4.22A.51.51,0,0,1,151,157.79Z" fill="#d1d3d4"/><path d="M101,170.48a1.94,1.94,0,0,1-.51,0,.55.55,0,0,1,.34-1.05A99.67,99.67,0,0,0,111.51,168a.55.55,0,0,1,.63.46.55.55,0,0,1-.45.63C108.94,169.5,102.87,170.48,101,170.48Z" fill="#d1d3d4"/><path d="M312.87,184.15c-8.22-4.4-17.05-7.85-26-6.09-4.61.91-9,3.19-13.71,3-8.93-.43-16.35-3.69-25.24-.14a53.51,53.51,0,0,1-6.35,2.59c-3.09.78-6.34.31-9.52.39-12.48.29-24.16,6.44-35.72,10.78a56.06,56.06,0,0,0-11.61,5.41c-3.56,2.37-6.65,5.7-7.9,9.8-2.64,8.63,3.2,15.6,11.31,17.47,3.57.82,7.29.49,10.93,0,14.17-1.75,28.48-5.29,42.56-2.91,7.87,1.33,15.68,4.5,23.57,3.34,6.31-.93,11.89-4.53,18-6.28,13.52-3.85,29.74.62,40.88-10.26,8.51-8.31,3.94-18.34-5-23.59C317.05,186.48,315,185.28,312.87,184.15Z" fill="#fff"/><path d="M261.67,228.54c-4.43,0-8.83-1.06-13.12-2.09-2.3-.55-4.68-1.12-7-1.51-10.76-1.82-21.85-.13-32.58,1.51-3.22.49-6.56,1-9.84,1.41-3.58.44-7.38.8-11.1-.05a16.37,16.37,0,0,1-10.62-7.39,13.24,13.24,0,0,1-1.06-10.72c1.48-4.85,5.22-8.15,8.1-10.07a56.55,56.55,0,0,1,11.71-5.45c2.55-1,5.16-2,7.69-3.06,9-3.7,18.39-7.53,28.2-7.76,1,0,2,0,2.92,0a23.87,23.87,0,0,0,6.49-.41,24.2,24.2,0,0,0,4.06-1.58c.73-.34,1.47-.68,2.22-1,6.32-2.53,11.86-1.69,17.72-.8a74.4,74.4,0,0,0,7.73.9c2.94.14,5.73-.71,8.68-1.62a50.16,50.16,0,0,1,4.92-1.33c9.63-1.9,19.13,2.28,26.32,6.14h0c2.23,1.19,4.4,2.45,6.23,3.52,5.46,3.2,9.08,8,9.68,12.91.5,4.09-1.08,8.06-4.57,11.47-7.36,7.18-17,7.8-26.27,8.39-5,.32-10.12.65-14.82,2a64,64,0,0,0-7.32,2.77,44.2,44.2,0,0,1-10.76,3.52A24.22,24.22,0,0,1,261.67,228.54Zm-30.1-5.39a60.43,60.43,0,0,1,10.13.8c2.37.4,4.77,1,7.08,1.53,5.36,1.28,10.9,2.62,16.34,1.81a43.67,43.67,0,0,0,10.52-3.45,64.37,64.37,0,0,1,7.44-2.81c4.8-1.37,10-1.7,15-2,9.54-.62,18.55-1.19,25.64-8.12,3.26-3.18,4.74-6.86,4.28-10.63-.56-4.57-4-9.12-9.2-12.17-1.82-1.06-4-2.32-6.19-3.5h0c-7.05-3.78-16.33-7.87-25.66-6-1.61.32-3.24.82-4.82,1.3-2.9.9-5.91,1.84-9,1.67a75.69,75.69,0,0,1-7.83-.91c-5.72-.87-11.13-1.69-17.2.73-.73.3-1.45.63-2.17,1a24.37,24.37,0,0,1-4.24,1.65,24.81,24.81,0,0,1-6.76.44c-.94,0-1.92,0-2.87,0-9.62.23-18.89,4-27.85,7.68-2.53,1-5.14,2.11-7.71,3.07A56.22,56.22,0,0,0,185,200.46c-2.74,1.83-6.3,5-7.69,9.53a12.21,12.21,0,0,0,1,9.93,15.31,15.31,0,0,0,10,6.91c3.55.82,7.26.47,10.75,0,3.26-.41,6.59-.92,9.81-1.41C216.29,224.32,224,223.15,231.57,223.15Z" fill="#231f20"/><polygon points="103.05 88.07 117.59 61.16 125.11 88.07 103.05 88.07" fill="#231f20"/><path d="M125.11,88.57H103.05a.48.48,0,0,1-.43-.25.48.48,0,0,1,0-.49l14.54-26.91a.51.51,0,0,1,.5-.26.49.49,0,0,1,.42.36l7.52,26.91a.46.46,0,0,1-.08.44A.48.48,0,0,1,125.11,88.57Zm-21.22-1h20.56l-7-25.08Z" fill="#231f20"/><polygon points="117.59 61.16 160.44 61.16 179.19 88.07 125.11 88.07 117.59 61.16" fill="#68e1fd"/><path d="M179.19,88.57H125.11a.5.5,0,0,1-.48-.37l-7.52-26.91a.5.5,0,0,1,.08-.43.49.49,0,0,1,.4-.2h42.85a.49.49,0,0,1,.41.21L179.6,87.78a.51.51,0,0,1,0,.52A.52.52,0,0,1,179.19,88.57Zm-53.7-1h52.74l-18-25.91H118.25Z" fill="#231f20"/><rect x="117.59" y="51.86" width="43.65" height="9.3" fill="#68e1fd"/><path d="M161.24,61.66H117.59a.5.5,0,0,1-.5-.5v-9.3a.5.5,0,0,1,.5-.5h43.65a.5.5,0,0,1,.5.5v9.3A.5.5,0,0,1,161.24,61.66Zm-43.15-1h42.65v-8.3H118.09Z" fill="#231f20"/><path d="M281,187.69c.59,5.37-11.75,11.14-27.57,12.88s-29.12-1.21-29.71-6.58,11.23-15.7,27.05-17.44S280.44,182.32,281,187.69Z" fill="#68e1fd"/><path d="M244.48,201.58c-12,0-20.72-2.91-21.23-7.54-.64-5.84,11.42-16.22,27.49-18s30.15,5.74,30.79,11.58h0c.63,5.73-11.68,11.63-28,13.42A82,82,0,0,1,244.48,201.58Zm11.15-24.79a43.58,43.58,0,0,0-4.78.26c-16.24,1.78-27.12,12.16-26.6,16.89.55,5,13.9,7.81,29.15,6.13s27.68-7.32,27.14-12.32C280.07,183.5,269.58,176.79,255.63,176.79Z" fill="#231f20"/></svg>