<svg xmlns="http://www.w3.org/2000/svg" viewBox="0 0 400 300"><g id="_005" data-name="005"><path d="M57.12,232.76a.47.47,0,0,1-.46-.46V57.72a.47.47,0,0,1,.46-.46.46.46,0,0,1,.46.46V232.3A.46.46,0,0,1,57.12,232.76Z" fill="#d1d3d4"/><path d="M151.66,232.76a.47.47,0,0,1-.46-.46V57.72a.47.47,0,0,1,.46-.46.46.46,0,0,1,.46.46V232.3A.46.46,0,0,1,151.66,232.76Z" fill="#d1d3d4"/><path d="M246.2,232.76a.47.47,0,0,1-.46-.46V57.72a.47.47,0,0,1,.46-.46.46.46,0,0,1,.46.46V232.3A.46.46,0,0,1,246.2,232.76Z" fill="#d1d3d4"/><path d="M340.74,232.76a.47.47,0,0,1-.46-.46V57.72a.46.46,0,1,1,.92,0V232.3A.47.47,0,0,1,340.74,232.76Z" fill="#d1d3d4"/><path d="M362.35,58.71H37.65a.46.46,0,0,1-.46-.46.47.47,0,0,1,.46-.46h324.7a.47.47,0,0,1,.46.46A.46.46,0,0,1,362.35,58.71Z" fill="#d1d3d4"/><path d="M362.35,47.5H37.65a.47.47,0,0,1-.46-.46.46.46,0,0,1,.46-.46h324.7a.46.46,0,0,1,.46.46A.47.47,0,0,1,362.35,47.5Z" fill="#d1d3d4"/><line x1="368.51" y1="233.25" x2="31.49" y2="233.25" fill="#fff"/><path d="M368.51,233.71h-337a.46.46,0,1,1,0-.92h337a.46.46,0,0,1,0,.92Z" fill="#d1d3d4"/><path d="M192.64,95.33l-25.86,0c-8.26,0-15.68,6.48-16.57,14.52l-8.65,77.63,55.77.1L206,109.9C206.87,101.87,200.9,95.34,192.64,95.33Z" fill="#fff"/><path d="M197.33,188h0l-55.76-.1a.47.47,0,0,1-.35-.15.52.52,0,0,1-.11-.36l8.65-77.63c.92-8.24,8.54-14.94,17-14.94h0l25.87.05a13.94,13.94,0,0,1,10.54,4.54A13.35,13.35,0,0,1,206.43,110l-8.65,77.64A.46.46,0,0,1,197.33,188Zm-55.26-1,54.84.09,8.61-77.22a12.44,12.44,0,0,0-3-9.82,13,13,0,0,0-9.86-4.24l-25.86,0h0c-8,0-15.21,6.32-16.08,14.11Z" fill="#d1d3d4"/><path d="M185.52,95.33l-25.86,0c-8.26,0-15.68,6.48-16.57,14.52l-8.65,77.63,55.76.1,8.65-77.64C199.75,101.87,193.78,95.34,185.52,95.33Z" fill="#fff"/><path d="M190.2,188h0l-55.76-.1a.45.45,0,0,1-.46-.51l8.65-77.63c.92-8.24,8.54-14.94,17-14.94h0l25.86.05a13.93,13.93,0,0,1,10.54,4.54A13.36,13.36,0,0,1,199.31,110l-8.65,77.64A.46.46,0,0,1,190.2,188ZM135,187l54.84.09,8.61-77.22a12.48,12.48,0,0,0-3-9.83,13.05,13.05,0,0,0-9.86-4.23l-25.86,0h0c-8,0-15.22,6.32-16.08,14.11Z" fill="#d1d3d4"/><line x1="186.43" y1="112.89" x2="153.22" y2="112.84" fill="#fff"/><path d="M186.43,113.35h0l-33.21,0a.46.46,0,1,1,0-.92h0l33.21.05a.47.47,0,0,1,.46.46A.46.46,0,0,1,186.43,113.35Z" fill="#d1d3d4"/><line x1="184.74" y1="127.99" x2="151.54" y2="127.94" fill="#fff"/><path d="M184.74,128.45h0l-33.2,0a.46.46,0,0,1-.46-.46.45.45,0,0,1,.46-.46h0l33.21,0a.46.46,0,1,1,0,.92Z" fill="#d1d3d4"/><line x1="183.06" y1="143.09" x2="149.85" y2="143.04" fill="#fff"/><path d="M183.06,143.55h0l-33.21-.05a.47.47,0,0,1-.46-.46.46.46,0,0,1,.46-.46h0l33.2,0a.46.46,0,0,1,.46.46A.45.45,0,0,1,183.06,143.55Z" fill="#d1d3d4"/><rect x="42.49" y="158.58" width="237.59" height="87.42" transform="translate(322.56 404.58) rotate(-180)" fill="#fff"/><path d="M280.07,246.46H42.49A.47.47,0,0,1,42,246V158.58a.46.46,0,0,1,.47-.46H280.07a.45.45,0,0,1,.46.46V246A.46.46,0,0,1,280.07,246.46ZM43,245.54H279.61V159H43Z" fill="#d1d3d4"/><rect x="38.98" y="151.1" width="247.87" height="9.14" transform="translate(325.83 311.34) rotate(-180)" fill="#fff"/><path d="M286.85,160.7H39a.47.47,0,0,1-.46-.46V151.1a.47.47,0,0,1,.46-.46H286.85a.46.46,0,0,1,.46.46v9.14A.46.46,0,0,1,286.85,160.7Zm-247.41-.92h247v-8.22H39.44Z" fill="#d1d3d4"/><polygon points="232.15 141.09 238.5 264.93 256.7 263.18 260.89 172.96 271.77 264.33 290.62 264.46 287.98 139.79 232.15 141.09" fill="#231f20"/><path d="M238.5,265.43a.47.47,0,0,1-.32-.12A.5.5,0,0,1,238,265l-6.35-123.84a.5.5,0,0,1,.13-.37.53.53,0,0,1,.36-.15L288,139.3a.49.49,0,0,1,.35.13.54.54,0,0,1,.16.35l2.64,124.67a.5.5,0,0,1-.5.51h0l-18.85-.13a.5.5,0,0,1-.49-.44L261.11,179l-3.91,84.2a.5.5,0,0,1-.45.48l-18.2,1.75Zm-5.83-123.85L239,264.39l17.26-1.66,4.16-89.8a.5.5,0,0,1,.48-.47.49.49,0,0,1,.51.44l10.84,90.94,17.89.12L287.49,140.3Z" fill="#231f20"/><path d="M291,189.52s-.58-6.74.08-7.31,15.55.11,16.78.3.86,7.16.86,7.16l-2.23.06s.57-4.5-.24-4.76-12.93-.76-12.93-.76l.25,5.48Z" fill="#231f20"/><path d="M306.49,190.23a.51.51,0,0,1-.5-.56,12.62,12.62,0,0,0,0-4.24c-.93-.17-7.68-.51-12.19-.7l.23,4.94a.5.5,0,0,1-.15.37.51.51,0,0,1-.38.15L291,190a.49.49,0,0,1-.46-.45c-.4-4.64-.32-7.24.24-7.73,1-.86,17,.16,17.18.18,1.38.21,1.46,4.3,1.28,7.69a.49.49,0,0,1-.48.47l-2.23.06Zm-13.17-6.52h0c2,.09,12.23.52,13.06.79.29.09,1.13.36.65,4.72l1.19,0c.13-3.09-.1-5.87-.52-6.21-1.28-.18-14.71-.76-16.3-.37-.25.65-.17,3.7,0,6.44l1.59.11-.23-4.93a.5.5,0,0,1,.14-.37A.55.55,0,0,1,293.32,183.71Z" fill="#231f20"/><path d="M241.24,143.69l34.57-.15S274.57,83.24,273,81.7s-22.4,1.49-24.15,3S241.24,143.69,241.24,143.69Z" fill="#fff"/><path d="M241.24,144.21a.52.52,0,0,1-.38-.17.55.55,0,0,1-.14-.4c1.39-13.53,6-57.77,7.81-59.31,1.19-1,8.37-2.24,12.42-2.79s11.32-1.33,12.44-.21c1.57,1.57,2.64,48,2.93,62.2a.5.5,0,0,1-.14.37.52.52,0,0,1-.37.16l-34.57.15Zm29.21-62.48c-5.58,0-19.71,2-21.24,3.38-1.23,1.72-5.08,35.45-7.4,58.06l33.47-.14c-.49-23.7-1.6-59.13-2.66-61A4.63,4.63,0,0,0,270.45,81.73Z" fill="#231f20"/><path d="M295.41,172.53a32.67,32.67,0,0,0-3.42,6.11,5.7,5.7,0,0,0-.16,3.54l3.5-.31s-1,6.74.08,6.81,2.72,1,3-4.21c0,0,.33,2,2.15,1.38a4,4,0,0,0,2.37-1.92s1.37,2.64,3.17,0-.21-10.68-.21-10.68l0-3.79L295.27,169Z" fill="#fff"/><path d="M296.43,189.31a4.59,4.59,0,0,1-.69-.07l-.36-.05a.77.77,0,0,1-.57-.31c-.71-.87-.36-4.41-.08-6.44l-2.85.25a.52.52,0,0,1-.53-.32,6.22,6.22,0,0,1,.15-3.89,30.71,30.71,0,0,1,3.39-6.1l-.14-3.4a.5.5,0,0,1,.15-.38.52.52,0,0,1,.39-.15l10.63.48a.5.5,0,0,1,.49.52l0,3.72c.21.83,2,8.31.13,11-.67,1-1.36,1.46-2.16,1.41a2.17,2.17,0,0,1-1.43-.77,5,5,0,0,1-2.21,1.5,2,2,0,0,1-1.76-.09l-.2-.13a4.28,4.28,0,0,1-1.15,2.79A1.77,1.77,0,0,1,296.43,189.31Zm-.85-1.13.31,0c.49.08.8.11,1.07-.11s.79-1.15.92-3.66a.52.52,0,0,1,1-.06,1.52,1.52,0,0,0,.58,1,1,1,0,0,0,.89,0,3.58,3.58,0,0,0,2.07-1.65.53.53,0,0,1,.45-.31.51.51,0,0,1,.48.28c.11.22.56.86,1.05.89s.93-.51,1.23-1c1.37-2,.26-8.1-.28-10.27a.5.5,0,0,1,0-.12l0-3.29-9.58-.44.13,3a.56.56,0,0,1-.09.31,32.56,32.56,0,0,0-3.36,6,6,6,0,0,0-.26,2.84l3.06-.27a.51.51,0,0,1,.42.16.52.52,0,0,1,.14.43C295.46,184.51,295.28,187.54,295.58,188.18Z" fill="#231f20"/><path d="M268.44,78.68c-.25.6-.55,86.93-.55,86.93l22.27-1.49.54,5.06,17.54,1.4s1-37-.47-51.35-9.38-29-14.17-32.55C284.34,79.74,268.44,78.68,268.44,78.68Z" fill="#68e1fd"/><path d="M252.68,80l.34,86.74-24.77-1.11,1.25-41.43s-24.15,19.54-30.19,1.42c-4.46-13.37,30-49.2,30-49.2l9.93,8.88S247.9,78.61,252.68,80Z" fill="#68e1fd"/><polygon points="257.65 92.13 259.01 94.87 255.69 132.17 260.98 139.28 266.65 131.63 261.4 94.48 263.24 91.68 260.6 89.59 257.65 92.13" fill="#d1d3d4"/><path d="M238.89,86A20.29,20.29,0,0,1,242,81.81a48.74,48.74,0,0,0,4-3.59,12.63,12.63,0,0,0,1.84-3.1,22.61,22.61,0,0,0,1.69-12c-.24-1.85-1.8-8.21-4.61-4.75a6.38,6.38,0,0,0-1.23,2.47,12.17,12.17,0,0,0,.2-3c0-.22-.05-.48-.26-.57s-.44.08-.6.24a9.52,9.52,0,0,0-2.69,5.21,13.92,13.92,0,0,0,.78-4.34c0-1.73-2,1.15-2.17,1.51a15.71,15.71,0,0,0-1.4,3.81c-1.34,5.51-2,11-5.06,16" fill="#fff"/><path d="M238.89,86.49a.56.56,0,0,1-.27-.08.52.52,0,0,1-.17-.71,20.67,20.67,0,0,1,3.16-4.26c.53-.5,1.09-1,1.63-1.4a17.26,17.26,0,0,0,2.34-2.15,12.27,12.27,0,0,0,1.76-3A22,22,0,0,0,249,63.2c-.26-2-1.25-5-2.34-5.29-.39-.11-.84.16-1.36.8A5.87,5.87,0,0,0,244.16,61a.51.51,0,0,1-1-.22,11.94,11.94,0,0,0,.19-2.86,8.83,8.83,0,0,0-2,3.06,13,13,0,0,1-.54,1.94.51.51,0,0,1-1-.25,10.33,10.33,0,0,1,.53-2,12.87,12.87,0,0,0,.24-2.06,10.07,10.07,0,0,0-1.2,1.54A14.5,14.5,0,0,0,238,63.82c-.29,1.19-.54,2.37-.8,3.55-.91,4.25-1.85,8.64-4.32,12.57a.51.51,0,0,1-.87-.55c2.37-3.78,3.25-7.89,4.18-12.23.26-1.19.52-2.39.81-3.58a15.26,15.26,0,0,1,1.45-3.94s1.51-2.58,2.56-2.3c.26.07.57.3.58,1a9.79,9.79,0,0,1,1-1.2,1,1,0,0,1,1.18-.34,1.05,1.05,0,0,1,.57,1c0,.12,0,.24,0,.37l.1-.12c.8-1,1.62-1.37,2.44-1.14,2.29.64,3.08,6.09,3.08,6.14a22.91,22.91,0,0,1-1.73,12.26,13.11,13.11,0,0,1-1.91,3.23,17.23,17.23,0,0,1-2.48,2.29c-.53.43-1.07.87-1.57,1.34a19.67,19.67,0,0,0-3,4.06A.5.5,0,0,1,238.89,86.49Z" fill="#231f20"/><path d="M249.47,66.59,238,80.81l-3.06-11.18L246.46,56.8Z" fill="#231f20"/><path d="M238,81.31h-.1a.51.51,0,0,1-.38-.36l-3.06-11.18a.49.49,0,0,1,.11-.46l11.52-12.83a.5.5,0,0,1,.48-.15.46.46,0,0,1,.37.34l3,9.78a.49.49,0,0,1-.08.45L238.39,81.12A.51.51,0,0,1,238,81.31Zm-2.51-11.55,2.73,10,10.69-13.26-2.66-8.69Z" fill="#231f20"/><path d="M249.69,38.6c-1.25,1-2.44,2.23-3.66,3a16.13,16.13,0,0,1-7.52,2.76c-.71.05.6,6.1.79,6.65a16.64,16.64,0,0,0,3.57,6,51.59,51.59,0,0,0,4.64,4.23c2.05,1.71,5.2,2,7.73,2.3,2.25.29,4.64.89,6.87,1s4.92.29,6.93-.57c2.63-1.13,4.17-4.54,5-7.08a14.74,14.74,0,0,0,.2-10,7.16,7.16,0,0,0-2.17-3.17c-1.25-1-2.46-.89-3.89-.92.12-1.8-.47-2.78-2-3.93-3.62-2.76-9.91-3-14.13-1.62A8.2,8.2,0,0,0,249.69,38.6Z" fill="#fff"/><path d="M264.78,65.09c-.75,0-1.49,0-2.17-.06l-.52,0a33.22,33.22,0,0,1-4.36-.58c-.86-.15-1.72-.3-2.55-.41L254.6,64c-2.54-.31-5.41-.66-7.42-2.34a51.57,51.57,0,0,1-4.69-4.27,17.32,17.32,0,0,1-3.68-6.16s-1.52-6-.84-7a.64.64,0,0,1,.51-.3,15.6,15.6,0,0,0,7.27-2.68A19.6,19.6,0,0,0,248,39.4c.47-.41.93-.83,1.41-1.21a8.62,8.62,0,0,1,2.57-1.52c4.17-1.4,10.71-1.28,14.61,1.7a4.51,4.51,0,0,1,2.21,3.83,5.48,5.48,0,0,1,3.68,1,7.68,7.68,0,0,1,2.33,3.39,15.36,15.36,0,0,1-.19,10.4c-1.37,4-3.16,6.45-5.34,7.38A11.45,11.45,0,0,1,264.78,65.09Zm-26-20.23a31,31,0,0,0,1,6,16.07,16.07,0,0,0,3.46,5.78,49.92,49.92,0,0,0,4.59,4.19c1.78,1.48,4.49,1.81,6.88,2.11l.59.07c.85.11,1.72.26,2.6.42a35.44,35.44,0,0,0,4.22.56l.52,0c2,.08,4.44.19,6.19-.56s3.49-3.09,4.76-6.77a14.35,14.35,0,0,0,.21-9.69,6.63,6.63,0,0,0-2-2.95,4.65,4.65,0,0,0-3.16-.8h-.42a.56.56,0,0,1-.37-.17.5.5,0,0,1-.14-.38c.11-1.56-.31-2.37-1.78-3.49-3.49-2.66-9.68-2.87-13.66-1.54A7.85,7.85,0,0,0,250,39h0c-.46.37-.91.77-1.36,1.17A20,20,0,0,1,246.31,42,16.52,16.52,0,0,1,238.82,44.86Zm10.87-6.26h0Z" fill="#231f20"/><path d="M252.58,75l-.25,9.89s4.54,4.68,10.83,2.85,7-6.26,7-6.26l-.91-17.94s-4.84-2.29-3.93-12.59c0,0-9.68,3.48-19.19,2.72,0,0,.41,11.58,1.41,16.47S252.58,75,252.58,75Z" fill="#fff"/><path d="M260.19,88.72A12.31,12.31,0,0,1,252,85.29a.5.5,0,0,1-.14-.37l.23-9.42c-1.21-.18-4.15-1.06-5-5.21-1-4.88-1.4-16.09-1.41-16.56a.53.53,0,0,1,.55-.54c9.28.74,18.88-2.66,19-2.69a.51.51,0,0,1,.68.53c-.86,9.76,3.6,12.07,3.64,12.09a.51.51,0,0,1,.29.44l.91,17.93a.4.4,0,0,1,0,.11c0,.2-.86,4.77-7.39,6.67A11,11,0,0,1,260.19,88.72Zm-7.34-4c.82.75,4.88,4.1,10.16,2.56,5.59-1.63,6.54-5.3,6.65-5.8l-.9-17.59c-1-.67-4.54-3.56-4-12.17-2.41.77-10.27,3-18.08,2.54.1,2.4.52,11.65,1.37,15.82.9,4.39,4.36,4.44,4.52,4.44h0a.52.52,0,0,1,.37.16.51.51,0,0,1,.15.37Z" fill="#231f20"/><path d="M265.52,63.44a4.19,4.19,0,0,1,1.31-2.28A7.31,7.31,0,0,1,269,59.93a3.07,3.07,0,0,1,1.32-.3,2.31,2.31,0,0,1,.92.29,3.16,3.16,0,0,1,1.61,1.53,3.7,3.7,0,0,1,.17,1.81,7.59,7.59,0,0,1-.4,2,5,5,0,0,1-6.55,2.94" fill="#fff"/><path d="M267.91,69a5.51,5.51,0,0,1-2-.37.52.52,0,0,1-.3-.67.53.53,0,0,1,.67-.29,4.59,4.59,0,0,0,3.49-.09A4.67,4.67,0,0,0,272.15,65a7.17,7.17,0,0,0,.37-1.82,3.56,3.56,0,0,0-.13-1.57A2.77,2.77,0,0,0,271,60.38a2.11,2.11,0,0,0-.73-.24,2.73,2.73,0,0,0-1.1.27,7,7,0,0,0-2,1.13,3.64,3.64,0,0,0-1.14,2,.53.53,0,0,1-.61.41.51.51,0,0,1-.4-.61,4.63,4.63,0,0,1,1.47-2.57,7.75,7.75,0,0,1,2.32-1.31,3.57,3.57,0,0,1,1.56-.35,3.16,3.16,0,0,1,1.11.34,3.75,3.75,0,0,1,1.86,1.8,4.33,4.33,0,0,1,.2,2.06,7.53,7.53,0,0,1-.43,2.09,5.53,5.53,0,0,1-5.2,3.61Z" fill="#231f20"/><path d="M252.68,80a8.31,8.31,0,0,0,6.42-2.43c2.67-2.83,2.36-4.39,2.36-4.39s-4.41,2.69-8.61,2.05Z" fill="#231f20"/><path d="M253.21,80.47c-.33,0-.54,0-.58,0a.49.49,0,0,1-.44-.51l.16-4.77a.47.47,0,0,1,.18-.36.5.5,0,0,1,.39-.11c4,.6,8.23-2,8.28-2a.47.47,0,0,1,.46,0,.5.5,0,0,1,.28.36c0,.18.29,1.89-2.48,4.82A8.66,8.66,0,0,1,253.21,80.47Zm.12-4.73-.13,3.73a7.75,7.75,0,0,0,5.53-2.29,8.71,8.71,0,0,0,2.1-3.14A14.87,14.87,0,0,1,253.33,75.74Z" fill="#231f20"/><path d="M255.29,60.84s-3.28,5-2.48,5.88,3,.25,3,.25" fill="#fff"/><path d="M254.31,67.68a2.52,2.52,0,0,1-1.86-.62c-.89-1,.83-4.05,2.42-6.49a.5.5,0,0,1,.69-.15.51.51,0,0,1,.15.7c-1.53,2.34-2.71,4.81-2.51,5.28.43.45,1.87.26,2.5.09a.5.5,0,0,1,.61.35.51.51,0,0,1-.35.62A7.35,7.35,0,0,1,254.31,67.68Z" fill="#231f20"/><ellipse cx="260.94" cy="60.64" rx="1.16" ry="0.82" transform="translate(149.04 304.04) rotate(-78.39)" fill="#231f20"/><ellipse cx="252.26" cy="60.8" rx="1.16" ry="0.82" transform="translate(141.95 295.67) rotate(-78.39)" fill="#231f20"/><path d="M257.93,68.2l-4.73,1.11s.18,3.72,2.46,3.43C257.47,72.51,258.3,68.75,257.93,68.2Z" fill="#231f20"/><path d="M255.41,73.26a2,2,0,0,1-1.35-.5c-1.22-1-1.35-3.33-1.36-3.43a.49.49,0,0,1,.39-.5l4.73-1.12a.51.51,0,0,1,.53.21c.4.61,0,2.31-.46,3.29a3,3,0,0,1-2.17,2A1.63,1.63,0,0,1,255.41,73.26Zm-1.67-3.57a3.91,3.91,0,0,0,1,2.31,1.14,1.14,0,0,0,.9.25,1.78,1.78,0,0,0,1.11-.94,6.06,6.06,0,0,0,.81-2.5Z" fill="#231f20"/><path d="M268,44.1a37.3,37.3,0,0,0-1.47,3.61" fill="#fff"/><path d="M266.5,48.21a.41.41,0,0,1-.16,0,.5.5,0,0,1-.32-.63,38,38,0,0,1,1.5-3.67.5.5,0,1,1,.9.44A37,37,0,0,0,267,47.87.5.5,0,0,1,266.5,48.21Z" fill="#231f20"/><path d="M222.93,116.85a.52.52,0,0,1-.29-.09.51.51,0,0,1-.13-.72l18.57-27c-1.79-1.72-10.34-9.92-12.16-12.38A.51.51,0,0,1,229,76a.52.52,0,0,1,.72.11c1.93,2.62,12.26,12.45,12.37,12.55a.5.5,0,0,1,.06.66l-18.82,27.36A.53.53,0,0,1,222.93,116.85Z" fill="#231f20"/><path d="M241,79.85s1.59-4.14,2.68-7.62,1.1-5,2-4.28,1.23,3.56,0,7.5" fill="#fff"/><path d="M241,80.37a.39.39,0,0,1-.18,0,.51.51,0,0,1-.3-.66s1.6-4.17,2.67-7.6c.28-.9.49-1.67.66-2.3.42-1.55.61-2.25,1.19-2.45a1,1,0,0,1,.94.23c1.25,1,1.34,4.34.22,8a.52.52,0,1,1-1-.3c1.21-4,.7-6.47.15-6.92a13.64,13.64,0,0,0-.52,1.66c-.17.64-.38,1.42-.67,2.34-1.08,3.46-2.67,7.62-2.69,7.66A.51.51,0,0,1,241,80.37Z" fill="#231f20"/><polygon points="283.43 189.58 276.76 189.9 277.23 223.59 284.27 224.68 283.43 189.58" fill="#fff"/><path d="M284.27,225.2h-.08l-7-1.09a.51.51,0,0,1-.43-.5l-.48-33.69a.52.52,0,0,1,.49-.52l6.67-.33a.51.51,0,0,1,.38.14.5.5,0,0,1,.16.36l.85,35.11a.55.55,0,0,1-.18.4A.53.53,0,0,1,284.27,225.2Zm-6.53-2,6,.93-.82-34-5.64.27Z" fill="#231f20"/><path d="M283.43,189.58c-.19.45.84,35.1.84,35.1l31.9-1,.31-33.79Z" fill="#fff"/><path d="M284.27,225.2a.5.5,0,0,1-.35-.14.58.58,0,0,1-.17-.36c-1-34.77-.86-35.18-.8-35.32a.62.62,0,0,1,.48-.32l33.06.36a.52.52,0,0,1,.51.52l-.31,33.79a.51.51,0,0,1-.5.51l-31.9,1Zm-.35-35.1c0,3.11.48,21.39.85,34.05l30.89-.92.3-32.78Z" fill="#231f20"/><path d="M290.29,202.25a.51.51,0,0,1-.45-.26L283,189.83a.51.51,0,0,1,.19-.7.53.53,0,0,1,.71.19l6.71,11.89,20.24-.12L316,189.72a.52.52,0,0,1,.94.43l-5.31,11.67a.53.53,0,0,1-.47.3l-20.88.13Z" fill="#231f20"/><rect x="300.3" y="199.08" width="3.08" height="6.17" transform="translate(-7.21 11.21) rotate(-2.1)" fill="#d1d3d4"/><path d="M256.89,263.93l-.26,8.49-6.86.93.2-2.93a6.81,6.81,0,0,1-4.4,3.27c-3.14.71-10.82,2.36-13.38,1.42s6.31-10.18,6.31-10.18" fill="#fff"/><path d="M234.45,275.91a7.37,7.37,0,0,1-2.44-.32,1.17,1.17,0,0,1-.77-.86c-.53-2.3,5.65-8.86,6.89-10.16a.52.52,0,0,1,.73,0,.51.51,0,0,1,0,.73c-2.93,3-6.92,7.92-6.62,9.21,0,.06,0,.09.11.12,1.68.62,6.33.11,13.1-1.44a6.3,6.3,0,0,0,4-3,.51.51,0,0,1,.6-.27.5.5,0,0,1,.38.53l-.15,2.29,5.8-.79.25-8a.52.52,0,0,1,.53-.5.51.51,0,0,1,.5.53l-.26,8.48a.53.53,0,0,1-.45.5l-6.86.93a.53.53,0,0,1-.42-.13.52.52,0,0,1-.17-.42l.08-1.18a7.21,7.21,0,0,1-3.64,2.06A56.56,56.56,0,0,1,234.45,275.91Z" fill="#231f20"/><path d="M271.66,264.7l.43,7.67,4.89.79.16-2.46a8.65,8.65,0,0,0,4.13,3.06c2.57.79,15.21,3.64,16,1.07s-5.53-6.61-7-10.41" fill="#fff"/><path d="M293.83,276.38c-4.91,0-12.61-2.1-12.71-2.13a8.63,8.63,0,0,1-3.55-2.25l-.08,1.2a.52.52,0,0,1-.19.36.52.52,0,0,1-.4.11l-4.9-.79a.51.51,0,0,1-.43-.48l-.43-7.68a.52.52,0,0,1,.49-.54.5.5,0,0,1,.54.49l.41,7.26,3.92.63.13-1.9a.51.51,0,0,1,.94-.25,8.16,8.16,0,0,0,3.85,2.85c4.18,1.29,14.83,3.13,15.36,1.42.35-1.14-1.39-3-3.07-4.82s-3.21-3.46-3.89-5.26a.51.51,0,0,1,1-.37c.61,1.61,2.18,3.3,3.69,4.93,2,2.21,3.82,4.11,3.29,5.82C297.45,276,295.88,276.38,293.83,276.38Z" fill="#231f20"/><path d="M290.17,164.64a.52.52,0,0,1-.52-.52l-.45-66.67a.51.51,0,0,1,.51-.52h0a.51.51,0,0,1,.51.51l.45,66.68a.53.53,0,0,1-.51.52Z" fill="#231f20"/><path d="M250.56,129.05a.53.53,0,0,1-.48-.3c-.3-.69-7.48-16.78-7.79-17.69-.09-.29-.38-1.14,5.71-8.14a55.92,55.92,0,0,0-5.38-3.49.69.69,0,0,1-.39-.41c-.24-.79,2.23-4.45,7.32-10.87a.52.52,0,0,1,.81.65c-3.19,4-6.53,8.56-7.06,9.81,1.37.71,5,3.25,5.76,3.79a.53.53,0,0,1,.09.77c-2.76,3.15-5.67,6.82-5.86,7.63.46,1.18,5.71,13,7.74,17.52a.53.53,0,0,1-.26.69A.52.52,0,0,1,250.56,129.05Z" fill="#231f20"/><path d="M272.38,122.47a.57.57,0,0,1-.22,0,.52.52,0,0,1-.25-.69L278,108.61l-5.43-5.42a.52.52,0,0,1-.15-.39.56.56,0,0,1,.19-.38l5.91-4.78-6.91-10.37a.52.52,0,0,1,.86-.58l7.17,10.77a.5.5,0,0,1-.1.68l-5.83,4.73,5.27,5.27a.5.5,0,0,1,.1.58l-6.27,13.46A.53.53,0,0,1,272.38,122.47Z" fill="#231f20"/><path d="M233.81,156.54a.51.51,0,0,1-.43-.25.5.5,0,0,1,.18-.68l9.85-5.86a.49.49,0,0,1,.68.17.5.5,0,0,1-.17.69l-9.85,5.86A.48.48,0,0,1,233.81,156.54Z" fill="#231f20"/><path d="M282.84,159.23a.49.49,0,0,1-.32-.12l-7.78-6.65a.51.51,0,0,1-.05-.71.49.49,0,0,1,.7-.05l7.78,6.65a.5.5,0,0,1-.33.88Z" fill="#231f20"/><path d="M260.89,173.45a.49.49,0,0,1-.49-.41c-.56-3.19-1.44-24.53-1.48-25.44a.49.49,0,0,1,.47-.51.51.51,0,0,1,.52.47c0,.23.92,22.19,1.47,25.31a.5.5,0,0,1-.4.58Z" fill="#fff"/><path d="M228.79,145.27h0a.51.51,0,0,1-.5-.53L229,117a.51.51,0,0,1,.51-.5h0a.51.51,0,0,1,.5.53l-.71,27.71A.52.52,0,0,1,228.79,145.27Z" fill="#231f20"/><path d="M351.2,206.53a29.93,29.93,0,0,1,7.66-5c.23,8.19-3.09,15.73-6.16,20.88h-10" fill="#fff"/><path d="M352.7,222.93h-10a.52.52,0,1,1,0-1h9.69c2.78-4.73,6-11.83,6-19.57a30.88,30.88,0,0,0-6.81,4.58.52.52,0,0,1-.69-.77,30.53,30.53,0,0,1,7.81-5.09.52.52,0,0,1,.47,0,.51.51,0,0,1,.24.42c.24,8.43-3.26,16.16-6.24,21.16A.52.52,0,0,1,352.7,222.93Z" fill="#231f20"/><path d="M336.89,208.73c2.45-12.81,12.49-20.86,12.49-20.86a46.48,46.48,0,0,1,1.82,18.66,68.32,68.32,0,0,1-3.45,15.88H337" fill="#fff"/><path d="M347.75,222.93H337a.52.52,0,0,1,0-1h10.38a68.43,68.43,0,0,0,3.31-15.42,46.15,46.15,0,0,0-1.57-17.71c-2.15,1.94-9.68,9.35-11.73,20.06a.51.51,0,0,1-1-.2c2.46-12.85,12.57-21.08,12.68-21.17a.52.52,0,0,1,.47-.09.5.5,0,0,1,.34.34,46.81,46.81,0,0,1,1.85,18.86,69.47,69.47,0,0,1-3.48,16A.53.53,0,0,1,347.75,222.93Z" fill="#231f20"/><path d="M331.58,222.42h9.51c.1-2.82-.54-7.09-3.6-12.62l-.61-1.07c-5.51-9.33-10.55-9.23-10.55-9.23C324.2,209.32,328.7,218.07,331.58,222.42Z" fill="#fff"/><path d="M341.09,222.93h-9.51a.5.5,0,0,1-.43-.23c-2.92-4.4-7.5-13.29-5.33-23.31a.54.54,0,0,1,.5-.41c.21,0,5.41,0,11,9.49l.61,1.08c3.19,5.78,3.76,10.2,3.67,12.88A.52.52,0,0,1,341.09,222.93Zm-9.23-1h8.72c0-2.59-.66-6.63-3.54-11.85-.21-.36-.41-.72-.6-1.06-4.41-7.46-8.44-8.72-9.7-8.93C324.91,209.35,329.07,217.62,331.86,221.9Z" fill="#231f20"/><polygon points="333.31 237.5 351.97 237.5 354.98 222.42 330.3 222.42 333.31 237.5" fill="#231f20"/><circle cx="107.28" cy="83.45" r="15.79" fill="#fff"/><path d="M107.28,99.7a16.25,16.25,0,1,1,16.26-16.25A16.27,16.27,0,0,1,107.28,99.7Zm0-31.58a15.33,15.33,0,1,0,15.33,15.33A15.35,15.35,0,0,0,107.28,68.12Z" fill="#d1d3d4"/><polyline points="98.8 77.65 107.28 85.88 107.28 71.74" fill="#fff"/><path d="M107.28,86.34a.45.45,0,0,1-.32-.13L98.48,78a.46.46,0,0,1,0-.65.47.47,0,0,1,.65,0l7.7,7.47V71.74a.47.47,0,0,1,.46-.46.46.46,0,0,1,.46.46V85.88a.47.47,0,0,1-.28.43A.52.52,0,0,1,107.28,86.34Z" fill="#d1d3d4"/><path d="M154.5,151.31V148H128.37l-7.53-27.3a3.3,3.3,0,0,0-3.17-2.41H80.91a3.29,3.29,0,0,0-3.13,4.32l9.35,28.47Z" fill="#231f20"/><path d="M123.54,147.32H86.16a.5.5,0,1,1,0-1h37.38a.5.5,0,1,1,0,1Z" fill="#fff"/></g></svg>