<svg xmlns="http://www.w3.org/2000/svg" viewBox="0 0 400 300"><g id="_162_career_flatline" data-name="#162_career_flatline"><path d="M253.13,60.11C271.57,72.64,280.44,51.24,290,65V45.33C272.91,36.46,275,56.17,253.13,60.11Z" fill="#68e1fd"/><polygon points="260.85 93.96 260.85 123.47 218.75 123.47 218.75 152.97 218.75 152.97 176.64 152.97 176.64 182.48 176.64 182.48 176.64 182.48 176.64 182.48 134.54 182.48 134.54 211.99 92.44 211.99 92.44 241.49 317.3 241.49 317.3 93.96 260.85 93.96" fill="#fff"/><path d="M317.3,242H92.44a.52.52,0,0,1-.52-.52V212a.52.52,0,0,1,.52-.52H134v-29a.52.52,0,0,1,.52-.52h41.59V153a.51.51,0,0,1,.51-.51h41.59v-29a.51.51,0,0,1,.51-.52h41.59V94a.52.52,0,0,1,.52-.52H317.3a.52.52,0,0,1,.52.52V241.49A.52.52,0,0,1,317.3,242ZM93,241H316.79V94.48H261.36v29a.51.51,0,0,1-.51.51H219.26v29a.52.52,0,0,1-.52.52H177.16v29a.52.52,0,0,1-.52.52H135.05v29a.51.51,0,0,1-.51.51H93Z" fill="#231f20"/><rect x="68.88" y="159.01" width="31.58" height="20.48" rx="2.68" transform="translate(61.87 -18.62) rotate(19.66)" fill="#fff"/><path d="M94.47,184a3.34,3.34,0,0,1-1.07-.18h0L68.71,175a3.18,3.18,0,0,1-1.92-4.06l5.08-14.25a3.22,3.22,0,0,1,1.64-1.8,3.17,3.17,0,0,1,2.42-.12l24.7,8.82a3.18,3.18,0,0,1,1.92,4.06l-5.09,14.24A3.18,3.18,0,0,1,94.47,184Zm-.73-1.12a2.18,2.18,0,0,0,2.78-1.32l5.09-14.24a2.18,2.18,0,0,0-1.32-2.78L75.6,155.66a2.2,2.2,0,0,0-1.67.09A2.11,2.11,0,0,0,72.82,157l-5.09,14.24A2.17,2.17,0,0,0,69.05,174l24.69,8.83Z" fill="#231f20"/><path d="M98,169.51l-.17,0-23.51-8.4a.5.5,0,0,1,.34-.94l23.51,8.4a.5.5,0,0,1-.17,1Z" fill="#d1d3d4"/><path d="M93.61,162.07a.47.47,0,0,1-.17,0l-11-3.93a.49.49,0,0,1-.28-.25.48.48,0,0,1,0-.39l.75-2.1a2.53,2.53,0,0,1,3.22-1.53l7.18,2.57a2.52,2.52,0,0,1,1.53,3.22l-.75,2.1A.51.51,0,0,1,93.61,162.07Zm-10.35-4.73,10,3.59.59-1.64a1.52,1.52,0,0,0-.92-1.94l-7.18-2.56a1.53,1.53,0,0,0-2,.92Z" fill="#231f20"/><path d="M171.49,91.67s4.61-1.75,4.87-2.8-.79-3-.79-3,5.26-4,4.47-4.81-13.42,6.75-13.42,6.75" fill="#fff"/><path d="M171.49,92.17a.5.5,0,0,1-.18-1c2.29-.87,4.42-2,4.57-2.47a5.07,5.07,0,0,0-.75-2.59.5.5,0,0,1,.14-.64,23.92,23.92,0,0,0,4.23-3.91c-1.65.45-7.45,3.59-12.62,6.68a.49.49,0,0,1-.68-.18.48.48,0,0,1,.17-.68c13-7.74,13.74-7,14-6.67a.78.78,0,0,1,.22.63c-.07,1.15-2.89,3.49-4.41,4.67a5.2,5.2,0,0,1,.64,2.94c-.3,1.18-3.72,2.59-5.18,3.15A.57.57,0,0,1,171.49,92.17Z" fill="#231f20"/><path d="M95.64,148.89s-.76,2-1.14,3.54a20.23,20.23,0,0,0-.28,4.27c-.4-.4-1-.45-1.41-.8a5.52,5.52,0,0,1-.27,1.81,1.83,1.83,0,0,1-1.29,1.2,2.45,2.45,0,0,1-1-.06c-1.15-.26-3.06-.76-3.43-2.08a2.76,2.76,0,0,1,.16-1.55c.66-2.06,4-7.58,4.54-8.47" fill="#fff"/><path d="M91,159.44a3.42,3.42,0,0,1-.79-.11c-1-.22-3.34-.74-3.8-2.43a3.25,3.25,0,0,1,.16-1.83c.74-2.3,4.55-8.52,4.59-8.59A.5.5,0,0,1,92,147c-1,1.59-3.89,6.53-4.48,8.37a2.36,2.36,0,0,0-.16,1.26c.31,1.1,2.31,1.55,3.06,1.72a1.93,1.93,0,0,0,.77.06,1.36,1.36,0,0,0,.91-.89,5,5,0,0,0,.24-1.65.5.5,0,0,1,.29-.44.51.51,0,0,1,.52.07,2.29,2.29,0,0,0,.54.29l0,0a16.94,16.94,0,0,1,.3-3.51c.38-1.51,1.13-3.51,1.16-3.59a.5.5,0,0,1,.64-.29.5.5,0,0,1,.3.64s-.76,2-1.13,3.48a20.42,20.42,0,0,0-.26,4.13.49.49,0,0,1-.29.47.49.49,0,0,1-.56-.1,1.78,1.78,0,0,0-.6-.33h0A3.92,3.92,0,0,1,93,157.9a2.36,2.36,0,0,1-1.66,1.51A2.43,2.43,0,0,1,91,159.44Z" fill="#231f20"/><path d="M120.43,120.88c-.58.32-21.65,25.51-24.5,30.57l-6.85-3.38s7-15.51,23.23-35.42C119.33,108.14,120.43,120.88,120.43,120.88Z" fill="#68e1fd"/><path d="M139.88,140.39s27.15,4,27.68,8.56-4.73,27.71-4.73,27.71l-11.78-1.24s4.55-20.22,3.34-21.16S132,151.61,132,151.61L113.12,209.5l-11.44-1.74L115,145Z" fill="#231f20"/><path d="M113.12,210h-.07l-11.45-1.74a.46.46,0,0,1-.33-.21.47.47,0,0,1-.08-.38l13.31-62.75a.49.49,0,0,1,.4-.38l24.89-4.63a.43.43,0,0,1,.16,0c.07,0,6.89,1,13.68,2.59,14.05,3.23,14.33,5.62,14.42,6.4.53,4.55-4.52,26.93-4.74,27.88a.49.49,0,0,1-.54.39L151,175.92a.5.5,0,0,1-.35-.21.48.48,0,0,1-.09-.4c2.12-9.37,4-19.68,3.46-20.72-.94-.57-13.61-1.8-21.64-2.45l-18.79,57.52A.5.5,0,0,1,113.12,210Zm-10.85-2.65,10.51,1.6,18.78-57.49a.5.5,0,0,1,.51-.34c5,.4,21.39,1.78,22.62,2.75s-1,11.86-3,21.12l10.78,1.13c.71-3.19,5.09-23.07,4.62-27.11-.35-3-16.81-6.57-27.17-8.11l-24.49,4.54Z" fill="#231f20"/><path d="M139.88,140.39,115,145l6.18-36.76s12.52-.47,14.76.82S139.88,140.39,139.88,140.39Z" fill="#fff"/><path d="M115,145.52a.52.52,0,0,1-.5-.59l6.19-36.76a.49.49,0,0,1,.48-.41c1.29-.05,12.72-.44,15,.88s3.79,24.61,4.2,31.72a.5.5,0,0,1-.41.52l-24.89,4.63Zm6.61-36.78-6,35.65L139.35,140c-.83-14.33-2.42-29.54-3.68-30.47C134,108.55,125.32,108.62,121.6,108.74Z" fill="#231f20"/><path d="M125.39,105.71c-.37.24.71,5.59.77,6.08.56,4.51,1.33,9.1,1.74,13.61.8,8.91-4.47,18.36-8.34,26a5.12,5.12,0,0,1-2.14,2.58,4.58,4.58,0,0,1-2.41.2,24.63,24.63,0,0,1-9.76-3.25,2.37,2.37,0,0,1-1-.92,2.56,2.56,0,0,1,.28-2.12c3.89-8.71,4.11-22.46,5.38-31.91C118.57,106.59,119.42,109.56,125.39,105.71Z" fill="#68e1fd"/><path d="M142.61,101.77c.15,0,.75,15.57.8,16.19.4,4.73-1.61,14.84-3.9,18.89.12-5.13-2.52-11.74-4.74-16.27-1.08-2.21-1.31-7-1.55-9.4,0-.24-.67-5.6-.79-5.61S138.65,101,142.61,101.77Z" fill="#68e1fd"/><path d="M130.51,112.06l-1.89,1.84,1.53,1.06s-1.61,12-7.29,13.7-7.87,1.12-7.87,1.12l-3.13,4.05s4.86,1.39,5.21,1.51,10.65-2.29,12.28-8.67a66.23,66.23,0,0,0,1.89-11.48l1-1.29Z" fill="#231f20"/><path d="M124.22,124.45a.48.48,0,0,1-.4-.21l-4.8-6.52a.5.5,0,0,1,0-.64l2.68-2.77-3.32-.87a.47.47,0,0,1-.35-.34.49.49,0,0,1,.11-.48l4.39-4.71a.5.5,0,1,1,.73.69l-3.82,4.09,3.34.87a.5.5,0,0,1,.36.34.51.51,0,0,1-.12.49l-3,3.08,4.54,6.18a.5.5,0,0,1-.4.8Z" fill="#231f20"/><path d="M111,147.25a.5.5,0,0,1-.19-1c2.84-1.17,8-3.46,8.06-3.48a.5.5,0,0,1,.66.25.49.49,0,0,1-.25.66c-.05,0-5.23,2.32-8.09,3.5A.65.65,0,0,1,111,147.25Z" fill="#231f20"/><path d="M134.77,104.08c.44-.25,33.38-18.17,33.38-18.17l5.86,5.9-34.13,22.1Z" fill="#68e1fd"/><path d="M143.29,115.69h0a.51.51,0,0,1-.46-.55c0-.08.66-8-1.12-10.78a.5.5,0,0,1,.84-.54c2,3.08,1.3,11.07,1.28,11.41A.52.52,0,0,1,143.29,115.69Z" fill="#231f20"/><path d="M137,119.76l-.17,0a.49.49,0,0,1-.3-.63l2.7-7.51-3.27-.78a.5.5,0,0,1-.31-.75l2.16-3.44-2.8-.56a.5.5,0,0,1-.39-.59.49.49,0,0,1,.59-.39l3.51.7a.49.49,0,0,1,.36.29.5.5,0,0,1,0,.46L136.86,110l3.13.75a.56.56,0,0,1,.33.25.53.53,0,0,1,0,.41l-2.89,8A.48.48,0,0,1,137,119.76Z" fill="#231f20"/><path d="M152.28,175.42l-2,6.84,20.61.36c-1.05-4.57-8-6-8-6" fill="#fff"/><path d="M170.87,183.12h0l-20.61-.36a.47.47,0,0,1-.39-.2.53.53,0,0,1-.08-.44l2-6.84a.5.5,0,1,1,1,.28l-1.83,6.22,19.26.32c-1.44-3.7-7.4-4.93-7.46-4.95a.5.5,0,0,1-.4-.58.51.51,0,0,1,.59-.4c.3.06,7.33,1.51,8.44,6.33a.48.48,0,0,1-.1.43A.49.49,0,0,1,170.87,183.12Z" fill="#231f20"/><path d="M126.21,104.67c-4.77,1.68-7.8-6.52-8.55-10.14a6.32,6.32,0,0,1-.14-2.41,5.45,5.45,0,0,1,2.8-3.54,34.42,34.42,0,0,1,4.28-1.83,20.67,20.67,0,0,0,8.23-6.27c.73-.93,1.56-2,2.75-2a2.57,2.57,0,0,1,1.91,1.07,5.25,5.25,0,0,1,.63,5.1c-.67,1.76-2,2.84-3.39,4,.94,1.06,1.37,1.31,1.28,2.71a11.13,11.13,0,0,1-1.11,3.78,26.78,26.78,0,0,1-2.21,3.53c-1.66,2.47-3.33,4.78-6.25,5.94Z" fill="#fff"/><path d="M125,105.4a4.15,4.15,0,0,1-2.09-.58c-3.2-1.8-5.12-7.45-5.69-10.19A6.75,6.75,0,0,1,117,92a6,6,0,0,1,3-3.88,18.22,18.22,0,0,1,3-1.34l1.34-.52a20.14,20.14,0,0,0,8-6.12c.8-1,1.74-2.22,3.14-2.22h0a3.06,3.06,0,0,1,2.3,1.25,5.77,5.77,0,0,1,.71,5.59,9.76,9.76,0,0,1-3.14,3.89,3,3,0,0,1,1.06,2.69,11.9,11.9,0,0,1-1.16,4,20.08,20.08,0,0,1-1.73,2.84l-.52.75c-1.78,2.65-3.49,4.94-6.48,6.12l-.25.1h0A4.47,4.47,0,0,1,125,105.4Zm1.26-.73h0ZM135.58,79h0c-.92,0-1.66,1-2.32,1.78a21.09,21.09,0,0,1-8.47,6.48c-.45.19-.91.36-1.37.54A18.36,18.36,0,0,0,120.57,89a5,5,0,0,0-2.56,3.2,6.09,6.09,0,0,0,.14,2.22c.62,3,2.52,8,5.2,9.52a3.08,3.08,0,0,0,2.69.25l.22-.08c2.72-1.08,4.27-3.15,6-5.75l.53-.76a19,19,0,0,0,1.65-2.7,11,11,0,0,0,1.06-3.6,2.06,2.06,0,0,0-.81-2l-.34-.38a.51.51,0,0,1-.13-.37.54.54,0,0,1,.18-.35l.22-.18a9.28,9.28,0,0,0,3-3.63,4.76,4.76,0,0,0-.55-4.61A2.06,2.06,0,0,0,135.58,79Z" fill="#231f20"/><path d="M136.07,95.55s2.48,3.27,2.06,4-2,.37-2,.37" fill="#fff"/><path d="M137,100.53a4.37,4.37,0,0,1-.94-.11.5.5,0,0,1,.22-1c.51.11,1.31.13,1.47-.13a11.43,11.43,0,0,0-2-3.47.5.5,0,0,1,.8-.61c1.22,1.62,2.58,3.72,2.09,4.57A1.75,1.75,0,0,1,137,100.53Z" fill="#231f20"/><path d="M134.88,88.06c1.52,1.08,1.67,6.59,1.77,8.21q.18,3.41.23,6.83c0,1.44-3.72,1.71-4.41,1.33l1,5.65s-1.76.61-4.86-.59-3.18-1.91-3.18-1.91l-.17-6.59A4.7,4.7,0,0,0,129,97.82c1.27-3,.92-7.54.92-7.54S133.4,87,134.88,88.06Z" fill="#fff"/><path d="M132.15,110.73a10.44,10.44,0,0,1-3.76-.78c-2.95-1.14-3.46-1.94-3.49-2.32l-.18-6.63a.5.5,0,0,1,.47-.51,4.21,4.21,0,0,0,3.3-2.86c1.21-2.89.88-7.27.88-7.31a.53.53,0,0,1,.16-.41c.64-.59,3.92-3.49,5.64-2.26h0c1.41,1,1.78,4.68,2,8.15l0,.44c.13,2.27.21,4.57.24,6.85a1.54,1.54,0,0,1-.88,1.34,6.78,6.78,0,0,1-3.41.64l.83,4.93a.5.5,0,0,1-.33.55A4.51,4.51,0,0,1,132.15,110.73Zm-6.26-3.27c.11.14.66.71,2.86,1.56a8.52,8.52,0,0,0,4.1.67l-.87-5.18a.5.5,0,0,1,.21-.49.51.51,0,0,1,.53,0,5.44,5.44,0,0,0,3.29-.44c.25-.15.37-.3.37-.45,0-2.26-.11-4.55-.23-6.81l0-.44c-.08-1.61-.33-6.53-1.53-7.39-.75-.53-2.88.85-4.21,2a19.11,19.11,0,0,1-1,7.52,5.38,5.38,0,0,1-3.68,3.4Z" fill="#231f20"/><path d="M136.71,101.41a2.69,2.69,0,0,1-3.15-1.51" fill="#fff"/><path d="M136,102a3.26,3.26,0,0,1-2.91-1.86.5.5,0,0,1,.88-.48,2.17,2.17,0,0,0,2.56,1.27.5.5,0,1,1,.31.95A2.82,2.82,0,0,1,136,102Z" fill="#231f20"/><path d="M131.8,97.29a3,3,0,0,0-.73-1.52,4.64,4.64,0,0,0-.89-1,1.51,1.51,0,0,0-1.25-.3,1.4,1.4,0,0,0-.85.77,2.6,2.6,0,0,0-.21,1.14,4.86,4.86,0,0,0,2.53,4.18l-.14-.12" fill="#fff"/><path d="M130.33,101.07a.3.3,0,0,1-.17,0,5.34,5.34,0,0,1-2.79-4.61,3.16,3.16,0,0,1,.26-1.37,1.86,1.86,0,0,1,1.16-1,2,2,0,0,1,1.68.37,4.85,4.85,0,0,1,1,1.09,3.56,3.56,0,0,1,.83,1.78.49.49,0,0,1-.46.53.5.5,0,0,1-.53-.46,2.79,2.79,0,0,0-.64-1.26,4.14,4.14,0,0,0-.79-.87,1,1,0,0,0-.82-.22.92.92,0,0,0-.53.5,2.22,2.22,0,0,0-.16.93,4.4,4.4,0,0,0,2,3.58.43.43,0,0,1,.25.11.62.62,0,0,1,.13.72A.54.54,0,0,1,130.33,101.07Z" fill="#231f20"/><path d="M132.47,104.43a6.05,6.05,0,0,1-2.95-1.75s.35,3.45,3.38,4.26Z" fill="#231f20"/><path d="M132.9,107.44h-.13c-3.33-.89-3.74-4.54-3.75-4.7a.5.5,0,0,1,.89-.36,5.48,5.48,0,0,0,2.68,1.57.5.5,0,0,1,.38.4l.42,2.52a.48.48,0,0,1-.16.45A.46.46,0,0,1,132.9,107.44Zm-2.47-3.34a4.09,4.09,0,0,0,1.83,2.07l-.23-1.35A7.72,7.72,0,0,1,130.43,104.1Z" fill="#231f20"/><ellipse cx="134.67" cy="94.06" rx="0.81" ry="0.32" transform="translate(27.23 218.32) rotate(-84.08)" fill="#231f20"/><line x1="135.32" y1="93.37" x2="133.68" y2="92.74" fill="#fff"/><path d="M135.32,93.87a.57.57,0,0,1-.18,0l-1.64-.63a.51.51,0,0,1-.28-.65.5.5,0,0,1,.64-.29l1.64.63a.51.51,0,0,1,.28.65A.48.48,0,0,1,135.32,93.87Z" fill="#231f20"/><line x1="104.75" y1="138.33" x2="116.04" y2="125.58" fill="#fff"/><path d="M104.75,138.83a.5.5,0,0,1-.33-.13.5.5,0,0,1,0-.7l11.28-12.75a.51.51,0,0,1,.71,0,.5.5,0,0,1,0,.71l-11.28,12.75A.52.52,0,0,1,104.75,138.83Z" fill="#231f20"/><path d="M102.11,204.86l-2,6.84,20.61.35c-1-4.56-8-6-8-6" fill="#fff"/><path d="M120.7,212.55h0l-20.61-.35a.5.5,0,0,1-.47-.64l2-6.84a.5.5,0,1,1,1,.28l-1.83,6.21,19.26.33c-1.44-3.7-7.4-4.93-7.46-4.95a.5.5,0,1,1,.19-1c.3.06,7.33,1.51,8.44,6.33a.51.51,0,0,1-.1.43A.48.48,0,0,1,120.7,212.55Z" fill="#231f20"/><path d="M290,93.89a.52.52,0,0,1-.52-.52V42.72a.52.52,0,0,1,.52-.52.53.53,0,0,1,.52.52V93.37A.52.52,0,0,1,290,93.89Z" fill="#231f20"/><rect x="214.81" y="217.56" width="20.45" height="23.93" fill="#231f20"/><path d="M235.27,242H214.81a.49.49,0,0,1-.49-.5V217.56a.5.5,0,0,1,.49-.5h20.46a.5.5,0,0,1,.49.5v23.93A.49.49,0,0,1,235.27,242Zm-20-1h19.46V218.06H215.31Z" fill="#231f20"/><path d="M167.82,223.22h-15a.5.5,0,0,1-.5-.5V208.46a.5.5,0,0,1,.5-.5h15a.5.5,0,0,1,.5.5v14.26A.5.5,0,0,1,167.82,223.22Zm-14.47-1h14V209h-14Z" fill="#d1d3d4"/><path d="M200.17,223.22h-15a.5.5,0,0,1-.5-.5V208.46a.5.5,0,0,1,.5-.5h15a.5.5,0,0,1,.5.5v14.26A.5.5,0,0,1,200.17,223.22Zm-14.47-1h14V209h-14Z" fill="#d1d3d4"/><path d="M264.88,223.22h-15a.5.5,0,0,1-.5-.5V208.46a.5.5,0,0,1,.5-.5h15a.5.5,0,0,1,.5.5v14.26A.5.5,0,0,1,264.88,223.22Zm-14.47-1h14V209h-14Z" fill="#d1d3d4"/><path d="M297.23,223.22h-15a.5.5,0,0,1-.5-.5V208.46a.5.5,0,0,1,.5-.5h15a.5.5,0,0,1,.5.5v14.26A.5.5,0,0,1,297.23,223.22Zm-14.47-1h14V209h-14Z" fill="#d1d3d4"/><path d="M264.88,193.78h-15a.5.5,0,0,1-.5-.5V179a.5.5,0,0,1,.5-.5h15a.5.5,0,0,1,.5.5v14.26A.5.5,0,0,1,264.88,193.78Zm-14.47-1h14V179.52h-14Z" fill="#d1d3d4"/><path d="M297.23,193.78h-15a.5.5,0,0,1-.5-.5V179a.5.5,0,0,1,.5-.5h15a.5.5,0,0,1,.5.5v14.26A.5.5,0,0,1,297.23,193.78Zm-14.47-1h14V179.52h-14Z" fill="#d1d3d4"/><path d="M200.17,193.78h-15a.5.5,0,0,1-.5-.5V179a.5.5,0,0,1,.5-.5h15a.5.5,0,0,1,.5.5v14.26A.5.5,0,0,1,200.17,193.78Zm-14.47-1h14V179.52h-14Z" fill="#d1d3d4"/><path d="M232.52,193.78h-15a.5.5,0,0,1-.5-.5V179a.5.5,0,0,1,.5-.5h15a.5.5,0,0,1,.5.5v14.26A.5.5,0,0,1,232.52,193.78Zm-14.46-1h14V179.52h-14Z" fill="#d1d3d4"/><path d="M264.88,164.35h-15a.5.5,0,0,1-.5-.5V149.58a.5.5,0,0,1,.5-.5h15a.5.5,0,0,1,.5.5v14.27A.51.51,0,0,1,264.88,164.35Zm-14.47-1h14V150.08h-14Z" fill="#d1d3d4"/><path d="M297.23,164.35h-15a.5.5,0,0,1-.5-.5V149.58a.5.5,0,0,1,.5-.5h15a.5.5,0,0,1,.5.5v14.27A.51.51,0,0,1,297.23,164.35Zm-14.47-1h14V150.08h-14Z" fill="#d1d3d4"/><rect x="278.45" y="87.85" width="21.4" height="6.11" fill="#fff"/><path d="M299.84,94.48H278.45a.52.52,0,0,1-.52-.52V87.85a.52.52,0,0,1,.52-.52h21.39a.52.52,0,0,1,.52.52V94A.52.52,0,0,1,299.84,94.48Zm-20.88-1h20.37V88.36H279Z" fill="#231f20"/><rect x="84.9" y="163.02" width="1.93" height="4.7" transform="translate(59.99 -19.16) rotate(19.46)" fill="#d1d3d4"/></g></svg>