<svg xmlns="http://www.w3.org/2000/svg" viewBox="0 0 400 300"><g id="_313_cleaning_pc_flatline" data-name="#313_cleaning_pc_flatline"><path d="M332.83,228.47H67.17a.5.5,0,0,1-.5-.5.5.5,0,0,1,.5-.5H332.83a.5.5,0,0,1,.5.5A.5.5,0,0,1,332.83,228.47Z" fill="#d1d3d4"/><path d="M309.68,64.11V198a9.37,9.37,0,0,1-9.37,9.37H103A9.37,9.37,0,0,1,93.63,198V64.11A9.37,9.37,0,0,1,103,54.74H300.31A9.37,9.37,0,0,1,309.68,64.11Z" fill="#fff"/><path d="M300.31,207.78H103A9.84,9.84,0,0,1,93.17,198V64.11A9.84,9.84,0,0,1,103,54.28H300.31a9.84,9.84,0,0,1,9.83,9.83V198A9.84,9.84,0,0,1,300.31,207.78ZM103,55.2a8.92,8.92,0,0,0-8.91,8.91V198a8.92,8.92,0,0,0,8.91,8.91H300.31a8.92,8.92,0,0,0,8.91-8.91V64.11a8.91,8.91,0,0,0-8.91-8.91Z" fill="#231f20"/><path d="M309.68,64.11V183h-216V64.11A9.37,9.37,0,0,1,103,54.74H300.31A9.37,9.37,0,0,1,309.68,64.11Z" fill="#231f20"/><rect x="102.49" y="65.86" width="195.74" height="108.26" fill="#fff"/><path d="M298.24,174.58H102.49a.46.46,0,0,1-.45-.46V65.86a.45.45,0,0,1,.45-.46H298.24a.46.46,0,0,1,.46.46V174.12A.47.47,0,0,1,298.24,174.58ZM103,173.66H297.78V66.31H103Z" fill="#231f20"/><path d="M201.65,200.13a5,5,0,1,1,5-5A5,5,0,0,1,201.65,200.13Zm0-9a4,4,0,1,0,4,4A4,4,0,0,0,201.65,191.15Z" fill="#d1d3d4"/><path d="M227.17,224.31c-2.08-3.05-2.42-17-2.42-17H178.56s-.35,13.93-2.43,17-10.22,8-10.22,9.78,1.21,2.4,7.1,2.4h57.28c5.89,0,7.1-.64,7.1-2.4S229.25,227.36,227.17,224.31Z" fill="#fff"/><path d="M230.29,237H173c-5.22,0-7.55-.42-7.55-2.86,0-1.1,1.87-2.66,4.92-5.11,2.18-1.75,4.44-3.55,5.37-4.93,2-2.9,2.35-16.6,2.35-16.74a.46.46,0,0,1,.46-.44h46.19a.46.46,0,0,1,.46.44c0,.14.36,13.84,2.34,16.74.94,1.38,3.19,3.18,5.37,4.93,3.06,2.45,4.93,4,4.93,5.11C237.85,236.53,235.52,237,230.29,237ZM179,207.78c-.08,2.46-.55,13.95-2.49,16.79-1,1.48-3.32,3.33-5.56,5.12-1.93,1.56-4.58,3.68-4.58,4.4,0,1.17.46,1.94,6.64,1.94h57.28c6.18,0,6.65-.77,6.65-1.94,0-.72-2.65-2.84-4.59-4.4-2.23-1.79-4.54-3.64-5.55-5.12h0c-1.94-2.84-2.42-14.33-2.5-16.79Z" fill="#231f20"/><path d="M223.93,222.41H179.38a.5.5,0,0,1-.5-.5.5.5,0,0,1,.5-.5h44.55a.5.5,0,0,1,.5.5A.5.5,0,0,1,223.93,222.41Z" fill="#d1d3d4"/><path d="M179.38,161.74a.52.52,0,0,1-.37-.16.5.5,0,0,1,0-.71l91.84-85.18a.5.5,0,0,1,.71,0,.48.48,0,0,1,0,.7L179.71,161.6A.47.47,0,0,1,179.38,161.74Z" fill="#d1d3d4"/><path d="M122.57,155.73a.5.5,0,0,1-.33-.88l56.81-48.3a.5.5,0,1,1,.65.76l-56.81,48.3A.49.49,0,0,1,122.57,155.73Z" fill="#d1d3d4"/><path d="M244.42,155.73a.5.5,0,0,1-.32-.88l31.4-26.65a.49.49,0,0,1,.7.05.51.51,0,0,1-.06.71l-31.39,26.65A.52.52,0,0,1,244.42,155.73Z" fill="#d1d3d4"/><path d="M130.69,105.42a.52.52,0,0,1-.39-.19.5.5,0,0,1,.07-.7L165.6,75.67a.5.5,0,1,1,.63.77L131,105.3A.49.49,0,0,1,130.69,105.42Z" fill="#d1d3d4"/><path d="M227.85,107.75s-5.75-6.88-7.9-7.94c-4.23-2.08-11.89,3.52-11.43,4.22s6.75.08,7.61.08,3.61,2.73,3.61,2.73,3.15,4,4.5,6.25" fill="#fff"/><path d="M224.24,113.59a.48.48,0,0,1-.42-.24c-1.33-2.17-4.44-6.16-4.48-6.2a12.1,12.1,0,0,0-3.21-2.54c-.18,0-.62,0-1.19.07-4.9.33-6.43.24-6.84-.38-.31-.47.16-1,.32-1.17,1.51-1.71,7.9-5.66,11.75-3.77,2.22,1.09,7.83,7.78,8.06,8.07a.49.49,0,0,1-.06.7.51.51,0,0,1-.71-.06c-1.57-1.89-6-7-7.74-7.82s-3.87-.25-5.44.36a15.37,15.37,0,0,0-5.14,3.21,43.18,43.18,0,0,0,5.73-.14c.61,0,1.07-.07,1.26-.07,1,0,3.1,2,4,2.88.17.21,3.23,4.12,4.58,6.34a.5.5,0,0,1-.17.69A.48.48,0,0,1,224.24,113.59Z" fill="#231f20"/><path d="M211.51,94.13h1.91a0,0,0,0,1,0,0v17.12a1,1,0,0,1-1,1h0a1,1,0,0,1-1-1V94.13A0,0,0,0,1,211.51,94.13Z" transform="translate(7 219.65) rotate(-55.45)" fill="#fff"/><path d="M219.12,109.21a1.48,1.48,0,0,1-.83-.26l-14.1-9.71a.51.51,0,0,1-.13-.69L205.15,97a.47.47,0,0,1,.32-.21.45.45,0,0,1,.37.08l14.1,9.71a1.45,1.45,0,0,1-.56,2.63Zm-14-10.51,13.69,9.43a.41.41,0,0,0,.34.07.42.42,0,0,0,.29-.19.45.45,0,0,0-.11-.63L205.69,98Z" fill="#231f20"/><path d="M204,91.28l.1,1.46a8.12,8.12,0,0,0-3.44-5.17l-.19,1.06A5.68,5.68,0,0,1,199.25,86c-.09-.54-.27-1.26-.82-1.26s-1.1,1.18-1.73.9a.94.94,0,0,1-.37-.46c-.44-.9-.84-1.82-1.19-2.75a6.82,6.82,0,0,0-2.51,1.18,2.55,2.55,0,0,0-3.26-.7,1.08,1.08,0,0,0-.62.9c0,.16.06.31.06.47a1,1,0,0,1-.75.82c-.39.12-.8.13-1.17.26a2.09,2.09,0,0,0-1.16,2.52,3,3,0,0,0,2.19,1.91c-.21,1.21.89,2.28,2.06,2.65a6.32,6.32,0,0,1,1.2.42,7.27,7.27,0,0,1,1.36,1.3,4.32,4.32,0,0,0,3.86,1.14,2.24,2.24,0,0,0,3.35,1.94,1.48,1.48,0,0,0,2.26.71c-.66.55,1.41,1.2,1.75,1.12a4.31,4.31,0,0,0,2.13-2C206.85,95.24,205.4,92.54,204,91.28Z" fill="#fff"/><path d="M203.72,99.56a3.5,3.5,0,0,1-2.14-.89,1.91,1.91,0,0,1-1,0,2,2,0,0,1-1-.75,2.73,2.73,0,0,1-3.55-2,4.79,4.79,0,0,1-3.77-1.35c-.15-.15-.29-.31-.43-.46a3.46,3.46,0,0,0-.82-.77,3.66,3.66,0,0,0-.75-.26l-.37-.11a3.3,3.3,0,0,1-2.42-2.76A3.37,3.37,0,0,1,185.25,88a2.57,2.57,0,0,1,1.47-3.13,4.18,4.18,0,0,1,.7-.16,4.26,4.26,0,0,0,.49-.1c.22-.07.4-.23.4-.35a.77.77,0,0,0,0-.15,1.43,1.43,0,0,1,.82-1.65,3.07,3.07,0,0,1,3.6.46,7.64,7.64,0,0,1,2.31-1,.5.5,0,0,1,.59.31,29.51,29.51,0,0,0,1.17,2.71.7.7,0,0,0,.14.23,4.1,4.1,0,0,0,.32-.31,1.59,1.59,0,0,1,1.19-.64c1,0,1.23,1.22,1.32,1.68a5,5,0,0,0,.5,1.45.49.49,0,0,1,.25-.24.49.49,0,0,1,.47,0A8.65,8.65,0,0,1,204,90.78a.55.55,0,0,1,.34.13c1.44,1.34,3.05,4.29,2,6.41a4.69,4.69,0,0,1-2.46,2.22Zm-1.26-1.42a3.48,3.48,0,0,0,1.22.42h0a4.06,4.06,0,0,0,1.76-1.7c.61-1.18,0-2.84-.81-4.09a.49.49,0,0,1-.43.46.5.5,0,0,1-.56-.4,7.63,7.63,0,0,0-2.6-4.38l-.05.26a.49.49,0,0,1-.36.4.5.5,0,0,1-.51-.16,6.08,6.08,0,0,1-1.37-2.88c-.15-.85-.33-.87-.34-.85s-.32.2-.47.35c-.32.32-.81.8-1.46.5a1.34,1.34,0,0,1-.61-.69c-.38-.77-.73-1.56-1-2.37a6.58,6.58,0,0,0-1.92,1,.48.48,0,0,1-.37.09.46.46,0,0,1-.33-.2,2,2,0,0,0-2.6-.56c-.23.14-.38.32-.38.45l0,.14a2.09,2.09,0,0,1,0,.35,1.45,1.45,0,0,1-1.1,1.3,4.7,4.7,0,0,1-.63.13,3.13,3.13,0,0,0-.53.12,1.59,1.59,0,0,0-.84,1.9A2.46,2.46,0,0,0,188,89.29a.5.5,0,0,1,.38.57c-.16.91.74,1.78,1.71,2.09l.33.09a4.48,4.48,0,0,1,1,.36,4.13,4.13,0,0,1,1.09,1c.13.14.25.28.38.41a3.84,3.84,0,0,0,3.4,1,.53.53,0,0,1,.42.1.54.54,0,0,1,.19.39,1.78,1.78,0,0,0,.87,1.5,1.8,1.8,0,0,0,1.73,0,.49.49,0,0,1,.44,0,.48.48,0,0,1,.29.33,1,1,0,0,0,1.45.46.51.51,0,0,1,.71.06A.49.49,0,0,1,202.46,98.14Z" fill="#231f20"/><path d="M220.75,106.59s-8.19.93-8.29-.28,6.69-2.2,6.69-2.2" fill="#fff"/><path d="M215.52,107.43a6.38,6.38,0,0,1-3.25-.52.84.84,0,0,1-.31-.56c-.09-1.11,2.31-2,7.12-2.73a.51.51,0,0,1,.57.42.51.51,0,0,1-.43.57c-2.88.42-5.55,1.13-6.16,1.61.89.35,4.51.23,7.64-.12a.5.5,0,0,1,.11,1A52.62,52.62,0,0,1,215.52,107.43Z" fill="#231f20"/><path d="M320.49,151.85s12.56,5.94,13.59,7.49,1,8.94-1.25,7.63c-2.74-1.58-15.29-9.21-15.29-9.21Z" fill="#fff"/><path d="M333.33,167.63a1.47,1.47,0,0,1-.75-.22c-2.71-1.57-15.17-9.15-15.29-9.22a.49.49,0,0,1-.19-.65l2.94-5.91a.49.49,0,0,1,.66-.23c2.12,1,12.74,6.08,13.8,7.66.92,1.36,1.12,6.68-.23,8.13A1.26,1.26,0,0,1,333.33,167.63ZM318.2,157.57c2.15,1.31,12.45,7.57,14.88,9,.26.15.35.08.46,0,.95-1,.9-5.75.13-6.9s-8.12-4.79-13-7.1Z" fill="#231f20"/><path d="M257.31,172.05s3.48,16.94,4.88,20S275,227.55,274.74,229.4s-2.79,9.71-2.79,9.71,7.2,4.13,11.38-7.7c0,0-7.69-40.2-7.69-41.31V166.25Z" fill="#fff"/><path d="M274.88,240.31a6.7,6.7,0,0,1-3.18-.77.49.49,0,0,1-.23-.58c0-.08,2.55-7.83,2.77-9.62s-11.12-34.11-12.51-37.12-4.76-19.37-4.91-20.07a.51.51,0,0,1,.34-.58l18.33-5.8a.52.52,0,0,1,.45.08.48.48,0,0,1,.2.4V190.1c.05,1.12,5.56,30.13,7.68,41.21a.57.57,0,0,1,0,.26c-1.59,4.49-3.79,7.29-6.56,8.32A6.77,6.77,0,0,1,274.88,240.31Zm-2.32-1.46a6.06,6.06,0,0,0,4.35.09c2.44-.91,4.43-3.46,5.9-7.57-.9-4.71-7.67-40.15-7.67-41.27V166.93l-17.25,5.46c.56,2.68,3.52,16.75,4.75,19.41,1.37,3,12.86,35.57,12.59,37.67C275,231.12,273.1,237.17,272.56,238.85Z" fill="#231f20"/><path d="M288.23,175.24s.94,20.36,2.5,23,26.2,20.12,26.2,20.12l3-8.44s-16.78-14.48-17.11-17.29-4.15-22.54-4.15-22.54Z" fill="#fff"/><path d="M316.93,218.83a.52.52,0,0,1-.29-.09c-2.53-1.8-24.77-17.64-26.34-20.27s-2.48-21.11-2.57-23.2a.52.52,0,0,1,.27-.48l10.41-5.18a.49.49,0,0,1,.44,0,.5.5,0,0,1,.27.35c.16.81,3.83,19.78,4.16,22.58.22,1.91,10.51,11.42,16.93,17a.5.5,0,0,1,.15.55l-3,8.44a.49.49,0,0,1-.32.31A.39.39,0,0,1,316.93,218.83Zm-28.19-43.29c.28,5.86,1.22,20.4,2.42,22.41s18.33,14.47,25.52,19.59l2.62-7.49c-2.62-2.27-16.68-14.58-17-17.39-.29-2.48-3.36-18.43-4-21.86Z" fill="#231f20"/><path d="M283.33,231.41s1.9,5.12,1.9,6.2-2.62,3.44-3.86,3.28-1.08-1.78-1.08-1.78a7.64,7.64,0,0,1-3.87,4.87c-3.25,1.71-11.14,1.71-10.68,0s7.07-8.18,7.07-8.18S278.53,238.33,283.33,231.41Z" fill="#231f20"/><path d="M269.68,245.75a7.45,7.45,0,0,1-4-.78,1.06,1.06,0,0,1-.41-1.12c.49-1.78,6.52-7.73,7.2-8.4a.51.51,0,0,1,.55-.1c.22.09,5.41,2.26,9.91-4.23a.5.5,0,0,1,.47-.21.51.51,0,0,1,.4.32c.2.54,1.94,5.24,1.94,6.38,0,1-1.22,2.11-1.59,2.44s-1.75,1.47-2.83,1.33a1.57,1.57,0,0,1-1.1-.61,8.16,8.16,0,0,1-3.56,3.66A17.12,17.12,0,0,1,269.68,245.75Zm3.26-9.37c-2.53,2.5-6.41,6.62-6.72,7.74,0,0,.12.15.46.27,1.9.71,7.14.39,9.51-.85A7.18,7.18,0,0,0,279.8,239a.5.5,0,0,1,1,.14s-.09,1.14.65,1.24a3.58,3.58,0,0,0,2.05-1.1,3.52,3.52,0,0,0,1.25-1.69,32.26,32.26,0,0,0-1.55-5.16C279,237.82,274.22,236.78,272.94,236.38Z" fill="#231f20"/><path d="M265,110s-26.07,12.49-26.67,11.48-10.06-15.88-10.06-15.88l-6.63,5.19s9.65,20.14,15.68,22.35,27.68-8,27.68-8Z" fill="#68e1fd"/><path d="M261.18,156s-7.7,28.23-7.91,42.7c0,0,37.32,20.57,57.42-13.13l-22.05-44.24Z" fill="#68e1fd"/><path d="M263.34,110.54c.14-.71,21.78-3.38,27.14,1.25,7.22,6.23-1.84,29.58-1.84,29.58s-10.45,16.08-18.29,12.52-8.52-6.72-8.52-6.72A129.33,129.33,0,0,1,263.34,110.54Z" fill="#68e1fd"/><path d="M290.48,111.79c6.83,5.53,13,26.42,15.62,28.91,2.17,2.08,15.62,11.06,15.62,11.06l-3.52,7.58s-14.37-5.41-19.5-11.22c-2.77-3.14-3.76-7.31-5-9.91C290.32,130.77,290.48,111.79,290.48,111.79Z" fill="#68e1fd"/><path d="M261.4,145.5a.5.5,0,0,1-.5-.48c0-.89-.84-21.87,2.13-32.28a.5.5,0,1,1,1,.27c-2.94,10.26-2.11,31.75-2.1,32a.5.5,0,0,1-.48.52Z" fill="#231f20"/><path d="M284.91,109.35s-2.16,10.11-6.18,15.94-9.74,3.62-10.1,0,2.76-16.86,2.76-16.86l-4.72,1.22s-1,10-5.39,13.23c-1.92,5.49,0,25.83,0,25.83s-9,27.25-4,33.28c10,12,31.33-1.93,32.07-37l2.68-12.74s-6.57-12.32-3.42-22.91Z" fill="#fff"/><path d="M265.92,186.72a11.54,11.54,0,0,1-9-4.41c-5.05-6.05,3.16-31.56,3.84-33.65-.16-1.76-1.85-20.56,0-25.95a.48.48,0,0,1,.17-.23c4.15-3,5.19-12.78,5.2-12.88a.48.48,0,0,1,.37-.43l4.71-1.23a.53.53,0,0,1,.48.13.51.51,0,0,1,.14.47c0,.13-3.1,13.21-2.75,16.7a3.6,3.6,0,0,0,2.77,3c2.23.57,4.62-.64,6.42-3.24,3.91-5.68,6.08-15.67,6.1-15.77a.49.49,0,0,1,.49-.39h3.73a.48.48,0,0,1,.4.2.47.47,0,0,1,.08.44c-3.06,10.27,3.32,22.41,3.39,22.54a.47.47,0,0,1,0,.33l-2.68,12.74c-.49,23.61-10.22,37.55-19.64,40.85A12.83,12.83,0,0,1,265.92,186.72Zm-4.21-63.54c-1.79,5.54.05,25.29.07,25.49a.44.44,0,0,1,0,.2c-.08.27-8.86,27-4.05,32.8A10.49,10.49,0,0,0,269.9,185c9.1-3.19,18.49-16.8,19-40l2.66-12.66c-.79-1.52-6.16-12.51-3.56-22.48h-2.67c-.45,2-2.54,10.46-6.17,15.72-2,3-4.84,4.33-7.49,3.64a4.58,4.58,0,0,1-3.51-3.87c-.32-3.18,1.9-13.26,2.58-16.22l-3.59.93C266.91,111.87,265.69,120.1,261.71,123.18Z" fill="#231f20"/><path d="M282.93,83.19a10.21,10.21,0,0,1,6.48,1.69,7.7,7.7,0,0,1,1,11.61A6.26,6.26,0,0,1,285.05,98a10.05,10.05,0,0,1-8-8.31C276.7,86,279.33,83.4,282.93,83.19Z" fill="#fff"/><path d="M286.15,98.6a6.8,6.8,0,0,1-1.18-.1,10.56,10.56,0,0,1-8.41-8.75A6.18,6.18,0,0,1,278,85a6.91,6.91,0,0,1,4.93-2.31h0a10.65,10.65,0,0,1,6.8,1.79,8.12,8.12,0,0,1,3.35,6,8,8,0,0,1-2.33,6.35A6.49,6.49,0,0,1,286.15,98.6Zm-3.22-15.41,0,.49a5.94,5.94,0,0,0-4.23,2,5.26,5.26,0,0,0-1.18,4,9.5,9.5,0,0,0,7.57,7.86,5.82,5.82,0,0,0,4.9-1.38,7,7,0,0,0,2-5.56,7.11,7.11,0,0,0-2.94-5.29A9.62,9.62,0,0,0,283,83.68Z" fill="#231f20"/><path d="M268.66,90a10.13,10.13,0,0,1,12.72-1.7c5.1,3.09,7.75,12.83,1.05,15.86a3,3,0,0,0-1,.55,3,3,0,0,0-.5,1c-1.58,4-6.13,4.51-9.58,2.8a15.93,15.93,0,0,1-3.19-2.21C263.38,102.12,264.36,94.34,268.66,90Z" fill="#fff"/><path d="M275.22,109.84a8.94,8.94,0,0,1-4.05-1,15.68,15.68,0,0,1-3.3-2.27,9.74,9.74,0,0,1-3.37-7.17,13.5,13.5,0,0,1,3.81-9.83,10.66,10.66,0,0,1,13.32-1.78,12.07,12.07,0,0,1,5.29,10.39,7.16,7.16,0,0,1-4.29,6.36l-.18.08a1.83,1.83,0,0,0-.62.35,2.13,2.13,0,0,0-.33.64l-.06.17a6.16,6.16,0,0,1-3.57,3.57A7.5,7.5,0,0,1,275.22,109.84Zm.87-22.59a9.87,9.87,0,0,0-7.07,3h0a12.55,12.55,0,0,0-3.52,9.08,8.78,8.78,0,0,0,3,6.46,15.22,15.22,0,0,0,3.09,2.14,7.5,7.5,0,0,0,5.9.47,5.18,5.18,0,0,0,3-3l.06-.15a2.69,2.69,0,0,1,.54-1,2.77,2.77,0,0,1,.95-.59l.16-.07a6.13,6.13,0,0,0,3.7-5.51,11.16,11.16,0,0,0-4.8-9.48A9.76,9.76,0,0,0,276.09,87.25ZM268.66,90h0Z" fill="#231f20"/><path d="M272.64,109.63l-.52,5.86s.52,2.75,4.53,2.18,4.84-3.2,4.84-3.2l.58-11s-5.82-3.86-4.36-10.07a8.07,8.07,0,0,1-8.6,3.42,71.41,71.41,0,0,0-.45,8.69C268.84,108.62,272.64,109.63,272.64,109.63Z" fill="#fff"/><path d="M275.62,118.25c-3.44,0-4-2.63-4-2.66a.66.66,0,0,1,0-.14l.48-5.47c-1.05-.37-3.77-1.61-3.93-4.41a70.9,70.9,0,0,1,.44-8.78.5.5,0,0,1,.21-.35.52.52,0,0,1,.4-.08,7.59,7.59,0,0,0,8.06-3.19.5.5,0,0,1,.92.37c-1.37,5.8,3.92,9.39,4.14,9.54a.5.5,0,0,1,.22.44l-.57,11a.5.5,0,0,1,0,.12c0,.12-1,2.95-5.25,3.55A7.3,7.3,0,0,1,275.62,118.25Zm-3-2.79c.1.35.78,2.17,4,1.72,3.35-.47,4.28-2.47,4.42-2.81l.55-10.63c-1-.75-4.75-3.91-4.57-8.67a8.37,8.37,0,0,1-7.43,2.38,64.05,64.05,0,0,0-.39,8.06c.16,2.68,3.57,3.63,3.61,3.64a.5.5,0,0,1,.37.52Z" fill="#231f20"/><path d="M280.24,103a3.07,3.07,0,0,1,3.37-1.83c1.67.43,1.47,2.35.82,3.54a3.11,3.11,0,0,1-1.87,1.5,3.16,3.16,0,0,1-2.39-.28" fill="#fff"/><path d="M281.71,106.84a3.75,3.75,0,0,1-1.79-.46.51.51,0,0,1,.5-.88,2.6,2.6,0,0,0,3.57-1,2.74,2.74,0,0,0,.3-2.18,1.13,1.13,0,0,0-.81-.63,2.54,2.54,0,0,0-2.76,1.5.5.5,0,0,1-1-.33,3.54,3.54,0,0,1,4-2.14,2.08,2.08,0,0,1,1.47,1.2,3.71,3.71,0,0,1-.33,3.06,3.63,3.63,0,0,1-3.16,1.88Z" fill="#231f20"/><path d="M273.78,100.18s-2.45,2.78-2,3.38,1.82.42,1.82.42" fill="#fff"/><path d="M273.11,104.51a2.17,2.17,0,0,1-1.78-.67c-.15-.22-.64-.91,2.07-4a.5.5,0,0,1,.71,0,.49.49,0,0,1,0,.7,11.05,11.05,0,0,0-1.95,2.81,2.29,2.29,0,0,0,1.3.16.52.52,0,0,1,.56.44.51.51,0,0,1-.44.56A4.25,4.25,0,0,1,273.11,104.51Z" fill="#231f20"/><ellipse cx="275.67" cy="98.77" rx="1.11" ry="0.48" transform="translate(143.92 360.28) rotate(-82.97)" fill="#231f20"/><ellipse cx="270.75" cy="99" rx="1.11" ry="0.48" transform="translate(139.37 355.61) rotate(-82.97)" fill="#231f20"/><path d="M272.64,109.63a7.29,7.29,0,0,0,5-.88s-1.36,4-5.28,4Z" fill="#231f20"/><path d="M272.36,113.3a.51.51,0,0,1-.37-.16.48.48,0,0,1-.13-.38l.28-3.17a.49.49,0,0,1,.21-.37.52.52,0,0,1,.42-.07,7,7,0,0,0,4.64-.84.5.5,0,0,1,.56.06.52.52,0,0,1,.15.54s-1.53,4.37-5.76,4.39Zm.73-3.09-.18,2.06a5.11,5.11,0,0,0,3.67-2.5A7.9,7.9,0,0,1,273.09,110.21Z" fill="#231f20"/><path d="M273.55,107.16a5.65,5.65,0,0,1-2.41-.63.49.49,0,0,1-.23-.66.5.5,0,0,1,.67-.24,3.32,3.32,0,0,0,3.11.24c1.52-.86,1.77-3.35,1.77-3.38A.53.53,0,0,1,277,102a.5.5,0,0,1,.45.55c0,.12-.31,3-2.27,4.15A3.28,3.28,0,0,1,273.55,107.16Z" fill="#231f20"/><path d="M261.28,148.71s10.42,1.71,18.89-2.81" fill="#fff"/><path d="M266.12,149.54a33.15,33.15,0,0,1-4.92-.33.5.5,0,0,1-.41-.58.49.49,0,0,1,.57-.41c.1,0,10.36,1.62,18.58-2.76a.49.49,0,0,1,.67.2.5.5,0,0,1-.2.68A30.9,30.9,0,0,1,266.12,149.54Z" fill="#231f20"/><path d="M317.86,208.07a7.9,7.9,0,0,1-4.31,7.84s-3.29,12.36-1,12.06c4.74-.64,7.36-9.12,7.36-9.12l1.86.25c.9-.34,3.38-5,3.38-5Z" fill="#231f20"/><path d="M312.46,228.47a1,1,0,0,1-.75-.34c-1.37-1.56.69-9.85,1.35-12.35a.53.53,0,0,1,.27-.32,7.34,7.34,0,0,0,4-7.32.48.48,0,0,1,.25-.5.5.5,0,0,1,.56.05l7.27,6.06a.5.5,0,0,1,.12.62c-.77,1.44-2.67,4.83-3.65,5.2a.47.47,0,0,1-.24,0l-1.45-.2c-.6,1.75-3.19,8.47-7.63,9.06ZM314,216.25c-1.48,5.64-2.17,10.76-1.51,11.23,4.38-.59,6.93-8.69,7-8.77a.49.49,0,0,1,.55-.35l1.69.23a22,22,0,0,0,2.85-4.33l-6.13-5.11A8.2,8.2,0,0,1,314,216.25Z" fill="#231f20"/><path d="M328.79,152.54a24.86,24.86,0,0,0-.8-3.08,4.58,4.58,0,0,1-.11-2.06,1.21,1.21,0,0,1,1.18-1c1.08-.12,7,2.81,8.79,2.9l-.54,1.93s-2.28-.57-3.23.07a4.11,4.11,0,0,0-1.22,2.37Z" fill="#fff"/><path d="M332.86,154.19l-.14,0L328.66,153a.51.51,0,0,1-.36-.38,22.63,22.63,0,0,0-.77-3,4.93,4.93,0,0,1-.15-2.33,1.72,1.72,0,0,1,1.63-1.4c.61-.07,1.92.44,4.17,1.33a24.06,24.06,0,0,0,4.7,1.57.48.48,0,0,1,.38.2.51.51,0,0,1,.07.43l-.54,1.94a.5.5,0,0,1-.61.34,4.74,4.74,0,0,0-2.82,0,3.55,3.55,0,0,0-1,2,.49.49,0,0,1-.22.34A.56.56,0,0,1,332.86,154.19Zm-3.64-2.05,3.27.92a3.85,3.85,0,0,1,1.31-2.16,4.92,4.92,0,0,1,3.15-.24l.27-.93a35.79,35.79,0,0,1-4.41-1.55,21.46,21.46,0,0,0-3.7-1.27c-.63.07-.73.48-.74.57a4.08,4.08,0,0,0,.08,1.78A21.93,21.93,0,0,1,329.22,152.14Z" fill="#231f20"/><path d="M327.51,155.59a15.22,15.22,0,0,1-4.07,4.28c-1.56.95-3.27,5.48-4.25,8.42a2.56,2.56,0,0,0,1.74,3.27l7.72,2.18a2.56,2.56,0,0,0,3.21-2c.52-3,1.24-7.45,1.09-8.54-.22-1.66-1.78-3.77-1.25-6.41Z" fill="#fff"/><path d="M329.34,174.33a3.32,3.32,0,0,1-.83-.11L320.79,172a3,3,0,0,1-1.87-1.51,3,3,0,0,1-.2-2.4c1.64-5,3.15-7.89,4.46-8.69a14.57,14.57,0,0,0,3.9-4.12.49.49,0,0,1,.56-.21l4.2,1.18a.5.5,0,0,1,.35.58,7.69,7.69,0,0,0,.68,4.29,9.74,9.74,0,0,1,.58,2c.12.89-.25,3.81-1.1,8.68a3.05,3.05,0,0,1-3,2.53Zm-1.61-18.16a15.16,15.16,0,0,1-4,4.13c-1.06.64-2.53,3.61-4,8.15a2.05,2.05,0,0,0,.13,1.61,2,2,0,0,0,1.26,1l7.72,2.18a2,2,0,0,0,2.59-1.62,52.36,52.36,0,0,0,1.09-8.38,8.82,8.82,0,0,0-.53-1.74,9.09,9.09,0,0,1-.79-4.38Z" fill="#231f20"/><path d="M331.45,164.29l-7.8-2.2a5.59,5.59,0,0,0-1.66,2.66c-.59,1.86-2,3.76-1.35,4.78s2.3,1.2,4.72,2,3.64,1.17,4.66.76S331.46,165.48,331.45,164.29Z" fill="#68e1fd"/><path d="M327.32,170.59a.51.51,0,0,1-.49-.38c-1-4.35,2-13.83,2.14-14.23a.5.5,0,1,1,.95.31c0,.09-3.09,9.61-2.11,13.68a.5.5,0,0,1-.37.6Z" fill="#231f20"/><rect x="327.68" y="152.97" width="4.83" height="3.28" transform="translate(54.42 -83.87) rotate(15.77)" fill="#fff"/><path d="M332,157.35l-.14,0L327.19,156a.57.57,0,0,1-.31-.24.5.5,0,0,1,0-.38l.89-3.16a.5.5,0,0,1,.62-.35L333,153.2a.51.51,0,0,1,.35.62l-.89,3.16a.48.48,0,0,1-.24.3A.55.55,0,0,1,332,157.35Zm-4-2.16,3.68,1,.62-2.2-3.68-1Z" fill="#231f20"/><path d="M334.08,151.32s.8,2.1,2.25,2.16" fill="#fff"/><path d="M336.33,154h0c-1.76-.07-2.66-2.39-2.69-2.49a.5.5,0,1,1,.93-.35c.19.5.89,1.8,1.8,1.84a.5.5,0,0,1,0,1Z" fill="#231f20"/><rect x="337.64" y="149.48" width="2.01" height="2.21" transform="translate(101.72 435.57) rotate(-74.23)" fill="#fff"/><path d="M339.43,152.35l-.13,0-2.13-.6a.5.5,0,0,1-.35-.62l.55-1.93a.48.48,0,0,1,.24-.3.5.5,0,0,1,.38,0l2.13.61a.49.49,0,0,1,.34.61l-.54,1.94a.59.59,0,0,1-.24.3A.54.54,0,0,1,339.43,152.35Zm-1.51-1.45,1.17.33.27-1-1.16-.33Z" fill="#231f20"/><path d="M320.49,159.55c.49.68,1,1.21,1.46,1.93a13.79,13.79,0,0,0,2.07,2.44c1.75,1.82,2.6-.47,2-2.1s-2.32-3-2.65-4.83" fill="#fff"/><path d="M325.2,165.09a2.2,2.2,0,0,1-1.54-.82l-.3-.31a12.34,12.34,0,0,1-1.84-2.22,9.73,9.73,0,0,0-.81-1.1c-.21-.26-.43-.52-.63-.8a.51.51,0,0,1,.11-.7.5.5,0,0,1,.7.12c.19.26.39.5.59.74a9.31,9.31,0,0,1,.9,1.23,11.24,11.24,0,0,0,1.7,2l.3.31c.4.42.76.6.95.48a2,2,0,0,0,.25-2.06,8.11,8.11,0,0,0-1.19-2,7.11,7.11,0,0,1-1.47-2.88.5.5,0,0,1,1-.18,6.45,6.45,0,0,0,1.3,2.48,8.91,8.91,0,0,1,1.33,2.28c.39,1.13.22,2.7-.67,3.24A1.23,1.23,0,0,1,325.2,165.09Z" fill="#231f20"/><polygon points="134.81 218.69 102.14 218.69 101.84 213.01 135.11 213.01 134.81 218.69" fill="#fff"/><path d="M134.81,219.19H102.14a.49.49,0,0,1-.5-.47l-.3-5.69a.48.48,0,0,1,.14-.37.48.48,0,0,1,.36-.15h33.27a.48.48,0,0,1,.36.15.52.52,0,0,1,.14.37l-.3,5.69A.5.5,0,0,1,134.81,219.19Zm-32.2-1h31.72l.25-4.68H102.37Z" fill="#231f20"/><polygon points="132.05 242.94 104.9 242.94 103.68 218.69 133.27 218.69 132.05 242.94" fill="#fff"/><path d="M132.05,243.44H104.9a.5.5,0,0,1-.5-.48l-1.22-24.24a.47.47,0,0,1,.14-.37.48.48,0,0,1,.36-.16h29.59a.48.48,0,0,1,.36.16.47.47,0,0,1,.14.37L132.55,243A.5.5,0,0,1,132.05,243.44Zm-26.68-1h26.2l1.17-23.25H104.2Z" fill="#231f20"/><path d="M118.47,237.16a18.07,18.07,0,0,1-17.68-22.08.5.5,0,1,1,1,.22,17.77,17.77,0,0,0-.42,3.73,17.13,17.13,0,1,0,33.84-3.73.5.5,0,0,1,.38-.6.51.51,0,0,1,.6.38,18.53,18.53,0,0,1,.44,3.95A18.15,18.15,0,0,1,118.47,237.16Z" fill="#231f20"/><path d="M172.29,91.33s-1.76,5.5-6.38,7.37c0,0,5.83.61,7.1,6.06,0,0,1.21-6.06,5.83-7.6A6.71,6.71,0,0,1,172.29,91.33Z" fill="#d1d3d4"/><path d="M190.08,128.85s-1.76,5.5-6.38,7.37c0,0,5.83.61,7.09,6.05,0,0,1.21-6.05,5.84-7.59A6.7,6.7,0,0,1,190.08,128.85Z" fill="#d1d3d4"/><path d="M243.24,76.77s-1.48,4.62-5.35,6.19c0,0,4.89.51,6,5.08,0,0,1-5.08,4.89-6.37A5.62,5.62,0,0,1,243.24,76.77Z" fill="#d1d3d4"/><path d="M212.41,144.7s-1.22,3.78-4.39,5.07c0,0,4,.42,4.88,4.16,0,0,.83-4.16,4-5.22A4.6,4.6,0,0,1,212.41,144.7Z" fill="#d1d3d4"/></g></svg>