<svg id="_330_closed_store_online_flatline" data-name="#330_closed_store_online_flatline" xmlns="http://www.w3.org/2000/svg" viewBox="0 0 400 300"><path d="M315.23,244.75H84.77a.51.51,0,0,1-.5-.5.5.5,0,0,1,.5-.5H315.23a.5.5,0,0,1,.5.5A.51.51,0,0,1,315.23,244.75Z" fill="#d1d3d4"/><path d="M312.08,72.78V211.64a9.73,9.73,0,0,1-9.73,9.72H97.65a9.73,9.73,0,0,1-9.73-9.72V72.78a9.72,9.72,0,0,1,9.73-9.72h204.7A9.72,9.72,0,0,1,312.08,72.78Z" fill="#fff"/><path d="M302.36,221.82H97.64a10.19,10.19,0,0,1-10.17-10.18V72.78A10.18,10.18,0,0,1,97.64,62.6H302.36a10.18,10.18,0,0,1,10.17,10.18V211.64A10.19,10.19,0,0,1,302.36,221.82ZM97.64,63.51a9.28,9.28,0,0,0-9.26,9.27V211.64a9.27,9.27,0,0,0,9.26,9.26H302.36a9.27,9.27,0,0,0,9.26-9.26V72.78a9.28,9.28,0,0,0-9.26-9.27Z" fill="#231f20"/><path d="M312.08,72.78v123.3H87.92V72.78a9.72,9.72,0,0,1,9.73-9.72h204.7A9.72,9.72,0,0,1,312.08,72.78Z" fill="#231f20"/><rect x="97.13" y="74.59" width="203.08" height="112.32" fill="#fff"/><path d="M300.21,187.37H97.13a.46.46,0,0,1-.46-.46V74.59a.46.46,0,0,1,.46-.46H300.21a.46.46,0,0,1,.45.46V186.91A.46.46,0,0,1,300.21,187.37Zm-202.63-.92H299.75V75H97.58Z" fill="#231f20"/><path d="M200,213.87a5.16,5.16,0,1,1,5.16-5.15A5.16,5.16,0,0,1,200,213.87Zm0-9.31a4.16,4.16,0,1,0,4.16,4.16A4.17,4.17,0,0,0,200,204.56Z" fill="#d1d3d4"/><path d="M232.63,239c-2.65-3.16-3.1-17.62-3.1-17.62H170.47s-.45,14.46-3.1,17.62-13.07,8.31-13.07,10.14,1.55,2.5,9.08,2.5h73.24c7.53,0,9.08-.67,9.08-2.5S235.29,242.14,232.63,239Z" fill="#fff"/><path d="M236.62,252.07H163.38c-7.49,0-9.54-.63-9.54-2.95,0-1.16,2.27-2.69,6.29-5.31,2.79-1.81,5.68-3.69,6.89-5.12,2.52-3,3-17.2,3-17.34a.46.46,0,0,1,.46-.45h59.06a.46.46,0,0,1,.46.45c0,.14.47,14.33,3,17.34h0c1.21,1.43,4.1,3.31,6.89,5.12,4,2.62,6.29,4.15,6.29,5.31C246.16,251.44,244.11,252.07,236.62,252.07Zm-65.71-30.25c-.1,2.51-.7,14.49-3.19,17.45-1.29,1.54-4.24,3.46-7.09,5.31-2.34,1.52-5.87,3.82-5.87,4.54,0,1.2.61,2,8.62,2h73.24c8,0,8.62-.84,8.62-2,0-.72-3.53-3-5.87-4.54-2.85-1.85-5.8-3.77-7.09-5.31h0c-2.49-3-3.09-14.94-3.19-17.45Z" fill="#231f20"/><path d="M104.64,41.93H295.36a9.21,9.21,0,0,1,9.21,9.21V55a0,0,0,0,1,0,0H95.42a0,0,0,0,1,0,0V51.14A9.21,9.21,0,0,1,104.64,41.93Z" fill="#68e1fd"/><path d="M304.58,55.42H95.42A.46.46,0,0,1,95,55V51.14a9.68,9.68,0,0,1,9.67-9.67H295.36A9.68,9.68,0,0,1,305,51.14V55A.46.46,0,0,1,304.58,55.42ZM95.88,54.5H304.12V51.14a8.77,8.77,0,0,0-8.76-8.76H104.64a8.77,8.77,0,0,0-8.76,8.76Z" fill="#231f20"/><path d="M260.38,157H139.62a.5.5,0,0,1-.5-.5V118.56a.5.5,0,0,1,.5-.5H260.38a.5.5,0,0,1,.5.5V156.5A.5.5,0,0,1,260.38,157Zm-120.26-1H259.88V119.06H140.12Z" fill="#d1d3d4"/><path d="M260.38,186.14a.5.5,0,0,1-.5-.5V161.85H140.12v23.79a.5.5,0,0,1-.5.5.5.5,0,0,1-.5-.5V161.35a.5.5,0,0,1,.5-.5H260.38a.5.5,0,0,1,.5.5v24.29A.5.5,0,0,1,260.38,186.14Z" fill="#d1d3d4"/><polygon points="323.33 249.35 277.08 249.35 283.06 212.59 317.35 212.59 323.33 249.35" fill="#fff"/><path d="M323.33,249.85H277.08a.52.52,0,0,1-.39-.17.54.54,0,0,1-.11-.41l6-36.76a.51.51,0,0,1,.5-.42h34.29a.51.51,0,0,1,.5.42l6,36.76a.5.5,0,0,1-.12.41A.49.49,0,0,1,323.33,249.85Zm-45.67-1h45.09l-5.82-35.76H283.48Z" fill="#231f20"/><path d="M289.82,218h-.08a.51.51,0,0,1-.41-.58c.1-.6,2.53-14.83,10.88-14.83s10.77,14.23,10.87,14.83a.51.51,0,0,1-.41.58.51.51,0,0,1-.58-.41c0-.14-2.39-14-9.88-14s-9.87,13.86-9.89,14A.51.51,0,0,1,289.82,218Z" fill="#231f20"/><polygon points="291.18 252.4 259.34 252.4 263.45 227.09 287.06 227.09 291.18 252.4" fill="#fff"/><path d="M291.18,252.9H259.34a.52.52,0,0,1-.5-.58L263,227a.49.49,0,0,1,.49-.42h23.61a.49.49,0,0,1,.49.42l4.12,25.3a.5.5,0,0,1-.49.58Zm-31.25-1h30.66l-3.95-24.3H263.88Z" fill="#231f20"/><path d="M282.4,231a.5.5,0,0,1-.49-.42c0-.1-1.62-9.5-6.65-9.5s-6.64,9.4-6.66,9.5a.5.5,0,0,1-.57.41.49.49,0,0,1-.41-.57c.07-.42,1.76-10.34,7.64-10.34s7.57,9.92,7.64,10.34a.5.5,0,0,1-.42.57Z" fill="#231f20"/><path d="M254.66,128.8H191.85a.5.5,0,0,1-.5-.5.51.51,0,0,1,.5-.5h62.81a.51.51,0,0,1,.5.5A.5.5,0,0,1,254.66,128.8Z" fill="#d1d3d4"/><path d="M254.66,135.74H191.85a.5.5,0,0,1-.5-.5.51.51,0,0,1,.5-.5h62.81a.51.51,0,0,1,.5.5A.5.5,0,0,1,254.66,135.74Z" fill="#d1d3d4"/><path d="M177.34,186.14h-.1a.49.49,0,0,1-.39-.58l1.23-6.19a.49.49,0,0,1,.31-.37.52.52,0,0,1,.48.07l3,2.24,3.95-4.41a43.87,43.87,0,0,0-5.59-5.93,20.06,20.06,0,0,0-5.93-3.56,17.4,17.4,0,0,1-14.92,0,38.72,38.72,0,0,0-5.09,2.49,20.75,20.75,0,0,0-6.06,6.05l3.23,4.34,3.62-1.71a.49.49,0,0,1,.44,0,.5.5,0,0,1,.26.37l1,6.62a.5.5,0,0,1-.41.57.52.52,0,0,1-.58-.42l-.92-6-3.38,1.6a.51.51,0,0,1-.62-.15l-3.68-5a.48.48,0,0,1,0-.56c.12-.19,2.89-4.59,6.61-6.67a33.43,33.43,0,0,1,5.48-2.64.49.49,0,0,1,.44.06s2.47,1.64,7.11,1.64,7.1-1.62,7.12-1.64a.51.51,0,0,1,.43-.07,20.21,20.21,0,0,1,6.5,3.82,44.82,44.82,0,0,1,6,6.42.51.51,0,0,1,0,.64l-4.53,5.06a.52.52,0,0,1-.68.07l-2.71-2-1.08,5.4A.49.49,0,0,1,177.34,186.14Z" fill="#d1d3d4"/><path d="M166,173.78h0c-5,0-6.93-6.51-7-6.79a.51.51,0,0,1,.35-.62.51.51,0,0,1,.62.34c0,.06,1.79,6,6,6.07h0c4.68,0,7.78-6.09,7.81-6.15a.5.5,0,0,1,.67-.23.51.51,0,0,1,.22.67C174.54,167.35,171.27,173.78,166,173.78Z" fill="#d1d3d4"/><rect x="230.4" y="140.65" width="24.26" height="6.43" rx="3.21" fill="#d1d3d4"/><path d="M254.66,172.73H191.85a.5.5,0,0,1-.5-.5.51.51,0,0,1,.5-.5h62.81a.51.51,0,0,1,.5.5A.5.5,0,0,1,254.66,172.73Z" fill="#d1d3d4"/><path d="M242.53,179.67H191.85a.5.5,0,0,1-.5-.5.51.51,0,0,1,.5-.5h50.68a.51.51,0,0,1,.5.5A.5.5,0,0,1,242.53,179.67Z" fill="#d1d3d4"/><path d="M179.84,149.58h-12.4a.49.49,0,0,1-.49-.45l-.66-6.18-1.08,6.22a.49.49,0,0,1-.49.41H153.1a.52.52,0,0,1-.38-.17.49.49,0,0,1-.12-.39l2.73-22.78a.5.5,0,0,1,.5-.44h21.32a.51.51,0,0,1,.5.44L180.34,149a.49.49,0,0,1-.12.39A.52.52,0,0,1,179.84,149.58Zm-12-1h11.39l-2.57-21.78H156.27l-2.61,21.78h10.63l1.62-9.32a.51.51,0,0,1,.5-.42h0a.5.5,0,0,1,.48.45Z" fill="#d1d3d4"/><path d="M177.35,130.45h-22a.5.5,0,0,1-.5-.5.5.5,0,0,1,.5-.5h22a.5.5,0,0,1,.5.5A.51.51,0,0,1,177.35,130.45Z" fill="#d1d3d4"/><path d="M169,133.29a.51.51,0,0,1-.46-.31L167,129l-2.22,3.71a.52.52,0,0,1-.69.17.5.5,0,0,1-.17-.69l2.73-4.56a.46.46,0,0,1,.47-.24.5.5,0,0,1,.43.31l2,4.92a.5.5,0,0,1-.28.65A.41.41,0,0,1,169,133.29Z" fill="#d1d3d4"/><path d="M172.57,182.83a2.74,2.74,0,1,1,2.74-2.74A2.74,2.74,0,0,1,172.57,182.83Zm0-4.48a1.74,1.74,0,1,0,1.74,1.74A1.74,1.74,0,0,0,172.57,178.35Z" fill="#d1d3d4"/><path d="M204.66,83.92c16.18,56.73-2,82.93-8.79,103H97.13V88.47Z" fill="#fff"/><path d="M195.87,187.37H97.13a.46.46,0,0,1-.46-.46V88.47a.45.45,0,0,1,.44-.46l107.53-4.55a.4.4,0,0,1,.45.33c13.65,47.8,2.95,74-4.86,93.09-1.46,3.59-2.85,7-3.93,10.18A.45.45,0,0,1,195.87,187.37Zm-98.29-.92h98c1.07-3.13,2.42-6.43,3.85-9.92,7.74-18.94,18.33-44.86,4.92-92.14L97.58,88.91Z" fill="#231f20"/><path d="M181.92,182.83a.45.45,0,0,1-.34-.14.5.5,0,0,1,0-.71,77.25,77.25,0,0,0,18-37.57.49.49,0,0,1,.58-.4.5.5,0,0,1,.41.57,78.32,78.32,0,0,1-18.29,38.1A.51.51,0,0,1,181.92,182.83Z" fill="#d1d3d4"/><path d="M205.48,86.38c.08,1.75-25.88,41.49-1.35,100.53H300.2V88.47Z" fill="#fff"/><path d="M300.21,187.37H204.13a.45.45,0,0,1-.42-.29c-9.92-23.88-17.9-60.4.45-98.77a17.51,17.51,0,0,0,.86-2,.44.44,0,0,1,.13-.32.46.46,0,0,1,.34-.12L300.21,88a.46.46,0,0,1,.45.46v98.44A.46.46,0,0,1,300.21,187.37Zm-95.77-.92h95.31V88.92l-93.92-2.08c-.13.35-.39.9-.85,1.86C186.85,126.62,194.64,162.74,204.44,186.45Z" fill="#231f20"/><path d="M218.81,179.67a.51.51,0,0,1-.48-.35c-2.33-7.84-.06-12.5,0-12.69a.51.51,0,0,1,.49-.28.5.5,0,0,1,.43.36,24.81,24.81,0,0,0,9.21,12,.5.5,0,0,1,.14.69.51.51,0,0,1-.7.14,25.55,25.55,0,0,1-9.12-11.26,19.55,19.55,0,0,0,.47,10.7.5.5,0,0,1-.33.62A.39.39,0,0,1,218.81,179.67Z" fill="#d1d3d4"/><polygon points="94.33 54.96 68.3 83.92 87.11 83.92 109.42 54.96 94.33 54.96" fill="#fff"/><path d="M87.11,84.37H68.3a.46.46,0,0,1-.42-.27.47.47,0,0,1,.08-.49L94,54.66a.44.44,0,0,1,.34-.16h15.09a.45.45,0,0,1,.41.26.44.44,0,0,1,0,.48l-22.3,29A.47.47,0,0,1,87.11,84.37Zm-17.79-.91H86.89l21.6-28h-14Z" fill="#231f20"/><polygon points="109.42 54.96 87.11 83.92 105.93 83.92 124.52 54.96 109.42 54.96" fill="#68e1fd"/><path d="M105.93,84.37H87.11a.47.47,0,0,1-.41-.25.49.49,0,0,1,0-.48l22.31-29a.47.47,0,0,1,.36-.18h15.1a.46.46,0,0,1,.38.71L106.31,84.16A.45.45,0,0,1,105.93,84.37ZM88,83.46h17.64l18-28h-14Z" fill="#231f20"/><polygon points="124.52 54.96 105.93 83.92 124.74 83.92 139.62 54.96 124.52 54.96" fill="#fff"/><path d="M124.74,84.37H105.93a.46.46,0,0,1-.4-.23.46.46,0,0,1,0-.47l18.59-29a.47.47,0,0,1,.39-.21h15.1a.46.46,0,0,1,.38.22.45.45,0,0,1,0,.45l-14.87,29A.46.46,0,0,1,124.74,84.37Zm-18-.91h17.7l14.41-28h-14.1Z" fill="#231f20"/><polygon points="139.62 54.96 124.74 83.92 143.56 83.92 154.71 54.96 139.62 54.96" fill="#68e1fd"/><path d="M143.56,84.37H124.74a.47.47,0,0,1-.39-.21.45.45,0,0,1,0-.45l14.87-29a.46.46,0,0,1,.41-.25h15.09a.46.46,0,0,1,.43.62L144,84.08A.43.43,0,0,1,143.56,84.37Zm-18.07-.91h17.75l10.8-28H139.89Z" fill="#231f20"/><polygon points="154.71 54.96 143.56 83.92 162.37 83.92 169.81 54.96 154.71 54.96" fill="#fff"/><path d="M162.37,84.37H143.56a.45.45,0,0,1-.43-.62L154.28,54.8a.46.46,0,0,1,.43-.3h15.1a.47.47,0,0,1,.36.18.46.46,0,0,1,.08.39l-7.44,29A.45.45,0,0,1,162.37,84.37Zm-18.15-.91H162l7.2-28H155Z" fill="#231f20"/><polygon points="169.81 54.96 162.37 83.92 181.19 83.92 184.9 54.96 169.81 54.96" fill="#68e1fd"/><path d="M181.19,84.37H162.37a.46.46,0,0,1-.36-.17.45.45,0,0,1-.08-.4l7.44-28.95a.46.46,0,0,1,.44-.35H184.9a.48.48,0,0,1,.35.16.52.52,0,0,1,.11.36l-3.72,29A.45.45,0,0,1,181.19,84.37ZM163,83.46h17.82l3.6-28H170.16Z" fill="#231f20"/><polygon points="184.9 54.96 181.19 83.92 200 83.92 200 54.96 184.9 54.96" fill="#fff"/><path d="M200,84.37H181.19a.45.45,0,0,1-.35-.15.52.52,0,0,1-.11-.36l3.72-29a.45.45,0,0,1,.45-.4H200a.47.47,0,0,1,.46.46v29A.46.46,0,0,1,200,84.37Zm-18.29-.91h17.83v-28H185.31Z" fill="#231f20"/><polygon points="200 54.96 200 83.92 218.81 83.92 215.1 54.96 200 54.96" fill="#68e1fd"/><path d="M218.81,84.37H200a.46.46,0,0,1-.46-.45V55a.47.47,0,0,1,.46-.46h15.1a.45.45,0,0,1,.45.4l3.72,29a.52.52,0,0,1-.11.36A.45.45,0,0,1,218.81,84.37Zm-18.35-.91h17.83l-3.6-28H200.46Z" fill="#231f20"/><polygon points="215.1 54.96 218.81 83.92 237.63 83.92 230.19 54.96 215.1 54.96" fill="#fff"/><path d="M237.63,84.37H218.81a.45.45,0,0,1-.45-.39l-3.72-29a.52.52,0,0,1,.11-.36.48.48,0,0,1,.35-.16h15.09a.46.46,0,0,1,.44.35l7.44,28.95a.45.45,0,0,1-.08.4A.46.46,0,0,1,237.63,84.37Zm-18.41-.91H237l-7.2-28H215.62Z" fill="#231f20"/><polygon points="230.19 54.96 237.63 83.92 256.44 83.92 245.29 54.96 230.19 54.96" fill="#68e1fd"/><path d="M256.44,84.37H237.63a.45.45,0,0,1-.44-.34l-7.44-29a.46.46,0,0,1,.08-.39.47.47,0,0,1,.36-.18h15.1a.46.46,0,0,1,.43.3l11.15,29a.45.45,0,0,1-.43.62ZM238,83.46h17.8l-10.8-28h-14.2Z" fill="#231f20"/><polygon points="245.29 54.96 256.44 83.92 275.26 83.92 260.38 54.96 245.29 54.96" fill="#fff"/><path d="M275.26,84.37H256.44a.43.43,0,0,1-.42-.29l-11.16-29a.46.46,0,0,1,.43-.62h15.09a.46.46,0,0,1,.41.25l14.87,29a.45.45,0,0,1,0,.45A.47.47,0,0,1,275.26,84.37Zm-18.5-.91h17.75l-14.4-28H246Z" fill="#231f20"/><polygon points="260.38 54.96 275.26 83.92 294.07 83.92 275.48 54.96 260.38 54.96" fill="#68e1fd"/><path d="M294.07,84.37H275.26a.46.46,0,0,1-.41-.24L260,55.17a.45.45,0,0,1,0-.45.46.46,0,0,1,.38-.22h15.1a.47.47,0,0,1,.39.21l18.59,29a.46.46,0,0,1,0,.47A.46.46,0,0,1,294.07,84.37Zm-18.53-.91h17.7l-18-28h-14.1Z" fill="#231f20"/><polygon points="275.48 54.96 294.07 83.92 312.89 83.92 290.58 54.96 275.48 54.96" fill="#fff"/><path d="M312.89,84.37H294.07a.45.45,0,0,1-.38-.21L275.1,55.21a.46.46,0,0,1,.38-.71h15.1a.47.47,0,0,1,.36.18l22.31,29a.49.49,0,0,1,.05.48A.47.47,0,0,1,312.89,84.37Zm-18.57-.91H312l-21.61-28h-14Z" fill="#231f20"/><polygon points="290.58 54.96 312.89 83.92 331.7 83.92 305.67 54.96 290.58 54.96" fill="#68e1fd"/><path d="M331.7,84.37H312.89a.47.47,0,0,1-.37-.17l-22.31-29a.46.46,0,0,1,0-.48.44.44,0,0,1,.41-.26h15.09a.44.44,0,0,1,.34.16l26,29a.47.47,0,0,1,.08.49A.46.46,0,0,1,331.7,84.37Zm-18.59-.91h17.57l-25.21-28h-14Z" fill="#231f20"/><path d="M68.3,83.92H87.11a0,0,0,0,1,0,0V99.81A9.19,9.19,0,0,1,77.92,109h-.43a9.19,9.19,0,0,1-9.19-9.19V83.92a0,0,0,0,1,0,0Z" fill="#fff"/><path d="M77.92,109.46h-.43a9.66,9.66,0,0,1-9.65-9.65V83.92a.47.47,0,0,1,.46-.46H87.11a.46.46,0,0,1,.46.46V99.81A9.66,9.66,0,0,1,77.92,109.46ZM68.76,84.37V99.81a8.74,8.74,0,0,0,8.73,8.73h.43a8.75,8.75,0,0,0,8.74-8.73V84.37Z" fill="#231f20"/><path d="M87.11,83.92h18.81a0,0,0,0,1,0,0V99.81A9.19,9.19,0,0,1,96.73,109h-.43a9.19,9.19,0,0,1-9.19-9.19V83.92A0,0,0,0,1,87.11,83.92Z" fill="#68e1fd"/><path d="M96.73,109.46h-.42a9.66,9.66,0,0,1-9.65-9.65V83.92a.46.46,0,0,1,.45-.46h18.82a.46.46,0,0,1,.45.46V99.81A9.66,9.66,0,0,1,96.73,109.46ZM87.57,84.37V99.81a8.75,8.75,0,0,0,8.74,8.73h.42a8.75,8.75,0,0,0,8.74-8.73V84.37Z" fill="#231f20"/><path d="M105.93,83.92h18.81a0,0,0,0,1,0,0V99.81a9.19,9.19,0,0,1-9.19,9.19h-.43a9.19,9.19,0,0,1-9.19-9.19V83.92a0,0,0,0,1,0,0Z" fill="#fff"/><path d="M115.55,109.46h-.43a9.66,9.66,0,0,1-9.65-9.65V83.92a.47.47,0,0,1,.46-.46h18.81a.47.47,0,0,1,.46.46V99.81A9.66,9.66,0,0,1,115.55,109.46Zm-9.17-25.09V99.81a8.75,8.75,0,0,0,8.74,8.73h.43a8.75,8.75,0,0,0,8.74-8.73V84.37Z" fill="#231f20"/><path d="M124.74,83.92h18.81a0,0,0,0,1,0,0V99.81a9.19,9.19,0,0,1-9.19,9.19h-.43a9.19,9.19,0,0,1-9.19-9.19V83.92A0,0,0,0,1,124.74,83.92Z" fill="#68e1fd"/><path d="M134.36,109.46h-.42a9.66,9.66,0,0,1-9.65-9.65V83.92a.46.46,0,0,1,.45-.46h18.82a.46.46,0,0,1,.45.46V99.81A9.66,9.66,0,0,1,134.36,109.46ZM125.2,84.37V99.81a8.75,8.75,0,0,0,8.74,8.73h.42a8.75,8.75,0,0,0,8.74-8.73V84.37Z" fill="#231f20"/><path d="M143.56,83.92h18.81a0,0,0,0,1,0,0V99.81a9.19,9.19,0,0,1-9.19,9.19h-.43a9.19,9.19,0,0,1-9.19-9.19V83.92A0,0,0,0,1,143.56,83.92Z" fill="#fff"/><path d="M153.18,109.46h-.43a9.66,9.66,0,0,1-9.65-9.65V83.92a.46.46,0,0,1,.46-.46h18.81a.47.47,0,0,1,.46.46V99.81A9.66,9.66,0,0,1,153.18,109.46ZM144,84.37V99.81a8.75,8.75,0,0,0,8.74,8.73h.43a8.74,8.74,0,0,0,8.73-8.73V84.37Z" fill="#231f20"/><path d="M162.37,83.92h18.81a0,0,0,0,1,0,0V99.81A9.19,9.19,0,0,1,172,109h-.43a9.19,9.19,0,0,1-9.19-9.19V83.92A0,0,0,0,1,162.37,83.92Z" fill="#68e1fd"/><path d="M172,109.46h-.42a9.66,9.66,0,0,1-9.66-9.65V83.92a.47.47,0,0,1,.46-.46h18.82a.46.46,0,0,1,.45.46V99.81A9.66,9.66,0,0,1,172,109.46Zm-9.16-25.09V99.81a8.75,8.75,0,0,0,8.74,8.73H172a8.75,8.75,0,0,0,8.74-8.73V84.37Z" fill="#231f20"/><path d="M181.19,83.92H200a0,0,0,0,1,0,0V99.81a9.19,9.19,0,0,1-9.19,9.19h-.43a9.19,9.19,0,0,1-9.19-9.19V83.92A0,0,0,0,1,181.19,83.92Z" fill="#fff"/><path d="M190.81,109.46h-.43a9.66,9.66,0,0,1-9.65-9.65V83.92a.46.46,0,0,1,.46-.46H200a.47.47,0,0,1,.46.46V99.81A9.66,9.66,0,0,1,190.81,109.46Zm-9.17-25.09V99.81a8.75,8.75,0,0,0,8.74,8.73h.43a8.74,8.74,0,0,0,8.73-8.73V84.37Z" fill="#231f20"/><path d="M200,83.92h18.81a0,0,0,0,1,0,0V99.81a9.19,9.19,0,0,1-9.19,9.19h-.43A9.19,9.19,0,0,1,200,99.81V83.92a0,0,0,0,1,0,0Z" fill="#68e1fd"/><path d="M209.62,109.46h-.43a9.66,9.66,0,0,1-9.65-9.65V83.92a.47.47,0,0,1,.46-.46h18.81a.46.46,0,0,1,.46.46V99.81A9.66,9.66,0,0,1,209.62,109.46Zm-9.16-25.09V99.81a8.74,8.74,0,0,0,8.73,8.73h.43a8.75,8.75,0,0,0,8.74-8.73V84.37Z" fill="#231f20"/><path d="M218.81,83.92h18.81a0,0,0,0,1,0,0V99.81a9.19,9.19,0,0,1-9.19,9.19H228a9.19,9.19,0,0,1-9.19-9.19V83.92a0,0,0,0,1,0,0Z" fill="#fff"/><path d="M228.43,109.46H228a9.66,9.66,0,0,1-9.65-9.65V83.92a.46.46,0,0,1,.45-.46h18.82a.47.47,0,0,1,.46.46V99.81A9.66,9.66,0,0,1,228.43,109.46Zm-9.16-25.09V99.81a8.75,8.75,0,0,0,8.74,8.73h.42a8.75,8.75,0,0,0,8.74-8.73V84.37Z" fill="#231f20"/><path d="M237.63,83.92h18.81a0,0,0,0,1,0,0V99.81a9.19,9.19,0,0,1-9.19,9.19h-.43a9.19,9.19,0,0,1-9.19-9.19V83.92A0,0,0,0,1,237.63,83.92Z" fill="#68e1fd"/><path d="M247.25,109.46h-.43a9.66,9.66,0,0,1-9.65-9.65V83.92a.47.47,0,0,1,.46-.46h18.81a.46.46,0,0,1,.46.46V99.81A9.66,9.66,0,0,1,247.25,109.46Zm-9.16-25.09V99.81a8.74,8.74,0,0,0,8.73,8.73h.43A8.75,8.75,0,0,0,256,99.81V84.37Z" fill="#231f20"/><path d="M256.44,83.92h18.81a0,0,0,0,1,0,0V99.81a9.19,9.19,0,0,1-9.19,9.19h-.43a9.19,9.19,0,0,1-9.19-9.19V83.92a0,0,0,0,1,0,0Z" fill="#fff"/><path d="M266.06,109.46h-.42A9.66,9.66,0,0,1,256,99.81V83.92a.46.46,0,0,1,.45-.46h18.82a.46.46,0,0,1,.45.46V99.81A9.66,9.66,0,0,1,266.06,109.46ZM256.9,84.37V99.81a8.75,8.75,0,0,0,8.74,8.73h.42a8.75,8.75,0,0,0,8.74-8.73V84.37Z" fill="#231f20"/><path d="M275.26,83.92h18.81a0,0,0,0,1,0,0V99.81a9.19,9.19,0,0,1-9.19,9.19h-.43a9.19,9.19,0,0,1-9.19-9.19V83.92A0,0,0,0,1,275.26,83.92Z" fill="#68e1fd"/><path d="M284.88,109.46h-.43a9.66,9.66,0,0,1-9.65-9.65V83.92a.47.47,0,0,1,.46-.46h18.81a.47.47,0,0,1,.46.46V99.81A9.66,9.66,0,0,1,284.88,109.46Zm-9.17-25.09V99.81a8.75,8.75,0,0,0,8.74,8.73h.43a8.74,8.74,0,0,0,8.73-8.73V84.37Z" fill="#231f20"/><path d="M294.07,83.92h18.81a0,0,0,0,1,0,0V99.81a9.19,9.19,0,0,1-9.19,9.19h-.43a9.19,9.19,0,0,1-9.19-9.19V83.92A0,0,0,0,1,294.07,83.92Z" fill="#fff"/><path d="M303.69,109.46h-.42a9.66,9.66,0,0,1-9.66-9.65V83.92a.47.47,0,0,1,.46-.46h18.82a.46.46,0,0,1,.45.46V99.81A9.66,9.66,0,0,1,303.69,109.46Zm-9.16-25.09V99.81a8.75,8.75,0,0,0,8.74,8.73h.42a8.75,8.75,0,0,0,8.74-8.73V84.37Z" fill="#231f20"/><path d="M312.89,83.92H331.7a0,0,0,0,1,0,0V99.81a9.19,9.19,0,0,1-9.19,9.19h-.43a9.19,9.19,0,0,1-9.19-9.19V83.92A0,0,0,0,1,312.89,83.92Z" fill="#68e1fd"/><path d="M322.51,109.46h-.43a9.66,9.66,0,0,1-9.65-9.65V83.92a.46.46,0,0,1,.46-.46H331.7a.47.47,0,0,1,.46.46V99.81A9.66,9.66,0,0,1,322.51,109.46Zm-9.17-25.09V99.81a8.75,8.75,0,0,0,8.74,8.73h.43a8.74,8.74,0,0,0,8.73-8.73V84.37Z" fill="#231f20"/><rect x="139.61" y="139.17" width="120.77" height="31.4" fill="#fff"/><path d="M260.38,171H139.62a.46.46,0,0,1-.46-.46v-31.4a.45.45,0,0,1,.46-.45H260.38a.45.45,0,0,1,.46.45v31.4A.46.46,0,0,1,260.38,171Zm-120.31-.92H259.93V139.63H140.07Z" fill="#231f20"/><path d="M253.52,139.63l-.14,0L200,121.2l-53.38,18.41a.46.46,0,0,1-.29-.87l53.52-18.46a.51.51,0,0,1,.3,0l53.52,18.46a.46.46,0,0,1,.29.58A.47.47,0,0,1,253.52,139.63Z" fill="#231f20"/><circle cx="200" cy="121.28" r="4.13" fill="#231f20"/><path d="M166.59,160.25a6.45,6.45,0,0,1-1.31.68,9.75,9.75,0,0,1-1.65.49,10.53,10.53,0,0,1-2,.19,8.91,8.91,0,0,1-3-.47,6.26,6.26,0,0,1-2.23-1.32,5.75,5.75,0,0,1-1.4-2.08,7.4,7.4,0,0,1-.49-2.72,9.57,9.57,0,0,1,.67-3.57,8.73,8.73,0,0,1,4.7-4.87,9.7,9.7,0,0,1,7-.11,5.88,5.88,0,0,1,2.26,1.48l-3.39,3.5a2.29,2.29,0,0,0-1-.82,3.64,3.64,0,0,0-1.4-.26,3.16,3.16,0,0,0-1.45.33,3.45,3.45,0,0,0-1.12.88,4.18,4.18,0,0,0-.71,1.3,4.74,4.74,0,0,0-.25,1.57,2.48,2.48,0,0,0,2.73,2.61,3.5,3.5,0,0,0,1.5-.33,4.73,4.73,0,0,0,1.19-.82l2.4,3.57A10.4,10.4,0,0,1,166.59,160.25Z" fill="#68e1fd"/><path d="M170,161.19l2.63-14.9h4.9L175.63,157h5l-.74,4.17Z" fill="#68e1fd"/><path d="M190.08,161.56a9.38,9.38,0,0,1-3.17-.49,6.45,6.45,0,0,1-2.31-1.4,6,6,0,0,1-1.42-2.14,7.54,7.54,0,0,1-.48-2.74,9.11,9.11,0,0,1,.65-3.47,8.34,8.34,0,0,1,4.68-4.71,10.29,10.29,0,0,1,6.9-.2,6.23,6.23,0,0,1,2.31,1.4,5.78,5.78,0,0,1,1.42,2.14,7.34,7.34,0,0,1,.49,2.74,9.51,9.51,0,0,1-.64,3.47,8.37,8.37,0,0,1-1.83,2.82,8.64,8.64,0,0,1-2.87,1.89A9.65,9.65,0,0,1,190.08,161.56Zm4-8.52a3.11,3.11,0,0,0-.18-1.06,2.44,2.44,0,0,0-.53-.86,2.38,2.38,0,0,0-.86-.58,3.05,3.05,0,0,0-1.17-.21,3.17,3.17,0,0,0-1.48.35,3.57,3.57,0,0,0-1.13.91,4.47,4.47,0,0,0-.71,1.31,4.53,4.53,0,0,0-.25,1.49,3.06,3.06,0,0,0,.18,1.06,2.4,2.4,0,0,0,.52.87,2.49,2.49,0,0,0,.86.57,3.16,3.16,0,0,0,1.19.21,3.25,3.25,0,0,0,1.48-.33,3.61,3.61,0,0,0,1.11-.91,4.22,4.22,0,0,0,.72-1.3A4.89,4.89,0,0,0,194.08,153Z" fill="#68e1fd"/><path d="M211.1,150.73a2.61,2.61,0,0,0-.93-.68,3.05,3.05,0,0,0-1.32-.27,2.23,2.23,0,0,0-1.07.26.81.81,0,0,0-.47.77.73.73,0,0,0,.4.66,7.22,7.22,0,0,0,1.17.48,10.23,10.23,0,0,1,1.72.72,5.18,5.18,0,0,1,1.28.92,3.74,3.74,0,0,1,.81,1.2,3.83,3.83,0,0,1,.28,1.51,4.56,4.56,0,0,1-.63,2.45,5.22,5.22,0,0,1-1.6,1.64,7,7,0,0,1-2.15.92,9.24,9.24,0,0,1-2.29.3,10.57,10.57,0,0,1-1.77-.15,11.28,11.28,0,0,1-1.69-.42,9.57,9.57,0,0,1-1.53-.67,6.21,6.21,0,0,1-1.24-.91l3.33-3.07a2.87,2.87,0,0,0,.61.53,4.4,4.4,0,0,0,.75.38,5.49,5.49,0,0,0,.78.26,3.46,3.46,0,0,0,.74.09,2.5,2.5,0,0,0,1.18-.24.78.78,0,0,0,.44-.71.84.84,0,0,0-.37-.67,4.35,4.35,0,0,0-1.38-.61,11.14,11.14,0,0,1-1.5-.59,4.63,4.63,0,0,1-1.22-.81,3.43,3.43,0,0,1-.81-1.13,3.92,3.92,0,0,1-.3-1.61,4.92,4.92,0,0,1,1.83-3.86,6.23,6.23,0,0,1,2.08-1.14,8.29,8.29,0,0,1,2.66-.41,9.28,9.28,0,0,1,1.58.14,8.32,8.32,0,0,1,1.47.38,7.87,7.87,0,0,1,1.28.57,4.62,4.62,0,0,1,1,.76Z" fill="#68e1fd"/><path d="M215.52,161.19l2.63-14.9h9.74l-.72,4.06H222l-.26,1.43h4.93l-.68,3.79h-4.92l-.27,1.55h5.76l-.71,4.07Z" fill="#68e1fd"/><path d="M232.2,146.29h6.16a9.72,9.72,0,0,1,2.54.35,6.85,6.85,0,0,1,2.29,1.1,5.85,5.85,0,0,1,1.67,2,6,6,0,0,1,.66,2.93,8.82,8.82,0,0,1-.69,3.55,7.55,7.55,0,0,1-1.9,2.69,8.67,8.67,0,0,1-2.88,1.71,10.62,10.62,0,0,1-3.62.6h-6.86ZM235,157h1.58a3.93,3.93,0,0,0,1.66-.33,3.75,3.75,0,0,0,1.2-.86,3.63,3.63,0,0,0,.72-1.23,4.28,4.28,0,0,0,.24-1.42,3.49,3.49,0,0,0-.16-1.08,2.27,2.27,0,0,0-.53-.87,2.58,2.58,0,0,0-.91-.6,3.76,3.76,0,0,0-1.32-.22h-1.3Z" fill="#68e1fd"/><polygon points="87.58 258.07 121.79 258.07 118.04 208.44 83.83 208.44 87.58 258.07" fill="#231f20"/><polygon points="76.53 258.07 110.74 258.07 118.04 208.44 83.83 208.44 76.53 258.07" fill="#fff"/><path d="M110.74,258.53H76.53a.44.44,0,0,1-.34-.16.44.44,0,0,1-.11-.36l7.3-49.64a.44.44,0,0,1,.45-.39H118a.46.46,0,0,1,.34.16.44.44,0,0,1,.11.36l-7.3,49.64A.45.45,0,0,1,110.74,258.53Zm-33.68-.91h33.28l7.17-48.73H84.23Z" fill="#231f20"/><path d="M105.69,252.12H82a.52.52,0,0,1-.5-.58l6-38.35a.49.49,0,0,1,.49-.42h24a.52.52,0,0,1,.38.17.54.54,0,0,1,.11.41l-6.38,38.35A.5.5,0,0,1,105.69,252.12Zm-23.07-1h22.64l6.22-37.35h-23Z" fill="#d1d3d4"/><path d="M106.11,222.78H91.47a.5.5,0,0,1-.5-.5.5.5,0,0,1,.5-.5h14.64a.5.5,0,0,1,.5.5A.51.51,0,0,1,106.11,222.78Z" fill="#d1d3d4"/><path d="M103.26,228.55H90.62a.51.51,0,0,1-.5-.5.5.5,0,0,1,.5-.5h12.64a.5.5,0,0,1,.5.5A.5.5,0,0,1,103.26,228.55Z" fill="#d1d3d4"/><path d="M104.41,234.74H89.77a.5.5,0,0,1-.5-.5.5.5,0,0,1,.5-.5h14.64a.5.5,0,0,1,.5.5A.5.5,0,0,1,104.41,234.74Z" fill="#d1d3d4"/><path d="M101.57,240.51H88.92a.5.5,0,0,1-.5-.5.51.51,0,0,1,.5-.5h12.65a.51.51,0,0,1,.5.5A.5.5,0,0,1,101.57,240.51Z" fill="#d1d3d4"/><path d="M287.85,166.18a.51.51,0,0,1-.47-.33,71.68,71.68,0,0,1-3.21-30.68.5.5,0,0,1,1,.15,70.56,70.56,0,0,0,3.17,30.2.51.51,0,0,1-.31.64Z" fill="#d1d3d4"/><path d="M277.23,180.59a.49.49,0,0,1-.4-.2c-.15-.2-14.59-20.33-11.84-66.26a.47.47,0,0,1,.53-.47.49.49,0,0,1,.47.53c-1.43,23.79,1.82,40.36,4.79,50.08,3.22,10.52,6.81,15.48,6.85,15.53a.51.51,0,0,1-.1.7A.55.55,0,0,1,277.23,180.59Z" fill="#d1d3d4"/><path d="M113.29,167.35h-.07a.51.51,0,0,1-.43-.57c4.71-33.2-3.74-53.91-3.83-54.12a.5.5,0,0,1,.92-.39c.09.21,8.65,21.16,3.9,54.65A.5.5,0,0,1,113.29,167.35Z" fill="#d1d3d4"/><path d="M151.58,130.07a.46.46,0,0,1-.23-.06.5.5,0,0,1-.21-.68c5-9.36,5-16.51,5-16.58a.5.5,0,0,1,.5-.5h0a.5.5,0,0,1,.5.5c0,.3-.05,7.45-5.16,17.05A.5.5,0,0,1,151.58,130.07Z" fill="#d1d3d4"/><path d="M115.33,182.83a.54.54,0,0,1-.31-.1.52.52,0,0,1-.08-.71c.17-.21,16.67-21.39,14.46-53.68a.5.5,0,1,1,1-.07c2.24,32.7-14.5,54.16-14.67,54.38A.52.52,0,0,1,115.33,182.83Z" fill="#d1d3d4"/></svg>