<svg xmlns="http://www.w3.org/2000/svg" viewBox="0 0 400 300"><g id="_446_coughing_flatline" data-name="#446_coughing_flatline"><path d="M200.38,95.24s-16.19,2.37-30.1-2.3-29.32,4-29.32,4,8.21,6.9,11.49,15.87c0,0,10.45-4,25.68-1.61a59.47,59.47,0,0,0,26.65-1.66Z" fill="#fff"/><path d="M152.45,113.31a.46.46,0,0,1-.2,0A.47.47,0,0,1,152,113c-3.19-8.73-11.27-15.59-11.35-15.66a.49.49,0,0,1-.17-.43.5.5,0,0,1,.25-.39c.16-.08,15.77-8.72,29.73-4,13.63,4.57,29.71,2.3,29.87,2.27a.5.5,0,0,1,.55.35l4.4,14.3a.5.5,0,0,1-.31.62,60.79,60.79,0,0,1-26.9,1.69c-14.9-2.34-25.31,1.54-25.42,1.58A.57.57,0,0,1,152.45,113.31ZM141.83,97c1.89,1.71,8,7.62,10.92,15.14a56.81,56.81,0,0,1,25.46-1.47,60.6,60.6,0,0,0,25.95-1.5L200,95.79c-2.67.33-17.3,1.86-29.91-2.37C158.15,89.4,144.85,95.52,141.83,97Z" fill="#231f20"/><path d="M262,104.75a4.09,4.09,0,0,0-.7,1.86,10,10,0,0,0,2.59,8.38c1.14,1.2,2.94,2.12,4.41,1.36a3.11,3.11,0,0,0,1.49-2.09,7,7,0,0,0,0-2.63C269.31,108.35,266.44,99,262,104.75Z" fill="#fff"/><path d="M267.15,117.13a5.37,5.37,0,0,1-3.6-1.79,10.52,10.52,0,0,1-2.72-8.81,4.54,4.54,0,0,1,.79-2.08h0c1.24-1.63,2.51-2.29,3.77-2,3,.77,4.59,7,4.91,9.07a7.69,7.69,0,0,1,0,2.83,3.56,3.56,0,0,1-1.75,2.42A3,3,0,0,1,267.15,117.13Zm-2.37-13.73c-.73,0-1.53.56-2.36,1.65h0a3.48,3.48,0,0,0-.61,1.64,9.52,9.52,0,0,0,2.47,8c1,1.08,2.6,1.89,3.8,1.26a2.62,2.62,0,0,0,1.24-1.76,6.72,6.72,0,0,0,0-2.45c-.4-2.61-2-7.7-4.17-8.25A1.36,1.36,0,0,0,264.78,103.4ZM262,104.75h0Z" fill="#231f20"/><path d="M270.9,133.16s1.29-9.87,1.28-11.12a69,69,0,0,0-1.41-6.85s-5.56-2.43-6.65-6.67,5.7-12.4,7.4-12.43,1.28,1.31,2.47,1.08,3.22-.68,4.15,1,1,2.78,1.88,3,3.05-.86,4,1.36.87-.13,2.76,2.52,3.22,8.54,4,12.63-5.69,26.44-5.69,26.44Z" fill="#fff"/><path d="M285.16,144.6a.5.5,0,0,1-.31-.1L270.6,133.56a.5.5,0,0,1-.2-.46c.45-3.41,1.29-10.1,1.28-11.06a61.27,61.27,0,0,0-1.33-6.5c-1.1-.52-5.69-2.92-6.72-6.9-.83-3.23,2.42-7.84,3.44-9.17,1.35-1.78,3.33-3.86,4.45-3.88a2.09,2.09,0,0,1,1.85.85c.22.25.25.29.53.24l.14,0c1.21-.23,3.47-.66,4.54,1.26.32.59.55,1.12.74,1.55.33.76.5,1.13.82,1.21a3.34,3.34,0,0,0,.74,0c1-.11,2.76-.3,3.62,1.67.31.7.44.78.46.79h.11c.54,0,1.11.18,2.15,1.63,1.93,2.71,3.28,8.62,4.12,12.82s-5.43,25.76-5.7,26.68a.51.51,0,0,1-.33.34Zm-13.73-11.66,13.45,10.32c2.28-7.89,6.1-22.45,5.48-25.5-.82-4.12-2.13-9.88-4-12.44-.84-1.18-1.17-1.2-1.38-1.21-.58,0-.93-.24-1.43-1.4s-1.41-1.2-2.6-1.08a3.08,3.08,0,0,1-1.09,0c-.81-.2-1.11-.9-1.5-1.78a13.31,13.31,0,0,0-.7-1.46c-.66-1.19-2-1-3.47-.76l-.15,0a1.38,1.38,0,0,1-1.47-.58,1.13,1.13,0,0,0-1.08-.49c-.36,0-1.8,1-3.67,3.48s-3.83,6.1-3.26,8.32c1,4,6.32,6.32,6.37,6.34a.5.5,0,0,1,.29.34,65.56,65.56,0,0,1,1.42,7C272.69,123.2,271.65,131.27,271.43,132.94Z" fill="#231f20"/><path d="M281.07,125a.53.53,0,0,1-.27-.08,4.27,4.27,0,0,1-1.88-4.17,2.79,2.79,0,0,1-2.46.53c-1.36-.48-1.82-2.4-2.24-4.68-.51-2.77,2.59-6.69,3.94-8.25,1.68-1.92,2-1.91,2.17-1.9a.5.5,0,0,1,.48.52.49.49,0,0,1-.34.45c-.82.55-5.82,6-5.27,9,.34,1.82.74,3.62,1.6,3.92.55.2,1.45-.21,2.6-1.19a.5.5,0,0,1,.62,0,.51.51,0,0,1,.17.59c-.05.11-1.13,2.87,1.15,4.36a.49.49,0,0,1,.15.69A.51.51,0,0,1,281.07,125Z" fill="#231f20"/><path d="M279.5,114.17s.25,2.89,3.5,2.3" fill="#fff"/><path d="M282.18,117.05a3.17,3.17,0,0,1-2-.61,3.42,3.42,0,0,1-1.21-2.23.5.5,0,0,1,1-.09,2.37,2.37,0,0,0,.83,1.53,2.58,2.58,0,0,0,2.08.33.5.5,0,0,1,.18,1A5.9,5.9,0,0,1,282.18,117.05Z" fill="#231f20"/><path d="M279.73,120.07h-.07a.49.49,0,0,1-.43-.56c0-.35.52-3.48,2.33-3.5h0a.5.5,0,0,1,.5.49.52.52,0,0,1-.5.51c-.68,0-1.21,1.58-1.35,2.64A.5.5,0,0,1,279.73,120.07Z" fill="#231f20"/><path d="M273.32,117.37a3.27,3.27,0,0,1-3-2c-1.38-2.67-1.58-3.36-.76-5.25.75-1.73,6.86-7.74,7.56-8.42a.48.48,0,0,1,.7,0,.5.5,0,0,1,0,.71c-1.85,1.81-6.77,6.79-7.34,8.11-.65,1.5-.6,1.83.73,4.39a2.36,2.36,0,0,0,3.27,1.14.51.51,0,0,1,.67.23.5.5,0,0,1-.23.67A3.64,3.64,0,0,1,273.32,117.37Z" fill="#231f20"/><path d="M270,115.92a.49.49,0,0,1-.32-.12l.32-.38-.32.38c-.4-.34-3.93-3.35-4.58-5.93-.7-2.75,5.25-9.08,5.93-9.79a.5.5,0,0,1,.71,0,.49.49,0,0,1,0,.7c-2.43,2.54-6.12,7.18-5.69,8.85.47,1.85,2.89,4.27,4.25,5.41a.53.53,0,0,1,.18.39.49.49,0,0,1-.29.45A.5.5,0,0,1,270,115.92Z" fill="#231f20"/><polygon points="229.58 267.66 243.94 125.77 203.06 120.86 176.91 267.66 229.58 267.66" fill="#231f20"/><path d="M192,267.66C194.86,239,209.17,147,210.25,129.75c1.28-20.5-8.31-30.54-8.31-30.54s-25,3.54-40.91,41.11-45,127.14-45,127.14l1.9.2Z" fill="#68e1fd"/><path d="M219.56,267.66h27.49c-1.9-5.71-6.26-19.5-7-27.32-.56-6.41,11.71-89.13,11.24-101.88s-7.4-12.69-7.4-12.69l-13.18,9.7,3.79,3.66S221.38,235,219.56,267.66Z" fill="#68e1fd"/><path d="M248.5,131.38l9.7,30.45,11-31.89,23.23,11.85s-9.31,95.74-27,89.07-26.56-23.25-26.56-23.25Z" fill="#68e1fd"/><path d="M179.73,227c4.83.14,8.79.57,8.79.57s11.39,14.07,14.17,11.86-7.54-15.58-8.31-16.26c0,0,6.2,1.26,10,3.41s8.32,7.11,11.79,6.61,3.68-2.13.31-5.71-10.68-8.38-15.44-9.84c0,0,2.68-1.62,7.85-.49s14.54,8.43,17.39,5-2.36-7.44-8.48-9.68-10.16-3.74-13.69-4.11c0,0,7.61-2.08,12-1.48s12.26,2.3,14.77.54.22-3.56-2.19-4.68-16.73-3.33-19.12-3.33-13.5,4.63-19.13,5.28S179,201.94,179,201.94L166.09,221.2S174.91,226.85,179.73,227Z" fill="#fff"/><path d="M202,240.13c-3.68,0-11.73-9.61-13.75-12.09-.87-.09-4.42-.43-8.55-.55h0c-4.91-.14-13.53-5.64-13.9-5.87a.55.55,0,0,1-.22-.32.47.47,0,0,1,.08-.38l12.95-19.26a.49.49,0,0,1,.67-.15s5.71,3.36,11.09,2.72c3.06-.36,7.74-1.9,11.86-3.25,3.45-1.14,6.18-2,7.33-2h0c2.47,0,16.81,2.19,19.34,3.38,2.26,1.06,3.46,2.19,3.56,3.36a2.46,2.46,0,0,1-1.3,2.18c-2.24,1.57-8,.66-12.54-.06-.93-.15-1.81-.29-2.58-.39-2.76-.37-6.86.34-9.43.9a91.07,91.07,0,0,1,10.92,3.57l.41.15c4,1.49,8.68,4.16,9.49,7.21a3.51,3.51,0,0,1-.8,3.26c-2.09,2.5-6.82.14-11.4-2.14a33.08,33.08,0,0,0-6.47-2.73,13,13,0,0,0-6.3,0,46.58,46.58,0,0,1,14.35,9.51c2.09,2.22,2.85,3.72,2.45,4.85s-1.93,1.54-3.05,1.7c-2.55.37-5.47-1.85-8.3-4a37.94,37.94,0,0,0-3.81-2.67,37.29,37.29,0,0,0-8.4-3c2.4,3,8,10.89,7.94,14.31a1.89,1.89,0,0,1-.66,1.52A1.5,1.5,0,0,1,202,240.13Zm-22.27-13.64c4.79.14,8.79.57,8.83.57a.49.49,0,0,1,.33.19c4.6,5.68,11.82,13.09,13.47,11.78a1,1,0,0,0,.28-.77c.09-3.69-8-14.16-8.62-14.73a.52.52,0,0,1-.11-.6.49.49,0,0,1,.55-.26c.25.05,6.33,1.31,10.13,3.47a37.89,37.89,0,0,1,3.93,2.73c2.66,2,5.41,4.13,7.55,3.81,1.32-.19,2.08-.54,2.25-1s-.08-1.54-2.24-3.83c-3.48-3.71-10.74-8.33-15.21-9.7a.5.5,0,0,1-.12-.9c.12-.08,2.91-1.72,8.22-.56a33.32,33.32,0,0,1,6.71,2.82c4,2,8.6,4.28,10.19,2.39a2.47,2.47,0,0,0,.59-2.36c-.58-2.21-4.07-4.77-8.87-6.53l-.4-.15c-5.89-2.16-9.77-3.58-13.16-3.93a.48.48,0,0,1-.44-.45.51.51,0,0,1,.36-.53c.32-.08,7.75-2.1,12.22-1.49.78.1,1.67.24,2.61.39,4.18.66,9.9,1.57,11.81.23.61-.43.91-.86.87-1.28-.06-.75-1.15-1.68-3-2.54-2.25-1.05-16.32-3.28-18.91-3.28h0c-1,0-3.92,1-7,2-4.17,1.37-8.89,2.92-12.05,3.29-4.93.58-9.87-1.84-11.31-2.62L166.8,221c1.81,1.13,8.91,5.34,12.95,5.45Z" fill="#231f20"/><path d="M209.65,89.5s33.08,18.86,35,24.39c1.56,4.51-28.27-1.91-33.47-5.61S209.65,89.5,209.65,89.5Z" fill="#231f20"/><path d="M240.85,115.94c-8.3,0-26.21-4.57-30-7.25-5.41-3.85-1.86-18.68-1.71-19.31a.49.49,0,0,1,.73-.31c1.36.77,33.26,19,35.2,24.65a1.27,1.27,0,0,1-.46,1.52A7.06,7.06,0,0,1,240.85,115.94ZM210,90.26c-.62,2.9-2.81,14.58,1.46,17.62,5.68,4,30.12,8.41,32.6,6.56a.28.28,0,0,0,.11-.39C242.68,109.75,219.55,95.75,210,90.26Z" fill="#231f20"/><path d="M227.58,38.31a3.55,3.55,0,0,0,2.51,0c1.06-.46,1.67-1.55,2.38-2.45a9.67,9.67,0,0,1,11.07-2.79c1.54.67,2.88,1.73,4.44,2.35,5.15,2,11.44-1.21,16.37,1.31A4.63,4.63,0,0,1,267,40.08c.08.71-.08,1.43,0,2.14.53,4.1,8.36,4.87,7.55,8.92-.31,1.57-2,2.59-2.3,4.15-.46,2.13,1.68,4.48.55,6.34-.38.63-1.06,1-1.49,1.62-1.6,2.24,1.19,5.41.29,8-.51,1.48-2.07,2.32-2.9,3.65-1.47,2.35-.43,5.79-2.25,7.89-.81.94-2.05,1.4-3,2.18-2.09,1.69-2.66,4.6-4.09,6.88-5.33,8.51-29.64-4.11-35.53-7.88s-20-17.1-12.68-24.79c1-1,2.47-2,2.3-3.45-.1-.91-.88-1.59-1.24-2.44-.66-1.55.17-3.3,1-4.78l2.8-5.11c1.71-3.14,4.29-6.76,7.84-6.32A25.08,25.08,0,0,1,227.58,38.31Z" fill="#fff"/><path d="M252.63,95.26c-9.85,0-25.36-8.49-29-10.85-4.27-2.73-13.94-11.31-14.87-19a7.76,7.76,0,0,1,2.1-6.57c.21-.23.44-.45.68-.67.82-.77,1.59-1.5,1.49-2.38a3.09,3.09,0,0,0-.62-1.28,6.79,6.79,0,0,1-.59-1c-.81-1.91.36-4.06,1-5.22l2.8-5.11c1-1.76,3.89-7.13,8.35-6.57a10.61,10.61,0,0,1,2.49.74c.44.18.89.35,1.33.48h0a3,3,0,0,0,2.16,0,4.77,4.77,0,0,0,1.74-1.7l.45-.6a10.16,10.16,0,0,1,11.66-2.94,22,22,0,0,1,2.15,1.15,15.43,15.43,0,0,0,2.27,1.19c2.36.94,5.07.7,7.68.48,3-.26,6-.52,8.74.86A5,5,0,0,1,267.53,40a6.11,6.11,0,0,1,0,1.13,5.68,5.68,0,0,0,0,1c.23,1.71,2,2.84,3.78,3.94,2.1,1.32,4.27,2.68,3.77,5.14a5.58,5.58,0,0,1-1.25,2.29,5,5,0,0,0-1,1.86,5.43,5.43,0,0,0,.4,2.68c.41,1.28.83,2.6.09,3.82a4.69,4.69,0,0,1-.88,1,4.31,4.31,0,0,0-.63.66c-.73,1-.35,2.35.05,3.78a6.84,6.84,0,0,1,.3,4.11,6.32,6.32,0,0,1-1.72,2.35,8.34,8.34,0,0,0-1.23,1.4,8.34,8.34,0,0,0-.89,3.55,7.58,7.58,0,0,1-1.4,4.41A7.37,7.37,0,0,1,265,84.59a11.54,11.54,0,0,0-1.18.79,10.47,10.47,0,0,0-2.65,4.11,21.11,21.11,0,0,1-1.34,2.64A6.48,6.48,0,0,1,255.49,95,13,13,0,0,1,252.63,95.26ZM223.26,37.57c-2.35,0-4.59,2-6.82,6.09l-2.8,5.11c-.76,1.4-1.52,3-.95,4.35a5.87,5.87,0,0,0,.5.85,3.82,3.82,0,0,1,.78,1.72c.16,1.38-.88,2.36-1.79,3.23-.22.21-.44.41-.64.62a6.82,6.82,0,0,0-1.84,5.77c.84,6.92,9.81,15.3,14.42,18.26C229.5,87,246.87,95.88,255.27,94A5.58,5.58,0,0,0,259,91.6a22.83,22.83,0,0,0,1.27-2.52,11.34,11.34,0,0,1,2.93-4.48,11.57,11.57,0,0,1,1.29-.86,7,7,0,0,0,1.68-1.26,6.75,6.75,0,0,0,1.16-3.85,9.15,9.15,0,0,1,1-4,9.48,9.48,0,0,1,1.37-1.58,5.59,5.59,0,0,0,1.49-2,6.09,6.09,0,0,0-.33-3.52c-.44-1.58-.9-3.22.11-4.62a5.43,5.43,0,0,1,.76-.82,3.57,3.57,0,0,0,.7-.77c.51-.83.19-1.84-.18-3a6.14,6.14,0,0,1-.43-3.19,5.71,5.71,0,0,1,1.24-2.25A4.8,4.8,0,0,0,274.11,51c.36-1.78-1.35-2.85-3.33-4.09s-3.95-2.48-4.23-4.66a6.89,6.89,0,0,1,0-1.2,6.15,6.15,0,0,0,0-1,4.08,4.08,0,0,0-2.41-3c-2.45-1.25-5.24-1-8.2-.76-2.73.24-5.56.48-8.14-.54a18.29,18.29,0,0,1-2.41-1.25,17.64,17.64,0,0,0-2-1.1,9.15,9.15,0,0,0-10.48,2.64l-.43.57a5.57,5.57,0,0,1-2.14,2,4.1,4.1,0,0,1-2.85,0h0c-.46-.14-.93-.32-1.41-.51a9.65,9.65,0,0,0-2.25-.68A4.53,4.53,0,0,0,223.26,37.57Z" fill="#231f20"/><path d="M241.35,107.44l-6,18.79s-8.44,12-20.06,3.86-9.91-18.84-9.91-18.84L212.62,89c1.45-4.42,2.87-8.85,4.34-13.26a15.38,15.38,0,0,1,1.78-4.49c1.89-2.56,5.89-2.61,7.44-5.39,1-1.78.27-4.24,1.51-5.86s3.54-1.59,4.84-3c1.6-1.75,1.35-5.26,3.66-5.81,2.54-.61,4.33,3.52,6.9,3.05,1-.19,1.77-1.08,2.77-1.35,1.42-.37,2.87.62,3.69,1.83s1.23,2.66,2,3.91a8.09,8.09,0,0,0,7.33,3.72c-.56,1.76.73,3.68,2.39,4.48a12.87,12.87,0,0,0,4.87.86c.44,4.73-1.34,10.49-2.31,15.14-1.3,6.24-2.67,13.07-5.93,18.63C252.41,110.77,241.35,107.44,241.35,107.44Z" fill="#fff"/><path d="M223.38,133.43A14.63,14.63,0,0,1,215,130.5c-11.73-8.27-10.13-19.22-10.11-19.33l8.75-26.79c1-2.94,1.91-5.88,2.89-8.82.12-.34.22-.7.33-1.06a11.33,11.33,0,0,1,1.52-3.57,9.48,9.48,0,0,1,3.82-2.66c1.47-.69,2.86-1.35,3.6-2.68a6.35,6.35,0,0,0,.57-2.58,6.19,6.19,0,0,1,1-3.34A6.23,6.23,0,0,1,230,57.92a6,6,0,0,0,2.18-1.29,7.23,7.23,0,0,0,1.23-2.52c.51-1.5,1-3,2.68-3.44s2.74.64,3.91,1.61c1,.83,2,1.63,3,1.43a4,4,0,0,0,1.29-.61,5.4,5.4,0,0,1,1.44-.72c1.67-.44,3.33.7,4.23,2a14.22,14.22,0,0,1,1.12,2.15,15.55,15.55,0,0,0,.89,1.78,7.58,7.58,0,0,0,6.86,3.48.49.49,0,0,1,.51.65c-.48,1.53.74,3.2,2.14,3.88a12.49,12.49,0,0,0,4.66.81.52.52,0,0,1,.49.46c.35,3.77-.69,8.2-1.61,12.11-.25,1.1-.5,2.16-.71,3.17l-.11.53c-1.25,6-2.66,12.78-5.88,18.25-4.95,8.45-14.41,6.87-16.64,6.36l-5.9,18.34a.33.33,0,0,1-.07.13c-.16.23-4,5.66-10.22,6.74A12.52,12.52,0,0,1,223.38,133.43ZM236.69,51.6a1.74,1.74,0,0,0-.39,0c-1.1.26-1.5,1.43-2,2.79a8,8,0,0,1-1.44,2.87,6.88,6.88,0,0,1-2.53,1.53,5.48,5.48,0,0,0-2.29,1.44,5.41,5.41,0,0,0-.76,2.82,7.35,7.35,0,0,1-.7,3c-.89,1.6-2.5,2.36-4,3.09a8.56,8.56,0,0,0-3.44,2.36,10.41,10.41,0,0,0-1.37,3.25c-.11.38-.22.74-.34,1.09-1,2.94-1.93,5.88-2.89,8.82l-8.73,26.72s-1.49,10.38,9.72,18.27c4.64,3.26,9.29,3.64,13.83,1.12a18.51,18.51,0,0,0,5.49-4.8l6-18.71a.5.5,0,0,1,.62-.33c.44.13,10.76,3.1,16-5.78,3.13-5.34,4.47-11.75,5.76-18l.11-.52c.21-1,.46-2.09.72-3.2.86-3.68,1.84-7.83,1.61-11.36a12.12,12.12,0,0,1-4.61-.89,4.71,4.71,0,0,1-2.8-4.41,8.6,8.6,0,0,1-7.13-4,15.19,15.19,0,0,1-1-1.89,13.47,13.47,0,0,0-1-2c-.7-1-1.94-1.94-3.14-1.62a4.29,4.29,0,0,0-1.17.59,4.66,4.66,0,0,1-1.64.76c-1.51.27-2.69-.7-3.84-1.65A4.77,4.77,0,0,0,236.69,51.6Zm-1.39,74.63h0Z" fill="#231f20"/><path d="M221.28,84.27a11.07,11.07,0,0,1-7.91-2.93c-3.09-2.89-3.94-7.1-3.16-11.15a9.94,9.94,0,0,1,1.66-4.14,5.25,5.25,0,0,1,3.76-2.2c1.8-.1,3.44.94,4.94,1.94,2.24,1.49,2.1,2.85,3.23,5-.13-.2-.18-.73-.31-.93" fill="#fff"/><path d="M220.84,84.78A11.5,11.5,0,0,1,213,81.7c-3-2.79-4.2-7-3.31-11.6a10.39,10.39,0,0,1,1.75-4.35,5.79,5.79,0,0,1,4.13-2.4c2-.12,3.9,1.12,5.25,2a6.43,6.43,0,0,1,2.66,3.54c.07.17.13.35.21.52a.54.54,0,0,1,.19.18,2.09,2.09,0,0,1,.22.61c0,.09.06.23.08.3l0,0a.51.51,0,0,1-.19.67.51.51,0,0,1-.67-.16.61.61,0,0,1-.07-.14,15.45,15.45,0,0,1-.73-1.66,5.38,5.38,0,0,0-2.29-3.07c-1.6-1.07-3-1.95-4.63-1.86a4.77,4.77,0,0,0-3.39,2,9.47,9.47,0,0,0-1.57,3.94c-.82,4.23.28,8.13,3,10.68a10.49,10.49,0,0,0,7.55,2.8.52.52,0,0,1,.52.48.5.5,0,0,1-.48.52Z" fill="#231f20"/><path d="M238.83,115.27s-6.78,2.24-10.28-5.45-1.26-12.09-1.26-12.09,5,8.07,14.06,9.71Z" fill="#231f20"/><path d="M236.6,116.06c-2.43,0-6.19-.94-8.51-6-3.56-7.82-1.34-12.34-1.24-12.53a.49.49,0,0,1,.42-.27.54.54,0,0,1,.44.24c0,.08,5,7.9,13.73,9.48a.5.5,0,0,1,.34.23.5.5,0,0,1,0,.41l-2.52,7.84a.49.49,0,0,1-.32.32A8.94,8.94,0,0,1,236.6,116.06Zm2.23-.79h0Zm-11.4-16.44c-.42,1.6-.91,5.35,1.57,10.79,2.95,6.47,8.24,5.55,9.44,5.25l2.26-7.05C233.48,106.29,229,100.92,227.43,98.83Z" fill="#231f20"/><path d="M248.81,73s3.21,12.6,1,13.8-6.37-1.59-6.37-1.59" fill="#fff"/><path d="M248.45,87.56c-2.38,0-5.18-1.87-5.32-2a.51.51,0,0,1-.14-.7.5.5,0,0,1,.7-.13c1.08.72,4.23,2.42,5.85,1.55,1.17-.62.29-7.35-1.21-13.22a.5.5,0,0,1,1-.25c.77,3,3.12,13.08.71,14.36A3.28,3.28,0,0,1,248.45,87.56Z" fill="#231f20"/><polyline points="234.31 66.61 245.18 69.92 237.93 62.51" fill="#fff"/><path d="M245.18,70.42l-.15,0-10.87-3.32a.5.5,0,1,1,.29-1l9,2.74-5.87-6a.5.5,0,0,1,0-.71.5.5,0,0,1,.71,0l7.24,7.41a.5.5,0,0,1,.07.61A.49.49,0,0,1,245.18,70.42Z" fill="#231f20"/><polyline points="262.56 72.13 254.67 72.5 263.4 77.07" fill="#fff"/><path d="M263.4,77.57a.46.46,0,0,1-.23-.06l-8.73-4.57a.5.5,0,0,1,.2-.94l7.89-.37a.49.49,0,0,1,.53.48.5.5,0,0,1-.48.52l-6,.28,7.09,3.71a.5.5,0,0,1-.23.95Z" fill="#231f20"/><path d="M242,90.67c-2.82,2.07-4.69,5.81-2.88,9.12.86,1.6,2.9,1.87,4.49,1.36,2.55-.81,2.32-2.53,3.1-4.65a12,12,0,0,1,1.14-1.87,3.93,3.93,0,0,0,0-4.1c-1.07-1.56-2.92-1.45-4.43-.72A9,9,0,0,0,242,90.67Z" fill="#fff"/><path d="M242.14,101.88A3.73,3.73,0,0,1,238.7,100c-2-3.71.15-7.66,3-9.76h0a9,9,0,0,1,1.5-.91c2.07-1,4-.65,5.06.89a4.42,4.42,0,0,1,0,4.64c-.14.24-.3.47-.46.7a4.65,4.65,0,0,0-.64,1.08,12.64,12.64,0,0,0-.41,1.35c-.41,1.49-.79,2.9-3,3.61A5.52,5.52,0,0,1,242.14,101.88Zm.18-10.81c-2.54,1.86-4.47,5.3-2.74,8.49.75,1.38,2.55,1.55,3.9,1.11,1.7-.54,2-1.48,2.34-2.91.12-.45.25-.93.44-1.44A5.83,5.83,0,0,1,247,95c.14-.21.29-.41.42-.63a3.38,3.38,0,0,0,0-3.56c-1.13-1.67-3.19-.85-3.8-.56a8.85,8.85,0,0,0-1.34.81Z" fill="#231f20"/><path d="M223.08,112c-2.76-1.86-4.91-4.37-7.33-7.16-2.84-3.3-6-10.73-6.1-15.36,0,0-8.77.27-9.59,5.28,0,0-7.53-2.54-8.1,5.54s13.91,41.69,32.81,41.31c5.81-.11,12-.77,17.34-3.29,3.46-1.64,8.31-7.93,7.31-12-.4-1.64-1.84-3-1.62-4.72a8.86,8.86,0,0,1,.77-2.06,5.5,5.5,0,0,0-6.33-7.37,21,21,0,0,0-4,1.8,14.45,14.45,0,0,1-9.71.54A18,18,0,0,1,223.08,112Z" fill="#fff"/><path d="M224.45,142.14c-5.71,0-11.41-2.95-16.94-8.77-9.76-10.26-16.47-27.15-16-33.08.18-2.58,1.06-4.41,2.62-5.44a7.35,7.35,0,0,1,5.61-.69c1.36-4.84,9.59-5.15,9.95-5.16a.48.48,0,0,1,.51.49c.12,4.7,3.31,12,6,15l.08.1c2.4,2.78,4.47,5.18,7.15,7h0a17.77,17.77,0,0,0,5.31,2.41,14,14,0,0,0,9.37-.51c.42-.2.83-.42,1.24-.64a11.46,11.46,0,0,1,2.85-1.2,6,6,0,0,1,6.91,8c-.09.23-.19.45-.29.67a4.44,4.44,0,0,0-.46,1.27,4.55,4.55,0,0,0,.78,2.57,8.76,8.76,0,0,1,.83,2c1.07,4.38-3.89,10.86-7.58,12.6-5.9,2.8-12.83,3.25-17.54,3.34ZM197.52,94.91a5.18,5.18,0,0,0-2.89.77c-1.28.86-2,2.43-2.17,4.68-.36,5.14,5.9,21.94,15.77,32.32,5.44,5.72,11,8.59,16.53,8.45,4.61-.09,11.41-.53,17.13-3.24,3.32-1.57,8-7.71,7-11.46a7.64,7.64,0,0,0-.74-1.74,5.37,5.37,0,0,1-.89-3.17,5.5,5.5,0,0,1,.54-1.57c.09-.2.18-.4.26-.6a5,5,0,0,0-5.75-6.7,10.29,10.29,0,0,0-2.6,1.11c-.43.23-.86.45-1.3.66a14.86,14.86,0,0,1-10,.56,18.78,18.78,0,0,1-5.61-2.54h0a38.44,38.44,0,0,1-7.34-7.16l-.08-.09c-2.68-3.11-5.87-10.25-6.2-15.16-1.81.15-8,.94-8.62,4.84a.5.5,0,0,1-.24.34.52.52,0,0,1-.42.05A8.27,8.27,0,0,0,197.52,94.91Z" fill="#231f20"/><path d="M218.5,108a5.16,5.16,0,0,1,2.82,4.72c.44,14.47-2.32,18.24-7.41,24.15-6.36,7.37-11,23.86-2.1,39.67,0,0,14.23-3,22.16,2.1,0,0-13.69-22.25-7.2-37,3.53-8,6.82-15.21,8-23.53S218.5,108,218.5,108Z" fill="#fff"/><path d="M234,179.11a.5.5,0,0,1-.27-.08c-7.66-5-21.65-2.06-21.79-2a.5.5,0,0,1-.54-.25,38,38,0,0,1-4.73-23.3c.8-6.61,3.31-12.78,6.89-16.94,5.08-5.9,7.72-9.64,7.29-23.8a4.64,4.64,0,0,0-2.51-4.28.51.51,0,0,1-.29-.59.48.48,0,0,1,.53-.37c.47,0,11.65,1.23,15.51,6.15a5.79,5.79,0,0,1,1.23,4.5c-1.16,8-4.27,15-7.56,22.53l-.5,1.14c-6.31,14.36,7,36.34,7.16,36.56a.49.49,0,0,1-.07.62A.52.52,0,0,1,234,179.11Zm-12.89-4a27.13,27.13,0,0,1,11.55,2.19,79.42,79.42,0,0,1-5.17-11.49c-2.41-6.84-4.56-16.63-1.14-24.42l.5-1.13c3.26-7.41,6.34-14.41,7.48-22.27a4.71,4.71,0,0,0-1-3.74c-2.69-3.44-9.6-5-12.94-5.51a6,6,0,0,1,1.49,4c.44,14.53-2.28,18.39-7.54,24.48-10.46,12.15-7,30.07-2.21,38.79A50.17,50.17,0,0,1,221.08,175.1Z" fill="#231f20"/><path d="M192,100.32C154.17,116.9,80.57,162.57,88.67,180.16s53.2,38.69,53.2,38.69l25.18-36Z" fill="#68e1fd"/><path d="M161.15,229a.59.59,0,0,1-.22,0c-14.31-7.19-48.94-26.32-49.28-26.52a.5.5,0,1,1,.48-.87c.35.19,34.33,19,48.85,26.3L178.39,202l-42.46-40a.5.5,0,0,1,.69-.73l42.76,40.32a.52.52,0,0,1,.08.65l-17.89,26.6A.52.52,0,0,1,161.15,229Z" fill="#231f20"/><path d="M149.86,174.88a.46.46,0,0,1-.33-.13.5.5,0,0,1,0-.71c.19-.21,19-20.8,28.71-31.36a.5.5,0,1,1,.73.68c-9.72,10.56-28.51,31.15-28.7,31.36A.52.52,0,0,1,149.86,174.88Z" fill="#231f20"/><path d="M245.78,100a.5.5,0,0,1-.44-.25c-2-3.6-7-3.51-7-3.52a.5.5,0,1,1,0-1c.22,0,5.58-.1,7.89,4a.5.5,0,0,1-.19.68A.5.5,0,0,1,245.78,100Z" fill="#231f20"/><path d="M217.2,126.65a.46.46,0,0,1-.28-.08c-10.71-7.38-16.18-27.57-16.41-28.42a.5.5,0,0,1,1-.26c.05.21,5.61,20.69,16,27.85a.5.5,0,0,1,.13.7A.49.49,0,0,1,217.2,126.65Z" fill="#d1d3d4"/><path d="M238.25,131.85a.51.51,0,0,1-.46-.29.49.49,0,0,1,.26-.66c2.76-1.23,5.44-5.36,5.47-5.4a.5.5,0,1,1,.84.54c-.11.18-2.87,4.42-5.91,5.77A.45.45,0,0,1,238.25,131.85Z" fill="#d1d3d4"/><path d="M214,164.06a.5.5,0,0,1-.49-.4c-.1-.51-2.5-12.57,1.75-20a.51.51,0,0,1,.94.26,30.78,30.78,0,0,0,1.44,9.48.5.5,0,1,1-.93.34,28.09,28.09,0,0,1-1.46-7.75c-2.81,7.13-.78,17.32-.76,17.43a.49.49,0,0,1-.39.59Z" fill="#d1d3d4"/><path d="M210.25,130.25a.47.47,0,0,1-.25-.07c-6.57-3.73-8.37-14.65-8.44-15.11a.5.5,0,0,1,1-.16c0,.11,1.79,10.91,7.95,14.41a.5.5,0,0,1,.19.68A.52.52,0,0,1,210.25,130.25Z" fill="#d1d3d4"/><path d="M155.05,103.51a.49.49,0,0,1-.47-.34.49.49,0,0,1,.32-.63c.11,0,11.92-3.87,21-3.45a.51.51,0,0,1,.48.53.47.47,0,0,1-.52.47c-8.89-.4-20.51,3.36-20.62,3.4Z" fill="#d1d3d4"/><path d="M240.47,234.84h-.05a.51.51,0,0,1-.45-.55c.07-.76,7.18-76.55,8.27-87.59a.5.5,0,1,1,1,.1c-1.09,11-8.19,86.82-8.26,87.58A.51.51,0,0,1,240.47,234.84Z" fill="#231f20"/><path d="M251.21,186.83l-.15,0a.5.5,0,0,1-.32-.63l17.94-56.39a.51.51,0,0,1,.63-.33.5.5,0,0,1,.32.63l-17.94,56.39A.5.5,0,0,1,251.21,186.83Z" fill="#231f20"/><path d="M275.17,86.42a.48.48,0,0,1-.4-.21.49.49,0,0,1,.11-.7L294.62,71.2a.5.5,0,1,1,.59.81L275.46,86.32A.46.46,0,0,1,275.17,86.42Z" fill="#d1d3d4"/><path d="M279.07,93.38a.5.5,0,0,1-.48-.37.49.49,0,0,1,.35-.61l18.58-5.09a.52.52,0,0,1,.62.36.5.5,0,0,1-.35.61L279.2,93.36Z" fill="#d1d3d4"/><path d="M302.32,102.76h-.07l-14-1.84a.5.5,0,1,1,.13-1l14,1.84a.51.51,0,0,1,.44.56A.51.51,0,0,1,302.32,102.76Z" fill="#d1d3d4"/><path d="M299.76,114a.54.54,0,0,1-.21,0l-7.42-3.37a.49.49,0,0,1-.24-.66.5.5,0,0,1,.66-.25L300,113a.5.5,0,0,1-.2,1Z" fill="#d1d3d4"/></g></svg>