<svg xmlns="http://www.w3.org/2000/svg" viewBox="0 0 400 300"><g id="_309_crossed_flags_flatline" data-name="#309_crossed_flags_flatline"><ellipse cx="199.45" cy="255.35" rx="64.5" ry="2.74" fill="#e6e7e8"/><path d="M215.46,120.51a1,1,0,0,1-.06-.71l27.75-66.59c.07-.17.21-.13.32.1C266.4,102.47,332,49.26,354.93,98.42a1.08,1.08,0,0,1,.06.72l-27.75,66.59c-.07.17-.22.12-.32-.1C304,116.47,238.39,169.67,215.46,120.51Z" fill="#fff"/><path d="M354.8,98.73l-27.75,66.59c-22.94-49.16-88.53,4.05-111.46-45.11l27.75-66.59c22.93,49.15,88.53-4,111.46,45.11Z" fill="#231f20"/><path d="M246.79,76.6a41.61,41.61,0,0,1-8.08-11.89l4.63-11.09a41.47,41.47,0,0,0,8.07,11.88Z" fill="#68e1fd"/><path d="M252.29,94.66a33.29,33.29,0,0,1-10.13-7l4.63-11.09a33.39,33.39,0,0,0,10.12,7Z" fill="#68e1fd"/><path d="M268.57,86.85a44.74,44.74,0,0,1-11.66-3.29l4.63-11.09a44.77,44.77,0,0,0,11.65,3.28Z" fill="#68e1fd"/><path d="M276.63,98.77A86.28,86.28,0,0,1,263.94,98l4.63-11.1a86.14,86.14,0,0,0,12.68.82Z" fill="#68e1fd"/><path d="M294.44,87.27c-4.42.2-8.85.41-13.19.4l4.63-11.09c4.34,0,8.76-.2,13.19-.41Z" fill="#68e1fd"/><path d="M303,98c-4.34,0-8.76.2-13.19.4l4.62-11.1c4.43-.2,8.86-.4,13.2-.4Z" fill="#68e1fd"/><path d="M320.32,87.7a84.87,84.87,0,0,0-12.68-.83l4.62-11.1A85,85,0,0,1,325,76.6Z" fill="#68e1fd"/><path d="M327.35,102.08a44.74,44.74,0,0,0-11.66-3.29l4.63-11.09A44.45,44.45,0,0,1,332,91Z" fill="#68e1fd"/><path d="M342.1,98A33.25,33.25,0,0,0,332,91l4.62-11.1a33.59,33.59,0,0,1,10.13,7Z" fill="#68e1fd"/><path d="M345.55,120.93a41,41,0,0,0-8.08-11.88L342.1,98a41.19,41.19,0,0,1,8.07,11.88Z" fill="#68e1fd"/><path d="M237.54,98.79a41.41,41.41,0,0,1-8.08-11.88l4.63-11.1a41.19,41.19,0,0,0,8.07,11.88Z" fill="#68e1fd"/><path d="M243,116.86a33.55,33.55,0,0,1-10.12-7l4.63-11.1a33.25,33.25,0,0,0,10.12,7Z" fill="#68e1fd"/><path d="M259.32,109a44.34,44.34,0,0,1-11.66-3.28l4.63-11.1A44.67,44.67,0,0,0,263.94,98Z" fill="#68e1fd"/><path d="M267.37,121a84.87,84.87,0,0,1-12.68-.83l4.63-11.1a84.78,84.78,0,0,0,12.68.83Z" fill="#68e1fd"/><path d="M285.19,109.47c-4.42.2-8.85.4-13.19.4l4.63-11.1c4.34,0,8.76-.2,13.19-.4Z" fill="#68e1fd"/><path d="M293.76,120.17c-4.34,0-8.77.2-13.19.4l4.62-11.1c4.43-.2,8.86-.41,13.2-.4Z" fill="#68e1fd"/><path d="M311.07,109.89a86.23,86.23,0,0,0-12.68-.82L303,98a86.14,86.14,0,0,1,12.68.82Z" fill="#68e1fd"/><path d="M318.1,124.28A44.36,44.36,0,0,0,306.44,121l4.63-11.1a44.85,44.85,0,0,1,11.66,3.29Z" fill="#68e1fd"/><path d="M332.85,120.14a33.39,33.39,0,0,0-10.12-7l4.62-11.1a33.25,33.25,0,0,1,10.12,7Z" fill="#68e1fd"/><path d="M336.3,143.12a41.69,41.69,0,0,0-8.08-11.88l4.63-11.1A41.39,41.39,0,0,1,340.92,132Z" fill="#68e1fd"/><path d="M228.29,121a41.55,41.55,0,0,1-8.08-11.88L224.84,98a41.19,41.19,0,0,0,8.07,11.88Z" fill="#68e1fd"/><path d="M233.78,139.06a33.55,33.55,0,0,1-10.12-7l4.63-11.1a33.43,33.43,0,0,0,10.12,7Z" fill="#68e1fd"/><path d="M250.07,131.24A44.73,44.73,0,0,1,238.41,128l4.62-11.1a44.45,44.45,0,0,0,11.66,3.28Z" fill="#68e1fd"/><path d="M258.12,143.17a86.22,86.22,0,0,1-12.68-.83l4.63-11.1a84.78,84.78,0,0,0,12.68.83Z" fill="#68e1fd"/><path d="M275.94,131.67c-4.42.2-8.85.4-13.19.4l4.62-11.1c4.35,0,8.77-.2,13.2-.4Z" fill="#68e1fd"/><path d="M284.51,142.36c-4.34,0-8.77.2-13.19.4l4.62-11.09c4.43-.21,8.86-.41,13.2-.41Z" fill="#68e1fd"/><path d="M301.82,132.09a86.22,86.22,0,0,0-12.68-.83l4.62-11.09a86.14,86.14,0,0,1,12.68.82Z" fill="#68e1fd"/><path d="M308.85,146.47a44.73,44.73,0,0,0-11.66-3.28l4.63-11.1a44.84,44.84,0,0,1,11.66,3.28Z" fill="#68e1fd"/><path d="M323.6,142.34a33.55,33.55,0,0,0-10.12-7l4.62-11.09a33.39,33.39,0,0,1,10.12,7Z" fill="#68e1fd"/><path d="M327.05,165.32A41.55,41.55,0,0,0,319,153.44l4.63-11.1a41.47,41.47,0,0,1,8.07,11.88Z" fill="#68e1fd"/><path d="M245.47,47.89a3,3,0,0,1-.25,1.2l-1.76,4.21-28.05,67.07h0l-6.78,16.22-19.12,45.72-29.73,71.1A3.14,3.14,0,1,1,154,251l31.84-76.14,19.23-46,34.37-82.19a3.14,3.14,0,0,1,6,1.21Z" fill="#fff"/><path d="M242.33,44.74a3,3,0,0,1,1.2.25,3.15,3.15,0,0,1,1.94,2.9,3,3,0,0,1-.25,1.2l-1.76,4.21-28.05,67.07h0l-6.78,16.22-19.12,45.72-29.73,71.1a3.11,3.11,0,0,1-2.9,1.93A3.14,3.14,0,0,1,154,251l31.84-76.14,19.23-46,34.37-82.19a3.14,3.14,0,0,1,2.9-1.94m0-.91h0a4,4,0,0,0-3.74,2.49l-34.37,82.2-19.24,46-31.83,76.14a4.07,4.07,0,0,0,2.18,5.3,4,4,0,0,0,1.55.31,4,4,0,0,0,3.75-2.49l29.73-71.1L209.48,137l6.78-16.22s0,0,0-.07l28-67,1.77-4.21a4,4,0,0,0-3.74-5.61Z" fill="#231f20"/><path d="M196.55,165.5l4.73-11.31c-1.05-1.63-2.06-3.29-3-5a3.06,3.06,0,0,1-.3-.32c-.29-.35-.56-.72-.83-1.08L194,155.27C195,158.65,195.83,162.06,196.55,165.5Z" fill="#d1d3d4"/><path d="M184.54,120.51a1,1,0,0,0,.06-.71L156.85,53.21c-.07-.17-.21-.13-.32.1C133.6,102.47,68,49.26,45.07,98.42a1.08,1.08,0,0,0-.06.72l27.75,66.59c.07.17.22.12.32-.1C96,116.47,161.61,169.67,184.54,120.51Z" fill="#fff"/><path d="M45.2,98.73c22.93-49.16,88.53,4,111.46-45.11l27.75,66.59c-22.93,49.16-88.52-4-111.46,45.11L45.2,98.73" fill="#231f20"/><path d="M153.21,76.6a41.61,41.61,0,0,0,8.08-11.89l-4.63-11.09a41.47,41.47,0,0,1-8.07,11.88Z" fill="#68e1fd"/><path d="M147.71,94.66a33.29,33.29,0,0,0,10.13-7L153.21,76.6a33.39,33.39,0,0,1-10.12,7Z" fill="#68e1fd"/><path d="M131.43,86.85a44.74,44.74,0,0,0,11.66-3.29l-4.63-11.09a44.77,44.77,0,0,1-11.65,3.28Z" fill="#68e1fd"/><path d="M123.37,98.77A86.28,86.28,0,0,0,136.06,98l-4.63-11.1a86.14,86.14,0,0,1-12.68.82Z" fill="#68e1fd"/><path d="M105.56,87.27c4.42.2,8.85.41,13.19.4l-4.63-11.09c-4.34,0-8.76-.2-13.19-.41Z" fill="#68e1fd"/><path d="M97,98c4.34,0,8.76.2,13.19.4l-4.62-11.1c-4.43-.2-8.86-.4-13.2-.4Z" fill="#68e1fd"/><path d="M79.68,87.7a84.87,84.87,0,0,1,12.68-.83l-4.62-11.1a85,85,0,0,0-12.69.83Z" fill="#68e1fd"/><path d="M72.65,102.08a44.74,44.74,0,0,1,11.66-3.29L79.68,87.7A44.45,44.45,0,0,0,68,91Z" fill="#68e1fd"/><path d="M57.9,98A33.25,33.25,0,0,1,68,91L63.4,79.88a33.59,33.59,0,0,0-10.13,7Z" fill="#68e1fd"/><path d="M54.45,120.93a41,41,0,0,1,8.08-11.88L57.9,98a41.19,41.19,0,0,0-8.07,11.88Z" fill="#68e1fd"/><path d="M162.46,98.79a41.41,41.41,0,0,0,8.08-11.88l-4.63-11.1a41.19,41.19,0,0,1-8.07,11.88Z" fill="#68e1fd"/><path d="M157,116.86a33.55,33.55,0,0,0,10.12-7l-4.63-11.1a33.25,33.25,0,0,1-10.12,7Z" fill="#68e1fd"/><path d="M140.68,109a44.34,44.34,0,0,0,11.66-3.28l-4.63-11.1A44.67,44.67,0,0,1,136.06,98Z" fill="#68e1fd"/><path d="M132.63,121a84.87,84.87,0,0,0,12.68-.83L140.68,109a84.78,84.78,0,0,1-12.68.83Z" fill="#68e1fd"/><path d="M114.81,109.47c4.42.2,8.85.4,13.19.4l-4.63-11.1c-4.34,0-8.76-.2-13.19-.4Z" fill="#68e1fd"/><path d="M106.24,120.17c4.34,0,8.77.2,13.19.4l-4.62-11.1c-4.43-.2-8.86-.41-13.2-.4Z" fill="#68e1fd"/><path d="M88.93,109.89a86.23,86.23,0,0,1,12.68-.82L97,98a86.14,86.14,0,0,0-12.68.82Z" fill="#68e1fd"/><path d="M81.9,124.28A44.36,44.36,0,0,1,93.56,121l-4.63-11.1a44.85,44.85,0,0,0-11.66,3.29Z" fill="#68e1fd"/><path d="M67.15,120.14a33.39,33.39,0,0,1,10.12-7l-4.62-11.1a33.25,33.25,0,0,0-10.12,7Z" fill="#68e1fd"/><path d="M63.7,143.12a41.69,41.69,0,0,1,8.08-11.88l-4.63-11.1A41.39,41.39,0,0,0,59.08,132Z" fill="#68e1fd"/><path d="M171.71,121a41.55,41.55,0,0,0,8.08-11.88L175.16,98a41.19,41.19,0,0,1-8.07,11.88Z" fill="#68e1fd"/><path d="M166.22,139.06a33.55,33.55,0,0,0,10.12-7L171.71,121a33.43,33.43,0,0,1-10.12,7Z" fill="#68e1fd"/><path d="M149.93,131.24A44.73,44.73,0,0,0,161.59,128L157,116.86a44.45,44.45,0,0,1-11.66,3.28Z" fill="#68e1fd"/><path d="M141.88,143.17a86.22,86.22,0,0,0,12.68-.83l-4.63-11.1a84.78,84.78,0,0,1-12.68.83Z" fill="#68e1fd"/><path d="M124.06,131.67c4.42.2,8.85.4,13.19.4L132.63,121c-4.35,0-8.77-.2-13.2-.4Z" fill="#68e1fd"/><path d="M115.49,142.36c4.34,0,8.77.2,13.19.4l-4.62-11.09c-4.43-.21-8.86-.41-13.2-.41Z" fill="#68e1fd"/><path d="M98.18,132.09a86.22,86.22,0,0,1,12.68-.83l-4.62-11.09a86.14,86.14,0,0,0-12.68.82Z" fill="#68e1fd"/><path d="M91.15,146.47a44.73,44.73,0,0,1,11.66-3.28l-4.63-11.1a44.84,44.84,0,0,0-11.66,3.28Z" fill="#68e1fd"/><path d="M76.4,142.34a33.55,33.55,0,0,1,10.12-7L81.9,124.28a33.39,33.39,0,0,0-10.12,7Z" fill="#68e1fd"/><path d="M73,165.32A41.55,41.55,0,0,1,81,153.44l-4.63-11.1a41.47,41.47,0,0,0-8.07,11.88Z" fill="#68e1fd"/><path d="M244.32,255.11h0A3.15,3.15,0,0,0,246,251L160.57,46.67A3.15,3.15,0,0,0,156.46,45h0a3.15,3.15,0,0,0-1.69,4.11l85.44,204.33A3.15,3.15,0,0,0,244.32,255.11Z" fill="#fff"/><path d="M157.67,44.74a3.14,3.14,0,0,1,2.9,1.93L246,251a3.15,3.15,0,0,1-1.69,4.11,3.26,3.26,0,0,1-1.21.24,3.14,3.14,0,0,1-2.9-1.93L154.77,49.09A3.15,3.15,0,0,1,156.46,45a3.26,3.26,0,0,1,1.21-.24m0-.91a4,4,0,0,0-1.56.31,4.07,4.07,0,0,0-2.19,2.2,4,4,0,0,0,0,3.1l85.44,204.33a4,4,0,0,0,3.74,2.49,4,4,0,0,0,1.56-.31,4.07,4.07,0,0,0,2.19-2.2,4,4,0,0,0,0-3.1L161.41,46.32a4,4,0,0,0-3.74-2.49Z" fill="#231f20"/><path d="M184.54,121a.45.45,0,0,1-.45-.37c0-.12-.46-2.85,5.11-5.15l2.61-3.4a.46.46,0,0,1,.64-.09.45.45,0,0,1,.08.64l-2.69,3.5a.4.4,0,0,1-.19.15c-4.91,2-4.66,4.17-4.66,4.19a.45.45,0,0,1-.38.52Z" fill="#231f20"/><path d="M156.53,53.77a.5.5,0,0,1-.28-.1.46.46,0,0,1-.08-.64,7,7,0,0,1,4-2.53,3.58,3.58,0,0,1,2.32.5l1.3-3a.46.46,0,0,1,.6-.24.45.45,0,0,1,.23.6l-1.52,3.47a.43.43,0,0,1-.3.26.45.45,0,0,1-.4-.08,2.78,2.78,0,0,0-2.12-.64,6.22,6.22,0,0,0-3.37,2.18A.47.47,0,0,1,156.53,53.77Z" fill="#231f20"/><path d="M189.48,116.28a.46.46,0,0,1-.1-.9l4.54-1a.46.46,0,0,1,.2.89l-4.54,1Z" fill="#231f20"/><path d="M167.09,52.15h-4.42a.46.46,0,0,1,0-.92h4.42a.46.46,0,0,1,0,.92Z" fill="#231f20"/><path d="M215.41,120.84a.46.46,0,0,1-.44-.35,4.11,4.11,0,0,0-4.91-2.95.47.47,0,0,1-.36-.11L207,115.17a.47.47,0,0,1-.06-.65.46.46,0,0,1,.64,0l2.57,2.13a5.06,5.06,0,0,1,5.73,3.68.47.47,0,0,1-.34.55Z" fill="#231f20"/><path d="M207.27,118.06a.46.46,0,0,1-.08-.91l2.72-.52a.47.47,0,0,1,.53.37.45.45,0,0,1-.36.53l-2.72.52Z" fill="#231f20"/><path d="M243.46,53.76a.48.48,0,0,1-.36-.17c-.06-.09-1.62-1.92-5.72-1.45a.38.38,0,0,1-.27,0l-4.42-2.43a.46.46,0,0,1,.44-.8l4.3,2.36c4.52-.48,6.31,1.7,6.39,1.8a.46.46,0,0,1-.07.64A.46.46,0,0,1,243.46,53.76Z" fill="#231f20"/><path d="M232.91,53.13a.44.44,0,0,1-.44-.36.45.45,0,0,1,.34-.54l4.42-1a.46.46,0,0,1,.2.9l-4.42,1Z" fill="#231f20"/></g></svg>