<svg xmlns="http://www.w3.org/2000/svg" viewBox="0 0 400 300"><g id="_401_dallas_flatline" data-name="#401_dallas_flatline"><rect x="39.4" y="45.82" width="321.2" height="208.36" fill="#68e1fd"/><path d="M360.6,61.07v93.65c-1.83-1.12-3.68-2.2-5.59-3.17-6.32-3.2-14-5-20.41-2-2.39,1.13-4.6,2.91-7.24,3.08-3.87.25-6.95-2.94-10.1-5.19-8.66-6.18-20.37-5.83-30.77-3.61-8,1.7-16.4,5.35-24.6,5.59-6.48.18-12.86-1.51-19.46-1.94a15.76,15.76,0,0,1-5.37-1c-1.81-.8-3.26-2.26-5-3.15-3.68-1.85-8.08-1-12.11-.15l-16.17,3.51c-2.42.53-5,1-7.31.18,6.68-2.34,13.91-5.12,17.44-11.26,1.31-2.26,2.13-5,4.33-6.42,2.88-1.84,6.65-.56,10.06-.73,5.7-.29,10.27-4.69,13.9-9.1,6.16-7.51,12.85-15.46,23.33-15.37,12.5.11,31.41,9.27,42.18-1.22,8.54-8.32,5.63-29,24.77-20.68,1.61.7,3.24,1.62,5,1.49,3.29-.25,5.06-3.84,6.6-6.76C346.76,71.66,353.22,65.38,360.6,61.07Z" fill="#fff"/><rect x="39.4" y="221.1" width="12.2" height="33.08" fill="#231f20"/><path d="M51.6,254.68H39.4a.5.5,0,0,1-.5-.5V221.1a.5.5,0,0,1,.5-.5H51.6a.5.5,0,0,1,.5.5v33.08A.5.5,0,0,1,51.6,254.68Zm-11.7-1H51.1V221.6H39.9Z" fill="#231f20"/><rect x="352.21" y="204.88" width="8.39" height="49.3" fill="#231f20"/><path d="M360.6,254.68h-8.39a.5.5,0,0,1-.5-.5v-49.3a.5.5,0,0,1,.5-.5h8.39a.5.5,0,0,1,.5.5v49.3A.5.5,0,0,1,360.6,254.68Zm-7.89-1h7.39v-48.3h-7.39Z" fill="#231f20"/><rect x="165.07" y="212.02" width="30.97" height="34.16" fill="#231f20"/><path d="M196,246.68h-31a.5.5,0,0,1-.5-.5V212a.5.5,0,0,1,.5-.5h31a.5.5,0,0,1,.5.5v34.16A.51.51,0,0,1,196,246.68Zm-30.47-1h30V212.52h-30Z" fill="#231f20"/><rect x="324.99" y="179.47" width="13.52" height="27.85" fill="#d1d3d4"/><path d="M338.51,207.82H325a.5.5,0,0,1-.5-.5V179.47a.5.5,0,0,1,.5-.5h13.52a.51.51,0,0,1,.5.5v27.85A.5.5,0,0,1,338.51,207.82Zm-13-1H338V180H325.49Z" fill="#231f20"/><rect x="313.34" y="179.47" width="11.65" height="27.85" transform="translate(638.33 386.79) rotate(180)" fill="#231f20"/><path d="M325,207.82H313.34a.5.5,0,0,1-.5-.5V179.47a.51.51,0,0,1,.5-.5H325a.5.5,0,0,1,.5.5v27.85A.5.5,0,0,1,325,207.82Zm-11.15-1h10.65V180H313.84Z" fill="#231f20"/><polygon points="305.47 164.53 289.7 166.97 289.7 252.37 311.29 250.61 305.47 164.53" fill="#fff"/><path d="M289.7,252.87a.5.5,0,0,1-.34-.13.51.51,0,0,1-.16-.37V167a.51.51,0,0,1,.43-.5L305.39,164a.5.5,0,0,1,.39.11.48.48,0,0,1,.19.35l5.82,86.09a.5.5,0,0,1-.46.53l-21.59,1.76Zm.5-85.48v84.44l20.56-1.68L305,165.1Z" fill="#231f20"/><polygon points="322.74 252.37 305.47 252.37 305.47 164.53 322.74 168.1 322.74 252.37" fill="#fff"/><path d="M322.74,252.87H305.47a.5.5,0,0,1-.5-.5V164.53a.52.52,0,0,1,.18-.39.49.49,0,0,1,.42-.1l17.27,3.57a.5.5,0,0,1,.4.49v84.27A.5.5,0,0,1,322.74,252.87Zm-16.77-1h16.27V168.51L306,165.14Z" fill="#231f20"/><path d="M319.73,171.44h-.08l-10.52-1.68a.55.55,0,0,1-.45-.64.54.54,0,0,1,.63-.45l10.51,1.68a.55.55,0,0,1-.09,1.09Z" fill="#d1d3d4"/><path d="M319.73,175h-.08l-10.52-1.68a.55.55,0,0,1-.45-.64.54.54,0,0,1,.63-.45l10.51,1.68a.55.55,0,0,1-.09,1.09Z" fill="#d1d3d4"/><path d="M319.73,178.52h-.08l-10.52-1.68a.56.56,0,0,1-.45-.64.55.55,0,0,1,.63-.46l10.51,1.68a.56.56,0,0,1,.46.64A.55.55,0,0,1,319.73,178.52Z" fill="#d1d3d4"/><path d="M319.73,182.06h-.08l-10.52-1.68a.56.56,0,0,1-.45-.64.55.55,0,0,1,.63-.46L319.82,181a.56.56,0,0,1,.46.64A.55.55,0,0,1,319.73,182.06Z" fill="#d1d3d4"/><path d="M319.73,185.6h-.08l-10.52-1.68a.55.55,0,0,1,.18-1.09l10.51,1.68a.56.56,0,0,1,.46.64A.55.55,0,0,1,319.73,185.6Z" fill="#d1d3d4"/><path d="M319.73,189.14h-.08l-10.52-1.68a.55.55,0,0,1,.18-1.09L319.82,188a.56.56,0,0,1,.46.64A.55.55,0,0,1,319.73,189.14Z" fill="#d1d3d4"/><path d="M319.73,192.68h-.08L309.13,191a.55.55,0,0,1,.18-1.09l10.51,1.68a.55.55,0,0,1-.09,1.1Z" fill="#d1d3d4"/><path d="M319.73,196.22h-.08l-10.52-1.68a.55.55,0,0,1,.18-1.09l10.51,1.68a.55.55,0,0,1-.09,1.1Z" fill="#d1d3d4"/><path d="M319.73,199.76h-.08l-10.52-1.68a.55.55,0,0,1,.18-1.09l10.51,1.68a.55.55,0,0,1,.46.63A.56.56,0,0,1,319.73,199.76Z" fill="#d1d3d4"/><path d="M319.73,203.3h-.08l-10.52-1.68a.55.55,0,0,1,.18-1.09l10.51,1.68a.55.55,0,0,1,.46.63A.56.56,0,0,1,319.73,203.3Z" fill="#d1d3d4"/><path d="M319.73,206.84h-.08l-10.52-1.68a.55.55,0,0,1,.18-1.09l10.51,1.68a.55.55,0,0,1,.46.63A.56.56,0,0,1,319.73,206.84Z" fill="#d1d3d4"/><path d="M319.73,210.38h-.08l-10.52-1.68a.55.55,0,0,1,.18-1.09l10.51,1.68a.55.55,0,0,1,.46.63A.56.56,0,0,1,319.73,210.38Z" fill="#d1d3d4"/><path d="M319.73,213.92h-.08l-10.52-1.68a.55.55,0,0,1-.45-.63.54.54,0,0,1,.63-.46l10.51,1.68a.55.55,0,0,1,.46.63A.56.56,0,0,1,319.73,213.92Z" fill="#d1d3d4"/><path d="M319.73,217.46h-.08l-10.52-1.68a.55.55,0,0,1-.45-.64.54.54,0,0,1,.63-.45l10.51,1.68a.55.55,0,0,1,.46.63A.56.56,0,0,1,319.73,217.46Z" fill="#d1d3d4"/><polygon points="323.26 192.31 335.5 192.31 335.5 254.25 318.61 254.25 318.61 201.69 318.61 192.31 323.26 192.31" fill="#fff"/><path d="M335.5,254.75H318.61a.5.5,0,0,1-.5-.5V192.31a.5.5,0,0,1,.5-.5H335.5a.5.5,0,0,1,.5.5v61.94A.5.5,0,0,1,335.5,254.75Zm-16.39-1H335V192.81H319.11Z" fill="#231f20"/><polygon points="323.26 253.87 310.54 253.87 310.54 194.18 323.26 192.31 323.26 253.87" fill="#fff"/><path d="M323.26,254.37H310.54a.5.5,0,0,1-.5-.5V194.18a.5.5,0,0,1,.43-.49l12.72-1.88a.49.49,0,0,1,.4.12.49.49,0,0,1,.17.38v61.56A.5.5,0,0,1,323.26,254.37Zm-12.22-1h11.72V192.89L311,194.61Z" fill="#231f20"/><rect x="346.39" y="192.31" width="6.95" height="61.76" fill="#231f20"/><path d="M353.33,254.56h-6.94a.5.5,0,0,1-.5-.5V192.31a.5.5,0,0,1,.5-.5h6.94a.5.5,0,0,1,.5.5v61.75A.5.5,0,0,1,353.33,254.56Zm-6.44-1h5.94V192.81h-5.94Z" fill="#231f20"/><polygon points="318.61 254.06 318.61 196.62 346.39 193.06 346.39 254.06 318.61 254.06" fill="#fff"/><path d="M346.39,254.56H318.61a.5.5,0,0,1-.5-.5V196.62a.5.5,0,0,1,.44-.49l27.78-3.57a.51.51,0,0,1,.39.12.5.5,0,0,1,.17.38v61A.5.5,0,0,1,346.39,254.56Zm-27.28-1h26.78V193.63l-26.78,3.43Z" fill="#231f20"/><polygon points="274.61 124.73 282.94 126.89 282.94 137.12 274.61 135.9 274.61 124.73" fill="#fff"/><path d="M282.94,137.62h-.07l-8.33-1.22a.51.51,0,0,1-.43-.5V124.73a.49.49,0,0,1,.19-.39.48.48,0,0,1,.43-.09l8.34,2.16a.48.48,0,0,1,.37.48v10.23a.49.49,0,0,1-.5.5Zm-7.83-2.15,7.33,1.07v-9.26l-7.33-1.9Z" fill="#231f20"/><path d="M274.61,133.18s0-8.45,0-8.45l-10.22,2.18v12.18Z" fill="#d1d3d4"/><path d="M264.39,139.59a.43.43,0,0,1-.25-.07.47.47,0,0,1-.25-.43V126.91a.48.48,0,0,1,.39-.48l10.22-2.19a.53.53,0,0,1,.42.1.51.51,0,0,1,.19.39c0,8.24,0,8.8-.31,8.92l-10.16,5.87A.47.47,0,0,1,264.39,139.59Zm.5-12.27v10.9l9.23-5.34c0-1,0-4.71,0-7.53Z" fill="#231f20"/><polygon points="273.75 133.37 263.61 135.24 263.61 138.25 261.5 139.37 261.5 229.11 273.75 228.06 273.75 133.37" fill="#d1d3d4"/><path d="M261.5,229.61a.53.53,0,0,1-.34-.13.52.52,0,0,1-.16-.37V139.37a.51.51,0,0,1,.26-.44l1.85-1v-2.71a.5.5,0,0,1,.41-.49l10.14-1.88a.56.56,0,0,1,.41.11.53.53,0,0,1,.18.39v94.69a.5.5,0,0,1-.46.5l-12.25,1.05Zm.5-89.94v88.89l11.25-.95V134l-9.14,1.69v2.59a.51.51,0,0,1-.26.44Z" fill="#231f20"/><polygon points="273.75 221.1 273.75 133.37 276.44 132.78 285.81 135.24 285.81 226.16 273.75 221.1" fill="#fff"/><path d="M285.81,226.66a.48.48,0,0,1-.2,0l-12.06-5.06a.51.51,0,0,1-.3-.46V133.37a.49.49,0,0,1,.39-.49l2.69-.59a.59.59,0,0,1,.23,0l9.37,2.46a.51.51,0,0,1,.38.48v90.92a.5.5,0,0,1-.23.42A.45.45,0,0,1,285.81,226.66Zm-11.56-5.9,11.06,4.65V135.63l-8.88-2.34-2.18.48Z" fill="#231f20"/><path d="M173.18,121.28a19.66,19.66,0,1,1,19.66-19.66A19.68,19.68,0,0,1,173.18,121.28Zm0-38.32a18.66,18.66,0,1,0,18.66,18.66A18.69,18.69,0,0,0,173.18,83Z" fill="#231f20"/><path d="M183.8,98H163.41V87.85a43.1,43.1,0,0,1,9.83-1.2,54.38,54.38,0,0,1,10.56,1.2Z" fill="#fff"/><path d="M183.8,98.48H163.41a.5.5,0,0,1-.5-.5V87.85a.5.5,0,0,1,.37-.49,43.44,43.44,0,0,1,10-1.21,55.71,55.71,0,0,1,10.67,1.21.49.49,0,0,1,.39.49V98A.5.5,0,0,1,183.8,98.48Zm-19.89-1H183.3V88.25a54.09,54.09,0,0,0-10.06-1.1,43.33,43.33,0,0,0-9.33,1.09Z" fill="#231f20"/><path d="M190.59,107.46a48.12,48.12,0,0,0-34,0V93.85a48.12,48.12,0,0,1,34,0Z" fill="#fff"/><path d="M190.59,108a.47.47,0,0,1-.17,0,47.48,47.48,0,0,0-33.62,0,.5.5,0,0,1-.68-.47V93.85a.5.5,0,0,1,.32-.46,48.45,48.45,0,0,1,34.33,0,.5.5,0,0,1,.32.46v13.61a.49.49,0,0,1-.21.41A.52.52,0,0,1,190.59,108Zm-17-4.1a48.4,48.4,0,0,1,16.48,2.89V94.2a47.57,47.57,0,0,0-33,0v12.55A48.42,48.42,0,0,1,173.61,103.86Z" fill="#231f20"/><ellipse cx="173.61" cy="107.19" rx="16.99" ry="4.4" fill="#231f20"/><path d="M173.61,112.09c-8.48,0-17.49-1.71-17.49-4.9s9-4.9,17.49-4.9,17.48,1.72,17.48,4.9S182.08,112.09,173.61,112.09Zm0-8.8c-9.72,0-16.49,2.06-16.49,3.9s6.77,3.9,16.49,3.9,16.48-2,16.48-3.9S183.32,103.29,173.61,103.29Z" fill="#231f20"/><ellipse cx="173.18" cy="113.42" rx="16" ry="3.99" fill="#fff"/><path d="M173.18,117.91c-8,0-16.5-1.57-16.5-4.49s8.5-4.49,16.5-4.49,16.51,1.58,16.51,4.49S181.18,117.91,173.18,117.91Zm0-8c-9.6,0-15.5,2-15.5,3.49s5.9,3.49,15.5,3.49,15.51-2,15.51-3.49S182.79,109.93,173.18,109.93Z" fill="#231f20"/><rect x="164.31" y="145.76" width="17.18" height="25.9" fill="#231f20"/><path d="M181.49,172.16H164.31a.5.5,0,0,1-.5-.5V145.75a.5.5,0,0,1,.5-.5h17.18a.51.51,0,0,1,.5.5v25.91A.5.5,0,0,1,181.49,172.16Zm-16.68-1H181V146.25H164.81Z" fill="#231f20"/><rect x="164.31" y="186.11" width="17.18" height="31.46" fill="#231f20"/><path d="M181.49,218.08H164.31a.5.5,0,0,1-.5-.5V186.11a.5.5,0,0,1,.5-.5h17.18a.51.51,0,0,1,.5.5v31.47A.51.51,0,0,1,181.49,218.08Zm-16.68-1H181V186.61H164.81Z" fill="#231f20"/><path d="M169,113s.65-1.44,4.17-1.44,4,1.44,4,1.44V246.37H169Z" fill="#fff"/><path d="M177.2,246.87H169a.5.5,0,0,1-.5-.5V113a.46.46,0,0,1,0-.21c.08-.18.9-1.73,4.63-1.73s4.43,1.59,4.49,1.77a.51.51,0,0,1,0,.17V246.37A.51.51,0,0,1,177.2,246.87Zm-7.69-1h7.19V113.14c-.14-.2-.87-1-3.52-1s-3.47.83-3.67,1.08Z" fill="#231f20"/><path d="M162.26,115c1.15-1.14,4.1-1,4.1-1V246.37h-4.1Z" fill="#fff"/><path d="M166.36,246.87h-4.1a.51.51,0,0,1-.5-.5V115a.55.55,0,0,1,.15-.36c1.26-1.26,4.15-1.14,4.47-1.13a.51.51,0,0,1,.48.5V246.37A.51.51,0,0,1,166.36,246.87Zm-3.6-1h3.1V114.52a6.13,6.13,0,0,0-3.1.72Z" fill="#231f20"/><polygon points="179.44 114.03 183.53 114.81 183.53 246.37 179.44 246.37 179.44 114.03" fill="#fff"/><path d="M183.53,246.87h-4.09a.5.5,0,0,1-.5-.5V114a.49.49,0,0,1,.18-.38.48.48,0,0,1,.41-.11l4.1.78a.49.49,0,0,1,.4.49V246.37A.5.5,0,0,1,183.53,246.87Zm-3.59-1H183V115.22l-3.09-.58Z" fill="#231f20"/><path d="M160.7,111.43a.52.52,0,0,1-.46-.29c-6.71-14.29.51-24.68.58-24.78a.5.5,0,1,1,.81.58c-.07.1-6.94,10-.48,23.78a.5.5,0,0,1-.24.66A.54.54,0,0,1,160.7,111.43Z" fill="#231f20"/><path d="M185.85,111.43a.54.54,0,0,1-.21-.05.49.49,0,0,1-.24-.66C191.86,97,185,87,184.91,86.94a.5.5,0,1,1,.82-.58c.07.1,7.29,10.49.58,24.78A.52.52,0,0,1,185.85,111.43Z" fill="#231f20"/><path d="M165.37,110.44a.5.5,0,0,1-.46-.29,31.07,31.07,0,0,1,.41-26.07.5.5,0,0,1,.68-.2.51.51,0,0,1,.19.68,30.09,30.09,0,0,0-.37,25.18.5.5,0,0,1-.25.66A.51.51,0,0,1,165.37,110.44Z" fill="#231f20"/><path d="M181.4,110.44a.48.48,0,0,1-.2,0,.49.49,0,0,1-.25-.66,30.09,30.09,0,0,0-.37-25.18.5.5,0,1,1,.87-.48,31.07,31.07,0,0,1,.41,26.07A.51.51,0,0,1,181.4,110.44Z" fill="#231f20"/><path d="M170,109.93a.49.49,0,0,1-.48-.36,59.07,59.07,0,0,1,0-26.34.5.5,0,1,1,1,.22,57.93,57.93,0,0,0,0,25.85.49.49,0,0,1-.34.61A.36.36,0,0,1,170,109.93Z" fill="#231f20"/><path d="M175.74,109.93a.34.34,0,0,1-.14,0,.48.48,0,0,1-.34-.61,58,58,0,0,0,0-25.85.51.51,0,0,1,.38-.6.5.5,0,0,1,.59.38,59,59,0,0,1,0,26.34A.49.49,0,0,1,175.74,109.93Z" fill="#231f20"/><path d="M173.18,243.22a.51.51,0,0,1-.51-.51V113.42a.51.51,0,1,1,1,0V242.71A.51.51,0,0,1,173.18,243.22Z" fill="#d1d3d4"/><rect x="264.32" y="217.58" width="15.72" height="29.35" fill="#231f20"/><path d="M280,247.43H264.31a.5.5,0,0,1-.5-.5V217.58a.5.5,0,0,1,.5-.5H280a.5.5,0,0,1,.5.5v29.35A.5.5,0,0,1,280,247.43Zm-15.23-1h14.73V218.08H264.81Z" fill="#231f20"/><rect x="252.91" y="217.58" width="4.86" height="8.59" fill="#d1d3d4"/><path d="M257.77,226.66h-4.86a.5.5,0,0,1-.5-.5v-8.58a.5.5,0,0,1,.5-.5h4.86a.5.5,0,0,1,.5.5v8.58A.5.5,0,0,1,257.77,226.66Zm-4.36-1h3.86v-7.58h-3.86Z" fill="#231f20"/><rect x="257.77" y="217.58" width="7.46" height="8.59" transform="translate(523 443.74) rotate(180)" fill="#d1d3d4"/><path d="M265.23,226.66h-7.46a.5.5,0,0,1-.5-.5v-8.58a.5.5,0,0,1,.5-.5h7.46a.5.5,0,0,1,.5.5v8.58A.5.5,0,0,1,265.23,226.66Zm-7-1h6.46v-7.58h-6.46Z" fill="#231f20"/><polygon points="252.87 213.42 252.87 196.81 250.97 196.25 250.97 196.25 250.07 196.25 246.2 190.66 242.03 195.87 240.81 197.25 240.81 196.25 239.36 196.25 239.36 198.88 239.36 213.42 238.13 213.42 238.13 242.14 250.17 242.14 253.56 242.14 253.56 213.42 252.87 213.42" fill="#231f20"/><path d="M253.56,242.64H238.13a.5.5,0,0,1-.5-.5V213.42a.5.5,0,0,1,.5-.5h.73V196.25a.5.5,0,0,1,.5-.5h1.44a.5.5,0,0,1,.44.25l.41-.46,4.16-5.19a.49.49,0,0,1,.8,0l3.72,5.37H251a.39.39,0,0,1,.15,0l1.9.56a.5.5,0,0,1,.36.48v16.11h.19a.5.5,0,0,1,.5.5v28.72A.5.5,0,0,1,253.56,242.64Zm-14.93-1h14.43V213.92h-.19a.5.5,0,0,1-.5-.5V197.18l-1.48-.43h-.82a.5.5,0,0,1-.41-.22l-3.49-5-3.75,4.69-1.24,1.39a.5.5,0,0,1-.55.14.51.51,0,0,1-.33-.47v-.5h-.44v16.67a.5.5,0,0,1-.5.5h-.73Z" fill="#231f20"/><polygon points="214.81 176.91 218 177.66 227.57 194.75 227.57 225.25 208.61 204.98 214.81 176.91" fill="#d1d3d4"/><path d="M227.57,225.75a.5.5,0,0,1-.36-.16l-19-20.27a.53.53,0,0,1-.13-.45l6.2-28.06a.52.52,0,0,1,.22-.32.5.5,0,0,1,.38-.06l3.19.75a.47.47,0,0,1,.32.24L228,194.5a.54.54,0,0,1,.06.25v30.5a.49.49,0,0,1-.31.46A.43.43,0,0,1,227.57,225.75Zm-18.41-20.92L227.07,224v-29.1l-9.4-16.78-2.48-.58Z" fill="#231f20"/><polygon points="203.64 244.4 203.64 194.37 214.81 176.91 224.94 194.56 224.94 246.18 203.64 244.4" fill="#fff"/><path d="M224.94,246.68h0l-21.3-1.79a.5.5,0,0,1-.46-.5v-50a.53.53,0,0,1,.08-.27l11.17-17.46a.52.52,0,0,1,.43-.23.51.51,0,0,1,.42.26l10.14,17.64a.54.54,0,0,1,.06.25v51.62a.49.49,0,0,1-.16.37A.51.51,0,0,1,224.94,246.68Zm-20.8-2.75,20.3,1.7V194.69l-9.66-16.81-10.64,16.64Z" fill="#231f20"/><polygon points="219.48 213.85 250.17 215.68 250.17 239.33 218.76 236.23 219.48 213.85" fill="#d1d3d4"/><path d="M250.17,239.83h0l-31.41-3.09a.5.5,0,0,1-.45-.52l.72-22.38a.46.46,0,0,1,.16-.35.5.5,0,0,1,.37-.13l30.69,1.83a.5.5,0,0,1,.47.5v23.65a.5.5,0,0,1-.17.37A.51.51,0,0,1,250.17,239.83Zm-30.89-4.05,30.39,3V216.15L220,214.38Z" fill="#231f20"/><rect x="218.76" y="221.1" width="20.28" height="16.03" fill="#231f20"/><path d="M239,237.62H218.76a.5.5,0,0,1-.5-.5v-16a.5.5,0,0,1,.5-.5H239a.5.5,0,0,1,.5.5v16A.5.5,0,0,1,239,237.62Zm-19.78-1h19.28v-15H219.26Z" fill="#231f20"/><rect x="234.33" y="221.1" width="14.22" height="17.95" fill="#fff"/><path d="M248.55,239.54H234.33a.5.5,0,0,1-.5-.5V221.1a.5.5,0,0,1,.5-.5h14.22a.5.5,0,0,1,.5.5V239A.5.5,0,0,1,248.55,239.54Zm-13.72-1h13.22V221.6H234.83Z" fill="#231f20"/><rect x="216.97" y="228.06" width="7.98" height="18.11" fill="#fff"/><path d="M224.94,246.69h-8a.51.51,0,0,1-.52-.51V228.06a.51.51,0,0,1,.52-.51h8a.51.51,0,0,1,.52.51v18.12A.51.51,0,0,1,224.94,246.69Zm-7.46-1h7V228.58h-7Z" fill="#231f20"/><polygon points="240.43 239.89 240.43 228.06 224.94 228.06 224.94 244.4 240.43 239.89" fill="#fff"/><path d="M224.94,244.89a.49.49,0,0,1-.3-.1.51.51,0,0,1-.2-.4V228.06a.51.51,0,0,1,.5-.5h15.49a.5.5,0,0,1,.5.5v11.83a.5.5,0,0,1-.36.48l-15.49,4.5A.32.32,0,0,1,224.94,244.89Zm.5-16.33v15.17l14.49-4.22V228.56Zm15,11.33h0Z" fill="#231f20"/><polygon points="223.56 243.61 223.56 237.64 228.37 237.64 228.37 233.88 255.16 233.88 255.16 247.49 223.56 243.61" fill="#231f20"/><path d="M255.16,248h-.06l-31.6-3.88a.51.51,0,0,1-.44-.5v-6a.5.5,0,0,1,.5-.5h4.31v-3.26a.51.51,0,0,1,.5-.5h26.79a.5.5,0,0,1,.5.5v13.61a.55.55,0,0,1-.16.38A.52.52,0,0,1,255.16,248Zm-31.1-4.82,30.6,3.76V234.38H228.87v3.26a.5.5,0,0,1-.5.5h-4.31Z" fill="#231f20"/><rect x="205.83" y="211.83" width="11.42" height="38.78" fill="#d1d3d4"/><path d="M217.25,251.11H205.83a.5.5,0,0,1-.5-.5V211.83a.5.5,0,0,1,.5-.5h11.42a.5.5,0,0,1,.5.5v38.78A.5.5,0,0,1,217.25,251.11Zm-10.92-1h10.42V212.33H206.33Z" fill="#231f20"/><rect x="217.25" y="211.83" width="3.03" height="38.78" transform="translate(437.53 462.44) rotate(180)" fill="#fff"/><path d="M220.28,251.11h-3a.5.5,0,0,1-.5-.5V211.83a.5.5,0,0,1,.5-.5h3a.5.5,0,0,1,.5.5v38.78A.5.5,0,0,1,220.28,251.11Zm-2.53-1h2V212.33h-2Z" fill="#231f20"/><polygon points="271.5 245.1 271.5 225.72 267.55 225.72 267.55 222.34 252.91 222.34 252.91 248.9 271.5 245.1" fill="#fff"/><path d="M252.91,249.4a.47.47,0,0,1-.31-.12.47.47,0,0,1-.19-.38V222.34a.5.5,0,0,1,.5-.5h14.64a.5.5,0,0,1,.5.5v2.88h3.45a.5.5,0,0,1,.5.5V245.1a.5.5,0,0,1-.4.49L253,249.38Zm.5-26.56v25.44L271,244.69V226.22h-3.45a.51.51,0,0,1-.5-.5v-2.88ZM271.5,245.1Z" fill="#231f20"/><path d="M286.19,253.84a4.43,4.43,0,0,1,4.65-3c0-.79.82-1.29,1.52-1.65l2.43-1.24a7.84,7.84,0,0,1,2.31-.89,4,4,0,0,1,4.22,2.33,6.93,6.93,0,0,1,3.09-1.16,3.2,3.2,0,0,1,2.11.36,6,6,0,0,0,1,.73,3.66,3.66,0,0,0,1.55.06c2.83-.15,5.64,2.37,8.25,1.27a2.71,2.71,0,0,0,.43,1.4,6,6,0,0,1,9-1,3.11,3.11,0,0,1,5.89.29,3.69,3.69,0,0,1,3.81-.33,3.81,3.81,0,0,1,2.07,3.28Z" fill="#68e1fd"/><polygon points="232.64 244.48 254.41 244.48 254.41 239.04 263.61 239.04 263.61 254.18 223.56 254.18 232.64 244.48" fill="#fff"/><path d="M263.61,254.69H223.56a.5.5,0,0,1-.46-.31.51.51,0,0,1,.09-.55l9.08-9.7a.51.51,0,0,1,.37-.16h21.27V239a.5.5,0,0,1,.5-.5h9.2a.5.5,0,0,1,.51.5v15.14A.51.51,0,0,1,263.61,254.69Zm-38.87-1H263.1V239.55h-8.18v4.93a.51.51,0,0,1-.51.51H232.86Z" fill="#231f20"/><path d="M117.34,198.5c.42.14,8.87,0,8.87,0v12.11h20.55V223.7h16.05v30H102.68Z" fill="#231f20"/><path d="M162.81,254.19H102.68a.52.52,0,0,1-.4-.2.5.5,0,0,1-.08-.43l14.66-55.19a.49.49,0,0,1,.24-.31.53.53,0,0,1,.37,0c.53.08,5.63,0,8.73,0a.56.56,0,0,1,.36.14.51.51,0,0,1,.15.36v11.61h20a.5.5,0,0,1,.5.5V223.2h15.55a.5.5,0,0,1,.5.5v30A.5.5,0,0,1,162.81,254.19Zm-59.48-1h59v-29H146.76a.5.5,0,0,1-.5-.5V211.11h-20a.5.5,0,0,1-.5-.5V199c-3.13.05-6.65.08-8,0Z" fill="#231f20"/><rect x="83.6" y="161.71" width="15.96" height="67.76" fill="#d1d3d4"/><path d="M99.56,230h-16a.5.5,0,0,1-.5-.5V161.71a.5.5,0,0,1,.5-.5h16a.5.5,0,0,1,.5.5v67.76A.5.5,0,0,1,99.56,230ZM84.1,229h15V162.21h-15Z" fill="#231f20"/><rect x="99.56" y="161.71" width="17.07" height="67.76" transform="translate(216.19 391.18) rotate(180)" fill="#fff"/><path d="M116.63,230H99.56a.5.5,0,0,1-.5-.5V161.71a.5.5,0,0,1,.5-.5h17.07a.5.5,0,0,1,.5.5v67.76A.5.5,0,0,1,116.63,230Zm-16.57-1h16.07V162.21H100.06Z" fill="#231f20"/><polygon points="47.37 253.69 47.37 198.99 55.71 198.99 55.71 186.24 65.44 186.24 65.44 172.64 77.11 172.64 77.11 166.12 91.84 166.12 91.84 197.58 101.02 197.58 101.02 208.06 113.25 208.06 113.25 220.81 133.81 220.81 133.81 253.69 47.37 253.69" fill="#fff"/><path d="M133.81,254.19H47.37a.51.51,0,0,1-.5-.5V199a.51.51,0,0,1,.5-.5h7.84V186.24a.5.5,0,0,1,.5-.5h9.23v-13.1a.5.5,0,0,1,.5-.5H76.61v-6a.5.5,0,0,1,.5-.5H91.84a.5.5,0,0,1,.5.5v31H101a.5.5,0,0,1,.5.5v10h11.72a.5.5,0,0,1,.5.5v12.25h20.07a.5.5,0,0,1,.5.5v32.88A.5.5,0,0,1,133.81,254.19Zm-85.94-1h85.44V221.31H113.24a.5.5,0,0,1-.5-.5V208.56H101a.5.5,0,0,1-.5-.5v-10H91.84a.51.51,0,0,1-.5-.5v-31H77.61v6a.5.5,0,0,1-.5.5H65.94v13.1a.5.5,0,0,1-.5.5H56.21V199a.5.5,0,0,1-.5.5H47.87Z" fill="#231f20"/><rect x="138.88" y="242.71" width="98.83" height="4.79" fill="#fff"/><path d="M237.71,248H138.88a.5.5,0,0,1-.5-.5v-4.78a.5.5,0,0,1,.5-.5h98.83a.5.5,0,0,1,.5.5v4.78A.5.5,0,0,1,237.71,248Zm-98.33-1h97.83v-3.78H139.38Z" fill="#231f20"/><rect x="142.26" y="246.93" width="93.48" height="6.76" fill="#fff"/><path d="M235.74,254.19H142.26a.5.5,0,0,1-.5-.5v-6.76a.5.5,0,0,1,.5-.5h93.48a.5.5,0,0,1,.5.5v6.76A.51.51,0,0,1,235.74,254.19Zm-93-1h92.48v-5.76H142.76Z" fill="#231f20"/><rect x="91.84" y="166.12" width="3.4" height="31.35" fill="#231f20"/><path d="M95.24,198h-3.4a.51.51,0,0,1-.5-.5V166.12a.5.5,0,0,1,.5-.5h3.4a.5.5,0,0,1,.5.5v31.35A.5.5,0,0,1,95.24,198Zm-2.9-1h2.4V166.62h-2.4Z" fill="#231f20"/><rect x="101.02" y="197.58" width="3.33" height="10.5" fill="#231f20"/><path d="M104.34,208.57H101a.5.5,0,0,1-.5-.5V197.58a.5.5,0,0,1,.5-.5h3.32a.5.5,0,0,1,.5.5v10.49A.5.5,0,0,1,104.34,208.57Zm-2.82-1h2.32v-9.49h-2.32Z" fill="#231f20"/><rect x="113.24" y="208.06" width="6.77" height="12.75" fill="#d1d3d4"/><path d="M120,221.31h-6.78a.5.5,0,0,1-.5-.5V208.06a.51.51,0,0,1,.5-.5H120a.51.51,0,0,1,.5.5v12.75A.5.5,0,0,1,120,221.31Zm-6.28-1h5.78V208.56h-5.78Z" fill="#231f20"/><path d="M65.44,254.68a.5.5,0,0,1-.5-.5V186.24a.5.5,0,0,1,1,0v67.94A.5.5,0,0,1,65.44,254.68Z" fill="#231f20"/><path d="M69.05,250.82a.51.51,0,0,1-.51-.51v-74.9a.51.51,0,1,1,1,0v74.9A.51.51,0,0,1,69.05,250.82Z" fill="#d1d3d4"/><path d="M73.65,250.82a.51.51,0,0,1-.51-.51v-74.9a.51.51,0,0,1,1,0v74.9A.51.51,0,0,1,73.65,250.82Z" fill="#d1d3d4"/><path d="M78.25,250.82a.51.51,0,0,1-.51-.51v-74.9a.51.51,0,0,1,1,0v74.9A.51.51,0,0,1,78.25,250.82Z" fill="#d1d3d4"/><path d="M82.85,250.82a.51.51,0,0,1-.51-.51v-74.9a.51.51,0,0,1,1,0v74.9A.51.51,0,0,1,82.85,250.82Z" fill="#d1d3d4"/><path d="M87.45,250.82a.51.51,0,0,1-.51-.51v-74.9a.51.51,0,0,1,1,0v74.9A.51.51,0,0,1,87.45,250.82Z" fill="#d1d3d4"/><path d="M92.19,250.83a.52.52,0,0,1-.52-.52v-49a.52.52,0,1,1,1,0v49A.52.52,0,0,1,92.19,250.83Z" fill="#d1d3d4"/><path d="M96.93,250.83a.52.52,0,0,1-.53-.52v-49a.53.53,0,0,1,.53-.53.52.52,0,0,1,.52.53v49A.52.52,0,0,1,96.93,250.83Z" fill="#d1d3d4"/><path d="M101.83,250.83a.52.52,0,0,1-.52-.52V212a.52.52,0,1,1,1,0v38.29A.52.52,0,0,1,101.83,250.83Z" fill="#d1d3d4"/><path d="M107.26,250.83a.52.52,0,0,1-.52-.52V212a.52.52,0,1,1,1,0v38.29A.52.52,0,0,1,107.26,250.83Z" fill="#d1d3d4"/><path d="M112.15,251.45a.56.56,0,0,1-.56-.55V223.7a.56.56,0,0,1,1.11,0v27.2A.55.55,0,0,1,112.15,251.45Z" fill="#d1d3d4"/><path d="M116.52,251.45a.56.56,0,0,1-.56-.55V223.7a.56.56,0,0,1,1.11,0v27.2A.55.55,0,0,1,116.52,251.45Z" fill="#d1d3d4"/><path d="M120.89,251.45a.55.55,0,0,1-.55-.55V223.7a.55.55,0,0,1,.55-.55.55.55,0,0,1,.55.55v27.2A.55.55,0,0,1,120.89,251.45Z" fill="#d1d3d4"/><path d="M125.26,251.45a.55.55,0,0,1-.55-.55V223.7a.55.55,0,0,1,.55-.55.55.55,0,0,1,.55.55v27.2A.55.55,0,0,1,125.26,251.45Z" fill="#d1d3d4"/><path d="M129.63,251.45a.55.55,0,0,1-.55-.55V223.7a.55.55,0,0,1,.55-.55.55.55,0,0,1,.55.55v27.2A.55.55,0,0,1,129.63,251.45Z" fill="#d1d3d4"/><rect x="263.61" y="239.05" width="25.34" height="15.13" fill="#fff"/><path d="M289,254.68H263.61a.5.5,0,0,1-.5-.5V239a.5.5,0,0,1,.5-.5H289a.5.5,0,0,1,.5.5v15.14A.5.5,0,0,1,289,254.68Zm-24.84-1h24.34V239.54H264.11Z" fill="#231f20"/><path d="M285.76,243.26H267.55a.56.56,0,0,1,0-1.11h18.21a.56.56,0,0,1,0,1.11Z" fill="#d1d3d4"/><path d="M285.76,247.17H267.55a.56.56,0,0,1,0-1.11h18.21a.56.56,0,0,1,0,1.11Z" fill="#d1d3d4"/><path d="M285.76,251.07H267.55a.55.55,0,0,1-.55-.55.55.55,0,0,1,.55-.55h18.21a.54.54,0,0,1,.55.55A.55.55,0,0,1,285.76,251.07Z" fill="#d1d3d4"/><path d="M280,254.18H252.25a5.12,5.12,0,0,1,4.06-.5,1.66,1.66,0,0,1,1.92-2.67,2.14,2.14,0,0,1,2.78-2.18c-.85-2.56,1.73-5.49,4.42-5.2a4.88,4.88,0,0,1,3.83,6,5.37,5.37,0,0,1,3.72-.73,2.44,2.44,0,0,1,1.89,2.88,5.69,5.69,0,0,1,4.52,1.58A3.92,3.92,0,0,1,280,254.18Z" fill="#68e1fd"/><rect x="276.66" y="220.09" width="18.3" height="34.16" fill="#fff"/><path d="M295,254.75h-18.3a.5.5,0,0,1-.5-.5V220.09a.5.5,0,0,1,.5-.5H295a.5.5,0,0,1,.5.5v34.16A.5.5,0,0,1,295,254.75Zm-17.8-1h17.3V220.59h-17.3Z" fill="#231f20"/><path d="M227.57,231.77a.55.55,0,0,1-.55-.55V230a.56.56,0,0,1,.55-.56.55.55,0,0,1,.55.56v1.18A.55.55,0,0,1,227.57,231.77Z" fill="#d1d3d4"/><path d="M229.68,231.77a.55.55,0,0,1-.55-.55V230a.56.56,0,1,1,1.11,0v1.18A.56.56,0,0,1,229.68,231.77Z" fill="#d1d3d4"/><path d="M231.79,231.77a.55.55,0,0,1-.55-.55V230a.56.56,0,1,1,1.11,0v1.18A.56.56,0,0,1,231.79,231.77Z" fill="#d1d3d4"/><path d="M233.91,231.77a.56.56,0,0,1-.56-.55V230a.56.56,0,1,1,1.11,0v1.18A.55.55,0,0,1,233.91,231.77Z" fill="#d1d3d4"/><path d="M236,231.77a.55.55,0,0,1-.55-.55V230a.55.55,0,0,1,.55-.56.56.56,0,0,1,.55.56v1.18A.55.55,0,0,1,236,231.77Z" fill="#d1d3d4"/><path d="M238.13,231.77a.55.55,0,0,1-.55-.55V230a.55.55,0,1,1,1.1,0v1.18A.55.55,0,0,1,238.13,231.77Z" fill="#d1d3d4"/><path d="M292,225h-12a.56.56,0,0,1,0-1.11h12a.56.56,0,0,1,0,1.11Z" fill="#d1d3d4"/><path d="M292,228.62h-12a.56.56,0,0,1,0-1.11h12a.56.56,0,0,1,0,1.11Z" fill="#d1d3d4"/><path d="M292,232.28h-12a.56.56,0,0,1,0-1.11h12a.56.56,0,0,1,0,1.11Z" fill="#d1d3d4"/><path d="M292,235.94h-12a.56.56,0,0,1,0-1.11h12a.56.56,0,0,1,0,1.11Z" fill="#d1d3d4"/><path d="M292,239.6h-12a.56.56,0,0,1,0-1.11h12a.56.56,0,0,1,0,1.11Z" fill="#d1d3d4"/><path d="M292,243.26h-12a.56.56,0,0,1,0-1.11h12a.56.56,0,0,1,0,1.11Z" fill="#d1d3d4"/><path d="M292,246.92h-12a.56.56,0,0,1,0-1.11h12a.56.56,0,0,1,0,1.11Z" fill="#d1d3d4"/><path d="M292,250.58h-12a.56.56,0,0,1,0-1.11h12a.56.56,0,0,1,0,1.11Z" fill="#d1d3d4"/><path d="M277.13,212.43a.56.56,0,0,1-.56-.56V137.12a.56.56,0,0,1,1.11,0v74.75A.56.56,0,0,1,277.13,212.43Z" fill="#d1d3d4"/><path d="M279.94,212.43a.56.56,0,0,1-.55-.56V137.12a.55.55,0,0,1,.55-.55.55.55,0,0,1,.55.55v74.75A.55.55,0,0,1,279.94,212.43Z" fill="#d1d3d4"/><path d="M282.94,213.55a.55.55,0,0,1-.55-.55V138.25a.56.56,0,1,1,1.11,0V213A.55.55,0,0,1,282.94,213.55Z" fill="#d1d3d4"/><path d="M292,170.33a.55.55,0,0,1-.08-1.09l10.51-1.68a.54.54,0,0,1,.63.45.56.56,0,0,1-.46.64L292,170.33Z" fill="#d1d3d4"/><path d="M292,173.87a.55.55,0,0,1-.54-.46.56.56,0,0,1,.46-.64l10.51-1.68a.55.55,0,0,1,.63.46.56.56,0,0,1-.46.64L292,173.87Z" fill="#d1d3d4"/><path d="M292,177.41a.55.55,0,0,1-.54-.46.56.56,0,0,1,.46-.64l10.51-1.68a.55.55,0,0,1,.63.46.56.56,0,0,1-.46.64L292,177.41Z" fill="#d1d3d4"/><path d="M292,181a.55.55,0,0,1-.54-.46.56.56,0,0,1,.46-.64l10.51-1.68a.55.55,0,0,1,.63.46.56.56,0,0,1-.46.64L292,181Z" fill="#d1d3d4"/><path d="M292,184.49a.55.55,0,0,1-.54-.46.56.56,0,0,1,.46-.64l10.51-1.68a.55.55,0,0,1,.63.46.55.55,0,0,1-.46.63L292,184.48Z" fill="#d1d3d4"/><path d="M292,188a.55.55,0,0,1-.54-.46.56.56,0,0,1,.46-.64l10.51-1.68a.55.55,0,0,1,.63.46.55.55,0,0,1-.46.63L292,188Z" fill="#d1d3d4"/><path d="M292,191.57a.55.55,0,0,1-.08-1.1l10.51-1.68a.55.55,0,1,1,.17,1.09L292,191.56Z" fill="#d1d3d4"/><path d="M292,195.11a.55.55,0,0,1-.08-1.1l10.51-1.68a.55.55,0,0,1,.17,1.09L292,195.1Z" fill="#d1d3d4"/><path d="M292,198.65a.55.55,0,0,1-.08-1.1l10.51-1.68a.55.55,0,1,1,.17,1.09L292,198.64Z" fill="#d1d3d4"/><path d="M292,202.19a.55.55,0,0,1-.08-1.1l10.51-1.68a.55.55,0,1,1,.17,1.09L292,202.18Z" fill="#d1d3d4"/><path d="M292,205.73a.55.55,0,0,1-.08-1.1L302.38,203a.55.55,0,1,1,.17,1.09L292,205.72Z" fill="#d1d3d4"/><path d="M292,209.27a.55.55,0,0,1-.08-1.1l10.51-1.68a.55.55,0,0,1,.17,1.09L292,209.26Z" fill="#d1d3d4"/><path d="M292,212.81a.55.55,0,0,1-.08-1.1L302.38,210a.54.54,0,0,1,.63.46.55.55,0,0,1-.46.63L292,212.8Z" fill="#d1d3d4"/><path d="M292,216.34a.55.55,0,0,1-.08-1.09l10.51-1.68a.54.54,0,0,1,.63.45.56.56,0,0,1-.46.64L292,216.34Z" fill="#d1d3d4"/><path d="M321.81,202.46a.55.55,0,0,1-.55-.55V200a.55.55,0,0,1,.55-.56.56.56,0,0,1,.55.56v1.95A.55.55,0,0,1,321.81,202.46Z" fill="#d1d3d4"/><path d="M325.23,202.46a.56.56,0,0,1-.56-.55V200a.56.56,0,1,1,1.11,0v1.95A.55.55,0,0,1,325.23,202.46Z" fill="#d1d3d4"/><path d="M328.64,202.46a.55.55,0,0,1-.55-.55V200a.56.56,0,1,1,1.11,0v1.95A.56.56,0,0,1,328.64,202.46Z" fill="#d1d3d4"/><path d="M332.06,202.46a.55.55,0,0,1-.55-.55V200a.56.56,0,0,1,.55-.56.55.55,0,0,1,.55.56v1.95A.55.55,0,0,1,332.06,202.46Z" fill="#d1d3d4"/><path d="M335.48,202.46a.55.55,0,0,1-.55-.55V200a.55.55,0,0,1,.55-.56.56.56,0,0,1,.55.56v1.95A.55.55,0,0,1,335.48,202.46Z" fill="#d1d3d4"/><path d="M338.9,202.46a.56.56,0,0,1-.56-.55V200a.56.56,0,1,1,1.11,0v1.95A.55.55,0,0,1,338.9,202.46Z" fill="#d1d3d4"/><path d="M342.31,202.46a.55.55,0,0,1-.55-.55V200a.56.56,0,1,1,1.11,0v1.95A.56.56,0,0,1,342.31,202.46Z" fill="#d1d3d4"/><path d="M321.81,207.39a.55.55,0,0,1-.55-.56v-2a.55.55,0,0,1,.55-.55.55.55,0,0,1,.55.55v2A.56.56,0,0,1,321.81,207.39Z" fill="#d1d3d4"/><path d="M325.23,207.39a.56.56,0,0,1-.56-.56v-2a.56.56,0,0,1,1.11,0v2A.56.56,0,0,1,325.23,207.39Z" fill="#d1d3d4"/><path d="M328.64,207.39a.56.56,0,0,1-.55-.56v-2a.56.56,0,0,1,1.11,0v2A.56.56,0,0,1,328.64,207.39Z" fill="#d1d3d4"/><path d="M332.06,207.39a.56.56,0,0,1-.55-.56v-2a.55.55,0,0,1,.55-.55.55.55,0,0,1,.55.55v2A.55.55,0,0,1,332.06,207.39Z" fill="#d1d3d4"/><path d="M335.48,207.39a.55.55,0,0,1-.55-.56v-2a.55.55,0,0,1,.55-.55.55.55,0,0,1,.55.55v2A.56.56,0,0,1,335.48,207.39Z" fill="#d1d3d4"/><path d="M338.9,207.39a.56.56,0,0,1-.56-.56v-2a.56.56,0,0,1,1.11,0v2A.56.56,0,0,1,338.9,207.39Z" fill="#d1d3d4"/><path d="M342.31,207.39a.56.56,0,0,1-.55-.56v-2a.56.56,0,0,1,1.11,0v2A.56.56,0,0,1,342.31,207.39Z" fill="#d1d3d4"/><path d="M321.81,212.31a.55.55,0,0,1-.55-.55v-1.95a.54.54,0,0,1,.55-.55.55.55,0,0,1,.55.55v1.95A.55.55,0,0,1,321.81,212.31Z" fill="#d1d3d4"/><path d="M325.23,212.31a.56.56,0,0,1-.56-.55v-1.95a.56.56,0,0,1,1.11,0v1.95A.55.55,0,0,1,325.23,212.31Z" fill="#d1d3d4"/><path d="M328.64,212.31a.55.55,0,0,1-.55-.55v-1.95a.56.56,0,0,1,1.11,0v1.95A.56.56,0,0,1,328.64,212.31Z" fill="#d1d3d4"/><path d="M332.06,212.31a.55.55,0,0,1-.55-.55v-1.95a.55.55,0,0,1,.55-.55.54.54,0,0,1,.55.55v1.95A.55.55,0,0,1,332.06,212.31Z" fill="#d1d3d4"/><path d="M335.48,212.31a.55.55,0,0,1-.55-.55v-1.95a.54.54,0,0,1,.55-.55.55.55,0,0,1,.55.55v1.95A.55.55,0,0,1,335.48,212.31Z" fill="#d1d3d4"/><path d="M338.9,212.31a.56.56,0,0,1-.56-.55v-1.95a.56.56,0,0,1,1.11,0v1.95A.55.55,0,0,1,338.9,212.31Z" fill="#d1d3d4"/><path d="M342.31,212.31a.55.55,0,0,1-.55-.55v-1.95a.56.56,0,0,1,1.11,0v1.95A.56.56,0,0,1,342.31,212.31Z" fill="#d1d3d4"/><path d="M321.81,217.24a.55.55,0,0,1-.55-.55v-1.95a.55.55,0,0,1,.55-.56.56.56,0,0,1,.55.56v1.95A.55.55,0,0,1,321.81,217.24Z" fill="#d1d3d4"/><path d="M325.23,217.24a.56.56,0,0,1-.56-.55v-1.95a.56.56,0,1,1,1.11,0v1.95A.55.55,0,0,1,325.23,217.24Z" fill="#d1d3d4"/><path d="M328.64,217.24a.55.55,0,0,1-.55-.55v-1.95a.56.56,0,1,1,1.11,0v1.95A.56.56,0,0,1,328.64,217.24Z" fill="#d1d3d4"/><path d="M332.06,217.24a.55.55,0,0,1-.55-.55v-1.95a.56.56,0,0,1,.55-.56.55.55,0,0,1,.55.56v1.95A.55.55,0,0,1,332.06,217.24Z" fill="#d1d3d4"/><path d="M335.48,217.24a.55.55,0,0,1-.55-.55v-1.95a.55.55,0,0,1,.55-.56.56.56,0,0,1,.55.56v1.95A.55.55,0,0,1,335.48,217.24Z" fill="#d1d3d4"/><path d="M338.9,217.24a.56.56,0,0,1-.56-.55v-1.95a.56.56,0,1,1,1.11,0v1.95A.55.55,0,0,1,338.9,217.24Z" fill="#d1d3d4"/><path d="M342.31,217.24a.55.55,0,0,1-.55-.55v-1.95a.56.56,0,1,1,1.11,0v1.95A.56.56,0,0,1,342.31,217.24Z" fill="#d1d3d4"/><path d="M321.81,222.17a.55.55,0,0,1-.55-.56v-2a.55.55,0,0,1,.55-.55.55.55,0,0,1,.55.55v2A.56.56,0,0,1,321.81,222.17Z" fill="#d1d3d4"/><path d="M325.23,222.17a.56.56,0,0,1-.56-.56v-2a.56.56,0,0,1,1.11,0v2A.56.56,0,0,1,325.23,222.17Z" fill="#d1d3d4"/><path d="M328.64,222.17a.56.56,0,0,1-.55-.56v-2a.56.56,0,0,1,1.11,0v2A.56.56,0,0,1,328.64,222.17Z" fill="#d1d3d4"/><path d="M332.06,222.17a.56.56,0,0,1-.55-.56v-2a.55.55,0,0,1,.55-.55.55.55,0,0,1,.55.55v2A.55.55,0,0,1,332.06,222.17Z" fill="#d1d3d4"/><path d="M335.48,222.17a.55.55,0,0,1-.55-.56v-2a.55.55,0,0,1,.55-.55.55.55,0,0,1,.55.55v2A.56.56,0,0,1,335.48,222.17Z" fill="#d1d3d4"/><path d="M338.9,222.17a.56.56,0,0,1-.56-.56v-2a.56.56,0,0,1,1.11,0v2A.56.56,0,0,1,338.9,222.17Z" fill="#d1d3d4"/><path d="M342.31,222.17a.56.56,0,0,1-.55-.56v-2a.56.56,0,0,1,1.11,0v2A.56.56,0,0,1,342.31,222.17Z" fill="#d1d3d4"/><path d="M321.81,230.06a.55.55,0,0,1-.55-.55v-1.95a.55.55,0,0,1,.55-.56.56.56,0,0,1,.55.56v1.95A.55.55,0,0,1,321.81,230.06Z" fill="#d1d3d4"/><path d="M325.23,230.06a.56.56,0,0,1-.56-.55v-1.95a.56.56,0,1,1,1.11,0v1.95A.55.55,0,0,1,325.23,230.06Z" fill="#d1d3d4"/><path d="M328.64,230.06a.55.55,0,0,1-.55-.55v-1.95a.56.56,0,1,1,1.11,0v1.95A.56.56,0,0,1,328.64,230.06Z" fill="#d1d3d4"/><path d="M332.06,230.06a.55.55,0,0,1-.55-.55v-1.95a.56.56,0,0,1,.55-.56.55.55,0,0,1,.55.56v1.95A.55.55,0,0,1,332.06,230.06Z" fill="#d1d3d4"/><path d="M335.48,230.06a.55.55,0,0,1-.55-.55v-1.95a.55.55,0,0,1,.55-.56.56.56,0,0,1,.55.56v1.95A.55.55,0,0,1,335.48,230.06Z" fill="#d1d3d4"/><path d="M338.9,230.06a.56.56,0,0,1-.56-.55v-1.95a.56.56,0,1,1,1.11,0v1.95A.55.55,0,0,1,338.9,230.06Z" fill="#d1d3d4"/><path d="M342.31,230.06a.55.55,0,0,1-.55-.55v-1.95a.56.56,0,1,1,1.11,0v1.95A.56.56,0,0,1,342.31,230.06Z" fill="#d1d3d4"/><path d="M321.81,235a.55.55,0,0,1-.55-.56v-2a.55.55,0,0,1,.55-.55.55.55,0,0,1,.55.55v2A.56.56,0,0,1,321.81,235Z" fill="#d1d3d4"/><path d="M325.23,235a.56.56,0,0,1-.56-.56v-2a.56.56,0,0,1,1.11,0v2A.56.56,0,0,1,325.23,235Z" fill="#d1d3d4"/><path d="M328.64,235a.56.56,0,0,1-.55-.56v-2a.56.56,0,0,1,1.11,0v2A.56.56,0,0,1,328.64,235Z" fill="#d1d3d4"/><path d="M332.06,235a.56.56,0,0,1-.55-.56v-2a.55.55,0,0,1,.55-.55.55.55,0,0,1,.55.55v2A.55.55,0,0,1,332.06,235Z" fill="#d1d3d4"/><path d="M335.48,235a.55.55,0,0,1-.55-.56v-2a.55.55,0,0,1,.55-.55.55.55,0,0,1,.55.55v2A.56.56,0,0,1,335.48,235Z" fill="#d1d3d4"/><path d="M338.9,235a.56.56,0,0,1-.56-.56v-2a.56.56,0,0,1,1.11,0v2A.56.56,0,0,1,338.9,235Z" fill="#d1d3d4"/><path d="M342.31,235a.56.56,0,0,1-.55-.56v-2a.56.56,0,0,1,1.11,0v2A.56.56,0,0,1,342.31,235Z" fill="#d1d3d4"/><path d="M321.81,239.91a.54.54,0,0,1-.55-.55v-2a.54.54,0,0,1,.55-.55.55.55,0,0,1,.55.55v2A.55.55,0,0,1,321.81,239.91Z" fill="#d1d3d4"/><path d="M325.23,239.91a.55.55,0,0,1-.56-.55v-2a.56.56,0,0,1,1.11,0v2A.55.55,0,0,1,325.23,239.91Z" fill="#d1d3d4"/><path d="M328.64,239.91a.55.55,0,0,1-.55-.55v-2a.56.56,0,0,1,1.11,0v2A.55.55,0,0,1,328.64,239.91Z" fill="#d1d3d4"/><path d="M332.06,239.91a.55.55,0,0,1-.55-.55v-2a.55.55,0,0,1,.55-.55.54.54,0,0,1,.55.55v2A.54.54,0,0,1,332.06,239.91Z" fill="#d1d3d4"/><path d="M335.48,239.91a.54.54,0,0,1-.55-.55v-2a.54.54,0,0,1,.55-.55.55.55,0,0,1,.55.55v2A.55.55,0,0,1,335.48,239.91Z" fill="#d1d3d4"/><path d="M338.9,239.91a.55.55,0,0,1-.56-.55v-2a.56.56,0,0,1,1.11,0v2A.55.55,0,0,1,338.9,239.91Z" fill="#d1d3d4"/><path d="M342.31,239.91a.55.55,0,0,1-.55-.55v-2a.56.56,0,0,1,1.11,0v2A.55.55,0,0,1,342.31,239.91Z" fill="#d1d3d4"/><path d="M321.81,244.84a.55.55,0,0,1-.55-.55v-1.95a.55.55,0,0,1,.55-.56.56.56,0,0,1,.55.56v1.95A.55.55,0,0,1,321.81,244.84Z" fill="#d1d3d4"/><path d="M325.23,244.84a.56.56,0,0,1-.56-.55v-1.95a.56.56,0,1,1,1.11,0v1.95A.55.55,0,0,1,325.23,244.84Z" fill="#d1d3d4"/><path d="M328.64,244.84a.55.55,0,0,1-.55-.55v-1.95a.56.56,0,1,1,1.11,0v1.95A.56.56,0,0,1,328.64,244.84Z" fill="#d1d3d4"/><path d="M332.06,244.84a.55.55,0,0,1-.55-.55v-1.95a.56.56,0,0,1,.55-.56.55.55,0,0,1,.55.56v1.95A.55.55,0,0,1,332.06,244.84Z" fill="#d1d3d4"/><path d="M335.48,244.84a.55.55,0,0,1-.55-.55v-1.95a.55.55,0,0,1,.55-.56.56.56,0,0,1,.55.56v1.95A.55.55,0,0,1,335.48,244.84Z" fill="#d1d3d4"/><path d="M338.9,244.84a.56.56,0,0,1-.56-.55v-1.95a.56.56,0,1,1,1.11,0v1.95A.55.55,0,0,1,338.9,244.84Z" fill="#d1d3d4"/><path d="M342.31,244.84a.55.55,0,0,1-.55-.55v-1.95a.56.56,0,1,1,1.11,0v1.95A.56.56,0,0,1,342.31,244.84Z" fill="#d1d3d4"/><path d="M321.81,249.77a.55.55,0,0,1-.55-.56v-2a.55.55,0,0,1,.55-.55.55.55,0,0,1,.55.55v2A.56.56,0,0,1,321.81,249.77Z" fill="#d1d3d4"/><path d="M325.23,249.77a.56.56,0,0,1-.56-.56v-2a.56.56,0,0,1,1.11,0v2A.56.56,0,0,1,325.23,249.77Z" fill="#d1d3d4"/><path d="M328.64,249.77a.56.56,0,0,1-.55-.56v-2a.56.56,0,0,1,1.11,0v2A.56.56,0,0,1,328.64,249.77Z" fill="#d1d3d4"/><path d="M332.06,249.77a.56.56,0,0,1-.55-.56v-2a.55.55,0,0,1,.55-.55.55.55,0,0,1,.55.55v2A.55.55,0,0,1,332.06,249.77Z" fill="#d1d3d4"/><path d="M335.48,249.77a.55.55,0,0,1-.55-.56v-2a.55.55,0,0,1,.55-.55.55.55,0,0,1,.55.55v2A.56.56,0,0,1,335.48,249.77Z" fill="#d1d3d4"/><path d="M338.9,249.77a.56.56,0,0,1-.56-.56v-2a.56.56,0,0,1,1.11,0v2A.56.56,0,0,1,338.9,249.77Z" fill="#d1d3d4"/><path d="M342.31,249.77a.56.56,0,0,1-.55-.56v-2a.56.56,0,0,1,1.11,0v2A.56.56,0,0,1,342.31,249.77Z" fill="#d1d3d4"/><path d="M257.77,236.17a.55.55,0,0,1-.55-.55v-9.46a.55.55,0,0,1,.55-.55.55.55,0,0,1,.55.55v9.46A.55.55,0,0,1,257.77,236.17Z" fill="#d1d3d4"/><rect x="356.4" y="194.83" width="4.2" height="13.05" fill="#231f20"/><path d="M360.6,208.37h-4.2a.5.5,0,0,1-.5-.5v-13a.5.5,0,0,1,.5-.5h4.2a.5.5,0,0,1,.5.5v13A.5.5,0,0,1,360.6,208.37Zm-3.7-1h3.2v-12h-3.2Z" fill="#231f20"/><path d="M51.6,250.82a.51.51,0,0,1-.51-.51V202.83a.51.51,0,1,1,1,0v47.48A.51.51,0,0,1,51.6,250.82Z" fill="#d1d3d4"/><path d="M56.31,250.82a.51.51,0,0,1-.51-.51V202.83a.51.51,0,0,1,1,0v47.48A.51.51,0,0,1,56.31,250.82Z" fill="#d1d3d4"/><path d="M61,250.82a.51.51,0,0,1-.51-.51V202.83a.51.51,0,0,1,1,0v47.48A.51.51,0,0,1,61,250.82Z" fill="#d1d3d4"/><path d="M134.38,93.09c-8.45-.5-17.7-.81-24.54,3.4-3.42,2.11-6.33,5.36-10.56,5.65C93,102.57,87,96.2,81.54,98.86,78.08,108,64.62,113.47,53.93,110c-1.63-.52-3.44-1.22-5-.64a6,6,0,0,0-2.47,2.08,30.11,30.11,0,0,1-7,5.94V55c.64.17,1.27.36,1.9.57C46.76,57.4,51.89,61.08,52.67,66c.67,4.21-2,8.23-4.48,11.9,4.61,2.27,10.35,1.66,15.7,1.64s11.55,1.1,13.9,5.13c.76,1.31,1.1,2.9,2.5,3.77a7.63,7.63,0,0,0,3.37.78Z" fill="#fff"/><path d="M190.34,75.76c-4.38.57-7.3,5.26-11.66,6-.47.31.29.91.86.94,26.34,1.38,54.32,3.75,80.52.19-6.5-6.85-13.82-4.16-21.77-6.5-4.89-1.44-7.1-5-11.16-7.51-4.87-3-8.68-4.32-14.53-2.67-4.38,1.24-6.44,4.38-10.09,6.45C197.52,75.53,196,75,190.34,75.76Z" fill="#fff"/><path d="M360.6,254.68H39.4a.5.5,0,0,1-.5-.5V45.82a.5.5,0,0,1,.5-.5H360.6a.5.5,0,0,1,.5.5V254.18A.5.5,0,0,1,360.6,254.68Zm-320.7-1H360.1V46.32H39.9Z" fill="#231f20"/></g></svg>