<svg xmlns="http://www.w3.org/2000/svg" viewBox="0 0 400 300"><g id="_159_data_visualization_flatline" data-name="#159_data_visualization_flatline"><path d="M307,145.83s-47,39.23-104.88,39.23S97.2,145.83,97.2,145.83s47-39.22,104.89-39.22S307,145.83,307,145.83Z" fill="#fff"/><path d="M202.09,185.56c-57.45,0-104.74-38.95-105.21-39.34a.53.53,0,0,1-.18-.39.51.51,0,0,1,.18-.38c.47-.39,47.76-39.34,105.21-39.34s104.73,39,105.2,39.34a.48.48,0,0,1,.18.38.5.5,0,0,1-.18.39C306.82,146.61,259.53,185.56,202.09,185.56ZM98,145.83c5.08,4.06,50.08,38.73,104.09,38.73s99-34.67,104.09-38.73c-5.08-4.06-50.09-38.72-104.09-38.72S103.08,141.77,98,145.83Z" fill="#231f20"/><circle cx="202.09" cy="145.83" r="34.76" fill="#68e1fd"/><circle cx="202.09" cy="145.83" r="21.85" fill="#231f20"/><path d="M202.09,168.18a22.35,22.35,0,1,1,22.35-22.35A22.37,22.37,0,0,1,202.09,168.18Zm0-43.7a21.36,21.36,0,1,0,21.35,21.35A21.38,21.38,0,0,0,202.09,124.48Z" fill="#231f20"/><circle cx="209.36" cy="138.38" r="7.28" fill="#fff"/><polygon points="148.2 53.39 59.85 53.39 59.85 100.82 119.35 100.82 129.55 110.55 128.4 100.82 148.2 100.82 148.2 53.39" fill="#fff"/><path d="M129.55,111.05a.52.52,0,0,1-.35-.14l-10-9.59H59.85a.51.51,0,0,1-.5-.5V53.39a.5.5,0,0,1,.5-.5H148.2a.5.5,0,0,1,.5.5v47.43a.5.5,0,0,1-.5.5H129l1.07,9.17a.48.48,0,0,1-.27.5A.46.46,0,0,1,129.55,111.05Zm-69.2-10.73h59a.51.51,0,0,1,.34.13l9.2,8.78-1-8.35a.48.48,0,0,1,.12-.4.51.51,0,0,1,.37-.16h19.3V53.89H60.35Z" fill="#231f20"/><path d="M78.07,60.26V90.64H72.82V60.26h5.25m1-1H71.82V91.64h7.25V59.26Z" fill="#d1d3d4"/><path d="M91.46,60.26V90.64H86.22V60.26h5.24m1-1H85.22V91.64h7.24V59.26Z" fill="#d1d3d4"/><path d="M104.86,60.26V90.64H99.62V60.26h5.24m1-1H98.62V91.64h7.24V59.26Z" fill="#d1d3d4"/><path d="M118.25,60.26V90.64H113V60.26h5.24m1-1H112V91.64h7.24V59.26Z" fill="#d1d3d4"/><rect x="71.82" y="75.45" width="7.24" height="16.19" fill="#68e1fd"/><rect x="85.22" y="69.04" width="7.24" height="22.59" fill="#68e1fd"/><rect x="98.62" y="83.54" width="7.24" height="8.09" fill="#68e1fd"/><rect x="112.01" y="65.22" width="7.24" height="26.42" fill="#68e1fd"/><polygon points="162.51 191.11 139.94 196.02 139.94 180.59 52.41 180.59 52.41 238.41 139.94 238.41 139.94 206.04 162.51 191.11" fill="#fff"/><path d="M139.94,238.91H52.41a.5.5,0,0,1-.5-.5V180.59a.5.5,0,0,1,.5-.5h87.53a.51.51,0,0,1,.5.5V195.4l22-4.78a.5.5,0,0,1,.38.9l-22.35,14.79v32.1A.5.5,0,0,1,139.94,238.91Zm-87-1h86.53V206a.51.51,0,0,1,.22-.42L160,192.16l-20,4.34a.49.49,0,0,1-.42-.09.5.5,0,0,1-.18-.39V181.09H52.91Z" fill="#231f20"/><polygon points="278 194.71 260.81 181.12 264.02 194.71 254.8 194.71 254.8 246.61 343.35 246.61 343.35 194.71 278 194.71" fill="#fff"/><path d="M343.35,247.11H254.8a.5.5,0,0,1-.5-.5v-51.9a.5.5,0,0,1,.5-.5h8.59l-3.06-13a.48.48,0,0,1,.21-.53.5.5,0,0,1,.58,0l17.05,13.48h65.18a.5.5,0,0,1,.5.5v51.9A.5.5,0,0,1,343.35,247.11Zm-88.05-1h87.55v-50.9H278a.51.51,0,0,1-.31-.11l-16.06-12.7,2.88,12.19a.51.51,0,0,1-.1.43.49.49,0,0,1-.39.19H255.3Z" fill="#231f20"/><polygon points="347.59 61.08 260.01 61.08 260.01 102.97 275.34 102.97 274.96 114.1 284.34 102.97 347.59 102.97 347.59 61.08" fill="#fff"/><path d="M275,114.6a.52.52,0,0,1-.18,0,.5.5,0,0,1-.32-.48l.36-10.62H260a.5.5,0,0,1-.5-.5V61.08a.5.5,0,0,1,.5-.5h87.58a.5.5,0,0,1,.5.5V103a.5.5,0,0,1-.5.5h-63l-9.23,11A.49.49,0,0,1,275,114.6Zm-14.45-12.13h14.83a.51.51,0,0,1,.36.15.54.54,0,0,1,.14.36l-.34,9.69,8.46-10a.49.49,0,0,1,.38-.17h62.75V61.58H260.51Z" fill="#231f20"/><path d="M334.89,237.65H263.76a.5.5,0,0,1-.5-.5V219.53a.51.51,0,0,1,.21-.41c4.67-3.3,12.73-5.64,24.59,1.95,5.73,3.66,9.48-.2,14.22-5.09,3.61-3.72,7.71-7.94,13.56-9.75,13.72-4.24,19.45,7.84,19.5,8a.41.41,0,0,1,.05.21v22.75A.5.5,0,0,1,334.89,237.65Zm-70.63-1h70.13V214.51c-.57-1.17-5.87-11.15-18.26-7.32-5.6,1.73-9.6,5.85-13.13,9.49-4.86,5-9.06,9.33-15.48,5.23-11.21-7.17-18.81-5.16-23.26-2.12Z" fill="#d1d3d4"/><path d="M291.27,203.69H263.76a.5.5,0,0,1-.5-.5.5.5,0,0,1,.5-.5h27.51a.5.5,0,0,1,.5.5A.5.5,0,0,1,291.27,203.69Z" fill="#68e1fd"/><path d="M291.27,207.05H263.76a.5.5,0,0,1,0-1h27.51a.5.5,0,0,1,0,1Z" fill="#68e1fd"/><path d="M284.54,210.42H263.76a.5.5,0,0,1-.5-.5.5.5,0,0,1,.5-.5h20.78a.5.5,0,0,1,.5.5A.5.5,0,0,1,284.54,210.42Z" fill="#68e1fd"/><path d="M292.12,237.65a.5.5,0,0,1-.5-.5V223a.5.5,0,1,1,1,0v14.13A.5.5,0,0,1,292.12,237.65Z" fill="#d1d3d4"/><path d="M320.45,236.37a.5.5,0,0,1-.5-.5v-30a.51.51,0,0,1,.5-.5.5.5,0,0,1,.5.5v30A.5.5,0,0,1,320.45,236.37Z" fill="#d1d3d4"/><path d="M82.22,207.89H71.94a.5.5,0,0,1-.5-.54A23.76,23.76,0,0,1,77.38,193a23.26,23.26,0,0,1,2.22-2.22,23.82,23.82,0,0,1,14.31-5.94.5.5,0,0,1,.37.13.52.52,0,0,1,.16.37v10.29a.51.51,0,0,1-.44.5,12.73,12.73,0,0,0-6.49,2.69,13,13,0,0,0-2.09,2.1,12.74,12.74,0,0,0-2.7,6.48A.5.5,0,0,1,82.22,207.89Zm-9.75-1h9.32a13.72,13.72,0,0,1,2.85-6.56,14.08,14.08,0,0,1,2.25-2.25,13.74,13.74,0,0,1,6.55-2.85v-9.31a22.74,22.74,0,0,0-13.18,5.65h0a22.54,22.54,0,0,0-2.13,2.13A22.84,22.84,0,0,0,72.47,206.89Zm7.46-15.69h0Z" fill="#d1d3d4"/><path d="M95.48,233c-.53,0-1,0-1.57-.05A23.83,23.83,0,0,1,79.6,227a23.26,23.26,0,0,1-2.22-2.22,23.82,23.82,0,0,1-5.94-14.32.51.51,0,0,1,.13-.37.52.52,0,0,1,.37-.16H82.22a.5.5,0,0,1,.5.44,12.81,12.81,0,0,0,2.7,6.5,13,13,0,0,0,2.1,2.09A12.69,12.69,0,0,0,94,221.68a12.21,12.21,0,0,0,3,0,12.73,12.73,0,0,0,6.49-2.69,13,13,0,0,0,4.79-8.59,12.12,12.12,0,0,0,.08-1.48,12.46,12.46,0,0,0-.08-1.48,12.73,12.73,0,0,0-2.69-6.48.5.5,0,0,1,0-.66l7.28-7.28a.6.6,0,0,1,.37-.15.53.53,0,0,1,.36.17,23.8,23.8,0,0,1,5.93,14.31c0,.52.06,1,.06,1.57s0,1.06-.06,1.58a23.76,23.76,0,0,1-5.94,14.31,22.15,22.15,0,0,1-2.22,2.22A23.82,23.82,0,0,1,97.05,233C96.53,233,96,233,95.48,233ZM72.47,211a22.81,22.81,0,0,0,5.66,13.19,22.43,22.43,0,0,0,2.13,2.12A22.79,22.79,0,0,0,94,232a21.6,21.6,0,0,0,3,0,22.84,22.84,0,0,0,13.72-5.69,22.54,22.54,0,0,0,2.13-2.13,22.82,22.82,0,0,0,5.7-13.72c0-.5,0-1,0-1.51s0-1,0-1.5h0a22.84,22.84,0,0,0-5.34-13.31l-6.59,6.58a13.66,13.66,0,0,1,2.63,6.64,14.18,14.18,0,0,1,0,3.19,13.63,13.63,0,0,1-2.91,7,13,13,0,0,1-2.25,2.26,13.72,13.72,0,0,1-7,2.91,14.18,14.18,0,0,1-3.19,0,13.72,13.72,0,0,1-7-2.91,13.37,13.37,0,0,1-2.26-2.25A13.72,13.72,0,0,1,81.79,211Z" fill="#d1d3d4"/><path d="M111,191.2a23.4,23.4,0,0,0-14-5.82v10.29a13.2,13.2,0,0,1,6.74,2.8Z" fill="#68e1fd"/><path d="M65.6,196.35H59.14a.51.51,0,0,1-.5-.5.5.5,0,0,1,.5-.5H65.6a.5.5,0,0,1,.5.5A.51.51,0,0,1,65.6,196.35Z" fill="#d1d3d4"/><path d="M67.44,192.43h-8.3a.51.51,0,0,1-.5-.5.5.5,0,0,1,.5-.5h8.3a.5.5,0,0,1,.5.5A.51.51,0,0,1,67.44,192.43Z" fill="#d1d3d4"/><path d="M67.44,188.5h-8.3a.5.5,0,0,1-.5-.5.51.51,0,0,1,.5-.5h8.3a.51.51,0,0,1,.5.5A.5.5,0,0,1,67.44,188.5Z" fill="#d1d3d4"/><path d="M131.2,231h-9.86a.5.5,0,0,1-.5-.5.5.5,0,0,1,.5-.5h9.86a.5.5,0,0,1,.5.5A.51.51,0,0,1,131.2,231Z" fill="#d1d3d4"/><path d="M134,227.08H121.34a.5.5,0,0,1-.5-.5.5.5,0,0,1,.5-.5H134a.5.5,0,0,1,.5.5A.51.51,0,0,1,134,227.08Z" fill="#d1d3d4"/><path d="M134,223.15H121.34a.5.5,0,0,1-.5-.5.5.5,0,0,1,.5-.5H134a.51.51,0,0,1,.5.5A.5.5,0,0,1,134,223.15Z" fill="#d1d3d4"/><path d="M135.81,79.47H127a.5.5,0,0,1,0-1h8.84a.5.5,0,0,1,0,1Z" fill="#d1d3d4"/><path d="M138.33,76H127a.5.5,0,0,1,0-1h11.36a.5.5,0,0,1,0,1Z" fill="#d1d3d4"/><path d="M138.33,72.43H127a.5.5,0,0,1,0-1h11.36a.5.5,0,0,1,0,1Z" fill="#d1d3d4"/><rect x="181.69" y="204.06" width="47.78" height="28.46" fill="#fff"/><path d="M229.47,233H181.69a.5.5,0,0,1-.5-.5V204.06a.51.51,0,0,1,.5-.5h47.78a.5.5,0,0,1,.5.5v28.46A.5.5,0,0,1,229.47,233Zm-47.28-1H229V204.56H182.19Z" fill="#d1d3d4"/><rect x="52.41" y="126.32" width="25.92" height="15.84" fill="#fff"/><path d="M78.33,142.66H52.41a.5.5,0,0,1-.5-.5V126.32a.5.5,0,0,1,.5-.5H78.33a.5.5,0,0,1,.5.5v15.84A.51.51,0,0,1,78.33,142.66Zm-25.42-1H77.83V126.82H52.91Z" fill="#d1d3d4"/><rect x="174.95" y="69.75" width="23.54" height="11.06" fill="#fff"/><path d="M198.49,81.32H175a.51.51,0,0,1-.5-.5V69.75a.51.51,0,0,1,.5-.5h23.54a.5.5,0,0,1,.5.5V80.82A.5.5,0,0,1,198.49,81.32Zm-23-1H198V70.25H175.45Z" fill="#d1d3d4"/><rect x="216.56" y="87.97" width="18.51" height="10.46" fill="#fff"/><path d="M235.08,98.93H216.56a.51.51,0,0,1-.5-.5V88a.5.5,0,0,1,.5-.5h18.52a.5.5,0,0,1,.5.5V98.43A.51.51,0,0,1,235.08,98.93Zm-18-1h17.52V88.47H217.06Z" fill="#d1d3d4"/><rect x="319.93" y="117.84" width="25.3" height="16.97" fill="#fff"/><path d="M345.23,135.3h-25.3a.5.5,0,0,1-.5-.5v-17a.5.5,0,0,1,.5-.5h25.3a.5.5,0,0,1,.5.5v17A.5.5,0,0,1,345.23,135.3Zm-24.8-1h24.3v-16h-24.3Z" fill="#d1d3d4"/><path d="M310.33,178H292.1a.5.5,0,0,1-.5-.5v-9.83a.5.5,0,0,1,.5-.5h18.23a.5.5,0,0,1,.5.5v9.83A.5.5,0,0,1,310.33,178Zm-17.73-1h17.23v-8.83H292.6Z" fill="#d1d3d4"/><rect x="316.89" y="151.6" width="18.23" height="9.82" fill="#fff"/><path d="M335.13,161.92H316.89a.5.5,0,0,1-.5-.5V151.6a.5.5,0,0,1,.5-.5h18.24a.5.5,0,0,1,.5.5v9.82A.5.5,0,0,1,335.13,161.92Zm-17.74-1h17.24V152.1H317.39Z" fill="#d1d3d4"/><path d="M281.12,95.36h-6.56a.5.5,0,0,1-.5-.5V88.3a.5.5,0,0,1,.5-.5h6.56a.5.5,0,0,1,.5.5v6.56A.5.5,0,0,1,281.12,95.36Zm-6.06-1h5.56V88.8h-5.56Z" fill="#d1d3d4"/><path d="M294,95.36h-6.57a.5.5,0,0,1-.5-.5V84.38a.51.51,0,0,1,.5-.5H294a.51.51,0,0,1,.5.5V94.86A.5.5,0,0,1,294,95.36Zm-6.07-1h5.57V84.88h-5.57Z" fill="#d1d3d4"/><path d="M306.85,95.36h-6.56a.5.5,0,0,1-.5-.5V78.29a.5.5,0,0,1,.5-.5h6.56a.5.5,0,0,1,.5.5V94.86A.5.5,0,0,1,306.85,95.36Zm-6.06-1h5.56V78.79h-5.56Z" fill="#d1d3d4"/><path d="M319.71,95.36h-6.56a.5.5,0,0,1-.5-.5V72.68a.5.5,0,0,1,.5-.5h6.56a.5.5,0,0,1,.5.5V94.86A.5.5,0,0,1,319.71,95.36Zm-6.06-1h5.56V73.18h-5.56Z" fill="#d1d3d4"/><rect x="326.01" y="68.27" width="6.57" height="26.59" fill="#68e1fd"/><path d="M332.58,95.36H326a.5.5,0,0,1-.5-.5V68.27a.51.51,0,0,1,.5-.5h6.57a.51.51,0,0,1,.5.5V94.86A.5.5,0,0,1,332.58,95.36Zm-6.07-1h5.57V68.77h-5.57Z" fill="#68e1fd"/><path d="M340.53,95.36H269.26a.5.5,0,0,1-.5-.5.5.5,0,0,1,.5-.5h71.27a.51.51,0,0,1,.5.5A.5.5,0,0,1,340.53,95.36Z" fill="#68e1fd"/><path d="M93.94,168.18h-11a.5.5,0,0,1-.5-.5.5.5,0,0,1,.5-.5h11a.5.5,0,0,1,.5.5A.5.5,0,0,1,93.94,168.18Z" fill="#d1d3d4"/><path d="M107.46,114.6H98.62a.5.5,0,0,1-.5-.5.5.5,0,0,1,.5-.5h8.84a.5.5,0,0,1,.5.5A.5.5,0,0,1,107.46,114.6Z" fill="#d1d3d4"/><path d="M229.47,72.43h-9.31a.5.5,0,0,1,0-1h9.31a.5.5,0,0,1,0,1Z" fill="#d1d3d4"/></g></svg>