<svg xmlns="http://www.w3.org/2000/svg" viewBox="0 0 400 300"><g id="_511_data_analytics_flatline" data-name="#511_data_analytics_flatline"><path d="M345.74,238.5H77.53a.5.5,0,0,1-.5-.5V53.07a.5.5,0,0,1,.5-.5.5.5,0,0,1,.5.5V237.5H345.74a.5.5,0,0,1,.5.5A.5.5,0,0,1,345.74,238.5Z" fill="#d1d3d4"/><rect x="171.11" y="107.29" width="55.66" height="130.19" fill="#fff"/><path d="M226.76,107.29V237.48H171.11V107.29h55.65m0-1H171.11a1,1,0,0,0-1,1V237.48a1,1,0,0,0,1,1h55.65a1,1,0,0,0,1-1V107.29a1,1,0,0,0-1-1Z" fill="#231f20"/><rect x="94.76" y="151.29" width="55.66" height="86.19" fill="#fff"/><path d="M150.42,151.29v86.19H94.76V151.29h55.66m0-1H94.76a1,1,0,0,0-1,1v86.19a1,1,0,0,0,1,1h55.66a1,1,0,0,0,1-1V151.29a1,1,0,0,0-1-1Z" fill="#231f20"/><rect x="247.46" y="56.37" width="55.66" height="181.11" fill="#fff"/><path d="M303.11,56.37V237.48H247.46V56.37h55.65m0-1H247.46a1,1,0,0,0-1,1V237.48a1,1,0,0,0,1,1h55.65a1,1,0,0,0,1-1V56.37a1,1,0,0,0-1-1Z" fill="#231f20"/><polygon points="281.27 82.74 269.78 87.44 284.05 94.05 281.27 82.74" fill="#68e1fd"/><path d="M208,220.71a26.39,26.39,0,0,1,6.73-4.38c.2,7.19-2.72,13.81-5.42,18.34h-8.77" fill="#fff"/><path d="M209.31,235.17h-8.77a.5.5,0,0,1-.5-.5.5.5,0,0,1,.5-.5H209c2.42-4.13,5.19-10.32,5.21-17.07a27.11,27.11,0,0,0-5.91,4,.5.5,0,0,1-.7,0,.5.5,0,0,1,0-.71,26.63,26.63,0,0,1,6.87-4.48.5.5,0,0,1,.46,0,.51.51,0,0,1,.23.4c.21,7.42-2.87,14.22-5.49,18.61A.48.48,0,0,1,209.31,235.17Z" fill="#231f20"/><path d="M195.42,222.65c2.16-11.25,11-18.33,11-18.33a40.74,40.74,0,0,1,1.6,16.39,60.62,60.62,0,0,1-3,14h-9.43" fill="#fff"/><path d="M205,235.17h-9.43a.5.5,0,0,1-.5-.5.5.5,0,0,1,.5-.5h9.08a60.11,60.11,0,0,0,2.89-13.5,40.55,40.55,0,0,0-1.35-15.47c-2,1.77-8.45,8.24-10.23,17.54a.51.51,0,0,1-.59.4.51.51,0,0,1-.4-.59c2.17-11.3,11.07-18.54,11.16-18.62a.51.51,0,0,1,.45-.09.5.5,0,0,1,.33.33,41,41,0,0,1,1.63,16.59,61.07,61.07,0,0,1-3.06,14.07A.51.51,0,0,1,205,235.17Z" fill="#231f20"/><path d="M190.76,234.67h8.36c.08-2.47-.48-6.22-3.16-11.08-.19-.33-.36-.64-.54-.94-4.84-8.2-9.27-8.11-9.27-8.11C184.28,223.17,188.23,230.86,190.76,234.67Z" fill="#fff"/><path d="M199.12,235.17h-8.36a.49.49,0,0,1-.41-.22c-2.57-3.88-6.6-11.7-4.69-20.51a.51.51,0,0,1,.48-.4c.19,0,4.77,0,9.71,8.35l.54,1c2.81,5.09,3.31,9,3.23,11.35A.5.5,0,0,1,199.12,235.17Zm-8.09-1h7.6a21.81,21.81,0,0,0-3.11-10.34l-.53-.93c-3.78-6.4-7.29-7.59-8.44-7.81C185,223.2,188.59,230.42,191,234.17Z" fill="#231f20"/><polygon points="192.28 247.92 208.68 247.92 211.31 234.67 189.64 234.67 192.28 247.92" fill="#231f20"/><path d="M86.92,238.43H54.26a.5.5,0,0,1-.5-.5.5.5,0,0,1,.5-.5H86.92a.5.5,0,0,1,.5.5A.5.5,0,0,1,86.92,238.43Z" fill="#d1d3d4"/><path d="M80.83,235.31a1.47,1.47,0,0,1-.82-.24,1.5,1.5,0,0,1-.44-2.07l44.14-68.42a1.5,1.5,0,0,1,1.13-.68,1.48,1.48,0,0,1,1.23.47L160.82,202l40.25-73.86a1.5,1.5,0,0,1,1.18-.78,1.51,1.51,0,0,1,1.3.55l35.5,43.65,43.41-70.87a1.5,1.5,0,0,1,2.06-.49,1.48,1.48,0,0,1,.49,2.06L240.5,175a1.49,1.49,0,0,1-1.18.71,1.48,1.48,0,0,1-1.26-.55l-35.43-43.55-40.18,73.73a1.5,1.5,0,0,1-1.13.77,1.55,1.55,0,0,1-1.29-.47l-34.85-37.76-43.09,66.8A1.51,1.51,0,0,1,80.83,235.31Z" fill="#68e1fd"/><rect x="305.3" y="132.87" width="9.96" height="83.69" transform="translate(666.09 189.04) rotate(152.92)" fill="#231f20"/><path d="M324.58,214.41l-38.1-74.52a.36.36,0,0,1,.15-.48l8.87-4.54a.36.36,0,0,1,.49.16l38.09,74.52a.34.34,0,0,1-.15.48l-8.87,4.54a.37.37,0,0,1-.27,0A.34.34,0,0,1,324.58,214.41Zm-29.07-78.73-8.23,4.2,37.77,73.88,8.23-4.2Z" fill="#231f20"/><rect x="313.3" y="164.65" width="18.7" height="68.52" rx="7.58" transform="translate(700.47 229.14) rotate(152.92)" fill="#231f20"/><path d="M275.88,166.42a51.9,51.9,0,1,1,36.69-15.2A51.55,51.55,0,0,1,275.88,166.42Zm0-102.79a50.9,50.9,0,0,0-36,86.89h0a50.89,50.89,0,1,0,36-86.89Z" fill="#231f20"/><path d="M239.29,151.12a51.8,51.8,0,1,1,36.59,15.14A51.81,51.81,0,0,1,239.29,151.12Z" fill="#fff"/><path d="M275.88,166.75a52.23,52.23,0,1,1,36.95-15.28A51.85,51.85,0,0,1,275.88,166.75Zm0-103.45a51.23,51.23,0,1,0,36.25,15A51.1,51.1,0,0,0,275.88,63.3Z" fill="#231f20"/><path d="M303.75,86.67A39.41,39.41,0,1,0,248,142.4l.65.63A38.68,38.68,0,0,0,260.93,151a39.4,39.4,0,0,0,42.82-64.31Z" fill="#fff"/><path d="M275.88,75.14A39.39,39.39,0,1,1,260.93,151,38.68,38.68,0,0,1,248.67,143l-.65-.63a39.4,39.4,0,0,1,27.86-67.26m0-1a40.4,40.4,0,0,0-28.57,68.95l.68.65a39.56,39.56,0,0,0,12.56,8.15,40.39,40.39,0,1,0,15.33-77.75Z" fill="#231f20"/><path d="M293.39,92.29l-1.87,43.25a1.92,1.92,0,0,1-2.9,1.57l-12.7-7.58-15,21.45A38.68,38.68,0,0,1,248.67,143l14.68-21L249.79,114a1.92,1.92,0,0,1,.13-3.37l40.71-20.1A1.92,1.92,0,0,1,293.39,92.29Z" fill="#68e1fd"/><circle cx="203.37" cy="128.51" r="7.17" fill="#68e1fd"/><circle cx="125.96" cy="165.02" r="7.17" fill="#68e1fd"/><path d="M131.08,118.33H98.35a.51.51,0,0,1-.5-.5.5.5,0,0,1,.5-.5h32.73a.5.5,0,0,1,.5.5A.51.51,0,0,1,131.08,118.33Z" fill="#d1d3d4"/><path d="M150.42,107.79H98.35a.51.51,0,0,1-.5-.5.5.5,0,0,1,.5-.5h52.07a.5.5,0,0,1,.5.5A.51.51,0,0,1,150.42,107.79Z" fill="#d1d3d4"/><path d="M150.42,97.25H98.35a.5.5,0,0,1,0-1h52.07a.5.5,0,0,1,0,1Z" fill="#d1d3d4"/><path d="M150.42,86.71H98.35a.5.5,0,0,1,0-1h52.07a.5.5,0,0,1,0,1Z" fill="#d1d3d4"/><path d="M150.42,76.17H98.35a.5.5,0,0,1-.5-.5.51.51,0,0,1,.5-.5h52.07a.51.51,0,0,1,.5.5A.5.5,0,0,1,150.42,76.17Z" fill="#d1d3d4"/></g></svg>