<svg xmlns="http://www.w3.org/2000/svg" viewBox="0 0 400 300"><g id="_37_digital_nomad" data-name="#37_digital_nomad"><path d="M369.13,178a.4.4,0,0,1-.15,0c-52.18-16.48-108.69-25.46-168-26.72a718.76,718.76,0,0,0-169.67,17,.5.5,0,1,1-.21-1,719.09,719.09,0,0,1,169.9-17.05c59.36,1.26,116,10.26,168.23,26.77a.5.5,0,0,1-.15,1Z" fill="#d1d3d4"/><path d="M71.41,115.18a70.42,70.42,0,0,0,35.43-24.91c1.92-2.55,7.31-10.45,4.64-13.85-2-2.52-9.58,3-11.79,4.4A71.29,71.29,0,0,0,79.08,100.6,68.12,68.12,0,0,0,71.41,115.18Z" fill="#fff"/><path d="M71.41,115.68a.52.52,0,0,1-.36-.16A.5.5,0,0,1,71,115a68.73,68.73,0,0,1,7.72-14.68A72,72,0,0,1,99.42,80.4l1-.63c3.31-2.18,9.46-6.25,11.5-3.66,2.94,3.75-2.8,12-4.64,14.46a70.89,70.89,0,0,1-35.68,25.08A.4.4,0,0,1,71.41,115.68ZM109.9,76.26c-2.39,0-7,3-9,4.34l-1,.64a71.2,71.2,0,0,0-20.46,19.65,67.35,67.35,0,0,0-7.23,13.5A70,70,0,0,0,106.44,90c3.39-4.52,6.64-10.7,4.65-13.24A1.43,1.43,0,0,0,109.9,76.26Z" fill="#d1d3d4"/><path d="M109.22,83.23s-5.77-6.8-4.1-23.13,12.53-31,12.53-31S122,43.77,120,59A46.81,46.81,0,0,1,109.22,83.23Z" fill="#fff"/><path d="M109.22,83.73h0a.5.5,0,0,1-.37-.17c-.24-.29-5.89-7.16-4.22-23.51S117.14,29,117.25,28.83a.51.51,0,0,1,.49-.2.53.53,0,0,1,.39.35c0,.15,4.39,14.92,2.31,30.06a47.73,47.73,0,0,1-10.86,24.54A.48.48,0,0,1,109.22,83.73Zm8.23-53.45c-2.3,3.36-10.43,16.09-11.84,29.87-1.38,13.54,2.46,20.49,3.65,22.28A47.34,47.34,0,0,0,119.45,58.9C121.19,46.25,118.37,33.85,117.45,30.28Z" fill="#d1d3d4"/><polygon points="292.17 199.91 370.7 231.53 107.39 239.93 41.51 209.89 292.17 199.91" fill="#fff"/><path d="M107.39,240.43a.46.46,0,0,1-.21-.05l-65.88-30a.5.5,0,0,1,.19-1l250.66-10a.49.49,0,0,1,.21,0l78.53,31.62a.5.5,0,0,1-.17,1l-263.32,8.4ZM43.62,210.3l63.87,29.13,260.82-8.32-76.22-30.7Z" fill="#d1d3d4"/><path d="M254.49,110.22s-9.14,42-11.24,42.17-11.89-24.29-11.89-24.29l-10.78,10.23s14.23,41.64,27.06,43.4,20-27.06,20-27.06Z" fill="#fff"/><path d="M248.79,182.32a10,10,0,0,1-1.22-.08c-13-1.78-26.89-42-27.48-43.74a.52.52,0,0,1,.14-.54L231,127.73a.51.51,0,0,1,.47-.13.49.49,0,0,1,.37.31c4.44,11.11,9.8,22.87,11.32,23.91,1.73-2.11,7.52-26.51,10.83-41.71a.5.5,0,0,1,.48-.4.51.51,0,0,1,.51.37l13.18,44.44a.53.53,0,0,1,0,.28,84.2,84.2,0,0,1-5.25,14.28C258.64,177.88,253.89,182.32,248.79,182.32Zm-27.61-43.84c1.34,3.82,14.74,41.12,26.53,42.74s18.86-24.42,19.42-26.54l-12.57-42.39c-.78,3.53-2.53,11.33-4.4,19.07-5.18,21.4-6.2,21.48-6.87,21.54-2.11.22-8.38-14.57-12.13-23.9Z" fill="#231f20"/><circle cx="253.26" cy="84.57" r="8.26" fill="#68e1fd"/><path d="M279.3,62.64a11.92,11.92,0,0,0-4.08-3.17c-6-2.84-13.84-3.56-19,1.12,0,0-2.39-3.25-8.54-2.9-3.88.23-8.26,4.84-13,2.29a13.73,13.73,0,0,0,7.74,7.26,14.44,14.44,0,0,1-8.15-2.1c.07,2.25,3,8.76,4.76,10.17,9.88,7.9,16.83,7.7,18.78,14,.45,1.47.54,3,.95,4.52a10.67,10.67,0,0,0,7.8,7.39c2.77.61,5.27-.16,8-.36,2.44-.19,4.92,0,7.31-.8A14,14,0,0,0,289,94a8.44,8.44,0,0,1-6.61-3.9A11.21,11.21,0,0,1,281,83.63c.21-4,1.6-7.8,1.56-11.92A14.35,14.35,0,0,0,279.3,62.64Z" fill="#fff"/><path d="M268.69,102a11.11,11.11,0,0,1-2.33-.24A11.24,11.24,0,0,1,258.17,94c-.2-.72-.32-1.46-.45-2.17a16.85,16.85,0,0,0-.49-2.33c-1.07-3.46-3.75-4.85-7.8-7a61.89,61.89,0,0,1-10.81-6.8c-1.91-1.53-4.89-8.23-5-10.55a.53.53,0,0,1,.26-.46.51.51,0,0,1,.53,0,13.94,13.94,0,0,0,5.38,1.91,14.38,14.38,0,0,1-5.71-6.42.52.52,0,0,1,.12-.59.51.51,0,0,1,.6-.07c2.83,1.5,5.55.29,8.18-.89a13.58,13.58,0,0,1,4.59-1.46c5.08-.3,7.71,1.77,8.62,2.69,5.6-4.68,13.55-3.54,19.21-.86a12.5,12.5,0,0,1,4.26,3.29h0a14.78,14.78,0,0,1,3.38,9.41,32.88,32.88,0,0,1-.8,6.65,40.1,40.1,0,0,0-.75,5.29,10.58,10.58,0,0,0,1.34,6.14,7.86,7.86,0,0,0,6.19,3.66.53.53,0,0,1,.44.27.54.54,0,0,1,0,.51,14.41,14.41,0,0,1-7.54,6.33,20.35,20.35,0,0,1-5.49.72c-.65,0-1.3,0-1.94.1-.8.06-1.59.17-2.35.28A24.59,24.59,0,0,1,268.69,102ZM234.85,66.11c.61,2.62,3,7.63,4.41,8.79a59.66,59.66,0,0,0,10.65,6.69c4.12,2.15,7.11,3.7,8.3,7.58a19.5,19.5,0,0,1,.53,2.45,20.73,20.73,0,0,0,.43,2.08,10.16,10.16,0,0,0,7.42,7,15,15,0,0,0,5.43-.09c.78-.11,1.58-.23,2.41-.29.66,0,1.32-.07,2-.1a19.09,19.09,0,0,0,5.21-.68,13,13,0,0,0,6.52-5.18A8.93,8.93,0,0,1,282,90.33a11.52,11.52,0,0,1-1.5-6.73,39.81,39.81,0,0,1,.77-5.44,31.87,31.87,0,0,0,.78-6.44A13.77,13.77,0,0,0,278.91,63h0a11.6,11.6,0,0,0-3.91-3c-5.49-2.6-13.23-3.69-18.47,1a.53.53,0,0,1-.4.13.5.5,0,0,1-.36-.21c-.09-.12-2.35-3-8.1-2.68a13.15,13.15,0,0,0-4.23,1.37c-2.35,1.05-5,2.22-7.76,1.4a13.3,13.3,0,0,0,6.83,5.78.52.52,0,0,1-.15,1A15.07,15.07,0,0,1,234.85,66.11Z" fill="#231f20"/><circle cx="217.97" cy="112.56" r="5.23" fill="#fff"/><path d="M218,118.31a5.75,5.75,0,1,1,5.75-5.75A5.76,5.76,0,0,1,218,118.31Zm0-10.47a4.72,4.72,0,1,0,4.72,4.72A4.73,4.73,0,0,0,218,107.84Z" fill="#231f20"/><path d="M222.69,215.9c-.16-.65-34.52-9.67-42.25-9.67-5.61,0-11.41,1.54-16.86,2.65-9,1.84-18,3.94-27,6.15-13.27,3.28-27.22,6.13-39.51,12.13a1.8,1.8,0,0,1-1,.27,1.76,1.76,0,0,1-1-.74c-2.82-3.34-4.6-7.41-6.68-11.26a74.65,74.65,0,0,0-9.14-13.22c-1.83-2.11-6.95-6.62-3.72-9.72a4.39,4.39,0,0,1,3.85-.92,11.25,11.25,0,0,1,3.74,1.68,62.26,62.26,0,0,1,14.26,12.13A2,2,0,0,0,98,206a2,2,0,0,0,1.48-.21c23-9.67,45.74-19.91,69.27-28.38,13-4.68,26.6-.22,39.57,3q12.15,3,24.19,6.41Z" fill="#fff"/><path d="M96.2,228H96a2.24,2.24,0,0,1-1.38-.92,46,46,0,0,1-5.34-8.67c-.46-.9-.93-1.8-1.41-2.68a74.49,74.49,0,0,0-9.07-13.13c-.24-.28-.54-.6-.86-1-2.25-2.41-6-6.44-2.83-9.48a4.88,4.88,0,0,1,4.31-1.06,11.9,11.9,0,0,1,3.91,1.75A62.37,62.37,0,0,1,97.73,205a1.64,1.64,0,0,0,.49.44,1.69,1.69,0,0,0,1.08-.22q8.78-3.69,17.51-7.44c16.83-7.19,34.22-14.62,51.78-20.94,11.72-4.22,23.83-1.13,35.55,1.85,1.45.37,2.89.74,4.32,1.09,8.42,2.06,16.57,4.22,24.21,6.42a.54.54,0,0,1,.32.25.58.58,0,0,1,0,.41l-9.84,29.16a.5.5,0,0,1-.51.35.49.49,0,0,1-.34-.15c-1.55-.76-34.12-9.51-41.89-9.51a66.22,66.22,0,0,0-13.65,2l-3.11.66c-8.12,1.66-16.69,3.61-27,6.15q-2.84.71-5.72,1.39c-11.4,2.74-23.2,5.58-33.68,10.71A2.59,2.59,0,0,1,96.2,228ZM78.3,192a3.49,3.49,0,0,0-2.45.89c-2.25,2.15.18,5.14,2.86,8,.34.36.64.69.89,1a75.49,75.49,0,0,1,9.2,13.31c.48.9,1,1.8,1.42,2.7a44.9,44.9,0,0,0,5.21,8.48c.23.27.47.53.71.56a1.52,1.52,0,0,0,.72-.22c10.58-5.18,22.43-8,33.89-10.78l5.72-1.39c10.29-2.54,18.87-4.5,27-6.16l3.1-.65a66.41,66.41,0,0,1,13.87-2c5.51,0,36.44,7.16,41.92,9.53l9.51-28.17c-7.48-2.14-15.44-4.24-23.65-6.26-1.44-.35-2.89-.72-4.34-1.09-11.56-2.95-23.52-6-34.94-1.88-17.53,6.31-34.91,13.74-51.72,20.92-5.83,2.49-11.67,5-17.52,7.44a2.42,2.42,0,0,1-1.87.22,2.37,2.37,0,0,1-.88-.72,61.72,61.72,0,0,0-14.14-12,10.94,10.94,0,0,0-3.57-1.6A4.29,4.29,0,0,0,78.3,192Z" fill="#231f20"/><path d="M236.39,222.48c-.15-.64-34.52-9.66-42.25-9.66-5.6,0-11.41,1.53-16.86,2.65-9,1.84-18,3.94-27,6.15-13.26,3.27-27.22,6.12-39.5,12.13a1.93,1.93,0,0,1-1,.27,1.78,1.78,0,0,1-1.06-.74c-2.81-3.35-4.59-7.42-6.68-11.26a74.65,74.65,0,0,0-9.14-13.22c-1.82-2.12-7-6.62-3.72-9.72a4.38,4.38,0,0,1,3.86-.92,11.47,11.47,0,0,1,3.73,1.67A62.09,62.09,0,0,1,111,212a1.47,1.47,0,0,0,2.16.35c23-9.66,45.75-19.9,69.27-28.37,13-4.68,26.6-.22,39.57,3q12.15,3,24.19,6.41Z" fill="#fff"/><path d="M109.9,234.54h-.18a2.21,2.21,0,0,1-1.38-.92A46.05,46.05,0,0,1,103,225c-.47-.9-.93-1.8-1.41-2.69a75.29,75.29,0,0,0-9.08-13.13c-.24-.27-.53-.59-.86-.94-2.24-2.41-6-6.44-2.82-9.48a4.85,4.85,0,0,1,4.3-1.06,11.71,11.71,0,0,1,3.91,1.75,62.37,62.37,0,0,1,14.38,12.23,1.47,1.47,0,0,0,.49.43,1.6,1.6,0,0,0,1.08-.21q8.77-3.69,17.51-7.44c16.83-7.19,34.22-14.62,51.79-20.95,11.71-4.21,23.83-1.13,35.54,1.86l4.32,1.09c8.43,2.06,16.57,4.22,24.21,6.42a.5.5,0,0,1,.32.25.53.53,0,0,1,0,.41l-9.84,29.16a.52.52,0,0,1-.51.35.49.49,0,0,1-.34-.15c-2-1.09-34.75-9.51-41.89-9.51-4.49,0-9.14,1-13.64,2l-3.12.66c-8.1,1.65-16.67,3.61-27,6.15l-5.71,1.39c-11.41,2.74-23.21,5.58-33.7,10.7A2.42,2.42,0,0,1,109.9,234.54ZM92,198.57a3.5,3.5,0,0,0-2.46.89c-2.25,2.15.18,5.14,2.87,8,.33.36.64.69.88,1a75.49,75.49,0,0,1,9.2,13.31c.49.9,1,1.8,1.43,2.71a45.09,45.09,0,0,0,5.2,8.47c.23.27.47.53.72.56a1.57,1.57,0,0,0,.71-.22c10.59-5.18,22.44-8,33.9-10.79l5.71-1.38c10.31-2.55,18.89-4.5,27-6.16l3.1-.66a67.06,67.06,0,0,1,13.86-2c5.52,0,36.45,7.16,41.93,9.53l9.5-28.17c-7.48-2.14-15.43-4.25-23.65-6.26-1.44-.35-2.88-.72-4.33-1.09-11.57-2.95-23.53-6-34.94-1.89-17.54,6.32-34.92,13.75-51.73,20.93q-8.74,3.73-17.52,7.44a2.41,2.41,0,0,1-1.87.22,2.46,2.46,0,0,1-.88-.72,61.72,61.72,0,0,0-14.14-12A10.82,10.82,0,0,0,93,198.66,5.15,5.15,0,0,0,92,198.57Z" fill="#231f20"/><path d="M326.7,216.16s.68,10.21-34.09,12.3c-45.24,2.72-77.91-8.17-77.91-8.17l8.69-36.81,42.17,7.38Z" fill="#231f20"/><path d="M278.17,229.39c-37.27,0-63.34-8.53-63.63-8.63a.49.49,0,0,1-.33-.59l8.7-36.8a.5.5,0,0,1,.57-.38l42.16,7.38.11,0,61.14,25.3a.5.5,0,0,1,.3.43c0,.06.09,1.62-1.67,3.62-3.06,3.48-11.25,7.9-32.88,9.21C287.66,229.25,282.82,229.39,278.17,229.39ZM215.29,220c4,1.25,35.46,10.52,77.29,8,30.31-1.82,33.3-9.84,33.59-11.48l-60.75-25.14-41.65-7.29Z" fill="#231f20"/><path d="M280.31,99.68s23.72,2.64,32.15,11.07,23.2,65.35,14.24,105.41l-61.14-25.3s-19.63-76.55-13.18-82.75S280.31,99.68,280.31,99.68Z" fill="#68e1fd"/><path d="M258.83,101.92l2.6,12.29s5.79,6.37,13,2.26a16.54,16.54,0,0,0,8-11.73l-6.4-21.87s-6.64-1.41-8.56-14.39a40,40,0,0,1-19.35,8.62s.38,14.57,3,20.31S258.83,101.92,258.83,101.92Z" fill="#fff"/><path d="M269.51,118.36c-4.93,0-8.41-3.76-8.46-3.81a.55.55,0,0,1-.12-.24l-2.5-11.81c-1.43.15-5.4.06-7.69-4.88-2.69-5.77-3.09-19.91-3.11-20.51a.51.51,0,0,1,.44-.52,39.9,39.9,0,0,0,19.09-8.49.52.52,0,0,1,.52-.11.51.51,0,0,1,.33.42c1.83,12.41,8.09,13.94,8.16,14a.51.51,0,0,1,.38.36L283,104.6a.44.44,0,0,1,0,.2,16.89,16.89,0,0,1-8.28,12.12A10.43,10.43,0,0,1,269.51,118.36Zm-7.6-4.4c.77.79,5.9,5.69,12.27,2.06a16.16,16.16,0,0,0,7.75-11.23l-6.29-21.5c-1.35-.44-6.63-2.85-8.5-13.83a41.92,41.92,0,0,1-18.46,8.08c.09,2.49.66,14.63,3,19.65,2.45,5.27,6.85,4.28,7,4.23a.52.52,0,0,1,.4.07.54.54,0,0,1,.23.32Z" fill="#231f20"/><path d="M260.4,108a10.49,10.49,0,0,0,7.2-4.88c2.47-4.28,1.63-6.11,1.63-6.11s-4.65,4.61-10,5.06Z" fill="#231f20"/><path d="M260.4,108.44a.48.48,0,0,1-.48-.4l-1.21-5.92a.56.56,0,0,1,.09-.4.53.53,0,0,1,.36-.2c5.13-.42,9.67-4.87,9.72-4.91a.46.46,0,0,1,.43-.14.51.51,0,0,1,.37.28c.09.21.88,2.19-1.64,6.57a11,11,0,0,1-7.57,5.12Zm-.6-6,1,4.92a10,10,0,0,0,6.38-4.55A10.33,10.33,0,0,0,268.86,98C267.4,99.22,263.88,101.91,259.8,102.45Z" fill="#231f20"/><path d="M257.31,82.57s-2.57,7.16-1.33,8,3.8-.57,3.8-.57" fill="#fff"/><path d="M257,91.31a2.28,2.28,0,0,1-1.29-.35c-1.37-.9.12-5.75,1.13-8.56a.5.5,0,0,1,.64-.3.49.49,0,0,1,.3.64c-1.26,3.51-2,7-1.52,7.39.81.54,2.69-.27,3.28-.59a.5.5,0,1,1,.48.88A7.33,7.33,0,0,1,257,91.31Z" fill="#231f20"/><path d="M260,94.6s4.94.34,5.07-4.4" fill="#fff"/><path d="M260.23,95.1H260a.5.5,0,1,1,.06-1,5.16,5.16,0,0,0,3.4-1.09,3.78,3.78,0,0,0,1.14-2.82.51.51,0,0,1,.52-.49.5.5,0,0,1,.48.51,4.77,4.77,0,0,1-1.47,3.55A6,6,0,0,1,260.23,95.1Z" fill="#231f20"/><polygon points="171.92 178.91 172.8 181.9 207.76 193.67 264.15 188.75 264.15 186.29 207.06 190.69 171.92 178.91" fill="#fff"/><path d="M207.76,194.19a.51.51,0,0,1-.17,0l-35-11.77a.51.51,0,0,1-.33-.34l-.88-3a.53.53,0,0,1,.14-.52.52.52,0,0,1,.52-.11l35,11.73,57-4.38a.5.5,0,0,1,.39.14.48.48,0,0,1,.17.37v2.46a.52.52,0,0,1-.47.52l-56.4,4.92ZM173.22,181.5l34.6,11.65,55.82-4.87v-1.43l-56.55,4.35a.46.46,0,0,1-.2,0l-34.2-11.46Z" fill="#231f20"/><polygon points="264.15 186.29 230.6 174.88 171.92 178.91 207.06 190.69 264.15 186.29" fill="#fff"/><path d="M207.05,191.2l-.16,0L171.75,179.4a.51.51,0,0,1-.34-.55.52.52,0,0,1,.47-.45l58.68-4a.34.34,0,0,1,.2,0l33.56,11.42a.52.52,0,0,1-.13,1l-57.1,4.39Zm-32.5-11.95,32.57,10.91L261.61,186,230.53,175.4Z" fill="#231f20"/><polygon points="207.06 190.69 191.07 124.1 153.82 122.87 171.92 178.91 207.06 190.69" fill="#fff"/><path d="M207.05,191.2l-.16,0L171.75,179.4a.5.5,0,0,1-.32-.33l-18.1-56a.53.53,0,0,1,.08-.47.51.51,0,0,1,.43-.2l37.24,1.23a.51.51,0,0,1,.49.39l16,66.59a.53.53,0,0,1-.16.5A.49.49,0,0,1,207.05,191.2Zm-34.72-12.69,34,11.39-15.68-65.29-36.12-1.2Z" fill="#231f20"/><ellipse cx="177.01" cy="153.62" rx="3.69" ry="6.85" transform="matrix(0.97, -0.25, 0.25, 0.97, -33.19, 49.96)" fill="#d1d3d4"/><path d="M295.77,139.56s-2.81-18.27,8.79-23.89,14.05,14.76,15.11,28.81,2.81,46.38-5.27,51.3c-2.37,1.44-6.26.68-8.81.36a139.52,139.52,0,0,1-15.29-3c-9-2.15-18.16-4.69-27.17-7.19-11.68-3.23-25.37-9.63-36.88-2.46a20.57,20.57,0,0,0-1.82,1.28c-.63.49-2.54,2.12-3,.76-.24-.8.66-2.14,1-2.8a17.35,17.35,0,0,1,4.45-4.51l-10.53,6.53c-.18.1-.39.22-.58.14s-.25-.55-.14-.85a10.89,10.89,0,0,1,3.86-4.63c1.63-1.21,3.42-2.2,5-3.44a61.74,61.74,0,0,0-9.48,5.18,3.69,3.69,0,0,1-1.54.72,1.23,1.23,0,0,1-1.37-.76,1.6,1.6,0,0,1,.6-1.43,13.11,13.11,0,0,1,2.44-1.88,50.94,50.94,0,0,1,8.26-4.73,38.45,38.45,0,0,0-11.24,4.39,2.21,2.21,0,0,1-1,.39.73.73,0,0,1-.77-.6,1,1,0,0,1,.24-.59,15.7,15.7,0,0,1,4.34-4.18,32.41,32.41,0,0,1,15-4.95,18.81,18.81,0,0,1-6.38-4.42c-.36-.38-.7-1-.32-1.37s.73-.14,1.09,0c4.19,1.59,8.9,4.2,13.3,4.79,1.81.24,3.72.17,5.54.29,5.72.36,11.43.8,17.14,1.14,7.72.47,15.49.9,23.23.67,2.1-.06,11.06.39,11.74-2.71C296.83,159.59,295.77,139.56,295.77,139.56Z" fill="#fff"/><path d="M310.55,197.14a32.08,32.08,0,0,1-4.11-.36l-.91-.13a142.85,142.85,0,0,1-15.35-3c-8.88-2.12-17.95-4.63-26.72-7.07l-.47-.13c-1.92-.53-3.86-1.14-5.9-1.78-10.4-3.25-21.15-6.61-30.56-.74-.61.38-1.21.8-1.78,1.24l-.12.1c-.94.75-2,1.52-2.87,1.25a1.17,1.17,0,0,1-.78-.84c-.28-.92.46-2.15,1-3l.15-.25a8.4,8.4,0,0,1,.71-1.05l-6.08,3.76a1.16,1.16,0,0,1-1,.19,1.11,1.11,0,0,1-.43-1.52,10.27,10.27,0,0,1,3-4.06c-1,.57-1.92,1.17-2.86,1.79a4.07,4.07,0,0,1-1.75.8,1.74,1.74,0,0,1-1.93-1.13,2,2,0,0,1,.72-1.93,14.3,14.3,0,0,1,2.53-2c1.19-.78,2.4-1.58,3.65-2.33a36.8,36.8,0,0,0-6.09,2.88,2.6,2.6,0,0,1-1.24.45,1.27,1.27,0,0,1-1.31-1.08,1.54,1.54,0,0,1,.33-.92,16.48,16.48,0,0,1,4.49-4.32,33,33,0,0,1,13.38-4.84,19.33,19.33,0,0,1-4.87-3.74,2.38,2.38,0,0,1-.55-.88,1.12,1.12,0,0,1,.25-1.22,1.55,1.55,0,0,1,1.62-.11c1.26.48,2.54,1,3.89,1.62,3.09,1.34,6.28,2.73,9.3,3.13a31.85,31.85,0,0,0,3.41.21c.7,0,1.41,0,2.1.08l7.28.49c3.28.23,6.57.46,9.85.66,8.25.49,15.69.88,23.18.67h1.09c2.64.05,9.66,0,10.17-2.3,1.35-6.08.38-25.38.34-26.19a37.88,37.88,0,0,1,.05-10c1-7.07,4.12-12.07,9-14.44,2.65-1.29,5-1.35,7.06-.18,6.1,3.52,7.9,17.57,8.79,29.41,1.59,21.13,1.92,47.26-5.51,51.78A8,8,0,0,1,310.55,197.14Zm-72.26-17.42c6.42,0,13,2.06,19.1,4,2,.64,4,1.24,5.87,1.77l.47.13c8.77,2.43,17.83,4.94,26.69,7a141.75,141.75,0,0,0,15.24,3l.92.12c2.37.33,5.61.77,7.55-.41,5.45-3.32,7.23-21.36,5-50.82-.87-11.59-2.59-25.32-8.27-28.59-1.75-1-3.74-.94-6.1.2-11.11,5.39-8.52,23.18-8.5,23.35a.13.13,0,0,1,0,.06c0,.82,1,20.17-.36,26.49-.61,2.72-5.69,3.1-11.12,3.1h-1.12c-7.53.22-15-.18-23.27-.68-3.29-.19-6.58-.42-9.86-.65l-7.28-.49c-.68,0-1.37-.06-2.06-.08a34.62,34.62,0,0,1-3.52-.21c-3.16-.42-6.42-1.84-9.57-3.22-1.34-.58-2.61-1.13-3.84-1.6-.46-.17-.55-.1-.55-.09a1,1,0,0,0,.34.63,18.15,18.15,0,0,0,6.2,4.3.52.52,0,0,1,.31.56.51.51,0,0,1-.47.43,32,32,0,0,0-14.74,4.87,15.67,15.67,0,0,0-4.2,4,.83.83,0,0,0-.15.28.34.34,0,0,0,.25.1A1.79,1.79,0,0,0,212,177a38.54,38.54,0,0,1,11.39-4.45.52.52,0,0,1,.6.35.51.51,0,0,1-.29.63,50.37,50.37,0,0,0-8.17,4.68,13.14,13.14,0,0,0-2.36,1.8c-.21.22-.55.63-.47.95s.48.42.81.38a3.19,3.19,0,0,0,1.29-.62,62.76,62.76,0,0,1,9.58-5.24.52.52,0,0,1,.65.21.5.5,0,0,1-.13.67c-.86.66-1.77,1.26-2.66,1.83s-1.62,1-2.38,1.62a10.12,10.12,0,0,0-3.68,4.39l0,.08,10.52-6.52a.52.52,0,0,1,.59.85A16.73,16.73,0,0,0,223,183l-.16.26c-.32.54-1,1.65-.84,2.13,0,0,.05.14.09.16.2.06.68-.08,1.93-1.08l.12-.1c.6-.46,1.23-.9,1.87-1.31A22.74,22.74,0,0,1,238.29,179.72Z" fill="#231f20"/><polygon points="219.49 140.22 233.25 140.22 234.9 112.82 217.84 112.82 219.49 140.22" fill="#fff"/><path d="M233.25,140.74H219.49a.52.52,0,0,1-.52-.49l-1.65-27.4a.49.49,0,0,1,.14-.38.55.55,0,0,1,.38-.16H234.9a.55.55,0,0,1,.38.16.57.57,0,0,1,.14.38l-1.65,27.4A.52.52,0,0,1,233.25,140.74Zm-13.28-1h12.8l1.58-26.37h-16Z" fill="#231f20"/><polygon points="221.49 138.08 231.25 138.08 232.07 123.66 220.67 123.66 221.49 138.08" fill="#68e1fd"/><circle cx="277.42" cy="79.61" r="8.26" fill="#68e1fd"/><path d="M268.72,75.44S242.84,82.37,243.51,83s1.23,4.75,8.17,4.57c4.67-.12,5.27-5.45,5.27-5.45a7.64,7.64,0,0,0,7.29,2C269.06,83.19,268.72,75.44,268.72,75.44Z" fill="#231f20"/><path d="M274.52,75.61s1-6.32-6.42-11.59-11.68-3.95-11.68-3.95.9-4,5.71-2.88a28.46,28.46,0,0,1,9.49,5.25c6.85,5.53,7.29,15.11,7.29,15.11Z" fill="#68e1fd"/><path d="M226.34,122.4c.49.48.85,1.4.25,1.73a1.22,1.22,0,0,1-.78.05l-4.27-.71a14.47,14.47,0,0,1,5.69,3.44c.5.49.92,1.4.33,1.76a1.15,1.15,0,0,1-.61.12,10.8,10.8,0,0,1-5.45-1.53,36.55,36.55,0,0,1,4.66,3,1.59,1.59,0,0,1,.72.94,1.06,1.06,0,0,1-.79,1.07,2.85,2.85,0,0,1-1.42,0,20,20,0,0,1-4.71-1.55,20.14,20.14,0,0,1,4,1.51,3.35,3.35,0,0,1,1.31,1,1.29,1.29,0,0,1,0,1.54,1.8,1.8,0,0,1-1.54.37,13.76,13.76,0,0,1-4.49-1.23,43.42,43.42,0,0,1-.15,4.56,7.87,7.87,0,0,1-3.4-5.49c-.41-2.37-1-8.9.67-11C218.66,119.13,224.06,120.13,226.34,122.4Z" fill="#fff"/><path d="M219.07,139a.56.56,0,0,1-.27-.08,8.32,8.32,0,0,1-3.64-5.84c0-.08-1.41-8.68.78-11.37a5.59,5.59,0,0,1,4.2-1.94,9.09,9.09,0,0,1,6.57,2.3,2.26,2.26,0,0,1,.7,1.72,1.09,1.09,0,0,1-.57.83,1.66,1.66,0,0,1-1.11.11l-.61-.1a15.06,15.06,0,0,1,2.48,2,2.32,2.32,0,0,1,.75,1.73,1.09,1.09,0,0,1-.52.83,1.58,1.58,0,0,1-.88.19,11.41,11.41,0,0,1-1.32-.08l.84.62a2,2,0,0,1,.92,1.28,1.58,1.58,0,0,1-1.14,1.63,2.18,2.18,0,0,1-.61.11l0,0a1.79,1.79,0,0,1-.05,2.18,2.3,2.3,0,0,1-2,.53,13.94,13.94,0,0,1-3.93-1c0,1.27-.05,2.55-.15,3.81a.55.55,0,0,1-.28.42A.53.53,0,0,1,219.07,139Zm1.52-18.21h-.39a4.68,4.68,0,0,0-3.46,1.56c-1.46,1.8-1,8-.56,10.55a7.68,7.68,0,0,0,2.45,4.62c.07-1.2.1-2.41.07-3.6a.51.51,0,0,1,.24-.44.5.5,0,0,1,.5,0,12.74,12.74,0,0,0,4.32,1.18c.58.06.94,0,1.11-.19a.8.8,0,0,0-.05-.91,2.9,2.9,0,0,0-1.11-.83l-.44-.21a21,21,0,0,1-3.53-1.29.52.52,0,0,1-.27-.64.5.5,0,0,1,.62-.32,20.08,20.08,0,0,1,3.53,1.27c.38.1.76.19,1.15.26a2.42,2.42,0,0,0,1.16,0c.26-.09.47-.32.44-.51s-.27-.4-.52-.6a36.6,36.6,0,0,0-3.91-2.57c-.24-.12-.47-.25-.7-.39a.53.53,0,0,1-.19-.7.52.52,0,0,1,.7-.19l.68.37a10.14,10.14,0,0,0,4.52,1.09.94.94,0,0,0,.34,0,1.2,1.2,0,0,0-.42-.95,14,14,0,0,0-5.49-3.32.5.5,0,0,1-.34-.61.51.51,0,0,1,.58-.39l4.28.71a.94.94,0,0,0,.44,0,1.1,1.1,0,0,0-.36-.92A8.1,8.1,0,0,0,220.59,120.75Z" fill="#231f20"/><path d="M229.08,137.52a.56.56,0,0,1-.52-.42c-.13-.53,1.35-20.83,2.24-32.89a.51.51,0,0,1,.17-.34l6.85-6.19a.51.51,0,1,1,.69.76l-6.7,6.06c-.93,12.64-2.29,31.55-2.24,32.41a.48.48,0,0,1-.38.59Z" fill="#231f20"/><path d="M104.32,176.45s-7.48-54.84,7.56-91.6l-7.7-2.8S82.84,115.71,87.5,177" fill="#fff"/><path d="M87.5,177.51a.49.49,0,0,1-.5-.46c-2.42-31.74,2.26-55.94,6.61-70.65,4.72-16,10.09-24.54,10.15-24.62a.48.48,0,0,1,.59-.2l7.71,2.8a.53.53,0,0,1,.28.27.48.48,0,0,1,0,.39c-14.82,36.21-7.61,90.8-7.53,91.34a.51.51,0,0,1-.43.57.49.49,0,0,1-.56-.43c-.08-.55-7.26-54.92,7.4-91.38l-6.83-2.48C102.21,86.36,83.65,119.81,88,177a.5.5,0,0,1-.46.53Z" fill="#d1d3d4"/><path d="M82.74,178.29a.44.44,0,0,1-.19,0,.49.49,0,0,1-.31-.63.51.51,0,0,1,.52-.34c.15,0,.81,0,1.57-.11,4.51-.34,16.46-1.24,25.79-.66a.49.49,0,0,1,.47.52.48.48,0,0,1-.53.47c-9.26-.56-21.17.33-25.65.67C83.33,178.26,82.93,178.29,82.74,178.29Z" fill="#d1d3d4"/><path d="M111.44,84.16s-30.59-23.54-61.28-6.6C50.16,77.56,68.82,94,111.44,84.16Z" fill="#fff"/><path d="M85.79,87.77A76.26,76.26,0,0,1,64.68,85c-10-2.87-14.66-6.91-14.85-7.08a.51.51,0,0,1-.17-.43.49.49,0,0,1,.26-.39c30.62-16.9,61.52,6.41,61.83,6.64a.52.52,0,0,1,.18.51.49.49,0,0,1-.38.38A115.22,115.22,0,0,1,85.79,87.77ZM51.07,77.64c3.42,2.53,22.09,14.5,59.18,6.28C105.05,80.32,78,63.29,51.07,77.64Z" fill="#d1d3d4"/><path d="M109.67,83.3s-.41,26,22.43,27C132.1,110.3,134.7,93.88,109.67,83.3Z" fill="#fff"/><path d="M132.1,110.8h0c-23.06-1-22.91-27.24-22.91-27.5a.49.49,0,0,1,.23-.41.49.49,0,0,1,.47,0c13.07,5.53,18.56,12.69,20.86,17.72a18.68,18.68,0,0,1,1.87,9.82A.51.51,0,0,1,132.1,110.8ZM110.19,84.07a36.75,36.75,0,0,0,2.6,12.19c3.52,8.43,9.86,13,18.86,13.52C131.81,107.13,131.54,93.38,110.19,84.07Z" fill="#d1d3d4"/><path d="M107,82.57s1.32-22.71-24.77-37.35C82.27,45.22,73.07,67.56,107,82.57Z" fill="#fff"/><path d="M107,83.08a.46.46,0,0,1-.2,0c-34-15-25.13-37.77-25-38a.55.55,0,0,1,.3-.28.49.49,0,0,1,.41,0c13.61,7.63,19.69,17.49,22.39,24.42a34.47,34.47,0,0,1,2.64,13.39.49.49,0,0,1-.24.4A.5.5,0,0,1,107,83.08ZM82.53,46c-1.16,3.48-5.82,22.35,24,35.86C106.47,77.83,104.92,58.78,82.53,46Z" fill="#d1d3d4"/><path d="M109.06,84.22S126,57.05,154,61.13C154,61.13,132.34,90.6,109.06,84.22Z" fill="#fff"/><path d="M115.74,85.61a25.58,25.58,0,0,1-6.81-.91.49.49,0,0,1-.29-.75c.17-.27,17.43-27.38,45.45-23.32a.51.51,0,0,1,.33.8C154.22,61.69,136.36,85.61,115.74,85.61Zm-5.87-1.7c20.45,5,39.83-18.1,43.22-22.4C128.48,58.46,112.49,80.08,109.87,83.91Z" fill="#d1d3d4"/><ellipse cx="107.46" cy="82.67" rx="4.93" ry="5.56" fill="#fff"/><path d="M107.46,88.73c-3,0-5.43-2.72-5.43-6.06s2.44-6.06,5.43-6.06,5.43,2.72,5.43,6.06S110.45,88.73,107.46,88.73Zm0-11.12c-2.44,0-4.43,2.27-4.43,5.06s2,5.06,4.43,5.06,4.43-2.27,4.43-5.06S109.9,77.61,107.46,77.61Z" fill="#d1d3d4"/><ellipse cx="111.05" cy="92.49" rx="4.93" ry="5.56" fill="#fff"/><path d="M111.05,98.55c-3,0-5.43-2.72-5.43-6.06s2.44-6.06,5.43-6.06,5.43,2.72,5.43,6.06S114,98.55,111.05,98.55Zm0-11.12c-2.44,0-4.43,2.27-4.43,5.06s2,5.06,4.43,5.06,4.43-2.27,4.43-5.06S113.49,87.43,111.05,87.43Z" fill="#d1d3d4"/><ellipse cx="101.97" cy="89.33" rx="3.6" ry="4.06" fill="#fff"/><path d="M102,93.88a4.58,4.58,0,1,1,4.09-4.55A4.35,4.35,0,0,1,102,93.88Zm0-8.11a3.59,3.59,0,1,0,3.09,3.56A3.35,3.35,0,0,0,102,85.77Z" fill="#d1d3d4"/><path d="M216.52,252.9h-5.63a.5.5,0,0,1-.5-.5.5.5,0,0,1,.5-.5h5.63a.5.5,0,0,1,.5.5A.5.5,0,0,1,216.52,252.9Z" fill="#d1d3d4"/><path d="M329.15,252.91h0l-14.63-.68a.5.5,0,1,1,0-1l14.64.68a.5.5,0,0,1,0,1Z" fill="#d1d3d4"/><path d="M50.93,239.71a.5.5,0,0,1-.49-.44.5.5,0,0,1,.43-.56l9.63-1.27a.5.5,0,0,1,.56.43.51.51,0,0,1-.43.56L51,239.7Z" fill="#d1d3d4"/><path d="M51.55,180.93a.51.51,0,0,1-.5-.42.5.5,0,0,1,.41-.57l6.76-1.14a.5.5,0,0,1,.17,1l-6.76,1.14Z" fill="#d1d3d4"/><path d="M137.68,161.67a.48.48,0,0,1-.46-.32.49.49,0,0,1,.28-.64,17.72,17.72,0,0,1,8.12-1.15.5.5,0,0,1-.1,1,16.64,16.64,0,0,0-7.65,1.08A.63.63,0,0,1,137.68,161.67Z" fill="#d1d3d4"/><path d="M359,193.12a.4.4,0,0,1-.15,0l-5.58-1.86a.5.5,0,0,1,.32-.95l5.57,1.86a.5.5,0,0,1-.16,1Z" fill="#d1d3d4"/><path d="M139.92,260.75a.5.5,0,0,1-.26-.92,12.51,12.51,0,0,1,8.23-1.71.5.5,0,0,1-.14,1,11.68,11.68,0,0,0-7.57,1.57A.48.48,0,0,1,139.92,260.75Z" fill="#d1d3d4"/><path d="M103.75,109.25h-.07A51.78,51.78,0,0,1,96,107.48a.5.5,0,0,1,.3-1,51,51,0,0,0,7.53,1.72.51.51,0,0,1,.42.57A.51.51,0,0,1,103.75,109.25Z" fill="#d1d3d4"/><path d="M98.37,120.54a21.42,21.42,0,0,1-6-1,.5.5,0,0,1,.32-1s5,1.62,8.57.56a.5.5,0,1,1,.28,1A11.42,11.42,0,0,1,98.37,120.54Z" fill="#d1d3d4"/><path d="M94,134.26a17.39,17.39,0,0,1-3.73-.33.5.5,0,1,1,.24-1s4.07.93,10.75-.57a.51.51,0,0,1,.6.38.5.5,0,0,1-.38.6A34.42,34.42,0,0,1,94,134.26Z" fill="#d1d3d4"/><path d="M94.52,146.44a18.41,18.41,0,0,1-4.84-.55.5.5,0,0,1-.33-.62.49.49,0,0,1,.62-.34,23.09,23.09,0,0,0,10.45-.15.49.49,0,0,1,.59.38.5.5,0,0,1-.38.6A29,29,0,0,1,94.52,146.44Z" fill="#d1d3d4"/><path d="M93.77,160.25a26,26,0,0,1-4.61-.41.51.51,0,0,1-.39-.59.5.5,0,0,1,.59-.39c.06,0,6.23,1.21,10.25-.67a.49.49,0,0,1,.66.24.5.5,0,0,1-.24.67A15.21,15.21,0,0,1,93.77,160.25Z" fill="#d1d3d4"/><path d="M286.84,211.38c-16.5,0-42.42-.87-62.39-5.57a.44.44,0,1,1,.2-.86c31.49,7.41,77.88,5.27,78.34,5.25a.45.45,0,0,1,.47.42.44.44,0,0,1-.42.46C302.86,211.09,296.45,211.38,286.84,211.38Z" fill="#fff"/></g></svg>