<svg xmlns="http://www.w3.org/2000/svg" viewBox="0 0 400 300"><g id="_213_diversity_flatline" data-name="#213_diversity_flatline"><path d="M93.81,238.54H126.4l-10-104.1s23-33.73,19.28-36.75-19.28,14.71-19.28,14.71.54-44.88-2.69-46.22-9.13.8-8.06,30.1c0,0-2.42-29.08-6.18-30.4S92.25,78.61,95.21,95c0,0-5.38-28-9.14-25.57S88,100.12,88,100.12s-7.79-30.72-11-21.31,5.43,44.56,9.19,52.09Z" fill="#68e1fd"/><path d="M282,124.1,296.8,238.54h30.94L307.16,117.65s1.61-2.22,2.82-12.3,1.63-40.71-2.42-41.72c-4.84-1.21-5.44,20.4-5.44,20.4a175.32,175.32,0,0,0-1.21-17.78c-1-6.66-4.43-8.27-4.43-8.27-3.94-.41-1.25,20.72-.86,23.64-.42-3-3.73-25.77-8.62-24.65-5.24,1.21-2.42,24.8-2.42,24.8-2.42-10.69-6-26.65-11.89-25.4-3.72.79,4.84,47.77,4.84,47.77s-20.36-10.08-22-5S282,124.1,282,124.1Z" fill="#fff"/><path d="M327.75,239H296.8a.49.49,0,0,1-.49-.43L281.5,124.38c-3.63-2.59-28.06-20.29-26.42-25.43a2.28,2.28,0,0,1,1.35-1.42c4.15-1.76,16.91,4.06,20.43,5.73-.54-3.05-2.26-12.86-3.64-22.64-3.41-24.15-1.54-24.55-.63-24.74,5.14-1.1,8.44,9,10.89,18.94-.42-7.25-.33-17.47,3.41-18.33a2.19,2.19,0,0,1,1.79.39c2.21,1.52,4,7.19,5.28,12.78-.27-5.2-.11-10.24,1.29-11.69a1.54,1.54,0,0,1,1.28-.49l.16.05c.15.07,3.68,1.8,4.71,8.64.41,2.66.68,6,.87,9.17.58-4.89,1.65-10.31,3.62-11.8a2,2,0,0,1,1.79-.4c4.77,1.19,3.8,33.92,2.8,42.27-1,8.65-2.39,11.61-2.8,12.34l20.56,120.71a.56.56,0,0,1-.11.41A.52.52,0,0,1,327.75,239Zm-30.51-1h29.91L306.67,117.73a.51.51,0,0,1,.08-.38s1.57-2.35,2.73-12.06c1.46-12.09,1.27-40.35-2-41.18a1.06,1.06,0,0,0-.94.22c-2.79,2.11-3.75,15-3.88,19.72a.5.5,0,0,1-.5.48h0a.49.49,0,0,1-.5-.49,175.92,175.92,0,0,0-1.2-17.72c-.87-5.71-3.59-7.55-4.08-7.84a.51.51,0,0,0-.37.19c-1.78,1.83-1.2,12.81.15,22.89a.5.5,0,0,1-1,.13h0c-1.35-9.77-4-21.91-7-24a1.27,1.27,0,0,0-1-.24c-3.49.81-3.1,15.3-2,24.25a.51.51,0,0,1-.41.55.49.49,0,0,1-.57-.38c-2.22-9.79-6-26.16-11.31-25-1.92,1,1.15,24.79,5.23,47.19a.5.5,0,0,1-.19.49.51.51,0,0,1-.52,0c-4.49-2.22-16.91-7.65-20.49-6.14a1.33,1.33,0,0,0-.79.8c-1.09,3.42,15.51,16.81,26.22,24.44a.48.48,0,0,1,.21.34Z" fill="#231f20"/><path d="M296.48,109.88a.5.5,0,0,1-.39-.18c-5.41-6.7-18.37-5.08-18.5-5.06a.51.51,0,0,1-.56-.43.5.5,0,0,1,.43-.56c.56-.08,13.65-1.71,19.4,5.42a.49.49,0,0,1-.07.7A.45.45,0,0,1,296.48,109.88Z" fill="#231f20"/><path d="M308,88.11a.47.47,0,0,1-.25-.07c-11-6.47-22.25-5.43-26.48-5a5.85,5.85,0,0,1-2.07,0,.5.5,0,0,1,.35-.94,14.69,14.69,0,0,0,1.63-.1c4.32-.4,15.8-1.45,27.08,5.18a.51.51,0,0,1,.18.69A.52.52,0,0,1,308,88.11Z" fill="#231f20"/><path d="M160,173.67l8.51,64.87h30l-10.75-72.18s1.62-2.22,2.83-12.3,1.63-40.71-2.42-41.72c-4.84-1.21-5.44,20.4-5.44,20.4s-.21-11.13-1.21-17.78-4.44-8.27-4.44-8.27c-3.94-.41-1.24,20.72-.85,23.65-.42-3-3.73-25.78-8.62-24.65-5.24,1.2-2.42,24.79-2.42,24.79-2.42-10.68-6.05-26.65-11.89-25.4-3.72.79,4.83,47.77,4.83,47.77s-20.35-10.08-22-5S160,173.67,160,173.67Z" fill="#231f20"/><path d="M177.11,158.59a.51.51,0,0,1-.39-.18c-5.4-6.69-18.36-5.08-18.49-5.06a.5.5,0,0,1-.56-.43.49.49,0,0,1,.43-.56c.55-.08,13.65-1.71,19.4,5.42a.5.5,0,0,1-.07.7A.5.5,0,0,1,177.11,158.59Z" fill="#fff"/><path d="M188.6,136.82a.45.45,0,0,1-.25-.07c-11-6.46-22.25-5.43-26.49-5a5.87,5.87,0,0,1-2.07,0,.5.5,0,0,1,.35-.94,12.33,12.33,0,0,0,1.63-.1c4.33-.4,15.81-1.45,27.08,5.18a.51.51,0,0,1,.18.69A.49.49,0,0,1,188.6,136.82Z" fill="#fff"/><path d="M226.71,186.26l6.39,52.28h34.49l-11.31-59.21c2.69-8.61,5.64-49.19,2.69-53s-7.26,23.11-7.26,23.11-1.34-30.64-5.64-31.17-5.38,30.37-5.38,30.37-2.42-35.48-7.53-34.42-1.88,36.3-1.88,36.3-6.18-27.15-11.55-26.34,3.49,45.37,3.49,45.37c-11.29-7.58-15.59-9.09-19.62-8S225.64,184.94,226.71,186.26Z" fill="#d1d3d4"/><path d="M267.59,239.06H233.1a.54.54,0,0,1-.52-.45l-6.36-52.13c-.4-.41-1.8-1.67-3.39-3.11-12.84-11.6-20.69-19.25-20.13-21.53a1,1,0,0,1,.77-.75c4.24-1.14,8.77.6,19,7.39-1.32-6.84-7.34-39.19-3.95-44a1.67,1.67,0,0,1,1.12-.75c2.54-.39,5.28,3.94,8.36,13.21.88,2.66,1.66,5.34,2.28,7.61-.74-10.72-1.45-29.89,2.77-30.77a1.72,1.72,0,0,1,1.43.36c3.2,2.43,5.15,17.46,6.08,27,.56-8.36,1.81-20.71,4.36-22.88a1.48,1.48,0,0,1,1.2-.4c1.33.16,3.28,2,4.88,16.24.45,4,.76,7.95,1,10.88,1.32-7.33,3.75-18.77,6.14-19.39a1.17,1.17,0,0,1,1.27.52c3.1,3.95.09,44.51-2.56,53.29l11.29,59.1a.5.5,0,0,1-.11.42A.53.53,0,0,1,267.59,239.06Zm-34-1H267l-11.2-58.61a.53.53,0,0,1,0-.25c2.81-9,5.48-49,2.77-52.47-.06-.08-.15-.18-.2-.16-1.61.41-4.38,12-6.14,23a.53.53,0,0,1-.54.44.54.54,0,0,1-.49-.49c-.55-12.55-2.52-30.36-5.19-30.69a.48.48,0,0,0-.4.16c-2.84,2.42-4.14,22.27-4.39,29.71a.52.52,0,0,1-.51.5.48.48,0,0,1-.52-.48c-.58-8.5-2.85-31.13-6.32-33.76a.65.65,0,0,0-.59-.18c-3.39.7-2.7,22.3-1.47,35.74a.53.53,0,0,1-.44.56.53.53,0,0,1-.58-.4c-2.31-10.14-7.24-25.95-10.8-25.95h-.18c-.05,0-.22,0-.43.33-2.87,4.08,2.17,33.45,4.36,44.43a.53.53,0,0,1-.22.53.55.55,0,0,1-.58,0c-10.67-7.17-15.15-9-19.2-7.94-.49,1.31,6.18,8.21,19.79,20.52,2.26,2,3.35,3,3.59,3.32a.56.56,0,0,1,.12.26Z" fill="#231f20"/><path d="M352.46,239H62.75a.5.5,0,0,1-.5-.5.5.5,0,0,1,.5-.5H352.46a.5.5,0,0,1,.5.5A.5.5,0,0,1,352.46,239Z" fill="#231f20"/><rect x="224.67" y="189.09" width="37.23" height="7.79" transform="translate(-22.22 31.92) rotate(-7.18)" fill="#231f20"/><circle cx="245.36" cy="192.72" r="7.87" fill="#68e1fd"/><path d="M245.36,194.73a.48.48,0,0,1-.2,0,.52.52,0,0,1-.29-.38L244,188.7a.5.5,0,0,1,.42-.57.5.5,0,0,1,.57.41l.79,4.85,3.64-2.38a.5.5,0,1,1,.54.83l-4.27,2.81A.57.57,0,0,1,245.36,194.73Z" fill="#fff"/><polygon points="207.9 238.54 198.54 197.34 158.16 197.34 159.98 238.54 207.9 238.54" fill="#68e1fd"/><polygon points="86.61 238.54 83.7 165.36 127.32 167.85 138.95 238.54 86.61 238.54" fill="#fff"/><path d="M139,239H86.61a.5.5,0,0,1-.5-.48L83.2,165.38a.5.5,0,0,1,.15-.37.55.55,0,0,1,.38-.15l43.61,2.5a.49.49,0,0,1,.47.41l11.63,70.69a.54.54,0,0,1-.11.41A.52.52,0,0,1,139,239Zm-51.86-1h51.27l-11.47-69.71-42.66-2.44Z" fill="#231f20"/><path d="M97.41,234.4a.51.51,0,0,1-.5-.46l-5.4-62.12a.5.5,0,0,1,1-.09l5.4,62.12a.5.5,0,0,1-.46.54Z" fill="#d1d3d4"/><path d="M287,187.58l-3.3-14.53s37.59-.83,38,0,2.08,11.81,2.08,11.81Z" fill="#68e1fd"/><polygon points="288.37 238.54 283.7 184.26 325.44 182.7 339.09 238.54 288.37 238.54" fill="#231f20"/><path d="M109.25,234.4a.51.51,0,0,1-.5-.45c-2.41-21-7-61-7.26-62a.49.49,0,0,1,.33-.61.52.52,0,0,1,.64.33c.21.66,6.1,51.95,7.29,62.22a.5.5,0,0,1-.44.55Z" fill="#d1d3d4"/><path d="M120.67,234.4a.5.5,0,0,1-.49-.43l-9.35-61.26a.5.5,0,0,1,1-.15l9.34,61.26a.49.49,0,0,1-.41.57Z" fill="#d1d3d4"/><path d="M130.64,234.4a.5.5,0,0,1-.49-.43c-2.56-16.48-9.33-59.58-9.93-61.12a.49.49,0,0,1,.18-.67.53.53,0,0,1,.7.19c.62,1,7.84,47.3,10,61.45a.49.49,0,0,1-.41.57Z" fill="#d1d3d4"/><path d="M125.65,182.06h0l-37.17-.83a.5.5,0,0,1-.49-.51.48.48,0,0,1,.51-.49l37.18.83a.5.5,0,0,1,.48.51A.49.49,0,0,1,125.65,182.06Z" fill="#d1d3d4"/><path d="M127.11,192.65H87.65a.5.5,0,0,1-.5-.5.5.5,0,0,1,.5-.5h39.46a.5.5,0,0,1,.5.5A.5.5,0,0,1,127.11,192.65Z" fill="#d1d3d4"/><path d="M130.64,204.7h0l-42.16-.94a.49.49,0,0,1-.49-.51.5.5,0,0,1,.51-.49l42.16.94a.49.49,0,0,1,.49.51A.51.51,0,0,1,130.64,204.7Z" fill="#d1d3d4"/><path d="M132.51,217.37h-44a.5.5,0,0,1-.5-.5.5.5,0,0,1,.5-.5h44a.5.5,0,0,1,.5.5A.51.51,0,0,1,132.51,217.37Z" fill="#d1d3d4"/><path d="M133.55,229.83H88.48a.5.5,0,0,1-.5-.5.5.5,0,0,1,.5-.5h45.07a.5.5,0,0,1,.5.5A.51.51,0,0,1,133.55,229.83Z" fill="#d1d3d4"/></g></svg>