<svg xmlns="http://www.w3.org/2000/svg" viewBox="0 0 400 300"><g id="_57_diving" data-name="#57_diving"><path d="M339.7,235.38a.52.52,0,0,1-.41-.21.5.5,0,0,1,.12-.7s1.71-1.22,4.19-3.17c.11-.09,12.88-11,17.5-16.26a.5.5,0,0,1,.75.67c-4.67,5.29-17.49,16.26-17.62,16.37-2.51,2-4.23,3.19-4.24,3.2A.46.46,0,0,1,339.7,235.38Z" fill="#d1d3d4"/><path d="M168.32,186.75c-.73-.42-1.48-.88-2.3-1.41-2.81-1.83-5.32-4.48-8.8-5-.68-.09-1.6.08-1.7.76a1.48,1.48,0,0,0,.6,1.13l3,3-10.77-3c-.65-.18-1.57-.22-1.78.42a1.31,1.31,0,0,0,.42,1.15c4.39,5.44,10.57,7.46,16.36,10.82q7.22,4.19,14.58,8.07c10.52,5.54,22.38,12.36,34.37,13.86L220.2,201q-12-2.82-24-5.83c-5.18-1.3-10.35-2.63-15.51-4-2.15-.59-4.31-1.19-6.45-1.83A26.67,26.67,0,0,1,168.32,186.75Z" fill="#fff"/><path d="M212.3,217.1h-.06c-10.94-1.37-21.86-7.17-31.5-12.29l-3-1.61c-4.8-2.53-9.71-5.25-14.6-8.08-1.5-.88-3.06-1.67-4.57-2.44-4.43-2.27-8.62-4.4-11.93-8.5a1.83,1.83,0,0,1-.5-1.62c.25-.8,1.16-1.08,2.38-.75l9,2.46-1.67-1.65a1.94,1.94,0,0,1-.73-1.56,1.22,1.22,0,0,1,.5-.83,2.49,2.49,0,0,1,1.77-.35c2.66.38,4.76,1.95,6.79,3.47.72.54,1.46,1.1,2.21,1.58s1.6,1,2.27,1.4a26.06,26.06,0,0,0,5.83,2.46c1.85.55,3.84,1.12,6.45,1.83,5.66,1.54,11.25,3,15.5,4,8.2,2.07,16.26,4,24,5.84a.47.47,0,0,1,.34.27.49.49,0,0,1,0,.44l-7.89,15.63A.51.51,0,0,1,212.3,217.1Zm-64.75-34.43c-.26,0-.46.05-.5.18s.07.37.33.69c3.17,3.93,7.27,6,11.61,8.24,1.52.77,3.08,1.57,4.61,2.46,4.88,2.83,9.78,5.54,14.57,8.06l3,1.61c9.46,5,20.17,10.72,30.81,12.15l7.45-14.76c-7.52-1.76-15.38-3.68-23.37-5.69-4.24-1.06-9.85-2.49-15.52-4-2.61-.71-4.61-1.28-6.47-1.83a27.22,27.22,0,0,1-6-2.56h0c-.69-.39-1.43-.84-2.33-1.42s-1.52-1.07-2.26-1.61c-1.93-1.45-3.92-2.94-6.34-3.29a1.51,1.51,0,0,0-1,.16.23.23,0,0,0-.11.17c0,.2.21.47.45.71l3,3a.5.5,0,0,1,.08.6.5.5,0,0,1-.57.23l-10.77-3A2.37,2.37,0,0,0,147.55,182.67Z" fill="#231f20"/><path d="M238.19,228.9c-20.74-2.75-32-13.12-32-13.12s.25-13.12,9.25-15.12H227.7s-31.5-17.75-37.5-19-19.38-5.46-29.74-14.5c-10.14-8.85-65-62.73-65-62.73l14-2.5s39.24,21.74,44.74,25S175,141.42,175,141.42L128.22,75l11.2-3.29s35.34,26,43.06,36,18,21.74,22.47,24.49,75.49,39.74,82.48,42.49,14.5,11,15.5,14.13c.67,2.09-14,24.46-33.44,35.64C259.87,230,245.06,229.81,238.19,228.9Z" fill="#231f20"/><path d="M246.33,229.89a63.41,63.41,0,0,1-8.2-.5h0c-20.66-2.73-32.15-13.14-32.27-13.24a.53.53,0,0,1-.16-.38c0-.55.37-13.54,9.64-15.6h10.45c-6.58-3.67-30.62-17-35.69-18-8-1.67-20.67-6.5-30-14.61-10-8.76-64.46-62.22-65-62.76a.49.49,0,0,1-.12-.5.47.47,0,0,1,.39-.34l14-2.5a.53.53,0,0,1,.33,0c.39.22,39.31,21.79,44.76,25,4.12,2.44,13.78,9.42,18.33,12.73l-45-63.92a.48.48,0,0,1-.06-.45.47.47,0,0,1,.33-.31l11.2-3.29a.53.53,0,0,1,.44.08c1.44,1.06,35.48,26.1,43.16,36s18,21.71,22.33,24.38c5.3,3.23,75.86,39.87,82.41,42.45,7.25,2.85,14.78,11.29,15.78,14.44.82,2.55-14,25-33.66,36.22C262.94,228.77,253.72,229.89,246.33,229.89Zm-8.07-1.48c6.55.86,21.46,1.06,31-4.41,19.06-10.95,33.56-32.95,33.2-35.07-1-3-8.45-11.15-15.2-13.81-6.56-2.57-77.25-39.28-82.56-42.53-4.67-2.85-15-14.76-22.6-24.61-7.29-9.44-39.9-33.59-42.76-35.7L129,75.3l46.34,65.83a.5.5,0,0,1-.7.69c-.15-.11-15.29-11.27-20.7-14.47s-41.87-23.4-44.58-24.9l-12.87,2.3c6.38,6.26,54.88,53.84,64.28,62,9.15,8,21.62,12.74,29.52,14.38,6,1.25,36.34,18.33,37.63,19.05a.49.49,0,0,1,.24.56.5.5,0,0,1-.48.37H215.5c-7.83,1.79-8.7,12.7-8.79,14.42,1.48,1.27,12.57,10.32,31.55,12.84Z" fill="#231f20"/><path d="M201.56,129.69S191,129.43,186,139.48s-1.06,15.61-1.06,15.61,32.24,19.83,41.5,24.86,17,8.34,24.18,5,10.85-10.6,3.26-21.58S201.56,129.69,201.56,129.69Z" fill="#68e1fd"/><path d="M298.15,216.78a1,1,0,0,1-.12-2h0c.32,0,8.08-1.14,9.91-11.7A17.5,17.5,0,0,0,304.2,189c-3-3.69-7.05-6-10.94-6.17a1,1,0,1,1,.09-2c4.45.2,9.09,2.78,12.41,6.91a19.55,19.55,0,0,1,4.16,15.74c-1.1,6.27-4.17,9.56-6.56,11.21a12.46,12.46,0,0,1-5.1,2.13Z" fill="#231f20"/><path d="M299.27,172.64a40.56,40.56,0,0,0-3.62-7.83,37.52,37.52,0,0,0-7.61-9.56c-2.65-2.29-6-4.53-6.34-8-2.34,3.58,2.7,8.73.44,12.36-5-10-9-22.27-17.19-30.24-4-3.9-8-5.59-13.27-6.66-1.47-.31-16.92-3.09-17-2.07l-.6,8.36a20.78,20.78,0,0,1-7.06-5.49A42.86,42.86,0,0,0,229.54,147c2.68,6.54,8.86,9.34,12.81,15.13,3.17,4.66,2.75,9,2.91,14.5a16.34,16.34,0,0,0,1,6.23c1.1,2.49,3.35,4.24,5.51,5.9a5.8,5.8,0,0,1-4.48-.79,45.79,45.79,0,0,0,6.19,10.56c7.13,8.57,17.88,9.68,28,5.83,5.76-2.2,12.16-6.77,15.27-12.26,2-3.58,3.69-7.08,3.82-11.29A23.37,23.37,0,0,0,299.27,172.64Z" fill="#fff"/><path d="M270.69,206.91a22.32,22.32,0,0,1-17.6-8.11,46.48,46.48,0,0,1-6.26-10.67.51.51,0,0,1,.13-.59.53.53,0,0,1,.6,0,5.33,5.33,0,0,0,2.91.86h0A14.86,14.86,0,0,1,245.8,183a17,17,0,0,1-1-6.43c0-.75,0-1.48,0-2.19-.07-4.54-.13-8.13-2.79-12a36.47,36.47,0,0,0-5.66-6.13c-2.75-2.55-5.6-5.19-7.19-9.09a43.47,43.47,0,0,1-2.55-23.73.5.5,0,0,1,.88-.24,20.31,20.31,0,0,0,6.22,5l.55-7.61a.63.63,0,0,1,.25-.45c1.34-1,17.19,2,17.35,2.06,5.86,1.2,9.78,3.17,13.52,6.79,6.22,6,10,14.42,13.62,22.52,1.08,2.4,2.11,4.69,3.19,6.9.37-1.43-.14-3.09-.69-4.84-.71-2.27-1.44-4.62-.14-6.61a.5.5,0,0,1,.92.23c.24,2.77,2.64,4.74,4.95,6.66.41.34.83.68,1.22,1a37.66,37.66,0,0,1,7.71,9.69,41.23,41.23,0,0,1,3.67,7.93,24.19,24.19,0,0,1,1.27,8.28c-.15,4.57-2.08,8.34-3.88,11.52-2.88,5.08-9,10-15.53,12.49A30.65,30.65,0,0,1,270.69,206.91ZM248.33,189a41.92,41.92,0,0,0,5.53,9.17c6.48,7.79,16.47,9.86,27.39,5.69,6.35-2.43,12.24-7.16,15-12,2.16-3.82,3.63-7.16,3.76-11.06a23.49,23.49,0,0,0-1.23-7.94h0a39.6,39.6,0,0,0-3.59-7.74,36.77,36.77,0,0,0-7.49-9.43c-.39-.34-.8-.67-1.21-1-2-1.66-4.06-3.36-4.91-5.64a10.89,10.89,0,0,0,.78,4.3c.7,2.25,1.43,4.58.18,6.58a.44.44,0,0,1-.44.23.51.51,0,0,1-.43-.27c-1.27-2.53-2.44-5.14-3.68-7.9-3.6-8-7.33-16.31-13.41-22.21-4.2-4.07-8.24-5.56-13-6.53-2.84-.59-14.57-2.56-16.42-2.26l-.58,8.09a.51.51,0,0,1-.72.42,21.23,21.23,0,0,1-6.51-4.81A42.5,42.5,0,0,0,230,146.76c1.52,3.69,4.16,6.14,6.95,8.74a37.39,37.39,0,0,1,5.81,6.3c2.83,4.16,2.89,8.06,3,12.59,0,.7,0,1.43,0,2.17a16.09,16.09,0,0,0,1,6.05c1.08,2.43,3.35,4.17,5.35,5.7a.5.5,0,0,1,.18.5.48.48,0,0,1-.37.38A6.32,6.32,0,0,1,248.33,189Z" fill="#231f20"/><path d="M289,221.73l-.23.12c-9.1,4.45-19-2.8-20.78-12-.61-3.16,3.22-5.52,4.69-8a22.26,22.26,0,0,0,3.19-10.46c2.44,1.72,5.69,1.5,8.66,1.21a7.89,7.89,0,0,1-2.59-3.87,12.14,12.14,0,0,0,10.73.65,1.6,1.6,0,0,1,1-.2c2.73.75,2.4,5.51,2.54,7.6a98.9,98.9,0,0,1,.11,11.42C296,213.84,294.26,219,289,221.73Z" fill="#fff"/><path d="M283,223.69a14.14,14.14,0,0,1-6.35-1.54,17.55,17.55,0,0,1-9.2-12.17c-.46-2.39,1.32-4.33,2.89-6a14.93,14.93,0,0,0,1.86-2.28,21.87,21.87,0,0,0,3.12-10.24.5.5,0,0,1,.28-.42.49.49,0,0,1,.51,0c2,1.38,4.5,1.44,7.21,1.22a8.41,8.41,0,0,1-1.91-3.33.51.51,0,0,1,.18-.54.5.5,0,0,1,.56,0,11.61,11.61,0,0,0,10.27.62,2,2,0,0,1,1.32-.22c2.69.73,2.8,4.5,2.87,7,0,.39,0,.75,0,1.05a100.55,100.55,0,0,1,.11,11.48c-.36,6.92-2.84,11.46-7.58,13.89h0l-.22-.45.16.48-.17.08A13.35,13.35,0,0,1,283,223.69Zm-6.73-31.38a22.91,22.91,0,0,1-3.21,9.86,15.83,15.83,0,0,1-2,2.44c-1.48,1.62-3,3.29-2.65,5.18a16.49,16.49,0,0,0,8.67,11.46,12.59,12.59,0,0,0,11.4.15l.16-.08.29.41-.23-.44c4.4-2.25,6.7-6.52,7-13a98.45,98.45,0,0,0-.11-11.36c0-.32,0-.69,0-1.1-.06-2.2-.16-5.52-2.13-6.05a1.16,1.16,0,0,0-.64.16,12.72,12.72,0,0,1-10-.06,7.47,7.47,0,0,0,1.95,2.44.5.5,0,0,1,.17.53.5.5,0,0,1-.43.36C281.55,193.45,278.66,193.59,276.29,192.31Z" fill="#231f20"/><ellipse cx="282.52" cy="203.8" rx="1.07" ry="1.51" transform="matrix(0.95, -0.3, 0.3, 0.95, -48.68, 95.82)" fill="#231f20"/><ellipse cx="292.14" cy="199.18" rx="1.07" ry="1.51" transform="translate(-46.81 98.53) rotate(-17.75)" fill="#231f20"/><path d="M291.87,225a19.39,19.39,0,0,1-5.5-3.21s-2.24-3.77-.68-7.21,6-4,7.31-3.79a31.45,31.45,0,0,1,5.15,2.1Z" fill="#231f20"/><path d="M291.87,225.49a.47.47,0,0,1-.17,0,19.49,19.49,0,0,1-5.67-3.32l-.09-.11c-.09-.16-2.35-4-.7-7.67s6.39-4.28,7.83-4.07a29.44,29.44,0,0,1,5.3,2.15.48.48,0,0,1,.25.29.5.5,0,0,1,0,.38l-6.28,12.11A.5.5,0,0,1,291.87,225.49Zm-5.1-4a17.76,17.76,0,0,0,4.87,2.9l5.83-11.26a26.55,26.55,0,0,0-4.54-1.83c-1.08-.16-5.33.31-6.78,3.51C284.81,217.71,286.51,221,286.77,221.46Z" fill="#231f20"/><path d="M280.23,214.85c-2.05,0-4.35-.14-5-.71-.86-.78-1.67-7-2-9.67a.51.51,0,0,1,.23-.48c2.24-1.43,22-14,24.48-14.2a1.4,1.4,0,0,1,1.1.41c1.07,1,1.5,4.13,1.29,9.46,0,.17,0,.28,0,.33,0,.85-3.94,6.35-5.2,7.61-.42.41-.68.59-1,.57-.79,0-3.51-2.25-5.4-3.89-1.4,4.12-3.72,10.25-5.15,10.44C283.3,214.76,281.84,214.85,280.23,214.85Zm-5.92-10.19c.47,4,1.2,8.24,1.63,8.75.6.51,5.82.55,7.59.31.76-.33,3-5.7,4.57-10.47a.49.49,0,0,1,.35-.32.46.46,0,0,1,.46.11,38.87,38.87,0,0,0,5.27,4.11c.93-.62,5-6.36,5.2-7.23h0a2.4,2.4,0,0,1,0-.3c.25-6.5-.51-8.24-1-8.7a.43.43,0,0,0-.34-.13C296.38,190.92,283,199.09,274.31,204.66Zm19.8,2.52Z" fill="#231f20"/><path d="M284.56,213.64a13.84,13.84,0,0,0,6.11.58c3.06-.51,4.81-1.91,5.12-2.93s-1.18-3.76-1.18-3.76c-.12-.22-.6-.45-.8-.6l-1.85-1.4c-.39-.29-2.95-2.6-3.36-2.22a.74.74,0,0,0-.2.38A105.27,105.27,0,0,1,284.56,213.64Z" fill="#231f20"/><path d="M289,214.85a14.79,14.79,0,0,1-4.56-.75.46.46,0,0,1-.29-.27.44.44,0,0,1,0-.39l.08-.19a96.93,96.93,0,0,0,3.74-9.71,1.28,1.28,0,0,1,.34-.6c.53-.48,1.31-.07,3.63,1.89l.37.3,1.85,1.4.2.13a2,2,0,0,1,.73.63c.38.69,1.57,3,1.23,4.15s-2.25,2.73-5.52,3.27A11.17,11.17,0,0,1,289,214.85Zm-3.72-1.53a13.16,13.16,0,0,0,5.36.41c3-.5,4.5-1.85,4.73-2.59.15-.5-.46-2.11-1.15-3.37a3,3,0,0,0-.38-.26l-.28-.18-1.85-1.4-.41-.34a15.05,15.05,0,0,0-2.37-1.77v0A95.81,95.81,0,0,1,285.23,213.32Z" fill="#231f20"/><path d="M294.89,212.28a7.79,7.79,0,0,0-3.62,2.51,9.16,9.16,0,0,0-2.48,4.86,4.85,4.85,0,0,0,2.09,4.79,4.62,4.62,0,0,0,4,.2A7.4,7.4,0,0,0,298,222.1a8.66,8.66,0,0,0,1.8-4.29C300.16,214.78,298.39,211.35,294.89,212.28Z" fill="#231f20"/><path d="M293,225.49a4.76,4.76,0,0,1-2.39-.62,5.36,5.36,0,0,1-2.33-5.29,9.63,9.63,0,0,1,2.61-5.12,8.14,8.14,0,0,1,3.86-2.66h0a4,4,0,0,1,3.77.75,6.24,6.24,0,0,1,1.8,5.31,9.16,9.16,0,0,1-1.9,4.54,7.89,7.89,0,0,1-3.39,2.71A5.61,5.61,0,0,1,293,225.49Zm2-12.73a7.3,7.3,0,0,0-3.38,2.36,8.71,8.71,0,0,0-2.36,4.59,4.38,4.38,0,0,0,1.85,4.3,4.13,4.13,0,0,0,3.55.17,7.11,7.11,0,0,0,3-2.38,8.29,8.29,0,0,0,1.7-4,5.3,5.3,0,0,0-1.45-4.45,3,3,0,0,0-2.87-.55Z" fill="#231f20"/><polygon points="273.78 204.41 264.69 200.66 264.69 202.71 269.44 204.07 274.3 208.26 273.78 204.41" fill="#231f20"/><path d="M274.3,208.76a.51.51,0,0,1-.33-.13l-4.77-4.11-4.65-1.33a.5.5,0,0,1-.36-.48v-2.05a.49.49,0,0,1,.69-.46L274,204a.5.5,0,0,1,.3.39l.52,3.85a.49.49,0,0,1-.26.51A.46.46,0,0,1,274.3,208.76Zm-9.11-6.42,4.39,1.25a.49.49,0,0,1,.18.11l3.87,3.33-.3-2.27-8.14-3.36Z" fill="#231f20"/><path d="M272.71,208.08l-.87-1.26a13.28,13.28,0,0,0-1.35-1.72,10.41,10.41,0,0,0-3.27-2.06c-2.32-1-4.08.49-4.35,2.85a6.09,6.09,0,0,0,9.18,5.92" fill="#fff"/><path d="M268.93,213.15a6.57,6.57,0,0,1-3.58-1,6.72,6.72,0,0,1-3-6.29,4.15,4.15,0,0,1,1.87-3.21,3.48,3.48,0,0,1,3.18,0,10.92,10.92,0,0,1,3.42,2.17,12.45,12.45,0,0,1,1.41,1.79l.87,1.25a.5.5,0,1,1-.82.57l-.87-1.25a12.35,12.35,0,0,0-1.3-1.66,10.08,10.08,0,0,0-3.11-2,2.47,2.47,0,0,0-2.28,0,3.13,3.13,0,0,0-1.38,2.46,5.6,5.6,0,0,0,8.44,5.43.5.5,0,0,1,.51.86A6.59,6.59,0,0,1,268.93,213.15Z" fill="#231f20"/><path d="M288.62,215.17c-.81,0-1.6,0-2.36-.12a.5.5,0,0,1,.09-1,16,16,0,0,0,5-.17,6.36,6.36,0,0,0,4-2.56.5.5,0,1,1,.83.54,7.36,7.36,0,0,1-4.56,3A13.09,13.09,0,0,1,288.62,215.17Z" fill="#fff"/><path d="M291.42,224.93a.43.43,0,0,1-.25-.07,4.94,4.94,0,0,1-2.18-3,8.2,8.2,0,0,1-.12-3.56,4.62,4.62,0,0,1,1.45-3,.5.5,0,0,1,.62.78,3.52,3.52,0,0,0-1.08,2.33,7.07,7.07,0,0,0,.09,3.14,3.91,3.91,0,0,0,1.72,2.36.5.5,0,0,1-.25.93Z" fill="#fff"/><path d="M296.93,214.36l3.61-1.71s2.81,1.75,1.56,4l-4,1.91Z" fill="#231f20"/><path d="M298.15,219.06a.54.54,0,0,1-.21-.05.49.49,0,0,1-.27-.31l-1.22-4.21a.5.5,0,0,1,.27-.58l3.6-1.71a.51.51,0,0,1,.48,0c1.11.69,2.9,2.56,1.73,4.66a.45.45,0,0,1-.22.21L298.36,219A.54.54,0,0,1,298.15,219.06Zm-.62-4.44.93,3.23,3.27-1.57c.68-1.44-.69-2.64-1.24-3.05Z" fill="#231f20"/><path d="M299.83,218.31l-.11,0a.5.5,0,0,1-.37-.6c.41-1.68-.91-4.3-.92-4.33a.5.5,0,0,1,.21-.67.5.5,0,0,1,.67.22c.06.12,1.5,3,1,5A.5.5,0,0,1,299.83,218.31Z" fill="#fff"/><path d="M213.2,134.86a1.94,1.94,0,0,0-2.58-.67,30.32,30.32,0,0,0-14,13.12c-3.08,5.66-5.37,13.85-1.88,19.8,1.22,2.09,4.47.2,3.25-1.89-1.55-2.63-1.36-5.85-.77-8.74a26.16,26.16,0,0,1,3-7.87,27,27,0,0,1,12.34-11.18A1.89,1.89,0,0,0,213.2,134.86Z" fill="#231f20"/><path d="M100.69,107.76s8.58,7.11,14.62.64,2-9.14-3.63-10.64l-36.49-35s-3.5,8-6.33,8.33-13.5,0-13.83,1.5a41.46,41.46,0,0,0,0,6.5s-15.16,6.16-14,7.16S100.69,107.76,100.69,107.76Z" fill="#68e1fd"/><path d="M144.63,69.1c.5,0,6,1.17,6.67,6.33S147.36,86,139.46,82.76s-9.16-6.34-9.16-6.34L79.64,41.94l14.17-2.33s2-9,2.5-9.17,12.49,3,12.49,3l6.7-10.16Z" fill="#68e1fd"/><path d="M85.89,98.84a.63.63,0,0,1-.19,0L50,84.21a.5.5,0,0,1-.27-.65.49.49,0,0,1,.65-.27L85.9,97.81a3.67,3.67,0,0,0,2-1.64c.11-.27-.16-.77-.42-1.25-.58-1.08-1.45-2.72.59-4.27a6.12,6.12,0,0,1,4.32-1.25,2.68,2.68,0,0,0,1.68-.29c.91-.68,2.08-1.65,2.7-2.18L76.06,68.73A.51.51,0,0,1,76,68a.49.49,0,0,1,.7,0l21.17,18.6a.48.48,0,0,1,.17.37.49.49,0,0,1-.18.38S96,88.91,94.69,89.91a3.41,3.41,0,0,1-2.3.49,5.15,5.15,0,0,0-3.69,1c-1.3,1-1,1.79-.32,3a2.55,2.55,0,0,1,.48,2.07c-.58,1.54-2.72,2.27-2.81,2.3Z" fill="#231f20"/><path d="M117.39,65a.52.52,0,0,1-.29-.09L86.78,44.27a.5.5,0,0,1,.56-.83l30.08,20.5a6.57,6.57,0,0,0,2.37-2.18,7.07,7.07,0,0,0,.63-2c.34-1.58.77-3.55,2.74-4.53,1.81-.9,3.32-.15,4.53.46.69.35,1.29.65,1.7.51a5.34,5.34,0,0,0,1.65-.86l-16-25.06a.5.5,0,1,1,.84-.53l16.19,25.4a.51.51,0,0,1,0,.59,5.55,5.55,0,0,1-2.36,1.41,3.3,3.3,0,0,1-2.47-.57c-1.12-.56-2.27-1.13-3.63-.46-1.55.78-1.89,2.34-2.22,3.85a7.67,7.67,0,0,1-.74,2.3A7.6,7.6,0,0,1,117.59,65,.46.46,0,0,1,117.39,65Z" fill="#231f20"/><path d="M249,224.14c-10.53,0-22.08-3.06-29.19-5.73-2-.75-8.5-3.32-9.07-5.12a.5.5,0,0,1,.32-.63.49.49,0,0,1,.62.33c.19.57,2.65,2.3,8.48,4.48,11,4.13,32.68,9.23,44.28,2.21a.5.5,0,0,1,.52.85C260.63,223.15,255,224.14,249,224.14Z" fill="#fff"/><path d="M177.2,173.48a.48.48,0,0,1-.47-.33c-.42-1.27,1.06-12.55,4.48-15.52a.5.5,0,1,1,.66.75c-3.13,2.72-4.45,13.5-4.19,14.46a.51.51,0,0,1-.33.62A.39.39,0,0,1,177.2,173.48Z" fill="#fff"/><path d="M163.54,162.5a.54.54,0,0,1-.21-.05c-13.92-6.59-49.94-44.49-51.47-46.1a.49.49,0,0,1,0-.7.5.5,0,0,1,.7,0c.37.4,37.42,39.38,51.18,45.89a.5.5,0,0,1-.22.95Z" fill="#fff"/><path d="M177.16,132.5a.54.54,0,0,1-.32-.11c-5.7-4.66-31.92-41.84-33-43.42a.5.5,0,1,1,.81-.58c.27.39,27.25,38.66,32.85,43.23a.5.5,0,0,1-.31.88Z" fill="#fff"/><path d="M301.41,144.86a5,5,0,1,1,5-5A5,5,0,0,1,301.41,144.86Zm0-9a4,4,0,1,0,4,4A4,4,0,0,0,301.41,135.82Z" fill="#d1d3d4"/><path d="M301.32,142.92a.5.5,0,0,1-.47-.35.49.49,0,0,1,.32-.63,2.16,2.16,0,0,0,1.26-1.19,2.21,2.21,0,0,0,.09-1.74.5.5,0,1,1,.92-.38,3.32,3.32,0,0,1-2,4.26A.41.41,0,0,1,301.32,142.92Z" fill="#d1d3d4"/><path d="M241.56,96.77a8.09,8.09,0,1,1,8.09-8.09A8.09,8.09,0,0,1,241.56,96.77Zm0-15.18a7.09,7.09,0,1,0,7.09,7.09A7.09,7.09,0,0,0,241.56,81.59Z" fill="#d1d3d4"/><path d="M236.58,90.31a.54.54,0,0,1-.21,0,1,1,0,0,1-.47-1.19,6.85,6.85,0,0,1,6.76-5.7h0a1.19,1.19,0,0,1,1.14.55.5.5,0,0,1-.87.49,2.63,2.63,0,0,1-.28,0,6,6,0,0,0-3.77,1.38,5.9,5.9,0,0,0-2,3.49,1.1,1.1,0,0,0,0,.16A.5.5,0,0,1,237,90,.49.49,0,0,1,236.58,90.31Z" fill="#d1d3d4"/><path d="M254.1,48.69A6.71,6.71,0,1,1,260.81,42,6.72,6.72,0,0,1,254.1,48.69Zm0-12.41a5.71,5.71,0,1,0,5.71,5.7A5.71,5.71,0,0,0,254.1,36.28Z" fill="#d1d3d4"/><path d="M249.48,43.78a.5.5,0,0,1-.48-.37,4.58,4.58,0,0,1,4.18-5.56h0a.51.51,0,0,1,.5.5.5.5,0,0,1-.5.5,3.37,3.37,0,0,0-2.59,1.42,3.34,3.34,0,0,0-.64,2.87.5.5,0,0,1-.35.62Z" fill="#d1d3d4"/><path d="M290.37,82.06a16,16,0,0,1,4.19,11c.11,7.19-.4,7.68-1.25,8.16s-9.39.88-13.73-2-5.29-4.75-4.78-5.07S281.58,91,281.58,91s-5.49-.67-5.6-2.67,3.86.26,4.74-1.71,2-6.24,2.86-5.9,2,6.64,2,6.64Z" fill="#fff"/><path d="M289.9,102.05c-3.23,0-7.79-.57-10.6-2.44-3.22-2.15-5.14-4.1-5.12-5.24a.76.76,0,0,1,.36-.67c.38-.24,3.43-1.63,5.34-2.5-1.8-.39-4.31-1.23-4.4-2.87a1.26,1.26,0,0,1,.35-1,2.81,2.81,0,0,1,2.17-.37c1.19.07,2,.08,2.27-.55s.53-1.33.83-2.14c.91-2.51,1.41-3.72,2.07-4a.76.76,0,0,1,.61,0c.64.27,1.36,2.3,2.13,6L290,81.72a.53.53,0,0,1,.35-.17.6.6,0,0,1,.37.14c.17.16,4.22,4,4.34,11.35s-.41,8-1.51,8.59A10.46,10.46,0,0,1,289.9,102.05Zm-14.71-7.57c.12.43,1.07,1.9,4.67,4.3,4.26,2.84,12.5,2.33,13.21,2s1.1-.62,1-7.71a16.2,16.2,0,0,0-3.68-10.26L286,87.68a.47.47,0,0,1-.5.14.5.5,0,0,1-.36-.38,31.28,31.28,0,0,0-1.68-6.15,18.56,18.56,0,0,0-1.41,3.3c-.31.83-.59,1.61-.86,2.21-.59,1.31-2.12,1.21-3.24,1.14-.52,0-1.24-.09-1.41.08s0,.19,0,.26c.06,1.09,3,2,5.16,2.21a.49.49,0,0,1,.44.42.51.51,0,0,1-.29.53C279.54,92.45,276,94.08,275.19,94.48Z" fill="#d1d3d4"/><path d="M290.75,93.67a1.26,1.26,0,0,0-.65,2.44A1.26,1.26,0,0,0,290.75,93.67Z" fill="#d1d3d4"/><path d="M62.56,131.1A12.72,12.72,0,0,1,68,138.68c1.56,5.5,1.26,6,.71,6.52s-7,2.6-11,1.27-5-2.57-4.71-2.92,4.57-3.8,4.57-3.8-4.36.61-4.85-.91,3-.59,3.29-2.28.3-5.21,1-5.11S60,136.13,60,136.13Z" fill="#fff"/><path d="M60.88,147.4a10.28,10.28,0,0,1-3.26-.46c-2.95-1-4.85-2.14-5.08-3.05a.74.74,0,0,1,.17-.69c.23-.24,2-1.75,3.37-2.82-1.47,0-3.37-.17-3.77-1.38a1.12,1.12,0,0,1,.07-.94c.3-.51,1-.64,1.66-.78.89-.18,1.47-.33,1.55-.8s.13-1.13.2-1.81c.19-2.19.33-3.19.81-3.57a.71.71,0,0,1,.54-.15c.22,0,.86.12,2.86,4.07l2.12-4.15a.48.48,0,0,1,.29-.25.48.48,0,0,1,.39,0,13.14,13.14,0,0,1,5.7,7.88c1.54,5.43,1.38,6.23.57,7C68.5,146.12,64.52,147.4,60.88,147.4Zm-7.3-3.65c.27.34,1.37,1.23,4.36,2.24,3.78,1.28,9.94-.75,10.45-1.16.34-.33.67-.65-.85-6a12.66,12.66,0,0,0-4.78-7l-2.32,4.54a.5.5,0,0,1-.45.27h0a.51.51,0,0,1-.45-.28,28.56,28.56,0,0,0-2.41-4.23,19.74,19.74,0,0,0-.35,2.64c-.06.7-.12,1.36-.21,1.88-.19,1.19-1.43,1.44-2.33,1.62a2.83,2.83,0,0,0-1,.3h0a.69.69,0,0,0,0,.13c.24.73,2.65.8,4.31.57a.5.5,0,0,1,.52.29.49.49,0,0,1-.14.59C56.49,141.32,54.2,143.21,53.58,143.75Z" fill="#d1d3d4"/><path d="M65.17,139.84a1,1,0,0,0,0,2A1,1,0,0,0,65.17,139.84Z" fill="#d1d3d4"/><path d="M114.52,157.53s4.83,4.06,5.39,12.19,0,8.72-.93,9.31-10.57,1.56-15.66-1.46-6.27-5.07-5.71-5.46,7.49-4,7.49-4-6.26-.43-6.5-2.7,4.38.07,5.27-2.21,1.95-7.19,2.88-6.85,2.7,7.4,2.7,7.4Z" fill="#fff"/><path d="M113.27,180.16c-3.36,0-7.4-.49-10.2-2.16-3.71-2.19-6-4.33-6.08-5.57a.81.81,0,0,1,.34-.73c.42-.29,4-2.15,6.08-3.23-2-.32-5.11-1.1-5.31-3a1.36,1.36,0,0,1,.32-1.12c.5-.55,1.42-.54,2.39-.53,1.33,0,2.3,0,2.59-.79s.53-1.55.82-2.49c.8-2.61,1.33-4.24,2.08-4.61a.75.75,0,0,1,.62,0c.89.32,2,3.67,2.77,6.78l4.45-5.49a.49.49,0,0,1,.34-.19.57.57,0,0,1,.37.12c.2.17,5,4.29,5.56,12.54s0,9-1.16,9.76A18.18,18.18,0,0,1,113.27,180.16ZM98,172.46c.11.44,1.19,2.08,5.59,4.68,5,3,14.4,1.9,15.13,1.46s1.25-.79.7-8.84a18.24,18.24,0,0,0-4.84-11.49l-4.73,5.84a.49.49,0,0,1-.87-.19c-.73-2.91-1.78-6.24-2.33-7a19.45,19.45,0,0,0-1.47,3.92c-.29,1-.57,1.86-.84,2.55-.56,1.46-2.21,1.45-3.53,1.43-.64,0-1.44,0-1.65.2a.49.49,0,0,0-.05.35c.13,1.27,3.61,2.08,6,2.25a.5.5,0,0,1,.46.4.48.48,0,0,1-.26.54C102.7,170,98.74,172,98,172.46Z" fill="#d1d3d4"/><path d="M115.59,170.5a1.43,1.43,0,0,0-.59,2.8A1.43,1.43,0,0,0,115.59,170.5Z" fill="#d1d3d4"/><path d="M325.29,244.64a.48.48,0,0,1-.42-.23.49.49,0,0,1,.16-.69c3.88-2.43,7.72-5,11.4-7.74a.5.5,0,0,1,.7.1.51.51,0,0,1-.11.7c-3.7,2.73-7.56,5.35-11.46,7.79A.54.54,0,0,1,325.29,244.64Z" fill="#d1d3d4"/><path d="M318.31,248.78a.49.49,0,0,1-.43-.26.5.5,0,0,1,.19-.68c1.27-.71,2.53-1.44,3.78-2.18a.48.48,0,0,1,.68.17.5.5,0,0,1-.17.69c-1.26.74-2.53,1.48-3.8,2.19A.45.45,0,0,1,318.31,248.78Z" fill="#d1d3d4"/><path d="M74.44,238.88a.51.51,0,0,1-.5-.44.5.5,0,0,1,.44-.56,109.6,109.6,0,0,1,16.51-.8.5.5,0,0,1,.49.52.49.49,0,0,1-.51.48,109.07,109.07,0,0,0-16.37.79Z" fill="#d1d3d4"/><path d="M108.87,239.8h-.15a.46.46,0,0,1-.46-.5.58.58,0,0,1,.7-.48.46.46,0,0,1,.45.5A.52.52,0,0,1,108.87,239.8Z" fill="#d1d3d4"/><path d="M234.74,271.16A154.6,154.6,0,0,1,206,268.5c-16.26-3.08-32.06-8.71-47.33-14.17-11.81-4.21-24-8.57-36.36-11.71-3.27-.83-6.56-1.56-9.8-2.16a.51.51,0,0,1-.4-.59.49.49,0,0,1,.58-.4c3.26.61,6.58,1.34,9.86,2.18,12.39,3.16,24.62,7.52,36.45,11.74,15.24,5.44,31,11.07,47.18,14.12,35.88,6.8,74.49.43,108.71-17.94a.51.51,0,0,1,.48.89A171.36,171.36,0,0,1,234.74,271.16Z" fill="#d1d3d4"/><path d="M103.2,239h-.06c-2.47-.29-5-.53-7.5-.69a.5.5,0,1,1,.06-1c2.52.16,5.07.39,7.56.69a.5.5,0,0,1,.44.55A.51.51,0,0,1,103.2,239Z" fill="#d1d3d4"/><path d="M65.81,240.42a.5.5,0,0,1-.11-1c.79-.18,1.59-.35,2.39-.51a.49.49,0,0,1,.59.39.51.51,0,0,1-.39.59c-.8.15-1.58.32-2.37.5Z" fill="#d1d3d4"/><path d="M55.31,243.63a.49.49,0,0,1-.46-.32.51.51,0,0,1,.28-.65c1.23-.47,2.49-.93,3.77-1.34a.49.49,0,0,1,.63.32.49.49,0,0,1-.32.63c-1.26.41-2.51.86-3.71,1.32A.41.41,0,0,1,55.31,243.63Z" fill="#d1d3d4"/><path d="M38.53,253.15a.48.48,0,0,1-.39-.19.5.5,0,0,1,.08-.7,63.62,63.62,0,0,1,10.46-6.71.49.49,0,0,1,.67.22.5.5,0,0,1-.21.67,62.3,62.3,0,0,0-10.3,6.6A.45.45,0,0,1,38.53,253.15Z" fill="#d1d3d4"/><path d="M78.3,255a.51.51,0,0,1-.37-.17,62.66,62.66,0,0,1-10-14.8c-1.35-2.79-3.1-7-2.71-11.2a34.85,34.85,0,0,0,0-9.73c-.94-5.41-3.17-10.56-5.32-15.55-.74-1.71-1.51-3.49-2.21-5.24a4.77,4.77,0,0,1-.47-2.89,2.29,2.29,0,0,1,1.23-1.52,1.68,1.68,0,0,1,1.45,0,2.51,2.51,0,0,1,.93.87,39.09,39.09,0,0,1,7.74,23.73c1.36-1.59,2.47-3.29,2.4-5.17a9.48,9.48,0,0,0-.77-2.94l-.11-.31a46.36,46.36,0,0,1-2.69-11.38c-.27-2.53-.4-6.21,1.56-8.94a3.12,3.12,0,0,1,1.45-1.2A2.7,2.7,0,0,1,73.53,190a6.8,6.8,0,0,1,.5,3.24l-.13,11.65a4.46,4.46,0,0,0,.92,3,1,1,0,0,0,.79.24c.93-.12,1.32-1.45,1.44-2,.69-3.09.26-6.2-.2-9.5a41.37,41.37,0,0,1-.56-7c.06-1.65.57-2.73,1.52-3.18a2.08,2.08,0,0,1,1.79,0A5.23,5.23,0,0,1,82,189.78,26.88,26.88,0,0,1,79.49,210a58.8,58.8,0,0,1-3.37,5.08c-2.71,3.79-5.27,7.37-5.43,11.72s2.34,8.56,4.7,12.1c3.24,4.86,6.75,9.62,10.44,14.14a.5.5,0,1,1-.78.64c-3.7-4.56-7.24-9.34-10.49-14.22-2.45-3.67-5-8-4.87-12.7s2.94-8.52,5.62-12.26a58.92,58.92,0,0,0,3.3-5A25.83,25.83,0,0,0,81,190.05a4.25,4.25,0,0,0-1.81-2.59,1.06,1.06,0,0,0-1,0c-.58.27-.9,1-.95,2.31a39.67,39.67,0,0,0,.55,6.78c.45,3.24.91,6.59.19,9.86-.36,1.62-1.19,2.64-2.29,2.78a1.94,1.94,0,0,1-1.59-.49,5.32,5.32,0,0,1-1.25-3.78L73,193.27a6.06,6.06,0,0,0-.39-2.78,1.73,1.73,0,0,0-1.91-1,2.09,2.09,0,0,0-1,.85c-1.74,2.41-1.65,5.68-1.37,8.25A45.22,45.22,0,0,0,71,209.69l.12.3a10.37,10.37,0,0,1,.83,3.26c.1,2.67-1.71,4.88-3.57,6.92a.51.51,0,0,1-.56.12.5.5,0,0,1-.31-.49A38.11,38.11,0,0,0,60,195.33a1.92,1.92,0,0,0-.57-.57.7.7,0,0,0-.59,0,1.33,1.33,0,0,0-.69.85,4,4,0,0,0,.43,2.28c.69,1.75,1.46,3.52,2.2,5.23,2.17,5,4.42,10.24,5.39,15.77a36,36,0,0,1,0,10c-.38,4,1.31,8,2.61,10.67a61.72,61.72,0,0,0,9.84,14.57.5.5,0,0,1,0,.71A.55.55,0,0,1,78.3,255Z" fill="#d1d3d4"/><path d="M93.9,253.54a.5.5,0,0,1-.5-.47,13.73,13.73,0,0,1,.87-4.84c.14-.44.28-.89.4-1.33a22.13,22.13,0,0,0-3.15-18.31l-.17-.24c-.76-1.08-1.62-2.32-1.47-3.76a4.84,4.84,0,0,1,.83-2A30.36,30.36,0,0,1,94,218.49a26,26,0,0,0,3.51-4.4c1.8-3.1,2.22-6.84,2.47-10.1a5.15,5.15,0,0,0-.19-2.42,1.52,1.52,0,0,0-1.54-1q-1.08.24-1.29,2.64c-.42,4.89-1.28,9.85-4.67,13.09-.49.46-1,.88-1.54,1.29a10.52,10.52,0,0,0-2.39,2.31.5.5,0,0,1-.92-.27c-.17-6.14,1.2-12.23,2.52-18.13l.37-1.62a6.57,6.57,0,0,0,.12-3.63,2.36,2.36,0,0,0-1.31-1.32,1.33,1.33,0,0,0-1.12,0,3.14,3.14,0,0,0-1.18,2.17,116.52,116.52,0,0,0-3.4,17.78c-.27,3.25-.37,8,1.94,11.65a22.74,22.74,0,0,0,1.79,2.35c.51.61,1,1.24,1.51,1.91,4.6,6.53,3,15.25,0,21.23a.5.5,0,1,1-.89-.45c2.87-5.72,4.4-14,.06-20.21-.45-.63-1-1.25-1.47-1.84a24.32,24.32,0,0,1-1.87-2.45c-2.47-3.91-2.37-8.88-2.09-12.27a117.68,117.68,0,0,1,3.43-17.94A4,4,0,0,1,87.59,194a2.32,2.32,0,0,1,2-.08,3.37,3.37,0,0,1,1.89,1.92,7.5,7.5,0,0,1-.09,4.19L91,201.69c-1.21,5.4-2.46,11-2.51,16.54a18,18,0,0,1,1.7-1.46c.5-.39,1-.8,1.47-1.23,3.15-3,4-7.76,4.36-12.45.18-2.08.88-3.27,2.08-3.52a2.49,2.49,0,0,1,2.67,1.61,6.15,6.15,0,0,1,.27,2.89c-.26,3.37-.7,7.24-2.6,10.52a28,28,0,0,1-3.64,4.58,29.51,29.51,0,0,0-3.23,3.92,4,4,0,0,0-.68,1.61c-.11,1.07.61,2.09,1.3,3.08l.17.24a23.12,23.12,0,0,1,3.29,19.14c-.12.46-.26.91-.4,1.37A12.79,12.79,0,0,0,94.4,253a.49.49,0,0,1-.47.53Z" fill="#d1d3d4"/><path d="M107.83,258a.51.51,0,0,1-.5-.5c-.06-4.43,1-9.05,3.58-15a43.39,43.39,0,0,1,7.43-12.32c.35-.39.71-.77,1.08-1.15a19.86,19.86,0,0,0,2.77-3.38,5.6,5.6,0,0,0,.61-5.29.86.86,0,0,0-.32-.41c-.24-.11-.63.13-1.07.65l-6.5,7.78a22.69,22.69,0,0,0-5.6,11.16.5.5,0,0,1-1-.07l-.87-6a7.55,7.55,0,0,1,2.22-7.31l.27-.35a41.93,41.93,0,0,0,5-8.29c.93-2.07,1.92-4.78,1.33-7.36a2.83,2.83,0,0,0-1.06-1.68,1,1,0,0,0-.72-.14,1.86,1.86,0,0,0-1,1,14.64,14.64,0,0,0-1.52,5.24,27.61,27.61,0,0,1-.68,3.35c-1,3.42-3.33,6.31-5.37,8.86a.52.52,0,0,1-.48.18.51.51,0,0,1-.38-.33c-1-3-.67-6.61,1.12-10.79.52-1.22,1.12-2.42,1.7-3.58a38.46,38.46,0,0,0,2.64-6.16c.28-.92.46-2.14-.22-2.75a1.78,1.78,0,0,0-2.14.13,5.82,5.82,0,0,0-1.56,2.25c-4.14,8.76-5.72,16.92-4.68,24.25a60,60,0,0,0,1.25,6c.42,1.71.85,3.49,1.14,5.26.78,4.67.33,8.55-1.32,11.53a.51.51,0,0,1-.68.2.5.5,0,0,1-.19-.68c1.54-2.78,1.94-6.44,1.21-10.88-.29-1.74-.72-3.5-1.13-5.19a60.27,60.27,0,0,1-1.27-6.06c-1.07-7.53.54-15.88,4.77-24.81a6.52,6.52,0,0,1,1.85-2.63,2.76,2.76,0,0,1,3.41-.07c.85.75,1,2.06.52,3.78a40.72,40.72,0,0,1-2.7,6.32c-.58,1.15-1.17,2.33-1.68,3.53-1.5,3.51-2,6.59-1.36,9.16a24,24,0,0,0,4.59-7.76,28.87,28.87,0,0,0,.66-3.23,15.8,15.8,0,0,1,1.64-5.59,2.76,2.76,0,0,1,1.67-1.44,1.91,1.91,0,0,1,1.48.26,3.72,3.72,0,0,1,1.5,2.31c.66,2.87-.4,5.78-1.39,8a42.71,42.71,0,0,1-5.08,8.49l-.27.35a6.57,6.57,0,0,0-2,6.55l.54,3.71a24.34,24.34,0,0,1,2.49-5.83,30.42,30.42,0,0,1,2.64-3.49l6.52-7.78c1-1.17,1.77-1.15,2.25-.92a1.75,1.75,0,0,1,.79.87,6.55,6.55,0,0,1-.64,6.25,20.93,20.93,0,0,1-2.91,3.56c-.36.37-.71.75-1.06,1.13a42.45,42.45,0,0,0-7.25,12c-2.48,5.79-3.56,10.28-3.5,14.57a.5.5,0,0,1-.49.51Z" fill="#d1d3d4"/><path d="M62.63,260.57h0a.5.5,0,0,1-.49-.5,12.07,12.07,0,0,0-4.71-9.64,24.23,24.23,0,0,0-5.4-2.81c-1.19-.5-2.42-1-3.58-1.64-3-1.59-6-4.62-5.71-8.31a2.83,2.83,0,0,1,.41-1.35,2.68,2.68,0,0,1,3.3-.77,7,7,0,0,1,2.27,1.8l.19.19a29.57,29.57,0,0,0,10.56,7A25.3,25.3,0,0,0,48,229.68l-1.2-.68c-2.43-1.35-5-2.75-5.84-5.4a4.26,4.26,0,0,1,.45-3.54,2.5,2.5,0,0,1,2-1.15c1.6-.1,2.72,1.31,3.61,2.43a22.24,22.24,0,0,0,7.54,6.16,114,114,0,0,1-5.66-20.85c-.34-2-.61-4.14.18-6.06a2.82,2.82,0,0,1,2.56-2c1.14.08,2,1.08,2.48,2.95l7,26a47.13,47.13,0,0,0,2.28,7c.51,1.16,1.14,2.31,1.74,3.41.5.93,1,1.88,1.48,2.85a30,30,0,0,1,2.66,16.22.5.5,0,0,1-1-.12,29.15,29.15,0,0,0-2.57-15.67c-.45-.95-1-1.89-1.46-2.8-.61-1.12-1.24-2.29-1.77-3.49a48,48,0,0,1-2.33-7.17l-7-26c-.38-1.42-.92-2.16-1.6-2.21s-1.27.64-1.56,1.36c-.69,1.68-.43,3.64-.11,5.51a113.16,113.16,0,0,0,6,21.82.48.48,0,0,1-.12.54.49.49,0,0,1-.54.1,23.27,23.27,0,0,1-9-7c-.8-1-1.67-2.09-2.78-2.08a1.55,1.55,0,0,0-1.18.72,3.22,3.22,0,0,0-.33,2.66c.76,2.29,3.11,3.59,5.38,4.85.41.23.82.45,1.22.69a26.27,26.27,0,0,1,12.14,16.4.52.52,0,0,1-.15.49.51.51,0,0,1-.5.1,30.55,30.55,0,0,1-11.84-7.58L48,238a6.17,6.17,0,0,0-1.94-1.57,1.74,1.74,0,0,0-2.07.39,1.85,1.85,0,0,0-.25.89c-.29,3.22,2.49,5.91,5.19,7.35,1.11.6,2.32,1.11,3.49,1.6A24.88,24.88,0,0,1,58,249.63a13.11,13.11,0,0,1,5.1,10.45A.5.5,0,0,1,62.63,260.57Z" fill="#d1d3d4"/><path d="M332.37,253.63a.5.5,0,0,1-.34-.13.49.49,0,0,1,0-.7,34.29,34.29,0,0,0,5.46-8.08,11.56,11.56,0,0,0,1.43-5.84,20.49,20.49,0,0,1,0-5.64,40.21,40.21,0,0,1,3-8.85c.42-1,.83-1.94,1.22-2.91a2,2,0,0,0,.23-1.14.54.54,0,0,0-.26-.33.14.14,0,0,0-.14,0c-.08,0-.17.16-.24.25a21.06,21.06,0,0,0-4.14,13.51.51.51,0,0,1-.3.49.52.52,0,0,1-.57-.12c-1.06-1.17-2.11-2.44-2.05-4a5.91,5.91,0,0,1,.48-1.89l.06-.17a24.58,24.58,0,0,0,1.46-6.16,6.47,6.47,0,0,0-.73-4.45.93.93,0,0,0-.43-.39c-.28-.1-.64.16-.79.46a3.16,3.16,0,0,0-.2,1.45l.08,6.5a3.17,3.17,0,0,1-.78,2.29,1.33,1.33,0,0,1-1.06.32c-.71-.09-1.24-.72-1.47-1.73a15.55,15.55,0,0,1,.11-5.57,22.66,22.66,0,0,0,.3-3.75c0-.35-.08-1-.4-1.1a.34.34,0,0,0-.34,0,2.15,2.15,0,0,0-.89,1.3,14.19,14.19,0,0,0,1.31,10.71,32.15,32.15,0,0,0,1.83,2.76c1.51,2.12,3.08,4.31,3.18,7s-1.37,5.14-2.76,7.21c-1.82,2.73-3.79,5.41-5.87,8a.5.5,0,0,1-.7.07.49.49,0,0,1-.07-.7c2.05-2.53,4-5.18,5.81-7.88,1.3-1.95,2.68-4.23,2.59-6.62s-1.5-4.34-3-6.43a31.25,31.25,0,0,1-1.89-2.85A15.18,15.18,0,0,1,330.11,217a3.11,3.11,0,0,1,1.44-2,1.38,1.38,0,0,1,1.19,0,2.06,2.06,0,0,1,1,2,23.21,23.21,0,0,1-.31,3.92,14.9,14.9,0,0,0-.12,5.23c.1.43.31.91.62,1a.3.3,0,0,0,.27-.08,2.33,2.33,0,0,0,.44-1.52l-.08-6.51a4.11,4.11,0,0,1,.3-1.91,1.75,1.75,0,0,1,2-1,1.91,1.91,0,0,1,.91.76,7.44,7.44,0,0,1,.91,5.14,26.05,26.05,0,0,1-1.51,6.4l-.06.17a5,5,0,0,0-.42,1.58,3.6,3.6,0,0,0,.9,2.25,22.13,22.13,0,0,1,4.36-12.76,1.75,1.75,0,0,1,.61-.55,1.17,1.17,0,0,1,1,0,1.52,1.52,0,0,1,.8,1,2.82,2.82,0,0,1-.27,1.74c-.39,1-.81,2-1.24,2.94a39.37,39.37,0,0,0-2.95,8.62,19,19,0,0,0,0,5.38,12.5,12.5,0,0,1-1.53,6.36,35.29,35.29,0,0,1-5.62,8.32A.49.49,0,0,1,332.37,253.63Z" fill="#d1d3d4"/><path d="M323.66,252.83h0a.51.51,0,0,1-.47-.53,6.89,6.89,0,0,0-.45-2.43c-.08-.25-.16-.51-.23-.76a13.16,13.16,0,0,1,1.87-10.88l.09-.13a2.55,2.55,0,0,0,.69-1.57,2,2,0,0,0-.34-.8,16.18,16.18,0,0,0-1.78-2.16A15.51,15.51,0,0,1,321,231a13.77,13.77,0,0,1-1.48-6,3.63,3.63,0,0,1,.16-1.72,1.62,1.62,0,0,1,1.74-1c.78.17,1.23.9,1.34,2.17.22,2.57.66,5.18,2.37,6.81.25.24.52.45.8.67l.58.47a47.3,47.3,0,0,0-1.38-8.67l-.21-.9a4.38,4.38,0,0,1,0-2.47,2.06,2.06,0,0,1,1.18-1.19,1.52,1.52,0,0,1,1.27,0,2.51,2.51,0,0,1,1,1.71A64.61,64.61,0,0,1,330.25,231c.17,1.92.22,4.75-1.2,7a10.6,10.6,0,0,1-1.06,1.39c-.27.33-.55.67-.8,1-2.37,3.36-1.53,7.92.05,11.06a.51.51,0,0,1-.22.67.5.5,0,0,1-.67-.23c-1.71-3.39-2.6-8.35,0-12.08.27-.37.56-.73.86-1.08a12.46,12.46,0,0,0,1-1.28c1.25-2,1.2-4.59,1.05-6.37a64.66,64.66,0,0,0-1.89-9.89c-.11-.43-.25-.91-.55-1.07a.52.52,0,0,0-.44,0,1.11,1.11,0,0,0-.61.61,3.47,3.47,0,0,0,.08,1.9l.2.9a41.45,41.45,0,0,1,1.41,10.18.49.49,0,0,1-.36.47.5.5,0,0,1-.55-.21,6.12,6.12,0,0,0-1.29-1.24,10.18,10.18,0,0,1-.87-.73c-1.95-1.85-2.44-4.67-2.68-7.45,0-.44-.16-1.19-.55-1.27-.23-.05-.5.19-.61.44a2.8,2.8,0,0,0-.08,1.25,12.83,12.83,0,0,0,1.34,5.54,14.6,14.6,0,0,0,1.94,2.42,17.6,17.6,0,0,1,1.88,2.3,3.1,3.1,0,0,1,.5,1.23,3.4,3.4,0,0,1-.87,2.26l-.09.13a12.09,12.09,0,0,0-1.72,10c.06.25.14.49.22.74a7.82,7.82,0,0,1,.49,2.78A.5.5,0,0,1,323.66,252.83Z" fill="#d1d3d4"/><path d="M315.88,255.31h0a.5.5,0,0,1-.5-.5,19.49,19.49,0,0,0-1.93-8.05,23.31,23.31,0,0,0-4-6.66l-.59-.63a12.11,12.11,0,0,1-1.65-2,3.9,3.9,0,0,1-.37-3.7,1.18,1.18,0,0,1,.55-.59c.28-.13.85-.23,1.52.57l3.63,4.34a16.59,16.59,0,0,1,1.5,2,11.63,11.63,0,0,1,1.12,2.4l.16-1.13a5,5,0,0,0,.07-1.43,4.85,4.85,0,0,0-1.15-2.06l-.15-.2a24.4,24.4,0,0,1-2.86-4.78,7.42,7.42,0,0,1-.79-4.6,2.36,2.36,0,0,1,.93-1.43,1.32,1.32,0,0,1,1-.17,1.73,1.73,0,0,1,1.07.9,9,9,0,0,1,.95,3.2,14,14,0,0,0,.36,1.78A12.07,12.07,0,0,0,317,236.4a8.76,8.76,0,0,0-.84-4.51c-.28-.66-.6-1.31-.93-2a22.16,22.16,0,0,1-1.52-3.56c-.4-1.32,0-2,.36-2.34a1.79,1.79,0,0,1,2.18,0,4,4,0,0,1,1.1,1.55c2.38,5,3.28,9.73,2.68,14a34.73,34.73,0,0,1-.71,3.4c-.23.94-.47,1.92-.63,2.88a9.13,9.13,0,0,0,.65,5.93.49.49,0,0,1-.19.68.5.5,0,0,1-.68-.19,10,10,0,0,1-.77-6.58c.17-1,.41-2,.65-3s.53-2.2.69-3.3c.57-4-.3-8.56-2.59-13.41a3.06,3.06,0,0,0-.81-1.18.78.78,0,0,0-.91-.08c-.31.28-.17.94-.06,1.31a21.76,21.76,0,0,0,1.46,3.4c.33.66.66,1.33,1,2a8.55,8.55,0,0,1,.64,6.18.51.51,0,0,1-.39.33.52.52,0,0,1-.48-.18,15.22,15.22,0,0,1-3-5,14.24,14.24,0,0,1-.39-1.9,8.14,8.14,0,0,0-.82-2.85c-.16-.26-.3-.41-.44-.44a.3.3,0,0,0-.24,0,1.36,1.36,0,0,0-.49.8,6.61,6.61,0,0,0,.73,4,23.34,23.34,0,0,0,2.74,4.58l.15.19a5.76,5.76,0,0,1,1.35,2.52,5.5,5.5,0,0,1-.07,1.73l-.48,3.34a.49.49,0,0,1-1,.06,17.07,17.07,0,0,0-1.67-4.29,17.83,17.83,0,0,0-1.41-1.86l-3.64-4.33c-.18-.23-.3-.29-.34-.3s0,0-.06.11a3,3,0,0,0,.33,2.75,10.39,10.39,0,0,0,1.52,1.84c.2.22.41.43.6.65a24.54,24.54,0,0,1,4.19,6.94,20.35,20.35,0,0,1,2,8.45A.49.49,0,0,1,315.88,255.31Z" fill="#d1d3d4"/><path d="M254.1,277.22a.5.5,0,0,1-.5-.47.52.52,0,0,1,.48-.53,97.45,97.45,0,0,0,27.46-5.6.5.5,0,0,1,.34.95,99,99,0,0,1-27.75,5.65Z" fill="#d1d3d4"/><path d="M163.38,263.34h-.12l-12.84-3.28a.51.51,0,0,1-.36-.61.5.5,0,0,1,.61-.36l12.83,3.28a.5.5,0,0,1,.36.61A.49.49,0,0,1,163.38,263.34Z" fill="#d1d3d4"/><path d="M298.58,265.9a.5.5,0,0,1-.48-.37.49.49,0,0,1,.35-.61,16.48,16.48,0,0,0,5.48-2.69.5.5,0,1,1,.6.8,17.08,17.08,0,0,1-5.82,2.85Z" fill="#d1d3d4"/><path d="M125.15,253a.58.58,0,0,1-.19,0,15.72,15.72,0,0,0-7.64-1.09.5.5,0,0,1-.11-1,16.86,16.86,0,0,1,8.13,1.16.5.5,0,0,1,.27.65A.48.48,0,0,1,125.15,253Z" fill="#d1d3d4"/><path d="M62.68,268.32a.5.5,0,0,1-.14-1,15.86,15.86,0,0,1,8.12-.22.51.51,0,0,1,.37.61.51.51,0,0,1-.6.37,14.73,14.73,0,0,0-7.6.2Z" fill="#d1d3d4"/></g></svg>