<svg xmlns="http://www.w3.org/2000/svg" viewBox="0 0 400 300"><g id="_363_doctor_flatline" data-name="#363_doctor_flatline"><path d="M302.84,137.23s3.93-7.31,3-9.22-3.14-6-3.88-8.09,1.82-10.7,4.23-12.32c1.51-1,3.92.81,3.63,2.87s-1.33,6.65-1.33,6.65,3.85-7.11,4-8.88-3.6-9.68-2.94-12.86c.34-1.68,3.75-2.39,5.08-.62s2.94,11.15,2.95,11.18a7.55,7.55,0,0,1,.36-1.85c.19-.88.57-1.71.76-2.6a13.5,13.5,0,0,0,0-5.41c-.18-.9-.45-1.79-.68-2.68a2.09,2.09,0,0,1-.07-1,1.49,1.49,0,0,1,1.09-.94,3.17,3.17,0,0,1,2.74.62,5.87,5.87,0,0,1,1.72,2.31,10.4,10.4,0,0,1,.92,5.52c-.11,1-.22,3.53-1,4.23.06-.06,3.1-2.94,4.26-.9a12.75,12.75,0,0,1,1.18,5.3s5.74-3.24,6,1.32-6.06,19.94-8.27,22-4.26,3.82-4.26,3.82l-5,10.69" fill="#fff"/><path d="M317.46,146.85a.5.5,0,0,1-.21,0,.51.51,0,0,1-.25-.66l5-10.7a.4.4,0,0,1,.13-.16s2.07-1.78,4.24-3.81,8.4-17.12,8.11-21.6a2,2,0,0,0-.86-1.75c-1.23-.67-3.61.37-4.43.83a.48.48,0,0,1-.49,0,.5.5,0,0,1-.25-.43,12.39,12.39,0,0,0-1.11-5,.85.85,0,0,0-.62-.47c-.83-.11-2.17.82-2.87,1.48a.5.5,0,1,1-.69-.72c.49-.47.68-2.5.76-3.37,0-.22,0-.4.05-.55a9.87,9.87,0,0,0-.87-5.26,5.39,5.39,0,0,0-1.57-2.12,2.71,2.71,0,0,0-2.3-.54,1.05,1.05,0,0,0-.75.59,1.61,1.61,0,0,0,.08.76c.07.31.16.62.24.93.16.59.32,1.18.44,1.78a12.81,12.81,0,0,1-.43,7,10.5,10.5,0,0,0-.37,1.22c0,.12-.06.28-.11.47a5.54,5.54,0,0,0-.24,1.19h0a.5.5,0,0,1-1,.18h0c-.41-2.4-1.82-9.58-2.85-11a2.62,2.62,0,0,0-2.65-.75,1.88,1.88,0,0,0-1.55,1.17c-.37,1.79.83,5.4,1.8,8.3.76,2.29,1.22,3.74,1.16,4.5-.15,1.82-3.65,8.34-4,9.08a.5.5,0,0,1-.61.23A.51.51,0,0,1,308,117c0-.05,1-4.59,1.32-6.61a2.4,2.4,0,0,0-1.16-2.27,1.53,1.53,0,0,0-1.69-.11c-2.33,1.56-4.67,10-4,11.73.47,1.31,1.58,3.48,2.55,5.4.53,1,1,2,1.32,2.65.94,2-2.38,8.41-3.06,9.66a.49.49,0,0,1-.67.21.5.5,0,0,1-.21-.68c1.47-2.74,3.6-7.55,3-8.77-.31-.67-.78-1.6-1.3-2.62a58.78,58.78,0,0,1-2.6-5.51c-.83-2.33,1.92-11.22,4.42-12.9a2.48,2.48,0,0,1,2.78.1,3.37,3.37,0,0,1,1.62,3.26c-.11.78-.32,1.91-.55,3A25.53,25.53,0,0,0,312,108.2a19,19,0,0,0-1.11-4.11c-1.06-3.17-2.25-6.76-1.82-8.82a2.8,2.8,0,0,1,2.3-1.94,3.59,3.59,0,0,1,3.67,1.13c.94,1.26,2,6,2.57,8.91l.24-.72a12.74,12.74,0,0,0,.37-1.26,13.06,13.06,0,0,0,0-5.21c-.11-.58-.27-1.15-.43-1.72l-.25-.94a2.5,2.5,0,0,1-.06-1.28A2,2,0,0,1,319,91a3.67,3.67,0,0,1,3.17.7,6.4,6.4,0,0,1,1.88,2.5,11,11,0,0,1,1,5.79c0,.14,0,.32-.05.53-.07.75-.15,1.5-.28,2.16a3.58,3.58,0,0,1,2.22-.63,1.86,1.86,0,0,1,1.35,1,12.08,12.08,0,0,1,1.21,4.76c1.1-.5,3.24-1.27,4.68-.49a2.88,2.88,0,0,1,1.38,2.57c.31,4.8-6.17,20.28-8.43,22.39-1.94,1.81-3.79,3.42-4.19,3.77l-5,10.59A.49.49,0,0,1,317.46,146.85Z" fill="#231f20"/><rect x="317.87" y="60.55" width="6.4" height="30.86" transform="translate(590.37 266.58) rotate(-158.02)" fill="#fff"/><path d="M318.25,92a.57.57,0,0,1-.18,0l-5.93-2.4a.5.5,0,0,1-.28-.65l11.55-28.62a.51.51,0,0,1,.27-.27.5.5,0,0,1,.38,0L330,62.4a.5.5,0,0,1,.28.65L318.72,91.67a.51.51,0,0,1-.27.27A.45.45,0,0,1,318.25,92ZM313,88.81l5,2,11.17-27.69-5-2Z" fill="#231f20"/><rect x="315.91" y="80.02" width="6.4" height="1.44" transform="translate(584.81 275.03) rotate(-158.02)" fill="#231f20"/><path d="M321.8,83.1a.63.63,0,0,1-.19,0l-5.93-2.4a.49.49,0,0,1-.27-.65l.53-1.33a.51.51,0,0,1,.27-.27.48.48,0,0,1,.39,0l5.93,2.4a.49.49,0,0,1,.27.65l-.53,1.33a.51.51,0,0,1-.27.27A.48.48,0,0,1,321.8,83.1Zm-5.28-3.17,5,2,.16-.4-5-2Z" fill="#231f20"/><line x1="323.67" y1="78.07" x2="319.94" y2="76.57" fill="#fff"/><path d="M323.67,78.57a.63.63,0,0,1-.19,0L319.75,77a.51.51,0,0,1-.28-.65.51.51,0,0,1,.66-.28l3.73,1.51a.49.49,0,0,1,.27.65A.5.5,0,0,1,323.67,78.57Z" fill="#231f20"/><line x1="324.67" y1="75.6" x2="321.9" y2="74.48" fill="#fff"/><path d="M324.67,76.1a.41.41,0,0,1-.19,0L321.71,75a.5.5,0,0,1,.38-.93l2.76,1.12a.5.5,0,0,1,.28.65A.51.51,0,0,1,324.67,76.1Z" fill="#231f20"/><line x1="325.66" y1="73.13" x2="322.9" y2="72.01" fill="#fff"/><path d="M325.66,73.63a.58.58,0,0,1-.18,0l-2.77-1.12a.51.51,0,0,1-.28-.65.52.52,0,0,1,.66-.27l2.76,1.11a.5.5,0,0,1-.19,1Z" fill="#231f20"/><line x1="326.66" y1="70.65" x2="322.93" y2="69.15" fill="#fff"/><path d="M326.66,71.15l-.19,0-3.73-1.51a.5.5,0,1,1,.38-.92l3.73,1.5a.49.49,0,0,1,.27.65A.47.47,0,0,1,326.66,71.15Z" fill="#231f20"/><line x1="327.66" y1="68.18" x2="324.89" y2="67.07" fill="#fff"/><path d="M327.66,68.68a.63.63,0,0,1-.19,0l-2.76-1.12a.5.5,0,0,1,.37-.93l2.77,1.12a.49.49,0,0,1,.27.65A.5.5,0,0,1,327.66,68.68Z" fill="#231f20"/><line x1="328.66" y1="65.71" x2="325.89" y2="64.59" fill="#fff"/><path d="M328.66,66.21a.41.41,0,0,1-.19,0l-2.77-1.11a.5.5,0,0,1,.38-.93l2.76,1.12a.5.5,0,0,1,.28.65A.51.51,0,0,1,328.66,66.21Z" fill="#231f20"/><rect x="325.45" y="57.48" width="4.33" height="4.33" transform="translate(609.11 237.56) rotate(-158.02)" fill="#fff"/><path d="M328.81,63a.57.57,0,0,1-.18,0l-4-1.62a.51.51,0,0,1-.27-.27.55.55,0,0,1,0-.38l1.63-4a.5.5,0,0,1,.65-.28l4,1.62a.5.5,0,0,1,.28.66l-1.62,4A.5.5,0,0,1,328.81,63Zm-3.36-2.39,3.09,1.24,1.25-3.09-3.09-1.24Z" fill="#231f20"/><polygon points="329.73 58.16 327.13 57.11 329.1 54.15 330.37 54.66 329.73 58.16" fill="#fff"/><path d="M329.73,58.66a.63.63,0,0,1-.19,0l-2.6-1.05a.51.51,0,0,1-.23-.75l2-3a.51.51,0,0,1,.61-.19l1.26.51a.51.51,0,0,1,.31.56l-.64,3.5a.49.49,0,0,1-.49.41Zm-1.85-1.78,1.47.59.45-2.5-.51-.21Z" fill="#231f20"/><polygon points="334.51 42.61 329.53 54.32 329.97 54.5 334.51 42.61" fill="#fff"/><path d="M330,55a.58.58,0,0,1-.19,0l-.44-.18a.51.51,0,0,1-.27-.27.44.44,0,0,1,0-.39l5-11.7a.5.5,0,0,1,.92.37l-4.54,11.88a.5.5,0,0,1-.26.29A.71.71,0,0,1,330,55Z" fill="#231f20"/><ellipse cx="315.53" cy="90.39" rx="1.37" ry="7.14" transform="translate(113.64 349.17) rotate(-68.02)" fill="#fff"/><path d="M321.3,93.85a8.37,8.37,0,0,1-1.54-.18,28.34,28.34,0,0,1-4.93-1.55c-1.18-.48-7.05-2.94-6.38-4.59.25-.63,1.13-.76,2.86-.42a28.22,28.22,0,0,1,4.93,1.54A28.57,28.57,0,0,1,320.85,91c1.48,1,2,1.66,1.77,2.29C322.46,93.65,322,93.85,321.3,93.85Zm-11.83-5.91c.4.53,2.26,1.85,5.74,3.25s5.73,1.75,6.39,1.64c-.4-.53-2.26-1.85-5.74-3.25S310.13,87.84,309.47,87.94Zm-.56-.23h0Z" fill="#231f20"/><path d="M307.12,106.06l3.16,1.27,6.52-16.17s-.16-.58-1.42-1.09-1.74-.18-1.74-.18Z" fill="#fff"/><path d="M310.28,107.83a.58.58,0,0,1-.19,0l-3.16-1.28a.5.5,0,0,1-.28-.65l6.53-16.17a.49.49,0,0,1,.18-.22c.11-.08.76-.46,2.21.12s1.68,1.29,1.71,1.43a.5.5,0,0,1,0,.32l-6.53,16.17a.51.51,0,0,1-.27.27A.43.43,0,0,1,310.28,107.83Zm-2.51-2,2.23.9,6.25-15.48a2.65,2.65,0,0,0-1.06-.67,2.53,2.53,0,0,0-1.17-.24Z" fill="#231f20"/><ellipse cx="308.92" cy="106.79" rx="0.75" ry="3.89" transform="translate(94.29 353.3) rotate(-68.02)" fill="#fff"/><path d="M312,108.88a11.43,11.43,0,0,1-3.54-.94c-1.52-.61-4-1.79-3.6-2.8h0c.24-.59,1.09-.51,1.81-.36a15.59,15.59,0,0,1,2.72.85,16,16,0,0,1,2.56,1.27c.61.4,1.29.93,1.05,1.53C312.85,108.76,312.48,108.88,312,108.88Zm-5.7-3.16a16.73,16.73,0,0,0,5.26,2.13,16.73,16.73,0,0,0-5.26-2.13Z" fill="#231f20"/><path d="M327,120a2.17,2.17,0,0,1-.76-.13,2.88,2.88,0,0,1-1.64-1.63,6.09,6.09,0,0,1-.22-3.79c-.44.51-.92,1-1.44,1.51a5.36,5.36,0,0,1-2,1.35,2.45,2.45,0,0,1-2.57-.53c-.87-.95-.55-2.35-.24-3.33a28.46,28.46,0,0,1,5.09-9.85.49.49,0,0,1,.7-.06.49.49,0,0,1,.06.7,27.67,27.67,0,0,0-4.9,9.52c-.37,1.17-.36,1.91,0,2.34a1.48,1.48,0,0,0,1.51.26,4.41,4.41,0,0,0,1.61-1.12,15.93,15.93,0,0,0,3.58-4.83h0a.49.49,0,0,1,.66-.24.5.5,0,0,1,.25.66h0c-.72,1.56-2.21,4.81-1.24,7a2,2,0,0,0,1,1.1,2,2,0,0,0,1.89-.56,6.88,6.88,0,0,0,1.31-2l1.71-3.5a.5.5,0,0,1,.67-.22.49.49,0,0,1,.23.66l-1.71,3.5a7.79,7.79,0,0,1-1.53,2.32A3.17,3.17,0,0,1,327,120Z" fill="#231f20"/><path d="M308.53,117.12s10.05,4,11.22,9.27" fill="#fff"/><path d="M319.75,126.89a.49.49,0,0,1-.49-.39c-1.1-5-10.81-8.88-10.91-8.92a.5.5,0,0,1-.28-.65.51.51,0,0,1,.65-.28c.42.17,10.3,4.14,11.51,9.63a.5.5,0,0,1-.38.6Z" fill="#231f20"/><path d="M149.65,226.91s-13.66,34.72-11.9,49.44H241.56s-3.37-35.31-8.13-48Z" fill="#231f20"/><path d="M241.56,276.85H137.75a.5.5,0,0,1-.49-.44c-1.76-14.67,11.37-48.26,11.93-49.68a.56.56,0,0,1,.47-.32l83.78,1.47a.5.5,0,0,1,.46.33c4.73,12.57,8.12,47.73,8.16,48.09a.52.52,0,0,1-.13.38A.5.5,0,0,1,241.56,276.85Zm-103.36-1H241c-.45-4.49-3.63-35.14-7.93-47L150,227.42C148.64,230.93,136.86,262,138.2,275.85Z" fill="#231f20"/><path d="M228.94,231c-4.28-28.16-22.72-115.21-22.72-115.21-15.81,4.59-26.17.94-26.17.94S151.39,208.21,146.61,231Z" fill="#68e1fd"/><path d="M302.24,130.55,279,169.34l-36.69-45c-4.94-8.5-28.42-8.5-28.42-8.5s-36.32-2.46-43.62-.08c0,0-28.65,8.76-34.34,15S146.22,165.8,147,196s-12.23,60.68-12.23,60.68l38.13,10.85s7.26-48.82,7.26-72.19c0-47.87-.11-78.59-.11-78.59l25.93.83s-.85,45.5-2.17,80.39c-1.71,45.51,8.19,69.56,8.19,69.56l34.66-9.14s-11.33-41.17-11.18-63A144.61,144.61,0,0,1,237.33,176c11.61,14.26,32.83,46.2,49.62,39.52,12.82-5.11,36.57-69.63,36.57-69.63Z" fill="#fff"/><path d="M212,268a.5.5,0,0,1-.46-.31c-.1-.24-9.92-24.67-8.23-69.77,1.23-32.55,2.07-74.85,2.16-79.89l-24.91-.8c0,4.24.1,34.1.1,78.08,0,23.14-7.19,71.78-7.27,72.27a.5.5,0,0,1-.63.4l-38.13-10.85a.51.51,0,0,1-.32-.68c.13-.3,13-30.71,12.19-60.46-.39-15.24-4.64-30-8.06-41.94s-5.85-20.39-2.85-23.69c5.71-6.3,33.39-14.81,34.57-15.17,7.29-2.38,42.3,0,43.79.06h0c1.19,0,23.8.15,28.81,8.75L279,168.47l22.85-38.18a.49.49,0,0,1,.33-.23.48.48,0,0,1,.4.09l21.27,15.37a.5.5,0,0,1,.18.57c-1,2.65-24,64.79-36.85,69.92a13.19,13.19,0,0,1-4.92.94c-13.75,0-29.28-20.06-40-33.84-1.63-2.11-3.18-4.12-4.6-5.88A136.47,136.47,0,0,0,236,195.35c-.15,21.56,11.05,62.5,11.16,62.91a.49.49,0,0,1,0,.39.47.47,0,0,1-.3.23L212.13,268A.32.32,0,0,1,212,268ZM180.05,116.26h0l25.93.83a.49.49,0,0,1,.48.51c0,.45-.87,45.9-2.17,80.39-1.56,41.7,6.74,65.6,8,68.95L246,258c-1.27-4.71-11.2-42.28-11.06-62.7A142.57,142.57,0,0,1,236.84,176a.52.52,0,0,1,.36-.41.51.51,0,0,1,.52.17c1.61,2,3.42,4.31,5.33,6.78,11.79,15.22,29.59,38.22,43.72,32.59,12-4.77,34.22-63.81,36.15-69l-20.53-14.82-22.93,38.31a.52.52,0,0,1-.4.24.49.49,0,0,1-.42-.18l-36.68-45c-4.79-8.23-27.81-8.32-28-8.32-.4,0-36.34-2.43-43.46-.1-.3.09-28.6,8.79-34.13,14.88-2.62,2.89-.11,11.65,3.07,22.74,3.43,12,7.7,26.83,8.1,42.19.73,27.82-10.35,56.18-12.05,60.36l37,10.54c.8-5.51,7.17-49.84,7.17-71.55,0-47.32-.1-78.29-.11-78.59a.48.48,0,0,1,.16-.36A.48.48,0,0,1,180.05,116.26Z" fill="#231f20"/><path d="M149.06,81.34c-.16,2.88.51,5.74.69,8.61s-.21,6-2.12,8.15c-2.14,2.44-5.78,3.09-9,2.45s-6-2.35-8.8-4c-.14,4.85,2.78,9.5,6.88,12.09,7.13,4.5,21.06,3.84,28.66.88,5.81-2.26,10.85-6.94,12.6-12.93,1.7-5.79.22-12.06-2.13-17.62-2.61-6.16-7.57-11.82-14.82-11.74C154.58,67.26,149.38,75.58,149.06,81.34Z" fill="#fff"/><path d="M151.21,112.35c-5.57,0-11.07-1-14.73-3.32a14.88,14.88,0,0,1-7.11-12.53.52.52,0,0,1,.27-.43.48.48,0,0,1,.49,0c2.57,1.56,5.48,3.34,8.64,4,2.66.53,6.28.21,8.49-2.29,1.53-1.74,2.2-4.36,2-7.79-.07-1-.2-2.12-.33-3.15a30.62,30.62,0,0,1-.36-5.51,18.42,18.42,0,0,1,3.79-9.49c2.51-3.28,5.6-5.11,8.7-5.14h.16c9,0,13.59,8.41,15.13,12,2.91,6.87,3.63,12.91,2.15,18-1.7,5.81-6.52,10.76-12.9,13.25A41.52,41.52,0,0,1,151.21,112.35ZM130.38,97.41A14,14,0,0,0,137,108.18c6.82,4.31,20.34,3.9,28.21.83,6.09-2.37,10.69-7.08,12.3-12.6,1.42-4.81.7-10.63-2.11-17.29-1.47-3.46-5.8-11.53-14.36-11.43-6.24.07-11.2,8.22-11.5,13.68h0a29.72,29.72,0,0,0,.35,5.33c.13,1,.27,2.14.34,3.22.23,3.7-.53,6.57-2.24,8.51-2.49,2.82-6.51,3.2-9.44,2.61A26.12,26.12,0,0,1,130.38,97.41Zm18.68-16.07h0Z" fill="#231f20"/><path d="M159.84,77.31a9.52,9.52,0,0,1-5.18-5.73,8,8,0,0,1,1.46-7.47,5.3,5.3,0,0,1,1.95-1.47,5.5,5.5,0,0,1,2.35-.33,9,9,0,0,1,7.92,6.19C170.06,74.23,165.82,80,159.84,77.31Z" fill="#231f20"/><path d="M162.79,78.49a7.6,7.6,0,0,1-3.16-.73h0a10.05,10.05,0,0,1-5.45-6,8.56,8.56,0,0,1,1.57-8,5.57,5.57,0,0,1,2.13-1.6,5.87,5.87,0,0,1,2.56-.37,9.45,9.45,0,0,1,8.37,6.54A8.39,8.39,0,0,1,166.73,77,5.86,5.86,0,0,1,162.79,78.49ZM160,76.85a5.36,5.36,0,0,0,6-.58,7.4,7.4,0,0,0,1.79-7.63,8.44,8.44,0,0,0-7.47-5.83,4.85,4.85,0,0,0-2.13.3,4.66,4.66,0,0,0-1.76,1.32,7.55,7.55,0,0,0-1.36,7,9,9,0,0,0,4.9,5.41Z" fill="#231f20"/><path d="M179,28l-.13.09c-.81.56-3.64,3.88-4.35,3.91-29.57.87-17.69,42.19-2.72,53.87,5.95,4.65,16.36,8.59,23.91,6.79,5.59-1.33,10.72-6,10.94-11.75,5.81-.46,12.08-1.12,16.39-5a19.66,19.66,0,0,0,5.17-9,33,33,0,0,0-2.18-24.93c-7.13-13.2-26-21.34-40.42-17.13A22.94,22.94,0,0,0,179,28Z" fill="#fff"/><path d="M191.71,93.6c-7,0-15.18-3.43-20.19-7.33-10.25-8-19-29.41-14.52-43,2.44-7.44,8.5-11.52,17.53-11.78A18.3,18.3,0,0,0,177,29.23a16.54,16.54,0,0,1,1.62-1.55l.14-.09a23.55,23.55,0,0,1,6.75-3.3c14.55-4.25,33.71,3.87,41,17.37A33.4,33.4,0,0,1,228.72,67a19.88,19.88,0,0,1-5.31,9.27c-4.49,4.09-11.2,4.73-16.25,5.13-.49,6.09-6,10.52-11.31,11.78A18,18,0,0,1,191.71,93.6Zm2.09-69.45a28.5,28.5,0,0,0-8,1.1,22.45,22.45,0,0,0-6.46,3.16h0l-.12.09a18.22,18.22,0,0,0-1.48,1.42c-1.74,1.78-2.56,2.56-3.15,2.58-8.57.25-14.31,4.09-16.61,11.09-4.33,13.22,4.18,34.08,14.18,41.89,5.85,4.56,16.07,8.46,23.49,6.7C200.7,91,206,86.71,206.18,80.89a.51.51,0,0,1,.46-.48c6.18-.49,12.06-1.24,16.1-4.91a18.92,18.92,0,0,0,5-8.82,32.44,32.44,0,0,0-2.15-24.55C219.82,31.39,206.28,24.15,193.8,24.15ZM179,28h0Z" fill="#231f20"/><path d="M212,73.16c1.52-8.88,16.33-10.91,15.48-.43a15.49,15.49,0,0,1-4,9.81c-2.56,2.55-6.66,3.72-9.94,2.21" fill="#fff"/><path d="M216.66,85.92a8.06,8.06,0,0,1-3.37-.71.5.5,0,0,1-.25-.67.49.49,0,0,1,.66-.24c2.92,1.34,6.78.48,9.38-2.11,2.82-2.81,3.68-6.72,3.9-9.5.3-3.65-1.46-6.07-4.7-6.48-4-.5-9,2.27-9.79,7a.5.5,0,0,1-1-.17c.91-5.33,6.47-8.41,10.9-7.86,3,.37,6,2.55,5.57,7.55-.24,3-1.16,7.1-4.19,10.12A10.26,10.26,0,0,1,216.66,85.92Z" fill="#231f20"/><path d="M175.18,72.76c-1.33-8.92-16.09-11.28-15.47-.78a15.51,15.51,0,0,0,3.83,9.9c2.5,2.6,6.57,3.87,9.89,2.43" fill="#fff"/><path d="M170.43,85.41a10.24,10.24,0,0,1-7.25-3.18c-3-3.09-3.8-7.26-4-10.22-.29-5,2.77-7.12,5.74-7.43,4.44-.46,9.93,2.76,10.72,8.1a.5.5,0,0,1-.42.57.51.51,0,0,1-.57-.42C174,68,169,65.17,165.05,65.58c-3.25.34-5.06,2.72-4.84,6.37.16,2.79.93,6.72,3.69,9.58,2.54,2.65,6.38,3.6,9.33,2.32a.5.5,0,0,1,.39.92A8,8,0,0,1,170.43,85.41Z" fill="#231f20"/><path d="M176.8,199.32a.49.49,0,0,1-.47-.34c-.48-1.35-11.63-33.18-12.49-37.93-.77-4.31,7.57-11.65,10.21-13.85-3.4-.9-12.18-3.4-13-5.26-.89-2,8.21-18.88,11-24a.49.49,0,0,1,.68-.19.48.48,0,0,1,.19.67c-5.67,10.34-11.33,21.82-11,23.13.47,1.08,7.12,3.36,13.27,4.93a.51.51,0,0,1,.36.38.5.5,0,0,1-.18.5c-3.17,2.52-11.26,9.85-10.6,13.52.84,4.67,12.33,37.44,12.44,37.77a.5.5,0,0,1-.3.64Z" fill="#d1d3d4"/><path d="M206.79,199.1a.53.53,0,0,1-.23-.06.49.49,0,0,1-.21-.67c.15-.3,15.43-30.05,16.3-37.07,0-2.32-8.58-7.43-14-10.09a.5.5,0,0,1-.28-.45.53.53,0,0,1,.29-.45c3.65-1.72,13.26-7,13.95-10.55s-6.35-17.77-9.12-22.9a.5.5,0,0,1,.2-.68.51.51,0,0,1,.68.2c.41.77,10.12,18.84,9.22,23.57-.79,4.12-10.51,9.28-13.59,10.82,3.37,1.71,13.7,7.24,13.65,10.59-.89,7.26-15.77,36.24-16.4,37.47A.51.51,0,0,1,206.79,199.1Z" fill="#d1d3d4"/><path d="M222.21,154.16a1.5,1.5,0,0,1-1.3-.75c-.22-.36-.24-.59-.49-2.71-3.49-29.65-10.31-35.87-15.42-35.87h0a1.5,1.5,0,0,1-1.5-1.5,1.48,1.48,0,0,1,1.51-1.5c13.86,0,17.28,29,18.4,38.52.09.78.18,1.59.23,1.84A1.51,1.51,0,0,1,223,154,1.48,1.48,0,0,1,222.21,154.16Zm1.29-2.25Zm0,0Z" fill="#231f20"/><path d="M159.69,181.92h0a1.5,1.5,0,0,1-1.46-1.54c.52-20.1,2.3-40.91,11.76-56.85,5.39-9.1,9.49-13.55,12.53-13.61a2.75,2.75,0,0,1,2.29,1.11,1.5,1.5,0,0,1-2.29,1.9c-.5.07-3.34,1-9.95,12.13-9.1,15.35-10.83,35.7-11.34,55.4A1.5,1.5,0,0,1,159.69,181.92Zm22.56-69.27h0Z" fill="#231f20"/><path d="M180.06,116.75s8.19,7.67,13.89,7.54,12-6.7,12-6.7l-.36-6.23-.84-14.48L204,83.35l-23.21-.26-.9,11-.27,3.58Z" fill="#fff"/><path d="M193.81,124.8c-5.82,0-13.75-7.37-14.09-7.69a.48.48,0,0,1-.16-.35l-.45-19,.27-3.63.9-11a.52.52,0,0,1,.5-.46l23.22.26a.49.49,0,0,1,.49.47l2,34.24a.47.47,0,0,1-.14.37c-.26.28-6.55,6.74-12.38,6.86Zm-13.26-8.28c1.13,1,8.25,7.28,13.26,7.28h.13c4.95-.1,10.55-5.42,11.53-6.4l-1.95-33.55-22.28-.25-1.13,14.17Z" fill="#231f20"/><path d="M179.61,97.72a21.83,21.83,0,0,0,7.54,7.76c5,3.23,12.4,6.87,18.47,5.88l-.84-14.48a49.58,49.58,0,0,1-13.38,0c-3.92-.43-7.94-.92-11.52-2.69Z" fill="#231f20"/><path d="M203.48,112c-6.19,0-12.91-3.73-16.6-6.13A22.12,22.12,0,0,1,179.17,98a.45.45,0,0,1-.06-.27l.27-3.59a.52.52,0,0,1,.25-.39.49.49,0,0,1,.47,0c3.6,1.79,7.72,2.24,11.35,2.65a48.51,48.51,0,0,0,13.26,0,.5.5,0,0,1,.39.11.47.47,0,0,1,.18.36l.84,14.48a.49.49,0,0,1-.42.52A13.66,13.66,0,0,1,203.48,112ZM180.12,97.62a21.28,21.28,0,0,0,7.3,7.44c3.93,2.56,11.37,6.66,17.68,5.87l-.78-13.48a50.61,50.61,0,0,1-13-.12c-3.49-.39-7.43-.83-11-2.43Z" fill="#231f20"/><path d="M191.42,100.14l2.38,0A20.41,20.41,0,0,0,214.43,80l.21-19.33s-11.4-2.78-18.79-5.57C183.44,50.4,180.1,43.7,180.1,43.7a50.5,50.5,0,0,1-2.91,13c-1.33,3-5.54,8.51-5.54,8.51s-.36,10.06-.41,14.26A20.41,20.41,0,0,0,191.42,100.14Z" fill="#fff"/><path d="M194,100.67h-.24l-2.37,0A20.93,20.93,0,0,1,170.74,79.5c0-4.16.41-14.17.41-14.27a.48.48,0,0,1,.1-.29c.05,0,4.19-5.44,5.48-8.4a50.09,50.09,0,0,0,2.87-12.88.5.5,0,0,1,1-.19c0,.07,3.43,6.6,15.48,11.15,7.27,2.75,18.62,5.53,18.73,5.55a.49.49,0,0,1,.38.5L214.93,80A20.94,20.94,0,0,1,194,100.67ZM172.14,65.42c0,1.31-.36,10.24-.4,14.1a19.91,19.91,0,0,0,19.69,20.12h0l2.37,0A19.94,19.94,0,0,0,213.93,80l.21-18.93c-2.06-.51-11.9-3-18.47-5.49-9.34-3.53-13.6-8.16-15.21-10.37a50.22,50.22,0,0,1-2.81,11.75C176.4,59.78,172.8,64.56,172.14,65.42Z" fill="#231f20"/><path d="M193.13,85.53a29,29,0,0,1-3.43-.2.5.5,0,0,1-.43-.56.5.5,0,0,1,.56-.43,27.13,27.13,0,0,0,5.8.06.26.26,0,0,0,.21-.15c1-1.6-1.45-9.71-3.21-14.45a.52.52,0,0,1,.3-.65.5.5,0,0,1,.64.3c.48,1.3,4.68,12.79,3.13,15.32a1.31,1.31,0,0,1-1,.63A23.86,23.86,0,0,1,193.13,85.53Z" fill="#231f20"/><ellipse cx="183.51" cy="67.02" rx="3.46" ry="1.41" transform="translate(114.47 249.78) rotate(-89.37)" fill="#231f20"/><ellipse cx="202.1" cy="66.58" rx="3.46" ry="1.41" transform="translate(133.29 267.94) rotate(-89.37)" fill="#231f20"/><path d="M193.14,90.33c-.43,0-.87,0-1.3-.06-7.39-.66-11.89-6.67-12.08-6.93a.5.5,0,1,1,.8-.59c.05.06,4.44,5.91,11.38,6.52,4.77.42,9.66-1.69,14.51-6.29a.5.5,0,1,1,.69.72C202.5,88.1,197.8,90.33,193.14,90.33Z" fill="#231f20"/><path d="M176.8,37.65c3,7.93,7.09,15.89,13.91,21A46.64,46.64,0,0,0,202,64.36c6,2.31,11.79,2.6,16.85,6.77a29.48,29.48,0,0,1,9.79,15.26,34,34,0,0,0-2.43-29c-4.77-8.09-12.67-13.77-20.47-19-4.26-2.86-8.91-5.76-14-5.67" fill="#fff"/><path d="M228.65,86.89h0a.5.5,0,0,1-.45-.38,29,29,0,0,0-9.62-15c-3.34-2.75-7-3.78-10.92-4.86-1.89-.53-3.84-1.07-5.8-1.83A47.53,47.53,0,0,1,190.41,59c-7.36-5.47-11.39-14.19-14.08-21.18a.5.5,0,0,1,.94-.36c2.64,6.86,6.58,15.42,13.74,20.74a45.87,45.87,0,0,0,11.18,5.69c1.92.74,3.84,1.27,5.71,1.79,4,1.12,7.79,2.17,11.28,5.06a30.09,30.09,0,0,1,9.52,14,33.72,33.72,0,0,0-2.91-27.16c-4.69-8-12.61-13.66-20.32-18.84-4.46-3-8.85-5.67-13.75-5.58a.49.49,0,0,1-.51-.49.5.5,0,0,1,.49-.51c5.16-.07,9.73,2.67,14.33,5.75,7.8,5.24,15.82,11,20.63,19.16a34.78,34.78,0,0,1,2.46,29.49A.51.51,0,0,1,228.65,86.89Z" fill="#231f20"/><path d="M133.25,219.37S144.81,231,146,234.56s.59,25.6-1.18,26.78-14.12,8.87-16.77,6.2-7.35-9.73-5-9.44,5.88,3.24,5.88,3.24,4.34-2.24,5.85-4.65c0,0-7.32-6.83-3.2-14.77l-6.67-7.85" fill="#fff"/><path d="M129.76,268.58a2.78,2.78,0,0,1-2.07-.69c-1.75-1.76-6.54-8-5.68-9.78a1,1,0,0,1,1.09-.5c2.11.26,5,2.43,5.88,3.13a18.11,18.11,0,0,0,5.14-4c-1.35-1.43-6.59-7.65-3.14-14.75l-6.46-7.6a.49.49,0,0,1,0-.7.51.51,0,0,1,.71.05l6.67,7.85a.5.5,0,0,1,.07.56c-3.9,7.52,3,14.11,3.09,14.17a.49.49,0,0,1,.08.63c-1.56,2.5-5.85,4.74-6,4.83a.49.49,0,0,1-.55-.06s-3.44-2.85-5.62-3.12a.33.33,0,0,0-.12,0c-.28.74,2.83,5.86,5.54,8.59,1.89,1.91,11.44-3.14,16.14-6.27,1.4-1.23,2.2-22.54,1-26.2-1.13-3.38-12.51-14.88-12.62-15a.5.5,0,1,1,.71-.71c.47.48,11.66,11.78,12.86,15.38,1,3.12.85,25.87-1.38,27.36C145,261.84,134.78,268.58,129.76,268.58Z" fill="#231f20"/><path d="M136,130.74s-61.59,48-61.41,58.77c.12,7.74,49.24,50.64,49.24,50.64l15.73-17.79-24.31-29.63,34.44-23.42" fill="#fff"/><path d="M123.79,240.65a.5.5,0,0,1-.33-.12c-2-1.76-49.28-43.14-49.41-51-.08-4.63,10.29-16,30.81-33.82,15.21-13.2,30.64-25.24,30.79-25.36a.51.51,0,0,1,.71.09.5.5,0,0,1-.09.7c-.15.12-15.57,12.14-30.76,25.33-25.27,21.93-30.51,30.07-30.46,33,.1,6.11,34.82,37.8,48.69,49.95l15.12-17.1-24-29.3a.5.5,0,0,1-.11-.39.49.49,0,0,1,.22-.34l34.44-23.43a.51.51,0,0,1,.7.14.51.51,0,0,1-.13.69l-34,23.12,24,29.21a.5.5,0,0,1,0,.65l-15.73,17.78A.48.48,0,0,1,123.79,240.65Z" fill="#231f20"/><path d="M233.11,216.05a15.24,15.24,0,0,1-2.26-.18A9.39,9.39,0,0,1,226.5,214a8.5,8.5,0,0,1-2.62,1c-9.3,2-13.16-2.7-13.32-2.9a.49.49,0,0,1,.08-.7.5.5,0,0,1,.7.08c.14.18,3.68,4.42,12.33,2.54a7.85,7.85,0,0,0,2-.74c-4.89-4.5-6.62-13.82-7.87-20.5-1.7-9.16-2.85-28.13-1.66-33.7.77-3.6,2.09-5.94,3.93-6.94a5.57,5.57,0,0,1,4.81-.08c4,1.47,6.39,10.48,8.11,30.1,1.05,11.94.74,26.19-5.65,31.2a8.34,8.34,0,0,0,3.64,1.45,11.69,11.69,0,0,0,11.59-4.56.5.5,0,0,1,.85.53A12.61,12.61,0,0,1,233.11,216.05Zm-10.7-63.42a3.77,3.77,0,0,0-1.84.45c-1.57.86-2.73,3-3.43,6.28-1.09,5.08-.17,23.45,1.67,33.31,1.53,8.22,3.41,16.35,7.74,20.13,6.24-4.55,6.5-18.67,5.46-30.48s-2.93-27.56-7.46-29.26A6.08,6.08,0,0,0,222.41,152.63Z" fill="#231f20"/><path d="M216.74,181.45a1.49,1.49,0,0,1-1.49-1.43c-.14-2.75-.29-5.35-.43-7.91-.19-3.16-.37-6.28-.51-9.62-.19-4.37,1.21-8,3.86-9.91a7.37,7.37,0,0,1,7-.89c7.42,2.75,8,13.85,8.42,22.76.09,1.79.17,3.48.31,5a1.5,1.5,0,0,1-3,.26c-.14-1.57-.23-3.28-.32-5.1-.4-8-.9-18-6.46-20.1a4.42,4.42,0,0,0-4.24.5c-1.81,1.33-2.77,4-2.62,7.36s.32,6.43.5,9.58c.15,2.57.3,5.17.43,7.94a1.5,1.5,0,0,1-1.42,1.57Z" fill="#231f20"/><ellipse cx="211.86" cy="212.7" rx="1.69" ry="2.51" transform="translate(-72.99 307.52) rotate(-63.52)" fill="#231f20"/><ellipse cx="243.44" cy="209.95" rx="2.51" ry="1.69" transform="translate(-70.41 279.55) rotate(-53.28)" fill="#231f20"/><circle cx="160.77" cy="183.84" r="6.66" fill="#fff"/><path d="M160.77,191a7.16,7.16,0,1,1,7.16-7.16A7.17,7.17,0,0,1,160.77,191Zm0-13.32a6.16,6.16,0,1,0,6.16,6.16A6.16,6.16,0,0,0,160.77,177.68Z" fill="#231f20"/><circle cx="175.11" cy="214.26" r="1.69" fill="#fff"/><circle cx="170.82" cy="236.94" r="1.69" fill="#fff"/><path d="M149.65,240.65a.49.49,0,0,1-.46-.31.51.51,0,0,1,.27-.65c4.34-1.8,18.58-7.69,19.67-7.69a.5.5,0,0,1,0,1c-1,.11-12.34,4.73-19.29,7.61A.48.48,0,0,1,149.65,240.65Z" fill="#d1d3d4"/><path d="M237.18,244.24a.45.45,0,0,1-.16,0l-24.33-8.49a.5.5,0,0,1,.33-.95l24.33,8.5a.48.48,0,0,1,.3.63A.49.49,0,0,1,237.18,244.24Z" fill="#d1d3d4"/><circle cx="173.81" cy="210.26" r="1.3" fill="#d1d3d4"/><path d="M237.34,176.53h-.08a.51.51,0,0,1-.42-.57c0-.2,3.09-20.08,6.12-30.17a.5.5,0,1,1,1,.28c-3,10-6.06,29.84-6.09,30A.5.5,0,0,1,237.34,176.53Z" fill="#231f20"/><path d="M268.4,189.26a.44.44,0,0,1-.24-.07.49.49,0,0,1-.2-.67l10.63-19.42a.49.49,0,0,1,.68-.2.48.48,0,0,1,.19.67L268.84,189A.51.51,0,0,1,268.4,189.26Z" fill="#231f20"/></g></svg>