<svg id="_450_easter_eggs_flatline" data-name="#450_easter_eggs_flatline" xmlns="http://www.w3.org/2000/svg" viewBox="0 0 400 300"><path d="M115.13,223.91c-1.93-3.23-7-4.14-10.34-5.37-4.84-1.79-9.71-3.53-14.66-5-10.14-3-20.75-4.82-31.3-3.12-1.17.19-2.63.74-2.63,1.93,0,.92.92,1.53,1.74,2a64.79,64.79,0,0,0,16.83,5.91l-9.72-.6a6.14,6.14,0,0,0-3.51.47c-1,.61-1.59,2.15-.79,3a3.07,3.07,0,0,0,1.63.75q9.08,2.08,18.26,3.53a18.29,18.29,0,0,0-10,.89A2.53,2.53,0,0,0,69,229.48c-.52,1.23.88,2.37,2.08,2.94a63.07,63.07,0,0,0,27.19,5.72,26.42,26.42,0,0,0,10.6-1.74c3.3-1.45,6.18-4.27,6.88-7.81A6.61,6.61,0,0,0,115.13,223.91Z" fill="#231f20"/><path d="M98.19,238.63a62.81,62.81,0,0,1-27.28-5.76c-1.47-.7-3-2.06-2.33-3.58a3,3,0,0,1,1.84-1.47,18.73,18.73,0,0,1,3.77-1c-4-.73-8-1.55-11.92-2.46a3.47,3.47,0,0,1-1.88-.89,2,2,0,0,1-.49-1.73,3,3,0,0,1,1.39-2.07,6.66,6.66,0,0,1,3.79-.54l4.21.26a65.08,65.08,0,0,1-11.58-4.63c-.86-.45-2-1.18-2-2.4s1.11-2.1,3-2.42c9.29-1.5,19.31-.5,31.52,3.13,5.25,1.56,10.37,3.41,14.69,5,.69.25,1.45.49,2.25.74,3.15,1,6.73,2.12,8.35,4.84h0a7.09,7.09,0,0,1,.72,5c-.68,3.44-3.36,6.49-7.17,8.17a26.87,26.87,0,0,1-10.8,1.77Zm-21-11.06a17.9,17.9,0,0,0-6.41,1.18,2.14,2.14,0,0,0-1.28.93c-.39.93,1,1.88,1.83,2.29a62,62,0,0,0,26.86,5.67h.12c3.25,0,7-.21,10.4-1.69s6-4.38,6.6-7.45a6.14,6.14,0,0,0-.61-4.33c-1.42-2.39-4.81-3.46-7.79-4.4-.82-.26-1.6-.5-2.29-.76-4.31-1.6-9.41-3.44-14.63-5-12.07-3.6-21.94-4.58-31.08-3.1-.37.06-2.21.41-2.21,1.43,0,.51.47,1,1.47,1.51a63.77,63.77,0,0,0,16.69,5.88.49.49,0,0,1-.13,1l-9.72-.6a5.65,5.65,0,0,0-3.22.4,2,2,0,0,0-.91,1.35,1.15,1.15,0,0,0,.24.92,2.59,2.59,0,0,0,1.38.59c5.61,1.29,11.33,2.41,17,3.34.41.05.81.11,1.22.19a.5.5,0,0,1,.39.58.48.48,0,0,1-.56.4l-1.2-.19A17.6,17.6,0,0,0,77.19,227.57Z" fill="#231f20"/><path d="M62.26,245.72c-1.4.66-3,1.81-2.71,3.32q11.79-1,23.45-3.06a27.6,27.6,0,0,0-14.9,15c1.81.62,3.78,0,5.58-.66l23.85-8.44c-4.66,6-9.6,13.25-7.81,20.67.24,1,.82,2.14,1.84,2.2a2.72,2.72,0,0,0,1.85-1L111,257.49c2.27,1.8-.44,6.53,2.07,8,1.93,1.12,3.85-1.35,5.17-3.14,4-5.44,11.37-6.92,17.25-10.27a9.64,9.64,0,0,0,4.23-4c.84-1.79.54-4.23-1.12-5.3a6.38,6.38,0,0,0-2.76-.78C110.33,238.76,86.45,233.62,62.26,245.72Z" fill="#231f20"/><path d="M91.64,275.22h-.11c-1.07-.06-1.91-1-2.29-2.58-1.72-7.09,2.44-13.86,6.88-19.76l-22.27,7.88c-2,.72-4,1.31-5.91.66a.5.5,0,0,1-.29-.26.51.51,0,0,1,0-.4,27.9,27.9,0,0,1,12-13.7C73,248.15,66.27,249,59.59,249.54a.51.51,0,0,1-.53-.4c-.28-1.44.78-2.82,3-3.87,21.68-10.83,43-8,65.52-4.89,2.76.37,5.54.75,8.33,1.1a7,7,0,0,1,3,.86c2,1.27,2.2,4,1.3,5.93a10.29,10.29,0,0,1-4.43,4.22,62.91,62.91,0,0,1-5.92,2.83c-4.38,1.9-8.51,3.7-11.18,7.3-1.2,1.63-3.43,4.66-5.82,3.28-1.55-.89-1.45-2.77-1.37-4.42.07-1.3.13-2.53-.46-3.3L93.75,274.12A3.27,3.27,0,0,1,91.64,275.22Zm5.89-23.87a.49.49,0,0,1,.4.21.48.48,0,0,1,0,.59c-4.64,6-9.46,13-7.72,20.26.1.41.5,1.76,1.39,1.81a2.39,2.39,0,0,0,1.49-.83l17.58-16.27a.48.48,0,0,1,.64,0c1.31,1,1.22,2.84,1.14,4.43s-.15,2.92.86,3.51c1.49.85,3.12-1.1,4.53-3,2.83-3.82,7.28-5.75,11.58-7.62,2-.86,4-1.74,5.83-2.78a9.46,9.46,0,0,0,4-3.78c.7-1.5.54-3.71-.94-4.67a6.08,6.08,0,0,0-2.55-.71c-2.8-.35-5.58-.73-8.35-1.1-22.39-3-43.54-5.91-64.94,4.79h0c-.89.42-2.3,1.26-2.45,2.33,7.64-.65,15.33-1.66,22.89-3a.52.52,0,0,1,.57.35.5.5,0,0,1-.29.6,26.92,26.92,0,0,0-14.41,14.18,9.36,9.36,0,0,0,4.74-.8l23.84-8.44A.51.51,0,0,1,97.53,251.35Zm-35.27-5.63h0Z" fill="#231f20"/><path d="M221.1,251.62c2.78.32,6.27,0,7.42-2.51l-11.11-5.41c3.74.42,7.55.83,11.22.05s7.25-3,8.72-6.44l-12.63-3.4A65.24,65.24,0,0,0,239,228.58c2.44-1.24,5.07-3,5.35-5.77a1.85,1.85,0,0,0-.31-1.38c-.54-.63-1.53-.49-2.34-.3l-18.29,4.32c5.7-1.95,11.86-4.26,15-9.42a83.4,83.4,0,0,0-36,4.79c-8.13,3-17,12.28-9.05,20.38C199.42,247.44,212.88,250.66,221.1,251.62Z" fill="#231f20"/><path d="M222.91,252.22a17.29,17.29,0,0,1-1.87-.11h0c-9.23-1.07-22.13-4.48-28.09-10.56-2.7-2.76-3.75-6-3-9.22,1.26-5.59,7.23-10.13,12.25-12a83.93,83.93,0,0,1,36.26-4.81.48.48,0,0,1,.4.27.51.51,0,0,1,0,.48c-2,3.23-5,5.36-8.57,7l11.34-2.68c.94-.22,2.11-.37,2.82.47a2.23,2.23,0,0,1,.43,1.75c-.31,3.11-3.35,5-5.61,6.17a66.77,66.77,0,0,1-12.58,4.89l10.82,2.91a.51.51,0,0,1,.33.68c-1.4,3.3-4.8,5.81-9.08,6.72a28.29,28.29,0,0,1-8.56.26l8.57,4.18a.5.5,0,0,1,.24.65C227.91,251.68,225.19,252.22,222.91,252.22Zm-1.75-1.1c2,.23,5.34.28,6.68-1.79l-10.64-5.18a.5.5,0,0,1,.27-.94c3.65.4,7.43.82,11.06,0a11.61,11.61,0,0,0,8.12-5.62l-12.06-3.25a.5.5,0,0,1-.37-.49.49.49,0,0,1,.38-.47,65.78,65.78,0,0,0,14.18-5.29c2.06-1,4.82-2.75,5.08-5.38a1.42,1.42,0,0,0-.19-1c-.37-.43-1.23-.28-1.84-.14l-18.3,4.32a.49.49,0,0,1-.59-.34.5.5,0,0,1,.32-.61c5.78-2,11.23-4.14,14.27-8.52a83.07,83.07,0,0,0-35,4.83c-4.77,1.76-10.44,6-11.62,11.26-.67,3,.26,5.76,2.75,8.3,5.78,5.9,18.42,9.22,27.5,10.27Z" fill="#231f20"/><path d="M183.39,155.81a90.69,90.69,0,0,0-1.74,21.73,71.9,71.9,0,0,0,1.09,9.71,64.9,64.9,0,0,0,3.53,12.45A60.45,60.45,0,0,0,194,213.58c10.33,13.92,26.35,23.09,45.25,26.81,14,2.76,27.67,2.14,39.83-2a61.68,61.68,0,0,0,12.86-6.06s0,0,0,0A61,61,0,0,0,304.43,222a62.38,62.38,0,0,0,5.57-6.9c6-8.52,10.46-19.11,13-31.83a120.79,120.79,0,0,0,1.72-32.95q-.26-3.34-.7-6.65c-4.65-35-23.43-67.1-51.43-72.61-28.34-5.57-58.23,17.59-75.73,48.84q-1.6,2.85-3.06,5.8A120.94,120.94,0,0,0,183.39,155.81Z" fill="#68e1fd"/><path d="M264,70.22a44.49,44.49,0,0,1,8.59.83c28,5.51,46.78,37.56,51.43,72.61q.45,3.3.7,6.65A120.79,120.79,0,0,1,323,183.26c-2.5,12.72-7,23.31-13,31.83a62.38,62.38,0,0,1-5.57,6.9,61,61,0,0,1-12.49,10.32h0a61.68,61.68,0,0,1-12.86,6.06A71.29,71.29,0,0,1,256,242.07a86.62,86.62,0,0,1-16.77-1.68c-18.9-3.72-34.92-12.89-45.25-26.81a60.45,60.45,0,0,1-7.72-13.88,64.9,64.9,0,0,1-3.53-12.45,71.9,71.9,0,0,1-1.09-9.71,90.69,90.69,0,0,1,1.74-21.73,120.94,120.94,0,0,1,10.37-30.12q1.45-3,3.06-5.8c15.74-28.1,41.5-49.67,67.14-49.67m0-1c-12.41,0-25.52,5-37.89,14.5-11.63,8.92-22,21.25-30.13,35.68-1.1,2-2.14,3.94-3.07,5.84a121.43,121.43,0,0,0-10.46,30.38,91.63,91.63,0,0,0-1.76,22,74.8,74.8,0,0,0,1.1,9.84,66.79,66.79,0,0,0,3.59,12.64,61.92,61.92,0,0,0,7.85,14.11c10.33,13.92,26.19,23.32,45.86,27.19a87.8,87.8,0,0,0,17,1.7,72.28,72.28,0,0,0,23.38-3.74,62.79,62.79,0,0,0,13-6.11l.15-.1a62.17,62.17,0,0,0,12.63-10.45,64.67,64.67,0,0,0,5.66-7c6.26-8.92,10.68-19.75,13.12-32.2a121.46,121.46,0,0,0,1.74-33.23c-.18-2.27-.42-4.52-.71-6.71-2.38-17.91-8.45-34.89-17.12-47.8-9.47-14.13-21.61-23-35.11-25.65a45.85,45.85,0,0,0-8.78-.85Z" fill="#231f20"/><path d="M193.76,125.69a21.08,21.08,0,0,1,9.91,15.41c.45,4.3,0,8.86,2.34,12.69a10.28,10.28,0,0,0,11.05,4.35,15.49,15.49,0,0,0,9.68-6.91,39.44,39.44,0,0,0,3.42-6.81c.74-1.79,1.45-4.77,2.94-6.12,3.39-3.1,5.55,4.1,5.69,6.23.27,4.25-.37,8.52.94,12.67,2.58,8.17,11.45,10.22,18.66,6.88,8.88-4.1,11.22-13.46,16.56-20.81.55-.76,1.25-2,2.26-1.89s1.75,1.28,2.21,1.92a16.11,16.11,0,0,1,2.24,5.09c1.15,4.09,1.11,8.47,1.25,12.68.25,7,.61,19.36,10.29,19.44,9,.06,14.28-9.26,17.49-16.34,1.9-4.17,3.75-9,7.53-11.9a9.18,9.18,0,0,1,6.46-2q-.26-3.34-.7-6.65c-5.67.15-11.46,4.13-14.6,8.87-2.93,4.41-4.54,9.5-7.17,14.08-1.48,2.56-7.4,10.41-10.72,6.37-2.43-2.95-1.94-8.83-2.07-12.4a69.88,69.88,0,0,0-1.19-12.67c-.87-3.94-2.57-8.12-5.66-10.83-3.25-2.85-7.69-3.07-10.87,0-6.39,6.09-7.5,17.5-16.2,21.22-3.4,1.44-7.68,1.48-9.33-2.42-1.73-4.06-.45-8.9-1-13.17-.5-3.93-2.07-7.57-5.48-9.79-3.26-2.12-7.53-2.39-10.59.23-3.48,3-4.49,8.18-6.44,12.13-1.57,3.17-5.16,8-9.44,6.49-3.58-1.3-2.76-7.36-3-10.3a27.22,27.22,0,0,0-3.53-11.4,27.9,27.9,0,0,0-9.9-10.14Q195.22,122.74,193.76,125.69Z" fill="#fff"/><path d="M181.65,177.54a71.9,71.9,0,0,0,1.09,9.71,138,138,0,0,0,27.42,18.2c14.57,7.32,30.3,11.46,46.39,13.77A250.75,250.75,0,0,0,304.43,222a62.38,62.38,0,0,0,5.57-6.9q-7.37.61-14.76.62a250.29,250.29,0,0,1-47.84-4.63,132,132,0,0,1-40.9-15A130,130,0,0,1,181.65,177.54Z" fill="#fff"/><path d="M186.27,199.7A60.45,60.45,0,0,0,194,213.58a135.94,135.94,0,0,0,14.58,8.48c14.56,7.33,30.3,11.48,46.39,13.79,8,1.14,16,2,24.11,2.53a61.68,61.68,0,0,0,12.86-6.06,251.29,251.29,0,0,1-46.12-4.61,132.61,132.61,0,0,1-40.91-15A130.27,130.27,0,0,1,186.27,199.7Z" fill="#fff"/><circle cx="263.01" cy="183.19" r="7.44" fill="#fff"/><circle cx="283.74" cy="202.43" r="7.44" fill="#fff"/><circle cx="235.67" cy="197.06" r="7.44" fill="#fff"/><circle cx="258.37" cy="120.23" r="7.44" fill="#fff"/><circle cx="220.28" cy="174.78" r="7.44" fill="#fff"/><circle cx="236.87" cy="90.44" r="7.44" fill="#fff"/><circle cx="279.6" cy="98.85" r="7.44" fill="#fff"/><circle cx="295.83" cy="117.2" r="7.44" fill="#fff"/><circle cx="195.6" cy="169.93" r="7.44" fill="#fff"/><circle cx="224.73" cy="113.61" r="7.44" fill="#fff"/><path d="M152,253.35a84.28,84.28,0,0,0,31.15-3.95,61.88,61.88,0,0,0,36.13-31.18,75.68,75.68,0,0,0,7.05-21.65h0a91,91,0,0,0,1.17-10.84,89.79,89.79,0,0,0-.14-10.9h0a76,76,0,0,0-4.73-21.61,62.08,62.08,0,0,0-34.91-35.79,85.55,85.55,0,0,0-29-6.15,114.59,114.59,0,0,0-15.48.33A127.4,127.4,0,0,0,92.56,127.2a96.68,96.68,0,0,0-17.89,12.85c-10,9.2-17,20.16-19,32.19A44.24,44.24,0,0,0,55.16,183c1,13.43,8.09,26.11,18.87,36.92a96.75,96.75,0,0,0,10.44,9.05,126.32,126.32,0,0,0,46.31,21.39A117.48,117.48,0,0,0,152,253.35Z" fill="#68e1fd"/><path d="M153.52,111.13c1.73,0,3.46,0,5.19.13a85.55,85.55,0,0,1,29,6.15A62.08,62.08,0,0,1,222.6,153.2a76,76,0,0,1,4.73,21.61h0a89.79,89.79,0,0,1,.14,10.9,91,91,0,0,1-1.17,10.84h0a75.68,75.68,0,0,1-7.05,21.65,61.88,61.88,0,0,1-36.13,31.18,81.4,81.4,0,0,1-26.26,4.07q-2.42,0-4.89-.12a117.48,117.48,0,0,1-21.19-3,126.32,126.32,0,0,1-46.31-21.39A96.75,96.75,0,0,1,74,219.89C63.25,209.08,56.17,196.4,55.16,183a44.24,44.24,0,0,1,.49-10.73c2.05-12,9-23,19-32.19A96.68,96.68,0,0,1,92.56,127.2a127.4,127.4,0,0,1,50.67-15.61c3.44-.3,6.87-.46,10.29-.46m0-1c-3.4,0-6.89.16-10.38.46a128.89,128.89,0,0,0-51.08,15.74,98,98,0,0,0-18.07,13c-10.66,9.8-17.34,21.13-19.32,32.77a42,42,0,0,0-.59,5.42,44.64,44.64,0,0,0,.08,5.55c1,13,7.61,26,19.16,37.55a97.55,97.55,0,0,0,10.55,9.14,127.88,127.88,0,0,0,46.68,21.56,118.07,118.07,0,0,0,21.37,3c1.66.08,3.32.12,4.94.12a82.76,82.76,0,0,0,26.58-4.12,63,63,0,0,0,36.7-31.68,76.63,76.63,0,0,0,7.15-21.93v0a91.44,91.44,0,0,0,1-21.92v0a77.13,77.13,0,0,0-4.79-21.9,63.09,63.09,0,0,0-35.47-36.35,86.46,86.46,0,0,0-29.32-6.23c-1.72-.09-3.48-.13-5.23-.13Z" fill="#231f20"/><path d="M121.43,135.28c14.33-3.31,24.23-13.43,22.11-22.59a9.92,9.92,0,0,0-.31-1.1A127.4,127.4,0,0,0,92.56,127.2C96.33,134.69,108.47,138.27,121.43,135.28Z" fill="#fff"/><ellipse cx="154.65" cy="150.13" rx="17.03" ry="26.64" transform="translate(-2.64 297.5) rotate(-87.29)" fill="#fff"/><path d="M55.65,172.24a39.77,39.77,0,0,0,5.57-2.73c12.68-7.46,19.1-20.07,14.33-28.19a10.24,10.24,0,0,0-.88-1.27C64.65,149.25,57.7,160.21,55.65,172.24Z" fill="#fff"/><path d="M74,219.89c5.26-7.09,1.74-20-8.36-29.66A38.78,38.78,0,0,0,55.16,183C56.17,196.4,63.25,209.08,74,219.89Z" fill="#fff"/><ellipse cx="156.69" cy="216.47" rx="17.03" ry="26.64" transform="translate(-66.96 362.74) rotate(-87.29)" fill="#fff"/><ellipse cx="105.09" cy="179.92" rx="17.03" ry="26.64" transform="translate(-79.6 276.37) rotate(-87.29)" fill="#fff"/><path d="M205.54,201.74c8.23.39,15.7-1.65,20.76-5.17h0a91,91,0,0,0,1.17-10.84,89.79,89.79,0,0,0-.14-10.9h0c-4.7-4-12-6.71-20.18-7.1-14.69-.7-27,6.35-27.41,15.75S190.85,201,205.54,201.74Z" fill="#fff"/><path d="M222.6,153.2a62.08,62.08,0,0,0-34.91-35.79,10.27,10.27,0,0,0-1.47,1.87c-5,8,1.05,20.76,13.51,28.58C207.59,152.79,216.12,154.56,222.6,153.2Z" fill="#fff"/><path d="M183.12,249.4a61.88,61.88,0,0,0,36.13-31.18c-6.45-.87-14.64,1.29-22.06,6.41C187.14,231.55,181.64,241.72,183.12,249.4Z" fill="#fff"/><path d="M130.78,250.33c-.13-7.71-7.13-16.53-17.92-21.61-11-5.17-22.46-4.84-28.39.22A126.32,126.32,0,0,0,130.78,250.33Z" fill="#fff"/><path d="M147.32,137.5a.5.5,0,0,1-.49-.46l-1.52-16.8a.5.5,0,1,1,1-.09l1.52,16.8a.51.51,0,0,1-.45.55Z" fill="#231f20"/><path d="M162.42,143.31a.35.35,0,0,1-.17,0l-15-5.75c-3.61.79-9.46,2.22-10.27,2.79a.49.49,0,0,1-.69-.12.5.5,0,0,1,.12-.69c1.25-.88,9.8-2.77,10.77-3a.57.57,0,0,1,.29,0l15.1,5.81a.5.5,0,0,1-.18,1Z" fill="#231f20"/><path d="M121.81,52.39a40.11,40.11,0,0,1,17.36,1.79,25.71,25.71,0,1,1,27.61,39.93,40.37,40.37,0,1,1-45-41.72Z" fill="#fff"/><path d="M126.41,133.35A40.87,40.87,0,1,1,139,53.59a26.21,26.21,0,1,1,28.28,40.9,40.61,40.61,0,0,1-36.13,38.58A39.57,39.57,0,0,1,126.41,133.35Zm-4.55-80.47a39.86,39.86,0,1,0,44.42,41.21.52.52,0,0,1,.36-.47A25.36,25.36,0,0,0,185,66.41a25.21,25.21,0,0,0-27.94-22.15,25.31,25.31,0,0,0-17.49,10.21.5.5,0,0,1-.56.18,39.56,39.56,0,0,0-17.15-1.77Zm0-.49h0Z" fill="#231f20"/><path d="M128.39,146.91a.49.49,0,0,1-.5-.47l-1.51-26.22a.49.49,0,0,1,.46-.52.49.49,0,0,1,.53.47l1.51,26.22a.49.49,0,0,1-.47.52Z" fill="#231f20"/><path d="M143.49,152.72a.57.57,0,0,1-.18,0l-15-5.76c-3.61.8-9.47,2.23-10.27,2.79a.49.49,0,0,1-.69-.11.51.51,0,0,1,.11-.7c1.25-.88,9.81-2.77,10.78-3a.53.53,0,0,1,.28,0l15.11,5.81a.5.5,0,0,1-.18,1Z" fill="#231f20"/><path d="M143.49,146.91h-15.1a.5.5,0,1,1,0-1h15.1a.5.5,0,1,1,0,1Z" fill="#231f20"/><path d="M163.53,137.5H147.32a.51.51,0,0,1-.5-.5.5.5,0,0,1,.5-.5h16.21a.5.5,0,0,1,.5.5A.51.51,0,0,1,163.53,137.5Z" fill="#231f20"/><path d="M183.27,73.87l19.09,8.19-21.6-1.33S180.26,76.39,183.27,73.87Z" fill="#fff"/><path d="M202.36,82.56h0l-21.6-1.32a.5.5,0,0,1-.47-.44c0-.19-.49-4.64,2.69-7.3a.49.49,0,0,1,.52-.07l19.08,8.18a.5.5,0,0,1-.19,1Zm-21.13-2.3,18.3,1.13-16.17-6.94A7.82,7.82,0,0,0,181.23,80.26Z" fill="#231f20"/><path d="M180.76,80.73l15.87,5.77-15.44-2S179.6,83.89,180.76,80.73Z" fill="#fff"/><path d="M196.63,87h-.06l-15.44-2L181,85c-.08,0-2-.84-.72-4.41a.49.49,0,0,1,.64-.29L196.8,86a.51.51,0,0,1,.32.59A.51.51,0,0,1,196.63,87Zm-15.29-3,10.89,1.41-11.16-4.05C180.47,83.33,181.16,83.91,181.34,84Z" fill="#231f20"/><ellipse cx="172.82" cy="68.21" rx="1.97" ry="2.72" fill="#231f20"/><ellipse cx="180.7" cy="69.18" rx="1.97" ry="2.72" fill="#231f20"/><path d="M140,91.93s-25,34.73-30.92,13.61,5.34-29.28,5.34-29.28" fill="#fff"/><path d="M115.79,112.85a6.09,6.09,0,0,1-1.13-.1c-2.82-.5-4.85-2.88-6-7.08-3.1-11-1.45-18.55.48-22.89a17.74,17.74,0,0,1,5-6.93.5.5,0,1,1,.59.81c-.11.08-10.91,8.24-5.17,28.75,1.07,3.79,2.83,5.93,5.24,6.36,9,1.6,24.64-19.91,24.8-20.13a.51.51,0,0,1,.7-.11.5.5,0,0,1,.11.69C139.81,93.09,125.47,112.85,115.79,112.85Z" fill="#231f20"/><path d="M272.4,172.41s-34.89-5.36-35,2.57,17.29,23.24,28.16,24.78" fill="#fff"/><path d="M265.55,200.26h-.07c-11.08-1.56-28.72-17.16-28.59-25.28a3.09,3.09,0,0,1,1.2-2.38c5.89-5,33.23-.84,34.39-.67a.5.5,0,0,1-.15,1c-.29,0-28-4.25-33.59.44a2.11,2.11,0,0,0-.86,1.64c-.11,7.59,17.25,22.79,27.74,24.28a.49.49,0,0,1,.42.56A.5.5,0,0,1,265.55,200.26Z" fill="#231f20"/><path d="M261.15,235.57a.51.51,0,0,1-.39-.19.5.5,0,0,1,.09-.7l13.39-10.26a.5.5,0,1,1,.61.79l-13.39,10.26A.52.52,0,0,1,261.15,235.57Z" fill="#231f20"/><path d="M266.18,245.34a.5.5,0,0,1-.49-.44c-.12-1-3-6.25-4.89-9.45l-14.37-7.11a.5.5,0,0,1,.44-.9l14.5,7.19a.48.48,0,0,1,.21.19c.5.86,4.9,8.44,5.1,10a.49.49,0,0,1-.43.55Z" fill="#231f20"/><path d="M325.82,162.66a40.22,40.22,0,0,0-16.1-6.73,25.72,25.72,0,1,0-43.34,21.87,40.37,40.37,0,1,0,59.44-15.14Z" fill="#fff"/><path d="M302.49,236.53a40.87,40.87,0,0,1-36.72-58.63,26.21,26.21,0,1,1,44.39-22.39,40.48,40.48,0,0,1,15.95,6.74h0a40.87,40.87,0,0,1-16.55,73.67A41.25,41.25,0,0,1,302.49,236.53ZM284.26,134.08a25.21,25.21,0,0,0-17.54,43.36.49.49,0,0,1,.1.58,39.87,39.87,0,1,0,58.72-15h0a39.52,39.52,0,0,0-15.91-6.65.51.51,0,0,1-.41-.42,25.17,25.17,0,0,0-25-21.92Z" fill="#231f20"/><path d="M298.53,252.55h-.1A.51.51,0,0,1,298,252l5.17-25.75a.5.5,0,0,1,.59-.39.51.51,0,0,1,.39.59L299,252.15A.51.51,0,0,1,298.53,252.55Z" fill="#231f20"/><path d="M308.61,256.91a.51.51,0,0,1-.34-.14c-.72-.68-6.31-2.91-9.77-4.2l-15.63,3.6a.48.48,0,0,1-.59-.37.49.49,0,0,1,.37-.6l15.77-3.64a.54.54,0,0,1,.28,0c.93.35,9.14,3.42,10.25,4.46a.5.5,0,0,1-.34.87Z" fill="#231f20"/><path d="M298.53,252.55h-.07l-15-2.11a.5.5,0,0,1,.14-1l15,2.11a.51.51,0,0,1,.42.57A.5.5,0,0,1,298.53,252.55Z" fill="#231f20"/><path d="M261.15,235.57a.46.46,0,0,1-.36-.16l-11-11.93a.48.48,0,0,1,0-.7.49.49,0,0,1,.7,0l11,11.93a.49.49,0,0,1,0,.7A.5.5,0,0,1,261.15,235.57Z" fill="#231f20"/><path d="M261.57,152.14l-20.68-4.81,19.6,12S263,155.8,261.57,152.14Z" fill="#fff"/><path d="M260.49,159.87a.5.5,0,0,1-.26-.08l-19.6-12a.5.5,0,0,1,.37-.91l20.68,4.82a.46.46,0,0,1,.35.3c1.52,3.86-1,7.54-1.13,7.69A.5.5,0,0,1,260.49,159.87ZM243.76,148.5l16.57,10.18a7.8,7.8,0,0,0,.86-6.12Z" fill="#231f20"/><path d="M260.49,159.37l-19.6,2.33,17.42.77S260,162.69,260.49,159.37Z" fill="#fff"/><path d="M258.36,163h-.12l-17.37-.77a.5.5,0,0,1,0-1l19.6-2.33a.51.51,0,0,1,.42.15.47.47,0,0,1,.13.42C260.5,162.73,258.83,163,258.36,163ZM247,161.47l11.32.5c.06,0,1.07.05,1.55-2Z" fill="#231f20"/><ellipse cx="277" cy="149.43" rx="2.72" ry="1.97" transform="translate(33.3 348.61) rotate(-67.61)" fill="#231f20"/><ellipse cx="269.35" cy="147.33" rx="2.72" ry="1.97" transform="translate(30.52 340.23) rotate(-67.61)" fill="#231f20"/><path d="M303.81,172.47s37.93-20.9,40.87-13.47-16.35,32.45-34.6,38.18" fill="#fff"/><path d="M310.08,197.67a.48.48,0,0,1-.47-.34.49.49,0,0,1,.32-.63C323,192.61,337.4,178,342.68,167c1.63-3.4,2.17-6.16,1.53-7.78a1.79,1.79,0,0,0-1.15-1c-7.32-2.63-38.69,14.57-39,14.74a.49.49,0,0,1-.67-.19.5.5,0,0,1,.19-.68c1.31-.72,32.08-17.59,39.83-14.8a2.76,2.76,0,0,1,1.74,1.59c.75,1.9.21,4.86-1.56,8.57-5.37,11.24-20.05,26.09-33.35,30.26A.39.39,0,0,1,310.08,197.67Z" fill="#231f20"/></svg>