<svg xmlns="http://www.w3.org/2000/svg" viewBox="0 0 400 300"><g id="_449_easter_eggs_flatline" data-name="#449_easter_eggs_flatline"><path d="M271,150.22A55.49,55.49,0,0,1,267.14,163a44.78,44.78,0,0,1-2.79,5.29,39.88,39.88,0,0,1-4.78,6.29,37,37,0,0,1-7.48,6.17c-9,5.61-20.12,7.26-31.71,5.16a47,47,0,0,1-22.19-10,37.94,37.94,0,0,1-6-6.31h0a37.11,37.11,0,0,1-4.8-8.65,38.47,38.47,0,0,1-1.63-5.17,50.12,50.12,0,0,1-.28-21,74.07,74.07,0,0,1,6.36-19.13c.59-1.22,1.22-2.43,1.88-3.62C204.2,93.1,222,79.05,239.17,82.16c17.36,3.14,29.19,23,32.19,44.64.18,1.32.33,2.65.44,4A73.77,73.77,0,0,1,271,150.22Z" fill="#68e1fd"/><path d="M234.34,81.73a27.19,27.19,0,0,1,4.83.43c17.36,3.14,29.19,23,32.19,44.64.18,1.32.33,2.65.44,4a73.77,73.77,0,0,1-.81,19.44A55.49,55.49,0,0,1,267.14,163a44.78,44.78,0,0,1-2.79,5.29,39.88,39.88,0,0,1-4.78,6.29,37,37,0,0,1-7.48,6.17,41.52,41.52,0,0,1-22.2,6,52.76,52.76,0,0,1-9.51-.88,47,47,0,0,1-22.19-10,37.94,37.94,0,0,1-6-6.31h0a37.11,37.11,0,0,1-4.8-8.65,38.47,38.47,0,0,1-1.63-5.17,50.12,50.12,0,0,1-.28-21,74.07,74.07,0,0,1,6.36-19.13c.59-1.22,1.22-2.43,1.88-3.62,9.47-17.12,25-30.26,40.59-30.26m0-1v0h0c-7.64,0-15.66,3.08-23.2,8.92a71.1,71.1,0,0,0-18.26,21.86c-.66,1.18-1.3,2.41-1.91,3.67a74.6,74.6,0,0,0-6.45,19.38,51.45,51.45,0,0,0,.3,21.4,39.34,39.34,0,0,0,1.67,5.3,38.25,38.25,0,0,0,4.88,8.81l.09.12,0,0a38.6,38.6,0,0,0,6.06,6.41,48.3,48.3,0,0,0,22.67,10.24,54.56,54.56,0,0,0,9.68.89,42.75,42.75,0,0,0,22.73-6.19,38.12,38.12,0,0,0,7.68-6.34,40.32,40.32,0,0,0,4.91-6.45,47,47,0,0,0,2.84-5.4,56.45,56.45,0,0,0,3.92-13,74.46,74.46,0,0,0,.83-19.71c-.11-1.29-.26-2.65-.45-4-2.79-20.18-14.07-42.06-33-45.49a28,28,0,0,0-5-.45Z" fill="#231f20"/><path d="M271.8,130.78a12.88,12.88,0,0,0-9.07,6.56c-1.21,2.34-1.94,5-4.16,6.69a6.27,6.27,0,0,1-7.24,0,9.44,9.44,0,0,1-4-6.09,24,24,0,0,1-.43-4.63c0-1.19.24-3-.31-4.14-1.24-2.52-4.07,1.1-4.62,2.27-1.1,2.36-1.69,4.93-3.36,7-3.29,4.07-8.79,3.26-12.14-.24-4.13-4.32-3.38-10.16-4.78-15.53-.15-.55-.27-1.42-.87-1.58s-1.28.34-1.68.6a10.17,10.17,0,0,0-2.41,2.4,33,33,0,0,0-3.53,6.93c-1.7,3.91-4.67,10.87-10.19,8.76-5.13-2-6.06-8.44-6.3-13.18-.15-2.8-.12-6-1.63-8.45a5.65,5.65,0,0,0-3.24-2.56c.59-1.22,1.22-2.43,1.88-3.62,3.19,1.35,5.6,4.9,6.33,8.3.68,3.16.46,6.41.94,9.6.27,1.79,1.89,7.57,4.68,6,2-1.13,3.07-4.59,3.93-6.59a43,43,0,0,1,3.5-6.94,12.26,12.26,0,0,1,5.64-4.9,4.76,4.76,0,0,1,6.18,2.41c2.28,4.88.37,11.62,4.49,15.67,1.61,1.58,4,2.55,5.84.71s2.24-5,3.5-7.28a8,8,0,0,1,5.29-4.34,5.37,5.37,0,0,1,6,2.49c1.31,2.46.73,5.65,1,8.33.18,2.15,1.14,5.72,3.92,5.79,2.32.06,3.21-3.57,4-5.19a16.77,16.77,0,0,1,4.54-5.7,17.12,17.12,0,0,1,7.9-3.56C271.54,128.12,271.69,129.45,271.8,130.78Z" fill="#fff"/><path d="M267.14,163a44.78,44.78,0,0,1-2.79,5.29,84.57,84.57,0,0,1-19.64,4.23,91.58,91.58,0,0,1-29.45-2.5,152.81,152.81,0,0,1-27.84-9.09,38.47,38.47,0,0,1-1.63-5.17q4.05,2,8.25,3.64a152.15,152.15,0,0,0,28.24,8,80.79,80.79,0,0,0,26.6.58A79.37,79.37,0,0,0,267.14,163Z" fill="#fff"/><path d="M259.57,174.54a37,37,0,0,1-7.48,6.17,85.46,85.46,0,0,1-10.18,1.58,91.6,91.6,0,0,1-29.45-2.5c-4.79-1.13-9.57-2.41-14.27-3.93a37.94,37.94,0,0,1-6-6.31,153.74,153.74,0,0,0,27.26,7.65,80.8,80.8,0,0,0,26.6.58A79.11,79.11,0,0,0,259.57,174.54Z" fill="#fff"/><circle cx="219.61" cy="148.05" r="4.54" fill="#fff"/><circle cx="203.54" cy="154.37" r="4.54" fill="#fff"/><circle cx="232.07" cy="162.03" r="4.54" fill="#fff"/><circle cx="236.28" cy="113.28" r="4.54" fill="#fff"/><circle cx="245.78" cy="152.79" r="4.54" fill="#fff"/><circle cx="255.14" cy="101.13" r="4.54" fill="#fff"/><circle cx="228.97" cy="96.39" r="4.54" fill="#fff"/><circle cx="215.65" cy="103.22" r="4.54" fill="#fff"/><circle cx="260.9" cy="155.53" r="4.54" fill="#fff"/><circle cx="256.88" cy="117.01" r="4.54" fill="#fff"/><path d="M202.35,138.72a51.68,51.68,0,0,1-.51,19.17,37.84,37.84,0,0,1-16.76,23.85,46.55,46.55,0,0,1-12.73,5.59h0a54.4,54.4,0,0,1-6.51,1.37,56,56,0,0,1-6.64.58h0a46.64,46.64,0,0,1-13.42-1.56,38,38,0,0,1-23.87-19.05,52.31,52.31,0,0,1-5.49-17.24,70.13,70.13,0,0,1-.74-9.43,77.84,77.84,0,0,1,6.41-31.74,59.2,59.2,0,0,1,6.73-11.65c5-6.64,11.22-11.53,18.41-13.5a26.2,26.2,0,0,1,3.19-.68,28.25,28.25,0,0,1,3.3-.28c8.22-.19,16.36,3.34,23.58,9.23a59.45,59.45,0,0,1,6.13,5.8A76.8,76.8,0,0,1,199.22,126,71.37,71.37,0,0,1,202.35,138.72Z" fill="#fff"/><path d="M154.37,84.15c8,0,15.89,3.49,22.92,9.23a59.45,59.45,0,0,1,6.13,5.8A76.8,76.8,0,0,1,199.22,126a71.37,71.37,0,0,1,3.13,12.7,51.68,51.68,0,0,1-.51,19.17,37.84,37.84,0,0,1-16.76,23.85,46.55,46.55,0,0,1-12.73,5.59h0a54.4,54.4,0,0,1-6.51,1.37,56,56,0,0,1-6.64.58h-1.27a46.2,46.2,0,0,1-12.15-1.57,38,38,0,0,1-23.87-19.05,52.31,52.31,0,0,1-5.49-17.24,70.13,70.13,0,0,1-.74-9.43,77.84,77.84,0,0,1,6.41-31.74,59.2,59.2,0,0,1,6.73-11.65c5-6.64,11.22-11.53,18.41-13.5a26.2,26.2,0,0,1,3.19-.68,28.25,28.25,0,0,1,3.3-.28h.66m0-1h-.68a30.51,30.51,0,0,0-3.43.29,29.89,29.89,0,0,0-3.31.7c-7,1.93-13.58,6.73-18.94,13.87a60.23,60.23,0,0,0-6.84,11.85,79,79,0,0,0-6.5,32.15,70.77,70.77,0,0,0,.75,9.56,53.33,53.33,0,0,0,5.6,17.57,38.94,38.94,0,0,0,24.48,19.54,47.19,47.19,0,0,0,12.42,1.61h1.33a57,57,0,0,0,6.72-.59,54.53,54.53,0,0,0,6.61-1.39h0a47.39,47.39,0,0,0,13-5.72,38.85,38.85,0,0,0,17.19-24.47,52.66,52.66,0,0,0,.53-19.54,72.79,72.79,0,0,0-3.17-12.87,78.5,78.5,0,0,0-16-27.2,59.17,59.17,0,0,0-6.24-5.89c-7.58-6.19-15.73-9.46-23.55-9.46Z" fill="#231f20"/><path d="M128.74,127.32c-1.14,8.91-6.69,15.54-12.38,14.81a5,5,0,0,1-.69-.13,77.84,77.84,0,0,1,6.41-31.74C126.86,112.1,129.78,119.26,128.74,127.32Z" fill="#68e1fd"/><ellipse cx="139.79" cy="146.61" rx="10.4" ry="16.27" transform="translate(-19.94 22.03) rotate(-8.41)" fill="#68e1fd"/><path d="M147.22,85.11a26.52,26.52,0,0,1-1.32,3.55c-3.77,8.15-11.05,12.82-16.26,10.41a5.16,5.16,0,0,1-.83-.46C133.79,92,140,87.08,147.22,85.11Z" fill="#68e1fd"/><path d="M177.29,93.38c-4,3.63-12,2.28-18.53-3.28a23.37,23.37,0,0,1-5-5.95C161.93,84,170.07,87.49,177.29,93.38Z" fill="#68e1fd"/><ellipse cx="180.22" cy="143.83" rx="10.4" ry="16.27" transform="translate(-19.1 27.91) rotate(-8.41)" fill="#68e1fd"/><ellipse cx="154.88" cy="114.68" rx="10.4" ry="16.27" transform="translate(-15.11 23.89) rotate(-8.41)" fill="#68e1fd"/><path d="M174.23,174.4a20.84,20.84,0,0,1-1.88,12.93h0a54.4,54.4,0,0,1-6.51,1.37,56,56,0,0,1-6.64.58h0a20.87,20.87,0,0,1-5.54-11.83c-1.32-8.89,2.23-16.78,7.91-17.62S172.92,165.52,174.23,174.4Z" fill="#68e1fd"/><path d="M145.77,187.72a38,38,0,0,1-23.87-19.05,6.7,6.7,0,0,1,1-1c4.54-3.52,12.68-.62,18.19,6.48C144.61,178.62,146.2,183.69,145.77,187.72Z" fill="#68e1fd"/><path d="M201.84,157.89a37.84,37.84,0,0,1-16.76,23.85c-.92-3.87-.1-9,2.55-13.8C191.23,161.41,197.08,157.46,201.84,157.89Z" fill="#68e1fd"/><path d="M199.22,126c-4.68.39-10.47-3.32-14.21-9.57s-4.3-13.36-1.59-17.27A76.8,76.8,0,0,1,199.22,126Z" fill="#68e1fd"/><path d="M310.2,186.25a3,3,0,0,1-3-3V133.88c0-51.09-45.78-92.65-102-92.65s-102,41.56-102,92.65v49.37a3,3,0,0,1-6,0V133.88c0-54.4,48.47-98.65,108-98.65s108,44.25,108,98.65v49.37A3,3,0,0,1,310.2,186.25Z" fill="#231f20"/><path d="M297.56,188.29a56.77,56.77,0,0,1-3.44,4.63,48.06,48.06,0,0,1-9.95,9.28c-14.7,10.11-32.29,8.52-47.26-1.55-12.26-8.24-19.92-20.24-20.2-33.89A40.26,40.26,0,0,1,218.56,154a53.78,53.78,0,0,1,6.91-14.15,69.52,69.52,0,0,1,7.23-9,78.33,78.33,0,0,1,22.46-16.56,64,64,0,0,1,8.19-3.33c11.72-3.85,23.46-3.71,32.37,2.28,8.21,5.52,12.73,15.16,14.06,26.28a62.76,62.76,0,0,1,.4,8.84,75.57,75.57,0,0,1-2.78,18.28,77.72,77.72,0,0,1-2.92,8.6A72.37,72.37,0,0,1,297.56,188.29Z" fill="#68e1fd"/><path d="M278.52,108.3a30.34,30.34,0,0,1,17.2,4.89c8.21,5.52,12.73,15.16,14.06,26.28a62.76,62.76,0,0,1,.4,8.84,75.57,75.57,0,0,1-2.78,18.28,77.72,77.72,0,0,1-2.92,8.6,72.37,72.37,0,0,1-6.92,13.1,56.77,56.77,0,0,1-3.44,4.63,48.06,48.06,0,0,1-9.95,9.28A37.72,37.72,0,0,1,262.52,209c-8.72,0-17.55-3-25.61-8.39-12.26-8.24-19.92-20.24-20.2-33.89A40.26,40.26,0,0,1,218.56,154a53.78,53.78,0,0,1,6.91-14.15,69.52,69.52,0,0,1,7.23-9,78.33,78.33,0,0,1,22.46-16.56,64,64,0,0,1,8.19-3.33,48.83,48.83,0,0,1,15.17-2.61m0-1h0A50,50,0,0,0,263,110a67.08,67.08,0,0,0-8.31,3.38A78,78,0,0,0,238.46,124a78.87,78.87,0,0,0-6.49,6.15,71.07,71.07,0,0,0-7.33,9.14,54.67,54.67,0,0,0-7,14.42,41.45,41.45,0,0,0-1.9,13.1c.28,13.62,7.61,25.94,20.64,34.7,8.33,5.6,17.38,8.56,26.17,8.56a38.57,38.57,0,0,0,22.22-7,48.92,48.92,0,0,0,10.15-9.46c1.2-1.46,2.38-3,3.5-4.71a72.5,72.5,0,0,0,7-13.28,78.57,78.57,0,0,0,3-8.72,76.21,76.21,0,0,0,2.81-18.51,64.69,64.69,0,0,0-.41-9c-1.47-12.27-6.48-21.61-14.49-27a31.16,31.16,0,0,0-17.76-5.06Z" fill="#231f20"/><path d="M310.18,148.31a83.67,83.67,0,0,1-52.85-31.16c-.73-.94-1.47-1.91-2.17-2.91a64,64,0,0,1,8.19-3.33c1.11,1.41,2.27,2.73,3.3,3.92a75.35,75.35,0,0,0,31.06,21.35,73,73,0,0,0,12.07,3.29A62.76,62.76,0,0,1,310.18,148.31Z" fill="#fff"/><path d="M294.12,192.92a48.06,48.06,0,0,1-9.95,9.28A84.06,84.06,0,0,1,234,184.37a92.83,92.83,0,0,1-17.25-17.61A40.26,40.26,0,0,1,218.56,154c1.54,2.55,3.21,5,5,7.4,10.39,14,25.31,25,42.12,29.53A73.27,73.27,0,0,0,294.12,192.92Z" fill="#fff"/><path d="M304.48,175.19a80.58,80.58,0,0,1-48.05-17.94,108.92,108.92,0,0,1-22.35-24.39l-1.38-2.06a78.05,78.05,0,0,1,6.4-6.06,111.59,111.59,0,0,0,6.89,9.72c11.54,14.57,26.95,26.2,45.26,30.46a64.16,64.16,0,0,0,16.15,1.67A77.72,77.72,0,0,1,304.48,175.19Z" fill="#fff"/><path d="M256.71,125.15c-4.26-2.86-8.71,3.75-4.45,6.61S261,128,256.71,125.15Z" fill="#fff"/><path d="M275.21,140c-4.26-2.86-8.71,3.75-4.45,6.62S279.47,142.91,275.21,140Z" fill="#fff"/><path d="M296.77,151.11c-4.25-2.87-8.71,3.74-4.44,6.61S301,154,296.77,151.11Z" fill="#fff"/><path d="M234.54,151.54c-4.26-2.86-8.71,3.74-4.45,6.61S238.8,154.4,234.54,151.54Z" fill="#fff"/><path d="M256.53,170.75l-.21-.14c-4.26-2.87-8.71,3.74-4.45,6.61l.21.14C256.34,180.22,260.79,173.61,256.53,170.75Z" fill="#fff"/><path d="M284.4,184.08a3,3,0,0,0,0-1.52,3.05,3.05,0,0,0-.61-1.4,2.82,2.82,0,0,0-1.08-1.14l-1-.48a4,4,0,0,0-2-.13l-1,.32a4,4,0,0,0-1.57,1.37l-.23.34a4.42,4.42,0,0,0-.6,3,3,3,0,0,0,.6,1.4,3.05,3.05,0,0,0,1.09,1.14l.95.47a4,4,0,0,0,2,.13l1-.32a4,4,0,0,0,1.58-1.37l.22-.33A3,3,0,0,0,284.4,184.08Z" fill="#fff"/><path d="M283.35,112.58c-4.26-2.86-8.71,3.75-4.45,6.62S287.61,115.45,283.35,112.58Z" fill="#fff"/><path d="M298.47,122.26c-4.25-2.86-8.71,3.75-4.45,6.61S302.73,125.13,298.47,122.26Z" fill="#fff"/><path d="M237.61,156.19c.19,1.83.29,3.62.31,5.36a51.12,51.12,0,0,1-1,11,40.58,40.58,0,0,1-4.2,11.33c-6.67,12-19.13,19-33.9,20.47a53.44,53.44,0,0,1-7.56.24,45.87,45.87,0,0,1-12.84-2.3,39.07,39.07,0,0,1-8.58-4.08,37.27,37.27,0,0,1-7.09-5.86,38.11,38.11,0,0,1-4.35-5.57,43.55,43.55,0,0,1-4.17-8.43,53.49,53.49,0,0,1-2.75-11.34c-.11-.73-.19-1.47-.27-2.22a70.42,70.42,0,0,1-.29-9.32,77.29,77.29,0,0,1,1.51-12.76h0a77.66,77.66,0,0,1,4.34-14.25c6.43-15.54,17.7-27.59,31.57-29a30.53,30.53,0,0,1,17.88,4,46.23,46.23,0,0,1,8.74,6.33,61.16,61.16,0,0,1,6.69,7.17,70.49,70.49,0,0,1,5.32,7.67A79.26,79.26,0,0,1,235.27,144a72.44,72.44,0,0,1,1.82,8.25C237.31,153.54,237.48,154.87,237.61,156.19Z" fill="#68e1fd"/><path d="M191,99.38a31.45,31.45,0,0,1,15.21,4.19,46.23,46.23,0,0,1,8.74,6.33,61.16,61.16,0,0,1,6.69,7.17,70.49,70.49,0,0,1,5.32,7.67A79.26,79.26,0,0,1,235.27,144a72.44,72.44,0,0,1,1.82,8.25c.22,1.32.39,2.65.52,4,.19,1.83.29,3.62.31,5.36a51.12,51.12,0,0,1-1,11,40.58,40.58,0,0,1-4.2,11.33c-6.67,12-19.13,19-33.9,20.47a53.36,53.36,0,0,1-5.48.28c-.69,0-1.39,0-2.08,0a45.87,45.87,0,0,1-12.84-2.3,39.07,39.07,0,0,1-8.58-4.08,37.27,37.27,0,0,1-7.09-5.86,38.11,38.11,0,0,1-4.35-5.57,43.55,43.55,0,0,1-4.17-8.43,53.49,53.49,0,0,1-2.75-11.34c-.11-.73-.19-1.47-.27-2.22a68.76,68.76,0,0,1-.29-9.32,77.29,77.29,0,0,1,1.51-12.76h0a77.66,77.66,0,0,1,4.34-14.25c6.43-15.54,17.7-27.59,31.57-29a26.53,26.53,0,0,1,2.67-.14m0-1h0c-.92,0-1.86.05-2.77.14-13.16,1.32-25.27,12.37-32.39,29.58a78,78,0,0,0-4.4,14.44.09.09,0,0,1,0,.05,79.19,79.19,0,0,0-1.52,12.88,70.51,70.51,0,0,0,.3,9.46c.07.76.16,1.52.27,2.25a53.86,53.86,0,0,0,2.81,11.56,43.78,43.78,0,0,0,4.26,8.62,38.75,38.75,0,0,0,4.46,5.71,37.33,37.33,0,0,0,7.29,6,40.18,40.18,0,0,0,8.79,4.19,47.18,47.18,0,0,0,13.12,2.35c.7,0,1.42,0,2.12,0a55.3,55.3,0,0,0,5.58-.28c15.7-1.57,28-9,34.68-21a41.53,41.53,0,0,0,4.29-11.62,51.16,51.16,0,0,0,1.07-11.25c0-1.79-.13-3.62-.31-5.45-.14-1.36-.32-2.72-.53-4a73.9,73.9,0,0,0-1.85-8.36,82,82,0,0,0-3-8.65,80.66,80.66,0,0,0-5.45-10.83,72.73,72.73,0,0,0-5.4-7.77,61.93,61.93,0,0,0-6.8-7.29,47,47,0,0,0-8.93-6.46A32.24,32.24,0,0,0,191,98.38Z" fill="#231f20"/><path d="M214.92,109.9c-22.06,8.29-43.89,18.49-62.53,32.84a77.66,77.66,0,0,1,4.34-14.25c15.39-10.28,32.17-18.17,49.45-24.92A46.23,46.23,0,0,1,214.92,109.9Z" fill="#fff"/><path d="M226.93,124.74c-27.13,10-54.14,22.69-75.49,42.31-.11-.73-.19-1.47-.27-2.22a70.42,70.42,0,0,1-.29-9.32c.89-.75,1.8-1.49,2.71-2.22,20.3-16.24,43.79-27.18,68-36.22A70.49,70.49,0,0,1,226.93,124.74Z" fill="#fff"/><path d="M235.27,144c-27.6,10.07-55.19,22.88-76.91,42.85a43.55,43.55,0,0,1-4.17-8.43q3.1-2.76,6.34-5.34c21.35-17.09,46.23-28.3,71.78-37.62A79.1,79.1,0,0,1,235.27,144Z" fill="#fff"/><path d="M237.61,156.19c.19,1.83.29,3.62.31,5.36-24.2,9-48.22,20.25-68.12,36.7a37.27,37.27,0,0,1-7.09-5.86c1.15-1,2.32-1.95,3.5-2.89,21.1-16.88,45.64-28,70.88-37.28C237.31,153.54,237.48,154.87,237.61,156.19Z" fill="#fff"/><path d="M236.88,172.59a40.58,40.58,0,0,1-4.2,11.33,253,253,0,0,0-41.46,20.71,45.87,45.87,0,0,1-12.84-2.3C196.3,189.57,216.3,180.36,236.88,172.59Z" fill="#fff"/><path d="M184.33,162.78a55.56,55.56,0,0,1,2.25,13.12,45.31,45.31,0,0,1-.13,6,39.71,39.71,0,0,1-1.47,7.77A36.86,36.86,0,0,1,181,198.5c-5.52,9-14.76,15.49-26,18.79a47.22,47.22,0,0,1-24.34,1,37.92,37.92,0,0,1-8.15-3s0,0,0,0a37.25,37.25,0,0,1-8.16-5.6,38.64,38.64,0,0,1-3.77-3.89,50.32,50.32,0,0,1-9.62-18.65,73.81,73.81,0,0,1-2.85-20q0-2,.06-4.08c.91-21.58,10.58-42.1,27.31-47,16.93-4.94,36.38,7.51,48.74,25.56.75,1.1,1.47,2.22,2.17,3.36A73.6,73.6,0,0,1,184.33,162.78Z" fill="#68e1fd"/><path d="M133.19,115c14.86,0,30.5,11.3,41,26.65.75,1.1,1.47,2.22,2.17,3.36a73.6,73.6,0,0,1,8,17.75,55.56,55.56,0,0,1,2.25,13.12,45.31,45.31,0,0,1-.13,6,39.71,39.71,0,0,1-1.47,7.77A36.86,36.86,0,0,1,181,198.5c-5.52,9-14.76,15.49-26,18.79a51.28,51.28,0,0,1-14.34,2.13,42.55,42.55,0,0,1-10-1.17,37.92,37.92,0,0,1-8.15-3h0a37.25,37.25,0,0,1-8.16-5.6,38.64,38.64,0,0,1-3.77-3.89,50.32,50.32,0,0,1-9.62-18.65,73.81,73.81,0,0,1-2.85-20q0-2,.06-4.08c.91-21.58,10.58-42.1,27.31-47a27.45,27.45,0,0,1,7.73-1.09m0-1v0a28.52,28.52,0,0,0-8,1.13C117,117.53,110,123.66,105,132.86c-4.59,8.38-7.37,19.1-7.84,30.19-.06,1.35-.08,2.74-.06,4.13A74.16,74.16,0,0,0,100,187.4a51.44,51.44,0,0,0,9.82,19,40.48,40.48,0,0,0,3.86,4,38.3,38.3,0,0,0,8.32,5.71l.14.07a38.43,38.43,0,0,0,8.3,3,43.54,43.54,0,0,0,10.23,1.2,52.28,52.28,0,0,0,14.62-2.17c11.84-3.46,21-10.11,26.63-19.23a37.92,37.92,0,0,0,4-9.1,40.87,40.87,0,0,0,1.5-8,45.91,45.91,0,0,0,.14-6.1,56.22,56.22,0,0,0-2.29-13.36,74.6,74.6,0,0,0-8.07-18c-.67-1.1-1.41-2.25-2.2-3.4C163.58,124.4,147.56,114,133.2,114Z" fill="#231f20"/><path d="M176.37,145a12.84,12.84,0,0,0-5.18,9.91c0,2.64.51,5.39-.73,7.85A6.26,6.26,0,0,1,164,166a9.47,9.47,0,0,1-6.27-3.67,23.65,23.65,0,0,1-2.45-4c-.55-1.06-1.15-2.82-2.13-3.57-2.23-1.69-3.15,2.8-3.11,4.1.07,2.61.69,5.17.12,7.76-1.13,5.11-6.41,6.85-11,5.21-5.62-2-7.56-7.58-11.21-11.75-.38-.44-.87-1.15-1.48-1s-1,.88-1.24,1.29a9.88,9.88,0,0,0-1.08,3.22,33.18,33.18,0,0,0-.07,7.78c.23,4.26.69,11.81-5.19,12.39-5.47.53-9.19-4.85-11.54-9-1.38-2.44-2.77-5.3-5.22-6.83a5.64,5.64,0,0,0-4-.84q0-2,.06-4.08c3.46-.22,7.2,1.88,9.36,4.59,2,2.53,3.29,5.54,5.14,8.18,1,1.47,5.07,5.93,6.87,3.28,1.31-1.92.69-5.47.58-7.65a41.16,41.16,0,0,1,0-7.77,12.18,12.18,0,0,1,2.85-6.9,4.77,4.77,0,0,1,6.61-.62c4.21,3.35,5.52,10.24,11,12,2.15.69,4.76.48,5.55-2s-.22-5.44-.12-8.07a8,8,0,0,1,2.79-6.25,5.36,5.36,0,0,1,6.46-.44c2.28,1.62,3.18,4.73,4.58,7,1.12,1.83,3.58,4.6,6.1,3.42,2.1-1,1.27-4.62,1.25-6.42a16.57,16.57,0,0,1,1.52-7.13,17,17,0,0,1,5.47-6.71C175,142.77,175.67,143.89,176.37,145Z" fill="#fff"/><path d="M186.58,175.9a45.31,45.31,0,0,1-.13,6,84.46,84.46,0,0,1-15.69,12.57,91.74,91.74,0,0,1-27.46,10.92,153.28,153.28,0,0,1-29,4.3,38.64,38.64,0,0,1-3.77-3.89c3,0,6-.17,9-.43a153.57,153.57,0,0,0,28.85-5.43,81,81,0,0,0,24.06-11.37A79.89,79.89,0,0,0,186.58,175.9Z" fill="#fff"/><path d="M185,189.64A36.86,36.86,0,0,1,181,198.5a82.29,82.29,0,0,1-8.4,6,91.48,91.48,0,0,1-27.46,10.92c-4.79,1.14-9.64,2.12-14.53,2.87a37.92,37.92,0,0,1-8.15-3,152.83,152.83,0,0,0,27.8-5.33,80.75,80.75,0,0,0,24.06-11.37A79.39,79.39,0,0,0,185,189.64Z" fill="#fff"/><circle cx="137.4" cy="183.79" r="4.54" fill="#fff"/><circle cx="125.85" cy="196.63" r="4.54" fill="#fff"/><circle cx="154.79" cy="190.74" r="4.54" fill="#fff"/><circle cx="136.78" cy="145.24" r="4.54" fill="#fff"/><circle cx="162.93" cy="176.34" r="4.54" fill="#fff"/><circle cx="148.22" cy="125.95" r="4.54" fill="#fff"/><circle cx="122.69" cy="133.4" r="4.54" fill="#fff"/><circle cx="113.82" cy="145.46" r="4.54" fill="#fff"/><circle cx="177.68" cy="172.04" r="4.54" fill="#fff"/><circle cx="156.87" cy="139.38" r="4.54" fill="#fff"/><path d="M277.88,198.77a51.51,51.51,0,0,1-8.73,17.08,37.81,37.81,0,0,1-25.42,14.28,46.19,46.19,0,0,1-13.89-.45h0a55.9,55.9,0,0,1-12.71-3.92h0a46.8,46.8,0,0,1-11.44-7.2,38,38,0,0,1-13.3-27.48,52.11,52.11,0,0,1,2.48-17.93,70.28,70.28,0,0,1,3.4-8.82,77.65,77.65,0,0,1,19.48-25.86,59.08,59.08,0,0,1,11.1-7.61c7.36-3.85,15.1-5.56,22.43-4.24a26.61,26.61,0,0,1,3.17.77,27.45,27.45,0,0,1,3.1,1.17c7.5,3.37,13.32,10.07,17.29,18.5a59.27,59.27,0,0,1,3,7.88,76.93,76.93,0,0,1,2.67,31A71.63,71.63,0,0,1,277.88,198.77Z" fill="#68e1fd"/><path d="M246.27,126.18a27.94,27.94,0,0,1,5,.44,26.61,26.61,0,0,1,3.17.77,27.45,27.45,0,0,1,3.1,1.17c7.5,3.37,13.32,10.07,17.29,18.5a59.27,59.27,0,0,1,3,7.88,76.93,76.93,0,0,1,2.67,31,71.63,71.63,0,0,1-2.66,12.8,51.51,51.51,0,0,1-8.73,17.08,37.81,37.81,0,0,1-25.42,14.28,43.21,43.21,0,0,1-5.36.33,47.82,47.82,0,0,1-8.53-.78h0a55.9,55.9,0,0,1-12.71-3.92h0a46.8,46.8,0,0,1-11.44-7.2,38,38,0,0,1-13.3-27.48,52.11,52.11,0,0,1,2.48-17.93,70.28,70.28,0,0,1,3.4-8.82,77.65,77.65,0,0,1,19.48-25.86,59.08,59.08,0,0,1,11.1-7.61,37.9,37.9,0,0,1,17.42-4.68m0-1h0A38.76,38.76,0,0,0,228.38,130a60.16,60.16,0,0,0-11.28,7.74,79.13,79.13,0,0,0-19.74,26.2,71.88,71.88,0,0,0-3.45,9,53.41,53.41,0,0,0-2.52,18.26A38.9,38.9,0,0,0,205,219.31a47.35,47.35,0,0,0,11.68,7.36l0,0a56.71,56.71,0,0,0,6.32,2.37,55.44,55.44,0,0,0,6.56,1.6h0a50.19,50.19,0,0,0,8.71.79,45.21,45.21,0,0,0,5.49-.34,38.85,38.85,0,0,0,26.07-14.65,52.54,52.54,0,0,0,8.9-17.4,72.14,72.14,0,0,0,2.7-13,78.3,78.3,0,0,0-2.7-31.44,60.82,60.82,0,0,0-3.09-8c-4.3-9.13-10.44-15.7-17.78-19a26.74,26.74,0,0,0-6.5-2,28.71,28.71,0,0,0-5.19-.46Z" fill="#231f20"/><path d="M216.4,156.73c-4.88,7.54-12.74,11.13-17.57,8a5.34,5.34,0,0,1-.56-.41,77.65,77.65,0,0,1,19.48-25.86C221.27,142.19,220.81,149.91,216.4,156.73Z" fill="#fff"/><ellipse cx="218.04" cy="178.89" rx="16.27" ry="10.4" transform="translate(-17.2 334.47) rotate(-72.85)" fill="#fff"/><path d="M251.28,126.62a24.28,24.28,0,0,1-2.72,2.63c-6.92,5.74-15.5,6.8-19.16,2.38a5.15,5.15,0,0,1-.55-.77C236.21,127,244,125.3,251.28,126.62Z" fill="#fff"/><path d="M274.84,147.06c-5.16,1.55-11.85-3.14-15.3-10.95a23.6,23.6,0,0,1-2-7.55C265.05,131.93,270.87,138.63,274.84,147.06Z" fill="#fff"/><ellipse cx="255.72" cy="193.83" rx="16.27" ry="10.4" transform="translate(-4.91 381.01) rotate(-72.85)" fill="#fff"/><ellipse cx="245.43" cy="156.61" rx="16.27" ry="10.4" transform="translate(23.41 344.94) rotate(-72.85)" fill="#fff"/><path d="M237.12,218.83a20.86,20.86,0,0,1-7.28,10.85h0a55.9,55.9,0,0,1-12.71-3.92h0a20.87,20.87,0,0,1,.1-13.06c2.65-8.59,9.25-14.18,14.74-12.48S239.76,210.25,237.12,218.83Z" fill="#fff"/><path d="M205.69,218.56a38,38,0,0,1-13.3-27.48,6,6,0,0,1,1.37-.46c5.62-1.22,11.71,4.91,13.62,13.69C208.58,209.85,207.82,215.12,205.69,218.56Z" fill="#fff"/><path d="M269.15,215.85a37.81,37.81,0,0,1-25.42,14.28c.84-3.89,3.79-8.14,8.27-11.35C258.06,214.45,265,213.4,269.15,215.85Z" fill="#fff"/><path d="M280.54,186c-4.4-1.67-8-7.52-8.69-14.77s1.88-13.91,6-16.26A76.93,76.93,0,0,1,280.54,186Z" fill="#fff"/><path d="M97,188.88c0,.83,13.62,41.26,20.22,53.64s21,16.08,37.95,17.32,122,7.71,137.13-12.95c7.92-10.82,22.94-69.14,22.94-69.14S264,206.82,214.58,204.15,97,188.88,97,188.88Z" fill="#fff"/><path d="M209.18,262.29c-25.79,0-48.75-1.56-54.05-2-14.91-1.09-31.13-4-38.36-17.59-6.67-12.51-20.27-52.87-20.27-53.87a.53.53,0,0,1,.18-.38.5.5,0,0,1,.41-.11c.68.13,68.7,12.62,117.51,15.26S314.48,177.6,315,177.31a.5.5,0,0,1,.73.56c-.61,2.39-15.13,58.54-23,69.31C283.71,259.47,243.87,262.29,209.18,262.29ZM97.69,189.52c1.66,5.5,13.82,41.24,20,52.76,7,13.13,22.91,16,37.55,17.06,44.89,3.29,124.21,4.3,136.68-12.75,7.18-9.8,20.44-59.71,22.57-67.85-7.13,3.84-50.33,26.08-93.45,26.08-2.15,0-4.31-.06-6.46-.17C168.49,202.16,105.39,190.91,97.69,189.52Z" fill="#231f20"/><path d="M131.66,250.17a.51.51,0,0,1-.43-.24c-14.48-23.49-16.28-49.14-16.3-49.39a.49.49,0,0,1,.47-.53.51.51,0,0,1,.53.46c0,.26,1.81,25.67,16.15,48.93a.51.51,0,0,1-.42.77Z" fill="#d1d3d4"/><path d="M147.61,250.17a.46.46,0,0,1-.4-.21c-9.59-12.86-16-43.61-16-43.92a.49.49,0,0,1,.38-.59.5.5,0,0,1,.6.39c.06.3,6.41,30.84,15.86,43.53a.51.51,0,0,1-.1.7A.57.57,0,0,1,147.61,250.17Z" fill="#d1d3d4"/><path d="M193.54,255.12a.5.5,0,0,1-.48-.37c-4.37-15.27-6.33-48.45-6.35-48.78a.5.5,0,0,1,.47-.53.48.48,0,0,1,.53.47c0,.33,2,33.4,6.31,48.57a.51.51,0,0,1-.35.62Z" fill="#d1d3d4"/><path d="M215.81,255.12l-.14,0a.51.51,0,0,1-.34-.62c3.79-13,1.93-44.21,1.91-44.52a.49.49,0,0,1,.47-.53.51.51,0,0,1,.53.46c.08,1.29,1.88,31.73-2,44.87A.49.49,0,0,1,215.81,255.12Z" fill="#d1d3d4"/><path d="M237.54,252.64l-.15,0a.49.49,0,0,1-.32-.63c6-18.44,9-45,9-45.28a.5.5,0,0,1,.55-.45.49.49,0,0,1,.44.56c0,.26-3,26.94-9,45.48A.5.5,0,0,1,237.54,252.64Z" fill="#d1d3d4"/><path d="M268.07,234.21a.44.44,0,0,1-.16,0,.51.51,0,0,1-.31-.64c2.69-7.8,2.45-30.13,2.45-30.36a.49.49,0,0,1,.49-.5h0a.51.51,0,0,1,.5.49c0,.92.24,22.73-2.51,30.7A.5.5,0,0,1,268.07,234.21Z" fill="#d1d3d4"/><path d="M281.55,248.79a.5.5,0,0,1-.44-.74c9.76-17.89,18-48.27,18.11-48.57a.5.5,0,1,1,1,.26c-.08.31-8.38,30.8-18.19,48.79A.5.5,0,0,1,281.55,248.79Z" fill="#d1d3d4"/><path d="M210.43,249.47c-7.94,0-16.51-.21-25.74-.68a.5.5,0,0,1-.48-.52.48.48,0,0,1,.53-.48c74,3.79,105.35-9.52,105.66-9.65a.5.5,0,0,1,.66.26.51.51,0,0,1-.26.66C290.53,239.17,266.29,249.47,210.43,249.47Z" fill="#d1d3d4"/><path d="M199.31,235.73c-31.85,0-67.34-4.9-67.72-5a.5.5,0,0,1-.43-.56.51.51,0,0,1,.56-.43c.43.06,42.75,5.9,76.38,4.81h0a.5.5,0,0,1,0,1C205.24,235.68,202.29,235.73,199.31,235.73Z" fill="#d1d3d4"/><path d="M233.69,235.73a.5.5,0,0,1,0-1c.45,0,45.48-1.42,67.11-16.69a.49.49,0,0,1,.69.12.5.5,0,0,1-.12.7c-21.87,15.45-67.2,16.86-67.65,16.87Z" fill="#d1d3d4"/><path d="M205.49,217.46a221.73,221.73,0,0,1-26.05-1.68.5.5,0,0,1,.14-1c.28,0,28.22,3.75,45.2,0a.5.5,0,1,1,.22,1A95.45,95.45,0,0,1,205.49,217.46Z" fill="#d1d3d4"/><path d="M159.47,222.65c-23.4,0-45.61-6.81-45.84-6.89a.5.5,0,0,1-.33-.62.51.51,0,0,1,.63-.33c.23.07,23.86,7.34,48,6.82h0a.5.5,0,0,1,.5.49.52.52,0,0,1-.49.51Z" fill="#d1d3d4"/><path d="M167.41,248.79a.49.49,0,0,1-.41-.21c-5.77-8.24-11.4-35.87-11.63-37a.49.49,0,0,1,.39-.59.5.5,0,0,1,.59.39c.06.28,5.82,28.59,11.47,36.66a.51.51,0,0,1-.12.7A.52.52,0,0,1,167.41,248.79Z" fill="#d1d3d4"/><path d="M67.71,182.7a8.26,8.26,0,0,0,0,8.16l27.23-8.16s-8.22-7.66-12.79-7S67.71,182.7,67.71,182.7Z" fill="#231f20"/><path d="M67.71,191.36a.5.5,0,0,1-.43-.25,8.66,8.66,0,0,1,0-8.68.54.54,0,0,1,.15-.15c.41-.27,10-6.44,14.64-7.09s12.86,6.82,13.2,7.14a.51.51,0,0,1,.15.48.53.53,0,0,1-.35.36l-27.23,8.17Zm.37-8.31a7.73,7.73,0,0,0-.13,7.22l26-7.8c-2-1.75-8.15-6.79-11.72-6.29C78.05,176.76,69.12,182.39,68.08,183.05Z" fill="#231f20"/><path d="M271.92,190.53c-30.5,6.33-101.9,3.72-101.9,3.72s-9.07-5.78-12.37-4.95-22.69-.42-31.77-2.48-22.9-7.58-25-11.18a23.1,23.1,0,0,1-2.83-8.19s-5.2.81-7.27,2.46-2.88,5-8.66,5.77-10.73.83-14.44,7c0,0,13.61-3.3,16.5,0s5.37,17.74,9.9,20.21,9.9-4.12,12-3.3,23.1,16.5,38.36,16.5,47.45-9.07,52.81-6.6S227.37,224,236,221.89s28-14,36.72-14,29.29,2.48,33.82-2.06,8.67-16.92,8.67-16.92a21.81,21.81,0,0,0,10.31-4.12c4.95-3.71,10.32-4.95,6.6-7s-13.61-6.6-13.61-6.6,4.95-2.89,2.47-5.78-12.19-5.17-12.19-5.17S307,183.25,271.92,190.53Z" fill="#fff"/><path d="M233.73,222.62c-9.57,0-28.76-9-35.45-12.08L197,210c-2.67-1.24-13,.68-24,2.71-10,1.84-21.27,3.93-28.56,3.93-12.6,0-28.81-10.38-35.73-14.81-1.39-.89-2.48-1.59-2.82-1.73-.57-.22-1.9.6-3.18,1.39-2.45,1.5-5.8,3.55-8.84,1.89C91,201.79,89,196,87.23,190.88,86.06,187.5,85,184.3,83.84,183c-2.21-2.52-12.31-.74-16,.15a.5.5,0,0,1-.55-.74c3.46-5.77,7.91-6.35,13.07-7l1.73-.23a9.42,9.42,0,0,0,6.82-4,11.72,11.72,0,0,1,1.6-1.69C92.64,167.8,97.79,167,98,167a.51.51,0,0,1,.38.1.47.47,0,0,1,.19.34,23,23,0,0,0,2.76,8c1.91,3.31,15.15,8.78,24.65,10.94,9.32,2.12,28.45,3.26,31.53,2.48,3.3-.82,11.28,4.08,12.65,4.94,3.52.13,72.18,2.41,101.65-3.7l.1.49-.1-.49c17.93-3.73,26.9-11.66,31.27-17.65a27,27,0,0,0,5.23-12.24.49.49,0,0,1,.2-.37.54.54,0,0,1,.41-.08c.4.1,9.91,2.36,12.46,5.33a3,3,0,0,1,.78,2.53,6.29,6.29,0,0,1-2.61,3.49c2.44,1.13,9.77,4.55,12.84,6.25.63.35,1.48.92,1.49,1.77,0,1.15-1.45,2-3.67,3.29a42.84,42.84,0,0,0-4.37,2.79,22.47,22.47,0,0,1-10.24,4.19c-.68,2-4.46,12.58-8.68,16.8-3.64,3.65-16.37,3-26.6,2.49-3-.15-5.59-.28-7.58-.28-5,0-13.93,4.2-21.82,7.91-5.74,2.7-11.16,5.24-14.78,6.11A11.08,11.08,0,0,1,233.73,222.62Zm-39.51-14a8.2,8.2,0,0,1,3.24.47l1.24.57c7.24,3.38,29.28,13.66,37.21,11.77,3.53-.84,8.9-3.36,14.6-6,8.37-3.93,17-8,22.24-8,2,0,4.62.13,7.63.28,9.5.48,22.51,1.13,25.84-2.19,4.4-4.41,8.5-16.6,8.54-16.72a.51.51,0,0,1,.44-.34,21.71,21.71,0,0,0,10.05-4,45.45,45.45,0,0,1,4.47-2.86c1.56-.9,3.18-1.84,3.17-2.41,0-.11-.1-.42-1-.91-3.65-2-13.48-6.53-13.58-6.58a.5.5,0,0,1-.29-.43.51.51,0,0,1,.25-.46s2.59-1.53,2.89-3.31a2,2,0,0,0-.55-1.71c-2-2.35-9.33-4.35-11.39-4.87a28.49,28.49,0,0,1-5.3,12.11c-4.47,6.16-13.63,14.3-31.92,18.09h0c-30.21,6.27-101.3,3.75-102,3.73a.57.57,0,0,1-.25-.08c-2.47-1.57-9.43-5.53-12-4.89-3.47.87-23.18-.46-32-2.47-8.57-1.95-23-7.5-25.29-11.42A24,24,0,0,1,97.66,168c-1.33.25-5,1-6.54,2.27a10.38,10.38,0,0,0-1.45,1.55,10.41,10.41,0,0,1-7.45,4.33l-1.74.23c-4.76.62-8.58,1.12-11.68,5.53,3.57-.77,13.21-2.52,15.79.43,1.24,1.42,2.33,4.55,3.59,8.19,1.71,4.94,3.65,10.54,6.17,11.91s5.47-.42,7.83-1.87c1.71-1,3-1.87,4.08-1.45a27.75,27.75,0,0,1,3,1.81c6.85,4.38,22.88,14.65,35.19,14.65,7.2,0,18.45-2.08,28.38-3.91C181.69,210.06,189.63,208.59,194.22,208.59Z" fill="#231f20"/><path d="M106.08,200.11a.49.49,0,0,1-.46-.3.5.5,0,0,1,.26-.66c.11-.05,11-4.72,15.26-8.66a.5.5,0,1,1,.68.74c-4.42,4.05-15.09,8.65-15.55,8.84A.43.43,0,0,1,106.08,200.11Z" fill="#231f20"/><path d="M161.91,207.26a.53.53,0,0,1-.24-.06.5.5,0,0,1-.2-.68c1.91-3.55,7.89-12.19,8.14-12.56a.51.51,0,0,1,.7-.12.5.5,0,0,1,.12.69c-.06.09-6.19,9-8.08,12.47A.49.49,0,0,1,161.91,207.26Z" fill="#231f20"/><path d="M246.55,218.26a.5.5,0,0,1-.4-.19c-.34-.45-8.27-10.89-9.1-15.9a.51.51,0,0,1,.41-.58.51.51,0,0,1,.58.41c.79,4.78,8.82,15.35,8.91,15.46a.51.51,0,0,1-.1.7A.49.49,0,0,1,246.55,218.26Z" fill="#231f20"/><path d="M315.24,189.38a.49.49,0,0,1-.21,0c-.07,0-6.95-3.24-11.95-2.44a.51.51,0,0,1-.58-.41.5.5,0,0,1,.42-.57c5.31-.85,12.24,2.37,12.53,2.51a.5.5,0,0,1,.24.67A.48.48,0,0,1,315.24,189.38Z" fill="#231f20"/><path d="M318.54,171.65a.54.54,0,0,1-.21-.05,103.31,103.31,0,0,0-11.73-3.95.5.5,0,1,1,.26-1,103,103,0,0,1,11.89,4,.5.5,0,0,1,.24.67A.49.49,0,0,1,318.54,171.65Z" fill="#231f20"/></g></svg>