<svg xmlns="http://www.w3.org/2000/svg" viewBox="0 0 400 300"><g id="_334_eco_car_flatline" data-name="#334_eco_car_flatline"><ellipse cx="258.73" cy="242.96" rx="82.42" ry="3.77" fill="#e6e7e8"/><path d="M155.21,242c-7.67,0-8.81-20.33-9.67-51.33-.17-6.37-.34-12.38-.62-17.5-.72-12.94-3.77-14.56-4-14.66a1.34,1.34,0,0,1,.44-2.64c1.25.16,5.38,1.85,6.23,17.15.28,5.16.45,11.19.63,17.57.32,11.81.66,24,1.79,33.58,1.61,13.68,4.17,15.16,5.2,15.16,5.82,0,6.83-26.87,7.17-35.69.09-2.54.17-4.54.27-5.74.58-6.53,2.22-10.58,4.88-12a4.49,4.49,0,0,1,4.1-.13,1.34,1.34,0,0,1-1.25,2.36,1.86,1.86,0,0,0-1.62.14c-1,.58-2.8,2.63-3.44,9.88-.1,1.14-.18,3.11-.27,5.61A217.13,217.13,0,0,1,163.27,227C161.71,237.19,159.14,242,155.21,242ZM141,158.49Zm0,0Z" fill="#fff"/><path d="M155.21,242.42c-8.1,0-9.23-19.57-10.12-51.78v-.12c-.17-6.32-.34-12.28-.62-17.37-.7-12.74-3.7-14.25-3.73-14.26a1.75,1.75,0,0,1-1.31-1.95,1.79,1.79,0,0,1,2-1.56c1.71.21,5.78,2.35,6.62,17.57.29,5.14.45,11.13.63,17.47v.12c.33,11.79.67,24,1.79,33.53,1.66,14.05,4.25,14.76,4.75,14.76,4.45,0,6.1-19.17,6.71-35.25.09-2.42.17-4.52.28-5.76.59-6.7,2.31-10.86,5.11-12.38a5,5,0,0,1,4.53-.14,1.79,1.79,0,1,1-1.68,3.17h0a1.42,1.42,0,0,0-1.17.14c-.75.43-2.57,2.22-3.22,9.52-.1,1.13-.17,3.1-.27,5.58A215.41,215.41,0,0,1,163.72,227C162.12,237.53,159.41,242.42,155.21,242.42Zm-14-84.29c.94.56,3.51,3.16,4.16,15,.29,5.1.45,11.07.63,17.39v.12c.83,29.8,2,50.89,9.21,50.89,3.67,0,6.09-4.64,7.61-14.61a215.88,215.88,0,0,0,1.77-23.21c.1-2.5.17-4.47.27-5.63.63-7.08,2.35-9.47,3.68-10.23a2.25,2.25,0,0,1,2-.17.89.89,0,0,0,1.22-.35.88.88,0,0,0-.37-1.19,4,4,0,0,0-3.66.13c-2.52,1.37-4.08,5.29-4.64,11.66-.11,1.22-.19,3.3-.28,5.71-.93,24.65-3.35,36.13-7.62,36.13-1.74,0-4.14-2.7-5.65-15.56-1.14-9.59-1.47-21.8-1.8-33.61v-.12c-.18-6.34-.34-12.32-.63-17.45-.85-15.32-5-16.61-5.82-16.71a.85.85,0,0,0-.65.18.81.81,0,0,0-.33.58.87.87,0,0,0,.68,1h0a.5.5,0,0,1,.21.05Z" fill="#231f20"/><rect x="169.34" y="181.11" width="4.52" height="9.95" fill="#231f20"/><path d="M173.86,191.57h-4.52a.5.5,0,0,1-.5-.5v-10a.5.5,0,0,1,.5-.5h4.52a.51.51,0,0,1,.5.5v10A.51.51,0,0,1,173.86,191.57Zm-4-1h3.52v-9h-3.52Z" fill="#231f20"/><path d="M191.18,133S177,131.77,174,137.11s-.35,8.63,2.51,9.45,11.28-1.43,11.28-1.43Z" fill="#231f20"/><path d="M178.16,147.24a6.67,6.67,0,0,1-1.8-.2,5.76,5.76,0,0,1-3.79-3.32c-.56-1.36-.83-3.65,1-6.86,3.16-5.55,17.07-4.41,17.66-4.36a.55.55,0,0,1,.37.22.51.51,0,0,1,.07.42l-3.4,12.12a.51.51,0,0,1-.35.35A49,49,0,0,1,178.16,147.24Zm9.58-13.86c-4.29,0-11.36.55-13.31,4-1.29,2.26-1.61,4.33-.94,6a4.81,4.81,0,0,0,3.15,2.74c2.42.69,9.27-1,10.73-1.37l3.16-11.25C189.94,133.43,189,133.38,187.74,133.38Z" fill="#231f20"/><path d="M191.18,135.18s-13.22-1-16.06,3.35-.34,7,2.34,7.69S188,145.05,188,145.05Z" fill="#fff"/><path d="M179,146.82a7.12,7.12,0,0,1-1.66-.16,5.16,5.16,0,0,1-3.65-3c-.43-1.1-.6-2.93,1-5.42,3-4.53,15.93-3.6,16.48-3.56a.5.5,0,0,1,.35.21.48.48,0,0,1,.05.39l-3.18,9.87a.44.44,0,0,1-.33.3A50.87,50.87,0,0,1,179,146.82Zm9-11.28c-4,0-10.63.44-12.46,3.24-1.12,1.72-1.45,3.3-.95,4.59a4.25,4.25,0,0,0,3,2.41c2.28.57,8.72-.81,10.07-1.12l2.92-9.06C190,135.57,189.08,135.54,188,135.54Z" fill="#231f20"/><path d="M326.29,133s14.14-1.23,17.18,4.11.36,8.63-2.5,9.45-11.28-1.43-11.28-1.43Z" fill="#231f20"/><path d="M339.31,147.24a48.66,48.66,0,0,1-9.75-1.63.51.51,0,0,1-.35-.35l-3.4-12.12a.48.48,0,0,1,.07-.42.53.53,0,0,1,.37-.22c.58-.05,14.49-1.19,17.66,4.36,1.82,3.21,1.54,5.5,1,6.86a5.8,5.8,0,0,1-3.8,3.32A6.6,6.6,0,0,1,339.31,147.24Zm-9.22-2.53c1.46.38,8.32,2.06,10.74,1.37a4.8,4.8,0,0,0,3.14-2.74c.68-1.65.35-3.72-.93-6-2.51-4.4-13.41-4.05-16.1-3.9Z" fill="#231f20"/><path d="M326.29,135.18s13.21-1,16.06,3.35.33,7-2.34,7.69-10.54-1.17-10.54-1.17Z" fill="#fff"/><path d="M338.45,146.82a51.19,51.19,0,0,1-9.09-1.33.45.45,0,0,1-.33-.3l-3.18-9.87a.45.45,0,0,1,.06-.39.48.48,0,0,1,.34-.21c.55,0,13.52-1,16.48,3.56,1.63,2.49,1.47,4.32,1,5.42a5.18,5.18,0,0,1-3.65,3A7.27,7.27,0,0,1,338.45,146.82Zm-8.63-2.16c1.36.3,7.79,1.69,10.08,1.12a4.25,4.25,0,0,0,3-2.41c.5-1.29.17-2.87-1-4.59-2.33-3.58-12.5-3.31-15.06-3.18Z" fill="#231f20"/><path d="M177.43,142.92a.47.47,0,0,1-.35-.15.5.5,0,0,1,0-.71l5.09-5a.49.49,0,0,1,.7,0,.48.48,0,0,1,0,.7l-5.09,5A.47.47,0,0,1,177.43,142.92Z" fill="#d1d3d4"/><path d="M333.26,141.79a.5.5,0,0,1-.32-.89l4.39-3.62a.49.49,0,0,1,.7.06.51.51,0,0,1-.06.71l-4.39,3.62A.51.51,0,0,1,333.26,141.79Z" fill="#d1d3d4"/><path d="M338.69,142.2a.49.49,0,0,1-.4-.2.51.51,0,0,1,.11-.7l2.09-1.51a.5.5,0,0,1,.7.12.5.5,0,0,1-.11.69L339,142.11A.55.55,0,0,1,338.69,142.2Z" fill="#d1d3d4"/><path d="M345.55,174.91c-1.5-6.52-3.51-8.78-3.51-8.78s-2.26-12-4-16.06a11.25,11.25,0,0,0-5-5.52s-16.56-36.64-18.57-39.9-6.53-3.76-6.53-3.76c-11-2.51-49.18-2.51-49.18-2.51s-38.14,0-49.18,2.51c0,0-4.52.5-6.52,3.76s-18.57,39.9-18.57,39.9a11.29,11.29,0,0,0-5,5.52c-1.76,4-4,16.06-4,16.06s-2,2.26-3.52,8.78-1.25,17.06,0,22.58H345.55C346.81,192,347.06,181.43,345.55,174.91Z" fill="#68e1fd"/><path d="M345.55,198H171.91a.45.45,0,0,1-.44-.36c-1.24-5.42-1.54-16.12,0-22.78,1.36-5.89,3.12-8.36,3.53-8.88.25-1.32,2.34-12.19,4-16a11.85,11.85,0,0,1,5.09-5.68c1.31-2.89,16.57-36.62,18.53-39.8,2.1-3.41,6.67-4,6.86-4,10.91-2.48,48.85-2.51,49.23-2.51s38.32,0,49.29,2.52c.14,0,4.71.56,6.81,4,1.95,3.18,17.22,36.91,18.53,39.8a11.9,11.9,0,0,1,5.08,5.68c1.69,3.85,3.78,14.72,4,16,.41.52,2.17,3,3.53,8.88h0c1.54,6.66,1.23,17.35,0,22.78A.46.46,0,0,1,345.55,198ZM172.28,197H345.19c1.14-5.44,1.39-15.63-.08-22s-3.39-8.56-3.41-8.58a.46.46,0,0,1-.11-.22c0-.12-2.27-12-4-16a11,11,0,0,0-4.8-5.29.4.4,0,0,1-.22-.22c-.17-.37-16.57-36.65-18.54-39.85-1.87-3-6.14-3.54-6.19-3.55-10.91-2.48-48.75-2.51-49.13-2.51s-38.21,0-49.08,2.5c-.09,0-4.37.53-6.23,3.56-2,3.2-18.38,39.48-18.54,39.85a.45.45,0,0,1-.23.22,11,11,0,0,0-4.79,5.29c-1.72,3.92-4,15.84-4,16a.44.44,0,0,1-.1.22s-2,2.29-3.41,8.58S171.13,191.6,172.28,197Z" fill="#231f20"/><path d="M172.28,200.81H195a0,0,0,0,1,0,0v35.12a7.23,7.23,0,0,1-7.23,7.23h-8.25a7.23,7.23,0,0,1-7.23-7.23V200.81A0,0,0,0,1,172.28,200.81Z" fill="#231f20"/><path d="M187.76,243.66h-8.24a7.74,7.74,0,0,1-7.74-7.73V200.81a.5.5,0,0,1,.5-.5H195a.5.5,0,0,1,.5.5v35.12A7.74,7.74,0,0,1,187.76,243.66Zm-15-42.35v34.62a6.74,6.74,0,0,0,6.74,6.73h8.24a6.74,6.74,0,0,0,6.74-6.73V201.31Z" fill="#231f20"/><path d="M178,166.8s2-15.39,9.37-21.75c0,0,20.4.67,25.59,6.36s2.34,12.38-1.34,14.22S178,166.8,178,166.8Z" fill="#fff"/><path d="M189.71,167.37c-6.11,0-11.2-.11-11.7-.12a.46.46,0,0,1-.34-.16.43.43,0,0,1-.1-.35c.08-.64,2.11-15.64,9.52-22a.53.53,0,0,1,.31-.11c.84,0,20.66.75,25.92,6.51a10.22,10.22,0,0,1,2.79,8.82,8.67,8.67,0,0,1-4.26,6.11C209.63,167.14,198.59,167.37,189.71,167.37Zm-11.16-1c10.46.22,30.1.26,32.89-1.13a7.79,7.79,0,0,0,3.77-5.46,9.32,9.32,0,0,0-2.57-8c-4.74-5.2-23.07-6.11-25.09-6.2C181.25,151.1,179,163.68,178.55,166.35Z" fill="#231f20"/><path d="M186.38,196.36a.45.45,0,0,1-.32-.13c-6.43-6.43-5.53-19.7-5.49-20.27a.45.45,0,0,1,.49-.42.47.47,0,0,1,.43.49c0,.13-.92,13.42,5.22,19.55a.48.48,0,0,1,0,.65A.46.46,0,0,1,186.38,196.36Z" fill="#231f20"/><line x1="209.55" y1="100.89" x2="210.18" y2="103.9" fill="#fff"/><path d="M210.18,104.36a.47.47,0,0,1-.45-.37l-.63-3a.46.46,0,0,1,.9-.19l.63,3a.47.47,0,0,1-.36.54Z" fill="#231f20"/><path d="M329.7,200.81h8.25a7.23,7.23,0,0,1,7.23,7.23v35.12a0,0,0,0,1,0,0H322.47a0,0,0,0,1,0,0V208A7.23,7.23,0,0,1,329.7,200.81Z" transform="translate(667.65 443.97) rotate(-180)" fill="#231f20"/><path d="M338,243.66H329.7a7.74,7.74,0,0,1-7.73-7.73V200.81a.5.5,0,0,1,.5-.5h22.71a.5.5,0,0,1,.5.5v35.12A7.74,7.74,0,0,1,338,243.66Zm-15-42.35v34.62a6.74,6.74,0,0,0,6.73,6.73H338a6.74,6.74,0,0,0,6.73-6.73V201.31Z" fill="#231f20"/><path d="M339.45,166.8s-2-15.39-9.37-21.75c0,0-20.41.67-25.6,6.36s-2.34,12.38,1.34,14.22S339.45,166.8,339.45,166.8Z" fill="#fff"/><path d="M327.76,167.37c-8.88,0-19.93-.23-22.14-1.34a8.65,8.65,0,0,1-4.26-6.11,10.16,10.16,0,0,1,2.79-8.82c5.25-5.76,25.07-6.48,25.91-6.51a.62.62,0,0,1,.32.11c7.41,6.4,9.44,21.4,9.52,22a.41.41,0,0,1-.11.35.42.42,0,0,1-.33.16C339,167.26,333.87,167.37,327.76,167.37Zm2.16-21.86c-2,.09-20.35,1-25.1,6.2a9.35,9.35,0,0,0-2.57,8,7.77,7.77,0,0,0,3.78,5.46c2.78,1.39,22.42,1.35,32.89,1.13C338.5,163.68,336.21,151.1,329.92,145.51Z" fill="#231f20"/><path d="M331.08,196.36a.44.44,0,0,1-.32-.13.46.46,0,0,1,0-.65c6.13-6.13,5.23-19.42,5.22-19.55a.46.46,0,0,1,.42-.49.46.46,0,0,1,.49.42c0,.57.95,13.84-5.48,20.27A.46.46,0,0,1,331.08,196.36Z" fill="#231f20"/><path d="M258.73,197.49H171.91s.92,13.55,6.11,19.58,8.2,8.53,22.25,8.53H317.2c14.05,0,17.06-2.51,22.25-8.53s6.1-19.58,6.1-19.58Z" fill="#231f20"/><path d="M317.2,226.1H200.27c-13.83,0-17.19-2.39-22.63-8.71-5.24-6.08-6.19-19.3-6.23-19.86a.49.49,0,0,1,.14-.38.48.48,0,0,1,.36-.16H345.55a.5.5,0,0,1,.5.54c0,.56-1,13.78-6.22,19.86C334.38,223.71,331,226.1,317.2,226.1ZM172.46,198c.23,2.56,1.5,13.59,5.94,18.75,5,5.79,7.79,8.36,21.87,8.36H317.2c14.08,0,16.88-2.57,21.87-8.36,4.44-5.16,5.7-16.19,5.94-18.75Z" fill="#231f20"/><path d="M327.4,142.79c-2.3-7.63-10.17-32.24-17.08-37-4.51-3.12-37.54-3.87-51.59-3.87s-47.08.75-51.58,3.87c-6.92,4.79-14.78,29.4-17.09,37,0,0,44.46.75,68.67.75S327.4,142.79,327.4,142.79Z" fill="#231f20"/><path d="M258.73,144c-23.94,0-68.23-.74-68.68-.75a.5.5,0,0,1-.47-.64c2.27-7.52,10.23-32.41,17.28-37.3,5.65-3.91,51.41-4,51.87-4s46.23,0,51.87,4c7.06,4.89,15,29.78,17.28,37.3a.49.49,0,0,1-.07.44.51.51,0,0,1-.4.2C327,143.3,282.67,144,258.73,144Zm-68-1.74c5.64.1,45.68.74,68,.74s62.37-.64,68-.74c-2.47-8.1-10.09-31.55-16.7-36.13-4-2.77-32.87-3.78-51.3-3.78s-47.3,1-51.3,3.78C200.83,110.75,193.21,134.2,190.73,142.3Z" fill="#231f20"/><line x1="307.91" y1="100.89" x2="307.29" y2="103.9" fill="#fff"/><path d="M307.29,104.36h-.1a.47.47,0,0,1-.35-.54l.63-3a.46.46,0,1,1,.89.19l-.63,3A.45.45,0,0,1,307.29,104.36Z" fill="#231f20"/><path d="M204.14,109.39a.45.45,0,0,1-.45-.38.46.46,0,0,1,.38-.53,400.59,400.59,0,0,1,54.66-4.2,400.83,400.83,0,0,1,54.67,4.2.46.46,0,0,1,.38.53.45.45,0,0,1-.52.38,397,397,0,0,0-54.53-4.2,396.72,396.72,0,0,0-54.52,4.2Z" fill="#231f20"/><path d="M314.44,117.32c-1.38-3.76-1.76-5.39-9.66-6.77s-46-1.61-46-1.61-38.14.23-46,1.61-8.28,3-9.66,6.77-6,13.3-4.52,17.19,4.64,4.27,13.17,4.52,85.57.25,94.1,0,11.67-.63,13.17-4.52S315.82,121.09,314.44,117.32Z" fill="#fff"/><path d="M258.73,139.67c-21.44,0-42.88-.06-47.06-.19-8.22-.24-11.93-.52-13.59-4.8-1.28-3.33,1.57-10.27,3.46-14.86.43-1,.8-1.95,1.06-2.65l.11-.32c1.31-3.57,2-5.37,9.9-6.75s44.56-1.61,46.12-1.62,38.27.25,46.13,1.62,8.59,3.18,9.89,6.75l.12.32c.25.7.63,1.61,1.06,2.65,1.88,4.59,4.74,11.53,3.45,14.86-1.66,4.28-5.36,4.56-13.59,4.8C301.62,139.61,280.17,139.67,258.73,139.67Zm0-30.28c-.38,0-38.19.25-46,1.61-7.42,1.29-7.94,2.72-9.2,6.16l-.11.32c-.27.71-.64,1.63-1.08,2.69-1.72,4.18-4.6,11.19-3.44,14.18,1.39,3.59,4.25,4,12.76,4.22,8.35.25,85.72.25,94.07,0,8.5-.25,11.37-.63,12.76-4.22,1.15-3-1.73-10-3.45-14.18-.43-1.06-.81-2-1.07-2.69h0l-.12-.32c-1.25-3.44-1.77-4.87-9.19-6.16C296.92,109.64,259.11,109.39,258.73,109.39Z" fill="#231f20"/><path d="M258.74,183.9c-.15,0-13.73-.13-27.41-.75-27.92-1.27-29-3.25-29.45-4-2.29-4.06-4.65-31.93-4.75-33.11A.46.46,0,1,1,198,146c0,.29,2.45,28.86,4.63,32.74,1.55,2.76,35.21,4.09,56.07,4.28,20.84-.19,54.5-1.52,56.05-4.28,2.19-3.88,4.61-32.45,4.63-32.74a.47.47,0,0,1,.49-.42.46.46,0,0,1,.42.5c-.1,1.18-2.46,29.05-4.74,33.11-.42.75-1.54,2.73-29.45,4C272.45,183.77,258.87,183.9,258.74,183.9Z" fill="#231f20"/><rect x="234.28" y="189.21" width="58.93" height="16.06" rx="2.63" fill="#fff"/><path d="M290.59,205.73H236.91a3.08,3.08,0,0,1-3.08-3.08V191.84a3.08,3.08,0,0,1,3.08-3.08h53.68a3.08,3.08,0,0,1,3.08,3.08v10.81A3.08,3.08,0,0,1,290.59,205.73Zm-53.68-16.06a2.17,2.17,0,0,0-2.17,2.17v10.81a2.17,2.17,0,0,0,2.17,2.16h53.68a2.17,2.17,0,0,0,2.17-2.16V191.84a2.17,2.17,0,0,0-2.17-2.17Z" fill="#231f20"/><path d="M247.53,193.5h6.81v1.66h-4.57v1.27h4.14V198h-4.14v1.37h4.58V201h-6.82Z"/><path d="M258.08,197.24c0-2.32,2-3.94,4.72-3.94,2.15,0,3.82,1,4.23,2.6l-2.08.48A2.06,2.06,0,0,0,262.8,195a2.28,2.28,0,1,0,0,4.55A2.09,2.09,0,0,0,265,198l2.11.44c-.39,1.76-2.11,2.79-4.31,2.79C260.05,201.19,258.08,199.56,258.08,197.24Z"/><path d="M270.53,197.24c0-2.32,2-3.94,4.72-3.94s4.72,1.62,4.72,3.94-2,3.95-4.72,3.95S270.53,199.56,270.53,197.24Zm7.2,0a2.48,2.48,0,1,0-2.48,2.28A2.23,2.23,0,0,0,277.73,197.24Z"/><circle cx="237.91" cy="192.79" r="0.82" fill="#d1d3d4"/><circle cx="289.6" cy="192.79" r="0.82" fill="#d1d3d4"/><circle cx="237.91" cy="201.69" r="0.82" fill="#d1d3d4"/><circle cx="289.6" cy="201.69" r="0.82" fill="#d1d3d4"/><path d="M190.37,164.54a7.48,7.48,0,1,1,7.47-7.48A7.49,7.49,0,0,1,190.37,164.54Zm0-13.95a6.48,6.48,0,1,0,6.47,6.47A6.48,6.48,0,0,0,190.37,150.59Z" fill="#d1d3d4"/><path d="M206.42,163.09a6,6,0,1,1,6-6A6,6,0,0,1,206.42,163.09Zm0-11.05a5,5,0,1,0,5,5A5,5,0,0,0,206.42,152Z" fill="#d1d3d4"/><path d="M328,164.54a7.48,7.48,0,1,1,7.47-7.48A7.49,7.49,0,0,1,328,164.54Zm0-13.95a6.48,6.48,0,1,0,6.47,6.47A6.48,6.48,0,0,0,328,150.59Z" fill="#d1d3d4"/><path d="M311.91,163.09a6,6,0,1,1,6-6A6,6,0,0,1,311.91,163.09Zm0-11.05a5,5,0,1,0,5,5A5,5,0,0,0,311.91,152Z" fill="#d1d3d4"/><path d="M186.38,159.77a.5.5,0,0,1-.37-.17.5.5,0,0,1,0-.71l6.44-5.68a.5.5,0,0,1,.71,0,.51.51,0,0,1,0,.71l-6.44,5.68A.46.46,0,0,1,186.38,159.77Z" fill="#d1d3d4"/><path d="M188.14,161.54a.52.52,0,0,1-.38-.17.5.5,0,0,1,.06-.71l3.68-3.11a.5.5,0,0,1,.64.76l-3.68,3.12A.48.48,0,0,1,188.14,161.54Z" fill="#d1d3d4"/><rect x="250.03" y="104.73" width="17.9" height="2.1" fill="#231f20"/><path d="M267.93,107.33H250a.5.5,0,0,1-.5-.5v-2.1a.51.51,0,0,1,.5-.5h17.9a.5.5,0,0,1,.5.5v2.1A.5.5,0,0,1,267.93,107.33Zm-17.4-1h16.9v-1.1h-16.9Z" fill="#231f20"/><path d="M324.31,226.05a.44.44,0,0,1-.45-.39.45.45,0,0,1,.38-.52c.07,0,6.59-1,11-4.34a23.4,23.4,0,0,0,8.29-13.74.46.46,0,0,1,.9.14,23.88,23.88,0,0,1-8.64,14.33c-4.57,3.49-11.11,4.48-11.39,4.52Z" fill="#d1d3d4"/><path d="M193.5,226.05h-.07c-.28,0-6.82-1-11.39-4.52a23.94,23.94,0,0,1-8.64-14.33.46.46,0,0,1,.91-.14,23.34,23.34,0,0,0,8.29,13.74c4.38,3.35,10.9,4.34,11,4.34a.46.46,0,0,1,.39.52A.45.45,0,0,1,193.5,226.05Z" fill="#d1d3d4"/><path d="M204.14,159a.5.5,0,0,1-.34-.13.49.49,0,0,1,0-.7c1.62-1.79,3.4-3.82,3.57-4.13a.48.48,0,0,1,.62-.3.53.53,0,0,1,.31.66,38.76,38.76,0,0,1-3.76,4.44A.5.5,0,0,1,204.14,159Z" fill="#d1d3d4"/><path d="M325.35,161.54a.5.5,0,0,1-.31-.1.52.52,0,0,1-.08-.71l5.73-7.21a.5.5,0,0,1,.7-.08.49.49,0,0,1,.08.7l-5.73,7.22A.48.48,0,0,1,325.35,161.54Z" fill="#d1d3d4"/><path d="M309,158.6a.53.53,0,0,1-.31-.11.5.5,0,0,1-.08-.7l2.87-3.64a.49.49,0,0,1,.7-.08.5.5,0,0,1,.08.7l-2.86,3.64A.53.53,0,0,1,309,158.6Z" fill="#d1d3d4"/><path d="M219.09,133.38a.53.53,0,0,1-.4-.19.5.5,0,0,1,.09-.7l26.43-20.62a.5.5,0,1,1,.61.79l-26.43,20.61A.45.45,0,0,1,219.09,133.38Z" fill="#d1d3d4"/><path d="M287.34,131.16a.5.5,0,0,1-.32-.88l14.31-12a.5.5,0,1,1,.65.76l-14.32,12.05A.54.54,0,0,1,287.34,131.16Z" fill="#d1d3d4"/><path d="M258.5,133.84H259a3.44,3.44,0,0,1,3.44,3.44v3.45a0,0,0,0,1,0,0h-7.35a0,0,0,0,1,0,0v-3.45A3.44,3.44,0,0,1,258.5,133.84Z" fill="#231f20"/><path d="M262.41,141.22h-7.35a.5.5,0,0,1-.5-.5v-3.44a4,4,0,0,1,3.94-3.95H259a4,4,0,0,1,4,3.95v3.44A.5.5,0,0,1,262.41,141.22Zm-6.85-1h6.35v-2.94a3,3,0,0,0-3-2.95h-.46a3,3,0,0,0-2.94,2.95Z" fill="#231f20"/><line x1="258.11" y1="135.94" x2="286.59" y2="137.66" fill="#68e1fd"/><path d="M286.59,138.66h-.07L258,136.94a1,1,0,0,1-.93-1.06,1,1,0,0,1,1.06-.94l28.48,1.72a1,1,0,0,1-.06,2Z" fill="#231f20"/><line x1="285.08" y1="135.94" x2="294.11" y2="136.8" fill="#68e1fd"/><path d="M294.11,137.8H294l-9-.86a1,1,0,0,1-.9-1.09,1,1,0,0,1,1.09-.9l9,.86a1,1,0,0,1-.1,2Z" fill="#231f20"/><path d="M258.11,125.14a.51.51,0,0,1-.41-.2.51.51,0,0,1,.11-.7c4.49-3.3,11.8-8.81,12.28-9.53a.46.46,0,0,1,.62-.27.52.52,0,0,1,.3.66c-.26.75-7,5.82-12.61,9.94A.46.46,0,0,1,258.11,125.14Z" fill="#d1d3d4"/><path d="M206.42,131.16A.52.52,0,0,1,206,131a.51.51,0,0,1,.06-.71l9.39-7.94a.49.49,0,0,1,.7,0,.51.51,0,0,1-.06.71l-9.38,8A.57.57,0,0,1,206.42,131.16Z" fill="#d1d3d4"/><path d="M259.09,167.6a6.57,6.57,0,0,1-4.47-1.63c-3.57-3.14-4.41-10.54-4.45-10.86a.46.46,0,0,1,.12-.35.41.41,0,0,1,.33-.15c.31,0,7.77-.12,11.34,3s1.78,8.46,1.7,8.68a.47.47,0,0,1-.22.24A10.23,10.23,0,0,1,259.09,167.6Zm-7.94-12.08c.26,1.72,1.28,7.31,4.08,9.77s6.79.92,7.63.53c.27-.88,1.35-5-1.51-7.5S252.89,155.56,251.15,155.52Zm12.08,10.63h0Z" fill="#231f20"/><path d="M265.33,170.24a.46.46,0,0,1-.41-.26,31.21,31.21,0,0,0-7-9.19,59.16,59.16,0,0,0-7.52-5.33.45.45,0,0,1-.18-.62.46.46,0,0,1,.62-.18,58.93,58.93,0,0,1,7.66,5.43,31.25,31.25,0,0,1,7.23,9.49.46.46,0,0,1-.21.61A.49.49,0,0,1,265.33,170.24Z" fill="#231f20"/><path d="M253.36,160.4a.46.46,0,1,1,0-.92l4.18,0h0a.46.46,0,0,1,.46.45.45.45,0,0,1-.46.46l-4.18.05Z" fill="#231f20"/><path d="M260,162.43h-.11a.46.46,0,0,1-.33-.56l.89-3.49A.45.45,0,0,1,261,158a.46.46,0,0,1,.33.55l-.89,3.5A.44.44,0,0,1,260,162.43Z" fill="#231f20"/><path d="M257.11,164.45a.46.46,0,0,1-.45-.42.45.45,0,0,1,.41-.49l4.23-.38a.46.46,0,0,1,.08.91l-4.22.38Z" fill="#231f20"/><path d="M97.78,53.28h0a38.94,38.94,0,0,1,38.94,38.94V230.27a0,0,0,0,1,0,0H58.85a0,0,0,0,1,0,0V92.21A38.94,38.94,0,0,1,97.78,53.28Z" fill="#fff"/><path d="M136.72,230.73H58.85a.45.45,0,0,1-.46-.46V92.21a39.4,39.4,0,0,1,78.79,0V230.27A.46.46,0,0,1,136.72,230.73Zm-77.42-.91h77V92.21a38.49,38.49,0,0,0-77,0Z" fill="#231f20"/><path d="M127.45,230.77H68.12a.5.5,0,0,1-.5-.5V87.47a.5.5,0,0,1,.5-.5h59.33a.51.51,0,0,1,.5.5v142.8A.5.5,0,0,1,127.45,230.77Zm-58.83-1H127V88H68.62Z" fill="#d1d3d4"/><rect x="136.72" y="132.1" width="4.48" height="35.18" fill="#231f20"/><path d="M141.2,167.78h-4.48a.5.5,0,0,1-.5-.5V132.1a.51.51,0,0,1,.5-.5h4.48a.51.51,0,0,1,.5.5v35.18A.5.5,0,0,1,141.2,167.78Zm-4-1h3.48V132.6h-3.48Z" fill="#231f20"/><rect x="79.13" y="153.32" width="4.15" height="10.33" fill="#68e1fd"/><path d="M83.27,164.11H79.13a.47.47,0,0,1-.46-.46V153.32a.46.46,0,0,1,.46-.45h4.14a.45.45,0,0,1,.46.45v10.33A.46.46,0,0,1,83.27,164.11Zm-3.68-.91h3.23v-9.42H79.59Z" fill="#231f20"/><rect x="83.27" y="153.32" width="4.15" height="10.33" fill="#68e1fd"/><path d="M87.42,164.11H83.27a.46.46,0,0,1-.45-.46V153.32a.45.45,0,0,1,.45-.45h4.15a.46.46,0,0,1,.46.45v10.33A.47.47,0,0,1,87.42,164.11Zm-3.69-.91H87v-9.42H83.73Z" fill="#231f20"/><rect x="87.42" y="153.32" width="4.15" height="10.33" fill="#68e1fd"/><path d="M91.57,164.11H87.42a.47.47,0,0,1-.46-.46V153.32a.46.46,0,0,1,.46-.45h4.15a.45.45,0,0,1,.45.45v10.33A.46.46,0,0,1,91.57,164.11Zm-3.69-.91h3.23v-9.42H87.88Z" fill="#231f20"/><rect x="91.57" y="153.32" width="4.15" height="10.33" fill="#68e1fd"/><path d="M95.71,164.11H91.57a.46.46,0,0,1-.46-.46V153.32a.45.45,0,0,1,.46-.45h4.14a.46.46,0,0,1,.46.45v10.33A.47.47,0,0,1,95.71,164.11ZM92,163.2h3.23v-9.42H92Z" fill="#231f20"/><rect x="95.71" y="153.32" width="4.15" height="10.33" fill="#68e1fd"/><path d="M99.86,164.11H95.71a.47.47,0,0,1-.46-.46V153.32a.46.46,0,0,1,.46-.45h4.15a.45.45,0,0,1,.45.45v10.33A.46.46,0,0,1,99.86,164.11Zm-3.69-.91H99.4v-9.42H96.17Z" fill="#231f20"/><rect x="99.86" y="153.32" width="4.15" height="10.33" fill="#68e1fd"/><path d="M104,164.11H99.86a.47.47,0,0,1-.46-.46V153.32a.46.46,0,0,1,.46-.45H104a.46.46,0,0,1,.46.45v10.33A.47.47,0,0,1,104,164.11Zm-3.69-.91h3.24v-9.42h-3.24Z" fill="#231f20"/><rect x="104" y="153.32" width="4.15" height="10.33" fill="#fff"/><path d="M108.15,164.11H104a.46.46,0,0,1-.45-.46V153.32a.45.45,0,0,1,.45-.45h4.15a.46.46,0,0,1,.46.45v10.33A.47.47,0,0,1,108.15,164.11Zm-3.69-.91h3.23v-9.42h-3.23Z" fill="#231f20"/><rect x="108.15" y="153.32" width="4.15" height="10.33" fill="#fff"/><path d="M112.29,164.11h-4.14a.47.47,0,0,1-.46-.46V153.32a.46.46,0,0,1,.46-.45h4.14a.45.45,0,0,1,.46.45v10.33A.46.46,0,0,1,112.29,164.11Zm-3.68-.91h3.23v-9.42h-3.23Z" fill="#231f20"/><rect x="112.29" y="153.32" width="4.15" height="10.33" fill="#fff"/><path d="M116.44,164.11h-4.15a.46.46,0,0,1-.45-.46V153.32a.45.45,0,0,1,.45-.45h4.15a.46.46,0,0,1,.46.45v10.33A.47.47,0,0,1,116.44,164.11Zm-3.69-.91H116v-9.42h-3.23Z" fill="#231f20"/><path d="M122.29,173.86h-49a.5.5,0,0,1-.5-.5V95.08a.5.5,0,0,1,.5-.5h49a.5.5,0,0,1,.5.5v78.28A.5.5,0,0,1,122.29,173.86Zm-48.51-1h48V95.58h-48Z" fill="#d1d3d4"/><circle cx="87.98" cy="183.08" r="2.45" fill="#d1d3d4"/><circle cx="97.78" cy="183.08" r="2.45" fill="#d1d3d4"/><circle cx="107.59" cy="183.08" r="2.45" fill="#d1d3d4"/><rect x="85.96" y="202.87" width="23.65" height="4.74" rx="2.09" fill="#fff"/><path d="M107.52,208.12H88.05a2.59,2.59,0,0,1-2.59-2.59V205a2.6,2.6,0,0,1,2.59-2.59h19.47a2.6,2.6,0,0,1,2.59,2.59v.57A2.59,2.59,0,0,1,107.52,208.12Zm-19.47-4.75A1.59,1.59,0,0,0,86.46,205v.57a1.59,1.59,0,0,0,1.59,1.59h19.47a1.59,1.59,0,0,0,1.59-1.59V205a1.59,1.59,0,0,0-1.59-1.59Z" fill="#d1d3d4"/><path d="M88.14,207.62h19.3a0,0,0,0,1,0,0v3.06a8.6,8.6,0,0,1-8.6,8.6H96.74a8.6,8.6,0,0,1-8.6-8.6v-3.06A0,0,0,0,1,88.14,207.62Z" fill="#fff"/><path d="M98.83,219.78H96.74a9.11,9.11,0,0,1-9.1-9.1v-3.06a.5.5,0,0,1,.5-.5h19.29a.5.5,0,0,1,.5.5v3.06A9.11,9.11,0,0,1,98.83,219.78ZM88.64,208.12v2.56a8.1,8.1,0,0,0,8.1,8.1h2.09a8.1,8.1,0,0,0,8.1-8.1v-2.56Z" fill="#d1d3d4"/><path d="M92.9,195.46h0A1.09,1.09,0,0,1,94,196.55v6.32a0,0,0,0,1,0,0H91.81a0,0,0,0,1,0,0v-6.32A1.09,1.09,0,0,1,92.9,195.46Z" fill="#fff"/><path d="M94,203.37H91.81a.5.5,0,0,1-.5-.5v-6.32a1.59,1.59,0,1,1,3.18,0v6.32A.5.5,0,0,1,94,203.37Zm-1.68-1h1.18v-5.82a.6.6,0,0,0-.59-.59.59.59,0,0,0-.59.59Z" fill="#d1d3d4"/><path d="M102.67,195.46h0a1.09,1.09,0,0,1,1.09,1.09v6.32a0,0,0,0,1,0,0h-2.18a0,0,0,0,1,0,0v-6.32A1.09,1.09,0,0,1,102.67,195.46Z" fill="#fff"/><path d="M103.76,203.37h-2.18a.5.5,0,0,1-.5-.5v-6.32a1.59,1.59,0,0,1,3.18,0v6.32A.5.5,0,0,1,103.76,203.37Zm-1.68-1h1.18v-5.82a.59.59,0,0,0-.59-.59.6.6,0,0,0-.59.59Z" fill="#d1d3d4"/><rect x="94.76" y="218.99" width="6.04" height="2.51" rx="0.49" fill="#fff"/><path d="M100.31,222h-5a1,1,0,0,1-1-1v-1.52a1,1,0,0,1,1-1h5a1,1,0,0,1,1,1V221A1,1,0,0,1,100.31,222Zm0-1v0Zm0-1.51h-5V221h5Z" fill="#d1d3d4"/><polyline points="96.53 230.38 96.53 221.49 99.04 221.49 99.04 230.38" fill="#fff"/><path d="M99,230.88a.5.5,0,0,1-.5-.5V222H97v8.39a.5.5,0,0,1-1,0v-8.89a.5.5,0,0,1,.5-.5H99a.51.51,0,0,1,.5.5v8.89A.5.5,0,0,1,99,230.88Z" fill="#d1d3d4"/><polygon points="96.73 105.22 87.42 121.84 100.25 121.84 91.18 139.92 112.29 115.46 102.05 116.3 110.83 105.22 96.73 105.22" fill="#68e1fd"/><path d="M91.18,140.38a.46.46,0,0,1-.25-.08.47.47,0,0,1-.16-.59l8.75-17.41H87.42a.45.45,0,0,1-.39-.23.43.43,0,0,1,0-.45L96.33,105a.45.45,0,0,1,.4-.23h14.1a.47.47,0,0,1,.41.25.5.5,0,0,1,0,.49l-8.13,10.25,9.2-.75a.46.46,0,0,1,.38.75L91.53,140.22A.48.48,0,0,1,91.18,140.38Zm-3-19h12.06a.46.46,0,0,1,.38.22.41.41,0,0,1,0,.44l-7.42,14.8,18-20.83-9.13.75a.45.45,0,0,1-.44-.24.46.46,0,0,1,0-.5l8.19-10.34H97Z" fill="#231f20"/><rect x="53.41" y="230.27" width="88.75" height="12.89" rx="4.14" fill="#231f20"/><path d="M138,243.66H57.55A4.64,4.64,0,0,1,52.91,239v-4.61a4.64,4.64,0,0,1,4.64-4.64H138a4.64,4.64,0,0,1,4.64,4.64V239A4.64,4.64,0,0,1,138,243.66ZM57.55,230.77a3.64,3.64,0,0,0-3.64,3.64V239a3.64,3.64,0,0,0,3.64,3.64H138a3.64,3.64,0,0,0,3.64-3.64v-4.61a3.64,3.64,0,0,0-3.64-3.64Z" fill="#231f20"/></g></svg>