<svg xmlns="http://www.w3.org/2000/svg" viewBox="0 0 400 300"><g id="_134_europe_flatline" data-name="#134_europe_flatline"><path d="M298.49,35.3h-.09L200,17.65,101.6,35.29a.49.49,0,0,1-.58-.41.5.5,0,0,1,.4-.58l98.49-17.65h.18L298.58,34.3a.5.5,0,0,1,.4.58A.49.49,0,0,1,298.49,35.3Z" fill="#d1d3d4"/><rect x="95.23" y="44.83" width="209.55" height="209.55" fill="#fff"/><path d="M304.77,254.83H95.23a.45.45,0,0,1-.46-.46V44.83a.45.45,0,0,1,.46-.46H304.77a.45.45,0,0,1,.46.46V254.37A.45.45,0,0,1,304.77,254.83Zm-209.09-.91H304.32V45.28H95.68Z" fill="#231f20"/><rect x="89.63" y="34.8" width="220.74" height="10.03" fill="#fff"/><path d="M310.37,45.28H89.63a.46.46,0,0,1-.46-.45v-10a.46.46,0,0,1,.46-.46H310.37a.46.46,0,0,1,.46.46v10A.46.46,0,0,1,310.37,45.28ZM90.09,44.37H309.91V35.25H90.09Z" fill="#231f20"/><rect x="89.63" y="254.37" width="220.74" height="10.03" fill="#fff"/><path d="M310.37,264.86H89.63a.46.46,0,0,1-.46-.46v-10a.46.46,0,0,1,.46-.45H310.37a.46.46,0,0,1,.46.45v10A.46.46,0,0,1,310.37,264.86ZM90.09,264H309.91v-9.12H90.09Z" fill="#231f20"/><circle cx="200" cy="18.77" r="3.18" fill="#d1d3d4"/><path d="M183.49,146.48c-.35-.27-.7-.56-1.06-.82a2.57,2.57,0,0,1-.9-2.38l1-.19-.25-.5c.17,0,.34,0,.39,0a4.41,4.41,0,0,1,.34.53l1.55-.66c0-.14,0-.47.16-.59.81-.63.32-1.23,0-1.84a4.94,4.94,0,0,1-.28-4.29c-1-.33-1.11-1.55-.33-3.09l-.85-.4,0,.2a7.24,7.24,0,0,0-1.57.41,10.07,10.07,0,0,0-2.05,1.28,3.29,3.29,0,0,1-2.71.7c-.45-.06-1.06-.09-.8-.88,0-.05-.21-.17-.29-.28a9.91,9.91,0,0,1-1-1.59c-.24-.59-.14-.57.54-.9.34-.16.55-.57.76-.81l-1.32-.88.07-.37,1.29-.3,0-.57.76-.39-.07-.17-.63.31-.54-1.17,1.13-.63c-.88-.08-1-.54-.8-1.14s.84-1.29.72-1.81c-.21-1,.82-1.27.77-2,1.23.28,1.92-.07,2-1.08.54.07,1.34.51,1.11-.78.35,0,.62.06.9.06.62,0,1.32.19,1.67-.62a.49.49,0,0,1,.39-.24c1.08.05,1.43-.86,2-1.47a9.1,9.1,0,0,1,1.44-1.26c.19-.12.56,0,.88,0-.26-.84.25-1.08,1.12-1.26a1.59,1.59,0,0,0,1-1.16c-.09-1,.58-1.53,1-2.23.18-.28,0-.79.23-1a5,5,0,0,1,1.65-1.37c.52-.22.76-1.06,1.18-1.59a13.55,13.55,0,0,1,1.06-1.12,3.55,3.55,0,0,1-.4-.22l2.51-1-.87-.41.22-.19c.35-.23.86-.38,1-.71a6.56,6.56,0,0,1,3.3-2.83c.16-.08.42.06.63,0,.37,0,.73-.16,1.3-.29l-.84-.74a2.57,2.57,0,0,1,2.33.52c.37-.36.77-.74,1.15-1.14.12-.13.29-.43.24-.48a.69.69,0,0,1,.31-1.08c.34-.15.83,0,1.41.11a10.76,10.76,0,0,0-.76,1.24,7.78,7.78,0,0,0-.32,1.17l.22.1,1.43-2.43.13,1.44h.19l.65-2.17.36-.08.72,1.2.44-.46,2.49,1.44,0,.32-1.69.8.31,1.17.62-.74c.66.09,1.43.81,1.9-.51l1.12.89-1.13.33a8.4,8.4,0,0,0,2.52.51c1.51-.2,2.59.53,3.78,1.2a14.62,14.62,0,0,0,3,1.43c1.61.44,2.78,1.37,3,2.78a3.71,3.71,0,0,1-3.82,4,30.88,30.88,0,0,1-3.47-.52,33.12,33.12,0,0,1-3.14-1.06l-.25.17a3.17,3.17,0,0,1,.72.33c.86.77,1.72,1.56,2.54,2.37a.91.91,0,0,1,.2.68A4.19,4.19,0,0,0,220,116c.11.2,0,.53,0,.73a33.26,33.26,0,0,0,3.21,1.43c.91.3,1.25-.12,1.11-1.15a2.83,2.83,0,0,1-2.58-1.68l.61-.91c.85.18,1.66.39,2.49.54s1.62.21,2.44.31l.16-.32c-.41-.51-.81-1-1.25-1.54a1.23,1.23,0,0,1,0-1.87,24.68,24.68,0,0,0,1.65-2.47,1.38,1.38,0,0,1,1.82-.23l.76.46c.21-2.42,0-2.81-1.16-3-.75-1.34.29-3.42-2-4.22,3.6-.38,3.6-.38,4.67,1.44a7.55,7.55,0,0,0-.94.48c-.75.53-.71,1.14.06,1.59.55.32,1,.84,1.77.71s1.09-.27,1-1a2.47,2.47,0,0,0-.11-.47c-.31-.83-.36-1.54.86-1.76l-.62-.68.13-.11a5.35,5.35,0,0,0,.88-.75c.6-.74,1.16-1.53,1.71-2.31.22-.31.36-.67.58-1s.66-.83,1.07-1.34l.69,2.07,1.08-.4c-.06-1.48,0-1.44,1.43-2,.3-.11.53-.57.66-.92.39-1,.92-1.31,1.56-.83.27.2.37.63.55,1l.16,0a5.82,5.82,0,0,1,.28-1.28c.29-.59.2-.88-.39-1.23s-1.35-.79-1.17-1.75l0,0c.11-.17.18-.47.32-.5,1.28-.33,2.57-.62,3.87-.89.21,0,.46.07.67,0,2.83-.73,3.91,1.63,5.43,3.14.29.28.26,1,.23,1.46a41.25,41.25,0,0,1-.41,4.16c-.2,1.14-.6,2.25-.91,3.37a22,22,0,0,0-.72,2.73,2.43,2.43,0,0,0,.37,1.52c2.12,3.35,2.94,7.24,4.6,10.78.63,1.35,1.07,2.79,1.64,4.16.68,1.65,1.34,3.25.81,5.14-.33,1.2.06,1.62,1.27,2l.84.27a1.13,1.13,0,0,1,.58,1.76c-.6.82-1.22,1.61-1.82,2.42-.31.41-.58.84-.91,1.31,1.13.72,2.14,1.41,3.19,2a1.51,1.51,0,0,0,2-.61,13.49,13.49,0,0,1,1-1.61,1.19,1.19,0,0,1,1-.35c.27.07.53.47.64.78a3.11,3.11,0,0,1,.13,1.25c-.12,1.26.64,2.15,1.26,3.08a1.27,1.27,0,0,0,.74.36c.7.15,1.42.22,2.11.4a1.17,1.17,0,0,1,.73.5,1.24,1.24,0,0,0,1.69.77c.42-.11,1-.32,1.24.37s.57,1.21-.09,1.76c-.39.33-.81.63-1.2,1s-.6.71-1,.8a11,11,0,0,1-2.07.21c-.34,0-.68,0-1,.05-.93.15-1.85.34-2.78.48a16.37,16.37,0,0,0-7.87,3.17c-1.52,1.18-2.28,2.3-1.73,4.16a2.91,2.91,0,0,0,.33.88,16,16,0,0,0,1.16,1.45c.49.56,1,1.09,1.52,1.64a1.51,1.51,0,0,1,.22.44c.59,1.67,1.18,3.35,1.72,4.91-.66.74-1.21,1.36-1.77,2s-1,1-1.49,1.59c-.12.13-.06.41-.14.59a5.16,5.16,0,0,1-.51.8,21.27,21.27,0,0,0-2.16,2.91,17.09,17.09,0,0,0-.95,3.28l2.58,1.56c0,.1.06.32.07.54a4.11,4.11,0,0,0,2.54,4,15.29,15.29,0,0,1,2.51,2c.78.57,1.38,1.52,2.63,1.22.32-.08.76.31,1.37.58-2,.46-2.11.61-1.86,2.43.14,1-.19,1.27-1.06.78a6.54,6.54,0,0,0-4.31-.63,1.73,1.73,0,0,1-.85-.17c-1.78-.68-3.54-1.39-5.33-2.06a2.7,2.7,0,0,0-.95-.09c-2.11,0-4.23,0-6.35,0-.35,0-.68-.41-1-.62-.78-.47-1.53-1-2.35-1.4-1-.5-2.13-.89-3.2-1.34l-2.64-1.15a3.25,3.25,0,0,1-.65-.38c-.16-.11-.33-.39-.43-.37-1.28.35-1.79-1.37-3.2-.85l.36-1.12h2.09c-.9-1.4,0-2.12.66-2.88l-1.23-1.14,3.13-2.33-.11-.31a3.41,3.41,0,0,0-1,.19c-1,.51-2,1.07-2.95,1.64-.32.18-.56.49-.88.66-.61.32-1.25.58-1.88.86-.18.07-.43,0-.56.14-.57.5-1.11,1-1.67,1.56.52,2.16,1.94,2.46,3.86,1.46-.05,1.81-.52,2.13-1.73,1.73-.94.56-1.66,1-2.38,1.44a1,1,0,0,0-.37.4c-.48.88-1.2.83-2.07.62a4.77,4.77,0,0,0,.15-.78c0-.66-.11-1.22-1-1.29a11.75,11.75,0,0,1-1.74-.46l2.31-2.15-.94-.63a2.07,2.07,0,0,1-2.49.33,12.75,12.75,0,0,1-1-.82,1.31,1.31,0,0,0-1.94.52c-.4.77-.54,1.67-1.47,2.13a1.19,1.19,0,0,0-.52,1.41c.18.91,0,1.7-1.11,2-.84.23-.83,1.13-1,1.83a5,5,0,0,0,0,1.16c0,1.25,0,1.29-1.23,1.47l-.56,2.57-.28-.06a5.31,5.31,0,0,1,.54.91c.5,1.27,1.08,2.43,2.65,2.64.17,0,.36.42.38.67s-.32.34-.53.39a7.53,7.53,0,0,1-1.25.18c-.95.09-1.87-.1-2.61.94a7.72,7.72,0,0,1-2.69,1.76l1-1.38c-.64.19-1-.14-1.52-.61a2.16,2.16,0,0,0-2.44-.36,22.46,22.46,0,0,1-2.77.9l.51.84-.44.13.55.94-.16.11-1-.75-.15.16.43.58-.21.2-2.05-2c-.87,1.82,1,2.76,1.57,4.32l-1.23-.72.32,1.2-.66.34.26.13a17.11,17.11,0,0,1,2.66,1.73c.33.29.19,1.09.29,1.86-.83-.43-1.12-1.66-2.2-.67l.85,1.36-1.89-.13,1,3-.19.12-1.34-1.06-.52,1.11-.88-1.9-.73,1.09c-.23-.48-.57-.85-.51-1.14a2.27,2.27,0,0,0-1.26-2.62l1.15-1.51c-.9.26-1-.3-1.25-.85a29.53,29.53,0,0,0-2.05-3.09,28.57,28.57,0,0,1-1.64-2.47,2.51,2.51,0,0,1,0-1.36,14.72,14.72,0,0,1,.37-1.87,6.52,6.52,0,0,1,.41-.9c-.93-.91-1.86-1.8-2.78-2.71s-1.94-2.08-3-3a8,8,0,0,0-2.12-.84c.21-1.11-1.94-1.38-1.41-2.7-.21-.57-.4-1-.53-1.49a6.7,6.7,0,0,0-.28-1.23c-.27-.54-.7-.69-1.13-.12a7.22,7.22,0,0,1-.8,1c-.11-.92-1.12-1.7-.25-2.75-1.11-.78-2.05.56-3.08.14-.06.16-.13.26-.11.33.23.74.82,1.44-.19,2.17-.17.12.21,1.19.51,1.72a5.41,5.41,0,0,0,1.17,1.17,3.49,3.49,0,0,1,1.15,2.46,5.29,5.29,0,0,0,2.55,3.91c.26.18.68.13,1,.21s.95.23,1.66.41l-1.1.88c.37.29.67.57,1,.79,1.14.74,2.3,1.46,3.45,2.18a2.47,2.47,0,0,1,1,3.05l-3.08-2.62-1.54,2.43a5.85,5.85,0,0,1,1.26.85,1.56,1.56,0,0,1,.4,1.08,1.13,1.13,0,0,1-.75.74c-.7.12-.91.5-1.11,1.11-.43,1.3-1.46,1.67-2.8,1.08-.62.71-1.35,1.33-.81,2.51a1.38,1.38,0,0,1-.63,1.22,1.84,1.84,0,0,1-1.54-.47c-.91-1.3-2.33-1.83-3.57-2.6s-1.3-1.19-.52-2.06c.57,0,1,0,1.44,0a1,1,0,0,1,.61.15,2.33,2.33,0,0,0,2.17.48c1-.11,2,0,3-.07a2.29,2.29,0,0,0,1.58-2.6,7.91,7.91,0,0,1-.33-1.12c-.14-.9-.46-1.56-1.46-1.77a.71.71,0,0,1-.61-1c.1-.4-.06-.95-.87-1-.41,0-1-.61-1.19-1.07a1.87,1.87,0,0,0-1.73-1.28.76.76,0,0,1-.5-.23c-.85-1.1-1.67-2.23-2.5-3.35-.12-.15-.2-.42-.34-.45-1.25-.31-1.06-1.81-2-2.39-.07-.05,0-.36,0-.55a4.57,4.57,0,0,0-2.89-4.61,1.17,1.17,0,0,0-.68.16c-.77.32-1.53.66-2.3,1-.15.06-.41,0-.44.14-.38,1-1,.72-1.54.23-1.15,1.28-2.53,1-3.65-.29a6.17,6.17,0,0,0-2.94-1.59c-.54-.15-1.39.37-1.9.83-.3.27-.3,1-.25,1.51a2.34,2.34,0,0,1-1.44,2.4,9.49,9.49,0,0,1-4.12.58c-.45,0-1.13-.17-1,.43-.82.6-1.54,1.09-2.22,1.64-1.66,1.37-1.78,1.9-1,3.84-1.08.73-2.87.56-3.14,2.54-1.24-.64-2.21,0-3.31.68-.57.38-1.66,0-2.5-.12a3.17,3.17,0,0,1-1.3-.64c-1.11-.85-2.44-.68-3.69-.84-.21,0-.48.19-.66.35-.7.6-1.24.34-1.54-.37a4.54,4.54,0,0,1-.41-1.87c0-1.54-.46-2.35-2-2.66a3.73,3.73,0,0,1-2-.87,4.31,4.31,0,0,0-1.34-.57,6.23,6.23,0,0,0,.64-.91c.36-.82.68-1.65,1-2.5a.87.87,0,0,0-.17-.71,1.77,1.77,0,0,1,.72-3c.62-.25,1.09-1,1.53-1.58a11.79,11.79,0,0,0,1.13-2c.3-.66.5-1.37.75-2s.54-1.37.9-2.3a5,5,0,0,1-.28-1.77c0-.31.91-.7,1.39-.69.68,0,1.29.3,1.9-.3.12-.13,1,.14,1.12.42a3.22,3.22,0,0,0,2.41,1.54,3.24,3.24,0,0,1,1.49.8,6.16,6.16,0,0,0,3.24,1.87c.32,0,.59.35.9.51s.75.3,1.11.48a2.69,2.69,0,0,1,.67.49c.94,1,1.93.87,2.57-.36.36-.7.92-1.32,1.21-2,.42-1.06.46-2.33,1.07-3.23.88-1.29.41-2-.46-2.93-.25-.27,0-1,0-1.48a2.82,2.82,0,0,0-.65-2.13c-.58-.62-1-1.36-1.61-2a4.54,4.54,0,0,0-1.26-.62c0-.17.16-.54.22-.92a1.29,1.29,0,0,0-.09-.46c0-.25-.18-.63-.07-.72a1.51,1.51,0,0,1,.77-.17c.75-.09,1.44.74,2.25.18.05,0,.37.23.47.41.2.36.34.76.49,1.1l2.5.4c0-.71-.07-1.36,0-2a6.63,6.63,0,0,1,.34-1.24c.74.39,1.74.47,1.05,1.77l2.22.82c.42-.42.62-.77.91-.89a4.09,4.09,0,0,1,1.61-.35c1.13,0,1.58-.56,1.65-1.56,0-.68.38-.85,1-.84s1.49-.16,2.24-.15a19.18,19.18,0,0,1,2.18.25l-1.17-.72,1,.19c-.35-.86.34-1.16.78-1.57.21-.19.63-.25.72-.46a3,3,0,0,1,2.35-2.14,4.73,4.73,0,0,1,3,0c.95-1,1-.94,2.9.19a6.73,6.73,0,0,0,1.21-1.08,1.56,1.56,0,0,0,0-1.2,3.78,3.78,0,0,0,.24-.92,12.73,12.73,0,0,1,0-1.63c.1-.53.24-.94-.38-1.2a.46.46,0,0,1-.18-.41c.26-1,.55-2,.87-3,0-.1.34-.11.54-.16-.15-1,.28-1.45,1.41-1.34a2.23,2.23,0,0,0,1.11-.35c.57-.31,1.1-.69,1.65-1l.34.27-1.38,3.32,1.4.85-1.43.85-.16-.25L180,143.2c1.37.27,1,1.21.72,2.3l-1.67-.9-.36.18.59,2.05a10.34,10.34,0,0,1,1,.39c.28.12.78.31.77.45a3,3,0,0,1-.47,1,2.67,2.67,0,0,0,2.81-.76.75.75,0,0,1,.42-.14c.54-.06,1.09-.1,1.71-.15.08.34,1,.88-.24,1.31a2.63,2.63,0,0,0,2.69.78,12.27,12.27,0,0,0,2.81-.87,10.54,10.54,0,0,1,3.54-.78c.09,0,.36.33.36.51,0,.53.17,1,.72.94a2.12,2.12,0,0,0,1.42-.55,2.11,2.11,0,0,1,2.76-1,1.31,1.31,0,0,0,.11-.42,34,34,0,0,0-.21-3.64c-.23-1.63.69-2.8,1.48-4,.57-.85,1.51-.67,2.05.19.35.57.79,1.08,1.15,1.58,1.15-.4,1.52-1,1.22-2.09a5.47,5.47,0,0,1,.32-2c-.36,0-.76.22-1,.09a1.36,1.36,0,0,1-.58-.88c-.09-.71-.32-1.67,0-2.08s1.39-.61,2.13-.86a5.53,5.53,0,0,0,1.49-.62c.8.14,1.59.29,2.4.41a5.85,5.85,0,0,0,.94,0,3.51,3.51,0,0,1,3.72-1.57c-.76-.94-2.76,0-2.74-2.08l-8.44,2.54c-.28-.42-.48-.76-.71-1.08a1.34,1.34,0,0,0-.39-.31c-.18-.13-.37-.33-.57-.34-1-.07-1.35-.63-1.22-1.55.11-.74.27-1.46.44-2.39-.12-1-.3-2.15-.43-3.36,0-.18.2-.38.31-.56l.68-1.16h.73a1.85,1.85,0,0,1,1.12-1.52c.77-.46,1.16-1.57,1.74-2.37a10.68,10.68,0,0,1,1.49-1.69c0-2.61-1.79-2.59-3.59-2.26l-1.65,1.31.38.69a1,1,0,0,0-.39,1.69c.32.47-.61,2.14-1.4,2.5a9.35,9.35,0,0,0-3.91,3.35c-.14.21-.5.26-.74.39a3.27,3.27,0,0,1-.74,2.54c-.34.44-.15,1.25-.31,1.86-.22.8.17,1.14.83,1.37a.7.7,0,0,1,.32.2c.52.75,1,1.5,1.57,2.3-.7,0-.59.36-.27.64-.27.43-1.1.23-.78,1.12.09.25-.79.85-1.25,1.32l-.27-.34-1.47,1-1.41,5.45.14.06.93-1.18.13.07-1.44,3.2-.15-1c-.06,0-.15,0-.16,0-.42.93-1,1.43-2.11.95a1.19,1.19,0,0,0-1.57,1.12c0,.79-.34,1.06-1.09.93-.54-.09-1.08-.15-1.49-.21v-2.29l-1.17,1.72.17.56-.83.42.82.57-.43.28Zm34.8-16a1.83,1.83,0,0,0-.2-2.51,15.81,15.81,0,0,0-2.59-1.62L214.26,128l2.18,3.57Zm3.84-6.7c-.21.58-.68.65-1.38,0l.26,1.84c.87.45,2,.79,2,2.15,1-.54,1.07-.83.54-1.65S222.55,124.53,222.13,123.81Zm-12.4,11.93c.55.95.69,2,1.58,2.62l.37-.31-.69-.4V135.3Zm17.36-.93a10.47,10.47,0,0,0,1.71.93c.23.07.61-.18.85-.38a.59.59,0,0,0,0-.59c-.49-.36-1-.64-1.57-1L228,134l.39.69ZM202,201l-2.23-.62-.07.27C201.32,201.63,201.32,201.63,202,201ZM243.06,167c1.56-1.18,1.76-1.6,1.25-2Zm9-22.3c-1.37.17-1.52,0-1.33-1.13l-.61.1C250.88,145.36,251.39,145.62,252,144.74Z" fill="#68e1fd"/><path d="M159.06,129.51l3.37,1.58-3,3.24c0-.08,0,.13.06.4h-1.7a13.43,13.43,0,0,0,1.25.85,2.11,2.11,0,0,1,1.17,2.51c-.08.51-.18,1-.28,1.53a1.34,1.34,0,0,0,.51,1.53,1.79,1.79,0,0,1,.57,1.26,13,13,0,0,1-.3,2.12.45.45,0,0,0,0,.28,1.29,1.29,0,0,1-.69,1.87c.23.11.36.23.44.21a1.67,1.67,0,0,1,2,.72,1.6,1.6,0,0,1-.93,2.39,3.31,3.31,0,0,0-1.13.65c-.73.81.33.78.59,1.13-.39.92-2.36,1.53-3.31,1.11a26.51,26.51,0,0,0-2.91-1c-.22-.07-.54.18-.79.15a2.89,2.89,0,0,1-1.17-.34,12,12,0,0,1-1.31-1.14l-1,1.17c-1-.54-1.9-1.8-3.22-.39l-.54-.82a19.07,19.07,0,0,0,2.93-1.69c.86-.7,1.5-.14,2.26,0a2.68,2.68,0,0,0,1.35-.14c-.81.34-1-.31-1.35-.74a11.26,11.26,0,0,0-1.75-1.25c-.25-.18-.46-.41-.69-.61.23-.22.42-.53.69-.63.72-.26,1.49-.39,2.2-.67.21-.09.28-.51.41-.78a4.85,4.85,0,0,1-.65-.31,7,7,0,0,1-.61-.54c1.2-.33,2.17-1.25,3.16-.06.82-.48,1.5-1.83,1.14-2.56a1.78,1.78,0,0,1,.71-2.55,2.94,2.94,0,0,1-.86.15,3.25,3.25,0,0,1-.8-.35l-.24.26c-.34-.14-.67-.18-.82-.36s-.17-.64-.06-.72a2.6,2.6,0,0,0,1.24-2.85l-1.69,1.28-.22-.28,1-.89-.21-.11,1.17-2.11a1.61,1.61,0,0,1-.37-.36c-.5-.71.3-.92.58-1.24s1-.69.71-1.53c-.08-.2.24-.69.5-.89.78-.58,1.62-1.09,2.36-1.59l2.89,1C161.38,128.84,159.57,128.47,159.06,129.51Z" fill="#68e1fd"/><path d="M151.49,95.57l1,.53,1-1.53.5,1.14c.31,0,.86-.11,1.17.1s.55.81.82,1.25l1.24,0,.91-.52.54,1.44.92.11,0,.16-1,.41c.09.74.19,1.51.27,2.29a4.16,4.16,0,0,1-1,1.32c-.22.15-.4.37-.61.54-1.17.94-2.59.32-3.88.58-.33.06-.72-.27-1.09-.28a4.76,4.76,0,0,1-3.78-1.7c-.06-.07-.18-.17-.16-.23.4-1.53-1-1.93-1.81-2.75l.35-.6c.4.16.79.45,1,.35s.38-.55.5-.87.17-.73.26-1.1c-1.23-1-1.23-1-.92-1.57l1.86,1-.06-.53h.9l.19-.6c-.68-.61-1.92-.46-2.1-1.74l1.11-.08.11.38,1.26-1.2.36,1.39.16,0,.12-1.43c1.28.41.47,1.39.75,2C153,95,151.48,94.86,151.49,95.57Z" fill="#68e1fd"/><path d="M144.8,136.26a3.93,3.93,0,0,1,.37-1.35c.34-.43.72-.15,1.05.19.66.69.67.68,2,.13l-.44-.47,1.42-1,.06-.3c1,.48,2.06,1,3.07,1.45a.74.74,0,0,1,.36.5,11.82,11.82,0,0,1,.12,2.14c0,.44-.18,1-.88,1-.93,0-1.3.46-1.46,1.47a7.84,7.84,0,0,1-1.31,2.55,13.36,13.36,0,0,1-1,1.23,8.6,8.6,0,0,0-1.86-.6,5.82,5.82,0,0,0-2,.31c-1.53.43-2.43,0-2.9-1.5a4.52,4.52,0,0,0-.41-.78l1.36-.42-.73-.39a27.33,27.33,0,0,0,2.55-1.39c.74-.49.25-1.14,0-1.71a6.11,6.11,0,0,0-.38-.65c.25-.11.49-.24.75-.33A.8.8,0,0,1,144.8,136.26Z" fill="#68e1fd"/><path d="M231.5,89.39a1.32,1.32,0,0,0,.06-2.07c-.11-.12-.26-.31-.24-.44.11-.87.28-1.72.42-2.58-.59-.23-1.2-.31-.66-1.26A2.41,2.41,0,0,0,231,81.2c-.22-.56.27-1.41-.63-1.7a2.34,2.34,0,0,1,.08-.29c.47-1.31.94-2.63,1.39-3.95a2.62,2.62,0,0,0,0-.75c1.18-.15,1.48-1.2,2-2,.1-.15,0-.43,0-.63-.16-.64-.21-1.28.53-1.55.3-.11.95-.07,1,.1.27.57.64,1.33.46,1.84A44,44,0,0,1,234,76.39a1.2,1.2,0,0,0-.18.64c.41,2-.09,4,.22,6a35.87,35.87,0,0,1,.38,3.67,3,3,0,0,0,1.18,1.86,21.48,21.48,0,0,0,2.84,1.65c.25.14.49.3.8.49-.91.51-1.61.92-2.32,1.31a2.09,2.09,0,0,1-2.2-.69.94.94,0,0,0-1.16-.68C232.26,90.9,232,90.72,231.5,89.39Z" fill="#68e1fd"/><path d="M202.72,69.94l.79-.76,1.29.9.26-.89,2.65,1.1a9.18,9.18,0,0,1-1.14,2.11c-.36.37-1,1-1.73.13-.18-.25-.72-.2-1.07-.33s-.81-.43-.06-1h-1.09c-.64,1.5,1.12,1.73,1.43,2.84a3.63,3.63,0,0,1-.84.49c-.58.17-.55.62-.76,1-.39.8-.33,1.82-1.16,2.47-.32.25-.33.87-.52,1.31s-.41.72-.61,1.08l-.42-.09-.24-1.1-1-2.09,1,.12a6.39,6.39,0,0,1-.72-1.11c.57-.53,1.24-1,1.56-.91l-.67-.78.27-.35-.09.81-1.44.34c.2-.94-.86-1.61-.18-2.61.17-.25-.15-.8-.13-1.21,0-.71.36-1.1,1.17-.92a3,3,0,0,0,1-.16l-.56,1.17.2.12.58-.78.35.4.63-1.33.91,1Z" fill="#68e1fd"/><path d="M166.7,187.61c.67.91,1.31.49,1.91.21,1.08-.5,1.28-.32,1.47.84.3,2-1,3.55-1,5.59l-1.26-.72-.56.93-1.32-.67A11.76,11.76,0,0,0,166.7,187.61Z" fill="#68e1fd"/><path d="M202.9,209.76v-1c.71,0,1.4-.21,2,.49.1.13.41.12.63.14,1,.07,1.95.11,2.92.22a3,3,0,0,1,.85.38l1.06-.44c-.24.46-.34.9-.5.93-1.21.18-2.67.76-3.58.3C205.14,210.18,204,210.33,202.9,209.76Z" fill="#68e1fd"/><path d="M171.07,182.41l-1.46,4.89c-1.18-.87-1.65-2.83-1.06-3.77a1.38,1.38,0,0,1,.62-.41C169.73,182.89,170.3,182.7,171.07,182.41Z" fill="#68e1fd"/><path d="M204.15,74.66l1.9,2.79-1.51,1.35v-.86l-1.25.13c1-1.11.26-2-.31-3.07Z" fill="#68e1fd"/><path d="M234.5,98.08c-.43.63-.74,1.15-1.12,1.62a.75.75,0,0,1-.64.14,1.6,1.6,0,0,1-.44-2.28.86.86,0,0,1,.69-.11A14.76,14.76,0,0,1,234.5,98.08Z" fill="#68e1fd"/><path d="M217.59,67.74l.9-1.09-.16-.2L217,67.52l-.54-.27a8.71,8.71,0,0,1,1.07-1,9.1,9.1,0,0,1,1.36-.59l.54.29a8.8,8.8,0,0,1-.54,1.91c-.11.2-.74.13-1.14.19Z" fill="#68e1fd"/><path d="M243.15,91.43a1.68,1.68,0,0,1-2.77-.18c-.07-.16.37-.75.43-.73.8.27,1.58.62,2.36.94Z" fill="#68e1fd"/><path d="M223.14,62.74l.26.59.25.08.61-1.58.73.36-.92,2.35c-.12,0-.78.14-.86,0a7,7,0,0,1-.45-1.72Z" fill="#68e1fd"/><path d="M154.33,187.44l.74,1.13-1.28,1.1-1.2-1.81Z" fill="#68e1fd"/><path d="M194.76,141.34c.19-1-.32-2.17.81-2.85.2-.12.52,0,1.05,0l-1.58,3Z" fill="#68e1fd"/><path d="M203.6,136.23c.24.74.24.74-1.78,1.82l-.51-.75.75-.35Z" fill="#68e1fd"/><path d="M154.64,127.32c.19-1.42,1.1-1.73,2.23-1.77C157,126.33,156.59,126.64,154.64,127.32Z" fill="#68e1fd"/><path d="M196.68,104.35l-.22.19-1.55.73-.18-.27,1.19-2Z" fill="#68e1fd"/><path d="M220.91,63.89l1.7.12c-.52.53-.82,1.09-1.2,1.15s-.73-.45-1.13-.73l.67-.57Z" fill="#68e1fd"/><path d="M183.49,146.48c-.4.17-.79.33-1.18.51-.83.38-.95-.29-1.17-1l2.35.51Z" fill="#68e1fd"/><path d="M223.59,65.14c0,.92-.62,1.08-1.22,1.26-.06,0-.31-.27-.29-.37C222.25,65.24,222.76,65,223.59,65.14Z" fill="#68e1fd"/><path d="M202.59,136.38l-.89-.82c.73-.87,1.22-.44,1.74.3Z" fill="#68e1fd"/><path d="M221,63.86l-.76-.07a4.64,4.64,0,0,1,.34-.88,2.25,2.25,0,0,1,.57-.43,3.37,3.37,0,0,1,0,.55c0,.29-.12.57-.19.86Z" fill="#68e1fd"/><path d="M166.14,124.34c-.61-.93-.35-1.55.73-1.76Z" fill="#68e1fd"/><path d="M125.9,225.11V211.5h9.15v2.77h-6v2.57h5.65v2.64h-5.65v2.82h6.32v2.81Z" fill="#d1d3d4"/><path d="M143.7,225.11v-1.33h0a3,3,0,0,1-.45.62,3,3,0,0,1-.66.5,4,4,0,0,1-.82.34,3.31,3.31,0,0,1-.95.14,3.48,3.48,0,0,1-1.63-.35,3.27,3.27,0,0,1-1.08-.89,3.6,3.6,0,0,1-.59-1.25,5.79,5.79,0,0,1-.19-1.43v-5.92h3.18v5.19a4.81,4.81,0,0,0,.06.77,1.73,1.73,0,0,0,.22.65,1.16,1.16,0,0,0,.43.45,1.33,1.33,0,0,0,.71.16,1.44,1.44,0,0,0,1.26-.61,2.43,2.43,0,0,0,.43-1.44v-5.17h3.15v9.57Z" fill="#d1d3d4"/><path d="M155.4,218.13a3,3,0,0,0-.41-.08l-.39,0a2.29,2.29,0,0,0-1.07.23,2.17,2.17,0,0,0-.69.56,2.22,2.22,0,0,0-.38.71,2.65,2.65,0,0,0-.11.67v4.91H149.2v-9.56h3v1.38h0a3.09,3.09,0,0,1,1-1.2,2.68,2.68,0,0,1,1.56-.46,2.3,2.3,0,0,1,.37,0l.3.05Z" fill="#d1d3d4"/><path d="M166.61,220.28a5.22,5.22,0,0,1-.42,2.13A4.83,4.83,0,0,1,165,224a5.23,5.23,0,0,1-1.7,1,5.78,5.78,0,0,1-2.05.37,5.86,5.86,0,0,1-2-.37,5.08,5.08,0,0,1-1.69-1,4.8,4.8,0,0,1-1.14-1.61,5.07,5.07,0,0,1-.43-2.13,5,5,0,0,1,.43-2.11,4.76,4.76,0,0,1,1.14-1.6,5,5,0,0,1,1.69-1,6.08,6.08,0,0,1,2-.34,6,6,0,0,1,2.05.34,5.16,5.16,0,0,1,1.7,1,4.79,4.79,0,0,1,1.15,1.6A5.13,5.13,0,0,1,166.61,220.28Zm-3,0a2.85,2.85,0,0,0-.16-.9,2.5,2.5,0,0,0-.44-.78,2.45,2.45,0,0,0-.71-.55,2.39,2.39,0,0,0-2,0,2.28,2.28,0,0,0-.7.55,2.47,2.47,0,0,0-.43.78,3,3,0,0,0,0,1.81,2.51,2.51,0,0,0,.44.8,2.08,2.08,0,0,0,.71.56A2.2,2.2,0,0,0,163,222a2.48,2.48,0,0,0,.43-.8A2.85,2.85,0,0,0,163.58,220.28Z" fill="#d1d3d4"/><path d="M179.26,220.28a6,6,0,0,1-.31,1.93,4.91,4.91,0,0,1-.89,1.62,4.54,4.54,0,0,1-1.43,1.13,4.3,4.3,0,0,1-1.92.42A4,4,0,0,1,173,225a3,3,0,0,1-1.23-1h0v5.67h-3.15V215.54h3v1.17h.06a3.77,3.77,0,0,1,1.22-1,3.7,3.7,0,0,1,1.83-.43,4.33,4.33,0,0,1,1.89.4,4.19,4.19,0,0,1,1.43,1.1,4.92,4.92,0,0,1,.9,1.6A5.59,5.59,0,0,1,179.26,220.28Zm-3,0a2.83,2.83,0,0,0-.15-.9,2.66,2.66,0,0,0-.42-.78,2.41,2.41,0,0,0-.7-.55,2.37,2.37,0,0,0-1.95,0,2.4,2.4,0,0,0-1.18,1.35,2.55,2.55,0,0,0-.16.9,2.61,2.61,0,0,0,.16.91,2.73,2.73,0,0,0,.46.79,2.3,2.3,0,0,0,.72.55,2.37,2.37,0,0,0,1.95,0,2.11,2.11,0,0,0,.7-.55,2.77,2.77,0,0,0,.42-.8A2.91,2.91,0,0,0,176.21,220.28Z" fill="#d1d3d4"/><path d="M190.74,220.44v.38c0,.13,0,.25,0,.37h-6.94a1.8,1.8,0,0,0,.24.73,2,2,0,0,0,.52.57,2.53,2.53,0,0,0,1.53.5,2.74,2.74,0,0,0,1.27-.27,2.68,2.68,0,0,0,.84-.72l2.19,1.38a4.48,4.48,0,0,1-1.77,1.51,6,6,0,0,1-2.57.53,6.24,6.24,0,0,1-2-.34,4.86,4.86,0,0,1-1.68-1,4.62,4.62,0,0,1-1.14-1.59,5.76,5.76,0,0,1,0-4.27,4.63,4.63,0,0,1,1.09-1.62,5,5,0,0,1,1.64-1,5.59,5.59,0,0,1,2-.36,5.33,5.33,0,0,1,1.95.35,4.27,4.27,0,0,1,1.51,1,4.59,4.59,0,0,1,1,1.64A6.21,6.21,0,0,1,190.74,220.44Zm-2.9-1.21a1.92,1.92,0,0,0-.47-1.29,1.8,1.8,0,0,0-1.42-.54,2.47,2.47,0,0,0-.84.14,2.3,2.3,0,0,0-.68.4,2.14,2.14,0,0,0-.46.58,1.79,1.79,0,0,0-.19.71Z" fill="#d1d3d4"/><rect x="95.23" y="44.83" width="209.55" height="5.14" fill="#231f20"/><path d="M304.77,50.46H95.23a.5.5,0,0,1-.5-.5V44.83a.5.5,0,0,1,.5-.5H304.77a.5.5,0,0,1,.5.5V50A.5.5,0,0,1,304.77,50.46Zm-209-1H304.28V45.32H95.72Z" fill="#231f20"/></g></svg>