<svg xmlns="http://www.w3.org/2000/svg" viewBox="0 0 400 300"><g id="_361_factory_worker_flatline" data-name="#361_factory_worker_flatline"><path d="M315.29,144.19c.22-.7.26-1.74-.46-1.89a1.19,1.19,0,0,0-.71.13c-3.68,1.54-5.46,5.64-6.9,9.37-1.06,2.76-2.16,5.71-2,8.72.08,1.91,1.53,4.63,3.59,2.48,1.76-1.85,2.48-6.63,3.31-9.05Q313.75,149.09,315.29,144.19Z" fill="#fff"/><path d="M307.3,164.29a1.63,1.63,0,0,1-.62-.12c-1.22-.46-1.94-2.21-2-3.63-.13-3.2,1.09-6.37,2.07-8.92,1.55-4,3.37-8.06,7.18-9.65a1.62,1.62,0,0,1,1-.16,1.13,1.13,0,0,1,.78.56,2.68,2.68,0,0,1,.06,2h0c-1,3.26-2.11,6.55-3.22,9.78-.23.67-.46,1.55-.7,2.48-.64,2.5-1.37,5.33-2.72,6.74A2.54,2.54,0,0,1,307.3,164.29Zm7.38-21.51a.92.92,0,0,0-.36.11c-3.45,1.44-5.17,5.28-6.63,9.09-.95,2.46-2.13,5.53-2,8.52.05,1.09.6,2.45,1.35,2.74.4.15.86-.05,1.38-.59,1.16-1.22,1.89-4,2.47-6.29.25-1,.48-1.86.72-2.57,1.11-3.22,2.19-6.5,3.21-9.75a1.75,1.75,0,0,0,0-1.17.15.15,0,0,0-.12-.08Zm.61,1.41h0Z" fill="#231f20"/><path d="M108.25,174.11S80.41,203.54,79.52,208s55.69,42.43,55.69,42.43-1.77,2.87-1.1,8.61,1.1,9.28,1.1,9.28-9.06-1.76-7.73,1.11,11.93,5.08,14.14,4a35.07,35.07,0,0,0,5.31-3.76v-27c0-2.21-29.64-32-29.64-32l16.38-16.36" fill="#fff"/><path d="M139.71,274.16a27.41,27.41,0,0,1-8-1.52c-1.77-.62-4-1.66-4.66-3a1.35,1.35,0,0,1,.09-1.5c1.07-1.37,5.6-.76,7.52-.43-.16-1.28-.53-4.34-1-8.61a16,16,0,0,1,.95-8.51c-10.28-6.92-56.42-38.23-55.53-42.69s27.72-32.89,28.86-34.09a.5.5,0,0,1,.73.68c-7.72,8.16-27.9,30.09-28.61,33.6-.46,2.71,28.24,23.62,55.48,41.92a.51.51,0,0,1,.15.68s-1.67,2.82-1,8.3c.67,5.74,1.11,9.27,1.11,9.27a.5.5,0,0,1-.16.43.49.49,0,0,1-.43.13c-3-.59-6.66-.79-7.22-.06,0,0-.12.14,0,.46.38.82,1.87,1.74,4.08,2.51,3.86,1.35,8.29,1.78,9.39,1.23a33,33,0,0,0,5-3.54V242.65c-.37-1.83-18.29-20.4-29.49-31.68a.48.48,0,0,1,0-.7l16.37-16.37a.5.5,0,1,1,.71.71l-16,16c7.36,7.42,29.43,29.83,29.43,32v27a.49.49,0,0,1-.17.38,34.4,34.4,0,0,1-5.42,3.82A5,5,0,0,1,139.71,274.16Z" fill="#231f20"/><path d="M250.35,192.27S259.91,247,276.64,240s26.3-65.89,26.3-65.89l-16.67,2-9.95,22.11-11.83-37.74Z" fill="#fff"/><path d="M273.72,241.11a8.06,8.06,0,0,1-3.93-1.06c-5.35-2.94-10.33-11.87-14.81-26.56a201.74,201.74,0,0,1-5.13-21.14.57.57,0,0,1,0-.29L264,160.24a.48.48,0,0,1,.49-.29.52.52,0,0,1,.45.34l11.43,36.49,9.41-20.91a.49.49,0,0,1,.4-.29l16.67-2a.53.53,0,0,1,.42.15.5.5,0,0,1,.13.43,298.06,298.06,0,0,1-6.89,30.39c-6,20.86-12.62,32.93-19.71,35.88A8.11,8.11,0,0,1,273.72,241.11Zm-22.86-48.78c.49,2.69,7.53,40.33,19.41,46.84a6.79,6.79,0,0,0,6.18.37c15.34-6.39,24.77-58.39,25.88-64.85l-15.73,1.85-9.83,21.84a.48.48,0,0,1-.48.3.49.49,0,0,1-.45-.35l-11.43-36.47Z" fill="#231f20"/><path d="M236.75,117.94s5.28,2.18,14.9,8.81,31,58.22,31,58.22L245,204.2,243.94,180Z" fill="#68e1fd"/><path d="M249.19,225.19c.86-38.7,1.44-93.82-12.44-107.25,0,0-65.19-8.26-76.12,3-8.45,18.23-8.14,67.32-10.13,104.58Z" fill="#68e1fd"/><path d="M228.52,81.9c-.38-.78,3.37-9.55,2.12-23.38S204,39.84,194.84,41s-18.29,10.56-20.17,19.7,2.12,25.56,2.12,25.56Z" fill="#fff"/><path d="M176.78,86.77a.49.49,0,0,1-.48-.38c-.16-.67-4-16.63-2.12-25.78,2-9.71,11.43-18.92,20.6-20.09,6.28-.81,21.88,1.26,30.59,8.26,3.5,2.8,5.44,6.07,5.77,9.7a62.37,62.37,0,0,1-1.75,21.35,11.88,11.88,0,0,0-.39,1.92.44.44,0,0,1,0,.43.51.51,0,0,1-.41.22l-51.73,4.37Zm21-45.42a22.58,22.58,0,0,0-2.92.16c-8.63,1.11-17.86,10.13-19.74,19.3-1.67,8.13,1.42,22.32,2,24.93L228,81.44c0-.38.18-.94.4-1.85a61.21,61.21,0,0,0,1.72-21c-.3-3.35-2.12-6.38-5.39-9C217.39,43.65,205,41.35,197.82,41.35Z" fill="#231f20"/><path d="M184.45,121.13s6.55,9.43,18.08,9.43,14.9-5.51,14.9-5.51l-.49-6.16-1.13-14.3-1.07-13.37H188.41l-.87,10.93-1.77.2Z" fill="#fff"/><path d="M202.53,131.06c-11.66,0-18.43-9.55-18.49-9.65a.46.46,0,0,1-.09-.32l1.32-18.77a.48.48,0,0,1,.44-.46l1.36-.16.84-10.52a.51.51,0,0,1,.5-.46h26.33a.5.5,0,0,1,.5.46L217.93,125a.52.52,0,0,1-.08.3C217.71,125.55,214.2,131.06,202.53,131.06ZM185,121c.86,1.15,7.2,9.08,17.57,9.08,10.1,0,13.79-4.35,14.39-5.15l-2.64-33.19H188.87L188,102.19a.49.49,0,0,1-.44.46l-1.35.15Z" fill="#231f20"/><path d="M185.49,101.14a12.54,12.54,0,0,0,1.77,4.56,23.4,23.4,0,0,0,8.66,7.58c5.67,3.14,14.14,6.67,21,5.61l-1.13-14.3a65.16,65.16,0,0,1-15.18.1c-4.44-.39-9-.82-13.09-2.54C186.84,101.84,186.15,101.51,185.49,101.14Z" fill="#231f20"/><path d="M214.32,119.58c-6.92,0-14.47-3.55-18.65-5.86a23.73,23.73,0,0,1-8.83-7.75,13.23,13.23,0,0,1-1.84-4.74.5.5,0,0,1,.2-.5.49.49,0,0,1,.53,0c.6.33,1.26.65,2,1,4.07,1.71,8.78,2.13,12.93,2.49a63.91,63.91,0,0,0,15.07-.09.46.46,0,0,1,.38.1.49.49,0,0,1,.19.35l1.13,14.3a.5.5,0,0,1-.42.54A18.55,18.55,0,0,1,214.32,119.58Zm-28.11-17.49a12,12,0,0,0,1.48,3.34c1.7,2.75,4.55,5.24,8.47,7.41,4.51,2.5,13.07,6.5,20.25,5.62l-1.06-13.3a65.59,65.59,0,0,1-14.76,0c-4.23-.37-9-.79-13.25-2.57Z" fill="#231f20"/><path d="M177.14,63.56s-8.45.21-10.77,3.69.17,21.71,1,22.87,14.34,4.17,14.34,4.17Z" fill="#fff"/><path d="M181.71,94.79h-.11c-3.21-.72-13.77-3.14-14.64-4.36S163.52,70.63,166,67s10.82-3.91,11.17-3.92a.49.49,0,0,1,.51.43l4.57,30.73a.53.53,0,0,1-.16.44A.51.51,0,0,1,181.71,94.79Zm-5-30.71c-1.74.1-8.07.66-9.93,3.45-2.15,3.23.2,21,1,22.31.58.63,7.11,2.4,13.33,3.8Z" fill="#231f20"/><path d="M226.13,63.56s8.45.21,10.77,3.69-.16,21.71-1,22.87-14.35,4.17-14.35,4.17Z" fill="#fff"/><path d="M221.56,94.79a.53.53,0,0,1-.34-.13.49.49,0,0,1-.15-.44l4.56-30.73a.49.49,0,0,1,.51-.43c.36,0,8.74.26,11.18,3.92s-.12,22.2-1,23.44-11.42,3.64-14.64,4.36Zm5-30.71-4.4,29.56c6.23-1.4,12.76-3.17,13.35-3.81.78-1.25,3.13-19.07,1-22.3C234.63,64.74,228.29,64.18,226.56,64.08Z" fill="#231f20"/><path d="M200.81,109.35h2.35c11.14,0,20.18-9.34,20.18-20.86V74.82c0-1.4-.46-6.46-2.49-6.1a3.62,3.62,0,0,0-1.51.85A25.84,25.84,0,0,1,215.68,72a1.69,1.69,0,0,1-1.43.27c-.72-.3-.75-1.33-.66-2.13l.14-1.29c0-.27,0-.64-.27-.67-4.09,2.38-8.22,4.63-13,5a2.13,2.13,0,0,1-2-.61,2,2,0,0,1-.29-1.08,10.26,10.26,0,0,1,.78-4.68,15.58,15.58,0,0,1-5.89,3.64c-3,1-5.75,2.07-8.72,3.08l-5.53,1.89c1.07,6.72.75,14.35,3.22,20.79A20.36,20.36,0,0,0,200.81,109.35Z" fill="#fff"/><path d="M203.16,109.85h-2.35a20.85,20.85,0,0,1-19.24-13.52c-1.66-4.33-2.07-9.19-2.48-13.89-.2-2.33-.41-4.75-.77-7a.5.5,0,0,1,.33-.55L184.19,73c1.43-.49,2.82-1,4.21-1.49s3-1.07,4.51-1.59a15.05,15.05,0,0,0,5.7-3.53.5.5,0,0,1,.63-.06.49.49,0,0,1,.18.61,9.73,9.73,0,0,0-.74,4.46,1.75,1.75,0,0,0,.2.83c.22.33.73.45,1.57.39,4.57-.34,8.48-2.43,12.76-4.91a.48.48,0,0,1,.31-.07c.5.06.78.56.71,1.23l-.15,1.29c0,.42-.11,1.42.36,1.61a1.33,1.33,0,0,0,1-.25A26.64,26.64,0,0,0,219,69.18a4,4,0,0,1,1.73-1,1.58,1.58,0,0,1,1.34.37c1.66,1.39,1.74,6.17,1.74,6.22V88.49C223.84,100.27,214.56,109.85,203.16,109.85ZM179.37,75.7c.33,2.16.53,4.45.72,6.66.4,4.63.81,9.41,2.41,13.61a19.85,19.85,0,0,0,18.31,12.88h2.35c10.85,0,19.68-9.13,19.68-20.36V74.82c0-1.5-.41-4.64-1.38-5.45a.62.62,0,0,0-.52-.16,3.12,3.12,0,0,0-1.23.71,27.35,27.35,0,0,1-3.79,2.48,2.16,2.16,0,0,1-1.86.3c-.56-.24-1.17-.88-1-2.66l.13-1.19c-4.06,2.35-8.11,4.43-12.7,4.77a2.58,2.58,0,0,1-2.47-.83,2.51,2.51,0,0,1-.37-1.32,10.42,10.42,0,0,1,.25-3.15,15.91,15.91,0,0,1-4.7,2.55c-1.53.51-3,1-4.49,1.58s-2.79,1-4.23,1.49Z" fill="#231f20"/><path d="M202.21,95.47a26.83,26.83,0,0,1-3.08-.17.5.5,0,0,1-.44-.55.5.5,0,0,1,.56-.44,26.41,26.41,0,0,0,5.73,0c.06,0,.13,0,.2-.15.95-1.58-1.54-9.58-3.33-14.25a.49.49,0,0,1,.29-.64.51.51,0,0,1,.65.28c.49,1.29,4.76,12.6,3.25,15.12a1.21,1.21,0,0,1-.94.63A22.66,22.66,0,0,1,202.21,95.47Z" fill="#231f20"/><path d="M203.41,101.65a18.23,18.23,0,0,1-8.27-2.4.52.52,0,0,1-.21-.68.51.51,0,0,1,.68-.21c4.13,2.17,7.68,2.8,10.56,1.87A7.25,7.25,0,0,0,210.25,97a.5.5,0,1,1,.9.44,8.19,8.19,0,0,1-4.68,3.73A9.9,9.9,0,0,1,203.41,101.65Z" fill="#231f20"/><path d="M192.49,88.63H184a8.07,8.07,0,0,1-8-7.36l-.8-9.69a.46.46,0,0,1,.13-.38.48.48,0,0,1,.36-.16h51.95a.53.53,0,0,1,.39.18.53.53,0,0,1,.1.42l-1.93,9.94a8,8,0,0,1-7.88,6.5h-7a8.07,8.07,0,0,1-6.47-3.27l-2.68-3.64-3.34,4.33A8.08,8.08,0,0,1,192.49,88.63ZM176.26,72l.76,9.14a7.06,7.06,0,0,0,7,6.45h8.47a7.05,7.05,0,0,0,5.57-2.74L201.8,80a.49.49,0,0,1,.41-.19.47.47,0,0,1,.39.2l3.08,4.18a7.05,7.05,0,0,0,5.66,2.86h7a7,7,0,0,0,6.9-5.69L227.06,72Z" fill="#231f20"/><path d="M232,60.69c0,3.1-13.42,7.76-30,7.76s-30-4.66-30-7.76a165.82,165.82,0,0,1,59.93,0Z" fill="#fff"/><path d="M202,69c-16.4,0-30.46-4.54-30.46-8.26a.5.5,0,0,1,.4-.49,166.32,166.32,0,0,1,60.13,0,.5.5,0,0,1,.4.49C232.45,64.41,218.39,69,202,69Zm-29.37-7.86C173.79,63.65,185.82,68,202,68s28.2-4.3,29.37-6.86a165.31,165.31,0,0,0-58.74,0Z" fill="#231f20"/><path d="M202,28.79h0a30,30,0,0,1,30,30v1.94a0,0,0,0,1,0,0H172a0,0,0,0,1,0,0V58.75A30,30,0,0,1,202,28.79Z" fill="#fff"/><path d="M232,61.19H172a.5.5,0,0,1-.5-.5V58.75a30.47,30.47,0,0,1,60.93,0v1.94A.5.5,0,0,1,232,61.19Zm-59.43-1h58.93V58.75a29.47,29.47,0,0,0-58.93,0Z" fill="#231f20"/><path d="M199.55,26.34h4.87a4.6,4.6,0,0,1,4.6,4.6V60.69a0,0,0,0,1,0,0H194.95a0,0,0,0,1,0,0V30.95A4.6,4.6,0,0,1,199.55,26.34Z" fill="#fff"/><path d="M209,61.19H195a.5.5,0,0,1-.5-.5V31a5.1,5.1,0,0,1,5.1-5.11h4.87a5.11,5.11,0,0,1,5.1,5.11V60.69A.5.5,0,0,1,209,61.19Zm-13.57-1h13.07V31a4.11,4.11,0,0,0-4.1-4.11h-4.87a4.11,4.11,0,0,0-4.1,4.11Z" fill="#231f20"/><ellipse cx="192.23" cy="78.93" rx="1.49" ry="3.18" fill="#231f20"/><ellipse cx="213.72" cy="78.93" rx="1.49" ry="3.18" fill="#231f20"/><path d="M184.58,112.44s-9.38.83-8.65,4.36,17,24.25,17,24.25l8.17-10.49S189.8,124.09,184.58,112.44Z" fill="#fff"/><path d="M193,141.55a.51.51,0,0,1-.39-.19c-.67-.85-16.4-20.85-17.13-24.46a2.3,2.3,0,0,1,.44-1.9c1.81-2.43,8.37-3,8.65-3a.49.49,0,0,1,.5.29c5.09,11.36,16.24,17.82,16.35,17.88a.47.47,0,0,1,.24.34.48.48,0,0,1-.09.4l-8.17,10.5A.45.45,0,0,1,193,141.55ZM184.27,113c-2,.21-6.38,1-7.59,2.62a1.31,1.31,0,0,0-.27,1.1c.56,2.73,11.78,17.45,16.55,23.54l7.43-9.55C198.16,129.29,188.93,123.06,184.27,113Z" fill="#231f20"/><path d="M217.08,112.44s9.37.83,8.65,4.36-17,24.25-17,24.25l-8.17-10.49S211.86,124.09,217.08,112.44Z" fill="#fff"/><path d="M208.69,141.55a.68.68,0,0,1-.39-.19l-8.17-10.5a.48.48,0,0,1-.1-.4.53.53,0,0,1,.24-.34c.12-.06,11.26-6.52,16.35-17.88a.47.47,0,0,1,.5-.29c.28,0,6.84.62,8.65,3a2.27,2.27,0,0,1,.45,1.9c-.74,3.61-16.47,23.61-17.14,24.46A.49.49,0,0,1,208.69,141.55Zm-7.43-10.86,7.43,9.55c4.78-6.09,16-20.81,16.55-23.54a1.31,1.31,0,0,0-.27-1.1c-1.2-1.62-5.59-2.41-7.58-2.62C212.73,123.06,203.49,129.29,201.26,130.69Z" fill="#231f20"/><polygon points="239.25 192.81 239.25 165.97 161 165.97 161 192.81 146.93 205.3 146.93 272.26 253.31 272.26 253.31 205.3 239.25 192.81" fill="#231f20"/><path d="M253.31,272.76H146.93a.5.5,0,0,1-.5-.5v-67a.5.5,0,0,1,.17-.37l13.9-12.35V166a.5.5,0,0,1,.5-.5h78.25a.5.5,0,0,1,.5.5v26.61l13.9,12.35a.52.52,0,0,1,.16.37v67A.5.5,0,0,1,253.31,272.76Zm-105.88-1H252.81V205.53l-13.89-12.35a.5.5,0,0,1-.17-.37V166.47H161.5v26.34a.53.53,0,0,1-.17.37l-13.9,12.35Z" fill="#231f20"/><polygon points="168.8 175.69 178.82 175.69 175.85 115.32 165.41 117.94 168.8 175.69" fill="#fff"/><path d="M178.82,176.19h-10a.5.5,0,0,1-.5-.47L164.91,118a.5.5,0,0,1,.38-.52l10.44-2.61a.49.49,0,0,1,.62.46l3,60.37a.57.57,0,0,1-.14.37A.51.51,0,0,1,178.82,176.19Zm-9.55-1h9L175.38,116l-9.45,2.37Z" fill="#231f20"/><polygon points="233.35 175.69 223.34 175.69 226.3 115.32 236.75 117.94 233.35 175.69" fill="#fff"/><path d="M233.35,176.19h-10a.48.48,0,0,1-.5-.52l3-60.37a.51.51,0,0,1,.2-.38.48.48,0,0,1,.42-.08l10.45,2.61a.5.5,0,0,1,.37.52l-3.39,57.75A.5.5,0,0,1,233.35,176.19Zm-9.49-1h9l3.34-56.87L226.77,116Z" fill="#231f20"/><rect x="166.59" y="169.28" width="14.36" height="9.65" fill="#d1d3d4"/><path d="M181,179.44H166.59a.51.51,0,0,1-.5-.5v-9.66a.51.51,0,0,1,.5-.5H181a.51.51,0,0,1,.5.5v9.66A.51.51,0,0,1,181,179.44Zm-13.87-1h13.37v-8.66H167.09Z" fill="#231f20"/><rect x="221.18" y="169.28" width="14.36" height="9.65" transform="translate(7.71 -9.67) rotate(2.47)" fill="#d1d3d4"/><path d="M235.33,179.74h0L221,179.12a.46.46,0,0,1-.34-.16.54.54,0,0,1-.14-.36l.42-9.64a.52.52,0,0,1,.16-.35.49.49,0,0,1,.36-.13l14.35.62a.5.5,0,0,1,.48.52l-.42,9.64A.5.5,0,0,1,235.33,179.74Zm-13.83-1.59,13.35.57.37-8.64-13.35-.58Z" fill="#231f20"/><path d="M202.18,258.66h-4.11A26.71,26.71,0,0,1,171.39,232V210a.5.5,0,0,1,.5-.5h56.47a.5.5,0,0,1,.5.5v22A26.71,26.71,0,0,1,202.18,258.66Zm-29.79-48.21V232a25.71,25.71,0,0,0,25.68,25.68h4.11A25.71,25.71,0,0,0,227.86,232V210.45Z" fill="#d1d3d4"/><path d="M162.06,119.73a208.5,208.5,0,0,0-17.35,13.09c-15.22,12.79-36.38,34.1-47.95,46.12l33.32,26.95,21.12-20.57S169.13,129.45,162.06,119.73Z" fill="#68e1fd"/><polygon points="318.4 132.24 298.44 117.61 257.11 173.99 259.19 179.36 279.16 193.99 320.49 137.62 318.4 132.24" fill="#231f20"/><path d="M279.16,194.49a.53.53,0,0,1-.3-.09l-20-14.64a.41.41,0,0,1-.17-.22l-2.09-5.37a.51.51,0,0,1,.06-.48L298,117.31a.54.54,0,0,1,.33-.2.53.53,0,0,1,.37.09l20,14.64a.41.41,0,0,1,.17.22l2.09,5.37a.51.51,0,0,1-.06.48l-41.33,56.38a.5.5,0,0,1-.33.2ZM259.61,179l19.44,14.25,40.87-55.75-1.94-5-19.44-14.25-40.87,55.75Z" fill="#231f20"/><rect x="275.38" y="118.16" width="24.75" height="69.91" transform="translate(146.21 -140.5) rotate(36.24)" fill="#fff"/><path d="M277.07,189.12a.47.47,0,0,1-.3-.1l-20-14.63a.51.51,0,0,1-.11-.7L298,117.31a.54.54,0,0,1,.33-.2.53.53,0,0,1,.37.09l20,14.64a.5.5,0,0,1,.11.7l-41.33,56.37a.5.5,0,0,1-.33.2Zm-19.26-15.24,19.15,14,40.74-55.57-19.16-14Z" fill="#231f20"/><circle cx="299.8" cy="136.68" r="7.96" fill="#68e1fd"/><path d="M299.78,145.13a8.48,8.48,0,1,1,1.31-.1A8.26,8.26,0,0,1,299.78,145.13Zm0-15.91a7.45,7.45,0,1,0,4.4,1.44A7.45,7.45,0,0,0,299.81,129.22Z" fill="#231f20"/><circle cx="287.26" cy="153.79" r="7.96" fill="#d1d3d4"/><path d="M287.25,162.24a8.45,8.45,0,1,1,6.83-3.45A8.41,8.41,0,0,1,287.25,162.24Zm0-15.91a7.45,7.45,0,1,0,4.4,1.44A7.43,7.43,0,0,0,287.27,146.33Z" fill="#231f20"/><rect x="267.3" y="167.44" width="14.75" height="7.02" transform="matrix(0.81, 0.59, -0.59, 0.81, 154.22, -129.32)" fill="#fff"/><path d="M278.55,178.63a.5.5,0,0,1-.29-.09l-11.9-8.72a.51.51,0,0,1-.11-.7l4.15-5.66a.5.5,0,0,1,.33-.2.49.49,0,0,1,.37.09l11.9,8.72a.51.51,0,0,1,.11.7L279,178.43a.5.5,0,0,1-.33.2Zm-11.19-9.32,11.09,8.13,3.55-4.86-11.09-8.13Z" fill="#231f20"/><rect x="268.25" y="164.79" width="5.72" height="6.76" transform="translate(151.89 -127.75) rotate(36.24)" fill="#231f20"/><path d="M271.42,173.09a.47.47,0,0,1-.3-.1l-4.61-3.38a.51.51,0,0,1-.11-.7l4-5.45a.5.5,0,0,1,.33-.2.49.49,0,0,1,.37.09l4.61,3.38a.5.5,0,0,1,.2.33.49.49,0,0,1-.09.37l-4,5.46a.51.51,0,0,1-.32.19Zm-3.91-4,3.8,2.79,3.41-4.65-3.81-2.79Z" fill="#231f20"/><path d="M288.79,181.65l3.7-4.94s-1.51-15.11-.11-18.77c.28-.74,1-1.55,1.7-1.22a1.47,1.47,0,0,1,.62.78,14.94,14.94,0,0,1,1.41,6,53.3,53.3,0,0,1,.5-10.86c.09-.61.26-1.31.82-1.57.95-.42,1.77.8,2.05,1.8a24.22,24.22,0,0,1,.77,4.23,19.24,19.24,0,0,1,.38-7.74c.8-3.07,2.75-2.83,3.11.32l.6,5.22c0-2.63.45-5.23.39-7.85a5.92,5.92,0,0,1,2.26-5.34,1.83,1.83,0,0,1,1.08-.52,1.71,1.71,0,0,1,1.4,1.21,9.91,9.91,0,0,1,.53,3.72c.08,7.83.9,15.82-1.76,23.18-2.56,7.11-7.2,10.24-11.3,11.57" fill="#fff"/><path d="M288.79,182.15a.49.49,0,0,1-.3-.1.51.51,0,0,1-.1-.7l3.59-4.78c-.18-1.86-1.42-15.27-.06-18.81a2.6,2.6,0,0,1,1.32-1.51,1.27,1.27,0,0,1,1.06,0,2,2,0,0,1,.86,1c.15.32.28.64.41,1a54.59,54.59,0,0,1,.54-5.71,2.36,2.36,0,0,1,1.12-2,1.45,1.45,0,0,1,1.22,0,2.84,2.84,0,0,1,1.2,1.31,19.28,19.28,0,0,1,.5-2.71c.43-1.66,1.26-2.61,2.2-2.54s1.58,1,1.83,2.56c0-.73.06-1.46.05-2.19a6.45,6.45,0,0,1,2.43-5.73,2.34,2.34,0,0,1,1.41-.64,2.17,2.17,0,0,1,1.86,1.51,10.35,10.35,0,0,1,.57,3.91c0,1.37.05,2.75.09,4.12.17,6.43.35,13.08-1.88,19.24s-6.18,10.11-11.62,11.88a.51.51,0,0,1-.63-.33.49.49,0,0,1,.32-.62c5.21-1.69,8.91-5.48,11-11.27,2.16-6,2-12.53,1.82-18.87,0-1.38-.08-2.76-.09-4.14a9.47,9.47,0,0,0-.49-3.53c-.18-.41-.52-.9-.93-.9h0a1.41,1.41,0,0,0-.77.4,5.42,5.42,0,0,0-2.08,5,42.08,42.08,0,0,1-.2,4.37c-.09,1.14-.18,2.33-.19,3.49a.51.51,0,0,1-.48.5.5.5,0,0,1-.52-.45l-.6-5.21c-.17-1.47-.67-2-1-2.06s-.81.45-1.16,1.8a18.5,18.5,0,0,0-.53,6.24c.07.44.12.89.16,1.33a.49.49,0,0,1-.43.54.5.5,0,0,1-.56-.42c-.07-.44-.12-.88-.16-1.33A24.73,24.73,0,0,0,299,153a2.39,2.39,0,0,0-1-1.46.41.41,0,0,0-.39,0c-.34.15-.46.71-.53,1.18a53.33,53.33,0,0,0-.53,10c0,.25,0,.5,0,.76a.51.51,0,0,1-.48.51.5.5,0,0,1-.52-.48c0-.24,0-.48,0-.73a14.57,14.57,0,0,0-1.32-5.06c-.11-.23-.23-.46-.39-.53a.29.29,0,0,0-.25,0,1.77,1.77,0,0,0-.76,1c-1.35,3.51.13,18.39.14,18.54a.48.48,0,0,1-.1.35l-3.7,4.94A.51.51,0,0,1,288.79,182.15Z" fill="#231f20"/><path d="M151.13,197.14h0a.5.5,0,0,1-.48-.52l2.11-51.13a.51.51,0,0,1,.52-.48.49.49,0,0,1,.47.52l-2.1,51.13A.5.5,0,0,1,151.13,197.14Z" fill="#231f20"/><path d="M250.34,208.23a.49.49,0,0,1-.49-.47c0-.66-1.7-56.42-1.77-58.79a.5.5,0,0,1,.48-.52.53.53,0,0,1,.52.49c0,.58,1.73,58.08,1.76,58.77a.49.49,0,0,1-.47.52Z" fill="#231f20"/><path d="M268.58,213.66a.49.49,0,0,1-.23-.06.5.5,0,0,1-.22-.67l8.32-16.51a.49.49,0,0,1,.67-.22.5.5,0,0,1,.23.67L269,213.38A.5.5,0,0,1,268.58,213.66Z" fill="#231f20"/><path d="M249.56,163.31a.5.5,0,0,1-.2-1c.78-.68,4.32-8.16,7.29-14.92a.5.5,0,1,1,.91.4c-4.4,10-7.05,15.25-7.87,15.46Z" fill="#231f20"/><path d="M151.13,174.61a.51.51,0,0,1-.5-.44L148,150.33a.5.5,0,0,1,1-.11l2.66,23.84a.5.5,0,0,1-.45.55Z" fill="#231f20"/><polygon points="267 183.07 261.25 190.14 264.8 193.59 270.39 186.31 267 183.07" fill="#231f20"/><path d="M264.8,194.1a.51.51,0,0,1-.35-.15l-3.54-3.45a.48.48,0,0,1,0-.67l5.74-7.07a.52.52,0,0,1,.36-.19.53.53,0,0,1,.38.14l3.38,3.24a.49.49,0,0,1,0,.67l-5.58,7.28a.52.52,0,0,1-.36.19Zm-2.87-4,2.82,2.74,5-6.48-2.67-2.55Z" fill="#231f20"/><path d="M276.64,272.36a1.5,1.5,0,0,1-.81-2.76c.47-.3,11.51-7.72,9.94-23.93-.81-8.26-8-13.9-14.95-19.35S257,215.53,257.08,207.73c.08-13.17,7.4-20.2,7.71-20.49a1.5,1.5,0,1,1,2.06,2.18h0c-.07.07-6.7,6.5-6.77,18.32,0,6.33,6.1,11.14,12.59,16.22,7.1,5.57,15.15,11.88,16.08,21.42,1.76,18.08-10.76,26.4-11.29,26.74A1.56,1.56,0,0,1,276.64,272.36Z" fill="#231f20"/><path d="M171.11,90.18a.5.5,0,0,1-.5-.44l-2.36-22.1a.5.5,0,0,1,1-.11l2.35,22.1a.5.5,0,0,1-.44.55Z" fill="#d1d3d4"/><path d="M232,89.45h0a.5.5,0,0,1-.45-.55l2.35-22.2a.5.5,0,0,1,1,.11L232.45,89A.51.51,0,0,1,232,89.45Z" fill="#d1d3d4"/></g></svg>