<svg xmlns="http://www.w3.org/2000/svg" viewBox="0 0 400 300"><g id="_196_family_flatline" data-name="#196_family_flatline"><path d="M230.88,239s1.59,7.41,1.12,8.22-14.08,14.24-8.45,13.51,22.3-12.47,22.3-12.47l-1.41-12Z" fill="#fff"/><path d="M223.15,261.23a1.34,1.34,0,0,1-1.32-.66c-.85-1.64,2.55-5.83,8.32-12,.68-.74,1.33-1.44,1.42-1.59.19-.54-.46-4.51-1.18-7.85a.51.51,0,0,1,.39-.6l13.56-2.71a.49.49,0,0,1,.39.09.5.5,0,0,1,.21.34l1.41,12a.5.5,0,0,1-.21.47c-.69.48-16.83,11.81-22.52,12.55A2.63,2.63,0,0,1,223.15,261.23Zm8.33-21.87c.6,2.88,1.42,7.28,1,8.08a22.22,22.22,0,0,1-1.56,1.76c-5.88,6.35-8.63,10-8.16,10.92,0,.08.3.15.77.08,5.08-.66,19.75-10.76,21.83-12.21L244,236.86Z" fill="#231f20"/><path d="M252.63,239.61s.46,6.12,0,8.46-7.26,9.62-5.62,10.56,19.72-9.51,19.72-9.51l-1.18-13.41Z" fill="#fff"/><path d="M247.21,259.16a1,1,0,0,1-.45-.09,1,1,0,0,1-.47-.66c-.24-1.07,1-3,3.1-5.91,1.27-1.79,2.58-3.65,2.75-4.52.44-2.26,0-8.27,0-8.33a.51.51,0,0,1,.35-.52l12.92-3.9a.48.48,0,0,1,.42.07.47.47,0,0,1,.22.37l1.17,13.41a.51.51,0,0,1-.24.48C261.81,252.54,250.05,259.16,247.21,259.16ZM253.16,240a44.05,44.05,0,0,1,0,8.19c-.21,1.09-1.52,2.94-2.91,4.91-1.13,1.59-3.22,4.56-2.94,5.13,1.17.34,10.48-4.49,18.93-9.36l-1.09-12.48Z" fill="#231f20"/><path d="M138.06,237.29a43.64,43.64,0,0,1,0,5.51c-.24.71-1.64,4.23-1.41,5.28s12,19.72,14.9,16.78-4.57-16.54-4.57-18,.94-9.62.94-9.62Z" fill="#fff"/><path d="M150.78,265.68a2.16,2.16,0,0,1-.63-.1c-4.25-1.24-13.7-16.1-14-17.39-.19-.85.36-2.62,1.23-5a5.31,5.31,0,0,0,.19-.53,37.76,37.76,0,0,0,0-5.33.48.48,0,0,1,.14-.37.48.48,0,0,1,.36-.15h9.86a.5.5,0,0,1,.37.17.47.47,0,0,1,.12.38c0,.09-.93,8.21-.93,9.57a23.56,23.56,0,0,0,1.29,3.27c2.79,6.41,5.32,12.86,3.14,15A1.54,1.54,0,0,1,150.78,265.68Zm-12.2-27.89a29.49,29.49,0,0,1-.05,5.17l-.2.56c-.33.92-1.36,3.71-1.19,4.45.41,1.32,9.73,15.77,13.36,16.67a.66.66,0,0,0,.7-.13c1.88-1.88-1.52-9.72-3.34-13.93a15.28,15.28,0,0,1-1.38-3.67c0-1.22.66-7.23.88-9.12Z" fill="#231f20"/><path d="M164,238.55s.47,7.86,0,9.62-1.29,3.75-1.05,4.81,14.66,13.73,15.37,11.5-5.17-11.24-5.28-12.84,1.87-13.92,1.87-13.92Z" fill="#fff"/><path d="M177.88,265.24h-.06c-2.82-.12-15.1-10.92-15.37-12.15a8.44,8.44,0,0,1,.64-3.63c.15-.48.29-1,.42-1.42.37-1.38.11-7.3,0-9.47a.5.5,0,0,1,.46-.52l10.92-.83a.47.47,0,0,1,.4.17.48.48,0,0,1,.13.41c-.55,3.41-2,12.54-1.88,13.81a24.46,24.46,0,0,0,1.92,4.09c2.25,4.31,3.81,7.47,3.34,8.93A.88.88,0,0,1,177.88,265.24ZM164.52,239c.09,1.77.37,7.71-.05,9.29-.12.47-.28,1-.43,1.45a8.57,8.57,0,0,0-.62,3.12,57,57,0,0,0,6.86,6.31c4.89,4,7,5.06,7.57,5.06.25-1.28-1.88-5.35-3.3-8.07-1.26-2.41-2-3.81-2-4.49-.11-1.46,1.35-10.7,1.78-13.41Z" fill="#231f20"/><path d="M69.94,99.28s-4.73-4.73-5.08-6.48-1-7.88-2.41-6.75-.92,5.52-.92,5.52S55,84.39,53.29,86.05s-2.46,3.26-2.46,6.49S67,108.75,67,108.75" fill="#fff"/><path d="M67,109.25a.51.51,0,0,1-.31-.11C65,107.79,50.33,95.92,50.33,92.54s.69-5,2.61-6.85a1.48,1.48,0,0,1,1.11-.38c1.93.07,5.23,3.2,6.88,4.9,0-1.49.12-3.69,1.21-4.55a1,1,0,0,1,1-.18c1,.42,1.51,2.83,2,6,.09.52.15,1,.22,1.27.23,1.17,3.15,4.44,4.94,6.23a.5.5,0,0,1,0,.71.51.51,0,0,1-.71,0c-.49-.5-4.85-4.89-5.21-6.74-.07-.32-.14-.78-.22-1.32-.19-1.21-.77-4.89-1.38-5.17-.91.74-.94,3.52-.75,5.1a.5.5,0,0,1-.29.52.51.51,0,0,1-.58-.12c-1.38-1.54-5.37-5.54-7.14-5.6a.54.54,0,0,0-.38.11c-1.72,1.63-2.3,3.17-2.3,6.12,0,2.19,9.78,10.86,15.94,15.82a.5.5,0,0,1,.08.7A.52.52,0,0,1,67,109.25Z" fill="#231f20"/><polygon points="88.78 247.2 80.58 247.2 79.21 236.26 90.15 236.26 88.78 247.2" fill="#fff"/><path d="M88.78,247.7h-8.2a.51.51,0,0,1-.5-.44l-1.37-10.93a.53.53,0,0,1,.13-.4.48.48,0,0,1,.37-.17H90.15a.48.48,0,0,1,.37.17.53.53,0,0,1,.13.4l-1.37,10.93A.51.51,0,0,1,88.78,247.7Zm-7.76-1h7.32l1.24-9.94h-9.8Z" fill="#231f20"/><polygon points="309.76 247.2 301.56 247.2 300.19 236.26 311.13 236.26 309.76 247.2" fill="#fff"/><path d="M309.76,247.7h-8.2a.51.51,0,0,1-.5-.44l-1.37-10.93a.53.53,0,0,1,.13-.4.48.48,0,0,1,.37-.17h10.94a.48.48,0,0,1,.37.17.53.53,0,0,1,.13.4l-1.37,10.93A.51.51,0,0,1,309.76,247.7Zm-7.76-1h7.32l1.24-9.94h-9.8Z" fill="#231f20"/><path d="M319.82,126.59a65.48,65.48,0,0,0-64.28-53H144.69a65.49,65.49,0,0,0-64.28,53H48.63l26.28,96.73H321.14l30.46-96.73Z" fill="#fff"/><path d="M321.14,223.82H74.91a.5.5,0,0,1-.48-.37L48.15,126.72a.5.5,0,0,1,.08-.43.52.52,0,0,1,.4-.2H80a66,66,0,0,1,64.69-53H255.54a66,66,0,0,1,64.69,53H351.6a.52.52,0,0,1,.41.21.49.49,0,0,1,.07.44l-30.46,96.73A.5.5,0,0,1,321.14,223.82Zm-245.84-1H320.78l30.14-95.73h-31.1a.5.5,0,0,1-.49-.4,65,65,0,0,0-63.79-52.6H144.69a65,65,0,0,0-63.79,52.6.49.49,0,0,1-.49.4H49.28Z" fill="#231f20"/><path d="M193.33,237.44h-.07a.65.65,0,0,1-.41-.31.51.51,0,0,1,.05-.53.48.48,0,0,1,.49-.18.59.59,0,0,1,.45.37.5.5,0,0,1-.13.49h0A.57.57,0,0,1,193.33,237.44Z" fill="#231f20"/><path d="M351.49,126.59c-10.89,0-18.54,6.93-20.58,19.13l-13,58.59H82.07l-13-58.59c-2-12.2-9.69-19.13-20.58-19.13a19.72,19.72,0,0,0,0,39.43l12.38,58.43a15.68,15.68,0,0,0,15.4,12.43c29.5-.12,105.37,0,105.35,0,.36-.07,112.57-.15,142.07,0a15.68,15.68,0,0,0,15.4-12.43L351.49,166a19.72,19.72,0,0,0,0-39.43Z" fill="#fff"/><path d="M181.59,237.41h-.09c-3.35,0-76.46-.13-105.21,0A16.27,16.27,0,0,1,60.4,224.55l-12.29-58a20.22,20.22,0,0,1,.4-40.43c11.32,0,19,7.13,21.07,19.55l12.89,58.17H317.53l12.9-58.2c2.06-12.39,9.74-19.52,21.06-19.52a20.22,20.22,0,0,1,.4,40.43l-12.29,58a16.26,16.26,0,0,1-15.83,12.83h-.06c-30.62-.13-140.83,0-142,0Zm-64.21-1.08H140c32.89,0,39.94,0,41.54.17l0-.08c.55-.11,117.48-.14,142.17,0h.06a15.24,15.24,0,0,0,14.85-12L351,165.92a.49.49,0,0,1,.49-.4,19.22,19.22,0,0,0,0-38.43c-10.78,0-18.1,6.82-20.08,18.71l-13,58.62a.5.5,0,0,1-.49.39H82.07a.5.5,0,0,1-.49-.39l-13-58.59c-2-11.92-9.31-18.74-20.09-18.74a19.22,19.22,0,0,0,0,38.43.49.49,0,0,1,.49.4l12.38,58.42a15.24,15.24,0,0,0,14.85,12h.06C87,236.34,102.91,236.33,117.38,236.33Z" fill="#231f20"/><path d="M314.87,192H84.12a2.58,2.58,0,0,1-1.85-4.37l20.38-21a.51.51,0,0,1,.36-.15H297.22a.48.48,0,0,1,.36.15l19.52,20.11a3.1,3.1,0,0,1-2.23,5.26ZM103.22,167.49,83,188.34A1.57,1.57,0,0,0,84.12,191H314.87a2.1,2.1,0,0,0,1.51-3.57L297,167.49Z" fill="#d1d3d4"/><path d="M101.08,160.75a.52.52,0,0,1-.47-.33c-6-16.3-18-27.57-18.17-27.69a.48.48,0,0,1,0-.7.5.5,0,0,1,.71,0c.12.11,12.36,11.54,18.43,28.07a.49.49,0,0,1-.3.64A.33.33,0,0,1,101.08,160.75Z" fill="#d1d3d4"/><path d="M300.19,163.51a.51.51,0,0,1-.5-.49c-.33-13.67,15.15-30.3,15.81-31a.49.49,0,0,1,.7,0,.51.51,0,0,1,0,.71c-.16.17-15.86,17-15.54,30.29a.5.5,0,0,1-.49.51Z" fill="#d1d3d4"/><path d="M48.51,160.75A14.44,14.44,0,1,1,63,146.31,14.46,14.46,0,0,1,48.51,160.75Zm0-27.88A13.44,13.44,0,1,0,62,146.31,13.46,13.46,0,0,0,48.51,132.87Z" fill="#d1d3d4"/><path d="M351.49,160.75a14.44,14.44,0,1,1,14.44-14.44A14.46,14.46,0,0,1,351.49,160.75Zm0-27.88a13.44,13.44,0,1,0,13.44,13.44A13.46,13.46,0,0,0,351.49,132.87Z" fill="#d1d3d4"/><path d="M157,149.54,111,152s-2.82,12.61,5,18.86,23.78,12.73,24.72,17.32-4.76,44.22-4.14,53.6l14.15,3.36s12.2-47.37,11.89-55.19-4.38-11.53-4.38-11.53,11.27,9.65,11.58,11.84-8.09,52.44-8.09,52.44,14.94.58,15.25-.36,14.12-47.38,10.67-57.4S157,149.54,157,149.54Z" fill="#231f20"/><path d="M150.77,245.53l-.11,0-14.14-3.35a.44.44,0,0,1-.34-.4c-.32-4.88,1-17.54,2.31-29.79,1.17-11.11,2.28-21.6,1.84-23.75-.53-2.57-6.75-6.13-12.76-9.58a98.83,98.83,0,0,1-11.81-7.48c-7.94-6.36-5.27-18.78-5.15-19.31a.44.44,0,0,1,.4-.34l46-2.41a.45.45,0,0,1,.32.11c1.11,1,27.34,25.54,30.78,35.54,3.54,10.28-10.52,57.23-10.67,57.68s-.42,1.26-15.68.66a.47.47,0,0,1-.33-.17.43.43,0,0,1-.09-.35c3.37-20.16,8.3-50.74,8.08-52.29-.17-1.18-4.57-5.46-8.53-9a19.85,19.85,0,0,1,2.21,8.63c.31,7.8-11.41,53.38-11.91,55.32A.45.45,0,0,1,150.77,245.53Zm-13.72-4.15,13.4,3.18c1.2-4.71,12.06-47.36,11.77-54.64-.3-7.53-4.2-11.19-4.24-11.23a.44.44,0,0,1,0-.61.44.44,0,0,1,.62-.05c1.16,1,11.4,9.83,11.72,12.12.31,2.14-6.83,45-8,52.07,6.46.24,13.36.24,14.35-.17.76-2.52,14-47.39,10.64-57-3.25-9.44-28.33-33.1-30.42-35l-45.46,2.38c-.36,2-1.91,12.64,4.91,18.1a99.18,99.18,0,0,0,11.7,7.41c6.75,3.86,12.57,7.2,13.18,10.16.47,2.29-.6,12.36-1.83,24C138.16,223.45,136.8,236.33,137.05,241.38Z" fill="#231f20"/><path d="M108.93,153.09s2.74-19.91,5.32-30.24c0,0-7.64,13.36-16.8,14.11s-36.11-30.31-36.11-30.31L68.88,96s18.88,14.84,29.75,19.61c2.82-6.57,19.52-30.26,29.14-35s21.91-1,28.48,4.4,48.58,60.08,48.58,60.08l-10.33,4.46L160.94,115l1,37.63Z" fill="#68e1fd"/><path d="M198.26,203.16s-1.28,7.58.13,9.46,9.66,7.74,10.22,5.26c.7-3.13-1.56-3.66-2.86-8.41l.18-6.66" fill="#fff"/><path d="M207.74,219c-2.68,0-8.65-4.6-9.75-6.06-1.49-2-.36-9-.22-9.84a.48.48,0,0,1,.57-.41.49.49,0,0,1,.41.57c-.34,2-1,7.68,0,9.08,1.18,1.57,7.41,6,9.13,5.64.13,0,.17-.07.2-.19.35-1.58-.11-2.37-.88-3.69a16.65,16.65,0,0,1-2-4.48.77.77,0,0,1,0-.15l.18-6.66a.5.5,0,0,1,.51-.48.49.49,0,0,1,.49.51l-.17,6.58a15.86,15.86,0,0,0,1.84,4.18c.8,1.37,1.44,2.45,1,4.41a1.22,1.22,0,0,1-1,.95A1.61,1.61,0,0,1,207.74,219Z" fill="#231f20"/><path d="M218.05,200.11s-.15,4.54,0,6.57,8.45,12.57,9.7,9.45c.62-1.56-1-6.84-3.16-10.43,1.23-5.79.35-8.33.35-8.33" fill="#fff"/><path d="M227,217.2l-.26,0c-2.94-.45-9-8.6-9.13-10.46-.16-2,0-6.44,0-6.63a.51.51,0,0,1,.51-.48.5.5,0,0,1,.48.52s-.15,4.53,0,6.51c.13,1.59,6.07,9.21,8.29,9.55a.33.33,0,0,0,.44-.25c.51-1.27-.91-6.34-3.11-10a.53.53,0,0,1-.07-.37c1.18-5.53.37-8,.37-8.06a.5.5,0,1,1,.94-.32c0,.11.9,2.68-.29,8.4,2,3.41,3.83,8.86,3.09,10.7A1.3,1.3,0,0,1,227,217.2Z" fill="#231f20"/><path d="M174.15,162.08s8.21,12.76,17.4,15c5.58,9.58,4.23,27.17,4.23,27.17H206.1a52.81,52.81,0,0,0,3.16-17.62c.08-6.23-4-14.28-4-14.28s9.91,10.23,10.62,15.86a147,147,0,0,1,.52,15.6l10.78-1S230,184.35,225.3,174s-12.87-19.32-12.87-19.32Z" fill="#231f20"/><path d="M206.1,204.65H195.78a.43.43,0,0,1-.32-.14.46.46,0,0,1-.12-.34c0-.17,1.26-17.36-4.08-26.74-9.18-2.35-17.14-14.59-17.48-15.11a.46.46,0,0,1,0-.41.42.42,0,0,1,.33-.26l38.27-7.42a.42.42,0,0,1,.41.13c.08.09,8.28,9.12,12.95,19.43s2.07,28.32,2,29.08a.46.46,0,0,1-.4.38l-10.78,1a.45.45,0,0,1-.34-.12.44.44,0,0,1-.14-.33,144.76,144.76,0,0,0-.52-15.53c-.49-3.95-5.78-10.38-8.66-13.61,1.21,2.89,2.93,7.8,2.88,12a54,54,0,0,1-3.19,17.78A.45.45,0,0,1,206.1,204.65Zm-9.85-.88h9.55a53.84,53.84,0,0,0,3-17.18c.07-6.05-3.87-14-3.91-14.09a.44.44,0,0,1,.71-.5c.41.42,10,10.4,10.74,16.12a139.1,139.1,0,0,1,.53,15.17l9.94-.89c.35-2.57,2.3-18.88-1.94-28.24s-11.45-17.7-12.63-19l-37.37,7.24c1.68,2.45,8.92,12.35,16.76,14.23a.46.46,0,0,1,.28.21C197.07,185.64,196.43,200.83,196.25,203.77Z" fill="#231f20"/><path d="M258,140.82c-1.05,1.3-25.49,23.85-28,42.59-1,7.61-.52,58.3-.52,58.3l17.12-1s1.4-47.71,3.5-53.67,14.69-16.79,14.69-16.79-5.16,3.43-9.75,23.63c-3.13,13.77-4.15,47.84-4.15,47.84l16-1.71s-.4-46.3,15.79-59.22C300,167,294.88,158.26,294.53,150.94s-6-14.73-6-14.73Z" fill="#231f20"/><path d="M250.89,242.17a.46.46,0,0,1-.3-.11.48.48,0,0,1-.14-.34c0-.34,1.06-34.27,4.16-47.93,2.4-10.54,4.95-16.56,6.87-19.91-3.86,3.65-9.63,9.54-11,13.32-2.06,5.82-3.47,53.05-3.48,53.53a.45.45,0,0,1-.42.43l-17.12,1a.45.45,0,0,1-.32-.12.43.43,0,0,1-.14-.32c0-2.07-.48-50.81.53-58.36s6.53-21.16,27-41.69c.57-.58,1-1,1.09-1.12a.44.44,0,0,1,.27-.16l30.5-4.61a.43.43,0,0,1,.42.17c.23.31,5.78,7.61,6.13,15a36.9,36.9,0,0,0,.44,3.71c1,6.6,2.24,14.82-12.41,26.51-15.84,12.65-15.64,58.41-15.63,58.87a.45.45,0,0,1-.4.45l-16,1.71Zm7.32-100.94c-.17.19-.48.5-1,1.05-20.28,20.36-25.74,33.64-26.74,41.19-.94,7.1-.57,52.66-.53,57.77l16.26-.94c.15-5,1.49-47.67,3.52-53.4,1.9-5.4,12-14.47,14.33-16.55a3.45,3.45,0,0,1,.53-.45.44.44,0,0,1,.53.7l-.39.34c-1.23,1.21-5.43,6.38-9.22,23-2.87,12.67-4,43-4.12,47.26l15.13-1.62a186.94,186.94,0,0,1,1.84-24.43c2.57-17.62,7.32-29.31,14.13-34.74,14.25-11.37,13.05-19.31,12.09-25.69-.2-1.32-.39-2.57-.45-3.79-.31-6.43-4.9-13-5.8-14.29Z" fill="#231f20"/><path d="M306.71,151a28.9,28.9,0,0,1-2.23,6.27c-1.58,3.16-.92,7.64-1.05,9.74s0,4.06,1.63,5,4,2,4.28.79.79-4.45,1.05-5.77,3.16-9.74,3.16-9.74" fill="#fff"/><path d="M308.56,173.79a8.53,8.53,0,0,1-3.75-1.38c-1.89-1-2-3.24-1.88-5.45,0-.5,0-1.16,0-1.91-.05-2.34-.13-5.54,1.11-8a28.54,28.54,0,0,0,2.19-6.15.5.5,0,0,1,.6-.38.49.49,0,0,1,.38.59,29.89,29.89,0,0,1-2.27,6.38c-1.13,2.26-1.06,5.32-1,7.55,0,.78,0,1.45,0,2-.14,2.18,0,3.78,1.37,4.51,2,1.14,3.15,1.37,3.49,1.22,0,0,0,0,.06-.1.15-.66.38-2,.61-3.29.17-1,.33-1.9.44-2.47.27-1.34,3.06-9.46,3.18-9.8a.5.5,0,0,1,.94.32c-1,2.9-2.93,8.65-3.14,9.67-.11.57-.27,1.49-.44,2.45-.22,1.31-.46,2.65-.61,3.34a1.09,1.09,0,0,1-.63.79A1.43,1.43,0,0,1,308.56,173.79Z" fill="#231f20"/><path d="M297.6,154.66c-.94.49-53.62-1.46-53.62-1.46,1.08-6.07-2.32-41.27-.69-47.82.87-3.49.74-13.92,2.7-16.93,3.35-5.15,11.89-8,17.61-7.57,4.6.39,14.1.92,18.58,2.08,6.75,1.75,36.55,28.91,40,36.83,6,13.9-7.93,39.41-7.93,39.41l-9.07-5.76,1.6-25.54L292,116.11Z" fill="#68e1fd"/><path d="M215.7,94.29s-7.13-10.39-12.33-10.08-13.5,4.06-12.13,6.06,9.85-1.18,9.85-1.18" fill="#fff"/><path d="M215.7,94.79a.49.49,0,0,1-.41-.22c-.07-.1-7-10.13-11.89-9.86-4.57.28-10.9,3.11-11.73,4.82-.14.28,0,.4,0,.46.79,1.16,5.89-.1,9.26-1.37a.5.5,0,0,1,.35.94c-1.48.55-8.92,3.21-10.44,1a1.38,1.38,0,0,1-.06-1.46c1.15-2.36,8.29-5.12,12.57-5.38,5.43-.31,12.47,9.86,12.77,10.3a.49.49,0,0,1-.13.69A.47.47,0,0,1,215.7,94.79Z" fill="#231f20"/><path d="M246,88.45s-13.83,18.92-16.65,18.39-15.21-17.75-15.21-17.75l-9.33,6.34s13.52,36,22.4,36.28S251.51,118,251.51,118" fill="#68e1fd"/><path d="M221.86,136.51q-6.6,4.47-13.17,9l-2.08,1.41-2.88,2c-1,.66-1.92,1.32-2.86,2-2.51,1.78-5,3.62-7.48,5.41l-.62.45-2-2.42q-5.52-6.72-11.23-13.25c-1.09-1.27-2.19-2.52-3.29-3.78-1.39-1.59-2.79-3.18-4.2-4.75.6-1.35,1.23-2.66,1.89-3.89a36.54,36.54,0,0,1,2-3.28,21.71,21.71,0,0,1,1.93-2.48h0a16,16,0,0,1,1.51-1.47,23.56,23.56,0,0,1,1.89-1.44,26,26,0,0,1,6.65-3.27,31.51,31.51,0,0,1,7-1.4c.65-.06,1.28-.1,1.92-.12h0c.66,0,1.3,0,1.94,0a37.5,37.5,0,0,1,4.17.31c1,.13,2,.3,2.95.51s1.71.39,2.52.62a25.57,25.57,0,0,1,5.93,2.47,9.73,9.73,0,0,1,2.3,1.8,11.6,11.6,0,0,1,1.69,3.06c.28.68.55,1.44.82,2.25q.21.65.42,1.32c.35,1.16.69,2.41,1,3.73C221.05,132.91,221.46,134.68,221.86,136.51Z" fill="#fff"/><path d="M192.77,157.18a.46.46,0,0,1-.35-.17l-.85-1-1.17-1.41c-3.45-4.2-7.12-8.53-11.21-13.25-1.09-1.26-2.19-2.51-3.29-3.77-1.4-1.58-2.79-3.17-4.2-4.75a.44.44,0,0,1-.07-.49c.58-1.34,1.22-2.66,1.9-3.92a37.76,37.76,0,0,1,2-3.32,21.82,21.82,0,0,1,2-2.52l0,0a16.36,16.36,0,0,1,1.53-1.49c.59-.5,1.24-1,1.93-1.47a26.48,26.48,0,0,1,6.77-3.32,31.74,31.74,0,0,1,7.13-1.43q1-.08,2-.12t2,0a38.75,38.75,0,0,1,4.2.32c1,.13,2,.3,3,.51s1.73.4,2.54.63a26,26,0,0,1,6,2.51,10.29,10.29,0,0,1,2.42,1.9,11.65,11.65,0,0,1,1.76,3.19c.27.66.54,1.4.83,2.28.15.42.29.87.43,1.33.34,1.15.69,2.41,1,3.75.39,1.52.79,3.24,1.23,5.28a.46.46,0,0,1-.19.48l-13.16,9-5,3.38c-1,.66-1.91,1.33-2.86,2-1.44,1-2.87,2.07-4.3,3.11l-3.17,2.31-.62.44A.46.46,0,0,1,192.77,157.18Zm-20.19-24.75,4,4.54q1.65,1.88,3.29,3.78c4.1,4.72,7.77,9.05,11.23,13.26l1.17,1.4.57.69.27-.19,3.17-2.31c1.43-1,2.87-2.09,4.31-3.12,1-.68,1.91-1.35,2.87-2l5-3.38,12.9-8.79c-.41-1.89-.79-3.51-1.15-4.94s-.69-2.58-1-3.72c-.13-.45-.27-.88-.41-1.31-.29-.85-.55-1.57-.82-2.21a10.85,10.85,0,0,0-1.6-2.94,9,9,0,0,0-2.19-1.71,25.13,25.13,0,0,0-5.83-2.42c-.79-.23-1.63-.43-2.48-.62s-1.94-.37-2.92-.5a37,37,0,0,0-4.11-.3c-.64,0-1.28,0-1.93,0s-1.26.06-1.9.11a31.19,31.19,0,0,0-6.93,1.39,25.29,25.29,0,0,0-6.53,3.21q-1,.69-1.86,1.41a13.58,13.58,0,0,0-1.44,1.41s0,0-.05,0a22.49,22.49,0,0,0-1.86,2.39,37.4,37.4,0,0,0-2,3.24C173.72,130,173.13,131.21,172.58,132.43Z" fill="#231f20"/><path d="M189,97.23s-5.4,19.16-8.08,23.25L198.5,122l1.17-26.69Z" fill="#fff"/><path d="M198.5,122.54h0L180.89,121a.49.49,0,0,1-.4-.28.48.48,0,0,1,0-.49c2.61-4,8-22.93,8-23.12a.5.5,0,0,1,.39-.35l10.66-1.88A.5.5,0,0,1,200,95a.47.47,0,0,1,.17.4L199,122.07a.49.49,0,0,1-.17.35A.5.5,0,0,1,198.5,122.54Zm-16.73-2.49L198,121.5,199.15,96l-9.73,1.72C188.73,100.09,184.38,115.19,181.77,120.05Z" fill="#231f20"/><path d="M193.75,120l-1.08,6.51s.65,2,6.22,1.21,5.84-3.34,5.84-3.34,1.73-12.2,1.73-12.21c.06-.65.58-7,1.4-12.6-6.52-.92-12.29-2.21-12.29-2.21.56.72-1.78.53-1.77.53a9.52,9.52,0,0,0-3.15.08c-.85,3.71-4.06,13.89-3.88,16.13C187.11,118.36,193.75,120,193.75,120Z" fill="#fff"/><path d="M196.46,128.36c-3.55,0-4.16-1.51-4.23-1.72a.5.5,0,0,1,0-.21l1-6.11c-1.51-.44-6.6-2.24-6.92-6.2-.12-1.59,1.29-6.68,2.54-11.16.55-2,1.08-3.92,1.35-5.1a.48.48,0,0,1,.35-.35,10.25,10.25,0,0,1,3.29-.09,6,6,0,0,0,1.29,0,.49.49,0,0,1,.06-.29.46.46,0,0,1,.48-.2c.06,0,5.83,1.29,12.25,2.2a.45.45,0,0,1,.3.18.46.46,0,0,1,.09.34c-.71,4.86-1.2,10.35-1.38,12.48,0,.11,0,.11-1.75,12.33,0,.1-.38,2.85-6.23,3.72A17.32,17.32,0,0,1,196.46,128.36Zm-3.32-1.93c.21.3,1.3,1.48,5.68.82,5.07-.75,5.45-2.92,5.46-2.94S206,112.21,206,112.1c.18-2.14.66-7.38,1.33-12.15-5.15-.75-9.81-1.71-11.34-2l0,0c-.39.49-1.74.45-2.22.37h0a9.93,9.93,0,0,0-2.72,0c-.29,1.21-.79,3-1.3,4.85-1.17,4.2-2.62,9.41-2.51,10.85.31,3.9,6.57,5.48,6.64,5.5a.46.46,0,0,1,.34.52Z" fill="#231f20"/><path d="M195.6,108.76c-.86,1.15-1.74,2.54-1.42,3,.58.82,2.53.57,2.53.57" fill="#fff"/><path d="M196.06,112.87a2.81,2.81,0,0,1-2.29-.83c-.31-.44-.36-1.18,1.43-3.58a.5.5,0,0,1,.8.6c-1.45,2-1.39,2.44-1.39,2.46.25.34,1.37.4,2,.31a.5.5,0,0,1,.13,1A5.42,5.42,0,0,1,196.06,112.87Z" fill="#231f20"/><path d="M201.74,124.47l.06-.47,19.88,2.5c-1.31-3.94-5.18-16-5.35-21.45-.19-6.59-.93-12.15-8.92-14.69S193.83,89.12,190,92.94a12.12,12.12,0,0,0-3.41,9s6.1,1.23,7.74,1.28l.8-1.8.77,2,5.5,1.26,1.36-2.33,0,3,2.86.12S202.05,116.26,201.74,124.47Z" fill="#fff"/><path d="M221.68,127h-.07l-19.38-2.44a.5.5,0,0,1-1-.11c.26-7,2.93-16,3.69-18.47l-2.2-.09a.5.5,0,0,1-.48-.49l0-1.23-.44.77a.49.49,0,0,1-.54.23l-5.5-1.27a.51.51,0,0,1-.36-.31l-.33-.88-.31.69a.51.51,0,0,1-.47.29c-1.67,0-7.57-1.24-7.83-1.29a.49.49,0,0,1-.39-.44,12.53,12.53,0,0,1,3.55-9.38c4.28-4.22,10.32-5.13,17.95-2.7,8.23,2.62,9.07,8.41,9.27,15.15.17,5.44,4.12,17.69,5.32,21.31a.49.49,0,0,1-.09.48A.49.49,0,0,1,221.68,127Zm-19.39-3.44L221,125.91c-1.66-5.07-5-15.69-5.12-20.85-.19-6.57-1-11.8-8.57-14.22-7.36-2.35-12.9-1.54-16.95,2.45A11.6,11.6,0,0,0,187,101.5c1.26.25,5.29,1,6.94,1.17l.65-1.48a.54.54,0,0,1,.47-.3.52.52,0,0,1,.46.33l.67,1.77,4.88,1.12,1.18-2a.5.5,0,0,1,.56-.23.5.5,0,0,1,.37.48l0,2.56,2.39.1a.48.48,0,0,1,.39.21.49.49,0,0,1,.06.44C206.05,105.77,202.8,115.65,202.29,123.56Z" fill="#231f20"/><path d="M195.66,115.85a3.83,3.83,0,0,1-.83-.08,6.55,6.55,0,0,1-4-3.17.5.5,0,0,1,.88-.48,5.67,5.67,0,0,0,3.34,2.67,4.73,4.73,0,0,0,3.94-1.4.52.52,0,0,1,.71.06.51.51,0,0,1-.06.71A6.22,6.22,0,0,1,195.66,115.85Z" fill="#231f20"/><path d="M193.75,120s4.35.6,6.19-.69c0,0-1.87,1.92-6.88,4.08Z" fill="#231f20"/><path d="M193.06,123.88a.5.5,0,0,1-.49-.6l.69-3.39a.49.49,0,0,1,.56-.39c1.16.16,4.46.36,5.84-.61a.51.51,0,0,1,.66.09.49.49,0,0,1,0,.67c-.08.08-2,2-7,4.19A.71.71,0,0,1,193.06,123.88Zm1.09-3.34-.41,2a31.16,31.16,0,0,0,3.68-2A18,18,0,0,1,194.15,120.54Z" fill="#231f20"/><path d="M194.19,107.34a.51.51,0,0,1-.47-.32c-.26-.67-.58-1.07-.91-1.13s-.88.33-1,.5a.51.51,0,0,1-.71,0,.5.5,0,0,1-.05-.7,2.31,2.31,0,0,1,1.95-.83c.71.13,1.27.72,1.67,1.76a.5.5,0,0,1-.28.65A.57.57,0,0,1,194.19,107.34Z" fill="#231f20"/><path d="M201.09,108.21a.51.51,0,0,1-.47-.32c-.26-.67-.58-1.08-.91-1.14a1.35,1.35,0,0,0-1,.5.5.5,0,1,1-.75-.65,2.3,2.3,0,0,1,1.94-.83c.71.12,1.27.72,1.68,1.76a.5.5,0,0,1-.29.65A.57.57,0,0,1,201.09,108.21Z" fill="#231f20"/><polygon points="195.77 171.6 167.3 165.73 167.3 124.42 195.77 130.29 195.77 171.6" fill="#fff"/><path d="M195.77,172.1h-.1l-28.47-5.87a.49.49,0,0,1-.4-.49V124.42A.49.49,0,0,1,167,124a.46.46,0,0,1,.42-.1l28.47,5.86a.5.5,0,0,1,.4.49V171.6a.47.47,0,0,1-.19.38A.47.47,0,0,1,195.77,172.1Zm-28-6.78L195.27,171V130.7L167.8,125Z" fill="#231f20"/><polygon points="230.88 165.73 202.41 171.6 202.41 130.29 230.88 124.42 230.88 165.73" fill="#fff"/><path d="M202.41,172.1a.47.47,0,0,1-.32-.12.46.46,0,0,1-.18-.38V130.29a.49.49,0,0,1,.4-.49l28.46-5.86a.46.46,0,0,1,.42.1.47.47,0,0,1,.19.38v41.31a.5.5,0,0,1-.4.49l-28.47,5.87Zm.5-41.4V171l27.47-5.66V125Zm28,35h0Z" fill="#231f20"/><rect x="195.77" y="130.29" width="6.64" height="41.3" transform="translate(398.17 301.89) rotate(180)" fill="#fff"/><path d="M202.41,172.1h-6.64a.5.5,0,0,1-.5-.5V130.29a.5.5,0,0,1,.5-.5h6.64a.51.51,0,0,1,.5.5V171.6A.51.51,0,0,1,202.41,172.1Zm-6.14-1h5.64V130.79h-5.64Z" fill="#231f20"/><path d="M208.15,143.88a.45.45,0,0,1-.29-.1.46.46,0,0,1-.2-.38l-.24-7.18a.51.51,0,0,1,.39-.5l19.28-4.5a.51.51,0,0,1,.43.1.49.49,0,0,1,.18.4l-.18,6.72a.5.5,0,0,1-.37.47l-18.87,5A.27.27,0,0,1,208.15,143.88Zm.29-7.28.19,6.14,17.9-4.7.16-5.7Z" fill="#d1d3d4"/><path d="M225.38,140.33a.7.7,0,0,0,.2.47.78.78,0,0,0,.56.14,4.45,4.45,0,0,0,2.26-.73,7.14,7.14,0,0,0-2.7,2.7,1.38,1.38,0,0,0-.21,1.2c.25.58,1.08.61,1.69.43a5.88,5.88,0,0,0,1.82-.87,4.39,4.39,0,0,0-2.28,2.09.6.6,0,0,0-.07.39c0,.15.2.24.34.31a2.54,2.54,0,0,0,2.72-.57,3.67,3.67,0,0,0-1.7,1.36.93.93,0,0,0-.12,1.06.85.85,0,0,0,.41.26c2,.74,4.27-.52,5.32-2.34,1.45-2.54,1.75-7.69-1-9.55C230.4,135.19,225.12,137.43,225.38,140.33Z" fill="#fff"/><path d="M229.51,149.29a3.91,3.91,0,0,1-1.38-.25,1.35,1.35,0,0,1-.64-.42,1.31,1.31,0,0,1,0-1.51,2.94,2.94,0,0,1-.72-.19.91.91,0,0,1-.52-1.38c.07-.14.14-.27.22-.4a1.52,1.52,0,0,1-1.47-.83,1.9,1.9,0,0,1,.24-1.65,7.27,7.27,0,0,1,.86-1.22,1.26,1.26,0,0,1-.88-.26,1.18,1.18,0,0,1-.37-.8c-.12-1.36.74-2.69,2.36-3.65s4.16-1.47,5.65-.46c3,2,2.71,7.49,1.16,10.2A5.55,5.55,0,0,1,229.51,149.29Zm-.6-2.32a2.89,2.89,0,0,0-.48.56c-.16.24-.18.43-.15.47s.05.05.2.11c1.77.65,3.82-.6,4.7-2.13,1.38-2.42,1.63-7.21-.85-8.88-1-.68-3-.46-4.58.49a3.14,3.14,0,0,0-1.87,2.7h0a.45.45,0,0,0,0,.14h.21a4,4,0,0,0,1.71-.47l.33-.19a.49.49,0,0,1,.67.17.51.51,0,0,1-.15.68,3.79,3.79,0,0,1-.34.2,6.55,6.55,0,0,0-2.2,2.33,1,1,0,0,0-.2.75c.12.26.65.28,1.1.15a4.67,4.67,0,0,0,.66-.23,4.74,4.74,0,0,1,1.12-.63.5.5,0,0,1,.47.88,6.43,6.43,0,0,1-1.08.62,4,4,0,0,0-1,1.29h0a2,2,0,0,0,1.24.08,3.83,3.83,0,0,1,1.11-.64.5.5,0,0,1,.53.81A2.94,2.94,0,0,1,228.91,147Zm-3-6.54h0Z" fill="#231f20"/><path d="M174.58,141.08a.65.65,0,0,1-.19.47.79.79,0,0,1-.56.14,4.59,4.59,0,0,1-2.27-.73,7.17,7.17,0,0,1,2.71,2.7,1.41,1.41,0,0,1,.21,1.2c-.25.58-1.08.61-1.69.43a5.88,5.88,0,0,1-1.82-.87,4.34,4.34,0,0,1,2.27,2.09.55.55,0,0,1,.08.39c0,.15-.2.24-.35.31a2.54,2.54,0,0,1-2.72-.57A3.62,3.62,0,0,1,172,148c.21.32.37.76.13,1.06a.84.84,0,0,1-.42.26c-2,.74-4.26-.52-5.31-2.34-1.45-2.54-1.75-7.69,1-9.55C169.56,135.94,174.85,138.18,174.58,141.08Z" fill="#fff"/><path d="M170.46,150a5.54,5.54,0,0,1-4.54-2.82c-1.55-2.71-1.88-8.16,1.16-10.2,1.49-1,4-.53,5.65.46s2.48,2.29,2.35,3.65h0a1.14,1.14,0,0,1-.36.8,1.27,1.27,0,0,1-.88.26,7.9,7.9,0,0,1,.86,1.22,1.93,1.93,0,0,1,.24,1.65,1.53,1.53,0,0,1-1.48.83,3.18,3.18,0,0,1,.23.4,1,1,0,0,1,.11.74,1,1,0,0,1-.64.64,3.38,3.38,0,0,1-.71.19,1.29,1.29,0,0,1,0,1.51,1.27,1.27,0,0,1-.63.42A4,4,0,0,1,170.46,150Zm-1.29-12.58a2.71,2.71,0,0,0-1.54.39c-2.48,1.67-2.23,6.46-.84,8.88.87,1.53,2.92,2.78,4.7,2.13.14-.06.19-.09.2-.11s0-.23-.15-.47a3,3,0,0,0-.49-.57,2.84,2.84,0,0,1-1.15-.72.48.48,0,0,1-.06-.62.48.48,0,0,1,.59-.19,4,4,0,0,1,1.11.64,2,2,0,0,0,1.24-.08h0a3.71,3.71,0,0,0-1-1.29,7.33,7.33,0,0,1-1.08-.62.51.51,0,0,1-.14-.65.5.5,0,0,1,.62-.23,5,5,0,0,1,1.12.63,5,5,0,0,0,.65.23c.46.13,1,.11,1.1-.15s0-.41-.19-.75a6.55,6.55,0,0,0-2.2-2.33,3.79,3.79,0,0,1-.34-.2.5.5,0,0,1-.15-.68.49.49,0,0,1,.67-.17,3.37,3.37,0,0,1,.32.19,4.13,4.13,0,0,0,1.72.47c.15,0,.2,0,.21,0a.42.42,0,0,0,0-.13h0c.08-.95-.62-1.95-1.87-2.7A6.24,6.24,0,0,0,169.17,137.46Z" fill="#231f20"/><path d="M160.93,52.82s2.1,23.55,4.33,28.92l-21.48,2.4,5.12-35.85Z" fill="#fff"/><path d="M143.78,84.64a.48.48,0,0,1-.36-.15.51.51,0,0,1-.14-.42l5.12-35.85a.52.52,0,0,1,.25-.36.5.5,0,0,1,.43,0l12,4.53a.49.49,0,0,1,.32.42c0,.24,2.13,23.54,4.31,28.78a.51.51,0,0,1,0,.45.5.5,0,0,1-.37.24l-21.49,2.4ZM149.31,49l-4.95,34.59,20.21-2.25c-2-6-3.86-25.32-4.11-28.15Z" fill="#231f20"/><path d="M150.41,78.36l-.22,10.23s-.36,6.35-6.68,4.16a13.33,13.33,0,0,1-8.07-8.09l1.84-18.23c.08-.78.86-8.31,1.14-15,7.81.35,14.83.11,14.83.11-.81.72,2,1,2,1a11.4,11.4,0,0,1,3.65.78c.18,4.52,1.08,9.5.71,14a44.11,44.11,0,0,1-1.28,7.9C157,80.08,150.41,78.36,150.41,78.36Z" fill="#fff"/><path d="M145.93,93.67a7.68,7.68,0,0,1-2.56-.49A13.65,13.65,0,0,1,135,84.79a.47.47,0,0,1,0-.17s1.83-18.13,1.84-18.24c.27-2.63.89-9.14,1.13-15a.48.48,0,0,1,.15-.32.41.41,0,0,1,.33-.12c7.71.35,14.72.12,14.79.12a.46.46,0,0,1,.44.28.47.47,0,0,1,0,.37,6.39,6.39,0,0,0,1.59.35h0a12,12,0,0,1,3.79.82.46.46,0,0,1,.28.4c.06,1.6.22,3.3.37,4.94A53.41,53.41,0,0,1,160,67.3a43.61,43.61,0,0,1-1.29,8c-1.06,3.92-5.33,4.14-7.87,3.64l-.21,9.67c0,.13-.19,3-2.25,4.36A4.34,4.34,0,0,1,145.93,93.67Zm-10-9.06a12.92,12.92,0,0,0,7.75,7.71c1.78.62,3.2.58,4.23-.12,1.68-1.12,1.84-3.62,1.85-3.64L150,78.35a.44.44,0,0,1,.18-.36.45.45,0,0,1,.39-.07c.25.06,6.12,1.54,7.32-2.87a43.64,43.64,0,0,0,1.26-7.82,51.67,51.67,0,0,0-.33-8.91c-.14-1.56-.29-3.16-.36-4.69a11.63,11.63,0,0,0-3.25-.65c-2.17-.25-2.42-.78-2.49-1-1.8,0-7.54.15-13.82-.12-.26,5.76-.86,12-1.11,14.5Z" fill="#231f20"/><path d="M150.07,62.74s3.09,5.28,2.23,6.12-3.09.11-3.09.11" fill="#fff"/><path d="M151,69.76a6.66,6.66,0,0,1-1.9-.32.49.49,0,0,1-.32-.63.5.5,0,0,1,.63-.32c.63.2,2.1.47,2.58,0,.2-.45-.87-3-2.31-5.5a.51.51,0,0,1,.18-.69.49.49,0,0,1,.68.18c1.5,2.56,3.09,5.81,2.15,6.72A2.38,2.38,0,0,1,151,69.76Z" fill="#231f20"/><ellipse cx="153.89" cy="62.54" rx="1.1" ry="0.58" transform="matrix(0.02, -1, 1, 0.02, 88.07, 215.05)" fill="#231f20"/><ellipse cx="145.68" cy="62.48" rx="1.1" ry="0.58" transform="translate(80.1 206.79) rotate(-88.77)" fill="#231f20"/><path d="M153.46,58.62l-.53-2.27-1.35,2.19-6.7.27-1.07-3-.7,3.55-3.36-.5s2.28,17-.37,26.48c0,0-19.83.43-23.79-4.09,0,0,10-17.62,11.73-25.28S131.07,42,141,40.76s16.13,1.53,19.81,6.84a14.41,14.41,0,0,1,2,11.23S155.39,58.92,153.46,58.62Z" fill="#fff"/><path d="M137.85,85.83c-4.79,0-19.18-.33-22.64-4.27a.51.51,0,0,1-.06-.58c.1-.17,10-17.64,11.68-25.13,1.71-7.79,4-14.34,14.07-15.59,9.41-1.15,16.24,1.22,20.28,7.06A14.76,14.76,0,0,1,163.26,59a.51.51,0,0,1-.47.37c-.31,0-7.46.09-9.4-.21a.49.49,0,0,1-.41-.38l-.26-1.1L152,58.8a.52.52,0,0,1-.41.24l-6.69.27a.5.5,0,0,1-.5-.33L144,57.67l-.35,1.76a.49.49,0,0,1-.56.4l-2.72-.4c.4,3.26,1.93,17.47-.46,26a.49.49,0,0,1-.47.36Zm-21.64-4.68c4,3.72,20.11,3.7,22.78,3.68,2.45-9.37.28-25.75.26-25.92a.5.5,0,0,1,.14-.42.53.53,0,0,1,.43-.14l2.89.42.61-3.07a.5.5,0,0,1,1-.07l.95,2.67,6.07-.25,1.2-2a.54.54,0,0,1,.51-.24.5.5,0,0,1,.4.38l.46,1.94c1.94.21,7.06.17,8.51.16a13.92,13.92,0,0,0-2-10.44c-3.87-5.59-10.2-7.76-19.34-6.63-9.49,1.16-11.53,7.13-13.21,14.8C126.24,63.22,117.63,78.64,116.21,81.15Z" fill="#231f20"/><path d="M154,72.64s-6.17,4.48-9.33-2.65" fill="#fff"/><path d="M149.82,74.53a5.42,5.42,0,0,1-1.42-.18c-1.79-.48-3.21-1.88-4.22-4.15a.49.49,0,0,1,.26-.66.48.48,0,0,1,.65.25c.88,2,2.08,3.19,3.56,3.59,2.47.66,5-1.13,5-1.15a.5.5,0,0,1,.7.12.49.49,0,0,1-.12.69A8.29,8.29,0,0,1,149.82,74.53Z" fill="#231f20"/><path d="M150.41,78.36s-5.14-1.44-7-3.35c0,0,1.47,7.57,6.84,11.19Z" fill="#231f20"/><path d="M150.24,86.69a.45.45,0,0,1-.27-.08c-5.48-3.69-7-11.19-7.06-11.5a.51.51,0,0,1,.26-.54.52.52,0,0,1,.59.09c1.75,1.79,6.74,3.21,6.79,3.22a.51.51,0,0,1,.36.49l-.17,7.84a.5.5,0,0,1-.27.43A.59.59,0,0,1,150.24,86.69Zm-6-10.38c.65,2.15,2.25,6.31,5.51,8.92l.14-6.5A25.19,25.19,0,0,1,144.26,76.31Z" fill="#231f20"/><path d="M61.34,98.34a.48.48,0,0,1-.45-.28,7.06,7.06,0,0,1,.22-6.76.5.5,0,0,1,.69-.15.51.51,0,0,1,.14.7,6.1,6.1,0,0,0-.16,5.77.5.5,0,0,1-.22.67A.59.59,0,0,1,61.34,98.34Z" fill="#231f20"/><path d="M111.46,126.59s8.6-11,14.12-17.84" fill="#fff"/><path d="M111.46,127.09a.49.49,0,0,1-.4-.8c.09-.12,8.67-11.1,14.13-17.86a.51.51,0,0,1,.71-.07.49.49,0,0,1,.07.7c-5.45,6.76-14,17.73-14.12,17.84A.49.49,0,0,1,111.46,127.09Z" fill="#231f20"/><line x1="160.68" y1="102.18" x2="161.84" y2="148.01" fill="#fff"/><path d="M161.84,148.51a.5.5,0,0,1-.5-.49l-1.16-45.83a.5.5,0,0,1,1,0L162.34,148a.51.51,0,0,1-.49.51Z" fill="#231f20"/><path d="M204.83,86.84s-6.5,8.24-1.56,6.66S210,89,210,89" fill="#fff"/><path d="M202.24,94.2a1.28,1.28,0,0,1-1.11-.49c-1-1.44,2-5.5,3.3-7.18a.5.5,0,0,1,.79.62c-2.1,2.67-3.63,5.46-3.27,6,0,0,.34.15,1.17-.12,4.68-1.49,6.41-4.21,6.42-4.24a.5.5,0,0,1,.69-.16.49.49,0,0,1,.17.68c-.08.13-1.91,3.06-7,4.68A4.2,4.2,0,0,1,202.24,94.2Z" fill="#231f20"/><path d="M243.29,105.38s1.21,39.49.9,42.31" fill="#fff"/><path d="M244.19,148.19h-.06a.5.5,0,0,1-.44-.55c.3-2.75-.89-41.84-.9-42.24a.5.5,0,0,1,.49-.51.54.54,0,0,1,.51.48c.05,1.62,1.2,39.57.89,42.38A.49.49,0,0,1,244.19,148.19Z" fill="#231f20"/><line x1="281.12" y1="108.26" x2="306.74" y2="127.9" fill="#fff"/><path d="M306.74,128.4a.49.49,0,0,1-.3-.1l-25.62-19.64a.5.5,0,0,1,.61-.8l25.62,19.65a.5.5,0,0,1-.31.89Z" fill="#231f20"/><path d="M265.84,45.27a7.85,7.85,0,0,1-.77-.24c-1.79-3.65-5.93-4.63-9.59-3.68-7,1.82-16.93,1.41-19.7,9.7C231.72,63.16,246,64.12,253.71,66.39c4.79,1.42,11.15,2.24,15.53-1,3.35-2.47,3.81-7.38,3.18-11.17a15.43,15.43,0,0,0-2.28-6,8.85,8.85,0,0,0-1.89-2.2A14,14,0,0,0,265.84,45.27Z" fill="#fff"/><path d="M261.49,68.15a28.61,28.61,0,0,1-7.92-1.28c-1.19-.35-2.54-.67-4-1-5.48-1.3-11.69-2.77-14.07-7-1.19-2.14-1.26-4.8-.22-7.92,2.27-6.78,9.17-8,15.26-9.06,1.71-.29,3.31-.58,4.8-1,3.58-.94,8-.12,10.06,3.76l.48.13-.06.51.14-.48a11,11,0,0,1,2.57.89,9.23,9.23,0,0,1,2,2.33,15.67,15.67,0,0,1,2.36,6.15c.32,1.91,1,8.41-3.38,11.65A13.3,13.3,0,0,1,261.49,68.15Zm-3.4-26.63a10.27,10.27,0,0,0-2.48.31c-1.52.4-3.15.69-4.87,1-6.1,1.07-12.41,2.17-14.49,8.39-1,2.88-.92,5.21.15,7.12,2.16,3.89,8.15,5.31,13.42,6.56,1.45.34,2.82.66,4,1,4.51,1.34,10.79,2.26,15.09-.9,3.13-2.31,3.6-7,3-10.69a14.89,14.89,0,0,0-2.21-5.76A8.67,8.67,0,0,0,268,46.48a18.35,18.35,0,0,0-2.26-.73h0l.14-.48-.21.46c-.89-.26-.91-.27-1-.49A6.91,6.91,0,0,0,258.09,41.52Z" fill="#231f20"/><path d="M252.12,80.3l.7,8.83s.31,4.94,7.76,3.67c6.53-1.12,9.49-9.2,9.49-9.2l-3.61-18.53s-5.89-1.83-6.54-13.75a36.36,36.36,0,0,1-18.25,6.18s-.87,13.22,1.06,18.65S252.12,80.3,252.12,80.3Z" fill="#fff"/><path d="M258.28,93.51a6.6,6.6,0,0,1-4.23-1.26,4.56,4.56,0,0,1-1.73-3.08l-.66-8.31c-1.81.17-7.66.32-9.4-4.54-1.95-5.46-1.12-18.31-1.09-18.85a.51.51,0,0,1,.47-.47,36.17,36.17,0,0,0,18-6.08.5.5,0,0,1,.51-.05.48.48,0,0,1,.29.42c.61,11.37,6.14,13.29,6.19,13.3A.5.5,0,0,1,267,65l3.61,18.52a.49.49,0,0,1,0,.27c-.13.34-3.14,8.37-9.88,9.52A13.68,13.68,0,0,1,258.28,93.51ZM252.12,79.8a.57.57,0,0,1,.31.1.52.52,0,0,1,.19.36l.7,8.83a3.52,3.52,0,0,0,1.37,2.39c1.26,1,3.21,1.27,5.8.82,5.74-1,8.66-7.74,9.06-8.75L266,65.44c-1.21-.54-5.75-3.19-6.54-13.21A37.24,37.24,0,0,1,242.14,58c-.12,2.32-.62,13.29,1.06,18,1.77,5,8.77,3.84,8.84,3.83Z" fill="#231f20"/><path d="M252.71,87.81a19.52,19.52,0,0,0,6.86-5.65c2.6-3.67,2.05-6.38,2.05-6.38s-5.05,4.2-9.5,4.52Z" fill="#231f20"/><path d="M252.71,88.31a.5.5,0,0,1-.49-.46l-.6-7.51a.57.57,0,0,1,.12-.37.51.51,0,0,1,.34-.17c4.24-.3,9.17-4.37,9.22-4.41a.49.49,0,0,1,.48-.08.51.51,0,0,1,.33.37c0,.12.56,3-2.13,6.77a19.72,19.72,0,0,1-7.06,5.81A.38.38,0,0,1,252.71,88.31Zm-.06-7.56.5,6.28a18.92,18.92,0,0,0,6-5.15,10,10,0,0,0,2-5.11C259.62,77.91,256.06,80.31,252.65,80.75Z" fill="#231f20"/><path d="M240,69.48a3,3,0,0,1-1.78-.57,3.1,3.1,0,0,1-1.26-2l-.42-2.48a3.09,3.09,0,0,1,2.52-3.57l5.44-.93a3.1,3.1,0,0,1,3.57,2.53l.43,2.48A3.11,3.11,0,0,1,246,68.51h0l-5.44.93A3.15,3.15,0,0,1,240,69.48Zm5-8.59a2.19,2.19,0,0,0-.36,0l-5.44.93a2.09,2.09,0,0,0-1.71,2.41l.43,2.48a2.08,2.08,0,0,0,2.41,1.71l5.44-.93a2.09,2.09,0,0,0,1.71-2.41l-.42-2.49a2.1,2.1,0,0,0-.86-1.35A2.06,2.06,0,0,0,245,60.89Zm.86,7.12h0Z" fill="#231f20"/><path d="M252.32,67.35a3.09,3.09,0,0,1-3-2.57l-.42-2.48a3.07,3.07,0,0,1,.52-2.31,3.1,3.1,0,0,1,2-1.26l5.44-.93a3.11,3.11,0,0,1,3.57,2.53l.42,2.48a3.09,3.09,0,0,1-2.52,3.57h0l-5.44.93A3.15,3.15,0,0,1,252.32,67.35Zm5-8.59-.35,0-5.44.93a2.1,2.1,0,0,0-1.71,2.41l.43,2.48a2.08,2.08,0,0,0,2.41,1.71l5.44-.93h0a2.07,2.07,0,0,0,1.35-.85,2.11,2.11,0,0,0,.36-1.56l-.43-2.48A2.09,2.09,0,0,0,257.34,58.76Zm.86,7.12h0Z" fill="#231f20"/><path d="M247.73,63.92a.52.52,0,0,1-.5-.42.51.51,0,0,1,.41-.58l1.46-.25a.51.51,0,0,1,.58.41.51.51,0,0,1-.41.58l-1.46.25Z" fill="#231f20"/><ellipse cx="252.27" cy="63.48" rx="0.95" ry="1.34" transform="translate(-7.86 61.27) rotate(-13.64)" fill="#231f20"/><ellipse cx="243.49" cy="64.56" rx="0.95" ry="1.34" transform="translate(-6.39 96.47) rotate(-22.13)" fill="#231f20"/><path d="M248.16,75.29a15.71,15.71,0,0,1-2.47-.18.5.5,0,1,1,.17-1c.07,0,7.08,1.13,9.95-2.89a.49.49,0,0,1,.69-.12.5.5,0,0,1,.12.7C254.53,74.75,250.69,75.29,248.16,75.29Z" fill="#231f20"/><path d="M248.91,64.26s-1.33,5.16-.28,6,3.49-.2,3.49-.2" fill="#fff"/><path d="M249.81,71.1a2.4,2.4,0,0,1-1.49-.44c-1.21-1-.23-5.24.11-6.52a.49.49,0,0,1,.6-.36.5.5,0,0,1,.36.61c-.66,2.58-.87,5.14-.44,5.49.59.48,2.14.09,3-.27a.5.5,0,1,1,.4.92A7.18,7.18,0,0,1,249.81,71.1Z" fill="#231f20"/><path d="M267.44,62.44h-.07l-7.44-1.1a.5.5,0,0,1-.42-.57.51.51,0,0,1,.57-.42l7.43,1.1a.5.5,0,0,1-.07,1Z" fill="#231f20"/><path d="M262.77,63.79A4.77,4.77,0,0,1,263.89,61a6.12,6.12,0,0,1,3.91-2.29c1.5-.13,2.79,1.17,3.31,2.5a5.57,5.57,0,0,1-.05,3.86,5.88,5.88,0,0,1-6.88,4" fill="#fff"/><path d="M265.5,69.74a6.55,6.55,0,0,1-1.44-.16.51.51,0,0,1-.37-.6.5.5,0,0,1,.6-.38,5.4,5.4,0,0,0,6.3-3.73,5.05,5.05,0,0,0,.05-3.51,3.08,3.08,0,0,0-2.8-2.18,5.6,5.6,0,0,0-3.57,2.11,4.3,4.3,0,0,0-1,2.53.48.48,0,0,1-.53.47.49.49,0,0,1-.47-.52,5.27,5.27,0,0,1,1.24-3.12,6.54,6.54,0,0,1,4.24-2.47A4,4,0,0,1,271.57,61a6,6,0,0,1,0,4.21A6.47,6.47,0,0,1,265.5,69.74Z" fill="#231f20"/></g></svg>