<svg xmlns="http://www.w3.org/2000/svg" viewBox="0 0 400 300"><g id="_359_firefighter_flatline" data-name="#359_firefighter_flatline"><path d="M256.22,106h0a21.22,21.22,0,0,1,21.22,21.22V177a0,0,0,0,1,0,0H235a0,0,0,0,1,0,0V127.18A21.22,21.22,0,0,1,256.22,106Z" fill="#fff"/><path d="M277.45,177.52H235a.51.51,0,0,1-.52-.51V127.18a21.74,21.74,0,1,1,43.48,0V177A.51.51,0,0,1,277.45,177.52Zm-41.94-1h41.42V127.18a20.71,20.71,0,1,0-41.42,0Z" fill="#231f20"/><path d="M233.21,136.09h40.57a5.45,5.45,0,0,1,5.45,5.45v0a5.45,5.45,0,0,1-5.45,5.45H233.21a0,0,0,0,1,0,0V136.09a0,0,0,0,1,0,0Z" fill="#231f20"/><path d="M273.78,147.48H233.21a.49.49,0,0,1-.49-.5V136.09a.49.49,0,0,1,.49-.5h40.57a5.95,5.95,0,1,1,0,11.89Zm-40.07-1h40.07a4.95,4.95,0,1,0,0-9.89H233.71Z" fill="#231f20"/><path d="M151.27,206.56s-53.41,12.31-45.05,41.75c7.4,26.06,40.46,19.45,63.8-3.11l-1.56-12.27S143.94,258,130.85,257.65c-14.9-.39-20.2-13.11-12.62-24C126.31,222,156,216.38,156,216.38Z" fill="#231f20"/><path d="M128.59,265.66a27.78,27.78,0,0,1-7.24-.9c-7.77-2.09-13.17-7.73-15.61-16.31A21.32,21.32,0,0,1,108,231.18c10.24-17.33,42.88-25,43.21-25.1a.49.49,0,0,1,.56.27l4.75,9.81a.49.49,0,0,1,0,.44.5.5,0,0,1-.35.27c-.3,0-29.61,5.73-37.48,17-3.59,5.17-4.34,11-2,15.62s7.55,7.45,14.22,7.62h.26c12.79,0,36.74-24.33,37-24.58a.46.46,0,0,1,.51-.12.5.5,0,0,1,.34.4l1.55,12.28a.48.48,0,0,1-.15.42C157.29,258.2,141.42,265.66,128.59,265.66ZM151,207.14c-3.7.92-32.77,8.59-42.19,24.55a20.35,20.35,0,0,0-2.11,16.49c2.34,8.22,7.49,13.62,14.9,15.62,13.27,3.56,32.49-4,47.89-18.78l-1.39-11c-4.23,4.21-25.23,24.41-37.26,24.15-7.06-.19-12.56-3.16-15.09-8.17s-1.73-11.16,2.07-16.63c7.54-10.85,33-16.43,37.47-17.33Z" fill="#231f20"/><path d="M238.22,112.45s13.14,4.5,14.6,6.75-8.67,45.68-4.42,60.16c1.57,5.35,24.75,85.81,24.75,85.81s-41.08,11.3-61.7,12.22l-11.12-14-5.81,14.84L145,266.91s4.79-3.52,19.5-71.57c1.07-4.91-.2-80.94,11.19-81.62a29,29,0,0,1,9.86,1.59Z" fill="#68e1fd"/><path d="M203,156.71h0a.5.5,0,0,1-.45-.54c.85-9.52,2-18.56,3.47-26.87a.5.5,0,0,1,.58-.4.49.49,0,0,1,.4.58c-1.44,8.28-2.61,17.29-3.46,26.77A.5.5,0,0,1,203,156.71Z" fill="#231f20"/><path d="M200.33,263.89a.51.51,0,0,1-.5-.45c0-.41-4.29-41.11.76-84.84a.51.51,0,0,1,.55-.44.49.49,0,0,1,.43.55c-5,43.62-.79,84.22-.75,84.62a.49.49,0,0,1-.44.55Z" fill="#231f20"/><path d="M258.12,121.07a1.44,1.44,0,0,1,.54.1c1.78.7,3.9,3.9,5.11,5.35a51.28,51.28,0,0,1,4.29,6,49.9,49.9,0,0,1,5.63,13.36c1.94,7.55,5.75,14.63,8.46,22q4.17,11.25,7.47,22.8a144.56,144.56,0,0,1,4.69,21.06c.33,2.6,1.59,9-1.18,10.87-16.92,11.33-54.18-5.36-63.56-9.15s-1.87-31-1.87-31l21.55,7.27s-2.83-3.12-5-15.31c-1.05-5.9-.25-12.26.59-18.13A113.33,113.33,0,0,1,250,134.63C250.77,132.42,254.83,121.12,258.12,121.07Z" fill="#68e1fd"/><path d="M280,207.18a.51.51,0,0,1-.44-.26c-4.2-7.95-13.23-8.76-13.32-8.77a.49.49,0,0,1-.45-.53.5.5,0,0,1,.53-.46c.1,0,9.66.87,14.12,9.29a.5.5,0,0,1-.21.67A.53.53,0,0,1,280,207.18Z" fill="#231f20"/><path d="M254.33,195.33a.53.53,0,0,1-.38-.18c-7.52-9.06-7.11-25.32-7.09-26a.5.5,0,0,1,.49-.48h0a.5.5,0,0,1,.48.51c0,.16-.41,16.58,6.86,25.34a.5.5,0,0,1-.38.82Z" fill="#231f20"/><path d="M241.87,95.8s-4.16,14.58-11,15.7-33.38,1.56-38-.48-6.86-3.5-7.3-7.44,5.12-7.78,5.12-7.78S239.71,92.07,241.87,95.8Z" fill="#231f20"/><path d="M211.32,113c-8.23,0-16.26-.41-18.68-1.47-5-2.18-7.14-3.75-7.59-7.84s5.09-8.09,5.33-8.25a.54.54,0,0,1,.24-.09c8.25-.62,49.47-3.56,51.68.25a.49.49,0,0,1,0,.39c-.17.6-4.33,14.89-11.39,16C227.5,112.56,219.31,113,211.32,113ZM190.84,96.29c-.75.54-5.17,3.93-4.8,7.24.39,3.54,2.17,4.93,7,7,4.54,2,31,1.56,37.77.44,6-1,9.94-13.21,10.52-15.1C239.23,94.08,217.88,94.23,190.84,96.29Z" fill="#231f20"/><path d="M179.67,25h63.39a0,0,0,0,1,0,0V39.73a31.7,31.7,0,0,1-31.7,31.7h0a31.7,31.7,0,0,1-31.7-31.7V25a0,0,0,0,1,0,0Z" transform="translate(422.72 96.39) rotate(180)" fill="#fff"/><path d="M243.06,71.94H179.67a.51.51,0,0,1-.52-.51V56.65a32.21,32.21,0,1,1,64.42,0V71.43A.51.51,0,0,1,243.06,71.94Zm-62.88-1h62.36V56.65a31.18,31.18,0,1,0-62.36,0Z" fill="#231f20"/><path d="M203.75,21.77h14.78a0,0,0,0,1,0,0V53.11a3.34,3.34,0,0,1-3.34,3.34h-8.11a3.34,3.34,0,0,1-3.34-3.34V21.77a0,0,0,0,1,0,0Z" transform="translate(422.29 78.21) rotate(-180)" fill="#fff"/><path d="M218.54,57H203.75a.51.51,0,0,1-.51-.52V25.1a3.85,3.85,0,0,1,3.85-3.85h8.11a3.86,3.86,0,0,1,3.85,3.85V56.44A.51.51,0,0,1,218.54,57Zm-14.27-1H218V25.1a2.83,2.83,0,0,0-2.82-2.82h-8.11a2.82,2.82,0,0,0-2.82,2.82Z" fill="#231f20"/><path d="M174.81,84.27c0,6.55,12.85,6.28,36.64,6.28s36.64.27,36.64-6.28-12.85-29.48-36.64-29.48S174.81,77.72,174.81,84.27Z" fill="#231f20"/><path d="M216.72,91.05h-8c-10.9,0-19.52,0-25.28-.78-4.24-.58-9.11-1.79-9.11-6,0-7.23,13.58-30,37.14-30s37.14,22.75,37.14,30c0,4.21-4.87,5.42-9.12,6C234.17,91,226.44,91.05,216.72,91.05Zm-5.27-1h2.75c10.87,0,19.45,0,25.14-.77s8.25-2.33,8.25-5c0-7-13.21-29-36.14-29s-36.14,22-36.14,29c0,2.68,2.54,4.23,8.25,5s14.27.78,25.14.77Z" fill="#231f20"/><path d="M184.07,57.68c.5,2.84,1.1,5.56,1.61,7.71.63,2.64,1.11,4.4,1.11,4.4a8.34,8.34,0,0,0,4.91,4,20.67,20.67,0,0,0,2,.65c5.21,1.37,12,1.22,16.41,1.17.85,0,1.62,0,2.27,0,5.37.08,10.74-.22,16.08-.57l2.95-.19,3.54-.23a92.18,92.18,0,0,1,2.11-11c.43-1.92.86-3.85,1.19-5.77-2.31-.61-4.82-1.12-7.48-1.56a125.09,125.09,0,0,0-20-1.53,126.89,126.89,0,0,0-19.7,1.48C188.59,56.67,186.25,57.14,184.07,57.68Z" fill="#fff"/><path d="M206.4,76.19A53.07,53.07,0,0,1,193.54,75a17.81,17.81,0,0,1-2-.66c-2.6-1-4.35-2.46-5.19-4.31,0-.09-.52-1.87-1.15-4.49-.65-2.77-1.19-5.37-1.61-7.74a.51.51,0,0,1,.39-.59c2.13-.53,4.5-1,7-1.42a126.08,126.08,0,0,1,19.78-1.49,124.48,124.48,0,0,1,20,1.54c2.7.44,5.23,1,7.53,1.57a.51.51,0,0,1,.38.58c-.35,2-.8,4-1.2,5.8l-.17.74a82.77,82.77,0,0,0-1.92,10.2.52.52,0,0,1-.48.47l-3.54.22-3,.19c-4.87.32-10.54.66-16.12.57-.64,0-1.41,0-2.26,0h-.62ZM184.66,58.07c.4,2.22.91,4.64,1.52,7.2s1.11,4.37,1.11,4.38c.7,1.52,2.25,2.79,4.59,3.7.63.24,1.28.45,1.93.63,4.89,1.29,11.36,1.21,15.63,1.16h.63c.86,0,1.64,0,2.28,0,5.55.08,11.19-.25,16-.57l3-.18c1-.08,2.07-.14,3.11-.21a88.87,88.87,0,0,1,1.9-9.89l.17-.74c.36-1.6.77-3.45,1.1-5.27-2.14-.54-4.49-1-7-1.43a123.72,123.72,0,0,0-19.89-1.53,125.24,125.24,0,0,0-19.62,1.48C188.83,57.16,186.64,57.59,184.66,58.07Z" fill="#231f20"/><path d="M193.93,72.06c-1.59-8.12-15.22-9.66-14.21-.06a14.18,14.18,0,0,0,3.92,8.91c2.41,2.28,6.19,3.27,9.17,1.81" fill="#fff"/><path d="M189.73,83.93a9.54,9.54,0,0,1-6.44-2.64,14.77,14.77,0,0,1-4.08-9.23c-.49-4.62,2.26-6.7,5-7.11,4.07-.62,9.27,2.11,10.23,7a.51.51,0,0,1-.4.61.52.52,0,0,1-.61-.41c-.85-4.33-5.47-6.74-9.06-6.19-1.41.21-4.63,1.21-4.13,6,.27,2.54,1.14,6.09,3.77,8.59a7.82,7.82,0,0,0,8.58,1.72.52.52,0,0,1,.46.93A7.49,7.49,0,0,1,189.73,83.93Z" fill="#231f20"/><path d="M227.7,70.89c1-8.21,14.5-10.69,14.17-1a14.21,14.21,0,0,1-3.3,9.16c-2.24,2.45-5.95,3.7-9,2.45" fill="#fff"/><path d="M232.14,82.45a7.46,7.46,0,0,1-2.78-.52.52.52,0,1,1,.39-1,7.84,7.84,0,0,0,8.44-2.31c2.45-2.68,3.07-6.28,3.16-8.83.17-4.79-3.11-5.57-4.53-5.69-3.63-.31-8.07,2.44-8.61,6.81a.52.52,0,0,1-1-.12c.62-5,5.63-8,9.72-7.72,2.76.22,5.64,2.11,5.48,6.75-.09,2.73-.77,6.59-3.43,9.49A9.4,9.4,0,0,1,232.14,82.45Z" fill="#231f20"/><path d="M227.93,111.73s-6.23,3.18-16.93,3.55-12.48-2.53-12.48-2.53l.26-5.73.59-13.3.56-12.44,24.42-.84,1.17,10.11.36,3.28Z" fill="#fff"/><path d="M209.15,115.83c-9.05,0-10.88-2.51-11.06-2.81a.46.46,0,0,1-.08-.3l1.4-31.46a.52.52,0,0,1,.5-.49l24.42-.85a.54.54,0,0,1,.53.46l3.58,31.29a.53.53,0,0,1-.28.52c-.26.13-6.45,3.23-17.14,3.6C210.36,115.82,209.74,115.83,209.15,115.83Zm-10.1-3.26c.46.47,3,2.51,11.93,2.19a45.32,45.32,0,0,0,16.39-3.34L223.89,81l-23.47.81Z" fill="#231f20"/><path d="M191.07,56.27l.41,11.5h0l.22,6,.15,4.54a19.67,19.67,0,0,0,.34,3c.1.49.22,1,.35,1.47h0a18.64,18.64,0,0,0,6.86,9.9,14.23,14.23,0,0,0,1.67,1.11,18.61,18.61,0,0,0,10.14,2.57l2.18-.07A18.72,18.72,0,0,0,231,81.84c.06-.25.11-.51.15-.76a17.81,17.81,0,0,0,.31-4.08l-.07-2.12-.33-9.51-.31-9.05a125.09,125.09,0,0,0-20-1.53A126.89,126.89,0,0,0,191.07,56.27Z" fill="#fff"/><path d="M210.56,97a19.14,19.14,0,0,1-9.75-2.65,14.72,14.72,0,0,1-1.72-1.15,19.22,19.22,0,0,1-7-10.17.13.13,0,0,1,0-.06,14.3,14.3,0,0,1-.35-1.47,20,20,0,0,1-.36-3.07l-.77-22.1a.51.51,0,0,1,.43-.53,126.08,126.08,0,0,1,19.78-1.49,124.48,124.48,0,0,1,20,1.54.51.51,0,0,1,.43.49L232,77a19.06,19.06,0,0,1-.32,4.18c0,.26-.1.53-.16.8a19.24,19.24,0,0,1-18.08,14.91l-2.19.07ZM193.05,82.75a18.21,18.21,0,0,0,6.66,9.59,13.73,13.73,0,0,0,1.62,1.07,18.15,18.15,0,0,0,9.86,2.51l2.19-.08a18.15,18.15,0,0,0,17.1-14.11c.06-.25.11-.49.15-.73a18,18,0,0,0,.31-4l-.7-20.26a123.63,123.63,0,0,0-19.47-1.46,126.12,126.12,0,0,0-19.17,1.41l.77,21.64a17,17,0,0,0,.33,2.92c.09.48.21,1,.34,1.43A.09.09,0,0,1,193.05,82.75Z" fill="#231f20"/><path d="M211.82,81.25c-.59,0-1.21,0-1.83-.08a1.23,1.23,0,0,1-.93-.58c-1.47-2.26,1.85-12.2,2.53-14.17a.5.5,0,0,1,.65-.32.51.51,0,0,1,.32.65C211.05,71.13,209,78.61,209.93,80a.2.2,0,0,0,.15.11,25.59,25.59,0,0,0,5.3-.18.51.51,0,1,1,.16,1A24,24,0,0,1,211.82,81.25Z" fill="#231f20"/><ellipse cx="204.34" cy="66.81" rx="1.29" ry="3.18" transform="translate(-2.2 7.13) rotate(-1.99)" fill="#231f20"/><ellipse cx="220.82" cy="65.81" rx="1.29" ry="3.18" transform="translate(-2.15 7.7) rotate(-1.99)" fill="#231f20"/><path d="M212.13,87.94a15.9,15.9,0,0,1-7.63-2.08.51.51,0,0,1-.21-.7A.51.51,0,0,1,205,85c10.27,5.55,16.78-2.26,17-2.59a.5.5,0,0,1,.72-.08.52.52,0,0,1,.08.73A14.87,14.87,0,0,1,212.13,87.94Z" fill="#231f20"/><path d="M248.09,84.27s-8.62-23.45-20.39-25.54a100,100,0,0,0-32.5,0c-7.58,1.4-20.37,17-20.39,25.54a12.79,12.79,0,0,1-2.64-8.59c.29-5.25,10-19.93,16.33-23.43s37.62-3.66,43-1.46c9.69,4,16.33,15.56,18.3,22S251.35,79.68,248.09,84.27Z" fill="#fff"/><path d="M174.81,84.79a.5.5,0,0,1-.39-.18,13.24,13.24,0,0,1-2.76-9c.3-5.37,10.1-20.28,16.59-23.85s38.07-3.68,43.41-1.48c9.8,4,16.61,15.82,18.6,22.3s1.54,7.31-1.68,11.85l-.07.1a.49.49,0,0,1-.49.21.51.51,0,0,1-.42-.33c-.08-.23-8.65-23.2-20-25.22a99.71,99.71,0,0,0-32.31,0c-7.44,1.38-19.94,17.06-20,25a.53.53,0,0,1-.34.49A.57.57,0,0,1,174.81,84.79Zm36.69-27.9a94,94,0,0,1,16.29,1.33c10.72,1.91,18.69,20.54,20.43,25,2.7-3.83,2.83-4.47,1.05-10.27-1.93-6.3-8.53-17.75-18-21.65-4.94-2-36.2-2-42.52,1.44-6.13,3.37-15.78,18-16.06,23a12.63,12.63,0,0,0,1.72,7.08c1.31-8.76,13.18-23.18,20.7-24.57A93.69,93.69,0,0,1,211.5,56.89Z" fill="#231f20"/><path d="M211.14,43.71a.45.45,0,0,1-.16,0,9,9,0,0,1-5.55-8.34.47.47,0,0,1,.24-.43,5,5,0,0,0,1.56-1.7.5.5,0,0,1,.45-.27h6.93a.48.48,0,0,1,.44.27,5.07,5.07,0,0,0,1.57,1.7.49.49,0,0,1,.24.43,9,9,0,0,1-5.55,8.34A.51.51,0,0,1,211.14,43.71Zm-4.7-8.12a7.84,7.84,0,0,0,4.7,7.08,7.82,7.82,0,0,0,4.71-7.08,6,6,0,0,1-1.53-1.65H208A6,6,0,0,1,206.44,35.59Z" fill="#d1d3d4"/><path d="M190.81,103.55s29.64.84,39.93.74c3.42,0,6.39,13.59.73,17.09s-39.62,2.33-44.67,0-5.05-5-5.34-6.71-1.17-11.42,0-13.88,9.2-5,9.2-5-2.06.21-3.22,3.56S190.81,103.55,190.81,103.55Z" fill="#68e1fd"/><path d="M233.45,103.86l8.92-8.06s2.4,12,1.67,14.24-8.15,10.17-10.36,10.75S231.67,108,233.45,103.86Z" fill="#68e1fd"/><path d="M257.93,212.86a13.75,13.75,0,0,0,3.89-9,9.39,9.39,0,0,0-4.65-8.35,8.66,8.66,0,0,0-10.63,2.61,17.05,17.05,0,0,0-2.12,4.48c-1.52,4.3-6.34,13.37.34,15.64C248.76,219.58,255.39,215.62,257.93,212.86Z" fill="#fff"/><path d="M246.55,219a5.9,5.9,0,0,1-2-.3,5.24,5.24,0,0,1-3.26-2.75c-1.49-3.23.43-8,1.82-11.55.3-.73.57-1.41.77-2a17.3,17.3,0,0,1,2.2-4.62A9.18,9.18,0,0,1,257.41,195a9.94,9.94,0,0,1,4.92,8.81,14.13,14.13,0,0,1-4,9.37h0C256.17,215.53,250.77,219,246.55,219Zm7-23.87A8.28,8.28,0,0,0,247,198.4a16.26,16.26,0,0,0-2.05,4.36c-.21.59-.49,1.28-.79,2-1.33,3.34-3.15,7.91-1.85,10.73a4.19,4.19,0,0,0,2.66,2.21c3.57,1.22,10-2.34,12.63-5.22h0a13.15,13.15,0,0,0,3.74-8.68,8.88,8.88,0,0,0-4.37-7.88A7.2,7.2,0,0,0,253.55,195.14Zm4.38,17.72h0Z" fill="#231f20"/><path d="M248,217a15.28,15.28,0,0,0,8.1-14.9,8.38,8.38,0,0,0-1.33-4c-1.35-1.92-3.72-2.84-6-3.33-6.8-1.44-14,.09-20.13,3.42a17.69,17.69,0,0,0-4.84,3.64c-1.5,1.7-2.72,3.1-2.25,5.39a18.15,18.15,0,0,0,8.15,11.4c2.88,1.88,5.38,1.23,8.55.91A28.22,28.22,0,0,0,248,217Z" fill="#231f20"/><path d="M234.14,220.4a8.13,8.13,0,0,1-4.68-1.36,18.57,18.57,0,0,1-8.37-11.72c-.52-2.55.88-4.14,2.36-5.82a17.66,17.66,0,0,1,5-3.74,30,30,0,0,1,20.47-3.48c3,.65,5.1,1.8,6.32,3.53a8.85,8.85,0,0,1,1.42,4.2,15.87,15.87,0,0,1-8.38,15.39h0a28,28,0,0,1-9.93,2.62l-1.24.15A25.4,25.4,0,0,1,234.14,220.4Zm9.36-25.68a30.59,30.59,0,0,0-14.59,3.91,16.78,16.78,0,0,0-4.71,3.53c-1.43,1.62-2.55,2.9-2.13,5A17.54,17.54,0,0,0,230,218.2c2.34,1.53,4.38,1.29,7,1l1.26-.15a27.32,27.32,0,0,0,9.59-2.52h0a14.83,14.83,0,0,0,7.83-14.39,7.83,7.83,0,0,0-1.24-3.73c-1.07-1.52-2.94-2.54-5.72-3.13A24.77,24.77,0,0,0,243.5,194.72Z" fill="#231f20"/><path d="M230.46,185.24c-1.51.35-3.26,1.12-3.43,2.67a2.75,2.75,0,0,0,1.39,2.48,8.35,8.35,0,0,0,2.83.93L245,194a7.48,7.48,0,0,0,1.82.21,4.29,4.29,0,0,0,3.9-4.41c0-2.37-2-3.09-4-3.77A29.68,29.68,0,0,0,230.46,185.24Z" fill="#231f20"/><path d="M246.63,194.73a8.71,8.71,0,0,1-1.75-.23l-13.73-2.69a8.57,8.57,0,0,1-3-1,3.22,3.22,0,0,1-1.62-3c.16-1.46,1.52-2.56,3.82-3.1h0a30.31,30.31,0,0,1,16.5.82c2,.67,4.39,1.51,4.34,4.25a4.78,4.78,0,0,1-4.38,4.9Zm-16-9c-1.08.25-2.91.87-3.06,2.24a2.3,2.3,0,0,0,1.16,2,7.77,7.77,0,0,0,2.66.86l13.73,2.69a7.06,7.06,0,0,0,1.7.21,3.8,3.8,0,0,0,3.42-3.93c0-1.88-1.43-2.52-3.66-3.29a29.29,29.29,0,0,0-15.95-.79Z" fill="#231f20"/><ellipse cx="149.76" cy="211.85" rx="6.13" ry="11.96" transform="matrix(0.99, -0.16, 0.16, 0.99, -32.83, 27.54)" fill="#fff"/><path d="M151.19,224.21c-3.47,0-6.9-4.75-8-11.26a19.53,19.53,0,0,1,.4-8.88c.83-2.62,2.29-4.22,4.1-4.52s3.72.74,5.35,2.94a19.51,19.51,0,0,1,3.26,8.27h0c1.15,6.9-.83,12.79-4.5,13.4A4.32,4.32,0,0,1,151.19,224.21Zm-2.87-23.68a3.4,3.4,0,0,0-.45,0c-1.41.24-2.58,1.59-3.29,3.82a18.57,18.57,0,0,0-.36,8.4c1,6.12,4.42,10.87,7.42,10.36s4.67-6.09,3.65-12.21a18.43,18.43,0,0,0-3.07-7.83C151,201.43,149.61,200.53,148.32,200.53Z" fill="#231f20"/><path d="M252.9,202.13,152.6,218.87a13.33,13.33,0,0,1-2.43-14.58l100.3-16.74s-3,2.27-2,7.84S252.9,202.13,252.9,202.13Z" fill="#fff"/><path d="M152.6,219.39a.49.49,0,0,1-.34-.14A13.82,13.82,0,0,1,149.72,204a.51.51,0,0,1,.36-.26L250.38,187a.52.52,0,0,1,.56.31.5.5,0,0,1-.16.61c-.11.09-2.71,2.18-1.85,7.34s4.1,6.33,4.14,6.34a.52.52,0,0,1-.08,1l-100.3,16.74Zm-2.08-14.63a12.89,12.89,0,0,0,2.26,13.56l98.61-16.46a11.14,11.14,0,0,1-2.26-13.56Z" fill="#231f20"/><path d="M257.73,193.83a17.5,17.5,0,0,0-4-9l-.4-2.41-3.64.61c-3.34.56-5.16,6.29-4.08,12.81s4.68,11.35,8,10.79l3.64-.61-.4-2.4A17.66,17.66,0,0,0,257.73,193.83Z" fill="#fff"/><path d="M253.12,207.2c-3.47,0-6.9-4.75-8-11.27a19.63,19.63,0,0,1,.4-8.87c.83-2.62,2.29-4.22,4.1-4.53l3.65-.6a.51.51,0,0,1,.59.42l.38,2.25a20.48,20.48,0,0,1,3.18,19.1l.38,2.25a.52.52,0,0,1-.42.59l-3.65.61A4.32,4.32,0,0,1,253.12,207.2ZM252.94,183l-3.14.52c-1.41.24-2.58,1.59-3.29,3.82a18.54,18.54,0,0,0-.36,8.39c1,6.12,4.43,10.88,7.42,10.37l3.14-.52-.32-1.9a.52.52,0,0,1,0-.3,17,17,0,0,0,.79-9.49h0a17,17,0,0,0-3.83-8.73.54.54,0,0,1-.14-.27Z" fill="#231f20"/><path d="M301.4,180.61l-48,1.82s-4.71,1.63-2.87,12.61,6.81,11,6.81,11l46-13.87Z" fill="#fff"/><path d="M257.3,206.55h0c-.22,0-5.44-.14-7.32-11.42S253,182,253.19,182l.15,0,48-1.83a.5.5,0,0,1,.53.43l1.93,11.56a.53.53,0,0,1-.36.58l-46,13.87ZM253.48,183c-.49.23-4.1,2.33-2.48,12s5.69,10.5,6.24,10.55l45.51-13.71L301,181.14Z" fill="#231f20"/><path d="M307.28,185.56a16.08,16.08,0,0,0-1-3.65l-.84-5-4.05.67c-2.47.42-3.83,4.67-3,9.5s3.47,8.41,5.94,8l4.05-.68-.84-5A16,16,0,0,0,307.28,185.56Z" fill="#fff"/><path d="M303.86,195.61a4.75,4.75,0,0,1-3.61-2.28,15.93,15.93,0,0,1-2.14-12.83c.63-2,1.75-3.21,3.14-3.45l4.05-.67a.49.49,0,0,1,.39.09.52.52,0,0,1,.21.33l.83,5a17.18,17.18,0,0,1,1.06,3.72h0a16.28,16.28,0,0,1,.2,3.86l.83,5a.52.52,0,0,1-.43.59l-4.05.68A3.88,3.88,0,0,1,303.86,195.61Zm1.1-18.13-3.54.59c-1,.17-1.82,1.14-2.33,2.74a15,15,0,0,0,2,11.91c1,1.35,2.09,2,3.09,1.83l3.54-.59-.75-4.51a.48.48,0,0,1,0-.12,15.82,15.82,0,0,0-.19-3.68h0a15.58,15.58,0,0,0-1-3.54.53.53,0,0,1,0-.12Z" fill="#231f20"/><ellipse cx="306.85" cy="185.64" rx="4.54" ry="8.87" transform="matrix(0.99, -0.16, 0.16, 0.99, -26.37, 53.04)" fill="#fff"/><path d="M307.91,194.93c-2.64,0-5.23-3.57-6.05-8.46a14.57,14.57,0,0,1,.3-6.65c.63-2,1.75-3.21,3.14-3.44s2.86.56,4.1,2.23a14.61,14.61,0,0,1,2.44,6.19h0a14.57,14.57,0,0,1-.3,6.65c-.63,2-1.75,3.21-3.15,3.44A2.59,2.59,0,0,1,307.91,194.93Zm-2.13-17.56-.31,0c-1,.16-1.82,1.13-2.33,2.73a13.48,13.48,0,0,0-.26,6.17c.74,4.47,3.22,7.92,5.34,7.57,1-.16,1.83-1.13,2.34-2.73a13.62,13.62,0,0,0,.26-6.17h0a13.58,13.58,0,0,0-2.25-5.74A3.82,3.82,0,0,0,305.78,177.37Z" fill="#231f20"/><ellipse cx="306.85" cy="185.64" rx="2.5" ry="4.88" transform="translate(-26.37 53.04) rotate(-9.47)" fill="#d1d3d4"/><path d="M247.35,169.15c0,.58-7.9-7.87-6.88-26.36.68-12.25,6.54-26.95,6.54-26.95s1.22-2,6,0,5.12,5,5.12,5S246.7,146.59,247.35,169.15Z" fill="#231f20"/><path d="M247.35,169.67a.62.62,0,0,1-.34-.09c-1-.63-8-9.37-7-26.81.67-12.2,6.51-27,6.57-27.12s1.53-2.38,6.64-.27,5.41,5.24,5.43,5.37a.46.46,0,0,1,0,.26c-.11.26-11.37,25.94-10.73,48.13a.54.54,0,0,1-.26.47A.45.45,0,0,1,247.35,169.67Zm0-.49h0Zm2-53.72c-1.44,0-1.91.64-1.91.65s-5.79,14.68-6.46,26.71c-.8,14.42,3.92,22.74,5.86,25.19-.23-21.28,9.89-45.19,10.78-47.26-.13-.55-.87-2.83-4.8-4.45A9.38,9.38,0,0,0,249.34,115.46Z" fill="#231f20"/><path d="M228.23,215.73c-3.89-2.07-6.2-6.2-8-10.22-.49-1.08-1-2.37-.41-3.43a2.81,2.81,0,0,1,3.65-.88,8.22,8.22,0,0,1,2.9,2.9,13.24,13.24,0,0,1-2.08-4.57,6.55,6.55,0,0,1,.76-4.87,2.45,2.45,0,0,1,2.62-1.28,2.93,2.93,0,0,1,1.42,1.42,34.76,34.76,0,0,1,2.29,4.41,6.58,6.58,0,0,1,0-5.39c.46-1,1.51-2,2.53-1.57a2.74,2.74,0,0,1,1.23,1.4l2.22,4.28a5.91,5.91,0,0,1,.31-3.83,3.23,3.23,0,0,1,3.17-1.86,3.47,3.47,0,0,1,2.45,1.95,10.51,10.51,0,0,1,.84,3.13l1.08,6.92c.13.81.54,1.86,1.36,1.76" fill="#231f20"/><path d="M228.23,216.23a.53.53,0,0,1-.23-.06c-4.07-2.17-6.45-6.5-8.24-10.45-.58-1.29-1-2.65-.4-3.87.78-1.5,2.85-1.78,4.3-1.1a5.54,5.54,0,0,1,.53.3,8.76,8.76,0,0,1-.4-1.43,7,7,0,0,1,.83-5.24,2.9,2.9,0,0,1,3.19-1.47,3.36,3.36,0,0,1,1.69,1.63c.28.46.56.94.82,1.42a7.11,7.11,0,0,1,.62-2.35c.6-1.28,1.87-2.32,3.15-1.83a3.14,3.14,0,0,1,1.5,1.64l1.15,2.22a5,5,0,0,1,.5-1.77,3.72,3.72,0,0,1,3.68-2.13,4,4,0,0,1,2.82,2.22,10.64,10.64,0,0,1,.89,3.28l1.08,6.92c.09.57.35,1.39.81,1.35a.5.5,0,0,1,.55.44.49.49,0,0,1-.43.55c-.94.12-1.68-.73-1.91-2.19l-1.08-6.91a9.94,9.94,0,0,0-.79-3,3,3,0,0,0-2.08-1.69,2.75,2.75,0,0,0-2.65,1.59,5.56,5.56,0,0,0-.28,3.51.49.49,0,0,1-.32.57.5.5,0,0,1-.61-.24l-2.22-4.28a2.31,2.31,0,0,0-1-1.17c-.76-.28-1.56.6-1.9,1.32a6.06,6.06,0,0,0-.09,4.83l.07.16a.5.5,0,0,1-.91.4l-.08-.17a34.67,34.67,0,0,0-2.18-4.19,2.63,2.63,0,0,0-1.16-1.21c-.72-.24-1.57.36-2,1.08a6.06,6.06,0,0,0-.69,4.5,12.56,12.56,0,0,0,2,4.4.49.49,0,0,1-.14.68.5.5,0,0,1-.69-.12,7.73,7.73,0,0,0-2.71-2.74,2.34,2.34,0,0,0-3,.66c-.43.84-.05,1.94.43,3,1.72,3.8,4,8,7.8,10a.5.5,0,0,1,.2.68A.51.51,0,0,1,228.23,216.23Z" fill="#231f20"/><path d="M215,123.56c-8.94,0-25-.89-28.36-1.7-4.27-1-4.4-3.3-4.4-3.4a.49.49,0,0,1,.48-.51.46.46,0,0,1,.51.47s.21,1.65,3.64,2.47c3.83.92,25.79,2,32.19,1.57,8.59-.56,13.26-1.7,13.88-3.39.79-2.18,1.24-10.67-.54-12.8a.49.49,0,0,1,.06-.7.5.5,0,0,1,.7.06c2.1,2.51,1.63,11.26.72,13.78-.8,2.19-5.35,3.44-14.76,4C218.12,123.53,216.7,123.56,215,123.56Z" fill="#231f20"/><path d="M234.78,121.46a1.6,1.6,0,0,1-.82-.22,2.69,2.69,0,0,1-1-2,.5.5,0,0,1,.46-.53.49.49,0,0,1,.53.46c0,.23.16,1,.54,1.19.07,0,.29.17.79,0,1.75-.72,8.36-8.71,8.39-11.06a.51.51,0,0,1,.5-.49.5.5,0,0,1,.49.5c0,3-7.14,11.2-9,12A2.29,2.29,0,0,1,234.78,121.46Z" fill="#231f20"/><path d="M152.8,203.87l20.45,7,6.54-18.05-23.48-8.32S149.81,196.9,152.8,203.87Z" fill="#fff"/><path d="M173.25,211.36l-.17,0-20.44-7a.54.54,0,0,1-.31-.28c-3.06-7.12,3.25-19.33,3.52-19.85a.52.52,0,0,1,.63-.24L180,192.3a.51.51,0,0,1,.3.26.55.55,0,0,1,0,.4L173.74,211A.53.53,0,0,1,173.25,211.36Zm-20.06-7.9,19.75,6.73,6.19-17.09-22.57-8C155.52,187.25,150.82,197.45,153.19,203.46Z" fill="#231f20"/><path d="M166.38,183.31s-8.11,14.38-10.58,27.53c0,0-61.25-9.84-67.08-28.39S170,118.39,170,118.39L173.25,166a169.15,169.15,0,0,1-31.05,10.94C153.76,179.87,166.38,183.31,166.38,183.31Z" fill="#68e1fd"/><path d="M180.34,113.44s-9.87-1.33-13.76,3-13,31.68-2.13,51.33C164.45,167.75,172.38,126.3,180.34,113.44Z" fill="#231f20"/><path d="M164.45,168.25A.49.49,0,0,1,164,168c-11.31-20.45-1.46-47.85,2.19-51.91,4-4.45,13.79-3.18,14.2-3.13a.48.48,0,0,1,.38.28.51.51,0,0,1,0,.48c-7.83,12.62-15.75,53.72-15.83,54.13a.49.49,0,0,1-.41.4Zm12.46-54.5c-3.15,0-7.69.48-10,3-3.91,4.34-12.26,30.49-2.72,49.52,1.45-7.29,8.23-40.21,15.28-52.41C178.91,113.81,178,113.75,176.91,113.75Z" fill="#231f20"/><path d="M187.13,191.26l7.79,2.38c2.51.77,5.12,1.59,7,3.4a2.55,2.55,0,0,1,.75,1.06,2.12,2.12,0,0,1-1.39,2.39,6,6,0,0,1-3,.11,85.08,85.08,0,0,1-9.35-1.9,22.21,22.21,0,0,0,12.16,8.12,6.82,6.82,0,0,1,2.26.83,1.91,1.91,0,0,1,.86,2.09c-.33.93-1.48,1.21-2.46,1.36l-2.54.38a1.82,1.82,0,0,1,1.9,2,2.86,2.86,0,0,1-2.07,2.23,7,7,0,0,1-3.19,0c1.61.19,2.32,2.48,1.39,3.81a4,4,0,0,1-4.4,1.18,1.68,1.68,0,0,1,1.4,1.48,1.71,1.71,0,0,1-1.13,1.71,3.4,3.4,0,0,1-2.54-.61l-11.23-6.22c-2.61-1.44-5.06-3.55-7.93-4.42-2.43-.74-7.33.34-8.59-2.57a5,5,0,0,1,0-2.93,68.17,68.17,0,0,1,3.81-12.17c.72-1.72,1.11-3.87,1.9-5.44,1.32-2.62,3.86-.86,5.92-.12C178.49,190.93,183,190,187.13,191.26Z" fill="#231f20"/><path d="M192.57,224.55a4.76,4.76,0,0,1-2.23-.76l-11.23-6.21c-.9-.5-1.78-1.07-2.64-1.63a20.91,20.91,0,0,0-5.19-2.75,13,13,0,0,0-2.76-.33c-2.42-.12-5.16-.25-6.14-2.52a5.24,5.24,0,0,1,0-3.23,67.89,67.89,0,0,1,3.83-12.27,22.5,22.5,0,0,0,.81-2.4,19.84,19.84,0,0,1,1.11-3.07c1.3-2.57,3.69-1.55,5.44-.8.37.16.74.31,1.09.44A22,22,0,0,0,181,190a25.47,25.47,0,0,1,6.27.83h0l7.78,2.38c2.44.75,5.2,1.59,7.23,3.52a3.18,3.18,0,0,1,.87,1.27,2.59,2.59,0,0,1-1.68,3,6.3,6.3,0,0,1-3.26.14c-2.66-.39-5.33-.91-8-1.55a21.55,21.55,0,0,0,11,6.8l.26.06a6.57,6.57,0,0,1,2.17.84,2.44,2.44,0,0,1,1,2.67c-.42,1.17-1.74,1.52-2.85,1.68l-.84.12a2.45,2.45,0,0,1,.62,1.85,3.38,3.38,0,0,1-2.42,2.66,5.35,5.35,0,0,1-1.53.23,3.39,3.39,0,0,1,.2.38,3.14,3.14,0,0,1-.22,3,4,4,0,0,1-3.12,1.59,2.17,2.17,0,0,1,.22.75,2.19,2.19,0,0,1-1.47,2.22A2.56,2.56,0,0,1,192.57,224.55Zm-22-35.84a1.69,1.69,0,0,0-1.58,1.12,19.4,19.4,0,0,0-1,2.91,24.44,24.44,0,0,1-.84,2.5,68.07,68.07,0,0,0-3.78,12.09,4.53,4.53,0,0,0,0,2.63c.73,1.69,3,1.81,5.28,1.92a13.77,13.77,0,0,1,3,.36,22.2,22.2,0,0,1,5.45,2.87c.84.55,1.71,1.12,2.57,1.6l11.23,6.21a2.94,2.94,0,0,0,2.15.57,1.18,1.18,0,0,0,.78-1.19,1.2,1.2,0,0,0-.72-1l-.33-.09a.49.49,0,0,1,.22-1,1.8,1.8,0,0,1,.4.1,3.46,3.46,0,0,0,3.52-1.08,2.18,2.18,0,0,0,.12-2.07,1.53,1.53,0,0,0-1.05-.93l-.13,0a.5.5,0,0,1-.41-.56.49.49,0,0,1,.55-.43.9.9,0,0,1,.16,0,6.37,6.37,0,0,0,2.82-.06,2.38,2.38,0,0,0,1.73-1.82,1.5,1.5,0,0,0-.47-1.18,1.11,1.11,0,0,0-.82-.31h-.05a.49.49,0,0,1-.56-.41.48.48,0,0,1,.4-.57h.07l2.49-.37c.83-.13,1.82-.36,2.06-1a1.43,1.43,0,0,0-.67-1.51,5.54,5.54,0,0,0-1.84-.69l-.27-.07A22.52,22.52,0,0,1,188.54,199a.5.5,0,0,1,0-.57.51.51,0,0,1,.54-.21,82.21,82.21,0,0,0,9.29,1.89,5.28,5.28,0,0,0,2.75-.08,1.62,1.62,0,0,0,1.1-1.77,2.23,2.23,0,0,0-.61-.85c-1.86-1.77-4.5-2.57-6.83-3.29L187,191.73a24.57,24.57,0,0,0-6-.78,23.15,23.15,0,0,1-6.68-1c-.37-.14-.75-.3-1.14-.47A7.51,7.51,0,0,0,170.56,188.71Z" fill="#231f20"/><path d="M163.31,182.93h-.13l-36.47-9.69a.5.5,0,1,1,.26-1L163.44,182a.5.5,0,0,1,.35.61A.49.49,0,0,1,163.31,182.93Z" fill="#231f20"/><path d="M248.4,179.86a.5.5,0,0,1,0-1c.23,0,23.06-.72,32.53-10a.49.49,0,0,1,.7,0,.5.5,0,0,1,0,.71c-9.75,9.58-32.25,10.29-33.21,10.32Z" fill="#231f20"/><path d="M247.35,160.71a.5.5,0,0,1-.49-.42.48.48,0,0,1,.4-.57c.21,0,20.55-3.62,27.14-8.7a.5.5,0,0,1,.69.09.5.5,0,0,1-.09.7c-6.78,5.23-26.72,8.74-27.57,8.89Z" fill="#231f20"/><path d="M214.5,179.92c-27.28,0-46-10.19-46.28-10.33a.49.49,0,0,1-.19-.68.48.48,0,0,1,.67-.19c.35.19,35,19,78.69,5.08a.49.49,0,0,1,.62.32.5.5,0,0,1-.32.63A109.21,109.21,0,0,1,214.5,179.92Z" fill="#231f20"/><path d="M212.3,157c-21.47,0-39.82-5.53-40.74-6.2a.56.56,0,0,1-.22-.44.5.5,0,0,1,.52-.47.46.46,0,0,1,.3.11c2.67,1.36,41.46,12.21,71.82.91a.5.5,0,0,1,.64.29.49.49,0,0,1-.29.64C234,155.72,222.78,157,212.3,157Z" fill="#231f20"/><path d="M227.72,240a3.54,3.54,0,0,1-.83-.07c-2.3-.61-8.51-10.06-9.74-11.95a.51.51,0,0,1,0-.48.5.5,0,0,1,.38-.28L248.33,223a.5.5,0,0,1,.42.14.51.51,0,0,1,.14.42l-1.82,12.94a.49.49,0,0,1-.39.42C245,237.23,231.68,240,227.72,240Zm-9.3-11.9c2.8,4.26,7.31,10.49,8.72,10.86s12.06-1.55,19-3l1.67-12Z" fill="#231f20"/><path d="M223.79,261.5a2,2,0,0,1-.64-.07c-.79-.26-3-4.07-6.07-33.65a.5.5,0,0,1,.44-.55.51.51,0,0,1,.55.45c1.59,15.19,4,31.86,5.43,32.82,1.55.51,19.18-3.63,30.25-6.44l-5.84-30.51a.5.5,0,0,1,.4-.58.5.5,0,0,1,.58.4l5.93,31a.5.5,0,0,1-.36.58C251.67,255.62,228.45,261.5,223.79,261.5Z" fill="#231f20"/><circle cx="236.73" cy="232.93" r="2.33" fill="#231f20"/><circle cx="172.78" cy="230.59" r="2.33" fill="#231f20"/><path d="M184.33,260.11c-4.65,0-29.73-5.42-30.89-6.82a.48.48,0,0,1-.11-.41c3-14.6,5.72-30.17,5.74-30.32a.51.51,0,0,1,.57-.41l29.41,4.38a.5.5,0,0,1,.42.54c-1.15,12-3.26,32.15-4.45,32.94A1.44,1.44,0,0,1,184.33,260.11Zm.06-.86Zm-30-6.49c2.7,1.38,27.62,6.71,30.07,6.41.85-1.84,2.87-20.09,4-31.72L160,223.2C159.5,225.92,157.06,239.68,154.37,252.76Z" fill="#231f20"/><path d="M183,238.7h-.05c-3.14-.36-18.86-2.19-20.07-3s-3.21-10.11-3.79-12.93a.5.5,0,1,1,1-.2c1.15,5.61,2.74,11.75,3.39,12.31.91.54,12.16,2,19.27,2.82l5.83-10.88a.49.49,0,0,1,.67-.2.49.49,0,0,1,.21.67l-6,11.18A.49.49,0,0,1,183,238.7Z" fill="#231f20"/><path d="M266.57,108.88s-2.84,3.15-8.8,3.15-8.8-3.15-8.8-3.15v-9h17.6Z" fill="#231f20"/><path d="M257.77,112.53c-6.11,0-9-3.19-9.17-3.32a.5.5,0,0,1-.12-.33v-9a.5.5,0,0,1,.49-.5h17.6a.51.51,0,0,1,.5.5v9a.51.51,0,0,1-.13.33C266.82,109.34,263.88,112.53,257.77,112.53Zm-8.3-3.86a13.47,13.47,0,0,0,16.6,0v-8.29h-16.6Zm17.1.21h0Z" fill="#231f20"/><ellipse cx="257.77" cy="100.06" rx="8.8" ry="3.23" fill="#d1d3d4"/><path d="M257.77,103.81c-4.51,0-9.31-1.31-9.31-3.75s4.8-3.75,9.31-3.75,9.31,1.31,9.31,3.75S262.29,103.81,257.77,103.81Zm0-6.47c-4.74,0-8.28,1.44-8.28,2.72s3.54,2.72,8.28,2.72,8.28-1.44,8.28-2.72S262.51,97.34,257.77,97.34Z" fill="#231f20"/><path d="M154.71,173.81a.51.51,0,0,1-.36-.15c-9.9-10.49-21.6-34-21.72-34.24a.5.5,0,0,1,.23-.67.49.49,0,0,1,.66.23c.12.23,11.76,23.61,21.56,34a.49.49,0,0,1-.37.84Z" fill="#231f20"/><path d="M164.11,150.68a.47.47,0,0,1-.35-.15c-8.06-8.1-12.63-20.64-12.67-20.77a.49.49,0,0,1,.3-.63.49.49,0,0,1,.63.3c0,.12,4.54,12.45,12.44,20.4a.5.5,0,0,1-.35.85Z" fill="#231f20"/></g></svg>