<svg xmlns="http://www.w3.org/2000/svg" viewBox="0 0 400 300"><g id="_27" data-name="#27"><path d="M338.3,149H283.12a.5.5,0,0,1-.5-.5.5.5,0,0,1,.5-.5H338.3a.5.5,0,0,1,.5.5A.5.5,0,0,1,338.3,149Z" fill="#d1d3d4"/><path d="M297.19,163.79a.5.5,0,0,1-.5-.5V148.93a.5.5,0,0,1,.5-.5.5.5,0,0,1,.5.5v14.36A.5.5,0,0,1,297.19,163.79Z" fill="#d1d3d4"/><path d="M323.24,149a.5.5,0,0,1-.5-.5V136.68a.5.5,0,0,1,1,0v11.83A.5.5,0,0,1,323.24,149Z" fill="#d1d3d4"/><path d="M102.07,112.4H51.39a.5.5,0,0,1-.5-.5.51.51,0,0,1,.5-.5h50.68a.5.5,0,0,1,.5.5A.5.5,0,0,1,102.07,112.4Z" fill="#d1d3d4"/><path d="M356.89,249H43.11a.5.5,0,1,1,0-1H356.89a.5.5,0,0,1,0,1Z" fill="#d1d3d4"/><rect x="129.71" y="24.14" width="140.58" height="244.83" rx="8.96" fill="#fff"/><path d="M261.33,269.47H138.67a9.48,9.48,0,0,1-9.46-9.47V33.1a9.47,9.47,0,0,1,9.46-9.46H261.33a9.47,9.47,0,0,1,9.46,9.46V260A9.48,9.48,0,0,1,261.33,269.47ZM138.67,24.64a8.47,8.47,0,0,0-8.46,8.46V260a8.48,8.48,0,0,0,8.46,8.47H261.33a8.48,8.48,0,0,0,8.46-8.47V33.1a8.47,8.47,0,0,0-8.46-8.46Z" fill="#231f20"/><rect x="137.38" y="49.49" width="125.81" height="190.53" fill="#68e1fd"/><path d="M211.77,261.16H191.14a4.58,4.58,0,0,1-4.58-4.58v-5.25a4.58,4.58,0,0,1,4.58-4.58h20.63a4.58,4.58,0,0,1,4.58,4.58v5.25A4.58,4.58,0,0,1,211.77,261.16Zm-20.63-13.41a3.59,3.59,0,0,0-3.58,3.58v5.25a3.58,3.58,0,0,0,3.58,3.58h20.63a3.58,3.58,0,0,0,3.58-3.58v-5.25a3.58,3.58,0,0,0-3.58-3.58Z" fill="#d1d3d4"/><path d="M210.48,37.21H174.66a.51.51,0,0,1-.5-.5.5.5,0,0,1,.5-.5h35.82a.5.5,0,0,1,.5.5A.5.5,0,0,1,210.48,37.21Z" fill="#d1d3d4"/><path d="M220.31,37.21h-4.8a.5.5,0,0,1-.5-.5.5.5,0,0,1,.5-.5h4.8a.5.5,0,0,1,.5.5A.5.5,0,0,1,220.31,37.21Z" fill="#d1d3d4"/><path d="M223.76,163.9c-.66-9-1.29-16.13-1.77-18.36l-36.09,1.29s-.77,7-1.7,17.07Z" fill="#231f20"/><path d="M223.75,164.4H184.2a.5.5,0,0,1-.37-.17.52.52,0,0,1-.13-.38c.92-9.93,1.69-17,1.7-17.08a.5.5,0,0,1,.48-.44L222,145a.49.49,0,0,1,.51.39c.43,2,1,8.23,1.77,18.43a.52.52,0,0,1-.13.38A.51.51,0,0,1,223.75,164.4Zm-39-1h38.47c-.68-9.23-1.23-15.05-1.64-17.35l-35.23,1.26C186.17,149,185.51,155.14,184.75,163.4Z" fill="#231f20"/><circle cx="237.58" cy="164.2" r="6.89" fill="#231f20"/><path d="M237.58,171.59A7.39,7.39,0,1,1,245,164.2,7.4,7.4,0,0,1,237.58,171.59Zm0-13.79a6.4,6.4,0,1,0,6.4,6.4A6.41,6.41,0,0,0,237.58,157.8Z" fill="#231f20"/><path d="M220.3,95.82s10.34.55,11.82,16.76c0,0,7.91,16.75,9.2,27.07s.56,14.54,1.29,16.94,2.77,6.26,2.21,8.65-5.89,4.61-7.73,3.68-4.05-8.47-1.84-12.52L219,119.57S220.09,97.84,220.3,95.82Z" fill="#fff"/><path d="M238.2,169.65a3,3,0,0,1-1.34-.26c-1.19-.6-2-2.81-2.28-3.73-.81-2.6-1.26-6.54.1-9.28l-16.11-36.6a.45.45,0,0,1,0-.23c0-.89,1.05-21.77,1.26-23.78a.54.54,0,0,1,.54-.47c.11,0,10.77.77,12.29,17.14.61,1.3,8,17.24,9.22,27.14a114.15,114.15,0,0,1,.87,12.3,19,19,0,0,0,.4,4.56c.18.61.47,1.34.76,2.11.89,2.29,1.9,4.89,1.46,6.81-.28,1.2-1.59,2.45-3.5,3.36A9.37,9.37,0,0,1,238.2,169.65Zm-18.64-50.17,16.16,36.71a.53.53,0,0,1,0,.46c-1.34,2.46-.91,6.22-.13,8.7.57,1.83,1.29,2.88,1.75,3.11.74.37,2.45.09,4.07-.68s2.73-1.77,2.93-2.66c.37-1.6-.62-4.15-1.41-6.2-.3-.79-.59-1.53-.79-2.18a19.32,19.32,0,0,1-.44-4.83,112.22,112.22,0,0,0-.87-12.2c-1.26-10.11-9.08-26.75-9.16-26.91a.61.61,0,0,1-.05-.18c-1.24-13.69-8.78-15.88-10.83-16.22C220.51,100.09,219.64,117.83,219.56,119.48Z" fill="#231f20"/><ellipse cx="158.09" cy="101.3" rx="3.13" ry="7.6" fill="#231f20"/><path d="M158.09,109.39c-2.07,0-3.63-3.48-3.63-8.09s1.56-8.1,3.63-8.1,3.63,3.48,3.63,8.1S160.16,109.39,158.09,109.39Zm0-15.19c-1.24,0-2.63,2.91-2.63,7.1s1.39,7.1,2.63,7.1,2.63-2.92,2.63-7.1S159.34,94.2,158.09,94.2Z" fill="#231f20"/><ellipse cx="147.5" cy="101.3" rx="3.13" ry="7.6" fill="#231f20"/><path d="M147.5,109.39c-2.07,0-3.63-3.48-3.63-8.09s1.56-8.1,3.63-8.1,3.63,3.48,3.63,8.1S149.57,109.39,147.5,109.39Zm0-15.19c-1.24,0-2.63,2.91-2.63,7.1s1.39,7.1,2.63,7.1,2.64-2.92,2.64-7.1S148.75,94.2,147.5,94.2Z" fill="#231f20"/><rect x="147.5" y="93.7" width="10.59" height="15.19" fill="#231f20"/><path d="M158.09,109.39H147.5a.5.5,0,0,1-.5-.5V93.7a.51.51,0,0,1,.5-.5h10.59a.5.5,0,0,1,.5.5v15.19A.5.5,0,0,1,158.09,109.39Zm-10.09-1h9.59V94.2H148Z" fill="#231f20"/><rect x="157.23" y="99.66" width="23.39" height="3.87" fill="#231f20"/><path d="M180.62,104H157.23a.5.5,0,0,1-.5-.5V99.66a.5.5,0,0,1,.5-.5h23.39a.5.5,0,0,1,.5.5v3.86A.5.5,0,0,1,180.62,104Zm-22.89-1h22.39v-2.87H157.73Z" fill="#231f20"/><path d="M182.58,99.93c-2.35,1.67-6.88,7.5-9,12.64-.2-.88-.4-1.7-.6-2.45,0,0,1.1-3.07.36-4.79s-.12-4.78-.61-5.77-2.09-1.72-2.82.49c0,0,0-2.33-1.23-2.45a1.2,1.2,0,0,0-1.35,1.1s.12-2-1.6-2-1.84,1.1-1.84,1.1-.49-3.31-2.33-2.08-2.09,4.66-2.21,6.14,5.16,7.12,5.52,8.22S163.43,130,164.29,135s3.81,9.7,8.72,9.45,11.05-13.25,11.05-13.25Z" fill="#fff"/><path d="M172.63,145c-5.28,0-8.06-5.28-8.85-9.89-.54-3.18,0-11.67.34-17.86.2-3.22.4-6.55.29-7a22.76,22.76,0,0,0-1.93-2.63c-2.24-2.82-3.7-4.76-3.61-5.79.14-1.75.42-5.18,2.43-6.52a1.64,1.64,0,0,1,1.63-.24,2.65,2.65,0,0,1,1.22,1.57,2.76,2.76,0,0,1,1.61-.44,2,2,0,0,1,1.49.6,2.21,2.21,0,0,1,.36.52,1.75,1.75,0,0,1,1.15-.25,1.82,1.82,0,0,1,1.48,1.47,1.64,1.64,0,0,1,1-.46,2.13,2.13,0,0,1,2,1.23,6.16,6.16,0,0,1,.27,2.51,9.39,9.39,0,0,0,.36,3.29c.71,1.67-.08,4.33-.3,5,.07.27.14.54.21.83,2.25-4.71,6.21-9.82,8.52-11.46a.53.53,0,0,1,.53,0,.51.51,0,0,1,.29.44l1.47,31.3a.53.53,0,0,1,0,.25c-.25.54-6.33,13.29-11.49,13.55ZM162.36,96a.87.87,0,0,0-.48.19c-1.6,1.06-1.86,4.28-2,5.65-.06.8,2.18,3.64,3.39,5.16a15.73,15.73,0,0,1,2.1,3c.16.47.07,2.29-.24,7.37-.37,6.14-.87,14.56-.35,17.63.74,4.31,3.32,9.27,8.18,9,3.74-.19,8.83-9.23,10.55-12.85L182.11,101a38.42,38.42,0,0,0-8,11.78.51.51,0,0,1-.52.32.49.49,0,0,1-.46-.39c-.2-.88-.4-1.7-.6-2.44a.51.51,0,0,1,0-.3c.29-.81.92-3.16.38-4.41a9.94,9.94,0,0,1-.44-3.7,6.59,6.59,0,0,0-.16-2,1.18,1.18,0,0,0-1-.66c-.49,0-.78.7-.91,1.09a.51.51,0,0,1-.57.34.51.51,0,0,1-.44-.5c0-.59-.19-1.89-.76-2a.67.67,0,0,0-.79.65.5.5,0,0,1-.56.45.51.51,0,0,1-.47-.54,1.75,1.75,0,0,0-.34-1.15,1,1,0,0,0-.74-.26c-1.18,0-1.32.59-1.33.66a.48.48,0,0,1-.51.43.51.51,0,0,1-.51-.43c-.1-.66-.44-1.68-.9-1.89A.34.34,0,0,0,162.36,96Z" fill="#231f20"/><path d="M189.71,96.86l-7.62,1.72.68,49s23.87,13.08,42.23.74l-3.3-53.1-9.35,1Z" fill="#68e1fd"/><path d="M215,95.73l-6.35-.37L208,88.71l-.11-1.36-.33-4.2H197.48l-.41,5.13-.43,5.49-.13,1.56-5.46,1.53s-2,8.47,4.91,13.63,16.58,2,18.42-6S215,95.73,215,95.73Z" fill="#fff"/><path d="M203.37,113.51a12.88,12.88,0,0,1-7.72-2.61c-7.06-5.29-5.12-14.07-5.1-14.15a.5.5,0,0,1,.36-.38L196,94.93,197,83.11a.51.51,0,0,1,.51-.48h10.11a.52.52,0,0,1,.51.48l.44,5.56.57,6.2,5.91.34a.49.49,0,0,1,.24.08c.47.29,1.36,1.77-.38,9.3a11.26,11.26,0,0,1-7.27,8.17A12.19,12.19,0,0,1,203.37,113.51ZM191.5,97.27c-.25,1.51-1,8.45,4.77,12.81a11.62,11.62,0,0,0,11,1.71,10.24,10.24,0,0,0,6.62-7.43c1.37-5.93,1-7.69.83-8.13l-6.09-.36a.52.52,0,0,1-.49-.46l-1-11.74H198L197,95.37a.52.52,0,0,1-.38.46Z" fill="#231f20"/><path d="M195.13,79.25c-.54-3.38-6.15-4.21-5.87-.23a5.85,5.85,0,0,0,1.49,3.74,3.48,3.48,0,0,0,3.77.88" fill="#fff"/><path d="M193.35,84.4a4.23,4.23,0,0,1-3-1.28,6.5,6.5,0,0,1-1.64-4.06,2.71,2.71,0,0,1,2.44-3.19,4.1,4.1,0,0,1,4.46,3.3.52.52,0,0,1-.43.59.52.52,0,0,1-.59-.43,3.09,3.09,0,0,0-3.32-2.44c-.62.07-1.64.44-1.53,2.09a5.4,5.4,0,0,0,1.35,3.42,3,3,0,0,0,3.18.77.52.52,0,0,1,.69.26.52.52,0,0,1-.26.68A3.41,3.41,0,0,1,193.35,84.4Z" fill="#231f20"/><path d="M209.11,79.25c.54-3.38,6.15-4.21,5.87-.23a5.85,5.85,0,0,1-1.49,3.74,3.48,3.48,0,0,1-3.77.88" fill="#fff"/><path d="M210.89,84.4a3.41,3.41,0,0,1-1.38-.29.52.52,0,0,1-.26-.68.52.52,0,0,1,.69-.26,3,3,0,0,0,3.18-.77A5.4,5.4,0,0,0,214.47,79c.11-1.65-.91-2-1.53-2.09a3.09,3.09,0,0,0-3.32,2.44.52.52,0,0,1-.59.43.52.52,0,0,1-.43-.59,4.12,4.12,0,0,1,4.46-3.3,2.71,2.71,0,0,1,2.44,3.19,6.46,6.46,0,0,1-1.65,4.06A4.19,4.19,0,0,1,210.89,84.4Z" fill="#231f20"/><path d="M196.72,92.46l.35-4.18a25.19,25.19,0,0,0,5.83,0,16.94,16.94,0,0,0,5-1C208.19,87.23,205.92,92.87,196.72,92.46Z" fill="#231f20"/><path d="M197.68,93l-1,0a.53.53,0,0,1-.35-.17.5.5,0,0,1-.12-.37l.35-4.18a.49.49,0,0,1,.19-.35.51.51,0,0,1,.38-.1,24.42,24.42,0,0,0,5.71,0,16.47,16.47,0,0,0,4.88-.93.52.52,0,0,1,.56.1.74.74,0,0,1,0,.85C208.22,88.06,206,93,197.68,93Zm-.42-1c6,.12,8.65-2.37,9.66-3.77a21.93,21.93,0,0,1-4,.6,25.9,25.9,0,0,1-5.42,0Z" fill="#231f20"/><path d="M202.83,89.57h-.9a7.74,7.74,0,0,1-7.75-7.74V69.57l8.92,2.21,7.47-2.21V81.83A7.73,7.73,0,0,1,202.83,89.57Z" fill="#fff"/><path d="M202.83,90.09h-.9a8.28,8.28,0,0,1-8.27-8.26V69.57a.54.54,0,0,1,.2-.41.5.5,0,0,1,.44-.09l8.78,2.17,7.35-2.17a.55.55,0,0,1,.45.08.53.53,0,0,1,.21.42V81.83A8.28,8.28,0,0,1,202.83,90.09ZM194.7,70.23v11.6a7.24,7.24,0,0,0,7.23,7.23h.9a7.25,7.25,0,0,0,7.23-7.23V70.26l-6.82,2a.5.5,0,0,1-.27,0Z" fill="#231f20"/><path d="M212.14,76.28l-.19,0a.53.53,0,0,1-.29-.67,12.08,12.08,0,0,0,0-9.5,9,9,0,0,0-7.47-5.27,13.61,13.61,0,0,0-3.82.53,11.2,11.2,0,0,0-4.1,1.67,8.62,8.62,0,0,0-3.1,5.35,26.66,26.66,0,0,0-.23,6.56.52.52,0,1,1-1,0,27.8,27.8,0,0,1,.24-6.81,9.69,9.69,0,0,1,3.5-6,12.77,12.77,0,0,1,4.47-1.85,14.72,14.72,0,0,1,4.11-.55,10,10,0,0,1,8.36,5.86A13.14,13.14,0,0,1,212.62,76,.51.51,0,0,1,212.14,76.28Z" fill="#231f20"/><path d="M202.9,82.67a9.28,9.28,0,0,1-1.23-.07.5.5,0,0,1-.44-.57.52.52,0,0,1,.57-.45,10.37,10.37,0,0,0,2,0,16.66,16.66,0,0,0-1.33-5.11.52.52,0,0,1,.29-.67.53.53,0,0,1,.67.3c.57,1.49,1.84,5.07,1.23,6.09a.82.82,0,0,1-.6.39A9.44,9.44,0,0,1,202.9,82.67Z" fill="#231f20"/><path d="M202.84,86.85a5.8,5.8,0,0,1-4-2.1.52.52,0,1,1,.8-.65,5,5,0,0,0,3.25,1.71,4,4,0,0,0,3-2,.51.51,0,0,1,.72-.12.52.52,0,0,1,.11.73,5,5,0,0,1-3.83,2.4Z" fill="#231f20"/><path d="M176.2,136.17a.57.57,0,0,1-.18,0,.52.52,0,0,1-.3-.67c1.82-4.85.9-7.92-.27-11.81-.2-.68-.41-1.38-.61-2.11a59.1,59.1,0,0,1-1.74-8.93.51.51,0,0,1,.46-.56.5.5,0,0,1,.56.46,60.14,60.14,0,0,0,1.72,8.76c.2.72.4,1.41.6,2.08,1.17,3.91,2.19,7.29.24,12.48A.52.52,0,0,1,176.2,136.17Z" fill="#231f20"/><ellipse cx="187.83" cy="101.48" rx="3.13" ry="7.6" fill="#231f20"/><path d="M187.83,109.58c-2.07,0-3.63-3.48-3.63-8.1s1.56-8.09,3.63-8.09,3.63,3.48,3.63,8.09S189.9,109.58,187.83,109.58Zm0-15.2c-1.25,0-2.63,2.92-2.63,7.1s1.38,7.1,2.63,7.1,2.63-2.92,2.63-7.1S189.08,94.38,187.83,94.38Z" fill="#231f20"/><ellipse cx="177.24" cy="101.48" rx="3.13" ry="7.6" fill="#231f20"/><path d="M177.24,109.58c-2.07,0-3.63-3.48-3.63-8.1s1.56-8.09,3.63-8.09,3.63,3.48,3.63,8.09S179.31,109.58,177.24,109.58Zm0-15.2c-1.24,0-2.63,2.92-2.63,7.1s1.39,7.1,2.63,7.1,2.63-2.92,2.63-7.1S178.49,94.38,177.24,94.38Z" fill="#231f20"/><rect x="177.24" y="93.89" width="10.59" height="15.19" fill="#231f20"/><path d="M187.83,109.58H177.24a.51.51,0,0,1-.5-.5V93.89a.5.5,0,0,1,.5-.5h10.59a.5.5,0,0,1,.5.5v15.19A.51.51,0,0,1,187.83,109.58Zm-10.09-1h9.59V94.38h-9.59Z" fill="#231f20"/><circle cx="240.71" cy="170.09" r="8.1" fill="#231f20"/><path d="M240.71,178.69a8.6,8.6,0,1,1,8.6-8.6A8.61,8.61,0,0,1,240.71,178.69Zm0-16.2a7.61,7.61,0,1,0,7.6,7.6A7.61,7.61,0,0,0,240.71,162.49Z" fill="#231f20"/><circle cx="240.71" cy="170.09" r="2.56" fill="#fff"/><path d="M240.71,173.17a3.08,3.08,0,1,1,3.08-3.08A3.08,3.08,0,0,1,240.71,173.17Zm0-5.13a2.05,2.05,0,1,0,2,2.05A2,2,0,0,0,240.71,168Z" fill="#231f20"/><ellipse cx="199.13" cy="75.51" rx="0.45" ry="0.99" fill="#231f20"/><ellipse cx="206.05" cy="75.51" rx="0.45" ry="0.99" fill="#231f20"/><text transform="translate(179.45 197.54)" font-size="28.88" font-family="Avenir-Heavy, Avenir" font-weight="800">x20</text><circle cx="253.36" cy="61.11" r="4.98" fill="#fff"/><circle cx="253.36" cy="76.42" r="4.98" fill="#fff"/><circle cx="253.36" cy="91.72" r="4.98" fill="#fff"/><path d="M152.16,56.94h-9a.5.5,0,0,1-.5-.5.5.5,0,0,1,.5-.5h9a.5.5,0,0,1,.5.5A.51.51,0,0,1,152.16,56.94Z" fill="#fff"/><path d="M145.12,60.32a.5.5,0,0,1-.37-.17l-3-3.28a.5.5,0,0,1,0-.66l3-3.54a.48.48,0,0,1,.7-.06.49.49,0,0,1,.06.7l-2.72,3.21,2.71,3a.5.5,0,0,1,0,.7A.51.51,0,0,1,145.12,60.32Z" fill="#fff"/><rect x="153.38" y="208.57" width="95.73" height="18.77" rx="8.34" fill="#fff"/><text transform="translate(186.41 221.34)" font-size="12" fill="#d1d3d4" font-family="Avenir-Heavy, Avenir" font-weight="800">Start</text><path d="M90,200.73a10.56,10.56,0,0,0-1.21-5.68c-.76-1.27-1.92-2.27-2.55-3.61-1.08-2.3-.32-5-.58-7.56A9.39,9.39,0,0,0,83,178.25c-1.33-1.34-3-2.26-4.3-3.66-2.08-2.29-2.68-5.52-3.86-8.38a20.88,20.88,0,0,0-8.3-9.77c2.27,4.56-2.89,10.35-.55,14.87.74,1.43,2.15,2.47,2.7,4C70,179,65.59,182.93,67,186.57c.69,1.81,2.64,2.86,3.54,4.58,1.22,2.33.26,5.14.36,7.76.14,3.61,2.34,6.85,5,9.35,1.63,1.56,3.44,2.91,5.2,4.32,2.1,1.68,3,3.45,4.84.75A23.29,23.29,0,0,0,90,200.73Z" fill="#231f20"/><path d="M92.3,202.8c-.68-2.8-1.16-5.83,0-8.47,1.28-3,4.5-5.1,4.88-8.32.24-2.12-.83-4.26-.41-6.35s2.13-3.51,3.54-5a21.17,21.17,0,0,0,5.45-12.93,32.28,32.28,0,0,1,5.2,8.6c1.11,3.18,1.13,6.92-.76,9.7a8.85,8.85,0,0,0-1.31,2.15c-.64,2.06,1.13,4,2,5.94a6.82,6.82,0,0,1-.65,7c-1.84,2.3-5.41,3.2-6.32,6a14.09,14.09,0,0,0-.31,3.19,9.38,9.38,0,0,1-6.73,8c-2.19.52-2.14-.34-2.54-2.18C93.84,207.65,92.89,205.26,92.3,202.8Z" fill="#231f20"/><path d="M85.34,182.69c-1.55-5.38-2.18-11-3.81-16.34a89.28,89.28,0,0,0-5.09-12.18L83.11,157c2.14.9,4.45,2,5.45,4,1.76,3.63-1.39,8.29.45,11.89.65,1.25,1.82,2.16,2.64,3.31,2,2.76,1.66,6.54.58,9.75-.46,1.37-2.48,8.5-4.28,6.52-.73-.79-.79-3.74-1.09-4.83C86.39,186,85.82,184.36,85.34,182.69Z" fill="#231f20"/><path d="M89.05,254c-1.32-8.78-5.48-39.72-5.52-40l1-.13c0,.31,4.2,31.25,5.52,40Z" fill="#231f20"/><path d="M90.47,262.35h-1c.08-11.11,4.6-50.44,6.91-53l.74.68C95.13,212.23,90.55,250.39,90.47,262.35Z" fill="#231f20"/><path d="M92.73,260.36l-1-.05c1-22.48-3.78-69.7-3.83-70.17l1-.1C89,190.51,93.72,237.8,92.73,260.36Z" fill="#231f20"/><path d="M77.56,232.89h24.81L100.63,258a8.28,8.28,0,0,1-8.26,7.72h-4.8A8.29,8.29,0,0,1,79.3,258Z" fill="#fff"/><path d="M92.37,266.24h-4.8a8.83,8.83,0,0,1-8.78-8.2l-1.74-25.11a.5.5,0,0,1,.14-.39.47.47,0,0,1,.37-.16h24.81a.51.51,0,0,1,.38.16.53.53,0,0,1,.13.39L101.15,258A8.84,8.84,0,0,1,92.37,266.24ZM78.12,233.41,79.81,258a7.8,7.8,0,0,0,7.76,7.23h4.8a7.79,7.79,0,0,0,7.75-7.23l1.7-24.56Z" fill="#231f20"/><path d="M91.66,112.4a.5.5,0,0,1-.5-.5v-9.85a.5.5,0,0,1,.5-.5.5.5,0,0,1,.5.5v9.85A.5.5,0,0,1,91.66,112.4Z" fill="#d1d3d4"/><path d="M65.19,129.3a.5.5,0,0,1-.5-.5V111.9a.5.5,0,0,1,1,0v16.9A.5.5,0,0,1,65.19,129.3Z" fill="#d1d3d4"/><path d="M328.92,64.54H286.5a.5.5,0,1,1,0-1h42.42a.5.5,0,0,1,0,1Z" fill="#d1d3d4"/><path d="M321.69,245.5a2,2,0,0,1-2-2V215.91a12.08,12.08,0,1,0-24.16,0V243.5a2,2,0,0,1-4,0V215.91a16.08,16.08,0,1,1,32.16,0V243.5A2,2,0,0,1,321.69,245.5Z" fill="#231f20"/><path d="M307.61,219.83a29.81,29.81,0,0,0-29.78,29.78,29.47,29.47,0,0,0,6.47,18.52.49.49,0,0,0,.39.19h45.85a.51.51,0,0,0,.39-.19,29.46,29.46,0,0,0,6.46-18.52A29.81,29.81,0,0,0,307.61,219.83Z" fill="#231f20"/><text transform="translate(292.97 252.68)" font-size="12" fill="#fff" font-family="Avenir-Black, Avenir" font-weight="800">5 KG</text><path d="M301.84,64.54a.5.5,0,0,1-.5-.5V54.47a.5.5,0,1,1,1,0V64A.5.5,0,0,1,301.84,64.54Z" fill="#d1d3d4"/><path d="M55.9,111.84a.5.5,0,0,1-.5-.5v-9a.5.5,0,0,1,.5-.5.5.5,0,0,1,.5.5v9A.5.5,0,0,1,55.9,111.84Z" fill="#d1d3d4"/><path d="M310.9,71.11a.5.5,0,0,1-.5-.5V64.23a.5.5,0,0,1,.5-.5.5.5,0,0,1,.5.5v6.38A.51.51,0,0,1,310.9,71.11Z" fill="#d1d3d4"/></g></svg>