<svg xmlns="http://www.w3.org/2000/svg" viewBox="0 0 400 300"><g id="_457_girl_with_egg_flatline" data-name="#457_girl_with_egg_flatline"><ellipse cx="204.75" cy="264.58" rx="49.66" ry="7.93" fill="#e6e7e8"/><path d="M249.15,207.12s10.41-4.29,10.77-3.17,6,17.84,3.18,22.53-4.88-6.38-4.88-6.38l-13.52,3Z" fill="#68e1fd"/><path d="M259.42,203.77c.28,0,.46,0,.5.18.36,1.13,6,17.84,3.18,22.53-.5.82-1,1.16-1.4,1.16-2.08,0-3.48-7.54-3.48-7.54l-13.52,3,4.45-16s8.13-3.35,10.27-3.35m0-1h0c-2.27,0-9.8,3.08-10.65,3.43a1,1,0,0,0-.59.65l-4.44,16a1,1,0,0,0,.24,1,1,1,0,0,0,.72.31l.22,0,12.52-2.79c.66,3.13,2,7.35,4.26,7.35A2.76,2.76,0,0,0,264,227c2.57-4.27-.79-16.34-3-23.16l-.06-.18a1.35,1.35,0,0,0-1.45-.88Z" fill="#231f20"/><path d="M196,88.76s-14.6-13.46-9.51-36.61c4.22-19.16,24.15-31.27,30.28-20.79S207.25,52.45,202.28,62s2.07,18.61,2.07,18.61" fill="#fff"/><path d="M196,89.26a.55.55,0,0,1-.34-.13C195.47,89,180.86,75.2,186,52c3-13.71,13.8-23.59,22-24.89,4-.64,7.27.77,9.14,4,4.4,7.53-1.77,14.9-7.73,22a55.2,55.2,0,0,0-6.69,9.11c-4.76,9.16,1.94,18,2,18.07a.5.5,0,0,1-.78.62c-.08-.1-7.17-9.41-2.12-19.15,1.57-3,4.12-6.07,6.81-9.29,5.75-6.87,11.69-14,7.64-20.89-2.11-3.6-5.58-3.88-8.12-3.48-7.94,1.25-18.31,10.83-21.24,24.13-5,22.58,9.21,36,9.36,36.13a.51.51,0,0,1,0,.71A.54.54,0,0,1,196,89.26Z" fill="#231f20"/><path d="M194.83,81.36S185.91,68,191.06,53.19s14.31-24.57,20.19-19.57-8.95,13.67-12.46,22.85.42,23,.42,23Z" fill="#e6e7e8"/><path d="M222.83,95.18s-6.7-18.7,8.53-36.85c12.61-15,35.88-16.53,36.46-4.4s-18.16,14.3-27,20.48S234,91.86,234,91.86" fill="#fff"/><path d="M222.83,95.68a.52.52,0,0,1-.47-.33c-.07-.19-6.62-19.18,8.62-37.34,9-10.75,23.15-14.52,31.08-11.85,3.86,1.3,6.08,4.05,6.26,7.74.41,8.71-8.47,12.39-17.06,15.94a55.39,55.39,0,0,0-10.14,5c-8.48,5.93-6.61,16.84-6.59,17a.5.5,0,0,1-.4.58.49.49,0,0,1-.58-.4c0-.12-2-11.66,7-18a56.6,56.6,0,0,1,10.34-5.08c8.27-3.42,16.82-7,16.44-15-.2-4.17-3.14-6-5.58-6.85-7.61-2.56-21.25,1.12-30,11.55C216.88,76.36,223.23,94.83,223.3,95a.5.5,0,0,1-.47.67Z" fill="#231f20"/><path d="M225.26,88.1s-1.71-16,9.71-26.71,24.06-15.15,27-8-14.27,8-21.63,14.48S230,88.42,230,88.42Z" fill="#e6e7e8"/><path d="M175.75,180.8c-.19,0-7.23,18.1-7.77,19.16-3.58,7.08-11.73,30.9-12.42,33.09-1.52,4.89,2.13,9.74,5.56,13.55,1.76,2,3.83,4.07,6.47,4.17,3,.11,5.4-2.4,6.87-5,2.38-4.2,18.61-33.69,21-37.32.59-.88,3-3.42,3-4.53,0,0,.13,32.29,17.44,30.78a70.25,70.25,0,0,0,21-5.59c5.09-2.16,12-4.15,14.39-9.6a11.66,11.66,0,0,0-.86-10.86,5.93,5.93,0,0,0-1.36-1.55c-2.07-1.56-20.46,1.76-20.46,1.76s-1.53-19.37-1.54-25Z" fill="#fff"/><path d="M167.79,251.27h-.21c-2.8-.1-4.91-2.19-6.83-4.33-3.69-4.09-7.24-9-5.66-14,.75-2.4,8.9-26.14,12.45-33.17.22-.45,1.78-4.37,3.29-8.17,4.48-11.28,4.47-11.31,4.94-11.27h0l51.41,3.08a.49.49,0,0,1,.47.5c0,5,1.24,21.22,1.49,24.41,4.06-.72,18.28-3.09,20.31-1.57a6.39,6.39,0,0,1,1.48,1.68,12.18,12.18,0,0,1,.89,11.33c-2.16,4.86-7.6,7-12.4,8.94l-2.25.91A69.72,69.72,0,0,1,216,235.22a11.66,11.66,0,0,1-9.25-3.12c-7-6.41-8.38-20.81-8.66-26.13-.38.54-.85,1.13-1.38,1.77a12,12,0,0,0-.79,1c-1.76,2.63-11,19.34-16.58,29.32-2.13,3.83-3.79,6.83-4.44,8C174,247.62,171.51,251.27,167.79,251.27Zm8.25-70c-.54,1.2-2.6,6.39-4.28,10.63s-3.09,7.76-3.33,8.24c-3.53,7-11.64,30.63-12.39,33-1.44,4.59,2,9.18,5.45,13.07,1.78,2,3.71,3.91,6.12,4,3.31.12,5.58-3.27,6.42-4.73.64-1.13,2.3-4.12,4.43-7.95,5.91-10.64,14.84-26.73,16.62-29.39.18-.27.49-.65.85-1.1.73-.88,2.09-2.54,2.09-3.16a.59.59,0,0,1,0-.23h0a.48.48,0,0,1,.43-.27h0a.5.5,0,0,1,.5.5h0c0,.2.18,19.92,8.42,27.45a10.77,10.77,0,0,0,8.47,2.84,69,69,0,0,0,20.88-5.56c.73-.31,1.49-.61,2.28-.93,4.62-1.84,9.86-3.93,11.85-8.41a11.22,11.22,0,0,0-.81-10.39,5.61,5.61,0,0,0-1.25-1.42c-1.38-1-13,.58-20.07,1.85a.52.52,0,0,1-.4-.1.49.49,0,0,1-.19-.35c0-.19-1.45-18.45-1.53-24.58Z" fill="#231f20"/><path d="M232.57,125.67,216.7,109.73l-39.78,13.49s-36.78,27-32.65,50.31,25.37,20.27,25.37,20.27,81.21,1.5,89.09-16.52S232.57,125.67,232.57,125.67Z" fill="#fff"/><path d="M167.42,194.41c-5.63,0-20.28-1.86-23.64-20.8-2.16-12.22,6.91-25.4,14.9-34.3a134.85,134.85,0,0,1,17.95-16.49l.13-.07,39.78-13.49a.5.5,0,0,1,.51.12l15.87,15.94c1.43,1.41,34.2,34,26.27,52.16S173,194.36,169.63,194.3A17.3,17.3,0,0,1,167.42,194.41Zm9.74-70.74c-1.69,1.26-36.35,27.5-32.4,49.77,1.68,9.47,6.36,15.69,13.92,18.49a24.86,24.86,0,0,0,10.89,1.38c.88,0,81.05,1.28,88.71-16.23S232.56,126.36,232.22,126h0L216.57,110.3Z" fill="#231f20"/><path d="M173,162.91h-.09a.51.51,0,0,1-.4-.59l6.68-33.75a.5.5,0,0,1,.59-.39.49.49,0,0,1,.39.58l-6.68,33.76A.5.5,0,0,1,173,162.91Z" fill="#231f20"/><path d="M224.82,169.51h-.1a.51.51,0,0,1-.39-.59L231,135.16a.49.49,0,0,1,.58-.4.51.51,0,0,1,.4.59l-6.68,33.75A.51.51,0,0,1,224.82,169.51Z" fill="#231f20"/><path d="M197,125.23c-32.72-2.79-28.51-18.51-15-43,8.59-15.55,29.09-18,44.09-10.4s18.18,16.88,17.74,41.11C243.41,135.85,225.74,127.67,197,125.23Z" fill="#fff"/><path d="M228.87,129.16a128.83,128.83,0,0,1-16-1.57c-4.76-.65-10.16-1.38-15.93-1.87-13.13-1.11-21-4.42-24-10.1-4.05-7.59.53-18.94,8.66-33.65,8.9-16.1,30.16-18,44.76-10.6s18.46,16.36,18,41.55c-.11,6.46-1.55,10.65-4.51,13.19C237.17,128.37,233.5,129.15,228.87,129.16Zm-20.18-61c-10.45,0-20.78,4.35-26.25,14.26-8,14.43-12.5,25.51-8.66,32.7,2.86,5.36,10.46,8.49,23.22,9.58,5.8.49,11.21,1.23,16,1.87,12.39,1.68,21.35,2.9,26.18-1.25,2.73-2.34,4.06-6.3,4.17-12.44.45-25-3.14-33.36-17.47-40.66A38.24,38.24,0,0,0,208.69,68.19Z" fill="#231f20"/><path d="M231.88,119.53a8,8,0,0,1-3.77,1.43,31.89,31.89,0,0,1-10-.57l-19.52-.86s-9.57-.6-15.32-3.63c-2.4-1.26-4.13-3-4.21-5.21-.1-3.18,1.68-8.58,4.46-14.11A68,68,0,0,1,188.66,88a18.75,18.75,0,0,1,8.83-7.28c9-4.1,21.38-.35,27.26,7.5.18.24.36.49.53.75A29.14,29.14,0,0,1,227.09,92C231.86,101.26,235.25,116.86,231.88,119.53Z" fill="#231f20"/><path d="M225.15,121.67a36.39,36.39,0,0,1-7.14-.79L198.58,120c-.41,0-9.76-.64-15.54-3.69-2.89-1.51-4.39-3.41-4.47-5.63-.1-3.17,1.59-8.53,4.51-14.35a69.45,69.45,0,0,1,5.17-8.69,19.11,19.11,0,0,1,9-7.45c8.94-4.06,21.7-.56,27.86,7.66.18.25.37.51.55.78a28.6,28.6,0,0,1,1.83,3.12,65,65,0,0,1,5.5,16.37c.68,3.6,1.48,9.93-.84,11.77h0a8.47,8.47,0,0,1-4,1.54A20.3,20.3,0,0,1,225.15,121.67ZM205.61,79.51a19.11,19.11,0,0,0-7.91,1.62,18.32,18.32,0,0,0-8.63,7.12,66.72,66.72,0,0,0-5.1,8.56c-2.85,5.67-4.5,10.86-4.4,13.87.06,1.83,1.39,3.44,3.94,4.78,5.59,3,15,3.57,15.12,3.57l19.51.86a32,32,0,0,0,9.89.58,7.46,7.46,0,0,0,3.54-1.33h0c2.85-2.26.13-17.09-4.93-26.9a27.25,27.25,0,0,0-1.78-3c-.17-.25-.34-.5-.51-.73C220.12,82.84,212.65,79.51,205.61,79.51Z" fill="#231f20"/><path d="M228.09,120.88a15.88,15.88,0,0,1-3.85.27c-2.07-.07-4.09-.67-6.12-.76l-19.52-.86a52,52,0,0,1-8.69-1.32c-1.55-.36-5.32-.88-6.38-2.16-.74-.88-.42-2.54-.66-3.64a23.57,23.57,0,0,0-1.3-3.55c-.77-2-1.17-4.49.27-6.06.37-.4.83-.7,1.2-1.09a7.55,7.55,0,0,0,1.58-3.13c1.39-4.33,2.23-8.37,5-12a19.93,19.93,0,0,1,7.82-5.92c9-4.1,21.38-.35,27.26,7.5.18.24.36.49.53.75,1.29,2,1,5.08,1.11,7.31a6.13,6.13,0,0,0,.24,1.76c.59,1.74,2.53,2.68,3.33,4.32,1.36,2.79-1,6.17-.16,9.14a12.75,12.75,0,0,0,1.37,2.64c.75,1.34,1.26,3,.59,4.39A4.93,4.93,0,0,1,228.09,120.88Z" fill="#fff"/><path d="M225,121.62h-.82a26.06,26.06,0,0,1-3.21-.39,23.17,23.17,0,0,0-2.91-.37h0L198.58,120a53.54,53.54,0,0,1-8.78-1.33l-1-.22c-1.95-.39-4.63-.93-5.6-2.09a4.31,4.31,0,0,1-.65-2.63,7.27,7.27,0,0,0-.11-1.22,14.64,14.64,0,0,0-.87-2.48c-.14-.33-.28-.66-.41-1-.62-1.61-1.4-4.6.37-6.53a6.76,6.76,0,0,1,.68-.63,5.93,5.93,0,0,0,.53-.47,7.05,7.05,0,0,0,1.47-3c.24-.76.47-1.51.69-2.26,1.06-3.51,2.05-6.82,4.43-9.86a20.42,20.42,0,0,1,8-6.06c8.93-4.06,21.67-.55,27.81,7.65.19.25.37.5.55.77,1.11,1.7,1.13,4.06,1.15,6.15,0,.49,0,1,0,1.39a6.3,6.3,0,0,0,.22,1.64,6,6,0,0,0,1.63,2.16,8,8,0,0,1,1.68,2.1c.79,1.63.43,3.39.07,5.1a8.66,8.66,0,0,0-.21,4.11,8.69,8.69,0,0,0,.94,1.88c.13.22.27.44.39.67,1,1.8,1.24,3.51.61,4.81a5.27,5.27,0,0,1-4,2.64h0A14.89,14.89,0,0,1,225,121.62Zm3.05-.74h0Zm-29.46-1.8,19.51.86a23.08,23.08,0,0,1,3,.38,23.05,23.05,0,0,0,3.09.37,15.83,15.83,0,0,0,3.75-.25,4.47,4.47,0,0,0,3.35-2.15c.67-1.38-.08-3.08-.58-4-.12-.22-.25-.43-.38-.65a8.48,8.48,0,0,1-1-2.09,9.41,9.41,0,0,1,.19-4.56c.34-1.62.66-3.16,0-4.5a7.06,7.06,0,0,0-1.51-1.86,6.8,6.8,0,0,1-1.84-2.52,7.07,7.07,0,0,1-.27-1.89c0-.45,0-.92,0-1.42,0-2,0-4.18-1-5.66-.17-.25-.34-.49-.52-.72-5.9-7.89-18.13-11.26-26.7-7.37A19.56,19.56,0,0,0,190,86.88c-2.27,2.91-3.24,6.14-4.27,9.56-.23.75-.46,1.51-.7,2.28a8.1,8.1,0,0,1-1.69,3.31,7.43,7.43,0,0,1-.59.53,6.31,6.31,0,0,0-.6.55c-1.43,1.56-.73,4.17-.18,5.58.12.33.26.65.4,1a15.85,15.85,0,0,1,.92,2.64,7.62,7.62,0,0,1,.12,1.38,3.68,3.68,0,0,0,.44,2.07c.77.92,3.47,1.46,5.08,1.79.4.08.77.15,1,.22a52.84,52.84,0,0,0,8.62,1.31Z" fill="#231f20"/><path d="M198.6,119.53a67.75,67.75,0,0,0,19.52.86c.08-4.79.26-16.52.26-16.53,0-1.08-.09-2.17-.11-3.25s.61-2.91.32-3.85c-.45-1.5-2.23-.91-3.48-1.29a9.05,9.05,0,0,1-3.75-2.79c-1.35-1.45-3.08-4.77-4.88-5.56-2-.91-2.69,1.57-4.6,1.93-1.18.22-2.54-.21-3.51.5s-1,2.08-1.51,3.12A5.49,5.49,0,0,1,193.47,95a4.85,4.85,0,0,0-2.75,1.5,4.11,4.11,0,0,0-.54,1.66c-.62,3.67-1.55,8.56-.79,12.23C190.3,114.85,195.55,118,198.6,119.53Z" fill="#fff"/><path d="M211.55,121.2a73.53,73.53,0,0,1-13-1.22.25.25,0,0,1-.12,0c-3.13-1.54-8.5-4.81-9.46-9.43-.72-3.51.05-8,.66-11.65l.13-.75a4.42,4.42,0,0,1,.62-1.84,4.82,4.82,0,0,1,2.74-1.6l.24-.08a5,5,0,0,0,3.13-2.13,6.69,6.69,0,0,0,.42-1.12,3.8,3.8,0,0,1,1.22-2.16,3.85,3.85,0,0,1,2.45-.52,6.21,6.21,0,0,0,1.24-.06,3.69,3.69,0,0,0,1.69-1c.81-.72,1.72-1.52,3.19-.87,1.31.58,2.52,2.28,3.59,3.79a18.53,18.53,0,0,0,1.43,1.88A8.7,8.7,0,0,0,215.24,95a5.28,5.28,0,0,0,1.18.15c1,0,2.21.12,2.61,1.45a6.26,6.26,0,0,1-.12,2.51,8.47,8.47,0,0,0-.19,1.46c0,.45,0,.9.06,1.35,0,.64.06,1.28.06,1.91,0,0-.06,4-.13,8.21l-.13,8.33a.45.45,0,0,1-.41.44A59.69,59.69,0,0,1,211.55,121.2Zm-12.81-2.11a67.8,67.8,0,0,0,18.93.89l.13-7.93c.06-4.22.13-8.15.13-8.19,0-.62,0-1.24-.06-1.86q0-.69-.06-1.38A8.88,8.88,0,0,1,218,99a5.84,5.84,0,0,0,.14-2.09c-.2-.68-.78-.75-1.78-.8A5.48,5.48,0,0,1,215,95.9,9.55,9.55,0,0,1,211,93a22.61,22.61,0,0,1-1.51-2c-1-1.41-2.13-3-3.21-3.49-.89-.39-1.37,0-2.21.72A4.53,4.53,0,0,1,202,89.5a6.76,6.76,0,0,1-1.42.07,2.2,2.2,0,0,0-2.79,2,7.62,7.62,0,0,1-.48,1.28,6,6,0,0,1-3.67,2.58l-.23.08a4.14,4.14,0,0,0-2.27,1.25,3.69,3.69,0,0,0-.47,1.48l-.13.74c-.6,3.56-1.35,8-.66,11.32C190.71,114.54,195.76,117.62,198.74,119.09Z" fill="#231f20"/><path d="M201.55,100.83c-1.06,1.88-2.12,4.11-1.55,4.73,1,1.11,3.88.37,3.88.37" fill="#fff"/><path d="M202,106.68a3.16,3.16,0,0,1-2.35-.78c-.44-.48-.66-1.51,1.49-5.32a.5.5,0,0,1,.68-.19.51.51,0,0,1,.19.69c-2,3.51-1.63,4.14-1.62,4.14.66.73,2.72.4,3.39.23a.5.5,0,1,1,.25,1A9.09,9.09,0,0,1,202,106.68Z" fill="#231f20"/><path d="M202.14,111.19h-.4c-3.79-.24-6.31-3.73-6.41-3.88a.5.5,0,1,1,.81-.58s2.36,3.26,5.66,3.46c2,.12,3.94-.86,5.82-2.91a.5.5,0,1,1,.74.68C206.38,110.1,204.29,111.19,202.14,111.19Z" fill="#231f20"/><path d="M199.09,98.73a.49.49,0,0,1-.44-.26c-.4-.73-1-1.62-1.79-1.65s-1.44.74-1.64,1a.5.5,0,1,1-.83-.56,3.33,3.33,0,0,1,2.52-1.48c1,0,1.86.78,2.62,2.18a.49.49,0,0,1-.2.67A.53.53,0,0,1,199.09,98.73Z" fill="#231f20"/><path d="M209.54,98.73a.5.5,0,0,1-.44-.26c-.39-.73-1-1.62-1.78-1.65s-1.44.74-1.65,1A.5.5,0,0,1,205,98a.51.51,0,0,1-.14-.7,3.33,3.33,0,0,1,2.52-1.48c1,0,1.87.78,2.62,2.18a.49.49,0,0,1-.2.67A.5.5,0,0,1,209.54,98.73Z" fill="#231f20"/><path d="M226.76,156.07a20.12,20.12,0,0,1-1.4,4.63,15.83,15.83,0,0,1-1,1.92,13.93,13.93,0,0,1-1.74,2.29,13.4,13.4,0,0,1-2.72,2.24A16.1,16.1,0,0,1,208.37,169a17.1,17.1,0,0,1-8.07-3.64,13.83,13.83,0,0,1-2.17-2.29h0a13.33,13.33,0,0,1-1.75-3.14,15.84,15.84,0,0,1-.59-1.88,18.49,18.49,0,0,1-.1-7.63,27,27,0,0,1,2.31-6.95c.22-.44.45-.88.69-1.31,3.79-6.87,10.27-12,16.5-10.85s10.61,8.36,11.7,16.23c.07.48.12,1,.16,1.45A26.84,26.84,0,0,1,226.76,156.07Z" fill="#68e1fd"/><path d="M213.44,131.18a10.34,10.34,0,0,1,1.75.15c6.31,1.15,10.61,8.36,11.7,16.23.07.48.12,1,.16,1.45a26.84,26.84,0,0,1-.29,7.06,20.12,20.12,0,0,1-1.4,4.63,15.83,15.83,0,0,1-1,1.92,13.93,13.93,0,0,1-1.74,2.29,13.4,13.4,0,0,1-2.72,2.24,15,15,0,0,1-8.07,2.2,19.52,19.52,0,0,1-3.45-.32,17.1,17.1,0,0,1-8.07-3.64,13.83,13.83,0,0,1-2.17-2.29h0a13.33,13.33,0,0,1-1.75-3.14,15.84,15.84,0,0,1-.59-1.88,18.49,18.49,0,0,1-.1-7.63,27,27,0,0,1,2.31-6.95c.22-.44.45-.88.69-1.31,3.44-6.23,9.08-11,14.75-11m0-1h0c-5.71,0-11.7,4.41-15.63,11.51-.24.44-.48.9-.71,1.37a27.39,27.39,0,0,0-2.39,7.21,19.17,19.17,0,0,0,.11,8,17.35,17.35,0,0,0,.63,2,14.46,14.46,0,0,0,1.85,3.33l.06.08h0a14.48,14.48,0,0,0,2.29,2.41,18.18,18.18,0,0,0,8.54,3.86,19.71,19.71,0,0,0,3.63.34,16.14,16.14,0,0,0,8.6-2.35,14.3,14.3,0,0,0,2.92-2.41,15.55,15.55,0,0,0,1.86-2.44,17.2,17.2,0,0,0,1.07-2,21.05,21.05,0,0,0,1.47-4.86,27.42,27.42,0,0,0,.31-7.33c0-.48-.1-1-.17-1.5-1-7.56-5.31-15.77-12.51-17.07a11.26,11.26,0,0,0-1.93-.17Z" fill="#231f20"/><path d="M227.05,149a4.68,4.68,0,0,0-3.29,2.38,6.31,6.31,0,0,1-1.51,2.43,2.3,2.3,0,0,1-2.64,0,3.5,3.5,0,0,1-1.44-2.22,8.54,8.54,0,0,1-.15-1.68,4,4,0,0,0-.12-1.5c-.45-.92-1.48.4-1.68.82A11.29,11.29,0,0,1,215,151.8a2.87,2.87,0,0,1-4.41-.09c-1.5-1.57-1.23-3.69-1.74-5.64,0-.21-.1-.52-.31-.58s-.47.13-.62.22a3.78,3.78,0,0,0-.87.87,12.23,12.23,0,0,0-1.29,2.52c-.61,1.42-1.69,4-3.7,3.18s-2.2-3.06-2.29-4.79a6.46,6.46,0,0,0-.59-3.07,2.08,2.08,0,0,0-1.18-.93c.22-.44.45-.88.69-1.31a4.35,4.35,0,0,1,2.3,3c.24,1.15.16,2.33.34,3.49.1.65.68,2.75,1.7,2.19.74-.42,1.11-1.67,1.43-2.4a14.87,14.87,0,0,1,1.27-2.52,4.49,4.49,0,0,1,2.05-1.78A1.73,1.73,0,0,1,210,145c.82,1.78.13,4.23,1.63,5.7.58.57,1.47.93,2.12.26s.81-1.81,1.27-2.65a2.92,2.92,0,0,1,1.93-1.58,2,2,0,0,1,2.17.91c.48.89.26,2,.35,3,.06.78.41,2.07,1.42,2.1.85,0,1.17-1.3,1.45-1.89a6.15,6.15,0,0,1,4.52-3.36C227,148,227,148.52,227.05,149Z" fill="#fff"/><path d="M225.36,160.7a15.83,15.83,0,0,1-1,1.92,30.14,30.14,0,0,1-7.14,1.54,33,33,0,0,1-10.71-.91,55.42,55.42,0,0,1-10.12-3.3,15.84,15.84,0,0,1-.59-1.88q1.47.72,3,1.32a55.58,55.58,0,0,0,10.26,2.92,29.35,29.35,0,0,0,9.67.21A28.79,28.79,0,0,0,225.36,160.7Z" fill="#fff"/><path d="M222.61,164.91a13.4,13.4,0,0,1-2.72,2.24,30.93,30.93,0,0,1-3.7.58,33.54,33.54,0,0,1-10.7-.91c-1.75-.41-3.48-.88-5.19-1.43a13.83,13.83,0,0,1-2.17-2.29,55.88,55.88,0,0,0,9.91,2.78,28.61,28.61,0,0,0,14.57-1Z" fill="#fff"/><circle cx="208.09" cy="155.28" r="1.65" fill="#fff"/><circle cx="202.24" cy="157.58" r="1.65" fill="#fff"/><circle cx="212.61" cy="160.36" r="1.65" fill="#fff"/><circle cx="214.14" cy="142.65" r="1.65" fill="#fff"/><circle cx="217.6" cy="157" r="1.65" fill="#fff"/><circle cx="221" cy="138.23" r="1.65" fill="#fff"/><circle cx="211.49" cy="136.51" r="1.65" fill="#fff"/><circle cx="206.65" cy="138.99" r="1.65" fill="#fff"/><circle cx="223.09" cy="158" r="1.65" fill="#fff"/><circle cx="221.63" cy="144" r="1.65" fill="#fff"/><path d="M201.81,151.89a18.9,18.9,0,0,1-.18,7,13.74,13.74,0,0,1-6.1,8.67,16.6,16.6,0,0,1-4.62,2h0a20,20,0,0,1-4.78.71h0a17,17,0,0,1-4.88-.57,13.84,13.84,0,0,1-8.68-6.92,19.18,19.18,0,0,1-2-6.27,25.88,25.88,0,0,1-.26-3.43,28.2,28.2,0,0,1,2.33-11.53,21.62,21.62,0,0,1,2.44-4.24,12.76,12.76,0,0,1,6.69-4.9,9.22,9.22,0,0,1,1.16-.25,9.71,9.71,0,0,1,1.2-.1,13.26,13.26,0,0,1,8.57,3.35,21,21,0,0,1,2.23,2.11,28,28,0,0,1,5.75,9.76A26.73,26.73,0,0,1,201.81,151.89Z" fill="#fff"/><path d="M184.37,132.06a13.39,13.39,0,0,1,8.33,3.35,21,21,0,0,1,2.23,2.11,28,28,0,0,1,5.75,9.76,26.73,26.73,0,0,1,1.13,4.61,18.9,18.9,0,0,1-.18,7,13.74,13.74,0,0,1-6.1,8.67,16.6,16.6,0,0,1-4.62,2h0a20,20,0,0,1-4.78.71h-.47a16.82,16.82,0,0,1-4.41-.57,13.84,13.84,0,0,1-8.68-6.92,19.18,19.18,0,0,1-2-6.27,25.88,25.88,0,0,1-.26-3.43,28.2,28.2,0,0,1,2.33-11.53,21.62,21.62,0,0,1,2.44-4.24,12.76,12.76,0,0,1,6.69-4.9,9.22,9.22,0,0,1,1.16-.25,9.71,9.71,0,0,1,1.2-.1h.24m0-1h-.26a11.75,11.75,0,0,0-1.32.11,12.59,12.59,0,0,0-1.28.27,13.81,13.81,0,0,0-7.23,5.27,23,23,0,0,0-2.56,4.44,29.32,29.32,0,0,0-2.41,11.95,25.91,25.91,0,0,0,.28,3.56,20.08,20.08,0,0,0,2.1,6.59,14.77,14.77,0,0,0,9.29,7.41,17.56,17.56,0,0,0,4.68.61h.51a23.85,23.85,0,0,0,2.51-.22,22.07,22.07,0,0,0,2.47-.52h0a17.65,17.65,0,0,0,4.9-2.15,14.74,14.74,0,0,0,6.53-9.29,19.69,19.69,0,0,0,.2-7.34,26.57,26.57,0,0,0-1.18-4.79,29.21,29.21,0,0,0-6-10.11,21.83,21.83,0,0,0-2.34-2.2,14.31,14.31,0,0,0-9-3.58Z" fill="#231f20"/><path d="M175.06,147.75c-.42,3.24-2.43,5.65-4.5,5.38l-.25,0a28.2,28.2,0,0,1,2.33-11.53C174.38,142.22,175.43,144.82,175.06,147.75Z" fill="#68e1fd"/><ellipse cx="179.07" cy="154.76" rx="3.78" ry="5.91" transform="translate(-20.71 27.86) rotate(-8.41)" fill="#68e1fd"/><path d="M181.77,132.41a8.84,8.84,0,0,1-.48,1.29c-1.36,3-4,4.66-5.91,3.78a2.28,2.28,0,0,1-.3-.17A12.76,12.76,0,0,1,181.77,132.41Z" fill="#68e1fd"/><path d="M192.7,135.41c-1.45,1.32-4.37.83-6.73-1.19a8.75,8.75,0,0,1-1.84-2.16A13.26,13.26,0,0,1,192.7,135.41Z" fill="#68e1fd"/><ellipse cx="193.77" cy="153.75" rx="3.78" ry="5.91" transform="translate(-20.41 30) rotate(-8.41)" fill="#68e1fd"/><ellipse cx="184.56" cy="143.16" rx="3.78" ry="5.91" transform="translate(-18.96 28.54) rotate(-8.41)" fill="#68e1fd"/><path d="M191.59,164.86a7.61,7.61,0,0,1-.68,4.7h0a20,20,0,0,1-4.78.71h0a7.55,7.55,0,0,1-2-4.3c-.48-3.23.81-6.1,2.88-6.41S191.11,161.63,191.59,164.86Z" fill="#68e1fd"/><path d="M181.25,169.7a13.84,13.84,0,0,1-8.68-6.92,2.65,2.65,0,0,1,.38-.37c1.65-1.28,4.61-.23,6.61,2.35A7.24,7.24,0,0,1,181.25,169.7Z" fill="#68e1fd"/><path d="M201.63,158.86a13.74,13.74,0,0,1-6.1,8.67,7.38,7.38,0,0,1,.93-5C197.77,160.14,199.9,158.7,201.63,158.86Z" fill="#68e1fd"/><path d="M200.68,147.28c-1.71.14-3.81-1.21-5.17-3.48s-1.56-4.86-.58-6.28A28,28,0,0,1,200.68,147.28Z" fill="#68e1fd"/><path d="M241,169.17a1.09,1.09,0,0,1-1.09-1.09v-18c0-18.57-16.64-33.67-37.09-33.67s-37.08,15.1-37.08,33.67v18a1.09,1.09,0,1,1-2.18,0v-18c0-19.77,17.61-35.85,39.26-35.85s39.27,16.08,39.27,35.85v18A1.09,1.09,0,0,1,241,169.17Z" fill="#fff"/><path d="M241,169.67a1.59,1.59,0,0,1-1.59-1.59v-18c0-18.29-16.41-33.17-36.59-33.17s-36.58,14.88-36.58,33.17v18a1.59,1.59,0,1,1-3.18,0v-18c0-20,17.84-36.35,39.76-36.35s39.77,16.3,39.77,36.35v18A1.59,1.59,0,0,1,241,169.67ZM202.83,116c20.73,0,37.59,15.33,37.59,34.17v18a.59.59,0,0,0,.59.59.6.6,0,0,0,.59-.59v-18c0-19.49-17.39-35.35-38.77-35.35s-38.76,15.86-38.76,35.35v18a.59.59,0,0,0,.59.59.6.6,0,0,0,.59-.59v-18C165.25,131.29,182.11,116,202.83,116Z" fill="#231f20"/><path d="M236.42,169.91c-.41.6-.82,1.16-1.25,1.68a17.22,17.22,0,0,1-3.62,3.37c-5.34,3.68-11.73,3.1-17.18-.56-4.45-3-7.24-7.36-7.34-12.32a14.74,14.74,0,0,1,.67-4.65,19.79,19.79,0,0,1,2.51-5.14,26.43,26.43,0,0,1,2.63-3.28,28.56,28.56,0,0,1,2.33-2.2A28.08,28.08,0,0,1,221,143a25,25,0,0,1,3-1.21c4.26-1.39,8.53-1.35,11.77.83,3,2,4.62,5.51,5.11,9.55a22.74,22.74,0,0,1,.14,3.22,28.59,28.59,0,0,1-2.07,9.77A26,26,0,0,1,236.42,169.91Z" fill="#68e1fd"/><path d="M229.49,140.84a11.08,11.08,0,0,1,6.26,1.77c3,2,4.62,5.51,5.11,9.55a22.74,22.74,0,0,1,.14,3.22,28.59,28.59,0,0,1-2.07,9.77,26,26,0,0,1-2.51,4.76c-.41.6-.82,1.16-1.25,1.68a17.22,17.22,0,0,1-3.62,3.37,13.7,13.7,0,0,1-7.87,2.49,16.78,16.78,0,0,1-9.31-3c-4.45-3-7.24-7.36-7.34-12.32a14.74,14.74,0,0,1,.67-4.65,19.79,19.79,0,0,1,2.51-5.14,26.43,26.43,0,0,1,2.63-3.28,28.56,28.56,0,0,1,2.33-2.2A28.08,28.08,0,0,1,221,143a25,25,0,0,1,3-1.21,17.87,17.87,0,0,1,5.51-.94m0-1h0a18.73,18.73,0,0,0-5.83,1,25.51,25.51,0,0,0-3.1,1.26,29.3,29.3,0,0,0-6,4,27.38,27.38,0,0,0-2.41,2.28,28,28,0,0,0-2.73,3.4,20.59,20.59,0,0,0-2.63,5.41,15.81,15.81,0,0,0-.72,5c.11,5.16,2.87,9.83,7.78,13.13a17.79,17.79,0,0,0,9.87,3.22,14.71,14.71,0,0,0,8.44-2.66,19,19,0,0,0,3.82-3.56c.45-.55.89-1.14,1.31-1.76a27.36,27.36,0,0,0,2.61-4.95,28.57,28.57,0,0,0,1.1-3.23,28.06,28.06,0,0,0,1-6.89,23.29,23.29,0,0,0-.15-3.36c-.56-4.65-2.47-8.19-5.54-10.26a12,12,0,0,0-6.81-1.94Z" fill="#231f20"/><path d="M241,155.38a30.44,30.44,0,0,1-19.21-11.33c-.26-.34-.53-.69-.78-1.06a25,25,0,0,1,3-1.21c.41.52.83,1,1.2,1.43A27.45,27.45,0,0,0,236.47,151a26.35,26.35,0,0,0,4.39,1.19A22.74,22.74,0,0,1,241,155.38Z" fill="#fff"/><path d="M235.17,171.59a17.22,17.22,0,0,1-3.62,3.37,30.51,30.51,0,0,1-18.25-6.48,33.64,33.64,0,0,1-6.27-6.4,14.74,14.74,0,0,1,.67-4.65c.56.93,1.17,1.83,1.81,2.69a28.9,28.9,0,0,0,15.31,10.74A26.83,26.83,0,0,0,235.17,171.59Z" fill="#fff"/><path d="M238.93,165.15a29.28,29.28,0,0,1-17.46-6.52,39.86,39.86,0,0,1-8.13-8.87l-.5-.75a28.56,28.56,0,0,1,2.33-2.2,39.48,39.48,0,0,0,2.5,3.53c4.2,5.3,9.8,9.52,16.45,11.07A23.2,23.2,0,0,0,240,162,26.8,26.8,0,0,1,238.93,165.15Z" fill="#fff"/><path d="M221.57,147a1.45,1.45,0,0,0-1.62,2.4A1.45,1.45,0,0,0,221.57,147Z" fill="#fff"/><path d="M228.29,152.37a1.45,1.45,0,0,0-1.61,2.41A1.45,1.45,0,0,0,228.29,152.37Z" fill="#fff"/><path d="M236.13,156.39a1.45,1.45,0,0,0-1.62,2.41A1.45,1.45,0,0,0,236.13,156.39Z" fill="#fff"/><path d="M213.51,156.55a1.45,1.45,0,0,0-1.61,2.4A1.45,1.45,0,0,0,213.51,156.55Z" fill="#fff"/><path d="M221.5,163.53l-.07-.05a1.45,1.45,0,0,0-1.62,2.4l.08.06A1.45,1.45,0,0,0,221.5,163.53Z" fill="#fff"/><path d="M231.63,168.38a1.06,1.06,0,0,0,0-.56,1,1,0,0,0-.22-.5,1.05,1.05,0,0,0-.39-.42l-.35-.17a1.43,1.43,0,0,0-.74,0l-.35.12a1.5,1.5,0,0,0-.57.49l-.08.13a1.06,1.06,0,0,0-.21.53,1,1,0,0,0,0,.55,1.06,1.06,0,0,0,.22.51,1.12,1.12,0,0,0,.39.42l.35.17a1.55,1.55,0,0,0,.74.05l.35-.12a1.44,1.44,0,0,0,.57-.5l.08-.12A1.06,1.06,0,0,0,231.63,168.38Z" fill="#fff"/><path d="M231.25,142.39a1.45,1.45,0,0,0-1.62,2.4A1.45,1.45,0,0,0,231.25,142.39Z" fill="#fff"/><path d="M236.75,145.91a1.45,1.45,0,0,0-1.62,2.4A1.45,1.45,0,0,0,236.75,145.91Z" fill="#fff"/><path d="M214.63,158.24c.07.67.1,1.32.11,1.95a18.27,18.27,0,0,1-.38,4,14.86,14.86,0,0,1-1.52,4.12c-2.43,4.36-7,6.9-12.33,7.44a21.08,21.08,0,0,1-2.74.09,17,17,0,0,1-4.67-.84,14.63,14.63,0,0,1-3.12-1.48,14.12,14.12,0,0,1-2.58-2.13,14.65,14.65,0,0,1-1.58-2,15.57,15.57,0,0,1-1.51-3.06,19.26,19.26,0,0,1-1-4.12c0-.27-.07-.54-.1-.81a25.44,25.44,0,0,1-.11-3.39,30.28,30.28,0,0,1,.55-4.64h0a28.79,28.79,0,0,1,1.58-5.18c2.34-5.64,6.43-10,11.47-10.53a11.08,11.08,0,0,1,6.5,1.48,16.75,16.75,0,0,1,3.18,2.3,21.58,21.58,0,0,1,2.43,2.6,26.59,26.59,0,0,1,1.94,2.79,29.51,29.51,0,0,1,3,7,25.91,25.91,0,0,1,.66,3C214.52,157.28,214.58,157.76,214.63,158.24Z" fill="#68e1fd"/><path d="M197.68,137.59a11.43,11.43,0,0,1,5.52,1.53,16.75,16.75,0,0,1,3.18,2.3,21.58,21.58,0,0,1,2.43,2.6,26.59,26.59,0,0,1,1.94,2.79,29.51,29.51,0,0,1,3,7,25.91,25.91,0,0,1,.66,3c.08.48.14,1,.19,1.44.07.67.1,1.32.11,1.95a18.27,18.27,0,0,1-.38,4,14.86,14.86,0,0,1-1.52,4.12c-2.43,4.36-7,6.9-12.33,7.44a19.08,19.08,0,0,1-2,.1h-.75a17,17,0,0,1-4.67-.84,14.63,14.63,0,0,1-3.12-1.48,14.12,14.12,0,0,1-2.58-2.13,14.65,14.65,0,0,1-1.58-2,15.57,15.57,0,0,1-1.51-3.06,19.26,19.26,0,0,1-1-4.12c0-.27-.07-.54-.1-.81a25.44,25.44,0,0,1-.11-3.39,30.28,30.28,0,0,1,.55-4.64h0a28.79,28.79,0,0,1,1.58-5.18c2.34-5.64,6.43-10,11.47-10.53.33,0,.65,0,1,0m0-1a9.77,9.77,0,0,0-1.08.06c-5,.5-9.61,4.66-12.29,11.14a28.74,28.74,0,0,0-1.64,5.36v0a29.09,29.09,0,0,0-.56,4.78,24.18,24.18,0,0,0,.11,3.52c0,.29.06.57.1.85a20.31,20.31,0,0,0,1.05,4.33,16.68,16.68,0,0,0,1.61,3.25,14.4,14.4,0,0,0,1.7,2.17,13.84,13.84,0,0,0,2.77,2.29,15.24,15.24,0,0,0,3.33,1.59,17.78,17.78,0,0,0,4.95.89h.79c.69,0,1.39,0,2.09-.1,5.92-.6,10.58-3.42,13.1-7.95a15.77,15.77,0,0,0,1.63-4.4,19.35,19.35,0,0,0,.4-4.23c0-.67-.05-1.36-.12-2-.05-.51-.11-1-.19-1.5a30,30,0,0,0-.69-3.11,29.6,29.6,0,0,0-3.14-7.24,26.45,26.45,0,0,0-2-2.89,22.11,22.11,0,0,0-2.54-2.72,18.22,18.22,0,0,0-3.36-2.44,12.41,12.41,0,0,0-6-1.65Z" fill="#231f20"/><path d="M206.38,141.42c-8,3-15.95,6.72-22.73,11.93a28.79,28.79,0,0,1,1.58-5.18,93.11,93.11,0,0,1,18-9A16.75,16.75,0,0,1,206.38,141.42Z" fill="#fff"/><path d="M210.75,146.81c-9.86,3.63-19.68,8.25-27.44,15.38,0-.27-.07-.54-.1-.81a25.44,25.44,0,0,1-.11-3.39l1-.8c7.38-5.91,15.92-9.88,24.72-13.17A26.59,26.59,0,0,1,210.75,146.81Z" fill="#fff"/><path d="M213.78,153.8c-10,3.66-20.06,8.32-28,15.57a15.57,15.57,0,0,1-1.51-3.06c.75-.67,1.52-1.32,2.3-1.94,7.76-6.21,16.8-10.29,26.09-13.67A28.42,28.42,0,0,1,213.78,153.8Z" fill="#fff"/><path d="M214.63,158.24c.07.67.1,1.32.11,1.95-8.8,3.27-17.53,7.36-24.76,13.34a14.12,14.12,0,0,1-2.58-2.13c.42-.36.85-.71,1.28-1.05,7.67-6.14,16.59-10.19,25.76-13.55C214.52,157.28,214.58,157.76,214.63,158.24Z" fill="#fff"/><path d="M214.36,164.2a14.86,14.86,0,0,1-1.52,4.12,91,91,0,0,0-15.07,7.53,17,17,0,0,1-4.67-.84A92.74,92.74,0,0,1,214.36,164.2Z" fill="#fff"/><path d="M195.26,160.64a19.73,19.73,0,0,1,.82,4.77,17.34,17.34,0,0,1-.05,2.17,15.12,15.12,0,0,1-.53,2.82,13.73,13.73,0,0,1-1.43,3.22,16.15,16.15,0,0,1-9.47,6.83,17.28,17.28,0,0,1-8.85.35,13.48,13.48,0,0,1-3-1.09h0a13.61,13.61,0,0,1-3-2,14.19,14.19,0,0,1-1.37-1.42,18.4,18.4,0,0,1-3.5-6.78,27,27,0,0,1-1-7.25c0-.49,0-1,0-1.48.33-7.84,3.84-15.3,9.92-17.08s13.23,2.73,17.72,9.29c.27.4.54.81.79,1.22A26.86,26.86,0,0,1,195.26,160.64Z" fill="#68e1fd"/><path d="M176.68,143.28c5.4,0,11.08,4.1,14.9,9.68.27.4.54.81.79,1.22a26.86,26.86,0,0,1,2.89,6.46,19.73,19.73,0,0,1,.82,4.77,17.34,17.34,0,0,1-.05,2.17,15.12,15.12,0,0,1-.53,2.82,13.73,13.73,0,0,1-1.43,3.22,16.15,16.15,0,0,1-9.47,6.83,18.74,18.74,0,0,1-5.21.77,15.63,15.63,0,0,1-3.64-.42,13.48,13.48,0,0,1-3-1.09h0a13.61,13.61,0,0,1-3-2,14.19,14.19,0,0,1-1.37-1.42,18.4,18.4,0,0,1-3.5-6.78,27,27,0,0,1-1-7.25c0-.49,0-1,0-1.48.33-7.84,3.84-15.3,9.92-17.08a10,10,0,0,1,2.82-.39m0-1h0a11.05,11.05,0,0,0-3.1.43c-6.91,2-10.32,10.49-10.64,18,0,.5,0,1,0,1.53a27.54,27.54,0,0,0,1.07,7.52,19.41,19.41,0,0,0,3.7,7.15,14.91,14.91,0,0,0,1.46,1.51,14.33,14.33,0,0,0,3.15,2.16l.08,0a14.73,14.73,0,0,0,3.14,1.15,16.4,16.4,0,0,0,3.87.45,19.63,19.63,0,0,0,5.49-.81,17,17,0,0,0,10-7.27,14.33,14.33,0,0,0,1.54-3.46,15.66,15.66,0,0,0,.57-3,17.59,17.59,0,0,0,.05-2.3,21.24,21.24,0,0,0-.86-5,27.15,27.15,0,0,0-3-6.7c-.25-.41-.52-.84-.82-1.26-4.27-6.25-10.3-10.12-15.72-10.12Z" fill="#231f20"/><path d="M192.37,154.18a4.67,4.67,0,0,0-1.88,3.61,6.37,6.37,0,0,1-.27,2.85,2.27,2.27,0,0,1-2.35,1.18,3.45,3.45,0,0,1-2.28-1.33,8.6,8.6,0,0,1-.89-1.44,3.84,3.84,0,0,0-.78-1.29c-.81-.62-1.14,1-1.13,1.49a11.56,11.56,0,0,1,.05,2.82,2.88,2.88,0,0,1-4,1.89c-2-.73-2.75-2.76-4.08-4.27-.14-.16-.32-.42-.54-.38s-.36.32-.45.47a3.75,3.75,0,0,0-.39,1.17,12.18,12.18,0,0,0,0,2.83c.09,1.55.25,4.29-1.88,4.5s-3.34-1.76-4.2-3.26a6.3,6.3,0,0,0-1.9-2.48,2,2,0,0,0-1.46-.31c0-.49,0-1,0-1.48a4.31,4.31,0,0,1,3.4,1.67c.74.92,1.2,2,1.87,3,.38.54,1.84,2.15,2.5,1.19.47-.7.25-2,.21-2.78a14.76,14.76,0,0,1,0-2.82,4.42,4.42,0,0,1,1-2.51,1.74,1.74,0,0,1,2.41-.22c1.53,1.21,2,3.71,4,4.36.78.25,1.73.18,2-.72s-.07-2,0-2.93a2.89,2.89,0,0,1,1-2.27,1.93,1.93,0,0,1,2.34-.16c.83.59,1.16,1.72,1.67,2.55.41.67,1.3,1.67,2.21,1.25s.47-1.68.46-2.34a6,6,0,0,1,.55-2.59,6.22,6.22,0,0,1,2-2.44C191.85,153.36,192.12,153.77,192.37,154.18Z" fill="#fff"/><path d="M196.08,165.41a17.34,17.34,0,0,1-.05,2.17,30.52,30.52,0,0,1-5.7,4.56,33.19,33.19,0,0,1-10,4,55.9,55.9,0,0,1-10.53,1.57,14.19,14.19,0,0,1-1.37-1.42c1.1,0,2.19-.06,3.28-.16a55.67,55.67,0,0,0,10.48-2A29.46,29.46,0,0,0,191,170,29.09,29.09,0,0,0,196.08,165.41Z" fill="#fff"/><path d="M195.5,170.4a13.73,13.73,0,0,1-1.43,3.22,30.73,30.73,0,0,1-3.06,2.16,33.48,33.48,0,0,1-10,4c-1.74.41-3.5.77-5.28,1a13.48,13.48,0,0,1-3-1.09,55.1,55.1,0,0,0,10.1-1.94,29.27,29.27,0,0,0,8.75-4.13A28.43,28.43,0,0,0,195.5,170.4Z" fill="#fff"/><circle cx="178.2" cy="168.27" r="1.65" fill="#fff"/><circle cx="174.01" cy="172.94" r="1.65" fill="#fff"/><circle cx="184.52" cy="170.8" r="1.65" fill="#fff"/><circle cx="177.98" cy="154.26" r="1.65" fill="#fff"/><circle cx="187.48" cy="165.57" r="1.65" fill="#fff"/><circle cx="182.14" cy="147.25" r="1.65" fill="#fff"/><circle cx="172.86" cy="149.96" r="1.65" fill="#fff"/><circle cx="169.64" cy="154.34" r="1.65" fill="#fff"/><circle cx="192.84" cy="164" r="1.65" fill="#fff"/><circle cx="185.28" cy="152.13" r="1.65" fill="#fff"/><path d="M229.26,173.72a18.65,18.65,0,0,1-3.17,6.2,13.7,13.7,0,0,1-9.24,5.19,16.56,16.56,0,0,1-5-.16h0a20.57,20.57,0,0,1-2.35-.57,21.2,21.2,0,0,1-2.27-.85h0a17.4,17.4,0,0,1-4.15-2.62,13.79,13.79,0,0,1-4.84-10,18.8,18.8,0,0,1,.9-6.51,25.6,25.6,0,0,1,1.24-3.21,28.08,28.08,0,0,1,7.08-9.4,21.77,21.77,0,0,1,4-2.77,12.85,12.85,0,0,1,8.16-1.54,11.33,11.33,0,0,1,1.15.28,8.92,8.92,0,0,1,1.12.43,13.28,13.28,0,0,1,6.29,6.72,23.36,23.36,0,0,1,1.1,2.87,28,28,0,0,1,1,11.28A24.94,24.94,0,0,1,229.26,173.72Z" fill="#68e1fd"/><path d="M217.78,147.33a11.09,11.09,0,0,1,1.82.16,11.33,11.33,0,0,1,1.15.28,8.92,8.92,0,0,1,1.12.43,13.28,13.28,0,0,1,6.29,6.72,23.36,23.36,0,0,1,1.1,2.87,28,28,0,0,1,1,11.28,24.94,24.94,0,0,1-1,4.65,18.65,18.65,0,0,1-3.17,6.2,13.7,13.7,0,0,1-9.24,5.19,15.71,15.71,0,0,1-1.95.12,17.35,17.35,0,0,1-3.1-.28h0a20.57,20.57,0,0,1-2.35-.57,21.2,21.2,0,0,1-2.27-.85h0a17.4,17.4,0,0,1-4.15-2.62,13.79,13.79,0,0,1-4.84-10,18.8,18.8,0,0,1,.9-6.51,25.6,25.6,0,0,1,1.24-3.21,28.08,28.08,0,0,1,7.08-9.4,21.77,21.77,0,0,1,4-2.77,13.85,13.85,0,0,1,6.34-1.7m0-1h0a14.64,14.64,0,0,0-6.8,1.82,22.32,22.32,0,0,0-4.22,2.89,29.41,29.41,0,0,0-7.34,9.74,26.17,26.17,0,0,0-1.28,3.33,20,20,0,0,0-.95,6.86,14.78,14.78,0,0,0,5.18,10.69,18,18,0,0,0,4.4,2.78h0a22.24,22.24,0,0,0,2.37.88,19.44,19.44,0,0,0,2.45.6h0a19.28,19.28,0,0,0,3.27.29,17.87,17.87,0,0,0,2.08-.12,14.77,14.77,0,0,0,9.89-5.56,19.8,19.8,0,0,0,3.35-6.54,26.68,26.68,0,0,0,1-4.83,29.3,29.3,0,0,0-1-11.69,23.51,23.51,0,0,0-1.16-3,14.19,14.19,0,0,0-6.78-7.21,9.63,9.63,0,0,0-1.24-.47,9.78,9.78,0,0,0-1.27-.31,10.91,10.91,0,0,0-2-.18Z" fill="#231f20"/><path d="M206.92,158.44c-1.77,2.74-4.63,4-6.39,2.91l-.2-.15a28.08,28.08,0,0,1,7.08-9.4C208.69,153.15,208.52,156,206.92,158.44Z" fill="#fff"/><ellipse cx="207.51" cy="166.49" rx="5.91" ry="3.78" transform="translate(-12.77 315.67) rotate(-72.85)" fill="#fff"/><path d="M219.6,147.49a9,9,0,0,1-1,1c-2.52,2.08-5.63,2.47-7,.86a2,2,0,0,1-.2-.28A12.85,12.85,0,0,1,219.6,147.49Z" fill="#fff"/><path d="M228.16,154.92c-1.88.57-4.31-1.14-5.56-4a8.73,8.73,0,0,1-.73-2.74A13.28,13.28,0,0,1,228.16,154.92Z" fill="#fff"/><ellipse cx="221.21" cy="171.92" rx="5.91" ry="3.78" transform="translate(-8.31 332.59) rotate(-72.85)" fill="#fff"/><ellipse cx="217.47" cy="158.39" rx="5.91" ry="3.78" transform="translate(1.99 319.48) rotate(-72.85)" fill="#fff"/><path d="M214.45,181A7.54,7.54,0,0,1,211.8,185h0a20.57,20.57,0,0,1-2.35-.57,21.2,21.2,0,0,1-2.27-.85h0a7.63,7.63,0,0,1,0-4.75c1-3.12,3.36-5.15,5.36-4.54S215.41,177.89,214.45,181Z" fill="#fff"/><path d="M203,180.91a13.79,13.79,0,0,1-4.84-10,3,3,0,0,1,.5-.17c2-.44,4.26,1.79,4.95,5A7.27,7.27,0,0,1,203,180.91Z" fill="#fff"/><path d="M226.09,179.92a13.7,13.7,0,0,1-9.24,5.19,7.36,7.36,0,0,1,3-4.12C222.06,179.42,224.6,179,226.09,179.92Z" fill="#fff"/><path d="M230.23,169.07c-1.6-.61-2.91-2.74-3.16-5.37s.69-5.06,2.19-5.91A28,28,0,0,1,230.23,169.07Z" fill="#fff"/><path d="M163.52,170.12c0,.3,4.95,15,7.35,19.5s7.65,5.84,13.79,6.29,44.35,2.8,49.84-4.7c2.88-3.94,8.34-25.13,8.34-25.13s-18.62,10.56-36.58,9.59S163.52,170.12,163.52,170.12Z" fill="#fff"/><path d="M204.15,197.12c-9.34,0-17.6-.57-19.52-.71-5.51-.4-11.5-1.49-14.2-6.56-2.27-4.26-7.41-19.14-7.41-19.73a.51.51,0,0,1,.18-.38.48.48,0,0,1,.41-.11c.25.05,24.95,4.58,42.67,5.54s36.13-9.42,36.31-9.53a.5.5,0,0,1,.74.56c-.23.87-5.52,21.34-8.42,25.3C231.56,196.07,216.86,197.12,204.15,197.12Zm-39.92-26.36c1,3.08,5.05,14.81,7.08,18.62s6,5.49,13.39,6c16.25,1.18,45,1.58,49.4-4.51,2.42-3.3,6.8-19.45,8-23.85-4.16,2.16-20.32,10-35.84,9.11C190.24,175.31,168.62,171.55,164.23,170.76Z" fill="#231f20"/><path d="M152.88,167.87a3,3,0,0,0,0,3l9.89-3s-3-2.78-4.65-2.54S152.88,167.87,152.88,167.87Z" fill="#231f20"/><path d="M152.88,171.34a.51.51,0,0,1-.44-.25,3.49,3.49,0,0,1,0-3.48.54.54,0,0,1,.15-.15c.15-.1,3.7-2.38,5.45-2.63s4.74,2.38,5.06,2.68a.5.5,0,0,1,.15.48.5.5,0,0,1-.34.36l-9.9,3Zm.37-3.11a2.5,2.5,0,0,0-.11,2l8.62-2.58c-1.14-.93-2.73-2-3.57-1.84C157,166,154.31,167.56,153.25,168.23Z" fill="#231f20"/><path d="M227.1,170.72c-11.09,2.3-37,1.35-37,1.35s-3.3-2.1-4.5-1.8-8.24-.15-11.54-.9-8.32-2.75-9.08-4.06a8.34,8.34,0,0,1-1-3,7.59,7.59,0,0,0-2.65.9c-.75.6-1.05,1.8-3.15,2.1s-3.89.3-5.24,2.54c0,0,4.94-1.19,6,0s1.95,6.45,3.6,7.35,3.6-1.5,4.35-1.2,8.4,6,14,6,17.24-3.3,19.19-2.4,10.94,5.25,14.09,4.5,10.2-5.1,13.35-5.1,10.64.9,12.29-.75,3.15-6.15,3.15-6.15a7.93,7.93,0,0,0,3.75-1.5c1.8-1.35,3.75-1.79,2.4-2.54s-5-2.4-5-2.4,1.8-1.05.9-2.1-4.43-1.88-4.43-1.88S239.85,168.08,227.1,170.72Z" fill="#fff"/><path d="M213.2,182.71c-3.13,0-8.82-2.47-13-4.42l-.45-.21c-.88-.42-4.95.34-8.55,1a68.16,68.16,0,0,1-10.43,1.43c-4.68,0-10.62-3.81-13.16-5.43a10.92,10.92,0,0,0-1-.6,6.3,6.3,0,0,0-.87.47c-.95.59-2.26,1.39-3.53.7s-1.86-2.7-2.56-4.7a11.77,11.77,0,0,0-1.17-2.76c-.58-.66-3.63-.29-5.51.16a.5.5,0,0,1-.52-.19.48.48,0,0,1,0-.55c1.33-2.23,3.1-2.46,5-2.7l.62-.09a3.11,3.11,0,0,0,2.28-1.33,4.36,4.36,0,0,1,.63-.66,7.51,7.51,0,0,1,2.88-1,.47.47,0,0,1,.38.1.46.46,0,0,1,.19.34,7.91,7.91,0,0,0,1,2.78c.58,1,5.16,3,8.75,3.83,3.27.74,10.24,1.17,11.31.9,1.27-.31,4,1.3,4.77,1.79,2,.07,26.29.83,36.79-1.35,12.2-2.53,13-10.25,13-10.57a.53.53,0,0,1,.2-.37.54.54,0,0,1,.41-.08c.38.09,3.72.9,4.7,2a1.42,1.42,0,0,1,.35,1.18,2.1,2.1,0,0,1-.67,1.14c1.13.53,3.25,1.52,4.23,2.07a1.17,1.17,0,0,1,.71.92c0,.6-.59.95-1.5,1.47a17.12,17.12,0,0,0-1.55,1,8.61,8.61,0,0,1-3.68,1.56c-.37,1-1.68,4.57-3.16,6-1.32,1.32-5.27,1.23-9.91,1-1.09-.05-2-.1-2.74-.1-1.74,0-5,1.51-7.8,2.85a36.06,36.06,0,0,1-5.43,2.24A4.74,4.74,0,0,1,213.2,182.71ZM198.85,177a3.26,3.26,0,0,1,1.32.2l.45.21c7,3.26,11.47,4.69,13.32,4.25a35.19,35.19,0,0,0,5.24-2.17c3.07-1.44,6.26-2.94,8.22-2.94.74,0,1.69,0,2.79.1,3.2.17,8,.41,9.15-.7,1.55-1.55,3-5.91,3-5.95a.48.48,0,0,1,.43-.34,7.67,7.67,0,0,0,3.49-1.41,17.44,17.44,0,0,1,1.65-1.05,7.48,7.48,0,0,0,.92-.59l-.11-.07c-1.32-.73-4.88-2.36-4.92-2.38a.49.49,0,0,1,0-.88c.26-.16.83-.61.9-1a.43.43,0,0,0-.13-.36c-.5-.59-2.32-1.23-3.64-1.58-.4,2-2.55,8.58-13.72,10.89l-.1-.49.1.49c-11,2.29-36.9,1.37-37.16,1.36a.59.59,0,0,1-.25-.07c-1.29-.83-3.42-1.92-4.11-1.74-1.31.32-8.46-.14-11.77-.9s-8.52-2.78-9.4-4.3a8.91,8.91,0,0,1-1-2.64,5.44,5.44,0,0,0-1.92.7,3.44,3.44,0,0,0-.49.51,4.09,4.09,0,0,1-2.91,1.69l-.63.09a5.64,5.64,0,0,0-3.44,1.2c1.68-.3,4.26-.55,5.13.44a11,11,0,0,1,1.37,3.08c.57,1.65,1.28,3.71,2.09,4.15s1.7-.16,2.53-.67,1.24-.76,1.77-.55a9.89,9.89,0,0,1,1.14.69c2.46,1.57,8.23,5.27,12.62,5.27A67.65,67.65,0,0,0,191,178.1,53.94,53.94,0,0,1,198.85,177Z" fill="#231f20"/><path d="M236,174.51a3.74,3.74,0,0,0-2.27-.3,1.63,1.63,0,0,0-1.28,1.69,2,2,0,0,0,.57,1,6.92,6.92,0,0,0,3.66,2.1,12.74,12.74,0,0,0-5.66-1.18c-1.18,0-2.7.68-2.47,1.83a2,2,0,0,0,.72,1,8.33,8.33,0,0,0,4.71,2,7.17,7.17,0,0,0-3.2-1,2.17,2.17,0,0,0-.87,4.24,7.23,7.23,0,0,0,3,.33c-1.43-.21-3.21-.27-4,1-.91,1.47.53,3.35,2.12,4a7.85,7.85,0,0,0,9.44-2.87A9.16,9.16,0,0,0,236,174.51Z" fill="#fff"/><path d="M233.92,192.24a7.68,7.68,0,0,1-3.06-.62,4.7,4.7,0,0,1-2.57-2.69,2.42,2.42,0,0,1,.23-2.06,2.37,2.37,0,0,1,.76-.78,2.84,2.84,0,0,1-1.51-2.68,2.6,2.6,0,0,1,1.61-2l-.46-.37a2.4,2.4,0,0,1-.88-1.29,1.59,1.59,0,0,1,.32-1.34,3.64,3.64,0,0,1,2.61-1.09,15.56,15.56,0,0,1,1.81.08l-.16-.16a2.57,2.57,0,0,1-.69-1.25,2.11,2.11,0,0,1,1.64-2.26,4.23,4.23,0,0,1,2.58.32h0a10,10,0,0,1,6,6.17,9.74,9.74,0,0,1-1.21,8.34A8.41,8.41,0,0,1,233.92,192.24Zm-3.15-5.64a1.86,1.86,0,0,0-1.41.79,1.44,1.44,0,0,0-.12,1.24,3.73,3.73,0,0,0,2,2.08,7.36,7.36,0,0,0,8.82-2.68,8.75,8.75,0,0,0,1.1-7.5,9.05,9.05,0,0,0-5.4-5.56,3.19,3.19,0,0,0-2-.28c-.5.13-1,.63-.91,1.13a1.61,1.61,0,0,0,.45.75,6.31,6.31,0,0,0,1.6,1.27,13.92,13.92,0,0,1,1.9.7.5.5,0,0,1,.26.61.49.49,0,0,1-.57.33,7.26,7.26,0,0,1-2-.71,11.69,11.69,0,0,0-3.58-.45,2.65,2.65,0,0,0-1.86.71.59.59,0,0,0-.13.52,1.52,1.52,0,0,0,.56.73,7.16,7.16,0,0,0,1.16.82h.05a7.75,7.75,0,0,1,3.4,1.08.5.5,0,0,1-.27.94,8.9,8.9,0,0,1-3.41-1,1.89,1.89,0,0,0-1.74,1.41,2,2,0,0,0,1.31,1.85,3.51,3.51,0,0,0,.72.21,8.85,8.85,0,0,1,2.2.08.5.5,0,0,1-.05,1A10.6,10.6,0,0,1,230.77,186.6Z" fill="#231f20"/><path d="M166.37,190a3.76,3.76,0,0,0,2.2-.64,1.64,1.64,0,0,0,.48-2.07,2.13,2.13,0,0,0-.93-.68,6.85,6.85,0,0,0-4.19-.44,12.71,12.71,0,0,0,5.66-1.21c1.06-.5,2.19-1.72,1.51-2.67a2.06,2.06,0,0,0-1.07-.64,8.45,8.45,0,0,0-5.1.11,7.1,7.1,0,0,0,3.34-.36,2.16,2.16,0,0,0-.92-4.22,7.2,7.2,0,0,0-2.91.93c1.4-.39,3.05-1.06,3.25-2.49.25-1.71-1.84-2.85-3.57-2.84a7.87,7.87,0,0,0-7.47,6.44A9.16,9.16,0,0,0,166.37,190Z" fill="#fff"/><path d="M165.93,190.46a10,10,0,0,1-7.5-3.24,9.69,9.69,0,0,1-2.27-8.12,8.39,8.39,0,0,1,8-6.87,4.9,4.9,0,0,1,3.44,1.43,2.38,2.38,0,0,1,.62,2,2.29,2.29,0,0,1-.38,1,2.85,2.85,0,0,1,2.47,1.85,2.64,2.64,0,0,1-.67,2.48l.57.15a2.38,2.38,0,0,1,1.33.82,1.56,1.56,0,0,1,.24,1.36,3.62,3.62,0,0,1-1.94,2.05,13.23,13.23,0,0,1-1.68.65l.2.09a2.6,2.6,0,0,1,1.15.87,2.14,2.14,0,0,1-.59,2.73,4.29,4.29,0,0,1-2.49.75h-.46Zm.44-.51h0Zm-2.22-16.72h0a7.36,7.36,0,0,0-7,6,8.7,8.7,0,0,0,2,7.3,9,9,0,0,0,7.18,2.9h0a3.22,3.22,0,0,0,1.91-.53,1.16,1.16,0,0,0,.38-1.4,1.67,1.67,0,0,0-.72-.51,6.22,6.22,0,0,0-2-.51,13.69,13.69,0,0,1-2,.12.5.5,0,0,1-.09-1,7.25,7.25,0,0,1,2.08-.13,12.58,12.58,0,0,0,3.46-1,2.64,2.64,0,0,0,1.41-1.41.57.57,0,0,0-.09-.52,1.5,1.5,0,0,0-.81-.45,7.29,7.29,0,0,0-1.39-.28h0a7.61,7.61,0,0,1-3.58.4.5.5,0,0,1-.13-1,8.93,8.93,0,0,1,3.52-.46,1.88,1.88,0,0,0,1-2,2,2,0,0,0-1.95-1.16,4.86,4.86,0,0,0-.74.1,8.46,8.46,0,0,1-2,.82.5.5,0,0,1-.6-.31.49.49,0,0,1,.24-.62,11.27,11.27,0,0,1,2-.82,1.86,1.86,0,0,0,1-1.29,1.44,1.44,0,0,0-.39-1.19A3.72,3.72,0,0,0,164.15,173.23Z" fill="#231f20"/><path d="M158.36,235.89l-6.88,11.25s-10.33-3.91-18.53-1.3c0,0,26.12,18,27.41,18.72S172,244,172,244,167.32,235.85,158.36,235.89Z" fill="#68e1fd"/><path d="M160.43,265.08a.65.65,0,0,1-.31-.08c-1.3-.71-26.39-18-27.46-18.74a.5.5,0,0,1,.13-.89c7.48-2.38,16.48.46,18.47,1.16l6.67-10.9a.54.54,0,0,1,.48-.24c9.11,0,14,8.27,14.05,8.35a.52.52,0,0,1,0,.47c-2.32,4.74-10,20.25-11.83,20.83A.6.6,0,0,1,160.43,265.08ZM134.1,246c8.9,6.13,24.38,16.76,26.34,18,1.32-1,6.56-10.9,11-20-.82-1.26-5.25-7.51-12.82-7.63l-6.74,11a.5.5,0,0,1-.6.21C151.2,247.57,141.87,244.09,134.1,246Z" fill="#231f20"/><path d="M215.9,105.19A9.18,9.18,0,0,1,220,99.9c1.21-.71,2.84-1.11,4-.29a3.66,3.66,0,0,1,1.24,2.11,9.28,9.28,0,0,1-8.39,11.64,2.08,2.08,0,0,1-2-.72" fill="#fff"/><path d="M216.53,113.86a2.27,2.27,0,0,1-2.13-1,.5.5,0,0,1,.86-.5c.27.48,1.08.5,1.54.47a8.79,8.79,0,0,0,7.94-11,3.18,3.18,0,0,0-1.05-1.83c-1-.7-2.4-.3-3.42.31a8.64,8.64,0,0,0-3.89,5,.5.5,0,0,1-1-.28,9.72,9.72,0,0,1,4.34-5.58c1.68-1,3.37-1.09,4.51-.26a4.06,4.06,0,0,1,1.43,2.38,9.78,9.78,0,0,1-8.84,12.26Z" fill="#231f20"/><path d="M230.18,222.7h0a.5.5,0,0,1-.47-.52c.17-3.1-1.47-13.12-1.48-13.22a.5.5,0,1,1,1-.16c.07.41,1.67,10.22,1.5,13.43A.5.5,0,0,1,230.18,222.7Z" fill="#231f20"/><path d="M161,264.58c2-2.22-4.58-7.77-14.06-13.81s-11.75-6.78-14-4.93C128.4,249.55,145,260.5,151,263.5S159.06,266.8,161,264.58Z" fill="#231f20"/><path d="M158.11,266.53c-1.73,0-4-.91-7.32-2.58-5.22-2.61-18.56-11.25-19.1-16.18a2.47,2.47,0,0,1,.94-2.31c2.53-2.07,5-1.25,14.61,4.89,6.42,4.09,14.16,9.65,14.62,13a1.92,1.92,0,0,1-.45,1.6h0A4.2,4.2,0,0,1,158.11,266.53Zm-22.84-21.09a3,3,0,0,0-2,.79,1.49,1.49,0,0,0-.58,1.43c.47,4.27,13.22,12.72,18.55,15.39,6.26,3.13,7.78,3.05,9.43,1.2h0a.92.92,0,0,0,.21-.8c-.32-2.25-5.48-6.72-14.16-12.26C140.06,247,137.11,245.44,135.27,245.44Z" fill="#231f20"/></g></svg>