<svg xmlns="http://www.w3.org/2000/svg" viewBox="0 0 400 300"><g id="_214_global_warming_flatline" data-name="#214_global_warming_flatline"><path d="M302.83,138.73c0,1,0,2,0,3-.35,15.2-3.47,30.49-12.08,43.18-8.22,12.12-19.48,22.79-23.77,37.18-.94,3.13-1.56,6.33-3,9.28-.74,1.52-1.87,4.81-3.47,5.41a3,3,0,0,1-3.67-1.52c-.43-1-.46-2.28-1.43-2.71-1.25-.55-2.33,1-2.78,2.35l-2,5.81c-.19.57-.45,1.2-1,1.4a1.67,1.67,0,0,1-1.42-.3c-1.74-1.12-2.46-3.27-3.63-5s-3.62-3.07-5.25-1.78a4.27,4.27,0,0,0-1.16,1.74c-2,4.7-2.41,9.92-3.61,14.89-1,4.22-3.56,7.11-8.08,7.35a7,7,0,0,1-2.84-.29,5.62,5.62,0,0,1-2.9-2.84,16.4,16.4,0,0,1-1.19-4c-1-4.87-1.14-14.45-6.45-16.88-3.15-1.44-6.81.41-9.5,2.59a45.2,45.2,0,0,0-14.29,21.76c-1.73,5.8-1.19,15.09-10.19,14.83-3.54-.11-6.46-2.92-8.22-6-2.16-3.77-3.12-8.09-4.06-12.33q-1.93-8.74-3.86-17.5a10.74,10.74,0,0,0-1.6-4.25,3.69,3.69,0,0,0-4-1.53,3.9,3.9,0,0,0-1.78,1.46c-1.4,1.92-1.74,4.39-2,6.76-.44,4.58-2.46,11.39-8.4,11.2-5-.17-7.73-6.59-9.32-10.46-2.68-6.54-5-13.82-7.75-20.68a77,77,0,0,0-4.9-10.21c-4-6.89-10.16-12.75-14.29-19.87a102.83,102.83,0,0,1-10.22-24.32,105.87,105.87,0,0,1-3-15.2L95.55,150a103.94,103.94,0,0,1-.62-11.3q0-3.93.29-7.79c0-.07,0-.14,0-.21q.19-2.56.51-5.1s0-.1,0-.14c.12-.86.24-1.73.37-2.59q.23-1.52.51-3c.12-.7.26-1.39.4-2.09.35-1.69.73-3.37,1.16-5q.72-2.84,1.62-5.6.3-1,.63-1.92a100.75,100.75,0,0,1,4.73-11.56c.36-.76.74-1.51,1.12-2.26l.19-.35q1.33-2.59,2.82-5.1c.19-.34.39-.67.59-1l.44-.7c.31-.52.64-1,1-1.55.08-.15.18-.29.28-.44q1.48-2.31,3.11-4.53c.27-.38.54-.75.82-1.12a101.32,101.32,0,0,1,7.61-9.06,3.58,3.58,0,0,1,.27-.29c.23-.25.46-.49.7-.73s.72-.75,1.09-1.12c.52-.53,1-1,1.58-1.55.31-.31.62-.61.94-.89s.76-.72,1.15-1.07l.29-.26c.56-.52,1.13-1,1.71-1.52s1.25-1.08,1.89-1.6l0,0,1.81-1.45.31-.25c.49-.38,1-.76,1.48-1.13l.72-.54c.43-.32.86-.64,1.3-.94s1.12-.81,1.69-1.19.89-.62,1.34-.91,1.06-.7,1.6-1,1-.66,1.54-1l.84-.52,1.16-.68c.37-.22.74-.44,1.11-.64l.83-.47,1.4-.77.81-.42c.57-.3,1.15-.6,1.73-.88s1.43-.71,2.16-1.05l.06,0a104,104,0,0,1,105.18,9.91q.39.27.78.57l1.22.91a101.49,101.49,0,0,1,8.08,6.85l.67.62c.6.57,1.19,1.15,1.78,1.74s1.17,1.18,1.74,1.78,1.14,1.21,1.7,1.82l1,1.13c.23.25.44.5.66.75.53.61,1,1.23,1.57,1.85l.09.11c.48.58.94,1.16,1.41,1.75l.19.24c.39.5.79,1,1.17,1.53l.4.53c.46.61.9,1.22,1.34,1.84s.72,1,1.07,1.53c.18.25.35.51.52.76.85,1.27,1.68,2.57,2.48,3.88s1.57,2.64,2.31,4c.28.5.55,1,.82,1.52s.56,1.07.83,1.62.55,1.07.8,1.62c.1.18.18.36.27.55.23.48.46,1,.68,1.44.12.27.25.55.37.83.29.63.56,1.26.83,1.89a1.47,1.47,0,0,0,.06.14c.28.67.56,1.35.82,2,.06.13.12.27.17.41.29.73.57,1.48.84,2.22.21.58.42,1.15.61,1.73.13.33.24.67.35,1a100.47,100.47,0,0,1,2.82,10.14q.19.81.36,1.62c.12.57.23,1.14.33,1.72a1.55,1.55,0,0,1,.06.31c.1.5.2,1,.28,1.52s.19,1.16.28,1.74a2.51,2.51,0,0,1,0,.27c.1.62.19,1.25.27,1.87,0,.32.09.65.12,1,.1.74.18,1.47.25,2.21s.12,1.17.16,1.76.09,1,.12,1.48q.07,1,.12,2c0,.62.06,1.23.08,1.85l0,1C302.82,137.08,302.83,137.91,302.83,138.73Z" fill="#fff"/><path d="M198.88,34.78a103.4,103.4,0,0,1,61,19.76q.39.27.78.57l1.22.91a101.49,101.49,0,0,1,8.08,6.85l.67.62c.6.57,1.19,1.15,1.78,1.74s1.17,1.18,1.74,1.78,1.14,1.21,1.7,1.82l1,1.13c.23.25.44.5.66.75.53.61,1,1.23,1.57,1.85l.09.11c.48.58.94,1.16,1.41,1.75l.19.24c.39.5.79,1,1.17,1.53l.4.53c.46.61.9,1.22,1.34,1.84s.72,1,1.07,1.53c.18.25.35.51.52.76.85,1.27,1.68,2.57,2.48,3.88s1.57,2.64,2.31,4c.28.5.55,1,.82,1.52s.56,1.07.83,1.62.55,1.07.8,1.62c.1.18.18.36.27.55.23.48.46,1,.68,1.44.12.27.25.55.37.83.29.63.56,1.26.83,1.89a1.47,1.47,0,0,0,.06.14c.28.67.56,1.35.82,2,.06.13.12.27.17.41.29.73.57,1.48.84,2.22.21.58.42,1.15.61,1.73.13.33.24.67.35,1a100.47,100.47,0,0,1,2.82,10.14q.19.81.36,1.62c.12.57.23,1.14.33,1.72a1.55,1.55,0,0,1,.06.31c.1.5.2,1,.28,1.52s.19,1.16.28,1.74a2.51,2.51,0,0,1,0,.27c.1.62.19,1.25.27,1.87,0,.32.09.65.12,1,.1.74.18,1.47.25,2.21s.12,1.17.16,1.76.09,1,.12,1.48q.07,1,.12,2c0,.62.06,1.23.08,1.85l0,1c0,.81,0,1.64,0,2.46,0,1,0,2,0,3-.35,15.2-3.47,30.49-12.08,43.18-8.22,12.12-19.48,22.79-23.77,37.18-.94,3.13-1.56,6.33-3,9.28-.74,1.52-1.87,4.81-3.47,5.41a2.74,2.74,0,0,1-.94.17,3,3,0,0,1-2.73-1.69c-.43-1-.46-2.28-1.43-2.71a1.34,1.34,0,0,0-.51-.11c-1,0-1.88,1.34-2.27,2.46l-2,5.81c-.19.57-.45,1.2-1,1.4a.94.94,0,0,1-.37.07,2,2,0,0,1-1-.37c-1.74-1.12-2.46-3.27-3.63-5a5.07,5.07,0,0,0-3.76-2.29,2.34,2.34,0,0,0-1.49.51,4.27,4.27,0,0,0-1.16,1.74c-2,4.7-2.41,9.92-3.61,14.89-1,4.22-3.56,7.11-8.08,7.35-.25,0-.51,0-.76,0a6.08,6.08,0,0,1-2.08-.32,5.62,5.62,0,0,1-2.9-2.84,16.4,16.4,0,0,1-1.19-4c-1-4.87-1.14-14.45-6.45-16.88a5.67,5.67,0,0,0-2.4-.51c-2.5,0-5.08,1.45-7.1,3.1a45.2,45.2,0,0,0-14.29,21.76c-1.71,5.72-1.21,14.83-9.83,14.83h-.36c-3.54-.11-6.46-2.92-8.22-6-2.16-3.77-3.12-8.09-4.06-12.33q-1.93-8.74-3.86-17.5a10.74,10.74,0,0,0-1.6-4.25,4.05,4.05,0,0,0-3.07-1.69,2.57,2.57,0,0,0-.91.16,3.9,3.9,0,0,0-1.78,1.46c-1.4,1.92-1.74,4.39-2,6.76-.44,4.51-2.41,11.2-8.16,11.2h-.24c-5-.17-7.73-6.59-9.32-10.46-2.68-6.54-5-13.82-7.75-20.68a77,77,0,0,0-4.9-10.21c-4-6.89-10.16-12.75-14.29-19.87a102.83,102.83,0,0,1-10.22-24.32,105.87,105.87,0,0,1-3-15.2L95.55,150a103.94,103.94,0,0,1-.62-11.3q0-3.93.29-7.79c0-.07,0-.14,0-.21q.19-2.56.51-5.1s0-.1,0-.14c.12-.86.24-1.73.37-2.59q.23-1.52.51-3c.12-.7.26-1.39.4-2.09.35-1.69.73-3.37,1.16-5q.72-2.84,1.62-5.6.3-1,.63-1.92a100.75,100.75,0,0,1,4.73-11.56c.36-.76.74-1.51,1.12-2.26l.19-.35q1.33-2.59,2.82-5.1c.19-.34.39-.67.59-1l.44-.7c.31-.52.64-1,1-1.55.08-.15.18-.29.28-.44q1.48-2.31,3.11-4.53c.27-.38.54-.75.82-1.12a101.32,101.32,0,0,1,7.61-9.06,3.58,3.58,0,0,1,.27-.29c.23-.25.46-.49.7-.73s.72-.75,1.09-1.12c.52-.53,1-1,1.58-1.55.31-.31.62-.61.94-.89s.76-.72,1.15-1.07l.29-.26c.56-.52,1.13-1,1.71-1.52s1.25-1.08,1.89-1.6l0,0,1.81-1.45.31-.25c.49-.38,1-.76,1.48-1.13l.72-.54c.43-.32.86-.64,1.3-.94s1.12-.81,1.69-1.19.89-.62,1.34-.91,1.06-.7,1.6-1,1-.66,1.54-1l.84-.52,1.16-.68c.37-.22.74-.44,1.11-.64l.83-.47,1.4-.77.81-.42c.57-.3,1.15-.6,1.73-.88s1.43-.71,2.16-1.05l.06,0a103.44,103.44,0,0,1,44.21-9.85m0-.92a103.86,103.86,0,0,0-44.6,9.94l-.08,0c-.71.33-1.45.69-2.17,1s-1.26.63-1.74.89l-.24.12-.56.3-.58.31-.85.47-.33.18-.52.3c-.35.19-.72.41-1.1.64s-.79.45-1.18.69l-.86.53c-.53.31-1,.64-1.55,1s-1.08.67-1.61,1c-.38.24-.81.54-1.35.92s-1,.7-1.7,1.2c-.44.29-.88.62-1.31.94-.24.17-.49.36-.74.56-.48.36-1,.74-1.47,1.13a2,2,0,0,0-.34.27c-.61.47-1.2.95-1.8,1.44l-.07.06c-.69.57-1.36,1.14-1.87,1.59s-1.1,1-1.71,1.52c-.12.09-.23.2-.34.3-.36.33-.75.68-1.14,1.06-.26.23-.56.51-.95.9s-1.06,1-1.59,1.56c-.37.37-.73.74-1.1,1.13l-.71.74c-.09.09-.19.19-.28.3a103.28,103.28,0,0,0-7.66,9.12c-.28.37-.55.75-.83,1.14-1.11,1.51-2.16,3.05-3.13,4.56l0,.08a4.25,4.25,0,0,0-.25.39c-.4.62-.7,1.1-1,1.55-.13.21-.29.45-.43.69s-.42.68-.61,1c-1,1.66-1.94,3.39-2.84,5.13l-.19.36c-.38.75-.77,1.51-1.13,2.28a101.26,101.26,0,0,0-4.77,11.66c-.22.64-.43,1.29-.64,1.93-.59,1.83-1.14,3.74-1.63,5.65-.4,1.54-.78,3.2-1.17,5.07l0,.2q-.19,1-.36,1.92c-.19,1-.37,2-.52,3.05l-.33,2.32,0,.26s0,.08,0,.12a.09.09,0,0,0,0,.05c-.21,1.7-.38,3.43-.51,5.15a.15.15,0,0,0,0,.07c0,.07,0,.12,0,.17-.19,2.61-.29,5.25-.29,7.83a104.1,104.1,0,0,0,.63,11.4l.07.66.08.66a106.17,106.17,0,0,0,3,15.34,103.71,103.71,0,0,0,10.31,24.54,87.48,87.48,0,0,0,7.37,10.28,85,85,0,0,1,6.92,9.59,75.35,75.35,0,0,1,4.84,10.09c1.38,3.4,2.66,7,3.89,10.39s2.51,7,3.86,10.29c1.56,3.79,4.45,10.84,10.14,11h.27c1.85,0,8-.87,9.07-12,.21-2.24.53-4.57,1.79-6.3a3,3,0,0,1,1.35-1.14,1.74,1.74,0,0,1,.61-.1,3.08,3.08,0,0,1,2.33,1.31,9.9,9.9,0,0,1,1.44,3.9q1.92,8.75,3.86,17.5c1,4.28,1.93,8.69,4.16,12.59,1.09,1.89,4.13,6.3,9,6.45h.39c7.58,0,8.83-6.47,9.84-11.67.27-1.38.52-2.67.86-3.82a44.09,44.09,0,0,1,14-21.31c2.31-1.87,4.62-2.9,6.53-2.9a4.88,4.88,0,0,1,2,.43c3.77,1.72,4.64,7.8,5.35,12.68.19,1.3.36,2.53.58,3.56a16.92,16.92,0,0,0,1.28,4.18,6.41,6.41,0,0,0,3.39,3.29,6.64,6.64,0,0,0,2.4.38l.81,0c4.62-.26,7.7-3,8.92-8.06.4-1.67.72-3.38,1-5a45.86,45.86,0,0,1,2.54-9.7,3.59,3.59,0,0,1,.89-1.39,1.44,1.44,0,0,1,.92-.31,4.15,4.15,0,0,1,3,1.9,16.93,16.93,0,0,1,1,1.58,9.6,9.6,0,0,0,2.94,3.65,2.88,2.88,0,0,0,1.55.51,1.91,1.91,0,0,0,.68-.12,2.91,2.91,0,0,0,1.57-2l1.15-3.33.86-2.49c.37-1.08,1-1.84,1.4-1.84a.43.43,0,0,1,.14,0c.27.12.42.55.61,1.2a7.68,7.68,0,0,0,.36,1.05,4,4,0,0,0,3.56,2.22,3.56,3.56,0,0,0,1.26-.22c1.66-.62,2.69-3,3.52-4.86.16-.38.31-.72.45-1a37.67,37.67,0,0,0,2.33-6.85c.23-.85.47-1.73.72-2.58,3-9.95,9.47-18.28,15.75-26.33,2.68-3.43,5.44-7,7.9-10.6,7.72-11.37,11.83-26.06,12.24-43.67,0-.92,0-1.9,0-3.06,0-.83,0-1.67,0-2.49V136l0-.77c0-.63,0-1.25-.08-1.88s-.07-1.36-.12-2c0-.5-.07-1-.12-1.51s-.1-1.1-.16-1.67V128c-.07-.81-.15-1.54-.25-2.24,0-.19-.05-.43-.08-.66l0-.3c-.08-.63-.17-1.27-.27-1.9,0-.07,0-.18,0-.29-.09-.58-.18-1.15-.28-1.73s-.18-1-.28-1.5a2.53,2.53,0,0,0-.07-.38c-.1-.57-.21-1.14-.33-1.7s-.23-1.1-.37-1.65a99,99,0,0,0-2.84-10.21c-.1-.33-.22-.68-.35-1s-.35-1-.53-1.5l-.08-.23c-.33-.9-.6-1.61-.85-2.25,0-.13-.11-.28-.18-.43-.27-.71-.57-1.42-.82-2l0-.07,0-.1c-.27-.63-.54-1.26-.83-1.89-.07-.17-.16-.35-.24-.53l-.13-.29c-.22-.49-.45-1-.68-1.45l-.06-.13a4.78,4.78,0,0,0-.23-.45c-.23-.52-.5-1.06-.81-1.64-.2-.42-.43-.85-.65-1.29l-.17-.32c-.28-.53-.55-1-.84-1.55-.74-1.35-1.52-2.7-2.32-4s-1.66-2.65-2.5-3.91l-.15-.22-.39-.57c-.34-.5-.71-1-1.07-1.53-.53-.74-.95-1.31-1.35-1.85l-.41-.54c-.34-.47-.72-.95-1.09-1.42l-.08-.11-.11-.14-.07-.09-.15-.19c-.43-.54-.85-1.07-1.29-1.6l-.06-.06,0,0c-.53-.62-1.05-1.25-1.58-1.86l-.22-.25c-.15-.17-.3-.35-.46-.52-.29-.33-.6-.69-.91-1l-.08-.09c-.57-.62-1.15-1.24-1.72-1.84s-1.16-1.2-1.76-1.8l-1.79-1.76-.69-.63a103,103,0,0,0-8.14-6.9l-1.23-.92c-.26-.2-.53-.4-.8-.58a104,104,0,0,0-61.49-19.93Z" fill="#231f20"/><path d="M276.82,70a4,4,0,0,1-2.39.15l1.39-1.27q-2.82-3.12-5.9-6c0,1.42.86,2.67,2.35,3.74-2.2.12-3.91-1.19-5.83-1.77a63.65,63.65,0,0,0-6.95-1.3L263,66a19.9,19.9,0,0,1-2,.62c-.64-1.39-1.48-.26-2.23-.3-1.69-.1-3.56,1.9-4.85-.17a11.37,11.37,0,0,0-1.79.39,18.76,18.76,0,0,0-4.52,2.12c-1.57,1.26-2.06,1.4-3.27-.45l1.6-.55,0-.64-3.23-.7a10.94,10.94,0,0,0-.14,2.31,4.61,4.61,0,0,0,.65,1.37,24.46,24.46,0,0,0-2.83.43,26.08,26.08,0,0,0-2.61,1.09l.78,1.61-4.31-.7-.16.4,1.66,1.08c-2.47.74-4-.55-4-3.07l-2.11-1.14a5.4,5.4,0,0,1,2.23.27c2.33.52,4.69,1.1,7-.07,1.18-.6,1.12-1.45,0-2A24.73,24.73,0,0,0,234.44,66c-2.63-.75-5.32-1.27-8-1.89l.44-.69a27.5,27.5,0,0,0-3.77-.8,6.6,6.6,0,0,0-2.21.72c.22-.46.36-.76.66-1.42-1.26.6-2.27,1.51-3,1.34-1.67-.38-3,.92-4.67.58-1-.19-2.28,1.27-3,1.73a11.65,11.65,0,0,0-2.32.52,13.71,13.71,0,0,0-2,1.53L209.1,67c-1.19,1.48-2.47,3.22-3.91,4.81-1,1.1-2.06,2.52-3.35,2.87a12.12,12.12,0,0,0-4.73,2.7,2.78,2.78,0,0,0-.72,2.09,14.49,14.49,0,0,0,.91,3.22,2.39,2.39,0,0,0,3,1.33c1-.51,2.34-1.76,3-1.47.93.43,1.38,1.93,2,3a5.32,5.32,0,0,1,.35.67c.6,1.22.52,4.11,2.82,1.13,1.86.4,1.87-1.12,2-2.16a2.93,2.93,0,0,1,1.64-2.5c1.27-.74,1.27-1.87.18-2.65-1.44-1-1.6-2-.37-3.3.66-.7,1.65-1.08,2.37-1.74s1.12-1.54,1.83-2.11a8.39,8.39,0,0,1,2.8-1.58c.59-.16,1.37.39,2.23.67-1.7,1.34-3,2.33-4.23,3.34-.7.57-1.53,4-.89,4.35a9,9,0,0,0,3.87,1.26c1.2.07,2.43-.6,3.66-.77a5.35,5.35,0,0,1,1.79.37l0,.75c-1.07.1-2.15.19-3.22.3a19.21,19.21,0,0,0-2.53.3c-1.15.25-1.3,1-.5,1.76,1.05,1,.72,1.64-.14,2.4-2.17-1.77-2.64-1.59-3.16,1.15a10.29,10.29,0,0,0,0,1.92c-.88.37-2,1.25-2.51,1-2.27-1.09-3.78.93-5.79,1.08-.61-1.58-1.75-.61-2.79-.59a3.28,3.28,0,0,1-1.86-.88c-.28-.25-.47-1.1-.29-1.29a3.16,3.16,0,0,0,.58-3.5c-2.74,1.51-2.72,1.5-2.08,4.3a7.86,7.86,0,0,1,.11,1.74l-4.06,1.62-3.16,3.14c-.34.32-.84.53-1,.91a3,3,0,0,1-4,1.57c.07.56.14,1.1.21,1.7l-3.6-.16a35.32,35.32,0,0,0,3.37,3.7c1.45,1.65.27,3.41.05,5.1-3,.23-6.06-1.17-9,.6,1.66,3.38-1.12,6.89.89,10.2l2-.23c.5.65.94,1.24,1.18,1.56,3-.71,6-1.14,6.87-3.76,0-1-.23-1.76,0-2.14.69-1,1.63-1.75,2.42-2.65.52-.6,1.4-1.31,1.36-1.93-.1-2,1.07-1.84,2.15-1.41a2.26,2.26,0,0,0,2.79-.5,16.84,16.84,0,0,1,2.14-1.45c.51.65,1,1.34,1.58,2a20.64,20.64,0,0,0,3,3.24c2,1.43,4.3,2.48,3.46,5.67l1.38-1.92-.65-2.28,2.25,1c-.06-.37,0-.63-.14-.69-1.33-.87-2.12-2.46-3.86-2.84-.47-.1-.91-.65-1.24-1.09-.51-.67-.84-1.48-1.37-2.13-1.33-1.61-1.08-2.47.73-2.95a5.06,5.06,0,0,0,.62,1.16c.2.22.83.2.88.39.47,1.82,2,2.35,3.41,3.2.86.52,2,1.54,2,2.34,0,3.66,2.62,5.9,3.9,8.8a17,17,0,0,0,1.48-2.59,2.5,2.5,0,0,0-.18-1.73A21.67,21.67,0,0,0,217.5,114c.82.05,1.58.33,1.87.07,1.42-1.27,1.38-1.32,2.61-.61-.1,1.34-.19,2.47-.26,3.47.56.83,1,2.07,1.76,2.44,1,.45,1.82,2.17,3.51.67.53-.47,2.32.48,3.53.77a.29.29,0,0,0,.18,0l3.08-1.41c-.64,2.82-1.14,5.06-1.65,7.3-.33,1.44-.88,2.52-2.69,2.57-.7,0-1.38.77-1.73,1l2.82,3-1.38,1.08.19.54,2.71-.82c.37.66.89,1.48,1.32,2.35.73,1.47,1.42,3,2.08,4.47.53,1.21,1,2.44,1.49,3.68.34.9.48,1.88.9,2.73a22.93,22.93,0,0,0,1.81,2.79c1.85,2.7,1.8,5.89,2.34,8.93.19,1.08.65,1.47,1.64,1a52.78,52.78,0,0,0,5.2-2.77c1.77-1.16,3.27-2.74,5.08-3.81a13.24,13.24,0,0,0,4.36-3.52c.32-.44.56-.94.84-1.4A8.06,8.06,0,0,1,260,147c2.09-2.3,1.66-4.33-1.13-5.7a2.8,2.8,0,0,1-1.19-1.52,11.39,11.39,0,0,1-.26-2.46,17.35,17.35,0,0,0-2.12,2.72c-.79,1.59-2.08.62-3.14.83-.11-.66-.21-1.32-.34-2-.08-.43-.18-.86-.4-1.81l-.73,1.73c-1-2.23-2.11-4.53-3.2-6.84,1.71-1.91,2.07-1.87,3.27.45a9.59,9.59,0,0,1,.45,1,4.73,4.73,0,0,0,6.66,2.67c.88,2.21,1.07,2.49,3.59,2.65s5.18,0,7.49,0l4.24,4.82-1.21.51,2.8,2.42,1.43-1.75c.65,3.5,1.2,7.58,2.21,11.54a61.8,61.8,0,0,0,3.81,11.72,14.26,14.26,0,0,0,3.37-10.23,4.78,4.78,0,0,1,.34-2.7c.89-1.32,2.36-2.27,3.22-3.61,1.33-2.08,4-3.14,4.46-5.86.07-.35.81-.68,1.3-.81,1.35-.35,2.74-.59,4.16-.88a10,10,0,0,0,1,3,17.16,17.16,0,0,1,2.09,3.59A104,104,0,0,0,276.82,70Z" fill="#d1d3d4"/><path d="M149.88,192.93c-.09,1.62-1.44,3.23-2.42,4.73-.87,1.33-2,2.51-3,3.78a1.64,1.64,0,0,0-.16.79,60.33,60.33,0,0,1-.85,7.39,21.41,21.41,0,0,1-2.32,5,2.16,2.16,0,0,1-1.14.73c-1.91.72-3.89,1.28-5.74,2.13-1.59.72-2.21,2-2.36,3.92a6.82,6.82,0,0,1-.65,2.27q-1.61-1.32-3.15-2.7a77,77,0,0,0-4.9-10.21c-4-6.89-10.16-12.75-14.29-19.87a102.83,102.83,0,0,1-10.22-24.32c1.27-.92,2.79-1.61,4.21-2.49-.26,1.68-1.29,3.27-.26,4.88l1.51-4.13c1.63.78,3,1.45,4.35,2.05s3,.3,4.53,0,2.21,1.28,3.27,2a7.77,7.77,0,0,1,1,1.06,13.3,13.3,0,0,0,2,2,7,7,0,0,0,3.15,1.52c3.86.22,5.69,1.25,6.63,4.95.9,3.53,3.39,5,6.49,5.69,1.33.3,2,.72,1.71,2,3.1,0,6.28-.62,8.48,2.36.2.26.52.58.8.6A3.48,3.48,0,0,1,149.88,192.93Z" fill="#d1d3d4"/><path d="M111.88,104.91c3.49.8,6.09-1,8.89-2.31a1.83,1.83,0,0,0,.94-1.33,2.49,2.49,0,0,0-1-1.71,8.54,8.54,0,0,0-2.45-.6l1.09-.7a24.29,24.29,0,0,1-4-2.5c-.61-.55-.41-1.89-.87-2.7-.79-1.37-1.82-2.6-2.8-4-.93,1.32-1.19,3.68-3.47,3.11a2.72,2.72,0,0,1-1.72-1.16,103.32,103.32,0,0,0-11.27,39.89,6.05,6.05,0,0,1,1.21-1c2.84-1.63,3-2.13,2.28-5.42a16.07,16.07,0,0,1,0-3.21l.71,2.74c.68-1.19,1.65-2.16,1.74-3.22.17-1.87,1.1-2.29,2.68-2.32a9.17,9.17,0,0,0,1.84-.4l-.53-.24c.1-.92-.13-2.35.36-2.68a59.34,59.34,0,0,1,6.15-3.2l-1.34,2.89.47.11,6.52-3.48c-.09-.17-.19-.34-.29-.5l-.81.46.45-1.53a.83.83,0,0,0-.7.42c-1.18,1.75-1.81,1.89-3.57.63-1.31-.94-1.79-2-.39-3.35.13-.12-.21-1.07-.38-1.09a6.2,6.2,0,0,0-2.19.17,29.24,29.24,0,0,0-2.79,1.15C108.15,106.44,109.64,104.4,111.88,104.91Z" fill="#d1d3d4"/><path d="M201.77,175.59a3.86,3.86,0,0,1,.5,2.69c-.82,2.76-.84,5.07,1.41,7.39a10,10,0,0,1,2.67,7.6,1.82,1.82,0,0,0,.27,1.08c.92,1.23.36,2.13-.25,3.37-1.34,2.76-2.63,5.59-.73,8.83,1.12,1.91,2.35,3.81,2.44,6.34a9.61,9.61,0,0,0,2.39,6.58c1,1.08,2,2.84,1.86,4.18a3.18,3.18,0,0,0,1.77,3.41,9.42,9.42,0,0,1,1.78-.59,33,33,0,0,0,5.11-.54c4.23-1.22,6.31-4.85,8.46-8.27.4-.63.14-1.67.21-2.88.25-.14.83-.5,1.44-.79a2.79,2.79,0,0,0,1.71-3.76c-.19-.66-.5-1.29-.67-2-.08-.37-.14-1,.06-1.15,1.41-1.29,3-2.44,4.34-3.75.9-.86,2.1-1.81,2.32-2.89a13.91,13.91,0,0,0-.25-5c-.18-1.11-.92-2.13-1.12-3.25s.59-2.63-.71-3.7c-.16-.14-.08-.81.11-1.07,2.11-2.91,3.81-6.34,6.51-8.54,3.58-2.9,5.37-6.71,7.34-10.53a13,13,0,0,0,.71-3.58c-2.73.7-5.15,1.36-7.6,1.9a1.63,1.63,0,0,1-1.36-.65c-.41-.69-.35-1.7-.83-2.29-.9-1.09-2.09-1.94-3.08-3a5.57,5.57,0,0,1-1.32-1.9c-.81-2.48-2.66-4.44-2.95-7.25-.18-1.74-1.77-3.29-2.56-5a64.35,64.35,0,0,1-2.63-6.52c-.55-1.64-1.47-1.5-2.77-1.15a6.14,6.14,0,0,1-3,.23,57.92,57.92,0,0,1-5.73-2c-1.68-.64-3,.09-3.18,1.79-.11,1.23-.64,1.9-1.81,1s-3.5-.4-3.92-2.6c0-.07-.45,0-.65-.11-1.78-.77-4.2.21-5.2-1.68.49-1.43.89-2.63,1.33-3.93a14.34,14.34,0,0,0-2.47-.35c-2.16.08-4.32.15-6.45.44a18.05,18.05,0,0,0-4.45,1.18c-2.28.93-4.46,1.76-6.5.12-1,1.1-1.81,2.38-2.94,3a3.84,3.84,0,0,0-2.13,3.47c0,2.29-1.2,3.09-3,3.65a2.16,2.16,0,0,0-1.15.8c-1.07,1.74-2.14,3.49-3.05,5.32-.65,1.29-1.83,2.38-.65,4.25.69,1.08.57,3,.13,4.37a14.39,14.39,0,0,0-.46,5.74,2.45,2.45,0,0,0,.73,1.18c.27.33.69.53.92.87a46.42,46.42,0,0,0,3.26,4.72,47.87,47.87,0,0,0,4.33,3.64,2.71,2.71,0,0,0,2.91.41,25.24,25.24,0,0,1,4.71-.45,8.33,8.33,0,0,0,1.81-.28c1.24-.4,2.41-1,3.67-1.31s3-1.06,3.55.82c.53,1.7,1.49,1.64,2.85,1.51A2.43,2.43,0,0,1,201.77,175.59Z" fill="#d1d3d4"/><path d="M123.11,67.56a4.6,4.6,0,0,0,1-.48l3,2.13-3.9-.56-.09.58,3.73,1.4v1.84l-4.47,2.28,2,1.62a4.4,4.4,0,0,0,0,1.64c1.41,2.9,2.85,5.79,4.38,8.62a4.87,4.87,0,0,0,1.78,1.74A28.91,28.91,0,0,0,134,89.83c.84.37,1.63.79,1.87-.67s.62-2.75,1-4.12c.06-.25.16-.6.34-.69,1.54-.8,1.82-2.09,1.81-3.7,0-.52.9-1.53,1.31-1.49,3,.28,4.93-1.26,6.56-3.52.46-.63,1.21-1.4,1.87-1.44,4-.25,7.31-2,10.84-4l-4.75-.49,1.28-1.55,3.77,1.58c.28-2-.42-2.88-1.87-3.44-1.62-.63-1.78-1.51-.94-2.64h4.35l-1.26-1.41,2.79-.4-1.23-1.28c2.17-1.48-.68-2.22-.51-3.34l2.71-.17c-.5-.75-.77-1.65-1.33-1.89a8.33,8.33,0,0,0-2.7-.21c2.51-3.75,6.77-4.95,10.68-6.82a8.29,8.29,0,0,0-6.88-.44,45,45,0,0,1-6.16,1.23l1-1.53c-.8.09-1.6.19-2.4.26-.45,0-.9,0-1.34,0l-.07-.77,4.89-.83c-1.66-.45-3.25-1.08-4.85-1.4A104.38,104.38,0,0,0,123.11,67.56Z" fill="#d1d3d4"/><path d="M109.9,85c-.21.33-.4.67-.6,1,.4.13.8.27,1.2.43Z" fill="#d1d3d4"/><path d="M115.57,76.65l-.06,0c-.31.41-.61.83-.91,1.24C114.93,77.46,115.25,77.06,115.57,76.65Z" fill="#d1d3d4"/><path d="M111.71,84.39a4.2,4.2,0,0,0-.12-2.13c-.43.66-.85,1.32-1.26,2Z" fill="#d1d3d4"/><path d="M242.48,209c-.66,1.42-.47,4.15.67,5.12a2.1,2.1,0,0,0,3.39-.87c1.08-3.58,2-7.19,3-10.79.08-.27,0-.62.19-.83a3.25,3.25,0,0,0-.58-4.25c-2.09,1.56-2.31,5-6.07,4.84,0,1.21.08,2.34,0,3.46A9.83,9.83,0,0,1,242.48,209Z" fill="#d1d3d4"/><path d="M192.3,94.39c.17-.45.61-1.12.45-1.32-.27-.36-.92-.43-1-.46L187.69,87c1.1-2,1.05-2.68-.42-3.63-.91-.59-3,.23-3.91,1.56-.43.62.2,1.77,1.82,3.31L185,89.41c.32,0,.55,0,.68.09.58.44,1.44.82,1.62,1.4s-.37,1.29-1.33.89a1.35,1.35,0,0,0-.47.7c-.06.68,0,1.37,0,2.23l1.56.47-2.76,2.11,7.45-1.19C192,95.19,192.16,94.79,192.3,94.39Z" fill="#d1d3d4"/><path d="M255.85,56.9a46,46,0,0,1-4.5,4.25c2,1.93,4.52,2.19,7.62,2.08-.85-.61-1.56-.88-1.88-1.4s-.58-1.53-.3-1.88A15,15,0,0,1,261.85,56c-.66-.5-1.32-1-2-1.48A7.38,7.38,0,0,0,255.85,56.9Z" fill="#d1d3d4"/><path d="M162,84.41a4.67,4.67,0,0,0,2.23,0,9.42,9.42,0,0,0,3.23-1.52c.71-.6,2.36-1.08,1.58-2.45a13.38,13.38,0,0,0-2.7-2.6l-.15.62-5.69,1.36L159.07,78l.22.62L156.8,80l.26.33h2.67l-2.41,1.26,2.67.78-1.35,1C159.76,83.75,160.84,84.17,162,84.41Z" fill="#d1d3d4"/><path d="M210.71,53c1.23-1,2.22-1.84,3.3-2.58a1.42,1.42,0,0,1,1.27,0c.31.21.38.78.61,1.3h3.63c0-.23,0-.46.07-.68L209.37,47c.44,1,.59,1.32.63,1.39l-6.09-.53-.14.63a9.18,9.18,0,0,0,2.63,1.76c.9.23,2-.23,3-.39l.06.47-2.31.83.08.32,1.82.17-1.22.64Z" fill="#d1d3d4"/><path d="M183.68,91c.87-.53,1-1.28.14-1.69S182,88.1,181,89.23c-.54.61-1.18,1.12-1.92,1.81V94l-.6.29c.33.27.73.82,1,.75a18.26,18.26,0,0,0,3.93-1.43c.31-.17.08-1.32.12-2C183.49,91.37,183.54,91.06,183.68,91Z" fill="#d1d3d4"/><path d="M96.33,150.31a3.61,3.61,0,0,0-.8-.28l.15,1.31a17.77,17.77,0,0,1,2.19.93c.74.37,1.2,1.3,2,2.2l3.43-.4C100.77,152.71,98.59,151.44,96.33,150.31Z" fill="#d1d3d4"/><path d="M109.86,156.62c.16-1.68-2.85-2.74-5.57-2l1.44,1.65L102.9,156C105.12,157.57,107.54,156.43,109.86,156.62Z" fill="#d1d3d4"/><path d="M222.58,47.1H213a13,13,0,0,0,4,1.32,43.91,43.91,0,0,0,5.6-.26Z" fill="#d1d3d4"/><path d="M286.5,172.65c.54-.22,1.27-1.25,1.13-1.63a20.77,20.77,0,0,0-1.91-3.4l-.56.25c0,1.15,0,2.3,0,3.44S285.46,173.05,286.5,172.65Z" fill="#d1d3d4"/><path d="M202.06,112.42l-1.24.5v3.21c2.13-.11,1.15-1.83,1.58-2.75C202.5,113.17,202.19,112.76,202.06,112.42Z" fill="#d1d3d4"/><path d="M209,117.64h-3.38l-.11.4,3.1,1.88C208.71,119.08,208.84,118.31,209,117.64Z" fill="#d1d3d4"/><circle cx="163" cy="114.27" r="7.52" fill="#231f20"/><rect x="145.03" y="103.77" width="30.97" height="5.96" rx="2.98" transform="translate(-25.35 55.62) rotate(-18.25)" fill="#231f20"/><circle cx="239.62" cy="114.27" r="7.52" fill="#231f20"/><rect x="226.62" y="103.77" width="30.97" height="5.96" rx="2.98" transform="translate(438.61 283.94) rotate(-161.75)" fill="#231f20"/><path d="M198.88,234.89a15.42,15.42,0,0,1,1.67,5.3l2,10.79a5,5,0,0,0,.79,2.24,1.65,1.65,0,0,0,2.74,0,4,4,0,0,0,.43-1.68l1.14-10.81c.3-2.89.06-6.36,1.69-8.9" fill="#fff"/><path d="M204.83,254.42a2.38,2.38,0,0,1-1.83-.92,5.61,5.61,0,0,1-.88-2.43l-2-10.79a15,15,0,0,0-1.61-5.15.45.45,0,0,1,.15-.63.46.46,0,0,1,.63.16,15.82,15.82,0,0,1,1.73,5.45l2,10.79a4.82,4.82,0,0,0,.7,2,1.45,1.45,0,0,0,1.17.57,1,1,0,0,0,.82-.5,3.52,3.52,0,0,0,.37-1.48l1.13-10.81c.07-.66.11-1.36.15-2.06.15-2.45.29-5,1.62-7a.45.45,0,0,1,.63-.14.47.47,0,0,1,.14.63c-1.2,1.86-1.34,4.28-1.48,6.61,0,.72-.08,1.43-.15,2.1L207,251.62a4.47,4.47,0,0,1-.5,1.87,1.93,1.93,0,0,1-1.55.93Z" fill="#231f20"/><path d="M242.15,259.09a6.06,6.06,0,0,0,.13,2.29,2.27,2.27,0,0,0,1.54,1.58c1.31.3,2.45-1,2.86-2.3.47-1.47.59-6.07-1.52-6.64C242.87,253.41,242.26,257.62,242.15,259.09Z" fill="#fff"/><path d="M244.72,254a1.78,1.78,0,0,1,.44.06c2.11.57,2,5.17,1.52,6.64-.37,1.16-1.33,2.35-2.48,2.35a1.65,1.65,0,0,1-.38-.05,2.27,2.27,0,0,1-1.54-1.58,6.06,6.06,0,0,1-.13-2.29c.1-1.37.64-5.13,2.57-5.13m0-.91c-2.8,0-3.38,4.57-3.48,6a6.75,6.75,0,0,0,.17,2.63,3.16,3.16,0,0,0,2.2,2.2,2.38,2.38,0,0,0,.59.07c1.65,0,2.89-1.54,3.35-3a9.91,9.91,0,0,0-.42-6.34,2.85,2.85,0,0,0-1.74-1.46,2.57,2.57,0,0,0-.67-.09Z" fill="#231f20"/><path d="M303,115.06h0a11.72,11.72,0,0,0-16.29-3l-11.37,7.84a11.69,11.69,0,0,0-5,10.06l-40,27.57,7.15,10.37,40-27.57a11.66,11.66,0,0,0,11.19-1.14L300,131.36A11.71,11.71,0,0,0,303,115.06Z" fill="#fff"/><path d="M293.35,110.91a10.81,10.81,0,0,1,6.14,19.7l-11.37,7.83a10.82,10.82,0,0,1-10.33,1.05.84.84,0,0,0-.35-.07.89.89,0,0,0-.52.16l-39.26,27-6.11-8.87,39.26-27a.93.93,0,0,0,.39-.79,10.74,10.74,0,0,1,4.66-9.27l11.37-7.83a10.71,10.71,0,0,1,6.12-1.91m0-.92a11.72,11.72,0,0,0-6.64,2.07l-11.37,7.84a11.69,11.69,0,0,0-5,10.06l-40,27.57,7.15,10.37,40-27.57a11.82,11.82,0,0,0,4.57.93,11.58,11.58,0,0,0,6.62-2.07L300,131.36A11.72,11.72,0,0,0,293.35,110Z" fill="#231f20"/><path d="M232.32,159.4,273,131.34l-.06-1.48a9,9,0,0,1,3.89-7.74l11.37-7.83a9,9,0,1,1,10.23,14.85L287.1,137a9,9,0,0,1-8.62.87l-1.36-.57L236.4,165.33Z" fill="#68e1fd"/><path d="M268.46,139.06a.46.46,0,0,1-.38-.2l-3.2-4.64a.46.46,0,1,1,.76-.52l3.19,4.64a.44.44,0,0,1-.11.63A.43.43,0,0,1,268.46,139.06Z" fill="#231f20"/><path d="M264.09,139.41a.47.47,0,0,1-.38-.2l-1.95-2.84a.45.45,0,0,1,.11-.63.46.46,0,0,1,.64.11l2,2.85a.45.45,0,0,1-.12.63A.42.42,0,0,1,264.09,139.41Z" fill="#231f20"/><path d="M262.2,143.37a.44.44,0,0,1-.37-.2l-3.2-4.64a.46.46,0,1,1,.75-.52l3.2,4.64a.46.46,0,0,1-.12.64A.5.5,0,0,1,262.2,143.37Z" fill="#231f20"/><path d="M257.83,143.72a.43.43,0,0,1-.37-.19l-2-2.85a.45.45,0,0,1,.11-.63.46.46,0,0,1,.64.12l2,2.84a.45.45,0,0,1-.12.63A.42.42,0,0,1,257.83,143.72Z" fill="#231f20"/><path d="M255.94,147.68a.45.45,0,0,1-.37-.2l-3.2-4.64a.46.46,0,0,1,.75-.52l3.2,4.64a.46.46,0,0,1-.12.64A.5.5,0,0,1,255.94,147.68Z" fill="#231f20"/><path d="M251.57,148a.45.45,0,0,1-.37-.2l-2-2.84a.46.46,0,0,1,.12-.64.45.45,0,0,1,.63.12l2,2.84a.46.46,0,0,1-.12.64A.5.5,0,0,1,251.57,148Z" fill="#231f20"/><path d="M250.31,190.6a3,3,0,0,1-2.8-1.92c-7-18.25-18.35-30.54-33.72-36.53-33-12.9-74.24,7.18-74.66,7.39a3,3,0,1,1-2.66-5.38c1.78-.88,44-21.45,79.5-7.6,17,6.63,29.5,20.08,37.14,40a3,3,0,0,1-1.73,3.87A2.86,2.86,0,0,1,250.31,190.6Z" fill="#231f20"/><path d="M167.89,30c-5.42,5.44-24.51,21-15.25,29.19-.52-.46-9.86,11.32.85,10.21,6.32-.65,12.78-1.59,19.2-2.19,13.67-1.29,27.79-3.45,41.52-2,11.78,1.26,23,5.51,34,9.52,4.17,1.52,9.12,4.57,13.33,5.44,5,1,9.86-4.23,5.8-8.61a15.91,15.91,0,0,0-3.73-2.71A10.21,10.21,0,0,0,267.47,67c2.07-1.85,2.31-5,1.87-7.77-.84-5.15-4-9.21-6.22-13.76-1.83-3.76-4.06-8.44-7.57-11C247.63,28.82,200.79,20.61,167.89,30Z" fill="#68e1fd"/><path d="M260.72,64.93a.51.51,0,0,1-.17,0c-55-21.81-105.34-7.24-105.84-7.09a.45.45,0,1,1-.26-.87c.5-.15,51.13-14.82,106.44,7.11a.46.46,0,0,1,.26.59A.48.48,0,0,1,260.72,64.93Z" fill="#231f20"/><path d="M197.12,42.59a.46.46,0,0,1-.23-.86A50.09,50.09,0,0,1,211.6,37a.46.46,0,0,1,.53.37.46.46,0,0,1-.38.53,49,49,0,0,0-14.41,4.64A.46.46,0,0,1,197.12,42.59Z" fill="#231f20"/><path d="M216.83,42.59a.48.48,0,0,1-.39-.21.47.47,0,0,1,.14-.63,34.77,34.77,0,0,1,14.66-5.52.47.47,0,0,1,.5.42.46.46,0,0,1-.42.49,34.55,34.55,0,0,0-14.24,5.37A.49.49,0,0,1,216.83,42.59Z" fill="#231f20"/><path d="M89.5,96.05s-16.74,6.27-16,13.12S82,105.44,89.5,96.05Z" fill="#d1d3d4"/><path d="M81.33,128.67S65.72,139,68.72,144.74,79.67,136.18,81.33,128.67Z" fill="#d1d3d4"/><path d="M330.45,88.36s17.77,5.89,16.38,12.19S334,95.17,330.45,88.36Z" fill="#d1d3d4"/><path d="M74.84,82.26S59.71,79.14,59.34,85,64.8,91.77,74.84,82.26Z" fill="#d1d3d4"/><path d="M309.18,103.71s5.78,14.52,9.53,11.1S316.53,108,309.18,103.71Z" fill="#d1d3d4"/><path d="M302.37,72s2.86,9.89,9.62,8.32S310.77,75.37,302.37,72Z" fill="#d1d3d4"/></g></svg>