<svg xmlns="http://www.w3.org/2000/svg" viewBox="0 0 400 300"><g id="_55_golf" data-name="#55_golf"><path d="M84.69,242.44a.5.5,0,0,1-.5-.5.49.49,0,0,1,.49-.5L315.31,240h0a.49.49,0,0,1,.5.49.5.5,0,0,1-.49.51L84.69,242.44Z" fill="#d1d3d4"/><path d="M85,236.24a.52.52,0,0,1-.33-.12c-1.73-1.53-1.13-4.25-.09-6.1a17.32,17.32,0,0,1,17.23-8.42c1.48.23,3,1.12,2.78,2.55a.51.51,0,0,1-.57.42.5.5,0,0,1-.42-.56c.11-.8-1.13-1.3-2-1.42a16.29,16.29,0,0,0-16.2,7.91c-.92,1.66-1.32,3.81-.12,4.87a.49.49,0,0,1-.33.87Z" fill="#d1d3d4"/><path d="M70.63,236.78a.5.5,0,0,1-.5-.42,14.29,14.29,0,0,1,22.4-13.89c1.39-8.24,6.61-15.28,13.48-18.05,7.35-3,16.19-.41,20.29,5.57a10.49,10.49,0,0,1,3.24-6.28,13.64,13.64,0,0,1,10.84-3.81c6.15.73,11.87,5.22,15.7,12.32a.5.5,0,0,1-.88.48c-3.62-6.71-9.2-11.13-14.94-11.81a12.61,12.61,0,0,0-10,3.54,9,9,0,0,0-3,7.31.5.5,0,0,1-1,.27c-3.31-6.64-12.45-9.69-20-6.66-6.77,2.73-11.87,9.84-13,18.09a.51.51,0,0,1-.32.4.49.49,0,0,1-.49-.07A13.29,13.29,0,0,0,71.12,236.2a.49.49,0,0,1-.41.57Z" fill="#d1d3d4"/><path d="M88.4,146.25S110.53,259,113.05,264.71" fill="#fff"/><path d="M113.06,265.71a1,1,0,0,1-.92-.6c-2.54-5.78-23.81-114.06-24.72-118.67a1,1,0,1,1,2-.38C97,185,112,259.84,114,264.31a1,1,0,0,1-.51,1.32A1.14,1.14,0,0,1,113.06,265.71Z" fill="#231f20"/><polygon points="87.39 148.38 90.99 167.55 93.92 166.78 91.94 146.93 87.39 148.38" fill="#231f20"/><path d="M91,168.05a.45.45,0,0,1-.27-.08.52.52,0,0,1-.22-.32l-3.6-19.18a.49.49,0,0,1,.34-.56l4.54-1.45a.47.47,0,0,1,.43.06.48.48,0,0,1,.22.36l2,19.86a.5.5,0,0,1-.37.53l-2.93.77Zm-3-19.33,3.42,18.22,2-.53L91.5,147.59Z" fill="#231f20"/><path d="M130.5,110l-7.61,7c-13.12,7.62-36.11,25.4-37.87,27.33A8,8,0,0,0,83.75,146a6.64,6.64,0,0,0-.28,4.34,18.94,18.94,0,0,0,4.11,8.51c.28.32.68.67,1.07.52a1.06,1.06,0,0,0,.51-.78c.58-2.39.07-4.9.14-7.36a.68.68,0,0,1,.22-.57c.22-.15.52,0,.72.2a4.74,4.74,0,0,1,1.52,2.94c.09.81.16,1.91,1,2.05.6.12,1.1-.46,1.34-1,.87-2-.37-5.54,1-7.22.49-.59,1.84-.86,2.53-1.14,2.86-1.12,5.74-2.19,8.62-3.27,5.5-2.07,13.44-3,20.49-7.63a25.42,25.42,0,0,0,9.47-11.16" fill="#fff"/><path d="M88.45,159.88a1.7,1.7,0,0,1-1.26-.74A19.4,19.4,0,0,1,83,150.4a7.2,7.2,0,0,1,.33-4.68,8.33,8.33,0,0,1,1.35-1.79c1.71-1.88,24.83-19.78,37.94-27.39l7.57-7a.52.52,0,1,1,.7.76l-7.61,7-.09.07c-13,7.56-36.05,25.36-37.75,27.22a8,8,0,0,0-1.19,1.57,6,6,0,0,0-.24,4,18.47,18.47,0,0,0,4,8.28c.26.31.44.39.49.37s.1,0,.19-.42a15.88,15.88,0,0,0,.19-4.64c0-.85-.09-1.74-.06-2.62a1.15,1.15,0,0,1,.45-1,1.12,1.12,0,0,1,1.35.26,5.25,5.25,0,0,1,1.68,3.26v.14c.09.76.19,1.4.54,1.47s.61-.34.78-.73a8,8,0,0,0,.28-3.07c0-1.57-.08-3.19.81-4.28a4.67,4.67,0,0,1,2.14-1.08c.22-.07.43-.14.6-.21,2.28-.9,4.58-1.76,6.88-2.62l1.75-.65c1.75-.66,3.73-1.2,5.84-1.78,4.58-1.25,9.78-2.67,14.55-5.8a25.23,25.23,0,0,0,9.27-10.91.52.52,0,0,1,1,.36A25.86,25.86,0,0,1,127,136c-4.9,3.22-10.18,4.67-14.84,5.94-2.08.57-4,1.1-5.75,1.74l-1.75.66c-2.29.86-4.58,1.72-6.86,2.61-.19.08-.42.15-.67.23a4.37,4.37,0,0,0-1.65.76c-.65.79-.61,2.21-.58,3.59a8.68,8.68,0,0,1-.36,3.51,1.87,1.87,0,0,1-1.92,1.33c-1.13-.21-1.28-1.51-1.37-2.37l0-.13a4.19,4.19,0,0,0-1.34-2.61l-.08-.06v0c0,.84,0,1.7.06,2.54a16.69,16.69,0,0,1-.22,4.93,1.52,1.52,0,0,1-.82,1.14A1.13,1.13,0,0,1,88.45,159.88Z" fill="#231f20"/><path d="M111.56,264.48s.92,4.37,3.91,4.94,9,1.5,9.3,0-.57-6.89-2-7.47S114.32,264.14,111.56,264.48Z" fill="#231f20"/><path d="M122.12,270.73a37.2,37.2,0,0,1-6.75-.82c-3.27-.63-4.26-5.14-4.3-5.33a.5.5,0,0,1,.43-.59,41,41,0,0,0,4.78-1.22c3.58-1,5.82-1.66,6.73-1.28,1.76.73,2.61,6.47,2.25,8C125.18,269.89,125,270.73,122.12,270.73Zm-9.94-5.84c.34,1.1,1.32,3.65,3.38,4,6.38,1.23,8.63.79,8.73.38.35-1.54-.7-6.5-1.66-6.9-.66-.27-3.79.65-6.07,1.31C114.91,264.21,113.33,264.67,112.18,264.89Z" fill="#231f20"/><path d="M189.66,253.78l1.55,5.53s8.26,3.35,8.87,1.36-.61-9.5-.61-9.5Z" fill="#fff"/><path d="M198.66,261.8c-2.58,0-7.06-1.78-7.65-2a.51.51,0,0,1-.3-.34l-1.54-5.52a.51.51,0,0,1,.05-.4.53.53,0,0,1,.31-.24l9.81-2.61a.5.5,0,0,1,.41.07.48.48,0,0,1,.23.35c.13.78,1.23,7.68.6,9.73a1.26,1.26,0,0,1-.7.77A2.87,2.87,0,0,1,198.66,261.8Zm-7-2.88c2.51,1,6.65,2.28,7.8,1.74a.27.27,0,0,0,.15-.14c.43-1.42-.18-6.33-.54-8.71l-8.75,2.33Z" fill="#231f20"/><path d="M191.21,259.31s1.1,7.49,1.33,7.94,22.17,3.1,21.37,1-13.71-10.92-13.71-10.92S192.52,259.4,191.21,259.31Z" fill="#fff"/><path d="M210.44,269.49c-6.1,0-17.92-1.12-18.36-2-.24-.47-1-5.28-1.38-8.11a.5.5,0,0,1,.13-.42.52.52,0,0,1,.42-.17c.91.06,5.88-1.14,8.82-1.92a.52.52,0,0,1,.42.07c1.33.92,13.06,9,13.9,11.16a.83.83,0,0,1-.57,1.1A11.77,11.77,0,0,1,210.44,269.49ZM193,266.88c2.29.68,18.33,2.3,20.38,1.42-1-1.63-8.47-7.09-13.24-10.37-1.28.33-6.27,1.63-8.3,1.86C192.25,262.83,192.77,266.05,193,266.88Z" fill="#231f20"/><path d="M154.17,253.78l-1.54,5.53s-8.26,3.35-8.88,1.36.62-9.5.62-9.5Z" fill="#fff"/><path d="M145.18,261.8a2.87,2.87,0,0,1-1.22-.21,1.26,1.26,0,0,1-.7-.77c-.63-2.05.47-8.95.6-9.73a.46.46,0,0,1,.23-.35.5.5,0,0,1,.41-.07l9.8,2.61a.52.52,0,0,1,.32.24.51.51,0,0,1,0,.4l-1.55,5.52a.49.49,0,0,1-.3.34C152.23,260,147.76,261.8,145.18,261.8Zm-.39-10c-.36,2.38-1,7.29-.54,8.71,0,0,0,.08.15.14,1.14.54,5.29-.74,7.8-1.74l1.33-4.78Z" fill="#231f20"/><path d="M152.63,259.31s-1.1,7.49-1.33,7.94-22.18,3.1-21.37,1,13.71-10.92,13.71-10.92S151.31,259.4,152.63,259.31Z" fill="#fff"/><path d="M133.4,269.49a11.81,11.81,0,0,1-3.39-.29.83.83,0,0,1-.56-1.1c.83-2.15,12.56-10.24,13.9-11.16a.52.52,0,0,1,.42-.07c2.94.78,7.91,2,8.82,1.92a.52.52,0,0,1,.55.59c-.42,2.83-1.15,7.64-1.38,8.11C151.32,268.37,139.5,269.49,133.4,269.49Zm-2.9-1.19c2,.87,18.1-.74,20.38-1.42.18-.79.7-4,1.16-7.09-2-.23-7-1.53-8.3-1.86C139,261.21,131.53,266.67,130.5,268.3Z" fill="#231f20"/><path d="M149.68,141.94l-6.59,109.38s6.45,6,12.56,3.22c0,0,14.79-58.68,16-70.63l17,71.36,13-1.49s-5.67-110.1-6.28-111S149.67,141.22,149.68,141.94Z" fill="#231f20"/><path d="M152.2,255.77c-5,0-9.23-3.88-9.45-4.08a.5.5,0,0,1-.16-.4l6.59-109.38a.68.68,0,0,1,.43-.5c1.36-.41,16-.28,23.5-.16,22.06.38,22.45,1,22.63,1.24.63.93,4.66,78.12,6.37,111.26a.5.5,0,0,1-.44.52l-13,1.49a.49.49,0,0,1-.54-.38l-16.38-68.76c-2.56,16.08-15.49,67.49-15.63,68a.49.49,0,0,1-.28.33A8.75,8.75,0,0,1,152.2,255.77Zm-8.6-4.66c1,.88,6.49,5.2,11.63,3.07,1-4.09,14.77-58.92,15.92-70.32a.48.48,0,0,1,.46-.44.46.46,0,0,1,.51.38L189,254.72l12.08-1.38c-1.9-36.85-5.55-105.64-6.19-110.21-3.23-.69-40.81-1.37-44.75-.81Z" fill="#231f20"/><path d="M160.8,47.64c-.37,2.86-.57,6.81,1.17,8.92a8,8,0,0,0,3.73,2.14,24.67,24.67,0,0,0,.83,5.42,9.23,9.23,0,0,0,2,3.62c1.05,1.11,2,1.2,3.47,1.37,2.58.32,5.34.34,7.57-1.12,2.53-1.65,3.13-5.1,4.44-7.61a19.31,19.31,0,0,0,1.79-7.11,31.81,31.81,0,0,0-3.74-18.74,14.33,14.33,0,0,0-3.49-4.42c-.4-.32-1.07-.56-1.33-.12a.93.93,0,0,0,.06.84l1.11,2.75a23.24,23.24,0,0,0-4-3,7.62,7.62,0,0,0-4.86-.95c-.38.07-.81.24-.91.61-.17.62.58,1.22.85,1.68a4.93,4.93,0,0,1,.69,2.32,9.65,9.65,0,0,0-5.46-2.92c-.51-.08-1.16-.05-1.38.41a1.2,1.2,0,0,0,.2,1.1,5.59,5.59,0,0,0,2.62,2.35,10.93,10.93,0,0,0-4.22-.25,5.86,5.86,0,0,0-3.65,2,.57.57,0,0,0-.18.46c0,.2.24.32.42.41a5.42,5.42,0,0,1,2.55,3.52C161.52,43.26,161.06,45.65,160.8,47.64Z" fill="#fff"/><path d="M174.53,69.8a23,23,0,0,1-2.58-.17l-.12,0a5,5,0,0,1-3.66-1.51A9.6,9.6,0,0,1,166,64.27a23.79,23.79,0,0,1-.83-5.19,8,8,0,0,1-3.64-2.19c-1.45-1.76-1.86-4.81-1.28-9.31h0l.12-.87a15.32,15.32,0,0,0,.14-5.3,4.89,4.89,0,0,0-2.3-3.18,1.18,1.18,0,0,1-.68-.77,1.12,1.12,0,0,1,.29-.89,6.35,6.35,0,0,1,4-2.17,9.61,9.61,0,0,1,2.17-.09,6.8,6.8,0,0,1-.93-1.24,1.69,1.69,0,0,1-.23-1.58,1.68,1.68,0,0,1,1.93-.7,10.2,10.2,0,0,1,4.55,2,6.54,6.54,0,0,0-.3-.59,3.36,3.36,0,0,0-.27-.36,2,2,0,0,1-.64-1.72c.09-.36.4-.82,1.31-1a8.06,8.06,0,0,1,5.2,1,16,16,0,0,1,2.54,1.73l-.33-.81a1.43,1.43,0,0,1,0-1.32,1,1,0,0,1,.68-.46,1.94,1.94,0,0,1,1.41.45,15.07,15.07,0,0,1,3.62,4.58,32.33,32.33,0,0,1,3.8,19,19.7,19.7,0,0,1-1.84,7.28,25.23,25.23,0,0,0-1,2.32c-.82,2.08-1.68,4.23-3.6,5.49A9.58,9.58,0,0,1,174.53,69.8ZM161.31,47.71c-.53,4.15-.18,7,1.06,8.53a7.68,7.68,0,0,0,3.5,2,.49.49,0,0,1,.34.44A24.46,24.46,0,0,0,167,64a8.5,8.5,0,0,0,1.89,3.42c.88.94,1.65,1,3,1.2h.12c2.21.27,5,.39,7.23-1,1.66-1.08,2.45-3.08,3.21-5,.33-.82.66-1.66,1.05-2.41a18.88,18.88,0,0,0,1.74-6.92,31.41,31.41,0,0,0-3.68-18.44,13.67,13.67,0,0,0-3.36-4.27,1,1,0,0,0-.59-.24,1.63,1.63,0,0,0,.12.37l1.1,2.75a.52.52,0,0,1-.18.62.51.51,0,0,1-.63,0A22.13,22.13,0,0,0,174.14,31a7.12,7.12,0,0,0-4.53-.9c-.34.06-.49.17-.51.23s.24.55.45.81a4.28,4.28,0,0,1,.36.48,5.48,5.48,0,0,1,.76,2.56.51.51,0,0,1-.32.5.53.53,0,0,1-.58-.13,9.07,9.07,0,0,0-5.16-2.76c-.42-.07-.77,0-.84.13s-.05.21.18.6a5,5,0,0,0,2.4,2.15.53.53,0,0,1,.27.64.52.52,0,0,1-.6.33,10.34,10.34,0,0,0-4-.24,5.31,5.31,0,0,0-3.34,1.8l0,0,.11.06a6,6,0,0,1,2.81,3.85,15.74,15.74,0,0,1-.12,5.68Z" fill="#231f20"/><path d="M144.39,147.76s12.91,11.49,28.06,11.49a172.26,172.26,0,0,0,25.89-1.81c1.31-50.59,2-69.27-3.66-76.24s-23.16-10.82-23.16-10.82-16.24,0-21.55,4.1S144.39,147.76,144.39,147.76Z" fill="#68e1fd"/><path d="M214.33,52.54s2.75-4.06,6.51-5.44,7.12-2.45,7.66-1.3.61,7.35-3,9.19-9.65,1.45-9.65,1.45l-.92,29.42L213,85.55Z" fill="#231f20"/><path d="M214.94,86.36h-.08L213,86a.5.5,0,0,1-.42-.51l1.3-33a.45.45,0,0,1,.08-.26c.12-.17,2.9-4.21,6.76-5.63,4.85-1.78,7.61-2.48,8.28-1.05s.65,7.88-3.21,9.85C222.64,57,217.9,57,216.34,57l-.9,28.91a.51.51,0,0,1-.18.37A.49.49,0,0,1,214.94,86.36Zm-1.4-1.23.92.15.9-28.85a.5.5,0,0,1,.16-.35.47.47,0,0,1,.37-.13c.06,0,6,.35,9.39-1.41,3.26-1.66,3.23-7.54,2.77-8.53-.27-.58-2.64-.06-7,1.55-3.22,1.19-5.72,4.49-6.19,5.14Z" fill="#231f20"/><path d="M223.45,63.15s3.22-2.82,6.69-3.15,6.55-.49,6.74.6-1.11,6.33-4.55,7.09-8.46-.91-8.46-.91l-7.28,24.59L215,90.69Z" fill="#231f20"/><path d="M216.59,91.87a.45.45,0,0,1-.2,0l-1.55-.68a.49.49,0,0,1-.27-.6L223,63a.51.51,0,0,1,.15-.23c.14-.12,3.38-2.92,7-3.26,4.63-.45,7-.41,7.28,1s-1.13,6.83-4.93,7.66c-2.93.65-6.86-.36-8.23-.77l-7.14,24.11a.49.49,0,0,1-.27.31A.54.54,0,0,1,216.59,91.87Zm-.94-1.46.62.28,7.13-24a.45.45,0,0,1,.24-.3.48.48,0,0,1,.39,0c.05,0,4.93,1.61,8.2.89,3.08-.67,4.33-5.58,4.16-6.51,0-.29-.92-.7-6.2-.19a13.39,13.39,0,0,0-6.31,2.93Z" fill="#231f20"/><path d="M210.8,62.57a11.44,11.44,0,0,0-4.57-3.91c-2.65-1-5-1.79-5.42-1s-.49,5.21,2.05,6.54,6.83,1.1,6.83,1.1l.42,20.86,1.36-.2Z" fill="#231f20"/><path d="M210.11,86.68a.47.47,0,0,1-.32-.12.49.49,0,0,1-.18-.37l-.41-20.35c-1.25,0-4.45-.07-6.58-1.18-2.85-1.5-2.74-6.2-2.26-7.2s2.46-.63,6,.74a12,12,0,0,1,4.81,4.09.5.5,0,0,1,.08.26L212,86a.51.51,0,0,1-.43.51l-1.36.2Zm-.42-21.85A.46.46,0,0,1,210,65a.48.48,0,0,1,.16.35l.42,20.29.36,0-.65-22.82a10.73,10.73,0,0,0-4.26-3.6c-3.58-1.36-4.59-1.42-4.8-1.23-.32.67-.39,4.71,1.84,5.88,2.38,1.25,6.53,1,6.57,1Z" fill="#231f20"/><path d="M199,150.67s-2.76-.86-3.68-7.9.61-50.09,1.84-56.76,10.11-11.28,17.77-10.81,13.79-1.72,15.32,1.67S231.79,107,229,123.94s-8.44,28-15.86,28A85.07,85.07,0,0,1,199,150.67Z" fill="#fff"/><path d="M213.17,152.47a87.37,87.37,0,0,1-14.26-1.29h-.06c-.12,0-3.08-1-4-8.34s.67-50.51,1.84-56.91C198,78.72,207.4,74.23,215,74.68a56.9,56.9,0,0,0,7.13-.12c4.17-.26,7.47-.46,8.63,2.1,1.62,3.59,1.56,30.44-1.19,47.37C226.61,142.11,220.64,152.47,213.17,152.47Zm-14-2.3a84.49,84.49,0,0,0,14,1.27c6.81,0,12.55-10.31,15.36-27.58s2.65-43.71,1.26-46.78c-.86-1.91-3.7-1.73-7.63-1.49a58.74,58.74,0,0,1-7.25.12c-7.14-.42-16,3.92-17.23,10.39s-2.79,49.3-1.84,56.6C196.65,148.9,198.9,150.07,199.15,150.17Z" fill="#231f20"/><path d="M217.7,106.15l-2.84,22.06s10.57,3.87,13.22.85,4.71-13.38,4.59-15.62S217.7,106.15,217.7,106.15Z" fill="#231f20"/><path d="M224.32,130.72c-3.9,0-8.86-1.76-9.63-2a.49.49,0,0,1-.32-.53l2.83-22.06a.52.52,0,0,1,.23-.36.5.5,0,0,1,.43,0c3.56,1.21,15.19,5.35,15.31,7.74s-2,12.81-4.72,16C227.59,130.37,226.06,130.72,224.32,130.72Zm-8.91-2.84c3.11,1.08,10.39,3,12.29.85,2.56-2.93,4.59-13.12,4.48-15.26-.06-1.11-7.21-4.28-14.07-6.65Z" fill="#231f20"/><path d="M215.53,140.84a167.94,167.94,0,0,1-19.35-1.56.5.5,0,1,1,.14-1c.19,0,19.58,2.72,26,.93a.5.5,0,1,1,.27,1A28.44,28.44,0,0,1,215.53,140.84Z" fill="#d1d3d4"/><path d="M220.92,101.26a219.27,219.27,0,0,1-23.21-1.82.5.5,0,0,1-.43-.56.52.52,0,0,1,.57-.43c.24,0,24.46,3.18,30.25,1.1a.5.5,0,0,1,.34.94A25.72,25.72,0,0,1,220.92,101.26Z" fill="#d1d3d4"/><path d="M214.44,89.83c-6.86,0-13.46-.6-13.95-.65a.5.5,0,0,1,.09-1c.22,0,21.38,1.94,27.47-1a.51.51,0,0,1,.67.23.5.5,0,0,1-.23.67C225.66,89.44,220,89.83,214.44,89.83Z" fill="#d1d3d4"/><path d="M217.7,106.15a14.8,14.8,0,0,1,2.14,11.34h13.33s4.44-7.55-2.91-9.85A30.64,30.64,0,0,0,217.7,106.15Z" fill="#fff"/><path d="M233.17,118H219.84a.53.53,0,0,1-.4-.19.5.5,0,0,1-.1-.43,14.45,14.45,0,0,0-2.05-10.92.5.5,0,0,1-.07-.5.52.52,0,0,1,.4-.32,30.76,30.76,0,0,1,12.79,1.51,6.12,6.12,0,0,1,4.23,3.52c1.23,3.19-.93,6.92-1,7.08A.53.53,0,0,1,233.17,118Zm-12.71-1h12.4c.44-.85,1.7-3.64.82-5.93a5.12,5.12,0,0,0-3.57-2.9,32.37,32.37,0,0,0-11.51-1.56A15.52,15.52,0,0,1,220.46,117Z" fill="#231f20"/><path d="M180.8,68.41l.62,9.41s-7.26,15.87-12,15.16-5.13-17.7-5.13-17.7l.16-17.13S169,55.77,167.69,46a30.05,30.05,0,0,0,15.76,2.28s2.7,10.61,1.94,15.31S180.8,68.41,180.8,68.41Z" fill="#fff"/><path d="M169.71,93.52a2.22,2.22,0,0,1-.37,0c-5-.74-5.54-16.42-5.58-18.2l.17-17.15a.52.52,0,0,1,.27-.45s4.18-2.39,3-11.64a.48.48,0,0,1,.21-.48.51.51,0,0,1,.53,0,29.92,29.92,0,0,0,15.47,2.22.52.52,0,0,1,.56.39c.11.44,2.72,10.77,2,15.52-.64,4-3.39,5-4.56,5.19l.6,8.94a.53.53,0,0,1-.05.25C181.15,79.66,174.66,93.52,169.71,93.52ZM165,58.43l-.16,16.85c.1,4.59,1.15,16.67,4.69,17.19s9.38-10.35,11.41-14.74l-.62-9.29a.52.52,0,0,1,.13-.38.58.58,0,0,1,.37-.17c.15,0,3.43-.2,4.1-4.39.65-4-1.33-12.63-1.82-14.67a31.09,31.09,0,0,1-14.76-2C169.1,54.87,165.93,57.74,165,58.43Z" fill="#231f20"/><path d="M180.89,73.09A7.92,7.92,0,0,1,174.68,71c-2.66-2.6-2.42-4.09-2.42-4.09s4.3,2.39,8.29,1.61Z" fill="#231f20"/><path d="M180.07,73.63a8.19,8.19,0,0,1-5.74-2.25c-2.76-2.69-2.59-4.34-2.56-4.52a.52.52,0,0,1,.27-.37.53.53,0,0,1,.46,0c.05,0,4.2,2.3,7.95,1.56a.52.52,0,0,1,.4.1.48.48,0,0,1,.19.35l.35,4.54a.5.5,0,0,1-.43.53A8.25,8.25,0,0,1,180.07,73.63Zm-7.13-5.81A8.38,8.38,0,0,0,175,70.67a7.34,7.34,0,0,0,5.33,2l-.27-3.5A14.07,14.07,0,0,1,172.94,67.82Z" fill="#231f20"/><path d="M175.53,54s2.81,5.34,1.92,6.12-3,0-3,0" fill="#fff"/><path d="M176.29,61a6.53,6.53,0,0,1-2.06-.4.5.5,0,1,1,.35-.93c.62.22,2,.55,2.54.12.22-.44-.72-3-2-5.52a.5.5,0,1,1,.88-.47c1.37,2.6,2.79,5.87,1.82,6.74A2.24,2.24,0,0,1,176.29,61Z" fill="#231f20"/><path d="M176.61,65.1l-.46,0a6.38,6.38,0,0,1-4.4-2.46.51.51,0,0,1,.07-.71.5.5,0,0,1,.7.07,5.33,5.33,0,0,0,3.71,2.1,7.19,7.19,0,0,0,4.67-1.67.5.5,0,1,1,.66.76A8.38,8.38,0,0,1,176.61,65.1Z" fill="#231f20"/><ellipse cx="172.45" cy="52.77" rx="1.37" ry="0.6" transform="translate(105.95 220.4) rotate(-85.38)" fill="#231f20"/><ellipse cx="180.3" cy="53.14" rx="1.37" ry="0.6" transform="translate(112.8 228.58) rotate(-85.38)" fill="#231f20"/><path d="M168.38,55.69a8.21,8.21,0,0,0-2.06-2.41,3,3,0,0,0-1.54-.71,2.57,2.57,0,0,0-1.34.38A5,5,0,0,0,161,56.2a4,4,0,0,0,.05,1.91,4.29,4.29,0,0,0,1.86,2.3,12.86,12.86,0,0,0,2.75,1.24" fill="#fff"/><path d="M165.7,62.17a.47.47,0,0,1-.17,0,13.34,13.34,0,0,1-2.86-1.3,4.81,4.81,0,0,1-2.08-2.59,4.48,4.48,0,0,1-.05-2.16,5.5,5.5,0,0,1,2.64-3.59,3,3,0,0,1,1.63-.44,3.38,3.38,0,0,1,1.84.82,8.94,8.94,0,0,1,2.18,2.56.51.51,0,1,1-.9.5A7.57,7.57,0,0,0,166,53.69a2.28,2.28,0,0,0-1.25-.6,2.1,2.1,0,0,0-1.06.31,4.45,4.45,0,0,0-2.14,2.91,3.51,3.51,0,0,0,0,1.65,3.88,3.88,0,0,0,1.65,2,12.37,12.37,0,0,0,2.65,1.18.52.52,0,0,1-.18,1Z" fill="#231f20"/><path d="M203.7,77.89s-19.27,4.37-29.29,15.4-11.14,38.82-3.36,50.1,28,7.28,28,7.28l-1.23-3.37s-26.43,4.3-28.11-22.75,9.16-32.87,15.15-36.08,16.79-6.67,16.79-6.67" fill="#231f20"/><path d="M190.89,151.86c-.95,0-1.95,0-3-.1-8-.55-14-3.35-17.27-8.09-7.61-11-7.13-39.12,3.4-50.71,10-11,29.35-15.51,29.55-15.55a.5.5,0,0,1,.22,1c-.19,0-19.24,4.46-29,15.25-10.28,11.31-10.74,38.72-3.32,49.48,6.78,9.82,23.55,7.7,26.87,7.17l-.88-2.43c-2.19.27-12.34,1.17-19.95-4.91-5-4-7.82-10.18-8.33-18.36-1.69-27.36,9.43-33.33,15.4-36.54s16.78-6.68,16.89-6.71a.5.5,0,0,1,.63.32.51.51,0,0,1-.32.63c-.11,0-10.83,3.47-16.71,6.62s-16.55,8.9-14.89,35.61c.49,7.89,3.16,13.83,7.94,17.65,8,6.43,19.48,4.66,19.59,4.65a.49.49,0,0,1,.55.32l1.22,3.37a.51.51,0,0,1,0,.42.5.5,0,0,1-.34.24A46.75,46.75,0,0,1,190.89,151.86Z" fill="#231f20"/><path d="M183.69,113.51l-1.38,4.66L174,104.23s-.31-5.06-1.84-6.74-2.76.61-2.76.61-.46-2.31-1.68-1.23-4,5.06-3.37,7.21,6.74,20.22,11.79,28.49,8.74,9.81,12.72,8.43,8.58-25.89,8.58-25.89" fill="#fff"/><path d="M186.43,142c-3.59,0-6.85-2.84-10.69-9.12-5-8.17-11.11-26-11.85-28.62-.69-2.41,2.2-6.57,3.53-7.74a1.26,1.26,0,0,1,1.3-.35,1.7,1.7,0,0,1,.9.89,2.17,2.17,0,0,1,1.23-.65,2,2,0,0,1,1.73.77c1.51,1.67,1.91,6.11,2,6.93l7.6,12.82,1-3.53a.52.52,0,1,1,1,.29l-1.38,4.67a.52.52,0,0,1-.43.36.5.5,0,0,1-.51-.25l-8.27-13.94a.49.49,0,0,1-.08-.23c-.08-1.36-.55-5.15-1.7-6.43a1.06,1.06,0,0,0-.84-.44c-.5.06-1,.73-1.08,1a.51.51,0,0,1-.53.27.5.5,0,0,1-.43-.41c-.1-.45-.35-1-.55-1.1,0,0-.15,0-.29.16-1.18,1-3.75,4.82-3.22,6.67.73,2.56,6.8,20.29,11.74,28.37,5.5,9,9.07,9.26,12.11,8.21,2.7-.93,6.49-16.13,8.24-25.5a.51.51,0,0,1,.6-.41.52.52,0,0,1,.42.6c-.48,2.54-4.78,24.85-8.92,26.29A8.13,8.13,0,0,1,186.43,142Z" fill="#231f20"/><path d="M197.17,86A83.09,83.09,0,0,1,201.61,99c2.53,9-2.22,20.06-2.22,20.06l-19.09-7.26s2.23-18.92,5.23-21.22S197.17,86,197.17,86Z" fill="#68e1fd"/><path d="M150,74.48s-19.11,29.84-27.08,37.2l14.72,19.68L154,107.31Z" fill="#68e1fd"/><line x1="185.53" y1="90.53" x2="180.3" y2="111.75" fill="#fff"/><path d="M180.3,112.27l-.12,0a.51.51,0,0,1-.38-.62L185,90.41a.52.52,0,1,1,1,.25l-5.23,21.21A.5.5,0,0,1,180.3,112.27Z" fill="#231f20"/><line x1="146.69" y1="89.32" x2="144.39" y2="139.56" fill="#fff"/><path d="M144.39,140.07h0a.5.5,0,0,1-.49-.54l2.29-50.23a.51.51,0,0,1,.54-.49.51.51,0,0,1,.49.53l-2.29,50.24A.51.51,0,0,1,144.39,140.07Z" fill="#231f20"/><path d="M199.47,251.67a.51.51,0,0,1-.5-.45l-9.8-88.83a.5.5,0,0,1,1-.11l9.8,88.83a.48.48,0,0,1-.44.55Z" fill="#fff"/><path d="M171.64,184.41a.49.49,0,0,1-.49-.42l-2.51-15.72a.5.5,0,0,1,1-.16l2.51,15.72a.49.49,0,0,1-.41.57Z" fill="#fff"/><path d="M149.07,166.85a.5.5,0,0,1-.49-.43.5.5,0,0,1,.42-.56c4.23-.61,4.75-8,4.76-8.07a.48.48,0,0,1,.53-.46.49.49,0,0,1,.46.53c0,.33-.58,8.26-5.61,9Z" fill="#fff"/><path d="M187.36,169.52a.48.48,0,0,1-.28-.08c-3.44-2.25-3.88-6.86-3.9-7.06a.51.51,0,0,1,.45-.54.49.49,0,0,1,.54.45c0,.05.42,4.34,3.46,6.32a.5.5,0,0,1,.14.69A.49.49,0,0,1,187.36,169.52Z" fill="#fff"/><path d="M161.3,44.85c0-.07,36.27.46,36.27.46.05-.2-11.21-2.89-11.21-2.89s-.83-4.6-.83-4.6L161,40Z" fill="#231f20"/><path d="M197.57,45.81h0c-12.14-.18-35.2-.49-36.19-.46h-.11a.49.49,0,0,1-.45-.46L160.45,40a.49.49,0,0,1,.45-.53l24.58-2.16a.49.49,0,0,1,.54.41c.23,1.38.61,3.51.75,4.27,11,2.62,11.09,2.82,11.23,3a.59.59,0,0,1,.05.39A.5.5,0,0,1,197.57,45.81ZM163,44.36l3.94,0,12.47.16,14.34.2c-2.33-.59-5.33-1.32-7.55-1.85-.33,0-.34,0-1.13-4.55l-23.63,2.08.29,3.94Z" fill="#231f20"/><path d="M295.12,262.37a.5.5,0,0,1-.5-.5v-137a.5.5,0,0,1,.5-.5.51.51,0,0,1,.5.5v137A.5.5,0,0,1,295.12,262.37Z" fill="#d1d3d4"/><path d="M294.4,127.14v17.35s6.2-6.82,13.94-5.42,12.23,4.18,22-1.09,11.3-11.61,11.3-11.61-5.73,5.73-13.32,3.87-14.55-8.52-21.83-7A58.4,58.4,0,0,0,294.4,127.14Z" fill="#d1d3d4"/><ellipse cx="281.94" cy="259.78" rx="7.3" ry="2.41" fill="#d1d3d4"/><path d="M215.32,238h0a.51.51,0,0,1-.47-.53c.05-.73,1.21-18,11.47-18,3.92,0,6.53.84,7.74,2.51.92-5,3.51-14,10.53-15.61,4.53-1.07,8.32-.57,11.27,1.49,3.68,2.55,5,6.77,5.43,8.68,1.63-1.63,5.89-5.33,10-4.36,3,.7,5.18,3.64,6.61,8.74,1.49-.3,6.06-.94,9.11,1.66,2.16,1.85,3.05,4.91,2.64,9.09a.5.5,0,0,1-.55.45.51.51,0,0,1-.45-.55c.38-3.84-.39-6.61-2.29-8.23-3.21-2.74-8.64-1.36-8.7-1.35a.5.5,0,0,1-.61-.35c-1.31-5-3.33-7.86-6-8.48-4.57-1.07-9.69,4.71-9.74,4.76a.49.49,0,0,1-.52.15.48.48,0,0,1-.35-.41c0-.06-.8-5.93-5.19-9-2.71-1.88-6.23-2.32-10.47-1.33-7.27,1.71-9.47,12.52-10,16.58a4,4,0,0,1-.22,1.68.5.5,0,0,1-1-.21c0-.12.05-.68.17-1.54a2.93,2.93,0,0,0-.48-1.23c-1-1.41-3.38-2.15-7-2.15-9.32,0-10.46,16.86-10.47,17A.5.5,0,0,1,215.32,238Z" fill="#d1d3d4"/></g></svg>