<svg xmlns="http://www.w3.org/2000/svg" viewBox="0 0 400 300"><g id="_22" data-name="#22"><path d="M367,241.63H56.28a.5.5,0,0,1-.5-.5V45.83a.51.51,0,0,1,.5-.5.5.5,0,0,1,.5.5v194.8H367a.5.5,0,0,1,0,1Z" fill="#d1d3d4"/><path d="M293.32,67.18s-1.18-3.53-1.18-3.78.93-3.54.51-4.55-2.35-4.28-3.19-4,.1,2.38.33,2.87c-.51-1.55-2.87-2.38-4.18-3.13a9.39,9.39,0,0,0-6.21-.81,4.29,4.29,0,0,0-2.12.83,1.8,1.8,0,0,0-.59,2.06c.46,1,1.84,1.07,2.67,1.78,1.28,1.09,2.15,3.57,2.83,5.07q1.51,3.32,3,6.63" fill="#fff"/><path d="M285.21,70.62a.49.49,0,0,1-.45-.29l-3-6.64c-.13-.28-.27-.6-.41-.94a11.7,11.7,0,0,0-2.3-4,4.19,4.19,0,0,0-1-.57,3.08,3.08,0,0,1-1.76-1.38A2.32,2.32,0,0,1,277,54.2a4.84,4.84,0,0,1,2.36-1,10,10,0,0,1,6.54.88c.27.15.58.3.91.47a16.65,16.65,0,0,1,1.83,1,1.52,1.52,0,0,1,.11-.74,1,1,0,0,1,.62-.54c1.54-.43,3.77,4.28,3.79,4.33.36.86,0,2.65-.36,4.26-.06.25-.1.43-.11.51s.62,2,1.16,3.59a.5.5,0,0,1-.32.63.49.49,0,0,1-.63-.31,24.94,24.94,0,0,1-1.21-3.94,4,4,0,0,1,.13-.7c.17-.74.68-3,.42-3.65-.5-1.19-2.1-3.63-2.65-3.75a4.81,4.81,0,0,0,.51,1.76,2.86,2.86,0,0,1,.22.47.5.5,0,0,1-.93.37l-.18-.38a7.06,7.06,0,0,0-2.84-2c-.35-.17-.68-.33-1-.49a9,9,0,0,0-5.88-.76,3.88,3.88,0,0,0-1.88.72,1.33,1.33,0,0,0-.46,1.46c.2.43.69.64,1.26.9a4.93,4.93,0,0,1,1.28.72,12.2,12.2,0,0,1,2.57,4.32c.14.33.27.64.4.92l3,6.63a.49.49,0,0,1-.46.71Z" fill="#231f20"/><path d="M289.79,57.68s-3.18,1-1.83,4.73" fill="#fff"/><path d="M288,62.91a.5.5,0,0,1-.48-.33,4.44,4.44,0,0,1,0-3.55,3.83,3.83,0,0,1,2.14-1.83.51.51,0,0,1,.63.33.5.5,0,0,1-.33.62,2.87,2.87,0,0,0-1.55,1.34,3.47,3.47,0,0,0,0,2.76.5.5,0,0,1-.31.63A.45.45,0,0,1,288,62.91Z" fill="#231f20"/><polygon points="314.44 107.04 295.23 65.24 282.3 67.66 301.88 129.07 314.44 107.04" fill="#68e1fd"/><path d="M335.74,239.76s.58,3.77-.29,5.22a15.54,15.54,0,0,0-2,6.67,7.52,7.52,0,0,0,5.51,2.52c3.49,0,7-2.61,7.35-3.87s-2.8-14.61-2.8-14.61Z" fill="#fff"/><path d="M338.93,254.67A8,8,0,0,1,333,252a.5.5,0,0,1-.1-.37,15.78,15.78,0,0,1,2.09-6.88c.64-1.06.38-3.89.23-4.89a.5.5,0,0,1,.26-.52l7.74-4.06a.49.49,0,0,1,.44,0,.51.51,0,0,1,.28.34c.75,3.16,3.19,13.58,2.79,14.87C346.32,251.89,342.71,254.67,338.93,254.67Zm-5-3.18a7.14,7.14,0,0,0,5,2.18c3.29,0,6.56-2.5,6.88-3.52.19-.8-1.21-7.54-2.67-13.71l-6.85,3.6c.13,1,.39,3.86-.41,5.2A14.73,14.73,0,0,0,333.94,251.49Z" fill="#231f20"/><path d="M306.17,155.09l16.76,4.64,3.89-48.47s-13.88-3.29-17.24-1.74S306.17,155.09,306.17,155.09Z" fill="#fff"/><path d="M322.93,160.23l-.13,0L306,155.57a.5.5,0,0,1-.37-.48c0-7.41.24-44.42,3.7-46s17,1.57,17.56,1.71a.49.49,0,0,1,.38.52l-3.88,48.47a.51.51,0,0,1-.21.37A.48.48,0,0,1,322.93,160.23Zm-16.26-5.52,15.81,4.38,3.8-47.44c-4.11-.94-14-2.84-16.49-1.67C307.89,110.85,306.71,133.34,306.67,154.71Z" fill="#231f20"/><path d="M311.76,231.89v11.35l-5.42,1.55.13-2.33L304,244.91s-14.55,2.62-14.48.68,1.55-3,3.39-4,7.16-4,7.16-4l.77-8.32" fill="#fff"/><path d="M292.29,246.8a5.36,5.36,0,0,1-2.93-.52.87.87,0,0,1-.31-.71c.08-2.21,1.8-3.42,3.65-4.39s5.89-3.25,6.91-3.83l.75-8a.5.5,0,0,1,1,.09l-.78,8.32a.47.47,0,0,1-.25.39c-.05,0-5.21,2.94-7.17,4s-3.05,1.93-3.12,3.54c.67.64,7.63-.07,13.74-1.16l2.34-2.34a.47.47,0,0,1,.55-.1.5.5,0,0,1,.3.48l-.09,1.62,4.38-1.25v-11a.5.5,0,0,1,.5-.5.5.5,0,0,1,.5.5v11.35a.5.5,0,0,1-.37.48l-5.41,1.55a.52.52,0,0,1-.45-.09.49.49,0,0,1-.19-.42l.06-1-1.53,1.53a.51.51,0,0,1-.26.14A82.44,82.44,0,0,1,292.29,246.8Z" fill="#231f20"/><path d="M337.76,159.67,347.83,239s-.43,3.15-7.26,3.54-6.15-1.22-6.15-1.22l-16.26-56.36-4.38,50.16L299,236l2.94-82.5Z" fill="#231f20"/><path d="M338.6,243.08c-2.52,0-4-.36-4.51-1.08a1,1,0,0,1-.18-.67l-15.48-53.68-4.16,47.5a.49.49,0,0,1-.46.45l-14.76.91a.47.47,0,0,1-.37-.14.46.46,0,0,1-.15-.37l2.93-82.5a.49.49,0,0,1,.18-.37.48.48,0,0,1,.4-.1l35.81,6.15a.5.5,0,0,1,.41.42l10.07,79.32v.13c0,.15-.57,3.56-7.73,4C339.87,243.06,339.2,243.08,338.6,243.08Zm-3.72-1.58c.07,0,.69.8,5.66.52,5.78-.32,6.68-2.68,6.79-3.06l-10-78.87-34.89-6-2.89,81.39,13.78-.86,4.35-49.73a.5.5,0,0,1,1-.1l16.26,56.37a.53.53,0,0,1,0,.33Z" fill="#231f20"/><path d="M323.68,105.17S318.42,161,321,164.31s14.12,7.8,19.28,3.67,2.43-47.71.11-51.32C334,111.26,323.68,105.17,323.68,105.17Z" fill="#68e1fd"/><path d="M302,107.19s-11,54.22-9.42,55.77,12.22,4.83,14.54,3.28,7.37-59.2,7.37-59.2S305.3,104.36,302,107.19Z" fill="#68e1fd"/><polygon points="317.12 115.69 318.47 118 310.56 150.21 313.69 154.91 318.42 151.39 319.95 118.46 321.84 116.21 319.8 114.51 317.12 115.69" fill="#d1d3d4"/><path d="M315.6,102.93l-2,6.81s-.05,3.37,4.83,3.68,6.51-2.61,6.51-2.61L328.25,98s-2.25-2.81,1-9.81a39.25,39.25,0,0,1-14.16-3,112.25,112.25,0,0,0-3.19,11.92C311.36,100.8,315.6,102.93,315.6,102.93Z" fill="#fff"/><path d="M319.1,113.94c-.24,0-.49,0-.75,0-5.29-.33-5.29-4.15-5.29-4.19a.68.68,0,0,1,0-.14l1.93-6.42c-1.09-.65-4.1-2.76-3.61-6.12.54-3.69,3.11-11.66,3.21-12a.54.54,0,0,1,.28-.31.53.53,0,0,1,.41,0,39.2,39.2,0,0,0,13.95,2.91.48.48,0,0,1,.42.23.51.51,0,0,1,0,.48c-3.05,6.56-1.08,9.27-1.06,9.29a.5.5,0,0,1,.09.44l-3.35,12.84a.31.31,0,0,1-.05.12C325.27,111.18,323.66,113.94,319.1,113.94Zm-5-4.14c0,.43.34,2.87,4.36,3.12,4.18.27,5.77-1.93,6-2.31l3.28-12.55c-.47-.79-1.69-3.69.77-9.42a39.38,39.38,0,0,1-13.08-2.76,103.62,103.62,0,0,0-3,11.31c-.48,3.28,3.4,5.27,3.44,5.29a.51.51,0,0,1,.25.59Z" fill="#231f20"/><path d="M326.22,97a3.05,3.05,0,0,1,1.49-1.28,5.73,5.73,0,0,1,1.84-.31,2.29,2.29,0,0,1,1,.13,2,2,0,0,1,.57.43,2.42,2.42,0,0,1,.74,1.49,2.87,2.87,0,0,1-.34,1.31,5.77,5.77,0,0,1-.78,1.28,3.78,3.78,0,0,1-5.34.4" fill="#fff"/><path d="M327.89,101.82a4.3,4.3,0,0,1-2.81-1,.5.5,0,0,1,0-.7.49.49,0,0,1,.7,0,3.27,3.27,0,0,0,4.63-.35,5.19,5.19,0,0,0,.71-1.16,2.39,2.39,0,0,0,.29-1.08,2,2,0,0,0-.6-1.16,1.5,1.5,0,0,0-.41-.33,2,2,0,0,0-.79-.08,4.88,4.88,0,0,0-1.67.28,2.56,2.56,0,0,0-1.26,1.06.5.5,0,0,1-.85-.51,3.55,3.55,0,0,1,1.74-1.48,5.8,5.8,0,0,1,2-.34,2.62,2.62,0,0,1,1.23.16,2.35,2.35,0,0,1,.73.55,2.84,2.84,0,0,1,.88,1.8,3.24,3.24,0,0,1-.39,1.55,5.73,5.73,0,0,1-.85,1.39,4.27,4.27,0,0,1-2.93,1.49Z" fill="#231f20"/><path d="M316.86,91.65s-3.57,2.69-3.23,3.49,2.05,1,2.05,1" fill="#fff"/><path d="M315.68,96.59h0c-.33,0-2-.22-2.47-1.25-.33-.77.81-2.15,3.39-4.09a.5.5,0,0,1,.6.8c-1.58,1.19-3,2.58-3.05,3,.13.26,1,.51,1.61.56a.5.5,0,0,1,0,1Z" fill="#231f20"/><ellipse cx="319.51" cy="90.91" rx="0.87" ry="0.61" transform="translate(75.16 315.95) rotate(-58.53)" fill="#231f20"/><ellipse cx="315.63" cy="89.58" rx="0.87" ry="0.61" transform="translate(74.44 312) rotate(-58.53)" fill="#231f20"/><path d="M314.32,97.52l3.12.76s-.19,2.31-2,2.43S314.32,97.52,314.32,97.52Z" fill="#fff"/><path d="M315.38,101.21a1.45,1.45,0,0,1-1.12-.49c-.85-1-.48-3-.43-3.29a.47.47,0,0,1,.22-.33.52.52,0,0,1,.39-.06l3.11.76a.5.5,0,0,1,.39.52c-.08,1-.69,2.78-2.44,2.89Zm-.64-3.07a3,3,0,0,0,.27,1.92.45.45,0,0,0,.42.15c.94-.06,1.3-1,1.43-1.55Z" fill="#231f20"/><path d="M315.6,102.93s3.56,1,5.48.46c0,0-2.49,3.69-6.64,3.65Z" fill="#231f20"/><path d="M314.51,107.54h-.07a.48.48,0,0,1-.4-.2.5.5,0,0,1-.08-.43l1.16-4.12a.49.49,0,0,1,.61-.34s3.46.94,5.23.46a.51.51,0,0,1,.53.2.5.5,0,0,1,0,.56C321.39,103.83,318.83,107.54,314.51,107.54Zm1.44-4-.84,3a8,8,0,0,0,4.78-2.48A17.76,17.76,0,0,1,316,103.53Z" fill="#231f20"/><path d="M299.85,160.81a.48.48,0,0,1-.38-.18.49.49,0,0,1,.06-.7l6.32-5.23a.5.5,0,0,1,.7.07.49.49,0,0,1-.06.7l-6.32,5.23A.54.54,0,0,1,299.85,160.81Z" fill="#231f20"/><path d="M335.44,160.81a.53.53,0,0,1-.27-.08c-3.83-2.52-8.45-5.68-8.71-6.45a.49.49,0,0,1,.31-.63.5.5,0,0,1,.62.28c.39.57,4.53,3.47,8.33,6a.5.5,0,0,1,.14.69A.51.51,0,0,1,335.44,160.81Z" fill="#231f20"/><path d="M310.89,130.56a.49.49,0,0,1-.41-.21l-6.27-8.82a.53.53,0,0,1-.08-.39.52.52,0,0,1,.22-.32l4-2.56-3.23-2.15a.51.51,0,0,1-.08-.77l4.64-4.64a.5.5,0,0,1,.71,0,.48.48,0,0,1,0,.7l-4.21,4.21,3.36,2.24a.5.5,0,0,1,.22.43.48.48,0,0,1-.23.41l-4.2,2.69,6,8.39a.51.51,0,0,1-.12.7A.52.52,0,0,1,310.89,130.56Z" fill="#231f20"/><path d="M318,187.63a.49.49,0,0,1-.49-.42c-.12-.73-2.91-18.08-2.71-21.38a.5.5,0,0,1,1,0c-.19,3.2,2.68,21,2.7,21.17a.49.49,0,0,1-.41.57Z" fill="#fff"/><path d="M333.48,95.35a.59.59,0,0,1-.23,0,.51.51,0,0,1-.22-.68,7.93,7.93,0,0,0-.82-8.27l-.09-.11a3.56,3.56,0,0,1-.55-.85,3.17,3.17,0,0,1-.17-.76l0-.15A6.73,6.73,0,0,0,328.15,80a16.18,16.18,0,0,0-5.53-2,12.25,12.25,0,0,0-4.55-.27,4.7,4.7,0,0,0-3.46,2.31,2.84,2.84,0,0,0,.8,3.59.5.5,0,0,1-.53.85,3.85,3.85,0,0,1-1.16-4.89,5.7,5.7,0,0,1,4.17-2.84,13.14,13.14,0,0,1,4.93.27,17.29,17.29,0,0,1,5.87,2.11,7.77,7.77,0,0,1,3.67,5.15l0,.17a2.71,2.71,0,0,0,.11.54,3.08,3.08,0,0,0,.4.59l.09.11a8.86,8.86,0,0,1,.93,9.35A.5.5,0,0,1,333.48,95.35Z" fill="#231f20"/><path d="M324.37,132.73a.54.54,0,0,1-.34-.12.51.51,0,0,1,0-.71l7.39-8.36-4-4.92a.53.53,0,0,1-.08-.5.5.5,0,0,1,.39-.31l5.23-.87-5.14-6.61a.5.5,0,0,1,.09-.7.5.5,0,0,1,.7.08l5.65,7.27a.49.49,0,0,1,.07.49.47.47,0,0,1-.38.31l-5.21.87,3.7,4.59a.49.49,0,0,1,0,.64l-7.67,8.69A.5.5,0,0,1,324.37,132.73Z" fill="#231f20"/><path d="M344.05,165.86s-1.51,2.92-2.42,3.43a3.49,3.49,0,0,1-2.25.28c.14,1.2.47,1.77-.07,2.85-.66,1.29-2.14,2.54-3.08,3.66a3.46,3.46,0,0,0-.89,1.52,2.4,2.4,0,0,0,.85,2.13,7.34,7.34,0,0,0,2.09,1.15,1.31,1.31,0,0,0,.77.14,1.22,1.22,0,0,0,.36-.18,57.65,57.65,0,0,0,6.42-4.8c1.68-1.44,2.75-3.66,4-5.64" fill="#fff"/><path d="M338.88,181.54a2.12,2.12,0,0,1-.79-.2,7.5,7.5,0,0,1-2.23-1.24,2.86,2.86,0,0,1-1-2.6,4,4,0,0,1,1-1.75c.31-.36.68-.75,1.06-1.14a11.32,11.32,0,0,0,1.95-2.42,2.32,2.32,0,0,0,.14-1.77c0-.24-.08-.49-.12-.79a.51.51,0,0,1,.16-.42.48.48,0,0,1,.43-.13,3,3,0,0,0,1.92-.23,11.53,11.53,0,0,0,2.22-3.22.5.5,0,0,1,.67-.22.51.51,0,0,1,.22.68c-.27.51-1.64,3.09-2.63,3.64a3.73,3.73,0,0,1-1.9.41s0,.07,0,.11a3.31,3.31,0,0,1-.24,2.39,11.59,11.59,0,0,1-2.12,2.66c-.37.38-.72.74-1,1.1a3.16,3.16,0,0,0-.78,1.29,1.87,1.87,0,0,0,.7,1.66,6.65,6.65,0,0,0,1.94,1.07c.14.05.35.15.46.11a.85.85,0,0,0,.21-.11,57.85,57.85,0,0,0,6.36-4.76,16.3,16.3,0,0,0,3.08-4.18c.27-.45.53-.9.81-1.34a.49.49,0,0,1,.84.52c-.27.44-.53.88-.79,1.33a17.15,17.15,0,0,1-3.29,4.43,59.73,59.73,0,0,1-6.46,4.84,1.68,1.68,0,0,1-.52.24A1,1,0,0,1,338.88,181.54Z" fill="#231f20"/><path d="M340.39,116.66s15.15,11.49,20.73,25.87c4.48,11.56-11.11,31.3-11.11,31.3l-8.48-8.07s6.87-10.3,6.26-16-11.91-13.73-11.91-13.73Z" fill="#68e1fd"/><path d="M342.83,149.19a.51.51,0,0,1-.5-.5l-.17-20.19a.5.5,0,0,1,.49-.51h0a.51.51,0,0,1,.5.5l.17,20.19a.51.51,0,0,1-.5.51Z" fill="#231f20"/><path d="M333.34,174.42a.45.45,0,0,1-.29-.1,25.73,25.73,0,0,0-3.83-2.55.5.5,0,0,1,.41-.91,25.57,25.57,0,0,1,4,2.67.48.48,0,0,1,.1.69A.51.51,0,0,1,333.34,174.42Z" fill="#fff"/><path d="M302.27,173.12a.49.49,0,0,1-.42-.24.5.5,0,0,1,.17-.69l5.22-3.13a.5.5,0,1,1,.51.85l-5.22,3.14A.59.59,0,0,1,302.27,173.12Z" fill="#fff"/><rect x="149.86" y="110.42" width="55.66" height="130.19" fill="#fff"/><path d="M205.52,110.42V240.61H149.86V110.42h55.66m0-.92H149.86a.92.92,0,0,0-.91.92V240.61a.91.91,0,0,0,.91.91h55.66a.91.91,0,0,0,.91-.91V110.42a.92.92,0,0,0-.91-.92Z" fill="#231f20"/><rect x="73.51" y="154.42" width="55.66" height="86.19" fill="#fff"/><path d="M129.17,154.42v86.19H73.51V154.42h55.66m0-.92H73.51a.92.92,0,0,0-.91.92v86.19a.91.91,0,0,0,.91.91h55.66a.91.91,0,0,0,.91-.91V154.42a.91.91,0,0,0-.91-.92Z" fill="#231f20"/><rect x="226.21" y="59.5" width="55.66" height="181.11" fill="#fff"/><path d="M281.87,59.5V240.61H226.21V59.5h55.66m0-.91H226.21a.91.91,0,0,0-.91.91V240.61a.91.91,0,0,0,.91.91h55.66a.91.91,0,0,0,.91-.91V59.5a.91.91,0,0,0-.91-.91Z" fill="#231f20"/><polygon points="260.02 85.87 248.53 90.57 262.81 97.18 260.02 85.87" fill="#68e1fd"/><path d="M177.14,222.85a26.42,26.42,0,0,1,6.73-4.39c.2,7.2-2.72,13.82-5.42,18.35h-8.78" fill="#fff"/><path d="M178.45,237.31h-8.78a.51.51,0,0,1-.5-.5.5.5,0,0,1,.5-.5h8.49c2.43-4.14,5.2-10.32,5.22-17.07a26.87,26.87,0,0,0-5.91,4,.51.51,0,0,1-.71,0,.49.49,0,0,1,.05-.7,26.63,26.63,0,0,1,6.87-4.48.53.53,0,0,1,.46,0,.53.53,0,0,1,.23.41c.2,7.42-2.87,14.22-5.49,18.61A.5.5,0,0,1,178.45,237.31Z" fill="#231f20"/><path d="M164.56,224.79c2.16-11.26,11-18.33,11-18.33a41.1,41.1,0,0,1,1.6,16.39,60.62,60.62,0,0,1-3,14h-9.44" fill="#fff"/><path d="M174.1,237.31h-9.44a.51.51,0,0,1-.5-.5.5.5,0,0,1,.5-.5h9.08a59.49,59.49,0,0,0,2.9-13.5,40.73,40.73,0,0,0-1.35-15.47c-2,1.77-8.45,8.24-10.24,17.54a.5.5,0,0,1-.58.4.51.51,0,0,1-.4-.59c2.17-11.3,11.06-18.55,11.15-18.62a.54.54,0,0,1,.46-.09.52.52,0,0,1,.33.33,41,41,0,0,1,1.63,16.59A61.19,61.19,0,0,1,174.58,237,.51.51,0,0,1,174.1,237.31Z" fill="#231f20"/><path d="M159.9,236.81h8.36c.08-2.48-.48-6.22-3.17-11.08-.18-.33-.35-.64-.53-.94-4.84-8.2-9.27-8.11-9.27-8.11C153.42,225.31,157.37,233,159.9,236.81Z" fill="#fff"/><path d="M168.26,237.31H159.9a.52.52,0,0,1-.42-.23c-2.57-3.87-6.59-11.69-4.68-20.51a.51.51,0,0,1,.48-.39c.18,0,4.77,0,9.71,8.35l.54.95c2.81,5.09,3.3,9,3.23,11.35A.5.5,0,0,1,168.26,237.31Zm-8.09-1h7.59a21.77,21.77,0,0,0-3.1-10.34l-.53-.93c-3.79-6.4-7.3-7.59-8.44-7.81C154.11,225.34,157.73,232.56,160.17,236.31Z" fill="#231f20"/><polygon points="161.42 250.06 177.81 250.06 180.45 236.81 158.78 236.81 161.42 250.06" fill="#231f20"/><path d="M65.68,241.56H33a.5.5,0,0,1-.5-.5.5.5,0,0,1,.5-.5H65.68a.51.51,0,0,1,.5.5A.5.5,0,0,1,65.68,241.56Z" fill="#d1d3d4"/><path d="M59.58,237.94a1,1,0,0,1-.84-1.54L102.88,168a1,1,0,0,1,.76-.46,1,1,0,0,1,.82.32L139.68,206l40.58-74.48a1,1,0,0,1,.79-.51,1,1,0,0,1,.86.36l35.83,44,38.94-85.35a1,1,0,0,1,1.82.83l-39.61,86.82a1,1,0,0,1-.79.58,1,1,0,0,1-.9-.37l-35.9-44.13-40.53,74.39a1,1,0,0,1-.75.51,1,1,0,0,1-.86-.31l-35.29-38.24L60.42,237.48A1,1,0,0,1,59.58,237.94Z" fill="#68e1fd"/></g></svg>