<svg xmlns="http://www.w3.org/2000/svg" viewBox="0 0 400 300"><g id="_48_group_presentation" data-name="#48_group_presentation"><path d="M159.69,231.63a23.25,23.25,0,0,0-6-3.9c-.18,6.38,2.41,12.26,4.8,16.28h7.79" fill="#fff"/><path d="M166.31,244.52h-7.79a.5.5,0,0,1-.44-.25c-2.33-3.91-5.06-10-4.88-16.55a.51.51,0,0,1,.24-.42.52.52,0,0,1,.47-.05,23.61,23.61,0,0,1,6.12,4,.52.52,0,1,1-.69.77,23.7,23.7,0,0,0-5.11-3.47c0,5.91,2.46,11.32,4.59,15h7.49a.52.52,0,1,1,0,1Z" fill="#231f20"/><path d="M170.84,233.34c-1.91-10-9.73-16.26-9.73-16.26a36,36,0,0,0-1.42,14.55A53.68,53.68,0,0,0,162.38,244h8.37" fill="#fff"/><path d="M170.75,244.52h-8.37a.52.52,0,0,1-.49-.35,54.29,54.29,0,0,1-2.72-12.5,36.47,36.47,0,0,1,1.45-14.75.51.51,0,0,1,.34-.33.53.53,0,0,1,.47.09c.33.26,8,6.51,9.92,16.56a.53.53,0,0,1-.41.61.51.51,0,0,1-.6-.41c-1.56-8.11-7.15-13.78-9-15.45a36,36,0,0,0-1.16,13.59,52.7,52.7,0,0,0,2.55,11.91h8a.52.52,0,1,1,0,1Z" fill="#231f20"/><path d="M175,244h-7.41c-.08-2.2.42-5.52,2.8-9.83l.48-.84c4.29-7.27,8.22-7.19,8.22-7.19C180.73,233.8,177.22,240.63,175,244Z" fill="#fff"/><path d="M175,244.52h-7.41a.52.52,0,0,1-.52-.49c-.07-2.11.37-5.58,2.87-10.1l.48-.85c4.4-7.45,8.5-7.45,8.68-7.45a.53.53,0,0,1,.5.41c1.7,7.85-1.88,14.8-4.17,18.25A.51.51,0,0,1,175,244.52Zm-6.9-1h6.62c2.15-3.31,5.32-9.65,4-16.77-1.06.23-4.09,1.34-7.37,6.89-.15.26-.31.53-.47.82A19.31,19.31,0,0,0,168.08,243.49Z" fill="#231f20"/><polygon points="173.63 255.77 159.09 255.77 156.75 244.01 175.97 244.01 173.63 255.77" fill="#231f20"/><path d="M199.91,238.1a.51.51,0,0,1-.5-.5V43.82a.5.5,0,0,1,.5-.5.5.5,0,0,1,.5.5V237.6A.5.5,0,0,1,199.91,238.1Z" fill="#d1d3d4"/><path d="M182.55,256.16a.49.49,0,0,1-.35-.15.49.49,0,0,1,0-.7l17.45-18a.53.53,0,0,1,.72,0l17.45,18a.5.5,0,0,1-.72.69L200,238.35,182.91,256A.52.52,0,0,1,182.55,256.16Z" fill="#d1d3d4"/><path d="M199.91,238.1a.51.51,0,0,1-.5-.5V43.82a.5.5,0,0,1,.5-.5.5.5,0,0,1,.5.5V237.6A.5.5,0,0,1,199.91,238.1Z" fill="none" stroke="#231f20" stroke-linecap="round" stroke-linejoin="round"/><path d="M182.55,256.16a.49.49,0,0,1-.35-.15.49.49,0,0,1,0-.7l17.45-18a.53.53,0,0,1,.72,0l17.45,18a.5.5,0,0,1-.72.69L200,238.35,182.91,256A.52.52,0,0,1,182.55,256.16Z" fill="none" stroke="#231f20" stroke-linecap="round" stroke-linejoin="round"/><rect x="124.55" y="47.97" width="150.9" height="111.53" fill="#fff"/><path d="M275.45,160H124.55a.51.51,0,0,1-.51-.51V48a.51.51,0,0,1,.51-.52h150.9A.51.51,0,0,1,276,48V159.5A.51.51,0,0,1,275.45,160Zm-150.38-1H274.93V48.48H125.07Z" fill="#231f20"/><path d="M174.84,122.12H139a.5.5,0,0,1-.5-.5.5.5,0,0,1,.5-.5h35.85a.5.5,0,0,1,.5.5A.5.5,0,0,1,174.84,122.12Z" fill="#d1d3d4"/><path d="M174.84,130.37H139a.5.5,0,0,1-.5-.5.5.5,0,0,1,.5-.5h35.85a.5.5,0,0,1,.5.5A.5.5,0,0,1,174.84,130.37Z" fill="#d1d3d4"/><path d="M174.84,138.61H139a.5.5,0,0,1,0-1h35.85a.5.5,0,1,1,0,1Z" fill="#d1d3d4"/><path d="M166.19,146.86H139a.5.5,0,0,1-.5-.5.5.5,0,0,1,.5-.5h27.2a.5.5,0,0,1,.5.5A.5.5,0,0,1,166.19,146.86Z" fill="#d1d3d4"/><path d="M259.29,148H186.11a.5.5,0,0,1-.5-.5v-45a.5.5,0,0,1,.5-.5h73.18a.5.5,0,0,1,.5.5v45.05A.5.5,0,0,1,259.29,148Zm-72.68-1h72.18V103H186.61Z" fill="#d1d3d4"/><path d="M209.55,89.17H140.14a.5.5,0,0,1-.5-.5V61.05a.5.5,0,0,1,.5-.5h69.41a.5.5,0,0,1,.5.5V88.67A.51.51,0,0,1,209.55,89.17Zm-68.91-1h68.41V61.55H140.64Z" fill="#d1d3d4"/><path d="M259.29,64H223.44a.5.5,0,0,1-.5-.5.51.51,0,0,1,.5-.5h35.85a.5.5,0,0,1,.5.5A.5.5,0,0,1,259.29,64Z" fill="#d1d3d4"/><path d="M259.29,71H223.44a.5.5,0,0,1-.5-.5.51.51,0,0,1,.5-.5h35.85a.5.5,0,0,1,.5.5A.5.5,0,0,1,259.29,71Z" fill="#d1d3d4"/><path d="M259.29,78H223.44a.5.5,0,0,1-.5-.5.51.51,0,0,1,.5-.5h35.85a.5.5,0,0,1,.5.5A.5.5,0,0,1,259.29,78Z" fill="#d1d3d4"/><path d="M259.29,85H223.44a.5.5,0,0,1,0-1h35.85a.5.5,0,0,1,0,1Z" fill="#d1d3d4"/><path d="M372.53,256.6H27.47a.5.5,0,0,1-.5-.5.5.5,0,0,1,.5-.5H372.53a.5.5,0,0,1,.5.5A.5.5,0,0,1,372.53,256.6Z" fill="#231f20"/><path d="M83.39,72.78A53.3,53.3,0,0,1,82,66a10.2,10.2,0,0,1,1.43-6.68,4.16,4.16,0,0,1,2.13-1.73,2.3,2.3,0,0,1,2.51.73,6,6,0,0,1,2.54-2,14,14,0,0,1,7.47-1.43,10.18,10.18,0,0,1,6.69,3.41,28.46,28.46,0,0,0,2,2.49,5.58,5.58,0,0,0,5,1.39,12.76,12.76,0,0,1-5.42,8.43,24.74,24.74,0,0,1-9.5,3.82,15.88,15.88,0,0,1-5.4.39,6.82,6.82,0,0,1-4.63-2.55" fill="#fff"/><path d="M92.9,75.43a11.34,11.34,0,0,1-1.53-.1,7.3,7.3,0,0,1-5-2.76.51.51,0,0,1,.11-.72.52.52,0,0,1,.72.12,6.36,6.36,0,0,0,4.29,2.34,15.74,15.74,0,0,0,5.22-.38A24.06,24.06,0,0,0,106,70.2a12.56,12.56,0,0,0,5.1-7.4,6.07,6.07,0,0,1-4.73-1.63,12.14,12.14,0,0,1-1.31-1.59c-.23-.32-.46-.64-.72-.94A9.57,9.57,0,0,0,98,55.4a13.58,13.58,0,0,0-7.19,1.38,5.72,5.72,0,0,0-2.33,1.78.52.52,0,0,1-.42.23.53.53,0,0,1-.43-.22A1.77,1.77,0,0,0,85.72,58a3.72,3.72,0,0,0-1.86,1.52,9.87,9.87,0,0,0-1.34,6.35,34.86,34.86,0,0,0,1,5c.15.6.29,1.19.42,1.79a.51.51,0,0,1-.39.62.53.53,0,0,1-.61-.4c-.13-.59-.28-1.18-.42-1.77a34.55,34.55,0,0,1-1-5.12A10.88,10.88,0,0,1,83,59a4.68,4.68,0,0,1,2.41-1.92,2.89,2.89,0,0,1,2.62.44,7.21,7.21,0,0,1,2.36-1.64,14.41,14.41,0,0,1,7.74-1.47,10.66,10.66,0,0,1,7,3.59c.27.33.52.67.77,1a10.54,10.54,0,0,0,1.18,1.44,5.05,5.05,0,0,0,4.53,1.25.53.53,0,0,1,.46.13.49.49,0,0,1,.16.44A13.23,13.23,0,0,1,106.64,71a24.94,24.94,0,0,1-9.7,3.91A20.22,20.22,0,0,1,92.9,75.43Z" fill="#231f20"/><path d="M99.8,83.1l.67,8.27s-2.46,5.14-7.81,3.9a11,11,0,0,1-7.3-5.92l-.08-15.07s3.94-2.15,2.7-10.73a26.48,26.48,0,0,0,13.89,1.8s2.51,9.3,1.91,13.44S99.8,83.1,99.8,83.1Z" fill="#fff"/><path d="M94.28,96a7.88,7.88,0,0,1-1.74-.2,11.42,11.42,0,0,1-7.66-6.22.65.65,0,0,1,0-.19l-.08-15.07a.53.53,0,0,1,.27-.46s3.61-2.14,2.44-10.21a.51.51,0,0,1,.2-.49.53.53,0,0,1,.53-.05,26.24,26.24,0,0,0,13.6,1.76.5.5,0,0,1,.57.37c.11.39,2.53,9.46,1.92,13.66a5.14,5.14,0,0,1-3.94,4.66l.63,7.8a.46.46,0,0,1,0,.26S98.78,96,94.28,96Zm-8.41-6.73a10.52,10.52,0,0,0,6.91,5.52c4.49,1,6.77-2.74,7.16-3.49l-.66-8.13a.56.56,0,0,1,.13-.39.53.53,0,0,1,.36-.17h0c.12,0,3-.21,3.5-3.86.51-3.49-1.3-10.93-1.78-12.8A27.46,27.46,0,0,1,88.6,64.37c.76,6.94-1.91,9.53-2.8,10.19Z" fill="#231f20"/><path d="M99.94,87.21a6.94,6.94,0,0,1-5.49-1.73c-2.37-2.25-2.18-3.56-2.18-3.56s3.82,2,7.31,1.31Z" fill="#231f20"/><path d="M99.12,87.76a7.23,7.23,0,0,1-5-1.92c-2.49-2.35-2.35-3.83-2.33-4a.49.49,0,0,1,.27-.38.5.5,0,0,1,.46,0s3.7,2,7,1.26a.48.48,0,0,1,.4.09.52.52,0,0,1,.2.35l.36,4a.49.49,0,0,1-.42.53A5.46,5.46,0,0,1,99.12,87.76ZM93,82.8a7.75,7.75,0,0,0,1.81,2.32,6.43,6.43,0,0,0,4.6,1.64l-.27-3A12.44,12.44,0,0,1,93,82.8Z" fill="#231f20"/><path d="M96.07,70.52s2.54,4.67,1.77,5.37-2.68,0-2.68,0" fill="#fff"/><path d="M96.77,76.7A5.8,5.8,0,0,1,95,76.37a.5.5,0,1,1,.34-.94c.66.23,1.8.43,2.18.09.14-.39-.72-2.63-1.88-4.76a.5.5,0,0,1,.88-.48c1.24,2.29,2.54,5.18,1.67,6A2.09,2.09,0,0,1,96.77,76.7Z" fill="#231f20"/><path d="M96,79.82h-.32a5.67,5.67,0,0,1-4-2.13.51.51,0,0,1,0-.71.51.51,0,0,1,.71,0,4.68,4.68,0,0,0,3.24,1.79,6.22,6.22,0,0,0,4-1.52.51.51,0,0,1,.71,0,.5.5,0,0,1,0,.71A7.39,7.39,0,0,1,96,79.82Z" fill="#231f20"/><ellipse cx="92.8" cy="69.73" rx="1.2" ry="0.52" transform="translate(17.1 157.73) rotate(-86.22)" fill="#231f20"/><ellipse cx="99.94" cy="69.73" rx="1.2" ry="0.52" transform="translate(23.77 164.85) rotate(-86.22)" fill="#231f20"/><path d="M88.71,72.07A7.22,7.22,0,0,0,86.87,70a2.46,2.46,0,0,0-1.37-.6,2.16,2.16,0,0,0-1.17.35,4.32,4.32,0,0,0-2.06,2.88,3.41,3.41,0,0,0,.06,1.68,3.77,3.77,0,0,0,1.67,2,11.19,11.19,0,0,0,2.43,1.06" fill="#fff"/><path d="M86.43,77.86a.52.52,0,0,1-.17,0,12.09,12.09,0,0,1-2.54-1.11,4.33,4.33,0,0,1-1.88-2.29,3.86,3.86,0,0,1-.08-1.92,4.85,4.85,0,0,1,2.31-3.24,2.65,2.65,0,0,1,1.45-.42,3.06,3.06,0,0,1,1.67.71,7.82,7.82,0,0,1,2,2.24.52.52,0,0,1-.19.71.51.51,0,0,1-.7-.19,7.05,7.05,0,0,0-1.71-1.94,2,2,0,0,0-1.08-.5,1.56,1.56,0,0,0-.89.28,3.85,3.85,0,0,0-1.82,2.54,3,3,0,0,0,0,1.43,3.36,3.36,0,0,0,1.45,1.72,11.13,11.13,0,0,0,2.33,1,.52.52,0,0,1,.32.66A.51.51,0,0,1,86.43,77.86Z" fill="#231f20"/><path d="M57,245.35s-3.19,8.73-1.78,9.57,22.47,1.2,29.79,0c2.36-.39-11.11-9-11.11-9" fill="#fff"/><path d="M69.33,256.21c-7,0-13.48-.32-14.38-.86-1.53-.92.33-6.77,1.57-10.17a.51.51,0,0,1,.64-.3.5.5,0,0,1,.3.64c-1.57,4.3-2.5,8.49-2,9,1.26.67,21.22,1.19,29.19,0-.9-1.25-6.11-5-11-8.15a.49.49,0,0,1-.15-.69.5.5,0,0,1,.69-.15c5.45,3.5,11.89,7.95,11.61,9.35a.77.77,0,0,1-.69.58A119.17,119.17,0,0,1,69.33,256.21Z" fill="#231f20"/><path d="M105.65,241.29l.38,14.08s28.9,1.44,27.4-.44-15-11.83-15-11.83L116.57,233Z" fill="#fff"/><path d="M123.83,256.41c-5.7,0-12.67-.29-17.83-.54a.5.5,0,0,1-.47-.49l-.38-14.08a.51.51,0,0,1,.2-.41l10.91-8.32a.5.5,0,0,1,.8.3l1.84,9.94c1.6,1.18,13.47,10,14.92,11.81a.67.67,0,0,1,.09.75C133.51,256.15,129.25,256.41,123.83,256.41Zm-17.32-1.52c11.48.56,24,.75,26.28.07-1.87-1.89-10.25-8.21-14.64-11.46a.5.5,0,0,1-.2-.31l-1.73-9.34-10.06,7.68Z" fill="#231f20"/><path d="M108.87,143.58,121.45,245l-16.52.37L86.16,174.66l-10.4,71.25L56.62,245s3.33-39.8,5.07-55,4.42-41.33,4.42-41.33Z" fill="#231f20"/><path d="M85.88,173.2a.51.51,0,0,1-.32-.12c-.25-.21-6.09-5.18-6.12-13a.5.5,0,0,1,.5-.5h0a.51.51,0,0,1,.5.5c0,7.37,5.71,12.22,5.76,12.27a.49.49,0,0,1,.06.7A.48.48,0,0,1,85.88,173.2Z" fill="#fff"/><polygon points="155.39 108.86 173.98 65.69 175.29 66.06 158.15 110.27 155.39 108.86" fill="#231f20"/><path d="M145,110.77a49.73,49.73,0,0,0,6.09-3.31c3-2,4.4-5,6.27-8.1a1.85,1.85,0,0,1,.69-.75,1.27,1.27,0,0,1,1.47.46,3.71,3.71,0,0,1,.59,1.55,13.14,13.14,0,0,1,4-3,1.17,1.17,0,0,1,.57-.16,1.15,1.15,0,0,1,.65.34,7.09,7.09,0,0,1,2.31,6c-.74,6.35-10.63,12.33-15.72,14.86" fill="#fff"/><path d="M151.89,119.18a.49.49,0,0,1-.45-.28.5.5,0,0,1,.22-.67c2.44-1.21,14.66-7.59,15.45-14.47A6.57,6.57,0,0,0,165,98.17c-.07,0-.24-.21-.35-.21a1,1,0,0,0-.32.11,12.61,12.61,0,0,0-3.83,2.89.51.51,0,0,1-.86-.23,3.26,3.26,0,0,0-.49-1.35.78.78,0,0,0-.86-.32,1.41,1.41,0,0,0-.48.57c-.34.54-.65,1.08-1,1.61-1.48,2.52-2.87,4.9-5.45,6.63a51.23,51.23,0,0,1-6.15,3.35.5.5,0,0,1-.67-.24.49.49,0,0,1,.23-.66,49.59,49.59,0,0,0,6-3.28c2.39-1.6,3.73-3.89,5.15-6.3l1-1.64a2.36,2.36,0,0,1,.9-.94,1.77,1.77,0,0,1,2.09.6,2.89,2.89,0,0,1,.45.87,13.58,13.58,0,0,1,3.5-2.46,1.57,1.57,0,0,1,.83-.21,1.64,1.64,0,0,1,.94.46,7.58,7.58,0,0,1,2.47,6.46c-.83,7.2-12.45,13.49-16,15.25A.59.59,0,0,1,151.89,119.18Z" fill="#231f20"/><path d="M148.45,104.92s-19.51,10.83-22.9,8.12c-7.14-5.69-18.58-20-22.19-23.61-5.41-5.44-23-8.31-30.17-.52,0,0-6.12,6.35-12,19.2-4.63,10.08-7.74,25-6.75,26.28,1.23,1.54,6.43,6,11.27,4.48-.86,10.58-.54,12.44-.54,12.44,13,10.3,47.08-.52,47.08-.52l-3.77-29.37s1.52,8,14.09,10.6,35.61-14.15,35.61-14.15Z" fill="#68e1fd"/><path d="M108.87,123.06a.51.51,0,0,1-.36-.15,147.16,147.16,0,0,1-10.58-12.19.5.5,0,0,1,.1-.7.52.52,0,0,1,.7.1,144.77,144.77,0,0,0,10.5,12.09.5.5,0,0,1,0,.71A.49.49,0,0,1,108.87,123.06Z" fill="#231f20"/><path d="M65.5,142.37a.51.51,0,0,1-.5-.49c0-.25-.67-25.76,8.11-51.41a.5.5,0,0,1,.63-.31.51.51,0,0,1,.32.64C65.34,116.27,66,141.6,66,141.85a.5.5,0,0,1-.48.52Z" fill="#231f20"/><polygon points="319.11 213.23 321.94 253.49 334.15 251.68 334.13 211.35 319.11 213.23" fill="#fff"/><path d="M321.48,254.06l-2.9-41.27,16.05-2,0,41.33Zm-1.83-40.4,2.75,39.26,11.25-1.67,0-39.33Z" fill="#231f20"/><path d="M335.21,256.1a56.64,56.64,0,0,0,0-5.68s-13.26.91-12.78-.22a22.4,22.4,0,0,0-.71-3.72s-8.3,3-10.56,5-3.09,3.16-2.15,4.09S335.21,256.1,335.21,256.1Z" fill="#231f20"/><path d="M324,256.63c-7.28,0-14.68-.15-15.3-.76a1.59,1.59,0,0,1-.5-1.17c0-1,1-2,2.68-3.57,2.29-2.06,10.36-4.95,10.71-5.07a.43.43,0,0,1,.35,0,.44.44,0,0,1,.22.28,19.13,19.13,0,0,1,.73,3.73c1.09.38,7,.24,12.3-.12a.44.44,0,0,1,.33.11.41.41,0,0,1,.14.31c.17,5.69,0,5.84-.13,6a.58.58,0,0,1-.32.14h0C332.41,256.58,328.23,256.63,324,256.63Zm-2.58-9.57c-1.76.65-8.09,3.05-9.95,4.73-1.23,1.11-2.37,2.23-2.39,2.93a.67.67,0,0,0,.25.52c1.07.57,16.05.56,25.5.42,0-.76,0-2.81,0-4.77-5.55.37-12.06.6-12.7-.29A.58.58,0,0,1,322,250,23.93,23.93,0,0,0,321.43,247.06Z" fill="#231f20"/><polygon points="290.55 217.11 291.58 253.49 303.79 251.68 306.35 213.23 290.55 217.11" fill="#fff"/><path d="M291.09,254.07l-1-37.35,16.85-4.14-2.63,39.54Zm0-36.57,1,35.41,11.25-1.66,2.5-37.37Z" fill="#231f20"/><path d="M276.18,121.47l-6.25,7s-22-9.72-23.08-11.45-4.27-5.86-5.21-5.67.84,4.93.84,4.93-9.17-3.9-9.17-3.15-.31,6.62.82,7,33.44,23.84,37.94,22.52,9.17-7.32,9.17-7.32" fill="#fff"/><path d="M271.69,143.18c-4.06,0-18.1-9.23-32.79-19.29-2.48-1.71-4.63-3.18-4.93-3.31-.93-.31-1.25-2.26-1.13-7,0-.2,0-.35,0-.44a.59.59,0,0,1,.24-.44c.22-.15.78-.52,8.61,2.76-.48-1.43-1-3.46-.65-4.18a.78.78,0,0,1,.5-.37c1.58-.31,5.64,5.81,5.68,5.87.76,1.16,14.12,7.39,22.58,11.15l6-6.78a.46.46,0,0,1,.69.6l-6.24,7a.48.48,0,0,1-.53.11c-3.69-1.63-22.14-9.87-23.29-11.62-1.44-2.21-3.84-5.08-4.64-5.43a14.31,14.31,0,0,0,1.09,4.28.47.47,0,0,1-.11.49.46.46,0,0,1-.5.09,69.44,69.44,0,0,0-8.54-3.18s0,0,0,.08c-.13,5.25.38,6,.54,6.1s1.28.77,5.13,3.41c8.76,6,29.25,20.06,32.53,19.1,4.31-1.26,8.89-7.1,8.93-7.16a.46.46,0,0,1,.72.56c-.19.25-4.8,6.14-9.4,7.48A2,2,0,0,1,271.69,143.18Z" fill="#231f20"/><path d="M286.12,220.73c-.2-18.64.14-47.67.14-58.75s5.26-27.93,5.26-27.93l36.75-1.2s7.36,37,9.05,87.88Z" fill="#231f20"/><path d="M337.32,221.18h-51.2a.44.44,0,0,1-.44-.44c-.14-12.65,0-29.71.06-43.43,0-6.34.08-11.76.08-15.33,0-11,5.22-27.89,5.28-28.06a.44.44,0,0,1,.4-.31l36.76-1.2a.48.48,0,0,1,.45.36c.07.37,7.38,37.63,9.05,87.95a.41.41,0,0,1-.12.32A.45.45,0,0,1,337.32,221.18Zm-50.77-.89h50.32c-1.61-47.34-8.2-83-9-87l-36.06,1.17c-.7,2.31-5.15,17.43-5.15,27.5,0,3.57,0,9-.08,15.34C286.53,190.87,286.42,207.7,286.55,220.29Z" fill="#231f20"/><path d="M323.14,89.82c-.37-2.39,1.37-4.88,1.83-7.39.66-3.54-1.25-6.73-2.77-9.76s-1.69-6.3-3.63-8.79c-3.67-4.7-11.28-7.82-17.05-5.62-6.5,2.48-11.17,9.06-10.27,16.13.21,1.65.7,3.31.35,4.93-.72,3.45-5,6-4.21,9.41.28,1.18,1.14,2.13,1.59,3.25,1.44,3.53-1.34,7.24-2.07,11-.64,3.29.35,6.65,1.41,9.83.91,2.76,2.08,5.74,4.62,7.14a11,11,0,0,0,5.25,1c8,.13,16.44-1.43,22.46-6.69s8.6-15,4-21.52a10.55,10.55,0,0,1-1.29-2A3.75,3.75,0,0,1,323.14,89.82Z" fill="#fff"/><path d="M299.06,121.43h-.88a11.56,11.56,0,0,1-5.47-1.09c-2.68-1.49-3.9-4.6-4.82-7.39-1.08-3.25-2.08-6.7-1.42-10.07a24.35,24.35,0,0,1,1.19-3.78c.92-2.44,1.79-4.75.9-6.93a10.33,10.33,0,0,0-.67-1.27,7.14,7.14,0,0,1-.94-2.06c-.52-2.18.81-4,2.1-5.75a10.84,10.84,0,0,0,2.11-3.85A9.44,9.44,0,0,0,291,75.7c-.07-.41-.14-.83-.19-1.25-.89-7,3.55-13.94,10.55-16.62,6.23-2.37,14,1.15,17.58,5.77a15.85,15.85,0,0,1,2.34,5.24,24.15,24.15,0,0,0,1.34,3.62l.48.94c1.45,2.85,3,5.79,2.33,9.11a17,17,0,0,1-.92,2.94,8.8,8.8,0,0,0-.91,4.3h0a3.17,3.17,0,0,0,.22.8,6.85,6.85,0,0,0,.91,1.49l.32.45c3.88,5.54,3.41,15.57-4.09,22.12C315.84,119.08,308.28,121.43,299.06,121.43ZM305.58,58a10.9,10.9,0,0,0-3.9.69c-6.62,2.52-10.81,9.1-10,15.65.05.4.12.81.19,1.21a10.27,10.27,0,0,1,.16,3.87,11.33,11.33,0,0,1-2.27,4.2c-1.21,1.66-2.36,3.23-1.95,5a6.55,6.55,0,0,0,.85,1.8,10.77,10.77,0,0,1,.73,1.39c1,2.52,0,5.11-.89,7.6a22.92,22.92,0,0,0-1.16,3.64c-.61,3.15.31,6.34,1.39,9.6.88,2.63,2,5.55,4.41,6.89a10.75,10.75,0,0,0,5,1c9.38.16,17.05-2.12,22.15-6.58,7.12-6.21,7.59-15.69,3.94-20.91-.1-.14-.2-.29-.31-.43a8.17,8.17,0,0,1-1-1.69,4.35,4.35,0,0,1-.27-1,9.58,9.58,0,0,1,.95-4.76,16.65,16.65,0,0,0,.88-2.79c.56-3-.86-5.81-2.25-8.52l-.48-.95a23.37,23.37,0,0,1-1.39-3.76,14.92,14.92,0,0,0-2.19-5A17.13,17.13,0,0,0,305.58,58Z" fill="#231f20"/><path d="M290.13,98.39,272.22,121s1.8,4.07,9.16,20.62c6.49-3.24,17.31-20.79,17.31-20.79Z" fill="#68e1fd"/><path d="M306.48,92.86S292.2,94.18,288.84,100s-2.47,40.19-2.47,40.19l43.46.81s4.32-34.67-1.58-43.67C326,92.23,320.05,92.24,306.48,92.86Z" fill="#68e1fd"/><polygon points="314.9 93.5 313.81 140.78 299.45 140.22 302.25 95.79 314.9 93.5" fill="#fff"/><path d="M302.3,88.07l-.05,8.34s.84,4.66,5.92,3.24a10.48,10.48,0,0,0,6.73-6l-.58-14.43a26.24,26.24,0,0,1-.83-7.74c-6.16-.1-11-4.75-11-4.75s-2.12,3.19-3,4.19a12.85,12.85,0,0,0-1.9,2.51,11,11,0,0,0-.78,5.38,34.82,34.82,0,0,0,.63,6.28C298.2,89,302.3,88.07,302.3,88.07Z" fill="#fff"/><path d="M306.36,100.37a4.53,4.53,0,0,1-2.41-.65,5.29,5.29,0,0,1-2.15-3.23l0-7.89a5,5,0,0,1-3.13-.63,4.11,4.11,0,0,1-1.77-2.77,34.92,34.92,0,0,1-.64-6.36c0-1.72-.08-3.88.84-5.6a12.68,12.68,0,0,1,2-2.61c.88-1,3-4.1,3-4.13a.47.47,0,0,1,.7-.08c.05,0,4.8,4.53,10.7,4.62a.55.55,0,0,1,.32.14.51.51,0,0,1,.13.33,23.61,23.61,0,0,0,.68,7,3.68,3.68,0,0,1,.15.74c0,.1.58,14.43.58,14.43a.57.57,0,0,1,0,.18,10.86,10.86,0,0,1-7,6.26A7.2,7.2,0,0,1,306.36,100.37Zm-3.65-4a3.84,3.84,0,0,0,5.33,2.8,10.15,10.15,0,0,0,6.4-5.62c-.57-14.34-.57-14.34-.57-14.35a4.43,4.43,0,0,0-.12-.54,24,24,0,0,1-.72-6.76c-5.11-.25-9.19-3.41-10.46-4.49a45.81,45.81,0,0,1-2.79,3.8,12.66,12.66,0,0,0-1.84,2.42,10.69,10.69,0,0,0-.72,5.16,34.23,34.23,0,0,0,.61,6.19,3.25,3.25,0,0,0,1.37,2.18,4.5,4.5,0,0,0,3,.43.45.45,0,0,1,.56.44l-.05,8.34Z" fill="#231f20"/><path d="M302.35,92.17a8,8,0,0,0,5.56-2.11,5.85,5.85,0,0,0,1.85-4.53,16.15,16.15,0,0,1-7.46,2.54Z" fill="#231f20"/><path d="M302.5,92.61h-.17a.45.45,0,0,1-.42-.44l-.05-4.09a.44.44,0,0,1,.43-.45,16,16,0,0,0,7.23-2.46.42.42,0,0,1,.42,0,.44.44,0,0,1,.26.34,6.29,6.29,0,0,1-2,4.9A8.33,8.33,0,0,1,302.5,92.61Zm.25-4.12,0,3.23a7.39,7.39,0,0,0,4.8-2,5.78,5.78,0,0,0,1.72-3.43A16.14,16.14,0,0,1,302.75,88.49Z" fill="#231f20"/><path d="M305.25,76.1s-2.68,4-2,4.7,2.42.23,2.42.23" fill="#fff"/><path d="M304.46,81.62a2.14,2.14,0,0,1-1.58-.52c-.72-.79.7-3.29,2-5.25a.44.44,0,0,1,.73.49c-1.22,1.84-2.19,3.79-2.06,4.19.29.31,1.35.23,2,.07a.45.45,0,0,1,.54.32.44.44,0,0,1-.32.54A5.47,5.47,0,0,1,304.46,81.62Z" fill="#231f20"/><ellipse cx="301.45" cy="75.39" rx="0.86" ry="0.46" transform="translate(214.27 373.64) rotate(-87.75)" fill="#231f20"/><ellipse cx="307.8" cy="74.6" rx="0.86" ry="0.46" transform="translate(221.16 379.23) rotate(-87.75)" fill="#231f20"/><path d="M303.43,83.15l2.13-.55s.44,3.12-.76,3.39S303.43,83.15,303.43,83.15Z" fill="#fff"/><path d="M304.65,86.45a1,1,0,0,1-.64-.22c-.85-.65-1-2.66-1-3.06a.43.43,0,0,1,.33-.45l2.13-.55a.46.46,0,0,1,.36.06.48.48,0,0,1,.19.31c.08.59.42,3.54-1.11,3.88A1,1,0,0,1,304.65,86.45Zm-.75-3a3.74,3.74,0,0,0,.65,2,.16.16,0,0,0,.15,0c.44-.1.55-1.35.47-2.4Z" fill="#231f20"/><path d="M286.24,140.79h-.05a.44.44,0,0,1-.39-.49l3.89-34.15a.44.44,0,1,1,.88.1l-3.89,34.15A.45.45,0,0,1,286.24,140.79Z" fill="#231f20"/><path d="M311.54,75a7.8,7.8,0,0,1,1.56-2.82,2.68,2.68,0,0,1,2.95-.72,3.3,3.3,0,0,1,1.43,3.09,13.08,13.08,0,0,1-.73,4,4.62,4.62,0,0,1-1.14,2.08,1.85,1.85,0,0,1-2.2.31" fill="#fff"/><path d="M314.23,81.6a1.9,1.9,0,0,1-1.08-.33.44.44,0,0,1-.11-.63.45.45,0,0,1,.63-.12,1.4,1.4,0,0,0,1.63-.27,4.33,4.33,0,0,0,1-1.89,12.7,12.7,0,0,0,.71-3.85c0-.49-.09-2.14-1.18-2.68a2.26,2.26,0,0,0-2.43.63A7.55,7.55,0,0,0,312,75.13a.46.46,0,0,1-.59.26.46.46,0,0,1-.27-.59,8.41,8.41,0,0,1,1.66-3,3.16,3.16,0,0,1,3.48-.81c1.53.75,1.69,2.7,1.69,3.5a13.33,13.33,0,0,1-.75,4.14,5.18,5.18,0,0,1-1.27,2.27A2.59,2.59,0,0,1,314.23,81.6Z" fill="#231f20"/><path d="M344.08,178.46c-.94.2-31.72-14-31.72-14l-11.08,22.72,32.4,15.58Z" fill="#68e1fd"/><path d="M341.46,131.47s-3,34.8-11.08,45.32c0,0-5.8,5.28-7.41,3.59s-2.73-5.45-1.6-6.76a26.74,26.74,0,0,1,3.37-3s-2-2.26-1.77-2.82,3.25-2.44,3.25-2.44l2-32.51" fill="#fff"/><path d="M323.83,181.16a1.56,1.56,0,0,1-1.19-.47c-1.61-1.69-3-5.75-1.62-7.37a25,25,0,0,1,3.06-2.77c-1.26-1.44-1.77-2.43-1.52-3s2.21-1.86,3.22-2.5l2-32.27a.44.44,0,0,1,.45-.43h0a.46.46,0,0,1,.43.48l-2.06,32.51a.47.47,0,0,1-.21.36,17.71,17.71,0,0,0-3.08,2.26,11.07,11.07,0,0,0,1.7,2.3.46.46,0,0,1,.12.35.44.44,0,0,1-.18.32,27.13,27.13,0,0,0-3.31,2.94c-.88,1,0,4.48,1.59,6.14.89.94,4.56-1.6,6.77-3.6,7.84-10.25,10.9-44.68,10.93-45a.48.48,0,0,1,.5-.41.46.46,0,0,1,.42.49c-.13,1.43-3.12,35.05-11.18,45.56C329.84,177.89,326.12,181.16,323.83,181.16Z" fill="#231f20"/><path d="M326.22,94.67s8,5.56,10.58,10.81,7.28,30.41,7.28,30.41H325Z" fill="#68e1fd"/><path d="M339.57,136.33H325a.45.45,0,0,1-.44-.41l-2.3-29.7a.43.43,0,0,1,.41-.47.43.43,0,0,1,.47.4l2.27,29.3h14.18a.44.44,0,0,1,.45.44A.45.45,0,0,1,339.57,136.33Z" fill="#231f20"/><path d="M304.85,256.1a56.64,56.64,0,0,0,0-5.68s-13.26.91-12.79-.22a22.47,22.47,0,0,0-.7-3.72s-8.31,3-10.56,5-3.1,3.16-2.16,4.09S304.85,256.1,304.85,256.1Z" fill="#231f20"/><path d="M293.65,256.63c-7.29,0-14.69-.15-15.3-.76a1.52,1.52,0,0,1-.5-1.17c0-1,1-2,2.68-3.57,2.29-2.06,10.36-4.95,10.7-5.07a.45.45,0,0,1,.36,0,.44.44,0,0,1,.22.28,19.13,19.13,0,0,1,.73,3.73c1.09.38,7,.24,12.3-.12a.44.44,0,0,1,.33.11.45.45,0,0,1,.14.31c.17,5.69,0,5.85-.14,6a.52.52,0,0,1-.32.14h0C302.05,256.58,297.87,256.63,293.65,256.63Zm-2.58-9.57c-1.76.65-8.09,3.05-9.95,4.73-1.23,1.11-2.37,2.23-2.39,2.93a.65.65,0,0,0,.24.52c1.08.57,16.06.57,25.51.42,0-.76,0-2.81,0-4.77-5.55.37-12.06.6-12.7-.29a.58.58,0,0,1-.06-.57A26.11,26.11,0,0,0,291.07,247.06Z" fill="#231f20"/></g></svg>