<svg xmlns="http://www.w3.org/2000/svg" viewBox="0 0 400 300"><g id="_474_growth_flatline" data-name="#474_growth_flatline"><path d="M44.35,238.58s172.86-6.77,198.78-6.77c35.39,0,41.53-17.43,47.17-40.85,6.05-25.17,20.62-79.06,20.62-79.06l-14.57.65,48-60L358,111.9l-8.86.5s-14.65,74-19.71,93.17c-8.25,31.34-11.72,57.73-92.15,57.73-77.69,0-172.35,4-172.35,4Z" fill="#fff"/><path d="M65,267.82a.46.46,0,0,1-.4-.21L44,238.88a.51.51,0,0,1,.39-.8c1.72-.06,173.15-6.77,198.79-6.77,34.37,0,40.8-16,46.68-40.46,5.63-23.4,18.76-72.17,20.44-78.42l-13.87.62a.48.48,0,0,1-.47-.28.51.51,0,0,1,0-.54l48-60a.48.48,0,0,1,.5-.17.51.51,0,0,1,.38.37l13.65,59.35a.51.51,0,0,1-.09.41.49.49,0,0,1-.37.2l-8.48.48c-1.14,5.76-14.82,74.54-19.63,92.81-.34,1.26-.66,2.52-1,3.76-3.8,14.65-7.38,28.49-19.69,38.38-13.57,10.89-36.44,16-72,16-76.8,0-171.38,4-172.32,4ZM45.3,239.05l19.9,27.76c5.68-.24,97.32-4,172.1-4,76.81,0,82.93-23.65,90.69-53.6.32-1.25.65-2.5,1-3.76,5-18.95,19.55-92.4,19.7-93.13a.5.5,0,0,1,.46-.41l8.27-.46L344.11,53.68,297.43,112l13.46-.6a.46.46,0,0,1,.42.19.5.5,0,0,1,.09.44c-.15.54-14.63,54.17-20.62,79.05-5.81,24.14-12.62,41.23-47.65,41.23C218.49,232.31,59,238.51,45.3,239.05Z" fill="#231f20"/><path d="M118.91,208.05c-.39.27-10,2.4-10,2.4l.66,12.66,12.25-3.74Z" fill="#fff"/><path d="M109.59,223.61a.52.52,0,0,1-.29-.09.51.51,0,0,1-.21-.38l-.66-12.66a.5.5,0,0,1,.39-.52c3.55-.79,9.36-2.12,9.86-2.34a.42.42,0,0,1,.43,0,.47.47,0,0,1,.29.35l2.93,11.32a.49.49,0,0,1-.34.6l-12.25,3.74A.39.39,0,0,1,109.59,223.61Zm-.14-12.76.61,11.6L121.24,219l-2.68-10.35C117,209.14,113,210.06,109.45,210.85Z" fill="#231f20"/><polygon points="267.81 202.95 279.18 209.7 286.19 199.13 277.4 193.89 267.81 202.95" fill="#fff"/><path d="M279.18,210.2a.59.59,0,0,1-.26-.07l-11.36-6.75a.47.47,0,0,1-.24-.38.51.51,0,0,1,.15-.42l9.59-9.05a.5.5,0,0,1,.6-.07l8.79,5.24a.51.51,0,0,1,.16.71l-7,10.56A.51.51,0,0,1,279.18,210.2Zm-10.54-7.34L279,209l6.46-9.73-8-4.78Z" fill="#231f20"/><path d="M240.84,83.53l-2.59-4.66s-4.07-1.4-5.06-3.4-1.67-4.65-.47-5.52,8.23-3.74,9.48-2.87,7.37,13.52,7.37,13.52" fill="#fff"/><path d="M240.84,84a.49.49,0,0,1-.43-.26l-2.51-4.5c-.83-.31-4.2-1.65-5.16-3.58-1.08-2.16-1.81-5.06-.31-6.15,1-.71,8.43-4,10-2.87,1.29.89,6.51,11.58,7.54,13.71a.5.5,0,1,1-.9.43c-3-6.16-6.5-12.83-7.21-13.32s-7.44,1.8-8.9,2.86c-.87.63-.33,3,.62,4.9.75,1.48,3.7,2.77,4.78,3.14a.51.51,0,0,1,.27.23l2.6,4.66a.49.49,0,0,1-.19.68A.45.45,0,0,1,240.84,84Z" fill="#231f20"/><path d="M224.26,93.77l21.55,12.93-7.7-24.26s10.92-4.5,11.72-5,24,37.09,12.85,45.26S218,117.58,218,117.58Z" fill="#68e1fd"/><rect x="81.95" y="156.28" width="49.74" height="32.26" rx="4.22" transform="translate(96.78 -30.16) rotate(28.94)" fill="#fff"/><path d="M119.12,197.55a4.69,4.69,0,0,1-2.27-.59L80.7,177a4.72,4.72,0,0,1-1.85-6.41l11.53-20.85a4.7,4.7,0,0,1,2.82-2.25,4.64,4.64,0,0,1,3.59.41l36.15,20a4.72,4.72,0,0,1,1.85,6.41l-11.53,20.85a4.67,4.67,0,0,1-2.83,2.24A4.51,4.51,0,0,1,119.12,197.55ZM94.51,148.27a3.67,3.67,0,0,0-1,.15,3.74,3.74,0,0,0-2.22,1.77L79.73,171a3.72,3.72,0,0,0,1.45,5.05l36.15,20h0a3.71,3.71,0,0,0,5-1.45l11.53-20.85a3.7,3.7,0,0,0,.32-2.82,3.66,3.66,0,0,0-1.77-2.23l-36.15-20A3.72,3.72,0,0,0,94.51,148.27Z" fill="#231f20"/><path d="M127.62,175.94a.44.44,0,0,1-.24-.07L93,156.84a.51.51,0,0,1-.2-.68.5.5,0,0,1,.68-.2l34.42,19a.5.5,0,0,1,.2.68A.51.51,0,0,1,127.62,175.94Z" fill="#d1d3d4"/><path d="M122.67,163.25a.55.55,0,0,1-.25-.07l-16.08-8.89a.49.49,0,0,1-.19-.68l1.7-3.08a3.69,3.69,0,0,1,5-1.44l10.5,5.81a3.68,3.68,0,0,1,1.44,5L123.1,163a.52.52,0,0,1-.3.24Zm-15.41-9.59,15.21,8.41,1.46-2.65a2.67,2.67,0,0,0-1.05-3.64L112.37,150a2.7,2.7,0,0,0-3.65,1.06Z" fill="#231f20"/><path d="M129,143.56s-1.7,3-2.66,5.21a32,32,0,0,0-1.52,6.56c-.52-.72-1.43-1-2-1.6a8.67,8.67,0,0,1-.87,2.75,2.92,2.92,0,0,1-2.32,1.54,3.73,3.73,0,0,1-1.49-.35c-1.72-.69-4.56-1.95-4.79-4.1a4.28,4.28,0,0,1,.63-2.36c1.56-3,8.13-10.78,9.21-12" fill="#fff"/><path d="M119.62,158.52a4.37,4.37,0,0,1-1.62-.38c-1.45-.59-4.84-1.95-5.11-4.52a4.75,4.75,0,0,1,.69-2.64c1.72-3.36,9.2-12,9.27-12.13a.5.5,0,0,1,.76.66c-1.93,2.22-7.74,9.19-9.14,11.93a3.88,3.88,0,0,0-.59,2.08c.19,1.74,2.5,2.89,4.49,3.69a3.35,3.35,0,0,0,1.29.31,2.44,2.44,0,0,0,1.89-1.29,8.17,8.17,0,0,0,.82-2.59.51.51,0,0,1,.36-.39.5.5,0,0,1,.51.16,3.83,3.83,0,0,0,.82.62l.44.29a27.21,27.21,0,0,1,1.42-5.75c1-2.24,2.62-5.14,2.69-5.26a.5.5,0,0,1,.87.5s-1.7,3-2.65,5.16a32.43,32.43,0,0,0-1.47,6.43.5.5,0,0,1-.37.42.51.51,0,0,1-.53-.19,3.19,3.19,0,0,0-.93-.75l-.35-.23a7.41,7.41,0,0,1-.76,2.09,3.4,3.4,0,0,1-2.74,1.78Z" fill="#231f20"/><path d="M210.2,153.13l-39.88.86-20,51.32c7,1.36,19.77,1.55,26.31,5.81l19.81-36.81S271,206,271.41,208.38l9.72-14.49Z" fill="#231f20"/><path d="M176.67,211.61a.47.47,0,0,1-.27-.08c-4.61-3-12.67-4-19.14-4.74-2.59-.31-5-.61-7-1a.5.5,0,0,1-.37-.67l20-51.32a.48.48,0,0,1,.45-.31l39.87-.87a.44.44,0,0,1,.26.07l70.94,40.76a.52.52,0,0,1,.24.32.5.5,0,0,1-.08.39l-9.71,14.48a.49.49,0,0,1-.52.21.5.5,0,0,1-.37-.32c-1.76-2.24-45.14-21.22-74.23-33.59l-19.6,36.4a.52.52,0,0,1-.31.25ZM151,204.93c1.83.33,4,.59,6.34.87,6.7.8,14.27,1.71,19.11,4.61l19.56-36.33a.49.49,0,0,1,.63-.23c21.14,9,68.69,29.4,74.61,33.81l9.13-13.6-70.35-40.43-39.4.85Zm119.88,3.53Z" fill="#231f20"/><path d="M210.2,153.13l-39.88.86,19-55.58s19.58,2.46,22.72,5S210.2,153.13,210.2,153.13Z" fill="#fff"/><path d="M170.32,154.49a.48.48,0,0,1-.4-.2.5.5,0,0,1-.07-.46l19-55.58a.51.51,0,0,1,.54-.33c.8.1,19.76,2.5,23,5.13s-.8,42.22-1.64,50.13a.5.5,0,0,1-.48.45l-39.88.86ZM189.63,99,171,153.48l38.71-.84c1.9-18.15,4.08-47.08,2-48.81C209.27,101.84,195.32,99.69,189.63,99Zm20.57,54.17h0Z" fill="#231f20"/><path d="M196.48,95.53c-.63.28-.31,8.88-.34,9.64-.28,7.17-.25,14.49-.76,21.6-1,14.06-11.62,27.41-19.58,38.33-1.05,1.45-2.24,3-4,3.46a7.27,7.27,0,0,1-3.8-.29,38.93,38.93,0,0,1-14.34-7.54,3.82,3.82,0,0,1-1.34-1.68c-.34-1.12.34-2.26,1-3.23,8.25-12.55,15.41-39.8,19.79-54.17C173.12,101.65,186.23,100,196.48,95.53Z" fill="#68e1fd"/><path d="M224.26,93.77c.23.09-2.79,24.41-2.87,25.39-.58,7.44-6.28,22.66-10.86,28.36,1.49-7.94-.94-18.88-3.24-26.49-1.12-3.71-.26-11.16,0-15,0-.37.37-8.87.19-8.92C207.49,97.11,218.3,91.6,224.26,93.77Z" fill="#68e1fd"/><path d="M202.83,106.7l-3.41,2.38,2.12,2s-5.56,18.25-14.82,19.46-12.53-.26-12.53-.26l-5.89,5.5s7.21,3.4,7.72,3.67,17.15-.85,21.29-10.36a104.32,104.32,0,0,0,5.87-17.37L205.1,110Z" fill="#231f20"/><path d="M190,124.08a.49.49,0,0,1-.44-.27l-5.8-11.36a.5.5,0,0,1,.15-.62l5.27-3.92-5.39-2.39a.5.5,0,0,1-.11-.86l8-6.19a.5.5,0,1,1,.61.79L185,104.94l5.41,2.4a.5.5,0,0,1,.3.4.54.54,0,0,1-.2.46l-5.62,4.18,5.6,11a.5.5,0,0,1-.22.67A.46.46,0,0,1,190,124.08Z" fill="#231f20"/><path d="M163.66,156.17a.5.5,0,0,1-.49-.39.5.5,0,0,1,.37-.6c4.73-1.1,13.35-3.35,13.43-3.37a.5.5,0,0,1,.25,1c-.08,0-8.71,2.27-13.45,3.37Z" fill="#231f20"/><path d="M219.29,129.2l-.13,0a.5.5,0,0,1-.35-.61c.06-.24,6.38-24.22,3.58-31.13a.51.51,0,0,1,.28-.65.5.5,0,0,1,.65.28c2.92,7.22-3.28,30.76-3.54,31.76A.51.51,0,0,1,219.29,129.2Z" fill="#231f20"/><path d="M211.08,120.05a.5.5,0,0,1-.24-.06.51.51,0,0,1-.2-.68l6.26-11.26-5.18-2.18a.5.5,0,0,1-.3-.35.51.51,0,0,1,.12-.44l4.51-5.11-4.61-1.72a.51.51,0,0,1-.29-.65.5.5,0,0,1,.65-.29l5.28,2a.52.52,0,0,1,.31.35.49.49,0,0,1-.11.45l-4.53,5.13,5.05,2.12a.55.55,0,0,1,.28.3.53.53,0,0,1,0,.41l-6.52,11.74A.5.5,0,0,1,211.08,120.05Z" fill="#231f20"/><path d="M199.35,91.9a15.43,15.43,0,0,1-4.91-4.79c-3.33-5.12-3.69-11.39-1.8-17.18,1-3.12,3.19-6,6.29-7.11,3.63-1.24,7.66.23,11.43-.43a12.46,12.46,0,0,1,2-.31,5.54,5.54,0,0,1,2.33.55,8.17,8.17,0,0,1,4.47,5.73,8,8,0,0,1-1.91,6.75c-1.49,1.83-1.87,4.35-3.27,6.38a45,45,0,0,1-4.34,4.92,38.24,38.24,0,0,1-2.87,2.68c-1.08.93-2.68,2.75-4,3.25A4.07,4.07,0,0,1,199.35,91.9Z" fill="#fff"/><path d="M201.62,93.05a5.39,5.39,0,0,1-2.51-.71h0a15.71,15.71,0,0,1-5.09-5,20.51,20.51,0,0,1-1.86-17.6c1.18-3.64,3.65-6.41,6.61-7.43a16.28,16.28,0,0,1,6.55-.41,21.08,21.08,0,0,0,5,0l.54-.11a8.31,8.31,0,0,1,1.52-.21,5.88,5.88,0,0,1,2.55.6,8.65,8.65,0,0,1,4.75,6.08,8.46,8.46,0,0,1-2,7.16,12.46,12.46,0,0,0-1.68,3.2,15.69,15.69,0,0,1-1.57,3.15,30.86,30.86,0,0,1-3.4,3.94l-1,1a37.39,37.39,0,0,1-2.9,2.72c-.29.25-.62.56-1,.9a11.23,11.23,0,0,1-3.19,2.44A3.66,3.66,0,0,1,201.62,93.05Zm-2-1.59a3.63,3.63,0,0,0,3,.42,11.06,11.06,0,0,0,2.85-2.23c.36-.35.7-.68,1-.94a35.49,35.49,0,0,0,2.82-2.64c.33-.36.67-.7,1-1a30.14,30.14,0,0,0,3.29-3.81,15.83,15.83,0,0,0,1.48-3,13.27,13.27,0,0,1,1.82-3.45,7.53,7.53,0,0,0,1.81-6.34,7.61,7.61,0,0,0-4.2-5.36,4.53,4.53,0,0,0-2.1-.51,8,8,0,0,0-1.34.19l-.57.11a21,21,0,0,1-5.2,0,15.34,15.34,0,0,0-6.15.37c-2.67.91-4.9,3.45-6,6.79a19.5,19.5,0,0,0,1.75,16.75,14.88,14.88,0,0,0,4.72,4.62Z" fill="#231f20"/><path d="M215.67,82.44s3,5.73,2.19,6.77-3.22.07-3.22.07" fill="#fff"/><path d="M216.58,90.19a6.27,6.27,0,0,1-2.13-.45.49.49,0,0,1-.27-.65.5.5,0,0,1,.65-.28c.66.28,2.18.65,2.64.09.31-.47-.74-3.38-2.24-6.22a.51.51,0,0,1,.21-.68.5.5,0,0,1,.68.21c.95,1.81,3.08,6.14,2.13,7.32A2.08,2.08,0,0,1,216.58,90.19Z" fill="#231f20"/><path d="M215.73,70.5c2.08,2.07.92,10.67.66,13.21q-.57,5.36-1.38,10.67c-.35,2.26-6.21,1.73-7.18,1l0,9s-2.89.49-7.4-2.16S196,98.43,196,98.43l1.4-10.28s3.87.4,6.61-4,3.34-11.49,3.34-11.49S213.7,68.48,215.73,70.5Z" fill="#fff"/><path d="M207.25,104.9a14.19,14.19,0,0,1-7-2.26c-4.31-2.54-4.72-3.81-4.69-4.24l1.4-10.32a.49.49,0,0,1,.55-.43c.14,0,3.61.3,6.14-3.75,2.64-4.23,3.26-11.2,3.27-11.27a.47.47,0,0,1,.22-.37c.68-.45,6.73-4.36,9-2.12h0c1.85,1.84,1.48,7.57.88,12.94l-.08.68c-.38,3.57-.84,7.17-1.38,10.7A2.11,2.11,0,0,1,214,96.09a10.14,10.14,0,0,1-5.65,0l0,8.26a.51.51,0,0,1-.42.5A5.88,5.88,0,0,1,207.25,104.9Zm-10.73-6.48c.07.19.62,1.25,4.2,3.36a13.09,13.09,0,0,0,6.65,2.12l0-8.57a.5.5,0,0,1,.81-.39,8.72,8.72,0,0,0,5.48.22c.54-.21.84-.5.89-.85.54-3.51,1-7.1,1.38-10.66L216,83c.32-2.84,1.17-10.38-.58-12.12h0c-1.37-1.36-5.81,1-7.53,2.11-.14,1.32-.88,7.44-3.39,11.47-2.33,3.72-5.42,4.19-6.61,4.22Z" fill="#231f20"/><path d="M215.18,91.71a4.22,4.22,0,0,1-4.51-3.14" fill="#fff"/><path d="M214.82,92.23a4.74,4.74,0,0,1-4.62-3.49.51.51,0,0,1,.31-.64.49.49,0,0,1,.63.31,3.73,3.73,0,0,0,4,2.81.5.5,0,0,1,.57.42.51.51,0,0,1-.42.57S215.09,92.23,214.82,92.23Z" fill="#231f20"/><path d="M208.6,84.06a4.92,4.92,0,0,0-.76-2.55,7,7,0,0,0-1.14-1.75,2.34,2.34,0,0,0-1.86-.77,2.15,2.15,0,0,0-1.51,1,4.09,4.09,0,0,0-.62,1.73,7.68,7.68,0,0,0,2.87,7.14l-.18-.23" fill="#fff"/><path d="M205.58,89.33a.5.5,0,0,1-.31-.1,8.3,8.3,0,0,1-3.06-7.62,4.68,4.68,0,0,1,.71-1.94,2.65,2.65,0,0,1,1.86-1.18,2.84,2.84,0,0,1,2.28.92,7.31,7.31,0,0,1,1.22,1.87,5.22,5.22,0,0,1,.82,2.82.5.5,0,1,1-1-.08,4.55,4.55,0,0,0-.7-2.28,6.7,6.7,0,0,0-1.05-1.63,1.89,1.89,0,0,0-1.46-.63,1.72,1.72,0,0,0-1.15.76,3.66,3.66,0,0,0-.54,1.52,7.24,7.24,0,0,0,2.29,6.35.47.47,0,0,1,.31.19l.17.23a.48.48,0,0,1,0,.65A.49.49,0,0,1,205.58,89.33Z" fill="#231f20"/><path d="M207.83,95.33a9.57,9.57,0,0,1-4.16-3.46s-.33,5.46,4.18,7.49Z" fill="#231f20"/><path d="M207.84,99.86a.49.49,0,0,1-.2,0c-4.76-2.15-4.47-7.91-4.47-8a.5.5,0,0,1,.94-.21A9.12,9.12,0,0,0,208,94.87a.5.5,0,0,1,.31.46v4a.5.5,0,0,1-.22.43A.57.57,0,0,1,207.84,99.86Zm-3.57-6.37a7,7,0,0,0,3.07,5V95.65A11.22,11.22,0,0,1,204.27,93.49Z" fill="#231f20"/><ellipse cx="213.88" cy="79.77" rx="1.28" ry="0.5" transform="translate(80.82 265.25) rotate(-74.8)" fill="#231f20"/><line x1="215.06" y1="78.87" x2="212.67" y2="77.47" fill="#fff"/><path d="M215.06,79.37a.59.59,0,0,1-.26-.07l-2.38-1.39a.5.5,0,0,1,.51-.87l2.38,1.39a.5.5,0,0,1-.25.94Z" fill="#231f20"/><path d="M180,100.66s-23.36,2.45-37.38,10.56c-7.85,4.54-21,28.29-21,28.29L132,144.59l22.24-22c7.12-.63,22.07-5,22.07-5Z" fill="#68e1fd"/><path d="M157.77,121.92c1.33-.23,18.54-4.34,18.54-4.34" fill="#fff"/><path d="M157.77,122.42a.5.5,0,0,1-.09-1c1.3-.23,18.35-4.29,18.52-4.34a.5.5,0,0,1,.6.37.51.51,0,0,1-.37.61c-.7.16-17.24,4.11-18.58,4.35Z" fill="#231f20"/><path d="M176.67,211.12s-59.18,13-58.41,11.93l-1.34-15.89,43.81-16.11,11.33,17.37" fill="#231f20"/><path d="M118.46,223.56c-.48,0-.55-.1-.62-.21a.5.5,0,0,1-.08-.3l-1.34-15.85a.51.51,0,0,1,.33-.51l43.81-16.11a.49.49,0,0,1,.59.2l11.33,17.37a.5.5,0,0,1-.15.69.49.49,0,0,1-.69-.15l-11.11-17L117.45,207.5l1.27,15.11c4-.34,36.26-7.24,57.85-12a.5.5,0,0,1,.21,1c-.14,0-14.65,3.22-29,6.27C125.5,222.59,120,223.56,118.46,223.56Z" fill="#231f20"/><path d="M234.24,76.64c2.1.4,4.19-.6,6-1.67a4,4,0,0,0,1.66-1.5,2.48,2.48,0,0,0-.41-2.55,3.26,3.26,0,0,0-2.58-1.22c-.15,0-.37,0-.35-.19" fill="#fff"/><path d="M235.21,77.23a5.61,5.61,0,0,1-1.07-.1.5.5,0,0,1-.39-.59.49.49,0,0,1,.58-.39c2,.37,4-.61,5.69-1.62a3.47,3.47,0,0,0,1.46-1.27,2,2,0,0,0-.35-2,2.73,2.73,0,0,0-2.18-1,1,1,0,0,1-.7-.25.62.62,0,0,1-.16-.49.5.5,0,0,1,.54-.45.46.46,0,0,1,.35.19,3.82,3.82,0,0,1,2.94,1.41,3,3,0,0,1,.46,3.08,4.3,4.3,0,0,1-1.85,1.71A11,11,0,0,1,235.21,77.23Zm3.87-7.68Z" fill="#231f20"/><path d="M279.18,209.7s7.28,6.74,9.59,6,17.76-28.41,14.91-29.12-17.49,12.52-17.49,12.52Z" fill="#231f20"/><path d="M288.42,216.28c-2.73,0-8.41-5.13-9.58-6.22a.5.5,0,0,1-.08-.64l7-10.57.08-.09c2.48-2.24,15-13.36,17.95-12.63.26.06.7.3.72,1.12.11,4-12.88,28.12-15.62,29A1.53,1.53,0,0,1,288.42,216.28Zm-8.59-6.66c2.95,2.68,7.43,6,8.79,5.64,1.52-.59,11.68-17.77,14.36-25.6.75-2.18.53-2.6.52-2.61-1.83-.43-11.33,7.36-16.93,12.41Z" fill="#231f20"/><path d="M108.93,210.45s-11.06,1.6-11.32,2.66,2.26,28.51,4.39,27.31,7.59-17.31,7.59-17.31Z" fill="#231f20"/><path d="M101.86,241a.83.83,0,0,1-.5-.18c-.37-.28-1.5-1.14-3.08-14.17-.74-6.07-1.32-12.94-1.16-13.61.09-.34.35-1.39,11.73-3a.5.5,0,0,1,.39.11.44.44,0,0,1,.18.35l.67,12.67a.57.57,0,0,1,0,.18c-.92,2.72-5.63,16.35-7.82,17.58A.75.75,0,0,1,101.86,241ZM98.08,213.3c0,.84.4,6.76,1.21,13.39,1.31,10.69,2.3,12.8,2.59,13.2,1.52-1.27,5.17-10.86,7.21-16.85l-.63-12C103.76,211.72,98.8,212.73,98.08,213.3Z" fill="#231f20"/><path d="M247.77,111.72a.5.5,0,0,1-.48-.34l-8.5-25.15a.51.51,0,0,1,.31-.64.51.51,0,0,1,.64.32l8.5,25.15a.5.5,0,0,1-.31.64A.47.47,0,0,1,247.77,111.72Z" fill="#231f20"/><ellipse cx="201.19" cy="246.29" rx="82.04" ry="4.26" fill="#e6e7e8"/></g></svg>