<svg id="_570_hockey_match_flatline" data-name="#570_hockey_match_flatline" xmlns="http://www.w3.org/2000/svg" xmlns:xlink="http://www.w3.org/1999/xlink" viewBox="0 0 400 300"><defs><linearGradient id="linear-gradient" x1="87.98" y1="58.57" x2="94.22" y2="58.57" gradientUnits="userSpaceOnUse"><stop offset="0" stop-color="#fff"/><stop offset="1"/></linearGradient></defs><path d="M249.63,229.44v7.85c0,2.58,8.4,4.67,18.76,4.67s18.77-2.09,18.77-4.67v-7.85Z" fill="#68e1fd"/><path d="M268.39,242.46c-9.34,0-19.26-1.81-19.26-5.17v-7.85a.5.5,0,0,1,.5-.5h37.53a.5.5,0,0,1,.5.5v7.85C287.66,240.65,277.73,242.46,268.39,242.46Zm-18.26-12.52v7.35c0,2,7.5,4.17,18.26,4.17s18.27-2.2,18.27-4.17v-7.35Z" fill="#231f20"/><ellipse cx="268.39" cy="229.44" rx="18.76" ry="4.67" fill="#68e1fd"/><path d="M268.39,234.61c-9.34,0-19.26-1.81-19.26-5.17s9.92-5.17,19.26-5.17,19.27,1.81,19.27,5.17S277.73,234.61,268.39,234.61Zm0-9.34c-10.76,0-18.26,2.2-18.26,4.17s7.5,4.17,18.26,4.17,18.27-2.2,18.27-4.17S279.16,225.27,268.39,225.27Z" fill="#231f20"/><path d="M366.5,190.19H43.5a.51.51,0,0,1-.5-.5.5.5,0,0,1,.5-.5h323a.5.5,0,0,1,.5.5A.51.51,0,0,1,366.5,190.19Z" fill="#231f20"/><path d="M70.21,236.07l-3.39,5.16L64.51,240s-1.69,2.44-1.39,2.85,9.33,10.37,19.7,14.95,17.91,4,18.72,2-.1-2.24-.51-2.24-1.83,1.32-4.37.61l1.12-4.88-3-.21-1.22,4.48S82.21,257.3,69,243.47l2.74-4.28Z" fill="#231f20"/><path d="M136.91,186.09v7.12s-14.21,8.14-17.66,12.41c0,0,2.84,10.38,11.59,10.78,0,0,30.32-8.13,31.95-15.15s-3-21.88-3-21.88Z" fill="#68e1fd"/><path d="M100.12,177.34s-.82,13.22-2.24,15S81.81,213,81.81,213s4.68,7.93,14,8.74c0,0,22-20.75,24-24.62s6.1-17.49,6.1-17.49Z" fill="#68e1fd"/><path d="M102,138.47s-5.49,27.27-6.1,41.51c0,0,16.88,12.82,28.89,11.4l3.66-13.84,4.68,12.62s19.92,2,30.52-6.52l-10-44.36-42.9-.81Z" fill="#231f20"/><path d="M195.75,120.16C195.55,135,176,150.72,176,150.72l-11.6-8.18s9-12.82,9.57-16.68a.41.41,0,0,0,0-.11c.46-3.87-7.74-10.07-7.74-10.07-3.72,3.3-8.2,12.94-10.7,18.83-1.2,2.81-2,4.77-2,4.77-23,18.53-51.65-.81-51.65-.81,0-4.16.44-9.22,1-14.57,2-18.4,12.13-42.2,12.13-42.2S95.84,62.07,94.22,61.63c-.41-.11-6.51,12.55-6.51,12.55l-9.57-3.87C77.53,59.12,80.58,44.47,88.52,41c1.41-.63,3.43-.62,5.84-.15,8.71,1.68,22.62,9.35,32.49,15.37v0c2.72,1.65,32.05,16,32.05,16S176.29,81.08,181.19,88h0C188.25,98,195.87,111.39,195.75,120.16Z" fill="#68e1fd"/><path d="M142.35,132c-8,0-19.7-2.46-33.3-12.83a.5.5,0,0,1,.61-.79c25.18,19.2,43.54,10.82,43.72,10.73a.5.5,0,1,1,.43.9A29.31,29.31,0,0,1,142.35,132Z" fill="#231f20"/><path d="M155.69,68.6a14.27,14.27,0,0,1-7.35,7.81S146.41,87,154.63,89.3s8.55,0,8.55,0l3.07-8.82Z" fill="#fff"/><path d="M160.51,90.83a23.5,23.5,0,0,1-6-1c-8.56-2.4-6.67-13.35-6.65-13.46a.52.52,0,0,1,.29-.37,13.89,13.89,0,0,0,7.08-7.51.51.51,0,0,1,.37-.33.53.53,0,0,1,.48.16l10.55,11.88a.5.5,0,0,1,.1.5l-3.07,8.81h0a1.33,1.33,0,0,1-.65.81A4.57,4.57,0,0,1,160.51,90.83ZM148.79,76.76c-.23,1.62-1.11,10.07,6,12.06s7.92.39,7.92.37l3-8.6-9.82-11A14.76,14.76,0,0,1,148.79,76.76Z" fill="#231f20"/><path d="M182.53,69s-8,15.87-14.52,17.23S152.54,76.82,153.7,66s14.36-15.06,14.36-15.06Z" fill="#fff"/><path d="M166.85,86.8c-2.17,0-4.54-1.08-6.8-3.13a22,22,0,0,1-6.85-17.76c1.18-11,14.57-15.43,14.71-15.48a.49.49,0,0,1,.54.17l14.47,18a.5.5,0,0,1,.05.54c-.33.65-8.19,16.1-14.86,17.49A6.57,6.57,0,0,1,166.85,86.8Zm1-35.3c-2,.73-12.69,5-13.69,14.52a20.92,20.92,0,0,0,6.52,16.91c2.43,2.2,5.05,3.2,7.19,2.76,5.73-1.19,12.91-14.55,14-16.68Z" fill="#231f20"/><path d="M189.17,57.15c-.54,8.55-6.37,15.19-6.37,15.19l-14.11-7c-2-1-4.2,2.55-5.28,3.67a14.3,14.3,0,0,0-3.87,6.64,32.3,32.3,0,0,0-.9,7.08,2.58,2.58,0,0,1-1.23-2,27.15,27.15,0,0,1-.65-6.16c0-1.92.11-2.54-1.44-3.65s-2.48-1.66-3.06-3.52c-1.87-6-1.87-12.87,1.44-18.35,5.49-9.09,10.38-10.37,16.75-10.31C175.43,38.75,189.72,48.6,189.17,57.15Z" fill="#231f20"/><path d="M162.79,64.61s1.69-4.34-2-6.38-6,1.23-6.17,5.16,1.83,6.78,2.24,6.92S162.47,67.83,162.79,64.61Z" fill="#fff"/><path d="M156.9,70.81a.43.43,0,0,1-.17,0c-.7-.23-2.79-3.33-2.58-7.42.14-2.69,1.22-4.92,2.81-5.81a4.07,4.07,0,0,1,4.11.25c3.73,2.07,2.42,6.32,2.21,6.92-.26,2.27-2.54,4.07-3.89,4.94A7.11,7.11,0,0,1,156.9,70.81Zm0-1Zm1.78-11.7a2.44,2.44,0,0,0-1.24.32c-1.3.72-2.18,2.63-2.3,5A9.69,9.69,0,0,0,157,69.79c.94-.29,5-2.57,5.27-5.23a.31.31,0,0,1,0-.13c.06-.16,1.49-4-1.74-5.76A4,4,0,0,0,158.69,58.11Z" fill="#231f20"/><path d="M164.41,142.54s-5.08,7.41-7.11,8.18-6.83,4.36-7.94,6.88,2.92,11.48,7.53,13.23,11.81-5.09,11.09-7.94-.5-5.21,0-6.07,8-6.1,8-6.1Z" fill="#fff"/><path d="M158.5,171.61a5,5,0,0,1-1.79-.32c-3.07-1.16-5.65-5.12-6.92-8.15-.5-1.19-1.59-4.13-.89-5.74,1.2-2.74,6.18-6.37,8.22-7.14,1.38-.53,4.87-5.07,6.88-8a.49.49,0,0,1,.33-.21.54.54,0,0,1,.37.08l11.6,8.19a.5.5,0,0,1,0,.81,81,81,0,0,0-7.89,6c-.4.68-.65,2.89.06,5.69.44,1.76-1.43,4.18-3.16,5.72S160.9,171.61,158.5,171.61Zm6-28.37c-1.18,1.69-5.17,7.23-7.07,7.95s-6.61,4.22-7.65,6.61c-.37.84,0,2.79.89,4.95,1.29,3.08,3.76,6.63,6.35,7.61,2.41.91,5.59-.84,7.59-2.62s3.11-3.69,2.85-4.73c-.77-3.06-.51-5.49.05-6.44.47-.8,5.36-4.28,7.59-5.85Z" fill="#231f20"/><path d="M271,247.74c-3.87,1.22-26.05.41-33.37-4.68-1-.67-4.64-3.93-10.3-9.11C190.13,200,67,83.54,64.51,80.89c-2.85-3.06-1.05-9.34,3-5.5,0,0,138,129.31,165,153.77,2.55,2.31,4.11,3.68,4.48,3.93,4.27,2.85,27.88-1,31.33,1S274.9,246.52,271,247.74Z" fill="#fff"/><path d="M264.82,248.73c-8.36,0-21.93-1.43-27.43-5.26-1.22-.85-6.31-5.44-10.35-9.15C190.53,201,67.09,84.38,64.15,81.23c-2-2.13-1.91-5.51-.52-6.89.4-.4,1.89-1.54,4.27.69,1.38,1.29,138.28,129.58,165,153.76,3.4,3.08,4.23,3.75,4.42,3.88,2.18,1.45,10.25,1,17.37.65,6.56-.35,12.23-.65,13.95.36,2.65,1.56,5.08,7.53,4.64,11.41-.24,2.11-1.28,2.87-2.1,3.13h0A26.71,26.71,0,0,1,264.82,248.73Zm6.22-1h0ZM65.19,74.68a1.19,1.19,0,0,0-.86.37c-1,1-1,3.84.55,5.5,2.94,3.15,126.33,119.73,162.83,153,5.69,5.21,9.33,8.43,10.25,9.07,7.1,4.94,29.2,5.78,32.93,4.62h0c.79-.25,1.26-1,1.41-2.3.39-3.43-1.87-9.08-4.16-10.43-1.46-.86-7.52-.54-13.39-.22-7.63.4-15.52.82-18-.82a59.1,59.1,0,0,1-4.54-4C205.5,205.35,68.6,77.05,67.22,75.76A3.46,3.46,0,0,0,65.19,74.68Z" fill="#231f20"/><path d="M89.47,72.88S76.18,64.07,75.09,66.1s0,13.36,0,13.36-4.48.39-5.56,3.22-.14,7.43,0,8.92,3.93,7.33,7.87,8,6.61.3,6.2-.52-3.08-1.92-2.81-2.87.68-3.8,1.9-4.07,3.83,2.3,5.17,1.35S85.67,89,86.08,86.72,89.47,72.88,89.47,72.88Z" fill="#fff"/><path d="M81.09,100.46a23.34,23.34,0,0,1-3.78-.36c-4.2-.72-8.12-6.7-8.28-8.45,0-.26-.07-.61-.13-1-.29-2.12-.78-5.67.16-8.11s4.23-3.27,5.49-3.47c-.22-2.38-.93-11.23.1-13.16a1.06,1.06,0,0,1,.7-.52c2.52-.62,12.44,5.82,14.4,7.12A.49.49,0,0,1,90,73c0,.11-3,11.54-3.38,13.8-.17,1,.52,2.28,1.13,3.45.77,1.5,1.5,2.91.45,3.65s-2.38,0-3.58-.61c-.64-.33-1.42-.75-1.78-.66-.69.15-1.16,2.17-1.35,3-.07.27-.12.51-.17.68s.94.94,1.36,1.23a4.56,4.56,0,0,1,1.42,1.29.81.81,0,0,1-.07.86C83.58,100.26,82.45,100.46,81.09,100.46Zm-5.25-34.2a.5.5,0,0,0-.31.08c-.74,1.39-.37,8.58.06,13.08a.52.52,0,0,1-.11.36.52.52,0,0,1-.35.18s-4.17.4-5.13,2.9c-.85,2.2-.37,5.72-.11,7.61.06.45.11.82.14,1.09.11,1.21,3.75,6.92,7.45,7.56,3.13.54,5.07.33,5.59.08a7.58,7.58,0,0,0-1-.8c-1-.7-2-1.41-1.74-2.32l.15-.63c.32-1.39.8-3.5,2.12-3.79a4.1,4.1,0,0,1,2.45.76c1,.49,2,1,2.54.68.34-.24-.3-1.48-.76-2.38-.68-1.31-1.45-2.8-1.22-4.09.37-2.1,2.8-11.55,3.31-13.52C82.93,69.17,77.34,66.26,75.84,66.26Z" fill="#231f20"/><path d="M161.67,165.22a5.09,5.09,0,0,0-.09-2.6,5.71,5.71,0,0,0-1.41-2,14.17,14.17,0,0,0-4.71-3.15,6.75,6.75,0,0,0-3-.59c-2.65.21-4.63,3-4.56,5.62a8.71,8.71,0,0,0,4,6.59,8.42,8.42,0,0,0,4,1.6C159.21,171,161.09,168.28,161.67,165.22Z" fill="#fff"/><path d="M156.38,171.17l-.61,0a8.84,8.84,0,0,1-4.21-1.68,9.17,9.17,0,0,1-4.19-7c-.07-2.76,1.93-5.89,5-6.13a7,7,0,0,1,3.26.63,14.77,14.77,0,0,1,4.88,3.26,6.18,6.18,0,0,1,1.52,2.23,5.49,5.49,0,0,1,.11,2.85C161.61,168.21,159.81,171.17,156.38,171.17Zm-3.58-13.85-.33,0c-2.25.17-4.17,2.56-4.1,5.11a8.17,8.17,0,0,0,3.76,6.19,8,8,0,0,0,3.74,1.51c4,.39,5.07-3.75,5.31-5h0a4.48,4.48,0,0,0-.08-2.33,5.22,5.22,0,0,0-1.28-1.86,13.54,13.54,0,0,0-4.55-3A6.57,6.57,0,0,0,152.8,157.32Z" fill="#231f20"/><path d="M97.61,221.15s-13-10.71-14.79-11.26-13,20.76-15.19,24.83,14.65,19.4,19.8,20.21,16.08,2.58,16.45-1.63-2.07-9.9-5.19-11.39-9.08-4.21-8.68-6.79S97.61,221.15,97.61,221.15Z" fill="#231f20"/><path d="M119.25,205.62s-12.29,5.8-19.15,13.57c0,0,6.6,14.58,10.8,18.92s11.24,5,12.06,3.26-4-11.94-3.71-14c.79-5.52,11.59-11,11.59-11Z" fill="#231f20"/><line x1="94.22" y1="61.63" x2="87.98" y2="55.52" fill="url(#linear-gradient)"/><path d="M94.22,62.13a.49.49,0,0,1-.35-.15l-6.24-6.1a.5.5,0,0,1,.7-.72l6.24,6.11a.51.51,0,0,1,0,.71A.51.51,0,0,1,94.22,62.13Z" fill="#231f20"/><path d="M157.2,130A.53.53,0,0,1,157,130a.5.5,0,0,1-.2-.68c.08-.16,8.75-16.22,15.84-23.71a.5.5,0,1,1,.73.69c-7,7.39-15.61,23.34-15.69,23.5A.51.51,0,0,1,157.2,130Z" fill="#231f20"/><path d="M109.35,97.74h-.1a.5.5,0,0,1-.38-.6c.15-.71,3.85-17.67,12.06-23.36a.5.5,0,0,1,.69.13.49.49,0,0,1-.12.69c-7.88,5.46-11.62,22.58-11.66,22.75A.49.49,0,0,1,109.35,97.74Z" fill="#231f20"/><path d="M153.72,121.37c-26.91,0-43-18.93-43.2-19.14a.49.49,0,0,1,.06-.7.51.51,0,0,1,.71.06c.17.22,18.06,21.2,47.57,18.55a.51.51,0,0,1,.55.45.5.5,0,0,1-.46.54C157.17,121.29,155.42,121.37,153.72,121.37Z" fill="#231f20"/><ellipse cx="127.86" cy="95.85" rx="4.75" ry="5.52" fill="#231f20"/><path d="M109.36,209.08h-.1c-12.8-2.42-16-10.67-16.14-11a.5.5,0,0,1,.93-.35c0,.08,3.18,8.07,15.4,10.38a.51.51,0,0,1,.4.59A.5.5,0,0,1,109.36,209.08Z" fill="#231f20"/><path d="M141.19,210.38a.55.55,0,0,1-.3-.09c-10.25-7.45-10.55-11.92-10.55-12.4a.5.5,0,0,1,.5-.5.5.5,0,0,1,.5.5c0,.17.12,4.31,10.14,11.59a.5.5,0,0,1-.29.9Z" fill="#231f20"/><path d="M101.87,220.75l-1.77,1.49-1-2-1.49.88s4.41,12.14,9.22,18.25,12.55,7.46,14.11,7,1.36-2.24,1.36-2.24-2.65.88-4.55-.4l1.5-3.19-1.56-1-2.22,3.19s-3.08,0-7.69-6.31A68.12,68.12,0,0,1,100.59,224l2.72-1.71Z" fill="#231f20"/><path d="M108.67,204.49a.54.54,0,0,1-.22-.05,3.11,3.11,0,0,1-1.43-3,9.38,9.38,0,0,1,10.89-9.13.49.49,0,0,1,.41.57.5.5,0,0,1-.57.41,8.4,8.4,0,0,0-9.73,8.16c0,.4,0,1.73.86,2.13a.5.5,0,0,1,.24.67A.52.52,0,0,1,108.67,204.49Z" fill="#231f20"/><path d="M149.81,208.51a.48.48,0,0,1-.28-.08c-1-.63-1.14-2-.47-3.7a20.76,20.76,0,0,1,3.81-6.65,10.46,10.46,0,0,1,6.82-3.62.5.5,0,0,1,.08,1,9.52,9.52,0,0,0-6.16,3.3,19.78,19.78,0,0,0-3.62,6.34c-.18.45-.7,2,.09,2.5a.5.5,0,0,1,.14.7A.49.49,0,0,1,149.81,208.51Z" fill="#231f20"/><path d="M271,247.74c-3.87,1.22-26.05.41-33.37-4.68-1-.67-4.64-3.93-10.3-9.11.4-.41.81-.81,1.22-1.21,1.28-1.24,2.61-2.44,4-3.58,2.55,2.31,4.11,3.68,4.48,3.93,4.27,2.85,27.88-1,31.33,1S274.9,246.52,271,247.74Z" fill="#231f20"/><path d="M175.86,76.29l-1.55,5.64a3.9,3.9,0,0,1-.53,1.32,1.4,1.4,0,0,1-1.21.66,1.67,1.67,0,0,1-1-.53,4.5,4.5,0,0,1-1.05-1.53" fill="#fff"/><path d="M172.65,84.41h-.11a2.16,2.16,0,0,1-1.31-.66A5,5,0,0,1,170.07,82a.5.5,0,0,1,.27-.65.52.52,0,0,1,.66.27,3.81,3.81,0,0,0,.92,1.36,1.17,1.17,0,0,0,.69.39.92.92,0,0,0,.76-.44,3.73,3.73,0,0,0,.46-1.18l1.55-5.63a.5.5,0,1,1,1,.27l-1.54,5.63a4.56,4.56,0,0,1-.61,1.48A1.94,1.94,0,0,1,172.65,84.41Z" fill="#231f20"/><path d="M330.57,190.19h-6.36a.51.51,0,0,1-.5-.47l-3.33-54.14H239.43l-3.34,54.14a.5.5,0,0,1-.5.47h-6.35a.52.52,0,0,1-.37-.16.51.51,0,0,1-.13-.37l3.85-60.89a.5.5,0,0,1,.5-.47h93.64a.5.5,0,0,1,.5.47l3.84,60.89a.51.51,0,0,1-.5.53Zm-5.89-1H330l-3.78-59.89h-92.7l-3.79,59.89h5.35l3.34-54.14a.5.5,0,0,1,.5-.47h81.89a.49.49,0,0,1,.49.47Z" fill="#231f20"/><path d="M239,135.58a.52.52,0,0,1-.35-.14L235,131.89a.5.5,0,0,1,0-.71.51.51,0,0,1,.71,0l3.63,3.55a.5.5,0,0,1-.35.86Z" fill="#231f20"/><path d="M320.85,135.58a.52.52,0,0,1-.38-.17.5.5,0,0,1,0-.7l4-3.55a.48.48,0,0,1,.7,0,.5.5,0,0,1,0,.71l-4,3.54A.5.5,0,0,1,320.85,135.58Z" fill="#231f20"/><path d="M237.18,148.07a.5.5,0,0,1-.29-.91l13.36-12.45a.51.51,0,0,1,.71,0,.49.49,0,0,1,0,.7l-13.42,12.5A.55.55,0,0,1,237.18,148.07Z" fill="#231f20"/><path d="M237.18,159.44a.48.48,0,0,1-.36-.15.5.5,0,0,1,0-.71l.33-.31.07-.06,11.8-11,.07-.06,13.36-12.44a.51.51,0,0,1,.71,0,.49.49,0,0,1,0,.7l-13.42,12.5-.07.05-11.8,11a.18.18,0,0,1-.07,0l-.27.26A.45.45,0,0,1,237.18,159.44Z" fill="#231f20"/><path d="M236.77,171.18a.52.52,0,0,1-.37-.16.5.5,0,0,1,0-.71l.41-.37,24.4-22.73.07-.06,13.36-12.44a.51.51,0,0,1,.71,0,.48.48,0,0,1,0,.7l-13.41,12.5-.07.05-24.76,23.06A.5.5,0,0,1,236.77,171.18Z" fill="#231f20"/><path d="M236,183.24a.48.48,0,0,1-.36-.16.49.49,0,0,1,0-.7l1.14-1.07.07-.05,50-46.55a.51.51,0,0,1,.71,0,.49.49,0,0,1,0,.7l-50,46.61-.07,0-1.08,1A.51.51,0,0,1,236,183.24Z" fill="#231f20"/><path d="M240.77,190.19a.52.52,0,0,1-.37-.16.5.5,0,0,1,0-.71l8.6-8,.07-.05,50-46.55a.51.51,0,0,1,.71,0,.5.5,0,0,1,0,.7l-50,46.61-.07,0-8.55,8A.51.51,0,0,1,240.77,190.19Z" fill="#231f20"/><path d="M253,190.19a.52.52,0,0,1-.37-.16.5.5,0,0,1,0-.71l8.6-8,.07-.05,50-46.55a.51.51,0,0,1,.71,0,.5.5,0,0,1,0,.7l-50,46.61-.07,0-8.55,8A.51.51,0,0,1,253,190.19Z" fill="#231f20"/><path d="M265.19,190.19a.52.52,0,0,1-.37-.16.5.5,0,0,1,0-.71l8.6-8,.07-.05,47.11-43.87a.51.51,0,0,1,.37-.16.49.49,0,0,1,.5.49.51.51,0,0,1-.16.38l-47.2,44-.06,0-8.55,8A.51.51,0,0,1,265.19,190.19Z" fill="#231f20"/><path d="M277.4,190.19A.52.52,0,0,1,277,190a.5.5,0,0,1,0-.71l8.6-8,.07-.05,36.57-34a.5.5,0,0,1,.71,0,.51.51,0,0,1,0,.71l-36.63,34.11-.07,0-8.54,8A.51.51,0,0,1,277.4,190.19Z" fill="#231f20"/><path d="M289.6,190.19a.52.52,0,0,1-.36-.16.5.5,0,0,1,0-.71l8.61-8,.07-.05,24.36-22.68a.5.5,0,1,1,.68.73l-24.42,22.74-.07,0-8.55,8A.48.48,0,0,1,289.6,190.19Z" fill="#231f20"/><path d="M301.81,190.19a.52.52,0,0,1-.36-.16.5.5,0,0,1,0-.71l8.61-8,.07-.05,12.47-11.62a.5.5,0,0,1,.87.33.51.51,0,0,1-.16.37l-12.56,11.71-.06,0-8.56,8A.48.48,0,0,1,301.81,190.19Z" fill="#231f20"/><path d="M314,190.19a.52.52,0,0,1-.36-.16.5.5,0,0,1,0-.71l8.61-8,.06-.05,1-.9a.5.5,0,0,1,.71,0,.49.49,0,0,1,0,.7l-1,1-.07.06-8.55,8A.48.48,0,0,1,314,190.19Z" fill="#231f20"/><path d="M322.64,148.07a.5.5,0,0,1-.34-.13l-13.43-12.49a.5.5,0,1,1,.68-.74L323,147.21a.49.49,0,0,1,0,.7A.5.5,0,0,1,322.64,148.07Z" fill="#231f20"/><path d="M322.64,159.44a.5.5,0,0,1-.34-.13L322,159l-.06,0-25.29-23.54a.5.5,0,0,1,.68-.74l25.24,23.5.06,0,.34.32a.51.51,0,0,1,0,.71A.53.53,0,0,1,322.64,159.44Z" fill="#231f20"/><path d="M323,171.18a.52.52,0,0,1-.35-.14l-.39-.37-37.85-35.22a.5.5,0,0,1,.68-.74l38.25,35.61a.49.49,0,0,1,0,.7A.48.48,0,0,1,323,171.18Z" fill="#231f20"/><path d="M323.78,183.24a.5.5,0,0,1-.34-.13l-1.09-1-.06,0-50.05-46.6a.5.5,0,0,1,.68-.74l50,46.55.06.05,1.14,1.07a.5.5,0,0,1-.34.86Z" fill="#231f20"/><path d="M319,190.19a.49.49,0,0,1-.34-.14l-8.56-8-.06,0-50-46.6a.5.5,0,0,1,0-.71.5.5,0,0,1,.7,0l50,46.55.06.05,8.61,8a.5.5,0,0,1-.34.87Z" fill="#231f20"/><path d="M306.83,190.19a.49.49,0,0,1-.34-.14l-8.55-8-.07,0L261.31,148l-.07-.05-13.41-12.49a.5.5,0,0,1,0-.71.51.51,0,0,1,.71,0l13.36,12.44.07.06,36.56,34,.06.05,8.61,8a.51.51,0,0,1,0,.71A.54.54,0,0,1,306.83,190.19Z" fill="#231f20"/><path d="M294.62,190.19a.51.51,0,0,1-.34-.14l-8.55-8-.07,0L249.1,148l-.07-.05-10.57-9.85a.5.5,0,0,1,0-.71.49.49,0,0,1,.7,0l10.52,9.79.07.06,36.56,34,.06.05,8.61,8a.51.51,0,0,1,0,.71A.54.54,0,0,1,294.62,190.19Z" fill="#231f20"/><path d="M282.41,190.19a.51.51,0,0,1-.34-.14l-8.55-8-.07,0L236.86,148a.51.51,0,0,1-.19-.39.5.5,0,0,1,.5-.5h0a.49.49,0,0,1,.34.14l6.1,5.69,30.46,28.36.06.05,8.61,8a.51.51,0,0,1,0,.71A.54.54,0,0,1,282.41,190.19Z" fill="#231f20"/><path d="M270.2,190.19a.51.51,0,0,1-.34-.14l-8.55-8-.07,0L236.83,159.3a.48.48,0,0,1,0-.7.49.49,0,0,1,.7,0l.3.29,24.05,22.39.07.05,8.6,8a.5.5,0,0,1,0,.71A.54.54,0,0,1,270.2,190.19Z" fill="#231f20"/><path d="M258,190.19a.51.51,0,0,1-.34-.14l-8.55-8-.07,0-12.56-11.72a.49.49,0,0,1,0-.7.5.5,0,0,1,.71,0l12.5,11.66.07.05,8.6,8a.5.5,0,0,1,0,.71A.52.52,0,0,1,258,190.19Z" fill="#231f20"/><path d="M245.78,190.19a.51.51,0,0,1-.34-.14l-8.55-8-.07-.06-1-1a.5.5,0,0,1,.69-.72l1,.91.06,0,8.6,8a.5.5,0,0,1,0,.71A.52.52,0,0,1,245.78,190.19Z" fill="#231f20"/></svg>