<svg xmlns="http://www.w3.org/2000/svg" viewBox="0 0 400 300"><g id="_402_houston_flatline" data-name="#402_houston_flatline"><rect x="39.4" y="45.82" width="321.2" height="208.36" fill="#68e1fd"/><path d="M177.69,132.69A381.07,381.07,0,0,1,67.87,142.88c-1.21,3.67-5.44,5.63-9.3,5.47s-7.44-1.95-10.89-3.7a35,35,0,0,1-8.28,8.83V76a30.39,30.39,0,0,1,13.09,17.1c.3-2.29,2.92-3.66,5.22-3.43s4.28,1.6,6.17,2.92C68,95.46,72.51,99,73,104c.46,4.48-2,10.31,1.82,12.72,5.14-5.78,14.62-5.51,21.41-1.81s11.7,10,17,15.63a6,6,0,0,0,3.17,2.15,6.33,6.33,0,0,0,2.51-.27C138.09,127.84,158.15,130.25,177.69,132.69Z" fill="#fff"/><path d="M360.6,47.64V224.09a54.44,54.44,0,0,1-8.35,1.87c-17.49,2.58-35.18-2.08-52.1-7.25-15.49-4.72-31-10-44.75-18.52-6.27-3.9-12.72-9.56-12.7-16.95-5.35.81-11.14,1.5-15.88-1.09s-7.15-9.89-3.11-13.48c.49-1.35-1.87-1.5-3.26-1.14s-3.2-1.74-1.77-1.91A388.36,388.36,0,0,1,180,159.88c13.34-5.92,28.75-2.73,43.31-3.74,2.31-.16,4.78-.51,6.46-2.09,2.14-2,2.28-5.29,2.74-8.2,2.16-13.67,14.26-24.07,27.41-28.35s27.34-3.63,41.16-2.92C297,108.2,300.78,99.19,307.1,95s14.26-4.78,21.82-5.26L340.2,89c2.74-12.47,5.87-25.39,13.93-35.29A34.4,34.4,0,0,1,360.6,47.64Z" fill="#fff"/><path d="M156.7,199.94a.5.5,0,0,1-.5-.5V173.35a.5.5,0,0,1,.5-.5.5.5,0,0,1,.5.5v26.09A.5.5,0,0,1,156.7,199.94Z" fill="#231f20"/><path d="M314.25,161.35a.5.5,0,0,1-.5-.5V121.54a.5.5,0,0,1,1,0v39.31A.5.5,0,0,1,314.25,161.35Z" fill="#231f20"/><rect x="348.81" y="158.67" width="11.79" height="95.51" fill="#231f20"/><path d="M360.6,254.68H348.81a.5.5,0,0,1-.5-.5V158.67a.5.5,0,0,1,.5-.5H360.6a.5.5,0,0,1,.5.5v95.51A.5.5,0,0,1,360.6,254.68Zm-11.29-1H360.1V159.17H349.31Z" fill="#231f20"/><path d="M323.1,125.67s11.63-.56,20.65.94,10.32,5.07,10.32,5.07V254.25h-31Z" fill="#fff"/><path d="M354.07,254.75h-31a.5.5,0,0,1-.5-.5V125.67a.5.5,0,0,1,.47-.5c.12,0,11.79-.55,20.76,1,9.19,1.53,10.65,5.23,10.71,5.38a.57.57,0,0,1,0,.18V254.25A.5.5,0,0,1,354.07,254.75Zm-30.47-1h30v-122c-.24-.47-2.05-3.38-9.91-4.69s-17.79-1-20.06-.95Z" fill="#231f20"/><path d="M344.87,254.94a.5.5,0,0,1-.5-.5V128.67a.5.5,0,1,1,1,0V254.44A.5.5,0,0,1,344.87,254.94Z" fill="#231f20"/><path d="M352.38,135.93a.48.48,0,0,1-.26-.07c-8-4.93-25-4.25-25.16-4.25a.47.47,0,0,1-.52-.47.5.5,0,0,1,.47-.53c.71,0,17.48-.69,25.73,4.4a.5.5,0,0,1-.26.92Z" fill="#231f20"/><path d="M352.38,142.83a.42.42,0,0,1-.26-.08c-8-4.92-25-4.24-25.16-4.24a.48.48,0,0,1-.52-.48.49.49,0,0,1,.47-.52c.71,0,17.48-.7,25.73,4.39a.51.51,0,0,1,.17.69A.52.52,0,0,1,352.38,142.83Z" fill="#231f20"/><path d="M352.38,149.73a.5.5,0,0,1-.26-.08c-8-4.93-25-4.25-25.16-4.24a.47.47,0,0,1-.52-.48.49.49,0,0,1,.47-.52c.72,0,17.48-.7,25.73,4.39a.5.5,0,0,1,.17.69A.52.52,0,0,1,352.38,149.73Z" fill="#231f20"/><path d="M352.38,156.63a.5.5,0,0,1-.26-.08c-8-4.93-25-4.25-25.16-4.24a.48.48,0,0,1-.52-.48.49.49,0,0,1,.47-.52c.71,0,17.48-.7,25.73,4.39a.5.5,0,0,1,.17.69A.52.52,0,0,1,352.38,156.63Z" fill="#231f20"/><path d="M352.38,163.52a.48.48,0,0,1-.26-.07c-8-4.93-25-4.25-25.16-4.24a.5.5,0,0,1,0-1c.72,0,17.48-.7,25.73,4.39a.5.5,0,0,1,.17.69A.51.51,0,0,1,352.38,163.52Z" fill="#231f20"/><path d="M352.38,170.42a.48.48,0,0,1-.26-.07c-8-4.93-25-4.25-25.16-4.25a.47.47,0,0,1-.52-.47.49.49,0,0,1,.47-.52c.71,0,17.48-.7,25.73,4.39a.5.5,0,0,1-.26.92Z" fill="#231f20"/><path d="M352.38,177.32a.48.48,0,0,1-.26-.07c-8-4.93-25-4.25-25.16-4.25a.48.48,0,0,1-.52-.48.5.5,0,0,1,.47-.52c.72,0,17.48-.7,25.73,4.39a.51.51,0,0,1,.17.69A.5.5,0,0,1,352.38,177.32Z" fill="#231f20"/><path d="M352.38,184.22a.5.5,0,0,1-.26-.08c-8-4.92-25-4.24-25.16-4.24a.47.47,0,0,1-.52-.48.49.49,0,0,1,.47-.52c.71,0,17.48-.7,25.73,4.39a.51.51,0,0,1,.17.69A.52.52,0,0,1,352.38,184.22Z" fill="#231f20"/><path d="M352.38,191.12a.5.5,0,0,1-.26-.08c-8-4.93-25-4.25-25.16-4.24a.48.48,0,0,1-.52-.48.49.49,0,0,1,.47-.52c.72,0,17.48-.7,25.73,4.39a.5.5,0,0,1,.17.69A.52.52,0,0,1,352.38,191.12Z" fill="#231f20"/><path d="M352.38,198a.48.48,0,0,1-.26-.07c-8-4.93-25-4.25-25.16-4.24a.48.48,0,0,1-.52-.48.49.49,0,0,1,.47-.52c.72,0,17.48-.7,25.73,4.39a.5.5,0,0,1,.17.69A.51.51,0,0,1,352.38,198Z" fill="#231f20"/><path d="M352.38,204.91a.48.48,0,0,1-.26-.07c-8-4.93-25-4.25-25.16-4.24a.5.5,0,0,1,0-1c.72,0,17.48-.7,25.73,4.39a.5.5,0,0,1,.17.69A.51.51,0,0,1,352.38,204.91Z" fill="#231f20"/><path d="M352.38,211.81a.48.48,0,0,1-.26-.07c-8-4.93-25-4.25-25.16-4.25a.48.48,0,0,1-.52-.47.5.5,0,0,1,.47-.53c.71,0,17.48-.69,25.73,4.4a.5.5,0,0,1-.26.92Z" fill="#231f20"/><path d="M352.38,218.71a.48.48,0,0,1-.26-.07c-8-4.93-25-4.26-25.16-4.25a.47.47,0,0,1-.52-.48.49.49,0,0,1,.47-.52c.72,0,17.48-.7,25.73,4.39a.51.51,0,0,1,.17.69A.52.52,0,0,1,352.38,218.71Z" fill="#231f20"/><path d="M352.38,225.61a.5.5,0,0,1-.26-.08c-8-4.93-25-4.25-25.16-4.24a.48.48,0,0,1-.52-.48.49.49,0,0,1,.47-.52c.72,0,17.48-.7,25.73,4.39a.5.5,0,0,1,.17.69A.52.52,0,0,1,352.38,225.61Z" fill="#231f20"/><path d="M352.38,232.51a.5.5,0,0,1-.26-.08c-8-4.93-25-4.25-25.16-4.24a.47.47,0,0,1-.52-.48.49.49,0,0,1,.47-.52c.71,0,17.48-.7,25.73,4.39a.5.5,0,0,1,.17.69A.52.52,0,0,1,352.38,232.51Z" fill="#231f20"/><path d="M352.38,239.4a.48.48,0,0,1-.26-.07c-8-4.93-25-4.25-25.16-4.24a.5.5,0,0,1,0-1c.72,0,17.48-.7,25.73,4.39a.5.5,0,0,1,.17.69A.51.51,0,0,1,352.38,239.4Z" fill="#231f20"/><path d="M352.38,246.3a.48.48,0,0,1-.26-.07c-8-4.93-25-4.25-25.16-4.25a.48.48,0,0,1-.52-.47.49.49,0,0,1,.47-.52c.71,0,17.48-.7,25.73,4.39a.5.5,0,0,1-.26.92Z" fill="#231f20"/><polygon points="281.33 204.23 281.33 194.75 290.44 194.75 292.5 191.56 301.14 191.56 301.14 207.51 281.33 204.23" fill="#231f20"/><path d="M301.14,208h-.09l-19.8-3.28a.5.5,0,0,1-.42-.49v-9.48a.5.5,0,0,1,.5-.5h8.84l1.91-3a.5.5,0,0,1,.42-.22h8.64a.5.5,0,0,1,.5.5v15.95a.51.51,0,0,1-.5.5Zm-19.31-4.21,18.81,3.12V192.06h-7.87l-1.91,3a.52.52,0,0,1-.42.23h-8.61Z" fill="#231f20"/><polygon points="309.58 157.77 318.92 159.27 318.92 166.4 309.58 165.28 309.58 157.77" fill="#fff"/><path d="M318.92,166.9h-.06l-9.34-1.13a.5.5,0,0,1-.44-.49v-7.51a.49.49,0,0,1,.18-.38.48.48,0,0,1,.4-.12l9.34,1.51a.5.5,0,0,1,.42.49v7.13a.54.54,0,0,1-.17.38A.5.5,0,0,1,318.92,166.9Zm-8.84-2.07,8.34,1V159.7l-8.34-1.35Z" fill="#231f20"/><rect x="302.07" y="157.77" width="7.51" height="7.51" fill="#d1d3d4"/><path d="M309.58,165.78h-7.5a.5.5,0,0,1-.5-.5v-7.51a.5.5,0,0,1,.5-.5h7.5a.5.5,0,0,1,.5.5v7.51A.5.5,0,0,1,309.58,165.78Zm-7-1h6.5v-6.51h-6.5Z" fill="#231f20"/><polygon points="310.9 254.18 326.93 254.18 326.93 163.96 310.9 161.71 310.9 254.18" fill="#fff"/><path d="M326.93,254.68h-16a.5.5,0,0,1-.5-.5V161.71a.5.5,0,0,1,.57-.5l16,2.26a.49.49,0,0,1,.43.49v90.22A.5.5,0,0,1,326.93,254.68Zm-15.53-1h15V164.4l-15-2.11Z" fill="#231f20"/><rect x="295.32" y="161.71" width="15.58" height="92.47" fill="#d1d3d4"/><path d="M310.9,254.68H295.32a.5.5,0,0,1-.5-.5V161.71a.5.5,0,0,1,.5-.5H310.9a.5.5,0,0,1,.5.5v92.47A.5.5,0,0,1,310.9,254.68Zm-15.08-1H310.4V162.21H295.82Z" fill="#231f20"/><rect x="289.69" y="200.47" width="15.11" height="53.71" fill="#fff"/><path d="M304.8,254.68H289.69a.5.5,0,0,1-.5-.5V200.47a.5.5,0,0,1,.5-.5H304.8a.51.51,0,0,1,.5.5v53.71A.5.5,0,0,1,304.8,254.68Zm-14.61-1H304.3V201H290.19Z" fill="#231f20"/><rect x="272.98" y="200.47" width="16.71" height="53.71" fill="#d1d3d4"/><path d="M289.69,254.68H273a.5.5,0,0,1-.5-.5V200.47a.5.5,0,0,1,.5-.5h16.71a.51.51,0,0,1,.5.5v53.71A.5.5,0,0,1,289.69,254.68Zm-16.21-1h15.71V201H273.48Z" fill="#231f20"/><path d="M280.58,253.81a.5.5,0,0,1-.5-.5V200.94a.5.5,0,0,1,.5-.5.5.5,0,0,1,.5.5v52.37A.5.5,0,0,1,280.58,253.81Z" fill="#231f20"/><path d="M283.63,253.81a.5.5,0,0,1-.5-.5V200.94a.5.5,0,0,1,.5-.5.5.5,0,0,1,.5.5v52.37A.5.5,0,0,1,283.63,253.81Z" fill="#231f20"/><path d="M286.68,253.81a.5.5,0,0,1-.5-.5V200.94a.5.5,0,0,1,.5-.5.5.5,0,0,1,.5.5v52.37A.5.5,0,0,1,286.68,253.81Z" fill="#231f20"/><polygon points="261.15 142.33 259.25 142.33 259.25 144.86 258.06 144.86 258.06 149.3 256.79 149.3 256.79 153.59 255.38 153.59 255.38 157.6 253.97 157.6 253.62 163.59 251.96 163.59 250.38 163.59 250.38 165.84 249.33 165.84 249.33 169.78 247.92 169.78 247.92 173.86 246.37 173.86 246.37 178.23 244.75 178.23 244.75 181.98 243.49 181.98 243.49 232.1 273.82 228.72 273.36 162.27 261.15 142.33" fill="#231f20"/><path d="M243.49,232.6a.48.48,0,0,1-.34-.13.51.51,0,0,1-.16-.37V182a.5.5,0,0,1,.5-.5h.76v-3.25a.5.5,0,0,1,.5-.5h1.12v-3.87a.51.51,0,0,1,.5-.5h1v-3.58a.5.5,0,0,1,.5-.5h.91v-3.44a.5.5,0,0,1,.5-.5h.56v-1.75a.5.5,0,0,1,.5-.5h2.76l.33-5.52a.5.5,0,0,1,.5-.47h.9v-3.51a.51.51,0,0,1,.5-.5h.91V149.3a.5.5,0,0,1,.5-.5h.77v-3.94a.5.5,0,0,1,.5-.5h.69v-2a.5.5,0,0,1,.5-.5h1.9a.5.5,0,0,1,.43.24L273.78,162a.5.5,0,0,1,.08.26l.47,66.45a.51.51,0,0,1-.45.5l-30.34,3.38Zm.5-50.12v49.06l29.33-3.27-.46-65.85-12-19.59h-1.12v2a.5.5,0,0,1-.5.5h-.69v3.94a.51.51,0,0,1-.5.5h-.77v3.79a.5.5,0,0,1-.5.5h-.91v3.51a.5.5,0,0,1-.5.5h-.93l-.33,5.52a.5.5,0,0,1-.5.47h-2.73v1.75a.5.5,0,0,1-.5.5h-.56v3.44a.5.5,0,0,1-.5.5h-.91v3.58a.5.5,0,0,1-.5.5h-1v3.87a.5.5,0,0,1-.5.5h-1.12V182a.5.5,0,0,1-.5.5Z" fill="#231f20"/><polygon points="277.42 164.57 277.42 161.76 276.5 161.76 276.5 157.67 275.02 157.67 275.02 153.8 273.97 153.8 273.97 150 272.56 150 272.56 145.78 271.43 145.78 271.43 143.6 261.15 142.33 261.15 144.79 262.07 144.79 262.07 150 262.66 150 262.66 152.51 263.88 152.51 263.69 156.55 264.93 156.55 264.93 160.58 266.13 160.58 266.13 164.53 267.16 164.53 267.16 181.98 265.48 181.98 265.48 179.35 264.06 178.88 264.06 175.22 262.38 174.38 262.38 171.56 260.5 171 260.5 168.56 259 168 259 163.59 251.96 163.59 251.96 165.56 253.18 165.56 253.18 168.84 254.3 168.37 254.3 173.54 255.34 173.44 255.34 177.66 256.93 177.57 256.65 181.42 257.78 181.42 257.96 185.17 257.96 215.77 252.71 215.77 252.71 254.18 278.26 254.18 278.26 165.91 277.42 164.57" fill="#fff"/><path d="M278.26,254.68H252.71a.5.5,0,0,1-.5-.5V215.77a.5.5,0,0,1,.5-.5h4.75v-30.1l-.16-3.25h-.65a.5.5,0,0,1-.5-.54l.24-3.28-1,.06A.52.52,0,0,1,255,178a.51.51,0,0,1-.15-.36V174l-.49,0a.45.45,0,0,1-.38-.13.46.46,0,0,1-.17-.36v-4.42l-.43.18a.49.49,0,0,1-.69-.46v-2.78H252a.5.5,0,0,1-.5-.5v-2a.5.5,0,0,1,.5-.5h7a.5.5,0,0,1,.5.5v4.06l1.17.44a.51.51,0,0,1,.33.47v2.07l1.52.46a.49.49,0,0,1,.36.47v2.51l1.41.71a.49.49,0,0,1,.27.45v3.29l1.08.36a.49.49,0,0,1,.34.47v2.13h.68V165h-.53a.5.5,0,0,1-.5-.5v-3.45h-.71a.5.5,0,0,1-.5-.5v-3.53h-.73a.48.48,0,0,1-.36-.16.47.47,0,0,1-.14-.37l.16-3.51h-.69a.5.5,0,0,1-.5-.5v-2h-.09a.5.5,0,0,1-.5-.5v-4.71h-.42a.5.5,0,0,1-.5-.5v-2.46a.5.5,0,0,1,.57-.5l10.27,1.27a.5.5,0,0,1,.44.5v1.68h.63a.5.5,0,0,1,.5.5v3.72H274a.5.5,0,0,1,.5.5v3.3H275a.5.5,0,0,1,.5.5v3.37h1a.5.5,0,0,1,.5.5v3.59h.42a.5.5,0,0,1,.5.5v2.67l.76,1.21a.53.53,0,0,1,.08.27v88.27A.5.5,0,0,1,278.26,254.68Zm-25-1h24.55V166.05l-.77-1.21a.5.5,0,0,1-.07-.27v-2.31h-.42a.5.5,0,0,1-.5-.5v-3.59h-1a.5.5,0,0,1-.5-.5V154.3H274a.5.5,0,0,1-.5-.5v-3.3h-.91a.5.5,0,0,1-.5-.5v-3.72h-.63a.51.51,0,0,1-.5-.5V144l-9.28-1.15v1.4h.42a.5.5,0,0,1,.5.5v4.71h.09a.5.5,0,0,1,.5.5v2h.72a.52.52,0,0,1,.36.16.55.55,0,0,1,.14.37l-.17,3.51h.71a.5.5,0,0,1,.5.5v3.53h.71a.5.5,0,0,1,.5.5V164h.53a.5.5,0,0,1,.5.5V182a.5.5,0,0,1-.5.5h-1.68a.5.5,0,0,1-.5-.5v-2.26l-1.07-.36a.5.5,0,0,1-.35-.47v-3.36l-1.41-.7a.5.5,0,0,1-.27-.45v-2.44l-1.53-.46A.5.5,0,0,1,260,171v-2.09l-1.18-.44a.51.51,0,0,1-.32-.47v-3.91h-6v1h.72a.5.5,0,0,1,.5.5v2.53l.43-.18a.5.5,0,0,1,.69.46V173l.49-.05a.52.52,0,0,1,.38.13.5.5,0,0,1,.17.37v3.69l1.06-.06a.56.56,0,0,1,.39.15.5.5,0,0,1,.14.39l-.24,3.31h.59a.51.51,0,0,1,.5.47l.18,3.76v30.62a.5.5,0,0,1-.5.5h-4.75Z" fill="#231f20"/><path d="M274.86,186.38H261.72a.54.54,0,0,1-.55-.55.55.55,0,0,1,.55-.55h13.14a.55.55,0,0,1,.55.55A.55.55,0,0,1,274.86,186.38Z" fill="#d1d3d4"/><path d="M274.86,190H261.72a.54.54,0,0,1-.55-.55.55.55,0,0,1,.55-.55h13.14a.55.55,0,0,1,.55.55A.55.55,0,0,1,274.86,190Z" fill="#d1d3d4"/><path d="M274.86,193.7H261.72a.54.54,0,0,1-.55-.55.55.55,0,0,1,.55-.55h13.14a.55.55,0,0,1,.55.55A.55.55,0,0,1,274.86,193.7Z" fill="#d1d3d4"/><path d="M274.86,197.36H261.72a.54.54,0,0,1-.55-.55.55.55,0,0,1,.55-.55h13.14a.55.55,0,0,1,.55.55A.55.55,0,0,1,274.86,197.36Z" fill="#d1d3d4"/><path d="M274.86,201H261.72a.54.54,0,0,1-.55-.55.55.55,0,0,1,.55-.55h13.14a.55.55,0,0,1,.55.55A.55.55,0,0,1,274.86,201Z" fill="#d1d3d4"/><path d="M274.86,204.68H261.72a.54.54,0,0,1-.55-.55.55.55,0,0,1,.55-.55h13.14a.55.55,0,0,1,.55.55A.55.55,0,0,1,274.86,204.68Z" fill="#d1d3d4"/><path d="M274.86,208.34H261.72a.54.54,0,0,1-.55-.55.55.55,0,0,1,.55-.55h13.14a.55.55,0,0,1,.55.55A.55.55,0,0,1,274.86,208.34Z" fill="#d1d3d4"/><path d="M274.86,212H261.72a.54.54,0,0,1-.55-.55.55.55,0,0,1,.55-.55h13.14a.55.55,0,0,1,.55.55A.55.55,0,0,1,274.86,212Z" fill="#d1d3d4"/><path d="M274.86,215.67H261.72a.56.56,0,0,1,0-1.11h13.14a.56.56,0,0,1,0,1.11Z" fill="#d1d3d4"/><path d="M274.86,219.33H261.72a.56.56,0,0,1,0-1.11h13.14a.56.56,0,0,1,0,1.11Z" fill="#d1d3d4"/><path d="M274.86,223.59H261.72a.55.55,0,0,1-.55-.55.54.54,0,0,1,.55-.55h13.14a.55.55,0,0,1,.55.55A.55.55,0,0,1,274.86,223.59Z" fill="#d1d3d4"/><path d="M274.86,227.86H261.72a.56.56,0,0,1,0-1.11h13.14a.56.56,0,0,1,0,1.11Z" fill="#d1d3d4"/><path d="M274.86,232.13H261.72a.56.56,0,0,1,0-1.11h13.14a.56.56,0,0,1,0,1.11Z" fill="#d1d3d4"/><path d="M274.86,236.39H261.72a.55.55,0,1,1,0-1.1h13.14a.55.55,0,1,1,0,1.1Z" fill="#d1d3d4"/><path d="M274.86,240.66H261.72a.56.56,0,0,1,0-1.11h13.14a.56.56,0,0,1,0,1.11Z" fill="#d1d3d4"/><path d="M274.86,244.93H261.72a.56.56,0,0,1,0-1.11h13.14a.56.56,0,0,1,0,1.11Z" fill="#d1d3d4"/><path d="M274.86,249.19H261.72a.55.55,0,0,1,0-1.1h13.14a.55.55,0,1,1,0,1.1Z" fill="#d1d3d4"/><rect x="221.87" y="218.08" width="36.1" height="36.1" fill="#d1d3d4"/><path d="M258,254.68H221.87a.5.5,0,0,1-.5-.5v-36.1a.5.5,0,0,1,.5-.5H258a.5.5,0,0,1,.5.5v36.1A.5.5,0,0,1,258,254.68Zm-35.59-1h35.09v-35.1H222.37Z" fill="#231f20"/><polygon points="171.06 176.91 160.73 179.35 160.73 201.5 171.06 206.01 171.06 176.91" fill="#d1d3d4"/><path d="M171.06,206.51a.45.45,0,0,1-.2,0L160.53,202a.51.51,0,0,1-.3-.46V179.35a.49.49,0,0,1,.39-.48l10.32-2.44a.5.5,0,0,1,.62.48V206a.52.52,0,0,1-.23.42A.53.53,0,0,1,171.06,206.51Zm-9.83-5.33,9.33,4.07v-27.7l-9.33,2.2Z" fill="#231f20"/><polygon points="182.13 206.01 171.06 206.01 171.06 176.91 182.13 178.98 182.13 206.01" fill="#fff"/><path d="M182.13,206.51H171.06a.5.5,0,0,1-.5-.5v-29.1a.48.48,0,0,1,.18-.38.5.5,0,0,1,.41-.11l11.07,2.07a.49.49,0,0,1,.41.49v27A.5.5,0,0,1,182.13,206.51Zm-10.57-1h10.07V179.39l-10.07-1.87Z" fill="#231f20"/><rect x="159.79" y="198.88" width="36.79" height="55.38" fill="#231f20"/><path d="M196.58,254.75H159.79a.5.5,0,0,1-.5-.5V198.88a.5.5,0,0,1,.5-.5h36.79a.5.5,0,0,1,.5.5v55.37A.5.5,0,0,1,196.58,254.75Zm-36.29-1h35.79V199.38H160.29Z" fill="#231f20"/><polygon points="228.3 181.98 240.13 200.94 240.13 254.18 228.3 254.18 228.3 181.98" fill="#fff"/><path d="M240.13,254.68H228.3a.5.5,0,0,1-.5-.5V182a.5.5,0,0,1,.93-.26l11.83,19a.48.48,0,0,1,.07.26v53.24A.5.5,0,0,1,240.13,254.68Zm-11.33-1h10.83v-52.6L228.8,183.73Z" fill="#231f20"/><path d="M189.64,254.25V197.94L200,182h28.3v72.07Z" fill="#d1d3d4"/><path d="M189.64,254.75a.5.5,0,0,1-.35-.14.49.49,0,0,1-.15-.36V197.94a.5.5,0,0,1,.08-.27l10.36-16a.5.5,0,0,1,.42-.23h28.3a.5.5,0,0,1,.5.5v72.07a.5.5,0,0,1-.49.5l-38.67.2Zm.5-56.66v55.66l37.66-.2V182.48H200.27Z" fill="#231f20"/><path d="M240.13,206.51l-.14,0-11.76-3.55H189.64a.5.5,0,0,1-.5-.5.5.5,0,0,1,.5-.5H228.3l.15,0,11.83,3.57a.5.5,0,0,1,.33.62A.49.49,0,0,1,240.13,206.51Z" fill="#231f20"/><path d="M239.92,210.64h-.11l-11.56-2.54H189.64a.5.5,0,0,1-.5-.5.5.5,0,0,1,.5-.5h38.77L240,209.65a.5.5,0,0,1,.38.6A.49.49,0,0,1,239.92,210.64Z" fill="#231f20"/><path d="M239.92,216l-.12,0-11.56-2.73h-38.6a.5.5,0,0,1,0-1h38.78L240,215a.5.5,0,0,1-.11,1Z" fill="#231f20"/><path d="M240.13,220.4h-.08l-11.83-2H189.64a.5.5,0,0,1,0-1H228.3l11.92,2a.48.48,0,0,1,.4.57A.49.49,0,0,1,240.13,220.4Z" fill="#231f20"/><path d="M239.92,225.37h-.08l-11.61-1.84H189.64a.5.5,0,0,1,0-1H228.3L240,224.38a.5.5,0,0,1-.07,1Z" fill="#231f20"/><path d="M240.23,230.35h-.07l-11.93-1.66H189.64a.5.5,0,0,1,0-1H228.3l12,1.66a.5.5,0,0,1-.06,1Z" fill="#231f20"/><path d="M239.92,235.78h-.09l-11.61-1.94H189.64a.5.5,0,0,1-.5-.5.5.5,0,0,1,.5-.5H228.3l11.7,1.95a.5.5,0,0,1-.08,1Z" fill="#231f20"/><path d="M239.48,240.61h-.08L228.23,239H189.64a.5.5,0,0,1-.5-.5.5.5,0,0,1,.5-.5H228.3l11.25,1.62a.5.5,0,0,1-.07,1Z" fill="#231f20"/><path d="M239.92,246h-.09l-11.61-1.9H189.64a.5.5,0,0,1-.5-.5.5.5,0,0,1,.5-.5H228.3L240,245a.5.5,0,0,1-.08,1Z" fill="#231f20"/><path d="M240.13,250.9h-.07l-11.82-1.62h-38.6a.5.5,0,0,1-.5-.5.5.5,0,0,1,.5-.5H228.3l11.9,1.62a.5.5,0,0,1-.07,1Z" fill="#231f20"/><rect x="39.4" y="200.94" width="7.39" height="41.11" fill="#231f20"/><path d="M46.79,242.55H39.4a.5.5,0,0,1-.5-.5V200.94a.5.5,0,0,1,.5-.5h7.39a.5.5,0,0,1,.5.5v41.11A.5.5,0,0,1,46.79,242.55Zm-6.89-1h6.39V201.44H39.9Z" fill="#231f20"/><path d="M66.93,213.7V165.84s20.6-12.76,25.85-14.64v5.25H96l3.92-3.92V254.05H67.49Z" fill="#231f20"/><path d="M99.93,254.55H67.49a.5.5,0,0,1-.5-.49l-.56-40.35h0V165.84a.5.5,0,0,1,.23-.42c.85-.53,20.71-12.82,26-14.69a.5.5,0,0,1,.46.06.51.51,0,0,1,.21.41V156H95.8l3.78-3.77a.48.48,0,0,1,.54-.11.49.49,0,0,1,.31.46V254.05A.5.5,0,0,1,99.93,254.55Zm-31.95-1H99.43V153.74l-3.07,3.07A.5.5,0,0,1,96,157H92.78a.5.5,0,0,1-.5-.5v-4.52c-5.67,2.39-22.64,12.82-24.85,14.19v47.57Z" fill="#231f20"/><polygon points="70.95 175.79 75.83 175.79 75.83 173.35 80.96 173.35 80.96 175.79 84.53 175.79 84.53 180.29 86.96 180.29 86.96 184.42 89.03 184.42 89.03 254.05 73.68 254.05 65.75 187.1 70.95 175.79" fill="#fff"/><path d="M89,254.55H73.68a.5.5,0,0,1-.49-.44l-7.93-67a.51.51,0,0,1,0-.27l5.2-11.31a.49.49,0,0,1,.45-.29h4.37v-1.94a.5.5,0,0,1,.5-.5H81a.5.5,0,0,1,.5.5v1.94h3.07a.5.5,0,0,1,.5.5v4H87a.5.5,0,0,1,.5.5v3.63H89a.51.51,0,0,1,.5.5v69.63A.5.5,0,0,1,89,254.55Zm-14.9-1h14.4V184.92H87a.5.5,0,0,1-.5-.5v-3.63H84.53a.5.5,0,0,1-.5-.5v-4H81a.5.5,0,0,1-.5-.5v-1.94H76.32v1.94a.5.5,0,0,1-.5.5H71.27l-5,10.89Z" fill="#231f20"/><polygon points="49.49 254.05 49.49 184.99 52.14 184.99 52.14 175.79 70.95 175.79 70.95 185.36 73.09 185.36 73.09 238.48 49.49 254.05" fill="#d1d3d4"/><path d="M49.49,254.55a.46.46,0,0,1-.23-.06.5.5,0,0,1-.27-.44V185a.5.5,0,0,1,.5-.5h2.15v-8.7a.5.5,0,0,1,.5-.5H71a.5.5,0,0,1,.5.5v9.07H73.1a.5.5,0,0,1,.5.5v53.12a.5.5,0,0,1-.23.42l-23.6,15.57A.54.54,0,0,1,49.49,254.55Zm.5-69.06v67.63L72.6,238.21V185.86H71a.5.5,0,0,1-.5-.5v-9.07H52.64V185a.51.51,0,0,1-.5.5Z" fill="#231f20"/><rect x="39.4" y="233.23" width="18.66" height="21.03" fill="#d1d3d4"/><path d="M58.06,254.75H39.4a.5.5,0,0,1-.5-.5v-21a.5.5,0,0,1,.5-.5H58.06a.5.5,0,0,1,.5.5v21A.5.5,0,0,1,58.06,254.75Zm-18.16-1H57.56v-20H39.9Z" fill="#231f20"/><rect x="58.06" y="233.23" width="17.77" height="21.03" transform="translate(133.88 487.48) rotate(180)" fill="#fff"/><path d="M75.82,254.75H58.06a.5.5,0,0,1-.5-.5v-21a.5.5,0,0,1,.5-.5H75.82a.5.5,0,0,1,.5.5v21A.5.5,0,0,1,75.82,254.75Zm-17.26-1H75.32v-20H58.56Z" fill="#231f20"/><polygon points="113.99 175.79 124.88 175.79 123.57 180.29 113.99 180.29 113.99 175.79" fill="#fff"/><path d="M123.57,180.79H114a.5.5,0,0,1-.5-.5v-4.5a.5.5,0,0,1,.5-.5h10.89a.48.48,0,0,1,.4.2.53.53,0,0,1,.08.44l-1.31,4.5A.5.5,0,0,1,123.57,180.79Zm-9.08-1h8.7l1-3.5h-9.72Z" fill="#231f20"/><polygon points="98.23 247.65 98.23 180.1 101.79 180.1 101.79 175.79 113.99 175.79 113.99 180.29 123.57 180.29 123.57 250.68 98.23 247.65" fill="#231f20"/><path d="M123.57,251.18h-.06l-25.34-3a.49.49,0,0,1-.44-.49V180.11a.5.5,0,0,1,.5-.5h3.06v-3.82a.5.5,0,0,1,.5-.5H114a.5.5,0,0,1,.5.5v4h9.08a.51.51,0,0,1,.5.5v70.39a.54.54,0,0,1-.17.38A.5.5,0,0,1,123.57,251.18Zm-24.84-4,24.34,2.92V180.79H114a.5.5,0,0,1-.5-.5v-4h-11.2v3.82a.5.5,0,0,1-.5.5H98.73Z" fill="#231f20"/><polygon points="121.5 197.94 138.77 197.94 138.77 108.4 121.5 111.22 121.5 197.94" fill="#d1d3d4"/><path d="M138.77,198.44H121.5a.51.51,0,0,1-.5-.5V111.22a.51.51,0,0,1,.42-.5l17.27-2.81a.46.46,0,0,1,.4.11.48.48,0,0,1,.18.38v89.54A.5.5,0,0,1,138.77,198.44Zm-16.77-1h16.27V109L122,111.64Z" fill="#231f20"/><polygon points="138.77 108.4 148.91 110.65 148.91 194 138.77 194 138.77 108.4" fill="#fff"/><path d="M148.91,194.5H138.77a.5.5,0,0,1-.5-.5V108.4a.51.51,0,0,1,.19-.39.53.53,0,0,1,.42-.1L149,110.17a.5.5,0,0,1,.39.48V194A.51.51,0,0,1,148.91,194.5Zm-9.64-1h9.14V111.05l-9.14-2Z" fill="#231f20"/><polygon points="131.07 188.36 153.41 190.62 153.41 254.18 131.07 254.18 131.07 188.36" fill="#fff"/><path d="M153.41,254.68H131.07a.5.5,0,0,1-.5-.5V188.36a.5.5,0,0,1,.17-.37.47.47,0,0,1,.38-.12l22.34,2.25a.5.5,0,0,1,.45.5v63.56A.5.5,0,0,1,153.41,254.68Zm-21.84-1h21.34V191.07l-21.34-2.15Z" fill="#231f20"/><path d="M135.77,254v-53h9.57v-4.69h12s4.51,2.25,5.07,4.69v53.31Z" fill="#fff"/><path d="M162.42,254.75h0l-26.66-.29a.5.5,0,0,1-.49-.5h0v-53a.5.5,0,0,1,.14-.35.49.49,0,0,1,.36-.15h9.07v-4.19a.5.5,0,0,1,.5-.5h12a.59.59,0,0,1,.23.05c.19.1,4.72,2.39,5.33,5a.41.41,0,0,1,0,.11v53.31a.49.49,0,0,1-.15.36A.5.5,0,0,1,162.42,254.75Zm-26.16-1.29,25.66.29V201c-.45-1.74-3.43-3.6-4.69-4.25H145.84v4.19a.5.5,0,0,1-.5.5h-9.07v50.24C136.27,252.49,136.27,253.06,136.26,253.46Z" fill="#231f20"/><path d="M145.34,252.81a.5.5,0,0,1-.5-.5V200.94a.5.5,0,0,1,1,0v51.37A.5.5,0,0,1,145.34,252.81Z" fill="#231f20"/><rect x="116.06" y="188.36" width="15.02" height="65.89" fill="#d1d3d4"/><path d="M131.07,254.75h-15a.5.5,0,0,1-.5-.5V188.36a.5.5,0,0,1,.5-.5h15a.5.5,0,0,1,.5.5v65.89A.5.5,0,0,1,131.07,254.75Zm-14.51-1h14V188.86h-14Z" fill="#231f20"/><path d="M360.6,230.6s-251.91,15.2-254.87,15.77-7.34,2-9.39,2.4,6-5.5,7.85-5.78,238.05-16.9,238.05-16.9l18.36-6.19Z" fill="#231f20"/><path d="M96.17,249.29a.68.68,0,0,1-.52-.22.61.61,0,0,1-.1-.63c.45-1.19,6.92-5.7,8.56-5.95,1.83-.28,227.49-16.15,238-16.89l18.29-6.17a.48.48,0,0,1,.45.06.52.52,0,0,1,.21.41v10.7a.51.51,0,0,1-.47.5c-2.52.15-251.72,15.19-254.8,15.76-1.65.31-3.77.9-5.65,1.42-1.45.41-2.83.79-3.74,1A1.57,1.57,0,0,1,96.17,249.29ZM360.1,220.6l-17.7,6-.12,0c-2.36.17-235.8,16.59-238,16.89-1.17.18-5.41,3.08-7.1,4.58.81-.2,1.77-.47,2.76-.74,1.89-.53,4-1.12,5.72-1.45,2.92-.55,238.87-14.8,254.46-15.74Zm.5,10h0Z" fill="#231f20"/><polygon points="341.49 231.72 335.77 242.95 335.77 254.18 330.04 254.18 330.04 244.21 323.47 231.72 328.79 231.72 333.14 240.83 337.65 231.72 341.49 231.72" fill="#231f20"/><path d="M335.77,254.68H330a.5.5,0,0,1-.5-.5v-9.85L323,232a.5.5,0,0,1,0-.49.5.5,0,0,1,.43-.24h5.32a.5.5,0,0,1,.45.28l3.91,8.19,4.05-8.19a.51.51,0,0,1,.45-.28h3.84a.51.51,0,0,1,.43.24.53.53,0,0,1,0,.49l-5.67,11.12v11.11A.5.5,0,0,1,335.77,254.68Zm-5.23-1h4.73V243a.59.59,0,0,1,.05-.23l5.35-10.5H338l-4.37,8.83a.59.59,0,0,1-.45.28.5.5,0,0,1-.45-.28l-4.22-8.83H324.3L330.48,244a.46.46,0,0,1,.06.23Z" fill="#231f20"/><path d="M287.81,233.88l5.54,10.61v9.69h6L298.79,244l6-11.27H301l-4.74,8.54s-5.21-8.64-5.49-8.54S287.81,233.88,287.81,233.88Z" fill="#231f20"/><path d="M299.35,254.68h-6a.5.5,0,0,1-.5-.5v-9.57l-5.48-10.5a.47.47,0,0,1,0-.4.49.49,0,0,1,.29-.29l3-1.14c.46-.15.66-.21,5.63,8l4.33-7.79a.49.49,0,0,1,.43-.25h3.76a.49.49,0,0,1,.44.73l-5.94,11.15.55,10a.5.5,0,0,1-.13.37A.52.52,0,0,1,299.35,254.68Zm-5.5-1h5l-.53-9.62a.58.58,0,0,1,.06-.26L304,233.26h-2.62l-4.6,8.28a.51.51,0,0,1-.43.26.48.48,0,0,1-.43-.24c-2.1-3.48-4.5-7.32-5.19-8.23l-2.18.82,5.28,10.11a.46.46,0,0,1,.06.23Z" fill="#231f20"/><polygon points="257.96 235.38 263.88 245.33 263.88 254.18 270.07 254.18 270.07 244.78 274.86 235.38 270.73 235.38 266.97 242.14 261.34 234.79 257.96 235.38" fill="#231f20"/><path d="M270.07,254.68h-6.19a.5.5,0,0,1-.5-.5v-8.71l-5.85-9.83a.5.5,0,0,1,0-.46.52.52,0,0,1,.37-.29l3.38-.59a.5.5,0,0,1,.48.19l5.17,6.74,3.38-6.09a.51.51,0,0,1,.44-.26h4.13a.51.51,0,0,1,.42.24.5.5,0,0,1,0,.49l-4.73,9.29v9.28A.5.5,0,0,1,270.07,254.68Zm-5.69-1h5.19v-8.9a.43.43,0,0,1,.06-.22l4.41-8.68h-3l-3.61,6.5a.5.5,0,0,1-.83.07l-5.45-7.11-2.37.41,5.55,9.33a.55.55,0,0,1,.07.25Z" fill="#231f20"/><polygon points="236.1 236.89 241.07 246.18 241.45 254.18 246.04 254.18 246.04 246.46 251.21 236.89 248.39 236.89 243.65 243.93 238.72 236.89 236.1 236.89" fill="#231f20"/><path d="M246,254.68h-4.59a.5.5,0,0,1-.5-.48l-.37-7.89-4.92-9.19a.48.48,0,0,1,0-.49.5.5,0,0,1,.43-.24h2.62a.49.49,0,0,1,.41.21l4.51,6.44,4.34-6.43a.48.48,0,0,1,.41-.22h2.82a.49.49,0,0,1,.44.73l-5.11,9.47v7.59A.5.5,0,0,1,246,254.68Zm-4.12-1h3.62v-7.22a.5.5,0,0,1,.06-.24l4.77-8.83h-1.71l-4.59,6.81a.54.54,0,0,1-.41.23.55.55,0,0,1-.42-.22l-4.78-6.82h-1.53l4.58,8.55a.42.42,0,0,1,.06.21Z" fill="#231f20"/><polygon points="209.07 239.14 214.7 248.06 214.7 254.18 219.3 254.18 219.3 247.68 225.12 237.92 221.64 237.92 217.09 245.53 212.35 238.39 209.07 239.14" fill="#231f20"/><path d="M219.3,254.68h-4.6a.5.5,0,0,1-.5-.5v-6l-5.56-8.79a.53.53,0,0,1,0-.46.54.54,0,0,1,.36-.3l3.28-.75a.51.51,0,0,1,.53.21l4.3,6.49,4.14-6.94a.51.51,0,0,1,.43-.24h3.48a.52.52,0,0,1,.43.25.47.47,0,0,1,0,.5l-5.74,9.65v6.36A.5.5,0,0,1,219.3,254.68Zm-4.1-1h3.6v-6a.48.48,0,0,1,.07-.26l5.36-9h-2.3l-4.41,7.37a.49.49,0,0,1-.42.24.48.48,0,0,1-.43-.22L212.13,239l-2.26.52,5.25,8.32a.5.5,0,0,1,.08.27Z" fill="#231f20"/><polygon points="164.67 254.18 166.65 241.96 179.6 241.11 182.88 254.18 178.75 254.18 177.06 245.99 169.93 246.08 167.96 254.18 164.67 254.18" fill="#231f20"/><path d="M182.88,254.68h-4.13a.5.5,0,0,1-.49-.4l-1.6-7.78-6.34.08-1.88,7.72a.49.49,0,0,1-.48.38h-3.29a.49.49,0,0,1-.38-.18.51.51,0,0,1-.11-.4l2-12.22a.5.5,0,0,1,.46-.42l12.95-.85a.5.5,0,0,1,.52.38l3.29,13.07a.54.54,0,0,1-.09.43A.51.51,0,0,1,182.88,254.68Zm-3.72-1h3.08l-3-12-12.13.79-1.82,11.25h2.31l1.87-7.71a.51.51,0,0,1,.48-.39l7.14-.09a.49.49,0,0,1,.49.4Z" fill="#231f20"/><polygon points="61.3 254.18 63.35 249.44 71.99 249.44 73.68 254.18 69.93 253.87 68.99 251.81 65.24 251.81 64.49 254.18 61.3 254.18" fill="#231f20"/><path d="M64.49,254.68h-3.2a.48.48,0,0,1-.41-.23.47.47,0,0,1,0-.47l2.06-4.74a.5.5,0,0,1,.45-.31H72a.5.5,0,0,1,.47.34L74.15,254a.49.49,0,0,1-.07.47.5.5,0,0,1-.44.2l-3.75-.31a.5.5,0,0,1-.42-.29l-.8-1.77H65.6l-.64,2A.49.49,0,0,1,64.49,254.68Zm-2.43-1h2.06l.64-2a.5.5,0,0,1,.48-.35H69a.51.51,0,0,1,.46.29l.81,1.8,2.69.22-1.31-3.69h-8Z" fill="#231f20"/><polygon points="41.45 254.18 43.51 249.44 52.14 249.44 53.83 254.18 50.08 253.87 49.14 251.81 45.39 251.81 44.64 254.18 41.45 254.18" fill="#231f20"/><path d="M44.64,254.68h-3.2a.48.48,0,0,1-.41-.23.47.47,0,0,1,0-.47l2.06-4.74a.5.5,0,0,1,.45-.31h8.64a.52.52,0,0,1,.48.34L54.3,254a.49.49,0,0,1-.07.47.5.5,0,0,1-.44.2L50,254.37a.5.5,0,0,1-.42-.29l-.8-1.77H45.75l-.64,2A.49.49,0,0,1,44.64,254.68Zm-2.43-1h2.06l.64-2a.5.5,0,0,1,.48-.35h3.75a.51.51,0,0,1,.46.29l.81,1.8,2.69.22-1.31-3.69h-8Z" fill="#231f20"/><path d="M360.6,227.78s-245.67,15-253.55,16.52-5.63,3.76-12.77,4.88-54.88,0-54.88,0V244.3s50.38.38,53.19.19,5.26-3.76,9.39-4.69S360.6,219.9,360.6,219.9Z" fill="#fff"/><path d="M76.81,250.19c-15.78,0-36.14-.48-37.42-.51a.51.51,0,0,1-.49-.5V244.3a.51.51,0,0,1,.5-.5h0c.51,0,50.39.37,53.16.19,1.24-.08,2.45-.93,3.85-1.91a15.52,15.52,0,0,1,5.46-2.77c4.12-.94,248.3-19.14,258.69-19.91a.5.5,0,0,1,.54.5v7.88a.5.5,0,0,1-.47.5c-2.46.15-245.73,15-253.49,16.51a14.57,14.57,0,0,0-6.51,2.53,12.91,12.91,0,0,1-6.27,2.36C91.94,250.06,85,250.19,76.81,250.19Zm-36.91-1.5c5.06.12,47.68,1,54.31,0a12,12,0,0,0,5.86-2.2,15.6,15.6,0,0,1,6.88-2.68c7.73-1.47,237.84-15.56,253.15-16.5v-6.87c-13.14,1-254,18.94-258,19.84A14.88,14.88,0,0,0,97,242.9c-1.46,1-2.84,2-4.35,2.09-2.69.18-47.16-.14-52.73-.19Zm320.7-20.91h0Z" fill="#231f20"/><path d="M84.53,254.25a4.19,4.19,0,0,1,4.06-1.88,2.92,2.92,0,0,1,3.26-1.55c-2.18-3.26.45-7.94,4.92-8.74a5,5,0,0,1,3.32-4.14,7.33,7.33,0,0,1,6.08.36,5,5,0,0,1,4.28-1.67,4.42,4.42,0,0,1,3.68,2.43c2.32-.79,5.33.27,6.18,2.19,3.24-.65,6.89,1.48,7.16,4.18,2.25-.48,4.83.53,5.77,2.26,2.35-1.85,6.2-1.42,9.31-.58,1.68.45,3.68,1.65,2.9,2.94a2.44,2.44,0,0,1,2.6.15,1.44,1.44,0,0,1,.18,2.11c1.11-.24,2.49.64,2.36,1.56Z" fill="#68e1fd"/><path d="M73,236.41H60.87a.56.56,0,0,1,0-1.11H73a.56.56,0,0,1,0,1.11Z" fill="#d1d3d4"/><path d="M73,239H60.87a.55.55,0,0,1-.55-.55.55.55,0,0,1,.55-.55H73a.55.55,0,0,1,.55.55A.55.55,0,0,1,73,239Z" fill="#d1d3d4"/><path d="M73,241.66H60.87a.55.55,0,0,1,0-1.1H73a.55.55,0,0,1,0,1.1Z" fill="#d1d3d4"/><path d="M56,229.6a.51.51,0,0,1-.5-.5V180.29a.51.51,0,0,1,.5-.5.5.5,0,0,1,.5.5V229.1A.5.5,0,0,1,56,229.6Z" fill="#231f20"/><path d="M61.26,229.6a.5.5,0,0,1-.5-.5V180.29a.5.5,0,0,1,.5-.5.51.51,0,0,1,.5.5V229.1A.51.51,0,0,1,61.26,229.6Z" fill="#231f20"/><path d="M66.88,229.6a.5.5,0,0,1-.5-.5V180.29a.5.5,0,0,1,1,0V229.1A.5.5,0,0,1,66.88,229.6Z" fill="#231f20"/><path d="M77.39,240.35a.55.55,0,0,1-.55-.55V183.86a.55.55,0,1,1,1.1,0V239.8A.55.55,0,0,1,77.39,240.35Z" fill="#d1d3d4"/><path d="M81,240.35a.55.55,0,0,1-.55-.55V183.86a.54.54,0,0,1,.55-.55.55.55,0,0,1,.55.55V239.8A.55.55,0,0,1,81,240.35Z" fill="#d1d3d4"/><path d="M84.53,240.35a.56.56,0,0,1-.56-.55V183.86a.56.56,0,0,1,1.11,0V239.8A.55.55,0,0,1,84.53,240.35Z" fill="#d1d3d4"/><path d="M158.29,205H138.77a.5.5,0,0,1-.5-.5.5.5,0,0,1,.5-.5h19.52a.5.5,0,0,1,.5.5A.5.5,0,0,1,158.29,205Z" fill="#231f20"/><path d="M158.29,208.76H138.77a.5.5,0,1,1,0-1h19.52a.5.5,0,0,1,0,1Z" fill="#231f20"/><path d="M158.29,212.52H138.77a.5.5,0,0,1-.5-.5.5.5,0,0,1,.5-.5h19.52a.5.5,0,0,1,.5.5A.5.5,0,0,1,158.29,212.52Z" fill="#231f20"/><path d="M158.29,216.27H138.77a.5.5,0,0,1,0-1h19.52a.5.5,0,0,1,0,1Z" fill="#231f20"/><path d="M158.29,220H138.77a.5.5,0,0,1-.5-.5.5.5,0,0,1,.5-.5h19.52a.5.5,0,0,1,.5.5A.5.5,0,0,1,158.29,220Z" fill="#231f20"/><path d="M158.29,223.78H138.77a.5.5,0,0,1-.5-.5.5.5,0,0,1,.5-.5h19.52a.5.5,0,0,1,.5.5A.5.5,0,0,1,158.29,223.78Z" fill="#231f20"/><path d="M158.29,227.53H138.77a.5.5,0,0,1-.5-.5.5.5,0,0,1,.5-.5h19.52a.5.5,0,0,1,.5.5A.5.5,0,0,1,158.29,227.53Z" fill="#231f20"/><path d="M158.29,231.29H138.77a.5.5,0,0,1-.5-.5.5.5,0,0,1,.5-.5h19.52a.5.5,0,0,1,.5.5A.5.5,0,0,1,158.29,231.29Z" fill="#231f20"/><path d="M141.4,119.09a.55.55,0,0,1-.55-.55v-5.82a.54.54,0,0,1,.55-.55.55.55,0,0,1,.55.55v5.82A.55.55,0,0,1,141.4,119.09Z" fill="#d1d3d4"/><path d="M143.84,126.41a.55.55,0,0,1-.55-.55V120a.54.54,0,0,1,.55-.55.55.55,0,0,1,.55.55v5.82A.55.55,0,0,1,143.84,126.41Z" fill="#d1d3d4"/><path d="M133.51,122a.51.51,0,0,1-.5-.5v-5.82a.5.5,0,0,1,.5-.5.5.5,0,0,1,.5.5v5.82A.5.5,0,0,1,133.51,122Z" fill="#231f20"/><path d="M128.82,127.77a.51.51,0,0,1-.5-.5v-5.82a.5.5,0,0,1,.5-.5.5.5,0,0,1,.5.5v5.82A.5.5,0,0,1,128.82,127.77Z" fill="#231f20"/><path d="M131.07,135.93a.5.5,0,0,1-.5-.5v-5.82a.51.51,0,0,1,.5-.5.5.5,0,0,1,.5.5v5.82A.5.5,0,0,1,131.07,135.93Z" fill="#231f20"/><path d="M124.88,141.66a.5.5,0,0,1-.5-.5v-5.82a.5.5,0,0,1,1,0v5.82A.5.5,0,0,1,124.88,141.66Z" fill="#231f20"/><path d="M128.82,151.7a.5.5,0,0,1-.5-.5v-5.82a.5.5,0,0,1,.5-.5.5.5,0,0,1,.5.5v5.82A.5.5,0,0,1,128.82,151.7Z" fill="#231f20"/><path d="M133.51,159.49a.51.51,0,0,1-.5-.5v-5.82a.5.5,0,0,1,.5-.5.5.5,0,0,1,.5.5V159A.5.5,0,0,1,133.51,159.49Z" fill="#231f20"/><path d="M145.34,140.3a.55.55,0,0,1-.55-.55v-5.82a.55.55,0,0,1,.55-.55.54.54,0,0,1,.55.55v5.82A.55.55,0,0,1,145.34,140.3Z" fill="#d1d3d4"/><path d="M146.84,151.75a.55.55,0,0,1-.55-.55v-5.82a.55.55,0,0,1,.55-.55.54.54,0,0,1,.55.55v5.82A.55.55,0,0,1,146.84,151.75Z" fill="#d1d3d4"/><path d="M143.84,158.88a.54.54,0,0,1-.55-.55v-5.82a.55.55,0,0,1,.55-.55.55.55,0,0,1,.55.55v5.82A.55.55,0,0,1,143.84,158.88Z" fill="#d1d3d4"/><path d="M142.81,170a.56.56,0,0,1-.56-.55v-5.82a.56.56,0,1,1,1.11,0v5.82A.55.55,0,0,1,142.81,170Z" fill="#d1d3d4"/><path d="M144.59,181.5A.54.54,0,0,1,144,181v-5.82a.55.55,0,0,1,.55-.55.55.55,0,0,1,.55.55V181A.55.55,0,0,1,144.59,181.5Z" fill="#d1d3d4"/><path d="M146.84,165.27a.56.56,0,0,1-.55-.56v-5.82a.55.55,0,0,1,.55-.55.55.55,0,0,1,.55.55v5.82A.55.55,0,0,1,146.84,165.27Z" fill="#d1d3d4"/><path d="M141.4,161.79a.54.54,0,0,1-.55-.55v-5.82a.55.55,0,0,1,.55-.55.55.55,0,0,1,.55.55v5.82A.55.55,0,0,1,141.4,161.79Z" fill="#d1d3d4"/><path d="M142.24,144.62a.55.55,0,0,1-.55-.55v-5.82a.56.56,0,1,1,1.11,0v5.82A.56.56,0,0,1,142.24,144.62Z" fill="#d1d3d4"/><path d="M240.13,201.44H240l-11.77-3h-38.6a.5.5,0,0,1-.5-.5.5.5,0,0,1,.5-.5h38.79l11.82,3a.5.5,0,0,1-.12,1Z" fill="#231f20"/><path d="M186,203.12a.5.5,0,0,1-.5-.5V183.86a.5.5,0,0,1,.5-.5.5.5,0,0,1,.5.5v18.76A.5.5,0,0,1,186,203.12Z" fill="#231f20"/><path d="M324.6,168.3h-.07L313.46,167a.54.54,0,0,1-.48-.61.55.55,0,0,1,.61-.49l11.08,1.34a.56.56,0,0,1-.07,1.11Z" fill="#d1d3d4"/><path d="M324.6,173h-.07l-11.07-1.34a.55.55,0,0,1,.13-1.1l11.08,1.35a.54.54,0,0,1,.48.61A.56.56,0,0,1,324.6,173Z" fill="#d1d3d4"/><path d="M324.6,177.74h-.07l-11.07-1.34a.55.55,0,0,1,.13-1.1l11.08,1.34a.56.56,0,0,1-.07,1.11Z" fill="#d1d3d4"/><path d="M324.6,182.46h-.07l-11.07-1.34a.55.55,0,0,1,.13-1.1l11.08,1.34a.56.56,0,0,1-.07,1.11Z" fill="#d1d3d4"/><path d="M324.6,187.18h-.07l-11.07-1.34a.55.55,0,0,1-.48-.61.56.56,0,0,1,.61-.49l11.08,1.34a.56.56,0,0,1-.07,1.11Z" fill="#d1d3d4"/><path d="M324.6,191.9h-.07l-11.07-1.34a.55.55,0,0,1-.48-.61.56.56,0,0,1,.61-.49l11.08,1.34a.56.56,0,0,1-.07,1.11Z" fill="#d1d3d4"/><path d="M324.6,196.62h-.07l-11.07-1.34a.55.55,0,0,1-.48-.61.56.56,0,0,1,.61-.49l11.08,1.34a.56.56,0,0,1-.07,1.11Z" fill="#d1d3d4"/><path d="M324.6,201.34h-.07L313.46,200a.55.55,0,0,1,.13-1.1l11.08,1.34a.56.56,0,0,1-.07,1.11Z" fill="#d1d3d4"/><path d="M324.6,206.06h-.07l-11.07-1.34a.55.55,0,0,1,.13-1.1L324.67,205a.56.56,0,0,1-.07,1.11Z" fill="#d1d3d4"/><path d="M324.6,210.78h-.07l-11.07-1.34a.55.55,0,0,1,.13-1.1l11.08,1.34a.56.56,0,0,1-.07,1.11Z" fill="#d1d3d4"/><path d="M324.6,215.5h-.07l-11.07-1.34a.55.55,0,0,1,.13-1.1l11.08,1.34a.56.56,0,0,1-.07,1.11Z" fill="#d1d3d4"/><path d="M324.6,220.22h-.07l-11.07-1.34a.55.55,0,0,1,.13-1.1l11.08,1.34a.56.56,0,0,1-.07,1.11Z" fill="#d1d3d4"/><path d="M360.6,254.68H39.4a.5.5,0,0,1-.5-.5V45.82a.5.5,0,0,1,.5-.5H360.6a.5.5,0,0,1,.5.5V254.18A.5.5,0,0,1,360.6,254.68Zm-320.7-1H360.1V46.32H39.9Z" fill="#231f20"/></g></svg>