<svg xmlns="http://www.w3.org/2000/svg" viewBox="0 0 400 300"><g id="_469_human_profile_flatline" data-name="#469_human_profile_flatline"><path d="M351.44,40.62H49.1a.51.51,0,0,1-.5-.5.5.5,0,0,1,.5-.5H351.44a.5.5,0,0,1,.5.5A.5.5,0,0,1,351.44,40.62Z" fill="#d1d3d4"/><rect x="48.65" y="29.38" width="302.7" height="241.24" rx="14.3" fill="#fff"/><path d="M337.05,271.12H63a14.82,14.82,0,0,1-14.81-14.81V43.69A14.82,14.82,0,0,1,63,28.88H337.05a14.82,14.82,0,0,1,14.8,14.81V256.31A14.82,14.82,0,0,1,337.05,271.12ZM63,29.88A13.83,13.83,0,0,0,49.15,43.69V256.31A13.83,13.83,0,0,0,63,270.12H337.05a13.82,13.82,0,0,0,13.8-13.81V43.69a13.82,13.82,0,0,0-13.8-13.81Z" fill="#d1d3d4"/><path d="M351.35,75.62H48.65a.5.5,0,0,1-.5-.5.51.51,0,0,1,.5-.5h302.7a.5.5,0,0,1,.5.5A.5.5,0,0,1,351.35,75.62Z" fill="#d1d3d4"/><path d="M351.35,129.09H48.65a.51.51,0,0,1-.5-.5.5.5,0,0,1,.5-.5h302.7a.5.5,0,0,1,.5.5A.5.5,0,0,1,351.35,129.09Z" fill="#d1d3d4"/><path d="M351.35,199.83H48.65a.5.5,0,0,1-.5-.5.51.51,0,0,1,.5-.5h302.7a.5.5,0,0,1,.5.5A.5.5,0,0,1,351.35,199.83Z" fill="#d1d3d4"/><path d="M351.35,259.78H48.65a.5.5,0,0,1-.5-.5.51.51,0,0,1,.5-.5h302.7a.5.5,0,0,1,.5.5A.5.5,0,0,1,351.35,259.78Z" fill="#d1d3d4"/><path d="M79.8,153.73s-.54-17.82,0-23.22,2-7.56,2-7.56-1.17-36.72,2.74-42.53,24.71-11.2,24.71-11.2V66.38a15.73,15.73,0,0,1-2.84-2.7A6.34,6.34,0,0,1,105.24,60c-2.63.3-4.51-4.39-3.12-7.34.93-2,2.07-1,2.78,0-.35-5.13.6-9,3.11-10.8s6.76-1.62,6.76-1.62,4.18-.27,6.75,1.62,3.46,5.67,3.11,10.8c.71-1,1.85-1.93,2.78,0,1.39,3-.48,7.64-3.12,7.34a6.34,6.34,0,0,1-1.15,3.69,15.73,15.73,0,0,1-2.84,2.7v2.84s20.79,5.4,24.71,11.2S147.75,123,147.75,123s1.44,2.16,2,7.56,0,23.22,0,23.22,1.22,9.72,1.08,11.75-5.94,5.94-6.61,4.86,3.51-5.15,3-5.68a14.62,14.62,0,0,1-1.49-2.29s-.54,5-1.62,4.59-1.62-2.29-1.75-3,1.35-10.5,1.35-11-4.19-10.07-5.27-16.14a20,20,0,0,1,1.26-11s-5-15.48-5.76-22.68c0,0-1.11,19.62-1.1,27.72s2.09,37.17,3.44,51.21-6.07,55.14-6.48,68.69c0,1.38,3.78,7.56,3.78,7.56h-11.7s1-10.38.89-13.52c-.39-13-2.73-40.64-4-48.68-1.62-10-3.91-28.9-3.91-28.9s-2.3,18.9-3.92,28.9c-1.3,8-3.65,35.7-4,48.68-.09,3.14.89,13.52.89,13.52H96s3.82-6.18,3.78-7.56c-.41-13.55-7.83-54.64-6.48-68.69s3.42-43.11,3.44-51.21-1.1-27.72-1.1-27.72c-.72,7.2-5.76,22.68-5.76,22.68a20,20,0,0,1,1.26,11c-1.08,6.07-5.27,15.66-5.27,16.14s1.49,10.32,1.35,11-.67,2.57-1.75,3-1.62-4.59-1.62-4.59a14.62,14.62,0,0,1-1.49,2.29c-.54.53,3.65,4.6,3,5.68s-6.48-2.84-6.61-4.86S79.8,153.73,79.8,153.73Z" fill="#68e1fd"/><path d="M133.53,258.83h-11.7a.5.5,0,0,1-.37-.17.52.52,0,0,1-.13-.38c0-.1,1-10.38.89-13.45-.38-12.54-2.68-40.26-4-48.62-1.15-7.1-2.66-18.79-3.42-24.91-.77,6.12-2.28,17.81-3.43,24.91-1.35,8.36-3.65,36.08-4,48.62-.09,3.07.88,13.35.89,13.45a.51.51,0,0,1-.5.55H96a.51.51,0,0,1-.44-.26.52.52,0,0,1,0-.51c1.56-2.51,3.73-6.43,3.71-7.28-.16-5.33-1.44-15.15-2.79-25.55C94.37,209,92,190.58,92.8,182c1.42-14.8,3.42-43.34,3.44-51.17,0-5.59-.53-16.8-.85-23.11-1.49,7.15-4.49,16.55-5,18a20.52,20.52,0,0,1,1.22,11.14c-.79,4.44-3.19,10.65-4.47,14-.39,1-.76,1.95-.79,2.13s.22,1.61.42,3.06c.71,5.15,1,7.53.92,8s-.63,2.8-2.07,3.34a.83.83,0,0,1-.75-.08c-.69-.42-1.11-2.08-1.34-3.47a7.06,7.06,0,0,1-.71,1A12.65,12.65,0,0,0,84,166.58c1.44,1.95,2.28,3.19,1.76,4-.17.28-.56.56-1.4.35-1.85-.47-6-3.47-6.14-5.44s1-11,1.08-11.8c0-1.16-.53-18,0-23.25.48-4.76,1.64-7.07,2-7.64-.08-2.91-1-36.94,2.84-42.68,3.73-5.53,21.7-10.53,24.62-11.31V66.64A18,18,0,0,1,106,64a6.35,6.35,0,0,1-1.22-3.51A3.33,3.33,0,0,1,102.38,59a6.92,6.92,0,0,1-.71-6.51c.41-.88.94-1.36,1.57-1.42a1.63,1.63,0,0,1,1.1.32c-.13-4.85,1-8.18,3.38-9.93,2.68-2,6.9-1.73,7.08-1.72s4.33-.26,7,1.72c2.38,1.75,3.51,5.08,3.39,9.93a1.58,1.58,0,0,1,1.09-.32c.63.06,1.16.54,1.57,1.42a6.92,6.92,0,0,1-.71,6.51,3.33,3.33,0,0,1-2.4,1.54A6.44,6.44,0,0,1,123.52,64a18,18,0,0,1-2.72,2.64v2.19c2.92.78,20.89,5.78,24.62,11.31,3.87,5.74,2.93,39.77,2.84,42.68.33.57,1.49,2.88,2,7.64.54,5.37,0,22.56,0,23.29.05.32,1.22,9.71,1.08,11.76s-4.29,5-6.13,5.44c-.85.21-1.23-.07-1.41-.35-.52-.83.32-2.07,1.77-4a13.06,13.06,0,0,0,1.15-1.71,7.06,7.06,0,0,1-.71-1c-.23,1.39-.65,3.05-1.34,3.47a.8.8,0,0,1-.75.08c-1.45-.54-2-2.88-2.07-3.34s.21-2.82.93-8c.2-1.45.4-2.93.41-3.12s-.4-1.06-.78-2.07c-1.29-3.34-3.69-9.55-4.48-14a20.52,20.52,0,0,1,1.22-11.14c-.49-1.49-3.49-10.89-5-18-.32,6.31-.86,17.52-.85,23.11,0,7.83,2,36.37,3.44,51.17.82,8.54-1.57,26.94-3.69,43.18-1.35,10.4-2.63,20.23-2.79,25.56,0,.85,2.15,4.77,3.71,7.28a.52.52,0,0,1,0,.51A.51.51,0,0,1,133.53,258.83Zm-11.15-1h10.26c-1.11-1.84-3.43-5.84-3.39-7.08.16-5.38,1.45-15.23,2.8-25.66,2.11-16.18,4.49-34.52,3.68-43-1.28-13.34-3.42-42.82-3.44-51.26,0-8,1.09-27.55,1.1-27.75a.5.5,0,0,1,.49-.47.52.52,0,0,1,.51.45c.71,7.06,5.69,22.42,5.74,22.58a.45.45,0,0,1,0,.36,19.83,19.83,0,0,0-1.22,10.73c.78,4.34,3.15,10.5,4.43,13.81a12,12,0,0,1,.85,2.42c0,.19-.11,1-.42,3.25-.35,2.5-1,7.15-.94,7.66.17.85.67,2.21,1.36,2.55a11.08,11.08,0,0,0,1-4.14.49.49,0,0,1,.4-.44.48.48,0,0,1,.53.26,13.75,13.75,0,0,0,1.4,2.16c.55.54-.07,1.37-1.18,2.87-.6.81-1.84,2.49-1.71,2.91a6.84,6.84,0,0,0,2.45-1.18c1.79-1.19,3.18-2.68,3.23-3.45.13-2-1.06-11.56-1.07-11.66,0-.25.53-17.92,0-23.23s-1.89-7.31-1.9-7.34a.48.48,0,0,1-.09-.29c0-.36,1.12-36.62-2.66-42.23s-24.21-11-24.42-11a.52.52,0,0,1-.37-.49V66.38A.51.51,0,0,1,120,66a15.07,15.07,0,0,0,2.74-2.61,5.78,5.78,0,0,0,1-3.41.51.51,0,0,1,.19-.34.45.45,0,0,1,.37-.11,2.32,2.32,0,0,0,2-1.12,5.87,5.87,0,0,0,.62-5.5c-.25-.53-.52-.83-.77-.86s-.72.31-1.15.89a.5.5,0,0,1-.91-.33c.36-5.11-.65-8.7-2.91-10.36s-6.39-1.53-6.42-1.52-4.1-.24-6.49,1.52-3.26,5.25-2.91,10.36a.52.52,0,0,1-.33.51.5.5,0,0,1-.57-.18c-.44-.58-.89-.92-1.16-.89s-.52.33-.77.86a5.87,5.87,0,0,0,.62,5.5,2.32,2.32,0,0,0,2,1.12.52.52,0,0,1,.38.11.5.5,0,0,1,.18.34,5.78,5.78,0,0,0,1,3.41A15.07,15.07,0,0,0,109.51,66a.51.51,0,0,1,.22.42v2.83a.5.5,0,0,1-.37.49c-.21,0-20.66,5.42-24.42,11s-2.67,41.87-2.66,42.23a.55.55,0,0,1-.08.29s-1.39,2.16-1.91,7.34,0,23,0,23.16a.17.17,0,0,1,0,.07c0,.1-1.2,9.7-1.07,11.66,0,.77,1.44,2.26,3.23,3.45,1.47,1,2.34,1.18,2.52,1.12.06-.36-1.18-2-1.78-2.85-1.11-1.5-1.73-2.33-1.18-2.87a13.75,13.75,0,0,0,1.4-2.16.48.48,0,0,1,.53-.26.49.49,0,0,1,.4.44,11.08,11.08,0,0,0,1,4.14c.69-.34,1.19-1.7,1.36-2.57,0-.49-.59-5.14-.94-7.64-.31-2.25-.42-3.06-.42-3.25a12,12,0,0,1,.85-2.42c1.28-3.31,3.66-9.47,4.43-13.81A19.83,19.83,0,0,0,89.43,126a.45.45,0,0,1,0-.36c0-.16,5-15.52,5.74-22.58a.52.52,0,0,1,.51-.45.5.5,0,0,1,.49.47c0,.2,1.11,19.73,1.1,27.75,0,8.43-2.16,37.91-3.44,51.26-.81,8.44,1.57,26.78,3.68,43,1.36,10.43,2.64,20.27,2.8,25.65,0,1.24-2.28,5.24-3.39,7.08h10.26c-.2-2.21-.92-10.28-.84-13,.38-12.56,2.69-40.36,4-48.75,1.6-9.87,3.89-28.69,3.91-28.88a.5.5,0,0,1,1,0c0,.19,2.31,19,3.91,28.88,1.37,8.39,3.67,36.18,4,48.75C123.3,247.55,122.58,255.62,122.38,257.83Z" fill="#231f20"/><path d="M177,40.14s-5.53-.29-8.21,3.37S165.92,53,165.92,53s-3.08,3.78-2,4.35a2.61,2.61,0,0,0,2.16.06s-1.36,4.77,0,8.55,6,1.78,6,1.78l.17,3.21s-8.31,7-9.94,11.86,1.78,17.14.87,20.59,1.62,45.18,1.57,46.78S173,192.66,173.88,198s2.81,5.43,3.5,9.19,3.59,38,2.94,41.75-11.76,8.28-13.45,9.91c-1.19,1.16,16.37-.56,23.18-.68a1.68,1.68,0,0,0,1.55-2.31c-1.25-3-3.11-8.52-2.08-12,1.5-5,6.82-20.09,4.47-31.91s-4.9-17-4.9-17,1.12-37.47,2.91-42.83,4.44-4.23,2.83-13.35-8.17-16-7.49-20.79,7.72-23.27,6.42-33.73-6.92-12.76-7.24-15.44a43.83,43.83,0,0,1-.32-7.49c.16-.93,4.36-5.87,4.11-10.82S185,39.7,177,40.14Z" fill="#68e1fd"/><path d="M169,259.78c-2,0-2.46-.19-2.62-.56a.61.61,0,0,1,.16-.69,23.59,23.59,0,0,1,3.89-2.39c3.59-2,9-4.95,9.42-7.26.6-3.43-2.18-37.49-2.94-41.57a9.41,9.41,0,0,0-1.41-3.49,14.55,14.55,0,0,1-2.1-5.7c-.34-2-1.73-9.08-3.33-17.24-3.4-17.35-5.81-29.7-5.78-30.67,0-.39-.16-3.67-.37-7.82-.91-17.63-1.83-36.65-1.19-39.08.38-1.41-.05-4.62-.51-8-.61-4.57-1.3-9.75-.35-12.61,1.54-4.61,8.62-10.81,9.91-11.92l-.12-2.3a6,6,0,0,1-4,0,3.79,3.79,0,0,1-2.06-2.29,15.67,15.67,0,0,1-.22-8,2.92,2.92,0,0,1-1.71-.31.89.89,0,0,1-.47-.64c-.23-1.13,1.53-3.46,2.23-4.33,0-1,.43-6.21,2.94-9.64,2.73-3.74,8.12-3.6,8.61-3.58a13.65,13.65,0,0,1,10,3.37,11.34,11.34,0,0,1,3.88,7.53c.19,3.82-2.13,7.61-3.38,9.64a10.24,10.24,0,0,0-.74,1.3,44.87,44.87,0,0,0,.32,7.34,6.41,6.41,0,0,0,1.65,2.65,22.41,22.41,0,0,1,5.59,12.79c.95,7.57-2.41,19.24-4.62,27a66.38,66.38,0,0,0-1.79,6.89c-.32,2.26,1.16,5.17,2.87,8.55s3.79,7.48,4.61,12.08c1.14,6.43.2,7.94-1.11,10a15.49,15.49,0,0,0-1.74,3.56c-1.69,5.09-2.8,40.22-2.87,42.57.39.84,2.71,6,4.88,17s-2,24.11-4,30.49c-.19.64-.37,1.2-.51,1.67-1,3.34.87,8.73,2.07,11.65a2.15,2.15,0,0,1-.2,2,2.19,2.19,0,0,1-1.81,1c-2.39,0-6.21.29-9.91.53C174.25,259.61,170.9,259.78,169,259.78Zm-1.12-1c2.09.13,7.85-.25,12.23-.53,3.88-.25,7.54-.49,10-.53a1.18,1.18,0,0,0,1-.54,1.15,1.15,0,0,0,.1-1.08c-1.25-3-3.18-8.68-2.1-12.32.15-.47.32-1,.52-1.68,2-6.3,6-19.41,3.94-30-2.3-11.6-4.83-16.8-4.85-16.85a.5.5,0,0,1-.06-.24c0-1.53,1.15-37.59,2.93-43a15.6,15.6,0,0,1,1.85-3.78c1.22-2,2-3.28,1-9.33-.79-4.45-2.77-8.35-4.51-11.8s-3.34-6.57-3-9.14a68.7,68.7,0,0,1,1.81-7c2.2-7.65,5.52-19.2,4.6-26.57a21.53,21.53,0,0,0-5.37-12.27c-1-1.19-1.74-2.12-1.87-3.17a43,43,0,0,1-.31-7.63,6.52,6.52,0,0,1,.86-1.65c1.2-1.94,3.42-5.56,3.24-9.07a10.33,10.33,0,0,0-3.55-6.84A12.69,12.69,0,0,0,177,40.64H177s-5.29-.22-7.78,3.17-2.75,9.19-2.75,9.25a.48.48,0,0,1-.11.3c-1.24,1.51-2.25,3.25-2.13,3.64a2.24,2.24,0,0,0,1.67,0,.51.51,0,0,1,.69.59s-1.3,4.66,0,8.24a2.74,2.74,0,0,0,1.52,1.71,5.69,5.69,0,0,0,3.84-.22.5.5,0,0,1,.46,0,.49.49,0,0,1,.24.4l.17,3.21a.51.51,0,0,1-.18.41c-.08.07-8.22,6.92-9.79,11.63-.88,2.64-.2,7.7.39,12.16.49,3.64.92,6.8.49,8.4-.66,2.48.61,27,1.22,38.77.25,4.91.38,7.49.37,7.9,0,1,3.32,18,5.76,30.44,1.6,8.18,3,15.23,3.34,17.27a13.53,13.53,0,0,0,2,5.36,10.45,10.45,0,0,1,1.54,3.82c.69,3.76,3.6,38.1,2.93,41.93-.48,2.78-5.71,5.65-9.92,8C169.67,257.69,168.57,258.3,167.86,258.76Z" fill="#231f20"/><path d="M269.21,152.38s.94-11.2.94-16.74-1.75-14.72-1.75-14.72.67-29.16-2.3-35.23-11.2-6.48-13.9-6.75-7.26-4.3-5.27-7.52c1.13-1.84,3.43-1,5.22-1.14a11.64,11.64,0,0,0,6.37-2.59c-2.47-1.64-3.18-4.88-3.82-7.77a104.29,104.29,0,0,0-2.92-10.55,14.66,14.66,0,0,0-2.58-5.18,5.59,5.59,0,0,0-5.15-2.08c-1.13.23-2.23.94-3.34.65-.84-.21-1.48-.95-2.33-1.14-1.22-.28-2.37.66-3.19,1.6a19.54,19.54,0,0,0-4,7.33c-1.51,5.2-1,11.34-4.69,15.32a2.18,2.18,0,0,0-.66,1,1.67,1.67,0,0,0,.42,1.21c2.43,3.25,7.26,3.1,11.29,2.62a10.61,10.61,0,0,1-.29,4.71c-.27,1.21-2.16,3.24-4.87,3.51s-10.93.67-13.9,6.75-2.3,35.23-2.3,35.23-1.75,9.19-1.75,14.72.94,16.74.94,16.74-1.89,10.92-.94,12.28,5.26,4.46,5.53,3.25-2-5.67-2-5.67,2.56,3.24,2.7,1.62-1.89-9.42-2-10.86,3.78-14,4-20.33a53.45,53.45,0,0,0-.67-11.21s3.78-14.71,4.12-19.57a12.53,12.53,0,0,0,3.57,6.48l.68,18.77s-7.16,11.65-7.34,24.79,5.94,43.57,5.4,47-2.83,16.92-2.31,25.2,4.11,18,4.47,22-2.34,11-1.62,12.25,9.1,0,9.1,0A104.1,104.1,0,0,1,237,244.59c-.11-16.59.76-43.12,1.08-46.39.45-4.68,3.69-38,4.23-41,.54,3.06,3.78,36.37,4.23,41,.31,3.27,1.18,29.8,1.08,46.39a106.14,106.14,0,0,1-1.08,13.74s8.37,1.25,9.09,0-2-8.29-1.62-12.25,4-13.68,4.47-22-1.77-21.78-2.31-25.2,5.58-33.85,5.4-47-7.34-24.79-7.34-24.79l.68-18.77a12.53,12.53,0,0,0,3.57-6.48c.34,4.86,4.12,19.57,4.12,19.57a53.45,53.45,0,0,0-.67,11.21c.27,6.35,4.18,18.9,4.05,20.33s-2.16,9.24-2,10.86,2.7-1.62,2.7-1.62-2.29,4.45-2,5.67,4.59-1.89,5.53-3.25S269.21,152.38,269.21,152.38Z" fill="#68e1fd"/><path d="M252.71,259.39a45.63,45.63,0,0,1-6.26-.57.5.5,0,0,1-.33-.2.48.48,0,0,1-.09-.37,106,106,0,0,0,1.08-13.66c.1-16.21-.75-42.9-1.08-46.35-.59-6.09-2.71-27.78-3.73-37-1,9.23-3.15,30.92-3.74,37-.33,3.45-1.18,30.14-1.07,46.35a105,105,0,0,0,1.07,13.66.48.48,0,0,1-.09.37.5.5,0,0,1-.33.2c-3.25.49-8.83,1.1-9.6-.24-.42-.73-.1-2.24.53-5.07.57-2.52,1.21-5.37,1-7.39a54.2,54.2,0,0,0-1.51-6.75c-1.18-4.51-2.65-10.12-3-15.22-.49-7.81,1.46-20,2.2-24.55l.12-.76c.21-1.33-.73-7.52-1.81-14.69-1.65-10.89-3.7-24.45-3.6-32.23.17-12.37,6.55-23.58,7.34-24.91l-.67-18.41a11.59,11.59,0,0,1-2.87-4.32c-.91,5.78-3.5,16-3.82,17.2a54.76,54.76,0,0,1,.66,11.21c-.17,4-1.74,10.31-2.88,14.93a44.23,44.23,0,0,0-1.17,5.34c0,.51.38,2,.74,3.61a42.25,42.25,0,0,1,1.29,7.33.89.89,0,0,1-.6.88,1.28,1.28,0,0,1-1-.23,7.81,7.81,0,0,1,.88,3.47.81.81,0,0,1-.67.64c-1.42.29-5-2.59-5.76-3.72-1-1.41.39-9.9.85-12.58-.08-.92-.94-11.44-.94-16.72s1.6-13.93,1.75-14.76c0-1.8-.61-29.37,2.35-35.41s10.54-6.68,13.79-7l.51,0a5.26,5.26,0,0,0,4.43-3.12,11.2,11.2,0,0,0,.38-4c-4.25.47-8.84.42-11.29-2.87a2.08,2.08,0,0,1-.52-1.59,2.46,2.46,0,0,1,.73-1.21c2.45-2.65,3-6.17,3.58-9.89a43.22,43.22,0,0,1,1.06-5.3,20,20,0,0,1,4.1-7.52q1.89-2.16,3.68-1.76a4.32,4.32,0,0,1,1.35.64,3.59,3.59,0,0,0,1,.51,3.46,3.46,0,0,0,2-.32,8.5,8.5,0,0,1,1.15-.34,6.07,6.07,0,0,1,5.63,2.24,15.31,15.31,0,0,1,2.68,5.35,107.21,107.21,0,0,1,2.93,10.6c.61,2.78,1.31,5.93,3.61,7.46a.51.51,0,0,1,.22.39.49.49,0,0,1-.18.41,12.13,12.13,0,0,1-6.64,2.71,10.35,10.35,0,0,1-1.67,0c-1.35-.08-2.52-.15-3.18.92a3,3,0,0,0,0,3.07,7.27,7.27,0,0,0,4.91,3.68l.51,0c3.25.3,10.87,1,13.79,7s2.39,33.61,2.35,35.41c.16.83,1.75,9.4,1.75,14.76s-.86,15.8-.94,16.72c.46,2.68,1.83,11.17.85,12.58-.78,1.13-4.34,4-5.76,3.72a.82.82,0,0,1-.67-.64,7.81,7.81,0,0,1,.88-3.47,1.28,1.28,0,0,1-1,.23.91.91,0,0,1-.6-.88,41.62,41.62,0,0,1,1.3-7.33c.35-1.6.68-3.1.73-3.61a42.22,42.22,0,0,0-1.17-5.34c-1.14-4.62-2.71-10.94-2.88-14.93a54.76,54.76,0,0,1,.66-11.21c-.32-1.24-2.91-11.42-3.82-17.2a11.59,11.59,0,0,1-2.87,4.32L254.73,127c.78,1.33,7.16,12.54,7.33,24.91.1,7.78-1.95,21.34-3.6,32.23-1.08,7.17-2,13.36-1.81,14.69l.12.76c.74,4.58,2.69,16.73,2.2,24.55-.32,5.1-1.78,10.71-3,15.21a50.83,50.83,0,0,0-1.51,6.76c-.19,2,.45,4.87,1,7.39.64,2.83,1,4.34.53,5.07S254.37,259.39,252.71,259.39Zm-26.59-158a.49.49,0,0,1,.49.41A12.13,12.13,0,0,0,230,108a.46.46,0,0,1,.17.36l.68,18.77a.58.58,0,0,1-.07.28c-.07.11-7.09,11.69-7.27,24.54-.1,7.69,1.94,21.21,3.59,32.06,1.18,7.84,2,13.51,1.81,15l-.12.77c-.66,4.12-2.67,16.63-2.19,24.33.31,5,1.76,10.56,2.93,15a51.38,51.38,0,0,1,1.54,6.92c.2,2.16-.46,5.1-1,7.69-.39,1.75-.88,3.93-.64,4.35.42.47,4.07.39,8.09-.18a105.1,105.1,0,0,1-1-13.3c-.11-16.23.75-43,1.08-46.45,0-.38,3.65-37.76,4.23-41.08a.51.51,0,0,1,.5-.42.5.5,0,0,1,.49.42c.59,3.32,4.2,40.7,4.23,41.08.34,3.45,1.19,30.22,1.09,46.45a106.47,106.47,0,0,1-1,13.3c4,.57,7.67.65,8.1.17.24-.41-.25-2.59-.65-4.34-.58-2.59-1.24-5.53-1-7.69a51.46,51.46,0,0,1,1.54-6.93c1.17-4.46,2.62-10,2.93-15,.48-7.71-1.52-20.22-2.18-24.33l-.13-.77c-.23-1.48.63-7.15,1.81-15,1.65-10.85,3.69-24.37,3.59-32.06-.18-12.85-7.19-24.43-7.26-24.54a.5.5,0,0,1-.08-.28l.68-18.77a.46.46,0,0,1,.17-.36A12.08,12.08,0,0,0,258,101.8a.48.48,0,0,1,.52-.41.5.5,0,0,1,.47.46c.33,4.76,4.07,19.34,4.11,19.49a.41.41,0,0,1,0,.22,53,53,0,0,0-.66,11.09c.16,3.88,1.72,10.15,2.85,14.73a32.4,32.4,0,0,1,1.2,5.67c-.06.57-.37,2-.76,3.74a51.26,51.26,0,0,0-1.27,7,9.12,9.12,0,0,0,1.81-1.81.5.5,0,0,1,.84.54c-.88,1.7-2,4.35-2,5.22.81-.07,3.79-2.08,4.65-3.32.51-.73-.13-6.75-1-11.9a.62.62,0,0,1,0-.13c0-.11.94-11.25.94-16.7s-1.73-14.53-1.74-14.62a.41.41,0,0,1,0-.11c0-.29.64-29.11-2.25-35-2.67-5.48-9.9-6.14-13-6.43l-.52,0a8.15,8.15,0,0,1-5.7-4.23,4,4,0,0,1,.05-4c1-1.58,2.62-1.48,4.09-1.39a11,11,0,0,0,1.51,0,11.35,11.35,0,0,0,5.6-2.09c-2.2-1.83-2.88-4.92-3.49-7.67a105.18,105.18,0,0,0-2.9-10.5,14.74,14.74,0,0,0-2.48-5,5.13,5.13,0,0,0-4.68-1.91,9.83,9.83,0,0,0-1,.31,4.31,4.31,0,0,1-2.54.34,4.5,4.5,0,0,1-1.28-.63,3.33,3.33,0,0,0-1-.52c-1-.22-2,.67-2.7,1.45a19,19,0,0,0-3.9,7.14,41.85,41.85,0,0,0-1,5.17c-.58,3.71-1.18,7.55-3.77,10.35a1.84,1.84,0,0,0-.54.77,1.23,1.23,0,0,0,.33.82c2.24,3,6.74,2.91,10.83,2.43a.5.5,0,0,1,.55.38,10.94,10.94,0,0,1-.3,4.92c-.31,1.41-2.38,3.61-5.3,3.9l-.52,0c-3.08.29-10.3,1-13,6.43-2.89,5.89-2.25,34.71-2.25,35a.41.41,0,0,1,0,.11c0,.09-1.74,9.2-1.74,14.62s.93,16.59.94,16.7a.56.56,0,0,1,0,.13c-.9,5.15-1.54,11.17-1,11.9.86,1.24,3.84,3.25,4.65,3.32,0-.87-1.12-3.52-2-5.22a.51.51,0,0,1,.18-.65.49.49,0,0,1,.66.11,8.85,8.85,0,0,0,1.82,1.81,53.31,53.31,0,0,0-1.28-7c-.39-1.77-.7-3.17-.75-3.74s.37-2.36,1.19-5.67c1.13-4.58,2.69-10.85,2.85-14.73a53,53,0,0,0-.66-11.09.54.54,0,0,1,0-.22c0-.15,3.78-14.73,4.11-19.49a.5.5,0,0,1,.47-.46Z" fill="#231f20"/><path d="M310.52,47.07a8.71,8.71,0,0,0-11.43-1.75c-5.4,3.1-6.21,12.69-6.21,12.69s-3,5.4-2.3,5.94a4.37,4.37,0,0,0,1.89.67s-1.21,7.3,1.63,7.7a34.36,34.36,0,0,0,6.83,0v4.59s-13.32,13.77-15.48,17.28-1.48,9,1.76,11.21c0,0,.4,9.58,1.08,12s4.32,7.7,4.45,10.13-.22,41.85.68,48.15,10,31.51,10,31.51,5.67,42.39,4.86,44-13.15,8.58-11.34,8.58,21.24.35,21.87-.29-2.16-8.29-2.16-8.29,2.89-20.52,2.26-28.08-6.85-19.71-6-23.22,3.24-31.87,3.24-40.78c0,0,5.67-9.45,4-16.74s-10-13.77-10.53-17,6.75-27.81,6.48-35.1c-.16-4.29-2.16-8.44-4.33-12-1.19-2-4.79-5.88-.13-6.59a21,21,0,0,1,3.79.18,8.16,8.16,0,0,0,5.26-1.75c.38-.3.77-.8.54-1.23a1.3,1.3,0,0,0-.62-.46c-2.62-1.22-4.26-3.91-5.12-6.67s-1.1-5.66-1.78-8.47A14.12,14.12,0,0,0,310.52,47.07Z" fill="#68e1fd"/><path d="M309.24,260.38c-2.66,0-6,0-10.32-.07l-2,0a.63.63,0,0,1-.66-.43c-.18-.63.41-1.11,5.27-4.3,2.51-1.65,5.95-3.9,6.28-4.57.48-1.59-2.66-27-4.9-43.67-.57-1.6-9.11-25.36-10-31.56-.65-4.57-.64-26.16-.64-39.06,0-4.91,0-8.47,0-9.13-.08-1.3-1.33-3.66-2.45-5.75a26.09,26.09,0,0,1-2-4.27c-.63-2.27-1-10.33-1.09-11.88-3.18-2.34-4-8-1.69-11.74,2.07-3.36,13.89-15.66,15.4-17.22V72.87a33.65,33.65,0,0,1-6.41-.05,2.09,2.09,0,0,1-1.41-.89c-1.25-1.69-.88-5.52-.7-6.89a4.13,4.13,0,0,1-1.64-.7c-.27-.22-1-.8,2.12-6.48.11-1.13,1.14-9.92,6.45-13a9.25,9.25,0,0,1,12.05,1.85h0a14.68,14.68,0,0,1,3.31,6.4c.28,1.17.49,2.37.69,3.53a38.89,38.89,0,0,0,1.07,4.9c.57,1.8,2,5,4.86,6.37a1.75,1.75,0,0,1,.85.67c.31.58.05,1.29-.67,1.86a8.72,8.72,0,0,1-5.59,1.86c-.47,0-.94-.07-1.41-.12a8.8,8.8,0,0,0-2.28-.07c-1,.16-1.62.47-1.82.92-.4.94.76,2.63,1.61,3.87.26.38.5.74.69,1,1.81,3,4.23,7.55,4.4,12.29.15,4.09-2,13.34-3.89,21.51-1.45,6.26-2.82,12.17-2.6,13.53.2,1.2,1.74,3.06,3.51,5.23,2.69,3.27,6,7.34,7,11.75,1.56,7-3.35,15.81-4,17,0,8.88-2.37,36.94-3.25,40.75-.38,1.62,1,5.64,2.48,9.88s3.24,9.36,3.56,13.19c.62,7.3-2,26.19-2.24,28.07,2.86,7.84,2.22,8.48,2,8.7S317.76,260.38,309.24,260.38Zm-11.41-1.09,1.1,0c11.7.14,18.25.07,19.47-.19,0-.91-1.09-4.61-2.23-7.74a.4.4,0,0,1,0-.24c0-.2,2.87-20.55,2.25-28-.31-3.7-2-8.61-3.51-12.94-1.59-4.58-3-8.53-2.52-10.44.77-3.3,3.23-31.62,3.23-40.66a.52.52,0,0,1,.07-.25c.06-.1,5.55-9.37,4-16.38-.92-4.18-4.19-8.15-6.81-11.34-1.94-2.37-3.48-4.24-3.72-5.7s.83-6.25,2.61-13.92c1.88-8.1,4-17.29,3.86-21.25-.17-4.5-2.51-8.89-4.26-11.8-.17-.3-.41-.64-.66-1-1-1.51-2.32-3.39-1.69-4.83.34-.81,1.19-1.3,2.58-1.51a9,9,0,0,1,2.54.06c.44.05.89.1,1.33.11a7.72,7.72,0,0,0,4.94-1.64c.3-.24.46-.51.41-.6s-.22-.16-.36-.23c-2.45-1.14-4.36-3.62-5.42-7a39,39,0,0,1-1.1-5c-.2-1.14-.41-2.33-.68-3.47a13.71,13.71,0,0,0-3.08-6h0a8.2,8.2,0,0,0-10.81-1.66c-5.11,2.94-5.95,12.21-6,12.3a.66.66,0,0,1-.06.2C292.15,60.37,291,63,291,63.62a4,4,0,0,0,1.55.51.46.46,0,0,1,.34.19.5.5,0,0,1,.1.39c-.23,1.36-.59,5.22.45,6.63a1.13,1.13,0,0,0,.75.49,33.86,33.86,0,0,0,6.71,0,.5.5,0,0,1,.55.5v4.59a.5.5,0,0,1-.14.35c-.13.14-13.3,13.77-15.41,17.19s-1.29,8.6,1.61,10.53a.53.53,0,0,1,.22.4c0,.09.41,9.55,1.06,11.9a25.54,25.54,0,0,0,1.92,4.07c1.21,2.28,2.47,4.65,2.55,6.16,0,.7,0,4.26,0,9.19,0,12.88,0,34.42.64,38.92.88,6.18,9.87,31.16,10,31.41l0,.1c.95,7.1,5.64,42.63,4.81,44.3-.43.86-2.79,2.45-6.63,5C300.56,257.39,298.76,258.57,297.83,259.29Zm20.56-.05Z" fill="#231f20"/></g></svg>