<svg xmlns="http://www.w3.org/2000/svg" viewBox="0 0 400 300"><g id="_217_imac_flatline" data-name="#217_imac_flatline"><path d="M304.4,51.74V182.31a9.14,9.14,0,0,1-9.14,9.14H102.77a9.14,9.14,0,0,1-9.14-9.14V51.74a9.14,9.14,0,0,1,9.14-9.14H295.26A9.14,9.14,0,0,1,304.4,51.74Z" fill="#fff"/><path d="M295.26,191.91H102.77a9.61,9.61,0,0,1-9.59-9.6V51.74a9.61,9.61,0,0,1,9.59-9.6H295.26a9.62,9.62,0,0,1,9.6,9.6V182.31A9.62,9.62,0,0,1,295.26,191.91ZM102.77,43.05a8.69,8.69,0,0,0-8.68,8.69V182.31a8.69,8.69,0,0,0,8.68,8.69H295.26a8.7,8.7,0,0,0,8.69-8.69V51.74a8.7,8.7,0,0,0-8.69-8.69Z" fill="#231f20"/><path d="M304.4,51.74V167.68H93.63V51.74a9.14,9.14,0,0,1,9.14-9.14H295.26A9.14,9.14,0,0,1,304.4,51.74Z" fill="#231f20"/><rect x="102.28" y="53.44" width="190.96" height="105.62" fill="#68e1fd"/><path d="M196.41,184.44a4.88,4.88,0,1,1,4.88-4.88A4.89,4.89,0,0,1,196.41,184.44Zm0-8.75a3.88,3.88,0,1,0,3.88,3.87A3.88,3.88,0,0,0,196.41,175.69Z" fill="#d1d3d4"/><path d="M223.91,208c-2-3-2.37-16.57-2.37-16.57H176.48s-.33,13.6-2.36,16.57-10,7.82-10,9.54,1.18,2.34,6.93,2.34H227c5.75,0,6.93-.62,6.93-2.34S225.94,211,223.91,208Z" fill="#fff"/><path d="M227,220.36H171.08c-5.11,0-7.39-.4-7.39-2.8,0-1.08,1.74-2.53,4.81-5,2.13-1.71,4.33-3.47,5.24-4.81,1.93-2.82,2.28-16.18,2.29-16.32a.45.45,0,0,1,.45-.44h45.06a.45.45,0,0,1,.46.44c0,.14.36,13.5,2.29,16.32.91,1.34,3.11,3.1,5.24,4.81,3.07,2.46,4.81,3.91,4.81,5C234.34,220,232.06,220.36,227,220.36Zm-50-28.45c-.08,2.42-.54,13.6-2.43,16.37-1,1.45-3.25,3.26-5.43,5-1.88,1.51-4.47,3.58-4.47,4.28,0,1.14.46,1.89,6.48,1.89H227c6,0,6.47-.75,6.47-1.89,0-.7-2.58-2.77-4.46-4.28-2.18-1.74-4.44-3.55-5.43-5-1.89-2.77-2.35-13.95-2.43-16.37Z" fill="#231f20"/><path d="M220.75,206.18H177.28a.5.5,0,0,1-.5-.5.5.5,0,0,1,.5-.5h43.47a.5.5,0,0,1,.5.5A.51.51,0,0,1,220.75,206.18Z" fill="#d1d3d4"/><path d="M288.48,233c8.91-2.39,16.27-1.06,22.41.26,8.5,1.83,13.14,5.06,13.24,9.85s-7.92,5.79-16.37,4.85-27.2-7.8-28-10.74C279.36,235.61,284.89,233.92,288.48,233Z" fill="#fff"/><path d="M313.18,248.68a49.41,49.41,0,0,1-5.47-.32c-8-.89-27.46-7.65-28.37-11.07-.29-1.08.55-2.5,9-4.78,8.78-2.36,16-1.17,22.63.26,8.92,1.91,13.49,5.37,13.6,10.28a4.06,4.06,0,0,1-1.38,3.18C321.07,248.18,316.87,248.68,313.18,248.68Zm-14.71-16.59a37.87,37.87,0,0,0-9.87,1.3h0c-8.49,2.29-8.42,3.53-8.38,3.67.68,2.54,19,9.44,27.6,10.4,7.08.78,12.61.07,14.77-1.91a3.06,3.06,0,0,0,1.08-2.48c-.09-4.43-4.42-7.6-12.87-9.41A57.56,57.56,0,0,0,298.47,232.09Zm-10,.86h0Z" fill="#231f20"/><path d="M314,248.87c-3.53,0-6.15-1.25-8.82-2.75-1-.57-2.26-1.33-3.7-2.21-4.42-2.71-10.48-6.42-14.63-7.36-5.12-1.15-6.67.87-6.69.89a.46.46,0,0,1-.75-.53c.08-.1,1.86-2.55,7.64-1.25,4.3,1,10.43,4.72,14.91,7.47,1.43.87,2.67,1.63,3.67,2.19,3.94,2.22,7.49,3.75,14.15,1.63a.46.46,0,0,1,.58.3.46.46,0,0,1-.3.57A20,20,0,0,1,314,248.87Z" fill="#231f20"/><polygon points="276.47 253.65 121.57 253.65 138.82 231.9 264.22 231.9 276.47 253.65" fill="#fff"/><path d="M276.47,254.11H121.57a.46.46,0,0,1-.36-.74l17.25-21.76a.46.46,0,0,1,.36-.17h125.4a.45.45,0,0,1,.39.23l12.25,21.75a.47.47,0,0,1,0,.46A.45.45,0,0,1,276.47,254.11Zm-154-.92H275.68L264,232.35H139Z" fill="#231f20"/><rect x="121.57" y="253.65" width="154.9" height="3.75" fill="#231f20"/><path d="M276.47,257.9H121.57a.5.5,0,0,1-.5-.5v-3.75a.5.5,0,0,1,.5-.5h154.9a.5.5,0,0,1,.5.5v3.75A.5.5,0,0,1,276.47,257.9Zm-154.4-1H276v-2.75H122.07Z" fill="#231f20"/><path d="M217.45,250.73h-45.4a.26.26,0,0,1-.21-.11.27.27,0,0,1,0-.23l1.39-3.84a.25.25,0,0,1,.23-.17h43.64a.25.25,0,0,1,.24.23l.39,3.84a.31.31,0,0,1-.07.2A.23.23,0,0,1,217.45,250.73Zm-45-.5h44.77l-.33-3.35H173.61Z" fill="#d1d3d4"/><path d="M170.59,250.73H159.26a.27.27,0,0,1-.22-.12.25.25,0,0,1,0-.24l1.88-3.85a.27.27,0,0,1,.23-.14H172a.25.25,0,0,1,.21.11.24.24,0,0,1,0,.23l-1.44,3.85A.27.27,0,0,1,170.59,250.73Zm-10.93-.5h10.76l1.25-3.35H161.29Z" fill="#d1d3d4"/><path d="M185.42,246.09h-10.8a.27.27,0,0,1-.21-.1.24.24,0,0,1,0-.23l1.23-3.5a.25.25,0,0,1,.23-.17h10.41a.26.26,0,0,1,.19.1.23.23,0,0,1,.05.21l-.83,3.5A.24.24,0,0,1,185.42,246.09Zm-10.45-.5h10.25l.71-3H176Z" fill="#d1d3d4"/><path d="M197.59,246.09H186.78a.25.25,0,0,1-.24-.3l.77-3.5a.26.26,0,0,1,.25-.2H198a.27.27,0,0,1,.19.08.3.3,0,0,1,.06.2l-.38,3.5A.25.25,0,0,1,197.59,246.09Zm-10.5-.5h10.27l.32-3h-9.92Z" fill="#d1d3d4"/><path d="M209.75,246.09H199a.27.27,0,0,1-.19-.08.22.22,0,0,1-.06-.19l.32-3.5a.25.25,0,0,1,.25-.23h10.4a.25.25,0,0,1,.25.25l.08,3.49a.26.26,0,0,1-.07.19A.29.29,0,0,1,209.75,246.09Zm-10.53-.5h10.27l-.06-3H199.5Z" fill="#d1d3d4"/><path d="M221.92,246.09H211.11a.26.26,0,0,1-.25-.24l-.13-3.5a.24.24,0,0,1,.07-.18.25.25,0,0,1,.18-.08h10.4a.25.25,0,0,1,.25.21l.53,3.5a.23.23,0,0,1-.06.2A.21.21,0,0,1,221.92,246.09Zm-10.57-.5h10.27l-.45-3h-9.93Z" fill="#d1d3d4"/><path d="M234.08,246.09H223.27a.25.25,0,0,1-.24-.21l-.58-3.5a.24.24,0,0,1,.24-.29H233.1a.26.26,0,0,1,.24.18l1,3.5a.24.24,0,0,1,0,.22A.26.26,0,0,1,234.08,246.09Zm-10.59-.5h10.26l-.84-3H223Z" fill="#d1d3d4"/><path d="M246.24,246.09h-10.8a.25.25,0,0,1-.24-.18l-1-3.5a.22.22,0,0,1,0-.22.25.25,0,0,1,.2-.1h10.4a.25.25,0,0,1,.23.16l1.44,3.5a.24.24,0,0,1,0,.23A.24.24,0,0,1,246.24,246.09Zm-10.61-.5h10.24l-1.23-3h-9.9Z" fill="#d1d3d4"/><path d="M166.51,241.87H155.4a.26.26,0,0,1-.22-.13.28.28,0,0,1,0-.25L157,238.3a.24.24,0,0,1,.21-.13H168a.22.22,0,0,1,.21.12.26.26,0,0,1,0,.24l-1.46,3.19A.25.25,0,0,1,166.51,241.87Zm-10.68-.5h10.52l1.23-2.7H157.4Z" fill="#d1d3d4"/><path d="M179,241.87H167.91a.24.24,0,0,1-.21-.11.26.26,0,0,1,0-.24l1.41-3.2a.25.25,0,0,1,.23-.15H180a.26.26,0,0,1,.2.1.27.27,0,0,1,0,.23l-1,3.2A.26.26,0,0,1,179,241.87Zm-10.73-.5h10.55l.86-2.7H169.48Z" fill="#d1d3d4"/><path d="M191.53,241.87H180.42a.25.25,0,0,1-.2-.1.25.25,0,0,1,0-.22l1-3.2a.25.25,0,0,1,.24-.18H192.1a.25.25,0,0,1,.19.09.26.26,0,0,1,.06.21l-.57,3.19A.27.27,0,0,1,191.53,241.87Zm-10.78-.5h10.57l.48-2.7H181.57Z" fill="#d1d3d4"/><path d="M204,241.87H192.93a.25.25,0,0,1-.19-.09.24.24,0,0,1-.06-.2l.52-3.2a.26.26,0,0,1,.25-.21h10.72a.25.25,0,0,1,.18.08.24.24,0,0,1,.07.18l-.13,3.2A.25.25,0,0,1,204,241.87Zm-10.82-.5H203.8l.11-2.7H193.66Z" fill="#d1d3d4"/><path d="M216.55,241.87H205.44a.25.25,0,0,1-.18-.08.23.23,0,0,1-.07-.18l.08-3.19a.25.25,0,0,1,.25-.25h10.71a.25.25,0,0,1,.25.23l.32,3.19a.28.28,0,0,1-.06.2A.27.27,0,0,1,216.55,241.87Zm-10.85-.5h10.57l-.26-2.7H205.76Z" fill="#d1d3d4"/><path d="M229.06,241.87H218a.26.26,0,0,1-.25-.22l-.37-3.2a.26.26,0,0,1,.07-.19.21.21,0,0,1,.18-.09H228.3a.25.25,0,0,1,.24.19l.76,3.2a.25.25,0,0,1,0,.21A.26.26,0,0,1,229.06,241.87Zm-10.89-.5h10.57l-.64-2.7H217.86Z" fill="#d1d3d4"/><path d="M241.39,241.87H230.28a.24.24,0,0,1-.24-.19l-.81-3.2a.23.23,0,0,1,.05-.21.24.24,0,0,1,.19-.1h10.72a.25.25,0,0,1,.23.16l1.2,3.2a.26.26,0,0,1,0,.23A.26.26,0,0,1,241.39,241.87Zm-10.92-.5H241l-1-2.7H229.79Z" fill="#d1d3d4"/><path d="M253.9,241.87H242.79a.24.24,0,0,1-.23-.16l-1.25-3.2a.27.27,0,0,1,0-.23.26.26,0,0,1,.21-.11h10.72a.25.25,0,0,1,.22.14l1.64,3.19a.25.25,0,0,1,0,.25A.24.24,0,0,1,253.9,241.87Zm-10.94-.5h10.53l-1.39-2.7H241.9Z" fill="#d1d3d4"/><path d="M266.41,241.87H255.3a.25.25,0,0,1-.22-.13l-1.7-3.2a.28.28,0,0,1,0-.25.27.27,0,0,1,.21-.12h10.72a.24.24,0,0,1,.21.12l2.09,3.19a.24.24,0,0,1,0,.26A.25.25,0,0,1,266.41,241.87Zm-11-.5H266l-1.76-2.7H254Z" fill="#d1d3d4"/><path d="M148.4,238H138.35a.26.26,0,0,1-.23-.15.25.25,0,0,1,0-.26l2.37-2.93a.23.23,0,0,1,.19-.1h9.7a.26.26,0,0,1,.21.4l-2,2.93A.24.24,0,0,1,148.4,238Zm-9.53-.5h9.39l1.68-2.44h-9.11Z" fill="#d1d3d4"/><path d="M160.36,238H149.73a.27.27,0,0,1-.22-.14.23.23,0,0,1,0-.25l2-2.94a.24.24,0,0,1,.21-.11H162a.24.24,0,0,1,.21.13.21.21,0,0,1,0,.24l-1.61,2.94A.24.24,0,0,1,160.36,238Zm-10.16-.5h10l1.33-2.44h-9.71Z" fill="#d1d3d4"/><path d="M172.33,238H161.7a.24.24,0,0,1-.21-.13.23.23,0,0,1,0-.24l1.57-2.93a.24.24,0,0,1,.22-.14h10.27a.29.29,0,0,1,.21.11.29.29,0,0,1,0,.24l-1.2,2.93A.27.27,0,0,1,172.33,238Zm-10.21-.5h10l1-2.44h-9.75Z" fill="#d1d3d4"/><path d="M184.3,238H173.67a.26.26,0,0,1-.23-.35l1.16-2.93a.26.26,0,0,1,.23-.16H185.1a.26.26,0,0,1,.2.1.24.24,0,0,1,0,.22l-.79,2.93A.26.26,0,0,1,184.3,238Zm-10.26-.5h10.07l.66-2.44H175Z" fill="#d1d3d4"/><path d="M196.27,238H185.64a.24.24,0,0,1-.19-.1.25.25,0,0,1,0-.22l.75-2.93a.26.26,0,0,1,.24-.19h10.27a.25.25,0,0,1,.19.09.23.23,0,0,1,.06.2l-.39,2.93A.25.25,0,0,1,196.27,238Zm-10.31-.5h10.1l.32-2.44h-9.79Z" fill="#d1d3d4"/><path d="M208.25,238H197.61a.21.21,0,0,1-.18-.09.26.26,0,0,1-.07-.19l.35-2.94a.25.25,0,0,1,.24-.22h10.27a.25.25,0,0,1,.25.25l0,2.93a.25.25,0,0,1-.08.18A.23.23,0,0,1,208.25,238Zm-10.36-.5H208v-2.44h-9.8Z" fill="#d1d3d4"/><path d="M220,238H209.41a.25.25,0,0,1-.25-.25l-.06-2.93a.24.24,0,0,1,.07-.18.25.25,0,0,1,.18-.08h10.27a.26.26,0,0,1,.25.22l.42,2.93a.25.25,0,0,1-.06.2A.28.28,0,0,1,220,238Zm-10.39-.5h10.1l-.35-2.44h-9.8Z" fill="#d1d3d4"/><path d="M232,238H221.38a.26.26,0,0,1-.25-.22l-.47-2.93a.25.25,0,0,1,.06-.2.28.28,0,0,1,.19-.09h10.27a.26.26,0,0,1,.24.19l.83,2.93a.25.25,0,0,1,0,.22A.26.26,0,0,1,232,238Zm-10.42-.5h10.09l-.69-2.44H221.2Z" fill="#d1d3d4"/><path d="M245.58,238H233.35a.26.26,0,0,1-.24-.18l-.88-2.93a.31.31,0,0,1,0-.23.26.26,0,0,1,.2-.1h11.81a.25.25,0,0,1,.23.15l1.3,2.93a.29.29,0,0,1,0,.24A.27.27,0,0,1,245.58,238Zm-12-.5h11.65l-1.07-2.44H232.81Z" fill="#d1d3d4"/><path d="M263.87,238H246.59a.25.25,0,0,1-.23-.15L245,234.91a.26.26,0,0,1,0-.24.24.24,0,0,1,.21-.12H262a.27.27,0,0,1,.21.12l1.91,2.93a.23.23,0,0,1,0,.25A.26.26,0,0,1,263.87,238Zm-17.12-.5h16.66l-1.59-2.44H245.65Z" fill="#d1d3d4"/><path d="M269.17,246.09H247.6a.25.25,0,0,1-.23-.15l-1.48-3.5a.26.26,0,0,1,0-.24.25.25,0,0,1,.21-.11h20.76a.22.22,0,0,1,.21.12l2.29,3.49a.24.24,0,0,1,0,.26A.25.25,0,0,1,269.17,246.09Zm-21.4-.5h20.94l-2-3H246.5Z" fill="#d1d3d4"/><path d="M157.86,250.73h-7.61a.26.26,0,0,1-.22-.13.28.28,0,0,1,0-.25l2.24-3.84a.24.24,0,0,1,.21-.13h7.31a.25.25,0,0,1,.23.37l-1.94,3.84A.26.26,0,0,1,157.86,250.73Zm-7.17-.5h7l1.69-3.35h-6.76Z" fill="#d1d3d4"/><path d="M247,250.73H236.64a.26.26,0,0,1-.24-.18l-1.13-3.85a.25.25,0,0,1,0-.22.26.26,0,0,1,.2-.1h10a.26.26,0,0,1,.23.16l1.53,3.84a.29.29,0,0,1,0,.24A.26.26,0,0,1,247,250.73Zm-10.17-.5h9.8l-1.33-3.35h-9.46Z" fill="#d1d3d4"/><path d="M259.6,250.73H249.24a.25.25,0,0,1-.23-.16l-1.62-3.84a.29.29,0,0,1,0-.24.26.26,0,0,1,.21-.11h10a.24.24,0,0,1,.22.14l2,3.84a.25.25,0,0,1,0,.25A.24.24,0,0,1,259.6,250.73Zm-10.19-.5h9.78l-1.76-3.35H248Z" fill="#d1d3d4"/><path d="M272.2,250.73H261.84a.23.23,0,0,1-.21-.13l-2.12-3.85a.23.23,0,0,1,0-.24.24.24,0,0,1,.21-.13h10a.27.27,0,0,1,.21.12l2.51,3.84a.24.24,0,0,1,0,.26A.25.25,0,0,1,272.2,250.73Zm-10.21-.5h9.75l-2.19-3.35h-9.39Z" fill="#d1d3d4"/><path d="M234.08,250.73h-13.9a.25.25,0,0,1-.24-.22l-.49-3.85a.22.22,0,0,1,.06-.19.23.23,0,0,1,.19-.09h13.35a.25.25,0,0,1,.24.19l1,3.84a.24.24,0,0,1,0,.22A.26.26,0,0,1,234.08,250.73Zm-13.68-.5h13.36l-.9-3.35H220Z" fill="#d1d3d4"/><path d="M148.63,250.73h-9.39a.25.25,0,0,1-.23-.14.27.27,0,0,1,0-.26l2.66-3.84a.26.26,0,0,1,.21-.11h9a.23.23,0,0,1,.21.13.23.23,0,0,1,0,.25l-2.29,3.85A.27.27,0,0,1,148.63,250.73Zm-8.92-.5h8.78l2-3.35H142Z" fill="#d1d3d4"/><path d="M137.48,250.73h-9.39a.25.25,0,0,1-.2-.41l3.1-3.84a.26.26,0,0,1,.19-.1h9a.25.25,0,0,1,.23.14.27.27,0,0,1,0,.26l-2.73,3.84A.26.26,0,0,1,137.48,250.73Zm-8.87-.5h8.74l2.38-3.35H131.3Z" fill="#d1d3d4"/><path d="M156.57,246.09H131.82a.24.24,0,0,1-.22-.14.24.24,0,0,1,0-.27l2.81-3.5a.29.29,0,0,1,.2-.09h23.83a.26.26,0,0,1,.21.12.25.25,0,0,1,0,.25l-1.9,3.5A.25.25,0,0,1,156.57,246.09Zm-24.23-.5h24.08l1.63-3H134.76Z" fill="#d1d3d4"/><path d="M153.92,241.87h-18.7a.26.26,0,0,1-.22-.14.24.24,0,0,1,0-.27l2.57-3.2a.29.29,0,0,1,.2-.09h18a.25.25,0,0,1,.22.13.28.28,0,0,1,0,.25l-1.91,3.2A.27.27,0,0,1,153.92,241.87Zm-18.18-.5h18l1.61-2.7H137.92Z" fill="#d1d3d4"/><path d="M173,246.09H157.44a.24.24,0,0,1-.21-.12.25.25,0,0,1,0-.25l1.86-3.5a.26.26,0,0,1,.23-.13h15a.26.26,0,0,1,.21.11.26.26,0,0,1,0,.23l-1.28,3.5A.25.25,0,0,1,173,246.09Zm-15.12-.5h14.95l1.1-3H159.46Z" fill="#d1d3d4"/><path d="M144.21,143.23a.46.46,0,0,1-.35-.17.45.45,0,0,1,.07-.64l102.75-81.6a.46.46,0,1,1,.56.72L144.5,143.13A.46.46,0,0,1,144.21,143.23Z" fill="#fff"/><path d="M200.88,149.56a.46.46,0,0,1-.28-.82l61.19-47.13a.46.46,0,0,1,.64.09.45.45,0,0,1-.08.64l-61.2,47.13A.46.46,0,0,1,200.88,149.56Z" fill="#fff"/><path d="M141.5,92a.46.46,0,0,1-.27-.82l23.69-17.94a.46.46,0,0,1,.64.09.45.45,0,0,1-.08.64l-23.7,17.94A.49.49,0,0,1,141.5,92Z" fill="#fff"/></g></svg>