<svg xmlns="http://www.w3.org/2000/svg" viewBox="0 0 400 300"><g id="_219_ipad_flatline" data-name="#219_ipad_flatline"><rect x="50.95" y="51.76" width="138.81" height="196.48" rx="8.47" fill="#fff"/><path d="M181.29,248.7H59.42a8.94,8.94,0,0,1-8.93-8.92V60.22a8.94,8.94,0,0,1,8.93-8.92H181.29a8.94,8.94,0,0,1,8.93,8.92V239.78A8.94,8.94,0,0,1,181.29,248.7ZM59.42,52.22a8,8,0,0,0-8,8V239.78a8,8,0,0,0,8,8H181.29a8,8,0,0,0,8-8V60.22a8,8,0,0,0-8-8Z" fill="#231f20"/><rect x="59.02" y="66.52" width="122.67" height="165.42" fill="#68e1fd"/><circle cx="120.35" cy="59.47" r="1.18" fill="#d1d3d4"/><path d="M120.35,245.15a4.86,4.86,0,1,1,4.86-4.86A4.86,4.86,0,0,1,120.35,245.15Zm0-8.81a4,4,0,1,0,4,3.95A3.95,3.95,0,0,0,120.35,236.34Z" fill="#d1d3d4"/><path d="M91.21,119.67a.48.48,0,0,1-.34-.14.46.46,0,0,1,0-.65l49.49-45.77a.45.45,0,0,1,.64,0,.46.46,0,0,1,0,.64L91.52,119.55A.47.47,0,0,1,91.21,119.67Z" fill="#fff"/><path d="M71.29,192.45a.45.45,0,0,1-.34-.15.46.46,0,0,1,0-.65l98.23-88.52a.46.46,0,0,1,.65,0,.45.45,0,0,1,0,.64L71.59,192.33A.42.42,0,0,1,71.29,192.45Z" fill="#fff"/><path d="M114.25,214.49a.46.46,0,0,1-.31-.79l33.62-32.2a.47.47,0,0,1,.65,0,.45.45,0,0,1,0,.64l-33.63,32.2A.44.44,0,0,1,114.25,214.49Z" fill="#fff"/><rect x="210.24" y="51.76" width="138.81" height="196.48" rx="8.47" fill="#231f20"/><path d="M340.58,248.74H218.71a9,9,0,0,1-9-9V60.22a9,9,0,0,1,9-9H340.58a9,9,0,0,1,9,9V239.78A9,9,0,0,1,340.58,248.74ZM218.71,52.26a8,8,0,0,0-8,8V239.78a8,8,0,0,0,8,8H340.58a8,8,0,0,0,8-8V60.22a8,8,0,0,0-8-8Z" fill="#231f20"/><rect x="218.31" y="66.52" width="122.67" height="165.42" fill="#68e1fd"/><circle cx="279.65" cy="59.47" r="1.18" fill="#d1d3d4"/><path d="M279.65,245.15a4.86,4.86,0,1,1,4.85-4.86A4.87,4.87,0,0,1,279.65,245.15Zm0-8.81a4,4,0,1,0,3.94,3.95A4,4,0,0,0,279.65,236.34Z" fill="#d1d3d4"/><path d="M250.5,119.67a.49.49,0,0,1-.34-.14.46.46,0,0,1,0-.65l49.49-45.77a.45.45,0,0,1,.64,0,.46.46,0,0,1,0,.64l-49.49,45.77A.47.47,0,0,1,250.5,119.67Z" fill="#fff"/><path d="M230.58,192.45a.45.45,0,0,1-.34-.15.47.47,0,0,1,0-.65l98.23-88.52a.46.46,0,0,1,.65,0,.45.45,0,0,1,0,.64l-98.23,88.52A.42.42,0,0,1,230.58,192.45Z" fill="#fff"/><path d="M273.54,214.49a.46.46,0,0,1-.31-.79l33.62-32.2a.47.47,0,0,1,.65,0,.45.45,0,0,1,0,.64l-33.63,32.2A.44.44,0,0,1,273.54,214.49Z" fill="#fff"/></g></svg>