<svg xmlns="http://www.w3.org/2000/svg" viewBox="0 0 400 300"><g id="_317_jogging_flatline" data-name="#317_jogging_flatline"><path d="M64.61,215.55l-.16,0a.51.51,0,0,1-.32-.63A12.92,12.92,0,0,1,71,207.34a13.08,13.08,0,0,1,9.31-.84,21.24,21.24,0,0,1,23.08-26.08c-.83-2.49.82-5.42,3-7.41a23.78,23.78,0,0,1,36.09,5.27,12.91,12.91,0,0,1,22.21,5.29,19.87,19.87,0,0,1,21.07,18.36,10,10,0,0,1,7.71-1,9.78,9.78,0,0,1,6.69,5.51.49.49,0,0,1-.27.65.5.5,0,0,1-.65-.27,9.28,9.28,0,0,0-13.67-3.53.49.49,0,0,1-.53.05.51.51,0,0,1-.28-.46,18.75,18.75,0,0,0-20.39-18.26.5.5,0,0,1-.55-.39,11.9,11.9,0,0,0-21-4.78.48.48,0,0,1-.43.19.5.5,0,0,1-.4-.25,22.79,22.79,0,0,0-34.93-5.63c-2.17,1.94-3.77,4.87-2.43,7a.5.5,0,0,1,0,.54.53.53,0,0,1-.5.22,20.24,20.24,0,0,0-22.64,25.6.49.49,0,0,1-.14.51.51.51,0,0,1-.52.09,12.48,12.48,0,0,0-15.79,7.46A.48.48,0,0,1,64.61,215.55Z" fill="#d1d3d4"/><path d="M333.44,221.41l-.11,0a.51.51,0,0,1-.39-.52c.35-4.42-2.32-9.08-6.64-11.61a7.14,7.14,0,0,0-2.71-1,9.84,9.84,0,0,0-3.35.37c-.4.09-.78.15-1.13.21-1.44.24-2.1.36-2.3,1.84h0a.5.5,0,0,1-.56.43.5.5,0,0,1-.43-.56v0a18.49,18.49,0,0,0-25.16-19.6.51.51,0,0,1-.61-.19c-3.6-5.46-11.57-7.81-18.54-5.44-6,2-11.35,7.26-14.65,14.32a.51.51,0,0,1-.32.27.5.5,0,0,1-.41-.07c-8.77-5.85-18.17-8.18-26.45-6.56-9.64,1.88-17.32,9.84-17.86,18.52a.52.52,0,0,1-.24.4.53.53,0,0,1-.46,0,9.67,9.67,0,0,0-12.79,8,.5.5,0,0,1-1-.06,10.06,10.06,0,0,1,5-7.83,10.24,10.24,0,0,1,8.59-1.24c.91-8.86,8.79-16.85,18.61-18.77,8.39-1.64,17.86.63,26.71,6.39,3.43-7,8.87-12.24,15-14.32,7.24-2.45,15.53-.09,19.47,5.51A19.48,19.48,0,0,1,317,208.42a5.41,5.41,0,0,1,2-.6c.34,0,.7-.11,1.08-.2a10.94,10.94,0,0,1,3.69-.38,8.23,8.23,0,0,1,3.1,1.16A14.19,14.19,0,0,1,334,219.65h0a.51.51,0,0,1,.27.66l-.34.79A.5.5,0,0,1,333.44,221.41Z" fill="#d1d3d4"/><path d="M346.83,227.38H53.17a.5.5,0,0,1,0-1H346.83a.5.5,0,1,1,0,1Z" fill="#d1d3d4"/><ellipse cx="192.94" cy="254.45" rx="82.62" ry="5.37" fill="#e6e7e8"/><path d="M179.87,172c0,.63-7.14,5.62-15.52,19.27a114.22,114.22,0,0,0-17.8-4.28,94.67,94.67,0,0,0-23-.81l-2.37,9.05s43.77,15.52,50,13.24S197,181.66,197,181.66" fill="#fff"/><path d="M169.45,209.17c-10.27,0-46.75-12.89-48.41-13.48a.48.48,0,0,1-.32-.59l2.36-9.06a.52.52,0,0,1,.43-.37,96.42,96.42,0,0,1,23.12.82,118.46,118.46,0,0,1,17.5,4.17,85.66,85.66,0,0,1,14.09-17.6,15.93,15.93,0,0,0,1.16-1.18.51.51,0,0,1,.46-.39.5.5,0,0,1,.53.47c0,.39-.26.67-1.45,1.82a85,85,0,0,0-14.15,17.74.49.49,0,0,1-.59.21,113.88,113.88,0,0,0-17.7-4.25,96.63,96.63,0,0,0-22.52-.85l-2.16,8.27C137,200.28,166.27,209.72,171,208c6-2.21,25.39-26.4,25.58-26.64a.51.51,0,0,1,.71-.08.49.49,0,0,1,.07.7c-.8,1-19.76,24.66-26,27A5.88,5.88,0,0,1,169.45,209.17ZM179.37,172Z" fill="#231f20"/><polygon points="187.37 152.38 172.73 177.61 195.04 191.71 209.67 172.71 187.37 152.38" fill="#231f20"/><path d="M195,192.21a.5.5,0,0,1-.26-.08L172.46,178a.51.51,0,0,1-.16-.67l14.64-25.23a.54.54,0,0,1,.35-.24.54.54,0,0,1,.42.13L210,172.34a.49.49,0,0,1,.05.67l-14.62,19A.51.51,0,0,1,195,192.21ZM173.4,177.45,194.93,191,209,172.76l-21.51-19.59Z" fill="#231f20"/><path d="M207.89,183.74s16.5,13.7,20.75,16.7c0,0-1.29,11.5,3.53,20.64s18.53,25.51,18.53,25.51l8.45-1.64s-13.41-42.29-16.35-50.63-16.45-28.53-16.45-28.53Z" fill="#fff"/><path d="M250.7,247.09a.52.52,0,0,1-.38-.17c-.14-.17-13.8-16.51-18.59-25.6-4.47-8.48-3.79-18.74-3.62-20.64-4.56-3.29-20.38-16.42-20.54-16.55a.49.49,0,0,1-.18-.37.5.5,0,0,1,.15-.38L226,165.43a.49.49,0,0,1,.4-.14.51.51,0,0,1,.36.22c.55.83,13.58,20.33,16.51,28.64s16.22,50.23,16.35,50.65a.5.5,0,0,1,0,.41.54.54,0,0,1-.34.23l-8.44,1.65Zm-42.06-63.38c2.62,2.17,16.48,13.64,20.29,16.32a.53.53,0,0,1,.2.47c0,.11-1.21,11.45,3.49,20.35,4.43,8.42,16.61,23.19,18.28,25.2l7.6-1.48c-1.57-4.94-13.44-42.36-16.17-50.09-2.64-7.46-14-24.75-16.07-27.91Z" fill="#231f20"/><path d="M179.88,138.46s-1.69,15.61.69,23.77,28.14,28.11,28.14,28.11l17.64-24.55-10.56-20.43Z" fill="#231f20"/><path d="M208.71,190.84a.51.51,0,0,1-.31-.11c-1.05-.81-25.91-20.13-28.31-28.36s-.77-23.33-.7-24a.49.49,0,0,1,.19-.35.52.52,0,0,1,.4-.08l35.91,6.9a.5.5,0,0,1,.34.26l10.56,20.43a.49.49,0,0,1,0,.52l-17.64,24.55a.5.5,0,0,1-.33.2Zm-28.39-51.79c-.26,2.81-1.35,15.91.73,23,2.15,7.37,24.27,24.95,27.56,27.54l17.15-23.88-10.3-19.94Z" fill="#231f20"/><path d="M123.57,186.17l-11.69-1.76s-6.07,24.92-5.19,27.28c1.41,3.82,14.51-16.47,14.51-16.47Z" fill="#231f20"/><path d="M107.22,212.66h-.06a1.12,1.12,0,0,1-.94-.79c-.9-2.44,4.56-25,5.18-27.58a.49.49,0,0,1,.56-.37l11.68,1.76a.49.49,0,0,1,.34.21.52.52,0,0,1,.07.4l-2.37,9.06a.35.35,0,0,1-.06.14C111.21,211.61,107.91,212.66,107.22,212.66Zm5-27.69c-2.33,9.61-5.7,25-5.11,26.55.06.14.1.15.12.15,1.54.19,8.08-8.32,13.47-16.65l2.21-8.44Z" fill="#231f20"/><path d="M250.29,246.11s-.72,7.38,1.3,8.2,26.5-2,25.66-3.78-18.82-7.22-18.82-7.22Z" fill="#231f20"/><path d="M253.34,254.94a6.73,6.73,0,0,1-1.94-.17c-2.25-.91-1.73-7.42-1.6-8.71a.5.5,0,0,1,.33-.42l8.14-2.8a.51.51,0,0,1,.3,0c4.27,1.3,18.26,5.68,19.13,7.49a.76.76,0,0,1-.16.85C276,252.79,259.31,254.94,253.34,254.94Zm-2.58-8.47c-.25,2.9-.1,6.92,1,7.37.71.29,6,0,12.74-.83,7.71-1,11.35-1.93,12.16-2.41-1.29-1.15-10-4.27-18.23-6.77Z" fill="#231f20"/><path d="M129.67,198.57l-.13,0a.5.5,0,0,1-.35-.61l3.24-12.23a.5.5,0,0,1,.61-.35.49.49,0,0,1,.35.6l-3.24,12.24A.5.5,0,0,1,129.67,198.57Z" fill="#231f20"/><path d="M246.69,240.91a.5.5,0,0,1-.45-.28.5.5,0,0,1,.22-.66l9.49-4.81a.49.49,0,0,1,.67.22.5.5,0,0,1-.22.67l-9.49,4.8A.46.46,0,0,1,246.69,240.91Z" fill="#231f20"/><path d="M181.47,56.33a14.12,14.12,0,0,0-2.66.47c-2.28.65-4.31,2-6.56,2.75-4.15,1.41-9.34,0-13.55-.36.71,1.64,5.52,7.19,7.8,6.22-3.83,1.62-8.51-.76-12.29,1,3.09,6.14,9.84,10,16.7,10.48s13.7-2.06,19.25-6.12c2-1.44,4.58-2.94,4.94-5.52a7.23,7.23,0,0,0-2.34-6.12c-2.46-2.23-6-2.85-9.3-2.85C182.8,56.25,182.13,56.27,181.47,56.33Z" fill="#fff"/><path d="M172.61,77.42q-.87,0-1.74-.06c-7.37-.53-14.09-4.75-17.11-10.76a.48.48,0,0,1,0-.39.5.5,0,0,1,.26-.29c2-.93,4.29-.74,6.47-.56a21.66,21.66,0,0,0,3.66.11,17.72,17.72,0,0,1-5.89-6.08.5.5,0,0,1,0-.49.51.51,0,0,1,.45-.21c1,.1,2.08.25,3.19.41,3.5.5,7.12,1,10.16,0A28.09,28.09,0,0,0,175,57.82a24,24,0,0,1,3.66-1.5,14.67,14.67,0,0,1,2.75-.49h0c.62,0,1.29-.08,2-.08h0c4.2,0,7.44,1,9.63,3a7.71,7.71,0,0,1,2.5,6.56c-.35,2.45-2.48,4-4.36,5.29l-.79.56A30.58,30.58,0,0,1,172.61,77.42Zm-17.7-10.79c3,5.44,9.2,9.24,16,9.73,6.27.46,13-1.69,18.91-6l.8-.57c1.8-1.27,3.66-2.58,4-4.61a6.78,6.78,0,0,0-2.18-5.68c-2-1.8-5-2.72-9-2.72-.71,0-1.36,0-1.95.08a13.58,13.58,0,0,0-2.57.45,23.09,23.09,0,0,0-3.49,1.44A27.71,27.71,0,0,1,172.41,60c-3.26,1.1-7.17.55-10.62.06l-2.17-.3c1.43,2.14,5.15,5.82,6.69,5.16a.5.5,0,0,1,.39.93h0c-2,.84-4.19.66-6.31.48A13.23,13.23,0,0,0,154.91,66.63Z" fill="#231f20"/><path d="M198,63.93c0-2.57-2.17-5.1-3.52-7.14a5.64,5.64,0,0,0-1.29-1.5,1.84,1.84,0,0,0-1.87-.23,2.41,2.41,0,0,0-1,1.27,8.69,8.69,0,0,0,1,8.47c1,1.53,2.94,2.83,4.67,2.17A3.33,3.33,0,0,0,198,63.93Z" fill="#231f20"/><path d="M195.06,67.64A5.41,5.41,0,0,1,191,65.08a9.21,9.21,0,0,1-1.08-8.94,3,3,0,0,1,1.18-1.52,2.33,2.33,0,0,1,2.4.27,5.94,5.94,0,0,1,1.41,1.62l.76,1.11c1.34,1.89,2.85,4,2.85,6.31h0a3.77,3.77,0,0,1-2.27,3.49A3.06,3.06,0,0,1,195.06,67.64ZM192,55.39a1,1,0,0,0-.44.11,2,2,0,0,0-.74,1,8.15,8.15,0,0,0,1,8c.93,1.35,2.61,2.54,4.08,2a2.82,2.82,0,0,0,1.63-2.58c0-2-1.42-4-2.67-5.73-.27-.39-.54-.76-.78-1.12a4.85,4.85,0,0,0-1.16-1.37A1.58,1.58,0,0,0,192,55.39Zm6,8.54h0Z" fill="#231f20"/><path d="M229.19,90.42l10.2,28.6A179.49,179.49,0,0,1,262,108.61s-.82-5.5,1.65-7.76,4.52-3.56,4.79-2.91,1.25,2.59,1.25,2.59,2.35-3.24,3.73-2.59,2.6,8.31,2.59,10.35-33.38,33.1-40.49,28.58S218,111,218,111" fill="#fff"/><path d="M237.3,137.82a3.78,3.78,0,0,1-2.06-.53c-7.15-4.55-17.26-25.19-17.68-26.07a.5.5,0,0,1,.23-.67.51.51,0,0,1,.67.23c.1.21,10.4,21.26,17.31,25.66,1,.61,2.59.48,4.86-.38,11.69-4.44,34.29-25.78,34.87-27.83,0-2.49-1.37-9.4-2.31-9.84-.65-.3-2.22,1.22-3.1,2.43a.53.53,0,0,1-.45.21.49.49,0,0,1-.4-.28c0-.07-.87-1.71-1.2-2.47-.47.1-1.85.92-4.06,2.94s-1.5,7.26-1.49,7.32a.51.51,0,0,1-.32.54,178.69,178.69,0,0,0-22.53,10.38.54.54,0,0,1-.43,0,.5.5,0,0,1-.3-.3L228.72,90.58a.5.5,0,0,1,.95-.33l10,28.05a187.19,187.19,0,0,1,21.79-10c-.14-1.35-.41-5.73,1.85-7.8,1.42-1.29,3.94-3.42,5-3.18a.72.72,0,0,1,.55.45c.17.37.58,1.23.89,1.84.86-1,2.53-2.72,3.84-2.1,1.84.87,2.89,9.38,2.88,10.8,0,2-19.94,20.48-31.85,27C241.52,137,239.09,137.82,237.3,137.82Z" fill="#231f20"/><path d="M269.72,100.1A41.85,41.85,0,0,1,271.3,104a7.89,7.89,0,0,1,.43,4c-.28,1.32-1.3,2.5-2.45,2.4-1.32-.12-2.16-1.74-2.5-3.25" fill="#fff"/><path d="M269.42,110.93h-.19c-2-.18-2.75-2.83-2.94-3.64a.5.5,0,0,1,1-.22c.28,1.26,1,2.77,2.05,2.86.9.08,1.7-1,1.92-2a7.46,7.46,0,0,0-.42-3.73,41.51,41.51,0,0,0-1.56-3.89.5.5,0,0,1,.26-.66.51.51,0,0,1,.66.26,42.85,42.85,0,0,1,1.59,4,8.42,8.42,0,0,1,.45,4.24C271.92,109.54,270.81,110.93,269.42,110.93Z" fill="#231f20"/><path d="M236.38,124.58h0a.49.49,0,0,1-.46-.53c.23-3,3.07-5.31,3.19-5.4a.5.5,0,0,1,.63.77s-2.63,2.16-2.82,4.7A.5.5,0,0,1,236.38,124.58Z" fill="#231f20"/><path d="M219.59,146.43l-42-7.46s4.12-25.65,4.09-48.55c0-7.17,20.79-18.09,28.94-15S227.5,86,230,89.74c1,1.53,3.09,15-1.95,25C218.06,134.66,217.41,138.46,219.59,146.43Z" fill="#68e1fd"/><path d="M204.83,78.27s3.7,22.31,10.22,20.28,4.11-14.14,4.11-14.14Z" fill="#231f20"/><path d="M214.21,99.18a3.49,3.49,0,0,1-1.84-.56c-5.14-3.16-7.91-19.57-8-20.27a.48.48,0,0,1,.19-.47.52.52,0,0,1,.5-.07L219.36,84a.5.5,0,0,1,.29.37c.1.51,2.41,12.56-4.45,14.7A3.41,3.41,0,0,1,214.21,99.18Zm-8.72-20.09c.66,3.51,3.3,16.16,7.4,18.68a2.32,2.32,0,0,0,2,.3c5.51-1.72,4.11-11.59,3.82-13.31Z" fill="#231f20"/><path d="M184.53,94.38s-3.3,21,2.91,20.76,15.4-25.8,11.15-31.3S183.69,80.46,184.53,94.38Z" fill="#231f20"/><path d="M187.35,115.64a2.88,2.88,0,0,1-2.22-1c-3.53-4-1.28-19-1.1-20.24-.39-6.74,1.93-11.72,6.2-13.33A7.64,7.64,0,0,1,199,83.54c2.78,3.59.3,14.74-3.58,23-1.58,3.35-4.7,9-7.94,9.09Zm5.57-34.1a6.84,6.84,0,0,0-2.34.42c-3.85,1.45-5.93,6.09-5.55,12.39a.37.37,0,0,1,0,.11c0,.16-2.44,15.76.85,19.48a2,2,0,0,0,1.56.71c1.95-.07,4.59-3.25,7.07-8.52,3.7-7.88,6.12-18.84,3.69-22A6.64,6.64,0,0,0,192.92,81.54Z" fill="#231f20"/><path d="M146.93,108.22c-1.07,3.52,8.56,30.58,8.56,30.58s3.74,13.85,5.52,14.51,7.29,1,8.7,1c3.27,0,.27-5.35-.15-5.44,0,0,2.17,1,3.17-.62s.1-3.24-.76-5.67-5.44-2.67-5.44-2.67c-.39-5-5.26-27.69-5.26-27.69s29-13.33,32.55-15.2,7.88-9.15,0-14.07S148,104.71,146.93,108.22Z" fill="#fff"/><path d="M169.71,154.83c-1.25,0-6.92-.32-8.87-1.05s-4.94-11.54-5.83-14.85c-1-2.75-9.64-27.29-8.56-30.85h0c.91-3,23.66-19.32,37.62-24.55,4.81-1.8,8.19-2.13,10-1,4,2.48,4.71,5.4,4.64,7.42a9.56,9.56,0,0,1-4.68,7.52c-3.31,1.76-28.7,13.43-32.21,15,.65,3,4.58,21.59,5.14,26.94,1.23.13,4.65.69,5.45,3,.13.37.26.73.39,1.07.72,1.92,1.3,3.45.33,5a2.49,2.49,0,0,1-2.42,1.16,7,7,0,0,1,1,3.49,1.79,1.79,0,0,1-2,1.65Zm21.55-72a21,21,0,0,0-6.84,1.6c-14.38,5.39-36.3,21.54-37,23.9h0c-.75,2.46,4.7,19.45,8.55,30.26,1.77,6.55,4.26,13.81,5.23,14.21,1.69.63,7.09,1,8.52,1h0c.67,0,.85-.25.93-.47.41-1.1-.91-3.62-1.32-4a.5.5,0,0,1-.24-.6.51.51,0,0,1,.58-.33l.1,0h0c.08,0,1.79.8,2.54-.43s.27-2.36-.4-4.16c-.13-.35-.27-.71-.4-1.09-.62-1.73-3.82-2.27-5-2.33A.5.5,0,0,1,166,140c-.38-4.94-5.2-27.4-5.25-27.62a.52.52,0,0,1,.28-.56c.29-.13,29.07-13.35,32.53-15.19a8.57,8.57,0,0,0,4.15-6.66c.08-2.52-1.36-4.78-4.17-6.54A4.34,4.34,0,0,0,191.26,82.87Zm-44.33,25.35h0Z" fill="#231f20"/><path d="M204,70.55a11.36,11.36,0,0,1-3.46-.46c-4.59-1.38-7.2-6.33-7.91-11.06a25.36,25.36,0,0,1,3.11-16.22c2.87-5,6.9-7.13,12.67-6.69a74.33,74.33,0,0,1,12.31,2l-2.46-3.94A21.15,21.15,0,0,1,225,37a9.63,9.63,0,0,1,4.11,5.89,6.72,6.72,0,0,1-1.76,5.81c-.48.55-1.52.91-1.84,1.3-.54.63-.6,1.91-.88,2.76-1.31,4.1-4,7.47-6.84,10.61C214.49,67.06,209.23,70.46,204,70.55Z" fill="#fff"/><path d="M203.8,71.06a12,12,0,0,1-3.4-.49c-5-1.52-7.57-6.92-8.26-11.46a26.05,26.05,0,0,1,3.17-16.55c3-5.19,7.17-7.39,13.15-6.94a74.49,74.49,0,0,1,11.2,1.73l-1.81-2.9a.51.51,0,0,1,0-.57.5.5,0,0,1,.53-.18,21.88,21.88,0,0,1,6.91,2.93,10.14,10.14,0,0,1,4.31,6.21,7.19,7.19,0,0,1-1.87,6.23,4.91,4.91,0,0,1-1.2.87,2.81,2.81,0,0,0-.64.42,4,4,0,0,0-.54,1.6c-.07.35-.15.7-.24,1-1.37,4.26-4.15,7.7-6.95,10.79C215,67.21,209.65,71,204,71.05h-.22Zm.21-.51h0Zm3-34c-4.82,0-8.28,2.08-10.81,6.49A25,25,0,0,0,193.13,59c.64,4.24,3,9.27,7.56,10.65a11,11,0,0,0,3.32.44h0c5.31-.09,10.41-3.66,13.43-7,2.72-3,5.43-6.35,6.74-10.43.08-.27.14-.58.21-.89a4.52,4.52,0,0,1,.76-2,3.54,3.54,0,0,1,.9-.64,4,4,0,0,0,.95-.66A6.17,6.17,0,0,0,228.64,43a9.12,9.12,0,0,0-3.9-5.57A18.6,18.6,0,0,0,219.38,35l1.77,2.84a.5.5,0,0,1-.54.75,74.25,74.25,0,0,0-12.23-2C207.91,36.58,207.44,36.57,207,36.57Z" fill="#231f20"/><path d="M226.8,58.13s3.95,6.51,3,7.8-3.77.3-3.77.3" fill="#fff"/><path d="M228.12,67.09a7.56,7.56,0,0,1-2.22-.39.51.51,0,0,1-.31-.64.5.5,0,0,1,.63-.31c.65.22,2.63.68,3.21-.11.38-.55-1-3.93-3.06-7.25a.51.51,0,0,1,.17-.69.51.51,0,0,1,.69.17c1.24,2.05,4,6.95,3,8.35A2.5,2.5,0,0,1,228.12,67.09Z" fill="#231f20"/><path d="M226.23,49.71c2.58,2.28,1.63,6.86,1.49,9.86-.19,4.21-.48,8.43-.87,12.63-.25,2.66-7.17,2.46-8.37,1.61l.68,10.6s-3.36.79-8.84-2-5.49-4.12-5.49-4.12l.93-12.17s4.58.21,7.49-5.14,3.12-13.72,3.12-13.72S223.7,47.48,226.23,49.71Z" fill="#fff"/><path d="M217.91,85a17.42,17.42,0,0,1-7.82-2.18c-5.34-2.73-5.76-4.19-5.76-4.57l.93-12.21a.49.49,0,0,1,.52-.46c.18,0,4.31.11,7-4.88,2.82-5.17,3.06-13.41,3.06-13.49a.52.52,0,0,1,.16-.35.54.54,0,0,1,.36-.14c.31,0,7.54.27,10.17,2.59h0c2.34,2.06,2,5.71,1.78,8.64-.05.57-.1,1.12-.12,1.62-.19,4.2-.49,8.46-.88,12.65a2.38,2.38,0,0,1-1.61,2,11.81,11.81,0,0,1-6.7.38l.63,9.81a.5.5,0,0,1-.39.52A6.39,6.39,0,0,1,217.91,85Zm-12.57-6.78c.08.19.73,1.42,5.21,3.71,4.15,2.12,7,2.12,8.08,2L218,73.84a.49.49,0,0,1,.25-.47.51.51,0,0,1,.53,0c.66.46,4.49.82,6.54-.12.65-.3,1-.68,1-1.13.38-4.18.68-8.42.87-12.61,0-.51.07-1.07.12-1.65.23-2.71.52-6.08-1.44-7.81s-7.38-2.21-9.05-2.31c-.09,1.92-.6,8.75-3.16,13.43s-6.15,5.28-7.46,5.38Z" fill="#231f20"/><path d="M226.87,69.05s-3.35,1.89-5-1.56" fill="#fff"/><path d="M224.85,70.06a3.57,3.57,0,0,1-1.1-.16,3.85,3.85,0,0,1-2.29-2.2.5.5,0,1,1,.9-.42,2.86,2.86,0,0,0,1.69,1.66,3.58,3.58,0,0,0,2.57-.33.5.5,0,0,1,.68.19.51.51,0,0,1-.19.69A5.07,5.07,0,0,1,224.85,70.06Z" fill="#231f20"/><path d="M217.93,58.09a5.76,5.76,0,0,0-1.07-2.94,8.18,8.18,0,0,0-1.46-2,2.78,2.78,0,0,0-2.24-.78,2.59,2.59,0,0,0-1.71,1.25,5,5,0,0,0-.61,2.07,9.1,9.1,0,0,0,3.87,8.19l-.22-.26" fill="#fff"/><path d="M214.71,64.4a.49.49,0,0,1-.28-.09,9.58,9.58,0,0,1-4.08-8.65,5.29,5.29,0,0,1,.68-2.28,3,3,0,0,1,2-1.48,3.24,3.24,0,0,1,2.67.9,8.84,8.84,0,0,1,1.55,2.09,6.2,6.2,0,0,1,1.14,3.21.52.52,0,0,1-.51.49.5.5,0,0,1-.49-.51,5.24,5.24,0,0,0-1-2.68,7.9,7.9,0,0,0-1.36-1.85,2.28,2.28,0,0,0-1.83-.66,2,2,0,0,0-1.36,1,4.36,4.36,0,0,0-.54,1.86,8.61,8.61,0,0,0,3.18,7.38.53.53,0,0,1,.35.17l.22.26a.5.5,0,0,1,0,.66A.48.48,0,0,1,214.71,64.4Z" fill="#231f20"/><path d="M218.48,73.81s-3.54-1.25-5.12-3.78c0,0,0,6.43,5.42,8.5Z" fill="#231f20"/><path d="M218.78,79a.47.47,0,0,1-.17,0c-5.69-2.17-5.75-8.9-5.75-9a.5.5,0,0,1,.93-.26c1.46,2.34,4.83,3.56,4.86,3.57a.5.5,0,0,1,.33.44l.3,4.72a.51.51,0,0,1-.2.44A.53.53,0,0,1,218.78,79Zm-4.72-7.37a8.42,8.42,0,0,0,4.17,6.08L218,74.16A12.76,12.76,0,0,1,214.06,71.66Z" fill="#231f20"/><ellipse cx="224.51" cy="55.12" rx="1.51" ry="0.59" transform="translate(144.59 272.04) rotate(-83.57)" fill="#231f20"/><path d="M200,184.62a.39.39,0,0,1-.18,0c-10.05-4.4-19.22-21.41-19.6-22.14a.44.44,0,0,1,.18-.6.45.45,0,0,1,.6.19c.09.17,9.41,17.46,19.17,21.74a.44.44,0,0,1-.17.85Z" fill="#fff"/></g></svg>