<svg xmlns="http://www.w3.org/2000/svg" viewBox="0 0 400 300"><g id="_466_lap_top_flatline" data-name="#466_lap_top_flatline"><path d="M83.86,244.64H326.68a0,0,0,0,1,0,0v5.46a5.13,5.13,0,0,1-5.13,5.13H89a5.13,5.13,0,0,1-5.13-5.13v-5.46A0,0,0,0,1,83.86,244.64Z"/><path d="M322.53,249.19H88a4.15,4.15,0,0,1-3.93-5.48l21.07-62.19a13.65,13.65,0,0,1,12.92-9.26h174.4a13.65,13.65,0,0,1,12.92,9.26l21.07,62.19A4.15,4.15,0,0,1,322.53,249.19Z" fill="#fff"/><path d="M322.53,249.7H88a4.67,4.67,0,0,1-4.41-6.15l21.07-62.19a14.14,14.14,0,0,1,13.4-9.61h174.4a14.14,14.14,0,0,1,13.4,9.61l21.07,62.19a4.67,4.67,0,0,1-4.41,6.15ZM118.07,172.77a13.13,13.13,0,0,0-12.44,8.91L84.56,243.87A3.64,3.64,0,0,0,88,248.68H322.53a3.64,3.64,0,0,0,3.45-4.81l-21.07-62.19a13.13,13.13,0,0,0-12.44-8.91Z" fill="#231f20"/><path d="M302,212.71H108.5a.54.54,0,0,1-.44-.22A.54.54,0,0,1,108,212l9.29-31.27a.56.56,0,0,1,.53-.4h175a.56.56,0,0,1,.53.4L302.57,212a.54.54,0,0,1-.09.49A.54.54,0,0,1,302,212.71ZM109.25,211.6h192l-9-30.16H118.21Z" fill="#d1d3d4"/><path d="M241.42,240.81h-72.3a.55.55,0,0,1-.43-.21.52.52,0,0,1-.11-.46l4.78-21.75a.56.56,0,0,1,.54-.43h62.74a.55.55,0,0,1,.54.43L242,240.14a.52.52,0,0,1-.11.46A.55.55,0,0,1,241.42,240.81Zm-71.61-1.11h70.92l-4.54-20.63H174.35Z" fill="#d1d3d4"/><rect x="108.12" y="40.42" width="194.13" height="131.84" rx="7.2" fill="#fff"/><path d="M295.05,172.77H115.32a7.72,7.72,0,0,1-7.71-7.71V47.62a7.72,7.72,0,0,1,7.71-7.71H295.05a7.72,7.72,0,0,1,7.71,7.71V165.06A7.72,7.72,0,0,1,295.05,172.77ZM115.32,40.92a6.7,6.7,0,0,0-6.69,6.7V165.06a6.7,6.7,0,0,0,6.69,6.69H295.05a6.7,6.7,0,0,0,6.69-6.69V47.62a6.7,6.7,0,0,0-6.69-6.7Z" fill="#231f20"/><rect x="115.08" y="48.21" width="179.8" height="116.06" fill="#68e1fd"/><path d="M213.32,45.05h-10.2a.56.56,0,0,1,0-1.11h10.2a.56.56,0,1,1,0,1.11Z" fill="#d1d3d4"/><path d="M199.14,45.05h-2.09a.56.56,0,1,1,0-1.11h2.09a.56.56,0,0,1,0,1.11Z" fill="#d1d3d4"/><path d="M147.38,126.88a.49.49,0,0,1-.39-.2.5.5,0,0,1,.08-.71l73.4-58.2a.52.52,0,0,1,.72.09.51.51,0,0,1-.09.71l-73.4,58.2A.52.52,0,0,1,147.38,126.88Z" fill="#fff"/><path d="M178.74,150.75a.49.49,0,0,1-.41-.21.5.5,0,0,1,.11-.71l38.8-28.56a.51.51,0,0,1,.71.1.52.52,0,0,1-.11.71L179,150.65A.49.49,0,0,1,178.74,150.75Z" fill="#fff"/><path d="M248.2,136.47a.51.51,0,0,1-.31-.91l28.78-22.42a.52.52,0,0,1,.72.09.51.51,0,0,1-.09.71l-28.79,22.42A.51.51,0,0,1,248.2,136.47Z" fill="#fff"/><path d="M131.81,90.89a.5.5,0,0,1-.41-.19.52.52,0,0,1,.1-.72l18.77-14.39a.5.5,0,0,1,.71.1.51.51,0,0,1-.09.71L132.12,90.79A.52.52,0,0,1,131.81,90.89Z" fill="#fff"/><path d="M223.8,95.9a.53.53,0,0,1-.4-.19.51.51,0,0,1,.08-.72l41.93-33.16a.51.51,0,0,1,.63.79L224.11,95.79A.51.51,0,0,1,223.8,95.9Z" fill="#fff"/></g></svg>