<svg id="_420_lollipop_flatline" data-name="#420_lollipop_flatline" xmlns="http://www.w3.org/2000/svg" viewBox="0 0 400 300"><path d="M168.1,71.49c-9.3,1.06-18.57-1.7-27.78-3.41S120.71,65.86,112.76,71c-2.09,1.36-4,3.07-6.2,4.17-4.85,2.39-10.66,1.57-15.83,3.13-7.09,2.14-12,8.35-17.09,13.74a37,37,0,0,1-9.14,7.44c-2.24,1.2-6.42,1.68-7.62,4.24C54.51,108.8,63,116,65.61,119.83c4.51,6.55,9.08,13.07,13.77,19.5,7.78,10.69,15.9,23.88,26.71,31.83,9.29,6.83,26.18,10.11,26.16,23.91,0,6.05-3.85,12.56-6.31,18.09,2.1,1.18,4.78.08,6.64-1.45s3.43-3.51,5.65-4.46c6.46-2.75,14.28,4.65,20.45,1.31a13.17,13.17,0,0,0,3-2.48l9-9.07c3.59-3.63-2.41-5.24-5.16-6-3.33-1-8.45-2.58-11-5s-1-5.78.13-8.94c2.31-6.47,6.45-12.13,10.73-17.42,5-6.09,7.94-11.39,9.27-19.13,3.23-18.87-.22-38.13,6-56.55,1.17-3.47,2.49-7.58.31-10.51-2.64-3.57-8.07-2.55-12.48-2Z" fill="#fff"/><path d="M128.72,66.88a64.29,64.29,0,0,1,11.6,1.2c7.79,1.45,15.62,3.65,23.48,3.65a38.73,38.73,0,0,0,4.3-.24l.3,0a51.78,51.78,0,0,1,6-.56c2.59,0,5,.55,6.46,2.57,2.18,2.93.86,7-.31,10.51-6.2,18.42-2.75,37.68-6,56.55-1.33,7.74-4.32,13-9.27,19.13-4.28,5.29-8.42,10.95-10.73,17.42-1.14,3.16-2.65,6.65-.13,8.94s7.72,4,11,5c2.75.8,8.75,2.41,5.16,6l-9,9.07a13.17,13.17,0,0,1-3,2.48,7.53,7.53,0,0,1-3.69.89c-4.32,0-9.1-2.83-13.51-2.83a8.15,8.15,0,0,0-3.25.63c-2.22.95-3.78,2.93-5.65,4.46a7.81,7.81,0,0,1-4.67,1.95,4.06,4.06,0,0,1-2-.5c2.46-5.53,6.3-12,6.31-18.09,0-13.8-16.87-17.08-26.16-23.91C95.28,163.21,87.16,150,79.38,139.33c-4.69-6.43-9.26-13-13.77-19.5-2.63-3.82-11.1-11-8.73-16.11,1.2-2.56,5.38-3,7.62-4.24A37,37,0,0,0,73.64,92c5.08-5.39,10-11.6,17.09-13.74,5.17-1.56,11-.74,15.83-3.13,2.24-1.1,4.11-2.81,6.2-4.17,4.73-3,10.28-4.12,16-4.12m0-1v0c-6.65,0-12,1.4-16.5,4.28-.81.52-1.58,1.1-2.33,1.65a25.32,25.32,0,0,1-3.77,2.46c-2.63,1.29-5.56,1.59-8.66,1.9a37.56,37.56,0,0,0-7,1.17c-6.41,1.94-11,7-15.51,11.84-.67.73-1.34,1.46-2,2.17A36.83,36.83,0,0,1,64,98.6a16.57,16.57,0,0,1-2.34.92c-2.2.76-4.7,1.62-5.71,3.78-2.08,4.43,2.49,9.66,6.16,13.87,1,1.2,2,2.34,2.65,3.22,4.93,7.19,9.44,13.57,13.78,19.53,1.4,1.93,2.79,3.9,4.26,6,6.73,9.56,13.68,19.44,22.67,26.05a66.58,66.58,0,0,0,9.17,5.29c8.16,4.17,16.6,8.49,16.58,17.82,0,4.6-2.45,9.7-4.6,14.19-.58,1.21-1.12,2.36-1.63,3.49a1,1,0,0,0,.43,1.28,5,5,0,0,0,2.46.63,8.83,8.83,0,0,0,5.31-2.17c.6-.5,1.17-1,1.72-1.55a13,13,0,0,1,3.69-2.77,7.07,7.07,0,0,1,2.85-.55A23.29,23.29,0,0,1,148,209a24.63,24.63,0,0,0,7,1.45,8.49,8.49,0,0,0,4.17-1,14,14,0,0,0,3.23-2.66l4.5-4.53,4.49-4.54c1.17-1.18,1.61-2.35,1.32-3.49-.62-2.38-4.26-3.44-6.67-4.14l-.24-.07c-2.41-.71-8-2.36-10.66-4.74-1.72-1.57-1.06-3.87.16-7.2l.24-.67c2.3-6.42,6.44-12,10.57-17.12,4.65-5.74,8.05-11.27,9.47-19.6,1.34-7.78,1.55-15.72,1.75-23.4.29-10.94.58-22.25,4.2-33,1.14-3.38,2.7-8,.17-11.43-1.48-2-3.86-3-7.27-3a41.93,41.93,0,0,0-5.13.44l-1,.13-.3,0a37.51,37.51,0,0,1-4.18.23c-5.78,0-11.68-1.24-17.39-2.44-1.94-.41-3.94-.83-5.91-1.19a64.39,64.39,0,0,0-11.78-1.22Z" fill="#231f20"/><path d="M136.3,155.89l32.36,104.34s.7,2.25-3.24,3.47-4.63-1-4.63-1L128.43,158.33Z" fill="#fff"/><path d="M136.3,155.89l32.36,104.34s.7,2.25-3.24,3.47a7.14,7.14,0,0,1-2.1.36c-2.1,0-2.53-1.39-2.53-1.39L128.43,158.33l7.87-2.44m0-1a1,1,0,0,0-.3.05l-7.87,2.44a1,1,0,0,0-.66,1.25L159.84,263a3.4,3.4,0,0,0,3.48,2.09,7.9,7.9,0,0,0,2.4-.41c3.36-1,4.37-3.17,3.9-4.71L137.25,155.6a1,1,0,0,0-.48-.59,1,1,0,0,0-.47-.12Z" fill="#231f20"/><path d="M163.21,263.67a.49.49,0,0,1-.47-.36L132.25,165a.5.5,0,0,1,1-.3L163.69,263a.5.5,0,0,1-.33.62A.4.4,0,0,1,163.21,263.67Z" fill="#d1d3d4"/><path d="M166.44,262.67a.5.5,0,0,1-.48-.36L135.48,164a.49.49,0,0,1,.33-.63.5.5,0,0,1,.62.33L166.91,262a.48.48,0,0,1-.33.62A.32.32,0,0,1,166.44,262.67Z" fill="#d1d3d4"/><path d="M166.7,106.87a43.2,43.2,0,0,1-.94,28.42h0a43.39,43.39,0,1,1-15.07-50.72h0A43.23,43.23,0,0,1,166.7,106.87Z" fill="#68e1fd"/><path d="M125.27,76.33a43.44,43.44,0,0,1,25.42,8.24h0a43.4,43.4,0,0,1,15.06,50.72h0a43.46,43.46,0,0,1-40.51,27.83,42.73,42.73,0,0,1-8.62-.87,43.39,43.39,0,0,1,8.64-85.92m0-1h0a44.39,44.39,0,1,0,41.41,60.34l0,0a44.39,44.39,0,0,0-15.42-51.88l0,0a44.8,44.8,0,0,0-26-8.41Z" fill="#231f20"/><path d="M144.06,151.15c-8.83,8.86-19.5,11-27.43,11.1a43.39,43.39,0,0,1-30.29-61.7c-4.33,20,2.67,37.33,13.3,44.88,12.28,8.72,22.36,7,32.51,2.1s12.95-16,11.07-23.8-9.56-10.61-14.18-8.66a7,7,0,0,0-4.5,6.27c-13.39-3.33-7.16-16.93,4.83-19.25s18.67,7.44,21.8,13.6S160.39,134.77,144.06,151.15Z" fill="#fff"/><path d="M165.77,124.05c-.83-10.54-7.75-21.62-15.1-27.35s-19.19-7.45-27.52-4-15.58,10.4-17.38,18.62.39,16.42,5.38,19.05,12,2.2,13.58-2.82c1.53-4.87-.09-6.14-.18-6.21.21,0,10,.4,9.82,8.09-.16,5.68-6.12,13.39-13.43,13.4-12,0-21.75-3.88-26.5-18.07S94.36,98,110.06,87.54c13.52-9,30.12-6.59,40.63-3h0a43.4,43.4,0,0,1,15.06,50.72A67.7,67.7,0,0,0,165.77,124.05Z" fill="#fff"/><rect x="135.62" y="186.1" width="14.12" height="6.52" rx="3.26" transform="matrix(0.95, -0.32, 0.32, 0.95, -53.16, 55.7)" fill="#231f20"/><path d="M137,189.44s-18.71,29.38-17.76,39.43l9.86,1.83s6.6-33.51,9.9-38.23Z" fill="#231f20"/><path d="M107,182.78c-1.66,4.66-5.6,14.46-2.8,17.06,1.33,1.23,34.85-7.37,34.85-7.37l-2-3S108.63,178.11,107,182.78Zm.33,10.14c.3-2.55,24.11.15,24.11.15C126.07,192.88,106.75,197.63,107.3,192.92Z" fill="#231f20"/><path d="M146.57,185.75s20.26,23.63,24.16,32.94l-7.52,4.17s-11.84-30.9-17-33.5Z" fill="#231f20"/><path d="M146.57,185.75l-.33,3.61s31.43-9.73,32-11.45c1.24-3.62-4.68-8.88-8.34-12.21S146.57,185.75,146.57,185.75Zm6.66.55s19.72-13.61,21.19-11.5C177.12,178.69,157.85,183.61,153.23,186.3Z" fill="#231f20"/><path d="M343.53,76.14s-54.47-11.65-59.1-24c-2-5.36-8.84-7.25-14-6.71-4,.42-8.08,1.61-12.06.86-5.1-1-9.19-5-14.26-6.08-8.07-1.78-16.5,4.08-24.46,1.85-5.08-1.42-9-5.93-14.2-6.75-2.4,6.45-1.9,15.7-2.6,22.63q-1.42,14-2.5,28.12c-1.16,15.6-3.92,33.7-.25,49.14,3.16,13.27,15.88,29.15,5.31,41.58-4.64,5.45-13.08,8.38-19.53,11.49,1,2.67,4.25,3.73,7.1,3.78s5.78-.55,8.51.29c7.93,2.46,9.32,15.12,17.44,16.83a15.42,15.42,0,0,0,4.6.05l15.05-1.3c6-.53,1.84-6.57,0-9.4-2.26-3.43-5.65-8.79-6.18-12.93s3.51-6,7-8c7-4.06,15.09-6,23-7.49,9.12-1.72,15.87-4.2,23-10.18a116.36,116.36,0,0,0,14.42-15.1C317,124,331.36,100.21,343.53,76.14Z" fill="#fff"/><path d="M205.45,35.27c5.21.82,9.12,5.33,14.2,6.75a14.26,14.26,0,0,0,3.94.51c5.67,0,11.51-2.7,17.22-2.7a15.35,15.35,0,0,1,3.3.34c5.07,1.12,9.16,5.11,14.26,6.08a15.25,15.25,0,0,0,2.77.24c3.08,0,6.19-.77,9.29-1.1a16.28,16.28,0,0,1,1.73-.09c4.86,0,10.48,2,12.27,6.8,4.63,12.39,59.1,24,59.1,24C331.36,100.21,317,124,299.75,144.81a116.36,116.36,0,0,1-14.42,15.1c-7.13,6-13.88,8.46-23,10.18-7.91,1.49-16,3.43-23,7.49-3.45,2-7.48,4-7,8s3.92,9.5,6.18,12.93c1.87,2.83,6,8.87,0,9.4l-15.05,1.3c-.83.07-1.67.15-2.5.15a9.84,9.84,0,0,1-2.1-.2c-8.12-1.71-9.51-14.37-17.44-16.83a12,12,0,0,0-3.54-.45c-1.53,0-3.09.16-4.64.16H193c-2.85,0-6.11-1.11-7.1-3.78,6.45-3.11,14.89-6,19.53-11.49,10.57-12.43-2.15-28.31-5.31-41.58-3.67-15.44-.91-33.54.25-49.14Q201.4,72,202.85,57.9c.7-6.93.2-16.18,2.6-22.63m0-1a1,1,0,0,0-.93.65c-1.74,4.65-2,10.51-2.25,16.18-.11,2.39-.21,4.64-.42,6.7-1,10.25-1.85,19.46-2.5,28.15-.21,2.81-.47,5.66-.74,8.67-1.24,13.75-2.52,28,.52,40.77a79.15,79.15,0,0,0,4.22,11.76c4.19,10.06,8.52,20.45,1.3,28.94-3.56,4.18-9.67,6.92-15.07,9.34-1.45.65-2.82,1.26-4.13,1.9a1,1,0,0,0-.51,1.24c1.19,3.19,4.92,4.39,8,4.44h.35c.8,0,1.6,0,2.38-.08s1.52-.08,2.26-.08a10.78,10.78,0,0,1,3.24.41c3.52,1.09,5.66,4.44,7.93,8,2.47,3.88,5,7.89,9.6,8.85a10.92,10.92,0,0,0,2.31.22c.89,0,1.79-.08,2.59-.15l6.94-.6,8.11-.71c1.89-.16,3.14-.85,3.71-2,1.22-2.52-1.22-6.22-2.84-8.66l-.16-.24c-1.64-2.49-5.48-8.32-6-12.5-.37-2.85,2-4.45,5.74-6.56l.73-.42c7-4,15-5.94,22.69-7.38,8.56-1.61,15.82-4,23.45-10.39a117.42,117.42,0,0,0,14.55-15.23c15.63-18.82,30-41.34,43.91-68.86a1,1,0,0,0,0-.88,1,1,0,0,0-.7-.54C328.74,72,289,61.49,285.36,51.75c-2.06-5.5-8.39-7.45-13.2-7.45a16,16,0,0,0-1.84.1c-1.16.12-2.33.3-3.47.48a35.79,35.79,0,0,1-5.71.61,13.17,13.17,0,0,1-2.58-.23,24.37,24.37,0,0,1-7-3,27.61,27.61,0,0,0-7.22-3.11,16.44,16.44,0,0,0-3.51-.36,39.39,39.39,0,0,0-8.87,1.38,37.2,37.2,0,0,1-8.35,1.32,13.41,13.41,0,0,1-3.67-.47,24.48,24.48,0,0,1-6.23-3.14c-2.49-1.55-5.06-3.16-8.08-3.63l-.16,0Z" fill="#231f20"/><path d="M239,144.5,188.41,263.37s-1.09,2.56-5.57.65-3.39-4.47-3.39-4.47l50.61-118.87Z" fill="#fff"/><path d="M230.06,140.68l9,3.82L188.41,263.37a2.7,2.7,0,0,1-2.62,1.36,7.6,7.6,0,0,1-2.95-.71c-4.48-1.91-3.39-4.47-3.39-4.47l50.61-118.87m0-1a1.16,1.16,0,0,0-.37.07,1,1,0,0,0-.55.54L178.53,259.16a3.26,3.26,0,0,0,0,2.22c.48,1.45,1.8,2.65,3.94,3.56a8.7,8.7,0,0,0,3.34.79,3.72,3.72,0,0,0,3.54-2L240,144.89a1,1,0,0,0-.53-1.31l-9-3.82a1,1,0,0,0-.39-.08Z" fill="#231f20"/><path d="M181.25,262.35a.65.65,0,0,1-.19,0,.51.51,0,0,1-.27-.66l47.68-112a.49.49,0,0,1,.65-.27.5.5,0,0,1,.27.66L181.71,262A.5.5,0,0,1,181.25,262.35Z" fill="#d1d3d4"/><path d="M184.93,263.91a.45.45,0,0,1-.2,0,.5.5,0,0,1-.26-.66l47.67-112a.5.5,0,0,1,.66-.26.49.49,0,0,1,.26.65l-47.67,112A.51.51,0,0,1,184.93,263.91Z" fill="#d1d3d4"/><path d="M303.94,123.53a51.14,51.14,0,0,1-22.57,24.92h0a51.32,51.32,0,1,1,25.2-57.28h0A51,51,0,0,1,303.94,123.53Z" fill="#68e1fd"/><path d="M256.76,52.1a51.37,51.37,0,0,1,49.8,39.07h0a51.34,51.34,0,0,1-25.19,57.27h0a51.31,51.31,0,1,1-24.6-96.35m0-1h0a52.33,52.33,0,1,0,25.06,98.24l0,0a52.3,52.3,0,0,0,25.69-58.38v0a52.37,52.37,0,0,0-50.76-39.8Z" fill="#231f20"/><path d="M249.66,146.16c-14.75,1.23-26-5-33.24-11a51.31,51.31,0,0,1,19.87-78.82C217.06,71.13,210.15,92.07,214,107c4.4,17.26,14.82,23.41,27.72,26.76s23.95-4.55,28.19-13-.51-16.89-6.17-18.65a8.21,8.21,0,0,0-8.85,2.21c-9.53-13.25,6.49-20.75,19.08-13.68s11.15,21,9.26,29S276.92,143.87,249.66,146.16Z" fill="#fff"/><path d="M290,138.31c7.31-10.13,9.54-25.43,7.3-36.21S285.65,80.69,275.5,77.44s-22-2.53-29.92,3.5-12.21,15.11-9.71,21.3,9.14,11.16,14.4,7.84c5.1-3.22,4.62-5.6,4.58-5.74.19.17,8.75,8,2.67,14.81-4.48,5-15.76,7.4-22.36,1.81-10.8-9.15-16.65-20.13-10.07-36.56s20.42-24.25,42.55-21.63c19.06,2.25,32.21,17.1,38.92,28.4h0a51.34,51.34,0,0,1-25.19,57.27A80.11,80.11,0,0,0,290,138.31Z" fill="#fff"/><rect x="210.83" y="175.71" width="16.69" height="7.71" rx="3.86" transform="translate(81.52 -68.09) rotate(21.61)" fill="#231f20"/><path d="M214,175.3s-34.66,17.62-41.49,27.4l8.72,6.63s25.67-28,32.25-29.76Z" fill="#231f20"/><path d="M192,146.31c-5.06,2.94-13.22,7.56-12.68,12.05.26,2.13,34.17,21.21,34.17,21.21l.52-4.27S197.07,143.38,192,146.31Zm-7.46,9.41c2.22-2.08,21.62,18.57,21.62,18.57C201.51,170,180.44,159.55,184.55,155.72Z" fill="#231f20"/><path d="M225.46,179.28s7.16,38.21,3.56,49.59L218.45,226s6.58-37.43,3.94-43.7Z" fill="#231f20"/><path d="M225.46,179.28l-3.07,3s35.8,15.26,37.64,14.16c3.89-2.31,2.58-11.59,1.82-17.39S225.46,179.28,225.46,179.28Zm5.58,5.6s28.2,2.8,27.91,5.83C258.41,196.29,237.26,186,231,184.88Z" fill="#231f20"/><path d="M73.59,120.22a.5.5,0,0,1-.42-.22c-3.67-5.43-5.89-16-6-16.47a.5.5,0,1,1,1-.2c0,.11,2.28,10.85,5.84,16.11a.49.49,0,0,1-.41.78Z" fill="#d1d3d4"/><path d="M148.57,182.15h0a.5.5,0,0,1-.47-.52c0-.16.86-15.83,8.75-26a.5.5,0,1,1,.79.61c-7.7,10-8.53,25.32-8.54,25.47A.5.5,0,0,1,148.57,182.15Z" fill="#d1d3d4"/><path d="M231,175.8a.47.47,0,0,1-.35-.14.49.49,0,0,1,0-.7c.31-.32,7.79-7.87,28.16-12.33a.51.51,0,0,1,.6.39.49.49,0,0,1-.38.59c-20,4.39-27.59,12-27.66,12A.51.51,0,0,1,231,175.8Z" fill="#d1d3d4"/><path d="M214,161.11a.54.54,0,0,1-.25-.06.5.5,0,0,1-.19-.68c.54-1.19-.34-14.18-5.25-22.59a.5.5,0,1,1,.86-.51c5.08,8.71,6.06,22.18,5.26,23.59A.5.5,0,0,1,214,161.11Z" fill="#d1d3d4"/><path d="M318.83,97.76a.51.51,0,0,1-.5-.41L315,77.64a.5.5,0,0,1,.4-.58.51.51,0,0,1,.58.41l3.38,19.71a.51.51,0,0,1-.41.58Z" fill="#d1d3d4"/><path d="M211.48,60l-.17,0a.5.5,0,0,1-.3-.64l2.72-7.43a.5.5,0,1,1,.94.35L212,59.71A.49.49,0,0,1,211.48,60Z" fill="#d1d3d4"/><path d="M168.66,93.26a.5.5,0,0,1-.46-.31l-4.71-11.43a.5.5,0,0,1,.93-.38l4.7,11.43a.5.5,0,0,1-.27.65A.43.43,0,0,1,168.66,93.26Z" fill="#d1d3d4"/></svg>