<svg xmlns="http://www.w3.org/2000/svg" viewBox="0 0 400 300"><g id="_307_london_flatline" data-name="#307_london_flatline"><line x1="137.83" y1="132.85" x2="145.88" y2="124.62" fill="#fff"/><path d="M137.83,133.31a.45.45,0,0,1-.32-.13.46.46,0,0,1,0-.65l8-8.23a.46.46,0,0,1,.66.64l-8.05,8.23A.47.47,0,0,1,137.83,133.31Z" fill="#231f20"/><line x1="145.88" y1="132.85" x2="137.83" y2="124.62" fill="#fff"/><path d="M145.88,133.31a.47.47,0,0,1-.33-.14l-8-8.23a.45.45,0,0,1,0-.64.46.46,0,0,1,.65,0l8.05,8.23a.47.47,0,0,1,0,.65A.45.45,0,0,1,145.88,133.31Z" fill="#231f20"/><line x1="145.88" y1="132.85" x2="153.93" y2="124.62" fill="#fff"/><path d="M145.88,133.31a.44.44,0,0,1-.32-.13.47.47,0,0,1,0-.65l8-8.23a.45.45,0,0,1,.64,0,.44.44,0,0,1,0,.64l-8,8.23A.47.47,0,0,1,145.88,133.31Z" fill="#231f20"/><line x1="153.93" y1="132.85" x2="145.88" y2="124.62" fill="#fff"/><path d="M153.93,133.31a.47.47,0,0,1-.33-.14l-8-8.23a.46.46,0,0,1,.66-.64l8,8.23a.45.45,0,0,1,0,.65A.42.42,0,0,1,153.93,133.31Z" fill="#231f20"/><line x1="153.93" y1="132.85" x2="161.97" y2="124.62" fill="#fff"/><path d="M153.93,133.31a.42.42,0,0,1-.32-.13.46.46,0,0,1,0-.65l8.05-8.23a.46.46,0,0,1,.65.64l-8.05,8.23A.47.47,0,0,1,153.93,133.31Z" fill="#231f20"/><line x1="161.97" y1="132.85" x2="153.93" y2="124.62" fill="#fff"/><path d="M162,133.31a.43.43,0,0,1-.32-.14l-8.05-8.23a.46.46,0,0,1,.65-.64l8.05,8.23a.46.46,0,0,1,0,.65A.44.44,0,0,1,162,133.31Z" fill="#231f20"/><line x1="161.97" y1="132.85" x2="170.02" y2="124.62" fill="#fff"/><path d="M162,133.31a.45.45,0,0,1-.32-.13.46.46,0,0,1,0-.65l8-8.23a.46.46,0,0,1,.66.64l-8,8.23A.47.47,0,0,1,162,133.31Z" fill="#231f20"/><line x1="170.02" y1="132.85" x2="161.97" y2="124.62" fill="#fff"/><path d="M170,133.31a.47.47,0,0,1-.33-.14l-8-8.23a.45.45,0,0,1,0-.64.46.46,0,0,1,.65,0l8,8.23a.47.47,0,0,1,0,.65A.45.45,0,0,1,170,133.31Z" fill="#231f20"/><line x1="170.02" y1="132.85" x2="178.07" y2="124.62" fill="#fff"/><path d="M170,133.31a.44.44,0,0,1-.32-.13.47.47,0,0,1,0-.65l8.05-8.23a.46.46,0,0,1,.65,0,.45.45,0,0,1,0,.64l-8,8.23A.47.47,0,0,1,170,133.31Z" fill="#231f20"/><line x1="178.07" y1="132.85" x2="170.02" y2="124.62" fill="#fff"/><path d="M178.07,133.31a.47.47,0,0,1-.33-.14l-8.05-8.23a.46.46,0,0,1,.66-.64l8,8.23a.46.46,0,0,1,0,.65A.45.45,0,0,1,178.07,133.31Z" fill="#231f20"/><line x1="178.07" y1="132.85" x2="186.11" y2="124.62" fill="#fff"/><path d="M178.07,133.31a.44.44,0,0,1-.32-.13.46.46,0,0,1,0-.65l8-8.23a.46.46,0,0,1,.65.64l-8.05,8.23A.47.47,0,0,1,178.07,133.31Z" fill="#231f20"/><line x1="186.11" y1="132.85" x2="178.07" y2="124.62" fill="#fff"/><path d="M186.11,133.31a.45.45,0,0,1-.32-.14l-8-8.23a.46.46,0,0,1,.65-.64l8.05,8.23a.46.46,0,0,1,0,.65A.44.44,0,0,1,186.11,133.31Z" fill="#231f20"/><line x1="186.11" y1="132.85" x2="194.16" y2="124.62" fill="#fff"/><path d="M186.11,133.31a.45.45,0,0,1-.32-.13.46.46,0,0,1,0-.65l8-8.23a.46.46,0,0,1,.66.64l-8.05,8.23A.47.47,0,0,1,186.11,133.31Z" fill="#231f20"/><line x1="194.16" y1="132.85" x2="186.11" y2="124.62" fill="#fff"/><path d="M194.16,133.31a.47.47,0,0,1-.33-.14l-8-8.23a.45.45,0,0,1,0-.64.46.46,0,0,1,.65,0l8.05,8.23a.47.47,0,0,1,0,.65A.45.45,0,0,1,194.16,133.31Z" fill="#231f20"/><line x1="205.67" y1="132.85" x2="213.72" y2="124.62" fill="#fff"/><path d="M205.67,133.31a.45.45,0,0,1-.32-.13.46.46,0,0,1,0-.65l8-8.23a.46.46,0,0,1,.66.64L206,133.17A.47.47,0,0,1,205.67,133.31Z" fill="#231f20"/><line x1="213.72" y1="132.85" x2="205.67" y2="124.62" fill="#fff"/><path d="M213.72,133.31a.47.47,0,0,1-.33-.14l-8-8.23a.45.45,0,0,1,0-.64.46.46,0,0,1,.65,0l8.05,8.23a.47.47,0,0,1,0,.65A.44.44,0,0,1,213.72,133.31Z" fill="#231f20"/><line x1="213.72" y1="132.85" x2="221.77" y2="124.62" fill="#fff"/><path d="M213.72,133.31a.45.45,0,0,1-.32-.13.47.47,0,0,1,0-.65l8.05-8.23a.46.46,0,0,1,.65,0,.45.45,0,0,1,0,.64l-8,8.23A.47.47,0,0,1,213.72,133.31Z" fill="#231f20"/><line x1="221.77" y1="132.85" x2="213.72" y2="124.62" fill="#fff"/><path d="M221.77,133.31a.47.47,0,0,1-.33-.14l-8.05-8.23a.46.46,0,0,1,.66-.64l8,8.23a.46.46,0,0,1,0,.65A.45.45,0,0,1,221.77,133.31Z" fill="#231f20"/><line x1="221.77" y1="132.85" x2="229.81" y2="124.62" fill="#fff"/><path d="M221.77,133.31a.44.44,0,0,1-.32-.13.47.47,0,0,1,0-.65l8.05-8.23a.46.46,0,0,1,.65.64l-8,8.23A.43.43,0,0,1,221.77,133.31Z" fill="#231f20"/><line x1="229.81" y1="132.85" x2="221.77" y2="124.62" fill="#fff"/><path d="M229.81,133.31a.47.47,0,0,1-.32-.14l-8.05-8.23a.46.46,0,0,1,0-.64.45.45,0,0,1,.64,0l8,8.23a.46.46,0,0,1,0,.65A.42.42,0,0,1,229.81,133.31Z" fill="#231f20"/><line x1="229.81" y1="132.85" x2="237.86" y2="124.62" fill="#fff"/><path d="M229.81,133.31a.42.42,0,0,1-.31-.13.45.45,0,0,1,0-.65l8-8.23a.45.45,0,0,1,.64,0,.46.46,0,0,1,0,.64l-8.05,8.23A.47.47,0,0,1,229.81,133.31Z" fill="#231f20"/><line x1="237.86" y1="132.85" x2="229.81" y2="124.62" fill="#fff"/><path d="M237.86,133.31a.43.43,0,0,1-.32-.14l-8-8.23a.44.44,0,0,1,0-.64.45.45,0,0,1,.64,0l8.05,8.23a.47.47,0,0,1,0,.65A.44.44,0,0,1,237.86,133.31Z" fill="#231f20"/><line x1="237.86" y1="132.85" x2="245.91" y2="124.62" fill="#fff"/><path d="M237.86,133.31a.45.45,0,0,1-.32-.13.46.46,0,0,1,0-.65l8-8.23a.46.46,0,0,1,.66.64l-8.05,8.23A.47.47,0,0,1,237.86,133.31Z" fill="#231f20"/><line x1="245.91" y1="132.85" x2="237.86" y2="124.62" fill="#fff"/><path d="M245.91,133.31a.47.47,0,0,1-.33-.14l-8-8.23a.45.45,0,0,1,0-.64.46.46,0,0,1,.65,0l8.05,8.23a.47.47,0,0,1,0,.65A.45.45,0,0,1,245.91,133.31Z" fill="#231f20"/><line x1="245.91" y1="132.85" x2="253.96" y2="124.62" fill="#fff"/><path d="M245.91,133.31a.44.44,0,0,1-.32-.13.47.47,0,0,1,0-.65l8-8.23a.45.45,0,0,1,.64,0,.44.44,0,0,1,0,.64l-8,8.23A.47.47,0,0,1,245.91,133.31Z" fill="#231f20"/><line x1="253.96" y1="132.85" x2="245.91" y2="124.62" fill="#fff"/><path d="M254,133.31a.47.47,0,0,1-.33-.14l-8-8.23a.46.46,0,0,1,.66-.64l8,8.23a.45.45,0,0,1,0,.65A.42.42,0,0,1,254,133.31Z" fill="#231f20"/><line x1="253.96" y1="132.85" x2="262" y2="124.62" fill="#fff"/><path d="M254,133.31a.44.44,0,0,1-.32-.13.46.46,0,0,1,0-.65l8.05-8.23a.45.45,0,0,1,.64,0,.46.46,0,0,1,0,.64l-8,8.23A.47.47,0,0,1,254,133.31Z" fill="#231f20"/><line x1="262" y1="132.85" x2="253.96" y2="124.62" fill="#fff"/><path d="M262,133.31a.43.43,0,0,1-.32-.14l-8.05-8.23a.46.46,0,0,1,.65-.64l8,8.23a.47.47,0,0,1,0,.65A.44.44,0,0,1,262,133.31Z" fill="#231f20"/><path d="M271.27,124.76H128.73a.45.45,0,0,1-.46-.45.46.46,0,0,1,.46-.46H271.27a.46.46,0,0,1,.46.46A.45.45,0,0,1,271.27,124.76Z" fill="#231f20"/><rect x="134.53" y="203.02" width="130.93" height="4.55" fill="#fff"/><path d="M265.47,208H134.53a.45.45,0,0,1-.45-.45V203a.45.45,0,0,1,.45-.45H265.47a.45.45,0,0,1,.45.45v4.56A.45.45,0,0,1,265.47,208ZM135,207.12H265v-3.64H135Z" fill="#231f20"/><path d="M265.47,207.58v27H249.79s-10.71-24.2-49.79-24.2-49.79,24.2-49.79,24.2H134.53v-27Z" fill="#fff"/><path d="M265.47,235H249.79a.48.48,0,0,1-.42-.27c-.1-.24-11.07-23.94-49.37-23.94s-49.27,23.7-49.37,23.94a.48.48,0,0,1-.42.27H134.53a.46.46,0,0,1-.46-.46v-27a.46.46,0,0,1,.46-.46H265.47a.46.46,0,0,1,.46.46v27A.46.46,0,0,1,265.47,235Zm-15.39-.91H265V208H135v26.1h14.93c1.36-2.69,13.4-24.21,50.08-24.21S248.72,231.44,250.08,234.13Z" fill="#231f20"/><rect x="129.52" y="132.85" width="140.96" height="4.17" fill="#231f20"/><path d="M270.48,137.52h-141a.5.5,0,0,1-.5-.5v-4.17a.5.5,0,0,1,.5-.5h141a.5.5,0,0,1,.5.5V137A.5.5,0,0,1,270.48,137.52Zm-140.46-1H270v-3.17H130Z" fill="#231f20"/><polygon points="194.33 122.63 200 118.72 205.67 122.63 205.67 132.85 194.33 132.85 194.33 122.63" fill="#68e1fd"/><path d="M205.67,133.31H194.33a.46.46,0,0,1-.46-.46V122.63a.46.46,0,0,1,.2-.38l5.67-3.91a.49.49,0,0,1,.52,0l5.67,3.91a.46.46,0,0,1,.2.38v10.22A.46.46,0,0,1,205.67,133.31Zm-10.89-.91h10.44v-9.53l-5.22-3.6-5.22,3.6Z" fill="#231f20"/><path d="M194.33,130.63a.45.45,0,0,1-.46-.45V119.9a.46.46,0,1,1,.91,0v10.28A.45.45,0,0,1,194.33,130.63Z" fill="#231f20"/><path d="M205.67,130.63a.45.45,0,0,1-.45-.45V119.9a.46.46,0,1,1,.91,0v10.28A.45.45,0,0,1,205.67,130.63Z" fill="#231f20"/><path d="M200,119.18a.47.47,0,0,1-.46-.46v-2.84a.46.46,0,0,1,.92,0v2.84A.47.47,0,0,1,200,119.18Z" fill="#231f20"/><path d="M45.55,203V176.29c32-5.33,64-44.36,64-44.36l-1.76,7.69s-32.59,36.83-62.26,40.26" fill="#231f20"/><path d="M45.55,203.52a.5.5,0,0,1-.5-.5V179.88h0v-3.58a.51.51,0,0,1,.42-.5c31.45-5.23,63.39-43.79,63.71-44.17a.51.51,0,0,1,.61-.14.52.52,0,0,1,.26.56l-1.75,7.69a.43.43,0,0,1-.12.22c-.32.37-32.72,36.65-62.13,40.37V203A.5.5,0,0,1,45.55,203.52Zm.5-26.81v2.6c28.27-3.66,59.45-37.87,61.3-39.93l1.28-5.58C102.26,141.1,74.08,171.79,46.05,176.71Z" fill="#231f20"/><path d="M55.23,203.48a.45.45,0,0,1-.45-.46V177.68a.46.46,0,0,1,.91,0V203A.45.45,0,0,1,55.23,203.48Z" fill="#231f20"/><path d="M65.58,203.48a.45.45,0,0,1-.46-.46V173.31a.46.46,0,0,1,.91,0V203A.45.45,0,0,1,65.58,203.48Z" fill="#231f20"/><path d="M76.39,203.48a.46.46,0,0,1-.46-.46V167a.46.46,0,0,1,.92,0V203A.46.46,0,0,1,76.39,203.48Z" fill="#231f20"/><path d="M87.2,203.48a.45.45,0,0,1-.45-.46V159a.46.46,0,0,1,.91,0v44A.45.45,0,0,1,87.2,203.48Z" fill="#231f20"/><path d="M121.69,68.71a.46.46,0,0,1-.46-.45V59.18a.46.46,0,0,1,.92,0v9.08A.46.46,0,0,1,121.69,68.71Z" fill="#231f20"/><polygon points="120.41 70.66 122.97 70.66 134.07 116.3 109.31 116.3 120.41 70.66" fill="#231f20"/><path d="M134.07,116.79H109.32a.51.51,0,0,1-.4-.19.49.49,0,0,1-.09-.42l11.09-45.63a.51.51,0,0,1,.49-.39H123a.49.49,0,0,1,.48.39l11.09,45.63a.49.49,0,0,1-.09.42A.51.51,0,0,1,134.07,116.79Zm-24.12-1h23.48L122.58,71.16H120.8Z" fill="#231f20"/><rect x="120.42" y="67.24" width="2.55" height="3.42" fill="#231f20"/><path d="M123,71.16h-2.54a.5.5,0,0,1-.5-.5V67.24a.5.5,0,0,1,.5-.5H123a.5.5,0,0,1,.5.5v3.42A.5.5,0,0,1,123,71.16Zm-2-1h1.54V67.74h-1.54Z" fill="#231f20"/><polygon points="127.1 114.8 127.1 103.99 121.69 94.89 116.28 103.99 116.28 114.8 111.08 114.8 111.08 201.31 132.3 201.31 132.3 114.8 127.1 114.8" fill="#68e1fd"/><path d="M132.3,201.77H111.09a.46.46,0,0,1-.46-.46V114.8a.45.45,0,0,1,.46-.45h4.74V104a.46.46,0,0,1,.06-.23l5.41-9.1a.47.47,0,0,1,.78,0l5.41,9.1a.46.46,0,0,1,.06.23v10.36h4.75a.45.45,0,0,1,.45.45v86.51A.46.46,0,0,1,132.3,201.77Zm-20.76-.92h20.3V115.26H127.1a.47.47,0,0,1-.46-.46V104.11l-5-8.33-5,8.33V114.8a.46.46,0,0,1-.46.46h-4.74Z" fill="#231f20"/><path d="M132.3,123.18H111.09a.46.46,0,1,1,0-.91H132.3a.46.46,0,0,1,0,.91Z" fill="#231f20"/><path d="M117.94,139.67h-3.35V128.83c0-.93,1.68-2.43,1.68-2.43s1.67,1.5,1.67,2.43Z" fill="#231f20"/><path d="M123.37,139.67H120V128.83c0-.93,1.68-2.43,1.68-2.43s1.68,1.5,1.68,2.43Z" fill="#231f20"/><path d="M128.79,139.67h-3.35V128.83c0-.93,1.67-2.43,1.67-2.43s1.68,1.5,1.68,2.43Z" fill="#231f20"/><path d="M117.94,160h-3.35V149.11c0-.92,1.68-2.43,1.68-2.43s1.67,1.51,1.67,2.43Z" fill="#231f20"/><path d="M123.37,160H120V149.11c0-.92,1.68-2.43,1.68-2.43s1.68,1.51,1.68,2.43Z" fill="#231f20"/><path d="M128.79,160h-3.35V149.11c0-.92,1.67-2.43,1.67-2.43s1.68,1.51,1.68,2.43Z" fill="#231f20"/><path d="M117.94,180.25h-3.35V169.4c0-.93,1.68-2.43,1.68-2.43s1.67,1.5,1.67,2.43Z" fill="#231f20"/><path d="M123.37,180.25H120V169.4c0-.93,1.68-2.43,1.68-2.43s1.68,1.5,1.68,2.43Z" fill="#231f20"/><path d="M128.79,180.25h-3.35V169.4c0-.93,1.67-2.43,1.67-2.43s1.68,1.5,1.68,2.43Z" fill="#231f20"/><path d="M131.54,186.24h-19.7a.46.46,0,0,1-.46-.45.47.47,0,0,1,.46-.46h19.7a.47.47,0,0,1,.46.46A.46.46,0,0,1,131.54,186.24Z" fill="#231f20"/><polygon points="107.56 81.19 112.62 100.46 102.5 100.46 107.56 81.19" fill="#231f20"/><path d="M112.62,101H102.5a.52.52,0,0,1-.4-.2.5.5,0,0,1-.08-.43l5-19.27a.52.52,0,0,1,1,0l5.06,19.27a.48.48,0,0,1-.09.43A.5.5,0,0,1,112.62,101Zm-9.47-1H112l-4.41-16.81Z" fill="#231f20"/><polygon points="104.32 100.46 104.53 132.58 106.46 137.72 106.46 201.31 112.67 201.31 112.67 137.07 111.16 133.7 111.16 100.46 104.32 100.46" fill="#68e1fd"/><path d="M112.67,201.77h-6.21a.47.47,0,0,1-.46-.46V137.8l-1.89-5.06a.45.45,0,0,1,0-.16l-.22-32.12a.47.47,0,0,1,.14-.33.46.46,0,0,1,.32-.13h6.84a.46.46,0,0,1,.46.46V133.6l1.47,3.29a.53.53,0,0,1,0,.18v64.24A.47.47,0,0,1,112.67,201.77Zm-5.75-.92h5.29V137.17l-1.47-3.28a.65.65,0,0,1,0-.19V100.91h-5.92l.21,31.58,1.9,5.06a.5.5,0,0,1,0,.16Z" fill="#231f20"/><path d="M111.16,121.79h-6.7a.46.46,0,1,1,0-.91h6.7a.46.46,0,1,1,0,.91Z" fill="#231f20"/><path d="M112.67,138.17h-6.21a.46.46,0,1,1,0-.91h6.21a.46.46,0,1,1,0,.91Z" fill="#231f20"/><polygon points="135.82 81.19 130.76 100.46 140.88 100.46 135.82 81.19" fill="#231f20"/><path d="M140.88,101H130.76a.5.5,0,0,1-.39-.2.48.48,0,0,1-.09-.43l5.06-19.27a.52.52,0,0,1,1,0l5.06,19.27a.51.51,0,0,1-.09.43A.52.52,0,0,1,140.88,101Zm-9.47-1h8.82l-4.41-16.81Z" fill="#231f20"/><polygon points="139.06 100.46 138.85 132.58 136.92 137.72 136.92 201.31 130.71 201.31 130.71 137.07 132.22 133.7 132.22 100.46 139.06 100.46" fill="#68e1fd"/><path d="M136.92,201.77h-6.21a.47.47,0,0,1-.46-.46V137.07a.53.53,0,0,1,0-.18l1.47-3.29V100.46a.46.46,0,0,1,.46-.46h6.84a.44.44,0,0,1,.46.46l-.22,32.12a.88.88,0,0,1,0,.16l-1.9,5.06v63.51A.47.47,0,0,1,136.92,201.77Zm-5.75-.92h5.29V137.71a.5.5,0,0,1,0-.16l1.9-5.06.21-31.58h-5.92V133.7a.43.43,0,0,1,0,.19l-1.47,3.28Z" fill="#231f20"/><line x1="138.92" y1="121.34" x2="132.22" y2="121.34" fill="#fff"/><path d="M138.92,121.79h-6.7a.46.46,0,1,1,0-.91h6.7a.46.46,0,1,1,0,.91Z" fill="#231f20"/><line x1="136.92" y1="137.72" x2="130.71" y2="137.72" fill="#fff"/><path d="M136.92,138.17h-6.21a.46.46,0,1,1,0-.91h6.21a.46.46,0,1,1,0,.91Z" fill="#231f20"/><path d="M107.56,82.44a.46.46,0,0,1-.46-.46V77.49a.46.46,0,0,1,.92,0V82A.46.46,0,0,1,107.56,82.44Z" fill="#231f20"/><path d="M135.82,82.44a.45.45,0,0,1-.45-.46V77.49a.46.46,0,1,1,.91,0V82A.45.45,0,0,1,135.82,82.44Z" fill="#231f20"/><rect x="99.51" y="201.31" width="44.32" height="33.28" fill="#68e1fd"/><path d="M143.84,235H99.51a.45.45,0,0,1-.45-.45V201.31a.46.46,0,0,1,.45-.46h44.33a.47.47,0,0,1,.46.46v33.28A.46.46,0,0,1,143.84,235ZM100,234.13h43.41V201.77H100Z" fill="#231f20"/><path d="M123.37,116.29H120V105.45c0-.93,1.68-2.43,1.68-2.43s1.68,1.5,1.68,2.43Z" fill="#231f20"/><path d="M123.37,116.79H120a.5.5,0,0,1-.5-.5V105.45c0-1.1,1.54-2.53,1.85-2.8a.49.49,0,0,1,.66,0c.31.27,1.85,1.7,1.85,2.8v10.84A.5.5,0,0,1,123.37,116.79Zm-2.86-1h2.36V105.45a3.92,3.92,0,0,0-1.18-1.74,3.92,3.92,0,0,0-1.18,1.74Z" fill="#231f20"/><rect x="45.55" y="203.02" width="53.96" height="4.55" fill="#fff"/><path d="M99.51,208h-54a.45.45,0,0,1-.45-.45V203a.45.45,0,0,1,.45-.45h54a.45.45,0,0,1,.46.45v4.56A.45.45,0,0,1,99.51,208ZM46,207.12H99.06v-3.64H46Z" fill="#231f20"/><rect x="45.55" y="207.58" width="53.96" height="27.01" fill="#fff"/><path d="M99.51,235h-54a.45.45,0,0,1-.45-.45v-27a.45.45,0,0,1,.45-.46h54a.45.45,0,0,1,.46.46v27A.45.45,0,0,1,99.51,235ZM46,234.13H99.06V208H46Z" fill="#231f20"/><path d="M98,203.48a.45.45,0,0,1-.46-.46V149.53a.46.46,0,1,1,.91,0V203A.45.45,0,0,1,98,203.48Z" fill="#231f20"/><path d="M354.45,203V176.29c-32-5.33-64-44.36-64-44.36l1.76,7.69s32.59,36.83,62.26,40.26" fill="#231f20"/><path d="M354.45,203.52a.5.5,0,0,1-.5-.5v-22.7c-29.41-3.72-61.81-40-62.13-40.37a.43.43,0,0,1-.12-.22L290,132a.52.52,0,0,1,.26-.56.51.51,0,0,1,.61.14c.32.38,32.26,38.94,63.71,44.17a.51.51,0,0,1,.42.5v3.58h0V203A.5.5,0,0,1,354.45,203.52Zm-61.8-64.14c1.85,2.06,33,36.27,61.3,39.93v-2.6c-28-4.92-56.21-35.61-62.58-42.91Z" fill="#231f20"/><path d="M344.77,203.48a.45.45,0,0,1-.46-.46V177.68a.46.46,0,0,1,.91,0V203A.45.45,0,0,1,344.77,203.48Z" fill="#231f20"/><path d="M334.42,203.48A.45.45,0,0,1,334,203V173.31a.46.46,0,0,1,.91,0V203A.45.45,0,0,1,334.42,203.48Z" fill="#231f20"/><path d="M323.61,203.48a.46.46,0,0,1-.46-.46V167a.46.46,0,1,1,.92,0V203A.46.46,0,0,1,323.61,203.48Z" fill="#231f20"/><path d="M312.8,203.48a.45.45,0,0,1-.46-.46V159a.46.46,0,0,1,.91,0v44A.45.45,0,0,1,312.8,203.48Z" fill="#231f20"/><line x1="278.31" y1="68.26" x2="278.31" y2="59.18" fill="#fff"/><path d="M278.31,68.71a.46.46,0,0,1-.46-.45V59.18a.46.46,0,0,1,.92,0v9.08A.46.46,0,0,1,278.31,68.71Z" fill="#231f20"/><polygon points="279.59 70.66 277.02 70.66 265.93 116.3 290.69 116.3 279.59 70.66" fill="#231f20"/><path d="M290.68,116.79H265.93a.51.51,0,0,1-.39-.19.49.49,0,0,1-.09-.42l11.09-45.63a.49.49,0,0,1,.48-.39h2.57a.51.51,0,0,1,.49.39l11.09,45.63a.49.49,0,0,1-.09.42A.51.51,0,0,1,290.68,116.79Zm-24.11-1h23.48L279.2,71.16h-1.78Z" fill="#231f20"/><rect x="277.04" y="67.24" width="2.55" height="3.42" transform="translate(556.62 137.91) rotate(-180)" fill="#231f20"/><path d="M279.58,71.16H277a.5.5,0,0,1-.5-.5V67.24a.5.5,0,0,1,.5-.5h2.54a.5.5,0,0,1,.5.5v3.42A.5.5,0,0,1,279.58,71.16Zm-2-1h1.54V67.74h-1.54Z" fill="#231f20"/><polygon points="272.9 114.8 272.9 103.99 278.31 94.89 283.72 103.99 283.72 114.8 288.92 114.8 288.92 201.31 267.7 201.31 267.7 114.8 272.9 114.8" fill="#68e1fd"/><path d="M288.91,201.77H267.7a.46.46,0,0,1-.45-.46V114.8a.45.45,0,0,1,.45-.45h4.75V104a.46.46,0,0,1,.06-.23l5.41-9.1a.47.47,0,0,1,.78,0l5.41,9.1a.46.46,0,0,1,.06.23v10.36h4.74a.45.45,0,0,1,.46.45v86.51A.46.46,0,0,1,288.91,201.77Zm-20.75-.92h20.3V115.26h-4.74a.46.46,0,0,1-.46-.46V104.11l-4.95-8.33-4.95,8.33V114.8a.47.47,0,0,1-.46.46h-4.74Z" fill="#231f20"/><line x1="288.91" y1="122.73" x2="267.7" y2="122.73" fill="#fff"/><path d="M288.91,123.18H267.7a.46.46,0,0,1,0-.91h21.21a.46.46,0,1,1,0,.91Z" fill="#231f20"/><path d="M282.06,139.67h3.35V128.83c0-.93-1.68-2.43-1.68-2.43s-1.67,1.5-1.67,2.43Z" fill="#231f20"/><path d="M276.63,139.67H280V128.83c0-.93-1.68-2.43-1.68-2.43s-1.68,1.5-1.68,2.43Z" fill="#231f20"/><path d="M271.21,139.67h3.35V128.83c0-.93-1.67-2.43-1.67-2.43s-1.68,1.5-1.68,2.43Z" fill="#231f20"/><path d="M282.06,160h3.35V149.11c0-.92-1.68-2.43-1.68-2.43s-1.67,1.51-1.67,2.43Z" fill="#231f20"/><path d="M276.63,160H280V149.11c0-.92-1.68-2.43-1.68-2.43s-1.68,1.51-1.68,2.43Z" fill="#231f20"/><path d="M271.21,160h3.35V149.11c0-.92-1.67-2.43-1.67-2.43s-1.68,1.51-1.68,2.43Z" fill="#231f20"/><path d="M282.06,180.25h3.35V169.4c0-.93-1.68-2.43-1.68-2.43s-1.67,1.5-1.67,2.43Z" fill="#231f20"/><path d="M276.63,180.25H280V169.4c0-.93-1.68-2.43-1.68-2.43s-1.68,1.5-1.68,2.43Z" fill="#231f20"/><path d="M271.21,180.25h3.35V169.4c0-.93-1.67-2.43-1.67-2.43s-1.68,1.5-1.68,2.43Z" fill="#231f20"/><line x1="287.33" y1="143.58" x2="269.29" y2="143.58" fill="#fff"/><path d="M287.33,144h-18a.47.47,0,0,1-.46-.46.46.46,0,0,1,.46-.45h18a.46.46,0,0,1,.46.45A.47.47,0,0,1,287.33,144Z" fill="#231f20"/><line x1="287.33" y1="164.21" x2="269.29" y2="164.21" fill="#fff"/><path d="M287.33,164.67h-18a.46.46,0,1,1,0-.91h18a.46.46,0,1,1,0,.91Z" fill="#231f20"/><line x1="288.16" y1="185.79" x2="268.46" y2="185.79" fill="#fff"/><path d="M288.16,186.24h-19.7a.46.46,0,0,1-.46-.45.47.47,0,0,1,.46-.46h19.7a.47.47,0,0,1,.46.46A.46.46,0,0,1,288.16,186.24Z" fill="#231f20"/><polygon points="292.44 81.19 287.38 100.46 297.5 100.46 292.44 81.19" fill="#231f20"/><path d="M297.5,101H287.38a.5.5,0,0,1-.39-.2.48.48,0,0,1-.09-.43L292,81.06a.52.52,0,0,1,1,0L298,100.33a.5.5,0,0,1-.08.43A.52.52,0,0,1,297.5,101ZM288,100h8.82l-4.41-16.81Z" fill="#231f20"/><polygon points="295.68 100.46 295.47 132.58 293.54 137.72 293.54 201.31 287.33 201.31 287.33 137.07 288.84 133.7 288.84 100.46 295.68 100.46" fill="#68e1fd"/><path d="M293.54,201.77h-6.21a.47.47,0,0,1-.46-.46V137.07a.53.53,0,0,1,0-.18l1.47-3.29V100.46a.46.46,0,0,1,.46-.46h6.84a.46.46,0,0,1,.32.13.47.47,0,0,1,.14.33l-.22,32.12a.45.45,0,0,1,0,.16L294,137.8v63.51A.47.47,0,0,1,293.54,201.77Zm-5.75-.92h5.29V137.71a.5.5,0,0,1,0-.16l1.9-5.06.21-31.58H289.3V133.7a.65.65,0,0,1,0,.19l-1.47,3.28Z" fill="#231f20"/><line x1="295.54" y1="121.34" x2="288.84" y2="121.34" fill="#fff"/><path d="M295.54,121.79h-6.7a.46.46,0,1,1,0-.91h6.7a.46.46,0,1,1,0,.91Z" fill="#231f20"/><line x1="293.54" y1="137.72" x2="287.33" y2="137.72" fill="#fff"/><path d="M293.54,138.17h-6.21a.46.46,0,1,1,0-.91h6.21a.46.46,0,1,1,0,.91Z" fill="#231f20"/><polygon points="264.18 81.19 269.24 100.46 259.12 100.46 264.18 81.19" fill="#231f20"/><path d="M269.24,101H259.12a.52.52,0,0,1-.4-.2.51.51,0,0,1-.09-.43l5.06-19.27a.52.52,0,0,1,1,0l5.06,19.27a.48.48,0,0,1-.09.43A.5.5,0,0,1,269.24,101Zm-9.47-1h8.82l-4.41-16.81Z" fill="#231f20"/><polygon points="260.94 100.46 261.15 132.58 263.08 137.72 263.08 201.31 269.29 201.31 269.29 137.07 267.78 133.7 267.78 100.46 260.94 100.46" fill="#68e1fd"/><path d="M269.29,201.77h-6.21a.47.47,0,0,1-.46-.46V137.8l-1.9-5.06a.88.88,0,0,1,0-.16l-.22-32.12a.44.44,0,0,1,.46-.46h6.84a.46.46,0,0,1,.46.46V133.6l1.47,3.29a.53.53,0,0,1,0,.18v64.24A.47.47,0,0,1,269.29,201.77Zm-5.75-.92h5.29V137.17l-1.47-3.28a.43.43,0,0,1,0-.19V100.91H261.4l.21,31.58,1.9,5.06a.5.5,0,0,1,0,.16Z" fill="#231f20"/><line x1="261.08" y1="121.34" x2="267.78" y2="121.34" fill="#fff"/><path d="M267.78,121.79h-6.7a.46.46,0,1,1,0-.91h6.7a.46.46,0,1,1,0,.91Z" fill="#231f20"/><path d="M269.29,138.17h-6.21a.46.46,0,1,1,0-.91h6.21a.46.46,0,1,1,0,.91Z" fill="#231f20"/><line x1="292.44" y1="81.98" x2="292.44" y2="77.49" fill="#fff"/><path d="M292.44,82.44A.46.46,0,0,1,292,82V77.49a.46.46,0,0,1,.92,0V82A.46.46,0,0,1,292.44,82.44Z" fill="#231f20"/><line x1="264.18" y1="81.98" x2="264.18" y2="77.49" fill="#fff"/><path d="M264.18,82.44a.45.45,0,0,1-.46-.46V77.49a.46.46,0,1,1,.91,0V82A.45.45,0,0,1,264.18,82.44Z" fill="#231f20"/><rect x="256.16" y="201.31" width="44.32" height="33.28" fill="#68e1fd"/><path d="M300.49,235H256.16a.46.46,0,0,1-.46-.45V201.31a.47.47,0,0,1,.46-.46h44.33a.46.46,0,0,1,.45.46v33.28A.45.45,0,0,1,300.49,235Zm-43.87-.91H300V201.77H256.62Z" fill="#231f20"/><path d="M276.63,116.29H280V105.45c0-.93-1.68-2.43-1.68-2.43s-1.68,1.5-1.68,2.43Z" fill="#231f20"/><rect x="300.49" y="203.02" width="53.96" height="4.55" transform="translate(654.93 410.6) rotate(-180)" fill="#fff"/><path d="M354.45,208h-54a.45.45,0,0,1-.46-.45V203a.45.45,0,0,1,.46-.45h54a.45.45,0,0,1,.45.45v4.56A.45.45,0,0,1,354.45,208Zm-53.51-.91H354v-3.64H300.94Z" fill="#231f20"/><rect x="300.49" y="207.58" width="53.96" height="27.01" transform="translate(654.93 442.16) rotate(-180)" fill="#fff"/><path d="M354.45,235h-54a.45.45,0,0,1-.46-.45v-27a.45.45,0,0,1,.46-.46h54a.45.45,0,0,1,.45.46v27A.45.45,0,0,1,354.45,235Zm-53.51-.91H354V208H300.94Z" fill="#231f20"/><path d="M302,203.48a.45.45,0,0,1-.45-.46V149.53a.46.46,0,1,1,.91,0V203A.45.45,0,0,1,302,203.48Z" fill="#231f20"/><path d="M155.1,236a.51.51,0,0,1-.5-.49.5.5,0,0,1,.49-.51,18.2,18.2,0,0,0,13.52-6.69.52.52,0,0,1,.36-.19.49.49,0,0,1,.38.14,16.88,16.88,0,0,0,9.41,4.92,10.64,10.64,0,0,0,9.56-3.49.5.5,0,0,1,.68-.09,13.3,13.3,0,0,0,17.86-3,.52.52,0,0,1,.81,0c4.17,5.86,13.33,7.44,19.22,3.32a.48.48,0,0,1,.66.09,8.2,8.2,0,0,0,6.08,2.76,8.08,8.08,0,0,0,6.22-2.41.52.52,0,0,1,.43-.15.51.51,0,0,1,.37.25,4.51,4.51,0,0,0,6.3,1.32.51.51,0,0,1,.7.1.5.5,0,0,1-.11.7,5.24,5.24,0,0,1-4.22.84,5.38,5.38,0,0,1-3.18-1.94,9.68,9.68,0,0,1-13-.49c-6.13,4-15.28,2.45-19.82-3.27a14.36,14.36,0,0,1-18.48,2.93,11.74,11.74,0,0,1-10.15,3.5,17.64,17.64,0,0,1-9.6-4.82A19.17,19.17,0,0,1,155.12,236Z" fill="#d1d3d4"/><path d="M226.12,240.41a7.23,7.23,0,0,1-5.23-2,10,10,0,0,1-13.5-1.69,18.46,18.46,0,0,1-12.83,2.93.5.5,0,0,1,.15-1,17.36,17.36,0,0,0,12.5-3,.52.52,0,0,1,.38-.09.56.56,0,0,1,.33.21,9,9,0,0,0,12.7,1.59.49.49,0,0,1,.37-.12.5.5,0,0,1,.34.18,6.43,6.43,0,0,0,5.56,2,20.07,20.07,0,0,0,6.13-2,.5.5,0,0,1,.66.26.5.5,0,0,1-.25.66,20.77,20.77,0,0,1-6.45,2A8.25,8.25,0,0,1,226.12,240.41Z" fill="#d1d3d4"/><path d="M167.59,241.32a.5.5,0,0,1-.49-.43.51.51,0,0,1,.42-.57,9.13,9.13,0,0,0,5.35-2.86.52.52,0,0,1,.35-.16.47.47,0,0,1,.36.14,6.25,6.25,0,0,0,3.87,1.89,4.06,4.06,0,0,0,3.68-1.64.49.49,0,0,1,.41-.22.61.61,0,0,1,.42.21,3.68,3.68,0,0,0,4.3,1.25.5.5,0,1,1,.39.92,4.74,4.74,0,0,1-5.09-1.09,5.26,5.26,0,0,1-4.18,1.57,7.11,7.11,0,0,1-4.12-1.83,10.14,10.14,0,0,1-5.59,2.81Z" fill="#d1d3d4"/></g></svg>