<svg xmlns="http://www.w3.org/2000/svg" viewBox="0 0 400 300"><g id="_398_los_angeles_flatline" data-name="#398_los_angeles_flatline"><rect x="39.4" y="45.82" width="321.2" height="208.36" fill="#fff"/><path d="M360.6,254.68H39.4a.5.5,0,0,1-.5-.5V45.82a.5.5,0,0,1,.5-.5H360.6a.5.5,0,0,1,.5.5V254.18A.5.5,0,0,1,360.6,254.68Zm-320.7-1H360.1V46.32H39.9Z" fill="#231f20"/><path d="M39.65,120.56c16.94-1.47,33.19-7.13,49.23-12.75l8.62-3c9.82-3.44,19.65-6.88,29.08-11.25,5.51-2.54,11.26-5.48,17.29-4.85a34.12,34.12,0,0,1,8.39,2.43,90.94,90.94,0,0,0,15.23,4.36c8.74,1.6,17.69,1.43,26.56,1.26l21.64-.41c2.9-.06,5.89-.14,8.55-1.31,5.58-2.49,8.25-9.16,13.61-12.11,7.32-4,16.4.33,23,5.5S274,100,282.34,100.4c4.92.24,9.71-1.72,14.63-1.83,9.8-.22,18.11,6.64,27,10.82a52.36,52.36,0,0,0,36.14,3V45.82H39.4Z" fill="#68e1fd"/><path d="M39.65,121.05a.5.5,0,0,1-.34-.13.48.48,0,0,1-.16-.36L38.9,45.82a.51.51,0,0,1,.5-.5H360.09a.5.5,0,0,1,.5.5v66.6a.5.5,0,0,1-.37.48,53.13,53.13,0,0,1-36.49-3.06c-2.44-1.15-4.88-2.52-7.23-3.85-6.17-3.48-12.56-7.09-19.52-6.92a39,39,0,0,0-6.61.92,33.81,33.81,0,0,1-8.05.91C275,100.55,269,95.71,263.25,91c-.92-.74-1.83-1.49-2.74-2.2-4-3.15-14.18-10-22.42-5.46-2.47,1.36-4.4,3.6-6.28,5.76-2.13,2.46-4.33,5-7.37,6.36-2.79,1.24-5.95,1.3-8.74,1.35l-21.64.42c-8.77.17-17.85.34-26.66-1.27a90,90,0,0,1-15.32-4.39l-.77-.29a31.31,31.31,0,0,0-7.49-2.11c-5.48-.55-10.77,1.9-15.89,4.29l-1.14.53c-9.46,4.37-19.46,7.87-29.12,11.26l-8.62,3c-15.86,5.56-32.25,11.3-49.36,12.77Zm.25-74.73L40.15,120c16.78-1.54,32.94-7.2,48.57-12.67l8.62-3C107,101,117,97.46,126.37,93.1l1.14-.53c5.24-2.44,10.66-5,16.41-4.37a31.56,31.56,0,0,1,7.74,2.17l.77.29A89.87,89.87,0,0,0,167.58,95c8.72,1.59,17.74,1.42,26.46,1.25l21.64-.42c2.7,0,5.75-.11,8.35-1.26,2.84-1.26,4.87-3.61,7-6.11,1.93-2.22,3.92-4.53,6.54-6,8.77-4.83,19.38,2.27,23.53,5.54.91.72,1.83,1.47,2.75,2.22,5.63,4.58,11.46,9.32,18.48,9.65a32.32,32.32,0,0,0,7.82-.9,40.23,40.23,0,0,1,6.78-.93c7.26-.17,13.75,3.5,20,7.05,2.34,1.32,4.76,2.68,7.17,3.82a52.1,52.1,0,0,0,35.43,3.1V46.32Z" fill="#231f20"/><path d="M345.86,167.93c-5.86,0-13-2.27-21.44-4.94-3.38-1.07-6.88-2.18-10.61-3.24-9-2.58-12.09-1.63-16.36-.33-3.58,1.1-8,2.45-17.37,2.08-9.1-.37-37.62-6-67.81-12-35.35-7-75.43-15-79.8-13.2-7.74,3.12-16.19,1.59-21.52-.88-4.4-2-10.84.65-21,5.21-10.58,4.75-18.31,1.67-28.1-2.24L61,138c-9.59-3.82-21.12,7.58-21.24,7.7a.48.48,0,0,1-.7,0,.5.5,0,0,1,0-.71c.49-.49,12.11-12,22.31-7.92l.88.35c9.57,3.82,17.13,6.84,27.32,2.26,10.4-4.67,17-7.42,21.81-5.21,5.14,2.39,13.29,3.86,20.72.87,4.66-1.88,41.44,5.41,80.37,13.13,30.16,6,58.64,11.63,67.66,12,9.17.38,13.53-1,17-2,4.26-1.31,7.63-2.34,16.93.32,3.74,1.06,7.24,2.17,10.63,3.25,11.66,3.7,20.87,6.62,27.25,3.72l8.42-3.83a.5.5,0,0,1,.66.25.49.49,0,0,1-.24.66l-8.43,3.83A15.68,15.68,0,0,1,345.86,167.93Z" fill="#d1d3d4"/><polygon points="268.27 167.08 286.86 167.08 286.86 181.83 293.33 181.83 293.33 198.34 304.03 198.34 304.03 189.32 311.63 189.32 311.63 177.45 326.56 177.45 326.56 192.25 341.2 192.25 341.2 198.34 360.6 198.34 360.6 238.4 258.42 238.4 268.27 167.08" fill="#fff"/><path d="M360.6,238.9H258.42a.49.49,0,0,1-.38-.17.52.52,0,0,1-.12-.4L267.78,167a.5.5,0,0,1,.49-.43h18.58a.5.5,0,0,1,.5.5v14.25h6a.5.5,0,0,1,.5.5v16h9.7v-8.52a.5.5,0,0,1,.5-.5h7.1V177.45a.5.5,0,0,1,.5-.5h14.92a.5.5,0,0,1,.5.5v14.3H341.2a.5.5,0,0,1,.5.5v5.59h18.9a.5.5,0,0,1,.5.5V238.4A.5.5,0,0,1,360.6,238.9ZM259,237.9H360.1V198.84H341.2a.5.5,0,0,1-.5-.5v-5.59H326.55a.5.5,0,0,1-.5-.5V178H312.13v11.37a.5.5,0,0,1-.5.5h-7.1v8.52a.5.5,0,0,1-.5.5h-10.7a.5.5,0,0,1-.5-.5v-16h-6a.5.5,0,0,1-.5-.5V167.58H268.71Z" fill="#231f20"/><rect x="312.67" y="202.67" width="32.6" height="44.34" fill="#fff"/><path d="M345.27,247.5h-32.6a.5.5,0,0,1-.5-.5V202.67a.5.5,0,0,1,.5-.5h32.6a.5.5,0,0,1,.5.5V247A.5.5,0,0,1,345.27,247.5Zm-32.1-1h31.6V203.17h-31.6Z" fill="#231f20"/><path d="M242.46,139.3V115.36l27.78,2.54V233.06l-32,2.81Z" fill="#fff"/><path d="M238.21,236.37a.52.52,0,0,1-.35-.14.5.5,0,0,1-.15-.38L242,139.29V115.36a.48.48,0,0,1,.16-.36.45.45,0,0,1,.38-.13l27.79,2.53a.49.49,0,0,1,.45.5V233.06a.49.49,0,0,1-.45.49l-32,2.82ZM243,115.91v23.41l-4.23,96,31-2.72V118.35Zm-.5,23.39h0Z" fill="#231f20"/><path d="M264.62,123.3h-.05l-16.35-1.73a.5.5,0,1,1,.1-1l16.35,1.73a.5.5,0,0,1-.05,1Z" fill="#d1d3d4"/><path d="M264.62,126.77h-.05L248.22,125a.5.5,0,0,1,.1-1l16.35,1.74a.49.49,0,0,1,.45.55A.5.5,0,0,1,264.62,126.77Z" fill="#d1d3d4"/><path d="M264.62,130.25h-.05l-16.35-1.73a.5.5,0,0,1-.45-.55.5.5,0,0,1,.55-.44l16.35,1.73a.5.5,0,0,1,.45.55A.51.51,0,0,1,264.62,130.25Z" fill="#d1d3d4"/><path d="M264.62,133.72h-.05L248.22,132a.5.5,0,1,1,.1-1l16.35,1.73a.5.5,0,0,1-.05,1Z" fill="#d1d3d4"/><path d="M264.62,137.19h-.05l-16.35-1.73a.5.5,0,0,1,.1-1l16.35,1.73a.5.5,0,0,1-.05,1Z" fill="#d1d3d4"/><path d="M264.62,140.66h-.05l-16.35-1.73a.5.5,0,0,1,.1-1l16.35,1.74a.5.5,0,0,1-.05,1Z" fill="#d1d3d4"/><path d="M264.62,144.14h-.05l-16.35-1.73a.5.5,0,0,1-.45-.55.5.5,0,0,1,.55-.44l16.35,1.73a.5.5,0,0,1-.05,1Z" fill="#d1d3d4"/><path d="M264.62,147.61h-.05l-16.35-1.73a.5.5,0,0,1-.45-.55.5.5,0,0,1,.55-.44l16.35,1.73a.5.5,0,0,1-.05,1Z" fill="#d1d3d4"/><path d="M264.62,151.08h-.05l-16.35-1.73a.5.5,0,0,1,.1-1l16.35,1.73a.5.5,0,0,1-.05,1Z" fill="#d1d3d4"/><path d="M264.62,154.55h-.05l-16.35-1.73a.5.5,0,0,1,.1-1l16.35,1.74a.49.49,0,0,1,.45.55A.5.5,0,0,1,264.62,154.55Z" fill="#d1d3d4"/><path d="M264.62,158h-.05l-16.35-1.73a.5.5,0,1,1,.1-1L264.67,157a.5.5,0,0,1,.45.55A.51.51,0,0,1,264.62,158Z" fill="#d1d3d4"/><path d="M264.62,161.5h-.05l-16.35-1.74a.5.5,0,0,1-.45-.55.5.5,0,0,1,.55-.44l16.35,1.73a.5.5,0,0,1-.05,1Z" fill="#d1d3d4"/><path d="M264.62,165h-.05l-16.35-1.73a.5.5,0,0,1,.1-1L264.67,164a.5.5,0,0,1-.05,1Z" fill="#d1d3d4"/><path d="M264.62,168.44h-.05l-16.35-1.73a.5.5,0,0,1,.1-1l16.35,1.74a.5.5,0,0,1-.05,1Z" fill="#d1d3d4"/><path d="M264.62,171.92h-.05l-16.35-1.73a.5.5,0,1,1,.1-1l16.35,1.73a.5.5,0,0,1-.05,1Z" fill="#d1d3d4"/><path d="M264.62,175.39h-.05l-16.35-1.74a.5.5,0,0,1-.45-.55.5.5,0,0,1,.55-.44l16.35,1.73a.5.5,0,0,1-.05,1Z" fill="#d1d3d4"/><path d="M264.62,178.86h-.05l-16.35-1.73a.5.5,0,0,1,.1-1l16.35,1.73a.5.5,0,0,1-.05,1Z" fill="#d1d3d4"/><path d="M264.62,182.33h-.05l-16.35-1.73a.5.5,0,0,1-.45-.55.5.5,0,0,1,.55-.44l16.35,1.73a.5.5,0,0,1-.05,1Z" fill="#d1d3d4"/><path d="M264.62,185.81h-.05l-16.35-1.73a.5.5,0,0,1-.45-.55.5.5,0,0,1,.55-.44l16.35,1.73a.5.5,0,0,1-.05,1Z" fill="#d1d3d4"/><path d="M264.62,189.28h-.05l-16.35-1.74a.5.5,0,1,1,.1-1l16.35,1.73a.5.5,0,0,1-.05,1Z" fill="#d1d3d4"/><path d="M264.62,192.75h-.05L248.22,191a.5.5,0,0,1,.1-1l16.35,1.73a.5.5,0,0,1-.05,1Z" fill="#d1d3d4"/><path d="M264.62,196.22h-.05l-16.35-1.73a.5.5,0,0,1-.45-.55.49.49,0,0,1,.55-.44l16.35,1.73a.5.5,0,0,1-.05,1Z" fill="#d1d3d4"/><path d="M264.62,199.7h-.05L248.22,198a.5.5,0,0,1-.45-.55.5.5,0,0,1,.55-.44l16.35,1.73a.5.5,0,0,1-.05,1Z" fill="#d1d3d4"/><path d="M264.62,203.17h-.05l-16.35-1.74a.49.49,0,0,1-.45-.55.5.5,0,0,1,.55-.44l16.35,1.73a.5.5,0,0,1-.05,1Z" fill="#d1d3d4"/><path d="M264.62,206.64h-.05l-16.35-1.73a.5.5,0,0,1,.1-1l16.35,1.73a.5.5,0,0,1-.05,1Z" fill="#d1d3d4"/><path d="M264.62,210.11h-.05l-16.35-1.73a.5.5,0,0,1-.45-.55.49.49,0,0,1,.55-.44l16.35,1.73a.5.5,0,0,1-.05,1Z" fill="#d1d3d4"/><path d="M264.62,213.59h-.05l-16.35-1.73a.5.5,0,0,1-.45-.55.5.5,0,0,1,.55-.44l16.35,1.73a.5.5,0,0,1-.05,1Z" fill="#d1d3d4"/><path d="M264.62,217.06h-.05l-16.35-1.73a.5.5,0,0,1,.1-1l16.35,1.73a.5.5,0,0,1-.05,1Z" fill="#d1d3d4"/><path d="M264.62,220.53h-.05l-16.35-1.73a.5.5,0,0,1,.1-1l16.35,1.74a.49.49,0,0,1,.45.54A.5.5,0,0,1,264.62,220.53Z" fill="#d1d3d4"/><path d="M264.62,224h-.05l-16.35-1.73a.5.5,0,0,1-.45-.55.5.5,0,0,1,.55-.44L264.67,223a.5.5,0,0,1-.05,1Z" fill="#d1d3d4"/><polygon points="209.33 67.03 204.08 69.66 204.08 81.67 210.27 81.67 209.33 67.03" fill="#d1d3d4"/><path d="M210.27,82.17h-6.19a.5.5,0,0,1-.5-.5v-12a.5.5,0,0,1,.27-.45l5.26-2.63a.49.49,0,0,1,.47,0,.48.48,0,0,1,.25.4l.94,14.64a.47.47,0,0,1-.14.37A.48.48,0,0,1,210.27,82.17Zm-5.69-1h5.16l-.86-13.36L204.58,70Z" fill="#231f20"/><polygon points="207.64 79.61 201.17 82.35 201.17 103.44 210.27 102.31 207.64 79.61" fill="#d1d3d4"/><path d="M201.17,104a.51.51,0,0,1-.33-.13.48.48,0,0,1-.17-.37V82.35a.51.51,0,0,1,.3-.47l6.48-2.73a.46.46,0,0,1,.44,0,.51.51,0,0,1,.25.38l2.63,22.7a.51.51,0,0,1-.44.56l-9.1,1.13Zm.5-21.27v20.2l8.05-1-2.5-21.55Z" fill="#231f20"/><polygon points="204.08 101 195.25 105.23 195.25 189.32 219.7 162.74 204.08 101" fill="#d1d3d4"/><path d="M195.25,189.82a.57.57,0,0,1-.18,0,.51.51,0,0,1-.32-.47V105.23a.49.49,0,0,1,.29-.45l8.82-4.23a.54.54,0,0,1,.43,0,.55.55,0,0,1,.27.33l15.63,61.74a.49.49,0,0,1-.12.46l-24.45,26.58A.51.51,0,0,1,195.25,189.82Zm.5-84.28V188l23.4-25.44-15.41-60.88Z" fill="#231f20"/><polygon points="223.61 82.35 223.61 71.35 209.33 67.03 209.33 80.06 223.61 82.35" fill="#fff"/><path d="M223.61,82.85h-.08l-14.28-2.29a.51.51,0,0,1-.42-.5V67a.51.51,0,0,1,.2-.4.52.52,0,0,1,.45-.08l14.27,4.32a.49.49,0,0,1,.36.48v11a.49.49,0,0,1-.18.38A.53.53,0,0,1,223.61,82.85Zm-13.78-3.22,13.28,2.13v-10l-13.28-4Z" fill="#231f20"/><polygon points="225.15 104.45 225.15 82.61 207.64 79.61 207.64 101.93 225.15 104.45" fill="#fff"/><path d="M225.15,105h-.07l-17.51-2.52a.51.51,0,0,1-.43-.5V79.61a.5.5,0,0,1,.59-.5l17.5,3a.5.5,0,0,1,.42.49v21.85a.48.48,0,0,1-.17.37A.51.51,0,0,1,225.15,105Zm-17-3.46,16.51,2.38V83L208.14,80.2Z" fill="#231f20"/><polygon points="229.87 193.99 229.87 105.23 204.08 101 204.08 210.49 229.87 193.99" fill="#fff"/><path d="M204.08,211a.48.48,0,0,1-.24-.06.51.51,0,0,1-.26-.44V101a.52.52,0,0,1,.17-.38.55.55,0,0,1,.41-.11L230,104.74a.49.49,0,0,1,.42.49V194a.5.5,0,0,1-.23.42l-25.79,16.5A.56.56,0,0,1,204.08,211Zm.5-109.4v108l24.79-15.86V105.65ZM229.87,194h0Z" fill="#231f20"/><path d="M224.57,110.28h0l-16.35-1.73a.5.5,0,1,1,.1-1l16.35,1.73a.5.5,0,0,1-.05,1Z" fill="#d1d3d4"/><path d="M224.57,113.75h0L208.17,112a.5.5,0,1,1,.1-1l16.35,1.74a.5.5,0,0,1,.45.55A.51.51,0,0,1,224.57,113.75Z" fill="#d1d3d4"/><path d="M224.57,117.23h0l-16.35-1.73a.5.5,0,0,1-.45-.55.5.5,0,0,1,.55-.44l16.35,1.73a.5.5,0,0,1,.45.55A.51.51,0,0,1,224.57,117.23Z" fill="#d1d3d4"/><path d="M224.57,120.7h0L208.17,119a.5.5,0,1,1,.1-1l16.35,1.73a.5.5,0,0,1-.05,1Z" fill="#d1d3d4"/><path d="M224.57,124.17h0l-16.35-1.73a.5.5,0,1,1,.1-1l16.35,1.73a.5.5,0,0,1-.05,1Z" fill="#d1d3d4"/><path d="M224.57,127.64h0l-16.35-1.73a.5.5,0,0,1-.45-.55.49.49,0,0,1,.55-.44l16.35,1.73a.49.49,0,0,1,.45.55A.51.51,0,0,1,224.57,127.64Z" fill="#d1d3d4"/><path d="M224.57,131.12h0l-16.35-1.73a.5.5,0,0,1-.45-.55.5.5,0,0,1,.55-.44l16.35,1.73a.5.5,0,0,1,.45.55A.52.52,0,0,1,224.57,131.12Z" fill="#d1d3d4"/><path d="M224.57,134.59h0l-16.35-1.73a.5.5,0,0,1-.45-.55.5.5,0,0,1,.55-.44l16.35,1.73a.5.5,0,0,1-.05,1Z" fill="#d1d3d4"/><path d="M224.57,138.06h0l-16.35-1.73a.5.5,0,0,1,.1-1l16.35,1.73a.5.5,0,0,1-.05,1Z" fill="#d1d3d4"/><path d="M224.57,141.53h0l-16.35-1.73a.5.5,0,0,1,.1-1l16.35,1.74a.5.5,0,0,1,.45.55A.51.51,0,0,1,224.57,141.53Z" fill="#d1d3d4"/><path d="M224.57,145h0l-16.35-1.73a.5.5,0,1,1,.1-1L224.62,144a.5.5,0,0,1,.45.55A.51.51,0,0,1,224.57,145Z" fill="#d1d3d4"/><path d="M224.57,148.48h0l-16.35-1.74a.5.5,0,0,1-.45-.55.5.5,0,0,1,.55-.44l16.35,1.73a.5.5,0,0,1-.05,1Z" fill="#d1d3d4"/><path d="M224.57,152h0l-16.35-1.73a.5.5,0,0,1,.1-1L224.62,151a.5.5,0,0,1-.05,1Z" fill="#d1d3d4"/><path d="M224.57,155.42h0l-16.35-1.73a.5.5,0,1,1,.1-1l16.35,1.73a.5.5,0,0,1,.45.55A.51.51,0,0,1,224.57,155.42Z" fill="#d1d3d4"/><path d="M224.57,158.9h0l-16.35-1.73a.5.5,0,1,1,.1-1l16.35,1.73a.5.5,0,0,1,.45.55A.51.51,0,0,1,224.57,158.9Z" fill="#d1d3d4"/><path d="M224.57,162.37h0l-16.35-1.74a.49.49,0,0,1-.45-.55.5.5,0,0,1,.55-.44l16.35,1.73a.5.5,0,0,1-.05,1Z" fill="#d1d3d4"/><path d="M224.57,165.84h0l-16.35-1.73a.5.5,0,0,1,.1-1l16.35,1.73a.5.5,0,0,1-.05,1Z" fill="#d1d3d4"/><path d="M224.57,169.31h0l-16.35-1.73a.5.5,0,0,1,.1-1l16.35,1.74a.5.5,0,0,1,.45.55A.51.51,0,0,1,224.57,169.31Z" fill="#d1d3d4"/><path d="M224.57,172.79h0l-16.35-1.73a.5.5,0,0,1-.45-.55.5.5,0,0,1,.55-.44l16.35,1.73a.5.5,0,0,1,.45.55A.51.51,0,0,1,224.57,172.79Z" fill="#d1d3d4"/><path d="M224.57,176.26h0l-16.35-1.74a.49.49,0,0,1-.45-.55.5.5,0,0,1,.55-.44l16.35,1.73a.5.5,0,0,1-.05,1Z" fill="#d1d3d4"/><path d="M224.57,179.73h0L208.17,178a.5.5,0,0,1,.1-1l16.35,1.73a.5.5,0,0,1-.05,1Z" fill="#d1d3d4"/><path d="M224.57,183.2h0l-16.35-1.73a.5.5,0,0,1-.45-.55.49.49,0,0,1,.55-.44l16.35,1.73a.5.5,0,0,1,.45.55A.51.51,0,0,1,224.57,183.2Z" fill="#d1d3d4"/><path d="M224.57,186.68h0l-16.35-1.73a.5.5,0,0,1-.45-.55.5.5,0,0,1,.55-.44l16.35,1.73a.5.5,0,0,1-.05,1Z" fill="#d1d3d4"/><path d="M224.57,190.15h0l-16.35-1.73a.5.5,0,0,1,.1-1l16.35,1.73a.5.5,0,0,1-.05,1Z" fill="#d1d3d4"/><path d="M224.57,193.62h0l-16.35-1.73a.5.5,0,0,1,.1-1l16.35,1.73a.5.5,0,0,1-.05,1Z" fill="#d1d3d4"/><path d="M224.57,197.09h0l-16.35-1.73a.5.5,0,0,1-.45-.55.5.5,0,0,1,.55-.44l16.35,1.73a.5.5,0,0,1,.45.55A.51.51,0,0,1,224.57,197.09Z" fill="#d1d3d4"/><path d="M224.57,200.57h0l-16.35-1.73a.5.5,0,1,1,.1-1l16.35,1.73a.5.5,0,0,1-.05,1Z" fill="#d1d3d4"/><path d="M224.57,204h0l-16.35-1.73a.5.5,0,0,1,.1-1L224.62,203a.5.5,0,0,1-.05,1Z" fill="#d1d3d4"/><path d="M224.57,207.51h0l-16.35-1.73a.5.5,0,0,1,.1-1l16.35,1.73a.5.5,0,0,1-.05,1Z" fill="#d1d3d4"/><path d="M224.57,211h0l-16.35-1.73a.5.5,0,0,1-.45-.55.5.5,0,0,1,.55-.44L224.62,210a.5.5,0,0,1,.45.55A.51.51,0,0,1,224.57,211Z" fill="#d1d3d4"/><polygon points="238.21 122.69 226.6 122.69 221.53 130.62 221.53 212.22 235.33 207.02 238.21 122.69" fill="#d1d3d4"/><path d="M221.53,212.72a.47.47,0,0,1-.28-.09.49.49,0,0,1-.22-.41v-81.6a.5.5,0,0,1,.08-.27l5.07-7.93a.49.49,0,0,1,.42-.24h11.61a.52.52,0,0,1,.36.16.52.52,0,0,1,.14.36L235.83,207a.5.5,0,0,1-.32.45l-13.8,5.21A.57.57,0,0,1,221.53,212.72Zm.5-81.95V211.5l12.81-4.83,2.85-83.49H226.88Z" fill="#231f20"/><polygon points="251.38 231.32 251.38 124.09 238.21 122.69 233.92 132.35 233.92 238.4 251.38 231.32" fill="#fff"/><path d="M233.92,238.9a.57.57,0,0,1-.28-.08.51.51,0,0,1-.22-.42v-106a.65.65,0,0,1,0-.2l4.29-9.67a.49.49,0,0,1,.51-.29l13.17,1.41a.49.49,0,0,1,.45.49V231.33a.51.51,0,0,1-.31.46l-17.46,7.08A.58.58,0,0,1,233.92,238.9Zm.5-106.44v105.2L250.88,231V124.54l-12.36-1.32Zm17,98.87h0Z" fill="#231f20"/><path d="M240.68,228.35a.5.5,0,0,1-.5-.5V123.67a.5.5,0,0,1,1,0V227.85A.5.5,0,0,1,240.68,228.35Z" fill="#d1d3d4"/><polygon points="210.27 183.71 235.33 183.71 235.33 233.06 204.08 232.6 210.27 183.71" fill="#fff"/><path d="M235.33,233.56h0l-31.25-.46a.48.48,0,0,1-.37-.17.51.51,0,0,1-.12-.39l6.19-48.89a.51.51,0,0,1,.5-.44h25.06a.5.5,0,0,1,.5.5v49.35a.47.47,0,0,1-.15.35A.51.51,0,0,1,235.33,233.56Zm-30.69-1.45,30.19.44V184.21H210.71Z" fill="#231f20"/><path d="M217,240.9a.5.5,0,0,1-.5-.5V187a.51.51,0,0,1,.5-.5.5.5,0,0,1,.5.5V240.4A.5.5,0,0,1,217,240.9Z" fill="#d1d3d4"/><path d="M223.42,240.9a.5.5,0,0,1-.5-.5V187a.51.51,0,0,1,.5-.5.5.5,0,0,1,.5.5V240.4A.5.5,0,0,1,223.42,240.9Z" fill="#d1d3d4"/><path d="M229.87,240.9a.5.5,0,0,1-.5-.5V187a.5.5,0,1,1,1,0V240.4A.5.5,0,0,1,229.87,240.9Z" fill="#d1d3d4"/><polygon points="179.86 105.23 169.16 111.14 169.16 176.63 181.55 170.55 179.86 105.23" fill="#d1d3d4"/><path d="M169.16,177.13a.52.52,0,0,1-.5-.5V111.14a.51.51,0,0,1,.26-.44l10.7-5.91a.53.53,0,0,1,.49,0,.5.5,0,0,1,.25.43l1.69,65.32a.49.49,0,0,1-.28.46l-12.39,6.08A.54.54,0,0,1,169.16,177.13Zm.5-65.69v64.39L181,170.24l-1.66-64.18Z" fill="#231f20"/><polygon points="179.86 162.74 179.86 105.23 196.95 110.02 196.95 180.1 179.86 162.74" fill="#fff"/><path d="M197,180.6a.47.47,0,0,1-.35-.15l-17.09-17.36a.47.47,0,0,1-.15-.35V105.23a.51.51,0,0,1,.2-.4.49.49,0,0,1,.44-.08l17.09,4.78a.5.5,0,0,1,.36.48V180.1a.5.5,0,0,1-.31.47A.58.58,0,0,1,197,180.6Zm-16.59-18.07,16.09,16.35V110.39l-16.09-4.5Z" fill="#231f20"/><polygon points="126.14 106.64 115.1 111.7 115.1 245.73 128.01 245.73 126.14 106.64" fill="#d1d3d4"/><path d="M128,246.23H115.1a.51.51,0,0,1-.5-.5v-134a.5.5,0,0,1,.3-.45l11-5.07a.49.49,0,0,1,.47,0,.5.5,0,0,1,.23.42l1.87,139.09a.54.54,0,0,1-.14.36A.53.53,0,0,1,128,246.23Zm-12.41-1h11.91l-1.86-137.82L115.6,112Z" fill="#231f20"/><polygon points="126.14 211.35 126.14 106.64 152.93 110.3 152.93 234.53 126.14 211.35" fill="#fff"/><path d="M152.93,235a.5.5,0,0,1-.33-.12l-26.78-23.18a.49.49,0,0,1-.18-.37V106.64a.49.49,0,0,1,.18-.38.46.46,0,0,1,.39-.12L153,109.8a.51.51,0,0,1,.44.5V234.53a.5.5,0,0,1-.3.45A.46.46,0,0,1,152.93,235Zm-26.29-23.9,25.79,22.3V110.73l-25.79-3.52Z" fill="#231f20"/><polygon points="195.54 115.36 189.44 118.65 189.44 127.28 186.62 128.88 186.62 152.06 183.24 152.06 184.93 222.64 204.08 219.17 201.17 123.34 195.54 115.36" fill="#d1d3d4"/><path d="M184.93,223.14a.54.54,0,0,1-.32-.11.51.51,0,0,1-.18-.38l-1.69-70.58a.54.54,0,0,1,.14-.36.55.55,0,0,1,.36-.15h2.88V128.88a.52.52,0,0,1,.25-.44l2.57-1.45v-8.34a.51.51,0,0,1,.26-.44l6.1-3.29a.49.49,0,0,1,.64.16l5.64,8a.66.66,0,0,1,.09.28l2.91,95.82a.52.52,0,0,1-.41.51L185,223.13Zm-1.18-70.58L185.42,222l18.14-3.29-2.89-95.24-5.29-7.5L189.94,119v8.33a.51.51,0,0,1-.26.44l-2.56,1.45v22.89a.5.5,0,0,1-.5.5Zm5.69-25.28Z" fill="#231f20"/><polygon points="211.4 238.4 211.4 156.66 209.43 156 209.43 130.47 207.64 129.16 207.64 118.65 195.54 115.36 195.54 127.38 193.47 127.47 193.47 153.19 190.94 153.19 190.94 249.48 211.4 238.4" fill="#fff"/><path d="M190.94,250a.48.48,0,0,1-.26-.07.5.5,0,0,1-.24-.43V153.19a.5.5,0,0,1,.5-.5h2V127.47a.5.5,0,0,1,.48-.5l1.59-.07V115.36a.49.49,0,0,1,.19-.39.5.5,0,0,1,.44-.09l12.1,3.29a.49.49,0,0,1,.37.48v10.26l1.58,1.16a.52.52,0,0,1,.21.4v25.17l1.62.55a.49.49,0,0,1,.35.47V238.4a.48.48,0,0,1-.27.44l-20.46,11.08A.46.46,0,0,1,190.94,250Zm.5-96.29v94.95l19.46-10.53V157l-1.63-.54a.5.5,0,0,1-.34-.48V130.73l-1.58-1.17a.49.49,0,0,1-.21-.4V119L196,116v11.36a.5.5,0,0,1-.48.5L194,128v25.24a.5.5,0,0,1-.5.5Zm20,84.71h0Z" fill="#231f20"/><polygon points="119.05 235.59 119.05 151.4 88.64 151.4 88.64 174.02 79.91 177.45 79.91 189.32 67.24 189.32 67.24 170.55 51.47 170.55 51.47 153.19 39.4 153.19 39.4 232.59 119.05 235.59" fill="#fff"/><path d="M119,236.09h0l-79.65-3a.5.5,0,0,1-.48-.5v-79.4a.5.5,0,0,1,.5-.5H51.47a.5.5,0,0,1,.5.5v16.86H67.24a.5.5,0,0,1,.5.5v18.27H79.41V177.45a.5.5,0,0,1,.32-.47l8.41-3.3V151.4a.5.5,0,0,1,.5-.5H119a.5.5,0,0,1,.5.5v84.19a.48.48,0,0,1-.15.36A.5.5,0,0,1,119,236.09Zm-79.14-4,78.64,3V151.9H89.14V174a.51.51,0,0,1-.32.47l-8.41,3.3v11.53a.5.5,0,0,1-.5.5H67.24a.5.5,0,0,1-.5-.5V171.05H51.47a.5.5,0,0,1-.5-.5V153.69H39.9Z" fill="#231f20"/><polygon points="150.3 165.58 121.77 165.58 121.77 174.02 111.16 174.02 111.16 235.87 147.2 235.87 150.3 165.58" fill="#fff"/><path d="M147.2,236.37h-36a.5.5,0,0,1-.5-.5V174a.51.51,0,0,1,.5-.5h10.11v-7.94a.5.5,0,0,1,.5-.5H150.3a.49.49,0,0,1,.36.15.55.55,0,0,1,.14.37l-3.1,70.29A.5.5,0,0,1,147.2,236.37Zm-35.54-1h35.06l3.06-69.29H122.27V174a.5.5,0,0,1-.5.5H111.66Z" fill="#231f20"/><path d="M145.51,180.06H115.1a.5.5,0,1,1,0-1h30.41a.5.5,0,0,1,0,1Z" fill="#d1d3d4"/><path d="M145.51,184.94H115.1a.5.5,0,1,1,0-1h30.41a.5.5,0,0,1,0,1Z" fill="#d1d3d4"/><path d="M145.51,189.82H115.1a.5.5,0,1,1,0-1h30.41a.5.5,0,0,1,0,1Z" fill="#d1d3d4"/><path d="M145.51,194.7H115.1a.5.5,0,1,1,0-1h30.41a.5.5,0,0,1,0,1Z" fill="#d1d3d4"/><path d="M145.51,199.58H115.1a.5.5,0,0,1-.5-.5.51.51,0,0,1,.5-.5h30.41a.5.5,0,0,1,.5.5A.5.5,0,0,1,145.51,199.58Z" fill="#d1d3d4"/><path d="M145.51,204.46H115.1a.5.5,0,0,1-.5-.5.51.51,0,0,1,.5-.5h30.41a.5.5,0,0,1,.5.5A.5.5,0,0,1,145.51,204.46Z" fill="#d1d3d4"/><path d="M145.51,209.34H115.1a.5.5,0,0,1-.5-.5.51.51,0,0,1,.5-.5h30.41a.5.5,0,0,1,.5.5A.5.5,0,0,1,145.51,209.34Z" fill="#d1d3d4"/><path d="M145.51,214.22H115.1a.5.5,0,0,1-.5-.5.51.51,0,0,1,.5-.5h30.41a.5.5,0,0,1,.5.5A.5.5,0,0,1,145.51,214.22Z" fill="#d1d3d4"/><path d="M145.51,219.1H115.1a.5.5,0,0,1-.5-.5.51.51,0,0,1,.5-.5h30.41a.5.5,0,0,1,.5.5A.5.5,0,0,1,145.51,219.1Z" fill="#d1d3d4"/><polygon points="176.76 154.5 164.38 157.88 161.42 244.32 186.62 247.98 176.76 154.5" fill="#d1d3d4"/><path d="M186.62,248.48h-.07l-25.2-3.66a.49.49,0,0,1-.43-.51l3-86.44a.48.48,0,0,1,.37-.46L176.63,154a.53.53,0,0,1,.42.07.47.47,0,0,1,.21.36l9.86,93.48a.53.53,0,0,1-.15.41A.52.52,0,0,1,186.62,248.48Zm-24.68-4.59,24.12,3.5-9.73-92.25-11.47,3.13Z" fill="#231f20"/><polygon points="176.76 239.25 176.76 154.5 193.09 156.66 193.09 238.4 176.76 239.25" fill="#fff"/><path d="M176.76,239.75a.49.49,0,0,1-.34-.14.48.48,0,0,1-.16-.36V154.5a.53.53,0,0,1,.18-.38.54.54,0,0,1,.39-.12l16.33,2.16a.51.51,0,0,1,.44.5V238.4a.5.5,0,0,1-.48.5l-16.33.85Zm.5-84.68v83.65l15.34-.79V157.1Z" fill="#231f20"/><path d="M181.15,247.72a.51.51,0,0,1-.5-.5v-89a.5.5,0,0,1,.5-.5.5.5,0,0,1,.5.5v89A.5.5,0,0,1,181.15,247.72Z" fill="#d1d3d4"/><path d="M184.93,247.72a.5.5,0,0,1-.5-.5v-89a.5.5,0,1,1,1,0v89A.5.5,0,0,1,184.93,247.72Z" fill="#d1d3d4"/><path d="M188.71,249.24a.5.5,0,0,1-.5-.5v-89a.5.5,0,0,1,.5-.5.5.5,0,0,1,.5.5v89A.5.5,0,0,1,188.71,249.24Z" fill="#d1d3d4"/><polygon points="164.94 191.39 183.24 191.39 183.24 239.53 161.42 239.53 164.94 191.39" fill="#fff"/><path d="M183.24,240H161.42a.52.52,0,0,1-.37-.16.51.51,0,0,1-.13-.37l3.52-48.15a.5.5,0,0,1,.5-.46h18.3a.5.5,0,0,1,.5.5v48.14A.5.5,0,0,1,183.24,240ZM162,239h20.78V191.89H165.4Z" fill="#231f20"/><polygon points="151.99 116.49 144.67 119.31 144.67 126.34 143.07 126.34 143.07 137.42 140.82 137.98 140.82 232.59 154.52 232.59 155.84 120.34 151.99 116.49" fill="#d1d3d4"/><path d="M154.52,233.09h-13.7a.5.5,0,0,1-.5-.5V138a.49.49,0,0,1,.38-.48l1.87-.47V126.35a.5.5,0,0,1,.5-.5h1.1v-6.54a.49.49,0,0,1,.32-.47l7.32-2.82a.5.5,0,0,1,.53.12l3.85,3.85a.51.51,0,0,1,.15.35L155,232.59A.5.5,0,0,1,154.52,233.09Zm-13.2-1H154l1.3-111.55-3.47-3.47-6.69,2.58v6.7a.51.51,0,0,1-.5.5h-1.1v10.57a.5.5,0,0,1-.38.49l-1.87.46Z" fill="#231f20"/><polygon points="148.61 230.52 148.61 137.89 150.44 137.89 150.44 126.2 151.99 126.2 151.99 116.49 162.55 116.49 162.55 126.77 165.08 126.77 165.08 137.33 166.61 137.33 166.61 238.4 148.61 230.52" fill="#fff"/><path d="M166.61,238.9a.48.48,0,0,1-.2,0l-18-7.88a.51.51,0,0,1-.3-.46V137.89a.5.5,0,0,1,.5-.5h1.33V126.2a.5.5,0,0,1,.5-.5h1.05v-9.21a.5.5,0,0,1,.5-.5h10.56a.5.5,0,0,1,.5.5v9.78h2a.5.5,0,0,1,.5.5v10.06h1a.5.5,0,0,1,.5.5V238.4a.5.5,0,0,1-.22.42A.48.48,0,0,1,166.61,238.9Zm-17.5-8.7,17,7.44V137.83h-1a.5.5,0,0,1-.5-.5V127.27h-2a.5.5,0,0,1-.5-.5V117h-9.56v9.21a.5.5,0,0,1-.5.5h-1.05v11.19a.5.5,0,0,1-.5.5h-1.33Z" fill="#231f20"/><path d="M162.59,129.38h-9.66a.5.5,0,0,1,0-1h9.66a.5.5,0,1,1,0,1Z" fill="#d1d3d4"/><path d="M162.59,132.85h-9.66a.5.5,0,0,1-.5-.5.5.5,0,0,1,.5-.5h9.66a.5.5,0,0,1,.5.5A.5.5,0,0,1,162.59,132.85Z" fill="#d1d3d4"/><path d="M162.59,136.32h-9.66a.5.5,0,0,1-.5-.5.5.5,0,0,1,.5-.5h9.66a.5.5,0,0,1,.5.5A.5.5,0,0,1,162.59,136.32Z" fill="#d1d3d4"/><path d="M162.59,139.8h-9.66a.5.5,0,0,1-.5-.5.5.5,0,0,1,.5-.5h9.66a.5.5,0,0,1,.5.5A.5.5,0,0,1,162.59,139.8Z" fill="#d1d3d4"/><path d="M162.59,143.27h-9.66a.5.5,0,0,1,0-1h9.66a.5.5,0,0,1,0,1Z" fill="#d1d3d4"/><path d="M162.59,146.74h-9.66a.5.5,0,0,1-.5-.5.5.5,0,0,1,.5-.5h9.66a.5.5,0,0,1,.5.5A.5.5,0,0,1,162.59,146.74Z" fill="#d1d3d4"/><path d="M162.59,150.21h-9.66a.5.5,0,0,1-.5-.5.5.5,0,0,1,.5-.5h9.66a.5.5,0,0,1,.5.5A.5.5,0,0,1,162.59,150.21Z" fill="#d1d3d4"/><path d="M162.59,153.69h-9.66a.5.5,0,0,1-.5-.5.5.5,0,0,1,.5-.5h9.66a.5.5,0,0,1,.5.5A.5.5,0,0,1,162.59,153.69Z" fill="#d1d3d4"/><path d="M162.59,157.16h-9.66a.5.5,0,0,1,0-1h9.66a.5.5,0,0,1,0,1Z" fill="#d1d3d4"/><path d="M162.59,160.63h-9.66a.5.5,0,0,1-.5-.5.5.5,0,0,1,.5-.5h9.66a.5.5,0,0,1,.5.5A.5.5,0,0,1,162.59,160.63Z" fill="#d1d3d4"/><path d="M162.59,164.11h-9.66a.5.5,0,0,1-.5-.5.5.5,0,0,1,.5-.5h9.66a.5.5,0,0,1,.5.5A.5.5,0,0,1,162.59,164.11Z" fill="#d1d3d4"/><path d="M162.59,167.58h-9.66a.5.5,0,0,1-.5-.5.5.5,0,0,1,.5-.5h9.66a.5.5,0,0,1,.5.5A.5.5,0,0,1,162.59,167.58Z" fill="#d1d3d4"/><path d="M162.59,171.05h-9.66a.5.5,0,0,1,0-1h9.66a.5.5,0,0,1,0,1Z" fill="#d1d3d4"/><path d="M162.59,174.52h-9.66a.5.5,0,0,1-.5-.5.5.5,0,0,1,.5-.5h9.66a.5.5,0,0,1,.5.5A.5.5,0,0,1,162.59,174.52Z" fill="#d1d3d4"/><path d="M162.59,178h-9.66a.5.5,0,0,1-.5-.5.5.5,0,0,1,.5-.5h9.66a.5.5,0,0,1,.5.5A.5.5,0,0,1,162.59,178Z" fill="#d1d3d4"/><path d="M162.59,181.47h-9.66a.5.5,0,0,1-.5-.5.5.5,0,0,1,.5-.5h9.66a.5.5,0,0,1,.5.5A.5.5,0,0,1,162.59,181.47Z" fill="#d1d3d4"/><path d="M162.59,184.94h-9.66a.5.5,0,0,1,0-1h9.66a.5.5,0,0,1,0,1Z" fill="#d1d3d4"/><path d="M162.59,188.41h-9.66a.5.5,0,0,1-.5-.5.5.5,0,0,1,.5-.5h9.66a.5.5,0,0,1,.5.5A.5.5,0,0,1,162.59,188.41Z" fill="#d1d3d4"/><path d="M162.59,191.89h-9.66a.5.5,0,0,1-.5-.5.5.5,0,0,1,.5-.5h9.66a.5.5,0,0,1,.5.5A.5.5,0,0,1,162.59,191.89Z" fill="#d1d3d4"/><path d="M162.59,195.36h-9.66a.5.5,0,0,1-.5-.5.5.5,0,0,1,.5-.5h9.66a.5.5,0,0,1,.5.5A.5.5,0,0,1,162.59,195.36Z" fill="#d1d3d4"/><path d="M162.59,198.83h-9.66a.5.5,0,0,1,0-1h9.66a.5.5,0,0,1,0,1Z" fill="#d1d3d4"/><path d="M162.59,202.3h-9.66a.5.5,0,0,1-.5-.5.5.5,0,0,1,.5-.5h9.66a.5.5,0,0,1,.5.5A.5.5,0,0,1,162.59,202.3Z" fill="#d1d3d4"/><path d="M162.59,205.78h-9.66a.5.5,0,0,1-.5-.5.5.5,0,0,1,.5-.5h9.66a.5.5,0,0,1,.5.5A.5.5,0,0,1,162.59,205.78Z" fill="#d1d3d4"/><path d="M162.59,209.25h-9.66a.5.5,0,0,1-.5-.5.5.5,0,0,1,.5-.5h9.66a.5.5,0,0,1,.5.5A.5.5,0,0,1,162.59,209.25Z" fill="#d1d3d4"/><path d="M162.59,212.72h-9.66a.5.5,0,0,1,0-1h9.66a.5.5,0,0,1,0,1Z" fill="#d1d3d4"/><path d="M162.59,216.19h-9.66a.5.5,0,0,1-.5-.5.5.5,0,0,1,.5-.5h9.66a.5.5,0,0,1,.5.5A.5.5,0,0,1,162.59,216.19Z" fill="#d1d3d4"/><path d="M162.59,219.67h-9.66a.5.5,0,0,1-.5-.5.5.5,0,0,1,.5-.5h9.66a.5.5,0,0,1,.5.5A.5.5,0,0,1,162.59,219.67Z" fill="#d1d3d4"/><path d="M162.59,223.14h-9.66a.5.5,0,0,1,0-1h9.66a.5.5,0,1,1,0,1Z" fill="#d1d3d4"/><path d="M162.59,226.61h-9.66a.5.5,0,0,1,0-1h9.66a.5.5,0,1,1,0,1Z" fill="#d1d3d4"/><path d="M162.59,230.08h-9.66a.5.5,0,0,1-.5-.5.5.5,0,0,1,.5-.5h9.66a.5.5,0,0,1,.5.5A.5.5,0,0,1,162.59,230.08Z" fill="#d1d3d4"/><path d="M206.62,132.85h-.09l-9.67-1.73a.5.5,0,0,1,.18-1l9.67,1.73a.5.5,0,0,1-.09,1Z" fill="#d1d3d4"/><path d="M206.62,136.32h-.09l-9.67-1.74a.49.49,0,0,1-.4-.58.51.51,0,0,1,.58-.4l9.67,1.73a.5.5,0,0,1-.09,1Z" fill="#d1d3d4"/><path d="M206.62,139.8h-.09l-9.67-1.73a.5.5,0,0,1-.4-.58.51.51,0,0,1,.58-.41l9.67,1.73a.5.5,0,0,1,.4.58A.49.49,0,0,1,206.62,139.8Z" fill="#d1d3d4"/><path d="M206.62,143.27h-.09l-9.67-1.73a.5.5,0,0,1,.18-1l9.67,1.73a.5.5,0,0,1-.09,1Z" fill="#d1d3d4"/><path d="M206.62,146.74h-.09L196.86,145a.5.5,0,0,1,.18-1l9.67,1.73a.5.5,0,0,1-.09,1Z" fill="#d1d3d4"/><path d="M206.62,150.21h-.09l-9.67-1.73a.5.5,0,0,1,.18-1l9.67,1.73a.5.5,0,0,1-.09,1Z" fill="#d1d3d4"/><path d="M206.62,153.69h-.09L196.86,152a.5.5,0,0,1-.4-.58A.51.51,0,0,1,197,151l9.67,1.74a.49.49,0,0,1,.4.58A.49.49,0,0,1,206.62,153.69Z" fill="#d1d3d4"/><path d="M206.62,157.16h-.09l-9.67-1.73a.5.5,0,1,1,.18-1l9.67,1.73a.5.5,0,0,1-.09,1Z" fill="#d1d3d4"/><path d="M206.62,160.63h-.09l-9.67-1.73a.5.5,0,1,1,.18-1l9.67,1.73a.5.5,0,0,1-.09,1Z" fill="#d1d3d4"/><path d="M206.62,164.11h-.09l-9.67-1.73a.5.5,0,0,1-.4-.58.51.51,0,0,1,.58-.41l9.67,1.73a.5.5,0,0,1,.4.58A.49.49,0,0,1,206.62,164.11Z" fill="#d1d3d4"/><path d="M206.62,167.58h-.09l-9.67-1.73a.5.5,0,0,1-.4-.58.51.51,0,0,1,.58-.41l9.67,1.73a.5.5,0,0,1,.4.59A.49.49,0,0,1,206.62,167.58Z" fill="#d1d3d4"/><path d="M206.62,171.05h-.09l-9.67-1.73a.5.5,0,0,1,.18-1l9.67,1.73a.5.5,0,0,1-.09,1Z" fill="#d1d3d4"/><path d="M206.62,174.52h-.09l-9.67-1.73a.5.5,0,0,1,.18-1l9.67,1.73a.5.5,0,0,1-.09,1Z" fill="#d1d3d4"/><path d="M206.62,178h-.09l-9.67-1.73a.5.5,0,0,1-.4-.58.51.51,0,0,1,.58-.41l9.67,1.73a.5.5,0,0,1,.4.58A.49.49,0,0,1,206.62,178Z" fill="#d1d3d4"/><path d="M206.62,181.47h-.09l-9.67-1.73a.5.5,0,0,1-.4-.58.51.51,0,0,1,.58-.41l9.67,1.74a.49.49,0,0,1,.4.58A.49.49,0,0,1,206.62,181.47Z" fill="#d1d3d4"/><path d="M206.62,184.94h-.09l-9.67-1.73a.5.5,0,1,1,.18-1l9.67,1.73a.5.5,0,0,1-.09,1Z" fill="#d1d3d4"/><path d="M206.62,188.41h-.09l-9.67-1.74a.49.49,0,0,1-.4-.58.5.5,0,0,1,.58-.4l9.67,1.73a.5.5,0,0,1-.09,1Z" fill="#d1d3d4"/><path d="M206.62,191.89h-.09l-9.67-1.73a.5.5,0,0,1-.4-.58.51.51,0,0,1,.58-.41l9.67,1.73a.5.5,0,0,1,.4.58A.49.49,0,0,1,206.62,191.89Z" fill="#d1d3d4"/><path d="M206.62,195.36h-.09l-9.67-1.73a.5.5,0,0,1-.4-.58.51.51,0,0,1,.58-.41l9.67,1.74a.5.5,0,0,1-.09,1Z" fill="#d1d3d4"/><path d="M206.62,198.83h-.09l-9.67-1.73a.5.5,0,0,1,.18-1l9.67,1.73a.5.5,0,0,1-.09,1Z" fill="#d1d3d4"/><path d="M206.62,202.3h-.09l-9.67-1.74a.49.49,0,0,1-.4-.58.51.51,0,0,1,.58-.4l9.67,1.73a.5.5,0,0,1-.09,1Z" fill="#d1d3d4"/><path d="M206.62,205.78h-.09L196.86,204a.5.5,0,0,1-.4-.58.51.51,0,0,1,.58-.41l9.67,1.73a.5.5,0,0,1,.4.58A.49.49,0,0,1,206.62,205.78Z" fill="#d1d3d4"/><path d="M206.62,209.25h-.09l-9.67-1.73a.5.5,0,0,1-.4-.58.51.51,0,0,1,.58-.41l9.67,1.74a.49.49,0,0,1,.4.58A.49.49,0,0,1,206.62,209.25Z" fill="#d1d3d4"/><path d="M206.62,212.72h-.09L196.86,211a.5.5,0,1,1,.18-1l9.67,1.73a.5.5,0,0,1-.09,1Z" fill="#d1d3d4"/><path d="M206.62,216.19h-.09l-9.67-1.74a.49.49,0,0,1-.4-.58.5.5,0,0,1,.58-.4l9.67,1.73a.5.5,0,0,1-.09,1Z" fill="#d1d3d4"/><path d="M206.62,219.67h-.09l-9.67-1.73a.5.5,0,0,1-.4-.58.51.51,0,0,1,.58-.41l9.67,1.73a.5.5,0,0,1,.4.58A.49.49,0,0,1,206.62,219.67Z" fill="#d1d3d4"/><path d="M206.62,223.14h-.09l-9.67-1.73a.5.5,0,0,1,.18-1l9.67,1.73a.5.5,0,0,1-.09,1Z" fill="#d1d3d4"/><path d="M206.62,226.61h-.09l-9.67-1.73a.5.5,0,0,1,.18-1l9.67,1.73a.5.5,0,0,1-.09,1Z" fill="#d1d3d4"/><path d="M206.62,230.08h-.09l-9.67-1.74a.49.49,0,0,1-.4-.58.5.5,0,0,1,.58-.4l9.67,1.73a.5.5,0,0,1-.09,1Z" fill="#d1d3d4"/><path d="M206.62,233.56h-.09l-9.67-1.73a.5.5,0,0,1-.4-.58.51.51,0,0,1,.58-.41l9.67,1.73a.5.5,0,0,1,.4.58A.49.49,0,0,1,206.62,233.56Z" fill="#d1d3d4"/><polygon points="39.4 216.07 53.72 216.07 53.72 209.31 73.25 209.31 73.25 216.07 96.9 216.07 96.9 220.95 116.04 220.95 116.04 217.01 134.06 217.01 134.06 220.95 147.2 220.95 147.2 225.08 160.72 225.08 160.72 228.46 174.23 228.46 174.23 230.52 187.75 230.52 187.75 224.33 211.77 224.33 211.77 228.83 226.6 228.83 226.6 223.58 249.69 223.58 249.69 216.73 270.52 216.73 270.52 221.23 283.76 221.23 283.76 214.47 317.55 214.47 317.55 229.12 327.96 229.12 327.96 219.92 335.28 219.92 335.28 211.94 360.6 211.94 360.6 254.18 39.4 254.18 39.4 216.07" fill="#231f20"/><path d="M360.6,254.68H39.4a.5.5,0,0,1-.5-.5V216.07a.5.5,0,0,1,.5-.5H53.23v-6.26a.5.5,0,0,1,.49-.5H73.24a.5.5,0,0,1,.5.5v6.26H96.9a.49.49,0,0,1,.49.5v4.38h18.15V217a.5.5,0,0,1,.5-.5h18a.5.5,0,0,1,.5.5v3.44H147.2a.5.5,0,0,1,.5.5v3.63h13a.49.49,0,0,1,.49.5V228h13a.5.5,0,0,1,.5.5V230h12.52v-5.69a.5.5,0,0,1,.5-.5h24a.5.5,0,0,1,.5.5v4H226.1v-4.75a.5.5,0,0,1,.5-.5h22.59v-6.35a.5.5,0,0,1,.5-.5h20.83a.5.5,0,0,1,.5.5v4h12.24v-6.26a.49.49,0,0,1,.5-.49h33.78a.49.49,0,0,1,.5.49v14.15h9.42v-8.7a.5.5,0,0,1,.5-.5h6.83v-7.48a.5.5,0,0,1,.49-.5H360.6a.5.5,0,0,1,.5.5v42.24A.5.5,0,0,1,360.6,254.68Zm-320.7-1H360.1V212.44H335.78v7.48a.5.5,0,0,1-.5.5h-6.82v8.69a.5.5,0,0,1-.5.5H317.54a.49.49,0,0,1-.49-.5V215H284.26v6.26a.5.5,0,0,1-.5.5H270.52a.49.49,0,0,1-.49-.5v-4H250.19v6.36a.51.51,0,0,1-.5.5H227.1v4.75a.5.5,0,0,1-.5.5H211.77a.5.5,0,0,1-.5-.5v-4h-23v5.69a.49.49,0,0,1-.49.5H174.23a.5.5,0,0,1-.5-.5V229h-13a.5.5,0,0,1-.5-.5v-2.88h-13a.51.51,0,0,1-.5-.5v-3.63H134.06a.51.51,0,0,1-.5-.5v-3.44h-17V221a.5.5,0,0,1-.5.5H96.9a.5.5,0,0,1-.5-.5v-4.38H73.24a.5.5,0,0,1-.49-.5v-6.26H54.22v6.26a.5.5,0,0,1-.5.5H39.9Z" fill="#231f20"/><path d="M57.1,179.74H49.78a.5.5,0,0,1-.5-.5.5.5,0,0,1,.5-.5H57.1a.5.5,0,0,1,.5.5A.5.5,0,0,1,57.1,179.74Z" fill="#d1d3d4"/><path d="M61.17,183.8H53.85a.5.5,0,0,1-.5-.5.5.5,0,0,1,.5-.5h7.32a.5.5,0,0,1,.5.5A.5.5,0,0,1,61.17,183.8Z" fill="#d1d3d4"/><path d="M97.65,209.81a.5.5,0,0,1-.5-.5V156.66a.5.5,0,0,1,.5-.5.5.5,0,0,1,.5.5v52.65A.5.5,0,0,1,97.65,209.81Z" fill="#d1d3d4"/><path d="M104.4,209.81a.5.5,0,0,1-.5-.5V156.66a.5.5,0,0,1,.5-.5.5.5,0,0,1,.5.5v52.65A.5.5,0,0,1,104.4,209.81Z" fill="#d1d3d4"/><path d="M279.53,201.22a.5.5,0,0,1-.5-.5V174a.5.5,0,0,1,.5-.5.5.5,0,0,1,.5.5v26.69A.5.5,0,0,1,279.53,201.22Z" fill="#d1d3d4"/><path d="M360.6,254.68H39.4a.5.5,0,0,1-.5-.5V45.82a.5.5,0,0,1,.5-.5H360.6a.5.5,0,0,1,.5.5V254.18A.5.5,0,0,1,360.6,254.68Zm-320.7-1H360.1V46.32H39.9Z" fill="#231f20"/><path d="M61.17,197.09H53.44a.5.5,0,0,1-.5-.5.51.51,0,0,1,.5-.5h7.73a.5.5,0,0,1,.5.5A.5.5,0,0,1,61.17,197.09Z" fill="#d1d3d4"/><circle cx="84.31" cy="74.35" r="17.3" fill="#fff"/></g></svg>