<svg xmlns="http://www.w3.org/2000/svg" viewBox="0 0 400 300"><g id="_44_lunch_break" data-name="#44_lunch_break"><path d="M354.25,226.35H45a.5.5,0,0,1-.5-.5.5.5,0,0,1,.5-.5H354.25a.51.51,0,0,1,.5.5A.5.5,0,0,1,354.25,226.35Z" fill="#d1d3d4"/><path d="M330.81,170.22a11.66,11.66,0,0,0-1.34-6.33c-.85-1.41-2.15-2.52-2.84-4-1.21-2.57-.36-5.6-.65-8.42a10.44,10.44,0,0,0-3-6.28c-1.47-1.5-3.38-2.52-4.79-4.08-2.31-2.55-3-6.14-4.29-9.33a23.27,23.27,0,0,0-9.25-10.88c2.53,5.07-3.22,11.52-.62,16.55.83,1.6,2.41,2.76,3,4.46,1.46,4.08-3.41,8.5-1.85,12.55.78,2,2.95,3.19,3.95,5.11,1.36,2.58.29,5.72.4,8.64.16,4,2.61,7.62,5.52,10.41,1.81,1.74,3.83,3.24,5.79,4.81,2.34,1.87,3.33,3.85,5.39.83A25.88,25.88,0,0,0,330.81,170.22Z" fill="#231f20"/><path d="M333.43,172.52c-.76-3.11-1.29-6.49,0-9.43,1.43-3.32,5-5.67,5.43-9.27.27-2.36-.92-4.74-.45-7.07s2.37-3.91,3.94-5.63a23.58,23.58,0,0,0,6.08-14.39c2.26,3,4.55,6,5.79,9.57s1.25,7.71-.85,10.81a9.89,9.89,0,0,0-1.46,2.4c-.71,2.29,1.25,4.43,2.27,6.61a7.6,7.6,0,0,1-.72,7.8c-2.06,2.57-6,3.57-7,6.7a16.08,16.08,0,0,0-.35,3.55,10.42,10.42,0,0,1-7.5,8.94c-2.43.59-2.38-.38-2.82-2.43C335.14,177.93,334.09,175.27,333.43,172.52Z" fill="#231f20"/><path d="M325.68,150.12c-1.73-6-2.43-12.23-4.25-18.19a100.43,100.43,0,0,0-5.66-13.57l7.42,3.13c2.38,1,5,2.19,6.08,4.52,2,4-1.55,9.24.5,13.24.72,1.4,2,2.41,2.94,3.69,2.18,3.07,1.85,7.29.65,10.86-.52,1.53-2.77,9.48-4.78,7.27-.8-.88-.87-4.17-1.21-5.38C326.85,153.82,326.21,152,325.68,150.12Z" fill="#231f20"/><path d="M329.87,229.6c-1.47-9.78-6.11-44.25-6.16-44.6l1-.13c.05.35,4.68,34.81,6.16,44.58Z" fill="#231f20"/><path d="M331.33,238.86h-1c.09-12.37,5.12-56.15,7.69-58.95l.73.67C336.54,183,331.43,225.53,331.33,238.86Z" fill="#231f20"/><path d="M333.85,236.64l-1,0c1.11-25-4.2-77.65-4.26-78.18l1-.1C329.64,158.85,335,211.52,333.85,236.64Z" fill="#231f20"/><path d="M317,201.6h27.63L342.71,233c-.33,5.43-4.35,9.64-9.21,9.64h-5.34c-4.85,0-8.88-4.21-9.21-9.64Z" fill="#fff"/><path d="M333.5,243.13h-5.34c-5.1,0-9.38-4.44-9.72-10.12l-1.94-31.38a.51.51,0,0,1,.52-.55h27.63a.51.51,0,0,1,.37.16.52.52,0,0,1,.14.39L343.23,233C342.88,238.69,338.61,243.13,333.5,243.13Zm-15.93-41,1.89,30.83c.32,5.14,4.14,9.16,8.7,9.16h5.34c4.56,0,8.38-4,8.7-9.16l1.9-30.83Z" fill="#231f20"/><polygon points="197.44 169.77 170.39 242.67 174.82 242.67 208.65 169.77 197.44 169.77" fill="#fff"/><path d="M174.82,243.17h-4.43a.5.5,0,0,1-.47-.67L197,169.59a.5.5,0,0,1,.47-.32h11.21a.48.48,0,0,1,.42.23.46.46,0,0,1,0,.48l-33.83,72.9A.49.49,0,0,1,174.82,243.17Zm-3.71-1h3.39l33.37-71.9H197.79Z" fill="#d1d3d4"/><path d="M204.62,233.82s11.81,10.92,13.28,10.92,26-21.75,23-23.86-24.86,7-24.86,7Z" fill="#231f20"/><rect x="98.8" y="201.94" width="3.79" height="33.75" transform="translate(201.39 437.63) rotate(-180)" fill="#231f20"/><path d="M102.59,236.19H98.8a.5.5,0,0,1-.5-.5V201.94a.5.5,0,0,1,.5-.5h3.79a.5.5,0,0,1,.5.5v33.75A.5.5,0,0,1,102.59,236.19Zm-3.29-1h2.79V202.43H99.3Z" fill="#231f20"/><polygon points="100.69 232.25 75.8 245.31 125.59 245.31 100.69 232.25" fill="#231f20"/><path d="M125.59,245.81H75.8a.5.5,0,0,1-.23-.94l24.89-13.06a.49.49,0,0,1,.47,0l24.89,13.06a.5.5,0,0,1-.23.94Zm-47.77-1h45.75l-22.87-12Z" fill="#231f20"/><path d="M148.44,180s-4.93,16.31-22.78,20.84S90,209.78,67.87,196s-20.66-35.81-17.39-46.88,11.32-28.91,24.89-31.93,21.52,3.35,27.16,7.3S149.59,159.69,148.44,180Z" fill="#fff"/><path d="M98.81,205.81c-9.63,0-19.87-2.33-31.22-9.42C42.82,180.91,47.86,156.15,50,148.93c2-6.7,9.65-28.82,25.27-32.29,13-2.9,20.87,2.64,26.58,6.68l1,.69c.48.33,47.38,34.13,46.13,56.05a.5.5,0,0,1,0,.12c-.05.17-5.22,16.64-23.14,21.19C117.09,203.57,108.25,205.81,98.81,205.81ZM82.23,116.87a31,31,0,0,0-6.74.78C60.41,121,52.92,142.66,51,149.22c-2.08,7-7,31.2,17.16,46.3,22.09,13.8,40,9.25,57.39,4.85,16.85-4.27,22.06-19.39,22.4-20.43.43-8.29-6.58-19.87-20.26-33.49a224.9,224.9,0,0,0-25.44-21.59l-1-.69C96.76,121,90.93,116.87,82.23,116.87ZM148.44,180h0Z" fill="#231f20"/><path d="M99.26,193.58c-20.69-1-26.65-12.32-29.67-21.88s-2.26-39.47,3.77-44,26.15-4.77,29.17-3.26,47.52,35.19,48.52,41S154.82,196.34,99.26,193.58Z" fill="#231f20"/><path d="M97.76,169.3c.83-1.1,31.23-17.25,31.23-16.42s87.07,75,87.07,75l-11.55,12.66Z" fill="#fff"/><path d="M204.51,241a.51.51,0,0,1-.29-.08L97.48,169.73a.51.51,0,0,1-.22-.35.49.49,0,0,1,.09-.39c.67-.89,13.23-7.56,15.74-8.89,15.15-8,15.77-7.83,16-7.74a.51.51,0,0,1,.3.26c1.63,2,57.55,49.79,87,74.84a.54.54,0,0,1,.18.36.5.5,0,0,1-.14.38l-11.55,12.66A.51.51,0,0,1,204.51,241ZM98.65,169.27l105.77,70.56,10.9-11.93c-72.65-61.87-84.53-72.5-86.47-74.52C126.53,154.05,102.54,166.7,98.65,169.27Zm30-16.07,0,.05a.47.47,0,0,0,.17.09Z" fill="#231f20"/><path d="M91.81,184.45s7.33,12.37,18.89,17.73,75.93,42.56,75.93,42.56l14.54-14.38-92.23-66.27Z" fill="#fff"/><path d="M186.63,245.25a.48.48,0,0,1-.26-.07c-.65-.37-64.48-37.23-75.89-42.53-11.57-5.37-19-17.82-19.12-17.94a.53.53,0,0,1,0-.6l17.13-20.35a.52.52,0,0,1,.7-.09l92.23,66.27a.52.52,0,0,1,.06.79L187,245.1A.51.51,0,0,1,186.63,245.25ZM92.44,184.49c1.23,1.94,8.21,12.46,18.48,17.22,11,5.12,70.54,39.45,75.62,42.38l13.83-13.67L109,164.79Z" fill="#231f20"/><path d="M98.13,74.19a65.76,65.76,0,0,1-1.68-8.31,12.47,12.47,0,0,1,1.74-8.13,5.08,5.08,0,0,1,2.59-2.1,2.8,2.8,0,0,1,3.06.88,7.43,7.43,0,0,1,3.09-2.37A17.07,17.07,0,0,1,116,52.42a12.36,12.36,0,0,1,8.14,4.15,32.45,32.45,0,0,0,2.42,3,6.78,6.78,0,0,0,6.08,1.69,15.56,15.56,0,0,1-6.6,10.26,30.17,30.17,0,0,1-11.57,4.65,19.11,19.11,0,0,1-6.56.47,8.28,8.28,0,0,1-5.64-3.1" fill="#fff"/><path d="M109.71,77.31a12.79,12.79,0,0,1-1.85-.13,8.81,8.81,0,0,1-6-3.31.52.52,0,1,1,.84-.6A7.81,7.81,0,0,0,108,76.16a18.69,18.69,0,0,0,6.39-.47,29.07,29.07,0,0,0,11.36-4.55A15.2,15.2,0,0,0,132,61.92,7.3,7.3,0,0,1,126.22,60a13.46,13.46,0,0,1-1.57-1.92c-.29-.39-.57-.78-.88-1.15a11.78,11.78,0,0,0-7.81-4,16.45,16.45,0,0,0-8.81,1.68,7.16,7.16,0,0,0-2.88,2.2.52.52,0,0,1-.42.23.43.43,0,0,1-.43-.22,2.29,2.29,0,0,0-2.49-.69A4.63,4.63,0,0,0,98.62,58,12.08,12.08,0,0,0,97,65.84a41.51,41.51,0,0,0,1.15,6.06c.18.73.36,1.45.52,2.18a.52.52,0,1,1-1,.23q-.24-1.09-.51-2.16a41.64,41.64,0,0,1-1.18-6.22,13.05,13.05,0,0,1,1.83-8.48,5.61,5.61,0,0,1,2.86-2.3,3.42,3.42,0,0,1,3.17.59,8.78,8.78,0,0,1,2.91-2.05,17.47,17.47,0,0,1,9.36-1.78,12.88,12.88,0,0,1,8.49,4.33c.32.39.62.81.92,1.22a13.42,13.42,0,0,0,1.45,1.77,6.31,6.31,0,0,0,5.61,1.56.51.51,0,0,1,.47.12.52.52,0,0,1,.16.44A16,16,0,0,1,126.36,72,29.92,29.92,0,0,1,114.6,76.7,24.13,24.13,0,0,1,109.71,77.31Z" fill="#231f20"/><path d="M125.94,91.81s13.67,34.51,15,34.71,30.69-2.91,30.69-2.91l1.87,10.31s-35.24,22.06-40.88,17S125.94,91.81,125.94,91.81Z" fill="#68e1fd"/><path d="M108.94,181.5s14.12-13,25.34-18.53c0,0-9.34-68.17-12.67-69.7s-21-3.24-24.93,3.54S108.94,181.5,108.94,181.5Z" fill="#231f20"/><path d="M108.94,182a.36.36,0,0,1-.15,0,.49.49,0,0,1-.34-.37c-.66-3.19-16.24-78.16-12.2-85,4.27-7.27,22.39-5.19,25.57-3.74.69.32,2.32,1.06,7.87,35.79,2.72,17,5.06,34.12,5.08,34.29a.49.49,0,0,1-.27.51c-11,5.45-25.08,18.32-25.23,18.45A.46.46,0,0,1,108.94,182Zm2.5-89.59c-5.81,0-12.24,1.1-14.33,4.67-3,5.18,6.51,56.36,12.14,83.47,2.87-2.57,14.75-12.95,24.49-17.86-3.57-26-10-67.38-12.35-69C119.9,93,115.85,92.4,111.44,92.4Z" fill="#231f20"/><path d="M142.53,161.57l-10.85,7-12.76-71.8-18.39-2.45,12.34,90.29L94.46,198c-16.12-28.83-20.25-83.69-15.69-92.13S101,90,101,90s17.08-3.22,23.47.07S142.53,161.57,142.53,161.57Z" fill="#68e1fd"/><path d="M118.1,86.74l.82,10.07s-3,6.25-9.51,4.74a13.31,13.31,0,0,1-8.88-7.19L100.43,76s4.8-2.62,3.29-13.07a32.15,32.15,0,0,0,16.9,2.19s3.06,11.32,2.32,16.37S118.1,86.74,118.1,86.74Z" fill="#fff"/><path d="M111.39,102.3a9.29,9.29,0,0,1-2.09-.25,13.72,13.72,0,0,1-9.25-7.5.65.65,0,0,1,0-.19L99.92,76a.53.53,0,0,1,.27-.46s4.45-2.63,3-12.53a.51.51,0,0,1,.2-.49.49.49,0,0,1,.53,0,32.07,32.07,0,0,0,16.62,2.14.51.51,0,0,1,.56.38c.13.47,3.08,11.48,2.33,16.57-.62,4.28-3.58,5.34-4.8,5.6l.78,9.59a.52.52,0,0,1-.05.27S116.79,102.3,111.39,102.3Zm-10.34-8.06a12.9,12.9,0,0,0,8.48,6.81c5.61,1.3,8.41-3.49,8.86-4.34l-.81-9.93a.53.53,0,0,1,.13-.38.49.49,0,0,1,.36-.17c.17,0,3.7-.27,4.36-4.8.63-4.33-1.65-13.6-2.19-15.72a33.1,33.1,0,0,1-15.89-1.93c1,8.68-2.39,11.79-3.4,12.52Z" fill="#231f20"/><path d="M118.27,91.75a8.42,8.42,0,0,1-6.67-2.11c-2.89-2.73-2.66-4.33-2.66-4.33s4.64,2.49,8.89,1.59Z" fill="#231f20"/><path d="M117.27,92.31a8.71,8.71,0,0,1-6-2.3c-3-2.83-2.84-4.58-2.81-4.77a.49.49,0,0,1,.73-.37s4.53,2.39,8.55,1.54a.56.56,0,0,1,.4.09.49.49,0,0,1,.2.36l.44,4.84a.5.5,0,0,1-.42.54A6.91,6.91,0,0,1,117.27,92.31Zm-7.65-6.13a8.82,8.82,0,0,0,2.32,3.1,7.88,7.88,0,0,0,5.79,2l-.34-3.81A15.19,15.19,0,0,1,109.62,86.18Z" fill="#231f20"/><path d="M175.32,136.33a26.34,26.34,0,0,0-.61-10.64c-1.75-6.1-6.93-11.17-12.77-8.69-4.28,1.82-6.52,6.28-7,11.26-.43,4.79.28,10.9,2.81,14.89a9.16,9.16,0,0,0,11.6,3.2C173,144.51,174.69,140.56,175.32,136.33Z" fill="#fff"/><path d="M165.47,147.79a9.69,9.69,0,0,1-8.13-4.36c-2.75-4.35-3.29-10.71-2.88-15.22.51-5.68,3.16-9.94,7.28-11.68a7.92,7.92,0,0,1,6.68.11c3.07,1.46,5.6,4.79,6.78,8.91a26.58,26.58,0,0,1,.63,10.86c-.77,5.2-2.86,8.7-6.21,10.4A9.17,9.17,0,0,1,165.47,147.79ZM165,116.87a7.12,7.12,0,0,0-2.84.61c-3.75,1.59-6.18,5.54-6.66,10.83-.37,4.14.12,10.44,2.73,14.57a8.6,8.6,0,0,0,10.94,3c3-1.54,4.94-4.78,5.66-9.63h0a25.85,25.85,0,0,0-.6-10.42c-1.08-3.79-3.47-7-6.23-8.27A6.89,6.89,0,0,0,165,116.87Z" fill="#231f20"/><path d="M158.62,146.35c0,.7.32,1.54,1,1.69.21.05.46,0,.61.18a1,1,0,0,1,.17.44,1.87,1.87,0,0,0,2.66,1.12,1.38,1.38,0,0,1,.5-.25c.51-.08.79.55,1.19.88a1.47,1.47,0,0,0,1.62.05,3,3,0,0,0,1.11-1.29,6.69,6.69,0,0,0-.25-6.45c-1.22-2-4.53-4.05-6.91-2.88-1,.48-.85,1.21-1,2.17A19.36,19.36,0,0,0,158.62,146.35Z" fill="#231f20"/><path d="M164.6,122.33c-1.26.23-3.37.29-4.4-.56s-1.89-2.68-1-3.81c.26-.36.72-.53,1-.82,1.11-1,.7-3.25,2.09-3.79.6-.23,1.29,0,1.92-.13,1-.21,1.55-1.23,2.4-1.76a3.2,3.2,0,0,1,4,.78,4.56,4.56,0,0,1,.69,4.19,8.15,8.15,0,0,1-2.45,3.6A8.78,8.78,0,0,1,164.6,122.33Z" fill="#231f20"/><path d="M178.75,137.2a34.93,34.93,0,0,0-.62-12.32c-1.75-7.06-6.92-12.93-12.76-10.06-4.28,2.1-6.52,7.27-7,13-.43,5.54.28,12.61,2.8,17.24s7.82,5.93,11.61,3.7C176.44,146.67,178.12,142.1,178.75,137.2Z" fill="#fff"/><path d="M168.92,150.37a8.78,8.78,0,0,1-2.36-.33,9.53,9.53,0,0,1-5.81-4.7c-2.73-5-3.27-12.33-2.87-17.52.51-6.54,3.16-11.45,7.26-13.46a7,7,0,0,1,6.24-.12c3.24,1.5,6,5.54,7.26,10.52a36.09,36.09,0,0,1,.62,12.51h0c-.77,6-2.85,10-6.19,12A8.15,8.15,0,0,1,168.92,150.37Zm-.52-35.78a6.36,6.36,0,0,0-2.81.69c-3.76,1.85-6.2,6.45-6.68,12.62-.37,4.81.12,12.14,2.75,16.95a8.5,8.5,0,0,0,5.17,4.2,7.36,7.36,0,0,0,5.72-.69c3-1.79,5-5.57,5.68-11.22h0a34.64,34.64,0,0,0-.6-12.13c-1.16-4.69-3.72-8.46-6.69-9.84A6,6,0,0,0,168.4,114.59Z" fill="#231f20"/><path d="M180.74,136.33a26.33,26.33,0,0,0-.62-10.64c-1.75-6.1-6.92-11.17-12.76-8.69-4.28,1.82-6.52,6.28-7,11.26-.43,4.79.28,10.9,2.8,14.89a9.18,9.18,0,0,0,11.61,3.2C178.43,144.51,180.11,140.56,180.74,136.33Z" fill="#fff"/><path d="M170.89,147.79a9.66,9.66,0,0,1-8.13-4.36c-2.75-4.35-3.29-10.71-2.89-15.22.52-5.68,3.17-9.94,7.29-11.68a7.92,7.92,0,0,1,6.68.11c3.06,1.46,5.6,4.79,6.78,8.91a26.58,26.58,0,0,1,.63,10.86h0c-.78,5.2-2.87,8.7-6.22,10.4A9.13,9.13,0,0,1,170.89,147.79Zm-.49-30.92a7.12,7.12,0,0,0-2.84.61c-3.75,1.59-6.18,5.54-6.66,10.83-.37,4.14.12,10.44,2.73,14.57a8.72,8.72,0,0,0,10.94,3c3-1.54,4.94-4.78,5.66-9.63a26,26,0,0,0-.6-10.42c-1.09-3.79-3.47-7-6.23-8.27A6.93,6.93,0,0,0,170.4,116.87Zm10.34,19.46h0Z" fill="#231f20"/><path d="M142.17,134.26,145,133.2c1.75-.64,3.23-.95,4.58-2.18a54.39,54.39,0,0,0,4.45-5.33,2.91,2.91,0,0,1,1-.88,1,1,0,0,1,1.21.27,1.4,1.4,0,0,1-.15,1.36c-.75,1.44-1.77,2.93-1.45,4.52,4.06-1.77,8.11-3.5,12-5.64a3.42,3.42,0,0,1,2.58-.63,1,1,0,0,1,.45.28c.31.37.14.94-.08,1.37-1.2,2.36-3.81,3.44-5.9,4.94.91-.65,2-.82,3-1.49a31.86,31.86,0,0,1,3.42-2.17,2,2,0,0,1,.79-.3c2-.16-.28,2.57-.78,2.94-1.9,1.41-4.36,2.21-6.09,3.8.83-.39,1.77-.49,2.59-.89,1.39-.68,2.77-1.39,4.15-2.08.38-.19.88-.35,1.16-.05s.11.75-.09,1.09c-1.54,2.6-4.42,4-7.15,5.33l6.09-1.83a1.22,1.22,0,0,1,1,0c1.85,1.3-2.19,3.32-3.12,3.74a29.41,29.41,0,0,1-9,2.45c-3.17.33-6.13,0-9.2,1.1-.46.17-5,2-4.94,2.31Z" fill="#fff"/><path d="M145.44,145.76a.51.51,0,0,1-.36-.15.6.6,0,0,1-.1-.23h0a.25.25,0,0,1,0-.12c-.24-.7-.92-3-3.27-10.86a.51.51,0,0,1,.32-.63l2.83-1.06,1-.37a8.71,8.71,0,0,0,3.36-1.71,26.6,26.6,0,0,0,3-3.47c.47-.62.94-1.23,1.42-1.81a3.39,3.39,0,0,1,1.2-1,1.51,1.51,0,0,1,1.85.46,2,2,0,0,1-.13,1.88l-.36.66a7.22,7.22,0,0,0-1.09,2.86c3.75-1.63,7.63-3.32,11.28-5.33a3.91,3.91,0,0,1,3-.67,1.37,1.37,0,0,1,.68.44c.28.33.5.93,0,1.94a5.77,5.77,0,0,1-.4.68l.17-.1a2.45,2.45,0,0,1,1-.36c.9-.07,1.21.37,1.31.63.4,1.09-1.41,3-1.74,3.25l-.06,0,.17-.08c1-.48,1.49-.24,1.77.06a1.39,1.39,0,0,1,0,1.71,10.37,10.37,0,0,1-3.06,3.16l1.41-.42a1.64,1.64,0,0,1,1.44.08,1.4,1.4,0,0,1,.69,1.32c-.14,1.5-3,2.92-3.9,3.31a29.65,29.65,0,0,1-9.17,2.49c-1,.11-2,.15-3,.19a19.45,19.45,0,0,0-6.09.89,41.84,41.84,0,0,0-4.66,2.06.63.63,0,0,1-.19.21A.6.6,0,0,1,145.44,145.76Zm.5-.66Zm0,0h0Zm-3.14-10.52,2.93,9.83a26.39,26.39,0,0,1,4.48-2,21,21,0,0,1,6.4-1c.95,0,1.93-.07,2.91-.18a28.55,28.55,0,0,0,8.86-2.4c1.57-.71,3.23-1.83,3.29-2.47,0-.05,0-.18-.25-.38-.1-.06-.44,0-.55.07L164.78,138a.52.52,0,0,1-.63-.31.53.53,0,0,1,.26-.65c2.41-1.14,5.41-2.57,6.92-5.12a.74.74,0,0,0,.16-.48h0a1.27,1.27,0,0,0-.52.16l-1.38.7-2.77,1.38a8.16,8.16,0,0,1-1.41.49,7.24,7.24,0,0,0-1.19.41.52.52,0,0,1-.57-.85,16.86,16.86,0,0,1,3.51-2.27,21.82,21.82,0,0,0,2.62-1.56,5,5,0,0,0,1.39-2h-.26a1.83,1.83,0,0,0-.59.24,32.4,32.4,0,0,0-3.36,2.14,7.3,7.3,0,0,1-1.6.81,6.32,6.32,0,0,0-1.35.68.52.52,0,0,1-.61-.84c.56-.4,1.15-.77,1.73-1.13,1.64-1,3.19-2,4-3.62.19-.37.25-.69.14-.81a.44.44,0,0,0-.21-.12,3,3,0,0,0-2.17.59c-3.72,2-7.66,3.76-11.46,5.41l-.58.25a.52.52,0,0,1-.44,0,.54.54,0,0,1-.27-.36c-.31-1.53.47-2.95,1.15-4.21.12-.22.24-.43.35-.65.27-.51.25-.74.18-.84a.5.5,0,0,0-.58-.07,2.54,2.54,0,0,0-.81.74c-.47.56-.93,1.16-1.39,1.77a26.92,26.92,0,0,1-3.1,3.6,9.84,9.84,0,0,1-3.72,1.93l-1,.36Z" fill="#231f20"/><path d="M174.65,124.23c-.35.43-.56,1.2-.05,1.41a1,1,0,0,0,.63,0l3.36-.92a11.51,11.51,0,0,0-4.27,3.23c-.36.43-.62,1.19-.11,1.43a.82.82,0,0,0,.49.05,8.66,8.66,0,0,0,4.23-1.68,28.94,28.94,0,0,0-3.47,2.78,1.26,1.26,0,0,0-.5.81.86.86,0,0,0,.72.79,2.35,2.35,0,0,0,1.14-.13,16.28,16.28,0,0,0,3.64-1.63,15.39,15.39,0,0,0-3.06,1.54,2.65,2.65,0,0,0-1,.91,1,1,0,0,0,.13,1.23,1.45,1.45,0,0,0,1.26.16,10.76,10.76,0,0,0,3.5-1.36,34.24,34.24,0,0,0,.5,3.64,6.36,6.36,0,0,0,2.26-4.68c.13-1.93,0-7.21-1.46-8.71C180.52,121,176.29,122.23,174.65,124.23Z" fill="#fff"/><path d="M181.82,137a.65.65,0,0,1-.19,0,.54.54,0,0,1-.32-.38c-.18-1-.33-1.93-.43-2.9a11.3,11.3,0,0,1-3,1,1.91,1.91,0,0,1-1.7-.29,1.5,1.5,0,0,1-.29-1.75,2.2,2.2,0,0,1-.36,0,1.38,1.38,0,0,1-1.13-1.31,1.81,1.81,0,0,1,.66-1.18l.35-.31-.69.1a1.43,1.43,0,0,1-.78-.09,1,1,0,0,1-.54-.69,2,2,0,0,1,.48-1.54,12.83,12.83,0,0,1,1.46-1.49h0a1.42,1.42,0,0,1-1,0,1,1,0,0,1-.58-.68,1.88,1.88,0,0,1,.43-1.52h0a7.42,7.42,0,0,1,5.13-2.43A4.61,4.61,0,0,1,183,122.7c2,2,1.61,9,1.6,9.12a6.75,6.75,0,0,1-2.46,5.05A.51.51,0,0,1,181.82,137Zm-.5-4.67a.46.46,0,0,1,.23.05.5.5,0,0,1,.28.42c.08.89.19,1.78.33,2.66a6.2,6.2,0,0,0,1.41-3.69c.17-2.66-.13-7.14-1.31-8.32a3.63,3.63,0,0,0-2.82-.92,6.4,6.4,0,0,0-4.39,2h0a.94.94,0,0,0-.23.63l.27-.08,3.36-.92a.52.52,0,0,1,.62.32.52.52,0,0,1-.27.65,11,11,0,0,0-4.08,3.09,1,1,0,0,0-.27.66l.2,0a8,8,0,0,0,3.48-1.23l.51-.36a.52.52,0,0,1,.71.12.51.51,0,0,1-.11.72,6.3,6.3,0,0,1-.53.37,28.89,28.89,0,0,0-2.9,2.38c-.1.09-.33.31-.34.45s.14.23.32.27a1.87,1.87,0,0,0,.88-.13l.88-.3a16.76,16.76,0,0,1,2.73-1.32.51.51,0,0,1,.64.26.52.52,0,0,1-.19.67,17.22,17.22,0,0,1-2.73,1.33l-.32.2a2.2,2.2,0,0,0-.79.72.52.52,0,0,0,0,.6c.12.12.39.13.81.05a10.5,10.5,0,0,0,3.33-1.3A.5.5,0,0,1,181.32,132.31Zm-6.67-8.08h0Z" fill="#231f20"/><path d="M113.56,71.44s3.09,5.68,2.16,6.53-3.26,0-3.26,0" fill="#fff"/><path d="M114.42,78.85a7,7,0,0,1-2.13-.39.49.49,0,0,1-.3-.64.48.48,0,0,1,.63-.3c.67.23,2.23.57,2.76.08.25-.46-.79-3.23-2.26-5.92a.5.5,0,0,1,.88-.48c1.23,2.25,3.12,6.17,2.06,7.14A2.4,2.4,0,0,1,114.42,78.85Z" fill="#231f20"/><path d="M113.47,82.64h-.39a6.75,6.75,0,0,1-4.72-2.55.51.51,0,0,1,0-.71.49.49,0,0,1,.7,0,5.76,5.76,0,0,0,4,2.21,7.68,7.68,0,0,0,5-1.87.51.51,0,0,1,.71,0,.5.5,0,0,1,0,.71A8.88,8.88,0,0,1,113.47,82.64Z" fill="#231f20"/><ellipse cx="109.58" cy="70.48" rx="1.46" ry="0.64" transform="translate(32.03 175.17) rotate(-86.22)" fill="#231f20"/><ellipse cx="118.27" cy="70.48" rx="1.46" ry="0.64" transform="translate(40.15 183.84) rotate(-86.22)" fill="#231f20"/><path d="M104.61,73.33a9,9,0,0,0-2.24-2.55,3,3,0,0,0-1.66-.73,2.74,2.74,0,0,0-1.44.42A5.3,5.3,0,0,0,96.77,74a4.15,4.15,0,0,0,.07,2,4.67,4.67,0,0,0,2,2.44,14,14,0,0,0,3,1.28" fill="#fff"/><path d="M101.84,80.26a.47.47,0,0,1-.17,0,14.67,14.67,0,0,1-3.08-1.34,5.19,5.19,0,0,1-2.24-2.72,4.63,4.63,0,0,1-.09-2.29A5.76,5.76,0,0,1,99,70a3.19,3.19,0,0,1,1.7-.5,3.55,3.55,0,0,1,2,.85,9.55,9.55,0,0,1,2.37,2.69.52.52,0,0,1-.89.52,8.51,8.51,0,0,0-2.11-2.4,2.6,2.6,0,0,0-1.37-.63,2.19,2.19,0,0,0-1.16.36,4.79,4.79,0,0,0-2.26,3.17,3.78,3.78,0,0,0,.06,1.78A4.18,4.18,0,0,0,99.15,78,13.41,13.41,0,0,0,102,79.26a.51.51,0,0,1,.32.66A.5.5,0,0,1,101.84,80.26Z" fill="#231f20"/><path d="M147.18,129.52l5.61,17.75s-28.07,19-46.33,22.29-27.61-32.1-29.86-44.85,2.43-21.37,6.17-20.46,26.54,41.56,26.54,41.56Z" fill="#68e1fd"/><path d="M103.6,171.55a6.33,6.33,0,0,1-1.59-.18C92.72,169,80.3,139.5,79.78,138.25a.51.51,0,0,1,.27-.67.52.52,0,0,1,.68.27c.12.3,12.74,30.25,21.53,32.52s45.56-20.72,45.93-21a.52.52,0,0,1,.71.16.53.53,0,0,1-.16.72C147.29,151.2,114.79,171.55,103.6,171.55Z" fill="#231f20"/><path d="M109.31,146.32a.52.52,0,0,1-.44-.25L89.45,113.5a.52.52,0,0,1,.89-.53l19.19,32.19,35.67-15.09a.53.53,0,0,1,.68.28.51.51,0,0,1-.28.67l-36.08,15.26A.52.52,0,0,1,109.31,146.32Z" fill="#231f20"/><path d="M134.28,133.11a.51.51,0,0,1-.51-.44c-.6-4.57-5.15-25.7-5.2-25.91a.51.51,0,0,1,.4-.61.5.5,0,0,1,.61.39c.19.87,4.61,21.38,5.21,26a.52.52,0,0,1-.44.58Z" fill="#231f20"/><path d="M174.9,139.38a.5.5,0,0,1-.34-.86,8.53,8.53,0,0,0,1.31-1.57.5.5,0,1,1,.84.54,9.11,9.11,0,0,1-1.46,1.76A.51.51,0,0,1,174.9,139.38Z" fill="#d1d3d4"/><path d="M173.54,122.49h-.1a9,9,0,0,1-2-.61.5.5,0,0,1-.26-.66.51.51,0,0,1,.66-.26,8.36,8.36,0,0,0,1.76.55.5.5,0,0,1-.09,1Z" fill="#d1d3d4"/><path d="M171.78,143.8a.39.39,0,0,1-.15,0,4.73,4.73,0,0,1-1.61-.9.5.5,0,0,1,.65-.76,3.66,3.66,0,0,0,1.26.71.49.49,0,0,1,.32.63A.48.48,0,0,1,171.78,143.8Z" fill="#d1d3d4"/><path d="M166.66,122.21a.49.49,0,0,1-.46-.3.5.5,0,0,1,.27-.66,2.54,2.54,0,0,0,1.06-.83.5.5,0,1,1,.81.59,3.5,3.5,0,0,1-1.49,1.17A.58.58,0,0,1,166.66,122.21Z" fill="#d1d3d4"/><path d="M186.63,244.74s9.14,7.37,12.09,9.14,31.28-30.68,28-32.75-25.58,9.23-25.58,9.23Z" fill="#231f20"/><path d="M213,241.71a.44.44,0,0,1-.33-.74c.1-.12,10.75-12.22,14-15.43a.45.45,0,0,1,.63,0,.44.44,0,0,1,0,.63c-3.22,3.19-13.85,15.26-14,15.39A.48.48,0,0,1,213,241.71Z" fill="#fff"/><rect x="168.65" y="162.97" width="123.7" height="6.8" fill="#fff"/><path d="M292.35,170.27H168.65a.51.51,0,0,1-.5-.5V163a.5.5,0,0,1,.5-.5h123.7a.5.5,0,0,1,.5.5v6.8A.5.5,0,0,1,292.35,170.27Zm-123.2-1h122.7v-5.8H169.15Z" fill="#d1d3d4"/><polygon points="177.08 169.77 147.57 250.05 152 250.05 188.29 169.77 177.08 169.77" fill="#fff"/><path d="M152,250.55h-4.43a.5.5,0,0,1-.41-.22.51.51,0,0,1-.06-.45l29.51-80.28a.5.5,0,0,1,.47-.33h11.21a.48.48,0,0,1,.42.23.49.49,0,0,1,0,.47l-36.29,80.28A.51.51,0,0,1,152,250.55Zm-3.71-1h3.39l35.84-79.28H177.43Z" fill="#d1d3d4"/><polygon points="264.38 169.77 291.43 242.67 287.01 242.67 253.17 169.77 264.38 169.77" fill="#fff"/><path d="M291.43,243.17H287a.5.5,0,0,1-.46-.29L252.72,170a.51.51,0,0,1,0-.48.48.48,0,0,1,.42-.23h11.21a.5.5,0,0,1,.47.32l27,72.91a.48.48,0,0,1-.06.46A.49.49,0,0,1,291.43,243.17Zm-4.1-1h3.38L264,170.27H254Z" fill="#d1d3d4"/><polygon points="284.74 169.77 314.25 250.05 309.82 250.05 273.53 169.77 284.74 169.77" fill="#fff"/><path d="M314.25,250.55h-4.43a.5.5,0,0,1-.45-.3L273.08,170a.49.49,0,0,1,0-.47.48.48,0,0,1,.42-.23h11.21a.5.5,0,0,1,.47.33l29.51,80.28a.51.51,0,0,1-.06.45A.49.49,0,0,1,314.25,250.55Zm-4.1-1h3.38l-29.14-79.28H274.31Z" fill="#d1d3d4"/><path d="M199.2,163s-11.85-4.49-12.1-5.23.13-3.54,1-2.8,8.51,5.9,11.81,2.95,1.4-4.42,9.78-2.36,10.67-1.18,16.76.44,9,4.85,13.21,2.8,3.82-5.46,7.88-4.2,8.89-.27,8.89-.27-6.86,7.37-9.65,8S199.2,163,199.2,163Z" fill="#fff"/><path d="M199.2,163.47a.39.39,0,0,1-.18,0c-12.06-4.56-12.31-5.29-12.39-5.52-.23-.67-.09-2.88.72-3.44a.85.85,0,0,1,1.08.09c.94.77,8.23,5.58,11.16,3a12.5,12.5,0,0,0,1.61-1.75c1.51-1.89,2.17-2.32,8.63-.72a21.53,21.53,0,0,0,9.52.3,16.11,16.11,0,0,1,7.25.14,37.26,37.26,0,0,1,5.33,1.95c2.88,1.24,5,2.14,7.53.88a10.28,10.28,0,0,0,3.27-2.62c1.2-1.32,2.24-2.46,5-1.61,3.86,1.2,8.54-.26,8.59-.27a.5.5,0,0,1,.52.82c-.29.3-7,7.49-9.91,8.16S201,163.47,199.2,163.47Zm-11.65-6c.79.65,7.25,3.25,11.74,5,15.5,0,45.23-.14,47.39-.64,1.82-.42,5.85-4.22,8.22-6.64a16,16,0,0,1-7.49-.14c-2.14-.66-2.77,0-3.94,1.32a11.29,11.29,0,0,1-3.57,2.85c-3,1.46-5.35.44-8.36-.86a36.78,36.78,0,0,0-5.19-1.9,15,15,0,0,0-6.85-.12,22.57,22.57,0,0,1-9.91-.32c-6.1-1.51-6.42-1.11-7.6.37a13.53,13.53,0,0,1-1.73,1.87c-3.45,3.09-11-1.74-12.4-2.89A4.34,4.34,0,0,0,187.55,157.51Z" fill="#d1d3d4"/><path d="M211,158.63s6.2-2.07,9.59-1,9.9,2.65,9.9,2.65" fill="#fff"/><path d="M230.5,160.75h-.12c-.06,0-6.56-1.64-9.92-2.67-3.2-1-9.23,1-9.29,1a.5.5,0,0,1-.63-.32.49.49,0,0,1,.31-.63c.26-.09,6.39-2.11,9.9-1,3.34,1,9.81,2.63,9.87,2.65a.5.5,0,0,1,.37.6A.5.5,0,0,1,230.5,160.75Z" fill="#d1d3d4"/><rect x="259.71" y="139.75" width="13.82" height="23.22" rx="2.23" fill="#fff"/><path d="M271.3,163.48h-9.36a2.74,2.74,0,0,1-2.74-2.74V142a2.74,2.74,0,0,1,2.74-2.74h9.36a2.75,2.75,0,0,1,2.75,2.74v18.77A2.75,2.75,0,0,1,271.3,163.48Zm-9.36-23.22a1.72,1.72,0,0,0-1.71,1.71v18.77a1.72,1.72,0,0,0,1.71,1.71h9.36a1.72,1.72,0,0,0,1.72-1.71V142a1.72,1.72,0,0,0-1.72-1.71Z" fill="#231f20"/><rect x="259.71" y="148.9" width="13.82" height="9.05" fill="#231f20"/><path d="M263.11,140.26a.51.51,0,0,1-.44-.24,3.62,3.62,0,0,0-.4-.2,1.89,1.89,0,0,1-.84-.58,2.56,2.56,0,0,1-.45-1.07,1.8,1.8,0,0,1,1.6-1.86,2.62,2.62,0,0,1,2.13.88,7,7,0,0,1,1.08,1.76l.19.41a.51.51,0,0,1-.24.69.52.52,0,0,1-.69-.25l-.19-.41a6.16,6.16,0,0,0-.9-1.49,1.57,1.57,0,0,0-1.26-.56.76.76,0,0,0-.69.72,1.58,1.58,0,0,0,.29.62,3.64,3.64,0,0,0,.41.21,1.71,1.71,0,0,1,.83.58.51.51,0,0,1-.16.71A.45.45,0,0,1,263.11,140.26Z" fill="#231f20"/><path d="M270.83,147.57h-2.95a.5.5,0,0,1-.5-.5.5.5,0,0,1,.5-.5h2.95a.5.5,0,0,1,.5.5A.5.5,0,0,1,270.83,147.57Z" fill="#d1d3d4"/></g></svg>