<svg xmlns="http://www.w3.org/2000/svg" viewBox="0 0 400 300"><g id="_216_macbook_flatline" data-name="#216_macbook_flatline"><path d="M86.27,241.76H313.73a0,0,0,0,1,0,0v5.12a4.81,4.81,0,0,1-4.81,4.81H91.08a4.81,4.81,0,0,1-4.81-4.81v-5.12A0,0,0,0,1,86.27,241.76Z"/><path d="M309.84,246H90.16a3.89,3.89,0,0,1-3.68-5.14l19.74-58.25A12.76,12.76,0,0,1,118.31,174H281.69a12.76,12.76,0,0,1,12.09,8.68l19.74,58.25A3.89,3.89,0,0,1,309.84,246Z" fill="#fff"/><path d="M309.84,246.48H90.16a4.33,4.33,0,0,1-4.11-5.73l19.73-58.26a13.23,13.23,0,0,1,12.53-9H281.69a13.23,13.23,0,0,1,12.53,9L314,240.75a4.33,4.33,0,0,1-4.11,5.73ZM118.31,174.42a12.3,12.3,0,0,0-11.66,8.37L86.91,241a3.43,3.43,0,0,0,3.25,4.53H309.84a3.43,3.43,0,0,0,3.25-4.53l-19.74-58.25a12.3,12.3,0,0,0-11.66-8.37Z" fill="#231f20"/><path d="M287.52,211.83H113a3.19,3.19,0,0,1-3.07-4.11l7-23.65a3.56,3.56,0,0,1,3.39-2.53h159a4,4,0,0,1,3.8,2.84l7.07,23.81a2.82,2.82,0,0,1-2.71,3.64Zm-167.2-29.29a2.56,2.56,0,0,0-2.43,1.82l-7,23.65a2.19,2.19,0,0,0,2.11,2.82H287.52a1.82,1.82,0,0,0,1.75-2.35l-7.07-23.82a3,3,0,0,0-2.84-2.12Z" fill="#d1d3d4"/><path d="M230.25,238.16h-60.5a3.41,3.41,0,0,1-3.33-4.13l2.89-13.15a5.26,5.26,0,0,1,5.09-4.09h51.2a5.26,5.26,0,0,1,5.09,4.09L233.58,234a3.41,3.41,0,0,1-3.33,4.13ZM174.4,217.79a4.23,4.23,0,0,0-4.11,3.31l-2.89,13.14a2.4,2.4,0,0,0,2.35,2.92h60.5a2.4,2.4,0,0,0,2.35-2.92l-2.89-13.14a4.23,4.23,0,0,0-4.11-3.31Z" fill="#d1d3d4"/><rect x="109" y="48.31" width="181.85" height="125.65" rx="6.51" fill="#231f20"/><path d="M284.33,174.46H115.51a7,7,0,0,1-7-7V54.83a7,7,0,0,1,7-7H284.33a7,7,0,0,1,7,7V167.45A7,7,0,0,1,284.33,174.46ZM115.51,48.81a6,6,0,0,0-6,6V167.45a6,6,0,0,0,6,6H284.33a6,6,0,0,0,6-6V54.83a6,6,0,0,0-6-6Z" fill="#231f20"/><rect x="118.33" y="56.98" width="162.8" height="108.15" fill="#68e1fd"/><path d="M153.25,146.57a.46.46,0,0,1-.28-.82L255.71,64.16a.46.46,0,0,1,.64.07.45.45,0,0,1-.07.64l-102.75,81.6A.42.42,0,0,1,153.25,146.57Z" fill="#fff"/><path d="M209.91,152.9a.44.44,0,0,1-.36-.18.46.46,0,0,1,.08-.64L270.83,105a.45.45,0,0,1,.64.09.46.46,0,0,1-.09.64L210.19,152.8A.42.42,0,0,1,209.91,152.9Z" fill="#fff"/><path d="M150.54,95.37a.47.47,0,0,1-.37-.19.46.46,0,0,1,.09-.64L174,76.61a.46.46,0,1,1,.55.73l-23.7,17.93A.41.41,0,0,1,150.54,95.37Z" fill="#fff"/></g></svg>