<svg xmlns="http://www.w3.org/2000/svg" viewBox="0 0 400 300"><g id="_384_machu_pichu_flatline" data-name="#384_machu_pichu_flatline"><rect x="39.5" y="45.82" width="321.2" height="208.35" fill="#fff"/><path d="M39.5,114S48.25,124.17,57,124.54s18.28-10.13,28.53-9.38,21.89,7.9,32.21,9.39,54.31-11.27,58-15.4,4.89-10.51,9.75-8.26,10.3-.47,10.3-.47,8.92-5.53,15.25-4,23.58,10.89,23.58,10.89,25.95-9,33.82-14.65,17.26,1.13,24.77-3,14.6-7.13,22.5-10.89,7.53-8.26,13.54-4.13,10.14,5.64,13.52,4.13,6.38,3.1,9,2.87,8.65-3.24,8.65-3.24V222.71l-320.94,13Z" fill="#e6e7e8"/><path d="M39.5,236.26a.48.48,0,0,1-.34-.14.48.48,0,0,1-.16-.36V114a.5.5,0,0,1,.88-.32c.09.1,8.71,10,17.13,10.33,4,.18,8.22-2,12.69-4.38,5.06-2.66,10.31-5.41,15.84-5s11.51,2.67,17.29,4.85c5,1.9,10.19,3.86,15,4.55,5.37.77,19.68-2.38,31.29-5.58,13.57-3.75,24.63-7.81,26.3-9.66a27.39,27.39,0,0,0,2.81-4c1.92-3.14,3.74-6.11,7.52-4.36,4.57,2.12,9.82-.44,9.87-.46.33-.21,9.12-5.61,15.59-4.08,6,1.43,21.49,9.74,23.51,10.83,2.47-.87,26.12-9.24,33.48-14.5,4.36-3.12,9.12-2.58,13.73-2.06,4,.45,7.73.87,11.09-1,5.37-3,10.49-5.31,15.91-7.81,2.16-1,4.36-2,6.62-3.09a27.38,27.38,0,0,0,5.78-3.75c2.61-2.08,4-3.23,8.25-.34,6.12,4.21,10,5.43,13,4.09,2.21-1,4.21.31,6,1.44,1.16.75,2.28,1.46,3.19,1.38,2.51-.23,8.42-3.16,8.48-3.19a.5.5,0,0,1,.49,0,.52.52,0,0,1,.23.43V222.71a.5.5,0,0,1-.48.5l-320.94,13ZM40,115.32V235.24l319.94-13V79.17c-1.7.81-5.94,2.74-8.11,2.93-1.28.12-2.51-.68-3.83-1.53-1.62-1-3.31-2.13-5-1.37-3.43,1.52-7.48.31-14-4.17-3.61-2.48-4.55-1.72-7.06.29a28.49,28.49,0,0,1-6,3.88c-2.27,1.07-4.47,2.09-6.63,3.08-5.4,2.5-10.51,4.85-15.85,7.79-3.64,2-7.73,1.54-11.68,1.09-4.42-.49-9-1-13,1.88-7.84,5.61-32.88,14.34-33.94,14.71a.53.53,0,0,1-.41,0c-.17-.09-17.26-9.37-23.45-10.84s-14.79,3.92-14.88,4c-.27.14-5.75,2.82-10.77.5-2.83-1.32-4.16.55-6.25,4a26.82,26.82,0,0,1-2.92,4.17c-4,4.44-48.37,17-58.47,15.56-4.88-.71-10.11-2.69-15.18-4.6-5.71-2.16-11.62-4.4-17-4.79S75.11,118,70.16,120.55C65.57,123,61.23,125.23,57,125,49.63,124.73,42.46,117.9,40,115.32Z" fill="#231f20"/><path d="M360.7,254.67H39.5a.5.5,0,0,1-.5-.5V45.82a.5.5,0,0,1,.5-.5H360.7a.5.5,0,0,1,.5.5V254.17A.5.5,0,0,1,360.7,254.67Zm-320.7-1H360.2V46.32H40Z" fill="#231f20"/><path d="M360.44,153.25l-8.27.41c-1.62.08-3.4.1-4.66-.92-.87-.71-1.33-1.82-2.15-2.59-1.18-1.09-2.9-1.3-4.49-1.47l-10.6-1.09c-3.06-4-6.45-8.31-11.31-9.73-4.42-1.3-9.87-.18-13.14-3.44-1-1-1.63-2.27-2.68-3.17a11,11,0,0,0-3.92-1.84c-5.75-1.87-11.9-4.88-14-10.57-.55-1.5-.93-3.33-2.38-4a14.2,14.2,0,0,0-1.72-.51c-2.37-.79-3.32-3.56-4-6-2.41,0-4.24-2.07-5.7-4L261.16,90.86c-3.14-4.1-7-8.59-12.2-8.58l-7.6,21a65.26,65.26,0,0,1-5.08,11.61c-6.82,11.33-20.15,18.1-25.18,30.32l3.12-5.33c-2.88,6.06-1.88,13.14-2,19.85C212,170.54,208.54,181,207,191.77s-1.07,22.55,5.52,31.17c7.19,9.4,19.73,12.68,31.41,14.57,11.12,1.8,22.34,2.89,33.55,4,27.66,2.66,55.35,10,83,12.69Z" fill="#231f20"/><path d="M360.44,254.67h0c-13.86-1.34-27.94-3.89-41.56-6.36s-27.65-5-41.46-6.34c-11-1.06-22.43-2.16-33.58-4-11.53-1.87-24.32-5.09-31.73-14.77-5.72-7.47-7.61-18.09-5.61-31.55.58-3.93,1.42-7.9,2.23-11.73,1.4-6.61,2.85-13.44,3-20.27,0-1.53,0-3.1,0-4.63a50.16,50.16,0,0,1,.61-10.9l-.74,1.28a.51.51,0,0,1-.66.19.5.5,0,0,1-.24-.64c2.82-6.87,8.3-12.1,13.6-17.16,4.23-4,8.6-8.23,11.61-13.22a66.18,66.18,0,0,0,5-11.53l7.6-21a.54.54,0,0,1,.51-.33c5.14,0,9.07,4.22,12.56,8.77L271.87,104c1.51,2,3.19,3.79,5.26,3.79h.05a.49.49,0,0,1,.48.37c.67,2.52,1.57,4.94,3.64,5.64.21.07.42.12.64.17a5.57,5.57,0,0,1,1.14.36c1.4.68,1.92,2.22,2.38,3.58.08.25.16.49.25.73,1.63,4.45,6.1,7.8,13.67,10.27l.17.05a11.11,11.11,0,0,1,3.92,1.88,10.73,10.73,0,0,1,1.57,1.81,11.16,11.16,0,0,0,1.14,1.38c2,2,4.85,2.25,7.89,2.53a27.31,27.31,0,0,1,5,.79c5.14,1.5,8.77,6.22,11.43,9.74l10.39,1.07c1.45.15,3.43.35,4.78,1.59a8.76,8.76,0,0,1,1.07,1.31,5.75,5.75,0,0,0,1.06,1.26c1.08.89,2.66.89,4.31.81l8.28-.41a.48.48,0,0,1,.37.14.48.48,0,0,1,.15.36V254.17a.51.51,0,0,1-.16.37A.51.51,0,0,1,360.44,254.67ZM214.7,139.7a.48.48,0,0,1,0,.37c-2.17,4.57-2.08,9.86-2,15,0,1.53.05,3.12,0,4.66-.16,6.93-1.61,13.8-3,20.46-.81,3.82-1.64,7.76-2.22,11.67-2,13.18-.13,23.54,5.42,30.79C220.06,232,232.63,235.18,244,237c11.12,1.8,22.5,2.9,33.52,4,13.85,1.33,27.92,3.88,41.54,6.35,13.41,2.43,27.29,4.94,40.92,6.29V153.77l-7.75.39c-1.78.08-3.63.08-5-1a7.12,7.12,0,0,1-1.25-1.46,6.76,6.76,0,0,0-.93-1.15c-1-.94-2.51-1.16-4.2-1.34l-10.61-1.09a.47.47,0,0,1-.34-.19c-3.36-4.45-6.52-8.24-11.05-9.56a25.33,25.33,0,0,0-4.84-.75c-3.08-.29-6.27-.58-8.51-2.82a13.42,13.42,0,0,1-1.23-1.5,10.34,10.34,0,0,0-1.42-1.64,10.2,10.2,0,0,0-3.58-1.69l-.17-.05c-7.88-2.57-12.56-6.12-14.3-10.88-.09-.24-.17-.49-.26-.75-.41-1.23-.84-2.5-1.87-3a4.62,4.62,0,0,0-.93-.29,6.54,6.54,0,0,1-.73-.19c-2.41-.81-3.49-3.43-4.19-6-2.33-.17-4.12-2.09-5.71-4.17L260.76,91.16c-3.25-4.25-6.89-8.19-11.45-8.37l-7.48,20.63a65.86,65.86,0,0,1-5.13,11.7c-3.07,5.11-7.49,9.34-11.77,13.43C221.28,132,217.55,135.6,214.7,139.7Z" fill="#231f20"/><path d="M203.44,195.7,217,198.94c1,.23,2.13.41,2.82-.31a3.05,3.05,0,0,0,.63-1.51,64.86,64.86,0,0,1,2-6.19c3.39-9.86,4.2-20.38,6.1-30.63a19.58,19.58,0,0,1,1.36-4.81,27.82,27.82,0,0,1,1.8-3,46.68,46.68,0,0,0,7.09-20.16,15.51,15.51,0,0,1,.63-3.65,19,19,0,0,1,2.82-4.4,22.1,22.1,0,0,0,3.82-9,57.21,57.21,0,0,0,.55-8.49,99.77,99.77,0,0,1,2-16.7c.62-3.09,1.43-8.12-3.37-8.44-3.61-.25-9.1,4.92-11.62,7.14a70.63,70.63,0,0,0-9,9.87c-4.86,6.29-6.91,14.56-12.47,20.42-3,3.21-7,5.44-10,8.66-4.33,4.59-6.47,10.82-7.82,17-.76,3.45-1.33,7-2.89,10.17s-4,5.69-6.32,8.22l-12.65,13.45a5.66,5.66,0,0,0-2,5.5c.19,3,.5,6.34,2.65,8.48a12.46,12.46,0,0,0,4.41,2.48c6.77,2.66,13.63,5.27,20.82,6.4s14.82.67,21.33-2.58" fill="#68e1fd"/><path d="M205.26,200.45a45.58,45.58,0,0,1-7-.56c-7-1.1-13.63-3.56-20.92-6.43a12.94,12.94,0,0,1-4.58-2.58c-2.22-2.21-2.59-5.42-2.8-8.8a6.13,6.13,0,0,1,2.15-5.88l12.64-13.45a34.5,34.5,0,0,0,6.24-8.1,34.85,34.85,0,0,0,2.48-8.34c.12-.58.24-1.15.37-1.72,1.08-4.92,3.08-12.07,7.95-17.23a43.79,43.79,0,0,1,5.08-4.39,43.51,43.51,0,0,0,4.94-4.26c3-3.19,5-7.2,7-11.08a56.24,56.24,0,0,1,5.44-9.3,71.48,71.48,0,0,1,9.05-10l.6-.53c2.93-2.61,7.82-7,11.38-6.73a4.35,4.35,0,0,1,3.33,1.58c1.39,1.82,1.06,4.66.5,7.46a99.53,99.53,0,0,0-2,16.62c0,.53,0,1.06,0,1.59a45.6,45.6,0,0,1-.51,7,22.83,22.83,0,0,1-3.91,9.22c-.24.33-.48.66-.73,1a12.9,12.9,0,0,0-2,3.3,13.24,13.24,0,0,0-.56,3.07l0,.46a47.07,47.07,0,0,1-7.16,20.38l-.35.54a19.63,19.63,0,0,0-1.42,2.42,19.23,19.23,0,0,0-1.32,4.69c-.56,3-1,6.15-1.5,9.17-1.09,7.15-2.22,14.55-4.62,21.52l-.57,1.6a42.17,42.17,0,0,0-1.44,4.55,3.56,3.56,0,0,1-.76,1.74c-1,1-2.6.61-3.29.44l-1.53-.36A35.2,35.2,0,0,1,205.26,200.45ZM245,82.11c-3.13,0-7.85,4.2-10.41,6.49l-.6.53A69.48,69.48,0,0,0,225,98.94a55.42,55.42,0,0,0-5.33,9.13c-2,4-4,8-7.16,11.33a46.14,46.14,0,0,1-5.05,4.36,42.25,42.25,0,0,0-5,4.29c-4.71,5-6.65,11.95-7.71,16.75l-.36,1.71a35.59,35.59,0,0,1-2.56,8.58c-1.58,3.21-4,5.82-6.41,8.34l-12.64,13.46a7.23,7.23,0,0,0-1.71,2.39A7.12,7.12,0,0,0,171,182c.2,3.18.54,6.2,2.5,8.16a12.33,12.33,0,0,0,4.24,2.36c7.24,2.85,13.79,5.29,20.72,6.38a39.49,39.49,0,0,0,14.88-.34l-10-2.39a.5.5,0,0,1,.23-1L215.31,198a27.14,27.14,0,0,0,4.13-1.65.49.49,0,0,1,.62.16c.38-1.46.88-2.84,1.36-4.18.19-.53.38-1.06.56-1.59,2.37-6.88,3.5-14.23,4.58-21.34.46-3,.94-6.15,1.51-9.21a20.17,20.17,0,0,1,1.39-4.93,22.42,22.42,0,0,1,1.49-2.53l.35-.54a46.1,46.1,0,0,0,7-20l.05-.45a13.67,13.67,0,0,1,.61-3.31,13.86,13.86,0,0,1,2.17-3.56c.24-.32.49-.64.72-1a21.92,21.92,0,0,0,3.73-8.82,44.41,44.41,0,0,0,.5-6.81c0-.53,0-1.07,0-1.6a100.16,100.16,0,0,1,2-16.78c.32-1.61,1-5-.31-6.66a3.41,3.41,0,0,0-2.61-1.2ZM217.13,198.46c.87.2,1.81.34,2.31-.17a2.12,2.12,0,0,0,.44-1h0A28.54,28.54,0,0,1,217.13,198.46Z" fill="#231f20"/><path d="M142.72,151.51l9.23,10.3a20,20,0,0,0,4.5,4.08,6.79,6.79,0,0,0,5.84.77c3.36-1.33,4.62-5.91,8.06-7a12.36,12.36,0,0,0,3.32,3.4,4.28,4.28,0,0,0,4.51.18c2.1-1.42,2.41-5.22,4.94-5.46,1.24-.12,2.36.8,3.61.93A6.33,6.33,0,0,1,197,156.27a13.88,13.88,0,0,1,2.2,3c9,15.16,21.05,24.56,22.61,43.06a5,5,0,0,1-.26,2.69,3.78,3.78,0,0,1-1.76,1.59c-2.75,1.39-6.09,1-9-.09s-5.47-2.82-8.24-4.15c-4.31-2.06-10-5.26-14.49-6.51-5.22-1.47-11.8.32-17.85-.26a66.36,66.36,0,0,1-11.65-1.85c-8-2.22-15.09-7.16-23.25-8.53a11.57,11.57,0,0,1-3-.73,7.24,7.24,0,0,1-3.24-3.53,19.81,19.81,0,0,1-1.46-11.14,88.84,88.84,0,0,1,2.52-11.09c.69-2.7,1.29-5.42,1.78-8.16.39-2.12.55-4.66,2.34-6.16s2.83-.76,4,.92A57.28,57.28,0,0,0,142.72,151.51Z" fill="#231f20"/><path d="M215.74,208a14.41,14.41,0,0,1-5.12-1,40.76,40.76,0,0,1-5.14-2.51c-1-.57-2.08-1.15-3.14-1.65s-2.21-1.09-3.4-1.69a68.38,68.38,0,0,0-11-4.8c-2.92-.82-6.28-.59-9.84-.35a48.74,48.74,0,0,1-7.92.11,66.4,66.4,0,0,1-11.74-1.87,72.66,72.66,0,0,1-10.14-3.94c-4.18-1.87-8.51-3.81-13.06-4.57l-.45-.08a10,10,0,0,1-2.71-.69,7.69,7.69,0,0,1-3.48-3.77,20.12,20.12,0,0,1-1.51-11.42A66.23,66.23,0,0,1,129,161c.21-.78.42-1.57.62-2.35.69-2.69,1.28-5.42,1.77-8.13l.15-.89c.31-1.95.67-4.15,2.36-5.57a3,3,0,0,1,2.33-.89,3.87,3.87,0,0,1,2.38,1.92l.76,1.11a43.36,43.36,0,0,0,3.71,5h0l9.24,10.3a19.25,19.25,0,0,0,4.37,4,6.29,6.29,0,0,0,5.4.74c1.52-.6,2.58-1.93,3.71-3.33s2.48-3.1,4.39-3.71a.49.49,0,0,1,.55.17,12.24,12.24,0,0,0,3.17,3.28,3.83,3.83,0,0,0,4,.19,6.89,6.89,0,0,0,1.86-2.48c.79-1.43,1.6-2.91,3.31-3.07a4.75,4.75,0,0,1,2.27.5,6.91,6.91,0,0,0,1.08.37,6.82,6.82,0,0,1,10.89-2.21,13.24,13.24,0,0,1,2.21,3l.07.13c2.67,4.47,5.61,8.45,8.45,12.3,6.75,9.16,13.13,17.81,14.24,31a5.44,5.44,0,0,1-.31,2.95,4.3,4.3,0,0,1-2,1.82A9.31,9.31,0,0,1,215.74,208ZM183,194.8a19.11,19.11,0,0,1,5.24.62,69,69,0,0,1,11.18,4.86c1.19.6,2.33,1.18,3.38,1.68s2.16,1.11,3.19,1.68a42.26,42.26,0,0,0,5,2.46c1.88.71,5.48,1.66,8.56.1a3.28,3.28,0,0,0,1.54-1.36,4.61,4.61,0,0,0,.22-2.43C220.2,189.54,213.9,181,207.23,172c-2.85-3.87-5.8-7.88-8.49-12.39l-.08-.13a12.21,12.21,0,0,0-2-2.8,5.83,5.83,0,0,0-9.43,2.22.49.49,0,0,1-.52.32,6.82,6.82,0,0,1-1.7-.5,4.14,4.14,0,0,0-1.8-.44c-1.19.12-1.81,1.25-2.53,2.56a7.64,7.64,0,0,1-2.18,2.83,4.74,4.74,0,0,1-5.05-.17,12.25,12.25,0,0,1-3.23-3.23,10,10,0,0,0-3.59,3.26,10.68,10.68,0,0,1-4.12,3.64,7.29,7.29,0,0,1-6.28-.81,20.45,20.45,0,0,1-4.61-4.18l-9.23-10.3a44.76,44.76,0,0,1-3.8-5.08l-.75-1.11c-.67-1-1.19-1.42-1.69-1.49a2.15,2.15,0,0,0-1.56.67c-1.4,1.17-1.71,3.1-2,5,0,.31-.1.61-.16.91-.49,2.73-1.09,5.48-1.78,8.19-.2.79-.41,1.58-.62,2.37a63.62,63.62,0,0,0-1.89,8.66,19.08,19.08,0,0,0,1.41,10.86,6.72,6.72,0,0,0,3,3.3,9,9,0,0,0,2.45.61l.45.08c4.68.78,9.07,2.75,13.31,4.65a72.62,72.62,0,0,0,10,3.89,66.71,66.71,0,0,0,11.56,1.84A48.1,48.1,0,0,0,178,195C179.73,194.92,181.38,194.8,183,194.8Z" fill="#231f20"/><path d="M139.18,173.64a14.55,14.55,0,0,0,3-.16c1.15-.37,2.13-1.47,3.31-1.27.46.07.86.34,1.32.43,1.66.3,2.67-1.82,4.2-2.53,1.78-.84,3.85.41,5.19,1.85s2.54,3.2,4.41,3.8a9.15,9.15,0,0,1,2.76.85c1.19.86,1.21,2.59,1.12,4a5.79,5.79,0,0,1,5.32,2.75,6.81,6.81,0,0,0,.82,1.28,6.07,6.07,0,0,0,1.51.91,6.87,6.87,0,0,1,.51,11.87,13,13,0,0,1-5.1,1.58,117.14,117.14,0,0,1-13.35,1.31,20.63,20.63,0,0,1-6.79-.53,23,23,0,0,1-7.19-4.22c-4.15-3.19-16.84-11.8-12.94-18.17a2.77,2.77,0,0,1,3-1.4c1.49.44,2-.59,3.44-.85,1.1-.2,2.3.23,3.41.16A2.29,2.29,0,0,1,139.18,173.64Z" fill="#68e1fd"/><path d="M152.14,200.91a17.16,17.16,0,0,1-4.91-.6,23.34,23.34,0,0,1-7.35-4.3c-.36-.27-.77-.59-1.24-.93-5.07-3.8-15.63-11.68-11.83-17.9a3.28,3.28,0,0,1,3.54-1.62,2,2,0,0,0,1.75-.31,5.24,5.24,0,0,1,1.46-.55,7,7,0,0,1,2.05.05,8.49,8.49,0,0,0,1.09.1,2.8,2.8,0,0,1,2.43-1.7h0a9.68,9.68,0,0,1,1.2,0A5.29,5.29,0,0,0,142,173a5.92,5.92,0,0,0,1.13-.56,3.59,3.59,0,0,1,2.42-.73,4.09,4.09,0,0,1,.77.25,2.52,2.52,0,0,0,.55.18c.77.15,1.42-.47,2.17-1.17a6.73,6.73,0,0,1,1.73-1.32c2-.94,4.3.4,5.76,2,.28.3.56.62.83.93a8.08,8.08,0,0,0,3.37,2.74,7.24,7.24,0,0,0,.92.22,4.67,4.67,0,0,1,2,.7c1.21.88,1.4,2.44,1.35,4a6.29,6.29,0,0,1,5.23,3c.07.12.14.24.2.36a3.63,3.63,0,0,0,.55.83,3.86,3.86,0,0,0,1,.63l.37.18a7.38,7.38,0,0,1,.55,12.74,13.45,13.45,0,0,1-5.29,1.66,118.41,118.41,0,0,1-13.41,1.31C153.51,200.89,152.83,200.91,152.14,200.91Zm-22.5-24.46a2.54,2.54,0,0,0-2,1.25c-3.32,5.44,6.74,13,11.58,16.57l1.25.95c2,1.57,4.38,3.36,7,4.13a20.32,20.32,0,0,0,6.63.51,118.38,118.38,0,0,0,13.29-1.3,12.67,12.67,0,0,0,4.91-1.51,6.38,6.38,0,0,0-.47-11l-.35-.17a4.68,4.68,0,0,1-1.28-.83,4.14,4.14,0,0,1-.71-1l-.19-.33a5.25,5.25,0,0,0-4.85-2.5.47.47,0,0,1-.39-.14.47.47,0,0,1-.15-.39c.09-1.4.05-2.92-.91-3.62a3.88,3.88,0,0,0-1.59-.53,8.6,8.6,0,0,1-1-.25,8.93,8.93,0,0,1-3.83-3c-.26-.31-.53-.61-.8-.9-1.22-1.31-3.08-2.46-4.61-1.74a6.34,6.34,0,0,0-1.47,1.14c-.82.78-1.77,1.66-3,1.43a3.88,3.88,0,0,1-.75-.24,2.85,2.85,0,0,0-.56-.19,2.74,2.74,0,0,0-1.75.6,4.79,4.79,0,0,1-3.31.83,9.63,9.63,0,0,0-1.08,0h0a1.79,1.79,0,0,0-1.68,1.32.5.5,0,0,1-.45.38,7.93,7.93,0,0,1-1.62-.1,5.71,5.71,0,0,0-1.74-.05,4.07,4.07,0,0,0-1.18.45,3,3,0,0,1-2.49.38A1.33,1.33,0,0,0,129.64,176.45Zm9.54-2.81h0Z" fill="#231f20"/><path d="M129.38,181.08c1.35-.7,3-1.39,4.29-.57a4.61,4.61,0,0,1,.88.83l4.82,5.52c1.27,1.45,2.6,3,2.89,4.94a.8.8,0,0,1,0,.55.92.92,0,0,1-.52.33,16.63,16.63,0,0,1-12.84-1,6.71,6.71,0,0,1-3.1-2.8,7.64,7.64,0,0,1-.47-3.89,39.05,39.05,0,0,1,.83-5.59c.35-1.56,1-3.31,2.48-3.85" fill="#fff"/><path d="M136.47,194a17.19,17.19,0,0,1-7.85-1.87,7.1,7.1,0,0,1-3.32-3,8,8,0,0,1-.52-4.14,40.17,40.17,0,0,1,.84-5.67c.33-1.49,1-3.56,2.8-4.21a.5.5,0,0,1,.34.94c-1,.37-1.72,1.48-2.16,3.49a38.08,38.08,0,0,0-.82,5.52,7.07,7.07,0,0,0,.42,3.63,6.13,6.13,0,0,0,2.88,2.58,16.19,16.19,0,0,0,12.45.94.56.56,0,0,0,.25-.11.91.91,0,0,0,0-.22c-.28-1.83-1.66-3.41-2.78-4.69l-4.82-5.51a4.12,4.12,0,0,0-.77-.74c-1-.67-2.5-.08-3.79.59a.5.5,0,0,1-.67-.21.51.51,0,0,1,.21-.68c1.45-.75,3.31-1.49,4.78-.54a4.43,4.43,0,0,1,1,.93l4.83,5.51c1.19,1.37,2.69,3.07,3,5.19a1.35,1.35,0,0,1-.12.88,1.32,1.32,0,0,1-.79.55A16.61,16.61,0,0,1,136.47,194Z" fill="#231f20"/><path d="M138.87,189.41c.58-1,2.17-.58,2.87.31s.95,2.07,1.68,2.94c1.23,1.49,3.42,1.65,5.14,2.53a12.08,12.08,0,0,1,4.13,4.24,88.59,88.59,0,0,1,7.09,12.65c1.41,3.07,2.61,6.79.86,9.67a9.67,9.67,0,0,1-3.74,3.16,34.28,34.28,0,0,1-5.73,2.5,12,12,0,0,1-4,.76,12.35,12.35,0,0,1-5.19-1.55,39,39,0,0,1-12.44-9.8,22,22,0,0,1-4.35-7.41c-1.48-4.64-.67-9.75,1-14.3a12.18,12.18,0,0,1,2.75-4.64,5.27,5.27,0,0,1,5-1.46" fill="#231f20"/><path d="M147.3,228.67h-.15a12.82,12.82,0,0,1-5.4-1.61,39.37,39.37,0,0,1-12.6-9.92,22.26,22.26,0,0,1-4.45-7.58c-1.34-4.2-1-9.27,1.06-14.63a12.65,12.65,0,0,1,2.88-4.82,5.76,5.76,0,0,1,5.46-1.58.5.5,0,0,1,.34.62.51.51,0,0,1-.62.34,4.77,4.77,0,0,0-4.49,1.34,11.77,11.77,0,0,0-2.63,4.45c-1.36,3.6-2.65,8.94-1,14a21.67,21.67,0,0,0,4.26,7.24,38.66,38.66,0,0,0,12.28,9.67,12.07,12.07,0,0,0,5,1.5,11.55,11.55,0,0,0,3.84-.73,34.18,34.18,0,0,0,5.65-2.47,9.19,9.19,0,0,0,3.55-3c1.71-2.81.31-6.6-.88-9.21a88.1,88.1,0,0,0-7.06-12.57,11.4,11.4,0,0,0-3.94-4.07,13,13,0,0,0-1.84-.72A7.2,7.2,0,0,1,143,193a7.47,7.47,0,0,1-.93-1.61,6.86,6.86,0,0,0-.75-1.34,1.89,1.89,0,0,0-1.47-.69.69.69,0,0,0-.58.33.5.5,0,0,1-.86-.51,1.66,1.66,0,0,1,1.37-.81,2.86,2.86,0,0,1,2.32,1.06A7.64,7.64,0,0,1,143,191a6.45,6.45,0,0,0,.79,1.39,6.32,6.32,0,0,0,3,1.63,13.34,13.34,0,0,1,2,.78,12.36,12.36,0,0,1,4.31,4.4,89.09,89.09,0,0,1,7.14,12.72c1.29,2.81,2.78,6.93.82,10.14a10.09,10.09,0,0,1-3.92,3.34,35.27,35.27,0,0,1-5.81,2.54A12.94,12.94,0,0,1,147.3,228.67Z" fill="#231f20"/><path d="M91.52,207.2a176.9,176.9,0,0,0,8.31-17c4.15-9.39,8.65-18.44,12.15-28.1,1.1-3,2.38-6.3,5.15-7.95a7.81,7.81,0,0,0,2-1.34c.73-.83.82-2,1.15-3.07,1.13-3.61,4.92-5.59,8.35-7.17,2.13-1,6.94-3,6.69.9q-.87,13.74-1.73,27.49a45.36,45.36,0,0,1-.87,7.36c-.7,3-2,5.83-2.66,8.84-1.14,5.19-.31,10.72-1.92,15.78a22.44,22.44,0,0,1-7.64,10.43A60,60,0,0,1,109.24,220c-2.6,1.27-5.22,2.51-7.83,3.75a10.45,10.45,0,0,1-3.08,1.07,8.86,8.86,0,0,1-3.6-.46c-2.29-.66-12.18-3.92-11.41-7.17.3-1.28,2.91-2.4,3.79-3.31A35.34,35.34,0,0,0,91.52,207.2Z" fill="#68e1fd"/><path d="M97.62,225.4a10.88,10.88,0,0,1-3-.53c-1.3-.38-12.69-3.8-11.76-7.76.24-1,1.43-1.8,2.58-2.56a9.57,9.57,0,0,0,1.34-1,27.66,27.66,0,0,0,3.67-5.45c.22-.4.45-.79.67-1.17A175.87,175.87,0,0,0,99.37,190c1.16-2.64,2.36-5.24,3.55-7.84,3-6.54,6.08-13.3,8.59-20.23,1.22-3.37,2.54-6.53,5.36-8.21l.58-.32a4.9,4.9,0,0,0,1.33-.92,4.7,4.7,0,0,0,.81-2c.07-.3.14-.6.24-.9,1.17-3.77,5.06-5.84,8.61-7.48,2.05-.94,4.95-2.09,6.47-1a2.53,2.53,0,0,1,.93,2.43L134.11,171a46,46,0,0,1-.89,7.44,43.62,43.62,0,0,1-1.31,4.34,43.93,43.93,0,0,0-1.35,4.5,43,43,0,0,0-.72,7,34.41,34.41,0,0,1-1.2,8.83,22.85,22.85,0,0,1-7.81,10.67,60.24,60.24,0,0,1-11.37,6.72c-2.6,1.27-5.22,2.51-7.84,3.75a11.12,11.12,0,0,1-3.23,1.12A6.78,6.78,0,0,1,97.62,225.4Zm35.72-83.76a12.06,12.06,0,0,0-4.48,1.38c-3.51,1.62-7,3.49-8.08,6.87-.09.27-.15.56-.22.84a5.41,5.41,0,0,1-1,2.4,5.29,5.29,0,0,1-1.6,1.14l-.55.31c-2.53,1.51-3.78,4.5-4.93,7.69-2.53,7-5.63,13.75-8.62,20.3-1.19,2.6-2.38,5.2-3.55,7.83a174.46,174.46,0,0,1-8.33,17h0l-.66,1.16a28.31,28.31,0,0,1-3.82,5.65A9.86,9.86,0,0,1,86,215.38c-.89.59-2,1.33-2.16,2-.54,2.29,6.5,5.25,11.07,6.57a8.54,8.54,0,0,0,3.39.45,9.87,9.87,0,0,0,2.93-1c2.62-1.23,5.23-2.47,7.83-3.74A59.38,59.38,0,0,0,120.2,213a21.94,21.94,0,0,0,7.49-10.19,33.86,33.86,0,0,0,1.15-8.58,42.22,42.22,0,0,1,.75-7.15,43.1,43.1,0,0,1,1.37-4.61,44.12,44.12,0,0,0,1.29-4.24,44.77,44.77,0,0,0,.86-7.28l1.73-27.49a1.66,1.66,0,0,0-.49-1.55A1.84,1.84,0,0,0,133.34,141.64ZM91.52,207.2h0Z" fill="#231f20"/><path d="M96.6,210.19v11s3.47,3.43,10,2.54,14.46-2.82,14.46-2.82,8.77-5.49,12.85-7.6,2.9-7.09,3-8.33-1.69-7.16-1.55-7.25a55.45,55.45,0,0,0,4.89-3.8c.37-.56.75-4.77.75-4.77l-21-.19s-4.5-.12-4.74.26-1.25,2.25-1.25,2.25L112.13,193l-3.68,1.65L106,199.06l-3.47.61Z" fill="#fff"/><path d="M104.44,224.4a12,12,0,0,1-8.19-2.83.49.49,0,0,1-.15-.36v-11a.51.51,0,0,1,.06-.25l5.92-10.51a.51.51,0,0,1,.34-.25l3.24-.57,2.35-4.25a.47.47,0,0,1,.23-.21l3.64-1.62,1.8-1.36c.21-.39,1-1.84,1.22-2.18s.39-.63,5.17-.5l21,.19a.5.5,0,0,1,.5.54c-.12,1.3-.43,4.4-.84,5a44.72,44.72,0,0,1-4.77,3.75c.08.36.26,1,.42,1.64a24.22,24.22,0,0,1,1.1,5.44,5.87,5.87,0,0,0,0,.93c.1,1.92.3,5.91-3.33,7.78-4,2.08-12.73,7.53-12.82,7.59l-.14.06c-.08,0-8,1.94-14.51,2.82A15.89,15.89,0,0,1,104.44,224.4ZM97.1,221a12.08,12.08,0,0,0,9.43,2.26c6.08-.83,13.48-2.58,14.32-2.79.84-.52,9-5.58,12.83-7.57,3-1.58,2.88-4.88,2.78-6.85a8.23,8.23,0,0,1,0-1.1,29.14,29.14,0,0,0-1.07-5.07c-.6-2.31-.6-2.31-.25-2.54a58.24,58.24,0,0,0,4.74-3.66,22.55,22.55,0,0,0,.62-4l-20.44-.18a26.88,26.88,0,0,0-4.37.13c-.3.53-1.17,2.11-1.17,2.12a.56.56,0,0,1-.14.16l-1.94,1.46a.33.33,0,0,1-.1.06L108.8,195l-2.38,4.32a.51.51,0,0,1-.35.25l-3.24.57L97.1,210.32Zm18.65-31.48Z" fill="#231f20"/><path d="M119.47,208.64a28,28,0,0,0,4.63,1.69l.7-.19,2.68-.85-5.26-1.78Z" fill="#68e1fd"/><path d="M124.1,210.83l-.13,0a28.45,28.45,0,0,1-4.73-1.73.5.5,0,0,1-.26-.47.48.48,0,0,1,.31-.44l2.74-1.12a.47.47,0,0,1,.35,0l5.26,1.78a.5.5,0,0,1,0,1l-3.4,1Zm-3.37-2.17a32.12,32.12,0,0,0,3.37,1.15l.57-.15,1.2-.38L122.24,208Z" fill="#231f20"/><path d="M113.59,209.86c0,.14,5.72,4.22,9,4.92s.42,0,.42,0l1.74-1s-6.43-3-8.07-4.74Z" fill="#68e1fd"/><path d="M124.32,215.59a11.56,11.56,0,0,1-1.78-.32,22.2,22.2,0,0,1-5.94-2.73c-3.51-2.15-3.51-2.51-3.51-2.68a.5.5,0,0,1,.37-.49l3.14-.84a.49.49,0,0,1,.49.14c1.56,1.65,7.86,4.6,7.92,4.63a.5.5,0,0,1,.29.43.49.49,0,0,1-.24.45l-.72.43c.41.14.46.28.39.6S124.62,215.59,124.32,215.59Zm-9.64-5.51c1.62,1.14,5.55,3.68,8.07,4.21l.12,0,.87-.52c-1.73-.85-5.63-2.82-7.16-4.23Z" fill="#231f20"/><path d="M115.67,218.21a46.27,46.27,0,0,1-5.28-5.07l2.64-.7a45.9,45.9,0,0,0,6.44,4.29Z" fill="#68e1fd"/><path d="M115.67,218.71a.51.51,0,0,1-.31-.11,46,46,0,0,1-5.35-5.14.5.5,0,0,1-.09-.47.49.49,0,0,1,.35-.33l2.64-.7a.47.47,0,0,1,.43.08,45.26,45.26,0,0,0,6.34,4.24.49.49,0,0,1,.29.47.5.5,0,0,1-.31.45l-3.8,1.48A.58.58,0,0,1,115.67,218.71Zm-4.38-5.29a49.33,49.33,0,0,0,4.48,4.22l2.49-1a56.06,56.06,0,0,1-5.34-3.68Z" fill="#231f20"/><path d="M132,227.78s31,11.37,35.51,9.3-.94-16.34-.94-16.34Z" fill="#fff"/><path d="M165.84,237.9c-7.76,0-31.19-8.51-34.09-9.57a.57.57,0,0,1-.38-.59.59.59,0,0,1,.46-.53l34.57-7a.58.58,0,0,1,.66.37c.58,1.51,5.5,14.84.64,17.07A4.61,4.61,0,0,1,165.84,237.9Zm-31.75-10c12.37,4.45,30.14,10,33.12,8.61s.91-9.78-1.06-15.14Z" fill="#231f20"/><polygon points="159.03 218.19 164.27 227.31 123.3 226.66 116.31 219.55 121.42 215.95 159.03 218.19" fill="#fff"/><path d="M164.27,227.9h0l-41-.66a.59.59,0,0,1-.41-.18l-7-7.1a.57.57,0,0,1-.16-.46.56.56,0,0,1,.24-.43l5.12-3.6a.63.63,0,0,1,.37-.1l37.61,2.24a.59.59,0,0,1,.47.29l5.23,9.12a.59.59,0,0,1-.5.88Zm-40.72-1.82,39.7.64-4.56-8-37.1-2.21-4.39,3.09Z" fill="#231f20"/><polygon points="117.72 217.55 124.28 211.64 140.34 212.44 140.71 214.59 142.96 214.59 145.31 210.98 150.94 210.98 152.84 215.02 157.98 215.02 160.51 218.21 117.72 217.55" fill="#fff"/><path d="M160.51,218.79h0l-42.79-.66a.58.58,0,0,1-.38-1l6.57-5.91a.53.53,0,0,1,.41-.15l16.06.8a.57.57,0,0,1,.54.48l.29,1.67h1.45l2.17-3.34a.58.58,0,0,1,.49-.27h5.63a.59.59,0,0,1,.53.33l1.74,3.71H158a.56.56,0,0,1,.45.22l2.54,3.19a.58.58,0,0,1,.06.62A.57.57,0,0,1,160.51,218.79Zm-41.3-1.8,40.08.62-1.59-2h-4.86a.59.59,0,0,1-.53-.33l-1.74-3.71h-4.95l-2.17,3.35a.58.58,0,0,1-.49.27h-2.25a.58.58,0,0,1-.57-.49l-.3-1.69-15.34-.77Z" fill="#231f20"/><polygon points="136.95 208.64 125.18 208.64 125.18 215.47 136.95 215.86 136.95 208.64" fill="#d1d3d4"/><path d="M137,216.36h0l-11.77-.4a.49.49,0,0,1-.48-.5v-6.82a.5.5,0,0,1,.5-.5H137a.5.5,0,0,1,.5.5v7.22a.5.5,0,0,1-.5.5ZM125.68,215l10.77.37v-6.21H125.68Z" fill="#231f20"/><polygon points="152.84 219.55 146.79 215.47 146.79 222.05 152.84 219.55" fill="#d1d3d4"/><path d="M146.79,222.55a.47.47,0,0,1-.28-.09.49.49,0,0,1-.22-.41v-6.59a.51.51,0,0,1,.26-.44.54.54,0,0,1,.52,0l6.05,4.08a.5.5,0,0,1-.09.88l-6.05,2.5A.65.65,0,0,1,146.79,222.55Zm.5-6.15v4.9l4.5-1.86Z" fill="#231f20"/><polygon points="134.18 224.54 134.18 220.88 152.84 219.55 152.84 224.54 134.18 224.54" fill="#fff"/><path d="M152.84,225H134.18a.5.5,0,0,1-.5-.5v-3.66a.49.49,0,0,1,.46-.49l18.66-1.34a.49.49,0,0,1,.38.13.52.52,0,0,1,.16.37v5A.5.5,0,0,1,152.84,225Zm-18.16-1h17.66v-4l-17.66,1.27Z" fill="#231f20"/><path d="M322.41,230.41s3.47,7.18,8.73,7.72,3,2.37,9.19,4.08,4.13-1.41,9.2,2.59,11.17,9.37,11.17,9.37h-46s.33-17.52,2.66-19.7A49.89,49.89,0,0,1,322.41,230.41Z" fill="#68e1fd"/><path d="M360.7,254.67h-46a.47.47,0,0,1-.35-.15.48.48,0,0,1-.15-.36c0-1.81.41-17.79,2.81-20a51.81,51.81,0,0,1,5.1-4.11.52.52,0,0,1,.42-.07.47.47,0,0,1,.32.26c0,.07,3.41,6.93,8.33,7.44,2.85.29,3.65,1,4.58,1.78a10.27,10.27,0,0,0,4.7,2.32,9.77,9.77,0,0,0,4.39.47c1.34-.16,2-.14,5,2.21,5,4,11.13,9.33,11.19,9.39a.48.48,0,0,1,.14.55A.5.5,0,0,1,360.7,254.67Zm-45.48-1h44.15c-1.94-1.69-6.36-5.48-10.15-8.47-2.76-2.19-3.22-2.13-4.24-2a10.71,10.71,0,0,1-4.78-.5,11.24,11.24,0,0,1-5.08-2.52c-.87-.75-1.5-1.28-4-1.55-4.68-.48-7.92-5.76-8.86-7.47a48.38,48.38,0,0,0-4.52,3.68C316.16,236.29,315.38,246.7,315.22,253.67Z" fill="#231f20"/><path d="M321.56,242.55a16.63,16.63,0,0,0,2.44,4.57c2,2.81,2.63,3,4.7,3.56s3.47,3.48,3.47,3.48H292.43s0-12.92,6.4-16,10.91-7.32,14.85-6.68S321.56,242.55,321.56,242.55Z" fill="#d1d3d4"/><path d="M332.17,254.66H292.43a.49.49,0,0,1-.36-.15.5.5,0,0,1-.14-.35c0-.54.08-13.28,6.68-16.48,2.1-1,4-2.19,5.75-3.22,3.68-2.21,6.59-4,9.4-3.5,4.18.69,8.11,11,8.27,11.42,0,0,0,0,0,0a16.13,16.13,0,0,0,2.36,4.41c1.88,2.68,2.42,2.82,4.42,3.37,2.26.62,3.73,3.61,3.79,3.74a.48.48,0,0,1,0,.48A.49.49,0,0,1,332.17,254.66Zm-39.23-1h38.37a5.58,5.58,0,0,0-2.74-2.49c-2.25-.62-3-.92-5-3.77a17.15,17.15,0,0,1-2.51-4.69c-1.08-2.85-4.5-10.27-7.49-10.76-2.46-.41-5.22,1.26-8.72,3.37-1.73,1-3.69,2.22-5.83,3.26C293.7,241.17,293,251.28,292.94,253.66Z" fill="#231f20"/><path d="M315.18,227.67s.94.77,1.79,1.33,5.44,1.41,5.44,1.41l-1.22,7.15.37,5s-3.19-2.05-3.28-3.58a5.24,5.24,0,0,0-1.41-2.86L309,234.47Z" fill="#68e1fd"/><path d="M321.56,243.05a.47.47,0,0,1-.27-.08c-.34-.22-3.4-2.24-3.51-4a4.65,4.65,0,0,0-1.17-2.45l-7.67-1.6a.5.5,0,0,1-.27-.83l6.14-6.8a.51.51,0,0,1,.69-.05s.93.76,1.74,1.31a28.41,28.41,0,0,0,5.26,1.33.49.49,0,0,1,.4.57l-1.21,7.09.37,4.94a.47.47,0,0,1-.24.46A.48.48,0,0,1,321.56,243.05ZM310,234.16l7,1.46a.51.51,0,0,1,.26.14,5.77,5.77,0,0,1,1.55,3.18c0,.72,1.17,1.8,2.21,2.59l-.3-3.94a.49.49,0,0,1,0-.12l1.13-6.66a23.76,23.76,0,0,1-5.14-1.39c-.53-.36-1.1-.78-1.45-1.07Z" fill="#231f20"/><path d="M286.44,223c.59.26,19,4.65,19,4.65h9.78l-4.31,9.19-22.44-3.68h-9.1" fill="#fff"/><path d="M310.87,237.36h-.09l-22.43-3.69h-9a.5.5,0,0,1,0-1h9.1l22.14,3.63,3.83-8.14h-9.12c-3.07-.74-18.44-4.42-19-4.68a.51.51,0,0,1-.26-.66.5.5,0,0,1,.65-.26c.62.23,11.57,2.87,18.83,4.61h9.72a.5.5,0,0,1,.42.23.46.46,0,0,1,0,.48l-4.31,9.2A.51.51,0,0,1,310.87,237.36Z" fill="#231f20"/><polygon points="314.34 236.11 314.71 242.21 311.71 240.81 295.85 236.11 300.02 232.9 314.34 236.11" fill="#fff"/><path d="M314.71,242.71a.52.52,0,0,1-.21,0l-3-1.41-15.79-4.67a.51.51,0,0,1-.35-.39.49.49,0,0,1,.18-.49l4.18-3.21a.51.51,0,0,1,.41-.09l14.32,3.21a.52.52,0,0,1,.39.46l.37,6.1a.5.5,0,0,1-.22.45A.54.54,0,0,1,314.71,242.71Zm-17.78-6.8,14.92,4.42,2.31,1.07-.3-4.89-13.72-3.07Z" fill="#231f20"/><polygon points="306.74 236.11 314.34 236.11 307.77 229.79 297.91 229.79 306.74 236.11" fill="#fff"/><path d="M314.34,236.61h-7.6a.53.53,0,0,1-.3-.09l-8.82-6.32a.51.51,0,0,1-.18-.56.49.49,0,0,1,.47-.35h9.86a.48.48,0,0,1,.34.14l6.57,6.32a.49.49,0,0,1,.12.55A.5.5,0,0,1,314.34,236.61Zm-7.44-1h6.2l-5.53-5.32h-8.1Z" fill="#231f20"/><path d="M301.76,218.35s7.13-.75,7.27,1.74-3.63,7.58-3.63,7.58l-21.52-3.17Z" fill="#d1d3d4"/><path d="M305.4,228.17h-.07L283.81,225a.49.49,0,0,1-.09-1l17.88-6.15.11,0c.55-.06,5.44-.52,7.17,1a1.71,1.71,0,0,1,.65,1.26c.15,2.64-3.57,7.69-3.73,7.91A.48.48,0,0,1,305.4,228.17ZM286,224.3l19.18,2.83c1.12-1.55,3.47-5.23,3.37-7a.81.81,0,0,0-.3-.56c-1.18-1-4.95-.86-6.37-.72Z" fill="#231f20"/><path d="M288.43,215.53l1.35.16c3.6.42,13.05,1.63,12,2.66-1.31,1.27-13.24,12.57-18.75,8.4" fill="#fff"/><path d="M286,228.17a5.23,5.23,0,0,1-3.24-1,.5.5,0,1,1,.6-.8c4.91,3.71,15.77-6.14,17.87-8.13-1-.48-4.71-1.25-11.46-2l-1.34-.15a.5.5,0,0,1-.44-.55.51.51,0,0,1,.55-.44l1.35.15c12,1.41,12.32,2.33,12.47,2.78a.7.7,0,0,1-.2.74C300.24,220.51,291.94,228.17,286,228.17Zm15.45-9.81h0Z" fill="#231f20"/><polygon points="275.63 204.88 278.98 207.51 283.32 209.37 279.48 214.06 266.87 211.88 262.44 205.75 271.26 202.94 275.63 204.88" fill="#fff"/><path d="M279.48,214.56h-.09l-12.6-2.18a.54.54,0,0,1-.32-.2L262,206a.51.51,0,0,1-.07-.45.5.5,0,0,1,.33-.32l8.82-2.8a.47.47,0,0,1,.35,0l4.38,1.94a.21.21,0,0,1,.1.06l3.3,2.59,4.28,1.83a.52.52,0,0,1,.29.34.51.51,0,0,1-.1.43l-3.85,4.69A.47.47,0,0,1,279.48,214.56Zm-12.32-3.14,12.12,2.09,3.23-3.94-3.73-1.6a.41.41,0,0,1-.11-.07l-3.29-2.59-4.15-1.83-8,2.54Z" fill="#231f20"/><path d="M268.63,209h7.67l2.68,2.65,1.9-2.65,2.44.36v2.29l4.25,5.05s3.53,1.43,4.51,1.85-3.18,5.84-6.48,6.69-19.6.37-19.6.37l-6.57-10,1.95-6.54Z" fill="#231f20"/><path d="M275.23,226.26c-4.57,0-8.9-.13-9.24-.14a.52.52,0,0,1-.41-.22l-6.56-10a.48.48,0,0,1-.07-.42l1.95-6.53a.52.52,0,0,1,.48-.36l7.25-.06h7.67a.49.49,0,0,1,.36.15l2.25,2.24,1.56-2.18a.49.49,0,0,1,.48-.2l2.44.35a.51.51,0,0,1,.43.5v2.11l4.05,4.81c.62.25,3.53,1.43,4.41,1.81a.79.79,0,0,1,.44.83c-.12,1.52-3.85,6-7,6.8C284.1,226.15,279.55,226.26,275.23,226.26Zm-9-1.13c2.1.06,16.21.39,19.19-.37,2.81-.71,6-4.8,6.24-5.81-1.16-.49-4.33-1.78-4.33-1.78a.56.56,0,0,1-.2-.14l-4.24-5a.5.5,0,0,1-.12-.33V209.8l-1.71-.25L279.38,212a.49.49,0,0,1-.36.2.48.48,0,0,1-.39-.14l-2.53-2.51h-7.47l-6.88.06-1.77,6Z" fill="#231f20"/><path d="M254.46,200.05v-2.68s6.64.15,6.64.36,3.31,5.77,3.31,5.77L261,206.38l-5.89-6.32" fill="#fff"/><path d="M261,206.88a.53.53,0,0,1-.37-.15l-5.87-6.31a.52.52,0,0,1-.83-.37v-2.68a.47.47,0,0,1,.15-.35.55.55,0,0,1,.36-.15c6.75.15,7.11.25,7.13.76.25.55,2.09,3.69,3.24,5.61a.51.51,0,0,1-.11.64l-3.38,2.88A.49.49,0,0,1,261,206.88Zm-5.89-7.32a.48.48,0,0,1,.36.16l5.57,6,2.69-2.3c-2-3.42-2.76-4.71-3-5.25-.71-.09-3.3-.2-5.78-.25v1.7A.57.57,0,0,1,255.14,199.56Z" fill="#231f20"/><polygon points="251.91 201.18 257.44 201.18 268.63 209.01 263.38 209.01 251.91 201.18" fill="#fff"/><path d="M268.63,209.51h-5.25a.57.57,0,0,1-.29-.08l-11.46-7.84a.49.49,0,0,1-.19-.56.48.48,0,0,1,.47-.35h5.53a.52.52,0,0,1,.29.09l11.19,7.83a.5.5,0,0,1-.29.91Zm-5.1-1H267l-9.76-6.83h-3.75Z" fill="#231f20"/><polygon points="282.43 229 292.85 227.08 296.18 229.33 311.15 244.4 313.68 248.81 283.89 249.18 270.47 228.72 277.78 227.08 282.43 229" fill="#fff"/><path d="M283.89,249.68a.52.52,0,0,1-.42-.23L270.05,229a.52.52,0,0,1,0-.47.5.5,0,0,1,.35-.3l7.31-1.64a.51.51,0,0,1,.3,0l4.51,1.86,10.27-1.89a.51.51,0,0,1,.38.07l3.33,2.26,15,15.12a.44.44,0,0,1,.08.11l2.53,4.41a.5.5,0,0,1,0,.49.53.53,0,0,1-.43.26l-29.79.37Zm-12.6-20.63,12.87,19.62,28.66-.35-2.07-3.62-14.93-15-3.08-2.07-10.22,1.88a.45.45,0,0,1-.28,0l-4.5-1.86Z" fill="#231f20"/><path d="M290.73,225.32s3.1,1.48,3.24,2.13-8,2.63-11.35,2.3-9.95-2.67-9.95-2.67l4.6-3.37Z" fill="#68e1fd"/><path d="M283.41,230.29a7.17,7.17,0,0,1-.84,0c-3.4-.33-9.8-2.6-10.07-2.7a.5.5,0,0,1-.13-.87l4.6-3.38a.56.56,0,0,1,.36-.09l13.46,1.61a.43.43,0,0,1,.16.05c1.51.72,3.35,1.74,3.51,2.48a.61.61,0,0,1-.16.55C293.51,228.78,286.91,230.29,283.41,230.29Zm-9.68-3.37a52.91,52.91,0,0,0,8.93,2.34c2.92.27,9.23-1.21,10.65-1.88a17.09,17.09,0,0,0-2.72-1.57l-13.19-1.58Z" fill="#231f20"/><polygon points="304.44 233.69 304.44 238.34 293.22 238.53 293.22 233.91 304.44 233.69" fill="#fff"/><path d="M293.22,239a.5.5,0,0,1-.35-.14.51.51,0,0,1-.15-.36v-4.62a.49.49,0,0,1,.49-.5l11.22-.22a.55.55,0,0,1,.36.14.53.53,0,0,1,.15.36v4.65a.5.5,0,0,1-.49.5l-11.22.19Zm.5-4.63V238l10.22-.17V234.2Z" fill="#231f20"/><polygon points="293.22 236.79 293.22 233.91 288.43 229 288.43 233.18 293.22 236.79" fill="#fff"/><path d="M293.22,237.29a.47.47,0,0,1-.3-.1l-4.79-3.61a.52.52,0,0,1-.2-.4V229a.51.51,0,0,1,.32-.46.49.49,0,0,1,.54.11l4.79,4.91a.5.5,0,0,1,.14.35v2.88a.5.5,0,0,1-.28.45A.42.42,0,0,1,293.22,237.29Zm-4.29-4.36,3.79,2.86v-1.68l-3.79-3.88Z" fill="#231f20"/><polygon points="242.35 228.72 276.33 228.72 294.55 249.49 275.63 252.72 257.37 247.07 242.35 228.72" fill="#fff"/><path d="M275.63,253.22a.34.34,0,0,1-.14,0l-18.27-5.65a.56.56,0,0,1-.24-.16L242,229a.5.5,0,0,1,.38-.82h34a.48.48,0,0,1,.37.17l18.23,20.77a.51.51,0,0,1-.29.83l-18.92,3.23Zm-18-6.58,18,5.57,17.92-3.06L276.1,229.22H243.41Z" fill="#231f20"/><polygon points="281.65 222.71 288.48 221.31 285.67 218.96 287.43 218.96 290.73 221.31 290.73 225.32 281.23 227.08 281.65 222.71" fill="#fff"/><path d="M281.23,227.58a.55.55,0,0,1-.34-.13.54.54,0,0,1-.16-.42l.43-4.37a.49.49,0,0,1,.39-.44l5.81-1.2-2-1.68a.5.5,0,0,1,.32-.88h1.75a.48.48,0,0,1,.29.09L291,220.9a.49.49,0,0,1,.21.41v4a.49.49,0,0,1-.41.49l-9.5,1.76Zm.89-4.46-.33,3.35,8.44-1.57v-3.34l-3-2.1h-.22l1.75,1.46a.51.51,0,0,1,.17.51.5.5,0,0,1-.39.36Z" fill="#231f20"/><polygon points="274.82 221.31 281.65 222.71 281.23 227.08 273.91 225.25 274.82 221.31" fill="#fff"/><path d="M281.23,227.58l-.12,0-7.32-1.83a.49.49,0,0,1-.37-.59l.92-3.95a.49.49,0,0,1,.59-.37l6.82,1.4a.5.5,0,0,1,.4.54l-.42,4.37a.54.54,0,0,1-.21.36A.52.52,0,0,1,281.23,227.58Zm-6.72-2.7,6.28,1.57.32-3.34-5.91-1.22Z" fill="#231f20"/><path d="M169.33,237.5S155,213.7,154.86,211.83s.3-6.38-.5-7-9.05-9.44-9.05-9.44,20.27-6.06,25-6.19,21.21-.05,25.53,0,22.34,11.5,22.34,11.5,16.52,12.15,20.36,20.06,8.54,17.48,10.05,18.8,23.18,14.48,23.18,14.48l-95.64.08-6.38-14.56Z" fill="#68e1fd"/><path d="M176.09,254.67a.51.51,0,0,1-.46-.3l-6.38-14.56a.61.61,0,0,1,0-.11l-.36-2c-2.51-4.17-14.34-23.93-14.5-25.81-.06-.64,0-1.56,0-2.53,0-1.29.06-3.7-.27-4.06-.8-.57-8.27-8.59-9.12-9.5a.51.51,0,0,1,.23-.82c.83-.25,20.38-6.07,25.09-6.21s21-.06,25.55,0c4.41.05,21.86,11.11,22.6,11.58S235.1,212.66,239,220.59c3.16,6.49,8.44,17.34,9.93,18.64,1.16,1,15.62,9.89,23.11,14.44a.49.49,0,0,1,.22.56.5.5,0,0,1-.48.36l-95.64.08Zm-5.9-15.21,6.23,14.21L270,253.6c-5-3-20.44-12.48-21.73-13.62-1.51-1.32-5.67-9.72-10.17-18.95-3.75-7.71-20-19.75-20.21-19.87-6.16-3.92-18.74-11.37-22.05-11.41-4.58-.06-20.85-.13-25.5,0-4.06.12-20.32,4.84-24.07,5.94,3.3,3.53,7.91,8.41,8.43,8.78.68.48.73,1.93.68,4.89,0,.94,0,1.83,0,2.42.14,1.35,8.91,16.33,14.4,25.46a.51.51,0,0,1,.07.17Z" fill="#231f20"/><path d="M178.11,190.9v-5.35h5.07c.28,0,0,5.4,0,5.4Z" fill="#fff"/><path d="M183.18,191.45h0l-5.07,0a.5.5,0,0,1-.49-.5v-5.35a.5.5,0,0,1,.5-.5h5.07a.59.59,0,0,1,.38.16c.16.17.4.42.12,5.77A.51.51,0,0,1,183.18,191.45Zm-4.57-1,4.09,0c.09-1.79.13-3.66.08-4.4h-4.17Z" fill="#231f20"/><path d="M180.7,189a1.27,1.27,0,0,1,1.53-.84l-.2-.48a2.37,2.37,0,0,0,1.82-1.62c.81-2.69,3.3-4.16,6.23-4.24a11.74,11.74,0,0,1,2,.17,32.71,32.71,0,0,1,6.2,1.3,20.23,20.23,0,0,1,5.41,3,7.44,7.44,0,0,1,2.12,2.21,3,3,0,0,1,.1,2.94,4,4,0,0,1-2.62,1.56c-3.39.78-5.48-1.32-8.58-.78-1.37.24-2.74.53-4.1.83a8.06,8.06,0,0,1-2.24.29,7.94,7.94,0,0,1-2.17-.54,11.91,11.91,0,0,0-4.79-1,5.26,5.26,0,0,1-.89,0,3.75,3.75,0,0,1-2-1.09C177.34,189.72,179.75,188.59,180.7,189Z" fill="#68e1fd"/><path d="M188.66,193.9h-.26a8.24,8.24,0,0,1-2.31-.57,11.53,11.53,0,0,0-4.59-1h-.21a3.9,3.9,0,0,1-.77,0,4.34,4.34,0,0,1-2.27-1.21,1.21,1.21,0,0,1-.32-1.65,2.94,2.94,0,0,1,2.5-1.05,1.74,1.74,0,0,1,.63-.57,1.69,1.69,0,0,1,.47-.18.43.43,0,0,1,.06-.22.51.51,0,0,1,.35-.25,1.89,1.89,0,0,0,1.43-1.27c.83-2.75,3.39-4.51,6.7-4.6a12.33,12.33,0,0,1,2.13.18,31.31,31.31,0,0,1,6.29,1.32,20.56,20.56,0,0,1,5.55,3.08,7.62,7.62,0,0,1,2.25,2.37,3.5,3.5,0,0,1,.1,3.44,4.36,4.36,0,0,1-2.94,1.79,9.38,9.38,0,0,1-4.85-.36,8.17,8.17,0,0,0-3.76-.41c-1.25.22-2.58.48-4.07.82A9.61,9.61,0,0,1,188.66,193.9Zm-6.78-2.59a13.39,13.39,0,0,1,4.54,1.07,5.4,5.4,0,0,0,4.07.24c1.57-.34,2.91-.62,4.18-.84a9.3,9.3,0,0,1,4.2.43,8.21,8.21,0,0,0,4.36.35,3.42,3.42,0,0,0,2.3-1.32,2.56,2.56,0,0,0-.11-2.45,6.9,6.9,0,0,0-2-2,19.61,19.61,0,0,0-5.28-2.94,30.91,30.91,0,0,0-6.1-1.27,10.89,10.89,0,0,0-2-.17c-2.91.08-5.06,1.53-5.77,3.89A2.89,2.89,0,0,1,182.7,188a.49.49,0,0,1-.1.5.5.5,0,0,1-.52.14.71.71,0,0,0-.54.08.72.72,0,0,0-.36.41.48.48,0,0,1-.27.32.51.51,0,0,1-.42,0,1.89,1.89,0,0,0-1.72.56c0,.07-.09.15.13.34a3.37,3.37,0,0,0,1.72,1,3.9,3.9,0,0,0,.59,0l.22,0Z" fill="#231f20"/><polygon points="204.44 243.83 203.51 242.76 184.63 220.84 207.06 221.31 216.07 229.1 204.81 229.66 220.24 249.51 204.44 247.26 204.44 243.83" fill="#68e1fd"/><path d="M220.24,250h-.07l-15.8-2.24a.5.5,0,0,1-.43-.49V244l-19.69-22.86a.51.51,0,0,1-.07-.54.47.47,0,0,1,.46-.28l22.43.47a.47.47,0,0,1,.32.12l9,7.79a.5.5,0,0,1-.3.88l-10.31.51,14.84,19.09a.5.5,0,0,1-.39.81Zm-15.3-3.18,14.14,2L204.42,230a.49.49,0,0,1-.06-.52.49.49,0,0,1,.43-.29l10-.5-7.93-6.86-21.13-.44,19.07,22.15a.48.48,0,0,1,.13.32Z" fill="#231f20"/><polyline points="181.91 243.55 167.27 224.69 161.64 223.47 171.08 242.73 180.88 243.3" fill="#68e1fd"/><path d="M181.91,244.05a.49.49,0,0,1-.39-.19l-.22-.28a.5.5,0,0,1-.44.22l-9.81-.57a.5.5,0,0,1-.42-.28l-9.44-19.26a.51.51,0,0,1,.06-.53.49.49,0,0,1,.49-.18l5.64,1.22a.47.47,0,0,1,.28.18l14.65,18.86a.51.51,0,0,1-.09.71A.5.5,0,0,1,181.91,244.05Zm-10.51-1.8,9.29.54L167,225.14l-4.45-1Z" fill="#231f20"/><polygon points="245.82 231.94 255.47 231.94 255.47 234.47 258 234.47 258 237.11 248.85 237.11 245.82 231.94" fill="#fff"/><path d="M258,237.61h-9.15a.48.48,0,0,1-.43-.25l-3-5.17a.5.5,0,0,1,.44-.75h9.64a.5.5,0,0,1,.5.5v2h2a.5.5,0,0,1,.5.5v2.64A.5.5,0,0,1,258,237.61Zm-8.86-1h8.36V235h-2a.5.5,0,0,1-.5-.5v-2H246.7Z" fill="#231f20"/><path d="M250.75,236.09c.21.07,10.63,0,10.63,0v2h-9.65Z" fill="#fff"/><path d="M261.38,238.63h-9.65a.5.5,0,0,1-.45-.28l-1-2a.48.48,0,0,1,.08-.55.49.49,0,0,1,.46-.16c.51,0,6.56,0,10.54,0h0a.5.5,0,0,1,.35.14.51.51,0,0,1,.15.36v2A.5.5,0,0,1,261.38,238.63Zm-9.33-1h8.83v-1c-5.68,0-8.19,0-9.32,0Z" fill="#231f20"/><polygon points="268.63 241.79 278.56 241.79 275.63 234.47 268.49 235.44 268.63 241.79" fill="#fff"/><path d="M278.56,242.29h-9.93a.51.51,0,0,1-.5-.49l-.14-6.35a.49.49,0,0,1,.43-.5l7.15-1a.53.53,0,0,1,.53.31l2.92,7.33a.5.5,0,0,1,0,.46A.49.49,0,0,1,278.56,242.29Zm-9.44-1h8.7l-2.5-6.27-6.32.86Z" fill="#231f20"/><polygon points="273.35 235.44 268.49 235.44 263.38 231.94 277.57 231.94 273.35 235.44" fill="#fff"/><path d="M273.35,235.94h-4.86a.47.47,0,0,1-.28-.09l-5.12-3.5a.5.5,0,0,1,.29-.91h14.19a.5.5,0,0,1,.32.88l-4.22,3.51A.54.54,0,0,1,273.35,235.94Zm-4.7-1h4.52l3-2.5H265Z" fill="#231f20"/><polygon points="276.3 230.88 270.39 236.79 270.39 240.81 276.3 242.21 280.88 240.38 276.3 230.88" fill="#fff"/><path d="M276.3,242.71h-.11l-5.92-1.41a.5.5,0,0,1-.38-.49v-4a.47.47,0,0,1,.15-.35l5.91-5.91a.47.47,0,0,1,.44-.14.48.48,0,0,1,.36.27l4.58,9.51a.44.44,0,0,1,0,.39.53.53,0,0,1-.28.29l-4.57,1.83A.58.58,0,0,1,276.3,242.71Zm-5.41-2.3,5.38,1.28,3.93-1.57-4-8.39L270.89,237Z" fill="#231f20"/><polygon points="281.65 233.91 276.3 230.88 276.3 242.21 281.65 240.38 281.65 233.91" fill="#fff"/><path d="M276.3,242.71a.52.52,0,0,1-.29-.09.51.51,0,0,1-.21-.41V230.88a.5.5,0,0,1,.25-.43.52.52,0,0,1,.5,0l5.35,3a.5.5,0,0,1,.25.44v6.47a.5.5,0,0,1-.33.48l-5.35,1.83Zm.5-11v9.77l4.35-1.49V234.2Z" fill="#231f20"/><polygon points="275.11 244.47 274.82 241.37 281.65 233.91 285.38 236.79 285.38 239.19 286.93 240.81 286.93 245.31 275.11 244.47" fill="#fff"/><path d="M286.93,245.81h0L275.08,245a.49.49,0,0,1-.47-.45l-.28-3.1a.45.45,0,0,1,.13-.38l6.82-7.46a.51.51,0,0,1,.68-.06l3.73,2.89a.49.49,0,0,1,.19.39V239l1.41,1.47a.49.49,0,0,1,.14.34v4.51a.49.49,0,0,1-.16.37A.51.51,0,0,1,286.93,245.81ZM275.57,244l10.86.77V241L285,239.53a.49.49,0,0,1-.14-.34V237l-3.17-2.46-6.37,7Z" fill="#231f20"/><polygon points="263.38 209.01 264.69 214.83 271.26 218.96 271.26 222.72 277.27 223.71 276.33 228.72 242.35 228.72 235.59 214.83 236.53 204.88 263.38 209.01" fill="#fff"/><path d="M276.33,229.22h-34a.51.51,0,0,1-.45-.28l-6.75-13.89a.49.49,0,0,1-.05-.27l.94-9.94a.48.48,0,0,1,.19-.35.46.46,0,0,1,.38-.1l26.84,4.13a.49.49,0,0,1,.41.38l1.27,5.62,6.39,4a.49.49,0,0,1,.24.42v3.33l5.59.92a.51.51,0,0,1,.32.21.52.52,0,0,1,.09.38l-.94,5A.5.5,0,0,1,276.33,229.22Zm-33.66-1h33.24l.77-4.1-5.5-.91a.51.51,0,0,1-.42-.5v-3.47l-6.34-4a.5.5,0,0,1-.22-.31L263,209.45l-26-4-.87,9.28Z" fill="#231f20"/><polygon points="218.14 193.25 220.95 191.18 238.79 192.21 263.38 209.01 238.79 209.76 230.53 207.7 218.14 193.25" fill="#fff"/><path d="M238.79,210.26h-.12l-8.26-2.07a.42.42,0,0,1-.26-.16l-12.39-14.45a.49.49,0,0,1-.12-.38.52.52,0,0,1,.2-.35l2.82-2.06a.53.53,0,0,1,.32-.1l17.84,1a.58.58,0,0,1,.25.09l24.59,16.8a.47.47,0,0,1,.19.55.48.48,0,0,1-.46.36l-24.59.75Zm-8-3,8,2,23-.7L238.62,192.7l-17.52-1-2.23,1.64Z" fill="#231f20"/><path d="M236.32,210.29l-.14,0a.5.5,0,0,1-.34-.63l1.74-5.75a.5.5,0,0,1,.55-.35l1.68.24a.49.49,0,0,1,.4.29l2.33,5.39a.5.5,0,0,1-.92.4l-2.22-5.13-1-.14-1.61,5.34A.49.49,0,0,1,236.32,210.29Z" fill="#231f20"/><polygon points="221.44 195.69 224.07 192.87 229.92 193.25 231.82 197.02 226.33 198.01 221.44 195.69" fill="#fff"/><path d="M226.33,198.51a.54.54,0,0,1-.22,0l-4.88-2.32a.5.5,0,0,1-.16-.79l2.64-2.82a.54.54,0,0,1,.4-.16l5.84.38a.48.48,0,0,1,.41.27l1.9,3.78a.51.51,0,0,1,0,.45.47.47,0,0,1-.35.26l-5.49,1Zm-4.06-3,4.13,2,4.67-.84-1.47-2.92-5.32-.35Z" fill="#231f20"/><polygon points="223.09 196.91 224.91 194.38 231.62 194.56 232.66 196.73 225.56 198.71 223.09 196.91" fill="#fff"/><path d="M225.56,199.21a.53.53,0,0,1-.3-.09l-2.47-1.81a.5.5,0,0,1-.11-.69l1.82-2.53a.5.5,0,0,1,.42-.21l6.71.18a.49.49,0,0,1,.44.28l1,2.17a.51.51,0,0,1-.32.7l-7.1,2A.3.3,0,0,1,225.56,199.21Zm-1.78-2.41,1.87,1.37,6.3-1.76-.65-1.36-6.14-.16Z" fill="#231f20"/><path d="M95.38,221.1a32.22,32.22,0,0,1,8.07-1.11c4,.06,47.49,10.23,47.49,10.23l17.46,2.11,8.72,15.56-4.22,6.28H39.5V223.75Z" fill="#68e1fd"/><path d="M172.9,254.67H39.5a.5.5,0,0,1-.5-.5V223.75a.5.5,0,0,1,.48-.5L95.3,220.6a32.32,32.32,0,0,1,8.16-1.11c4,.06,45.82,9.83,47.59,10.25l17.41,2.1a.51.51,0,0,1,.37.25l8.73,15.56a.51.51,0,0,1,0,.52l-4.22,6.28A.51.51,0,0,1,172.9,254.67Zm-132.9-1H172.63l3.91-5.8-8.46-15.07-17.2-2.08c-.49-.11-43.52-10.17-47.44-10.23a31.14,31.14,0,0,0-7.92,1.09l-.12,0L40,224.22ZM95.38,221.1h0Z" fill="#231f20"/><polyline points="154.37 235.67 154.37 232.8 157.6 228.72 159.2 228.72 163.7 233.88 162.67 243.55 154.37 236.14" fill="#fff"/><path d="M162.67,244.05a.46.46,0,0,1-.33-.13L154,236.51a.52.52,0,0,1-.11-.61.59.59,0,0,1,0-.23V232.8a.5.5,0,0,1,.1-.31l3.24-4.08a.51.51,0,0,1,.39-.19h1.6a.52.52,0,0,1,.38.17l4.5,5.16a.55.55,0,0,1,.12.39l-1,9.66a.5.5,0,0,1-.32.42Zm-7.85-8.18,7.46,6.66.9-8.48L159,229.22h-1.13l-3,3.76v2.69A.46.46,0,0,1,154.82,235.87Z" fill="#231f20"/><polygon points="151.93 242.28 152.18 237.92 156.05 232.34 158.21 232.34 162.29 238.01 162.29 245.52 151.93 242.28" fill="#fff"/><path d="M162.29,246l-.14,0-10.37-3.24a.5.5,0,0,1-.35-.51l.25-4.36a.62.62,0,0,1,.09-.26l3.87-5.58a.53.53,0,0,1,.41-.22h2.16a.51.51,0,0,1,.41.21l4.08,5.68a.52.52,0,0,1,.09.29v7.51a.48.48,0,0,1-.2.4A.47.47,0,0,1,162.29,246Zm-9.84-4.1,9.34,2.92v-6.67L158,232.83h-1.64l-3.65,5.26Z" fill="#231f20"/><polygon points="146.29 229.05 141.88 223.47 139.21 223.47 136.06 230.53 140.34 236.87 146.29 229.05" fill="#231f20"/><path d="M140.34,237.37h0a.53.53,0,0,1-.4-.22l-4.27-6.34a.51.51,0,0,1,0-.49l3.14-7.06a.5.5,0,0,1,.46-.29h2.67a.51.51,0,0,1,.4.19l4.41,5.58a.5.5,0,0,1,0,.61l-6,7.82A.5.5,0,0,1,140.34,237.37Zm-3.71-6.89,3.73,5.53,5.3-6.95-4-5.09h-2.11Z" fill="#231f20"/><polyline points="132.5 235.85 132.62 235.51 135.13 228.72 137.19 228.72 141.4 235.47 138.13 240.97" fill="#fff"/><path d="M138.13,241.47a.48.48,0,0,1-.26-.07.51.51,0,0,1-.17-.69l3.11-5.23-3.9-6.26h-1.44L133,236a.5.5,0,0,1-.65.29.49.49,0,0,1-.29-.64l2.63-7.13a.49.49,0,0,1,.46-.33h2.07a.49.49,0,0,1,.42.24l4.21,6.74a.49.49,0,0,1,0,.52l-3.27,5.5A.5.5,0,0,1,138.13,241.47Z" fill="#231f20"/><polygon points="150.94 246.37 150.94 241.61 156.1 235.2 157.98 235.2 162.76 241.61 162.76 250.27 150.94 246.37" fill="#231f20"/><path d="M162.76,250.77l-.15,0-11.83-3.9a.51.51,0,0,1-.34-.47v-4.76a.51.51,0,0,1,.11-.31l5.16-6.42a.53.53,0,0,1,.39-.18H158a.48.48,0,0,1,.4.2l4.79,6.41a.53.53,0,0,1,.09.3v8.66a.48.48,0,0,1-.2.4A.47.47,0,0,1,162.76,250.77ZM151.44,246l10.82,3.58v-7.8l-4.53-6.08h-1.39l-4.9,6.09Z" fill="#231f20"/><path d="M68.35,214.08l-9.95,1.6s1.31-8.36.75-8.54-11.26-2.26-12.58-1.88-7.07,5.18-7.07,5.18v9.22s10.45,1.93,13.27,3.05.37,9.77.37,9.77l.79,4.5,11.23-5.63Z" fill="#231f20"/><path d="M53.92,237.48a.59.59,0,0,1-.22,0,.52.52,0,0,1-.27-.36l-.78-4.51a.55.55,0,0,1,0-.22c.9-3.17,1.67-8.46-.08-9.16-2.73-1.1-13.06-3-13.17-3a.5.5,0,0,1-.41-.5v-9.22a.53.53,0,0,1,.18-.38c.6-.5,5.88-4.89,7.26-5.28,1.58-.46,12.78,1.85,12.87,1.88.42.14.94.31-.31,8.41l9.27-1.48a.52.52,0,0,1,.44.14.51.51,0,0,1,.13.44l-3.19,17.27a.52.52,0,0,1-.27.36l-11.23,5.63A.59.59,0,0,1,53.92,237.48Zm-.26-5,.64,3.73L64.71,231l3-16.32-9.25,1.48a.49.49,0,0,1-.43-.14.46.46,0,0,1-.14-.43,58.33,58.33,0,0,0,.87-8c-1.72-.42-11-2.11-12.07-1.81-.86.24-4.49,3.1-6.71,4.94v8.57c2,.37,10.41,2,13,3C56,223.47,54,231.17,53.66,232.5Z" fill="#231f20"/><path d="M64.41,221.21s-3.19,1.32-3.57,1.5-2.44,7-2.44,7,11.45-3.4,13.51-2.84,13.6,7,13.6,7L102,226.09l-4.59-7.88-28.12,1.45Z" fill="#fff"/><path d="M85.51,234.38a.54.54,0,0,1-.25-.06c-4-2.23-11.89-6.56-13.48-7-1.41-.38-8.69,1.48-13.24,2.83A.51.51,0,0,1,58,230a.54.54,0,0,1-.12-.5c2.13-7,2.48-7.17,2.7-7.27.38-.19,3.27-1.38,3.6-1.52h0l4.91-1.55a.25.25,0,0,1,.12,0l28.13-1.46a.5.5,0,0,1,.45.25l4.59,7.88a.51.51,0,0,1,.05.4.49.49,0,0,1-.27.31l-16.52,7.79A.52.52,0,0,1,85.51,234.38Zm-14.19-8.09a3,3,0,0,1,.73.07c2,.54,11.81,6,13.48,7l15.8-7.45-4.17-7.14-27.75,1.43-4.83,1.52c-1.18.49-2.95,1.22-3.42,1.44a58.64,58.64,0,0,0-2,5.82C61.74,228.2,68.62,226.29,71.32,226.29Z" fill="#231f20"/><polygon points="113.02 230.22 128.79 218.21 113.02 217.27 92 227.78 113.02 230.22" fill="#fff"/><path d="M113,230.72H113l-21-2.44a.49.49,0,0,1-.43-.41.48.48,0,0,1,.27-.53l21-10.52a.53.53,0,0,1,.25,0l15.77.94a.49.49,0,0,1,.45.35.51.51,0,0,1-.18.55l-15.76,12A.5.5,0,0,1,113,230.72Zm-19.3-3.24,19.16,2.22,14.54-11.07-14.29-.85Z" fill="#231f20"/><polygon points="113.02 230.22 113.02 249.56 130.85 233.79 128.79 218.21 113.02 230.22" fill="#fff"/><path d="M113,250.06a.46.46,0,0,1-.2-.05.5.5,0,0,1-.3-.45V230.22a.5.5,0,0,1,.2-.39l15.77-12a.48.48,0,0,1,.49-.06.51.51,0,0,1,.31.39l2.06,15.58a.51.51,0,0,1-.16.44l-17.84,15.77A.51.51,0,0,1,113,250.06Zm.5-19.59v18l16.8-14.86-1.91-14.46Z" fill="#231f20"/><path d="M92,227.78s-1.13,17.65-.94,18.21,22,3.57,22,3.57V230.22Z" fill="#d1d3d4"/><path d="M113,250.06H113c-22.08-3-22.24-3.52-22.36-3.9-.19-.57.49-11.77.91-18.4a.48.48,0,0,1,.18-.35.47.47,0,0,1,.38-.11l21,2.44a.5.5,0,0,1,.44.49v19.34a.48.48,0,0,1-.17.37A.51.51,0,0,1,113,250.06Zm-21.48-4.39c1.79.54,13.38,2.26,21,3.31V230.67l-20.06-2.33C92.06,234.79,91.52,244,91.54,245.67Zm0,.21h0Zm-.2-.28Z" fill="#231f20"/><polygon points="78.67 254.17 99.13 240.36 72.85 232.47 39.5 247.87 39.5 254.17 78.67 254.17" fill="#231f20"/><path d="M78.67,254.67H39.5a.5.5,0,0,1-.5-.5v-6.3a.52.52,0,0,1,.29-.46L72.64,232a.5.5,0,0,1,.36,0l26.28,7.88a.51.51,0,0,1,.35.4.5.5,0,0,1-.22.49L79,254.59A.54.54,0,0,1,78.67,254.67Zm-38.67-1H78.52L98,240.53,72.89,233,40,248.19Z" fill="#231f20"/><polygon points="99.13 240.36 99.69 251.06 96.32 254.17 78.67 254.17 99.13 240.36" fill="#fff"/><path d="M96.32,254.67H78.67a.5.5,0,0,1-.28-.91l20.46-13.82a.5.5,0,0,1,.5,0,.49.49,0,0,1,.28.42l.56,10.7a.5.5,0,0,1-.16.4l-3.37,3.11A.55.55,0,0,1,96.32,254.67Zm-16-1H96.12l3.06-2.82-.5-9.58Z" fill="#231f20"/><polygon points="149.11 245.94 151.45 243.83 156.48 244.47 160.04 248.75 159.39 254.17 144.32 254.17 149.11 245.94" fill="#fff"/><path d="M159.39,254.67H144.32a.48.48,0,0,1-.43-.25.5.5,0,0,1,0-.5l4.79-8.23a.94.94,0,0,1,.09-.12l2.35-2.11a.46.46,0,0,1,.39-.12l5,.63a.46.46,0,0,1,.32.18l3.57,4.28a.47.47,0,0,1,.11.38l-.66,5.42A.5.5,0,0,1,159.39,254.67Zm-14.2-1h13.75l.58-4.77-3.3-4-4.6-.58-2.12,1.9Z" fill="#231f20"/><path d="M127.15,254.17l19.14-25.12s2.68,17.32,2.82,16.89-4.79,8.23-4.79,8.23Z" fill="#fff"/><path d="M144.32,254.67H127.15a.5.5,0,0,1-.45-.28.49.49,0,0,1,0-.52l19.15-25.12a.48.48,0,0,1,.52-.18.49.49,0,0,1,.37.4c1,6.18,2.44,15.51,2.74,16.68a.54.54,0,0,1,.05.45.46.46,0,0,1-.13.21c-.42.65-3,5.13-4.69,8.11A.52.52,0,0,1,144.32,254.67Zm-16.16-1H144c2.84-5,4-7,4.57-7.8-.35-1.15-.93-4.68-2.62-15.58Z" fill="#231f20"/><polygon points="103.45 254.17 123.16 254.17 127.85 247.68 111.33 246.37 103.45 254.17" fill="#231f20"/><path d="M123.16,254.67H103.45a.49.49,0,0,1-.46-.31.47.47,0,0,1,.11-.54L111,246a.47.47,0,0,1,.39-.14l16.52,1.31a.54.54,0,0,1,.42.29.52.52,0,0,1-.05.5l-4.7,6.49A.49.49,0,0,1,123.16,254.67Zm-18.49-1H122.9l4-5.56-15.4-1.23Z" fill="#231f20"/><path d="M111.33,254.67a.5.5,0,0,1-.5-.5v-7.8a.5.5,0,0,1,.5-.5.5.5,0,0,1,.5.5v7.8A.5.5,0,0,1,111.33,254.67Z" fill="#231f20"/><polygon points="132.07 230.53 129.54 237.15 132.07 244.47 138.69 236.72 134.18 230.53 132.07 230.53" fill="#231f20"/><path d="M132.07,245H132a.51.51,0,0,1-.38-.33l-2.53-7.32a.5.5,0,0,1,0-.34l2.54-6.62a.5.5,0,0,1,.46-.32h2.11a.48.48,0,0,1,.4.2l4.52,6.2a.51.51,0,0,1,0,.62l-6.62,7.74A.49.49,0,0,1,132.07,245Zm-2-7.82,2.19,6.33,5.79-6.78L133.93,231h-1.51Z" fill="#231f20"/><polygon points="123.56 245.87 123.56 242.14 127.5 235.46 129.96 235.46 133.06 242.85 138.13 236.09 134.18 230.53 132.07 230.53 132.57 229.68 134.54 229.68 140.34 236.87 131.95 247.26 123.56 245.87" fill="#fff"/><path d="M132,247.77h-.08l-8.39-1.39a.5.5,0,0,1-.42-.5v-3.73a.45.45,0,0,1,.07-.25l3.94-6.69a.5.5,0,0,1,.43-.24H130a.49.49,0,0,1,.46.3l2.76,6.59,4.33-5.77L133.92,231h-1.85a.52.52,0,0,1-.43-.25.5.5,0,0,1,0-.5l.5-.85a.5.5,0,0,1,.43-.25h2a.51.51,0,0,1,.39.19l5.79,7.18a.5.5,0,0,1,0,.63l-8.38,10.4A.51.51,0,0,1,132,247.77Zm-7.89-2.32,7.68,1.27,7.95-9.85-3.31-4.11,2.16,3a.51.51,0,0,1,0,.59l-5.07,6.76a.5.5,0,0,1-.86-.11l-3-7.08h-1.84l-3.73,6.32Z" fill="#231f20"/><polygon points="39.5 238.67 69.32 226.09 72.85 232.47 39.5 247.87 39.5 238.67" fill="#fff"/><path d="M39.5,248.37a.53.53,0,0,1-.27-.08.5.5,0,0,1-.23-.42v-9.2a.5.5,0,0,1,.31-.46l29.81-12.58a.5.5,0,0,1,.63.22l3.54,6.38a.51.51,0,0,1,0,.4.5.5,0,0,1-.27.3L39.71,248.32A.54.54,0,0,1,39.5,248.37ZM40,239v8.09l32.16-14.84-3.06-5.52Z" fill="#231f20"/><polygon points="62.34 254.17 74.17 247.26 85.51 249.56 78.67 254.17 62.34 254.17" fill="#fff"/><path d="M78.67,254.67H62.34a.5.5,0,0,1-.48-.37.49.49,0,0,1,.23-.56l11.83-6.91a.53.53,0,0,1,.35-.06l11.34,2.3a.5.5,0,0,1,.18.9L79,254.59A.54.54,0,0,1,78.67,254.67Zm-14.48-1H78.52l5.72-3.86-10-2Z" fill="#231f20"/><line x1="74.17" y1="247.27" x2="72.85" y2="232.48" fill="#fff"/><path d="M74.17,247.77a.5.5,0,0,1-.5-.46l-1.31-14.79a.48.48,0,0,1,.45-.54.51.51,0,0,1,.54.45l1.32,14.79a.5.5,0,0,1-.46.54Z" fill="#231f20"/><polygon points="39.5 223.75 56.18 217.27 56.98 231.3 39.5 238.67 39.5 223.75" fill="#fff"/><path d="M39.5,239.17a.53.53,0,0,1-.27-.08.52.52,0,0,1-.23-.42V223.75a.51.51,0,0,1,.32-.47L56,216.8a.51.51,0,0,1,.68.44l.8,14a.5.5,0,0,1-.3.49L39.7,239.13A.48.48,0,0,1,39.5,239.17Zm.5-15.08v13.83L56.46,231l-.74-13Z" fill="#231f20"/><polygon points="56.18 217.27 39.5 215.58 39.5 223.75 56.18 217.27" fill="#fff"/><path d="M39.5,224.25a.47.47,0,0,1-.28-.09.49.49,0,0,1-.22-.41v-8.17a.5.5,0,0,1,.17-.37.51.51,0,0,1,.38-.13l16.68,1.69a.5.5,0,0,1,.44.43.52.52,0,0,1-.31.54l-16.68,6.47A.39.39,0,0,1,39.5,224.25Zm.5-8.11V223l14.06-5.46Z" fill="#231f20"/><polygon points="64.41 217.27 89.18 217.27 95.38 214.08 68.35 214.08 64.41 217.27" fill="#fff"/><path d="M89.18,217.77H64.41a.51.51,0,0,1-.48-.33.52.52,0,0,1,.16-.56L68,213.69a.52.52,0,0,1,.32-.11h27a.49.49,0,0,1,.48.38.49.49,0,0,1-.25.56l-6.2,3.2A.59.59,0,0,1,89.18,217.77Zm-23.36-1H89.06l4.26-2.19H68.53Z" fill="#231f20"/><polygon points="95.38 214.08 97.44 218.21 88.06 222.72 89.18 217.27 95.38 214.08" fill="#fff"/><path d="M88.06,223.21a.49.49,0,0,1-.49-.6l1.12-5.44a.49.49,0,0,1,.27-.34l6.19-3.19a.47.47,0,0,1,.38,0,.55.55,0,0,1,.3.26L97.89,218a.5.5,0,0,1,0,.38.53.53,0,0,1-.26.29l-9.39,4.51A.49.49,0,0,1,88.06,223.21Zm1.56-5.6-.87,4.22,8-3.85-1.61-3.22Z" fill="#231f20"/><polygon points="88.06 222.72 64.41 221.21 64.41 217.27 89.18 217.27 88.06 222.72" fill="#231f20"/><path d="M88.06,223.21h0l-23.65-1.5a.49.49,0,0,1-.47-.5v-3.94a.5.5,0,0,1,.5-.5H89.18a.49.49,0,0,1,.39.19.47.47,0,0,1,.1.41l-1.12,5.45A.5.5,0,0,1,88.06,223.21Zm-23.15-2.47,22.75,1.45.91-4.42H64.91Z" fill="#231f20"/><path d="M59.15,207.14s-6.38,3.56-8.45,5.63a16,16,0,0,0-2.86,3.66" fill="#fff"/><path d="M47.84,216.93a.43.43,0,0,1-.22-.06.5.5,0,0,1-.23-.67,16.59,16.59,0,0,1,3-3.79c2.09-2.09,8.29-5.56,8.56-5.71a.5.5,0,1,1,.48.87c-.06,0-6.34,3.56-8.33,5.55a15.28,15.28,0,0,0-2.77,3.53A.5.5,0,0,1,47.84,216.93Z" fill="#231f20"/><polygon points="144.32 254.17 149.11 249.56 155.35 249.56 164.45 237.5 165.39 254.17 144.32 254.17" fill="#fff"/><path d="M165.39,254.67H144.32a.5.5,0,0,1-.34-.86l4.79-4.61a.48.48,0,0,1,.34-.14h6l9-11.86a.51.51,0,0,1,.55-.18.49.49,0,0,1,.35.45l.94,16.67a.5.5,0,0,1-.13.37A.52.52,0,0,1,165.39,254.67Zm-19.83-1h19.3L164,238.89l-8.28,11a.51.51,0,0,1-.4.2h-6Z" fill="#231f20"/><path d="M96.32,254.17l13.14-10.85s24.86,1.45,24.72,1.62l-7,9.23h-4.37l5.07-6.49-16.52-1.31-7.88,7.8Z" fill="#fff"/><path d="M127.15,254.67h-4.37a.5.5,0,0,1-.39-.81l4.5-5.76-15.37-1.22-7.72,7.65a.5.5,0,0,1-.35.14H96.32a.5.5,0,0,1-.47-.33.47.47,0,0,1,.15-.55l13.14-10.85a.53.53,0,0,1,.35-.12c24.93,1.45,25,1.54,25.14,1.91a.51.51,0,0,1,0,.52l-7,9.22A.47.47,0,0,1,127.15,254.67Zm-3.34-1h3.09l6.35-8.34c-3.21-.28-15.25-1-23.63-1.5l-11.91,9.84h5.53L111,246a.47.47,0,0,1,.39-.14l16.52,1.31a.51.51,0,0,1,.42.3.52.52,0,0,1-.06.51Z" fill="#231f20"/><polygon points="191.2 236.14 191.2 245.1 194.3 254.06 199.09 254.44 198.34 245.52 191.2 236.14" fill="#fff"/><path d="M199.09,254.94h0l-4.79-.38a.5.5,0,0,1-.43-.34l-3.1-9a.45.45,0,0,1,0-.16v-9a.5.5,0,0,1,.9-.31l7.13,9.39a.4.4,0,0,1,.1.26l.75,8.92a.48.48,0,0,1-.14.39A.51.51,0,0,1,199.09,254.94Zm-4.42-1.35,3.87.3-.69-8.18-6.15-8.09V245Z" fill="#231f20"/><polygon points="164.69 241.61 195.8 244.86 195.43 254.17 165.39 254.17 164.69 241.61" fill="#231f20"/><path d="M195.43,254.67h-30a.51.51,0,0,1-.5-.47l-.7-12.56a.47.47,0,0,1,.15-.39.53.53,0,0,1,.4-.14l31.11,3.26a.49.49,0,0,1,.45.51l-.37,9.31A.5.5,0,0,1,195.43,254.67Zm-29.56-1H195l.33-8.36-30.06-3.14Z" fill="#231f20"/><polygon points="177.12 254.17 182.94 247.26 185.48 247.26 192.14 254.17 177.12 254.17" fill="#fff"/><path d="M192.14,254.67h-15a.49.49,0,0,1-.45-.29.51.51,0,0,1,.07-.53l5.82-6.91a.52.52,0,0,1,.38-.17h2.54a.51.51,0,0,1,.36.15l6.66,6.9a.5.5,0,0,1-.36.85Zm-13.94-1H191l-5.69-5.9h-2.09Z" fill="#231f20"/><polygon points="187.15 249 187.15 240.38 189.58 240.38 189.58 247 191.84 247.26 192.14 254.17 187.15 249" fill="#fff"/><path d="M192.14,254.67a.51.51,0,0,1-.36-.15l-5-5.17a.5.5,0,0,1-.14-.35v-8.62a.51.51,0,0,1,.5-.5h2.43a.5.5,0,0,1,.5.5v6.17l1.81.22a.51.51,0,0,1,.45.47l.3,6.91a.49.49,0,0,1-.3.48A.48.48,0,0,1,192.14,254.67Zm-4.49-5.87,3.93,4.07-.22-5.16-1.84-.21a.51.51,0,0,1-.44-.5v-6.12h-1.43Z" fill="#231f20"/><path d="M259.43,252.17s-17.83-12.75-19-17-7.92-21.21-10.92-23.28-11.42-11.17-11.42-11.17v-7.51l10.13,7.51,5.07,3-.56,3.75,6,2.25-1.13,7,4.79,3.38-.1,8.63,13.14,10.21v4.9l3.94,2Z" fill="#d1d3d4"/><path d="M259.43,252.67a.52.52,0,0,1-.29-.09c-.73-.53-18-12.91-19.15-17.25-1.11-4.16-7.89-21.05-10.71-23-3-2.07-11.16-10.86-11.51-11.24a.51.51,0,0,1-.13-.34v-7.51a.49.49,0,0,1,.27-.44.51.51,0,0,1,.53,0l10.13,7.51,5,3a.5.5,0,0,1,.24.5l-.51,3.35,5.63,2.11a.51.51,0,0,1,.32.55l-1.08,6.64,4.53,3.2a.49.49,0,0,1,.22.41l-.09,8.39,12.94,10.05a.51.51,0,0,1,.19.4v4.59l3.67,1.87a.49.49,0,0,1,.27.44v6.34a.5.5,0,0,1-.27.45A.59.59,0,0,1,259.43,252.67Zm-40.79-52.11c1.08,1.16,8.48,9.08,11.2,10.95,3.26,2.24,10.1,19.74,11.12,23.56.84,3.16,12.59,12.21,18,16.12v-5.05l-3.67-1.86a.52.52,0,0,1-.27-.45v-4.66l-12.94-10a.51.51,0,0,1-.2-.4l.09-8.38-4.57-3.22a.47.47,0,0,1-.2-.49l1.06-6.54L232.6,208a.49.49,0,0,1-.31-.54l.51-3.42L228,201.18l-9.38-6.94Z" fill="#231f20"/><path d="M259.43,245.83s18.21,1.44,21,0,4.64-2.14,4.64-2.14.28,4.48-2.39,7-23.28,1.45-23.28,1.45Z" fill="#fff"/><path d="M268.81,252.92c-4.48,0-8.49-.2-9.4-.25a.5.5,0,0,1-.48-.5v-6.34a.48.48,0,0,1,.16-.36.51.51,0,0,1,.38-.13c5,.39,18.55,1.17,20.76,0,2.81-1.44,4.62-2.14,4.69-2.17a.51.51,0,0,1,.45.05.49.49,0,0,1,.23.39c0,.19.27,4.74-2.55,7.42C281.49,252.57,274.73,252.92,268.81,252.92Zm-8.88-1.22c8.21.41,20.62.38,22.43-1.34s2.19-4.61,2.24-5.92c-.77.32-2.15.94-3.92,1.84-2.67,1.37-17.33.35-20.75.09Z" fill="#231f20"/><polygon points="224.91 198.26 226.71 195.54 233.16 195.54 234.21 196.9 229.99 200.47 228.95 201.08 224.91 198.26" fill="#fff"/><path d="M229,201.58a.52.52,0,0,1-.29-.09l-4-2.82a.51.51,0,0,1-.13-.69l1.8-2.71a.5.5,0,0,1,.42-.23h6.44a.52.52,0,0,1,.4.2l1,1.35a.49.49,0,0,1-.07.69l-4.22,3.57-1.11.66A.47.47,0,0,1,229,201.58Zm-3.36-3.45,3.38,2.36.76-.45,3.79-3.21-.61-.79H227Z" fill="#231f20"/><path d="M226.71,199.59l1.38-2.57s7.83-.56,7.5-.35.94,5.07.94,5.07h-6.59Z" fill="#fff"/><path d="M236.53,202.24h-6.59a.47.47,0,0,1-.28-.09L226.43,200a.51.51,0,0,1-.17-.66l1.39-2.56a.5.5,0,0,1,.4-.27c7.84-.56,7.87-.49,8,0a.55.55,0,0,1,0,.4,32.41,32.41,0,0,0,1,4.71.51.51,0,0,1-.09.43A.49.49,0,0,1,236.53,202.24Zm-6.44-1h5.8a24.07,24.07,0,0,1-.83-4.12c-1.1,0-4,.19-6.66.38l-1,1.93Zm5.78-4.15Z" fill="#231f20"/><path d="M251.73,209.87a.49.49,0,0,1-.48-.39L250,204.35l-1-.64c-.11,1.06-.2,2-.2,2.18a.6.6,0,0,1-.25.46c-.19.12-.44.29-2.21-.49a.5.5,0,0,1-.3-.53l.42-3.09h-.75l-.22,1.86a.49.49,0,0,1-.23.36.51.51,0,0,1-.42.06l-2.9-.9a.48.48,0,0,1-.35-.47v-2.6l-.88-2.82-.74-.36-.66,1.06.4,3.25a.49.49,0,0,1-.27.5.48.48,0,0,1-.56-.07l-2-1.83a.51.51,0,0,1-.16-.37v-2.5c-2.56-2-6.52-5-7-5.25a.52.52,0,0,1-.3-.49.5.5,0,0,1,.53-.47c.2,0,.31,0,7.53,5.57a.5.5,0,0,1,.2.39v2.53l.87.79-.25-2.11a.52.52,0,0,1,.07-.32l1-1.59a.5.5,0,0,1,.64-.19l1.34.66a.52.52,0,0,1,.26.3l1,3.09a.77.77,0,0,1,0,.15v2.31l2,.6.21-1.7a.5.5,0,0,1,.49-.44H247a.5.5,0,0,1,.38.17.52.52,0,0,1,.12.4l-.44,3.28a7.89,7.89,0,0,0,.75.27c.06-.79.21-2.2.24-2.55a.5.5,0,0,1,.28-.39.48.48,0,0,1,.48,0l1.9,1.17a.48.48,0,0,1,.23.31l1.26,5.33a.5.5,0,0,1-.37.6Z" fill="#231f20"/><path d="M235.26,194.45c-2.47,0-2.57-.07-2.68-.16a.5.5,0,0,1-.1-.7.51.51,0,0,1,.55-.18c.55.07,5,0,7.78,0h0a.5.5,0,0,1,.5.49.49.49,0,0,1-.49.51C238.23,194.43,236.46,194.45,235.26,194.45Z" fill="#231f20"/><path d="M239.77,197.66h-2.6a.5.5,0,0,1-.5-.5.5.5,0,0,1,.5-.5h2.6a.5.5,0,0,1,.5.5A.5.5,0,0,1,239.77,197.66Z" fill="#231f20"/><path d="M246,197.87h-4.92a.5.5,0,0,1-.5-.5.5.5,0,0,1,.5-.5H246a.5.5,0,0,1,.5.5A.5.5,0,0,1,246,197.87Z" fill="#231f20"/><path d="M250,201h-7.94a.5.5,0,0,1-.5-.5.5.5,0,0,1,.5-.5H250a.51.51,0,0,1,.5.5A.5.5,0,0,1,250,201Z" fill="#231f20"/><path d="M232.78,207.51c.84-.47,11.45-1.13,11.45-1.13" fill="#fff"/><path d="M232.8,208a.49.49,0,0,1-.45-.27.48.48,0,0,1,.19-.66c.87-.48,9.14-1,11.66-1.18a.48.48,0,0,1,.53.46.49.49,0,0,1-.47.53c-5,.31-10.64.79-11.25,1.07A.5.5,0,0,1,232.8,208Z" fill="#231f20"/><path d="M258.54,207.41h-6.81a.5.5,0,0,1-.5-.5.51.51,0,0,1,.5-.5h6.81a.5.5,0,0,1,.5.5A.5.5,0,0,1,258.54,207.41Z" fill="#231f20"/><path d="M256.09,204.54h-5.62a.5.5,0,0,1-.5-.5.5.5,0,0,1,.5-.5h5.62a.5.5,0,0,1,.5.5A.5.5,0,0,1,256.09,204.54Z" fill="#231f20"/><polygon points="242.45 220.09 237.66 216.71 264.69 214.83 271.26 218.96 242.45 220.09" fill="#68e1fd"/><path d="M242.45,220.59a.48.48,0,0,1-.29-.09l-4.79-3.38a.51.51,0,0,1-.19-.55.48.48,0,0,1,.44-.36l27-1.88a.56.56,0,0,1,.3.08l6.56,4.13a.48.48,0,0,1,.22.55.49.49,0,0,1-.46.37l-28.81,1.13Zm-3.36-3.48,3.51,2.47,27-1.06-5.06-3.18Z" fill="#231f20"/><polygon points="242.41 223.65 271.26 222.72 277.27 223.71 242.41 225.62 242.41 223.65" fill="#68e1fd"/><path d="M242.41,226.12a.51.51,0,0,1-.35-.13.51.51,0,0,1-.15-.37v-2a.5.5,0,0,1,.48-.5l28.85-.93,6.11,1a.5.5,0,0,1-.06,1l-34.86,1.91Zm.5-2v1l29.78-1.64-1.51-.25Z" fill="#231f20"/><path d="M286.93,246.27v3.38l20.09.66,6.1-4-.66-3.1L307,239.33s-1.88.47-1.5.65,4,3.29,4,3.29l-2.63,2.63Z" fill="#fff"/><path d="M307,250.81h0l-20.08-.66a.51.51,0,0,1-.49-.5v-3.38a.51.51,0,0,1,.49-.5l19.79-.37,2.1-2.1c-1.43-1.21-3.26-2.72-3.53-2.87a.69.69,0,0,1-.31-.56c0-.27.06-.56,1.93-1a.5.5,0,0,1,.41.08l5.44,3.85a.52.52,0,0,1,.2.3l.66,3.1a.51.51,0,0,1-.22.52l-6.1,4A.46.46,0,0,1,307,250.81Zm-19.59-1.64,19.44.63,5.69-3.76-.55-2.57-5.09-3.6-.51.15c.95.75,2.63,2.16,3.46,2.87a.5.5,0,0,1,.18.36.48.48,0,0,1-.15.37l-2.62,2.63a.58.58,0,0,1-.35.15l-19.5.36Z" fill="#231f20"/><path d="M281.54,251.33c.33-.12,9,0,9,0v2.84H280.18Z" fill="#fff"/><path d="M290.59,254.67H280.17a.5.5,0,0,1-.42-.23.53.53,0,0,1,0-.49l1.37-2.84a.57.57,0,0,1,.28-.25c.1,0,.41-.15,9.23,0a.51.51,0,0,1,.49.5v2.84A.5.5,0,0,1,290.59,254.67Zm-9.62-1h9.12v-1.85c-2.94,0-7.16-.07-8.22,0Z" fill="#231f20"/><path d="M288.9,244.82h3s-.75,1.64,1.31,2.39,7.79,1.15,7.79,1.15v5.81H288.43Z" fill="#fff"/><path d="M301,254.67H288.43a.55.55,0,0,1-.36-.15.51.51,0,0,1-.13-.37l.46-9.36a.51.51,0,0,1,.5-.47h3a.48.48,0,0,1,.42.23.49.49,0,0,1,0,.47,1.3,1.3,0,0,0,0,.91,1.67,1.67,0,0,0,1,.81c2,.72,7.6,1.11,7.65,1.12a.5.5,0,0,1,.47.5v5.81A.5.5,0,0,1,301,254.67Zm-12.05-1h11.55v-4.85a39.61,39.61,0,0,1-7.46-1.14,2.61,2.61,0,0,1-1.62-1.37,2.16,2.16,0,0,1-.15-1h-1.9Z" fill="#231f20"/><polygon points="293.47 242.51 286.44 235.87 299.76 235.44 308.23 242.51 293.47 242.51" fill="#fff"/><path d="M308.23,243.06H293.47a.54.54,0,0,1-.38-.15l-7-6.64a.56.56,0,0,1-.14-.6.54.54,0,0,1,.5-.35l13.32-.43a.46.46,0,0,1,.37.13l8.47,7.07a.54.54,0,0,1,.16.61A.53.53,0,0,1,308.23,243.06ZM293.69,242h13l-7.13-6-11.79.38Z" fill="#231f20"/><polygon points="294.72 241.37 289.78 236.79 299.32 236.79 304.88 241.37 294.72 241.37" fill="#fff"/><path d="M304.88,241.87H294.72a.51.51,0,0,1-.34-.14l-4.94-4.57a.51.51,0,0,1,.34-.87h9.54a.47.47,0,0,1,.32.12L305.2,241a.52.52,0,0,1,.15.56A.5.5,0,0,1,304.88,241.87Zm-10-1h8.57l-4.35-3.58h-8.08Z" fill="#231f20"/><polygon points="299.32 236.79 299.32 241.37 294.72 241.37 289.78 236.79 299.32 236.79" fill="#231f20"/><path d="M299.32,241.87h-4.6a.51.51,0,0,1-.34-.14l-4.94-4.57a.51.51,0,0,1,.34-.87h9.54a.5.5,0,0,1,.5.5v4.58A.5.5,0,0,1,299.32,241.87Zm-4.4-1h3.9v-3.58h-7.76Z" fill="#231f20"/><polygon points="263.38 231.94 263.38 241.79 268.63 241.79 268.49 235.44 263.38 231.94" fill="#fff"/><path d="M268.63,242.29h-5.25a.5.5,0,0,1-.5-.5v-9.85a.51.51,0,0,1,.26-.45.54.54,0,0,1,.52,0l5.11,3.51a.47.47,0,0,1,.22.4l.14,6.35a.54.54,0,0,1-.14.36A.49.49,0,0,1,268.63,242.29Zm-4.75-1h4.24l-.12-5.58-4.12-2.83Z" fill="#231f20"/><polygon points="268.63 238.97 261.17 238.97 261.17 239.61 259.43 239.61 259.43 241.37 258 241.37 258 243.69 275.63 243.69 275.63 239.33 268.63 238.97" fill="#d1d3d4"/><path d="M275.63,244.19H258a.5.5,0,0,1-.5-.5v-2.32a.5.5,0,0,1,.5-.5h.93v-1.26a.5.5,0,0,1,.5-.5h1.24V239a.5.5,0,0,1,.5-.5h7.49l7,.35a.49.49,0,0,1,.47.5v4.36A.5.5,0,0,1,275.63,244.19Zm-17.13-1h16.63V239.8l-6.51-.33h-6.95v.14a.5.5,0,0,1-.5.5h-1.24v1.26a.5.5,0,0,1-.5.5h-.93Z" fill="#231f20"/><path d="M264.55,254.16a5.75,5.75,0,0,1,.46-2.39c.32-.76,1.1-1.54,1.84-1.19a3.4,3.4,0,0,1,1.93-3.82,3.87,3.87,0,0,1,4.94-2.8,3.2,3.2,0,0,1,5.83,1.41,3,3,0,0,1,3.24,4.24,4,4,0,0,1,1.59,1.06,1.42,1.42,0,0,1,.05,1.77,1.25,1.25,0,0,1,1.19,1.53Z" fill="#68e1fd"/><path d="M264.55,254.66a.51.51,0,0,1-.5-.49,6.31,6.31,0,0,1,.5-2.6,2.74,2.74,0,0,1,1.39-1.48,1.32,1.32,0,0,1,.33-.08,3.93,3.93,0,0,1,2.08-3.6,4.18,4.18,0,0,1,2-2.56,4.26,4.26,0,0,1,3.15-.48,3.76,3.76,0,0,1,3.71-1.22,3.81,3.81,0,0,1,2.71,2.67,3.44,3.44,0,0,1,3.48,4.54,3.74,3.74,0,0,1,1.33,1,2.1,2.1,0,0,1,.39,1.75,1.8,1.8,0,0,1,.67.56,1.6,1.6,0,0,1,.26,1.47.5.5,0,0,1-.47.33l-21.06.19Zm1.92-3.67a.41.41,0,0,0-.17,0,1.72,1.72,0,0,0-.83.93,5.23,5.23,0,0,0-.41,1.69l20.07-.18a.56.56,0,0,0-.11-.2.71.71,0,0,0-.56-.33.46.46,0,0,1-.48-.3.49.49,0,0,1,.09-.55A.91.91,0,0,0,284,251a3.76,3.76,0,0,0-1.4-.92.5.5,0,0,1-.23-.68,2.46,2.46,0,0,0-2.69-3.52.49.49,0,0,1-.6-.43,2.7,2.7,0,0,0-4.92-1.19.52.52,0,0,1-.59.19,3.15,3.15,0,0,0-2.67.29,3.18,3.18,0,0,0-1.61,2.13.51.51,0,0,1-.3.38,2.88,2.88,0,0,0-1.63,3.23.5.5,0,0,1-.17.5.49.49,0,0,1-.53.07A.35.35,0,0,0,266.47,251Z" fill="#231f20"/><polygon points="242.41 225.62 277.27 223.71 276.33 228.72 242.35 228.72 242.41 225.62" fill="#231f20"/><path d="M276.33,229.22h-34a.47.47,0,0,1-.35-.15.48.48,0,0,1-.15-.36l.06-3.09a.5.5,0,0,1,.47-.5l34.86-1.91a.48.48,0,0,1,.4.17.49.49,0,0,1,.12.42l-.94,5A.5.5,0,0,1,276.33,229.22Zm-33.47-1h33.05l.75-4L242.9,226.1Z" fill="#231f20"/><polygon points="242.41 223.65 271.26 222.72 271.26 218.96 242.45 220.09 242.41 223.65" fill="#231f20"/><path d="M242.41,224.15a.5.5,0,0,1-.35-.14.51.51,0,0,1-.15-.37l0-3.56a.49.49,0,0,1,.48-.49l28.81-1.13a.52.52,0,0,1,.37.14.51.51,0,0,1,.15.36v3.75a.5.5,0,0,1-.48.5l-28.86.94Zm.53-3.58,0,2.56,27.85-.9v-2.75Z" fill="#231f20"/><polygon points="237.66 216.71 238.79 209.76 263.38 209.01 264.69 214.83 237.66 216.71" fill="#231f20"/><path d="M237.66,217.21a.48.48,0,0,1-.37-.17.47.47,0,0,1-.12-.41l1.12-6.95a.51.51,0,0,1,.48-.42l24.59-.75a.47.47,0,0,1,.5.39l1.32,5.82a.51.51,0,0,1-.09.41.49.49,0,0,1-.37.2l-27,1.88Zm1.55-7-1,5.92,25.82-1.8L263,209.52Z" fill="#231f20"/><polyline points="257.44 234.47 257.44 230.25 261.66 230.25 261.66 229.05" fill="#fff"/><path d="M257.44,235a.5.5,0,0,1-.5-.5v-4.22a.5.5,0,0,1,.5-.5h3.72v-.7a.5.5,0,0,1,.5-.5.5.5,0,0,1,.5.5v1.2a.5.5,0,0,1-.5.5h-3.72v3.72A.5.5,0,0,1,257.44,235Z" fill="#231f20"/><polyline points="288.43 229 298.9 229 304.44 233.69 293.22 233.91 289 229.24" fill="#fff"/><path d="M293.22,234.41a.48.48,0,0,1-.37-.17l-4.22-4.67-.06-.07h-.14a.5.5,0,0,1-.5-.5.51.51,0,0,1,.5-.5H298.9a.47.47,0,0,1,.32.12l5.54,4.69a.5.5,0,0,1,.15.55.52.52,0,0,1-.46.33l-11.22.22Zm-3.31-4.91,3.53,3.9,9.66-.19-4.39-3.71Z" fill="#231f20"/><path d="M286.44,241.3a.5.5,0,0,1-.5-.5v-4.93a.5.5,0,1,1,1,0v4.93A.5.5,0,0,1,286.44,241.3Z" fill="#231f20"/><path d="M199.09,254.44l-.75-8.92-7.14-9.38,2-.38s3.48,6.16,4.88,7,6.67,1.1,9.58,1.71,8.44,3.45,8.44,3.45l4.79,6.55Z" fill="#fff"/><path d="M220.86,254.94H199.09a.5.5,0,0,1-.5-.46l-.74-8.77-7-9.27a.49.49,0,0,1-.06-.48.5.5,0,0,1,.37-.32l2-.37a.5.5,0,0,1,.53.24c1.32,2.34,3.77,6.24,4.7,6.79s3.24.77,5.4,1c1.43.18,2.91.37,4,.6,2.94.62,8.34,3.38,8.57,3.5a.43.43,0,0,1,.18.15l4.78,6.54a.5.5,0,0,1-.4.8Zm-21.31-1h20.32l-4.13-5.66c-.77-.39-5.62-2.8-8.22-3.35-1.08-.23-2.54-.41-3.94-.59-2.48-.32-4.82-.62-5.78-1.17-1.34-.78-4.11-5.49-4.89-6.85l-.82.16,6.64,8.74a.4.4,0,0,1,.1.26Z" fill="#231f20"/><polygon points="202 254.15 202 247.89 219.08 247.89 223.77 254.44 202 254.15" fill="#fff"/><path d="M223.77,254.94h0L202,254.65a.49.49,0,0,1-.49-.5v-6.26a.5.5,0,0,1,.5-.5h17.08a.49.49,0,0,1,.4.21l4.7,6.55a.49.49,0,0,1,0,.52A.49.49,0,0,1,223.77,254.94Zm-21.27-1.28,20.29.26-4-5.53H202.5Z" fill="#231f20"/><path d="M229.91,254.94a.51.51,0,0,1-.4-.2L215.2,235.47a.49.49,0,0,1,0-.52.5.5,0,0,1,.44-.28h0l24.87,0a.5.5,0,0,1,.5.5.51.51,0,0,1-.5.5h0l-23.87,0,13.71,18.47a.5.5,0,0,1-.1.7A.54.54,0,0,1,229.91,254.94Z" fill="#231f20"/><polygon points="216.07 229.1 216.07 231.58 206.31 231.58 204.81 229.66 216.07 229.1" fill="#231f20"/><path d="M216.07,232.08h-9.76a.51.51,0,0,1-.4-.19L204.42,230a.49.49,0,0,1-.06-.52.49.49,0,0,1,.43-.29l11.26-.56a.45.45,0,0,1,.37.13.51.51,0,0,1,.15.37v2.48A.5.5,0,0,1,216.07,232.08Zm-9.52-1h9v-1.46l-9.78.49Z" fill="#231f20"/><polygon points="217.04 237.11 238.5 237.36 237.94 235.17 215.6 235.17 217.04 237.11" fill="#231f20"/><path d="M238.5,237.86h0L217,237.61a.51.51,0,0,1-.4-.2l-1.44-1.94a.49.49,0,0,1,0-.52.5.5,0,0,1,.44-.28h22.34a.51.51,0,0,1,.49.38l.56,2.18a.51.51,0,0,1-.09.43A.49.49,0,0,1,238.5,237.86Zm-21.2-1.25,20.56.24-.31-1.18h-21Z" fill="#231f20"/><polygon points="202.43 206.38 202.43 211.17 190.43 202.23 190.43 200.53 196.83 205.15 197.04 202.65 202.43 206.38" fill="#fff"/><path d="M202.43,211.67a.49.49,0,0,1-.3-.1l-12-8.94a.48.48,0,0,1-.2-.4v-1.7a.5.5,0,0,1,.79-.4l5.69,4.1.14-1.62a.49.49,0,0,1,.28-.41.5.5,0,0,1,.5,0l5.39,3.73a.52.52,0,0,1,.21.41v4.79a.5.5,0,0,1-.27.45A.59.59,0,0,1,202.43,211.67ZM190.93,202l11,8.2v-3.53l-4.46-3.09-.14,1.63a.47.47,0,0,1-.29.41.48.48,0,0,1-.5,0l-5.61-4Z" fill="#231f20"/><path d="M197,203.43l-3.53-2.68-.28-3.14,7.93,5.44Z" fill="#fff"/><path d="M197,203.93h0c-.26,0-.83-.45-3.87-2.77a.48.48,0,0,1-.19-.35l-.29-3.15a.5.5,0,0,1,.78-.45l7.94,5.44a.5.5,0,0,1-.24.91l-4.07.37H197Zm-3.09-3.44,3.19,2.42,2.56-.23-5.92-4.06Z" fill="#231f20"/><polygon points="197.49 197.61 197.14 195.4 204.29 199.58 208.75 201.97 208.52 206.15 203.12 203.43 202.94 200.99 197.49 197.61" fill="#fff"/><path d="M208.52,206.65a.59.59,0,0,1-.23-.05l-5.39-2.73a.48.48,0,0,1-.28-.41l-.16-2.18L197.23,198a.46.46,0,0,1-.23-.34l-.36-2.21a.5.5,0,0,1,.75-.51l7.16,4.18,4.44,2.38a.51.51,0,0,1,.26.47l-.23,4.18a.48.48,0,0,1-.25.4A.45.45,0,0,1,208.52,206.65Zm-4.92-3.54,4.46,2.25.18-3.1L204.06,200l-6.26-3.65.15.93,5.26,3.26a.52.52,0,0,1,.23.39Z" fill="#231f20"/><polygon points="247.71 198.31 250.02 198.31 250.68 195.54 253.28 196.18 252.23 198.31 256.83 201.08 251.91 201.18 247.71 198.31" fill="#fff"/><path d="M251.91,201.68a.47.47,0,0,1-.28-.09l-4.2-2.86a.51.51,0,0,1,.28-.92h1.91l.58-2.38a.49.49,0,0,1,.6-.37l2.6.63a.53.53,0,0,1,.34.28.5.5,0,0,1,0,.43l-.85,1.72,4.21,2.53a.52.52,0,0,1,.23.56.5.5,0,0,1-.48.37l-4.92.1Zm-2.58-2.87,2.73,1.87,3-.06L252,198.74a.51.51,0,0,1-.19-.65l.78-1.57-1.51-.37-.55,2.28a.49.49,0,0,1-.48.38Z" fill="#231f20"/><polygon points="259.43 202.58 262.44 199.49 270.95 204.88 266.49 207.51 259.43 202.58" fill="#fff"/><path d="M266.49,208a.48.48,0,0,1-.29-.09L259.15,203a.51.51,0,0,1-.21-.37.45.45,0,0,1,.14-.39l3-3.09a.5.5,0,0,1,.62-.08l8.52,5.4a.5.5,0,0,1,0,.85l-4.47,2.63A.47.47,0,0,1,266.49,208Zm-6.29-5.51,6.31,4.42,3.49-2-7.49-4.74Z" fill="#231f20"/><polygon points="262.44 199.49 266.94 199.49 275.63 204.88 270.95 204.88 262.44 199.49" fill="#fff"/><path d="M275.63,205.38H271a.42.42,0,0,1-.26-.08l-8.52-5.39a.5.5,0,0,1,.27-.92h4.5a.52.52,0,0,1,.27.07l8.69,5.4a.5.5,0,0,1,.22.56A.52.52,0,0,1,275.63,205.38Zm-4.53-1h2.78L266.8,200h-2.64Z" fill="#231f20"/><line x1="261.52" y1="204.04" x2="264.69" y2="201.18" fill="#fff"/><path d="M261.52,204.54a.5.5,0,0,1-.37-.17.48.48,0,0,1,0-.7l3.16-2.86a.5.5,0,0,1,.71,0,.48.48,0,0,1,0,.7l-3.16,2.86A.5.5,0,0,1,261.52,204.54Z" fill="#231f20"/><line x1="267.9" y1="202.94" x2="265.19" y2="205.4" fill="#fff"/><path d="M265.19,205.9a.51.51,0,0,1-.37-.17.49.49,0,0,1,0-.7l2.7-2.46a.51.51,0,0,1,.71,0,.49.49,0,0,1,0,.7l-2.7,2.46A.5.5,0,0,1,265.19,205.9Z" fill="#231f20"/><polygon points="208.75 201.97 212.09 201.97 212.09 205.73 208.52 206.15 208.75 201.97" fill="#231f20"/><path d="M208.52,206.65a.51.51,0,0,1-.5-.53l.23-4.17a.51.51,0,0,1,.5-.48h3.33a.5.5,0,0,1,.5.5v3.76a.49.49,0,0,1-.44.49l-3.56.43Zm.71-4.18-.18,3.11,2.53-.3v-2.81Z" fill="#231f20"/><path d="M202.43,206.38a35.87,35.87,0,0,1,4.4,0c-.14.19.23,1.13.23,1.13h-1.55l-.23,2.82-2.85-1Z" fill="#231f20"/><path d="M205.28,210.83a.45.45,0,0,1-.16,0l-2.85-1a.51.51,0,0,1-.34-.47v-3a.52.52,0,0,1,.48-.5c4.63-.19,4.69-.07,4.86.26a.49.49,0,0,1,0,.41,3.23,3.23,0,0,0,.23.77.52.52,0,0,1-.05.47.51.51,0,0,1-.42.22H206l-.19,2.36a.52.52,0,0,1-.23.38A.5.5,0,0,1,205.28,210.83ZM202.93,209l1.9.66.19-2.17a.49.49,0,0,1,.49-.46h.86a1.77,1.77,0,0,1,0-.2c-.66,0-2,0-3.4.06Zm4.31-2.31h0Z" fill="#231f20"/><polygon points="199.51 213.42 206.03 218.42 206.03 214.06 200 210.33 199.51 213.42" fill="#fff"/><path d="M206,218.92a.47.47,0,0,1-.3-.1l-6.53-5a.53.53,0,0,1-.19-.48l.5-3.09a.48.48,0,0,1,.28-.38.49.49,0,0,1,.47,0l6,3.73a.5.5,0,0,1,.24.43v4.36a.5.5,0,0,1-.28.45A.54.54,0,0,1,206,218.92Zm-6-5.71,5.48,4.2v-3.07l-5.15-3.19Z" fill="#231f20"/><path d="M206,214.06a30.6,30.6,0,0,1,4.41,0l-5.16-3.73-5.28-.54Z" fill="#68e1fd"/><path d="M210.44,214.56h0a27.83,27.83,0,0,0-4.22,0,.51.51,0,0,1-.46-.07l-6-4.26a.52.52,0,0,1-.18-.59.5.5,0,0,1,.52-.32l5.28.54a.5.5,0,0,1,.24.09l5.17,3.73a.48.48,0,0,1,.17.57A.51.51,0,0,1,210.44,214.56Zm-8.6-4.08,4.31,3a24,24,0,0,1,2.65,0l-3.7-2.67Z" fill="#231f20"/><path d="M191.2,243.82a.48.48,0,0,1-.38-.18l-32-39-4.38.78a.5.5,0,0,1-.17-1l4.67-.82a.49.49,0,0,1,.47.17L191.59,243a.5.5,0,0,1-.07.7A.48.48,0,0,1,191.2,243.82Z" fill="#231f20"/><polygon points="159.03 204.06 162.34 204.06 162.34 202.09 166.21 202.09 166.21 200.53 168.61 200.96 168.61 199.7 171.14 199.7 171.14 205.12 160.79 205.85 159.03 204.06" fill="#231f20"/><path d="M160.79,206.35a.47.47,0,0,1-.35-.15l-1.76-1.79a.51.51,0,0,1-.11-.54.5.5,0,0,1,.46-.31h2.81v-1.47a.5.5,0,0,1,.5-.5h3.37v-1.06a.51.51,0,0,1,.18-.38.52.52,0,0,1,.41-.11l1.81.33v-.67a.5.5,0,0,1,.5-.5h2.53a.5.5,0,0,1,.5.5v5.42a.5.5,0,0,1-.46.5l-10.35.73Zm-.56-1.79.76.78,9.65-.69V200.2h-1.53V201a.5.5,0,0,1-.59.5l-1.81-.33v1a.5.5,0,0,1-.5.5h-3.37v1.47a.5.5,0,0,1-.5.5Z" fill="#231f20"/><path d="M148.81,194.42l.53.52,4.41,4.26,6.2-.49.56-1.48,4.16-.14,3.66-.28-2.05-1.41,4.58-.7-6.53-4.41Z" fill="#68e1fd"/><path d="M153.75,199.7a.49.49,0,0,1-.34-.14L149,195.3c-.77-.74-.78-.76-.66-1.07a.51.51,0,0,1,.34-.3l15.53-4.13a.54.54,0,0,1,.41.07l6.52,4.42a.49.49,0,0,1-.2.9l-3.34.52,1,.69a.52.52,0,0,1,.2.54.5.5,0,0,1-.45.37l-3.66.28-3.84.13-.44,1.17a.52.52,0,0,1-.43.32l-6.2.49Zm-4-5,4.15,4,5.65-.45.45-1.18a.52.52,0,0,1,.46-.33l4.15-.14,2.23-.17-.88-.61a.48.48,0,0,1-.2-.52.49.49,0,0,1,.41-.38l3.31-.51-5.28-3.57Z" fill="#231f20"/><line x1="160.51" y1="197.23" x2="154.36" y2="192.85" fill="#68e1fd"/><path d="M160.51,197.73a.52.52,0,0,1-.29-.09l-6.14-4.38a.5.5,0,0,1,.58-.82l6.14,4.39a.49.49,0,0,1,.12.69A.49.49,0,0,1,160.51,197.73Z" fill="#231f20"/><line x1="166.28" y1="195.4" x2="159.83" y2="191.48" fill="#68e1fd"/><path d="M166.28,195.9a.54.54,0,0,1-.26-.07l-6.45-3.92a.5.5,0,0,1-.16-.69.49.49,0,0,1,.68-.16l6.45,3.92a.49.49,0,0,1,.17.68A.49.49,0,0,1,166.28,195.9Z" fill="#231f20"/><polygon points="153.75 199.2 153.75 201.18 159.83 200.61 159.95 198.71 153.75 199.2" fill="#231f20"/><path d="M153.75,201.68a.47.47,0,0,1-.33-.14.46.46,0,0,1-.17-.36v-2a.5.5,0,0,1,.46-.49l6.2-.5a.5.5,0,0,1,.39.14.53.53,0,0,1,.15.39l-.12,1.9a.49.49,0,0,1-.45.47l-6.08.56Zm.5-2v1l5.11-.48.06-.89Z" fill="#231f20"/><path d="M168.82,195.4v-3.23h1.69s.63,2.39,4.92,3.66a14.8,14.8,0,0,0,7.26.49v4.21a36.11,36.11,0,0,1-8.17-1.33C169.31,197.87,168.82,195.4,168.82,195.4Z" fill="#fff"/><path d="M182.68,201a36.42,36.42,0,0,1-8.28-1.34c-5.46-1.4-6.05-4.08-6.07-4.19a.31.31,0,0,1,0-.1v-3.23a.5.5,0,0,1,.5-.5h1.69a.5.5,0,0,1,.48.37s.66,2.15,4.59,3.31a14.38,14.38,0,0,0,7,.48.51.51,0,0,1,.43.09.51.51,0,0,1,.19.4v4.21A.47.47,0,0,1,182.68,201Zm-13.36-5.69c.1.29.9,2.24,5.32,3.38a40,40,0,0,0,7.54,1.29v-3.09a16.24,16.24,0,0,1-6.89-.61c-3.54-1.05-4.75-2.86-5.12-3.64h-.85Zm-.5.06h0Z" fill="#231f20"/><path d="M182.69,196.32s2.88,1.45,4.43,1.29v3.57s-2.75.89-4.43-.65Z" fill="#fff"/><path d="M185.33,201.94a4.31,4.31,0,0,1-3-1,.48.48,0,0,1-.17-.37v-4.21a.5.5,0,0,1,.73-.45c.77.39,3,1.36,4.16,1.24a.51.51,0,0,1,.55.5v3.57a.5.5,0,0,1-.35.47A6.69,6.69,0,0,1,185.33,201.94Zm-2.15-1.64a4.36,4.36,0,0,0,3.44.49v-2.68a11.35,11.35,0,0,1-3.44-1Z" fill="#231f20"/><polygon points="187.12 197.61 190.01 198.71 190.01 202.78 187.12 201.18 187.12 197.61" fill="#fff"/><path d="M190,203.27a.54.54,0,0,1-.25-.06l-2.88-1.6a.49.49,0,0,1-.26-.43v-3.57a.51.51,0,0,1,.68-.47l2.88,1.1a.51.51,0,0,1,.33.47v4.06a.52.52,0,0,1-.25.44A.57.57,0,0,1,190,203.27Zm-2.39-2.39,1.89,1.05v-2.87l-1.89-.73Z" fill="#231f20"/><polyline points="190.01 198.71 190.78 198.43 190.43 195.69 196.06 194.75 196.06 189.91 205.56 189.91 205.56 192.45 202.77 192.87 202.77 194.75 197.14 195.4 197.49 197.61 193.17 197.61 193.46 200.75 190.43 200.53 190.43 202.23" fill="#231f20"/><path d="M190.43,202.73a.5.5,0,0,1-.5-.5v-1.7a.51.51,0,0,1,.53-.5l2.44.18-.23-2.56a.49.49,0,0,1,.13-.38.51.51,0,0,1,.37-.16h3.73l-.26-1.63a.48.48,0,0,1,.1-.38.46.46,0,0,1,.34-.19l5.19-.61v-1.43a.49.49,0,0,1,.42-.49l2.37-.36v-1.61h-8.5v4.34a.5.5,0,0,1-.42.49l-5.15.86.29,2.27a.5.5,0,0,1-.33.53l-.77.28a.49.49,0,0,1-.64-.3.5.5,0,0,1,.29-.64l.4-.14-.3-2.35a.51.51,0,0,1,.42-.56l5.21-.87v-4.41a.5.5,0,0,1,.5-.5h9.5a.5.5,0,0,1,.5.5v2.54a.5.5,0,0,1-.42.49l-2.37.36v1.45a.5.5,0,0,1-.44.49l-5.12.6.27,1.69a.46.46,0,0,1-.11.4.49.49,0,0,1-.38.18h-3.77l.23,2.6a.45.45,0,0,1-.14.39.48.48,0,0,1-.39.15l-2.49-.18v1.16A.5.5,0,0,1,190.43,202.73Z" fill="#231f20"/><polygon points="196.06 189.91 185.5 188.22 185.5 192.16 196.06 194.75 196.06 189.91" fill="#231f20"/><path d="M196.06,195.25l-.12,0-10.56-2.58a.49.49,0,0,1-.38-.48v-3.95a.53.53,0,0,1,.18-.38.48.48,0,0,1,.4-.11l10.56,1.69a.5.5,0,0,1,.42.49v4.84a.5.5,0,0,1-.5.5ZM186,191.77l9.56,2.34v-3.77L186,188.81Z" fill="#231f20"/><polygon points="185.5 192.16 180.71 192.45 190.43 195.69 196.06 194.75 185.5 192.16" fill="#68e1fd"/><path d="M190.43,196.19a.41.41,0,0,1-.16,0l-9.71-3.24a.5.5,0,0,1,.12-1l4.79-.28a.38.38,0,0,1,.15,0l10.56,2.58a.5.5,0,0,1,0,1l-5.63.94Zm-7.1-3.4,7.14,2.38,3.11-.52-8.12-2Z" fill="#231f20"/><polygon points="180.71 192.45 178.04 195.04 174.52 193.93 178.11 190.9 181.91 190.29 185.5 192.16 180.71 192.45" fill="#fff"/><path d="M178,195.54l-.15,0-3.52-1.12A.47.47,0,0,1,174,194a.49.49,0,0,1,.17-.48l3.59-3a.55.55,0,0,1,.24-.12l3.8-.61a.54.54,0,0,1,.31.05l3.59,1.88a.5.5,0,0,1-.2.94l-4.6.28-2.54,2.46A.52.52,0,0,1,178,195.54Zm-2.5-1.82,2.37.75,2.46-2.38a.41.41,0,0,1,.31-.14l3-.18-1.84-1-3.5.56Z" fill="#231f20"/><path d="M166.57,191.48c.28-.09,10.27,0,10.27,0l2-1.19H165.93Z" fill="#fff"/><path d="M166.52,192a.46.46,0,0,1-.4-.28l-.63-1.2a.49.49,0,0,1,.44-.73h12.88a.5.5,0,0,1,.48.36.48.48,0,0,1-.22.56l-2,1.2a.56.56,0,0,1-.26.07c-3.7,0-9.73-.06-10.18,0Zm3.18-1.06c1.52,0,3.74,0,7,0l.32-.19H166.76l.1.18C167.27,191,168.08,190.94,169.7,190.94Z" fill="#231f20"/><polygon points="168.47 190.29 168.47 185.62 170.86 184.14 176.98 184.14 176.98 190.55 168.47 190.29" fill="#fff"/><path d="M177,191.05h0l-8.52-.26a.5.5,0,0,1-.48-.5v-4.67a.52.52,0,0,1,.23-.43l2.4-1.47a.5.5,0,0,1,.26-.08H177a.5.5,0,0,1,.5.5v6.41a.51.51,0,0,1-.15.36A.5.5,0,0,1,177,191.05Zm-8-1.25,7.51.23v-5.39H171l-2,1.26Z" fill="#231f20"/><path d="M170.86,190.41a.5.5,0,0,1-.5-.5v-5.77a.5.5,0,0,1,1,0v5.77A.5.5,0,0,1,170.86,190.41Z" fill="#231f20"/><path d="M208,197.8c0-.14.38-4.93.38-4.93l2.67-4.08,3.19,4.45-.05,5.07Z" fill="#231f20"/><path d="M214.19,198.81h-.05l-6.18-.52a.48.48,0,0,1-.43-.34c0-.12-.08-.24.35-5.12a.42.42,0,0,1,.08-.23l2.67-4.09a.49.49,0,0,1,.41-.22h0a.49.49,0,0,1,.41.21l3.19,4.45a.53.53,0,0,1,.09.3l-.05,5.07a.53.53,0,0,1-.17.36A.46.46,0,0,1,214.19,198.81Zm-5.67-1.47,5.17.43.05-4.37-2.67-3.73L208.86,193C208.74,194.43,208.57,196.46,208.52,197.34Z" fill="#231f20"/><polygon points="213.02 201.41 208.94 199.63 209.32 194.75 211.85 191.7 216.64 192.87 213.16 196.07 213.02 201.41" fill="#fff"/><path d="M213,201.91a.51.51,0,0,1-.2,0l-4.08-1.79a.49.49,0,0,1-.3-.49l.38-4.88a.46.46,0,0,1,.11-.28l2.53-3.05a.52.52,0,0,1,.51-.17l4.79,1.17a.52.52,0,0,1,.36.36.52.52,0,0,1-.14.5l-3.32,3.06-.14,5.12a.49.49,0,0,1-.23.41A.5.5,0,0,1,213,201.91Zm-3.55-2.6,3.07,1.34.12-4.59a.56.56,0,0,1,.17-.36l2.78-2.57-3.58-.87-2.23,2.68Z" fill="#231f20"/><polygon points="213.02 201.41 218.14 201.41 218.14 196.07 216.64 192.87 213.16 196.07 213.02 201.41" fill="#231f20"/><path d="M218.14,201.91H213a.47.47,0,0,1-.35-.15.51.51,0,0,1-.15-.36l.14-5.34a.56.56,0,0,1,.17-.36l3.47-3.2a.5.5,0,0,1,.79.16l1.5,3.2a.54.54,0,0,1,0,.21v5.34A.5.5,0,0,1,218.14,201.91Zm-4.6-1h4.1v-4.73l-1.17-2.48-2.81,2.6Z" fill="#231f20"/><line x1="209.32" y1="194.75" x2="212.79" y2="196.55" fill="#231f20"/><path d="M212.79,197.05a.46.46,0,0,1-.23-.06l-3.48-1.8a.5.5,0,0,1-.21-.67.51.51,0,0,1,.68-.22l3.47,1.8a.51.51,0,0,1,.21.68A.5.5,0,0,1,212.79,197.05Z" fill="#231f20"/><polygon points="211.05 188.79 206.74 187.28 204.25 191.18 203.97 195.54 208 197.8 208.38 192.87 211.05 188.79" fill="#fff"/><path d="M208,198.3a.42.42,0,0,1-.24-.07l-4-2.25a.48.48,0,0,1-.25-.47l.28-4.36a.41.41,0,0,1,.08-.24l2.48-3.89a.51.51,0,0,1,.59-.21l4.32,1.5a.52.52,0,0,1,.31.32.51.51,0,0,1-.06.43l-2.6,4-.37,4.79a.5.5,0,0,1-.5.47Zm-3.51-3,3.07,1.72.32-4.15a.4.4,0,0,1,.08-.23l2.32-3.55-3.34-1.16-2.2,3.45Z" fill="#231f20"/><line x1="204.25" y1="191.18" x2="208.38" y2="192.87" fill="#fff"/><path d="M208.38,193.37a.41.41,0,0,1-.19,0l-4.13-1.69a.5.5,0,1,1,.38-.92l4.13,1.69a.5.5,0,0,1,.27.65A.51.51,0,0,1,208.38,193.37Z" fill="#231f20"/><polygon points="217.46 233.27 217.46 228.35 236.6 228.35 236.6 232.99 217.46 233.27" fill="#231f20"/><path d="M217.46,233.77a.5.5,0,0,1-.35-.14.48.48,0,0,1-.15-.36v-4.92a.5.5,0,0,1,.5-.5H236.6a.5.5,0,0,1,.5.5V233a.49.49,0,0,1-.49.5l-19.14.28Zm.5-4.92v3.92l18.14-.27v-3.65Z" fill="#231f20"/><polygon points="221.82 226.66 222.24 222.15 234.63 222.72 234.63 226.27 221.82 226.66" fill="#231f20"/><path d="M221.82,227.16a.48.48,0,0,1-.36-.16.52.52,0,0,1-.14-.39l.43-4.51a.47.47,0,0,1,.52-.45l12.39.57a.49.49,0,0,1,.47.49v3.56a.5.5,0,0,1-.48.5l-12.81.39Zm.88-4.49-.33,3.47,11.76-.36v-2.59Z" fill="#231f20"/><path d="M223.3,220.84v-2H233V221Z" fill="#231f20"/><path d="M233,221.49h0l-9.72-.15a.51.51,0,0,1-.49-.5v-2a.5.5,0,0,1,.5-.5H233a.5.5,0,0,1,.5.5V221a.51.51,0,0,1-.15.36A.5.5,0,0,1,233,221.49Zm-9.21-1.14,8.71.13v-1.17H223.8Z" fill="#231f20"/><path d="M222.7,217.05l-2.22.41-.95,2.44-2,.19,2.75-7.23h9.47a6.82,6.82,0,0,0,.91,1.41,7.93,7.93,0,0,1,.77,2.71Z" fill="#231f20"/><path d="M217.49,220.59a.54.54,0,0,1-.4-.2.49.49,0,0,1-.06-.48l2.74-7.23a.5.5,0,0,1,.47-.32h9.47a.51.51,0,0,1,.45.28,5.9,5.9,0,0,0,.83,1.29,7.33,7.33,0,0,1,.9,3,.48.48,0,0,1-.12.4.52.52,0,0,1-.37.17l-8.65.07-1.9.35-.85,2.18a.5.5,0,0,1-.42.32l-2,.18Zm2-.69h0Zm1.05-6.54-2.33,6.16.93-.09.84-2.15a.49.49,0,0,1,.37-.31l2.22-.41h.09l8.11-.07a5.32,5.32,0,0,0-.56-1.87,6.6,6.6,0,0,1-.85-1.25Z" fill="#231f20"/><polygon points="220.48 217.46 223.3 218.81 223.3 220.84 219.96 219.15 220.48 217.46" fill="#fff"/><path d="M223.3,221.34a.49.49,0,0,1-.23-.06l-3.34-1.69a.49.49,0,0,1-.25-.59l.53-1.69a.48.48,0,0,1,.28-.31.49.49,0,0,1,.41,0l2.82,1.35a.5.5,0,0,1,.28.45v2a.52.52,0,0,1-.5.5Zm-2.74-2.45L222.8,220v-.9l-2-1Z" fill="#231f20"/><polygon points="222.24 222.15 218.94 220.84 218.79 223.84 221.82 226.66 222.24 222.15" fill="#fff"/><path d="M221.82,227.16a.51.51,0,0,1-.34-.14l-3-2.81a.52.52,0,0,1-.15-.39l.14-3a.47.47,0,0,1,.22-.39.5.5,0,0,1,.46,0l3.31,1.32a.5.5,0,0,1,.31.51l-.42,4.5a.49.49,0,0,1-.32.42A.39.39,0,0,1,221.82,227.16Zm-2.51-3.53,2.11,2,.29-3.12-2.31-.92Z" fill="#231f20"/><polygon points="205.51 207.51 214.24 213.42 213.59 216.47 205.28 210.33 205.51 207.51" fill="#fff"/><path d="M213.59,217a.53.53,0,0,1-.3-.09L205,210.73a.52.52,0,0,1-.2-.45l.24-2.81a.49.49,0,0,1,.28-.41.48.48,0,0,1,.49,0l8.73,5.91a.49.49,0,0,1,.21.52l-.65,3.05a.51.51,0,0,1-.32.36A.47.47,0,0,1,213.59,217Zm-7.79-6.88,7.46,5.52.42-2-7.74-5.25Z" fill="#231f20"/><path d="M212.08,205.73s1.37,1.76,2.84,3.28a36.53,36.53,0,0,0,5.32,3.85L218.8,207l-6.72-5Z" fill="#fff"/><path d="M220.24,213.36a.48.48,0,0,1-.26-.07,37.39,37.39,0,0,1-5.42-3.93c-1.48-1.53-2.81-3.25-2.87-3.33a.46.46,0,0,1-.11-.3V202a.51.51,0,0,1,.8-.4l6.71,5a.49.49,0,0,1,.19.28l1.44,5.91a.5.5,0,0,1-.19.52A.46.46,0,0,1,220.24,213.36Zm-7.66-7.81c.35.44,1.49,1.87,2.7,3.11a28.42,28.42,0,0,0,4.18,3.12l-1.11-4.54L212.58,203Z" fill="#231f20"/><path d="M218.8,207l8.25.47a12.21,12.21,0,0,1,2.51,2.37,8.24,8.24,0,0,1,.15,3.07h-9.47Z" fill="#231f20"/><path d="M229.71,213.36h-9.47a.5.5,0,0,1-.49-.38l-1.44-5.91a.49.49,0,0,1,.1-.44.47.47,0,0,1,.41-.18l8.26.47a.51.51,0,0,1,.27.09,11.9,11.9,0,0,1,2.65,2.55,8,8,0,0,1,.2,3.36A.5.5,0,0,1,229.71,213.36Zm-9.08-1h8.62a6.06,6.06,0,0,0-.14-2.35,10.43,10.43,0,0,0-2.23-2.1l-7.44-.43Z" fill="#231f20"/><polygon points="212.79 199.18 220.52 199.7 220.52 203.43 215.44 203.43 212.79 199.18" fill="#fff"/><path d="M220.52,203.93h-5.08a.49.49,0,0,1-.42-.24l-2.66-4.24a.51.51,0,0,1,.46-.77l7.73.52a.5.5,0,0,1,.47.5v3.73A.5.5,0,0,1,220.52,203.93Zm-4.8-1H220v-2.76l-6.29-.43Z" fill="#231f20"/><polygon points="218.79 206.95 218.79 204.04 212.79 199.18 212.09 201.97 218.79 206.95" fill="#fff"/><path d="M218.79,207.45a.51.51,0,0,1-.29-.1l-6.71-5a.5.5,0,0,1-.19-.53l.7-2.79a.49.49,0,0,1,.33-.35.47.47,0,0,1,.47.08l6,4.86a.48.48,0,0,1,.18.39V207a.48.48,0,0,1-.27.44A.46.46,0,0,1,218.79,207.45Zm-6.14-5.68,5.64,4.18v-1.67l-5.21-4.22Z" fill="#231f20"/><polygon points="218.79 204.04 226.63 204.04 227.05 207.42 218.79 206.95 218.79 204.04" fill="#fff"/><path d="M227.05,207.92h0l-8.26-.47a.51.51,0,0,1-.48-.5V204a.5.5,0,0,1,.5-.5h7.84a.5.5,0,0,1,.49.44l.43,3.37a.51.51,0,0,1-.13.41A.52.52,0,0,1,227.05,207.92Zm-7.76-1.44,7.19.4-.29-2.34h-6.9Z" fill="#231f20"/><path d="M308.23,254.66a.49.49,0,0,1-.47-.32.5.5,0,0,1,.29-.65c.13-.05,13.13-5.11,13-11.13a.52.52,0,0,1,.49-.51.52.52,0,0,1,.51.49c.14,6.72-13.09,11.87-13.66,12.09A.47.47,0,0,1,308.23,254.66Z" fill="#231f20"/><polygon points="333.81 254.16 337.4 252.07 340.99 252.07 340.5 244.82 335.5 247.99 332.69 249.81 333.81 254.16" fill="#fff"/><path d="M333.81,254.66a.43.43,0,0,1-.19,0,.5.5,0,0,1-.29-.34l-1.13-4.34a.49.49,0,0,1,.21-.54l2.82-1.83,5-3.18a.51.51,0,0,1,.77.39l.49,7.25a.5.5,0,0,1-.5.54h-3.45l-3.48,2A.43.43,0,0,1,333.81,254.66Zm-.55-4.62.87,3.36,3-1.76a.45.45,0,0,1,.25-.07h3.06l-.4-5.88Z" fill="#231f20"/><rect x="136.95" y="208.64" width="2.26" height="7.6" fill="#fff"/><path d="M139.21,216.82H137a.58.58,0,0,1-.58-.58v-7.6a.58.58,0,0,1,.58-.58h2.26a.58.58,0,0,1,.58.58v7.6A.58.58,0,0,1,139.21,216.82Zm-1.68-1.16h1.09v-6.44h-1.09Z" fill="#231f20"/><polygon points="125.18 208.64 123.96 209.09 121.42 215.95 125.18 215.78 125.18 208.64" fill="#fff"/><path d="M121.42,216.53a.59.59,0,0,1-.47-.24.58.58,0,0,1-.07-.54l2.53-6.86a.57.57,0,0,1,.34-.34l1.22-.46a.59.59,0,0,1,.79.55v7.14a.59.59,0,0,1-.56.59l-3.75.16Zm3-7-2.14,5.79,2.32-.1v-5.76Z" fill="#231f20"/><path d="M121.05,204.7s5.06,2.48,7.74,2.81l3-.84s-6.48-1.69-7.93-2.63Z" fill="#68e1fd"/><path d="M128.79,208h-.06c-2.73-.34-7.69-2.76-7.9-2.86a.5.5,0,0,1-.28-.5.53.53,0,0,1,.38-.44l2.77-.66a.5.5,0,0,1,.39.07c1.13.73,6,2.1,7.78,2.56a.52.52,0,0,1,.38.48.51.51,0,0,1-.37.49l-2.95.84Zm-6.23-3.16a28.94,28.94,0,0,0,6.19,2.15l1.14-.32a40.38,40.38,0,0,1-6.15-2.11Z" fill="#231f20"/><path d="M123.48,201.79s5.36,2.34,8.27,2.58l2.43-.85s-6.33-2-7.78-2.53Z" fill="#68e1fd"/><path d="M131.75,204.87h0c-3-.23-8.21-2.52-8.43-2.62a.48.48,0,0,1-.3-.49.5.5,0,0,1,.36-.45l2.93-.79a.47.47,0,0,1,.31,0c1.42.55,7.69,2.5,7.75,2.52a.5.5,0,0,1,.35.47.5.5,0,0,1-.34.48l-2.43.85A.45.45,0,0,1,131.75,204.87Zm-6.73-3a30.27,30.27,0,0,0,6.66,2l.91-.31c-1.88-.59-5-1.6-6.22-2Z" fill="#231f20"/><path d="M104.81,212.44c-.14,0-2.78,1.12-2.78,1.12a28,28,0,0,0,4.94,1.76l2.53-.72Z" fill="#68e1fd"/><path d="M107,215.82h-.11a28.63,28.63,0,0,1-5-1.79.5.5,0,0,1,0-.92l2.81-1.14a.53.53,0,0,1,.37,0l4.69,2.16a.5.5,0,0,1-.07.94l-2.53.72A.34.34,0,0,1,107,215.82Zm-3.66-2.24a26.18,26.18,0,0,0,3.64,1.23l1.12-.32L104.79,213Z" fill="#231f20"/><path d="M102.84,212.06l-2.63.38a9.13,9.13,0,0,1-3.61-2.25l2.39-.71S100.87,211.67,102.84,212.06Z" fill="#68e1fd"/><path d="M100.21,212.94l-.14,0a9.67,9.67,0,0,1-3.84-2.39.52.52,0,0,1-.11-.48.47.47,0,0,1,.34-.34l2.39-.71a.51.51,0,0,1,.52.16s1.79,2.06,3.56,2.4a.51.51,0,0,1,.41.51.51.51,0,0,1-.43.48l-2.63.38Zm-2.63-2.52a9,9,0,0,0,2.68,1.51l.72-.11a11.2,11.2,0,0,1-2.15-1.77Z" fill="#231f20"/><path d="M104.34,209.48a7.18,7.18,0,0,1-3.19-1.17l2-.8a5.67,5.67,0,0,0,3.14,1Z" fill="#68e1fd"/><path d="M104.34,210h0a7.68,7.68,0,0,1-3.45-1.28.48.48,0,0,1-.18-.46.49.49,0,0,1,.31-.4l2-.79a.47.47,0,0,1,.47,0,5.1,5.1,0,0,0,2.8.9.5.5,0,0,1,.54.35.51.51,0,0,1-.25.59l-2,1A.51.51,0,0,1,104.34,210Zm-2.07-1.58a7.92,7.92,0,0,0,2,.57l.39-.2a7.42,7.42,0,0,1-1.52-.7Z" fill="#231f20"/><path d="M107.39,209.48l-2.25.85a11.61,11.61,0,0,0,4.36,1.22l2.26-.59S108.47,210.47,107.39,209.48Z" fill="#68e1fd"/><path d="M109.4,212.05a12.16,12.16,0,0,1-4.49-1.28.5.5,0,0,1,0-.91l2.26-.85a.53.53,0,0,1,.51.1c.79.72,3.23,1.22,4.1,1.35a.5.5,0,0,1,.42.47.49.49,0,0,1-.37.51l-2.25.59A.9.9,0,0,1,109.4,212.05Zm-2.93-1.69a8.79,8.79,0,0,0,2.93.69h0l.16,0a8.1,8.1,0,0,1-2.29-1Z" fill="#231f20"/><path d="M113.4,208.64c-.24-.1-8-1.5-10.56-3.1l2.93-.85s7,2.68,10.16,2.45Z" fill="#68e1fd"/><path d="M113.4,209.14a.41.41,0,0,1-.16,0l-.66-.14c-2.13-.45-7.79-1.64-10-3a.49.49,0,0,1,.12-.9l2.93-.85a.47.47,0,0,1,.31,0c.07,0,7,2.63,10,2.41a.48.48,0,0,1,.52.35.5.5,0,0,1-.22.58l-2.54,1.5A.55.55,0,0,1,113.4,209.14Zm-9.19-3.48a58,58,0,0,0,8.58,2.33l.53.11.92-.54a45.61,45.61,0,0,1-8.49-2.34Z" fill="#231f20"/><path d="M106.31,202.68s9.11,2.58,12.88,2.3l1.86-2.3s-8.68-.71-11-1.18Z" fill="#68e1fd"/><path d="M118.57,205.5c-4.09,0-12-2.24-12.4-2.34a.5.5,0,0,1-.36-.48.5.5,0,0,1,.35-.48l3.71-1.17a.53.53,0,0,1,.25,0c2.29.46,10.88,1.16,11,1.17a.49.49,0,0,1,.42.3.52.52,0,0,1-.07.51l-1.86,2.3a.51.51,0,0,1-.35.19Zm-10.47-2.86c2.71.7,8.07,2,10.84,1.85l1.13-1.39c-2.28-.2-8-.7-10-1.08Z" fill="#231f20"/><path d="M106.88,201.22l-2.4.66a4.5,4.5,0,0,1-1.17-1.88c-.38-1.17,0-.47,0-.47l2.11-.21Z" fill="#68e1fd"/><path d="M104.48,202.38a.46.46,0,0,1-.33-.13,5,5,0,0,1-1.32-2.1c-.19-.61-.35-1.09.13-1.29a.49.49,0,0,1,.59.15l1.82-.18a.51.51,0,0,1,.45.19l1.45,1.9a.5.5,0,0,1,.08.46.48.48,0,0,1-.34.32l-2.4.66Zm-.65-2.4a4.36,4.36,0,0,0,.8,1.34l1.4-.38-.84-1.09Z" fill="#231f20"/><polygon points="117.72 200.99 108.94 199.91 112.69 199.06 119.19 199.32 117.72 200.99" fill="#68e1fd"/><path d="M117.72,201.49h-.06l-8.78-1.08a.49.49,0,0,1-.44-.47.5.5,0,0,1,.39-.51l3.75-.84.13,0,6.5.26a.51.51,0,0,1,.36.84l-1.48,1.66A.48.48,0,0,1,117.72,201.49Zm-5.86-1.73,5.66.7.6-.68-5.38-.21Z" fill="#231f20"/><path d="M108.94,194.84s6.8,3.57,11.68,3.85l2.68-1.13s-9-1.83-11-2.95Z" fill="#68e1fd"/><path d="M120.62,199.19h0c-4.94-.29-11.61-3.76-11.89-3.91a.48.48,0,0,1-.26-.54.51.51,0,0,1,.45-.4l3.38-.23a.45.45,0,0,1,.28.06c1.93,1.08,10.75,2.88,10.84,2.9a.51.51,0,0,1,.4.44.49.49,0,0,1-.31.51l-2.67,1.13A.45.45,0,0,1,120.62,199.19Zm-9.77-4c2.28,1,6.43,2.75,9.69,3l1.1-.46c-2.62-.57-7.72-1.74-9.43-2.61Z" fill="#231f20"/><path d="M114.71,191.51a13.78,13.78,0,0,0-2.11,1s6.83,3.19,10.88,2.86l2-1.17S116.45,192.82,114.71,191.51Z" fill="#68e1fd"/><path d="M122.86,195.93c-4.15,0-10.2-2.81-10.47-2.94a.5.5,0,0,1-.29-.43.48.48,0,0,1,.26-.45c2.27-1.29,2.38-1.2,2.65-1h0c1.35,1,8,2.24,10.53,2.63a.5.5,0,0,1,.41.4.5.5,0,0,1-.24.52l-2,1.17a.4.4,0,0,1-.21.07C123.3,195.92,123.09,195.93,122.86,195.93Zm-9.13-3.44c2,.83,6.56,2.62,9.59,2.42l.7-.41c-2.54-.44-7.71-1.42-9.4-2.45C114.43,192.13,114.1,192.3,113.73,192.49Z" fill="#231f20"/><path d="M115.74,189.25s7.7,3.24,11.74,3.29l2.76-1s-7.18-1.51-8.77-2.32-.42-.25-.42-.25Z" fill="#68e1fd"/><path d="M127.48,193h0c-4.09,0-11.6-3.2-11.92-3.33a.5.5,0,0,1-.3-.54.51.51,0,0,1,.46-.42l4.49-.27c.23-.4.6-.23,1.06,0a.42.42,0,0,1,.16.11l.28.14c1.21.62,6.19,1.76,8.65,2.28a.5.5,0,0,1,.39.46.49.49,0,0,1-.32.5l-2.77,1A.51.51,0,0,1,127.48,193ZM118,189.61c2.52.94,6.74,2.37,9.36,2.43l1.09-.41a49.66,49.66,0,0,1-7.24-2l-.36-.18Z" fill="#231f20"/><path d="M126.4,196.65l2-.87a33.57,33.57,0,0,1,4,2.91,2.62,2.62,0,0,1,.43,2.81s-2.49-2.58-3.29-3.14a14.62,14.62,0,0,0-3.14-1.17V201" fill="#68e1fd"/><path d="M132.83,202a.51.51,0,0,1-.37-.15,41.15,41.15,0,0,0-3.21-3.08,10.19,10.19,0,0,0-2.35-.92V201a.51.51,0,0,1-.5.5.5.5,0,0,1-.5-.5v-3.8a.5.5,0,0,1,.08-.27.25.25,0,0,1,0-.07.5.5,0,0,1,.26-.66l2-.87a.5.5,0,0,1,.46,0,35.07,35.07,0,0,1,4.12,3,3.11,3.11,0,0,1,.53,3.38.5.5,0,0,1-.37.29Zm-5.7-5.13a11.37,11.37,0,0,1,2.7,1.08,36.31,36.31,0,0,1,2.73,2.56,1.78,1.78,0,0,0-.5-1.46,32.15,32.15,0,0,0-3.73-2.71Z" fill="#231f20"/><path d="M131.06,193.9s1.39,1.93,2,1.53a22.76,22.76,0,0,1,4.36-1.34c.52-.05,2.87-.7,2.21-1s.47-2.72-.42-2.81-5-.61-5.4-.24-1.17,2.73-1.55,3S131.06,193.9,131.06,193.9Z" fill="#68e1fd"/><path d="M132.88,196c-.8,0-1.7-1.06-2.22-1.79a.49.49,0,0,1,.09-.68s.85-.68,1.25-.92c.08-.11.38-.78.57-1.23a5.46,5.46,0,0,1,.91-1.68c.36-.32,1.28-.39,5.35.06l.43,0a.8.8,0,0,1,.58.31,2.32,2.32,0,0,1,.14,1.72,4.7,4.7,0,0,0-.06.87.6.6,0,0,1,.32.62c-.14.87-2.74,1.27-2.77,1.28a22.62,22.62,0,0,0-4.13,1.26A.87.87,0,0,1,132.88,196Zm-1.12-2a3.25,3.25,0,0,0,1.12,1,20.88,20.88,0,0,1,4.5-1.39,8.67,8.67,0,0,0,1.63-.46,3,3,0,0,1,0-1.44,4.44,4.44,0,0,0,.07-.92l-.35,0c-3.4-.39-4.4-.36-4.63-.27-.07.09-.4.84-.59,1.29-.45,1.05-.67,1.49-1,1.67S132,193.78,131.76,194Zm7.39-3.21h0Z" fill="#231f20"/><path d="M102,220.58a.5.5,0,0,1-.5-.5v-6.52a.5.5,0,0,1,1,0v6.52A.5.5,0,0,1,102,220.58Z" fill="#231f20"/><path d="M107,220.05a.5.5,0,0,1-.5-.5v-4.23a.5.5,0,0,1,1,0v4.23A.5.5,0,0,1,107,220.05Z" fill="#231f20"/><path d="M109.5,214.6c-.3.65,0,3.8,0,3.8" fill="#231f20"/><path d="M109.5,218.9a.52.52,0,0,1-.5-.45c-.07-.77-.29-3.34,0-4.06a.51.51,0,0,1,.66-.25.52.52,0,0,1,.25.67,14.26,14.26,0,0,0,0,3.54.5.5,0,0,1-.45.55Z" fill="#231f20"/><line x1="100.21" y1="212.44" x2="100.54" y2="219.55" fill="#231f20"/><path d="M100.54,220.05a.5.5,0,0,1-.5-.48l-.33-7.11a.5.5,0,0,1,.48-.52.5.5,0,0,1,.52.48l.33,7.1a.51.51,0,0,1-.48.53Z" fill="#231f20"/><line x1="109.39" y1="212.25" x2="108.94" y2="214.76" fill="#231f20"/><path d="M108.94,215.26h-.09a.5.5,0,0,1-.4-.58l.44-2.51a.5.5,0,0,1,1,.18l-.45,2.51A.49.49,0,0,1,108.94,215.26Z" fill="#231f20"/><line x1="113.4" y1="208.64" x2="113.59" y2="209.86" fill="#fff"/><path d="M113.58,210.36a.5.5,0,0,1-.49-.43l-.19-1.22a.5.5,0,1,1,1-.15l.19,1.22a.5.5,0,0,1-.42.57Z" fill="#231f20"/><path d="M104.48,204.54a.51.51,0,0,1-.5-.5v-2.16a.5.5,0,0,1,.5-.5.5.5,0,0,1,.5.5V204A.5.5,0,0,1,104.48,204.54Z" fill="#231f20"/><path d="M102.84,208a.5.5,0,0,1-.5-.5v-2a.5.5,0,0,1,1,0v2A.5.5,0,0,1,102.84,208Z" fill="#231f20"/><path d="M101.15,210.83a.5.5,0,0,1-.5-.5v-2a.5.5,0,0,1,1,0v2A.5.5,0,0,1,101.15,210.83Z" fill="#231f20"/><path d="M104.34,212.94a.5.5,0,0,1-.5-.5v-3a.5.5,0,0,1,1,0v3A.5.5,0,0,1,104.34,212.94Z" fill="#231f20"/><line x1="110.39" y1="213.14" x2="110.77" y2="218.4" fill="#fff"/><path d="M110.77,218.9a.5.5,0,0,1-.5-.47l-.37-5.25a.5.5,0,0,1,.46-.54.51.51,0,0,1,.53.47l.38,5.25a.5.5,0,0,1-.47.54Z" fill="#231f20"/><path d="M106.31,205.19a.5.5,0,0,1-.5-.5v-2a.5.5,0,0,1,.5-.5.5.5,0,0,1,.5.5v2A.5.5,0,0,1,106.31,205.19Z" fill="#231f20"/><path d="M119.19,210.83a.51.51,0,0,1-.5-.5V205a.5.5,0,0,1,.5-.5.5.5,0,0,1,.5.5v5.35A.5.5,0,0,1,119.19,210.83Z" fill="#231f20"/><path d="M121.05,205.2a.5.5,0,0,1-.5-.5v-2a.5.5,0,0,1,1,0v2A.5.5,0,0,1,121.05,205.2Z" fill="#231f20"/><path d="M121.05,208.34a.5.5,0,0,1-.5-.5v-2.63a.5.5,0,0,1,1,0v2.63A.5.5,0,0,1,121.05,208.34Z" fill="#231f20"/><path d="M120.62,202.66a.5.5,0,0,1-.5-.5v-3.47a.5.5,0,0,1,.5-.5.5.5,0,0,1,.5.5v3.47A.5.5,0,0,1,120.62,202.66Z" fill="#231f20"/><path d="M123.3,203.75a.5.5,0,0,1-.5-.5v-5.69a.5.5,0,0,1,1,0v5.69A.5.5,0,0,1,123.3,203.75Z" fill="#231f20"/><path d="M108.94,199.82a.5.5,0,0,1-.5-.5v-4.48a.5.5,0,1,1,1,0v4.48A.5.5,0,0,1,108.94,199.82Z" fill="#231f20"/><path d="M132.36,200.13a.5.5,0,0,1-.5-.5v-3.85a.5.5,0,0,1,.5-.5.5.5,0,0,1,.5.5v3.85A.51.51,0,0,1,132.36,200.13Z" fill="#231f20"/><path d="M134.18,207.68a.5.5,0,0,1-.5-.5v-3.66a.5.5,0,0,1,1,0v3.66A.5.5,0,0,1,134.18,207.68Z" fill="#231f20"/><path d="M131.75,207.17a.5.5,0,0,1-.5-.5v-2.3a.5.5,0,0,1,.5-.5.5.5,0,0,1,.5.5v2.3A.51.51,0,0,1,131.75,207.17Z" fill="#231f20"/><path d="M125.46,194.23s-.11,5.69,0,5.8" fill="#68e1fd"/><path d="M125.46,200.53a.51.51,0,0,1-.36-.15c-.18-.19-.25-.26-.14-6.16a.5.5,0,1,1,1,0c0,2.45-.07,5.22,0,5.64a.5.5,0,0,1-.13.5A.49.49,0,0,1,125.46,200.53Z" fill="#231f20"/><path d="M127,196.47a.5.5,0,0,1-.5-.5V192.7a.5.5,0,0,1,.5-.5.5.5,0,0,1,.5.5V196A.51.51,0,0,1,127,196.47Z" fill="#231f20"/><path d="M129.73,197.15a.5.5,0,0,1-.5-.5v-5a.5.5,0,0,1,1,0v5A.5.5,0,0,1,129.73,197.15Z" fill="#231f20"/><path d="M95.38,163a.57.57,0,0,1-.28-.08c-4.42-2.95-6.51-6.55-8.92-10.71a54.91,54.91,0,0,0-7.87-11C70,132.37,56.87,125.05,56.74,125a.5.5,0,0,1,.49-.87c.13.07,13.4,7.46,21.81,16.33a54.89,54.89,0,0,1,8,11.23c2.36,4.05,4.39,7.56,8.62,10.37a.51.51,0,0,1,.13.7A.49.49,0,0,1,95.38,163Z" fill="#231f20"/><path d="M199.51,126.92a.49.49,0,0,1-.37-.16c-.07-.07-1.65-1.85-7.31-12.21s-6.76-13.37-6.8-13.49a.5.5,0,1,1,.94-.33s1.14,3.12,6.73,13.34,7.11,11.94,7.18,12a.49.49,0,0,1,0,.7A.46.46,0,0,1,199.51,126.92Z" fill="#231f20"/><path d="M185.5,140.15a.47.47,0,0,1-.44-.27,100.34,100.34,0,0,0-9.7-15c-4.59-5.69-11.37-3.49-22.6.17-1.83.59-3.77,1.22-5.83,1.86-11.15,3.45-20.17.7-25.56-.94a17.9,17.9,0,0,0-3.66-.91.49.49,0,0,1-.49-.51.52.52,0,0,1,.51-.49,18.35,18.35,0,0,1,3.94,1c5.28,1.61,14.11,4.3,25,.94,2.05-.63,4-1.26,5.81-1.85,11.24-3.66,18.67-6.08,23.69.15A100.4,100.4,0,0,1,186,139.43a.51.51,0,0,1-.22.67A.46.46,0,0,1,185.5,140.15Z" fill="#231f20"/><path d="M170.4,153.39a.51.51,0,0,1-.49-.39c0-.06-1.58-6.37-13.3-12.91s-16.37-7.54-16.42-7.55a.49.49,0,0,1-.39-.58.5.5,0,0,1,.58-.4c.19,0,4.68.94,16.72,7.66s13.73,13.29,13.79,13.56a.49.49,0,0,1-.38.59Z" fill="#231f20"/><path d="M288.06,112.84a.5.5,0,0,1-.35-.85,11.05,11.05,0,0,1,1.81-1.24,84.08,84.08,0,0,0,9.49-6.68c2.31-1.85,4.12-3.14,5.71-4.28a38,38,0,0,0,8.86-8c5-6.12,10.09-12,10.14-12.11a.5.5,0,1,1,.76.65c-.05.06-5.12,6-10.13,12.1a39.19,39.19,0,0,1-9,8.21c-1.59,1.14-3.39,2.42-5.68,4.25a85.61,85.61,0,0,1-9.59,6.76,11.13,11.13,0,0,0-1.63,1.09A.52.52,0,0,1,288.06,112.84Z" fill="#231f20"/><path d="M332.59,130.85a.9.9,0,0,1-.44-.13c-1-.58-1.08-3-1.12-8.83,0-4-.07-10-1.2-10.49-1.89-.75-15,4.63-20.66,6.93-2.88,1.17-4.28,1.74-4.68,1.82a.5.5,0,0,1-.2-1c.33-.06,2.26-.85,4.5-1.77,9.69-4,19.32-7.76,21.41-6.93,1.63.66,1.78,4.75,1.83,11.42,0,3.17.05,7.51.64,8,4.8-2.58,20.94-11.09,24.07-13.42a.5.5,0,0,1,.6.8c-3.1,2.31-18,10.19-24.28,13.47A.93.93,0,0,1,332.59,130.85Z" fill="#231f20"/><path d="M88.06,203.18a.47.47,0,0,1-.35-.15c-.1-.09-9.83-9.65-15.39-15-2.78-2.69-4.4-5.9-6-9-1.68-3.31-3.26-6.44-6.1-8.74C54.63,165.68,45.35,153.7,45,153.19a.5.5,0,0,1,.79-.61c.1.13,9.6,12.4,15.12,16.88,3,2.43,4.64,5.66,6.36,9.07,1.54,3,3.13,6.17,5.78,8.74,5.57,5.4,15.3,14.95,15.4,15a.5.5,0,0,1,0,.71A.47.47,0,0,1,88.06,203.18Z" fill="#231f20"/><path d="M90.06,178.11a.5.5,0,0,1-.34-.13c-8.65-7.86-17.59-16-24.23-25.95l-.07-.1c-1.09-1.65-2.23-3.35-4-3.91a8.38,8.38,0,0,0-1.78-.3,10.9,10.9,0,0,1-1.28-.15c-2.67-.49-4.79-2.42-6.5-4.24a53.88,53.88,0,0,1-8.48-11.84.5.5,0,1,1,.88-.46,53.28,53.28,0,0,0,8.32,11.61c1.61,1.71,3.57,3.5,6,3.94a11.72,11.72,0,0,0,1.19.15,8.73,8.73,0,0,1,2,.34c2.07.67,3.36,2.6,4.49,4.3l.07.11c6.57,9.84,15.47,17.94,24.08,25.76a.5.5,0,0,1,0,.71A.49.49,0,0,1,90.06,178.11Z" fill="#231f20"/><path d="M101.69,139.79a.46.46,0,0,1-.23-.06l-11.55-6.15a.49.49,0,0,1-.21-.67.5.5,0,0,1,.68-.21l11.55,6.15a.5.5,0,0,1-.24.94Z" fill="#231f20"/></g></svg>