<svg id="_80_market_analysis" data-name="#80_market_analysis" xmlns="http://www.w3.org/2000/svg" viewBox="0 0 400 300"><path d="M357.49,233.91H40.35a.5.5,0,0,1-.5-.5.5.5,0,0,1,.5-.5H357.49a.51.51,0,0,1,.5.5A.5.5,0,0,1,357.49,233.91Z" fill="#d1d3d4"/><rect x="95.79" y="64.86" width="231.4" height="154.01" fill="#fff"/><path d="M327.19,219.37H95.79a.5.5,0,0,1-.5-.5v-154a.5.5,0,0,1,.5-.5h231.4a.51.51,0,0,1,.5.5v154A.5.5,0,0,1,327.19,219.37Zm-230.9-1h230.4v-153H96.29Z" fill="#231f20"/><rect x="95.79" y="54.4" width="231.4" height="10.46" fill="#fff"/><path d="M327.19,65.36H95.79a.5.5,0,0,1-.5-.5V54.4a.5.5,0,0,1,.5-.5h231.4a.51.51,0,0,1,.5.5V64.86A.5.5,0,0,1,327.19,65.36Zm-230.9-1h230.4V54.9H96.29Z" fill="#231f20"/><path d="M149.27,206.5H119.35a.5.5,0,0,1-.5-.5V184a.5.5,0,0,1,.5-.5h29.92a.51.51,0,0,1,.5.5v22A.5.5,0,0,1,149.27,206.5Zm-29.42-1h28.92v-21H119.85Z" fill="#d1d3d4"/><path d="M199.65,206.5H169.73a.5.5,0,0,1-.5-.5V163.54a.5.5,0,0,1,.5-.5h29.92a.5.5,0,0,1,.5.5V206A.5.5,0,0,1,199.65,206.5Zm-29.42-1h28.92V164H170.23Z" fill="#d1d3d4"/><path d="M250,206.5H220.11a.5.5,0,0,1-.5-.5V111.43a.5.5,0,0,1,.5-.5H250a.5.5,0,0,1,.5.5V206A.5.5,0,0,1,250,206.5Zm-29.42-1h28.92V111.93H220.61Z" fill="#d1d3d4"/><path d="M300.41,206.5H270.5a.5.5,0,0,1-.5-.5V150.16a.5.5,0,0,1,.5-.5h29.91a.5.5,0,0,1,.5.5V206A.5.5,0,0,1,300.41,206.5Zm-29.41-1h28.91V150.66H271Z" fill="#d1d3d4"/><path d="M53.18,120.48c2.43-3.28,2.31-6.29,3.52-10.57s4.06-8.54,8.74-9.2c3.21-.45,4.87,1.35,7.61,2.38,2.25.85,5.19,0,7,1.85,1.48,1.5,1.9,3.75,1.94,5.86a35.79,35.79,0,0,0,.19,6.3c.88,4.37,4.59,7.64,6.08,11.85a12.5,12.5,0,0,1-.26,9c-2,4.7-6.68,7.83-8.69,12.52-1.16,2.71-1.33,5.72-2,8.6-1.4,6.35-5.78,13.57-12.06,15.84-6.84,2.47-15.17,1.2-20.52-3.88-2.71-2.56-4.72-6.3-3.93-9.94.94-4.32,5.55-7.52,5.32-11.93-.23-4.63-5.75-7.74-5.81-12.38,0-3,2.22-5.44,4.33-7.55l7-7A17,17,0,0,0,53.18,120.48Z" fill="#fff"/><path d="M58.22,176.56a20.09,20.09,0,0,1-13.77-5.23c-3.28-3.1-4.79-7-4.05-10.37a16.26,16.26,0,0,1,2.7-5.39c1.4-2.1,2.72-4.09,2.61-6.41-.11-2.15-1.43-3.95-2.83-5.86s-3-4.05-3-6.54c0-3.12,2.19-5.6,4.47-7.88l7-7a14.47,14.47,0,0,0,1.45-1.66h0c1.65-2.22,2.07-4.27,2.61-6.86.24-1.12.48-2.27.84-3.56,1.51-5.38,4.92-8.94,9.12-9.53A8.54,8.54,0,0,1,71,101.62a20.74,20.74,0,0,0,2.22,1,10.22,10.22,0,0,0,2.69.45c1.59.12,3.24.25,4.48,1.5s2,3.38,2.07,6.17c0,.66,0,1.32,0,2a19.07,19.07,0,0,0,.2,4.23,18.87,18.87,0,0,0,3.17,6.48,26.15,26.15,0,0,1,2.89,5.3,13,13,0,0,1-.27,9.31A25.31,25.31,0,0,1,84,144.51a24.78,24.78,0,0,0-4.26,6.11,24.62,24.62,0,0,0-1.42,5.71c-.15.92-.31,1.88-.52,2.81-1.39,6.33-5.76,13.79-12.35,16.17A21.34,21.34,0,0,1,58.22,176.56Zm8.21-75.46a6,6,0,0,0-.92.07c-5.68.79-7.84,7-8.37,8.87-.36,1.25-.59,2.39-.82,3.49-.54,2.6-1,4.84-2.77,7.22h0A16.36,16.36,0,0,1,52,122.52l-7,7c-2.15,2.15-4.24,4.47-4.21,7.23,0,2.2,1.38,4.05,2.82,6s2.88,3.93,3,6.35c.13,2.63-1.34,4.84-2.76,7a15.63,15.63,0,0,0-2.57,5.08c-.67,3.07.75,6.62,3.79,9.51,5,4.77,13.09,6.29,20,3.78,6.27-2.26,10.43-9.42,11.77-15.51.2-.91.36-1.85.51-2.76a25.55,25.55,0,0,1,1.48-5.92,25.43,25.43,0,0,1,4.41-6.35,24.29,24.29,0,0,0,4.28-6.17,12,12,0,0,0,.25-8.64A24.71,24.71,0,0,0,85,124a20.08,20.08,0,0,1-3.3-6.8,20.73,20.73,0,0,1-.22-4.44c0-.65,0-1.3,0-2,0-2.54-.64-4.35-1.8-5.54-1-1-2.41-1.11-3.91-1.23a10.79,10.79,0,0,1-2.93-.51,19.24,19.24,0,0,1-2.32-1.09A8.52,8.52,0,0,0,66.43,101.1ZM53.18,120.48h0Z" fill="#231f20"/><polygon points="85.56 134.72 90.81 143.96 113.06 144.73 106.14 151.03 87.58 152.54 77.68 139.14 85.56 134.72" fill="#fff"/><path d="M87.58,153a.54.54,0,0,1-.41-.2l-9.9-13.4a.51.51,0,0,1,.16-.73l7.89-4.42a.5.5,0,0,1,.68.19l5.11,9,22,.76a.51.51,0,0,1,.45.33.5.5,0,0,1-.13.54l-6.92,6.3a.58.58,0,0,1-.3.13L87.62,153ZM78.42,139.3,87.81,152l18.12-1.47,5.89-5.36-21-.73a.47.47,0,0,1-.41-.25l-5-8.81Z" fill="#231f20"/><path d="M97.23,203.53l13.15,25.06s13.39.15,13.3,1-19.31,7.92-19.31,7.92L89.16,208.61" fill="#fff"/><path d="M104.37,238a.5.5,0,0,1-.44-.27L88.72,208.85a.51.51,0,0,1,.21-.68.5.5,0,0,1,.68.21l15,28.54c6.24-2.29,15.6-5.88,18.08-7.19a108.77,108.77,0,0,0-12.32-.64.51.51,0,0,1-.43-.27l-13.15-25a.5.5,0,1,1,.88-.47l13,24.79c4.81.06,12.61.28,13.34,1.11a.74.74,0,0,1,.16.47c0,.38-.13,1.19-19.63,8.34A.57.57,0,0,1,104.37,238Zm18.95-8.14h0Z" fill="#231f20"/><path d="M56.84,198.84,54.7,240.21s20.38,4.41,20.46,3.89-11-8.39-11-8.39l3.2-29.4" fill="#fff"/><path d="M75,244.61c-1,0-4.86-.54-20.42-3.91a.5.5,0,0,1-.39-.52l2.14-41.37a.48.48,0,0,1,.52-.47.5.5,0,0,1,.48.52l-2.12,40.95c6.19,1.34,15.4,3.24,18.66,3.72-1.78-1.47-6.06-4.61-10-7.41a.53.53,0,0,1-.2-.47l3.19-29.4a.5.5,0,0,1,1,.11L64.7,235.47c11.07,7.88,11,8.34,11,8.7a.57.57,0,0,1-.22.36A.68.68,0,0,1,75,244.61Z" fill="#231f20"/><path d="M114.53,227.41l-1.78,4.69-10.21,3.56,1.91,3.78s22.46-8,22.52-10.21S114.53,227.41,114.53,227.41Z" fill="#231f20"/><path d="M52.8,241.15l.62-4.23,12.45,3.44,2.42-3.2s9.11,6.61,7.87,8S61.43,244,52.8,241.15Z" fill="#231f20"/><path d="M54,162.63l-2.75,55s31.38,6,56.37-8.63L81,164.74Z" fill="#231f20"/><path d="M66.81,219.34a94.81,94.81,0,0,1-15.64-1.19.51.51,0,0,1-.41-.52l2.76-55a.46.46,0,0,1,.16-.35.52.52,0,0,1,.37-.12l27,2.1a.49.49,0,0,1,.39.24l26.65,44.29a.5.5,0,0,1,.06.38.56.56,0,0,1-.23.31C94.09,217.53,78.24,219.34,66.81,219.34Zm-15-2.1c3.82.63,32.26,4.74,55.16-8.39L80.69,165.21l-26.2-2Z" fill="#231f20"/><path d="M81.12,127.64c-4.22-4.23-24.55-5-27.14,1.78-2.09,5.52-1.35,36.2-1.35,36.2,9.95,6.15,30.87,1.21,30.87,1.21l.93-15S85.68,132.21,81.12,127.64Z" fill="#68e1fd"/><path d="M74.89,124.37l.5,6.61s-.42,3.74-4.52,2.89a8.29,8.29,0,0,1-5.66-4.37L64.87,118a20.47,20.47,0,0,0,.24-6.19c4.88-.41,8.47-4.36,8.47-4.36s1.85,2.4,2.64,3.15a31.16,31.16,0,0,0,2.51,1.87s0,7-.24,8.62A3.77,3.77,0,0,1,74.89,124.37Z" fill="#fff"/><path d="M72,134.46a6.2,6.2,0,0,1-1.24-.14,8.72,8.72,0,0,1-6-4.63.35.35,0,0,1,0-.17C64.41,118,64.41,118,64.41,118a3.76,3.76,0,0,1,.08-.61,18.52,18.52,0,0,0,.16-5.54.44.44,0,0,1,.11-.33.47.47,0,0,1,.31-.16c4.64-.4,8.14-4.18,8.17-4.22a.41.41,0,0,1,.36-.15.43.43,0,0,1,.34.18s1.84,2.38,2.59,3.1c.58.54,2.43,1.81,2.45,1.82a.44.44,0,0,1,.2.38c0,.28,0,7-.24,8.68a4.12,4.12,0,0,1-3.56,3.6l.46,6.17a4.19,4.19,0,0,1-1.57,2.82A3.69,3.69,0,0,1,72,134.46Zm-6.36-5.07a7.93,7.93,0,0,0,5.31,4,3.44,3.44,0,0,0,2.76-.39,3.34,3.34,0,0,0,1.2-2.11l-.5-6.52a.46.46,0,0,1,.12-.34.41.41,0,0,1,.33-.15A3.3,3.3,0,0,0,78,121.06c.2-1.44.23-7.08.24-8.32A28.18,28.18,0,0,1,75.9,111c-.6-.58-1.79-2.06-2.36-2.79a14.89,14.89,0,0,1-7.94,4.08,19,19,0,0,1-.21,5.34c0,.18-.06.36-.06.42S65.63,128.28,65.66,129.39Z" fill="#231f20"/><path d="M75.08,127.62a6.41,6.41,0,0,1-4.53-1.36,4.61,4.61,0,0,1-1.71-3.49,12.88,12.88,0,0,0,6,1.6Z" fill="#231f20"/><path d="M74.56,128.09a6.53,6.53,0,0,1-4.3-1.51,5,5,0,0,1-1.86-3.84.43.43,0,0,1,.23-.36.42.42,0,0,1,.42,0,12.67,12.67,0,0,0,5.82,1.54.45.45,0,0,1,.46.42l.19,3.25a.45.45,0,0,1-.39.46S74.89,128.09,74.56,128.09Zm-5.2-4.56a4.62,4.62,0,0,0,1.49,2.4,5.7,5.7,0,0,0,3.72,1.27h0l-.14-2.38A12.79,12.79,0,0,1,69.36,123.53Z" fill="#231f20"/><path d="M73.09,113.77s2,3.24,1.51,3.78-1.93.13-1.93.13" fill="#fff"/><path d="M73.69,118.27a4.69,4.69,0,0,1-1.14-.16.45.45,0,0,1,.25-.86c.48.14,1.27.22,1.49,0A12.1,12.1,0,0,0,72.71,114a.45.45,0,0,1,.14-.61.44.44,0,0,1,.61.14c1.48,2.35,2,3.81,1.46,4.33A1.68,1.68,0,0,1,73.69,118.27Z" fill="#231f20"/><ellipse cx="75.44" cy="113.22" rx="0.37" ry="0.69" transform="translate(-6.58 4.68) rotate(-3.4)" fill="#231f20"/><ellipse cx="69.68" cy="113.77" rx="0.37" ry="0.69" transform="translate(-7.84 5.19) rotate(-4.04)" fill="#231f20"/><path d="M65.86,114.48a2.71,2.71,0,0,0-3.14-1.15c-1.53.41-1.63,1.82-1.12,3.14a5.26,5.26,0,0,0,3.92,3.39" fill="#fff"/><path d="M65.52,120.31h-.06a5.7,5.7,0,0,1-4.28-3.68,3.21,3.21,0,0,1-.06-2.61,2.23,2.23,0,0,1,1.48-1.13,3.16,3.16,0,0,1,3.67,1.4.46.46,0,0,1-.22.61.47.47,0,0,1-.61-.22,2.26,2.26,0,0,0-2.6-.91,1.32,1.32,0,0,0-.91.66,2.38,2.38,0,0,0,.1,1.87,4.76,4.76,0,0,0,3.56,3.11.45.45,0,0,1,.39.51A.46.46,0,0,1,65.52,120.31Z" fill="#231f20"/><path d="M106.4,124.82h8.73a0,0,0,0,1,0,0v32.6a4.11,4.11,0,0,1-4.11,4.11h-.51a4.11,4.11,0,0,1-4.11-4.11v-32.6a0,0,0,0,1,0,0Z" transform="translate(162.64 -30.25) rotate(54.38)" fill="#fff"/><path d="M99.34,156.29a4.59,4.59,0,0,1-3.75-1.93l-.3-.41a4.62,4.62,0,0,1,1.06-6.43l26.51-19a.49.49,0,0,1,.69.12l5.09,7.09a.54.54,0,0,1,.08.37.5.5,0,0,1-.2.33l-26.5,19A4.53,4.53,0,0,1,99.34,156.29ZM123,129.63l-26.09,18.7a3.63,3.63,0,0,0-.84,5l.3.41h0a3.61,3.61,0,0,0,5,.83l26.09-18.69Z" fill="#231f20"/><rect x="129.37" y="108.85" width="14.09" height="31.89" transform="translate(158.42 -58.78) rotate(54.38)" fill="#fff"/><path d="M127.56,140.31h-.08a.5.5,0,0,1-.33-.2L119,128.65a.51.51,0,0,1,.11-.7L145,109.38a.51.51,0,0,1,.7.11L153.89,121a.49.49,0,0,1,.08.37.5.5,0,0,1-.2.33l-25.92,18.57A.5.5,0,0,1,127.56,140.31Zm-7.51-11.84,7.62,10.64,25.11-18-7.62-10.64Z" fill="#231f20"/><rect x="75.91" y="135.38" width="14.09" height="55.45" rx="4.97" transform="translate(167.23 0.67) rotate(54.38)" fill="#fff"/><path d="M65.68,183.5a5.47,5.47,0,0,1-4.46-2.28h0l-2.41-3.37a5.48,5.48,0,0,1,1.26-7.64l37-26.49a5.47,5.47,0,0,1,7.63,1.26l2.42,3.37a5.47,5.47,0,0,1-1.27,7.63l-37,26.5A5.46,5.46,0,0,1,65.68,183.5ZM62,180.64a4.49,4.49,0,0,0,6.25,1l37-26.5a4.47,4.47,0,0,0,1-6.24l-2.41-3.37a4.47,4.47,0,0,0-6.24-1l-37,26.5a4.47,4.47,0,0,0-1,6.24Z" fill="#231f20"/><circle cx="156" cy="110.77" r="37.41" fill="#fff"/><path d="M156.05,148.67a37.9,37.9,0,1,1,22-7.08h0A37.74,37.74,0,0,1,156.05,148.67Zm-.1-74.8A36.9,36.9,0,1,0,186,89.27,36.74,36.74,0,0,0,156,73.87Zm21.84,67.31Z" fill="#231f20"/><circle cx="156" cy="110.77" r="30.39" fill="#fff"/><path d="M156.06,141.67a31.52,31.52,0,0,1-5.1-.42,30.89,30.89,0,1,1,23-5.37h0A30.69,30.69,0,0,1,156.06,141.67Zm-.13-60.79a29.89,29.89,0,1,0,17.47,54.19h0a29.89,29.89,0,0,0-12.53-53.79A30.57,30.57,0,0,0,155.93,80.88Z" fill="#231f20"/><path d="M163.65,121.71h0a.49.49,0,0,1-.39-.24l-4.94-8.26-3.81,5.8a.55.55,0,0,1-.43.23.47.47,0,0,1-.41-.24l-7.5-12.35L135.4,119.07a.49.49,0,0,1-.7.05.51.51,0,0,1,0-.71l11.17-12.93a.5.5,0,0,1,.42-.18.52.52,0,0,1,.38.24l7.45,12.26,3.81-5.8a.52.52,0,0,1,.43-.23.5.5,0,0,1,.42.24l5,8.33,14.79-18.23a.5.5,0,0,1,.7-.08.51.51,0,0,1,.08.71L164,121.53A.5.5,0,0,1,163.65,121.71Z" fill="#d1d3d4"/><path d="M178.25,108.42h-.06a.51.51,0,0,1-.44-.56l.55-4.74-5.13,1.53a.5.5,0,0,1-.62-.33.51.51,0,0,1,.33-.63l5.87-1.75a.51.51,0,0,1,.46.1.5.5,0,0,1,.18.44l-.65,5.5A.5.5,0,0,1,178.25,108.42Z" fill="#d1d3d4"/><path d="M63.9,140.14s1,7.42,1.71,8S83,163.42,84.41,164.05s6.83,2.65,6.37,3-2.2,1.66-2.2,1.66,2.28,1.21.81,2.26-7.11,1.68-9.22.27-21.62-14.77-22.53-16.87-3.16-11.16-3.16-11.16" fill="#fff"/><path d="M84.11,172.52a8.15,8.15,0,0,1-4.21-.9c-.22-.15-21.67-14.67-22.72-17.09-.91-2.12-3.09-10.86-3.19-11.23a.51.51,0,0,1,.37-.61.49.49,0,0,1,.6.36c0,.09,2.26,9,3.14,11.08.76,1.77,18,13.75,22.35,16.65,1.85,1.24,7.29.73,8.65-.25.2-.14.29-.27.28-.39,0-.32-.61-.8-1-1a.52.52,0,0,1-.27-.4.48.48,0,0,1,.2-.43c0-.05,1-.81,1.71-1.31-.89-.47-2.9-1.28-4.09-1.76-.71-.29-1.33-.54-1.69-.7-.89-.39-6.3-5-17.55-14.8l-1.37-1.2c-.71-.6-1.49-5.46-1.89-8.3a.49.49,0,0,1,.43-.56.5.5,0,0,1,.56.42c.48,3.42,1.2,7.23,1.57,7.7L67.32,149c10.72,9.37,16.53,14.3,17.29,14.64l1.67.68c4.5,1.82,5,2.12,5,2.63a.6.6,0,0,1-.24.51c-.28.19-1.08.8-1.63,1.22a2.15,2.15,0,0,1,.94,1.43,1.44,1.44,0,0,1-.69,1.27C88.73,172,86.37,172.52,84.11,172.52Zm6.29-5.3h0Z" fill="#231f20"/><path d="M113.69,150.37a4.27,4.27,0,0,0,1.54-4.14A7.65,7.65,0,0,0,113.1,143c-.32-.34-.85-.7-1.2-.39a.78.78,0,0,0,0,1,2.7,2.7,0,0,1,.46.93,2.35,2.35,0,0,0-1-.79,1.21,1.21,0,0,0-1.18.12,1.26,1.26,0,0,0-.3,1.42,3.64,3.64,0,0,0,.88,1.25c-.32-.25-.56-.61-.88-.87a.81.81,0,0,0-1.28,1c.17.37.45.68.6,1a1.79,1.79,0,0,0-.71-.8.61.61,0,0,0-.87.34.85.85,0,0,0,.18.58c.59,1,1.53,1.78.8,3-.1.17,1.76.55,1.91.56a4.54,4.54,0,0,0,2.88-.78Z" fill="#fff"/><path d="M110.84,151.88h-.35s-2-.27-2.31-.8a.56.56,0,0,1,0-.52c.4-.68.16-1.09-.39-1.88-.14-.21-.29-.42-.42-.64a1.38,1.38,0,0,1-.23-.92.93.93,0,0,1,.51-.68,1.18,1.18,0,0,1,.36-.12,1.28,1.28,0,0,1,.41-1.2,1.21,1.21,0,0,1,.88-.26,1.71,1.71,0,0,1,.57-1.43,1.65,1.65,0,0,1,1.34-.29,1.08,1.08,0,0,1,.35-.92c.5-.43,1.24-.26,1.89.43a7.94,7.94,0,0,1,2.25,3.47,4.76,4.76,0,0,1-1.7,4.65h0a2.43,2.43,0,0,1-.32.24A5,5,0,0,1,110.84,151.88Zm-1.56-1.3a11.8,11.8,0,0,0,1.29.29,4,4,0,0,0,2.55-.69l.26-.19a3.81,3.81,0,0,0,1.36-3.64,7.11,7.11,0,0,0-2-3,1.27,1.27,0,0,0-.53-.36.77.77,0,0,0,.1.34l.14.22a2,2,0,0,1,.38.89.5.5,0,0,1-.89.37,1.83,1.83,0,0,0-.75-.63.67.67,0,0,0-.68,0,.8.8,0,0,0-.14.86,3.3,3.3,0,0,0,.78,1.08.5.5,0,0,1-.67.74,4.89,4.89,0,0,1-.52-.5,3.23,3.23,0,0,0-.37-.37c-.2-.16-.44-.2-.52-.13s-.08.32,0,.52a3.7,3.7,0,0,0,.25.43,4.83,4.83,0,0,1,.35.64.5.5,0,0,1-.9.44,1.39,1.39,0,0,0-.48-.6.24.24,0,0,0-.19,0,1.33,1.33,0,0,1,.14.2,6.46,6.46,0,0,0,.38.58A2.71,2.71,0,0,1,109.28,150.58Zm4.41-.2h0Z" fill="#231f20"/><path d="M81.65,128.28l5.93,8.5-7.18,3.68S79.78,131.33,81.65,128.28Z" fill="#68e1fd"/><path d="M64.86,138.23a.47.47,0,0,1-.45-.3,6.86,6.86,0,0,1-.21-1c-.3-1.8-1-6-2.4-8.39a.5.5,0,1,1,.86-.5c1.48,2.53,2.22,6.87,2.53,8.72.07.42.12.72.15.82a.51.51,0,0,1-.48.66Z" fill="#231f20"/><path d="M72.74,122.08a2.53,2.53,0,0,1-1.62-.56,5.3,5.3,0,0,1-1.48-3.29.44.44,0,0,1,.41-.47.43.43,0,0,1,.47.4,4.41,4.41,0,0,0,1.16,2.67,1.7,1.7,0,0,0,1.36.35c2.36-.32,2.85-3.39,2.86-3.42a.44.44,0,1,1,.87.13c0,.16-.59,3.76-3.61,4.16Z" fill="#231f20"/><path d="M319.63,206.5H106a.5.5,0,0,1-.5-.5.5.5,0,0,1,.5-.5H319.63a.5.5,0,0,1,.5.5A.5.5,0,0,1,319.63,206.5Z" fill="#d1d3d4"/><path d="M149.27,157.93H119.35a.5.5,0,0,1-.5-.5.5.5,0,0,1,.5-.5h29.92a.5.5,0,0,1,.5.5A.51.51,0,0,1,149.27,157.93Z" fill="#d1d3d4"/><path d="M149.27,168.83H119.35a.5.5,0,0,1-.5-.5.5.5,0,0,1,.5-.5h29.92a.5.5,0,0,1,.5.5A.51.51,0,0,1,149.27,168.83Z" fill="#d1d3d4"/><path d="M138.91,179.72H119.35a.5.5,0,0,1-.5-.5.5.5,0,0,1,.5-.5h19.56a.5.5,0,0,1,.5.5A.5.5,0,0,1,138.91,179.72Z" fill="#d1d3d4"/><path d="M242.29,75.89H220.11a.5.5,0,0,1,0-1h22.18a.5.5,0,0,1,0,1Z" fill="#d1d3d4"/><path d="M306,85.08H220.11a.5.5,0,0,1-.5-.5.51.51,0,0,1,.5-.5H306a.5.5,0,0,1,.5.5A.5.5,0,0,1,306,85.08Z" fill="#d1d3d4"/><path d="M264.46,94.28H220.11a.5.5,0,0,1,0-1h44.35a.5.5,0,0,1,0,1Z" fill="#d1d3d4"/><path d="M274.21,103.48h-54.1a.51.51,0,0,1-.5-.5.5.5,0,0,1,.5-.5h54.1a.5.5,0,0,1,.5.5A.5.5,0,0,1,274.21,103.48Z" fill="#d1d3d4"/><path d="M285.55,144.11A17.09,17.09,0,1,1,302.63,127,17.11,17.11,0,0,1,285.55,144.11Zm0-33.17A16.09,16.09,0,1,0,301.63,127,16.11,16.11,0,0,0,285.55,110.94Z" fill="#d1d3d4"/><path d="M292.2,142.71a.49.49,0,0,1-.46-.3l-6.65-15.19a.48.48,0,0,1,.12-.56l12.21-11.21a.5.5,0,1,1,.68.73l-12,11L292.66,142a.5.5,0,0,1-.26.66A.51.51,0,0,1,292.2,142.71Z" fill="#d1d3d4"/><path d="M285.55,127.52a.48.48,0,0,1-.41-.2L275.25,114a.5.5,0,0,1,.8-.6l9.9,13.31a.5.5,0,0,1-.11.7A.52.52,0,0,1,285.55,127.52Z" fill="#d1d3d4"/><path d="M345.3,195.51a7,7,0,0,0-.8-3.75,27.66,27.66,0,0,1-1.68-2.38c-.72-1.52-.21-3.31-.38-5a6.21,6.21,0,0,0-1.76-3.72c-.87-.88-2-1.49-2.83-2.41-1.38-1.51-1.77-3.64-2.55-5.53a13.84,13.84,0,0,0-5.48-6.45c1.5,3-1.91,6.83-.36,9.81.49.95,1.42,1.64,1.78,2.64.86,2.42-2,5-1.1,7.44.46,1.19,1.75,1.89,2.34,3,.81,1.53.17,3.39.24,5.12a9.39,9.39,0,0,0,3.27,6.17c1.07,1,2.27,1.92,3.43,2.85,1.38,1.11,2,2.28,3.19.49A15.35,15.35,0,0,0,345.3,195.51Z" fill="#231f20"/><path d="M346.85,196.88c-.45-1.85-.77-3.85,0-5.59.85-2,3-3.37,3.22-5.5.17-1.39-.54-2.81-.27-4.18s1.41-2.32,2.34-3.34a14,14,0,0,0,3.6-8.53,21.31,21.31,0,0,1,3.43,5.68,7.26,7.26,0,0,1-.5,6.4,6,6,0,0,0-.87,1.42c-.42,1.36.75,2.63,1.35,3.92a4.49,4.49,0,0,1-.43,4.62c-1.22,1.52-3.57,2.11-4.17,4a9.72,9.72,0,0,0-.21,2.1,6.17,6.17,0,0,1-4.44,5.3c-1.44.34-1.41-.23-1.67-1.44C347.86,200.08,347.24,198.5,346.85,196.88Z" fill="#231f20"/><path d="M342.25,183.6c-1-3.54-1.43-7.25-2.51-10.77a58.84,58.84,0,0,0-3.36-8l4.4,1.85c1.41.6,2.94,1.3,3.6,2.68,1.16,2.4-.92,5.47.3,7.84a20.14,20.14,0,0,0,1.74,2.19c1.29,1.82,1.1,4.32.38,6.43-.3.91-1.63,5.62-2.82,4.31-.48-.52-.52-2.47-.72-3.19C343,185.79,342.57,184.71,342.25,183.6Z" fill="#231f20"/><path d="M344.54,230.72c-.88-5.79-3.62-26.22-3.65-26.43l1-.13c0,.21,2.77,20.62,3.65,26.41Z" fill="#231f20"/><path d="M345.81,236.18h-1c.05-6.89,2.94-33.24,4.6-35.06l.74.67C349,203.12,345.87,227.87,345.81,236.18Z" fill="#231f20"/><path d="M347.3,234.87l-1-.05c.66-14.82-2.49-46-2.52-46.28l1-.1C344.81,188.75,348,220,347.3,234.87Z" fill="#231f20"/><path d="M337.12,214.1h16.37l-1.14,18.59a5.77,5.77,0,0,1-5.46,5.71h-3.16a5.77,5.77,0,0,1-5.46-5.71Z" fill="#fff"/><path d="M346.89,238.92h-3.16c-3.14,0-5.76-2.72-6-6.2l-1.14-18.59a.49.49,0,0,1,.14-.38.5.5,0,0,1,.37-.17h16.37a.5.5,0,0,1,.38.17.49.49,0,0,1,.14.38l-1.15,18.59C352.65,236.2,350,238.92,346.89,238.92Zm-9.22-24.31,1.11,18c.18,2.93,2.36,5.23,5,5.23h3.16c2.59,0,4.76-2.3,4.94-5.23l1.12-18Z" fill="#231f20"/></svg>