<svg xmlns="http://www.w3.org/2000/svg" viewBox="0 0 400 300"><g id="_354_military_flatline" data-name="#354_military_flatline"><rect x="152.45" y="242.55" width="108.67" height="19.38" fill="#68e1fd"/><path d="M263.1,128.09l14,48v12.64l21.17-6s.47,45.32-14.22,52.2-35.71-7.2-38.08-15.6.63-73.65,4.42-82.5A14.38,14.38,0,0,1,263.1,128.09Z" fill="#68e1fd"/><path d="M263.1,203.12H263a.5.5,0,0,1-.4-.58c1.37-7.47,8.48-13.5,8.78-13.75a.5.5,0,0,1,.64.76c-.07.06-7.13,6.06-8.44,13.17A.49.49,0,0,1,263.1,203.12Z" fill="#231f20"/><path d="M176.25,93.47s45.76,9.59,65.69,0c0,0-3.76-24.13-6.71-27.61s-47.16-5.79-52-.76S176.25,93.47,176.25,93.47Z" fill="#231f20"/><path d="M216.18,98.24q-6.69,0-14.6-.68A240.34,240.34,0,0,1,176.15,94a.5.5,0,0,1-.39-.53c.09-1,2.2-23.58,7.11-28.68,3.31-3.44,21.58-3.13,27.1-3,11.12.36,23.9,1.69,25.64,3.75,3,3.55,6.66,26.86,6.82,27.86a.5.5,0,0,1-.28.52C236.17,96.8,227.47,98.24,216.18,98.24Zm-39.39-5.17c4.71.94,45.92,8.76,64.6.11-1.33-8.4-4.31-24.37-6.54-27-1.24-1.48-12.42-3-24.92-3.4-14-.45-24.36.59-26.35,2.65C179.28,69.92,177.12,89.83,176.79,93.07Z" fill="#231f20"/><polygon points="184.58 109.98 228.78 109.98 222.85 123.91 197.09 123.91 184.58 117.92 184.58 109.98" fill="#68e1fd"/><path d="M222.85,124.41H197.09a.5.5,0,0,1-.21,0l-12.52-6a.5.5,0,0,1-.28-.45V110a.5.5,0,0,1,.5-.5h44.2a.5.5,0,0,1,.46.7l-5.93,13.92A.5.5,0,0,1,222.85,124.41Zm-25.64-1h25.32l5.5-12.93H185.08v7.13Z" fill="#231f20"/><path d="M204.3,117.77s-21.56-3.37-37.09-.66c-13.79,2.4-16.26,11-16.63,16.92s3.64,110.66,3.64,110.66H259.46s4.36-105.86,3.64-116.6c-.13-1.89-14.76-9.18-20.66-11.15C239.2,115.87,222.57,114.5,204.3,117.77Z" fill="#68e1fd"/><path d="M198,171.34h-23.9a.5.5,0,0,1-.5-.5V146.6a.5.5,0,0,1,.5-.5H198a.5.5,0,0,1,.5.5v24.24A.5.5,0,0,1,198,171.34Zm-23.4-1h22.91V147.09H174.64Z" fill="#231f20"/><path d="M185.63,154.93a.46.46,0,0,1-.28-.08L173.86,147a.5.5,0,0,1,.56-.83l11.22,7.66,12.14-7.67a.5.5,0,0,1,.53.85l-12.42,7.84A.48.48,0,0,1,185.63,154.93Z" fill="#231f20"/><path d="M239.47,171.34h-23.9a.5.5,0,0,1-.5-.5V146.6a.5.5,0,0,1,.5-.5h23.9a.5.5,0,0,1,.5.5v24.24A.5.5,0,0,1,239.47,171.34Zm-23.4-1H239V147.09h-22.9Z" fill="#231f20"/><path d="M227.05,154.93a.5.5,0,0,1-.28-.08L215.29,147a.5.5,0,0,1,.56-.83l11.21,7.66,12.15-7.67a.5.5,0,0,1,.53.85l-12.42,7.84A.5.5,0,0,1,227.05,154.93Z" fill="#231f20"/><polygon points="247.5 163.54 166.01 163.54 150.41 202.62 150.41 250.69 263.1 250.69 263.1 202.62 247.5 163.54" fill="#fff"/><path d="M263.1,251.21H150.41a.52.52,0,0,1-.51-.52V202.62a.58.58,0,0,1,0-.19l15.6-39.08A.52.52,0,0,1,166,163H247.5a.52.52,0,0,1,.48.33l15.6,39.08a.58.58,0,0,1,0,.19v48.07A.52.52,0,0,1,263.1,251.21Zm-112.17-1H262.58V202.72l-15.43-38.67H166.36l-15.43,38.67Z" fill="#231f20"/><path d="M171.07,114.4h11.67a0,0,0,0,1,0,0V168a5.84,5.84,0,0,1-5.84,5.84h0a5.84,5.84,0,0,1-5.84-5.84V114.4A0,0,0,0,1,171.07,114.4Z" fill="#fff"/><path d="M176.91,174.36a6.36,6.36,0,0,1-6.35-6.35V114.4a.52.52,0,0,1,.51-.52h11.68a.52.52,0,0,1,.51.52V168A6.36,6.36,0,0,1,176.91,174.36Zm-5.32-59.44V168a5.32,5.32,0,0,0,10.64,0V114.92Z" fill="#231f20"/><path d="M230.77,114.4h11.67a0,0,0,0,1,0,0V168a5.84,5.84,0,0,1-5.84,5.84h0a5.84,5.84,0,0,1-5.84-5.84V114.4a0,0,0,0,1,0,0Z" fill="#fff"/><path d="M236.61,174.36a6.36,6.36,0,0,1-6.36-6.35V114.4a.52.52,0,0,1,.52-.52h11.67a.52.52,0,0,1,.52.52V168A6.36,6.36,0,0,1,236.61,174.36Zm-5.32-59.44V168a5.32,5.32,0,1,0,10.64,0V114.92Z" fill="#231f20"/><path d="M190.66,119.92s6.75,3.45,18.34,3.85S222.52,121,222.52,121l-.27-6.2-.64-14.42L221,86.92,194.53,86l-1.26,11-.39,3.55Z" fill="#fff"/><path d="M211,124.32c-.63,0-1.28,0-2,0-11.58-.4-18.29-3.76-18.57-3.9a.51.51,0,0,1-.27-.52L194,86a.51.51,0,0,1,.53-.46l26.47.92a.52.52,0,0,1,.5.49L223,121a.54.54,0,0,1-.08.3C222.88,121.43,221,124.32,211,124.32Zm-19.75-4.71A49,49,0,0,0,209,123.25c9.77.34,12.48-1.88,13-2.4l-1.49-33.43L195,86.54Z" fill="#231f20"/><path d="M206.41,103.27l2.37.08c11.2.39,22.49-9.21,22.88-20.41l4.17-31.28-28.5,5L183,50.17l3.85,32.11A20.29,20.29,0,0,0,206.41,103.27Z" fill="#fff"/><path d="M209.43,103.87h-.67l-2.37-.08a20.81,20.81,0,0,1-20.07-21.52l-3.84-32a.52.52,0,0,1,.65-.56l24.22,6.45,28.39-5a.57.57,0,0,1,.45.14.51.51,0,0,1,.15.44L232.17,83C231.79,93.89,220.84,103.87,209.43,103.87Zm-25.83-53,3.75,31.35a19.82,19.82,0,0,0,19.08,20.53l2.36.08c11.17.38,22-9.29,22.35-19.91l4.09-30.63-27.81,4.86a.6.6,0,0,1-.23,0Z" fill="#231f20"/><path d="M176.25,81.62s11,25.33,30.43,26.93,32.46-21.47,34.78-30.2l-9-12.54s1,37.54-23.72,37.54S186,65.86,186,65.86Z" fill="#231f20"/><path d="M208.62,109.13c-.65,0-1.31,0-2-.08-19.47-1.61-30.73-27-30.84-27.23a.5.5,0,0,1,0-.46l9.71-15.76a.5.5,0,0,1,.93.29c0,.21-.95,21.13,8.78,31.36a17.91,17.91,0,0,0,13.53,5.6,18.36,18.36,0,0,0,13.66-5.61C232.43,87,232,66,232,65.82a.52.52,0,0,1,.34-.48.5.5,0,0,1,.57.18l9,12.54a.53.53,0,0,1,.07.42C239.79,86.6,227.55,109.13,208.62,109.13Zm-31.8-27.47c1.18,2.55,12,24.92,29.9,26.39,10.34.86,18.43-5.54,23.38-11.06,5.66-6.29,9.54-14,10.82-18.54L233,67.36a72.14,72.14,0,0,1-1,10.48c-1.06,6.12-3.45,14.57-8.83,20.09a19.31,19.31,0,0,1-14.38,5.91,18.85,18.85,0,0,1-14.25-5.91c-5.25-5.52-7.44-14-8.34-20.07a70.74,70.74,0,0,1-.75-10.19Z" fill="#231f20"/><path d="M209.43,91.5a26.49,26.49,0,0,1-4-.3.52.52,0,1,1,.16-1,26.06,26.06,0,0,0,5.75.2c.06,0,.13,0,.21-.14,1-1.55-1.22-9.67-2.86-14.42a.52.52,0,1,1,1-.34c.45,1.31,4.35,12.84,2.74,15.33a1.24,1.24,0,0,1-1,.6C210.73,91.47,210.06,91.5,209.43,91.5Z" fill="#231f20"/><ellipse cx="218.45" cy="71.63" rx="3.44" ry="1.4" transform="translate(139.28 287.46) rotate(-88.01)" fill="#231f20"/><ellipse cx="200.42" cy="73.01" rx="3.44" ry="1.4" transform="translate(120.5 270.77) rotate(-88.01)" fill="#231f20"/><path d="M184.58,110c.54,0,22.18,13.79,22.18,13.79l-5,4.32-22.38-5.3Z" fill="#68e1fd"/><path d="M201.79,128.58h-.11l-22.39-5.29A.54.54,0,0,1,179,123a.53.53,0,0,1,0-.41l5.18-12.82a.5.5,0,0,1,.46-.31c.18,0,.68,0,22.45,13.87a.47.47,0,0,1,.22.38.46.46,0,0,1-.17.41l-5,4.32A.5.5,0,0,1,201.79,128.58Zm-21.71-6.14,21.58,5.1,4.27-3.71c-7.74-4.93-18.77-11.88-21.09-13.17Z" fill="#231f20"/><path d="M228.78,110c-.54,0-22.18,13.79-22.18,13.79l5,4.32,22.39-5.3Z" fill="#68e1fd"/><path d="M211.56,128.58a.49.49,0,0,1-.32-.12l-5-4.32a.48.48,0,0,1-.16-.41.47.47,0,0,1,.22-.38c21.77-13.87,22.26-13.87,22.45-13.87a.5.5,0,0,1,.46.31l5.18,12.82a.53.53,0,0,1,0,.41.54.54,0,0,1-.33.26l-22.39,5.29Zm-4.13-4.75,4.27,3.71,21.57-5.1-4.75-11.78C226.2,112,215.17,118.9,207.43,123.83Z" fill="#231f20"/><path d="M240.87,75.65s-1.82-21.8-5.66-30.4-14.63-14.2-28.16-14.2-19.93,6.16-23.22,10.55-7.13,22.49-7,32.91c0,0,.37-7.32,12.8-9.33s31.63-4,37.66-2S240.87,75.65,240.87,75.65Z" fill="#231f20"/><path d="M174,93s2.74,2,4.93-1.64.92-15.36,6.77-21.94,18.47-4.21,26.51-4.21,16.27.92,20.11,4.21,5.49,19.93,7.13,22.3,3.66,2.93,6-.18S240.87,70.67,240,67.19s-5.67-7.31-10.79-8.59-27.24-1.28-34.37,0-13.35,2-16.45,7.13-7.13,22.12-6.77,24.5A3.15,3.15,0,0,0,174,93Z" fill="#fff"/><path d="M242.25,94.18h-.06c-1.14,0-2.22-.77-3.2-2.19-.68-1-1.29-3.84-2.06-7.45-1.15-5.41-2.72-12.82-5-14.76-3.16-2.71-9.82-4.08-19.78-4.08-1.61,0-3.39-.1-5.28-.2-7.27-.38-16.32-.86-20.85,4.23-3.58,4-4.42,10.11-5.09,15-.4,2.92-.75,5.43-1.61,6.87A4.56,4.56,0,0,1,176.4,94a3.69,3.69,0,0,1-2.65-.52,3.65,3.65,0,0,1-2.68-3.14c-.38-2.47,3.6-19.53,6.84-24.85,3-4.94,8.68-5.94,15.26-7.09l1.54-.28c7.14-1.28,29.45-1.28,34.59,0s10.18,5.26,11.16,9c.19.74.67,2.15,1.27,3.93,3.12,9.2,6,18.38,4.12,20.83C244.66,93.38,243.45,94.18,242.25,94.18ZM200.54,64.25c2.19,0,4.36.12,6.4.22,1.88.1,3.64.2,5.23.2,10.22,0,17.1,1.45,20.45,4.33,2.52,2.16,4.08,9.46,5.32,15.32.69,3.23,1.34,6.27,1.89,7.08.79,1.14,1.59,1.72,2.38,1.74S244,92.51,245,91.2c1.7-2.22-2.33-14.15-4.27-19.88-.61-1.8-1.1-3.23-1.3-4-.87-3.31-5.54-7-10.41-8.22-5.07-1.27-27.09-1.26-34.16,0l-1.54.27c-6.34,1.11-11.8,2.07-14.56,6.62-3.11,5.12-7,21.92-6.7,24.15a2.66,2.66,0,0,0,2,2.32.49.49,0,0,1,.21.08,2.68,2.68,0,0,0,2,.41,3.6,3.6,0,0,0,2.24-1.9c.76-1.26,1.09-3.68,1.48-6.48.69-5,1.55-11.27,5.34-15.54C188.8,65.07,194.7,64.25,200.54,64.25Z" fill="#231f20"/><path d="M208.74,34.71s-10.53.12-16.62,1.71S182.37,40.8,181,43.61s-1.46,8.33,1.09,12.8,6.34,5.12,11,5.48,7.2-.73,8.29-1.71,2.44-5.74,5.61-6.83,4.75-.11,5.48.5,1,5.79,7.93,7.55,9.87-.24,13-2.92,4.14-10.06,2.68-14.81S222.43,35.08,208.74,34.71Z" fill="#fff"/><path d="M225.1,62.59a19.36,19.36,0,0,1-4.83-.69c-5.68-1.44-7.1-5.12-7.79-6.89a5.53,5.53,0,0,0-.34-.78c-1.21-1-2.84-1.13-5-.39-2,.67-3.22,3-4.14,4.73a7.93,7.93,0,0,1-1.29,2c-.79.7-3.19,2.27-8.68,1.84-4.63-.37-8.68-1.06-11.37-5.75s-2.55-10.28-1.12-13.27c1.56-3.27,5.73-6,11.43-7.47,6.09-1.58,16.31-1.72,16.74-1.73h0c14.37.39,26.35,4.4,27.86,9.33s.6,12.44-2.84,15.35C231.32,61,229,62.59,225.1,62.59ZM209.61,52.34a4.8,4.8,0,0,1,3.19,1.11,2.74,2.74,0,0,1,.64,1.19c.67,1.73,1.92,5,7.08,6.26,6.6,1.68,9.38-.11,12.59-2.82s3.89-9.81,2.52-14.26-13.41-8.23-26.9-8.59c-.37,0-10.6.16-16.48,1.69-5.41,1.4-9.33,3.92-10.76,6.91-1.33,2.8-1.3,8.17,1.08,12.32s6.07,4.87,10.57,5.23c5.21.41,7.37-1.11,7.9-1.58a8.34,8.34,0,0,0,1.07-1.72c1-1.86,2.37-4.41,4.71-5.22A8.83,8.83,0,0,1,209.61,52.34Z" fill="#231f20"/><path d="M228.38,42a7.79,7.79,0,0,1,4.39,3.11c1.52,2.44,1.12,6,.24,8.28s-4.39,5.07-7.62,5.25a9.79,9.79,0,0,1-7.92-3.11c-1.58-2-1.74-5.73-6.17-6.27s-6.81-.07-8.7,2.31-2.41,5.55-5.61,6.4a13.57,13.57,0,0,1-9.26-1.4c-2.07-1.22-3.59-4.94-3.65-8.14s5.91-9,15.35-9.47S216.92,37.64,228.38,42Z" fill="#68e1fd"/><path d="M263.1,233.43H150.49a.52.52,0,0,1-.51-.52v-12.8a.51.51,0,0,1,.51-.51H263.1a.51.51,0,0,1,.52.51v12.8A.52.52,0,0,1,263.1,233.43Zm-112.09-1H262.58V220.63H151Z" fill="#231f20"/><path d="M168.35,186.07h20.87a0,0,0,0,1,0,0v22.2a2.67,2.67,0,0,1-2.67,2.67H171a2.67,2.67,0,0,1-2.67-2.67v-22.2A0,0,0,0,1,168.35,186.07Z" fill="#fff"/><path d="M186.54,211.46H171a3.19,3.19,0,0,1-3.19-3.19v-22.2a.51.51,0,0,1,.52-.51h20.87a.51.51,0,0,1,.51.51v22.2A3.19,3.19,0,0,1,186.54,211.46Zm-17.67-24.87v21.68a2.16,2.16,0,0,0,2.15,2.16h15.52a2.16,2.16,0,0,0,2.16-2.16V186.59Z" fill="#231f20"/><path d="M178.78,194.76c-6.55,0-10.72-8.11-10.89-8.46a.51.51,0,0,1,.92-.46c0,.08,4.05,7.88,10,7.88s9.94-7.8,10-7.88a.51.51,0,0,1,.69-.23.52.52,0,0,1,.23.69C189.5,186.65,185.34,194.76,178.78,194.76Z" fill="#231f20"/><circle cx="178.78" cy="190" r="1.22" fill="#231f20"/><path d="M197.4,186.07h20.87a0,0,0,0,1,0,0v22.2a2.67,2.67,0,0,1-2.67,2.67H200.07a2.67,2.67,0,0,1-2.67-2.67v-22.2A0,0,0,0,1,197.4,186.07Z" fill="#fff"/><path d="M215.59,211.46H200.07a3.19,3.19,0,0,1-3.19-3.19v-22.2a.51.51,0,0,1,.52-.51h20.87a.51.51,0,0,1,.51.51v22.2A3.19,3.19,0,0,1,215.59,211.46Zm-17.68-24.87v21.68a2.16,2.16,0,0,0,2.16,2.16h15.52a2.16,2.16,0,0,0,2.16-2.16V186.59Z" fill="#231f20"/><path d="M207.83,194.76c-6.55,0-10.72-8.11-10.89-8.46a.51.51,0,0,1,.92-.46c0,.08,4,7.88,10,7.88s9.94-7.8,10-7.88a.51.51,0,0,1,.69-.23.52.52,0,0,1,.23.69C218.55,186.65,214.39,194.76,207.83,194.76Z" fill="#231f20"/><circle cx="207.83" cy="190" r="1.22" fill="#231f20"/><path d="M226.45,186.07h20.87a0,0,0,0,1,0,0v22.2a2.67,2.67,0,0,1-2.67,2.67H229.12a2.67,2.67,0,0,1-2.67-2.67v-22.2A0,0,0,0,1,226.45,186.07Z" fill="#fff"/><path d="M244.64,211.46H229.12a3.19,3.19,0,0,1-3.19-3.19v-22.2a.51.51,0,0,1,.52-.51h20.86a.51.51,0,0,1,.52.51v22.2A3.19,3.19,0,0,1,244.64,211.46ZM227,186.59v21.68a2.16,2.16,0,0,0,2.16,2.16h15.52a2.16,2.16,0,0,0,2.16-2.16V186.59Z" fill="#231f20"/><path d="M236.88,194.76c-6.56,0-10.72-8.11-10.9-8.46a.53.53,0,0,1,.23-.69.52.52,0,0,1,.7.23c0,.08,4.05,7.88,10,7.88s9.93-7.8,10-7.88a.52.52,0,0,1,.7-.23.53.53,0,0,1,.23.69C247.6,186.65,243.44,194.76,236.88,194.76Z" fill="#231f20"/><circle cx="236.88" cy="190" r="1.22" fill="#231f20"/><circle cx="176.91" cy="167.53" r="2.01" fill="#d1d3d4"/><circle cx="237.02" cy="167.53" r="2.01" fill="#d1d3d4"/><path d="M135.94,88.27l6.44-3s3.77,5.24,8.3,5c5.07-.25,21.18-9,20.55-10.73s-4-1.84-4-1.84,15.67-7.6,14.51-10-4.32-2-4.32-2,4.6-2.07,2.89-4.41-5.78-1.43-5.78-1.43,2.62-1.53,1.24-3.09c-1.83-2.06-4.41-.62-4.41-.62s1-3.66-2.68-3.25-42,21.68-42,21.68" fill="#fff"/><path d="M150.39,90.85c-4,0-7.24-3.73-8.17-4.9l-6.07,2.79a.5.5,0,0,1-.68-.25.52.52,0,0,1,.25-.69l6.45-3a.51.51,0,0,1,.63.16s3.71,5,7.85,4.81c4.95-.25,19.74-8.59,20.09-10.14-.4-1-2.76-1.37-3.56-1.41a.52.52,0,0,1-.2-1c8.1-3.93,14.77-8.3,14.27-9.36-.94-2-3.76-1.69-3.78-1.69a.5.5,0,0,1-.56-.37.52.52,0,0,1,.28-.61c.71-.32,2.62-1.4,2.93-2.56a1.21,1.21,0,0,0-.24-1.08c-1.49-2-5.21-1.24-5.25-1.23a.51.51,0,0,1-.59-.31.52.52,0,0,1,.21-.64c.35-.2,1.27-.88,1.38-1.56a.87.87,0,0,0-.26-.73,3.09,3.09,0,0,0-3.77-.52.53.53,0,0,1-.57,0,.51.51,0,0,1-.18-.54,2.74,2.74,0,0,0-.28-2.16,2,2,0,0,0-1.85-.45c-2.92.32-31.17,15.72-41.8,21.62a.51.51,0,1,1-.5-.9c1.57-.87,38.46-21.33,42.18-21.75a3,3,0,0,1,2.75.81,3.08,3.08,0,0,1,.62,2.15,3.91,3.91,0,0,1,4.17,1.09,1.91,1.91,0,0,1,.51,1.59,2.56,2.56,0,0,1-.55,1.15c1.44,0,3.47.24,4.61,1.81a2.25,2.25,0,0,1,.4,2,4.59,4.59,0,0,1-1.94,2.35,4,4,0,0,1,3,2.17c1.13,2.39-8,7.36-13.27,10a3.77,3.77,0,0,1,2.81,1.93,1.07,1.07,0,0,1-.19,1C169.78,83,155.39,90.61,150.7,90.84Z" fill="#231f20"/><path d="M163.87,72.35a.51.51,0,0,1-.21-1l13.53-6.12a.52.52,0,0,1,.43.94l-13.54,6.12A.52.52,0,0,1,163.87,72.35Z" fill="#231f20"/><path d="M161,67.27a.52.52,0,0,1-.24-1l13.49-6.87a.51.51,0,0,1,.69.22.52.52,0,0,1-.22.7l-13.49,6.87A.53.53,0,0,1,161,67.27Z" fill="#231f20"/><path d="M158.28,63.22a.52.52,0,0,1-.47-.28.54.54,0,0,1,.23-.7l13.07-6.53a.52.52,0,0,1,.7.23.53.53,0,0,1-.23.69l-13.07,6.54A.68.68,0,0,1,158.28,63.22Z" fill="#231f20"/><path d="M165,74.8a.53.53,0,0,1-.49-.33C162.06,68,155.69,62.09,155.62,62a.52.52,0,1,1,.7-.76c.27.25,6.62,6.09,9.13,12.84a.52.52,0,0,1-.3.66A.57.57,0,0,1,165,74.8Z" fill="#231f20"/><path d="M154.51,84a.59.59,0,0,1-.37-.14.52.52,0,0,1,0-.73c2.18-2.23,12.47-5.71,12.9-5.85a.53.53,0,0,1,.66.32.53.53,0,0,1-.33.66c-3.62,1.21-10.89,4-12.5,5.59A.51.51,0,0,1,154.51,84Z" fill="#231f20"/><path d="M167.21,117.11l-54.13,1.94L141.54,91,127.22,70.62s-75.58,45.67-76.16,65S158,157.65,158,157.65Z" fill="#68e1fd"/><path d="M280.65,205.3a14.62,14.62,0,0,0,7.52-3.27,20.33,20.33,0,0,0,4.82-5.51,10.8,10.8,0,0,0,1.71-5.09c.3-9.29-15-7.18-20.47-5.47a3.66,3.66,0,0,0-2,1.2,3.84,3.84,0,0,0-.5,2c-.21,3.32-1.79,9.49.09,12.47C273.38,204.13,277.92,205.57,280.65,205.3Z" fill="#fff"/><path d="M279.93,205.85c-3,0-7.05-1.55-8.57-3.94s-.95-6.6-.49-10c.14-1,.27-2,.32-2.83a4.36,4.36,0,0,1,.59-2.25,4.09,4.09,0,0,1,2.29-1.4c4.14-1.3,14.16-2.87,18.73.61a6.08,6.08,0,0,1,2.41,5.37,11.07,11.07,0,0,1-1.78,5.33,20.4,20.4,0,0,1-4.94,5.65,15.17,15.17,0,0,1-7.78,3.38h0A6.57,6.57,0,0,1,279.93,205.85Zm.72-.55h0ZM284.34,185a36.62,36.62,0,0,0-10,1.48,3.27,3.27,0,0,0-1.75,1,3.45,3.45,0,0,0-.41,1.73c-.05.83-.19,1.84-.33,2.9-.43,3.2-1,7.17.35,9.27s5.72,3.68,8.36,3.43a14.2,14.2,0,0,0,7.25-3.17,19.49,19.49,0,0,0,4.7-5.37,10.22,10.22,0,0,0,1.63-4.84,5.05,5.05,0,0,0-2-4.51C290.29,185.47,287.37,185,284.34,185Z" fill="#231f20"/><path d="M168.74,207.86l1.89,5.41-66.07,23a3.51,3.51,0,0,0-2.17,4.48l12.06,34.62a3.51,3.51,0,0,0,5.73,1.41c12.63-11.89,51.31-48.31,53.32-49.48a32.48,32.48,0,0,1,7.23-2.52L174.17,206Zm-1.85,15L121,266.69a1.18,1.18,0,0,1-1.93-.47l-8.64-24.79a1.2,1.2,0,0,1,.74-1.51l54.49-19A1.18,1.18,0,0,1,166.89,222.9Z" fill="#231f20"/><path d="M117.78,278.26a4.33,4.33,0,0,1-1-.11,4.05,4.05,0,0,1-2.85-2.6l-12.06-34.62a4,4,0,0,1,2.48-5.11L170,213,168.27,208a.5.5,0,0,1,0-.38.48.48,0,0,1,.29-.25L174,205.5a.5.5,0,0,1,.38,0,.53.53,0,0,1,.26.29l6.56,18.82a.53.53,0,0,1,0,.41.51.51,0,0,1-.32.24,32.9,32.9,0,0,0-7.09,2.46c-1.3.76-19.14,17.33-53,49.25l-.18.17A3.94,3.94,0,0,1,117.78,278.26Zm51.59-70.09,1.73,4.94a.5.5,0,0,1,0,.38.46.46,0,0,1-.28.25l-66.06,23a3,3,0,0,0-1.87,3.85l12.06,34.62a3.06,3.06,0,0,0,2.15,1.95,3,3,0,0,0,2.77-.74l.18-.17c22-20.69,51.39-48.31,53.23-49.38a29.74,29.74,0,0,1,6.83-2.45l-6.22-17.84Zm-49.16,59.34a1.44,1.44,0,0,1-.41-.05,1.67,1.67,0,0,1-1.18-1.07L110,241.59a1.63,1.63,0,0,1,.08-1.28,1.68,1.68,0,0,1,1-.86l54.49-19a1.67,1.67,0,0,1,1.71,2.79h0l-45.86,43.79A1.7,1.7,0,0,1,120.21,267.51Zm45.88-46.14a.75.75,0,0,0-.24,0l-54.49,19a.66.66,0,0,0-.4.35.67.67,0,0,0,0,.52l8.64,24.79a.69.69,0,0,0,.48.44.71.71,0,0,0,.64-.17l45.86-43.79a.65.65,0,0,0,.11-.84A.66.66,0,0,0,166.09,221.37Zm.8,1.53h0Z" fill="#231f20"/><polygon points="339.16 149.43 328.89 119.94 320.43 122.89 320.08 156.08 323.33 154.94 324.1 125.74 326.49 124.91 335.48 150.72 339.16 149.43" fill="#231f20"/><path d="M320.08,156.58a.53.53,0,0,1-.29-.1.51.51,0,0,1-.21-.41l.36-33.19a.48.48,0,0,1,.33-.46l8.46-3a.5.5,0,0,1,.63.31l10.27,29.49a.46.46,0,0,1,0,.38.49.49,0,0,1-.28.25l-3.69,1.29a.5.5,0,0,1-.63-.31l-8.83-25.33-1.59.55L323.83,155a.5.5,0,0,1-.33.46l-3.26,1.13A.45.45,0,0,1,320.08,156.58Zm.85-33.34-.35,32.14,2.26-.79.76-28.86a.51.51,0,0,1,.34-.46l2.38-.83a.51.51,0,0,1,.64.31l8.82,25.33,2.75-1-9.95-28.55Z" fill="#231f20"/><rect x="306.68" y="152.18" width="48.4" height="7.53" transform="translate(-32.88 117.52) rotate(-19.2)" fill="#bcbec0"/><path d="M309.26,168a.5.5,0,0,1-.48-.34l-2.48-7.12a.48.48,0,0,1,0-.39.51.51,0,0,1,.3-.26L352.32,144a.51.51,0,0,1,.66.31l2.48,7.12a.53.53,0,0,1,0,.39.51.51,0,0,1-.3.26L309.43,168A.47.47,0,0,1,309.26,168Zm-1.82-7.31,2.14,6.14,44.73-15.58-2.13-6.14Z" fill="#231f20"/><rect x="347.39" y="138.96" width="30.19" height="11.96" transform="translate(-27.5 127.3) rotate(-19.2)" fill="#231f20"/><path d="M350.2,156.05A.59.59,0,0,1,350,156a.53.53,0,0,1-.25-.28l-3.93-11.3a.49.49,0,0,1,.3-.63l28.52-9.94a.5.5,0,0,1,.38,0,.46.46,0,0,1,.25.28l3.94,11.3a.5.5,0,0,1-.31.63L350.37,156A.51.51,0,0,1,350.2,156.05Zm-3.3-11.49,3.61,10.36,27.57-9.61L374.47,135Z" fill="#231f20"/><rect x="174.05" y="188.81" width="82.43" height="24.2" rx="2.47" transform="translate(-54.11 81.99) rotate(-19.2)" fill="#bcbec0"/><path d="M181.85,225.74a3,3,0,0,1-2.82-2l-6.34-18.19a3,3,0,0,1,1.84-3.8l73.17-25.49a3,3,0,0,1,3.81,1.84l6.33,18.19a3,3,0,0,1-1.83,3.8l-73.18,25.49A3,3,0,0,1,181.85,225.74Zm66.84-48.62a1.85,1.85,0,0,0-.65.11l-73.17,25.48a2,2,0,0,0-1.12,1,1.88,1.88,0,0,0-.08,1.49L180,223.39a2,2,0,0,0,2.49,1.21l73.18-25.49h0a2,2,0,0,0,1.2-2.49l-6.34-18.19A1.94,1.94,0,0,0,248.69,177.12Z" fill="#231f20"/><path d="M188.35,223.1s-3.62,24.11-1.77,32.22l15.24-3.09s-1.34-23.63,0-33.81Z" fill="#231f20"/><path d="M186.58,255.82a.51.51,0,0,1-.49-.39c-1.85-8.11,1.62-31.41,1.77-32.4a.47.47,0,0,1,.33-.4L201.63,218a.49.49,0,0,1,.48.08.51.51,0,0,1,.18.45c-1.3,10,0,33.49,0,33.72a.51.51,0,0,1-.4.52l-15.24,3.09Zm2.22-32.35c-.4,2.73-3.31,23.42-1.83,31.26l14.33-2.9c-.17-3.17-1.15-23-.09-32.68Z" fill="#231f20"/><path d="M201.22,231.42l57.46-20-4-11.41-25.15,8.76s1.54,6.51-.78,9.27-27.54,10.14-27.54,10.14Z" fill="#231f20"/><path d="M201.22,231.91a.49.49,0,0,1-.5-.5v-3.25a.51.51,0,0,1,.36-.48c7-2,25.47-7.82,27.29-10,2.14-2.54.7-8.77.68-8.83a.5.5,0,0,1,.32-.59l25.16-8.76a.5.5,0,0,1,.38,0,.48.48,0,0,1,.25.29l4,11.41a.48.48,0,0,1-.3.63l-57.46,20Zm.51-3.38v2.18L258,211.1l-3.65-10.48-24.26,8.46c.31,1.55,1.14,6.75-1,9.26C226.88,221,205.58,227.4,201.73,228.53Z" fill="#231f20"/><path d="M233.09,220.31s8.56,19,16,22.24l23.43-22.07s-9.57-1.66-13.85-9.08Z" fill="#bcbec0"/><path d="M249.1,243.06a.52.52,0,0,1-.21,0c-7.54-3.28-15.92-21.71-16.27-22.49a.51.51,0,0,1,0-.42.49.49,0,0,1,.3-.28l25.58-8.91a.51.51,0,0,1,.62.22c4.12,7.13,13.41,8.81,13.5,8.83a.51.51,0,0,1,.27.88l-23.44,22.07A.5.5,0,0,1,249.1,243.06Zm-15.3-22.45c1.4,3,8.76,18.15,15.2,21.32l22.47-21.16c-2.55-.63-9.37-2.81-13-8.74Z" fill="#231f20"/><path d="M188.18,215.62a5.28,5.28,0,0,1-4.94-3.52l-4-11.46a.53.53,0,0,1,0-.39.53.53,0,0,1,.3-.27l62.66-21.82a.51.51,0,0,1,.4,0,.57.57,0,0,1,.26.29l4,11.47a5.23,5.23,0,0,1-3.22,6.66h0l-53.75,18.72A5.21,5.21,0,0,1,188.18,215.62Zm-7.79-14.83,3.83,11a4.19,4.19,0,0,0,5.35,2.59l53.75-18.72a4.21,4.21,0,0,0,2.59-5.35l-3.83-11Zm63.1-4.68h0Z" fill="#231f20"/><line x1="198.04" y1="204.17" x2="235.12" y2="191.25" fill="#fff"/><path d="M198,204.68a.5.5,0,0,1-.48-.34.51.51,0,0,1,.32-.66L235,190.76a.52.52,0,1,1,.34,1l-37.08,12.91A.47.47,0,0,1,198,204.68Z" fill="#231f20"/><rect x="251.6" y="167.33" width="62.25" height="14.69" transform="translate(-41.72 102.72) rotate(-19.2)" fill="#231f20"/><path d="M255.75,192.34a.51.51,0,0,1-.47-.33l-4.83-13.87a.55.55,0,0,1,0-.38.53.53,0,0,1,.29-.26L309.54,157a.46.46,0,0,1,.38,0,.51.51,0,0,1,.26.28L315,171.2a.51.51,0,0,1-.31.64l-58.78,20.47A.51.51,0,0,1,255.75,192.34Zm-4.2-14.06,4.51,12.93,57.85-20.15-4.51-12.93Z" fill="#231f20"/><path d="M269.12,187.81a9.31,9.31,0,0,0,3.29,3.56,12.42,12.42,0,0,0,7.81,1.53,36.88,36.88,0,0,0,7.85-2l6.21-2a4.5,4.5,0,0,0,1.67-.82,4.19,4.19,0,0,0,.94-1.43,22.83,22.83,0,0,0,1-16.1c-.42-1.35-1.66-3-2.9-2.27a2.44,2.44,0,0,0-.91,1.15,22.94,22.94,0,0,0-2.23,11.73l-.31-6.5c-.07-1.49-.58-3.45-2.08-3.48-1.24,0-2,1.37-2.32,2.57a30.23,30.23,0,0,0-1.19,8.4,13.68,13.68,0,0,1,.2-4.32,6.53,6.53,0,0,0-.54-4.22c-.76-1.24-2.55-1.94-3.71-1.08a3.81,3.81,0,0,0-1.2,2.66,32,32,0,0,0-.16,8.24c-.38-1.5-.07-3.09-.36-4.61s-1.65-3.07-3.14-2.65-1.82,2.3-1.9,3.82l-.24,4.53c-1.06.39-2.11.79-3.17,1.16Z" fill="#fff"/><path d="M278.6,193.5a12.18,12.18,0,0,1-6.47-1.69,9.73,9.73,0,0,1-3.47-3.76.54.54,0,0,1,.13-.64l2.64-2.16a.51.51,0,0,1,.16-.09l2.12-.77.72-.26.23-4.2c.13-2.45.89-3.9,2.27-4.29a2.44,2.44,0,0,1,2,.31A3.87,3.87,0,0,1,280,177c.05-.64.13-1.28.22-1.92a4.34,4.34,0,0,1,1.41-3,2.59,2.59,0,0,1,2.1-.42,3.63,3.63,0,0,1,2.36,1.64,5.24,5.24,0,0,1,.42.9c.05-.21.11-.42.17-.63.56-1.9,1.61-3,2.83-3s2.21,1.16,2.5,3.08a23.29,23.29,0,0,1,1.65-4.54,2.84,2.84,0,0,1,1.13-1.38,1.79,1.79,0,0,1,1.55-.08,4.35,4.35,0,0,1,2.08,2.65,23.4,23.4,0,0,1-1.05,16.47,4.67,4.67,0,0,1-1.07,1.61,5,5,0,0,1-1.85.92l-6.2,2a37.53,37.53,0,0,1-8,2C279.76,193.46,279.2,193.5,278.6,193.5Zm-8.82-5.56a8.82,8.82,0,0,0,2.9,3,11.93,11.93,0,0,0,7.49,1.45,36.14,36.14,0,0,0,7.74-1.95l6.2-2.05a4.34,4.34,0,0,0,1.5-.71,3.93,3.93,0,0,0,.81-1.27,22.36,22.36,0,0,0,1-15.73,3.3,3.3,0,0,0-1.49-2,.72.72,0,0,0-.67,0,1.94,1.94,0,0,0-.69.92,22.34,22.34,0,0,0-2.25,10.19l.06,1.29a.5.5,0,0,1-.48.54.49.49,0,0,1-.55-.47c0-.44-.05-.89-.06-1.33l-.25-5.18c-.06-1.37-.51-3-1.57-3s-1.62,1.52-1.81,2.19a29.66,29.66,0,0,0-1.18,8.26.51.51,0,0,1-.46.52.52.52,0,0,1-.56-.42,11.1,11.1,0,0,1,.1-3.73c0-.25.07-.5.1-.75a6.21,6.21,0,0,0-.47-3.9,2.66,2.66,0,0,0-1.68-1.16,1.63,1.63,0,0,0-1.29.24,3.37,3.37,0,0,0-1,2.31,31.46,31.46,0,0,0-.16,8.11.51.51,0,0,1-1,.18,10.29,10.29,0,0,1-.23-2.58,11.45,11.45,0,0,0-.14-2.05,3.23,3.23,0,0,0-1.34-2.06,1.37,1.37,0,0,0-1.15-.19c-.9.25-1.42,1.38-1.52,3.34l-.25,4.54a.51.51,0,0,1-.33.46l-1,.38-2.05.74Z" fill="#231f20"/><circle cx="230.83" cy="192.54" r="2.64" fill="#231f20"/><line x1="259.56" y1="213.94" x2="235.27" y2="224.76" fill="#68e1fd"/><path d="M235.27,225.28a.53.53,0,0,1-.47-.31.52.52,0,0,1,.26-.68l24.29-10.82a.51.51,0,0,1,.68.26.52.52,0,0,1-.26.68l-24.29,10.82A.5.5,0,0,1,235.27,225.28Z" fill="#231f20"/><path d="M210.76,215.3s2,4.15,3.08,4.81c0,0-6,4-12.05-1.69Z" fill="#231f20"/><path d="M208.89,222a10.73,10.73,0,0,1-7.44-3.17.49.49,0,0,1-.14-.46.48.48,0,0,1,.32-.37l9-3.12a.51.51,0,0,1,.62.25c.73,1.56,2.16,4.18,2.88,4.6a.5.5,0,0,1,0,.85A10.46,10.46,0,0,1,208.89,222Zm-6.13-3.34A9.16,9.16,0,0,0,213,220a21.57,21.57,0,0,1-2.49-4.11Z" fill="#231f20"/><path d="M206.6,164a.5.5,0,0,1-.5-.49V123.77a.5.5,0,0,1,.5-.5.5.5,0,0,1,.5.5v39.77A.49.49,0,0,1,206.6,164Z" fill="#231f20"/><path d="M164,159.08h0l-51.32-4.15a.49.49,0,0,1-.45-.53.49.49,0,0,1,.53-.46L164,158.08a.51.51,0,0,1,.46.54A.5.5,0,0,1,164,159.08Z" fill="#231f20"/><path d="M97.43,134.4a.5.5,0,0,1-.35-.86L131.73,100a.5.5,0,1,1,.69.71L97.78,134.26A.54.54,0,0,1,97.43,134.4Z" fill="#231f20"/><path d="M254.26,174.34h-.07a.5.5,0,0,1-.42-.56c.16-1.16,4-28.53,6-35.9a.5.5,0,1,1,1,.26c-2,7.32-6,35.49-6,35.77A.49.49,0,0,1,254.26,174.34Z" fill="#231f20"/><circle cx="211.22" cy="137.55" r="1.54" fill="#231f20"/><circle cx="210.76" cy="156.51" r="1.54" fill="#231f20"/><circle cx="210.76" cy="255.32" r="1.54" fill="#231f20"/><path d="M305.08,159a202.69,202.69,0,0,0-50.82-39.08l-10.09-3s30.5,17.45,55.94,43.41Z" fill="#fff"/><path d="M300.11,160.87a.51.51,0,0,1-.37-.15c-25.09-25.61-55.52-43.15-55.82-43.33a.51.51,0,0,1,.4-.94l10.09,3a204.31,204.31,0,0,1,51,39.22.52.52,0,0,1,.12.49.54.54,0,0,1-.37.36l-5,1.33Zm-52.2-42.28c8.71,5.37,32.21,20.69,52.36,41.19l3.85-1A204.39,204.39,0,0,0,254,120.4Z" fill="#231f20"/><path d="M173.18,205.37S153.69,185.94,151,179.13l-.55,9.65s13.1,18.21,19.17,20.93l4.56-1.59Z" fill="#fff"/><path d="M169.58,210.22a.46.46,0,0,1-.21,0c-6.12-2.74-18.84-20.35-19.37-21.1a.48.48,0,0,1-.1-.33l.55-9.65a.51.51,0,0,1,1-.16c2.65,6.63,21.91,25.87,22.1,26.07a.5.5,0,0,1,.13.19l1,2.75a.53.53,0,0,1,0,.39.47.47,0,0,1-.29.26l-4.56,1.59Zm-18.64-21.59c1.25,1.71,13,17.75,18.66,20.52l3.88-1.35-.75-2.15c-1.45-1.45-16.88-17-21.36-24.58Z" fill="#231f20"/><path d="M208.12,96.52A14.54,14.54,0,0,1,202,95.25a12.61,12.61,0,0,1-5-4,.51.51,0,0,1,.15-.71.51.51,0,0,1,.71.14c.24.36,6.06,8.78,19.38,2.5a.52.52,0,0,1,.44.94A22.6,22.6,0,0,1,208.12,96.52Z" fill="#231f20"/><path d="M148.83,129.55h-7.25a.5.5,0,0,1-.48-.36l-3.25-10.9a.5.5,0,0,1,1-.29L142,128.55h6.46l1.65-10.92a.51.51,0,0,1,.57-.42.51.51,0,0,1,.42.57l-1.72,11.34A.51.51,0,0,1,148.83,129.55Z" fill="#231f20"/><path d="M141.58,129.55H122.72a.5.5,0,0,1-.5-.5V118.64a.49.49,0,0,1,.5-.49.5.5,0,0,1,.5.49v9.91h18.36a.5.5,0,0,1,.49.5A.49.49,0,0,1,141.58,129.55Z" fill="#231f20"/><path d="M135.73,94.16a.52.52,0,0,1-.37-.16L118.79,76a.51.51,0,0,1,0-.71.5.5,0,0,1,.7,0l16.57,18a.5.5,0,0,1,0,.71A.51.51,0,0,1,135.73,94.16Z" fill="#231f20"/><path d="M280.74,211.9c-10.53,0-16.18-14-16.24-14.2a.49.49,0,0,1,.28-.65.5.5,0,0,1,.64.28c.07.17,6.61,16.42,18.47,13.14S296,200.28,296,200a.5.5,0,0,1,.5-.5.51.51,0,0,1,.49.5c0,.32-.14,7.93-12.8,11.43A12.68,12.68,0,0,1,280.74,211.9Z" fill="#231f20"/><circle cx="143" cy="120.46" r="1.43" fill="#231f20"/><path d="M206.59,262.42a.5.5,0,0,1-.5-.5V250.69a.5.5,0,0,1,.5-.5.5.5,0,0,1,.5.5v11.23A.5.5,0,0,1,206.59,262.42Z" fill="#231f20"/></g></svg>