<svg xmlns="http://www.w3.org/2000/svg" viewBox="0 0 400 300"><g id="_301_moscow_flatline" data-name="#301_moscow_flatline"><rect x="230.64" y="131.41" width="44.3" height="47.14" fill="#fff"/><path d="M274.94,179.05h-44.3a.5.5,0,0,1-.5-.5V131.41a.5.5,0,0,1,.5-.5h44.3a.5.5,0,0,1,.5.5v47.14A.5.5,0,0,1,274.94,179.05Zm-43.8-1h43.3V131.91h-43.3Z" fill="#231f20"/><polygon points="248.83 55.6 259.12 55.6 258.73 69.89 249.22 69.89 248.83 55.6" fill="#231f20"/><path d="M258.73,70.39h-9.51a.5.5,0,0,1-.5-.49l-.39-14.29a.46.46,0,0,1,.14-.36.48.48,0,0,1,.36-.15h10.29a.48.48,0,0,1,.36.15.54.54,0,0,1,.14.36l-.39,14.29A.5.5,0,0,1,258.73,70.39Zm-9-1h8.53l.37-13.29h-9.27Z" fill="#231f20"/><polygon points="259.34 80.22 248.67 80.22 230.76 119.6 230.76 128.61 277.26 128.61 277.26 119.6 259.34 80.22" fill="#68e1fd"/><path d="M277.26,129.07h-46.5a.47.47,0,0,1-.46-.46v-9a.58.58,0,0,1,0-.19L248.26,80a.46.46,0,0,1,.41-.27h10.67a.46.46,0,0,1,.42.27l17.92,39.38a.58.58,0,0,1,0,.19v9A.47.47,0,0,1,277.26,129.07Zm-46-.92H276.8V119.7l-17.75-39H249l-17.75,39Z" fill="#231f20"/><path d="M264.15,129.11H243.87a.5.5,0,0,1-.5-.5v-9l7.82-39.48a.5.5,0,0,1,.49-.4h4.66a.51.51,0,0,1,.49.4l7.81,39.38v9.11A.5.5,0,0,1,264.15,129.11Zm-19.78-1h19.28V119.6l-7.72-38.88h-3.84l-7.73,39Z" fill="#fff"/><path d="M279.44,121.33a7.39,7.39,0,0,0-6.9,4.77v0a7.36,7.36,0,0,0-13.8,0,7.36,7.36,0,0,0-13.81,0,7.36,7.36,0,0,0-13.81,0h0a7.37,7.37,0,0,0-6.9-4.79,7.24,7.24,0,0,0-1.56.17l.7,2.8,1.08,4.31h54.8l1.07-4.31.7-2.8A7.24,7.24,0,0,0,279.44,121.33Z" fill="#fff"/><path d="M279.23,129.11h-54.8a.5.5,0,0,1-.49-.38l-1.78-7.11a.51.51,0,0,1,.38-.61,7.44,7.44,0,0,1,1.67-.18,7.9,7.9,0,0,1,6.9,4.1,7.86,7.86,0,0,1,13.81,0,7.86,7.86,0,0,1,13.81,0,7.85,7.85,0,0,1,13.8,0,7.94,7.94,0,0,1,8.58-3.92.51.51,0,0,1,.38.61l-1.78,7.11A.49.49,0,0,1,279.23,129.11Zm-54.41-1h54l1.55-6.21a6.91,6.91,0,0,0-7.39,4.38.5.5,0,0,1-.47.33h0a.51.51,0,0,1-.47-.31,6.86,6.86,0,0,0-12.86,0,.51.51,0,0,1-.47.33h0a.5.5,0,0,1-.47-.33,6.86,6.86,0,0,0-12.87,0,.52.52,0,0,1-.94,0,6.86,6.86,0,0,0-12.87,0,.49.49,0,0,1-.46.32h0a.5.5,0,0,1-.46-.31,6.92,6.92,0,0,0-6.44-4.49,5.9,5.9,0,0,0-1,.07Z" fill="#231f20"/><path d="M280.3,124.3l-1.07,4.31h-4.29a4.51,4.51,0,0,1,4.5-4.4A4,4,0,0,1,280.3,124.3Z" fill="#231f20"/><path d="M279.23,129.11h-4.29a.51.51,0,0,1-.36-.15.54.54,0,0,1-.14-.36,5,5,0,0,1,5-4.89,4.47,4.47,0,0,1,1,.1.45.45,0,0,1,.32.22.48.48,0,0,1,.07.39l-1.08,4.31A.49.49,0,0,1,279.23,129.11Zm-3.74-1h3.35l.84-3.39A4,4,0,0,0,275.49,128.11Z" fill="#231f20"/><path d="M228.71,128.61h-4.28l-1.08-4.31a4,4,0,0,1,.86-.09A4.51,4.51,0,0,1,228.71,128.61Z" fill="#231f20"/><path d="M228.71,129.11h-4.28a.5.5,0,0,1-.49-.38l-1.08-4.31a.52.52,0,0,1,.06-.39.49.49,0,0,1,.33-.22,4.47,4.47,0,0,1,1-.1,5,5,0,0,1,5,4.89.51.51,0,0,1-.15.36A.47.47,0,0,1,228.71,129.11Zm-3.89-1h3.34a4,4,0,0,0-4.19-3.39Z" fill="#231f20"/><path d="M242.51,128.61a4.5,4.5,0,0,0-9,0Z" fill="#231f20"/><path d="M242.51,129.11h-9a.48.48,0,0,1-.36-.15.46.46,0,0,1-.14-.36,5,5,0,0,1,10,0,.46.46,0,0,1-.14.36A.48.48,0,0,1,242.51,129.11Zm-8.45-1H242a4,4,0,0,0-7.91,0Z" fill="#231f20"/><path d="M256.32,128.61a4.5,4.5,0,0,0-9,0Z" fill="#231f20"/><path d="M256.32,129.11h-9A.48.48,0,0,1,247,129a.46.46,0,0,1-.14-.36,5,5,0,0,1,10,0,.46.46,0,0,1-.14.36A.48.48,0,0,1,256.32,129.11Zm-8.45-1h7.91a4,4,0,0,0-7.91,0Z" fill="#231f20"/><path d="M270.13,128.61a4.5,4.5,0,0,0-9,0Z" fill="#231f20"/><path d="M270.13,129.11h-9a.47.47,0,0,1-.35-.15.51.51,0,0,1-.15-.36,5,5,0,0,1,10,0,.5.5,0,0,1-.14.36A.48.48,0,0,1,270.13,129.11Zm-8.45-1h7.91a4,4,0,0,0-7.91,0Z" fill="#231f20"/><rect x="224.43" y="128.61" width="54.82" height="3.17" fill="#fff"/><path d="M279.25,132.28H224.43a.5.5,0,0,1-.5-.5v-3.17a.5.5,0,0,1,.5-.5h54.82a.5.5,0,0,1,.5.5v3.17A.5.5,0,0,1,279.25,132.28Zm-54.32-1h53.82v-2.17H224.93Z" fill="#231f20"/><polygon points="279.25 131.78 224.43 131.78 226.86 135.13 276.81 135.13 279.25 131.78" fill="#231f20"/><path d="M276.81,135.63H226.86a.48.48,0,0,1-.4-.2L224,132.07a.51.51,0,0,1,0-.52.52.52,0,0,1,.45-.27h54.82a.51.51,0,0,1,.44.27.49.49,0,0,1,0,.52l-2.43,3.36A.51.51,0,0,1,276.81,135.63Zm-49.69-1h49.44l1.71-2.35H225.41Z" fill="#231f20"/><rect x="248.68" y="72.9" width="10.66" height="7.32" fill="#fff"/><path d="M259.34,80.72H248.68a.5.5,0,0,1-.5-.5V72.9a.5.5,0,0,1,.5-.5h10.66a.5.5,0,0,1,.5.5v7.32A.5.5,0,0,1,259.34,80.72Zm-10.16-1h9.66V73.4h-9.66Z" fill="#231f20"/><path d="M260.41,67.49V65.26a2.23,2.23,0,0,0-2.21,2.23h0a2.23,2.23,0,1,0-4.45,0,2.23,2.23,0,0,0-4.45,0,2.22,2.22,0,0,0-2.21-2.22v2.23h0V72.9h13.31V67.49Z" fill="#fff"/><path d="M260.41,73.4H247.1a.5.5,0,0,1-.5-.5V65.26a.51.51,0,0,1,.15-.35.48.48,0,0,1,.36-.15,2.73,2.73,0,0,1,2.2,1.16,2.74,2.74,0,0,1,2.23-1.16,2.7,2.7,0,0,1,2.22,1.16A2.74,2.74,0,0,1,256,64.76a2.7,2.7,0,0,1,2.22,1.16,2.75,2.75,0,0,1,2.2-1.16.46.46,0,0,1,.36.15.51.51,0,0,1,.15.35V72.9A.5.5,0,0,1,260.41,73.4Zm-12.81-1h12.31V65.84a1.74,1.74,0,0,0-1.21,1.65.5.5,0,0,1-.5.5.51.51,0,0,1-.5-.5h0v0a1.73,1.73,0,0,0-3.45,0,.5.5,0,0,1-.5.5.51.51,0,0,1-.5-.5,1.73,1.73,0,1,0-3.45,0,.49.49,0,0,1-.5.49.5.5,0,0,1-.5-.49,1.74,1.74,0,0,0-1.21-1.65Z" fill="#231f20"/><path d="M248.83,55.6s-3-.27-3.87-2.37A5,5,0,0,1,246.41,47c2.28-1.73,4.65-2.73,6.38-6.37h2.09s1.75,3.55,4.24,5.1,4.28,3.45,3.64,6.36a5,5,0,0,1-3.64,3.56Z" fill="#fff"/><path d="M259.12,56.1H248.78c-.13,0-3.26-.33-4.28-2.67a5.44,5.44,0,0,1,1.61-6.88c.47-.36.95-.68,1.42-1a12,12,0,0,0,4.8-5.18.52.52,0,0,1,.46-.28h2.09a.51.51,0,0,1,.45.28s1.71,3.44,4.06,4.89c2,1.26,4.64,3.35,3.86,6.9a5.43,5.43,0,0,1-4,3.94Zm-10.27-1h10.21a4.39,4.39,0,0,0,3.21-3.16c.5-2.27-.56-4.07-3.41-5.84a14.14,14.14,0,0,1-4.28-5H253.1a13.22,13.22,0,0,1-5,5.28c-.46.32-.92.64-1.38,1a4.5,4.5,0,0,0-1.3,5.68C246.16,54.74,248.61,55.07,248.85,55.1Z" fill="#231f20"/><polygon points="254.88 40.58 254.24 36.03 253.42 36.03 252.79 40.58 254.88 40.58" fill="#fff"/><path d="M254.88,41.08h-2.09a.49.49,0,0,1-.38-.17.49.49,0,0,1-.12-.4l.64-4.55a.49.49,0,0,1,.49-.43h.82a.51.51,0,0,1,.5.43l.64,4.55a.53.53,0,0,1-.12.4A.52.52,0,0,1,254.88,41.08Zm-1.52-1h.95l-.48-3.37Z" fill="#231f20"/><rect x="252.79" y="34.18" width="1.84" height="1.84" rx="0.57" fill="#fff"/><path d="M254.06,36.53h-.71a1.06,1.06,0,0,1-1.06-1.07v-.71a1.06,1.06,0,0,1,1.06-1.07h.71a1.07,1.07,0,0,1,1.07,1.07v.71A1.07,1.07,0,0,1,254.06,36.53Zm-.71-1.85a.07.07,0,0,0-.06.07v.71l.77.07.07-.78Z" fill="#231f20"/><path d="M253.83,34.68a.5.5,0,0,1-.5-.5V28.45a.5.5,0,0,1,.5-.5.5.5,0,0,1,.5.5v5.73A.5.5,0,0,1,253.83,34.68Z" fill="#231f20"/><path d="M254.49,155.4a13.39,13.39,0,1,0-25.64,0Z" fill="#fff"/><path d="M254.49,155.9H228.85a.48.48,0,0,1-.47-.36,13.67,13.67,0,0,1-.6-4,13.9,13.9,0,1,1,27.79,0,13.67,13.67,0,0,1-.6,4A.49.49,0,0,1,254.49,155.9Zm-25.26-1h24.89a12.9,12.9,0,1,0-24.89,0Z" fill="#231f20"/><path d="M233.5,151.53a8.18,8.18,0,1,1,16.35,0l-11,6.77Z" fill="#231f20"/><path d="M238.81,158.8a.48.48,0,0,1-.39-.19l-5.31-6.78a.46.46,0,0,1-.11-.3,8.68,8.68,0,1,1,17.35,0,.49.49,0,0,1-.24.42l-11,6.78A.54.54,0,0,1,238.81,158.8ZM234,151.36l4.93,6.28,10.41-6.39a7.67,7.67,0,0,0-15.34.11Z" fill="#231f20"/><path d="M276.76,155.4a13.39,13.39,0,1,0-25.64,0Z" fill="#fff"/><path d="M276.76,155.9H251.12a.49.49,0,0,1-.48-.36,14.05,14.05,0,0,1-.59-4,13.89,13.89,0,1,1,27.19,4A.5.5,0,0,1,276.76,155.9Zm-25.26-1h24.88a12.89,12.89,0,1,0-24.88,0Z" fill="#231f20"/><path d="M255.77,151.53a8.17,8.17,0,1,1,16.34,0l-6.52,4.37Z" fill="#231f20"/><path d="M265.59,156.4a.48.48,0,0,1-.2,0L255.56,152a.49.49,0,0,1-.29-.45,8.67,8.67,0,1,1,17.34,0,.49.49,0,0,1-.22.41l-6.52,4.38A.46.46,0,0,1,265.59,156.4Zm-9.32-5.2,9.27,4.13,6.07-4.07a7.68,7.68,0,0,0-15.34-.06Z" fill="#231f20"/><path d="M266.27,164.1a14.08,14.08,0,1,0-26.93,0Z" fill="#fff"/><path d="M266.27,164.6H239.33a.49.49,0,0,1-.47-.36,14.37,14.37,0,0,1-.63-4.21,14.58,14.58,0,1,1,29.15,0,14.37,14.37,0,0,1-.63,4.21A.5.5,0,0,1,266.27,164.6Zm-26.56-1H265.9a13.58,13.58,0,1,0-26.19,0Z" fill="#231f20"/><path d="M244.22,160a8.59,8.59,0,1,1,17.17,0Z" fill="#231f20"/><path d="M261.39,160.53H244.22a.5.5,0,0,1-.5-.5,9.09,9.09,0,1,1,18.17,0A.5.5,0,0,1,261.39,160.53Zm-16.66-1h16.15a8.09,8.09,0,0,0-16.15,0Z" fill="#231f20"/><path d="M238.73,160a14.53,14.53,0,0,1-.6,4.08H226.27l-.36-4.08-.76-8.57-.49-5.49A14.06,14.06,0,0,1,238.73,160Z" fill="#fff"/><path d="M238.13,164.6H226.27a.49.49,0,0,1-.49-.46L224.16,146a.45.45,0,0,1,.13-.38.51.51,0,0,1,.37-.16A14.58,14.58,0,0,1,239.23,160a14.92,14.92,0,0,1-.62,4.22A.51.51,0,0,1,238.13,164.6Zm-11.4-1h11a13.77,13.77,0,0,0,.48-3.58,13.57,13.57,0,0,0-13-13.55Z" fill="#231f20"/><path d="M233.25,160l-7,4.08-.36-4.08-.76-8.57A8.6,8.6,0,0,1,233.25,160Z" fill="#231f20"/><path d="M226.27,164.6a.49.49,0,0,1-.23-.06.49.49,0,0,1-.26-.4l-1.13-12.64a.53.53,0,0,1,.14-.4.56.56,0,0,1,.39-.15,9.11,9.11,0,0,1,8.57,9.07.52.52,0,0,1-.25.43l-7,4.08A.59.59,0,0,1,226.27,164.6ZM225.7,152l1,11.26,6-3.54A8.09,8.09,0,0,0,225.7,152Zm7.55,8h0Z" fill="#231f20"/><path d="M280.93,146l-.5,5.49-.76,8.57-.37,4.08H267.44a14.9,14.9,0,0,1-.59-4.08A14.06,14.06,0,0,1,280.93,146Z" fill="#fff"/><path d="M279.3,164.6H267.44a.51.51,0,0,1-.48-.36,15,15,0,0,1-.61-4.22,14.59,14.59,0,0,1,14.58-14.56.48.48,0,0,1,.36.16.45.45,0,0,1,.13.38l-1.62,18.14A.51.51,0,0,1,279.3,164.6Zm-11.48-1h11l1.54-17.13a13.57,13.57,0,0,0-13,13.55A14.31,14.31,0,0,0,267.82,163.6Z" fill="#231f20"/><path d="M280.43,151.45l-.76,8.57-.41,4.87L272.33,160A8.59,8.59,0,0,1,280.43,151.45Z" fill="#231f20"/><path d="M279.26,165.39a.52.52,0,0,1-.29-.09l-6.92-4.87a.5.5,0,0,1-.22-.41A9.1,9.1,0,0,1,280.4,151a.54.54,0,0,1,.39.15.53.53,0,0,1,.14.4l-1.17,13.43a.49.49,0,0,1-.29.41A.5.5,0,0,1,279.26,165.39Zm-6.42-5.63,6,4.22,1-12A8.09,8.09,0,0,0,272.84,159.76Z" fill="#231f20"/><path d="M254.59,171.78a14.15,14.15,0,1,0-27.07,0Z" fill="#fff"/><path d="M254.59,172.27H227.52a.5.5,0,0,1-.48-.35,14.64,14.64,0,1,1,28.65-4.24,14.85,14.85,0,0,1-.62,4.24A.5.5,0,0,1,254.59,172.27Zm-26.7-1h26.32a13.64,13.64,0,1,0-26.32,0Z" fill="#231f20"/><path d="M232.42,167.68a8.63,8.63,0,1,1,17.26,0L239,175.84Z" fill="#231f20"/><path d="M239,176.34a.51.51,0,0,1-.39-.19L232,168a.52.52,0,0,1-.11-.32,9.13,9.13,0,1,1,18.26,0,.5.5,0,0,1-.19.4l-10.66,8.15A.5.5,0,0,1,239,176.34Zm-6.11-8.83,6.19,7.63,10.07-7.7a8.13,8.13,0,0,0-16.26.07Z" fill="#231f20"/><path d="M278.1,171.78a14.14,14.14,0,1,0-27.68-4.1,13.88,13.88,0,0,0,.61,4.1Z" fill="#fff"/><path d="M278.1,172.27H251a.49.49,0,0,1-.48-.35,14.64,14.64,0,1,1,28.65-4.24,14.85,14.85,0,0,1-.62,4.24A.5.5,0,0,1,278.1,172.27Zm-26.7-1h26.32a13.64,13.64,0,1,0-26.32,0Z" fill="#231f20"/><path d="M255.93,167.68a8.63,8.63,0,0,1,17.26,0l-6.34,9.1Z" fill="#231f20"/><path d="M266.85,177.27a.52.52,0,0,1-.32-.11l-10.92-9.09a.53.53,0,0,1-.18-.39,9.13,9.13,0,0,1,18.26,0,.48.48,0,0,1-.09.29l-6.34,9.09a.5.5,0,0,1-.35.21Zm-10.42-9.82L266.75,176l5.94-8.51a8.13,8.13,0,0,0-16.26-.08Z" fill="#231f20"/><path d="M267.28,171.4a15.44,15.44,0,0,0-29,0,15.47,15.47,0,0,0-14.5-10.11l.54,6,.84,9.41.4,4.48H280l.41-4.48.84-9.41.54-6A15.44,15.44,0,0,0,267.28,171.4Z" fill="#fff"/><path d="M238,181.76H225.6a.5.5,0,0,1-.5-.46l-1.78-19.92a.56.56,0,0,1,.13-.39.52.52,0,0,1,.37-.16,16,16,0,0,1,14.5,9.31,15.93,15.93,0,0,1,29,0,16,16,0,0,1,14.48-9.27.51.51,0,0,1,.37.16.56.56,0,0,1,.13.39l-1.79,19.92a.5.5,0,0,1-.5.46Zm-11.95-1h53.46l1.69-18.92a15,15,0,0,0-13.46,9.73.52.52,0,0,1-.94,0,14.93,14.93,0,0,0-28,.05.52.52,0,0,1-.94,0,15,15,0,0,0-13.48-9.78Z" fill="#231f20"/><path d="M281.22,167.37l-.84,9.41h-8.06A9.44,9.44,0,0,1,281.22,167.37Z" fill="#231f20"/><path d="M280.38,177.27h-8.06a.5.5,0,0,1-.5-.5,10,10,0,0,1,9.37-9.9.54.54,0,0,1,.39.15.51.51,0,0,1,.14.39l-.84,9.41A.5.5,0,0,1,280.38,177.27Zm-7.54-1h7.08l.75-8.35A8.94,8.94,0,0,0,272.84,176.27Z" fill="#231f20"/><path d="M243.37,176.79a9.44,9.44,0,1,1,18.87,0Z" fill="#231f20"/><path d="M262.24,177.29H243.37a.51.51,0,0,1-.5-.5,9.94,9.94,0,1,1,19.87,0A.5.5,0,0,1,262.24,177.29Zm-18.35-1h17.84a8.93,8.93,0,0,0-17.84,0Z" fill="#231f20"/><path d="M233.26,176.78H225.2l-.84-9.41A9.44,9.44,0,0,1,233.26,176.78Z" fill="#231f20"/><path d="M233.26,177.27H225.2a.5.5,0,0,1-.5-.45l-.84-9.41A.51.51,0,0,1,224,167a.56.56,0,0,1,.39-.15,10,10,0,0,1,9.37,9.9A.5.5,0,0,1,233.26,177.27Zm-7.6-1h7.08a9,9,0,0,0-7.83-8.35Z" fill="#231f20"/><rect x="224.66" y="181.26" width="56.27" height="1.98" fill="#231f20"/><path d="M280.93,183.74H224.66a.5.5,0,0,1-.5-.5v-2a.5.5,0,0,1,.5-.5h56.27a.5.5,0,0,1,.5.5v2A.51.51,0,0,1,280.93,183.74Zm-55.77-1h55.27v-1H225.16Z" fill="#231f20"/><polygon points="220.43 188.68 285.15 188.68 280.93 183.24 224.66 183.24 220.43 188.68" fill="#fff"/><path d="M285.15,189.18H220.43a.5.5,0,0,1-.45-.28.53.53,0,0,1,.05-.53l4.23-5.44a.5.5,0,0,1,.4-.19h56.27a.49.49,0,0,1,.39.19l4.23,5.44a.53.53,0,0,1,.05.53A.5.5,0,0,1,285.15,189.18Zm-63.7-1h62.68l-3.45-4.44H224.9Z" fill="#231f20"/><rect x="220.43" y="188.68" width="63.79" height="34.36" fill="#231f20"/><path d="M284.22,223.54H220.43a.5.5,0,0,1-.5-.5V188.68a.5.5,0,0,1,.5-.5h63.79a.5.5,0,0,1,.5.5V223A.5.5,0,0,1,284.22,223.54Zm-63.29-1h62.79V189.18H220.93Z" fill="#231f20"/><rect x="220.43" y="223.04" width="63.79" height="48.51" fill="#231f20"/><path d="M284.22,272.05H220.43a.5.5,0,0,1-.5-.5V223a.5.5,0,0,1,.5-.5h63.79a.5.5,0,0,1,.5.5v48.51A.5.5,0,0,1,284.22,272.05Zm-63.29-1h62.79V223.54H220.93Z" fill="#231f20"/><rect x="220.43" y="223.04" width="63.79" height="3.61" fill="#fff"/><path d="M284.22,227.15H220.43a.5.5,0,0,1-.5-.5V223a.5.5,0,0,1,.5-.5h63.79a.5.5,0,0,1,.5.5v3.61A.5.5,0,0,1,284.22,227.15Zm-63.29-1h62.79v-2.61H220.93Z" fill="#231f20"/><path d="M227.84,191.81h.57a2.48,2.48,0,0,1,2.48,2.48V223a0,0,0,0,1,0,0h-5.53a0,0,0,0,1,0,0V194.29A2.48,2.48,0,0,1,227.84,191.81Z" fill="#fff"/><path d="M230.89,223.54h-5.53a.5.5,0,0,1-.5-.5V194.29a3,3,0,0,1,3-3h.57a3,3,0,0,1,3,3V223A.5.5,0,0,1,230.89,223.54Zm-5-1h4.53V194.29a2,2,0,0,0-2-2h-.57a2,2,0,0,0-2,2Z" fill="#231f20"/><path d="M237,191.81h.57a2.48,2.48,0,0,1,2.48,2.48V223a0,0,0,0,1,0,0h-5.53a0,0,0,0,1,0,0V194.29A2.48,2.48,0,0,1,237,191.81Z" fill="#fff"/><path d="M240,223.54h-5.53a.5.5,0,0,1-.5-.5V194.29a3,3,0,0,1,3-3h.57a3,3,0,0,1,3,3V223A.5.5,0,0,1,240,223.54Zm-5-1h4.53V194.29a2,2,0,0,0-2-2H237a2,2,0,0,0-2,2Z" fill="#231f20"/><path d="M246.08,191.81h.57a2.48,2.48,0,0,1,2.48,2.48V223a0,0,0,0,1,0,0H243.6a0,0,0,0,1,0,0V194.29A2.48,2.48,0,0,1,246.08,191.81Z" fill="#fff"/><path d="M249.14,223.54H243.6a.5.5,0,0,1-.5-.5V194.29a3,3,0,0,1,3-3h.58a3,3,0,0,1,3,3V223A.5.5,0,0,1,249.14,223.54Zm-5-1h4.54V194.29a2,2,0,0,0-2-2h-.58a2,2,0,0,0-2,2Z" fill="#231f20"/><path d="M255.21,191.81h.57a2.48,2.48,0,0,1,2.48,2.48V223a0,0,0,0,1,0,0h-5.53a0,0,0,0,1,0,0V194.29A2.48,2.48,0,0,1,255.21,191.81Z" fill="#fff"/><path d="M258.26,223.54h-5.53a.5.5,0,0,1-.5-.5V194.29a3,3,0,0,1,3-3h.57a3,3,0,0,1,3,3V223A.5.5,0,0,1,258.26,223.54Zm-5-1h4.53V194.29a2,2,0,0,0-2-2h-.57a2,2,0,0,0-2,2Z" fill="#231f20"/><path d="M264.33,191.81h.57a2.48,2.48,0,0,1,2.48,2.48V223a0,0,0,0,1,0,0h-5.53a0,0,0,0,1,0,0V194.29A2.48,2.48,0,0,1,264.33,191.81Z" fill="#fff"/><path d="M267.38,223.54h-5.53a.5.5,0,0,1-.5-.5V194.29a3,3,0,0,1,3-3h.57a3,3,0,0,1,3,3V223A.5.5,0,0,1,267.38,223.54Zm-5-1h4.53V194.29a2,2,0,0,0-2-2h-.57a2,2,0,0,0-2,2Z" fill="#231f20"/><path d="M273.45,191.81H274a2.48,2.48,0,0,1,2.48,2.48V223a0,0,0,0,1,0,0H271a0,0,0,0,1,0,0V194.29A2.48,2.48,0,0,1,273.45,191.81Z" fill="#fff"/><path d="M276.5,223.54H271a.5.5,0,0,1-.5-.5V194.29a3,3,0,0,1,3-3H274a3,3,0,0,1,3,3V223A.5.5,0,0,1,276.5,223.54Zm-5-1H276V194.29a2,2,0,0,0-2-2h-.57a2,2,0,0,0-2,2Z" fill="#231f20"/><path d="M230.89,271.55v-38.5a2.83,2.83,0,0,0-5.53,0v38.5Z" fill="#fff"/><path d="M230.89,272.05h-5.53a.5.5,0,0,1-.5-.5v-38.5a3.32,3.32,0,0,1,6.53,0v38.5A.5.5,0,0,1,230.89,272.05Zm-5-1h4.53v-38a2.35,2.35,0,0,0-4.53,0Z" fill="#231f20"/><path d="M240,271.55v-38.5a2.83,2.83,0,0,0-5.53,0v38.5Z" fill="#fff"/><path d="M240,272.05h-5.53a.5.5,0,0,1-.5-.5v-38.5a3.32,3.32,0,0,1,6.53,0v38.5A.5.5,0,0,1,240,272.05Zm-5-1h4.53v-38a2.35,2.35,0,0,0-4.53,0Z" fill="#231f20"/><path d="M249.14,271.55v-38.5a2.84,2.84,0,0,0-5.54,0v38.5Z" fill="#fff"/><path d="M249.14,272.05H243.6a.5.5,0,0,1-.5-.5v-38.5a3.33,3.33,0,0,1,6.54,0v38.5A.5.5,0,0,1,249.14,272.05Zm-5-1h4.54v-38a2.36,2.36,0,0,0-4.54,0Z" fill="#231f20"/><path d="M258.26,271.55v-38.5a2.83,2.83,0,0,0-5.53,0v38.5Z" fill="#fff"/><path d="M258.26,272.05h-5.53a.5.5,0,0,1-.5-.5v-38.5a3.32,3.32,0,0,1,6.53,0v38.5A.5.5,0,0,1,258.26,272.05Zm-5-1h4.53v-38a2.35,2.35,0,0,0-4.53,0Z" fill="#231f20"/><path d="M267.38,271.55v-38.5a2.83,2.83,0,0,0-5.53,0v38.5Z" fill="#fff"/><path d="M267.38,272.05h-5.53a.5.5,0,0,1-.5-.5v-38.5a3.32,3.32,0,0,1,6.53,0v38.5A.5.5,0,0,1,267.38,272.05Zm-5-1h4.53v-38a2.35,2.35,0,0,0-4.53,0Z" fill="#231f20"/><path d="M276.5,271.55v-38.5a2.83,2.83,0,0,0-5.53,0v38.5Z" fill="#fff"/><path d="M276.5,272.05H271a.5.5,0,0,1-.5-.5v-38.5a3.32,3.32,0,0,1,6.53,0v38.5A.5.5,0,0,1,276.5,272.05Zm-5-1H276v-38a2.35,2.35,0,0,0-4.53,0Z" fill="#231f20"/><path d="M225.62,162.32a24,24,0,0,1-2.69,1.64H175.45s-10.92-3-12.39-13.29c-1.25-8.73,4.52-14.29,12.37-20.32,1.35-1,2.77-2.11,4.22-3.19,9.73-7.29,15.79-14.77,17.57-21.7,0-.1.05-.21.08-.31h5a59.92,59.92,0,0,0,10,15.52,34.92,34.92,0,0,0,5.13,4.65l.35.26c2.8,2,5.17,3.75,7.15,5.41,5.13,4.31,7.65,7.82,8.26,11.78C234.16,148.91,233.06,157,225.62,162.32Z" fill="#68e1fd"/><path d="M222.93,164.41h-47.6c-.11,0-11.22-3.23-12.72-13.66-1.32-9.24,5.18-15.09,12.54-20.75,1.29-1,2.63-2,4-3l.23-.17c9.63-7.22,15.65-14.63,17.39-21.44a2.16,2.16,0,0,0,.08-.29.48.48,0,0,1,.45-.37h5a.47.47,0,0,1,.43.28,59.72,59.72,0,0,0,9.89,15.39,34,34,0,0,0,5.07,4.59l.35.26c2.9,2,5.25,3.82,7.17,5.43,5.28,4.44,7.8,8.05,8.42,12.06s1,13.72-7.79,20h0a23.51,23.51,0,0,1-2.74,1.66A.41.41,0,0,1,222.93,164.41Zm-47.41-.91h47.3a22.3,22.3,0,0,0,2.53-1.55c8.41-6,8-15.36,7.42-19.11s-3-7.21-8.1-11.5c-1.91-1.59-4.24-3.36-7.12-5.39l-.36-.26A35.22,35.22,0,0,1,212,121a61,61,0,0,1-10-15.38h-4.39c-1.79,7-7.93,14.58-17.72,21.92l-.23.17c-1.37,1-2.71,2-4,3-7.42,5.7-13.45,11.14-12.19,19.9C164.87,160.06,174.68,163.25,175.52,163.5Zm50.1-1.18h0Z" fill="#231f20"/><path d="M199.25,101a19.58,19.58,0,0,1-.43,4.15,34.63,34.63,0,0,1-1.12,4.07A51.55,51.55,0,0,1,191.82,121c-4.12,6.1-10.83,11.29-12.2,23.79a28.48,28.48,0,0,0,5,19.19h-5c-2.89-3.13-9.73-11.77-7.54-21.78,2.74-12.59,11-15,18.45-23.49a28.22,28.22,0,0,0,6.88-13.54,14.53,14.53,0,0,0,.28-2.93l.94-.7Z" fill="#fff"/><path d="M184.58,164.46h-5a.52.52,0,0,1-.37-.16c-3-3.3-9.88-12.05-7.66-22.23,1.93-8.84,6.64-12.87,11.62-17.14a64.5,64.5,0,0,0,6.94-6.57,27.66,27.66,0,0,0,6.77-13.3,15.32,15.32,0,0,0,.28-2.82.48.48,0,0,1,.2-.42L199,100.6a.49.49,0,0,1,.52,0,.5.5,0,0,1,.28.43,20.48,20.48,0,0,1-.44,4.26,35,35,0,0,1-1.14,4.13,51.53,51.53,0,0,1-5.93,11.88c-1,1.42-2,2.76-3.17,4.18-3.71,4.64-7.91,9.89-8.95,19.38A27.82,27.82,0,0,0,185,163.67a.51.51,0,0,1,0,.52A.52.52,0,0,1,184.58,164.46Zm-4.82-1h3.89a28.73,28.73,0,0,1-4.53-18.75c1.08-9.78,5.38-15.15,9.17-19.89,1.12-1.41,2.19-2.74,3.12-4.12a50.26,50.26,0,0,0,5.81-11.64,33,33,0,0,0,1.11-4,21.21,21.21,0,0,0,.4-3l-.61.46a18.37,18.37,0,0,1-.3,2.76,28.49,28.49,0,0,1-7,13.79,66.27,66.27,0,0,1-7,6.67c-5.06,4.34-9.44,8.08-11.29,16.59C170.4,151.84,176.75,160.16,179.76,163.46Z" fill="#231f20"/><path d="M199.77,99.74s-.14,2.13-.42,5.41c-.26,3-.65,7-1.15,11.18-1.06,8.75-3.63,20.35-3.49,30.57A80.69,80.69,0,0,0,196.52,164h-6.14c-2.84-6.18-4-13.71-2.9-23.84,1.14-10.83,6.32-16.17,8.38-22.27a51.41,51.41,0,0,0,1.84-8.63c.19-1.42.36-2.81.5-4.07.15-1.43.27-2.68.35-3.63s.13-1.78.13-1.78Z" fill="#fff"/><path d="M196.52,164.46h-6.14a.51.51,0,0,1-.46-.29c-3-6.64-4-14.29-2.94-24.1.77-7.28,3.32-12.08,5.57-16.31a41.16,41.16,0,0,0,2.84-6.07,49.88,49.88,0,0,0,1.81-8.54c.2-1.42.36-2.8.5-4.06.16-1.42.27-2.67.35-3.61.09-1.09.13-1.76.13-1.77a.5.5,0,0,1,.5-.47h1.09a.48.48,0,0,1,.36.16.49.49,0,0,1,.14.38s-.14,2.13-.43,5.41c-.23,2.66-.61,6.77-1.14,11.2-.32,2.62-.77,5.49-1.25,8.53-1.1,7-2.34,14.86-2.24,22A80.26,80.26,0,0,0,197,163.83a.5.5,0,0,1-.08.43A.54.54,0,0,1,196.52,164.46Zm-5.82-1h5.18a85.17,85.17,0,0,1-1.67-16.55c-.1-7.2,1.15-15.14,2.25-22.15.48-3,.93-5.88,1.24-8.49.53-4.42.92-8.51,1.15-11.17.2-2.3.32-4,.38-4.86h-.08c0,.31-.06.76-.1,1.32-.08,1-.2,2.21-.35,3.64-.14,1.26-.31,2.66-.51,4.09a50.88,50.88,0,0,1-1.86,8.72,41.23,41.23,0,0,1-2.9,6.22c-2.2,4.15-4.71,8.86-5.46,15.94C187,149.65,187.84,157.06,190.7,163.46Z" fill="#231f20"/><path d="M220.05,164h-5a28.43,28.43,0,0,0,5-19.19c-1.37-12.5-8.08-17.69-12.2-23.79a51.11,51.11,0,0,1-5.87-11.76,32.79,32.79,0,0,1-1.12-4.07,19,19,0,0,1-.44-4.15l.7.52.94.7a15.53,15.53,0,0,0,.28,2.93,28.22,28.22,0,0,0,6.88,13.54c7.48,8.47,15.71,10.9,18.45,23.49C229.78,152.19,223,160.83,220.05,164Z" fill="#fff"/><path d="M220.05,164.46h-5a.52.52,0,0,1-.45-.27.51.51,0,0,1,0-.52,27.87,27.87,0,0,0,4.88-18.85c-1-9.49-5.25-14.74-9-19.38-1.13-1.42-2.21-2.76-3.16-4.18a51.18,51.18,0,0,1-5.94-11.88,34.35,34.35,0,0,1-1.13-4.13,19.88,19.88,0,0,1-.45-4.26.54.54,0,0,1,.29-.44.51.51,0,0,1,.52,0l1.63,1.22a.53.53,0,0,1,.2.42,14.65,14.65,0,0,0,.27,2.82,27.66,27.66,0,0,0,6.77,13.3,64.5,64.5,0,0,0,6.94,6.57c5,4.27,9.69,8.3,11.62,17.14,2.22,10.18-4.62,18.93-7.66,22.23A.51.51,0,0,1,220.05,164.46Zm-4.1-1h3.88c3-3.3,9.36-11.62,7.27-21.18-1.85-8.51-6.23-12.26-11.29-16.59a66.27,66.27,0,0,1-7-6.67,28.6,28.6,0,0,1-7-13.78,16.87,16.87,0,0,1-.29-2.77l-.62-.45a19.85,19.85,0,0,0,.41,3,32.9,32.9,0,0,0,1.1,4,50.66,50.66,0,0,0,5.81,11.64c.94,1.38,2,2.71,3.12,4.12,3.8,4.74,8.1,10.11,9.17,19.89A28.79,28.79,0,0,1,216,163.46Z" fill="#231f20"/><path d="M209.21,164h-6.13a81.56,81.56,0,0,0,1.8-17.06c.14-10.22-2.43-21.82-3.49-30.57-.5-4.2-.88-8.17-1.14-11.18-.29-3.28-.43-5.41-.43-5.41h1.09s0,.68.13,1.78.19,2.2.35,3.63c.13,1.26.3,2.65.51,4.07a51.46,51.46,0,0,0,1.83,8.63c2.06,6.1,7.24,11.44,8.39,22.27C213.19,150.25,212.05,157.78,209.21,164Z" fill="#fff"/><path d="M209.21,164.46h-6.13a.5.5,0,0,1-.39-.2.48.48,0,0,1-.09-.43,80.09,80.09,0,0,0,1.78-16.93c.1-7.12-1.14-15-2.24-22-.48-3-.93-5.91-1.24-8.53-.54-4.43-.92-8.54-1.15-11.2-.29-3.28-.42-5.41-.42-5.41a.52.52,0,0,1,.13-.38.5.5,0,0,1,.36-.16h1.09a.49.49,0,0,1,.49.47s0,.68.13,1.77c.08.94.2,2.19.36,3.61s.3,2.68.5,4.06a48.79,48.79,0,0,0,1.82,8.54,41.07,41.07,0,0,0,2.83,6.07c2.25,4.23,4.8,9,5.57,16.31,1,9.81.1,17.47-3,24.1A.51.51,0,0,1,209.21,164.46Zm-5.49-1h5.17c2.86-6.39,3.73-13.8,2.73-23.29-.75-7.08-3.25-11.79-5.46-15.94a41.23,41.23,0,0,1-2.9-6.22,50.88,50.88,0,0,1-1.86-8.72c-.2-1.39-.37-2.81-.5-4.09-.17-1.43-.28-2.69-.36-3.63,0-.57-.08-1-.1-1.33h-.08c.06.83.19,2.56.39,4.86.22,2.66.61,6.75,1.14,11.17.31,2.61.76,5.46,1.24,8.49,1.1,7,2.35,15,2.25,22.15A85.72,85.72,0,0,1,203.72,163.46Z" fill="#231f20"/><path d="M199.77,85.6a.5.5,0,0,1-.5-.5V64.6a.5.5,0,0,1,.5-.5.51.51,0,0,1,.5.5V85.1A.51.51,0,0,1,199.77,85.6Z" fill="#231f20"/><rect x="196.25" y="98.5" width="7.14" height="9.08" fill="#fff"/><path d="M203.39,108.08h-7.14a.5.5,0,0,1-.5-.5V98.5a.5.5,0,0,1,.5-.5h7.14a.51.51,0,0,1,.5.5v9.08A.5.5,0,0,1,203.39,108.08Zm-6.64-1h6.14V99h-6.14Z" fill="#231f20"/><polygon points="197.87 89.49 201.67 89.49 202.34 98.5 197.19 98.5 197.87 89.49" fill="#231f20"/><path d="M202.34,99h-5.15a.46.46,0,0,1-.36-.16.47.47,0,0,1-.13-.37l.67-9a.5.5,0,0,1,.5-.46h3.8a.5.5,0,0,1,.5.46l.67,9a.51.51,0,0,1-.13.37A.49.49,0,0,1,202.34,99Zm-4.61-1h4.07l-.6-8h-2.87Z" fill="#231f20"/><ellipse cx="199.82" cy="87.26" rx="4.04" ry="3.65" fill="#fff"/><path d="M199.82,91.41a4.17,4.17,0,1,1,4.54-4.15A4.36,4.36,0,0,1,199.82,91.41Zm0-7.3a3.17,3.17,0,1,0,3.54,3.15A3.36,3.36,0,0,0,199.82,84.11Z" fill="#231f20"/><rect x="175.67" y="163.96" width="47.15" height="3.23" fill="#fff"/><path d="M222.82,167.69H175.67a.51.51,0,0,1-.5-.5V164a.5.5,0,0,1,.5-.5h47.15a.5.5,0,0,1,.5.5v3.23A.5.5,0,0,1,222.82,167.69Zm-46.65-1h46.15v-2.23H176.17Z" fill="#231f20"/><rect x="177.53" y="167.19" width="43.43" height="48.88" fill="#68e1fd"/><path d="M221,216.52H177.53a.46.46,0,0,1-.46-.46V167.19a.47.47,0,0,1,.46-.46H221a.46.46,0,0,1,.46.46v48.87A.45.45,0,0,1,221,216.52Zm-43-.91h42.52v-48H178Z" fill="#231f20"/><path d="M188.15,176h0a1.58,1.58,0,0,1,1.58,1.58V199a0,0,0,0,1,0,0h-3.16a0,0,0,0,1,0,0V177.61A1.58,1.58,0,0,1,188.15,176Z" fill="#fff"/><path d="M198.92,176h0a1.58,1.58,0,0,1,1.58,1.58V199a0,0,0,0,1,0,0h-3.16a0,0,0,0,1,0,0V177.61a1.58,1.58,0,0,1,1.58-1.58Z" fill="#fff"/><path d="M209.7,176h0a1.58,1.58,0,0,1,1.58,1.58V199a0,0,0,0,1,0,0h-3.16a0,0,0,0,1,0,0V177.61A1.58,1.58,0,0,1,209.7,176Z" fill="#fff"/><path d="M215.8,208.47a9.84,9.84,0,0,0-17.24,0,9.83,9.83,0,0,0-17.24,0,9.82,9.82,0,0,0-8.61-5.1v12.68h51.71V203.38A9.83,9.83,0,0,0,215.8,208.47Z" fill="#fff"/><path d="M224.42,216.56H172.71a.5.5,0,0,1-.5-.5V203.38a.5.5,0,0,1,.5-.5,10.34,10.34,0,0,1,8.61,4.63,10.34,10.34,0,0,1,17.24,0,10.34,10.34,0,0,1,17.24,0,10.34,10.34,0,0,1,8.62-4.63.5.5,0,0,1,.5.5v12.68A.5.5,0,0,1,224.42,216.56Zm-51.21-1h50.71V203.89a9.38,9.38,0,0,0-7.69,4.83.47.47,0,0,1-.43.25h0a.49.49,0,0,1-.44-.25,9.33,9.33,0,0,0-16.36,0,.52.52,0,0,1-.88,0,9.33,9.33,0,0,0-16.36,0,.52.52,0,0,1-.88,0,9.35,9.35,0,0,0-7.67-4.83Z" fill="#231f20"/><path d="M224.42,207.22v6h-6A6,6,0,0,1,224.42,207.22Z" fill="#231f20"/><path d="M224.42,213.71h-6a.5.5,0,0,1-.5-.5,6.51,6.51,0,0,1,6.51-6.49.5.5,0,0,1,.5.5v6A.5.5,0,0,1,224.42,213.71Zm-5.48-1h5v-5A5.5,5.5,0,0,0,218.94,212.71Z" fill="#231f20"/><path d="M178.71,213.21h-6v-6A6,6,0,0,1,178.71,213.21Z" fill="#fff"/><path d="M178.71,213.71h-6a.5.5,0,0,1-.5-.5v-6a.5.5,0,0,1,.5-.5,6.5,6.5,0,0,1,6.5,6.49A.5.5,0,0,1,178.71,213.71Zm-5.5-1h5a5.52,5.52,0,0,0-5-5Z" fill="#231f20"/><path d="M183.94,213.21a6,6,0,1,1,12,0Z" fill="#231f20"/><path d="M195.94,213.71h-12a.5.5,0,0,1-.5-.5,6.5,6.5,0,1,1,13,0A.5.5,0,0,1,195.94,213.71Zm-11.48-1h11a5.5,5.5,0,0,0-11,0Z" fill="#231f20"/><path d="M201.18,213.21a6,6,0,1,1,12,0Z" fill="#231f20"/><path d="M213.18,213.71h-12a.5.5,0,0,1-.5-.5,6.5,6.5,0,1,1,13,0A.5.5,0,0,1,213.18,213.71Zm-11.48-1h11a5.5,5.5,0,0,0-11,0Z" fill="#231f20"/><polygon points="173.73 216.06 224.9 216.06 228.99 221.21 169.63 221.21 173.73 216.06" fill="#fff"/><path d="M229,221.71H169.63a.5.5,0,0,1-.45-.29.49.49,0,0,1,.06-.52l4.09-5.15a.51.51,0,0,1,.4-.19H224.9a.51.51,0,0,1,.39.19l4.09,5.15a.5.5,0,0,1-.39.81Zm-58.32-1H228l-3.29-4.15H174Z" fill="#231f20"/><rect x="169.63" y="221.21" width="59.36" height="50.35" fill="#68e1fd"/><path d="M229,272H169.63a.45.45,0,0,1-.45-.46V221.21a.45.45,0,0,1,.45-.46H229a.46.46,0,0,1,.46.46v50.34A.46.46,0,0,1,229,272Zm-58.9-.91h58.44V221.66H170.09Z" fill="#231f20"/><path d="M221,170.73H177.53a.5.5,0,0,1-.5-.5.5.5,0,0,1,.5-.5H221a.5.5,0,0,1,.5.5A.5.5,0,0,1,221,170.73Z" fill="#231f20"/><path d="M209.7,270.29a.5.5,0,0,1-.5-.5v-47a.5.5,0,0,1,.5-.5.5.5,0,0,1,.5.5v47A.5.5,0,0,1,209.7,270.29Z" fill="#fff"/><rect x="281.03" y="212.2" width="28.61" height="12.56" fill="#fff"/><path d="M309.65,225.26H281a.51.51,0,0,1-.5-.5V212.2a.5.5,0,0,1,.5-.5h28.62a.5.5,0,0,1,.5.5v12.56A.51.51,0,0,1,309.65,225.26Zm-28.12-1h27.62V212.7H281.53Z" fill="#231f20"/><path d="M296.26,228.09a11,11,0,0,0,.49-3.26,11.27,11.27,0,1,0-22.05,3.26Z" fill="#fff"/><path d="M296.26,228.59H274.7a.5.5,0,0,1-.48-.35,11.65,11.65,0,0,1-.51-3.41,11.77,11.77,0,0,1,23.54,0,11.65,11.65,0,0,1-.51,3.41A.5.5,0,0,1,296.26,228.59Zm-21.18-1h20.81a10.78,10.78,0,1,0-20.81,0Z" fill="#231f20"/><path d="M278.61,224.83a6.88,6.88,0,0,1,13.75,0l-7.4,8.25Z" fill="#231f20"/><path d="M285,233.58h0a.51.51,0,0,1-.38-.2l-6.35-8.24a.5.5,0,0,1-.1-.31,7.38,7.38,0,0,1,14.75,0,.55.55,0,0,1-.13.34l-7.4,8.24A.5.5,0,0,1,285,233.58Zm-5.85-8.92L285,232.3l6.86-7.66a6.37,6.37,0,0,0-12.74,0Z" fill="#231f20"/><path d="M315,228.09a11.27,11.27,0,1,0-22.05-3.26,11,11,0,0,0,.49,3.26Z" fill="#fff"/><path d="M315,228.59H293.43a.5.5,0,0,1-.48-.35,11.65,11.65,0,0,1-.51-3.41,11.77,11.77,0,0,1,23.54,0,11.65,11.65,0,0,1-.51,3.41A.5.5,0,0,1,315,228.59Zm-21.19-1h20.81a10.77,10.77,0,1,0-20.81,0Z" fill="#231f20"/><path d="M297.33,224.83a6.88,6.88,0,0,1,13.75,0l-4.4,7.15Z" fill="#231f20"/><path d="M306.68,232.48a.45.45,0,0,1-.3-.1L297,225.23a.52.52,0,0,1-.2-.4,7.38,7.38,0,0,1,14.75,0,.46.46,0,0,1-.07.26l-4.4,7.15a.5.5,0,0,1-.34.23Zm-8.84-7.89,8.7,6.66,4-6.56a6.37,6.37,0,0,0-12.74-.1Z" fill="#231f20"/><path d="M306.17,235.41A11.83,11.83,0,1,0,283,232a12.16,12.16,0,0,0,.5,3.43Z" fill="#fff"/><path d="M306.17,235.91H283.51a.51.51,0,0,1-.48-.36,12.34,12.34,0,1,1,23.62,0A.5.5,0,0,1,306.17,235.91Zm-22.28-1H305.8a11.6,11.6,0,0,0,.38-2.93,11.34,11.34,0,1,0-22.67,0A11.6,11.6,0,0,0,283.89,234.91Z" fill="#231f20"/><path d="M287.62,232a7.23,7.23,0,0,1,14.45,0Z" fill="#231f20"/><path d="M302.07,232.48H287.62a.5.5,0,0,1-.5-.5,7.73,7.73,0,0,1,15.45,0A.5.5,0,0,1,302.07,232.48Zm-13.93-1h13.41a6.72,6.72,0,0,0-13.41,0Z" fill="#231f20"/><path d="M283,232a12.23,12.23,0,0,1-.51,3.44h-10l-.31-3.44-.64-7.2-.41-4.62A11.83,11.83,0,0,1,283,232Z" fill="#fff"/><path d="M282.5,235.91h-10a.5.5,0,0,1-.5-.46l-1.36-15.26a.45.45,0,0,1,.13-.38.51.51,0,0,1,.37-.16A12.35,12.35,0,0,1,283.51,232a12.57,12.57,0,0,1-.53,3.58A.51.51,0,0,1,282.5,235.91Zm-9.52-1h9.14a11.32,11.32,0,0,0-10.41-14.25Z" fill="#231f20"/><path d="M278.39,232l-5.86,3.44-.31-3.44-.64-7.2A7.23,7.23,0,0,1,278.39,232Z" fill="#231f20"/><path d="M272.53,235.91a.46.46,0,0,1-.23-.06.48.48,0,0,1-.27-.4l-.95-10.64a.52.52,0,0,1,.14-.39.56.56,0,0,1,.39-.15,7.73,7.73,0,0,1,7.28,7.7.5.5,0,0,1-.25.44l-5.86,3.43A.59.59,0,0,1,272.53,235.91Zm-.4-10.58.83,9.25,4.93-2.89A6.74,6.74,0,0,0,272.13,225.33Zm6.26,6.64h0Z" fill="#231f20"/><path d="M318.5,220.15l-.42,4.62-.64,7.2-.31,3.44h-10a12.23,12.23,0,0,1-.51-3.44A11.83,11.83,0,0,1,318.5,220.15Z" fill="#fff"/><path d="M317.13,235.91h-10a.5.5,0,0,1-.48-.36,12.67,12.67,0,0,1-.53-3.58,12.35,12.35,0,0,1,12.35-12.32.52.52,0,0,1,.37.16.47.47,0,0,1,.12.38l-1.36,15.26A.51.51,0,0,1,317.13,235.91Zm-9.59-1h9.13L318,220.66A11.35,11.35,0,0,0,307.15,232,11.48,11.48,0,0,0,307.54,234.91Z" fill="#231f20"/><path d="M318.08,224.77l-.64,7.2-.36,5-5.81-5A7.22,7.22,0,0,1,318.08,224.77Z" fill="#231f20"/><path d="M317.08,237.48a.49.49,0,0,1-.32-.12l-5.82-5a.49.49,0,0,1-.17-.38,7.73,7.73,0,0,1,7.28-7.7.54.54,0,0,1,.39.15.52.52,0,0,1,.14.39l-.64,7.21-.36,5a.49.49,0,0,1-.3.42A.45.45,0,0,1,317.08,237.48Zm-5.31-5.73,4.89,4.2.28-4,.59-6.61A6.73,6.73,0,0,0,311.77,231.75Z" fill="#231f20"/><path d="M311.34,179.59a14.09,14.09,0,0,1-1.63,1H280.9s-6.63-1.84-7.52-8.06c-.76-5.3,2.74-8.68,7.5-12.34.83-.64,1.69-1.28,2.57-1.94,5.9-4.42,9.58-9,10.66-13.16,0-.07,0-.13.05-.19h3.06a36.4,36.4,0,0,0,6.06,9.42,21.41,21.41,0,0,0,3.11,2.82l.22.16c1.7,1.19,3.13,2.27,4.33,3.28,3.12,2.62,4.64,4.74,5,7.15C316.53,171.45,315.86,176.37,311.34,179.59Z" fill="#68e1fd"/><path d="M309.71,181H280.78c-.07,0-6.93-2-7.85-8.44-.82-5.7,3.16-9.29,7.68-12.76.77-.6,1.58-1.21,2.41-1.83l.15-.11c5.82-4.36,9.44-8.82,10.5-12.92a1.49,1.49,0,0,0,0-.18.46.46,0,0,1,.45-.35h3.06a.46.46,0,0,1,.42.28,36.37,36.37,0,0,0,6,9.29,20.91,20.91,0,0,0,3.05,2.76l.21.15c1.77,1.25,3.2,2.33,4.37,3.31,3.24,2.72,4.78,4.95,5.17,7.43s.63,8.44-4.8,12.31h0a14,14,0,0,1-1.69,1A.36.36,0,0,1,309.71,181ZM281,180.12H309.6a14.36,14.36,0,0,0,1.48-.91c5-3.57,4.77-9.18,4.43-11.42s-1.8-4.3-4.86-6.87c-1.15-1-2.56-2-4.31-3.26l-.22-.16a22.2,22.2,0,0,1-3.18-2.88,36.58,36.58,0,0,1-6-9.28h-2.41c-1.14,4.24-4.87,8.83-10.79,13.27l-.15.11c-.83.62-1.63,1.22-2.41,1.82-4.45,3.43-8.08,6.69-7.33,11.91C274.63,178,280.34,179.92,281,180.12Zm30.37-.53h0Z" fill="#231f20"/><path d="M295.34,142.37a12.19,12.19,0,0,1-.26,2.52,21.93,21.93,0,0,1-.68,2.47,31.1,31.1,0,0,1-3.57,7.13c-2.5,3.71-6.57,6.85-7.4,14.44a17.25,17.25,0,0,0,3,11.65h-3.06c-1.76-1.9-5.9-7.15-4.58-13.22,1.66-7.64,6.66-9.12,11.2-14.26a17.1,17.1,0,0,0,4.18-8.21,9.94,9.94,0,0,0,.17-1.78l.57-.42Z" fill="#fff"/><path d="M286.44,181.08h-3.06a.52.52,0,0,1-.37-.16c-1.87-2-6.06-7.4-4.7-13.67,1.19-5.43,4.07-7.9,7.12-10.51a40.26,40.26,0,0,0,4.2-4,16.54,16.54,0,0,0,4.05-8,8.7,8.7,0,0,0,.17-1.67.49.49,0,0,1,.2-.42l1-.74a.51.51,0,0,1,.52-.05.49.49,0,0,1,.28.44,12.74,12.74,0,0,1-.27,2.62,21.68,21.68,0,0,1-.7,2.54,31.3,31.3,0,0,1-3.62,7.25c-.59.87-1.24,1.69-1.93,2.55-2.24,2.8-4.77,6-5.39,11.67a16.68,16.68,0,0,0,2.92,11.3.49.49,0,0,1,0,.52A.49.49,0,0,1,286.44,181.08Zm-2.84-1h1.91a17.65,17.65,0,0,1-2.58-11.2c.66-6,3.29-9.28,5.61-12.18.68-.85,1.32-1.65,1.88-2.49a32.39,32.39,0,0,0,2.23-3.89,21.22,21.22,0,0,1-2.27,3.12,40.93,40.93,0,0,1-4.3,4.06c-3.05,2.61-5.68,4.86-6.79,10C278.06,173.12,281.77,178.06,283.6,180.08Z" fill="#231f20"/><path d="M295.66,141.61s-.09,1.29-.26,3.28c-.16,1.82-.39,4.24-.7,6.78-.64,5.31-2.2,12.36-2.11,18.56a49.18,49.18,0,0,0,1.09,10.35H290c-1.72-3.75-2.41-8.32-1.76-14.47.69-6.57,3.84-9.81,5.08-13.51a31.35,31.35,0,0,0,1.12-5.24c.12-.87.22-1.71.3-2.47s.17-1.63.22-2.2.07-1.08.07-1.08Z" fill="#fff"/><path d="M293.68,181.08H290a.51.51,0,0,1-.46-.29c-1.86-4.06-2.44-8.74-1.8-14.73a25.35,25.35,0,0,1,3.4-10,25.3,25.3,0,0,0,1.71-3.65,29.94,29.94,0,0,0,1.09-5.16c.12-.85.22-1.69.31-2.45s.16-1.62.21-2.19l.08-1.06a.49.49,0,0,1,.5-.47h.66a.48.48,0,0,1,.49.53s-.08,1.3-.25,3.29c-.14,1.61-.38,4.1-.7,6.8-.19,1.6-.47,3.34-.76,5.18a82.49,82.49,0,0,0-1.35,13.31,48.24,48.24,0,0,0,1.08,10.23.48.48,0,0,1-.09.43A.51.51,0,0,1,293.68,181.08Zm-3.4-1h2.77a52.86,52.86,0,0,1-1-9.85,82.89,82.89,0,0,1,1.37-13.47c.28-1.84.56-3.57.75-5.15,0-.31.07-.61.1-.91a20.53,20.53,0,0,1-.55,2.06,27.49,27.49,0,0,1-1.77,3.8,24.32,24.32,0,0,0-3.3,9.6C288.09,171.82,288.6,176.25,290.28,180.08Z" fill="#231f20"/><path d="M308,180.58h-3.06a17.36,17.36,0,0,0,3-11.65c-.84-7.59-4.91-10.73-7.41-14.44a31.07,31.07,0,0,1-3.56-7.13,20,20,0,0,1-.68-2.47,11,11,0,0,1-.26-2.52l.41.32.58.42a8.89,8.89,0,0,0,.17,1.78,17.1,17.1,0,0,0,4.18,8.21c4.53,5.14,9.53,6.62,11.19,14.26C313.87,173.43,309.72,178.68,308,180.58Z" fill="#fff"/><path d="M308,181.08h-3.06a.52.52,0,0,1-.45-.27.51.51,0,0,1,0-.52,16.7,16.7,0,0,0,2.92-11.3c-.63-5.71-3.16-8.87-5.39-11.67-.69-.86-1.35-1.68-1.93-2.55a31.34,31.34,0,0,1-3.63-7.25,21.07,21.07,0,0,1-.69-2.53,11.68,11.68,0,0,1-.27-2.63.49.49,0,0,1,.28-.44.51.51,0,0,1,.52.05l1,.74a.5.5,0,0,1,.21.42,9.1,9.1,0,0,0,.16,1.67,16.67,16.67,0,0,0,4.06,8,39.23,39.23,0,0,0,4.19,4c3,2.61,5.94,5.08,7.12,10.51,1.37,6.27-2.83,11.65-4.7,13.67A.48.48,0,0,1,308,181.08Zm-2.14-1h1.92c1.82-2,5.54-7,4.3-12.62-1.11-5.1-3.74-7.35-6.79-10a40.88,40.88,0,0,1-4.29-4.06,20.51,20.51,0,0,1-2.27-3.12,30.39,30.39,0,0,0,2.23,3.89c.56.84,1.2,1.64,1.88,2.49,2.32,2.9,4.95,6.18,5.6,12.18A17.54,17.54,0,0,1,305.83,180.08Z" fill="#231f20"/><path d="M301.38,180.58h-3.71a49.18,49.18,0,0,0,1.09-10.35c.09-6.2-1.48-13.25-2.12-18.56-.3-2.54-.54-5-.69-6.78-.18-2-.26-3.28-.26-3.28h.66s0,.41.07,1.08.12,1.33.22,2.2.18,1.6.31,2.47a31.39,31.39,0,0,0,1.11,5.24c1.25,3.7,4.39,6.94,5.09,13.51C303.8,172.26,303.11,176.83,301.38,180.58Z" fill="#fff"/><path d="M301.38,181.08h-3.71a.52.52,0,0,1-.4-.2.51.51,0,0,1-.09-.43,48.41,48.41,0,0,0,1.08-10.23,81.39,81.39,0,0,0-1.36-13.31c-.29-1.84-.56-3.58-.75-5.18-.33-2.68-.56-5.18-.7-6.8-.17-2-.26-3.29-.26-3.29a.5.5,0,0,1,.14-.38.48.48,0,0,1,.36-.15h.66a.5.5,0,0,1,.5.47s0,.4.07,1.07.12,1.32.22,2.18.18,1.6.3,2.45a30.54,30.54,0,0,0,1.1,5.16,24.18,24.18,0,0,0,1.7,3.65,25.19,25.19,0,0,1,3.41,10c.63,6,.06,10.67-1.81,14.73A.51.51,0,0,1,301.38,181.08Zm-3.08-1h2.76c1.69-3.82,2.19-8.26,1.59-13.92a24.48,24.48,0,0,0-3.29-9.6,25.34,25.34,0,0,1-1.77-3.8,20.34,20.34,0,0,1-.56-2.06c0,.3.07.6.11.91.19,1.58.46,3.31.75,5.15a82.89,82.89,0,0,1,1.37,13.47A53.06,53.06,0,0,1,298.3,180.08Z" fill="#231f20"/><path d="M295.66,133.22a.5.5,0,0,1-.5-.5V120.28a.5.5,0,0,1,.5-.5.5.5,0,0,1,.5.5v12.44A.51.51,0,0,1,295.66,133.22Z" fill="#231f20"/><rect x="293.52" y="140.85" width="4.33" height="5.51" fill="#fff"/><path d="M297.85,146.86h-4.33a.5.5,0,0,1-.5-.5v-5.51a.5.5,0,0,1,.5-.5h4.33a.5.5,0,0,1,.5.5v5.51A.5.5,0,0,1,297.85,146.86Zm-3.83-1h3.33v-4.51H294Z" fill="#231f20"/><polygon points="294.5 135.38 296.81 135.38 297.22 140.85 294.09 140.85 294.5 135.38" fill="#fff"/><path d="M297.22,141.35h-3.13a.5.5,0,0,1-.36-.16.47.47,0,0,1-.13-.37l.4-5.47a.5.5,0,0,1,.5-.47h2.31a.5.5,0,0,1,.5.47l.41,5.47a.51.51,0,0,1-.5.53Zm-2.59-1h2.05l-.33-4.47H295Z" fill="#231f20"/><ellipse cx="295.69" cy="134.03" rx="2.45" ry="2.22" fill="#fff"/><path d="M295.69,136.75a2.73,2.73,0,1,1,2.95-2.72A2.85,2.85,0,0,1,295.69,136.75Zm0-4.44a1.73,1.73,0,1,0,1.95,1.72A1.85,1.85,0,0,0,295.69,132.31Z" fill="#231f20"/><rect x="281.03" y="180.58" width="28.61" height="1.96" fill="#fff"/><path d="M309.65,183H281a.51.51,0,0,1-.5-.5v-2a.5.5,0,0,1,.5-.5h28.62a.5.5,0,0,1,.5.5v2A.51.51,0,0,1,309.65,183Zm-28.12-1h27.62v-1H281.53Z" fill="#231f20"/><rect x="282.16" y="182.54" width="26.36" height="29.66" fill="#fff"/><path d="M308.52,212.7H282.16a.5.5,0,0,1-.5-.5V182.54a.5.5,0,0,1,.5-.5h26.36a.5.5,0,0,1,.5.5V212.2A.5.5,0,0,1,308.52,212.7Zm-25.86-1H308V183H282.66Z" fill="#231f20"/><path d="M296.34,241.86a11.9,11.9,0,1,0-22.77,0Z" fill="#fff"/><path d="M296.34,242.36H273.57a.5.5,0,0,1-.48-.35,12.53,12.53,0,0,1-.53-3.59,12.4,12.4,0,0,1,24.79,0,12.53,12.53,0,0,1-.53,3.59A.5.5,0,0,1,296.34,242.36Zm-22.39-1h22a11.68,11.68,0,0,0,.38-2.94,11.4,11.4,0,0,0-22.79,0A11.25,11.25,0,0,0,274,241.36Z" fill="#231f20"/><path d="M277.7,238.42a7.26,7.26,0,0,1,14.52,0l-9.52,6Z" fill="#231f20"/><path d="M282.7,244.94a.48.48,0,0,1-.38-.18l-5-6a.52.52,0,0,1-.11-.32,7.76,7.76,0,0,1,15.52,0,.52.52,0,0,1-.24.43l-9.51,6A.52.52,0,0,1,282.7,244.94Zm-4.5-6.69,4.61,5.54,8.9-5.64a6.76,6.76,0,0,0-13.51.1Z" fill="#231f20"/><path d="M316.12,241.86a11.9,11.9,0,1,0-22.77,0Z" fill="#fff"/><path d="M316.12,242.36H293.35a.5.5,0,0,1-.48-.35,12.53,12.53,0,0,1-.53-3.59,12.4,12.4,0,0,1,24.79,0,12.53,12.53,0,0,1-.53,3.59A.5.5,0,0,1,316.12,242.36Zm-22.4-1h22a11.25,11.25,0,0,0,.39-2.94,11.4,11.4,0,0,0-22.79,0A11.68,11.68,0,0,0,293.72,241.36Z" fill="#231f20"/><path d="M297.47,238.42a7.26,7.26,0,1,1,14.52,0l-4.7,4.09Z" fill="#231f20"/><path d="M307.29,243a.41.41,0,0,1-.19,0l-9.82-4.09a.49.49,0,0,1-.31-.46,7.76,7.76,0,1,1,15.52,0,.49.49,0,0,1-.17.38l-4.7,4.09A.52.52,0,0,1,307.29,243ZM298,238.09l9.22,3.84,4.29-3.73a6.76,6.76,0,0,0-13.51-.11Z" fill="#231f20"/><path d="M307,241.55a13,13,0,0,0-24.36,0,13,13,0,0,0-12.2-8.51l.46,5.08.7,7.91.34,3.77H317.7l.34-3.77.7-7.91.46-5.08A13,13,0,0,0,307,241.55Z" fill="#fff"/><path d="M282.4,250.34H272a.5.5,0,0,1-.5-.46L270,233.12a.53.53,0,0,1,.13-.38.52.52,0,0,1,.37-.16,13.58,13.58,0,0,1,12.2,7.72,13.48,13.48,0,0,1,24.36,0,13.55,13.55,0,0,1,12.18-7.69.52.52,0,0,1,.37.16.53.53,0,0,1,.13.38l-1.51,16.76a.49.49,0,0,1-.49.46Zm-10-1h44.82l1.41-15.75a12.55,12.55,0,0,0-11.16,8.13.52.52,0,0,1-.94,0,12.48,12.48,0,0,0-23.42,0,.52.52,0,0,1-.94,0A12.56,12.56,0,0,0,271,233.59Z" fill="#231f20"/><path d="M318.74,238.16l-.7,7.91h-6.78A7.93,7.93,0,0,1,318.74,238.16Z" fill="#231f20"/><path d="M318,246.57h-6.78a.5.5,0,0,1-.5-.5,8.44,8.44,0,0,1,7.95-8.41.47.47,0,0,1,.39.15.51.51,0,0,1,.14.39l-.7,7.91A.51.51,0,0,1,318,246.57Zm-6.26-1h5.8l.61-6.86A7.45,7.45,0,0,0,311.78,245.57Z" fill="#231f20"/><path d="M286.91,246.08a7.94,7.94,0,1,1,15.87,0Z" fill="#231f20"/><path d="M302.78,246.58H286.91a.5.5,0,0,1-.5-.5,8.44,8.44,0,1,1,16.87,0A.5.5,0,0,1,302.78,246.58Zm-15.35-1h14.83a7.43,7.43,0,0,0-14.83,0Z" fill="#231f20"/><path d="M278.4,246.07h-6.78l-.7-7.91A7.93,7.93,0,0,1,278.4,246.07Z" fill="#231f20"/><path d="M278.4,246.57h-6.78a.5.5,0,0,1-.49-.46l-.71-7.91a.51.51,0,0,1,.14-.39.47.47,0,0,1,.39-.15,8.44,8.44,0,0,1,7.95,8.41A.5.5,0,0,1,278.4,246.57Zm-6.32-1h5.8a7.44,7.44,0,0,0-6.41-6.86Z" fill="#231f20"/><path d="M308.52,184.89H282.16a.5.5,0,0,1-.5-.5.5.5,0,0,1,.5-.5h26.36a.5.5,0,0,1,.5.5A.5.5,0,0,1,308.52,184.89Z" fill="#231f20"/><rect x="281.03" y="209.66" width="28.61" height="2.54" fill="#fff"/><path d="M309.65,212.7H281a.5.5,0,0,1-.5-.5v-2.54a.51.51,0,0,1,.5-.5h28.62a.51.51,0,0,1,.5.5v2.54A.5.5,0,0,1,309.65,212.7Zm-28.12-1h27.62v-1.54H281.53Z" fill="#231f20"/><polygon points="323 253.69 267.04 253.69 271.96 249.84 318.08 249.84 323 253.69" fill="#fff"/><path d="M323,254.2H267a.5.5,0,0,1-.31-.9l4.92-3.85a.51.51,0,0,1,.31-.11h46.12a.51.51,0,0,1,.31.11l4.92,3.85a.5.5,0,0,1-.31.9Zm-54.52-1h53.08l-3.65-2.86H272.13Z" fill="#231f20"/><rect x="264.74" y="253.7" width="60.69" height="2.74" fill="#fff"/><path d="M325.44,256.94h-60.7a.5.5,0,0,1-.5-.5V253.7a.5.5,0,0,1,.5-.5h60.7a.5.5,0,0,1,.5.5v2.74A.5.5,0,0,1,325.44,256.94Zm-60.2-1h59.7V254.2h-59.7Z" fill="#231f20"/><rect x="265.51" y="256.44" width="59.93" height="15.11" fill="#68e1fd"/><path d="M325.44,272H265.51a.45.45,0,0,1-.46-.46V256.44a.46.46,0,0,1,.46-.46h59.93a.46.46,0,0,1,.45.46v15.11A.45.45,0,0,1,325.44,272ZM266,271.1h59V256.9H266Z" fill="#231f20"/><path d="M283,271.29a.5.5,0,0,1-.5-.5V258.45a.5.5,0,0,1,.5-.5.5.5,0,0,1,.5.5v12.34A.5.5,0,0,1,283,271.29Z" fill="#fff"/><path d="M306.68,271.29a.5.5,0,0,1-.5-.5V258.45a.5.5,0,0,1,1,0v12.34A.5.5,0,0,1,306.68,271.29Z" fill="#fff"/><path d="M290.69,189.14h0a2.12,2.12,0,0,1,2.12,2.12v14.8a0,0,0,0,1,0,0h-4.24a0,0,0,0,1,0,0v-14.8A2.12,2.12,0,0,1,290.69,189.14Z" fill="#d1d3d4"/><path d="M300,189.14h0a2.12,2.12,0,0,1,2.12,2.12v14.8a0,0,0,0,1,0,0h-4.24a0,0,0,0,1,0,0v-14.8A2.12,2.12,0,0,1,300,189.14Z" fill="#d1d3d4"/><rect x="153.8" y="205.35" width="28.61" height="12.56" fill="#68e1fd"/><path d="M182.41,218.37H153.8a.46.46,0,0,1-.46-.46V205.35a.45.45,0,0,1,.46-.45h28.61a.46.46,0,0,1,.46.45v12.56A.47.47,0,0,1,182.41,218.37Zm-28.16-.92H182V205.81h-27.7Z" fill="#231f20"/><path d="M169,221.24a11.27,11.27,0,1,0-21.57,0Z" fill="#fff"/><path d="M169,221.74H147.46a.5.5,0,0,1-.48-.35,12,12,0,0,1-.5-3.41A11.77,11.77,0,0,1,170,218a11.93,11.93,0,0,1-.5,3.41A.5.5,0,0,1,169,221.74Zm-21.19-1h20.81A10.67,10.67,0,0,0,169,218a10.77,10.77,0,1,0-21.17,2.76Z" fill="#231f20"/><path d="M151.37,218a6.88,6.88,0,0,1,13.75,0l-7.91,5.58Z" fill="#231f20"/><path d="M157.21,224.06a.47.47,0,0,1-.35-.14L151,218.35a.51.51,0,0,1-.15-.37,7.38,7.38,0,0,1,14.75,0,.49.49,0,0,1-.21.41L157.5,224A.52.52,0,0,1,157.21,224.06Zm-5.34-6.29,5.39,5.15,7.36-5.19a6.38,6.38,0,0,0-12.75,0Z" fill="#231f20"/><path d="M187.76,221.24a11.27,11.27,0,1,0-21.57,0Z" fill="#fff"/><path d="M187.76,221.74H166.19a.5.5,0,0,1-.48-.35,12,12,0,0,1-.5-3.41,11.77,11.77,0,0,1,23.53,0,11.6,11.6,0,0,1-.51,3.41A.48.48,0,0,1,187.76,221.74Zm-21.19-1h20.81a10.67,10.67,0,0,0,.36-2.76,10.77,10.77,0,1,0-21.17,2.76Z" fill="#231f20"/><path d="M170.1,218a6.88,6.88,0,0,1,13.75,0l-6,7.15Z" fill="#231f20"/><path d="M177.8,225.63a.48.48,0,0,1-.34-.14l-7.7-7.14a.51.51,0,0,1-.16-.37,7.38,7.38,0,0,1,14.75,0,.5.5,0,0,1-.12.33l-6,7.14a.54.54,0,0,1-.35.18Zm-7.2-7.86,7.15,6.64,5.6-6.61a6.38,6.38,0,0,0-12.75,0Z" fill="#231f20"/><path d="M178.94,228.56a12,12,0,0,0,.5-3.42,11.84,11.84,0,1,0-23.67,0,11.69,11.69,0,0,0,.51,3.42Z" fill="#fff"/><path d="M178.94,229.06H156.28a.49.49,0,0,1-.48-.36,12.33,12.33,0,1,1,23.62,0A.5.5,0,0,1,178.94,229.06Zm-22.29-1h21.91a11.59,11.59,0,0,0,.38-2.92,11.34,11.34,0,1,0-22.67,0A11.59,11.59,0,0,0,156.65,228.06Z" fill="#231f20"/><path d="M160.38,225.14a7.23,7.23,0,1,1,14.45,0Z" fill="#231f20"/><path d="M174.83,225.64H160.38a.51.51,0,0,1-.5-.5,7.73,7.73,0,1,1,15.45,0A.5.5,0,0,1,174.83,225.64Zm-13.93-1h13.41a6.72,6.72,0,0,0-13.41,0Z" fill="#231f20"/><path d="M155.77,225.13a11.81,11.81,0,0,1-.51,3.43h-10l-.3-3.43-.65-7.21-.41-4.62A11.84,11.84,0,0,1,155.77,225.13Z" fill="#fff"/><path d="M155.26,229.06h-10a.5.5,0,0,1-.5-.46l-1.36-15.26a.55.55,0,0,1,.13-.38.51.51,0,0,1,.37-.16,12.35,12.35,0,0,1,12.34,12.33,12.55,12.55,0,0,1-.53,3.57A.5.5,0,0,1,155.26,229.06Zm-9.51-1h9.13a11.32,11.32,0,0,0-10.4-14.25Z" fill="#231f20"/><path d="M151.16,225.13l-1,4.07-4.86-1.6-.94-9.68A7.23,7.23,0,0,1,151.16,225.13Z" fill="#231f20"/><path d="M150.14,229.7l-.15,0-4.87-1.6a.51.51,0,0,1-.34-.43l-.93-9.68a.47.47,0,0,1,.13-.39.53.53,0,0,1,.39-.16,7.74,7.74,0,0,1,7.29,7.71.5.5,0,0,1,0,.12l-1,4.07a.49.49,0,0,1-.24.32A.54.54,0,0,1,150.14,229.7Zm-4.39-2.47,4,1.33.87-3.49a6.74,6.74,0,0,0-5.76-6.59Zm5.41-2.1h0Z" fill="#231f20"/><path d="M191.26,213.3l-.41,4.62-.65,7.21-.31,3.43h-10a12.16,12.16,0,0,1-.5-3.43A11.83,11.83,0,0,1,191.26,213.3Z" fill="#fff"/><path d="M189.89,229.06h-10a.5.5,0,0,1-.48-.36,12.64,12.64,0,0,1-.52-3.57,12.34,12.34,0,0,1,12.34-12.33.52.52,0,0,1,.37.16.55.55,0,0,1,.13.38l-1.37,15.26A.5.5,0,0,1,189.89,229.06Zm-9.59-1h9.13l1.28-14.25a11.35,11.35,0,0,0-10.79,11.32A11.84,11.84,0,0,0,180.3,228.06Z" fill="#231f20"/><path d="M190.85,217.92l-.65,7.21L189,233.67l-5-8.54A7.23,7.23,0,0,1,190.85,217.92Z" fill="#231f20"/><path d="M189,234.17a.52.52,0,0,1-.43-.25l-5-8.54a.55.55,0,0,1-.07-.25,7.74,7.74,0,0,1,7.29-7.71.54.54,0,0,1,.38.15.47.47,0,0,1,.14.4l-.64,7.2-1.21,8.57a.5.5,0,0,1-.4.42ZM184.54,225l4.16,7.17,1-7.11.58-6.58A6.72,6.72,0,0,0,184.54,225Z" fill="#231f20"/><path d="M184.11,172.74a15,15,0,0,1-1.63,1H153.66s-6.62-1.84-7.52-8.06c-.76-5.3,2.74-8.67,7.51-12.34.82-.63,1.68-1.27,2.56-1.93,5.9-4.43,9.58-9,10.66-13.17a1.33,1.33,0,0,0,0-.19H170a36.54,36.54,0,0,0,6.06,9.42,20.92,20.92,0,0,0,3.12,2.82l.21.16c1.7,1.2,3.14,2.28,4.34,3.28,3.11,2.62,4.64,4.75,5,7.15C189.29,164.6,188.62,169.52,184.11,172.74Z" fill="#fff"/><path d="M182.48,174.23H153.66l-.13,0c-.28-.08-6.95-2-7.88-8.47-.82-5.73,3.17-9.32,7.69-12.8.78-.6,1.59-1.21,2.42-1.83l.15-.12c5.81-4.34,9.43-8.8,10.48-12.88l0-.18a.5.5,0,0,1,.49-.39H170a.49.49,0,0,1,.46.31,36.08,36.08,0,0,0,6,9.27,20.86,20.86,0,0,0,3,2.76l.21.15c1.77,1.24,3.2,2.33,4.37,3.31,3.25,2.73,4.8,5,5.19,7.45s.63,8.47-4.82,12.36h0a14.88,14.88,0,0,1-1.69,1A.49.49,0,0,1,182.48,174.23Zm-28.74-1h28.61a13.15,13.15,0,0,0,1.47-.9c5-3.56,4.75-9.15,4.41-11.38s-1.8-4.28-4.84-6.85c-1.15-1-2.56-2-4.31-3.25l-.22-.17a21.62,21.62,0,0,1-3.19-2.88,37,37,0,0,1-6-9.26h-2.34c-1.15,4.24-4.88,8.82-10.8,13.25l-.15.12c-.83.62-1.63,1.22-2.41,1.82-5.26,4.05-8,7.14-7.31,11.87C147.43,171.12,153.08,173,153.74,173.23Zm30.37-.49h0Z" fill="#231f20"/><path d="M168.1,135.52a11.54,11.54,0,0,1-.26,2.52,19.53,19.53,0,0,1-.68,2.47,31.34,31.34,0,0,1-3.56,7.14c-2.5,3.7-6.57,6.85-7.41,14.43a17.34,17.34,0,0,0,3,11.65h-3.06c-1.75-1.9-5.9-7.14-4.57-13.22,1.66-7.64,6.66-9.11,11.19-14.25a17.08,17.08,0,0,0,4.18-8.22,8.89,8.89,0,0,0,.17-1.78l.57-.42Z" fill="#68e1fd"/><path d="M159.2,174.19h-3.06a.46.46,0,0,1-.33-.15c-1.87-2-6.05-7.38-4.69-13.63,1.18-5.41,4.06-7.87,7.1-10.48a38.36,38.36,0,0,0,4.2-4,16.6,16.6,0,0,0,4.07-8,9.92,9.92,0,0,0,.17-1.68.44.44,0,0,1,.18-.38l1-.74a.47.47,0,0,1,.47,0,.45.45,0,0,1,.26.41,12.11,12.11,0,0,1-.27,2.61,21.21,21.21,0,0,1-.7,2.53A31.19,31.19,0,0,1,164,147.9c-.59.87-1.24,1.68-1.93,2.55-2.24,2.8-4.78,6-5.4,11.68a16.72,16.72,0,0,0,2.93,11.34.44.44,0,0,1,0,.47A.47.47,0,0,1,159.2,174.19Zm-2.86-.92h2A17.51,17.51,0,0,1,155.74,162c.65-6,3.28-9.26,5.59-12.15.68-.85,1.33-1.65,1.89-2.49a30,30,0,0,0,2.74-5,19,19,0,0,1-2.85,4.21,40.88,40.88,0,0,1-4.29,4.06c-3.06,2.62-5.69,4.87-6.81,10C150.77,166.29,154.52,171.26,156.34,173.27Zm11.23-36.78c0,.19,0,.48-.07.86.05-.31.09-.61.11-.89Z" fill="#231f20"/><path d="M168.42,134.76s-.08,1.29-.26,3.28c-.15,1.83-.39,4.24-.69,6.78-.64,5.31-2.21,12.36-2.12,18.56a48.33,48.33,0,0,0,1.1,10.35h-3.73c-1.72-3.75-2.41-8.32-1.76-14.47.69-6.57,3.84-9.81,5.09-13.51a31.39,31.39,0,0,0,1.11-5.24c.12-.86.22-1.71.31-2.47s.16-1.63.21-2.2l.08-1.08Z" fill="#68e1fd"/><path d="M166.45,174.19h-3.73a.48.48,0,0,1-.42-.27c-1.86-4-2.43-8.72-1.79-14.7a25.36,25.36,0,0,1,3.39-10,23.92,23.92,0,0,0,1.71-3.66,30.54,30.54,0,0,0,1.1-5.16c.12-.85.22-1.69.3-2.45s.17-1.62.21-2.19.08-1.06.08-1.07a.47.47,0,0,1,.46-.43h.66a.45.45,0,0,1,.33.15.47.47,0,0,1,.13.34s-.09,1.3-.26,3.29c-.14,1.62-.38,4.11-.7,6.8-.19,1.59-.47,3.34-.76,5.18a82.49,82.49,0,0,0-1.35,13.31,48.27,48.27,0,0,0,1.08,10.24.44.44,0,0,1-.08.4A.47.47,0,0,1,166.45,174.19Zm-3.43-.92h2.84a53.63,53.63,0,0,1-1-9.88,81.68,81.68,0,0,1,1.36-13.47c.29-1.84.56-3.57.75-5.15.08-.63.15-1.25.22-1.85a22.9,22.9,0,0,1-.75,3,25.24,25.24,0,0,1-1.77,3.79,24.74,24.74,0,0,0-3.3,9.62C160.81,165,161.32,169.44,163,173.27Z" fill="#231f20"/><path d="M180.73,173.73h-3.06a17.23,17.23,0,0,0,3-11.65c-.83-7.58-4.9-10.73-7.4-14.43a31.38,31.38,0,0,1-3.57-7.14A21.37,21.37,0,0,1,169,138a11.54,11.54,0,0,1-.26-2.52l.42.32.57.42a9.94,9.94,0,0,0,.17,1.78,17.08,17.08,0,0,0,4.18,8.22c4.53,5.14,9.53,6.61,11.2,14.25C186.63,166.59,182.49,171.83,180.73,173.73Z" fill="#68e1fd"/><path d="M180.73,174.19h-3.06a.47.47,0,0,1-.41-.25.49.49,0,0,1,0-.47,16.77,16.77,0,0,0,2.94-11.34c-.63-5.71-3.17-8.88-5.4-11.68-.7-.87-1.35-1.68-1.93-2.55a30.84,30.84,0,0,1-3.62-7.24,22.09,22.09,0,0,1-.7-2.53,12.78,12.78,0,0,1-.27-2.61.49.49,0,0,1,.26-.41.47.47,0,0,1,.47,0l1,.74a.47.47,0,0,1,.19.38,9.17,9.17,0,0,0,.16,1.68,16.69,16.69,0,0,0,4.07,8,40.26,40.26,0,0,0,4.2,4c3,2.6,5.92,5.07,7.1,10.48,1.37,6.25-2.82,11.61-4.68,13.63A.49.49,0,0,1,180.73,174.19Zm-2.21-.92h2c1.82-2,5.57-7,4.33-12.66-1.12-5.12-3.75-7.38-6.81-10a39.87,39.87,0,0,1-4.28-4.06,19,19,0,0,1-2.86-4.21,30.68,30.68,0,0,0,2.74,5c.57.84,1.21,1.64,1.89,2.49,2.31,2.89,4.94,6.17,5.6,12.15A17.57,17.57,0,0,1,178.52,173.27Zm-9.26-36.81c0,.29.06.58.11.89,0-.38-.06-.67-.07-.86Z" fill="#231f20"/><path d="M174.15,173.73h-3.72a49.18,49.18,0,0,0,1.09-10.35c.09-6.2-1.47-13.25-2.11-18.56-.31-2.54-.54-4.95-.7-6.78-.17-2-.26-3.28-.26-3.28h.66s0,.41.08,1.08.12,1.33.22,2.2.18,1.61.3,2.47a31.35,31.35,0,0,0,1.12,5.24c1.24,3.7,4.39,6.94,5.08,13.51C176.56,165.41,175.87,170,174.15,173.73Z" fill="#68e1fd"/><path d="M174.15,174.19h-3.72a.45.45,0,0,1-.36-.18.44.44,0,0,1-.08-.4,47.93,47.93,0,0,0,1.07-10.24,81.38,81.38,0,0,0-1.35-13.31c-.29-1.84-.57-3.59-.76-5.18-.32-2.7-.56-5.19-.7-6.8-.17-2-.25-3.29-.25-3.29a.42.42,0,0,1,.12-.34.48.48,0,0,1,.33-.15h.66a.47.47,0,0,1,.46.43s0,.41.07,1.07.12,1.32.22,2.19.18,1.6.3,2.45a30.54,30.54,0,0,0,1.1,5.16,24.9,24.9,0,0,0,1.71,3.66,25.36,25.36,0,0,1,3.4,10c.63,6,.06,10.65-1.81,14.7A.45.45,0,0,1,174.15,174.19Zm-3.14-.92h2.84c1.7-3.83,2.21-8.28,1.61-14a24.42,24.42,0,0,0-3.3-9.62,25.24,25.24,0,0,1-1.77-3.79,23.07,23.07,0,0,1-.74-3c.06.6.13,1.22.21,1.85.19,1.58.46,3.31.75,5.15A82.78,82.78,0,0,1,172,163.39,52.78,52.78,0,0,1,171,173.27Z" fill="#231f20"/><path d="M168.42,126.37a.5.5,0,0,1-.5-.5V113.43a.5.5,0,0,1,1,0v12.44A.5.5,0,0,1,168.42,126.37Z" fill="#231f20"/><rect x="166.28" y="134.01" width="4.33" height="5.51" fill="#fff"/><path d="M170.62,140h-4.34a.51.51,0,0,1-.5-.5V134a.5.5,0,0,1,.5-.5h4.34a.5.5,0,0,1,.5.5v5.51A.51.51,0,0,1,170.62,140Zm-3.84-1h3.34v-4.51h-3.34Z" fill="#231f20"/><polygon points="167.27 128.54 169.57 128.54 169.98 134.01 166.86 134.01 167.27 128.54" fill="#fff"/><path d="M170,134.51h-3.12a.52.52,0,0,1-.37-.16.53.53,0,0,1-.13-.38l.41-5.47a.49.49,0,0,1,.5-.46h2.3a.5.5,0,0,1,.5.46l.41,5.47a.53.53,0,0,1-.13.38A.52.52,0,0,1,170,134.51Zm-2.58-1h2l-.33-4.47h-1.38Z" fill="#231f20"/><ellipse cx="168.45" cy="127.18" rx="2.45" ry="2.22" fill="#fff"/><path d="M168.45,129.9a2.72,2.72,0,1,1,3-2.72A2.84,2.84,0,0,1,168.45,129.9Zm0-4.43a1.73,1.73,0,1,0,2,1.71A1.84,1.84,0,0,0,168.45,125.47Z" fill="#231f20"/><rect x="153.8" y="173.73" width="28.61" height="1.96" fill="#fff"/><path d="M182.41,176.19H153.8a.5.5,0,0,1-.5-.5v-2a.5.5,0,0,1,.5-.5h28.61a.5.5,0,0,1,.5.5v2A.5.5,0,0,1,182.41,176.19Zm-28.11-1h27.61v-1H154.3Z" fill="#231f20"/><rect x="154.92" y="175.69" width="26.36" height="29.66" fill="#fff"/><path d="M181.28,205.85H154.92a.5.5,0,0,1-.5-.5V175.69a.5.5,0,0,1,.5-.5h26.36a.5.5,0,0,1,.5.5v29.66A.5.5,0,0,1,181.28,205.85Zm-25.86-1h25.36V176.19H155.42Z" fill="#231f20"/><path d="M163.55,182.54h0a2.26,2.26,0,0,1,2.26,2.26v12.68a0,0,0,0,1,0,0h-4.52a0,0,0,0,1,0,0V184.8A2.26,2.26,0,0,1,163.55,182.54Z" fill="#d1d3d4"/><path d="M172.65,182.54h0a2.26,2.26,0,0,1,2.26,2.26v12.68a0,0,0,0,1,0,0h-4.52a0,0,0,0,1,0,0V184.8A2.26,2.26,0,0,1,172.65,182.54Z" fill="#d1d3d4"/><path d="M169.11,235a11.9,11.9,0,1,0-22.77,0Z" fill="#fff"/><path d="M169.11,235.52H146.34a.5.5,0,0,1-.48-.36,12.13,12.13,0,0,1-.53-3.58,12.4,12.4,0,1,1,24.26,3.58A.51.51,0,0,1,169.11,235.52Zm-22.4-1h22a11.25,11.25,0,0,0,.39-2.94,11.4,11.4,0,1,0-22.79,0A11.74,11.74,0,0,0,146.71,234.52Z" fill="#231f20"/><path d="M165,231.22c0-.13,0-.26,0-.4h0a7.26,7.26,0,0,0-14.44,0h0c0,.14,0,.27,0,.4s0,.24,0,.36h0c.06.57,2,5,2.21,5.53l9.86-1.24c.19-.53,2.29-3.72,2.36-4.29h0C165,231.46,165,231.34,165,231.22Z" fill="#231f20"/><path d="M152.72,237.61a.49.49,0,0,1-.47-.34c-.06-.16-.29-.7-.58-1.39-.94-2.21-1.46-3.47-1.61-4a.45.45,0,0,1-.1-.27c0-.09,0-.18,0-.27v-.11c0-.14,0-.26,0-.38a.4.4,0,0,1,.07-.24,7.76,7.76,0,0,1,15.39,0,.4.4,0,0,1,.06.22c0,.12,0,.23,0,.34l-.49.06.48,0v.12a2.17,2.17,0,0,1,0,.26.52.52,0,0,1-.11.32,22.28,22.28,0,0,1-1.45,2.62c-.36.6-.81,1.35-.87,1.51a.49.49,0,0,1-.4.33l-9.87,1.24ZM151,231.4a.27.27,0,0,1,0,.12c.06.37,1.09,2.8,1.59,4l.45,1.07,9.21-1.16c.15-.29.42-.75.81-1.39a20.32,20.32,0,0,0,1.38-2.5l0-.1v-.31a.45.45,0,0,1,0-.11.34.34,0,0,1,0-.12,6.76,6.76,0,0,0-13.44,0l0,.13v.11a.66.66,0,0,1,0,.14v.15Zm14,.18h0Z" fill="#231f20"/><path d="M188.88,235a11.9,11.9,0,1,0-22.77,0Z" fill="#fff"/><path d="M188.88,235.52H166.11a.51.51,0,0,1-.48-.36,12.4,12.4,0,1,1,23.73,0A.5.5,0,0,1,188.88,235.52Zm-22.39-1h22a11.4,11.4,0,1,0-22,0Z" fill="#231f20"/><path d="M170.24,231.58a7.26,7.26,0,1,1,14.52,0l-6,5.53Z" fill="#231f20"/><path d="M178.71,237.61a.53.53,0,0,1-.27-.08L170,232a.48.48,0,0,1-.22-.41,7.76,7.76,0,1,1,15.52,0,.46.46,0,0,1-.17.36l-6,5.54A.55.55,0,0,1,178.71,237.61Zm-8-6.3,7.92,5.17,5.59-5.12a6.76,6.76,0,0,0-13.51-.05Z" fill="#231f20"/><path d="M179.78,234.7a13,13,0,0,0-24.36,0,13,13,0,0,0-12.19-8.51l.45,5.08.71,7.91.33,3.77h45.74l.34-3.77.71-7.91.45-5.08A13,13,0,0,0,179.78,234.7Z" fill="#fff"/><path d="M155.16,243.49H144.72a.51.51,0,0,1-.5-.45l-1.49-16.76a.51.51,0,0,1,.5-.55,13.56,13.56,0,0,1,12.19,7.72,13.48,13.48,0,0,1,24.36,0A13.58,13.58,0,0,1,192,225.73a.51.51,0,0,1,.5.55L191,243a.5.5,0,0,1-.5.45Zm-10-1H190l1.42-15.74a12.56,12.56,0,0,0-11.17,8.13.52.52,0,0,1-.94,0,12.48,12.48,0,0,0-23.42,0,.52.52,0,0,1-.94,0,12.55,12.55,0,0,0-11.18-8.16Z" fill="#231f20"/><path d="M191.51,231.31l-.71,7.91H184A7.93,7.93,0,0,1,191.51,231.31Z" fill="#231f20"/><path d="M190.8,239.72H184a.5.5,0,0,1-.5-.5,8.44,8.44,0,0,1,7.95-8.41.56.56,0,0,1,.39.15.52.52,0,0,1,.14.39l-.71,7.92A.49.49,0,0,1,190.8,239.72Zm-6.26-1h5.8l.62-6.85A7.44,7.44,0,0,0,184.54,238.72Z" fill="#231f20"/><path d="M159.67,239.23a7.94,7.94,0,0,1,15.87,0Z" fill="#231f20"/><path d="M175.54,239.73H159.67a.5.5,0,0,1-.5-.5,8.44,8.44,0,0,1,16.87,0A.5.5,0,0,1,175.54,239.73Zm-15.35-1H175a7.44,7.44,0,0,0-14.84,0Z" fill="#231f20"/><path d="M151.16,239.22h-6.77l-.71-7.91A7.93,7.93,0,0,1,151.16,239.22Z" fill="#231f20"/><path d="M151.16,239.72h-6.77a.49.49,0,0,1-.5-.45l-.71-7.92a.52.52,0,0,1,.14-.39.56.56,0,0,1,.39-.15,8.44,8.44,0,0,1,7.95,8.41A.5.5,0,0,1,151.16,239.72Zm-6.31-1h5.8a7.45,7.45,0,0,0-6.42-6.85Z" fill="#231f20"/><path d="M181.28,178H154.92a.5.5,0,0,1,0-1h26.36a.5.5,0,0,1,0,1Z" fill="#231f20"/><rect x="153.8" y="202.82" width="28.61" height="2.54" fill="#fff"/><path d="M182.41,205.85H153.8a.5.5,0,0,1-.5-.5v-2.53a.5.5,0,0,1,.5-.5h28.61a.5.5,0,0,1,.5.5v2.53A.5.5,0,0,1,182.41,205.85Zm-28.11-1h27.61v-1.53H154.3Z" fill="#231f20"/><polygon points="195.77 246.85 139.8 246.85 144.72 242.99 190.85 242.99 195.77 246.85" fill="#fff"/><path d="M195.77,247.35h-56a.51.51,0,0,1-.47-.34.48.48,0,0,1,.16-.55l4.92-3.86a.51.51,0,0,1,.31-.11h46.13a.46.46,0,0,1,.3.11l4.93,3.86a.5.5,0,0,1,.16.55A.51.51,0,0,1,195.77,247.35Zm-54.52-1h53.07l-3.65-2.86H144.89Z" fill="#231f20"/><rect x="137.51" y="246.85" width="60.69" height="2.74" fill="#fff"/><path d="M198.2,250.09H137.51a.5.5,0,0,1-.5-.5v-2.74a.5.5,0,0,1,.5-.5H198.2a.5.5,0,0,1,.5.5v2.74A.5.5,0,0,1,198.2,250.09Zm-60.19-1H197.7v-1.74H138Z" fill="#231f20"/><rect x="138.27" y="249.59" width="59.93" height="21.96" fill="#231f20"/><path d="M198.2,272.05H138.27a.5.5,0,0,1-.5-.5v-22a.5.5,0,0,1,.5-.5H198.2a.5.5,0,0,1,.5.5v22A.5.5,0,0,1,198.2,272.05Zm-59.43-1H197.7v-21H138.77Z" fill="#231f20"/><path d="M155.77,270.29a.5.5,0,0,1-.5-.5V251.35a.5.5,0,0,1,1,0v18.44A.5.5,0,0,1,155.77,270.29Z" fill="#d1d3d4"/><path d="M179.44,270.29a.5.5,0,0,1-.5-.5V251.35a.51.51,0,0,1,.5-.5.5.5,0,0,1,.5.5v18.44A.5.5,0,0,1,179.44,270.29Z" fill="#d1d3d4"/><path d="M133.83,161.63a22.19,22.19,0,0,1-2.55,1.71H86.43s-10.31-3.17-11.7-13.89c-1.19-9.14,4.26-14.95,11.68-21.27,1.28-1.09,2.62-2.2,4-3.34,9.19-7.62,14.91-15.44,16.59-22.68,0-.11.06-.23.08-.34h4.77a64.26,64.26,0,0,0,9.43,16.24,33.76,33.76,0,0,0,4.85,4.86,4,4,0,0,0,.34.27c2.64,2.07,4.87,3.93,6.75,5.67,4.84,4.51,7.22,8.17,7.8,12.32C141.89,147.6,140.86,156.09,133.83,161.63Z" fill="#68e1fd"/><path d="M131.28,163.8H86.43l-.13,0c-.11,0-10.62-3.39-12-14.27-1.25-9.64,4.89-15.76,11.84-21.68l3.3-2.76.7-.58c9.1-7.55,14.78-15.3,16.44-22.43,0-.12,0-.22.07-.32a.46.46,0,0,1,.45-.38h4.77a.44.44,0,0,1,.42.3,64.9,64.9,0,0,0,9.36,16.11,33.41,33.41,0,0,0,4.79,4.8l.11.09.21.17c2.78,2.17,5,4,6.79,5.69,5,4.65,7.36,8.42,7.94,12.6s1,14.31-7.35,20.87h0a22.31,22.31,0,0,1-2.6,1.75A.46.46,0,0,1,131.28,163.8Zm-44.77-.92h44.65a21.74,21.74,0,0,0,2.39-1.61h0c7.95-6.26,7.55-16.09,7-20s-2.84-7.56-7.66-12.05c-1.78-1.64-4-3.48-6.73-5.64l-.23-.19-.1-.08a33.7,33.7,0,0,1-4.92-4.93,65,65,0,0,1-9.39-16.07h-4.09c-1.71,7.31-7.5,15.24-16.75,22.91l-.7.58c-1.12.94-2.22,1.85-3.29,2.76-7,6-12.71,11.66-11.52,20.86C76.46,159.27,85.66,162.6,86.51,162.88Zm47.32-1.25h0Z" fill="#231f20"/><path d="M101.31,124.84c-8.93,9.53-17.06,9.53-17.86,23.42a27.17,27.17,0,0,0,3.19,15.08h-.21s-10.31-3.17-11.7-13.89c-1.19-9.14,4.26-14.95,11.68-21.27,5.28-2.8,10.42-5.15,13.72-7.9,5.4-4.52,6.63-13,6.86-18.12,0-.11.06-.23.08-.34h1.4C108.79,108.21,108,117.74,101.31,124.84Z" fill="#fff"/><path d="M86.64,163.84h-.21l-.14,0c-.11,0-10.65-3.39-12.06-14.31-1.25-9.66,4.89-15.78,11.85-21.71l.09-.06L89.56,126c4-2,7.7-4,10.25-6.08,5.32-4.45,6.47-13,6.69-17.76a.31.31,0,0,1,0-.1c0-.11,0-.21.07-.31a.49.49,0,0,1,.49-.41h1.4a.51.51,0,0,1,.5.48c.33,6.76-.66,16.31-7.29,23.38a58.25,58.25,0,0,1-8.07,7c-5.3,4-9.13,6.87-9.66,16.15a26.86,26.86,0,0,0,3.12,14.81.48.48,0,0,1,0,.49A.48.48,0,0,1,86.64,163.84Zm0-35.24c-7,6-12.65,11.63-11.47,20.78,1.09,8.38,7.87,12,10.41,13.12A28.09,28.09,0,0,1,83,148.23c.56-9.74,4.75-12.89,10.06-16.89A57.24,57.24,0,0,0,101,124.5h0c6.24-6.65,7.3-15.64,7-22.18h-.5c-.24,4.92-1.48,13.69-7,18.34-2.63,2.2-6.42,4.15-10.44,6.21Z" fill="#231f20"/><path d="M100.92,148.06c-1.1,7.32,0,12.3,1.11,15.28H94.57a18.31,18.31,0,0,1-3-11.31c.78-9.66,5-14.29,10.57-22.09,5.22-7.35,10.1-12.94,7.08-28.12h2c.22.7.47,1.49.71,2.38,1.12,4.06,2.2,9.83,1.37,15.15C111.77,128.88,102.91,134.83,100.92,148.06Z" fill="#fff"/><path d="M102,163.84H94.57a.5.5,0,0,1-.42-.23A18.73,18.73,0,0,1,91.05,152c.69-8.62,4-13.23,8.69-19.62.63-.87,1.29-1.77,2-2.72l.92-1.29c4.77-6.63,8.88-12.37,6.08-26.44a.53.53,0,0,1,.1-.42.53.53,0,0,1,.39-.18h2a.5.5,0,0,1,.47.35c.23.7.48,1.51.72,2.39,1.1,4,2.24,9.91,1.38,15.37-.71,4.45-3,8.14-5.38,12-2.91,4.71-5.91,9.58-7,16.66-1.09,7.29,0,12.2,1.09,15a.5.5,0,0,1,0,.46A.51.51,0,0,1,102,163.84Zm-7.19-1h6.48c-1-3-1.94-7.9-.9-14.86h0c1.1-7.28,4.29-12.46,7.11-17,2.36-3.81,4.58-7.41,5.25-11.67.83-5.28-.28-11-1.35-14.94-.2-.73-.41-1.4-.6-2h-1c2.66,14.07-1.52,19.89-6.36,26.63l-.91,1.28-2,2.73C96,139.21,92.71,143.73,92,152.07A17.54,17.54,0,0,0,94.84,162.84Z" fill="#231f20"/><path d="M122.88,135.36c-.72,10.62-4.51,17-4.42,28H107.93a26.31,26.31,0,0,1,1.52-13.69c3.51-9.13,7.28-12.45,8.14-20,1.89-16.47-5.68-25.5-5.68-25.5-.39-.88-.75-1.68-1.07-2.38h1a64.26,64.26,0,0,0,9.43,16.24C122.53,122.09,123.42,127.54,122.88,135.36Z" fill="#fff"/><path d="M118.46,163.84H107.93a.5.5,0,0,1-.49-.42A26.53,26.53,0,0,1,109,149.47a76,76,0,0,1,4.1-8.77c2-3.69,3.5-6.61,4-11,1.84-16.05-5.49-25-5.57-25.13a.75.75,0,0,1-.07-.12c-.39-.87-.74-1.68-1.06-2.37a.5.5,0,0,1,.45-.71h1a.5.5,0,0,1,.46.32,64.53,64.53,0,0,0,9.35,16.1.59.59,0,0,1,.1.17,47.44,47.44,0,0,1,1.63,17.48h0a72.52,72.52,0,0,1-2.22,12.67c-1.16,4.79-2.25,9.32-2.2,15.28a.5.5,0,0,1-.14.35A.49.49,0,0,1,118.46,163.84Zm-10.1-1H118a61.25,61.25,0,0,1,2.23-15,71.7,71.7,0,0,0,2.19-12.51,46.56,46.56,0,0,0-1.56-17,53.19,53.19,0,0,1-4.28-6,41.11,41.11,0,0,1,1.55,17.5c-.53,4.63-2.19,7.77-4.11,11.41a73.9,73.9,0,0,0-4.06,8.66A25.69,25.69,0,0,0,108.36,162.84Zm14.52-27.48h0Z" fill="#231f20"/><path d="M137.3,144.75c.18,6.14-1.62,12.2-3.47,16.88a22.19,22.19,0,0,1-2.55,1.71h-6.23a51.69,51.69,0,0,0,4.15-16c1.09-12.41-.81-17.41-3.08-24.45a4,4,0,0,0,.34.27,47.63,47.63,0,0,1,4.33,3.52S137,135.56,137.3,144.75Z" fill="#fff"/><path d="M131.28,163.84h-6.23a.52.52,0,0,1-.42-.23.51.51,0,0,1,0-.48,50.85,50.85,0,0,0,4.1-15.81c1-11.67-.62-16.75-2.71-23.19l-.34-1a.5.5,0,0,1,.79-.54l.11.09.21.16,1.79,1.39a25,25,0,0,1,2.57,2.17.27.27,0,0,1,.07.08c.26.36,6.35,9.07,6.61,18.31h0c.15,5.06-1,10.8-3.51,17.07a.45.45,0,0,1-.15.21,21.23,21.23,0,0,1-2.61,1.75A.43.43,0,0,1,131.28,163.84Zm-5.46-1h5.33a19.84,19.84,0,0,0,2.26-1.52c2.39-6.1,3.53-11.66,3.39-16.55-.24-8.62-5.94-17.06-6.39-17.73A25.74,25.74,0,0,0,128,125l-.84-.64c2,6.31,3.61,11.51,2.59,23.08A52.44,52.44,0,0,1,125.82,162.84Z" fill="#231f20"/><path d="M109.4,81.35a.5.5,0,0,1-.5-.5V59.42a.5.5,0,0,1,.5-.5.5.5,0,0,1,.5.5V80.85A.5.5,0,0,1,109.4,81.35Z" fill="#231f20"/><rect x="106.08" y="94.87" width="6.74" height="9.5" fill="#fff"/><path d="M112.82,104.87h-6.74a.5.5,0,0,1-.5-.5v-9.5a.5.5,0,0,1,.5-.5h6.74a.5.5,0,0,1,.5.5v9.5A.5.5,0,0,1,112.82,104.87Zm-6.24-1h5.74v-8.5h-5.74Z" fill="#231f20"/><polygon points="107.61 85.45 111.2 85.45 111.83 94.88 106.97 94.88 107.61 85.45" fill="#231f20"/><path d="M111.84,95.37H107a.48.48,0,0,1-.36-.15.5.5,0,0,1-.14-.38l.64-9.43a.5.5,0,0,1,.5-.46h3.59a.5.5,0,0,1,.5.46l.63,9.43a.48.48,0,0,1-.49.53Zm-4.33-1h3.79L110.73,86h-2.65Z" fill="#231f20"/><circle cx="109.45" cy="83.12" r="3.82" fill="#fff"/><path d="M109.45,87.44a4.32,4.32,0,1,1,4.32-4.32A4.33,4.33,0,0,1,109.45,87.44Zm0-7.64a3.32,3.32,0,1,0,3.32,3.32A3.32,3.32,0,0,0,109.45,79.8Z" fill="#231f20"/><rect x="86.64" y="163.34" width="44.55" height="3.38" fill="#fff"/><path d="M131.18,167.22H86.64a.5.5,0,0,1-.5-.5v-3.38a.5.5,0,0,1,.5-.5h44.54a.5.5,0,0,1,.5.5v3.38A.5.5,0,0,1,131.18,167.22Zm-44-1h43.54v-2.38H87.14Z" fill="#231f20"/><rect x="89.13" y="166.72" width="39.56" height="5.28" fill="#231f20"/><path d="M128.69,172.49H89.13a.5.5,0,0,1-.5-.5v-5.27a.5.5,0,0,1,.5-.5h39.56a.5.5,0,0,1,.5.5V172A.5.5,0,0,1,128.69,172.49Zm-39.06-1h38.56v-4.27H89.63Z" fill="#231f20"/><rect x="92.12" y="177.27" width="33.59" height="50.02" fill="#68e1fd"/><path d="M125.71,227.74H92.12a.45.45,0,0,1-.46-.45v-50a.45.45,0,0,1,.46-.46h33.59a.45.45,0,0,1,.45.46v50A.45.45,0,0,1,125.71,227.74Zm-33.14-.91h32.68V177.72H92.57Z" fill="#231f20"/><polygon points="125.93 177.27 91.89 177.27 89.13 171.99 128.69 171.99 125.93 177.27" fill="#fff"/><path d="M125.93,177.77h-34a.49.49,0,0,1-.44-.27l-2.76-5.28a.48.48,0,0,1,0-.49.49.49,0,0,1,.42-.24h39.56a.49.49,0,0,1,.44.73l-2.75,5.28A.52.52,0,0,1,125.93,177.77Zm-33.74-1h33.44l2.23-4.28H90Z" fill="#231f20"/><path d="M98.73,180.83h0a1.49,1.49,0,0,1,1.49,1.49v17.36a0,0,0,0,1,0,0h-3a0,0,0,0,1,0,0V182.33A1.49,1.49,0,0,1,98.73,180.83Z" fill="#231f20"/><path d="M108.91,180.83h0a1.49,1.49,0,0,1,1.49,1.49v17.36a0,0,0,0,1,0,0h-3a0,0,0,0,1,0,0V182.33A1.49,1.49,0,0,1,108.91,180.83Z" fill="#231f20"/><path d="M119.09,180.83h0a1.49,1.49,0,0,1,1.49,1.49v17.36a0,0,0,0,1,0,0h-3a0,0,0,0,1,0,0V182.33A1.49,1.49,0,0,1,119.09,180.83Z" fill="#231f20"/><path d="M126.55,211.6a10.79,10.79,0,0,0-18.92,0,10.8,10.8,0,0,0-18.93,0,10.78,10.78,0,0,0-9.46-5.6v13.92H136V206A10.79,10.79,0,0,0,126.55,211.6Z" fill="#fff"/><path d="M136,220.43H79.24a.5.5,0,0,1-.5-.5V206a.51.51,0,0,1,.5-.5,11.32,11.32,0,0,1,9.46,5.13,11.3,11.3,0,0,1,18.93,0,11.29,11.29,0,0,1,18.92,0,11.31,11.31,0,0,1,9.46-5.12.5.5,0,0,1,.5.5v13.92A.5.5,0,0,1,136,220.43Zm-56.27-1h55.77V206.52a10.32,10.32,0,0,0-8.52,5.33.52.52,0,0,1-.44.25h0a.51.51,0,0,1-.44-.26,10.3,10.3,0,0,0-18,0,.51.51,0,0,1-.87,0,10.3,10.3,0,0,0-18,0,.52.52,0,0,1-.88,0,10.3,10.3,0,0,0-8.52-5.33Z" fill="#231f20"/><path d="M136,210.22v6.58h-6.59A6.58,6.58,0,0,1,136,210.22Z" fill="#231f20"/><path d="M136,217.3h-6.59a.5.5,0,0,1-.5-.5,7.1,7.1,0,0,1,7.09-7.08.5.5,0,0,1,.5.5v6.58A.5.5,0,0,1,136,217.3Zm-6.07-1h5.57v-5.56A6.1,6.1,0,0,0,129.94,216.3Z" fill="#231f20"/><path d="M85.83,216.8H79.24v-6.58A6.58,6.58,0,0,1,85.83,216.8Z" fill="#231f20"/><path d="M85.83,217.3H79.24a.5.5,0,0,1-.5-.5v-6.58a.51.51,0,0,1,.5-.5,7.1,7.1,0,0,1,7.09,7.08A.5.5,0,0,1,85.83,217.3Zm-6.09-1h5.57a6.1,6.1,0,0,0-5.57-5.56Z" fill="#231f20"/><path d="M91.57,216.81a6.59,6.59,0,1,1,13.18,0Z" fill="#231f20"/><path d="M104.75,217.31H91.57a.51.51,0,0,1-.5-.5,7.09,7.09,0,1,1,14.18,0A.5.5,0,0,1,104.75,217.31Zm-12.65-1h12.13a6.09,6.09,0,0,0-12.13,0Z" fill="#231f20"/><path d="M110.5,216.81a6.59,6.59,0,1,1,13.18,0Z" fill="#231f20"/><path d="M123.68,217.31H110.5a.5.5,0,0,1-.5-.5,7.09,7.09,0,1,1,14.18,0A.5.5,0,0,1,123.68,217.31Zm-12.66-1h12.14a6.09,6.09,0,0,0-12.14,0Z" fill="#231f20"/><polygon points="80.36 219.93 136.54 219.93 141.03 225.58 75.87 225.58 80.36 219.93" fill="#231f20"/><path d="M141,226.08H75.87a.5.5,0,0,1-.45-.28.49.49,0,0,1,.06-.53L80,219.62a.51.51,0,0,1,.39-.19h56.18a.49.49,0,0,1,.39.19l4.49,5.65a.5.5,0,0,1-.39.81Zm-64.13-1H140l-3.7-4.65H80.6Z" fill="#231f20"/><rect x="75.87" y="225.58" width="65.17" height="45.97" fill="#68e1fd"/><path d="M141,272H75.87a.46.46,0,0,1-.46-.46v-46a.47.47,0,0,1,.46-.46H141a.46.46,0,0,1,.46.46v46A.45.45,0,0,1,141,272Zm-64.7-.91h64.25V226H76.33Z" fill="#231f20"/><path d="M139.27,235.77H76.87a.5.5,0,0,1-.5-.5.5.5,0,0,1,.5-.5h62.4a.5.5,0,0,1,.5.5A.5.5,0,0,1,139.27,235.77Z" fill="#fff"/></g></svg>