<svg id="_390_mountain_flatline" data-name="#390_mountain_flatline" xmlns="http://www.w3.org/2000/svg" viewBox="0 0 400 300"><rect x="39.44" y="45.82" width="320.64" height="203.88" fill="#68e1fd"/><path d="M360.08,250.21H39.44a.5.5,0,0,1-.5-.5V45.82a.5.5,0,0,1,.5-.5H360.08a.51.51,0,0,1,.5.5V249.71A.51.51,0,0,1,360.08,250.21Zm-320.14-1H359.58V46.32H39.94Z" fill="#231f20"/><path d="M53.06,114.67c4.52,1.94,8,6.93,12.92,6.51,4.19-.35,7.13-4.67,11.27-5.39,7.81-1.37,12.9,10.15,20.81,9.89,1.65-.05,3.45-.62,4.87.22,1.09.65,1.63,1.95,2.65,2.69,2.26,1.67,5.34-.06,7.9-1.22a18.57,18.57,0,0,1,13.65-.58c4.79,1.73,4.73,5.2,7.5,9,7.06,9.74,22.94,12.37,34.1,13.49,8.27.83,16.58,1.66,24.89,1.36,10.37-.38,20.59-2.52,30.74-4.65,12.07-2.53,24-5.78,36.06-8.22,4.94-1,6.87-4.16,11.49-5.85a23.62,23.62,0,0,1,15.93-.15,11.27,11.27,0,0,1,12.71-4.24c2.45.86,4.54,2.56,7,3.38s5.75.34,6.8-2c.58-1.3.32-2.81.54-4.22.45-2.9,3-5.16,5.82-6a16.67,16.67,0,0,1,8.72.26,12.33,12.33,0,0,1,8.68-11.81c1.64-.47,3.48-.63,4.74-1.78,2-1.77,1.55-5.06.13-7.3s-3.59-3.92-5-6.14-2-5.45-.14-7.33c-3.17,3.19-14.65-1.37-18.64-1.8-14.61-1.59-29.74-.49-44.46-1.52,10.71-4.56,22.59-5.3,34-7.52a3.07,3.07,0,0,0,1.51-.58c.72-.63.73-1.71.83-2.66a9.29,9.29,0,0,1,15.69-5.69c-.21-5.54,5.45-10.52,10.94-9.63,1.08.18,6.72-6.21,8.39-7.14a15.63,15.63,0,0,1,14-.35V184.09c-25.06,2.22-50.23,3.15-75.33,4.86-65.5,4.47-131.69,5.47-196.42-5.34-3.19,5-10,6.11-15.9,6.74-11.29,1.2-23.14,1.58-32.93-4.11V140q0-5.62,0-11.25c0-2.59-1-6.55-.18-9,1.74-5,9.18-7,13.63-5.18Z" fill="#fff"/><path d="M360.64,163.57l-.56,90.61H39.44V166.71s6-1.12,7.49-3.14,6,3.9,10.14,4.63c1.92.34,4.66-.85,7.23-2.13h0c2.93-1.46,5.63-3,6.63-2.49,1.88,1,4.13-7.74,4.88-8.87s4.51,1.88,4.51,1.88,6.75-4.13,9.38-6.58,4.51-8.81,4.88-11.07,15-3.37,16.14-3.75,4.13-4.88,4.13-4.88a26.65,26.65,0,0,0,6.39-.75c2.25-.75,5.25-9.39,5.63-12.56s3-.58,4.5-1.71,6-13.89,7.13-17.27,13.52-5.63,19.15-5.63,10.89-7.51,12.76-8.63,2.63.37,6,3.75a7.37,7.37,0,0,0,3.46,1.92,11,11,0,0,0,5.18,0c.37-2.25,7.88-4.51,10.13-4.88a10.73,10.73,0,0,0,2.52-1l.08,0c1.12-.56,2.37-1.25,3.52-1.9,1.69-1,3.16-1.82,3.64-2h.09c1.34.09,7.81,10.16,8.17,11.27s3.76,1.88,7.51,3,6.76,6.76,8.63,10.14,5.64,4.13,9,4.88,6,11.64,7.89,10.89,8.26,4.13,9.38,6.38c.71,1.41,4.39,2.24,7.77,3a26.9,26.9,0,0,1,5,1.48c3,1.51,11.26,27,11.26,27a.93.93,0,0,1,.05-.1c.32-.63,2-4.06,3.43-6.76l.23-.43c.66-1.28,1.22-2.33,1.5-2.76l.05-.09c.75-1.13,12,.75,13.13,2.43s11.27,11.83,11.27,11.83,6-7.88,7.13-9.76,16.52-1.87,18.4,0,7.88,6.39,7.88,6.39h0a14.27,14.27,0,0,1,3.43-1h0s0,0,0,0c1.52-.24,3.15-.14,4,1.06,1.87,2.62,2.63,7.5,3.38,9.38s2.62-4.27,2.62-4.27Z" fill="#fff"/><path d="M360.08,254.68H39.44a.5.5,0,0,1-.5-.5V166.71a.49.49,0,0,1,.41-.49c1.61-.3,6-1.42,7.18-2.95s3-.1,5.22,1.5c1.7,1.23,3.62,2.62,5.41,2.94s4.49-.88,6.92-2.09l1.29-.65c3-1.54,4.79-2.38,5.82-1.84a.16.16,0,0,0,.15,0c1-.39,2.35-4.18,3.08-6.22a16.15,16.15,0,0,1,1-2.49,1.07,1.07,0,0,1,.74-.45c1.21-.19,3.36,1.35,4.22,2a77.49,77.49,0,0,0,9-6.34c2.49-2.31,4.36-8.57,4.73-10.78.29-1.73,5-2.65,13.67-3.74,1.32-.17,2.57-.33,2.8-.4.6-.21,2.48-2.59,3.87-4.69a.51.51,0,0,1,.42-.22,26.49,26.49,0,0,0,6.23-.72c1.91-.64,4.91-8.93,5.29-12.15a2.41,2.41,0,0,1,.82-1.76,2.65,2.65,0,0,1,2.16-.2,2.25,2.25,0,0,0,1.72-.09c1.16-.87,5.09-11.38,7-17,1.3-3.88,14.51-6,19.62-6,3.9,0,7.69-3.88,10.2-6.44a15.26,15.26,0,0,1,2.3-2.12c1.87-1.12,2.91,0,5,2.14.47.49,1,1.06,1.63,1.69A7,7,0,0,0,180,88.94a10.69,10.69,0,0,0,4.66,0c1.07-2.72,9.31-4.77,10.45-4.95a10.9,10.9,0,0,0,2.38-.93l.12,0c1.17-.59,2.53-1.35,3.45-1.87l.78-.44a25.85,25.85,0,0,1,2.95-1.57.45.45,0,0,1,.16,0,.25.25,0,0,1,.12,0c1.88.13,8.4,10.94,8.62,11.62s2.89,1.44,5.24,2.11l1.93.56c3.83,1.15,6.79,6.51,8.75,10.06l.18.32c1.72,3.09,5.11,3.84,8.4,4.57l.28.06c2.05.46,3.69,3.87,5.14,6.88.69,1.44,2,4.13,2.45,4,2.3-.92,8.9,4.37,10,6.62.59,1.17,4.3,2,7.28,2.72l.15,0a27.8,27.8,0,0,1,5.11,1.52c2.83,1.42,9.36,20.77,11.14,26.18.68-1.36,1.9-3.77,2.94-5.78l.08-.16.14-.26c.79-1.52,1.27-2.41,1.53-2.81a.41.41,0,0,1,.06-.11c.26-.38.88-.55,2.09-.55h0c3.26,0,10.78,1.38,11.86,3,.83,1.25,7.21,7.75,10.8,11.35,1.29-1.7,5.8-7.68,6.75-9.26.25-.4.92-1,3.95-1.35,4.89-.6,13.63-.33,15.23,1.26s6.47,5.31,7.6,6.16a15,15,0,0,1,3.31-1,.44.44,0,0,1,.19,0q3.1-.44,4.35,1.29c1.33,1.87,2.09,4.73,2.71,7,.25,1,.47,1.79.69,2.36a17.31,17.31,0,0,0,1.71-4.14.5.5,0,0,1,.48-.35h4.37a.51.51,0,0,1,.5.5l-.56,90.61A.5.5,0,0,1,360.08,254.68Zm-320.14-1H359.58l.56-89.61h-3.5c-.95,3-1.83,4.59-2.61,4.63-.21,0-.6-.07-.84-.67a26.66,26.66,0,0,1-.77-2.57c-.59-2.22-1.33-5-2.56-6.71-.6-.84-1.79-1.13-3.52-.86h-.11a13.47,13.47,0,0,0-3.22,1l-.1,0a.49.49,0,0,1-.45-.08c-.25-.19-6.06-4.55-7.93-6.44-1.11-1.09-9-1.63-14.41-1-2.86.35-3.2.86-3.21.88-1.13,1.88-6.92,9.48-7.16,9.8a.49.49,0,0,1-.37.2.46.46,0,0,1-.38-.15c-.42-.41-10.19-10.2-11.33-11.9-.34-.51-2.56-1.36-6.14-2s-5.85-.63-6.2-.38c-.25.41-.73,1.3-1.49,2.76a2.7,2.7,0,0,1-.15.29l-.08.15c-1.07,2.06-2.33,4.57-3,5.9l-.42.85a.54.54,0,0,1-.49.35h0a.5.5,0,0,1-.49-.33c-3.17-9.79-9-25.71-11-26.74a27,27,0,0,0-4.9-1.44l-.15,0c-3.67-.85-7.14-1.65-8-3.25-1.05-2.11-7.26-6.74-8.74-6.14-1.32.52-2.33-1.59-3.73-4.52-1.28-2.67-2.88-6-4.46-6.34l-.28-.06c-3.34-.74-7.12-1.58-9.06-5.07l-.18-.32c-1.76-3.2-4.72-8.55-8.15-9.58l-1.93-.56c-3.62-1-5.53-1.63-5.91-2.76-.43-1.3-6.44-10.33-7.71-10.92-.43.18-1.53.81-2.69,1.47l-.78.44c-.93.53-2.31,1.3-3.55,1.92l-.12,0a10.77,10.77,0,0,1-2.62,1c-2.66.44-9.42,2.7-9.72,4.47a.5.5,0,0,1-.35.4,11.43,11.43,0,0,1-5.44,0,7.69,7.69,0,0,1-3.69-2.05c-.64-.63-1.18-1.2-1.66-1.7-2.11-2.21-2.6-2.66-3.74-2a15.61,15.61,0,0,0-2.1,1.95c-2.63,2.69-6.6,6.75-10.92,6.75-6.37,0-17.73,2.47-18.68,5.29-.05.16-5.39,16.08-7.3,17.51a3,3,0,0,1-2.49.27,2.1,2.1,0,0,0-1.4,0,1.57,1.57,0,0,0-.41,1.08c-.34,2.77-3.28,12.08-6,13a25.43,25.43,0,0,1-6.28.78c-.75,1.11-3.1,4.47-4.24,4.85a25.5,25.5,0,0,1-3,.45c-8.35,1.05-12.66,2-12.81,2.91-.33,2-2.21,8.73-5,11.36-2.64,2.45-9.18,6.47-9.46,6.64a.5.5,0,0,1-.57,0c-1.13-.9-3-2.13-3.72-2a11.79,11.79,0,0,0-1,2.29c-1.23,3.42-2.35,6.3-3.66,6.81a1.14,1.14,0,0,1-1-.05c-.62-.32-3,.89-4.91,1.86l-1.27.64c-2.73,1.35-5.51,2.55-7.57,2.18s-4-1.82-5.81-3.11-3.32-2.4-3.84-1.71c-1.38,1.85-6,2.95-7.39,3.25Z" fill="#231f20"/><path d="M276.87,172.72c-4.69-4.13-1.69-3-2.81-8.07a130.49,130.49,0,0,1-2.63-16.14c-.56-5.82-4.5-5.82-6.57-11.45a24.79,24.79,0,0,1-1.43-7.87c-3.38-.78-7.06-1.61-7.77-3-1.12-2.25-7.5-7.13-9.38-6.38s-4.51-10.14-7.89-10.89-7.13-1.5-9-4.88-4.88-9-8.63-10.14-7.13-1.87-7.51-3-6.83-11.18-8.17-11.27H205a4.36,4.36,0,0,0-3.64,2s1.39,11.16,1.58,14.16,3.75,7.7,4.41,9.39,1,9.57.84,10.13-1.12.19-2.25-.94-2.25-5.81-3.94-10.51-4.16-20.33-4.16-20.33l-.08,0-2.52,1s.94,21.4,2.82,25.53,6.19,14.08,6.57,16.33c.32,2,1.59,8.78,2.64,12.62a31.2,31.2,0,0,0-1.7-4s-5.07,17.65-6.76,23.09-.38,8.63,1,14.27-.41,17.64-.41,17.64l-1.5-.75c-1.5-.75-4.32-.94-7.32-4.13s-3.19-5.63-5.63-8.07-4.88-10.89-6-13.47c-.79-1.82-3.53-6.57-5.09-9.24.06-1.76,0-5.19-1.1-7.51-1.55-3.24-4.23-8-4.23-10.42,0-1,.18-2.12.24-3.57,5.17-3.72,5.79-11.72,7.83-15.58,2.16-4.08,1.51-4.64,2.07-8s4.22-4.51,5.77-9.15.71-10.7.71-10.7l-5.18,0h0a11.43,11.43,0,0,1,0,7c-1.27,3.52-1,8-3.1,7.74s-7-8-7.31-8.43l6.18,13.64s-1.12,2.39-1.83,8.59c-.48,4.23-3.48,10.1-5.09,13.26a28.51,28.51,0,0,0-1.1-6.93c-1.83-6.75-3.94-7.6-5.77-10s-.85-4.09-2.67-6.06A7.35,7.35,0,0,0,155.1,106s2.82,7.46,5.07,11.83,3.24,10,3.09,10.41c0,0,1.69,1.27,2.54,6.76s7.94,20.49,7.94,20.49c1,3,2.66,7.68,4.18,12,.68,1.91,1.34,3.74,1.91,5.28,2.63,7.13,11.26,15.77,10.51,19.15s1.13,6.75,4.42,9,.84,7.88.09,12.39,3.75,9,4.91,12-2.66,26.28-2.66,26.28l39.42-5.45s-4.32-6.38-5.27-8.38-3.37-4.38-7.68-6.07-1.32-3.75-4.13-6.76-2.26-6.38-1.32-10.13.75-6.2-1.31-9.39,0-12.11,0-12.11l-.1-.1a15.67,15.67,0,0,0,2.91-3.74c3.14-5.49,6.57-19.9,7.32-23.65s1.88-7.51,2.44-9.58-3-.18-2.81-2.81,2.25-10.51,2.25-10.51a28.74,28.74,0,0,0,3.76,4.5c1.87,1.69,2.81,3.75,7.32,9.76s12,5.26,15.95,7.89,7.32,6,11.08,8.25,13.51,3.95,13.51,4.51S281.57,176.85,276.87,172.72ZM214.57,191c-2.62-2.71-6.77-7.06-7.9-8.7-1.69-2.44-1.88-9.76-1.31-14.26s1.88-20.65,2.63-23.84a8.45,8.45,0,0,0-.28-3.73c1.11,3.2,6.66,4.48,8.82,8.23s2.72,23.47,2.91,27C219.58,178.39,216.26,186.87,214.57,191Z" fill="#231f20" stroke="#231f20" stroke-linecap="round" stroke-linejoin="round"/><path d="M291.14,169c.75-2.82.75-7.89-.56-9s-4.7-.18-5.07-2.25-.56-10.14-.56-10.14-4.13,7.52-5.26,10.14c0,0,3.57,9,5.44,12.57s6.39,14.83,6.76,14.27,4.13-1.32,3.57-2.82S290.39,171.78,291.14,169Z" fill="#231f20"/><path d="M291.86,185.07h-.05c-.52,0-.74-.31-3.93-7.58-1.19-2.71-2.42-5.51-3.19-7-1.87-3.55-5.32-12.25-5.47-12.61a.58.58,0,0,1,0-.39c1.12-2.61,5.11-9.87,5.28-10.18a.5.5,0,0,1,.55-.25.52.52,0,0,1,.39.48c0,.08.19,8.05.55,10.06.15.81,1,1,2.35,1.16a4.79,4.79,0,0,1,2.55.8c1.65,1.41,1.4,7,.72,9.52-.55,2.05,2.2,7.9,3.51,10.7.39.83.67,1.43.79,1.76.55,1.46-1.38,2.28-2.66,2.82a5.16,5.16,0,0,0-1,.47A.53.53,0,0,1,291.86,185.07Zm0-.5h0Zm-11.63-26.85c.53,1.33,3.65,9.11,5.35,12.33.78,1.49,2,4.31,3.21,7s2.56,5.82,3.14,6.81a10.22,10.22,0,0,1,.94-.43c.87-.37,2.33-1,2.12-1.55-.11-.29-.4-.91-.76-1.68-2-4.35-4.17-9.17-3.57-11.39.74-2.78.67-7.58-.41-8.5a4.14,4.14,0,0,0-2-.57c-1.3-.17-2.92-.38-3.2-2s-.44-5.84-.52-8.36C283.26,151.72,281.08,155.81,280.23,157.72Z" fill="#231f20"/><path d="M349.23,169.76c-.28-3.09-3-12.37-3-12.37l-3.5,1.07s3.94,8.77,2.67,11.45a24.26,24.26,0,0,0-1.83,12.67c.71,4.92-1.26,10-1.54,12a79.62,79.62,0,0,0,0,8.45s4.08-7.6,4.5-12.53-.42-11,1.27-13.94S349.52,172.86,349.23,169.76Z" fill="#231f20"/><path d="M342.05,203.49h-.11a.5.5,0,0,1-.39-.47,82.55,82.55,0,0,1,0-8.54,20,20,0,0,1,.48-2.09c.63-2.45,1.58-6.15,1.07-9.73a24.79,24.79,0,0,1,1.87-13c1-2-1.61-8.65-2.68-11a.49.49,0,0,1,0-.41.52.52,0,0,1,.31-.27l3.5-1.06a.53.53,0,0,1,.39,0,.59.59,0,0,1,.24.3c.11.38,2.71,9.36,3,12.47h0c.29,3.19.29,4-1.47,7.05-1.06,1.86-1.06,5.11-1.06,8.54,0,1.74,0,3.53-.14,5.19-.43,5-4.4,12.41-4.56,12.72A.5.5,0,0,1,342.05,203.49Zm1.39-44.72c.89,2.06,3.63,8.84,2.45,11.35a23.64,23.64,0,0,0-1.79,12.39c.54,3.78-.44,7.6-1.09,10.12-.21.81-.39,1.51-.46,2a54.81,54.81,0,0,0-.06,6.41c1.21-2.52,3.28-7.24,3.57-10.6.14-1.62.14-3.39.14-5.11,0-3.57,0-6.95,1.19-9,1.62-2.83,1.62-3.42,1.35-6.46h0c-.24-2.61-2.27-9.85-2.82-11.79Z" fill="#231f20"/><path d="M310.38,196.94c-.56-.85,2.25,9.57,5.07,16s3.94,19.71,3.94,19.71,15.2.85,14.08,0,.56-16.89.84-20.27,9.58-2.81,9.58-2.81-13-2.26-20-3.38S310.94,197.78,310.38,196.94Z" fill="#231f20"/><path d="M329.84,233.58c-2.14,0-5.43-.11-10.48-.39a.49.49,0,0,1-.47-.45c0-.14-1.15-13.23-3.9-19.56a101.67,101.67,0,0,1-3.69-10.37c-1.82-6-1.58-6.16-1.22-6.36a.6.6,0,0,1,.72.21c.05.08,5.92,7.91,13.17,9.07,7,1.12,19.87,3.36,20,3.38a.51.51,0,0,1,.41.55.47.47,0,0,1-.53.44c-2.28-.14-8.84,0-9,2.36,0,.48-.11,1.21-.19,2.12-.38,4.11-1.54,16.61-.81,17.76a.54.54,0,0,1,.18.63C333.9,233.23,333.77,233.58,329.84,233.58Zm-10-1.36c5.4.29,11.28.46,13,.27-.43-1.46-.33-5.76.8-18,.09-.9.15-1.63.19-2.11.17-2,2.67-2.79,5.15-3.12-4.42-.76-10.89-1.86-15.14-2.54-5.47-.87-10.35-5.42-12.62-8a108.38,108.38,0,0,0,4.71,14C318.47,218.68,319.63,229.84,319.85,232.22Z" fill="#231f20"/><path d="M64.3,166.07a81.78,81.78,0,0,1-1.41,11c-1.13,5.42,6.47,18.79,6.47,18.6s-.28-13-1.4-18.6,3-13.45,3-13.45Z" fill="#231f20"/><path d="M69.36,196.12a.5.5,0,0,1-.31-.1c-.46-.36-7.77-13.72-6.65-19.11A82.6,82.6,0,0,0,63.8,166a.5.5,0,0,1,.32-.44l6.66-2.5a.49.49,0,0,1,.55.14.48.48,0,0,1,.07.56c0,.08-4,7.8-3,13.12,1.13,5.57,1.4,18.16,1.41,18.69a.49.49,0,0,1-.28.46A.42.42,0,0,1,69.36,196.12Zm-4.58-29.7a84.11,84.11,0,0,1-1.4,10.7c-.84,4,3.44,12.84,5.43,16.53-.13-3.85-.49-12.35-1.34-16.54-.91-4.45,1.39-10.22,2.5-12.63Z" fill="#231f20"/><path d="M129.9,150s7.88,10.9,9.85,16.07,0,14.12,0,14.12l3.66-10.85s-1.68-6.19-2.78-10.7S129.9,150,129.9,150Z" fill="#231f20"/><path d="M139.75,180.69a.32.32,0,0,1-.13,0,.5.5,0,0,1-.35-.59c0-.08,1.91-8.86,0-13.83s-9.72-15.85-9.79-16a.48.48,0,0,1,0-.6.5.5,0,0,1,.59-.15c.4.17,9.87,4.29,11,9,1.08,4.44,2.76,10.62,2.78,10.68a.57.57,0,0,1,0,.29l-3.66,10.85A.5.5,0,0,1,139.75,180.69Zm-8.33-29.41c2.26,3.22,7.26,10.56,8.8,14.61,1,2.61,1,6.11.8,9l1.87-5.56c-.26-1-1.75-6.49-2.75-10.57C139.39,155.67,134.19,152.67,131.42,151.28Z" fill="#231f20"/><path d="M360.64,254.68H39.44a.5.5,0,0,1-.5-.5V45.82a.5.5,0,0,1,.5-.5h321.2a.5.5,0,0,1,.5.5V254.18A.5.5,0,0,1,360.64,254.68Zm-320.7-1h320.2V46.32H39.94Z" fill="#231f20"/><path d="M112.16,213.77l-.15,0a.5.5,0,0,1-.33-.62c0-.15,4.51-14.67,5.34-19.92.86-5.43.54-19,0-26.27-.35-4.67-1.27-5-2.94-5.55a9.24,9.24,0,0,1-3.36-1.79c-2.63-2.23-2.55-6.42-2.49-10.13A20.62,20.62,0,0,0,108,145c-.11-.51-.35-.64-.52-.7-1.38-.44-4.92,2-6.83,3.69a.51.51,0,0,1-.49.09.48.48,0,0,1-.32-.38c-.81-4.09-5.52-8.31-5.57-8.36a.5.5,0,1,1,.66-.74c.19.17,4.45,4,5.69,8.11,1.51-1.23,5.2-4,7.16-3.36a1.79,1.79,0,0,1,1.2,1.42,21.83,21.83,0,0,1,.23,4.75c-.06,3.48-.13,7.43,2.14,9.34a8.3,8.3,0,0,0,3,1.62c2.06.69,3.24,1.34,3.62,6.42.55,7.34.86,21,0,26.49-.84,5.33-5.19,19.46-5.37,20.06A.5.5,0,0,1,112.16,213.77Z" fill="#231f20"/><path d="M145.1,223.62h0a.5.5,0,0,1-.5-.5c0-1.62.13-9.71,2.64-10.34,2.17-.54,5.28-3.1,7.54-5,2.43-2,4.48-8.68,6.17-14.95a23,23,0,0,1,3.56-7.34c1.42-2.11,2.35-3.5,1.79-5.81-1.13-4.62-.56-12.44.22-13.88a.51.51,0,0,1,.68-.2.5.5,0,0,1,.2.68c-.61,1.12-1.22,8.68-.13,13.17.67,2.73-.48,4.44-1.93,6.59a21.91,21.91,0,0,0-3.42,7.05c-1.82,6.75-3.86,13.29-6.5,15.46-2.34,1.93-5.55,4.57-7.94,5.17-1.16.29-1.87,5.09-1.88,9.37A.5.5,0,0,1,145.1,223.62Z" fill="#231f20"/><path d="M142.41,166.08a.49.49,0,0,1-.46-.71c1.89-4.07,6.54-13.46,9-12.54s4.31,9,4.68,10.63a.5.5,0,1,1-1,.22c-.79-3.55-2.59-9.37-4.05-9.92-1-.34-4.56,5.26-7.7,12A.48.48,0,0,1,142.41,166.08Z" fill="#231f20"/><path d="M153.55,145.63a.51.51,0,0,1-.5-.45c0-.11-1.13-11.21-2.21-13.64a12.7,12.7,0,0,1-.58-4.47c-.06-2.33-.12-4.75-1.33-5.78s-5.08,2.45-7.42,4.5c-2,1.8-3.07,2.66-3.73,2.66a.5.5,0,0,1,0-1,16.62,16.62,0,0,0,3.08-2.41c3.24-2.84,6.91-6.06,8.73-4.51,1.55,1.32,1.62,4,1.68,6.52a12.17,12.17,0,0,0,.5,4.08c1.14,2.58,2.24,13.49,2.29,14a.49.49,0,0,1-.45.54Z" fill="#231f20"/><path d="M143.42,124.79a.53.53,0,0,1-.3-.09.51.51,0,0,1-.11-.7c.06-.08,5.91-8.18,7.85-11.77,1.67-3.1,3.26-5.63,3.7-6.32-.22-.84-1-3.93-1.5-6.59-.29-1.61-1.65-2.65-2.85-3.58-1-.74-1.79-1.38-2-2.24a.5.5,0,0,1,.4-.58.52.52,0,0,1,.59.4c.08.48.81,1,1.58,1.63,1.27,1,2.85,2.2,3.21,4.2.56,3,1.53,6.67,1.54,6.71a.47.47,0,0,1-.06.4s-1.84,2.85-3.78,6.45-7.68,11.54-7.92,11.88A.51.51,0,0,1,143.42,124.79Z" fill="#231f20"/><path d="M310.38,197.44a.5.5,0,0,1-.26-.08,160.3,160.3,0,0,0-14.81-7.85c-7-3.1-14.89-11-15.23-11.37a.5.5,0,0,1,0-.71.49.49,0,0,1,.7,0c.09.08,8.11,8.13,14.93,11.15a158.21,158.21,0,0,1,14.92,7.92.5.5,0,0,1,.17.69A.52.52,0,0,1,310.38,197.44Z" fill="#231f20"/><path d="M270.4,245.58a.5.5,0,0,1-.5-.47c0-.23-1.43-23.33-3.9-28.53-.42-.89-.84-1.75-1.26-2.6-2.11-4.25-4.09-8.26-3.85-12.85.27-5.16-2.74-11.52-2.77-11.58a.5.5,0,0,1,.24-.67.5.5,0,0,1,.66.24c.13.27,3.15,6.65,2.87,12.06-.23,4.33,1.61,8,3.74,12.36.42.85.86,1.72,1.28,2.61,2.54,5.37,3.93,27.94,4,28.9a.51.51,0,0,1-.47.53Z" fill="#231f20"/><path d="M318.83,191.49a.52.52,0,0,1-.45-.26c0-.09-4.83-9.07-8.45-16.31-3.72-7.46-1.14-13.07-1-13.3a.5.5,0,0,1,.9.42c0,.06-2.47,5.43,1,12.43,3.61,7.23,8.39,16.2,8.44,16.28a.51.51,0,0,1-.21.68A.46.46,0,0,1,318.83,191.49Z" fill="#231f20"/><path d="M359.37,193.21a.43.43,0,0,1-.19,0c-.07,0-6.28-2.72-5.09-8.7a.51.51,0,0,1,1,.2c-1,5.17,4.26,7.49,4.49,7.58a.5.5,0,0,1,.26.66A.49.49,0,0,1,359.37,193.21Z" fill="#231f20"/><path d="M71,204.76a.39.39,0,0,1-.18,0,.5.5,0,0,1-.29-.64c2-5.23-1.41-8-1.44-8.07a.5.5,0,0,1,.62-.78s4,3.3,1.76,9.2A.52.52,0,0,1,71,204.76Z" fill="#231f20"/><path d="M39.44,218.9c0-.85,3.74-12.67,3.74-12.67L46,218.9l2.53-9.58,2,12.67,2.25-12.1,3.1,17.17L62,209.61l2.82,17.45,3.94-17.17L70.49,224l2-12.11L78.37,229l1.41-9.57,1.41,5.63,1.69-3.1,1.41,7,5.63-13.51,4.22,16.89,2.25-6.76,2,6.76,3.94-16.61,4.5,14.92s2.25-10.42,2.25-9.57l1.69,9.85L115,216.08l4.22,19.15V222l4.51,13.24,3.66-9.58,2.25,9.58,4.5-11.55,3.66,13.8,2-8.45,2.54,4.51,3.1-5.63,4.22,10.7v-9.86l3.94,11.83,3.66-11,4.79,11,1.69-5.92,2,5.92,6.76-15.49L175,240.58s1.41-8.17,1.41-7v11.82l3.47-5.82v9l5.82-17.64,1.5,4.69,1.31-4.69,1.69,6.76,1.51-5.82,2.06,16.7,3.94-7.5L200,243.3l1.79-9.2,3.76,7.88,1.87-5.81,5.07,9.94,1.5-9.57,2.25,6.57,3.48-6.47,2.81,7,2.54-5.63,2.53,5.35,8.17-12.67,1.69,11,2.81-5.06,2.82,4.78,8.73-11.82V240l3.94-4.5,2,3.94,6.19-12.06,5.92,9.81,4.5-6.76,1.69,5.35,2.53-3.38,1.41,3.94L285,224.81l3.38,11.83,2-4.79,2.25,5.35,5.07-12.95,3.94,9.29,2.25-6.15,2.82,3.33,4.79-8.44,3.09,5.11,2.26-4.55,1,3.1,2.68-8.59,3.52,8.3,2.39-3.66,2.11,3.66,2.68-3.66,2.95,7,1.69-7.32,2.53,8.73,5.21-12.25,3.1,9.2,1.69-7.37,2.39,5.35,1.83-5.35,2.12,8L357,222.7l1.12,6.05,2-3.8v29.23H39.44Z" fill="#d1d3d4"/><path d="M360.08,254.68H39.44a.5.5,0,0,1-.5-.5V218.9c0-.88,3.13-10.84,3.76-12.82a.5.5,0,0,1,.5-.35.5.5,0,0,1,.47.39L46,216.78l2-7.58a.47.47,0,0,1,.51-.37.48.48,0,0,1,.46.42L50.54,219l1.72-9.23a.5.5,0,0,1,.49-.4h0a.5.5,0,0,1,.5.41L56,225.12l5.56-15.68a.5.5,0,0,1,1,.09L65,224.45l3.36-14.68a.5.5,0,0,1,1,.06l1.27,10.56,1.4-8.61a.49.49,0,0,1,1-.08l5.25,15.23,1.11-7.54a.49.49,0,0,1,.47-.43.5.5,0,0,1,.51.38l1.1,4.39,1.07-2a.5.5,0,0,1,.52-.25.5.5,0,0,1,.41.4l1.09,5.43,5-12A.49.49,0,0,1,90,215a.5.5,0,0,1,.44.38l3.81,15.22,1.71-5.12a.5.5,0,0,1,.47-.35h0a.53.53,0,0,1,.48.36l1.44,5,3.5-14.78a.5.5,0,0,1,.47-.38.55.55,0,0,1,.5.36l3.94,13.07c1.77-8.18,1.81-8.19,2.38-8.13a.56.56,0,0,1,.45.55l1.31,7.6L114.5,216a.5.5,0,0,1,.49-.37.51.51,0,0,1,.48.39l3.23,14.67V222a.5.5,0,0,1,.42-.49.48.48,0,0,1,.55.33l4.06,11.93,3.17-8.28a.48.48,0,0,1,.5-.32.49.49,0,0,1,.45.38l1.89,8,3.92-10.05a.5.5,0,0,1,.49-.32.52.52,0,0,1,.46.38l3.14,11.85,1.52-6.49a.49.49,0,0,1,.41-.38.51.51,0,0,1,.51.25l2.09,3.72,2.67-4.84a.51.51,0,0,1,.47-.26.49.49,0,0,1,.43.31l3.26,8.26v-7.23a.5.5,0,0,1,.42-.49.48.48,0,0,1,.55.33L153.55,239l3.19-9.56a.48.48,0,0,1,.45-.34.46.46,0,0,1,.48.3l4.23,9.7,1.31-4.57a.51.51,0,0,1,.47-.37.55.55,0,0,1,.48.35l1.56,4.67L172,224.89a.49.49,0,0,1,.52-.3.51.51,0,0,1,.43.42L175,237.57c.83-4.69.92-4.68,1.42-4.64a.54.54,0,0,1,.48.61v10l2.54-4.26a.52.52,0,0,1,.56-.23.5.5,0,0,1,.37.48v5.9l4.84-14.69a.51.51,0,0,1,.48-.34.48.48,0,0,1,.47.35l1,3.1.86-3.08a.5.5,0,0,1,.48-.37h0a.5.5,0,0,1,.48.38l1.21,4.85,1-3.92a.49.49,0,0,1,.52-.37.5.5,0,0,1,.46.44L194,246.91l3.2-6.1a.51.51,0,0,1,.36-.26.52.52,0,0,1,.43.14l1.67,1.61L201.3,234a.48.48,0,0,1,.43-.4.48.48,0,0,1,.51.28l3.22,6.74L207,236a.5.5,0,0,1,.92-.07l4.37,8.57,1.26-8A.5.5,0,0,1,214,236a.51.51,0,0,1,.51.34l1.89,5.48,2.93-5.46a.46.46,0,0,1,.47-.26.49.49,0,0,1,.43.31l2.38,6,2.05-4.56a.5.5,0,0,1,.45-.3.47.47,0,0,1,.46.29l2.15,4.54,7.68-11.92a.5.5,0,0,1,.52-.22.51.51,0,0,1,.39.42l1.47,9.53,2.1-3.79a.55.55,0,0,1,.44-.26.46.46,0,0,1,.43.25l2.43,4.14,8.28-11.22a.5.5,0,0,1,.91.3v9.08l3.06-3.5a.49.49,0,0,1,.44-.17.48.48,0,0,1,.38.28l1.53,3.06,5.75-11.19a.5.5,0,0,1,.43-.27.51.51,0,0,1,.44.24l5.51,9.13,4.06-6.1a.51.51,0,0,1,.9.13l1.39,4.42,2-2.6a.51.51,0,0,1,.48-.19.49.49,0,0,1,.39.32l1,2.76,4.56-10.39a.48.48,0,0,1,.49-.3.52.52,0,0,1,.45.36l3,10.44,1.43-3.45a.48.48,0,0,1,.46-.31.49.49,0,0,1,.46.3l1.77,4.22,4.62-11.81a.51.51,0,0,1,.46-.31.46.46,0,0,1,.47.3l3.45,8.13,1.81-5a.51.51,0,0,1,.39-.32.5.5,0,0,1,.47.17l2.35,2.78,4.43-7.82a.48.48,0,0,1,.43-.25.46.46,0,0,1,.43.24l2.63,4.33,1.85-3.73a.49.49,0,0,1,.48-.28.49.49,0,0,1,.44.35l.51,1.58,2.2-7.07a.5.5,0,0,1,.94,0l3.15,7.45,1.88-2.88a.62.62,0,0,1,.43-.23.5.5,0,0,1,.42.25l1.73,3,2.22-3a.51.51,0,0,1,.87.1l2.35,5.61,1.34-5.81a.52.52,0,0,1,.48-.39.48.48,0,0,1,.49.36l2.14,7.38L343.14,218a.56.56,0,0,1,.48-.31.52.52,0,0,1,.46.34l2.53,7.52,1.29-5.64a.51.51,0,0,1,1-.09l1.87,4.19,1.42-4.15a.5.5,0,0,1,1,0l1.73,6.6,1.69-4a.48.48,0,0,1,.51-.3.5.5,0,0,1,.44.41l.86,4.62,1.3-2.51a.52.52,0,0,1,.56-.26.51.51,0,0,1,.39.49v29.23A.51.51,0,0,1,360.08,254.68Zm-320.14-1H359.58V227l-1,2a.51.51,0,0,1-.52.27.52.52,0,0,1-.42-.41l-.82-4.41-1.6,3.81a.52.52,0,0,1-.5.31.52.52,0,0,1-.45-.38l-1.69-6.42-1.29,3.79a.51.51,0,0,1-.45.33.48.48,0,0,1-.48-.29l-1.79-4-1.35,5.91a.5.5,0,0,1-.46.39.49.49,0,0,1-.5-.34l-2.68-8-4.7,11a.48.48,0,0,1-.49.3.5.5,0,0,1-.45-.36l-2-6.88-1.26,5.45a.5.5,0,0,1-.45.38.49.49,0,0,1-.5-.3L331.1,223,328.94,226a.44.44,0,0,1-.43.2.48.48,0,0,1-.4-.25l-1.71-3-1.95,3a.5.5,0,0,1-.46.22.48.48,0,0,1-.41-.3l-3-7-2.27,7.28a.5.5,0,0,1-1,0l-.61-1.92-1.7,3.44a.49.49,0,0,1-.43.28.46.46,0,0,1-.44-.24l-2.66-4.39L307.15,231a.48.48,0,0,1-.38.25.49.49,0,0,1-.43-.18l-2.26-2.67-2,5.34a.51.51,0,0,1-.46.33.46.46,0,0,1-.47-.31l-3.46-8.16-4.62,11.81a.51.51,0,0,1-.46.32h0a.5.5,0,0,1-.46-.31l-1.79-4.24-1.51,3.68a.45.45,0,0,1-.49.3.49.49,0,0,1-.45-.36l-3-10.49-4.51,10.27a.47.47,0,0,1-.48.3.49.49,0,0,1-.45-.33l-1.09-3.06-2,2.63a.48.48,0,0,1-.48.19.5.5,0,0,1-.4-.34l-1.37-4.35-3.93,5.89a.5.5,0,0,1-.43.22.52.52,0,0,1-.41-.24l-5.45-9-5.79,11.26a.48.48,0,0,1-.44.27h0a.51.51,0,0,1-.45-.28l-1.64-3.27-3.45,3.94a.5.5,0,0,1-.55.14.49.49,0,0,1-.32-.47v-8.89l-7.83,10.6a.48.48,0,0,1-.43.2.49.49,0,0,1-.4-.24l-2.38-4L237.89,242a.5.5,0,0,1-.93-.17l-1.49-9.68L228,243.66a.46.46,0,0,1-.45.23.5.5,0,0,1-.42-.28l-2.07-4.37L223,243.88a.55.55,0,0,1-.47.29.48.48,0,0,1-.45-.31l-2.42-6-3,5.53a.54.54,0,0,1-.48.26.52.52,0,0,1-.44-.34l-1.6-4.66L213,246.19a.52.52,0,0,1-.42.42.49.49,0,0,1-.52-.27l-4.52-8.87L206,242.14a.5.5,0,0,1-.93.06l-3.1-6.51-1.5,7.7a.5.5,0,0,1-.34.39.51.51,0,0,1-.5-.12l-1.86-1.79-3.63,6.92a.51.51,0,0,1-.53.26.52.52,0,0,1-.41-.43l-1.74-14.1-.84,3.27a.51.51,0,0,1-.49.38h0a.49.49,0,0,1-.48-.38l-1.23-4.93-.81,2.88a.49.49,0,0,1-.47.36.52.52,0,0,1-.49-.35l-1-3.22-5.34,16.18a.49.49,0,0,1-.55.34.51.51,0,0,1-.42-.5v-7.19l-2.54,4.26a.53.53,0,0,1-.57.23.51.51,0,0,1-.36-.49V238.3l-.42,2.36a.5.5,0,0,1-.49.42h0a.5.5,0,0,1-.49-.42l-2.26-13.82-6.08,13.94a.48.48,0,0,1-.48.3.52.52,0,0,1-.46-.34l-1.46-4.38-1.24,4.35a.51.51,0,0,1-.45.37.51.51,0,0,1-.49-.3L157.27,231,154,240.74a.51.51,0,0,1-.48.34h0a.5.5,0,0,1-.47-.34l-3-8.91v6.78a.5.5,0,0,1-.41.49.52.52,0,0,1-.56-.31l-3.83-9.71-2.58,4.7a.51.51,0,0,1-.44.26h0a.51.51,0,0,1-.44-.26L140,230.4l-1.68,7.19a.49.49,0,0,1-.48.39h0a.5.5,0,0,1-.48-.37L134,225.29l-3.95,10.12a.49.49,0,0,1-.5.32.51.51,0,0,1-.45-.39l-1.88-8-3.08,8.06a.5.5,0,0,1-.46.32h0a.52.52,0,0,1-.47-.34L119.7,225v10.22a.49.49,0,0,1-.45.49.5.5,0,0,1-.54-.39l-3.79-17.2-3.68,13a.48.48,0,0,1-.51.36.49.49,0,0,1-.47-.41L109,223.44c-.48,2.06-1.17,5.18-1.65,7.39a.5.5,0,0,1-.47.39.51.51,0,0,1-.5-.35l-4-13.15-3.51,14.81a.49.49,0,0,1-.47.38.54.54,0,0,1-.5-.36l-1.52-5.22-1.74,5.24a.5.5,0,0,1-.5.34.49.49,0,0,1-.46-.38L89.8,217.1l-5,12.13a.5.5,0,0,1-1-.1l-1.14-5.69-1,1.89a.51.51,0,0,1-.5.26.49.49,0,0,1-.42-.38l-.8-3.18-1,7.08a.5.5,0,0,1-.45.42.52.52,0,0,1-.52-.33l-5.26-15.3L71,224a.48.48,0,0,1-.49.42h0A.48.48,0,0,1,70,224l-1.35-11.23-3.3,14.38a.51.51,0,0,1-.49.39h0a.48.48,0,0,1-.47-.42l-2.51-15.53-5.54,15.62a.51.51,0,0,1-.51.33.5.5,0,0,1-.45-.41l-2.61-14.49L51,222.09a.49.49,0,0,1-.49.4h0a.49.49,0,0,1-.48-.42L48.4,211.76,46.48,219a.49.49,0,0,1-.49.38.5.5,0,0,1-.48-.4L43.1,208.16c-1.39,4.41-3.13,10.13-3.16,10.74Z" fill="#231f20"/><path d="M80.25,201a.43.43,0,0,1-.19,0,.5.5,0,0,1-.27-.66l7-16.51a26.28,26.28,0,0,1,2.27-4.49,25,25,0,0,1,5-5l12.3-10.09a.5.5,0,0,1,.63.77l-12.3,10.09a24.56,24.56,0,0,0-4.85,4.81,24.55,24.55,0,0,0-2.18,4.31l-7,16.52A.49.49,0,0,1,80.25,201Z" fill="#e6e7e8"/><path d="M133.18,213.36l-.14,0a.5.5,0,0,1-.34-.62,217.06,217.06,0,0,0,6.84-31.06.51.51,0,0,1,.57-.42.5.5,0,0,1,.42.56,216,216,0,0,1-6.87,31.2A.5.5,0,0,1,133.18,213.36Z" fill="#e6e7e8"/><path d="M175,217.55a.58.58,0,0,1-.26-.06.51.51,0,0,1-.18-.69,28.24,28.24,0,0,0,3.76-14.67q0-.44,0-.87a.49.49,0,0,1,.49-.49.48.48,0,0,1,.51.47q0,.42,0,.84a31.37,31.37,0,0,0,1,5c.87,3.29,1.77,6.7.64,9.36a.5.5,0,1,1-.92-.39c1-2.35.14-5.59-.68-8.72-.1-.36-.19-.72-.29-1.08a29.07,29.07,0,0,1-3.68,11A.5.5,0,0,1,175,217.55Z" fill="#e6e7e8"/><path d="M242.26,225.86a1.73,1.73,0,0,1-.38-.05,1.77,1.77,0,0,1-1.13-1,3.83,3.83,0,0,1-.11-1.83l0-.24c.32-3.18-1-6.1-2.49-9.2a42.56,42.56,0,0,1-2-4.67c-1.5-4.66-1.17-9.78-.87-14.3a.51.51,0,0,1,.53-.46.49.49,0,0,1,.46.53c-.28,4.42-.61,9.44.83,13.93a41.76,41.76,0,0,0,1.91,4.55c1.43,3.08,2.92,6.27,2.58,9.72l0,.26a2.84,2.84,0,0,0,0,1.34.75.75,0,0,0,.47.42.28.28,0,0,0,.25,0,.5.5,0,0,1,.7.1.51.51,0,0,1-.1.7A1.23,1.23,0,0,1,242.26,225.86Z" fill="#e6e7e8"/><path d="M293.58,219.4h0a.51.51,0,0,1-.49-.51c.05-4.24-.06-8-2-11-.25-.38-.54-.75-.82-1.11s-.61-.79-.88-1.2a20.17,20.17,0,0,1-1.46-2.85l-2.79-6.26a.51.51,0,0,1,.25-.67.51.51,0,0,1,.66.26l2.79,6.26a18.2,18.2,0,0,0,1.39,2.71c.26.39.54.76.83,1.13s.6.77.87,1.18c2.3,3.47,2.24,7.94,2.2,11.53A.5.5,0,0,1,293.58,219.4Z" fill="#e6e7e8"/><path d="M323,179.65a.5.5,0,0,1-.49-.39l-.61-2.53a37.3,37.3,0,0,1-1.37-8.84,12.81,12.81,0,0,1,2.89-8.53.49.49,0,0,1,.7-.05.51.51,0,0,1,.05.71,11.82,11.82,0,0,0-2.64,7.87,36.35,36.35,0,0,0,1.34,8.61l.61,2.53a.49.49,0,0,1-.37.6Z" fill="#e6e7e8"/><path d="M307.31,216.25a.47.47,0,0,1-.42-.22,32.66,32.66,0,0,1-4.58-10.88.5.5,0,0,1,1-.22,31.59,31.59,0,0,0,4.43,10.55.49.49,0,0,1-.14.69A.45.45,0,0,1,307.31,216.25Z" fill="#e6e7e8"/><path d="M185.77,143.11a.5.5,0,0,1-.49-.39,31.37,31.37,0,0,1,.84-16.17c.09-.29.2-.59.3-.89a14.52,14.52,0,0,0,1-6.46v-.32A70.67,70.67,0,0,1,190,97.54a.5.5,0,0,1,1,.29,69.37,69.37,0,0,0-2.57,21v.32a20.43,20.43,0,0,1-.22,4,19.54,19.54,0,0,1-.81,2.82c-.1.3-.2.59-.29.88a30.46,30.46,0,0,0-.81,15.65.51.51,0,0,1-.39.59Z" fill="#e6e7e8"/></svg>