<svg xmlns="http://www.w3.org/2000/svg" viewBox="0 0 400 300"><g id="_137_oceania_flatline" data-name="#137_oceania_flatline"><path d="M298.49,35.3h-.09L200,17.65,101.6,35.29a.5.5,0,0,1-.18-1l98.49-17.65h.18L298.58,34.3a.5.5,0,0,1,.4.58A.49.49,0,0,1,298.49,35.3Z" fill="#d1d3d4"/><rect x="95.23" y="44.83" width="209.55" height="209.55" fill="#fff"/><path d="M304.77,254.83H95.23a.45.45,0,0,1-.46-.46V44.83a.45.45,0,0,1,.46-.46H304.77a.45.45,0,0,1,.46.46V254.37A.45.45,0,0,1,304.77,254.83Zm-209.09-.91H304.32V45.28H95.68Z" fill="#231f20"/><rect x="89.63" y="34.8" width="220.74" height="10.03" fill="#fff"/><path d="M310.37,45.28H89.63a.46.46,0,0,1-.46-.45v-10a.46.46,0,0,1,.46-.46H310.37a.46.46,0,0,1,.46.46v10A.46.46,0,0,1,310.37,45.28ZM90.09,44.37H309.91V35.25H90.09Z" fill="#231f20"/><rect x="89.63" y="254.37" width="220.74" height="10.03" fill="#fff"/><path d="M310.37,264.86H89.63a.46.46,0,0,1-.46-.46v-10a.46.46,0,0,1,.46-.45H310.37a.46.46,0,0,1,.46.45v10A.46.46,0,0,1,310.37,264.86ZM90.09,264H309.91v-9.12H90.09Z" fill="#231f20"/><circle cx="200" cy="18.77" r="3.18" fill="#d1d3d4"/><path d="M134.81,218.67a7.56,7.56,0,0,1-.54,2.9,6.72,6.72,0,0,1-1.52,2.25,6.91,6.91,0,0,1-2.32,1.45,8.17,8.17,0,0,1-2.91.51,8,8,0,0,1-2.9-.51,6.86,6.86,0,0,1-2.31-1.45,6.44,6.44,0,0,1-1.52-2.25,7.38,7.38,0,0,1-.55-2.9,7.28,7.28,0,0,1,.55-2.9,6.28,6.28,0,0,1,1.52-2.21,6.73,6.73,0,0,1,2.31-1.39,8.21,8.21,0,0,1,2.9-.5,8.39,8.39,0,0,1,2.91.5,6.77,6.77,0,0,1,2.32,1.39,6.55,6.55,0,0,1,1.52,2.21A7.46,7.46,0,0,1,134.81,218.67Zm-3.45,0a4.62,4.62,0,0,0-.29-1.63,4,4,0,0,0-.78-1.29,3.58,3.58,0,0,0-1.21-.85,3.82,3.82,0,0,0-1.56-.32,3.7,3.7,0,0,0-1.55.32,3.58,3.58,0,0,0-1.21.85A3.83,3.83,0,0,0,124,217a4.85,4.85,0,0,0-.27,1.63,4.76,4.76,0,0,0,.28,1.67,4,4,0,0,0,.79,1.32,3.61,3.61,0,0,0,1.2.86,3.79,3.79,0,0,0,4.31-.86,4,4,0,0,0,.79-1.32A4.76,4.76,0,0,0,131.36,218.67Z" fill="#d1d3d4"/><path d="M143.28,219.05a1.81,1.81,0,0,0-.71-.55,2.24,2.24,0,0,0-.93-.21,2,2,0,0,0-.89.2,2.19,2.19,0,0,0-.68.53,2.3,2.3,0,0,0-.44.76,2.6,2.6,0,0,0-.16.93,2.83,2.83,0,0,0,.15.93,2.3,2.3,0,0,0,.44.76,2.1,2.1,0,0,0,1.62.71,2.56,2.56,0,0,0,.93-.18,1.78,1.78,0,0,0,.75-.52l1.72,2.1a4.06,4.06,0,0,1-1.51.89,6.38,6.38,0,0,1-4,0,5,5,0,0,1-1.68-1,4.59,4.59,0,0,1-1.12-1.58,5,5,0,0,1-.41-2.1,5,5,0,0,1,.41-2.08,4.59,4.59,0,0,1,1.12-1.58,5,5,0,0,1,1.68-1,6.06,6.06,0,0,1,2.06-.35,5.66,5.66,0,0,1,1,.09,7.25,7.25,0,0,1,1,.26,4.43,4.43,0,0,1,.85.4,3.23,3.23,0,0,1,.67.52Z" fill="#d1d3d4"/><path d="M155.63,220.82v.38c0,.13,0,.25,0,.36h-6.83a1.76,1.76,0,0,0,.24.72,2.08,2.08,0,0,0,.51.56,2.47,2.47,0,0,0,1.5.5,2.51,2.51,0,0,0,1.25-.28,2.4,2.4,0,0,0,.83-.71l2.16,1.37a4.43,4.43,0,0,1-1.75,1.48,5.73,5.73,0,0,1-2.52.52,6.05,6.05,0,0,1-2-.33,4.71,4.71,0,0,1-1.65-1,4.51,4.51,0,0,1-1.12-1.55,5.27,5.27,0,0,1-.4-2.12,5.37,5.37,0,0,1,.39-2.09,4.65,4.65,0,0,1,2.69-2.6,5.47,5.47,0,0,1,2-.36,5.11,5.11,0,0,1,1.91.35,4.06,4.06,0,0,1,1.49,1,4.73,4.73,0,0,1,1,1.61A6.25,6.25,0,0,1,155.63,220.82Zm-2.86-1.19a1.83,1.83,0,0,0-.46-1.26,1.72,1.72,0,0,0-1.39-.53,2.23,2.23,0,0,0-.83.14,2,2,0,0,0-.66.39,2,2,0,0,0-.46.57,1.87,1.87,0,0,0-.19.69Z" fill="#d1d3d4"/><path d="M157.31,217.29a5.3,5.3,0,0,1,1.94-1.19,6.53,6.53,0,0,1,2.26-.4,6.19,6.19,0,0,1,2,.29,3,3,0,0,1,1.33.91,3.94,3.94,0,0,1,.75,1.55,9,9,0,0,1,.24,2.22v4.75H163v-1h-.06a2.31,2.31,0,0,1-1.08.9,3.78,3.78,0,0,1-1.58.32,4.82,4.82,0,0,1-1.17-.15A3.27,3.27,0,0,1,158,225a2.67,2.67,0,0,1-.82-.91,2.71,2.71,0,0,1-.32-1.4,2.38,2.38,0,0,1,.55-1.64,3.65,3.65,0,0,1,1.44-1,7.71,7.71,0,0,1,2-.46c.72-.07,1.42-.11,2.1-.11v-.15a1.15,1.15,0,0,0-.5-1,2.1,2.1,0,0,0-1.21-.33,3,3,0,0,0-1.27.28,4.22,4.22,0,0,0-1.05.68Zm5.69,4h-.4c-.34,0-.68,0-1,.05a4.06,4.06,0,0,0-.92.18,1.7,1.7,0,0,0-.67.39.87.87,0,0,0-.27.67.79.79,0,0,0,.12.45,1,1,0,0,0,.32.31,1.37,1.37,0,0,0,.43.16,2.56,2.56,0,0,0,.47,0,1.91,1.91,0,0,0,1.45-.52,1.93,1.93,0,0,0,.5-1.4Z" fill="#d1d3d4"/><path d="M174.32,225.42v-5.14a4.59,4.59,0,0,0-.06-.76,2.22,2.22,0,0,0-.22-.63,1.11,1.11,0,0,0-.42-.44,1.35,1.35,0,0,0-.69-.16,1.54,1.54,0,0,0-.73.16,1.5,1.5,0,0,0-.52.45,1.71,1.71,0,0,0-.31.65,2.74,2.74,0,0,0-.11.76v5.11h-3.12V216h3v1.31h0a3.27,3.27,0,0,1,.44-.6,2.89,2.89,0,0,1,.64-.5,4.19,4.19,0,0,1,.81-.34,3.05,3.05,0,0,1,.92-.13,3.45,3.45,0,0,1,1.61.34,3.11,3.11,0,0,1,1.07.88,3.46,3.46,0,0,1,.58,1.24,5.52,5.52,0,0,1,.18,1.39v5.83Z" fill="#d1d3d4"/><path d="M183.15,213a1.67,1.67,0,0,1-.14.67,1.6,1.6,0,0,1-.38.54,1.8,1.8,0,0,1-.56.36,2.1,2.1,0,0,1-.69.13,1.75,1.75,0,0,1-1.27-.5,1.69,1.69,0,0,1-.38-1.86,1.52,1.52,0,0,1,.38-.53,1.87,1.87,0,0,1,.57-.37,1.59,1.59,0,0,1,.7-.14,1.87,1.87,0,0,1,.69.13,1.8,1.8,0,0,1,.56.36,1.6,1.6,0,0,1,.38.54A1.64,1.64,0,0,1,183.15,213Zm-3.32,12.42V216h3.1v9.42Z" fill="#d1d3d4"/><path d="M185.25,217.29a5.3,5.3,0,0,1,1.94-1.19,6.53,6.53,0,0,1,2.26-.4,6.19,6.19,0,0,1,2,.29,3,3,0,0,1,1.33.91,3.94,3.94,0,0,1,.75,1.55,9,9,0,0,1,.24,2.22v4.75h-2.84v-1h-.06a2.31,2.31,0,0,1-1.08.9,3.78,3.78,0,0,1-1.58.32,4.82,4.82,0,0,1-1.17-.15,3.27,3.27,0,0,1-1.11-.49,2.67,2.67,0,0,1-.82-.91,2.71,2.71,0,0,1-.32-1.4,2.38,2.38,0,0,1,.55-1.64,3.65,3.65,0,0,1,1.44-1,7.71,7.71,0,0,1,2-.46c.72-.07,1.42-.11,2.1-.11v-.15a1.15,1.15,0,0,0-.5-1,2.1,2.1,0,0,0-1.21-.33,3,3,0,0,0-1.27.28,4.22,4.22,0,0,0-1.05.68Zm5.69,4h-.4c-.34,0-.68,0-1,.05a4.06,4.06,0,0,0-.92.18,1.7,1.7,0,0,0-.67.39.87.87,0,0,0-.27.67.79.79,0,0,0,.12.45,1,1,0,0,0,.32.31,1.37,1.37,0,0,0,.43.16,2.56,2.56,0,0,0,.47,0,1.91,1.91,0,0,0,1.45-.52,1.93,1.93,0,0,0,.5-1.4Z" fill="#d1d3d4"/><path d="M179.59,166.61c-.51-.06-1,.39-1.67,0,1.2-1.34,1.55-2.76.23-4.34-.84,1.34-.84,3.59-3.51,3.22,2.2-2.18,2.71-5,3.48-7.65-1.4,1.1-1.91,2.93-3.74,3.58-1,.35-1.42,1.43-2,2.26-.23.32-.28,1-.85.58-.36-.25-.9-.45-.68-1.24.31-1.1-1-3.37-2-3.94-.55-.32-1.08-.53-.51-1.43s-1.12-.61-1-1.44c-.54-.2-1.15,0-1.69-.26s-.93-1-1.68-.51a.43.43,0,0,1-.59-.07c-1.48-1.69-3.52-1.13-5.37-1.34a7.35,7.35,0,0,0-4,1,9.55,9.55,0,0,1-5.91,1.22c-1-.19-1.7.53-2.49,1-1.71,1-3.92,1.26-4.58,3.61-.13.44-.83.84-1.19.66-1.23-.62-2.41.28-3.73-.2-1.58-.57-3.38.21-5.09.25a.52.52,0,0,0-.41.23c-.75,1.59-2.67,1.4-3.79,2.58s-5,.76-6.36-.62c-.41-.43-.75-1-1.4-1-1.05,0-.83-.79-.89-1.38s0-1,.85-.91a1,1,0,0,0,.92-1c0-2.2.82-4.44-.5-6.58a7.62,7.62,0,0,1-1.09-4.66,4.11,4.11,0,0,0-.79-2.58c-1.38-2.15-1.24-5-3-6.94,0,0,.07-.24.11-.37.45-.14.4-.62.61-.93a.22.22,0,0,1,.34.06c.17.2.31.53.51.57s.37-.28.4-.54a2.92,2.92,0,0,0-.5-2.1c-1.36-2-2.4-4-.77-6.38a2.33,2.33,0,0,0,.11-1.73,4,4,0,0,1,.67-3.36c.08,0,.12,0,.14-.09.47.17.33.75.68,1a2.87,2.87,0,0,1,1.5-1.35l1.19-.74a3.24,3.24,0,0,1,2-1.56h0c.3-.54.88-.67,1.34-1h0c.6-.64,1.25-.41,1.91-.1s1.1-.15,1.62-.33a7.2,7.2,0,0,1,4-2c1.14-.26,2.32-.25,3.47-.47l1.58-1.11a1.08,1.08,0,0,1,.63-.61l.42-.62a1.6,1.6,0,0,1,1.2-2h0c.81-.88.16-2,.38-2.9a1.69,1.69,0,0,1,.92-1.68c.43-.5.58-1.27,1.36-1.44a.37.37,0,0,0,.21,0c.58.67.64,1.59,1.14,2.32.8-.94-.53-2.07.28-3l.56-.09c.36.43,1,.11,1.35.39a.72.72,0,0,0,.24.14.48.48,0,0,0-.06-.27.28.28,0,0,1,.13-.27h0a.58.58,0,0,0,0-1h0a1.12,1.12,0,0,1,.42-1.63c.17-.32.84.13.8-.53a.71.71,0,0,1,.45-.38c1.12.19.48-.46.4-.85,0-.82.69-.67,1.15-.85h0c1.37-.27,2-1.75,3.31-2.11.43-.12.68-.2.93.18.16.6.65.23,1,.33a2.26,2.26,0,0,1,.94,1c0,.25,0,.53.3.61.48.25,1,.48.88,1.18a5.27,5.27,0,0,0-.19.56c.13-.12.12-.31.24-.45.44-.74,1.08-.53,1.72-.36l.28.14a3.77,3.77,0,0,0,1.67.08c.5-.47-.3-.34-.28-.59-.24-.26-.57-.47-.38-.91s-.07-1,.65-1.09c.29-.47.29-1.07.64-1.51h0c.93-.45.4-1.79,1.35-2.23h0c.89-1.41,1.91-2.42,3.84-2.12,1.63.25,2-.18,2.16-1.78a1.15,1.15,0,0,1,.42-.53c.29-.15.68-.36.91-.16a10.21,10.21,0,0,0,5,1.84c1.38.26,2.71.8,4.16,0,.76-.41,2,.93,1.67,1.76s-.68,2-1.69,2.48a1.16,1.16,0,0,0-.68,1.33,2.5,2.5,0,0,1-.65,2c-1,1.12-.67,1.89.5,2.56a3.37,3.37,0,0,1,.81.79,3.71,3.71,0,0,0,2,1.29,4.83,4.83,0,0,1,2.26,1.5,2.81,2.81,0,0,0,1.49.94,3.65,3.65,0,0,1,1.94,1.37c1.65,2,3.37,1.71,4.37-.69a19.52,19.52,0,0,0,1.59-7.73,28.26,28.26,0,0,1,2.12-10.34c.22-.56.5-1.16,1.22-1.14s.9.65,1,1.13a39.26,39.26,0,0,1,.93,4.17h0a.36.36,0,0,1,.21.37.26.26,0,0,0,.12.28c1,1.41.17,3.07.64,4.55l0,.32c.63.8,1.33-.09,2,.1l0,0a4.2,4.2,0,0,1,1.86,1.91l.35.25c.8.91-.22,2,.31,3a.23.23,0,0,0,0,.29c.37,1,.45,2.19,1.21,3.07-.38.28-.45.56,0,.85a1.54,1.54,0,0,1,.72,1.66,5.34,5.34,0,0,0,1.62,4.75l.31.09c1.36.87,2.47,2.11,4,2.74.31.13.85.41.26,1-.31.29-.06.68.15.85,1.25,1,1.44,2.4,1.69,3.81.15.85.15.84,1.24.77.53,0,2.19,1.41,2,1.82-.78,1.74.74,2.84,1.56,3.43,1.36,1,1.83,2.37,2.64,3.61.19.29.34.52.69.57.52.33.36.85.36,1.33,0,.07,0,.14,0,.21.59,1.33,0,2.68-.05,4a7.72,7.72,0,0,0,.1,1.52.94.94,0,0,1,.35.66c.73,1.87,0,3.53-.67,5.25-1.11,3-1.48,6.21-3.26,8.95-.72,1.12-2,1.56-2.75,2.66-1.5,2.18-2.24,4.78-3.8,6.9a14.05,14.05,0,0,0-2.07,5.73,2.05,2.05,0,0,1-2.27,1.8,6.72,6.72,0,0,0-5.56,2,3.35,3.35,0,0,1-4.37.5c0-1-.77-.31-1.12-.52a.46.46,0,0,1-.29-.27c-.16-.07.2-.71-.36-.32a.68.68,0,0,1-.58.38,5.22,5.22,0,0,0-2.65,1.63h0c-2.28-1-4.91-1-7-2.56h0a1.75,1.75,0,0,1-1.31-1.21l-.67-1.06a2.27,2.27,0,0,1,.32-2.27v-.33c-.43-.33-.45-.85-.61-1.31l-.41-.64-.44-.77c.23,0,.27-.15.18-.27C180.25,166.12,179.93,166.59,179.59,166.61Z" fill="#68e1fd"/><path d="M209.08,87.67l-.09-.06-.11,0a.82.82,0,0,1-1-.63l-.7-.93A1.87,1.87,0,0,1,206,84.71c0-.52-.7-.12-.74-.57-.35-.81-1.15-1.39-1.16-2.36,0-.43-.19-.6-.61-.55a2.66,2.66,0,0,1-1.57-.32c-1.92-1.1-3.49-.78-4.7,1.1a3.31,3.31,0,0,1-1.82.12c-.21,0,0,.28,0,.07s0-.1.13-.08a2.14,2.14,0,0,1,1,.31c.3.87.58,1.73-.74,2a.19.19,0,0,0-.25.1c-.37.68-1,.46-1.57.47a10.57,10.57,0,0,1-3.92-.3l0,0a2.91,2.91,0,0,1-.47-2.29,8.15,8.15,0,0,0-.14-4.54,1.56,1.56,0,0,1,.19-1.24l.38-2a13.61,13.61,0,0,0,0-4.08.73.73,0,0,0,0-.79,1.74,1.74,0,0,1,0-1.63,9.53,9.53,0,0,0,0-2.92c-.2-.1-.2-.21,0-.32s-.35-.44,0-.66a1,1,0,0,1,1.3,0l.06.09h.11c.78.26,1.63.39,2.1,1.19a.2.2,0,0,0,.27.08c2.64.13,4.74,1.61,7,2.79a1.91,1.91,0,0,1,.84,1.15h0A1.71,1.71,0,0,1,203.44,71c.28,1.86,1.7,2.34,3.11,2.89.59.23,1.28.29,1.63,1l.45.85c.49.94.3,1.35-.85,1.34-1.52,0-1.72.41-.94,1.76a3.63,3.63,0,0,0,.65.71,9,9,0,0,1,2.87,4c.1.37.22.76.71.71.9-.08,1.82-.27,1.47,1.22-.06.26.46.37.78.43.47.1,1.3-.21.64.93-.29.49.81.59,1.36.73,1.22.62,1.32,1.15.34,1.81-1.41.13-2.28-1.22-3.61-1.31-.26,0-.52,0-.78,0C210.54,87.92,209.82,87.69,209.08,87.67Z" fill="#68e1fd"/><path d="M210.81,73l1.23.08c.56.38,1.14-.1,1.7,0,.71.34.57-1,1.26-.64,1.48.67,3.56-.57,3.93-2.35.11-.56,0-1.28,1-1l.94-.2c.29.25.91.25.66.89s.18,1.65-1,1.68c-.06,0-.19.15-.19.22.05.51.75,1.21-.11,1.48-2.06.65-3.5,2.92-5.92,2.42a12.27,12.27,0,0,1-4.1-1.91C209.91,73.08,210.16,72.87,210.81,73Z" fill="#68e1fd"/><path d="M253.93,120.54c.65,1.81,2.52,2.42,3.66,3.75.27.32.83.55.56,1s-.86.14-1.15-.06c-2.27-1.61-4.72-3.06-5.95-5.74a4.55,4.55,0,0,1-.17-.75l.85.16.07.08.1,0c.75.14,1,.8,1.42,1.32C253.42,120.57,253.69,120.53,253.93,120.54Z" fill="#68e1fd"/><path d="M287.08,112.07c.14-.34.25-.69.42-1a2.15,2.15,0,0,1,2.15-1.09c.91.09,1,1.12,1.34,1.79l-.62.69c-1,.67-1.95,1-2.93,0Z" fill="#68e1fd"/><path d="M231,76.34c0,.37.05.78-.35,1-1.47-.27-2.91-2.34-2.9-4.19.89-.58,1.23.24,1.67.7a3.84,3.84,0,0,1,.9,1.52Z" fill="#68e1fd"/><path d="M160.14,91.61c1-.73,2.23-.1,3.32-.56.37-.16.51.64.19,1a2.21,2.21,0,0,1-1.89,1l-.33,0-.18-.09c-.38-.21-.78.07-1.17-.06-.53-.29-.31-.57,0-.86Z" fill="#68e1fd"/><path d="M242,86.74a7.39,7.39,0,0,1-.93-.6c-.28-.25-.53-.62-.29-1s.61,0,.93.1c.92.26,2.12.07,2.25,1.5h0a1.67,1.67,0,0,1-1.62,0Z" fill="#68e1fd"/><path d="M259.22,104.53l-.33-.63a.22.22,0,0,0-.05-.27v-2.06c.73,1.21,2.18,1.72,1.63,3.3A1.17,1.17,0,0,1,259.22,104.53Z" fill="#68e1fd"/><path d="M221.85,68.25a1.14,1.14,0,0,1,1.25.34h0a2.44,2.44,0,0,1,0,2.23c-1.14.18-.59-.9-1-1.28a.89.89,0,0,1-.34-1A.63.63,0,0,0,221.85,68.25Z" fill="#68e1fd"/><path d="M232.83,77.66l-.53-1c1.4.1,1.83,1.21,2.48,2.08-.81.58-1-.37-1.52-.59Z" fill="#68e1fd"/><path d="M245.88,88l1.45.61c.38.17.67.52.51.87s-.63.16-1,0l-1-.48h0c-.21-.28-.52-.53-.35-1Z" fill="#68e1fd"/><path d="M239.33,80.27c.48.65,1.57.72,1.71,1.86A5.37,5.37,0,0,1,239,80.91c-.34-.24-.29-.53.11-.71A.3.3,0,0,0,239.33,80.27Z" fill="#68e1fd"/><path d="M207.17,63c-.42-.37-1.7.72-1.43-.83l1.17,0C207.22,62.29,208,62.37,207.17,63Z" fill="#68e1fd"/><path d="M166.76,91.91c-.55-.36-1.57.15-1.74-.93l1.29-.35c.41.2.34.72.65,1l0,0C167,91.82,166.93,91.91,166.76,91.91Z" fill="#68e1fd"/><path d="M217.1,86c-.82.21-1.35.1-1.54-.72C216.22,85,216.7,85.28,217.1,86Z" fill="#68e1fd"/><path d="M262.48,110.86c.71-.57,1.14-.53,1.13.5C263.15,111.39,262.59,111.63,262.48,110.86Z" fill="#68e1fd"/><path d="M259.2,121.8c-.62-.4-.3-1-.27-1.49C259.48,120.73,259.91,121.16,259.2,121.8Z" fill="#68e1fd"/><path d="M217.31,86.73l.62,1a1.7,1.7,0,0,1-1.35-.64C216.68,86.62,217,86.64,217.31,86.73Z" fill="#68e1fd"/><path d="M263.37,102.71c0,.3.06.61.08.92a.75.75,0,0,0-.09.3C262.59,103.82,262.59,103.82,263.37,102.71Z" fill="#68e1fd"/><path d="M219.26,66c.46,0,1-.12,1.19.41.11.3-.34.23-.55.29C219.66,66.44,219.15,66.48,219.26,66Z" fill="#68e1fd"/><path d="M221.15,67.58c.1-.29-.56-.63-.09-.75.22,0,.78.46.77,1C221.56,67.86,221.28,67.89,221.15,67.58Z" fill="#68e1fd"/><path d="M167,91.61a1,1,0,0,1-.65-1c.24-.55.48-.42.72,0Z" fill="#68e1fd"/><path d="M223.15,91.61c.67-.28,1.06,0,1.29.64C223.93,92.19,223.43,92.14,223.15,91.61Z" fill="#68e1fd"/><path d="M260.17,105.56c.69-.31.69.37,1,.67a.48.48,0,0,1-.29.19.62.62,0,0,1-.35-.1C259.91,106.27,259.9,106,260.17,105.56Z" fill="#68e1fd"/><path d="M221.9,84.77c0-.23-.57-.38-.22-.57s.92-.07,1,.54Z" fill="#68e1fd"/><path d="M260.52,122.53c.42-.29.69,0,.89.28a.42.42,0,0,1-.09.4c-.25.2-.48,0-.7-.14Z" fill="#68e1fd"/><path d="M232.89,79.6c.11.27.48.47.26.83a.31.31,0,0,1-.28.08c-.48-.17-.36-.56-.3-.92Z" fill="#68e1fd"/><path d="M249.06,200.72l-.12-.06-.13,0a1.65,1.65,0,0,1-1.52-.12,8.35,8.35,0,0,0-3-1.09.37.37,0,0,0-.29-.06,1.18,1.18,0,0,1-.22-2,10.74,10.74,0,0,1,2.47-2.52h0c.45-.71,1.33-.79,1.92-1.31h0a2.51,2.51,0,0,1,1.64-1.25l1.29-.38c.34-.41.7-.78,1.3-.65l.33-.07c.22-.34.63-.39,1-.56h0c1.17-1.3,2.81-1.93,4.18-2.93l.05,0c.73-1,1.23-2.19,2.54-2.7.63-.24.79-1,1-1.59a1.36,1.36,0,0,1,1.36-1.13,1.15,1.15,0,0,1,1,1.33c-.05,1.14.61.12.92.22.66-.17,1.26-.23,1.36.7a1.13,1.13,0,0,0,.28,1,.13.13,0,0,0,0,.21,4.69,4.69,0,0,1-2.92,2.69l-.93,1c-1.22.49-.86,1.62-1,2.53l0,0a.59.59,0,0,1-.93,0l-.66,0c-.83.22-1.51.84-2.4.9-.44.39-1.25.43-1.2,1.28a1.44,1.44,0,0,1-.55,1.05.15.15,0,0,0-.1.24,1.94,1.94,0,0,1-1.28,1.7c-.79.13-.39,1.36-1.28,1.39-.43.42-.73,1-1.38,1.16l0,0C251,200.61,250,200.48,249.06,200.72Z" fill="#68e1fd"/><path d="M268.71,185.06c.12-.83-.93-.4-1-1a8.76,8.76,0,0,0,.66-.59c2.11-2.18,2.09-2.45-.35-4.11-1.32-.89-1.32-1.18.09-1.83,2.06-.95,2.59-2.77,2.83-4.78.06-.59-.14-1.26.64-1.55,0-.3,0-.47.38-.35.71-.16.67.71,1.25.88l.07-1.13c.1-.28.19-.56.59-.39s.35.65.32,1c-.09,1.05-.14,2,1.13,2.46s2.18.85,3.16-.38A1.14,1.14,0,0,1,280,173c.74.56-.2.89-.2,1.34,0,1.59-2,1.86-2.22,3.34,0,0-.58,0-.89,0a1.72,1.72,0,0,0-1.84,1.46c-.35,1.67-4.47,5.64-6.19,5.92l-.07.09Z" fill="#68e1fd"/><path d="M192.32,184.49c.27-.44-.58-.85,0-1.3a1.2,1.2,0,0,1,2-.42c2,1.43,4.06.81,6.08.06,1-.38,1.14-.12,1.16.9,0,1.93-1.34,3.27-1.79,5a1,1,0,0,1-.38.56,4.67,4.67,0,0,0-2,1.5,1.27,1.27,0,0,1-2.06.25c-1.3.16-.9-1.13-1.4-1.65a2.5,2.5,0,0,1-.76-2.34C193.27,186.08,192,185.52,192.32,184.49Z" fill="#68e1fd"/><path d="M271.92,170.83l-.38.35c-1.24.11-1.09-.91-1.32-1.62.38-.68-.65-.57-.59-1.07-.34-.84-.63-1.7-1-2.5-.28-.56.05-1,.06-1.52a5.31,5.31,0,0,1,1.15.18,2.43,2.43,0,0,1,1.86,2.63C271.65,168.4,271.07,169.73,271.92,170.83Z" fill="#68e1fd"/><path d="M266,184.52a2,2,0,0,0-1.36-.7,2.82,2.82,0,0,1,.93-.5c.36,0,.9-.38,1.12.14S266.49,184.31,266,184.52Z" fill="#68e1fd"/><path d="M220.14,134.4l.73-1a3.49,3.49,0,0,1-1,2.72l0,0A1.53,1.53,0,0,1,220.14,134.4Z" fill="#68e1fd"/><path d="M269.63,168.49c.14.67,1.33-.32,1.26.84-.05.92-.57-.17-.67.23A1,1,0,0,1,269.63,168.49Z" fill="#68e1fd"/><path d="M201,179.41c.57.57,1.12.76,1,1.42,0,.07-.3.15-.4.1C201.09,180.71,200.92,180.32,201,179.41Z" fill="#68e1fd"/><path d="M268.16,162.79c.32,0,.48.14.46.48s-.11.43-.37.28-.57-.06-.55-.43S268,162.84,268.16,162.79Z" fill="#68e1fd"/><path d="M199.42,189.12a.33.33,0,0,1,.28-.41l.15.66-.13.53c-.4.53-.73.22-.9-.15C198.56,189.18,199.16,189.28,199.42,189.12Z" fill="#68e1fd"/><path d="M191,180.59a.83.83,0,0,1,0-.15c0-.4-.19-.87.34-1.08a.3.3,0,0,1,.27.1c.08.51,0,1-.58,1.13Z" fill="#68e1fd"/><path d="M202.31,181.37c-.08.5-.54.77-.76.6-.4-.31.06-.51.32-.64C202,181.28,202.16,181.35,202.31,181.37Z" fill="#68e1fd"/><path d="M220.14,134.4a3.35,3.35,0,0,0-.26,1.71c-.61-.41-.14-1.06-.36-1.56Z" fill="#68e1fd"/><path d="M220.26,142.28c-.26-.15-.44-.33-.35-.66.3.14.55-.5.78-.11C220.77,141.64,220.42,142,220.26,142.28Z" fill="#68e1fd"/><path d="M273.83,170.19l-.59.39c.09-.32-.24-.8.12-1S273.78,169.9,273.83,170.19Z" fill="#68e1fd"/><path d="M175.13,168c-.48-.07-1.38.39-1.31-.52s1.06-.67,1.71-.78,1.21,0,1.15.71C176.58,168.38,175.71,167.85,175.13,168Z" fill="#68e1fd"/><path d="M114.3,137.76c-1-.54-1-.54.36-1.43a1.19,1.19,0,0,1,.3.76C114.9,137.47,114.84,137.85,114.3,137.76Z" fill="#68e1fd"/><path d="M114.3,137.76a.71.71,0,0,0,.38-.71c.36-.13.53.12.7.36-.18.4.44.91-.15,1.22-.1.05-.38-.21-.57-.33Z" fill="#68e1fd"/><path d="M115.38,137.41l-.7-.36,0-.72c.78,0,.71.67,1,1.1l-.12,0Z" fill="#68e1fd"/><path d="M244.59,83.48a1.85,1.85,0,0,1,.61,2,1.66,1.66,0,0,1-1-1.25C244.09,83.81,244,83.45,244.59,83.48Z" fill="#68e1fd"/><path d="M244.59,83.48c-.31.14-.28.45-.36.7L243.59,82C244.72,82.1,244.63,82.81,244.59,83.48Z" fill="#68e1fd"/><path d="M235.94,82.07a1.48,1.48,0,0,1-1.39-.6c0-.07.2-.44.33-.46.79-.08.66.74,1,1.09Z" fill="#68e1fd"/><path d="M237.51,79.18c.23.11.54.18.5.52,0,.06-.3.18-.37.14a1,1,0,0,1-.39-.46C237.18,79.21,237.29,79.08,237.51,79.18Z" fill="#68e1fd"/><path d="M235.91,82.1a.46.46,0,0,1,.07.14c.08.43.93.13.76.79a.32.32,0,0,1-.26.13.79.79,0,0,1-.54-1.09Z" fill="#68e1fd"/><path d="M176.74,104.27a1.46,1.46,0,0,1,1.91,1.24C177.57,105.76,177.29,104.8,176.74,104.27Z" fill="#68e1fd"/><path d="M154.57,102.3l.34.31c-.06.4.05.87-.46,1.11C154.28,103.22,154.1,102.74,154.57,102.3Z" fill="#68e1fd"/><path d="M145.84,102.94c.1-.4.75-.41.67-1,.18.31.57.81.5.89C146.7,103.23,146.24,102.87,145.84,102.94Z" fill="#68e1fd"/><path d="M158.57,102.37l-.07-1c.18.37.79.35.79.84C159.29,102.27,158.82,102.32,158.57,102.37Z" fill="#68e1fd"/><path d="M143.88,106.91l.43-.4c.24.15.7.38.52.59A.61.61,0,0,1,143.88,106.91Z" fill="#68e1fd"/><path d="M177.73,98.68c1.16.08,0,1,.59,1.46.39.34-.3.23-.48.24-.56,0-.86-.21-.82-.85S177.42,98.84,177.73,98.68Z" fill="#68e1fd"/><path d="M197.08,81.85c.41.16.19.44.09.65-.18.37-.43.11-.65,0-.6.22-1-.19-1.63-.67Z" fill="#68e1fd"/><path d="M204.2,81.58l-.66-.64c.32-.09.66-.41.93,0C204.65,81.28,204.45,81.45,204.2,81.58Z" fill="#68e1fd"/><path d="M292,107.19c.89.13,1.5-.76,2.39-.69-.19,1.22-1.1,1.63-2.06,2-.43-.15-1.07.64-1.31-.22S291.93,107.8,292,107.19Z" fill="#68e1fd"/><path d="M260.88,107.47l-.17-1.21.42,0c.37.21.79.43.67.93S261.22,107.48,260.88,107.47Z" fill="#68e1fd"/><path d="M263.09,104.42c.35.11.31.4.31.65s-.12.47-.37.35-.2-.35-.22-.54S262.8,104.45,263.09,104.42Z" fill="#68e1fd"/><path d="M215.05,64c0-.33.13-.45.37-.44s.66,0,.8.37a.36.36,0,0,1-.41.49A2.27,2.27,0,0,1,215.05,64Z" fill="#68e1fd"/><path d="M217.49,65.19a.69.69,0,0,1-.43-.93.42.42,0,0,1,.38-.05A.72.72,0,0,1,217.49,65.19Z" fill="#68e1fd"/><path d="M161.47,92.84c-.5,0-1,.14-1.45-.21C160.44,93.11,161.21,91.16,161.47,92.84Z" fill="#68e1fd"/><path d="M245.19,202.06c.3-.56.29-1.21.95-1.26.28,0,.4.3.39.59C246.52,202.24,245.9,202,245.19,202.06Z" fill="#68e1fd"/><rect x="95.23" y="44.83" width="209.55" height="5.14" fill="#231f20"/><path d="M304.77,50.46H95.23a.5.5,0,0,1-.5-.5V44.83a.5.5,0,0,1,.5-.5H304.77a.5.5,0,0,1,.5.5V50A.5.5,0,0,1,304.77,50.46Zm-209-1H304.28V45.32H95.72Z" fill="#231f20"/></g></svg>