<svg xmlns="http://www.w3.org/2000/svg" viewBox="0 0 400 300"><g id="_302_paris_flatline" data-name="#302_paris_flatline"><path d="M154.73,112.6a10.69,10.69,0,0,1,19.63-1,7.23,7.23,0,0,1,8-1.34,7.7,7.7,0,0,1,4.18,7.17c3-1.88,7.42.77,7.41,4.37H142.31a4,4,0,0,1,1.54-3.84,3.9,3.9,0,0,1,4.19-.06C146.78,114.13,151.79,111.92,154.73,112.6Z" fill="#fff"/><path d="M193.94,122.3H142.31a.51.51,0,0,1-.5-.39,4.46,4.46,0,0,1,1.73-4.37,4.08,4.08,0,0,1,3.8-.51,3.86,3.86,0,0,1,1-2.93,7.31,7.31,0,0,1,6-2.08,11.19,11.19,0,0,1,20.08-1.25,7.75,7.75,0,0,1,8.08-1,8.18,8.18,0,0,1,4.46,6.8,5.26,5.26,0,0,1,4.41.42,5.56,5.56,0,0,1,3,4.78A.51.51,0,0,1,193.94,122.3Zm-51.19-1h50.64a4.64,4.64,0,0,0-2.44-3.36,4,4,0,0,0-4.14,0,.51.51,0,0,1-.79-.46,7.14,7.14,0,0,0-3.89-6.68,6.67,6.67,0,0,0-7.41,1.24.55.55,0,0,1-.44.14.54.54,0,0,1-.38-.28,10.18,10.18,0,0,0-18.69,1,.51.51,0,0,1-.6.31,6.25,6.25,0,0,0-5.46,1.69,2.79,2.79,0,0,0-.62,2.94.51.51,0,0,1-.73.61,3.36,3.36,0,0,0-3.64,0A3.67,3.67,0,0,0,142.75,121.27Z" fill="#d1d3d4"/><path d="M191.62,189c-.3-4.32-3.21-8.23-6.79-9a4.19,4.19,0,0,0-4.91,2.21c-.76-6.56-7.61-10.92-12.6-8-1.27-6.16-5.89-11.49-11.2-11.56s-10.34,6.21-9.18,12.4c-1.92-1.82-5.33.45-5,3.36-2.39-3.28-5.88-5.73-9.5-5.37s-7.05,4.28-6.63,8.6c-3.08-2.32-7.84.4-8.27,4.72a3.32,3.32,0,0,0-2.67,2.68Z" fill="#fff"/><path d="M191.62,189.5H114.83a.53.53,0,0,1-.42-.21.55.55,0,0,1-.08-.45,3.94,3.94,0,0,1,2.71-3,6.9,6.9,0,0,1,3.94-5.16,5.07,5.07,0,0,1,4.24-.05c.1-4.35,3.65-7.84,7.12-8.18,3.13-.32,6.48,1.37,9.16,4.54a4.38,4.38,0,0,1,2.28-2.82,3.18,3.18,0,0,1,2.51-.2,11.71,11.71,0,0,1,2.78-8.33,9.34,9.34,0,0,1,7.06-3.59c5.1.08,10,4.89,11.55,11.32a7.89,7.89,0,0,1,6.9.28,10.92,10.92,0,0,1,5.62,7.12,5,5,0,0,1,4.74-1.32c3.78.81,6.88,4.89,7.2,9.47a.51.51,0,0,1-.52.55Zm-76.05-1h75.49c-.49-3.91-3.14-7.29-6.34-8a3.69,3.69,0,0,0-4.32,1.9.53.53,0,0,1-.55.31.52.52,0,0,1-.44-.45,9.87,9.87,0,0,0-5.29-7.64,6.78,6.78,0,0,0-6.54,0,.5.5,0,0,1-.76-.34c-1.3-6.29-5.9-11.09-10.7-11.16a8.23,8.23,0,0,0-6.26,3.22,10.5,10.5,0,0,0-2.41,8.58.52.52,0,0,1-.86.47,2,2,0,0,0-2.35-.25,3.28,3.28,0,0,0-1.82,3.18.51.51,0,0,1-.33.53.5.5,0,0,1-.6-.17c-2.58-3.54-6-5.47-9-5.17s-6.57,3.9-6.16,8a.54.54,0,0,1-.27.5.5.5,0,0,1-.56,0,3.94,3.94,0,0,0-4.06-.34,5.81,5.81,0,0,0-3.38,4.7.52.52,0,0,1-.46.46A2.55,2.55,0,0,0,115.57,188.47Z" fill="#d1d3d4"/><path d="M282.65,123a7.22,7.22,0,0,0-5.72-6.34c-1.55-.28-3.42.14-4.13,1.55-.65-4.62-6.41-7.69-10.6-5.65-1.07-4.34-5-8.09-9.43-8.14s-8.71,4.37-7.73,8.73c-1.62-1.28-4.48.32-4.24,2.37-2-2.31-5-4-8-3.79s-5.93,3-5.58,6.06a4.8,4.8,0,0,0-7,3.32A2.63,2.63,0,0,0,218,123Z" fill="#fff"/><path d="M282.65,123.51H218a.52.52,0,0,1-.42-.22.53.53,0,0,1-.07-.47,3.18,3.18,0,0,1,2.29-2.17,5.06,5.06,0,0,1,2.87-3.42,5.19,5.19,0,0,1,4-.28,5.59,5.59,0,0,1,1.32-3.2,7,7,0,0,1,4.74-2.54,10.06,10.06,0,0,1,7.68,3.16,3.48,3.48,0,0,1,4-2.11,7.43,7.43,0,0,1,1.75-5.11,8.69,8.69,0,0,1,6.54-3.26h.08c4.29,0,8.39,3.43,9.77,8a8,8,0,0,1,6.53.57,8.13,8.13,0,0,1,4,4.62,4.93,4.93,0,0,1,4-.9,7.73,7.73,0,0,1,6.14,6.81.48.48,0,0,1-.13.39A.56.56,0,0,1,282.65,123.51Zm-63.81-1h63.22a6.69,6.69,0,0,0-5.22-5.31c-1.3-.24-3,.06-3.58,1.27a.51.51,0,0,1-1-.16,7.27,7.27,0,0,0-9.87-5.25.52.52,0,0,1-.44,0,.54.54,0,0,1-.29-.34c-1.07-4.37-4.91-7.71-8.93-7.76h-.07A7.65,7.65,0,0,0,247,107.8a6.22,6.22,0,0,0-1.41,5.23.51.51,0,0,1-.23.55.53.53,0,0,1-.59,0,2.27,2.27,0,0,0-3.41,1.9.5.5,0,0,1-.3.53.52.52,0,0,1-.6-.13c-2.16-2.48-5-3.83-7.57-3.61a6,6,0,0,0-4,2.16,4.48,4.48,0,0,0-1.07,3.32.52.52,0,0,1-.23.5.54.54,0,0,1-.55,0,4.3,4.3,0,0,0-6.18,3,.51.51,0,0,1-.46.45A2,2,0,0,0,218.84,122.47Z" fill="#d1d3d4"/><path d="M308.17,261.82a8,8,0,0,0-2.05-2.13,8.15,8.15,0,0,0-7.81-.75c.89-2.51-.82-5.42-3.26-6.48a9.57,9.57,0,0,0-7.72.52c2.13-3.91-1-9-5.15-10.64-3.28-1.29-8.53-1-9.9,2.85a10.89,10.89,0,0,0-21,2.79,10.29,10.29,0,0,0-9.33-2.5c-2.93.7-9.36,5.4-6.92,9.26-.91-1.43-3.24-1.3-4.42-.09a6,6,0,0,0-1.25,4.77c-.65-1.35-2.78-1.26-3.81-.17a5,5,0,0,0-1.16,2.57Z" fill="#231f20"/><path d="M308.17,262.32H224.35a.53.53,0,0,1-.38-.18.54.54,0,0,1-.11-.41,5.22,5.22,0,0,1,1.29-2.82,3.31,3.31,0,0,1,2.85-1,2.53,2.53,0,0,1,.78.24,5.76,5.76,0,0,1,1.43-3.9,3.79,3.79,0,0,1,3.06-1.08,3.88,3.88,0,0,1,.71.15,4.39,4.39,0,0,1,.33-2.19c1.19-3,5.23-5.65,7.48-6.19a10.85,10.85,0,0,1,9.08,2,11.39,11.39,0,0,1,21.43-3,5.56,5.56,0,0,1,2.49-2.13A10.13,10.13,0,0,1,288,247.69a6.74,6.74,0,0,1,.21,4.37,9.55,9.55,0,0,1,7-.06,6.25,6.25,0,0,1,3.76,6.14,8.67,8.67,0,0,1,7.39,1.14,8.42,8.42,0,0,1,2.19,2.26.5.5,0,0,1-.42.78Zm-83.19-1h82.19a7,7,0,0,0-1.34-1.22,7.65,7.65,0,0,0-7.32-.71.49.49,0,0,1-.54-.09.5.5,0,0,1-.14-.53c.83-2.32-.9-4.95-3-5.85a9,9,0,0,0-7.31.52.5.5,0,0,1-.65-.69,5.7,5.7,0,0,0,.21-4.72,9.23,9.23,0,0,0-5.11-5.22,9.34,9.34,0,0,0-6.79,0,4.4,4.4,0,0,0-2.45,2.58.5.5,0,0,1-.47.33h0a.49.49,0,0,1-.47-.32A10.4,10.4,0,0,0,251.73,248a.47.47,0,0,1-.32.42.5.5,0,0,1-.52-.1A9.81,9.81,0,0,0,242,246c-2,.49-5.72,3-6.79,5.59a3,3,0,0,0,.19,2.92h0a.51.51,0,0,1-.16.69.49.49,0,0,1-.69-.16h0a1.85,1.85,0,0,0-1.4-.79,2.85,2.85,0,0,0-2.24.79,5.54,5.54,0,0,0-1.11,4.37.5.5,0,0,1-.95.26,1.29,1.29,0,0,0-1-.68,2.33,2.33,0,0,0-2,.64A3.84,3.84,0,0,0,225,261.32Z" fill="#231f20"/><path d="M190.73,261.82A9.79,9.79,0,0,0,179,257.4c-.56-3.42-4-5.77-7.46-6.2s-6.88.59-10.2,1.62c.82-4-1.56-8.13-4.93-10.41s-7.55-3-11.61-3.31c-1.25-.09-9,2.51-6.52,4.68a7.22,7.22,0,0,0-12,5.57,6.65,6.65,0,0,0-6.27-.67c-2.83,1.19-3.06,3.9-5,5.85,0-1.83-2-2.64-3.6-2.65a13.74,13.74,0,0,0-9.84,4.2c-1.66-2.35-5.59-1.76-7.49.4a11,11,0,0,0-2.27,5.34Z" fill="#231f20"/><path d="M190.73,262.32H91.83a.49.49,0,0,1-.38-.18.47.47,0,0,1-.11-.41,11.18,11.18,0,0,1,2.38-5.58,6.37,6.37,0,0,1,5-2.08,4.4,4.4,0,0,1,2.94,1.26,14.35,14.35,0,0,1,9.77-4h0a4.14,4.14,0,0,1,3.87,2.06,16.84,16.84,0,0,0,1-1.59,7.31,7.31,0,0,1,3.52-3.63,7.22,7.22,0,0,1,6,.27,7.69,7.69,0,0,1,11.53-6,2.3,2.3,0,0,1,.09-.25c.88-2.09,6.39-3.74,7.4-3.67,3.55.26,8.12.87,11.85,3.4,3,2.05,5.73,5.9,5.27,10.1,3-.91,6.32-1.82,9.64-1.4s6.87,2.61,7.77,6a10.35,10.35,0,0,1,11.79,4.85.5.5,0,0,1,0,.49A.52.52,0,0,1,190.73,262.32Zm-98.29-1h97.41a9.28,9.28,0,0,0-10.65-3.45.54.54,0,0,1-.43,0,.55.55,0,0,1-.25-.36c-.54-3.28-4-5.4-7-5.79-3.39-.44-6.89.65-10,1.6a.49.49,0,0,1-.48-.1.51.51,0,0,1-.16-.48c.72-3.46-1.23-7.52-4.72-9.88s-7.93-3-11.36-3.23c-.9-.06-5.79,1.57-6.41,3.06-.09.2-.11.42.26.75h0a.5.5,0,0,1-.67.75h0a6.71,6.71,0,0,0-11.17,5.18.48.48,0,0,1-.26.45.49.49,0,0,1-.52,0,6.18,6.18,0,0,0-5.8-.62,6.36,6.36,0,0,0-3,3.21,12,12,0,0,1-1.79,2.54.51.51,0,0,1-.54.11.5.5,0,0,1-.31-.46c0-1.58-1.86-2.15-3.1-2.16h0a13.31,13.31,0,0,0-9.45,4,.48.48,0,0,1-.39.15.51.51,0,0,1-.38-.2,3.2,3.2,0,0,0-2.55-1.3,5.32,5.32,0,0,0-4.15,1.74A9.51,9.51,0,0,0,92.44,261.32Z" fill="#231f20"/><path d="M203.18,60.38a.46.46,0,0,1-.45-.46V38.18a.46.46,0,1,1,.91,0V59.92A.46.46,0,0,1,203.18,60.38Z" fill="#231f20"/><rect x="193.94" y="178.2" width="19.15" height="10.51" fill="#231f20"/><path d="M213.09,189.21H193.94a.5.5,0,0,1-.5-.5V178.2a.5.5,0,0,1,.5-.5h19.15a.5.5,0,0,1,.5.5v10.51A.5.5,0,0,1,213.09,189.21Zm-18.65-1h18.15V178.7H194.44Z" fill="#231f20"/><path d="M221.75,199.22c-13.51-36.79-13.51-119.34-13.51-119.34H198.8s0,82.55-13.52,119.34a307.17,307.17,0,0,1-32.05,62.6h16.21l.24-.36a34.34,34.34,0,0,1,67.68,0l.23.34H253.8A307.17,307.17,0,0,1,221.75,199.22ZM190.9,220.71c5.47-19.43,12.75-53.3,12.46-70.48h.3c-.28,17.18,7,51.05,12.48,70.48Z" fill="#68e1fd"/><path d="M253.8,262.28H237.59a.48.48,0,0,1-.38-.2l-.23-.34a.4.4,0,0,1-.07-.18,33.88,33.88,0,0,0-66.78,0,.58.58,0,0,1-.08.18l-.24.36a.45.45,0,0,1-.37.2H153.23a.47.47,0,0,1-.41-.25.44.44,0,0,1,0-.47,307.25,307.25,0,0,0,32-62.5c13.33-36.29,13.49-118.36,13.49-119.18a.46.46,0,0,1,.46-.46h9.44a.46.46,0,0,1,.45.46c0,.82.16,82.89,13.48,119.18a307.25,307.25,0,0,0,32,62.5.44.44,0,0,1,0,.47A.47.47,0,0,1,253.8,262.28Zm-16-.92h15.11a308.87,308.87,0,0,1-31.62-62h0c-12.87-35-13.51-112.36-13.54-119h-8.53c0,6.68-.67,84-13.55,119a308.33,308.33,0,0,1-31.62,62h15.11l.05-.07a34.8,34.8,0,0,1,68.55,0Zm-21.69-40.19H190.9a.47.47,0,0,1-.37-.18.48.48,0,0,1-.07-.4c5-17.66,12.75-52.38,12.44-70.35a.49.49,0,0,1,.13-.33.47.47,0,0,1,.33-.14h.3a.45.45,0,0,1,.33.14.49.49,0,0,1,.13.33c-.29,18,7.48,52.69,12.46,70.35a.49.49,0,0,1-.08.4A.47.47,0,0,1,216.14,221.17Zm-24.64-.92h24c-4.3-15.39-10.55-43-12-61.74C202.05,177.29,195.8,204.85,191.5,220.25Z" fill="#231f20"/><rect x="173.67" y="216.87" width="59.69" height="5.26" rx="1.99" fill="#fff"/><path d="M231.37,222.62H175.65a2.48,2.48,0,0,1-2.48-2.48v-1.29a2.48,2.48,0,0,1,2.48-2.48h55.72a2.49,2.49,0,0,1,2.49,2.48v1.29A2.49,2.49,0,0,1,231.37,222.62Zm-55.72-5.25a1.48,1.48,0,0,0-1.48,1.48v1.29a1.48,1.48,0,0,0,1.48,1.48h55.72a1.49,1.49,0,0,0,1.49-1.48v-1.29a1.49,1.49,0,0,0-1.49-1.48Z" fill="#231f20"/><rect x="186.78" y="172.94" width="33.48" height="5.26" rx="2.15" fill="#fff"/><path d="M218.1,178.7H188.92a2.65,2.65,0,0,1-2.64-2.65v-1a2.65,2.65,0,0,1,2.64-2.65H218.1a2.65,2.65,0,0,1,2.65,2.65v1A2.65,2.65,0,0,1,218.1,178.7Zm-29.18-5.26a1.64,1.64,0,0,0-1.64,1.65v1a1.64,1.64,0,0,0,1.64,1.65H218.1a1.65,1.65,0,0,0,1.65-1.65v-1a1.65,1.65,0,0,0-1.65-1.65Z" fill="#231f20"/><path d="M195.34,69.8h16.34a0,0,0,0,1,0,0V75a4.87,4.87,0,0,1-4.87,4.87h-6.59A4.87,4.87,0,0,1,195.34,75V69.8A0,0,0,0,1,195.34,69.8Z" fill="#68e1fd"/><path d="M206.81,80.34h-6.59A5.34,5.34,0,0,1,194.89,75V69.79a.45.45,0,0,1,.45-.45h16.35a.45.45,0,0,1,.45.45V75A5.34,5.34,0,0,1,206.81,80.34Zm-11-10.09V75a4.42,4.42,0,0,0,4.42,4.42h6.59A4.42,4.42,0,0,0,211.23,75V70.25Z" fill="#231f20"/><path d="M200.35,62.61h5.53A3.38,3.38,0,0,1,209.25,66V69.8a0,0,0,0,1,0,0H197a0,0,0,0,1,0,0V66a3.38,3.38,0,0,1,3.38-3.38Z" fill="#68e1fd"/><path d="M209.25,70.25H197a.46.46,0,0,1-.46-.46V66a3.84,3.84,0,0,1,3.84-3.84h5.53A3.84,3.84,0,0,1,209.71,66v3.8A.45.45,0,0,1,209.25,70.25Zm-11.83-.91H208.8V66a2.92,2.92,0,0,0-2.92-2.92h-5.53A2.93,2.93,0,0,0,197.42,66Z" fill="#231f20"/><rect x="200.49" y="57.23" width="5.38" height="5.38" fill="#68e1fd"/><path d="M205.88,63.07h-5.39a.46.46,0,0,1-.45-.46V57.23a.46.46,0,0,1,.45-.46h5.39a.46.46,0,0,1,.45.46v5.38A.46.46,0,0,1,205.88,63.07ZM201,62.15h4.47V57.69H201Z" fill="#231f20"/><ellipse cx="121.63" cy="234.98" rx="12.95" ry="15.48" fill="#68e1fd"/><path d="M121.63,250.92c-7.39,0-13.41-7.15-13.41-15.94s6-15.94,13.41-15.94S135,226.19,135,235,129,250.92,121.63,250.92Zm0-31c-6.89,0-12.49,6.74-12.49,15s5.6,15,12.49,15,12.5-6.74,12.5-15S128.52,220,121.63,220Z" fill="#231f20"/><path d="M121.63,262.32a.5.5,0,0,1-.5-.5V227.73a.5.5,0,0,1,.5-.5.5.5,0,0,1,.5.5v34.09A.5.5,0,0,1,121.63,262.32Z" fill="#fff"/><path d="M121.63,243.43a.51.51,0,0,1-.36-.15l-6.19-6.48a.49.49,0,0,1,0-.7.5.5,0,0,1,.71,0l6.19,6.48a.48.48,0,0,1,0,.7A.47.47,0,0,1,121.63,243.43Z" fill="#fff"/><path d="M121.63,238.64a.51.51,0,0,1-.43-.25.5.5,0,0,1,.18-.68l7.32-4.33a.5.5,0,0,1,.51.86l-7.32,4.33A.48.48,0,0,1,121.63,238.64Z" fill="#fff"/><ellipse cx="269.36" cy="234.98" rx="12.95" ry="15.48" fill="#68e1fd"/><path d="M269.36,250.92C262,250.92,256,243.77,256,235S262,219,269.36,219s13.41,7.15,13.41,15.94S276.75,250.92,269.36,250.92Zm0-31c-6.89,0-12.5,6.74-12.5,15s5.61,15,12.5,15,12.49-6.74,12.49-15S276.25,220,269.36,220Z" fill="#231f20"/><path d="M269.36,262.32a.5.5,0,0,1-.5-.5V227.73a.5.5,0,0,1,.5-.5.5.5,0,0,1,.5.5v34.09A.5.5,0,0,1,269.36,262.32Z" fill="#fff"/><path d="M269.36,243.43a.51.51,0,0,1-.36-.15l-6.2-6.48a.49.49,0,0,1,0-.7.5.5,0,0,1,.71,0l6.19,6.48a.49.49,0,0,1,0,.7A.45.45,0,0,1,269.36,243.43Z" fill="#fff"/><path d="M269.36,238.64a.5.5,0,0,1-.43-.25.5.5,0,0,1,.17-.68l7.32-4.33a.51.51,0,0,1,.69.17.51.51,0,0,1-.18.69l-7.32,4.33A.45.45,0,0,1,269.36,238.64Z" fill="#fff"/><ellipse cx="294.25" cy="240.81" rx="8.9" ry="12.12" fill="#68e1fd"/><path d="M294.25,253.39c-5.16,0-9.35-5.64-9.35-12.58s4.19-12.57,9.35-12.57,9.36,5.64,9.36,12.57S299.41,253.39,294.25,253.39Zm0-24.24c-4.65,0-8.44,5.23-8.44,11.66s3.79,11.66,8.44,11.66,8.44-5.23,8.44-11.66S298.91,229.15,294.25,229.15Z" fill="#231f20"/><path d="M294.25,262.32a.5.5,0,0,1-.5-.5V235.14a.5.5,0,0,1,.5-.5.5.5,0,0,1,.5.5v26.68A.5.5,0,0,1,294.25,262.32Z" fill="#fff"/><path d="M294.25,247.54a.49.49,0,0,1-.38-.18l-4.26-5.07a.49.49,0,0,1,.06-.7.51.51,0,0,1,.71.06l4.25,5.07a.49.49,0,0,1-.06.7A.47.47,0,0,1,294.25,247.54Z" fill="#fff"/><path d="M294.25,243.79a.49.49,0,0,1-.41-.22.5.5,0,0,1,.13-.7l5-3.39a.51.51,0,0,1,.7.14.5.5,0,0,1-.14.69l-5,3.39A.47.47,0,0,1,294.25,243.79Z" fill="#fff"/></g></svg>