<svg xmlns="http://www.w3.org/2000/svg" viewBox="0 0 400 300"><g id="_382_petra_flatline" data-name="#382_petra_flatline"><rect x="39.4" y="45.82" width="321.2" height="119.33" fill="#68e1fd"/><rect x="39.4" y="196.91" width="321.2" height="57.27" fill="#e6e7e8"/><path d="M360.6,254.68H39.4a.5.5,0,0,1-.5-.5V196.91a.5.5,0,0,1,.5-.5H360.6a.5.5,0,0,1,.5.5v57.27A.5.5,0,0,1,360.6,254.68Zm-320.7-1H360.1V197.41H39.9Z" fill="#231f20"/><path d="M164.83,106.77s10.51-1,15.78-5.5S203,89.78,211.53,87.64s29.11,3.29,36.46,7.52,27.4,17.5,37.46,21.38,28.83,12.11,28.83,12.11,7.13-2.28,12.76,0,33.56,9.08,33.56,9.08V254.18s-16.67-3.87-21.55-7.25-46.42-9-46.42-9Z" fill="#e6e7e8"/><path d="M360.6,254.68l-.11,0c-.69-.15-16.82-3.93-21.72-7.32-4.73-3.27-45.79-8.87-46.21-8.93a.47.47,0,0,1-.29-.14L164.47,107.12a.5.5,0,0,1-.11-.52.51.51,0,0,1,.42-.33c.11,0,10.41-1,15.51-5.38,5.41-4.62,22.7-11.62,31.11-13.73s29.19,3.16,36.84,7.57c2,1.13,4.87,2.93,8.22,5,9.22,5.7,21.85,13.52,29.17,16.34,9.44,3.64,26.77,11.21,28.68,12.05,1.19-.35,7.62-2.07,12.92.07,5.53,2.23,33.21,9,33.49,9.05a.51.51,0,0,1,.38.49V254.18a.5.5,0,0,1-.5.5Zm-67.73-17.23c3.3.45,41.66,5.74,46.47,9.07,4.22,2.92,17.72,6.29,20.76,7V138.12c-3.5-.85-27.94-6.86-33.25-9s-12.35,0-12.42,0a.52.52,0,0,1-.35,0c-.19-.08-18.88-8.28-28.81-12.11-7.41-2.85-20.08-10.69-29.33-16.42-3.35-2.07-6.24-3.86-8.2-5C240.22,91.26,220,86,211.65,88.13s-25.4,9-30.72,13.52c-4.41,3.78-12.23,5.12-15,5.5Z" fill="#231f20"/><path d="M296.53,137.3l-17.27,21.78L289,237.92l8.17,1.69S301.5,143.1,296.53,137.3Z" fill="#231f20"/><path d="M297.19,240.11h-.1l-8.17-1.69a.5.5,0,0,1-.39-.43l-9.77-78.84a.5.5,0,0,1,.1-.37L296.14,137a.47.47,0,0,1,.38-.19.51.51,0,0,1,.39.17c5,5.89,1,98.71.78,102.66a.45.45,0,0,1-.19.37A.49.49,0,0,1,297.19,240.11Zm-7.71-2.61,7.24,1.5c1.17-26.44,3.25-92.83-.24-100.83l-16.7,21.06Z" fill="#231f20"/><path d="M103.19,237.92S55.28,251.85,39.4,254.18V45.82s35.36,4.44,47.75,13,23.42,9.65,30,17.53,38.64,29.49,38.64,29.49Z" fill="#fff"/><path d="M39.4,254.68a.55.55,0,0,1-.33-.12.52.52,0,0,1-.17-.38V45.82a.48.48,0,0,1,.17-.37.47.47,0,0,1,.39-.12c1.45.18,35.63,4.54,48,13a91,91,0,0,0,15.12,8.07c6,2.7,11.21,5,15,9.55,6.48,7.74,38.22,29.18,38.54,29.4a.5.5,0,0,1,.18.6L103.65,238.1a.5.5,0,0,1-.32.3c-.48.14-48.13,14-63.86,16.27Zm.5-208.29V253.6c15.62-2.44,59.3-15,62.91-16.09L155.19,106c-3.62-2.44-32.13-21.85-38.41-29.36-3.64-4.35-8.74-6.63-14.64-9.28a92.1,92.1,0,0,1-15.27-8.15C75.57,51.42,44.47,47,39.9,46.39Zm63.29,191.53h0Z" fill="#231f20"/><path d="M360.6,254.68H39.4a.5.5,0,0,1-.5-.5V45.82a.5.5,0,0,1,.5-.5H360.6a.5.5,0,0,1,.5.5V254.18A.5.5,0,0,1,360.6,254.68Zm-320.7-1H360.1V46.32H39.9Z" fill="#231f20"/><path d="M99.38,209.17c1-5.69,1.53-11.44,2.11-17.17l.76-7.46a90.63,90.63,0,0,0,.67-16.29,4.72,4.72,0,0,1,.21-2.45A6.88,6.88,0,0,1,104.7,164c2-2.09,2.46-5.24,2.76-8.15l2.1-20.61a78.19,78.19,0,0,0,.6-11.13,4.51,4.51,0,0,1,.12-1.6,8.33,8.33,0,0,1,1-1.62c1.57-2.57.3-5.87-1-8.59,1.26-1.38,3.41.19,4.79,1.45,6.8,6.2,15.75,1.18,22.82,5.82,4.34,2.85,5.79,8.46,6.63,13.59a150.2,150.2,0,0,1-7.9,77.44c-3.18,8.32-8.73,21-18.15,23.42l-23,5.85C91.19,241,97.12,219.67,97.3,219A100.24,100.24,0,0,0,99.38,209.17Z" fill="#231f20"/><path d="M95.1,240.45a1.28,1.28,0,0,1-.95-.41C92,237.82,95.27,224.57,96.79,219l0-.12c.8-3,1.48-6.21,2.07-9.78h0c.94-5.66,1.53-11.49,2.1-17.12l.76-7.47a90.25,90.25,0,0,0,.67-16.2,5.27,5.27,0,0,1,.25-2.7,4.87,4.87,0,0,1,1.24-1.49c.15-.14.29-.27.43-.42,1.87-1.89,2.31-4.79,2.62-7.84l2.1-20.61a80,80,0,0,0,.61-11.06,5,5,0,0,1,.13-1.77,4.75,4.75,0,0,1,.7-1.25c.11-.16.22-.31.32-.48,1.39-2.29.33-5.25-1-8.11a.52.52,0,0,1,.09-.56c.82-.89,2.44-1.37,5.5,1.42,3.51,3.2,7.57,3.29,11.87,3.38,3.68.08,7.49.16,10.88,2.39,4.52,3,6,8.71,6.85,13.93a150,150,0,0,1-7.92,77.69c-3.46,9.05-9.14,21.35-18.5,23.73l-23,5.85A1.64,1.64,0,0,1,95.1,240.45Zm4.78-31.2c-.6,3.6-1.28,6.83-2.09,9.87l0,.12c-2.94,10.8-4.1,18.87-2.89,20.1a.37.37,0,0,0,.41.08l23-5.85c8.91-2.26,14.44-14.27,17.82-23.11A149,149,0,0,0,144,133.28c-.82-5-2.23-10.5-6.42-13.25-3.15-2.07-6.65-2.15-10.35-2.23-4.3-.09-8.73-.19-12.52-3.64-1.25-1.13-2.87-2.28-3.85-1.68,1.33,2.88,2.4,6.11.81,8.71a6.33,6.33,0,0,1-.36.54,2.77,2.77,0,0,0-.65,2.33,79,79,0,0,1-.6,11.27L108,155.94c-.34,3.24-.81,6.32-2.9,8.45l-.47.44a4.14,4.14,0,0,0-1,1.19,4.29,4.29,0,0,0-.17,2.13,91.62,91.62,0,0,1-.66,16.44l-.76,7.46c-.57,5.66-1.17,11.5-2.11,17.2Z" fill="#231f20"/><rect x="160.78" y="175.41" width="71.3" height="62.51" fill="#fff"/><path d="M232.08,238.42h-71.3a.5.5,0,0,1-.5-.5V175.41a.5.5,0,0,1,.5-.5h71.3a.5.5,0,0,1,.5.5v62.51A.5.5,0,0,1,232.08,238.42Zm-70.8-1h70.3V175.91h-70.3Z" fill="#231f20"/><polygon points="197.19 185.15 193.53 187.47 193.06 190.41 197.57 188.79 197.19 185.15" fill="#231f20"/><path d="M193.06,190.91a.47.47,0,0,1-.31-.12.49.49,0,0,1-.18-.46l.47-2.94a.5.5,0,0,1,.23-.34l3.66-2.32a.5.5,0,0,1,.76.37l.38,3.64a.51.51,0,0,1-.33.52l-4.51,1.62A.47.47,0,0,1,193.06,190.91Zm.93-3.14-.3,1.88,3.34-1.2-.25-2.44Z" fill="#231f20"/><path d="M175.75,237.92l1-48s4-1.39,5.87-.46l-.43,48.43Z" fill="#fff"/><path d="M182.22,238.42h-6.47a.53.53,0,0,1-.36-.15.54.54,0,0,1-.14-.36l1-48a.51.51,0,0,1,.34-.46c.43-.15,4.29-1.44,6.25-.44a.51.51,0,0,1,.28.45l-.43,48.43A.5.5,0,0,1,182.22,238.42Zm-6-1h5.47l.41-47.6c-1.31-.43-3.69.13-4.87.5Z" fill="#231f20"/><path d="M212.21,237.92l1-48s4-1.39,5.87-.46l-.42,48.43Z" fill="#fff"/><path d="M218.69,238.42h-6.48a.55.55,0,0,1-.36-.15.54.54,0,0,1-.14-.36l1-48a.51.51,0,0,1,.34-.46c.43-.15,4.29-1.44,6.25-.44a.51.51,0,0,1,.28.45l-.42,48.43A.51.51,0,0,1,218.69,238.42Zm-6-1h5.47l.42-47.6c-1.32-.43-3.7.13-4.88.5Z" fill="#231f20"/><path d="M176.78,190s-2.84-.7-2.91-1.78,4.72-3.19,4.72-3.19l.61,4.35Z" fill="#fff"/><path d="M176.78,190.46h-.12c-.75-.19-3.2-.9-3.29-2.24s3.11-2.84,5-3.68a.49.49,0,0,1,.69.39l.61,4.35a.49.49,0,0,1-.37.56l-2.42.61Zm1.41-4.74c-2,.94-3.72,2-3.82,2.45s1.27,1,2.41,1.27l1.86-.47Z" fill="#231f20"/><path d="M178.59,185s5.84-.5,5.7.81a12.94,12.94,0,0,1-1.64,3.69l-3.45-.15Z" fill="#fff"/><path d="M182.65,190h0l-3.44-.15a.51.51,0,0,1-.48-.43l-.61-4.35a.5.5,0,0,1,.46-.57c1.16-.1,5-.35,6,.62a.91.91,0,0,1,.27.74,12.89,12.89,0,0,1-1.72,3.91A.5.5,0,0,1,182.65,190Zm-3-1.13,2.74.12a11,11,0,0,0,1.42-3.24c-.25-.29-2.36-.44-4.63-.3Z" fill="#231f20"/><path d="M178.59,185v-3.1s-1.48.77-1.2,0a10.75,10.75,0,0,1,1.81-2.32h3.45v6.23Z" fill="#fff"/><path d="M182.65,186.29h-.1l-4.06-.81a.51.51,0,0,1-.4-.49v-2.35c-.68.21-.92,0-1-.08a.72.72,0,0,1-.16-.84,11.13,11.13,0,0,1,1.92-2.51.52.52,0,0,1,.36-.14h3.45a.5.5,0,0,1,.5.5v6.22a.49.49,0,0,1-.19.39A.45.45,0,0,1,182.65,186.29Zm-3.56-1.71,3.06.61v-5.12h-2.74a14.69,14.69,0,0,0-1.25,1.47l.2-.09a.48.48,0,0,1,.49,0,.5.5,0,0,1,.24.43Z" fill="#231f20"/><rect x="159.89" y="172.32" width="70.72" height="3.24" fill="#fff"/><path d="M230.61,176.06H159.89a.5.5,0,0,1-.5-.5v-3.24a.5.5,0,0,1,.5-.5h70.72a.5.5,0,0,1,.5.5v3.24A.51.51,0,0,1,230.61,176.06Zm-70.22-1h69.72v-2.24H160.39Z" fill="#231f20"/><rect x="159.89" y="175.56" width="70.72" height="4.34" fill="#d1d3d4"/><path d="M230.61,180.4H159.89a.5.5,0,0,1-.5-.5v-4.34a.5.5,0,0,1,.5-.5h70.72a.5.5,0,0,1,.5.5v4.34A.51.51,0,0,1,230.61,180.4Zm-70.22-1h69.72v-3.34H160.39Z" fill="#231f20"/><polygon points="172.18 107.45 173.17 120.41 184.29 119.75 184.29 172.31 166.43 172.31 165.93 119.75 172.18 107.45" fill="#231f20"/><path d="M184.29,172.82H166.43a.51.51,0,0,1-.5-.5l-.5-52.56a.52.52,0,0,1,0-.24l6.25-12.3a.5.5,0,0,1,1,.19l.95,12.47,10.63-.63a.5.5,0,0,1,.37.14.48.48,0,0,1,.16.36v52.57A.5.5,0,0,1,184.29,172.82Zm-17.36-1h16.86V120.28l-10.59.63a.49.49,0,0,1-.52-.46l-.86-11.19-5.39,10.61Z" fill="#231f20"/><path d="M151.17,101.57c-.16-.45-15.1,1.22-15.1,1.22l4.21,10.61-10.54-1,5.45,8h16Z" fill="#231f20"/><path d="M151.17,120.91h-16a.49.49,0,0,1-.41-.22l-5.46-8a.5.5,0,0,1,0-.54.49.49,0,0,1,.48-.24l9.72.95-3.9-9.85a.49.49,0,0,1,0-.44.52.52,0,0,1,.38-.24c15.34-1.71,15.46-1.34,15.62-.88a.45.45,0,0,1,0,.16v18.84A.5.5,0,0,1,151.17,120.91Zm-15.71-1h15.21V102c-1.72,0-9,.68-13.89,1.22l4,10a.49.49,0,0,1-.07.48.51.51,0,0,1-.45.2l-9.48-.93Z" fill="#231f20"/><polygon points="126.37 102.28 130.12 109.31 125.09 107.56 126.37 102.28" fill="#231f20"/><path d="M130.12,109.81a.51.51,0,0,1-.17,0l-5-1.75a.49.49,0,0,1-.32-.59l1.28-5.28a.49.49,0,0,1,.42-.38.5.5,0,0,1,.5.26l3.75,7a.5.5,0,0,1-.06.56A.52.52,0,0,1,130.12,109.81Zm-4.44-2.58,3.4,1.19-2.53-4.75Z" fill="#231f20"/><path d="M118.62,107.45v-4.66s7.76-.79,7.75-.51-.49,5.17-.49,5.17Z" fill="#fff"/><path d="M125.88,108h-7.26a.5.5,0,0,1-.5-.5v-4.66a.49.49,0,0,1,.44-.5c7.73-.79,8-.58,8.15-.39a.55.55,0,0,1,.16.4c0,.29-.44,4.69-.49,5.2A.51.51,0,0,1,125.88,108Zm-6.76-1h6.31c.14-1.5.32-3.37.4-4.24-1.06,0-4,.25-6.71.53Z" fill="#231f20"/><polygon points="174.28 98.27 171.87 108.8 169.74 125.33 165.93 119.75 167.26 100.34 174.28 98.27" fill="#231f20"/><path d="M169.74,125.83a.49.49,0,0,1-.41-.22L165.51,120a.48.48,0,0,1-.08-.31l1.34-19.41a.49.49,0,0,1,.35-.45l7-2.07a.5.5,0,0,1,.48.11.5.5,0,0,1,.15.48l-2.41,10.53-2.12,16.48a.49.49,0,0,1-.38.42Zm-3.3-6.22,3,4.35,2-15.22L173.6,99l-5.86,1.73Z" fill="#231f20"/><polygon points="170.12 99.2 169.58 110.69 142.33 110.3 170.12 99.2" fill="#fff"/><path d="M169.58,111.19h0l-27.25-.39a.5.5,0,0,1-.18-1l27.79-11.1a.51.51,0,0,1,.69.49l-.54,11.48A.51.51,0,0,1,169.58,111.19Zm-24.74-1.35,24.26.34.48-10.22Z" fill="#231f20"/><rect x="148.36" y="120.41" width="16.04" height="48.88" fill="#fff"/><path d="M164.4,169.79h-16a.51.51,0,0,1-.5-.5V120.41a.5.5,0,0,1,.5-.5h16a.5.5,0,0,1,.5.5v48.88A.5.5,0,0,1,164.4,169.79Zm-15.54-1h15V120.91h-15Z" fill="#231f20"/><polygon points="143.75 237.92 159.7 237.92 163.83 170.56 142.02 170.56 143.75 237.92" fill="#fff"/><path d="M159.7,238.42h-16a.51.51,0,0,1-.5-.49l-1.72-67.35a.5.5,0,0,1,.5-.52h21.81a.51.51,0,0,1,.5.53L160.2,238A.51.51,0,0,1,159.7,238.42Zm-15.47-1h15l4.07-66.36H142.53Z" fill="#231f20"/><path d="M160.57,181.68h0l-14.5-.31a.5.5,0,0,1-.49-.51.49.49,0,0,1,.5-.49h0l14.5.31a.5.5,0,0,1,0,1Z" fill="#d1d3d4"/><polygon points="104.19 169.64 150.36 170.77 146.7 174.99 107.99 174.64 104.19 169.64" fill="#fff"/><path d="M146.7,175.49h0L108,175.14a.47.47,0,0,1-.39-.2l-3.8-5a.49.49,0,0,1-.05-.53.51.51,0,0,1,.46-.27l46.17,1.13a.5.5,0,0,1,.45.29.49.49,0,0,1-.08.53l-3.66,4.23A.5.5,0,0,1,146.7,175.49Zm-38.46-1.35,38.23.35,2.82-3.25-44.08-1.07Z" fill="#231f20"/><polygon points="146.7 174.99 143.75 237.92 103.19 237.92 107.99 174.64 146.7 174.99" fill="#fff"/><path d="M143.74,238.42H103.19a.51.51,0,0,1-.37-.16.48.48,0,0,1-.13-.38l4.8-63.28a.47.47,0,0,1,.5-.46l38.72.35a.48.48,0,0,1,.35.16.46.46,0,0,1,.14.36l-3,62.93A.5.5,0,0,1,143.74,238.42Zm-40-1h39.54l2.91-61.93-37.73-.34Z" fill="#231f20"/><line x1="135.49" y1="237.92" x2="139.05" y2="188.18" fill="#fff"/><path d="M135.49,238.42h0a.5.5,0,0,1-.46-.54l3.56-49.74a.51.51,0,0,1,.54-.46.5.5,0,0,1,.46.53L136,238A.49.49,0,0,1,135.49,238.42Z" fill="#231f20"/><path d="M107.23,187.16,105.45,183s17.18-.46,17,0-2.72,5.17-2.72,5.17Z" fill="#fff"/><path d="M119.72,188.68h0l-12.49-1a.51.51,0,0,1-.42-.3L105,183.21a.5.5,0,0,1,0-.46.52.52,0,0,1,.41-.24c17-.46,17.21-.08,17.41.2a.53.53,0,0,1,.05.49c-.19.48-2.48,4.73-2.74,5.21A.5.5,0,0,1,119.72,188.68Zm-12.15-2,11.86,1c.76-1.4,1.79-3.33,2.28-4.28-2.17-.15-10.07,0-15.51.12Z" fill="#231f20"/><polygon points="147.26 188.18 137.55 188.18 135.02 183.72 149.02 184.07 147.26 188.18" fill="#fff"/><path d="M147.26,188.68h-9.71a.48.48,0,0,1-.43-.26L134.58,184a.49.49,0,0,1,0-.51.47.47,0,0,1,.44-.24l14,.35a.51.51,0,0,1,.4.23.49.49,0,0,1,0,.47l-1.76,4.1A.49.49,0,0,1,147.26,188.68Zm-9.42-1h9.09l1.34-3.13-12.38-.31Z" fill="#231f20"/><path d="M106.79,178.58,114,179l-1.18,2.18s-3.66.08-3.94,0A20.54,20.54,0,0,1,106.79,178.58Z" fill="#fff"/><path d="M110.12,181.72a11.9,11.9,0,0,1-1.41-.05c-.18,0-.46-.12-2.33-2.8a.51.51,0,0,1,0-.53.52.52,0,0,1,.47-.26l7.16.42a.51.51,0,0,1,.41.74l-1.18,2.18a.48.48,0,0,1-.43.26C111.9,181.7,110.9,181.72,110.12,181.72Zm-1.1-1c.38,0,2,0,3.45,0l.67-1.23-5.34-.32C108.32,179.85,108.81,180.5,109,180.71Z" fill="#231f20"/><polygon points="119.18 181.22 118.61 179.9 124.88 179.9 123.89 181.75 119.18 181.22" fill="#fff"/><path d="M123.89,182.25h0l-4.72-.53a.48.48,0,0,1-.4-.3l-.56-1.32a.49.49,0,0,1,.46-.69h6.26a.5.5,0,0,1,.43.24.5.5,0,0,1,0,.49l-1,1.85A.5.5,0,0,1,123.89,182.25Zm-4.37-1.5,4.09.46.44-.81h-4.68Z" fill="#231f20"/><polygon points="133.75 181.75 133.19 179.9 140.29 179.9 139.05 181.75 133.75 181.75" fill="#fff"/><path d="M139.05,182.25h-5.3a.5.5,0,0,1-.48-.36l-.56-1.85a.49.49,0,0,1,.07-.44.51.51,0,0,1,.41-.2h7.11a.51.51,0,0,1,.44.26.54.54,0,0,1,0,.52L139.47,182A.54.54,0,0,1,139.05,182.25Zm-4.93-1h4.67l.57-.85h-5.5Z" fill="#231f20"/><polygon points="144.45 181.75 143.67 179.9 146.47 179.9 147.83 181.22 146.35 182.46 144.45 181.75" fill="#fff"/><path d="M146.35,183l-.18,0-1.9-.71a.48.48,0,0,1-.28-.28l-.78-1.85a.52.52,0,0,1,0-.47.49.49,0,0,1,.41-.22h2.8a.5.5,0,0,1,.35.14l1.36,1.32a.51.51,0,0,1,.15.37.51.51,0,0,1-.18.37l-1.48,1.24A.47.47,0,0,1,146.35,183Zm-1.52-1.61,1.42.54.83-.7-.81-.79h-1.84Z" fill="#231f20"/><line x1="106.22" y1="172.32" x2="148.38" y2="173.05" fill="#fff"/><path d="M148.38,173.55h0l-42.16-.73a.5.5,0,0,1-.49-.51.52.52,0,0,1,.51-.49l42.16.73a.5.5,0,0,1,0,1Z" fill="#231f20"/><line x1="119.72" y1="188.18" x2="116.56" y2="237.92" fill="#fff"/><path d="M116.56,238.42h0a.5.5,0,0,1-.47-.53l3.16-49.74a.5.5,0,1,1,1,.06L117.06,238A.5.5,0,0,1,116.56,238.42Z" fill="#231f20"/><path d="M120.47,197.94h16.27l.9-1.79s-4-5.06-8.58-5.16-9.67,4.69-9.67,4.69Z" fill="#fff"/><path d="M136.74,198.44H120.47a.49.49,0,0,1-.45-.29l-1.08-2.26a.51.51,0,0,1,.11-.58c.22-.2,5.32-4.89,10-4.82s8.79,5.14,9,5.35a.51.51,0,0,1,.05.54l-.9,1.78A.51.51,0,0,1,136.74,198.44Zm-16-1h15.65l.62-1.22c-.86-1-4.3-4.65-8-4.73s-8,3.36-9,4.31Z" fill="#231f20"/><line x1="120.75" y1="200.75" x2="136.74" y2="200.19" fill="#fff"/><path d="M120.75,201.25a.5.5,0,0,1,0-1l16-.56a.51.51,0,0,1,.52.48.5.5,0,0,1-.48.52l-16,.56Z" fill="#231f20"/><path d="M123.57,203.1H133.7l-1.31,22.34s-9.57-.19-9.95,0S123.57,203.1,123.57,203.1Z" fill="#231f20"/><path d="M122.42,226a.47.47,0,0,1-.27-.11c-.31-.21-.58-.38.92-22.78a.49.49,0,0,1,.5-.47H133.7a.52.52,0,0,1,.37.16.5.5,0,0,1,.13.37l-1.31,22.34a.5.5,0,0,1-.51.47c-3.5-.07-9.25-.14-9.79,0A.37.37,0,0,1,122.42,226Zm3.1-1.11c1.41,0,3.45,0,6.4.08l1.25-21.33H124c-.51,7.78-1.19,19-1.15,21.3C123.33,224.87,124.13,224.85,125.52,224.85Z" fill="#231f20"/><path d="M132,230.82h-9.61a.5.5,0,0,1-.5-.5v-3.45a.5.5,0,0,1,.5-.5H132a.5.5,0,0,1,.5.5v3.45A.5.5,0,0,1,132,230.82Zm-9.11-1h8.61v-2.45h-8.61Z" fill="#d1d3d4"/><polygon points="133.79 116.11 144.83 116.57 142.02 170.56 128.76 170.56 124.56 144.82 128.75 122.42 133.79 116.11" fill="#231f20"/><path d="M142,171.06H128.76a.49.49,0,0,1-.49-.42l-4.21-25.74a1.09,1.09,0,0,1,0-.18l4.19-22.39a.49.49,0,0,1,.1-.22l5-6.31a.48.48,0,0,1,.41-.19l11,.46a.48.48,0,0,1,.35.16.49.49,0,0,1,.13.36l-2.81,54A.5.5,0,0,1,142,171.06Zm-12.83-1h12.36l2.76-53L134,116.62l-4.8,6-4.15,22.18Z" fill="#231f20"/><polygon points="132.83 122.25 131.32 124.29 131.48 127.86 130.04 165.18 131.26 170.3 118.61 169.84 119.93 137.21 123.82 113.48 125.41 113.42 132.83 122.25" fill="#d1d3d4"/><path d="M131.26,170.8h0l-12.64-.46a.5.5,0,0,1-.48-.52l1.31-32.63,3.89-23.79a.51.51,0,0,1,.48-.42l1.59-.06a.5.5,0,0,1,.4.17l7.43,8.84a.51.51,0,0,1,0,.62l-1.41,1.9.15,3.39-1.44,37.29,1.21,5.06a.51.51,0,0,1-.1.43A.53.53,0,0,1,131.26,170.8Zm-12.13-1.44,11.49.42-1.06-4.48a.34.34,0,0,1,0-.14L131,127.84l-.15-3.52a.45.45,0,0,1,.09-.32l1.28-1.73-7-8.34-1,0-3.82,23.33Z" fill="#231f20"/><polygon points="128.28 105.92 133.79 116.11 132.83 122.25 125.41 113.42 128.28 105.92" fill="#d1d3d4"/><path d="M132.83,122.75a.49.49,0,0,1-.38-.18L125,113.74a.51.51,0,0,1-.09-.5l2.88-7.5a.5.5,0,0,1,.43-.32.51.51,0,0,1,.47.26l5.51,10.19a.59.59,0,0,1,.06.32l-1,6.14a.49.49,0,0,1-.36.4ZM126,113.32l6.53,7.77.76-4.89-4.91-9.09Z" fill="#231f20"/><polygon points="116.83 113.78 112.64 106.96 128.28 105.92 125.88 113.39 116.83 113.78" fill="#fff"/><path d="M116.83,114.28a.49.49,0,0,1-.42-.24l-4.2-6.81a.51.51,0,0,1,.4-.77l15.64-1a.5.5,0,0,1,.51.65l-2.4,7.48a.52.52,0,0,1-.46.35l-9.05.38Zm-3.33-6.87,3.6,5.86,8.41-.36,2.07-6.44Z" fill="#231f20"/><path d="M116.49,118.92c0-.19.34-5.14.34-5.14l9-.38-.8,5.52Z" fill="#fff"/><path d="M125.08,119.42h-8.59a.5.5,0,0,1-.5-.48c0-.19.21-3.33.34-5.19a.51.51,0,0,1,.48-.47l9-.38a.48.48,0,0,1,.39.16.47.47,0,0,1,.12.41l-.79,5.53A.51.51,0,0,1,125.08,119.42Zm-8.07-1h7.64l.65-4.5-8,.34C117.2,115.72,117.07,117.55,117,118.42Z" fill="#231f20"/><path d="M122.91,165.18,126,128.09a15.21,15.21,0,0,0-3.69-.69l-7.6.33-4.38,37.45Z" fill="#fff"/><path d="M122.91,165.68H110.37a.51.51,0,0,1-.37-.16.53.53,0,0,1-.13-.4l4.38-37.45a.5.5,0,0,1,.48-.44l7.59-.33a15.11,15.11,0,0,1,3.87.71.51.51,0,0,1,.35.52l-3.13,37.09A.5.5,0,0,1,122.91,165.68Zm-12-1h11.52l3.06-36.23a13,13,0,0,0-3.14-.55l-7.17.31Z" fill="#231f20"/><polygon points="106.79 169.31 107.24 167.34 110.37 165.18 122.91 165.18 125.44 167.25 125.82 170.17 106.79 169.31" fill="#fff"/><path d="M125.82,170.67h0l-19-.86a.54.54,0,0,1-.38-.19.52.52,0,0,1-.09-.42l.45-2a.52.52,0,0,1,.2-.3l3.13-2.16a.52.52,0,0,1,.29-.09h12.54a.54.54,0,0,1,.32.11l2.53,2.07a.52.52,0,0,1,.18.32l.37,2.92a.51.51,0,0,1-.13.41A.48.48,0,0,1,125.82,170.67Zm-18.41-1.83,17.83.8-.27-2.13-2.24-1.83H110.52l-2.84,2Z" fill="#231f20"/><path d="M114.75,127.73l-2-3.39s15.26,1.13,15.17,1.09a31.77,31.77,0,0,0-1.86,2.66Z" fill="#fff"/><path d="M126,128.59h0l-11.29-.36a.51.51,0,0,1-.41-.25l-2-3.39a.47.47,0,0,1,0-.51.5.5,0,0,1,.46-.24c5.53.41,13.72,1,15,1.08.13-.06.22,0,.36,0a.5.5,0,0,1,.28.58.26.26,0,0,1-.19.24l0,0c-.17.17-1,1.43-1.75,2.55A.5.5,0,0,1,126,128.59Zm-11-1.35,10.73.34c.51-.77.88-1.34,1.16-1.74-1.1,0-3.08-.18-6.66-.45l-6.62-.48Zm12.67-1.39,0,0Z" fill="#231f20"/><polygon points="115.75 124.56 115.98 120.3 125.7 120.07 125.18 125.25 115.75 124.56" fill="#fff"/><path d="M125.18,125.75h0l-9.44-.69a.5.5,0,0,1-.46-.53l.23-4.26a.51.51,0,0,1,.49-.47l9.71-.23a.55.55,0,0,1,.38.16.48.48,0,0,1,.13.39l-.51,5.18A.5.5,0,0,1,125.18,125.75Zm-8.9-1.65,8.45.61.41-4.12-8.68.2Z" fill="#231f20"/><polygon points="115.98 120.3 114.84 118.8 126.37 118.31 125.7 120.07 115.98 120.3" fill="#fff"/><path d="M116,120.8a.51.51,0,0,1-.4-.2l-1.14-1.5a.49.49,0,0,1,0-.51.49.49,0,0,1,.43-.29l11.53-.49a.49.49,0,0,1,.43.2.5.5,0,0,1,.06.47l-.68,1.77a.48.48,0,0,1-.45.32l-9.72.23Zm-.16-1.54.41.53,9.12-.21.28-.74Z" fill="#231f20"/><circle cx="120.9" cy="115.65" r="2.04" fill="#fff"/><path d="M120.9,118.19a2.56,2.56,0,0,1-2.54-2.43,2.54,2.54,0,0,1,4.26-2,2.52,2.52,0,0,1,.82,1.76h0a2.53,2.53,0,0,1-2.43,2.65Zm0-4.08h-.07a1.54,1.54,0,1,0,.13,3.08,1.52,1.52,0,0,0,1.07-.5,1.49,1.49,0,0,0,.4-1.1h0a1.48,1.48,0,0,0-.49-1.07A1.52,1.52,0,0,0,120.91,114.11Z" fill="#231f20"/><path d="M133.5,118.5a.52.52,0,0,1-.42-.22l-6-9-13.19.21h0a.5.5,0,0,1-.5-.5.49.49,0,0,1,.49-.5l13.46-.21a.47.47,0,0,1,.42.22l6.14,9.2a.5.5,0,0,1-.14.7A.53.53,0,0,1,133.5,118.5Z" fill="#231f20"/><path d="M133.22,120.25a.51.51,0,0,1-.4-.2l-6.55-8.85c-4,.15-10,.38-10.42.47a.52.52,0,0,1-.59-.4.49.49,0,0,1,.38-.58c.57-.12,9.14-.44,10.86-.5a.49.49,0,0,1,.42.2l6.71,9.06a.51.51,0,0,1-.11.7A.47.47,0,0,1,133.22,120.25Z" fill="#231f20"/><polygon points="155.76 170.3 171.9 170.3 167.77 175.41 159.89 175.41 155.76 170.3" fill="#fff"/><path d="M167.77,175.91h-7.88a.52.52,0,0,1-.39-.18l-4.13-5.11a.49.49,0,0,1-.06-.53.48.48,0,0,1,.45-.29H171.9a.49.49,0,0,1,.45.29.51.51,0,0,1-.06.53l-4.13,5.11A.53.53,0,0,1,167.77,175.91Zm-7.64-1h7.4l3.32-4.11h-14Z" fill="#231f20"/><polygon points="159.89 175.41 159.7 179.9 167.58 179.9 167.77 175.41 159.89 175.41" fill="#fff"/><path d="M167.58,180.4H159.7a.48.48,0,0,1-.36-.16.45.45,0,0,1-.14-.36l.19-4.49a.5.5,0,0,1,.5-.48h7.88a.48.48,0,0,1,.36.16.46.46,0,0,1,.14.36l-.19,4.49A.5.5,0,0,1,167.58,180.4Zm-7.36-1h6.88l.15-3.49h-6.88Z" fill="#231f20"/><path d="M158.46,179.57c.21.07,10.06,0,10.06,0l-1.19,2.6h-7.89Z" fill="#fff"/><path d="M167.33,182.67h-7.89a.51.51,0,0,1-.47-.32l-1-2.61a.48.48,0,0,1,.11-.52.5.5,0,0,1,.45-.15c.49.05,6.21,0,10,0h0a.5.5,0,0,1,.42.22.51.51,0,0,1,0,.48l-1.2,2.61A.49.49,0,0,1,167.33,182.67Zm-7.54-1H167l.74-1.6c-5.21,0-7.51,0-8.55,0Z" fill="#231f20"/><rect x="159.7" y="182.17" width="7.48" height="1.55" fill="#fff"/><path d="M167.18,184.22H159.7a.5.5,0,0,1-.5-.5v-1.55a.5.5,0,0,1,.5-.5h7.48a.5.5,0,0,1,.5.5v1.55A.5.5,0,0,1,167.18,184.22Zm-7-1h6.48v-.55H160.2Z" fill="#231f20"/><polygon points="157.47 183.37 157.75 186.53 159.7 188.65 167.18 188.18 168.52 186.39 168.52 182.94 157.47 183.37" fill="#fff"/><path d="M159.7,189.15a.5.5,0,0,1-.37-.17l-2-2.11a.51.51,0,0,1-.13-.29l-.28-3.17a.46.46,0,0,1,.13-.37.44.44,0,0,1,.35-.17l11.05-.43a.5.5,0,0,1,.52.5v3.45a.45.45,0,0,1-.1.3l-1.34,1.79a.51.51,0,0,1-.36.2l-7.49.47Zm-1.47-2.83,1.68,1.81,7-.44,1.1-1.46v-2.77l-10,.39Z" fill="#231f20"/><polygon points="159.7 188.65 157.96 237.92 166.55 237.92 167.18 188.18 159.7 188.65" fill="#fff"/><path d="M166.55,238.42H158a.5.5,0,0,1-.5-.52l1.74-49.27a.49.49,0,0,1,.47-.48l7.48-.47a.52.52,0,0,1,.38.13.48.48,0,0,1,.15.37l-.63,49.75A.5.5,0,0,1,166.55,238.42Zm-8.07-1h7.58l.62-48.71-6.5.41Z" fill="#231f20"/><path d="M135,170.39v-2.11h3.66a2.46,2.46,0,0,1,1.62-1.6L143,129l-1.5-2.91s.1-1.79-.37-2.16-.66-1.88-.66-1.88l11.92.31s-2.82,1.66-2.44,2.41a7.49,7.49,0,0,1,.47,2.16l-1.22,2.35L149,166.5s1.67-.56,2,.33l8.23.07,1.68-.73,3.85-36.09s-2.5-3.66-2.6-4,.94-.72.94-.72-1.41-.69-1.69-1.44a5.15,5.15,0,0,0-.65-1.23h10.6s-1.31,3-1.69,2.67-.94,0-.94,0,1.22.72,1.32,1.37a10.22,10.22,0,0,1-1,2.91L169,167.68a1.51,1.51,0,0,1,.94.79c.19.56,2,1.83,2,1.83Z" fill="#fff"/><path d="M135,170.89a.48.48,0,0,1-.5-.5v-2.11a.5.5,0,0,1,.5-.5h3.32a3,3,0,0,1,1.48-1.46l2.66-37.26-1.43-2.78A.58.58,0,0,1,141,126a3.86,3.86,0,0,0-.2-1.75,4,4,0,0,1-.83-2.2.54.54,0,0,1,.13-.4.49.49,0,0,1,.38-.16l11.92.31a.49.49,0,0,1,.47.37.49.49,0,0,1-.23.56,6.7,6.7,0,0,0-2.23,1.84,7.13,7.13,0,0,1,.51,2.27.58.58,0,0,1-.06.26l-1.16,2.24-.16,36.51a1.87,1.87,0,0,1,1.82.46l7.85.06,1.32-.56,3.79-35.62a37.24,37.24,0,0,1-2.56-4,.86.86,0,0,1,.38-.88,3,3,0,0,1-1.12-1.23,3.94,3.94,0,0,0-.58-1.09.5.5,0,0,1,.4-.81h10.6a.5.5,0,0,1,.42.23.49.49,0,0,1,0,.47c-.95,2.15-1.47,2.73-1.75,2.9a1.67,1.67,0,0,1,.47.87,8.09,8.09,0,0,1-1,3.1l-.09,37.61a1.74,1.74,0,0,1,.91,1,8.18,8.18,0,0,0,1.79,1.58.51.51,0,0,1,.19.56.5.5,0,0,1-.48.35l-36.88.09Zm.5-2.11v1.11l34.93-.09a3.43,3.43,0,0,1-1-1.18c-.08-.23-.45-.41-.62-.47a.5.5,0,0,1-.35-.48l.09-38.06a.43.43,0,0,1,.06-.22,8.9,8.9,0,0,0,1-2.62c0-.24-.59-.73-1.07-1a.52.52,0,0,1-.25-.44.51.51,0,0,1,.26-.43,1.55,1.55,0,0,1,1.19-.13,11.5,11.5,0,0,0,.9-1.6h-8.94a4.77,4.77,0,0,1,.24.55,3.46,3.46,0,0,0,1.44,1.17.51.51,0,0,1,.28.48.49.49,0,0,1-.34.44,2.47,2.47,0,0,0-.54.26c.29.52,1.42,2.22,2.45,3.74a.5.5,0,0,1,.09.33l-3.85,36.09a.5.5,0,0,1-.3.41l-1.68.72a1.46,1.46,0,0,1-.2.05l-8.24-.07a.53.53,0,0,1-.46-.31c-.13-.32-1-.19-1.42-.05a.49.49,0,0,1-.45-.07.49.49,0,0,1-.21-.41l.17-37.26a.59.59,0,0,1,.05-.22l1.16-2.22a6.25,6.25,0,0,0-.41-1.83c-.33-.67.35-1.47,1.29-2.18l-9.72-.25a2.28,2.28,0,0,0,.37,1c.56.45.59,1.76.57,2.44l1.44,2.79a.47.47,0,0,1,.05.26l-2.7,37.73a.47.47,0,0,1-.35.44,1.92,1.92,0,0,0-1.28,1.25.5.5,0,0,1-.48.37Z" fill="#231f20"/><path d="M142.48,122.12v-1.61a11.12,11.12,0,0,1-.57-1.5,2.24,2.24,0,0,1,0-.85l28.82.66s.33.94,0,1.08-.85,0-.8.24-.23,2.52-.23,2.52Z" fill="#fff"/><path d="M169.69,123.16h0l-27.22-.54a.49.49,0,0,1-.49-.5v-1.5a9.77,9.77,0,0,1-.56-1.52,2.64,2.64,0,0,1,0-1.06.52.52,0,0,1,.5-.38l28.81.66a.5.5,0,0,1,.46.33c.14.42.41,1.41-.28,1.71a1.56,1.56,0,0,1-.5.11c0,.35-.08,1-.23,2.25A.5.5,0,0,1,169.69,123.16ZM143,121.63l26.27.52c.1-.88.19-1.78.18-1.94a.56.56,0,0,1,.11-.44.9.9,0,0,1,.7-.29h.13l0-.16-28-.64a1.94,1.94,0,0,0,0,.24,8.93,8.93,0,0,0,.54,1.39.52.52,0,0,1,0,.21Z" fill="#231f20"/><path d="M164.2,136.49H149.89a.5.5,0,0,1-.5-.5.5.5,0,0,1,.5-.5H164.2a.5.5,0,0,1,.5.5A.5.5,0,0,1,164.2,136.49Z" fill="#231f20"/><path d="M163.75,139.38H149.89a.5.5,0,0,1,0-1h13.86a.5.5,0,0,1,0,1Z" fill="#231f20"/><polygon points="159.3 163.38 151.42 163.38 152.57 138.88 160.78 138.88 159.3 163.38" fill="#231f20"/><path d="M159.3,163.88h-7.88a.48.48,0,0,1-.36-.16.47.47,0,0,1-.14-.37l1.15-24.49a.5.5,0,0,1,.5-.48h8.21a.48.48,0,0,1,.36.16.47.47,0,0,1,.14.37l-1.48,24.5A.5.5,0,0,1,159.3,163.88Zm-7.36-1h6.89l1.42-23.5H153Z" fill="#231f20"/><path d="M160.78,163.88H149.16a.5.5,0,0,1-.5-.5.5.5,0,0,1,.5-.5h11.62a.5.5,0,0,1,.5.5A.5.5,0,0,1,160.78,163.88Z" fill="#231f20"/><path d="M155,210a.2.2,0,0,1-.1,0l-4.6-1.87a.26.26,0,0,1-.14-.33.25.25,0,0,1,.33-.14l4.6,1.88a.25.25,0,0,1-.09.48Z" fill="#d1d3d4"/><path d="M110.37,209.07a.26.26,0,0,1-.21-.11.24.24,0,0,1,.07-.34l3.89-2.55a.25.25,0,0,1,.34.07.25.25,0,0,1-.07.35L110.51,209A.25.25,0,0,1,110.37,209.07Z" fill="#d1d3d4"/><path d="M149.19,129.74a.51.51,0,0,1-.31-.11,4.81,4.81,0,0,0-5.6-.27.5.5,0,1,1-.57-.81,5.8,5.8,0,0,1,6.79.3.49.49,0,0,1,.08.7A.52.52,0,0,1,149.19,129.74Z" fill="#231f20"/><path d="M164.83,130.58a.52.52,0,0,1-.29-.09.5.5,0,0,1-.12-.69s1.74-2.42,4.91-.62a.49.49,0,0,1,.19.68.51.51,0,0,1-.68.19c-2.33-1.32-3.48.15-3.6.32A.51.51,0,0,1,164.83,130.58Z" fill="#231f20"/><path d="M141.49,126.55a.51.51,0,0,1-.42-.23.5.5,0,0,1,.15-.69,9.26,9.26,0,0,1,5.23-1.26,8.18,8.18,0,0,1,4.15,1.27.5.5,0,0,1,.11.7.51.51,0,0,1-.7.11,7.29,7.29,0,0,0-3.62-1.08,8.45,8.45,0,0,0-4.63,1.1A.5.5,0,0,1,141.49,126.55Z" fill="#231f20"/><path d="M162.75,127.9l-.16,0a.5.5,0,0,1-.32-.61c0-.17.59-1.65,3.71-1.72a11.57,11.57,0,0,1,4.33.69.51.51,0,0,1,.27.65.49.49,0,0,1-.65.27,10.87,10.87,0,0,0-3.93-.61c-2.38,0-2.77,1-2.78,1A.51.51,0,0,1,162.75,127.9Z" fill="#231f20"/><path d="M143.39,118.89,144,113s-1.76-.07-1.62-.28a13.59,13.59,0,0,0,0-2.4h28.94s-.28,2.25-.71,2.47a8.17,8.17,0,0,0-1,.63l1,5.84Z" fill="#fff"/><path d="M170.59,119.74h0l-27.19-.35a.48.48,0,0,1-.37-.17.47.47,0,0,1-.12-.38l.51-5.39c-1.32-.09-1.42-.29-1.52-.49a.57.57,0,0,1,0-.46,17.34,17.34,0,0,0,0-2.16.5.5,0,0,1,.5-.54h28.94a.48.48,0,0,1,.37.17.47.47,0,0,1,.12.39c-.31,2.52-.81,2.77-1,2.85a6.29,6.29,0,0,0-.67.41l1,5.54a.56.56,0,0,1-.11.41A.52.52,0,0,1,170.59,119.74Zm-26.65-1.34,26.05.33-.91-5.24a.51.51,0,0,1,.2-.49,8,8,0,0,1,1.06-.68,9.76,9.76,0,0,0,.35-1.52H142.86a15.71,15.71,0,0,1,0,1.59c.27,0,.69.07,1.09.09a.46.46,0,0,1,.35.17.46.46,0,0,1,.12.37Z" fill="#231f20"/><line x1="169.58" y1="113.4" x2="143.96" y2="112.98" fill="#fff"/><path d="M169.58,113.9h0L144,113.48a.5.5,0,0,1-.49-.51.49.49,0,0,1,.5-.49h0l25.63.42a.5.5,0,0,1,0,1Z" fill="#231f20"/><path d="M145,118.22h0a.25.25,0,0,1-.23-.27l.32-3.94a.25.25,0,1,1,.5,0l-.32,3.94A.25.25,0,0,1,145,118.22Z" fill="#d1d3d4"/><path d="M161.1,118.58h0a.25.25,0,0,1-.23-.27c.08-1.45.21-3.66.21-3.81a.25.25,0,0,1,.5,0c0,.21-.19,3.47-.21,3.84A.26.26,0,0,1,161.1,118.58Z" fill="#d1d3d4"/><path d="M160,118.51h0a.25.25,0,0,1-.23-.27c.08-1.45.21-3.66.21-3.81a.25.25,0,0,1,.25-.25.26.26,0,0,1,.25.25c0,.21-.19,3.47-.22,3.84A.24.24,0,0,1,160,118.51Z" fill="#d1d3d4"/><path d="M153.11,118.34h0a.25.25,0,0,1-.23-.27c.08-1.45.21-3.66.21-3.81a.25.25,0,1,1,.5,0c0,.21-.19,3.47-.21,3.84A.26.26,0,0,1,153.11,118.34Z" fill="#d1d3d4"/><path d="M152,118.27h0a.25.25,0,0,1-.23-.27c.08-1.45.21-3.66.21-3.81a.25.25,0,1,1,.5,0c0,.21-.19,3.47-.21,3.84A.25.25,0,0,1,152,118.27Z" fill="#d1d3d4"/><path d="M149.06,118.15a2.19,2.19,0,1,1,2.36-2.18A2.28,2.28,0,0,1,149.06,118.15Zm0-3.87a1.69,1.69,0,1,0,1.86,1.69A1.78,1.78,0,0,0,149.06,114.28Z" fill="#d1d3d4"/><path d="M156.66,118.36a2.19,2.19,0,1,1,2.36-2.18A2.28,2.28,0,0,1,156.66,118.36Zm0-3.87a1.69,1.69,0,1,0,1.86,1.69A1.79,1.79,0,0,0,156.66,114.49Z" fill="#d1d3d4"/><path d="M164.53,118.53a2.19,2.19,0,1,1,2.36-2.18A2.28,2.28,0,0,1,164.53,118.53Zm0-3.87a1.69,1.69,0,1,0,1.86,1.69A1.78,1.78,0,0,0,164.53,114.66Z" fill="#d1d3d4"/><polygon points="142.33 110.3 138.24 105.92 170.87 93.67 174.28 98.27 142.33 110.3" fill="#fff"/><path d="M142.33,110.8a.49.49,0,0,1-.37-.16l-4.09-4.38a.51.51,0,0,1-.12-.46.52.52,0,0,1,.31-.35L170.7,93.2a.5.5,0,0,1,.58.17l3.4,4.6a.53.53,0,0,1,.08.44.5.5,0,0,1-.3.32l-32,12A.47.47,0,0,1,142.33,110.8Zm-3.21-4.68,3.35,3.6,31-11.69-2.78-3.76Z" fill="#231f20"/><line x1="139.66" y1="107.45" x2="171.93" y2="95.1" fill="#231f20"/><path d="M139.67,108a.5.5,0,0,1-.18-1l32.26-12.35a.5.5,0,0,1,.65.29.49.49,0,0,1-.29.64l-32.27,12.35A.35.35,0,0,1,139.67,108Z" fill="#231f20"/><path d="M140.93,108.8c.09.09,32.24-12,32.24-12" fill="#231f20"/><path d="M140.77,109.23a.25.25,0,0,1-.21-.09.5.5,0,0,1,0-.71.42.42,0,0,1,.26-.12c1.13-.33,23.54-8.76,32.15-12a.5.5,0,0,1,.64.3.5.5,0,0,1-.29.64C145.52,107.73,141.54,109.23,140.77,109.23Z" fill="#231f20"/><polygon points="223.63 107.45 222.64 120.41 211.53 119.75 211.53 172.31 229.38 172.31 229.89 119.75 223.63 107.45" fill="#231f20"/><path d="M229.38,172.82H211.53a.5.5,0,0,1-.5-.5V119.75a.48.48,0,0,1,.15-.36.51.51,0,0,1,.38-.14l10.62.63,1-12.47a.49.49,0,0,1,.4-.45.48.48,0,0,1,.54.26l6.25,12.3a.53.53,0,0,1,.06.24l-.51,52.56A.5.5,0,0,1,229.38,172.82Zm-17.35-1h16.86l.5-51.95L224,109.26l-.86,11.19a.5.5,0,0,1-.53.46L212,120.28Z" fill="#231f20"/><path d="M244.64,101.57c.16-.45,15.1,1.22,15.1,1.22l-4.21,10.61,10.55-1-5.46,8h-16Z" fill="#231f20"/><path d="M260.62,120.91h-16a.5.5,0,0,1-.5-.5V101.57a.45.45,0,0,1,0-.16c.16-.46.29-.83,15.63.88a.52.52,0,0,1,.37.24.49.49,0,0,1,0,.44l-3.91,9.85,9.73-.95a.49.49,0,0,1,.48.24.5.5,0,0,1,0,.54l-5.46,8A.48.48,0,0,1,260.62,120.91Zm-15.48-1h15.21l4.72-6.94-9.49.93a.52.52,0,0,1-.45-.2.49.49,0,0,1-.06-.48l4-10c-4.93-.54-12.19-1.25-13.9-1.22Z" fill="#231f20"/><polygon points="269.44 102.28 265.7 109.31 270.72 107.56 269.44 102.28" fill="#231f20"/><path d="M265.7,109.81a.49.49,0,0,1-.38-.17.5.5,0,0,1-.07-.56l3.75-7a.52.52,0,0,1,.51-.26.51.51,0,0,1,.42.38l1.28,5.28a.51.51,0,0,1-.32.59l-5,1.75A.45.45,0,0,1,265.7,109.81Zm3.57-6.14-2.53,4.75,3.39-1.19Z" fill="#231f20"/><path d="M277.2,107.45v-4.66s-7.77-.79-7.76-.51.5,5.17.5,5.17Z" fill="#fff"/><path d="M277.2,108h-7.26a.5.5,0,0,1-.5-.45c-.05-.51-.48-4.91-.5-5.2a.56.56,0,0,1,.17-.4c.19-.19.41-.4,8.14.39a.5.5,0,0,1,.45.5v4.66A.5.5,0,0,1,277.2,108Zm-6.81-1h6.31v-3.71c-2.76-.28-5.66-.51-6.72-.53C270.06,103.58,270.24,105.45,270.39,107Z" fill="#231f20"/><polygon points="221.53 98.27 223.94 108.8 226.07 125.33 229.89 119.75 228.55 100.34 221.53 98.27" fill="#231f20"/><path d="M226.07,125.83l-.11,0a.47.47,0,0,1-.38-.42l-2.13-16.53-2.4-10.48a.5.5,0,0,1,.14-.48.51.51,0,0,1,.49-.11l7,2.07a.5.5,0,0,1,.36.45l1.34,19.41a.56.56,0,0,1-.09.31l-3.81,5.58A.51.51,0,0,1,226.07,125.83ZM222.21,99l2.22,9.7,2,15.27,3-4.35-1.3-18.89Z" fill="#231f20"/><polygon points="225.7 99.2 226.24 110.69 253.49 110.3 225.7 99.2" fill="#fff"/><path d="M226.24,111.19a.5.5,0,0,1-.5-.48l-.54-11.48a.5.5,0,0,1,.68-.49l27.79,11.1a.51.51,0,0,1,.31.55.49.49,0,0,1-.49.41l-27.25.39Zm0-11.23.48,10.22,24.27-.34Z" fill="#231f20"/><rect x="231.41" y="120.41" width="16.04" height="48.88" fill="#fff"/><path d="M247.45,169.79h-16a.51.51,0,0,1-.5-.5V120.41a.5.5,0,0,1,.5-.5h16a.5.5,0,0,1,.5.5v48.88A.5.5,0,0,1,247.45,169.79Zm-15.54-1h15V120.91h-15Z" fill="#231f20"/><polygon points="252.07 237.92 236.12 237.92 231.99 170.56 253.79 170.56 252.07 237.92" fill="#fff"/><path d="M252.07,238.42H236.12a.5.5,0,0,1-.5-.47l-4.13-67.36a.51.51,0,0,1,.13-.37.52.52,0,0,1,.37-.16h21.8a.51.51,0,0,1,.36.15.47.47,0,0,1,.14.37l-1.72,67.35A.51.51,0,0,1,252.07,238.42Zm-15.48-1h15l1.7-66.36H232.52Z" fill="#231f20"/><path d="M235.25,181.68a.5.5,0,0,1-.5-.49.49.49,0,0,1,.49-.51l14.5-.31a.48.48,0,0,1,.51.49.52.52,0,0,1-.49.51l-14.5.31Z" fill="#d1d3d4"/><polygon points="291.63 169.64 245.45 170.77 249.11 174.99 287.83 174.64 291.63 169.64" fill="#fff"/><path d="M249.11,175.49a.48.48,0,0,1-.37-.17l-3.66-4.23a.49.49,0,0,1,.36-.82l46.18-1.13a.5.5,0,0,1,.41.8l-3.8,5a.49.49,0,0,1-.4.2l-38.71.35Zm-2.58-4.25,2.81,3.25,38.24-.35,3-4Z" fill="#231f20"/><polygon points="249.11 174.99 252.07 237.92 292.63 237.92 287.83 174.64 249.11 174.99" fill="#fff"/><path d="M292.63,238.42H252.07a.5.5,0,0,1-.5-.48l-3-62.93a.54.54,0,0,1,.14-.36.48.48,0,0,1,.36-.16l38.71-.35a.5.5,0,0,1,.51.46l4.8,63.28a.5.5,0,0,1-.5.54Zm-40.08-1h39.54l-4.72-62.27-37.73.34Z" fill="#231f20"/><line x1="260.33" y1="237.92" x2="256.76" y2="188.18" fill="#fff"/><path d="M260.33,238.42a.5.5,0,0,1-.5-.47l-3.57-49.74a.5.5,0,0,1,1-.07l3.57,49.74a.5.5,0,0,1-.47.54Z" fill="#231f20"/><path d="M288.58,187.16l1.78-4.15s-17.17-.46-17,0,2.73,5.17,2.73,5.17Z" fill="#fff"/><path d="M276.1,188.68a.48.48,0,0,1-.44-.27c-.26-.48-2.56-4.73-2.75-5.21a.53.53,0,0,1,.06-.49c.19-.28.46-.66,17.41-.2a.52.52,0,0,1,.4.24.47.47,0,0,1,0,.46L289,187.35a.48.48,0,0,1-.42.3l-12.48,1Zm-2-5.31c.48.95,1.51,2.88,2.27,4.28l11.86-1,1.37-3.19C284.18,183.35,276.28,183.22,274.11,183.37Zm14.47,3.79h0Z" fill="#231f20"/><polygon points="248.55 188.18 258.26 188.18 260.8 183.72 246.79 184.07 248.55 188.18" fill="#fff"/><path d="M258.26,188.68h-9.71a.5.5,0,0,1-.46-.31l-1.76-4.1a.52.52,0,0,1,0-.47.51.51,0,0,1,.41-.23l14-.35a.5.5,0,0,1,.44.24.52.52,0,0,1,0,.51l-2.53,4.45A.51.51,0,0,1,258.26,188.68Zm-9.38-1H258l2-3.44-12.39.31Z" fill="#231f20"/><path d="M289,178.58l-7.15.42,1.17,2.18s3.66.08,3.94,0A19.66,19.66,0,0,0,289,178.58Z" fill="#fff"/><path d="M285.7,181.72c-.79,0-1.78,0-2.67,0a.49.49,0,0,1-.43-.26l-1.17-2.18a.51.51,0,0,1,0-.48.5.5,0,0,1,.41-.26l7.16-.42a.5.5,0,0,1,.46.26.53.53,0,0,1,0,.53c-1.87,2.68-2.15,2.75-2.34,2.8A11.56,11.56,0,0,1,285.7,181.72Zm-2.36-1c1.48,0,3,0,3.46,0a16.36,16.36,0,0,0,1.21-1.56l-5.33.32Z" fill="#231f20"/><polygon points="276.64 181.22 277.2 179.9 270.94 179.9 271.92 181.75 276.64 181.22" fill="#fff"/><path d="M271.92,182.25a.5.5,0,0,1-.44-.27l-1-1.85a.5.5,0,0,1,0-.49.49.49,0,0,1,.42-.24h6.27a.51.51,0,0,1,.42.22.49.49,0,0,1,0,.47l-.56,1.32a.5.5,0,0,1-.41.3l-4.71.53Zm4.72-1h0Zm-4.87-.82.43.81,4.09-.46.15-.35Z" fill="#231f20"/><polygon points="262.06 181.75 262.63 179.9 255.52 179.9 256.76 181.75 262.06 181.75" fill="#fff"/><path d="M262.07,182.25h-5.31a.52.52,0,0,1-.41-.22l-1.25-1.85a.51.51,0,0,1,0-.52.49.49,0,0,1,.44-.26h7.11a.48.48,0,0,1,.4.2.53.53,0,0,1,.08.44l-.57,1.85A.49.49,0,0,1,262.07,182.25Zm-5-1h4.66l.26-.85h-5.49Z" fill="#231f20"/><polygon points="251.37 181.75 252.14 179.9 249.34 179.9 247.99 181.22 249.47 182.46 251.37 181.75" fill="#fff"/><path d="M249.46,183a.49.49,0,0,1-.32-.12l-1.47-1.24a.5.5,0,0,1,0-.74l1.36-1.32a.48.48,0,0,1,.34-.14h2.8a.51.51,0,0,1,.42.22.49.49,0,0,1,0,.47l-.77,1.85a.53.53,0,0,1-.29.28l-1.9.71Zm-.73-1.77.83.7,1.43-.54.4-.95h-1.84Zm2.64.56h0Z" fill="#231f20"/><line x1="289.6" y1="172.32" x2="247.43" y2="173.05" fill="#fff"/><path d="M247.43,173.55a.51.51,0,0,1-.5-.49.52.52,0,0,1,.5-.51l42.16-.73a.5.5,0,0,1,.51.49.52.52,0,0,1-.5.51l-42.16.73Z" fill="#231f20"/><line x1="276.1" y1="188.18" x2="279.26" y2="237.92" fill="#fff"/><path d="M279.25,238.42a.49.49,0,0,1-.49-.47l-3.16-49.74a.49.49,0,0,1,.46-.53.51.51,0,0,1,.54.47l3.15,49.74a.5.5,0,0,1-.46.53Z" fill="#231f20"/><path d="M275.35,197.94H259.07l-.9-1.79s4-5.06,8.59-5.16,9.66,4.69,9.66,4.69Z" fill="#fff"/><path d="M275.35,198.44H259.07a.5.5,0,0,1-.44-.28l-.91-1.78a.53.53,0,0,1,.06-.54c.17-.21,4.24-5.25,9-5.35s9.8,4.62,10,4.82a.49.49,0,0,1,.11.58l-1.07,2.26A.5.5,0,0,1,275.35,198.44Zm-16-1H275l.78-1.64c-1.1-1-5.36-4.4-9-4.31s-7.14,3.75-8,4.73Z" fill="#231f20"/><line x1="275.06" y1="200.75" x2="259.07" y2="200.19" fill="#fff"/><path d="M275.06,201.25h0l-16-.56a.5.5,0,0,1-.49-.52.52.52,0,0,1,.52-.48l16,.56a.5.5,0,0,1,0,1Z" fill="#231f20"/><path d="M272.25,203.1H262.11l1.32,22.34s9.57-.19,9.94,0S272.25,203.1,272.25,203.1Z" fill="#231f20"/><path d="M263.43,225.94a.5.5,0,0,1-.5-.47l-1.32-22.34a.47.47,0,0,1,.14-.37.48.48,0,0,1,.36-.16h10.14a.5.5,0,0,1,.5.47c1.49,22.4,1.22,22.57.91,22.78a.52.52,0,0,1-.51,0c-.47-.08-6.22,0-9.71.06Zm-.79-22.34,1.26,21.33c5.83-.11,8.12-.09,9,0,0-2.34-.64-13.52-1.16-21.3Z" fill="#231f20"/><path d="M273.43,230.82h-9.6a.5.5,0,0,1-.5-.5v-3.45a.5.5,0,0,1,.5-.5h9.6a.5.5,0,0,1,.5.5v3.45A.5.5,0,0,1,273.43,230.82Zm-9.1-1h8.6v-2.45h-8.6Z" fill="#d1d3d4"/><polygon points="262.02 116.11 250.98 116.57 253.79 170.56 267.05 170.56 271.26 144.82 267.07 122.42 262.02 116.11" fill="#231f20"/><path d="M267.05,171.06H253.79a.49.49,0,0,1-.49-.47l-2.82-54a.53.53,0,0,1,.13-.36.48.48,0,0,1,.35-.16l11-.46a.48.48,0,0,1,.41.19l5,6.31a.62.62,0,0,1,.1.22l4.19,22.39a.54.54,0,0,1,0,.18l-4.2,25.74A.5.5,0,0,1,267.05,171.06Zm-12.78-1h12.36l4.12-25.24-4.15-22.18-4.81-6-10.28.43Z" fill="#231f20"/><polygon points="262.98 122.25 264.49 124.29 264.34 127.86 265.77 165.18 264.55 170.3 277.2 169.84 275.88 137.21 272 113.48 270.4 113.42 262.98 122.25" fill="#d1d3d4"/><path d="M264.55,170.8a.49.49,0,0,1-.38-.18.48.48,0,0,1-.1-.43l1.2-5.06-1.43-37.25.14-3.43-1.4-1.9a.5.5,0,0,1,0-.62l7.42-8.84a.52.52,0,0,1,.41-.17L272,113a.5.5,0,0,1,.47.42l3.89,23.73,1.32,32.69a.5.5,0,0,1-.13.36.48.48,0,0,1-.35.16l-12.65.46Zm-.93-48.53,1.27,1.73a.51.51,0,0,1,.1.32l-.15,3.56,1.43,37.28a.66.66,0,0,1,0,.14l-1.07,4.48,11.49-.42-1.29-32.13L271.57,114l-.94,0Z" fill="#231f20"/><polygon points="267.53 105.92 262.02 116.11 262.98 122.25 270.4 113.42 267.53 105.92" fill="#d1d3d4"/><path d="M263,122.75l-.13,0a.49.49,0,0,1-.36-.4l-1-6.14a.51.51,0,0,1,.05-.32l5.51-10.19a.52.52,0,0,1,.47-.26.5.5,0,0,1,.44.32l2.87,7.5a.5.5,0,0,1-.08.5l-7.43,8.83A.46.46,0,0,1,263,122.75Zm-.44-6.55.76,4.89,6.53-7.77-2.38-6.21Z" fill="#231f20"/><polygon points="278.98 113.78 283.17 106.96 267.53 105.92 269.94 113.39 278.98 113.78" fill="#fff"/><path d="M279,114.28h0l-9-.38a.49.49,0,0,1-.45-.35l-2.41-7.48a.48.48,0,0,1,.09-.46.49.49,0,0,1,.42-.19l15.65,1a.54.54,0,0,1,.41.27.52.52,0,0,1,0,.5L279.41,114A.5.5,0,0,1,279,114.28Zm-8.68-1.37,8.41.36,3.6-5.86-14.08-.94Z" fill="#231f20"/><path d="M279.33,118.92c0-.19-.35-5.14-.35-5.14l-9-.38.79,5.52Z" fill="#fff"/><path d="M270.73,119.42a.49.49,0,0,1-.49-.42l-.8-5.53a.5.5,0,0,1,.12-.41.49.49,0,0,1,.4-.16l9.05.38a.5.5,0,0,1,.47.47c.13,1.86.35,5,.35,5.19a.5.5,0,0,1-.5.48Zm8.6-.5h0Zm0,0h0Zm-8.81-5,.65,4.5h7.63c-.05-.87-.18-2.7-.28-4.16Z" fill="#231f20"/><path d="M272.91,165.18l-3.13-37.09a15.21,15.21,0,0,1,3.69-.69l7.59.33,4.39,37.45Z" fill="#fff"/><path d="M285.45,165.68H272.91a.5.5,0,0,1-.5-.46l-3.13-37.09a.5.5,0,0,1,.35-.52,15.11,15.11,0,0,1,3.86-.71l7.6.33a.5.5,0,0,1,.47.44l4.38,37.45a.52.52,0,0,1-.12.4A.51.51,0,0,1,285.45,165.68Zm-12.08-1h11.51l-4.26-36.47-7.17-.31a12.92,12.92,0,0,0-3.14.55Z" fill="#231f20"/><polygon points="289.02 169.31 288.58 167.34 285.45 165.18 272.91 165.18 270.37 167.25 270 170.17 289.02 169.31" fill="#fff"/><path d="M270,170.67a.52.52,0,0,1-.37-.16.51.51,0,0,1-.13-.41l.38-2.92a.48.48,0,0,1,.18-.32l2.53-2.07a.52.52,0,0,1,.32-.11h12.54a.47.47,0,0,1,.28.09l3.13,2.16a.49.49,0,0,1,.21.3l.44,2a.49.49,0,0,1-.09.42.52.52,0,0,1-.37.19l-19,.86Zm.84-3.16-.27,2.13,17.84-.8-.28-1.2-2.84-2H273.08Z" fill="#231f20"/><path d="M281.06,127.73l2-3.39s-15.27,1.13-15.17,1.09,1.86,2.66,1.86,2.66Z" fill="#fff"/><path d="M269.78,128.59a.5.5,0,0,1-.42-.23c-.74-1.12-1.59-2.38-1.75-2.55v0c-.14-.05-.16-.13-.19-.24a.5.5,0,0,1,.28-.58c.14-.06.24-.11.37,0,1.26-.07,9.45-.67,15-1.08a.5.5,0,0,1,.47.75l-2,3.39a.49.49,0,0,1-.41.25l-11.29.36Zm11.28-.86h0Zm-12.18-1.89c.28.4.65,1,1.16,1.74l10.74-.34,1.39-2.33-6.63.48C272,125.66,270,125.8,268.88,125.84Zm-1-.41h0Z" fill="#231f20"/><polygon points="280.06 124.56 279.83 120.3 270.12 120.07 270.63 125.25 280.06 124.56" fill="#fff"/><path d="M270.63,125.75a.52.52,0,0,1-.5-.45l-.51-5.18a.56.56,0,0,1,.13-.39.59.59,0,0,1,.38-.16l9.71.23a.5.5,0,0,1,.49.47l.23,4.26a.49.49,0,0,1-.46.53l-9.43.69Zm0-5.16.41,4.12,8.46-.61-.18-3.31Z" fill="#231f20"/><polygon points="279.83 120.3 280.98 118.8 269.44 118.31 270.12 120.07 279.83 120.3" fill="#fff"/><path d="M279.83,120.8h0l-9.71-.23a.49.49,0,0,1-.46-.32l-.67-1.77A.5.5,0,0,1,269,118a.47.47,0,0,1,.42-.2l11.54.49a.51.51,0,0,1,.43.29.47.47,0,0,1-.06.51l-1.14,1.5A.49.49,0,0,1,279.83,120.8Zm-9.36-1.22,9.12.21.41-.53-9.82-.42Z" fill="#231f20"/><circle cx="274.91" cy="115.65" r="2.04" fill="#fff"/><path d="M274.91,118.19h-.11a2.55,2.55,0,0,1-2.43-2.65h0a2.52,2.52,0,0,1,.82-1.76,2.58,2.58,0,0,1,1.83-.67,2.54,2.54,0,0,1-.11,5.08Zm0-4.08a1.5,1.5,0,0,0-1,.41,1.53,1.53,0,0,0-.5,1.07h0a1.54,1.54,0,0,0,2.58,1.2,1.55,1.55,0,0,0,.1-2.18,1.56,1.56,0,0,0-1.07-.5Zm-2,1.45h0Z" fill="#231f20"/><path d="M262.32,118.5a.54.54,0,0,1-.28-.08.51.51,0,0,1-.14-.7l6.14-9.2a.48.48,0,0,1,.43-.22l13.46.21a.5.5,0,0,1,.49.5.52.52,0,0,1-.51.5l-13.19-.21-6,9A.49.49,0,0,1,262.32,118.5Z" fill="#231f20"/><path d="M262.59,120.25a.5.5,0,0,1-.4-.8l6.71-9.06a.48.48,0,0,1,.42-.2c1.71.06,10.29.38,10.85.5a.5.5,0,0,1,.39.59.51.51,0,0,1-.59.39c-.47-.09-6.39-.32-10.43-.47L263,120.05A.51.51,0,0,1,262.59,120.25Z" fill="#231f20"/><polygon points="240.06 170.3 223.91 170.3 228.04 175.41 235.93 175.41 240.06 170.3" fill="#fff"/><path d="M235.93,175.91H228a.53.53,0,0,1-.39-.18l-4.13-5.11a.51.51,0,0,1-.06-.53.5.5,0,0,1,.45-.29h16.15a.49.49,0,0,1,.45.29.51.51,0,0,1-.06.53l-4.13,5.11A.53.53,0,0,1,235.93,175.91Zm-7.65-1h7.41L239,170.8H225Z" fill="#231f20"/><polygon points="235.93 175.41 236.12 179.9 228.23 179.9 228.04 175.41 235.93 175.41" fill="#fff"/><path d="M236.12,180.4h-7.89a.5.5,0,0,1-.5-.48l-.19-4.49a.54.54,0,0,1,.14-.36.52.52,0,0,1,.36-.16h7.89a.5.5,0,0,1,.5.48l.18,4.49a.47.47,0,0,1-.13.36A.52.52,0,0,1,236.12,180.4Zm-7.41-1h6.88l-.14-3.49h-6.89Z" fill="#231f20"/><path d="M237.36,179.57c-.21.07-10.07,0-10.07,0l1.2,2.6h7.88Z" fill="#fff"/><path d="M236.37,182.67h-7.88a.48.48,0,0,1-.45-.29l-1.2-2.61a.49.49,0,0,1,.45-.7h0c3.78,0,9.56.05,10,0a.45.45,0,0,1,.48.14.53.53,0,0,1,.07.53l-1,2.61A.5.5,0,0,1,236.37,182.67Zm-7.56-1H236l.6-1.58c-1,0-3.35,0-8.55,0Z" fill="#231f20"/><rect x="228.63" y="182.17" width="7.48" height="1.55" transform="translate(464.75 365.89) rotate(-180)" fill="#fff"/><path d="M236.12,184.22h-7.49a.5.5,0,0,1-.5-.5v-1.55a.5.5,0,0,1,.5-.5h7.49a.5.5,0,0,1,.5.5v1.55A.5.5,0,0,1,236.12,184.22Zm-7-1h6.49v-.55h-6.49Z" fill="#231f20"/><polygon points="238.34 183.37 238.06 186.53 236.12 188.65 228.63 188.18 227.29 186.39 227.29 182.94 238.34 183.37" fill="#fff"/><path d="M236.12,189.15h0l-7.48-.47a.53.53,0,0,1-.37-.2l-1.34-1.79a.51.51,0,0,1-.1-.3v-3.45a.52.52,0,0,1,.16-.36.47.47,0,0,1,.36-.14l11.05.43a.46.46,0,0,1,.36.17.49.49,0,0,1,.12.37l-.28,3.17a.51.51,0,0,1-.13.29l-2,2.11A.48.48,0,0,1,236.12,189.15Zm-7.23-1.46,7,.44,1.67-1.81.22-2.47-10-.39v2.77Z" fill="#231f20"/><polygon points="236.12 188.65 237.85 237.92 229.26 237.92 228.63 188.18 236.12 188.65" fill="#fff"/><path d="M237.85,238.42h-8.59a.51.51,0,0,1-.5-.49l-.63-49.75a.52.52,0,0,1,.16-.37.5.5,0,0,1,.37-.13l7.49.47a.48.48,0,0,1,.46.48l1.74,49.27a.47.47,0,0,1-.14.37A.51.51,0,0,1,237.85,238.42Zm-8.09-1h7.57l-1.7-48.3-6.49-.41Z" fill="#231f20"/><path d="M260.8,170.39v-2.11h-3.66a2.46,2.46,0,0,0-1.62-1.6L252.82,129l1.5-2.91s-.09-1.79.38-2.16.65-1.88.65-1.88l-11.91.31s2.81,1.66,2.44,2.41a7.15,7.15,0,0,0-.47,2.16l1.22,2.35.16,37.26s-1.67-.56-2,.33l-8.24.07-1.68-.73L231,130.08s2.5-3.66,2.59-4-.94-.72-.94-.72,1.41-.69,1.69-1.44a5,5,0,0,1,.66-1.23H224.38s1.32,3,1.69,2.67.94,0,.94,0-1.22.72-1.31,1.37,1,2.91,1,2.91l.09,38.07s-.75.22-.93.79-2,1.83-2,1.83Z" fill="#fff"/><path d="M260.8,170.89h0l-36.89-.09a.49.49,0,0,1-.47-.35.51.51,0,0,1,.18-.56,7.93,7.93,0,0,0,1.79-1.58,1.81,1.81,0,0,1,.91-1l-.09-37.61a8.27,8.27,0,0,1-1-3.1,1.82,1.82,0,0,1,.47-.87c-.27-.17-.8-.75-1.74-2.9a.49.49,0,0,1,0-.47.52.52,0,0,1,.42-.23H235a.5.5,0,0,1,.39.81,4.68,4.68,0,0,0-.58,1.09,2.88,2.88,0,0,1-1.12,1.23.85.85,0,0,1,.39.88,39.7,39.7,0,0,1-2.57,4l3.8,35.62,1.32.56,7.85-.06a1.89,1.89,0,0,1,1.82-.46l-.16-36.51L245,127.12a.47.47,0,0,1-.05-.26,7.44,7.44,0,0,1,.52-2.35,8.55,8.55,0,0,0-2.25-1.76.5.5,0,0,1,.24-.93l11.92-.31a.49.49,0,0,1,.51.56,4,4,0,0,1-.84,2.21,4.14,4.14,0,0,0-.19,1.74.47.47,0,0,1,0,.26l-1.44,2.78L256,166.32a3,3,0,0,1,1.49,1.46h3.32a.5.5,0,0,1,.5.5v2.11a.49.49,0,0,1-.15.36A.5.5,0,0,1,260.8,170.89Zm-35.44-1.09,34.94.09v-1.11h-3.16a.48.48,0,0,1-.48-.37,2,2,0,0,0-1.28-1.25.49.49,0,0,1-.36-.44L252.32,129a.48.48,0,0,1,.06-.26l1.44-2.79c0-.68,0-2,.57-2.44a2.58,2.58,0,0,0,.37-1l-9.73.25c.94.71,1.63,1.51,1.29,2.18a6.22,6.22,0,0,0-.4,1.83l1.15,2.22a.46.46,0,0,1,.06.22l.16,37.26a.49.49,0,0,1-.21.41.48.48,0,0,1-.45.07c-.41-.14-1.29-.27-1.42.05a.53.53,0,0,1-.46.31l-8.23.07a.46.46,0,0,1-.2-.05l-1.69-.72a.52.52,0,0,1-.3-.41l-3.84-36.09a.56.56,0,0,1,.08-.33c1-1.5,2.14-3.18,2.45-3.75a3.3,3.3,0,0,0-.53-.25.49.49,0,0,1-.35-.44.51.51,0,0,1,.28-.48,3.4,3.4,0,0,0,1.44-1.17c.08-.2.16-.39.24-.55h-8.93a10.68,10.68,0,0,0,.89,1.6,1.53,1.53,0,0,1,1.2.13.5.5,0,0,1,.25.43.51.51,0,0,1-.24.44c-.48.28-1,.77-1.08,1a9.35,9.35,0,0,0,1,2.62.54.54,0,0,1,0,.22l.09,38.06a.5.5,0,0,1-.35.48c-.16.06-.53.24-.61.48A3.56,3.56,0,0,1,225.36,169.8Z" fill="#231f20"/><path d="M253.33,122.12v-1.61a9.88,9.88,0,0,0,.57-1.5,2.24,2.24,0,0,0,0-.85l-28.81.66s-.33.94,0,1.08.84,0,.8.24.23,2.52.23,2.52Z" fill="#fff"/><path d="M226.12,123.16a.51.51,0,0,1-.5-.44c-.15-1.24-.21-1.9-.23-2.25a1.62,1.62,0,0,1-.5-.11c-.68-.29-.42-1.29-.27-1.71a.49.49,0,0,1,.46-.33l28.81-.66a.53.53,0,0,1,.5.38,2.74,2.74,0,0,1,0,1.06,9.77,9.77,0,0,1-.56,1.52v1.5a.49.49,0,0,1-.49.5l-27.21.54Zm-.67-3.69h.13a.88.88,0,0,1,.69.29.67.67,0,0,1,.1.48c0,.13.09,1,.19,1.9l26.27-.52v-1.12a.54.54,0,0,1,0-.21,9.91,9.91,0,0,0,.53-1.39,1,1,0,0,0,0-.24l-28,.64A1,1,0,0,0,225.45,119.47Zm27.88,2.65h0Z" fill="#231f20"/><line x1="245.93" y1="135.99" x2="231.62" y2="135.99" fill="#fff"/><path d="M245.93,136.49H231.62a.5.5,0,0,1-.5-.5.5.5,0,0,1,.5-.5h14.31a.51.51,0,0,1,.5.5A.5.5,0,0,1,245.93,136.49Z" fill="#231f20"/><line x1="245.93" y1="138.88" x2="232.06" y2="138.88" fill="#fff"/><path d="M245.93,139.38H232.06a.5.5,0,0,1,0-1h13.87a.5.5,0,0,1,0,1Z" fill="#231f20"/><polygon points="236.51 163.38 244.4 163.38 243.25 138.88 235.04 138.88 236.51 163.38" fill="#231f20"/><path d="M244.4,163.88h-7.89a.49.49,0,0,1-.49-.47l-1.48-24.5a.5.5,0,0,1,.13-.37.52.52,0,0,1,.37-.16h8.21a.5.5,0,0,1,.5.48l1.15,24.49a.55.55,0,0,1-.14.37A.5.5,0,0,1,244.4,163.88Zm-7.42-1h6.89l-1.1-23.5h-7.2Z" fill="#231f20"/><line x1="246.66" y1="163.38" x2="235.04" y2="163.38" fill="#231f20"/><path d="M246.66,163.88H235a.5.5,0,0,1-.5-.5.5.5,0,0,1,.5-.5h11.62a.5.5,0,0,1,.5.5A.51.51,0,0,1,246.66,163.88Z" fill="#231f20"/><path d="M240.85,210a.27.27,0,0,1-.24-.15.25.25,0,0,1,.14-.33l4.61-1.88a.25.25,0,0,1,.19.47L240.94,210A.15.15,0,0,1,240.85,210Z" fill="#d1d3d4"/><path d="M285.45,209.07a.23.23,0,0,1-.14,0l-3.89-2.54a.25.25,0,1,1,.28-.42l3.88,2.55a.25.25,0,0,1,.08.34A.26.26,0,0,1,285.45,209.07Z" fill="#d1d3d4"/><path d="M246.63,129.74a.5.5,0,0,1-.32-.89,5.82,5.82,0,0,1,6.8-.3.49.49,0,0,1,.12.69.5.5,0,0,1-.69.13,4.75,4.75,0,0,0-5.6.26A.51.51,0,0,1,246.63,129.74Z" fill="#231f20"/><path d="M231,130.58a.48.48,0,0,1-.41-.21c-.13-.17-1.28-1.64-3.6-.32a.52.52,0,0,1-.69-.19.5.5,0,0,1,.19-.68c3.18-1.8,4.9.59,4.92.62a.5.5,0,0,1-.13.69A.51.51,0,0,1,231,130.58Z" fill="#231f20"/><path d="M254.32,126.55a.53.53,0,0,1-.27-.08,8.51,8.51,0,0,0-4.63-1.1,7.22,7.22,0,0,0-3.61,1.08.51.51,0,0,1-.7-.11.5.5,0,0,1,.1-.7,8.24,8.24,0,0,1,4.16-1.27,9.26,9.26,0,0,1,5.23,1.26.5.5,0,0,1,.14.69A.48.48,0,0,1,254.32,126.55Z" fill="#231f20"/><path d="M233.06,127.91a.49.49,0,0,1-.47-.34s-.45-1-2.78-1a10.91,10.91,0,0,0-3.92.61.49.49,0,0,1-.65-.27.5.5,0,0,1,.26-.65,11.65,11.65,0,0,1,4.34-.69c3.12.07,3.65,1.55,3.7,1.72a.5.5,0,0,1-.33.62A.39.39,0,0,1,233.06,127.91Z" fill="#231f20"/><path d="M252.42,118.89l-.56-5.91s1.76-.07,1.62-.28a13.59,13.59,0,0,1,0-2.4H224.55s.28,2.25.7,2.47a8.66,8.66,0,0,1,1,.63l-1,5.84Z" fill="#fff"/><path d="M225.23,119.74a.49.49,0,0,1-.49-.58l.95-5.54a7.31,7.31,0,0,0-.66-.41c-.17-.08-.66-.33-1-2.85a.51.51,0,0,1,.12-.39.5.5,0,0,1,.38-.17h28.94a.48.48,0,0,1,.36.16.49.49,0,0,1,.14.38,15.37,15.37,0,0,0-.05,2.15.59.59,0,0,1,0,.47c-.1.2-.2.4-1.52.49l.51,5.39a.48.48,0,0,1-.13.38.46.46,0,0,1-.36.17l-27.2.35Zm-.1-8.94a5.31,5.31,0,0,0,.42,1.57,8.17,8.17,0,0,1,1,.63.5.5,0,0,1,.19.49l-.91,5.24,26.05-.33-.51-5.38a.5.5,0,0,1,.12-.37.46.46,0,0,1,.36-.17c.39,0,.81-.06,1.09-.09a14.83,14.83,0,0,1,0-1.59Z" fill="#231f20"/><line x1="226.24" y1="113.4" x2="251.86" y2="112.98" fill="#fff"/><path d="M226.24,113.9a.5.5,0,0,1,0-1l25.62-.42a.46.46,0,0,1,.51.49.52.52,0,0,1-.49.51l-25.62.42Z" fill="#231f20"/><path d="M250.8,118.22a.25.25,0,0,1-.25-.23l-.31-3.94a.25.25,0,0,1,.23-.27.26.26,0,0,1,.27.23l.31,3.94a.25.25,0,0,1-.23.27Z" fill="#d1d3d4"/><path d="M234.72,118.58a.26.26,0,0,1-.25-.24c0-.37-.21-3.63-.21-3.84a.25.25,0,0,1,.5,0c0,.15.12,2.36.21,3.81a.26.26,0,0,1-.24.27Z" fill="#d1d3d4"/><path d="M235.81,118.51a.25.25,0,0,1-.25-.24c0-.37-.21-3.63-.21-3.84a.25.25,0,1,1,.5,0c0,.15.12,2.36.21,3.81a.26.26,0,0,1-.24.27Z" fill="#d1d3d4"/><path d="M242.71,118.34a.26.26,0,0,1-.25-.24c0-.37-.21-3.63-.21-3.84a.25.25,0,1,1,.5,0c0,.15.12,2.36.21,3.81a.26.26,0,0,1-.24.27Z" fill="#d1d3d4"/><path d="M243.8,118.27a.25.25,0,0,1-.25-.24c0-.37-.21-3.63-.21-3.84a.25.25,0,1,1,.5,0c0,.15.12,2.36.21,3.81a.26.26,0,0,1-.24.27Z" fill="#d1d3d4"/><path d="M246.76,118.15a2.19,2.19,0,1,1,2.36-2.18A2.28,2.28,0,0,1,246.76,118.15Zm0-3.87a1.69,1.69,0,1,0,1.86,1.69A1.79,1.79,0,0,0,246.76,114.28Z" fill="#d1d3d4"/><path d="M239.15,118.36a2.19,2.19,0,1,1,2.37-2.18A2.28,2.28,0,0,1,239.15,118.36Zm0-3.87a1.69,1.69,0,1,0,1.87,1.69A1.79,1.79,0,0,0,239.15,114.49Z" fill="#d1d3d4"/><path d="M231.29,118.53a2.19,2.19,0,1,1,2.36-2.18A2.28,2.28,0,0,1,231.29,118.53Zm0-3.87a1.69,1.69,0,1,0,1.86,1.69A1.78,1.78,0,0,0,231.29,114.66Z" fill="#d1d3d4"/><polygon points="253.49 110.3 257.57 105.92 224.94 93.67 221.53 98.27 253.49 110.3" fill="#fff"/><path d="M253.49,110.8a.57.57,0,0,1-.18,0l-31.95-12a.46.46,0,0,1-.3-.32.49.49,0,0,1,.07-.44l3.41-4.6a.5.5,0,0,1,.58-.17l32.63,12.25a.5.5,0,0,1,.31.35.51.51,0,0,1-.12.46l-4.09,4.38A.46.46,0,0,1,253.49,110.8ZM222.33,98l31,11.69,3.35-3.6L225.12,94.27Z" fill="#231f20"/><line x1="256.15" y1="107.45" x2="223.88" y2="95.1" fill="#231f20"/><path d="M256.15,108a.39.39,0,0,1-.18,0L223.7,95.56a.5.5,0,0,1-.29-.64.5.5,0,0,1,.65-.29L256.33,107a.5.5,0,0,1,.29.65A.52.52,0,0,1,256.15,108Z" fill="#231f20"/><path d="M254.89,108.8c-.09.09-32.25-12-32.25-12" fill="#231f20"/><path d="M255,109.23c-.77,0-4.74-1.5-32.58-12a.5.5,0,0,1,.36-.94c8.6,3.25,31,11.68,32.15,12a.48.48,0,0,1,.26.12.5.5,0,0,1,0,.71A.22.22,0,0,1,255,109.23Z" fill="#231f20"/><path d="M192.52,94.18a5.43,5.43,0,0,1-.42-3.87c.64-2,1.62-2.32,2.82-3.31a6.31,6.31,0,0,0,1.69-2.81s1.12-.85,1.9,0,1.05,2.39,2.6,3.31,2.11,3.49,1.48,5.11-1.06,2.14-3.59,2.49S192.52,94.18,192.52,94.18Z" fill="#fff"/><path d="M198,95.66a21.85,21.85,0,0,1-5.65-1,.49.49,0,0,1-.28-.23,5.84,5.84,0,0,1-.46-4.27,5.35,5.35,0,0,1,2.29-3l.68-.52a5.71,5.71,0,0,0,1.52-2.56.48.48,0,0,1,.19-.27,1.91,1.91,0,0,1,2.57.06,6.27,6.27,0,0,1,.78,1.19,4.61,4.61,0,0,0,1.71,2c1.8,1.07,2.38,4,1.69,5.73s-1.34,2.44-4,2.8A7.12,7.12,0,0,1,198,95.66Zm-5.14-1.89a17.65,17.65,0,0,0,6.05.83c2.37-.33,2.64-.75,3.2-2.17s.05-3.72-1.27-4.5a5.79,5.79,0,0,1-2.08-2.4,5.08,5.08,0,0,0-.64-1,.86.86,0,0,0-1.11,0,6.45,6.45,0,0,1-1.79,2.88l-.72.55a4.33,4.33,0,0,0-1.94,2.52A4.8,4.8,0,0,0,192.88,93.77Z" fill="#231f20"/><path d="M195.2,104v-3.38l-3.1-5.07a20.48,20.48,0,0,0,5.31.42,46.41,46.41,0,0,0,5.53-.91l-3.31,5.77V104Z" fill="#fff"/><path d="M199.63,104.54H195.2a.5.5,0,0,1-.5-.5V100.8l-3-5a.48.48,0,0,1,0-.55.5.5,0,0,1,.51-.2,19.93,19.93,0,0,0,5.16.41,44.64,44.64,0,0,0,5.46-.9.49.49,0,0,1,.51.19.5.5,0,0,1,0,.55L200.13,101v3A.5.5,0,0,1,199.63,104.54Zm-3.93-1h3.43v-2.67a.55.55,0,0,1,.07-.25l2.75-4.8a40.06,40.06,0,0,1-4.5.69,19.23,19.23,0,0,1-4.34-.22l2.52,4.11a.59.59,0,0,1,.07.26Z" fill="#231f20"/><path d="M181,119.77a22.83,22.83,0,0,1-1.31-2,23.4,23.4,0,0,1-1.22-3.73l-.71-3.73s5.84-7.93,20.89-7.45,19.45,9,19.45,9l-1.34,2.65s-.56,1.55-1.06,2.54-3.09,5.28-3.09,5.28S204.64,110.24,181,119.77Z" fill="#fff"/><path d="M212.6,122.77a.5.5,0,0,1-.42-.23,14.43,14.43,0,0,0-6.76-4.65c-4.42-1.6-12.22-2.5-24.24,2.35a.51.51,0,0,1-.59-.17s-.82-1.13-1.35-2.06a24.07,24.07,0,0,1-1.27-3.86l-.71-3.76a.52.52,0,0,1,.09-.38c.25-.34,6.17-8.14,21.3-7.66s19.7,8.86,19.88,9.22a.45.45,0,0,1,0,.45l-1.33,2.66s-.56,1.53-1.06,2.53-3,5.14-3.11,5.32a.54.54,0,0,1-.42.24Zm-15-7.2c9.14,0,13.57,4.2,14.94,5.81.74-1.22,2.33-3.88,2.7-4.61.47-1,1-2.47,1-2.49l1.24-2.46c-.81-1.29-5.68-8-18.9-8.47-13.39-.41-19.39,6-20.33,7.09l.66,3.5a22.3,22.3,0,0,0,1.16,3.58c.34.58.79,1.26,1.06,1.64A45,45,0,0,1,197.61,115.57Z" fill="#231f20"/><path d="M212.91,123.75V119s-4-6-15.13-5.77c-11.85.23-16.87,5-16.87,5v7.38S205.15,123,212.91,123.75Z" fill="#fff"/><path d="M180.91,126a.51.51,0,0,1-.33-.13.5.5,0,0,1-.17-.37v-7.38a.48.48,0,0,1,.16-.36c.21-.2,5.3-4.86,17.2-5.09,11.29-.2,15.39,5.74,15.56,6a.47.47,0,0,1,.09.28v4.79a.5.5,0,0,1-.17.37.47.47,0,0,1-.38.12C205.24,123.48,181.2,126,181,126Zm.5-7.65V125c3.65-.37,23.38-2.33,31-1.76v-4.07c-.64-.82-4.84-5.64-14.63-5.44C187.43,113.89,182.34,117.61,181.41,118.37Z" fill="#231f20"/><path d="M214.2,126l-1.29-2.29s-6-3.7-16.51-3.61c-9.19.09-14.55,2.54-15.7,4.17-.5.7,1.25,3.52,1.25,3.52L199.42,126Z" fill="#fff"/><path d="M182,128.33a.52.52,0,0,1-.43-.24c-.71-1.15-1.83-3.22-1.23-4.07,1.21-1.71,6.5-4.29,16.1-4.38,10.5-.08,16.53,3.53,16.79,3.68a.49.49,0,0,1,.17.18l1.29,2.3a.48.48,0,0,1,0,.49.5.5,0,0,1-.43.25H199.42L182,128.33Zm14.83-7.69h-.38c-9.5.09-14.41,2.71-15.29,4a6.65,6.65,0,0,0,1.1,2.7l17.16-1.76h14l-.8-1.43C211.7,123.64,206,120.64,196.78,120.64Z" fill="#231f20"/><path d="M189,124.94a23.6,23.6,0,0,1,8.8-1.62,29.36,29.36,0,0,1,9.08,2l-1.45,6L189.92,131Z" fill="#d1d3d4"/><path d="M205.41,131.88h0l-15.48-.38a.5.5,0,0,1-.48-.43l-.94-6a.5.5,0,0,1,.3-.54,23.44,23.44,0,0,1,9-1.66,29.68,29.68,0,0,1,9.25,2.05.51.51,0,0,1,.3.58l-1.46,6A.49.49,0,0,1,205.41,131.88Zm-15.06-1.37,14.66.36,1.26-5.23a28.45,28.45,0,0,0-8.51-1.82,23.09,23.09,0,0,0-8.22,1.44Z" fill="#231f20"/><rect x="188.98" y="130.78" width="16.42" height="41.53" fill="#fff"/><path d="M205.41,172.82H189a.51.51,0,0,1-.5-.5V130.78a.5.5,0,0,1,.5-.5h16.43a.5.5,0,0,1,.5.5v41.54A.51.51,0,0,1,205.41,172.82Zm-15.93-1h15.43V131.28H189.48Z" fill="#231f20"/><path d="M167.75,118.44h0a.25.25,0,0,1-.23-.27l.24-3.68a.27.27,0,0,1,.27-.24.25.25,0,0,1,.23.27l-.24,3.69A.25.25,0,0,1,167.75,118.44Z" fill="#d1d3d4"/><path d="M212.91,125.52l3.05.76-2.81,3-1.46,1.83s-.75-2.42-.28-3.67A4.3,4.3,0,0,1,212.91,125.52Z" fill="#fff"/><path d="M211.69,131.61h-.09a.47.47,0,0,1-.38-.34c-.09-.26-.79-2.63-.28-4a4.79,4.79,0,0,1,1.7-2.16.51.51,0,0,1,.4-.07l3.05.77a.48.48,0,0,1,.35.34.5.5,0,0,1-.11.48l-2.82,3-1.43,1.79A.49.49,0,0,1,211.69,131.61Zm1.33-5.55a3.84,3.84,0,0,0-1.14,1.55,5.16,5.16,0,0,0,.05,2.4l.83-1,2.26-2.41Z" fill="#231f20"/><path d="M204.84,170.3V128.07l1.5-4.75s6.67,2,6.57,2.2a53.63,53.63,0,0,0-1.22,5.59c.1.38,0,38.83,0,38.83Z" fill="#fff"/><path d="M204.84,170.8a.48.48,0,0,1-.34-.14.52.52,0,0,1-.16-.36V128.07a.4.4,0,0,1,0-.15l1.5-4.75a.49.49,0,0,1,.61-.33c6.63,1.94,6.77,2.21,6.88,2.44a.53.53,0,0,1,0,.41c-.12.36-1.2,4.84-1.19,5.36.08.3.05,21.32,0,38.89a.5.5,0,0,1-.47.5l-6.85.36Zm.5-42.65v41.62l5.85-.3c0-13.17.08-37.49,0-38.3a36.62,36.62,0,0,1,1.14-5.42c-.82-.33-3.3-1.11-5.67-1.82Z" fill="#231f20"/><path d="M203.25,172.32v-2a11.59,11.59,0,0,1,2.16-1.55c.47-.09,6.38,0,6.38,0a22.16,22.16,0,0,0,1.88,1.55c.75.51.84,2,.84,2Z" fill="#fff"/><path d="M214.51,172.82H203.25a.5.5,0,0,1-.5-.5v-2a.49.49,0,0,1,.17-.38,9.11,9.11,0,0,1,2.39-1.66c.48-.1,5.09,0,6.49,0a.51.51,0,0,1,.33.13,23,23,0,0,0,1.82,1.5,3.52,3.52,0,0,1,1.06,2.4.49.49,0,0,1-.14.38A.48.48,0,0,1,214.51,172.82Zm-10.76-1h10.18a1.86,1.86,0,0,0-.55-1.11c-.62-.43-1.46-1.17-1.79-1.46-2.74-.05-5.76-.06-6.09,0a10.93,10.93,0,0,0-1.75,1.29Z" fill="#231f20"/><polygon points="204.84 131.28 207.2 130.22 208.88 124.08 206.34 123.32 204.84 128.07 204.84 131.28" fill="#fff"/><path d="M204.84,131.78a.53.53,0,0,1-.27-.08.5.5,0,0,1-.23-.42v-3.21a.4.4,0,0,1,0-.15l1.5-4.75a.49.49,0,0,1,.62-.33l2.53.76a.5.5,0,0,1,.34.61l-1.68,6.14a.5.5,0,0,1-.27.33l-2.36,1A.54.54,0,0,1,204.84,131.78Zm.5-3.63v2.36l1.44-.65,1.49-5.44-1.6-.48Z" fill="#231f20"/><path d="M211.69,130.59a.49.49,0,0,1-.39-.2,5.29,5.29,0,0,0-1.29-.62,4.37,4.37,0,0,0-2.38-.16.5.5,0,0,1-.61-.36.5.5,0,0,1,.35-.61,5.41,5.41,0,0,1,3,.2c1.39.54,1.68.84,1.77,1a.5.5,0,0,1-.22.67A.46.46,0,0,1,211.69,130.59Z" fill="#231f20"/><path d="M206.58,131.28s3.42-.64,5.11.4" fill="#fff"/><path d="M211.69,132.18a.5.5,0,0,1-.26-.08c-1.25-.76-3.86-.5-4.76-.33a.5.5,0,0,1-.18-1c.15,0,3.63-.66,5.46.46a.5.5,0,0,1,.17.69A.51.51,0,0,1,211.69,132.18Z" fill="#231f20"/><path d="M182.65,125.52l-3.05.76,2.81,3,1.46,1.83s.75-2.42.28-3.67A4.3,4.3,0,0,0,182.65,125.52Z" fill="#fff"/><path d="M183.87,131.61a.49.49,0,0,1-.39-.19L182,129.6l-2.79-3a.5.5,0,0,1-.11-.48.48.48,0,0,1,.36-.34l3.05-.77a.5.5,0,0,1,.39.07,4.72,4.72,0,0,1,1.7,2.16c.51,1.37-.19,3.74-.28,4a.47.47,0,0,1-.38.34Zm-3.33-5.05,2.24,2.38.85,1.07a5.16,5.16,0,0,0,.05-2.4,3.84,3.84,0,0,0-1.14-1.55Z" fill="#231f20"/><path d="M190.72,170.3V128.07l-1.5-4.75s-6.67,2-6.57,2.2a53.63,53.63,0,0,1,1.22,5.59c-.1.38,0,38.83,0,38.83Z" fill="#fff"/><path d="M190.72,170.8h0l-6.85-.36a.5.5,0,0,1-.47-.5c-.05-17.57-.08-38.59,0-38.95s-1.08-4.94-1.2-5.3a.58.58,0,0,1,0-.41c.11-.23.25-.5,6.88-2.44a.49.49,0,0,1,.61.33l1.51,4.75a.77.77,0,0,1,0,.15V170.3a.52.52,0,0,1-.16.36A.48.48,0,0,1,190.72,170.8Zm-6.35-1.33,5.85.3V128.15l-1.33-4.22c-2.37.71-4.84,1.49-5.67,1.82a34.52,34.52,0,0,1,1.13,5.48C184.29,132,184.33,156.3,184.37,169.47Z" fill="#231f20"/><path d="M192.31,172.32v-2a11.81,11.81,0,0,0-2.15-1.55c-.47-.09-6.39,0-6.39,0a23.16,23.16,0,0,1-1.87,1.55c-.75.51-.85,2-.85,2Z" fill="#fff"/><path d="M192.31,172.82H181.05a.48.48,0,0,1-.36-.16.49.49,0,0,1-.14-.38,3.52,3.52,0,0,1,1.06-2.4c.72-.49,1.81-1.49,1.83-1.5a.49.49,0,0,1,.33-.13c1.39,0,6-.09,6.48,0a9.11,9.11,0,0,1,2.39,1.66.49.49,0,0,1,.17.38v2A.5.5,0,0,1,192.31,172.82Zm-10.68-1h10.18v-1.29a10.43,10.43,0,0,0-1.76-1.29c-.32-.05-3.34,0-6.08,0-.33.29-1.17,1-1.79,1.46A1.86,1.86,0,0,0,181.63,171.82Z" fill="#231f20"/><polygon points="190.72 131.28 188.36 130.22 186.68 124.08 189.22 123.32 190.72 128.07 190.72 131.28" fill="#fff"/><path d="M190.72,131.78a.54.54,0,0,1-.21-.05l-2.35-1a.49.49,0,0,1-.28-.33l-1.68-6.14a.5.5,0,0,1,.34-.61l2.53-.76a.49.49,0,0,1,.62.33l1.51,4.75a.77.77,0,0,1,0,.15v3.21a.5.5,0,0,1-.23.42A.53.53,0,0,1,190.72,131.78Zm-1.94-1.92,1.44.65v-2.36l-1.33-4.21-1.6.48Z" fill="#231f20"/><path d="M183.87,130.59a.46.46,0,0,1-.23-.06.5.5,0,0,1-.22-.67c.1-.18.38-.48,1.77-1a5.4,5.4,0,0,1,3-.2.5.5,0,0,1,.35.61.49.49,0,0,1-.6.36,4.41,4.41,0,0,0-2.39.16,5.29,5.29,0,0,0-1.29.62A.47.47,0,0,1,183.87,130.59Z" fill="#231f20"/><path d="M189,131.28s-3.42-.64-5.11.4" fill="#fff"/><path d="M183.87,132.18a.51.51,0,0,1-.43-.24.5.5,0,0,1,.17-.69c1.83-1.12,5.32-.49,5.46-.46a.5.5,0,1,1-.18,1c-.9-.17-3.51-.43-4.76.33A.5.5,0,0,1,183.87,132.18Z" fill="#231f20"/><path d="M187.57,130.46a25.37,25.37,0,0,1,10.8-1.45,34.84,34.84,0,0,1,9.95,1.82l-2.16,1.79s-12-2.35-16.33-.57Z" fill="#fff"/><path d="M206.16,133.12h-.1c-.12,0-11.91-2.3-16-.6a.49.49,0,0,1-.48,0l-2.25-1.59a.51.51,0,0,1-.21-.46.5.5,0,0,1,.3-.41,25.62,25.62,0,0,1,11-1.49,35.12,35.12,0,0,1,10.1,1.86.5.5,0,0,1,.31.39.49.49,0,0,1-.18.46L206.48,133A.49.49,0,0,1,206.16,133.12Zm-11.39-2.24a69.37,69.37,0,0,1,11.25,1.2l1.29-1.06a39.07,39.07,0,0,0-9-1.51,26.61,26.61,0,0,0-9.68,1.09l1.25.89A15.49,15.49,0,0,1,194.77,130.88Z" fill="#231f20"/><path d="M190.72,137.4s9.52-1.41,14.12.33" fill="#fff"/><path d="M204.84,138.23a.47.47,0,0,1-.17,0c-4.43-1.67-13.78-.32-13.88-.3a.51.51,0,0,1-.57-.42.5.5,0,0,1,.43-.57c.39-.06,9.7-1.41,14.37.35a.5.5,0,0,1-.18,1Z" fill="#231f20"/><path d="M190.72,135.38s7.79-1.64,14.12.24" fill="#fff"/><path d="M204.84,136.12l-.14,0c-6.13-1.82-13.8-.24-13.88-.23a.5.5,0,1,1-.2-1c.32-.07,8-1.65,14.36.24a.5.5,0,0,1,.34.62A.49.49,0,0,1,204.84,136.12Z" fill="#231f20"/><path d="M192.45,137.79a12.08,12.08,0,0,1,5.78-.93c3.69.17,5,.93,5,.93v21.29h-10.8Z" fill="#231f20"/><path d="M203.25,159.58h-10.8a.5.5,0,0,1-.5-.5V137.79a.52.52,0,0,1,.27-.44,12.47,12.47,0,0,1,6-1c3.77.17,5.19,1,5.25,1a.5.5,0,0,1,.25.43v21.29A.5.5,0,0,1,203.25,159.58Zm-10.3-1h9.8V138.11a15,15,0,0,0-4.55-.75,12.52,12.52,0,0,0-5.25.76Z" fill="#231f20"/><path d="M203.25,165.65h-10.8a.5.5,0,0,1-.5-.5v-4a.5.5,0,0,1,.5-.5h10.8a.5.5,0,0,1,.5.5v4A.5.5,0,0,1,203.25,165.65Zm-10.3-1h9.8v-3H193Z" fill="#d1d3d4"/><path d="M216.67,115a.5.5,0,0,1-.38-.17c-.06-.07-5.87-6.81-18.91-7.47-12.71-.64-18.55,7-18.6,7a.49.49,0,0,1-.7.1.5.5,0,0,1-.1-.7c.24-.33,6.21-8.09,19.45-7.42,13.51.68,19.38,7.53,19.62,7.82a.51.51,0,0,1-.06.71A.48.48,0,0,1,216.67,115Z" fill="#231f20"/><path d="M214.72,119.74a.51.51,0,0,1-.46-.31c0-.08-3.54-8.31-17.08-8.31h0c-12.19,0-17.1,6.86-17.15,6.93a.51.51,0,0,1-.7.12.49.49,0,0,1-.12-.69c.2-.3,5.22-7.35,18-7.36h0c14.26,0,17.86,8.57,18,8.94a.49.49,0,0,1-.28.64A.41.41,0,0,1,214.72,119.74Z" fill="#231f20"/><path d="M193.52,95.84s-1.35-1-1-1.66,1.69-1.76,5-1.55,4.31.53,4.44,1.59S199.94,97.36,193.52,95.84Z" fill="#fff"/><path d="M197.58,96.88a18.66,18.66,0,0,1-4.17-.55.66.66,0,0,1-.19-.09c-.28-.22-1.67-1.34-1.13-2.3.19-.35,1.36-2.07,5.46-1.8,2.93.18,4.72.41,4.9,2a1.85,1.85,0,0,1-.71,1.53A6.13,6.13,0,0,1,197.58,96.88Zm-3.83-1.5c5,1.17,6.88,0,7.32-.43a.89.89,0,0,0,.39-.67c-.07-.62-.66-.94-4-1.15-2.9-.18-4.21.73-4.53,1.3C193,94.58,193.33,95,193.75,95.38Z" fill="#231f20"/><path d="M192.47,89.42s1.33-2.18,5.37-1.71S202.4,89,202.4,89" fill="#fff"/><path d="M192.47,89.92a.51.51,0,0,1-.43-.76c.06-.1,1.55-2.44,5.86-2,4,.46,4.78,1.31,4.93,1.57a.49.49,0,0,1-.17.68.5.5,0,0,1-.69-.17h0s-.72-.69-4.19-1.09c-3.68-.42-4.88,1.46-4.89,1.48A.5.5,0,0,1,192.47,89.92Z" fill="#231f20"/><path d="M201.06,119.05a2.19,2.19,0,1,1,2.13-2.18A2.16,2.16,0,0,1,201.06,119.05Zm0-3.87a1.69,1.69,0,0,0,0,3.37,1.69,1.69,0,0,0,0-3.37Z" fill="#d1d3d4"/><path d="M206.86,120.39a2.24,2.24,0,1,1,1.73-2.18A2,2,0,0,1,206.86,120.39Zm0-3.87c-.67,0-1.22.76-1.22,1.69s.55,1.68,1.22,1.68,1.23-.75,1.23-1.68S207.54,116.52,206.86,116.52Z" fill="#d1d3d4"/><path d="M188.06,120.06a2.24,2.24,0,1,1,1.73-2.18A2,2,0,0,1,188.06,120.06Zm0-3.87c-.67,0-1.22.76-1.22,1.69s.55,1.68,1.22,1.68,1.23-.75,1.23-1.68S188.74,116.19,188.06,116.19Z" fill="#d1d3d4"/><path d="M211,121.7c-.68,0-1.22-.82-1.22-1.87S210.29,118,211,118s1.23.82,1.23,1.87S211.66,121.7,211,121.7Zm0-3.24c-.34,0-.72.56-.72,1.37s.38,1.37.72,1.37.73-.57.73-1.37S211.32,118.46,211,118.46Z" fill="#d1d3d4"/><path d="M183.62,121.11c-.68,0-1.22-.82-1.22-1.87s.54-1.87,1.22-1.87,1.23.82,1.23,1.87S184.31,121.11,183.62,121.11Zm0-3.24c-.34,0-.72.56-.72,1.37s.38,1.37.72,1.37.73-.56.73-1.37S184,117.87,183.62,117.87Z" fill="#d1d3d4"/><path d="M194.27,119.05h-.11a2.17,2.17,0,0,1-2-2.29,2.19,2.19,0,0,1,.7-1.51,2.09,2.09,0,0,1,3,.15,2.23,2.23,0,0,1,.55,1.58A2.17,2.17,0,0,1,194.27,119.05Zm0-3.87a1.62,1.62,0,0,0-1.1.43,1.78,1.78,0,0,0-.54,1.17,1.64,1.64,0,1,0,3.27.17,1.75,1.75,0,0,0-.42-1.22,1.63,1.63,0,0,0-1.13-.55Z" fill="#d1d3d4"/><path d="M190.72,119.49a.25.25,0,0,1-.25-.25v-4.31a.25.25,0,1,1,.5,0v4.31A.25.25,0,0,1,190.72,119.49Z" fill="#d1d3d4"/><path d="M185.37,121.1a.25.25,0,0,1-.25-.25v-4.31a.25.25,0,0,1,.5,0v4.31A.25.25,0,0,1,185.37,121.1Z" fill="#d1d3d4"/><path d="M197.52,119.05a.25.25,0,0,1-.25-.25v-4.53a.25.25,0,0,1,.5,0v4.53A.25.25,0,0,1,197.52,119.05Z" fill="#d1d3d4"/><path d="M204.16,119.6a.25.25,0,0,1-.25-.25v-4.53a.25.25,0,0,1,.25-.25.25.25,0,0,1,.25.25v4.53A.25.25,0,0,1,204.16,119.6Z" fill="#d1d3d4"/><path d="M209.14,121.09a.25.25,0,0,1-.25-.25v-3.75a.25.25,0,0,1,.25-.25.25.25,0,0,1,.25.25v3.75A.25.25,0,0,1,209.14,121.09Z" fill="#d1d3d4"/><path d="M190.72,231s-2.68-2-1.74-3.66a34,34,0,0,0,1.74-3.8v-24.5h14.69V225l1.54.47-1.54,1.08L207,232Z" fill="#231f20"/><path d="M207,232.51h0l-16.23-1a.52.52,0,0,1-.27-.1c-.12-.09-3-2.25-1.88-4.3a33.71,33.71,0,0,0,1.68-3.65V199.06a.5.5,0,0,1,.5-.5h14.69a.51.51,0,0,1,.5.5V224.6l1.19.36a.5.5,0,0,1,.14.89l-1.26.87,1.46,5.15a.49.49,0,0,1-.1.45A.48.48,0,0,1,207,232.51Zm-16-2,15.37.93-1.36-4.81a.52.52,0,0,1,.2-.54l.7-.49-.56-.17a.5.5,0,0,1-.35-.48V199.56H191.22v24a.57.57,0,0,1,0,.18,37.63,37.63,0,0,1-1.77,3.86C188.81,228.7,190.46,230.16,190.91,230.53Z" fill="#231f20"/><path d="M209.79,189.38a1.58,1.58,0,0,1-.73-1.52,1.85,1.85,0,0,1,1.12-1.33,5.29,5.29,0,0,1,1.77-.38,2.9,2.9,0,0,1,1.18-2.18,1.58,1.58,0,0,0,.45-.4,1.36,1.36,0,0,0,.12-.49,9,9,0,0,1,.49-2c.13-.37.41-.79.79-.71h5.29a4.84,4.84,0,0,0,.17,3.54,2.41,2.41,0,0,1,.22.42c.16.52-.31,1.13,0,1.61.13.21.37.32.55.49a1.47,1.47,0,0,1,.17,1.72,4.2,4.2,0,0,1-1.27,1.32,1.58,1.58,0,0,1-.6.35,1.83,1.83,0,0,1-.7,0,15.06,15.06,0,0,0-2.83-.32c-.77,0-1.5.49-2.2.51-.52,0-.62-.28-1-.53C211.8,188.84,211,190.14,209.79,189.38Z" fill="#fff"/><path d="M213.71,190.47a1.4,1.4,0,0,1-1-.42,1.68,1.68,0,0,0-.24-.19c-.22-.14-.41-.1-.87.06a2.22,2.22,0,0,1-2.08-.12,2.07,2.07,0,0,1-1-2,2.37,2.37,0,0,1,1.41-1.71,5.36,5.36,0,0,1,1.53-.38,3.41,3.41,0,0,1,1.34-2.13l.09-.06a.41.41,0,0,0,.27-.46,9.21,9.21,0,0,1,.52-2.16c.26-.73.76-1.12,1.3-1h5.25a.51.51,0,0,1,.39.19.53.53,0,0,1,.1.42,4.44,4.44,0,0,0,.11,3.18,2.36,2.36,0,0,1,.27.52,1.93,1.93,0,0,1,0,1c0,.19-.09.4,0,.48a.8.8,0,0,0,.21.18,2.52,2.52,0,0,1,.25.21,2,2,0,0,1,.28,2.31,4.71,4.71,0,0,1-1.41,1.49,1.81,1.81,0,0,1-1.69.43l-.35-.06A14.06,14.06,0,0,0,216,190a3.68,3.68,0,0,0-1,.24,4,4,0,0,1-1.18.27Zm-1.52-1.69a1.45,1.45,0,0,1,.81.24,3.13,3.13,0,0,1,.38.28c.16.15.2.18.35.17a3.36,3.36,0,0,0,.9-.22,4.48,4.48,0,0,1,1.31-.29,13.68,13.68,0,0,1,2.58.27l.34.05a1.28,1.28,0,0,0,.5,0,1.5,1.5,0,0,0,.42-.26,3.85,3.85,0,0,0,1.13-1.16,1,1,0,0,0-.07-1.12l-.16-.13a1.46,1.46,0,0,1-.48-.48,1.56,1.56,0,0,1-.07-1.21,1.4,1.4,0,0,0,.05-.51,1.44,1.44,0,0,0-.11-.2l-.06-.1a4.7,4.7,0,0,1-.36-3.3h-4.77a1.16,1.16,0,0,0-.22.39,8.53,8.53,0,0,0-.46,1.92,1.84,1.84,0,0,1-.19.68,1.6,1.6,0,0,1-.51.5,2.49,2.49,0,0,0-1.06,1.85.5.5,0,0,1-.44.48,5,5,0,0,0-1.61.33,1.41,1.41,0,0,0-.84,1,1.1,1.1,0,0,0,.51,1h0c.41.26.72.18,1.23,0A2.82,2.82,0,0,1,212.19,188.78Z" fill="#231f20"/><path d="M181.05,219.59h0a16.65,16.65,0,0,1-3.18-1.43.25.25,0,0,1,.25-.44,15.6,15.6,0,0,0,3,1.38.25.25,0,0,1,.21.29A.26.26,0,0,1,181.05,219.59Z" fill="#d1d3d4"/><path d="M215.66,210a.25.25,0,0,1-.22-.13.24.24,0,0,1,.11-.34l1.85-.94a.25.25,0,0,1,.23.45l-1.86.94Z" fill="#d1d3d4"/><polygon points="186.17 196.91 210 197.47 210 199.06 186.17 199.44 186.17 196.91" fill="#fff"/><path d="M186.17,199.94a.5.5,0,0,1-.35-.14.51.51,0,0,1-.15-.36v-2.53a.48.48,0,0,1,.15-.36.5.5,0,0,1,.36-.14L210,197a.49.49,0,0,1,.48.5v1.59a.49.49,0,0,1-.49.5l-23.84.38Zm.5-2.52v1.51l22.83-.36V198Z" fill="#231f20"/><path d="M195.77,188.83a16.23,16.23,0,0,0,.3-2.11,9.89,9.89,0,0,1,1.12-1.57c.14,0,4-.21,4.13,0a13.81,13.81,0,0,1,0,2h-1l.38,2Z" fill="#fff"/><path d="M200.67,189.67h0l-4.9-.34a.52.52,0,0,1-.46-.43.54.54,0,0,1,.06-.31c.06-.25.17-1.16.24-1.92a.52.52,0,0,1,.07-.21c1.16-1.87,1.32-1.85,1.63-1.8l.65,0c3.54-.14,3.68-.07,3.86.32.05.1.14.32,0,2.27a.5.5,0,0,1-.5.47h-.42l.26,1.38a.51.51,0,0,1-.12.43A.48.48,0,0,1,200.67,189.67Zm-4.29-1.3,3.67.25-.25-1.33a.51.51,0,0,1,.49-.6h.56c0-.42,0-.84,0-1.12-.66,0-2.24,0-2.9.06l-.57,0c-.18.23-.54.76-.84,1.24C196.49,187.56,196.44,188,196.38,188.37Z" fill="#231f20"/><polygon points="184.29 194.91 184.29 193.08 197.52 188.18 211.81 192.31 211.53 195.19 184.29 194.91" fill="#fff"/><path d="M211.53,195.69h0l-27.23-.28a.5.5,0,0,1-.5-.5v-1.83a.5.5,0,0,1,.33-.47l13.23-4.9a.47.47,0,0,1,.31,0L212,191.83a.5.5,0,0,1,.36.53l-.29,2.88A.49.49,0,0,1,211.53,195.69Zm-26.74-1.27,26.28.27.2-2-13.73-4-12.75,4.73Z" fill="#231f20"/><path d="M187.32,193.88a.39.39,0,0,1-.38-.32.39.39,0,0,1,.27-.42l10.55-3.09a.41.41,0,0,1,.19,0l12.14,2.82a.37.37,0,0,1,.29.4.39.39,0,0,1-.37.34l-22.69.28Zm10.56-3.09-7.84,2.3,16.86-.21Z" fill="#d1d3d4"/><path d="M222.87,227.8a.25.25,0,0,1,0-.49,6.67,6.67,0,0,0,3-1.4.25.25,0,0,1,.35,0,.24.24,0,0,1,0,.35,7.19,7.19,0,0,1-3.21,1.5Z" fill="#d1d3d4"/><path d="M187.11,233.33h0l-2-.28a.26.26,0,0,1-.22-.29.27.27,0,0,1,.29-.21l2,.28a.26.26,0,0,1,.21.29A.25.25,0,0,1,187.11,233.33Z" fill="#d1d3d4"/><path d="M168.84,229.22a.25.25,0,0,1-.21-.1.25.25,0,0,1,.07-.35,4.66,4.66,0,0,1,2.7-.81.25.25,0,0,1,.25.25c0,.14-.09.27-.26.25a4.12,4.12,0,0,0-2.41.72A.23.23,0,0,1,168.84,229.22Z" fill="#d1d3d4"/><path d="M117.16,140.86a.25.25,0,0,1-.24-.17.25.25,0,0,1,.16-.31l3-1a.25.25,0,0,1,.32.16.26.26,0,0,1-.16.32l-3,1Z" fill="#d1d3d4"/><path d="M148.24,227.7a.26.26,0,0,1-.25-.2.25.25,0,0,1,.2-.29l2.81-.58a.25.25,0,1,1,.1.49l-2.81.58Z" fill="#d1d3d4"/><path d="M166,210a.15.15,0,0,1-.09,0l-3.64-1.46a.25.25,0,0,1-.14-.33.26.26,0,0,1,.33-.14l3.64,1.47a.24.24,0,0,1,.13.32A.24.24,0,0,1,166,210Z" fill="#d1d3d4"/><path d="M210.6,219.2a.25.25,0,0,1-.19-.09,4.61,4.61,0,0,0-2.82-1.52.24.24,0,0,1-.21-.28.24.24,0,0,1,.28-.21,5.11,5.11,0,0,1,3.13,1.68.25.25,0,0,1,0,.36A.25.25,0,0,1,210.6,219.2Z" fill="#d1d3d4"/><path d="M187.11,227.41h0a.25.25,0,0,1-.25-.25c.1-8.38.26-24.36.21-24.88a.24.24,0,0,1,.22-.27.23.23,0,0,1,.27.21c.07.57-.17,22.45-.2,24.95A.25.25,0,0,1,187.11,227.41Z" fill="#d1d3d4"/><path d="M209.11,215a.25.25,0,0,1-.25-.25l-.23-14a.26.26,0,0,1,.24-.26.28.28,0,0,1,.26.25l.23,13.95a.25.25,0,0,1-.24.26Z" fill="#d1d3d4"/><path d="M185.33,143.57h-.08a.26.26,0,0,1-.16-.32,2.43,2.43,0,0,1,1.27-1.39,2.35,2.35,0,0,1,1.87-.1.25.25,0,0,1,.15.32.24.24,0,0,1-.32.14,2,2,0,0,0-2.49,1.19A.26.26,0,0,1,185.33,143.57Z" fill="#d1d3d4"/><path d="M304.89,127.3s3.45,2.33,9.39,1.35,12-5.92,20.27-3.32,26.05,12.4,26.05,12.4V254.18s-7.66-.87-21.55-7.25c0,0-29.65-40.41-29.28-51.74S304.89,127.3,304.89,127.3Z" fill="#fff"/><path d="M360.6,254.68h-.05c-.32,0-7.9-.94-21.71-7.29a.48.48,0,0,1-.19-.16c-1.21-1.65-29.76-40.67-29.38-52,.37-11.18-4.82-67.27-4.88-67.84a.51.51,0,0,1,.78-.46s3.38,2.21,9,1.28a31.64,31.64,0,0,0,5.68-1.75c4.24-1.58,9-3.38,14.83-1.56,8.21,2.58,26,12.34,26.14,12.44a.51.51,0,0,1,.26.44V254.18a.48.48,0,0,1-.17.37A.51.51,0,0,1,360.6,254.68Zm-21.22-8.15c11.5,5.27,18.73,6.74,20.72,7.07V138c-2.22-1.22-18.12-9.84-25.7-12.22-5.47-1.72-9.89-.06-14.17,1.54a32.1,32.1,0,0,1-5.87,1.79,15.13,15.13,0,0,1-8.89-1c.68,7.4,5.15,56.59,4.8,67C309.91,206,337.71,244.24,339.38,246.53Z" fill="#231f20"/><path d="M304.89,127.3s-9.38,7-9.76,15.29,3.1,32.31,2.35,39.16-.29,57.86-.29,57.86,32.48,9.2,41.86,7.32c0,0-.37-34.59-3-38.69s-15.77-11.33-15.77-11.33,6.76-9.3,6.38-14.74-3.37-12-3.37-12l15.76,2.15S319.53,156.69,315,150,304.89,127.3,304.89,127.3Z" fill="#e6e7e8"/><path d="M335.89,247.68c-11.88,0-37.63-7.25-38.83-7.59a.53.53,0,0,1-.37-.48c0-2.08-.46-51.12.29-57.92.39-3.54-.39-12-1.14-20.13-.68-7.39-1.39-15.05-1.21-19,.38-8.37,9.57-15.37,10-15.66a.48.48,0,0,1,.45-.08.47.47,0,0,1,.32.31c.06.16,5.66,16,10.08,22.59s23.73,22.05,23.93,22.21a.5.5,0,0,1-.38.88l-14.89-2a39.9,39.9,0,0,1,3.06,11.36c.34,4.92-4.77,12.63-6.15,14.6,2.45,1.38,13.06,7.47,15.46,11.23,2.68,4.17,3.07,37.54,3.08,38.95a.49.49,0,0,1-.4.5A17.07,17.07,0,0,1,335.89,247.68Zm-38.2-8.45c3.53,1,31.76,8.7,40.86,7.28-.14-12-.93-34.89-2.92-38-2.53-3.95-15.46-11.09-15.59-11.17a.56.56,0,0,1-.25-.33.48.48,0,0,1,.09-.4c.06-.09,6.64-9.21,6.29-14.41s-3.31-11.76-3.34-11.82a.54.54,0,0,1,.05-.51.51.51,0,0,1,.47-.2l14,1.91c-4.58-3.73-18.9-15.6-22.74-21.3-4-6-8.83-19-9.95-22.15-2,1.63-8.72,7.7-9,14.48-.18,3.88.52,11.5,1.2,18.86.76,8.21,1.54,16.69,1.14,20.33C297.27,188.23,297.65,234.56,297.69,239.23Z" fill="#231f20"/><path d="M103.27,144.43a.5.5,0,0,1-.26-.08,259.3,259.3,0,0,0-36-18,17.29,17.29,0,0,0-6-1.61,17.29,17.29,0,0,0-2.66.2,18.59,18.59,0,0,1-2.9.2c-5.07-.17-8.88-4.1-12.34-8.11a.5.5,0,1,1,.76-.66c3.31,3.85,6.94,7.62,11.61,7.77a16,16,0,0,0,2.74-.2,20,20,0,0,1,2.81-.2,18.12,18.12,0,0,1,6.36,1.68,260.26,260.26,0,0,1,36.18,18.06.5.5,0,0,1,.18.68A.51.51,0,0,1,103.27,144.43Z" fill="#d1d3d4"/><path d="M358.7,163.77a.53.53,0,0,1-.24-.06l-4.91-2.65a3,3,0,0,1-1.33-1.1,3.07,3.07,0,0,1-.32-1.13,3.22,3.22,0,0,0-.13-.6c-.41-1.23-2.19-1.37-3.76-1.49l-.51,0a21.31,21.31,0,0,1-6.37-1.95,19.34,19.34,0,0,0-6.35-1.89,19.64,19.64,0,0,0-3.24.19,16,16,0,0,1-4.26.1c-4.81-.74-7.85-5.26-10.42-10a.5.5,0,1,1,.88-.48c2.44,4.56,5.31,8.86,9.7,9.53a15.33,15.33,0,0,0,4-.1,19.29,19.29,0,0,1,3.41-.19,20.25,20.25,0,0,1,6.68,2,20.42,20.42,0,0,0,6.07,1.87l.5,0c1.78.14,4,.31,4.63,2.17a4.77,4.77,0,0,1,.17.78,1.51,1.51,0,0,0,1.13,1.49l4.92,2.65a.5.5,0,0,1-.24.94Z" fill="#d1d3d4"/><path d="M296.48,133.84c-2.54,0-5-1.61-6.82-3.16-.33-.28-.66-.58-1-.87-2-1.74-4-3.53-6.45-3.87a.5.5,0,1,1,.14-1c2.77.38,4.91,2.28,7,4.11l1,.87c2.07,1.77,5.11,3.67,7.87,2.59a.5.5,0,0,1,.36.94A5.73,5.73,0,0,1,296.48,133.84Z" fill="#d1d3d4"/><path d="M207.65,95.27a.5.5,0,0,1-.48-.35.5.5,0,0,1,.34-.63l9.37-2.8c1.65-.5,3.62-.48,4.19,1a.5.5,0,0,1-.3.64.5.5,0,0,1-.64-.29c-.32-.87-1.8-.77-3-.42l-9.38,2.8A.34.34,0,0,1,207.65,95.27Z" fill="#d1d3d4"/><path d="M66.27,232.76H66.2a.5.5,0,0,1-.43-.56c.45-3.71.92-7.55,1.31-11.34a337,337,0,0,0,1.81-36.5c0-1.89,0-3.79-.06-5.7-.17-13.37-.34-27.21,4.65-39.71a.5.5,0,1,1,.92.37c-4.91,12.32-4.74,26.05-4.57,39.33,0,1.91,0,3.81.06,5.7A339.37,339.37,0,0,1,68.08,221c-.4,3.79-.87,7.63-1.32,11.35A.5.5,0,0,1,66.27,232.76Z" fill="#d1d3d4"/><path d="M95.24,196.78a.5.5,0,0,1-.49-.4c-2-10.49-1.31-21.27-.67-31.68l1-16.13a.5.5,0,0,1,.53-.46.49.49,0,0,1,.46.53l-1,16.12c-.63,10.36-1.29,21.06.66,31.43a.48.48,0,0,1-.39.58Z" fill="#d1d3d4"/><path d="M127.86,94.85h-.11a60.93,60.93,0,0,1-22.9-10.37A4.4,4.4,0,0,1,103,80.93a1.59,1.59,0,0,1,.36-.8A177.87,177.87,0,0,0,61.68,58.2a.49.49,0,0,1-.29-.64.5.5,0,0,1,.64-.3,179.39,179.39,0,0,1,42.49,22.47.5.5,0,0,1,.2.48.47.47,0,0,1-.33.4.54.54,0,0,0-.41.47,3.43,3.43,0,0,0,1.46,2.58A60,60,0,0,0,128,93.87a.49.49,0,0,1-.1,1Z" fill="#d1d3d4"/><path d="M81,115.15a.43.43,0,0,1-.22-.06L51.26,100.6a.5.5,0,0,1,.44-.9l29.55,14.5a.5.5,0,0,1,.23.67A.52.52,0,0,1,81,115.15Z" fill="#d1d3d4"/><path d="M326,195.32a.5.5,0,0,1-.35-.15.49.49,0,0,1,0-.7,31.2,31.2,0,0,1,25.1-9.18.5.5,0,0,1,.45.55.49.49,0,0,1-.54.45,30.21,30.21,0,0,0-24.3,8.88A.51.51,0,0,1,326,195.32Z" fill="#d1d3d4"/><path d="M356.63,179.1c-1.63,0-3-.94-4.37-1.86a13.06,13.06,0,0,0-2.49-1.44,12.09,12.09,0,0,0-3.82-.62A10.05,10.05,0,0,1,340.9,174a.49.49,0,0,1-.15-.69.5.5,0,0,1,.69-.15,9.07,9.07,0,0,0,4.56,1,13.26,13.26,0,0,1,4.14.69,13.53,13.53,0,0,1,2.68,1.55c1.4,1,2.73,1.85,4.21,1.66a.5.5,0,1,1,.13,1Z" fill="#d1d3d4"/><path d="M293.44,136.44a.39.39,0,0,1-.18,0,22.82,22.82,0,0,0-7.71-1.5.5.5,0,0,1,0-1h0a23.61,23.61,0,0,1,8.05,1.57.5.5,0,0,1-.18,1Z" fill="#d1d3d4"/><path d="M82.23,225.46a.5.5,0,0,1-.5-.48c-.88-25.23-1-50.82-.25-76a.5.5,0,1,1,1,0c-.71,25.21-.63,50.77.25,76a.5.5,0,0,1-.48.52Z" fill="#d1d3d4"/><path d="M107.72,105.25a.52.52,0,0,1-.38-.17c-2.34-2.71-5.82-4.2-9.19-5.65-3.67-1.58-7.46-3.21-9.92-6.42-.51-.67-1-1.39-1.38-2.09a12.74,12.74,0,0,0-2.36-3.14c-1.6-1.41-3.71-1.88-5.94-2.38A20.94,20.94,0,0,1,74,84c-2.61-1.25-4.52-3.47-6.36-5.61a22.94,22.94,0,0,0-5.32-5c-2.36-1.38-5.22-1.85-8-2.31-3.44-.56-7-1.15-9.67-3.48a.49.49,0,0,1,0-.7.51.51,0,0,1,.71,0C47.77,69,51,69.54,54.48,70.11c2.86.47,5.81,1,8.32,2.43a23.27,23.27,0,0,1,5.58,5.22c1.86,2.16,3.61,4.2,6,5.36a20.38,20.38,0,0,0,4.36,1.31c2.25.5,4.59,1,6.38,2.6a13.66,13.66,0,0,1,2.56,3.37,22.28,22.28,0,0,0,1.32,2c2.29,3,5.8,4.51,9.52,6.11,3.47,1.49,7,3,9.54,5.92a.49.49,0,0,1-.37.82Z" fill="#d1d3d4"/><path d="M104.23,118.21a.5.5,0,0,1-.26-.08,33.92,33.92,0,0,0-5.5-2.46l-1.16-.45a83.43,83.43,0,0,1-21.17-12,.5.5,0,0,1,.61-.79,82.55,82.55,0,0,0,20.92,11.85l1.16.44a35.33,35.33,0,0,1,5.66,2.55.49.49,0,0,1,.17.68A.51.51,0,0,1,104.23,118.21Z" fill="#d1d3d4"/><path d="M273.4,246.83a107.37,107.37,0,0,1-15.61-1.15.38.38,0,0,1-.31-.43.37.37,0,0,1,.42-.31,106.26,106.26,0,0,0,25.2.69.38.38,0,0,1,.41.34.37.37,0,0,1-.34.41Q278.3,246.83,273.4,246.83Z" fill="#231f20"/><path d="M235.25,248.77h0l-9.57-.08a.37.37,0,0,1-.37-.38.38.38,0,0,1,.37-.37h0l9.57.08a.38.38,0,0,1,0,.75Z" fill="#231f20"/><path d="M123.14,248.58l-.12,0a30.6,30.6,0,0,0-16.67-.84.37.37,0,0,1-.45-.28.38.38,0,0,1,.28-.45,31.4,31.4,0,0,1,17.08.86.38.38,0,0,1,.24.47A.38.38,0,0,1,123.14,248.58Z" fill="#231f20"/><path d="M142.87,246.53a.38.38,0,0,1,0-.75l11.3-1.38a.37.37,0,1,1,.09.74l-11.3,1.39Z" fill="#231f20"/><path d="M213.26,243.65l-.09,0a14.25,14.25,0,0,0-6.59-.2.38.38,0,0,1-.15-.74,15,15,0,0,1,6.93.22.38.38,0,0,1-.1.74Z" fill="#231f20"/><path d="M172,250.37l-.11,0a9.89,9.89,0,0,0-5.42-.13A.37.37,0,0,1,166,250a.38.38,0,0,1,.27-.46,10.64,10.64,0,0,1,5.84.14.37.37,0,0,1,.24.47A.38.38,0,0,1,172,250.37Z" fill="#231f20"/><path d="M134.83,246.55h-5.26a.37.37,0,0,1-.37-.37.38.38,0,0,1,.37-.38h5.26a.37.37,0,0,1,.37.38A.36.36,0,0,1,134.83,246.55Z" fill="#231f20"/><path d="M89,250.56h0l-4.14-.13a.38.38,0,0,1-.36-.39.37.37,0,0,1,.39-.36l4.13.13a.38.38,0,1,1,0,.75Z" fill="#231f20"/><path d="M52.48,237.91h-.12a.5.5,0,0,1-.37-.6c2.62-11.17,2-22.82,1.39-34.08L52.62,189c-.34-6.3-.69-12.82-2.2-19-.22-.89-.46-1.77-.7-2.65a51.39,51.39,0,0,1-1.27-5.48,43.15,43.15,0,0,1-.37-7.64,136.91,136.91,0,0,1,3-25.84.49.49,0,0,1,.59-.38.5.5,0,0,1,.39.59,135.63,135.63,0,0,0-3,25.65,42,42,0,0,0,.36,7.47,48.66,48.66,0,0,0,1.25,5.37c.24.89.48,1.78.7,2.67,1.53,6.31,1.89,12.88,2.23,19.23l.76,14.19c.6,11.34,1.23,23.05-1.42,34.37A.49.49,0,0,1,52.48,237.91Z" fill="#d1d3d4"/><path d="M359,232.88a.49.49,0,0,1-.37-.16A79,79,0,0,1,342,203.62a.5.5,0,0,1,.32-.63.51.51,0,0,1,.63.33,78.21,78.21,0,0,0,16.42,28.73.51.51,0,0,1,0,.71A.5.5,0,0,1,359,232.88Z" fill="#d1d3d4"/><path d="M320.28,196.91a43.92,43.92,0,0,1-10.51,7.33,69.44,69.44,0,0,0-8.63,4.73" fill="#e6e7e8"/><path d="M301.14,209.47a.5.5,0,0,1-.29-.91,69,69,0,0,1,8.7-4.77,43.65,43.65,0,0,0,10.38-7.24.51.51,0,0,1,.71,0,.5.5,0,0,1,0,.71A43.84,43.84,0,0,1,310,204.69a70.53,70.53,0,0,0-8.57,4.69A.49.49,0,0,1,301.14,209.47Z" fill="#231f20"/><path d="M303,227.07a99.21,99.21,0,0,1,20.26-4.17" fill="#e6e7e8"/><path d="M303,227.57a.5.5,0,0,1-.16-1,99.61,99.61,0,0,1,20.37-4.19.48.48,0,0,1,.54.45.49.49,0,0,1-.45.54,99,99,0,0,0-20.15,4.16Z" fill="#231f20"/><path d="M323.29,170.17s-.52,2.57-6,3.77S303,172.05,303,172.05" fill="#e6e7e8"/><path d="M314.4,174.71a41,41,0,0,1-11.54-2.19.5.5,0,0,1-.31-.63.51.51,0,0,1,.64-.31c.09,0,8.74,3,14,1.87,5-1.1,5.6-3.37,5.61-3.39a.5.5,0,0,1,1,.21c0,.12-.66,2.9-6.37,4.15A13.79,13.79,0,0,1,314.4,174.71Z" fill="#231f20"/><path d="M332.75,213.05s-9.65.41-12.47,1.66" fill="#e6e7e8"/><path d="M320.28,215.21a.49.49,0,0,1-.45-.3.49.49,0,0,1,.25-.66c2.87-1.27,12.25-1.68,12.64-1.7a.5.5,0,1,1,0,1c-.1,0-9.59.42-12.28,1.62A.52.52,0,0,1,320.28,215.21Z" fill="#231f20"/><path d="M313.16,237.92H327.6" fill="#e6e7e8"/><path d="M327.6,238.42H313.16a.5.5,0,0,1,0-1H327.6a.5.5,0,0,1,0,1Z" fill="#231f20"/><line x1="308.18" y1="143.32" x2="301.14" y2="150" fill="#e6e7e8"/><path d="M301.14,150.5a.49.49,0,0,1-.37-.16.49.49,0,0,1,0-.7l7-6.68a.5.5,0,1,1,.69.72l-7,6.68A.51.51,0,0,1,301.14,150.5Z" fill="#231f20"/></g></svg>