<svg xmlns="http://www.w3.org/2000/svg" viewBox="0 0 400 300"><g id="_406_philadelphia_flatline" data-name="#406_philadelphia_flatline"><rect x="39.4" y="45.82" width="321.2" height="208.36" fill="#68e1fd"/><path d="M300.53,139.15a113.79,113.79,0,0,1,9-7.89c4.52-3.1,8.1-4,13.26-4.79,12.67-1.79,24.93-4.76,37.85-5V254.18H39.4V84.8A32,32,0,0,1,48,101.11c19.66-13,50-4.61,60.16,16.66A13,13,0,0,1,123,115.31a13.31,13.31,0,0,1,6.92,13.16c7,.39,13.12,4.56,16.87,10.42,3.34,5.21,4.94,11.33,6.19,17.38a63.26,63.26,0,0,1,28.5,4c5.28,2,10.69,5.28,12.55,10.63a23.56,23.56,0,0,1,26.13,10.54c-.71-1.23,22.32-2.39,24.47-2a35.85,35.85,0,0,1,19.67,10.22,9.29,9.29,0,0,1,10.14-8.14,34,34,0,0,1-3.07-11.22c-.57-6.09,2.32-17.85,5.65-23.24,4.49-7.28,15.43-11.22,21.84-5.55C298.57,141.31,299.32,140.37,300.53,139.15Z" fill="#fff"/><polygon points="337 233.16 337 179.06 340.38 179.06 340.38 169.62 343.2 169.62 343.2 153.01 351.08 153.01 351.08 157.94 353.24 157.94 353.24 162.77 355.02 162.77 355.02 176.8 357.09 176.8 357.09 213.64 360.6 213.64 360.6 254.18 337 254.18 337 233.16" fill="#231f20"/><path d="M360.6,254.68H337a.5.5,0,0,1-.5-.5V179.06a.5.5,0,0,1,.5-.5h2.88v-8.94a.51.51,0,0,1,.5-.5h2.32V153a.5.5,0,0,1,.5-.5h7.88a.5.5,0,0,1,.5.5v4.43h1.66a.5.5,0,0,1,.5.5v4.33H355a.5.5,0,0,1,.5.5V176.3h1.57a.5.5,0,0,1,.5.5v36.34h3a.5.5,0,0,1,.5.5v40.54A.5.5,0,0,1,360.6,254.68Zm-23.1-1h22.6V214.14h-3a.5.5,0,0,1-.5-.5V177.3H355a.5.5,0,0,1-.5-.5V163.27h-1.28a.5.5,0,0,1-.5-.5v-4.33h-1.66a.51.51,0,0,1-.5-.5v-4.43H343.7v16.11a.5.5,0,0,1-.5.5h-2.32v8.94a.5.5,0,0,1-.5.5H337.5Z" fill="#231f20"/><polygon points="334.28 250.34 334.28 121.2 330.25 121.2 329.12 101.02 311.66 101.02 309.79 120.73 305.18 120.73 305.18 251.78 334.28 250.34" fill="#231f20"/><path d="M305.18,252.28a.54.54,0,0,1-.35-.13.51.51,0,0,1-.15-.37v-131a.5.5,0,0,1,.5-.5h4.15L311.17,101a.49.49,0,0,1,.49-.45h17.46a.5.5,0,0,1,.5.47l1.1,19.71h3.56a.5.5,0,0,1,.5.5V250.33a.5.5,0,0,1-.47.5l-29.11,1.45Zm.5-131v130l28.1-1.4V121.7h-3.53a.5.5,0,0,1-.5-.48l-1.1-19.7H312.12l-1.84,19.25a.5.5,0,0,1-.49.46Zm28.6,129.1h0Z" fill="#231f20"/><polygon points="239.68 253.95 239.68 234.14 253.19 234.14 253.19 225.98 266.8 225.98 266.8 244.33 318.51 244.33 318.51 253.95 239.68 253.95" fill="#231f20"/><path d="M318.52,254.45H239.68a.5.5,0,0,1-.5-.5V234.14a.5.5,0,0,1,.5-.5h13V226a.51.51,0,0,1,.5-.5H266.8a.5.5,0,0,1,.5.5v17.85h51.22a.5.5,0,0,1,.5.5V254A.5.5,0,0,1,318.52,254.45Zm-78.34-1H318v-8.62H266.8a.5.5,0,0,1-.5-.5V226.48H253.69v7.66a.5.5,0,0,1-.5.5h-13Z" fill="#231f20"/><polygon points="208.61 181.73 208.61 163.9 206.46 161.74 237.85 161.74 236.3 163.29 236.3 254.18 209.74 254.18 208.61 181.73" fill="#231f20"/><path d="M236.3,254.68H209.74a.5.5,0,0,1-.5-.49l-1.13-72.45h0V164.11l-2-2a.51.51,0,0,1-.11-.54.5.5,0,0,1,.46-.31h31.4a.5.5,0,0,1,.46.31.47.47,0,0,1-.11.54l-1.4,1.41v90.68A.5.5,0,0,1,236.3,254.68Zm-26.07-1H235.8V163.29a.47.47,0,0,1,.15-.35l.69-.7h-29l1.31,1.31a.5.5,0,0,1,.14.35v17.83Z" fill="#231f20"/><polygon points="188.9 254.18 188.9 205.04 193.03 205.04 193.03 179.29 209.74 179.29 209.74 254.18 188.9 254.18" fill="#231f20"/><path d="M209.74,254.68H188.9a.5.5,0,0,1-.5-.5V205a.51.51,0,0,1,.5-.5h3.63V179.29a.5.5,0,0,1,.5-.5h16.71a.5.5,0,0,1,.5.5v74.89A.5.5,0,0,1,209.74,254.68Zm-20.34-1h19.84V179.79H193.53V205a.5.5,0,0,1-.5.5H189.4Z" fill="#231f20"/><polyline points="176.89 149.07 176.89 142.59 173.72 139.71 173.72 134.5 170.41 131.61 170.41 126.33 166.68 123.03 161.83 123.03 158.03 126.62 158.03 131.26 154.79 134.5 154.79 139.99 151.34 142.45 151.34 150 176.54 148.47" fill="#fff"/><path d="M151.34,150.5a.48.48,0,0,1-.34-.14.48.48,0,0,1-.16-.36v-7.55a.49.49,0,0,1,.21-.4l3.24-2.32V134.5a.47.47,0,0,1,.15-.35l3.09-3.1v-4.43a.51.51,0,0,1,.15-.37l3.8-3.59a.51.51,0,0,1,.35-.13h4.85a.52.52,0,0,1,.34.12l3.73,3.31a.52.52,0,0,1,.17.37v5.06l3.13,2.73a.5.5,0,0,1,.17.38v5l3,2.74a.48.48,0,0,1,.16.36v6.48a.5.5,0,0,1-1,0V149l-25,1.52Zm.5-7.79v6.76L176.39,148v-5.16l-3-2.74a.5.5,0,0,1-.17-.37v-5L170.09,132a.49.49,0,0,1-.17-.38v-5.05l-3.43-3H162l-3.5,3.3v4.43a.55.55,0,0,1-.15.36l-3.09,3.09V140a.52.52,0,0,1-.21.41Z" fill="#231f20"/><polygon points="181.63 209.89 146.48 209.89 146.48 151.46 164.06 134.15 181.63 151.46 181.63 209.89" fill="#fff"/><path d="M181.63,210.39H146.48a.51.51,0,0,1-.5-.5V151.46a.51.51,0,0,1,.15-.35l17.58-17.32a.5.5,0,0,1,.7,0L182,151.11a.5.5,0,0,1,.14.35v58.43A.5.5,0,0,1,181.63,210.39Zm-34.65-1h34.15V151.67l-17.07-16.82L147,151.67Z" fill="#231f20"/><polygon points="177.33 200.95 150.78 200.95 150.78 156.83 164.06 141 177.33 156.83 177.33 200.95" fill="#fff"/><path d="M177.33,201.45H150.78a.5.5,0,0,1-.5-.5V156.83a.5.5,0,0,1,.12-.33l13.28-15.82a.5.5,0,0,1,.76,0l13.28,15.82a.55.55,0,0,1,.11.33V201A.5.5,0,0,1,177.33,201.45Zm-26.05-1h25.55V157l-12.77-15.23L151.28,157Z" fill="#231f20"/><polygon points="172.39 196.14 155.73 196.14 155.73 154.89 164.06 145.81 172.39 154.89 172.39 196.14" fill="#d1d3d4"/><path d="M172.39,196.64H155.73a.5.5,0,0,1-.5-.5V154.89a.51.51,0,0,1,.13-.34l8.33-9.07a.51.51,0,0,1,.74,0l8.32,9.07a.48.48,0,0,1,.14.34v41.25A.5.5,0,0,1,172.39,196.64Zm-16.16-1h15.66V155.08l-7.83-8.53-7.83,8.53Z" fill="#231f20"/><polygon points="107.77 130.02 109.5 141.19 106.03 146.44 103.32 137.9 107.77 130.02" fill="#231f20"/><path d="M106,146.94H106a.48.48,0,0,1-.4-.35l-2.72-8.54a.51.51,0,0,1,0-.4l4.45-7.88a.51.51,0,0,1,.53-.24.48.48,0,0,1,.4.41L110,141.11a.48.48,0,0,1-.08.35l-3.47,5.26A.5.5,0,0,1,106,146.94Zm-2.17-9,2.33,7.33,2.79-4.22-1.48-9.55Z" fill="#231f20"/><polygon points="92.23 122.95 94.96 115.07 97.84 123.59 92.23 122.95" fill="#fff"/><path d="M97.84,124.09h0l-5.61-.64a.51.51,0,0,1-.37-.23.5.5,0,0,1,0-.43l2.72-7.88a.51.51,0,0,1,.48-.34h0a.51.51,0,0,1,.47.34l2.89,8.52a.5.5,0,0,1-.09.47A.49.49,0,0,1,97.84,124.09Zm-4.93-1.56,4.21.47L95,116.62Z" fill="#231f20"/><polygon points="81.54 139.69 82.85 129.5 94.65 120.35 107.77 130.02 105.56 140.06 81.54 139.69" fill="#fff"/><path d="M105.56,140.56h0l-24-.38a.48.48,0,0,1-.37-.17.47.47,0,0,1-.12-.39l1.31-10.18a.53.53,0,0,1,.19-.33L94.35,120a.48.48,0,0,1,.6,0l13.11,9.67a.49.49,0,0,1,.2.5l-2.21,10A.49.49,0,0,1,105.56,140.56ZM82.1,139.19l23.06.36,2-9.32L94.66,121l-11.34,8.79Z" fill="#231f20"/><polygon points="78.91 254.18 78.91 146.82 81.54 139.69 94.65 122.95 105.56 140.06 105.56 254.18 78.91 254.18" fill="#fff"/><path d="M105.56,254.68H78.91a.5.5,0,0,1-.5-.5V146.82a.57.57,0,0,1,0-.18l2.63-7.13a.33.33,0,0,1,.07-.13l13.12-16.73a.46.46,0,0,1,.42-.19.45.45,0,0,1,.39.23L106,139.79a.43.43,0,0,1,.08.27V254.18A.5.5,0,0,1,105.56,254.68Zm-26.15-1h25.65V140.21L94.61,123.82,82,139.93l-2.57,7Z" fill="#231f20"/><rect x="73" y="169.06" width="40.54" height="85.12" fill="#fff"/><path d="M113.54,254.68H73a.5.5,0,0,1-.5-.5V169.06a.5.5,0,0,1,.5-.5h40.54a.5.5,0,0,1,.5.5v85.12A.5.5,0,0,1,113.54,254.68Zm-40-1H113V169.56H73.5Z" fill="#231f20"/><polygon points="101.01 254.18 84.44 254.18 84.44 147.57 92.73 136.87 101.01 147.57 101.01 254.18" fill="#d1d3d4"/><path d="M101,254.68H84.45a.5.5,0,0,1-.5-.5V147.57a.5.5,0,0,1,.1-.31l8.28-10.7a.52.52,0,0,1,.79,0l8.29,10.7a.57.57,0,0,1,.1.31V254.18A.5.5,0,0,1,101,254.68Zm-16.06-1h15.56V147.74l-7.78-10.05L85,147.74Z" fill="#231f20"/><path d="M101,182.23H84.45a.5.5,0,0,1-.5-.5.5.5,0,0,1,.5-.5H101a.5.5,0,0,1,.5.5A.5.5,0,0,1,101,182.23Z" fill="#231f20"/><path d="M101,196H84.45a.5.5,0,0,1-.5-.5.5.5,0,0,1,.5-.5H101a.5.5,0,0,1,.5.5A.5.5,0,0,1,101,196Z" fill="#231f20"/><path d="M101,208.56H84.45a.5.5,0,0,1-.5-.5.5.5,0,0,1,.5-.5H101a.5.5,0,0,1,.5.5A.5.5,0,0,1,101,208.56Z" fill="#231f20"/><polygon points="105.56 145.27 107.77 136.87 111.15 142.03 110.02 150 110.02 169.06 105.56 169.06 105.56 145.27" fill="#fff"/><path d="M110,169.56h-4.46a.5.5,0,0,1-.5-.5V145.27a.59.59,0,0,1,0-.13l2.2-8.4a.49.49,0,0,1,.41-.36.48.48,0,0,1,.5.22l3.37,5.16a.46.46,0,0,1,.08.34l-1.12,8v19A.5.5,0,0,1,110,169.56Zm-4-1h3.46V150l1.1-7.85L108,138.08l-1.91,7.25Z" fill="#231f20"/><polygon points="111.15 142.03 112.23 150.85 112.69 169.06 110.02 169.06 110.02 150 111.15 142.03" fill="#231f20"/><path d="M112.7,169.56H110a.5.5,0,0,1-.5-.5V150l1.13-8a.51.51,0,0,1,.5-.43h0a.5.5,0,0,1,.49.44l1.08,8.82.48,18.26a.51.51,0,0,1-.15.36A.47.47,0,0,1,112.7,169.56Zm-2.18-.5h0Zm0-.5h1.66l-.45-17.69-.62-5-.59,4.22Z" fill="#231f20"/><path d="M101,158H84.45a.5.5,0,0,1-.5-.5.5.5,0,0,1,.5-.5H101a.5.5,0,0,1,.5.5A.5.5,0,0,1,101,158Z" fill="#231f20"/><path d="M101,170.12H84.45a.5.5,0,0,1-.5-.5.5.5,0,0,1,.5-.5H101a.5.5,0,0,1,.5.5A.5.5,0,0,1,101,170.12Z" fill="#231f20"/><polygon points="113.54 169.06 116.5 171.88 116.5 254.18 113.54 254.18 113.54 169.06" fill="#231f20"/><path d="M116.5,254.68h-3a.5.5,0,0,1-.5-.5V169.06a.51.51,0,0,1,.3-.46.49.49,0,0,1,.54.1l3,2.81a.52.52,0,0,1,.16.37v82.3A.5.5,0,0,1,116.5,254.68Zm-2.46-1h2V172.09l-2-1.86Z" fill="#231f20"/><line x1="110.02" y1="158.5" x2="112.7" y2="159.98" fill="#fff"/><path d="M112.69,160.48a.53.53,0,0,1-.24-.06l-2.67-1.48a.5.5,0,0,1,.48-.88l2.68,1.48a.5.5,0,0,1,.19.68A.49.49,0,0,1,112.69,160.48Z" fill="#231f20"/><polygon points="81.54 139.69 93.2 128.16 105.56 140.06 94.65 120.35 81.54 139.69" fill="#fff"/><path d="M105.56,140.56a.49.49,0,0,1-.34-.14l-12-11.56L81.89,140a.5.5,0,0,1-.77-.64l13.12-19.33a.49.49,0,0,1,.43-.22.51.51,0,0,1,.42.26L106,139.82a.51.51,0,0,1-.13.64A.5.5,0,0,1,105.56,140.56ZM93.2,127.66a.49.49,0,0,1,.34.14l10,9.6-8.91-16.1-9.8,14.44,8-7.93A.47.47,0,0,1,93.2,127.66Z" fill="#231f20"/><polygon points="82.85 176.47 92.61 180.6 92.61 191.01 92.61 254.18 84.92 254.18 76.28 187.55 82.85 176.47" fill="#fff"/><path d="M92.61,254.68h-7.7a.5.5,0,0,1-.49-.44l-8.64-66.63a.52.52,0,0,1,.07-.32l6.57-11.07A.5.5,0,0,1,83,176l9.77,4.13a.51.51,0,0,1,.3.46v73.58A.5.5,0,0,1,92.61,254.68Zm-7.26-1h6.76V180.94l-9-3.83L76.8,187.66Z" fill="#231f20"/><rect x="55.68" y="181.73" width="29.24" height="72.45" fill="#fff"/><path d="M84.91,254.68H55.68a.5.5,0,0,1-.5-.5V181.73a.5.5,0,0,1,.5-.5H84.91a.5.5,0,0,1,.5.5v72.45A.5.5,0,0,1,84.91,254.68Zm-28.73-1H84.41V182.23H56.18Z" fill="#231f20"/><path d="M81.54,186.17H59.15a.51.51,0,0,1,0-1H81.54a.51.51,0,0,1,0,1Z" fill="#d1d3d4"/><path d="M81.54,190.27H59.15a.51.51,0,0,1-.51-.51.51.51,0,0,1,.51-.51H81.54a.51.51,0,0,1,.51.51A.51.51,0,0,1,81.54,190.27Z" fill="#d1d3d4"/><path d="M81.54,194.38H59.15a.51.51,0,0,1,0-1H81.54a.51.51,0,1,1,0,1Z" fill="#d1d3d4"/><path d="M81.54,198.48H59.15a.51.51,0,0,1,0-1H81.54a.51.51,0,0,1,0,1Z" fill="#d1d3d4"/><path d="M81.54,202.58H59.15a.51.51,0,1,1,0-1H81.54a.51.51,0,1,1,0,1Z" fill="#d1d3d4"/><path d="M81.54,206.69H59.15a.51.51,0,0,1,0-1H81.54a.51.51,0,1,1,0,1Z" fill="#d1d3d4"/><path d="M81.54,210.79H59.15a.51.51,0,0,1,0-1H81.54a.51.51,0,0,1,0,1Z" fill="#d1d3d4"/><path d="M81.54,214.9H59.15a.51.51,0,0,1-.51-.51.51.51,0,0,1,.51-.51H81.54a.51.51,0,0,1,.51.51A.51.51,0,0,1,81.54,214.9Z" fill="#d1d3d4"/><path d="M81.54,219H59.15a.51.51,0,0,1,0-1H81.54a.51.51,0,1,1,0,1Z" fill="#d1d3d4"/><path d="M81.54,223.1H59.15a.51.51,0,0,1,0-1H81.54a.51.51,0,0,1,0,1Z" fill="#d1d3d4"/><path d="M81.54,227.21H59.15a.51.51,0,0,1,0-1H81.54a.51.51,0,1,1,0,1Z" fill="#d1d3d4"/><path d="M81.54,231.31H59.15a.51.51,0,0,1,0-1H81.54a.51.51,0,1,1,0,1Z" fill="#d1d3d4"/><path d="M81.54,235.41H59.15a.51.51,0,0,1-.51-.51.51.51,0,0,1,.51-.51H81.54a.51.51,0,0,1,.51.51A.51.51,0,0,1,81.54,235.41Z" fill="#d1d3d4"/><path d="M81.54,239.52H59.15a.51.51,0,0,1,0-1H81.54a.51.51,0,1,1,0,1Z" fill="#d1d3d4"/><path d="M81.54,243.62H59.15a.51.51,0,0,1,0-1H81.54a.51.51,0,1,1,0,1Z" fill="#d1d3d4"/><rect x="120.22" y="191.01" width="7.03" height="63.17" fill="#fff"/><path d="M127.25,254.68h-7a.5.5,0,0,1-.5-.5V191a.5.5,0,0,1,.5-.5h7a.5.5,0,0,1,.5.5v63.17A.5.5,0,0,1,127.25,254.68Zm-6.53-1h6V191.51h-6Z" fill="#231f20"/><rect x="127.25" y="191.01" width="50.08" height="63.17" transform="translate(304.58 445.19) rotate(180)" fill="#fff"/><path d="M177.33,254.68H127.25a.5.5,0,0,1-.5-.5V191a.5.5,0,0,1,.5-.5h50.08a.5.5,0,0,1,.5.5v63.17A.5.5,0,0,1,177.33,254.68Zm-49.58-1h49.08V191.51H127.75Z" fill="#231f20"/><rect x="177.33" y="191.01" width="8.38" height="63.17" fill="#fff"/><path d="M185.71,254.68h-8.38a.5.5,0,0,1-.5-.5V191a.5.5,0,0,1,.5-.5h8.38a.5.5,0,0,1,.5.5v63.17A.5.5,0,0,1,185.71,254.68Zm-7.88-1h7.38V191.51h-7.38Z" fill="#231f20"/><path d="M174,202.22H129.85a.51.51,0,0,1,0-1H174a.51.51,0,0,1,0,1Z" fill="#d1d3d4"/><path d="M174,206.72H129.85a.51.51,0,1,1,0-1H174a.51.51,0,1,1,0,1Z" fill="#d1d3d4"/><path d="M174,211.23H129.85a.51.51,0,0,1,0-1H174a.51.51,0,0,1,0,1Z" fill="#d1d3d4"/><path d="M174,215.73H129.85a.51.51,0,0,1-.51-.51.51.51,0,0,1,.51-.51H174a.51.51,0,0,1,.51.51A.51.51,0,0,1,174,215.73Z" fill="#d1d3d4"/><path d="M174,220.24H129.85a.51.51,0,0,1,0-1H174a.51.51,0,0,1,0,1Z" fill="#d1d3d4"/><path d="M174,224.74H129.85a.51.51,0,0,1-.51-.51.51.51,0,0,1,.51-.51H174a.51.51,0,0,1,.51.51A.51.51,0,0,1,174,224.74Z" fill="#d1d3d4"/><path d="M174,229.25H129.85a.51.51,0,0,1,0-1H174a.51.51,0,0,1,0,1Z" fill="#d1d3d4"/><path d="M174,233.53H129.85a.51.51,0,0,1,0-1H174a.51.51,0,0,1,0,1Z" fill="#d1d3d4"/><path d="M174,238H129.85a.51.51,0,0,1,0-1H174a.51.51,0,0,1,0,1Z" fill="#d1d3d4"/><path d="M174,242.54H129.85a.51.51,0,0,1,0-1H174a.51.51,0,0,1,0,1Z" fill="#d1d3d4"/><path d="M174,247H129.85a.51.51,0,0,1-.51-.51.51.51,0,0,1,.51-.51H174a.51.51,0,0,1,.51.51A.51.51,0,0,1,174,247Z" fill="#d1d3d4"/><path d="M125.93,202.22H121.7a.51.51,0,0,1,0-1h4.23a.51.51,0,1,1,0,1Z" fill="#d1d3d4"/><path d="M125.93,206.72H121.7a.51.51,0,1,1,0-1h4.23a.51.51,0,1,1,0,1Z" fill="#d1d3d4"/><path d="M125.93,211.23H121.7a.51.51,0,0,1,0-1h4.23a.51.51,0,0,1,0,1Z" fill="#d1d3d4"/><path d="M125.93,215.73H121.7a.51.51,0,0,1-.51-.51.51.51,0,0,1,.51-.51h4.23a.51.51,0,0,1,.51.51A.51.51,0,0,1,125.93,215.73Z" fill="#d1d3d4"/><path d="M125.93,220.24H121.7a.51.51,0,1,1,0-1h4.23a.51.51,0,1,1,0,1Z" fill="#d1d3d4"/><path d="M125.93,224.74H121.7a.51.51,0,0,1-.51-.51.51.51,0,0,1,.51-.51h4.23a.51.51,0,0,1,.51.51A.51.51,0,0,1,125.93,224.74Z" fill="#d1d3d4"/><path d="M125.93,229.25H121.7a.51.51,0,0,1,0-1h4.23a.51.51,0,1,1,0,1Z" fill="#d1d3d4"/><path d="M183.86,202.22h-4.45a.51.51,0,0,1,0-1h4.45a.51.51,0,1,1,0,1Z" fill="#d1d3d4"/><path d="M183.86,206.72h-4.45a.51.51,0,1,1,0-1h4.45a.51.51,0,1,1,0,1Z" fill="#d1d3d4"/><path d="M183.86,211.23h-4.45a.51.51,0,0,1,0-1h4.45a.51.51,0,0,1,0,1Z" fill="#d1d3d4"/><path d="M183.86,215.73h-4.45a.51.51,0,0,1-.51-.51.51.51,0,0,1,.51-.51h4.45a.51.51,0,0,1,.51.51A.51.51,0,0,1,183.86,215.73Z" fill="#d1d3d4"/><path d="M183.86,220.24h-4.45a.51.51,0,0,1,0-1h4.45a.51.51,0,1,1,0,1Z" fill="#d1d3d4"/><path d="M183.86,224.74h-4.45a.51.51,0,0,1-.51-.51.51.51,0,0,1,.51-.51h4.45a.51.51,0,0,1,.51.51A.51.51,0,0,1,183.86,224.74Z" fill="#d1d3d4"/><path d="M183.86,229.25h-4.45a.51.51,0,0,1,0-1h4.45a.51.51,0,1,1,0,1Z" fill="#d1d3d4"/><path d="M183.86,229.25h-4.45a.51.51,0,0,1,0-1h4.45a.51.51,0,1,1,0,1Z" fill="#d1d3d4"/><path d="M183.86,233.75h-4.45a.51.51,0,0,1-.51-.51.51.51,0,0,1,.51-.51h4.45a.51.51,0,0,1,.51.51A.51.51,0,0,1,183.86,233.75Z" fill="#d1d3d4"/><path d="M183.86,238.26h-4.45a.51.51,0,1,1,0-1h4.45a.51.51,0,0,1,0,1Z" fill="#d1d3d4"/><path d="M183.86,242.76h-4.45a.51.51,0,1,1,0-1h4.45a.51.51,0,1,1,0,1Z" fill="#d1d3d4"/><path d="M183.86,247.27h-4.45a.51.51,0,0,1,0-1h4.45a.51.51,0,1,1,0,1Z" fill="#d1d3d4"/><path d="M135.09,197.62h-5.24a.51.51,0,0,1,0-1h5.24a.51.51,0,1,1,0,1Z" fill="#d1d3d4"/><path d="M141.57,197.62h-5.24a.51.51,0,0,1,0-1h5.24a.51.51,0,0,1,0,1Z" fill="#d1d3d4"/><path d="M148.06,197.62h-5.24a.51.51,0,0,1,0-1h5.24a.51.51,0,1,1,0,1Z" fill="#d1d3d4"/><path d="M154.55,197.62h-5.24a.51.51,0,0,1,0-1h5.24a.51.51,0,1,1,0,1Z" fill="#d1d3d4"/><path d="M161,197.62H155.8a.51.51,0,1,1,0-1H161a.51.51,0,0,1,0,1Z" fill="#d1d3d4"/><path d="M167.52,197.62h-5.24a.51.51,0,0,1,0-1h5.24a.51.51,0,1,1,0,1Z" fill="#d1d3d4"/><path d="M174,197.62h-5.24a.51.51,0,1,1,0-1H174a.51.51,0,0,1,0,1Z" fill="#d1d3d4"/><polygon points="39.4 251.84 65.82 251.84 78.91 245.93 78.91 254.18 39.4 254.18 39.4 251.84" fill="#fff"/><path d="M78.91,254.68H39.4a.5.5,0,0,1-.5-.5v-2.34a.5.5,0,0,1,.5-.5H65.71l13-5.87a.51.51,0,0,1,.48,0,.5.5,0,0,1,.23.42v8.25A.5.5,0,0,1,78.91,254.68Zm-39-1H78.41v-7L66,252.3a.45.45,0,0,1-.2,0H39.9Z" fill="#231f20"/><polygon points="39.4 251.84 51.03 245.93 78.91 245.93 65.82 251.84 39.4 251.84" fill="#231f20"/><path d="M65.82,252.34H39.4a.51.51,0,0,1-.49-.38.52.52,0,0,1,.26-.57l11.64-5.91a.59.59,0,0,1,.22,0H78.91a.5.5,0,0,1,.49.39.49.49,0,0,1-.29.56L66,252.3A.45.45,0,0,1,65.82,252.34Zm-24.33-1H65.71l10.88-4.91H51.15Z" fill="#231f20"/><polygon points="63.42 251.84 63.42 227.77 74.54 224.81 74.54 247.05 63.42 251.84" fill="#fff"/><path d="M63.42,252.34a.53.53,0,0,1-.27-.08.5.5,0,0,1-.23-.42V227.77a.5.5,0,0,1,.37-.49l11.13-2.95a.5.5,0,0,1,.43.08.51.51,0,0,1,.19.4v22.24a.49.49,0,0,1-.3.46L63.62,252.3A.45.45,0,0,1,63.42,252.34Zm.5-24.19v22.93L74,246.72V225.46Z" fill="#231f20"/><rect x="42.02" y="227.77" width="21.4" height="24.07" fill="#fff"/><path d="M63.42,252.34H42a.5.5,0,0,1-.5-.5V227.77a.5.5,0,0,1,.5-.5h21.4a.5.5,0,0,1,.5.5v24.07A.5.5,0,0,1,63.42,252.34Zm-20.9-1h20.4V228.27H42.52Z" fill="#231f20"/><polygon points="42.02 227.77 53.8 219.41 55.68 219.41 63.42 227.77 42.02 227.77" fill="#231f20"/><path d="M63.42,228.27H42a.5.5,0,0,1-.47-.35.5.5,0,0,1,.18-.56L53.51,219a.62.62,0,0,1,.29-.09h1.88a.52.52,0,0,1,.37.16l7.74,8.36a.5.5,0,0,1-.37.84Zm-19.83-1H62.28l-6.82-7.36H54Z" fill="#231f20"/><polygon points="55.68 219.41 63.94 218.76 74.54 224.81 63.42 227.77 55.68 219.41" fill="#231f20"/><path d="M63.42,228.27a.5.5,0,0,1-.36-.16l-7.75-8.36a.5.5,0,0,1-.1-.52.49.49,0,0,1,.43-.31l8.26-.66a.49.49,0,0,1,.29.06l10.6,6.06a.48.48,0,0,1,.25.49.49.49,0,0,1-.37.42l-11.12,3Zm-6.67-8.44,6.83,7.38,9.66-2.57-9.42-5.37Z" fill="#231f20"/><path d="M53.8,219.41l1.85-.23c2.05-.26,5.1-.64,5.19-.61s3.1.19,3.1.19l-8,.91Z" fill="#fff"/><path d="M55.92,220.17h-.06l-2.12-.26a.5.5,0,0,1,0-1l1.85-.24c5.19-.66,5.26-.64,5.41-.59s1.83.11,3,.17a.5.5,0,0,1,0,1l-8,.92Z" fill="#231f20"/><rect x="97.77" y="211.86" width="6.48" height="42.32" fill="#fff"/><path d="M104.25,254.68H97.77a.5.5,0,0,1-.5-.5V211.86a.5.5,0,0,1,.5-.5h6.48a.5.5,0,0,1,.5.5v42.32A.5.5,0,0,1,104.25,254.68Zm-6-1h5.48V212.36H98.27Z" fill="#231f20"/><rect x="104.25" y="211.86" width="46.14" height="42.32" transform="translate(254.64 466.04) rotate(180)" fill="#fff"/><path d="M150.39,254.68H104.25a.5.5,0,0,1-.5-.5V211.86a.5.5,0,0,1,.5-.5h46.14a.5.5,0,0,1,.5.5v42.32A.5.5,0,0,1,150.39,254.68Zm-45.64-1h45.14V212.36H104.75Z" fill="#231f20"/><rect x="150.39" y="211.86" width="7.72" height="42.32" fill="#fff"/><path d="M158.11,254.68h-7.72a.5.5,0,0,1-.5-.5V211.86a.5.5,0,0,1,.5-.5h7.72a.5.5,0,0,1,.5.5v42.32A.5.5,0,0,1,158.11,254.68Zm-7.22-1h6.72V212.36h-6.72Z" fill="#231f20"/><rect x="111.57" y="206.51" width="18.3" height="5.35" fill="#fff"/><path d="M129.87,212.36h-18.3a.5.5,0,0,1-.5-.5v-5.35a.5.5,0,0,1,.5-.5h18.3a.5.5,0,0,1,.5.5v5.35A.5.5,0,0,1,129.87,212.36Zm-17.8-1h17.3V207h-17.3Z" fill="#231f20"/><path d="M147.33,223.07H106.64a.51.51,0,0,1,0-1h40.69a.51.51,0,0,1,0,1Z" fill="#d1d3d4"/><path d="M147.33,227.57H106.64a.51.51,0,0,1,0-1h40.69a.51.51,0,0,1,0,1Z" fill="#d1d3d4"/><path d="M147.33,232.08H106.64a.51.51,0,1,1,0-1h40.69a.51.51,0,1,1,0,1Z" fill="#d1d3d4"/><path d="M147.33,236.58H106.64a.51.51,0,1,1,0-1h40.69a.51.51,0,1,1,0,1Z" fill="#d1d3d4"/><path d="M147.33,241.09H106.64a.51.51,0,0,1,0-1h40.69a.51.51,0,1,1,0,1Z" fill="#d1d3d4"/><path d="M147.33,245.59H106.64a.51.51,0,0,1,0-1h40.69a.51.51,0,1,1,0,1Z" fill="#d1d3d4"/><path d="M147.33,250.1H106.64a.51.51,0,0,1,0-1h40.69a.51.51,0,0,1,0,1Z" fill="#d1d3d4"/><path d="M103,223.07h-3.9a.51.51,0,0,1,0-1H103a.51.51,0,1,1,0,1Z" fill="#d1d3d4"/><path d="M103,227.57h-3.9a.51.51,0,0,1,0-1H103a.51.51,0,1,1,0,1Z" fill="#d1d3d4"/><path d="M103,232.08h-3.9a.51.51,0,0,1,0-1H103a.51.51,0,1,1,0,1Z" fill="#d1d3d4"/><path d="M103,236.58h-3.9a.51.51,0,0,1,0-1H103a.51.51,0,1,1,0,1Z" fill="#d1d3d4"/><path d="M103,241.09h-3.9a.51.51,0,0,1,0-1H103a.51.51,0,0,1,0,1Z" fill="#d1d3d4"/><path d="M103,245.59h-3.9a.51.51,0,0,1,0-1H103a.51.51,0,0,1,0,1Z" fill="#d1d3d4"/><path d="M103,250.1h-3.9a.51.51,0,0,1,0-1H103a.51.51,0,1,1,0,1Z" fill="#d1d3d4"/><path d="M157.09,223.07H152.3a.51.51,0,1,1,0-1h4.79a.51.51,0,0,1,0,1Z" fill="#d1d3d4"/><path d="M157.09,227.57H152.3a.51.51,0,1,1,0-1h4.79a.51.51,0,0,1,0,1Z" fill="#d1d3d4"/><path d="M157.09,232.08H152.3a.51.51,0,1,1,0-1h4.79a.51.51,0,1,1,0,1Z" fill="#d1d3d4"/><path d="M157.09,236.58H152.3a.51.51,0,1,1,0-1h4.79a.51.51,0,1,1,0,1Z" fill="#d1d3d4"/><path d="M157.09,241.09H152.3a.51.51,0,1,1,0-1h4.79a.51.51,0,1,1,0,1Z" fill="#d1d3d4"/><path d="M157.09,245.59H152.3a.51.51,0,1,1,0-1h4.79a.51.51,0,1,1,0,1Z" fill="#d1d3d4"/><path d="M157.09,250.1H152.3a.51.51,0,1,1,0-1h4.79a.51.51,0,0,1,0,1Z" fill="#d1d3d4"/><path d="M111.47,218.47h-4.83a.51.51,0,0,1,0-1h4.83a.51.51,0,0,1,0,1Z" fill="#d1d3d4"/><path d="M117.45,218.47h-4.83a.51.51,0,0,1,0-1h4.83a.51.51,0,1,1,0,1Z" fill="#d1d3d4"/><path d="M123.42,218.47h-4.83a.51.51,0,0,1,0-1h4.83a.51.51,0,0,1,0,1Z" fill="#d1d3d4"/><path d="M129.4,218.47h-4.83a.51.51,0,0,1,0-1h4.83a.51.51,0,1,1,0,1Z" fill="#d1d3d4"/><path d="M135.37,218.47h-4.82a.51.51,0,1,1,0-1h4.82a.51.51,0,1,1,0,1Z" fill="#d1d3d4"/><path d="M141.35,218.47h-4.83a.51.51,0,1,1,0-1h4.83a.51.51,0,0,1,0,1Z" fill="#d1d3d4"/><path d="M147.33,218.47H142.5a.51.51,0,0,1,0-1h4.83a.51.51,0,1,1,0,1Z" fill="#d1d3d4"/><rect x="59.15" y="176.48" width="23.7" height="5.26" fill="#fff"/><path d="M82.85,182.23H59.15a.5.5,0,0,1-.5-.5v-5.25a.5.5,0,0,1,.5-.5h23.7a.5.5,0,0,1,.5.5v5.25A.5.5,0,0,1,82.85,182.23Zm-23.2-1h22.7V177H59.65Z" fill="#231f20"/><polygon points="88.67 191.01 88.67 254.18 95.61 254.18 95.61 192.24 88.67 191.01" fill="#231f20"/><path d="M95.61,254.68H88.67a.5.5,0,0,1-.5-.5V191a.5.5,0,0,1,.59-.49l6.94,1.23a.49.49,0,0,1,.41.49v61.94A.5.5,0,0,1,95.61,254.68Zm-6.44-1h5.94v-61l-5.94-1Z" fill="#231f20"/><path d="M47.37,238a.51.51,0,0,1-.51-.51V234.9a.51.51,0,1,1,1,0v2.62A.51.51,0,0,1,47.37,238Z" fill="#d1d3d4"/><path d="M52.72,238a.51.51,0,0,1-.51-.51V234.9a.51.51,0,0,1,1,0v2.62A.51.51,0,0,1,52.72,238Z" fill="#d1d3d4"/><path d="M58.07,238a.51.51,0,0,1-.51-.51V234.9a.51.51,0,0,1,1,0v2.62A.51.51,0,0,1,58.07,238Z" fill="#d1d3d4"/><path d="M47.37,243.54a.5.5,0,0,1-.51-.5v-2.62a.51.51,0,0,1,1,0V243A.5.5,0,0,1,47.37,243.54Z" fill="#d1d3d4"/><path d="M52.72,243.54a.5.5,0,0,1-.51-.5v-2.62a.51.51,0,0,1,1,0V243A.5.5,0,0,1,52.72,243.54Z" fill="#d1d3d4"/><path d="M58.07,243.54a.5.5,0,0,1-.51-.5v-2.62a.51.51,0,0,1,1,0V243A.5.5,0,0,1,58.07,243.54Z" fill="#d1d3d4"/><path d="M47.37,249.06a.51.51,0,0,1-.51-.51v-2.62a.51.51,0,1,1,1,0v2.62A.51.51,0,0,1,47.37,249.06Z" fill="#d1d3d4"/><path d="M52.72,249.06a.51.51,0,0,1-.51-.51v-2.62a.51.51,0,0,1,1,0v2.62A.51.51,0,0,1,52.72,249.06Z" fill="#d1d3d4"/><path d="M58.07,249.06a.51.51,0,0,1-.51-.51v-2.62a.51.51,0,0,1,1,0v2.62A.51.51,0,0,1,58.07,249.06Z" fill="#d1d3d4"/><path d="M172.39,174.54H155.8a.5.5,0,0,1-.5-.5.5.5,0,0,1,.5-.5h16.59a.5.5,0,0,1,.5.5A.51.51,0,0,1,172.39,174.54Z" fill="#231f20"/><path d="M172.39,170.12a.54.54,0,0,1-.34-.12l-8-7-8,7a.51.51,0,0,1-.71-.05.49.49,0,0,1,.05-.7l8.36-7.32a.49.49,0,0,1,.66,0l8.3,7.32a.51.51,0,0,1,0,.71A.5.5,0,0,1,172.39,170.12Z" fill="#231f20"/><path d="M172.39,185.7H155.8a.5.5,0,0,1-.5-.5.5.5,0,0,1,.5-.5h16.59a.51.51,0,0,1,.5.5A.5.5,0,0,1,172.39,185.7Z" fill="#231f20"/><path d="M146.48,161.58a.47.47,0,0,1-.35-.15.48.48,0,0,1,0-.7l4.3-4.26a.51.51,0,0,1,.71,0,.5.5,0,0,1,0,.71l-4.3,4.26A.46.46,0,0,1,146.48,161.58Z" fill="#231f20"/><path d="M181.52,161.58a.49.49,0,0,1-.35-.15L177,157.18a.5.5,0,1,1,.71-.7l4.19,4.25a.5.5,0,0,1,0,.71A.46.46,0,0,1,181.52,161.58Z" fill="#231f20"/><path d="M154.46,152.94a.5.5,0,0,1-.5-.5V143.6a.51.51,0,0,1,.5-.5.5.5,0,0,1,.5.5v8.84A.5.5,0,0,1,154.46,152.94Z" fill="#231f20"/><path d="M174.07,144c.17.17,0,8.92,0,8.92" fill="#fff"/><path d="M174.07,153.43h0a.49.49,0,0,1-.49-.51c.06-3.07.12-8.09,0-8.74a.48.48,0,0,1,.11-.52.5.5,0,0,1,.71,0c.19.19.33.33.15,9.29A.51.51,0,0,1,174.07,153.43Z" fill="#231f20"/><path d="M170.42,132.11a.51.51,0,0,1-.35-.13l-6-5.6-5.75,5.25a.49.49,0,0,1-.7,0,.5.5,0,0,1,0-.71l6.09-5.56a.51.51,0,0,1,.68,0l6.3,5.91a.5.5,0,0,1-.34.86Z" fill="#231f20"/><polyline points="161.83 123.03 163.52 116.62 164.06 93.67 164.85 93.67 165.28 116.48 166.68 123.03" fill="#231f20"/><path d="M161.83,123.53l-.13,0a.5.5,0,0,1-.36-.61l1.68-6.35.54-22.89a.5.5,0,0,1,.5-.49h.79a.49.49,0,0,1,.5.49l.43,22.81,1.39,6.45a.5.5,0,0,1-1,.21l-1.41-6.55-.35-18.09L164,116.63a.5.5,0,0,1,0,.12l-1.69,6.4A.5.5,0,0,1,161.83,123.53Z" fill="#231f20"/><path d="M166,104.52h-3.66a.5.5,0,0,1,0-1H166a.5.5,0,0,1,0,1Z" fill="#231f20"/><rect x="205.05" y="198.25" width="28.16" height="55.93" fill="#fff"/><path d="M233.2,254.68H205.05a.5.5,0,0,1-.5-.5V198.25a.5.5,0,0,1,.5-.5H233.2a.5.5,0,0,1,.5.5v55.93A.5.5,0,0,1,233.2,254.68Zm-27.65-1H232.7V198.75H205.55Z" fill="#231f20"/><rect x="225.34" y="200.95" width="4.09" height="4.09" fill="#231f20"/><path d="M229.43,205.54h-4.09a.5.5,0,0,1-.5-.5V201a.5.5,0,0,1,.5-.5h4.09a.5.5,0,0,1,.5.5V205A.5.5,0,0,1,229.43,205.54Zm-3.59-1h3.09v-3.09h-3.09Z" fill="#231f20"/><path d="M221.94,202.22H208.61a.51.51,0,1,1,0-1h13.33a.51.51,0,1,1,0,1Z" fill="#d1d3d4"/><path d="M221.94,205.55H208.61a.51.51,0,1,1,0-1h13.33a.51.51,0,1,1,0,1Z" fill="#d1d3d4"/><path d="M229.43,209.69H208.61a.51.51,0,1,1,0-1h20.82a.51.51,0,1,1,0,1Z" fill="#d1d3d4"/><path d="M229.43,213.83H208.61a.51.51,0,1,1,0-1h20.82a.51.51,0,0,1,0,1Z" fill="#d1d3d4"/><path d="M229.43,218H208.61a.51.51,0,1,1,0-1h20.82a.51.51,0,1,1,0,1Z" fill="#d1d3d4"/><path d="M229.43,222.11H208.61a.51.51,0,0,1,0-1h20.82a.51.51,0,0,1,0,1Z" fill="#d1d3d4"/><path d="M229.43,226.25H208.61a.51.51,0,1,1,0-1h20.82a.51.51,0,1,1,0,1Z" fill="#d1d3d4"/><path d="M229.43,230.38H208.61a.51.51,0,0,1-.51-.51.51.51,0,0,1,.51-.51h20.82a.51.51,0,0,1,.51.51A.51.51,0,0,1,229.43,230.38Z" fill="#d1d3d4"/><path d="M229.43,234.52H208.61a.51.51,0,1,1,0-1h20.82a.51.51,0,1,1,0,1Z" fill="#d1d3d4"/><path d="M229.43,238.66H208.61a.51.51,0,1,1,0-1h20.82a.51.51,0,1,1,0,1Z" fill="#d1d3d4"/><path d="M229.43,242.8H208.61a.51.51,0,1,1,0-1h20.82a.51.51,0,0,1,0,1Z" fill="#d1d3d4"/><path d="M229.43,246.94H208.61a.51.51,0,1,1,0-1h20.82a.51.51,0,1,1,0,1Z" fill="#d1d3d4"/><rect x="274.08" y="222.73" width="28.27" height="12.21" fill="#fff"/><path d="M302.35,235.44H274.08a.5.5,0,0,1-.5-.5V222.73a.5.5,0,0,1,.5-.5h28.27a.5.5,0,0,1,.5.5v12.21A.5.5,0,0,1,302.35,235.44Zm-27.77-1h27.27V223.23H274.58Z" fill="#231f20"/><rect x="287.03" y="225.09" width="4.79" height="2.84" fill="#fff"/><path d="M291.81,228.43H287a.5.5,0,0,1-.5-.5v-2.84a.5.5,0,0,1,.5-.5h4.78a.5.5,0,0,1,.5.5v2.84A.5.5,0,0,1,291.81,228.43Zm-4.28-1h3.78v-1.84h-3.78Z" fill="#231f20"/><rect x="270.16" y="232.69" width="38.53" height="21.49" fill="#fff"/><path d="M308.68,254.68H270.16a.5.5,0,0,1-.5-.5V232.69a.5.5,0,0,1,.5-.5h38.52a.5.5,0,0,1,.5.5v21.49A.5.5,0,0,1,308.68,254.68Zm-38-1h37.52V233.19H270.66Z" fill="#231f20"/><circle cx="289.42" cy="243.44" r="6.9" fill="#fff"/><path d="M289.42,250.83a7.4,7.4,0,1,1,7.4-7.39A7.4,7.4,0,0,1,289.42,250.83Zm0-13.79a6.4,6.4,0,1,0,6.4,6.4A6.41,6.41,0,0,0,289.42,237Z" fill="#231f20"/><circle cx="289.42" cy="243.44" r="4.35" fill="#fff"/><path d="M289.42,248.29a4.86,4.86,0,1,1,4.85-4.85A4.85,4.85,0,0,1,289.42,248.29Zm0-8.71a3.86,3.86,0,1,0,3.85,3.86A3.86,3.86,0,0,0,289.42,239.58Z" fill="#231f20"/><path d="M300.61,233.19a.49.49,0,0,1-.32-.12c-.06,0-6.18-5.27-12.15-4.6a17.08,17.08,0,0,0-9.55,4.22.5.5,0,0,1-.72-.7A17.8,17.8,0,0,1,288,227.48c6.4-.72,12.65,4.61,12.91,4.84a.49.49,0,0,1,.05.7A.52.52,0,0,1,300.61,233.19Z" fill="#231f20"/><rect x="273.28" y="251.93" width="7.65" height="2.25" fill="#fff"/><path d="M280.93,254.68h-7.65a.5.5,0,0,1-.5-.5v-2.25a.5.5,0,0,1,.5-.5h7.65a.51.51,0,0,1,.5.5v2.25A.5.5,0,0,1,280.93,254.68Zm-7.15-1h6.65v-1.25h-6.65Z" fill="#231f20"/><rect x="273.28" y="232.69" width="7.65" height="2.25" fill="#fff"/><path d="M280.93,235.44h-7.65a.5.5,0,0,1-.5-.5v-2.25a.5.5,0,0,1,.5-.5h7.65a.51.51,0,0,1,.5.5v2.25A.5.5,0,0,1,280.93,235.44Zm-7.15-1h6.65v-1.25h-6.65Z" fill="#231f20"/><rect x="277.71" y="234.94" width="1.97" height="16.84" fill="#fff"/><path d="M279.68,252.28h-2a.5.5,0,0,1-.5-.5V234.94a.5.5,0,0,1,.5-.5h2a.5.5,0,0,1,.5.5v16.84A.5.5,0,0,1,279.68,252.28Zm-1.47-1h1V235.44h-1Z" fill="#231f20"/><rect x="274.08" y="234.94" width="1.97" height="16.84" fill="#fff"/><path d="M276.05,252.28h-2a.5.5,0,0,1-.5-.5V234.94a.5.5,0,0,1,.5-.5h2a.5.5,0,0,1,.5.5v16.84A.5.5,0,0,1,276.05,252.28Zm-1.47-1h1V235.44h-1Z" fill="#231f20"/><rect x="297.91" y="251.93" width="7.65" height="2.25" fill="#fff"/><path d="M305.56,254.68h-7.65a.5.5,0,0,1-.5-.5v-2.25a.51.51,0,0,1,.5-.5h7.65a.5.5,0,0,1,.5.5v2.25A.5.5,0,0,1,305.56,254.68Zm-7.15-1h6.65v-1.25h-6.65Z" fill="#231f20"/><rect x="297.91" y="232.69" width="7.65" height="2.25" fill="#fff"/><path d="M305.56,235.44h-7.65a.5.5,0,0,1-.5-.5v-2.25a.51.51,0,0,1,.5-.5h7.65a.5.5,0,0,1,.5.5v2.25A.5.5,0,0,1,305.56,235.44Zm-7.15-1h6.65v-1.25h-6.65Z" fill="#231f20"/><rect x="302.35" y="234.94" width="1.97" height="16.84" fill="#fff"/><path d="M304.32,252.28h-2a.5.5,0,0,1-.5-.5V234.94a.5.5,0,0,1,.5-.5h2a.5.5,0,0,1,.5.5v16.84A.5.5,0,0,1,304.32,252.28Zm-1.47-1h1V235.44h-1Z" fill="#231f20"/><rect x="298.71" y="234.94" width="1.97" height="16.84" fill="#fff"/><path d="M300.68,252.28h-2a.5.5,0,0,1-.5-.5V234.94a.5.5,0,0,1,.5-.5h2a.5.5,0,0,1,.5.5v16.84A.5.5,0,0,1,300.68,252.28Zm-1.47-1h1V235.44h-1Z" fill="#231f20"/><rect x="266.8" y="233.82" width="3.36" height="6.15" fill="#fff"/><path d="M270.16,240.47H266.8a.51.51,0,0,1-.5-.5v-6.15a.5.5,0,0,1,.5-.5h3.36a.5.5,0,0,1,.5.5V240A.51.51,0,0,1,270.16,240.47Zm-2.86-1h2.36v-5.15H267.3Z" fill="#231f20"/><rect x="267.04" y="250.53" width="2.86" height="3.28" fill="#fff"/><path d="M269.9,254.31H267a.5.5,0,0,1-.5-.5v-3.28a.5.5,0,0,1,.5-.5h2.86a.5.5,0,0,1,.5.5v3.28A.5.5,0,0,1,269.9,254.31Zm-2.36-1h1.86V251h-1.86Z" fill="#231f20"/><rect x="308.68" y="233.82" width="3.36" height="6.15" fill="#fff"/><path d="M312,240.47h-3.36a.51.51,0,0,1-.5-.5v-6.15a.5.5,0,0,1,.5-.5H312a.5.5,0,0,1,.5.5V240A.5.5,0,0,1,312,240.47Zm-2.86-1h2.36v-5.15h-2.36Z" fill="#231f20"/><rect x="308.94" y="250.53" width="2.86" height="3.28" transform="translate(620.75 504.34) rotate(-180)" fill="#fff"/><path d="M311.8,254.31h-2.86a.5.5,0,0,1-.5-.5v-3.28a.5.5,0,0,1,.5-.5h2.86a.5.5,0,0,1,.5.5v3.28A.5.5,0,0,1,311.8,254.31Zm-2.36-1h1.86V251h-1.86Z" fill="#231f20"/><polyline points="288.81 241.08 288.95 244.2 290.03 245.79" fill="#fff"/><path d="M290,246.29a.48.48,0,0,1-.41-.21l-1.08-1.6a.62.62,0,0,1-.09-.26l-.14-3.12a.5.5,0,0,1,.48-.52.48.48,0,0,1,.52.48l.13,3,1,1.47a.5.5,0,0,1-.13.7A.46.46,0,0,1,290,246.29Z" fill="#231f20"/><rect x="273.47" y="224.46" width="3.82" height="7.67" fill="#fff"/><path d="M277.29,232.63h-3.82a.5.5,0,0,1-.5-.5v-7.67a.5.5,0,0,1,.5-.5h3.82a.5.5,0,0,1,.5.5v7.67A.5.5,0,0,1,277.29,232.63Zm-3.32-1h2.82V225H274Z" fill="#231f20"/><rect x="300.62" y="224.46" width="3.82" height="7.67" fill="#fff"/><path d="M304.45,232.63h-3.83a.5.5,0,0,1-.5-.5v-7.67a.5.5,0,0,1,.5-.5h3.83a.5.5,0,0,1,.5.5v7.67A.5.5,0,0,1,304.45,232.63Zm-3.33-1H304V225h-2.83Z" fill="#231f20"/><rect x="271.72" y="221.01" width="35.41" height="3.45" fill="#fff"/><path d="M307.12,225h-35.4a.5.5,0,0,1-.5-.5V221a.5.5,0,0,1,.5-.5h35.4a.5.5,0,0,1,.5.5v3.45A.5.5,0,0,1,307.12,225Zm-34.9-1h34.4v-2.45h-34.4Z" fill="#231f20"/><path d="M305.18,221c-.31-24.49-15.76-44.07-15.76-44.07S274,196.52,273.67,221Z" fill="#fff"/><path d="M305.18,221.51H273.67a.48.48,0,0,1-.36-.15.48.48,0,0,1-.14-.36c.3-24.37,15.7-44.17,15.86-44.37a.51.51,0,0,1,.78,0c.16.2,15.56,20,15.87,44.37a.49.49,0,0,1-.15.36A.47.47,0,0,1,305.18,221.51Zm-31-1h30.5c-.46-21.62-12.87-39.5-15.25-42.73C287,181,274.63,198.89,274.17,220.51Z" fill="#231f20"/><path d="M282.52,219.41a.51.51,0,0,1-.51-.51c0-.18.08-18.29,6.92-42.1a.53.53,0,0,1,.49-.37.57.57,0,0,1,.49.36c5.1,16.62,6.9,41.68,6.92,41.93a.51.51,0,0,1-.48.54.51.51,0,0,1-.54-.47c0-.24-1.69-23.55-6.38-40-6.32,22.82-6.4,39.94-6.4,40.12A.51.51,0,0,1,282.52,219.41Z" fill="#d1d3d4"/><path d="M287.34,169.62A39.64,39.64,0,0,0,284.28,184h10.28a39.43,39.43,0,0,0-3.06-14.36Z" fill="#fff"/><path d="M294.56,184.48H284.28a.51.51,0,0,1-.36-.15.5.5,0,0,1-.14-.35,40.27,40.27,0,0,1,3.1-14.55.51.51,0,0,1,.46-.31h4.16a.5.5,0,0,1,.46.31,40.06,40.06,0,0,1,3.1,14.55.5.5,0,0,1-.14.35A.49.49,0,0,1,294.56,184.48Zm-9.77-1h9.26a39.14,39.14,0,0,0-2.88-13.36h-3.49A39.36,39.36,0,0,0,284.79,183.48Z" fill="#231f20"/><rect x="279.45" y="179.06" width="19.01" height="5.5" rx="1.91" fill="#fff"/><path d="M296.54,185.05H281.36a2.41,2.41,0,0,1-2.41-2.41V181a2.41,2.41,0,0,1,2.41-2.41h15.18A2.41,2.41,0,0,1,299,181v1.67A2.41,2.41,0,0,1,296.54,185.05Zm-15.18-5.49A1.41,1.41,0,0,0,280,181v1.67a1.41,1.41,0,0,0,1.41,1.41h15.18a1.41,1.41,0,0,0,1.41-1.41V181a1.41,1.41,0,0,0-1.41-1.41Z" fill="#231f20"/><rect x="285.29" y="167.72" width="7.74" height="1.9" fill="#fff"/><path d="M293,170.12h-7.74a.5.5,0,0,1-.5-.5v-1.9a.51.51,0,0,1,.5-.5H293a.5.5,0,0,1,.5.5v1.9A.5.5,0,0,1,293,170.12Zm-7.24-1h6.74v-.9h-6.74Z" fill="#231f20"/><path d="M286.77,167.72s1.06-5.35,1.27-6.33l-1.27-.56.63-3.56s-.6-.42-.35-.81a3,3,0,0,0,.35-.84,5.86,5.86,0,0,1-.49-2.61,1.59,1.59,0,0,1,1.13-.95v-.81h.45v-1L287.4,150l1.73-.79s.38-1,.74-1.05,1,1.09,1,1.09l1.41.42s-1.48.17-1.37.33.42,1.53.1,2a6.33,6.33,0,0,0,.95,2.67c1,1.87,2,5.91,1.31,6.41s-1.41.31-1.48.59-1.59,3.38-1.13,4a9.19,9.19,0,0,1,.92,2.11Z" fill="#231f20"/><path d="M291.56,168.22h-4.79a.5.5,0,0,1-.39-.18.5.5,0,0,1-.1-.41s.86-4.38,1.18-5.95l-.89-.4a.5.5,0,0,1-.29-.54l.58-3.28a1,1,0,0,1-.23-1.27,2.81,2.81,0,0,0,.25-.55,5.41,5.41,0,0,1-.45-2.78,1.91,1.91,0,0,1,1.11-1.15v-.46a.51.51,0,0,1,.45-.5v-.11l-.69-.15a.51.51,0,0,1-.11-1l1.55-.7c.23-.52.57-1.08,1-1.17.17,0,.67-.14,1.42,1.16l1.21.36a.51.51,0,0,1,.36.52.51.51,0,0,1-.44.46c-.29,0-.6.08-.82.12a3.17,3.17,0,0,1,0,1.78,7.36,7.36,0,0,0,.89,2.33c.75,1.42,2.36,6.2,1.14,7a3,3,0,0,1-1.23.47l-.11,0-.17.39c-.9,2.12-1,2.81-1,3a8.56,8.56,0,0,1,1,2.23.49.49,0,0,1-.07.44A.51.51,0,0,1,291.56,168.22Zm-4.18-1h3.48a5.64,5.64,0,0,0-.62-1.3c-.45-.6,0-1.86.86-4,.1-.22.16-.37.19-.44.1-.43.54-.51.83-.57a1.9,1.9,0,0,0,.84-.3c.25-.45-.43-3.81-1.46-5.77a6.65,6.65,0,0,1-1-2.93.52.52,0,0,1,.1-.27,3,3,0,0,0-.14-1.42.48.48,0,0,1,0-.48.42.42,0,0,1,.09-.14.69.69,0,0,1-.11-.13,4.22,4.22,0,0,0-.5-.75,6.61,6.61,0,0,0-.32.65.53.53,0,0,1-.25.28l-.49.22a.48.48,0,0,1,.14.34v1a.5.5,0,0,1-.45.5v.31a.5.5,0,0,1-.41.49,1.09,1.09,0,0,0-.74.61,5.32,5.32,0,0,0,.48,2.27.61.61,0,0,1,0,.3,3.41,3.41,0,0,1-.42,1s.14.07.22.13a.52.52,0,0,1,.21.5l-.57,3.17.91.4a.5.5,0,0,1,.29.56C288.36,162.27,287.66,165.8,287.38,167.22Zm4.87-5.46v0Z" fill="#231f20"/><rect x="316.26" y="226.88" width="39.98" height="27.3" fill="#fff"/><path d="M356.24,254.68h-40a.5.5,0,0,1-.5-.5v-27.3a.5.5,0,0,1,.5-.5h40a.5.5,0,0,1,.5.5v27.3A.5.5,0,0,1,356.24,254.68Zm-39.48-1h39v-26.3h-39Z" fill="#231f20"/><rect x="331.19" y="222.13" width="10.14" height="32.05" fill="#fff"/><path d="M341.32,254.68H331.19a.5.5,0,0,1-.5-.5V222.13a.5.5,0,0,1,.5-.5h10.13a.5.5,0,0,1,.5.5v32.05A.5.5,0,0,1,341.32,254.68Zm-9.63-1h9.13V222.63h-9.13Z" fill="#231f20"/><path d="M328.37,230.81h-9.29a.51.51,0,0,1,0-1h9.29a.51.51,0,0,1,0,1Z" fill="#d1d3d4"/><path d="M328.37,233.67h-9.29a.51.51,0,1,1,0-1h9.29a.51.51,0,1,1,0,1Z" fill="#d1d3d4"/><path d="M328.37,236.54h-9.29a.51.51,0,0,1,0-1h9.29a.51.51,0,0,1,0,1Z" fill="#d1d3d4"/><path d="M328.37,239.4h-9.29a.51.51,0,1,1,0-1h9.29a.51.51,0,1,1,0,1Z" fill="#d1d3d4"/><path d="M328.37,242.26h-9.29a.51.51,0,1,1,0-1h9.29a.51.51,0,0,1,0,1Z" fill="#d1d3d4"/><path d="M328.37,245.12h-9.29a.51.51,0,0,1,0-1h9.29a.51.51,0,0,1,0,1Z" fill="#d1d3d4"/><path d="M328.37,248h-9.29a.51.51,0,0,1,0-1h9.29a.51.51,0,0,1,0,1Z" fill="#d1d3d4"/><path d="M328.37,250.84h-9.29a.51.51,0,1,1,0-1h9.29a.51.51,0,1,1,0,1Z" fill="#d1d3d4"/><path d="M353.24,230.81H344a.51.51,0,0,1,0-1h9.29a.51.51,0,0,1,0,1Z" fill="#d1d3d4"/><path d="M353.24,233.67H344a.51.51,0,1,1,0-1h9.29a.51.51,0,1,1,0,1Z" fill="#d1d3d4"/><path d="M353.24,236.54H344a.51.51,0,0,1,0-1h9.29a.51.51,0,0,1,0,1Z" fill="#d1d3d4"/><path d="M353.24,239.4H344a.51.51,0,1,1,0-1h9.29a.51.51,0,1,1,0,1Z" fill="#d1d3d4"/><path d="M353.24,242.26H344a.51.51,0,0,1,0-1h9.29a.51.51,0,0,1,0,1Z" fill="#d1d3d4"/><path d="M353.24,245.12H344a.51.51,0,0,1,0-1h9.29a.51.51,0,0,1,0,1Z" fill="#d1d3d4"/><path d="M353.24,248H344a.51.51,0,0,1,0-1h9.29a.51.51,0,0,1,0,1Z" fill="#d1d3d4"/><path d="M353.24,250.84H344a.51.51,0,1,1,0-1h9.29a.51.51,0,1,1,0,1Z" fill="#d1d3d4"/><circle cx="251.12" cy="101.02" r="17.92" fill="#fff"/><path d="M360.6,254.68H39.4a.5.5,0,0,1-.5-.5V45.82a.5.5,0,0,1,.5-.5H360.6a.5.5,0,0,1,.5.5V254.18A.5.5,0,0,1,360.6,254.68Zm-320.7-1H360.1V46.32H39.9Z" fill="#231f20"/></g></svg>