<svg xmlns="http://www.w3.org/2000/svg" viewBox="0 0 400 300"><g id="_009" data-name="009"><path d="M69.31,99.31q6.18-8.93,12.88-17.46a10.81,10.81,0,0,1,4.24-3.77c1.78-.71,4.2-.17,4.91,1.6.52,1.29,0,2.73-.5,4a93.3,93.3,0,0,1-11.55,20.39A57.79,57.79,0,0,1,98.7,83.24a31.08,31.08,0,0,1-3.76,23,24.8,24.8,0,0,1,15.65-14.08,38.67,38.67,0,0,1-7.56,18A40.21,40.21,0,0,1,113,99.39a3.05,3.05,0,0,1,2.52-.85c1.56.45,1.46,2.7.91,4.22a32.8,32.8,0,0,1-4.82,8.85,11.87,11.87,0,0,1,10.68-8c1.91-.06-7,17.1-7.68,18.21-3.89,6.9-3.59,11.81-4,19.35-1.07,18.77-3,38.74-1.24,57.44.5,5.33,9.23,57.8,13.16,57.49-13.06,1-24.88,5.05-37.9,4.16-6.25-.42-17.9.69-23.45-2.2-7.31-3.81-3.3-24-3.34-30.6-.12-16-2.92-31.76-4.9-47.57-1.77-14.13-2.91-28.57-.93-42.74C54,122.49,61,111.29,69.31,99.31Z" fill="#fff"/><path d="M88.32,260.86c-1.26,0-2.53,0-3.8-.13-1.72-.12-3.89-.12-6.17-.11-6.27,0-13.35,0-17.47-2.15-6-3.1-4.84-15.71-4-24.92.22-2.5.42-4.65.41-6.12-.09-12.22-1.78-24.54-3.42-36.45-.51-3.69-1-7.37-1.47-11.06-1.62-12.91-3-28.11-.93-42.87s9.13-26,17.45-38h0C73,93.09,77.35,87.21,81.79,81.54c1.35-1.72,2.62-3.21,4.45-3.93s4.73-.19,5.57,1.89c.59,1.46,0,3-.51,4.38q-1.65,4-3.67,7.89a58.35,58.35,0,0,1,10.8-9,.5.5,0,0,1,.46,0,.48.48,0,0,1,.3.35,31.5,31.5,0,0,1-.63,16.24,25.2,25.2,0,0,1,11.89-7.74.5.5,0,0,1,.47.1.51.51,0,0,1,.17.45,38.91,38.91,0,0,1-3.3,11.08A40.36,40.36,0,0,1,112.65,99a3.43,3.43,0,0,1,3-.93,2.06,2.06,0,0,1,1.3,1.08,5.12,5.12,0,0,1-.06,3.79c-.26.74-.56,1.48-.87,2.19a11.94,11.94,0,0,1,6.25-2,.69.69,0,0,1,.64.34C124,105.3,115.09,121.88,115,122c-3.33,5.9-3.53,10.27-3.82,16.31,0,.91-.08,1.84-.14,2.82-.19,3.35-.41,6.74-.63,10.16-1,15.67-2.07,31.88-.62,47.21.74,7.76,9.38,56.4,12.63,57a.5.5,0,0,1,.08,1h0c-5,.39-9.89,1.24-14.62,2.06C101.54,259.73,95,260.86,88.32,260.86Zm-9.55-1.24c2.15,0,4.18,0,5.82.11,8,.55,15.31-.73,23.1-2.08,4.36-.76,8.85-1.54,13.46-2-1.28-1.92-3.41-7.87-7.05-26.14-2.66-13.38-5-28-5.3-30.91-1.46-15.41-.41-31.65.61-47.37.22-3.41.44-6.8.63-10.14.06-1,.1-1.91.15-2.81.27-6,.49-10.66,3.94-16.76,1.43-2.53,7.86-15.32,7.89-17.47a11.28,11.28,0,0,0-7,3.09,34.72,34.72,0,0,1-3,4.75.5.5,0,0,1-.88-.46,12,12,0,0,1,3.09-4.88,32.1,32.1,0,0,0,1.74-4,4.22,4.22,0,0,0,.11-3,1.1,1.1,0,0,0-.68-.57,2.63,2.63,0,0,0-2.09.77,39,39,0,0,0-7.71,7.63c-.66,1-1.36,2.06-2.11,3a.5.5,0,0,1-.68.1.49.49,0,0,1-.14-.67c.65-1,1.36-2.07,2.1-3a38.18,38.18,0,0,0,5.27-14,24.18,24.18,0,0,0-12.66,9.88,32.35,32.35,0,0,1-1.95,3.74.51.51,0,0,1-.66.18.5.5,0,0,1-.23-.64,24.69,24.69,0,0,1,2-3.75,30.5,30.5,0,0,0,1.94-18.19A56.92,56.92,0,0,0,85.29,96a92.32,92.32,0,0,1-5.6,8.41.5.5,0,0,1-.67.12.51.51,0,0,1-.17-.66,58.4,58.4,0,0,1,5.62-8.44,94.11,94.11,0,0,0,5.91-11.9c.48-1.18,1-2.52.5-3.64-.62-1.53-2.75-1.93-4.27-1.33s-2.77,2-4,3.61c-4.43,5.66-8.76,11.53-12.85,17.44h0c-8.25,11.91-15.25,23-17.29,37.59s-.68,29.77.93,42.62c.46,3.68,1,7.36,1.47,11,1.64,11.95,3.34,24.3,3.43,36.58,0,1.52-.19,3.7-.41,6.22-.75,8.42-1.89,21.15,3.49,23.95,3.9,2,11.16,2,17,2ZM69.31,99.31h0Z" fill="#231f20"/><path d="M128.58,268.06c-.46-2.68-11.77-48.18-11.77-48.18L51.55,208.32l1.16,57.6Z" fill="#d1d3d4"/><path d="M193,42.44v88.77H303.81c0-2.29.21-8.26,0-10.5C299.47,74.88,251.34,42.44,193,42.44Z" fill="#231f20"/><path d="M304.31,131.71H192.49V41.94h.5c28.57,0,55.54,7.82,75.95,22,20.71,14.42,33.27,34.56,35.36,56.68.16,1.63.09,5.07,0,7.83,0,1.09,0,2.06,0,2.72Zm-110.82-1H303.31c0-.62,0-1.39,0-2.24.05-2.59.12-6.15,0-7.71-2.06-21.83-14.47-41.71-34.94-56-20.12-14-46.7-21.77-74.88-21.86Z" fill="#231f20"/><path d="M69.88,146.58c0,49,49.62,88.77,110.82,88.77s110.82-39.74,110.82-88.77V135.09L180.7,146.58V57.81C119.5,57.81,69.88,97.58,69.88,146.58Z" fill="#231f20"/><path d="M69.88,135.09c0,49,49.62,88.77,110.82,88.77s110.82-39.74,110.82-88.77H180.7V46.32C119.5,46.32,69.88,86.08,69.88,135.09Z" fill="#68e1fd"/><path d="M193,31.94v88.77H303.81C303.81,71.71,254.19,31.94,193,31.94Z" fill="#fff"/><path d="M303.81,121.21H193a.5.5,0,0,1-.5-.5V31.94a.5.5,0,0,1,.5-.5c61.38,0,111.32,40.05,111.32,89.27A.5.5,0,0,1,303.81,121.21Zm-110.32-1H303.3C303,71.9,253.88,32.66,193.49,32.44Z" fill="#231f20"/><path d="M178.82,234h0a.5.5,0,0,1-.49-.51l1.88-98.38a.53.53,0,0,1,.3-.45.51.51,0,0,1,.54.09l75.46,67.61a.5.5,0,1,1-.67.74l-74.65-66.88-1.86,97.29A.5.5,0,0,1,178.82,234Z" fill="#fff"/><path d="M59.73,141.34l18.24-19c3.37-3.49,7.24-7.22,12.08-7.4,1.85-.07,4,.71,4.48,2.49.35,1.37-.44,2.75-1.2,3.94q-8.56,13.44-18.38,26a21.9,21.9,0,0,1-.22,32.3" fill="#fff"/><path d="M74.73,180.24a.5.5,0,0,1-.37-.17.5.5,0,0,1,0-.71,21.38,21.38,0,0,0,.22-31.55.52.52,0,0,1-.06-.68c6.5-8.33,12.67-17.07,18.36-26,.74-1.15,1.43-2.37,1.13-3.54-.38-1.48-2.29-2.19-4-2.12-4.55.17-8.29,3.67-11.74,7.25l-18.24,19a.5.5,0,0,1-.72-.69l18.24-19c3.59-3.73,7.5-7.38,12.43-7.56,2-.06,4.44.79,5,2.87.4,1.56-.44,3-1.26,4.33-5.62,8.81-11.72,17.45-18.13,25.7a22.39,22.39,0,0,1-.56,32.72A.51.51,0,0,1,74.73,180.24Z" fill="#231f20"/><path d="M282.79,230.58c1.21-14.49,10.1-69.24,6.42-79.88-2-5.69-7.06-9.27-11.75-12.63-4.15-3-11.48-7-12.33-12.39a4,4,0,0,1,.72-3.35,4.25,4.25,0,0,1,3.37-1c5.15.23,8.67,3.85,13.4,5.1s8.63,4.51,13.42,5.88c3.25.93,7.16.53,9.38-2a11.56,11.56,0,0,0,2.22-5.39,53,53,0,0,0-19.38-51.46c-1.88-1.43-4.09-3.77-2.78-5.74,1.06-1.59,3.48-1.21,5.25-.5,13.54,5.44,22.93,19,25.58,33-1.33-7.05-2.4-13.94-4.95-20.67-1.46-3.86-9.24-11.42-5.38-15.36a4,4,0,0,1,4.15-.68,9.86,9.86,0,0,1,3.54,2.64c8.87,9.41,12.38,23.52,15,35.86a93.77,93.77,0,0,0-3.85-25.61c-.85-2.88-1.85-5.8-1.74-8.8a3.87,3.87,0,0,1,.8-2.49c1.59-1.74,4.51-.11,5.88,1.82a33.16,33.16,0,0,1,4,9.19c3.18,10,6.37,20.34,4.81,30.68A95.27,95.27,0,0,0,339.07,86c-.34-4-.94-8.16-.14-12.14,2.11-10.49,8.33,5.68,8.91,8.43,1.53,7.2,1.43,14.73.92,22-1.59,22.7-8.78,44.72-8.85,67.3l-.14,46.08" fill="#fff"/><path d="M282.79,231.08h0a.5.5,0,0,1-.46-.54c.32-3.85,1.2-10.63,2.21-18.48,2.75-21.3,6.91-53.49,4.24-61.2-1.89-5.46-6.72-8.91-11.38-12.24l-.19-.14c-.66-.47-1.4-1-2.18-1.5-4.28-2.88-9.6-6.47-10.35-11.23a4.44,4.44,0,0,1,.84-3.76,4.66,4.66,0,0,1,3.76-1.15c3.13.14,5.69,1.49,8.16,2.8a26.15,26.15,0,0,0,5.34,2.32,32.91,32.91,0,0,1,7,3,34.85,34.85,0,0,0,6.48,2.86c2.67.76,6.6.73,8.87-1.86a11.09,11.09,0,0,0,2.1-5.16,52.24,52.24,0,0,0-19.2-51c-3-2.3-4.07-4.64-2.89-6.41,1-1.51,3.19-1.76,5.86-.69,10.09,4,18.52,13,23.06,24a72.63,72.63,0,0,0-3.09-11,24.67,24.67,0,0,0-2.41-4.07c-2.61-3.9-5.87-8.75-2.85-11.82a4.48,4.48,0,0,1,4.68-.79A10.1,10.1,0,0,1,314,65.85c7.61,8.07,11.33,19.59,13.9,30.59a93.1,93.1,0,0,0-3.6-19.85l-.28-.94a24.7,24.7,0,0,1-1.48-8,4.33,4.33,0,0,1,.93-2.81,2.79,2.79,0,0,1,2.28-.9,6.54,6.54,0,0,1,4.37,2.77c2,2.83,3.13,6.28,4.1,9.33a114.33,114.33,0,0,1,4.67,18c0-2.65-.12-5.31-.34-8-.06-.61-.11-1.22-.17-1.83-.33-3.44-.67-7,0-10.45.53-2.62,1.37-3.89,2.58-3.9h0c3.26,0,7,10.84,7.31,12.32,1.66,7.81,1.37,16,.93,22.18-.71,10.06-2.53,20.12-4.3,29.86-2.22,12.21-4.51,24.84-4.55,37.4l-.14,46.08a.5.5,0,0,1-.5.5h0a.5.5,0,0,1-.49-.5l.14-46.08c0-12.65,2.34-25.32,4.56-37.58,1.77-9.71,3.59-19.75,4.29-29.75.44-6.16.72-14.21-.9-21.9-.59-2.74-4.24-11.53-6.33-11.53h0c-.62,0-1.2,1.13-1.6,3.1-.67,3.3-.34,6.79,0,10.15.06.62.12,1.23.17,1.85a96.53,96.53,0,0,1-.25,19c-.06.64-.14,1.28-.23,1.92a.51.51,0,0,1-.57.42.5.5,0,0,1-.42-.56c.08-.63.16-1.25.23-1.88.94-10-2.35-20.23-5-28.58a32.48,32.48,0,0,0-4-9,5.53,5.53,0,0,0-3.62-2.35,1.8,1.8,0,0,0-1.48.57,3.3,3.3,0,0,0-.67,2.18,23.94,23.94,0,0,0,1.44,7.7l.28.94A93.89,93.89,0,0,1,329.16,102a.49.49,0,0,1-.45.5.48.48,0,0,1-.54-.39C325.55,89.77,322,75.78,313.3,66.54A9.32,9.32,0,0,0,310,64a3.5,3.5,0,0,0-3.62.56c-2.44,2.49.56,7,3,10.56a25.65,25.65,0,0,1,2.52,4.27c2.22,5.86,3.3,11.72,4.44,17.91.18.94.35,1.89.53,2.83h0a.5.5,0,1,1-1,.19c-2.8-14.8-12.72-27.62-25.28-32.66-1.69-.68-3.8-1-4.65.31-1.21,1.82,1.46,4.15,2.67,5.06a53.27,53.27,0,0,1,19.57,52,11.84,11.84,0,0,1-2.33,5.61c-2.57,3-6.94,3-9.9,2.17a34.43,34.43,0,0,1-6.66-2.94,32.74,32.74,0,0,0-6.75-2.93,26.84,26.84,0,0,1-5.55-2.41c-2.49-1.31-4.84-2.55-7.74-2.68a3.8,3.8,0,0,0-3,.83,3.58,3.58,0,0,0-.58,2.93c.68,4.33,5.8,7.78,9.92,10.55.79.54,1.54,1,2.2,1.52l.19.13c4.57,3.27,9.75,7,11.74,12.74,2.75,7.93-1.26,39-4.19,61.65-1,7.83-1.88,14.6-2.2,18.44A.49.49,0,0,1,282.79,231.08Z" fill="#231f20"/><path d="M267.76,266.45c.54-8,10.71-61,10.71-61l65.3-8.57,2.14,68Z" fill="#d1d3d4"/><path d="M285.42,219.85a.5.5,0,0,1-.06-1l50.85-7a.5.5,0,0,1,.56.43.49.49,0,0,1-.42.56l-50.86,7Z" fill="#231f20"/><path d="M110.38,232.69h0l-48.17-4.82a.49.49,0,0,1-.45-.54.5.5,0,0,1,.55-.45l48.17,4.82a.5.5,0,0,1-.05,1Z" fill="#231f20"/></g></svg>