<svg xmlns="http://www.w3.org/2000/svg" viewBox="0 0 400 300"><g id="_555_piggy_bank_flatline" data-name="#555_piggy_bank_flatline"><path d="M229.67,163.57a56.21,56.21,0,0,1-12.46,1.87c-4.11.32-5.9-1.67-6.19-5.75-.88-12.51-.35-24.87-8.72-35.16a112,112,0,0,0,17.25-7.81c2.07,2.55,4.76,4.5,7.13,6.76a37,37,0,0,1,11,31c-.29,2.32-.88,4.74-2.53,6.4C233.7,162.32,231.64,163,229.67,163.57Z" fill="#d1d3d4"/><path d="M216.39,166a5.72,5.72,0,0,1-3.87-1.23c-1.18-1-1.83-2.67-2-5-.12-1.68-.21-3.35-.3-5-.6-10.83-1.16-21.07-8.31-29.86a.48.48,0,0,1-.09-.45.49.49,0,0,1,.31-.33,111.51,111.51,0,0,0,17.18-7.78.51.51,0,0,1,.63.12,36.49,36.49,0,0,0,4.58,4.47c.83.73,1.69,1.47,2.51,2.25a37.61,37.61,0,0,1,11.15,31.4c-.27,2.14-.83,4.83-2.68,6.69-1.57,1.59-3.85,2.28-5.68,2.84a54.9,54.9,0,0,1-12.21,1.86l-.36,0C217,166,216.66,166,216.39,166Zm-13.26-41.22c6.93,8.92,7.49,19.11,8.09,29.88.09,1.67.18,3.34.3,5,.15,2.08.69,3.5,1.66,4.34a5.24,5.24,0,0,0,4,.95l.36,0a54.06,54.06,0,0,0,12-1.83h0c1.82-.55,3.87-1.18,5.27-2.58,1.64-1.65,2.14-4.14,2.4-6.12a36.57,36.57,0,0,0-10.85-30.55c-.8-.76-1.65-1.5-2.48-2.21a41.44,41.44,0,0,1-4.43-4.27A111.73,111.73,0,0,1,203.13,124.76Z" fill="#231f20"/><path d="M201.88,147.75s-11.21-13.15-10.69-22.51l-18.42,9.52s5.76,30.53,13.65,37.46S201.88,147.75,201.88,147.75Z" fill="#d1d3d4"/><path d="M188.75,173.72a4,4,0,0,1-2.66-1.12c-7.93-7-13.58-36.49-13.82-37.74a.5.5,0,0,1,.27-.54L191,124.79a.5.5,0,0,1,.5,0,.51.51,0,0,1,.23.45c-.51,9,10.46,22,10.57,22.16a.49.49,0,0,1,.1.44c-.23,1-5.74,23.53-12.52,25.67A3.5,3.5,0,0,1,188.75,173.72ZM173.33,135c.68,3.46,6.21,30.47,13.42,36.8a2.74,2.74,0,0,0,2.79.75c5.89-1.87,11.17-22.24,11.79-24.71-1.41-1.69-10.53-13-10.66-21.81Z" fill="#231f20"/><path d="M230.39,128.08A24.16,24.16,0,0,0,228.08,148c-4.06.14-8.32.68-11.58,3.11s-5,7.3-2.78,10.71a16.66,16.66,0,0,0-15.1,5.9,15.6,15.6,0,0,0-16.43-8.3c1.8-3.59-.84-8.18-4.56-9.71s-8-.75-11.77.54a48.15,48.15,0,0,0-17.35,10.35c-3.76-1.82-8.51.1-11,3.41s-3.31,7.63-3.58,11.8c-.24,3.65-.1,7.51,1.74,10.67a18.62,18.62,0,0,0,6.16,5.84,60.29,60.29,0,0,0,38.88,9.48c.23,4.26,5.55,6,9.81,6.35A104,104,0,0,0,225,205.18a20.79,20.79,0,0,1,5.15-.91c2.31,0,4.52.85,6.76,1.37,9.11,2.1,18.61-1.25,26.83-5.72,8.59-4.67,16.94-11.28,19.77-20.64,1.74-5.78,1.18-12,0-17.92C279.65,141.19,250.79,94.72,230.39,128.08Z" fill="#fff"/><path d="M199.19,209c-2.91,0-5.84-.13-8.76-.37-4.62-.39-9.62-2.25-10.22-6.3a60.41,60.41,0,0,1-38.71-9.62,19.14,19.14,0,0,1-6.31-6c-2-3.45-2-7.67-1.81-11,.24-3.69.87-8.41,3.68-12.07,2.44-3.17,7.19-5.48,11.35-3.69a48.77,48.77,0,0,1,17.29-10.23c5-1.68,8.92-1.85,12.12-.53a9.19,9.19,0,0,1,5,5.16,6.7,6.7,0,0,1,.19,4.38,16.18,16.18,0,0,1,15.74,8,17.23,17.23,0,0,1,14.11-5.62c-1.63-3.61.29-8.19,3.38-10.5,3.27-2.44,7.44-3,11.2-3.19A24.6,24.6,0,0,1,230,127.82h0c5.57-9.1,12.17-13,19.62-11.7,7.21,1.3,15.13,7.8,22.3,18.3,5.91,8.64,10.69,19.17,12.18,26.84,1,5.11,1.89,11.78,0,18.17-2.41,8-9.14,15-20,20.93-10.46,5.69-19.34,7.57-27.18,5.76-.64-.14-1.27-.32-1.9-.49a18.17,18.17,0,0,0-4.75-.86h0a18.72,18.72,0,0,0-4.6.79l-.4.11A104.2,104.2,0,0,1,199.19,209Zm-18.53-7.72a.47.47,0,0,1,.32.12.5.5,0,0,1,.18.36c.2,3.76,5,5.5,9.35,5.87a102.81,102.81,0,0,0,34.41-2.9l.4-.11a19.78,19.78,0,0,1,4.85-.82h0a19.1,19.1,0,0,1,5,.9c.62.17,1.24.34,1.86.48,7.6,1.75,16.25-.1,26.48-5.67,10.63-5.78,17.2-12.63,19.53-20.34,1.45-4.82,1.46-10.27,0-17.69-2.65-13.62-17.83-41.49-33.68-44.34-7-1.26-13.25,2.52-18.59,11.23h0a23.61,23.61,0,0,0-2.25,19.45.49.49,0,0,1-.07.44.47.47,0,0,1-.39.21c-3.77.14-8,.6-11.3,3-3,2.23-4.76,6.8-2.66,10a.49.49,0,0,1-.49.77A16.12,16.12,0,0,0,199,168a.5.5,0,0,1-.45.18.5.5,0,0,1-.39-.28,15.06,15.06,0,0,0-15.89-8,.51.51,0,0,1-.49-.19.49.49,0,0,1,0-.52,5.51,5.51,0,0,0,.12-4.44,8.23,8.23,0,0,0-4.42-4.59c-3-1.22-6.7-1-11.42.55a47.78,47.78,0,0,0-17.17,10.25.5.5,0,0,1-.56.08c-3.62-1.75-8.15.28-10.44,3.26-2.64,3.45-3.24,8-3.47,11.53-.21,3.15-.2,7.17,1.68,10.39a18.17,18.17,0,0,0,6,5.67,59.39,59.39,0,0,0,38.56,9.4Zm49.73-73.17h0Z" fill="#231f20"/><path d="M250.29,150.05s-16.37,20.14-33.49,23.58l15.86,18.62s23.74-4.12,31.61-20.44Z" fill="#fff"/><path d="M232.66,192.75a.46.46,0,0,1-.38-.18L216.42,174a.49.49,0,0,1-.09-.49.5.5,0,0,1,.37-.33c16.75-3.37,33-23.21,33.2-23.41a.49.49,0,0,1,.41-.18.51.51,0,0,1,.4.23l14,21.76a.48.48,0,0,1,0,.49c-7.89,16.36-31.74,20.67-32,20.71ZM217.72,174l15.13,17.76c2.66-.53,23.52-5.11,30.85-19.86l-13.47-21C247.54,154,233,170.41,217.72,174Z" fill="#231f20"/><path d="M161.27,160.77c1.82,1,10.85,11.1,30,13l-9,18.13S163.77,189.3,152,175.78Z" fill="#fff"/><path d="M182.21,192.43h-.07c-.19,0-18.76-2.8-30.57-16.32a.51.51,0,0,1,0-.59l9.33-15a.5.5,0,0,1,.67-.17,13.08,13.08,0,0,1,1.47,1.13A50,50,0,0,0,191.3,173.3a.52.52,0,0,1,.39.26.47.47,0,0,1,0,.46l-9,18.13A.51.51,0,0,1,182.21,192.43Zm-29.64-16.71c10.67,12,26.78,15.21,29.36,15.66l8.56-17.16a50.93,50.93,0,0,1-28.14-12l-.93-.76Z" fill="#231f20"/><path d="M231.7,177.49c-4.4,4.84-3.11,17.78-3.11,17.78l4.2,4.52A15.79,15.79,0,1,0,254,176.4l-4.91-3.74S236.09,172.64,231.7,177.49Z" fill="#231f20"/><path d="M243.38,204.39a16.18,16.18,0,0,1-10.93-4.22l-4.23-4.56a.55.55,0,0,1-.13-.29c-.05-.54-1.26-13.22,3.24-18.17h0c4.48-5,17.17-5,17.76-5a.54.54,0,0,1,.3.1l4.92,3.74a16.3,16.3,0,0,1-10.12,28.37Zm-14.31-9.34,4.08,4.41a15.3,15.3,0,0,0,20.52-22.69l-4.75-3.61c-1.51,0-12.92.33-16.85,4.66h0C228.13,182.16,229,193.54,229.07,195.05Zm2.63-17.56h0Z" fill="#231f20"/><circle cx="240.42" cy="185.4" r="15.79" fill="#fff"/><path d="M240.41,201.7a16.31,16.31,0,1,1,.81,0Zm0-31.59c-.25,0-.51,0-.76,0a15.22,15.22,0,1,0,.76,0Z" fill="#231f20"/><path d="M185.31,159.29l.18,6c0,4,7.5,7.32,16.84,7.42s16.94-3.07,17-7.07l-.18-6Z" fill="#fff"/><path d="M202.76,173.18h-.44a32,32,0,0,1-12.13-2.29c-3.37-1.49-5.22-3.49-5.19-5.64l-.19-5.95a.48.48,0,0,1,.14-.36.48.48,0,0,1,.36-.15h0l33.82.35a.5.5,0,0,1,.5.48l.18,6C219.77,169.89,212.31,173.18,202.76,173.18Zm-16.94-13.39.18,5.45c0,1.72,1.65,3.44,4.6,4.73a30.7,30.7,0,0,0,11.73,2.21c8.92.11,16.45-2.92,16.48-6.58l-.17-5.47Z" fill="#231f20"/><ellipse cx="202.22" cy="159.46" rx="7.25" ry="16.91" transform="translate(40.67 360.01) rotate(-89.41)" fill="#231f20"/><path d="M202.56,167.21h-.42c-9.76-.11-17.38-3.59-17.33-7.93s7.72-7.67,17.49-7.56A31.83,31.83,0,0,1,214.43,154c3.37,1.49,5.22,3.49,5.2,5.64s-1.91,4.11-5.32,5.53A31.43,31.43,0,0,1,202.56,167.21Zm-.67-14.5c-8.72,0-16,3-16.08,6.58s7.44,6.82,16.34,6.92a30.7,30.7,0,0,0,11.78-2c3-1.24,4.68-2.92,4.7-4.62h0c0-1.7-1.66-3.41-4.6-4.71a30.61,30.61,0,0,0-11.74-2.2Z" fill="#231f20"/><path d="M161.68,190.19l-1.58,6c-1.22,4,5.35,9.54,14.67,12.39s17.88,1.93,19.1-2.07l1.57-6Z" fill="#231f20"/><path d="M185,210.78a36,36,0,0,1-10.35-1.69c-9.74-3-16.33-8.69-15-13l1.56-6a.57.57,0,0,1,.24-.31.48.48,0,0,1,.39,0L195.59,200a.5.5,0,0,1,.33.6l-1.57,6C193.53,209.35,189.92,210.78,185,210.78Zm-22.95-20-1.44,5.53c-1.13,3.68,5.44,9.07,14.33,11.79s17.35,1.92,18.47-1.74l1.45-5.55Z" fill="#231f20"/><ellipse cx="178.56" cy="195.35" rx="7.56" ry="17.65" transform="translate(-60.46 308.99) rotate(-73)" fill="#fff"/><path d="M186.56,204.75a36.17,36.17,0,0,1-10.36-1.69c-9.73-3-16.32-8.7-15-13s10-5.38,19.72-2.4,16.32,8.69,15,13h0C195.1,203.32,191.49,204.75,186.56,204.75Zm-16-17.77c-4.45,0-7.74,1.16-8.41,3.35-1.12,3.66,5.44,9,14.33,11.77S193.84,204,195,200.36h0c1.12-3.66-5.44-9.05-14.34-11.77A35.21,35.21,0,0,0,170.57,187Zm24.87,13.53h0Z" fill="#231f20"/><polygon points="328.44 170.68 331.13 176.96 272.63 165.44 288.69 145.5 336.57 160.56 328.44 170.68" fill="#231f20"/><path d="M331.13,177.46H331l-58.51-11.52a.52.52,0,0,1-.37-.32.51.51,0,0,1,.08-.49l16.06-19.93a.5.5,0,0,1,.54-.16l47.88,15.05a.51.51,0,0,1,.33.34.52.52,0,0,1-.09.45L329,170.75l2.58,6a.5.5,0,0,1-.07.51A.51.51,0,0,1,331.13,177.46ZM273.54,165.1l56.76,11.19L328,170.87a.52.52,0,0,1,.07-.51l7.68-9.54-46.86-14.74Z" fill="#231f20"/><path d="M233,86.84s-8.62-25.92-.2-35.3c13.57,2.37,29.74,29.66,29.74,29.66S256.35,100.11,233,86.84Z" fill="#231f20"/><path d="M247.92,92.07c-4.46,0-9.53-1.6-15.13-4.79a.49.49,0,0,1-.23-.28c-.36-1.07-8.62-26.31-.1-35.8a.53.53,0,0,1,.45-.16c13.65,2.39,29.43,28.78,30.09,29.9a.46.46,0,0,1,.05.41A16.72,16.72,0,0,1,253.77,91,16.16,16.16,0,0,1,247.92,92.07Zm-14.47-5.56c7.88,4.44,14.59,5.65,20,3.58A15.9,15.9,0,0,0,262,81.25c-1.5-2.47-16.48-26.67-29-29.17C225.55,60.91,232.72,84.21,233.45,86.51Z" fill="#231f20"/><path d="M207.63,94.74s26.05-17.38,51-21.84S300,88.55,314.52,86.19l18.22,35.52A36.19,36.19,0,0,0,321.35,144c-1.52,14-20.88,43.09-57.25,58.69L261.22,187l-15.35-6.74,6.06-17.59-18-6.55,6-13.43-24.33-4L231,118,207.27,107Z" fill="#68e1fd"/><path d="M264.1,203.16a.46.46,0,0,1-.23-.06.49.49,0,0,1-.26-.35l-2.83-15.37-15.11-6.64a.49.49,0,0,1-.27-.62L251.3,163l-17.49-6.38a.48.48,0,0,1-.29-.27.55.55,0,0,1,0-.4l5.69-12.84-23.69-3.94a.49.49,0,0,1-.38-.3.53.53,0,0,1,.06-.49l15.05-20.16-23.19-10.8a.5.5,0,0,1-.29-.47l.35-12.21a.51.51,0,0,1,.23-.4c.26-.18,26.43-17.5,51.18-21.92,14.39-2.57,25.82,2.86,35.91,7.66,7.47,3.55,13.92,6.61,20,5.63A.49.49,0,0,1,315,86l18.22,35.52a.5.5,0,0,1-.12.62A35.94,35.94,0,0,0,321.85,144c-1.58,14.55-21,43.4-57.55,59.1A.45.45,0,0,1,264.1,203.16ZM246.49,180l14.94,6.56a.49.49,0,0,1,.29.36l2.76,15c22.24-9.74,53.89-35.07,56.38-58a37.06,37.06,0,0,1,11.26-22.32L314.24,86.74C308,87.6,301.48,84.52,294,81c-9.95-4.73-21.23-10.09-35.3-7.58-23.37,4.18-48,20-50.59,21.63l-.34,11.62,23.45,10.92a.5.5,0,0,1,.27.33.48.48,0,0,1-.08.42l-14.92,20L240,142.22a.52.52,0,0,1,.36.25.49.49,0,0,1,0,.44l-5.72,13,17.45,6.36a.5.5,0,0,1,.3.63Z" fill="#231f20"/><path d="M324.78,124a7.85,7.85,0,0,0,2.4,2.62c2.09,1.2,4.71.31,6.94-.59a6.55,6.55,0,0,0,2.73-1.7c1.24-1.52.87-3.75.38-5.65-2-7.5-12.07-39.06-23.33-35.63C301.26,86.85,320.85,118,324.78,124Z" fill="#68e1fd"/><path d="M329.49,127.65a5,5,0,0,1-2.56-.65,8,8,0,0,1-2.56-2.77c-3.06-4.64-18.12-28.27-14.64-37.93a5.9,5.9,0,0,1,4-3.78,6.91,6.91,0,0,1,5.51.75c10.52,5.89,18.36,34.94,18.44,35.23.54,2.07.91,4.41-.47,6.1a7,7,0,0,1-2.94,1.84A13.37,13.37,0,0,1,329.49,127.65Zm-13.88-44.4a5.17,5.17,0,0,0-1.56.23,4.86,4.86,0,0,0-3.38,3.16c-3.39,9.41,12.69,34.24,14.53,37h0a7.34,7.34,0,0,0,2.23,2.46c1.9,1.09,4.35.25,6.5-.63a6.13,6.13,0,0,0,2.54-1.54c1.09-1.35.75-3.39.27-5.21-1.95-7.47-9.43-29.85-18-34.61A6.46,6.46,0,0,0,315.61,83.25Z" fill="#231f20"/><path d="M246.44,92.91s-.12-36.29,4.39-40.85c7.4.22,13.09,8.28,18.49,17.82s5.77,14,5.77,14" fill="#68e1fd"/><path d="M246.44,93.41a.5.5,0,0,1-.5-.5c0-1.49-.07-36.55,4.54-41.2a.5.5,0,0,1,.37-.15c7.75.23,13.67,8.82,18.91,18.07,5.39,9.53,5.81,14,5.82,14.2a.5.5,0,1,1-1,.08s-.44-4.49-5.7-13.78c-5-8.91-10.69-17.18-17.84-17.56-3.34,4-4.15,28-4.11,40.34a.5.5,0,0,1-.5.5Z" fill="#231f20"/><path d="M253,86.44s-1.19-28.92.84-28.67,12.83,17,13.06,21.85S258.18,88.07,253,86.44Z" fill="#231f20"/><path d="M255.85,87.33a10,10,0,0,1-3-.41.52.52,0,0,1-.35-.46c-.19-4.54-1-27.3.8-29a.79.79,0,0,1,.6-.2c2.68.32,13.29,17.85,13.5,22.33.08,1.72-.85,3.38-2.7,4.81A15.4,15.4,0,0,1,255.85,87.33Zm-2.32-1.27c3.09.8,7.75-.25,10.59-2.44,1.11-.85,2.4-2.23,2.32-4C266.21,74.85,256,59.37,254,58.31,253,60,253,73.46,253.53,86.06Z" fill="#231f20"/><path d="M291.87,101.4a.51.51,0,0,1-.36-.15.51.51,0,0,1,0-.71l8.13-7.81a.5.5,0,1,1,.69.72l-8.12,7.81A.52.52,0,0,1,291.87,101.4Z" fill="#231f20"/><path d="M300.75,101.66a.54.54,0,0,1-.35-.14l-8.64-8.3a.5.5,0,0,1,.69-.72l8.65,8.3a.49.49,0,0,1,0,.7A.48.48,0,0,1,300.75,101.66Z" fill="#231f20"/><polyline points="290.02 164.52 324.46 185.52 313.61 202.31 269.78 181.54" fill="#68e1fd"/><path d="M313.61,202.82a.59.59,0,0,1-.22,0L269.56,182a.5.5,0,0,1-.23-.67.49.49,0,0,1,.66-.23l43.44,20.59,10.34-16-34-20.73a.5.5,0,0,1,.52-.86l34.44,21a.48.48,0,0,1,.23.32.47.47,0,0,1-.07.38L314,202.59A.53.53,0,0,1,313.61,202.82Z" fill="#231f20"/><path d="M310.5,147.88a3.37,3.37,0,0,0,.74,2.64,2.28,2.28,0,0,0,2.65,0,5.55,5.55,0,0,0,1.79-2.16c1.39-2.59,5.09-12,.13-13C311,134.38,310.53,145,310.5,147.88Z" fill="#231f20"/><path d="M312.51,151.47a2.34,2.34,0,0,1-1.6-.58,3.75,3.75,0,0,1-.91-3h0c0-3,.43-10.1,3.24-12.34a3.07,3.07,0,0,1,2.68-.63,3.28,3.28,0,0,1,2.42,1.9c1.6,3.43-1.35,10.21-2.22,11.84a6.13,6.13,0,0,1-2,2.36A3.2,3.2,0,0,1,312.51,151.47ZM311,147.88a3,3,0,0,0,.58,2.26,1.81,1.81,0,0,0,2.05,0,5.15,5.15,0,0,0,1.6-2c1.23-2.28,3.49-8.2,2.21-10.95a2.3,2.3,0,0,0-1.73-1.34,2.08,2.08,0,0,0-1.85.43c-2,1.62-2.8,7-2.86,11.57Z" fill="#231f20"/><polygon points="324.46 185.52 313.61 202.31 323.82 207.59 324.44 197.16 334.26 192.34 324.46 185.52" fill="#231f20"/><path d="M323.82,208.09a.59.59,0,0,1-.23-.05l-10.21-5.28a.49.49,0,0,1-.19-.72L324,185.25a.51.51,0,0,1,.71-.14l9.8,6.82a.53.53,0,0,1,.21.45.49.49,0,0,1-.28.41l-9.56,4.69-.6,10.14a.51.51,0,0,1-.25.41A.54.54,0,0,1,323.82,208.09Zm-9.49-6,9,4.68.57-9.68a.53.53,0,0,1,.28-.41l9.06-4.44-8.68-6.05Z" fill="#231f20"/><polygon points="113.39 139.9 74.56 168.97 65.13 175.54 74.07 180.96 73.74 191.89 84.35 186.41 119 165.75 113.39 139.9" fill="#231f20"/><path d="M73.74,192.39a.53.53,0,0,1-.27-.08.5.5,0,0,1-.23-.44l.32-10.63L64.87,176a.51.51,0,0,1,0-.84l9.43-6.57,38.82-29.06a.52.52,0,0,1,.48-.07.53.53,0,0,1,.31.36l5.6,25.85a.48.48,0,0,1-.23.53L84.61,186.84,74,192.33A.46.46,0,0,1,73.74,192.39ZM66,175.51l8.29,5a.51.51,0,0,1,.24.44l-.3,10.09,9.85-5.1,34.31-20.46-5.36-24.73-38.21,28.6Z" fill="#231f20"/><path d="M182.12,92.59s-41.52-20.66-71.74,1.59c-26.62,19.6-33.88,57.57-20.39,86s83.15,30.77,83.15,30.77l-6.09-11.31L182.93,180l-21.4-15.23,21.06-7.2-16-18.67,8-11.39-11.13-11.8,11.87-5-7.56-11.83Z" fill="#68e1fd"/><path d="M173.14,211.43h0a234.46,234.46,0,0,1-36.6-4.74c-25.51-5.53-41.31-14.39-47-26.32a72.38,72.38,0,0,1-4.88-46.61c3.65-16.41,12.68-30.6,25.42-40,30.13-22.18,71.84-1.85,72.26-1.64a.53.53,0,0,1,.28.46.54.54,0,0,1-.3.45L168.5,99.11l7.24,11.33a.51.51,0,0,1-.23.73l-11.2,4.68L175,127.13a.5.5,0,0,1,0,.63l-7.76,11.07L183,157.2a.49.49,0,0,1-.21.8l-20.15,6.89,20.61,14.66a.51.51,0,0,1,.1.72l-15.67,19.4,5.93,11a.5.5,0,0,1,0,.5A.52.52,0,0,1,173.14,211.43Zm-29.21-127c-11,0-22.84,2.49-33.25,10.16-25.25,18.59-34.14,56.09-20.24,85.36,12.4,26.11,73.76,30,81.84,30.45l-5.67-10.54a.52.52,0,0,1,0-.55l15.55-19.24-21-14.92a.49.49,0,0,1-.21-.48.54.54,0,0,1,.33-.41l20.38-7-15.52-18.1a.5.5,0,0,1,0-.61l7.75-11.06L163.08,116a.49.49,0,0,1-.12-.45.47.47,0,0,1,.29-.35l11.33-4.73-7.24-11.33a.49.49,0,0,1-.06-.41.51.51,0,0,1,.28-.31l13.34-5.86C176.92,90.79,161.51,84.42,143.93,84.42Z" fill="#231f20"/><path d="M76.58,124.2A4.84,4.84,0,0,1,73,122.56a6,6,0,0,1-.6-6.44,7.2,7.2,0,0,1,1.23-1.75,13,13,0,0,0-7.07.89c-1,.44-3.41,1.7-3.71,4a.49.49,0,0,1-.56.43.5.5,0,0,1-.43-.56c.37-2.76,3.14-4.24,4.31-4.74a14,14,0,0,1,8.15-.88l.24,0A9.84,9.84,0,0,1,77.33,112c6.42-2.25,13.12,1.73,16.64,6.38a.51.51,0,0,1-.09.7.52.52,0,0,1-.71-.1c-3.3-4.37-9.56-8.12-15.51-6a9.17,9.17,0,0,0-1.91.94,7.86,7.86,0,0,1,4.14,3c1.19,1.84,1.29,4.82-.63,6.42A4.13,4.13,0,0,1,76.58,124.2Zm-1.82-9.59a6.73,6.73,0,0,0-1.52,2,5,5,0,0,0,.47,5.34,3.67,3.67,0,0,0,4.9.6c1.46-1.22,1.41-3.63.44-5.11A7.28,7.28,0,0,0,74.76,114.61Z" fill="#231f20"/><polyline points="127.59 188.05 94.54 211.18 83.51 194.5 120.12 162.68" fill="#68e1fd"/><path d="M94.54,211.68h-.09a.47.47,0,0,1-.32-.21l-11-16.69a.49.49,0,0,1,.09-.65l36.61-31.82a.5.5,0,0,1,.66.76L84.17,194.59l10.51,15.89,32.62-22.84a.5.5,0,0,1,.7.12.51.51,0,0,1-.12.7l-33,23.13A.48.48,0,0,1,94.54,211.68Z" fill="#231f20"/><polygon points="94.54 211.18 83.51 194.5 74.58 201.74 83.89 206.49 84.36 217.42 94.54 211.18" fill="#231f20"/><path d="M84.36,217.92a.53.53,0,0,1-.24-.06.51.51,0,0,1-.26-.42l-.46-10.63-9.05-4.63a.49.49,0,0,1-.27-.39.5.5,0,0,1,.18-.44l8.94-7.24a.49.49,0,0,1,.73.11L95,210.9a.5.5,0,0,1,.07.39.53.53,0,0,1-.23.32l-10.18,6.23A.5.5,0,0,1,84.36,217.92Zm-8.87-16.28,8.63,4.41a.49.49,0,0,1,.27.42l.43,10.08,9-5.53L83.4,195.23Z" fill="#231f20"/><path d="M224.83,204.71c1.23-2.17-13.93-11.45-13.93-11.45s-18,23.17-35.86,28.61l16.3,16.43S213.44,225,224.83,204.71Z" fill="#fff"/><path d="M191.34,238.8a.52.52,0,0,1-.35-.14l-16.3-16.44a.5.5,0,0,1-.13-.47.5.5,0,0,1,.34-.36c17.5-5.33,35.43-28.21,35.61-28.44a.51.51,0,0,1,.66-.12c14,8.61,14.54,11.35,14.1,12.13h0c-11.33,20.15-33.44,33.64-33.67,33.77A.48.48,0,0,1,191.34,238.8ZM176,222.1l15.44,15.57c2.8-1.76,22.54-14.63,33-33.2h0c.4-.71-4.14-4.86-13.38-10.55C208.7,196.81,192.31,216.65,176,222.1Zm48.85-17.39h0Z" fill="#231f20"/><polygon points="255.47 211.35 239.55 215.4 239.36 221.93 262.64 227.79 255.47 211.35" fill="#68e1fd"/><path d="M262.64,228.29l-.12,0-23.28-5.86a.5.5,0,0,1-.38-.5l.19-6.53a.51.51,0,0,1,.38-.47l15.92-4a.5.5,0,0,1,.58.29l7.17,16.44a.47.47,0,0,1-.08.52A.46.46,0,0,1,262.64,228.29Zm-22.77-6.75,21.91,5.52-6.6-15.12L240,215.79Z" fill="#231f20"/><polygon points="169.18 219.88 150.63 221.04 150.35 230.67 169.03 225.07 169.18 219.88" fill="#68e1fd"/><path d="M150.35,231.17a.49.49,0,0,1-.5-.51l.28-9.63a.51.51,0,0,1,.47-.49l18.55-1.15a.52.52,0,0,1,.38.14.5.5,0,0,1,.15.37l-.15,5.18a.49.49,0,0,1-.36.46l-18.68,5.61Zm.77-9.66-.25,8.48,17.67-5.3.12-4.27Z" fill="#231f20"/><path d="M208.78,205.51l-1.26,5.36c-1,3.54,4.92,8.3,13.2,10.61s15.8,1.32,16.79-2.22l1.26-5.36Z" fill="#231f20"/><path d="M229.19,223.24a32.82,32.82,0,0,1-8.61-1.27c-8.67-2.43-14.62-7.37-13.54-11.24l1.26-5.33a.5.5,0,0,1,.23-.32.49.49,0,0,1,.39-.05l30,8.39a.51.51,0,0,1,.36.6L238,219.37c-.55,1.94-2.7,3.25-6.09,3.7A21.35,21.35,0,0,1,229.19,223.24Zm-20-17.11L208,211c-.91,3.24,5,7.82,12.84,10a28,28,0,0,0,10.93,1.07c2.92-.38,4.83-1.46,5.25-2.95l1.14-4.86Z" fill="#231f20"/><ellipse cx="223.78" cy="209.71" rx="6.67" ry="15.57" transform="translate(-38.47 368.7) rotate(-74.37)" fill="#fff"/><path d="M230.45,217.88a32.41,32.41,0,0,1-8.61-1.27,29.15,29.15,0,0,1-10.25-4.94c-2.66-2.14-3.83-4.37-3.29-6.29s2.7-3.23,6.08-3.68a32.47,32.47,0,0,1,21.58,6c2.66,2.14,3.83,4.38,3.29,6.3h0c-.54,1.92-2.69,3.22-6.08,3.67A19.66,19.66,0,0,1,230.45,217.88Zm-13.34-15.35a21.48,21.48,0,0,0-2.6.16c-2.92.39-4.83,1.47-5.25,3s.66,3.4,3,5.24A31.44,31.44,0,0,0,233,216.72c2.92-.39,4.83-1.46,5.25-2.95h0c.42-1.49-.66-3.4-2.95-5.25a28.36,28.36,0,0,0-9.9-4.75A31.22,31.22,0,0,0,217.11,202.53Z" fill="#231f20"/><path d="M161.62,232.32l.52,5.47c.19,3.68,7.3,6.3,15.89,5.86s15.39-3.79,15.2-7.47l-.51-5.47Z" fill="#231f20"/><path d="M176.1,244.2c-8.07,0-14.27-2.66-14.46-6.38l-.52-5.46a.5.5,0,0,1,.12-.37.53.53,0,0,1,.36-.17l31.09-1.61a.5.5,0,0,1,.53.45l.51,5.48c.1,2-1.52,3.93-4.59,5.44a29.35,29.35,0,0,1-11.09,2.57C177.39,244.18,176.74,244.2,176.1,244.2Zm-13.93-11.41.46,5c.18,3.36,7.21,5.82,15.37,5.4a28.29,28.29,0,0,0,10.7-2.47c2.64-1.3,4.11-2.93,4-4.47l-.46-5Z" fill="#231f20"/><ellipse cx="177.17" cy="231.51" rx="15.57" ry="6.67" transform="translate(-11.73 9.47) rotate(-2.96)" fill="#fff"/><path d="M175.59,238.73c-8.07,0-14.27-2.67-14.47-6.39-.1-2,1.53-3.91,4.59-5.42a29.35,29.35,0,0,1,11.09-2.57c9-.46,16.21,2.32,16.42,6.33.1,2-1.53,3.92-4.59,5.42a29.16,29.16,0,0,1-11.09,2.57Q176.55,238.73,175.59,238.73Zm3.08-13.43c-.6,0-1.21,0-1.82,0a28.29,28.29,0,0,0-10.7,2.47c-2.64,1.3-4.11,2.93-4,4.47.17,3.34,7.21,5.81,15.37,5.39a28.48,28.48,0,0,0,10.7-2.47c2.64-1.3,4.11-2.93,4-4.48C192.06,227.64,186,225.3,178.67,225.3Z" fill="#231f20"/><path d="M189.15,147.35l-.2,6c-.31,4,7,7.83,16.37,8.54s17.16-2,17.47-6l.2-6Z" fill="#fff"/><path d="M208.31,162.49c-1,0-2,0-3-.11a32,32,0,0,1-12-3.09c-3.28-1.71-5-3.84-4.83-6l.2-6a.53.53,0,0,1,.17-.36.45.45,0,0,1,.37-.12L223,149.43a.49.49,0,0,1,.46.51l-.2,6c-.17,2.17-2.19,4-5.69,5.21A29.38,29.38,0,0,1,208.31,162.49Zm-18.67-14.6-.19,5.47c-.13,1.72,1.43,3.55,4.3,5a34.34,34.34,0,0,0,23.53,1.79c3.05-1,4.88-2.61,5-4.31l.19-5.49Z" fill="#231f20"/><ellipse cx="206.07" cy="148.64" rx="7.27" ry="16.97" transform="translate(42.25 342.86) rotate(-85.66)" fill="#fff"/><path d="M208.56,156.5c-1,0-2,0-3.08-.11-9.76-.75-17.15-4.73-16.83-9.07s8.25-7.17,18-6.43,17.16,4.73,16.83,9.07h0C223.2,153.84,216.86,156.5,208.56,156.5Zm-4.85-14.72c-7.64,0-13.81,2.35-14.06,5.61-.28,3.66,7,7.32,15.91,8s16.66-1.84,16.93-5.5h0c.28-3.66-7-7.33-15.91-8C205.61,141.81,204.65,141.78,203.71,141.78ZM223,149.92h0Z" fill="#231f20"/><path d="M191.6,187.47l-.13,0a.5.5,0,0,1-.35-.61,7.19,7.19,0,0,1,3.46-4.21,15.69,15.69,0,0,1,5.08-1.67,20.56,20.56,0,0,1,7.67-.21,10.56,10.56,0,0,1,6.62,4,.51.51,0,0,1-.12.7.52.52,0,0,1-.7-.12,9.45,9.45,0,0,0-6-3.58,19.45,19.45,0,0,0-7.3.21,14.71,14.71,0,0,0-4.76,1.54,6.19,6.19,0,0,0-3,3.61A.5.5,0,0,1,191.6,187.47Z" fill="#231f20"/><path d="M225.15,158.54h0a.5.5,0,0,1-.48-.52A15.47,15.47,0,0,1,231.32,146a2.59,2.59,0,0,1,2.49-.49.5.5,0,1,1-.44.9c-.33-.16-.84,0-1.49.42a14.4,14.4,0,0,0-6.23,11.27A.5.5,0,0,1,225.15,158.54Z" fill="#231f20"/><polygon points="220.53 234.46 209.79 232.4 195.71 241.15 209.57 248.46 220.53 234.46" fill="#68e1fd"/><path d="M209.57,249a.46.46,0,0,1-.23-.06l-13.86-7.31a.51.51,0,0,1-.27-.42.54.54,0,0,1,.24-.45L209.53,232a.49.49,0,0,1,.36-.07L220.63,234a.51.51,0,0,1,.3.8l-11,14A.5.5,0,0,1,209.57,249Zm-12.85-7.85,12.72,6.72,10.19-13-9.74-1.87Z" fill="#231f20"/><path d="M245.63,234.08a6.2,6.2,0,0,0-8.49-1.11,18.78,18.78,0,0,1,3,4.51c.62,1.49,1.27,3.47,2.88,3.5s3.63-.23,5-1.28,2-3.37.72-4.56c-.93-.85-2.39-.8-3.43-1.52" fill="#68e1fd"/><path d="M243.08,241.47c-1.83,0-2.59-1.89-3.2-3.38l-.17-.41a18.41,18.41,0,0,0-3-4.39.54.54,0,0,1-.11-.37.53.53,0,0,1,.19-.34,6.41,6.41,0,0,1,4.84-1.25,6.53,6.53,0,0,1,3.79,1.8.5.5,0,0,1,.2.08,5.19,5.19,0,0,0,1.46.59,4.89,4.89,0,0,1,2,1,2.82,2.82,0,0,1,.87,2.29,4.2,4.2,0,0,1-1.63,3C246.81,241.28,244.74,241.39,243.08,241.47Zm-5.21-8.4a17.37,17.37,0,0,1,2.76,4.22l.17.42c.53,1.29,1.13,2.75,2.26,2.77,1.49-.08,3.4-.18,4.74-1.18A3.15,3.15,0,0,0,249,237a1.85,1.85,0,0,0-.55-1.5,4.2,4.2,0,0,0-1.64-.74c-.29-.09-.59-.18-.88-.29h0a.5.5,0,0,1-.7-.1,5.47,5.47,0,0,0-3.69-2.06A5.58,5.58,0,0,0,237.87,233.07Z" fill="#231f20"/></g></svg>