<svg xmlns="http://www.w3.org/2000/svg" viewBox="0 0 400 300"><g id="_352_pilot_flatline" data-name="#352_pilot_flatline"><line x1="250.57" y1="94.67" x2="76.45" y2="172.78" fill="#fff"/><path d="M76.45,173.28a.5.5,0,0,1-.2-.95L250.37,94.21a.51.51,0,0,1,.66.25.49.49,0,0,1-.26.66L76.66,173.24A.52.52,0,0,1,76.45,173.28Z" fill="#d1d3d4"/><line x1="323.55" y1="122.85" x2="285.47" y2="139.93" fill="#fff"/><path d="M285.47,140.43a.49.49,0,0,1-.45-.3.5.5,0,0,1,.25-.66l38.07-17.08a.5.5,0,0,1,.66.25.49.49,0,0,1-.25.66l-38.07,17.09A.52.52,0,0,1,285.47,140.43Z" fill="#d1d3d4"/><line x1="155.31" y1="79.59" x2="88.1" y2="109.74" fill="#fff"/><path d="M88.1,110.24a.52.52,0,0,1-.46-.29.5.5,0,0,1,.26-.66l67.2-30.15a.5.5,0,0,1,.41.91L88.31,110.2A.52.52,0,0,1,88.1,110.24Z" fill="#d1d3d4"/><path d="M289.39,170.52l-36-47.44s-10.91,0-12.74-1.46c-2.36-1.92-33.36-10.13-49.63-7.21a72.69,72.69,0,0,0-22.17,5A49.73,49.73,0,0,1,149,123.08l-36,47.44,30,19.53,8.82-8.78,4.89,50.51h90.67l4.76-48.87,7.17,7.14Z" fill="#fff"/><path d="M247.42,232.3H156.75a.53.53,0,0,1-.52-.47l-4.78-49.43-8,8a.51.51,0,0,1-.64.07l-30-19.52a.51.51,0,0,1-.22-.35.52.52,0,0,1,.09-.4l36-47.44a.49.49,0,0,1,.44-.21,49.65,49.65,0,0,0,19.63-3.67,74.28,74.28,0,0,1,22.34-5c15.89-2.85,47.27,5.13,50,7.33,1.23,1,8.28,1.35,12.41,1.34h0a.51.51,0,0,1,.41.21l36,47.44a.53.53,0,0,1,.1.4.56.56,0,0,1-.23.35l-30,19.52a.53.53,0,0,1-.65-.07l-6.4-6.37-4.65,47.79A.53.53,0,0,1,247.42,232.3Zm-90.2-1H247l4.72-48.4a.52.52,0,0,1,.34-.44.51.51,0,0,1,.54.12l6.87,6.85,29.22-19-35.5-46.8c-1.93,0-11-.09-12.82-1.57-2.15-1.76-32.83-10-49.21-7.1A73,73,0,0,0,169,119.85a51.38,51.38,0,0,1-19.79,3.75l-35.5,46.79,29.22,19,8.52-8.49a.52.52,0,0,1,.88.32Z" fill="#231f20"/><polygon points="182.26 111.52 220.43 111.52 216.34 123.92 193.4 123.92 182.26 118.58 182.26 111.52" fill="#231f20"/><path d="M216.35,124.41H193.4a.52.52,0,0,1-.21,0L182.05,119a.48.48,0,0,1-.29-.45v-7.06a.5.5,0,0,1,.5-.5h38.17a.48.48,0,0,1,.4.2.52.52,0,0,1,.07.45l-4.08,12.4A.49.49,0,0,1,216.35,124.41Zm-22.83-1H216L219.74,112h-37v6.26Z" fill="#231f20"/><path d="M225.37,79.89s6.12-21.9,2.51-26.49-2.52.06-2.54.08c3.55-2.77-1-8-3.42-9.79a22.2,22.2,0,0,0-6.21-2.86,47.91,47.91,0,0,0-16.87-2.7A25.83,25.83,0,0,0,183.05,44c-6.79,6-8.76,13.22-7.67,22,.78,6.25,2.92,12.43,3.54,18.57,7.22.45,14.5,1.06,21.79,1C206.5,85.44,222.27,86.71,225.37,79.89Z" fill="#fff"/><path d="M206.64,86.09c-1.1,0-2.15,0-3.12,0s-2,0-2.8,0c-5.92.09-11.91-.3-17.7-.69l-4.13-.26a.52.52,0,0,1-.49-.47A79.1,79.1,0,0,0,176.6,75c-.66-2.92-1.36-5.93-1.73-8.93-1.19-9.56,1.3-16.68,7.84-22.42a26.26,26.26,0,0,1,16.1-6,47.94,47.94,0,0,1,17.05,2.72,22.36,22.36,0,0,1,6.36,2.93c1.89,1.36,4.89,4.61,4.94,7.54a3.82,3.82,0,0,1-.08.9,13.47,13.47,0,0,1,1.2,1.38c3.76,4.77-2.2,26.28-2.44,27h0C223.39,85.5,213.88,86.09,206.64,86.09ZM201.4,85l2.13,0c6.57.09,18.78.25,21.35-5.31,1.7-6,5.44-22.39,2.59-26-.31-.4-.58-.71-.8-.95a4.27,4.27,0,0,1-1,1.12h0a.52.52,0,0,1-.72-.09.66.66,0,0,1-.11-.28c-.19-1.13-.27-2.24.47-2.57a1,1,0,0,1,.84,0v-.17c0-2.39-2.72-5.43-4.51-6.72a21.58,21.58,0,0,0-6.07-2.79,47.07,47.07,0,0,0-16.69-2.67,25.28,25.28,0,0,0-15.47,5.77c-6.26,5.5-8.64,12.34-7.5,21.52.37,3,1.06,5.94,1.72,8.83a82.45,82.45,0,0,1,1.77,9.33l3.71.23c5.77.38,11.74.78,17.61.69Zm24-5.12h0ZM225,53.07Zm.72-1.12a2.92,2.92,0,0,0,0,.38,2.09,2.09,0,0,0,.16-.29Z" fill="#231f20"/><path d="M218.49,82.08c1.53-7.83,14.68-9.32,13.71,0a13.72,13.72,0,0,1-3.79,8.6c-2.32,2.2-6,3.15-8.84,1.74" fill="#fff"/><path d="M222.54,93.55a7.27,7.27,0,0,1-3.2-.71.52.52,0,0,1,.45-.93,7.53,7.53,0,0,0,8.26-1.66A13.29,13.29,0,0,0,231.69,82c.48-4.58-2.62-5.55-4-5.75-3.47-.52-7.91,1.8-8.73,6a.51.51,0,0,1-.6.41A.52.52,0,0,1,218,82c.93-4.73,6-7.38,9.9-6.78,2.64.39,5.3,2.41,4.83,6.88A14.29,14.29,0,0,1,228.77,91,9.18,9.18,0,0,1,222.54,93.55Z" fill="#231f20"/><path d="M185.9,81c-1-7.92-14-10.32-13.68-1a13.69,13.69,0,0,0,3.18,8.84c2.17,2.36,5.74,3.57,8.71,2.36" fill="#fff"/><path d="M181.61,92.13a9.1,9.1,0,0,1-6.59-3A14.29,14.29,0,0,1,171.71,80c-.16-4.49,2.63-6.32,5.3-6.53,4-.32,8.8,2.67,9.4,7.46a.52.52,0,0,1-1,.13c-.52-4.21-4.79-6.85-8.29-6.56-1.36.11-4.51.86-4.35,5.47a13.27,13.27,0,0,0,3,8.51,7.55,7.55,0,0,0,8.13,2.23.5.5,0,0,1,.67.28.52.52,0,0,1-.28.67A7,7,0,0,1,181.61,92.13Z" fill="#231f20"/><path d="M185.68,120.36s6,3.07,16.33,3.43,12-2.44,12-2.44l-.25-5.53L213.24,103l-.55-12-23.56-.81L188,99.93l-.35,3.16Z" fill="#fff"/><path d="M203.8,124.34l-1.81,0c-10.32-.36-16.3-3.36-16.55-3.49a.51.51,0,0,1-.28-.51l3.45-30.2a.54.54,0,0,1,.53-.46l23.57.82a.51.51,0,0,1,.5.49l1.36,30.37a.6.6,0,0,1-.08.29C214.31,121.91,212.54,124.34,203.8,124.34Zm-17.57-4.29a43.6,43.6,0,0,0,15.8,3.23c8.57.29,11-1.63,11.5-2.11L212.2,91.48l-22.62-.78Z" fill="#231f20"/><path d="M187.65,103.09a21.06,21.06,0,0,0,7.51,7.06c5,3,12.45,6.4,18.64,5.67L213.24,103a57.27,57.27,0,0,1-13.6-.38c-4-.48-8-1-11.64-2.67Z" fill="#231f20"/><path d="M212.05,116.42c-6.38,0-13.36-3.58-17.14-5.85a21.12,21.12,0,0,1-7.69-7.23.52.52,0,0,1-.06-.3l.35-3.17a.48.48,0,0,1,.25-.38.51.51,0,0,1,.45,0c3.63,1.68,7.81,2.19,11.49,2.64a57.08,57.08,0,0,0,13.48.38.51.51,0,0,1,.38.12.47.47,0,0,1,.17.35l.57,12.84a.5.5,0,0,1-.44.52A15.56,15.56,0,0,1,212.05,116.42ZM188.17,103a20.39,20.39,0,0,0,7.25,6.74c3.94,2.37,11.43,6.19,17.87,5.66l-.53-11.85a58.67,58.67,0,0,1-13.18-.43c-3.55-.44-7.55-.93-11.16-2.45Z" fill="#231f20"/><path d="M221.48,59.58l-1,28.6a18,18,0,0,1-18.68,17.43l-2.11-.08a18,18,0,0,1-17.43-18.68l1-28.59L200.52,64Z" fill="#fff"/><path d="M202.43,106.14h-.64l-2.11-.08a18.54,18.54,0,0,1-17.92-19.22l1-28.59a.47.47,0,0,1,.22-.4.53.53,0,0,1,.46-.07l17.12,5.72,20.83-4.41a.46.46,0,0,1,.43.11.5.5,0,0,1,.19.41l-1,28.6a18.29,18.29,0,0,1-.51,3.73A18.64,18.64,0,0,1,202.43,106.14ZM183.75,59l-1,27.9a17.48,17.48,0,0,0,.53,5A17.66,17.66,0,0,0,199.72,105l2.11.08A17.54,17.54,0,0,0,220,88.17l1-27.95-20.31,4.31a.62.62,0,0,1-.27,0Z" fill="#231f20"/><path d="M165.91,47.26A53.69,53.69,0,0,0,181.6,35.12c7.67-8.49,14.09-8.87,20.86-9s14.09,2.62,18.37,7.13,11.95,12.39,16.4,13.14l-8.55,6.94H174.11Z" fill="#68e1fd"/><path d="M228.68,53.78H174.11a.53.53,0,0,1-.3-.09l-8.2-6a.51.51,0,0,1-.2-.46.51.51,0,0,1,.29-.4,53.87,53.87,0,0,0,15.53-12c8-8.86,14.72-9,21.22-9.22,7-.21,14.35,2.67,18.74,7.29,3.18,3.34,11.62,12.23,16.13,13a.49.49,0,0,1,.4.36.52.52,0,0,1-.17.52L229,53.67A.51.51,0,0,1,228.68,53.78Zm-54.41-1H228.5l7.66-6.22c-4.31-1.46-10.58-7.65-15.69-13-4.14-4.35-11.36-7.17-18-7-6.3.18-12.8.36-20.51,8.89a56.27,56.27,0,0,1-15.11,11.89Z" fill="#231f20"/><path d="M174.09,57.27s12.68,10.12,28.3,9.57a54.46,54.46,0,0,0,26.43-7.91V53.12s-13.61-3.9-26.43-3.9a117.88,117.88,0,0,0-28.3,3.24Z" fill="#231f20"/><path d="M201.17,67.36c-15.07,0-27.27-9.6-27.39-9.7a.49.49,0,0,1-.19-.39V52.46A.49.49,0,0,1,174,52a119.37,119.37,0,0,1,28.43-3.25c12.74,0,26.43,3.87,26.57,3.91a.5.5,0,0,1,.36.48v5.81a.49.49,0,0,1-.22.41,55.49,55.49,0,0,1-26.69,8C202,67.35,201.58,67.36,201.17,67.36ZM174.59,57c1.62,1.22,13.54,9.81,27.79,9.31a54.72,54.72,0,0,0,25.94-7.68V53.49c-2.24-.6-14.48-3.77-25.93-3.77a121.15,121.15,0,0,0-27.8,3.12Z" fill="#231f20"/><path d="M228.83,56.53a.51.51,0,0,1-.17,0c-.07,0-7.72-2.72-26.27-2.72s-28.08,2.38-28.18,2.4a.49.49,0,0,1-.24-1c.09,0,9.69-2.43,28.42-2.43s26.3,2.66,26.61,2.77a.5.5,0,0,1-.17,1Z" fill="#fff"/><circle cx="201.69" cy="38.3" r="2.36" fill="#fff"/><path d="M203.37,38.65l1.6-1.71h5.17a2.73,2.73,0,0,1-.38,1.36c-.46,1-1,1.56-1.41,1.6s-5.85,0-5.85,0Z" fill="#fff"/><path d="M199.77,38.65l-1.6-1.71H193a2.73,2.73,0,0,0,.38,1.36c.46,1,1,1.56,1.41,1.6s5.85,0,5.85,0Z" fill="#fff"/><path d="M182.26,111.52c.48,0,19.75,12.27,19.75,12.27l-4.42,7.6-19.93-8.47Z" fill="#fff"/><path d="M197.59,131.9a.48.48,0,0,1-.2,0l-19.94-8.46a.52.52,0,0,1-.27-.67l4.6-11.41a.53.53,0,0,1,.48-.32c.19,0,.63,0,20,12.36a.51.51,0,0,1,.17.69l-4.42,7.6A.53.53,0,0,1,197.59,131.9Zm-19.27-9.25,19.05,8.09,3.95-6.78c-6.82-4.34-16.58-10.49-18.79-11.74Z" fill="#231f20"/><path d="M220.43,111.52c-.45,0-18.56,12.27-18.56,12.27l4.15,7.6,18.73-8.47Z" fill="#fff"/><path d="M206,131.9a.52.52,0,0,1-.45-.26l-4.15-7.6a.52.52,0,0,1,.16-.68C219.82,111,220.23,111,220.43,111a.52.52,0,0,1,.48.33l4.32,11.41a.51.51,0,0,1-.27.65l-18.72,8.47A.54.54,0,0,1,206,131.9ZM202.55,124l3.7,6.76,17.85-8.07-3.95-10.4C218,113.55,208.9,119.65,202.55,124Z" fill="#231f20"/><line x1="201.87" y1="123.79" x2="201.89" y2="231.78" fill="#231f20"/><path d="M201.89,232.28a.51.51,0,0,1-.5-.5l0-108a.51.51,0,0,1,.5-.5.5.5,0,0,1,.5.5l0,108A.5.5,0,0,1,201.89,232.28Z" fill="#231f20"/><circle cx="245.71" cy="235.7" r="1.25" fill="#fff"/><path d="M220,91.81a18.08,18.08,0,0,1-18.19,13.8l-2.11-.08A18.08,18.08,0,0,1,182.82,92a18.89,18.89,0,0,0,7,2.59c2.16.09,4.12-4.9,6.14-6s7.79-.41,10.89-.2,4.84,6.09,6.44,6.75C214.38,95.56,218.16,93.79,220,91.81Z" fill="#d1d3d4"/><path d="M202.43,106.14h-.64l-2.11-.08a18.69,18.69,0,0,1-17.36-14,.52.52,0,0,1,.79-.56A18.66,18.66,0,0,0,189.86,94c1,0,2.1-1.55,3.12-3a10.06,10.06,0,0,1,2.75-3c1.85-1,6.15-.65,9.6-.37l1.56.12c2.16.14,3.65,2.55,4.85,4.5.64,1,1.29,2.09,1.76,2.28.7.29,4.26-1.17,6.12-3.18a.53.53,0,0,1,.63-.1.5.5,0,0,1,.25.57A18.64,18.64,0,0,1,202.43,106.14ZM183.68,93.05a17.66,17.66,0,0,0,16,12l2.11.08A17.61,17.61,0,0,0,219,93.37c-2,1.49-4.73,2.7-5.89,2.22-.78-.32-1.43-1.36-2.25-2.69-1.07-1.74-2.41-3.91-4-4l-1.57-.12c-3-.24-7.45-.6-9,.25a9.83,9.83,0,0,0-2.4,2.68c-1.22,1.69-2.46,3.45-4,3.37A18.37,18.37,0,0,1,183.68,93.05Z" fill="#231f20"/><path d="M201.58,75.62s6,12.38,3.34,12.62a20,20,0,0,1-6.39-1" fill="#fff"/><path d="M204.21,88.78a21.92,21.92,0,0,1-5.84-1.06.52.52,0,0,1-.33-.65.52.52,0,0,1,.66-.33,19.3,19.3,0,0,0,6.17,1,.1.1,0,0,0,.1-.06c.68-1.21-1.84-7.64-3.86-11.82a.52.52,0,0,1,.24-.69.52.52,0,0,1,.69.24c.85,1.76,5,10.66,3.83,12.78a1.14,1.14,0,0,1-.91.58Q204.6,88.78,204.21,88.78Z" fill="#231f20"/><path d="M198.84,72.45c-2.79-1.46-9.39-2.5-14.27-1.11s-5.3,4.67-5.3,6.89.1,6.62,4.89,8c3.06.87,8.63.87,11.86-2.43C199.79,79.94,201.63,73.92,198.84,72.45Z" fill="#231f20"/><path d="M205.18,72.45c2.8-1.46,9.39-2.5,14.27-1.11s5.3,4.67,5.3,6.89-.1,6.62-4.89,8c-3.06.87-8.62.87-11.86-2.43C204.23,79.94,202.39,73.92,205.18,72.45Z" fill="#231f20"/><path d="M213.87,71.5H190.15a.52.52,0,0,1-.51-.52.51.51,0,0,1,.51-.52h23.72a.51.51,0,0,1,.51.52A.52.52,0,0,1,213.87,71.5Z" fill="#231f20"/><rect x="149.55" y="118.28" width="29.08" height="8.19" transform="translate(-30.25 58.08) rotate(-18.41)" fill="#231f20"/><path d="M151.59,131.35a.46.46,0,0,1-.23-.06.53.53,0,0,1-.25-.28l-2.58-7.78a.5.5,0,0,1,.31-.63l27.59-9.18a.51.51,0,0,1,.63.32l2.59,7.77a.51.51,0,0,1-.32.63l-27.59,9.18A.4.4,0,0,1,151.59,131.35Zm-2-8,2.27,6.83,26.65-8.87-2.28-6.83Z" fill="#231f20"/><rect x="153.86" y="121.2" width="2.88" height="8.19" transform="translate(-31.62 55.46) rotate(-18.41)" fill="#68e1fd"/><path d="M155.23,130.13a.44.44,0,0,1-.22,0,.48.48,0,0,1-.25-.29L152.17,122a.51.51,0,0,1,.32-.63l2.73-.91a.5.5,0,0,1,.38,0,.48.48,0,0,1,.25.29l2.59,7.77a.5.5,0,0,1,0,.38.48.48,0,0,1-.29.25l-2.73.91Zm-2-7.95,2.28,6.83,1.79-.6-2.28-6.83Z" fill="#231f20"/><rect x="158.67" y="119.6" width="2.88" height="8.19" transform="translate(-30.87 56.89) rotate(-18.41)" fill="#68e1fd"/><path d="M160,128.54a.46.46,0,0,1-.22-.06.48.48,0,0,1-.25-.29L157,120.42a.51.51,0,0,1,.32-.63l2.73-.91a.5.5,0,0,1,.38,0,.48.48,0,0,1,.25.29l2.59,7.77a.5.5,0,0,1-.31.63l-2.74.91A.41.41,0,0,1,160,128.54Zm-1.95-8,2.27,6.83,1.79-.6L159.87,120Z" fill="#231f20"/><rect x="163.47" y="118" width="2.88" height="8.19" transform="translate(-30.12 58.33) rotate(-18.41)" fill="#68e1fd"/><path d="M164.83,126.94a.59.59,0,0,1-.22,0,.51.51,0,0,1-.25-.29l-2.58-7.78a.48.48,0,0,1,.31-.62l2.74-.91a.46.46,0,0,1,.38,0,.5.5,0,0,1,.24.29l2.59,7.77a.49.49,0,0,1-.31.63l-2.74.91A.41.41,0,0,1,164.83,126.94Zm-2-8,2.27,6.83,1.79-.6-2.27-6.82Z" fill="#231f20"/><rect x="168.27" y="116.4" width="2.88" height="8.19" transform="translate(-29.37 59.76) rotate(-18.41)" fill="#68e1fd"/><path d="M169.64,125.34a.49.49,0,0,1-.48-.34l-2.58-7.77a.49.49,0,0,1,.31-.63l2.74-.91a.55.55,0,0,1,.38,0,.59.59,0,0,1,.25.29l2.58,7.77a.49.49,0,0,1-.31.63l-2.74.91A.4.4,0,0,1,169.64,125.34Zm-2-8,2.27,6.83,1.79-.59-2.27-6.83Z" fill="#231f20"/><rect x="225.57" y="118.28" width="29.08" height="8.19" transform="translate(429.28 314.31) rotate(-161.59)" fill="#231f20"/><path d="M252.61,131.35a.41.41,0,0,1-.16,0l-27.59-9.18a.5.5,0,0,1-.31-.63l2.58-7.77a.51.51,0,0,1,.63-.32l27.59,9.18a.51.51,0,0,1,.32.63L253.08,131a.46.46,0,0,1-.25.28A.46.46,0,0,1,252.61,131.35Zm-27-10,26.64,8.87,2.27-6.83-26.64-8.87Z" fill="#231f20"/><rect x="247.45" y="121.2" width="2.88" height="8.19" transform="translate(445.47 322.78) rotate(-161.59)" fill="#68e1fd"/><path d="M249,130.13a.47.47,0,0,1-.16,0l-2.73-.91a.48.48,0,0,1-.29-.25.5.5,0,0,1,0-.38l2.59-7.77a.51.51,0,0,1,.63-.32l2.74.91a.49.49,0,0,1,.28.25.5.5,0,0,1,0,.38l-2.59,7.77A.49.49,0,0,1,249,130.13Zm-2.1-1.72,1.79.6,2.27-6.83-1.79-.6Z" fill="#231f20"/><rect x="242.65" y="119.6" width="2.88" height="8.19" transform="translate(436.62 318.15) rotate(-161.59)" fill="#68e1fd"/><path d="M244.16,128.54a.45.45,0,0,1-.16,0l-2.73-.91a.48.48,0,0,1-.29-.25.5.5,0,0,1,0-.38l2.59-7.77a.48.48,0,0,1,.25-.29.5.5,0,0,1,.38,0l2.73.91a.5.5,0,0,1,.32.63l-2.59,7.77a.48.48,0,0,1-.25.29A.43.43,0,0,1,244.16,128.54Zm-2.11-1.73,1.8.6,2.27-6.83-1.79-.6Z" fill="#231f20"/><rect x="237.84" y="118" width="2.88" height="8.19" transform="translate(427.76 313.52) rotate(-161.59)" fill="#68e1fd"/><path d="M239.36,126.94a.45.45,0,0,1-.16,0l-2.73-.91a.5.5,0,0,1-.32-.63l2.59-7.77a.48.48,0,0,1,.25-.29.46.46,0,0,1,.38,0l2.73.91a.49.49,0,0,1,.32.62l-2.59,7.78a.51.51,0,0,1-.25.29A.54.54,0,0,1,239.36,126.94Zm-2.11-1.73,1.79.6,2.28-6.83-1.79-.59Z" fill="#231f20"/><rect x="233.04" y="116.4" width="2.88" height="8.19" transform="translate(418.91 308.89) rotate(-161.59)" fill="#68e1fd"/><path d="M234.56,125.34a.41.41,0,0,1-.16,0l-2.73-.91a.49.49,0,0,1-.32-.63l2.59-7.77a.51.51,0,0,1,.25-.29.55.55,0,0,1,.38,0l2.73.91a.5.5,0,0,1,.32.63L235,125a.51.51,0,0,1-.25.29A.59.59,0,0,1,234.56,125.34Zm-2.11-1.72,1.79.59,2.27-6.83-1.79-.59Z" fill="#231f20"/><path d="M151.86,181.76a.51.51,0,0,1-.5-.44c0-.35-3.61-34.83-5.06-44a.5.5,0,0,1,1-.16c1.46,9.21,5,43.72,5.07,44.06a.5.5,0,0,1-.44.55Z" fill="#231f20"/><path d="M252.18,183.4h0a.49.49,0,0,1-.45-.53l3.48-42.38a.5.5,0,1,1,1,.08L252.68,183A.49.49,0,0,1,252.18,183.4Z" fill="#231f20"/><path d="M231.47,191.57l-.16,0-11.84-4.1a.51.51,0,0,1-.34-.47V164.19a.5.5,0,0,1,.5-.5H243.3a.5.5,0,0,1,.5.5V187a.5.5,0,0,1-.33.47l-11.84,4.1Zm-11.34-4.95,11.34,3.93,11.34-3.93V164.68H220.13Zm23.17.36h0Z" fill="#d1d3d4"/><path d="M243.3,170.68H219.63a.5.5,0,0,1-.5-.5.51.51,0,0,1,.5-.5H243.3a.5.5,0,0,1,.5.5A.5.5,0,0,1,243.3,170.68Z" fill="#d1d3d4"/><path d="M174.06,191.57l-.16,0-11.84-4.1a.5.5,0,0,1-.33-.47V164.19a.49.49,0,0,1,.49-.5H185.9a.49.49,0,0,1,.49.5V187a.5.5,0,0,1-.33.47l-11.84,4.1Zm-11.34-4.95,11.34,3.93,11.34-3.93V164.68H162.72Zm23.18.36Z" fill="#d1d3d4"/><path d="M185.9,170.68H162.22a.49.49,0,0,1-.49-.5.5.5,0,0,1,.49-.5H185.9a.5.5,0,0,1,.49.5A.49.49,0,0,1,185.9,170.68Z" fill="#d1d3d4"/><polygon points="198.99 128.98 200.73 131.95 193.16 210.13 202.01 220.27 209.11 208.63 203.13 131.88 205.09 129.67 202.01 123.79 198.99 128.98" fill="#68e1fd"/><circle cx="231.62" cy="154.05" r="3.02" fill="#68e1fd"/><path d="M233.77,154.49l2-2.19h6.62a3.52,3.52,0,0,1-.49,1.75c-.58,1.26-1.31,2-1.8,2s-7.48,0-7.48,0Z" fill="#68e1fd"/><path d="M229.16,154.49l-2-2.19h-6.61a3.37,3.37,0,0,0,.49,1.75c.58,1.26,1.31,2,1.79,2s7.49,0,7.49,0Z" fill="#68e1fd"/><rect x="156.75" y="231.78" width="90.67" height="8.55" fill="#68e1fd"/><path d="M247.42,240.82H156.75a.49.49,0,0,1-.5-.49v-8.55a.5.5,0,0,1,.5-.5h90.67a.5.5,0,0,1,.5.5v8.55A.49.49,0,0,1,247.42,240.82Zm-90.17-1h89.67v-7.55H157.25Z" fill="#231f20"/><path d="M195.74,93.41h12.63s-.81,6.38-6.22,6.76S195.74,93.41,195.74,93.41Z" fill="#fff"/><path d="M201.74,100.7c-5.44,0-6.5-7.15-6.51-7.22a.54.54,0,0,1,.12-.41.53.53,0,0,1,.39-.18h12.64a.53.53,0,0,1,.38.18.5.5,0,0,1,.13.4c0,.07-.94,6.81-6.7,7.21Zm-5.38-6.78c.36,1.63,1.69,6,5.75,5.73s5.29-4.22,5.64-5.73Z" fill="#231f20"/><polygon points="156.75 240.33 151.86 273.94 250.41 273.94 247.42 240.33 156.75 240.33" fill="#231f20"/><path d="M250.41,274.44H151.86a.5.5,0,0,1-.38-.17.49.49,0,0,1-.11-.4l4.89-33.62a.49.49,0,0,1,.49-.42h90.67a.51.51,0,0,1,.5.45l3,33.62a.48.48,0,0,1-.13.38A.5.5,0,0,1,250.41,274.44Zm-98-1h97.43L247,240.82H157.18Z" fill="#231f20"/><path d="M139.3,188.53l-16.91,18.6c5.17,6.47,10.35,13,15.48,19.46q3.85,4.88,7.65,9.8c2.36,3.06,7.65,6,9.64,9.31,1.35,2.23-.19,6.61-.71,8.88-.95,4.06-2.37,15.37-2.59,15.71-.72,1.11-8.18,1.79-10.23,1.69-6.29-.29-10.73-1.05-13.23-2a2.61,2.61,0,0,1-.17-4.87c2-.84,8.45-.28,8.45-.28s-2.16-4.58-.62-9a9.88,9.88,0,0,1,5.65-5.77s-5.42-4.43-6.77-5.42q-8.72-6.39-17.32-12.91c-5.07-3.86-10.13-7.75-15-11.86-2.11-1.77-6.32-4.39-7.25-7.17C93.67,207.69,115,172.51,115,172.51" fill="#fff"/><path d="M141.93,272.5h-.32c-5.9-.28-10.65-1-13.39-2a3.06,3.06,0,0,1-2.1-2.84,3.19,3.19,0,0,1,1.91-3c1.66-.7,6-.5,7.86-.38a13.2,13.2,0,0,1-.32-8.55,10.25,10.25,0,0,1,5.16-5.73c-1.49-1.21-5-4.11-6.09-4.87-6.53-4.79-12.2-9-17.33-12.92-4.89-3.72-10.08-7.7-15-11.87-.46-.39-1-.81-1.63-1.28-2.23-1.69-5-3.81-5.78-6.13-1.72-5.14,17.52-37.06,19.72-40.68a.52.52,0,0,1,.88.54c-8.54,14.06-20.8,36.26-19.62,39.82.67,2,3.31,4,5.42,5.63.62.48,1.2.91,1.67,1.31,4.94,4.15,10.12,8.13,15,11.84,5.13,3.9,10.79,8.12,17.32,12.91,1.34,1,6.57,5.25,6.79,5.43a.54.54,0,0,1,.18.49.5.5,0,0,1-.34.4,9.44,9.44,0,0,0-5.34,5.45c-1.44,4.12.58,8.52.61,8.57a.52.52,0,0,1-.05.51.51.51,0,0,1-.47.22c-1.76-.15-6.66-.4-8.2.24a2.17,2.17,0,0,0-1.28,2,2,2,0,0,0,1.43,1.89c2.64,1,7.28,1.68,13.07,1.94,2.49.12,9.2-.7,9.78-1.45,0-.2.38-2.42.69-4.57.54-3.62,1.27-8.57,1.82-11,.09-.38.21-.81.33-1.29.58-2.2,1.47-5.53.45-7.21s-3.11-3.42-5.11-5.06a28.49,28.49,0,0,1-4.5-4.21q-3.8-4.92-7.64-9.79c-4.61-5.85-9.33-11.76-13.9-17.48l-1.58-2a.52.52,0,0,1,0-.67l16.9-18.6a.52.52,0,0,1,.77.7l-16.61,18.27,1.3,1.63c4.57,5.72,9.3,11.64,13.91,17.49q3.84,4.89,7.65,9.8a27.76,27.76,0,0,0,4.33,4c2.07,1.69,4.21,3.44,5.35,5.33,1.23,2.05.32,5.49-.34,8-.12.46-.24.88-.32,1.25-.55,2.36-1.28,7.29-1.81,10.89-.65,4.43-.72,4.78-.85,5C151.37,272,144,272.5,141.93,272.5Z" fill="#231f20"/><path d="M263.33,188.53l16.91,18.6q-7.77,9.7-15.49,19.46-3.84,4.88-7.64,9.8c-2.37,3.06-7.66,6-9.65,9.31-1.35,2.23.19,6.61.72,8.88.94,4.06,2.37,15.37,2.59,15.71.72,1.11,8.18,1.79,10.23,1.69,6.28-.29,10.73-1.05,13.22-2a2.61,2.61,0,0,0,.17-4.87c-2-.84-8.44-.28-8.44-.28s2.15-4.58.62-9a9.91,9.91,0,0,0-5.66-5.77s5.43-4.43,6.77-5.42q8.71-6.39,17.33-12.91c5.07-3.86,10.13-7.75,15-11.86,2.1-1.77,6.32-4.39,7.25-7.17,1.68-5.07-20.73-40-20.73-40" fill="#fff"/><path d="M260.7,272.5c-2.07,0-9.44-.51-10.37-1.93-.13-.2-.2-.55-.85-5-.53-3.6-1.26-8.53-1.8-10.89-.09-.37-.2-.79-.32-1.25-.67-2.52-1.58-6-.34-8,1.14-1.89,3.27-3.64,5.34-5.33a27.87,27.87,0,0,0,4.34-4q3.8-4.92,7.65-9.8c4.61-5.85,9.33-11.77,13.9-17.49l1.31-1.63L263,188.88a.52.52,0,1,1,.76-.7l16.91,18.6a.52.52,0,0,1,0,.67l-1.58,2c-4.57,5.72-9.3,11.63-13.9,17.48q-3.86,4.88-7.64,9.79a29.4,29.4,0,0,1-4.5,4.21c-2,1.64-4.07,3.33-5.12,5.06s-.13,5,.45,7.22c.13.47.24.9.33,1.28.56,2.4,1.29,7.35,1.82,11,.32,2.15.65,4.37.74,4.65.53.67,7.24,1.48,9.73,1.37,5.79-.26,10.43-1,13.07-1.94a2,2,0,0,0,1.43-1.89,2.16,2.16,0,0,0-1.28-2c-1.53-.64-6.44-.39-8.2-.24a.54.54,0,0,1-.47-.22.52.52,0,0,1,0-.51c0-.05,2-4.45.6-8.57a9.42,9.42,0,0,0-5.33-5.45.53.53,0,0,1-.35-.4.52.52,0,0,1,.19-.49c.22-.18,5.45-4.45,6.79-5.43,6.52-4.78,12.18-9,17.31-12.91,4.88-3.72,10.06-7.69,15-11.84.48-.4,1.05-.83,1.67-1.31,2.12-1.61,4.75-3.61,5.43-5.63,1.18-3.55-11.72-25.59-20.68-39.54a.51.51,0,0,1,.87-.55c2.31,3.59,22.5,35.26,20.78,40.41-.77,2.32-3.54,4.44-5.78,6.14-.6.46-1.16.88-1.62,1.27-5,4.16-10.14,8.14-15,11.87-5.14,3.91-10.81,8.14-17.33,12.92-1,.76-4.61,3.66-6.09,4.87a10.25,10.25,0,0,1,5.15,5.73,13.21,13.21,0,0,1-.31,8.55c1.84-.12,6.2-.32,7.85.38a3.19,3.19,0,0,1,1.91,3,3,3,0,0,1-2.1,2.84c-2.73,1-7.49,1.73-13.38,2Z" fill="#231f20"/><path d="M202.15,274.46a.51.51,0,0,1-.51-.52V241.48a.52.52,0,1,1,1,0v32.46A.52.52,0,0,1,202.15,274.46Z" fill="#fff"/><path d="M202.15,258.23a.54.54,0,0,1-.37-.16.52.52,0,0,1,0-.73l4.8-4.68V241.48a.52.52,0,0,1,1,0v11.4a.52.52,0,0,1-.16.37l-5,4.83A.51.51,0,0,1,202.15,258.23Z" fill="#fff"/><path d="M156.75,254.38a.51.51,0,0,1-.24-1c6.3-3.24,8.53-10.87,8.56-10.95a.51.51,0,0,1,1,.28c-.1.34-2.38,8.14-9.08,11.59A.59.59,0,0,1,156.75,254.38Z" fill="#fff"/><path d="M245.71,252.51a.58.58,0,0,1-.18,0c-8.11-3.08-8.58-9.56-8.59-9.84a.51.51,0,0,1,.48-.54.52.52,0,0,1,.55.48c0,.25.47,6.1,7.92,8.94a.52.52,0,0,1-.18,1Z" fill="#fff"/><rect x="194" y="229.87" width="20.3" height="12.36" rx="1.67" fill="#68e1fd"/><path d="M212.63,242.73H195.68a2.17,2.17,0,0,1-2.17-2.17v-9a2.18,2.18,0,0,1,2.17-2.18h16.95a2.18,2.18,0,0,1,2.17,2.18v9A2.17,2.17,0,0,1,212.63,242.73Zm-16.95-12.36a1.18,1.18,0,0,0-1.18,1.18v9a1.18,1.18,0,0,0,1.18,1.18h16.95a1.18,1.18,0,0,0,1.18-1.18v-9a1.18,1.18,0,0,0-1.18-1.18Z" fill="#231f20"/><path d="M291,76.55c-.36-.52-16.95-1.15-17.85-.83s-4.34,1.49-4.34,1.49l12.66,4.87" fill="#fff"/><path d="M281.43,82.58a.39.39,0,0,1-.18,0l-12.66-4.87a.5.5,0,0,1,0-.94s3.43-1.16,4.33-1.48,8.45,0,9.32.07c8.71.37,8.94.7,9.11.94a.5.5,0,0,1-.7.69c-1.26-.41-16.16-1.06-17.41-.75l-3,1,11.37,4.38a.51.51,0,0,1,.28.65A.48.48,0,0,1,281.43,82.58Z" fill="#d1d3d4"/><path d="M304.74,67.42c-2.14.44-28,13.48-43.05,20.53-3.38-1.86-6.13-3.8-7-3.68-1,.15-4.17.63-4,1.36s5.61,5.31,5.61,5.31l-2.86,1.57,2.88,3.85s60.84-23.82,60.33-26C316.71,70.34,307.87,66.78,304.74,67.42Z" fill="#fff"/><path d="M256.38,96.86a.48.48,0,0,1-.4-.2l-2.88-3.85a.51.51,0,0,1-.09-.41.49.49,0,0,1,.25-.33l2.23-1.23c-3.34-2.91-5.1-4.62-5.22-5.08a.76.76,0,0,1,.1-.62c.25-.38,1-.88,4.28-1.36.71-.11,1.86.56,4.21,2,.86.51,1.83,1.08,2.85,1.65,6-2.83,13.62-6.53,21-10.12,12.78-6.24,20.68-10.08,22-10.34h0c3.23-.67,11.89,2.8,12.26,2.95a.5.5,0,0,1,.3.35c.15.65.6,2.62-60.64,26.59A.39.39,0,0,1,256.38,96.86Zm-2.14-4.19,2.31,3.08C279,87,312,73.52,315.9,70.56c-2-.78-8.57-3.16-11.06-2.65h0c-1.22.25-11.18,5.11-21.72,10.26C275.67,81.8,268,85.56,261.9,88.41a.51.51,0,0,1-.45,0c-1.12-.61-2.17-1.24-3.1-1.79-1.48-.88-3.16-1.9-3.55-1.83a10.5,10.5,0,0,0-3.49.84c.52.62,3.05,2.93,5.38,5a.5.5,0,0,1-.09.82Zm50.5-25.25h0Z" fill="#d1d3d4"/><polyline points="286.37 80.82 278.34 99.34 283.42 97.46 298.65 77.89" fill="#fff"/><path d="M278.34,99.84a.52.52,0,0,1-.37-.16.51.51,0,0,1-.09-.54l8-18.52a.5.5,0,0,1,.91.39l-7.56,17.45L283.12,97l15.13-19.45a.5.5,0,1,1,.79.61L283.82,97.77a.57.57,0,0,1-.22.16l-5.09,1.88Z" fill="#d1d3d4"/><path d="M261.05,92.6l-3.46,5.57s2.84-1.36,4-2,3.49-5.34,3.49-5.34" fill="#fff"/><path d="M257.59,98.67a.47.47,0,0,1-.37-.16.51.51,0,0,1-.06-.6l3.46-5.57a.5.5,0,1,1,.85.52L258.93,97c.84-.42,1.83-.92,2.39-1.23s2.34-3.24,3.29-5.13a.5.5,0,1,1,.89.45c-.4.8-2.48,4.87-3.69,5.55s-3.89,2-4,2A.49.49,0,0,1,257.59,98.67Z" fill="#d1d3d4"/><line x1="296.85" y1="75.31" x2="298.8" y2="74.36" fill="#fff"/><path d="M296.85,75.81a.5.5,0,0,1-.22-1l1.95-1a.51.51,0,0,1,.67.24.49.49,0,0,1-.23.66l-1.95,1A.54.54,0,0,1,296.85,75.81Z" fill="#d1d3d4"/><line x1="300.74" y1="73.35" x2="302.69" y2="72.41" fill="#fff"/><path d="M300.74,73.85a.5.5,0,0,1-.22-.95l2-.94a.5.5,0,0,1,.44.9l-2,.94A.44.44,0,0,1,300.74,73.85Z" fill="#d1d3d4"/><line x1="304.51" y1="71.49" x2="306.46" y2="70.54" fill="#fff"/><path d="M304.51,72a.51.51,0,0,1-.45-.28.5.5,0,0,1,.23-.67l1.95-1a.5.5,0,0,1,.44.9l-1.95,1A.59.59,0,0,1,304.51,72Z" fill="#d1d3d4"/><line x1="270.67" y1="87.01" x2="272.62" y2="86.07" fill="#fff"/><path d="M270.67,87.51a.48.48,0,0,1-.45-.28.5.5,0,0,1,.23-.67l1.95-.94a.5.5,0,1,1,.43.9l-1.94.94A.44.44,0,0,1,270.67,87.51Z" fill="#d1d3d4"/><line x1="274.56" y1="85.06" x2="276.51" y2="84.11" fill="#fff"/><path d="M274.56,85.56a.5.5,0,0,1-.22-1l2-1a.5.5,0,1,1,.43.9l-2,1A.54.54,0,0,1,274.56,85.56Z" fill="#d1d3d4"/><line x1="278.33" y1="83.19" x2="280.27" y2="82.24" fill="#fff"/><path d="M278.33,83.69a.48.48,0,0,1-.45-.28.49.49,0,0,1,.23-.67l1.95-.95a.5.5,0,0,1,.43.9l-1.95,1A.54.54,0,0,1,278.33,83.69Z" fill="#d1d3d4"/></g></svg>