<svg xmlns="http://www.w3.org/2000/svg" viewBox="0 0 400 300"><g id="_351_police_flatline" data-name="#351_police_flatline"><path d="M312.53,154.28s-.37,2.57-9.6,10.19c-9.11,24.31-28.4,53-41.32,59.31-13.26,6.45-28.8-42.08-28.8-42.08l22.53-18.21c-1.21-3.73,1.64,9.06,7.23,24.7,7.19-8.09,23.27-29.3,23.27-29.3s-1-6.06-1.26-8.8a20.15,20.15,0,0,1,0-4.46c.1-1.59,1.05-5.65,3-6a1.65,1.65,0,0,1,1.56.79,4.72,4.72,0,0,1,.62,1.73l.94,4.3a7.73,7.73,0,0,0,.85,2.46c1.2,1.88,3.87,2,5.83,2.4l6.87,1.34C304.77,152.77,312.54,154.22,312.53,154.28Z" fill="#fff"/><path d="M259.11,224.89a7.07,7.07,0,0,1-2.8-.62c-11.92-5.1-23.51-40.9-24-42.42a.52.52,0,0,1,.16-.56l22.2-17.92c-.07-.48-.07-.78,0-.87a.54.54,0,0,1,.5-.17c.34.07.44.37.64,1a.51.51,0,0,1-.08.48,230.11,230.11,0,0,0,7,23.38c7-8,21-26.44,22.54-28.43-.18-1.11-1-6.19-1.24-8.61a18.69,18.69,0,0,1,0-3.87l0-.68c.08-1.18.92-6,3.46-6.46a2.15,2.15,0,0,1,2.07,1,5.14,5.14,0,0,1,.69,1.91l1,4.3a6.75,6.75,0,0,0,.78,2.29c.88,1.4,2.81,1.72,4.51,2l1,.17,7.77,1.51c7.85,1.48,7.85,1.48,7.77,2h0c-.09.47-1,3.24-9.67,10.42-9.63,25.62-29,53.39-41.52,59.47A6.28,6.28,0,0,1,259.11,224.89Zm-25.7-43c1.22,3.71,12.4,36.79,23.3,41.46a5.37,5.37,0,0,0,4.68,0c12.33-6,31.52-33.58,41.06-59a.45.45,0,0,1,.15-.21c6.75-5.58,8.69-8.41,9.22-9.44-1.44-.29-5.32-1-6.74-1.29l-7.78-1.52-.95-.16c-1.82-.3-4.08-.68-5.21-2.46a8.11,8.11,0,0,1-.92-2.63l-1-4.3a4.32,4.32,0,0,0-.54-1.55,1.14,1.14,0,0,0-1-.57c-1.5.25-2.49,3.72-2.6,5.5l0,.69a16.88,16.88,0,0,0,0,3.68c.3,2.7,1.25,8.72,1.26,8.78a.53.53,0,0,1-.1.4c-.16.21-16.17,21.31-23.3,29.32a.49.49,0,0,1-.48.16.51.51,0,0,1-.39-.33,231.34,231.34,0,0,1-7.2-23.83ZM312,154.18v0h0Z" fill="#231f20"/><path d="M294.75,151.79a17.94,17.94,0,0,1,1.86,7.76" fill="#fff"/><path d="M296.6,160.07a.51.51,0,0,1-.51-.51,17.55,17.55,0,0,0-1.8-7.52.52.52,0,1,1,.91-.49,18.25,18.25,0,0,1,1.92,8A.51.51,0,0,1,296.6,160.07Z" fill="#231f20"/><polygon points="109.61 193.08 126.29 179.4 113.07 154.86 109.61 193.08" fill="#fff"/><path d="M109.61,193.59a.53.53,0,0,1-.24-.06.51.51,0,0,1-.27-.5l3.45-38.21a.52.52,0,0,1,1-.2l13.23,24.53a.51.51,0,0,1-.13.64l-16.68,13.69A.57.57,0,0,1,109.61,193.59Zm3.82-37-3.19,35.28,15.4-12.63Z" fill="#231f20"/><rect x="142.84" y="241.61" width="100.79" height="32.41" fill="#68e1fd"/><path d="M155.39,119.68a46.62,46.62,0,0,0-9.68,3.9c-4.3,2.47-32.64,26.3-32.64,26.3l17.63,27.18,33.88-23.29Z" fill="#68e1fd"/><polygon points="131.35 178.9 111.39 146.88 102.49 152.5 121.84 185.6 131.35 178.9" fill="#68e1fd"/><path d="M121.84,186.1h-.1a.51.51,0,0,1-.33-.24l-19.35-33.09a.5.5,0,0,1,.16-.68l8.9-5.62a.51.51,0,0,1,.69.16l20,32a.5.5,0,0,1-.14.67l-9.5,6.7A.52.52,0,0,1,121.84,186.1Zm-18.68-33.43L122,184.88l8.68-6.12-19.45-31.19Z" fill="#231f20"/><path d="M239.91,125.4a46.72,46.72,0,0,1,7.35,7.42c3,4,14.3,40.59,14.3,40.59l-21.65,14.46Z" fill="#68e1fd"/><polygon points="230.86 184.54 263.55 169.87 267.92 179.45 230.69 197.35 230.86 184.54" fill="#68e1fd"/><path d="M230.69,197.84a.5.5,0,0,1-.27-.07.51.51,0,0,1-.23-.43l.17-12.81a.5.5,0,0,1,.3-.45l32.69-14.66a.51.51,0,0,1,.66.25l4.36,9.57a.5.5,0,0,1-.24.66L230.9,197.8A.52.52,0,0,1,230.69,197.84Zm.66-13-.16,11.69,36.07-17.34-3.95-8.68Z" fill="#231f20"/><polygon points="173.52 108.76 212.88 108.76 207.6 121.16 184.66 121.16 173.52 115.83 173.52 108.76" fill="#68e1fd"/><path d="M207.6,121.66H184.66a.54.54,0,0,1-.22,0l-11.14-5.33a.51.51,0,0,1-.28-.45v-7.07a.5.5,0,0,1,.5-.5h39.36a.52.52,0,0,1,.41.22.49.49,0,0,1,0,.47l-5.27,12.4A.5.5,0,0,1,207.6,121.66Zm-22.83-1h22.5l4.85-11.4H174v6.25Z" fill="#231f20"/><path d="M182.28,111.65a72.63,72.63,0,0,0-22.17,5c-11.58,4.63-16.54,8.27-16.87,13.56s0,98.54,0,98.54h100.2V132.49c0-9.59-9.18-11.71-11.53-13.63S198.55,108.74,182.28,111.65Z" fill="#68e1fd"/><path d="M218.62,77.14s6.12-21.91,2.51-26.49-2.51.05-2.54.07c3.56-2.76-1-8-3.41-9.79A22.26,22.26,0,0,0,209,38.07a47.67,47.67,0,0,0-16.87-2.69,25.7,25.7,0,0,0-15.78,5.9c-6.79,6-8.76,13.22-7.67,22,.78,6.25,2.92,12.43,3.53,18.58,7.22.44,14.51,1.06,21.79,1C199.76,82.69,215.53,84,218.62,77.14Z" fill="#fff"/><path d="M199.9,83.33l-3.13,0c-1.07,0-2,0-2.8,0-5.92.09-11.91-.3-17.7-.68l-4.13-.27a.51.51,0,0,1-.48-.46,78.89,78.89,0,0,0-1.8-9.64c-.67-2.91-1.36-5.93-1.74-8.93-1.19-9.55,1.31-16.68,7.85-22.42a26.29,26.29,0,0,1,16.1-6,48.17,48.17,0,0,1,17.05,2.72,23.05,23.05,0,0,1,6.36,2.93c1.88,1.37,4.89,4.62,4.94,7.54a3.71,3.71,0,0,1-.09.9,14.56,14.56,0,0,1,1.21,1.38c3.76,4.77-2.2,26.28-2.45,27h0C216.65,82.74,207.14,83.33,199.9,83.33Zm-5.24-1.08,2.13,0c6.56.09,18.77.25,21.35-5.31,1.69-6,5.43-22.39,2.59-26q-.48-.6-.81-1a4.08,4.08,0,0,1-1,1.12h0a.51.51,0,0,1-.72-.09.43.43,0,0,1-.11-.28c-.19-1.13-.27-2.24.46-2.56a.93.93,0,0,1,.84,0,.91.91,0,0,0,0-.17c0-2.39-2.72-5.42-4.52-6.72a21.55,21.55,0,0,0-6.07-2.78,47.05,47.05,0,0,0-16.68-2.68,25.2,25.2,0,0,0-15.47,5.78c-6.26,5.49-8.65,12.33-7.5,21.52A88.59,88.59,0,0,0,170.87,72a85.18,85.18,0,0,1,1.77,9.33l3.7.24c5.77.38,11.74.78,17.62.68Zm24-5.11h0Zm-.34-26.82ZM219,49.2a1.22,1.22,0,0,0,0,.37,2.69,2.69,0,0,0,.16-.29Z" fill="#231f20"/><path d="M211.74,79.33c1.54-7.84,14.68-9.32,13.71-.06a13.7,13.7,0,0,1-3.79,8.6c-2.31,2.2-6,3.16-8.84,1.75" fill="#fff"/><path d="M215.79,90.8a7.31,7.31,0,0,1-3.2-.72.51.51,0,0,1-.23-.69.52.52,0,0,1,.69-.24,7.53,7.53,0,0,0,8.26-1.65,13.3,13.3,0,0,0,3.63-8.28c.48-4.59-2.61-5.56-4-5.76-3.48-.52-7.92,1.8-8.73,6a.52.52,0,0,1-1-.2c.93-4.74,6-7.38,9.9-6.79,2.64.4,5.3,2.41,4.84,6.88-.28,2.62-1.18,6.3-3.95,8.92A9.2,9.2,0,0,1,215.79,90.8Z" fill="#231f20"/><path d="M179.15,78.2c-1-7.93-14-10.32-13.67-1A13.73,13.73,0,0,0,168.66,86c2.16,2.36,5.74,3.56,8.7,2.36" fill="#fff"/><path d="M174.87,89.38a9.12,9.12,0,0,1-6.59-3A14.25,14.25,0,0,1,165,77.21c-.16-4.5,2.64-6.32,5.3-6.54,4-.31,8.81,2.67,9.4,7.46a.51.51,0,1,1-1,.13c-.53-4.21-4.8-6.84-8.29-6.56-1.37.11-4.52.86-4.36,5.47a13.32,13.32,0,0,0,3,8.51,7.55,7.55,0,0,0,8.13,2.23.52.52,0,0,1,.67.28.5.5,0,0,1-.29.67A7,7,0,0,1,174.87,89.38Z" fill="#231f20"/><path d="M178.93,117.61s6,3.07,16.34,3.43,12-2.45,12-2.45l-.24-5.52-.57-12.84-.54-12-23.57-.82-1.12,9.76-.35,3.16Z" fill="#fff"/><path d="M197.05,121.58l-1.8,0c-10.32-.36-16.31-3.36-16.56-3.48a.51.51,0,0,1-.27-.52l3.45-30.2a.52.52,0,0,1,.53-.46l23.57.82a.52.52,0,0,1,.49.49l1.36,30.37a.49.49,0,0,1-.08.29C207.56,119.16,205.79,121.58,197.05,121.58Zm-17.57-4.28a43.69,43.69,0,0,0,15.8,3.22c8.58.29,11-1.63,11.5-2.11l-1.33-29.68-22.61-.79Z" fill="#231f20"/><path d="M180.91,100.33a21,21,0,0,0,7.51,7.06c5,3,12.45,6.4,18.64,5.68l-.57-12.84a58.24,58.24,0,0,1-13.59-.38c-4-.49-8.05-1-11.64-2.68Z" fill="#231f20"/><path d="M205.3,113.67c-6.38,0-13.35-3.58-17.14-5.85a21.1,21.1,0,0,1-7.68-7.24.45.45,0,0,1-.07-.3l.35-3.17a.49.49,0,0,1,.25-.37.48.48,0,0,1,.45,0c3.64,1.67,7.81,2.18,11.5,2.63a56.54,56.54,0,0,0,13.48.38.49.49,0,0,1,.37.12.5.5,0,0,1,.18.36l.57,12.84a.49.49,0,0,1-.44.51A15.74,15.74,0,0,1,205.3,113.67Zm-23.88-13.44a20.37,20.37,0,0,0,7.25,6.73c4,2.37,11.43,6.2,17.87,5.66L206,100.78a58.83,58.83,0,0,1-13.19-.44c-3.54-.43-7.54-.92-11.15-2.44Z" fill="#231f20"/><path d="M193,102.78l2.1.07a18.07,18.07,0,0,0,18.69-17.43l1-28.59-21,4.43L176.52,55.5l-1,28.59A18.06,18.06,0,0,0,193,102.78Z" fill="#fff"/><path d="M195.7,103.38H195l-2.1-.08A18.6,18.6,0,0,1,175,84.07l1-28.59a.51.51,0,0,1,.23-.4.49.49,0,0,1,.45-.07l17.12,5.72,20.83-4.41a.53.53,0,0,1,.44.11.57.57,0,0,1,.19.42l-1,28.59A18.6,18.6,0,0,1,195.7,103.38ZM177,56.21l-1,27.9A17.57,17.57,0,0,0,193,102.26h0l2.1.08A17.59,17.59,0,0,0,213.23,85.4l1-27.93-20.32,4.3a.5.5,0,0,1-.27,0Z" fill="#231f20"/><path d="M194.37,90a24.28,24.28,0,0,1-3.61-.26.5.5,0,0,1-.42-.59.52.52,0,0,1,.59-.43,23.06,23.06,0,0,0,5.11.18s.08,0,.13-.1c.89-1.37-1.09-8.57-2.54-12.79a.52.52,0,0,1,.32-.66.51.51,0,0,1,.65.32c.66,1.9,3.86,11.5,2.44,13.69a1.2,1.2,0,0,1-.91.57C195.53,89.94,194.93,90,194.37,90Z" fill="#231f20"/><ellipse cx="203.68" cy="74.61" rx="3.07" ry="1.24" transform="matrix(0.03, -1, 1, 0.03, 122.04, 275.57)" fill="#231f20"/><ellipse cx="187.62" cy="73.3" rx="3.07" ry="1.24" transform="translate(107.86 258.26) rotate(-88.01)" fill="#231f20"/><path d="M202.52,96.71a.45.45,0,0,1-.16,0c-.12,0-12.07-3.9-19.27-3.9a.52.52,0,1,1,0-1c7.37,0,19.09,3.79,19.59,4a.52.52,0,0,1-.16,1Z" fill="#231f20"/><path d="M168,52.5l-10.6-11.16,14.15-9.42s17.79-.13,23.81-7.69c0,0,14.19,9.55,24.76,8.31,0,0,11,8.3,13.8,8.18L222.72,53.29Z" fill="#68e1fd"/><path d="M222.72,53.78h0L168,53a.5.5,0,0,1-.36-.16L157,41.68a.48.48,0,0,1-.13-.4.45.45,0,0,1,.22-.35l14.14-9.43a.53.53,0,0,1,.27-.08c.18,0,17.63-.21,23.43-7.5a.5.5,0,0,1,.67-.11c.14.1,14.16,9.44,24.43,8.23a.54.54,0,0,1,.36.1c4.34,3.29,11.56,8.14,13.46,8.08a.49.49,0,0,1,.47.29.49.49,0,0,1-.07.54L223.09,53.62A.52.52,0,0,1,222.72,53.78ZM168.2,52l54.3.77,10.43-11.72c-3.58-1-11.42-6.85-13-8-9.76,1-22.17-6.64-24.52-8.16-6.1,7-21.93,7.49-23.76,7.52l-13.53,9Z" fill="#231f20"/><path d="M195,46.67s-4.57-1.61-5.51-2.89-1.54-2.85-.82-4.09,1.38-1.82,1.38-3.06-1.93-2.85-1.93-2.85l2.35-2.61a1.89,1.89,0,0,0,1.89.87A5.76,5.76,0,0,0,195,30.63a3.13,3.13,0,0,0,2.38,1.29,2.92,2.92,0,0,0,2.18-.79l2.57,2.56s-2.1,1.7-1.71,3.89,1.59,1.94,1.24,4.71S195,46.67,195,46.67Z" fill="#fff"/><path d="M194.71,44.4s-3.11-1.2-3.8-2a1.82,1.82,0,0,1,0-2.39,5.48,5.48,0,0,0,1-2.65,8.24,8.24,0,0,0-1.12-3.68,6,6,0,0,0,4.27-.58,5.68,5.68,0,0,0,4.26.67,5.85,5.85,0,0,0-1,3.14c.12,1.48,1.24,2.77,1.24,3.72s0,1.44-.56,1.77S194.71,44.4,194.71,44.4Z" fill="#d1d3d4"/><path d="M167.34,57.87S180,69.94,195.65,69.28a48.88,48.88,0,0,0,26.43-9.43V52.91s-9.31-2.15-14.34-3-24-.33-27.07,0-13.33,2.19-13.33,2.19Z" fill="#231f20"/><path d="M194.42,69.81c-15.09,0-27.29-11.46-27.42-11.58a.48.48,0,0,1-.15-.36V52.13a.49.49,0,0,1,.41-.49c.41-.08,10.29-1.87,13.36-2.2,3.29-.35,22.17-.82,27.2,0s14.28,3,14.37,3a.49.49,0,0,1,.38.48v6.94a.46.46,0,0,1-.18.38,49.77,49.77,0,0,1-26.72,9.55ZM167.84,57.65c1.49,1.35,13.45,11.76,27.79,11.13a48.91,48.91,0,0,0,26-9.18V53.31c-1.81-.41-9.54-2.16-13.92-2.88-5-.82-23.68-.35-26.94,0-2.68.29-10.94,1.77-12.88,2.11Z" fill="#231f20"/><path d="M222.08,60.35h0c-7.88-.45-54.25-2-54.72-2a.49.49,0,0,1-.48-.51.53.53,0,0,1,.51-.48c.47,0,46.86,1.51,54.74,2a.5.5,0,0,1,0,1Z" fill="#fff"/><path d="M173.52,108.76c.47,0,19.75,12.28,19.75,12.28l-4.42,3.84-19.94-4.71Z" fill="#68e1fd"/><path d="M188.85,125.38l-.12,0-19.93-4.71a.47.47,0,0,1-.33-.25.48.48,0,0,1,0-.42l4.6-11.41a.5.5,0,0,1,.47-.31c.18,0,.62,0,20,12.36a.46.46,0,0,1,.23.38.49.49,0,0,1-.17.41l-4.42,3.85A.55.55,0,0,1,188.85,125.38Zm-19.26-5.56,19.12,4.52,3.73-3.24c-6.83-4.35-16.5-10.45-18.66-11.66Z" fill="#231f20"/><path d="M212.88,108.76c-.48,0-19.75,12.28-19.75,12.28l4.42,3.84,19.93-4.71Z" fill="#68e1fd"/><path d="M197.55,125.38a.55.55,0,0,1-.33-.12l-4.42-3.85a.49.49,0,0,1,.06-.79c19.39-12.36,19.83-12.36,20-12.36a.5.5,0,0,1,.46.31l4.6,11.41a.5.5,0,0,1-.34.67l-19.94,4.71ZM194,121.1l3.72,3.24,19.12-4.52-4.18-10.38C210.46,110.65,200.78,116.75,194,121.1Z" fill="#231f20"/><path d="M193.13,229.23a.52.52,0,0,1-.52-.52V121a.52.52,0,1,1,1,0V228.71A.51.51,0,0,1,193.13,229.23Z" fill="#231f20"/><path d="M143.23,224.58s-.88-87.68,0-86.8" fill="#68e1fd"/><path d="M143.23,225.08a.49.49,0,0,1-.5-.49c0-.22-.22-21.87-.33-43.28-.22-43.65.13-43.79.62-44a.53.53,0,0,1,.56.11.51.51,0,0,1,0,.65c-.59,3.38-.14,63.4.1,86.51a.5.5,0,0,1-.5.5Z" fill="#231f20"/><path d="M243.63,224.58s-.87-87.68,0-86.8" fill="#68e1fd"/><path d="M243.63,225.08a.51.51,0,0,1-.5-.49c0-.22-.21-21.87-.32-43.28-.22-43.65.13-43.79.61-44a.52.52,0,0,1,.56.11.5.5,0,0,1,.06.65c-.6,3.38-.14,63.4.09,86.51a.5.5,0,0,1-.49.5Z" fill="#231f20"/><rect x="140.72" y="228.71" width="102.52" height="12.9" fill="#d1d3d4"/><path d="M243.24,242.13H140.72a.51.51,0,0,1-.51-.52v-12.9a.51.51,0,0,1,.51-.51H243.24a.51.51,0,0,1,.52.51v12.9A.52.52,0,0,1,243.24,242.13Zm-102-1H242.73V229.23H141.24Z" fill="#231f20"/><rect x="178.91" y="228.71" width="26.15" height="12.9" fill="#fff"/><path d="M205.06,242.13H178.91a.52.52,0,0,1-.52-.52v-12.9a.51.51,0,0,1,.52-.51h26.15a.51.51,0,0,1,.51.51v12.9A.51.51,0,0,1,205.06,242.13Zm-25.64-1h25.12V229.23H179.42Z" fill="#231f20"/><path d="M193.27,274.53a.51.51,0,0,1-.52-.51V263.23h0V241.61a.52.52,0,0,1,.52-.52h4.88a.51.51,0,0,1,.51.54L198,260.1a.49.49,0,0,1-.2.39l-4,3V274A.51.51,0,0,1,193.27,274.53Zm.51-32.4v20.06l3.15-2.37.68-17.69Z" fill="#231f20"/><path d="M143.39,275.77l11-66.13a4,4,0,0,0-8-1.32L135.2,275.77Z" fill="#231f20"/><path d="M143.39,276.27H135.2a.46.46,0,0,1-.38-.18.48.48,0,0,1-.12-.4l11.18-67.45a4.54,4.54,0,0,1,9,1.49l-11,66.12A.5.5,0,0,1,143.39,276.27Zm-7.61-1H143l10.89-65.72a3.54,3.54,0,1,0-7-1.16Z" fill="#231f20"/><rect x="132.02" y="218.8" width="8.08" height="25.87" rx="4.04" transform="translate(-114.79 328.09) rotate(-80.59)" fill="#231f20"/><path d="M144.85,237.73a3.81,3.81,0,0,1-.75-.07l-17.55-2.9a4.51,4.51,0,0,1-3-1.84,4.56,4.56,0,0,1-.79-3.38A4.55,4.55,0,0,1,128,225.8l17.55,2.91a4.54,4.54,0,0,1,3.73,5.22h0a4.53,4.53,0,0,1-4.46,3.8Zm-17.57-11a3.53,3.53,0,0,0-3.48,3,3.54,3.54,0,0,0,2.91,4.07l17.55,2.91a3.53,3.53,0,0,0,4.07-2.91h0a3.55,3.55,0,0,0-2.91-4.08l-17.55-2.91A3.9,3.9,0,0,0,127.28,226.74Z" fill="#231f20"/><rect x="133.55" y="83.04" width="23.89" height="50.29" rx="3.1" transform="translate(-32.67 74.59) rotate(-25.96)" fill="#231f20"/><path d="M147.19,135.48a3.62,3.62,0,0,1-3.24-2L124.66,93.81A3.59,3.59,0,0,1,126.32,89l15.91-7.74A3.61,3.61,0,0,1,147,82.92l19.29,39.64a3.6,3.6,0,0,1,.17,2.75,3.54,3.54,0,0,1-1.83,2.06l-15.91,7.74A3.51,3.51,0,0,1,147.19,135.48ZM143.8,81.89a2.74,2.74,0,0,0-1.14.26L126.75,89.9a2.59,2.59,0,0,0-1.32,1.49,2.64,2.64,0,0,0,.12,2L144.85,133a2.59,2.59,0,0,0,1.49,1.32,2.64,2.64,0,0,0,2-.12l15.91-7.75h0a2.59,2.59,0,0,0,1.32-1.49,2.62,2.62,0,0,0-.12-2l-19.3-39.65A2.61,2.61,0,0,0,143.8,81.89Z" fill="#231f20"/><rect x="136.62" y="80.42" width="4.29" height="4.29" transform="translate(-22.14 69.07) rotate(-25.96)" fill="#231f20"/><path d="M137.78,85.94a.52.52,0,0,1-.45-.28l-1.88-3.86a.51.51,0,0,1,.23-.67l3.86-1.88a.55.55,0,0,1,.38,0,.51.51,0,0,1,.29.25l1.88,3.86a.51.51,0,0,1-.23.67L138,85.89A.59.59,0,0,1,137.78,85.94Zm-1.21-4.13,1.44,3,3-1.44-1.44-3Z" fill="#231f20"/><rect x="125.26" y="64.91" width="2.08" height="32.41" transform="matrix(0.9, -0.44, 0.44, 0.9, -22.76, 63.46)" fill="#231f20"/><path d="M132.45,96.63a.5.5,0,0,1-.45-.28L117.82,67.21a.49.49,0,0,1,.23-.66l1.87-.91a.5.5,0,0,1,.38,0,.55.55,0,0,1,.28.26L134.77,95a.5.5,0,0,1,0,.38.49.49,0,0,1-.25.28l-1.87.91A.42.42,0,0,1,132.45,96.63ZM118.93,67.22l13.75,28.25,1-.47L119.91,66.75Z" fill="#231f20"/><path d="M130.8,118.32S82,171.46,85.48,185.6s20,15.05,30.56,1.29,24.31-56.81,24.31-56.81,9.71-10.16,11.23-17.58c1.95-9.57-2.13-24.24-11-16.65C137.09,98.87,130.2,108.05,130.8,118.32Z" fill="#fff"/><path d="M98.85,197.24a15.3,15.3,0,0,1-3.1-.31c-5.37-1.13-9.3-5.22-10.77-11.21-3.43-14,41.81-63.78,45.29-67.59-.47-9.86,5.86-19.12,10-22.67,3.36-2.88,5.83-2.44,7.32-1.57,4.37,2.58,5.88,11.93,4.49,18.71-1.47,7.21-10.26,16.68-11.27,17.75-.8,2.47-14.12,43.53-24.36,56.85C111.54,193.59,105,197.24,98.85,197.24Zm46.34-103a6.82,6.82,0,0,0-4.25,2c-2.7,2.31-10.25,11.33-9.62,22.05a.54.54,0,0,1-.14.38c-.48.52-48.56,53.1-45.2,66.81,1.38,5.59,5,9.39,10,10.44,6.63,1.39,14.17-2.19,19.67-9.34C126,173,139.72,130.36,139.86,129.93a.37.37,0,0,1,.12-.2c.09-.1,9.62-10.14,11.09-17.34,1.32-6.42-.12-15.32-4-17.61A3.57,3.57,0,0,0,145.19,94.26Z" fill="#231f20"/><path d="M300.27,149.29a14.43,14.43,0,1,0,14.42,14.42A14.43,14.43,0,0,0,300.27,149.29Zm0,24.28a9.86,9.86,0,1,1,9.85-9.86A9.85,9.85,0,0,1,300.27,173.57Z" fill="#231f20"/><path d="M291.41,174.59h16.23a0,0,0,0,1,0,0v2.78a3.8,3.8,0,0,1-3.8,3.8h-8.64a3.8,3.8,0,0,1-3.8-3.8v-2.78A0,0,0,0,1,291.41,174.59Z" fill="#231f20"/><path d="M314.69,212.86a14.43,14.43,0,1,0-14.42,14.43A14.42,14.42,0,0,0,314.69,212.86Zm-4.57,0a9.85,9.85,0,1,1-9.85-9.85A9.86,9.86,0,0,1,310.12,212.86Z" fill="#231f20"/><path d="M295.21,195.4h8.64a3.8,3.8,0,0,1,3.8,3.8V202a0,0,0,0,1,0,0H291.41a0,0,0,0,1,0,0V199.2A3.8,3.8,0,0,1,295.21,195.4Z" fill="#231f20"/><path d="M299.53,187.46a.52.52,0,0,1-.52-.52v-4.06a.52.52,0,0,1,1,0v4.06A.52.52,0,0,1,299.53,187.46Z" fill="#231f20"/><path d="M299.53,193.2a.52.52,0,0,1-.52-.52v-4.05a.52.52,0,1,1,1,0v4.05A.51.51,0,0,1,299.53,193.2Z" fill="#231f20"/><path d="M299.53,191.17a2.42,2.42,0,0,1-2.42-2.42v-.81a2.42,2.42,0,0,1,4.83,0v.81A2.41,2.41,0,0,1,299.53,191.17Zm0-4.61a1.38,1.38,0,0,0-1.39,1.38v.81a1.39,1.39,0,1,0,2.77,0v-.81A1.38,1.38,0,0,0,299.53,186.56Z" fill="#231f20"/><path d="M299.53,197.07a2.43,2.43,0,0,1-2.42-2.42v-.81a2.42,2.42,0,1,1,4.83,0v.81A2.42,2.42,0,0,1,299.53,197.07Zm0-4.62a1.39,1.39,0,0,0-1.39,1.39v.81a1.39,1.39,0,0,0,2.77,0v-.81A1.38,1.38,0,0,0,299.53,192.45Z" fill="#231f20"/><path d="M299.53,184.91a2.42,2.42,0,0,1-2.42-2.41v-.81a2.42,2.42,0,1,1,4.83,0v.81A2.41,2.41,0,0,1,299.53,184.91Zm0-4.61a1.39,1.39,0,0,0-1.39,1.39v.81a1.39,1.39,0,0,0,2.77,0v-.81A1.38,1.38,0,0,0,299.53,180.3Z" fill="#231f20"/><circle cx="197.44" cy="136.12" r="1.65" fill="#231f20"/><circle cx="197.44" cy="159.08" r="1.65" fill="#231f20"/><circle cx="197.44" cy="182.04" r="1.65" fill="#231f20"/><circle cx="197.44" cy="205" r="1.65" fill="#231f20"/><rect x="155.94" y="143.28" width="29.68" height="6.7" fill="#fff"/><rect x="157.81" y="167.95" width="25.96" height="27.2" fill="#68e1fd"/><path d="M183.77,195.66h-26a.51.51,0,0,1-.51-.52V168a.51.51,0,0,1,.51-.52h26a.52.52,0,0,1,.52.52v27.19A.52.52,0,0,1,183.77,195.66Zm-25.44-1h24.92V168.46H158.33Z" fill="#231f20"/><rect x="165.75" y="167.95" width="10.44" height="27.2" fill="#68e1fd"/><path d="M176.19,195.66H165.75a.52.52,0,0,1-.52-.52V168a.52.52,0,0,1,.52-.52h10.44a.52.52,0,0,1,.52.52v27.19A.52.52,0,0,1,176.19,195.66Zm-9.93-1h9.41V168.46h-9.41Z" fill="#231f20"/><polygon points="186.5 169.19 171.04 173.73 155.58 169.19 155.58 160.26 186.5 160.26 186.5 169.19" fill="#68e1fd"/><path d="M171,174.25l-.15,0-15.46-4.55a.5.5,0,0,1-.37-.49v-8.93a.52.52,0,0,1,.52-.52H186.5a.51.51,0,0,1,.51.52v8.93a.5.5,0,0,1-.37.49l-15.46,4.55ZM156.1,168.8,171,173.2,186,168.8v-8H156.1Zm30.4.39h0Z" fill="#231f20"/><circle cx="171.04" cy="167.67" r="1.32" fill="#231f20"/><rect x="206.86" y="167.95" width="25.96" height="27.2" fill="#68e1fd"/><path d="M232.82,195.66h-26a.52.52,0,0,1-.52-.52V168a.52.52,0,0,1,.52-.52h26a.51.51,0,0,1,.51.52v27.19A.51.51,0,0,1,232.82,195.66Zm-25.45-1H232.3V168.46H207.37Z" fill="#231f20"/><rect x="214.79" y="167.95" width="10.44" height="27.2" fill="#68e1fd"/><path d="M225.24,195.66H214.79a.51.51,0,0,1-.51-.52V168a.51.51,0,0,1,.51-.52h10.45a.51.51,0,0,1,.51.52v27.19A.51.51,0,0,1,225.24,195.66Zm-9.93-1h9.41V168.46h-9.41Z" fill="#231f20"/><polygon points="235.54 169.19 220.09 173.73 204.63 169.19 204.63 160.26 235.54 160.26 235.54 169.19" fill="#68e1fd"/><path d="M220.09,174.25l-.15,0-15.46-4.55a.5.5,0,0,1-.37-.49v-8.93a.52.52,0,0,1,.52-.52h30.91a.52.52,0,0,1,.52.52v8.93a.5.5,0,0,1-.37.49l-15.46,4.55Zm-15-5.45,15,4.4L235,168.8v-8H205.14Zm30.4.39h0Z" fill="#231f20"/><circle cx="220.09" cy="167.67" r="1.32" fill="#231f20"/><path d="M257.53,195.4a.52.52,0,0,1-.41-.83l10.58-13.92a.53.53,0,0,1,.73-.1.52.52,0,0,1,.09.73l-10.58,13.91A.49.49,0,0,1,257.53,195.4Z" fill="#231f20"/><path d="M243.63,255.72a10.15,10.15,0,0,1-7.65-3c-3.93-4.1-3.7-10.84-3.69-11.12a.52.52,0,0,1,1,0c0,.07-.22,6.59,3.41,10.37a9.16,9.16,0,0,0,6.9,2.69.52.52,0,1,1,0,1Z" fill="#231f20"/><path d="M145.5,255.72a.52.52,0,1,1,0-1,9.18,9.18,0,0,0,6.9-2.69c3.63-3.78,3.41-10.3,3.41-10.37a.51.51,0,0,1,.49-.53.53.53,0,0,1,.54.49c0,.28.24,7-3.69,11.12A10.15,10.15,0,0,1,145.5,255.72Z" fill="#231f20"/><path d="M219.92,152.69s-5.71-2-6.89-3.62-1.93-3.57-1-5.13,1.72-2.27,1.72-3.82-2.41-3.57-2.41-3.57l3-3.26a2.33,2.33,0,0,0,2.36,1.08,7.06,7.06,0,0,0,3.29-1.75,3.93,3.93,0,0,0,3,1.6,3.71,3.71,0,0,0,2.74-1l3.22,3.2s-2.63,2.12-2.15,4.87,2,2.43,1.56,5.89S219.92,152.69,219.92,152.69Z" fill="#fff"/><path d="M219.55,149.84s-3.89-1.5-4.75-2.48a2.28,2.28,0,0,1,0-3,6.82,6.82,0,0,0,1.18-3.31,10.33,10.33,0,0,0-1.39-4.61,7.45,7.45,0,0,0,5.33-.72,7.13,7.13,0,0,0,5.34.83,7.35,7.35,0,0,0-1.23,3.93c.16,1.86,1.55,3.46,1.55,4.65s-.05,1.81-.69,2.23S219.55,149.84,219.55,149.84Z" fill="#d1d3d4"/><path d="M290.14,153.42c.2,1.21.8,2.67,2.09,2.75a2.39,2.39,0,0,0,2.16-1.76c.33-.91.37-1.92.79-2.8a8.22,8.22,0,0,0-.06,2.84,3,3,0,0,0,1.72,2.2,3,3,0,0,0,3.18-1,5.54,5.54,0,0,0,1.17-3.15c.17,1.14-.05,2.31.13,3.44a2.7,2.7,0,0,0,2.19,2.42,3.06,3.06,0,0,0,2.51-1.5,8,8,0,0,0,1.46-3.84c-.22,1.42-.25,3.23,1.1,3.89a2.46,2.46,0,0,0,2.57-.43,4.75,4.75,0,0,0,1.38-2.25,11.39,11.39,0,0,0-2.68-11.34,8.66,8.66,0,0,0-3.22-2.17c-3.66-1.34-9.86-.28-13.44,1.23C289.17,143.69,289.59,150,290.14,153.42Z" fill="#fff"/><path d="M303.65,158.94h-.17a3.19,3.19,0,0,1-2.67-2.85c0-.17,0-.33-.05-.5a5.55,5.55,0,0,1-.35.46,3.53,3.53,0,0,1-3.75,1.09,3.33,3.33,0,0,1-1.94-2.17,2.76,2.76,0,0,1-2.52,1.73c-1.3-.08-2.26-1.27-2.57-3.19-.6-3.69-.95-10.16,3.36-12,3.92-1.65,10.16-2.57,13.82-1.23a9.25,9.25,0,0,1,3.41,2.29,11.85,11.85,0,0,1,2.8,11.86,5.15,5.15,0,0,1-1.54,2.49,3,3,0,0,1-3.13.49,2.42,2.42,0,0,1-1.22-1.35,8.86,8.86,0,0,1-.69,1.14A3.71,3.71,0,0,1,303.65,158.94ZM301.19,152a.51.51,0,0,1,.51.44,10.85,10.85,0,0,1,.07,1.79,10,10,0,0,0,.06,1.65c.16.94.79,1.93,1.72,2s1.75-.88,2.05-1.29a7.48,7.48,0,0,0,1.31-3.15L307,153a.51.51,0,0,1,.58-.43.51.51,0,0,1,.45.56c0,.16,0,.33-.07.49-.17,1.55.13,2.52.88,2.89a1.94,1.94,0,0,0,2-.36,4.33,4.33,0,0,0,1.22-2,10.82,10.82,0,0,0-2.56-10.82,8.08,8.08,0,0,0-3-2c-3.37-1.23-9.4-.33-13.06,1.21s-3.29,7.47-2.74,10.86h0c.06.38.42,2.25,1.61,2.33.77.05,1.39-.71,1.65-1.42a10.36,10.36,0,0,0,.3-1.16,7.58,7.58,0,0,1,.5-1.69.52.52,0,0,1,1,.29,7.94,7.94,0,0,0-.07,2.66,2.47,2.47,0,0,0,1.4,1.82,2.5,2.5,0,0,0,2.61-.8,5,5,0,0,0,1.05-2.86.53.53,0,0,1,.5-.47Z" fill="#231f20"/><path d="M225.92,224.37h18.46a6.15,6.15,0,0,1,6.15,6.15v31.3a0,0,0,0,1,0,0h-24.6a0,0,0,0,1,0,0V224.37A0,0,0,0,1,225.92,224.37Z" fill="#231f20"/><path d="M250.52,262.32h-24.6a.5.5,0,0,1-.5-.5V224.37a.5.5,0,0,1,.5-.5h18.45a6.65,6.65,0,0,1,6.65,6.65v31.3A.51.51,0,0,1,250.52,262.32Zm-24.11-1H250v-30.8a5.65,5.65,0,0,0-5.65-5.65h-18Z" fill="#231f20"/><circle cx="241.55" cy="233.05" r="1.39" fill="#fff"/><path d="M248.37,240.63H231.63a.51.51,0,0,1-.38-.16.55.55,0,0,1-.14-.37c.1-2.55.15-9.5-.86-11.11A3.24,3.24,0,0,0,227,227.6a.51.51,0,0,1-.6-.41.52.52,0,0,1,.4-.6,4.25,4.25,0,0,1,4.31,1.85c1.22,1.95,1.11,9,1,11.16h16.21a.52.52,0,0,1,0,1Z" fill="#fff"/><path d="M292,176a.52.52,0,0,1-.52-.52v-1.93a.52.52,0,0,1,.52-.52h8.86a.52.52,0,1,1,0,1h-8.35v1.42A.51.51,0,0,1,292,176Z" fill="#fff"/><path d="M307.64,203.23h-6.21a.52.52,0,0,1-.52-.52.52.52,0,0,1,.52-.52h5.7v-1.73a.52.52,0,0,1,1,0v2.25A.52.52,0,0,1,307.64,203.23Z" fill="#fff"/></g></svg>