<svg xmlns="http://www.w3.org/2000/svg" viewBox="0 0 400 300"><g id="_574_ranking_flatline" data-name="#574_ranking_flatline"><path d="M125.61,210s7.54-11.1,9.47-22.34c0,0-15.54,3.1-16.28,16.42C117.89,220.51,125.61,210,125.61,210Z" fill="#fff"/><path d="M121.2,213.82a2.1,2.1,0,0,1-.7-.12c-1.8-.65-2.52-3.8-2.2-9.64.76-13.54,16.52-16.85,16.68-16.88a.45.45,0,0,1,.44.13.49.49,0,0,1,.15.44c-1.92,11.22-9.47,22.43-9.55,22.54h0C125.72,210.7,123.36,213.82,121.2,213.82Zm13.25-25.48c-3,.82-14.53,4.65-15.15,15.78-.38,6.9.8,8.37,1.54,8.64,1.38.49,3.66-2.09,4.36-3C125.42,209.39,132.39,199,134.45,188.34ZM125.61,210h0Z" fill="#231f20"/><path d="M119.25,210.6a34.56,34.56,0,0,0,5-17.9,32.86,32.86,0,0,0-5-17.61,44.17,44.17,0,0,0-10.06,20.27c-2.22,12,2.39,20.86,6.22,18Z" fill="#fff"/><path d="M113.94,214.43a3,3,0,0,1-1.62-.5c-3.12-2-5.33-9.47-3.63-18.66a45.12,45.12,0,0,1,10.19-20.52.51.51,0,0,1,.4-.16.49.49,0,0,1,.37.21,33,33,0,0,1,5.13,17.9,34.72,34.72,0,0,1-5.12,18.18.34.34,0,0,1-.12.12l-3.83,2.81A3,3,0,0,1,113.94,214.43Zm5.24-38.51a44.11,44.11,0,0,0-9.5,19.53c-1.61,8.66.4,15.89,3.17,17.64a1.89,1.89,0,0,0,2.27-.08l3.76-2.76a34.49,34.49,0,0,0,4.9-17.55A33,33,0,0,0,119.18,175.92Zm.07,34.68h0Z" fill="#231f20"/><path d="M113,213.41s2.22-14.65-2.22-22-12.43-10.66-12.43-10.66-4.73,10.95,0,19.24S113,213.41,113,213.41Z" fill="#fff"/><path d="M113,213.91a.46.46,0,0,1-.23-.06c-.41-.21-10.1-5.34-14.85-13.66s-.22-19.22,0-19.68a.5.5,0,0,1,.65-.26c.33.14,8.2,3.4,12.67,10.86s2.37,21.77,2.28,22.37a.52.52,0,0,1-.26.38A.64.64,0,0,1,113,213.91ZM98.62,181.38c-.81,2.16-3.84,11.31.17,18.32s11.57,11.62,13.81,12.91c.37-3,1.49-14.75-2.25-21S100.37,182.2,98.62,181.38Z" fill="#231f20"/><polygon points="194.76 227.68 194.76 56.92 148.25 56.92 92.66 88.1 92.66 130.71 144.87 103.44 144.87 227.68 92.66 227.68 92.66 265.76 244.64 265.76 244.64 227.68 194.76 227.68" fill="#fff"/><path d="M244.64,266.26h-152a.5.5,0,0,1-.5-.5V227.67a.51.51,0,0,1,.5-.5h51.71V104.26L92.89,131.15a.5.5,0,0,1-.49,0,.49.49,0,0,1-.24-.42V88.1a.51.51,0,0,1,.26-.44L148,56.48a.5.5,0,0,1,.24-.06h46.51a.5.5,0,0,1,.5.5V227.17h49.38a.5.5,0,0,1,.5.5v38.09A.5.5,0,0,1,244.64,266.26Zm-151.48-1h151V228.17H194.76a.5.5,0,0,1-.5-.5V57.42H148.38l-55.22,31v41.49L144.64,103a.5.5,0,0,1,.49,0,.5.5,0,0,1,.24.43V227.67a.5.5,0,0,1-.5.5H93.16Z" fill="#231f20"/><polygon points="244.37 208.75 248.71 255.15 262.07 255.15 258.21 203.26 244.37 208.75" fill="#fff"/><path d="M262.07,255.65H248.71a.51.51,0,0,1-.5-.45l-4.34-46.4a.5.5,0,0,1,.31-.51l13.84-5.5a.51.51,0,0,1,.45,0,.53.53,0,0,1,.24.39l3.86,51.89a.5.5,0,0,1-.5.54Zm-12.9-1h12.36L257.76,204l-12.86,5.11Z" fill="#231f20"/><path d="M292,88.28l3.28-6.88s-2.66-3.37-1.64-5.21,2.11-5,3.52-5.13a24.3,24.3,0,0,1,2.54-.12s3.56-9.82,4.19-10.08a1.39,1.39,0,0,1,1.72,1.81c-.47,1.52-2.19,8.39-2.19,8.39s4.53,2,3.91,5.13-3.29,6.15-4.54,8.49S298.2,95.6,298.2,95.6Z" fill="#fff"/><path d="M298.21,96.1a.49.49,0,0,1-.38-.17l-6.26-7.32a.49.49,0,0,1-.07-.54l3.15-6.61c-.65-.89-2.51-3.69-1.5-5.51.24-.43.49-1,.74-1.47.9-1.86,1.82-3.79,3.17-3.92,1-.1,1.79-.12,2.24-.12,3.53-9.71,4.12-9.95,4.34-10a2,2,0,0,1,1.93.43,1.82,1.82,0,0,1,.46,2c-.39,1.29-1.7,6.49-2.08,8,1.15.59,4.41,2.53,3.82,5.51a18.47,18.47,0,0,1-3.13,6.29c-.55.84-1.08,1.63-1.46,2.34-1.22,2.29-4.47,10.78-4.51,10.86a.5.5,0,0,1-.38.32Zm-5.67-7.9,5.5,6.44c.85-2.18,3.22-8.24,4.26-10.19A28,28,0,0,1,303.81,82c1.2-1.81,2.57-3.85,3-5.93.54-2.74-3.58-4.57-3.62-4.59a.49.49,0,0,1-.29-.58c.07-.28,1.73-6.89,2.2-8.41a.87.87,0,0,0-.18-1,1.1,1.1,0,0,0-.81-.26,90,90,0,0,0-4,9.81.49.49,0,0,1-.48.33,24.43,24.43,0,0,0-2.48.11c-.79.08-1.7,2-2.37,3.36-.26.55-.51,1.08-.76,1.53-.7,1.26.91,3.78,1.59,4.65a.47.47,0,0,1,.06.52Z" fill="#231f20"/><path d="M212.21,206.51l-8,48.64h13.36c-.38,1,12.56-48.64,12.56-48.64Z" fill="#fff"/><path d="M217.55,255.66H204.2a.49.49,0,0,1-.38-.18.52.52,0,0,1-.11-.4l8-48.64a.5.5,0,0,1,.49-.42h17.91a.49.49,0,0,1,.4.2.51.51,0,0,1,.09.43c-4.21,16.14-12.15,46.69-12.55,48.52a.5.5,0,0,1-.51.5Zm-12.76-1h12.42c.17-1,.69-3,1.78-7.23,1.17-4.56,2.75-10.64,4.32-16.72L229.48,207H212.64Z" fill="#231f20"/><path d="M218.14,131.74s-7.49,22.52-12.87,82l58.43,1.13s3.26-56.58-5.17-82.41Z" fill="#231f20"/><path d="M263.7,215.36h0l-58.43-1.13a.58.58,0,0,1-.37-.17.47.47,0,0,1-.12-.38c5.32-58.84,12.82-81.87,12.9-82.09a.54.54,0,0,1,.48-.35l40.38.71a.52.52,0,0,1,.47.35c8.37,25.62,5.23,82,5.2,82.58A.5.5,0,0,1,263.7,215.36Zm-57.89-2.12,57.42,1.11c.28-5.54,2.69-57.08-5.07-81.4l-39.65-.7C217.56,135.32,210.77,158.81,205.81,213.24Z" fill="#231f20"/><path d="M256.36,133.73c-2.06-13.57-11-55.53-11-55.53-7.62,2.21-12.61.45-12.61.45S219,122.73,216.67,133.73Z" fill="#231f20"/><path d="M256.36,134.23H216.67a.49.49,0,0,1-.38-.18.46.46,0,0,1-.1-.42c2.28-10.9,16-54.69,16.13-55.13a.5.5,0,0,1,.25-.3.48.48,0,0,1,.39,0s4.95,1.67,12.31-.46a.51.51,0,0,1,.4,0,.5.5,0,0,1,.23.32c.09.42,8.91,42.13,11,55.57a.52.52,0,0,1-.11.4A.52.52,0,0,1,256.36,134.23Zm-39.07-1h38.48c-2.05-13.12-9.72-49.6-10.74-54.41a23.4,23.4,0,0,1-11.9.45C231.66,84,219.77,122.13,217.29,133.23Z" fill="#231f20"/><path d="M291.69,85.3,280.5,104,262.82,82.28c-2.38-4.1-13.7-4.1-13.7-4.1s-17.51-1.18-21,0c0,0-13.82,4.23-16.56,7.25s5,16.9,5.33,31.46S211,146.1,211,146.1l18.38,5.23s3.5-23.53,3.5-34.8c0-23.07,0-37.88,0-37.88l12.49.4s-.41,21.93-1,38.75c-.83,21.93,3.94,33.53,3.94,33.53l16.71-4.41s-5.46-19.84-5.39-30.39a70.12,70.12,0,0,1,.9-9.31c5.59,6.87,15.82,22.27,23.91,19C290.5,123.81,302,92.71,302,92.71Z" fill="#68e1fd"/><path d="M232.3,35.87l-.06,0c-.39.27-1.75,1.87-2.1,1.88-7.26.22-10.26,6.57-10.14,13.08a42.39,42.39,0,0,0,5.21,19.53l.16-2.43a14.23,14.23,0,0,0,4.84,7.08,9.8,9.8,0,0,1,2.2-4.4l6.67,4.77a2,2,0,0,0,1.18.51,2.23,2.23,0,0,0,1.11-.52c2.78-2,6.61-3.2,7.6-6.46a19.49,19.49,0,0,0,1.46,4.53c3.83-2.27,5.1-7.13,5.84-11.52A38,38,0,0,0,257,51.54c-.33-3.06-.49-6.21-2-9-3.43-6.37-12.54-10.29-19.48-8.26A11.26,11.26,0,0,0,232.3,35.87Z" fill="#fff"/><path d="M240.22,76.43a2.51,2.51,0,0,1-1.43-.6l-6.29-4.5a9.1,9.1,0,0,0-1.8,3.82.52.52,0,0,1-.32.37.49.49,0,0,1-.48-.08,14.67,14.67,0,0,1-4.18-5.2v.19a.52.52,0,0,1-.4.46.5.5,0,0,1-.54-.25,42.85,42.85,0,0,1-5.27-19.76c-.11-6.1,2.59-13.3,10.55-13.58a11.77,11.77,0,0,0,1.09-1,8.12,8.12,0,0,1,.81-.78l.07,0a11.41,11.41,0,0,1,3.33-1.63c7.12-2.08,16.49,1.89,20.06,8.5,1.37,2.53,1.66,5.36,1.93,8.1l.11,1.06A38.54,38.54,0,0,1,256.77,62c-.77,4.54-2.1,9.5-6.08,11.87a.54.54,0,0,1-.41,0,.5.5,0,0,1-.3-.27,20.08,20.08,0,0,1-1.17-3.2c-1.08,1.73-3,2.83-4.83,3.89-.79.46-1.6.93-2.32,1.44a2.63,2.63,0,0,1-1.38.61Zm-7.81-6.28a.51.51,0,0,1,.29.1L239.37,75a1.63,1.63,0,0,0,.87.41A1.69,1.69,0,0,0,241,75c.81-.56,1.64-1,2.45-1.51,2.23-1.29,4.34-2.51,5-4.71a.5.5,0,0,1,.5-.36.52.52,0,0,1,.47.41,19.35,19.35,0,0,0,1.19,3.88c3.27-2.27,4.43-6.75,5.13-10.87a37.83,37.83,0,0,0,.68-10.27l-.11-1.07c-.27-2.64-.55-5.37-1.82-7.73-3.36-6.23-12.2-10-18.9-8a10.57,10.57,0,0,0-3,1.49h0l-.28-.41.26.43a8,8,0,0,0-.71.68c-.93.94-1.31,1.3-1.69,1.31-7.3.22-9.76,6.91-9.66,12.57a41.87,41.87,0,0,0,4.33,17.74l0-.66a.5.5,0,0,1,.44-.47.5.5,0,0,1,.53.36,13.76,13.76,0,0,0,4.07,6.33A10.21,10.21,0,0,1,232,70.32.48.48,0,0,1,232.41,70.15Zm-2.27-32.36h0Z" fill="#231f20"/><path d="M248.19,57.64c.74-4.29,7.87-5.27,7.47-.21a7.46,7.46,0,0,1-2,4.73,4.42,4.42,0,0,1-4.79,1.06" fill="#fff"/><path d="M250.44,64a4.27,4.27,0,0,1-1.74-.36.5.5,0,0,1-.24-.67.49.49,0,0,1,.66-.24,3.94,3.94,0,0,0,4.23-1,7.05,7.05,0,0,0,1.81-4.41c.13-1.63-.62-2.67-2-2.85a4.11,4.11,0,0,0-4.43,3.18.5.5,0,1,1-1-.17,5.07,5.07,0,0,1,5.54-4,3.3,3.3,0,0,1,2.91,3.92,7.93,7.93,0,0,1-2.09,5A5.23,5.23,0,0,1,250.44,64Z" fill="#231f20"/><path d="M230.44,57.44c-.64-4.3-7.75-5.43-7.45-.37a7.45,7.45,0,0,0,1.85,4.77A4.42,4.42,0,0,0,229.6,63" fill="#fff"/><path d="M228.16,63.8a5.19,5.19,0,0,1-3.69-1.62,8,8,0,0,1-2-5.08c-.15-2.6,1.45-3.7,3-3.86a5.07,5.07,0,0,1,5.45,4.13.5.5,0,0,1-1,.14,4.1,4.1,0,0,0-4.36-3.27c-1.43.15-2.2,1.17-2.1,2.8a6.93,6.93,0,0,0,1.71,4.45,3.92,3.92,0,0,0,4.2,1.06.5.5,0,1,1,.4.92A4.14,4.14,0,0,1,228.16,63.8Z" fill="#231f20"/><path d="M232.8,78.65s3.95,3.69,6.69,3.63,5.8-3.23,5.8-3.23l-.17-3-.4-7-.39-6.53-11.19-.12-.43,5.33-.13,1.72Z" fill="#fff"/><path d="M239.43,82.78c-2.91,0-6.81-3.61-7-3.77a.48.48,0,0,1-.16-.35l-.22-9.17.57-7.11a.49.49,0,0,1,.49-.46h0l11.19.12a.5.5,0,0,1,.49.48l1,16.5a.49.49,0,0,1-.14.38c-.13.13-3.23,3.32-6.15,3.38Zm-6.14-4.36c.73.65,3.91,3.36,6.13,3.36h.06c2.18,0,4.67-2.31,5.3-2.93L243.86,63l-10.26-.11-.52,6.58Z" fill="#231f20"/><path d="M232.58,69.48a10.58,10.58,0,0,0,3.64,3.73c2.39,1.56,6,3.32,8.9,2.84l-.4-7a24.1,24.1,0,0,1-6.46,0,16.6,16.6,0,0,1-5.55-1.3Z" fill="#231f20"/><path d="M244.09,76.63c-3.05,0-6.34-1.82-8.15-3a11,11,0,0,1-3.8-3.92.53.53,0,0,1-.06-.27l.13-1.73a.53.53,0,0,1,.26-.4.47.47,0,0,1,.46,0,16.06,16.06,0,0,0,5.39,1.25,23,23,0,0,0,6.32,0,.5.5,0,0,1,.39.11.47.47,0,0,1,.18.36l.41,7a.51.51,0,0,1-.42.52A6.83,6.83,0,0,1,244.09,76.63Zm-11-7.26a10.14,10.14,0,0,0,3.4,3.42c1.46,1,5.08,3.07,8.1,2.82l-.34-6a25.29,25.29,0,0,1-6-.1,18.36,18.36,0,0,1-5.05-1.05Z" fill="#231f20"/><path d="M238.27,70.64h1.15a9.83,9.83,0,0,0,9.94-9.72c0-3.11.11-9.32.11-9.32s-5.5-1.34-9.06-2.68c-6-2.26-7.59-5.5-7.59-5.5a24.11,24.11,0,0,1-1.41,6.29,28.3,28.3,0,0,1-2.67,4.1s-.17,4.85-.19,6.88A9.83,9.83,0,0,0,238.27,70.64Z" fill="#fff"/><path d="M239.53,71.15h-1.26a10.35,10.35,0,0,1-10.22-10.45c0-2,.19-6.84.2-6.89a.53.53,0,0,1,.1-.29,27.45,27.45,0,0,0,2.61-4,24.16,24.16,0,0,0,1.36-6.12.51.51,0,0,1,.4-.46.5.5,0,0,1,.55.27s1.63,3.1,7.32,5.25c3.49,1.32,8.94,2.65,9,2.66a.52.52,0,0,1,.38.5l-.1,9.31A10.35,10.35,0,0,1,239.53,71.15Zm-1.25-1h1.25a9.35,9.35,0,0,0,9.34-9.23L249,52c-1.32-.33-5.72-1.47-8.73-2.61a16.72,16.72,0,0,1-7.06-4.6,23.11,23.11,0,0,1-1.3,5.13A27,27,0,0,1,229.24,54c0,.85-.17,4.91-.19,6.7a9.34,9.34,0,0,0,9.23,9.44Z" fill="#231f20"/><path d="M239.1,63.86a15.37,15.37,0,0,1-1.69-.1.51.51,0,0,1-.43-.57.49.49,0,0,1,.56-.42,13.33,13.33,0,0,0,2.67,0c.27-.59-.44-3.6-1.59-6.7a.5.5,0,1,1,.93-.34c.55,1.46,2.26,6.34,1.49,7.61a.87.87,0,0,1-.65.42A11.78,11.78,0,0,1,239.1,63.86Z" fill="#231f20"/><ellipse cx="234.46" cy="54.68" rx="1.67" ry="0.68" transform="translate(177.2 288.52) rotate(-89.37)" fill="#231f20"/><ellipse cx="243.42" cy="54.46" rx="1.67" ry="0.68" transform="translate(186.28 297.27) rotate(-89.37)" fill="#231f20"/><path d="M239.1,66.17c-.21,0-.43,0-.64,0a9.15,9.15,0,0,1-6-3.44.5.5,0,0,1,.8-.6,8.27,8.27,0,0,0,5.3,3.05c2.21.19,4.51-.81,6.79-3a.5.5,0,0,1,.71,0,.49.49,0,0,1,0,.7C243.74,65.07,241.42,66.17,239.1,66.17Z" fill="#231f20"/><path d="M231.23,40.52c1.47,3.82,3.41,7.66,6.7,10.1a22.39,22.39,0,0,0,5.45,2.77c2.88,1.12,5.68,1.25,8.12,3.27A14.24,14.24,0,0,1,256.22,64a16.37,16.37,0,0,0-1.17-14c-2.3-3.9-6.11-6.64-9.87-9.16-2.05-1.38-4.29-2.78-6.76-2.73" fill="#fff"/><path d="M256.22,64.51h0a.48.48,0,0,1-.45-.38A13.74,13.74,0,0,0,251.18,57,13.09,13.09,0,0,0,246,54.75c-.92-.26-1.86-.52-2.82-.89A23.25,23.25,0,0,1,237.63,51c-3.6-2.67-5.56-6.92-6.87-10.32a.5.5,0,0,1,.29-.65.49.49,0,0,1,.64.29c1.26,3.27,3.14,7.36,6.54,9.88a22.14,22.14,0,0,0,5.33,2.71c.91.35,1.83.61,2.73.86a13.87,13.87,0,0,1,5.53,2.48,14.85,14.85,0,0,1,4.4,6.11,16,16,0,0,0-1.6-12.12c-2.24-3.79-5.87-6.41-9.72-9-2.11-1.42-4.2-2.68-6.48-2.65a.47.47,0,0,1-.5-.49.49.49,0,0,1,.49-.51c2.58,0,4.8,1.3,7.05,2.82,3.79,2.54,7.68,5.35,10,9.31a17,17,0,0,1,1.21,14.44A.51.51,0,0,1,256.22,64.51Z" fill="#231f20"/><path d="M210.24,128.11s5.57,5.62,6.14,7.32.28,12.34-.57,12.91-6.81,4.28-8.08,3-3.55-4.69-2.42-4.55a7.8,7.8,0,0,1,2.84,1.56A8.93,8.93,0,0,0,211,146.1s-3.53-3.29-1.54-7.12l-3.22-3.79" fill="#fff"/><path d="M208.56,152.08a1.62,1.62,0,0,1-1.19-.4c-.62-.62-3.32-3.92-2.78-5a.73.73,0,0,1,.79-.39,7.23,7.23,0,0,1,2.82,1.46,8.68,8.68,0,0,0,2.12-1.61c-.84-.94-3-3.81-1.48-7.08l-3-3.53a.51.51,0,0,1,.06-.71.49.49,0,0,1,.7.06l3.22,3.78a.52.52,0,0,1,.06.56c-1.78,3.44,1.31,6.4,1.44,6.52a.5.5,0,0,1,.08.63,9,9,0,0,1-3,2.42.49.49,0,0,1-.55-.06,8.72,8.72,0,0,0-2.25-1.37,14.2,14.2,0,0,0,2.5,3.63c.69.7,4.88-1.34,7.45-3.06.58-.84.92-10.68.37-12.33-.39-1.17-3.81-4.9-6-7.13a.5.5,0,0,1,0-.7.5.5,0,0,1,.71,0c.58.58,5.67,5.75,6.26,7.51.48,1.45.52,12.63-.76,13.49C215.49,149.15,211,152.08,208.56,152.08Z" fill="#231f20"/><path d="M211.54,85.39s-29.69,23.13-29.6,28.33c.06,3.73,23.73,24.41,23.73,24.41l7.59-8.58-11.72-14.28L218.14,104" fill="#68e1fd"/><path d="M260.41,107.72h-.08a.5.5,0,0,1-.42-.57c0-.09,1.5-9.7,3-14.58a.5.5,0,0,1,1,.29,143.64,143.64,0,0,0-2.93,14.44A.5.5,0,0,1,260.41,107.72Z" fill="#231f20"/><path d="M275.38,113.85a.53.53,0,0,1-.24-.06.5.5,0,0,1-.2-.68l5.12-9.36a.5.5,0,1,1,.88.48l-5.12,9.36A.49.49,0,0,1,275.38,113.85Z" fill="#231f20"/><path d="M299.64,81.35a.48.48,0,0,1-.34-.13.5.5,0,0,1,0-.71c2.16-2.26-1-5.48-1.1-5.61a.51.51,0,0,1-.05-.65.5.5,0,0,1,.63-.15s3.26,1.66,5.62,1.37h.06c-.32-.67-2.53-2.48-5.06-4.11a.5.5,0,1,1,.54-.84c2.68,1.73,5.81,4,5.53,5.25-.05.22-.24.61-.95.7a10.33,10.33,0,0,1-4.4-.72c1,1.59,1.53,3.75-.1,5.45A.49.49,0,0,1,299.64,81.35Zm4.83-5.77h0Zm.08-.15Z" fill="#231f20"/><path d="M238.94,104.49h0a.51.51,0,0,1-.48-.38l-6.14-25.35a.5.5,0,0,1,.37-.6.48.48,0,0,1,.6.37L239,101.92l5.86-23a.5.5,0,1,1,1,.24l-6.36,25A.48.48,0,0,1,238.94,104.49Z" fill="#fff"/><circle cx="238.85" cy="112.73" r="8.74" fill="#fff"/><path d="M238.85,122a9.25,9.25,0,1,1,9.24-9.25A9.25,9.25,0,0,1,238.85,122Zm0-17.49a8.25,8.25,0,1,0,8.24,8.24A8.25,8.25,0,0,0,238.85,104.49Z" fill="#231f20"/><path d="M248.71,255.15s.55,10.18.95,10.58,6.11.68,6.11.68l1-3.63,2.55,4s24.32,2.85,23.09-.2-20.35-11.4-20.35-11.4Z" fill="#231f20"/><path d="M276.13,268.45c-6.12,0-14.53-.93-16.86-1.2a.49.49,0,0,1-.36-.23l-2-3-.71,2.55a.49.49,0,0,1-.5.37c-5.9-.28-6.31-.69-6.44-.82s-.54-.55-1.1-10.91a.5.5,0,0,1,.14-.37.48.48,0,0,1,.36-.16h13.36a.45.45,0,0,1,.2,0c2,.86,19.36,8.52,20.62,11.67a1,1,0,0,1-.13,1C282.14,268.17,279.47,268.45,276.13,268.45Zm-16.51-2.17c10.31,1.2,21.73,1.71,22.35.46-.85-2.1-12.39-7.76-20-11.09H249.24c.24,4.29.59,8.92.82,9.75a45.28,45.28,0,0,0,5.34.49l.9-3.24a.5.5,0,0,1,.9-.14Z" fill="#231f20"/><path d="M217.56,255.15s-.54,10.18-.95,10.58-6.11.68-6.11.68l-1-3.63-2.54,4s-24.32,2.85-23.1-.2,20.35-11.4,20.35-11.4Z" fill="#231f20"/><path d="M190.15,268.45c-3.35,0-6-.28-6.64-1.09a1,1,0,0,1-.12-1c1.26-3.15,18.64-10.81,20.61-11.67a.48.48,0,0,1,.2,0h13.36a.52.52,0,0,1,.37.16.5.5,0,0,1,.13.37c-.55,10.36-.94,10.76-1.09,10.91s-.55.54-6.44.82a.51.51,0,0,1-.51-.37l-.71-2.55-1.94,3a.49.49,0,0,1-.36.23C204.67,267.52,196.27,268.45,190.15,268.45Zm14.16-12.8c-7.62,3.33-19.16,9-20,11.08.61,1.26,12,.75,22.34-.45l2.41-3.77a.51.51,0,0,1,.5-.22.52.52,0,0,1,.41.36l.9,3.24a39.85,39.85,0,0,0,5.34-.52c.24-.9.58-5.48.82-9.72Zm11.88,9.82Z" fill="#231f20"/><polygon points="238.85 106.03 240.71 109.8 244.88 110.4 241.87 113.34 242.58 117.49 238.85 115.53 235.13 117.49 235.84 113.34 232.82 110.4 236.99 109.8 238.85 106.03" fill="#68e1fd"/><path d="M280.5,144.62a.49.49,0,0,1-.48-.48v-4.28a.48.48,0,0,1,.48-.48.47.47,0,0,1,.48.48v4.28A.48.48,0,0,1,280.5,144.62Z" fill="#d1d3d4"/><path d="M280.5,152.48A.48.48,0,0,1,280,152v-4.29a.49.49,0,0,1,.48-.48.48.48,0,0,1,.48.48V152A.47.47,0,0,1,280.5,152.48Z" fill="#d1d3d4"/><path d="M286.58,146.41h-4.29a.48.48,0,0,1,0-1h4.29a.48.48,0,0,1,0,1Z" fill="#d1d3d4"/><path d="M278.71,146.41h-4.28a.48.48,0,0,1,0-1h4.28a.48.48,0,1,1,0,1Z" fill="#d1d3d4"/><path d="M274.43,61.43A.48.48,0,0,1,274,61V57.48a.48.48,0,1,1,.95,0V61A.48.48,0,0,1,274.43,61.43Z" fill="#d1d3d4"/><path d="M274.43,67.8a.48.48,0,0,1-.48-.48V63.85a.48.48,0,1,1,.95,0v3.47A.48.48,0,0,1,274.43,67.8Z" fill="#d1d3d4"/><path d="M279.34,62.88h-3.46a.48.48,0,1,1,0-1h3.46a.48.48,0,0,1,0,1Z" fill="#d1d3d4"/><path d="M273,62.88h-3.47a.48.48,0,1,1,0-1H273a.48.48,0,0,1,0,1Z" fill="#d1d3d4"/><path d="M194,36.8a.47.47,0,0,1-.48-.48V32a.48.48,0,1,1,.95,0v4.28A.47.47,0,0,1,194,36.8Z" fill="#d1d3d4"/><path d="M194,44.67a.47.47,0,0,1-.48-.48V39.91a.48.48,0,1,1,.95,0v4.28A.47.47,0,0,1,194,44.67Z" fill="#d1d3d4"/><path d="M200,38.59h-4.28a.48.48,0,1,1,0-1H200a.48.48,0,1,1,0,1Z" fill="#d1d3d4"/><path d="M192.17,38.59h-4.28a.48.48,0,1,1,0-1h4.28a.48.48,0,1,1,0,1Z" fill="#d1d3d4"/><path d="M130.82,132.42a.48.48,0,0,1-.48-.48v-4.28a.47.47,0,0,1,.48-.48.48.48,0,0,1,.48.48v4.28A.49.49,0,0,1,130.82,132.42Z" fill="#d1d3d4"/><path d="M130.82,140.28a.47.47,0,0,1-.48-.47v-4.29a.48.48,0,0,1,.48-.48.49.49,0,0,1,.48.48v4.29A.48.48,0,0,1,130.82,140.28Z" fill="#d1d3d4"/><path d="M136.89,134.21h-4.28a.48.48,0,1,1,0-1h4.28a.48.48,0,1,1,0,1Z" fill="#d1d3d4"/><path d="M129,134.21h-4.29a.48.48,0,0,1,0-1H129a.48.48,0,0,1,0,1Z" fill="#d1d3d4"/><path d="M102.32,162.46a.47.47,0,0,1-.47-.48V157.7a.48.48,0,1,1,1,0V162A.47.47,0,0,1,102.32,162.46Z" fill="#d1d3d4"/><path d="M102.32,170.33a.48.48,0,0,1-.47-.48v-4.28a.48.48,0,1,1,1,0v4.28A.48.48,0,0,1,102.32,170.33Z" fill="#d1d3d4"/><path d="M108.4,164.25h-4.28a.48.48,0,1,1,0-.95h4.28a.48.48,0,1,1,0,.95Z" fill="#d1d3d4"/><path d="M100.53,164.25H96.25a.48.48,0,1,1,0-.95h4.28a.48.48,0,1,1,0,.95Z" fill="#d1d3d4"/><path d="M103.07,207.34h24.68l-2.56,17.3a3.55,3.55,0,0,1-3.52,3H109.15a3.55,3.55,0,0,1-3.52-3Z" fill="#231f20"/><path d="M121.67,228.17H109.15a4.06,4.06,0,0,1-4-3.46l-2.56-17.29a.51.51,0,0,1,.11-.4.53.53,0,0,1,.38-.18h24.68a.53.53,0,0,1,.38.18.51.51,0,0,1,.11.4l-2.55,17.29A4.07,4.07,0,0,1,121.67,228.17Zm-18-20.33,2.47,16.72a3.07,3.07,0,0,0,3,2.61h12.52a3.07,3.07,0,0,0,3-2.61l2.47-16.72Z" fill="#231f20"/></g></svg>