<svg xmlns="http://www.w3.org/2000/svg" viewBox="0 0 400 300"><g id="_82_recycling" data-name="#82_recycling"><path d="M205.11,238.65a.51.51,0,0,1-.42-.22,28.41,28.41,0,0,0-44.45-3.52.51.51,0,0,1-.51.14.5.5,0,0,1-.35-.39,16.48,16.48,0,0,0-22.69-11.29.5.5,0,0,1-.7-.28c-3-9.05-10.92-15.67-19.36-16.09a17.38,17.38,0,0,0-12.86,5.17,14.21,14.21,0,0,0-4.47,10.76.51.51,0,0,1-.32.49.49.49,0,0,1-.56-.14,10.76,10.76,0,0,0-18.07,11.24.5.5,0,1,1-.91.4A11.75,11.75,0,0,1,98.29,221.7a15.49,15.49,0,0,1,4.77-10.23A18.39,18.39,0,0,1,116.68,206c8.67.44,16.85,7.08,20.07,16.23a17.6,17.6,0,0,1,23.42,11.31,29.4,29.4,0,0,1,45.35,4.33.5.5,0,0,1-.14.69A.46.46,0,0,1,205.11,238.65Z" fill="#d1d3d4"/><path d="M327.64,245.55H72.36a.5.5,0,0,1-.5-.5.5.5,0,0,1,.5-.5H327.64a.5.5,0,0,1,.5.5A.5.5,0,0,1,327.64,245.55Z" fill="#d1d3d4"/><path d="M134.52,260.16s.22,4.53,0,7.74-1.55,5.2-5.42,6.3-9.84-1.88-10.5-5.08,6-12.83,6-12.83Z" fill="#fff"/><path d="M127.32,275a11.7,11.7,0,0,1-5.84-1.72,6.79,6.79,0,0,1-3.38-4c-.69-3.33,5.35-12.22,6.05-13.22a.52.52,0,0,1,.61-.19l10,3.87a.5.5,0,0,1,.32.46s.22,4.6,0,7.8c-.25,3.65-2,5.67-5.79,6.76A7,7,0,0,1,127.32,275Zm-2.55-18c-1.94,2.87-6.15,9.74-5.66,12.09a5.75,5.75,0,0,0,2.91,3.33A9.37,9.37,0,0,0,129,273.7c3.41-1,4.82-2.61,5-5.84.19-2.64.06-6.24,0-7.34Z" fill="#231f20"/><path d="M170.09,260.16s-.22,4.53,0,7.74,1.55,5.2,5.42,6.3,9.84-1.88,10.5-5.08-6-12.83-6-12.83Z" fill="#fff"/><path d="M177.29,275a7,7,0,0,1-1.92-.25c-3.81-1.09-5.54-3.11-5.79-6.76-.22-3.2,0-7.76,0-7.8a.51.51,0,0,1,.33-.46l9.94-3.87a.53.53,0,0,1,.62.19c.69,1,6.73,9.89,6.05,13.22a6.85,6.85,0,0,1-3.39,4A11.7,11.7,0,0,1,177.29,275Zm-6.7-14.43c0,1.1-.16,4.7,0,7.34.22,3.23,1.63,4.87,5,5.84a9.4,9.4,0,0,0,6.95-1.36,5.82,5.82,0,0,0,2.91-3.33c.48-2.35-3.72-9.22-5.66-12.09Z" fill="#231f20"/><path d="M120,256.51s8,7.52,16.37,1.77l18.34-82.21,13.95,82.81s7.75,6.36,17-1.6l-6-98.54-57.21,1.82Z" fill="#231f20"/><path d="M176.08,261.76a13.19,13.19,0,0,1-7.69-2.5.52.52,0,0,1-.18-.3l-13.53-80.3L136.9,258.39a.49.49,0,0,1-.21.3c-8.62,5.91-16.91-1.73-17-1.81a.51.51,0,0,1-.16-.38l2.43-96a.5.5,0,0,1,.49-.48l57.21-1.82a.51.51,0,0,1,.51.47l6,98.54a.51.51,0,0,1-.17.41C182.38,260.79,178.94,261.76,176.08,261.76Zm-6.92-3.16c1.09.82,7.87,5.32,16-1.54l-6-97.81L123,161l-2.42,95.26c1.17,1,8.08,6.57,15.43,1.68l18.29-82a.54.54,0,0,1,.5-.39.5.5,0,0,1,.48.42Z" fill="#231f20"/><path d="M163.83,78.44s-16.16-.93-25.26,0c-6.23,5.56-16.1,82.12-16.1,82.12l53.47,2.15S175.51,90.78,163.83,78.44Z" fill="#231f20"/><path d="M175.94,163.21h0l-53.47-2.16a.49.49,0,0,1-.36-.17.5.5,0,0,1-.11-.39c.4-3.13,10-76.8,16.26-82.42a.47.47,0,0,1,.28-.12c9-.92,25.17,0,25.34,0a.48.48,0,0,1,.33.15c4.92,5.2,8.48,21,10.57,47.06,1.55,19.32,1.68,37.37,1.68,37.55a.49.49,0,0,1-.15.36A.52.52,0,0,1,175.94,163.21ZM123,160.08l52.41,2.11c-.07-6.51-1.07-71.37-11.84-83.26-1.87-.1-16.37-.84-24.81,0C134,83.86,126.45,133.72,123,160.08Z" fill="#231f20"/><path d="M145.81,137.16c-.89-1.82-3.92-.88-3.92-3.2V118.73h.55v-2.57H137v2.57h.54V134c0,2.32-3,1.38-3.92,3.2s-.31,15.15-.31,15.15h12.83S146.69,139,145.81,137.16Z" fill="#fff"/><path d="M146.12,152.81H133.29a.5.5,0,0,1-.5-.48c-.06-1.38-.55-13.52.36-15.39a3.35,3.35,0,0,1,2.32-1.58c1-.33,1.55-.53,1.55-1.4l0-14.73a.5.5,0,0,1-.5-.5v-2.56a.5.5,0,0,1,.5-.5h5.46a.5.5,0,0,1,.5.5v2.56a.5.5,0,0,1-.5.5h-.05V134c0,.87.5,1.07,1.55,1.4a3.37,3.37,0,0,1,2.32,1.58h0c.91,1.87.42,14,.36,15.39A.5.5,0,0,1,146.12,152.81Zm-12.35-1h11.87c.21-5.32.31-13.22-.28-14.43h0c-.3-.62-1-.84-1.72-1.07-1-.31-2.25-.7-2.25-2.35V118.73a.5.5,0,0,1,.5-.5h.05v-1.56h-4.46l0,1.56a.5.5,0,0,1,.5.5V134c0,1.65-1.25,2-2.25,2.35-.73.23-1.42.45-1.72,1.07C133.46,138.59,133.55,146.49,133.77,151.81Z" fill="#231f20"/><path d="M163.73,133.71c-1.21-1.54-5.33-.74-5.33-2.71v-9.1h-6V131c0,2-4.12,1.17-5.32,2.71s-.43,12.86-.43,12.86h17.45S164.93,135.25,163.73,133.71Z" fill="#fff"/><path d="M164.15,147.07H146.7a.5.5,0,0,1-.5-.46c-.13-1.92-.72-11.59.53-13.2a4.93,4.93,0,0,1,3.05-1.31c1.35-.26,2.17-.47,2.17-1.1v-9.1a.5.5,0,0,1,.5-.5h6a.5.5,0,0,1,.5.5V131c0,.63.82.84,2.18,1.1a4.9,4.9,0,0,1,3,1.31c1.26,1.61.66,11.28.53,13.2A.5.5,0,0,1,164.15,147.07Zm-17-1h16.51c.28-4.33.41-11.07-.35-12a4.41,4.41,0,0,0-2.45-.94c-1.39-.27-3-.58-3-2.08v-8.6h-5V131c0,1.5-1.58,1.81-3,2.08a4.44,4.44,0,0,0-2.45.94C146.76,135,146.89,141.74,147.17,146.07Z" fill="#231f20"/><path d="M188.22,139.15c-.74-1.52-3.27-.74-3.27-2.67v-8.95H181.3v8.95c0,1.93-2.53,1.15-3.27,2.67s-.26,12.64-.26,12.64h10.71S189,140.66,188.22,139.15Z" fill="#fff"/><path d="M188.48,152.29H177.77a.5.5,0,0,1-.5-.48c-.05-1.15-.46-11.3.31-12.88a2.92,2.92,0,0,1,2-1.37c.91-.28,1.23-.44,1.23-1.08v-8.95a.5.5,0,0,1,.5-.5H185a.5.5,0,0,1,.5.5v8.95c0,.64.32.8,1.23,1.08a2.92,2.92,0,0,1,2,1.37h0c.77,1.58.36,11.73.31,12.88A.5.5,0,0,1,188.48,152.29Zm-10.23-1H188c.17-4.29.25-10.94-.23-11.93-.24-.48-.77-.65-1.39-.84-.81-.26-1.93-.61-1.93-2V128H181.8v8.45c0,1.43-1.12,1.78-1.93,2-.62.19-1.15.36-1.39.84C178,140.35,178.08,147,178.25,151.29Z" fill="#231f20"/><path d="M165.42,57.79c-.32,0,.52-3.77.56-4,.33-1.68,1-3.63,1.18-5.33,1.22-9.5-4.33-12.64-4.33-12.64a12.72,12.72,0,0,0,.89-2.92l-4.49.5,1.23-3.82L137,38.49a2.39,2.39,0,0,0-1.05.63,2.3,2.3,0,0,0-.38,1,47.1,47.1,0,0,0,.87,20.11Z" fill="#fff"/><path d="M136.41,60.76a.52.52,0,0,1-.5-.4A47.57,47.57,0,0,1,135,40a2.82,2.82,0,0,1,.48-1.24,2.91,2.91,0,0,1,1.28-.79l23.49-8.93a.51.51,0,0,1,.67.64l-1,3.06,3.69-.42a.56.56,0,0,1,.41.14.53.53,0,0,1,.16.41,11,11,0,0,1-.76,2.7c1.29.93,5.27,4.53,4.2,12.9a28.52,28.52,0,0,1-.68,3.22c-.19.73-.37,1.45-.5,2.14l0,.21a23.33,23.33,0,0,0-.59,3.44.44.44,0,0,1,.07.22.5.5,0,0,1-.46.56h0l-29,2.46Zm23.23-30.33L137.16,39a2,2,0,0,0-.84.48,1.75,1.75,0,0,0-.27.78,46.33,46.33,0,0,0,.76,19.46l28-2.37a29.48,29.48,0,0,1,.6-3.45l0-.2c.13-.7.32-1.44.51-2.2a27.22,27.22,0,0,0,.66-3.09c1.15-9-3.86-12-4.08-12.13a.52.52,0,0,1-.22-.65,15.62,15.62,0,0,0,.75-2.13l-3.81.42a.52.52,0,0,1-.46-.18.54.54,0,0,1-.09-.49Zm5.74,26.84Z" fill="#231f20"/><path d="M161.12,57.32c.79-4.94,9-6.15,8.58-.33a8.62,8.62,0,0,1-2.18,5.46,5.09,5.09,0,0,1-5.5,1.29" fill="#fff"/><path d="M163.73,64.6a4.81,4.81,0,0,1-1.92-.39.52.52,0,0,1,.42-.95,4.58,4.58,0,0,0,4.92-1.17,8.14,8.14,0,0,0,2-5.14c.13-1.91-.76-3.12-2.44-3.31a4.77,4.77,0,0,0-5.12,3.76.51.51,0,0,1-.59.43.52.52,0,0,1-.43-.59,5.77,5.77,0,0,1,6.26-4.62c1.75.2,3.55,1.46,3.35,4.4a9.18,9.18,0,0,1-2.33,5.79A5.92,5.92,0,0,1,163.73,64.6Z" fill="#231f20"/><path d="M140.71,57.32c-.79-4.94-9-6.15-8.58-.33a8.62,8.62,0,0,0,2.18,5.46,5.1,5.1,0,0,0,5.5,1.29" fill="#fff"/><path d="M138.1,64.6A5.88,5.88,0,0,1,134,62.81,9,9,0,0,1,131.62,57c-.21-2.94,1.59-4.2,3.34-4.4a5.75,5.75,0,0,1,6.26,4.62.52.52,0,0,1-.43.59.51.51,0,0,1-.59-.43,4.78,4.78,0,0,0-5.12-3.76c-1.68.19-2.57,1.4-2.44,3.31a8.19,8.19,0,0,0,2,5.14,4.58,4.58,0,0,0,4.92,1.17.52.52,0,0,1,.42.95A4.81,4.81,0,0,1,138.1,64.6Z" fill="#231f20"/><path d="M141.89,80.06s1.75,6.75,8.22,6.75,9-5.88,9-5.88l-.19-2.4-.64-8-.6-7.49H142.93l-.49,6.13-.15,2Z" fill="#fff"/><path d="M150.11,87.33c-6.79,0-8.7-7.07-8.72-7.14a.77.77,0,0,1,0-.15l.4-8.93.65-8.13a.51.51,0,0,1,.51-.48h14.76a.53.53,0,0,1,.52.48l1.42,17.91a.51.51,0,0,1,0,.24C159.56,81.19,156.83,87.33,150.11,87.33ZM142.41,80c.21.74,2,6.3,7.7,6.3a9.59,9.59,0,0,0,8.48-5.47l-1.37-17.3H143.41l-.61,7.64Z" fill="#231f20"/><path d="M141.29,68.58a7.08,7.08,0,0,0,1,2.55,13.08,13.08,0,0,0,4.85,4.26c3.18,1.75,7.93,3.73,11.79,3.14l-.64-8a36.06,36.06,0,0,1-8.51.06,24.45,24.45,0,0,1-7.34-1.42C142.05,69,141.66,68.79,141.29,68.58Z" fill="#231f20"/><path d="M157.46,79.14c-3.93,0-8.2-2-10.56-3.32a13.4,13.4,0,0,1-5-4.42,7.54,7.54,0,0,1-1.06-2.73.5.5,0,0,1,.74-.53c.35.2.72.38,1.1.55a24,24,0,0,0,7.19,1.38,35.65,35.65,0,0,0,8.39,0,.5.5,0,0,1,.38.1.51.51,0,0,1,.19.35l.63,8A.49.49,0,0,1,159,79,9.8,9.8,0,0,1,157.46,79.14Zm-15.41-9.62a7,7,0,0,0,.66,1.35A12.48,12.48,0,0,0,147.38,75c2.46,1.36,7.09,3.53,11,3.15l-.55-7a37,37,0,0,1-8.1,0,24.9,24.9,0,0,1-7.49-1.45Z" fill="#231f20"/><path d="M149.88,72.4h1.32a11.31,11.31,0,0,0,11.31-11.31V47.77a3.4,3.4,0,0,0-4.39-3.25l-7.58,2.32L143,44.52a3.4,3.4,0,0,0-4.39,3.25V61.09A11.31,11.31,0,0,0,149.88,72.4Z" fill="#fff"/><path d="M159.12,44.37a3.4,3.4,0,0,1,3.39,3.4V61.09A11.31,11.31,0,0,1,151.2,72.4h-1.32a11.31,11.31,0,0,1-11.31-11.31V47.77a3.4,3.4,0,0,1,3.39-3.4,3.46,3.46,0,0,1,1,.15l7.58,2.32,7.58-2.32a3.46,3.46,0,0,1,1-.15m0-1a4.41,4.41,0,0,0-1.3.2l-7.28,2.22-7.27-2.22a4.53,4.53,0,0,0-1.31-.2,4.43,4.43,0,0,0-4.42,4.43V61.09a12.35,12.35,0,0,0,12.34,12.34h1.32a12.35,12.35,0,0,0,12.34-12.34V47.77a4.43,4.43,0,0,0-4.42-4.43Z" fill="#231f20"/><path d="M150.72,61.42a12,12,0,0,1-1.65-.1.94.94,0,0,1-.7-.46c-.86-1.44,1.17-7,1.81-8.69a.51.51,0,0,1,.67-.29.51.51,0,0,1,.29.66c-1.42,3.71-2.28,7.28-1.88,7.79a16,16,0,0,0,3.09,0,.53.53,0,0,1,.58.45.52.52,0,0,1-.45.57A13.77,13.77,0,0,1,150.72,61.42Z" fill="#231f20"/><path d="M151.34,68.75a10.28,10.28,0,0,1-4.74-1.38.5.5,0,0,1-.22-.69.52.52,0,0,1,.7-.22c2.24,1.18,4.16,1.53,5.71,1A3.84,3.84,0,0,0,155,65.8a.51.51,0,1,1,.92.46,4.77,4.77,0,0,1-2.76,2.21A5.83,5.83,0,0,1,151.34,68.75Z" fill="#231f20"/><ellipse cx="155.67" cy="51.28" rx="0.68" ry="1.56" transform="translate(-3.04 10.38) rotate(-3.78)" fill="#231f20"/><ellipse cx="145.58" cy="52.01" rx="0.68" ry="1.56" transform="translate(-3.11 9.71) rotate(-3.78)" fill="#231f20"/><path d="M176.43,144.18a19.63,19.63,0,0,0-.94-4.63,5.16,5.16,0,0,1-.3-1.75,4.66,4.66,0,0,1,.58-2.15,5.56,5.56,0,0,0,.55-3.45,4.66,4.66,0,0,0-2.79-4c-.41-.17-.59-.38-.51-.77,0,0,0-2.32,0-2.26s-3.87,0-3.87,0v2.26h0c.08.41-.1.61-.5.77a4.07,4.07,0,0,0-2.39,2.48,6,6,0,0,0,.17,5.05,4.72,4.72,0,0,1,.56,2.11,4.65,4.65,0,0,1-.26,1.59,20.5,20.5,0,0,0-1,4.79,31.48,31.48,0,0,0-.05,4.66,1.75,1.75,0,0,0,1.93,1.83h6.94a1.72,1.72,0,0,0,1.92-1.82A33.06,33.06,0,0,0,176.43,144.18Z" fill="#fff"/><path d="M171.07,151.17H167.6a2.24,2.24,0,0,1-2.43-2.3,32,32,0,0,1,.05-4.73,21.06,21.06,0,0,1,1-4.91,4.22,4.22,0,0,0,.23-1.42,4.17,4.17,0,0,0-.5-1.89,6.44,6.44,0,0,1-.2-5.46,4.66,4.66,0,0,1,2.67-2.77.57.57,0,0,0,.21-.11.82.82,0,0,0,0-.1.43.43,0,0,1,0-.25v-2.1a.48.48,0,0,1,.15-.36.42.42,0,0,1,.36-.14c1.61,0,3.44,0,3.75,0a.42.42,0,0,1,.31,0c.36.15.36.15.3,2.73l0,.17a.6.6,0,0,0,.23.13,5.14,5.14,0,0,1,3.08,4.43,6,6,0,0,1-.6,3.76,4,4,0,0,0-.52,1.92,5.09,5.09,0,0,0,.27,1.58,19.8,19.8,0,0,1,1,4.75h0a32,32,0,0,1,0,4.73,2.22,2.22,0,0,1-2.42,2.3Zm-1.43-23.67a1.11,1.11,0,0,1-.84,1.12,3.61,3.61,0,0,0-2.1,2.19,5.45,5.45,0,0,0,.15,4.65,5.3,5.3,0,0,1,.61,2.34,4.94,4.94,0,0,1-.29,1.75,20.12,20.12,0,0,0-.95,4.68,30,30,0,0,0-.05,4.58,1.26,1.26,0,0,0,1.43,1.36h6.94a1.24,1.24,0,0,0,1.42-1.35,31.67,31.67,0,0,0,0-4.6,19.38,19.38,0,0,0-.91-4.51,5.54,5.54,0,0,1-.33-1.92,5.09,5.09,0,0,1,.65-2.38,5,5,0,0,0,.48-3.15,4.15,4.15,0,0,0-2.49-3.64,1.13,1.13,0,0,1-.8-1.32c0-.57,0-1.22,0-1.65-.51,0-1.37,0-2.89,0v1.76A.37.37,0,0,1,169.64,127.5Z" fill="#231f20"/><path d="M133,151.11a24.66,24.66,0,0,0-1.18-5.82,6.46,6.46,0,0,1-.37-2.19,5.76,5.76,0,0,1,.73-2.7,7,7,0,0,0,.68-4.34,5.82,5.82,0,0,0-3.5-5.06c-.51-.23-.73-.48-.64-1,0,0,.07-2.92,0-2.85s-4.86,0-4.86,0V130h0c.09.51-.13.76-.63,1a5.16,5.16,0,0,0-3,3.12,7.55,7.55,0,0,0,.22,6.34,5.8,5.8,0,0,1,.7,2.65,5.72,5.72,0,0,1-.32,2,26.42,26.42,0,0,0-1.24,6,40.74,40.74,0,0,0-.06,5.85,2.2,2.2,0,0,0,2.43,2.3q4.35,0,8.71,0A2.16,2.16,0,0,0,133,157,42.41,42.41,0,0,0,133,151.11Z" fill="#fff"/><path d="M126.25,159.76H121.9A2.7,2.7,0,0,1,119,157a41.24,41.24,0,0,1,.06-5.92,26.75,26.75,0,0,1,1.26-6.13,5.24,5.24,0,0,0-.34-4.26,8,8,0,0,1-.24-6.75,5.58,5.58,0,0,1,3.28-3.4c.37-.15.36-.22.33-.41a.48.48,0,0,1,0-.27v-2.67a.51.51,0,0,1,.15-.35.46.46,0,0,1,.36-.15c2.06,0,4.38,0,4.73,0a.5.5,0,0,1,.32,0c.38.16.38.16.3,3.32,0,.25,0,.33.34.5a6.3,6.3,0,0,1,3.8,5.46,7.36,7.36,0,0,1-.74,4.64,5.2,5.2,0,0,0-.67,2.47,6,6,0,0,0,.35,2,25.21,25.21,0,0,1,1.2,5.94h0a42.73,42.73,0,0,1,.05,5.93,2.65,2.65,0,0,1-2.92,2.76Zm-1.92-29.6a1.32,1.32,0,0,1-1,1.3,4.66,4.66,0,0,0-2.72,2.82,7,7,0,0,0,.19,5.94,6.35,6.35,0,0,1,.76,2.88,6.14,6.14,0,0,1-.35,2.16,25.29,25.29,0,0,0-1.21,5.9,39.28,39.28,0,0,0-.06,5.78,1.71,1.71,0,0,0,1.93,1.82q4.35,0,8.71,0a1.69,1.69,0,0,0,1.92-1.82,40.58,40.58,0,0,0-.05-5.78,24.28,24.28,0,0,0-1.15-5.71,6.87,6.87,0,0,1-.4-2.35,6.31,6.31,0,0,1,.79-2.94,6.45,6.45,0,0,0,.63-4,5.31,5.31,0,0,0-3.2-4.67,1.33,1.33,0,0,1-.94-1.53c0-.78,0-1.69,0-2.22-.61,0-1.74,0-3.89,0V130A.57.57,0,0,1,124.33,130.16Z" fill="#231f20"/><rect x="106.18" y="134.24" width="11.63" height="19.15" fill="#fff"/><path d="M117.8,153.89H106.18a.5.5,0,0,1-.5-.5V134.24a.5.5,0,0,1,.5-.5H117.8a.5.5,0,0,1,.5.5v19.15A.5.5,0,0,1,117.8,153.89Zm-11.12-1H117.3V134.74H106.68Z" fill="#231f20"/><rect x="94.28" y="140.4" width="113.97" height="3.54" rx="1.37" fill="#68e1fd"/><polygon points="195.86 190.49 106.68 190.49 99.67 143.22 202.86 143.22 195.86 190.49" fill="#68e1fd"/><path d="M100.69,135.27s4.09,3.19,2.66,4.42-7.7.71-7.7.71-4.22,1.59-3.19,2.82,7.81,1.43,7.6,2.45-1.75,1.54-5,1.9c-7.46.83-11.55-4.88-10.12-7.54a50.28,50.28,0,0,1,9-10.77c3.28-2.82,13.56-14.72,14.79-15.48s14.36-27.32,14.36-27.32L134,91.74s-12,29.71-14.28,31.55S100.69,135.27,100.69,135.27Z" fill="#fff"/><path d="M93.56,148.17a10,10,0,0,1-8.45-4,4.28,4.28,0,0,1-.65-4.34,50.44,50.44,0,0,1,9.16-10.91c1.72-1.48,5.42-5.53,8.7-9.1,3.52-3.85,5.55-6,6.16-6.43,1-.86,9.22-17.09,14.17-27.11a.53.53,0,0,1,.69-.24l10.88,5.28a.52.52,0,0,1,.25.66C133.23,95,122.33,121.82,120,123.69c-2,1.67-15.35,9.77-18.46,11.65.94.81,2.56,2.39,2.59,3.65a1.36,1.36,0,0,1-.49,1.1c-1.48,1.27-6.89.92-8,.84-1.32.51-2.78,1.36-2.91,1.85,0,0,0,.05,0,.11.4.47,2.53.86,3.94,1.12,2.14.4,3.28.63,3.66,1.19a.73.73,0,0,1,.12.57c-.29,1.45-2.31,2-5.48,2.31A13.61,13.61,0,0,1,93.56,148.17Zm29.79-61C120,93.9,110.25,113.47,109,114.23c-.52.31-3.28,3.32-5.94,6.24-3.29,3.59-7,7.66-8.79,9.18a50.05,50.05,0,0,0-8.92,10.62,3.33,3.33,0,0,0,.59,3.27c1.37,2,4.46,4,9,3.52,1.93-.22,4.14-.56,4.54-1.34A15.85,15.85,0,0,0,96.6,145c-2.36-.44-3.95-.77-4.54-1.48a1.15,1.15,0,0,1-.24-1c.34-1.29,3.1-2.39,3.65-2.6a.45.45,0,0,1,.23,0c2.33.19,6.39.21,7.31-.59a.34.34,0,0,0,.13-.28c0-.83-1.63-2.45-2.76-3.34a.5.5,0,0,1-.2-.44.51.51,0,0,1,.25-.41c.16-.1,16.76-10.14,19-11.94,1.56-1.27,9.12-19,13.94-30.9Z" fill="#231f20"/><path d="M138.57,78.44s-8.06-.16-12.89,2.37-14.93,25-14.93,25l20.34,11.3Z" fill="#231f20"/><path d="M131.09,117.55a.53.53,0,0,1-.24-.06l-20.34-11.3a.5.5,0,0,1-.21-.64c.41-.92,10.23-22.59,15.15-25.18s12.8-2.43,13.13-2.42a.51.51,0,0,1,.38.18.5.5,0,0,1,.1.41l-7.48,38.61a.48.48,0,0,1-.49.4Zm-19.69-12,19.33,10.74L138,78.94c-1.94,0-8.14.26-12,2.31C121.65,83.49,112.8,102.48,111.4,105.55Z" fill="#231f20"/><path d="M201.7,135.27s-4.08,3.19-2.65,4.42,7.69.71,7.69.71,4.22,1.59,3.2,2.82-7.81,1.43-7.61,2.45,1.75,1.54,5,1.9c7.46.83,11.55-4.88,10.11-7.54a49.92,49.92,0,0,0-9-10.77c-3.28-2.82-13.56-14.72-14.79-15.48s-14.37-27.32-14.37-27.32l-10.87,5.28s12,29.71,14.27,31.55S201.7,135.27,201.7,135.27Z" fill="#fff"/><path d="M208.84,148.17a13.61,13.61,0,0,1-1.53-.09c-3.17-.35-5.19-.86-5.48-2.31a.73.73,0,0,1,.12-.57c.38-.56,1.51-.79,3.66-1.19,1.41-.26,3.54-.65,3.93-1.12.05-.06.05-.08,0-.11-.13-.49-1.59-1.34-2.91-1.85-1.06.08-6.47.43-8-.84a1.38,1.38,0,0,1-.48-1.1c0-1.26,1.64-2.84,2.58-3.65-3.1-1.88-16.42-10-18.45-11.65-2.29-1.87-13.2-28.7-14.43-31.76a.52.52,0,0,1,.25-.66L179.06,86a.53.53,0,0,1,.69.24c4.95,10,13.18,26.25,14.19,27.13.59.36,2.61,2.56,6.14,6.41,3.27,3.57,7,7.62,8.7,9.1a51,51,0,0,1,9.16,10.91,4.28,4.28,0,0,1-.65,4.34A10,10,0,0,1,208.84,148.17Zm-6-2.45c.4.78,2.61,1.12,4.54,1.34,4.55.51,7.63-1.49,9-3.52a3.34,3.34,0,0,0,.6-3.27,50.08,50.08,0,0,0-8.93-10.62c-1.76-1.52-5.49-5.59-8.78-9.18-2.67-2.92-5.43-5.93-5.94-6.24-1.23-.76-11-20.34-14.33-27.08l-10,4.84c4.83,11.9,12.39,29.63,13.95,30.9,2.2,1.8,18.79,11.84,19,11.94a.51.51,0,0,1,.25.41.53.53,0,0,1-.2.44c-1.13.89-2.74,2.51-2.76,3.34a.32.32,0,0,0,.13.28c.92.79,5,.78,7.31.59a.46.46,0,0,1,.23,0c.55.21,3.31,1.31,3.65,2.6a1.12,1.12,0,0,1-.25,1c-.58.71-2.17,1-4.53,1.48A15.85,15.85,0,0,0,202.89,145.72Z" fill="#231f20"/><path d="M163.83,78.44s8.06-.16,12.88,2.37,14.93,25,14.93,25l-20.34,11.3Z" fill="#231f20"/><path d="M171.3,117.55a.52.52,0,0,1-.21,0,.5.5,0,0,1-.27-.36l-7.48-38.61a.5.5,0,0,1,.1-.41.49.49,0,0,1,.38-.18c.33,0,8.24-.14,13.12,2.42s14.74,24.26,15.16,25.18a.51.51,0,0,1-.21.64l-20.34,11.3A.54.54,0,0,1,171.3,117.55Zm-6.87-38.61,7.23,37.35L191,105.55c-1.41-3.07-10.25-22.06-14.52-24.3C172.57,79.2,166.36,79,164.43,78.94Z" fill="#231f20"/><path d="M197.86,145.89H103.24a.5.5,0,1,1,0-1h94.62a.5.5,0,1,1,0,1Z" fill="#231f20"/><path d="M148.11,153.39c1.65.33,2.56,1.64,3.6,2.74L147.54,163l-5.3-3.12.18-.3c1.08-1.71,2.17-3.4,3.23-5.12a2.18,2.18,0,0,1,1.53-1.06.66.66,0,0,0,.15-.05Z" fill="#fff"/><path d="M156.18,177.79l.12,2.53-.17-.22c-1.12-1.78-2.23-3.57-3.35-5.34a.32.32,0,0,1,0-.37l3.1-5.3.14-.21c0,.65.05,1.22.08,1.8,0,.24,0,.48,0,.71a.28.28,0,0,0,.16.2,19.2,19.2,0,0,0,6.46-.29c.46-.11.9-.31,1.39-.48,0,.09-.06.16-.09.22q-1.46,2.79-2.92,5.58a1.79,1.79,0,0,1-1.52,1c-1,.08-1.93.12-2.9.17Z" fill="#fff"/><path d="M147.52,168.59l-2.29-1.43a16.32,16.32,0,0,0-3.91,7l-.17-.28-2.91-5.46a1.64,1.64,0,0,1,0-1.62c.53-1,1.11-1.89,1.67-2.83a2.1,2.1,0,0,1,.19-.3l-2.1-1.29v0a2.8,2.8,0,0,1,.29,0l6.16.23c.15,0,.28,0,.36.19l2.67,5.64A1.26,1.26,0,0,1,147.52,168.59Z" fill="#fff"/><path d="M152,161.71l2.36-1.35a16.94,16.94,0,0,0-4.37-6.78h6.53a1.78,1.78,0,0,1,1.59.94c.53.87,1,1.76,1.56,2.64l.17.28,2.21-1.29-.15.28-3.17,5.38a.34.34,0,0,1-.36.21l-6.19-.29Z" fill="#fff"/><path d="M150.81,171.9l-.25,6.14-1.37-.08-5.19-.37a1.85,1.85,0,0,1-1.18-.52,2.89,2.89,0,0,1-.89-2.84c.21-.94.51-1.86.75-2.74Z" fill="#fff"/><path d="M156.86,164.28l5.23-3.25c.06.09.12.17.17.26,1,1.72,2,3.45,3,5.18a2.49,2.49,0,0,1-.49,3.18,5.12,5.12,0,0,1-2.19,1.11c-.45.14-.91.26-1.36.36A.3.3,0,0,1,161,171c-1.34-2.18-2.67-4.37-4-6.56Z" fill="#fff"/><path d="M161.26,137.44h-12a.5.5,0,0,1-.5-.5.5.5,0,0,1,.5-.5h12a.5.5,0,0,1,.5.5A.51.51,0,0,1,161.26,137.44Z" fill="#d1d3d4"/><path d="M130.54,138.4a.51.51,0,0,1-.5-.45,5.81,5.81,0,0,0-2.31-4.35.49.49,0,0,1-.15-.68.49.49,0,0,1,.68-.17,6.82,6.82,0,0,1,2.78,5.1.5.5,0,0,1-.45.55Z" fill="#d1d3d4"/><path d="M115.84,137.44h-8.51a.5.5,0,0,1-.5-.5.5.5,0,0,1,.5-.5h8.51a.5.5,0,0,1,.5.5A.5.5,0,0,1,115.84,137.44Z" fill="#d1d3d4"/><path d="M168.41,136.55a.51.51,0,0,1-.42-.21.52.52,0,0,1,.13-.7c.16-.11.3-.2,5.21-.09a.5.5,0,0,1,.49.52.51.51,0,0,1-.51.48c-2.07-.05-4.38-.06-4.75,0A.39.39,0,0,1,168.41,136.55Z" fill="#d1d3d4"/><path d="M269.69,174.64a13.87,13.87,0,0,1,1-12.3c2.27-3.94,7-6.31,8.91-10.25,2.32-4.71.64-9.82.26-14.69a3.81,3.81,0,0,1,.26-2,2.61,2.61,0,0,1,2.71-1.24,4.31,4.31,0,0,1,2.61,1.69c.49.61,1,1.39,1.8,1.37s1.18-.68,1.61-1.24a10.18,10.18,0,0,1,3.59-2.92,2.2,2.2,0,0,1,1.2-.29,1.68,1.68,0,0,1,1.31,1.32,4.85,4.85,0,0,1,0,2,8.07,8.07,0,0,1,4.1-.23c1.32.4,2.46,1.79,2.07,3.12a4.35,4.35,0,0,1-1.47,1.84c-1.4,1.27-4.3,3.69-3.93,5.57s3.39,4.71,4.43,6.44a41.32,41.32,0,0,1,5.44,14,10.07,10.07,0,0,1-1.42,7.59c-2.58,3.58-7.06,4-11.06,4.37a107.9,107.9,0,0,1-16,.42C273.53,179,271.12,178.05,269.69,174.64Z" fill="#fff"/><path d="M282.05,179.83c-1.69,0-3.36,0-5-.13-3.07-.15-6.15-.85-7.84-4.87h0a14.37,14.37,0,0,1,1-12.74,22.75,22.75,0,0,1,4.48-5.07,18.92,18.92,0,0,0,4.41-5.15c1.69-3.43,1.16-7.18.65-10.8-.17-1.19-.34-2.43-.43-3.63a4.17,4.17,0,0,1,.3-2.28,3.11,3.11,0,0,1,3.23-1.5,4.86,4.86,0,0,1,2.94,1.86l.14.19c.39.5.78,1,1.24,1s.81-.5,1.18-1a10.64,10.64,0,0,1,3.82-3.14,2.77,2.77,0,0,1,1.48-.34,2.19,2.19,0,0,1,1.74,1.7,4.15,4.15,0,0,1,.07,1.44,7.49,7.49,0,0,1,3.65-.06c1.56.47,2.89,2.08,2.41,3.74a4.53,4.53,0,0,1-1.52,2l-.4.37c-1.32,1.16-3.76,3.34-3.47,4.81.2,1.08,1.49,2.63,2.62,4a21.66,21.66,0,0,1,1.75,2.3,41.59,41.59,0,0,1,5.5,14.2,10.56,10.56,0,0,1-1.5,8c-2.7,3.73-7.28,4.17-11.32,4.56h-.1C289.34,179.64,285.64,179.83,282.05,179.83Zm-11.9-5.39c1.39,3.32,3.78,4.11,7,4.27a109.89,109.89,0,0,0,15.9-.43h.11c3.83-.37,8.17-.79,10.6-4.15a9.58,9.58,0,0,0,1.33-7.21,40.82,40.82,0,0,0-5.38-13.86,20.8,20.8,0,0,0-1.66-2.17c-1.27-1.53-2.58-3.11-2.84-4.44-.39-2,2.13-4.27,3.79-5.75l.4-.36a3.81,3.81,0,0,0,1.23-1.53,2.3,2.3,0,0,0-1.74-2.5,7.61,7.61,0,0,0-3.84.24.49.49,0,0,1-.45-.12.49.49,0,0,1-.15-.44,4.61,4.61,0,0,0,0-1.77,1.21,1.21,0,0,0-.89-1,1.75,1.75,0,0,0-.93.24,9.87,9.87,0,0,0-3.41,2.78c-.51.66-1.08,1.4-2,1.43s-1.57-.76-2.06-1.38l-.14-.18a3.8,3.8,0,0,0-2.3-1.5,2.13,2.13,0,0,0-2.19,1,3.51,3.51,0,0,0-.2,1.75c.09,1.17.26,2.39.43,3.57.53,3.77,1.08,7.68-.75,11.38a20,20,0,0,1-4.62,5.44,22,22,0,0,0-4.29,4.84,13.31,13.31,0,0,0-1,11.85Z" fill="#d1d3d4"/><path d="M286.8,149.62c-1.35,0-2.67-.11-3.89-.22a.5.5,0,0,1-.45-.55.49.49,0,0,1,.54-.45,27.52,27.52,0,0,0,6.1.08,9.13,9.13,0,0,0,5.27-2.41.49.49,0,0,1,.7,0,.5.5,0,0,1,0,.71,10.08,10.08,0,0,1-5.84,2.7A18.37,18.37,0,0,1,286.8,149.62Z" fill="#d1d3d4"/><path d="M289.71,154.6a.48.48,0,0,1-.45-.29c-.51-1.07-1-2.17-1.46-3.27L285.07,154a.5.5,0,0,1-.73-.69l3.26-3.49a.49.49,0,0,1,.45-.16.52.52,0,0,1,.38.31c.54,1.31,1.12,2.64,1.73,3.94a.49.49,0,0,1-.24.66A.41.41,0,0,1,289.71,154.6Z" fill="#d1d3d4"/><path d="M284.75,171.6a16.79,16.79,0,0,0-1.2-14.89,36.08,36.08,0,0,0-7.26-8.48c-3-2.75-7-5.66-5.21-10.19.8-2,2.2-3.73,2.73-5.81.33-1.29.19-2.89-.92-3.63s-2.86-.16-4.19.48-3.05,1.18-4.17.21-1.1-3.52-2.69-3.87-2.5,1.77-4,2c-1.95.31-3.38-2.49-5.32-2.17-3.52.6,0,7.76.74,9.26a3.31,3.31,0,0,1,.49,1.68,3.16,3.16,0,0,1-.78,1.57c-5.59,7.36-10,15.11-11.64,24.37a12.16,12.16,0,0,0,1.72,9.19c3.13,4.34,8.56,4.83,13.4,5.3a133.15,133.15,0,0,0,19.36.51C280.1,176.93,283,175.74,284.75,171.6Z" fill="#fff"/><path d="M269.77,177.79c-4.35,0-8.83-.23-13.39-.67h-.12c-4.88-.47-10.4-1-13.64-5.48a12.71,12.71,0,0,1-1.8-9.58c1.44-8.21,5.06-15.79,11.73-24.58a2.81,2.81,0,0,0,.68-1.31,2.74,2.74,0,0,0-.42-1.38l-.07-.14c-2.1-4.35-2.74-7.2-2-8.73a2.16,2.16,0,0,1,1.62-1.14,4.13,4.13,0,0,1,3.05,1.17,3.36,3.36,0,0,0,2.28,1,3.69,3.69,0,0,0,1.57-.94,3.09,3.09,0,0,1,2.63-1.06c1.17.25,1.6,1.34,2,2.31a4.35,4.35,0,0,0,.94,1.67c.72.62,1.91.52,3.62-.3,1.1-.51,3.13-1.48,4.69-.43,1.38.92,1.46,2.82,1.12,4.16a15.37,15.37,0,0,1-1.59,3.58,21.52,21.52,0,0,0-1.16,2.3c-1.51,3.75,1.38,6.32,4.18,8.81l.91.82a36.77,36.77,0,0,1,7.36,8.6,17.23,17.23,0,0,1,1.22,15.34h0c-2,4.82-5.71,5.66-9.39,5.84Q272.83,177.79,269.77,177.79Zm-17-52a.93.93,0,0,0-.23,0,1.12,1.12,0,0,0-.9.61c-.43.83-.44,2.86,2,7.83l0,.1a3.76,3.76,0,0,1,.54,1.94,3.7,3.7,0,0,1-.88,1.83c-6.58,8.66-10.13,16.11-11.54,24.15a11.69,11.69,0,0,0,1.62,8.82c3,4.12,8.26,4.63,12.92,5.08h.13a134.16,134.16,0,0,0,19.29.51c3.88-.19,6.81-1.16,8.52-5.23h0A16.27,16.27,0,0,0,283.12,157,35.73,35.73,0,0,0,276,148.6l-.91-.82c-2.91-2.58-6.21-5.52-4.43-9.93a22.6,22.6,0,0,1,1.21-2.41,14.25,14.25,0,0,0,1.49-3.33c.29-1.11.18-2.5-.71-3.09s-2.34-.14-3.7.51c-2.11,1-3.65,1.05-4.7.14a4.93,4.93,0,0,1-1.22-2c-.38-1-.66-1.58-1.26-1.71s-1.15.33-1.78.86a4.49,4.49,0,0,1-2.05,1.15,4.1,4.1,0,0,1-3-1.17A3.89,3.89,0,0,0,252.81,125.74Zm31.94,45.86h0Z" fill="#d1d3d4"/><path d="M264,141.19a22.42,22.42,0,0,1-2.94-.18,12.11,12.11,0,0,1-7-3.24.5.5,0,1,1,.72-.7,11.1,11.1,0,0,0,6.44,3,33.22,33.22,0,0,0,7.41-.1.5.5,0,0,1,.09,1C267.25,141.05,265.65,141.19,264,141.19Z" fill="#d1d3d4"/><path d="M260.49,147.23a.54.54,0,0,1-.21,0,.5.5,0,0,1-.24-.67c.73-1.56,1.44-3.17,2.1-4.78a.51.51,0,0,1,.38-.3.51.51,0,0,1,.45.15l3.95,4.24a.5.5,0,0,1,0,.71.51.51,0,0,1-.71,0l-3.42-3.67c-.58,1.38-1.19,2.76-1.82,4.11A.52.52,0,0,1,260.49,147.23Z" fill="#d1d3d4"/><path d="M254.62,151.1c-1.66-2.18-5.44-.13-6.06-3.21l-2.84-14.27-2.07.42-1.68.33-2.07.41,2.84,14.27c.62,3.08-3.67,2.64-4.36,5.29S242,174.58,242,174.58l17.07-3.4S256.28,153.28,254.62,151.1Z" fill="#fff"/><path d="M242,175.08a.5.5,0,0,1-.48-.38c-.44-1.81-4.31-17.79-3.6-20.49a4.42,4.42,0,0,1,2.57-2.61c1.31-.71,2-1.18,1.78-2.46l-2.85-14.26a.51.51,0,0,1,.4-.59l5.82-1.16a.5.5,0,0,1,.59.39l2.84,14.27c.26,1.28,1.11,1.43,2.58,1.59A4.42,4.42,0,0,1,255,150.8h0c1.68,2.21,4.24,18.45,4.53,20.3a.51.51,0,0,1-.4.57l-17.07,3.4Zm-1.5-39.9L243.23,149c.41,2.06-1.08,2.88-2.28,3.53-.94.52-1.83,1-2.09,2-.52,2,2.25,14.35,3.5,19.53l16.13-3.22c-.83-5.26-3-17.72-4.27-19.38h0a3.6,3.6,0,0,0-2.69-1c-1.36-.14-3.05-.32-3.46-2.39l-2.75-13.77Z" fill="#d1d3d4"/><rect x="225.84" y="154.02" width="90.09" height="8.6" rx="3.89" fill="#68e1fd"/><path d="M293.17,270.38H248.6a7.34,7.34,0,0,1-7.31-6.68l-9.07-101.08h77.33L300.48,263.7A7.34,7.34,0,0,1,293.17,270.38Z" fill="#68e1fd"/><path d="M265.86,190.15c2.25.45,3.49,2.23,4.9,3.73l-5.68,9.4-7.2-4.25c.09-.15.16-.28.24-.4,1.46-2.32,2.95-4.63,4.39-7a3,3,0,0,1,2.09-1.44,1.72,1.72,0,0,0,.21-.07Z" fill="#fff"/><path d="M276.84,223.35l.17,3.46c-.11-.15-.18-.23-.23-.31l-4.56-7.27a.44.44,0,0,1,0-.51l4.22-7.21c0-.07.09-.13.19-.27,0,.87.07,1.65.1,2.44,0,.32,0,.65.05,1,0,.1.14.26.22.26a26,26,0,0,0,8.79-.38c.63-.16,1.23-.42,1.89-.66,0,.13-.08.21-.12.29q-2,3.81-4,7.6a2.44,2.44,0,0,1-2.07,1.31c-1.31.11-2.63.16-3.95.24Z" fill="#fff"/><path d="M265.06,210.84l-3.12-2a22.24,22.24,0,0,0-5.32,9.57c-.09-.15-.17-.26-.23-.38-1.32-2.47-2.65-5-4-7.43a2.26,2.26,0,0,1-.06-2.21c.72-1.31,1.51-2.57,2.28-3.85.07-.13.15-.26.25-.41L252,202.42l0-.07h.39l8.39.33c.21,0,.38,0,.49.25q1.82,3.84,3.64,7.68S265,210.7,265.06,210.84Z" fill="#fff"/><path d="M271.17,201.47l3.22-1.83a23.25,23.25,0,0,0-5.95-9.24h.45l8.43,0a2.45,2.45,0,0,1,2.17,1.28c.71,1.19,1.41,2.39,2.12,3.59l.23.38,3-1.75-.2.38q-2.16,3.66-4.31,7.32a.49.49,0,0,1-.5.29l-8.42-.4Z" fill="#fff"/><path d="M269.54,215.34l-.34,8.36c-.65,0-1.26-.07-1.87-.12-2.35-.16-4.7-.34-7.06-.49a2.48,2.48,0,0,1-1.61-.71,3.94,3.94,0,0,1-1.21-3.87c.28-1.28.69-2.53,1-3.73Z" fill="#fff"/><path d="M277.77,205l7.12-4.43c.08.13.16.24.22.36q2.07,3.53,4.12,7a3.4,3.4,0,0,1-.66,4.33,7.33,7.33,0,0,1-3,1.52q-.91.27-1.86.48a.38.38,0,0,1-.34-.12c-1.83-3-3.64-5.95-5.46-8.93C277.88,205.16,277.84,205.08,277.77,205Z" fill="#fff"/><path d="M301.34,163.11H232.22a.5.5,0,0,1,0-1h69.12a.5.5,0,1,1,0,1Z" fill="#231f20"/><path d="M246.27,136.4c-.61-.05-5.85,1-5.85,1" fill="#fff"/><path d="M240.42,137.92a.5.5,0,0,1-.1-1,58.34,58.34,0,0,1,6-1,.51.51,0,0,1,.45.55.5.5,0,0,1-.54.45c-.39,0-3.2.5-5.71,1Z" fill="#d1d3d4"/></g></svg>