<svg xmlns="http://www.w3.org/2000/svg" viewBox="0 0 400 300"><g id="_245_recycling_flatline" data-name="#245_recycling_flatline"><path d="M221.43,208A4.36,4.36,0,0,1,220,204.7a2.19,2.19,0,0,0-.19-1.28c-.39-.54-1.21-.43-1.85-.27a5.24,5.24,0,0,0-2.06.87,1.73,1.73,0,0,0-.58,2,2.53,2.53,0,0,0,1,.92,14.87,14.87,0,0,1,3.17,2.44,4.87,4.87,0,0,1,1.39,3.65c-.2,1.81-1.73,3.65-.83,5.23,1,1.81,3.75,1.23,4.91,2.87.56.8.23,2.2,1.06,2.82a2.19,2.19,0,0,0,2.43-.28c.93-1.11-.44-3.35-.66-4.54-.42-2.34,1.35-4.35.51-6.61C227.15,209.52,223.53,209.83,221.43,208Z" fill="#fff"/><path d="M226.93,224.69a2.18,2.18,0,0,1-1.25-.34,2.66,2.66,0,0,1-.86-1.86,2.71,2.71,0,0,0-.31-1.07,3.75,3.75,0,0,0-2.14-1.15,4.25,4.25,0,0,1-2.8-1.76c-.69-1.21-.22-2.47.24-3.69a7.71,7.71,0,0,0,.53-1.85,4.36,4.36,0,0,0-1.26-3.25,14.46,14.46,0,0,0-3-2.29l-.12-.07a3,3,0,0,1-1.15-1.12,2.24,2.24,0,0,1,.71-2.61,5.59,5.59,0,0,1,2.26-1c.43-.11,1.72-.44,2.37.46a2.1,2.1,0,0,1,.29,1.39v.18a3.83,3.83,0,0,0,1.27,2.89h0a8.7,8.7,0,0,0,2.78,1.43c1.69.63,3.44,1.29,4.19,3.32a6,6,0,0,1-.15,3.84,6.55,6.55,0,0,0-.34,2.86,8.07,8.07,0,0,0,.38,1.16c.45,1.24,1,2.78.17,3.79A2.53,2.53,0,0,1,226.93,224.69Zm-8.08-21.17a2.88,2.88,0,0,0-.77.12,4.65,4.65,0,0,0-1.87.76,1.27,1.27,0,0,0-.46,1.4,2.28,2.28,0,0,0,.8.72l.12.07a14.93,14.93,0,0,1,3.16,2.46,5.29,5.29,0,0,1,1.5,4,8.43,8.43,0,0,1-.58,2.09c-.41,1.1-.77,2-.31,2.85a3.34,3.34,0,0,0,2.22,1.29,4.62,4.62,0,0,1,2.67,1.53,3.4,3.4,0,0,1,.48,1.49c.09.53.16,1,.47,1.21a1.75,1.75,0,0,0,1.75-.19c.47-.57,0-1.8-.35-2.8a8.32,8.32,0,0,1-.42-1.33,7.25,7.25,0,0,1,.35-3.3,5.21,5.21,0,0,0,.19-3.23c-.6-1.6-2.06-2.15-3.61-2.73a9.63,9.63,0,0,1-3.09-1.62,4.84,4.84,0,0,1-1.61-3.65v-.2a1.4,1.4,0,0,0-.1-.78A.64.64,0,0,0,218.85,203.52Z" fill="#d1d3d4"/><path d="M209.7,216.51a5.09,5.09,0,0,0,.65-2.9c-.34-2.07-2.77-3-4.84-3.34-.83-.14-1.66-.25-2.49-.34a2.85,2.85,0,0,1-1.16-.3,2.07,2.07,0,0,1-.7-.82c-.86-1.51-1-3.3-1.56-4.95s-1.82-3.29-3.55-3.34a4.29,4.29,0,0,0-2.35.78c-.93.59-1.85,1.61-1.53,2.67s1.48,1.37,2.46,1.75c1.61.62,3.21,2,3,3.71-.11,1.16-1,2.22-.76,3.36s1.83,1.74,3.11,2,2.82.68,3.16,1.94a5.37,5.37,0,0,1,0,1.33,5.14,5.14,0,0,0,2.74,4.68c1.27.6,4.09.63,4.09-1,0-.52-1.11-1.42-1.22-2.15A5.9,5.9,0,0,1,209.7,216.51Z" fill="#fff"/><path d="M207.89,223.59a5.4,5.4,0,0,1-2.13-.43,5.58,5.58,0,0,1-3-5.13v-.32a3.12,3.12,0,0,0-.05-.88c-.26-1-1.7-1.38-2.76-1.57-.76-.14-3.1-.57-3.51-2.36a3.76,3.76,0,0,1,.38-2.27,4.52,4.52,0,0,0,.37-1.25c.14-1.43-1.26-2.63-2.72-3.19l-.24-.1c-1-.37-2.18-.82-2.52-2-.4-1.32.64-2.54,1.75-3.23a4.69,4.69,0,0,1,2.62-.86c2.06.06,3.45,2,4,3.68.21.63.36,1.28.51,1.91a11.6,11.6,0,0,0,1,3,1.67,1.67,0,0,0,.53.63,2.31,2.31,0,0,0,.93.23c.86.09,1.71.21,2.54.35,3.08.53,4.94,1.85,5.25,3.74a5.46,5.46,0,0,1-.69,3.2h0L210,217a4.81,4.81,0,0,0-.68,2.47,2.91,2.91,0,0,0,.58,1,2.33,2.33,0,0,1,.64,1.26,1.62,1.62,0,0,1-.8,1.43A3.49,3.49,0,0,1,207.89,223.59ZM196,201a3.86,3.86,0,0,0-2,.7c-.76.48-1.56,1.32-1.32,2.1s1.07,1,1.91,1.34l.25.09c1.81.7,3.55,2.28,3.36,4.23a5.55,5.55,0,0,1-.44,1.52,3,3,0,0,0-.34,1.67c.18.78,1.07,1.3,2.72,1.6.85.16,3.09.56,3.55,2.3a4,4,0,0,1,.08,1.18V218a4.64,4.64,0,0,0,2.46,4.22,4,4,0,0,0,3,0,.65.65,0,0,0,.33-.59,3.51,3.51,0,0,0-.44-.65,3.34,3.34,0,0,1-.77-1.43,5.54,5.54,0,0,1,.77-3l.13-.28a4.79,4.79,0,0,0,.61-2.61c-.32-1.94-2.92-2.67-4.44-2.93-.81-.13-1.64-.25-2.46-.34a3.25,3.25,0,0,1-1.36-.36,2.71,2.71,0,0,1-.88-1,12.27,12.27,0,0,1-1.1-3.22,17.84,17.84,0,0,0-.49-1.81c-.46-1.36-1.55-3-3.1-3Zm13.73,15.49h0Z" fill="#d1d3d4"/><polygon points="215.24 272.48 213.13 221.16 201.46 221.16 199.34 272.48 215.24 272.48" fill="#fff"/><path d="M215.24,273h-15.9a.51.51,0,0,1-.36-.15.47.47,0,0,1-.14-.37L201,221.14a.5.5,0,0,1,.5-.48h11.67a.5.5,0,0,1,.5.48l2.11,51.32a.47.47,0,0,1-.14.37A.51.51,0,0,1,215.24,273Zm-15.38-1h14.86l-2.07-50.32H201.93Z" fill="#231f20"/><path d="M212.62,226.71H201.25a.5.5,0,0,1-.5-.5.5.5,0,0,1,.5-.5h11.37a.5.5,0,0,1,.5.5A.5.5,0,0,1,212.62,226.71Z" fill="#231f20"/><polygon points="233.83 272.48 231.71 221.16 220.04 221.16 217.92 272.48 233.83 272.48" fill="#fff"/><path d="M233.83,273H217.92a.5.5,0,0,1-.5-.52l2.12-51.32a.5.5,0,0,1,.5-.48h11.67a.5.5,0,0,1,.5.48l2.12,51.32a.5.5,0,0,1-.5.52Zm-15.39-1H233.3l-2.07-50.32H220.52Z" fill="#231f20"/><path d="M231.2,226.71H219.83a.5.5,0,0,1-.5-.5.5.5,0,0,1,.5-.5H231.2a.5.5,0,0,1,.5.5A.5.5,0,0,1,231.2,226.71Z" fill="#231f20"/><polygon points="193.02 256.19 193.02 245.63 159.64 258.02 159.64 277.73 188.11 277.73 193.02 277.73 221.5 277.73 221.5 245.63 193.02 256.19" fill="#fff"/><path d="M221.5,278.23H159.64a.5.5,0,0,1-.5-.5V258a.5.5,0,0,1,.33-.47l33.38-12.39a.48.48,0,0,1,.46.06.51.51,0,0,1,.21.41v9.85l27.8-10.32a.47.47,0,0,1,.46.06.49.49,0,0,1,.22.41v32.1A.51.51,0,0,1,221.5,278.23Zm-61.36-1H221V246.35l-27.8,10.31a.5.5,0,0,1-.46-.05.51.51,0,0,1-.22-.42v-9.84l-32.38,12Z" fill="#231f20"/><rect x="171.57" y="266.09" width="11.64" height="11.64" fill="#fff"/><path d="M183.21,278.23H171.57a.5.5,0,0,1-.5-.5V266.09a.5.5,0,0,1,.5-.5h11.64a.5.5,0,0,1,.5.5v11.64A.51.51,0,0,1,183.21,278.23Zm-11.14-1h10.64V266.59H172.07Z" fill="#231f20"/><rect x="198.6" y="266.09" width="11.64" height="11.64" fill="#fff"/><path d="M210.23,278.23H198.6a.5.5,0,0,1-.5-.5V266.09a.5.5,0,0,1,.5-.5h11.63a.5.5,0,0,1,.5.5v11.64A.5.5,0,0,1,210.23,278.23Zm-11.13-1h10.63V266.59H199.1Z" fill="#231f20"/><rect x="221.5" y="245.63" width="18.98" height="32.1" fill="#231f20"/><path d="M240.48,278.23h-19a.5.5,0,0,1-.5-.5v-32.1a.5.5,0,0,1,.5-.5h19a.5.5,0,0,1,.5.5v32.1A.51.51,0,0,1,240.48,278.23Zm-18.48-1h18v-31.1H222Z" fill="#231f20"/><path d="M128.92,210s11.18,13.34,19.54,16.23l-3.62,5.07s-14.24-3.44-24.7-12.62l-5.72,5.43v-20l20.13.76Z" fill="#68e1fd"/><path d="M131.6,94.71s-12.59,12-14.94,20.54L111.37,112s2.52-14.43,11-25.46l-5.78-5.36,20-1.29.53,20.14Z" fill="#68e1fd"/><path d="M262.62,101.15s-11.18-13.34-19.54-16.23l3.62-5.07s14.24,3.45,24.7,12.62l5.72-5.42v20L257,106.31Z" fill="#68e1fd"/><path d="M259.94,216.45s12.59-12,14.94-20.54l5.29,3.28s-2.52,14.44-11,25.46L275,230l-20,1.28-.53-20.13Z" fill="#68e1fd"/><polygon points="51.83 164.93 51.83 142.06 130.8 142.06 130.8 164.93 98.21 189.06 51.83 164.93" fill="#fff"/><path d="M98.21,189.56a.46.46,0,0,1-.23-.06L51.6,165.38a.52.52,0,0,1-.27-.45V142.06a.5.5,0,0,1,.5-.5h79a.5.5,0,0,1,.5.5v22.87a.51.51,0,0,1-.2.4L98.51,189.46A.47.47,0,0,1,98.21,189.56ZM52.33,164.63l45.83,23.84,32.14-23.79V142.56h-78Z" fill="#231f20"/><path d="M130.8,142.06,98.21,166.19s-6.14-3.27-14-7.4c-13.69-7.24-32.52-17.13-32.42-16.73.16.63,39.49-18,39.49-18Z" fill="#fff"/><path d="M98.21,166.69a.46.46,0,0,1-.23-.06l-14-7.4c-27.38-14.48-31.69-16.51-32.23-16.68a.2.2,0,0,1-.16,0,.53.53,0,0,1-.28-.34.5.5,0,0,1,.18-.52.3.3,0,0,1,.31-.06v0c1.41-.21,24.25-10.87,39.26-18a.51.51,0,0,1,.42,0l39.49,18a.52.52,0,0,1,.29.41.53.53,0,0,1-.2.45L98.51,166.59A.54.54,0,0,1,98.21,166.69Zm-45-24.58c2.69,1.21,10.1,5,31.31,16.24,6.84,3.61,12.39,6.57,13.68,7.25l31.65-23.44-38.5-17.57C64.77,137.18,56.1,141,53.18,142.11Z" fill="#231f20"/><path d="M130.8,142.06l-24.11,17.85-22.44-1.12s-32.52-17.13-32.42-16.73c.16.63,39.49-18,39.49-18Z" fill="#fff"/><path d="M106.69,160.41h0l-22.43-1.12a.73.73,0,0,1-.21-.06C71.69,152.74,53,143,51.77,142.55a.22.22,0,0,1-.14,0,.53.53,0,0,1-.28-.34.5.5,0,0,1,.18-.52s.11-.09.31,0v0c1.41-.21,24.25-10.87,39.26-18a.51.51,0,0,1,.42,0l39.49,18a.52.52,0,0,1,.29.41.53.53,0,0,1-.2.45L107,160.31A.49.49,0,0,1,106.69,160.41Zm-22.3-2.12,22.14,1.11,23.29-17.24-38.5-17.57C64.64,137.24,56,141,53.14,142.13,55.81,143.34,63.18,147.12,84.39,158.29Z" fill="#231f20"/><path d="M83.59,158.44s17.13,3.76,23.45,1.21c0,0-6.43-5-7.89-8.82C99.15,150.83,91.43,158.42,83.59,158.44Z" fill="#231f20"/><path d="M100.58,161a95.78,95.78,0,0,1-17.1-2.11.52.52,0,0,1-.39-.55.51.51,0,0,1,.5-.44c7.54,0,15.13-7.39,15.21-7.46a.52.52,0,0,1,.46-.14.52.52,0,0,1,.36.32c1.39,3.68,7.66,8.54,7.72,8.59a.48.48,0,0,1,.19.47.47.47,0,0,1-.3.39A18.73,18.73,0,0,1,100.58,161Zm-13.77-2.49c4.9.89,14.36,2.28,19.2.92-1.62-1.34-5.52-4.74-7-7.79C97.38,153.12,92.43,157.27,86.81,158.55Z" fill="#231f20"/><path d="M98.21,189.56a.5.5,0,0,1-.5-.5V166.19a.5.5,0,0,1,1,0v22.87A.5.5,0,0,1,98.21,189.56Z" fill="#231f20"/><path d="M100.3,169a.51.51,0,0,1-.4-.2.5.5,0,0,1,.1-.7l29.35-21.83a.5.5,0,0,1,.6.81L100.6,168.89A.55.55,0,0,1,100.3,169Z" fill="#d1d3d4"/><path d="M99.83,173.21a.48.48,0,0,1-.4-.2.5.5,0,0,1,.1-.7l29.3-21.88a.5.5,0,1,1,.6.8l-29.3,21.88A.49.49,0,0,1,99.83,173.21Z" fill="#d1d3d4"/><path d="M100,177a.52.52,0,0,1-.41-.21.5.5,0,0,1,.12-.7l29.14-20.84a.5.5,0,0,1,.69.11.51.51,0,0,1-.11.7l-29.14,20.84A.46.46,0,0,1,100,177Z" fill="#d1d3d4"/><path d="M100.79,180.94a.5.5,0,0,1-.29-.9l28.33-21a.5.5,0,1,1,.59.8l-28.33,21A.53.53,0,0,1,100.79,180.94Z" fill="#d1d3d4"/><path d="M100.3,184.65a.5.5,0,0,1-.3-.9l28.83-21.26a.51.51,0,0,1,.7.11.5.5,0,0,1-.11.7L100.6,184.55A.49.49,0,0,1,100.3,184.65Z" fill="#d1d3d4"/><path d="M96.12,169a.46.46,0,0,1-.23,0L52.75,146.39a.5.5,0,0,1-.21-.67.49.49,0,0,1,.67-.21L96.35,168a.5.5,0,0,1,.21.68A.49.49,0,0,1,96.12,169Z" fill="#d1d3d4"/><path d="M95.32,172.22a.53.53,0,0,1-.24-.06C53,150.2,53,149.88,53,149.47a.5.5,0,0,1,.5-.5.47.47,0,0,1,.37.18c1.31,1,25.56,13.72,41.67,22.12a.51.51,0,0,1,.21.68A.5.5,0,0,1,95.32,172.22ZM54,149.47h0Z" fill="#d1d3d4"/><path d="M94.87,176.3a.53.53,0,0,1-.24-.06L52.75,154.09a.5.5,0,1,1,.47-.88L95.1,175.35a.5.5,0,0,1-.23,1Z" fill="#d1d3d4"/><path d="M95.32,180.37a.46.46,0,0,1-.23-.06L53.28,158.8a.5.5,0,1,1,.45-.89l41.81,21.51a.5.5,0,0,1-.22,1Z" fill="#d1d3d4"/><path d="M95.32,184.65a.59.59,0,0,1-.23-.05L53.28,163a.5.5,0,1,1,.46-.89l41.8,21.65a.49.49,0,0,1,.22.67A.5.5,0,0,1,95.32,184.65Z" fill="#d1d3d4"/><path d="M163.32,41l-5.26,1.22.94,2.2-2.44.52.94,1.54-2.07.9s4.07,5.53,3.48,9.43c-1,6.48,4.73,16.38,13.61,11.88S171.86,45.08,163.32,41Z" fill="#fff"/><path d="M168.15,70.28a8.18,8.18,0,0,1-4.85-1.62,13.23,13.23,0,0,1-4.89-12c.56-3.65-3.34-9-3.38-9.06a.5.5,0,0,1-.08-.43.54.54,0,0,1,.28-.33l1.54-.67-.64-1.05a.53.53,0,0,1,0-.46.56.56,0,0,1,.36-.29L158.3,44l-.7-1.64a.5.5,0,0,1,0-.43.51.51,0,0,1,.33-.26l5.26-1.22a.54.54,0,0,1,.33,0c6.38,3.09,13,13.86,13,21.35,0,3.44-1.29,5.95-3.83,7.23A10,10,0,0,1,168.15,70.28Zm-12-22.73c1,1.49,3.73,5.9,3.21,9.29a12.33,12.33,0,0,0,4.49,11c1.7,1.24,4.54,2.3,8.4.34,2.2-1.12,3.31-3.25,3.28-6.33-.07-7-6.37-17.38-12.31-20.38l-4.5,1,.7,1.65a.54.54,0,0,1,0,.43.56.56,0,0,1-.34.26l-1.76.37.58.94a.53.53,0,0,1,0,.41.54.54,0,0,1-.28.31Z" fill="#231f20"/><path d="M166.69,62.84a.46.46,0,0,1-.23-.06c-.11-.05-2.65-1.47-2.89-8.63a12.36,12.36,0,0,0-4.27-8.44.5.5,0,0,1,.62-.79,13.23,13.23,0,0,1,4.65,9.2c.22,6.46,2.34,7.77,2.37,7.78a.51.51,0,0,1,.19.68A.49.49,0,0,1,166.69,62.84Z" fill="#d1d3d4"/><path d="M163.74,65.52a.52.52,0,0,1-.38-.17c-.1-.12-2.32-2.83-2.23-8.83s-3.38-8.76-3.42-8.79a.5.5,0,0,1-.09-.7.51.51,0,0,1,.7-.1c.16.13,3.92,3.06,3.81,9.61-.09,5.59,2,8.14,2,8.16a.51.51,0,0,1-.06.71A.54.54,0,0,1,163.74,65.52Z" fill="#d1d3d4"/><path d="M169.77,70.59s6.55-3.92,2.46-14.34-11.72-7.93-13.7-21l53.39-12.95s2.36,13.8,10.9,20.84,1.52,20.7,1.52,20.7Z" fill="#fff"/><path d="M169.77,71.09a.51.51,0,0,1-.47-.34.5.5,0,0,1,.21-.59c.25-.15,6.13-3.86,2.26-13.73A19.32,19.32,0,0,0,165.26,48c-3.13-2.64-6.08-5.13-7.22-12.67a.49.49,0,0,1,.37-.56l53.39-13a.52.52,0,0,1,.39.06.49.49,0,0,1,.22.34c0,.13,2.43,13.7,10.73,20.53,8.75,7.21,1.72,21.18,1.65,21.32a.5.5,0,0,1-.38.27l-54.58,6.77ZM159.1,35.6c1.13,6.82,3.89,9.14,6.81,11.6,2.43,2,5,4.18,6.79,8.87,3,7.61.39,11.94-1.37,13.82L224,63.35c.86-1.81,6-13.65-1.51-19.86-7.74-6.38-10.45-18-11-20.61Z" fill="#231f20"/><path d="M200.08,63h0l-19.17-.13a.49.49,0,0,1-.38-.18.47.47,0,0,1-.11-.41c.93-5-5.27-12.11-5.33-12.19a.49.49,0,0,1-.1-.47.47.47,0,0,1,.34-.33c16.19-4.72,16.68-4.48,16.88-4.39h0c8.45,4,8.38,17,8.37,17.6A.5.5,0,0,1,200.08,63Zm-18.6-1.12,18.09.12c-.07-2.4-.81-12.78-7.7-16.15-1.11.08-9.75,2.51-15.53,4.18C177.8,51.8,181.9,57.32,181.48,61.84Z" fill="#d1d3d4"/><path d="M171.25,46.93a.49.49,0,0,1-.48-.36.5.5,0,0,1,.34-.62l41.5-11.84a.51.51,0,0,1,.62.34.5.5,0,0,1-.34.62L171.38,46.91Z" fill="#d1d3d4"/><path d="M197.69,43.89a.5.5,0,0,1-.48-.37.49.49,0,0,1,.35-.61l17.1-4.61a.5.5,0,0,1,.26,1l-17.1,4.61Z" fill="#d1d3d4"/><path d="M200.8,47.38a.51.51,0,0,1-.48-.36.5.5,0,0,1,.34-.62l15.9-4.76a.5.5,0,0,1,.62.33.49.49,0,0,1-.34.62L201,47.36Z" fill="#d1d3d4"/><path d="M176.61,34.41l1.23-.33,3.57,3.21h0l-1-3.88.93-.25,1.4,5.23-1.18.32-3.66-3.32h0l1.08,4-.93.25Z" fill="#d1d3d4"/><path d="M184,32.44l3.46-.93.23.85-2.53.67.34,1.29,2.4-.64.23.84-2.4.64.38,1.42,2.66-.72.23.85-3.6,1Z" fill="#d1d3d4"/><path d="M189.36,31l1-.27,2,3.5h0l.16-4.08.92-.25,2.16,3.46h0v-4l1-.25-.12,5.64-.89.23-2.28-3.65h0l-.14,4.31-.86.23Z" fill="#d1d3d4"/><path d="M201.53,28.93a1,1,0,0,0-.48-.21,1.73,1.73,0,0,0-.55,0,1.3,1.3,0,0,0-.3.13.88.88,0,0,0-.24.19.6.6,0,0,0-.14.26.62.62,0,0,0,0,.33.49.49,0,0,0,.29.35,1.88,1.88,0,0,0,.53.12,6.3,6.3,0,0,0,.65,0,2.54,2.54,0,0,1,.67.11,1.38,1.38,0,0,1,.57.33,1.29,1.29,0,0,1,.39.69,1.74,1.74,0,0,1,0,.78,1.56,1.56,0,0,1-.28.63,1.69,1.69,0,0,1-.52.47,2.81,2.81,0,0,1-.71.3,2.7,2.7,0,0,1-1,.09,1.88,1.88,0,0,1-.92-.34l.52-.86a1.24,1.24,0,0,0,.56.28,1.3,1.3,0,0,0,.62,0,1.23,1.23,0,0,0,.31-.14.89.89,0,0,0,.26-.21A.61.61,0,0,0,202,32a.57.57,0,0,0,0-.34.56.56,0,0,0-.3-.39,1.65,1.65,0,0,0-.53-.14,6.48,6.48,0,0,0-.65,0,2.93,2.93,0,0,1-.67-.1,1.61,1.61,0,0,1-.57-.32,1.36,1.36,0,0,1-.39-.7,1.44,1.44,0,0,1,0-.74,1.66,1.66,0,0,1,.3-.61,2.19,2.19,0,0,1,.54-.46,2.87,2.87,0,0,1,.68-.28,2.41,2.41,0,0,1,.84-.09A2,2,0,0,1,202,28Z" fill="#d1d3d4"/><path d="M169.37,60.78a.44.44,0,0,1-.34-.14c-.13-.12-1.27-1.31-2.07-5.71a14.71,14.71,0,0,0-4.14-7.23.49.49,0,0,1,0-.7.5.5,0,0,1,.71,0,15.46,15.46,0,0,1,4.45,7.79c.74,4.07,1.77,5.17,1.78,5.18a.49.49,0,0,1,0,.7A.49.49,0,0,1,169.37,60.78Z" fill="#d1d3d4"/><path d="M202.08,51.93a.51.51,0,0,1-.48-.36.5.5,0,0,1,.34-.62l18.68-5.69a.5.5,0,0,1,.62.33.51.51,0,0,1-.33.63L202.23,51.9A.4.4,0,0,1,202.08,51.93Z" fill="#d1d3d4"/><path d="M203.3,57.05a.27.27,0,0,1-.19,0,.49.49,0,0,1-.18-.68.51.51,0,0,1,.49-.25c1.06-.12,12-3.5,19.13-5.76a.49.49,0,0,1,.62.32.49.49,0,0,1-.32.63C206.68,56.38,203.92,57.05,203.3,57.05Z" fill="#d1d3d4"/><path d="M158,63.85l-1.86,4.32,16,34.36s15.3-13,29.31-11.62c0,0,18.4-9.86,26.15-9.86l2-3L190.68,57.85Z" fill="#231f20"/><path d="M172.19,103l-.1,0a.49.49,0,0,1-.35-.27l-16-34.36a.51.51,0,0,1,0-.4l1.86-4.32a.48.48,0,0,1,.37-.3l32.65-6a.51.51,0,0,1,.32,0l39,20.24a.55.55,0,0,1,.26.32.58.58,0,0,1-.07.41l-2,3a.54.54,0,0,1-.42.22c-7.53,0-25.73,9.7-25.92,9.8a.56.56,0,0,1-.28.05c-13.66-1.36-28.78,11.38-28.93,11.51A.58.58,0,0,1,172.19,103ZM156.72,68.16l15.65,33.57c2.8-2.26,16.29-12.52,29-11.34,1.8-1,18.34-9.64,26-9.84l1.52-2.27-38.3-19.9L158.38,64.3Z" fill="#231f20"/><path d="M201.5,88.62,182.86,58S169.65,56.46,158,63.85L173.12,98.3S190,85.27,201.5,88.62Z" fill="#fff"/><path d="M173.12,98.8a.25.25,0,0,1-.12,0,.47.47,0,0,1-.33-.28l-15.1-34.45a.49.49,0,0,1,.19-.62c11.63-7.4,25-6,25.16-5.94a.46.46,0,0,1,.36.23l18.64,30.64a.5.5,0,0,1-.56.74c-11.15-3.23-27.76,9.47-27.93,9.6A.57.57,0,0,1,173.12,98.8ZM158.66,64.05l14.67,33.47c2.85-2.11,16.59-11.73,27.11-9.67L182.56,58.46C180.75,58.31,169.05,57.62,158.66,64.05Z" fill="#231f20"/><path d="M201.5,88.62S222,77.17,229.63,78.1L209.69,47.73s-18.41.44-26.83,10.25Z" fill="#fff"/><path d="M201.5,89.12a.51.51,0,0,1-.43-.24L182.43,58.24a.5.5,0,0,1,0-.58c8.47-9.87,26.44-10.41,27.2-10.43a.5.5,0,0,1,.43.22l19.94,30.37a.5.5,0,0,1,0,.54.49.49,0,0,1-.49.23c-7.39-.89-27.63,10.35-27.83,10.46A.44.44,0,0,1,201.5,89.12ZM183.48,58,201.67,88c2.92-1.6,19.26-10.39,27-10.4L209.43,48.24C207.14,48.35,191.19,49.4,183.48,58Z" fill="#231f20"/><line x1="173.12" y1="98.3" x2="172.19" y2="102.53" fill="#fff"/><path d="M172.19,103l-.11,0a.5.5,0,0,1-.38-.59l.93-4.23a.5.5,0,0,1,1,.22l-.93,4.22A.5.5,0,0,1,172.19,103Z" fill="#231f20"/><path d="M164.27,67.29a.5.5,0,0,1-.24-.94c.4-.22,9.75-5.18,17.55-4.29a.5.5,0,0,1-.11,1c-7.5-.86-16.87,4.12-17,4.17A.53.53,0,0,1,164.27,67.29Z" fill="#d1d3d4"/><path d="M166.71,71.86a.47.47,0,0,1-.41-.22.49.49,0,0,1,.13-.69c.39-.26,9.54-6.37,16.49-5.5a.5.5,0,0,1-.13,1c-6.56-.83-15.71,5.27-15.8,5.33A.46.46,0,0,1,166.71,71.86Z" fill="#d1d3d4"/><path d="M168.1,76.68a.48.48,0,0,1-.42-.23.5.5,0,0,1,.15-.69c.44-.28,10.85-6.83,17.26-5.61a.5.5,0,0,1-.18,1c-6-1.15-16.44,5.41-16.54,5.48A.54.54,0,0,1,168.1,76.68Z" fill="#d1d3d4"/><path d="M171.1,80.48a.48.48,0,0,1-.41-.23.49.49,0,0,1,.13-.69c.39-.26,9.69-6.46,17.33-5.72a.49.49,0,0,1,.45.54.5.5,0,0,1-.54.45c-7.29-.69-16.59,5.5-16.68,5.56A.47.47,0,0,1,171.1,80.48Z" fill="#d1d3d4"/><path d="M171.93,85a.48.48,0,0,1-.42-.23.49.49,0,0,1,.15-.69c.47-.31,11.69-7.47,19.24-6.13a.49.49,0,0,1,.4.58.49.49,0,0,1-.58.4c-7.15-1.27-18.41,5.92-18.52,6A.53.53,0,0,1,171.93,85Z" fill="#d1d3d4"/><path d="M174.37,90.28a.5.5,0,0,1-.26-.92c.53-.32,13-7.82,18.37-6.94a.51.51,0,0,1,.41.58.51.51,0,0,1-.58.41c-4.95-.81-17.55,6.73-17.68,6.8A.48.48,0,0,1,174.37,90.28Z" fill="#d1d3d4"/><path d="M189.53,60.51a.5.5,0,0,1-.3-.9c.39-.29,9.41-7,18.29-7H208a.5.5,0,0,1,.49.52.52.52,0,0,1-.52.48h-.47c-8.56,0-17.6,6.71-17.7,6.78A.47.47,0,0,1,189.53,60.51Z" fill="#d1d3d4"/><path d="M191.65,65.12a.48.48,0,0,1-.41-.21.5.5,0,0,1,.12-.7c.4-.27,9.81-6.81,18.56-7.52a.5.5,0,0,1,.53.46.49.49,0,0,1-.45.54c-8.49.68-18,7.28-18.07,7.34A.47.47,0,0,1,191.65,65.12Z" fill="#d1d3d4"/><path d="M194.41,68.87a.51.51,0,0,1-.41-.2.51.51,0,0,1,.11-.7c.45-.33,11-8,19.6-7.58a.5.5,0,0,1-.05,1c-8.16-.44-18.85,7.31-19,7.39A.52.52,0,0,1,194.41,68.87Z" fill="#d1d3d4"/><path d="M196.75,72.86a.51.51,0,0,1-.39-.18.5.5,0,0,1,.08-.7c.41-.34,10.13-8.14,20.06-7.58a.49.49,0,0,1,.47.52.48.48,0,0,1-.53.47c-9.56-.52-19.28,7.28-19.37,7.36A.5.5,0,0,1,196.75,72.86Z" fill="#d1d3d4"/><path d="M199.39,76.68a.5.5,0,0,1-.26-.92c.46-.29,11.3-7,19.24-7h.13a.5.5,0,0,1,.5.5.51.51,0,0,1-.5.5h-.13c-7.65,0-18.6,6.8-18.71,6.87A.52.52,0,0,1,199.39,76.68Z" fill="#d1d3d4"/><path d="M202.74,81.28a.48.48,0,0,1-.38-.17.49.49,0,0,1,0-.7,37.77,37.77,0,0,1,9.73-5.81.5.5,0,0,1,.39.92,37.85,37.85,0,0,0-9.46,5.64A.52.52,0,0,1,202.74,81.28Z" fill="#d1d3d4"/><polygon points="215.91 62.93 216.26 66.56 231.37 73.34 238.2 58.27 237.49 54.48 215.91 62.93" fill="#fff"/><path d="M231.37,73.84a.45.45,0,0,1-.2,0L216.05,67a.52.52,0,0,1-.29-.41L215.41,63a.5.5,0,0,1,.32-.51L237.31,54a.51.51,0,0,1,.42,0,.45.45,0,0,1,.25.35l.71,3.79a.52.52,0,0,1,0,.3l-6.83,15.07A.52.52,0,0,1,231.37,73.84Zm-14.64-7.62,14.39,6.46,6.56-14.47-.57-3-20.66,8.09Z" fill="#231f20"/><polygon points="223.82 48.47 215.91 62.93 230.3 69.39 237.49 54.48 223.82 48.47" fill="#fff"/><path d="M230.3,69.89a.54.54,0,0,1-.21,0l-14.38-6.45a.5.5,0,0,1-.27-.3.51.51,0,0,1,0-.4l7.92-14.46A.5.5,0,0,1,224,48l13.66,6a.51.51,0,0,1,.27.29.49.49,0,0,1,0,.39l-7.19,14.9A.51.51,0,0,1,230.3,69.89ZM216.61,62.7l13.45,6,6.76-14L224,49.12Z" fill="#231f20"/><line x1="230.3" y1="69.39" x2="231.37" y2="73.34" fill="#fff"/><path d="M231.37,73.84a.5.5,0,0,1-.48-.37l-1.07-4a.5.5,0,1,1,1-.26l1.07,3.95a.48.48,0,0,1-.35.61Z" fill="#231f20"/><path d="M233.06,56.82a.65.65,0,0,1-.2,0l-8-3.38a.49.49,0,0,1-.26-.65.5.5,0,0,1,.65-.27l8,3.37a.5.5,0,0,1-.19,1Z" fill="#d1d3d4"/><path d="M229.62,60a.51.51,0,0,1-.2,0l-6-2.62a.5.5,0,1,1,.39-.91l6,2.61a.5.5,0,0,1,.26.66A.49.49,0,0,1,229.62,60Z" fill="#d1d3d4"/><path d="M192.17,126c3.62.74,5.62,3.6,7.89,6l-9.15,15.15-11.61-6.84c.15-.25.26-.46.39-.66,2.36-3.74,4.75-7.46,7.08-11.23a4.77,4.77,0,0,1,3.37-2.32,2.19,2.19,0,0,0,.33-.12Z" fill="#68e1fd"/><path d="M209.87,179.56l.26,5.56c-.17-.23-.27-.36-.36-.5q-3.68-5.85-7.36-11.71a.66.66,0,0,1,0-.81c2.27-3.87,4.52-7.75,6.79-11.63.06-.11.15-.21.31-.44.06,1.4.12,2.67.17,3.93,0,.52,0,1,.07,1.57,0,.16.22.41.35.42a42.22,42.22,0,0,0,14.18-.62c1-.25,2-.68,3-1.05a4.68,4.68,0,0,1-.19.46q-3.19,6.13-6.41,12.25a3.9,3.9,0,0,1-3.33,2.12c-2.12.16-4.24.25-6.36.37Z" fill="#68e1fd"/><path d="M190.87,159.38l-5-3.14c-3.2,3.47-7.22,9.23-8.58,15.43-.15-.25-.26-.42-.36-.61q-3.19-6-6.39-12a3.64,3.64,0,0,1-.1-3.56c1.17-2.11,2.44-4.15,3.67-6.21.12-.21.25-.41.41-.66l-4.61-2.83,0-.12h.63l13.53.52c.33,0,.61,0,.79.4q2.91,6.21,5.86,12.39C190.76,159.08,190.78,159.16,190.87,159.38Z" fill="#68e1fd"/><path d="M200.73,144.29l5.18-3c-2.19-5.57-4.93-10.76-9.58-14.89h.72l13.59,0a3.91,3.91,0,0,1,3.49,2.06c1.16,1.92,2.29,3.86,3.43,5.79l.36.62,4.86-2.83c-.17.31-.24.46-.33.61q-3.48,5.91-6.95,11.81a.77.77,0,0,1-.8.46c-4.53-.23-9-.43-13.58-.64Z" fill="#68e1fd"/><path d="M198.1,166.65l-.56,13.46c-1-.06-2-.11-3-.18-3.79-.27-7.58-.55-11.38-.8a4,4,0,0,1-2.59-1.15,6.35,6.35,0,0,1-2-6.24c.46-2.05,1.12-4.07,1.67-6Z" fill="#68e1fd"/><path d="M211.37,149.93l11.47-7.14c.13.21.26.38.36.57q3.33,5.67,6.64,11.36a5.47,5.47,0,0,1-1.07,7,11.57,11.57,0,0,1-4.82,2.45c-1,.3-2,.55-3,.79a.65.65,0,0,1-.56-.21q-4.41-7.17-8.79-14.38C211.54,150.23,211.48,150.11,211.37,149.93Z" fill="#68e1fd"/><polygon points="286.06 125.67 309.62 118.06 348.17 132.6 326.25 150.57 286.06 125.67" fill="#231f20"/><path d="M326.25,151.08A.53.53,0,0,1,326,151L285.8,126.1a.5.5,0,0,1-.24-.49.51.51,0,0,1,.35-.41l23.55-7.61a.47.47,0,0,1,.33,0l38.55,14.54a.49.49,0,0,1,.32.39.49.49,0,0,1-.18.46l-21.92,18A.47.47,0,0,1,326.25,151.08Zm-39-25.26,39,24.14,21-17.2L309.6,118.59Z" fill="#231f20"/><path d="M314.27,116.82c.76.71,1.33,1.6,2,2.37a8.58,8.58,0,0,0,3.42,2.23,3.4,3.4,0,0,1,1.12.53,2.65,2.65,0,0,1,.55,2.24,38.79,38.79,0,0,1-.87,5.88,3,3,0,0,1-.89,1.8,3.14,3.14,0,0,1-1.85.44c-4.64.11-9.49.1-13.63-2-2-1-3.9-2.73-4.19-5-.23-1.71.75-4.71,2.37-5.45a10.2,10.2,0,0,1,2.85-.6,1.24,1.24,0,0,0,.91-.42,2.41,2.41,0,0,0,.18-.47,2.47,2.47,0,0,1,.7-.94C308.86,115.76,312.27,115,314.27,116.82Z" fill="#fff"/><path d="M315.3,132.84c-4.05,0-7.93-.34-11.36-2.07-2.53-1.27-4.2-3.29-4.47-5.39-.23-1.79.71-5.08,2.66-6a8,8,0,0,1,2.43-.56l.56-.08c.12,0,.47-.06.56-.19a1.11,1.11,0,0,0,.07-.2l.06-.17a2.76,2.76,0,0,1,.84-1.14c2.12-1.9,5.82-2.6,8-.61h0a13.81,13.81,0,0,1,1.25,1.42c.26.33.53.66.82,1a8.12,8.12,0,0,0,3.21,2.1l.15,0a3.16,3.16,0,0,1,1.14.58,3,3,0,0,1,.72,2.65,39.71,39.71,0,0,1-.88,6,3.38,3.38,0,0,1-1.08,2.08,3.56,3.56,0,0,1-2.14.55Zm-4-16.6a6.24,6.24,0,0,0-4,1.56,1.81,1.81,0,0,0-.57.74l0,.12a1.82,1.82,0,0,1-.19.45,1.65,1.65,0,0,1-1.26.64l-.57.08a6.91,6.91,0,0,0-2.14.48c-1.33.61-2.3,3.3-2.09,4.94s1.7,3.5,3.92,4.62c3.94,2,8.59,2,13.4,1.94a2.67,2.67,0,0,0,1.55-.34A2.55,2.55,0,0,0,320,130a36.56,36.56,0,0,0,.86-5.8,2.27,2.27,0,0,0-.38-1.83,2.2,2.2,0,0,0-.8-.38l-.16-.06a9.11,9.11,0,0,1-3.62-2.36c-.3-.33-.58-.69-.86-1a12.31,12.31,0,0,0-1.16-1.31h0A3.73,3.73,0,0,0,311.33,116.24Z" fill="#231f20"/><path d="M344.89,121.69l-12.36-12.1a2.13,2.13,0,0,0-.86-.6,1.94,1.94,0,0,0-1.39.31c-5.95,3.06-9.57,9.19-12.87,15,.19-.34,8,4.84,8.68,5.35,1.7,1.25,4.28,4.79,6.42,3.31,1.83-1.27,2.85-4.75,4.56-6.42A20.77,20.77,0,0,1,344.89,121.69Z" fill="#fff"/><path d="M331.41,133.84c-1.54,0-3.1-1.47-4.31-2.61a15,15,0,0,0-1.31-1.16c-.94-.69-7.34-4.88-8.34-5.25a.53.53,0,0,1-.28-.07.49.49,0,0,1-.19-.68h0c3-5.34,6.79-12,13.07-15.22a2,2,0,0,1,2.83.38l12.36,12.1a.51.51,0,0,1-.19.83,20.42,20.42,0,0,0-7.63,4.75,13.47,13.47,0,0,0-1.94,2.89,10.67,10.67,0,0,1-2.69,3.59A2.39,2.39,0,0,1,331.41,133.84Zm-13.28-9.77c2.27,1.08,8.19,5.15,8.25,5.2a15.82,15.82,0,0,1,1.41,1.23c1.78,1.68,3.23,2.9,4.43,2.07a10,10,0,0,0,2.38-3.26,14.4,14.4,0,0,1,2.12-3.11,21.49,21.49,0,0,1,7.25-4.71L332.18,110a1.77,1.77,0,0,0-.64-.48,1.58,1.58,0,0,0-1,.27C324.68,112.74,321,118.93,318.13,124.07Zm-.29.51Zm0,0v0Z" fill="#231f20"/><polygon points="316.44 115.1 332.4 120.39 324.8 147.98 307.6 141.25 316.44 115.1" fill="#fff"/><path d="M324.8,148.48a.57.57,0,0,1-.18,0l-17.21-6.73a.51.51,0,0,1-.29-.63L316,114.94a.5.5,0,0,1,.63-.32l16,5.29a.5.5,0,0,1,.32.61l-7.59,27.59a.55.55,0,0,1-.26.32A.59.59,0,0,1,324.8,148.48ZM308.22,141l16.25,6.35,7.32-26.6-15-5Z" fill="#231f20"/><polygon points="316.44 115.1 312.21 116.54 307.6 141.25 312.02 140.26 316.44 115.1" fill="#fff"/><path d="M307.59,141.75a.49.49,0,0,1-.34-.14.51.51,0,0,1-.15-.45l4.62-24.71a.49.49,0,0,1,.33-.38l4.23-1.44a.5.5,0,0,1,.65.56l-4.42,25.15a.5.5,0,0,1-.38.4l-4.43,1Zm5.06-24.83-4.42,23.68,3.35-.76,4.22-24Z" fill="#231f20"/><path d="M319.78,134.71s7-1.3,10.26-10.67l15.15,5.34s-1.59,10.67-7.5,16.58-20.58,3.17-20.58,3.17Z" fill="#fff"/><path d="M324.7,150.28a44.83,44.83,0,0,1-7.68-.66.5.5,0,0,1-.4-.58l2.67-14.42a.51.51,0,0,1,.4-.4c.07,0,6.71-1.38,9.88-10.35a.5.5,0,0,1,.64-.3l15.14,5.33a.51.51,0,0,1,.33.55c-.07.44-1.68,10.9-7.64,16.86C334.84,149.51,329.29,150.28,324.7,150.28Zm-7-1.56c2.58.4,14.57,1.95,19.63-3.11s6.93-13.91,7.29-15.9l-14.28-5c-3,8.06-8.67,10.06-10.12,10.44Z" fill="#231f20"/><path d="M292.69,131.68s-6.49-9.51-5.19-17.88l16.09-1.58s2.51,20.09,7.85,25.91Z" fill="#fff"/><path d="M311.44,138.62a.44.44,0,0,1-.16,0l-18.75-6.44a.6.6,0,0,1-.25-.19c-.27-.4-6.58-9.78-5.27-18.24a.51.51,0,0,1,.44-.43l16.09-1.58a.49.49,0,0,1,.54.43c0,.2,2.56,20,7.73,25.64a.49.49,0,0,1-.37.83ZM293,131.27l17,5.84c-4.29-6.48-6.48-21.4-6.87-24.35l-15.22,1.5C287,121.71,292.26,130.1,293,131.27Z" fill="#231f20"/><path d="M304.23,139.33s-1.44-7.41,0-13.65H322s1.06,18.84,4.28,24.9Z" fill="#fff"/><path d="M326.25,151.08A.46.46,0,0,1,326,151l-22-11.25a.52.52,0,0,1-.26-.35c-.06-.3-1.45-7.58,0-13.86a.51.51,0,0,1,.49-.38H322a.5.5,0,0,1,.5.47c0,.18,1.09,18.8,4.22,24.69a.5.5,0,0,1-.09.59A.51.51,0,0,1,326.25,151.08ZM304.68,139l20.52,10.49c-2.54-6.47-3.53-20.49-3.7-23.3H304.63A38,38,0,0,0,304.68,139Z" fill="#231f20"/><path d="M290.55,118.56a.51.51,0,0,1-.5-.44.51.51,0,0,1,.45-.56l11.05-1.26a.5.5,0,0,1,.11,1l-11.05,1.27Z" fill="#d1d3d4"/><path d="M291,122.27a.5.5,0,0,1-.49-.43.51.51,0,0,1,.42-.57l10.59-1.5a.5.5,0,0,1,.56.43.5.5,0,0,1-.42.56l-10.59,1.5Z" fill="#d1d3d4"/><path d="M292.43,125.67a.5.5,0,0,1-.06-1l9.95-1.13a.52.52,0,0,1,.56.44.51.51,0,0,1-.45.56l-9.94,1.13Z" fill="#d1d3d4"/><path d="M307.3,129.82a.5.5,0,0,1,0-1l12.11-.49a.48.48,0,0,1,.52.48.5.5,0,0,1-.48.52l-12.1.49Z" fill="#d1d3d4"/><path d="M311.41,133c-1.86,0-3.31,0-3.48,0a.5.5,0,0,1,.15-1c.47,0,7,0,11.33,0h0a.5.5,0,0,1,0,1C317.86,133,314.19,133,311.41,133Z" fill="#d1d3d4"/><path d="M341.3,133a.51.51,0,0,1-.2,0l-9.85-4.35A.49.49,0,0,1,331,128a.5.5,0,0,1,.66-.25l9.85,4.34a.5.5,0,0,1-.2,1Z" fill="#d1d3d4"/><path d="M337.78,135.6a.59.59,0,0,1-.22,0c-7.6-3.7-7.8-3.9-7.87-4a.5.5,0,0,1,0-.71.5.5,0,0,1,.67,0c.41.27,4.89,2.47,7.64,3.81a.5.5,0,0,1-.22.95Z" fill="#d1d3d4"/><path d="M332.79,138.13a.51.51,0,0,1-.4-.19c-.41-.3-3-1.61-5.38-2.75a.49.49,0,0,1-.24-.66.5.5,0,0,1,.67-.24c5.85,2.81,5.85,3,5.85,3.34A.5.5,0,0,1,332.79,138.13Z" fill="#d1d3d4"/><path d="M319.41,137.22h-.06l-4.49-.54a.5.5,0,0,1-.44-.55.5.5,0,0,1,.56-.44l4.49.53a.5.5,0,0,1,.44.56A.51.51,0,0,1,319.41,137.22Z" fill="#d1d3d4"/><path d="M330.81,132.75c-.26.12-.5.25-.74.39a3.9,3.9,0,0,0-2.61-1.91,5.88,5.88,0,0,0-3.67,1.22,1.83,1.83,0,0,0-.5.46,4.64,4.64,0,0,0-.4,1.46.62.62,0,0,1-.15.29.91.91,0,0,1-.4.14,2.08,2.08,0,0,0-1.55,1.6c-.21.91-.17,1.87-.29,2.8a3,3,0,0,0,.23,2.05c.24.36.64.63.74,1,.14.62-.44,1.2-.4,1.83a1.91,1.91,0,0,0,.86,1.22,12.51,12.51,0,0,0,2.17,1.53,12.86,12.86,0,0,0,2,.74.9.9,0,0,0,.36,0,.71.71,0,0,0,.31-.16l1.5-1.11a1.11,1.11,0,0,1,.37-.2,1.09,1.09,0,0,1,.44,0,12.43,12.43,0,0,0,2.44,0,4.63,4.63,0,0,0,1.58,0c1.32-.56,2.7-2.49,3.57-3.58a.6.6,0,0,0,.16-.66l-.54-2.38a3.7,3.7,0,0,0-.64-1.6c-.22-.27-.52-.49-.6-.83a1.75,1.75,0,0,1,0-.56c.24-1.77-.65-2.76-1.43-4.18a.52.52,0,0,0-.17-.22.62.62,0,0,0-.36,0A7.28,7.28,0,0,0,330.81,132.75Z" fill="#fff"/><path d="M326.38,148.17a1.43,1.43,0,0,1-.43-.08,9.66,9.66,0,0,1-4.34-2.36,2.35,2.35,0,0,1-1-1.57,2.33,2.33,0,0,1,.25-1.08.76.76,0,0,0-.16-1.13,4.46,4.46,0,0,1-.34-.42,3.44,3.44,0,0,1-.31-2.39c0-.35.06-.7.08-1a10.17,10.17,0,0,1,.22-1.8,2.53,2.53,0,0,1,1.93-2l.18,0c0-.19.05-.34.08-.5a2.61,2.61,0,0,1,.38-1.15,2.42,2.42,0,0,1,.62-.58,6.36,6.36,0,0,1,4-1.31,3.93,3.93,0,0,1,2.71,1.77c.13-.07.26-.14.4-.2h0a7.76,7.76,0,0,1,2.45-.67,1.09,1.09,0,0,1,.68.12,1.17,1.17,0,0,1,.34.4c.14.26.29.51.43.74a5.35,5.35,0,0,1,1.06,3.74,1.2,1.2,0,0,0,0,.39,1,1,0,0,0,.28.38l.22.24a4.3,4.3,0,0,1,.74,1.81l.54,2.38a1.08,1.08,0,0,1,0,.53,1.28,1.28,0,0,1-.29.55l-.38.49c-.9,1.14-2.13,2.71-3.38,3.24a2.54,2.54,0,0,1-1.26.11,2.85,2.85,0,0,0-.5,0l-.43,0a10.73,10.73,0,0,1-2.11,0,.84.84,0,0,0-.24,0,1.14,1.14,0,0,0-.19.12l-1.5,1.11a1.2,1.2,0,0,1-.52.25Zm.81-16.45a5.69,5.69,0,0,0-3.12,1.14,1.78,1.78,0,0,0-.37.33,1.66,1.66,0,0,0-.21.74c0,.19-.07.39-.12.58a1.08,1.08,0,0,1-.3.52,1.16,1.16,0,0,1-.57.25,1.59,1.59,0,0,0-1.22,1.24,9.33,9.33,0,0,0-.19,1.63c0,.37,0,.74-.09,1.11a2.61,2.61,0,0,0,.15,1.72,3.31,3.31,0,0,0,.25.3,1.7,1.7,0,0,1,.35,2.17,1.64,1.64,0,0,0-.18.64c0,.3.35.59.68.86a11.57,11.57,0,0,0,2.08,1.48,12.06,12.06,0,0,0,1.91.7l.14,0s.05,0,.09-.08L328,146a1.5,1.5,0,0,1,.54-.29,1.83,1.83,0,0,1,.62,0,8.81,8.81,0,0,0,1.92,0l.43,0a4.72,4.72,0,0,1,.65,0,1.57,1.57,0,0,0,.76,0c1-.43,2.16-1.88,3-2.94l.39-.49a.51.51,0,0,0,.09-.13s0-.08,0-.11l-.55-2.38a3.39,3.39,0,0,0-.53-1.39l-.17-.19a1.86,1.86,0,0,1-.54-.85,1.91,1.91,0,0,1,0-.68,4.42,4.42,0,0,0-.92-3.15q-.22-.37-.45-.78a6.64,6.64,0,0,0-2.17.58h0c-.24.11-.47.23-.7.36a.5.5,0,0,1-.65-.12c-.72-.94-1.34-1.66-2.24-1.72Z" fill="#231f20"/><path d="M330,140.58h-.2a21.7,21.7,0,0,1-5.16-1.16.5.5,0,1,1,.34-.94,21.12,21.12,0,0,0,4.88,1.1c1.8.08,3.34-2.14,3.52-2.6a.51.51,0,0,1,.42-.42.48.48,0,0,1,.57.41c.1.55-1.06,1.85-1.07,1.86A4.66,4.66,0,0,1,330,140.58Z" fill="#d1d3d4"/><path d="M325.56,137.16a3.19,3.19,0,0,1-2.6-1.7.5.5,0,0,1,.2-.68.49.49,0,0,1,.67.2c0,.06.87,1.53,2.21,1.1a.5.5,0,0,1,.31,1A2.86,2.86,0,0,1,325.56,137.16Z" fill="#d1d3d4"/><polygon points="348.17 132.6 326.25 142.79 286.06 125.67 291.83 173.94 319.78 187.97 337.21 176.12 348.17 132.6" fill="#fff"/><path d="M319.78,188.47a.44.44,0,0,1-.22-.05l-28-14a.49.49,0,0,1-.27-.38l-5.77-48.27a.5.5,0,0,1,.7-.51l40,17L348,132.14a.5.5,0,0,1,.69.58l-11,43.52a.5.5,0,0,1-.2.29l-17.43,11.86A.54.54,0,0,1,319.78,188.47Zm-27.49-14.86,27.46,13.79,17-11.59,10.65-42.32-21,9.75a.53.53,0,0,1-.41,0l-39.39-16.78Z" fill="#231f20"/><line x1="326.25" y1="142.79" x2="319.78" y2="187.97" fill="#fff"/><path d="M319.78,188.47h-.07a.5.5,0,0,1-.42-.57l6.46-45.18a.5.5,0,1,1,1,.14L320.28,188A.51.51,0,0,1,319.78,188.47Z" fill="#231f20"/><path d="M302.57,143.54c1.38.72,2.11,2.21,2.95,3.53l-3.63,5.43-4.2-4.22a2.32,2.32,0,0,1,.14-.23c.88-1.32,1.78-2.65,2.67-4a1.31,1.31,0,0,1,1.29-.65l.13,0Z" fill="#d1d3d4"/><path d="M308.51,168.08v2.22l-.12-.25c-.85-1.86-1.69-3.73-2.55-5.61a.3.3,0,0,1,0-.33l2.73-3.82.13-.15v1.64c0,.22,0,.44,0,.66a.37.37,0,0,0,.12.22,17.45,17.45,0,0,0,5.51,1.66c.41,0,.8,0,1.24,0l-.09.17c-1,1.39-1.88,2.76-2.81,4.1a1.11,1.11,0,0,1-1.33.37c-.8-.22-1.61-.49-2.41-.73Z" fill="#d1d3d4"/><path d="M301.76,157.52,300,155.63a9.82,9.82,0,0,0-3.11,5.1c-.05-.12-.09-.2-.12-.28-.73-1.83-1.47-3.66-2.2-5.5a1.69,1.69,0,0,1,0-1.44c.41-.71.86-1.4,1.29-2.1a2.17,2.17,0,0,1,.15-.22l-1.62-1.69v0l.22.07,4.83,1.76a.36.36,0,0,1,.28.26c.68,1.94,1.37,3.88,2,5.8A1.34,1.34,0,0,1,301.76,157.52Z" fill="#d1d3d4"/><path d="M305.61,152.44l2-.64a23.16,23.16,0,0,0-3.49-7.62l.28.08c1.76.51,3.54,1,5.35,1.56a2.16,2.16,0,0,1,1.36,1.33c.42,1,.84,2,1.25,3,0,.09.08.19.14.31l2-.66c-.08.12-.11.18-.15.23-1.05,1.47-2.08,2.91-3.09,4.34a.23.23,0,0,1-.33.09l-5.26-1.94Z" fill="#d1d3d4"/><path d="M304.33,161.37l-.36,5.26-1.08-.47-4-1.79a2.16,2.16,0,0,1-.9-.78,3.4,3.4,0,0,1-.66-2.67c.17-.74.41-1.46.61-2.15Z" fill="#d1d3d4"/><path d="M309.62,156.16l4.72-1.62.13.29,2.39,5.79a2.13,2.13,0,0,1-.63,2.81,3.59,3.59,0,0,1-2,.36c-.4,0-.8,0-1.2-.09a.32.32,0,0,1-.22-.16l-3.13-7.17C309.68,156.31,309.65,156.25,309.62,156.16Z" fill="#d1d3d4"/><path d="M308.92,121.65a2,2,0,0,1-.95-.25,2.72,2.72,0,0,1-1.15-1.69.49.49,0,0,1,.38-.59.5.5,0,0,1,.59.38,1.77,1.77,0,0,0,.68,1,1.14,1.14,0,0,0,1,0,.5.5,0,0,1,.33.95A2.76,2.76,0,0,1,308.92,121.65Z" fill="#d1d3d4"/><path d="M327.63,125.89l-.13,0-8.5-2.32a.51.51,0,0,1-.36-.58l.65-3.45a.49.49,0,0,1,.63-.39l8.48,2.47a.49.49,0,0,1,.35.57l-.63,3.31a.52.52,0,0,1-.49.41Zm-7.92-3.19,7.53,2.06.45-2.33-7.52-2.19Z" fill="#d1d3d4"/></g></svg>