<svg xmlns="http://www.w3.org/2000/svg" viewBox="0 0 400 300"><g id="_542_relaxing_flatline" data-name="#542_relaxing_flatline"><polygon points="368.32 224.42 31.68 224.42 38.73 211.45 48.25 193.91 54.15 183.04 63.67 165.5 70.72 152.53 329.29 152.53 336.33 165.5 345.85 183.04 351.75 193.91 361.27 211.45 368.32 224.42" fill="#fff"/><path d="M329.28,152.53l7.05,13L345.85,183l5.9,10.87,9.52,17.54,7.05,13H31.68l7-13,9.52-17.54L54.15,183l9.52-17.54,7-13H329.28m0-1H70.72a1,1,0,0,0-.88.52l-7.05,13-9.52,17.54-5.9,10.86L37.85,211l-7,13a1,1,0,0,0,.87,1.48H368.32a1,1,0,0,0,.87-1.48l-7-13-9.52-17.54-5.9-10.86L337.21,165l-7-13a1,1,0,0,0-.88-.52Z" fill="#231f20"/><polygon points="361.27 211.45 38.73 211.45 48.25 193.91 351.75 193.91 361.27 211.45" fill="#e6e7e8"/><polygon points="345.85 183.04 54.15 183.04 63.67 165.5 336.33 165.5 345.85 183.04" fill="#e6e7e8"/><path d="M259.78,142.4a14.23,14.23,0,0,1,7.45,8.11c3.39,8.82,7.84,32.49,7.84,32.49q15,1.53,29.94,3.44c4.68.6,9.37,1.24,14,2a29.89,29.89,0,0,0,5.7.75c2-.06,4.53-.75,6.39,0a.71.71,0,0,1,.47.42.82.82,0,0,1-.17.61l-1.22,2a16.36,16.36,0,0,1,2.51,1.26,3.7,3.7,0,0,1-.53,6.22c-1.26.65-2.66.44-4,.55-1.62.12-3.23.23-4.87.2-3.29-.05-6.58-.36-9.87-.51-5.52-.25-11-.53-16.56-.87-12.18-.74-24.63-1.34-36.63-3.75-2.08-.42-6.17-.83-7.54-2.78C248.87,187.05,259.78,142.4,259.78,142.4Z" fill="#fff"/><path d="M323.82,201h-.52c-2.05,0-4.12-.16-6.13-.29-1.25-.08-2.5-.16-3.75-.22-6.15-.28-11.57-.56-16.57-.87l-2.85-.17c-11.19-.67-22.75-1.36-33.84-3.59l-1.06-.19c-2.33-.41-5.52-1-6.8-2.8-3.93-5.62,6.55-48.73,7-50.56a.45.45,0,0,1,.25-.32.49.49,0,0,1,.41,0,14.65,14.65,0,0,1,7.74,8.4c3.13,8.16,7.21,29.17,7.79,32.21,10.25,1.05,20.2,2.19,29.58,3.4,4.46.58,9.25,1.22,14.05,2l1.44.27a18.65,18.65,0,0,0,4.16.48c.55,0,1.15-.08,1.79-.15a10,10,0,0,1,4.8.21,1.17,1.17,0,0,1,.77.75,1.27,1.27,0,0,1-.24,1l-.93,1.52.4.17a7.78,7.78,0,0,1,1.7.91,4.2,4.2,0,0,1-.6,7,6.79,6.79,0,0,1-3.13.57c-.36,0-.71,0-1.06,0C326.9,200.87,325.38,201,323.82,201Zm-63.69-57.87c-3.1,12.78-10,44.87-7,49.16,1,1.49,4.12,2,6.15,2.38l1.08.2c11,2.21,22.56,2.9,33.71,3.57l2.85.17c5,.31,10.41.59,16.55.87,1.26.06,2.52.14,3.78.22,2,.13,4.05.26,6.08.29,1.69,0,3.38-.09,4.82-.2.37,0,.75,0,1.12,0a5.88,5.88,0,0,0,2.69-.46,3.19,3.19,0,0,0,.45-5.37,6.56,6.56,0,0,0-1.49-.78c-.32-.14-.64-.28-.94-.44a.46.46,0,0,1-.25-.31.48.48,0,0,1,0-.39l1.22-2a1,1,0,0,0,.12-.23l-.18-.08a9.35,9.35,0,0,0-4.31-.14c-.66.07-1.28.14-1.87.16a20.34,20.34,0,0,1-4.38-.5l-1.42-.26c-4.78-.79-9.56-1.43-14-2-9.5-1.22-19.56-2.38-29.93-3.43a.51.51,0,0,1-.44-.41c-.05-.23-4.48-23.73-7.82-32.4A14.1,14.1,0,0,0,260.13,143.11Z" fill="#231f20"/><path d="M331.07,177.83,328.73,200c0,1.95-4.2,3.54-9.39,3.54S310,201.91,310,200l-2.36-22.23a1,1,0,0,1,0-.17" fill="#68e1fd"/><path d="M319.34,204c-4.79,0-9.88-1.41-9.88-4l-2.36-22.18a1.5,1.5,0,0,1,0-.22.5.5,0,0,1,.5-.5.5.5,0,0,1,.5.5l0,.1,2.35,22.25c0,1.49,3.65,3.09,8.89,3.09s8.89-1.6,8.89-3l2.34-22.18a.5.5,0,0,1,.55-.45.5.5,0,0,1,.45.55L329.22,200C329.23,202.27,325,204,319.34,204Z" fill="#231f20"/><path d="M319.34,204c-4.79,0-9.88-1.42-9.88-4l-3.58-33.73a.5.5,0,0,1,1-.11l3.57,33.78c0,1.49,3.65,3.09,8.89,3.09s8.88-1.6,8.88-3l3.58-33.84a.49.49,0,0,1,.55-.44.5.5,0,0,1,.45.55L329.22,200C329.22,202.58,324.13,204,319.34,204Z" fill="#231f20"/><path d="M319.34,171.05c-6.52,0-13.46-1.71-13.46-4.86s6.94-4.86,13.46-4.86,13.46,1.7,13.46,4.86S325.86,171.05,319.34,171.05Zm0-8.72c-7.34,0-12.46,2-12.46,3.86s5.12,3.86,12.46,3.86,12.46-2,12.46-3.86S326.68,162.33,319.34,162.33Z" fill="#231f20"/><ellipse cx="319.26" cy="177.56" rx="11.68" ry="3.35" fill="#68e1fd"/><path d="M319.26,181.41c-6.05,0-12.18-1.32-12.18-3.85s6.13-3.85,12.18-3.85,12.18,1.32,12.18,3.85S325.32,181.41,319.26,181.41Zm0-6.7c-6.92,0-11.18,1.66-11.18,2.85s4.26,2.85,11.18,2.85,11.18-1.66,11.18-2.85S326.19,174.71,319.26,174.71Z" fill="#231f20"/><path d="M324.15,177l4.38-16.14" fill="#fff"/><path d="M324.15,177.52l-.13,0a.49.49,0,0,1-.35-.62l4.38-16.13a.51.51,0,0,1,.62-.35.5.5,0,0,1,.35.61l-4.39,16.14A.5.5,0,0,1,324.15,177.52Z" fill="#231f20"/><path d="M317.16,161.5a11.44,11.44,0,0,1,13.15-6c5.13,1.5,8.28,6.64,7.84,12.14Z" fill="#fff"/><path d="M338.15,168.14l-.14,0L317,162a.49.49,0,0,1-.32-.29.5.5,0,0,1,0-.43c2.73-5.14,8.5-7.77,13.73-6.24s8.66,6.85,8.2,12.66a.53.53,0,0,1-.22.37A.47.47,0,0,1,338.15,168.14ZM317.9,161.2,337.68,167a10.51,10.51,0,0,0-19.78-5.78Z" fill="#231f20"/><path d="M320.34,162.43c2.27-5,6.39-8,10-6.93s5.42,5.8,4.65,11.21Z" fill="#e6e7e8"/><path d="M335,167.21l-.14,0-14.62-4.28a.49.49,0,0,1-.31-.27.51.51,0,0,1,0-.42c2.44-5.34,6.78-8.3,10.56-7.2s5.84,5.94,5,11.76a.51.51,0,0,1-.22.35A.57.57,0,0,1,335,167.21Zm-13.91-5.09,13.49,3.94c.54-5-1.25-9.17-4.37-10.08S323.28,157.63,321.05,162.12Z" fill="#231f20"/><path d="M324.45,163.63a19.61,19.61,0,0,1,5.86-8.13,19.58,19.58,0,0,1,.55,10Z" fill="#fff"/><path d="M330.86,166l-.15,0-6.4-1.88a.55.55,0,0,1-.31-.25.51.51,0,0,1,0-.4,20,20,0,0,1,6-8.36.52.52,0,0,1,.44-.08.51.51,0,0,1,.33.31,20,20,0,0,1,.56,10.29.5.5,0,0,1-.23.32A.59.59,0,0,1,330.86,166Zm-5.75-2.7,5.37,1.57a19.38,19.38,0,0,0-.43-8.51A19.51,19.51,0,0,0,325.11,163.31Z" fill="#231f20"/><path d="M296.46,152.53l2.91.59,2.66.53,2.48.49,2.68.53,3.83.77.06.37.43,2.54.56,3.37.41,2.45.43,2.57.41,2.44h0l.45,2.66.41,2.45.48,2.91s-.23.58-1.34.65-1.19-.65-1.19-.65l-.24-1.45h0l-.42-2.51h0l-.45-2.66-.42-2.5-.41-2.43-.42-2.52-.49-2.9-.46-2.74v0l-3.3-.64-2.39-.46-2.79-.54-2.33-.45-1.93-.37S295.22,153.28,296.46,152.53Z" fill="#fff"/><path d="M313.18,178.35a1.39,1.39,0,0,1-1.55-1.09l-3.25-19.39L296,155.48a.5.5,0,0,1-.35-.27c-.37-.73-.71-2.32.58-3.1a.48.48,0,0,1,.35-.07l14.57,2.9a.51.51,0,0,1,.39.41l3.65,21.77a.61.61,0,0,1,0,.27c0,.09-.39.87-1.78,1Zm-16.76-23.8,12.49,2.4a.52.52,0,0,1,.4.43l3.31,19.74c0,.12.22.25.67.23a1.42,1.42,0,0,0,.85-.27l-3.56-21.22-14-2.79C296.12,153.48,296.3,154.19,296.42,154.55Z" fill="#231f20"/><path d="M319.34,171.05c-6.53,0-13.46-1.71-13.46-4.86a.5.5,0,0,1,1,0c0,1.82,5.12,3.86,12.46,3.86s12.46-2,12.46-3.86a.5.5,0,0,1,1,0C332.8,169.34,325.87,171.05,319.34,171.05Z" fill="#231f20"/><path d="M115.42,174.21s1.93-50.59,3.28-54.26,6.18-7.72,4.44-11.59S115,95.81,113.87,92.92s-2.7-11.64-8.49-14-3.67,3.79-2.51,7.65,2.12,24.72,1.54,35.53-13.32,59.87-13.32,59.87" fill="#fff"/><path d="M91.09,182.44l-.13,0a.51.51,0,0,1-.36-.61c.13-.49,12.74-49.12,13.31-59.76.6-11.09-.44-31.78-1.52-35.36l-.17-.56c-.91-3-2-6.42-.47-7.77.77-.69,2-.67,3.82.07,4.93,2,6.9,8.39,8.07,12.19.26.85.49,1.59.7,2.11a61.57,61.57,0,0,0,4.28,7.14,78.88,78.88,0,0,1,5,8.29c1.27,2.82-.56,5.6-2.34,8.29a19.45,19.45,0,0,0-2.09,3.67c-1,2.85-2.58,36.64-3.25,54.11a.51.51,0,0,1-.52.48.5.5,0,0,1-.48-.52c.08-2.07,2-50.71,3.31-54.41a20.58,20.58,0,0,1,2.19-3.88c1.63-2.46,3.31-5,2.27-7.33a79.06,79.06,0,0,0-4.91-8.16,62.76,62.76,0,0,1-4.37-7.31c-.22-.56-.45-1.31-.72-2.18-1.13-3.64-3-9.72-7.5-11.57-1.37-.56-2.32-.65-2.76-.25-1,.92,0,4.42.75,6.74l.17.56c1.21,4,2.13,25.07,1.56,35.7s-12.82,58-13.34,60A.5.5,0,0,1,91.09,182.44Z" fill="#231f20"/><path d="M148.59,159.31l-39,12.2s6-12.8,11.2-25.1,10-18.61,14.06-23,11.14-10.26,12-13.87-1.74-9.11-1.45-11.72.64-21.24-2.61-22.16c-6.66-1.88-9,23-11.59,27.37S120,124,111.56,134.11s-32.15,37.3-32.73,49.18,32.47,13.32,56.06,14.19,36.92,0,36.92,0,2.89-26.36-13-33.89" fill="#fff"/><path d="M154.88,198.37c-5.48,0-12.19-.1-20-.39-18.83-.69-47.27-1.74-54.67-9.8a6.6,6.6,0,0,1-1.88-4.92c.54-11.07,20.77-35.11,30.5-46.67.87-1,1.66-2,2.34-2.8,6.72-8,13.7-20.47,17.45-27.14.94-1.66,1.69-3,2.21-3.85.8-1.34,1.6-4.84,2.53-8.9,1.75-7.65,3.73-16.32,7.19-18.37A3,3,0,0,1,143,75.2c4.08,1.15,3,22.48,3,22.7a15.51,15.51,0,0,0,.69,4.3c.6,2.47,1.28,5.27.75,7.48-.66,2.75-4.53,6.54-8.28,10.21-1.4,1.38-2.73,2.67-3.84,3.88-3.69,4-8.61,10.17-14,22.83-4.32,10.18-9.21,20.81-10.73,24.09l37.88-11.86a.5.5,0,0,1,.3,1l-39,12.2a.5.5,0,0,1-.61-.69c.06-.13,6-12.94,11.2-25.09,5.42-12.81,10.42-19.09,14.16-23.12,1.13-1.22,2.46-2.53,3.87-3.92,3.48-3.4,7.41-7.26,8-9.73.47-2-.18-4.65-.75-7a15.49,15.49,0,0,1-.71-4.65c.46-4.11.29-20.9-2.25-21.62a2,2,0,0,0-1.64.23C138,78.23,136,87,134.33,94.12c-1,4.14-1.76,7.72-2.65,9.19-.51.85-1.25,2.18-2.18,3.83-3.77,6.7-10.78,19.17-17.56,27.29l-2.35,2.8c-9.65,11.48-29.74,35.35-30.26,46.08a5.58,5.58,0,0,0,1.62,4.2c7.11,7.75,35.31,8.79,54,9.47,21,.77,34,.16,36.44,0,.27-3.39,1.55-26.19-12.79-33a.49.49,0,0,1-.24-.66.5.5,0,0,1,.67-.24c16.06,7.6,13.34,34.13,13.31,34.4a.48.48,0,0,1-.46.44C171.75,198,165.75,198.37,154.88,198.37Z" fill="#231f20"/><path d="M239.59,136.87s-30.42,29.15-36.5,30.31-10.72-12.28-29.84-12.57-26.35,5.8-26.35,5.8,28.09,15.64,24.91,37.07c0,0,40.59,0,59.83-2.31s35.46-5,41-28S254.07,137.08,239.59,136.87Z" fill="#68e1fd"/><path d="M171.81,198a.49.49,0,0,1-.38-.17.49.49,0,0,1-.12-.4c3.1-20.84-24.38-36.41-24.66-36.57a.48.48,0,0,1-.25-.39.51.51,0,0,1,.17-.43c.31-.25,7.6-6.21,26.69-5.91,11.89.18,18.19,5.32,22.8,9.07,2.79,2.27,4.81,3.91,6.94,3.5,4.69-.89,25.76-20.13,36.24-30.17a.54.54,0,0,1,.35-.14c9.73.14,23.47,3.39,30.2,12,4,5.11,5.08,11.46,3.3,18.87-5.76,24.08-23.87,26.26-41.39,28.37C212.65,198,172.21,198,171.81,198Zm-24-37.61c4.25,2.56,27,17.25,24.57,36.61,5,0,41.45-.17,59.2-2.31,21.11-2.54,35.33-5.84,40.54-27.61,1.7-7.1.65-13.17-3.12-18-6.47-8.32-19.73-11.47-29.22-11.66-2.57,2.47-30.6,29.15-36.6,30.3-2.58.49-4.86-1.37-7.75-3.72-4.49-3.65-10.65-8.66-22.18-8.84C157.52,154.86,149.88,159,147.81,160.37Z" fill="#231f20"/><path d="M280,98a16.57,16.57,0,0,1-.08,4.17c-1.32,9.2-10.13,16.94-21.55,18.15-9.85,1-18.84-3.07-23.18-9.83a17.15,17.15,0,0,1-2.65-7.46A17.45,17.45,0,0,1,235,92.14c3.59-6,10.64-10.55,19.14-11.45,8.83-.94,17,2.28,21.67,7.83A17.34,17.34,0,0,1,280,98Z" fill="#fff"/><path d="M255.31,121c-8.61,0-16.47-3.83-20.57-10.22a17.46,17.46,0,0,1-2.73-7.68,18,18,0,0,1,2.57-11.18c3.82-6.44,11.12-10.81,19.51-11.7,8.68-.91,17.15,2.15,22.11,8a17.91,17.91,0,0,1,4.27,9.74h0a17.56,17.56,0,0,1-.08,4.29c-1.38,9.56-10.62,17.38-22,18.58A29.35,29.35,0,0,1,255.31,121ZM257.14,81a26.33,26.33,0,0,0-2.94.16c-8.08.85-15.1,5-18.76,11.21A16.91,16.91,0,0,0,233,103a16.48,16.48,0,0,0,2.57,7.24c4.39,6.83,13.3,10.6,22.71,9.61,10.92-1.16,19.8-8.62,21.11-17.73a16,16,0,0,0,.07-4,16.86,16.86,0,0,0-4-9.2C271.25,83.9,264.42,81,257.14,81Z" fill="#231f20"/><path d="M280,98a16.57,16.57,0,0,1-.08,4.17l-44.73,8.32a17.15,17.15,0,0,1-2.65-7.46A17.45,17.45,0,0,1,235,92.14c3.69-1.55,9.21-3,17.2-3.52a189.66,189.66,0,0,1,23.61-.1A17.34,17.34,0,0,1,280,98Z" fill="#231f20"/><ellipse cx="257.17" cy="114.72" rx="55.54" ry="22.12" transform="translate(-10.65 27.73) rotate(-6.05)" fill="#fff"/><path d="M245.33,138c-24.17,0-42.79-6.92-43.89-17.35-1.32-12.4,22.61-25.14,53.34-28.4s56.8,4.19,58.11,16.59-22.61,25.14-53.34,28.4A134.51,134.51,0,0,1,245.33,138Zm23.88-45.52a136.59,136.59,0,0,0-14.32.77c-30.18,3.2-53.71,15.44-52.46,27.3s26.83,18.89,57,15.7,53.72-15.45,52.46-27.3C310.85,99,292.77,92.45,269.21,92.45Z" fill="#231f20"/><path d="M281,103.71c0-.24-.13-.48-.19-.72a49.37,49.37,0,0,0-19.4-3.33,58.16,58.16,0,0,0-10.85,1.3c-3.05.88-6,1.93-9,3-1.88.87-3.72,1.85-5.54,2.85A102.72,102.72,0,0,0,232,134.31c-.11,4.05-.41,9.42,3.24,12.21,1,.79-.16-1,1.14-.92,4.45.3,9.17.82,13.62.31,4.15-.47,7.89-2.36,12-3,2.73-.41,5.15.32,7.66,1l1.55.41a17.67,17.67,0,0,0,11.75-.8c3.61-1.74,6.41-5.44,6.35-9.44-.05-3.33-1.93-6.31-3.38-9.3C282.58,118,282.61,110.9,281,103.71Z" fill="#fff"/><path d="M235.59,147.22a1.17,1.17,0,0,1-.68-.31c-3.71-2.83-3.57-8-3.45-12.12v-.49a102.87,102.87,0,0,1,4.1-27.69.53.53,0,0,1,.24-.29c1.73-.95,3.6-2,5.57-2.86l1-.33c2.64-.91,5.37-1.85,8.12-2.65a58.69,58.69,0,0,1,11-1.32,49.28,49.28,0,0,1,19.6,3.37.51.51,0,0,1,.3.34l.07.26.12.47h0c.51,2.35.86,4.71,1.2,7,.72,4.86,1.41,9.46,3.58,14,.27.54.54,1.09.82,1.64,1.26,2.47,2.57,5,2.61,7.87.06,4-2.61,8-6.63,9.9-4.3,2.07-9,1.59-12.09.83-.52-.12-1-.26-1.56-.4l-.37-.11c-2.36-.64-4.59-1.26-7.08-.88a38.76,38.76,0,0,0-5.54,1.41,35.42,35.42,0,0,1-6.44,1.56,62.4,62.4,0,0,1-11.59-.16l-2.11-.15a.34.34,0,0,0-.16,0,1.14,1.14,0,0,1,0,.26.77.77,0,0,1-.33.78A.54.54,0,0,1,235.59,147.22Zm.88-40.12a101.75,101.75,0,0,0-4,27.23v.49c-.11,3.79-.24,8.47,2.76,11.05a1,1,0,0,1,.27-.5,1.11,1.11,0,0,1,.89-.27l2.13.15a61.26,61.26,0,0,0,11.4.16,34.64,34.64,0,0,0,6.26-1.51,37.8,37.8,0,0,1,5.68-1.45c2.7-.41,5,.23,7.49.91l.38.1c.5.14,1,.28,1.53.4,3,.72,7.39,1.18,11.41-.76,3.68-1.78,6.12-5.39,6.07-9,0-2.6-1.29-5.06-2.5-7.43-.28-.55-.56-1.11-.83-1.66-2.24-4.66-3-9.55-3.67-14.28-.33-2.26-.68-4.61-1.19-6.92,0-.14-.07-.28-.11-.42v0a48.36,48.36,0,0,0-19-3.21,57.71,57.71,0,0,0-10.77,1.29c-2.69.78-5.41,1.72-8,2.62l-.91.31C239.93,105.23,238.13,106.19,236.47,107.1Z" fill="#231f20"/><path d="M276.84,107.44s3.35,11.14,1,19.35a12.19,12.19,0,0,1-9.85,9l-.77,14.71s-.32,7.53-9.48,5.89a15.86,15.86,0,0,1-11.91-9.77l.36-27.11s10.76-5.47,10.36-15.23C256.56,104.29,268.67,111,276.84,107.44Z" fill="#fff"/><path d="M260.21,157.13a14.6,14.6,0,0,1-2.55-.24,16.51,16.51,0,0,1-12.3-10.1.44.44,0,0,1,0-.16l.36-27.11a.49.49,0,0,1,.27-.44c.11,0,10.47-5.45,10.09-14.76a.5.5,0,0,1,.23-.45.49.49,0,0,1,.51,0c.12.06,12,6.49,19.84,3.12a.49.49,0,0,1,.41,0,.53.53,0,0,1,.27.3c.13.47,3.36,11.38,1,19.64a12.77,12.77,0,0,1-9.86,9.29l-.74,14.31a7.35,7.35,0,0,1-2.57,5.06A7.72,7.72,0,0,1,260.21,157.13Zm-13.87-10.58a15.47,15.47,0,0,0,11.5,9.35c2.89.52,5.14.15,6.7-1.09a6.41,6.41,0,0,0,2.19-4.32l.77-14.72a.5.5,0,0,1,.44-.47,11.59,11.59,0,0,0,9.43-8.65c2-7-.25-16.25-.86-18.54-7.17,2.67-16.7-1.62-19.44-3-.19,8.69-8.7,13.79-10.38,14.71Z" fill="#231f20"/><path d="M251.39,117.88s-4-10.44-9.47-4.27,1.65,13.62,6.22,13.25" fill="#fff"/><path d="M247.8,127.37c-2.72,0-5.93-2.26-7.46-5.31a7.52,7.52,0,0,1,1.21-8.78c1.45-1.64,3-2.34,4.5-2.06,3.52.63,5.72,6.25,5.81,6.49a.5.5,0,0,1-.93.35s-2.09-5.33-5.06-5.86c-1.17-.21-2.37.38-3.57,1.74a6.57,6.57,0,0,0-1.07,7.67c1.41,2.81,4.5,5,6.87,4.75a.51.51,0,0,1,.54.46.5.5,0,0,1-.46.54Z" fill="#231f20"/><path d="M266.11,126.77a11.94,11.94,0,0,1-3.23-.53.49.49,0,0,1-.32-.63.5.5,0,0,1,.63-.32c.79.26,3.12.8,4.34.24.43-.52-1.38-4.24-3.79-7.81a.5.5,0,0,1,.82-.56c.76,1.11,4.47,6.74,3.95,8.6a1,1,0,0,1-.56.68A4.43,4.43,0,0,1,266.11,126.77Z" fill="#231f20"/><path d="M268,135.8s-7.91.58-12.37-.81c0,0,4.33,11.85,11.8,12.17Z" fill="#231f20"/><path d="M267.44,147.66h0c-7.72-.33-12.06-12-12.25-12.5a.51.51,0,0,1,.11-.51.49.49,0,0,1,.51-.13c4.31,1.34,12.1.78,12.18.78a.52.52,0,0,1,.39.14.54.54,0,0,1,.15.38l-.57,11.37A.49.49,0,0,1,267.44,147.66Zm-11-11.92c1.15,2.66,4.89,10.22,10.48,10.88l.51-10.29A45.27,45.27,0,0,1,256.48,135.74Z" fill="#231f20"/><ellipse cx="260.57" cy="115.63" rx="1.15" ry="2.03" transform="translate(-0.3 0.68) rotate(-0.15)" fill="#231f20"/><ellipse cx="273.11" cy="115.6" rx="1.15" ry="2.03" transform="translate(-0.3 0.71) rotate(-0.15)" fill="#231f20"/><path d="M232.24,129c-.76,8.63-1.85,24.53,12,20.93a11.6,11.6,0,0,0,6.94-5.2c2.79-4.65-4.19-11.63-7.47-14.79" fill="#fff"/><path d="M240.53,150.94a7.89,7.89,0,0,1-5.28-1.77c-4.93-4.17-4-14.61-3.5-20.22a.5.5,0,0,1,.54-.46.5.5,0,0,1,.45.55c-.45,5-1.38,15.53,3.15,19.36,1.9,1.61,4.66,2,8.19,1a11,11,0,0,0,6.64-5c2.69-4.49-4.9-11.77-7.39-14.17a.49.49,0,0,1,0-.7.5.5,0,0,1,.71,0c4.58,4.39,10.34,10.77,7.56,15.4a12,12,0,0,1-7.24,5.43A15.18,15.18,0,0,1,240.53,150.94Z" fill="#231f20"/><circle cx="259.33" cy="116.56" r="6.08" fill="#231f20"/><circle cx="271.63" cy="116.59" r="6.08" fill="#231f20"/><path d="M262.17,131a6.59,6.59,0,0,1-4.46-1.44A5.11,5.11,0,0,1,256,126.3a.5.5,0,0,1,1-.06h0a4.1,4.1,0,0,0,1.35,2.58A6.12,6.12,0,0,0,263,130a.5.5,0,0,1,.07,1C262.76,131,262.46,131,262.17,131Z" fill="#231f20"/><path d="M232.63,164.36s8.62,52.24,18.29,53.49c17.85,2.32,53.16-20.37,53.16-20.37s18-1.64,18.06-3.18-6.08-1.84-6.08-1.84,10.81-.48,10.42-2.32-8.3-1.25-8.3-1.25S328.9,188,328,186s-9.85-1-9.85-1,9.27-1.84,8.21-3.87S308,184.3,308,184.3s6.47-3.76,4.44-6.08-10.72,7.43-10.72,7.43L261,200.46l-5.34-35.9s-2.2-9.27-12.24-9.27S232.63,164.36,232.63,164.36Z" fill="#fff"/><path d="M253.68,218.52a21.06,21.06,0,0,1-2.82-.17c-9.93-1.29-18.36-51.76-18.72-53.9a.29.29,0,0,1,0-.13c0-.09.93-9.53,11.31-9.53s12.7,9.56,12.72,9.65l5.26,35.34,39.95-14.55c1-1.16,7.19-7.87,10.16-7.87h0a1.61,1.61,0,0,1,1.22.53,2,2,0,0,1,.49,1.7c-.2,1.2-1.37,2.43-2.54,3.4,6-1.69,15.16-3.88,16.12-2.06a1.19,1.19,0,0,1,0,1.1c-.42.86-2,1.61-3.68,2.2,2.42,0,4.8.37,5.32,1.57a1.09,1.09,0,0,1-.07,1c-.47.77-2.16,1.34-4.06,1.74,1.37.24,2.44.7,2.61,1.51a1,1,0,0,1-.2.82c-.71.91-3.57,1.44-6.19,1.75a3.77,3.77,0,0,1,1.75.88,1.14,1.14,0,0,1,.31.84c-.08,1.3-6.27,2.53-18.39,3.64a223.05,223.05,0,0,1-19.84,11C271.39,215.32,261.07,218.52,253.68,218.52Zm-20.54-54.17c2.39,14.47,10.23,52,17.85,53,17.45,2.26,52.47-20.07,52.82-20.3A.63.63,0,0,1,304,197c7.91-.72,16.49-1.94,17.57-2.78a.05.05,0,0,0,0,0c-.6-.68-3.61-1.11-5.55-1.2a.5.5,0,0,1,0-1c5.05-.22,9.71-1,10-1.74-.16-.72-3.8-1.12-7.78-.83a.5.5,0,1,1-.08-1c3.56-.29,8.83-1.14,9.42-2.12-.44-1.12-5.18-1.24-9.32-.75a.5.5,0,0,1-.16-1c3-.59,7.36-1.89,7.86-2.94a.16.16,0,0,0,0-.2c-.77-1-9.86,1-17.85,3.38a.5.5,0,0,1-.4-.91c1.19-.69,4.31-2.83,4.57-4.44a1,1,0,0,0-.25-.88.59.59,0,0,0-.47-.19h0c-2.21,0-7.6,5.51-9.49,7.63a.39.39,0,0,1-.2.13L261.2,200.93a.47.47,0,0,1-.43,0,.49.49,0,0,1-.24-.35l-5.34-35.91a11.86,11.86,0,0,0-11.74-8.84C234.29,155.79,233.23,163.52,233.14,164.35Z" fill="#231f20"/><path d="M102.87,174.71a.51.51,0,0,1-.47-.31.51.51,0,0,1,.28-.65l6.76-2.7a.5.5,0,1,1,.37.92l-6.76,2.71Z" fill="#231f20"/><path d="M215.06,173.55c-4.32,0-14.85-5.69-15.3-5.93a.51.51,0,0,1-.2-.68.49.49,0,0,1,.68-.2c.11,0,10.75,5.81,14.82,5.81a.5.5,0,0,1,.5.5A.5.5,0,0,1,215.06,173.55Z" fill="#231f20"/></g></svg>