<svg xmlns="http://www.w3.org/2000/svg" viewBox="0 0 400 300"><g id="_383_rio_de_janeiro_flatline" data-name="#383_rio_de_janeiro_flatline"><rect x="39.82" y="106.14" width="320.57" height="147.73" fill="#e6e7e8"/><polygon points="39.82 110.08 360.72 110.08 360.7 45.82 39.5 45.82 39.82 110.08" fill="#fff"/><path d="M292.28,157.76c-.31,0-16-.69-13.58-1.37s27.22-3.28,31.25-6.4,8-4.9,13.24-7.29,5.81-7.46,14.45-10.09,10.13-.31,13.89-4.66,5.46-9.42,7.32-8.57a2.84,2.84,0,0,1,1.87,2.34v26.09S312.25,160.58,292.28,157.76Z" fill="#231f20"/><path d="M298.92,158.66a48.57,48.57,0,0,1-6.7-.4l-1.13-.06c-13-.66-13.08-1-13.14-1.61,0-.22.06-.53.61-.69s2.93-.51,6-1c7.77-1.1,22.22-3.15,25.07-5.35,4-3.13,8.08-5,13.19-7.29l.14-.07a15.32,15.32,0,0,0,4.83-3.83,20.07,20.07,0,0,1,9.68-6.28,38.71,38.71,0,0,1,7.5-1.52c2.74-.33,4-.48,6.16-3a39.84,39.84,0,0,0,3.54-5c1.65-2.57,2.85-4.43,4.37-3.74a3.31,3.31,0,0,1,2.16,2.8v26.09a.5.5,0,0,1-.37.49C360.41,148.41,321.21,158.66,298.92,158.66Zm-18.11-2.15c1.76.18,4.9.41,10.33.69l1.21.07h0a48.89,48.89,0,0,0,6.61.4c21,0,57.19-9.19,61.26-10.24V121.72a2.36,2.36,0,0,0-1.58-1.89c-.73-.34-1.83,1.38-3.1,3.37a44.81,44.81,0,0,1-3.63,5.08c-2.42,2.79-4.07,3-6.81,3.32a38.31,38.31,0,0,0-7.32,1.49,19,19,0,0,0-9.25,6,16.11,16.11,0,0,1-5.14,4.05l-.14.07c-5.25,2.39-9,4.11-13,7.17-3.06,2.36-17.13,4.36-25.54,5.55Z" fill="#231f20"/><path d="M39.5,194.92s98.44-6.47,109.88-5.06,16.69,5.63,20.82,3.38a46.14,46.14,0,0,1,10.23-3.57s39.33-3.75,42-2.34,8.63,5.91,8.63,5.91-10.08,22.43-4.88,27.88,17.65,19.61,17.65,19.61,101.34-30.82,104.5-37,12.25-3.7,12.25-3.7V153.82s-14.31,3.57-16.14,3.43l-.43-2.68h-4.22s-.7,4.08-.7,3.66l-3.05.59v-3.5l-6.25,1.07v3.25l-4.23.75v-2.63l-6.22,1.06v2.88h-5.45v-2.88L309.39,160l-4.6,3.38-4.46-.75v-2.81l-14.22,1.87-1,2.63s-4.88.75-4.6.19a6.93,6.93,0,0,0,0-2.44l-5.16,1.5-.19,2.25-3.56.94-.94-6.76-3.52.94v5.26H262l-.84-3.57-4.6,1.69v3.76l-4.88-.19-.19-3.94s-3.66.56-4.08,1.31a25.23,25.23,0,0,0-1,4.13l-4.13.19-.93-4.88-4,.18v5.26l-5.91-.94L230.08,167l-3.56.38-.19,2.62-2.25-.75-.19-1.69-2.72.1.28-2.26-4.79.1-.19,1.88-4-.19.37,2.53-3.75-.28v-1.69l-2.44.09.47,1.6-4.32.28-.47-2.44-5.25.38-.29,1.87-4-.28-.47-1.59-2.06.65-.38,3.29L175.65,171l-.66-3.29-3,.09-.47,3-3.47-.19-.29-1.88-3.56-.47-.75-2.72h-4.32l-.28,3.47-4,.85-.84-3-4.26.37-.33,3.29-4.23-.47-.66,2.62-3.38-.56v-2.81l-4.69.47-.57,2.9-2.91-.37-.09-4.22-4.41.37-.47,3-3.38.66-.28-2.81h-3.85V172h-4.78l-.66,1.12-2.63-.28.28-2.16-4.13-.37v2.72l-2.06-.38-.28-4.22-4,.66.28,3.47-4.22.19.09-2.91-3.75.47v3.75l-3.85.19v-2.63l-3.75.47.47,2.16-3.38-.75-.19,2-3.1-.47L80.57,173l-3.75-.19-.37,1.5L74,173.15l-.28-1.69-3.8,1v2.16l-4.08-.1-.19-2.91L62,171.56l-.19,2.34-3.19.66-.09,2.07-3.66-.19-.28-2.63-3.85-.19v2.82l-2.63-.28-.09-4.6-4.79-.1-.66-3.56-3.06-1.32Z" fill="#fff"/><path d="M243.79,241.23a.5.5,0,0,1-.38-.17c-.12-.14-12.5-14.21-17.63-19.59s3.29-25,4.62-28.07c-1.27-.94-6-4.44-8.25-5.63-1.83-1-25.92.9-41.67,2.4a45.92,45.92,0,0,0-10,3.51c-2.52,1.38-5.42.51-9.44-.69a66.11,66.11,0,0,0-11.68-2.63c-11.27-1.39-108.8,5-109.79,5.06a.51.51,0,0,1-.37-.13.52.52,0,0,1-.16-.37V166.58a.5.5,0,0,1,.23-.41.49.49,0,0,1,.47,0l3.06,1.32a.48.48,0,0,1,.3.37l.58,3.16,4.38.09a.5.5,0,0,1,.49.49l.08,4.16,1.64.17v-2.26a.55.55,0,0,1,.15-.36.57.57,0,0,1,.37-.14l3.85.19a.49.49,0,0,1,.47.45l.24,2.2,2.73.14.07-1.56a.51.51,0,0,1,.4-.47l2.83-.58.15-2a.5.5,0,0,1,.51-.46l3.66.09a.51.51,0,0,1,.49.47l.16,2.45,3.11.07V172.5a.52.52,0,0,1,.37-.49l3.8-1a.51.51,0,0,1,.4.06.54.54,0,0,1,.23.34l.23,1.43,1.66.76.23-.91a.51.51,0,0,1,.51-.38l3.75.19a.49.49,0,0,1,.47.45l.15,1.68,2.19.33.14-1.45a.53.53,0,0,1,.2-.36.54.54,0,0,1,.41-.08l2.61.58-.3-1.39a.52.52,0,0,1,.08-.4.49.49,0,0,1,.34-.2l3.76-.47a.47.47,0,0,1,.39.12.48.48,0,0,1,.17.37v2.11l2.85-.14v-3.28a.51.51,0,0,1,.44-.5l3.75-.47a.53.53,0,0,1,.4.13.48.48,0,0,1,.16.39l-.07,2.37,3.16-.15-.24-3a.51.51,0,0,1,.42-.54l4-.65a.47.47,0,0,1,.39.1.52.52,0,0,1,.19.36l.25,3.83,1.09.2v-2.12a.51.51,0,0,1,.55-.5l4.13.38a.5.5,0,0,1,.34.18.48.48,0,0,1,.11.38l-.22,1.65,1.8.19.49-.84a.5.5,0,0,1,.44-.25H120v-2.22a.5.5,0,0,1,.5-.5h3.85a.5.5,0,0,1,.5.45l.22,2.27,2.5-.49.42-2.66a.5.5,0,0,1,.45-.42l4.41-.37a.5.5,0,0,1,.38.12.52.52,0,0,1,.16.36l.09,3.8,2,.26.48-2.45a.49.49,0,0,1,.44-.4l4.69-.47a.52.52,0,0,1,.39.13.51.51,0,0,1,.16.37v2.39l2.51.42.54-2.18a.51.51,0,0,1,.54-.38l3.73.41.29-2.78a.49.49,0,0,1,.45-.45l4.25-.37a.51.51,0,0,1,.53.36l.72,2.55,3.21-.67.25-3.1a.5.5,0,0,1,.5-.46h4.32a.5.5,0,0,1,.48.37l.66,2.4,3.24.43a.5.5,0,0,1,.43.42l.22,1.47,2.61.14.4-2.55a.51.51,0,0,1,.48-.43l3-.09a.47.47,0,0,1,.5.4l.58,2.9,13.32.53.32-2.82a.5.5,0,0,1,.34-.42l2.07-.66a.46.46,0,0,1,.38,0,.5.5,0,0,1,.25.3l.37,1.26,3.23.22.21-1.42a.5.5,0,0,1,.46-.42l5.26-.38a.49.49,0,0,1,.52.41l.39,2,3.25-.21-.29-1a.53.53,0,0,1,.07-.44.55.55,0,0,1,.39-.21l2.44-.09a.55.55,0,0,1,.37.14.51.51,0,0,1,.15.36v1.23l2.67.2-.29-1.92a.51.51,0,0,1,.13-.41.45.45,0,0,1,.39-.16l3.56.16.15-1.4a.49.49,0,0,1,.48-.45l4.79-.1a.52.52,0,0,1,.38.17.48.48,0,0,1,.12.4l-.2,1.67,2.13-.08a.5.5,0,0,1,.52.45l.15,1.37,1.34.45.14-2a.49.49,0,0,1,.44-.46l3.57-.38a.49.49,0,0,1,.48.25l1.2,2,5.1.81V164.9a.5.5,0,0,1,.48-.5l4-.19a.5.5,0,0,1,.52.4l.85,4.46,3.3-.15a20.28,20.28,0,0,1,1-3.89c.49-.87,3.27-1.39,4.45-1.57a.51.51,0,0,1,.39.11.5.5,0,0,1,.18.36l.17,3.49,3.9.15v-3.24a.51.51,0,0,1,.33-.47l4.6-1.69a.47.47,0,0,1,.4,0,.49.49,0,0,1,.25.33l.76,3.18h4.22V161a.5.5,0,0,1,.37-.48l3.52-.94a.47.47,0,0,1,.4.07.49.49,0,0,1,.22.35l.86,6.2,2.68-.71.16-1.9a.5.5,0,0,1,.36-.44l5.16-1.5a.49.49,0,0,1,.41.06.5.5,0,0,1,.23.35,9.24,9.24,0,0,1,.09,2.22,27.36,27.36,0,0,0,3.65-.35l.93-2.36a.48.48,0,0,1,.4-.31l14.22-1.88a.51.51,0,0,1,.39.12.5.5,0,0,1,.17.38v2.39l3.83.65,4.43-3.26a.53.53,0,0,1,.17-.08l4.46-1.2a.51.51,0,0,1,.43.09.52.52,0,0,1,.2.4v2.38h4.45v-2.38a.51.51,0,0,1,.42-.5l6.22-1a.51.51,0,0,1,.4.11.48.48,0,0,1,.18.38v2l3.23-.57v-2.83a.51.51,0,0,1,.42-.5l6.24-1.06a.47.47,0,0,1,.41.11.49.49,0,0,1,.18.38v2.89l2.16-.41c.13-.65.41-2.2.6-3.31a.5.5,0,0,1,.49-.42H344a.51.51,0,0,1,.5.42l.35,2.25c2.16-.19,10.28-2.08,15.6-3.41a.52.52,0,0,1,.43.1.49.49,0,0,1,.19.39V200a.51.51,0,0,1-.63.48c-.09,0-8.74-2.32-11.67,3.45-3.22,6.33-100.66,36-104.81,37.28Zm-25.26-54.7a13.14,13.14,0,0,1,4.09.35,103.9,103.9,0,0,1,8.7,6,.5.5,0,0,1,.16.6c-.1.23-9.89,22.19-5,27.34s15.78,17.48,17.45,19.38c28.35-8.63,101.39-31.76,103.9-36.68,2.8-5.52,10-4.55,12.19-4.11V154.46c-3,.74-14,3.4-15.68,3.28a.5.5,0,0,1-.46-.42l-.35-2.25h-3.38c-.64,3.74-.67,3.73-1.16,3.69h0l-2.88.55a.5.5,0,0,1-.41-.11.46.46,0,0,1-.18-.38v-2.91l-5.25.9v2.83a.49.49,0,0,1-.41.49l-4.23.75a.48.48,0,0,1-.41-.11.49.49,0,0,1-.18-.38v-2l-5.22.89v2.46a.5.5,0,0,1-.5.5h-5.45a.5.5,0,0,1-.5-.5v-2.23l-3.74,1-4.52,3.33a.52.52,0,0,1-.38.09l-4.46-.75a.51.51,0,0,1-.42-.5V160.4l-13.36,1.76-.92,2.35a.53.53,0,0,1-.39.32c-4.61.71-4.91.31-5.08.07a.64.64,0,0,1,0-.6,5.08,5.08,0,0,0,0-1.58L275.79,164l-.16,1.91a.51.51,0,0,1-.37.44l-3.57.94a.5.5,0,0,1-.62-.42l-.86-6.2-2.6.7v4.87a.5.5,0,0,1-.5.5H262a.49.49,0,0,1-.48-.39l-.72-3-3.74,1.37v3.41a.5.5,0,0,1-.52.5l-4.88-.19a.5.5,0,0,1-.48-.48l-.16-3.38a8.71,8.71,0,0,0-3.18,1,23,23,0,0,0-.92,4,.51.51,0,0,1-.47.42l-4.13.19a.51.51,0,0,1-.52-.41l-.85-4.45-3.13.14v4.78a.49.49,0,0,1-.17.38.48.48,0,0,1-.41.11l-5.91-.93a.55.55,0,0,1-.36-.25l-1.15-2-2.82.3-.16,2.21a.5.5,0,0,1-.22.38.52.52,0,0,1-.44.06l-2.25-.75a.51.51,0,0,1-.34-.42l-.14-1.23-2.26.08a.46.46,0,0,1-.38-.17.48.48,0,0,1-.13-.4l.21-1.67-3.76.07-.15,1.43a.5.5,0,0,1-.52.45l-3.43-.15.29,1.93a.5.5,0,0,1-.53.57L209,169.9a.5.5,0,0,1-.46-.5v-1.17l-1.28.05.29,1a.55.55,0,0,1-.07.43.52.52,0,0,1-.38.21l-4.32.28a.51.51,0,0,1-.52-.4l-.39-2-4.41.32-.22,1.48a.49.49,0,0,1-.53.42l-4-.28a.5.5,0,0,1-.44-.36l-.33-1.1-1.26.4-.34,3a.49.49,0,0,1-.52.44l-14.17-.56a.5.5,0,0,1-.47-.41l-.58-2.87-2.16.07-.41,2.59a.5.5,0,0,1-.52.43l-3.47-.19a.5.5,0,0,1-.47-.43l-.22-1.5-3.2-.42a.49.49,0,0,1-.41-.36l-.65-2.36h-3.48l-.24,3a.49.49,0,0,1-.4.45l-4,.85a.51.51,0,0,1-.59-.36l-.73-2.6-3.43.3-.29,2.88a.53.53,0,0,1-.19.34.48.48,0,0,1-.37.1l-3.8-.42-.55,2.21a.5.5,0,0,1-.56.37l-3.38-.57a.5.5,0,0,1-.42-.49v-2.26l-3.77.38-.5,2.54a.5.5,0,0,1-.55.4l-2.91-.37a.52.52,0,0,1-.44-.49l-.08-3.69-3.49.3-.41,2.61a.5.5,0,0,1-.39.42l-3.38.65a.48.48,0,0,1-.4-.09.52.52,0,0,1-.2-.35l-.23-2.36H121V172a.5.5,0,0,1-.5.5H116l-.51.88a.49.49,0,0,1-.48.24l-2.63-.28a.46.46,0,0,1-.34-.19.45.45,0,0,1-.1-.37l.21-1.65-3.07-.27v2.17a.5.5,0,0,1-.59.49l-2.06-.37a.49.49,0,0,1-.41-.46l-.25-3.68-3,.5.24,3a.49.49,0,0,1-.12.37.53.53,0,0,1-.36.17l-4.22.19a.48.48,0,0,1-.37-.15.46.46,0,0,1-.15-.37l.07-2.32-2.73.34v3.31a.5.5,0,0,1-.48.5l-3.84.19a.44.44,0,0,1-.37-.14.48.48,0,0,1-.16-.36v-2.06l-2.65.33.35,1.62a.49.49,0,0,1-.13.46.5.5,0,0,1-.46.14l-2.83-.63-.13,1.41a.51.51,0,0,1-.19.34.46.46,0,0,1-.39.1l-3.09-.46a.52.52,0,0,1-.43-.45l-.14-1.64-2.91-.14-.28,1.1a.5.5,0,0,1-.27.33.45.45,0,0,1-.42,0l-2.44-1.12a.52.52,0,0,1-.29-.37l-.19-1.15-2.9.79v1.78a.47.47,0,0,1-.15.35.48.48,0,0,1-.36.15l-4.08-.1a.5.5,0,0,1-.49-.47l-.16-2.45-2.73-.07-.15,1.87a.49.49,0,0,1-.39.45l-2.82.58L59,176.65a.53.53,0,0,1-.17.35.52.52,0,0,1-.36.13l-3.66-.19a.5.5,0,0,1-.47-.45l-.23-2.2-2.9-.14v2.29a.51.51,0,0,1-.55.5l-2.63-.29a.5.5,0,0,1-.45-.48l-.08-4.12L43.21,172a.48.48,0,0,1-.48-.4l-.61-3.31L40,167.34v27c8.62-.56,98.4-6.39,109.44-5A69,69,0,0,1,161.29,192c3.92,1.18,6.51,1.95,8.68.77a46.19,46.19,0,0,1,10.36-3.62C183.71,188.86,208.46,186.53,218.53,186.53Z" fill="#231f20"/><path d="M239.75,208.06c0-.56-.56-13.28-.56-13.28l5.22-1,1.06,13.65" fill="#fff"/><path d="M239.75,208.56a.5.5,0,0,1-.5-.5c0-.43-.37-8.86-.56-13.25a.51.51,0,0,1,.4-.52l5.22-1a.49.49,0,0,1,.59.45L246,207.41a.5.5,0,0,1-.46.54.52.52,0,0,1-.54-.46l-1-13.09-4.24.79c.1,2.27.54,12.36.54,12.87A.5.5,0,0,1,239.75,208.56Z" fill="#231f20"/><path d="M247,198.46l-1.52,1.48c-.62.6-1.29,1.46-.89,2.23.18.35.55.57.74.92.44.8-.26,1.73-.91,2.36.45.2,1.07-.14,1.45.18a.82.82,0,0,1,.1.94c-.14.3-.37.56-.49.88a1.73,1.73,0,0,0,1.06,2.1,2.74,2.74,0,0,0,2.48-.41,5.9,5.9,0,0,1,2.07,2.68,5.76,5.76,0,0,0,.88,2,3.42,3.42,0,0,0,2.18.91,11.63,11.63,0,0,0,6.44-1.09c.54-.26,1.12-.69,1.08-1.28s-.48-.89-.34-1.34a1,1,0,0,1,.39-.48c1.07-.89,2.4-1.79,2.5-3.17s-1.11-2.5-1.85-3.7a2.11,2.11,0,0,1-.35-1,3.12,3.12,0,0,1,.24-1,4.09,4.09,0,0,0,.1-2.84,2.18,2.18,0,0,0-2.27-1.41c.45-.55-.11-1.36-.72-1.73s-1.38-.7-1.53-1.39c0-.19,0-.39-.07-.58a1,1,0,0,0-1.78-.25c0-.75-1-1.06-1.75-.78a2.52,2.52,0,0,0-1.32,1.15,1.53,1.53,0,0,1-.44.64,1.86,1.86,0,0,1-.88.15,1.42,1.42,0,0,0-1.3,1.78,9.28,9.28,0,0,0-4.44,2.85,2,2,0,0,1,1.61-1.51,2.29,2.29,0,0,1,1.63.44,3.19,3.19,0,0,1,.59-1.57c.62-1,1.36-2.18,2.55-2.45" fill="#68e1fd"/><path d="M185.22,182c.19-.1,12.59-.29,14.88,0S218,180.85,218,180.85l-7.6-5.26h2l18.68,9.3s14.55-.57,17-1,6.66-.56,6.38-1.59-3.38-4.13-.66-3.38a8.75,8.75,0,0,1,4.32,2.91s5-.19,6.41-1,3.07-.47,2.65.56-1.36,2.44,0,2.81,6.9,2.73,6.9,2.73l-3.85.84s-6.85-3.47-8.35-3.75a26,26,0,0,0-8.08.75c-2.53.65-.48,3.56-4.18,4.32s-7.27,2.81-9.61,1.31-9.67-3.57-11.64-3.57-5.63-2.53-5.63-2.53-15,.37-18.3,0-21.78-.28-21.78-.28Z" fill="#68e1fd"/><path d="M326.1,195.65a5.91,5.91,0,0,1,4.72,2.18,1.8,1.8,0,0,1,2.6.15,2.21,2.21,0,0,1,3.08.22,3,3,0,0,1,4.18-1.29,1.87,1.87,0,0,1,3.37-.29,1.51,1.51,0,0,1,1.34-1.37,2.86,2.86,0,0,1,2,.57,1.52,1.52,0,0,0,.68.32,1.93,1.93,0,0,0,.71-.16,2.08,2.08,0,0,1,2.35,1,1.22,1.22,0,0,0,.36.52c.45.29.93-.29,1.34-.64a1.85,1.85,0,0,1,2.23-.08c.32.23.56.56.88.79a3.24,3.24,0,0,0,2,.33,3.72,3.72,0,0,1,2,.26c.6.33,1.08,1.33.62,1.85l.18,21.13H339.41a26.87,26.87,0,0,0-5.63-5.83c-.63-.43-1.29-.81-1.9-1.28a15.67,15.67,0,0,1-2.23-2.23,16.67,16.67,0,0,1-3.37-5.28c-.32-.93-.49-1.91-.89-2.8a13.66,13.66,0,0,1-1.31-2.83,5.54,5.54,0,0,1,.81-3.54,1,1,0,0,1,.39-.48.36.36,0,0,1,.52.17" fill="#68e1fd"/><path d="M360.72,221.63H339.41a.51.51,0,0,1-.4-.19,26.39,26.39,0,0,0-5.51-5.73l-.73-.48c-.41-.26-.81-.52-1.19-.81a16.21,16.21,0,0,1-2.31-2.3,17.37,17.37,0,0,1-3.46-5.45c-.13-.37-.23-.75-.34-1.12a11.26,11.26,0,0,0-.54-1.64c-.14-.32-.32-.62-.49-.93a6.55,6.55,0,0,1-.85-2,6.07,6.07,0,0,1,.85-3.86,1.48,1.48,0,0,1,.61-.69.91.91,0,0,1,.79,0,.78.78,0,0,1,.44.5.5.5,0,0,1-.35.62.49.49,0,0,1-.5-.15,1.36,1.36,0,0,1-.1.21,5.17,5.17,0,0,0-.76,3.21,5.83,5.83,0,0,0,.75,1.71c.18.34.37.67.52,1a12,12,0,0,1,.59,1.78c.1.36.2.71.32,1.06a16.16,16.16,0,0,0,3.28,5.13,14.23,14.23,0,0,0,2.16,2.16c.36.27.74.52,1.12.76l.76.5a26.47,26.47,0,0,1,5.58,5.74h20.57L360,200a.5.5,0,0,1,.13-.34.36.36,0,0,0,0-.29,1.24,1.24,0,0,0-.54-.79,3.35,3.35,0,0,0-1.73-.19,3.63,3.63,0,0,1-2.32-.42,4.14,4.14,0,0,1-.54-.47,2.73,2.73,0,0,0-.35-.33,1.37,1.37,0,0,0-1.61.06l-.19.17c-.39.36-1,1-1.75.52a1.53,1.53,0,0,1-.49-.62l0-.1a1.57,1.57,0,0,0-1.77-.74l-.15,0a1.66,1.66,0,0,1-.74.13,1.79,1.79,0,0,1-.86-.37,2.49,2.49,0,0,0-1.67-.52,1,1,0,0,0-.92.87.5.5,0,0,1-.93.25,1.37,1.37,0,0,0-2.46.21.46.46,0,0,1-.31.3.5.5,0,0,1-.43,0,2.49,2.49,0,0,0-3.45,1.06.48.48,0,0,1-.39.3.49.49,0,0,1-.46-.17,1.7,1.7,0,0,0-2.35-.17.52.52,0,0,1-.38.13.48.48,0,0,1-.35-.19,1.21,1.21,0,0,0-.91-.44,1.2,1.2,0,0,0-.94.33.51.51,0,0,1-.39.15.52.52,0,0,1-.36-.19,5.44,5.44,0,0,0-4.31-2,.47.47,0,0,1-.52-.48.5.5,0,0,1,.48-.52,6.35,6.35,0,0,1,4.81,2,2.25,2.25,0,0,1,1.29-.3,2.41,2.41,0,0,1,1.29.47A2.71,2.71,0,0,1,335,197a2.85,2.85,0,0,1,1.33.45,3.48,3.48,0,0,1,1.79-1.25,3.44,3.44,0,0,1,2.31.08,2.37,2.37,0,0,1,3.38-.57,2.17,2.17,0,0,1,1.47-.91,3.35,3.35,0,0,1,2.31.64,1.39,1.39,0,0,0,.44.25,1.08,1.08,0,0,0,.34-.09l.19-.06a2.58,2.58,0,0,1,2.94,1.24l0,.12a1.12,1.12,0,0,0,.13.21c.1,0,.39-.27.53-.4l.21-.19a2.36,2.36,0,0,1,2.86-.12,4.79,4.79,0,0,1,.47.43,3.16,3.16,0,0,0,.39.35,2.83,2.83,0,0,0,1.69.26,4,4,0,0,1,2.29.31,2.2,2.2,0,0,1,1,1.5,1.39,1.39,0,0,1-.16.95l.18,21a.5.5,0,0,1-.5.51Z" fill="#231f20"/><polygon points="346.74 207.38 351.2 207.38 353.12 205.91 348.29 203.7 343.93 204.64 342.94 205.54 346.74 207.38" fill="#fff"/><path d="M351.2,207.88h-4.46a.59.59,0,0,1-.22,0l-3.8-1.84a.47.47,0,0,1-.27-.38.49.49,0,0,1,.15-.44l1-.9a.57.57,0,0,1,.23-.12l4.37-.94a.48.48,0,0,1,.31,0l4.83,2.2a.52.52,0,0,1,.29.4.51.51,0,0,1-.19.46l-1.93,1.46A.46.46,0,0,1,351.2,207.88Zm-4.34-1H351l1.13-.86-3.93-1.79-4.07.87-.34.31Z" fill="#231f20"/><path d="M345.38,210.13l1.78-1.78s6,.56,6,.7-1.59,2.58-1.59,2.58Z" fill="#fff"/><path d="M351.53,212.13h-.12l-6.15-1.5a.51.51,0,0,1-.36-.35.5.5,0,0,1,.13-.49l1.78-1.78a.5.5,0,0,1,.4-.15c6.1.57,6.17.68,6.33.92a.53.53,0,0,1,.06.44A27.43,27.43,0,0,1,352,211.9.48.48,0,0,1,351.53,212.13Zm-5.17-2.27,4.94,1.2c.35-.56.76-1.2,1-1.66-1-.13-3.07-.35-5-.53Z" fill="#231f20"/><path d="M355.33,207.38c-.19.08-1.43-2.32-1.43-2.32l4.76-.42,1.83.89-.19,2.82Z" fill="#fff"/><path d="M360.3,208.85h-.09l-4.85-1c-.35.08-.69-.25-1.9-2.6a.49.49,0,0,1,0-.47.5.5,0,0,1,.39-.25l4.77-.43a.58.58,0,0,1,.26.05l1.83.89a.51.51,0,0,1,.28.49l-.19,2.81a.52.52,0,0,1-.19.37A.57.57,0,0,1,360.3,208.85Zm-4.76-1.94,4.3.84.13-1.91-1.4-.69-3.87.35A13.94,13.94,0,0,0,355.54,206.91Z" fill="#231f20"/><path d="M354.49,210.88a8.91,8.91,0,0,1,0-2c.14,0,6.21.55,6.21.55l-.21,3.29Z" fill="#fff"/><path d="M360.49,213.21a.32.32,0,0,1-.14,0l-6-1.83a.5.5,0,0,1-.35-.48s0-.18,0-.35c-.09-1.63-.07-1.86.2-2.06a.52.52,0,0,1,.47-.08c.22,0,3.78.34,6.11.53a.49.49,0,0,1,.45.53l-.21,3.3a.49.49,0,0,1-.21.37A.52.52,0,0,1,360.49,213.21Zm-5.52-2.7,5.06,1.54.14-2.18c-3.15-.26-4.58-.39-5.25-.45,0,.35,0,.83.05,1.06Zm0,.37h0Z" fill="#231f20"/><polyline points="336 202.76 340.83 202.95 342.94 203.99 341.39 206.71 336 206.71 336.46 202.48" fill="#fff"/><path d="M341.39,207.21H336a.5.5,0,0,1-.38-.17.51.51,0,0,1-.12-.39l.38-3.4a.49.49,0,0,1-.38-.5.46.46,0,0,1,.52-.48h0a.49.49,0,0,1,.5-.28.48.48,0,0,1,.41.31l3.92.15a.65.65,0,0,1,.2.05l2.11,1a.48.48,0,0,1,.26.3.53.53,0,0,1,0,.39L341.83,207A.51.51,0,0,1,341.39,207.21Zm-4.84-1h4.55l1.14-2-1.53-.75-3.83-.15Z" fill="#231f20"/><polygon points="337.85 205.53 349.32 214.47 355.59 213.06 360.7 215.53 360.7 232.28 347.49 234.32 334.47 223.98 337.85 205.53" fill="#231f20"/><path d="M347.49,234.82a.45.45,0,0,1-.31-.11l-13-10.34a.5.5,0,0,1-.18-.48l3.38-18.45a.5.5,0,0,1,.8-.3l11.28,8.79,6-1.35a.44.44,0,0,1,.32,0l5.12,2.47a.5.5,0,0,1,.28.45v16.75a.51.51,0,0,1-.42.5l-13.21,2Zm-12.47-11,12.61,10,12.57-2v-16l-4.67-2.25-6.1,1.37a.5.5,0,0,1-.41-.09l-10.83-8.44Z" fill="#231f20"/><polygon points="329.75 193.24 329.75 201.02 336.79 201.59 339.75 204.64 337.99 225.59 313 212.78 311.3 203.32 329.75 193.24" fill="#d1d3d4"/><path d="M338,226.09a.46.46,0,0,1-.23-.05l-25-12.81a.49.49,0,0,1-.26-.36l-1.71-9.46a.51.51,0,0,1,.26-.53l18.46-10.08a.5.5,0,0,1,.49,0,.5.5,0,0,1,.24.43v7.32l6.58.53a.51.51,0,0,1,.32.15l3,3a.52.52,0,0,1,.14.39l-1.76,21a.51.51,0,0,1-.26.39A.5.5,0,0,1,338,226.09Zm-24.54-13.64,24.1,12.36,1.68-20-2.66-2.76-6.86-.55a.51.51,0,0,1-.46-.5v-6.94l-17.4,9.51Z" fill="#231f20"/><path d="M149.71,217.83s-1.07-1,.62-2S185,210,185,210s13.87-10.28,15.56-10.42,19.33-3.33,24-2.47a51,51,0,0,1,7.41,2.1l29.19-4.47V199l-40.36,2.77s-17.42-.35-25.07,5.28-12,5.64-12,5.64Z" fill="#fff"/><path d="M149.71,218.33a.49.49,0,0,1-.34-.14,1.63,1.63,0,0,1-.48-1.31,2,2,0,0,1,1.2-1.44c1.7-.92,30.76-5.29,34.68-5.88,2.55-1.89,14-10.29,15.71-10.44.35,0,1.47-.2,3-.44,5.64-.88,17.37-2.71,21.13-2a51.75,51.75,0,0,1,7.37,2.08l29.06-4.44a.5.5,0,0,1,.58.49V199a.5.5,0,0,1-.47.5l-40.35,2.77c-.22,0-17.38-.28-24.82,5.18-7.7,5.67-12.13,5.74-12.31,5.74l-33.91,5.1Zm72.67-20.83c-4.82,0-14,1.42-18.72,2.16-1.63.26-2.71.43-3.1.46-1,.1-8.65,5.39-15.3,10.32a.47.47,0,0,1-.22.09c-13.2,2-33.28,5.15-34.47,5.79-.41.22-.65.47-.69.68a.54.54,0,0,0,.06.29l33.68-5.06c.11,0,4.41-.11,11.8-5.55,7.7-5.67,24.66-5.39,25.38-5.38l39.85-2.74v-3.19L232,199.74a.52.52,0,0,1-.25,0,52.73,52.73,0,0,0-7.33-2.07A12,12,0,0,0,222.38,197.5Z" fill="#231f20"/><path d="M236.84,208.72s2.39.88,5.91,6.38a36.7,36.7,0,0,1,4.65,11.69s-11,14.08-22.1,13.94-79.83-3.8-82.22-4.23,2.11-9.57,2.11-9.57l4.52-6.85s27.35-4.32,32.65-4.41S203.76,204,203.76,204Z" fill="#fff"/><path d="M225.46,241.23h-.17c-11.36-.15-80.06-3.84-82.3-4.23a1.23,1.23,0,0,1-.9-.68c-1-2,2-8.35,2.65-9.61l4.56-6.9a.47.47,0,0,1,.34-.22c1.11-.18,27.43-4.33,32.71-4.42,5.09-.09,21-11.5,21.11-11.62a.6.6,0,0,1,.37-.09l33.08,4.77.1,0c.11,0,2.59,1,6.16,6.58a36.67,36.67,0,0,1,4.72,11.87.48.48,0,0,1-.1.4C247.34,227.68,236.64,241.23,225.46,241.23ZM150,220.54l-4.4,6.67c-1.32,2.68-3.23,7.47-2.63,8.66a.23.23,0,0,0,.19.14c2.22.39,70.79,4.07,82.13,4.22h.16c10,0,20.1-12,21.4-13.57a36.36,36.36,0,0,0-4.53-11.29c-3.1-4.86-5.31-6-5.63-6.16l-32.82-4.73c-1.81,1.3-16.35,11.6-21.51,11.69C177.41,216.26,152.61,220.13,150,220.54Z" fill="#231f20"/><polygon points="281.98 185.73 271.75 185.73 261.15 194.78 261.15 199.03 272.41 188.58 281.98 188.44 281.98 185.73" fill="#fff"/><path d="M261.15,199.53a.45.45,0,0,1-.2,0,.51.51,0,0,1-.3-.46v-4.25a.52.52,0,0,1,.17-.38l10.61-9.05a.47.47,0,0,1,.32-.12H282a.5.5,0,0,1,.5.5v2.71a.5.5,0,0,1-.49.5l-9.38.14L261.49,199.4A.5.5,0,0,1,261.15,199.53Zm.5-4.52v2.88l10.42-9.68a.51.51,0,0,1,.33-.13l9.08-.13v-1.72h-9.54Z" fill="#231f20"/><path d="M284.42,188.44l-12,.14L261.15,199s8.16,7.07,7.88,7.16,6.57.66,6.29.75,22.82,3.29,22.62,3.19,28.53-6.76,28.53-6.76l3.28-10.13-18.3-5.54Z" fill="#fff"/><path d="M297.92,210.63h0c-.48,0-6.43-.84-11.66-1.57-7.91-1.1-10.3-1.44-11.05-1.7l0,0c-.22-.06-1.85-.22-3-.34-3.33-.33-3.53-.35-3.58-.73-.67-.75-5-4.58-7.72-6.92a.48.48,0,0,1-.17-.37.51.51,0,0,1,.16-.38l11.26-10.45a.51.51,0,0,1,.33-.13l12-.14,27-.74.16,0,18.3,5.54a.5.5,0,0,1,.3.25.5.5,0,0,1,0,.38L327,203.53a.51.51,0,0,1-.37.33c-11,2.56-27.73,6.47-28.44,6.73h0A.54.54,0,0,1,297.92,210.63Zm-22.43-4.15c.91.21,21.45,3.1,22.46,3.15v0c1.39-.49,6.8-1.75,28.13-6.7l3-9.38-17.73-5.37-26.95.74h0l-11.82.14L261.9,199c5.22,4.53,6.9,6.09,7.42,6.73.47.07,1.85.21,2.9.32A25.34,25.34,0,0,1,275.49,206.48Zm8.93-18h0Z" fill="#231f20"/><path d="M313.89,193.24l.38-15.21-24.5-.18.94,20.18s17.83,1.31,18.77.93S313.89,193.24,313.89,193.24Z" fill="#d1d3d4"/><path d="M308.3,199.52c-3.8,0-14.09-.74-17.63-1a.49.49,0,0,1-.46-.47l-.94-20.18a.55.55,0,0,1,.14-.37.46.46,0,0,1,.37-.15l24.49.18a.52.52,0,0,1,.36.16.51.51,0,0,1,.14.36l-.38,15.2a.5.5,0,0,1-.08.26c-.83,1.29-3.63,5.51-4.64,5.92A5.93,5.93,0,0,1,308.3,199.52Zm-17.11-2c6.73.49,17.25,1.15,18.13.93.48-.22,2.48-3,4.08-5.41l.36-14.55-23.46-.18Zm22.7-4.32h0Z" fill="#231f20"/><polygon points="289.77 199.72 297.94 201.02 312.02 199.15 314.79 197.23 314.79 193.8 313.89 193.24 312.02 195.4 297.61 196.34 290.99 195.3 289.77 195.96 289.77 199.72" fill="#d1d3d4"/><path d="M297.94,201.52h-.07l-8.18-1.3a.51.51,0,0,1-.42-.5V196a.5.5,0,0,1,.27-.44l1.22-.66a.47.47,0,0,1,.31-.05l6.56,1,14.15-.92,1.74-2a.48.48,0,0,1,.64-.09l.89.56a.49.49,0,0,1,.24.42v3.43a.49.49,0,0,1-.22.41l-2.77,1.92a.53.53,0,0,1-.22.08L298,201.52Zm-7.67-2.23,7.68,1.23,13.88-1.85,2.46-1.7v-2.89l-.3-.19-1.6,1.84a.49.49,0,0,1-.34.17l-14.41.93h-.11l-6.45-1-.81.44Z" fill="#231f20"/><polygon points="283.2 173.15 281.98 174.94 291.93 178.26 314.27 178.03 313.86 175.34 312.02 173.95 283.2 173.15" fill="#fff"/><path d="M291.93,178.76a.45.45,0,0,1-.16,0l-9.94-3.32a.49.49,0,0,1-.32-.31.49.49,0,0,1,.06-.44l1.22-1.79a.57.57,0,0,1,.43-.22l28.81.8a.53.53,0,0,1,.29.1l1.84,1.39a.47.47,0,0,1,.19.32l.41,2.7a.49.49,0,0,1-.49.57l-22.33.23Zm-9.16-4.09,9.24,3.09,21.68-.22-.29-1.93-1.56-1.16-28.38-.79Z" fill="#231f20"/><polygon points="291.56 171.28 285.64 171.28 283.2 173.15 292.98 176.63 311.64 176.63 312.02 173.95 305.45 172.5 291.56 171.28" fill="#fff"/><path d="M311.64,177.13H293a.47.47,0,0,1-.17,0L283,173.62a.49.49,0,0,1-.33-.39.48.48,0,0,1,.19-.47l2.44-1.88a.47.47,0,0,1,.3-.1h6L305.49,172l6.63,1.46a.5.5,0,0,1,.39.56l-.37,2.68A.51.51,0,0,1,311.64,177.13Zm-18.58-1h18.15l.25-1.79L305.34,173l-13.8-1.21h-5.73L284.24,173Z" fill="#231f20"/><polygon points="296.93 174.94 306.95 174.94 306.95 147.25 294.37 142.7 296.93 174.94" fill="#fff"/><path d="M307,175.44h-10a.5.5,0,0,1-.5-.46l-2.56-32.24a.49.49,0,0,1,.19-.44.52.52,0,0,1,.48-.07l12.58,4.55a.5.5,0,0,1,.33.47v27.69A.51.51,0,0,1,307,175.44Zm-9.56-1h9.06V147.6l-11.52-4.17Z" fill="#231f20"/><path d="M279.45,100.7H278s-2.11-1-3.17-.61-.84,1.13-.84,1.13-2.4.35-1.9,1.12a4.68,4.68,0,0,0,3.23,1.9c1.34.07,6.13-.28,6.13-.28Z" fill="#231f20"/><path d="M275.71,104.75h-.46a5.15,5.15,0,0,1-3.64-2.13.84.84,0,0,1-.07-.81c.27-.58,1.24-.87,1.91-1a1.71,1.71,0,0,1,1.14-1.17c1.12-.44,3,.35,3.47.58h1.39a.51.51,0,0,1,.43.24l1.95,3.26a.5.5,0,0,1,0,.49.48.48,0,0,1-.41.27C281.26,104.47,277.44,104.75,275.71,104.75Zm-3.19-2.59a4.26,4.26,0,0,0,2.78,1.58c1,.06,3.83-.13,5.25-.22l-1.38-2.32H278a.54.54,0,0,1-.22,0,4.83,4.83,0,0,0-2.76-.6c-.45.18-.58.41-.55.54a.48.48,0,0,1-.41.62A4.48,4.48,0,0,0,272.52,102.16Z" fill="#231f20"/><polygon points="289.02 137.77 289.02 172.31 296.93 174.94 296.93 149.99 289.02 137.77" fill="#d1d3d4"/><path d="M296.93,175.44a.45.45,0,0,1-.16,0l-7.9-2.63a.49.49,0,0,1-.35-.47V137.77a.5.5,0,0,1,.36-.48.5.5,0,0,1,.56.21l7.91,12.22a.53.53,0,0,1,.08.27v24.95a.49.49,0,0,1-.21.4A.45.45,0,0,1,296.93,175.44ZM289.52,172l6.91,2.29v-24.1l-6.91-10.68Z" fill="#231f20"/><path d="M293.43,84.93s3.95.28,5.17,2.16a58.51,58.51,0,0,1,3.28,7.6s-2.63.75-3,1.6a4.72,4.72,0,0,1-1.22,1.5V95.16s-8,3-9.67,3.66-8.54,1.88-8.54,1.88,2.63,9.2,4.69,11.45c0,0,3.94-.85,4.6-.38s.28,26,.28,26,.47,9.43,3,12.22,6.75,6,8.91,6.27a14.6,14.6,0,0,0,3.85,0v-2.35L310,150s-.66-28.46-.56-30.61.94-5.07.94-6.29c0,0,5.42-.39,7.67-.58,0,0,.87-11.06,1.9-12.66,0,0-4.88-.28-5.54-.75s-3.28-3.37-4.78-3.84S305.07,94,305.07,94s-1.69-8-1.78-9.11-2.25-3.47-3.62-3.75A6.52,6.52,0,0,0,293.43,84.93Z" fill="#fff"/><path d="M302.9,156.89a17,17,0,0,1-2-.13c-2.31-.3-6.63-3.57-9.22-6.43s-3.12-12.14-3.14-12.53c.14-9.14.2-23.82-.17-25.65a16.5,16.5,0,0,0-4.1.49.51.51,0,0,1-.48-.15c-2.12-2.32-4.69-11.27-4.8-11.65a.49.49,0,0,1,.06-.41.45.45,0,0,1,.33-.22c.07,0,6.82-1.22,8.45-1.85s9.67-3.67,9.67-3.67a.53.53,0,0,1,.46.06.49.49,0,0,1,.22.41v1.38a2.91,2.91,0,0,0,.26-.45c.36-.8,1.89-1.42,2.81-1.72a51.92,51.92,0,0,0-3.05-7c-.89-1.36-3.75-1.85-4.78-1.93a.49.49,0,0,1-.42-.7,7,7,0,0,1,6.8-4c1.53.31,3.89,2.79,4,4.2.07.84,1.11,5.91,1.71,8.74.8.2,3,.76,4.23,1.15s2.8,1.93,4,3.06c.4.38.77.74.93.86a26.22,26.22,0,0,0,5.28.66.49.49,0,0,1,.39.77c-.7,1.08-1.49,8.19-1.82,12.42a.49.49,0,0,1-.46.46c-1.87.16-5.91.45-7.24.55-.06.57-.2,1.31-.36,2.14a26.5,26.5,0,0,0-.55,3.7c-.09,2.12.56,30.3.56,30.58a.48.48,0,0,1-.2.41l-5,3.77v2.1a.5.5,0,0,1-.42.49A12.1,12.1,0,0,1,302.9,156.89Zm-15.06-45.75a2.17,2.17,0,0,1,1.19.23c.26.18.87.62.49,26.41,0,.06.49,9.25,2.88,11.88s6.55,5.84,8.61,6.1a14.77,14.77,0,0,0,3.28.06v-1.91a.47.47,0,0,1,.2-.39l5-3.77c-.07-3-.65-28.33-.56-30.4a26.2,26.2,0,0,1,.57-3.84,16.74,16.74,0,0,0,.37-2.42.5.5,0,0,1,.46-.5s4.81-.34,7.25-.54c.16-2,.79-9.14,1.63-11.74-1.71-.12-4.49-.37-5.1-.8a13.71,13.71,0,0,1-1-1c-1-.94-2.65-2.53-3.6-2.83-1.47-.46-4.45-1.2-4.48-1.21a.5.5,0,0,1-.37-.38c-.07-.33-1.7-8-1.79-9.17a5.9,5.9,0,0,0-3.22-3.3,6.07,6.07,0,0,0-5.35,2.85c1.27.19,3.79.75,4.79,2.3a57,57,0,0,1,3.34,7.7.51.51,0,0,1,0,.4.51.51,0,0,1-.31.25,6.14,6.14,0,0,0-2.69,1.32A5,5,0,0,1,298,98.18a.49.49,0,0,1-.52.06.5.5,0,0,1-.28-.45V95.88c-2,.74-7.6,2.87-9,3.41a75.77,75.77,0,0,1-8.08,1.8c.57,1.91,2.59,8.4,4.24,10.51A19.3,19.3,0,0,1,287.84,111.14Z" fill="#231f20"/><path d="M293.43,84.93a11,11,0,0,0-.63,3.19c.07,1.2,1.65,6.79,2.58,7.9s2.28-.4,2.28-.4v2.17s3.38-1.88,4.22-3.1c0,0-1.93-6.67-3.73-8.11A9.79,9.79,0,0,0,293.43,84.93Z" fill="#fff"/><path d="M297.66,98.29a.48.48,0,0,1-.26-.07.5.5,0,0,1-.24-.43V96.65a2.41,2.41,0,0,1-1,.28,1.54,1.54,0,0,1-1.17-.59c-1-1.23-2.63-7-2.7-8.19a11.35,11.35,0,0,1,.66-3.38.51.51,0,0,1,.51-.34,10.24,10.24,0,0,1,5,1.76c1.87,1.5,3.69,7.67,3.89,8.36a.51.51,0,0,1-.07.43c-.88,1.28-4,3-4.39,3.25A.53.53,0,0,1,297.66,98.29Zm0-3.17a.47.47,0,0,1,.17,0,.51.51,0,0,1,.33.47v1.3a16,16,0,0,0,3.17-2.33c-.59-2-2.17-6.57-3.49-7.62a8.86,8.86,0,0,0-4.06-1.5,8.91,8.91,0,0,0-.48,2.62c.07,1.15,1.64,6.63,2.47,7.61a.53.53,0,0,0,.41.23h0a1.94,1.94,0,0,0,1.09-.64A.52.52,0,0,1,297.66,95.12Z" fill="#231f20"/><path d="M294.7,88.76a10.86,10.86,0,0,1,2.23,0" fill="#fff"/><path d="M296.93,89.26h-.08a10.46,10.46,0,0,0-2.1,0,.5.5,0,0,1-.55-.44.51.51,0,0,1,.45-.55,10.77,10.77,0,0,1,2.36,0,.5.5,0,0,1-.08,1Z" fill="#231f20"/><path d="M294.16,89.48c0,.1-1.07,3.37-.8,3.54s1.55-.43,1.55-.43" fill="#fff"/><path d="M293.5,93.55a.65.65,0,0,1-.4-.11c-.38-.24-.52-.51.54-4l0-.13a.5.5,0,0,1,1,.25l-.06.18a24.63,24.63,0,0,0-.72,2.69,8.38,8.38,0,0,0,.83-.33.5.5,0,0,1,.67.24.52.52,0,0,1-.25.67A4.28,4.28,0,0,1,293.5,93.55Zm.32-.69h0Z" fill="#231f20"/><line x1="310.33" y1="113.09" x2="305.17" y2="114.68" fill="#fff"/><path d="M305.17,115.18a.48.48,0,0,1-.48-.35.49.49,0,0,1,.33-.62l5.16-1.6a.5.5,0,0,1,.29,1l-5.16,1.59A.36.36,0,0,1,305.17,115.18Z" fill="#231f20"/><path d="M304.79,156.76a.5.5,0,0,1-.5-.5V129.14a.5.5,0,0,1,1,0v27.12A.5.5,0,0,1,304.79,156.76Z" fill="#231f20"/><path d="M295.58,153a3.8,3.8,0,0,1-1.42-.25.5.5,0,0,1,.41-.92c.1.05,2.44,1,5.05-2.14a.5.5,0,0,1,.51-.16,2.7,2.7,0,0,0,2.34-.55c.63-.64.3-3.4-.14-5.15a.62.62,0,0,1,0-.13c0-.32.39-32,1.41-40.32a.5.5,0,1,1,1,.12c-1,8.06-1.38,38.54-1.4,40.15.23.92,1.08,4.81-.15,6a3.48,3.48,0,0,1-3,.87A6.14,6.14,0,0,1,295.58,153Z" fill="#231f20"/><path d="M309.39,119.38a22.34,22.34,0,0,1-3.66,2.34" fill="#fff"/><path d="M305.73,122.22a.5.5,0,0,1-.46-.3.51.51,0,0,1,.26-.66,21.47,21.47,0,0,0,3.55-2.28.5.5,0,0,1,.7.09.5.5,0,0,1-.08.7,22.66,22.66,0,0,1-3.77,2.41A.48.48,0,0,1,305.73,122.22Z" fill="#231f20"/><path d="M292.06,97.79c-5.2,11.45-3.32,14-3.32,14s-2.72-6.13-2.63-9.29" fill="#fff"/><path d="M288.74,112.27a.51.51,0,0,1-.4-.2,1.66,1.66,0,0,1-.23-.5c-.61-1.45-2.57-6.32-2.5-9.1a.51.51,0,0,1,.5-.49h0a.5.5,0,0,1,.48.52,20.28,20.28,0,0,0,1.39,6c.28-2.2,1.19-5.65,3.6-11a.5.5,0,1,1,.91.42c-4.12,9.09-3.69,12.42-3.45,13.26l.14.31a.51.51,0,0,1-.21.64A.54.54,0,0,1,288.74,112.27Z" fill="#231f20"/><path d="M300.5,150l-1,0s.47-24.42.66-33a.5.5,0,0,1,.51-.49.5.5,0,0,1,.49.51C301,125.58,300.5,150,300.5,150Z" fill="#231f20"/><path d="M302.63,156.76a.5.5,0,0,1-.5-.5v-4.88a.5.5,0,0,1,1,0v4.88A.5.5,0,0,1,302.63,156.76Z" fill="#231f20"/><path d="M291.67,116a3.7,3.7,0,0,1-.87-.11,3.87,3.87,0,0,1-2.25-1.73.5.5,0,0,1,.88-.49,2.84,2.84,0,0,0,1.64,1.25,3.49,3.49,0,0,0,2.69-.63,30.29,30.29,0,0,0,11.49-15.12.5.5,0,0,1,.63-.32.49.49,0,0,1,.32.62,31.4,31.4,0,0,1-11.91,15.67A5,5,0,0,1,291.67,116Z" fill="#231f20"/><path d="M295.82,148.31h0a.49.49,0,0,1-.47-.53c.26-4.59,1.1-35,1.11-35.33a.51.51,0,0,1,.51-.48.49.49,0,0,1,.49.51c0,.31-.85,30.75-1.12,35.36A.49.49,0,0,1,295.82,148.31Z" fill="#231f20"/><path d="M294.7,136.11a.49.49,0,0,1-.4-.2c-2.63-3.63-4.83-18.19-4.93-18.81a.5.5,0,0,1,1-.14c0,.14,2.27,14.93,4.75,18.36a.5.5,0,0,1-.41.79Z" fill="#231f20"/><path d="M293.71,108.9a2,2,0,0,1-1.21-.38c-2.76-2,1.52-11.61,1.57-11.7a.5.5,0,1,1,.89.44c-.72,1.48-3.59,9.2-1.87,10.45a1.24,1.24,0,0,0,1.09.12c2.39-.65,6.75-5.66,10.43-14a.5.5,0,0,1,.92.41c-3.42,7.73-8,13.72-11.09,14.55A2.75,2.75,0,0,1,293.71,108.9Z" fill="#231f20"/><path d="M305.73,113a.52.52,0,0,1-.41-.21.5.5,0,0,1,.12-.7,31.87,31.87,0,0,0,8-8.89.5.5,0,0,1,.87.5,32.16,32.16,0,0,1-8.26,9.2A.46.46,0,0,1,305.73,113Z" fill="#231f20"/><path d="M297.34,96.44a.52.52,0,0,1-.35-.14.5.5,0,0,1,0-.71,14.25,14.25,0,0,0,2.24-3.21.5.5,0,1,1,.91.43,14.84,14.84,0,0,1-2.43,3.47A.48.48,0,0,1,297.34,96.44Z" fill="#231f20"/><path d="M296.93,103.26a.81.81,0,0,1-.67-.34c-.62-.91.44-4,.93-5.31a.49.49,0,0,1,.64-.29.5.5,0,0,1,.29.65,15,15,0,0,0-1.07,4.21c.75-.64,2.81-4.37,4.38-7.7a.5.5,0,0,1,.66-.24.5.5,0,0,1,.24.67C300.54,98.72,298.14,103.26,296.93,103.26Zm.16-.91h0Z" fill="#231f20"/><path d="M317.19,111.7a33.47,33.47,0,0,1,.46-6.92,9.69,9.69,0,0,1,2.25-4.93s1.9-1.1,1.48,4.46S317.89,114.43,317.19,111.7Z" fill="#231f20"/><path d="M317.88,113c-.31,0-.91-.15-1.17-1.18a.36.36,0,0,1,0-.1,33.75,33.75,0,0,1,.47-7,10,10,0,0,1,2.39-5.19.39.39,0,0,1,.1-.08,1.27,1.27,0,0,1,1.26,0c.86.54,1.18,2.14,1,4.9-.32,4.22-2.26,8.51-3.91,8.66Zm-.19-1.38a.93.93,0,0,0,.19.39h0a.69.69,0,0,0,.3-.17c.95-.8,2.42-3.87,2.7-7.58.25-3.29-.37-3.88-.49-4a.26.26,0,0,0-.2,0,9.78,9.78,0,0,0-2.05,4.6A33.72,33.72,0,0,0,317.69,111.63Z" fill="#231f20"/><path d="M319.9,99.85s1-.23,2.18-.56,2.75-.41,2.61,0-.85.76-.85.76,2.11-.45,2.64,0,0,2.15-.46,2.54-5,1-5.8,1.12a15.1,15.1,0,0,1-2.32,0S319,100.29,319.9,99.85Z" fill="#fff"/><path d="M319.23,104.26c-.68,0-1.33,0-1.37-.05a.5.5,0,0,1-.38-.22.5.5,0,0,1-.06-.43c.28-.85,1.27-3.66,2.26-4.15l.11,0s1-.24,2.16-.56c0,0,2.45-.66,3.07,0a.62.62,0,0,1,.16.55,2.4,2.4,0,0,1,1.63.32,1.28,1.28,0,0,1,.39,1,3.43,3.43,0,0,1-.85,2.24c-.67.56-5.85,1.21-6.07,1.24A8.6,8.6,0,0,1,319.23,104.26Zm-.64-1a11.66,11.66,0,0,0,1.57,0,37.53,37.53,0,0,0,5.56-1,2.4,2.4,0,0,0,.43-1.76,5.06,5.06,0,0,0-2.2.11.5.5,0,0,1-.58-.32.49.49,0,0,1,.25-.61l.15-.09a7.53,7.53,0,0,0-1.56.25c-1,.28-1.88.5-2.13.55A9.08,9.08,0,0,0,318.59,103.25Z" fill="#231f20"/><polygon points="281.98 174.94 281.98 192.39 280.48 193.52 280.48 196.24 289.77 199.72 289.77 195.96 290.99 195.3 291.93 178.26 281.98 174.94" fill="#231f20"/><path d="M289.77,200.21a.51.51,0,0,1-.17,0l-9.29-3.47a.5.5,0,0,1-.33-.47v-2.72a.51.51,0,0,1,.2-.4l1.3-1v-17.2a.52.52,0,0,1,.21-.41.52.52,0,0,1,.45-.07l9.95,3.32a.52.52,0,0,1,.34.51l-.94,17a.5.5,0,0,1-.26.41l-1,.52v3.45a.49.49,0,0,1-.21.41A.52.52,0,0,1,289.77,200.21ZM281,195.9l8.29,3.09v-3a.5.5,0,0,1,.27-.44l1-.52.9-16.39-8.93-3v16.76a.48.48,0,0,1-.2.4l-1.3,1Zm1-3.51h0Z" fill="#231f20"/><path d="M297.94,201.52a.5.5,0,0,1-.5-.5V178.2a.5.5,0,0,1,.5-.5.5.5,0,0,1,.5.5V201A.5.5,0,0,1,297.94,201.52Z" fill="#231f20"/><path d="M312,199.65a.5.5,0,0,1-.5-.5V178a.5.5,0,0,1,.5-.5.5.5,0,0,1,.5.5v21.13A.51.51,0,0,1,312,199.65Z" fill="#231f20"/><polygon points="277.85 203.33 277.85 200.98 295.45 204.5 295.45 207.13 277.85 203.33" fill="#fff"/><path d="M295.45,207.63h-.1l-17.6-3.8a.51.51,0,0,1-.4-.49V201a.5.5,0,0,1,.6-.49l17.6,3.52a.5.5,0,0,1,.4.49v2.63a.53.53,0,0,1-.18.39A.54.54,0,0,1,295.45,207.63Zm-17.1-4.71,16.6,3.59v-1.6l-16.6-3.32Z" fill="#231f20"/><polygon points="295.45 204.5 316.9 202.91 316.9 205.6 295.45 207.13 295.45 204.5" fill="#fff"/><path d="M295.45,207.63a.49.49,0,0,1-.34-.14.48.48,0,0,1-.16-.36V204.5a.5.5,0,0,1,.46-.5l21.45-1.59a.49.49,0,0,1,.38.13.51.51,0,0,1,.16.37v2.69a.5.5,0,0,1-.47.5l-21.44,1.53ZM296,205v1.62l20.45-1.45v-1.7Z" fill="#231f20"/><polygon points="268.09 204.64 275.46 205.02 296.86 209.24 315.39 207.74 343.83 223.69 353.05 223.69 353.9 237.56 333.7 238.41 296.39 216.44 267.11 211.09 268.09 204.64" fill="#d1d3d4"/><path d="M333.7,238.91a.59.59,0,0,1-.26-.07l-37.23-21.92L267,211.59a.5.5,0,0,1-.41-.57l1-6.45a.49.49,0,0,1,.52-.43l7.37.38,21.4,4.22,18.47-1.5a.48.48,0,0,1,.28.06L344,223.19h9.09a.5.5,0,0,1,.5.47l.85,13.87a.51.51,0,0,1-.13.37.48.48,0,0,1-.35.16l-20.2.84Zm-66-28.22L296.48,216a.44.44,0,0,1,.16.06l37.18,21.89,19.55-.82-.79-12.89h-8.75a.5.5,0,0,1-.24-.06l-28.31-15.88-18.38,1.49h-.14l-21.4-4.22-6.84-.35Z" fill="#231f20"/><polygon points="261.15 200.65 261.15 233.97 269.5 243.92 305.17 242.6 344.4 244.95 351.53 242.79 350.87 235.75 340.92 234.72 307.32 218.58 302.28 218.39 302.28 210.41 301.13 210.6 300.47 212.29 299.25 212.85 276.07 209.47 268.09 208.16 261.15 200.65" fill="#231f20"/><path d="M344.4,245.45h0l-39.24-2.35-35.61,1.32a.5.5,0,0,1-.4-.18l-8.35-10a.47.47,0,0,1-.12-.32V200.65a.48.48,0,0,1,.32-.46.49.49,0,0,1,.55.12l6.82,7.39,7.81,1.28,23,3.36.9-.42.58-1.5a.54.54,0,0,1,.39-.31l1.15-.19a.51.51,0,0,1,.4.11.53.53,0,0,1,.18.38v7.5l4.56.17a.46.46,0,0,1,.2,0l33.52,16.1,9.86,1a.49.49,0,0,1,.45.45l.66,7a.51.51,0,0,1-.36.52l-7.13,2.16Zm-39.25-3.34,39.19,2.34,6.65-2-.58-6.22-9.54-1a.49.49,0,0,1-.16-.05l-33.51-16.1-4.94-.18a.5.5,0,0,1-.48-.5V211l-.29.05-.55,1.42a.55.55,0,0,1-.26.28l-1.22.56a.52.52,0,0,1-.28,0L276,210l-8-1.32a.43.43,0,0,1-.28-.15l-6.08-6.57v31.86l8.08,9.62Z" fill="#231f20"/><path d="M355.85,230.61c-.75.92-1.88.55-2.82,1.67a25.79,25.79,0,0,0-2.16,3.47s-5,.66-5.35,2-3.19,1.68-3.56.75-2.63-2.63-3.38-2.26-2.26.75-2.82-.18-1.12-2.82-2.63-3a3.27,3.27,0,0,1-2.25-1.5s1.88-5.07.19-6.94-6.57-1.88-7.32-5.07-5.07-3-6.85-2.63-2.91-.22-4.88-.2-3.76-1.89-4.23,0-.23,5.27-1.62,6.11-3.73-.84-4.15,2-2.25,1.6-2.25,1.6a3.92,3.92,0,0,0-3.65-1.84,2.6,2.6,0,0,0-.87-2.67,14.39,14.39,0,0,1-2.12-2.08c-.43-.68-.61-1.5-1.07-2.16-1.17-1.72-3.63-1.8-5.71-1.71.29-.1.23-.58,0-.73a1.17,1.17,0,0,0-.9,0,49.51,49.51,0,0,0-6.16,2.3c-1.51.68-3.26,2.09-2.62,3.62a4,4,0,0,0-5.16,1.35c-1,1.71.4,4.34,2.36,4.2a3,3,0,0,0-.54,2.22l1.64.05a1.85,1.85,0,1,0,2.2,2.94c-2.52,2.38,3.56,10.13-4.14,9.44-1.82-.16-5.73-2.52-6.67-4-1.25-2-.38-4.86-2-7.14a2.14,2.14,0,0,1-.57-1.25,2.5,2.5,0,0,1,.4-1c1.19-2.32-.42-4.89-2.55-5.85.85-2.91,3-16.55-3.52-14.61a8.6,8.6,0,0,0-.12,1.36c-1.35-.37-4,2-3.69,2.1a1.2,1.2,0,0,0-1.47,1.48,1.65,1.65,0,0,0-2.32,1.87,4.88,4.88,0,0,0-5,4.64,2.6,2.6,0,0,0-2.79,1.95c-.29,1.32.44,2.89-.41,3.94a6,6,0,0,1-.95.78,3.38,3.38,0,0,0-1.18,2.48,16.09,16.09,0,0,1-2.7-.08l-1-.15a16.47,16.47,0,0,1-5.11-1.28c-.75-.37-1.44-.85-2.21-1.16a5.57,5.57,0,0,0-5.83,1.19,34.63,34.63,0,0,0-10.26.6,3,3,0,0,0-3.89-1,2.27,2.27,0,0,0-2.83-1.42,6.53,6.53,0,0,0-2.84,2c-.78-1.57-3.07-1.27-4.73-.73l-9.16,3c-4.71,1.52-9.48,3.05-14.42,3.32.27-.75-.82-1.2-1.61-1.24l-18.16-1a9,9,0,0,0-6.52-5.18c0-.39-.36-.76-.73-1-1.83-1-4.14-.56-6,.43a49.71,49.71,0,0,0-5,3.67,20,20,0,0,1-6.56,3,15,15,0,0,0-4.54,1.5c-3.14,2.06-3.25,6.5-3.63,10.24a4.14,4.14,0,0,1-.59,2,5.48,5.48,0,0,1-1.24,1.11,11.11,11.11,0,0,0-4.33,8.19c1-.09,1.93-.12,2.89-.22H257.7s0-.06,0-.09h103V225.71S356.6,229.68,355.85,230.61Z" fill="#68e1fd"/><path d="M116.26,254.68a.56.56,0,0,1-.35-.13.53.53,0,0,1-.15-.39,11.58,11.58,0,0,1,4.52-8.57l.23-.17a4.12,4.12,0,0,0,.92-.83,3.69,3.69,0,0,0,.49-1.78l.1-1.05c.33-3.54.7-7.56,3.76-9.55a11.1,11.1,0,0,1,3.71-1.34l1-.23a19.19,19.19,0,0,0,6.4-3c.6-.43,1.18-.89,1.76-1.36a23,23,0,0,1,3.32-2.34,6.85,6.85,0,0,1,6.45-.43,2,2,0,0,1,.92,1,9.48,9.48,0,0,1,6.42,5.11l17.85,1a2.57,2.57,0,0,1,1.94.89,1.1,1.1,0,0,1,.15.31c4.72-.33,9.32-1.82,13.77-3.26l9.15-3c2.28-.74,4-.57,5,.43a6,6,0,0,1,2.65-1.73,3.15,3.15,0,0,1,2.4.36,2.3,2.3,0,0,1,.83.87,3.56,3.56,0,0,1,3.83,1.14,34.72,34.72,0,0,1,9.86-.57,6.11,6.11,0,0,1,6.19-1.13,12.38,12.38,0,0,1,1.41.71c.28.16.56.32.84.46a16.43,16.43,0,0,0,5,1.24l1,.14a12.55,12.55,0,0,0,2.17.09,3.85,3.85,0,0,1,1.33-2.37,2.78,2.78,0,0,1,.34-.26,2.77,2.77,0,0,0,.54-.46,2.71,2.71,0,0,0,.26-1.95,6.26,6.26,0,0,1,0-1.78,3.13,3.13,0,0,1,2.82-2.36,5.44,5.44,0,0,1,4.87-4.62,2.09,2.09,0,0,1,.84-1.55,2.19,2.19,0,0,1,1.54-.51,1.78,1.78,0,0,1,1.71-1.35,6.36,6.36,0,0,1,3.49-2.06c0-.19,0-.37.06-.54l0-.35a.53.53,0,0,1,.36-.43,3.33,3.33,0,0,1,3.52.68c2.73,2.73,1.46,11.26.73,14.15a5.56,5.56,0,0,1,2.61,3,4.11,4.11,0,0,1-.21,3.33l-.1.19a1.56,1.56,0,0,0-.24.59,1.61,1.61,0,0,0,.42.85l.06.09a8.35,8.35,0,0,1,1.25,4.18,7.13,7.13,0,0,0,.77,3c.86,1.36,4.62,3.62,6.29,3.77s2.56-.08,3.06-.62c.72-.79.44-2.38.17-3.91a9.41,9.41,0,0,1-.2-3.46h-.4a2.24,2.24,0,0,1-2.07-2.76,2.43,2.43,0,0,1,.24-.67l-.57,0a.49.49,0,0,1-.47-.42,3.58,3.58,0,0,1,.22-1.89,3.05,3.05,0,0,1-1.77-1.35,3.5,3.5,0,0,1-.22-3.51,4.42,4.42,0,0,1,5-1.86c.07-1.37,1.45-2.6,3-3.32a51.08,51.08,0,0,1,6.22-2.32,1.66,1.66,0,0,1,1.28,0,.94.94,0,0,1,.48.65c2.12,0,4.3.25,5.46,2a6.72,6.72,0,0,1,.6,1.2,7.29,7.29,0,0,0,.47,1,6.51,6.51,0,0,0,1.25,1.27c.28.24.55.47.81.73a3.49,3.49,0,0,1,1.13,2.52,4.39,4.39,0,0,1,3.39,2,1,1,0,0,0,.74.08c.31-.14.54-.63.66-1.38.33-2.24,1.84-2.19,2.93-2.14a2.75,2.75,0,0,0,1.45-.18c.74-.46.92-2.15,1.08-3.65a15.25,15.25,0,0,1,.32-2.16,1.53,1.53,0,0,1,.73-1.08,2.6,2.6,0,0,1,2.07.24,7.23,7.23,0,0,0,1.9.46,14.57,14.57,0,0,1,2.16.18,6.77,6.77,0,0,0,2.62,0c2.22-.47,6.64-.44,7.44,3,.4,1.68,2.22,2.38,4,3.07a8.19,8.19,0,0,1,3.23,1.78c1.67,1.86.39,6.06,0,7.21a2.73,2.73,0,0,0,1.76,1.08c1.45.18,2.14,1.57,2.65,2.59.12.24.23.46.34.65.38.62,1.62.27,2.16,0a1.51,1.51,0,0,1,1.21,0,6,6,0,0,1,2.86,2.47c0,.09.32.22.87.2.84,0,1.62-.45,1.75-.9.41-1.42,4-2.09,5.51-2.3a24.65,24.65,0,0,1,2.1-3.33,3.42,3.42,0,0,1,1.77-1.09,2,2,0,0,0,1-.58h0c.76-.94,4.73-4.77,4.9-4.94a.49.49,0,0,1,.54-.1.51.51,0,0,1,.3.46v28.16a.5.5,0,0,1-.5.5H257.94a.44.44,0,0,1-.24.09H119.15c-.44,0-.93.08-1.42.11s-1,.06-1.42.11Zm29.54-30.76a7.16,7.16,0,0,0-3.38.93,21.44,21.44,0,0,0-3.18,2.25c-.59.47-1.19,1-1.81,1.39a20.12,20.12,0,0,1-6.72,3.12l-1,.24a10.2,10.2,0,0,0-3.38,1.19c-2.66,1.74-3,5.34-3.31,8.82l-.1,1a3.75,3.75,0,0,1-1.82,3.32l-.21.16a10.62,10.62,0,0,0-4.09,7.24l.87-.06c.47,0,1-.06,1.43-.11H257.45a.44.44,0,0,1,.24-.09H360.2V226.9c-1.23,1.2-3.45,3.38-4,4h0a2.82,2.82,0,0,1-1.5.9,2.5,2.5,0,0,0-1.32.78,25.11,25.11,0,0,0-2.09,3.38.5.5,0,0,1-.38.27c-2.2.29-4.77,1-4.94,1.61a2.81,2.81,0,0,1-2.66,1.63c-.94,0-1.62-.26-1.85-.83-.31-.78-2.24-2.12-2.7-2-.85.43-2.69.91-3.46-.38-.12-.2-.24-.45-.38-.72-.45-.9-.95-1.93-1.88-2a3.75,3.75,0,0,1-2.62-1.75.48.48,0,0,1,0-.42c.49-1.33,1.51-5.09.29-6.44a7.75,7.75,0,0,0-2.85-1.52c-1.91-.74-4.07-1.58-4.59-3.77-.79-3.36-6.21-2.26-6.26-2.25a8,8,0,0,1-3,0,13.59,13.59,0,0,0-2-.17,6.36,6.36,0,0,1-2.26-.53c-.49-.18-1.05-.39-1.26-.28a.72.72,0,0,0-.22.43,14.37,14.37,0,0,0-.29,2c-.2,1.81-.39,3.69-1.56,4.4a3.54,3.54,0,0,1-2,.33c-1.1,0-1.7-.07-1.9,1.29a2.56,2.56,0,0,1-1.25,2.15,2,2,0,0,1-1.78-.22.54.54,0,0,1-.15-.15,3.43,3.43,0,0,0-3.17-1.6.52.52,0,0,1-.45-.2.48.48,0,0,1-.06-.49,2.19,2.19,0,0,0-.76-2.13,9.56,9.56,0,0,0-.75-.66,7.09,7.09,0,0,1-1.44-1.5,7.73,7.73,0,0,1-.55-1.12,5.49,5.49,0,0,0-.51-1c-1-1.48-3.23-1.58-5.28-1.49a.49.49,0,0,1-.51-.41.47.47,0,0,1,.11-.41,1.73,1.73,0,0,0-.42.09,47.61,47.61,0,0,0-6.1,2.28c-1.05.47-2.89,1.7-2.36,3a.5.5,0,0,1-.67.65c-1.46-.7-3.67-.4-4.52,1.14a2.5,2.5,0,0,0,.2,2.48,1.88,1.88,0,0,0,1.69,1,.49.49,0,0,1,.48.25.5.5,0,0,1,0,.54,2.56,2.56,0,0,0-.48,1.44l1.2,0a.5.5,0,0,1,.47.37.52.52,0,0,1-.23.56,1.29,1.29,0,0,0-.61.9,1.32,1.32,0,0,0,.21,1.06,1.29,1.29,0,0,0,1,.5,1.3,1.3,0,0,0,1-.33.5.5,0,0,1,.71,0,.49.49,0,0,1,0,.7h0c-.77.73-.49,2.34-.22,3.89.31,1.77.63,3.61-.43,4.75-.73.8-2,1.11-3.88.94s-6-2.62-7.05-4.23a7.87,7.87,0,0,1-.91-3.4,7.54,7.54,0,0,0-1.08-3.71l-.06-.08a2.45,2.45,0,0,1-.6-1.48,2.34,2.34,0,0,1,.36-1l.09-.17a3.15,3.15,0,0,0,.16-2.54,4.71,4.71,0,0,0-2.46-2.62.5.5,0,0,1-.28-.6c.83-2.81,2-11.24-.37-13.56a2.22,2.22,0,0,0-2.21-.51v0a5.7,5.7,0,0,0-.07.92.51.51,0,0,1-.2.41.49.49,0,0,1-.44.08c-.84-.22-2.66,1.19-3,1.67l0,.13a.5.5,0,0,1-.65.29h0a.72.72,0,0,0-.83.83.5.5,0,0,1-.74.6,1,1,0,0,0-1.16.18,1,1,0,0,0-.41,1.09.52.52,0,0,1-.07.48.53.53,0,0,1-.44.2,4.38,4.38,0,0,0-4.45,4.14.52.52,0,0,1-.17.38.5.5,0,0,1-.39.11,2.1,2.1,0,0,0-2.24,1.57,5.19,5.19,0,0,0,0,1.48,3.55,3.55,0,0,1-.49,2.66,3.81,3.81,0,0,1-.72.64,3.3,3.3,0,0,0-.3.22,2.91,2.91,0,0,0-1,2.11.51.51,0,0,1-.49.48,15.52,15.52,0,0,1-2.78-.09l-1-.14a17.11,17.11,0,0,1-5.26-1.33c-.3-.15-.6-.32-.89-.49a10.29,10.29,0,0,0-1.28-.65,5.09,5.09,0,0,0-5.3,1.07.5.5,0,0,1-.4.15,34,34,0,0,0-10.11.59.48.48,0,0,1-.53-.23,2.52,2.52,0,0,0-3.22-.85.48.48,0,0,1-.45,0,.49.49,0,0,1-.28-.36,1.26,1.26,0,0,0-.59-.78,2.13,2.13,0,0,0-1.62-.24,6.15,6.15,0,0,0-2.61,1.89.54.54,0,0,1-.44.14A.47.47,0,0,1,203,227c-.72-1.45-3.34-.73-4.13-.48l-9.15,3c-4.68,1.51-9.52,3.08-14.56,3.35a.5.5,0,0,1-.49-.68.13.13,0,0,0,0-.12,1.81,1.81,0,0,0-1.16-.45l-18.15-1a.52.52,0,0,1-.44-.31,8.44,8.44,0,0,0-6.15-4.87.51.51,0,0,1-.41-.52c0-.11-.19-.35-.47-.51A4.36,4.36,0,0,0,145.8,223.92Zm205.07,11.83h0Z" fill="#231f20"/><path d="M149.71,217.83v2.25s.88,1.31,5,1.41,34.07-3.66,34.07-3.66l10.6-7s11.17.75,17.65,1,18.39-1.69,19.8-3.1-.79-4.76-.79-4.76l-36,1.85-12.44,9.77Z" fill="#fff"/><path d="M154.88,222h-.17c-4.27-.1-5.31-1.48-5.41-1.63a.47.47,0,0,1-.09-.28v-2.25a.5.5,0,0,1,.47-.5l37.8-2.24,12.31-9.67a.51.51,0,0,1,.29-.1L236,203.46a.5.5,0,0,1,.44.23c.25.37,2.37,3.74.72,5.39s-13.65,3.52-20.17,3.24c-6-.26-16.06-.93-17.49-1l-10.47,6.94a.39.39,0,0,1-.21.08C187.64,218.48,159.56,222,154.88,222Zm-4.67-2.1c.3.25,1.43,1,4.52,1.1,3.92.1,31.83-3.39,33.88-3.64l10.51-7a.55.55,0,0,1,.31-.08c.11,0,11.23.75,17.63,1,6.79.29,18.28-1.81,19.43-2.95.83-.83-.14-2.94-.71-3.9l-35.49,1.84L188,216a.48.48,0,0,1-.28.1l-37.48,2.23Z" fill="#231f20"/><polygon points="236.77 205.31 265.43 202.78 264.46 200.83 233.67 202.58 236.77 205.31" fill="#fff"/><path d="M236.77,205.81a.5.5,0,0,1-.33-.12l-3.1-2.74a.5.5,0,0,1,.3-.87l30.79-1.75a.53.53,0,0,1,.48.28l1,1.95a.47.47,0,0,1,0,.46.51.51,0,0,1-.39.26l-28.66,2.53Zm-1.86-2.8,2,1.79,27.71-2.45-.49-1Z" fill="#231f20"/><path d="M264.46,200.83l-29.91,2s2.76,1.31,1.15,2.24-19,2.82-25.32,2.32a64.64,64.64,0,0,1-10.28-1.57l-12.44,9.77S155,220,151.34,218.77s-.66-2.26,4.22-3,30.13-4,30.13-4,10.7-7.42,13.8-9.29,14-2.82,20.27-3.1,12.39,1.78,12.67,1.31,30.75-3.5,30.75-3.5" fill="#fff"/><path d="M153.85,219.47a10.14,10.14,0,0,1-2.67-.23c-1-.32-2-.79-2-1.62s.86-1.52,6.27-2.35c4.66-.72,28.12-3.78,30-4,1.09-.76,10.8-7.47,13.72-9.24,3.89-2.36,18.82-3.09,20.51-3.17a44.61,44.61,0,0,1,10.35,1,14.87,14.87,0,0,0,2.13.33.36.36,0,0,0-.19.14c.22-.28,1.81-.79,31.1-3.71a.5.5,0,0,1,.55.45.49.49,0,0,1-.45.54c-11.52,1.15-28.92,3-30.5,3.43-.33.28-1,.15-2.83-.2a43.51,43.51,0,0,0-10.12-1c-8.08.36-17.41,1.44-20,3-3.05,1.85-13.67,9.2-13.77,9.28a.63.63,0,0,1-.23.08c-.25,0-25.29,3.3-30.11,4-4.31.66-5.21,1.25-5.39,1.43a3.2,3.2,0,0,0,1.25.6c2.9,1,26.8-2,36-3.19l12.33-9.68a.5.5,0,0,1,.44-.09,63.8,63.8,0,0,0,10.19,1.55c6.3.51,23.51-1.37,25-2.25.17-.1.25-.2.25-.24,0-.25-.67-.79-1.37-1.12a.48.48,0,0,1-.27-.54.5.5,0,0,1,.45-.41l29.92-2a.52.52,0,0,1,.53.47.5.5,0,0,1-.47.53l-28.42,1.89a1.74,1.74,0,0,1,.63,1.12,1.28,1.28,0,0,1-.75,1.16c-1.82,1.05-19.45,2.87-25.61,2.38a70.05,70.05,0,0,1-10.12-1.52L188,216a.51.51,0,0,1-.24.1C186.56,216.23,162.46,219.47,153.85,219.47Z" fill="#231f20"/><path d="M199.32,211.8v-4.72a32.55,32.55,0,0,0,6.55,1.5,47.39,47.39,0,0,0,10.06.33v4.65S205.09,215,199.32,211.8Z" fill="#231f20"/><path d="M210.37,214.38c-3.58,0-8.13-.41-11.29-2.14a.51.51,0,0,1-.26-.44v-4.72a.49.49,0,0,1,.23-.41.49.49,0,0,1,.47,0,32.58,32.58,0,0,0,6.43,1.47,46.71,46.71,0,0,0,9.94.32.52.52,0,0,1,.38.13.49.49,0,0,1,.16.37v4.65a.49.49,0,0,1-.43.49A46.24,46.24,0,0,1,210.37,214.38Zm-10.55-2.88c5,2.53,13.58,1.82,15.61,1.61v-3.66a47.26,47.26,0,0,1-9.64-.37,44.8,44.8,0,0,1-6-1.29Z" fill="#231f20"/><path d="M190.8,224.83a.5.5,0,0,1-.49-.46c-.2-2.45-2.65-6.14-2.67-6.17a.5.5,0,0,1,.13-.7.51.51,0,0,1,.7.14c.1.16,2.61,3.94,2.83,6.65a.5.5,0,0,1-.45.54Z" fill="#231f20"/><path d="M194.89,224.48a.32.32,0,0,1-.14,0,.49.49,0,0,1-.34-.62c1.33-4.4,4.42-12.14,4.45-12.22a.51.51,0,0,1,.65-.28.51.51,0,0,1,.28.65c0,.08-3.1,7.78-4.42,12.14A.51.51,0,0,1,194.89,224.48Z" fill="#231f20"/><path d="M238.53,221.17a.51.51,0,0,1-.49-.4,37.46,37.46,0,0,0-4.42-10.66.49.49,0,0,1,.16-.69.51.51,0,0,1,.69.16,38,38,0,0,1,4.55,11,.51.51,0,0,1-.39.59Z" fill="#231f20"/><polygon points="268.09 208.16 268.09 203.28 264.22 198.55 263.96 202.81 268.09 208.16" fill="#fff"/><path d="M268.09,208.66a.49.49,0,0,1-.39-.19l-4.13-5.35a.53.53,0,0,1-.11-.34l.26-4.26a.5.5,0,0,1,.89-.29l3.87,4.73a.54.54,0,0,1,.11.32v4.88a.47.47,0,0,1-.34.47A.41.41,0,0,1,268.09,208.66Zm-3.62-6,3.12,4v-3.24l-2.94-3.61Z" fill="#231f20"/><path d="M39.5,245.51s70.36-19,71.2-26.36-13.51-11.09-18.58-11.09-52.62,10-52.62,10Z" fill="#fff"/><path d="M39.5,246a.47.47,0,0,1-.3-.1.48.48,0,0,1-.2-.4V218.07a.5.5,0,0,1,.4-.49c1.94-.41,47.66-10,52.72-10h0c4.09,0,13.36,2.21,17.28,6.6a6.35,6.35,0,0,1,1.79,5c-.86,7.49-64.33,24.84-71.57,26.8Zm.5-27.53v26.38c28.14-7.63,69.62-20.65,70.21-25.77a5.37,5.37,0,0,0-1.54-4.26c-3.68-4.12-12.72-6.27-16.54-6.27h0C87.4,208.57,44.6,217.51,40,218.48Z" fill="#231f20"/><polygon points="72.22 209.76 72.22 204.22 67.63 202.58 67.63 209.76 72.22 209.76" fill="#fff"/><path d="M72.22,210.26H67.63a.5.5,0,0,1-.5-.5v-7.18a.49.49,0,0,1,.21-.41.48.48,0,0,1,.45-.06l4.6,1.64a.5.5,0,0,1,.33.47v5.54A.5.5,0,0,1,72.22,210.26Zm-4.09-1h3.59v-4.69l-3.59-1.28Z" fill="#231f20"/><path d="M39.5,218.07c3.19,0,4.74-4.66,7.44-6.2,1-.59,2.11-1.08,3.07-1.76,2.17-1.54,3.78-4,6.34-4.72,2.77-.77,5.57.81,8.28,1.79,4.89,1.77,9.16,1.28,13.87-.4a11.87,11.87,0,0,1,3.16-.66,25.26,25.26,0,0,1,5.28.35l1.38.19a37.49,37.49,0,0,1,6.59,1.3,1.63,1.63,0,0,1,.76.42,1.26,1.26,0,0,1,.26.67,4.11,4.11,0,0,1-.8,3,10.38,10.38,0,0,1-2,1.89l-10.8,8.68c-1.74,1.41-3.66,2.88-5.9,3a4.24,4.24,0,0,1-3,3.08c-.42.1-.92.2-1.09.6a3.17,3.17,0,0,1-.15.55.81.81,0,0,1-.53.3,28.11,28.11,0,0,1-3.56.18A17.21,17.21,0,0,0,64,231.55c-2.86,1.06-5.91,1.52-8.82,2.43-3.09,1-6.14,2.43-9.37,2.25-2.21-.12-4.08-2-6.29-2Z" fill="#68e1fd"/><path d="M46.39,236.75l-.57,0a8.75,8.75,0,0,1-3.23-1,7.4,7.4,0,0,0-3-.94.5.5,0,0,1-.5-.5c-.06-16.39-.06-16.39.09-16.53a.39.39,0,0,1,.35-.15h0c1.65,0,2.86-1.52,4.13-3.12a11.93,11.93,0,0,1,3-3l1-.56a18.26,18.26,0,0,0,2-1.17,19.31,19.31,0,0,0,2.12-1.83,10.79,10.79,0,0,1,4.37-3c2.4-.66,4.75.28,7,1.19.53.21,1.06.42,1.58.61,4.32,1.56,8.37,1.44,13.54-.41a12.34,12.34,0,0,1,3.29-.68A25.32,25.32,0,0,1,87,206l1.38.19a38,38,0,0,1,6.68,1.32,2.08,2.08,0,0,1,1,.58,1.78,1.78,0,0,1,.38.91,4.6,4.6,0,0,1-.9,3.37,10.42,10.42,0,0,1-2,2L82.67,223c-1.48,1.2-3.48,2.81-5.82,3a4.77,4.77,0,0,1-3.29,3.09l-.1,0c-.25.06-.6.14-.65.28a1.06,1.06,0,0,0,0,.14,1.39,1.39,0,0,1-.17.48,1.25,1.25,0,0,1-.84.53,9.21,9.21,0,0,1-2.21.15,13.05,13.05,0,0,0-1.41,0,11.9,11.9,0,0,0-3.07.9l-.87.33a44.83,44.83,0,0,1-5.08,1.44c-1.24.3-2.53.61-3.76,1-.72.23-1.44.48-2.16.73A20.79,20.79,0,0,1,46.39,236.75Zm-6.33-3a9.44,9.44,0,0,1,3,1,7.82,7.82,0,0,0,2.86.94,18.6,18.6,0,0,0,7-1.49c.73-.26,1.46-.51,2.19-.74,1.26-.39,2.57-.71,3.82-1a45.45,45.45,0,0,0,5-1.4l.85-.33a12.82,12.82,0,0,1,3.32-1,13.25,13.25,0,0,1,1.53-.05,7.94,7.94,0,0,0,2-.13c.18,0,.22-.07.23-.08s0-.08,0-.13a1.93,1.93,0,0,1,.09-.34,1.72,1.72,0,0,1,1.34-.87A3.8,3.8,0,0,0,76,225.46a.48.48,0,0,1,.47-.38c2-.08,3.72-1.33,5.6-2.84l10.8-8.69a9.93,9.93,0,0,0,1.87-1.79,3.61,3.61,0,0,0,.72-2.63.89.89,0,0,0-.15-.43,1.15,1.15,0,0,0-.53-.26,37.21,37.21,0,0,0-6.5-1.29L86.88,207a25,25,0,0,0-5.18-.34,11.35,11.35,0,0,0-3,.63c-5.41,1.92-9.66,2-14.21.4-.53-.19-1.07-.41-1.61-.62-2.11-.85-4.3-1.73-6.37-1.16a9.91,9.91,0,0,0-3.95,2.72,19.45,19.45,0,0,1-2.23,1.92,18,18,0,0,1-2.1,1.24c-.34.18-.68.36-1,.55a11,11,0,0,0-2.75,2.77c-1.27,1.59-2.57,3.23-4.44,3.47C40,220.9,40.05,231.42,40.06,233.78Z" fill="#231f20"/><polygon points="69.78 225.31 65.84 223.93 61.99 226.51 55.23 227.76 54.3 225.31 48.96 227.76 48.38 225.31 39.5 226.51 39.5 235.28 60.65 236.14 66.45 234.91 69.78 225.31" fill="#d1d3d4"/><path d="M60.65,236.64h0l-21.15-.86a.5.5,0,0,1-.48-.5v-8.77a.51.51,0,0,1,.44-.5l8.88-1.2a.51.51,0,0,1,.55.38l.44,1.86,4.78-2.2a.51.51,0,0,1,.67.28l.79,2.06L61.8,226l3.76-2.52a.51.51,0,0,1,.45,0L70,224.84a.49.49,0,0,1,.3.63l-3.33,9.6a.51.51,0,0,1-.37.33l-5.8,1.23ZM40,234.8l20.61.84,5.46-1.16,3.08-8.86-3.24-1.14-3.64,2.44a.46.46,0,0,1-.19.08l-6.75,1.25a.5.5,0,0,1-.56-.31L54,226l-4.85,2.22a.54.54,0,0,1-.43,0,.51.51,0,0,1-.27-.34l-.47-2-8,1.07Z" fill="#231f20"/><polygon points="103.01 212.9 99.2 211.45 93.57 212.17 89.58 212.9 89.58 209.8 87.24 209.29 83.67 210.27 83.95 211.82 82.41 212.9 83.02 217.12 78.74 218.78 80.11 220.46 76.96 221.11 77.15 222.71 72.22 224.68 72.22 228.5 74.66 230.48 83.02 227.4 95.22 219.14 101.31 216.86 103.01 212.9" fill="#d1d3d4"/><path d="M74.66,231a.51.51,0,0,1-.31-.11l-2.44-2a.47.47,0,0,1-.19-.38v-3.82a.5.5,0,0,1,.32-.46l4.57-1.83-.15-1.22a.51.51,0,0,1,.4-.55l2.34-.49-.84-1a.49.49,0,0,1-.1-.44.53.53,0,0,1,.3-.34l3.9-1.51L81.91,213a.49.49,0,0,1,.21-.48l1.28-.89-.22-1.24a.5.5,0,0,1,.36-.57l3.56-1a.43.43,0,0,1,.25,0l2.34.52a.49.49,0,0,1,.39.48v2.5l3.4-.62,5.66-.73a.48.48,0,0,1,.24,0l3.8,1.45a.53.53,0,0,1,.29.28.48.48,0,0,1,0,.39l-1.69,4a.51.51,0,0,1-.29.27l-6,2.26-12.16,8.23a.31.31,0,0,1-.1.05L74.83,231A.47.47,0,0,1,74.66,231Zm-1.94-2.72,2,1.65,8-3,12.16-8.22.1-.06,5.89-2.2,1.41-3.29L99.14,212l-5.5.71-4,.72a.48.48,0,0,1-.41-.11.49.49,0,0,1-.18-.38v-2.69l-1.83-.41-3,.83.2,1.1a.51.51,0,0,1-.21.5l-1.3.9.57,3.92a.51.51,0,0,1-.31.54L79.57,219l.92,1.14a.52.52,0,0,1,.09.48.51.51,0,0,1-.37.33l-2.7.56.14,1.14a.51.51,0,0,1-.32.52L72.72,225Z" fill="#231f20"/><path d="M88.84,226.14a.85.85,0,0,0-.23,1,.59.59,0,0,0-.54.47,1.78,1.78,0,0,0,0,.76c.13.61,3.37-.48,3.51-1.53.19-1.39-2.1-2.1-1.83-.78A.93.93,0,0,0,88.84,226.14Z" fill="#68e1fd"/><path d="M101.37,222a1.66,1.66,0,0,1,.75-1.07.77.77,0,0,1,.67-.1.39.39,0,0,1,.19.57.54.54,0,0,1,.86-.35.8.8,0,0,1,.09,1,1.55,1.55,0,0,1-1,.56,3.34,3.34,0,0,1-1.26,0,.21.21,0,0,1,.25-.25,1,1,0,0,1-.63-.62" fill="#68e1fd"/><polygon points="83.02 227.4 83.02 219.02 88.46 216.86 88.46 225.31 83.02 227.4" fill="#fff"/><path d="M83,227.9a.51.51,0,0,1-.28-.09.5.5,0,0,1-.22-.41V219a.5.5,0,0,1,.32-.46l5.44-2.16a.52.52,0,0,1,.47,0,.49.49,0,0,1,.22.41v8.45a.51.51,0,0,1-.32.47l-5.45,2.09A.48.48,0,0,1,83,227.9Zm.5-8.54v7.31L88,225V217.6Z" fill="#231f20"/><path d="M88.46,218.3c0-.1,6.76-3.1,6.76-3.1v7.88l-6.76,2.23Z" fill="#fff"/><path d="M88.46,225.81a.43.43,0,0,1-.29-.1.49.49,0,0,1-.21-.4v-7c0-.42,0-.42,7.05-3.56a.51.51,0,0,1,.48,0,.5.5,0,0,1,.23.42v7.88a.5.5,0,0,1-.35.48l-6.76,2.22A.4.4,0,0,1,88.46,225.81Zm.5-7.22v6l5.76-1.9V216C92.59,216.92,89.77,218.19,89,218.59Z" fill="#231f20"/><polygon points="95.22 217.45 100.38 215.76 99.91 220.83 95.22 221.8 95.22 217.45" fill="#fff"/><path d="M95.22,222.3a.47.47,0,0,1-.32-.12.46.46,0,0,1-.18-.38v-4.35a.48.48,0,0,1,.34-.47l5.16-1.69a.52.52,0,0,1,.47.08.53.53,0,0,1,.19.44l-.47,5.06a.52.52,0,0,1-.4.45l-4.69,1Zm.5-4.49v3.37l3.72-.77.37-3.93Z" fill="#231f20"/><polygon points="100.38 215.76 100.38 213.32 103.01 212.9 103.33 219.14 99.91 220.83 100.38 215.76" fill="#fff"/><path d="M99.91,221.33a.52.52,0,0,1-.29-.09.51.51,0,0,1-.21-.46l.47-5v-2.42a.5.5,0,0,1,.42-.49l2.63-.42a.46.46,0,0,1,.39.1.47.47,0,0,1,.18.36l.33,6.25a.5.5,0,0,1-.28.47l-3.42,1.69A.59.59,0,0,1,99.91,221.33Zm1-7.58v2.06l-.39,4.17,2.33-1.14-.28-5.36Zm-.5,2h0Z" fill="#231f20"/><path d="M94.46,212.9c0-.23,0-7.18,0-7.18l3.34-1.5v7.88Z" fill="#fff"/><path d="M94.46,213.4A.52.52,0,0,1,94,213c0-.19,0-2.64,0-7.28a.51.51,0,0,1,.3-.45l3.33-1.51a.51.51,0,0,1,.48,0,.5.5,0,0,1,.23.42v7.88a.5.5,0,0,1-.39.49l-3.33.8Zm.5-7.35c0,2.08,0,5,0,6.22l2.35-.56V205Z" fill="#231f20"/><polygon points="97.8 204.22 94.93 203.33 91.32 204.78 94.47 205.72 97.8 204.22" fill="#fff"/><path d="M94.46,206.22l-.14,0-3.14-.94a.49.49,0,0,1-.36-.45.51.51,0,0,1,.31-.49l3.62-1.46a.53.53,0,0,1,.33,0l2.87.89a.52.52,0,0,1,.35.45.52.52,0,0,1-.3.49l-3.33,1.5A.46.46,0,0,1,94.46,206.22Zm-1.63-1.51,1.6.48,2-.89L95,203.86Z" fill="#231f20"/><polygon points="91.32 204.78 91.32 212.9 94.47 212.9 94.47 205.72 91.32 204.78" fill="#fff"/><path d="M94.46,213.4H91.32a.5.5,0,0,1-.5-.5v-8.12a.52.52,0,0,1,.2-.4.53.53,0,0,1,.44-.08l3.15.94a.5.5,0,0,1,.35.48v7.18A.5.5,0,0,1,94.46,213.4Zm-2.64-1H94v-6.31l-2.14-.64Z" fill="#231f20"/><path d="M79.73,228.06v-3s-4.65,1.55-4.61,1.48-.46,4-.46,4Z" fill="#fff"/><path d="M74.66,231a.52.52,0,0,1-.29-.09.52.52,0,0,1-.21-.47c.17-1.36.44-3.58.46-3.89a.52.52,0,0,1,.08-.3.5.5,0,0,1,.38-.22c.41-.11,2.94-.94,4.49-1.45a.46.46,0,0,1,.45.07.49.49,0,0,1,.21.4v3a.5.5,0,0,1-.28.45l-5.07,2.42A.59.59,0,0,1,74.66,231Zm.9-4.09c0,.51-.12,1.35-.29,2.75l4-1.9v-2C77.2,226.4,76.14,226.75,75.56,226.89Zm4.17,1.17h0Z" fill="#231f20"/><path d="M69.78,232.56c0-.54,0-7.25,0-7.25l-6.66,2.45v7.15Z" fill="#fff"/><path d="M63.12,235.41a.5.5,0,0,1-.29-.09.52.52,0,0,1-.21-.41v-7.15a.5.5,0,0,1,.33-.47l6.66-2.45a.51.51,0,0,1,.46.06.52.52,0,0,1,.21.41c0,2.69,0,6.83,0,7.21A.49.49,0,0,1,70,233l-6.67,2.35A.45.45,0,0,1,63.12,235.41Zm.5-7.31v6.1l5.65-2c0-1.2,0-4.63,0-6.18Z" fill="#231f20"/><polygon points="61.62 234.91 61.62 227.76 54.2 230.48 53.17 228.5 46.88 231.33 46.88 228.06 39.5 229.09 39.5 241.01 61.62 234.91" fill="#fff"/><path d="M39.5,241.51a.54.54,0,0,1-.3-.1.49.49,0,0,1-.2-.4V229.09a.5.5,0,0,1,.43-.49l7.38-1a.53.53,0,0,1,.4.12.5.5,0,0,1,.17.38v2.5L53,228a.49.49,0,0,1,.65.23l.83,1.59,7-2.57a.47.47,0,0,1,.46.06.48.48,0,0,1,.22.41v7.15a.5.5,0,0,1-.37.48l-22.12,6.1Zm.5-12v10.82l21.12-5.82v-6.06L54.37,231a.48.48,0,0,1-.61-.24l-.82-1.56-5.85,2.64a.51.51,0,0,1-.48,0,.5.5,0,0,1-.23-.42v-2.7Zm21.62,5.38h0Z" fill="#231f20"/><path d="M76.39,230.34l-2.12.17a5.07,5.07,0,0,0-1,.14,7.54,7.54,0,0,0-1.27.56,17.45,17.45,0,0,1-3.16,1,9.76,9.76,0,0,1-1.84.34c-.64,0-1.29-.06-1.93-.05a10.89,10.89,0,0,0-4,1.05c-1.3.54-2.5,1.43-3.8,1.9-1.52.56-3.3.47-4.87,1a1.46,1.46,0,0,1-.58.11c-.32,0-.58-.28-.88-.4-.84-.33-1.69.38-2.3,1a1.48,1.48,0,0,0-2.21.8c-.26-.68-1.23-.59-1.92-.39a6.66,6.66,0,0,0-1.5.58c-.33.2-.68.74-1,.87-.86.38-1.84-.57-2.76,0l0,.26v3.91l2-.5a2.32,2.32,0,0,0,1.68,0c1.46-.5,2.74-1.6,4.28-1.67a4.4,4.4,0,0,0,1.21-.1,6.63,6.63,0,0,0,1-.59c2.1-1.16,4.55-.33,6.72-1.25a9.29,9.29,0,0,1,2.36-1c.45-.07.92,0,1.36-.11a6.33,6.33,0,0,0,1.56-.83,13,13,0,0,1,3.83-1,15.74,15.74,0,0,0,3.62-1.57,12,12,0,0,1,1.18-.46l6.71-2.4c.38-.13.84-.37.82-.78S76.9,230.3,76.39,230.34Z" fill="#68e1fd"/><path d="M68.77,215.5c-1.33-2.89-4-9.07-8.07-7.37A13.41,13.41,0,0,0,57.55,210a4,4,0,0,1-1.16.76,9.48,9.48,0,0,1-1,.19c-1.4.28-2.44,1.43-3.48,2.41a32.21,32.21,0,0,1-5,3.71c-.27.18-.57.39-.62.71-.09.55.62.9,1.18.84C54.64,217.85,62.27,220.09,68.77,215.5Z" fill="#fff"/><path d="M47.34,219.14a1.79,1.79,0,0,1-1.25-.5,1.07,1.07,0,0,1-.29-.94,1.66,1.66,0,0,1,.84-1A32.74,32.74,0,0,0,51.53,213l.38-.36a7,7,0,0,1,3.34-2.17l.4-.06a3.38,3.38,0,0,0,.57-.11,3.3,3.3,0,0,0,.89-.58l.13-.1a13.68,13.68,0,0,1,3.27-2c4.35-1.83,7.22,4.37,8.59,7.35l.13.27a.5.5,0,0,1-.17.62c-4.64,3.28-9.86,3.17-14.91,3.07a52.34,52.34,0,0,0-6.63.15Zm14.72-10.79a3.09,3.09,0,0,0-1.16.24,13,13,0,0,0-3,1.81l-.12.1a3.94,3.94,0,0,1-1.19.74,3.69,3.69,0,0,1-.76.16l-.35,0a6.37,6.37,0,0,0-2.84,1.91l-.39.37a33.12,33.12,0,0,1-5,3.77c-.11.08-.38.25-.4.37a.74.74,0,0,0,.64.27,52.47,52.47,0,0,1,6.75-.16c5,.1,9.69.2,14-2.65C67,212.75,64.88,208.35,62.06,208.35Z" fill="#231f20"/><path d="M68.77,216a.49.49,0,0,1-.45-.7,5,5,0,0,1,5.46-2.55.5.5,0,1,1-.12,1c-3.31-.41-4.39,1.87-4.43,2A.5.5,0,0,1,68.77,216Z" fill="#231f20"/><path d="M46.88,236.08a.5.5,0,0,1-.5-.5v-4.25a.5.5,0,0,1,1,0v4.25A.5.5,0,0,1,46.88,236.08Z" fill="#231f20"/><line x1="54.2" y1="230.48" x2="55.23" y2="234.91" fill="#d1d3d4"/><path d="M55.23,235.41a.5.5,0,0,1-.48-.39l-1-4.43a.51.51,0,0,1,.38-.6.5.5,0,0,1,.6.38l1,4.43a.51.51,0,0,1-.37.6Z" fill="#231f20"/><path d="M188.7,187.35s-3.39-2.46-2.26-4.15,3.38-11.64,3.38-11.64l-9.86-.39s-10.32,14.09-11.26,14.18-.65-14.73-.65-14.73h-1.79s.66,14.27,0,15-13.32.09-13.32.09l-6.86-.38-1.39-13.48-1.94.53s1.08,12.86,0,12.67-20.6,1.79-20.6,1.79l4.34-15.11-1.9.37S120.74,186,119.81,186s-22,1.34-22,1.34l8.68-14.67-4-.09L97.8,180.1s-20.13-.19-22,.84-6.57,8.26-6.57,8.26-29.79,2.07-29.75,2.16,0,2,0,2l32.72-2.21s3.66-6.8,5-7.74S96.62,182,96.62,182l-4.78,7.91s50.32-3,57.54-2.19,17.45.94,17.45.94L180,187.7Z" fill="#68e1fd"/><path d="M325.06,164.56c4.05-.85,8-3.64,12-2.35,1.75.58,3.35,1.95,5.17,1.7,1-.13,1.83-.71,2.79-.9s2.2.27,2.25,1.25a17.43,17.43,0,0,1-6,3,23.07,23.07,0,0,0-4.64,1.42,4.16,4.16,0,0,0-2.47,3.84c.1.92.63,1.87.22,2.7-.16.34-.47.59-.6.94a1.5,1.5,0,0,0,.88,1.76,4.15,4.15,0,0,0,2.13.2,47.33,47.33,0,0,0,9.79-2c3.09-1,6.27-2.26,9.45-1.69,1.54.27,3.42.94,4.53-.16V133.91a5.18,5.18,0,0,0-2.44.89,9.5,9.5,0,0,0-2,3.1,5.55,5.55,0,0,1-1.74,2.48,7.31,7.31,0,0,1-2.59.69c-2.88.55-5.25,2.54-7.88,3.85a5.21,5.21,0,0,1-2.56.7,12.85,12.85,0,0,1-2.69-.76c-3.7-1-7.24,1.74-10.57,3.64a26.8,26.8,0,0,1-10.58,3.4c-1.75.18-4,.55-4.38,2.26a11.09,11.09,0,0,1-.21,1.44c-.63,1.75-3.79,1.58-3.22,3.91.3,1.23,2.92,2.81,4,3.33C316.94,164.35,321.58,165.29,325.06,164.56Z" fill="#68e1fd"/><path d="M335.93,178.64a3.41,3.41,0,0,1-1.5-.3,2,2,0,0,1-1.14-2.39,2.66,2.66,0,0,1,.39-.64,1.85,1.85,0,0,0,.23-.34,2.2,2.2,0,0,0-.08-1.48,6.26,6.26,0,0,1-.19-.94c-.21-1.9,1.22-3.55,2.74-4.35a14.34,14.34,0,0,1,3.43-1.12c.44-.1.88-.21,1.31-.33a17.34,17.34,0,0,0,5.57-2.7.83.83,0,0,0-.23-.27,1.81,1.81,0,0,0-1.38-.28,7.11,7.11,0,0,0-1.2.41,6.87,6.87,0,0,1-1.61.5,6.48,6.48,0,0,1-3.74-1,13,13,0,0,0-1.66-.72c-2.48-.82-5,.11-7.69,1.1a29.08,29.08,0,0,1-4,1.26h0c-3.76.79-8.58-.31-11.69-1.76,0,0-3.87-1.86-4.31-3.67s.81-2.39,1.79-2.93c.65-.36,1.25-.69,1.45-1.25a2.84,2.84,0,0,0,.11-.68,4.17,4.17,0,0,1,.08-.71c.52-2.2,3.42-2.5,4.82-2.64a26.45,26.45,0,0,0,10.38-3.34l1.57-.93c3-1.8,6.05-3.67,9.38-2.76.33.09.65.2,1,.32a5.81,5.81,0,0,0,1.61.42,4.92,4.92,0,0,0,2.31-.64c.84-.42,1.66-.92,2.47-1.4a17.19,17.19,0,0,1,5.55-2.5l.62-.11a4.52,4.52,0,0,0,1.79-.52,4.83,4.83,0,0,0,1.51-2.17l0-.09a10,10,0,0,1,2.14-3.25,4.81,4.81,0,0,1,2.63-1,.57.57,0,0,1,.69.45.45.45,0,0,1,0,.2v40.2a.47.47,0,0,1-.15.35c-1.11,1.12-2.75.77-4.19.46-.26-.06-.52-.12-.78-.16-2.61-.47-5.3.41-7.9,1.26l-1.31.42a48.3,48.3,0,0,1-9.89,2C336.53,178.61,336.23,178.64,335.93,178.64Zm9.5-16.18a2.7,2.7,0,0,1,1.64.53,1.61,1.61,0,0,1,.67,1.24.48.48,0,0,1-.19.42,18.27,18.27,0,0,1-6.16,3.07l-1.35.33a13.64,13.64,0,0,0-3.2,1,3.71,3.71,0,0,0-2.21,3.35,6,6,0,0,0,.17.8,3.06,3.06,0,0,1,0,2.17,4,4,0,0,1-.33.51,1.48,1.48,0,0,0-.25.39c-.16.41.2.93.63,1.13a3.71,3.71,0,0,0,1.87.15,46.91,46.91,0,0,0,9.68-1.93l1.3-.42c2.72-.89,5.53-1.81,8.39-1.3l.81.17c1.17.25,2.38.51,3.13-.06V134.5a3.32,3.32,0,0,0-1.6.67,9,9,0,0,0-1.91,2.94l0,.09a5.7,5.7,0,0,1-1.89,2.6,5.47,5.47,0,0,1-2.16.66l-.59.1a16.38,16.38,0,0,0-5.23,2.38c-.82.49-1.66,1-2.53,1.43a5.91,5.91,0,0,1-2.81.75,6.63,6.63,0,0,1-1.9-.48c-.3-.11-.59-.21-.89-.3-2.91-.79-5.81,1-8.6,2.65-.54.33-1.07.65-1.59.95a27.42,27.42,0,0,1-10.78,3.46c-1.78.18-3.63.55-3.94,1.87a5.17,5.17,0,0,0-.07.55,3.26,3.26,0,0,1-.16,1,3.57,3.57,0,0,1-1.9,1.79c-1,.56-1.53.9-1.31,1.83s2.34,2.34,3.76,3c3,1.38,7.53,2.43,11.06,1.69a27.93,27.93,0,0,0,3.87-1.22c2.73-1,5.54-2,8.35-1.12a13.68,13.68,0,0,1,1.79.79,5.73,5.73,0,0,0,3.17.9,5.67,5.67,0,0,0,1.36-.44,7.55,7.55,0,0,1,1.39-.46A2.42,2.42,0,0,1,345.43,162.46Zm-20.37,2.1h0Z" fill="#231f20"/><path d="M76,123.5c1.28-1.21,3.51-1.89,4.72-.61.31.33.54.76,1,.9a1.84,1.84,0,0,0,.9-.05,9.11,9.11,0,0,1,4.31.16c1.86.52,3.51,1.62,5.36,2.2,2.44.76,5.06.56,7.58,1-.48.89-1.67,1-2.68,1.1-7.78.38-15.56.75-23.35.67-1.73,0-2.41-.9-1.26-2S74.82,124.6,76,123.5Z" fill="#68e1fd"/><path d="M76,129.36H73.77c-1.16,0-2-.39-2.23-1-.13-.32-.23-1,.63-1.82l1.06-1c.79-.77,1.6-1.57,2.4-2.32h0a5.08,5.08,0,0,1,3.45-1.44,2.78,2.78,0,0,1,2,.85,3.88,3.88,0,0,1,.26.31.78.78,0,0,0,1.08.4,9.78,9.78,0,0,1,4.6.15,19.4,19.4,0,0,1,2.89,1.17,18.27,18.27,0,0,0,2.49,1,19.59,19.59,0,0,0,4.46.66c1,.07,2,.14,3,.31a.51.51,0,0,1,.37.28.48.48,0,0,1,0,.45c-.59,1.09-1.89,1.3-3.09,1.36C90.2,129,83.05,129.36,76,129.36Zm.35-5.49c-.79.75-1.6,1.54-2.39,2.3l-1,1c-.31.29-.47.58-.41.73s.53.41,1.32.42c7.77.08,15.68-.3,23.32-.67a5.27,5.27,0,0,0,1.53-.25c-.62-.07-1.24-.11-1.86-.15a21,21,0,0,1-4.69-.7,22.54,22.54,0,0,1-2.62-1.09,16.64,16.64,0,0,0-2.73-1.11,8.75,8.75,0,0,0-4.07-.15,2.17,2.17,0,0,1-1.16,0,2.09,2.09,0,0,1-1-.77,2.76,2.76,0,0,0-.21-.25,1.78,1.78,0,0,0-1.28-.54,4.09,4.09,0,0,0-2.74,1.17Z" fill="#231f20"/><path d="M70.46,137.48a1.79,1.79,0,0,1,1.54.86c-2.62.2-6.56.91-9.07.08a8.09,8.09,0,0,1,2.92-1.18,5.55,5.55,0,0,1,2.24-.52C68.84,136.82,69.59,137.38,70.46,137.48Z" fill="#231f20"/><path d="M66,139.31a10.45,10.45,0,0,1-3.21-.42.5.5,0,0,1-.18-.85A6.16,6.16,0,0,1,65.05,137l.64-.19.48-.17a4.35,4.35,0,0,1,2-.38,4.89,4.89,0,0,1,1.21.39,4,4,0,0,0,1.15.37h0a2.2,2.2,0,0,1,1.95,1.16.53.53,0,0,1,0,.46.49.49,0,0,1-.39.24c-.55,0-1.15.1-1.79.17A40.28,40.28,0,0,1,66,139.31Zm-1.64-1.1a26.87,26.87,0,0,0,5.79-.19l.33,0H70.4a5.1,5.1,0,0,1-1.43-.44,4.25,4.25,0,0,0-1-.32,3.53,3.53,0,0,0-1.51.33l-.51.18-.68.2C65,138,64.66,138.1,64.35,138.21Z" fill="#231f20"/><path d="M83.39,135.37a21.19,21.19,0,0,0,5-.46,57.29,57.29,0,0,1,11.49-.25q9.75.48,19.46,1.62c-2.13,1.5-5,.8-7.6.74a47.26,47.26,0,0,0-6.48.65,69.55,69.55,0,0,1-8.42.29l-11.15-.05c-2.86,0-7.28.78-9.93-.2C76.78,135.13,81.24,135.17,83.39,135.37Z" fill="#231f20"/><path d="M79.32,138.7a11.12,11.12,0,0,1-3.78-.52.5.5,0,0,1-.29-.26.55.55,0,0,1,0-.4c1.22-3,6.14-2.83,8.19-2.65a15,15,0,0,0,3.86-.3l1-.16a58.64,58.64,0,0,1,11.59-.25c6.48.32,13,.87,19.49,1.62a.51.51,0,0,1,.42.38.5.5,0,0,1-.19.53c-1.8,1.26-4,1.09-6.14.93-.59,0-1.19-.09-1.76-.1a28.67,28.67,0,0,0-4.53.4c-.63.09-1.25.18-1.88.25a71.07,71.07,0,0,1-8.49.29l-11.14-.05c-.84,0-1.82.06-2.87.13S80.47,138.7,79.32,138.7Zm-2.87-1.28a21.92,21.92,0,0,0,6.26.12c1.06-.07,2.06-.14,2.93-.13l11.15.05a68.94,68.94,0,0,0,8.37-.29l1.85-.24a28,28,0,0,1,4.69-.41c.59,0,1.2.06,1.82.1a13.38,13.38,0,0,0,3.86-.05c-5.83-.65-11.73-1.12-17.57-1.42a59,59,0,0,0-11.4.25l-1,.15a16.12,16.12,0,0,1-4.11.32h0C82,135.75,77.85,135.53,76.45,137.42Z" fill="#231f20"/><path d="M89.74,141.14a11.85,11.85,0,0,1,4.67-.69c.85.08,1.69.29,2.54.37a22.85,22.85,0,0,0,5.07-.42,43.44,43.44,0,0,1,14.48,1.15,59.41,59.41,0,0,1-10.83.74l-20.41.13a12.06,12.06,0,0,1,8-1.52" fill="#231f20"/><path d="M85.26,142.92a.5.5,0,0,1-.48-.37A.49.49,0,0,1,85,142a12.68,12.68,0,0,1,6-1.73,10.85,10.85,0,0,1,3.44-.31c.44,0,.89.12,1.33.2s.81.14,1.21.18a16.3,16.3,0,0,0,3.78-.26l1.18-.16c5.24-.66,10.58.27,14.64,1.15a.51.51,0,0,1,.4.49.52.52,0,0,1-.41.49,59.88,59.88,0,0,1-10.91.75l-20.41.13Zm4.08-1.48a12.24,12.24,0,0,0-1.78.46l18.11-.11c2.61,0,5.28,0,7.91-.32a38.52,38.52,0,0,0-11.5-.57l-1.16.16a16.71,16.71,0,0,1-4,.26c-.44,0-.86-.11-1.29-.19s-.83-.14-1.25-.18c-.21,0-.41,0-.62,0,0,0,0,0,0,.06a.49.49,0,0,1-.57.41,11.26,11.26,0,0,0-2-.13c-.4.09-.82.21-1.26.35A.51.51,0,0,1,89.34,141.44Z" fill="#231f20"/><path d="M58.18,140.2a21.46,21.46,0,0,1-6.27-1.52,22.92,22.92,0,0,0-6.27-1.58c-1.43-.09-5.09.18-5.73,1.87-.59,1.54,1.81,2.21,2.92,2.46C47.53,142.51,53.53,141.12,58.18,140.2Z" fill="#231f20"/><path d="M46.68,142.32a17.65,17.65,0,0,1-4-.4c-1.74-.4-2.79-1-3.2-1.74a1.64,1.64,0,0,1-.07-1.39c.79-2,4.76-2.28,6.23-2.19A23.3,23.3,0,0,1,52,138.19a21.51,21.51,0,0,0,6.19,1.51.5.5,0,0,1,.47.47.48.48,0,0,1-.4.52l-1.19.24A54.55,54.55,0,0,1,46.68,142.32Zm-1.57-4.74c-1.67,0-4.29.41-4.73,1.57a.61.61,0,0,0,0,.56c.15.28.67.81,2.55,1.24,3.7.85,8.33.1,12.35-.68-1.24-.31-2.44-.73-3.55-1.12a22.92,22.92,0,0,0-6.13-1.55Z" fill="#231f20"/><path d="M156.09,152.54a15,15,0,0,1-4.49-.68.38.38,0,0,1-.25-.47.39.39,0,0,1,.48-.25,14.86,14.86,0,0,0,14.3-3.21.37.37,0,0,1,.48,0c2.31,1.76,5.29,3.63,7.84,2.42a8.44,8.44,0,0,0,1.05-.64,4.2,4.2,0,0,1,4.61-.61l.71.21c4.15,1.07,8.36-1.19,12.32-3.6a.38.38,0,0,1,.52.12.38.38,0,0,1-.13.52c-4.1,2.49-8.47,4.83-12.9,3.68l-.74-.21a4.67,4.67,0,0,0-2.29-.33,4.61,4.61,0,0,0-1.68.85,9.46,9.46,0,0,1-1.15.69c-2.82,1.34-5.93-.48-8.37-2.31A15.64,15.64,0,0,1,156.09,152.54Z" fill="#fff"/><path d="M135.28,209.3l-.85,0a.37.37,0,0,1-.35-.39.35.35,0,0,1,.39-.36,20.93,20.93,0,0,0,10.94-2.63l.13-.07a4.42,4.42,0,0,1,1.91-.72c1.28-.05,2.15.82,3,1.66a7.83,7.83,0,0,0,1.45,1.22c1.78,1,3.78.12,5.89-.85a13.06,13.06,0,0,1,4.68-1.49.38.38,0,0,1,.39.36.37.37,0,0,1-.36.39,12.4,12.4,0,0,0-4.39,1.42c-2.2,1-4.47,2.05-6.59.82a8.44,8.44,0,0,1-1.59-1.33c-.78-.77-1.53-1.5-2.45-1.45a3.68,3.68,0,0,0-1.58.62l-.13.07A21.54,21.54,0,0,1,135.28,209.3Z" fill="#fff"/><path d="M248.14,131.77c-2.33,0-4.77-1.07-5.74-3.22a18.27,18.27,0,0,1-11.84,2.27.37.37,0,0,1,.11-.74,17.46,17.46,0,0,0,11.72-2.4.4.4,0,0,1,.32,0,.37.37,0,0,1,.23.24c.83,2.46,4,3.49,6.4,3,2.68-.51,5-2.3,7-3.89a.38.38,0,0,1,.53.07.38.38,0,0,1-.07.52c-2.09,1.64-4.46,3.5-7.32,4A7.5,7.5,0,0,1,248.14,131.77Z" fill="#fff"/><path d="M148.25,123.45a9.1,9.1,0,0,1-5.89-2.1,17.73,17.73,0,0,1-11.52,1.14.38.38,0,0,1-.28-.45.39.39,0,0,1,.45-.28,16.93,16.93,0,0,0,11.25-1.2.37.37,0,0,1,.41.07,8.46,8.46,0,0,0,9.73,1c1.14-.69,2.66-1.6,3.75-.6a.38.38,0,0,1-.51.55c-.63-.57-1.65,0-2.82.67A8.83,8.83,0,0,1,148.25,123.45Z" fill="#fff"/><polyline points="197.7 176.81 197.7 171.47 203.15 171.47 203.15 178.88" fill="#fff"/><path d="M203.15,179.38a.5.5,0,0,1-.5-.5V172H198.2v4.85a.5.5,0,0,1-.5.5.5.5,0,0,1-.5-.5v-5.35a.51.51,0,0,1,.5-.5h5.45a.51.51,0,0,1,.5.5v7.42A.5.5,0,0,1,203.15,179.38Z" fill="#231f20"/><path d="M234,180a42.1,42.1,0,0,0-.37-5.06l4.81-1L240,180" fill="#fff"/><path d="M234,180.5a.45.45,0,0,1-.16,0,.49.49,0,0,1-.31-.61,45.24,45.24,0,0,0-.39-4.86.5.5,0,0,1,.39-.55l4.81-1a.51.51,0,0,1,.59.37l1.55,6a.51.51,0,0,1-.36.61.49.49,0,0,1-.61-.36l-1.43-5.59-3.9.8a25.31,25.31,0,0,1,.3,4.83A.5.5,0,0,1,234,180.5Z" fill="#231f20"/><path d="M123.72,185.54c.14-.21,0-7.88,0-7.88l4-.7.63,8.58" fill="#fff"/><path d="M123.72,186a.45.45,0,0,1-.27-.08.5.5,0,0,1-.2-.57c.07-.56,0-5,0-7.72a.5.5,0,0,1,.42-.5l3.94-.71a.5.5,0,0,1,.39.1.52.52,0,0,1,.19.36l.64,8.59a.5.5,0,0,1-.46.53.51.51,0,0,1-.54-.46l-.59-8-3,.54c.13,7.41,0,7.58-.09,7.74A.52.52,0,0,1,123.72,186Z" fill="#231f20"/><path d="M130,184.49V180l3.38-.3.42,4.22" fill="#fff"/><path d="M130,185a.5.5,0,0,1-.5-.5V180a.5.5,0,0,1,.45-.49l3.38-.31a.5.5,0,0,1,.54.45l.43,4.22a.5.5,0,0,1-1,.1l-.37-3.73-2.43.22v4A.51.51,0,0,1,130,185Z" fill="#231f20"/><polyline points="339.75 183.23 340.45 173.15 349.25 173.15 348.03 184.42 349.25 169.78 356.22 169.78 356.22 182.16" fill="#fff"/><path d="M348,184.92h0a.48.48,0,0,1-.45-.53l.89-10.73h-7.51l-.67,9.61a.51.51,0,0,1-.54.47.5.5,0,0,1-.46-.54l.71-10.07a.49.49,0,0,1,.49-.47h8.06l.24-2.92a.5.5,0,0,1,.5-.45h7a.5.5,0,0,1,.5.5v12.38a.5.5,0,0,1-.5.5.5.5,0,0,1-.5-.5V170.28h-6l-.2,2.44a.52.52,0,0,1,.11.1.48.48,0,0,1,.13.39l-1.22,11.26A.5.5,0,0,1,348,184.92Z" fill="#231f20"/><polyline points="326.56 176.63 326.56 169.78 322.34 169.78 322.34 171.84 318.59 171.93 318.59 165.74 312.86 165.18 312.86 169.31 309.2 168.93 309.2 171.28" fill="#fff"/><path d="M326.56,177.13a.51.51,0,0,1-.5-.5v-6.35h-3.22v1.56a.51.51,0,0,1-.49.5l-3.75.09a.48.48,0,0,1-.36-.14.48.48,0,0,1-.15-.36v-5.74l-4.73-.46v3.58a.52.52,0,0,1-.16.37.55.55,0,0,1-.39.12l-3.11-.32v1.8a.5.5,0,1,1-1,0v-2.35a.51.51,0,0,1,.55-.5l3.11.32v-3.57a.48.48,0,0,1,.17-.37.45.45,0,0,1,.38-.13l5.72.56a.51.51,0,0,1,.46.5v5.68l2.75-.07v-1.57a.5.5,0,0,1,.5-.5h4.22a.5.5,0,0,1,.5.5v6.85A.5.5,0,0,1,326.56,177.13Z" fill="#231f20"/><path d="M217,247a.39.39,0,0,1-.18,0,.5.5,0,0,1-.28-.64c.74-1.92,2.76-3.28,5.84-4a25.61,25.61,0,0,1,7.41-.51,6.57,6.57,0,0,1,4.42-6.6,10.16,10.16,0,0,1,6.4-7.67.5.5,0,0,1,.34.94,9.09,9.09,0,0,0-5.79,7.19.51.51,0,0,1-.38.42,5.48,5.48,0,0,0-3.92,6.18.48.48,0,0,1-.12.43.47.47,0,0,1-.42.16,24.79,24.79,0,0,0-7.73.44c-1.91.42-4.34,1.33-5.12,3.34A.51.51,0,0,1,217,247Z" fill="#231f20"/><path d="M322.62,240.67a.48.48,0,0,1-.26-.07,20.92,20.92,0,0,0-9.78-3.08.49.49,0,0,1-.4-.24.51.51,0,0,1,0-.48,2.92,2.92,0,0,0,.07-2.36,6.26,6.26,0,0,0-3.3-3.3,22.12,22.12,0,0,0-3.33-1,17.3,17.3,0,0,1-4.4-1.53c-.43-.25-.84-.53-1.24-.8a10.13,10.13,0,0,0-1.85-1.1,5.79,5.79,0,0,0-5.05.55,9,9,0,0,0-3.41,4.11.49.49,0,0,1-.65.26.49.49,0,0,1-.26-.66,9.94,9.94,0,0,1,3.8-4.57,6.76,6.76,0,0,1,5.95-.61,10.58,10.58,0,0,1,2,1.19c.38.26.76.53,1.16.76a16.34,16.34,0,0,0,4.16,1.43,22.06,22.06,0,0,1,3.47,1.08,7.28,7.28,0,0,1,3.85,3.87,4.08,4.08,0,0,1,.14,2.48,21.72,21.72,0,0,1,9.56,3.17.49.49,0,0,1,.16.69A.48.48,0,0,1,322.62,240.67Z" fill="#231f20"/><path d="M166.38,241.52a.51.51,0,0,1-.37-.15l-4.82-5a7.94,7.94,0,0,0-2.94-2.23,2.35,2.35,0,0,0-2.82.9.51.51,0,0,1-.46.29h0a.48.48,0,0,1-.45-.3,7.14,7.14,0,0,0-11.73-2,.5.5,0,0,1-.7,0,.5.5,0,0,1,0-.71,8.12,8.12,0,0,1,13,1.52,3.52,3.52,0,0,1,3.51-.68,8.82,8.82,0,0,1,3.35,2.49l4.83,5a.49.49,0,0,1,0,.7A.47.47,0,0,1,166.38,241.52Z" fill="#231f20"/><path d="M345.94,164.08a.49.49,0,0,1-.48-.36.51.51,0,0,1,.35-.62l5.37-1.47a4.48,4.48,0,0,0,1.39-.54,4.33,4.33,0,0,0,.74-.69c.15-.15.29-.31.44-.45a5.37,5.37,0,0,1,4.64-1.34.51.51,0,0,1,.39.59.49.49,0,0,1-.59.39,4.34,4.34,0,0,0-3.75,1.09c-.14.13-.27.27-.4.41a6,6,0,0,1-.9.83,5.66,5.66,0,0,1-1.7.68l-5.37,1.47Z" fill="#231f20"/><path d="M318.55,159.63a.5.5,0,0,1-.34-.86,16.82,16.82,0,0,1,8.13-4.14,2.5,2.5,0,0,1,1.38,0,2.65,2.65,0,0,1,1,.78l.26.27a2.35,2.35,0,0,0,2.86.21,11.28,11.28,0,0,1,14.89-3.32.51.51,0,0,1,.16.69.49.49,0,0,1-.69.16,10.38,10.38,0,0,0-13.57,3.09.34.34,0,0,1-.12.12,3.34,3.34,0,0,1-4.22-.23,3.26,3.26,0,0,1-.31-.33,1.66,1.66,0,0,0-.6-.5,1.57,1.57,0,0,0-.83,0,15.71,15.71,0,0,0-7.64,3.88A.5.5,0,0,1,318.55,159.63Z" fill="#231f20"/><path d="M61.07,224.1a.5.5,0,0,1-.42-.22c-.74-1.09-2.34-1.18-3-1.18s-1,.06-1.57.12a12.65,12.65,0,0,1-2.31.11c-.37,0-.75-.08-1.14-.13-1.32-.17-2.56-.34-3.22.47a.51.51,0,0,1-.69.08,4.06,4.06,0,0,0-4.27-.28.5.5,0,1,1-.48-.88,5,5,0,0,1,5,.12c1-.87,2.49-.67,3.8-.5.37.05.73.1,1.08.12a11.91,11.91,0,0,0,2.13-.1c.54-.06,1.1-.12,1.67-.13a4.44,4.44,0,0,1,3.84,1.62.5.5,0,0,1-.13.69A.51.51,0,0,1,61.07,224.1Z" fill="#231f20"/><path d="M159.28,247a.54.54,0,0,1-.3-.1.5.5,0,0,1-.1-.7,9,9,0,0,1,4.92-3.58,5.56,5.56,0,0,1,4.17.64,3.11,3.11,0,0,1,.69-1.45,6.48,6.48,0,0,1,3.06-1.64,11.4,11.4,0,0,1,4.13-.76,4.19,4.19,0,0,1,3.68,2.32.5.5,0,0,1-.26.65.5.5,0,0,1-.66-.26,3.25,3.25,0,0,0-2.83-1.71,10.53,10.53,0,0,0-3.76.71,5.64,5.64,0,0,0-2.61,1.35,1.92,1.92,0,0,0-.47,1.41,1.29,1.29,0,0,0,0,.25,4.05,4.05,0,0,1,.46.68.49.49,0,0,1-.11.62.5.5,0,0,1-.64,0,2,2,0,0,1-.58-.77,4.31,4.31,0,0,0-4.08-1.08,8,8,0,0,0-4.35,3.21A.51.51,0,0,1,159.28,247Z" fill="#231f20"/><path d="M186.89,246.28a.54.54,0,0,1-.21-.05,4.06,4.06,0,0,1-2-4.44,9,9,0,0,1,2.35-4.17,12.69,12.69,0,0,1,4.06-3.26,6.26,6.26,0,0,1,4.61-.31,9.26,9.26,0,0,1,7.86-8,.5.5,0,0,1,.55.44.5.5,0,0,1-.44.55,8.21,8.21,0,0,0-7,7.79.5.5,0,0,1-.24.43.52.52,0,0,1-.5,0,5,5,0,0,0-4.41,0,11.59,11.59,0,0,0-3.72,3,8.13,8.13,0,0,0-2.12,3.69,3.11,3.11,0,0,0,1.41,3.35.5.5,0,0,1,.24.67A.49.49,0,0,1,186.89,246.28Z" fill="#231f20"/><path d="M255.52,244.79a7.36,7.36,0,0,1,9.75,1.07,20.76,20.76,0,0,1,9.07-2.75c1.14-.07,2.65.26,2.73,1.4.73-1.4,2.66-1.54,4.23-1.38a29.94,29.94,0,0,1,11.09,3.44l.94.76" fill="#68e1fd"/><path d="M293.33,247.83a.51.51,0,0,1-.31-.11l-.94-.76a29.46,29.46,0,0,0-10.84-3.33c-1.11-.12-3.08-.13-3.72,1.11a.49.49,0,0,1-.55.26.48.48,0,0,1-.39-.45c-.06-.79-1.39-1-2.21-.94a20.47,20.47,0,0,0-8.85,2.68.49.49,0,0,1-.63-.11,6.85,6.85,0,0,0-9.07-1,.5.5,0,1,1-.61-.79,7.9,7.9,0,0,1,10.16.82,21.45,21.45,0,0,1,8.94-2.61,3.56,3.56,0,0,1,2.89.92c.85-.78,2.27-1.09,4.15-.9a30.48,30.48,0,0,1,11.28,3.5l1,.81a.51.51,0,0,1,.07.71A.5.5,0,0,1,293.33,247.83Z" fill="#231f20"/><path d="M329.51,249.32a8.51,8.51,0,0,1,10.34-1.23,9.43,9.43,0,0,1,9.46-5" fill="#68e1fd"/><path d="M329.51,249.82a.54.54,0,0,1-.35-.14.5.5,0,0,1,0-.71,9,9,0,0,1,10.5-1.57,10,10,0,0,1,9.73-4.84.5.5,0,0,1,.42.56.49.49,0,0,1-.56.43,8.93,8.93,0,0,0-8.95,4.77.51.51,0,0,1-.31.26.55.55,0,0,1-.4-.06,7.94,7.94,0,0,0-9.71,1.15A.51.51,0,0,1,329.51,249.82Z" fill="#231f20"/><path d="M49.6,186.53v-5.07l3.8-.35v-2.85h3.73l.36,5.8,4.29-1v4.36" fill="#fff"/><path d="M61.78,187.94a.5.5,0,0,1-.5-.5v-3.73l-3.68.84a.5.5,0,0,1-.41-.09.48.48,0,0,1-.2-.37l-.33-5.33H53.9v2.35a.5.5,0,0,1-.45.5l-3.35.31v4.61a.5.5,0,0,1-.5.5.51.51,0,0,1-.5-.5v-5.07a.51.51,0,0,1,.46-.5l3.34-.31v-2.39a.5.5,0,0,1,.5-.5h3.73a.49.49,0,0,1,.5.47l.32,5.22,3.72-.86a.51.51,0,0,1,.61.49v4.36A.5.5,0,0,1,61.78,187.94Z" fill="#231f20"/><polyline points="67.27 180 66.85 168.02 72.22 167.73 72.97 178.86" fill="#fff"/><path d="M67.27,180.5a.5.5,0,0,1-.5-.48l-.42-12a.49.49,0,0,1,.47-.51l5.38-.29a.5.5,0,0,1,.52.47l.75,11.12a.49.49,0,0,1-.46.53.51.51,0,0,1-.54-.46l-.71-10.63-4.39.23.4,11.5a.5.5,0,0,1-.48.51Z" fill="#231f20"/><path d="M79,186c.07-.29-.29-7.78-.29-7.78h4v3h3v-3h5.28l-.63,5.31,2.88-.72V186" fill="#fff"/><path d="M79,186.54l-.13,0a.5.5,0,0,1-.37-.57c0-.44-.16-4.93-.28-7.67a.48.48,0,0,1,.49-.52h4a.5.5,0,0,1,.5.5v2.49h2v-2.49a.5.5,0,0,1,.5-.5h5.28a.52.52,0,0,1,.38.17.5.5,0,0,1,.12.39l-.55,4.59,2.18-.54a.48.48,0,0,1,.43.09.49.49,0,0,1,.19.39V186a.5.5,0,0,1-.5.5.51.51,0,0,1-.5-.5v-2.55l-2.26.57a.51.51,0,0,1-.62-.55l.57-4.75H86.14v2.49a.5.5,0,0,1-.5.5h-3a.5.5,0,0,1-.5-.5v-2.49H79.27c.33,7.06.26,7.31.24,7.4A.51.51,0,0,1,79,186.54Z" fill="#231f20"/><polyline points="148.47 176.96 147.96 168.18 152 168.65 152 174.66 155.66 174.66 156.03 178.03 160.54 176.96" fill="#fff"/><path d="M156,178.53a.5.5,0,0,1-.49-.44l-.33-2.93H152a.5.5,0,0,1-.5-.5v-5.57l-3-.34.47,8.18a.49.49,0,0,1-.47.52A.5.5,0,0,1,148,177l-.51-8.77a.48.48,0,0,1,.16-.39.47.47,0,0,1,.4-.14l4,.47a.51.51,0,0,1,.45.5v5.51h3.16a.49.49,0,0,1,.49.44l.32,2.82,3.95-.95a.5.5,0,0,1,.6.37.49.49,0,0,1-.37.6l-4.5,1.08Z" fill="#231f20"/><polyline points="161.01 190.33 161.01 184.49 164.39 184.49 164.85 190.86" fill="#fff"/><path d="M164.85,191.36a.5.5,0,0,1-.49-.46l-.44-5.91h-2.41v5.34a.5.5,0,0,1-.5.5.5.5,0,0,1-.5-.5v-5.84a.5.5,0,0,1,.5-.5h3.38a.49.49,0,0,1,.49.46l.47,6.38a.49.49,0,0,1-.46.53Z" fill="#231f20"/><path d="M188.05,185.54c-.2-.42,0-6.66,0-6.66l5.29.82-.56,3.53h3.52v3.44" fill="#fff"/><path d="M196.3,187.17a.5.5,0,0,1-.5-.5v-2.94h-3a.52.52,0,0,1-.5-.58l.49-3-4.24-.66c-.08,2.71-.1,5.54,0,5.92a.48.48,0,0,1-.24.64.52.52,0,0,1-.68-.26c-.17-.35-.19-2.68,0-6.9a.55.55,0,0,1,.18-.37.51.51,0,0,1,.4-.11l5.29.83a.46.46,0,0,1,.32.2.48.48,0,0,1,.09.37l-.47,2.95h2.94a.5.5,0,0,1,.5.5v3.44A.5.5,0,0,1,196.3,187.17Z" fill="#231f20"/><path d="M254.31,188.44c.41-.36.08-6.18.08-6.18l5.4.51v4.93l2.67-1v3.52" fill="#fff"/><path d="M262.46,190.69a.51.51,0,0,1-.5-.5V187.4l-2,.77a.5.5,0,0,1-.68-.47v-4.47l-4.37-.42c.29,5.5-.09,5.84-.27,6a.5.5,0,0,1-.74-.67,35.36,35.36,0,0,0,0-5.85.51.51,0,0,1,.15-.39.53.53,0,0,1,.4-.14l5.39.52a.5.5,0,0,1,.46.49V187l2-.77a.5.5,0,0,1,.68.47v3.52A.5.5,0,0,1,262.46,190.69Z" fill="#231f20"/><polyline points="273.3 180 274.01 173.95 278.44 173.95 278.44 178.26 283.2 178.14" fill="#fff"/><path d="M273.3,180.5h-.06a.5.5,0,0,1-.44-.55l.71-6.06a.5.5,0,0,1,.5-.44h4.43a.5.5,0,0,1,.5.5v3.8l4.25-.11a.5.5,0,0,1,0,1l-4.77.12a.5.5,0,0,1-.36-.14.55.55,0,0,1-.15-.36v-3.81h-3.49l-.65,5.61A.5.5,0,0,1,273.3,180.5Z" fill="#231f20"/><path d="M249.55,173.15c.38-.7,0-13.23,0-13.23l8.13-.79.71,8.39,5.57.85V174" fill="#fff"/><path d="M264,174.45a.5.5,0,0,1-.5-.5V168.8l-5.15-.78a.5.5,0,0,1-.42-.45l-.67-7.89-7.16.69c.15,4.78.31,12.33-.07,13a.49.49,0,0,1-.68.2.51.51,0,0,1-.22-.65c.24-.79.1-8.38,0-13a.5.5,0,0,1,.45-.52l8.13-.79a.5.5,0,0,1,.37.12.49.49,0,0,1,.17.34l.68,8,5.19.78a.51.51,0,0,1,.42.5V174A.5.5,0,0,1,264,174.45Z" fill="#231f20"/><polyline points="214.6 174.56 214.6 163.44 220.37 163.44 219.81 171.47 224.03 171.47 224.03 175.59 227.55 175.59 227.55 163.44 232.62 166.54 232.62 173.11" fill="#fff"/><path d="M227.55,176.09H224a.5.5,0,0,1-.5-.5V172h-3.72a.5.5,0,0,1-.37-.15.53.53,0,0,1-.13-.38l.52-7.49H215.1v10.62a.5.5,0,0,1-.5.5.5.5,0,0,1-.5-.5V163.44a.5.5,0,0,1,.5-.5h5.77a.5.5,0,0,1,.5.54l-.53,7.48H224a.5.5,0,0,1,.5.5v3.63h2.52V163.44a.52.52,0,0,1,.25-.44.52.52,0,0,1,.51,0l5.07,3.11a.49.49,0,0,1,.24.42v6.57a.51.51,0,0,1-.5.5.5.5,0,0,1-.5-.5v-6.29l-4.07-2.49v11.26A.5.5,0,0,1,227.55,176.09Z" fill="#231f20"/><path d="M106.06,182v-5.87H110l.74-9.43,6.72-3.8V178L121,177v5" fill="#fff"/><path d="M121,182.48a.5.5,0,0,1-.5-.5v-4.35l-2.87.88A.49.49,0,0,1,117,178v-14.3L111.21,167l-.71,9.17a.5.5,0,0,1-.5.46h-3.44V182a.51.51,0,0,1-.5.5.5.5,0,0,1-.5-.5v-5.87a.5.5,0,0,1,.5-.5h3.48l.7-9a.5.5,0,0,1,.25-.4l6.72-3.8a.5.5,0,0,1,.75.44v14.48l2.87-.88a.52.52,0,0,1,.45.07.54.54,0,0,1,.2.41v5A.51.51,0,0,1,121,182.48Z" fill="#231f20"/><polyline points="137.45 188.55 137.45 181.98 140.92 179.16 140.92 187.6" fill="#fff"/><path d="M137.45,189.05a.5.5,0,0,1-.5-.5V182a.52.52,0,0,1,.18-.39l3.48-2.82a.51.51,0,0,1,.53-.06.5.5,0,0,1,.28.45v8.44a.5.5,0,0,1-.5.5.51.51,0,0,1-.5-.5v-7.39l-2.47,2v6.34A.5.5,0,0,1,137.45,189.05Z" fill="#231f20"/><path d="M100.47,189.52l.47-6s4.13-.5,4.22,0,.9,4.9.9,4.9" fill="#fff"/><path d="M100.47,190h0a.52.52,0,0,1-.46-.54l.47-6a.51.51,0,0,1,.44-.46c4.59-.55,4.7,0,4.78.4l.89,4.91-1,.18s-.66-3.65-.85-4.68a19,19,0,0,0-3.3.14l-.44,5.62A.5.5,0,0,1,100.47,190Z" fill="#231f20"/><polyline points="169.18 178.03 169.18 173.11 173.58 173.11 172.53 178.03" fill="#fff"/><path d="M172.53,178.53h-.11a.49.49,0,0,1-.38-.59l.92-4.32h-3.28V178a.5.5,0,0,1-.5.5.5.5,0,0,1-.5-.5v-4.92a.5.5,0,0,1,.5-.5h4.4a.52.52,0,0,1,.39.18.49.49,0,0,1,.1.42L173,178.14A.49.49,0,0,1,172.53,178.53Z" fill="#231f20"/><path d="M321.9,190.86c-.47-.14-.73-7.63-.73-7.63h6.19l8.19-10.08v21.12" fill="#fff"/><path d="M335.55,194.77a.5.5,0,0,1-.5-.5V174.56l-7.3,9a.51.51,0,0,1-.39.19h-5.67a46,46,0,0,0,.57,6.78.5.5,0,0,1-.5.83c-.37-.11-.82-.25-1.09-8.09a.47.47,0,0,1,.14-.37.48.48,0,0,1,.36-.15h5.95l8.05-9.89a.48.48,0,0,1,.55-.16.5.5,0,0,1,.33.47v21.12A.5.5,0,0,1,335.55,194.77Z" fill="#231f20"/><path d="M344.82,193.24c0-.94.56-8,.56-8h9v6.62" fill="#fff"/><path d="M344.82,193.74a.5.5,0,0,1-.5-.5c0-1,.54-7.73.56-8a.5.5,0,0,1,.5-.46h9a.5.5,0,0,1,.5.5v6.62a.5.5,0,0,1-.5.5.51.51,0,0,1-.5-.5v-6.12h-8.08c-.12,1.58-.52,6.71-.52,7.48A.5.5,0,0,1,344.82,193.74Z" fill="#231f20"/><polyline points="329.51 166.58 329.75 159.64 336 158.82 336 165.83" fill="#fff"/><path d="M329.51,167.08h0a.5.5,0,0,1-.48-.51l.24-6.95a.52.52,0,0,1,.44-.48l6.24-.82a.53.53,0,0,1,.4.12.54.54,0,0,1,.17.38v7a.5.5,0,0,1-.5.5.5.5,0,0,1-.5-.5v-6.44l-5.26.69L330,166.6A.5.5,0,0,1,329.51,167.08Z" fill="#231f20"/><path d="M257.68,176.63c.14-.94.71-5.17.71-5.17l8.72-.18-1.08,7" fill="#fff"/><path d="M266,178.76H266a.51.51,0,0,1-.42-.57l1-6.39-7.69.17c-.15,1.09-.55,4-.66,4.74a.51.51,0,0,1-.57.42.5.5,0,0,1-.42-.57c.14-.93.71-5.15.71-5.15a.51.51,0,0,1,.49-.44l8.72-.18a.49.49,0,0,1,.38.17.49.49,0,0,1,.12.4l-1.08,7A.5.5,0,0,1,266,178.76Z" fill="#231f20"/><path d="M200.1,180a55.32,55.32,0,0,0,1-6.05H206V180" fill="#fff"/><path d="M200.1,180.5a.47.47,0,0,1-.16,0,.51.51,0,0,1-.31-.64,53.34,53.34,0,0,0,1-6,.49.49,0,0,1,.49-.44H206a.5.5,0,0,1,.5.5V180a.5.5,0,0,1-1,0v-5.55h-4a51.3,51.3,0,0,1-.95,5.72A.51.51,0,0,1,200.1,180.5Z" fill="#231f20"/><polyline points="212.81 185.73 213.47 180 219.2 180 218.91 185.73" fill="#fff"/><path d="M212.81,186.23h-.05a.5.5,0,0,1-.44-.56L213,180a.51.51,0,0,1,.5-.45h5.73a.52.52,0,0,1,.36.16.55.55,0,0,1,.14.37l-.29,5.72a.5.5,0,1,1-1,0l.25-5.21h-4.75l-.61,5.29A.51.51,0,0,1,212.81,186.23Z" fill="#231f20"/><path d="M40,177.75s5.26-.09,5.07,0-.38,6.52-.38,6.52H49l.6,5.25" fill="#fff"/><path d="M49.6,190a.5.5,0,0,1-.49-.45l-.56-4.8H44.72a.5.5,0,0,1-.5-.52c.11-3.5.19-5.19.29-6-.89,0-2.77,0-4.47,0a.52.52,0,0,1-.51-.49.5.5,0,0,1,.49-.51c5.45-.09,5.45-.09,5.57.38a.47.47,0,0,1-.05.35c-.09.48-.22,3.19-.3,5.79H49a.51.51,0,0,1,.5.44l.6,5.25a.5.5,0,0,1-.44.55Z" fill="#231f20"/><path d="M76.26,190.52c.09-.38,0-5.45,0-5.45h6.1v5.45" fill="#fff"/><path d="M76.26,191l-.12,0a.49.49,0,0,1-.37-.59c0-.34,0-3,0-5.33a.5.5,0,0,1,.14-.36.51.51,0,0,1,.36-.15h6.1a.51.51,0,0,1,.5.5v5.45a.51.51,0,0,1-.5.5.5.5,0,0,1-.5-.5v-5H76.77c0,1.94.06,4.72,0,5.07A.49.49,0,0,1,76.26,191Z" fill="#231f20"/><path d="M170.94,229.43h0a.78.78,0,0,1-.63-.39,1.09,1.09,0,0,1-.06-.76c.52-2.74,1.11-5.51,1.73-8.23a.5.5,0,1,1,1,.22c-.62,2.68-1.19,5.41-1.71,8.11l.14.07a.5.5,0,0,1,.14.69A.64.64,0,0,1,170.94,229.43Zm.23-.82h0Zm-.51,0Z" fill="#231f20"/><path d="M181.36,230.25h0a.5.5,0,0,1-.48-.52,30.43,30.43,0,0,0-.79-8.18.5.5,0,0,1,.37-.6.49.49,0,0,1,.6.37,31.18,31.18,0,0,1,.82,8.45A.5.5,0,0,1,181.36,230.25Z" fill="#231f20"/><path d="M219,226.16a.5.5,0,0,1-.5-.5,20.23,20.23,0,0,1,2-8.65l.16-.31a6.25,6.25,0,0,0,.66-1.8.5.5,0,0,1,.57-.42.49.49,0,0,1,.42.56,7.12,7.12,0,0,1-.76,2.1l-.14.3a19,19,0,0,0-1.87,8.22A.5.5,0,0,1,219,226.16Z" fill="#231f20"/><path d="M329.75,213.26a.5.5,0,0,1-.5-.5v-9a.5.5,0,0,1,.5-.5.5.5,0,0,1,.5.5v9A.5.5,0,0,1,329.75,213.26Z" fill="#231f20"/><path d="M334.54,215.91a.5.5,0,0,1-.49-.38,54.52,54.52,0,0,1-1.3-8,.5.5,0,0,1,.46-.54.51.51,0,0,1,.54.45,53.38,53.38,0,0,0,1.28,7.84.51.51,0,0,1-.37.61Z" fill="#231f20"/><path d="M360.7,254.67H39.5a.5.5,0,0,1-.5-.5V45.82a.5.5,0,0,1,.5-.5H360.7a.5.5,0,0,1,.5.5V254.17A.5.5,0,0,1,360.7,254.67Zm-320.7-1H360.2V46.32H40Z" fill="#231f20"/></g></svg>