<svg xmlns="http://www.w3.org/2000/svg" viewBox="0 0 400 300"><g id="_221_road_trip_flatline" data-name="#221_road_trip_flatline"><path d="M218.08,264.83H183.2a.53.53,0,0,1-.39-.18.51.51,0,0,1-.1-.41l5.55-29.1a.5.5,0,0,1,.49-.41h23.78a.49.49,0,0,1,.49.41l5.55,29.1a.51.51,0,0,1-.1.41A.53.53,0,0,1,218.08,264.83Zm-34.28-1h33.68l-5.36-28.1h-23Z" fill="#d1d3d4"/><path d="M212.53,225.46H188.75a.5.5,0,0,1-.49-.59L192.05,205a.49.49,0,0,1,.49-.41h16.2a.51.51,0,0,1,.5.41L213,224.87a.5.5,0,0,1-.49.59Zm-23.17-1h22.56l-3.59-18.83H193Z" fill="#d1d3d4"/><path d="M350.89,187.86H49.11a.5.5,0,0,1,0-1H350.89a.5.5,0,0,1,0,1Z" fill="#d1d3d4"/><rect x="186.65" y="42.03" width="68.94" height="57.38" fill="#231f20"/><path d="M255.59,42V99.41H186.65V42h68.94m0-1H186.65a1,1,0,0,0-1,1V99.41a1,1,0,0,0,1,1h68.94a1,1,0,0,0,1-1V42a1,1,0,0,0-1-1Z" fill="#231f20"/><path d="M197.87,99.91a.51.51,0,0,1-.5-.5V42a.51.51,0,0,1,.5-.5.5.5,0,0,1,.5.5V99.41A.5.5,0,0,1,197.87,99.91Z" fill="#fff"/><path d="M204.85,99.91a.5.5,0,0,1-.5-.5V42a.5.5,0,0,1,1,0V99.41A.5.5,0,0,1,204.85,99.91Z" fill="#fff"/><path d="M237.39,99.91a.5.5,0,0,1-.5-.5V42a.5.5,0,0,1,.5-.5.51.51,0,0,1,.5.5V99.41A.51.51,0,0,1,237.39,99.91Z" fill="#fff"/><path d="M244.36,99.91a.51.51,0,0,1-.5-.5V42a.51.51,0,0,1,.5-.5.5.5,0,0,1,.5.5V99.41A.5.5,0,0,1,244.36,99.91Z" fill="#fff"/><path d="M232.24,42.53H210v-3a4.35,4.35,0,0,1,4.35-4.35h13.54a4.35,4.35,0,0,1,4.35,4.35Zm-21.24-1h20.24v-2a3.35,3.35,0,0,0-3.35-3.35H214.35A3.35,3.35,0,0,0,211,39.52Z" fill="#231f20"/><path d="M124.76,141.43H114.67a3.35,3.35,0,0,1-3.31-2.85l-.67-4.48a3.34,3.34,0,0,1,3.31-3.84h10.17a3.62,3.62,0,0,1,3.58,3.08l.59,3.93A3.62,3.62,0,0,1,124.76,141.43Z" fill="#231f20"/><path d="M124.76,141.93H114.67a3.82,3.82,0,0,1-3.8-3.27l-.68-4.48a3.84,3.84,0,0,1,3.81-4.42h10.17a4.1,4.1,0,0,1,4.08,3.51l.59,3.93a4.13,4.13,0,0,1-4.08,4.73ZM114,130.76a2.85,2.85,0,0,0-2.82,3.27l.67,4.48a2.84,2.84,0,0,0,2.82,2.42h10.09a3.11,3.11,0,0,0,3.09-3.58l-.59-3.93a3.1,3.1,0,0,0-3.09-2.66Z" fill="#231f20"/><path d="M125.34,140.35h-8.49a2.81,2.81,0,0,1-2.78-2.4l-.57-3.76a2.83,2.83,0,0,1,2.79-3.24h8.55a3,3,0,0,1,3,2.6l.5,3.3A3,3,0,0,1,125.34,140.35Z" fill="#fff"/><path d="M125.34,140.85h-8.49a3.33,3.33,0,0,1-3.28-2.82l-.56-3.77a3.32,3.32,0,0,1,3.28-3.81h8.55a3.53,3.53,0,0,1,3.51,3l.49,3.31a3.5,3.5,0,0,1-.82,2.84A3.54,3.54,0,0,1,125.34,140.85Zm-9-9.4a2.31,2.31,0,0,0-2.29,2.66l.56,3.77a2.33,2.33,0,0,0,2.29,2h8.49a2.53,2.53,0,0,0,2.51-2.92l-.49-3.31a2.54,2.54,0,0,0-2.52-2.17Z" fill="#231f20"/><path d="M275.24,141.43h10.09a3.35,3.35,0,0,0,3.31-2.85l.67-4.48a3.34,3.34,0,0,0-3.31-3.84H275.83a3.62,3.62,0,0,0-3.58,3.08l-.59,3.93A3.62,3.62,0,0,0,275.24,141.43Z" fill="#231f20"/><path d="M285.33,141.93H275.24a4.13,4.13,0,0,1-4.08-4.73l.59-3.93a4.1,4.1,0,0,1,4.08-3.51H286a3.84,3.84,0,0,1,3.81,4.42l-.68,4.48A3.82,3.82,0,0,1,285.33,141.93Zm-9.5-11.17a3.1,3.1,0,0,0-3.09,2.66l-.59,3.93a3.11,3.11,0,0,0,3.09,3.58h10.09a2.84,2.84,0,0,0,2.82-2.42l.67-4.48a2.85,2.85,0,0,0-2.82-3.27Z" fill="#231f20"/><path d="M274.66,140.35h8.49a2.81,2.81,0,0,0,2.78-2.4l.57-3.76a2.83,2.83,0,0,0-2.79-3.24h-8.55a3,3,0,0,0-3,2.6l-.5,3.3A3,3,0,0,0,274.66,140.35Z" fill="#fff"/><path d="M283.15,140.85h-8.49a3.54,3.54,0,0,1-2.68-1.23,3.5,3.5,0,0,1-.82-2.84l.49-3.31a3.53,3.53,0,0,1,3.51-3h8.55a3.32,3.32,0,0,1,3.28,3.81l-.56,3.77A3.33,3.33,0,0,1,283.15,140.85Zm-8-9.4a2.54,2.54,0,0,0-2.52,2.17l-.49,3.31a2.53,2.53,0,0,0,2.51,2.92h8.49a2.33,2.33,0,0,0,2.29-2l.56-3.77a2.31,2.31,0,0,0-2.29-2.66Z" fill="#231f20"/><path d="M264.75,103.32H135.25s-9.61,25.35-9.61,42.18H274.36C274.36,128.67,264.75,103.32,264.75,103.32Z" fill="#fff"/><path d="M274.36,146H125.64a.51.51,0,0,1-.5-.5c0-16.73,9.54-42.1,9.64-42.36a.5.5,0,0,1,.47-.32h129.5a.5.5,0,0,1,.47.32c.1.26,9.64,25.63,9.64,42.36A.51.51,0,0,1,274.36,146Zm-148.21-1h147.7c-.17-15.52-8.35-38.21-9.44-41.18H135.59C134.5,106.79,126.32,129.48,126.15,145Z" fill="#231f20"/><rect x="124.86" y="151.62" width="150.28" height="52.53" fill="#fff"/><path d="M275.14,204.65H124.86a.5.5,0,0,1-.5-.5V151.62a.5.5,0,0,1,.5-.5H275.14a.5.5,0,0,1,.5.5v52.53A.5.5,0,0,1,275.14,204.65Zm-149.78-1H274.64V152.12H125.36Z" fill="#231f20"/><rect x="119.86" y="204.15" width="160.28" height="10.89" rx="3.64" fill="#fff"/><path d="M276.5,215.55h-153a4.15,4.15,0,0,1-4.14-4.14v-3.62a4.15,4.15,0,0,1,4.14-4.14h153a4.15,4.15,0,0,1,4.14,4.14v3.62A4.15,4.15,0,0,1,276.5,215.55Zm-153-10.9a3.15,3.15,0,0,0-3.14,3.14v3.62a3.15,3.15,0,0,0,3.14,3.14h153a3.15,3.15,0,0,0,3.14-3.14v-3.62a3.15,3.15,0,0,0-3.14-3.14Z" fill="#231f20"/><path d="M133.38,215H161a0,0,0,0,1,0,0v21.84a3.3,3.3,0,0,1-3.3,3.3H136.67a3.3,3.3,0,0,1-3.3-3.3V215A0,0,0,0,1,133.38,215Z" fill="#231f20"/><path d="M157.74,240.69H136.67a3.8,3.8,0,0,1-3.79-3.8V215.05a.5.5,0,0,1,.5-.5H161a.5.5,0,0,1,.5.5v21.84A3.8,3.8,0,0,1,157.74,240.69Zm-23.86-25.14v21.34a2.8,2.8,0,0,0,2.79,2.8h21.07a2.8,2.8,0,0,0,2.79-2.8V215.55Z" fill="#231f20"/><path d="M239,215h27.65a0,0,0,0,1,0,0v21.84a3.3,3.3,0,0,1-3.3,3.3H242.26a3.3,3.3,0,0,1-3.3-3.3V215A0,0,0,0,1,239,215Z" fill="#231f20"/><path d="M263.33,240.69H242.26a3.8,3.8,0,0,1-3.79-3.8V215.05a.5.5,0,0,1,.5-.5h27.65a.5.5,0,0,1,.5.5v21.84A3.8,3.8,0,0,1,263.33,240.69Zm-23.86-25.14v21.34a2.8,2.8,0,0,0,2.79,2.8h21.07a2.8,2.8,0,0,0,2.79-2.8V215.55Z" fill="#231f20"/><path d="M256.07,165H143.93a9.07,9.07,0,0,1-6.69-2.68,5.25,5.25,0,0,1-1.42-4.06L136,147l4.55-34.54c.34-3.26,3.82-5.73,8.1-5.73H251.4c4.28,0,7.76,2.47,8.1,5.75l4.43,33.4.25,12.38a5.21,5.21,0,0,1-1.42,4A9.07,9.07,0,0,1,256.07,165ZM148.6,107.73c-3.7,0-6.83,2.13-7.1,4.85l-4.56,34.49-.12,11.21a4.25,4.25,0,0,0,1.16,3.33,8.08,8.08,0,0,0,6,2.35H256.07a8.08,8.08,0,0,0,5.95-2.35,4.22,4.22,0,0,0,1.16-3.29L262.94,146l-4.43-33.36c-.28-2.74-3.41-4.87-7.11-4.87Z" fill="#d1d3d4"/><path d="M251.63,141H148.37c-2.36,0-4.2-1.61-3.94-3.45l3.08-21.73c.23-1.57,1.92-2.76,3.94-2.76h97.1c2,0,3.71,1.19,3.94,2.76l3.08,21.73C255.83,139.42,254,141,251.63,141Z" fill="#68e1fd"/><rect x="180.79" y="175.94" width="38.43" height="14.73" fill="#231f20"/><path d="M219.21,191.17H180.79a.5.5,0,0,1-.5-.5V175.94a.5.5,0,0,1,.5-.5h38.42a.5.5,0,0,1,.5.5v14.73A.5.5,0,0,1,219.21,191.17Zm-37.92-1h37.42V176.44H181.29Z" fill="#231f20"/><path d="M200,161a2.53,2.53,0,0,1-2.53-2.53v-1.25a2.53,2.53,0,1,1,5.06,0v1.25A2.53,2.53,0,0,1,200,161Zm0-5.31a1.54,1.54,0,0,0-1.53,1.53v1.25a1.53,1.53,0,1,0,3.06,0v-1.25A1.54,1.54,0,0,0,200,155.64Z" fill="#d1d3d4"/><rect x="170.78" y="203.04" width="4.19" height="13.69" rx="2.09" fill="#fff"/><path d="M172.87,217.22a2.59,2.59,0,0,1-2.59-2.59v-9.5a2.6,2.6,0,0,1,5.19,0v9.5A2.6,2.6,0,0,1,172.87,217.22Zm0-13.68a1.59,1.59,0,0,0-1.59,1.59v9.5a1.6,1.6,0,0,0,3.19,0v-9.5A1.6,1.6,0,0,0,172.87,203.54Z" fill="#231f20"/><rect x="230.44" y="203.04" width="4.19" height="13.69" rx="2.09" fill="#fff"/><path d="M232.53,217.22a2.59,2.59,0,0,1-2.59-2.59v-9.5a2.6,2.6,0,0,1,5.19,0v9.5A2.6,2.6,0,0,1,232.53,217.22Zm0-13.68a1.59,1.59,0,0,0-1.59,1.59v9.5a1.6,1.6,0,0,0,3.19,0v-9.5A1.6,1.6,0,0,0,232.53,203.54Z" fill="#231f20"/><rect x="132.98" y="99.41" width="134.03" height="3.91" rx="1.96" fill="#fff"/><path d="M265.06,103.82H134.94a2.46,2.46,0,1,1,0-4.91H265.06a2.46,2.46,0,1,1,0,4.91ZM134.94,99.91a1.46,1.46,0,1,0,0,2.91H265.06a1.46,1.46,0,1,0,0-2.91Z" fill="#231f20"/><rect x="121.19" y="145.5" width="157.62" height="6.21" rx="3.11" fill="#fff"/><path d="M275.7,152.21H124.3a3.61,3.61,0,1,1,0-7.21H275.7a3.61,3.61,0,1,1,0,7.21ZM124.3,146a2.61,2.61,0,1,0,0,5.21H275.7a2.61,2.61,0,1,0,0-5.21Z" fill="#231f20"/><rect x="144.41" y="50.25" width="47.32" height="49.26" fill="#fff"/><path d="M192.23,100H143.91V49.75h48.32Zm-47.32-1h46.32V50.75H144.91Z" fill="#231f20"/><path d="M177,50.75H159.12V48a2.29,2.29,0,0,1,2.28-2.29h13.34A2.3,2.3,0,0,1,177,48Zm-16.91-1H176V48a1.29,1.29,0,0,0-1.29-1.29H161.4A1.28,1.28,0,0,0,160.12,48Z" fill="#231f20"/><polygon points="144.41 54.9 148.75 50.25 144.41 50.25 144.41 54.9" fill="#fff"/><path d="M143.91,56.17V49.75h6Zm1-5.42v2.88l2.69-2.88Z" fill="#231f20"/><polygon points="144.41 94.86 148.75 99.51 144.41 99.51 144.41 94.86" fill="#fff"/><path d="M149.9,100h-6V93.59Zm-5-1h2.69l-2.69-2.88Z" fill="#231f20"/><polygon points="191.73 54.9 187.39 50.25 191.73 50.25 191.73 54.9" fill="#fff"/><path d="M192.23,56.17l-6-6.42h6Zm-3.69-5.42,2.69,2.88V50.75Z" fill="#231f20"/><path d="M252,197.34H148a.5.5,0,0,1,0-1H252a.5.5,0,0,1,0,1Z" fill="#d1d3d4"/><path d="M180.47,133.1a.46.46,0,0,1-.35-.17.45.45,0,0,1,.07-.64l16.56-13.24a.46.46,0,0,1,.57.72L180.76,133A.46.46,0,0,1,180.47,133.1Z" fill="#fff"/><path d="M223,137.61a.44.44,0,0,1-.33-.15.47.47,0,0,1,0-.65l19.1-17.73a.46.46,0,1,1,.62.67l-19.1,17.73A.42.42,0,0,1,223,137.61Z" fill="#fff"/><rect x="129.72" y="167.84" width="13.83" height="30.55" rx="2.69" fill="#fff"/><path d="M140.86,167.84a2.68,2.68,0,0,1,2.69,2.69V195.7a2.69,2.69,0,0,1-2.69,2.69h-8.45a2.7,2.7,0,0,1-2.69-2.69V170.53a2.69,2.69,0,0,1,2.69-2.69h8.45m0-1h-8.45a3.69,3.69,0,0,0-3.69,3.69V195.7a3.7,3.7,0,0,0,3.69,3.69h8.45a3.69,3.69,0,0,0,3.69-3.69V170.53a3.69,3.69,0,0,0-3.69-3.69Z" fill="#231f20"/><path d="M141.67,185.3V172.15a2.38,2.38,0,0,0-2.37-2.38H134a2.38,2.38,0,0,0-2.37,2.38V185.3Z" fill="#68e1fd"/><path d="M131.61,187.36v6.45a2.37,2.37,0,0,0,2.37,2.37h5.32a2.37,2.37,0,0,0,2.37-2.37v-6.45Z" fill="#68e1fd"/><rect x="256.45" y="167.84" width="13.83" height="30.55" rx="2.69" fill="#fff"/><path d="M267.59,167.84a2.69,2.69,0,0,1,2.69,2.69V195.7a2.7,2.7,0,0,1-2.69,2.69h-8.45a2.69,2.69,0,0,1-2.69-2.69V170.53a2.68,2.68,0,0,1,2.69-2.69h8.45m0-1h-8.45a3.69,3.69,0,0,0-3.69,3.69V195.7a3.69,3.69,0,0,0,3.69,3.69h8.45a3.7,3.7,0,0,0,3.69-3.69V170.53a3.69,3.69,0,0,0-3.69-3.69Z" fill="#231f20"/><path d="M268.39,185.3V172.15a2.38,2.38,0,0,0-2.37-2.38H260.7a2.38,2.38,0,0,0-2.37,2.38V185.3Z" fill="#68e1fd"/><path d="M258.33,187.36v6.45a2.37,2.37,0,0,0,2.37,2.37H266a2.37,2.37,0,0,0,2.37-2.37v-6.45Z" fill="#68e1fd"/><path d="M262.53,86h-3.28V71.25h3.28a3.31,3.31,0,0,1,3.31,3.3v8.14A3.31,3.31,0,0,1,262.53,86Zm-2.28-1h2.28a2.31,2.31,0,0,0,2.31-2.3V74.55a2.31,2.31,0,0,0-2.31-2.3h-2.28Z" fill="#231f20"/><rect x="201.51" y="56.6" width="58.24" height="42.49" fill="#fff"/><path d="M259.75,56.6V99.09H201.51V56.6h58.24m1-1H200.51v44.49h60.24V55.6Z" fill="#231f20"/><path d="M258.75,65.52v1.34H202.51V65.52h56.24m1-1H201.51v3.34h58.24V64.52Z" fill="#d1d3d4"/><path d="M258.75,88.83v1.34H202.51V88.83h56.24m1-1H201.51v3.34h58.24V87.83Z" fill="#d1d3d4"/><rect x="154.8" y="78.67" width="57.73" height="20.74" fill="#fff"/><path d="M213,99.91H154.3V78.17H213Zm-57.73-1H212V79.17H155.3Z" fill="#231f20"/><rect x="154.8" y="87.8" width="57.73" height="1" fill="#231f20"/><rect x="172.91" y="91.17" width="20.45" height="1.89" rx="0.94" fill="#fff"/><path d="M192.42,93.56H173.86a1.45,1.45,0,1,1,0-2.89h18.56a1.45,1.45,0,1,1,0,2.89Zm-18.56-1.89a.45.45,0,1,0,0,.89h18.56a.45.45,0,1,0,0-.89Z" fill="#231f20"/><rect x="173.87" y="88.3" width="1" height="2.87" fill="#231f20"/><rect x="191.23" y="88.3" width="1" height="2.87" fill="#231f20"/><path d="M159.62,70.94A6.42,6.42,0,1,1,166,64.52,6.43,6.43,0,0,1,159.62,70.94Zm0-11.84A5.42,5.42,0,1,0,165,64.52,5.43,5.43,0,0,0,159.62,59.1Z" fill="#d1d3d4"/><path d="M183.94,73.74H172.68a.5.5,0,0,1-.5-.5v-7a.5.5,0,0,1,.5-.5h11.26a.51.51,0,0,1,.5.5v7A.5.5,0,0,1,183.94,73.74Zm-10.76-1h10.26v-6H173.18Z" fill="#d1d3d4"/><path d="M231.71,80.76a.5.5,0,0,1-.48-.34l-1.63-5.18a.51.51,0,0,1,.33-.63l10.92-3.44a.5.5,0,0,1,.63.33l1.63,5.17a.51.51,0,0,1-.33.63l-10.92,3.44A.39.39,0,0,1,231.71,80.76Zm-1-5.34L232,79.64l10-3.15-1.34-4.22Z" fill="#d1d3d4"/><path d="M255.64,85.18h-8.72a.51.51,0,0,1-.47-.3.53.53,0,0,1,.11-.55l8.73-8.73a.51.51,0,0,1,.54-.11.5.5,0,0,1,.31.47v8.72A.5.5,0,0,1,255.64,85.18Zm-7.52-1h7v-7Z" fill="#d1d3d4"/><path d="M219.46,80.59a5.33,5.33,0,1,1,5.33-5.32A5.33,5.33,0,0,1,219.46,80.59Zm0-9.65a4.33,4.33,0,1,0,4.33,4.33A4.33,4.33,0,0,0,219.46,70.94Z" fill="#d1d3d4"/><path d="M176.53,59.1h-5.75a.5.5,0,0,1-.5-.5v-2a.5.5,0,0,1,.5-.5h5.75a.5.5,0,0,1,.5.5v2A.5.5,0,0,1,176.53,59.1Zm-5.25-1H176v-1h-4.75Z" fill="#d1d3d4"/><path d="M43.08,256a.51.51,0,0,1-.36-.15.49.49,0,0,1,0-.7L113.12,187a.5.5,0,0,1,.7.72L43.43,255.86A.47.47,0,0,1,43.08,256Z" fill="#d1d3d4"/><path d="M356.92,256a.47.47,0,0,1-.35-.14l-70.39-68.14a.5.5,0,0,1,.7-.72l70.39,68.15a.49.49,0,0,1,0,.7A.51.51,0,0,1,356.92,256Z" fill="#d1d3d4"/></g></svg>