<svg xmlns="http://www.w3.org/2000/svg" viewBox="0 0 400 300"><g id="_226_statue_of_liberty_flatline" data-name="#226_statue_of_liberty_flatline"><path d="M353,232.07H47a.5.5,0,0,1-.5-.5.5.5,0,0,1,.5-.5H353a.5.5,0,0,1,.5.5A.5.5,0,0,1,353,232.07Z" fill="#d1d3d4"/><path d="M316.38,117a.5.5,0,0,1-.35-.14.51.51,0,0,1-.15-.36v-.58a.5.5,0,0,1,.5-.5h33a.5.5,0,0,1,0,1l-33,.58Z" fill="#d1d3d4"/><path d="M94.36,125.87a.5.5,0,0,1-.5-.5v-23A7.37,7.37,0,0,0,86.48,95H79.92a.51.51,0,0,1-.5-.48l-.83-16.38-.82,16.38a.5.5,0,0,1-.5.48H70.7a7.39,7.39,0,0,0-7.37,7.38v22.67a.5.5,0,0,1-.5.5H50.63a.5.5,0,0,1,0-1h11.7V102.38A8.39,8.39,0,0,1,70.7,94h6.1l1.29-25.83a.5.5,0,0,1,.5-.47.5.5,0,0,1,.5.47L80.4,94h6.08a8.38,8.38,0,0,1,8.38,8.38v23A.5.5,0,0,1,94.36,125.87Z" fill="#d1d3d4"/><path d="M263.45,208.94a.54.54,0,0,1-.21-.05l-16.48-7.57a.49.49,0,0,1-.29-.45v-27.4h-51a.5.5,0,0,1-.5-.5V143.25h-57v11.84a.5.5,0,0,1-.5.5H126.89v28.7a.52.52,0,0,1-.21.41.53.53,0,0,1-.46.06l-23.43-8.26a.51.51,0,0,1-.33-.47V125.87h-8.1a.5.5,0,0,1,0-1H103a.5.5,0,0,1,.5.5v50.3l22.43,7.91V155.09a.5.5,0,0,1,.5-.5h10.54V142.75a.5.5,0,0,1,.5-.5h58a.5.5,0,0,1,.5.5v29.72h51a.5.5,0,0,1,.5.5v27.58L263,207.66v-74.3a.5.5,0,0,1,.5-.5h27.4a.5.5,0,0,1,.5.5v39.18h24.53v-56a.5.5,0,1,1,1,0V173a.5.5,0,0,1-.5.5H290.85a.51.51,0,0,1-.5-.5V133.86H264v74.58a.5.5,0,0,1-.5.5Z" fill="#d1d3d4"/><rect x="220.69" y="140.88" width="22.1" height="34.06" transform="translate(118.37 -98.58) rotate(31.88)" fill="#fff"/><path d="M232.12,178.71a.5.5,0,0,1-.26-.08L213.09,167a.51.51,0,0,1-.16-.69l18-28.92a.48.48,0,0,1,.31-.23.49.49,0,0,1,.37.07l18.77,11.67a.5.5,0,0,1,.16.69l-18,28.92a.52.52,0,0,1-.31.23Zm-18.07-12.33L232,177.52l17.47-28.08L231.51,138.3Z" fill="#231f20"/><rect x="219.09" y="139.88" width="22.1" height="34.06" transform="translate(117.6 -97.88) rotate(31.88)" fill="#68e1fd"/><path d="M230.53,177.72a.5.5,0,0,1-.27-.08L211.5,166a.49.49,0,0,1-.16-.69l18-28.93a.51.51,0,0,1,.69-.16l18.76,11.68a.48.48,0,0,1,.16.68l-18,28.93a.5.5,0,0,1-.31.22Zm-18.08-12.34,17.92,11.15,17.46-28.08-17.92-11.14Z" fill="#231f20"/><path d="M239.73,166.18s1.64-2.42,1.36-3.27-3.35-3.49-2.49-4l.85-.5S238,157,239,155.93s3.21-3.34,4.34-3.06,5.2,2.78,5.2,4.2S247,158.4,247,159.51,244.86,168.75,239.73,166.18Z" fill="#fff"/><path d="M241.65,167.18a4.76,4.76,0,0,1-2.14-.55.5.5,0,0,1-.19-.73,6.57,6.57,0,0,0,1.29-2.83,7.65,7.65,0,0,0-1-1.33c-1.08-1.24-1.73-2-1.62-2.69a.77.77,0,0,1,.38-.56l.34-.2a2.65,2.65,0,0,1-.54-1.45,1.72,1.72,0,0,1,.53-1.26l.27-.27c1.69-1.72,3.32-3.23,4.55-2.93s5.57,2.84,5.57,4.69a2.09,2.09,0,0,1-1.05,1.79c-.38.28-.51.4-.51.65,0,1-1.17,5.46-3.78,7.07A3.94,3.94,0,0,1,241.65,167.18ZM240.47,166a3,3,0,0,0,2.72-.23c2.21-1.36,3.31-5.42,3.31-6.22a1.77,1.77,0,0,1,.91-1.45c.43-.32.65-.51.65-1,0-1-3.66-3.43-4.82-3.71-.76-.2-2.82,1.87-3.59,2.65l-.27.28a.7.7,0,0,0-.24.54,2.17,2.17,0,0,0,.65,1.23.52.52,0,0,1,.16.42.47.47,0,0,1-.25.37l-.73.43a9.44,9.44,0,0,0,1.36,1.8,6.46,6.46,0,0,1,1.23,1.67C241.83,163.56,241,165.08,240.47,166Z" fill="#231f20"/><polygon points="224.62 170.94 230.94 213.68 220.69 206.56 207.08 173.97 224.62 170.94" fill="#231f20"/><path d="M230.94,214.18a.52.52,0,0,1-.29-.09L220.4,207a.41.41,0,0,1-.17-.22l-13.61-32.59a.5.5,0,0,1,0-.43.49.49,0,0,1,.35-.26l17.55-3a.48.48,0,0,1,.37.08.51.51,0,0,1,.21.34l6.31,42.74a.51.51,0,0,1-.23.5A.48.48,0,0,1,230.94,214.18Zm-9.85-8,9.19,6.38-6.08-41.09-16.42,2.83Z" fill="#231f20"/><path d="M178.28,216.36c.57.85-6.19,21.87-8.46,31.38h60.45s-5-48.82-7.48-75.07l-15.71-2.84Z" fill="#fff"/><path d="M230.27,248.24H169.82a.51.51,0,0,1-.4-.19.51.51,0,0,1-.09-.43c1-4.16,2.81-10.39,4.56-16.41,1.87-6.43,4-13.7,3.92-14.67a.51.51,0,0,1,0-.45l28.8-46.53a.52.52,0,0,1,.52-.23l15.71,2.85a.5.5,0,0,1,.41.45c2.44,25.94,7.43,74.57,7.48,75.06a.51.51,0,0,1-.5.55Zm-59.82-1h59.27c-.56-5.45-5.08-49.62-7.39-74.14l-15-2.72-28.53,46.09c.05,1.08-.83,4.33-3.94,15C173.19,237.21,171.47,243.11,170.45,247.24Z" fill="#231f20"/><path d="M216.43,239.25a.65.65,0,0,1-.19,0,.51.51,0,0,1-.27-.66c.56-1.57,3.9-37.92,0-70.54a.5.5,0,0,1,.43-.56.5.5,0,0,1,.56.44c4,33.41.53,69.74,0,71.05A.5.5,0,0,1,216.43,239.25Z" fill="#d1d3d4"/><path d="M189,240.38h-.07a.5.5,0,0,1-.43-.56c1.06-7.76,3.75-32.77,3.77-33a.5.5,0,0,1,1,.11c0,.25-2.72,25.27-3.78,33A.49.49,0,0,1,189,240.38Z" fill="#d1d3d4"/><path d="M200.77,239.25h-.08a.51.51,0,0,1-.42-.57l4.31-26.78a.52.52,0,0,1,.5-.42.5.5,0,0,1,.49.44l3.18,23.63a.5.5,0,0,1-.43.56.48.48,0,0,1-.56-.43L205,215.39l-3.77,23.44A.5.5,0,0,1,200.77,239.25Z" fill="#d1d3d4"/><polygon points="205.88 204.57 206.25 187.12 194.97 199.91 205.88 204.57" fill="#231f20"/><path d="M205.88,205.07a.71.71,0,0,1-.2,0l-10.9-4.65a.51.51,0,0,1-.29-.35.5.5,0,0,1,.11-.45l11.28-12.79a.51.51,0,0,1,.56-.13.5.5,0,0,1,.32.47l-.38,17.45a.49.49,0,0,1-.23.41A.53.53,0,0,1,205.88,205.07Zm-10.07-5.34,9.59,4.09.33-15.34Z" fill="#231f20"/><path d="M220.14,129.51l6.27,47.15s-8.85,6.27-8.85,5.41-4.84-9.11-4.84-9.11v19.86l-11.53,7.09,4.7,4.66s-20.5,9.43-31.31,18.79c11.4-63.5,7.22-50.69,7.22-50.69l27.28-50.15Z" fill="#fff"/><path d="M174.57,223.86a.5.5,0,0,1-.49-.59c6.45-36,7.81-46.93,8-50.16a.51.51,0,0,1-.45,0,.49.49,0,0,1-.28-.61,2.77,2.77,0,0,1,.7-1.3l26.62-48.93A.5.5,0,0,1,209,122a.49.49,0,0,1,.39.06l11.06,7a.49.49,0,0,1,.23.36l6.28,47.15a.52.52,0,0,1-.21.48c-8.45,6-9,5.66-9.34,5.51a.64.64,0,0,1-.3-.51,66.56,66.56,0,0,0-3.84-7.25v18a.5.5,0,0,1-.23.42L202,200l4.25,4.2a.5.5,0,0,1,.14.45.49.49,0,0,1-.28.36c-.21.1-20.56,9.52-31.19,18.72A.5.5,0,0,1,174.57,223.86Zm8.33-52.19c.37,1.82-.38,10.16-7.59,50.42,9.82-8.06,26.25-16,29.71-17.67l-4.19-4.15a.49.49,0,0,1,.09-.78l11.29-7V173a.49.49,0,0,1,.37-.48.49.49,0,0,1,.56.23,97.59,97.59,0,0,1,4.77,8.85,79.54,79.54,0,0,0,8-5.13l-6.21-46.63-10.41-6.57Z" fill="#231f20"/><path d="M181.67,207.35a.44.44,0,0,1-.24-.07.49.49,0,0,1-.19-.68c.12-.21,11.95-21.4,12.59-33.95a.48.48,0,0,1,.52-.47.5.5,0,0,1,.48.52c-.65,12.78-12.23,33.51-12.72,34.39A.51.51,0,0,1,181.67,207.35Z" fill="#d1d3d4"/><path d="M195.61,97.26a5.38,5.38,0,0,0-2.33.75,3.27,3.27,0,0,0-.93,1.06,15,15,0,0,0-1,3.24A15,15,0,0,0,190.3,106c-.15,2.41,1.32,4.59,2.76,6.52a7.12,7.12,0,0,0,1.85,1.9,4.49,4.49,0,0,0,5.39-1,7.65,7.65,0,0,0,1.81-5.49,10.88,10.88,0,0,0-2.4-6.66,8.85,8.85,0,0,0-6.23-3.22" fill="#231f20"/><path d="M196.86,115.47a4.24,4.24,0,0,1-2.21-.6,7.49,7.49,0,0,1-2-2c-1.47-2-3-4.28-2.86-6.85a10.17,10.17,0,0,1,.77-2.95l.31-.88a9.68,9.68,0,0,0,.29-1.15,7.17,7.17,0,0,1,.75-2.2A3.85,3.85,0,0,1,193,97.6a5.76,5.76,0,0,1,2.54-.83.5.5,0,0,1,.57.42.49.49,0,0,1-.42.57l-.48.08a9.55,9.55,0,0,1,4.89,3.13,11.3,11.3,0,0,1,2.52,7,8.13,8.13,0,0,1-1.94,5.85A5.32,5.32,0,0,1,196.86,115.47Zm-3.48-16.91a3.15,3.15,0,0,0-.6.76,6.25,6.25,0,0,0-.63,1.9,12.08,12.08,0,0,1-.32,1.25c-.1.31-.21.61-.33.92a9.52,9.52,0,0,0-.7,2.66c-.14,2.24,1.24,4.28,2.67,6.19a6.29,6.29,0,0,0,1.7,1.77,4,4,0,0,0,4.77-.91,7.14,7.14,0,0,0,1.67-5.14,10.32,10.32,0,0,0-2.29-6.35,8.37,8.37,0,0,0-5.87-3Z" fill="#231f20"/><path d="M191,100.42a9.5,9.5,0,0,1-.82-8s-10.36-3.2-9.72-4,12.07,0,12.07,0a12.19,12.19,0,0,1,2-1.6s-6.51-11.43-5-11.11,8.86,9.61,8.86,9.61a16.92,16.92,0,0,1,3.46-.67s4.87-14,5.3-13.32-.57,13.1-.57,13.1a5.72,5.72,0,0,1,2.3.93s12.72-8.47,13-7.33-9.69,10.82-9.69,10.82a1.71,1.71,0,0,1,.52.88s13.15-3,13.22-2.24-12.31,6.41-12.31,6.41,13.74,1.46,12.74,2.3-13.65,1.9-13.65,1.9.42,4.33-.19,6.54a21.44,21.44,0,0,1-1.25,3.51s1.07,4.19-.21,7.46a9.65,9.65,0,0,1-3.92,4.7s-.69-7.19.3-10.53c0,0,3.67-14.68,1.43-16.66S191.91,94.3,191,100.42Z" fill="#fff"/><path d="M207.14,120.85a.53.53,0,0,1-.24-.06.5.5,0,0,1-.26-.39c0-.3-.69-7.32.32-10.72,1.38-5.55,3-14.85,1.58-16.15-.95-.84-5.5-.58-9.94,1-4.19,1.52-6.79,3.69-7.13,5.94a.5.5,0,0,1-.38.41.52.52,0,0,1-.53-.21,10,10,0,0,1-1-8c-6.14-1.92-9.36-3.28-9.58-4a.63.63,0,0,1,.12-.58c.53-.61,4.65-.67,12.26-.18a14.49,14.49,0,0,1,1.55-1.26c-5.73-10.09-5.13-10.91-4.93-11.18a.67.67,0,0,1,.68-.25c1.5.32,7,7.06,8.94,9.53a17.73,17.73,0,0,1,2.92-.58C206.11,71,206.67,70.9,207,70.86a.57.57,0,0,1,.52.24c.34.51.18,4.87-.46,13a6.06,6.06,0,0,1,1.79.7c5.43-3.6,12-7.68,13.09-7.27a.65.65,0,0,1,.38.44c.23.92-3,4.61-9.48,11a2.2,2.2,0,0,1,.15.26c8.11-1.85,12.54-2.56,13.16-2.11a.65.65,0,0,1,.24.42c0,.38.1,1.07-11,6.15,11.07,1.25,11.31,2,11.41,2.33a.61.61,0,0,1-.21.65c-1,.83-10,1.68-13.43,2a22.46,22.46,0,0,1-.25,6.22,24.42,24.42,0,0,1-1.2,3.42c.19.86.91,4.56-.28,7.6a10.07,10.07,0,0,1-4.14,5A.53.53,0,0,1,207.14,120.85Zm-.95-28.79a4.85,4.85,0,0,1,3,.72c2.34,2.08-.66,14.66-1.29,17.16s-.49,7.54-.35,9.52a9.41,9.41,0,0,0,3-4c1.21-3.08.2-7.12.19-7.16a.54.54,0,0,1,0-.35,20.71,20.71,0,0,0,1.22-3.41c.58-2.1.17-6.32.17-6.36a.54.54,0,0,1,.11-.37.52.52,0,0,1,.34-.18c5-.42,10.41-1,12.52-1.52-2-.49-7-1.19-11.61-1.68a.5.5,0,0,1-.16-1c4.49-2,9.28-4.38,11.22-5.54-2.18.25-7.21,1.25-11.81,2.31a.51.51,0,0,1-.4-.08.5.5,0,0,1-.21-.35,1.33,1.33,0,0,0-.35-.58.48.48,0,0,1-.16-.36.46.46,0,0,1,.15-.36c4-3.88,8.17-8.28,9.26-9.91-1.85.75-7.18,4-12,7.19a.5.5,0,0,1-.62,0,5,5,0,0,0-2.05-.79.51.51,0,0,1-.41-.54c.35-4.32.65-9.07.68-11.42-1,2.3-2.84,7.27-4.44,11.84a.49.49,0,0,1-.44.34,15.76,15.76,0,0,0-3.34.65.49.49,0,0,1-.54-.17c-3.09-3.89-6.66-8-8.09-9.13A80.74,80.74,0,0,0,195,86.61a.5.5,0,0,1-.17.68,12.21,12.21,0,0,0-1.94,1.52.45.45,0,0,1-.38.15,96.49,96.49,0,0,0-11.07-.25,74.54,74.54,0,0,0,8.9,3.22.51.51,0,0,1,.3.26.48.48,0,0,1,0,.39,8.88,8.88,0,0,0,.23,6.5c1.27-2.84,5.06-4.61,7.4-5.46A25.66,25.66,0,0,1,206.19,92.06Z" fill="#231f20"/><path d="M196.6,106.47a53.3,53.3,0,0,1-.71,6.91c-.43,1.49-1.56,1.42-1.56,1.42s9.61,7.83,12.81,9.86l1.93-2.14a12,12,0,0,1-2.16-7,21.67,21.67,0,0,1,.53-4.9Z" fill="#fff"/><path d="M207.14,125.16a.53.53,0,0,1-.27-.08c-3.19-2-12.47-9.57-12.86-9.89a.5.5,0,0,1-.15-.57.51.51,0,0,1,.5-.32c.06,0,.75,0,1-1.06a52.7,52.7,0,0,0,.69-6.77.53.53,0,0,1,.22-.41.51.51,0,0,1,.46-.06l10.84,4.21a.49.49,0,0,1,.29.62,23.06,23.06,0,0,0-.5,4.76,11.56,11.56,0,0,0,2.06,6.63.5.5,0,0,1,0,.64L207.51,125A.52.52,0,0,1,207.14,125.16ZM195.35,115c2.19,1.77,8.83,7.11,11.71,9l1.38-1.53a12.19,12.19,0,0,1-2-6.94,30.58,30.58,0,0,1,.44-4.56l-9.78-3.79a45.07,45.07,0,0,1-.7,6.32A2.45,2.45,0,0,1,195.35,115Z" fill="#231f20"/><path d="M192.55,101.49a3.24,3.24,0,0,0,2.13,4,8.16,8.16,0,0,0,6.12,6c5.13,1.14,7.55,1,9.26-3.27s.71-10.11.71-10.11,2.65-3,1.75-4.84-8.44-4.56-13.14-3-8.4,7.4-8.4,9.11A2.22,2.22,0,0,0,192.55,101.49Z" fill="#fff"/><path d="M205,112.55a20.24,20.24,0,0,1-4.32-.61,8.56,8.56,0,0,1-6.44-6.1,3.66,3.66,0,0,1-2.29-4,2.67,2.67,0,0,1-1.49-2.44c0-1.93,3.78-7.93,8.74-9.59,4.72-1.56,12.67,1,13.75,3.25.91,1.88-1.05,4.46-1.67,5.21.17,1.16.79,6.23-.78,10.15C209.28,111.46,207.64,112.55,205,112.55Zm-12-10.92a2.7,2.7,0,0,0,1.83,3.38.49.49,0,0,1,.31.36,7.61,7.61,0,0,0,5.74,5.6c5.17,1.14,7.14.87,8.68-3,1.64-4.08.7-9.78.69-9.84a.47.47,0,0,1,.12-.41c.67-.76,2.29-3,1.67-4.29-.72-1.49-7.9-4.28-12.53-2.74s-8.06,7.25-8.06,8.64a1.68,1.68,0,0,0,1.2,1.65.53.53,0,0,1,.35.63Z" fill="#231f20"/><path d="M205.43,98.78c.14.22,2.78,4.77,1.78,5.56a1.88,1.88,0,0,1-2.13,0" fill="#fff"/><path d="M206.22,105.19a2.82,2.82,0,0,1-1.43-.44.51.51,0,0,1-.13-.7.52.52,0,0,1,.7-.13,1.38,1.38,0,0,0,1.54,0c.38-.49-1.18-3.79-1.89-4.88a.5.5,0,0,1,.15-.69.51.51,0,0,1,.69.13s3.15,5.07,1.67,6.23A2.09,2.09,0,0,1,206.22,105.19Z" fill="#231f20"/><path d="M207.14,107h-.08a29.78,29.78,0,0,0-5.19-.27.49.49,0,0,1-.53-.48.5.5,0,0,1,.47-.52,28.89,28.89,0,0,1,5.41.29.49.49,0,0,1,.41.57A.5.5,0,0,1,207.14,107Z" fill="#231f20"/><path d="M204.91,109.12a3.68,3.68,0,0,1-2.46-1,.5.5,0,0,1,0-.71.5.5,0,0,1,.71,0,2.48,2.48,0,0,0,2.86.42.49.49,0,0,1,.68.18.51.51,0,0,1-.19.69A3.2,3.2,0,0,1,204.91,109.12Z" fill="#231f20"/><ellipse cx="201.41" cy="99.85" rx="0.82" ry="1.07" fill="#231f20"/><ellipse cx="208.25" cy="99.85" rx="0.82" ry="1.07" fill="#231f20"/><path d="M192.55,101.49s2.42.28,4.12-3.7c0,0,7.1-.5,7.82-6.2,0,0-5.32-2.1-8.88,1.5s-5,6.12-4.63,7.33A1.48,1.48,0,0,0,192.55,101.49Z" fill="#fff"/><path d="M192.41,102a1.94,1.94,0,0,1-1.91-1.44c-.57-1.92,2.27-5.32,4.75-7.82,3.75-3.79,9.19-1.7,9.42-1.61a.49.49,0,0,1,.32.53c-.68,5.32-6.56,6.41-8,6.59-1.7,3.7-4,3.75-4.47,3.74ZM201,91.49a6.83,6.83,0,0,0-5,2c-3.7,3.74-4.75,6-4.5,6.84a1,1,0,0,0,1,.71h.11c.09,0,2.1.14,3.62-3.4a.48.48,0,0,1,.42-.3c.26,0,6.36-.52,7.29-5.36A10.43,10.43,0,0,0,201,91.49Z" fill="#231f20"/><path d="M205.08,91.59a3,3,0,0,0,.85,2.71c1.21,1.14,4.77,2.92,5.27,4.48a5.07,5.07,0,0,0,1.51-3.59C212.52,93.23,207,90,205.08,91.59Z" fill="#fff"/><path d="M211.2,99.28h-.12a.51.51,0,0,1-.36-.34c-.28-.87-1.92-2-3.25-2.88a17.06,17.06,0,0,1-1.88-1.39,3.48,3.48,0,0,1-1-3.18.44.44,0,0,1,.17-.27c1.21-1,3.18-.39,4.24.06,1.94.81,4.07,2.44,4.2,3.87a5.54,5.54,0,0,1-1.65,4A.52.52,0,0,1,211.2,99.28Zm-5.66-7.4a2.45,2.45,0,0,0,.73,2.05,15.84,15.84,0,0,0,1.76,1.3,13.62,13.62,0,0,1,3.26,2.68,4.11,4.11,0,0,0,.92-2.68c-.07-.76-1.57-2.19-3.59-3A3.85,3.85,0,0,0,205.54,91.88Z" fill="#231f20"/><path d="M199.16,110.91s4,3.61,7.75,4.66l.17-3.85A10.58,10.58,0,0,1,199.16,110.91Z" fill="#231f20"/><path d="M206.91,116.07l-.14,0c-3.77-1.07-7.78-4.62-8-4.77a.5.5,0,0,1,.56-.82,10.2,10.2,0,0,0,7.52.79.49.49,0,0,1,.47.06.52.52,0,0,1,.21.43l-.17,3.85a.52.52,0,0,1-.21.38A.53.53,0,0,1,206.91,116.07Zm-5-3.68a20.13,20.13,0,0,0,4.58,2.5l.11-2.5A11,11,0,0,1,201.86,112.39Z" fill="#231f20"/><path d="M191,94a.48.48,0,0,1-.26-.07.5.5,0,0,1-.17-.68c.16-.28,4.13-6.85,11.64-7.43s10.64,4.68,10.77,4.9a.5.5,0,0,1-.19.68.49.49,0,0,1-.68-.18c-.12-.2-2.9-4.94-9.82-4.41s-10.82,6.89-10.86,7A.49.49,0,0,1,191,94Z" fill="#231f20"/><path d="M209.42,90.63h0a.5.5,0,0,1-.5-.5V87.5h1v2.64A.49.49,0,0,1,209.42,90.63Z" fill="#231f20"/><path d="M193.19,94a.49.49,0,0,1-.43-.24l-1-1.67a.5.5,0,1,1,.86-.51l1,1.67a.51.51,0,0,1-.18.69A.57.57,0,0,1,193.19,94Z" fill="#231f20"/><path d="M205,89.32a.5.5,0,0,1-.5-.45l-.29-2.52a.5.5,0,0,1,.45-.55.5.5,0,0,1,.55.44l.28,2.52a.49.49,0,0,1-.44.55Z" fill="#231f20"/><path d="M201,89.32a.51.51,0,0,1-.5-.42l-.35-2a.5.5,0,1,1,1-.17l.36,2a.5.5,0,0,1-.41.58Z" fill="#231f20"/><path d="M197.71,90a.5.5,0,0,1-.46-.31l-.69-1.65a.5.5,0,0,1,.26-.66.52.52,0,0,1,.66.27l.69,1.65a.5.5,0,0,1-.27.66A.65.65,0,0,1,197.71,90Z" fill="#231f20"/><path d="M195.39,92a.49.49,0,0,1-.45-.3l-.84-1.92a.49.49,0,0,1,.26-.66.51.51,0,0,1,.66.26l.83,1.92a.5.5,0,0,1-.26.66A.45.45,0,0,1,195.39,92Z" fill="#231f20"/><path d="M195,112.38l-4.7-18.07s-10.11-.72-13.25,5.54.49,15.06.49,15.06l6.38,36.31,25.66-28.47Z" fill="#fff"/><path d="M183.94,151.72l-.14,0a.5.5,0,0,1-.35-.4l-6.38-36.25c-.32-.81-3.55-9.21-.44-15.42,3.24-6.49,13.3-5.85,13.73-5.82a.53.53,0,0,1,.45.37l4.65,17.9,14.43,10.26a.5.5,0,0,1,.08.75l-25.66,28.46A.48.48,0,0,1,183.94,151.72Zm5.49-56.93c-2.46,0-9.49.44-11.91,5.28-3,6,.46,14.56.5,14.65l0,.1,6.2,35.3,24.6-27.29-14.12-10a.53.53,0,0,1-.19-.29l-4.61-17.71Z" fill="#231f20"/><path d="M186,149.48a.46.46,0,0,1-.23-.06.48.48,0,0,1-.21-.67,79.83,79.83,0,0,0,7.1-22.34.51.51,0,0,1,.57-.42.5.5,0,0,1,.42.57,80.32,80.32,0,0,1-7.21,22.65A.5.5,0,0,1,186,149.48Z" fill="#d1d3d4"/><path d="M203.12,132.11a.51.51,0,0,1-.36-.15,23,23,0,0,1-5.89-11.5.52.52,0,0,1,.39-.6.5.5,0,0,1,.59.39,22,22,0,0,0,5.62,11,.5.5,0,0,1,0,.71A.49.49,0,0,1,203.12,132.11Z" fill="#d1d3d4"/><path d="M189.6,99.61l-2.77-34.09s1.81-5.18,1.39-7.35-6.69-7.59-7.89-5.42.24,10.84,1,13.25c0,0-2.29,18.31-1.93,23s1.33,7.83.85,9.76a74.21,74.21,0,0,0-1.93,8.43C178.16,109,182.37,115.39,189.6,99.61Z" fill="#fff"/><path d="M181,110.51a2.73,2.73,0,0,1-.72-.09,3.52,3.52,0,0,1-2.49-3.25,54.63,54.63,0,0,1,1.55-7c.15-.59.29-1.11.39-1.5a14.12,14.12,0,0,0-.27-4.7c-.2-1.42-.44-3-.59-4.9-.35-4.56,1.72-21.38,1.92-23-.61-2.16-2.26-11.06-.89-13.53a1.56,1.56,0,0,1,1.77-.73c2.47.39,6.68,4.41,7.05,6.3.41,2.12-1.11,6.74-1.37,7.5l2.76,34a.53.53,0,0,1,0,.25C186.11,108.42,183,110.51,181,110.51Zm.27-57.76c-.36,0-.45.16-.5.24-1,1.9.18,10.1,1,12.87a.65.65,0,0,1,0,.2c0,.19-2.28,18.32-1.93,22.91.14,1.85.38,3.43.58,4.83.33,2.22.57,3.83.25,5.09-.1.4-.24.92-.39,1.51a54.54,54.54,0,0,0-1.52,6.83,2.54,2.54,0,0,0,1.73,2.22c1.08.27,4.08-.15,8.58-9.93l-2.76-34a.76.76,0,0,1,0-.21c.49-1.4,1.69-5.41,1.37-7.08s-4.2-5.18-6.23-5.5A1.06,1.06,0,0,0,181.26,52.75Z" fill="#231f20"/><path d="M209.42,120.35c.59.5-27.74,27.27-27.74,27.27l.87,7.94-5.3,32.3,30.28-17.24,3.85-10.76,1.22,7.87,4.12-2.34,3.42-42.64Z" fill="#fff"/><path d="M177.25,188.36a.52.52,0,0,1-.29-.09.5.5,0,0,1-.21-.49L182,155.55l-.86-7.87a.5.5,0,0,1,.15-.42c10.61-10,26.56-25.34,27.6-27a.44.44,0,0,1,0-.15.48.48,0,0,1,.55-.26l10.72,2.39a.5.5,0,0,1,.38.53l-3.41,42.63a.52.52,0,0,1-.25.4l-4.12,2.35a.52.52,0,0,1-.47,0,.51.51,0,0,1-.28-.37l-.91-5.93L208,170.79a.51.51,0,0,1-.22.26L177.49,188.3A.5.5,0,0,1,177.25,188.36Zm4.95-40.54.84,7.69a.29.29,0,0,1,0,.13l-5.13,31.27,29.21-16.63,3.79-10.59a.53.53,0,0,1,.52-.33.49.49,0,0,1,.44.42l1.11,7.16,3.26-1.86,3.36-41.94-10-2.23C207.85,123.24,198.65,132.27,182.2,147.82Z" fill="#231f20"/><path d="M195,160.36a.59.59,0,0,1-.22-.05.5.5,0,0,1-.22-.68l15.39-30.4C189.67,156,189.31,156,189,155.92a.53.53,0,0,1-.41-.3.5.5,0,0,1,.24-.65c1.23-1.2,14.77-19,23.69-30.8a.51.51,0,0,1,.67-.12.5.5,0,0,1,.18.65l-17.91,35.39A.5.5,0,0,1,195,160.36Z" fill="#d1d3d4"/><path d="M201.78,198.47h0a.5.5,0,0,1-.49-.51l.62-22.37a.5.5,0,0,1,1,0L202.28,198A.51.51,0,0,1,201.78,198.47Z" fill="#d1d3d4"/><rect x="162.11" y="247.74" width="77.04" height="19.8" fill="#68e1fd"/><path d="M239.15,268h-77a.51.51,0,0,1-.5-.5v-19.8a.5.5,0,0,1,.5-.5h77a.5.5,0,0,1,.5.5v19.8A.5.5,0,0,1,239.15,268Zm-76.54-1h76v-18.8h-76Z" fill="#231f20"/><rect x="158.42" y="267.53" width="84.42" height="3.19" fill="#68e1fd"/><path d="M242.84,271.22H158.42a.5.5,0,0,1-.5-.5v-3.18a.5.5,0,0,1,.5-.5h84.42a.5.5,0,0,1,.5.5v3.18A.5.5,0,0,1,242.84,271.22Zm-83.92-1h83.42V268H158.92Z" fill="#231f20"/><rect x="155.18" y="270.72" width="90.13" height="5.68" fill="#231f20"/><path d="M245.3,276.9H155.18a.5.5,0,0,1-.5-.5v-5.68a.5.5,0,0,1,.5-.5H245.3a.5.5,0,0,1,.5.5v5.68A.5.5,0,0,1,245.3,276.9Zm-89.62-1H244.8v-4.68H155.68Z" fill="#231f20"/><path d="M180.76,57s-6.55-4.63-4.63-5.77S183,55.32,183,55.32Z" fill="#fff"/><path d="M180.76,57.53a.48.48,0,0,1-.29-.09c-.88-.62-5.27-3.82-5.19-5.64a1.15,1.15,0,0,1,.59-1c2.16-1.27,6.59,3.23,7.46,4.15a.51.51,0,0,1-.06.74l-2.21,1.7A.5.5,0,0,1,180.76,57.53Zm-4-5.94a.82.82,0,0,0-.42.1c-.1.06-.1.11-.1.15,0,.81,2.24,2.95,4.46,4.57l1.47-1.14C180.49,53.53,178,51.59,176.8,51.59Z" fill="#231f20"/><polygon points="172.17 40.73 193.62 40.73 191.65 47.35 174.14 47.35 172.17 40.73" fill="#fff"/><path d="M191.65,47.85H174.14a.5.5,0,0,1-.48-.36l-2-6.62a.46.46,0,0,1,.08-.44.48.48,0,0,1,.4-.2h21.45a.48.48,0,0,1,.4.2.53.53,0,0,1,.08.44l-2,6.62A.51.51,0,0,1,191.65,47.85Zm-17.14-1h16.77L193,41.23H172.84Z" fill="#231f20"/><polygon points="187.19 49.8 178.38 49.8 177.87 47.35 187.7 47.35 187.19 49.8" fill="#fff"/><path d="M187.19,50.3h-8.8a.49.49,0,0,1-.49-.39l-.52-2.46a.51.51,0,0,1,.49-.6h9.83a.53.53,0,0,1,.39.18.53.53,0,0,1,.1.42l-.51,2.46A.5.5,0,0,1,187.19,50.3Zm-8.4-1h8l.3-1.45h-8.59Z" fill="#231f20"/><polygon points="185.22 71.8 180.25 71.8 179.37 49.8 186.1 49.8 185.22 71.8" fill="#fff"/><path d="M185.21,72.3h-5a.5.5,0,0,1-.5-.48l-.88-22a.46.46,0,0,1,.14-.36.48.48,0,0,1,.36-.16h6.73a.52.52,0,0,1,.36.16.54.54,0,0,1,.14.36l-.89,22A.5.5,0,0,1,185.21,72.3Zm-4.48-1h4l.85-21h-5.69Z" fill="#231f20"/><rect x="179.37" y="36.78" width="6.73" height="3.95" fill="#fff"/><path d="M186.1,41.23h-6.73a.5.5,0,0,1-.5-.5V36.78a.5.5,0,0,1,.5-.5h6.73a.5.5,0,0,1,.5.5v3.95A.51.51,0,0,1,186.1,41.23Zm-6.23-1h5.73V37.28h-5.73Z" fill="#231f20"/><path d="M179.33,36.64c-1.27-.51-1.58-2.22-1.25-3.55s1.09-2.56,1.22-3.92a4.42,4.42,0,0,0-.61-2.73,7.15,7.15,0,0,1,2.13,2.18c-.22-1,.58-1.82,1.29-2.49s1.47-1.6,1.17-2.53A11.24,11.24,0,0,1,185,27.68a9.53,9.53,0,0,0,1.64-3.18,17.9,17.9,0,0,1,.74,2.88,4.5,4.5,0,0,0,.7-1.94c.69,3,1.35,6.26-.11,8.93a14.7,14.7,0,0,1-2,2.57,1.79,1.79,0,0,0-.89-.16H184Z" fill="#68e1fd"/><path d="M185.92,37.44a.5.5,0,0,1-.24-.06,1.37,1.37,0,0,0-.65-.1H184l-4.64-.14-.17,0c-1.53-.6-1.94-2.58-1.56-4.13a14.24,14.24,0,0,1,.57-1.67,8.3,8.3,0,0,0,.64-2.18,3.94,3.94,0,0,0-.54-2.42.5.5,0,0,1,.08-.62A.51.51,0,0,1,179,26a7.57,7.57,0,0,1,1.54,1.34,5.45,5.45,0,0,1,1.27-1.6c.87-.82,1.21-1.48,1-2a.5.5,0,0,1,.89-.43,11.44,11.44,0,0,1,1.49,3.16,9.21,9.21,0,0,0,.94-2.13.51.51,0,0,1,.47-.35.49.49,0,0,1,.49.33c.15.45.29.91.41,1.37a3.06,3.06,0,0,0,0-.32.51.51,0,0,1,.47-.44.5.5,0,0,1,.52.39c.77,3.32,1.34,6.52-.17,9.28A12.55,12.55,0,0,1,186.55,37l-.25.28A.52.52,0,0,1,185.92,37.44ZM185,36.28a3.23,3.23,0,0,1,.75.07l0,0a12.28,12.28,0,0,0,1.68-2.19c1.08-2,.93-4.31.45-6.78a2.38,2.38,0,0,1-.18.3.47.47,0,0,1-.52.22.49.49,0,0,1-.39-.4c-.08-.48-.18-.95-.3-1.42a10,10,0,0,1-1.2,1.94.5.5,0,0,1-.51.18.49.49,0,0,1-.37-.39,10.45,10.45,0,0,0-.9-2.68,5.36,5.36,0,0,1-1.12,1.39c-.68.65-1.3,1.35-1.14,2a.49.49,0,0,1-.3.57.51.51,0,0,1-.62-.19,5.69,5.69,0,0,0-.62-.84,4.57,4.57,0,0,1,0,1.17,9.22,9.22,0,0,1-.71,2.45,13.37,13.37,0,0,0-.53,1.54c-.28,1.12,0,2.51.88,2.93Z" fill="#231f20"/><path d="M179.84,65.65a11.6,11.6,0,0,1-1.6-3.3,1.91,1.91,0,0,1,.25-2,1.77,1.77,0,0,1-.42-2.53,3.05,3.05,0,0,1-.41-1.84.93.93,0,0,1,.18-.52,1,1,0,0,1,.55-.26c1.34-.33,2.94-.51,3.93.46a1.11,1.11,0,0,1,.38.92,1.19,1.19,0,0,1-.91.79,4.08,4.08,0,0,0-1.19.4,5.25,5.25,0,0,1,4.09,1.71.79.79,0,0,1,.24.52c0,.33-.45.46-.78.51a14.13,14.13,0,0,1-3.25,0,12.52,12.52,0,0,1,2.42.49c.56.18,1.22.56,1.14,1.15s-.6.73-1.07.86a13.05,13.05,0,0,1-3.67.55Z" fill="#fff"/><path d="M179.84,66.15a.49.49,0,0,1-.41-.21,12,12,0,0,1-1.67-3.45,2.69,2.69,0,0,1,0-2.07,2.17,2.17,0,0,1-.55-1.16,2.26,2.26,0,0,1,.24-1.48,3.57,3.57,0,0,1-.33-1.85,1.35,1.35,0,0,1,.31-.8,1.45,1.45,0,0,1,.8-.42c.75-.18,3-.74,4.4.59a1.57,1.57,0,0,1,.52,1.36,1.4,1.4,0,0,1-.6.88,5.71,5.71,0,0,1,2.47,1.61,1.2,1.2,0,0,1,.36.9c0,.23-.17.77-1.06.93a1.34,1.34,0,0,1,.6,1.25c-.06.42-.35,1-1.43,1.29a14.33,14.33,0,0,1-3.28.55l.09,1.56a.51.51,0,0,1-.33.5A.5.5,0,0,1,179.84,66.15Zm.4-10.71a7.5,7.5,0,0,0-1.73.24,1,1,0,0,0-.3.11.6.6,0,0,0-.05.24,2.56,2.56,0,0,0,.34,1.53.5.5,0,0,1,0,.57,1.27,1.27,0,0,0,.29,1.79.5.5,0,0,1,.24.39.51.51,0,0,1-.18.42c-.38.32-.19,1.14-.09,1.47a10.55,10.55,0,0,0,.51,1.36.46.46,0,0,1,.13-.32.52.52,0,0,1,.36-.16,12.88,12.88,0,0,0,3.54-.53c.42-.12.69-.29.71-.45s-.39-.47-.8-.6A11.83,11.83,0,0,0,181,61h-.11a.5.5,0,0,1-.44-.55.52.52,0,0,1,.54-.45l.11,0a14,14,0,0,0,3,0,.89.89,0,0,0,.32-.09.88.88,0,0,1-.1-.1,4.75,4.75,0,0,0-3.69-1.55.48.48,0,0,1-.5-.34.5.5,0,0,1,.2-.57,3,3,0,0,1,1-.39l.32-.08c.3-.09.53-.25.55-.4A.6.6,0,0,0,182,56,2.37,2.37,0,0,0,180.24,55.44Z" fill="#231f20"/><path d="M187.52,56.61A30.89,30.89,0,0,0,183.91,54a2.19,2.19,0,0,0-.86-.37.78.78,0,0,0-.79.38,1,1,0,0,0,0,.62A5,5,0,0,0,184,56.86a1.55,1.55,0,0,1,.6.88,1.71,1.71,0,0,1-.1.67,4.56,4.56,0,0,0,1.72,4.7" fill="#fff"/><path d="M186.19,63.61a.52.52,0,0,1-.29-.09A5,5,0,0,1,184,58.29l0-.1a1.29,1.29,0,0,0,.07-.39c0-.17-.23-.37-.45-.56a5.52,5.52,0,0,1-1.85-2.51,1.45,1.45,0,0,1,0-.95,1.27,1.27,0,0,1,1.31-.67,2.39,2.39,0,0,1,1.06.44,30.24,30.24,0,0,1,3.67,2.68.49.49,0,0,1,.06.7.51.51,0,0,1-.71.06,29.4,29.4,0,0,0-3.55-2.6,1.7,1.7,0,0,0-.64-.29.28.28,0,0,0-.28.09s0,.09,0,.28a4.72,4.72,0,0,0,1.56,2,2,2,0,0,1,.77,1.19,1.88,1.88,0,0,1-.09.77,4.13,4.13,0,0,0,1.5,4.26.49.49,0,0,1,.12.69A.49.49,0,0,1,186.19,63.61Z" fill="#231f20"/><path d="M183,115.46a.51.51,0,0,1-.42-.23.5.5,0,0,1,.15-.69c8.68-5.59,8.17-12.11,8.17-12.18a.48.48,0,0,1,.45-.54.49.49,0,0,1,.54.45c0,.29.57,7.19-8.62,13.11A.43.43,0,0,1,183,115.46Z" fill="#d1d3d4"/><path d="M182.21,128.83a.48.48,0,0,1-.45-.29.49.49,0,0,1,.24-.66c5.93-2.75,12.42-13.59,12.48-13.69a.51.51,0,0,1,.69-.18.51.51,0,0,1,.17.69c-.27.45-6.71,11.21-12.92,14.09A.52.52,0,0,1,182.21,128.83Z" fill="#d1d3d4"/><path d="M203.12,168.45a.45.45,0,0,1-.25-.07.5.5,0,0,1-.19-.68,135.83,135.83,0,0,0,9.55-22.57.5.5,0,1,1,1,.3,136.92,136.92,0,0,1-9.63,22.76A.49.49,0,0,1,203.12,168.45Z" fill="#d1d3d4"/><path d="M179.05,183.65a.51.51,0,0,1-.39-.19.5.5,0,0,1,.09-.7,79.89,79.89,0,0,0,16.39-18.7.5.5,0,0,1,.69-.16.49.49,0,0,1,.16.69,80.64,80.64,0,0,1-16.63,19A.5.5,0,0,1,179.05,183.65Z" fill="#d1d3d4"/></g></svg>