<svg xmlns="http://www.w3.org/2000/svg" viewBox="0 0 400 300"><g id="_419_steak_flatline" data-name="#419_steak_flatline"><ellipse cx="200" cy="164.1" rx="155.02" ry="84.25" fill="#231f20"/><path d="M200,248.85c-85.75,0-155.52-38-155.52-84.76S114.25,79.34,200,79.34s155.52,38,155.52,84.75S285.75,248.85,200,248.85Zm0-168.51c-85.2,0-154.52,37.57-154.52,83.75S114.8,247.85,200,247.85s154.52-37.57,154.52-83.76S285.2,80.34,200,80.34Z" fill="#231f20"/><ellipse cx="200" cy="157.21" rx="155.02" ry="84.25" fill="#fff"/><path d="M200,242c-85.75,0-155.52-38-155.52-84.76S114.25,72.46,200,72.46s155.52,38,155.52,84.75S285.75,242,200,242Zm0-168.51c-85.2,0-154.52,37.57-154.52,83.75S114.8,241,200,241s154.52-37.57,154.52-83.76S285.2,73.46,200,73.46Z" fill="#231f20"/><path d="M200,220.81c-64.29,0-116.59-28.53-116.59-63.6S135.71,93.62,200,93.62s116.59,28.53,116.59,63.59S264.29,220.81,200,220.81Zm0-126.19c-63.73,0-115.59,28.08-115.59,62.59s51.86,62.6,115.59,62.6,115.59-28.08,115.59-62.6S263.73,94.62,200,94.62Z" fill="#d1d3d4"/><path d="M246.25,191.17s-1.78,10.06,1.18,13.9,22.17,13.6,25.72,14.48,14.49-2.06,17.44-3.84,16-14.78,21.88-21,12.71-25.42,18.33-32.81.88-18,.88-18Z" fill="#68e1fd"/><path d="M274.83,220.22A7.75,7.75,0,0,1,273,220c-3.32-.83-22.91-10.65-26-14.67s-1.35-13.86-1.27-14.28a.45.45,0,0,1,.25-.35l85.43-47.3a.51.51,0,0,1,.4,0,.47.47,0,0,1,.3.27c.2.45,4.78,11-.94,18.54-2.54,3.33-5.28,9-8.18,15.06-3.4,7.06-6.92,14.36-10.19,17.8-5.16,5.41-18.8,19.16-22,21.07C288.3,217.67,279.56,220.22,274.83,220.22ZM246.7,191.5c-.24,1.51-1.42,9.95,1.13,13.26,2.9,3.78,22.25,13.51,25.44,14.31s14.09-2,17.06-3.79,15.69-14.52,21.78-20.9c3.16-3.32,6.64-10.55,10-17.55,2.92-6.07,5.69-11.81,8.28-15.23,4.69-6.17,1.86-14.84,1-17Z" fill="#231f20"/><path d="M246.25,191.17l.95.47c4.42,2.19,22.94,11.35,26.84,13.43,4.43,2.36,11.23,0,11.23,0a212,212,0,0,0,25.13-26c10.94-13.89,22.76-30.74,21.28-35.18S308.62,131.75,306,132.34s-44,45.24-49.37,50S246.25,191.17,246.25,191.17Z" fill="#fff"/><path d="M278.94,206.62a10.92,10.92,0,0,1-5.14-1.11c-3.64-1.94-20-10-26.82-13.42l-.95-.47a.49.49,0,0,1-.1-.83s5.08-4.19,10.33-8.86c2-1.79,9.28-9.38,17.68-18.17,17.64-18.45,30.25-31.53,31.92-31.9,2.74-.61,24.73,7.16,26.3,11.86,1.73,5.2-12.65,24.56-21.37,35.64-10.84,13.78-25.05,26-25.19,26.09a.56.56,0,0,1-.17.09A21.77,21.77,0,0,1,278.94,206.62Zm-31.78-15.55.26.13c6.86,3.38,23.2,11.48,26.85,13.43,3.93,2.09,10,.25,10.75,0,1.12-1,14.61-12.7,25-25.89,14.41-18.31,22.34-31.29,21.2-34.71-1.41-4.23-23-11.65-25.14-11.2-1.71.56-18.87,18.51-31.4,31.62-8.42,8.8-15.7,16.41-17.74,18.23C252.72,186.42,248.65,189.83,247.16,191.07Z" fill="#231f20"/><path d="M171.16,165.31c-1.33.44-7.54-12.42-13.75-14.64s-23.06-16.85-31-22.17-12-10.2-12.41-12,.44-21.73,3.54-27,0-8.87,3.55-12,35-13.31,43.46-18.18,10.2-8.43,18.18-7.54S197.77,50,204.42,54s17.73,11.53,24.83,13.31,8.42,2.21,12.42,5.32,1.77,2.66,12.86,5.32,28.8,7,30.81,12.58S231,139.14,210.62,143.58,171.16,165.31,171.16,165.31Z" fill="#68e1fd"/><path d="M171.07,165.82c-.73,0-1.55-1.11-3.58-4-2.59-3.71-6.5-9.31-10.25-10.65-4-1.42-12-7.64-19.72-13.66-4.37-3.4-8.5-6.61-11.43-8.56-8.35-5.57-12.17-10.48-12.62-12.27s.38-21.91,3.6-27.42a12,12,0,0,0,1.53-6.35c.06-2,.11-4,2.12-5.75,1.86-1.63,10.43-4.87,20.35-8.63,9.37-3.55,19.05-7.21,23.19-9.61,2.25-1.31,4-2.51,5.59-3.58,4.29-2.92,6.88-4.69,12.89-4a50.21,50.21,0,0,0,8,.06c4.86-.23,9.46-.44,13.9,2.23,1.29.77,2.74,1.67,4.3,2.64,6.57,4.1,14.75,9.19,20.4,10.6,7.27,1.82,8.58,2.29,12.6,5.41.71.56,1.23,1,1.65,1.36,1.92,1.64,2,1.71,11,3.87,14.05,3.38,29.21,7.43,31.17,12.9a2.73,2.73,0,0,1-.47,2.16c-5.69,10.27-55.92,47.48-74.61,51.55-20,4.35-39,21.44-39.23,21.61a.81.81,0,0,1-.18.1A.73.73,0,0,1,171.07,165.82Zm.09-.51h0Zm9.2-113.16c-4.09,0-6.33,1.52-10,4-1.58,1.07-3.36,2.29-5.65,3.62-4.21,2.43-13.93,6.12-23.34,9.68-9,3.41-18.32,6.93-20,8.44s-1.72,3-1.78,5a12.79,12.79,0,0,1-1.67,6.82c-3,5.17-3.91,25-3.49,26.68.35,1.38,3.79,6.06,12.21,11.68,2.95,2,7.1,5.19,11.49,8.6,7.31,5.69,15.6,12.14,19.44,13.51,4,1.45,7.91,7,10.73,11a25.24,25.24,0,0,0,2.71,3.54c2.1-1.85,20.32-17.5,39.5-21.67,18.53-4,68.31-40.89,74-51,.48-.87.44-1.23.4-1.34-1.94-5.42-20.49-9.87-30.46-12.26-9-2.16-9.32-2.28-11.44-4.09-.41-.36-.92-.79-1.61-1.33-3.86-3-5.14-3.45-12.23-5.23-5.8-1.45-14.06-6.59-20.69-10.72-1.55-1-3-1.87-4.28-2.64-4.19-2.51-8.64-2.3-13.35-2.08a51,51,0,0,1-8.18-.07A20.74,20.74,0,0,0,180.36,52.15Z" fill="#231f20"/><path d="M169.4,143.66c3.29-8.22,2.45-14.89,11.33-19.33,7.24-3.74,14.57-7.52,22.51-9.35,9.59-2.2,19.67-1.45,29.29-3.52,17.57-3.79,32.09-16.6,49.56-20.83a5.64,5.64,0,0,1,3.25-.1c1.48.55,2.27,2.16,2.69,3.68,2.52,9.08-2.85,18.55-2.29,28,.14,2.36.65,4.71.47,7.07-.29,3.76-2.33,7.19-4.82,10-8.08,9.24-20.59,13.25-32.71,15.22s-24.58,2.31-36.25,6.09c-5.75,1.87-11.23,4.54-17.11,5.9s-12.82,2.38-19,1.76c-12.18-1.24-2.89-10.52-6.69-18.8a8.12,8.12,0,0,1-1-2.94,6.34,6.34,0,0,1,.65-2.57C169.33,143.84,169.36,143.75,169.4,143.66Z" fill="#fff"/><path d="M180.29,168.92a39.17,39.17,0,0,1-4-.2c-3-.3-4.93-1.11-6-2.47-1.45-1.86-1-4.5-.63-7.29s.94-6.23-.48-9.32l-.22-.47a5.17,5.17,0,0,1-.16-5.43l.1-.26h0a58,58,0,0,0,2-6.1c1.53-5.43,2.85-10.12,9.6-13.49,7.16-3.71,14.57-7.54,22.62-9.39a97.46,97.46,0,0,1,15-1.85A102.51,102.51,0,0,0,232.43,111c8.92-1.93,17.23-6.29,25.26-10.5,7.72-4,15.7-8.24,24.29-10.32a6.05,6.05,0,0,1,3.53-.09c1.4.52,2.41,1.87,3,4,1.47,5.28.31,10.75-.81,16-.83,4-1.7,8-1.46,12,0,.82.14,1.65.23,2.46a24.24,24.24,0,0,1,.24,4.68c-.26,3.4-1.92,6.87-4.94,10.32-6.88,7.87-17.68,12.9-33,15.38-3.87.63-7.84,1.1-11.68,1.55-8.16,1-16.59,2-24.5,4.53-2.19.71-4.38,1.55-6.5,2.37A80.08,80.08,0,0,1,195.43,167,68.2,68.2,0,0,1,180.29,168.92Zm-10.43-25.07-.11.27a5.9,5.9,0,0,0-.61,2.36,6,6,0,0,0,.75,2.26l.23.49c1.54,3.36,1,6.82.56,9.88-.4,2.69-.75,5,.43,6.53.88,1.13,2.61,1.82,5.29,2.09,5.2.53,11.52-.06,18.81-1.74a79.45,79.45,0,0,0,10.51-3.5c2.13-.82,4.34-1.67,6.55-2.39,8-2.6,16.49-3.6,24.7-4.57,3.82-.45,7.78-.92,11.63-1.55,15.1-2.44,25.7-7.36,32.42-15,2.87-3.28,4.45-6.56,4.69-9.74a23.32,23.32,0,0,0-.23-4.49c-.09-.82-.19-1.66-.24-2.51-.25-4.12.64-8.27,1.49-12.29,1.14-5.4,2.22-10.5.82-15.55-.35-1.26-1-2.85-2.39-3.35a5.24,5.24,0,0,0-3,.12c-8.46,2-16.39,6.21-24,10.23-8.1,4.25-16.46,8.64-25.52,10.6a103.76,103.76,0,0,1-14.39,1.7,96.25,96.25,0,0,0-14.9,1.82c-7.93,1.82-15.28,5.63-22.39,9.31-6.35,3.18-7.56,7.45-9.09,12.87a59.83,59.83,0,0,1-2,6.2Z" fill="#231f20"/><path d="M177.37,126.05a.51.51,0,0,1-.31-.11c-.18-.14-18.09-13.92-25.07-18a103.14,103.14,0,0,1-19.62-15.45c-5-5-11.66-14.6-11.73-14.7a.5.5,0,1,1,.82-.57c.07.1,6.69,9.63,11.62,14.57a102.8,102.8,0,0,0,19.41,15.29c7,4.11,25,17.93,25.18,18.07a.5.5,0,0,1,.09.7A.47.47,0,0,1,177.37,126.05Z" fill="#231f20"/><path d="M141.6,100.62a.52.52,0,0,1-.38-.17.51.51,0,0,1,.05-.71c.09-.07,8.71-7.49,19.54-15.4l5.08-3.7c10.76-7.87,25.5-18.64,29.83-21.44,5-3.21,8.38-5.58,8.41-5.61a.51.51,0,0,1,.7.13.49.49,0,0,1-.13.69s-3.46,2.41-8.44,5.63c-4.3,2.78-19,13.55-29.78,21.41l-5.08,3.7C150.61,93,142,100.43,141.92,100.5A.49.49,0,0,1,141.6,100.62Z" fill="#231f20"/><path d="M168.5,115.4a.5.5,0,0,1-.34-.13.49.49,0,0,1,0-.7c.13-.14,12.83-14,22.2-22.8,1-.93,2.07-2,3.2-3C203.28,79.58,216.63,67,221,65.65a.5.5,0,1,1,.3.95c-4.12,1.29-17.92,14.29-27.05,22.89l-3.21,3c-9.34,8.76-22,22.6-22.14,22.74A.5.5,0,0,1,168.5,115.4Z" fill="#231f20"/><path d="M212.84,111a.5.5,0,0,1-.41-.78,123.59,123.59,0,0,1,11-13.66c2.21-2.33,4.52-5.08,6.75-7.74,3.78-4.52,7.36-8.78,10.18-10.67a.5.5,0,1,1,.56.84c-2.71,1.8-6.24,6-10,10.47-2.25,2.67-4.56,5.44-6.8,7.78a126.31,126.31,0,0,0-10.89,13.54A.49.49,0,0,1,212.84,111Z" fill="#231f20"/><path d="M267.4,94.72c-.75,0-2.2-.61-5.6-2.08-3.73-1.63-8.86-3.85-15.12-5.94a77,77,0,0,0-14.63-3.4,46.21,46.21,0,0,1-7.83-1.62c-6.64-2.12-16.26-4.27-23.9-5.9-6.73-1.44-9.92-1.9-15.2-2.67l-4-.58c-7.91-1.17-28.5-5.58-28.71-5.62a.51.51,0,0,1-.39-.59.5.5,0,0,1,.6-.39c.21,0,20.77,4.45,28.64,5.61l4,.58c5.3.77,8.51,1.23,15.27,2.68,7.66,1.64,17.31,3.8,24,5.92a44.92,44.92,0,0,0,7.67,1.59A77.22,77.22,0,0,1,247,85.75c6.3,2.1,11.45,4.34,15.2,6,2.45,1.06,4.76,2.06,5.22,2a.5.5,0,0,1,.23,1A.9.9,0,0,1,267.4,94.72Z" fill="#231f20"/><path d="M238.66,106.55c-1.16,0-4.51-.8-12.07-2.75l-4.41-1.12c-2.14-.54-4.8-1.33-7.88-2.24-5.43-1.61-11.58-3.43-17.22-4.56-2.94-.59-5.43-1.16-7.85-1.72a89.75,89.75,0,0,0-13.68-2.41c-7.36-.59-45.77-12.52-47.41-13a.5.5,0,0,1,.3-1c.4.12,39.94,12.4,47.19,13a91.07,91.07,0,0,1,13.83,2.44c2.4.55,4.89,1.13,7.81,1.71,5.69,1.14,11.86,3,17.31,4.58,3.07.91,5.72,1.69,7.84,2.23l4.42,1.12c4.68,1.21,11.1,2.85,11.88,2.72a.49.49,0,0,1,.62.32.51.51,0,0,1-.32.64A1.15,1.15,0,0,1,238.66,106.55Z" fill="#231f20"/><path d="M195.11,115.4H195c-.09,0-9-1.51-16.89-3.56s-28.8-9.4-29-9.47a.5.5,0,0,1,.33-1c.21.08,21.06,7.41,28.93,9.45s16.72,3.53,16.81,3.54a.51.51,0,0,1,.41.58A.5.5,0,0,1,195.11,115.4Z" fill="#231f20"/><path d="M198.65,157.08a.51.51,0,0,1-.17,0,.49.49,0,0,1-.3-.62c.13-.39,1.91-3.47,6.24-10.92,3.87-6.66,9.18-15.79,9.42-16.55a.5.5,0,0,1,1,.25c-.18.7-3.89,7.1-9.52,16.8-2.95,5.06-6,10.29-6.17,10.74A.52.52,0,0,1,198.65,157.08Z" fill="#d1d3d4"/><path d="M211.66,155a.49.49,0,0,1-.28-.09.5.5,0,0,1-.14-.69c.59-.89,6.8-10.05,6.8-10.05l.83.56-6.79,10A.51.51,0,0,1,211.66,155Z" fill="#d1d3d4"/><path d="M252.46,140.53a.47.47,0,0,1-.3-.1.51.51,0,0,1-.11-.7c6-8,15.53-21.26,15.87-22.73a.5.5,0,0,1,1-.15c.29,1.17-8.57,13.41-16.05,23.48A.51.51,0,0,1,252.46,140.53Z" fill="#d1d3d4"/><path d="M237.08,147a.53.53,0,0,1-.29-.1.51.51,0,0,1-.12-.69L250.27,127a.5.5,0,0,1,.82.58l-13.6,19.21A.5.5,0,0,1,237.08,147Z" fill="#d1d3d4"/><path d="M222.6,152.65a.52.52,0,0,1-.21,0,.51.51,0,0,1-.25-.67l13-28.38a.49.49,0,0,1,.66-.24.5.5,0,0,1,.25.66l-13,28.38A.49.49,0,0,1,222.6,152.65Z" fill="#d1d3d4"/><path d="M188.9,148.22a.57.57,0,0,1-.28-.08.51.51,0,0,1-.14-.7l12.86-19.51a.5.5,0,0,1,.69-.14.49.49,0,0,1,.14.69L189.31,148A.48.48,0,0,1,188.9,148.22Z" fill="#d1d3d4"/><path d="M207,186.09s-3.27,12.31-1.5,15.86,8.58,4.73,13,8a40.12,40.12,0,0,0,12.71,6.51c4.14,1.18,9.46,2.36,13.9,1.47S274.37,200.47,279.7,196s6.5-10.94,13-14.78,11.24-13.6,16-18,7.09-8,7.39-11.82-2.66-10.05-2.66-10.05l-93.13,38.43Z" fill="#68e1fd"/><path d="M241.73,218.72a41.47,41.47,0,0,1-23.52-8.39,32.5,32.5,0,0,0-6-3.16c-3.12-1.4-6.07-2.72-7.2-5-1.84-3.67,1.33-15.7,1.46-16.21a.51.51,0,0,1,.27-.32l13.28-6.31,93.15-38.45a.5.5,0,0,1,.64.25c.12.26,3,6.37,2.71,10.31S314,158.9,309,163.59a50.83,50.83,0,0,0-5.57,6.86c-3,4.14-6.42,8.84-10.48,11.24-3.56,2.1-5.45,5-7.45,8a28.89,28.89,0,0,1-5.49,6.72c-4.94,4.11-30.06,21-34.82,22A17.17,17.17,0,0,1,241.73,218.72Zm-34.31-32.28c-.92,3.55-2.84,12.57-1.48,15.29,1,2,3.77,3.2,6.72,4.52a33.41,33.41,0,0,1,6.14,3.28A39.64,39.64,0,0,0,231.35,216c3.71,1.06,9.17,2.36,13.66,1.46,4.26-.85,28.88-17.19,34.37-21.77a27.91,27.91,0,0,0,5.3-6.5c2-3,4-6.1,7.77-8.32s7.23-6.9,10.18-11a52.37,52.37,0,0,1,5.7-7c4.79-4.5,7-7.94,7.23-11.5.24-3.1-1.77-7.91-2.42-9.37l-92.68,38.25Z" fill="#231f20"/><path d="M267.81,143.24c-2.24,1.18-4.47,2.37-6.65,3.63a203.35,203.35,0,0,0-17.65,11.9L208,184.53c-.53.38-1.13.91-1,1.56a1.8,1.8,0,0,0,.86,1c10.67,7.51,23.24,11.76,35.62,15.9a7.68,7.68,0,0,0,2.89.58,7.79,7.79,0,0,0,2.89-1l6.63-3.26a55.58,55.58,0,0,0,9-5.15,57.11,57.11,0,0,0,6.46-6.08c6.93-7.2,14-14.25,21.07-21.29,6.15-6.13,12.35-12.29,19.56-17.11,1.57-1,3.33-2.25,3.6-4.11.33-2.38-1.93-4.23-4-5.52-5.21-3.3-14.42-11.22-20.89-9.08C282.92,133.61,275.09,139.38,267.81,143.24Z" fill="#fff"/><path d="M246.12,204.1a9.07,9.07,0,0,1-2.81-.6c-12.26-4.11-24.93-8.36-35.75-16a2.21,2.21,0,0,1-1.06-1.36c-.18-1,.83-1.77,1.21-2l35.5-25.76a208,208,0,0,1,17.7-11.92c2.2-1.28,4.47-2.48,6.66-3.64,2.41-1.28,4.84-2.74,7.41-4.29,5.08-3,10.33-6.21,15.58-7.95,5.53-1.83,12.81,3.25,18.12,7,1.16.81,2.26,1.57,3.2,2.17,1.14.72,4.62,2.93,4.18,6-.3,2.12-2.24,3.42-3.81,4.46-7.21,4.81-13.45,11-19.48,17-7,6.93-14.15,14.09-21.07,21.28l-.2.21a55.46,55.46,0,0,1-6.32,5.92,55.18,55.18,0,0,1-9.08,5.21l-6.63,3.26a8.36,8.36,0,0,1-3.08,1Zm47-72.93a7,7,0,0,0-2.2.34c-5.15,1.7-10.35,4.83-15.38,7.86-2.58,1.55-5,3-7.46,4.31h0c-2.19,1.16-4.45,2.36-6.63,3.62a206.85,206.85,0,0,0-17.61,11.87l-35.5,25.76c-.6.44-.86.78-.81,1.07s.35.5.65.71c10.69,7.53,23.3,11.75,35.49,15.84a7.36,7.36,0,0,0,2.7.55,7.53,7.53,0,0,0,2.7-.92l6.63-3.26a54.28,54.28,0,0,0,8.91-5.1,54.34,54.34,0,0,0,6.21-5.82l.2-.21c6.93-7.2,14.12-14.37,21.08-21.3,6.07-6.05,12.35-12.3,19.64-17.16,1.39-.93,3.13-2.09,3.37-3.77s-1-3.29-3.73-5c-1-.61-2.06-1.37-3.23-2.19C303.68,135.25,297.84,131.17,293.08,131.17Zm-25.27,12.07h0Z" fill="#231f20"/><path d="M225.6,185.6a.5.5,0,0,1,0-1l35.77-.59h0a.5.5,0,1,1,0,1l-35.77.59Z" fill="#d1d3d4"/><path d="M271.12,175.25h0c-2.7-.12-26.4-1.19-27.59-1.49a.49.49,0,0,1-.36-.6.5.5,0,0,1,.6-.37c.88.21,16.87,1,27.39,1.46a.5.5,0,0,1,0,1Z" fill="#d1d3d4"/><path d="M263.73,167h0L251,166.68a.5.5,0,0,1-.49-.51.52.52,0,0,1,.51-.49l12.71.29a.5.5,0,0,1,.49.52A.5.5,0,0,1,263.73,167Z" fill="#d1d3d4"/><path d="M291.23,164.31h-.07c-3-.39-29.64-3.86-30.54-4.16a.5.5,0,0,1,.31-1c.84.24,18.61,2.59,30.36,4.12a.5.5,0,0,1-.06,1Z" fill="#d1d3d4"/><path d="M294.48,153.67h-.1l-28.08-5.32a.5.5,0,0,1-.4-.58.5.5,0,0,1,.58-.4l28.09,5.32a.5.5,0,0,1,.4.58A.51.51,0,0,1,294.48,153.67Z" fill="#d1d3d4"/><path d="M298.32,146h-.05l-17.44-1.77a.5.5,0,0,1-.45-.55.51.51,0,0,1,.55-.45L298.37,145a.5.5,0,0,1-.05,1Z" fill="#d1d3d4"/><path d="M245.55,213.83h-.05a.51.51,0,0,1-.45-.55c.44-4.52.81-9.67.81-9.72a.51.51,0,0,1,.54-.46.5.5,0,0,1,.46.53c0,.05-.37,5.21-.81,9.75A.5.5,0,0,1,245.55,213.83Z" fill="#231f20"/><path d="M278.92,214.29a.5.5,0,0,1-.5-.5c0-2.32,3.45-8.83,3.6-9.1a.5.5,0,0,1,.68-.21.5.5,0,0,1,.2.68c-1,1.82-3.48,6.91-3.48,8.63A.5.5,0,0,1,278.92,214.29Z" fill="#231f20"/><path d="M157.41,151.17a.49.49,0,0,1-.44-.27c-.17-.33-4.06-8.06-2.71-14.37a.52.52,0,0,1,.6-.39.5.5,0,0,1,.38.6c-1.28,6,2.58,13.63,2.62,13.71a.51.51,0,0,1-.22.67A.46.46,0,0,1,157.41,151.17Z" fill="#231f20"/><path d="M140.85,138.65a.5.5,0,0,1-.48-.37c-.19-.67-4.4-16.48,1.9-25.74a.49.49,0,0,1,.69-.13.5.5,0,0,1,.14.69c-6,8.88-1.81,24.75-1.77,24.91a.5.5,0,0,1-.35.62Z" fill="#231f20"/><path d="M122.86,125.06a.5.5,0,0,1-.37-.16c-3.67-4.13.82-15.11,1-15.58a.5.5,0,1,1,.93.39c-.05.11-4.45,10.86-1.19,14.52a.51.51,0,0,1,0,.71A.54.54,0,0,1,122.86,125.06Z" fill="#231f20"/><path d="M145.37,174.55c-1.83-.07-37.17-1.56-46.7-2.76a46.09,46.09,0,0,0-16.16.56l-4.12,8L86,187.07s67.54,0,67.94-2.95c.2-1.52-1-6.07-1-6.07S146.21,174.38,145.37,174.55Z" fill="#fff"/><path d="M86,187.57a.51.51,0,0,1-.33-.13l-7.64-6.68a.5.5,0,0,1-.11-.61l4.12-8a.46.46,0,0,1,.31-.25,46.14,46.14,0,0,1,16.35-.58c9.68,1.22,46,2.73,46.65,2.76,1.1,0,5.32,2.21,7.8,3.56a.55.55,0,0,1,.25.31c.12.48,1.24,4.69,1,6.26-.11.85-.3,2.26-34.6,3C103.11,187.56,86.2,187.57,86,187.57Zm-7-7.31,7.21,6.31c24.93,0,64.87-.73,67.26-2.61a25.63,25.63,0,0,0-1-5.57c-3.07-1.66-6.5-3.35-7.09-3.35h-.08c-.36,0-37-1.54-46.74-2.77a47.14,47.14,0,0,0-15.76.5Z" fill="#231f20"/><path d="M86.52,185.54a.53.53,0,0,1-.24-.06.51.51,0,0,1-.2-.68c1.24-2.27,3.35-5.72,4.09-6.92L84,174.16a.5.5,0,0,1,.51-.86l6.6,4a.48.48,0,0,1,.23.31.5.5,0,0,1-.06.38c0,.05-2.83,4.55-4.33,7.31A.49.49,0,0,1,86.52,185.54Z" fill="#d1d3d4"/><path d="M151.29,178.91h0c-6.91-.31-59.87-.7-60.41-.7a.5.5,0,0,1,0-1h0c.53,0,53.51.39,60.45.7a.5.5,0,0,1,0,1Z" fill="#d1d3d4"/><path d="M140.6,154.73c-1.84-.07-37.17-1.56-46.7-2.76a46.09,46.09,0,0,0-16.16.56l-4.12,8,7.64,6.69s67.54,0,67.93-2.95c.21-1.52-1-6.07-1-6.07S141.44,154.56,140.6,154.73Z" fill="#fff"/><path d="M81.26,167.75a.51.51,0,0,1-.33-.13l-7.64-6.68a.52.52,0,0,1-.12-.61l4.13-8a.5.5,0,0,1,.31-.26A46.57,46.57,0,0,1,94,151.47c9.67,1.22,46,2.73,46.65,2.76,1.1,0,5.32,2.21,7.8,3.56a.49.49,0,0,1,.24.31c.13.48,1.25,4.69,1,6.26-.11.85-.31,2.26-34.6,3C98.34,167.74,81.43,167.75,81.26,167.75Zm-7-7.31,7.2,6.31c24.94,0,64.88-.73,67.27-2.61a25.08,25.08,0,0,0-1-5.57c-3.06-1.66-6.5-3.35-7.08-3.35h-.08c-.36,0-37-1.54-46.74-2.77a47.14,47.14,0,0,0-15.76.5Z" fill="#231f20"/><path d="M81.75,165.72a.5.5,0,0,1-.44-.74c1.24-2.27,3.35-5.72,4.09-6.93l-6.17-3.71a.51.51,0,0,1-.17-.69.51.51,0,0,1,.69-.17l6.6,4a.48.48,0,0,1,.23.31.5.5,0,0,1-.06.38s-2.83,4.55-4.33,7.31A.5.5,0,0,1,81.75,165.72Z" fill="#d1d3d4"/><path d="M146.52,159.09h0c-6.92-.31-59.88-.7-60.41-.7a.5.5,0,1,1,0-1h0c.53,0,53.51.39,60.45.7a.5.5,0,0,1,0,1Z" fill="#d1d3d4"/><path d="M158.33,179.94a15,15,0,0,1-3.28.45q-10.68,1.44-21.37,2.77c-4,.5-8.12.72-12.08,1.43-4.93.88-10,1.17-14.79,2.92-4.41,1.62-7.76,4.27-11.07,7.51a3,3,0,0,0-1.13,1.84,3.09,3.09,0,0,0,1.08,2.08l1.38,1.51a9.18,9.18,0,0,0,1.09,1.07c2.26,1.77,5.49,1,8.08.49q3.39-.62,6.78-1.26,11.4-2.13,22.77-4.43c7.54-1.53,15.08-3.09,22.54-4.94,2.48-.62,5-1.24,7.39-2.07.45-.15,2.79-.74,2.76-1.47-.06-1.53-2.08-5.79-2.08-5.79S159.13,179.63,158.33,179.94Z" fill="#fff"/><path d="M101.8,203.11a6.2,6.2,0,0,1-4-1.2,10.18,10.18,0,0,1-1.15-1.12l-1.38-1.52a3.54,3.54,0,0,1-1.21-2.44,3.49,3.49,0,0,1,1.28-2.17A31.76,31.76,0,0,1,106.64,187a51.4,51.4,0,0,1,10.55-2.28c1.42-.2,2.89-.41,4.32-.66,2.54-.46,5.18-.72,7.73-1,1.47-.14,2.93-.28,4.38-.46,6.63-.82,13.62-1.73,21.36-2.78.33,0,.69-.06,1.07-.09a7.72,7.72,0,0,0,2.1-.32c.84-.33,5.63,1.17,8.41,2.1a.51.51,0,0,1,.3.26c.21.44,2.06,4.4,2.12,6,0,.94-1.38,1.45-2.84,1.88l-.26.09c-2.48.84-5.11,1.5-7.43,2.07-7.54,1.88-15.28,3.47-22.56,4.95-6.9,1.4-14.35,2.85-22.78,4.43l-6.78,1.26-.63.12A21.11,21.11,0,0,1,101.8,203.11Zm56.69-22.69a8.58,8.58,0,0,1-2.37.38c-.35,0-.7,0-1,.08-7.74,1.05-14.73,2-21.37,2.78-1.45.18-2.93.32-4.4.47-2.53.25-5.15.5-7.65,1-1.45.26-2.93.47-4.36.67A51.38,51.38,0,0,0,107,188a30.93,30.93,0,0,0-10.89,7.39,2.65,2.65,0,0,0-1,1.52,2.72,2.72,0,0,0,.94,1.71l1.39,1.51a9,9,0,0,0,1,1c1.9,1.49,4.64,1,7,.51l.63-.12q3.39-.61,6.77-1.26c8.43-1.58,15.88-3,22.77-4.43,7.27-1.47,15-3.07,22.52-4.94,2.3-.57,4.9-1.22,7.34-2l.31-.09c1.7-.51,2.07-.81,2.13-.94a24.69,24.69,0,0,0-2-5.35C162.76,181.37,159.13,180.34,158.49,180.42Zm0,0Zm-.15-.48h0Z" fill="#231f20"/><path d="M102.26,201.18l-.15,0a.49.49,0,0,1-.32-.63,14.79,14.79,0,0,1,3.75-5.43l-4.71-3.22a.5.5,0,0,1,.57-.83l5.23,3.58a.5.5,0,0,1,0,.8,14.77,14.77,0,0,0-3.93,5.42A.5.5,0,0,1,102.26,201.18Z" fill="#d1d3d4"/><path d="M106.35,195.54a.5.5,0,0,1-.11-1c.51-.12,51.65-11.43,58.54-12.35a.49.49,0,0,1,.56.43.5.5,0,0,1-.43.56c-6.85.92-57.94,12.22-58.45,12.34Z" fill="#d1d3d4"/><path d="M176.45,194.67c-1.82.25-36.86,5-46.45,5.54a46.2,46.2,0,0,0-15.8,3.41l-2.64,8.64,8.7,5.23s66.47-12,66.35-14.92c-.07-1.53-2.08-5.79-2.08-5.79S177.25,194.36,176.45,194.67Z" fill="#fff"/><path d="M120.26,218a.59.59,0,0,1-.26-.07l-8.7-5.23a.53.53,0,0,1-.22-.58l2.64-8.63a.49.49,0,0,1,.27-.31,46.12,46.12,0,0,1,16-3.46c9-.47,41.75-4.88,46.41-5.53,1.07-.2,5.62,1.23,8.31,2.13a.49.49,0,0,1,.29.26c.21.44,2.06,4.39,2.13,6,0,.86.09,2.28-33.53,9.09C137.16,215,120.52,218,120.35,218Zm-8.11-6,8.21,4.93c24.53-4.42,63.72-12.19,65.74-14.46a25.73,25.73,0,0,0-1.93-5.31c-3.31-1.1-7-2.15-7.57-2l-.08,0c-.35,0-36.56,5-46.49,5.54A47.06,47.06,0,0,0,114.61,204Zm64.3-17.36h0Z" fill="#231f20"/><path d="M120.39,215.91a.41.41,0,0,1-.16,0,.51.51,0,0,1-.32-.63c.82-2.46,2.29-6.23,2.81-7.54L116,205.14a.5.5,0,0,1-.29-.65.49.49,0,0,1,.64-.28l7.2,2.74a.5.5,0,0,1,.28.27.46.46,0,0,1,0,.38c0,.05-2,5-3,8A.51.51,0,0,1,120.39,215.91Z" fill="#d1d3d4"/><path d="M123.37,207.92a.51.51,0,0,1-.5-.42.5.5,0,0,1,.41-.57c.53-.09,52.74-9.08,59.62-10a.49.49,0,0,1,.56.43.5.5,0,0,1-.43.56c-6.86.91-59,9.9-59.58,10Z" fill="#d1d3d4"/><path d="M148.5,166.85c-1.81-.31-36.63-6.51-45.91-9a46.39,46.39,0,0,0-16.09-1.6l-5.16,7.41L88,171.34s66.94,9,67.72,6.14c.41-1.47-.2-6.14-.2-6.14S149.35,166.8,148.5,166.85Z" fill="#fff"/><path d="M151.94,178.54c-4.26,0-12.87-.59-30.41-2.56-16.65-1.87-33.41-4.12-33.58-4.15a.47.47,0,0,1-.31-.16L81,164a.5.5,0,0,1,0-.61L86.09,156a.47.47,0,0,1,.35-.21,46.14,46.14,0,0,1,16.27,1.61c9.41,2.49,45.25,8.85,45.87,9,1.08.15,5,2.9,7.25,4.57a.49.49,0,0,1,.2.34c.07.49.62,4.82.19,6.34C156.11,178,156,178.54,151.94,178.54Zm-63.67-7.67c24.71,3.32,64.39,7.94,67,6.39a25.35,25.35,0,0,0-.21-5.65c-2.81-2.05-6-4.18-6.57-4.26h-.09c-.35-.06-36.47-6.46-45.95-9a47.21,47.21,0,0,0-15.68-1.6l-4.8,6.9Z" fill="#231f20"/><path d="M88.78,169.9a.47.47,0,0,1-.3-.1.51.51,0,0,1-.11-.7c1.54-2.09,4.09-5.23,5-6.32l-5.61-4.51a.49.49,0,0,1-.08-.7.5.5,0,0,1,.7-.08l6,4.83a.49.49,0,0,1,.19.34.56.56,0,0,1-.11.37s-3.41,4.13-5.27,6.66A.49.49,0,0,1,88.78,169.9Z" fill="#d1d3d4"/><path d="M153.86,172h-.09C147,170.73,94.52,163.28,94,163.2a.5.5,0,0,1,.14-1c.53.08,53,7.53,59.82,8.77a.5.5,0,0,1,.4.58A.51.51,0,0,1,153.86,172Z" fill="#d1d3d4"/><path d="M151.77,166.22a15,15,0,0,1-3.28.45q-10.68,1.44-21.37,2.78c-4,.49-8.12.71-12.08,1.42-4.93.88-10,1.17-14.79,2.92-4.41,1.62-7.76,4.27-11.07,7.51a3,3,0,0,0-1.13,1.84,3.09,3.09,0,0,0,1.07,2.08l1.39,1.51a8.47,8.47,0,0,0,1.09,1.07c2.26,1.77,5.49,1,8.08.49q3.39-.61,6.78-1.26,11.4-2.13,22.77-4.43c7.54-1.53,15.08-3.09,22.54-4.94,2.48-.62,5-1.24,7.38-2.06.46-.16,2.8-.74,2.77-1.48-.06-1.53-2.08-5.79-2.08-5.79S152.57,165.91,151.77,166.22Z" fill="#fff"/><path d="M95.24,189.39a6.19,6.19,0,0,1-3.95-1.19,11.2,11.2,0,0,1-1.15-1.13l-1.38-1.51a3.54,3.54,0,0,1-1.21-2.44,3.49,3.49,0,0,1,1.28-2.18,31.67,31.67,0,0,1,11.25-7.62A51.35,51.35,0,0,1,110.64,171c1.42-.2,2.89-.41,4.31-.66,2.55-.46,5.19-.72,7.74-1,1.46-.14,2.92-.28,4.37-.46,6.75-.84,13.74-1.74,21.36-2.77.33-.05.69-.07,1.07-.1a7.72,7.72,0,0,0,2.1-.32h0c.84-.33,5.63,1.17,8.41,2.1a.51.51,0,0,1,.3.26c.21.45,2,4.4,2.12,6,0,.94-1.38,1.45-2.84,1.89l-.26.08c-2.49.85-5.11,1.5-7.43,2.08-7.54,1.87-15.28,3.47-22.56,4.94-6.93,1.41-14.38,2.86-22.78,4.44l-6.78,1.26-.63.11A21.11,21.11,0,0,1,95.24,189.39Zm56.69-22.69a8.58,8.58,0,0,1-2.37.38,10,10,0,0,0-1,.09c-7.62,1-14.61,1.93-21.37,2.77-1.45.18-2.92.33-4.39.47-2.54.25-5.16.5-7.66,1-1.45.26-2.92.47-4.35.68a50.92,50.92,0,0,0-10.36,2.22,30.82,30.82,0,0,0-10.89,7.4,2.6,2.6,0,0,0-1,1.51,2.72,2.72,0,0,0,.94,1.71l1.39,1.51a8.25,8.25,0,0,0,1,1c1.9,1.49,4.63,1,7,.51l.63-.12q3.39-.62,6.77-1.26c8.4-1.57,15.85-3,22.77-4.43,7.27-1.47,15-3.07,22.52-4.94,2.3-.57,4.9-1.21,7.34-2l.31-.09c1.7-.51,2.07-.81,2.13-.94a24.69,24.69,0,0,0-2-5.35C156.2,167.65,152.54,166.61,151.93,166.7Z" fill="#231f20"/><path d="M95.7,187.46l-.16,0a.5.5,0,0,1-.31-.64A14.77,14.77,0,0,1,99,181.38l-4.71-3.23a.5.5,0,1,1,.57-.82l5.23,3.58a.49.49,0,0,1,.22.38.52.52,0,0,1-.18.41,14.77,14.77,0,0,0-3.93,5.42A.5.5,0,0,1,95.7,187.46Z" fill="#d1d3d4"/><path d="M99.79,181.82a.5.5,0,0,1-.11-1c.51-.11,51.65-11.43,58.54-12.35a.5.5,0,0,1,.13,1c-6.85.92-57.94,12.22-58.46,12.34Z" fill="#d1d3d4"/><path d="M107.34,192.87a15.34,15.34,0,0,0,3.32,0q10.77.08,21.54,0c4,0,8.14-.33,12.17-.13,5,.24,10.08-.13,15,1,4.58,1,8.24,3.24,11.94,6a3,3,0,0,1,1.35,1.68,3.07,3.07,0,0,1-.8,2.2l-1.18,1.67a9.12,9.12,0,0,1-.94,1.21c-2,2-5.32,1.66-7.95,1.52l-6.88-.38q-11.58-.66-23.16-1.48c-7.67-.55-15.35-1.14-23-2-2.53-.29-5.08-.59-7.58-1.1-.48-.1-2.87-.38-2.94-1.11-.13-1.52,1.33-6,1.33-6S106.51,192.66,107.34,192.87Z" fill="#fff"/><path d="M164.63,208.71c-.75,0-1.5,0-2.19-.08l-.64,0-6.88-.38c-8.48-.49-16.06-1-23.17-1.48-7.42-.54-15.31-1.13-23-2-2.37-.28-5.06-.59-7.63-1.11l-.28,0c-1.5-.25-3-.57-3-1.51-.14-1.57,1.19-5.73,1.34-6.2a.5.5,0,0,1,.26-.29c2.64-1.28,7.18-3.39,8.07-3.17h0a7.72,7.72,0,0,0,2.12.06c.38,0,.75-.05,1.08-.05,7.75.05,14.8.06,21.54,0,1.45,0,2.92,0,4.38-.1,2.57-.08,5.22-.16,7.81,0,1.45.07,2.93.09,4.36.11a51,51,0,0,1,10.77.9,31.73,31.73,0,0,1,12.13,6.12,3.39,3.39,0,0,1,1.54,2,3.52,3.52,0,0,1-.88,2.57l-1.18,1.68a9.77,9.77,0,0,1-1,1.27C168.67,208.4,166.61,208.71,164.63,208.71ZM100,196.35A24.28,24.28,0,0,0,98.78,202a5.33,5.33,0,0,0,2.22.6l.32.06c2.53.52,5.19.82,7.54,1.09,7.67.89,15.55,1.49,23,2,7.1.51,14.67,1,23.15,1.48l6.88.38.64,0c2.45.14,5.23.31,6.92-1.41a9.36,9.36,0,0,0,.89-1.14l1.18-1.68a2.64,2.64,0,0,0,.72-1.82,2.67,2.67,0,0,0-1.16-1.37,30.71,30.71,0,0,0-11.75-5.94,50.11,50.11,0,0,0-10.56-.88c-1.44,0-2.93,0-4.4-.12-2.55-.12-5.18,0-7.73,0-1.47.05-2.94.09-4.4.1-6.75,0-13.8,0-21.56,0-.31,0-.65,0-1,.05a8.24,8.24,0,0,1-2.39-.08h0C106.61,193.36,103.13,194.86,100,196.35Z" fill="#231f20"/><path d="M165.6,206.76a.5.5,0,0,1-.45-.28,15,15,0,0,0-4.59-4.88.48.48,0,0,1-.23-.38.51.51,0,0,1,.17-.41l4.73-4.22a.5.5,0,0,1,.7,0,.5.5,0,0,1,0,.71l-4.26,3.8a14.84,14.84,0,0,1,4.42,4.9.5.5,0,0,1-.23.67A.54.54,0,0,1,165.6,206.76Z" fill="#d1d3d4"/><path d="M160.83,201.68h0c-.53,0-52.65-4.72-59.56-4.75a.5.5,0,0,1-.5-.5.51.51,0,0,1,.5-.5h0c7,0,59.11,4.71,59.64,4.76a.5.5,0,0,1,0,1Z" fill="#d1d3d4"/><path d="M139.41,146.34s-60.82-12.05-76-16.74" fill="#d1d3d4"/><path d="M139.41,146.83h-.1c-.61-.12-61-12.11-76.1-16.76a.5.5,0,0,1-.33-.62.49.49,0,0,1,.63-.33c15,4.63,75.38,16.6,76,16.72a.51.51,0,0,1,.4.59A.5.5,0,0,1,139.41,146.83Z" fill="#231f20"/><path d="M108.26,152a.5.5,0,0,1-.44-.26A.51.51,0,0,1,108,151l14.48-8.2c-4.59-4.78-11.18-11.61-11.68-12a.5.5,0,0,1,.6-.81c.7.52,11.06,11.34,12.24,12.57a.51.51,0,0,1,.14.42.53.53,0,0,1-.25.36l-15,8.52A.42.42,0,0,1,108.26,152Z" fill="#231f20"/><path d="M98.44,147.7a.33.33,0,0,1-.14,0,.5.5,0,0,1,.24-1c1-.09,9.46-3.44,15.22-5.79l-13-7.57a.5.5,0,1,1,.5-.86l13.92,8.08a.51.51,0,0,1,.25.47.48.48,0,0,1-.31.42C101.26,147.13,99,147.7,98.44,147.7Z" fill="#231f20"/><path d="M88.69,144.49a.51.51,0,0,1-.48-.35.5.5,0,0,1,.33-.63l15.07-4.87c-2.5-1.91-10.33-7.89-10.9-8.31a.5.5,0,0,1-.11-.7.51.51,0,0,1,.7-.1c.68.5,11.23,8.55,11.68,8.9a.49.49,0,0,1,.19.48.5.5,0,0,1-.34.39l-16,5.16Z" fill="#231f20"/><path d="M82.1,142.77a.51.51,0,0,1-.47-.32.52.52,0,0,1,.3-.65l12.24-4.56-9.65-8.1a.5.5,0,0,1,.64-.77L95.47,137a.49.49,0,0,1,.18.47.54.54,0,0,1-.32.38l-13,4.86Z" fill="#231f20"/><path d="M99.1,144.52a.48.48,0,0,1-.45-.28.5.5,0,0,1,.23-.67c.85-.4,9.11-3.89,9.47-4a.5.5,0,1,1,.38.92c-.08,0-8.59,3.62-9.42,4A.52.52,0,0,1,99.1,144.52Z" fill="#231f20"/><path d="M78.64,139.77h-.11a.5.5,0,0,1-.35-.61.49.49,0,0,1,.55-.37A72.55,72.55,0,0,0,87.19,135L77,126.67a.5.5,0,1,1,.63-.78l10.82,8.78a.49.49,0,0,1,.18.44.5.5,0,0,1-.27.39C82.69,138.34,79.44,139.77,78.64,139.77Z" fill="#231f20"/><path d="M67.59,136.05a.51.51,0,0,1-.46-.29.49.49,0,0,1,.23-.65c.76-.37,8.93-1.67,12.37-2.21L70.85,126a.52.52,0,0,1-.08-.71.5.5,0,0,1,.7-.08l9.79,7.62a.52.52,0,0,1,.17.52.49.49,0,0,1-.41.37c-4.77.74-12.58,2-13.23,2.3A.45.45,0,0,1,67.59,136.05Z" fill="#231f20"/><path d="M179.37,212.42a6.63,6.63,0,0,1-2.7,2.05,9.82,9.82,0,0,1-3.11.21c-4.44,0-15.31,4.67-15.07,10.42.26,6,13.38,4.13,17.29,4.26,12.55.39,24.9,6.33,37,.25a6.76,6.76,0,0,0,3.85-4.84,7.67,7.67,0,0,0-1.08-4.55,15.77,15.77,0,0,0-11.23-8c-1.88-.31-3.8-.26-5.68-.55-3-.45-5.84-1.71-8.81-2.36s-6.35-.57-8.71,1.35A16.46,16.46,0,0,0,179.37,212.42Z" fill="#231f20"/></g></svg>