<svg xmlns="http://www.w3.org/2000/svg" viewBox="0 0 400 300"><g id="_143_super_woman_flatline" data-name="#143_super_woman_flatline"><path d="M157.72,119S83.79,211.57,35.91,222.49c0,0,47.58-2.05,71.09,16.67s49.25,17.64,77.4,22.92,50.83-5.28,77.41-13.89,78.52-25.21,102.28-9c-56.11-56-94.92-125.94-94.92-125.94Z" fill="#68e1fd"/><path d="M259.26,267.53S149.59,270,149.07,270c-.91,0,9.14-27.29,9.14-27.29l86-7.34Z" fill="#fff"/><path d="M149.08,270.52a.62.62,0,0,1-.45-.23c-.2-.27-.72-1,9.11-27.73a.51.51,0,0,1,.43-.33l86-7.34a.48.48,0,0,1,.49.29l15.09,32.14a.5.5,0,0,1-.45.71c-1.09,0-109.28,2.45-110.17,2.49Zm9.49-27.32c-3.37,9.19-8.48,23.56-9,26.3,7.66-.19,98.79-2.22,108.92-2.45l-14.6-31.13Z" fill="#231f20"/><path d="M241.76,117.79c4.25-2.83,17.64-1.25,20.52-5.43,10.4-15.09-14.06-31.91-13.72-47.83.35-16.53-7-27.86-20.31-23,.46-.16-6.54-11.49-8.8-11.9-4.89-.89-12.39.35-16.33,3.17-8.77,6.29-10.38,19.42-19.94,24.54-7.7,4.13-19.43,1.09-24,8.53-2.68,4.37-1.42,10.79-5.22,14.24a30.5,30.5,0,0,1-4.08,2.57c-5.4,3.48-7.12,11-5.35,17.16S150.83,111,155.8,115.1c23.38,19.2,55.42,20.15,80.95,5.75C238.45,119.89,240.13,118.88,241.76,117.79Z" fill="#fff"/><path d="M199.8,131.23a69.53,69.53,0,0,1-44.32-15.74c-6.17-5.07-9.91-10.13-11.44-15.5-1.7-5.93-.33-13.92,5.56-17.72.49-.32,1-.61,1.52-.89a12.82,12.82,0,0,0,2.5-1.63c2-1.83,2.52-4.58,3.06-7.5a18.8,18.8,0,0,1,2.07-6.63c2.86-4.65,8.44-5.39,13.84-6.11,3.6-.48,7.33-1,10.35-2.6,4.95-2.65,7.68-7.44,10.57-12.51,2.52-4.42,5.12-9,9.32-12,3.86-2.77,11.35-4.23,16.71-3.26,2.3.41,7.94,9.29,9,11.75,4.84-1.65,9.19-1.23,12.63,1.22,5.21,3.73,8.07,11.9,7.85,22.42-.14,6.5,4.06,13.34,8.13,20,5.78,9.39,11.75,19.09,5.51,28.14-1.75,2.54-6.79,3.08-11.67,3.61-3.55.39-7.23.78-9,2h0c-1.53,1-3.18,2-5,3.07A75.74,75.74,0,0,1,199.8,131.23ZM216.05,29.86c-4.29,0-9.53,1.13-12.64,3.36-4,2.88-6.57,7.35-9,11.67-2.83,5-5.76,10.12-11,12.9-3.19,1.71-7,2.22-10.7,2.71-5.41.72-10.51,1.4-13.12,5.64a18.33,18.33,0,0,0-1.94,6.29c-.54,2.95-1.1,6-3.37,8.06a13.44,13.44,0,0,1-2.69,1.77c-.49.27-1,.54-1.46.85-5.48,3.54-6.73,11-5.14,16.61,1.47,5.16,5.11,10.07,11.12,15,22.39,18.38,53.94,20.61,80.38,5.69,1.85-1,3.48-2,5-3h0c2-1.32,5.6-1.71,9.45-2.12,4.65-.51,9.45-1,10.94-3.19,5.87-8.51.34-17.51-5.53-27-4.14-6.74-8.43-13.71-8.28-20.5.21-10.19-2.5-18.06-7.44-21.58-3.31-2.37-7.41-2.68-12.19-.93h0a.49.49,0,0,1-.64-.29.55.55,0,0,1,0-.25c-.45-1.42-6.65-11-8.4-11.34A18.63,18.63,0,0,0,216.05,29.86Zm25.71,87.93h0ZM228,41.09Zm0,0Zm0,0h0Zm0,0Zm0,0Zm0,0Zm0,0Zm0,0Z" fill="#231f20"/><path d="M330.4,79.43H304.83l13.95,39.3-17.31,2.93-3,33.27s52.77-6.55,54.89-22.33C355.71,115.23,341.38,93.56,330.4,79.43Z" fill="#fff"/><path d="M298.48,155.43a.5.5,0,0,1-.35-.14.49.49,0,0,1-.15-.41l3-33.27a.49.49,0,0,1,.42-.44l16.73-2.83L304.36,79.59a.51.51,0,0,1,.06-.45.52.52,0,0,1,.41-.21H330.4a.51.51,0,0,1,.4.19c17.12,22,24.89,40.05,23.07,53.55-2.16,16-53.16,22.48-55.33,22.75Zm3.46-33.34L299,154.35c5.89-.8,51.92-7.5,53.85-21.82,1.77-13.18-5.87-30.87-22.72-52.6H305.54l13.72,38.63a.51.51,0,0,1,0,.42.5.5,0,0,1-.35.24Z" fill="#231f20"/><path d="M95.83,122.13l13.52-41H80.71c-14.59,20.8-36.11,52.79-33.94,61.22,3,11.76,78.57,16.23,78.57,16.23l-13.61-37.23Z" fill="#fff"/><path d="M125.34,159.05h0c-.19,0-19.13-1.14-38.19-3.7-25.79-3.47-39.53-7.8-40.84-12.9-1.66-6.46,9.47-26.62,34-61.62a.49.49,0,0,1,.41-.22h28.64a.52.52,0,0,1,.41.21.52.52,0,0,1,.07.45L96.54,121.6l15.16-.78a.49.49,0,0,1,.5.32l13.61,37.23a.51.51,0,0,1-.47.68ZM81,81.6C57,115.75,45.69,136.13,47.25,142.2c.82,3.2,8.43,7.91,40,12.14,16.86,2.27,33.63,3.42,37.36,3.66l-13.22-36.17-15.53.8a.47.47,0,0,1-.42-.19.48.48,0,0,1-.08-.46l13.3-40.38Z" fill="#231f20"/><path d="M110.23,120.46l58.07-7.29c19-4.79,20.12-5,24.93-4.43,52,5.74,114.35,8.91,111.86,8.62l4.33,46.58-43.76,9.67c-14.71,44-21.48,61.78-21.48,61.78l-85.26,1.87s-9.73-39.94-12.67-66.25L111,168.88Z" fill="#fff"/><path d="M158.92,237.76a.49.49,0,0,1-.48-.38c-.1-.4-9.67-39.85-12.64-65.89l-34.88-2.11a.5.5,0,0,1-.47-.49l-.72-48.42a.49.49,0,0,1,.43-.5l58.08-7.29c18.92-4.78,20.1-5,25-4.44,50,5.53,108.22,8.55,111.67,8.63a.61.61,0,0,1,.19,0,.57.57,0,0,1,.51.57.8.8,0,0,1,0,.18l4.3,46.28a.52.52,0,0,1-.39.54L266.05,174c-14.49,43.36-21.33,61.35-21.4,61.53a.49.49,0,0,1-.46.32l-85.26,1.87Zm-47.47-69.35,34.83,2.1a.51.51,0,0,1,.47.45c2.75,24.58,11.55,61.59,12.57,65.79l84.51-1.85c1-2.57,7.86-21,21.36-61.45a.48.48,0,0,1,.36-.33l43.33-9.57-4.25-45.72c-1.21,0-3.88-.12-9.82-.45-4.59-.26-14.13-.81-26.54-1.66-19.52-1.33-48.39-3.53-75.09-6.49-4.78-.53-5.94-.32-24.76,4.43l-57.69,7.24Z" fill="#231f20"/><path d="M163.14,111.41s27.79,41.14,56.69,40.77,49.34-39,49.34-39-69-9-83.78-6.63S163.14,111.41,163.14,111.41Z" fill="#68e1fd"/><path d="M233.18,109.38l-.31,20.5s-5,11.22-18.35,7.61-14.86-13.29-14.86-13.29L201,80.88s1.26-31,23.95-20.46c0,0,13.44-3.91,18.43,5.16,0,0,3.47,20,1.88,30.45C243.72,106.13,233.36,109.23,233.18,109.38Z" fill="#fff"/><path d="M219.58,138.7a19.85,19.85,0,0,1-5.19-.73c-13.52-3.66-15.21-13.59-15.23-13.69l1.34-43.42c0-.65.75-16.06,9.46-21.38,4-2.45,9.08-2.31,15,.41,1.67-.43,14-3.27,18.83,5.45a.75.75,0,0,1,.05.16c.14.82,3.47,20.21,1.88,30.6-1.3,8.58-8.81,12.36-12.08,13.62l-.3,20.17a.41.41,0,0,1-.05.19C233.28,130.19,229.37,138.7,219.58,138.7Zm-3.21-80a11,11,0,0,0-5.89,1.6c-8.26,5-9,20.41-9,20.56l-1.34,43.32s1.62,9.3,14.49,12.79c12.3,3.32,17.19-6.14,17.72-7.24l.31-20.4a.49.49,0,0,1,.19-.39,1.43,1.43,0,0,1,.36-.16c3.06-1.16,10.29-4.74,11.54-12.87,1.51-9.89-1.63-28.79-1.87-30.2-4.76-8.51-17.68-4.89-17.81-4.85a.53.53,0,0,1-.35,0A20.16,20.16,0,0,0,216.37,58.74Zm16.5,71.14h0Z" fill="#231f20"/><path d="M204.24,82.3c-.7-3.23-3.27-5.46-6.17-6.87a7.37,7.37,0,0,0-6.18-.38c-2.58,1.17-3.87,4.27-3.67,7.1A12,12,0,0,0,195,92.24a10.79,10.79,0,0,0,8.22.05" fill="#fff"/><path d="M199.2,93.59a11.2,11.2,0,0,1-4.37-.89,12.47,12.47,0,0,1-7.11-10.52c-.24-3.3,1.39-6.42,4-7.59a7.8,7.8,0,0,1,6.6.39c2.48,1.21,5.62,3.44,6.44,7.21a.5.5,0,1,1-1,.21c-.74-3.38-3.61-5.41-5.9-6.52a6.84,6.84,0,0,0-5.75-.38c-2.57,1.17-3.55,4.25-3.38,6.61a11.45,11.45,0,0,0,6.5,9.67,10.2,10.2,0,0,0,7.84,0,.5.5,0,0,1,.65.27.49.49,0,0,1-.27.65A11.09,11.09,0,0,1,199.2,93.59Z" fill="#231f20"/><path d="M222.52,72.63S229.66,83.1,228,84.94s-6.36.68-6.36.68" fill="#fff"/><path d="M224.67,86.48a14.31,14.31,0,0,1-3.15-.38.48.48,0,0,1-.36-.6.5.5,0,0,1,.6-.37c1.23.31,4.68.81,5.87-.52.87-1-2.19-6.82-5.52-11.7a.49.49,0,0,1,.13-.69.51.51,0,0,1,.7.13c1.72,2.53,7.22,11,5.44,12.93A5,5,0,0,1,224.67,86.48Z" fill="#231f20"/><path d="M233.18,109.38s-12.81,2.76-20.26-1.65c0,0,8.06,17.32,20,15.7Z" fill="#231f20"/><path d="M231.36,124c-11.27,0-18.58-15.42-18.9-16.1a.5.5,0,0,1,.12-.58.5.5,0,0,1,.59-.06c7.2,4.26,19.77,1.62,19.9,1.59a.53.53,0,0,1,.42.1.51.51,0,0,1,.19.4l-.22,14a.5.5,0,0,1-.43.49A11.91,11.91,0,0,1,231.36,124Zm-17.28-15.15c2.17,4,9.08,15,18.39,14.1l.2-13C230.17,110.45,220.76,111.9,214.08,108.89Z" fill="#231f20"/><path d="M224.68,102.88a4.8,4.8,0,0,1-.91-.08c-6.56-1.07-6.05-11.41-6-11.85a.52.52,0,0,1,.19-.36.48.48,0,0,1,.4-.1l11.46,2.1a.48.48,0,0,1,.41.48c0,.25.14,6.29-2.69,8.76A4.17,4.17,0,0,1,224.68,102.88Zm-6-11.3c0,2.11.33,9.44,5.21,10.24a3.35,3.35,0,0,0,2.91-.74c2.1-1.83,2.33-6.23,2.35-7.58Z" fill="#231f20"/><path d="M153.62,233.61l0,15.34s97.31-6.67,97.37-7.89-1.41-11.7-1.41-11.7Z" fill="#231f20"/><path d="M153.58,249.45a.51.51,0,0,1-.34-.13.52.52,0,0,1-.16-.37l0-15.34a.51.51,0,0,1,.48-.5l95.92-4.25a.48.48,0,0,1,.52.43c.15,1.08,1.47,10.56,1.41,11.79,0,.7-.06,1.21-49.17,4.88-24.06,1.8-48.42,3.47-48.67,3.49Zm.54-15.36,0,14.33c26-1.79,91.47-6.48,96.36-7.69-.08-1.64-.92-7.91-1.33-10.85Z" fill="#231f20"/><ellipse cx="222.07" cy="237.26" rx="18.4" ry="12.87" transform="translate(-14.92 14.9) rotate(-3.72)" fill="#231f20"/><path d="M221.17,250.66a22.74,22.74,0,0,1-11.75-3c-3.77-2.28-6-5.52-6.21-9.12-.47-7.36,7.6-13.89,18-14.57s19.25,4.76,19.72,12.12h0c.48,7.35-7.59,13.89-18,14.56Q222.06,250.66,221.17,250.66Zm1.79-25.8c-.56,0-1.12,0-1.69.06-9.85.64-17.5,6.7-17.06,13.5.21,3.27,2.25,6.23,5.73,8.34a22.34,22.34,0,0,0,12.94,2.85c9.84-.64,17.5-6.7,17.05-13.51h0C239.52,229.69,232.06,224.86,223,224.86Z" fill="#231f20"/><path d="M83.07,132.43c1.67,1.1,10.57-3.2,12.76-10.3" fill="#fff"/><path d="M83.82,133.1a1.76,1.76,0,0,1-1-.26.49.49,0,0,1-.14-.69.5.5,0,0,1,.69-.14c.18.12.86.2,2.23-.3,3.06-1.09,8.19-4.59,9.77-9.72a.49.49,0,0,1,.63-.33.5.5,0,0,1,.33.62c-1.69,5.49-7.15,9.21-10.4,10.38A6.78,6.78,0,0,1,83.82,133.1Z" fill="#231f20"/><path d="M211.45,213.14c-19.15,0-34.73-11.83-34.73-26.38s15.58-26.38,34.73-26.38,34.73,11.83,34.73,26.38S230.6,213.14,211.45,213.14Zm0-51.76c-18.6,0-33.73,11.39-33.73,25.38s15.13,25.38,33.73,25.38,33.73-11.39,33.73-25.38S230.05,161.38,211.45,161.38Z" fill="#d1d3d4"/><path d="M317.25,119.49a.49.49,0,0,1-.5-.45.5.5,0,0,1,.45-.55c.35,0,8.6-.86,12.51-.71a.5.5,0,0,1,.48.52.47.47,0,0,1-.52.48c-3.83-.15-12.29.7-12.37.71Z" fill="#231f20"/><path d="M79.64,81.76,107,88.87l6.43-18.37a20.49,20.49,0,0,0,9-2.75A27.14,27.14,0,0,0,129.14,62s2.52,2.63,4.56,1.32S134,54.79,131,50.26s-5.21-6.25-8-7.2-5.83-3.19-10,0S99.4,54.24,94.27,60.77,79.64,81.76,79.64,81.76Z" fill="#231f20"/><path d="M107,89.37l-.12,0L79.52,82.24a.47.47,0,0,1-.34-.3.51.51,0,0,1,0-.45c.1-.15,9.58-14.55,14.66-21S108.47,46,112.75,42.67c3.67-2.83,6.64-1.61,9-.63.48.2,1,.39,1.41.55,3.18,1.08,5.42,3.08,8.26,7.4,2.5,3.8,4.11,9.35,3.52,12.11a2.5,2.5,0,0,1-1,1.65c-1.85,1.18-3.92-.28-4.78-1a28.25,28.25,0,0,1-6.45,5.46,21,21,0,0,1-8.95,2.8l-6.31,18A.51.51,0,0,1,107,89.37ZM80.44,81.45l26.24,6.82L113,70.33a.51.51,0,0,1,.45-.33,20.17,20.17,0,0,0,8.8-2.67,26.83,26.83,0,0,0,6.53-5.64.54.54,0,0,1,.37-.19.51.51,0,0,1,.39.15s2.27,2.32,3.93,1.25a1.58,1.58,0,0,0,.56-1c.53-2.5-1-7.81-3.38-11.35-3.08-4.69-5.25-6.16-7.74-7-.48-.17-1-.37-1.47-.57-2.37-1-4.82-2-8,.49-4.25,3.27-13.62,11.16-18.69,17.62C90.19,66.78,82.28,78.68,80.44,81.45Z" fill="#231f20"/><path d="M308.34,91.67c-.36-.54-6.2-19-6.2-19S290.63,70,290.33,67s3.32-8.76,3.32-8.76-3.2-4.51-3.34-7.23,16.48-10.4,19.11-9.2,13.06,26.77,13.06,26.77l12.19,13.18Z" fill="#231f20"/><path d="M308.34,92.17a.51.51,0,0,1-.42-.22c-.36-.55-4.7-14.25-6.17-18.89-2.49-.59-11.61-2.93-11.92-6-.28-2.79,2.48-7.57,3.22-8.8-.71-1-3.12-4.75-3.24-7.21,0-.55.25-1.48,2.91-3.28,4.7-3.17,14.62-7.45,16.91-6.4,2.65,1.22,11.45,22.46,13.28,27L335,81.42a.51.51,0,0,1,.12.46.52.52,0,0,1-.31.35l-26.34,9.91A.47.47,0,0,1,308.34,92.17Zm.28-50c-2.62,0-10.83,3.37-15.34,6.42-2.43,1.64-2.47,2.33-2.47,2.4.13,2.54,3.22,6.91,3.25,7a.5.5,0,0,1,0,.55c0,.06-3.52,5.64-3.24,8.45.19,1.94,7.11,4.21,11.42,5.2a.46.46,0,0,1,.37.33c2.09,6.64,5.22,16.43,6,18.55l25.19-9.48L322.11,68.92a.46.46,0,0,1-.09-.15c-4-9.81-11-25.68-12.81-26.5A1.53,1.53,0,0,0,308.62,42.17Z" fill="#231f20"/><path d="M308.34,66.08a.49.49,0,0,1-.49-.39A2.63,2.63,0,0,0,306.61,64c-2.41-1.47-7.14-.27-7.19-.26a.5.5,0,0,1-.57-.25.51.51,0,0,1,.12-.61c1.57-1.34,5.6-5.33,5.47-7.67,0-.2-.08-.26-.15-.3-1.25-.68-6.83,1.81-10.4,3.8a.5.5,0,1,1-.48-.88c1.51-.84,9.18-5,11.36-3.79a1.27,1.27,0,0,1,.67,1.11c.13,2.37-2.77,5.58-4.52,7.29,1.75-.24,4.44-.38,6.21.71a3.58,3.58,0,0,1,1.7,2.35.5.5,0,0,1-.38.6Z" fill="#fff"/><path d="M248.87,70.32l-52.48-1S206.71,80.93,216.2,80c7.54-.72,9.55-4.23,9.55-4.23s4.32,6.65,12.06,4.23S248.87,70.32,248.87,70.32Z" fill="#231f20"/><path d="M234.51,81.05a11.61,11.61,0,0,1-8.76-4.42c-.94,1.08-3.58,3.33-9.51,3.9-9.63.91-19.8-10.4-20.22-10.88a.49.49,0,0,1-.08-.55.5.5,0,0,1,.45-.29h0l52.48,1a.5.5,0,0,1,.45.71c-.14.3-3.5,7.52-11.37,10A11.63,11.63,0,0,1,234.51,81.05Zm-8.76-5.75a.49.49,0,0,1,.42.23c.17.25,4.22,6.3,11.49,4,6.05-1.89,9.35-6.9,10.39-8.75l-50.48-1c2.6,2.63,11,10.41,18.58,9.69,7.14-.68,9.15-4,9.17-4a.48.48,0,0,1,.42-.25Z" fill="#231f20"/></g></svg>