<svg xmlns="http://www.w3.org/2000/svg" viewBox="0 0 400 300"><g id="_45_swimming" data-name="#45_swimming"><path d="M177.13,185.16s-25,2.14-35.85,2.6S106,172.91,101.64,171.07s-16.77-7.2-20.89-7.81c-4.39-.65-13.84-1.43-15.57-6.79-1.23-3.79,3.16-4,5.48-4.39,4.55-.77,16.2-1.07,17.62,0s2.56,3.06,3.27,3.52,38.51,8.3,42.06,9.59,33,0,33,0Z" fill="#fff"/><path d="M140.81,188.29c-8.59,0-24.79-8.88-33.57-13.7-2.69-1.47-4.81-2.63-5.8-3.05l-1.85-.77c-5.36-2.26-15.34-6.47-18.92-7l-1.32-.19c-4.86-.66-13-1.77-14.67-7a3.31,3.31,0,0,1,.17-2.84c.94-1.51,3.28-1.85,5-2.11l.73-.11c4-.67,16.28-1.22,18,.1a13.35,13.35,0,0,1,2.2,2.33,7.06,7.06,0,0,0,1,1.17c.53.21,8.37,1.92,16,3.57,11.23,2.45,24,5.22,26,6,2.73,1,22.63.42,32.76,0a.52.52,0,0,1,.48.28l10.56,20a.5.5,0,0,1,0,.49.52.52,0,0,1-.41.27c-.25,0-25.18,2.15-35.87,2.61ZM81.59,151.9a76,76,0,0,0-10.84.69l-.76.11c-1.51.23-3.58.53-4.26,1.63a2.3,2.3,0,0,0-.06,2c1.47,4.56,9.2,5.62,13.82,6.25l1.34.19c3.7.55,13.76,4.79,19.16,7.07l1.85.77c1,.44,3.08,1.55,5.9,3.1,8.7,4.77,24.75,13.57,33.05,13.57h.47c9.6-.41,30.74-2.18,35.05-2.54l-10-19c-3.39.14-29.39,1.2-32.84-.05-2-.71-15.22-3.6-25.86-5.92-12.52-2.73-16-3.5-16.3-3.72A6.66,6.66,0,0,1,90,154.64a12.09,12.09,0,0,0-2-2.15C87.42,152.08,84.77,151.9,81.59,151.9Z" fill="#231f20"/><path d="M156.26,155S137,171,132.68,172s-43.87,12.22-48.94,10.78-7.31-2.1-9.25-.81-11.19,6.91-14.62,8.85c-2.73,1.53-4.52,2.39-4.79,5.93a5.57,5.57,0,0,0,.38,3.1c1.07,1.87,6.31-.88,8.14-1C69,198.54,83.29,194,83.29,194s53.42-1.93,62.38-3.54,23-10.27,23-10.27" fill="#fff"/><path d="M56.93,201a2,2,0,0,1-1.92-.91,6,6,0,0,1-.44-3.4c.27-3.67,2.14-4.72,4.72-6.16l.32-.18c3.54-2,12.71-7.58,14.59-8.83,2.14-1.41,4.49-.74,9.64.73,3.94,1.12,30.74-6,42.18-9.07,3.28-.87,5.65-1.5,6.55-1.7,3.33-.74,16.73-11.41,23.36-16.94a.51.51,0,1,1,.66.79c-.79.66-19.4,16.17-23.79,17.15-.88.2-3.25.83-6.51,1.7-20,5.33-39,10.11-42.69,9.07-5-1.43-7.09-2-8.83-.87s-11.1,6.87-14.65,8.87l-.32.18c-2.56,1.43-4,2.22-4.2,5.33a5,5,0,0,0,.31,2.82c.52.9,3.2,0,5-.56a13.11,13.11,0,0,1,2.67-.7c5.25-.31,19.44-4.75,19.58-4.8l.13,0c.54,0,53.49-2,62.3-3.53s22.69-10.12,22.83-10.21a.52.52,0,0,1,.71.17.51.51,0,0,1-.17.71c-.57.35-14.24,8.74-23.18,10.34s-59.36,3.44-62.38,3.55c-1.19.37-14.51,4.51-19.75,4.82a12.92,12.92,0,0,0-2.42.66A15.78,15.78,0,0,1,56.93,201Z" fill="#231f20"/><path d="M262.43,153c6.69,1,75.16,35.54,78.22,37.14s14.15,7.08,18,10.46,2.25,5.63,1.44,6.11-4.18-3.06-6.91-4.34-9.65-1.93-9.65-1.93,1.93,5.3.64,6.59-1.77-.64-3.21-2.25-2.9-6.27-4.67-7.4-75.69-21.82-75.69-21.82c-13,6.11-58,4.94-58,4.94C194.28,168.46,186.42,142,186.42,142s5.47.87,16.4-.65,28.79-7.48,28.79-7.48c-7.61-8.88-11.26-23.21-11.26-23.21-3,7.72-19.4,22.3-23.8,24.89s-16.94,3.63-20.15,2.87-4.61-1.39-4.72-2.87,6.43-.45,6.43-.45-6.32-.75-8-2.14-1.18-2.25-.75-3,9,1.61,9,1.61a20.91,20.91,0,0,1-5.26-1.82c-2-1.18-2.68-4-1.5-4.18s7.72,2.89,7.72,2.89a23,23,0,0,1-4.39-2.78,1.67,1.67,0,0,1,.85-2.9c1.18-.21,4.4,2.15,5.69,2.9s9.75-.75,9.75-.75,23.59-35.6,32.17-32.17,36.44,46.63,36.44,46.63" fill="#fff"/><path d="M343.41,208h-.11c-.71-.06-1.18-.74-1.72-1.53a13.44,13.44,0,0,0-1-1.31,16.14,16.14,0,0,1-1.93-3.29c-.81-1.61-1.72-3.44-2.62-4-1.74-1-54.81-16-75.37-21.71-13.16,6-56.19,5-58,4.91a.52.52,0,0,1-.41-.22c-8.32-12-16.23-38.4-16.3-38.67a.52.52,0,0,1,.1-.48.5.5,0,0,1,.47-.17c.06,0,5.54.84,16.25-.65,9.53-1.33,24.53-6.1,28-7.23-5.93-7.24-9.39-17.74-10.49-21.46-4.17,8-19.14,21.31-23.42,23.85-4.47,2.64-17.21,3.71-20.54,2.93s-5-1.5-5.12-3.34a1,1,0,0,1,.33-.79,1.63,1.63,0,0,1,.67-.34,7.55,7.55,0,0,1-2.41-1.1c-2-1.65-1.35-2.84-.9-3.62.15-.26.38-.67,3.08-.22a4.25,4.25,0,0,1-1.43-3.4,1.22,1.22,0,0,1,1-1.07,7.78,7.78,0,0,1,2.79.67,2.1,2.1,0,0,1-.36-1.91,2.29,2.29,0,0,1,1.75-1.55c1-.18,2.78.87,5,2.28.43.27.8.52,1.09.68.69.4,5.17-.07,9.18-.77,2.06-3.08,24-35.64,32.67-32.18s35.54,45.06,36.68,46.83a.51.51,0,0,1-.86.56c-.28-.43-27.88-43.1-36.21-46.43-6.72-2.69-25,22.17-31.54,32a.49.49,0,0,1-.34.22c-2,.36-8.76,1.48-10.1.69-.3-.17-.69-.42-1.13-.71-1.13-.73-3.49-2.26-4.21-2.12a1.28,1.28,0,0,0-1,.84,1.15,1.15,0,0,0,.37,1.18,22.82,22.82,0,0,0,4.26,2.69.52.52,0,0,1-.45.93c-3.07-1.46-6.78-3-7.4-2.85,0,0-.12,0-.15.23a3.54,3.54,0,0,0,1.81,3,14.46,14.46,0,0,0,2.68,1.13c.74.18,1.55.4,2.45.65a.51.51,0,0,1,.37.61.52.52,0,0,1-.61.39c-.07,0-1.11-.23-2.37-.62a29.4,29.4,0,0,0-6.15-1.12c-.38.68-.58,1.19.7,2.23,1.07.87,4.46,1.54,6.59,1.87l1.2.16a.51.51,0,0,1-.14,1l-1.21-.16c-2.33-.27-4.38-.24-4.66.12.09,1,1.14,1.61,4.33,2.35s15.58-.33,19.78-2.81S217,118,219.87,110.48a.51.51,0,0,1,1,.06c0,.14,3.71,14.32,11.15,23a.55.55,0,0,1,.11.48.54.54,0,0,1-.34.35c-.18.06-18,6-28.87,7.5a68.91,68.91,0,0,1-15.76.74c1.35,4.37,8.4,26.6,15.79,37.4,3.71.09,45.25.85,57.46-4.89a.51.51,0,0,1,.36,0c7.58,2.13,74.05,20.75,75.83,21.89,1.14.72,2.08,2.6,3,4.42a15.79,15.79,0,0,0,1.78,3.06,13.14,13.14,0,0,1,1.07,1.41c.35.5.75,1.07,1,1.09a.82.82,0,0,0,.43-.26c.72-.73,0-4-.77-6.06a.54.54,0,0,1,.08-.49.51.51,0,0,1,.46-.2c.28,0,7,.67,9.82,2a24.87,24.87,0,0,1,4,2.66,10.68,10.68,0,0,0,2.53,1.68,2,2,0,0,0,.69-1.36c.07-.8-.27-2.13-2.29-3.89-3.27-2.86-12-7.33-16.16-9.48l-1.75-.91c-3.23-1.69-71.52-36.14-78.05-37.09a.53.53,0,0,1-.44-.59.51.51,0,0,1,.59-.43c6.79,1,75,35.43,78.38,37.2l1.74.9c4.22,2.17,13,6.68,16.37,9.62,2.34,2.05,2.73,3.73,2.63,4.77a2.85,2.85,0,0,1-1.26,2.17c-.73.44-1.81-.39-3.61-1.77a24,24,0,0,0-3.79-2.55c-2.08-1-6.8-1.58-8.68-1.8.54,1.69,1.46,5.17.26,6.37A1.66,1.66,0,0,1,343.41,208Z" fill="#231f20"/><path d="M252.37,163.1a14.05,14.05,0,0,0,7.38.9,3.77,3.77,0,0,0,2.37-1.18,4.48,4.48,0,0,0,.73-2,9.18,9.18,0,0,0,.17-4.35c-.68-2.41-3.15-3.84-5.52-4.66-3.17-1.1-10.51-3.43-11.86,1.23S248.63,161.67,252.37,163.1Z" fill="#231f20"/><path d="M257.75,164.67a15.53,15.53,0,0,1-5.55-1.11h0c-3.78-1.43-8.46-5.68-7-10.61a3.91,3.91,0,0,1,2-2.53c2.78-1.44,7.3-.14,10.46,1s5.23,2.84,5.84,5a9.71,9.71,0,0,1-.16,4.57,4.83,4.83,0,0,1-.83,2.18,4.18,4.18,0,0,1-2.67,1.36A12,12,0,0,1,257.75,164.67Zm-5.2-2a13.51,13.51,0,0,0,7.11.88,3.26,3.26,0,0,0,2.07-1,4.19,4.19,0,0,0,.64-1.75,8.93,8.93,0,0,0,.18-4.11c-.66-2.31-3.2-3.63-5.22-4.33-1.72-.6-7-2.43-9.67-1a3,3,0,0,0-1.54,1.92C244.87,157.55,249.13,161.33,252.55,162.63Z" fill="#231f20"/><path d="M263.91,162.68c.73,0,1.47.09,2.22.2a96.27,96.27,0,0,0,10.6.87c1.21,0,2.3-9.09,2.35-9.86a27.57,27.57,0,0,0-1.05-9.73c-.8-2.68-2.47-8.61-5.93-8.17-4,.51-8,1-12,1.7-3.52.6-7.08,1.72-9.74,4.11a12.44,12.44,0,0,0-4,10.25c.46,3.91,3.77,6.73,7,8.64C256.93,162.86,260.26,162.5,263.91,162.68Z" fill="#fff"/><path d="M276.73,164.27h0a99.62,99.62,0,0,1-10.66-.88c-.66-.09-1.35-.15-2.18-.19h0l-1.86-.06c-3-.08-5.87-.15-9-2-4.38-2.63-6.8-5.67-7.2-9A12.86,12.86,0,0,1,250,141.42c2.33-2.1,5.6-3.48,10-4.23,3.85-.66,7.71-1.17,12-1.71,3.79-.48,5.58,5.46,6.43,8.31l.06.22a28.16,28.16,0,0,1,1.08,9.91C279.59,154,278.69,164.27,276.73,164.27Zm0-1h0Zm-4.3-26.75h-.29c-4.28.55-8.13,1.05-12,1.7-4.19.72-7.29,2-9.47,4a11.77,11.77,0,0,0-3.85,9.8c.35,3,2.61,5.8,6.7,8.26,2.87,1.72,5.59,1.78,8.46,1.85.62,0,1.25,0,1.9.07h0c.85,0,1.57.1,2.26.2a98.27,98.27,0,0,0,10.45.86c.79-.8,1.81-7.72,1.92-9.38a27,27,0,0,0-1-9.54l-.07-.22C276.72,141.59,275.2,136.49,272.45,136.49Z" fill="#231f20"/><path d="M264.14,158.67a4.78,4.78,0,0,1,2.7,1.33,8.23,8.23,0,0,1,1.54,2.39,3.34,3.34,0,0,1,.44,1.49,2.85,2.85,0,0,1-.26,1.07,3.66,3.66,0,0,1-1.64,1.94,4.32,4.32,0,0,1-2.05.32,8.63,8.63,0,0,1-2.26-.32,5.76,5.76,0,0,1-3.8-7.25" fill="#fff"/><path d="M265.19,167.73h-.33a8.6,8.6,0,0,1-2.4-.34,6.26,6.26,0,0,1-4.14-7.9.51.51,0,0,1,1,.31,5.24,5.24,0,0,0,3.46,6.61,8.21,8.21,0,0,0,2.12.29,4,4,0,0,0,1.82-.26,3.22,3.22,0,0,0,1.38-1.68,2.16,2.16,0,0,0,.23-.87,3.09,3.09,0,0,0-.39-1.27,8,8,0,0,0-1.44-2.25,4.24,4.24,0,0,0-2.4-1.18.52.52,0,0,1-.45-.58.52.52,0,0,1,.58-.44,5.21,5.21,0,0,1,3,1.47,8.63,8.63,0,0,1,1.65,2.54,3.89,3.89,0,0,1,.49,1.72,3.65,3.65,0,0,1-.3,1.26,4.11,4.11,0,0,1-1.89,2.2A4.39,4.39,0,0,1,265.19,167.73Z" fill="#231f20"/><path d="M266,146.12s-5.94-3.38-6.86-2.41-.09,3.45-.09,3.45" fill="#fff"/><path d="M259,147.66a.49.49,0,0,1-.47-.34c-.1-.28-.9-2.8.19-4s5.13,1,7.48,2.33a.49.49,0,0,1,.18.68.5.5,0,0,1-.68.19c-2.84-1.62-5.77-2.79-6.26-2.5-.51.54-.25,2.09,0,2.94a.51.51,0,0,1-.32.63A.41.41,0,0,1,259,147.66Z" fill="#231f20"/><path d="M255,152.76a.49.49,0,0,1-.4-.21c-3.88-5.22-2.1-8-2-8.13a.5.5,0,1,1,.83.55c0,.05-1.4,2.41,2,7a.5.5,0,0,1-.1.7A.54.54,0,0,1,255,152.76Z" fill="#231f20"/><ellipse cx="265.96" cy="139.97" rx="3.92" ry="5.35" transform="translate(-19.84 47) rotate(-9.74)" fill="#231f20"/><ellipse cx="267.65" cy="151.38" rx="3.92" ry="5.35" transform="matrix(0.99, -0.17, 0.17, 0.99, -21.75, 47.45)" fill="#231f20"/><path d="M270,135.29a24.65,24.65,0,0,1,5.15,15.54C274.9,156,268.56,165,268.56,165s11.31,2,18.31-6.28c5.29-6.27,3.54-18.87-5.22-21.85A26.39,26.39,0,0,0,270,135.29Z" fill="#68e1fd"/><path d="M199.12,140.8c.26-.43-15.76-1.45-25.41,2.41s-19,11.74-19,11.74,7.13,24.77,10.66,27.19l4.62-2.26a9.14,9.14,0,0,0,4,7.88l28.62-7.24S194.77,147.88,199.12,140.8Z" fill="#68e1fd"/><line x1="267.65" y1="156.66" x2="268.38" y2="162.39" fill="#fff"/><path d="M268.38,162.89a.5.5,0,0,1-.49-.43l-.73-5.73a.49.49,0,0,1,.43-.56.51.51,0,0,1,.56.43l.73,5.73a.5.5,0,0,1-.43.56Z" fill="#231f20"/><path d="M170,180.4a.52.52,0,0,1-.12-1c.15,0,15.74-3.75,21-5.69a.51.51,0,0,1,.66.31.52.52,0,0,1-.3.66c-5.32,2-20.48,5.57-21.12,5.72Z" fill="#231f20"/><path d="M159,157.74a.51.51,0,0,1-.44-.24.52.52,0,0,1,.17-.71c.73-.46,18.14-11.1,32.41-10a.52.52,0,0,1-.08,1c-13.93-1.11-31.61,9.71-31.79,9.82A.52.52,0,0,1,159,157.74Z" fill="#fff"/><path d="M260.61,176.1a.52.52,0,0,1-.49-.37.51.51,0,0,1,.34-.64,29,29,0,0,0,11.06-5.88.51.51,0,0,1,.73,0,.53.53,0,0,1,0,.73,29.55,29.55,0,0,1-11.48,6.13Z" fill="#231f20"/><path d="M236.54,140.49a.47.47,0,0,1-.28-.09c-1.32-.86-4.69-5.68-5.07-6.23a.51.51,0,1,1,.84-.59c1,1.44,3.82,5.32,4.79,6a.52.52,0,0,1,.15.72A.51.51,0,0,1,236.54,140.49Z" fill="#231f20"/><path d="M282.4,171.38c-6.38,0-12.77-2.76-17.53-5.17l-.59-.3c-3.21-1.64-6.52-3.33-10-3.35h-.07c-3.57,0-6.93,1.71-10.18,3.37s-6.82,3.46-10.61,3.46h-.23c-4.9-.1-9-3.1-12.86-6-3.45-2.56-7-5.22-11.15-5.81-3.6-.52-7.06.55-10.73,1.68a32.88,32.88,0,0,1-9,1.88c-5.19.07-9.95-2.21-14.6-4.44-5.37-2.56-10.44-5-15.91-4a28.24,28.24,0,0,0-6.54,2.33c-3,1.35-6.12,2.75-9.49,2.5s-6.32-2.12-9.16-3.93c-3-1.93-5.86-3.74-9.18-3.77h-.06c-3.81,0-7,2.34-10.3,4.82s-6.61,4.89-10.64,5c-3.21.13-6.13-1.28-9-2.64a22.72,22.72,0,0,0-7.33-2.55c-4.51-.44-8.67,1.95-12.71,4.27-1.51.86-3.07,1.76-4.64,2.5a31.11,31.11,0,0,1-25.25.48.5.5,0,1,1,.4-.91,30.11,30.11,0,0,0,24.42-.47c1.54-.73,3.08-1.61,4.57-2.47,4.18-2.39,8.49-4.87,13.31-4.4A23.34,23.34,0,0,1,95,156.12c2.84,1.36,5.52,2.64,8.49,2.55,3.72-.14,7-2.54,10.08-4.86,3.32-2.46,6.76-5,10.9-5h.07c3.6,0,6.71,2,9.71,3.92,2.74,1.75,5.56,3.55,8.69,3.78s6-1.05,9-2.42a29.57,29.57,0,0,1,6.78-2.4c5.78-1,11.24,1.6,16.51,4.12,4.55,2.18,9.24,4.42,14.15,4.34a32.3,32.3,0,0,0,8.76-1.84c3.61-1.11,7.34-2.26,11.16-1.71,4.37.63,8.05,3.36,11.61,6,4,2.94,7.7,5.71,12.28,5.8,3.61.08,6.9-1.59,10.36-3.36s6.85-3.47,10.71-3.47,7.18,1.77,10.49,3.46l.59.29c6.5,3.3,16.08,7.26,24.24,3.62a35.4,35.4,0,0,0,6-3.82c4.5-3.29,9.61-7,15-5.1a13.16,13.16,0,0,1,4.36,3.24,16.84,16.84,0,0,0,3.36,2.75c4.87,2.61,10.14,3.18,14.09,1.53a24,24,0,0,0,3.68-2.12,22.89,22.89,0,0,1,4-2.27,11.78,11.78,0,0,1,9.75.51,25.38,25.38,0,0,1,3.33,2.27c1.72,1.33,3.35,2.59,5.35,2.94a.5.5,0,0,1,.4.58.51.51,0,0,1-.58.41c-2.23-.4-4-1.79-5.78-3.13a22.57,22.57,0,0,0-3.19-2.19,10.75,10.75,0,0,0-8.91-.46,21.79,21.79,0,0,0-3.84,2.18,24.53,24.53,0,0,1-3.84,2.2c-4.23,1.77-9.82,1.18-15-1.57A16.81,16.81,0,0,1,314.2,164a12.2,12.2,0,0,0-4-3c-4.89-1.75-9.55,1.67-14.06,5a36.22,36.22,0,0,1-6.16,3.94A18.44,18.44,0,0,1,282.4,171.38Z" fill="#d1d3d4"/><path d="M142.48,138.82a.45.45,0,0,1-.25-.07l-3-1.71a6,6,0,0,1-2.13-1.71,2.38,2.38,0,0,1,.11-3,3,3,0,0,1,2.57-.57,14,14,0,0,1,7,3,.5.5,0,0,1,.07.71.5.5,0,0,1-.7.07,12.93,12.93,0,0,0-6.49-2.83c-.87-.12-1.42,0-1.73.29a1.41,1.41,0,0,0,0,1.69,5.34,5.34,0,0,0,1.79,1.39l3,1.71a.51.51,0,0,1,.19.69A.5.5,0,0,1,142.48,138.82Z" fill="#d1d3d4"/><path d="M132.57,125.19a.47.47,0,0,1-.25-.07,20.91,20.91,0,0,1-3.6-2.68c-1.12-1-1.09-1.83-.86-2.33a1.9,1.9,0,0,1,1.58-1,6.7,6.7,0,0,1,6.32,2.51.5.5,0,0,1-.1.7.51.51,0,0,1-.7-.1,5.67,5.67,0,0,0-5.35-2.13c-.26,0-.72.16-.84.43s.38,1,.63,1.19a20.91,20.91,0,0,0,3.43,2.55.5.5,0,0,1-.26.93Z" fill="#d1d3d4"/><path d="M119.71,135.89a.48.48,0,0,1-.23,0l-2.81-1.42a.48.48,0,0,1-.27-.41,2.11,2.11,0,0,1,.56-1.59,3,3,0,0,1,2.08-1,6.73,6.73,0,0,1,3.38,1.07.49.49,0,0,1,.2.67.5.5,0,0,1-.68.21,6,6,0,0,0-2.86-.95,2,2,0,0,0-1.37.65,1.14,1.14,0,0,0-.3.58l2.53,1.28a.5.5,0,0,1,.22.67A.51.51,0,0,1,119.71,135.89Z" fill="#d1d3d4"/><path d="M245.06,201.38a10.24,10.24,0,0,1-5.12-1.35.5.5,0,1,1,.51-.86,9.42,9.42,0,0,0,9.74-.3A20.79,20.79,0,0,0,252,197.5a10.56,10.56,0,0,1,3.77-2.36c2.71-.78,5.31.54,7.82,1.83s4.69,2.4,7,1.79a9.9,9.9,0,0,0,3-1.61,11.58,11.58,0,0,1,3.17-1.72c2.11-.62,4.27,0,6.36.56s4.08,1.13,5.95.5a.49.49,0,0,1,.63.32.5.5,0,0,1-.31.63c-2.16.73-4.38.11-6.53-.49s-4-1.1-5.82-.56a10.75,10.75,0,0,0-2.88,1.58,10.75,10.75,0,0,1-3.33,1.76c-2.7.71-5.25-.6-7.73-1.87s-4.75-2.43-7.08-1.76a9.78,9.78,0,0,0-3.41,2.16,18.67,18.67,0,0,1-1.85,1.44A10.32,10.32,0,0,1,245.06,201.38Z" fill="#d1d3d4"/><path d="M142.17,207.27a11.57,11.57,0,0,1-2.3-.26,18,18,0,0,1-7.59-3.6.5.5,0,0,1-.08-.7.51.51,0,0,1,.71-.08,17,17,0,0,0,7.16,3.4,7.31,7.31,0,0,0,4.13-.11,10.39,10.39,0,0,0,3.79-3.36c1.44-1.74,2.92-3.54,5.23-3.77,2.16-.22,3.91,1.05,5.61,2.29a10.57,10.57,0,0,0,4.13,2.17c2.17.36,4.14-.83,6.22-2.09a15.36,15.36,0,0,1,5.07-2.29,7.56,7.56,0,0,1,6.49,2,.49.49,0,0,1,0,.7.5.5,0,0,1-.71,0,6.57,6.57,0,0,0-5.62-1.7,14.68,14.68,0,0,0-4.74,2.17c-2.14,1.29-4.35,2.63-6.89,2.21a11.16,11.16,0,0,1-4.56-2.34c-1.62-1.18-3.15-2.29-4.92-2.11s-3.19,1.76-4.56,3.42a11.06,11.06,0,0,1-4.2,3.65A6.44,6.44,0,0,1,142.17,207.27Z" fill="#d1d3d4"/><path d="M45.63,181a8.08,8.08,0,0,1-7.21-4.56.5.5,0,1,1,.9-.42,7,7,0,0,0,7.32,3.89,14.34,14.34,0,0,0,5.45-2.64C54,176,56,174.62,58.4,174.4a14.58,14.58,0,0,1,5.49.92c2.11.64,4.11,1.24,6,.65a.5.5,0,0,1,.29.95c-2.22.69-4.46,0-6.62-.64a13.73,13.73,0,0,0-5.11-.88c-2.12.19-3.93,1.39-5.85,2.67a15.47,15.47,0,0,1-5.84,2.79A7.59,7.59,0,0,1,45.63,181Z" fill="#d1d3d4"/></g></svg>