<svg xmlns="http://www.w3.org/2000/svg" viewBox="0 0 400 300"><g id="_387_taj_mahal_flatline" data-name="#387_taj_mahal_flatline"><rect x="39.44" y="45.82" width="321.2" height="162.09" fill="#e6e7e8"/><path d="M360.64,208.42H39.44a.5.5,0,0,1-.5-.5V45.82a.5.5,0,0,1,.5-.5h321.2a.5.5,0,0,1,.5.5v162.1A.5.5,0,0,1,360.64,208.42Zm-320.7-1h320.2V46.32H39.94Z" fill="#231f20"/><path d="M360.49,155.17c-1.42-.34-3.21.34-3.53,1.76a6.14,6.14,0,0,0-3.41-2.85,3,3,0,0,0-3.63,1.72c-3.64-5.16-4.25,4.46-4.23,4.43a8.84,8.84,0,0,0-2.18,4.6,12.67,12.67,0,0,0-2.9-3.68,6.36,6.36,0,0,0-.69-.46,4.51,4.51,0,0,0-3.86-.41,6.16,6.16,0,0,0-2.43,2.24,13.26,13.26,0,0,0-2.79,6.3,9.53,9.53,0,0,1-.25,1.93,7.2,7.2,0,0,1-2.07,2.65c-4.17,4.1-16.38,33.94-6.29,36.78a26.86,26.86,0,0,0,7.28.68c10.33,0,20.68-.1,31-.86Z" fill="#68e1fd"/><path d="M329.3,211.45a26.36,26.36,0,0,1-7.23-.71c-2-.55-3.3-2.06-3.92-4.46-2.32-9,6.25-29.66,10-33.3l.32-.31a5.49,5.49,0,0,0,1.61-2.1,5.05,5.05,0,0,0,.18-1.27c0-.18,0-.35,0-.53a13.88,13.88,0,0,1,2.9-6.59,6.56,6.56,0,0,1,2.68-2.44,5.07,5.07,0,0,1,4.38.44,7.66,7.66,0,0,1,.76.5,10.55,10.55,0,0,1,2.29,2.63,9.58,9.58,0,0,1,1.85-3.31c.1-1.4.55-5.71,2.47-6.25a2.35,2.35,0,0,1,2.28,1,3.58,3.58,0,0,1,3.84-1.26,6,6,0,0,1,3.17,2.27,3.06,3.06,0,0,1,.8-.71,4,4,0,0,1,3-.47.59.59,0,0,1,.45.57V210a.59.59,0,0,1-.55.59c-10.37.77-20.59.84-31,.86Zm8.17-50.84a3.06,3.06,0,0,0-1.18.22,5.49,5.49,0,0,0-2.18,2,12.76,12.76,0,0,0-2.69,6l0,.5a6.56,6.56,0,0,1-.24,1.55,6.47,6.47,0,0,1-1.92,2.59l-.3.3c-3,3-11.93,23.28-9.64,32.16.51,2,1.53,3.19,3.1,3.63a26.87,26.87,0,0,0,7.12.66c10.22,0,20.24-.09,30.39-.81V155.68a2.8,2.8,0,0,0-1.61.39,1.6,1.6,0,0,0-.76,1,.59.59,0,0,1-1.07.19,5.45,5.45,0,0,0-3.06-2.6,2.41,2.41,0,0,0-2.95,1.4.59.59,0,0,1-.48.34.55.55,0,0,1-.54-.25c-.63-.89-1.2-1.37-1.54-1.26-1,.3-1.58,4.06-1.61,5.33a.61.61,0,0,1-.15.41,8.28,8.28,0,0,0-2,4.3.58.58,0,0,1-.46.49.58.58,0,0,1-.62-.28,12.44,12.44,0,0,0-2.76-3.51,4.8,4.8,0,0,0-2.78-1Z" fill="#231f20"/><path d="M78.8,196.52c-.38-.62-1.39-.69-1.58,0a5.32,5.32,0,0,0-8.32-1.45,3.65,3.65,0,0,0-5.41-1.63c-.5.38-1,.92-1.61.7-.4-.15-.62-.63-1-.93-1.46-1.33-4.14,1.34-5.29-.35-.27-.4-.34-.94-.62-1.32-1-1.33-3.24.33-4.25-1a10.52,10.52,0,0,1-.66-1.49,3.15,3.15,0,0,0-1.45-1.18c-1.55-.81-3.18-1.64-4.88-1.5-1,.07-1.76.91-2.59,1s-1.23-.36-1.87-.59v18.56a134.83,134.83,0,0,0,38.1-1.34,1.28,1.28,0,0,0,.74-.3,1.73,1.73,0,0,0,.35-1c.17-1.35.33-2.69.49-4A3.55,3.55,0,0,0,78.8,196.52Z" fill="#68e1fd"/><path d="M53.7,206.79A137,137,0,0,1,39.26,206a.6.6,0,0,1-.53-.59V186.87a.62.62,0,0,1,.26-.49.58.58,0,0,1,.54-.06,3.81,3.81,0,0,1,.61.29,1.46,1.46,0,0,0,1,.26,3,3,0,0,0,1-.41,4.19,4.19,0,0,1,1.65-.61c1.9-.16,3.74.8,5.2,1.56a3.8,3.8,0,0,1,1.7,1.42,4.69,4.69,0,0,1,.3.75,2.55,2.55,0,0,0,.3.66c.29.37.8.34,1.6.25s2-.21,2.66.73a2.82,2.82,0,0,1,.4.82,3.19,3.19,0,0,0,.24.52c.32.47.85.37,2,0s2.27-.66,3.22.2a4.41,4.41,0,0,1,.4.45,1.41,1.41,0,0,0,.36.37c.17.06.55-.23.82-.44l.23-.18a3.86,3.86,0,0,1,3.34-.63,4.42,4.42,0,0,1,2.58,1.81,5.6,5.6,0,0,1,4.21-1,6.15,6.15,0,0,1,4,2.43,1.87,1.87,0,0,1,.42-.13,1.61,1.61,0,0,1,1.58.77,4,4,0,0,1,.29,2.57l-.49,4a2.31,2.31,0,0,1-.52,1.38,1.86,1.86,0,0,1-1.06.47A134.81,134.81,0,0,1,53.7,206.79ZM39.91,204.9a134.3,134.3,0,0,0,37.41-1.39.86.86,0,0,0,.42-.13,1.65,1.65,0,0,0,.19-.71l.49-4a3.12,3.12,0,0,0-.13-1.83.44.44,0,0,0-.41-.2c-.07,0-.09,0-.1.08a.59.59,0,0,1-.5.43.57.57,0,0,1-.58-.3,4.91,4.91,0,0,0-3.6-2.51,4.36,4.36,0,0,0-3.78,1.2.62.62,0,0,1-.52.16.6.6,0,0,1-.43-.34,3.3,3.3,0,0,0-2.18-1.83,2.74,2.74,0,0,0-2.34.43l-.21.16a2,2,0,0,1-2,.62,2,2,0,0,1-.86-.74,2.73,2.73,0,0,0-.27-.31c-.43-.39-1.08-.23-2.1.06s-2.45.72-3.29-.51a3.33,3.33,0,0,1-.36-.77,2.38,2.38,0,0,0-.25-.53c-.27-.38-.78-.35-1.59-.26a2.67,2.67,0,0,1-2.64-.69,3.35,3.35,0,0,1-.49-1,3.83,3.83,0,0,0-.22-.56,2.71,2.71,0,0,0-1.21-.94A9.11,9.11,0,0,0,43.82,187a3.3,3.3,0,0,0-1.17.47,3.85,3.85,0,0,1-1.38.55,2.33,2.33,0,0,1-1.36-.23Z" fill="#231f20"/><rect x="39.44" y="216.46" width="321.2" height="37.72" fill="#fff"/><path d="M360.64,254.77H39.44a.59.59,0,0,1-.59-.59V216.46a.58.58,0,0,1,.59-.59h321.2a.59.59,0,0,1,.59.59v37.72A.6.6,0,0,1,360.64,254.77ZM40,253.59h320V217.05H40Z" fill="#231f20"/><polygon points="360.49 221.71 326.88 221.71 360.68 239.54 360.49 221.71" fill="#231f20"/><path d="M360.68,240a.53.53,0,0,1-.24-.06l-33.8-17.82a.51.51,0,0,1,.24-.95h33.61a.5.5,0,0,1,.5.5l.19,17.82a.52.52,0,0,1-.5.51ZM328.9,222.21l31.27,16.49L360,222.21Z" fill="#231f20"/><path d="M86.6,76.83c-.29-2-2-3.36-3.58-4.42s-2.75-2-2.75-2-1.2,1-2.75,2-3.29,2.47-3.58,4.42a4.57,4.57,0,0,0,.58,3.5H86A4.6,4.6,0,0,0,86.6,76.83Z" fill="#fff"/><path d="M86,80.79H74.52a.43.43,0,0,1-.35-.17,4.92,4.92,0,0,1-.68-3.85c.31-2.11,2.08-3.58,3.78-4.73,1.51-1,2.7-2,2.71-2a.48.48,0,0,1,.58,0s1.2,1,2.72,2c1.69,1.15,3.46,2.62,3.77,4.73h0a5,5,0,0,1-.67,3.85A.46.46,0,0,1,86,80.79Zm-11.27-.92h11a4.58,4.58,0,0,0,.37-3c-.26-1.76-1.86-3.06-3.39-4.11-1.1-.76-2-1.48-2.49-1.83-.45.35-1.39,1.07-2.49,1.83-1.53,1-3.13,2.35-3.39,4.11A4.6,4.6,0,0,0,74.76,79.87Z" fill="#231f20"/><path d="M80.27,70.83a.46.46,0,0,1-.46-.45v-4a.46.46,0,0,1,.92,0v4A.46.46,0,0,1,80.27,70.83Z" fill="#231f20"/><polygon points="75.28 93.81 85.27 93.81 87.34 189.91 73.2 189.91 75.28 93.81" fill="#fff"/><path d="M87.34,190.36H73.2a.47.47,0,0,1-.33-.14.46.46,0,0,1-.13-.32l2.08-96.1a.45.45,0,0,1,.46-.44h10a.44.44,0,0,1,.45.44l2.08,96.1a.42.42,0,0,1-.13.32A.45.45,0,0,1,87.34,190.36Zm-13.67-.91H86.88L84.82,94.27h-9.1Z" fill="#231f20"/><rect x="73.67" y="90.51" width="13.2" height="3.3" fill="#fff"/><path d="M86.87,94.27H73.67a.47.47,0,0,1-.46-.46v-3.3a.47.47,0,0,1,.46-.46h13.2a.47.47,0,0,1,.46.46v3.3A.47.47,0,0,1,86.87,94.27Zm-12.74-.91H86.42V91H74.13Z" fill="#231f20"/><rect x="73.67" y="80.26" width="13.2" height="3.3" fill="#fff"/><path d="M86.87,84H73.67a.46.46,0,0,1-.46-.45v-3.3a.46.46,0,0,1,.46-.46h13.2a.46.46,0,0,1,.46.46v3.3A.46.46,0,0,1,86.87,84ZM74.13,83.1H86.42V80.71H74.13Z" fill="#231f20"/><rect x="72.45" y="118.53" width="15.64" height="5.7" rx="1.57" fill="#fff"/><path d="M86.53,124.69H74a2,2,0,0,1-2-2V120.1a2,2,0,0,1,2-2H86.53a2,2,0,0,1,2,2v2.56A2,2,0,0,1,86.53,124.69ZM74,119a1.11,1.11,0,0,0-1.11,1.11v2.56A1.11,1.11,0,0,0,74,123.77H86.53a1.11,1.11,0,0,0,1.11-1.11V120.1A1.11,1.11,0,0,0,86.53,119Z" fill="#231f20"/><rect x="71.03" y="155.8" width="18.49" height="5.7" rx="1.57" fill="#fff"/><path d="M88,162H72.59a2,2,0,0,1-2-2v-2.57a2,2,0,0,1,2-2H88a2,2,0,0,1,2,2v2.57A2,2,0,0,1,88,162Zm-15.36-5.7a1.11,1.11,0,0,0-1.11,1.11v2.57a1.11,1.11,0,0,0,1.11,1.11H88a1.11,1.11,0,0,0,1.11-1.11v-2.57A1.11,1.11,0,0,0,88,156.26Z" fill="#231f20"/><rect x="74.34" y="83.56" width="1.48" height="6.77" fill="#231f20"/><path d="M75.82,90.83H74.34a.5.5,0,0,1-.5-.5V83.56a.5.5,0,0,1,.5-.5h1.48a.5.5,0,0,1,.5.5v6.77A.5.5,0,0,1,75.82,90.83Zm-1-1h.48V84.06h-.48Z" fill="#231f20"/><rect x="79.53" y="83.56" width="1.48" height="6.77" fill="#231f20"/><path d="M81,90.83H79.53a.5.5,0,0,1-.5-.5V83.56a.5.5,0,0,1,.5-.5H81a.5.5,0,0,1,.5.5v6.77A.5.5,0,0,1,81,90.83Zm-1-1h.48V84.06H80Z" fill="#231f20"/><rect x="84.72" y="83.56" width="1.48" height="6.77" fill="#231f20"/><path d="M86.2,90.83H84.72a.51.51,0,0,1-.5-.5V83.56a.5.5,0,0,1,.5-.5H86.2a.5.5,0,0,1,.5.5v6.77A.5.5,0,0,1,86.2,90.83Zm-1-1h.48V84.06h-.48Z" fill="#231f20"/><path d="M113.89,101.92c-.23-1.52-1.59-2.62-2.79-3.44S109,96.89,109,96.89s-.93.76-2.14,1.59-2.56,1.92-2.79,3.44a3.56,3.56,0,0,0,.45,2.72h9A3.56,3.56,0,0,0,113.89,101.92Z" fill="#fff"/><path d="M113.44,105.09h-9a.48.48,0,0,1-.35-.16,4,4,0,0,1-.55-3.08c.25-1.67,1.65-2.83,3-3.75,1.18-.81,2.1-1.55,2.11-1.56a.45.45,0,0,1,.58,0s.93.75,2.11,1.56c1.33.92,2.73,2.08,3,3.75h0a4,4,0,0,1-.55,3.08A.48.48,0,0,1,113.44,105.09Zm-8.71-.91h8.46a3.6,3.6,0,0,0,.24-2.19h0c-.19-1.33-1.42-2.33-2.59-3.14-.82-.56-1.51-1.09-1.88-1.37-.37.28-1.06.81-1.88,1.37-1.17.81-2.4,1.81-2.59,3.14A3.52,3.52,0,0,0,104.73,104.18Z" fill="#231f20"/><path d="M109,97.35a.46.46,0,0,1-.46-.46V93.81a.46.46,0,0,1,.92,0v3.08A.46.46,0,0,1,109,97.35Z" fill="#231f20"/><polygon points="105.07 115.13 112.85 115.13 114.46 189.91 103.46 189.91 105.07 115.13" fill="#fff"/><path d="M114.46,190.36h-11a.45.45,0,0,1-.33-.14.42.42,0,0,1-.13-.32l1.62-74.78a.45.45,0,0,1,.45-.45h7.78a.45.45,0,0,1,.45.45l1.62,74.78a.42.42,0,0,1-.13.32A.45.45,0,0,1,114.46,190.36Zm-10.54-.91H114l-1.6-73.86h-6.88Z" fill="#231f20"/><rect x="103.82" y="112.56" width="10.27" height="2.57" fill="#fff"/><path d="M114.1,115.59H103.82a.46.46,0,0,1-.45-.46v-2.57a.46.46,0,0,1,.45-.46H114.1a.46.46,0,0,1,.45.46v2.57A.46.46,0,0,1,114.1,115.59Zm-9.82-.92h9.36V113h-9.36Z" fill="#231f20"/><rect x="103.82" y="104.58" width="10.27" height="2.57" fill="#fff"/><path d="M114.1,107.61H103.82a.46.46,0,0,1-.45-.46v-2.57a.46.46,0,0,1,.45-.46H114.1a.46.46,0,0,1,.45.46v2.57A.46.46,0,0,1,114.1,107.61Zm-9.82-.92h9.36V105h-9.36Z" fill="#231f20"/><rect x="102.87" y="134.36" width="12.17" height="4.44" rx="1.22" fill="#fff"/><path d="M113.83,139.26h-9.74a1.68,1.68,0,0,1-1.67-1.68v-2a1.67,1.67,0,0,1,1.67-1.67h9.74a1.67,1.67,0,0,1,1.67,1.67v2A1.68,1.68,0,0,1,113.83,139.26Zm-9.74-4.44a.76.76,0,0,0-.76.76v2a.76.76,0,0,0,.76.76h9.74a.76.76,0,0,0,.76-.76v-2a.76.76,0,0,0-.76-.76Z" fill="#231f20"/><rect x="101.77" y="163.37" width="14.39" height="4.44" rx="1.22" fill="#fff"/><path d="M114.93,168.26H103a1.68,1.68,0,0,1-1.68-1.67v-2a1.68,1.68,0,0,1,1.68-1.68h11.94a1.68,1.68,0,0,1,1.68,1.68v2A1.68,1.68,0,0,1,114.93,168.26ZM103,163.83a.77.77,0,0,0-.77.76v2a.77.77,0,0,0,.77.76h11.94a.77.77,0,0,0,.77-.76v-2a.77.77,0,0,0-.77-.76Z" fill="#231f20"/><rect x="104.34" y="107.15" width="1.15" height="5.27" fill="#231f20"/><path d="M105.5,112.92h-1.16a.51.51,0,0,1-.5-.5v-5.27a.5.5,0,0,1,.5-.5h1.16a.5.5,0,0,1,.5.5v5.27A.51.51,0,0,1,105.5,112.92Zm-.66-1H105v-4.27h-.16Z" fill="#231f20"/><rect x="108.38" y="107.15" width="1.15" height="5.27" fill="#231f20"/><path d="M109.54,112.92h-1.16a.51.51,0,0,1-.5-.5v-5.27a.5.5,0,0,1,.5-.5h1.16a.5.5,0,0,1,.5.5v5.27A.51.51,0,0,1,109.54,112.92Zm-.66-1H109v-4.27h-.16Z" fill="#231f20"/><rect x="112.42" y="107.15" width="1.15" height="5.27" fill="#231f20"/><path d="M113.58,112.92h-1.16a.51.51,0,0,1-.5-.5v-5.27a.5.5,0,0,1,.5-.5h1.16a.5.5,0,0,1,.5.5v5.27A.51.51,0,0,1,113.58,112.92Zm-.66-1h.16v-4.27h-.16Z" fill="#231f20"/><path d="M313.47,76.83c.29-2,2-3.36,3.59-4.42s2.74-2,2.74-2,1.2,1,2.75,2,3.29,2.47,3.58,4.42a4.55,4.55,0,0,1-.57,3.5H314.05A4.57,4.57,0,0,1,313.47,76.83Z" fill="#fff"/><path d="M325.56,80.79H314.05a.44.44,0,0,1-.35-.17,5,5,0,0,1-.68-3.85h0c.31-2.11,2.09-3.58,3.78-4.73,1.51-1,2.7-2,2.72-2a.47.47,0,0,1,.57,0s1.21,1,2.72,2c1.69,1.15,3.46,2.62,3.77,4.73a5,5,0,0,1-.67,3.85A.46.46,0,0,1,325.56,80.79Zm-11.27-.92h11a4.52,4.52,0,0,0,.37-3c-.26-1.76-1.86-3.06-3.39-4.11-1.1-.76-2-1.48-2.49-1.83-.45.35-1.38,1.07-2.49,1.83-1.53,1-3.12,2.35-3.38,4.11h0A4.62,4.62,0,0,0,314.29,79.87Z" fill="#231f20"/><line x1="319.8" y1="70.38" x2="319.8" y2="66.42" fill="#fff"/><path d="M319.8,70.83a.45.45,0,0,1-.45-.45v-4a.46.46,0,1,1,.91,0v4A.45.45,0,0,1,319.8,70.83Z" fill="#231f20"/><polygon points="324.8 93.81 314.81 93.81 312.73 189.91 326.88 189.91 324.8 93.81" fill="#fff"/><path d="M326.88,190.36H312.73a.47.47,0,0,1-.33-.14.46.46,0,0,1-.13-.32l2.08-96.1a.45.45,0,0,1,.46-.44h10a.45.45,0,0,1,.46.44l2.07,96.1a.39.39,0,0,1-.13.32A.43.43,0,0,1,326.88,190.36Zm-13.68-.91h13.21l-2.06-95.18h-9.09Z" fill="#231f20"/><rect x="313.2" y="90.51" width="13.2" height="3.3" transform="translate(639.61 184.32) rotate(-180)" fill="#fff"/><path d="M326.4,94.27H313.2a.46.46,0,0,1-.45-.46v-3.3a.46.46,0,0,1,.45-.46h13.2a.46.46,0,0,1,.46.46v3.3A.46.46,0,0,1,326.4,94.27Zm-12.74-.91H326V91H313.66Z" fill="#231f20"/><rect x="313.2" y="80.26" width="13.2" height="3.3" transform="translate(639.61 163.81) rotate(-180)" fill="#fff"/><path d="M326.4,84H313.2a.45.45,0,0,1-.45-.45v-3.3a.45.45,0,0,1,.45-.46h13.2a.45.45,0,0,1,.46.46v3.3A.45.45,0,0,1,326.4,84Zm-12.74-.91H326V80.71H313.66Z" fill="#231f20"/><rect x="311.98" y="118.53" width="15.64" height="5.7" rx="1.57" transform="translate(639.61 242.76) rotate(-180)" fill="#fff"/><path d="M326.06,124.69H313.55a2,2,0,0,1-2-2V120.1a2,2,0,0,1,2-2h12.51a2,2,0,0,1,2,2v2.56A2,2,0,0,1,326.06,124.69ZM313.55,119a1.11,1.11,0,0,0-1.11,1.11v2.56a1.11,1.11,0,0,0,1.11,1.11h12.51a1.11,1.11,0,0,0,1.11-1.11V120.1a1.11,1.11,0,0,0-1.11-1.11Z" fill="#231f20"/><rect x="310.56" y="155.8" width="18.49" height="5.7" rx="1.57" transform="translate(639.61 317.31) rotate(-180)" fill="#fff"/><path d="M327.48,162H312.13a2,2,0,0,1-2-2v-2.57a2,2,0,0,1,2-2h15.35a2,2,0,0,1,2,2v2.57A2,2,0,0,1,327.48,162Zm-15.35-5.7a1.11,1.11,0,0,0-1.11,1.11v2.57a1.11,1.11,0,0,0,1.11,1.11h15.35a1.11,1.11,0,0,0,1.11-1.11v-2.57a1.11,1.11,0,0,0-1.11-1.11Z" fill="#231f20"/><rect x="324.25" y="83.56" width="1.48" height="6.77" transform="translate(649.99 173.89) rotate(-180)" fill="#231f20"/><path d="M325.74,90.83h-1.49a.51.51,0,0,1-.5-.5V83.56a.5.5,0,0,1,.5-.5h1.49a.5.5,0,0,1,.5.5v6.77A.51.51,0,0,1,325.74,90.83Zm-1-1h.49V84.06h-.49Z" fill="#231f20"/><rect x="319.06" y="83.56" width="1.48" height="6.77" transform="translate(639.61 173.89) rotate(-180)" fill="#231f20"/><path d="M320.54,90.83h-1.48a.51.51,0,0,1-.5-.5V83.56a.5.5,0,0,1,.5-.5h1.48a.5.5,0,0,1,.5.5v6.77A.5.5,0,0,1,320.54,90.83Zm-1-1H320V84.06h-.48Z" fill="#231f20"/><rect x="313.87" y="83.56" width="1.48" height="6.77" transform="translate(629.22 173.89) rotate(-180)" fill="#231f20"/><path d="M315.35,90.83h-1.48a.5.5,0,0,1-.5-.5V83.56a.5.5,0,0,1,.5-.5h1.48a.5.5,0,0,1,.5.5v6.77A.5.5,0,0,1,315.35,90.83Zm-1-1h.48V84.06h-.48Z" fill="#231f20"/><path d="M286.19,101.92c.22-1.52,1.58-2.62,2.79-3.44s2.13-1.59,2.13-1.59.94.76,2.14,1.59,2.56,1.92,2.79,3.44a3.51,3.51,0,0,1-.45,2.72h-8.95A3.51,3.51,0,0,1,286.19,101.92Z" fill="#fff"/><path d="M295.59,105.09h-8.95a.45.45,0,0,1-.35-.16,4,4,0,0,1-.55-3.08c.25-1.67,1.64-2.83,3-3.75,1.17-.81,2.1-1.55,2.11-1.56a.44.44,0,0,1,.57,0s.94.75,2.11,1.56c1.34.92,2.73,2.08,3,3.75a4,4,0,0,1-.55,3.08A.45.45,0,0,1,295.59,105.09Zm-8.7-.91h8.45a3.57,3.57,0,0,0,.25-2.19c-.2-1.33-1.42-2.33-2.6-3.14-.82-.56-1.51-1.09-1.88-1.37-.36.28-1.05.81-1.88,1.37-1.17.81-2.39,1.81-2.59,3.14h0A3.57,3.57,0,0,0,286.89,104.18Zm-.7-2.26h0Z" fill="#231f20"/><line x1="291.11" y1="96.89" x2="291.11" y2="93.81" fill="#fff"/><path d="M291.11,97.35a.45.45,0,0,1-.45-.46V93.81a.46.46,0,0,1,.91,0v3.08A.45.45,0,0,1,291.11,97.35Z" fill="#231f20"/><polygon points="295 115.13 287.23 115.13 285.61 189.91 296.62 189.91 295 115.13" fill="#fff"/><path d="M296.62,190.36h-11a.47.47,0,0,1-.33-.14.46.46,0,0,1-.13-.32l1.62-74.78a.46.46,0,0,1,.46-.45H295a.46.46,0,0,1,.46.45l1.62,74.78a.48.48,0,0,1-.46.46Zm-10.54-.91h10.07l-1.6-73.86h-6.88Z" fill="#231f20"/><rect x="285.98" y="112.56" width="10.27" height="2.57" transform="translate(582.23 227.69) rotate(-180)" fill="#fff"/><path d="M296.25,115.59H286a.47.47,0,0,1-.46-.46v-2.57a.47.47,0,0,1,.46-.46h10.27a.47.47,0,0,1,.46.46v2.57A.47.47,0,0,1,296.25,115.59Zm-9.81-.92h9.35V113h-9.35Z" fill="#231f20"/><rect x="285.98" y="104.58" width="10.27" height="2.57" transform="translate(582.23 211.73) rotate(-180)" fill="#fff"/><path d="M296.25,107.61H286a.47.47,0,0,1-.46-.46v-2.57a.47.47,0,0,1,.46-.46h10.27a.47.47,0,0,1,.46.46v2.57A.47.47,0,0,1,296.25,107.61Zm-9.81-.92h9.35V105h-9.35Z" fill="#231f20"/><rect x="285.03" y="134.36" width="12.17" height="4.44" rx="1.22" transform="translate(582.23 273.16) rotate(-180)" fill="#fff"/><path d="M296,139.26h-9.73a1.68,1.68,0,0,1-1.68-1.68v-2a1.68,1.68,0,0,1,1.68-1.67H296a1.68,1.68,0,0,1,1.68,1.67v2A1.68,1.68,0,0,1,296,139.26Zm-9.73-4.44a.76.76,0,0,0-.76.76v2a.76.76,0,0,0,.76.76H296a.76.76,0,0,0,.76-.76v-2a.76.76,0,0,0-.76-.76Z" fill="#231f20"/><rect x="283.92" y="163.37" width="14.39" height="4.44" rx="1.22" transform="translate(582.23 331.17) rotate(-180)" fill="#fff"/><path d="M297.09,168.26H285.14a1.68,1.68,0,0,1-1.68-1.67v-2a1.68,1.68,0,0,1,1.68-1.68h11.95a1.68,1.68,0,0,1,1.68,1.68v2A1.68,1.68,0,0,1,297.09,168.26Zm-11.95-4.43a.76.76,0,0,0-.76.76v2a.76.76,0,0,0,.76.76h11.95a.76.76,0,0,0,.76-.76v-2a.76.76,0,0,0-.76-.76Z" fill="#231f20"/><rect x="294.58" y="107.15" width="1.15" height="5.27" transform="translate(590.31 219.57) rotate(-180)" fill="#231f20"/><path d="M295.73,112.92h-1.15a.5.5,0,0,1-.5-.5v-5.27a.5.5,0,0,1,.5-.5h1.15a.5.5,0,0,1,.5.5v5.27A.5.5,0,0,1,295.73,112.92Zm-.65-1h.15v-4.27h-.15Z" fill="#231f20"/><rect x="290.54" y="107.15" width="1.15" height="5.27" transform="translate(582.23 219.57) rotate(-180)" fill="#231f20"/><path d="M291.69,112.92h-1.15a.5.5,0,0,1-.5-.5v-5.27a.5.5,0,0,1,.5-.5h1.15a.5.5,0,0,1,.5.5v5.27A.5.5,0,0,1,291.69,112.92Zm-.65-1h.15v-4.27H291Z" fill="#231f20"/><rect x="286.5" y="107.15" width="1.15" height="5.27" transform="translate(574.15 219.57) rotate(-180)" fill="#231f20"/><path d="M287.65,112.92H286.5a.5.5,0,0,1-.5-.5v-5.27a.5.5,0,0,1,.5-.5h1.15a.5.5,0,0,1,.5.5v5.27A.5.5,0,0,1,287.65,112.92Zm-.65-1h.15v-4.27H287Z" fill="#231f20"/><rect x="240.89" y="131.92" width="15.87" height="14.29" transform="translate(497.64 278.12) rotate(-180)" fill="#fff"/><path d="M256.75,146.66H240.89a.47.47,0,0,1-.46-.46V131.92a.46.46,0,0,1,.46-.46h15.86a.45.45,0,0,1,.46.46V146.2A.46.46,0,0,1,256.75,146.66Zm-15.41-.91h15V132.37h-15Z" fill="#231f20"/><path d="M241.57,125.65c.33-2.24,2.33-3.85,4.1-5.07s3.15-2.33,3.15-2.33,1.38,1.12,3.15,2.33,3.77,2.83,4.1,5.07c.41,2.74-.66,4-.66,4H242.23S241.16,128.39,241.57,125.65Z" fill="#fff"/><path d="M255.41,130.11H242.23a.45.45,0,0,1-.35-.16c0-.06-1.19-1.46-.76-4.37h0c.35-2.38,2.37-4,4.29-5.37,1.74-1.2,3.11-2.3,3.12-2.31a.45.45,0,0,1,.58,0s1.38,1.11,3.12,2.31c1.92,1.32,3.94,3,4.3,5.37.43,2.91-.72,4.31-.77,4.37A.45.45,0,0,1,255.41,130.11Zm-12.94-.91h12.7a5.36,5.36,0,0,0,.45-3.48c-.3-2-2.14-3.55-3.91-4.76-1.3-.89-2.39-1.73-2.89-2.12-.5.39-1.59,1.23-2.89,2.12-1.76,1.21-3.61,2.72-3.91,4.76h0A5.37,5.37,0,0,0,242.47,129.2Z" fill="#231f20"/><rect x="240.2" y="129.65" width="17.12" height="2.26" transform="translate(497.52 261.57) rotate(-180)" fill="#fff"/><path d="M257.32,132.37H240.2a.45.45,0,0,1-.45-.45v-2.27a.45.45,0,0,1,.45-.45h17.12a.46.46,0,0,1,.46.45v2.27A.46.46,0,0,1,257.32,132.37Zm-16.66-.91h16.2v-1.35h-16.2Z" fill="#231f20"/><path d="M248.82,118.71a.47.47,0,0,1-.46-.46v-4.54a.46.46,0,0,1,.92,0v4.54A.47.47,0,0,1,248.82,118.71Z" fill="#231f20"/><path d="M251.45,133.47h1.77a0,0,0,0,1,0,0v9.59a.88.88,0,0,1-.88.88h0a.88.88,0,0,1-.88-.88v-9.59a0,0,0,0,1,0,0Z" transform="translate(504.67 277.41) rotate(-180)" fill="#fff"/><path d="M253.22,144.4h-1.77a.47.47,0,0,1-.46-.46v-9.59a1.34,1.34,0,1,1,2.68,0v9.59A.46.46,0,0,1,253.22,144.4Zm-1.31-.92h.85v-9.13a.43.43,0,1,0-.85,0Z" fill="#231f20"/><path d="M247.94,133.47h1.77a0,0,0,0,1,0,0v9.59a.88.88,0,0,1-.88.88h0a.88.88,0,0,1-.88-.88v-9.59A0,0,0,0,1,247.94,133.47Z" transform="translate(497.64 277.41) rotate(-180)" fill="#fff"/><path d="M249.71,144.4h-1.77a.46.46,0,0,1-.46-.46v-9.59a1.34,1.34,0,0,1,2.68,0v9.59A.46.46,0,0,1,249.71,144.4Zm-1.32-.92h.86v-9.13a.43.43,0,0,0-.43-.43.44.44,0,0,0-.43.43Z" fill="#231f20"/><path d="M244.42,133.47h1.77a0,0,0,0,1,0,0v9.59a.88.88,0,0,1-.88.88h0a.88.88,0,0,1-.88-.88v-9.59A0,0,0,0,1,244.42,133.47Z" transform="translate(490.62 277.41) rotate(-180)" fill="#fff"/><path d="M246.19,144.4h-1.77a.46.46,0,0,1-.45-.46v-9.59a1.34,1.34,0,0,1,2.68,0v9.59A.47.47,0,0,1,246.19,144.4Zm-1.31-.92h.86v-9.13a.44.44,0,0,0-.43-.43.43.43,0,0,0-.43.43Z" fill="#231f20"/><rect x="234.79" y="141.63" width="19.81" height="48" transform="translate(489.4 331.26) rotate(-180)" fill="#fff"/><path d="M254.6,190.08H234.79a.45.45,0,0,1-.45-.45v-48a.46.46,0,0,1,.45-.46H254.6a.46.46,0,0,1,.46.46v48A.45.45,0,0,1,254.6,190.08Zm-19.35-.91h18.9V142.08h-18.9Z" fill="#231f20"/><path d="M251.09,164.2H238.31a.47.47,0,0,1-.46-.46v-19a.47.47,0,0,1,.46-.46h12.78a.46.46,0,0,1,.45.46v19A.46.46,0,0,1,251.09,164.2Zm-12.32-.91h11.86v-18H238.77Z" fill="#d1d3d4"/><path d="M244.7,147.05c-.93,0-4.47,2.83-4.47,5.09v9.34h8.93v-9.34C249.16,149.88,245.62,147.05,244.7,147.05Z" fill="#fff"/><path d="M249.16,161.94h-8.93a.46.46,0,0,1-.45-.46v-9.34c0-2.53,3.75-5.55,4.92-5.55s4.92,3,4.92,5.55v9.34A.46.46,0,0,1,249.16,161.94Zm-8.47-.92h8v-8.88c0-2-3.32-4.63-4-4.63s-4,2.61-4,4.63Z" fill="#231f20"/><path d="M251.09,186.88H238.31a.47.47,0,0,1-.46-.46V167.47a.46.46,0,0,1,.46-.46h12.78a.45.45,0,0,1,.45.46v18.95A.46.46,0,0,1,251.09,186.88ZM238.77,186h11.86v-18H238.77Z" fill="#d1d3d4"/><path d="M244.7,169.73c-.93,0-4.47,2.83-4.47,5.09v9.34h8.93v-9.34C249.16,172.56,245.62,169.73,244.7,169.73Z" fill="#fff"/><path d="M249.16,184.62h-8.93a.46.46,0,0,1-.45-.46v-9.34c0-2.53,3.75-5.55,4.92-5.55s4.92,3,4.92,5.55v9.34A.46.46,0,0,1,249.16,184.62Zm-8.47-.92h8v-8.88c0-2-3.32-4.63-4-4.63s-4,2.61-4,4.63Z" fill="#231f20"/><polygon points="268.92 145.78 254.6 141.63 254.6 189.63 270.05 189.63 268.92 145.78" fill="#fff"/><path d="M270.05,190.08H254.6a.45.45,0,0,1-.45-.45v-48a.45.45,0,0,1,.18-.37.47.47,0,0,1,.4-.07L269,145.34a.46.46,0,0,1,.33.43l1.14,43.85a.51.51,0,0,1-.13.33A.46.46,0,0,1,270.05,190.08Zm-15-.91h14.52l-1.11-43-13.41-3.89Z" fill="#231f20"/><path d="M267,165.22h-.07l-9.54-1.55a.48.48,0,0,1-.39-.45l-.08-17.91a.42.42,0,0,1,.17-.36.45.45,0,0,1,.4-.08l9.27,2.52a.46.46,0,0,1,.33.43l.37,16.94a.44.44,0,0,1-.16.35A.42.42,0,0,1,267,165.22Zm-9.08-2.4,8.62,1.4-.35-16-8.36-2.28Z" fill="#d1d3d4"/><path d="M262.15,148.62c-.68-.17-3.3,1.74-3.28,3.84l.07,8.81,6.64,1.17-.16-8.47C265.38,152,262.82,148.79,262.15,148.62Z" fill="#fff"/><path d="M265.58,162.9h-.08l-6.64-1.17a.44.44,0,0,1-.38-.44l-.07-8.82a4.88,4.88,0,0,1,2-3.56c.34-.27,1.21-.87,1.8-.72.95.24,3.57,3.67,3.61,5.78l.17,8.47a.46.46,0,0,1-.46.47Zm-6.19-2,5.72,1L265,154c0-1.83-2.4-4.67-2.92-4.9a3.21,3.21,0,0,0-1.44.92,3.57,3.57,0,0,0-1.27,2.46Z" fill="#231f20"/><path d="M267.45,186.89h0l-9.89-.21a.46.46,0,0,1-.45-.46l-.1-19.35a.46.46,0,0,1,.16-.35.44.44,0,0,1,.36-.11l9.6,1.35a.46.46,0,0,1,.4.44l.39,18.22a.44.44,0,0,1-.13.33A.45.45,0,0,1,267.45,186.89ZM258,185.78l9,.18-.38-17.35-8.69-1.22Z" fill="#d1d3d4"/><path d="M262.44,169.74c-.7-.09-3.42,2.36-3.4,4.63l.07,9.53,6.89.24-.18-9.13C265.78,172.84,263.13,169.82,262.44,169.74Z" fill="#fff"/><path d="M266,184.6h0l-6.89-.24a.46.46,0,0,1-.44-.46l-.07-9.53a6.35,6.35,0,0,1,2.28-4.25c.47-.42,1.13-.91,1.63-.84h0c1,.13,3.74,3.39,3.79,5.72l.18,9.14a.47.47,0,0,1-.14.33A.48.48,0,0,1,266,184.6Zm-6.44-1.14,6,.21-.17-8.65c0-2-2.43-4.62-3-4.83-.56.1-2.9,2.2-2.89,4.18Z" fill="#231f20"/><path d="M231.24,132.37a.45.45,0,0,1-.46-.45v-13a.46.46,0,1,1,.91,0v13A.45.45,0,0,1,231.24,132.37Z" fill="#231f20"/><path d="M232,120.08h-1.46a.46.46,0,1,1,0-.91H232a.46.46,0,0,1,0,.91Z" fill="#231f20"/><path d="M265.94,144.43a.45.45,0,0,1-.45-.45V131a.46.46,0,0,1,.45-.46.47.47,0,0,1,.46.46v13A.46.46,0,0,1,265.94,144.43Z" fill="#231f20"/><path d="M266.67,132.14h-1.46a.46.46,0,0,1-.46-.45.47.47,0,0,1,.46-.46h1.46a.46.46,0,0,1,.46.46A.45.45,0,0,1,266.67,132.14Z" fill="#231f20"/><path d="M199.91,72.61a.41.41,0,0,1-.41-.42V54.37a.41.41,0,0,1,.41-.42.42.42,0,0,1,.42.42V72.19A.42.42,0,0,1,199.91,72.61Z" fill="#231f20"/><path d="M201.25,61c0-.32.06-.61-.16-.84h-2.36c-.21.23-.16.52-.16.84a1.34,1.34,0,0,0,2.68,0Z" fill="#fff"/><path d="M199.92,62.83a1.79,1.79,0,0,1-1.8-1.79v-.15a1.28,1.28,0,0,1,.29-1,.45.45,0,0,1,.33-.15h2.36a.49.49,0,0,1,.34.15,1.3,1.3,0,0,1,.28,1V61A1.79,1.79,0,0,1,199.92,62.83ZM199,60.66a.72.72,0,0,0,0,.21V61a.89.89,0,0,0,.89.88.88.88,0,0,0,.87-.88v-.38Z" fill="#231f20"/><circle cx="199.91" cy="76.52" r="2.63" fill="#fff"/><path d="M199.91,79.61A3.09,3.09,0,1,1,203,76.52,3.09,3.09,0,0,1,199.91,79.61Zm0-5.27a2.18,2.18,0,1,0,2.18,2.18A2.18,2.18,0,0,0,199.91,74.34Z" fill="#231f20"/><path d="M202.24,71.18c0,2.35-1,3.36-2.33,3.36s-2.33-1-2.33-3.36,2-5.18,2.33-5.18S202.24,68.82,202.24,71.18Z" fill="#fff"/><path d="M199.91,75c-.65,0-2.78-.28-2.78-3.82,0-2.3,2-5.64,2.78-5.64s2.79,3.34,2.79,5.64C202.7,74.72,200.57,75,199.91,75Zm0-8.43A8.52,8.52,0,0,0,198,71.18c0,1.84.68,2.9,1.87,2.9s1.87-1.06,1.87-2.9A8.45,8.45,0,0,0,199.91,66.57Z" fill="#231f20"/><rect x="165.28" y="131.92" width="69.26" height="57.71" fill="#fff"/><path d="M234.54,190.08H165.28a.46.46,0,0,1-.46-.45V131.92a.46.46,0,0,1,.46-.46h69.26a.45.45,0,0,1,.46.46v57.71A.45.45,0,0,1,234.54,190.08Zm-68.8-.91h68.35v-56.8H165.74Z" fill="#231f20"/><path d="M228.13,108.08c-1.29-8.71-9.07-15-16-19.72s-9.66-9.06-9.66-9.06h-5.18s-2.75,4.33-9.65,9.06-14.68,11-16,19.72c-1.58,10.64,2.56,15.57,2.56,15.57h51.3S229.7,118.72,228.13,108.08Z" fill="#fff"/><path d="M225.56,124.11h-51.3a.48.48,0,0,1-.35-.16c-.17-.21-4.25-5.21-2.66-15.94,1.29-8.77,8.89-15,16.16-20,6.73-4.62,9.5-8.9,9.53-8.94a.45.45,0,0,1,.38-.21h5.18a.47.47,0,0,1,.39.21s2.8,4.32,9.53,8.94c7.26,5,14.86,11.25,16.16,20h0c1.59,10.73-2.49,15.73-2.66,15.94A.48.48,0,0,1,225.56,124.11Zm-51.07-.92h50.85c.66-.92,3.7-5.8,2.34-15h0c-1.25-8.42-8.68-14.53-15.78-19.4a37.94,37.94,0,0,1-9.64-9h-4.69a37.88,37.88,0,0,1-9.65,9c-7.1,4.87-14.52,11-15.77,19.4C170.78,117.39,173.83,122.27,174.49,123.19Z" fill="#231f20"/><rect x="195.82" y="77.31" width="8.18" height="1.99" fill="#fff"/><path d="M204,79.75h-8.18a.45.45,0,0,1-.45-.45v-2a.46.46,0,0,1,.45-.46H204a.46.46,0,0,1,.46.46v2A.45.45,0,0,1,204,79.75Zm-7.72-.91h7.27V77.77h-7.27Z" fill="#231f20"/><rect x="174.14" y="123.65" width="51.54" height="8.26" fill="#fff"/><path d="M225.68,132.37H174.14a.45.45,0,0,1-.45-.45v-8.27a.46.46,0,0,1,.45-.46h51.54a.47.47,0,0,1,.46.46v8.27A.46.46,0,0,1,225.68,132.37Zm-51.08-.91h50.62v-7.35H174.6Z" fill="#231f20"/><path d="M227.16,121.11H172.67a.46.46,0,0,1,0-.92h54.49a.46.46,0,0,1,0,.92Z" fill="#231f20"/><rect x="175.77" y="137.48" width="48.28" height="52.15" fill="#fff"/><path d="M224.05,190.08H175.77a.46.46,0,0,1-.46-.45V137.48a.47.47,0,0,1,.46-.46h48.28a.46.46,0,0,1,.46.46v52.15A.45.45,0,0,1,224.05,190.08Zm-47.82-.91H223.6V137.94H176.23Z" fill="#231f20"/><rect x="182.28" y="145.3" width="35.27" height="44.33" fill="#fff"/><path d="M217.55,190.08H182.28a.46.46,0,0,1-.46-.45V145.3a.47.47,0,0,1,.46-.46h35.27a.46.46,0,0,1,.45.46v44.33A.45.45,0,0,1,217.55,190.08Zm-34.81-.91h34.35V145.75H182.74Z" fill="#231f20"/><path d="M199.91,175.48c1,0,5,2.82,5,5.09v9.34H195v-9.34C195,178.3,198.89,175.48,199.91,175.48Z" fill="#fff"/><path d="M204.88,190.36H195a.46.46,0,0,1-.46-.45v-9.34c0-2.53,4.14-5.55,5.42-5.55s5.42,3,5.42,5.55v9.34A.45.45,0,0,1,204.88,190.36Zm-9.47-.91h9v-8.88c0-2-3.73-4.64-4.51-4.64s-4.5,2.62-4.5,4.64Z" fill="#231f20"/><rect x="184.86" y="148.61" width="30.11" height="41.3" fill="#d1d3d4"/><path d="M215,190.36H184.86a.45.45,0,0,1-.46-.45v-41.3a.46.46,0,0,1,.46-.46H215a.47.47,0,0,1,.46.46v41.3A.46.46,0,0,1,215,190.36Zm-29.66-.91h29.2V149.07h-29.2Z" fill="#231f20"/><rect x="184.86" y="148.61" width="30.11" height="21.35" fill="#d1d3d4"/><path d="M215,170.42H184.86a.46.46,0,0,1-.46-.46V148.61a.46.46,0,0,1,.46-.46H215a.47.47,0,0,1,.46.46V170A.47.47,0,0,1,215,170.42Zm-29.66-.92h29.2V149.07h-29.2Z" fill="#231f20"/><rect x="193.41" y="172.51" width="13" height="17.4" fill="#231f20"/><path d="M206.42,190.41h-13a.5.5,0,0,1-.5-.5v-17.4a.5.5,0,0,1,.5-.5h13a.5.5,0,0,1,.5.5v17.4A.51.51,0,0,1,206.42,190.41Zm-12.51-1h12V173h-12Z" fill="#231f20"/><path d="M215,163.91a.47.47,0,0,1-.45-.34c0-.06-1.36-5.23-4.67-7.3a12.63,12.63,0,0,0-4.3-1.47c-1.93-.39-3.93-.81-5.65-2.61-1.72,1.8-3.71,2.22-5.65,2.61a12.58,12.58,0,0,0-4.29,1.47c-3.31,2.07-4.67,7.24-4.68,7.3a.46.46,0,0,1-.55.33.45.45,0,0,1-.33-.56c.05-.23,1.45-5.58,5.07-7.84a13.16,13.16,0,0,1,4.6-1.59c2-.41,3.89-.8,5.48-2.7a.47.47,0,0,1,.7,0c1.59,1.9,3.48,2.29,5.49,2.7a13.11,13.11,0,0,1,4.59,1.59c3.62,2.26,5,7.61,5.08,7.84a.47.47,0,0,1-.33.56Z" fill="#231f20"/><path d="M199.91,160c.71,0,3.43,1.95,3.43,3.52V170h-6.86v-6.45C196.48,161.94,199.2,160,199.91,160Z" fill="#231f20"/><path d="M203.34,170.46h-6.86a.5.5,0,0,1-.5-.5v-6.45c0-1.89,3-4,3.93-4s3.93,2.13,3.93,4V170A.5.5,0,0,1,203.34,170.46Zm-6.36-1h5.86v-6c0-1.26-2.4-3-2.93-3s-2.93,1.76-2.93,3Z" fill="#231f20"/><rect x="143.32" y="131.92" width="15.87" height="14.29" fill="#fff"/><path d="M159.19,146.66H143.32a.47.47,0,0,1-.46-.46V131.92a.46.46,0,0,1,.46-.46h15.87a.45.45,0,0,1,.45.46V146.2A.46.46,0,0,1,159.19,146.66Zm-15.41-.91h14.95V132.37H143.78Z" fill="#231f20"/><path d="M158.51,125.65c-.34-2.24-2.33-3.85-4.11-5.07s-3.15-2.33-3.15-2.33-1.37,1.12-3.14,2.33-3.78,2.83-4.11,5.07c-.4,2.74.66,4,.66,4h13.19S158.91,128.39,158.51,125.65Z" fill="#fff"/><path d="M157.85,130.11H144.66a.48.48,0,0,1-.35-.16c-.05-.06-1.19-1.46-.76-4.37.35-2.38,2.37-4,4.3-5.37,1.73-1.2,3.1-2.3,3.12-2.31a.44.44,0,0,1,.57,0s1.38,1.11,3.12,2.31c1.93,1.32,3.94,3,4.3,5.37h0c.43,2.91-.71,4.31-.76,4.37A.48.48,0,0,1,157.85,130.11Zm-12.95-.91h12.7a5.36,5.36,0,0,0,.45-3.48h0c-.3-2-2.14-3.55-3.91-4.76-1.29-.89-2.39-1.73-2.89-2.12-.49.39-1.59,1.23-2.89,2.12-1.76,1.21-3.61,2.72-3.91,4.76A5.44,5.44,0,0,0,144.9,129.2Z" fill="#231f20"/><rect x="142.75" y="129.65" width="17.12" height="2.26" fill="#fff"/><path d="M159.87,132.37H142.75a.45.45,0,0,1-.45-.45v-2.27a.45.45,0,0,1,.45-.45h17.12a.46.46,0,0,1,.46.45v2.27A.46.46,0,0,1,159.87,132.37Zm-16.66-.91h16.2v-1.35h-16.2Z" fill="#231f20"/><path d="M151.25,118.71a.46.46,0,0,1-.45-.46v-4.54a.46.46,0,0,1,.91,0v4.54A.46.46,0,0,1,151.25,118.71Z" fill="#231f20"/><path d="M147.74,133.47h0a.88.88,0,0,1,.88.88v9.59a0,0,0,0,1,0,0h-1.77a0,0,0,0,1,0,0v-9.59A.88.88,0,0,1,147.74,133.47Z" fill="#fff"/><path d="M148.62,144.4h-1.76a.46.46,0,0,1-.46-.46v-9.59a1.34,1.34,0,0,1,2.68,0v9.59A.46.46,0,0,1,148.62,144.4Zm-1.31-.92h.86v-9.13a.43.43,0,0,0-.43-.43.44.44,0,0,0-.43.43Z" fill="#231f20"/><path d="M151.25,133.47h0a.88.88,0,0,1,.88.88v9.59a0,0,0,0,1,0,0h-1.77a0,0,0,0,1,0,0v-9.59A.88.88,0,0,1,151.25,133.47Z" fill="#fff"/><path d="M152.14,144.4h-1.77a.47.47,0,0,1-.46-.46v-9.59a1.34,1.34,0,0,1,2.68,0v9.59A.46.46,0,0,1,152.14,144.4Zm-1.31-.92h.85v-9.13a.43.43,0,1,0-.85,0Z" fill="#231f20"/><path d="M154.77,133.47h0a.88.88,0,0,1,.88.88v9.59a0,0,0,0,1,0,0h-1.77a0,0,0,0,1,0,0v-9.59A.88.88,0,0,1,154.77,133.47Z" fill="#fff"/><path d="M155.65,144.4h-1.77a.46.46,0,0,1-.45-.46v-9.59a1.34,1.34,0,0,1,2.68,0v9.59A.47.47,0,0,1,155.65,144.4Zm-1.31-.92h.85v-9.13a.43.43,0,1,0-.85,0Z" fill="#231f20"/><rect x="145.47" y="141.63" width="19.81" height="48" fill="#fff"/><path d="M165.28,190.08H145.47a.46.46,0,0,1-.46-.45v-48a.47.47,0,0,1,.46-.46h19.81a.47.47,0,0,1,.46.46v48A.46.46,0,0,1,165.28,190.08Zm-19.35-.91h18.89V142.08H145.93Z" fill="#231f20"/><path d="M161.77,164.2H149a.46.46,0,0,1-.46-.46v-19a.46.46,0,0,1,.46-.46h12.78a.46.46,0,0,1,.45.46v19A.46.46,0,0,1,161.77,164.2Zm-12.33-.91h11.87v-18H149.44Z" fill="#d1d3d4"/><path d="M155.38,147.05c.92,0,4.46,2.83,4.46,5.09v9.34h-8.93v-9.34C150.91,149.88,154.45,147.05,155.38,147.05Z" fill="#231f20"/><path d="M159.84,162h-8.93a.5.5,0,0,1-.5-.5v-9.34c0-2.55,3.79-5.59,5-5.59s5,3,5,5.59v9.34A.5.5,0,0,1,159.84,162Zm-8.43-1h7.93v-8.84c0-1.94-3.28-4.56-4-4.59s-4,2.65-4,4.59Z" fill="#231f20"/><path d="M161.77,186.88H149a.46.46,0,0,1-.46-.46V167.47A.45.45,0,0,1,149,167h12.78a.45.45,0,0,1,.45.46v18.95A.46.46,0,0,1,161.77,186.88ZM149.44,186h11.87v-18H149.44Z" fill="#d1d3d4"/><path d="M155.38,169.73c.92,0,4.46,2.83,4.46,5.09v9.34h-8.93v-9.34C150.91,172.56,154.45,169.73,155.38,169.73Z" fill="#231f20"/><path d="M159.84,184.66h-8.93a.5.5,0,0,1-.5-.5v-9.34c0-2.55,3.79-5.59,5-5.59s5,3,5,5.59v9.34A.5.5,0,0,1,159.84,184.66Zm-8.43-1h7.93v-8.84c0-1.95-3.28-4.57-4-4.59s-4,2.64-4,4.59Z" fill="#231f20"/><polygon points="131.16 145.78 145.47 141.63 145.47 189.63 130.02 189.63 131.16 145.78" fill="#fff"/><path d="M145.47,190.08H130a.44.44,0,0,1-.45-.46l1.13-43.85a.47.47,0,0,1,.33-.43l14.31-4.15a.5.5,0,0,1,.41.07.47.47,0,0,1,.18.37v48A.46.46,0,0,1,145.47,190.08Zm-15-.91H145V142.24l-13.4,3.89Z" fill="#231f20"/><path d="M133.09,165.22a.42.42,0,0,1-.3-.12.48.48,0,0,1-.16-.35l.37-16.94a.46.46,0,0,1,.34-.43l9.26-2.52a.44.44,0,0,1,.4.08.45.45,0,0,1,.18.36l-.09,17.91a.46.46,0,0,1-.38.45l-9.55,1.55Zm.82-17-.35,16,8.62-1.4.08-16.92Zm8.72,15h0Z" fill="#d1d3d4"/><path d="M137.93,148.62c.67-.17,3.29,1.74,3.27,3.84l-.06,8.81-6.64,1.17.16-8.47C134.7,152,137.26,148.79,137.93,148.62Z" fill="#231f20"/><path d="M134.5,162.94a.5.5,0,0,1-.33-.12.49.49,0,0,1-.17-.39l.16-8.47c0-2.18,2.66-5.57,3.64-5.82h0c.6-.16,1.41.39,1.84.72a4.9,4.9,0,0,1,2.06,3.6l-.06,8.82a.51.51,0,0,1-.42.49l-6.64,1.16ZM138,149.11c-.52.27-2.85,3.08-2.88,4.87l-.15,7.86,5.63-1,.06-8.4a3.51,3.51,0,0,0-1.18-2.37A3.46,3.46,0,0,0,138,149.11Zm0,0Zm-.09-.49h0Z" fill="#231f20"/><path d="M132.62,186.89a.43.43,0,0,1-.32-.14.45.45,0,0,1-.14-.33l.4-18.22a.44.44,0,0,1,.39-.44l9.6-1.35a.45.45,0,0,1,.52.46L143,186.22a.47.47,0,0,1-.45.46l-9.9.21Zm9.9-.67h0Zm-9.06-17.61L133.09,186l9-.18.1-18.39Z" fill="#d1d3d4"/><path d="M137.64,169.74c.7-.09,3.41,2.36,3.4,4.63L141,183.9l-6.88.24.17-9.13C134.29,172.84,137,169.82,137.64,169.74Z" fill="#231f20"/><path d="M134.08,184.64a.5.5,0,0,1-.35-.14.48.48,0,0,1-.15-.37l.17-9.13c.05-2.35,2.8-5.63,3.83-5.76h0a2.65,2.65,0,0,1,1.66.85,6.4,6.4,0,0,1,2.3,4.28l-.08,9.53a.5.5,0,0,1-.48.5l-6.89.24Zm3.62-14.4c-.56.24-2.91,2.88-2.95,4.78l-.16,8.61,5.88-.21.07-9C140.55,172.46,138.27,170.37,137.7,170.24Z" fill="#231f20"/><path d="M168.84,132.37a.45.45,0,0,1-.46-.45v-13a.46.46,0,1,1,.91,0v13A.45.45,0,0,1,168.84,132.37Z" fill="#231f20"/><path d="M169.57,120.08h-1.46a.46.46,0,1,1,0-.91h1.46a.46.46,0,1,1,0,.91Z" fill="#231f20"/><path d="M134.13,144.43a.46.46,0,0,1-.46-.45V131a.46.46,0,0,1,.92,0v13A.46.46,0,0,1,134.13,144.43Z" fill="#231f20"/><path d="M134.86,132.14H133.4a.46.46,0,0,1-.46-.45.47.47,0,0,1,.46-.46h1.46a.46.46,0,0,1,.46.46A.45.45,0,0,1,134.86,132.14Z" fill="#231f20"/><rect x="84.72" y="189.63" width="232.78" height="13.13" fill="#fff"/><path d="M317.5,203.12H84.72a.37.37,0,0,1-.36-.37V189.63a.36.36,0,0,1,.36-.36H317.5a.37.37,0,0,1,.37.36v13.12A.38.38,0,0,1,317.5,203.12Zm-232.42-.73H317.14V190H85.08Z" fill="#231f20"/><polygon points="90.42 202.75 70.13 202.75 71.21 189.63 89.34 189.63 90.42 202.75" fill="#fff"/><path d="M90.42,203.21H70.13a.45.45,0,0,1-.34-.15.44.44,0,0,1-.12-.34l1.08-13.13a.46.46,0,0,1,.46-.42H89.34a.46.46,0,0,1,.45.42l1.08,13.13a.44.44,0,0,1-.12.34A.43.43,0,0,1,90.42,203.21Zm-19.8-.91h19.3l-1-12.22H71.63Z" fill="#231f20"/><polygon points="329.95 202.75 309.66 202.75 310.74 189.63 328.87 189.63 329.95 202.75" fill="#fff"/><path d="M330,203.21H309.66a.45.45,0,0,1-.34-.15.44.44,0,0,1-.12-.34l1.08-13.13a.46.46,0,0,1,.46-.42h18.13a.45.45,0,0,1,.45.42l1.08,13.13a.44.44,0,0,1-.12.34A.41.41,0,0,1,330,203.21Zm-19.8-.91h19.3l-1-12.22H311.16Z" fill="#231f20"/><rect x="39.44" y="202.75" width="321.2" height="5.16" fill="#fff"/><path d="M360.64,208.36H39.44a.45.45,0,0,1-.45-.44v-5.17a.45.45,0,0,1,.45-.44h321.2a.44.44,0,0,1,.44.44v5.17A.44.44,0,0,1,360.64,208.36Zm-320.76-.89H360.19V203.2H39.88Z" fill="#231f20"/><rect x="39.44" y="207.92" width="321.2" height="8.54" fill="#fff"/><path d="M360.64,216.94H39.44a.49.49,0,0,1-.49-.48v-8.54a.49.49,0,0,1,.49-.49h321.2a.49.49,0,0,1,.48.49v8.54A.49.49,0,0,1,360.64,216.94ZM39.92,216H360.16V208.4H39.92Z" fill="#231f20"/><polygon points="134.72 216.46 39.89 251.09 39.89 254.18 132.31 254.18 171.91 216.46 134.72 216.46" fill="#68e1fd"/><path d="M132.31,254.62H39.89a.45.45,0,0,1-.45-.44v-3.09a.46.46,0,0,1,.29-.42L134.57,216l.15,0h37.2a.44.44,0,0,1,.41.28.45.45,0,0,1-.11.49l-39.6,37.72A.47.47,0,0,1,132.31,254.62Zm-92-.89h91.8L170.8,216.9h-36L40.33,251.4Z" fill="#231f20"/><path d="M93.45,252.75a.44.44,0,0,1-.44-.44v-6.68a.45.45,0,0,1,.89,0v6.68A.45.45,0,0,1,93.45,252.75Z" fill="#231f20"/><path d="M102.65,249.41a.44.44,0,0,1-.44-.44v-8.78a.45.45,0,0,1,.89,0V249A.45.45,0,0,1,102.65,249.41Z" fill="#231f20"/><path d="M111.26,242.8a.44.44,0,0,1-.44-.44v-5.64a.45.45,0,1,1,.89,0v5.64A.44.44,0,0,1,111.26,242.8Z" fill="#231f20"/><path d="M119.55,240a.45.45,0,0,1-.45-.44V233a.45.45,0,0,1,.89,0v6.57A.44.44,0,0,1,119.55,240Z" fill="#231f20"/><path d="M127.12,233.42a.45.45,0,0,1-.44-.45v-5.24a.45.45,0,0,1,.89,0V233A.45.45,0,0,1,127.12,233.42Z" fill="#231f20"/><path d="M133,231.92a.45.45,0,0,1-.45-.45v-6.11a.45.45,0,0,1,.89,0v6.11A.45.45,0,0,1,133,231.92Z" fill="#231f20"/><path d="M138.58,228.86a.44.44,0,0,1-.44-.44V224a.45.45,0,0,1,.89,0v4.46A.45.45,0,0,1,138.58,228.86Z" fill="#231f20"/><path d="M144.13,224.41a.45.45,0,0,1-.44-.45v-4.5a.45.45,0,0,1,.89,0V224A.45.45,0,0,1,144.13,224.41Z" fill="#231f20"/><polygon points="166.14 254.18 184.85 216.46 218.16 216.46 243.87 254.18 166.14 254.18" fill="#d1d3d4"/><path d="M243.87,254.63H166.14a.46.46,0,0,1-.41-.66l18.71-37.72a.46.46,0,0,1,.41-.25h33.31a.45.45,0,0,1,.37.2l25.72,37.72a.47.47,0,0,1,0,.47A.45.45,0,0,1,243.87,254.63Zm-77-.91H243l-25.1-36.81H185.13Z" fill="#231f20"/><polygon points="39.89 219.46 39.89 236.72 92.33 219.46 39.89 219.46" fill="#231f20"/><path d="M39.89,237.22a.54.54,0,0,1-.3-.1.48.48,0,0,1-.2-.4V219.46a.5.5,0,0,1,.5-.5H92.33a.5.5,0,0,1,.49.42.49.49,0,0,1-.34.55L40,237.19A.4.4,0,0,1,39.89,237.22Zm.5-17.26V236L89.21,220Z" fill="#231f20"/><path d="M70.6,254.18s-3.2-46.26-5.4-46.26-5.86,46.26-5.86,46.26Z" fill="#68e1fd"/><path d="M70.6,254.77H59.34a.57.57,0,0,1-.43-.19.58.58,0,0,1-.16-.45c3.7-46.8,5.7-46.8,6.45-46.8s1.91,0,4.11,23.66c1.07,11.44,1.87,23,1.88,23.15a.6.6,0,0,1-.16.44A.59.59,0,0,1,70.6,254.77ZM60,253.59H70c-1.12-16-3.29-40.68-4.78-44.69C63.67,212.9,61.25,237.62,60,253.59Z" fill="#231f20"/><path d="M156.52,218s.66-20-1.22-20.56-4.5,20.65-2.72,21.31S156.48,219.46,156.52,218Z" fill="#68e1fd"/><path d="M154.84,219.61a7.79,7.79,0,0,1-2.41-.48c-2.07-.76,0-16.12,1.39-20.28.21-.64.72-2.13,1.61-1.87,2,.6,1.74,14.88,1.54,21a1.55,1.55,0,0,1-.67,1.27A2.65,2.65,0,0,1,154.84,219.61Zm.38-21.72c-.5.55-1.46,3.78-2.21,9.78-.83,6.59-.63,10.25-.23,10.65a4,4,0,0,0,3,.18.64.64,0,0,0,.28-.55h0C156.38,208.85,156.13,199.05,155.22,197.89Z" fill="#231f20"/><path d="M153,220.36s0-21.08-2.26-22.3-1.54,2.91-2.15,5.63-2.63,15.17-.57,16.15S152.37,221.72,153,220.36Z" fill="#68e1fd"/><path d="M151.71,221.49a10.63,10.63,0,0,1-3.92-1.25c-2.77-1.32.29-16.49.32-16.65a16.79,16.79,0,0,0,.3-2.56c.12-1.63.21-3,1-3.5a1.5,1.5,0,0,1,1.47.14c.58.32,2.48,2.89,2.48,22.69a.47.47,0,0,1,0,.17,1.56,1.56,0,0,1-.87.84A2.47,2.47,0,0,1,151.71,221.49ZM150,198.29a.22.22,0,0,0-.12,0c-.4.22-.5,1.64-.58,2.78a18.12,18.12,0,0,1-.32,2.7c-.94,4.18-2.28,14.94-.81,15.64.84.4,3.07,1.46,4,1.1a.57.57,0,0,0,.32-.27c0-10.21-.76-21.13-2-21.81A1.14,1.14,0,0,0,150,198.29Zm3,22.07h0Z" fill="#231f20"/><path d="M146.87,221.05s-3.49,2.82-4.61.94,1.5-23.37,2.63-23.65S149.22,218.7,146.87,221.05Z" fill="#68e1fd"/><path d="M143.45,223.08a2.34,2.34,0,0,1-.38,0,1.7,1.7,0,0,1-1.19-.83c-1.22-2,1.19-20.92,2.32-23.66a1,1,0,0,1,.58-.65c.2,0,.5,0,.75.44,1.19,2.1,4.2,20.48,1.66,23l0,0C146.93,221.58,145,223.08,143.45,223.08Zm1.46-24c-1.26,3.24-3.14,21.21-2.27,22.66a.8.8,0,0,0,.59.4c1,.19,2.74-1,3.34-1.45.83-.87.92-5.3.25-11.29A55.92,55.92,0,0,0,144.91,199.11Zm2,21.94h0Z" fill="#231f20"/><path d="M140.47,224.72c.19-.21.19-26.4-1.22-27.33s-3.28,25.35-2.44,26.86A2.39,2.39,0,0,0,140.47,224.72Z" fill="#68e1fd"/><path d="M138.82,225.81l-.34,0a2.59,2.59,0,0,1-2-1.33c-.67-1.19.63-25.78,2.33-27.36a.59.59,0,0,1,.74-.08c.3.2.53.67.76,2.43.61,4.69,1.05,25,.55,25.56A2.72,2.72,0,0,1,138.82,225.81Zm.34-27.58c-1.07,3.59-2.72,24.16-2,25.8a1.76,1.76,0,0,0,1.38.88,2.07,2.07,0,0,0,1.48-.41C140.26,222.41,140.09,201.9,139.16,198.23Z" fill="#231f20"/><path d="M137.47,225.84s-.56-27.09-1.88-28-3.09,1-3.37,2.47-3,23.66-1.51,25.91S136.53,228.09,137.47,225.84Z" fill="#68e1fd"/><path d="M133.94,228.32a4.37,4.37,0,0,1-3.72-1.78c-1.76-2.64,1.37-26.11,1.42-26.33a4.39,4.39,0,0,1,2.35-3,2,2,0,0,1,1.94.17c1.29.89,1.87,16,2.13,28.47a.52.52,0,0,1-.05.24,4.06,4.06,0,0,1-3.5,2.22A5.44,5.44,0,0,1,133.94,228.32Zm.9-30.13a1.17,1.17,0,0,0-.4.09,3.24,3.24,0,0,0-1.65,2.14c-.42,2.26-2.86,23.56-1.59,25.47a3.43,3.43,0,0,0,3.19,1.23,3,3,0,0,0,2.49-1.4c-.21-9.9-.84-25.88-1.68-27.43A.7.7,0,0,0,134.84,198.19Zm.34.06Z" fill="#231f20"/><path d="M129,228.66s1.51-25.34,0-27.69-3.09,10.42-3.56,13.84-1.11,10.4-.84,12.92S127.34,231.1,129,228.66Z" fill="#68e1fd"/><path d="M126.75,230.7a2.32,2.32,0,0,1-.59-.07,3.06,3.06,0,0,1-2.12-2.84c-.3-2.69.41-9.95.83-13.06L125,214c1.52-11.34,2.4-13.62,3.48-13.86a1,1,0,0,1,1.06.53c1.53,2.39.34,23.78.09,28a.54.54,0,0,1-.1.3A3.49,3.49,0,0,1,126.75,230.7Zm1.86-29.23c-.49.84-1.28,3.86-2.47,12.67l-.1.75c-.44,3.25-1.1,10.3-.83,12.78a1.94,1.94,0,0,0,1.23,1.82,2,2,0,0,0,2-1C129,219,129.51,203.81,128.61,201.47Zm.41,27.19h0Z" fill="#231f20"/><path d="M118.67,196.29c-.16,0-.26.29-.67.79-1.33,1.64-1.42,5.62-1.75,7.6-.64,3.85-1.13,7.73-1.56,11.61-.41,3.69-.76,7.38-1,11.08-.1,1.78-.57,4.23,0,6,2,6.06,11.68,3.11,11.28-2.77a233,233,0,0,0-3-24.41c-.48-2.67-.88-6.78-2.6-9C119,196.57,118.81,196.31,118.67,196.29Z" fill="#68e1fd"/><path d="M118.45,237.28a5.33,5.33,0,0,1-5.28-3.74,12.5,12.5,0,0,1-.16-4.89q.08-.69.12-1.32c.18-3.22.49-6.75,1-11.1.51-4.55,1-8.25,1.57-11.65.08-.46.14-1,.21-1.65.24-2.15.54-4.83,1.67-6.22.14-.17.24-.33.32-.44.18-.27.42-.63.89-.56h0c.36,0,.54.3,1,.89l.13.18c1.53,2,2.06,5.3,2.48,7.95.08.47.15.92.23,1.34a231.51,231.51,0,0,1,3,24.47c.25,3.55-2.68,6-5.7,6.6A7.17,7.17,0,0,1,118.45,237.28Zm.24-40.13a2.74,2.74,0,0,1-.23.31c-.91,1.11-1.2,3.71-1.41,5.6-.07.65-.14,1.24-.22,1.72-.56,3.37-1.06,7.05-1.56,11.58-.47,4.32-.78,7.83-1,11,0,.43-.07.89-.11,1.37a11.5,11.5,0,0,0,.1,4.4c.89,2.68,3.36,3.21,5.37,2.81,2.51-.49,5-2.49,4.76-5.36a231.7,231.7,0,0,0-3-24.34c-.08-.43-.15-.89-.23-1.37-.4-2.51-.9-5.64-2.25-7.42l-.14-.18Zm-.1-.27h0Zm-.18-.08Z" fill="#231f20"/><path d="M105.84,238a6.65,6.65,0,0,0,6.29,2.16c4.22-.57,6.42-5.07,6.17-9.29s-3.93-30.23-6.22-30.13S100.49,233.16,105.84,238Z" fill="#68e1fd"/><path d="M110.94,240.78a7.14,7.14,0,0,1-5.43-2.32l-.07-.08c-4.39-3.94.15-23.64,3.43-32.82,1.94-5.41,2.75-5.44,3.18-5.46.75,0,2-.09,4.48,13.93,1.25,7.08,2.23,14.65,2.35,16.75.26,4.34-2,9.29-6.67,9.91A10,10,0,0,1,110.94,240.78Zm1.15-39.44c-1.54,1.5-6,15.62-7.08,26.27-.51,5.22-.08,8.73,1.23,9.9h0l.14.15a6.12,6.12,0,0,0,5.67,1.86c4-.53,5.88-4.86,5.66-8.67C117.4,225.68,114,203.3,112.09,201.34Z" fill="#231f20"/><path d="M96.93,244.38s4.64,2.81,8.58,0-1-48.71-2.39-49.27-3.74,10.81-5,19.28S94.11,239.59,96.93,244.38Z" fill="#68e1fd"/><path d="M101.53,246.23a10.41,10.41,0,0,1-4.91-1.35.64.64,0,0,1-.2-.2c-2.63-4.47-.88-17.68,1-29.7l.11-.68c.47-3.07,2.93-18.46,5.06-19.68a.89.89,0,0,1,.78-.06c.39.16,1,.39,2.27,11,0,.37,4.27,36.4.25,39.28A7.31,7.31,0,0,1,101.53,246.23ZM97.36,244c.74.39,4.59,2.25,7.81,0,3-2.15-.47-42.76-2.27-48-.94,1.56-2.71,8.58-4.24,18.55l-.1.68C97.26,223.61,94.85,239.29,97.36,244Z" fill="#231f20"/><path d="M93.35,249.27c-3.35.26-6.35-.12-6.17-5.19s1.87-43.52,3.38-46.55c1.41-2.82,2.57-.56,3.57.75s4.13,41.67,3.94,44.86S96.7,249,93.35,249.27Z" fill="#68e1fd"/><path d="M92,249.92a5.58,5.58,0,0,1-4-1.25c-1-1-1.46-2.47-1.38-4.61,0-.43,1.73-43.38,3.44-46.79.53-1.07,1.12-1.62,1.81-1.68,1-.1,1.75.95,2.4,1.86.12.16.23.33.35.47.52.7,1.38,8.11,2.53,22,.82,9.81,1.63,21.47,1.53,23.22-.31,5.2-3,6.5-5.26,6.67h0C92.93,249.89,92.45,249.92,92,249.92Zm0-53.15h0c-.17,0-.48.29-.85,1-1.31,2.63-3,36.86-3.32,46.31-.06,1.78.27,3,1,3.72,1,1,2.86,1,4.52.86h0c2.6-.21,4-2,4.17-5.57.2-3.29-2.94-42.63-3.85-44.51l-.34-.47C92.93,197.62,92.31,196.77,92,196.77Z" fill="#231f20"/><path d="M39.44,195.25v58.93h5.32S42,205.05,39.44,195.25Z" fill="#68e1fd"/><path d="M44.76,254.77H39.44a.59.59,0,0,1-.59-.59V195.25a.59.59,0,0,1,.51-.58.6.6,0,0,1,.65.43c2.58,9.75,5.23,57,5.34,59a.6.6,0,0,1-.59.63ZM40,253.59h4.12c-.28-4.81-2.12-36.16-4.12-51.46Z" fill="#231f20"/><polygon points="360.68 247.54 275.56 216.46 233.44 216.46 273.04 254.18 360.68 254.18 360.68 247.54" fill="#68e1fd"/><path d="M360.68,254.62H273a.47.47,0,0,1-.31-.12l-39.6-37.72a.44.44,0,0,1,.31-.77h42.12a.41.41,0,0,1,.16,0l85.11,31.08a.46.46,0,0,1,.29.42v6.64A.44.44,0,0,1,360.68,254.62Zm-87.46-.89h87v-5.88L275.49,216.9H234.55Z" fill="#231f20"/><path d="M316.83,252.75a.44.44,0,0,1-.44-.44v-6.68a.45.45,0,0,1,.89,0v6.68A.45.45,0,0,1,316.83,252.75Z" fill="#231f20"/><path d="M307.64,249.41a.45.45,0,0,1-.45-.44v-8.78a.45.45,0,0,1,.89,0V249A.44.44,0,0,1,307.64,249.41Z" fill="#231f20"/><path d="M299,242.8a.44.44,0,0,1-.45-.44v-5.64a.45.45,0,1,1,.89,0v5.64A.44.44,0,0,1,299,242.8Z" fill="#231f20"/><path d="M290.74,240a.44.44,0,0,1-.44-.44V233a.45.45,0,0,1,.89,0v6.57A.45.45,0,0,1,290.74,240Z" fill="#231f20"/><path d="M283.16,233.42a.45.45,0,0,1-.44-.45v-5.24a.45.45,0,0,1,.89,0V233A.45.45,0,0,1,283.16,233.42Z" fill="#231f20"/><path d="M277.25,231.92a.44.44,0,0,1-.44-.45v-6.11a.44.44,0,1,1,.88,0v6.11A.44.44,0,0,1,277.25,231.92Z" fill="#231f20"/><path d="M271.7,228.86a.44.44,0,0,1-.44-.44V224a.45.45,0,0,1,.89,0v4.46A.45.45,0,0,1,271.7,228.86Z" fill="#231f20"/><path d="M266.15,224.41a.45.45,0,0,1-.44-.45v-4.5a.45.45,0,0,1,.89,0V224A.45.45,0,0,1,266.15,224.41Z" fill="#231f20"/><path d="M339.69,254.18s3.2-46.26,5.4-46.26S351,254.18,351,254.18Z" fill="#68e1fd"/><path d="M351,254.77H339.69a.57.57,0,0,1-.43-.19.56.56,0,0,1-.16-.44c3.24-46.81,5.24-46.81,6-46.81s1.9,0,4.34,23.66c1.18,11.44,2.1,23,2.11,23.14a.62.62,0,0,1-.16.45A.59.59,0,0,1,351,254.77Zm-10.63-1.18h10c-1.27-16-3.7-40.69-5.22-44.69C343.61,212.91,341.43,237.63,340.32,253.59Z" fill="#231f20"/><path d="M253.76,218s-.65-20,1.22-20.56,4.51,20.65,2.73,21.31S253.8,219.46,253.76,218Z" fill="#68e1fd"/><path d="M255.45,219.61a2.63,2.63,0,0,1-1.46-.37,1.5,1.5,0,0,1-.67-1.27c-.2-6.11-.45-20.39,1.54-21,.89-.27,1.4,1.23,1.61,1.87,1.39,4.16,3.46,19.52,1.39,20.28A7.79,7.79,0,0,1,255.45,219.61Zm-.39-21.73c-.9,1-1.15,10.91-.85,20.06h0a.61.61,0,0,0,.27.55,4,4,0,0,0,3.07-.21c.35-.37.56-4-.27-10.62C256.52,201.63,255.55,198.41,255.06,197.88Z" fill="#231f20"/><path d="M257.33,220.36s0-21.08,2.25-22.3,1.55,2.91,2.16,5.63,2.63,15.17.56,16.15S257.92,221.72,257.33,220.36Z" fill="#68e1fd"/><path d="M258.57,221.49a2.41,2.41,0,0,1-.78-.12,1.53,1.53,0,0,1-.87-.84.47.47,0,0,1,0-.17c0-19.8,1.9-22.37,2.48-22.69a1.5,1.5,0,0,1,1.47-.14c.82.46.92,1.87,1,3.5a19.76,19.76,0,0,0,.3,2.56c0,.16,3.1,15.33.33,16.65A10.61,10.61,0,0,1,258.57,221.49Zm-.8-1.23a.63.63,0,0,0,.33.27c.95.36,3.17-.7,4-1.1,1.48-.7.14-11.46-.8-15.64a18.12,18.12,0,0,1-.32-2.7c-.08-1.14-.18-2.56-.58-2.78-.16-.08-.45.05-.62.14C258.53,199.13,257.78,210.05,257.77,220.26Z" fill="#231f20"/><path d="M263.41,221.05s3.49,2.82,4.62.94-1.5-23.37-2.63-23.65S261.07,218.7,263.41,221.05Z" fill="#68e1fd"/><path d="M266.84,223.08c-1.57,0-3.48-1.5-3.71-1.69l0,0c-2.54-2.53.47-20.91,1.65-23,.26-.45.55-.49.76-.44a1,1,0,0,1,.57.65c1.14,2.74,3.54,21.64,2.33,23.66a1.7,1.7,0,0,1-1.19.83A2.43,2.43,0,0,1,266.84,223.08Zm-3.13-2.36c.61.48,2.33,1.64,3.35,1.45a.8.8,0,0,0,.59-.4c.87-1.45-1-19.42-2.28-22.66a56.22,56.22,0,0,0-1.9,10.32C262.79,215.42,262.89,219.85,263.71,220.72Z" fill="#231f20"/><path d="M269.81,224.72c-.18-.21-.18-26.4,1.22-27.33s3.29,25.35,2.44,26.86A2.39,2.39,0,0,1,269.81,224.72Z" fill="#68e1fd"/><path d="M271.47,225.81a2.7,2.7,0,0,1-2-.8h0c-.5-.56-.07-20.87.55-25.56.23-1.76.46-2.23.76-2.43a.58.58,0,0,1,.73.08c1.7,1.58,3,26.17,2.34,27.36a2.63,2.63,0,0,1-2.05,1.33Zm-1.24-1.31a2,2,0,0,0,1.48.41,1.76,1.76,0,0,0,1.38-.88c.76-1.65-.9-22.38-2-25.85C270.2,201.62,270,222.4,270.23,224.5Z" fill="#231f20"/><path d="M272.82,225.84s.56-27.09,1.87-28,3.1,1,3.38,2.47,3,23.66,1.5,25.91S273.75,228.09,272.82,225.84Z" fill="#68e1fd"/><path d="M276.34,228.32l-.56,0a4.09,4.09,0,0,1-3.51-2.22.67.67,0,0,1,0-.24c.26-12.5.84-27.58,2.13-28.47a2,2,0,0,1,1.93-.17,4.4,4.4,0,0,1,2.36,3c0,.22,3.18,23.68,1.41,26.33A4.35,4.35,0,0,1,276.34,228.32Zm-2.93-2.6a3,3,0,0,0,2.48,1.4,3.43,3.43,0,0,0,3.19-1.23c1.28-1.91-1.16-23.21-1.59-25.47a3.19,3.19,0,0,0-1.65-2.14.82.82,0,0,0-.76,0C274.25,199.84,273.62,215.82,273.41,225.72Zm1.7-27.47Z" fill="#231f20"/><path d="M281.26,228.66s-1.5-25.34,0-27.69,3.1,10.42,3.57,13.84,1.11,10.4.84,12.92S283,231.1,281.26,228.66Z" fill="#68e1fd"/><path d="M283.53,230.7a3.49,3.49,0,0,1-2.75-1.71.64.64,0,0,1-.11-.3c-.25-4.26-1.43-25.65.1-28a1,1,0,0,1,1.05-.53c1.09.24,2,2.52,3.49,13.86l.1.75c.43,3.11,1.14,10.37.84,13.06a3.07,3.07,0,0,1-2.12,2.84A2.46,2.46,0,0,1,283.53,230.7Zm-1.69-2.25a2,2,0,0,0,2,1,1.94,1.94,0,0,0,1.24-1.82c.27-2.48-.39-9.53-.83-12.78l-.11-.75c-1.17-8.72-2-11.77-2.45-12.65C280.79,204.15,281.29,219.11,281.84,228.45Z" fill="#231f20"/><path d="M291.61,196.29c.16,0,.26.29.67.79,1.34,1.64,1.42,5.62,1.76,7.6.64,3.85,1.13,7.73,1.56,11.61.4,3.69.76,7.38,1,11.08.11,1.78.57,4.23,0,6-2,6.06-11.68,3.11-11.28-2.77a230.4,230.4,0,0,1,3-24.41c.47-2.67.88-6.78,2.59-9C291.3,196.57,291.48,196.31,291.61,196.29Z" fill="#68e1fd"/><path d="M291.83,237.28a7.14,7.14,0,0,1-1.43-.14c-3-.6-5.95-3-5.71-6.6a233.86,233.86,0,0,1,3-24.47c.07-.42.15-.87.22-1.34.43-2.65.95-5.93,2.48-7.95l.14-.19c.45-.58.63-.83,1-.88s.71.29.88.56c.08.11.19.27.33.44,1.13,1.39,1.43,4.07,1.67,6.23.07.62.13,1.18.21,1.64.56,3.39,1.06,7.09,1.56,11.65.48,4.35.79,7.88,1,11.1,0,.42.07.86.11,1.32a12.5,12.5,0,0,1-.15,4.89A5.34,5.34,0,0,1,291.83,237.28Zm-.23-40.13-.12.15-.14.19c-1.35,1.78-1.85,4.91-2.25,7.42-.08.48-.15.94-.23,1.37a228.76,228.76,0,0,0-3,24.34c-.2,2.87,2.24,4.87,4.75,5.36,2,.4,4.49-.13,5.38-2.82a11.64,11.64,0,0,0,.1-4.39c-.05-.48-.09-.94-.12-1.37-.18-3.2-.49-6.71-1-11-.5-4.54-1-8.22-1.55-11.58-.08-.48-.15-1.07-.22-1.71-.21-1.9-.5-4.5-1.41-5.61A2.74,2.74,0,0,1,291.6,197.15Zm0-.86h0Z" fill="#231f20"/><path d="M304.44,238a6.63,6.63,0,0,1-6.28,2.16c-4.23-.57-6.42-5.07-6.17-9.29s3.92-30.23,6.22-30.13S309.79,233.16,304.44,238Z" fill="#68e1fd"/><path d="M299.35,240.78a10,10,0,0,1-1.27-.09c-4.68-.62-6.93-5.57-6.68-9.91.13-2.1,1.11-9.67,2.35-16.75,2.47-14,3.73-14,4.48-13.93.44,0,1.25.05,3.19,5.46,3.28,9.18,7.81,28.88,3.42,32.82l-.07.08A7.12,7.12,0,0,1,299.35,240.78Zm-1.16-39.44c-1.89,2-5.3,24.34-5.61,29.51-.23,3.81,1.68,8.14,5.65,8.67a6.11,6.11,0,0,0,5.67-1.86l.15-.15h0c1.31-1.17,1.74-4.68,1.23-9.9C304.23,217,299.74,202.84,298.19,201.34Zm6.65,37Z" fill="#231f20"/><path d="M313.36,244.38s-4.65,2.81-8.59,0,1-48.71,2.4-49.27,3.74,10.81,5,19.28S316.18,239.59,313.36,244.38Z" fill="#68e1fd"/><path d="M308.76,246.23a7.29,7.29,0,0,1-4.33-1.37c-4-2.88.2-38.92.25-39.29,1.28-10.62,1.87-10.85,2.27-11a.9.9,0,0,1,.78.06c2.13,1.22,4.59,16.61,5.06,19.68l.1.68c1.85,12,3.61,25.23,1,29.7a.64.64,0,0,1-.2.2A10.41,10.41,0,0,1,308.76,246.23Zm-1.38-50.3c-1.79,5.21-5.27,45.82-2.26,48,3.22,2.3,7.07.44,7.81,0,2.51-4.66.1-20.33-1.2-28.79l-.1-.68C310.09,204.5,308.33,197.49,307.38,195.93Zm6,48.45h0Z" fill="#231f20"/><path d="M316.94,249.27c3.35.26,6.35-.12,6.16-5.19s-1.86-43.52-3.38-46.55c-1.4-2.82-2.56-.56-3.56.75S312,240,312.22,243.14,313.58,249,316.94,249.27Z" fill="#68e1fd"/><path d="M318.32,249.92c-.48,0-1,0-1.43-.07-2.23-.17-5-1.47-5.26-6.67-.1-1.75.71-13.41,1.52-23.22,1.16-13.93,2-21.34,2.54-22l.35-.47c.65-.91,1.37-2,2.4-1.86.68.06,1.27.61,1.81,1.68,1.71,3.41,3.43,46.36,3.44,46.79.08,2.14-.37,3.65-1.38,4.61A5.58,5.58,0,0,1,318.32,249.92Zm0-53.15c-.36,0-1,.85-1.33,1.36l-.37.51c-.89,1.84-4,41.18-3.83,44.47.21,3.54,1.58,5.36,4.18,5.57h0c1.66.13,3.48.13,4.51-.86.76-.72,1.09-1.94,1-3.72-.34-9.45-2-43.67-3.31-46.31-.37-.73-.68-1-.85-1Z" fill="#231f20"/><path d="M333.57,176.8a.67.67,0,0,1-.38-.13.62.62,0,0,1-.11-.86,9,9,0,0,1,6.1-3.4,4.73,4.73,0,0,1,2-3.63,11.92,11.92,0,0,1,4.12-1.77c1-.29,4.11-1.18,5.62.77a.62.62,0,0,1-.1.86.63.63,0,0,1-.87-.1c-.67-.88-2.08-1-4.31-.35a10.91,10.91,0,0,0-3.72,1.57,3.34,3.34,0,0,0-1.43,3.1.62.62,0,0,1-.59.74,7.7,7.7,0,0,0-5.82,3A.63.63,0,0,1,333.57,176.8Z" fill="#231f20"/><path d="M351.74,192.19a.65.65,0,0,1-.43-.17,15,15,0,0,0-3.44-2.79,4.67,4.67,0,0,0-3.93-.37.63.63,0,0,1-.78-.27,4.37,4.37,0,0,0-3.22-2.12,4.41,4.41,0,0,0-3.72,1.05.6.6,0,0,1-.86,0,.62.62,0,0,1,0-.87,5.66,5.66,0,0,1,4.75-1.37,5.73,5.73,0,0,1,3.84,2.29,6.07,6.07,0,0,1,4.48.6,15.82,15.82,0,0,1,3.73,3,.61.61,0,0,1,0,.87A.62.62,0,0,1,351.74,192.19Z" fill="#231f20"/><path d="M44.68,191.28a27.45,27.45,0,0,0,3,.05,2.81,2.81,0,0,1,2.51,1.39,4.89,4.89,0,0,0,.39.94c.44.6,1.32.53,2,.67a6.26,6.26,0,0,1,2.89,1.86L57.41,198" fill="#fff"/><path d="M57.41,198.67a.7.7,0,0,1-.47-.19l-1.88-1.79A5.6,5.6,0,0,0,52.51,195l-.49-.07a2.21,2.21,0,0,1-2.35-1.66c0-.09-.06-.19-.1-.28a2.2,2.2,0,0,0-1.92-1,11.41,11.41,0,0,0-1.17,0,8.89,8.89,0,0,1-1.92-.06.69.69,0,0,1-.56-.79.68.68,0,0,1,.79-.56,8,8,0,0,0,1.63,0,11.63,11.63,0,0,1,1.32,0,3.41,3.41,0,0,1,3.09,1.8,2.86,2.86,0,0,1,.15.41,1.48,1.48,0,0,0,.16.39c.16.22.59.27,1,.32.2,0,.4.05.59.09a6.79,6.79,0,0,1,3.24,2l1.88,1.78a.69.69,0,0,1,0,1A.7.7,0,0,1,57.41,198.67Z" fill="#231f20"/><path d="M182.28,240.65a.46.46,0,0,1-.43-.62l4.58-12.46a.46.46,0,0,1,.86.32l-4.58,12.46A.47.47,0,0,1,182.28,240.65Z" fill="#fff"/><path d="M230.57,245.92a.45.45,0,0,1-.44-.33c-.23-.58-3.83-6.05-6-9.37a.45.45,0,0,1,.12-.63.47.47,0,0,1,.64.13c1.81,2.7,6,9,6.17,9.64a.46.46,0,0,1-.34.55Z" fill="#fff"/><path d="M214.35,239.7a.46.46,0,0,1-.42-.28l-4.21-10.58a.45.45,0,0,1,.25-.59.46.46,0,0,1,.6.26l4.21,10.57a.45.45,0,0,1-.26.59A.47.47,0,0,1,214.35,239.7Z" fill="#fff"/><path d="M195,231.93h-.08a.45.45,0,0,1-.37-.52l1.53-8.84a.45.45,0,0,1,.53-.37.45.45,0,0,1,.37.53l-1.53,8.83A.46.46,0,0,1,195,231.93Z" fill="#fff"/><path d="M198.87,247.7h-.06a.46.46,0,0,1-.39-.52l1.17-7.7a.44.44,0,0,1,.52-.38.46.46,0,0,1,.38.52l-1.16,7.7A.46.46,0,0,1,198.87,247.7Z" fill="#fff"/><path d="M218.68,230.57a.46.46,0,0,1-.41-.24c-.14-.27-3.41-6.52-3.75-8.54a.46.46,0,1,1,.9-.15c.31,1.87,3.63,8.2,3.66,8.26a.46.46,0,0,1-.19.62A.54.54,0,0,1,218.68,230.57Z" fill="#fff"/><path d="M360.64,254.68H39.44a.5.5,0,0,1-.5-.5V45.82a.5.5,0,0,1,.5-.5h321.2a.5.5,0,0,1,.5.5V254.18A.5.5,0,0,1,360.64,254.68Zm-320.7-1h320.2V46.32H39.94Z" fill="#231f20"/></g></svg>