<svg xmlns="http://www.w3.org/2000/svg" viewBox="0 0 400 300"><g id="_124_team_presentation_flatline" data-name="#124_team_presentation_flatline"><rect x="140.58" y="39.95" width="118.83" height="75.24" rx="3.44" fill="#fff"/><path d="M256,115.69H144a3.94,3.94,0,0,1-3.94-3.93V43.39A4,4,0,0,1,144,39.45H256a4,4,0,0,1,3.94,3.94v68.37A3.94,3.94,0,0,1,256,115.69ZM144,40.45a2.94,2.94,0,0,0-2.94,2.94v68.37a2.94,2.94,0,0,0,2.94,2.93H256a2.94,2.94,0,0,0,2.94-2.93V43.39A2.94,2.94,0,0,0,256,40.45Z" fill="#d1d3d4"/><path d="M252.75,110H147.25a.5.5,0,0,1-.5-.5V45.68a.5.5,0,0,1,.5-.5h105.5a.5.5,0,0,1,.5.5v63.79A.5.5,0,0,1,252.75,110Zm-105-1h104.5V46.18H147.75Z" fill="#d1d3d4"/><path d="M270.9,120.35h40.38a20.68,20.68,0,0,1,20.5,23.41l-6.52,49H243.15l7.25-54.48A20.68,20.68,0,0,1,270.9,120.35Z" fill="#231f20"/><path d="M296.1,75.5a14.13,14.13,0,0,1,11.46,2.75A14.59,14.59,0,0,1,313,86.08a12.31,12.31,0,0,1-1.94,10.31,11.37,11.37,0,0,1-9.39,4.55,13.34,13.34,0,0,1-9.61-5.26c-1.71-2.15-4.08-5.61-4.49-8.4C286.86,82.37,291.5,76.57,296.1,75.5Z" fill="#fff"/><path d="M302.09,101.45h-.43a13.91,13.91,0,0,1-10-5.44c-1.52-1.91-4.14-5.57-4.59-8.64C286.31,82,291.33,76.1,296,75h0a14.57,14.57,0,0,1,11.87,2.83,15,15,0,0,1,5.63,8.1,12.73,12.73,0,0,1-2,10.74A11.85,11.85,0,0,1,302.09,101.45ZM296.21,76c-4.16,1-8.83,6.45-8.13,11.22.43,3,3.21,6.69,4.38,8.16a12.89,12.89,0,0,0,9.24,5.07,10.81,10.81,0,0,0,9-4.35,11.84,11.84,0,0,0,1.85-9.89,14,14,0,0,0-5.26-7.55A13.61,13.61,0,0,0,296.21,76Z" fill="#231f20"/><path d="M299,84.57a18.16,18.16,0,0,1,6,7.58,11.68,11.68,0,0,1-.25,9.5c-.42-2.48-2.35-4.38-4.19-6.1a50.5,50.5,0,0,0-7.64-6.29,20.36,20.36,0,0,0-4.39-2.1c-1.21-.4-3.67-.5-4.47-1.65-1.74-2.5,3.32-3.94,5.09-4.19C292.72,80.81,296.18,82.44,299,84.57Z" fill="#231f20"/><path d="M304.73,102.15h-.08a.49.49,0,0,1-.41-.41c-.38-2.23-2.06-4-4-5.82a49.54,49.54,0,0,0-7.57-6.22,19.86,19.86,0,0,0-4.28-2.06,11.72,11.72,0,0,0-1.21-.28c-1.32-.26-2.83-.56-3.51-1.55a2,2,0,0,1-.29-2.06c.81-1.85,4.41-2.73,5.72-2.92,4.07-.57,7.8,1.51,10.21,3.35h0a18.62,18.62,0,0,1,6.18,7.8,12.21,12.21,0,0,1-.27,9.91A.52.52,0,0,1,304.73,102.15ZM290.46,81.73a8.88,8.88,0,0,0-1.26.08c-1.46.21-4.4,1.1-4.94,2.33a1,1,0,0,0,.19,1.09c.45.65,1.8.92,2.89,1.14.49.1,1,.19,1.33.31a20.86,20.86,0,0,1,4.49,2.16,50.87,50.87,0,0,1,7.73,6.35,15.1,15.1,0,0,1,3.93,5,11.58,11.58,0,0,0-.3-7.83A17.68,17.68,0,0,0,298.67,85h0C296.66,83.44,293.7,81.73,290.46,81.73Z" fill="#231f20"/><path d="M238.12,173.82a168.54,168.54,0,0,1,19.09-41.68c3.09-4.08,12-7.24,24.8-5.48,0,0,28.36.58,33.85,9.59,3.16,5.19,5.84,19,7.59,39.47C323.45,175.72,236.07,174.11,238.12,173.82Z" fill="#68e1fd"/><polygon points="277.58 130.89 278.2 169.59 295.23 128.78 277.58 130.89" fill="#231f20"/><path d="M278.2,170.08h-.09a.52.52,0,0,1-.41-.49l-.62-38.69a.49.49,0,0,1,.44-.5l17.65-2.12a.49.49,0,0,1,.46.19.53.53,0,0,1,.06.5l-17,40.81A.5.5,0,0,1,278.2,170.08Zm-.12-38.74.58,35.84,15.78-37.81Z" fill="#231f20"/><path d="M269.33,92.05c4.42-10.06,20.36-13.18,30.53-4.18,4.48,4,5.8,10.06,4,15.83a19.7,19.7,0,0,1-11.12,12.37,17.15,17.15,0,0,1-16.3-1.88,20.41,20.41,0,0,1-6.16-7.83C267.64,100.77,267.64,95.9,269.33,92.05Z" fill="#fff"/><path d="M286.29,117.8a17.16,17.16,0,0,1-10.13-3.2,20.91,20.91,0,0,1-6.32-8c-2.53-5.33-2.86-10.42-1-14.73h0c2-4.65,6.5-8,12.22-9.29a21.84,21.84,0,0,1,19.1,4.94c4.47,4,6.06,10.22,4.16,16.34a20.07,20.07,0,0,1-11.42,12.69A17.62,17.62,0,0,1,286.29,117.8Zm-.53-34.75a20.91,20.91,0,0,0-4.45.48c-5.41,1.19-9.61,4.37-11.52,8.72h0c-1.77,4-1.44,8.84.95,13.9a19.73,19.73,0,0,0,6,7.64,16.66,16.66,0,0,0,15.81,1.81,19.05,19.05,0,0,0,10.83-12c1.79-5.75.31-11.61-3.86-15.3A20.81,20.81,0,0,0,285.76,83.05Zm-16.43,9h0Z" fill="#231f20"/><path d="M273.65,106.69a7,7,0,0,0-1.36-2.51,2.33,2.33,0,0,0-2.62-.62,2.23,2.23,0,0,0-1.1,1.77,5,5,0,0,0,.36,2.13,8.37,8.37,0,0,0,2.07,3.41,5,5,0,0,0,3.65,1.43" fill="#fff"/><path d="M274.36,112.81a5.46,5.46,0,0,1-3.7-1.58,9,9,0,0,1-2.21-3.6,5.56,5.56,0,0,1-.37-2.35,2.7,2.7,0,0,1,1.36-2.17,2.83,2.83,0,0,1,3.2.72,7.33,7.33,0,0,1,1.48,2.68.52.52,0,0,1-.3.65.5.5,0,0,1-.64-.3,6.55,6.55,0,0,0-1.25-2.33,1.87,1.87,0,0,0-2-.53,1.71,1.71,0,0,0-.83,1.38,4.57,4.57,0,0,0,.33,1.92,8.06,8.06,0,0,0,1.94,3.21,4.39,4.39,0,0,0,3.27,1.29.51.51,0,0,1,.53.46.49.49,0,0,1-.46.53Z" fill="#231f20"/><path d="M278.72,119.5l-1.14,11.39s.55,6.48,7.67,5.19a14.41,14.41,0,0,0,10-7.3L296.29,109c.06-1-1.07-2.45-1.39-3.37-.93-2.66-.85-8.11-.85-8.11s-3.51-1.15-12.32-6.55c-2.76.37-4.83,2.69-6.51,4.92-3,4-3.72,9.9-3,14.73C272.63,113.74,274.76,119.58,278.72,119.5Z" fill="#fff"/><path d="M283.47,136.75a6.24,6.24,0,0,1-3.91-1.21,7,7,0,0,1-2.48-4.6l1.09-11c-3.81-.42-6-5.84-6.48-9.33-.63-4.45-.14-10.76,3.13-15.1,1.74-2.31,3.91-4.72,6.84-5.11a.48.48,0,0,1,.33.06c8.63,5.29,12.18,6.49,12.22,6.5a.49.49,0,0,1,.34.48c0,.06-.06,5.4.82,7.94a8,8,0,0,0,.53,1.07,5.2,5.2,0,0,1,.89,2.5h0l-1.06,19.81a.59.59,0,0,1-.05.19,14.77,14.77,0,0,1-10.34,7.59A11.39,11.39,0,0,1,283.47,136.75Zm-5.39-5.81a6.07,6.07,0,0,0,2.09,3.81,6.14,6.14,0,0,0,5,.84,14,14,0,0,0,9.58-7c.08-1.54,1.05-19.57,1.06-19.7a5,5,0,0,0-.78-2,8.91,8.91,0,0,1-.59-1.22c-.82-2.34-.88-6.65-.88-7.92-1.08-.42-4.69-2-11.93-6.38-2.48.42-4.42,2.61-6,4.7-3.08,4.1-3.54,10.11-2.94,14.36.39,2.78,2.36,8.49,6,8.49h.08a.5.5,0,0,1,.49.55l-1.13,11.39Z" fill="#231f20"/><path d="M282.51,101.89s-4.18,5.14-3.39,6.17,3.28.63,3.28.63" fill="#fff"/><path d="M281.33,109.27a3.28,3.28,0,0,1-2.61-.91c-.89-1.17,1.75-4.75,3.41-6.78a.5.5,0,0,1,.7-.08.51.51,0,0,1,.07.71c-2,2.44-3.56,5-3.37,5.56.42.56,1.94.56,2.79.43a.5.5,0,1,1,.16,1A7.26,7.26,0,0,1,281.33,109.27Z" fill="#231f20"/><ellipse cx="278.2" cy="101.21" rx="1.19" ry="0.63" transform="translate(141.01 363.55) rotate(-82.38)" fill="#231f20"/><ellipse cx="287.05" cy="100.03" rx="1.19" ry="0.63" transform="translate(183.68 385.89) rotate(-89.33)" fill="#231f20"/><path d="M293,104.61a8.19,8.19,0,0,1,1.28-2.72,3.66,3.66,0,0,1,3-1.5,2.34,2.34,0,0,1,1.8,1,3.23,3.23,0,0,1,.46,1.36c.38,2.54-.47,5.83-2.85,7.14a2.54,2.54,0,0,1-2.69,0" fill="#fff"/><path d="M295.14,110.77a2.32,2.32,0,0,1-1.48-.48.5.5,0,1,1,.6-.79,2.1,2.1,0,0,0,2.15-.07c2.17-1.2,2.95-4.24,2.6-6.64a2.89,2.89,0,0,0-.38-1.15,1.86,1.86,0,0,0-1.42-.75,3.11,3.11,0,0,0-2.54,1.31,7.79,7.79,0,0,0-1.19,2.55.5.5,0,0,1-.62.34.52.52,0,0,1-.34-.63,8.6,8.6,0,0,1,1.37-2.87,4.12,4.12,0,0,1,3.38-1.7,2.87,2.87,0,0,1,2.19,1.19,3.73,3.73,0,0,1,.54,1.57c.4,2.73-.54,6.24-3.11,7.65A3.67,3.67,0,0,1,295.14,110.77Z" fill="#231f20"/><path d="M257.21,172.51h0a.49.49,0,0,1-.49-.49c0-.84,4.3-23.86,5.17-28.46a.48.48,0,0,1,.58-.4.5.5,0,0,1,.4.58c-2.05,10.93-5.11,27.49-5.15,28.28A.52.52,0,0,1,257.21,172.51Z" fill="#231f20"/><path d="M303.09,174.32a.51.51,0,0,1-.5-.5V142.54a.5.5,0,0,1,.5-.5.5.5,0,0,1,.5.5v31.28A.5.5,0,0,1,303.09,174.32Z" fill="#231f20"/><path d="M278.72,119.5a27.31,27.31,0,0,0,10.87-2s-6.42,7.75-11.39,10.61Z" fill="#231f20"/><path d="M278.2,128.59a.48.48,0,0,1-.26-.07.5.5,0,0,1-.24-.46l.52-8.59a.48.48,0,0,1,.52-.47,27,27,0,0,0,10.65-2,.5.5,0,0,1,.6.15.51.51,0,0,1,0,.62c-.27.32-6.54,7.86-11.53,10.74A.51.51,0,0,1,278.2,128.59Zm1-8.58-.43,7.15c3.35-2.2,7.19-6.3,9.15-8.51A28,28,0,0,1,279.19,120Z" fill="#231f20"/><path d="M273.75,154a.51.51,0,0,1-.36-.15L265.94,146a.47.47,0,0,1-.13-.39.5.5,0,0,1,.21-.36l6.87-4.7L266,135.45a.47.47,0,0,1-.2-.41.49.49,0,0,1,.21-.4l8.34-5.75a.5.5,0,1,1,.57.82l-7.76,5.35,6.88,5.11a.51.51,0,0,1,.2.41.48.48,0,0,1-.22.41l-7,4.76,7,7.4a.49.49,0,0,1,0,.7A.45.45,0,0,1,273.75,154Z" fill="#231f20"/><path d="M288,154.54a.52.52,0,0,1-.43-.24.51.51,0,0,1,.18-.69l10.86-6.48-6-6.77a.5.5,0,0,1-.12-.44.55.55,0,0,1,.28-.35l7.47-3.48-4.33-4.7a.5.5,0,0,1,0-.71.5.5,0,0,1,.7,0l4.8,5.2a.5.5,0,0,1,.12.44.49.49,0,0,1-.28.36l-7.48,3.49,5.92,6.72a.5.5,0,0,1,.12.41.47.47,0,0,1-.24.35l-11.38,6.79A.48.48,0,0,1,288,154.54Z" fill="#231f20"/><path d="M280.49,113.55a5.29,5.29,0,0,1-.8-.06,5,5,0,0,1-3.33-2,.49.49,0,0,1,.16-.69.5.5,0,0,1,.69.15,3.92,3.92,0,0,0,2.65,1.59c1.8.26,3.89-.62,6.22-2.62a.5.5,0,0,1,.65.76C284.48,112.58,282.39,113.55,280.49,113.55Z" fill="#231f20"/><path d="M297.78,169.09s-3.5-8.91-5-9.6a19.94,19.94,0,0,0-7.29-.83c-2.89.43-6.06,5-6.32,6.15-.2.85,7.49,1.49,9.42.52l.6,3Z" fill="#fff"/><path d="M297.78,169.59h0l-8.61-.73a.51.51,0,0,1-.45-.4l-.49-2.46c-2.43.64-8.23.21-9.25-.59a.68.68,0,0,1-.28-.71c.31-1.34,3.62-6.07,6.74-6.53A20.28,20.28,0,0,1,293,159c1.61.74,4.68,8.36,5.28,9.88a.49.49,0,0,1-.07.48A.48.48,0,0,1,297.78,169.59Zm-8.19-1.7,7.43.63c-1.65-4.06-3.68-8.22-4.46-8.58a19.41,19.41,0,0,0-7-.78c-2.47.36-5.32,4.26-5.85,5.55,1.18.53,7.11.94,8.64.18a.51.51,0,0,1,.45,0,.47.47,0,0,1,.27.35Z" fill="#231f20"/><rect x="215.94" y="165.66" width="78.05" height="3.93" fill="#fff"/><path d="M294,170H215.94a.46.46,0,0,1-.46-.46v-3.92a.46.46,0,0,1,.46-.46H294a.46.46,0,0,1,.46.46v3.92A.46.46,0,0,1,294,170Zm-77.59-.91h77.14v-3H216.4Z" fill="#231f20"/><polygon points="272.47 165.66 215.8 165.66 203.7 132.28 260.37 132.28 272.47 165.66" fill="#fff"/><path d="M272.47,166.11H215.8a.46.46,0,0,1-.43-.3l-12.1-33.38a.43.43,0,0,1,0-.41.46.46,0,0,1,.38-.2h56.66a.44.44,0,0,1,.43.3L272.9,165.5a.45.45,0,0,1-.06.42A.44.44,0,0,1,272.47,166.11Zm-56.35-.91h55.7L260,132.73H204.35Z" fill="#231f20"/><line x1="290.77" y1="162.79" x2="288.57" y2="165.33" fill="#fff"/><path d="M288.57,165.83a.49.49,0,0,1-.38-.82l2.2-2.55a.51.51,0,0,1,.71-.05.51.51,0,0,1,0,.71l-2.2,2.54A.48.48,0,0,1,288.57,165.83Z" fill="#231f20"/><path d="M182.48,60.46q8.88,8.87,17.74,17.74a.91.91,0,0,0,.71.3q13.38,0,26.74,0h.45a26.22,26.22,0,1,1-45.87-18.26Z" fill="#68e1fd"/><path d="M202.85,51.32V76.63l.26,0,24.51-.06c.53,0,.53,0,.5-.55A26.3,26.3,0,0,0,204,51.44Z" fill="#d1d3d4"/><path d="M201,76.3v-25a28.33,28.33,0,0,0-8.6,1.81,27.2,27.2,0,0,0-8.84,5.71Z" fill="#d1d3d4"/><path d="M129.9,120.35H89.51A20.68,20.68,0,0,0,69,143.76l6.52,49h82.1l-7.24-54.48A20.68,20.68,0,0,0,129.9,120.35Z" fill="#231f20"/><path d="M170.48,143.88s3-12.34,5.28-14.25,15.32-7.31,16.07-4.91,2.29,7.42,0,9.55-7.2,7-7.2,7l-5.49,13.9Z" fill="#fff"/><path d="M179.12,155.65a.51.51,0,0,1-.41-.2l-8.64-11.26a.48.48,0,0,1-.09-.43c.31-1.28,3.11-12.56,5.44-14.52,2-1.7,12.92-6.41,15.94-5.53a1.31,1.31,0,0,1,1,.86c.78,2.5,2.4,7.7-.16,10.08-2.11,1.95-6.47,6.24-7.11,6.87l-5.45,13.8a.5.5,0,0,1-.41.32ZM171,143.76,179,154.1,184.13,141a.57.57,0,0,1,.12-.18c.05-.05,4.93-4.86,7.21-7,2.09-1.93.54-6.89-.13-9,0-.09-.16-.14-.26-.17-2.52-.74-13,3.64-15,5.32C174.38,131.47,171.92,140.21,171,143.76Z" fill="#231f20"/><path d="M104.13,108.86A80.72,80.72,0,0,1,102,98.36c-.31-3.57.17-7.34,2.2-10.28a6.41,6.41,0,0,1,3.27-2.66,7.09,7.09,0,0,1,3.25.31,35,35,0,0,1,3.08-2,21.2,21.2,0,0,1,7.35-1.79c3.58-.34,7.73-.16,10,2.63,1.67,2,1.81,4.89,1.88,7.53l.18,6.76" fill="#fff"/><path d="M104.12,109.38a.52.52,0,0,1-.5-.41c-.2-.91-.42-1.81-.64-2.72a52.55,52.55,0,0,1-1.49-7.85c-.26-3-.07-7.19,2.28-10.62a7,7,0,0,1,3.55-2.85,6.64,6.64,0,0,1,3.3.24,29.31,29.31,0,0,1,3-1.91,21.57,21.57,0,0,1,7.52-1.84c5.09-.49,8.51.43,10.46,2.81s1.93,5.49,2,7.85l.17,6.76a.51.51,0,0,1-.5.53h0a.52.52,0,0,1-.52-.5l-.18-6.77c-.07-2.75-.26-5.37-1.76-7.22-1.72-2.09-4.84-2.89-9.56-2.43A20.59,20.59,0,0,0,114,84.18c-.91.46-3,2-3,2a.51.51,0,0,1-.46.07,6.38,6.38,0,0,0-2.94-.3,6,6,0,0,0-3,2.45c-2.18,3.18-2.35,7.16-2.11,9.94A52.44,52.44,0,0,0,104,106c.22.92.44,1.83.65,2.75a.51.51,0,0,1-.39.61Z" fill="#231f20"/><path d="M149.17,170.07c-3.93-18.31-13.65-39.7-15.38-40.49-4.22-1.93-26.47-4.1-31.51,4.47-1.57,2.69-.64,20.45,1.38,36Z" fill="#231f20"/><polygon points="125.33 138.02 122.49 144.7 129.83 170.07 118.59 170.07 119.34 144.38 112.31 135.66 125.33 138.02" fill="#fff"/><path d="M129.83,170.59H118.59a.51.51,0,0,1-.37-.15.55.55,0,0,1-.15-.38l.75-25.51L111.91,136a.48.48,0,0,1,0-.58.5.5,0,0,1,.53-.25l13,2.36a.54.54,0,0,1,.36.26.51.51,0,0,1,0,.45L123,144.73l7.29,25.2a.54.54,0,0,1-.09.46A.51.51,0,0,1,129.83,170.59Zm-10.71-1h10L122,144.84a.44.44,0,0,1,0-.34l2.58-6.09-11-2,6.16,7.63a.54.54,0,0,1,.12.34Z" fill="#231f20"/><path d="M118.59,170.07l-10.51-39.13,21.44-.76.31,39.89h37.65c-5.5-18.67-19.36-36-22-38.82-9.87-10.72-35.17-7.13-35.17-7.13s-23.95,2.36-29.73,13c-1.44,2.68-2.92,21.37-3.09,32.93Z" fill="#68e1fd"/><path d="M127.84,123.81l1.16,7.48s-1.19,10.89-9.42,9a17.75,17.75,0,0,1-11.5-9.33l-1-19.77s6.06-3.31,4.15-16.52a40.64,40.64,0,0,0,21.37,2.77s2.93,13.6,2,20A7.05,7.05,0,0,1,127.84,123.81Z" fill="#fff"/><path d="M121.44,141a8.62,8.62,0,0,1-2-.24,18.09,18.09,0,0,1-11.86-9.62.61.61,0,0,1,0-.18l-1-19.78a.52.52,0,0,1,.26-.48c.06,0,5.72-3.35,3.89-16a.51.51,0,0,1,.2-.49.53.53,0,0,1,.53,0,40.66,40.66,0,0,0,21.08,2.72.52.52,0,0,1,.57.41c.12.55,2.94,13.76,2,20.15a7.55,7.55,0,0,1-6.63,6.8l1.07,6.94a.57.57,0,0,1,0,.13c0,.24-.68,5.94-4.27,8.48A6.36,6.36,0,0,1,121.44,141Zm-12.85-10.2c.38.8,3.69,7.24,11.11,9a5.9,5.9,0,0,0,4.94-.79c3-2.14,3.75-7.07,3.83-7.68l-1.14-7.42a.53.53,0,0,1,.12-.41.52.52,0,0,1,.39-.18,6.48,6.48,0,0,0,6.2-6c.81-5.55-1.4-16.89-1.9-19.32a42.53,42.53,0,0,1-20.33-2.51c1.37,11.22-3,15.11-4.25,16Z" fill="#231f20"/><path d="M123.62,105.39s3.91,7.17,2.73,8.24-4.13,0-4.13,0" fill="#fff"/><path d="M124.71,114.62a8.94,8.94,0,0,1-2.66-.49.5.5,0,0,1-.3-.64.51.51,0,0,1,.64-.31c.69.25,2.84.79,3.62.08.44-.47-.91-4.11-2.83-7.64a.49.49,0,0,1,.2-.67.49.49,0,0,1,.68.2c1.23,2.26,3.95,7.64,2.62,8.85A2.86,2.86,0,0,1,124.71,114.62Z" fill="#231f20"/><ellipse cx="116.59" cy="104.12" rx="0.81" ry="1.85" transform="translate(-4.27 4.99) rotate(-2.41)" fill="#231f20"/><ellipse cx="129.51" cy="104.12" rx="0.81" ry="1.85" transform="translate(-4.26 5.54) rotate(-2.41)" fill="#231f20"/><path d="M112.31,107.77a11.33,11.33,0,0,0-2.83-3.22,3.88,3.88,0,0,0-2.11-.93,3.44,3.44,0,0,0-1.8.54,6.67,6.67,0,0,0-3.17,4.44,5.24,5.24,0,0,0,.09,2.58,5.9,5.9,0,0,0,2.56,3.08,17.56,17.56,0,0,0,3.75,1.62" fill="#fff"/><path d="M108.8,116.4l-.17,0a17.92,17.92,0,0,1-3.85-1.68,6.36,6.36,0,0,1-2.78-3.36,5.71,5.71,0,0,1-.11-2.83,7.25,7.25,0,0,1,3.42-4.79,3.85,3.85,0,0,1,2.08-.6,4.39,4.39,0,0,1,2.4,1,11.64,11.64,0,0,1,3,3.37.51.51,0,0,1-.18.7.53.53,0,0,1-.71-.18,10.7,10.7,0,0,0-2.69-3.07,3.51,3.51,0,0,0-1.82-.82,2.84,2.84,0,0,0-1.53.47,6.15,6.15,0,0,0-2.92,4.09A4.86,4.86,0,0,0,103,111a5.38,5.38,0,0,0,2.35,2.8,16.82,16.82,0,0,0,3.64,1.57.52.52,0,0,1-.17,1Z" fill="#231f20"/><path d="M96.78,168.45a.52.52,0,0,1-.52-.52V142.22a.52.52,0,0,1,1,0v25.71A.51.51,0,0,1,96.78,168.45Z" fill="#231f20"/><path d="M127.84,123.81A22.54,22.54,0,0,1,114,121.53s7,10.82,14.89,9.29Z" fill="#231f20"/><path d="M127.37,131.47c-7.37,0-13.48-9.25-13.76-9.67a.51.51,0,0,1,0-.61.52.52,0,0,1,.6-.11,22.28,22.28,0,0,0,13.47,2.24.49.49,0,0,1,.6.41l1.09,7a.52.52,0,0,1-.4.57A9.37,9.37,0,0,1,127.37,131.47Zm-11.8-8.68c2.19,2.78,7.3,8.32,12.78,7.62l-.93-6A23.17,23.17,0,0,1,115.57,122.79Z" fill="#231f20"/><ellipse cx="123.99" cy="117.96" rx="1.34" ry="2.08" fill="#231f20"/><polygon points="157.34 170.03 169.12 141.22 185.85 144.89 179.85 170.07 157.34 170.03" fill="#68e1fd"/><path d="M158.12,168.45a.65.65,0,0,1-.19,0,.52.52,0,0,1-.28-.68l8.93-21.65a.51.51,0,1,1,.95.39l-8.93,21.66A.51.51,0,0,1,158.12,168.45Z" fill="#231f20"/><path d="M149.51,168.45A.53.53,0,0,1,149,168l-5.79-26a.52.52,0,0,1,.39-.61.51.51,0,0,1,.62.39l5.79,26a.51.51,0,0,1-.39.61Z" fill="#231f20"/><path d="M117.4,110.64a6.56,6.56,0,1,1,6.56-6.56A6.56,6.56,0,0,1,117.4,110.64Zm0-12.08a5.53,5.53,0,1,0,5.53,5.52A5.53,5.53,0,0,0,117.4,98.56Z" fill="#231f20"/><path d="M130.44,110.64a6.56,6.56,0,1,1,6.56-6.56A6.56,6.56,0,0,1,130.44,110.64Zm0-12.08a5.53,5.53,0,1,0,5.53,5.52A5.53,5.53,0,0,0,130.44,98.56Z" fill="#231f20"/><polygon points="182.75 138.84 197.25 86.38 198.39 86.57 185.02 139.69 182.75 138.84" fill="#231f20"/><path d="M180.61,127.83s11.18-1.28,10.45.92-7.15,3.53-7.15,3.53,2,5.64-3.3,6.19" fill="#fff"/><path d="M180.61,139a.51.51,0,0,1-.52-.46.52.52,0,0,1,.46-.57,3.4,3.4,0,0,0,2.72-1.4c1-1.61.16-4.07.15-4.1a.54.54,0,0,1,0-.43.51.51,0,0,1,.34-.25c2.37-.49,6.31-1.79,6.77-3.19-.3-.71-4.94-.81-9.9-.24a.53.53,0,0,1-.58-.45.52.52,0,0,1,.46-.57c2.22-.26,9.57-1,10.83.57a1.06,1.06,0,0,1,.17,1c-.69,2.09-5.31,3.36-7,3.75a6,6,0,0,1-.41,4.43,4.39,4.39,0,0,1-3.49,1.89Z" fill="#231f20"/><path d="M173.53,57.28H156.39a.5.5,0,0,1-.5-.5.51.51,0,0,1,.5-.5h17.14a.51.51,0,0,1,.5.5A.5.5,0,0,1,173.53,57.28Z" fill="#d1d3d4"/><path d="M173.53,60.74H156.39a.51.51,0,0,1-.5-.5.5.5,0,0,1,.5-.5h17.14a.5.5,0,0,1,.5.5A.51.51,0,0,1,173.53,60.74Z" fill="#d1d3d4"/><path d="M168.41,64.19h-12a.5.5,0,0,1-.5-.5.51.51,0,0,1,.5-.5h12a.5.5,0,0,1,.5.5A.5.5,0,0,1,168.41,64.19Z" fill="#d1d3d4"/><path d="M247.24,93.43H235.16a.5.5,0,0,1-.5-.5.5.5,0,0,1,.5-.5h12.08a.5.5,0,0,1,.5.5A.5.5,0,0,1,247.24,93.43Z" fill="#d1d3d4"/><path d="M243.63,96.88h-8.47a.5.5,0,0,1-.5-.5.5.5,0,0,1,.5-.5h8.47a.5.5,0,0,1,.5.5A.5.5,0,0,1,243.63,96.88Z" fill="#d1d3d4"/><rect x="58.81" y="169.78" width="282.38" height="11.7" fill="#fff"/><path d="M341.19,181.94H58.81a.47.47,0,0,1-.46-.46v-11.7a.47.47,0,0,1,.46-.46H341.19a.47.47,0,0,1,.46.46v11.7A.47.47,0,0,1,341.19,181.94ZM59.27,181H340.73V170.24H59.27Z" fill="#231f20"/><rect x="62.05" y="181.48" width="275.89" height="68.13" fill="#fff"/><path d="M338,250.07H62.05a.46.46,0,0,1-.45-.46V181.48a.46.46,0,0,1,.45-.46H338a.46.46,0,0,1,.45.46v68.13A.46.46,0,0,1,338,250.07Zm-275.44-.91h275V181.94h-275Z" fill="#231f20"/></g></svg>