<svg xmlns="http://www.w3.org/2000/svg" viewBox="0 0 400 300"><g id="_94_tennis" data-name="#94_tennis"><path d="M136.74,93.51s-38.25,17-39.52,17.77-5.26,4.63-6.89,6.44c-2.86,3.16-3.81,3.8-4.35,2s2.53-4.49,2.53-4.49-15.11-.24-14-3.54c3-8.45,12.83-5.94,14.28-6.12s18-16.36,45.58-24.36" fill="#fff"/><path d="M86.8,121.22a.85.85,0,0,1-.23,0c-.65-.14-.92-.8-1.07-1.29-.44-1.4.88-3.14,1.83-4.16-3.24-.12-11.54-.62-13.06-2.79a1.48,1.48,0,0,1-.19-1.38c2.61-7.48,10.26-6.8,13.53-6.52a8.6,8.6,0,0,0,1.16.07,27.1,27.1,0,0,0,2.63-1.91c6.28-4.82,21-16.09,42.87-22.44a.49.49,0,0,1,.62.34.51.51,0,0,1-.34.62C112.85,88,98.25,99.22,92,104c-2.08,1.59-2.7,2.06-3.12,2.11a8.19,8.19,0,0,1-1.37-.06c-3-.27-10.14-.89-12.49,5.85a.47.47,0,0,0,.06.48c1.13,1.6,8.84,2.31,13.43,2.39a.49.49,0,0,1,.46.32.5.5,0,0,1-.14.55c-1.09,1-2.71,2.91-2.39,4,.18.57.33.61.33.61.54.13,2.45-2,3.18-2.84,1.65-1.83,5.65-5.76,7-6.54s38-17.09,39.57-17.79A.5.5,0,0,1,137,94c-13.23,5.89-38.5,17.18-39.49,17.74a54.33,54.33,0,0,0-6.76,6.34C88.77,120.19,87.68,121.22,86.8,121.22Z" fill="#231f20"/><path d="M220.1,112l31.77,16s7.89-1.09,9.52,0,10.63,4.76,6.6,9.32c-1.69,1.9-5.38,6.86-15.3,3.51-3.54-1.19-7.34-7.39-7.34-7.39s-20.85-3-25.25-4.62-20.7-15.23-20.7-15.23Z" fill="#fff"/><path d="M258.88,142.53a20.05,20.05,0,0,1-6.35-1.17c-3.34-1.13-6.78-6.3-7.49-7.41-2.4-.35-20.91-3.06-25.11-4.62-4.43-1.64-20.19-14.75-20.85-15.31a.5.5,0,0,1-.16-.54.48.48,0,0,1,.44-.34l20.7-1.6a.49.49,0,0,1,.27.06L252,127.53c1.33-.17,8-1,9.71.1.23.16.63.37,1.11.63,2.32,1.25,6.18,3.34,6.68,6.15a3.86,3.86,0,0,1-1.1,3.29l-.24.28A11.37,11.37,0,0,1,258.88,142.53ZM200.67,114c3.54,2.92,15.94,13,19.61,14.36,4.3,1.59,24.93,4.56,25.14,4.59a.54.54,0,0,1,.35.24c0,.06,3.76,6.06,7.08,7.18,9.14,3.08,12.77-1.08,14.51-3.09l.25-.29a2.88,2.88,0,0,0,.87-2.45c-.42-2.33-4.16-4.35-6.17-5.44-.52-.28-.94-.51-1.2-.67-1.07-.72-6.19-.34-9.17.07a.48.48,0,0,1-.29,0l-31.65-16Z" fill="#231f20"/><path d="M130.76,80.46s5.62-3.49,25.74-5.87,24.74,1.38,33.82,6.6c0,0,7.76,3.4,9.08,5.22L220.1,112l-16,8.84L192,110.47c-3.6,5.86-15.28,25.4-17.31,30.41,0,0-21-4.56-35.69-20-1.48,3,7.7-19.79,7.18-25.1,0,0,.22-.36.59-1l-12.29,2Z" fill="#68e1fd"/><path d="M140.19,166.1s-13.57,15-16.71,16.36-50.36,13.6-50.36,13.6l-.3-13.8,41.61-13.65,11-18.26Z" fill="#fff"/><path d="M73.12,196.56a.52.52,0,0,1-.5-.49l-.3-13.8a.52.52,0,0,1,.35-.49L114.1,168.2,125,150.09a.5.5,0,0,1,.8-.08l14.76,15.75a.48.48,0,0,1,0,.67c-.55.62-13.68,15-16.88,16.49S75.17,196,73.25,196.54Zm.21-13.94.28,12.79C79.15,194,120.4,183.3,123.27,182c2.36-1.05,11.48-10.66,16.24-15.9l-14-14.92-10.66,17.69a.56.56,0,0,1-.28.22Z" fill="#231f20"/><path d="M156.44,150.61s-8.13,11.94-16.25,15.49L123.7,149.4s6.89-12.55,11.56-22.7S156.44,150.61,156.44,150.61Z" fill="#231f20"/><path d="M140.19,166.59a.52.52,0,0,1-.35-.14l-16.5-16.7a.5.5,0,0,1-.08-.59c.07-.13,6.94-12.65,11.54-22.66a3.12,3.12,0,0,1,2.78-2.18h0c6.45,0,18,23.4,19.29,26.07a.52.52,0,0,1,0,.5c-.34.49-8.3,12.09-16.46,15.66A.45.45,0,0,1,140.19,166.59Zm-15.88-17.28,16,16.19c7.17-3.33,14.39-13.28,15.56-14.94-3.56-7.28-13.39-25.25-18.25-25.25h0c-.78,0-1.39.53-1.88,1.6C131.51,136.05,125.42,147.27,124.31,149.31Z" fill="#231f20"/><polyline points="179.64 146.5 197.24 158.78 227.03 207.92 218.15 220.25 183.33 170.2 159.64 161.5 179.64 148.72" fill="#fff"/><path d="M218.15,220.75h0a.53.53,0,0,1-.41-.22L183,170.62,159.47,162a.51.51,0,0,1-.33-.41.51.51,0,0,1,.23-.48l20-12.78a.5.5,0,0,1,.54.84l-19.15,12.24,22.75,8.35a.53.53,0,0,1,.23.19l34.42,49.46,8.27-11.49-29.57-48.76L179.35,146.9a.49.49,0,0,1-.12-.69.5.5,0,0,1,.69-.13l17.6,12.29a.54.54,0,0,1,.15.15l29.79,49.14a.5.5,0,0,1,0,.55l-8.89,12.33A.49.49,0,0,1,218.15,220.75Z" fill="#231f20"/><path d="M182.93,57.31a11.15,11.15,0,0,1,3.24-4.91c2.36-1.78,5.6-1.69,8.56-1.52,3.35.2,7,.5,9.52,2.67a10.84,10.84,0,0,1,2.1,2.52,11,11,0,0,1,1.9,5.79,6.36,6.36,0,0,1-2.59,5.32c-3.48,2.34-8.88,0-12,2.79-1,.92-1.65,2.28-2.82,3a5.5,5.5,0,0,1-2.5.72,7,7,0,0,1-5.24-1.32C178.59,68.53,181.14,61.76,182.93,57.31Z" fill="#231f20"/><path d="M187.36,74.25a7,7,0,0,1-4.61-1.48c-4.89-4.21-1.89-11.65-.28-15.65h0a11.64,11.64,0,0,1,3.4-5.11c2.43-1.84,5.59-1.82,8.88-1.62,3,.17,7,.41,9.82,2.78a11.25,11.25,0,0,1,2.2,2.64,11.48,11.48,0,0,1,2,6,6.84,6.84,0,0,1-2.81,5.74c-1.78,1.2-4,1.26-6.11,1.31s-4.36.12-5.86,1.45a9.09,9.09,0,0,0-1.11,1.26,7.2,7.2,0,0,1-1.77,1.8,6,6,0,0,1-2.72.79C188.06,74.23,187.72,74.25,187.36,74.25Zm-4-16.75c-2.1,5.21-4,11.06,0,14.51a6.59,6.59,0,0,0,4.88,1.2,5,5,0,0,0,2.28-.64A6.7,6.7,0,0,0,192.08,71a9.49,9.49,0,0,1,1.23-1.4c1.78-1.57,4.18-1.63,6.5-1.69,2.07-.06,4-.11,5.57-1.14a5.86,5.86,0,0,0,2.37-4.91,12,12,0,0,0-3.82-7.93c-2.35-2-5.57-2.33-9.23-2.55-3.11-.18-6.07-.21-8.22,1.42a10.58,10.58,0,0,0-3.09,4.7Z" fill="#231f20"/><path d="M190.39,84.56c-2.1,4.16-1.57,5.47-6.72,6.84a6.19,6.19,0,0,1-2.45.27,5.4,5.4,0,0,1-3.58-2.78c-3.6-5.93.22-13,2.14-18.84a2.79,2.79,0,0,1,.62-1.18,3.18,3.18,0,0,1,1.3-.61,9.65,9.65,0,0,0,4.71-3.9A25.53,25.53,0,0,0,189,58.71c-.28.8,4.68,4.26,5.35,4.72a30.83,30.83,0,0,0,6.55,3.45c1.58.6,1.52.57,1.17,2.25-.28,1.33-.56,2.66-.89,4a39.93,39.93,0,0,1-2.66,7.66A7.45,7.45,0,0,1,196,84C194.37,85.06,192.24,84.82,190.39,84.56Z" fill="#fff"/><path d="M181.76,92.21a4.26,4.26,0,0,1-.61,0,5.78,5.78,0,0,1-3.94-3c-3.1-5.12-.92-11,1-16.17.39-1.06.77-2.09,1.1-3.09a3.13,3.13,0,0,1,.75-1.39,3.34,3.34,0,0,1,1.27-.65l.21-.07a9.12,9.12,0,0,0,4.45-3.7,24.45,24.45,0,0,0,2.51-5.52h0a.51.51,0,0,1,.64-.31.5.5,0,0,1,.33.53c.2.48,2,2.1,5.15,4.25a30.27,30.27,0,0,0,6.44,3.39c1.74.66,1.88.91,1.52,2.65l0,.17c-.27,1.27-.56,2.64-.9,4A39.86,39.86,0,0,1,199,81a8.16,8.16,0,0,1-2.64,3.4c-1.66,1.09-3.68,1-5.64.71-.33.68-.59,1.27-.82,1.8-1.16,2.62-1.69,3.82-6.06,5A8.14,8.14,0,0,1,181.76,92.21Zm7.33-32.31a22.62,22.62,0,0,1-2.27,4.74,10.19,10.19,0,0,1-5,4.09l-.22.07a2.31,2.31,0,0,0-.89.43,2.26,2.26,0,0,0-.49,1c-.33,1-.72,2.06-1.12,3.13-1.84,5-3.93,10.59-1.07,15.3a5,5,0,0,0,3.22,2.55,5.83,5.83,0,0,0,2.25-.27c3.91-1,4.32-2,5.4-4.41.27-.63.59-1.34,1-2.17a.49.49,0,0,1,.51-.27c2,.28,3.84.46,5.31-.51a7.15,7.15,0,0,0,2.28-3A37.8,37.8,0,0,0,200.67,73c.34-1.35.63-2.7.89-4l0-.17c.23-1.09.23-1.09-.88-1.51a31,31,0,0,1-6.67-3.51A31,31,0,0,1,189.09,59.9Zm.36-1h0Z" fill="#231f20"/><path d="M182.06,73.67a4.9,4.9,0,0,1-3.41-1.5,5.45,5.45,0,0,1-.74-6,3.35,3.35,0,0,1,1-1.3,2.26,2.26,0,0,1,2.61.11c1.23.74,1.44,1.57,2,2.79" fill="#fff"/><path d="M182.06,74.17h0a5.38,5.38,0,0,1-3.76-1.66,5.9,5.9,0,0,1-.83-6.52,3.82,3.82,0,0,1,1.18-1.5,2.69,2.69,0,0,1,3.15.09,4.6,4.6,0,0,1,2,2.54l.21.48a.51.51,0,0,1-.25.66.5.5,0,0,1-.66-.26l-.22-.48a3.55,3.55,0,0,0-1.58-2.08c-1.1-.66-1.7-.39-2.06-.14a2.94,2.94,0,0,0-.86,1.12,5,5,0,0,0,.65,5.4,4.41,4.41,0,0,0,3.06,1.35.5.5,0,0,1,0,1Z" fill="#231f20"/><path d="M188.66,88.37a5.63,5.63,0,0,1-4.27-3.8c-1.34-3.49,0-4.8,0-4.8s.52,2.87,5.94,4.66Z" fill="#231f20"/><path d="M188.66,88.87h0a6.07,6.07,0,0,1-4.69-4.11c-1.44-3.75,0-5.27.08-5.33a.52.52,0,0,1,.5-.13.5.5,0,0,1,.34.39s.6,2.62,5.61,4.27a.53.53,0,0,1,.3.27.5.5,0,0,1,0,.4l-1.64,3.94A.49.49,0,0,1,188.66,88.87ZM184.36,81a6.11,6.11,0,0,0,.49,3.41,5.24,5.24,0,0,0,3.51,3.41l1.28-3.08C186.43,83.56,185,82,184.36,81Z" fill="#231f20"/><path d="M196.05,71.49s1.08,5.64.06,6.11-2.77-.87-2.77-.87" fill="#fff"/><path d="M195.62,78.19A5.07,5.07,0,0,1,193,77.12a.49.49,0,0,1-.09-.7.51.51,0,0,1,.7-.09c.49.38,1.69,1.07,2.25.81.31-.34.16-3-.34-5.56A.5.5,0,0,1,196,71a.51.51,0,0,1,.59.39c.52,2.75.91,6.14-.23,6.66A1.68,1.68,0,0,1,195.62,78.19Z" fill="#231f20"/><ellipse cx="199.1" cy="71.3" rx="1.24" ry="0.47" transform="translate(62.91 233.09) rotate(-69.61)" fill="#231f20"/><ellipse cx="194.34" cy="69.01" rx="1.24" ry="0.47" transform="translate(61.95 227.14) rotate(-69.61)" fill="#231f20"/><path d="M193.94,81.75c-.68,0-3.12-.48-6.48-6.54a.5.5,0,1,1,.87-.49c3.4,6.13,5.61,6,5.64,6a.5.5,0,0,1,.14,1Z" fill="#231f20"/><path d="M174.64,140.88l12.47,6.79L176,169s-35.08-12.47-40-24.43S139,120.88,139,120.88Z" fill="#231f20"/><path d="M176,169.48a.47.47,0,0,1-.17,0c-1.44-.51-35.35-12.68-40.27-24.72s2.9-24,3-24.13a.49.49,0,0,1,.65-.15l35.69,20,12.47,6.78a.49.49,0,0,1,.2.67l-11.11,21.31A.5.5,0,0,1,176,169.48Zm-36.88-47.93c-1.26,2.11-6.89,12.43-2.64,22.81,4.47,10.94,35.35,22.57,39.27,24l10.69-20.49-12-6.55h0Z" fill="#231f20"/><path d="M204.47,201.09a.49.49,0,0,1-.39-.19.5.5,0,0,1,.08-.7l12.18-9.8a.5.5,0,0,1,.62.78L204.79,201A.54.54,0,0,1,204.47,201.09Z" fill="#231f20"/><path d="M134.43,97.23a.49.49,0,0,1-.49-.41.5.5,0,0,1,.4-.58l26.88-5a.5.5,0,1,1,.18,1l-26.88,5Z" fill="#231f20"/><path d="M150.54,158.72a.54.54,0,0,1-.22-.05c-.14-.07-14.06-7.06-16.36-21.07a.49.49,0,0,1,.41-.57.5.5,0,0,1,.57.41c2.23,13.51,15.68,20.26,15.82,20.33a.5.5,0,0,1-.22.95Z" fill="#fff"/><path d="M72.82,182.26s-11.09-2.46-11.5-1.14-8,33-6.26,33.55,4.2,2.75,6.49-.65,13.12-17.37,14.42-19A25.2,25.2,0,0,1,72.82,182.26Z" fill="#231f20"/><path d="M58.67,216.38a6.85,6.85,0,0,1-2.8-.82,9.3,9.3,0,0,0-1-.41c-.63-.21-1.5-.5,2-17.07,1.71-8.07,3.71-16.39,3.93-17.11.37-1.16,4.43-.89,12.09.8a.5.5,0,0,1,.39.52,24.85,24.85,0,0,0,3.08,12.53.5.5,0,0,1-.05.56C75,197,64.23,210.93,62,214.3A3.92,3.92,0,0,1,58.67,216.38Zm-3.32-2.13c.3.11.61.25.94.41,1.59.74,3.23,1.5,4.85-.92,2.18-3.24,12.23-16.22,14.23-18.73a25.69,25.69,0,0,1-3.06-12.36c-4.57-1-9.74-1.74-10.54-1.31C60.89,184.28,54.58,211.77,55.35,214.25Z" fill="#231f20"/><path d="M94.43,190.7a.5.5,0,0,1-.47-.34l-4.36-12.8a.5.5,0,0,1,.31-.63.51.51,0,0,1,.64.31L94.91,190a.51.51,0,0,1-.31.64Z" fill="#231f20"/><path d="M177.35,135.93a.59.59,0,0,1-.22-.05.49.49,0,0,1-.22-.67c2.69-5.41,19.05-32.77,19.21-33a.51.51,0,0,1,.69-.18.51.51,0,0,1,.17.69c-.16.28-16.5,27.6-19.18,33A.49.49,0,0,1,177.35,135.93Z" fill="#231f20"/><path d="M304.65,120.26h-.52c-6.65-.13-12.32-2.79-16-7.5s-4.82-10.86-3.29-17.33A30.21,30.21,0,0,1,296,78.78c11.76-9.11,27.39-8.7,34.84.92s3.95,24.86-7.8,34A30.29,30.29,0,0,1,304.65,120.26Zm9.7-45.07a27.39,27.39,0,0,0-16.54,6h0a27.17,27.17,0,0,0-10,15c-1.32,5.57-.34,10.82,2.74,14.8s7.93,6.23,13.65,6.35a27.17,27.17,0,0,0,17-6c10.45-8.1,13.71-21.45,7.27-29.76C325.17,77.31,320,75.19,314.35,75.19ZM296.89,80h0Z" fill="#231f20"/><path d="M270.92,129.1a1.48,1.48,0,0,1-1.18-.58,1.49,1.49,0,0,1,.26-2.1c13.66-10.59,27.29-10.27,27.87-10.25a1.51,1.51,0,0,1,1.45,1.55,1.47,1.47,0,0,1-1.55,1.45c-.16,0-13.19-.26-25.93,9.62A1.5,1.5,0,0,1,270.92,129.1Z" fill="#231f20"/><path d="M269.48,127.24a1.5,1.5,0,0,1-.92-2.68c12.77-9.9,15.76-22.59,15.78-22.71a1.5,1.5,0,1,1,2.93.65c-.12.56-3.21,13.84-16.87,24.43A1.5,1.5,0,0,1,269.48,127.24Z" fill="#231f20"/><rect x="257.21" y="119.09" width="5.38" height="31.13" rx="1.93" transform="translate(312.65 422.57) rotate(-127.77)" fill="#231f20"/><path d="M249.59,146a1.62,1.62,0,0,1-.31,0,2.38,2.38,0,0,1-1.62-.92l-.92-1.19h0a2.43,2.43,0,0,1,.43-3.41l21.55-16.7a2.43,2.43,0,0,1,3.41.43l.92,1.2a2.43,2.43,0,0,1-.43,3.41l-21.55,16.69A2.37,2.37,0,0,1,249.59,146Zm-2.07-2.74.93,1.19a1.39,1.39,0,0,0,1,.55,1.48,1.48,0,0,0,1.06-.29L272,128a1.43,1.43,0,0,0,.26-2l-.93-1.2a1.43,1.43,0,0,0-2-.25l-21.55,16.7a1.43,1.43,0,0,0-.26,2Z" fill="#231f20"/><path d="M259.36,127.6a22.65,22.65,0,0,1,6.55,4.36,1.83,1.83,0,0,1,.72,1.34,1.29,1.29,0,0,1-1.19,1,3.82,3.82,0,0,1-1.66-.33q-3-1.08-6.1-2a1.34,1.34,0,0,0-.92-.06,1.44,1.44,0,0,0-.43.35,9.27,9.27,0,0,1-6.21,2.81" fill="#fff"/><path d="M250.12,135.56a.5.5,0,0,1,0-1,8.72,8.72,0,0,0,5.87-2.65,1.73,1.73,0,0,1,.59-.47,1.83,1.83,0,0,1,1.28,0c2,.65,4.1,1.35,6.1,2.06a3.49,3.49,0,0,0,1.45.3c.33,0,.71-.28.74-.59s-.27-.64-.57-.93a21.94,21.94,0,0,0-6.41-4.27.5.5,0,0,1,.42-.9,23,23,0,0,1,6.7,4.46,2.3,2.3,0,0,1,.86,1.73,1.79,1.79,0,0,1-1.63,1.49,4.2,4.2,0,0,1-1.89-.35c-2-.71-4-1.4-6.08-2a1.07,1.07,0,0,0-.57-.08.88.88,0,0,0-.24.21,9.72,9.72,0,0,1-6.58,3Z" fill="#231f20"/><path d="M171.7,95.2a1.46,1.46,0,0,1-.77-.2,2.07,2.07,0,0,1-.83-1.62,34.69,34.69,0,0,1,.16-10.57c.31-1.82,1-4.41,2.93-5.78a.5.5,0,0,1,.57.82c-1.67,1.16-2.23,3.48-2.51,5.12a33.75,33.75,0,0,0-.16,10.28c0,.37.13.76.35.89a1.37,1.37,0,0,0,.9-.06c2-.57,4.07-1.18,6.07-1.82a.51.51,0,0,1,.63.33.5.5,0,0,1-.33.62c-2,.64-4.06,1.26-6.1,1.83A3.11,3.11,0,0,1,171.7,95.2Z" fill="#231f20"/><path d="M183.92,99.89c-2.09,0-2.66-5.31-2.78-6.94a.5.5,0,0,1,.46-.53.51.51,0,0,1,.54.46c.21,2.84,1,6,1.78,6s4.91-2,7.13-5.22a6.27,6.27,0,0,0,1.1-5.93.5.5,0,1,1,.94-.34,7.32,7.32,0,0,1-1.22,6.85C189.54,97.56,185.32,99.89,183.92,99.89Z" fill="#231f20"/><path d="M216.22,217.8s8.9-5.09,9.52-12.43a15.58,15.58,0,0,0,12.24,0c6.87-2.77,12.89-5,13.94-3.63s-.73,4.29-.73,4.29-21.13,23.81-26.94,24.4S216.22,217.8,216.22,217.8Z" fill="#231f20"/><path d="M223.87,231c-5.88,0-8.05-12.53-8.14-13.07a.5.5,0,0,1,.24-.52c.09-.05,8.68-5,9.27-12a.51.51,0,0,1,.26-.39.49.49,0,0,1,.47,0,15.17,15.17,0,0,0,11.82,0c8.91-3.59,13.35-5,14.53-3.48s-.5,4.53-.7,4.86c-.92,1.05-21.39,24-27.32,24.64Zm-7.1-12.9c.38,2,2.53,11.9,7.1,11.9h.33c4.44-.46,19.36-16.06,26.62-24.24.37-.61,1.4-2.75.71-3.66-.93-1.22-9.33,2.17-13.36,3.79a16.33,16.33,0,0,1-12,.27C225.17,212.56,218.33,217.09,216.77,218.05Z" fill="#231f20"/><path d="M367.49,249.71h-335a.51.51,0,0,1-.5-.5V161.73a.51.51,0,0,1,.5-.5h335a.51.51,0,0,1,.5.5v87.48A.51.51,0,0,1,367.49,249.71ZM33,248.71H367V162.23H33Z" fill="#d1d3d4"/><rect x="32.51" y="154.39" width="334.97" height="7.34" fill="#d1d3d4"/><path d="M367.49,162.23h-335a.5.5,0,0,1-.5-.5v-7.34a.51.51,0,0,1,.5-.5h335a.51.51,0,0,1,.5.5v7.34A.5.5,0,0,1,367.49,162.23ZM33,161.23H367v-6.34H33Z" fill="#d1d3d4"/><path d="M47.9,249.71a.51.51,0,0,1-.5-.5V161.73a.51.51,0,0,1,.5-.5.5.5,0,0,1,.5.5v87.48A.5.5,0,0,1,47.9,249.71Z" fill="#d1d3d4"/><path d="M64,249.71a.5.5,0,0,1-.5-.5V161.73a.5.5,0,1,1,1,0v87.48A.5.5,0,0,1,64,249.71Z" fill="#d1d3d4"/><path d="M80,249.71a.5.5,0,0,1-.5-.5V161.73a.5.5,0,0,1,.5-.5.51.51,0,0,1,.5.5v87.48A.51.51,0,0,1,80,249.71Z" fill="#d1d3d4"/><path d="M96.07,249.71a.51.51,0,0,1-.5-.5V161.73a.51.51,0,0,1,.5-.5.5.5,0,0,1,.5.5v87.48A.5.5,0,0,1,96.07,249.71Z" fill="#d1d3d4"/><path d="M112.13,249.71a.5.5,0,0,1-.5-.5V161.73a.5.5,0,0,1,1,0v87.48A.5.5,0,0,1,112.13,249.71Z" fill="#d1d3d4"/><path d="M128.19,249.71a.5.5,0,0,1-.5-.5V161.73a.5.5,0,0,1,.5-.5.51.51,0,0,1,.5.5v87.48A.51.51,0,0,1,128.19,249.71Z" fill="#d1d3d4"/><path d="M144.24,249.71a.5.5,0,0,1-.5-.5V161.73a.5.5,0,0,1,1,0v87.48A.5.5,0,0,1,144.24,249.71Z" fill="#d1d3d4"/><path d="M160.3,249.71a.5.5,0,0,1-.5-.5V161.73a.5.5,0,0,1,.5-.5.51.51,0,0,1,.5.5v87.48A.51.51,0,0,1,160.3,249.71Z" fill="#d1d3d4"/><path d="M176.35,249.71a.51.51,0,0,1-.5-.5V161.73a.51.51,0,0,1,.5-.5.5.5,0,0,1,.5.5v87.48A.5.5,0,0,1,176.35,249.71Z" fill="#d1d3d4"/><path d="M192.41,249.71a.5.5,0,0,1-.5-.5V161.73a.5.5,0,0,1,1,0v87.48A.5.5,0,0,1,192.41,249.71Z" fill="#d1d3d4"/><path d="M208.47,249.71a.5.5,0,0,1-.5-.5V161.73a.5.5,0,0,1,.5-.5.51.51,0,0,1,.5.5v87.48A.51.51,0,0,1,208.47,249.71Z" fill="#d1d3d4"/><path d="M224.52,249.71a.51.51,0,0,1-.5-.5V161.73a.51.51,0,0,1,.5-.5.5.5,0,0,1,.5.5v87.48A.5.5,0,0,1,224.52,249.71Z" fill="#d1d3d4"/><path d="M240.58,249.71a.5.5,0,0,1-.5-.5V161.73a.5.5,0,0,1,1,0v87.48A.5.5,0,0,1,240.58,249.71Z" fill="#d1d3d4"/><path d="M256.64,249.71a.5.5,0,0,1-.5-.5V161.73a.5.5,0,0,1,.5-.5.51.51,0,0,1,.5.5v87.48A.51.51,0,0,1,256.64,249.71Z" fill="#d1d3d4"/><path d="M272.69,249.71a.51.51,0,0,1-.5-.5V161.73a.51.51,0,0,1,.5-.5.5.5,0,0,1,.5.5v87.48A.5.5,0,0,1,272.69,249.71Z" fill="#d1d3d4"/><path d="M288.75,249.71a.5.5,0,0,1-.5-.5V161.73a.5.5,0,0,1,.5-.5.51.51,0,0,1,.5.5v87.48A.51.51,0,0,1,288.75,249.71Z" fill="#d1d3d4"/><path d="M304.8,249.71a.51.51,0,0,1-.5-.5V161.73a.51.51,0,0,1,.5-.5.5.5,0,0,1,.5.5v87.48A.5.5,0,0,1,304.8,249.71Z" fill="#d1d3d4"/><path d="M320.86,249.71a.5.5,0,0,1-.5-.5V161.73a.5.5,0,0,1,1,0v87.48A.5.5,0,0,1,320.86,249.71Z" fill="#d1d3d4"/><path d="M336.92,249.71a.5.5,0,0,1-.5-.5V161.73a.5.5,0,0,1,.5-.5.51.51,0,0,1,.5.5v87.48A.51.51,0,0,1,336.92,249.71Z" fill="#d1d3d4"/><path d="M353,249.71a.51.51,0,0,1-.5-.5V161.73a.51.51,0,0,1,.5-.5.5.5,0,0,1,.5.5v87.48A.5.5,0,0,1,353,249.71Z" fill="#d1d3d4"/><path d="M367.49,174.83h-335a.5.5,0,1,1,0-1h335a.5.5,0,0,1,0,1Z" fill="#d1d3d4"/><path d="M367.49,190.4h-335a.5.5,0,1,1,0-1h335a.5.5,0,0,1,0,1Z" fill="#d1d3d4"/><path d="M367.49,206h-335a.5.5,0,1,1,0-1h335a.5.5,0,0,1,0,1Z" fill="#d1d3d4"/><path d="M367.49,221.54h-335a.51.51,0,0,1-.5-.5.5.5,0,0,1,.5-.5h335a.5.5,0,0,1,.5.5A.51.51,0,0,1,367.49,221.54Z" fill="#d1d3d4"/><path d="M367.49,237.11h-335a.51.51,0,0,1-.5-.5.5.5,0,0,1,.5-.5h335a.5.5,0,0,1,.5.5A.51.51,0,0,1,367.49,237.11Z" fill="#d1d3d4"/><circle cx="326.71" cy="82.88" r="19.42" fill="#68e1fd"/><path d="M319,99.05a.54.54,0,0,1-.21,0,.5.5,0,0,1-.24-.67c3.48-7.44,3.48-14.21,0-20.11a20.88,20.88,0,0,0-6.32-6.7.5.5,0,0,1-.18-.68.51.51,0,0,1,.69-.18c.16.1,15.38,9.52,6.71,28.1A.52.52,0,0,1,319,99.05Z" fill="#fff"/><path d="M339.05,94a.51.51,0,0,1-.41-.2c-10.88-14.93-3.41-26.5-3.33-26.62a.49.49,0,0,1,.69-.13.5.5,0,0,1,.14.69,17.74,17.74,0,0,0-2.32,7.29c-.45,4.15.16,10.68,5.63,18.18a.51.51,0,0,1-.11.7A.52.52,0,0,1,339.05,94Z" fill="#fff"/></g></svg>