<svg xmlns="http://www.w3.org/2000/svg" viewBox="0 0 400 300"><g id="_388_the_great_pyramid_flatline" data-name="#388_the_great_pyramid_flatline"><rect x="39.44" y="45.82" width="321.2" height="208.35" fill="#68e1fd"/><path d="M361.19,90.69c-9.06.84-21.56,5.35-25.52,13.54-1.56,3.22-2,7.34-5.07,9.24-2.7,1.68-6.23.8-9.32,1.55-6.64,1.63-9,9.72-10.12,16.47-4.33-3.59-11.05-.19-14.46,4.28s-5.65,10.19-10.5,13c-3.39,2-7.5,2.25-11.44,2.44l-28.91,1.43,19.34,5.47c2.78.78,5.65,1.62,7.81,3.54s3.36,5.23,2,7.76a62,62,0,0,1,27.48.78,11.8,11.8,0,0,0,5.21.61,11.39,11.39,0,0,0,4.53-2.61c6.26-5,15.87-8.93,21.59-3.36,1.26,1.23,2.17,2.82,3.63,3.8,1.94,1.29,4.45,1.23,6.79,1.13,5.64-.25,11.35.35,17,.1Z" fill="#fff"/><path d="M150.69,84.84C142.78,81.26,138,82,129.13,83s-16.51-2.27-25.28-2.78c-5.39-.31-11.15.91-15.79-2.52-3.75-2.77-3.83-6.59-9.68-5.86-4.44.56-6.73,3.51-11.74,2.71-5.72-.92-6.77-5.61-11.86-7.43-3.79-1.35-10.53-.28-14,1.79L38.52,93.21v8.26c4.12,11.73,22.83,2.6,32.33,1.44,8.28-1,11.71-4.19,18.34-8,7-4,15.6-1.17,23.31-2.29,19.07-2.78,39-2.46,57.65-6.23C163.21,86.31,157.34,87.84,150.69,84.84Z" fill="#fff"/><rect x="39.44" y="189.99" width="321.2" height="64.19" fill="#e6e7e8"/><path d="M360.64,254.63H39.44a.45.45,0,0,1-.46-.45V190a.46.46,0,0,1,.46-.46h321.2a.47.47,0,0,1,.46.46v64.19A.46.46,0,0,1,360.64,254.63Zm-320.75-.91H360.18V190.45H39.89Z" fill="#231f20"/><path d="M283.48,136.31s-2.26-2.26-3.2,0-19.7,20.33-19.7,20.33l15.95,8.57Z" fill="#231f20"/><path d="M276.53,165.71a.53.53,0,0,1-.24-.06l-16-8.57a.5.5,0,0,1-.26-.37.49.49,0,0,1,.15-.43c7.51-7.24,18.93-18.58,19.59-20.17a1.91,1.91,0,0,1,1.37-1.27c1.23-.25,2.5,1,2.64,1.11a.51.51,0,0,1,.13.47L277,165.33a.51.51,0,0,1-.28.34A.52.52,0,0,1,276.53,165.71Zm-15.11-9.19,14.78,7.95,6.72-28a2.26,2.26,0,0,0-1.53-.66c-.1,0-.39.08-.64.68C279.85,138.65,264.8,153.26,261.42,156.52Z" fill="#231f20"/><path d="M276.53,165.21c.38-.94,6.38-28.53,7-28.9s2.81-.19,3.94,0,73.22,60.06,73.22,60.06v3.76l-37.18-2.82Z" fill="#fff"/><path d="M360.64,200.58h0l-37.17-2.81a.63.63,0,0,1-.23-.08l-46.93-32.1a.47.47,0,0,1-.16-.55c.13-.35,1.1-4.6,2.12-9.1,4.12-18.06,4.62-19.76,5-20,.93-.62,4.24-.08,4.27-.08,1.13.19,51.74,42.14,73.44,60.17a.46.46,0,0,1,.17.35v3.76a.46.46,0,0,1-.46.45Zm-37-3.72,36.56,2.77v-3c-24.57-20.41-71.2-59-72.93-59.86a10.71,10.71,0,0,0-3.45-.08c-.52,1.25-3,12.19-4.68,19.5-1.12,4.92-1.79,7.86-2.06,8.87Z" fill="#231f20"/><path d="M328,174.58H296a.5.5,0,0,1-.5-.5.5.5,0,0,1,.5-.5h32a.5.5,0,0,1,.5.5A.5.5,0,0,1,328,174.58Z" fill="#e6e7e8"/><path d="M318.58,168.53H290.42a.5.5,0,0,1,0-1h28.16a.5.5,0,0,1,0,1Z" fill="#e6e7e8"/><path d="M323.46,197.31s-76.77-4.69-78.46-4.69-36.61-1.13-36.61-1.13L170.48,172l22.33-57.06,6.31-9.83,8.52-13.26a16,16,0,0,1,3.57,2.06c.94.94,24.59,23.09,24.59,23.09l1.12,3,2.82,1.87L290.42,168Z" fill="#fff"/><path d="M323.46,197.77h0c-.77-.05-76.77-4.69-78.43-4.69S209.8,192,208.38,192a.65.65,0,0,1-.2,0l-37.91-19.52a.47.47,0,0,1-.22-.58l22.33-57.06,14.87-23.17a.47.47,0,0,1,.57-.17,16.56,16.56,0,0,1,3.71,2.15c.93.93,24.35,22.87,24.58,23.09a.43.43,0,0,1,.12.17l1.07,2.87,2.69,1.79,50.74,46.22,33,29.28a.43.43,0,0,1,.12.51A.45.45,0,0,1,323.46,197.77ZM208.51,191c2.1.06,34.87,1.12,36.49,1.12s66.66,4,77.17,4.61l-32.05-28.4-50.69-46.18-2.76-1.83a.49.49,0,0,1-.18-.22l-1.08-2.91c-1.74-1.63-23.61-22.11-24.52-23a13.51,13.51,0,0,0-3.08-1.8l-14.62,22.76-22.13,56.59Z" fill="#231f20"/><polygon points="163.91 142.13 207.64 91.82 180.43 163.52 163.91 142.13" fill="#231f20"/><path d="M180.43,164a.5.5,0,0,1-.4-.19l-16.52-21.4a.5.5,0,0,1,0-.63l43.74-50.31a.5.5,0,0,1,.63-.1.49.49,0,0,1,.21.61l-27.22,71.7a.49.49,0,0,1-.39.32Zm-15.88-21.88,15.72,20.37,25.91-68.25Z" fill="#231f20"/><path d="M59.92,193.18s60.81-96.48,63.63-96.67,6.57,2.07,6.57,2.07l104.36,97Z" fill="#fff"/><path d="M234.48,196.08h0L59.91,193.64a.45.45,0,0,1-.39-.24.45.45,0,0,1,0-.46c14.3-22.68,61.16-96.69,64-96.88s6.68,2,6.83,2.13l104.45,97.1a.46.46,0,0,1-.32.79ZM60.74,192.74l172.56,2.41L129.81,98.91h0s-3.6-2.12-6.23-1.94C121,98.27,84.73,154.69,60.74,192.74Z" fill="#231f20"/><polygon points="59.92 193.18 39.44 193.18 39.44 185.53 123.55 96.51 64.42 191.87 59.92 193.18" fill="#231f20"/><path d="M59.92,193.68H39.44a.5.5,0,0,1-.5-.5v-7.65a.47.47,0,0,1,.13-.34l84.12-89a.49.49,0,0,1,.67,0,.51.51,0,0,1,.12.66L64.85,192.13a.53.53,0,0,1-.29.22l-4.5,1.31Zm-20-1H59.85l4.25-1.24,56.43-91L39.94,185.73Z" fill="#231f20"/><path d="M93.14,168s1.5-4.32,3-5.26,10.52-1.87,10.89-1.5,3.19,2,4.32,3.34,5.07,5.3,5.07,5.3Z" fill="#fff"/><path d="M116.42,170.36h0L93.1,168.48a.45.45,0,0,1-.39-.6c.16-.46,1.6-4.5,3.19-5.5,1.28-.79,10.71-2.18,11.46-1.43.08.08.5.36.86.61a17.54,17.54,0,0,1,3.48,2.76c1.1,1.32,5,5.22,5,5.26a.46.46,0,0,1,.09.52A.45.45,0,0,1,116.42,170.36Zm-22.64-2.74,21.44,1.73c-1.23-1.25-3.41-3.48-4.22-4.45a17.22,17.22,0,0,0-3.28-2.58c-.49-.33-.77-.52-.93-.65-1-.18-9,.63-10.4,1.49C95.42,163.77,94.32,166.22,93.78,167.62Z" fill="#231f20"/><path d="M90.89,168h27s.94,3.75,2.25,4.69,6.38,7.7,6.38,7.7l-41.94,1.31Z" fill="#fff"/><path d="M84.61,182.19a.45.45,0,0,1-.38-.21.46.46,0,0,1,0-.44l6.28-13.7a.48.48,0,0,1,.42-.27h27a.45.45,0,0,1,.44.35c.25,1,1.11,3.74,2.08,4.43,1.33,1,6,7.1,6.48,7.79a.49.49,0,0,1,0,.48.46.46,0,0,1-.4.25l-41.95,1.32Zm6.57-13.7-5.85,12.76L125.66,180c-1.67-2.19-4.83-6.24-5.75-6.9-1.21-.86-2.06-3.59-2.34-4.6Z" fill="#231f20"/><path d="M78.33,180.13s3-6.66,5.24-8.35A44.24,44.24,0,0,1,90.89,168L87.52,179.3Z" fill="#231f20"/><path d="M78.33,180.63a.52.52,0,0,1-.41-.21.53.53,0,0,1,0-.5c.13-.27,3.07-6.79,5.4-8.54a43.57,43.57,0,0,1,7.43-3.81.49.49,0,0,1,.53.09.51.51,0,0,1,.14.51L88,179.44a.47.47,0,0,1-.43.35l-9.19.84ZM90.1,168.9a37.8,37.8,0,0,0-6.23,3.28c-1.68,1.26-3.87,5.59-4.72,7.37l8-.72Z" fill="#231f20"/><path d="M73.43,200.6l3.94-8.73h67.3a12.48,12.48,0,0,0,0,5.91,9,9,0,0,1,0,5.07Z" fill="#fff"/><path d="M144.67,203.3h0l-71.23-2.25a.47.47,0,0,1-.38-.21.44.44,0,0,1,0-.43L77,191.68a.45.45,0,0,1,.41-.27h67.3a.44.44,0,0,1,.36.18.49.49,0,0,1,.08.39,12.18,12.18,0,0,0,0,5.66,9.29,9.29,0,0,1,0,5.35A.45.45,0,0,1,144.67,203.3Zm-70.54-3.14,70.19,2.22a8.38,8.38,0,0,0-.09-4.46,12.3,12.3,0,0,1-.13-5.6H77.67Z" fill="#231f20"/><path d="M77.37,191.87h-13s-6.75,9-5.07,9.29,14.08-.56,14.08-.56Z" fill="#231f20"/><path d="M60.67,201.71a9.41,9.41,0,0,1-1.4-.06.8.8,0,0,1-.62-.49c-.57-1.43,3.57-7.19,5.37-9.59a.51.51,0,0,1,.4-.2h13a.48.48,0,0,1,.42.23.47.47,0,0,1,0,.47l-3.94,8.73a.5.5,0,0,1-.42.29C73,201.12,64.34,201.71,60.67,201.71Zm-1.09-1c1.7.16,10-.33,13.52-.56l3.5-7.75H64.67C62.18,195.71,59.64,199.67,59.58,200.68Z" fill="#231f20"/><path d="M69.49,191.87s4.22-10.7,5.07-11,9-1.69,9-1.69l-2.82,12.67Z" fill="#231f20"/><path d="M80.75,192.37H69.49a.49.49,0,0,1-.41-.22.47.47,0,0,1,0-.47c2.85-7.24,4.66-11,5.37-11.27s8.24-1.56,9.08-1.71a.52.52,0,0,1,.45.15.51.51,0,0,1,.13.46L81.24,192A.5.5,0,0,1,80.75,192.37Zm-10.52-1H80.35l2.57-11.55c-3.24.56-7.65,1.36-8.2,1.54C74.25,181.78,72.1,186.67,70.23,191.37Z" fill="#231f20"/><path d="M83.57,179.2s41.11,1,43,1.22,5.07,3.56,5.45,4.31,4.69,7.14,4.69,7.14H77.37S80.94,179.13,83.57,179.2Z" fill="#fff"/><path d="M136.69,192.32H77.37a.44.44,0,0,1-.36-.18.47.47,0,0,1-.08-.4c3.49-12.44,6.13-13,6.65-13,1.68,0,41.15,1,43,1.22,2.09.21,5.38,3.72,5.81,4.57.29.59,3.46,5.31,4.66,7.08a.47.47,0,0,1,0,.47A.45.45,0,0,1,136.69,192.32ZM78,191.41h57.85c-1.17-1.74-3.93-5.84-4.24-6.47s-3.44-3.9-5.08-4.07c-1.84-.18-42.54-1.21-42.95-1.22h0C82,179.65,79.45,186.33,78,191.41Z" fill="#231f20"/><path d="M236.92,120s-3.56,5.63-7.32,5.63-22-5.07-24.4-6.39-8.29.88-8.29.88l2.21-15,8.52-13.26a16,16,0,0,1,3.57,2.06c.94.94,24.59,23.09,24.59,23.09Z" fill="#fff"/><path d="M229.6,126.07c-3.93,0-22.12-5.1-24.62-6.45-1.84-1-6.33.32-7.91.91a.49.49,0,0,1-.45-.07.47.47,0,0,1-.16-.43l2.21-15a.45.45,0,0,1,.07-.18l8.51-13.26a.47.47,0,0,1,.57-.17,16.56,16.56,0,0,1,3.71,2.15c.93.93,24.35,22.87,24.58,23.09a.43.43,0,0,1,.12.17l1.12,3a.47.47,0,0,1,0,.4C237.16,120.46,233.57,126.07,229.6,126.07Zm-26.52-7.72a5,5,0,0,1,2.34.47c2.29,1.24,20.4,6.33,24.18,6.33,3.1,0,6.17-4.28,6.81-5.23l-1-2.69c-1.74-1.63-23.61-22.11-24.52-23a13.51,13.51,0,0,0-3.08-1.8l-8.25,12.84-2.09,14.18A20.24,20.24,0,0,1,203.08,118.35Z" fill="#231f20"/><path d="M182.34,120.92a5.63,5.63,0,0,1,5.22-1.51,56.79,56.79,0,0,0,9.35.69l10.73-28.28Z" fill="#d1d3d4"/><path d="M182.34,121.42a.5.5,0,0,1-.33-.12.51.51,0,0,1,0-.71l25.31-29.1a.5.5,0,0,1,.63-.1.49.49,0,0,1,.21.61l-10.73,28.27a.51.51,0,0,1-.47.33,56.87,56.87,0,0,1-9.46-.7,5.11,5.11,0,0,0-4.74,1.36A.49.49,0,0,1,182.34,121.42Zm3.94-2.65a6.28,6.28,0,0,1,1.39.15,52.93,52.93,0,0,0,8.89.68l9.62-25.34L184.69,119A5.6,5.6,0,0,1,186.28,118.77Z" fill="#231f20"/><path d="M236.51,140a11.38,11.38,0,0,1-1.54-.1,20.11,20.11,0,0,1-2.52-.57l-1.08-.29a41.51,41.51,0,0,0-6.37-.87l-8.42-.72c-1.94-.16-3.86-.33-5.75-.43a77.38,77.38,0,0,0-18.44,1.13.5.5,0,0,1-.59-.39.5.5,0,0,1,.4-.59,77.86,77.86,0,0,1,18.68-1.15c1.91.11,3.84.27,5.7.43l8.51.72a41.71,41.71,0,0,1,6.52.9c.37.09.74.19,1.1.3a19.47,19.47,0,0,0,2.39.54,18.28,18.28,0,0,0,4.43-.14l.43,0a96.66,96.66,0,0,1,14.83-.46.5.5,0,0,1,0,1,95.9,95.9,0,0,0-14.68.45l-.43.05A29.17,29.17,0,0,1,236.51,140Z" fill="#e6e7e8"/><path d="M175,174.54c5.69-7,11.45-14.12,18.62-19.6.21,1.87-.74,3.65-1.61,5.31a107.06,107.06,0,0,0-7.51,18.13c-.71,2.29-1.34,4.61-1.93,6.94s-1.1,4.52-1.63,6.78l-1.79,7.65c0,.09-22.68,1.34-24.69,1.09.13-3.64,6.79-9.31,9.09-12.15Z" fill="#231f20"/><path d="M154.41,201.34h0a.5.5,0,0,1-.44-.52c.11-2.87,3.76-6.67,6.7-9.73,1-1.06,1.91-2,2.5-2.71l11.46-14.16c5.62-6.94,11.44-14.13,18.7-19.68a.5.5,0,0,1,.8.34c.22,2-.77,3.89-1.64,5.55a106.77,106.77,0,0,0-7.5,18.1c-.65,2.09-1.28,4.35-1.93,6.92-.57,2.25-1.1,4.51-1.63,6.76l-1.79,7.65a.46.46,0,0,1-.15.26C178.88,200.63,155.43,201.34,154.41,201.34Zm.59-1c3.53.08,21.08-.86,23.72-1.08l1.71-7.3c.53-2.27,1.06-4.53,1.63-6.79.66-2.58,1.29-4.86,1.94-7A108.82,108.82,0,0,1,191.54,160a12.1,12.1,0,0,0,1.57-4.06c-6.8,5.39-12.36,12.25-17.74,18.89h0L163.92,189c-.62.76-1.52,1.69-2.56,2.77C158.86,194.38,155.49,197.89,155,200.37Zm20-25.83h0Z" fill="#231f20"/><path d="M217,169.32c3.34,3.36,6,7.31,9,11a76.23,76.23,0,0,0,9.79,9.89c4.05,3.39,8.53,6.45,11.44,10.85.27.41.52,1,.19,1.34a1.16,1.16,0,0,1-.79.26,287.44,287.44,0,0,1-69.56-3.72c4.25-7.19,5.66-15.63,7.64-23.73,1.41-5.75,4.28-19.43,11.71-20.37,3.86-.49,7.19,3.78,9.95,5.89C210,163.47,213.77,166.07,217,169.32Z" fill="#fff"/><path d="M227.14,203.75A288.46,288.46,0,0,1,177,199.36a.46.46,0,0,1-.34-.26.45.45,0,0,1,0-.42c3.47-5.89,5.06-12.75,6.6-19.39.32-1.41.65-2.82,1-4.22l.25-1c1.58-6.55,4.51-18.74,11.84-19.68,3.15-.4,5.86,2.06,8.25,4.23.72.65,1.4,1.27,2,1.76l2.28,1.72a76.06,76.06,0,0,1,8.36,6.93h0a75,75,0,0,1,6.12,7.29c.95,1.23,1.94,2.5,2.94,3.72a75.38,75.38,0,0,0,9.74,9.83c.84.7,1.7,1.39,2.56,2.09,3.25,2.61,6.62,5.32,9,8.86.51.76.56,1.45.14,1.91a1.58,1.58,0,0,1-1.09.4Q236.93,203.75,227.14,203.75Zm-49.32-5.18a287.26,287.26,0,0,0,68.8,3.61c.14,0,.4,0,.48-.12s0-.43-.23-.78c-2.27-3.42-5.58-6.08-8.78-8.65-.86-.7-1.73-1.39-2.57-2.1a77.23,77.23,0,0,1-9.86-9.95c-1-1.23-2-2.51-2.95-3.75a76.22,76.22,0,0,0-6.05-7.19,73.37,73.37,0,0,0-8.25-6.84l-2.29-1.73c-.68-.52-1.37-1.15-2.1-1.81-2.25-2-4.79-4.35-7.52-4-6.71.85-9.65,13.1-11.07,19l-.25,1c-.34,1.39-.67,2.8-1,4.21C182.69,186,181.13,192.7,177.82,198.57Z" fill="#231f20"/><path d="M316.48,227.2h0l-38.84-3a121.21,121.21,0,0,1-18.56-2.4c-3.43-.8-7.28-3-6.82-6.41.3-2.18,2.23-3.81,5.93-5,28.29-8.82,58.26-8.65,87.25-8.48a.46.46,0,1,1,0,.91h0c-28.92-.16-58.82-.33-87,8.44-3.32,1-5.05,2.42-5.29,4.22-.38,2.83,3.06,4.67,6.12,5.39a121.23,121.23,0,0,0,18.42,2.38l38.84,3a.46.46,0,0,1,0,.91Z" fill="#231f20"/><path d="M254.89,240.16c-10.68,0-21.42-1.12-31.86-2.21-12.84-1.35-26.12-2.73-39.18-2-2.41.13-4.85.34-7.22.54A107.59,107.59,0,0,1,160,237c-2.88-.2-5.77-.64-8.57-1.06-1.46-.22-2.92-.44-4.38-.63a208.43,208.43,0,0,0-23.22-1.26c-11.09-.19-22.56-.38-33.76.87l-2.58.3a63.78,63.78,0,0,1-10.64.71c-4.92-.21-9.7-1.53-14.34-2.8L47.22,229a.47.47,0,0,1-.32-.56.45.45,0,0,1,.56-.32l15.26,4.18c4.58,1.26,9.32,2.56,14.13,2.77a65.58,65.58,0,0,0,10.49-.7l2.59-.31c11.25-1.26,22.75-1.06,33.87-.87a210.66,210.66,0,0,1,23.33,1.26c1.47.19,2.93.41,4.4.64,2.78.42,5.66.85,8.5,1.05a108.33,108.33,0,0,0,16.52-.54c2.37-.21,4.83-.41,7.25-.55,13.13-.72,26.45.67,39.32,2,12.39,1.29,25.21,2.63,37.81,2.08a.43.43,0,0,1,.47.44.44.44,0,0,1-.43.47Q257.94,240.17,254.89,240.16Z" fill="#231f20"/><path d="M74.08,202.07c2.46.45,4.89-.65,7.26-1.45,6.79-2.3,14.2-2.23,21.25-.93s13.81,3.78,20.54,6.25" fill="#e6e7e8"/><path d="M123.13,206.39l-.16,0c-6.6-2.43-13.43-4.93-20.47-6.23-7.87-1.45-14.94-1.14-21,.91l-1.07.37c-2.07.74-4.21,1.5-6.42,1.11a.46.46,0,0,1,.16-.91c2,.37,4-.36,6-1.06l1.08-.37c6.22-2.11,13.45-2.43,21.47-.95,7.11,1.31,14,3.83,20.62,6.27a.45.45,0,0,1-.16.88Z" fill="#231f20"/><path d="M160.05,205c4.87-.28,8.95-3.62,13.43-5.55,8.47-3.64,18.16-2.13,27.24-.56a31,31,0,0,1,6.84,1.82c2.4,1,4.11,1.68,6.82,1.18,2.53-.47,4.9-1.56,7.4-2.17a27,27,0,0,1,7.29-.67A43,43,0,0,1,252,206.55a1.06,1.06,0,0,0,.88.28c.3-.1.34-.67,0-.68" fill="#e6e7e8"/><path d="M252.72,207.31a1.78,1.78,0,0,1-1-.38,42.88,42.88,0,0,0-22.7-7.39,27.15,27.15,0,0,0-7.16.66c-1.07.26-2.14.62-3.17,1a31.56,31.56,0,0,1-4.26,1.21c-2.87.53-4.72-.24-7.07-1.21a31.2,31.2,0,0,0-6.75-1.79c-8.18-1.42-18.36-3.17-27,.53-1.41.61-2.81,1.37-4.17,2.12-3,1.6-6,3.27-9.41,3.47a.45.45,0,0,1-.48-.43.46.46,0,0,1,.42-.49c3.22-.18,6-1.72,9-3.36,1.38-.75,2.8-1.53,4.25-2.15,8.87-3.81,19.2-2,27.5-.59a31.73,31.73,0,0,1,6.94,1.85c2.29.95,3.95,1.63,6.55,1.15a31.05,31.05,0,0,0,4.14-1.18c1-.35,2.14-.71,3.24-1a27.72,27.72,0,0,1,7.41-.69,43.8,43.8,0,0,1,23.19,7.55l.22.14a.57.57,0,0,1,0-.18.46.46,0,0,1,.47-.44.68.68,0,0,1,.65.61.86.86,0,0,1-.55.95A.87.87,0,0,1,252.72,207.31Z" fill="#231f20"/><path d="M313.29,247l-.11,0L299,243.63a74.13,74.13,0,0,0-14.39-2.44.46.46,0,0,1-.44-.47.5.5,0,0,1,.48-.44,74.6,74.6,0,0,1,14.56,2.46l14.21,3.4a.46.46,0,0,1-.1.9Z" fill="#231f20"/><path d="M308.69,212.25c17.2.92,34.45,2.33,51.24,6.15a67.47,67.47,0,0,0-.28-12.55,3.82,3.82,0,0,0-1.17-2.78,4,4,0,0,0-2.11-.54,296.44,296.44,0,0,0-49,1.35c-8.25.91-13.87-.52-22,1.08-6.35,1.26-21.87,2.25-27,5.91,2.57,3.92,19.43,1.55,23.92,1.22A212.7,212.7,0,0,1,308.69,212.25Z" fill="#231f20"/><path d="M359.93,218.9h-.11c-17.22-3.92-34.77-5.27-51.16-6.14a213.77,213.77,0,0,0-26.41-.16l-2.62.24c-6.77.67-19.39,1.92-21.75-1.69a.5.5,0,0,1,.12-.68c3.88-2.75,13.12-4,20.54-5,2.68-.36,5-.67,6.68-1a55.46,55.46,0,0,1,12.38-.79,72.18,72.18,0,0,0,9.67-.3A296.7,296.7,0,0,1,356.4,202a3.39,3.39,0,0,1,3.75,3.75,68.54,68.54,0,0,1,.28,12.65.5.5,0,0,1-.5.46Zm-67.11-7.66c5.58,0,11,.25,15.9.51h0c16.25.87,33.64,2.2,50.75,6a66.39,66.39,0,0,0-.32-11.88,3.39,3.39,0,0,0-1-2.44,3.6,3.6,0,0,0-1.84-.44,295.87,295.87,0,0,0-49,1.35,74.24,74.24,0,0,1-9.8.3,54.49,54.49,0,0,0-12.16.77c-1.72.34-4.05.66-6.75,1C272,207.36,263,208.57,259,211c2.84,2.6,15.12,1.39,20.49.86,1.09-.11,2-.2,2.64-.24C285.74,211.34,289.32,211.24,292.82,211.24Z" fill="#231f20"/><path d="M218,249.6l-.13,0a47.33,47.33,0,0,0-15.52-1.86.46.46,0,0,1,0-.91,48.4,48.4,0,0,1,15.82,1.89.46.46,0,0,1-.13.9Z" fill="#231f20"/><path d="M115.79,219.78a.46.46,0,0,1-.13-.9c3.76-1.17,7.66-2.38,11.72-2.5a44.19,44.19,0,0,1,7.38.61l10.77,1.5a.46.46,0,0,1-.13.91l-10.76-1.51a43.72,43.72,0,0,0-7.23-.6c-3.94.12-7.77,1.31-11.48,2.47Z" fill="#231f20"/><path d="M316.44,237.94a17.41,17.41,0,0,1-3.89-.58l-.84-.18a38.47,38.47,0,0,0-15.67,0,.45.45,0,0,1-.54-.35.46.46,0,0,1,.35-.54,39.27,39.27,0,0,1,16,0l.85.18a16.88,16.88,0,0,0,3.86.55,16.38,16.38,0,0,0,5.51-1.46c.59-.23,1.18-.46,1.77-.67,7.89-2.77,16.57-1.67,24.23-.71a.45.45,0,0,1,.4.51.46.46,0,0,1-.51.4c-7.56-1-16.13-2-23.82.67-.58.2-1.16.43-1.74.65a16.93,16.93,0,0,1-5.82,1.52Z" fill="#231f20"/><path d="M193.9,227.77a.46.46,0,0,1-.21-.86,8.61,8.61,0,0,1,4.49-.58,12.15,12.15,0,0,0,3-.09,11.58,11.58,0,0,0,3.27-1.4l.59-.32a33.61,33.61,0,0,1,21.06-3.58.46.46,0,0,1-.14.9,32.69,32.69,0,0,0-20.49,3.49l-.58.31a12.5,12.5,0,0,1-3.54,1.5,13,13,0,0,1-3.18.11,7.76,7.76,0,0,0-4,.47A.38.38,0,0,1,193.9,227.77Z" fill="#231f20"/><path d="M250.78,196.32c11.91-3.6,24.36-6,36.77-5a137.86,137.86,0,0,1,16,2.51l6.56,1.29,22.93,4.51" fill="#e6e7e8"/><path d="M333.06,200.05H333l-29.48-5.79a139.65,139.65,0,0,0-16-2.51c-10.88-.84-22.51.76-36.61,5a.46.46,0,0,1-.26-.88c14.21-4.29,25.94-5.9,36.94-5a140,140,0,0,1,16.07,2.52l29.48,5.8a.45.45,0,0,1-.08.9Z" fill="#231f20"/><path d="M145,119.16H113.13a.5.5,0,0,1-.5-.5.51.51,0,0,1,.5-.5H145a.5.5,0,0,1,.5.5A.5.5,0,0,1,145,119.16Z" fill="#e6e7e8"/><path d="M160.05,135.8H113.13a.5.5,0,0,1-.5-.5.51.51,0,0,1,.5-.5h46.92a.5.5,0,0,1,.5.5A.5.5,0,0,1,160.05,135.8Z" fill="#e6e7e8"/><path d="M163.91,140H101a.5.5,0,0,1-.5-.5.5.5,0,0,1,.5-.5h62.88a.5.5,0,0,1,.5.5A.51.51,0,0,1,163.91,140Z" fill="#e6e7e8"/><path d="M174,146.56H111.16a.5.5,0,0,1-.5-.5.51.51,0,0,1,.5-.5H174a.51.51,0,0,1,.5.5A.5.5,0,0,1,174,146.56Z" fill="#e6e7e8"/><path d="M160.05,150.76H94.55a.5.5,0,0,1,0-1h65.5a.5.5,0,0,1,0,1Z" fill="#e6e7e8"/><path d="M177.09,158H120.17a.51.51,0,0,1-.5-.5.5.5,0,0,1,.5-.5h56.92a.5.5,0,0,1,.5.5A.5.5,0,0,1,177.09,158Z" fill="#e6e7e8"/><path d="M246.48,146.56H195a.5.5,0,0,1-.5-.5.5.5,0,0,1,.5-.5h51.49a.51.51,0,0,1,.5.5A.5.5,0,0,1,246.48,146.56Z" fill="#e6e7e8"/><path d="M260.58,157.14H212.35a.5.5,0,0,1,0-1h48.23a.5.5,0,0,1,0,1Z" fill="#e6e7e8"/><path d="M276.53,164H216.92a.5.5,0,0,1-.5-.5.5.5,0,0,1,.5-.5h59.61a.5.5,0,0,1,.5.5A.5.5,0,0,1,276.53,164Z" fill="#e6e7e8"/><path d="M283.48,174.58H242.93a.51.51,0,0,1-.5-.5.5.5,0,0,1,.5-.5h40.55a.5.5,0,0,1,.5.5A.51.51,0,0,1,283.48,174.58Z" fill="#e6e7e8"/><path d="M291.92,178.41H234.48a.51.51,0,0,1-.5-.5.5.5,0,0,1,.5-.5h57.44a.5.5,0,0,1,.5.5A.51.51,0,0,1,291.92,178.41Z" fill="#e6e7e8"/><path d="M170.48,166.05H129.09a.5.5,0,0,1-.5-.5.5.5,0,0,1,.5-.5h41.39a.5.5,0,0,1,.5.5A.5.5,0,0,1,170.48,166.05Z" fill="#e6e7e8"/><path d="M170.48,174.58H142.6a.5.5,0,0,1-.5-.5.5.5,0,0,1,.5-.5h27.88a.5.5,0,0,1,.5.5A.5.5,0,0,1,170.48,174.58Z" fill="#e6e7e8"/><path d="M142.6,128.17H109.24a.5.5,0,0,1-.5-.5.5.5,0,0,1,.5-.5H142.6a.5.5,0,0,1,.5.5A.5.5,0,0,1,142.6,128.17Z" fill="#e6e7e8"/><path d="M149.78,123.38H120.17a.5.5,0,0,1-.5-.5.51.51,0,0,1,.5-.5h29.61a.5.5,0,0,1,.5.5A.5.5,0,0,1,149.78,123.38Z" fill="#e6e7e8"/><path d="M136.69,113.53h-19a.5.5,0,0,1,0-1h19a.5.5,0,0,1,0,1Z" fill="#e6e7e8"/><path d="M135,109.21H120.17a.5.5,0,0,1-.5-.5.51.51,0,0,1,.5-.5H135a.51.51,0,0,1,.5.5A.5.5,0,0,1,135,109.21Z" fill="#e6e7e8"/><path d="M158.75,187.58H139.6a.5.5,0,0,1,0-1h19.15a.5.5,0,0,1,0,1Z" fill="#e6e7e8"/><path d="M154.44,182.23h-22a.5.5,0,0,1-.5-.5.5.5,0,0,1,.5-.5h22a.5.5,0,0,1,.5.5A.5.5,0,0,1,154.44,182.23Z" fill="#e6e7e8"/><path d="M158.75,170.41h-32.2a.51.51,0,0,1-.5-.5.5.5,0,0,1,.5-.5h32.2a.5.5,0,0,1,.5.5A.51.51,0,0,1,158.75,170.41Z" fill="#e6e7e8"/><path d="M142.18,161.69H116a.5.5,0,0,1-.5-.5.5.5,0,0,1,.5-.5h26.18a.5.5,0,0,1,.5.5A.51.51,0,0,1,142.18,161.69Z" fill="#e6e7e8"/><path d="M129.09,155.27H94.55a.5.5,0,0,1-.5-.5.5.5,0,0,1,.5-.5h34.54a.5.5,0,0,1,.5.5A.51.51,0,0,1,129.09,155.27Z" fill="#e6e7e8"/><path d="M263.2,150.76H200.89a.5.5,0,0,1,0-1H263.2a.5.5,0,0,1,0,1Z" fill="#e6e7e8"/><path d="M272,160.27H226a.5.5,0,0,1,0-1h46a.5.5,0,0,1,0,1Z" fill="#e6e7e8"/><path d="M279.25,170.41H223.53a.5.5,0,0,1-.5-.5.5.5,0,0,1,.5-.5h55.72a.5.5,0,0,1,.5.5A.5.5,0,0,1,279.25,170.41Z" fill="#e6e7e8"/><path d="M271.09,184.76H234.48a.5.5,0,0,1-.5-.5.51.51,0,0,1,.5-.5h36.61a.51.51,0,0,1,.5.5A.5.5,0,0,1,271.09,184.76Z" fill="#e6e7e8"/><path d="M305.31,188.71H247.75a.51.51,0,0,1-.5-.5.5.5,0,0,1,.5-.5h57.56a.5.5,0,0,1,.5.5A.51.51,0,0,1,305.31,188.71Z" fill="#e6e7e8"/><path d="M247,133.8H197.24a.5.5,0,0,1-.5-.5.51.51,0,0,1,.5-.5H247a.5.5,0,0,1,.5.5A.5.5,0,0,1,247,133.8Z" fill="#e6e7e8"/><path d="M241.8,129.3H212.35a.5.5,0,0,1-.5-.5.5.5,0,0,1,.5-.5H241.8a.5.5,0,0,1,.5.5A.5.5,0,0,1,241.8,129.3Z" fill="#e6e7e8"/><path d="M214.49,126.11H200a.5.5,0,0,1,0-1h14.45a.5.5,0,0,1,0,1Z" fill="#e6e7e8"/><path d="M254.77,142.25H197.24a.5.5,0,0,1,0-1h57.53a.5.5,0,0,1,0,1Z" fill="#e6e7e8"/><path d="M291.92,145.07H284.6a.5.5,0,0,1-.5-.5.5.5,0,0,1,.5-.5h7.32a.5.5,0,0,1,.5.5A.51.51,0,0,1,291.92,145.07Z" fill="#e6e7e8"/><path d="M296,150.76H283.48a.5.5,0,0,1,0-1H296a.5.5,0,0,1,0,1Z" fill="#e6e7e8"/><path d="M218,192.37H185.77a.51.51,0,0,1-.5-.5.5.5,0,0,1,.5-.5H218a.5.5,0,0,1,.5.5A.51.51,0,0,1,218,192.37Z" fill="#e6e7e8"/><path d="M229.13,187.58H192.29a.5.5,0,0,1,0-1h36.84a.5.5,0,0,1,0,1Z" fill="#e6e7e8"/><path d="M210,182.23H187.18a.5.5,0,0,1-.5-.5.51.51,0,0,1,.5-.5H210a.51.51,0,0,1,.5.5A.5.5,0,0,1,210,182.23Z" fill="#e6e7e8"/><path d="M222.11,177.16H192.29a.5.5,0,0,1-.5-.5.51.51,0,0,1,.5-.5h29.82a.51.51,0,0,1,.5.5A.5.5,0,0,1,222.11,177.16Z" fill="#e6e7e8"/><path d="M216.92,173.22H189.15a.5.5,0,0,1,0-1h27.77a.5.5,0,0,1,0,1Z" fill="#e6e7e8"/><path d="M210,168.53h-20.8a.51.51,0,0,1-.5-.5.5.5,0,0,1,.5-.5H210a.5.5,0,0,1,.5.5A.51.51,0,0,1,210,168.53Z" fill="#e6e7e8"/><path d="M204.36,164H192a.5.5,0,0,1-.5-.5.5.5,0,0,1,.5-.5h12.37a.51.51,0,0,1,.5.5A.5.5,0,0,1,204.36,164Z" fill="#e6e7e8"/><path d="M351.05,192.37H323.46a.5.5,0,0,1-.5-.5.5.5,0,0,1,.5-.5h27.59a.5.5,0,0,1,.5.5A.5.5,0,0,1,351.05,192.37Z" fill="#e6e7e8"/><path d="M354.15,196.12h-16.9a.5.5,0,0,1,0-1h16.9a.5.5,0,0,1,0,1Z" fill="#e6e7e8"/><path d="M337.25,184.76H310.51a.5.5,0,0,1-.5-.5.5.5,0,0,1,.5-.5h26.74a.5.5,0,0,1,.5.5A.5.5,0,0,1,337.25,184.76Z" fill="#e6e7e8"/><path d="M330.78,178.41H313.29a.5.5,0,0,1-.5-.5.5.5,0,0,1,.5-.5h17.49a.5.5,0,0,1,.5.5A.51.51,0,0,1,330.78,178.41Z" fill="#e6e7e8"/><path d="M315.29,165.71H297.55a.5.5,0,0,1-.5-.5.51.51,0,0,1,.5-.5h17.74a.5.5,0,0,1,.5.5A.5.5,0,0,1,315.29,165.71Z" fill="#e6e7e8"/><path d="M310.51,160.27H284.6a.5.5,0,0,1,0-1h25.91a.5.5,0,0,1,0,1Z" fill="#e6e7e8"/><path d="M302.9,157.14H284.6a.5.5,0,0,1,0-1h18.3a.5.5,0,0,1,0,1Z" fill="#e6e7e8"/><path d="M139.6,195.83h-56a.5.5,0,0,1-.5-.5.5.5,0,0,1,.5-.5h56a.5.5,0,0,1,.5.5A.5.5,0,0,1,139.6,195.83Z" fill="#e6e7e8"/><path d="M141.46,200.1H113.68a.51.51,0,0,1-.5-.5.5.5,0,0,1,.5-.5h27.78a.5.5,0,0,1,.5.5A.5.5,0,0,1,141.46,200.1Z" fill="#e6e7e8"/><path d="M123.55,186H84.61a.5.5,0,0,1-.5-.5.5.5,0,0,1,.5-.5h38.94a.5.5,0,0,1,.5.5A.5.5,0,0,1,123.55,186Z" fill="#e6e7e8"/><path d="M120.17,177.16H98.6a.5.5,0,0,1-.5-.5.51.51,0,0,1,.5-.5h21.57a.5.5,0,0,1,.5.5A.5.5,0,0,1,120.17,177.16Z" fill="#e6e7e8"/><path d="M116.42,173.22H94.55a.5.5,0,1,1,0-1h21.87a.5.5,0,0,1,0,1Z" fill="#e6e7e8"/><path d="M218,86.44a17.21,17.21,0,0,1,19.68-10.06c1.3.34,2.66.84,4,.47,2.15-.61,2.92-3.16,3.8-5.22A16.89,16.89,0,0,1,253,63.39c1.57-.84,3.4-1.54,4.24-3.1.72-1.34.53-3,.74-4.46.9-6.51,8.89-9.39,15.45-9,4.32.23,9.36.13,12.48,3.75,1.17,1.36,1.9,3.16,3.41,4.12,2.54,1.61,6,.13,8.84,1.1a5.36,5.36,0,0,1,3.19,2.93c.39.88.68,2,1.62,2.28a3.72,3.72,0,0,0,2-.42c2.64-.85,5.45,1.35,6.41,4s.63,5.47.53,8.25a5.41,5.41,0,0,0,.29,2.3,5.67,5.67,0,0,0,1.91,2,13.88,13.88,0,0,0,9.89,3.8c2.79.15,7-.49,7.58,3.32-20.23-.52-40.47-.44-60.7-.44Z" fill="#fff"/><path d="M360.64,254.68H39.44a.5.5,0,0,1-.5-.5V45.82a.5.5,0,0,1,.5-.5h321.2a.5.5,0,0,1,.5.5V254.18A.5.5,0,0,1,360.64,254.68Zm-320.7-1h320.2V46.32H39.94Z" fill="#231f20"/><path d="M72.25,246.38a37.64,37.64,0,0,1-4-.29l-1.57-.17a87.9,87.9,0,0,0-14.61.27.45.45,0,0,1-.49-.43.46.46,0,0,1,.42-.49A89.75,89.75,0,0,1,66.77,245l1.58.17a28.41,28.41,0,0,0,4.87.26A28.32,28.32,0,0,0,79,244.21l1.26-.35a66.52,66.52,0,0,1,26.49-1.73.45.45,0,0,1,.39.51.47.47,0,0,1-.51.4,65.4,65.4,0,0,0-26.12,1.7l-1.26.35a28.17,28.17,0,0,1-6,1.26C72.94,246.37,72.59,246.38,72.25,246.38Z" fill="#231f20"/><path d="M57.68,220a.46.46,0,0,1-.1-.9,58.73,58.73,0,0,1,23.91-.55.45.45,0,1,1-.17.89,57.81,57.81,0,0,0-23.54.55Z" fill="#231f20"/></g></svg>