<svg xmlns="http://www.w3.org/2000/svg" viewBox="0 0 400 300"><g id="_259_timeline_flatline" data-name="#259_timeline_flatline"><polyline points="45.31 222.4 85.64 222.4 109.3 199.13 185.17 199.13 195.01 180.52 262.87 180.52 266.66 166.17 301.66 166.17 303.3 154.83 253.12 154.55 249.66 168.72 182.84 168.72 172.9 186.34 98.44 186.34 75.95 205.73 59.66 205.73" fill="#fff"/><path d="M85.64,222.9H45.31a.5.5,0,0,1-.5-.5.5.5,0,0,1,.5-.5H85.44L109,198.78a.51.51,0,0,1,.35-.15h75.57l9.69-18.34A.5.5,0,0,1,195,180h67.48l3.68-14a.5.5,0,0,1,.49-.37h34.56l1.51-10.35-49.22-.27-3.36,13.78a.51.51,0,0,1-.49.39H183.13l-9.79,17.36a.51.51,0,0,1-.44.26H98.63L76.27,206.11a.53.53,0,0,1-.32.12H59.66a.5.5,0,0,1-.5-.5.5.5,0,0,1,.5-.5h16.1L98.12,186a.47.47,0,0,1,.32-.12h74.17l9.79-17.37a.5.5,0,0,1,.44-.25h66.43l3.36-13.79a.51.51,0,0,1,.49-.38h0l50.19.28a.5.5,0,0,1,.49.57l-1.65,11.34a.5.5,0,0,1-.49.43H267l-3.68,14a.5.5,0,0,1-.49.37H195.31l-9.7,18.35a.51.51,0,0,1-.44.26H109.5L86,222.76A.5.5,0,0,1,85.64,222.9Z" fill="#231f20"/><path d="M79.79,214.37h-3a.5.5,0,0,1,0-1h3a.5.5,0,1,1,0,1Zm-6,0h-3a.5.5,0,0,1,0-1h3a.5.5,0,1,1,0,1Zm-6,0h-3a.5.5,0,0,1,0-1h3a.5.5,0,1,1,0,1Zm-6,0h-3a.5.5,0,0,1,0-1h3a.5.5,0,1,1,0,1Zm21-.1a.49.49,0,0,1-.37-.16.5.5,0,0,1,0-.71l2.2-2a.5.5,0,1,1,.68.73l-2.2,2A.5.5,0,0,1,82.75,214.27Zm4.4-4.07a.52.52,0,0,1-.36-.16.5.5,0,0,1,0-.71l2.21-2a.5.5,0,0,1,.68.74l-2.21,2A.51.51,0,0,1,87.15,210.2Zm4.41-4.07a.51.51,0,0,1-.37-.17.5.5,0,0,1,0-.7l2.21-2a.5.5,0,0,1,.7,0,.5.5,0,0,1,0,.71l-2.2,2A.51.51,0,0,1,91.56,206.13ZM96,202.05a.49.49,0,0,1-.37-.16.49.49,0,0,1,0-.7l2.2-2a.5.5,0,0,1,.71,0,.49.49,0,0,1,0,.7l-2.2,2A.5.5,0,0,1,96,202.05Zm4.4-4.07a.5.5,0,0,1-.33-.86l2.2-2a.5.5,0,0,1,.71,0,.5.5,0,0,1,0,.7l-2.21,2A.47.47,0,0,1,100.37,198Zm4.41-4.07a.5.5,0,0,1-.37-.16.51.51,0,0,1,0-.71l.84-.77a.51.51,0,0,1,.34-.13h1.86a.5.5,0,1,1,0,1h-1.67l-.69.64A.5.5,0,0,1,104.78,193.91Zm74.42-.77h-2.72a.5.5,0,0,1,0-1h2.44a.5.5,0,1,1,.85.51l-.14.24A.5.5,0,0,1,179.2,193.14Zm-5.72,0h-3a.5.5,0,0,1,0-1h3a.5.5,0,1,1,0,1Zm-6,0h-3a.5.5,0,0,1,0-1h3a.5.5,0,1,1,0,1Zm-6,0h-3a.5.5,0,0,1,0-1h3a.5.5,0,1,1,0,1Zm-6,0h-3a.5.5,0,0,1,0-1h3a.5.5,0,1,1,0,1Zm-6,0h-3a.5.5,0,0,1,0-1h3a.5.5,0,1,1,0,1Zm-6,0h-3a.5.5,0,0,1,0-1h3a.5.5,0,1,1,0,1Zm-6,0h-3a.5.5,0,0,1,0-1h3a.5.5,0,1,1,0,1Zm-6,0h-3a.5.5,0,1,1,0-1h3a.5.5,0,1,1,0,1Zm-6,0h-3a.5.5,0,0,1,0-1h3a.5.5,0,1,1,0,1Zm-6,0h-3a.5.5,0,0,1,0-1h3a.5.5,0,1,1,0,1Zm-6,0h-3a.5.5,0,0,1,0-1h3a.5.5,0,1,1,0,1Zm67.37-2.83a.47.47,0,0,1-.25-.07.5.5,0,0,1-.18-.68l1.51-2.59a.5.5,0,0,1,.69-.18.49.49,0,0,1,.18.68l-1.51,2.59A.51.51,0,0,1,180.85,190.31Zm3-5.18a.59.59,0,0,1-.26-.07.51.51,0,0,1-.17-.69l1.51-2.59a.49.49,0,0,1,.68-.18.51.51,0,0,1,.18.69l-1.51,2.59A.5.5,0,0,1,183.88,185.13Zm3-5.19a.54.54,0,0,1-.25-.06.51.51,0,0,1-.18-.69L188,176.6a.5.5,0,0,1,.86.5l-1.51,2.6A.51.51,0,0,1,186.9,179.94Zm66.56-4.25h-3a.5.5,0,0,1-.5-.5.5.5,0,0,1,.5-.5h3a.5.5,0,0,1,.5.5A.51.51,0,0,1,253.46,175.69Zm-6,0h-3a.5.5,0,0,1-.5-.5.5.5,0,0,1,.5-.5h3a.5.5,0,0,1,.5.5A.51.51,0,0,1,247.46,175.69Zm-6,0h-3a.5.5,0,0,1-.5-.5.5.5,0,0,1,.5-.5h3a.5.5,0,0,1,.5.5A.51.51,0,0,1,241.46,175.69Zm-6,0h-3a.5.5,0,0,1-.5-.5.5.5,0,0,1,.5-.5h3a.5.5,0,0,1,.5.5A.51.51,0,0,1,235.46,175.69Zm-6,0h-3a.5.5,0,0,1-.5-.5.5.5,0,0,1,.5-.5h3a.5.5,0,0,1,.5.5A.51.51,0,0,1,229.46,175.69Zm-6,0h-3a.5.5,0,0,1-.5-.5.5.5,0,0,1,.5-.5h3a.5.5,0,0,1,.5.5A.51.51,0,0,1,223.46,175.69Zm-6,0h-3a.5.5,0,0,1-.5-.5.5.5,0,0,1,.5-.5h3a.5.5,0,0,1,.5.5A.51.51,0,0,1,217.46,175.69Zm-6,0h-3a.5.5,0,0,1-.5-.5.5.5,0,0,1,.5-.5h3a.5.5,0,0,1,.5.5A.51.51,0,0,1,211.46,175.69Zm-6,0h-3a.5.5,0,0,1-.5-.5.5.5,0,0,1,.5-.5h3a.5.5,0,0,1,.5.5A.51.51,0,0,1,205.46,175.69Zm-6,0h-3a.5.5,0,0,1-.5-.5.5.5,0,0,1,.5-.5h3a.5.5,0,0,1,.5.5A.51.51,0,0,1,199.46,175.69Zm-6,0h-3a.5.5,0,0,1-.5-.5.5.5,0,0,1,.5-.5h3a.5.5,0,0,1,.5.5A.51.51,0,0,1,193.46,175.69Zm61.93-1.39a.3.3,0,0,1-.13,0,.49.49,0,0,1-.35-.61l.77-2.9a.5.5,0,0,1,1,.26l-.77,2.9A.5.5,0,0,1,255.39,174.3Zm1.54-5.8h-.13a.52.52,0,0,1-.35-.62l.77-2.9a.5.5,0,0,1,1,.26l-.77,2.9A.51.51,0,0,1,256.93,168.5Zm1.54-5.8h-.12a.5.5,0,0,1-.36-.61l.33-1.24a.5.5,0,0,1,.48-.37h1.72a.5.5,0,0,1,0,1h-1.33l-.23.86A.49.49,0,0,1,258.47,162.7Zm44-1.23h-3a.5.5,0,0,1,0-1h3a.5.5,0,0,1,0,1Zm-6,0h-3a.5.5,0,0,1,0-1h3a.5.5,0,0,1,0,1Zm-6,0h-3a.5.5,0,0,1,0-1h3a.5.5,0,0,1,0,1Zm-6,0h-3a.5.5,0,0,1,0-1h3a.5.5,0,0,1,0,1Zm-6,0h-3a.5.5,0,0,1,0-1h3a.5.5,0,0,1,0,1Zm-6,0h-3a.5.5,0,0,1,0-1h3a.5.5,0,0,1,0,1Zm-6,0h-3a.5.5,0,0,1,0-1h3a.5.5,0,0,1,0,1Z" fill="#d1d3d4"/><polygon points="289.34 150.75 303.3 175.17 354.69 172.28 335.1 151.72 289.34 150.75" fill="#fff"/><path d="M303.3,175.67a.48.48,0,0,1-.43-.25l-14-24.42a.5.5,0,0,1,0-.5.52.52,0,0,1,.44-.25l45.76,1a.5.5,0,0,1,.35.16l19.59,20.55a.48.48,0,0,1,.1.53.5.5,0,0,1-.43.32l-51.39,2.89Zm-13.09-24.4,13.37,23.39,50-2.82-18.7-19.62Z" fill="#231f20"/><polygon points="289.34 130.26 289.34 150.75 303.3 175.17 354.69 175.17 354.69 154.55 289.34 130.26" fill="#fff"/><path d="M354.69,175.67H303.3a.48.48,0,0,1-.43-.25l-14-24.42a.52.52,0,0,1-.07-.25V130.26a.5.5,0,0,1,.22-.41.53.53,0,0,1,.46-.06l65.34,24.29a.51.51,0,0,1,.33.47v20.62A.5.5,0,0,1,354.69,175.67Zm-51.1-1h50.6V154.9L289.84,131v19.64Z" fill="#231f20"/><polygon points="289.34 130.26 303.89 154.55 354.69 154.55 336.72 130.26 289.34 130.26" fill="#fff"/><path d="M354.69,155.05h-50.8a.5.5,0,0,1-.43-.24l-14.55-24.29a.51.51,0,0,1,.43-.76h47.38a.49.49,0,0,1,.4.21l18,24.29a.51.51,0,0,1,.05.52A.5.5,0,0,1,354.69,155.05Zm-50.52-1H353.7l-17.23-23.29H290.22Z" fill="#231f20"/><path d="M303.3,175.67h0a.5.5,0,0,1-.49-.51l.59-20.62a.54.54,0,0,1,.51-.49.51.51,0,0,1,.49.52l-.59,20.62A.49.49,0,0,1,303.3,175.67Z" fill="#231f20"/><path d="M77.52,212.08a.5.5,0,0,1-.5-.5V191.25a.5.5,0,0,1,.5-.5.5.5,0,0,1,.5.5v20.33A.5.5,0,0,1,77.52,212.08Z" fill="#231f20"/><circle cx="77.52" cy="211.58" r="2.84" fill="#231f20"/><path d="M77.52,214.92a3.34,3.34,0,1,1,3.33-3.34A3.35,3.35,0,0,1,77.52,214.92Zm0-5.67a2.34,2.34,0,1,0,2.33,2.33A2.33,2.33,0,0,0,77.52,209.25Z" fill="#231f20"/><circle cx="77.52" cy="171.28" r="22.04" fill="#68e1fd"/><path d="M63.45,173.59l3.41-3.06c.17-.16.34-.34.52-.53a1,1,0,0,0,.26-.7.85.85,0,0,0-.32-.7,1.2,1.2,0,0,0-.76-.25,1,1,0,0,0-.81.32,1.23,1.23,0,0,0-.33.79l-1.86-.13a2.9,2.9,0,0,1,.29-1.19,2.43,2.43,0,0,1,.65-.83,3,3,0,0,1,1-.51,4.2,4.2,0,0,1,1.2-.16,3.7,3.7,0,0,1,1.12.16,2.82,2.82,0,0,1,.9.5,2.16,2.16,0,0,1,.6.82,2.79,2.79,0,0,1,.22,1.16,3,3,0,0,1-.09.76,2.86,2.86,0,0,1-.24.62,2.66,2.66,0,0,1-.37.51c-.14.16-.29.31-.45.46l-2.67,2.3h3.89v1.63H63.45Z"/><path d="M70.59,171.17a9.46,9.46,0,0,1,.14-1.58,4.92,4.92,0,0,1,.51-1.47,3.1,3.1,0,0,1,1-1.07,3.37,3.37,0,0,1,3.22,0,3.2,3.2,0,0,1,1,1.07,4.92,4.92,0,0,1,.51,1.47,9.46,9.46,0,0,1,.14,1.58,9.68,9.68,0,0,1-.14,1.59,4.76,4.76,0,0,1-.51,1.46,3.14,3.14,0,0,1-1,1.08,3.37,3.37,0,0,1-3.22,0,3,3,0,0,1-1-1.08,4.76,4.76,0,0,1-.51-1.46A9.68,9.68,0,0,1,70.59,171.17Zm1.86,0c0,.23,0,.51,0,.83a3.93,3.93,0,0,0,.17.93,2.06,2.06,0,0,0,.41.76,1.15,1.15,0,0,0,1.57,0,1.94,1.94,0,0,0,.42-.76,3.93,3.93,0,0,0,.17-.93c0-.32,0-.6,0-.83s0-.51,0-.83a4.13,4.13,0,0,0-.17-.93,1.9,1.9,0,0,0-.42-.75,1.15,1.15,0,0,0-1.57,0,2,2,0,0,0-.41.75,4.13,4.13,0,0,0-.17.93C72.46,170.66,72.45,170.94,72.45,171.17Z"/><path d="M81.09,168.87l-1.76,1.55-1-1.22,2.86-2.42h1.73v8.78H81.09Z"/><path d="M88.64,172.43l-.3.06-.31,0a2.78,2.78,0,0,1-1.13-.22,2.58,2.58,0,0,1-.87-.61,2.77,2.77,0,0,1-.55-.91,3,3,0,0,1-.2-1.12,2.85,2.85,0,0,1,.25-1.23,2.76,2.76,0,0,1,.7-.95,3.15,3.15,0,0,1,1-.62,3.88,3.88,0,0,1,1.29-.21,3.82,3.82,0,0,1,1.28.21,3.24,3.24,0,0,1,1,.62,2.86,2.86,0,0,1,.94,2.18,4.57,4.57,0,0,1-.08.86,5.34,5.34,0,0,1-.23.74,5.13,5.13,0,0,1-.34.66c-.12.21-.26.43-.4.65l-1.92,3H86.58Zm-1.5-2.71a1.34,1.34,0,0,0,.39,1,1.53,1.53,0,0,0,2,0,1.44,1.44,0,0,0,0-2,1.53,1.53,0,0,0-2,0A1.33,1.33,0,0,0,87.14,169.72Z"/><path d="M167.3,192.49a.5.5,0,0,1-.5-.5V171.66a.51.51,0,0,1,.5-.5.5.5,0,0,1,.5.5V192A.5.5,0,0,1,167.3,192.49Z" fill="#231f20"/><circle cx="167.3" cy="191.99" r="2.84" fill="#231f20"/><path d="M167.3,195.33a3.34,3.34,0,1,1,3.34-3.34A3.34,3.34,0,0,1,167.3,195.33Zm0-5.67a2.34,2.34,0,1,0,2.34,2.33A2.33,2.33,0,0,0,167.3,189.66Z" fill="#231f20"/><circle cx="167.3" cy="151.69" r="22.04" fill="#68e1fd"/><path d="M153.23,154l3.41-3.06a5.23,5.23,0,0,0,.52-.53,1,1,0,0,0,.26-.7.84.84,0,0,0-.32-.7,1.18,1.18,0,0,0-.76-.25,1.07,1.07,0,0,0-.81.32,1.38,1.38,0,0,0-.33.8l-1.86-.14a3,3,0,0,1,.29-1.18,2.29,2.29,0,0,1,.66-.84,2.74,2.74,0,0,1,1-.5,3.76,3.76,0,0,1,1.19-.17,3.41,3.41,0,0,1,1.12.17,2.45,2.45,0,0,1,.9.49,2.33,2.33,0,0,1,.61.83,2.91,2.91,0,0,1,.21,1.15,3.55,3.55,0,0,1-.08.76,2.3,2.3,0,0,1-.25.62,2.68,2.68,0,0,1-.36.52c-.14.15-.29.31-.46.46l-2.67,2.29h3.9V156h-6.13Z"/><path d="M160.37,151.59a8.72,8.72,0,0,1,.15-1.59,4.58,4.58,0,0,1,.5-1.46,3.14,3.14,0,0,1,1-1.08,3,3,0,0,1,4.22,1.08,4.36,4.36,0,0,1,.51,1.46,8.69,8.69,0,0,1,.14,1.59,8.51,8.51,0,0,1-.14,1.58,4.42,4.42,0,0,1-.51,1.47,3,3,0,0,1-1,1.07,3.37,3.37,0,0,1-3.22,0,3.2,3.2,0,0,1-1-1.07,4.64,4.64,0,0,1-.5-1.47A8.53,8.53,0,0,1,160.37,151.59Zm1.86,0c0,.23,0,.5,0,.83a4.13,4.13,0,0,0,.17.93,1.9,1.9,0,0,0,.42.75,1,1,0,0,0,.78.31,1,1,0,0,0,.78-.31,2,2,0,0,0,.43-.75,4.11,4.11,0,0,0,.16-.93c0-.33,0-.6,0-.83s0-.51,0-.83a3.93,3.93,0,0,0-.16-.93,2.09,2.09,0,0,0-.43-.76,1,1,0,0,0-.78-.31,1,1,0,0,0-.78.31,1.94,1.94,0,0,0-.42.76,3.93,3.93,0,0,0-.17.93C162.24,151.08,162.23,151.35,162.23,151.59Z"/><path d="M167.91,154l3.41-3.06a6.56,6.56,0,0,0,.52-.53,1,1,0,0,0,.26-.7.86.86,0,0,0-.32-.7,1.2,1.2,0,0,0-.76-.25,1,1,0,0,0-.81.32,1.38,1.38,0,0,0-.33.8l-1.86-.14a3,3,0,0,1,.29-1.18,2.37,2.37,0,0,1,.65-.84,2.93,2.93,0,0,1,1-.5,3.87,3.87,0,0,1,1.2-.17,3.41,3.41,0,0,1,1.12.17,2.53,2.53,0,0,1,.9.49,2.19,2.19,0,0,1,.6.83,2.74,2.74,0,0,1,.22,1.15,3,3,0,0,1-.09.76,2.75,2.75,0,0,1-.6,1.14l-.46.46-2.67,2.29H174V156h-6.12Z"/><path d="M175.05,151.59a9.68,9.68,0,0,1,.14-1.59,4.86,4.86,0,0,1,.51-1.46,3,3,0,0,1,1-1.08,3.37,3.37,0,0,1,3.22,0,3,3,0,0,1,1,1.08,4.86,4.86,0,0,1,.51,1.46,9.68,9.68,0,0,1,.14,1.59,9.46,9.46,0,0,1-.14,1.58,4.92,4.92,0,0,1-.51,1.47,3.1,3.1,0,0,1-1,1.07,3.37,3.37,0,0,1-3.22,0,3.1,3.1,0,0,1-1-1.07,4.92,4.92,0,0,1-.51-1.47A9.46,9.46,0,0,1,175.05,151.59Zm1.86,0c0,.23,0,.5,0,.83a4.13,4.13,0,0,0,.17.93,2,2,0,0,0,.41.75,1.15,1.15,0,0,0,1.57,0,1.9,1.9,0,0,0,.42-.75,4.13,4.13,0,0,0,.17-.93c0-.33,0-.6,0-.83s0-.51,0-.83a3.93,3.93,0,0,0-.17-.93,1.94,1.94,0,0,0-.42-.76,1.15,1.15,0,0,0-1.57,0,2.06,2.06,0,0,0-.41.76,3.93,3.93,0,0,0-.17.93C176.92,151.08,176.91,151.35,176.91,151.59Z"/><path d="M239.34,174.51a.5.5,0,0,1-.5-.5V153.68a.51.51,0,0,1,.5-.5.5.5,0,0,1,.5.5V174A.5.5,0,0,1,239.34,174.51Z" fill="#231f20"/><circle cx="239.34" cy="174.01" r="2.84" fill="#231f20"/><path d="M239.34,177.35a3.34,3.34,0,1,1,3.34-3.34A3.34,3.34,0,0,1,239.34,177.35Zm0-5.67a2.34,2.34,0,1,0,2.34,2.33A2.33,2.33,0,0,0,239.34,171.68Z" fill="#231f20"/><circle cx="239.34" cy="133.71" r="22.04" fill="#68e1fd"/><path d="M225.27,136l3.41-3.06a5.25,5.25,0,0,0,.52-.53,1,1,0,0,0,.26-.69.87.87,0,0,0-.32-.71,1.2,1.2,0,0,0-.76-.25,1.07,1.07,0,0,0-.81.32,1.38,1.38,0,0,0-.33.8l-1.86-.14a3,3,0,0,1,.29-1.18,2.29,2.29,0,0,1,.66-.84,2.74,2.74,0,0,1,1-.5,4.07,4.07,0,0,1,1.19-.17,3.7,3.7,0,0,1,1.12.17,2.45,2.45,0,0,1,.9.49,2.19,2.19,0,0,1,.6.83,2.74,2.74,0,0,1,.22,1.15,3,3,0,0,1-.09.76,2,2,0,0,1-.24.62,2.68,2.68,0,0,1-.36.52c-.14.15-.3.31-.46.46l-2.67,2.29h3.9V138h-6.13Z"/><path d="M232.41,133.61a9.68,9.68,0,0,1,.14-1.59,4.86,4.86,0,0,1,.51-1.46,3.14,3.14,0,0,1,1-1.08,3.37,3.37,0,0,1,3.22,0,3,3,0,0,1,1,1.08,4.86,4.86,0,0,1,.51,1.46,9.68,9.68,0,0,1,.14,1.59,9.46,9.46,0,0,1-.14,1.58,4.92,4.92,0,0,1-.51,1.47,3.1,3.1,0,0,1-1,1.07,3.37,3.37,0,0,1-3.22,0,3.2,3.2,0,0,1-1-1.07,4.92,4.92,0,0,1-.51-1.47A9.46,9.46,0,0,1,232.41,133.61Zm1.86,0c0,.23,0,.51,0,.83a4.13,4.13,0,0,0,.17.93,2,2,0,0,0,.41.75,1.15,1.15,0,0,0,1.57,0,1.9,1.9,0,0,0,.42-.75,4.13,4.13,0,0,0,.17-.93c0-.32,0-.6,0-.83s0-.51,0-.83a3.93,3.93,0,0,0-.17-.93,1.94,1.94,0,0,0-.42-.76,1.15,1.15,0,0,0-1.57,0,2.06,2.06,0,0,0-.41.76,3.93,3.93,0,0,0-.17.93C234.28,133.1,234.27,133.38,234.27,133.61Z"/><path d="M240,136l3.41-3.06a6.58,6.58,0,0,0,.52-.53,1,1,0,0,0,.26-.69.87.87,0,0,0-.32-.71,1.2,1.2,0,0,0-.76-.25,1,1,0,0,0-.81.32,1.26,1.26,0,0,0-.33.8l-1.86-.14a3,3,0,0,1,.29-1.18,2.37,2.37,0,0,1,.65-.84,2.93,2.93,0,0,1,1-.5,4.19,4.19,0,0,1,1.2-.17,3.7,3.7,0,0,1,1.12.17,2.62,2.62,0,0,1,.9.49,2.19,2.19,0,0,1,.6.83,2.74,2.74,0,0,1,.22,1.15,3,3,0,0,1-.09.76,2.67,2.67,0,0,1-.24.62,2.35,2.35,0,0,1-.37.52c-.14.15-.29.31-.45.46l-2.67,2.29h3.89V138H240Z"/><path d="M250.25,131.3l-1.76,1.55-1.05-1.21,2.86-2.42H252V138h-1.78Z"/><path d="M322.89,140.44a.51.51,0,0,1-.5-.5V119.61a.5.5,0,0,1,.5-.5.5.5,0,0,1,.5.5v20.33A.5.5,0,0,1,322.89,140.44Z" fill="#231f20"/><circle cx="322.89" cy="139.94" r="2.84" fill="#231f20"/><path d="M322.89,143.27a3.34,3.34,0,1,1,3.34-3.33A3.33,3.33,0,0,1,322.89,143.27Zm0-5.67a2.34,2.34,0,1,0,2.34,2.34A2.34,2.34,0,0,0,322.89,137.6Z" fill="#231f20"/><circle cx="322.89" cy="99.63" r="22.04" fill="#68e1fd"/><path d="M308.82,102l3.41-3.06a5.36,5.36,0,0,0,.52-.54,1,1,0,0,0,.26-.69.82.82,0,0,0-.32-.7,1.16,1.16,0,0,0-.75-.26,1,1,0,0,0-.82.33,1.28,1.28,0,0,0-.32.79l-1.86-.14a3,3,0,0,1,.28-1.18,2.52,2.52,0,0,1,.66-.84,2.74,2.74,0,0,1,1-.5A4.19,4.19,0,0,1,312,95a3.68,3.68,0,0,1,1.11.17,2.6,2.6,0,0,1,.91.5,2.3,2.3,0,0,1,.6.82,3,3,0,0,1,.21,1.15,2.71,2.71,0,0,1-.32,1.39,3.68,3.68,0,0,1-.37.51,5,5,0,0,1-.46.46l-2.66,2.29H315v1.64h-6.13Z"/><path d="M316,99.53a8.72,8.72,0,0,1,.15-1.59,4.44,4.44,0,0,1,.51-1.46,3,3,0,0,1,1-1.07,2.85,2.85,0,0,1,1.61-.42,2.89,2.89,0,0,1,1.62.42,3,3,0,0,1,1,1.07,4.44,4.44,0,0,1,.51,1.46,9.1,9.1,0,0,1,0,3.18,4.44,4.44,0,0,1-.51,1.46,3,3,0,0,1-1,1.07,2.89,2.89,0,0,1-1.62.42,2.85,2.85,0,0,1-1.61-.42,3,3,0,0,1-1-1.07,4.44,4.44,0,0,1-.51-1.46A8.72,8.72,0,0,1,316,99.53Zm1.86,0c0,.23,0,.51,0,.83a4.77,4.77,0,0,0,.17.93,1.94,1.94,0,0,0,.42.76,1,1,0,0,0,.78.31,1,1,0,0,0,.79-.31,1.94,1.94,0,0,0,.42-.76,4.11,4.11,0,0,0,.16-.93c0-.32,0-.6,0-.83s0-.51,0-.83a4.11,4.11,0,0,0-.16-.93A1.94,1.94,0,0,0,320,97a1,1,0,0,0-.79-.31,1,1,0,0,0-.78.31,1.94,1.94,0,0,0-.42.76,4.77,4.77,0,0,0-.17.93C317.83,99,317.82,99.3,317.82,99.53Z"/><path d="M323.5,102l3.41-3.06a6.75,6.75,0,0,0,.52-.54,1,1,0,0,0,.26-.69.85.85,0,0,0-.32-.7,1.21,1.21,0,0,0-.76-.26,1,1,0,0,0-.81.33,1.35,1.35,0,0,0-.33.79l-1.86-.14a3,3,0,0,1,.29-1.18,2.29,2.29,0,0,1,.66-.84,2.74,2.74,0,0,1,1-.5,4.07,4.07,0,0,1,1.19-.17,3.7,3.7,0,0,1,1.12.17,2.47,2.47,0,0,1,.9.5,2.08,2.08,0,0,1,.6.82,2.78,2.78,0,0,1,.22,1.15,3.07,3.07,0,0,1-.09.77,2.22,2.22,0,0,1-.24.62,3,3,0,0,1-.36.51c-.14.16-.3.31-.46.46l-2.67,2.29h3.9v1.64H323.5Z"/><path d="M330.64,99.53a9.68,9.68,0,0,1,.14-1.59,5,5,0,0,1,.51-1.46,3.11,3.11,0,0,1,1-1.07,3.3,3.3,0,0,1,3.22,0,3,3,0,0,1,1,1.07,5,5,0,0,1,.51,1.46,9.1,9.1,0,0,1,0,3.18,5,5,0,0,1-.51,1.46,3,3,0,0,1-1,1.07,3.3,3.3,0,0,1-3.22,0,3.11,3.11,0,0,1-1-1.07,5,5,0,0,1-.51-1.46A9.68,9.68,0,0,1,330.64,99.53Zm1.86,0c0,.23,0,.51,0,.83a4.13,4.13,0,0,0,.17.93,2.06,2.06,0,0,0,.41.76,1.15,1.15,0,0,0,1.57,0,1.94,1.94,0,0,0,.42-.76,4.13,4.13,0,0,0,.17-.93c0-.32,0-.6,0-.83s0-.51,0-.83a4.13,4.13,0,0,0-.17-.93,1.94,1.94,0,0,0-.42-.76,1.15,1.15,0,0,0-1.57,0,2.06,2.06,0,0,0-.41.76,4.13,4.13,0,0,0-.17.93C332.51,99,332.5,99.3,332.5,99.53Z"/><path d="M95.05,119.48H52.32a.5.5,0,0,1-.5-.5.5.5,0,0,1,.5-.5H95.05a.5.5,0,0,1,.5.5A.51.51,0,0,1,95.05,119.48Z" fill="#d1d3d4"/><path d="M95.05,128H52.32a.5.5,0,0,1-.5-.5.5.5,0,0,1,.5-.5H95.05a.5.5,0,0,1,.5.5A.51.51,0,0,1,95.05,128Z" fill="#d1d3d4"/><path d="M85.36,136.54h-33a.5.5,0,1,1,0-1h33a.5.5,0,0,1,0,1Z" fill="#d1d3d4"/><path d="M185.83,93.62H143.1a.5.5,0,0,1,0-1h42.73a.5.5,0,1,1,0,1Z" fill="#d1d3d4"/><path d="M185.83,102.15H143.1a.5.5,0,0,1-.5-.5.5.5,0,0,1,.5-.5h42.73a.5.5,0,0,1,.5.5A.5.5,0,0,1,185.83,102.15Z" fill="#d1d3d4"/><path d="M176.14,110.69h-33a.5.5,0,0,1-.5-.5.5.5,0,0,1,.5-.5h33a.5.5,0,0,1,.5.5A.5.5,0,0,1,176.14,110.69Z" fill="#d1d3d4"/><path d="M263.54,200.71H220.81a.5.5,0,0,1-.5-.5.51.51,0,0,1,.5-.5h42.73a.5.5,0,0,1,.5.5A.5.5,0,0,1,263.54,200.71Z" fill="#d1d3d4"/><path d="M263.54,209.25H220.81a.51.51,0,0,1-.5-.5.5.5,0,0,1,.5-.5h42.73a.5.5,0,0,1,.5.5A.5.5,0,0,1,263.54,209.25Z" fill="#d1d3d4"/><path d="M253.85,217.78h-33a.51.51,0,0,1-.5-.5.5.5,0,0,1,.5-.5h33a.5.5,0,0,1,.5.5A.5.5,0,0,1,253.85,217.78Z" fill="#d1d3d4"/><path d="M347.64,186.8H304.9a.5.5,0,0,1,0-1h42.74a.5.5,0,0,1,0,1Z" fill="#d1d3d4"/><path d="M347.64,195.33H304.9a.5.5,0,0,1,0-1h42.74a.5.5,0,0,1,0,1Z" fill="#d1d3d4"/><path d="M338,203.86H304.9a.5.5,0,0,1-.5-.5.51.51,0,0,1,.5-.5H338a.51.51,0,0,1,.5.5A.5.5,0,0,1,338,203.86Z" fill="#d1d3d4"/></g></svg>