<svg xmlns="http://www.w3.org/2000/svg" viewBox="0 0 400 300"><g id="_436_toast_flatline" data-name="#436_toast_flatline"><path d="M116.69,91.7s-15.52-10-11.15-29.45,17.12-31,41.39-30.24S182.69,42.35,204,45.54s53.17-.8,70.28,2.38,25.87,7.57,30.65,25.87,4,37.81-5.18,46.57-16,17-16.61,20S269.21,251,268.92,255.19s-2.09,14.62-9.56,13.73-78.5-3.88-85.66-5.37-44.48-11.05-50.45-13.73S111,241.16,111,236.68s-.39-42.89,2.29-65.88S120.31,94.76,116.69,91.7Z" fill="#e6e7e8"/><path d="M260.25,269.47c-.31,0-.62,0-.95-.05-3-.36-16.19-1.06-31.48-1.86-23.39-1.23-49.9-2.62-54.22-3.52-7.27-1.52-44.49-11-50.55-13.77s-12.54-8.83-12.54-13.59v-1.6c-.15-35.61,1.16-54.64,2.3-64.33,3-26.16,6.72-75.78,3.57-78.65-.82-.55-15.63-10.79-11.32-30C109.79,41.06,123.87,30.76,147,31.5c14,.46,24,3.89,33.6,7.2,7.13,2.46,14.51,5,23.54,6.34,10.67,1.6,24,1.39,36.81,1.19s24.92-.39,33.48,1.2c17.59,3.27,26.24,7.84,31,26.24,5.32,20.4,3.24,38.87-5.31,47.05-9,8.58-15.9,16.88-16.47,19.74-.62,3.06-13.91,110.33-14.23,114.76-.15,2.17-1,9.47-4.88,12.71A6.54,6.54,0,0,1,260.25,269.47Zm-115.61-237c-21.17,0-34.15,10.05-38.61,29.89C101.78,81.28,116.8,91.18,117,91.28l.05,0c4.21,3.56-1.28,63-3.21,79.54-1.13,9.67-2.44,28.66-2.29,64.21v1.61c0,4.31,6.3,10.14,11.95,12.68,6,2.69,43.8,12.34,50.34,13.7,4.25.88,31.87,2.33,54.07,3.5,15.31.81,28.54,1.5,31.55,1.86a5.68,5.68,0,0,0,4.47-1.26c2.88-2.37,4.22-7.76,4.53-12,.31-4.44,13.62-111.82,14.24-114.89s7.5-11.41,16.76-20.26c8.29-7.93,10.27-26,5-46.08-4.66-17.87-13.1-22.31-30.25-25.5-8.47-1.58-20.52-1.39-33.28-1.19s-26.23.41-37-1.2c-9.12-1.36-16.54-3.91-23.72-6.38-9.55-3.29-19.43-6.69-33.3-7.15Z" fill="#231f20"/><path d="M240.54,249.61c11,2.54,18.63,2.2,23.4-6.76s17.12-110.55,18.31-113.54,15.52-16.71,14.93-39.4-17.91-34-29.26-37-43.58,4.78-57.31,0-44.17-9-56.71-11.94-41.19,6.57-42.39,23.88,16.32,20.1,16.32,30.84-14.41,128.66-10.75,134,12.74,4,19.31,8.75,32.23,10.16,44.77,10.35S229.57,247.07,240.54,249.61Z" fill="#fff"/><path d="M250.44,251.49a45.63,45.63,0,0,1-10-1.39c-7.71-1.79-28.42-1.33-43.54-1-6.48.14-12.07.27-15.74.21-13-.2-38.45-5.63-45.06-10.44-2.91-2.12-6.32-3-9.61-3.83-4-1-7.71-2-9.81-5.05-2.33-3.42,1.77-45,7-95,2.07-20,3.71-35.72,3.71-39.35,0-4.43-3.13-7.45-6.75-10.94-4.81-4.63-10.26-9.88-9.57-19.94.4-5.77,3.84-11.19,9.94-15.68,10.49-7.71,25.33-10.49,33.06-8.65,4.51,1.08,11.48,2.33,18.87,3.66,13.63,2.45,29.07,5.23,37.9,8.3,7.46,2.59,20.88,1.4,32.73.34,10-.88,19.36-1.72,24.54-.35,10.71,2.82,29,13.88,29.63,37.48.48,18.45-8.66,30.82-13.05,36.77a20.53,20.53,0,0,0-1.92,2.83c-.35.9-2,12.87-3.92,26.74-4.42,32.12-11.12,80.68-14.41,86.85S256.45,251.49,250.44,251.49Zm-32.06-3.7c9.38,0,17.8.3,22.28,1.33,10.64,2.46,18.18,2.24,22.84-6.5,3.21-6,10.15-56.41,14.3-86.52,2.35-17.06,3.6-26,4-27a18.13,18.13,0,0,1,2-3.06c4.32-5.85,13.32-18,12.85-36.14-.61-23-18.44-33.8-28.88-36.55-5-1.32-14.34-.49-24.2.39-12.53,1.12-25.49,2.27-33.15-.4-8.75-3-24.15-5.81-37.74-8.26-7.41-1.33-14.4-2.59-18.93-3.66-7.55-1.8-22.31,1.18-32.24,8.48-5.86,4.31-9.15,9.48-9.53,14.94-.66,9.59,4.61,14.67,9.26,19.15,3.63,3.5,7.06,6.8,7.06,11.66,0,3.68-1.64,19.47-3.71,39.46-3.76,36.19-9.44,90.9-7.12,94.3,1.89,2.77,5.29,3.64,9.23,4.64,3.38.86,6.88,1.76,10,4,6.36,4.62,31.94,10.06,44.49,10.25,3.64.06,9.23-.07,15.7-.21C203.74,248,211.33,247.79,218.38,247.79Z" fill="#231f20"/><path d="M185,240.63c6.43,4.22,14.24,8.33,21.47,5.71,4.43-1.6,7.6-5.4,11.12-8.53,17.54-15.61,47.55-17.44,57.15-38.87,2.33-5.21,3.12-11.15,6.36-15.85,2.7-3.92,6.89-6.66,9.41-10.69,4.19-6.7,2.49-15-1.14-21.53-4-7.28-8.84-8.73-15.14-12.82-11.76-7.61-6.24-27-18.3-35-5.82-3.86-13.41-3-20.39-3.18-13.64-.34-16.49-11.29-27.87-16a26.77,26.77,0,0,0-8.64-2.32c-3.55-.2-7.05.76-10.48,1.72-8.26,2.31-17.52,5.42-21.08,13.23-2.36,5.15-1.58,11.11-1.37,16.77s-.54,12-4.87,15.66c-2.14,1.81-4.89,2.7-7.56,3.55-7.67,2.44-16.35,3.65-20.11,11.76-3.3,7.12.8,14.2,5.48,19.59,11.15,12.86,9.82,24.83,14,40.2C157.54,220.37,171.45,231.73,185,240.63Z" fill="#fff"/><path d="M201.75,247.65c-6,0-12.08-3.38-17-6.6-12.53-8.21-27.51-19.82-32.16-36.87-1.2-4.4-1.95-8.49-2.67-12.45-1.8-9.91-3.35-18.46-11.24-27.55-6.44-7.43-8.31-14.2-5.56-20.13,3.28-7.06,10.17-9,16.83-11,1.21-.34,2.41-.69,3.59-1.06,2.48-.79,5.29-1.69,7.39-3.46,3.42-2.89,4.95-7.88,4.69-15.26,0-.87-.08-1.74-.12-2.62-.25-4.87-.51-9.9,1.53-14.38,3.64-8,13-11.14,21.41-13.5,3.43-1,7-2,10.64-1.74a27.87,27.87,0,0,1,8.8,2.35c4.71,2,8,4.92,11.1,7.8,4.47,4.09,8.69,8,16.59,8.15,1.25,0,2.52,0,3.79,0,5.87,0,12,0,16.87,3.23,6.23,4.13,7.89,11.21,9.5,18.06s3.11,13.27,8.79,16.94c1.37.89,2.66,1.65,3.9,2.38,4.4,2.58,8.19,4.81,11.41,10.62,2.11,3.79,6.43,13.54,1.12,22a32.2,32.2,0,0,1-5,5.75,34.89,34.89,0,0,0-4.45,5c-2,2.84-3,6.22-4.06,9.5a58,58,0,0,1-2.26,6.27c-5.81,13-18.67,18.72-32.3,24.8-8.83,3.94-18,8-25,14.24-.8.71-1.57,1.45-2.35,2.2-2.66,2.54-5.41,5.16-8.93,6.43A14.18,14.18,0,0,1,201.75,247.65ZM198.08,82a35.23,35.23,0,0,0-9.36,1.73c-8.24,2.3-17.31,5.39-20.77,13-1.94,4.25-1.69,9.16-1.45,13.91.05.88.09,1.76.13,2.63.27,7.71-1.38,13-5,16.06-2.26,1.91-5.17,2.83-7.74,3.65-1.19.38-2.4.72-3.61,1.07-6.45,1.86-13.11,3.77-16.2,10.42-2.6,5.62-.84,11.85,5.41,19.05,8.06,9.3,9.64,18,11.47,28,.71,3.94,1.46,8,2.64,12.37,4.57,16.73,19.36,28.18,31.74,36.3h0c6.45,4.22,14,8.2,21,5.65,3.32-1.2,6-3.75,8.58-6.21.78-.76,1.57-1.51,2.37-2.22C224.4,231.1,233.61,227,242.51,223c13.45-6,26.15-11.66,31.8-24.29a58.91,58.91,0,0,0,2.22-6.17c1.06-3.35,2.15-6.81,4.19-9.77a36.42,36.42,0,0,1,4.56-5.11,31.16,31.16,0,0,0,4.83-5.56c5-8,.88-17.38-1.14-21-3.09-5.57-6.6-7.63-11-10.24-1.26-.74-2.56-1.5-3.94-2.4-6-3.89-7.65-10.84-9.23-17.55s-3.18-13.54-9.07-17.45c-4.66-3.09-10.59-3.07-16.32-3.07-1.28,0-2.56,0-3.81,0-8.28-.21-12.63-4.19-17.24-8.41-3.08-2.82-6.26-5.73-10.81-7.61A26.91,26.91,0,0,0,199,82.07C198.71,82.05,198.4,82,198.08,82Z" fill="#231f20"/><circle cx="228.02" cy="156.31" r="33.58" fill="#68e1fd"/><path d="M228,190.39a34.08,34.08,0,1,1,34.08-34.08A34.12,34.12,0,0,1,228,190.39Zm0-67.16a33.08,33.08,0,1,0,33.08,33.08A33.12,33.12,0,0,0,228,123.23Z" fill="#231f20"/><path d="M204.18,149.86l-.11,0a.49.49,0,0,1-.38-.59,24,24,0,0,1,13.4-17,.5.5,0,0,1,.64.29.5.5,0,0,1-.29.65,23,23,0,0,0-12.77,16.25A.5.5,0,0,1,204.18,149.86Z" fill="#fff"/><path d="M204.18,162.23a.51.51,0,0,1-.47-.32c-1.1-2.95-.06-6.86,0-7a.5.5,0,0,1,.61-.35.49.49,0,0,1,.35.62s-1,3.77,0,6.41a.5.5,0,0,1-.29.64A.57.57,0,0,1,204.18,162.23Z" fill="#fff"/><path d="M120.28,117C123.86,114.9,208,43.75,208,43.75s2.46-9-7.6-11.2-41.07,9.94-45.87,13.07-33.89,31-38.67,42.63S120.28,117,120.28,117Z" fill="#fff"/><path d="M120.28,117.53a.34.34,0,0,1-.14,0,.45.45,0,0,1-.3-.24c-.38-.71-9.28-17.47-4.46-29.21s34-39.64,38.87-42.85,35.89-15.36,46.25-13.15c3.26.7,5.6,2.18,7,4.4a10.31,10.31,0,0,1,1,7.42.47.47,0,0,1-.16.25c-3.44,2.91-84.2,71.2-87.78,73.33A.43.43,0,0,1,120.28,117.53Zm77.26-84.74c-11.92,0-38.44,10.44-42.75,13.25-4.87,3.18-33.76,30.89-38.48,42.4-4.2,10.22,2.71,25,4.15,27.86,7.27-5.35,83.47-69.77,87.08-72.83a9.36,9.36,0,0,0-.94-6.5c-1.21-2-3.33-3.29-6.31-3.93A13.23,13.23,0,0,0,197.54,32.79Z" fill="#231f20"/><path d="M210.42,41.9l-2.52,1.91a14.94,14.94,0,0,0-10.69-5.22c-4.59-.16-9,1.85-13.31,3.35-6.67,2.3-13.12,2.28-19.91,3.42-5.84,1-11.48,4.92-16,8.76-13.47,11.54-30.06,27.34-30.46,47a19.3,19.3,0,0,0,2.9,10c.22.33,2.9,4.08,3.4,3.78L120.28,117s-10.17-6.34-9.51-14.71,6.7-30.53,19.65-41.68,31.28-24.36,45-25.28,23.62-6.95,28.4-4C207.54,33.61,208.8,38,210.42,41.9Z" fill="#e6e7e8"/><path d="M120.28,117.53a.52.52,0,0,1-.27-.07c-.42-.27-10.42-6.61-9.74-15.17.67-8.39,6.58-30.62,19.82-42,10.52-9,30.38-24.39,45.25-25.4a82.31,82.31,0,0,0,15.86-3c5.59-1.49,10-2.67,12.83-.95,3.39,2.06,4.81,5.67,6.19,9.16.22.55.43,1.11.66,1.66a.48.48,0,0,1-.16.58l-2.52,1.92a.5.5,0,0,1-.68-.07,14.53,14.53,0,0,0-10.33-5c-3.65-.13-7.24,1.19-10.71,2.46l-2.41.87A61.43,61.43,0,0,1,170.68,45c-2.15.25-4.37.5-6.6.88-4.72.79-9.87,3.62-15.73,8.64C122,77,118.28,90.7,118.06,101.1a18.85,18.85,0,0,0,2.82,9.75,21.27,21.27,0,0,0,2.94,3.55.51.51,0,0,1,.31.93h0l-3.58,2.12A.45.45,0,0,1,120.28,117.53ZM200.47,31c-2.38,0-5.45.81-9,1.76a82,82,0,0,1-16.05,3.06c-14.58,1-34.24,16.19-44.66,25.16C118.46,71.6,112,93.17,111.27,102.36c-.58,7.24,7.48,13,9,14.08l2.59-1.53a18.8,18.8,0,0,1-2.84-3.52,19.74,19.74,0,0,1-3-10.31c.39-18.94,15.71-34.56,30.64-47.34,6-5.14,11.31-8,16.21-8.87,2.26-.38,4.49-.64,6.66-.88a59.59,59.59,0,0,0,13.17-2.52l2.4-.86c3.56-1.31,7.24-2.65,11.08-2.52a15.52,15.52,0,0,1,10.74,5l1.85-1.4c-.18-.44-.35-.88-.52-1.32-1.32-3.33-2.68-6.78-5.78-8.66A5.68,5.68,0,0,0,200.47,31Z" fill="#231f20"/><path d="M120.29,116.92h0a19.06,19.06,0,0,1-6-11.5,32.45,32.45,0,0,1,1-13.21c3-11.37,10-20.11,17.57-28.55,6.49-7.21,13.88-14.13,22.74-17.94,9.28-4,17.73-3.36,27.4-5.93,4.51-1.21,10.64-4.69,15.29-4.54s9.57,2.31,11.69,6.62c2-.95,3.06-3.44,3-5.75-.08-3.65-3.75-7.9-7.37-9.14a12,12,0,0,0-5.66,0c-10.43,2.17-18.2,5.24-28.68,7.16C155.72,37,142.51,46,130.92,57.13c-12,11.47-28.61,32.19-21.28,50.64C111.49,112.41,115.51,116.31,120.29,116.92Z" fill="#68e1fd"/><path d="M120.33,117.42h-.1c-4.67-.59-9-4.3-11-9.46-8-20.07,12.3-42.48,21.39-51.18,13.63-13.05,27-20.61,40.73-23.13,5.62-1,10.35-2.35,15.36-3.76,4.17-1.17,8.48-2.38,13.31-3.39a12.6,12.6,0,0,1,5.92,0c4,1.38,7.63,5.87,7.71,9.61,0,2.29-1,5.1-3.31,6.22a.5.5,0,0,1-.66-.24c-2.19-4.47-7.25-6.21-11.25-6.34-2.92-.09-6.47,1.3-9.9,2.65a51.44,51.44,0,0,1-5.26,1.87A92.14,92.14,0,0,1,172,42.34c-5.43.76-10.57,1.48-16,3.84-9.44,4.06-17,11.65-22.57,17.82-6.82,7.58-14.36,16.64-17.46,28.34a31.9,31.9,0,0,0-1,13,18.35,18.35,0,0,0,5.78,11.2.5.5,0,0,1-.33.88Zm82.92-90.28a15.63,15.63,0,0,0-3.08.33c-4.8,1-9.09,2.2-13.24,3.37-4.81,1.35-9.79,2.75-15.45,3.79-13.58,2.48-26.73,10-40.21,22.86-9,8.56-28.92,30.58-21.16,50.09a14.14,14.14,0,0,0,8.63,8.5,20.12,20.12,0,0,1-4.85-10.58,33.05,33.05,0,0,1,1-13.42c3.16-11.91,10.79-21.09,17.69-28.75,5.61-6.24,13.29-13.93,22.92-18.07,5.6-2.41,10.8-3.14,16.3-3.91A91.21,91.21,0,0,0,183,39.3a49.3,49.3,0,0,0,5.14-1.83c3.53-1.39,7.19-2.81,10.3-2.72,4.15.14,9.38,1.91,11.88,6.44a6,6,0,0,0,2.31-5.06c-.07-3.31-3.43-7.44-7-8.68A7.47,7.47,0,0,0,203.25,27.14Z" fill="#231f20"/><path d="M125.26,111.74a.5.5,0,0,1-.5-.46c0-.09-.85-9-.25-14.72,1-9.49,8.52-23.54,21-32,13.26-9.05,20.14-10.88,26.8-12.64,1.87-.5,3.64-1,5.56-1.59a51.23,51.23,0,0,0,7.22-3.26c5.95-3.07,12.1-6.25,19.34-2a.51.51,0,0,1,.18.69.49.49,0,0,1-.68.18c-6.77-3.93-12.41-1-18.39,2.07a50.19,50.19,0,0,1-7.36,3.32c-1.95.63-3.81,1.13-5.62,1.61C166,54.61,159.15,56.41,146,65.36c-12.18,8.32-19.55,22-20.53,31.31-.59,5.57.25,14.43.25,14.52a.49.49,0,0,1-.44.54Z" fill="#d1d3d4"/><path d="M147.85,94.38s-.31-5.18,6.77-13.35S177,69.91,177,69.91Z" fill="#231f20"/><path d="M147.85,94.92a.5.5,0,0,1-.21,0,.53.53,0,0,1-.33-.46c0-.22-.23-5.49,6.9-13.73s22-11.17,22.67-11.3a.56.56,0,0,1,.59.3.54.54,0,0,1-.14.64L148.19,94.79A.53.53,0,0,1,147.85,94.92Zm27.06-24c-4.44,1.15-14.59,4.32-19.88,10.43-4.86,5.61-6.17,9.79-6.52,11.74Z" fill="#231f20"/><path d="M146.09,128.93c3.91-1.37,99.57-54.39,99.57-54.39s4.08-8.39-5.39-12.5-42.15,1.54-47.43,3.66-39,23.61-45.8,34.1S146.09,128.93,146.09,128.93Z" fill="#fff"/><path d="M146.09,129.43a.42.42,0,0,1-.22-.05.48.48,0,0,1-.26-.3c-.24-.77-5.89-19,1-29.56s40.62-32.12,46-34.29c2.74-1.09,12.34-3,22.27-4.2,7.16-.83,20-1.87,25.55.55,3.09,1.34,5.11,3.27,6,5.74a10.3,10.3,0,0,1-.39,7.44.56.56,0,0,1-.21.22C242,77.14,150.16,128,146.25,129.41Zm83.29-68.36c-13.33,0-32.5,3.55-36.36,5.09-5.36,2.15-38.81,23.57-45.56,33.91-6,9.2-1.93,25.08-1.05,28.18,8.09-3.78,94.71-51.77,98.86-54.07a9.33,9.33,0,0,0,.28-6.53c-.81-2.19-2.66-3.93-5.48-5.15C237.71,61.47,233.88,61.07,229.38,61.07Z" fill="#231f20"/><path d="M248.38,73.21l-2.82,1.37A15.3,15.3,0,0,0,236,67.32c-4.48-1.07-9.12,0-13.68.63-7,.93-13.29-.39-20.17-.62-5.91-.2-12.17,2.53-17.28,5.41-15.35,8.63-34.54,20.82-38.54,40a19.36,19.36,0,0,0,1,10.42c.15.37,2.09,4.58,2.64,4.39l-3.91,1.37s-8.82-8.26-6.63-16.33,12.2-28.63,27-37S201.61,58,215.19,59.79s24.46-2.1,28.62,1.71C247.09,64.5,247.51,69,248.38,73.21Z" fill="#e6e7e8"/><path d="M146.09,129.43a.47.47,0,0,1-.34-.13c-.37-.35-9-8.56-6.77-16.83,2.2-8.1,12.1-28.74,27.2-37.29,12-6.79,34.3-17.88,49.08-15.88a82.3,82.3,0,0,0,16.13.2c5.75-.35,10.3-.62,12.76,1.63,2.94,2.7,3.67,6.52,4.38,10.21.11.59.22,1.18.34,1.77a.49.49,0,0,1-.27.55L245.78,75a.5.5,0,0,1-.66-.2,14.81,14.81,0,0,0-9.21-7c-3.56-.85-7.32-.28-11,.27-.84.13-1.69.26-2.53.37a61.07,61.07,0,0,1-13.61-.16c-2.16-.19-4.39-.38-6.64-.46-4.79-.17-10.35,1.59-17,5.34-30,16.84-36.17,29.51-38.29,39.68a19,19,0,0,0,1,10.13,23.37,23.37,0,0,0,2.23,4.08.5.5,0,0,1,.42.33.51.51,0,0,1-.29.64h0c-.31.12-3.9,1.38-3.9,1.38A.44.44,0,0,1,146.09,129.43Zm65.45-69.37c-14.35,0-33.94,9.8-44.87,16-14,7.93-24.32,27.8-26.72,36.68-1.9,7,5,14.31,6.27,15.63l2.82-1a19.31,19.31,0,0,1-2.14-4,19.79,19.79,0,0,1-1-10.71c3.86-18.51,21.77-30.78,38.78-40.34,6.84-3.85,12.6-5.63,17.55-5.47,2.28.08,4.53.28,6.7.47a59.88,59.88,0,0,0,13.39.16c.83-.11,1.67-.24,2.51-.37,3.74-.56,7.6-1.15,11.34-.25a15.81,15.81,0,0,1,9.61,7.09l2.07-1c-.1-.47-.19-.93-.28-1.4-.67-3.53-1.37-7.19-4.07-9.66-2.14-2-6.5-1.71-12-1.37a82.77,82.77,0,0,1-16.32-.21A26.2,26.2,0,0,0,211.54,60.06Z" fill="#231f20"/><path d="M146.12,128.82l0,0a19.36,19.36,0,0,1-3.72-12.48,32.11,32.11,0,0,1,3.42-12.76c5-10.57,13.49-17.75,22.5-24.51C176.06,73.31,184.58,68,194,66c9.84-2.07,18,.24,28-.35,4.64-.28,11.31-2.48,15.84-1.4s9,4.18,10.26,8.84c2.16-.54,3.64-2.77,4-5.05.59-3.6-2.22-8.5-5.56-10.44A12.1,12.1,0,0,0,241,56.5c-10.63,0-18.82,1.51-29.46,1.29C195.6,57.47,181,63.7,167.56,72.27c-13.88,8.86-34,25.87-30.2,45.44C138.31,122.64,141.54,127.27,146.12,128.82Z" fill="#68e1fd"/><path d="M146.16,129.33a.39.39,0,0,1-.15,0h0c-4.46-1.51-8-6-9.09-11.49-4.14-21.3,19.89-39.24,30.42-46C183.07,61.77,197.53,57,211.52,57.29c5.7.12,10.59-.24,15.76-.62C231.59,56.35,236,56,241,56a12.92,12.92,0,0,1,5.81,1.2c3.69,2.15,6.4,7.27,5.79,11-.38,2.27-1.88,4.83-4.39,5.45a.51.51,0,0,1-.61-.35c-1.33-4.84-6-7.55-9.88-8.48-2.85-.68-6.59,0-10.2.62a48.65,48.65,0,0,1-5.5.78A91.63,91.63,0,0,1,210.54,66c-5.47-.34-10.64-.67-16.46.55-10,2.1-18.85,8-25.42,13-8.09,6.07-17.16,13.46-22.35,24.32a31.76,31.76,0,0,0-3.37,12.56,18.77,18.77,0,0,0,3.61,12.16.49.49,0,0,1-.39.8Zm64.18-71.05c-13.42,0-27.34,4.72-42.51,14.41-10.36,6.62-34,24.23-30,44.93a14.48,14.48,0,0,0,6.9,10.06,20.41,20.41,0,0,1-2.81-11.34,32.8,32.8,0,0,1,3.46-13c5.3-11.07,14.47-18.55,22.66-24.69,6.66-5,15.61-11,25.82-13.15,5.94-1.25,11.18-.93,16.72-.58a91.68,91.68,0,0,0,11.33.22,51.88,51.88,0,0,0,5.38-.77c3.72-.66,7.56-1.34,10.61-.62,4.05,1,8.85,3.75,10.47,8.7a5.8,5.8,0,0,0,3.19-4.5c.54-3.26-2-8-5.31-9.93A11.73,11.73,0,0,0,241,57c-4.89,0-9.32.35-13.61.66-5,.37-10.11.75-15.86.63Z" fill="#231f20"/><path d="M152,124.74h0a.51.51,0,0,1-.46-.55c0-.09.83-9,2.47-14.49,2.73-9.12,12.7-21.41,26.47-27.25,14.68-6.23,21.77-6.65,28.63-7,1.93-.11,3.75-.22,5.75-.45a50.14,50.14,0,0,0,7.68-1.75c6.41-1.83,13-3.72,19.36,1.85a.5.5,0,1,1-.66.75c-5.92-5.21-12-3.48-18.42-1.64A51.29,51.29,0,0,1,215,76c-2,.23-3.94.34-5.8.45-6.77.4-13.78.8-28.3,7C167.38,89.09,157.63,101.09,155,110c-1.6,5.35-2.41,14.21-2.42,14.3A.5.5,0,0,1,152,124.74Z" fill="#d1d3d4"/><path d="M177.32,112.21s.65-5.14,9.1-11.74,24-6.45,24-6.45Z" fill="#231f20"/><path d="M177.32,112.75a.53.53,0,0,1-.54-.61c0-.22.78-5.43,9.31-12.1s23.68-6.56,24.33-6.56a.54.54,0,0,1,.51.41.52.52,0,0,1-.26.6l-33.09,18.19A.48.48,0,0,1,177.32,112.75ZM208.2,94.62c-4.56.24-15.12,1.32-21.45,6.27-5.81,4.54-7.86,8.38-8.56,10.23Z" fill="#231f20"/><path d="M224.65,112.71a.51.51,0,0,1-.37-.15.54.54,0,0,1,0-.76c9.52-10.17,23.16-10.3,34.11-10.42,2.6,0,5.05,0,7.29-.2,11.52-.78,20-8.75,20.11-8.83a.54.54,0,0,1,.76,0,.55.55,0,0,1,0,.76c-.09.08-8.87,8.32-20.77,9.12-2.28.16-4.74.18-7.35.21-10.76.11-24.14.25-33.34,10.07A.53.53,0,0,1,224.65,112.71Z" fill="#231f20"/><path d="M267.42,102.08h-.06c-.16,0-4-.45-10.2-5.34s-6.66-4.95-11.44-4.62c-1,.07-1.91.16-2.8.25a37.7,37.7,0,0,1-13.45-.68.54.54,0,0,1,.21-1,37,37,0,0,0,13.14.66c.9-.09,1.82-.18,2.83-.25,5.19-.36,6,0,12.17,4.84,5.92,4.67,9.62,5.11,9.65,5.12a.53.53,0,0,1,.48.59A.54.54,0,0,1,267.42,102.08Z" fill="#231f20"/><path d="M229.05,96.06a.52.52,0,0,1-.51-.39.53.53,0,0,1,.37-.66,30.75,30.75,0,0,0,8.1-3.32.53.53,0,0,1,.75.14.54.54,0,0,1-.14.75A31.18,31.18,0,0,1,229.2,96,.39.39,0,0,1,229.05,96.06Z" fill="#231f20"/><path d="M245.69,92.12a.51.51,0,0,1-.35-.13c-.06,0-6.13-5.13-13.45-5.42a.54.54,0,0,1-.51-.56.56.56,0,0,1,.56-.51c7.69.3,13.84,5.46,14.1,5.67a.55.55,0,0,1,.06.76A.53.53,0,0,1,245.69,92.12Z" fill="#231f20"/><path d="M221.69,104.5a.54.54,0,0,1-.23-1,25.61,25.61,0,0,1,20.27-.75.53.53,0,0,1,.26.71.54.54,0,0,1-.71.27,25,25,0,0,0-19.37.75A.59.59,0,0,1,221.69,104.5Z" fill="#231f20"/><path d="M225.47,118.3a.53.53,0,0,1-.25-1c7.5-3.92,8.13-12.1,8.13-12.18a.54.54,0,0,1,1.08.07,16.8,16.8,0,0,1-8.72,13.06A.53.53,0,0,1,225.47,118.3Z" fill="#231f20"/><path d="M237.22,120.74a.5.5,0,0,1-.31-.1.54.54,0,0,1-.14-.75c.22-.32,5.57-7.91,18.59-11,12.55-3,16.07-8.47,16.11-8.53a.54.54,0,0,1,.74-.17.53.53,0,0,1,.17.74c-.14.23-3.73,5.88-16.77,9-12.62,3-17.9,10.53-18,10.6A.51.51,0,0,1,237.22,120.74Z" fill="#231f20"/><path d="M245.37,119.62a.44.44,0,0,1-.16,0,.55.55,0,0,1-.36-.67c1.24-4,5.57-8.4,5.76-8.58a.53.53,0,1,1,.75.76s-4.32,4.35-5.48,8.13A.53.53,0,0,1,245.37,119.62Z" fill="#231f20"/><path d="M280.23,97c-3,0-11.71-.55-18.16-6.57a.54.54,0,1,1,.73-.79c7.38,6.89,18.28,6.27,18.39,6.26a.54.54,0,0,1,.07,1.07C281.18,96.94,280.82,97,280.23,97Z" fill="#231f20"/><path d="M268.17,94.35a.59.59,0,0,1-.22,0c-.29-.13-.56-.26-2-7.38a.53.53,0,0,1,.42-.63.54.54,0,0,1,.64.42c.59,2.94,1.33,6.22,1.57,6.75a.53.53,0,0,1,.08.57A.54.54,0,0,1,268.17,94.35Z" fill="#231f20"/><path d="M248,237.35c-6,0-15.48-1.12-22.32-7.18-2.09-1.84-4.09-3.57-6-5.25-8.14-7-15.17-13.12-23.32-23.15-9.78-12-18.37-12.34-18.46-12.35a.54.54,0,0,1-.53-.54.54.54,0,0,1,.54-.53h0c.37,0,9.14.29,19.27,12.74,8.1,10,15.09,16,23.19,23,2,1.68,4,3.41,6,5.26,10.37,9.18,27.09,6.57,27.25,6.54a.54.54,0,0,1,.62.45.53.53,0,0,1-.44.61A40.06,40.06,0,0,1,248,237.35Z" fill="#231f20"/><path d="M219.24,229.75a.52.52,0,0,1-.41-.22.51.51,0,0,1,.13-.7c.15-.1,3.81-2.63,5.76-.91a.51.51,0,0,1,0,.71.5.5,0,0,1-.7,0c-1.13-1-3.65.37-4.53,1A.52.52,0,0,1,219.24,229.75Z" fill="#231f20"/><path d="M206.81,213a.43.43,0,0,1-.19,0l-3.45-1.45a.5.5,0,1,1,.38-.92l3.46,1.45a.5.5,0,0,1-.2,1Z" fill="#231f20"/><path d="M194.17,199a.52.52,0,0,1-.38-.17c-2.26-2.58-5.6-.11-5.74,0a.5.5,0,0,1-.61-.8c1.45-1.1,4.8-2.49,7.11.14a.51.51,0,0,1-.05.71A.52.52,0,0,1,194.17,199Z" fill="#231f20"/><path d="M226.06,230.31a.53.53,0,0,1-.49-.33c-1.46-3.49-2.88-7-2.88-7a.54.54,0,0,1,.29-.7.55.55,0,0,1,.71.3s1.42,3.49,2.87,7a.55.55,0,0,1-.29.71A.52.52,0,0,1,226.06,230.31Z" fill="#231f20"/><path d="M210.79,216.94a.5.5,0,0,1-.49-.45c-.26-2.42-.62-4.34-.62-4.36a.5.5,0,1,1,1-.18s.37,2,.63,4.43a.51.51,0,0,1-.44.56Z" fill="#231f20"/><path d="M173,197.49s2.86,1.81,3.21,2a12.62,12.62,0,0,0,4,.92c1.53.12,6.93-.09,7.59-2,.79-2.29-5-2.78-6.34-2.83A16.18,16.18,0,0,0,173,197.49Z" fill="#68e1fd"/><path d="M180.83,200.89a6.2,6.2,0,0,1-.71,0,13,13,0,0,1-4.12-1c-.22-.09-.93-.53-2.35-1.42-.43-.27-.77-.49-.88-.54a.6.6,0,0,1-.23-.22.51.51,0,0,1,.2-.68,16.59,16.59,0,0,1,8.7-2c.89,0,5.44.31,6.6,2a1.61,1.61,0,0,1,.18,1.48C187.48,200.68,182.67,200.89,180.83,200.89ZM174,197.53l.19.12c.69.43,2,1.25,2.19,1.34a12.54,12.54,0,0,0,3.81.89c1.9.14,6.6-.26,7.08-1.65a.61.61,0,0,0-.06-.59c-.69-1-3.86-1.5-5.82-1.58A15.69,15.69,0,0,0,174,197.53Z" fill="#231f20"/><path d="M169.86,185.13q-2.09,0-4.14.15a2.76,2.76,0,0,0-2,.72,13,13,0,0,0,7.17,4.17c1.62.29,6.68.21,6.59-2.39S171.54,185.14,169.86,185.13Z" fill="#68e1fd"/><path d="M172.47,190.78a11,11,0,0,1-1.66-.11,13.66,13.66,0,0,1-7.45-4.33.5.5,0,0,1,0-.66,3.2,3.2,0,0,1,2.34-.9c1.39-.1,2.81-.15,4.18-.15,5.32,0,8.06,1.08,8.13,3.13a2.2,2.2,0,0,1-.8,1.8C176.08,190.53,174,190.78,172.47,190.78Zm-8-4.73a12.37,12.37,0,0,0,6.51,3.63c1.37.24,4.39.15,5.56-.87a1.2,1.2,0,0,0,.45-1c0-1.34-2.71-2.15-7.14-2.17h0c-1.35,0-2.73.05-4.1.15A3.52,3.52,0,0,0,164.47,186.05Z" fill="#231f20"/><path d="M193.53,204.63a5.3,5.3,0,0,0-3.64.52,10.19,10.19,0,0,0,8.53,5.87,26.47,26.47,0,0,0-8.94,2.79c1.25,1.45,3.34,1.78,5.25,1.85a12.55,12.55,0,0,0,5.06-.68C208.21,211.6,198,205.28,193.53,204.63Z" fill="#68e1fd"/><path d="M195.53,216.17h-.82c-1.71-.06-4.15-.33-5.61-2a.53.53,0,0,1-.11-.42.52.52,0,0,1,.26-.35,27,27,0,0,1,6.46-2.38,10.8,10.8,0,0,1-6.28-5.63.52.52,0,0,1,.18-.63,5.64,5.64,0,0,1,4-.59h0c3.23.46,9.48,3.74,9.9,7.2.14,1.17-.36,2.83-3.53,4.1A11.91,11.91,0,0,1,195.53,216.17Zm-5.19-2.23a7.62,7.62,0,0,0,4.4,1.22,12.16,12.16,0,0,0,4.86-.65c2.07-.83,3.05-1.85,2.9-3-.31-2.64-5.87-5.88-9-6.33h0a5.28,5.28,0,0,0-2.92.23,9.76,9.76,0,0,0,7.9,5.17.5.5,0,0,1,.48.48.51.51,0,0,1-.44.51A25.68,25.68,0,0,0,190.34,213.94Z" fill="#231f20"/><path d="M203.93,232.31a7.65,7.65,0,0,0,6.65,1.69,22.19,22.19,0,0,0,6.57-2.68,11.64,11.64,0,0,0-3.45,8.5,10.32,10.32,0,0,0,5.85-4.92c.75-1.41,1.72-4.05,1.08-5.64-.75-1.84-3.13-1.69-4.83-1.67A17.58,17.58,0,0,0,203.93,232.31Z" fill="#68e1fd"/><path d="M213.7,240.32a.47.47,0,0,1-.28-.09.53.53,0,0,1-.22-.4,12.16,12.16,0,0,1,2-6.92,17.09,17.09,0,0,1-4.54,1.58,8.09,8.09,0,0,1-7.09-1.82.47.47,0,0,1-.15-.36.48.48,0,0,1,.15-.36,18.12,18.12,0,0,1,12.21-4.86h.29c1.76,0,4.18-.06,5,2,.89,2.2-.89,5.67-1.1,6.06a10.8,10.8,0,0,1-6.13,5.17Zm3.45-9.5a.52.52,0,0,1,.41.21.49.49,0,0,1-.06.65,11.16,11.16,0,0,0-3.29,7.42,9.86,9.86,0,0,0,4.9-4.44c.86-1.63,1.56-4,1-5.21-.57-1.42-2.51-1.4-4.07-1.37h-.28a17.27,17.27,0,0,0-11.14,4.21,7.34,7.34,0,0,0,5.82,1.21,22.15,22.15,0,0,0,6.43-2.63A.46.46,0,0,1,217.15,230.82Z" fill="#231f20"/><path d="M232,215.3a10.07,10.07,0,0,0,.58-6.26,15.8,15.8,0,0,0-9.5,8.26,14.42,14.42,0,0,0-5.34-6.81c-1,2-.06,4.43,1,6.44,1.15,2.24,3.52,6.94,6.7,6.17C228.27,222.4,231,217.77,232,215.3Z" fill="#68e1fd"/><path d="M224.69,223.69c-3.1,0-5.3-4.3-6.4-6.45s-2.14-4.73-1-7a.52.52,0,0,1,.32-.26.5.5,0,0,1,.41.07,14.94,14.94,0,0,1,5.11,6,16.31,16.31,0,0,1,9.31-7.55.53.53,0,0,1,.39,0,.52.52,0,0,1,.24.32,10.69,10.69,0,0,1-.6,6.56h0c-.81,2-3.62,7.3-6.94,8.1A3.36,3.36,0,0,1,224.69,223.69ZM218,211.27c-.51,1.74.35,3.79,1.19,5.44,1.12,2.18,3.37,6.58,6.13,5.9,2.59-.63,5.21-4.94,6.25-7.5h0a9.81,9.81,0,0,0,.67-5.42,15.35,15.35,0,0,0-8.68,7.82.53.53,0,0,1-.47.28.48.48,0,0,1-.45-.32A13.86,13.86,0,0,0,218,211.27Z" fill="#231f20"/><path d="M215.73,207.65a29.27,29.27,0,0,0,2.08-6.7,28.55,28.55,0,0,0-6.35,6.16,13.33,13.33,0,0,0-2.33-5.42l-1.78-2.86a12.47,12.47,0,0,0,1.13,11.72C211.1,214.39,214.22,210.67,215.73,207.65Z" fill="#68e1fd"/><path d="M211,212.69a3.55,3.55,0,0,1-2.88-1.86,13,13,0,0,1-1.18-12.2.49.49,0,0,1,.42-.3.51.51,0,0,1,.47.23l1.77,2.86a16.59,16.59,0,0,1,2.2,4.51,29.22,29.22,0,0,1,5.77-5.39.51.51,0,0,1,.57,0,.52.52,0,0,1,.21.53,29.86,29.86,0,0,1-2.13,6.81h0c-.54,1.09-2.5,4.64-5,4.81ZM207.46,200a12,12,0,0,0,1.44,10.32c.67,1,1.4,1.47,2.17,1.41,1.59-.1,3.26-2.36,4.21-4.25h0a24.31,24.31,0,0,0,1.74-5.27,28.2,28.2,0,0,0-5.16,5.25.51.51,0,0,1-.53.18.48.48,0,0,1-.36-.43A13,13,0,0,0,208.7,202Zm8.27,7.7h0Z" fill="#231f20"/><path d="M224.27,239.12a4.65,4.65,0,0,0,3.48,2.35,9.71,9.71,0,0,0,4.3-.47,8.56,8.56,0,0,0,3.55-1.87c.74-.71,2-2.33,1.06-3.24-.64-.62-3.43.08-4.21.23A37.34,37.34,0,0,0,224.27,239.12Z" fill="#68e1fd"/><path d="M228.81,242.05a7.11,7.11,0,0,1-1.14-.09,5.11,5.11,0,0,1-3.85-2.62.48.48,0,0,1,0-.39.53.53,0,0,1,.26-.29,38.61,38.61,0,0,1,8.29-3l.34-.07c2.2-.47,3.69-.64,4.32,0a1.55,1.55,0,0,1,.47,1.16,4.72,4.72,0,0,1-1.53,2.79,9.25,9.25,0,0,1-3.76,2A11.93,11.93,0,0,1,228.81,242.05ZM225,239.34a4.39,4.39,0,0,0,2.84,1.64,9.18,9.18,0,0,0,4.07-.46,8.19,8.19,0,0,0,3.36-1.75,3.72,3.72,0,0,0,1.22-2.07.55.55,0,0,0-.17-.45c-.15-.13-.78-.28-3.41.29l-.35.07A35.18,35.18,0,0,0,225,239.34Z" fill="#231f20"/><path d="M203.94,191a16.42,16.42,0,0,0-8.88,5.52,9.64,9.64,0,0,0-1.86-8.56s-1.16,3-1.22,3.29a10.06,10.06,0,0,0,0,3.67c.37,1.93,1.37,4,3.4,4.62C200.24,201,203.82,195,203.94,191Z" fill="#68e1fd"/><path d="M196.84,200.24a5.59,5.59,0,0,1-1.6-.24c-1.88-.55-3.24-2.37-3.75-5a10.88,10.88,0,0,1,0-3.86s1-3.54,1.58-3.68a.49.49,0,0,1,.51.16,10.12,10.12,0,0,1,2.27,7.28,16.88,16.88,0,0,1,8-4.41.48.48,0,0,1,.43.1.53.53,0,0,1,.19.4,11.11,11.11,0,0,1-4.14,8.06A5.8,5.8,0,0,1,196.84,200.24ZM193.33,189c-.33.88-.81,2.19-.85,2.38a9.47,9.47,0,0,0,0,3.48c.21,1.06.91,3.61,3.05,4.23a4.64,4.64,0,0,0,4.2-.8,10.19,10.19,0,0,0,3.66-6.6,15.85,15.85,0,0,0-7.93,5.18.52.52,0,0,1-.62.13.51.51,0,0,1-.25-.58A9.06,9.06,0,0,0,193.33,189Z" fill="#231f20"/><path d="M140.72,238.29A14.31,14.31,0,0,1,134,234a21.37,21.37,0,0,1-2.62-5.26,62.17,62.17,0,0,0-17.77-24.18c-2.13-1.76-4.43-3.43-5.91-5.77s-2-5.57-.29-7.78,5-2.68,7.84-2.5,5.86.71,8.49-.4c2-.86,3.57-2.6,5.23-4.09,7.18-6.45,19-8.11,26.52-2,6.31,5.11,8.19,14,13.52,20.08,3,3.44,7,5.93,9.75,9.59,6.54,8.81-2.24,18.48-9.67,23.15C160.78,240,150.06,241.63,140.72,238.29Z" fill="#68e1fd"/><path d="M144.22,178.17A17.77,17.77,0,0,1,155.51,182c6.31,5.11,8.19,14,13.52,20.08,3,3.44,7,5.93,9.75,9.59,6.54,8.81-2.24,18.48-9.67,23.15A34.52,34.52,0,0,1,151,240a30.3,30.3,0,0,1-10.23-1.74A14.31,14.31,0,0,1,134,234a21.37,21.37,0,0,1-2.62-5.26,62.17,62.17,0,0,0-17.77-24.18c-2.13-1.76-4.43-3.43-5.91-5.77s-2-5.57-.29-7.78c1.49-2,4.13-2.54,6.66-2.54.4,0,.79,0,1.18,0,1.51.09,3,.29,4.56.29a9.88,9.88,0,0,0,3.93-.69c2-.86,3.57-2.6,5.23-4.09a23.3,23.3,0,0,1,15.23-5.82m0-1h0a24.13,24.13,0,0,0-15.9,6.08l-1.08,1a13.72,13.72,0,0,1-3.86,2.91,9,9,0,0,1-3.55.61c-1,0-2-.09-3-.17l-1.53-.12c-.43,0-.85,0-1.25,0-3.48,0-6,1-7.46,2.94-2,2.7-1.33,6.42.25,8.92a22.81,22.81,0,0,0,5.18,5.24l.93.76a61.07,61.07,0,0,1,17.48,23.79l.28.69a19.14,19.14,0,0,0,2.49,4.81,15.25,15.25,0,0,0,7.14,4.65A31.58,31.58,0,0,0,151,241a35.57,35.57,0,0,0,18.69-5.42c5.13-3.22,11-8.89,12.22-15.16a11.66,11.66,0,0,0-2.28-9.42,36.5,36.5,0,0,0-5.49-5.55,41.81,41.81,0,0,1-4.3-4.11,44.66,44.66,0,0,1-5.5-8.77c-2.17-4.13-4.42-8.4-8.15-11.42a18.65,18.65,0,0,0-11.92-4Z" fill="#231f20"/><path d="M152.55,239.06a.44.44,0,0,1-.32-.15l-.74-.58a45.28,45.28,0,0,0-19.13-8.88.5.5,0,1,1,.18-1,46.2,46.2,0,0,1,19.56,9.07l.8.63a.54.54,0,0,1,0,.74A.58.58,0,0,1,152.55,239.06Z" fill="#fff"/><path d="M160.69,237.52a.46.46,0,0,1-.28-.08,153.51,153.51,0,0,0-25.61-10.72c-1.34-.44-2.78-.9-4.23-1.3a.5.5,0,0,1-.34-.62.49.49,0,0,1,.61-.34c1.46.4,2.91.87,4.28,1.31a154.84,154.84,0,0,1,25.81,10.81l.13.1a.49.49,0,0,1-.37.84Z" fill="#fff"/><path d="M172.6,230.66a.52.52,0,0,1-.33-.12,64.17,64.17,0,0,0-20.49-11.89,52.38,52.38,0,0,0-26.26-2.21.5.5,0,1,1-.17-1,53.22,53.22,0,0,1,26.76,2.25,65,65,0,0,1,20.81,12.07.5.5,0,0,1-.32.88Z" fill="#fff"/><path d="M146.52,213.11a138.58,138.58,0,0,1-25.79-2.39.43.43,0,0,1-.26-.13.5.5,0,0,1,0-.71.52.52,0,0,1,.51-.13,140.28,140.28,0,0,0,54.62-.67.52.52,0,0,1,.6.39.51.51,0,0,1-.39.59A141.64,141.64,0,0,1,146.52,213.11Z" fill="#fff"/><path d="M128.6,207.81a57.29,57.29,0,0,1-12-1.16.46.46,0,0,1-.26-.15.5.5,0,0,1,.53-.81c6.15,1.28,13,1.46,21.71.55,3.2-.33,6.87-.82,9.9-2.58,3.21-1.85,5.15-5,4.94-8-.28-3.67-3.42-6.45-6.12-8.47a73.6,73.6,0,0,0-9.89-6.18.51.51,0,0,1-.21-.68.5.5,0,0,1,.67-.21,74,74,0,0,1,10,6.27c2.88,2.14,6.22,5.12,6.52,9.2.24,3.42-1.89,6.94-5.43,9-3.2,1.85-7,2.37-10.3,2.71A97.28,97.28,0,0,1,128.6,207.81Z" fill="#fff"/><path d="M161.36,191.92a.54.54,0,0,1-.21,0c-.65-.32-1.28-.64-1.9-1a50.23,50.23,0,0,1-13.21-11,.51.51,0,0,1,.05-.71.49.49,0,0,1,.7,0A49.12,49.12,0,0,0,159.73,190c.61.33,1.22.65,1.85,1a.51.51,0,0,1-.22,1Z" fill="#fff"/><path d="M130.87,203a57,57,0,0,1-9.3-.91c-4.19-.7-8.36-1.55-12.4-2.53a.5.5,0,0,1-.36-.6.49.49,0,0,1,.6-.37c4,1,8.16,1.82,12.32,2.51,6,1,12.36,1.61,17.92-.61a5.84,5.84,0,0,0,3.42-2.72,5.57,5.57,0,0,0-.42-4.44c-1.78-3.8-5.49-6.85-11.33-9.31a.49.49,0,0,1-.27-.65.51.51,0,0,1,.66-.27c6.08,2.56,10,5.77,11.84,9.81a6.48,6.48,0,0,1,.43,5.27c-.6,1.35-1.89,2.41-3.95,3.24A24.62,24.62,0,0,1,130.87,203Z" fill="#fff"/><path d="M120.81,196.4a38.31,38.31,0,0,1-12.72-2.56.5.5,0,0,1,.34-.94c4,1.44,10.09,3.24,16.18,2.19,1.87-.33,3.07-.94,3.67-1.88a3.82,3.82,0,0,0-.65-4.36,5.89,5.89,0,0,0-1-.9.51.51,0,0,1-.11-.7.5.5,0,0,1,.7-.12,7.51,7.51,0,0,1,1.17,1.06,4.84,4.84,0,0,1,.75,5.56c-.76,1.19-2.18,1.95-4.35,2.32A23.29,23.29,0,0,1,120.81,196.4Z" fill="#fff"/><path d="M186,166.2a20.94,20.94,0,0,0-3.29-5.59,11.31,11.31,0,0,1-1.61-1.92c-.28-.5-.43-1.07-.66-1.58-1.67-3.63-5.22-2.9-8-1.06a5.25,5.25,0,0,0-2.47,3.62,10,10,0,0,1-.26,2.74c-.19.45-.52.83-.7,1.29a4,4,0,0,0,.12,2.36,11,11,0,0,0,1.45,3.7,8.67,8.67,0,0,0,2.41,2.18,8.93,8.93,0,0,0,6.25,1.74c2.83-.51,4.8-3,6.5-5.32a2.24,2.24,0,0,0,.53-1.12A2.28,2.28,0,0,0,186,166.2Zm-4.19.21c-.75.74-2.05.1-3.06.4a.91.91,0,0,0-.66.58,1.58,1.58,0,0,0,.11.67,4.64,4.64,0,0,1,0,2.71,2,2,0,0,1-1.94-.51,18.84,18.84,0,0,0-1.58-1.4c-.51-.32-1.12-.48-1.64-.79a3.13,3.13,0,0,1-1-4.08,2.78,2.78,0,0,0,.51-1.07,2.33,2.33,0,0,0-.08-.69c-.28-2,1.48-3.59,3-4.45,2.46-1.36,2.26.32,2.9,2.38.48,1.55,2,2.47,3.06,3.72C182,164.59,182.45,165.75,181.78,166.41Z" fill="#231f20"/><path d="M187.37,141.2c-.13-1.2-.33-2.4-.58-3.59-.34-1.63-1-3.45-2.53-4.07-1.81-.72-3.76.62-5.1,2a16,16,0,0,0-4,6.7c-.82,3.15.15,10.61,4.41,6.37a5.33,5.33,0,0,1,4.58-1.45,1.08,1.08,0,0,0,.59,0c.32-.12.41-.53.49-.87a6.73,6.73,0,0,1,1.22-2.61,4.17,4.17,0,0,0,.89-1.44A3.2,3.2,0,0,0,187.37,141.2ZM185,142.66a2.58,2.58,0,0,1-1.41,1.75c-1,.43-2.22,0-3.21.47a6,6,0,0,0-1.47,1.25,1.9,1.9,0,0,1-1.75.61,1.53,1.53,0,0,1-.94-1.12,4.49,4.49,0,0,1,0-1.51c.12-1.38.32-2.91,1.38-3.8s2.78-.92,3.53-2.09c.57-.88,1.28-2.59,2.6-1.69,1,.65,1.2,2.8,1.35,3.82A5.45,5.45,0,0,1,185,142.66Z" fill="#231f20"/><path d="M166.17,145.15a1,1,0,0,0-1.19-.91l-1.52.31a.85.85,0,0,0-.57,1.24c-1.74.36-3.16,1.59-4.65,2.67a15,15,0,0,1-1.36.88,9.94,9.94,0,0,1-1.82.67,3.46,3.46,0,0,0-2.57,2.65,6,6,0,0,0,0,1.89c.08.61.09,1.61.68,2a11.07,11.07,0,0,0,2.34.77,18,18,0,0,0,2.51.52c2.78.36,5.9-.43,7.45-3a8.6,8.6,0,0,0,1-4.53C166.48,148.6,166.29,146.87,166.17,145.15Zm-2.88,9.41c-2.35,2.39-6,1.35-8.88.41-.19-.91-.36-2.1.33-2.73a4.69,4.69,0,0,1,1.77-.7,8.13,8.13,0,0,0,1.74-.82c1.06-.65,2-1.48,3-2.18a4.26,4.26,0,0,1,2.91-1,1.41,1.41,0,0,0,.29,0c.07.95.12,1.9.12,2.85A5.87,5.87,0,0,1,163.29,154.56Z" fill="#231f20"/><path d="M290.47,80.16a1,1,0,0,0-1.29-.33,1,1,0,0,0-.33,1.29,2.92,2.92,0,0,1,.25.5v0a.35.35,0,0,0,0,.06,2.77,2.77,0,0,1,.1.26c.05.16.09.32.13.48a2.74,2.74,0,0,1,.05.28s0,0,0,.08a6.81,6.81,0,0,1,0,1,2.12,2.12,0,0,1,0,.24.17.17,0,0,0,0,.07c0,.19-.08.37-.13.55a1,1,0,0,0,.66,1.16,1,1,0,0,0,1.16-.66A6.58,6.58,0,0,0,290.47,80.16Z" fill="#d1d3d4"/><path d="M291.72,100.52l-1.08-3.18a.94.94,0,1,0-1.82.5L289.9,101a.94.94,0,0,0,1.82-.5Z" fill="#d1d3d4"/><path d="M280.32,74.37a16.5,16.5,0,0,0-6.11-6.19.94.94,0,0,0-.95,1.63,13.49,13.49,0,0,1,3.09,2.38,13.94,13.94,0,0,1,2.35,3.13.94.94,0,0,0,1.28.34A1,1,0,0,0,280.32,74.37Z" fill="#d1d3d4"/><path d="M262.84,75.29a1,1,0,0,0-1.29-.34,9.69,9.69,0,0,1-2.33.83l-.64.13-.28,0-.22,0a11.38,11.38,0,0,1-1.31.06,1,1,0,0,0-.94.94,1,1,0,0,0,.94.94,12.4,12.4,0,0,0,5.73-1.33A1,1,0,0,0,262.84,75.29Z" fill="#d1d3d4"/><path d="M257.12,86.15a1,1,0,0,0-1.16-.66,2.52,2.52,0,0,1-.47.13h-.05l-.21,0a3.77,3.77,0,0,1-.47,0h-.06l-.24-.05-.4-.13-.08,0-.21-.12-.21-.13,0,0a4.08,4.08,0,0,1-.36-.36,1,1,0,0,0-1.34,0,1,1,0,0,0,0,1.34,4.44,4.44,0,0,0,4.64,1.2A1,1,0,0,0,257.12,86.15Z" fill="#d1d3d4"/><path d="M277.58,115a1,1,0,0,0-1.33,0l-3.68,4.28a.94.94,0,0,0,1.34,1.33l3.67-4.28A1,1,0,0,0,277.58,115Z" fill="#d1d3d4"/><path d="M286.08,115a1,1,0,0,0-.67-.27,1,1,0,0,0-.66.27l-1.59,1.59a1,1,0,0,0-.28.67,1,1,0,0,0,.28.67,1,1,0,0,0,.66.27,1,1,0,0,0,.67-.27l1.59-1.6a1,1,0,0,0,.28-.66A1,1,0,0,0,286.08,115Z" fill="#d1d3d4"/><path d="M262.34,61.08q-1.3-2.13-2.6-4.27a.94.94,0,0,0-1.63.95l2.6,4.27a.94.94,0,0,0,1.63-1Z" fill="#d1d3d4"/><path d="M133.35,120.32a.94.94,0,0,0-.66-.27,1.11,1.11,0,0,0-.67.27L128.84,123a1,1,0,0,0-.28.67,1,1,0,0,0,.94.94,1,1,0,0,0,.67-.28l3.18-2.64a.94.94,0,0,0,0-1.34Z" fill="#d1d3d4"/><path d="M135.64,133.32a.67.67,0,0,0-.19-.3l-.19-.15a.91.91,0,0,0-.48-.13l-.25,0a1,1,0,0,0-.42.25l-.53.53a.67.67,0,0,0-.19.3.64.64,0,0,0-.08.36.69.69,0,0,0,.08.37.8.8,0,0,0,.19.3l.19.15a1,1,0,0,0,.48.12l.25,0a.89.89,0,0,0,.42-.24l.53-.53a.8.8,0,0,0,.19-.3.69.69,0,0,0,.08-.37A.64.64,0,0,0,135.64,133.32Z" fill="#d1d3d4"/><path d="M121.85,60.65a.8.8,0,0,0-.19-.3.67.67,0,0,0-.31-.19.64.64,0,0,0-.36-.08l-.25,0a.89.89,0,0,0-.42.24l-.14.19a.91.91,0,0,0-.13.48v.53a.64.64,0,0,0,.08.36.67.67,0,0,0,.19.3.69.69,0,0,0,.31.2.73.73,0,0,0,.36.08l.25,0a1,1,0,0,0,.42-.25l.14-.19a.85.85,0,0,0,.13-.47V61A.69.69,0,0,0,121.85,60.65Z" fill="#d1d3d4"/><path d="M133,48.9a1,1,0,0,0-.57-.44,1,1,0,0,0-.72.1l-1.59,1.06a.93.93,0,0,0-.34,1.29.94.94,0,0,0,1.29.33l1.59-1.06a1,1,0,0,0,.43-.56A1,1,0,0,0,133,48.9Z" fill="#d1d3d4"/><path d="M135.24,172.67a24.73,24.73,0,0,0-2.31-7.1.94.94,0,1,0-1.63,1,22.86,22.86,0,0,1,2.12,6.65,1,1,0,0,0,1.16.66A1,1,0,0,0,135.24,172.67Z" fill="#d1d3d4"/><path d="M127.22,170.28a1,1,0,0,0-.94-.94,1,1,0,0,0-1,.94,12.08,12.08,0,0,1-.91,6.42,1,1,0,0,0,.33,1.29,1,1,0,0,0,1.29-.34A13.85,13.85,0,0,0,127.22,170.28Z" fill="#d1d3d4"/><path d="M128.76,151.47l-.57-3.17a1,1,0,0,0-.43-.57.93.93,0,0,0-.73-.09.9.9,0,0,0-.56.43,1.08,1.08,0,0,0-.1.73l.57,3.17a1,1,0,0,0,.43.57,1,1,0,0,0,.73.09.9.9,0,0,0,.56-.43A1,1,0,0,0,128.76,151.47Z" fill="#d1d3d4"/><path d="M128.79,138.74a.89.89,0,0,0-.24-.42l-.19-.15a1,1,0,0,0-.48-.13h-.53a.74.74,0,0,0-.36.09.6.6,0,0,0-.3.19.83.83,0,0,0-.2.3.8.8,0,0,0-.08.37l0,.25a.86.86,0,0,0,.24.41l.19.15a1,1,0,0,0,.47.13h.53a.77.77,0,0,0,.37-.08.75.75,0,0,0,.3-.2.69.69,0,0,0,.2-.3.86.86,0,0,0,.08-.36Z" fill="#d1d3d4"/><path d="M178.12,240.56a1,1,0,0,0-1.16-.66l-6.37,1.59a.94.94,0,0,0,.5,1.82l6.37-1.59A1,1,0,0,0,178.12,240.56Z" fill="#d1d3d4"/><path d="M246.61,239.88a1,1,0,0,0-.94.94l0,4.78a.95.95,0,0,0,1.89,0c0-1.6,0-3.19,0-4.78A1,1,0,0,0,246.61,239.88Z" fill="#d1d3d4"/><path d="M259.57,224.26a1,1,0,0,0-1.33,0l-3.87,3.54a.94.94,0,0,0,1.33,1.33l3.87-3.54A1,1,0,0,0,259.57,224.26Z" fill="#d1d3d4"/><path d="M244.32,227.62a1.07,1.07,0,0,0-.56-.44l-1.59-.53a1,1,0,0,0-.72.1.94.94,0,0,0-.44.56,1,1,0,0,0,.1.73,1,1,0,0,0,.56.43l1.59.53a1,1,0,0,0,.73-.09,1,1,0,0,0,.43-.57A1,1,0,0,0,244.32,227.62Z" fill="#d1d3d4"/><path d="M125.61,226.78c-.18-.88-.35-1.77-.53-2.65a.93.93,0,0,0-.43-.56.94.94,0,0,0-1.39,1.06c.18.88.36,1.77.53,2.65a1,1,0,0,0,.44.57,1,1,0,0,0,.72.09A1,1,0,0,0,125.61,226.78Z" fill="#d1d3d4"/><path d="M261,235.11a1,1,0,0,0-.94.94.28.28,0,0,0,0,.09,1.33,1.33,0,0,0,0,.21c0,.16-.07.32-.11.47s-.09.32-.14.47-.05.16-.08.23l0,.12,0-.06a2.31,2.31,0,0,1-.22.45,4.49,4.49,0,0,1-.24.42l-.28.41h0l0,0-.15.18a.94.94,0,1,0,1.33,1.34,7.75,7.75,0,0,0,1.87-4.38A1,1,0,0,0,261,235.11Z" fill="#d1d3d4"/><path d="M140.75,172.27l-1.06-1.07a.8.8,0,0,0-.3-.19.69.69,0,0,0-.37-.08.64.64,0,0,0-.36.08.67.67,0,0,0-.3.19,1,1,0,0,0-.28.67,1,1,0,0,0,.28.67l1.06,1.06a.67.67,0,0,0,.3.19.64.64,0,0,0,.36.08.69.69,0,0,0,.37-.08.8.8,0,0,0,.3-.19,1,1,0,0,0,.28-.67A1,1,0,0,0,140.75,172.27Z" fill="#d1d3d4"/><path d="M281.56,105.84a1,1,0,0,0-.44-.57l0,0a4.37,4.37,0,0,1-.68-.68,4.2,4.2,0,0,1-.43-.74l0-.1a1.06,1.06,0,0,0-.44-.56.91.91,0,0,0-.72-.09.92.92,0,0,0-.66,1.15,5.06,5.06,0,0,0,.74,1.42,5.37,5.37,0,0,0,.58.67,5.54,5.54,0,0,0,.72.58,1,1,0,0,0,.73.1,1,1,0,0,0,.66-1.16Z" fill="#d1d3d4"/><path d="M278.09,81.3a1,1,0,0,0-.94,1c-.17,1.41-.33,2.83-.5,4.24a.93.93,0,0,0,.94.94,1,1,0,0,0,.94-.94c.17-1.41.34-2.83.5-4.24A.94.94,0,0,0,278.09,81.3Z" fill="#d1d3d4"/><path d="M245.78,95.9a1,1,0,0,0-1.27,0h0a3.07,3.07,0,0,1-.39.23l-.36.09h-.37l-.15,0a1,1,0,0,0-.73.1.94.94,0,0,0-.43.56,1,1,0,0,0,.66,1.16,3.25,3.25,0,0,0,3-.74,1,1,0,0,0,.27-.67A1,1,0,0,0,245.78,95.9Z" fill="#d1d3d4"/><path d="M243.26,81.75a1,1,0,0,0-1.29-.34l-.1,0a5.56,5.56,0,0,1-1.27.35,5.92,5.92,0,0,1-1.33,0,.92.92,0,0,0-.67.28,1,1,0,0,0,0,1.33,1.11,1.11,0,0,0,.67.27,6.5,6.5,0,0,0,3.65-.65A.94.94,0,0,0,243.26,81.75Z" fill="#d1d3d4"/></g></svg>