<svg xmlns="http://www.w3.org/2000/svg" viewBox="0 0 400 300"><g id="_306_toronto_flatline" data-name="#306_toronto_flatline"><rect x="165.99" y="150.03" width="73.7" height="101.45" transform="translate(405.67 401.51) rotate(-180)" fill="#fff"/><path d="M239.69,252H166a.5.5,0,0,1-.5-.5V150a.5.5,0,0,1,.5-.5h73.7a.5.5,0,0,1,.5.5V251.48A.5.5,0,0,1,239.69,252Zm-73.2-1h72.7V150.53h-72.7Z" fill="#231f20"/><path d="M236.42,161.92H169.25a.5.5,0,0,1-.5-.5.51.51,0,0,1,.5-.5h67.17a.5.5,0,0,1,.5.5A.5.5,0,0,1,236.42,161.92Z" fill="#d1d3d4"/><path d="M236.42,173H169.25a.51.51,0,0,1-.5-.5.5.5,0,0,1,.5-.5h67.17a.5.5,0,0,1,.5.5A.5.5,0,0,1,236.42,173Z" fill="#d1d3d4"/><path d="M236.42,184.07H169.25a.51.51,0,0,1-.5-.5.5.5,0,0,1,.5-.5h67.17a.5.5,0,0,1,.5.5A.5.5,0,0,1,236.42,184.07Z" fill="#d1d3d4"/><path d="M236.42,195.14H169.25a.5.5,0,0,1,0-1h67.17a.5.5,0,0,1,0,1Z" fill="#d1d3d4"/><path d="M236.42,206.21H169.25a.5.5,0,0,1-.5-.5.51.51,0,0,1,.5-.5h67.17a.5.5,0,0,1,.5.5A.5.5,0,0,1,236.42,206.21Z" fill="#d1d3d4"/><path d="M236.42,217.29H169.25a.51.51,0,0,1-.5-.5.5.5,0,0,1,.5-.5h67.17a.5.5,0,0,1,.5.5A.5.5,0,0,1,236.42,217.29Z" fill="#d1d3d4"/><path d="M236.42,228.36H169.25a.51.51,0,0,1-.5-.5.5.5,0,0,1,.5-.5h67.17a.5.5,0,0,1,.5.5A.5.5,0,0,1,236.42,228.36Z" fill="#d1d3d4"/><path d="M236.42,239.43H169.25a.5.5,0,0,1,0-1h67.17a.5.5,0,1,1,0,1Z" fill="#d1d3d4"/><rect x="176.94" y="144.17" width="62.74" height="5.86" transform="translate(416.63 294.19) rotate(-180)" fill="#231f20"/><path d="M239.69,150.53H176.94a.51.51,0,0,1-.5-.5v-5.86a.5.5,0,0,1,.5-.5h62.75a.5.5,0,0,1,.5.5V150A.51.51,0,0,1,239.69,150.53Zm-62.25-1h61.75v-4.86H177.44Z" fill="#231f20"/><rect x="131.29" y="176.2" width="20.53" height="75.27" fill="#fff"/><path d="M151.82,252H131.29a.5.5,0,0,1-.5-.5V176.2a.51.51,0,0,1,.5-.5h20.53a.5.5,0,0,1,.5.5v75.27A.5.5,0,0,1,151.82,252Zm-20-1h19.53V176.7H131.79Z" fill="#231f20"/><rect x="91.82" y="166.62" width="40.15" height="84.86" fill="#fff"/><path d="M132,252H91.82a.5.5,0,0,1-.5-.5V166.62a.5.5,0,0,1,.5-.5H132a.5.5,0,0,1,.5.5v84.86A.5.5,0,0,1,132,252Zm-39.65-1h39.15V167.12H92.32Z" fill="#231f20"/><path d="M130.19,176.65H93.6a.5.5,0,0,1-.5-.5.5.5,0,0,1,.5-.5h36.59a.5.5,0,0,1,.5.5A.5.5,0,0,1,130.19,176.65Z" fill="#d1d3d4"/><path d="M130.19,185.92H93.6a.5.5,0,0,1-.5-.5.5.5,0,0,1,.5-.5h36.59a.5.5,0,0,1,.5.5A.5.5,0,0,1,130.19,185.92Z" fill="#d1d3d4"/><path d="M130.19,195.18H93.6a.5.5,0,0,1-.5-.5.5.5,0,0,1,.5-.5h36.59a.5.5,0,0,1,.5.5A.5.5,0,0,1,130.19,195.18Z" fill="#d1d3d4"/><path d="M130.19,204.44H93.6a.5.5,0,0,1-.5-.5.5.5,0,0,1,.5-.5h36.59a.5.5,0,0,1,.5.5A.5.5,0,0,1,130.19,204.44Z" fill="#d1d3d4"/><path d="M130.19,213.7H93.6a.5.5,0,0,1-.5-.5.5.5,0,0,1,.5-.5h36.59a.5.5,0,0,1,.5.5A.5.5,0,0,1,130.19,213.7Z" fill="#d1d3d4"/><path d="M130.19,223H93.6a.5.5,0,0,1,0-1h36.59a.5.5,0,0,1,0,1Z" fill="#d1d3d4"/><path d="M130.19,232.22H93.6a.5.5,0,0,1,0-1h36.59a.5.5,0,0,1,0,1Z" fill="#d1d3d4"/><path d="M130.19,241.48H93.6a.5.5,0,0,1-.5-.5.5.5,0,0,1,.5-.5h36.59a.5.5,0,0,1,.5.5A.5.5,0,0,1,130.19,241.48Z" fill="#d1d3d4"/><rect x="91.82" y="161.72" width="34.18" height="4.9" fill="#231f20"/><path d="M126,167.12H91.82a.5.5,0,0,1-.5-.5v-4.9a.5.5,0,0,1,.5-.5H126a.5.5,0,0,1,.5.5v4.9A.5.5,0,0,1,126,167.12Zm-33.68-1H125.5v-3.9H92.32Z" fill="#231f20"/><rect x="143.33" y="182.88" width="3.78" height="1" fill="#d1d3d4"/><rect x="136.7" y="193.82" width="3.78" height="1" fill="#d1d3d4"/><rect x="141.42" y="204.21" width="3.78" height="1" fill="#d1d3d4"/><path d="M188.32,228.7c-9.29-14.85-32.94-25.41-60.65-25.41S76.32,213.85,67,228.7Z" fill="#68e1fd"/><path d="M188.32,229.16H67a.46.46,0,0,1-.4-.23.46.46,0,0,1,0-.47c9.59-15.33,34.12-25.63,61-25.63s51.45,10.3,61,25.63a.49.49,0,0,1,0,.47A.47.47,0,0,1,188.32,229.16Zm-120.46-.91H187.48c-9.73-14.69-33.61-24.5-59.81-24.5S77.6,213.56,67.86,228.25Z" fill="#231f20"/><polygon points="186.24 236.68 72.14 236.68 67.19 228.47 188.16 228.47 186.24 236.68" fill="#231f20"/><path d="M186.24,237.18H72.14a.5.5,0,0,1-.43-.24l-4.95-8.21a.52.52,0,0,1,0-.51.49.49,0,0,1,.43-.25h121a.51.51,0,0,1,.4.19.49.49,0,0,1,.09.42l-1.91,8.21A.5.5,0,0,1,186.24,237.18Zm-113.82-1H185.84l1.68-7.21H68.08Z" fill="#231f20"/><rect x="69.42" y="236.68" width="118.73" height="14.8" fill="#231f20"/><path d="M188.15,252H69.42a.5.5,0,0,1-.5-.5v-14.8a.5.5,0,0,1,.5-.5H188.15a.5.5,0,0,1,.5.5v14.8A.5.5,0,0,1,188.15,252ZM69.92,251H187.65v-13.8H69.92Z" fill="#231f20"/><path d="M179.06,230.41c-7.68-12.28-27.23-21-50.13-21s-42.46,8.73-50.14,21Z" fill="#68e1fd"/><path d="M179.06,230.86H78.79a.45.45,0,0,1-.39-.69c7.94-12.7,28.25-21.23,50.53-21.23s42.58,8.53,50.52,21.23a.47.47,0,0,1,0,.46A.46.46,0,0,1,179.06,230.86ZM79.63,230h98.59c-8.08-12-27.73-20.09-49.29-20.09S87.71,217.9,79.63,230Z" fill="#231f20"/><path d="M165.58,230.91H92.27a.52.52,0,0,1-.42-.23.51.51,0,0,1,0-.48c5.83-12.74,20.74-21.3,37.11-21.3s31.27,8.56,37.1,21.3a.51.51,0,0,1,0,.48A.52.52,0,0,1,165.58,230.91Zm-72.52-1h71.73c-5.89-12-20.19-20-35.86-20S99,217.91,93.06,229.91Z" fill="#231f20"/><path d="M150.19,230.91H107.66a.52.52,0,0,1-.4-.2.5.5,0,0,1-.08-.43c3.39-12.79,12.13-21.38,21.75-21.38s18.35,8.59,21.74,21.38a.5.5,0,0,1-.08.43A.52.52,0,0,1,150.19,230.91Zm-41.88-1h41.23c-3.39-12-11.62-20-20.61-20S111.7,217.91,108.31,229.91Z" fill="#231f20"/><path d="M135.26,230.91H122.59a.52.52,0,0,1-.37-.16.53.53,0,0,1-.13-.38c.82-10.38,3-21.47,6.84-21.47s6,11.09,6.83,21.47a.53.53,0,0,1-.13.38A.52.52,0,0,1,135.26,230.91Zm-12.13-1h11.59c-1.1-13.14-3.73-20-5.79-20S124.23,216.77,123.13,229.91Z" fill="#231f20"/><polygon points="177.34 237 80.51 237 78.93 230.21 178.92 230.21 177.34 237" fill="#fff"/><path d="M177.34,237.5H80.51a.5.5,0,0,1-.49-.39l-1.58-6.78a.51.51,0,0,1,.1-.43.48.48,0,0,1,.39-.19h100a.51.51,0,0,1,.4.19.51.51,0,0,1,.09.43l-1.58,6.78A.5.5,0,0,1,177.34,237.5Zm-96.43-1h96l1.35-5.79H79.56Z" fill="#231f20"/><rect x="78.93" y="237" width="100" height="14.48" fill="#68e1fd"/><path d="M178.92,251.94h-100a.46.46,0,0,1-.46-.46V237a.46.46,0,0,1,.46-.46h100a.46.46,0,0,1,.46.46v14.48A.46.46,0,0,1,178.92,251.94ZM79.38,251h99.09V237.46H79.38Z" fill="#231f20"/><path d="M178.28,234.11H82.37a.5.5,0,0,1-.5-.5.5.5,0,0,1,.5-.5h95.91a.5.5,0,0,1,.5.5A.5.5,0,0,1,178.28,234.11Z" fill="#d1d3d4"/><rect x="82.83" y="241.07" width="19" height="10.41" fill="#231f20"/><path d="M101.84,252h-19a.5.5,0,0,1-.5-.5V241.07a.51.51,0,0,1,.5-.5h19a.51.51,0,0,1,.5.5v10.41A.5.5,0,0,1,101.84,252Zm-18.51-1h18v-9.41h-18Z" fill="#231f20"/><path d="M87.69,252a.5.5,0,0,1-.5-.5V241.07a.5.5,0,0,1,1,0v10.41A.5.5,0,0,1,87.69,252Z" fill="#fff"/><path d="M92.34,252a.5.5,0,0,1-.5-.5V241.07a.5.5,0,0,1,.5-.5.51.51,0,0,1,.5.5v10.41A.5.5,0,0,1,92.34,252Z" fill="#fff"/><path d="M97,252a.5.5,0,0,1-.5-.5V241.07a.51.51,0,0,1,.5-.5.5.5,0,0,1,.5.5v10.41A.5.5,0,0,1,97,252Z" fill="#fff"/><rect x="107.23" y="241.07" width="19" height="10.41" fill="#231f20"/><path d="M126.23,252h-19a.5.5,0,0,1-.5-.5V241.07a.5.5,0,0,1,.5-.5h19a.5.5,0,0,1,.5.5v10.41A.5.5,0,0,1,126.23,252Zm-18.5-1h18v-9.41h-18Z" fill="#231f20"/><path d="M112.08,252a.5.5,0,0,1-.5-.5V241.07a.51.51,0,0,1,.5-.5.5.5,0,0,1,.5.5v10.41A.5.5,0,0,1,112.08,252Z" fill="#fff"/><path d="M116.73,252a.5.5,0,0,1-.5-.5V241.07a.5.5,0,0,1,1,0v10.41A.5.5,0,0,1,116.73,252Z" fill="#fff"/><path d="M121.38,252a.5.5,0,0,1-.5-.5V241.07a.5.5,0,0,1,.5-.5.51.51,0,0,1,.5.5v10.41A.5.5,0,0,1,121.38,252Z" fill="#fff"/><rect x="131.62" y="241.07" width="19" height="10.41" fill="#231f20"/><path d="M150.62,252h-19a.5.5,0,0,1-.5-.5V241.07a.5.5,0,0,1,.5-.5h19a.5.5,0,0,1,.5.5v10.41A.5.5,0,0,1,150.62,252Zm-18.5-1h18v-9.41h-18Z" fill="#231f20"/><path d="M136.48,252a.5.5,0,0,1-.5-.5V241.07a.5.5,0,0,1,.5-.5.51.51,0,0,1,.5.5v10.41A.5.5,0,0,1,136.48,252Z" fill="#fff"/><path d="M141.12,252a.5.5,0,0,1-.5-.5V241.07a.51.51,0,0,1,.5-.5.5.5,0,0,1,.5.5v10.41A.5.5,0,0,1,141.12,252Z" fill="#fff"/><path d="M145.77,252a.5.5,0,0,1-.5-.5V241.07a.5.5,0,0,1,.5-.5.51.51,0,0,1,.5.5v10.41A.5.5,0,0,1,145.77,252Z" fill="#fff"/><rect x="156.01" y="241.07" width="19" height="10.41" fill="#231f20"/><path d="M175,252H156a.5.5,0,0,1-.5-.5V241.07a.51.51,0,0,1,.5-.5h19a.51.51,0,0,1,.5.5v10.41A.5.5,0,0,1,175,252Zm-18.51-1h18v-9.41h-18Z" fill="#231f20"/><path d="M160.87,252a.5.5,0,0,1-.5-.5V241.07a.5.5,0,0,1,.5-.5.51.51,0,0,1,.5.5v10.41A.5.5,0,0,1,160.87,252Z" fill="#fff"/><path d="M165.51,252a.5.5,0,0,1-.5-.5V241.07a.51.51,0,0,1,.5-.5.5.5,0,0,1,.5.5v10.41A.5.5,0,0,1,165.51,252Z" fill="#fff"/><path d="M170.16,252a.5.5,0,0,1-.5-.5V241.07a.5.5,0,0,1,1,0v10.41A.5.5,0,0,1,170.16,252Z" fill="#fff"/><path d="M191.5,40.66a.5.5,0,0,1-.5-.5V31.42a.5.5,0,0,1,.5-.5.51.51,0,0,1,.5.5v8.74A.51.51,0,0,1,191.5,40.66Z" fill="#231f20"/><rect x="187.43" y="82.89" width="8.14" height="5.63" fill="#68e1fd"/><path d="M195.57,89h-8.14a.47.47,0,0,1-.46-.46V82.89a.46.46,0,0,1,.46-.45h8.14a.45.45,0,0,1,.45.45v5.63A.46.46,0,0,1,195.57,89Zm-7.68-.92h7.22V83.35h-7.22Z" fill="#231f20"/><rect x="185.83" y="79.26" width="11.34" height="3.64" fill="#fff"/><path d="M197.17,83.39H185.83a.5.5,0,0,1-.5-.5V79.26a.5.5,0,0,1,.5-.5h11.34a.5.5,0,0,1,.5.5v3.63A.5.5,0,0,1,197.17,83.39Zm-10.84-1h10.34V79.76H186.33Z" fill="#231f20"/><polygon points="189.31 47.82 193.69 47.82 194.57 79.26 188.43 79.26 189.31 47.82" fill="#68e1fd"/><path d="M194.57,79.71h-6.14a.43.43,0,0,1-.33-.13.46.46,0,0,1-.13-.33l.88-31.44a.46.46,0,0,1,.46-.45h4.38a.46.46,0,0,1,.46.45L195,79.25a.51.51,0,0,1-.13.33A.46.46,0,0,1,194.57,79.71Zm-5.67-.91h5.2l-.86-30.52h-3.49Z" fill="#231f20"/><path d="M196.05,61.17c0,.6-.48,1.15-1.27,1.55h-6.57c-.79-.4-1.27-.95-1.27-1.55a1.82,1.82,0,0,1,1.12-1.47H195A1.84,1.84,0,0,1,196.05,61.17Z" fill="#fff"/><path d="M194.78,63.22h-6.57a.42.42,0,0,1-.22,0,2.39,2.39,0,0,1-1.55-2,2.31,2.31,0,0,1,1.37-1.91.51.51,0,0,1,.25-.06h6.88a.51.51,0,0,1,.25.06,2.31,2.31,0,0,1,1.36,1.91,2.39,2.39,0,0,1-1.54,2A.46.46,0,0,1,194.78,63.22Zm-6.44-1h6.32c.57-.31.89-.69.89-1s-.27-.67-.74-1h-6.62c-.32.2-.75.54-.75,1S187.77,61.91,188.34,62.22Z" fill="#231f20"/><polygon points="189.96 39.34 193.04 39.34 193.22 47.82 189.78 47.82 189.96 39.34" fill="#231f20"/><path d="M193.22,48.32h-3.44a.51.51,0,0,1-.36-.15.5.5,0,0,1-.14-.36l.18-8.48a.49.49,0,0,1,.5-.49H193a.49.49,0,0,1,.5.49l.18,8.48a.54.54,0,0,1-.14.36A.55.55,0,0,1,193.22,48.32Zm-2.93-1h2.42l-.16-7.48h-2.1Z" fill="#231f20"/><path d="M181.06,88.29h20.87A1.71,1.71,0,0,1,203.64,90v2.76a0,0,0,0,1,0,0H179.36a0,0,0,0,1,0,0V90A1.71,1.71,0,0,1,181.06,88.29Z" fill="#fff"/><path d="M203.64,93.26H179.36a.5.5,0,0,1-.5-.5V90a2.21,2.21,0,0,1,2.2-2.21h20.87A2.21,2.21,0,0,1,204.14,90v2.76A.5.5,0,0,1,203.64,93.26Zm-23.78-1h23.28V90a1.21,1.21,0,0,0-1.21-1.21H181.06a1.21,1.21,0,0,0-1.2,1.21Z" fill="#231f20"/><rect x="186.52" y="110.34" width="9.96" height="141.14" fill="#231f20"/><path d="M196.48,252h-10a.5.5,0,0,1-.5-.5V110.34a.5.5,0,0,1,.5-.5h10a.51.51,0,0,1,.5.5V251.48A.5.5,0,0,1,196.48,252ZM187,251h9V110.84h-9Z" fill="#231f20"/><path d="M195.14,114.75h-7.29a.5.5,0,0,1-.5-.5.51.51,0,0,1,.5-.5h7.29a.5.5,0,0,1,.5.5A.5.5,0,0,1,195.14,114.75Z" fill="#fff"/><path d="M195.18,117h-7.36a.5.5,0,0,1-.5-.5.5.5,0,0,1,.5-.5h7.36a.5.5,0,0,1,.5.5A.5.5,0,0,1,195.18,117Z" fill="#fff"/><path d="M195.21,119.36h-7.43a.51.51,0,0,1-.5-.5.5.5,0,0,1,.5-.5h7.43a.5.5,0,0,1,.5.5A.5.5,0,0,1,195.21,119.36Z" fill="#fff"/><path d="M195.25,121.73h-7.5a.5.5,0,0,1,0-1h7.5a.5.5,0,0,1,0,1Z" fill="#fff"/><path d="M195.29,124.15h-7.58a.5.5,0,0,1-.5-.5.5.5,0,0,1,.5-.5h7.58a.5.5,0,0,1,.5.5A.5.5,0,0,1,195.29,124.15Z" fill="#fff"/><path d="M195.33,126.61h-7.66a.5.5,0,0,1-.5-.5.5.5,0,0,1,.5-.5h7.66a.51.51,0,0,1,.5.5A.5.5,0,0,1,195.33,126.61Z" fill="#fff"/><path d="M195.37,129.13h-7.74a.5.5,0,0,1,0-1h7.74a.5.5,0,0,1,0,1Z" fill="#fff"/><path d="M195.41,131.7h-7.82a.5.5,0,1,1,0-1h7.82a.5.5,0,1,1,0,1Z" fill="#fff"/><path d="M195.45,134.32h-7.9a.5.5,0,0,1-.5-.5.5.5,0,0,1,.5-.5h7.9a.51.51,0,0,1,.5.5A.5.5,0,0,1,195.45,134.32Z" fill="#fff"/><path d="M195.49,137h-8a.5.5,0,0,1,0-1h8a.5.5,0,0,1,0,1Z" fill="#fff"/><path d="M195.53,139.73h-8.06a.5.5,0,0,1-.5-.5.5.5,0,0,1,.5-.5h8.06a.5.5,0,0,1,.5.5A.5.5,0,0,1,195.53,139.73Z" fill="#fff"/><path d="M195.57,142.53h-8.15a.51.51,0,0,1-.5-.5.5.5,0,0,1,.5-.5h8.15a.5.5,0,0,1,.5.5A.5.5,0,0,1,195.57,142.53Z" fill="#fff"/><path d="M195.62,145.38h-8.24a.5.5,0,0,1-.5-.5.5.5,0,0,1,.5-.5h8.24a.51.51,0,0,1,.5.5A.5.5,0,0,1,195.62,145.38Z" fill="#fff"/><path d="M195.66,148.3h-8.33a.51.51,0,0,1-.5-.5.5.5,0,0,1,.5-.5h8.33a.5.5,0,0,1,.5.5A.5.5,0,0,1,195.66,148.3Z" fill="#fff"/><path d="M195.71,151.28h-8.42a.5.5,0,0,1,0-1h8.42a.5.5,0,0,1,0,1Z" fill="#fff"/><path d="M195.76,154.33h-8.52a.5.5,0,0,1-.5-.5.5.5,0,0,1,.5-.5h8.52a.5.5,0,0,1,.5.5A.51.51,0,0,1,195.76,154.33Z" fill="#fff"/><path d="M195.81,157.45h-8.62a.5.5,0,0,1-.5-.5.5.5,0,0,1,.5-.5h8.62a.5.5,0,0,1,.5.5A.51.51,0,0,1,195.81,157.45Z" fill="#fff"/><path d="M195.85,160.63h-8.71a.5.5,0,0,1-.5-.5.51.51,0,0,1,.5-.5h8.71a.5.5,0,0,1,.5.5A.5.5,0,0,1,195.85,160.63Z" fill="#fff"/><path d="M195.91,163.9h-8.82a.5.5,0,0,1-.5-.5.5.5,0,0,1,.5-.5h8.82a.5.5,0,0,1,.5.5A.51.51,0,0,1,195.91,163.9Z" fill="#fff"/><path d="M196,167.24H187a.5.5,0,0,1-.5-.5.5.5,0,0,1,.5-.5H196a.5.5,0,0,1,.5.5A.51.51,0,0,1,196,167.24Z" fill="#fff"/><path d="M196,170.66h-9a.5.5,0,0,1-.5-.5.5.5,0,0,1,.5-.5h9a.5.5,0,0,1,.5.5A.5.5,0,0,1,196,170.66Z" fill="#fff"/><path d="M196.06,174.16h-9.13a.51.51,0,0,1-.5-.5.5.5,0,0,1,.5-.5h9.13a.5.5,0,0,1,.5.5A.5.5,0,0,1,196.06,174.16Z" fill="#fff"/><path d="M196.12,177.74h-9.24a.5.5,0,0,1-.5-.5.5.5,0,0,1,.5-.5h9.24a.5.5,0,0,1,.5.5A.5.5,0,0,1,196.12,177.74Z" fill="#fff"/><rect x="186.82" y="180.42" width="9.36" height="1" fill="#fff"/><rect x="186.76" y="184.19" width="9.48" height="1" fill="#fff"/><rect x="186.7" y="188.05" width="9.59" height="1" fill="#fff"/><rect x="186.64" y="192.01" width="9.72" height="1" fill="#fff"/><rect x="186.58" y="196.07" width="9.84" height="1" fill="#fff"/><rect x="186.51" y="200.24" width="9.97" height="1" fill="#fff"/><rect x="186.45" y="204.53" width="10.11" height="1" fill="#fff"/><rect x="186.38" y="208.92" width="10.24" height="1" fill="#fff"/><rect x="186.31" y="213.44" width="10.38" height="1" fill="#fff"/><rect x="186.24" y="218.08" width="10.53" height="1" fill="#fff"/><rect x="186.16" y="222.86" width="10.67" height="1" fill="#fff"/><rect x="186.08" y="227.77" width="10.83" height="1" fill="#fff"/><rect x="186.01" y="232.82" width="10.98" height="1" fill="#fff"/><rect x="185.93" y="238.02" width="11.14" height="1" fill="#fff"/><rect x="185.84" y="243.38" width="11.31" height="1" fill="#fff"/><path d="M187,251.48c3.66-47.13,3.86-141.14,3.86-141.14h-4.08c-5.77,108.74-11.31,135-13.3,141.14Z" fill="#68e1fd"/><path d="M187,251.94H173.46a.47.47,0,0,1-.37-.19.46.46,0,0,1-.06-.41c2.08-6.45,7.55-33.11,13.28-141a.46.46,0,0,1,.45-.44h4.08a.47.47,0,0,1,.33.14.48.48,0,0,1,.13.32c0,.94-.25,94.56-3.87,141.17A.46.46,0,0,1,187,251.94Zm-12.9-.92h12.47C190,206,190.36,118,190.38,110.8H187.2C181.63,215.42,176.3,243.57,174.08,251Z" fill="#231f20"/><path d="M209.53,251.48c-2-6.15-7.53-32.4-13.3-141.14h-4.08s.21,94,3.87,141.14Z" fill="#68e1fd"/><path d="M209.53,251.94H196a.45.45,0,0,1-.45-.43c-3.63-46.61-3.87-140.23-3.87-141.17a.48.48,0,0,1,.13-.32.45.45,0,0,1,.32-.14h4.08a.46.46,0,0,1,.46.44c5.73,107.91,11.19,134.57,13.28,141a.46.46,0,0,1-.07.41A.44.44,0,0,1,209.53,251.94ZM196.44,251h12.47c-2.21-7.45-7.55-35.6-13.11-140.22h-3.19C192.63,118,193,206,196.44,251Z" fill="#231f20"/><path d="M179.36,105.87h24.28a0,0,0,0,1,0,0v2.76a1.71,1.71,0,0,1-1.71,1.71H181.06a1.71,1.71,0,0,1-1.71-1.71v-2.76A0,0,0,0,1,179.36,105.87Z" fill="#fff"/><path d="M201.93,110.84H181.06a2.21,2.21,0,0,1-2.2-2.21v-2.76a.5.5,0,0,1,.5-.5h24.28a.5.5,0,0,1,.5.5v2.76A2.21,2.21,0,0,1,201.93,110.84Zm-22.07-4.47v2.26a1.21,1.21,0,0,0,1.2,1.21h20.87a1.21,1.21,0,0,0,1.21-1.21v-2.26Z" fill="#231f20"/><rect x="176.08" y="90.53" width="30.83" height="16.87" rx="3.18" fill="#68e1fd"/><path d="M203.73,107.85H179.27a3.64,3.64,0,0,1-3.64-3.64V93.71a3.64,3.64,0,0,1,3.64-3.64h24.46a3.64,3.64,0,0,1,3.64,3.64v10.5A3.64,3.64,0,0,1,203.73,107.85ZM179.27,91a2.72,2.72,0,0,0-2.73,2.72v10.5a2.73,2.73,0,0,0,2.73,2.73h24.46a2.73,2.73,0,0,0,2.73-2.73V93.71A2.73,2.73,0,0,0,203.73,91Z" fill="#231f20"/><path d="M207.83,95.3H175.17a.5.5,0,0,1,0-1h32.66a.5.5,0,0,1,0,1Z" fill="#231f20"/><path d="M207.83,99.46H175.17a.5.5,0,0,1-.5-.5.5.5,0,0,1,.5-.5h32.66a.51.51,0,0,1,.5.5A.5.5,0,0,1,207.83,99.46Z" fill="#231f20"/><path d="M207.83,103.62H175.17a.5.5,0,0,1-.5-.5.5.5,0,0,1,.5-.5h32.66a.51.51,0,0,1,.5.5A.5.5,0,0,1,207.83,103.62Z" fill="#231f20"/><path d="M252.27,174.34a.5.5,0,0,1-.5-.5V156.61a.5.5,0,0,1,.5-.5.5.5,0,0,1,.5.5v17.23A.5.5,0,0,1,252.27,174.34Z" fill="#231f20"/><rect x="247.14" y="176.21" width="20.53" height="75.27" fill="#fff"/><path d="M267.67,252H247.14a.5.5,0,0,1-.5-.5V176.21a.5.5,0,0,1,.5-.5h20.53a.5.5,0,0,1,.5.5v75.27A.5.5,0,0,1,267.67,252Zm-20-1h19.53V176.71H247.64Z" fill="#231f20"/><rect x="247.14" y="172.31" width="10.26" height="3.9" fill="#231f20"/><path d="M257.4,176.71H247.14a.5.5,0,0,1-.5-.5v-3.9a.5.5,0,0,1,.5-.5H257.4a.5.5,0,0,1,.5.5v3.9A.5.5,0,0,1,257.4,176.71Zm-9.76-1h9.26v-2.9h-9.26Z" fill="#231f20"/><rect x="266.15" y="105.12" width="61.58" height="146.36" fill="#fff"/><path d="M327.73,105.12V251.48H266.15V105.12h61.58m0-1H266.15a1,1,0,0,0-1,1V251.48a1,1,0,0,0,1,1h61.58a1,1,0,0,0,1-1V105.12a1,1,0,0,0-1-1Z" fill="#231f20"/><rect x="266.15" y="116.03" width="61.58" height="1" fill="#d1d3d4"/><rect x="266.15" y="127.81" width="61.58" height="1" fill="#d1d3d4"/><rect x="266.15" y="139.6" width="61.58" height="1" fill="#d1d3d4"/><rect x="266.15" y="151.38" width="61.58" height="1" fill="#d1d3d4"/><rect x="266.15" y="163.17" width="61.58" height="1" fill="#d1d3d4"/><rect x="266.15" y="174.95" width="61.58" height="1" fill="#d1d3d4"/><rect x="266.15" y="186.74" width="61.58" height="1" fill="#d1d3d4"/><rect x="266.15" y="198.52" width="61.58" height="1" fill="#d1d3d4"/><rect x="266.15" y="210.3" width="61.58" height="1" fill="#d1d3d4"/><rect x="266.15" y="222.09" width="61.58" height="1" fill="#d1d3d4"/><rect x="266.15" y="233.87" width="61.58" height="1" fill="#d1d3d4"/><rect x="282.4" y="94.1" width="29.08" height="157.38" fill="#fff"/><path d="M311.48,252H282.4a.5.5,0,0,1-.5-.5V94.1a.5.5,0,0,1,.5-.5h29.08a.5.5,0,0,1,.5.5V251.48A.5.5,0,0,1,311.48,252Zm-28.58-1H311V94.6H282.9Z" fill="#231f20"/><path d="M311.48,111H282.4a.5.5,0,0,1-.5-.5.5.5,0,0,1,.5-.5h29.08a.5.5,0,0,1,.5.5A.5.5,0,0,1,311.48,111Z" fill="#231f20"/><path d="M311.48,122.74H282.4a.5.5,0,0,1-.5-.5.5.5,0,0,1,.5-.5h29.08a.5.5,0,0,1,.5.5A.5.5,0,0,1,311.48,122.74Z" fill="#231f20"/><path d="M311.48,134.52H282.4a.5.5,0,0,1-.5-.5.5.5,0,0,1,.5-.5h29.08a.5.5,0,0,1,.5.5A.5.5,0,0,1,311.48,134.52Z" fill="#231f20"/><path d="M311.48,146.31H282.4a.5.5,0,0,1-.5-.5.5.5,0,0,1,.5-.5h29.08a.5.5,0,0,1,.5.5A.5.5,0,0,1,311.48,146.31Z" fill="#231f20"/><path d="M311.48,158.09H282.4a.5.5,0,0,1,0-1h29.08a.5.5,0,0,1,0,1Z" fill="#231f20"/><path d="M311.48,169.88H282.4a.5.5,0,0,1-.5-.5.5.5,0,0,1,.5-.5h29.08a.5.5,0,0,1,.5.5A.5.5,0,0,1,311.48,169.88Z" fill="#231f20"/><path d="M311.48,181.66H282.4a.5.5,0,0,1,0-1h29.08a.5.5,0,0,1,0,1Z" fill="#231f20"/><path d="M311.48,193.44H282.4a.5.5,0,0,1-.5-.5.5.5,0,0,1,.5-.5h29.08a.5.5,0,0,1,.5.5A.5.5,0,0,1,311.48,193.44Z" fill="#231f20"/><path d="M311.48,205.23H282.4a.5.5,0,0,1-.5-.5.5.5,0,0,1,.5-.5h29.08a.5.5,0,0,1,.5.5A.5.5,0,0,1,311.48,205.23Z" fill="#231f20"/><path d="M311.48,217H282.4a.5.5,0,0,1-.5-.5.5.5,0,0,1,.5-.5h29.08a.5.5,0,0,1,.5.5A.5.5,0,0,1,311.48,217Z" fill="#231f20"/><path d="M311.48,228.8H282.4a.5.5,0,0,1-.5-.5.5.5,0,0,1,.5-.5h29.08a.5.5,0,0,1,.5.5A.5.5,0,0,1,311.48,228.8Z" fill="#231f20"/><rect x="286.67" y="89.43" width="20.53" height="4.72" fill="#231f20"/><path d="M307.2,94.66H286.67a.51.51,0,0,1-.5-.5V89.43a.51.51,0,0,1,.5-.5H307.2a.5.5,0,0,1,.5.5v4.73A.5.5,0,0,1,307.2,94.66Zm-20-1H306.7V89.93H287.17Z" fill="#231f20"/><rect x="252.44" y="187.2" width="3.78" height="1" fill="#d1d3d4"/><rect x="257.64" y="198.54" width="3.78" height="1" fill="#d1d3d4"/><rect x="251.97" y="209.88" width="3.78" height="1" fill="#d1d3d4"/><rect x="253.86" y="226.89" width="3.78" height="1" fill="#d1d3d4"/><rect x="218.9" y="240.46" width="113.07" height="11.02" fill="#68e1fd"/><path d="M332,251.94H218.9a.47.47,0,0,1-.46-.46v-11a.46.46,0,0,1,.46-.45H332a.45.45,0,0,1,.46.45v11A.46.46,0,0,1,332,251.94ZM219.36,251H331.52v-10.1H219.36Z" fill="#231f20"/><path d="M249.27,233.85s6.64-7.16,26.17-7.16,26.16,7.16,26.16,7.16Z" fill="#68e1fd"/><path d="M301.6,234.31H249.27a.48.48,0,0,1-.42-.27.46.46,0,0,1,.09-.5c.27-.3,7-7.3,26.5-7.3s26.22,7,26.5,7.3a.48.48,0,0,1,.08.5A.46.46,0,0,1,301.6,234.31Zm-51.1-.91h49.87c-2.38-1.82-9.73-6.25-24.93-6.25S252.88,231.58,250.5,233.4Z" fill="#231f20"/><path d="M296.29,241H254.58a.48.48,0,0,1-.4-.2l-4.82-6.61a.51.51,0,0,1,.41-.8H301.1a.51.51,0,0,1,.41.8l-4.81,6.61A.51.51,0,0,1,296.29,241Zm-41.45-1H296l4.08-5.61H250.75Z" fill="#231f20"/><path d="M263.88,240.78l-5-6.11-4.45,6.09-.81-.59,4.83-6.61a.5.5,0,0,1,.39-.21.56.56,0,0,1,.4.19l5.44,6.61Z" fill="#231f20"/><path d="M274.75,240.78l-5-6.11-4.45,6.09-.81-.59,4.83-6.61a.5.5,0,0,1,.39-.21.55.55,0,0,1,.4.19l5.44,6.61Z" fill="#231f20"/><path d="M285.62,240.78l-5-6.11-4.45,6.09-.81-.59,4.83-6.61a.5.5,0,0,1,.39-.21.53.53,0,0,1,.4.19l5.44,6.61Z" fill="#231f20"/><path d="M296.49,240.78l-5-6.11L287,240.76l-.8-.59,4.82-6.61a.51.51,0,0,1,.39-.21.55.55,0,0,1,.4.19l5.44,6.61Z" fill="#231f20"/><path d="M231.34,251.5l-1,0a101.36,101.36,0,0,0,.08-10.76.45.45,0,0,0,.41.26v-1l.39.17C231.39,240.3,231.77,240.7,231.34,251.5Z" fill="#231f20"/><path d="M246.18,251.5l-1,0a98.54,98.54,0,0,0,.08-10.76.46.46,0,0,0,.42.26v-1l.38.17C246.22,240.3,246.61,240.7,246.18,251.5Z" fill="#231f20"/><path d="M261,251.5l-1,0a98.54,98.54,0,0,0,.08-10.76.46.46,0,0,0,.42.26v-1l.38.17C261.06,240.3,261.44,240.7,261,251.5Z" fill="#231f20"/><path d="M275.84,251.5l-1,0a98.54,98.54,0,0,0,.08-10.76.46.46,0,0,0,.42.26v-1l.38.17C275.89,240.3,276.27,240.7,275.84,251.5Z" fill="#231f20"/><path d="M290.67,251.5l-1,0a102.49,102.49,0,0,0,.09-10.76.43.43,0,0,0,.41.26v-1l.39.17C290.72,240.3,291.1,240.7,290.67,251.5Z" fill="#231f20"/><path d="M305.5,251.5l-1,0a99.61,99.61,0,0,0,.09-10.76.43.43,0,0,0,.41.26v-1l.39.17C305.55,240.3,305.93,240.7,305.5,251.5Z" fill="#231f20"/><path d="M320.33,251.5l-1,0a99.61,99.61,0,0,0,.09-10.76.45.45,0,0,0,.41.26v-1l.39.17C320.38,240.3,320.76,240.7,320.33,251.5Z" fill="#231f20"/><rect x="218.9" y="243.27" width="113.07" height="1" fill="#231f20"/><path d="M341,252.42H59a.5.5,0,0,1-.5-.5.5.5,0,0,1,.5-.5H341a.5.5,0,0,1,.5.5A.5.5,0,0,1,341,252.42Z" fill="#231f20"/></g></svg>