<svg xmlns="http://www.w3.org/2000/svg" viewBox="0 0 400 300"><g id="_443_washing_hands_flatline" data-name="#443_washing_hands_flatline"><path d="M190.19,150a81.09,81.09,0,0,1-14.29,46.05q-1.82,2.64-3.84,5.12a81.06,81.06,0,0,1-11,11.17,81.89,81.89,0,0,1-15.88,10.44q-3.31,1.65-6.79,3a81.35,81.35,0,0,1-28.64,5.53h-.92a81.89,81.89,0,0,1-12.4-1c-.8-.13-1.61-.25-2.41-.41-.53-.1-1.07-.19-1.59-.31q-3.21-.64-6.31-1.55c-1.53-.44-3-.93-4.52-1.45a83.22,83.22,0,0,1-8.42-3.55,80.78,80.78,0,0,1-11.38-6.75q-3.06-2.18-5.89-4.61c-.83-.7-1.63-1.44-2.43-2.18s-1.53-1.44-2.26-2.18c-.35-.34-.68-.68-1-1a78.91,78.91,0,0,1-6.69-7.92c-.51-.67-1-1.35-1.48-2a81.34,81.34,0,1,1,147.76-54.24C190.06,144.76,190.19,147.36,190.19,150Z" fill="#fff"/><path d="M108.85,231.84a81,81,0,0,1-12.47-1c-.82-.12-1.63-.25-2.44-.41l-.15,0-1.45-.28c-2.14-.43-4.27-1-6.34-1.56-1.46-.42-3-.9-4.54-1.46A85.48,85.48,0,0,1,73,223.57a80.31,80.31,0,0,1-11.45-6.8c-2-1.41-4-3-5.92-4.63-.73-.62-1.51-1.31-2.45-2.19s-1.57-1.48-2.28-2.2l-1-1a81.78,81.78,0,0,1-6.74-8c-.5-.67-1-1.36-1.48-2.06A81.51,81.51,0,0,1,27,150a81.84,81.84,0,0,1,163.3-7.86c.25,2.61.38,5.25.38,7.86a81.55,81.55,0,0,1-14.38,46.33c-1.21,1.77-2.51,3.51-3.86,5.16a82.54,82.54,0,0,1-27,21.74c-2.28,1.13-4.58,2.16-6.83,3a84.35,84.35,0,0,1-11.66,3.56,82.14,82.14,0,0,1-17.16,2Zm0-162.68A80.86,80.86,0,0,0,33.76,180a79.59,79.59,0,0,0,8.72,16.16c.47.69,1,1.37,1.46,2A78.35,78.35,0,0,0,50.59,206l1,1c.7.7,1.45,1.43,2.25,2.17s1.7,1.55,2.42,2.16c1.91,1.64,3.87,3.18,5.85,4.58a79.24,79.24,0,0,0,11.31,6.71,82,82,0,0,0,8.37,3.53c1.57.55,3,1,4.49,1.44,2,.6,4.15,1.11,6.27,1.54.48.11,1,.19,1.42.28l.16,0c.8.15,1.6.28,2.4.41a81.53,81.53,0,0,0,12.32.94c.34,0,.6,0,.9,0a80.86,80.86,0,0,0,28.48-5.5c2.22-.87,4.49-1.88,6.75-3A81.67,81.67,0,0,0,160.75,212a80.6,80.6,0,0,0,10.92-11.1c1.33-1.63,2.62-3.34,3.82-5.1A80.63,80.63,0,0,0,189.69,150c0-2.57-.13-5.19-.37-7.77a80.85,80.85,0,0,0-80.47-73.07Z" fill="#231f20"/><path d="M92.91,203.05l-32.33-7.8s13.69-28.62,15-32.09S63.22,130.65,61.91,127s.87-4.55,3.69-3,8.89,8.42,15,17.87c0,0,34.08-25.7,39.18-27.74s7.64.11,7,2.93c0,0,3.25-2.17,4.77,1.3a8.17,8.17,0,0,1,0,6.5s2.39.22,2.17,3.47a9.37,9.37,0,0,1-1.52,4.9s1.76.09,1.53,2.69S114,160,109.39,166.63,98.77,182.46,92.91,203.05Z" fill="#fff"/><path d="M92.91,203.55H92.8l-32.34-7.81a.49.49,0,0,1-.34-.27.5.5,0,0,1,0-.43c.13-.28,13.7-28.63,15-32,.91-2.41-7-20.45-10.78-29.11-1.48-3.38-2.55-5.81-2.88-6.75-.81-2.32-.28-3.41.32-3.92.87-.75,2.36-.65,4.08.28,3.14,1.69,9.21,8.88,14.85,17.58,4.14-3.11,34-25.53,38.87-27.47,3.92-1.57,5.87-.63,6.68.06a3.16,3.16,0,0,1,1.09,2.47,4,4,0,0,1,2.45-.19,3.52,3.52,0,0,1,2.18,2.15,8.73,8.73,0,0,1,.22,6.37c.83.33,2.16,1.25,2,3.84a10.9,10.9,0,0,1-1.25,4.58,2.19,2.19,0,0,1,.64.5,3.23,3.23,0,0,1,.62,2.51c-.14,1.58-5.2,7.71-13.52,17.62-4.62,5.5-9,10.7-10.86,13.41-3.86,5.56-10.33,14.88-16.4,36.27A.51.51,0,0,1,92.91,203.55Zm-31.62-8.64,31.27,7.54c6.09-21.22,12.55-30.53,16.42-36.1,1.91-2.75,6.28-8,10.91-13.48,5.87-7,13.17-15.69,13.29-17.06a2.4,2.4,0,0,0-.36-1.76,1.18,1.18,0,0,0-.7-.39.48.48,0,0,1-.42-.29.49.49,0,0,1,.06-.51,9.11,9.11,0,0,0,1.41-4.63c.18-2.65-1.52-2.92-1.72-2.94a.51.51,0,0,1-.39-.26.53.53,0,0,1,0-.46,7.73,7.73,0,0,0,0-6.08,2.59,2.59,0,0,0-1.55-1.59,3.47,3.47,0,0,0-2.48.51.5.5,0,0,1-.56,0,.51.51,0,0,1-.21-.52,2.36,2.36,0,0,0-.65-2.46c-1.09-.93-3.16-.9-5.66.11-5,2-38.73,27.41-39.07,27.67a.53.53,0,0,1-.39.09.52.52,0,0,1-.33-.22c-6.29-9.79-12.19-16.31-14.78-17.7-1.29-.7-2.42-.85-3-.4s-.51,1.46,0,2.83c.32.9,1.43,3.45,2.84,6.68,6,13.69,11.78,27.28,10.81,29.86C74.83,166.56,63.26,190.79,61.29,194.91Z" fill="#231f20"/><path d="M84.24,155.84h0a.5.5,0,0,1-.49-.52,14.92,14.92,0,0,0-2.36-9,7.2,7.2,0,0,1-.65-1.24.51.51,0,0,1,.32-.63.49.49,0,0,1,.63.32,6.25,6.25,0,0,0,.56,1,15.87,15.87,0,0,1,2.5,9.53A.5.5,0,0,1,84.24,155.84Z" fill="#d1d3d4"/><path d="M104.08,137.54a.48.48,0,0,1-.39-.19.5.5,0,0,1,.08-.7c6.56-5.23,19.33-15.6,20.67-17.36,1.61-2.12,1.84-2.52,1.85-2.54a.51.51,0,0,1,.67-.2.5.5,0,0,1,.22.66,27.36,27.36,0,0,1-2,2.68c-1.75,2.3-20.06,16.92-20.84,17.54A.45.45,0,0,1,104.08,137.54Z" fill="#231f20"/><path d="M117.3,139.06a.51.51,0,0,1-.39-.19.49.49,0,0,1,.08-.7,107.81,107.81,0,0,0,14.13-13.7.49.49,0,0,1,.7-.06.5.5,0,0,1,.07.7A109,109,0,0,1,117.61,139,.51.51,0,0,1,117.3,139.06Z" fill="#231f20"/><path d="M122,144.48a.48.48,0,0,1-.4-.2.5.5,0,0,1,.1-.7c4-3,10-10.65,10-10.72a.5.5,0,0,1,.79.61c-.25.32-6.11,7.82-10.23,10.91A.49.49,0,0,1,122,144.48Z" fill="#231f20"/><path d="M138,209.12s-12.35-26.88-23.19-31.87-16.91-5.63-28.4-10.83S61.05,155.14,60.61,153s2.82-3.47,15.18,0,15.61,4.33,15.61,4.33S75.79,128.7,72.54,122.19s-4.77-10.4-2-11.7,5.2,1.3,5.2,1.3-3-5.42.87-6.51,6.07,3,6.07,3a3.17,3.17,0,0,1,3.68-1.52A11.07,11.07,0,0,1,91,109.4a3.81,3.81,0,0,1,4.77-.21c2.82,1.73,28,28.18,36.85,39.88s27.75,35.77,27.75,35.77Z" fill="#fff"/><path d="M138,209.62h-.07a.48.48,0,0,1-.38-.28c-.12-.27-12.4-26.77-23-31.62a124.47,124.47,0,0,0-13.91-5.32,139.08,139.08,0,0,1-14.49-5.52l-3.08-1.39c-14-6.33-22.58-10.33-23-12.41a1.89,1.89,0,0,1,.55-1.82c1.67-1.55,6.8-1.13,15.25,1.24s12.68,3.54,14.48,4c-2.83-5.18-15.44-28.37-18.31-34.1-2.69-5.38-4-8.68-3.29-10.72A2.85,2.85,0,0,1,70.38,110a4.58,4.58,0,0,1,4.21.23,5.56,5.56,0,0,1-.16-3.73,3,3,0,0,1,2.09-1.73c3.21-.89,5.36,1.43,6.22,2.62a3.68,3.68,0,0,1,3.79-1.1A11.26,11.26,0,0,1,91,108.75a4.35,4.35,0,0,1,5,0c3,1.85,28.37,28.66,37,40,8.79,11.57,27.56,35.52,27.75,35.76a.5.5,0,0,1,0,.65l-22.33,24.28A.51.51,0,0,1,138,209.62ZM64.23,151.34c-1.84,0-2.58.37-2.88.64a.92.92,0,0,0-.25.9c.35,1.72,13.11,7.48,22.44,11.69L86.62,166A136.81,136.81,0,0,0,101,171.44a127.35,127.35,0,0,1,14,5.36c10,4.62,21.08,27.12,23.12,31.43l21.54-23.41c-2.32-3-19.27-24.62-27.49-35.44-9.17-12.07-34.11-38.16-36.72-39.77a3.33,3.33,0,0,0-4.16.15.5.5,0,0,1-.7,0,10.55,10.55,0,0,0-4.32-2.47,2.66,2.66,0,0,0-3.12,1.25.49.49,0,0,1-.44.28.46.46,0,0,1-.45-.27c-.08-.15-2-3.75-5.49-2.78a2,2,0,0,0-1.44,1.15c-.72,1.73.86,4.59.88,4.62a.51.51,0,0,1-.81.59c-.09-.1-2.18-2.32-4.62-1.19A1.86,1.86,0,0,0,69.74,112c-.65,1.88,1.16,5.77,3.24,9.94,3.21,6.42,18.7,34.82,18.86,35.1a.52.52,0,0,1,0,.55.48.48,0,0,1-.52.17s-3.4-.9-15.62-4.33C69.81,151.82,66.32,151.34,64.23,151.34Z" fill="#231f20"/><path d="M92.7,137.87a.51.51,0,0,1-.42-.23L75.37,112.06a.5.5,0,0,1,.14-.69.51.51,0,0,1,.7.14l16.9,25.58a.49.49,0,0,1-.14.69A.46.46,0,0,1,92.7,137.87Z" fill="#231f20"/><path d="M100.29,134.62a.51.51,0,0,1-.42-.22L82.31,108.6a.5.5,0,0,1,.83-.56l17.56,25.79a.51.51,0,0,1-.41.79Z" fill="#231f20"/><path d="M107,130.28a.53.53,0,0,1-.4-.19l-16-20.38a.5.5,0,0,1,.08-.7.52.52,0,0,1,.71.08l16,20.38a.5.5,0,0,1-.09.7A.5.5,0,0,1,107,130.28Z" fill="#231f20"/><path d="M98.05,192.14l-11.91,36c-1.53-.44-3-.93-4.52-1.45a83.22,83.22,0,0,1-8.42-3.55,80.78,80.78,0,0,1-11.38-6.75q-3.06-2.18-5.89-4.61c-.83-.7-1.63-1.44-2.43-2.18s-1.53-1.44-2.26-2.18L65.58,178Z" fill="#68e1fd"/><path d="M86.14,228.62l-.13,0c-1.47-.42-3-.9-4.55-1.46A85.48,85.48,0,0,1,73,223.57a80.31,80.31,0,0,1-11.45-6.8c-2-1.41-4-3-5.92-4.63-.73-.62-1.51-1.31-2.45-2.19s-1.57-1.48-2.28-2.2a.49.49,0,0,1-.09-.57l14.34-29.39a.5.5,0,0,1,.65-.24l32.47,14.13a.5.5,0,0,1,.28.62l-11.91,36A.5.5,0,0,1,86.14,228.62ZM51.84,207.3c.63.63,1.3,1.27,2,1.92.93.86,1.7,1.55,2.42,2.16,1.91,1.64,3.87,3.18,5.85,4.58a79.24,79.24,0,0,0,11.31,6.71,82,82,0,0,0,8.37,3.53c1.41.49,2.73.92,4,1.31l11.61-35.09L65.82,178.66Z" fill="#231f20"/><path d="M172.06,201.17a81.06,81.06,0,0,1-11,11.17,81.89,81.89,0,0,1-15.88,10.44q-3.31,1.65-6.79,3C133.08,211.71,127.08,195,127.08,195l25.3-25.24Z" fill="#68e1fd"/><path d="M138.41,226.3a.45.45,0,0,1-.2,0,.53.53,0,0,1-.27-.28c-5.27-13.94-11.27-30.62-11.33-30.79a.5.5,0,0,1,.12-.52L152,169.43a.48.48,0,0,1,.41-.14.48.48,0,0,1,.37.23l19.67,31.39a.5.5,0,0,1,0,.58,82.54,82.54,0,0,1-27,21.74c-2.28,1.13-4.58,2.16-6.83,3Zm-10.75-31.15c.82,2.29,6.2,17.2,11,30,2.07-.83,4.18-1.77,6.28-2.82a81.6,81.6,0,0,0,26.47-21.19l-19.16-30.56Z" fill="#231f20"/><path d="M159.74,133.83l-.13,0a.5.5,0,0,1-.36-.6c.07-.26,6.25-25.79-13.65-36.45s-37.22,4.89-37.4,5a.5.5,0,0,1-.7,0,.5.5,0,0,1,0-.71c.17-.16,18-16.21,38.54-5.19s14.22,37.31,14.15,37.57A.5.5,0,0,1,159.74,133.83Z" fill="#d1d3d4"/><path d="M159.61,134.51h-.1a.51.51,0,0,1-.34-.25l-4.94-9.32a.51.51,0,0,1,.21-.68.5.5,0,0,1,.68.21l4.66,8.79,6.73-5.29a.49.49,0,0,1,.7.08.5.5,0,0,1-.08.7l-7.21,5.67A.5.5,0,0,1,159.61,134.51Z" fill="#d1d3d4"/><path d="M372.49,150a81,81,0,0,1-15.41,47.63,81.8,81.8,0,0,1-30.4,25.55A79.58,79.58,0,0,1,316,227.46c-2.26.73-4.56,1.35-6.9,1.88a81.22,81.22,0,0,1-17.05,2h-.92a81.89,81.89,0,0,1-12.4-1c-.81-.13-1.61-.25-2.41-.41s-1.31-.24-2-.39a78.13,78.13,0,0,1-10.46-2.92,83.22,83.22,0,0,1-8.42-3.55,80.45,80.45,0,0,1-19.7-13.54q-1.7-1.54-3.27-3.2a78.91,78.91,0,0,1-6.69-7.92c-.51-.67-1-1.35-1.48-2a81.34,81.34,0,1,1,147.75-54.24C372.36,144.76,372.49,147.36,372.49,150Z" fill="#fff"/><path d="M291.15,231.84a80.86,80.86,0,0,1-12.47-1c-.82-.12-1.63-.25-2.44-.41-.65-.12-1.31-.24-2-.39a79.46,79.46,0,0,1-10.52-2.94,86.32,86.32,0,0,1-8.47-3.57A81.65,81.65,0,0,1,235.46,210c-1.13-1-2.23-2.12-3.29-3.23a81.44,81.44,0,0,1-6.74-8c-.5-.67-1-1.36-1.48-2.06A81.51,81.51,0,0,1,209.31,150a81.84,81.84,0,0,1,163.3-7.86c.25,2.61.38,5.26.38,7.86a82,82,0,0,1-46.09,73.63,79.8,79.8,0,0,1-10.73,4.3c-2.23.72-4.56,1.36-6.94,1.9a82.22,82.22,0,0,1-17.16,2Zm0-162.68A80.86,80.86,0,0,0,216.06,180a79.78,79.78,0,0,0,8.71,16.16c.48.69,1,1.37,1.47,2a79.48,79.48,0,0,0,6.65,7.87c1,1.09,2.14,2.16,3.24,3.19a81.67,81.67,0,0,0,8.28,6.74,79.24,79.24,0,0,0,11.31,6.71,82,82,0,0,0,8.37,3.53,78.59,78.59,0,0,0,10.39,2.9c.65.15,1.3.27,1.94.39.81.15,1.61.28,2.41.41a81.43,81.43,0,0,0,12.32.94h.9a81.57,81.57,0,0,0,17-2c2.35-.53,4.65-1.16,6.86-1.87a79.07,79.07,0,0,0,10.59-4.25A80.11,80.11,0,0,0,343.05,212a81.11,81.11,0,0,0,13.62-14.63A80.51,80.51,0,0,0,372,150c0-2.57-.13-5.19-.37-7.77a80.85,80.85,0,0,0-80.47-73.07Z" fill="#231f20"/><path d="M281.33,193.64s1.95-20.19.06-23.44-24.51-15.91-29.74-19.74-14.44-8.1-14.17-10.49,1.65-3.86,5.12-2.46,24.64,12.7,28,12.06-20.86-28.23-22.83-30.48-1.92-6.28.9-6.16,28,29,29.44,29.2-14.7-37.44-14.18-39.6,2.45-5,4.29-3.36,18.24,37,19.71,36.59-5.9-35.43-4.74-36.71,5.37-2.22,6.22.7,9.63,35.45,10.1,36.92,6.38,1.13,6.87.37,1.35-10.15,3.66-12.72,7.33-5.84,8.68-3.46-2.54,6.38-2.73,11.61,1.63,15.95-1.64,21.65-5,42.68-5,42.68Z" fill="#fff"/><path d="M309.27,197.3h-.06l-27.94-3.16a.5.5,0,0,1-.44-.55c.54-5.57,1.61-20.59.13-23.14-1.16-2-11.55-8.33-19.14-13-4.61-2.82-8.59-5.25-10.46-6.62s-4-2.62-6.1-3.91c-5.27-3.19-8.49-5.24-8.28-7.05a3.8,3.8,0,0,1,1.61-3c1-.6,2.43-.55,4.2.17,1,.39,3.21,1.5,6.05,2.9,6.69,3.3,19.07,9.43,21.53,9.14.09-1.89-9.5-14.25-23-29.67a5.55,5.55,0,0,1-1.15-5.57,2.44,2.44,0,0,1,2.44-1.42c1.75.07,8.84,7.51,19.46,18.86,3.8,4.06,7.71,8.24,9.37,9.77-.77-2.72-3.83-10.53-6.58-17.53-5.3-13.51-7.76-20-7.5-21.12.41-1.7,1.57-3.67,3-4.12a2.08,2.08,0,0,1,2.1.51c.83.74,3.75,6.52,8.44,15.89,3.82,7.64,8.93,17.84,10.64,20.16,0-2.44-1.41-10.88-2.58-17.81-2.29-13.58-2.86-17.63-2.23-18.33a5.5,5.5,0,0,1,4.73-1.28,3,3,0,0,1,2.34,2.18c.38,1.33,2.38,8.67,4.5,16.45,2.5,9.22,5.34,19.66,5.6,20.46,0,.11.26.29.78.43,1.72.48,4.81.15,5.21-.21.08-.17.29-1.32.49-2.44.59-3.35,1.5-8.42,3.2-10.31s5.45-4.69,7.83-4.44a2.11,2.11,0,0,1,1.66,1.06c.82,1.45,0,3.28-.86,5.39a18.3,18.3,0,0,0-1.81,6.49c-.05,1.36,0,3.15.14,5,.28,5.57.64,12.51-1.85,16.84-3.17,5.52-5,42.09-5,42.46a.5.5,0,0,1-.18.35A.47.47,0,0,1,309.27,197.3Zm-27.4-4.1,26.92,3.05c.24-4.75,2-37,5.08-42.38,2.33-4.07,2-10.85,1.71-16.29-.1-1.92-.19-3.73-.14-5.13a19.48,19.48,0,0,1,1.89-6.84c.83-2,1.48-3.49.91-4.51a1.11,1.11,0,0,0-.9-.56c-1.76-.19-5.09,2-7,4.11-1.51,1.68-2.42,6.78-3,9.83a11.08,11.08,0,0,1-.65,2.84c-.58.89-3.86,1-5.38.78s-2.17-.61-2.38-1.27c-.27-.82-3-10.83-5.62-20.51-2.11-7.77-4.11-15.11-4.49-16.43a2.05,2.05,0,0,0-1.61-1.49,4.59,4.59,0,0,0-3.76,1c-.32.92,1.23,10.11,2.48,17.49,2.91,17.27,3,19.09,2,19.37s-2.49-2.16-12-21.1c-3.51-7-7.48-15-8.21-15.59a1.14,1.14,0,0,0-1.14-.31c-1,.32-2,2-2.33,3.4-.14,1.15,4.07,11.89,7.45,20.53,6.55,16.68,7.15,18.65,6.69,19.24a.6.6,0,0,1-.51.22c-.66-.08-2.73-2.21-10.63-10.66-6.86-7.32-17.21-18.39-18.77-18.54a1.47,1.47,0,0,0-1.5.85,4.59,4.59,0,0,0,1,4.48c7.29,8.32,24.15,28,23.2,30.74a.85.85,0,0,1-.66.56c-2.38.46-11.88-4.1-22.24-9.21-2.83-1.4-5.06-2.5-6-2.87-1.47-.6-2.59-.67-3.32-.24A2.86,2.86,0,0,0,238,140c-.14,1.27,4.27,3.94,7.81,6.08,2.16,1.31,4.39,2.66,6.17,4s5.8,3.77,10.4,6.57c8.52,5.21,18.19,11.12,19.47,13.32C283.63,173.06,282.2,189.62,281.87,193.2Z" fill="#231f20"/><path d="M316,227.46c-2.26.73-4.56,1.35-6.9,1.88a81.22,81.22,0,0,1-17.05,2h-.92a81.89,81.89,0,0,1-12.4-1c-.81-.13-1.61-.25-2.41-.41s-1.31-.24-2-.39l3.46-38.89,3.71.33,24.84,2.19,3.05.27.5,0h0l3.79.33.23,3.39.54,8Z" fill="#68e1fd"/><path d="M291.15,231.84a80.86,80.86,0,0,1-12.47-1c-.82-.12-1.63-.25-2.44-.41-.65-.12-1.31-.24-2-.39a.5.5,0,0,1-.39-.53l3.46-38.9a.48.48,0,0,1,.18-.34.52.52,0,0,1,.36-.11L310,193l.1,0,3.7.33a.49.49,0,0,1,.46.46l2.28,33.58a.5.5,0,0,1-.35.51c-2.23.72-4.56,1.36-6.94,1.9a82.22,82.22,0,0,1-17.16,2Zm-16.23-2.64,1.5.29c.81.15,1.61.28,2.41.41a81.43,81.43,0,0,0,12.32.94h.9a81.57,81.57,0,0,0,17-2c2.22-.5,4.4-1.09,6.49-1.75l-2.23-32.77L309.9,194l-.08,0-3.47-.3-28.06-2.48Z" fill="#231f20"/><path d="M315.28,198.5s-20.21-19.17-27.35-23a19.18,19.18,0,0,0-4.76-1.7c-1.47-.34-2.52,0-4,0a24.19,24.19,0,0,1-10.11-2.2,14.28,14.28,0,0,0-2.41-1c-2.8-.69-7.19,1.14-9.41-1.36a3.24,3.24,0,0,1-.26-3.65,5.36,5.36,0,0,1,3-2.34c2.6-.9,5.43-.68,8.12-1,1.63-.21,4.44-.57,4.9-2.53.79-3.35-1.47-6.64-7.47-10.76s-7.66-9.15-3.71-10.12,6.76,2.79,9.18,1-2.27-6.72-2.77-9.41.21-5.43,4.11-6,7.22,9.51,8.79,9.89,3-.06,3-1.68-3.77-13.16-2.06-14,4.22-.94,5,.57,6.34,11.48,8.93,11.85,3-3,7-2.57,6.47,5.38,8.16,10,6.4,20.33,10.27,25.41,12.68,14.78,12.68,14.78Z" fill="#fff"/><path d="M315.28,199a.51.51,0,0,1-.34-.14c-.2-.19-20.24-19.17-27.25-22.93a18.35,18.35,0,0,0-4.63-1.65,6.82,6.82,0,0,0-2.42-.05,12.69,12.69,0,0,1-1.44.1,24.41,24.41,0,0,1-10.33-2.24l-.44-.2a10.47,10.47,0,0,0-1.88-.74,12.06,12.06,0,0,0-3.38-.07c-2.2.15-4.71.32-6.29-1.45a3.74,3.74,0,0,1-.32-4.22,5.81,5.81,0,0,1,3.29-2.57,20.06,20.06,0,0,1,5.52-.83c.89,0,1.82-.1,2.7-.22,1.53-.19,4.1-.52,4.48-2.15.73-3.12-1.51-6.27-7.27-10.22-4.11-2.82-6.47-6.21-6-8.66a3,3,0,0,1,2.47-2.36,8.42,8.42,0,0,1,5.4.8c1.61.65,2.65,1,3.61.32,1.12-.81.16-2.71-1.31-5.3a13.27,13.27,0,0,1-1.66-3.62,5.78,5.78,0,0,1,.72-4.54,5.4,5.4,0,0,1,3.81-2c2.82-.42,5.12,3.63,7,6.87.69,1.22,1.64,2.9,2,3a2.39,2.39,0,0,0,2-.2,1.15,1.15,0,0,0,.4-1,32.58,32.58,0,0,0-.8-3.63c-1.74-7-2.3-10.17-1-10.8,2-1,4.76-.94,5.68.78,2.49,4.66,6.79,11.34,8.56,11.59.94.14,1.51-.33,2.29-1a5.54,5.54,0,0,1,4.66-1.59c4.48.51,7,6.15,8.57,10.34.35,1,.83,2.38,1.4,4.09,2.16,6.44,5.77,17.22,8.79,21.2,3.82,5,12.57,14.65,12.66,14.74a.51.51,0,0,1,0,.68l-18.86,19.7A.49.49,0,0,1,315.28,199Zm-33.4-25.85a6.43,6.43,0,0,1,1.4.15,19.24,19.24,0,0,1,4.89,1.75c6.68,3.59,24.26,20.07,27.1,22.74l18.19-19c-1.6-1.78-9-10-12.39-14.46-3.13-4.11-6.77-15-8.95-21.49-.56-1.7-1-3.11-1.39-4.06-1.44-3.95-3.82-9.25-7.75-9.7a4.62,4.62,0,0,0-3.9,1.37,3.69,3.69,0,0,1-3.07,1.2c-3-.42-8.67-10.91-9.3-12.1s-2.76-1.13-4.37-.36c-.75.63.83,7,1.51,9.66a28.18,28.18,0,0,1,.83,3.86,2.15,2.15,0,0,1-.77,1.79,3.38,3.38,0,0,1-2.87.38c-.74-.18-1.42-1.32-2.65-3.49-1.6-2.83-3.8-6.69-5.94-6.39a4.48,4.48,0,0,0-3.15,1.64,5,5,0,0,0-.55,3.78,13.36,13.36,0,0,0,1.55,3.31c1.38,2.44,3,5.21,1,6.6-1.46,1-3,.44-4.57-.2a7.54,7.54,0,0,0-4.79-.76,2,2,0,0,0-1.73,1.57c-.29,1.63,1.33,4.72,5.6,7.65,6.15,4.22,8.52,7.7,7.68,11.28-.54,2.31-3.65,2.7-5.33,2.92-.91.11-1.85.16-2.76.22a19.21,19.21,0,0,0-5.25.77,4.86,4.86,0,0,0-2.74,2.11,2.78,2.78,0,0,0,.19,3.08c1.25,1.4,3.4,1.25,5.48,1.11a12.39,12.39,0,0,1,3.68.1,11.58,11.58,0,0,1,2.06.8l.43.2a23.39,23.39,0,0,0,9.91,2.15c.48,0,.92-.05,1.35-.09A11.44,11.44,0,0,1,281.88,173.15Z" fill="#231f20"/><path d="M357.08,197.63a81.8,81.8,0,0,1-30.4,25.55l-12.17-18-5.74-8.48-2.38-3.52-.13-.19,1.55-1.44,1.85-1.7,18.87-17.39,1.76-1.62Z" fill="#68e1fd"/><path d="M326.68,223.68a.49.49,0,0,1-.41-.22l-20.42-30.15a.48.48,0,0,1,.07-.65l24-22.14a.5.5,0,0,1,.69,0l26.79,26.74a.5.5,0,0,1,.05.65,82.07,82.07,0,0,1-30.58,25.71A.54.54,0,0,1,326.68,223.68ZM306.91,193.1l19.94,29.44A80.34,80.34,0,0,0,343.05,212a81.15,81.15,0,0,0,13.37-14.28l-26.15-26.1Z" fill="#231f20"/><path d="M258.75,197.47a.54.54,0,0,1-.27-.07c-26.93-17.3-29.75-43.72-29.71-54.27v-.53a.5.5,0,1,1,1,0v.55c0,10.39,2.73,36.4,29.25,53.42a.5.5,0,0,1,.15.69A.48.48,0,0,1,258.75,197.47Z" fill="#d1d3d4"/><path d="M258.75,197.47h0l-9.13-.84a.5.5,0,0,1-.46-.54.52.52,0,0,1,.55-.46l8.5.79L257,188.15a.51.51,0,0,1,.43-.57.49.49,0,0,1,.56.43l1.28,8.89a.51.51,0,0,1-.14.42A.48.48,0,0,1,258.75,197.47Z" fill="#d1d3d4"/><path d="M350.68,144.81a.5.5,0,0,1-.49-.41l-.09-.53c-1.68-10.26-8.71-35.45-37.68-47.86a.5.5,0,1,1,.4-.91c29.42,12.6,36.56,38.19,38.27,48.61,0,.22.06.39.09.51a.51.51,0,0,1-.4.59Z" fill="#d1d3d4"/><path d="M315.34,104.62a.5.5,0,0,1-.47-.35l-2.73-8.56a.56.56,0,0,1,.06-.44.52.52,0,0,1,.38-.21l9.14-.68a.49.49,0,0,1,.54.46.5.5,0,0,1-.46.53l-8.51.64,2.53,8a.49.49,0,0,1-.32.62A.45.45,0,0,1,315.34,104.62Z" fill="#d1d3d4"/></g></svg>