<svg xmlns="http://www.w3.org/2000/svg" viewBox="0 0 400 300"><g id="_439_washing_hands_flatline" data-name="#439_washing_hands_flatline"><path d="M303.35,225.56c28.71-66.66,28.71-123,28.71-123H68.21s-4.95,66.52,27.15,126c6,11,16.57,17.76,28,17.76H273.91C286.42,246.28,297.89,238.26,303.35,225.56Z" fill="#e6e7e8"/><path d="M273.91,246.78H123.37c-11.55,0-22.45-6.91-28.45-18-31.8-58.93-27.25-125.61-27.2-126.27a.5.5,0,0,1,.49-.47H332.06a.51.51,0,0,1,.35.15.47.47,0,0,1,.15.35c0,.57-.33,57.25-28.75,123.23C298.32,238.53,286.58,246.78,273.91,246.78ZM68.68,103c-.34,6-3.14,69.18,27.12,125.27,5.82,10.79,16.39,17.49,27.57,17.49H273.91c12.27,0,23.65-8,29-20.42,26.9-62.49,28.56-116.59,28.65-122.34Z" fill="#231f20"/><path d="M282.94,203.81H117.06c-6.47,0-12.32-4.32-14.9-11L69.4,107.91C64.72,95.8,72.59,82.26,84.29,82.26H315.71c11.7,0,19.57,13.54,14.89,25.65L297.84,192.8C295.25,199.49,289.4,203.81,282.94,203.81Z" fill="#fff"/><path d="M282.94,204.31H117.06c-6.68,0-12.71-4.45-15.36-11.33L68.93,108.09a20.51,20.51,0,0,1,2.11-19,16,16,0,0,1,13.25-7.32H315.71A16,16,0,0,1,329,89.07a20.51,20.51,0,0,1,2.11,19L298.3,193C295.64,199.86,289.61,204.31,282.94,204.31ZM84.29,82.75a15,15,0,0,0-12.42,6.88,19.53,19.53,0,0,0-2,18.1l32.77,84.89c2.51,6.5,8.17,10.69,14.43,10.69H282.94c6.26,0,11.92-4.19,14.43-10.69l32.77-84.89a19.56,19.56,0,0,0-2-18.1,15,15,0,0,0-12.42-6.88Z" fill="#231f20"/><path d="M315.83,111.88l-5.6,13.44-23.46,56.34a14.42,14.42,0,0,1-13.21,9.05H126.44a14.42,14.42,0,0,1-13.21-9.05L89.77,125.32l-5.6-13.44c-4.15-10,2.82-21.1,13.21-21.1H302.62C313,90.78,320,101.92,315.83,111.88Z" fill="#231f20"/><path d="M273.56,191.25H126.44a15,15,0,0,1-13.71-9.39l-29-69.78a16.08,16.08,0,0,1,1.44-15.15,14.57,14.57,0,0,1,12.26-6.68H302.62a14.57,14.57,0,0,1,12.26,6.68,16.08,16.08,0,0,1,1.44,15.15h0l-29.05,69.78A15,15,0,0,1,273.56,191.25ZM97.38,91.32A13.52,13.52,0,0,0,86,97.53a15,15,0,0,0-1.34,14.14l29.05,69.78a13.87,13.87,0,0,0,12.72,8.72H273.56a13.89,13.89,0,0,0,12.72-8.72l29.05-69.78A15,15,0,0,0,314,97.53a13.52,13.52,0,0,0-11.37-6.21Zm218.45,20.56h0Z" fill="#231f20"/><path d="M310.2,125.33l.05,0c-8.56,18.19-15.72,37.59-23.5,56.3a14.44,14.44,0,0,1-13.22,9.05H126.41a14.42,14.42,0,0,1-13.21-9.05L89.75,125.32a13.76,13.76,0,0,1,7.6-2.26c10.19,0,20.81,3.42,30.83,2.17,6.12-.77,11.93-3.71,18.08-4.22,8.56-.71,17.11,2.32,25.71,2.1s17,0,25.44,0c6.83,0,14-.76,20.74-.39,6.32.35,12.1,4.09,18.66,3.92,6.39-.17,12.49-3.25,18.88-3.49,4.33-.17,8.6,1,12.89,1.61C282.16,126.74,297.73,117.37,310.2,125.33Z" fill="#68e1fd"/><path d="M273.53,191.21H126.41a14.9,14.9,0,0,1-13.67-9.36L89.28,125.51a.51.51,0,0,1,.19-.61,14.37,14.37,0,0,1,7.88-2.34h0a95.56,95.56,0,0,1,13.14,1.23c5.85.81,11.9,1.65,17.61.94a51.72,51.72,0,0,0,8.47-2,47.75,47.75,0,0,1,9.64-2.17c4.63-.39,9.31.32,13.84,1a69.76,69.76,0,0,0,11.9,1.09c5.88-.15,11.86-.12,17.65-.08,2.6,0,5.2,0,7.8,0s5.56-.12,8.3-.24c4.12-.18,8.39-.37,12.47-.15a35.92,35.92,0,0,1,8.66,2c3.2,1,6.52,2.06,10,2a42,42,0,0,0,9.44-1.74,44.19,44.19,0,0,1,9.43-1.75,43.9,43.9,0,0,1,9.45,1c1.18.22,2.35.43,3.54.61C274,125,279.73,124,285.3,123c8.59-1.49,17.48-3,25.16,1.86h0l-.27.42.29-.41a.56.56,0,0,1,.22.66c-5.79,12.28-11,25.31-16.06,37.92-2.42,6-4.92,12.28-7.44,18.35A14.91,14.91,0,0,1,273.53,191.21ZM90.37,125.52l23.29,55.94a13.91,13.91,0,0,0,12.75,8.75H273.53a13.9,13.9,0,0,0,12.75-8.75c2.53-6.06,5-12.3,7.45-18.34,5-12.48,10.16-25.38,15.88-37.57-7.27-4.45-15.47-3-24.14-1.52-5.65,1-11.49,2-17,1.18-1.19-.18-2.38-.4-3.57-.61a43,43,0,0,0-9.23-1,42.73,42.73,0,0,0-9.21,1.72,42.8,42.8,0,0,1-9.68,1.77c-3.61.09-7-1-10.28-2a34.56,34.56,0,0,0-8.42-1.91c-4-.22-8.27,0-12.37.15-2.75.12-5.59.24-8.34.24-2.6,0-5.2,0-7.8,0-5.78,0-11.76-.07-17.63.08a69.57,69.57,0,0,1-12.07-1.11c-4.47-.67-9.09-1.36-13.61-1a47.32,47.32,0,0,0-9.43,2.14,52.66,52.66,0,0,1-8.63,2.07c-5.85.73-12-.12-17.88-.94a95.54,95.54,0,0,0-13-1.22h0A13.35,13.35,0,0,0,90.37,125.52Zm219.82-.19Z" fill="#231f20"/><path d="M153.55,252.75c3.84-15.82,12.8-51.46,16.69-56.55,5-6.58,23-9.45,31.73-16.35s27.58-24.16,28-32.29-24,10.74-24,10.74c12.7-12.48,23.88-26.12,20.4-28.41S197,152.2,197,152.2c14.51-14.8,26.41-28.15,22.35-31s-29,22.64-29,22.64c19.16-23.51,16.84-26.71,13.07-27.29s-36.87,35.7-36.87,35.7c7.26-18.57,5.81-30.18,0-26.12s-16.83,28.16-21.48,37.46c-4.29,8.61-42.39,78.67-48.13,89.21Z" fill="#fff"/><path d="M153.55,253.25H97a.5.5,0,0,1-.43-.24.52.52,0,0,1,0-.5c4.47-8.2,43.76-80.43,48.13-89.19.7-1.4,1.54-3.14,2.49-5.1,5.62-11.56,14.11-29,19.15-32.55,1.91-1.34,3.17-.94,3.89-.38,3.09,2.44,2.12,12.61-2.23,24.67,8.05-8.77,31.53-34,35.44-34h.12a3.22,3.22,0,0,1,2.8,1.84c.7,1.83.23,5.88-10.33,19.67,8-7.69,20.57-19,23.71-16.78a2.39,2.39,0,0,1,1,1.82c.28,3.15-3.69,9.06-13.32,19.55,7.76-6.79,17-14.12,19.27-12.64a2,2,0,0,1,.86,1.5c.39,4-7.71,13.87-16.66,23.14,6.1-4.31,15.63-10.39,18.64-8.81a2.21,2.21,0,0,1,1,2.29c-.5,8.8-21.06,27-28.22,32.65-4.12,3.26-10.22,5.61-16.12,7.88-6.65,2.56-12.93,5-15.53,8.38-3.86,5.05-12.9,41.1-16.6,56.37A.51.51,0,0,1,153.55,253.25Zm-55.76-1h55.37c4.64-19.09,12.88-51.38,16.68-56.35,2.78-3.63,9.19-6.1,16-8.71,5.83-2.24,11.85-4.57,15.85-7.73,8.9-7.05,27.41-24.12,27.85-31.93.06-1-.37-1.27-.51-1.34-2.83-1.49-15.14,6.66-22.73,12.51a.5.5,0,0,1-.68-.07.51.51,0,0,1,0-.69c12.83-12.61,21.22-23.41,20.88-26.87a.91.91,0,0,0-.41-.76c-2-1.3-16.14,10.3-28.7,22.26a.5.5,0,0,1-.7-.72c10.93-11.14,23.42-24.53,23-29.2a1.44,1.44,0,0,0-.59-1.1c-1.43-1-10.41,4.2-28.38,22.59a.5.5,0,0,1-.74-.67c11.31-13.89,16.49-22.39,15.38-25.26-.25-.67-.87-1-2-1.21h-.07c-2.55,0-20.54,18.22-36.35,35.55a.5.5,0,0,1-.83-.52c5.36-13.72,6-24,3.45-25.94-.66-.52-1.57-.38-2.7.41-4.82,3.38-13.58,21.4-18.82,32.17-.95,2-1.8,3.7-2.5,5.11C141.26,172.32,103.81,241.19,97.79,252.25Z" fill="#231f20"/><path d="M175.27,176.8a.46.46,0,0,1-.22-.06.5.5,0,0,1-.23-.67c6.69-13.36-8.38-23.35-8.53-23.45a.5.5,0,1,1,.54-.84c.17.11,16,10.57,8.89,24.74A.52.52,0,0,1,175.27,176.8Z" fill="#231f20"/><path d="M211.56,184.83c.43-2.14.81-4.29,1.12-6.46a22.64,22.64,0,0,0,0-9,7.67,7.67,0,0,0-2.3-3.95,8.83,8.83,0,0,0-3.58-1.61c-3.06-.75-8,.61-9.88-2.4-1.2-1.88-.92-4.75-2.82-5.92-2.77-1.72-6,1.28-8.79-.63-2.13-1.45-3-5.28-5.29-7a6,6,0,0,0-5.55-.73c-1.26.48-2.82,1.34-3.77.38-.77-.79-.33-2.11.15-3.1q1.53-3.1,3.09-6.21c1.15-2.27,2.4-4.63,4.5-6.06a31,31,0,0,1,4.14-2c6.06-3,7.67-8.7,8.65-14.8.14-.85,2.4-14.52,1.89-14.52h12c.44,4.93,1.15,9.86,2,14.73.75,4.2,1.7,8.33,2.83,12.45s3.06,6.93,4.4,10.72a6.84,6.84,0,0,1-.76,6.58c-1.12,1.36-3,2.22-3.44,3.92a4,4,0,0,0,1.7,3.95,19.51,19.51,0,0,0,4.06,2c6,2.74,10.26,8.47,12.5,14.68s2.68,12.91,2.8,19.51" fill="#68e1fd"/><path d="M231.23,189.92a.49.49,0,0,1-.5-.49c-.11-6.36-.52-13.11-2.77-19.35-2.42-6.71-6.88-12-12.24-14.39q-.53-.24-1.05-.45a13.48,13.48,0,0,1-3.11-1.65,4.48,4.48,0,0,1-1.87-4.47,5.85,5.85,0,0,1,2.21-2.84,11.55,11.55,0,0,0,1.33-1.27c1.46-1.78,1.3-4.31.67-6.09-.57-1.6-1.26-3.08-1.93-4.5a37.8,37.8,0,0,1-2.48-6.26c-1.18-4.27-2.11-8.35-2.84-12.49-.91-5.14-1.56-9.83-2-14.32h-11c0,1.23-.39,4.53-1.92,13.88l0,.22c-.92,5.68-2.45,12-8.93,15.17-.48.23-1,.44-1.47.65a14.81,14.81,0,0,0-2.61,1.31c-2.07,1.41-3.32,3.89-4.33,5.88s-2.07,4.13-3.09,6.2c-.6,1.23-.68,2.08-.24,2.53s1.45.23,2.68-.27l.55-.23a6.49,6.49,0,0,1,6,.8,11.23,11.23,0,0,1,2.87,3.75,9.53,9.53,0,0,0,2.4,3.19c1.26.86,2.65.58,4.12.29s3.13-.62,4.65.32c1.31.81,1.71,2.27,2.08,3.68a9.11,9.11,0,0,0,.9,2.41c1.14,1.79,3.63,1.83,6,1.87a16.91,16.91,0,0,1,3.54.31,9.3,9.3,0,0,1,3.79,1.71,8,8,0,0,1,2.46,4.2,23.28,23.28,0,0,1,0,9.22c-.31,2.16-.69,4.35-1.12,6.49a.5.5,0,1,1-1-.2c.43-2.12.8-4.29,1.11-6.43a22.2,22.2,0,0,0,0-8.82,6.94,6.94,0,0,0-2.14-3.69,8.3,8.3,0,0,0-3.38-1.51,15.78,15.78,0,0,0-3.31-.28c-2.55,0-5.44-.09-6.87-2.34a9.46,9.46,0,0,1-1-2.68c-.34-1.28-.67-2.48-1.64-3.09-1.19-.73-2.52-.47-3.93-.19-1.62.32-3.28.65-4.88-.44a10.44,10.44,0,0,1-2.71-3.52,10.56,10.56,0,0,0-2.59-3.44,5.51,5.51,0,0,0-5.08-.67l-.53.21c-1.22.49-2.72,1.11-3.77,0-.77-.79-.75-2,.06-3.67q1.51-3.12,3.09-6.21c1-2.09,2.37-4.7,4.66-6.26a16.09,16.09,0,0,1,2.78-1.4c.48-.2,1-.4,1.42-.63,6.05-3,7.46-8.75,8.38-14.43l0-.22c1.5-9.22,2-13.22,1.92-14a.45.45,0,0,1-.08-.26.5.5,0,0,1,.5-.5h12a.5.5,0,0,1,.5.45c.42,4.6,1.08,9.41,2,14.69.72,4.11,1.65,8.17,2.81,12.4a37.47,37.47,0,0,0,2.43,6.1,49.86,49.86,0,0,1,2,4.59,7.33,7.33,0,0,1-.84,7.07,11.28,11.28,0,0,1-1.46,1.39,5.15,5.15,0,0,0-1.89,2.34,3.54,3.54,0,0,0,1.52,3.42,12.37,12.37,0,0,0,2.89,1.51l1.07.47c5.6,2.55,10.26,8,12.77,15,2.3,6.38,2.72,13.22,2.83,19.67a.51.51,0,0,1-.49.51Zm-38.15-88.57Zm0,0Zm0,0Zm0,0h0Zm0,0Z" fill="#231f20"/><rect x="190.61" y="95.62" width="18.77" height="10.45" fill="#e6e7e8"/><path d="M209.38,106.57H190.61a.5.5,0,0,1-.5-.5V95.62a.51.51,0,0,1,.5-.5h18.77a.5.5,0,0,1,.5.5v10.45A.5.5,0,0,1,209.38,106.57Zm-18.27-1h17.77V96.12H191.11Z" fill="#231f20"/><path d="M180,82.26H220a0,0,0,0,1,0,0v10.6a4,4,0,0,1-4,4H184a4,4,0,0,1-4-4V82.26A0,0,0,0,1,180,82.26Z" fill="#e6e7e8"/><path d="M216,97.37H184a4.53,4.53,0,0,1-4.52-4.52V82.25a.51.51,0,0,1,.5-.5H220a.51.51,0,0,1,.5.5v10.6A4.53,4.53,0,0,1,216,97.37ZM180.46,82.75v10.1A3.53,3.53,0,0,0,184,96.37h32a3.53,3.53,0,0,0,3.52-3.52V82.75Z" fill="#231f20"/><path d="M216.3,85H183.7a3.74,3.74,0,0,1-3.58-4.8l9-30.53a3.36,3.36,0,0,1,3.22-2.4h15.28a3.36,3.36,0,0,1,3.22,2.4l9,30.53A3.74,3.74,0,0,1,216.3,85Z" fill="#fff"/><path d="M216.29,85.48H183.7A4.24,4.24,0,0,1,179.64,80l9-30.53a3.87,3.87,0,0,1,3.7-2.76h15.28a3.87,3.87,0,0,1,3.7,2.76l9,30.53a4.24,4.24,0,0,1-4.07,5.44ZM192.36,47.75a2.87,2.87,0,0,0-2.74,2l-9,30.54a3.23,3.23,0,0,0,3.1,4.15h32.59a3.23,3.23,0,0,0,3.11-4.15l-9-30.54a2.87,2.87,0,0,0-2.74-2Z" fill="#231f20"/><path d="M192.3,179.53a2.32,2.32,0,0,1-.46,0,2,2,0,0,1-1.42-1,4.64,4.64,0,0,1-.48-1.89,3.51,3.51,0,0,0-.48-1.72,4.31,4.31,0,0,0-1.24-1,5.54,5.54,0,0,1-1.48-1.26,14.78,14.78,0,0,1-1.89-4.15,11.2,11.2,0,0,0-2.52-4.78,13.81,13.81,0,0,0-1.77-1.4,15.93,15.93,0,0,1-1.8-1.41c-1.11-1-2.16-2.9-1.46-4.62a.5.5,0,0,1,.93.37c-.51,1.26.33,2.69,1.22,3.52a15.26,15.26,0,0,0,1.69,1.33A15.44,15.44,0,0,1,183,163a12.19,12.19,0,0,1,2.77,5.18,13.37,13.37,0,0,0,1.75,3.87,4.47,4.47,0,0,0,1.23,1,5.23,5.23,0,0,1,1.5,1.32,4.37,4.37,0,0,1,.66,2.18,3.6,3.6,0,0,0,.36,1.5,1.06,1.06,0,0,0,.72.47,1.67,1.67,0,0,0,1.29-.32,3.39,3.39,0,0,0,.94-2.5,13.64,13.64,0,0,0-.06-1.41,13.14,13.14,0,0,1-.05-1.78,13.59,13.59,0,0,1,2-5.56l.58-1.07c.39-.71.9-.62,1-.57a.6.6,0,0,1,.43.64.71.71,0,0,1-.58.63h-.13l-.46.85a12.92,12.92,0,0,0-1.88,5.14,13.32,13.32,0,0,0,.05,1.66,14.81,14.81,0,0,1,.06,1.5A4.28,4.28,0,0,1,194,179,2.62,2.62,0,0,1,192.3,179.53Z" fill="#d1d3d4"/><path d="M225.67,184.56h-.08a.51.51,0,0,1-.42-.57c1.5-9.74-1.46-15.1-1.49-15.16a.5.5,0,1,1,.87-.49c.13.23,3.16,5.68,1.61,15.8A.5.5,0,0,1,225.67,184.56Z" fill="#fff"/><path d="M201.67,132.5a.49.49,0,0,1-.5-.46l-1.67-20.89a.5.5,0,0,1,.46-.54.5.5,0,0,1,.54.46L202.17,132a.5.5,0,0,1-.46.54Z" fill="#fff"/><path d="M191.84,138.6l-.14,0a.49.49,0,0,1-.34-.62l3.44-11.9a.5.5,0,0,1,.62-.34.49.49,0,0,1,.34.62l-3.44,11.9A.49.49,0,0,1,191.84,138.6Z" fill="#fff"/><path d="M265.32,207.5c1,4.34-.17,29.72-1,45.25h50.44c-5.57-18.72-19.56-66-19.59-68.84,0-3.52.06-37.44-4.14-46.6s-10.26.23-10.62,14.67c0,0-8.88-46.56-13.18-46.87-4-.29-8.76,4.45-4.5,21.74-1.8-6.39-5.64-18.51-8.54-17.68-5.35,1.55-1.28,12.42,1.66,23,0,0-6.83-22.83-12.62-18.73-4.26,3,2.64,24.53,3.82,28.09-1.05-3.11-6.72-19.32-10-17.25-6.77,4.26,5.48,38.76,10.93,50.11S263.91,201.16,265.32,207.5Z" fill="#fff"/><path d="M314.79,253.25H264.35a.48.48,0,0,1-.5-.52c.78-15,1.94-40.8,1-45.12h0c-.81-3.65-4.77-10.52-9-17.8-3-5.17-6.06-10.52-8.31-15.21-5.11-10.65-18.05-46.16-10.75-50.75a1.65,1.65,0,0,1,1.5-.15c1.62.58,3.47,3.64,5.1,7.12-3.54-14.08-1.34-17.15-.43-17.8a2.91,2.91,0,0,1,2.74-.41c2.38.82,4.71,4.61,6.58,8.63-1.15-4.6-1.7-8.52-.47-10.75a3.66,3.66,0,0,1,2.26-1.8,1.68,1.68,0,0,1,1.33.2c1.79,1,3.7,5.16,5.38,10-.74-7,.61-10.53,2.11-12.32a5.21,5.21,0,0,1,4.39-1.93c3.95.28,10.42,31,12.9,43.44.81-8.06,3.43-14.16,6.59-14.81,1.23-.25,3.05.21,4.73,3.87,2.58,5.62,4.07,21.92,4.19,45.89v.9c0,1.9,7.34,27.58,19.57,68.71a.47.47,0,0,1-.08.44A.48.48,0,0,1,314.79,253.25Zm-49.92-1h49.25c-6-20.13-19.39-65.51-19.42-68.34V183c-.12-23.83-1.58-40-4.1-45.48-.77-1.68-2-3.63-3.62-3.3-2.7.56-5.79,7.51-6,17.77a.5.5,0,0,1-.46.49.51.51,0,0,1-.53-.4c-4.33-22.71-10.27-46.29-12.73-46.47a4.13,4.13,0,0,0-3.56,1.58c-1.51,1.79-3.57,6.72-.41,19.54a.5.5,0,0,1-1,.25c-2.8-9.9-5.48-16.18-7.35-17.22a.69.69,0,0,0-.57-.1,2.63,2.63,0,0,0-1.67,1.31c-1.6,2.91.37,9.66,2.45,16.81.41,1.41.83,2.83,1.22,4.25a.51.51,0,0,1-.34.62.51.51,0,0,1-.62-.34c-1.42-4.75-6-17.36-10-18.75a1.9,1.9,0,0,0-1.83.28c-2.85,2,0,15.28,4,27.53a.51.51,0,0,1-.32.63.5.5,0,0,1-.63-.32c-2.48-7.32-6.23-16.18-8.64-17a.71.71,0,0,0-.64,0c-6,3.79,4.76,36.23,11.12,49.48,2.23,4.66,5.31,10,8.28,15.14,4.23,7.35,8.23,14.28,9.08,18.08h0C266.78,211.77,265.66,237.13,264.87,252.25Z" fill="#231f20"/><path d="M285.81,122.76a15.3,15.3,0,0,1,6.57,11.52c.73,8.05-11.67,35.54-18.62,46.24s-14.61,10-20.16,10.21S242.66,186,238.48,182s-3.43-9-3.54-13.72S268,118.75,285.81,122.76Z" fill="#231f20"/><path d="M253.31,191.27c-5.79,0-11.22-5.1-15.2-8.84-3.73-3.51-3.71-7.81-3.7-12,0-.71,0-1.42,0-2.13-.09-3.74,15.3-25,30.14-37.16,8.73-7.16,15.92-10.16,21.39-8.93a.52.52,0,0,1,.16.06,15.74,15.74,0,0,1,6.83,11.93c.76,8.39-12.08,36.39-18.71,46.58s-14,10.32-19.37,10.43l-1.23,0Zm30.18-68.22c-4.82,0-11.08,3-18.27,9-15.48,12.68-29.81,33.69-29.75,36.31,0,.71,0,1.43,0,2.16,0,4.11,0,8,3.36,11.17,3.91,3.68,9.28,8.68,14.73,8.55l1.23,0c5.44-.11,12.2-.24,18.5-9.93,7.31-11.26,19.23-38.18,18.54-45.9a14.93,14.93,0,0,0-6.25-11.06A9.61,9.61,0,0,0,283.49,123.05Z" fill="#231f20"/><path d="M257.55,119.05s2.55-7.08,16.08-3.45,15.71,9.9,13.88,23.53-13.77,37.4-22.31,42.77-24.76,1.84-30.17-8.33S251,123.35,257.55,119.05Z" fill="#fff"/><path d="M255.47,184.91a26.77,26.77,0,0,1-6.89-.92c-6.35-1.69-11.45-5.4-14-10.19-5.45-10.25,15.21-50,22.57-55.08.48-1.1,3.77-7.06,16.61-3.6C288.11,119,289.78,126,288,139.2c-2.11,15.68-14.89,38.31-22.53,43.13A18.88,18.88,0,0,1,255.47,184.91Zm11.12-69.86c-6.92,0-8.49,4-8.57,4.17a.55.55,0,0,1-.2.25c-6.9,4.49-27.49,44.2-22.35,53.86,2.41,4.55,7.29,8.08,13.36,9.69s12,1,16.11-1.54c8-5,20.19-28.44,22.07-42.42,1.74-12.91.2-19.29-13.51-23A26.85,26.85,0,0,0,266.59,115.05Zm-9,4h0Z" fill="#231f20"/><path d="M256.63,177.81a21.82,21.82,0,0,1-5.52-.73c-5.08-1.36-9.16-4.33-11.21-8.17-4.35-8.19,12.09-39.85,18-44,.44-1,3.14-5.64,13.34-2.9,11.5,3.09,12.85,8.69,11.42,19.29s-10.76,29.87-18,34.44A15.07,15.07,0,0,1,256.63,177.81Zm8.86-55.65c-5.43,0-6.67,3.09-6.73,3.25a.55.55,0,0,1-.2.25c-5.48,3.57-21.85,35.11-17.77,42.78,1.91,3.59,5.77,6.39,10.58,7.67s9.53.81,12.75-1.22c6.37-4,16-22.61,17.54-33.72C283,131,281.82,125.89,271,123A21.12,21.12,0,0,0,265.49,122.16Zm-7.2,3.08h0Z" fill="#d1d3d4"/><path d="M294.87,166.65s1.13-38-8.26-34.06c-6,2.51-1.74,23.37-1.74,23.37s-4.88,13.38-7.36,23.65" fill="#fff"/><path d="M277.51,180.11h-.11a.5.5,0,0,1-.37-.61c2.32-9.63,6.8-22.15,7.32-23.57-.4-2-4-21.23,2.06-23.79a3.36,3.36,0,0,1,3.39.28c6.38,4.38,5.6,33,5.57,34.25a.5.5,0,1,1-1,0c0-.29.8-29.32-5.14-33.4a2.39,2.39,0,0,0-2.43-.18c-4.61,1.93-2.6,17.12-1.44,22.81a.5.5,0,0,1,0,.27c0,.13-4.9,13.47-7.34,23.6A.5.5,0,0,1,277.51,180.11Z" fill="#231f20"/><path d="M116.66,135.85a50.3,50.3,0,0,1-7.35-.55.5.5,0,0,1,.15-1,48.81,48.81,0,0,0,14.33,0,.51.51,0,0,1,.57.42.5.5,0,0,1-.42.57A49.44,49.44,0,0,1,116.66,135.85Z" fill="#fff"/><path d="M127.28,148q-2.31,0-4.62-.21a.5.5,0,0,1-.46-.54.5.5,0,0,1,.55-.45,50.25,50.25,0,0,0,14.93-.89.5.5,0,0,1,.59.39.49.49,0,0,1-.38.59A51.25,51.25,0,0,1,127.28,148Z" fill="#fff"/><path d="M124,168.1a16,16,0,0,1-5.7-1,.51.51,0,0,1-.28-.65.49.49,0,0,1,.64-.28,15,15,0,0,0,10.21.16.51.51,0,0,1,.64.31.5.5,0,0,1-.31.63A15.81,15.81,0,0,1,124,168.1Z" fill="#fff"/><path d="M178.16,143.53a.5.5,0,0,1-.36-.14.51.51,0,0,1,0-.71l4.94-4.93a.5.5,0,0,1,.71,0,.5.5,0,0,1,0,.7l-4.94,4.94A.47.47,0,0,1,178.16,143.53Z" fill="#fff"/><path d="M211.28,160.06a.48.48,0,0,1-.42-.23,10.57,10.57,0,0,0-6-4.37c-.43-.12-.88-.22-1.33-.31a8.88,8.88,0,0,1-3.56-1.31,6.09,6.09,0,0,1-2.25-4.69,17.09,17.09,0,0,1,.71-5,.5.5,0,1,1,1,.24,16.55,16.55,0,0,0-.7,4.72,5.1,5.1,0,0,0,1.85,3.93,8,8,0,0,0,3.18,1.14c.46.1.93.2,1.39.32a11.57,11.57,0,0,1,6.55,4.79.51.51,0,0,1-.14.7A.56.56,0,0,1,211.28,160.06Z" fill="#fff"/><line x1="226.1" y1="214.63" x2="206.7" y2="229.34" fill="#e6e7e8"/><path d="M206.7,229.84a.51.51,0,0,1-.4-.2.5.5,0,0,1,.1-.7l19.4-14.71a.5.5,0,1,1,.6.8L207,229.74A.54.54,0,0,1,206.7,229.84Z" fill="#231f20"/><line x1="236.21" y1="213.27" x2="222.75" y2="224.11" fill="#e6e7e8"/><path d="M222.75,224.61a.52.52,0,0,1-.39-.19.5.5,0,0,1,.08-.7l13.45-10.84a.51.51,0,0,1,.71.08.5.5,0,0,1-.08.7L223.07,224.5A.54.54,0,0,1,222.75,224.61Z" fill="#231f20"/></g></svg>