<svg xmlns="http://www.w3.org/2000/svg" viewBox="0 0 400 300"><g id="_441_washing_hands_flatline" data-name="#441_washing_hands_flatline"><path d="M190.19,150a81,81,0,0,1-21.32,54.87c-.44.48-.88,1-1.34,1.44a81.72,81.72,0,0,1-6.45,6,80.86,80.86,0,0,1-28.63,15.51l-.18.06q-2.69.79-5.45,1.43a81.79,81.79,0,0,1-18,2,81,81,0,0,1-35.62-8.2l0,0a81.6,81.6,0,0,1-31.14-26.7c-.71-1-1.4-2.07-2.06-3.13A81.34,81.34,0,1,1,190.19,150Z" fill="#fff"/><path d="M108.85,231.84A81,81,0,0,1,73,223.59l-.06,0a82.11,82.11,0,0,1-31.3-26.85c-.74-1.06-1.44-2.12-2.08-3.15A81.85,81.85,0,1,1,169.24,205.2c-.44.49-.89,1-1.35,1.46a82.4,82.4,0,0,1-6.49,6.07,81,81,0,0,1-28.8,15.6l-.19,0c-1.8.54-3.65,1-5.48,1.45A82.4,82.4,0,0,1,108.85,231.84ZM73.47,222.7a80,80,0,0,0,35.38,8.14,81,81,0,0,0,17.86-2c1.81-.41,3.63-.89,5.42-1.42a1,1,0,0,1,.18-.06A81.08,81.08,0,0,0,167.17,206c.45-.47.9-.94,1.33-1.43A80.83,80.83,0,1,0,40.42,193c.63,1,1.32,2.06,2.06,3.11a81.06,81.06,0,0,0,30.94,26.54h0Z" fill="#231f20"/><path d="M78.55,205.05s25.6-39.61,28-41.23,20.11-19.51,25-24.59S143,125.62,140.31,124,122,137.3,122,137.3s21.33-22.65,18.89-24.88-7.31,3-12,7.31-13,12.19-13,12.19,21.33-19.7,19.91-23-21,9.4-27.43,19.1c0,0,23-22.35,19.5-25s-23.77,15.24-29.45,19.1-13.62,11.7-13.62,11.7,2.85-21.05.82-22.87-4.68.4-7.12,3.45-6.49,16.4-7.51,20.9S75.1,151,72.46,156.1s-21.53,32.3-21.53,32.3Z" fill="#fff"/><path d="M78.55,205.55a.47.47,0,0,1-.25-.07L50.67,188.82a.48.48,0,0,1-.23-.32.5.5,0,0,1,.08-.39c.19-.27,18.9-27.25,21.5-32.24,1.44-2.79.39-7.75-.54-12.14-.71-3.34-1.38-6.49-.93-8.49.94-4.15,5-17.84,7.61-21.1,2.21-2.76,4-4.16,5.64-4.29a2.84,2.84,0,0,1,2.2.77c1.91,1.73.24,16.42-.46,21.89a115.79,115.79,0,0,1,12.65-10.75c1.43-1,3.85-2.89,6.66-5.1,11.21-8.86,20.71-16,23.38-14a1.4,1.4,0,0,1,.54,1.09c.12,2-2.92,6.17-6.68,10.57,5.39-3.85,10.61-6.57,12.92-6.39a1.4,1.4,0,0,1,1.29.81c.51,1.16-1.22,3.85-3.85,7,3.53-3.22,6.74-5.64,8.81-3.74a1.14,1.14,0,0,1,.36.84c.09,2.57-6.81,10.93-12.41,17.27,4.63-3.9,9.72-7.6,11.37-6.59a1.77,1.77,0,0,1,.82,1.34c.43,3.36-6,11.07-9.46,14.67-4,4.21-22.47,22.91-25.07,24.65-1.73,1.15-17.63,25.21-27.9,41.1A.5.5,0,0,1,78.55,205.55ZM51.64,188.24,78.4,204.38c3.62-5.6,25.53-39.39,27.91-41s19.49-18.86,24.91-24.51c4.75-5,9.49-11.49,9.19-13.85a.78.78,0,0,0-.36-.62c-1.41-.87-10.28,6.19-17.67,13.25a.51.51,0,0,1-.7,0,.5.5,0,0,1,0-.7c7.67-8.15,19-21.27,19-24a.34.34,0,0,0,0-.14c-1.77-1.62-5.64,2-9.39,5.53-.64.6-1.29,1.2-1.93,1.78-2.32,2.12-5.57,5.17-8.25,7.69-2.11,2-3.86,3.68-4.74,4.5a.51.51,0,0,1-.71,0,.49.49,0,0,1,0-.7l4.74-4.48c8.51-8.26,15.73-16.37,15.06-17.91,0,0-.08-.19-.46-.22-2.45-.21-9.69,3.93-16.21,9.2-4.48,4.92-9,9.32-10,10.27a.5.5,0,0,1-.67,0,.5.5,0,0,1-.1-.66,50.82,50.82,0,0,1,9.87-10.22c5.17-5.66,10-11.61,9.9-13.74a.43.43,0,0,0-.15-.36c-2.27-1.73-15.2,8.48-22.15,14-2.82,2.23-5.26,4.15-6.72,5.14-5.59,3.79-13.46,11.57-13.54,11.65a.5.5,0,0,1-.58.09.49.49,0,0,1-.27-.51c1.38-10.22,2.12-21.41,1-22.44a1.87,1.87,0,0,0-1.45-.53c-1.28.11-2.94,1.43-4.94,3.92-2.34,2.93-6.35,16-7.41,20.7-.41,1.78.24,4.84.93,8.07,1,4.54,2.06,9.7.45,12.8C70.43,161.08,54.17,184.6,51.64,188.24Z" fill="#231f20"/><path d="M82.62,166.35a.48.48,0,0,1-.3-.11A30.38,30.38,0,0,1,74,155.38.5.5,0,1,1,75,155c0,.07,2.86,6.54,8,10.47a.5.5,0,0,1-.3.9Z" fill="#d1d3d4"/><path d="M134.74,222.16S123.3,197.65,118.26,194s-15.79-7.65-23-14.86-18.3-13.84-16.59-16.56,9-2.83,12.18-.53,12.24,7.8,12.24,7.8-.36-10.56-3-15.52-7.94-9.62-7-11.9,8.22,1.88,10.62,5.64,6.59,11.1,6.59,11.1-2.26-9.76-3.47-11.85-10.66-6.55-10.23-8.5,3.14-2.42,4.28-2.06,8.92,4.56,10.72,6.31,6.18,10.41,6.18,10.41-1.56-8.88-2.75-10.56-9.68-6.26-9.32-7.32,1.92-3,7.83.14c0,0-.62-2.51,2.92-.63s17.57,13.46,21,22.46,6.16,22.31,12.41,32.71a83.59,83.59,0,0,0,12.92,16.62Z" fill="#fff"/><path d="M134.74,222.66l-.16,0a.51.51,0,0,1-.29-.27c-.12-.24-11.45-24.43-16.33-28a65.85,65.85,0,0,0-6.86-4c-5.1-2.74-11.44-6.14-16.21-10.9a113,113,0,0,0-8.58-7.45c-5.46-4.43-9.4-7.63-8.08-9.73.84-1.33,2.6-1.91,3.93-2.17,3.18-.6,7,0,9,1.5,2.55,1.86,9.1,5.89,11.39,7.28-.16-2.67-.79-10.41-2.91-14.37a42.71,42.71,0,0,0-3.8-5.54c-2.18-2.87-3.91-5.13-3.25-6.77a1.54,1.54,0,0,1,1.41-.95c2.56-.25,8,3.28,10.09,6.5,1.4,2.19,3.42,5.61,4.85,8.09-.76-3-1.87-7.09-2.58-8.32-.47-.79-2.55-2.15-4.57-3.47-3.74-2.44-6-4-5.72-5.38a3,3,0,0,1,1.48-1.94,4.74,4.74,0,0,1,3.44-.5c1.26.4,9.08,4.65,10.92,6.43,1.15,1.12,3.23,4.8,4.68,7.51-.58-2.81-1.39-6.13-2-7a26.63,26.63,0,0,0-4.47-3.33c-3.88-2.59-5.21-3.57-4.92-4.44a2.74,2.74,0,0,1,1.62-1.67c1.43-.56,3.52-.18,6.2,1.16a1.24,1.24,0,0,1,.45-.74c.63-.49,1.67-.33,3.2.48,3.79,2,17.75,13.61,21.24,22.73,1.1,2.87,2.12,6.17,3.21,9.66,2.31,7.46,4.93,15.91,9.17,23a83.54,83.54,0,0,0,12.83,16.51.5.5,0,0,1,.16.43.48.48,0,0,1-.26.37L135,222.6A.53.53,0,0,1,134.74,222.66ZM84.67,160.94a11.78,11.78,0,0,0-2.32.21,4.82,4.82,0,0,0-3.27,1.71c-.85,1.35,3.58,4.95,7.86,8.43a112.27,112.27,0,0,1,8.65,7.51c4.67,4.66,11,8,16,10.73a64.73,64.73,0,0,1,7,4.07c4.75,3.44,14.74,24.31,16.42,27.87l26.94-14.68a87.19,87.19,0,0,1-12.52-16.24c-4.3-7.16-6.94-15.67-9.27-23.18-1.08-3.48-2.09-6.77-3.18-9.61-3.41-8.91-17.48-20.45-20.78-22.2-1.64-.87-2.07-.61-2.11-.57s-.13.48-.09.65a.52.52,0,0,1-.18.51.49.49,0,0,1-.54,0c-3.45-1.85-5.21-1.82-6.09-1.48a1.75,1.75,0,0,0-1,1c.32.59,2.83,2.26,4.5,3.38,2.12,1.41,4.13,2.75,4.72,3.58,1.23,1.72,2.68,9.84,2.84,10.76a.49.49,0,0,1-.34.56.49.49,0,0,1-.6-.25c0-.08-4.35-8.59-6.08-10.27s-9.41-5.85-10.52-6.2a3.8,3.8,0,0,0-2.64.42,1.93,1.93,0,0,0-1,1.28c-.17.77,3.25,3,5.29,4.33,2.31,1.51,4.3,2.81,4.88,3.81,1.24,2.13,3.43,11.59,3.52,12a.5.5,0,0,1-.3.58.52.52,0,0,1-.62-.22c0-.08-4.2-7.38-6.57-11.08-2-3.08-7.12-6.23-9.16-6-.46,0-.54.25-.57.33-.45,1.11,1.28,3.38,3.12,5.79a44,44,0,0,1,3.88,5.68c2.68,5,3.06,15.31,3.08,15.75a.5.5,0,0,1-.25.44.47.47,0,0,1-.51,0c-.37-.22-9.14-5.54-12.27-7.83A10.69,10.69,0,0,0,84.67,160.94Z" fill="#231f20"/><path d="M124.25,150.27a.51.51,0,0,1-.48-.35,48.61,48.61,0,0,0-3.2-7.85c-1.72-3.1-7.26-5.84-7.32-5.87a.5.5,0,0,1-.23-.67.51.51,0,0,1,.67-.22c.24.11,5.88,2.9,7.76,6.28a49,49,0,0,1,3.28,8,.5.5,0,0,1-.33.62Z" fill="#231f20"/><path d="M89.32,153.14h-.1a.51.51,0,0,1-.39-.59c1.94-9.18-2-13.16-4.51-14.72l-.17-.12a.5.5,0,0,1-.1-.7.5.5,0,0,1,.7-.1l.1.07c2.2,1.36,7.1,5.64,5,15.78A.49.49,0,0,1,89.32,153.14Z" fill="#d1d3d4"/><path d="M156.35,132.4l-.15,0a.49.49,0,0,1-.32-.63c.07-.22,7.15-22.33-8.26-36.24-6-5.37-12.55-7.71-19.61-7a23.09,23.09,0,0,0-8.88,2.75.5.5,0,0,1-.69-.17.48.48,0,0,1,.16-.68c.15-.09,14.94-9,29.69,4.32,15.9,14.35,8.61,37.07,8.54,37.3A.5.5,0,0,1,156.35,132.4Z" fill="#d1d3d4"/><path d="M111.75,93.43h-.06l-6.24-.74a.5.5,0,0,1-.44-.49V83.9a.5.5,0,0,1,.5-.5.5.5,0,0,1,.5.5v7.85l5.8.68a.52.52,0,0,1,.44.56A.51.51,0,0,1,111.75,93.43Z" fill="#d1d3d4"/><path d="M156.35,132.4a.51.51,0,0,1-.4-.2l-3.66-4.93a.5.5,0,0,1,.11-.7.51.51,0,0,1,.7.11l3.4,4.58,3.88-2a.5.5,0,1,1,.45.89l-4.25,2.18A.46.46,0,0,1,156.35,132.4Z" fill="#d1d3d4"/><path d="M164,118.33a.5.5,0,0,1-.5-.48c0-.3-1.58-30.38-26.53-34.62-11.82-2-19.52.42-23.9,2.81a19.28,19.28,0,0,0-6.74,5.71.49.49,0,0,1-.69.16.48.48,0,0,1-.16-.68c.08-.13,8.38-12.94,31.66-9,25.75,4.37,27.34,35.25,27.36,35.56a.51.51,0,0,1-.48.52Z" fill="#d1d3d4"/><path d="M91.32,192.28,73.23,223.14l0,0a81.6,81.6,0,0,1-31.14-26.7c-.71-1-1.4-2.07-2.06-3.13L58.67,169.5Z" fill="#68e1fd"/><path d="M73.23,223.64a.47.47,0,0,1-.28-.09,82.11,82.11,0,0,1-31.3-26.85c-.74-1.06-1.44-2.12-2.08-3.15a.52.52,0,0,1,0-.57l18.68-23.79a.5.5,0,0,1,.68-.1L91.6,191.87a.49.49,0,0,1,.15.66L73.66,223.39a.51.51,0,0,1-.37.25ZM40.61,193.32c.58.92,1.2,1.86,1.87,2.81A81.07,81.07,0,0,0,73,222.48l17.61-30.06L58.77,170.18Z" fill="#231f20"/><path d="M168.87,204.87c-.44.48-.88,1-1.34,1.44a81.72,81.72,0,0,1-6.45,6,80.86,80.86,0,0,1-28.63,15.51l-.18.06c-3.43-7.09-7.26-15.58-8-17.79l30.17-19.76Z" fill="#68e1fd"/><path d="M132.37,228.35a.62.62,0,0,1-.55-.23c-3.53-7.28-7.28-15.62-8-17.84a.51.51,0,0,1,.2-.58l30.18-19.76a.5.5,0,0,1,.62.06l14.45,14.51a.51.51,0,0,1,0,.69c-.44.49-.89,1-1.35,1.46a82.4,82.4,0,0,1-6.49,6.07,81,81,0,0,1-28.8,15.6Zm-7.51-18c1,2.57,4.44,10.29,7.67,17A79.68,79.68,0,0,0,160.75,212a80.57,80.57,0,0,0,6.42-6c.34-.36.68-.71,1-1.08L154.36,191Z" fill="#231f20"/><path d="M372.49,150a81.38,81.38,0,1,1-.38-7.82C372.36,144.76,372.49,147.36,372.49,150Z" fill="#fff"/><path d="M291.15,231.84a81,81,0,0,1-35.87-8.27A82.16,82.16,0,0,1,224,196.7,81.51,81.51,0,0,1,209.31,150a81.84,81.84,0,0,1,163.3-7.86c.25,2.61.38,5.25.38,7.86a81.91,81.91,0,0,1-63.76,79.83A82.4,82.4,0,0,1,291.15,231.84Zm0-162.68a80.85,80.85,0,0,0-35.43,153.51,80,80,0,0,0,35.43,8.17A80.81,80.81,0,0,0,372,150c0-2.57-.13-5.19-.37-7.77a80.85,80.85,0,0,0-80.47-73.07Z" fill="#231f20"/><path d="M218.5,173.73s30-7.18,35.9-6.86,23.72,10.3,38.39,8.11S309,136.72,309,135s2.81-2.5-.94-5-13.13-2.22-20.6-2.5c-4.93-.19-14.26-1.11-19.24.66s-11.35,11.61-21.65,12.5-32.46,3.36-32.46,3.36Z" fill="#fff"/><path d="M288.37,175.79c-8.73,0-17.93-3.27-24.93-5.77-3.85-1.37-7.18-2.56-9.07-2.66-5.8-.32-35.45,6.79-35.75,6.86a.56.56,0,0,1-.4-.07.53.53,0,0,1-.21-.35l-4.37-29.66a.47.47,0,0,1,.1-.38.46.46,0,0,1,.34-.19c.22,0,22.28-2.49,32.47-3.37,6.44-.56,11.38-4.76,15.35-8.14,2.31-2,4.3-3.66,6.17-4.33,4.25-1.51,11.42-1.12,16.66-.83,1,.06,1.95.11,2.77.14,1.3,0,2.66.08,4,.11,6.69.16,13.61.33,16.82,2.47,2.76,1.84,2.36,3,1.6,4.28a2.2,2.2,0,0,0-.44,1.12c0,.38-1.24,38.16-16.66,40.46A31.85,31.85,0,0,1,288.37,175.79ZM254,166.36h.42c2,.1,5.27,1.25,9.36,2.71,8.11,2.89,19.23,6.85,28.93,5.41,13.33-2,15.88-34.6,15.81-39.45a3.06,3.06,0,0,1,.58-1.66c.54-.88.89-1.47-1.3-2.93-3-2-10-2.15-16.28-2.3-1.39,0-2.75-.06-4.06-.11-.82,0-1.76-.08-2.79-.14-5.15-.28-12.2-.67-16.26.77-1.7.61-3.63,2.25-5.86,4.15-4.08,3.47-9.15,7.79-15.91,8.38-9.31.8-28.55,2.93-31.94,3.3l4.22,28.62C223,172.15,247.65,166.36,254,166.36Z" fill="#231f20"/><path d="M277.65,147.83s-2.19,8.14-12.95,10.7" fill="#fff"/><path d="M264.7,159a.5.5,0,0,1-.12-1c10.33-2.46,12.57-10.27,12.59-10.34a.5.5,0,0,1,.61-.36.51.51,0,0,1,.35.62c-.09.34-2.39,8.45-13.32,11Z" fill="#231f20"/><path d="M367.38,144.39s-27.46-3.74-31.52-5.62-13.42-4.36-18.42-5.3-34.33,1.25-37.76,3.43-2.5,4.84,1.87,7c0,0-7.18-.78-8.43,3.91s5,6.55,5,6.55-7.49-.44-6.87,4.15,6.24,6.12,6.24,6.12-8.19,1.28-6.28,4.4,11.59,4.68,11.59,4.68a18.47,18.47,0,0,0,6.87,6.56c4.36,2.18,22.78,0,26.52-2.5s15.92-12.17,20.6-11.86S364,174.36,364,174.36Z" fill="#fff"/><path d="M296.25,181.65c-3,0-5.52-.27-6.81-.92a18.66,18.66,0,0,1-6.95-6.54c-1.54-.27-9.84-1.84-11.7-4.88a2,2,0,0,1-.18-2c.69-1.49,3.31-2.37,5.11-2.81-1.81-.86-4.52-2.65-5-5.91a3.41,3.41,0,0,1,.84-2.89,7.1,7.1,0,0,1,4.32-1.75c-2.05-1.17-4.07-3.26-3.27-6.26.92-3.45,4.64-4.2,7-4.31-1.6-1.09-2.47-2.28-2.53-3.48s.71-2.41,2.31-3.43c3.76-2.4,33.35-4.4,38.13-3.5s14.3,3.39,18.53,5.34c3.94,1.82,31.11,5.54,31.38,5.58a.49.49,0,0,1,.43.55l-3.44,30a.48.48,0,0,1-.23.37.5.5,0,0,1-.43.05c-.23-.08-22.46-8.1-27-8.4-3.59-.25-12.5,6.19-17.29,9.65-1.22.88-2.27,1.64-3,2.13C313.72,180,303.53,181.65,296.25,181.65ZM277.6,154.87c-1.14,0-4,.14-5.28,1.52a2.38,2.38,0,0,0-.57,2.07c.57,4.2,5.82,5.7,5.87,5.71a.5.5,0,0,1-.05,1c-1.46.23-5.38,1.13-6.06,2.59a1,1,0,0,0,.13,1c1.47,2.4,8.61,4,11.24,4.45a.47.47,0,0,1,.35.24,18,18,0,0,0,6.66,6.36c4.15,2.08,22.43-.06,26-2.47.71-.47,1.76-1.23,3-2.1,7.07-5.11,14.31-10.08,17.94-9.84,4.32.29,23,6.93,26.69,8.24l3.31-28.85c-3.81-.52-27.35-3.82-31.18-5.59-4.1-1.89-13.57-4.38-18.3-5.27-5.18-1-34.17,1.3-37.4,3.36-1.28.81-1.9,1.67-1.85,2.54.06,1.18,1.36,2.46,3.67,3.62a.5.5,0,0,1-.27.94c-.07,0-6.77-.67-7.89,3.54s4.59,5.92,4.65,5.94a.5.5,0,0,1-.17,1Z" fill="#231f20"/><path d="M288.57,154.88H278.12a.5.5,0,0,1,0-1h10.45a.5.5,0,0,1,0,1Z" fill="#231f20"/><path d="M277.49,164.65s8.59-.49,11.08,0" fill="#fff"/><path d="M288.57,165.15h-.09c-2.41-.47-10.87,0-11,0a.5.5,0,0,1-.53-.47.52.52,0,0,1,.47-.53c.36,0,8.68-.49,11.21,0a.5.5,0,0,1,.39.59A.49.49,0,0,1,288.57,165.15Z" fill="#231f20"/><path d="M282.8,173.73s12.33,1.09,16.07.63" fill="#fff"/><path d="M296.18,175c-5,0-13-.7-13.43-.74a.5.5,0,0,1-.45-.54.51.51,0,0,1,.54-.46c.13,0,12.32,1.09,16,.63a.51.51,0,0,1,.56.43.5.5,0,0,1-.44.56A23,23,0,0,1,296.18,175Z" fill="#231f20"/><line x1="281.55" y1="143.92" x2="290.84" y2="144.39" fill="#fff"/><path d="M290.84,144.89h0l-9.29-.47a.5.5,0,1,1,.06-1l9.28.46a.5.5,0,0,1,.47.53A.49.49,0,0,1,290.84,144.89Z" fill="#231f20"/><path d="M240.79,173.73l-25.2,6.42a81.53,81.53,0,0,1-5.22-39.69l27.5-1Z" fill="#68e1fd"/><path d="M215.59,180.65a.5.5,0,0,1-.46-.31A81.26,81.26,0,0,1,209.31,150a82.35,82.35,0,0,1,.56-9.6.5.5,0,0,1,.48-.44l27.5-1a.49.49,0,0,1,.52.45l2.92,34.27a.49.49,0,0,1-.37.52l-25.2,6.43Zm-4.77-39.71a80.9,80.9,0,0,0,5.08,38.62l24.36-6.21L237.41,140Z" fill="#231f20"/><path d="M372.49,150a81.07,81.07,0,0,1-5.14,28.49l-20.42-8.22,4.36-30.8s12,1.32,20.82,2.71C372.36,144.76,372.49,147.36,372.49,150Z" fill="#68e1fd"/><path d="M367.35,179a.65.65,0,0,1-.19,0l-20.41-8.22a.49.49,0,0,1-.31-.53l4.35-30.8a.49.49,0,0,1,.55-.43c.12,0,12.12,1.34,20.85,2.72a.5.5,0,0,1,.42.45c.25,2.61.38,5.25.38,7.86a81.27,81.27,0,0,1-5.17,28.66.5.5,0,0,1-.27.28A.46.46,0,0,1,367.35,179Zm-19.87-9,19.58,7.88A80.34,80.34,0,0,0,372,150c0-2.45-.12-4.93-.34-7.38-7.66-1.2-17.64-2.35-19.93-2.6Z" fill="#231f20"/><path d="M300.21,195.84c-25.74,0-45.3-14.05-45.58-14.25a.5.5,0,1,1,.59-.81c.39.29,39.38,28.26,79.57,4.48a.51.51,0,0,1,.69.18.49.49,0,0,1-.18.68A67.9,67.9,0,0,1,300.21,195.84Z" fill="#d1d3d4"/><path d="M330.79,193.05a.49.49,0,0,1-.42-.76l3.89-6.28c-1.89-.47-7.18-1.8-7.88-2a.5.5,0,0,1,.32-.94c.64.21,5.82,1.52,8.47,2.18a.49.49,0,0,1,.34.3.48.48,0,0,1,0,.45l-4.25,6.86A.5.5,0,0,1,330.79,193.05Z" fill="#d1d3d4"/><path d="M255.07,187.54a.49.49,0,0,1-.49-.42l-1.1-6.58a.51.51,0,0,1,.41-.58l6.4-1.09a.5.5,0,1,1,.17,1l-5.91,1,1,6.1a.5.5,0,0,1-.41.57Z" fill="#d1d3d4"/></g></svg>