<svg xmlns="http://www.w3.org/2000/svg" viewBox="0 0 400 300"><g id="_38_weather" data-name="#38_weather"><rect x="30.68" y="55.87" width="338.64" height="175.7" rx="9.23" fill="#fff"/><path d="M360.09,55.87a9.23,9.23,0,0,1,9.23,9.23V222.34a9.23,9.23,0,0,1-9.23,9.23H39.91a9.23,9.23,0,0,1-9.23-9.23V65.1a9.23,9.23,0,0,1,9.23-9.23H360.09m0-.91H39.91A10.15,10.15,0,0,0,29.77,65.1V222.34a10.15,10.15,0,0,0,10.14,10.14H360.09a10.15,10.15,0,0,0,10.14-10.14V65.1A10.15,10.15,0,0,0,360.09,55Z" fill="#231f20"/><rect x="220.98" y="73.33" width="65.85" height="136.93" rx="5.47" fill="#fff"/><path d="M281.35,210.76h-54.9a6,6,0,0,1-6-6V78.8a6,6,0,0,1,6-6h54.9a6,6,0,0,1,6,6v126A6,6,0,0,1,281.35,210.76ZM226.45,73.83a5,5,0,0,0-5,5v126a5,5,0,0,0,5,5h54.9a5,5,0,0,0,5-5V78.8a5,5,0,0,0-5-5Z" fill="#d1d3d4"/><rect x="229.12" y="178.87" width="49.55" height="15.62" rx="6.26" fill="#fff"/><path d="M272.42,195h-37a6.78,6.78,0,0,1-6.76-6.77v-3.1a6.78,6.78,0,0,1,6.76-6.76h37a6.78,6.78,0,0,1,6.76,6.76v3.1A6.78,6.78,0,0,1,272.42,195Zm-37-15.63a5.77,5.77,0,0,0-5.76,5.76v3.1a5.78,5.78,0,0,0,5.76,5.77h37a5.78,5.78,0,0,0,5.76-5.77v-3.1a5.77,5.77,0,0,0-5.76-5.76Z" fill="#d1d3d4"/><path d="M253.9,106.76a.47.47,0,0,1-.46-.46V99.67a.46.46,0,1,1,.92,0v6.63A.47.47,0,0,1,253.9,106.76Z" fill="#231f20"/><path d="M253.9,137.14a.47.47,0,0,1-.46-.46v-6.63a.46.46,0,1,1,.92,0v6.63A.47.47,0,0,1,253.9,137.14Z" fill="#231f20"/><path d="M262.3,110.24a.47.47,0,0,1-.33-.14.47.47,0,0,1,0-.64l4.69-4.69a.46.46,0,0,1,.65.65l-4.69,4.68A.47.47,0,0,1,262.3,110.24Z" fill="#231f20"/><path d="M240.82,131.72a.47.47,0,0,1-.33-.14.45.45,0,0,1,0-.64l4.69-4.69a.46.46,0,0,1,.65,0,.48.48,0,0,1,0,.65l-4.69,4.68A.47.47,0,0,1,240.82,131.72Z" fill="#231f20"/><path d="M272.41,118.63h-6.64a.46.46,0,0,1,0-.91h6.64a.46.46,0,0,1,0,.91Z" fill="#231f20"/><path d="M242,118.63H235.4a.46.46,0,1,1,0-.91H242a.46.46,0,0,1,0,.91Z" fill="#231f20"/><path d="M267,131.72a.47.47,0,0,1-.33-.14L262,126.9a.48.48,0,0,1,0-.65.46.46,0,0,1,.65,0l4.69,4.69a.45.45,0,0,1,0,.64A.47.47,0,0,1,267,131.72Z" fill="#231f20"/><path d="M245.5,110.24a.47.47,0,0,1-.32-.14l-4.69-4.68a.46.46,0,0,1,.65-.65l4.69,4.69a.47.47,0,0,1,0,.64A.47.47,0,0,1,245.5,110.24Z" fill="#231f20"/><path d="M254,127.25a8.84,8.84,0,1,1,8.84-8.84A8.86,8.86,0,0,1,254,127.25Zm0-16.76a7.92,7.92,0,1,0,7.93,7.92A7.93,7.93,0,0,0,254,110.49Z" fill="#231f20"/><path d="M253.9,106.76a.47.47,0,0,1-.46-.46V99.67a.46.46,0,1,1,.92,0v6.63A.47.47,0,0,1,253.9,106.76Z" fill="none" stroke="#231f20" stroke-linecap="round" stroke-linejoin="round" stroke-width="0.91"/><path d="M253.9,137.14a.47.47,0,0,1-.46-.46v-6.63a.46.46,0,1,1,.92,0v6.63A.47.47,0,0,1,253.9,137.14Z" fill="none" stroke="#231f20" stroke-linecap="round" stroke-linejoin="round" stroke-width="0.91"/><path d="M262.3,110.24a.47.47,0,0,1-.33-.14.47.47,0,0,1,0-.64l4.69-4.69a.46.46,0,0,1,.65.65l-4.69,4.68A.47.47,0,0,1,262.3,110.24Z" fill="none" stroke="#231f20" stroke-linecap="round" stroke-linejoin="round" stroke-width="0.91"/><path d="M240.82,131.72a.47.47,0,0,1-.33-.14.45.45,0,0,1,0-.64l4.69-4.69a.46.46,0,0,1,.65,0,.48.48,0,0,1,0,.65l-4.69,4.68A.47.47,0,0,1,240.82,131.72Z" fill="none" stroke="#231f20" stroke-linecap="round" stroke-linejoin="round" stroke-width="0.91"/><path d="M272.41,118.63h-6.64a.46.46,0,0,1,0-.91h6.64a.46.46,0,0,1,0,.91Z" fill="none" stroke="#231f20" stroke-linecap="round" stroke-linejoin="round" stroke-width="0.91"/><path d="M242,118.63H235.4a.46.46,0,1,1,0-.91H242a.46.46,0,0,1,0,.91Z" fill="none" stroke="#231f20" stroke-linecap="round" stroke-linejoin="round" stroke-width="0.91"/><path d="M267,131.72a.47.47,0,0,1-.33-.14L262,126.9a.48.48,0,0,1,0-.65.46.46,0,0,1,.65,0l4.69,4.69a.45.45,0,0,1,0,.64A.47.47,0,0,1,267,131.72Z" fill="none" stroke="#231f20" stroke-linecap="round" stroke-linejoin="round" stroke-width="0.91"/><path d="M245.5,110.24a.47.47,0,0,1-.32-.14l-4.69-4.68a.46.46,0,0,1,.65-.65l4.69,4.69a.47.47,0,0,1,0,.64A.47.47,0,0,1,245.5,110.24Z" fill="none" stroke="#231f20" stroke-linecap="round" stroke-linejoin="round" stroke-width="0.91"/><path d="M254,127.25a8.84,8.84,0,1,1,8.84-8.84A8.86,8.86,0,0,1,254,127.25Zm0-16.76a7.92,7.92,0,1,0,7.93,7.92A7.93,7.93,0,0,0,254,110.49Z" fill="none" stroke="#231f20" stroke-linecap="round" stroke-linejoin="round" stroke-width="0.91"/><path d="M285.81,87.53H222a.5.5,0,0,1-.5-.5.5.5,0,0,1,.5-.5h63.82a.5.5,0,0,1,.5.5A.5.5,0,0,1,285.81,87.53Z" fill="#d1d3d4"/><rect x="148.13" y="73.33" width="65.85" height="136.93" rx="5.47" fill="#fff"/><path d="M208.51,210.76H153.6a6,6,0,0,1-6-6V78.8a6,6,0,0,1,6-6h54.91a6,6,0,0,1,6,6v126A6,6,0,0,1,208.51,210.76ZM153.6,73.83a5,5,0,0,0-5,5v126a5,5,0,0,0,5,5h54.91a5,5,0,0,0,5-5V78.8a5,5,0,0,0-5-5Z" fill="#d1d3d4"/><rect x="156.28" y="178.87" width="49.55" height="15.62" rx="6.26" fill="#fff"/><path d="M199.57,195h-37a6.77,6.77,0,0,1-6.76-6.77v-3.1a6.77,6.77,0,0,1,6.76-6.76h37a6.77,6.77,0,0,1,6.76,6.76v3.1A6.77,6.77,0,0,1,199.57,195Zm-37-15.63a5.77,5.77,0,0,0-5.76,5.76v3.1a5.77,5.77,0,0,0,5.76,5.77h37a5.77,5.77,0,0,0,5.76-5.77v-3.1a5.77,5.77,0,0,0-5.76-5.76Z" fill="#d1d3d4"/><path d="M213,87.53H149.14a.5.5,0,0,1-.5-.5.51.51,0,0,1,.5-.5H213a.5.5,0,0,1,.5.5A.5.5,0,0,1,213,87.53Z" fill="#d1d3d4"/><path d="M183,129.29l-11.08,0h-.27a7.58,7.58,0,0,1-1.93-14.88l.47-.13c0-6.55,4.32-10.27,8.72-11.06a10.63,10.63,0,0,1,12,7.08l1,0a11.4,11.4,0,0,1,3,.1,9.65,9.65,0,0,1,6.14,4.31,9,9,0,0,1,1.21,6.94h0a7.79,7.79,0,0,1-.28.94c-1.52,4.18-4.88,6.69-9,6.72C189.72,129.28,186.36,129.29,183,129.29Zm-2.19-25.35a10.05,10.05,0,0,0-1.74.16c-4.09.74-8.14,4.27-8,10.49a.44.44,0,0,1-.33.45l-.82.23a6.66,6.66,0,0,0,1.69,13.08H172c6.91,0,14.06.05,21.09,0,3.7,0,6.73-2.32,8.12-6.12.1-.28.18-.56.25-.84h0a8,8,0,0,0-1.1-6.24,8.78,8.78,0,0,0-5.55-3.91,11.19,11.19,0,0,0-2.79-.08c-.46,0-.91,0-1.36,0a.47.47,0,0,1-.43-.31A9.78,9.78,0,0,0,180.83,103.94Z" fill="#231f20"/><line x1="175.76" y1="131.42" x2="172.86" y2="134.32"/><line x1="179.99" y1="136.33" x2="177.09" y2="139.22"/><line x1="187.64" y1="132.39" x2="184.74" y2="135.29"/><path d="M183,129.29l-11.08,0h-.27a7.58,7.58,0,0,1-1.93-14.88l.47-.13c0-6.55,4.32-10.27,8.72-11.06a10.63,10.63,0,0,1,12,7.08l1,0a11.4,11.4,0,0,1,3,.1,9.65,9.65,0,0,1,6.14,4.31,9,9,0,0,1,1.21,6.94h0a7.79,7.79,0,0,1-.28.94c-1.52,4.18-4.88,6.69-9,6.72C189.72,129.28,186.36,129.29,183,129.29Zm-2.19-25.35a10.05,10.05,0,0,0-1.74.16c-4.09.74-8.14,4.27-8,10.49a.44.44,0,0,1-.33.45l-.82.23a6.66,6.66,0,0,0,1.69,13.08H172c6.91,0,14.06.05,21.09,0,3.7,0,6.73-2.32,8.12-6.12.1-.28.18-.56.25-.84h0a8,8,0,0,0-1.1-6.24,8.78,8.78,0,0,0-5.55-3.91,11.19,11.19,0,0,0-2.79-.08c-.46,0-.91,0-1.36,0a.47.47,0,0,1-.43-.31A9.78,9.78,0,0,0,180.83,103.94Z" fill="none" stroke="#231f20" stroke-linecap="round" stroke-linejoin="round" stroke-width="0.91"/><line x1="175.76" y1="131.42" x2="172.86" y2="134.32" fill="none" stroke="#231f20" stroke-linecap="round" stroke-linejoin="round" stroke-width="0.91"/><line x1="179.99" y1="136.33" x2="177.09" y2="139.22" fill="none" stroke="#231f20" stroke-linecap="round" stroke-linejoin="round" stroke-width="0.91"/><line x1="187.64" y1="132.39" x2="184.74" y2="135.29" fill="none" stroke="#231f20" stroke-linecap="round" stroke-linejoin="round" stroke-width="0.91"/><rect x="293.82" y="73.33" width="65.85" height="136.93" rx="5.47" fill="#fff"/><path d="M354.2,210.76H299.29a6,6,0,0,1-6-6V78.8a6,6,0,0,1,6-6H354.2a6,6,0,0,1,6,6v126A6,6,0,0,1,354.2,210.76ZM299.29,73.83a5,5,0,0,0-5,5v126a5,5,0,0,0,5,5H354.2a5,5,0,0,0,5-5V78.8a5,5,0,0,0-5-5Z" fill="#d1d3d4"/><rect x="301.97" y="178.87" width="49.55" height="15.62" rx="6.26" fill="#fff"/><path d="M345.26,195h-37a6.77,6.77,0,0,1-6.76-6.77v-3.1a6.77,6.77,0,0,1,6.76-6.76h37a6.77,6.77,0,0,1,6.76,6.76v3.1A6.77,6.77,0,0,1,345.26,195Zm-37-15.63a5.77,5.77,0,0,0-5.76,5.76v3.1a5.77,5.77,0,0,0,5.76,5.77h37a5.77,5.77,0,0,0,5.76-5.77v-3.1a5.77,5.77,0,0,0-5.76-5.76Z" fill="#d1d3d4"/><path d="M358.66,87.53H294.84a.5.5,0,0,1-.5-.5.5.5,0,0,1,.5-.5h63.82a.51.51,0,0,1,.5.5A.5.5,0,0,1,358.66,87.53Z" fill="#d1d3d4"/><path d="M331.12,132.51l-11.07,0h-.28a7.57,7.57,0,0,1-1.93-14.87l.47-.14c0-6.54,4.32-10.27,8.72-11.06a10.65,10.65,0,0,1,12,7.08l1,0a11.82,11.82,0,0,1,3,.1,9.69,9.69,0,0,1,6.14,4.31,9,9,0,0,1,1.21,6.95h0a8.22,8.22,0,0,1-.28.93c-1.52,4.18-4.88,6.7-9,6.73C337.82,132.5,334.46,132.51,331.12,132.51Zm-2.19-25.34a10.05,10.05,0,0,0-1.74.15c-4.09.74-8.14,4.27-8,10.49a.46.46,0,0,1-.33.46l-.82.23a6.66,6.66,0,0,0,1.7,13.08h.27c6.91,0,14.06,0,21.09,0,3.7,0,6.74-2.31,8.12-6.12a6.68,6.68,0,0,0,.25-.84h0a8.08,8.08,0,0,0-1.09-6.24,8.75,8.75,0,0,0-5.55-3.9,10.79,10.79,0,0,0-2.8-.09c-.45,0-.91,0-1.36,0a.46.46,0,0,1-.43-.31A9.78,9.78,0,0,0,328.93,107.17Z" fill="#231f20"/><path d="M313.93,119a.57.57,0,0,1-.18,0,7.85,7.85,0,1,1,8.61-12.79.45.45,0,0,1,0,.64.46.46,0,0,1-.65,0,6.94,6.94,0,1,0-7.61,11.31.45.45,0,0,1,.25.59A.46.46,0,0,1,313.93,119Z" fill="#231f20"/><path d="M302.18,112.33a10.9,10.9,0,0,1-1.82,0,.44.44,0,0,1-.33-.55.45.45,0,0,1,.52-.34c.34,0,3.5,0,5.43,0a.49.49,0,0,1,.46.46.46.46,0,0,1-.45.46C304.22,112.33,303,112.33,302.18,112.33Z" fill="#231f20"/><path d="M309.32,104.46a.48.48,0,0,1-.31-.13l-4.18-4a.46.46,0,0,1,.63-.67l4.18,4a.46.46,0,0,1,0,.64A.46.46,0,0,1,309.32,104.46Z" fill="#231f20"/><path d="M316.79,101.5a.45.45,0,0,1-.46-.45v-5.8a.46.46,0,0,1,.91,0v5.8A.45.45,0,0,1,316.79,101.5Z" fill="#231f20"/><path d="M324.3,104.68a.45.45,0,0,1-.32-.14.46.46,0,0,1,0-.65l4.29-4.12a.46.46,0,0,1,.63.66l-4.29,4.12A.48.48,0,0,1,324.3,104.68Z" fill="#231f20"/><path d="M303.88,122.63a.46.46,0,0,1-.35-.17.45.45,0,0,1,.07-.64l5-4.09a.46.46,0,0,1,.57.71l-5.05,4.09A.43.43,0,0,1,303.88,122.63Z" fill="#231f20"/><line x1="323.86" y1="134.65" x2="320.96" y2="137.54"/><line x1="328.09" y1="139.55" x2="325.2" y2="142.44"/><line x1="335.74" y1="135.61" x2="332.84" y2="138.51"/><path d="M331.12,132.51l-11.07,0h-.28a7.57,7.57,0,0,1-1.93-14.87l.47-.14c0-6.54,4.32-10.27,8.72-11.06a10.65,10.65,0,0,1,12,7.08l1,0a11.82,11.82,0,0,1,3,.1,9.69,9.69,0,0,1,6.14,4.31,9,9,0,0,1,1.21,6.95h0a8.22,8.22,0,0,1-.28.93c-1.52,4.18-4.88,6.7-9,6.73C337.82,132.5,334.46,132.51,331.12,132.51Zm-2.19-25.34a10.05,10.05,0,0,0-1.74.15c-4.09.74-8.14,4.27-8,10.49a.46.46,0,0,1-.33.46l-.82.23a6.66,6.66,0,0,0,1.7,13.08h.27c6.91,0,14.06,0,21.09,0,3.7,0,6.74-2.31,8.12-6.12a6.68,6.68,0,0,0,.25-.84h0a8.08,8.08,0,0,0-1.09-6.24,8.75,8.75,0,0,0-5.55-3.9,10.79,10.79,0,0,0-2.8-.09c-.45,0-.91,0-1.36,0a.46.46,0,0,1-.43-.31A9.78,9.78,0,0,0,328.93,107.17Z" fill="none" stroke="#231f20" stroke-linecap="round" stroke-linejoin="round" stroke-width="0.91"/><path d="M313.93,119a.57.57,0,0,1-.18,0,7.85,7.85,0,1,1,8.61-12.79.45.45,0,0,1,0,.64.46.46,0,0,1-.65,0,6.94,6.94,0,1,0-7.61,11.31.45.45,0,0,1,.25.59A.46.46,0,0,1,313.93,119Z" fill="none" stroke="#231f20" stroke-linecap="round" stroke-linejoin="round" stroke-width="0.91"/><path d="M302.18,112.33a10.9,10.9,0,0,1-1.82,0,.44.44,0,0,1-.33-.55.45.45,0,0,1,.52-.34c.34,0,3.5,0,5.43,0a.49.49,0,0,1,.46.46.46.46,0,0,1-.45.46C304.22,112.33,303,112.33,302.18,112.33Z" fill="none" stroke="#231f20" stroke-linecap="round" stroke-linejoin="round" stroke-width="0.91"/><path d="M309.32,104.46a.48.48,0,0,1-.31-.13l-4.18-4a.46.46,0,0,1,.63-.67l4.18,4a.46.46,0,0,1,0,.64A.46.46,0,0,1,309.32,104.46Z" fill="none" stroke="#231f20" stroke-linecap="round" stroke-linejoin="round" stroke-width="0.91"/><path d="M316.79,101.5a.45.45,0,0,1-.46-.45v-5.8a.46.46,0,0,1,.91,0v5.8A.45.45,0,0,1,316.79,101.5Z" fill="none" stroke="#231f20" stroke-linecap="round" stroke-linejoin="round" stroke-width="0.91"/><path d="M324.3,104.68a.45.45,0,0,1-.32-.14.46.46,0,0,1,0-.65l4.29-4.12a.46.46,0,0,1,.63.66l-4.29,4.12A.48.48,0,0,1,324.3,104.68Z" fill="none" stroke="#231f20" stroke-linecap="round" stroke-linejoin="round" stroke-width="0.91"/><path d="M303.88,122.63a.46.46,0,0,1-.35-.17.45.45,0,0,1,.07-.64l5-4.09a.46.46,0,0,1,.57.71l-5.05,4.09A.43.43,0,0,1,303.88,122.63Z" fill="none" stroke="#231f20" stroke-linecap="round" stroke-linejoin="round" stroke-width="0.91"/><line x1="323.86" y1="134.65" x2="320.96" y2="137.54" fill="none" stroke="#231f20" stroke-linecap="round" stroke-linejoin="round" stroke-width="0.91"/><line x1="328.09" y1="139.55" x2="325.2" y2="142.44" fill="none" stroke="#231f20" stroke-linecap="round" stroke-linejoin="round" stroke-width="0.91"/><line x1="335.74" y1="135.61" x2="332.84" y2="138.51" fill="none" stroke="#231f20" stroke-linecap="round" stroke-linejoin="round" stroke-width="0.91"/><path d="M126.34,231.57a90.31,90.31,0,0,0-.42-15.39c-3.38-24.78-6.76-31.16-6.76-31.16L73,183.51s-4.53,24.25-6.4,48.06Z" fill="#231f20"/><path d="M126.34,232H66.58a.43.43,0,0,1-.32-.14.42.42,0,0,1-.12-.34c1.86-23.55,6.37-47.85,6.41-48.1a.45.45,0,0,1,.45-.36l46.17,1.51a.43.43,0,0,1,.38.23c.14.26,3.45,6.73,6.8,31.31a88.87,88.87,0,0,1,.43,15.47A.44.44,0,0,1,126.34,232Zm-59.28-.88h58.86a88.37,88.37,0,0,0-.44-14.9c-3-21.91-6-29.45-6.6-30.78L73.35,184C72.78,187.1,68.8,209.36,67.06,231.13Z" fill="#231f20"/><path d="M136.93,163.74s24.9-4.47,32.6-8.68c0,0,4.21-9.35,5.68-9.16s-1.8,7.49-1.8,7.49,9.7-4.56,12.31-5.81a3.3,3.3,0,0,1,2.42-.46c-.09,1.17-1.1,2-2.06,2.68a48.61,48.61,0,0,1-4.7,2.94,38.1,38.1,0,0,1-.28,4.41,11,11,0,0,1-2.4,4.29c-2.38,2.62-6,3.58-9.17,5-6.6,2.93-38.46,18.76-38.46,18.76Z" fill="#fff"/><path d="M131.07,185.63a.43.43,0,0,1-.29-.1.47.47,0,0,1-.16-.47l5.87-21.44a.45.45,0,0,1,.36-.33c.24,0,24.63-4.45,32.32-8.56,1.64-3.62,4.57-9.46,6.09-9.29a.83.83,0,0,1,.64.44c.6,1.08-.71,4.54-1.58,6.58,2.62-1.23,9.13-4.3,11.2-5.29a3.7,3.7,0,0,1,2.77-.48.46.46,0,0,1,.3.47c-.1,1.34-1.19,2.28-2.24,3a51.4,51.4,0,0,1-4.53,2.84,32.75,32.75,0,0,1-.28,4.25,11.38,11.38,0,0,1-2.51,4.48c-1.9,2.1-4.56,3.16-7.13,4.18-.74.3-1.48.59-2.19.9-6.51,2.9-38.12,18.6-38.44,18.76A.51.51,0,0,1,131.07,185.63Zm6.22-21.49-5.52,20.18c5.27-2.62,31.67-15.7,37.57-18.32.72-.32,1.47-.62,2.22-.92,2.48-1,5-2,6.8-4a10.49,10.49,0,0,0,2.31-4.11c.09-.36.28-3.7.27-4.18a.44.44,0,0,1,0-.1.45.45,0,0,1,.24-.4,49.73,49.73,0,0,0,4.66-2.91,4.44,4.44,0,0,0,1.78-1.94,3.79,3.79,0,0,0-1.69.5c-2.61,1.25-12.31,5.82-12.31,5.82a.46.46,0,0,1-.61-.61c1.46-3.19,2.45-6.41,2.11-6.88-.72.16-3.27,4.73-5.16,8.93a.48.48,0,0,1-.19.21C162.43,159.46,140.21,163.61,137.29,164.14Z" fill="#231f20"/><path d="M80.47,120.16c-2.32-3.75-.17-25.2,2.88-30.45,4.14-7.11,15.08-12.48,23.1-9.42,8.35,3.18,10.89,13,11.24,21.08.28,6.47-.62,12.93-1.52,19.35C105.25,124.5,91.24,124.35,80.47,120.16Z" fill="#fff"/><path d="M99.1,123.89a52.59,52.59,0,0,1-18.8-3.3.45.45,0,0,1-.22-.19C77.75,116.64,79.77,95,83,89.48c4.1-7,15.33-12.79,23.65-9.62,9.38,3.58,11.25,15,11.54,21.49s-.64,13.09-1.53,19.44a.43.43,0,0,1-.3.36A53.25,53.25,0,0,1,99.1,123.89Zm-18.32-4.1c10.48,4,24.15,4.26,35,.59.87-6.21,1.75-12.64,1.47-19s-2.06-17.29-11-20.68c-7.91-3-18.61,2.48-22.53,9.23C80.77,95.05,78.73,115.92,80.78,119.79Z" fill="#231f20"/><path d="M121.61,133.9l21.65,27.75s-1.26,6.23-10.51,27C124.6,184.6,110,158.94,110,158.94Z" fill="#68e1fd"/><path d="M100.21,123.82s17.94,2,22.17,10.65,3.1,60.14,3.1,60.14l-57.74,1.28s-2.3-51.94,5.12-65.4C75.68,122.89,83.16,122.89,100.21,123.82Z" fill="#68e1fd"/><polygon points="89.63 124.77 91 195.53 109.05 194.68 105.52 128.21 89.63 124.77" fill="#fff"/><path d="M105.46,117.74l.06,10.47s-1.06,5.85-7.43,4.07a13.17,13.17,0,0,1-8.46-7.51l.72-18.13a32.39,32.39,0,0,0,1.05-9.72c7.74-.12,13.83-6,13.83-6s2.66,4,3.82,5.26a15.86,15.86,0,0,1,2.39,3.15c1.08,2,1,4.54,1,6.76a44.42,44.42,0,0,1-.78,7.89C110.61,119,105.46,117.74,105.46,117.74Z" fill="#fff"/><path d="M100.36,133.08a8.78,8.78,0,0,1-2.39-.36,13.53,13.53,0,0,1-8.77-7.79.37.37,0,0,1,0-.18s.71-18,.72-18.12a5.51,5.51,0,0,1,.18-.92A30.14,30.14,0,0,0,91,96.93a.45.45,0,0,1,.12-.33.55.55,0,0,1,.33-.14c7.46-.11,13.46-5.77,13.52-5.83a.47.47,0,0,1,.36-.13.44.44,0,0,1,.33.21s2.66,4,3.78,5.2a16.52,16.52,0,0,1,2.46,3.25c1.14,2.14,1.08,4.83,1,7a43.15,43.15,0,0,1-.8,8,5.06,5.06,0,0,1-2.17,3.4,6.28,6.28,0,0,1-4,.77l.06,9.93a6.43,6.43,0,0,1-2.65,4.06A5.49,5.49,0,0,1,100.36,133.08ZM90.09,124.7a12.83,12.83,0,0,0,8.13,7.14,5.62,5.62,0,0,0,4.61-.34,5.55,5.55,0,0,0,2.24-3.37L105,117.74a.46.46,0,0,1,.17-.36.5.5,0,0,1,.39-.09,5.66,5.66,0,0,0,3.87-.56,4.16,4.16,0,0,0,1.76-2.8,43.19,43.19,0,0,0,.78-7.81c0-2.15.1-4.6-.93-6.53a15.36,15.36,0,0,0-2.33-3.06c-.95-1-2.83-3.8-3.56-4.88-1.47,1.28-6.71,5.43-13.28,5.72a30.32,30.32,0,0,1-.9,8.57,5,5,0,0,0-.16.72h0S90.8,107,90.09,124.7Z" fill="#231f20"/><path d="M105.4,122.88s-4.25.19-7-2.64a7.3,7.3,0,0,1-2.33-5.69s4.59,3.08,9.37,3.19Z" fill="#231f20"/><path d="M105.21,123.33a10.27,10.27,0,0,1-7.11-2.79,7.71,7.71,0,0,1-2.45-6.05.44.44,0,0,1,.26-.34.45.45,0,0,1,.42,0s4.55,3,9.14,3.12a.44.44,0,0,1,.43.44l-.06,5.15a.44.44,0,0,1-.42.43Zm.19-.45h0Zm-8.88-7.55a7.33,7.33,0,0,0,2.21,4.6,9.43,9.43,0,0,0,6.23,2.51l.05-4.28A20.17,20.17,0,0,1,96.52,115.33Z" fill="#231f20"/><path d="M101.75,102.7s3.37,5,2.57,5.9-3,.3-3,.3" fill="#fff"/><path d="M102.76,109.53a6.37,6.37,0,0,1-1.59-.21.44.44,0,1,1,.22-.85c.77.19,2.15.32,2.6-.17.22-.44-1-3-2.61-5.36a.44.44,0,0,1,.74-.49c1.33,2,3.43,5.47,2.52,6.45A2.52,2.52,0,0,1,102.76,109.53Z" fill="#231f20"/><ellipse cx="106.53" cy="101.8" rx="0.58" ry="1.09" transform="translate(-3.92 4.27) rotate(-2.25)" fill="#231f20"/><ellipse cx="98.55" cy="100.81" rx="0.58" ry="1.09" transform="translate(-3.89 3.95) rotate(-2.25)" fill="#231f20"/><path d="M104,111.55l-2.68-.68s-.55,3.91,1,4.26S104,111.55,104,111.55Z" fill="#fff"/><path d="M102.51,115.59a1.33,1.33,0,0,1-.28,0c-1.82-.41-1.41-4-1.3-4.75a.4.4,0,0,1,.19-.31.43.43,0,0,1,.35-.06l2.68.69a.44.44,0,0,1,.34.45c0,.3-.19,3-1.25,3.76A1.17,1.17,0,0,1,102.51,115.59Zm-.76-4.17c-.12,1.38,0,3.12.67,3.28a.35.35,0,0,0,.29-.07c.49-.37.77-1.75.86-2.74Z" fill="#231f20"/><path d="M125.64,183.86a.44.44,0,0,1-.43-.35l-9.78-44.86a.45.45,0,0,1,.34-.53.44.44,0,0,1,.52.34l9.78,44.86a.45.45,0,0,1-.34.53Z" fill="#231f20"/><path d="M72.86,130.49S58.83,159,53,167.28s-6.36,22.66-6.36,22.66l17.59-1.28s16.12-26.2,20.7-32.79Z" fill="#68e1fd"/><polygon points="79.49 198.91 92.22 159.77 117.56 163.43 106.23 204.82 79.49 198.91" fill="#231f20"/><path d="M106.23,205.26h-.09l-26.75-5.91a.49.49,0,0,1-.29-.22.42.42,0,0,1,0-.35l12.74-39.14a.44.44,0,0,1,.48-.3L117.63,163a.44.44,0,0,1,.3.2.45.45,0,0,1,.06.36l-11.33,41.39A.44.44,0,0,1,106.23,205.26Zm-26.17-6.68,25.86,5.72L117,163.79l-24.48-3.53Z" fill="#231f20"/><path d="M61.16,177c8.4-1.42,18,.44,26.34,1.33,5.16.56,10.27,2.07,15.5,1.66,2.12-.16,3.48-.23,5.32-1.36,2.41-1.48,4.81-3,7.21-4.48a6.3,6.3,0,0,1-.28,2.36c1,0,2.24,0,2.91.79s.48,2.1.2,3.17c-1.14,4.39-3.89,6.81-8.3,8.1a39.57,39.57,0,0,1-9.35,1.16c-7.8.34-15.54.54-23.31,1.05a240.14,240.14,0,0,1-24.15.54c-.74,0-6.75.07-6.64-1.41" fill="#fff"/><path d="M59.78,191.92c-2.24,0-4.41,0-6.54-.12h-.36c-3.78,0-5.77-.39-6.45-1.13a1,1,0,0,1-.28-.76.46.46,0,0,1,.92.06c.3.37,1.41.86,5.82.91h.38a237.19,237.19,0,0,0,24.1-.53c5.36-.36,10.8-.57,16.06-.77,2.41-.09,4.84-.18,7.26-.29a39,39,0,0,0,9.25-1.14c4.46-1.31,6.92-3.7,8-7.77.27-1,.45-2.11-.11-2.77a3.14,3.14,0,0,0-2.54-.62.5.5,0,0,1-.38-.18.45.45,0,0,1-.07-.42,6,6,0,0,0,.26-1.4l-1.71,1.06q-2.4,1.5-4.81,3a10.35,10.35,0,0,1-5.34,1.41l-.18,0a43,43,0,0,1-10.47-.9c-1.68-.29-3.42-.58-5.12-.76s-3.49-.41-5.29-.64c-7-.89-14.31-1.81-20.93-.7a.45.45,0,0,1-.52-.38.45.45,0,0,1,.37-.52c6.75-1.14,14.09-.21,21.2.69,1.79.23,3.55.46,5.26.64s3.49.48,5.18.77a42.43,42.43,0,0,0,10.25.89l.18,0a9.33,9.33,0,0,0,4.93-1.28c1.61-1,3.21-2,4.8-3l2.41-1.5a.48.48,0,0,1,.45,0,.45.45,0,0,1,.24.37,7,7,0,0,1-.13,1.93,3.45,3.45,0,0,1,2.66,1c.82,1,.63,2.3.29,3.59-1.13,4.35-3.87,7-8.61,8.41a39,39,0,0,1-9.46,1.18l-7.27.3c-5.25.2-10.68.4-16,.76C70.88,191.7,65.13,191.92,59.78,191.92Z" fill="#231f20"/><path d="M72.62,174.45a.58.58,0,0,1-.18,0,.45.45,0,0,1-.22-.59l12.09-26.38a.45.45,0,0,1,.59-.22.45.45,0,0,1,.22.59L73,174.19A.46.46,0,0,1,72.62,174.45Z" fill="#231f20"/><path d="M93.85,101.27a9.81,9.81,0,0,0-1.95-3.54,3.39,3.39,0,0,0-3.72-.91c-1.35.67-1.8,2.38-1.79,3.88a16.54,16.54,0,0,0,.91,5,5.83,5.83,0,0,0,1.44,2.61,2.31,2.31,0,0,0,2.76.4" fill="#fff"/><path d="M90.48,109.49a3.14,3.14,0,0,1-2-.82,6.3,6.3,0,0,1-1.56-2.81,16.55,16.55,0,0,1-.94-5.16c0-1,.2-3.37,2-4.28a3.83,3.83,0,0,1,4.24,1,10.51,10.51,0,0,1,2.06,3.71.46.46,0,0,1-.27.59.47.47,0,0,1-.59-.26,9.44,9.44,0,0,0-1.85-3.39,2.93,2.93,0,0,0-3.19-.81c-1.43.7-1.54,2.83-1.54,3.46a16,16,0,0,0,.9,4.88A5.33,5.33,0,0,0,89.05,108a1.87,1.87,0,0,0,2.19.35.46.46,0,0,1,.64.12.45.45,0,0,1-.12.63A2.22,2.22,0,0,1,90.48,109.49Z" fill="#231f20"/><rect x="43.12" y="74.94" width="27.78" height="12.17" fill="#fff"/><path d="M70.9,87.61H43.12a.5.5,0,0,1-.5-.5V74.94a.5.5,0,0,1,.5-.5H70.9a.5.5,0,0,1,.5.5V87.11A.51.51,0,0,1,70.9,87.61Zm-27.28-1H70.4V75.44H43.62Z" fill="#d1d3d4"/><path d="M47.57,77.73H49V83h2.71v1.35H47.57Z" fill="#d1d3d4"/><path d="M52.54,77.73H54v6.64H52.54Z" fill="#d1d3d4"/><path d="M54.67,77.73h1.67L58,82.08h0l1.67-4.35h1.57L58.5,84.37H57.33Z" fill="#d1d3d4"/><path d="M62,77.73H66.5v1.35h-3v1.24h2.88v1.35H63.46V83h3.21v1.35H62Z" fill="#d1d3d4"/><path d="M358.37,222.21H250.82a.5.5,0,0,1-.5-.5.5.5,0,0,1,.5-.5H358.37a.5.5,0,0,1,.5.5A.5.5,0,0,1,358.37,222.21Z" fill="#d1d3d4"/><path d="M106.23,205.26h-.09l-26.75-5.91a.45.45,0,0,1-.34-.53.45.45,0,0,1,.53-.34l26.35,5.83,4.34-14.25a.44.44,0,1,1,.85.26L106.66,205A.44.44,0,0,1,106.23,205.26Z" fill="#fff"/></g></svg>