<svg xmlns="http://www.w3.org/2000/svg" viewBox="0 0 400 300"><g id="_176_winner_flatline" data-name="#176_winner_flatline"><rect x="156.03" y="201.59" width="84.45" height="62.85" fill="#fff"/><path d="M240.48,264.94H156a.5.5,0,0,1-.5-.5V201.59a.5.5,0,0,1,.5-.5h84.45a.5.5,0,0,1,.5.5v62.85A.5.5,0,0,1,240.48,264.94Zm-83.95-1H240V202.09H156.53Z" fill="#231f20"/><rect x="71.58" y="216.12" width="84.45" height="48.32" fill="#fff"/><path d="M156,264.94H71.58a.5.5,0,0,1-.5-.5V216.12a.5.5,0,0,1,.5-.5H156a.5.5,0,0,1,.5.5v48.32A.5.5,0,0,1,156,264.94Zm-83.95-1h83.45V216.62H72.08Z" fill="#231f20"/><rect x="240.48" y="227.52" width="84.45" height="36.92" fill="#fff"/><path d="M324.94,264.94H240.48a.51.51,0,0,1-.5-.5V227.52a.51.51,0,0,1,.5-.5h84.46a.51.51,0,0,1,.5.5v36.92A.51.51,0,0,1,324.94,264.94Zm-84-1h83.46V228H241Z" fill="#231f20"/><path d="M199.21,245.94V227l-4.82,3.72-3.18-4.34,8.5-6.25h5.59v25.85Z" fill="#68e1fd"/><path d="M106,251.65v-4.37l8.63-7.81a8.18,8.18,0,0,0,1.32-1.59,3.42,3.42,0,0,0,.5-1.81,2.57,2.57,0,0,0-.75-1.92,3,3,0,0,0-4.15.18,4.18,4.18,0,0,0-1,2.43l-5-.69a7.75,7.75,0,0,1,2.78-5.26,8.14,8.14,0,0,1,2.59-1.42,9.74,9.74,0,0,1,3.08-.48,10.91,10.91,0,0,1,3,.4,7.88,7.88,0,0,1,2.57,1.25,6.26,6.26,0,0,1,1.79,2.13,6.39,6.39,0,0,1,.68,3,6.82,6.82,0,0,1-.32,2.14,6.6,6.6,0,0,1-.86,1.77,9.46,9.46,0,0,1-1.25,1.51c-.47.47-1,.94-1.45,1.4L113,247.09h9v4.56Z" fill="#d1d3d4"/><path d="M291.33,250.62a6.36,6.36,0,0,1-.73,3.14,6.59,6.59,0,0,1-1.93,2.19,8.46,8.46,0,0,1-2.67,1.28,11.06,11.06,0,0,1-3,.42,12.43,12.43,0,0,1-2.93-.34,9.33,9.33,0,0,1-2.6-1.05,7.7,7.7,0,0,1-2.05-1.82,7.58,7.58,0,0,1-1.31-2.67l4.88-1.28a3.91,3.91,0,0,0,1.29,1.92,3.67,3.67,0,0,0,2.47.83,4.18,4.18,0,0,0,1.14-.16,3,3,0,0,0,1-.48,2.73,2.73,0,0,0,.75-.86,2.68,2.68,0,0,0,.3-1.32,2.44,2.44,0,0,0-.39-1.41,2.87,2.87,0,0,0-1-.89,5.32,5.32,0,0,0-1.46-.47,9.87,9.87,0,0,0-1.63-.14H280V243.7h1.53a9.55,9.55,0,0,0,1.44-.11,3.88,3.88,0,0,0,1.23-.41,2.23,2.23,0,0,0,1.21-2.13,2.13,2.13,0,0,0-.85-1.83,3.21,3.21,0,0,0-1.94-.62,3,3,0,0,0-2,.67,3.15,3.15,0,0,0-1.08,1.8l-4.88-1.13a7.27,7.27,0,0,1,1.22-2.46,7.62,7.62,0,0,1,1.92-1.75,8.83,8.83,0,0,1,2.43-1.06,10.09,10.09,0,0,1,2.69-.36,11,11,0,0,1,2.86.37,7.91,7.91,0,0,1,2.49,1.16,6.26,6.26,0,0,1,1.77,2,5.5,5.5,0,0,1,.67,2.78,4.7,4.7,0,0,1-1.05,3.11,5.08,5.08,0,0,1-2.67,1.71v.1a5.66,5.66,0,0,1,1.72.7,5.37,5.37,0,0,1,1.34,1.16,5,5,0,0,1,1.19,3.26Z" fill="#d1d3d4"/><path d="M192.39,102.16s-2.39-9.11-1.61-9.74a5.52,5.52,0,0,1,2.51-.73s1.82-7.44,9.24-8.7c1.21-.21,3.68,2,3.68,4.13s-3.29,4.57-3.29,4.57S194.15,102.47,192.39,102.16Z" fill="#fff"/><path d="M192.43,102.62h-.12a.47.47,0,0,1-.36-.33c-1.64-6.24-2.13-9.67-1.46-10.21a5.1,5.1,0,0,1,2.45-.81c.46-1.47,2.78-7.58,9.51-8.72a3.06,3.06,0,0,1,2.28.91,5.15,5.15,0,0,1,1.94,3.67c0,2.23-3,4.58-3.43,4.91C201.14,94.6,194.45,102.62,192.43,102.62ZM202.7,83.43h-.09c-7.05,1.2-8.86,8.29-8.88,8.36a.46.46,0,0,1-.42.35,4.85,4.85,0,0,0-2.25.62c-.22.56.66,5,1.67,8.88,1.42-.6,6-5.57,9.84-10.24a.3.3,0,0,1,.08-.08c.87-.64,3.11-2.64,3.11-4.21a4.35,4.35,0,0,0-1.62-3A2.61,2.61,0,0,0,202.7,83.43Z" fill="#231f20"/><polyline points="206.38 167.41 216.99 197.44 222.01 191.39 215.81 164.24" fill="#fff"/><path d="M217,197.9h-.08a.46.46,0,0,1-.35-.3l-10.61-30a.46.46,0,0,1,.28-.59.47.47,0,0,1,.58.28l10.34,29.28,4.37-5.26-6.15-26.93a.45.45,0,0,1,.34-.55.47.47,0,0,1,.55.35l6.2,27.14a.48.48,0,0,1-.09.4l-5,6A.43.43,0,0,1,217,197.9Z" fill="#231f20"/><path d="M188.92,170.59S174.35,189.3,169,193.21l-4.29-3.85s12.58-19.61,16.07-25.75Z" fill="#fff"/><path d="M169,193.67a.47.47,0,0,1-.31-.12l-4.28-3.85a.45.45,0,0,1-.08-.58c.12-.2,12.61-19.67,16-25.74a.49.49,0,0,1,.32-.22.46.46,0,0,1,.38.1l8.1,7a.45.45,0,0,1,.06.62c-.6.77-14.67,18.81-20,22.71A.46.46,0,0,1,169,193.67Zm-3.69-4.39,3.71,3.34c5-4,17.26-19.46,19.23-22l-7.35-6.33C177.42,170.4,167,186.76,165.35,189.28Z" fill="#231f20"/><path d="M186.34,137.13c-4.1,10.4-9.13,28.48-9.13,28.48l12.4,7.45S196.07,159,199,148.94l5.21,22.19,15.58-3.91-9-30.09Z" fill="#231f20"/><path d="M189.61,173.5a.46.46,0,0,1-.23-.06L177,166a.45.45,0,0,1-.2-.5c.05-.18,5.08-18.22,9.14-28.53a.44.44,0,0,1,.41-.28h24.4a.45.45,0,0,1,.42.32l9.05,30.09a.47.47,0,0,1,0,.35.46.46,0,0,1-.28.21l-15.58,3.91a.41.41,0,0,1-.34-.06.45.45,0,0,1-.2-.27l-4.83-20.59A236.48,236.48,0,0,1,190,173.25a.41.41,0,0,1-.27.23A.3.3,0,0,1,189.61,173.5Zm-11.88-8.09,11.68,7c1.13-2.48,6.57-14.71,9.16-23.61a.44.44,0,0,1,.43-.32.45.45,0,0,1,.42.34l5.11,21.75,14.7-3.69-8.82-29.33H186.64C182.91,147.1,178.42,163,177.73,165.41Z" fill="#231f20"/><path d="M216.48,195.71l5.53-4.32s8.27-2.34,8.64-1-12.35,11.47-12.35,11.47Z" fill="#231f20"/><path d="M218.29,202.27a.32.32,0,0,1-.13,0,.42.42,0,0,1-.29-.29l-1.81-6.12a.46.46,0,0,1,.15-.48l5.53-4.32a.55.55,0,0,1,.15-.08c4-1.12,8.78-2.15,9.19-.73s-6.6,7.22-12.51,12A.47.47,0,0,1,218.29,202.27Zm-1.3-6.4,1.54,5.21c5.56-4.47,11.23-9.47,11.67-10.6-.65-.33-4.21.25-8,1.31Z" fill="#231f20"/><path d="M164.75,189.36s-2.58,2.52-2.49,2.89,10.43,10.71,10.52,8.57-3.74-7.61-3.74-7.61Z" fill="#231f20"/><path d="M172.52,201.55c-2.16,0-10.66-9.09-10.68-9.19s-.16-.62,2.61-3.31a.43.43,0,0,1,.6,0l4.28,3.84c.47.65,4,5.73,3.89,8a.68.68,0,0,1-.63.71Zm-9.76-9.37c1.06,1.31,8,8,9.58,8.46-.1-1.75-2.65-5.74-3.66-7.18L164.77,190A20.14,20.14,0,0,0,162.76,192.18Z" fill="#231f20"/><path d="M189.15,53.84c-10.9-3.7-10-15-9.94-15.1l.09-1H186v2.14h-4.64a12.3,12.3,0,0,0,8.53,11.91Z" fill="#231f20"/><path d="M189.15,54.28a.34.34,0,0,1-.14,0c-11.21-3.81-10.25-15.45-10.24-15.57l.09-1a.44.44,0,0,1,.44-.4H186a.44.44,0,0,1,.44.44v2.14a.44.44,0,0,1-.44.44h-4.19a11.75,11.75,0,0,0,8.22,11,.43.43,0,0,1,.25.23.42.42,0,0,1,0,.33l-.69,2A.44.44,0,0,1,189.15,54.28ZM179.7,38.21l0,.57c0,.1-.86,10.78,9.23,14.5l.4-1.19a12.67,12.67,0,0,1-8.41-12.18.41.41,0,0,1,.12-.31.44.44,0,0,1,.32-.13h4.2V38.21Z" fill="#231f20"/><path d="M204.39,53.84l-.69-2a12.31,12.31,0,0,0,8.53-11.91h-4.64V37.77h6.65l.09,1C214.34,38.85,215.29,50.14,204.39,53.84Z" fill="#231f20"/><path d="M204.39,54.28A.43.43,0,0,1,204,54l-.69-2a.42.42,0,0,1,0-.33.49.49,0,0,1,.26-.23,11.77,11.77,0,0,0,8.22-11h-4.19a.44.44,0,0,1-.44-.44V37.77a.44.44,0,0,1,.44-.44h6.65a.44.44,0,0,1,.44.4l.09,1c0,.12,1,11.74-10.24,15.57A.36.36,0,0,1,204.39,54.28Zm-.13-2.19.4,1.19c10.1-3.73,9.24-14.39,9.23-14.5l0-.57H208v1.26h4.2a.44.44,0,0,1,.32.13.45.45,0,0,1,.12.31A12.68,12.68,0,0,1,204.26,52.09Z" fill="#231f20"/><path d="M208.07,35.76l-22.6-.2s-.2,9.7,2.28,15.85c2.05,5.11,4.54,7.12,6.65,7.94a6,6,0,0,1,.44,2.52,12.68,12.68,0,0,1-1.2,4.26h6.26a9.2,9.2,0,0,1-1.25-4.21,11.2,11.2,0,0,1,.39-2.56,15.35,15.35,0,0,0,7-8.29C208.14,45.39,208.07,35.76,208.07,35.76Z" fill="#fff"/><path d="M199.9,66.63h-6.26a.5.5,0,0,1-.43-.24.48.48,0,0,1,0-.48,12.12,12.12,0,0,0,1.15-4.07,5.47,5.47,0,0,0-.33-2.1c-2.76-1.16-5-3.9-6.73-8.15C184.8,45.42,185,36,185,35.55a.51.51,0,0,1,.5-.49h0l22.59.2a.5.5,0,0,1,.5.5c0,.4,0,9.78-2.11,15.49a16,16,0,0,1-7,8.46,10.94,10.94,0,0,0-.31,2.22,8.69,8.69,0,0,0,1.18,3.94.52.52,0,0,1,0,.51A.52.52,0,0,1,199.9,66.63Zm-5.49-1h4.67a8.53,8.53,0,0,1-.93-3.72,12.18,12.18,0,0,1,.4-2.67.5.5,0,0,1,.27-.33,14.84,14.84,0,0,0,6.71-8c1.81-4.81,2-12.62,2-14.64L186,36.07c0,2,.15,10,2.24,15.15,1.64,4.09,3.79,6.66,6.37,7.67a.53.53,0,0,1,.29.28,6.62,6.62,0,0,1,.47,2.72A12.28,12.28,0,0,1,194.41,65.63Z" fill="#231f20"/><path d="M188.36,62h16.81a1.25,1.25,0,0,1,1.25,1.25v5a0,0,0,0,1,0,0H187.12a0,0,0,0,1,0,0v-5A1.25,1.25,0,0,1,188.36,62Z" fill="#fff"/><path d="M206.42,68.71h-19.3a.5.5,0,0,1-.5-.5v-5a1.75,1.75,0,0,1,1.74-1.75h16.81a1.75,1.75,0,0,1,1.75,1.75v5A.5.5,0,0,1,206.42,68.71Zm-18.8-1h18.3V63.25a.75.75,0,0,0-.75-.75H188.36a.75.75,0,0,0-.74.75Z" fill="#231f20"/><rect x="179.18" y="68.05" width="35.18" height="4.9" rx="1.53" fill="#fff"/><path d="M212.82,73.45H180.71a2,2,0,0,1-2-2V69.58a2,2,0,0,1,2-2h32.11a2,2,0,0,1,2,2v1.84A2,2,0,0,1,212.82,73.45Zm-32.11-4.9a1,1,0,0,0-1,1v1.84a1,1,0,0,0,1,1h32.11a1,1,0,0,0,1-1V69.58a1,1,0,0,0-1-1Z" fill="#231f20"/><path d="M213.41,139.82s-2.74-19.74-2.44-21.59l-6.14-10.82-11.61.8-7.35,11.25s-.69,4.07-2.56,23.36Z" fill="#68e1fd"/><path d="M201.6,105.27c.37,2.37,1.94,7.45-2.7,6.46a5.06,5.06,0,0,1-1.37-.6c-2.75-1.55-2.9-3.23-3.11-6.17-.09-1.27-.41-9.35-.41-9.35l8.91-3.92s1.35,8.84,1.2,11.52A2.24,2.24,0,0,1,201.6,105.27Z" fill="#fff"/><path d="M200,112.31a5.62,5.62,0,0,1-1.16-.14,5.23,5.23,0,0,1-1.5-.64c-3-1.69-3.13-3.62-3.35-6.53-.09-1.27-.39-9-.41-9.37a.49.49,0,0,1,.28-.44l8.91-3.91a.47.47,0,0,1,.4,0,.5.5,0,0,1,.24.33c.05.37,1.35,8.92,1.19,11.61a2.49,2.49,0,0,1-.83,1.84,3,3,0,0,1-1.6.64q0,.21.09.45c.34,1.81.81,4.3-.41,5.5A2.58,2.58,0,0,1,200,112.31ZM194.48,95.9c.06,1.5.31,7.92.39,9,.22,2.9.32,4.36,2.88,5.81a4.78,4.78,0,0,0,1.25.54,2.36,2.36,0,0,0,2.18-.28c.87-.85.45-3.06.15-4.67-.07-.36-.13-.7-.18-1a.47.47,0,0,1,.12-.38.44.44,0,0,1,.37-.14,2.35,2.35,0,0,0,1.51-.45,1.61,1.61,0,0,0,.51-1.19c.13-2.2-.81-8.81-1.1-10.83Z" fill="#231f20"/><path d="M199.72,102l-.34,0a.44.44,0,0,1-.39-.48.45.45,0,0,1,.49-.4,1.81,1.81,0,0,0,.86-.09,8.75,8.75,0,0,0-1.43-2,.44.44,0,1,1,.65-.59c2.07,2.28,1.71,2.81,1.58,3A1.73,1.73,0,0,1,199.72,102Zm.64-.91h0Z" fill="#231f20"/><path d="M199.87,103.78h-.1c-1,0-1.81-.72-2.55-2a.44.44,0,1,1,.77-.44c.57,1,1.19,1.52,1.82,1.56.95.09,1.73-1,1.74-1a.44.44,0,1,1,.72.52A3.41,3.41,0,0,1,199.87,103.78Z" fill="#231f20"/><path d="M196.77,98.27a.42.42,0,0,1-.24-.07.44.44,0,0,1-.13-.61c.1-.16.65-1,1.38-.92a1.14,1.14,0,0,1,.95.72.45.45,0,1,1-.79.41c-.08-.16-.17-.24-.21-.24s-.43.27-.59.51A.45.45,0,0,1,196.77,98.27Z" fill="#231f20"/><path d="M202,98.06a.43.43,0,0,1-.39-.23c-.08-.15-.32-.46-.55-.5-.05,0-.15.17-.18.31a.45.45,0,0,1-.54.32.43.43,0,0,1-.32-.53,1.11,1.11,0,0,1,1.19-1,1.94,1.94,0,0,1,1.18,1,.46.46,0,0,1-.18.6A.41.41,0,0,1,202,98.06Z" fill="#231f20"/><path d="M195.11,101.25a1.7,1.7,0,0,0-2.32-.42,1.16,1.16,0,0,0-.39.46,1.3,1.3,0,0,0,0,.87,2.35,2.35,0,0,0,2.64,1.59" fill="#fff"/><path d="M194.61,104.25a2.83,2.83,0,0,1-2.66-2,1.78,1.78,0,0,1,0-1.19,1.6,1.6,0,0,1,.53-.64,2.09,2.09,0,0,1,1.59-.34,2.12,2.12,0,0,1,1.38.88.45.45,0,0,1-.13.63.46.46,0,0,1-.64-.13,1.23,1.23,0,0,0-1.66-.3.74.74,0,0,0-.24.27.82.82,0,0,0,0,.56,1.9,1.9,0,0,0,2.11,1.27.44.44,0,0,1,.54.35.46.46,0,0,1-.35.54A2.24,2.24,0,0,1,194.61,104.25Z" fill="#231f20"/><path d="M186.54,120.46s-9.26-48.14-9.45-49.69,3.39-3.7,3.92-2.1,1.26,4.66,1.26,4.66,2.49-1.86,2.56-.35-1.62,2.06-1.6,2.56,10.06,34,10.06,34" fill="#fff"/><path d="M186.54,120.91a.45.45,0,0,1-.44-.37c-.38-2-9.28-48.17-9.47-49.71-.17-1.39,1.68-2.82,3-3.12a1.38,1.38,0,0,1,1.8.82c.38,1.17.87,3.07,1.12,4,.63-.39,1.57-.84,2.19-.55a1,1,0,0,1,.54.93A2.86,2.86,0,0,1,184,75.27l-.32.29c.44,1.79,7.34,24.86,10,33.8a.46.46,0,0,1-.31.57.45.45,0,0,1-.57-.3c-3-10.08-10-33.57-10.08-34.07s.31-.69.66-1a2,2,0,0,0,.95-1.58.8.8,0,0,0,0-.15,3.55,3.55,0,0,0-1.81.84.43.43,0,0,1-.42.07.44.44,0,0,1-.29-.32s-.75-3.06-1.26-4.62c0-.1-.11-.36-.74-.22-1.09.24-2.37,1.43-2.29,2.11.19,1.52,9.36,49.18,9.45,49.66a.46.46,0,0,1-.36.54Z" fill="#231f20"/><path d="M204.15,108.31l7.64-33s-2.73-1.36-1.5-2.74c.41-.46,3,.86,3,.86s.36-4.37,1.47-4.65a1.76,1.76,0,0,1,2.31,1.74c0,1.39-6.24,50-6.24,50" fill="#fff"/><path d="M210.81,120.91h-.06a.45.45,0,0,1-.39-.51c2.15-16.79,6.23-48.82,6.23-49.9a1.32,1.32,0,0,0-.46-1.08,1.52,1.52,0,0,0-1.28-.22c-.41.1-.95,2.17-1.12,4.25a.45.45,0,0,1-.23.36.49.49,0,0,1-.44,0,6.93,6.93,0,0,0-2.51-.9.55.55,0,0,0-.11.48c.1.56,1,1.21,1.55,1.48a.46.46,0,0,1,.24.52l-7.63,33a.46.46,0,0,1-.55.34.45.45,0,0,1-.34-.55l7.56-32.67a3.5,3.5,0,0,1-1.73-2,1.52,1.52,0,0,1,.41-1.33c.15-.17.58-.65,2.93.46.18-1.59.63-4.12,1.75-4.4a2.43,2.43,0,0,1,2.06.4,2.19,2.19,0,0,1,.82,1.79c0,1.41-6,48-6.25,50A.44.44,0,0,1,210.81,120.91Z" fill="#231f20"/><path d="M199.62,120.54a.67.67,0,0,1-.28-.06c-1.12-.55-3.3-7.73-4.18-10.79a.46.46,0,1,1,.88-.26c1.25,4.33,2.84,9,3.56,10.06.47-1,1.3-5.43,1.86-9.48a.45.45,0,0,1,.51-.39.45.45,0,0,1,.39.51c-.9,6.57-1.75,10.06-2.52,10.37A.57.57,0,0,1,199.62,120.54Z" fill="#231f20"/><circle cx="199.47" cy="124.11" r="3.66" fill="#fff"/><path d="M199.47,128.23a4.12,4.12,0,1,1,4.12-4.12A4.12,4.12,0,0,1,199.47,128.23Zm0-7.32a3.2,3.2,0,1,0,3.2,3.2A3.21,3.21,0,0,0,199.47,120.91Z" fill="#231f20"/><path d="M197.22,40.73l1.54,3.12,3.44.5a.5.5,0,0,1,.28.85L200,47.63l.59,3.43a.5.5,0,0,1-.73.53L196.77,50l-3.08,1.62a.5.5,0,0,1-.73-.53l.59-3.43-2.49-2.43a.49.49,0,0,1,.28-.85l3.44-.5,1.54-3.12A.5.5,0,0,1,197.22,40.73Z" fill="#68e1fd"/><polygon points="111.38 179.84 118.28 209.69 125.73 207.72 120.1 179.84 111.38 179.84" fill="#fff"/><path d="M118.28,210.15a.51.51,0,0,1-.24-.07.48.48,0,0,1-.21-.29L110.93,180a.45.45,0,0,1,.09-.39.45.45,0,0,1,.36-.17h8.72a.45.45,0,0,1,.45.36l5.63,27.88a.45.45,0,0,1-.33.53l-7.46,2ZM112,180.3l6.67,28.83,6.58-1.75-5.47-27.08Z" fill="#231f20"/><polygon points="93.27 175.24 95.89 210.96 104.02 210.96 104 173.8 93.27 175.24" fill="#fff"/><path d="M104,211.41H95.89a.46.46,0,0,1-.46-.42l-2.62-35.72a.46.46,0,0,1,.4-.48l10.73-1.45a.52.52,0,0,1,.36.11.46.46,0,0,1,.16.35l0,37.16a.48.48,0,0,1-.13.32A.51.51,0,0,1,104,211.41Zm-7.71-.91h7.25l0-36.18-9.78,1.31Z" fill="#231f20"/><path d="M91.47,147.72c.06,15.37-.37,35-.37,35l14.36-.78-1.33-22.42,5.27,22.71,13.66-.43-7.19-34.09Z" fill="#231f20"/><path d="M91.1,183.17a.43.43,0,0,1-.44-.45c0-.19.42-19.81.37-35a.44.44,0,0,1,.13-.31.43.43,0,0,1,.31-.13h24.4a.43.43,0,0,1,.43.35l7.19,34.09a.45.45,0,0,1-.08.37.44.44,0,0,1-.34.16l-13.65.43a.42.42,0,0,1-.44-.34l-4.1-17.63,1,17.22a.43.43,0,0,1-.11.32.44.44,0,0,1-.3.14l-14.37.78Zm.82-35c0,13.81-.31,31-.37,34.11l13.45-.73-1.31-22a.43.43,0,0,1,.37-.46.44.44,0,0,1,.49.33l5.2,22.35,12.77-.39-7-33.23Z" fill="#231f20"/><path d="M97.65,112.12a18,18,0,0,1-2-6.19c-.14-2.75.92-7.08,5.65-7.74,4.35-.61,7,1.74,7.56,5.1a10.93,10.93,0,0,1-1.2,7.5C107.36,111.07,97.65,112.12,97.65,112.12Z" fill="#fff"/><path d="M97.65,112.58a.45.45,0,0,1-.4-.24A18.27,18.27,0,0,1,95.17,106c-.17-3.37,1.31-7.55,6-8.21,4.24-.59,7.4,1.55,8.08,5.47a11.22,11.22,0,0,1-1.32,7.9c-.14.14-.4.4-10.27,1.47Zm4.94-14a9.08,9.08,0,0,0-1.25.09c-4.12.58-5.41,4.28-5.25,7.27a16.81,16.81,0,0,0,1.82,5.72c3.42-.37,8.64-1,9.45-1.22a10.92,10.92,0,0,0,1-7A5.5,5.5,0,0,0,102.59,98.55Z" fill="#231f20"/><path d="M106,121.66,130.4,89.87s-2.15-2.17-.54-3.07c.54-.31,2.55,1.77,2.55,1.77s1.74-4,2.89-3.93A1.76,1.76,0,0,1,136.92,87c-.45,1.32-24.84,44.65-24.84,44.65" fill="#fff"/><path d="M112.08,132.14a.49.49,0,0,1-.23-.06.47.47,0,0,1-.17-.62c6.76-12,24.38-43.4,24.81-44.58a1.26,1.26,0,0,0-.1-1.16,1.48,1.48,0,0,0-1.13-.63h0c-.43,0-1.6,1.76-2.42,3.66a.47.47,0,0,1-.34.27.45.45,0,0,1-.41-.13A7.15,7.15,0,0,0,130,87.22a.6.6,0,0,0-.26.43c-.09.64.71,1.61,1,1.9a.46.46,0,0,1,0,.6l-24.35,31.79a.46.46,0,1,1-.73-.55L129.8,89.9a3.46,3.46,0,0,1-1-2.38,1.53,1.53,0,0,1,.81-1.12c.2-.11.77-.43,2.63,1.38.68-1.45,2-3.68,3.08-3.6a2.41,2.41,0,0,1,1.82,1,2.19,2.19,0,0,1,.2,2c-.45,1.32-22.38,40.28-24.88,44.72A.47.47,0,0,1,112.08,132.14Z" fill="#231f20"/><path d="M118.28,155.81s-3.38-24.47-3.08-26.33l-6.14-10.82-11.61.8L90,128.6a228.23,228.23,0,0,0,.84,24.85Z" fill="#d1d3d4"/><path d="M105.74,116.86c.36,2.37,1.94,7.45-2.7,6.46a5.12,5.12,0,0,1-1.38-.6c-2.75-1.55-2.89-3.23-3.11-6.17-.09-1.27-.62-11.24-.62-11.24s3.83,1.17,6.22.54a4.19,4.19,0,0,0,2.91-2.56s1.35,8.83,1.19,11.51A2.23,2.23,0,0,1,105.74,116.86Z" fill="#fff"/><path d="M104.11,123.9a4.73,4.73,0,0,1-2.67-.78c-3-1.69-3.13-3.61-3.34-6.53-.1-1.27-.61-10.85-.63-11.26a.44.44,0,0,1,.18-.38.43.43,0,0,1,.41-.08s3.74,1.13,6,.53a3.7,3.7,0,0,0,2.58-2.25.46.46,0,0,1,.47-.32.47.47,0,0,1,.42.39c0,.36,1.35,8.91,1.2,11.61a2.53,2.53,0,0,1-.84,1.83,2.93,2.93,0,0,1-1.59.64c0,.15,0,.29.08.45.34,1.81.81,4.3-.41,5.5A2.53,2.53,0,0,1,104.11,123.9Zm-5.69-18c.12,2.21.51,9.53.59,10.6.21,2.9.32,4.36,2.88,5.81a4.77,4.77,0,0,0,1.24.54,2.35,2.35,0,0,0,2.18-.28c.88-.85.46-3.06.15-4.67-.07-.36-.13-.69-.17-1a.49.49,0,0,1,.11-.38.48.48,0,0,1,.37-.14,2.34,2.34,0,0,0,1.51-.45,1.61,1.61,0,0,0,.51-1.19,81.39,81.39,0,0,0-1-10.11,4.71,4.71,0,0,1-2.53,1.63C102.35,106.8,99.63,106.22,98.42,105.92Z" fill="#231f20"/><path d="M103.86,113.61l-.34,0a.43.43,0,0,1-.39-.48.44.44,0,0,1,.48-.4,1.86,1.86,0,0,0,.87-.09,9.23,9.23,0,0,0-1.44-2,.44.44,0,0,1,.66-.59c2.06,2.28,1.7,2.81,1.57,3A1.71,1.71,0,0,1,103.86,113.61Zm.63-.91h0Z" fill="#231f20"/><path d="M104,115.37h-.11c-1,0-1.81-.72-2.55-2a.44.44,0,0,1,.16-.6.45.45,0,0,1,.61.16c.58,1,1.19,1.53,1.82,1.56.94,0,1.74-1,1.74-1a.46.46,0,0,1,.62-.1.44.44,0,0,1,.1.62A3.35,3.35,0,0,1,104,115.37Z" fill="#231f20"/><path d="M99.34,111.32a1.68,1.68,0,0,0-2.25-.68,1.15,1.15,0,0,0-.44.41,1.27,1.27,0,0,0-.11.86A2.34,2.34,0,0,0,99,113.79" fill="#fff"/><path d="M98.8,114.26A2.82,2.82,0,0,1,96.09,112a1.71,1.71,0,0,1,.17-1.18,1.65,1.65,0,0,1,.6-.57,2.08,2.08,0,0,1,1.63-.15,2,2,0,0,1,1.26,1,.46.46,0,0,1-.82.41,1.22,1.22,0,0,0-1.62-.49.61.61,0,0,0-.26.24.84.84,0,0,0-.06.56,1.88,1.88,0,0,0,2,1.5.47.47,0,0,1,.5.41.47.47,0,0,1-.42.5Z" fill="#231f20"/><path d="M103.75,132.14a.72.72,0,0,1-.28-.07c-1.12-.54-3.29-7.73-4.17-10.79a.46.46,0,0,1,.31-.57.45.45,0,0,1,.56.32c1.25,4.31,2.84,9,3.56,10,.48-1.09,1.43-6.24,2.08-11a.46.46,0,0,1,.91.13c-1,7.55-2,11.54-2.75,11.85A.54.54,0,0,1,103.75,132.14Z" fill="#231f20"/><circle cx="103.61" cy="135.71" r="3.66" fill="#fff"/><path d="M103.61,139.82a4.12,4.12,0,1,1,4.11-4.11A4.12,4.12,0,0,1,103.61,139.82Zm0-7.31a3.2,3.2,0,1,0,3.2,3.2A3.2,3.2,0,0,0,103.61,132.51Z" fill="#231f20"/><path d="M97.35,119.8s-27.13,14.6-29,19.56,19.19,18.71,21.59,20.51,3.84,1.25,3.75-.63-3-3.47-3-3.47.43-2-.11-2.78c-.81-1.14-2.25.6-2.25.6L77.54,140l15.21-6.8" fill="#fff"/><path d="M92.4,161.44a4.81,4.81,0,0,1-2.74-1.2c-.31-.23-.92-.65-1.74-1.23-10.14-7-21.57-15.68-20-19.81,1.91-5.07,28.1-19.2,29.22-19.8a.45.45,0,1,1,.43.8c-9.33,5-27.36,15.52-28.8,19.32-1,2.65,5.62,9,19.67,18.74.84.59,1.46,1,1.76,1.25,1.13.84,2.1,1.19,2.61.92s.43-.82.42-1.17c-.06-1.32-2-2.68-2.74-3.09a.47.47,0,0,1-.22-.5,4.34,4.34,0,0,0,0-2.42c-.12-.16-.22-.19-.3-.19h0c-.39,0-1,.55-1.21.82-.09.11-.24.12-.36.16a.46.46,0,0,1-.35-.17L77.18,140.33a.46.46,0,0,1-.08-.39.44.44,0,0,1,.25-.31l15.21-6.8a.45.45,0,0,1,.37.83l-14.66,6.56L88.39,152.9a2.33,2.33,0,0,1,1.59-.75,1.25,1.25,0,0,1,1,.58,4.3,4.3,0,0,1,.24,2.81c.78.49,2.84,1.93,2.92,3.68a2,2,0,0,1-.9,2A1.82,1.82,0,0,1,92.4,161.44Z" fill="#231f20"/><path d="M104.62,216.12,104,211H95.89s-10.56,5.16-10,5.16Z" fill="#231f20"/><path d="M104.62,216.56H85.89a.48.48,0,0,1-.45-.35c-.1-.44-.13-.57,10.26-5.65a.41.41,0,0,1,.19-.05H104a.44.44,0,0,1,.44.39l.6,5.17a.45.45,0,0,1-.11.34A.44.44,0,0,1,104.62,216.56Zm-17.15-.88h16.65l-.49-4.28H96C93.32,212.7,89.46,214.62,87.47,215.68Z" fill="#231f20"/><path d="M118.28,209.69s1,6.43,1.54,6.43,15.35-7.56,14.5-8.54-8.59.14-8.59.14Z" fill="#231f20"/><path d="M119.82,216.56c-.37,0-.94,0-2-6.81a.45.45,0,0,1,.33-.49l7.45-2c2.45-.36,8.13-1.06,9,0a.64.64,0,0,1,.07.69C134,209.67,120.58,216.56,119.82,216.56Zm-1-6.55a37.48,37.48,0,0,0,1.21,5.62c1.81-.65,12.55-6.38,13.84-7.86-.94-.34-4.72-.1-8,.38Z" fill="#231f20"/><ellipse cx="101.28" cy="108.83" rx="0.46" ry="0.86" transform="translate(-9.3 9.47) rotate(-5.12)" fill="#231f20"/><ellipse cx="105.65" cy="108.44" rx="0.46" ry="0.86" transform="translate(-9.25 9.86) rotate(-5.12)" fill="#231f20"/><path d="M291.74,130.66s-8.37.67-10,3.65S269,181.58,270.88,181.58s3.39-5.49,3.39-5.49,2.72,3.61,2.67,1.36,0-7.32,0-7.32l11.59-27.22" fill="#fff"/><path d="M270.88,182a.61.61,0,0,1-.51-.31c-1.46-2.47,9.73-45.43,10.95-47.65,1.74-3.15,10-3.85,10.38-3.87a.44.44,0,0,1,.49.41.45.45,0,0,1-.42.5c-2.26.18-8.4,1.14-9.65,3.41s-11.52,42.57-11,46.55c1-.4,2.16-3.13,2.71-5.12a.44.44,0,0,1,.35-.32.44.44,0,0,1,.45.17,7.89,7.89,0,0,0,1.84,1.88.76.76,0,0,0,0-.23c-.05-2.23,0-7.29,0-7.34a.47.47,0,0,1,0-.17l11.59-27.22a.46.46,0,0,1,.84.36L277.4,170.22c0,.7,0,5.16,0,7.22,0,.64-.18,1-.57,1.16-.65.23-1.58-.6-2.38-1.55C273.9,178.77,272.62,182,270.88,182Zm.29-.76h0Zm5.28-3.48Z" fill="#231f20"/><path d="M291.74,121.31s-5.42-6.79-2.18-11.43,13.62-4.09,12.51-3.52a10.09,10.09,0,0,0-2,1.4s7.92,1.83,8.85,5.35-4.84,12.68-4.84,12.68,2.67,1,1.69,1.54S294.91,130,291.74,121.31Z" fill="#fff"/><path d="M301.75,128.42a12.83,12.83,0,0,1-4.42-.73,9.87,9.87,0,0,1-6-6.16c-.57-.74-5.41-7.23-2.15-11.92,2.89-4.14,11.14-4.35,12.83-3.92.14,0,.56.14.6.53a.54.54,0,0,1-.33.54,9.34,9.34,0,0,0-1.25.79c2.16.61,7.51,2.4,8.31,5.45.86,3.23-3.42,10.62-4.61,12.57.83.35,1.64.84,1.69,1.41a.75.75,0,0,1-.44.75A11,11,0,0,1,301.75,128.42Zm-1.6-22c-2.8,0-8.13.72-10.22,3.71-3,4.31,2.11,10.82,2.17,10.88a.54.54,0,0,1,.07.13,9,9,0,0,0,5.48,5.68,12.73,12.73,0,0,0,7.76.16,6.1,6.1,0,0,0-1.51-.77.44.44,0,0,1-.27-.28.45.45,0,0,1,0-.39c1.58-2.5,5.51-9.59,4.79-12.32s-6.38-4.53-8.51-5a.46.46,0,0,1-.34-.33.45.45,0,0,1,.13-.45,10.15,10.15,0,0,1,1.26-1C300.75,106.44,300.47,106.43,300.15,106.43Z" fill="#231f20"/><polygon points="291.63 190.7 288.45 221.82 280.32 221.82 282.9 190.7 291.63 190.7" fill="#fff"/><path d="M288.45,222.27h-8.13a.45.45,0,0,1-.34-.15.42.42,0,0,1-.11-.34l2.57-31.11a.46.46,0,0,1,.46-.42h8.72a.43.43,0,0,1,.34.15.44.44,0,0,1,.12.35l-3.17,31.11A.46.46,0,0,1,288.45,222.27Zm-7.63-.91H288l3.08-30.2h-7.8Z" fill="#231f20"/><polygon points="306.73 186.1 304.11 221.82 295.98 221.82 296 184.66 306.73 186.1" fill="#fff"/><path d="M304.11,222.27H296a.46.46,0,0,1-.32-.13.45.45,0,0,1-.14-.32l0-37.16a.46.46,0,0,1,.16-.35.52.52,0,0,1,.36-.11l10.73,1.45a.45.45,0,0,1,.4.48l-2.62,35.72A.46.46,0,0,1,304.11,222.27Zm-7.67-.91h7.25l2.55-34.87-9.78-1.31Z" fill="#231f20"/><path d="M308.53,158.58c-.06,15.37.37,35,.37,35l-14.36-.78,1.33-22.42-3.13,22.76-13-.4,4.4-34.18Z" fill="#231f20"/><path d="M308.9,194h0l-14.37-.78a.46.46,0,0,1-.3-.15.42.42,0,0,1-.11-.32l.66-11-1.59,11.48a.44.44,0,0,1-.45.38l-13-.4a.43.43,0,0,1-.42-.5l4.4-34.18a.44.44,0,0,1,.44-.38h24.4a.43.43,0,0,1,.31.13.44.44,0,0,1,.13.31c-.05,15.19.37,34.81.37,35a.42.42,0,0,1-.13.32A.46.46,0,0,1,308.9,194ZM295,192.4l13.45.73c-.06-3.07-.4-20.3-.37-34.11H284.52l-4.29,33.31,12.12.38,3.09-22.38a.44.44,0,0,1,.87.09Z" fill="#231f20"/><path d="M281.72,166.68s3.08-21.92,2.78-23.77l6.44-13.39,14.39,1.14,4.64,8.8a228.19,228.19,0,0,1-.84,24.85Z" fill="#d1d3d4"/><path d="M294.26,127.72c-.36,2.38-1.94,7.45,2.7,6.46a5.42,5.42,0,0,0,1.38-.59c2.75-1.56,2.89-3.24,3.11-6.18.09-1.27.62-11.24.62-11.24s-3.83,1.17-6.22.54a4.19,4.19,0,0,1-2.91-2.56s-1.35,8.84-1.19,11.51A2.23,2.23,0,0,0,294.26,127.72Z" fill="#fff"/><path d="M295.89,134.76a2.53,2.53,0,0,1-1.84-.65c-1.22-1.2-.75-3.69-.41-5.5,0-.15.06-.3.08-.45a2.93,2.93,0,0,1-1.59-.64,2.53,2.53,0,0,1-.84-1.83c-.15-2.69,1.15-11.25,1.2-11.61a.47.47,0,0,1,.42-.39.46.46,0,0,1,.47.32,3.7,3.7,0,0,0,2.58,2.25c2.25.6,5.94-.52,6-.53a.43.43,0,0,1,.41.08.44.44,0,0,1,.18.38c0,.41-.53,10-.63,11.26-.21,2.92-.35,4.84-3.34,6.53a4.73,4.73,0,0,1-2.67.78Zm-1.63-7.49a.44.44,0,0,1,.45.52c0,.3-.1.63-.17,1-.31,1.61-.73,3.82.15,4.68a2.38,2.38,0,0,0,2.18.27,4.63,4.63,0,0,0,1.24-.54c2.56-1.45,2.67-2.91,2.88-5.81.08-1.07.47-8.39.59-10.6a13.34,13.34,0,0,1-5.85.37,4.71,4.71,0,0,1-2.53-1.63,81.39,81.39,0,0,0-1,10.11,1.65,1.65,0,0,0,.51,1.2,2.36,2.36,0,0,0,1.5.44Z" fill="#231f20"/><path d="M296.14,124.47a1.71,1.71,0,0,1-1.41-.54c-.13-.2-.49-.73,1.57-3a.44.44,0,0,1,.66.59,9.23,9.23,0,0,0-1.44,2,1.87,1.87,0,0,0,.87.09.45.45,0,0,1,.49.4.44.44,0,0,1-.4.48Z" fill="#231f20"/><path d="M296,126.23a3.35,3.35,0,0,1-2.39-1.4.44.44,0,0,1,.1-.62.46.46,0,0,1,.62.1,2.54,2.54,0,0,0,1.74,1c.63,0,1.24-.56,1.82-1.56a.45.45,0,0,1,.61-.16.44.44,0,0,1,.16.6c-.74,1.28-1.6,2-2.55,2Z" fill="#231f20"/><path d="M299.1,120.72a.43.43,0,0,1-.37-.2c-.16-.24-.45-.51-.59-.51h0s-.12.08-.21.24a.44.44,0,0,1-.59.19.44.44,0,0,1-.19-.6,1.16,1.16,0,0,1,.95-.72c.75,0,1.27.76,1.38.92a.45.45,0,0,1-.13.61A.42.42,0,0,1,299.1,120.72Z" fill="#231f20"/><path d="M293.85,120.51a.38.38,0,0,1-.21-.05.43.43,0,0,1-.18-.6,1.91,1.91,0,0,1,1.17-1,1.12,1.12,0,0,1,1.2,1,.44.44,0,1,1-.86.21.61.61,0,0,0-.18-.31c-.23,0-.48.36-.55.5A.45.45,0,0,1,293.85,120.51Z" fill="#231f20"/><path d="M300.66,122.18a1.68,1.68,0,0,1,2.25-.68,1.15,1.15,0,0,1,.44.41,1.27,1.27,0,0,1,.11.86,2.34,2.34,0,0,1-2.44,1.88" fill="#fff"/><path d="M301.2,125.12H301a.47.47,0,0,1-.42-.5.47.47,0,0,1,.5-.41,1.88,1.88,0,0,0,1.95-1.5.83.83,0,0,0-.06-.56.7.7,0,0,0-.26-.25,1.18,1.18,0,0,0-.91-.07,1.14,1.14,0,0,0-.71.57.46.46,0,0,1-.82-.41,2,2,0,0,1,1.26-1,2.09,2.09,0,0,1,1.63.15,1.6,1.6,0,0,1,.6.58,1.67,1.67,0,0,1,.17,1.17A2.82,2.82,0,0,1,301.2,125.12Z" fill="#231f20"/><path d="M296.25,143a.85.85,0,0,1-.22,0c-.78-.32-1.63-3.81-2.53-10.38a.46.46,0,0,1,.91-.12c.54,4,1.36,8.33,1.88,9.45.72-1.09,2.3-5.74,3.54-10a.46.46,0,0,1,.56-.32.46.46,0,0,1,.31.57c-.88,3.06-3.05,10.25-4.17,10.79A.58.58,0,0,1,296.25,143Z" fill="#231f20"/><circle cx="296.39" cy="146.57" r="3.66" fill="#fff"/><path d="M296.39,150.68a4.12,4.12,0,1,1,4.12-4.11A4.12,4.12,0,0,1,296.39,150.68Zm0-7.31a3.2,3.2,0,1,0,3.2,3.2A3.2,3.2,0,0,0,296.39,143.37Z" fill="#231f20"/><path d="M305.33,130.66s24.45,14.6,26.33,19.56S312.42,170,310,171.84s-3.79.14-3.7-1.74,3-3.47,3-3.47-.43-2,.11-2.78c.81-1.14,2.25.6,2.25.6l10.82-13.55-13.56-6.06" fill="#fff"/><path d="M308.12,173.07a2.11,2.11,0,0,1-1-.23,2.86,2.86,0,0,1-1.3-2.76c.08-1.75,2.14-3.19,2.92-3.68a4.3,4.3,0,0,1,.24-2.81,1.25,1.25,0,0,1,1-.58,2.46,2.46,0,0,1,1.59.75l10.12-12.68-13-5.82a.46.46,0,0,1,.38-.84l13.56,6.07a.44.44,0,0,1,.25.31.46.46,0,0,1-.08.39L312,164.73a.45.45,0,0,1-.71,0c-.23-.27-.82-.82-1.23-.82-.08,0-.18,0-.3.19a4.34,4.34,0,0,0,0,2.42.47.47,0,0,1-.22.5c-.74.41-2.68,1.77-2.74,3.09a2,2,0,0,0,.81,1.91c.54.28,1.31.08,2.16-.56l1-.71c19.24-14,21.12-18.8,20.52-20.38-1.44-3.81-17.73-14.31-26.14-19.33a.46.46,0,1,1,.47-.78c1,.6,24.61,14.73,26.52,19.79,1.25,3.28-5.57,10.3-20.83,21.44l-1,.7A3.61,3.61,0,0,1,308.12,173.07Z" fill="#231f20"/><path d="M295.38,227l.6-5.16h8.13s10.56,5.16,10,5.16Z" fill="#231f20"/><path d="M314.11,227.42H295.38a.47.47,0,0,1-.33-.14.49.49,0,0,1-.11-.35l.6-5.17a.43.43,0,0,1,.44-.38h8.13a.41.41,0,0,1,.19,0c10.39,5.08,10.36,5.21,10.26,5.65A.48.48,0,0,1,314.11,227.42Zm-18.23-.88h16.65c-2-1-5.85-3-8.52-4.28h-7.64Z" fill="#231f20"/><path d="M289.05,227l-.6-5.16h-8.13s-1.06.51-2.48,1.22c-3.08,1.53-7.9,3.94-7.52,3.94Z" fill="#231f20"/><path d="M289.05,227.42H270.32a.48.48,0,0,1-.45-.35c-.1-.45-.12-.52,7.77-4.43l2.49-1.22a.41.41,0,0,1,.19,0h8.13a.43.43,0,0,1,.44.38l.6,5.17a.49.49,0,0,1-.11.35A.47.47,0,0,1,289.05,227.42Zm-17.15-.88h16.65l-.49-4.28h-7.64L278,223.43C274.75,225.06,272.92,226,271.9,226.54Z" fill="#231f20"/></g></svg>