<svg xmlns="http://www.w3.org/2000/svg" viewBox="0 0 400 300"><g id="_175_winner_flatline" data-name="#175_winner_flatline"><path d="M291.82,145.29s29.34,24.85,29,42.87-8,25.46-27.57,16.89-59.75-52.83-59.75-52.83Z" fill="#fff"/><path d="M307,209.13c-3.84,0-8.47-1.2-14-3.61-19.4-8.51-59.52-52.5-59.93-53a.52.52,0,0,1,.32-.86l58.35-6.94a.57.57,0,0,1,.39.12,150.11,150.11,0,0,1,14.68,14.74c9.76,11.34,14.63,20.94,14.47,28.55-.2,9.87-2.54,16.1-7.15,19A13.08,13.08,0,0,1,307,209.13Zm-72.43-56.51c5.36,5.82,41.07,44.14,58.89,52,9,4,15.81,4.55,20.16,1.77s6.48-8.69,6.68-18.2c.35-16.86-26.23-40.26-28.62-42.33Z" fill="#231f20"/><path d="M122.88,136.18S68.82,187.24,69.2,205.26s21,14.51,40.54,5.94,40-50.86,40-50.86Z" fill="#fff"/><path d="M83.34,218.73A17.25,17.25,0,0,1,74,216.47c-3.44-2.2-5.24-6-5.35-11.2-.16-7.61,8.87-21.62,26.83-41.65,13.33-14.86,26.88-27.68,27-27.81a.51.51,0,0,1,.7,0L150.07,160a.52.52,0,0,1,.12.61,234.37,234.37,0,0,1-12.7,22.27c-10.09,15.54-19.35,25.24-27.54,28.83C103.08,214.68,92.21,218.73,83.34,218.73Zm39.55-81.84c-4.62,4.4-53.53,51.52-53.18,68.36.1,4.86,1.74,8.35,4.88,10.35,8.45,5.39,25.52-.74,34.94-4.87,18.2-8,37.54-46.2,39.56-50.26Z" fill="#231f20"/><path d="M272.08,125.62c-22.15-15.32-57.76-20.22-57.76-20.22H192s-40.55,2.4-62.7,17.72-26.65,24.32-26.65,24.32l41.29,45.43,7.89-4.51,10.32,51.44h82l13.21-52.72,10.54,4.38,37.45-41.59S294.23,140.93,272.08,125.62Z" fill="#68e1fd"/><path d="M194.52,154.3c13.47,7.72,28-22.5,34.26-20.53s4.69,26.57,4.69,26.57l6.43-.13s5.12-22.51-.17-30.06c-12.09-17.24-27.61,7.88-35.95,13.92s-18.81-38-18.81-38l-6.53,1.41S184.42,148.5,194.52,154.3Z" fill="#231f20"/><path d="M233.47,160.84a.47.47,0,0,1-.35-.15.49.49,0,0,1-.14-.38c.44-6.73.52-24.54-4.35-26.06-2.12-.67-5.91,3.51-9.91,7.93-7.05,7.79-15.83,17.49-24.45,12.55h0c-10.19-5.85-16.08-45.51-16.32-47.2a.49.49,0,0,1,.39-.55l6.53-1.42a.5.5,0,0,1,.59.37c0,.09,2.14,9,5.18,18.09,5,15.08,8.6,19.18,10.71,20a2.14,2.14,0,0,0,2.14-.32,59.47,59.47,0,0,0,6.7-6.39c6-6.28,13.49-14.1,20.82-13.54,3.38.26,6.45,2.32,9.12,6.13,5.37,7.65.46,29.53.25,30.46a.5.5,0,0,1-.47.39l-6.42.13Zm-5.31-27.66a2.53,2.53,0,0,1,.77.12c2.83.88,4.53,5.75,5.06,14.47a113.17,113.17,0,0,1,0,12.06l5.5-.11c.63-3,4.56-22.53-.18-29.29-2.53-3.6-5.27-5.47-8.39-5.71-6.82-.52-14.14,7.11-20,13.24a60.41,60.41,0,0,1-6.83,6.51,3.16,3.16,0,0,1-3.08.45c-7.51-2.79-15.32-33.86-16.4-38.28l-5.6,1.21c.7,4.52,6.56,40.73,15.77,46h0c7.92,4.55,16.4-4.82,23.21-12.35C222.15,136.91,225.52,133.18,228.16,133.18Z" fill="#231f20"/><path d="M229.87,76c-.36-.74,1.3-18,0-30.95-2.23-22-46.36-23.37-53.31-5.35-3.14,8.16-.58,37.73-.58,37.73Z" fill="#fff"/><path d="M176,78a.52.52,0,0,1-.52-.48c-.1-1.21-2.53-29.78.62-37.95,4-10.3,19.35-14.07,31.82-12.4C218,28.49,229.26,33.9,230.38,45c.9,8.93.41,19.69.11,26.12-.11,2.36-.2,4.39-.13,4.71a.47.47,0,0,1,0,.46.5.5,0,0,1-.44.22L176,78ZM202,27.77c-10.66,0-21.79,3.83-25,12.12-2.85,7.38-.91,33.15-.6,37l52.85-1.41c0-.67,0-1.93.16-4.41.29-6.41.79-17.12-.1-26-1.06-10.5-11.85-15.64-21.6-17A43.2,43.2,0,0,0,202,27.77Z" fill="#231f20"/><path d="M220.47,73.87c1.32-8.24,15-10.27,14.33-.56a14.38,14.38,0,0,1-3.65,9.12C228.81,84.82,225,86,222,84.58" fill="#fff"/><path d="M224.83,85.68a7.47,7.47,0,0,1-3.07-.63.51.51,0,1,1,.42-.94,7.9,7.9,0,0,0,8.6-2c2.57-2.61,3.32-6.23,3.5-8.8.34-4.82-2.94-5.73-4.37-5.89C226.26,67,221.68,69.56,221,74a.52.52,0,0,1-1-.16c.8-5,5.92-7.91,10.07-7.44,2.76.32,5.61,2.33,5.28,7-.19,2.74-1,6.6-3.79,9.44A9.54,9.54,0,0,1,224.83,85.68Z" fill="#231f20"/><path d="M186.38,73.87c-1.32-8.24-15-10.27-14.33-.56a14.38,14.38,0,0,0,3.65,9.12c2.34,2.39,6.12,3.52,9.18,2.15" fill="#fff"/><path d="M182,85.68a9.5,9.5,0,0,1-6.69-2.89c-2.79-2.84-3.6-6.7-3.79-9.44-.33-4.67,2.51-6.68,5.28-7,4.15-.47,9.27,2.47,10.07,7.44a.52.52,0,1,1-1,.16c-.7-4.4-5.28-7-8.93-6.57-1.43.16-4.71,1.07-4.37,5.89.18,2.57.93,6.19,3.5,8.8a7.9,7.9,0,0,0,8.6,2,.52.52,0,0,1,.68.26.52.52,0,0,1-.26.68A7.47,7.47,0,0,1,182,85.68Z" fill="#231f20"/><path d="M186.38,111.38s4.9,11.74,15.7,11.74,17.28-8.9,17.28-8.9V77.43l-33-1.43Z" fill="#fff"/><path d="M202.08,123.63c-11,0-16.13-11.93-16.18-12a.65.65,0,0,1,0-.2V76a.53.53,0,0,1,.16-.38.54.54,0,0,1,.38-.14l33,1.43a.53.53,0,0,1,.5.52v36.79a.51.51,0,0,1-.1.3C219.71,114.62,213,123.63,202.08,123.63Zm-15.19-12.36c.49,1.08,5.36,11.33,15.19,11.33,9.68,0,15.91-7.47,16.77-8.56V77.92l-32-1.39Z" fill="#231f20"/><path d="M187.35,92.67c.28,1.55,4.65,13.76,32,15.45V91c-4.61.66-12.85,5.44-17.83,5-4.16-.37-8.45-.77-12.26-2.37C188.61,93.32,188,93,187.35,92.67Z" fill="#231f20"/><path d="M219.36,108.62h0c-29.65-1.83-32.44-15.73-32.47-15.87a.5.5,0,0,1,.21-.49.51.51,0,0,1,.53,0c.55.31,1.17.62,1.87.93,3.81,1.61,8.22,2,12.1,2.33,2.84.27,7-1.33,10.64-2.73a38.28,38.28,0,0,1,7.08-2.25.49.49,0,0,1,.4.12.48.48,0,0,1,.17.37v17.12a.48.48,0,0,1-.16.36A.48.48,0,0,1,219.36,108.62ZM188.25,93.69c1.44,3.21,7.54,12.34,30.61,13.9v-16a44.62,44.62,0,0,0-6.29,2.09c-3.94,1.51-8,3.08-11.08,2.79-4-.34-8.45-.74-12.41-2.4Z" fill="#231f20"/><path d="M201.7,99.05h2.2a18.89,18.89,0,0,0,18.89-18.89V50.25a58.67,58.67,0,0,1-19.92,4.47,44.53,44.53,0,0,1-20.06-4.47V80.16A18.89,18.89,0,0,0,201.7,99.05Z" fill="#fff"/><path d="M222.79,50.25V80.16A18.89,18.89,0,0,1,203.9,99.05h-2.2a18.89,18.89,0,0,1-18.89-18.89V50.25a44.76,44.76,0,0,0,18.85,4.49l1.21,0a58.67,58.67,0,0,0,19.92-4.47m-40-1a1,1,0,0,0-.54.15,1,1,0,0,0-.5.88V80.16a19.94,19.94,0,0,0,19.93,19.92h2.2a19.94,19.94,0,0,0,19.92-19.92V50.25a1,1,0,0,0-1-1,1.07,1.07,0,0,0-.43.09,58.15,58.15,0,0,1-19.53,4.38l-1.17,0a44,44,0,0,1-18.37-4.37,1,1,0,0,0-.48-.12Z" fill="#231f20"/><path d="M203.1,80.37a21.68,21.68,0,0,1-2.71-.16,1.23,1.23,0,0,1-.92-.61c-1.39-2.33,2.29-12.24,3.05-14.2a.51.51,0,0,1,.66-.3.52.52,0,0,1,.3.67c-1.67,4.36-4,11.83-3.12,13.3a.21.21,0,0,0,.15.12,25.2,25.2,0,0,0,5.36,0,.51.51,0,0,1,.12,1A24.73,24.73,0,0,1,203.1,80.37Z" fill="#231f20"/><path d="M204.13,92.6a17,17,0,0,1-7.76-2.25.52.52,0,0,1-.22-.7.52.52,0,0,1,.7-.21c3.85,2,7.17,2.61,9.85,1.74a6.68,6.68,0,0,0,3.79-3,.51.51,0,0,1,.69-.23.52.52,0,0,1,.24.69,7.71,7.71,0,0,1-4.4,3.51A9.15,9.15,0,0,1,204.13,92.6Z" fill="#231f20"/><ellipse cx="211.37" cy="63.78" rx="1.14" ry="2.61" transform="translate(-3.75 14.08) rotate(-3.78)" fill="#231f20"/><ellipse cx="194.52" cy="65" rx="1.14" ry="2.61" transform="translate(-3.86 12.97) rotate(-3.78)" fill="#231f20"/><path d="M128.46,169.78c-32.33,0-40-30.82-40.12-31.13L87.71,136l17.68-6,1.94,5.68L95,139.85c2.41,6.71,10.82,24,33.47,23.93Z" fill="#fff"/><path d="M128.41,170.28c-32.58,0-40.48-31.2-40.55-31.51l-.64-2.66a.52.52,0,0,1,.33-.59l17.68-6a.51.51,0,0,1,.64.31l1.93,5.68a.46.46,0,0,1,0,.38.53.53,0,0,1-.29.26l-11.86,4c2.75,7.33,11.19,23.12,32.78,23.12h.05a.51.51,0,0,1,.5.5v6A.53.53,0,0,1,128.41,170.28Zm-40.11-34,.53,2.21c.07.31,7.71,30.46,39.13,30.75v-5c-22.37-.23-30.84-17-33.44-24.26a.46.46,0,0,1,0-.38.47.47,0,0,1,.29-.26l11.87-4-1.62-4.73Z" fill="#231f20"/><path d="M169,156l-3.66-4.75c17.94-13.82,14.06-32.6,11.87-39.4L164.82,116l-1.94-5.68,17.68-6,1.13,2.49C181.82,107.1,194.56,136.24,169,156Z" fill="#fff"/><path d="M169,156.47a.53.53,0,0,1-.4-.19l-3.66-4.76a.5.5,0,0,1,.09-.7c17.14-13.2,14.16-30.87,11.86-38.36L165,116.51a.5.5,0,0,1-.63-.31l-1.94-5.68a.58.58,0,0,1,0-.39.51.51,0,0,1,.29-.25l17.68-6a.51.51,0,0,1,.62.27l1.12,2.48c.13.3,13,29.81-12.89,49.77A.47.47,0,0,1,169,156.47Zm-3-5.16,3,4c24.75-19.47,12.32-48,12.19-48.25l-.93-2.08-16.78,5.73,1.61,4.73L177,111.35a.53.53,0,0,1,.39,0,.51.51,0,0,1,.25.29C180,119,183.56,137.46,166,151.31Z" fill="#231f20"/><path d="M162.35,104.58l-60.23,20s8.25,25.94,20.4,40.05c10.1,11.72,18.54,14.82,24.89,15.08a16.7,16.7,0,0,1,3.44,6.29c1.6,5.55.67,12.42.67,12.42l16.65-5.68s-5.42-4.55-7.15-10.06a32.75,32.75,0,0,1-1.29-7.15c5.31-5.22,10.59-15.7,11-28.33C171.25,130.11,162.35,104.58,162.35,104.58Z" fill="#fff"/><path d="M151.52,198.87a.47.47,0,0,1-.32-.12.51.51,0,0,1-.18-.45c0-.07.9-6.83-.65-12.21a16.09,16.09,0,0,0-3.2-5.94c-8.26-.42-16.68-5.55-25-15.25-12.07-14-20.42-40-20.5-40.22a.49.49,0,0,1,.32-.62l60.23-20a.5.5,0,0,1,.63.31c.09.26,8.93,25.8,8.4,42.74-.42,13.35-6.13,23.66-11,28.52a31.19,31.19,0,0,0,1.25,6.8c1.67,5.3,6.94,9.78,7,9.82a.5.5,0,0,1-.16.86l-16.65,5.68Zm-48.77-74c1.19,3.57,9.1,26.58,20.15,39.4,8.24,9.56,16.49,14.58,24.53,14.91a.5.5,0,0,1,.36.18,17.09,17.09,0,0,1,3.54,6.47,34.22,34.22,0,0,1,.77,11.83l15.1-5.15c-1.52-1.41-5.24-5.22-6.65-9.71a32.05,32.05,0,0,1-1.32-7.26.51.51,0,0,1,.15-.39c4.74-4.66,10.42-14.79,10.84-28,.48-15.5-7-38.37-8.19-41.92Z" fill="#231f20"/><path d="M142.22,194.47h41.25A3.52,3.52,0,0,1,187,198v16.19a0,0,0,0,1,0,0H138.7a0,0,0,0,1,0,0V198A3.52,3.52,0,0,1,142.22,194.47Z" transform="translate(-57.24 63.51) rotate(-18.83)" fill="#fff"/><path d="M143.17,221.94a.5.5,0,0,1-.47-.34l-5.23-15.32a4,4,0,0,1,.2-3.07,4,4,0,0,1,2.31-2l39-13.32a4,4,0,0,1,5.1,2.51l5.23,15.32a.51.51,0,0,1-.31.64l-45.7,15.59Zm37.15-33.29a3,3,0,0,0-1,.16l-39,13.31a3,3,0,0,0-1.73,1.53,3,3,0,0,0-.15,2.31l5.07,14.85,44.75-15.27-5.06-14.85A3,3,0,0,0,180.32,188.65Z" fill="#231f20"/><rect x="136.68" y="212.9" width="62.65" height="13.09" rx="3.34" transform="translate(-61.85 65.98) rotate(-18.83)" fill="#fff"/><path d="M142.56,235.35a3.84,3.84,0,0,1-3.64-2.6l-2.07-6.06a3.84,3.84,0,0,1,2.4-4.88h0l53-18.07a3.85,3.85,0,0,1,2.94.19,3.81,3.81,0,0,1,1.94,2.21l2.07,6.06a3.84,3.84,0,0,1-2.4,4.88l-53,18.07A3.77,3.77,0,0,1,142.56,235.35Zm-3-12.6a2.87,2.87,0,0,0-1.64,1.44,2.82,2.82,0,0,0-.13,2.17l2.06,6.07a2.85,2.85,0,0,0,3.61,1.77l53-18.07a2.84,2.84,0,0,0,1.77-3.61l-2.07-6.06a2.85,2.85,0,0,0-3.61-1.77Z" fill="#231f20"/><path d="M93.94,182.66c13.77.8,39.54,8.5,47.21,9.44,0,0,6.63-11.64,8.08-12.51s10.26-4.43,11.83-3.79,6.47,5,5.76,6.54-2.33.82-2.94-.26-2.2-2.62-2.67-2.54-3.13,3.14-3.13,3.14a10,10,0,0,1,4.81,1.82c2.07,1.61,2.4,4.08.6,5.35a2.51,2.51,0,0,1-1.41,4.14c-1.81.36-4.93-.26-6.41.56-.84.46-1.58,2-2.14,2.74-1.76,2.34-3.72,5.33-6.45,6.65-3.46,1.67-39,16.15-64,14.27" fill="#fff"/><path d="M87.86,218.9c-1.64,0-3.24-.06-4.82-.18a.52.52,0,0,1,.08-1c24.19,1.83,59.28-12.06,63.74-14.22,2.28-1.1,4-3.49,5.6-5.61.23-.3.44-.6.66-.88s.32-.48.5-.77a6.1,6.1,0,0,1,1.8-2.11,8.6,8.6,0,0,1,4-.51,13.18,13.18,0,0,0,2.53-.11,2.18,2.18,0,0,0,1.59-1.48,1.73,1.73,0,0,0-.45-1.78.56.56,0,0,1-.15-.41.57.57,0,0,1,.22-.38,2.14,2.14,0,0,0,1-1.73,3.66,3.66,0,0,0-1.58-2.8,9.54,9.54,0,0,0-4.53-1.7.52.52,0,0,1-.44-.32.51.51,0,0,1,.09-.54c2.79-3.21,3.26-3.28,3.44-3.31.91-.15,2.67,1.87,3.19,2.79a1.7,1.7,0,0,0,1.33.89c.11,0,.44,0,.7-.58a.81.81,0,0,0-.08-.57c-.7-1.78-4.19-4.79-5.4-5.28S151.2,179,149.5,180c-1,.58-5.37,7.86-7.9,12.32a.5.5,0,0,1-.51.25c-2.9-.35-8.38-1.67-14.71-3.19-10.65-2.56-23.9-5.75-32.47-6.25a.51.51,0,0,1-.49-.54.51.51,0,0,1,.55-.49c8.66.51,22,3.71,32.65,6.28,6.06,1.45,11.33,2.72,14.25,3.12,1.44-2.5,6.67-11.53,8.1-12.39s10.39-4.6,12.29-3.83c1.36.56,5.14,3.76,6,5.86a1.76,1.76,0,0,1,.06,1.38,1.84,1.84,0,0,1-1.59,1.18,2.65,2.65,0,0,1-2.27-1.41,7.4,7.4,0,0,0-2.15-2.25,23.29,23.29,0,0,0-2.19,2.23,9.88,9.88,0,0,1,4.12,1.78,4.61,4.61,0,0,1,2,3.64,3.1,3.1,0,0,1-1,2.19,2.71,2.71,0,0,1,.34,2.37,3.17,3.17,0,0,1-2.37,2.2,14,14,0,0,1-2.75.13,8.28,8.28,0,0,0-3.51.38,5.61,5.61,0,0,0-1.42,1.76c-.2.32-.39.61-.56.84l-.65.87c-1.63,2.21-3.47,4.72-6,5.93C147,204.56,114.09,218.9,87.86,218.9Z" fill="#231f20"/><rect x="225.68" y="157.11" width="18.91" height="7.32" rx="3.66" fill="#fff"/><path d="M240.93,165H229.34a4.18,4.18,0,0,1,0-8.35h11.59a4.18,4.18,0,1,1,0,8.35Zm-11.59-7.32a3.15,3.15,0,0,0,0,6.29h11.59a3.15,3.15,0,1,0,0-6.29Z" fill="#231f20"/><rect x="232" y="164.43" width="6.26" height="6.26" fill="#fff"/><path d="M238.27,171.21H232a.51.51,0,0,1-.51-.51v-6.27a.51.51,0,0,1,.51-.51h6.27a.52.52,0,0,1,.52.51v6.27A.52.52,0,0,1,238.27,171.21Zm-5.75-1h5.23V165h-5.23Z" fill="#231f20"/><circle cx="235.14" cy="190.59" r="22.52" fill="#fff"/><path d="M235.14,213.62a23,23,0,1,1,23-23A23.06,23.06,0,0,1,235.14,213.62Zm0-45a22,22,0,1,0,22,22A22,22,0,0,0,235.14,168.58Z" fill="#231f20"/><path d="M235.14,206.52a15.93,15.93,0,1,1,15.92-15.93A15.95,15.95,0,0,1,235.14,206.52Zm0-30.86a14.93,14.93,0,1,0,14.92,14.93A15,15,0,0,0,235.14,175.66Z" fill="#d1d3d4"/><path d="M239.9,160.21s9.1-26.06,7.53-30.06-3.84-9.4-5.83-12.18a56.27,56.27,0,0,0-11.16-11.54l-10-1s11.89,11.31,16.35,15.39,3.11,6,3,11.88-6.18,20.78-7.59,27.54Z" fill="#231f20"/><path d="M239.9,160.71h-7.66a.5.5,0,0,1-.48-.6c.56-2.73,1.87-6.72,3.25-10.94,2-6.12,4.26-13.06,4.32-16.51,0-1.21.09-2.25.16-3.17.25-3.6.37-5.24-3-8.33-4.41-4-16.23-15.29-16.35-15.4a.49.49,0,0,1-.11-.57.5.5,0,0,1,.5-.29l10,1a.42.42,0,0,1,.24.09A57.55,57.55,0,0,1,242,117.68c1.58,2.2,3.5,6.22,5.89,12.29,1.59,4.05-6.59,27.72-7.53,30.4A.51.51,0,0,1,239.9,160.71Zm-7-1h6.68c2.59-7.45,8.64-26.29,7.43-29.38-2.35-6-4.24-9.93-5.77-12.07a56.74,56.74,0,0,0-10.95-11.35l-8.38-.87c3,2.87,11.66,11.06,15.28,14.38s3.58,5.57,3.33,9.14c-.06.91-.14,1.94-.16,3.12-.06,3.6-2.25,10.31-4.37,16.79C234.68,153.37,233.47,157.07,232.86,159.71Z" fill="#231f20"/><path d="M303.75,172.74c-11.79-7.17-44.07-21.48-50.92-25.06,0,0,1.17-13.34.46-14.88-1.26-2.78-3.92-7.65-7-8.67-3.26-1.09-9.06.64-12.1,1.72-2.57.91-5.19,2.42-6.14,5a11.33,11.33,0,0,0-.34,4.89,2.32,2.32,0,0,0,.31,1.19c.44.6,1.31.62,2.05.62,5.71,0,9.36,1.61,9.59,7.4.12,2.93,0,6.5,1.52,9.14,1.9,3.34,27.38,38.27,46.21,49.17,9.24,5.34,18,7.2,23.09,5" fill="#fff"/><path d="M305.54,209.62c-5.11,0-11.66-2.07-18.37-6-18.62-10.78-44.2-45.49-46.4-49.37-1.37-2.43-1.47-5.54-1.55-8.28l0-1.09c-.19-4.86-2.82-6.86-9.07-6.9a2.92,2.92,0,0,1-2.46-.83,2.75,2.75,0,0,1-.42-1.46,11.91,11.91,0,0,1,.37-5.11c.86-2.28,3-4,6.45-5.26,3.19-1.14,9-2.86,12.44-1.72s6.22,6.62,7.27,8.93c.7,1.52-.14,11.93-.38,14.8,2.32,1.2,7,3.37,12.78,6.08,12.6,5.9,29.86,14,37.86,18.83a.52.52,0,0,1-.54.89c-7.94-4.83-25.18-12.89-37.76-18.78-6.09-2.85-10.9-5.1-13.13-6.26a.53.53,0,0,1-.27-.51c.44-5.1,1-13.59.5-14.62-.77-1.7-3.55-7.35-6.66-8.39s-9.3.84-11.76,1.72c-3.12,1.11-5.08,2.67-5.83,4.65a11.18,11.18,0,0,0-.31,4.67,2,2,0,0,0,.22.93c.27.37.9.4,1.63.41,4.84,0,9.83,1,10.1,7.89l0,1.09c.08,2.63.17,5.61,1.42,7.81,2.19,3.86,27.56,38.3,46,49,9,5.22,17.69,7.12,22.63,5a.51.51,0,0,1,.68.26.52.52,0,0,1-.27.68A13,13,0,0,1,305.54,209.62Z" fill="#231f20"/><path d="M138.59,153.6l-.15,0a.51.51,0,0,1-.34-.4L136.66,144l-8.42-4a.51.51,0,0,1-.28-.45.49.49,0,0,1,.27-.45l8.33-4.22,1.24-9.25a.51.51,0,0,1,.34-.41.51.51,0,0,1,.51.12l6.59,6.62,9.18-1.68a.49.49,0,0,1,.49.19.51.51,0,0,1,0,.53l-4.25,8.31,4.43,8.21a.51.51,0,0,1,0,.53.52.52,0,0,1-.49.2l-9.21-1.48L139,153.44A.48.48,0,0,1,138.59,153.6Zm-9-14.15,7.74,3.72a.49.49,0,0,1,.27.37l1.33,8.48,5.92-6.21a.49.49,0,0,1,.44-.15l8.48,1.36-4.08-7.55a.49.49,0,0,1,0-.47l3.91-7.64-8.44,1.55a.54.54,0,0,1-.45-.14l-6.05-6.08-1.15,8.5a.47.47,0,0,1-.27.38Zm7.43-4.32h0Z" fill="#d1d3d4"/><path d="M233.35,187.76,230.06,190l-3.1-4.81,6.94-4.43H240v19.6h-6.64Z" fill="#d1d3d4"/><polygon points="251.34 260.44 155.25 260.44 162.11 239.8 244.48 239.8 251.34 260.44" fill="#231f20"/><path d="M251.34,260.94H155.25a.51.51,0,0,1-.4-.2.49.49,0,0,1-.07-.45l6.85-20.65a.51.51,0,0,1,.48-.34h82.37a.51.51,0,0,1,.48.34l6.85,20.65a.49.49,0,0,1-.07.45A.51.51,0,0,1,251.34,260.94Zm-95.4-1h94.71l-6.53-19.66H162.47Z" fill="#231f20"/><path d="M164.18,257.75a.34.34,0,0,1-.14,0,.5.5,0,0,1-.35-.61l3.83-13.89a.5.5,0,1,1,1,.27l-3.82,13.89A.49.49,0,0,1,164.18,257.75Z" fill="#fff"/><path d="M268.66,80.3a1.15,1.15,0,0,1-.31,0,1.36,1.36,0,0,1-1.07-1.18L267,76.57a.38.38,0,0,0-.18-.28L264.67,75a1.38,1.38,0,0,1,.57-2.54l2.51-.3A.37.37,0,0,0,268,72l1.33-2.14a1.38,1.38,0,0,1,2.54.57h0l.3,2.5a.35.35,0,0,0,.17.28l2.14,1.34a1.35,1.35,0,0,1,.62,1.47A1.37,1.37,0,0,1,273.94,77l-2.5.29a.36.36,0,0,0-.28.18l-1.34,2.14A1.35,1.35,0,0,1,268.66,80.3Zm1.87-10.14a.36.36,0,0,0-.32.18l-1.33,2.14a1.4,1.4,0,0,1-1,.64l-2.51.29a.38.38,0,0,0-.16.7l2.14,1.33a1.37,1.37,0,0,1,.64,1l.3,2.5a.37.37,0,0,0,.29.33.39.39,0,0,0,.41-.17L270.31,77a1.36,1.36,0,0,1,1-.64l2.51-.29a.39.39,0,0,0,.15-.71L271.84,74a1.39,1.39,0,0,1-.64-1l-.29-2.51a.37.37,0,0,0-.29-.32Z" fill="#d1d3d4"/><path d="M325,107.79a1.55,1.55,0,0,1-1.42-.92l-1.28-2.81a.54.54,0,0,0-.38-.31l-3-.75a1.58,1.58,0,0,1-1.19-1.39,1.56,1.56,0,0,1,.92-1.57l2.8-1.28a.58.58,0,0,0,.32-.38l.74-3a1.58,1.58,0,0,1,1.39-1.19,1.56,1.56,0,0,1,1.57.92h0l1.28,2.8a.62.62,0,0,0,.39.32l3,.75a1.54,1.54,0,0,1,1.19,1.38,1.58,1.58,0,0,1-.92,1.58l-2.8,1.27a.58.58,0,0,0-.31.39l-.75,3a1.56,1.56,0,0,1-1.39,1.19ZM324,95.2h0a.56.56,0,0,0-.5.43l-.75,3a1.59,1.59,0,0,1-.87,1L319.05,101a.55.55,0,0,0-.33.57.57.57,0,0,0,.43.51l3,.75a1.53,1.53,0,0,1,1.05.87l1.28,2.8a.54.54,0,0,0,.57.33.55.55,0,0,0,.51-.43l.75-3a1.55,1.55,0,0,1,.87-1L330,101a.56.56,0,0,0,.33-.58.55.55,0,0,0-.43-.5l-3-.75a1.59,1.59,0,0,1-1.05-.88l-1.28-2.8h0A.55.55,0,0,0,324,95.2Z" fill="#d1d3d4"/><path d="M120.12,75.33a1.6,1.6,0,0,1-1.48-1l-1.35-2.94a.59.59,0,0,0-.42-.35l-3.14-.79a1.63,1.63,0,0,1-.28-3.06l3-1.35a.64.64,0,0,0,.35-.42l.78-3.14A1.63,1.63,0,0,1,119,61.09a1.61,1.61,0,0,1,1.63.95h0L121.94,65a.61.61,0,0,0,.42.35l3.14.79a1.59,1.59,0,0,1,1.23,1.43,1.61,1.61,0,0,1-.94,1.64l-3,1.34a.64.64,0,0,0-.35.42l-.78,3.14a1.63,1.63,0,0,1-1.44,1.23Zm-1-13.25h-.06a.61.61,0,0,0-.56.47l-.78,3.14a1.61,1.61,0,0,1-.91,1.09l-2.94,1.35a.63.63,0,0,0,.1,1.18l3.15.79a1.6,1.6,0,0,1,1.08.9L119.55,74a.6.6,0,0,0,.63.36.59.59,0,0,0,.55-.47l.79-3.14a1.62,1.62,0,0,1,.9-1.09l3-1.34a.63.63,0,0,0,.37-.64.61.61,0,0,0-.48-.55l-3.14-.79a1.64,1.64,0,0,1-1.09-.9l-1.34-3A.61.61,0,0,0,119.12,62.08Z" fill="#d1d3d4"/><path d="M146.5,83.93a.5.5,0,0,1-.5-.5V80.24a.5.5,0,0,1,1,0v3.19A.5.5,0,0,1,146.5,83.93Z" fill="#d1d3d4"/><path d="M146.5,90.6a.5.5,0,0,1-.5-.5V86.91a.5.5,0,0,1,1,0V90.1A.5.5,0,0,1,146.5,90.6Z" fill="#d1d3d4"/><path d="M151.43,85.67h-3.19a.5.5,0,0,1,0-1h3.19a.5.5,0,0,1,0,1Z" fill="#d1d3d4"/><path d="M144.77,85.67h-3.2a.5.5,0,0,1,0-1h3.2a.5.5,0,0,1,0,1Z" fill="#d1d3d4"/><path d="M102.12,103.09a.5.5,0,0,1-.5-.5V99.4a.5.5,0,0,1,.5-.5.5.5,0,0,1,.5.5v3.19A.51.51,0,0,1,102.12,103.09Z" fill="#d1d3d4"/><path d="M102.12,109.75a.5.5,0,0,1-.5-.5v-3.19a.5.5,0,0,1,.5-.5.5.5,0,0,1,.5.5v3.19A.5.5,0,0,1,102.12,109.75Z" fill="#d1d3d4"/><path d="M107,104.82h-3.19a.5.5,0,0,1-.5-.5.51.51,0,0,1,.5-.5H107a.5.5,0,0,1,.5.5A.5.5,0,0,1,107,104.82Z" fill="#d1d3d4"/><path d="M100.38,104.82H97.19a.5.5,0,0,1-.5-.5.5.5,0,0,1,.5-.5h3.19a.5.5,0,0,1,.5.5A.5.5,0,0,1,100.38,104.82Z" fill="#d1d3d4"/><path d="M290.32,99.76a.5.5,0,0,1-.5-.5v-3.2a.5.5,0,0,1,.5-.5.51.51,0,0,1,.5.5v3.2A.51.51,0,0,1,290.32,99.76Z" fill="#d1d3d4"/><path d="M290.32,106.42a.5.5,0,0,1-.5-.5v-3.19a.5.5,0,0,1,.5-.5.5.5,0,0,1,.5.5v3.19A.5.5,0,0,1,290.32,106.42Z" fill="#d1d3d4"/><path d="M295.25,101.49h-3.2a.5.5,0,0,1-.5-.5.51.51,0,0,1,.5-.5h3.2a.51.51,0,0,1,.5.5A.5.5,0,0,1,295.25,101.49Z" fill="#d1d3d4"/><path d="M288.58,101.49h-3.19a.5.5,0,0,1-.5-.5.5.5,0,0,1,.5-.5h3.19a.5.5,0,0,1,.5.5A.5.5,0,0,1,288.58,101.49Z" fill="#d1d3d4"/></g></svg>