<svg xmlns="http://www.w3.org/2000/svg" viewBox="0 0 400 300"><g id="_33" data-name="#33"><rect x="97.87" y="41.41" width="245.79" height="168.77" fill="#fff"/><path d="M343.66,210.69H97.87a.5.5,0,0,1-.5-.5V41.41a.5.5,0,0,1,.5-.5H343.66a.51.51,0,0,1,.5.5V210.19A.51.51,0,0,1,343.66,210.69Zm-245.29-1H343.16V41.91H98.37Z" fill="#231f20"/><rect x="97.87" y="30.95" width="245.79" height="10.46" fill="#fff"/><path d="M343.66,41.91H97.87a.5.5,0,0,1-.5-.5V31a.5.5,0,0,1,.5-.5H343.66a.5.5,0,0,1,.5.5V41.41A.5.5,0,0,1,343.66,41.91Zm-245.29-1H343.16V31.46H98.37Z" fill="#231f20"/><path d="M194.12,146.48H194c-11.05-2.91-11.43-23.8-11.91-50.24v-.14c-.35-19.49-5.82-19.78-5.87-19.78a.51.51,0,0,1-.5-.5.48.48,0,0,1,.48-.5,3.21,3.21,0,0,1,2.23,1.11c2,1.9,4.43,6.85,4.66,19.65v.14c.47,26,.85,46.58,11.17,49.29a.5.5,0,0,1,.35.61A.49.49,0,0,1,194.12,146.48Z" fill="#d1d3d4"/><path d="M182,182.17a.47.47,0,0,1-.3-.1.51.51,0,0,1-.1-.7c.06-.08,5.67-7.55,5.67-23.56,0-9.92,7-10.21,7-10.21a.52.52,0,0,1,.51.48.5.5,0,0,1-.49.52c-.24,0-6.06.3-6.06,9.21,0,16.38-5.63,23.86-5.87,24.17A.53.53,0,0,1,182,182.17Z" fill="#d1d3d4"/><path d="M256.06,170.44H256c-7.38-1.53-10.35-19.62-11.62-27.34-.19-1.17-.34-2.07-.45-2.61-.78-3.62-5.25-5.1-5.3-5.12a.5.5,0,0,1,.31-1c.21.07,5.07,1.69,6,5.86.11.55.26,1.47.46,2.66,1.13,6.87,4.12,25.13,10.83,26.52a.5.5,0,0,1-.1,1Z" fill="#d1d3d4"/><path d="M240.25,133.25a4.24,4.24,0,0,1-1.57-.3.52.52,0,0,1-.25-.67.49.49,0,0,1,.66-.24,3.21,3.21,0,0,0,2.26,0,4.69,4.69,0,0,0,2.43-2.7c.82-1.88,1.16-7.52,1.59-14.66.58-9.57,1.3-21.47,3.54-31.38,1.59-7,9.39-11.5,9.72-11.69a.51.51,0,0,1,.68.2.5.5,0,0,1-.19.68c-.08,0-7.74,4.42-9.24,11-2.22,9.83-2.93,21.69-3.51,31.22-.44,7.24-.79,13-1.68,15a5.61,5.61,0,0,1-3,3.24A4,4,0,0,1,240.25,133.25Z" fill="#d1d3d4"/><rect x="194.23" y="106.35" width="44.34" height="74.56" fill="#fff"/><path d="M238.58,181.41H194.23a.5.5,0,0,1-.5-.5V106.35a.51.51,0,0,1,.5-.5h44.35a.51.51,0,0,1,.5.5v74.56A.5.5,0,0,1,238.58,181.41Zm-43.85-1h43.35V106.85H194.73Z" fill="#231f20"/><rect x="255.89" y="124" width="44.34" height="74.56" fill="#fff"/><path d="M300.24,199.06H255.89a.5.5,0,0,1-.5-.5V124a.5.5,0,0,1,.5-.5h44.35a.5.5,0,0,1,.5.5v74.56A.5.5,0,0,1,300.24,199.06Zm-43.85-1h43.35V124.5H256.39Z" fill="#231f20"/><rect x="131.6" y="56.32" width="44.34" height="74.56" fill="#fff"/><path d="M176,131.38H131.6a.5.5,0,0,1-.5-.5V56.32a.5.5,0,0,1,.5-.5H176a.5.5,0,0,1,.5.5v74.56A.5.5,0,0,1,176,131.38Zm-43.85-1h43.35V56.82H132.1Z" fill="#231f20"/><path d="M169.48,106H139.39a.5.5,0,0,1,0-1h30.09a.5.5,0,0,1,0,1Z" fill="#231f20"/><rect x="135.46" y="159.33" width="46.18" height="38.86" fill="#fff"/><path d="M181.64,198.69H135.46a.5.5,0,0,1-.5-.5V159.33a.5.5,0,0,1,.5-.5h46.18a.51.51,0,0,1,.5.5v38.86A.5.5,0,0,1,181.64,198.69Zm-45.68-1h45.18V159.83H136Z" fill="#231f20"/><rect x="258.97" y="54.97" width="46.18" height="38.86" fill="#fff"/><path d="M305.15,94.32H259a.5.5,0,0,1-.5-.5V55a.5.5,0,0,1,.5-.5h46.18a.5.5,0,0,1,.5.5V93.82A.5.5,0,0,1,305.15,94.32Zm-45.68-1h45.18V55.47H259.47Z" fill="#231f20"/><path d="M302.1,64.43H262.68a.5.5,0,0,1-.5-.5.5.5,0,0,1,.5-.5H302.1a.51.51,0,0,1,.5.5A.5.5,0,0,1,302.1,64.43Z" fill="#d1d3d4"/><path d="M294.07,74.62H270.61a.5.5,0,0,1-.5-.5.5.5,0,0,1,.5-.5h23.46a.5.5,0,0,1,.5.5A.5.5,0,0,1,294.07,74.62Z" fill="#d1d3d4"/><path d="M288.82,80.15H270.61a.5.5,0,0,1-.5-.5.5.5,0,0,1,.5-.5h18.21a.51.51,0,0,1,.5.5A.5.5,0,0,1,288.82,80.15Z" fill="#d1d3d4"/><rect x="260.47" y="131.65" width="35.19" height="51.81" fill="#fff"/><path d="M295.66,184H260.47a.5.5,0,0,1-.5-.5v-51.8a.5.5,0,0,1,.5-.5h35.19a.5.5,0,0,1,.5.5v51.8A.5.5,0,0,1,295.66,184ZM261,183h34.19v-50.8H261Z" fill="#d1d3d4"/><path d="M286.75,189.3H269a.5.5,0,0,1-.5-.5.51.51,0,0,1,.5-.5h17.74a.5.5,0,0,1,.5.5A.5.5,0,0,1,286.75,189.3Z" fill="#d1d3d4"/><path d="M286.75,192.68H269a.5.5,0,0,1-.5-.5.51.51,0,0,1,.5-.5h17.74a.5.5,0,0,1,.5.5A.5.5,0,0,1,286.75,192.68Z" fill="#d1d3d4"/><rect x="200.78" y="160.55" width="32.15" height="9.29" rx="3.34" fill="#68e1fd"/><rect x="200.78" y="146.85" width="32.15" height="9.29" rx="3.34" fill="#fff"/><path d="M229.59,156.64H204.13a3.85,3.85,0,0,1-3.85-3.84v-2.6a3.86,3.86,0,0,1,3.85-3.85h25.46a3.85,3.85,0,0,1,3.84,3.85v2.6A3.84,3.84,0,0,1,229.59,156.64Zm-25.46-9.29a2.86,2.86,0,0,0-2.85,2.85v2.6a2.85,2.85,0,0,0,2.85,2.84h25.46a2.84,2.84,0,0,0,2.84-2.84v-2.6a2.85,2.85,0,0,0-2.84-2.85Z" fill="#d1d3d4"/><rect x="200.78" y="133.15" width="32.15" height="9.29" rx="3.34" fill="#fff"/><path d="M229.59,142.94H204.13a3.85,3.85,0,0,1-3.85-3.84v-2.61a3.85,3.85,0,0,1,3.85-3.84h25.46a3.84,3.84,0,0,1,3.84,3.84v2.61A3.84,3.84,0,0,1,229.59,142.94Zm-25.46-9.29a2.85,2.85,0,0,0-2.85,2.84v2.61a2.85,2.85,0,0,0,2.85,2.84h25.46a2.84,2.84,0,0,0,2.84-2.84v-2.61a2.84,2.84,0,0,0-2.84-2.84Z" fill="#d1d3d4"/><rect x="200.78" y="119.45" width="32.15" height="9.29" rx="3.34" fill="#fff"/><path d="M229.59,129.24H204.13a3.86,3.86,0,0,1-3.85-3.85v-2.6a3.85,3.85,0,0,1,3.85-3.84h25.46a3.84,3.84,0,0,1,3.84,3.84v2.6A3.85,3.85,0,0,1,229.59,129.24ZM204.13,120a2.85,2.85,0,0,0-2.85,2.84v2.6a2.86,2.86,0,0,0,2.85,2.85h25.46a2.85,2.85,0,0,0,2.84-2.85v-2.6a2.84,2.84,0,0,0-2.84-2.84Z" fill="#d1d3d4"/><path d="M226.5,113.85H207a.5.5,0,0,1-.5-.5.5.5,0,0,1,.5-.5H226.5a.5.5,0,0,1,.5.5A.51.51,0,0,1,226.5,113.85Z" fill="#d1d3d4"/><rect x="137.52" y="63.42" width="31.54" height="26.19" fill="#fff"/><path d="M169.06,90.1H137.52a.5.5,0,0,1-.5-.5V63.42a.5.5,0,0,1,.5-.5h31.54a.5.5,0,0,1,.5.5V89.6A.5.5,0,0,1,169.06,90.1Zm-31-1h30.54V63.92H138Z" fill="#d1d3d4"/><rect x="139.21" y="164.21" width="38.29" height="28.91" fill="#fff"/><path d="M177.51,193.62h-38.3a.5.5,0,0,1-.5-.5V164.21a.51.51,0,0,1,.5-.5h38.3a.51.51,0,0,1,.5.5v28.91A.5.5,0,0,1,177.51,193.62Zm-37.8-1H177V164.71h-37.3Z" fill="#d1d3d4"/><polyline points="139.21 186.36 154.98 169.47 171.88 185.24" fill="#fff"/><path d="M139.21,186.86a.49.49,0,0,1-.36-.84l15.77-16.89a.5.5,0,0,1,.7,0l16.9,15.77a.5.5,0,1,1-.69.73L155,170.18l-15.43,16.53A.51.51,0,0,1,139.21,186.86Z" fill="#d1d3d4"/><polyline points="165.87 179.79 171.12 173.41 177.51 180.54" fill="#fff"/><path d="M177.51,181.05a.52.52,0,0,1-.38-.17l-6-6.7-4.89,5.93a.49.49,0,0,1-.7.07.5.5,0,0,1-.07-.7l5.26-6.39a.53.53,0,0,1,.37-.18.56.56,0,0,1,.39.17l6.38,7.13a.51.51,0,0,1,0,.71A.55.55,0,0,1,177.51,181.05Z" fill="#d1d3d4"/><rect x="316.51" y="93.5" width="15.02" height="15.2" fill="#fff"/><path d="M331.53,109.2h-15a.5.5,0,0,1-.5-.5V93.5a.5.5,0,0,1,.5-.5h15a.5.5,0,0,1,.5.5v15.2A.5.5,0,0,1,331.53,109.2Zm-14.52-1h14V94H317Z" fill="#d1d3d4"/><path d="M328,98h-7.88a.5.5,0,0,1-.5-.5.5.5,0,0,1,.5-.5H328a.5.5,0,0,1,.5.5A.5.5,0,0,1,328,98Z" fill="#d1d3d4"/><path d="M328,101.27h-7.88a.5.5,0,0,1-.5-.5.5.5,0,0,1,.5-.5H328a.5.5,0,0,1,.5.5A.5.5,0,0,1,328,101.27Z" fill="#d1d3d4"/><path d="M325.57,105.16h-5.49a.5.5,0,0,1,0-1h5.49a.5.5,0,0,1,0,1Z" fill="#d1d3d4"/><path d="M324.09,95.38a.5.5,0,0,1-.5-.5v-3a.5.5,0,1,1,1,0v3A.5.5,0,0,1,324.09,95.38Z" fill="#d1d3d4"/><rect x="201.64" y="59.99" width="15.02" height="15.2" fill="#fff"/><path d="M216.65,75.69h-15a.5.5,0,0,1-.5-.5V60a.5.5,0,0,1,.5-.5h15a.5.5,0,0,1,.5.5v15.2A.5.5,0,0,1,216.65,75.69Zm-14.51-1h14V60.49h-14Z" fill="#d1d3d4"/><path d="M213.09,64.53H205.2a.5.5,0,0,1,0-1h7.89a.5.5,0,0,1,0,1Z" fill="#d1d3d4"/><path d="M213.09,67.76H205.2a.5.5,0,0,1,0-1h7.89a.5.5,0,0,1,0,1Z" fill="#d1d3d4"/><path d="M210.69,71.66H205.2a.51.51,0,0,1-.5-.5.5.5,0,0,1,.5-.5h5.49a.5.5,0,0,1,.5.5A.5.5,0,0,1,210.69,71.66Z" fill="#d1d3d4"/><path d="M209.21,61.88a.51.51,0,0,1-.5-.5v-3a.5.5,0,0,1,.5-.5.5.5,0,0,1,.5.5v3A.5.5,0,0,1,209.21,61.88Z" fill="#d1d3d4"/><rect x="333.41" y="70.13" width="15.02" height="15.2" fill="#fff"/><path d="M348.42,85.83h-15a.5.5,0,0,1-.5-.5V70.13a.5.5,0,0,1,.5-.5h15a.5.5,0,0,1,.5.5v15.2A.5.5,0,0,1,348.42,85.83Zm-14.51-1h14V70.63h-14Z" fill="#d1d3d4"/><path d="M344.86,74.67H337a.51.51,0,0,1-.5-.5.5.5,0,0,1,.5-.5h7.89a.5.5,0,0,1,.5.5A.51.51,0,0,1,344.86,74.67Z" fill="#d1d3d4"/><path d="M344.86,77.9H337a.51.51,0,0,1-.5-.5.5.5,0,0,1,.5-.5h7.89a.5.5,0,0,1,.5.5A.51.51,0,0,1,344.86,77.9Z" fill="#d1d3d4"/><path d="M341,72a.5.5,0,0,1-.5-.5v-3a.51.51,0,0,1,.5-.5.5.5,0,0,1,.5.5v3A.5.5,0,0,1,341,72Z" fill="#d1d3d4"/><path d="M246.87,191.6H227.16a.5.5,0,0,1-.5-.5.51.51,0,0,1,.5-.5h19.71a.5.5,0,0,1,.5.5A.5.5,0,0,1,246.87,191.6Z" fill="#d1d3d4"/><path d="M246.87,196.67H227.16a.5.5,0,0,1-.5-.5.51.51,0,0,1,.5-.5h19.71a.5.5,0,0,1,.5.5A.5.5,0,0,1,246.87,196.67Z" fill="#d1d3d4"/><path d="M232.23,88.55H216.46a.5.5,0,0,1-.5-.5.51.51,0,0,1,.5-.5h15.77a.5.5,0,0,1,.5.5A.5.5,0,0,1,232.23,88.55Z" fill="#d1d3d4"/><path d="M226.6,94.18H214.21a.5.5,0,0,1-.5-.5.51.51,0,0,1,.5-.5H226.6a.5.5,0,0,1,.5.5A.5.5,0,0,1,226.6,94.18Z" fill="#d1d3d4"/><path d="M369.78,230.46H30.22a.5.5,0,0,1,0-1H369.78a.5.5,0,0,1,0,1Z" fill="#d1d3d4"/><path d="M62,248.68s-3.19,8.73-1.78,9.58,29.56,0,27.87-1.69-9.2-7.32-9.2-7.32" fill="#fff"/><path d="M66.65,259.06c-3.59,0-6.3-.13-6.71-.38-1.53-.92.33-6.76,1.57-10.17a.5.5,0,0,1,.94.34c-1.57,4.3-2.5,8.5-2,9,1.95.86,23.91-.16,27-1.19-2.08-1.92-8.77-6.94-8.85-7a.51.51,0,0,1-.1-.7.5.5,0,0,1,.7-.1c.31.23,7.56,5.67,9.26,7.36a.68.68,0,0,1,.07.92C87.49,258.42,74.79,259.06,66.65,259.06Z" fill="#231f20"/><path d="M90.46,82c-1.33-.06-2.66-.29-4.21-.42s-3.29-.66-3.31-2.1c0-1.24,1.45-2.25,1.13-3.44a2.73,2.73,0,0,0-.51-.87,13.32,13.32,0,0,1,2.29-18.29c-.4.14-.83-.26-.87-.68A1.7,1.7,0,0,1,85.44,55a8.23,8.23,0,0,1,4-2.43,25.36,25.36,0,0,1,14.94,0c3.73,1.09,8.21,4.07,7.72,8.57A3.59,3.59,0,0,1,109,64.47c-.83,4.82-3.36,8.12-6.54,11.61a19.45,19.45,0,0,1-7.84,5.33A10.8,10.8,0,0,1,90.46,82Z" fill="#fff"/><path d="M91.05,82.52h-.61c-.8,0-1.58-.13-2.41-.23-.58-.07-1.18-.14-1.82-.2-2.34-.19-3.75-1.16-3.77-2.58a3.55,3.55,0,0,1,.67-1.87c.32-.54.6-1,.48-1.45a2.29,2.29,0,0,0-.38-.64,13.78,13.78,0,0,1,1.67-18.46,1.33,1.33,0,0,1-.4-.83A2.13,2.13,0,0,1,85,54.73a8.91,8.91,0,0,1,4.24-2.59,26,26,0,0,1,15.23,0c4.38,1.28,8.57,4.6,8.07,9.11a4.14,4.14,0,0,1-3.14,3.67c-1,5-3.79,8.4-6.6,11.5a19.86,19.86,0,0,1-8,5.46A10.83,10.83,0,0,1,91.05,82.52ZM85.78,56.37a.55.55,0,0,1,.47.27.51.51,0,0,1-.08.64A12.8,12.8,0,0,0,84,74.88a3.08,3.08,0,0,1,.59,1A2.87,2.87,0,0,1,84,78.14a2.75,2.75,0,0,0-.53,1.34c0,1.3,2.38,1.57,2.85,1.61.66,0,1.27.13,1.86.2.81.09,1.57.18,2.33.22h0a10.17,10.17,0,0,0,4-.57,18.92,18.92,0,0,0,7.63-5.19c3.48-3.84,5.65-6.92,6.42-11.37A.5.5,0,0,1,109,64a3.1,3.1,0,0,0,2.6-2.83c.49-4.5-4.39-7.17-7.36-8a24.92,24.92,0,0,0-14.64,0,7.58,7.58,0,0,0-3.76,2.27,1.2,1.2,0,0,0-.36.8.41.41,0,0,0,.15.24A.45.45,0,0,1,85.78,56.37Z" fill="#231f20"/><polygon points="156.57 91.7 170.02 102.39 170.38 103.02 172.17 106.13 168.74 105.09 168.04 104.88 154.59 94.19 156.57 91.7" fill="#231f20"/><path d="M172.17,106.63l-.14,0-4.13-1.25a.46.46,0,0,1-.17-.09L154.28,94.58a.49.49,0,0,1-.19-.33.56.56,0,0,1,.11-.37l2-2.49a.49.49,0,0,1,.7-.08L170.33,102a.41.41,0,0,1,.12.14l2.15,3.74a.5.5,0,0,1,0,.56A.51.51,0,0,1,172.17,106.63Zm-3.9-2.2,2.85.86-1.48-2.57-13-10.32-1.36,1.71Z" fill="#231f20"/><path d="M154.6,88.61h2.34a.79.79,0,0,1,.79.79v8.16a0,0,0,0,1,0,0H153.8a0,0,0,0,1,0,0V89.41A.79.79,0,0,1,154.6,88.61Z" transform="translate(-14.02 157.13) rotate(-51.53)" fill="#231f20"/><path d="M158.05,97.91a.51.51,0,0,1-.31-.11l-6.39-5.08a1.27,1.27,0,0,1-.48-.86,1.3,1.3,0,0,1,.27-1l.39.31-.39-.31,1.46-1.83a1.27,1.27,0,0,1,.86-.48,1.3,1.3,0,0,1,.95.27L160.8,94a.48.48,0,0,1,.18.34.47.47,0,0,1-.1.36l-2.44,3.07a.49.49,0,0,1-.33.19Zm-4.44-8.32a.28.28,0,0,0-.23.11l-1.46,1.83h0a.29.29,0,0,0-.06.22.27.27,0,0,0,.11.19l6,4.77,1.82-2.29-6-4.77A.32.32,0,0,0,153.61,89.59Z" fill="#231f20"/><path d="M156.31,98.62a.51.51,0,0,1-.31-.11c-.35-.27-3.36-2.64-3.78-3a8.12,8.12,0,0,1-1.07-3,.52.52,0,0,1,.4-.61.51.51,0,0,1,.61.4,10.37,10.37,0,0,0,.77,2.5c.33.3,2.78,2.24,3.7,3a.5.5,0,0,1,.09.72A.51.51,0,0,1,156.31,98.62Z" fill="#231f20"/><path d="M70.4,111S60,132.12,60.83,138.59s22.25,3.94,22.25,3.94L82,110.44Z" fill="#fff"/><path d="M74.23,143.52l-2,0c-7.52-.24-11.53-1.87-11.91-4.83-.86-6.55,9.19-27,9.62-27.88a.5.5,0,0,1,.42-.28l11.54-.56a.5.5,0,0,1,.37.13.52.52,0,0,1,.16.35l1.12,32.1a.49.49,0,0,1-.44.51A84.56,84.56,0,0,1,74.23,143.52Zm-3.51-32c-1.19,2.46-10.16,21.18-9.39,27.05.62,4.78,15.11,4.23,21.23,3.56L81.47,111Z" fill="#231f20"/><path d="M111.79,244.55l.57,13.71s25.71.18,24.21-1.69-13.14-10.14-13.14-10.14l-1.88-10.14Z" fill="#fff"/><path d="M115.65,258.77h-3.3a.51.51,0,0,1-.49-.48l-.57-13.71a.52.52,0,0,1,.18-.4l9.76-8.26a.52.52,0,0,1,.49-.09.53.53,0,0,1,.33.38l1.84,9.94c1.48,1.06,11.63,8.31,13.07,10.11a.69.69,0,0,1,.1.77C136.35,258.49,124.52,258.77,115.65,258.77Zm-2.81-1c10.29.06,21.27-.33,23.14-1.1-1.66-1.74-9-7.11-12.84-9.82a.52.52,0,0,1-.2-.32l-1.72-9.29-8.92,7.55Z" fill="#231f20"/><path d="M116.45,148.23l10,100.08-16.52.37L91.15,178l-10.4,71.26-19.14-.94s3.33-39.8,5.07-54.95S71.1,152,71.1,152Z" fill="#231f20"/><path d="M110.3,71.48s3.45,5.68,2.64,6.79-3.28.26-3.28.26" fill="#fff"/><path d="M111.45,79.35a6.81,6.81,0,0,1-2-.34.51.51,0,0,1-.31-.64.5.5,0,0,1,.63-.31c.7.24,2.28.53,2.72-.08s-1-3.41-2.66-6.24a.49.49,0,0,1,.16-.68.5.5,0,0,1,.69.16c1.09,1.79,3.52,6.09,2.62,7.34A2.22,2.22,0,0,1,111.45,79.35Z" fill="#231f20"/><path d="M109.8,64.14c2.26,2,1.43,6,1.31,8.59-.17,3.68-.43,7.34-.77,11-.21,2.32-6.24,2.14-7.28,1.4l.59,9.23L91.17,89,92,78.42S96,78.6,98.5,74s2.72-12,2.72-12S107.6,62.2,109.8,64.14Z" fill="#fff"/><path d="M103.65,94.87a.48.48,0,0,1-.2,0L91,89.49a.53.53,0,0,1-.3-.5l.81-10.61a.5.5,0,0,1,.52-.46c.15,0,3.71.1,6.06-4.21,2.45-4.49,2.66-11.65,2.66-11.72a.5.5,0,0,1,.16-.35.46.46,0,0,1,.36-.14c.27,0,6.59.23,8.89,2.27,2.07,1.82,1.8,5,1.58,7.58,0,.5-.08,1-.1,1.41-.17,3.67-.43,7.38-.77,11a2.14,2.14,0,0,1-1.44,1.75,10.3,10.3,0,0,1-5.79.35l.54,8.46a.5.5,0,0,1-.21.44A.52.52,0,0,1,103.65,94.87Zm-12-6.16,11.4,4.88-.54-8.42a.52.52,0,0,1,.26-.47.51.51,0,0,1,.53,0,8.9,8.9,0,0,0,5.63-.11q.81-.37.87-.93c.33-3.63.59-7.33.76-11,0-.45.06-.93.1-1.44.2-2.35.45-5.26-1.24-6.75s-6.26-1.9-7.77-2c-.09,1.76-.55,7.62-2.76,11.66s-5.29,4.61-6.49,4.71Z" fill="#231f20"/><path d="M129,114.22s-14.76-15.6-20.61-21.46c-5.42-5.44-21.2-10.38-28.37-2.6,0,0-11.83,16.48-14.08,26.05l6.9,4.22a315,315,0,0,0-2.68,34.21c13,10.31,46.33-6.41,46.33-6.41l-3-23.48,5.39,5.38Z" fill="#68e1fd"/><path d="M110.36,81s-2.91,1.65-4.32-1.36" fill="#fff"/><path d="M108.61,81.94a3.18,3.18,0,0,1-1-.15,3.4,3.4,0,0,1-2-2,.49.49,0,0,1,.24-.66.5.5,0,0,1,.67.24,2.47,2.47,0,0,0,1.42,1.42,3.2,3.2,0,0,0,2.2-.28.5.5,0,0,1,.68.19.51.51,0,0,1-.19.68A4.48,4.48,0,0,1,108.61,81.94Z" fill="#231f20"/><path d="M103.17,73.57a5,5,0,0,0-.93-2.56A7.23,7.23,0,0,0,101,69.29a2.41,2.41,0,0,0-2-.68,2.22,2.22,0,0,0-1.48,1.08A4.22,4.22,0,0,0,97,71.5a7.89,7.89,0,0,0,3.37,7.13l-.2-.23" fill="#fff"/><path d="M100.37,79.13a.47.47,0,0,1-.28-.09,8.42,8.42,0,0,1-3.59-7.59,4.67,4.67,0,0,1,.6-2,2.75,2.75,0,0,1,1.83-1.32,2.86,2.86,0,0,1,2.37.81,7.3,7.3,0,0,1,1.37,1.83,5.53,5.53,0,0,1,1,2.83.49.49,0,0,1-.51.49.5.5,0,0,1-.49-.51,4.56,4.56,0,0,0-.86-2.3,6.77,6.77,0,0,0-1.18-1.6,1.92,1.92,0,0,0-1.53-.56A1.7,1.7,0,0,0,98,70a3.65,3.65,0,0,0-.46,1.59,7.43,7.43,0,0,0,3,6.58l0,0,.2.22a.5.5,0,0,1,0,.66A.51.51,0,0,1,100.37,79.13Z" fill="#231f20"/><path d="M103.06,85.14a9.78,9.78,0,0,1-4.46-3.29s0,5.6,4.72,7.4Z" fill="#231f20"/><path d="M103.32,89.75a.57.57,0,0,1-.18,0c-5-1.9-5-7.81-5-7.87a.5.5,0,0,1,.36-.48.49.49,0,0,1,.56.21,9.35,9.35,0,0,0,4.21,3.09.48.48,0,0,1,.33.44l.26,4.11a.48.48,0,0,1-.2.43A.47.47,0,0,1,103.32,89.75Zm-4-6.31a7.16,7.16,0,0,0,3.48,5l-.19-3A11.62,11.62,0,0,1,99.29,83.44Z" fill="#231f20"/><path d="M119.53,128a30.31,30.31,0,0,0,17,7.3c6.07.43,21.77-14.43,25.88-19,3.77-4.22,6.68-8.66,6.56-14.57a5.3,5.3,0,0,0-1.65-3.93c-.51-.44-1.17-.82-1.29-1.47,0-.24,0-.49-.06-.72a1.21,1.21,0,0,0-1.27-.77,3,3,0,0,0-1.45.66,20.1,20.1,0,0,0-5.33,5.43,11.43,11.43,0,0,0-.9,2.34c-.84,2.74-1.26,5.5-3.23,7.61S140.71,123,136.36,121.14c-5.36-2.3-9.39-4.45-9.39-4.45" fill="#fff"/><path d="M136.82,135.84h-.29a30.47,30.47,0,0,1-17.34-7.43.5.5,0,0,1,0-.71.49.49,0,0,1,.7,0,30,30,0,0,0,16.73,7.16c5.65.4,20.7-13.52,25.48-18.87,3.41-3.82,6.55-8.19,6.43-14.23A4.77,4.77,0,0,0,167,98.17a3.61,3.61,0,0,0-.3-.25,2.57,2.57,0,0,1-1.15-1.51,1.89,1.89,0,0,1,0-.41,2,2,0,0,0,0-.28c-.07-.26-.44-.41-.74-.39a2.5,2.5,0,0,0-1.19.56,20,20,0,0,0-5.2,5.27,12.35,12.35,0,0,0-.86,2.24c-.16.54-.3,1.07-.45,1.6-.6,2.17-1.22,4.42-2.88,6.21s-13.15,12.47-18,10.39c-5.32-2.28-9.39-4.45-9.43-4.47a.5.5,0,1,1,.48-.88s4.07,2.17,9.35,4.43c3.74,1.59,14.12-7.15,16.91-10.15,1.49-1.61,2.05-3.64,2.65-5.8.14-.54.29-1.08.46-1.62a12.15,12.15,0,0,1,.94-2.44A20.66,20.66,0,0,1,163,95.08a3.59,3.59,0,0,1,1.7-.75,1.67,1.67,0,0,1,1.79,1.14,2.5,2.5,0,0,1,.06.51,2.09,2.09,0,0,0,0,.25c.06.34.42.61.79.91l.33.27a5.71,5.71,0,0,1,1.83,4.3c.13,6.4-3.3,11.13-6.68,14.91C159.14,120.76,143.45,135.84,136.82,135.84Z" fill="#231f20"/><path d="M113.86,126.39a.51.51,0,0,1-.36-.15,149.41,149.41,0,0,1-10.59-12.18.5.5,0,0,1,.11-.7.48.48,0,0,1,.69.1,150.91,150.91,0,0,0,10.5,12.09.49.49,0,0,1-.35.84Z" fill="#231f20"/><path d="M90.87,176.53a.51.51,0,0,1-.32-.12c-.25-.21-6.09-5.18-6.12-13a.5.5,0,0,1,.49-.5h0a.49.49,0,0,1,.49.5c0,7.37,5.71,12.22,5.77,12.27a.5.5,0,0,1-.32.88Z" fill="#fff"/><ellipse cx="108.31" cy="68.86" rx="1.31" ry="0.52" transform="translate(18.74 160.78) rotate(-78.19)" fill="#231f20"/><path d="M72.66,117.55h-.08a.52.52,0,0,1-.42-.58c.12-.71,2.87-17.6,6-23.25a.5.5,0,0,1,.88.49c-3,5.49-5.83,22.75-5.86,22.92A.49.49,0,0,1,72.66,117.55Z" fill="#231f20"/><path d="M339.77,174.94a11.3,11.3,0,0,0-1.28-6c-.81-1.34-2.05-2.41-2.72-3.83-1.14-2.45-.34-5.34-.61-8a10,10,0,0,0-2.82-6c-1.41-1.42-3.23-2.4-4.57-3.88-2.21-2.44-2.85-5.87-4.1-8.91a22.22,22.22,0,0,0-8.82-10.38c2.4,4.84-3.08,11-.6,15.8.79,1.52,2.3,2.63,2.87,4.24,1.4,3.9-3.25,8.12-1.76,12,.74,1.93,2.81,3.05,3.77,4.88,1.29,2.46.28,5.46.38,8.24.15,3.84,2.49,7.28,5.26,9.94,1.73,1.66,3.66,3.09,5.53,4.59,2.23,1.79,3.18,3.67,5.15.79A24.83,24.83,0,0,0,339.77,174.94Z" fill="#231f20"/><path d="M342.26,177.14c-.71-3-1.23-6.19,0-9,1.37-3.17,4.79-5.42,5.19-8.85.26-2.25-.88-4.52-.43-6.74s2.26-3.74,3.76-5.37a22.52,22.52,0,0,0,5.8-13.74c2.16,2.85,4.35,5.76,5.52,9.14s1.2,7.35-.8,10.31a9.33,9.33,0,0,0-1.4,2.29c-.67,2.19,1.2,4.23,2.17,6.31a7.22,7.22,0,0,1-.69,7.44c-2,2.45-5.75,3.41-6.71,6.39a14.67,14.67,0,0,0-.34,3.39,10,10,0,0,1-7.15,8.53c-2.33.56-2.28-.36-2.7-2.31C343.9,182.3,342.9,179.76,342.26,177.14Z" fill="#231f20"/><path d="M334.87,155.76c-1.65-5.71-2.31-11.67-4.05-17.36a94.32,94.32,0,0,0-5.41-12.94l7.09,3c2.27,1,4.73,2.09,5.8,4.31,1.86,3.87-1.49,8.82.47,12.64.69,1.34,1.93,2.3,2.81,3.52,2.08,2.93,1.76,7,.62,10.36-.49,1.47-2.64,9-4.56,6.94-.77-.84-.83-4-1.15-5.13C336,159.29,335.38,157.54,334.87,155.76Z" fill="#231f20"/><path d="M338.85,231.61c-1.41-9.33-5.83-42.23-5.88-42.56l1-.13c.05.33,4.47,33.22,5.88,42.54Z" fill="#231f20"/><path d="M340.29,240.44h-1c.09-11.81,4.89-53.6,7.34-56.28l.73.68C345.25,187.15,340.38,227.73,340.29,240.44Z" fill="#231f20"/><path d="M342.69,238.32l-1,0c1.06-23.9-4-74.09-4.06-74.6l1-.1C338.67,164.09,343.75,214.35,342.69,238.32Z" fill="#231f20"/><path d="M326.6,204.88H353l-1.84,30c-.32,5.18-4.16,9.2-8.79,9.2h-5.1c-4.63,0-8.47-4-8.79-9.2Z" fill="#fff"/><path d="M342.34,244.54h-5.1c-4.88,0-9-4.25-9.31-9.68l-1.84-30a.49.49,0,0,1,.14-.38.52.52,0,0,1,.37-.16H353a.55.55,0,0,1,.38.16.49.49,0,0,1,.14.38l-1.85,30C351.31,240.29,347.22,244.54,342.34,244.54ZM327.15,205.4,329,234.8c.31,4.88,3.94,8.71,8.28,8.71h5.1c4.34,0,8-3.83,8.27-8.71l1.81-29.4Z" fill="#231f20"/></g></svg>