<svg xmlns="http://www.w3.org/2000/svg" viewBox="0 0 400 300"><g id="_129_world_map_flatline" data-name="#129_world_map_flatline"><rect x="36.67" y="53.82" width="327.05" height="199.27" fill="#fff"/><path d="M363.72,253.55h-327a.46.46,0,0,1-.46-.46V53.82a.47.47,0,0,1,.46-.46H363.72a.47.47,0,0,1,.46.46V253.09A.46.46,0,0,1,363.72,253.55Zm-326.59-.91H363.26V54.28H37.13Z" fill="#231f20"/><path d="M198.21,114.28a2.18,2.18,0,0,1-.41,2.43,1,1,0,0,0,.21.91,2.24,2.24,0,0,0,1.3.61c.72,0,1.52-.69,1.94.41,1.41-.1,2.46-1.51,4-.75.38.18,1.14-.43,1.76-.69a7.5,7.5,0,0,1,0-1.34c.36-1.91.69-2,2.2-.8.6-.53.84-1,.1-1.68-.55-.51-.45-1,.35-1.23a14.75,14.75,0,0,1,1.77-.21l2.24-.2,0-.53a3.83,3.83,0,0,0-1.25-.26,13.36,13.36,0,0,1-2.55.54,6.24,6.24,0,0,1-2.71-.88c-.44-.27.14-2.64.63-3,.87-.71,1.76-1.4,2.95-2.33-.6-.2-1.15-.58-1.56-.47a5.87,5.87,0,0,0-2,1.1c-.49.4-.79,1-1.27,1.47s-1.2.73-1.65,1.22c-.87.92-.75,1.57.25,2.3a1,1,0,0,1-.12,1.85,2,2,0,0,0-1.15,1.74c-.08.73-.08,1.79-1.38,1.51-1.6,2.08-1.55.07-2-.79-.08-.16-.15-.32-.24-.47-.45-.73-.77-1.77-1.42-2.07-.44-.2-1.35.66-2.07,1a1.66,1.66,0,0,1-2.09-.93,9.59,9.59,0,0,1-.64-2.25A1.93,1.93,0,0,1,194,109a8.32,8.32,0,0,1,3.3-1.89c.9-.24,1.65-1.23,2.34-2,1-1.11,1.9-2.33,2.73-3.36l-1.84.45a9.7,9.7,0,0,1,1.39-1.07,8.46,8.46,0,0,1,1.63-.36c.52-.32,1.43-1.34,2.11-1.21,1.21.24,2.1-.67,3.26-.4.54.12,1.24-.52,2.12-.94l-.46,1a4.66,4.66,0,0,1,1.54-.5,18.38,18.38,0,0,1,2.63.56l-.31.48c1.9.44,3.78.8,5.62,1.32a17.14,17.14,0,0,1,3,1.29c.8.4.85,1,0,1.41-1.6.81-3.24.41-4.87,0a3.58,3.58,0,0,0-1.55-.19l1.47.79c0,1.76,1.08,2.66,2.81,2.15l-1.16-.76.11-.27,3,.48-.54-1.12a17.76,17.76,0,0,1,1.82-.76,14.82,14.82,0,0,1,2-.3,3.07,3.07,0,0,1-.46-1,8,8,0,0,1,.1-1.61l2.26.49,0,.45-1.11.38c.84,1.29,1.18,1.19,2.27.32a13.49,13.49,0,0,1,3.16-1.49,7.53,7.53,0,0,1,1.25-.26c.9,1.43,2.2,0,3.39.11.52,0,1.1-.76,1.55.21a11.47,11.47,0,0,0,1.38-.44l-2.41-1.72a45.93,45.93,0,0,1,4.85.9c1.34.41,2.53,1.32,4.07,1.24a3.19,3.19,0,0,1-1.64-2.81,10.12,10.12,0,0,1,1.66-1.87,4.21,4.21,0,0,1,2-.45,6.29,6.29,0,0,1,1.53.35l-.75,1.09.57,3.79.54.17L248,103.94c1.73.4,3.13-.63,3.35-2.66.77,0,1.75-.38,1.82,1,.89-.77.69-1.46-.41-1.51-.7,0-1.4,0-2.17,0-.09-.92-.18-1.84-.28-2.92l1.55-1v1.34l1.36.19-1-.87,1.62.23.13-.28-.79-.55.09-.29c1,.31,2,.64,3.07.94a8.51,8.51,0,0,0,1.21.21s.11-.32.08-.33c-.35-.17-.72-.32-1.27-.55L256,95.71l5.27-.45-.78-.83A14.9,14.9,0,0,1,268.24,93a11.36,11.36,0,0,0,2.78-.42c.08,0,.15-.11.23-.12a4.43,4.43,0,0,0,2.31-1c1-.7,2.17-1.53,3.25.08.2.31.87.29,1.27.41a28.83,28.83,0,0,1,4.26.07c.51.08.9,1,1.36,1.55l-5.92,2.11,0,.24c.39,0,.79.07,1.19.07s1,.12,1.27-.09c1.34-1,2.7-.39,4.08-.24.54.06,1.14-.32,1.66-.22a4.81,4.81,0,0,1,1.77.84,2.67,2.67,0,0,0,3.51-.68,1.27,1.27,0,0,1,1-.23c1.31.17,2.61.4,4,.62-.17,1.53-.09,2.82,1.9,2.86l.53-.88H305l-.66-1.09c1.58-.12,3.2-.61,4.6-.24s3.17.08,4.67,1.22c1,.76,2.73.65,4.14.69s2.88-.25,3.9,1.26c.22.34,1.09.29,1.66.33a21.62,21.62,0,0,0,2.67,0c.65,0,1.29-.25,1.94-.34a9.77,9.77,0,0,1,1.21,0l.25.42-.8.23.09.26,2.16.65-.41-1.67c2.36.29,4.74.2,6.81,1s4.42,1,5.67,3.18c.68-.94,1.3-.85,3.77.69-.8.67-2.12.7-2.37,1.94-.86-.26-1.72-.51-2.58-.78-.44-.14-.86-.33-1.3-.5a6.54,6.54,0,0,1-1-.38,2.74,2.74,0,0,1-.51-.6c-.08.26-.15.52-.22.78s0,.25-.09.42l-2.35.82a2.65,2.65,0,0,1,1.22,2.52c-3.21-.58-5.33,1.22-7.67,2.72a1.89,1.89,0,0,0-2.68-.27,1.9,1.9,0,0,1-1.09.16c-1.73-.14-2,1.48-3.11,2.39L324,114c.09.7.16,1.32.24,2-1.16.09-1.55.63-.85,1.68-.61.63-2.27.15-1.69,1.85-1.95-.28-1.29,2.15-2.84,2.56-.48-2.73-2-5.38.07-7.74,2.49-1.7,4.9-3.13,6.4-5.6l-.22-.32c-.27.09-.77.19-.77.26.07.91-.64,1-1.23,1.26s-1.43,1.62-1.78-.3a6.22,6.22,0,0,0-2.39.21,4,4,0,0,0-1.52,1.36c-.2.25-.14.72-.24,1.27l-3,.41.59-.91c-1.55.11-3,.5-4.22.24-3-.62-4.64,1.29-6.53,2.87-.93.77-1.84,1.56-2.62,2.23a8.36,8.36,0,0,0,1.23,1.28,1.45,1.45,0,0,0,1.07,0c.44-.1,1-.62,1.22-.49.49.28,1.2.95,1.12,1.31-.46,2.06-.14,4.32-1.43,6.19-1.17,1.69-2.32,3.39-3.49,5.07a2,2,0,0,1-2.76.49c-.58.86-1.75,1.17-1.85,2.59,0,.59-1.18,1.11-1.37,1.68a30.84,30.84,0,0,1,1.28,3.68c.43,2-1.46,1.87-2.72,2.64.1-1.27.22-2.41.25-3.55,0-.3-.33-.87-.46-.85-1.57.17-.79-.75-.66-1.36a3,3,0,0,1,.23-.51,1.93,1.93,0,0,0-2.92.61l-.39-.27.57-2c-1.21-.26-1.56.94-2.3,1.44-.2.13-.31.39-.52.51a3.66,3.66,0,0,1-.77.25c.19.29.37.59.56.87s.48.68.54.76h3.25l-2.94,2.54c.78,1.89,1.4,3.43,2.05,5l-1,.89,1.46.22c-.64,1.25-1.27,2.51-1.92,3.76a14,14,0,0,1-1.53,2.8c-.79.91-1.36,2.12-2.91,2.27a8.12,8.12,0,0,0-2.86,1.18c-.43.23-.72.74-1.17,1.23l-.18-1.19a2.92,2.92,0,0,0-3.17,2.17c-.41,2,1.17,3.19,2.25,4.39l1.8-.46.21.3c-.35.45-.72.88-1,1.35a1.5,1.5,0,0,0-.38.82c.12,1.82.25,3.52-1.95,4.43-.61.25-.89,1.33-1.6,1.92V170l-3.68-4.31a2.21,2.21,0,0,0-.41.63,9.22,9.22,0,0,1-.25,1.53c-.89,1.82.32,3.37.65,5,.14.67,1.21,1.1,1.61,1.78a8.79,8.79,0,0,1,.79,2.35,10.59,10.59,0,0,1,.39,3,9.65,9.65,0,0,1-2.09-2,11.79,11.79,0,0,1-.77-2.86,4.24,4.24,0,0,0-.63-1.67c-1.24-1.38-1.18-2.92-.9-4.57.44-2.57-.77-4.86-1.12-7.44-.86.72-1.1,2-2.54,1.25.9-2-.26-3.57-1.37-5.19a6.89,6.89,0,0,1-.69-2.07c-1,.21-2,.37-2.91.62-.34.09-.86.32-.91.56-.35,1.9-2.18,2.64-3.11,4.09-.6.94-1.62,1.6-2.25,2.52a3.34,3.34,0,0,0-.24,1.89,9.9,9.9,0,0,1-2.35,7.14,44,44,0,0,1-2.66-8.18c-.7-2.77-1.08-5.62-1.54-8.06l-1,1.22-2-1.69.85-.35c-1-1.1-1.95-2.21-3-3.37-1.62,0-3.43.09-5.23,0s-1.9-.31-2.51-1.85a3.31,3.31,0,0,1-4.65-1.87,6.51,6.51,0,0,0-.31-.72c-.84-1.62-1.09-1.65-2.28-.32l2.23,4.78.51-1.21c.15.67.23,1,.28,1.26.09.46.16.92.24,1.38.73-.14,1.63.54,2.19-.57a12.81,12.81,0,0,1,1.47-1.9,8,8,0,0,0,.19,1.71,1.93,1.93,0,0,0,.83,1.06c2,1,2.25,2.38.79,4a5.8,5.8,0,0,0-.62,1c-.19.32-.36.67-.58,1a9.13,9.13,0,0,1-3,2.46c-1.26.75-2.31,1.86-3.54,2.66a37.09,37.09,0,0,1-3.63,1.94c-.69.34-1,.06-1.15-.69-.37-2.12-.34-4.35-1.63-6.23a16.19,16.19,0,0,1-1.26-1.95c-.29-.59-.39-1.27-.63-1.9-.32-.87-.67-1.72-1-2.57-.46-1.05-.94-2.09-1.45-3.12-.3-.61-.66-1.18-.92-1.64l-1.9.57-.12-.38,1-.75-2-2.07c.24-.15.72-.67,1.21-.69,1.26,0,1.64-.79,1.87-1.79.36-1.56.71-3.12,1.16-5.09l-2.15,1s-.09.05-.13,0c-.84-.21-2.09-.87-2.46-.54-1.19,1.05-1.77-.16-2.45-.47s-.84-1.13-1.23-1.7l.18-2.42c-.86-.5-.83-.47-1.82.42-.2.18-.74,0-1.31-.05a13.34,13.34,0,0,1,1,1.66,1.74,1.74,0,0,1,.13,1.2,11.94,11.94,0,0,1-1,1.81c-.89-2-2.71-3.58-2.72-6.14,0-.56-.8-1.27-1.41-1.64-1-.59-2.05-1-2.38-2.23,0-.13-.47-.12-.61-.27a3.62,3.62,0,0,1-.43-.81c-1.27.33-1.44.94-.52,2.06.38.45.61,1,1,1.49.23.3.53.68.86.76,1.21.26,1.76,1.37,2.69,2,.07,0,0,.23.1.48l-1.57-.67.45,1.59-1,1.33c.59-2.22-1-2.95-2.41-3.95a14.26,14.26,0,0,1-2.11-2.27c-.39-.45-.74-.93-1.1-1.39a12,12,0,0,0-1.49,1,1.58,1.58,0,0,1-2,.35c-.75-.3-1.57-.38-1.5,1,0,.44-.58.93-.95,1.35-.55.63-1.21,1.18-1.69,1.85-.19.27,0,.78,0,1.49-.64,1.83-2.68,2.13-4.8,2.63l-.82-1.09-1.39.16c-1.39-2.31.55-4.76-.61-7.12,2-1.24,4.15-.26,6.27-.42.14-1.18,1-2.41,0-3.56a24,24,0,0,1-2.35-2.58l2.51.11-.14-1.19a2.08,2.08,0,0,0,2.82-1.09c.14-.27.49-.41.72-.64.66-.64,1.3-1.29,2.21-2.19l2.84-1.13a6.58,6.58,0,0,0-.08-1.21C196.31,115.32,196.3,115.33,198.21,114.28Z" fill="#68e1fd"/><path d="M87.73,130.35h1.48a4.5,4.5,0,0,0-2.6-2.36,7.39,7.39,0,0,1-3.62-4.2c-.19-.45-.89-.69-1.29-1l-.32.92c-.51-1.17-2-1.65-.86-3.06.06-.09-.73-1.19-1-1.14-1.26.25-2.12-.44-3.1-1a7.34,7.34,0,0,0-2-.68c-1.57-.32-3.15-.58-4.82-.88l.16.73-3.35.86.25-1.76-2,1.66c.39.76-2.8,3.46-4.8,4l.68.64-.07.4c-1.54-1.36-2.81,0-4.31,0l2.13-1.14a14.45,14.45,0,0,0,2.27-1.21,14,14,0,0,0,1.76-2H58.48l-.28-1.56c-2.1,1.49-2-1-3-1.42.56-2.12,2.5-1.82,4-2.33l-.25-1.15c-2.26.21-2.78.9-5.23-1,.53-.17,1-.31,1.47-.5s.92-.46,1.36-.68c.82,1,1.48,1.06,2.64.24l-4.9-1.94c.73-.29,1.18-.43,1.6-.63s1.09-.61,1.66-.84c1.11-.45,2.22-.88,3.35-1.25,1.86-.61,3.68-.16,5.52.22a38.87,38.87,0,0,0,4.45.53,25.76,25.76,0,0,1,6.73,1.28,7.63,7.63,0,0,0,1.53.22c-.05-1.76,1.32-.35,1.95-.84A4.22,4.22,0,0,1,83.6,107l-2.73,1.11.17.37,4.25-1.83,1.41,1.25,1-.8.52.88c.65-1.07,1.53-.72,2.47-.49,1.27.31,2.57.47,3.86.72.41.08.8.22,1.38.38l-.82.64.06.32a19.73,19.73,0,0,1,3.06-.19,15.15,15.15,0,0,1,2.65.69l-.14-1c1,0,1.87-.05,2.75,0,1.66.12,3.28.83,5-.21.33-.2,1.19.46,2,.78l1.49-1.18-2.23-1.69c-.19-.88.23-1.6,1.38-1.7.93-.08,2.11,1.37,2,2.3l1.43.25-.16,1.45,1.23-1.45,1.31,2.79,2.15-3,2.27.41V110l.29.35-2.16.47.71,1.12-2.47-1.36c.28,1.18-.31,1.43-1.07,1.34a9.09,9.09,0,0,0-2.17-.29l2.92.86c-.89.42-1.53.71-2.16,1a2.65,2.65,0,0,0-.85.55c-1.1,1.39-3.35,1.9-3.23,4.19,0,.34.3.89.55,1,1.09.25,1.18,1,1.11,2,1.42-.78,2.46,0,3.64.66a37.94,37.94,0,0,0,4.35,1.66c.1.9-.07,2.33,1.26,3.16.27.17.73.5.8.43.34-.33.84-.78.82-1.16a11.25,11.25,0,0,0-.56-2.27c.76-.65,2-1.2,2.15-2s-.72-1.77-1.2-2.8c1.22-.87-.06-2.21.14-3.56,2.4-.66,4.48.56,6.59,1.67a1.74,1.74,0,0,0,1.31,2.44c1.59.4,1.77-1.25,2.42-2.17.68,1,1.4,1.81,2,2.76.33.57.19,1.51.61,1.89a16.88,16.88,0,0,0,2.8,1.74l-.75.49a6.21,6.21,0,0,1,1.71.42,1.8,1.8,0,0,1,.69,1.19,1.26,1.26,0,0,1-.66.93c-1.95.95-3.77,2.17-6.2,1.62-1.56-.36-2.61,1.06-3.69,2.08a20.48,20.48,0,0,1,1.95-.8,4.35,4.35,0,0,1,1.53-.12c.12,0,.35.68.26.76-1,.93-.64,1.68.28,2.34,1.22.88,1.66.78,2.49-.44a.56.56,0,0,1,.48-.29l-.31,1.07.57-.33.2.35-4.55,2.43-.33-.08.94-2a39,39,0,0,0-4.3,2.23c-.34.23-.18,1.23-.25,1.87l.37.17a6.52,6.52,0,0,1-1.28.28c-1.1,0-1.75.31-1.87,1.62-.07.73-.74,1.41-1.22,2.24l-.5-1.91a10.89,10.89,0,0,0,0,2.24c.51,2.29.39,2.65-1.6,3.78-1.18.68-2.55,2.75-2.34,3.63.3,1.23.73,2.43,1,3.67a7.83,7.83,0,0,1-.11,2l-.64.09-2-5.24-1.11.48c-1-1.67-2.4-.61-3.67-.67l.54,1.22c-1.15-.24-2.06-.38-3-.62-.69-.19-1.21-.19-1.63.52-.21.35-.68.54-1,.83s-.76.57-.77.87c-.06,2.2-.09,4.41,0,6.61a3.78,3.78,0,0,0,.8,2c.43.54,1.24,1.25,1.77,1.16,1-.17,2.38.1,2.69-1.57s.88-2,2.86-1.7l-1.39,6c.65,0,1.29,0,1.92-.1,1.68-.21,2.37.56,2.13,2.19-.29,2-.63,4.16,1.72,5.4,1.9-.93,1.88-.92,3.42.67a7.07,7.07,0,0,0,1.36.87c.46-2.64,2.68-3.32,4.61-4.51-.16,1.09-.83,2.11-.16,3.14l1-2.65c1.05.5,1.92.93,2.8,1.32a4.47,4.47,0,0,0,2.91,0c.93-.19,1.42.82,2.11,1.3a4.63,4.63,0,0,1,.64.68,9.33,9.33,0,0,0,1.29,1.3,4.56,4.56,0,0,0,2,1c2.48.14,3.66.8,4.26,3.18s2.18,3.19,4.17,3.65c.86.2,1.28.47,1.11,1.29,2,0,4-.4,5.44,1.52.13.16.34.37.52.38a2.23,2.23,0,0,1,2.1,2.5c0,1-.92,2.08-1.55,3s-1.28,1.61-1.91,2.43a1.16,1.16,0,0,0-.1.51,39.69,39.69,0,0,1-.55,4.75,14.05,14.05,0,0,1-1.49,3.2c-.12.23-.46.36-.73.47-1.23.46-2.5.82-3.69,1.37a2.63,2.63,0,0,0-1.51,2.52,11.37,11.37,0,0,1-1.31,3.26c-.17.4-.38.78-.66,1.33l-.22-1.26c-1.29,2.55-2.33,5.4-5.94,3,.46.82.81,1.35,1.08,1.92a1.56,1.56,0,0,1-1.1,2.34c-.95.27-1.95.38-2.95.57.12,1.84-.29,2.16-2.44,1.53,1,2.37-.28,3.77-2.19,4.86a6.24,6.24,0,0,0,.87.75c1,.55,1,.72.1,1.52-.66.57-1.58,1.18-1.73,1.9a4.1,4.1,0,0,0,.67,2.72c.4.61,1.33.88,2.19,1.4-1.39.14-2.8.61-4,.31a7.67,7.67,0,0,1-3.56-2.12c-.63-.66-.7-1.93-.88-2.95s-.32-2.07,1-2.64l-1-.13,1.12-2.85.27,0,.21,1.17.17,0,.51-3c-1.23-.14-1.23-.86-.8-1.75.07-.15.31-.34.27-.42-.86-1.88.83-3.17,1.08-4.77s.32-3.13.53-4.69c.27-2,.64-4,.88-6.06a9.84,9.84,0,0,0,.07-3.5,3.31,3.31,0,0,0-1.81-2c-2.6-.91-3.29-3.26-4.3-5.31-.8-1.63-1.2-3.42-2.63-4.75a1.44,1.44,0,0,1,.08-2.14,4.68,4.68,0,0,0,.74-1c-.94-.31-1.19-.95-.74-1.74a20.92,20.92,0,0,1,2-3.09c1.17-1.42,1.1-2.56-.22-3.68a6.41,6.41,0,0,1-1.11-1.85c-.17-.31-.33-.62-.49-.94l-.39,0-.75,1.85-.72-.53a2.47,2.47,0,0,0-.79-.47c-.56-.13-1.14-.15-1.1-.95a.16.16,0,0,0-.08-.1c-1.31-.35-1.44-1.53-1.87-2.54a3.6,3.6,0,0,0-2.71-2.16,4.67,4.67,0,0,1-2.65-2c-.55-.66-1.1-1.09-2-.45a1.5,1.5,0,0,1-1.3-.07c-1.92-1.1-3.82-2.25-5.67-3.47a1.64,1.64,0,0,1-.66-1.3,4.24,4.24,0,0,0-1-3.5c-.94-1.34-2-2.64-2.82-4-.75-1.19-1.29-2.51-2-3.71-.26-.42-.84-.64-1.28-1l-.38.28c.41.85.82,1.7,1.25,2.55.75,1.48,1.51,2.95,2.28,4.43.16.31.38.6.52.93s.31.83.46,1.24l-.54.23a27.81,27.81,0,0,0-1.78-3.43,7.15,7.15,0,0,0-1.71-1.46c0-.78.25-1.39.06-1.56-1.34-1.22-1.55-3-2.3-4.49-.19-.37-.49-.86-.83-.95-2-.5-2.28-2.37-3.13-3.77a9.23,9.23,0,0,1-1-1.93,12.52,12.52,0,0,1-.39-5.28A27.72,27.72,0,0,0,87.73,130.35Z" fill="#68e1fd"/><path d="M205.9,213.49a2.21,2.21,0,0,1-1.23-2.38,4.37,4.37,0,0,0-1.31-2.92,6.77,6.77,0,0,1-1.66-4.59,9.23,9.23,0,0,0-1.7-4.43c-1.33-2.26-.43-4.23.51-6.16.42-.87.81-1.49.17-2.35a1.29,1.29,0,0,1-.19-.75,7,7,0,0,0-1.86-5.31c-1.57-1.62-1.56-3.23-1-5.16a2.64,2.64,0,0,0-.35-1.88,1.66,1.66,0,0,0-1.36-.49c-1,.09-1.62.13-2-1s-1.6-.77-2.47-.58-1.7.64-2.57.92a5.81,5.81,0,0,1-1.26.19,17.71,17.71,0,0,0-3.28.32,1.9,1.9,0,0,1-2-.29,33.52,33.52,0,0,1-3-2.54,30.57,30.57,0,0,1-2.27-3.3c-.17-.23-.46-.37-.65-.6s-.49-.53-.51-.82a10,10,0,0,1,.33-4,4.1,4.1,0,0,0-.09-3.05c-.83-1.31,0-2.07.45-3,.63-1.27,1.38-2.5,2.13-3.71a1.49,1.49,0,0,1,.8-.56c1.27-.39,2.14-1,2.12-2.55a2.66,2.66,0,0,1,1.48-2.42,10.26,10.26,0,0,0,2-2.1c1.42,1.15,3,.57,4.54-.08a12.8,12.8,0,0,1,3.1-.83,45.13,45.13,0,0,1,4.51-.3A9.82,9.82,0,0,1,199,147c-.3.91-.59,1.75-.92,2.75.69,1.32,2.38.63,3.62,1.17.14.06.45,0,.46.07.29,1.54,1.85,1.17,2.73,1.82s1.19.14,1.26-.72a1.47,1.47,0,0,1,2.22-1.25,38.64,38.64,0,0,0,4,1.39,4.32,4.32,0,0,0,2.07-.16c.91-.25,1.55-.34,1.93.8a43.71,43.71,0,0,0,1.84,4.55c.55,1.2,1.66,2.28,1.79,3.49.2,2,1.49,3.33,2.06,5.06a3.71,3.71,0,0,0,.92,1.33c.69.71,1.52,1.3,2.14,2.07.34.41.3,1.11.59,1.59a1.09,1.09,0,0,0,.94.45c1.71-.37,3.4-.84,5.31-1.32a9.25,9.25,0,0,1-.5,2.5c-1.37,2.66-2.62,5.32-5.12,7.35-1.88,1.53-3.07,3.93-4.54,6-.14.18-.19.65-.08.74.91.75.34,1.73.49,2.59s.66,1.49.79,2.26a9.72,9.72,0,0,1,.17,3.47c-.16.75-1,1.42-1.62,2-1,.92-2,1.72-3,2.62-.15.13-.11.55,0,.81.12.46.33.9.47,1.36a2,2,0,0,1-1.19,2.63c-.43.2-.83.45-1,.55,0,.84.13,1.57-.15,2-1.5,2.39-3,4.92-5.9,5.77a22,22,0,0,1-3.57.37A6.71,6.71,0,0,0,205.9,213.49Z" fill="#68e1fd"/><path d="M143.39,108.32,142,107.19l3.11-1.59v-1.29l-2.6-1,.06-.4,2.73.39-2.13-1.49c-1.28.75-1.67.46-1.71-1.45l.89,0c-.57-.82-1.05-1.61-1.62-2.32a5.87,5.87,0,0,0-6.48-2.34,3.67,3.67,0,0,1-1.51.22c-.54-.1-1.51.5-1.57-.79,0-.16-1-.28-1.61-.41v-.45l2.63-.15-4.46-1.26a5,5,0,0,1,1-.54c1.3-.21,2.61-.33,3.9-.59.76-.15,1.74-.16,1.74-1.43h-1.88l-.08-.46,4.32-1.11.07-.8c.11,0,.2-.1.27-.07,1.24.45,2.26-.51,3.45-.52a2.45,2.45,0,0,1,1.85.76c.33.29,1-1.07,1.89-.3.17.15.59,0,1,0l-.5-.85,4.51,1.14.11-.39a4.91,4.91,0,0,1-1.1-.26.94.94,0,0,1-.51-.62c0-.16.34-.49.55-.51,1.14-.12,2.28-.13,3.42-.23.81-.07,1.61-.31,2.41-.3,3.17,0,6.34,0,9.49.26a22.76,22.76,0,0,1,4.23,1.1l-3.41.57,0,.54c.31,0,.63,0,.94,0,.56,0,1.12-.12,1.68-.18l-.67,1.07a31.71,31.71,0,0,0,4.3-.86,5.77,5.77,0,0,1,4.8.31c-2.73,1.3-5.7,2.14-7.45,4.76a5.67,5.67,0,0,1,1.88.14c.39.17.58.8.93,1.33l-1.89.11c-.12.78,1.87,1.3.36,2.33l.86.9-1.95.28.88,1h-3c-.58.79-.47,1.4.66,1.84a1.9,1.9,0,0,1,1.3,2.4l-2.63-1.1-.89,1.08,3.31.34c-2.46,1.41-4.79,2.66-7.56,2.83-.46,0-1,.57-1.3,1-1.14,1.58-2.47,2.66-4.59,2.46-.28,0-.91.68-.91,1a2.48,2.48,0,0,1-1.26,2.58c-.13.07-.2.31-.24.49-.23.95-.5,1.91-.66,2.87s-.72.73-1.31.47a20.14,20.14,0,0,1-2.27-1,3.35,3.35,0,0,1-1.24-1.21c-1.08-2-2.08-4-3.06-6A3,3,0,0,1,143.39,108.32Z" fill="#68e1fd"/><path d="M308.19,194.1a6.6,6.6,0,0,1,1.19,1.15,3.65,3.65,0,0,1,.63,1.8c-.07,1.46,1,2,1.87,2.74a2.48,2.48,0,0,1,.44.41,4.76,4.76,0,0,0,1.46,1.86c1,.69,1.64,2.16,2.17,3.4a6.24,6.24,0,0,1-.58,5.51,16.17,16.17,0,0,0-2.08,4.79c-.08.44-3.22,1.37-3.67,1.16-.22-.11-.44-.25-.67-.38a2.81,2.81,0,0,1-4.15-1.5,10.39,10.39,0,0,0-1.31-1.84l-.48.34.37-1.94-1.77,2c-.55-.91-.88-2-1.61-2.47a5.06,5.06,0,0,0-3.06-.65,12.22,12.22,0,0,0-4.2,1.16c-1,.51-1.83,1.15-3.11,1a4.31,4.31,0,0,0-2.27.78,1.76,1.76,0,0,1-2.36-.26,1.39,1.39,0,0,1-.21-1c0-.58.34-1.2.22-1.73a32.89,32.89,0,0,0-1.15-3.29c-.21-.58-.62-1.13,0-1.74.09-.1-.19-.52-.22-.8-.1-.91-.54-2.09-.13-2.67.54-.78,1.76-1.07,2.67-1.6,1.33-.76,3.4-.19,4-2.19.09-.29.08-.61.19-.88a4.88,4.88,0,0,1,.51-.71l.47.37a23.89,23.89,0,0,1,2.15-2.44c.9-.8,1.45-.3,1.78,1.09a17.12,17.12,0,0,1,1.49-2,14.41,14.41,0,0,1,1.69-1.16,4,4,0,0,0,.57-.6l3.42.83c0-.12,0,0,0,0-1.32,2-1.32,2,.67,3.48.37.27.75.52,1.13.77l1.44.91c.23-1.32.43-2.38.61-3.44s.35-2.18.52-3.27l.43,0Z" fill="#68e1fd"/><path d="M125.61,105.73c.13-1.5-1.29-1.44-2-2.17-.35.79-.57,1.64-1.54.75-.19-.18-.66,0-1-.09-1.6-.18-3.21-.35-4.81-.58-.31,0-.58-.35-1-.59l1.44-.46c-1.37-.25-2.52-.34-1.93-1.85A2.75,2.75,0,0,1,118.23,99c-.28.62-.82,1.26-.77,1.84s.68,1.18,1.12,1.72c-.44-2.77-.21-3.25,1.77-3.52,1-.14,1.47.45,1.58,2.17a4.71,4.71,0,0,1,5.29.34,3.38,3.38,0,0,0,1.32.34c.12,0,.28,0,.39,0a18.69,18.69,0,0,1,2.61,1.41,12.08,12.08,0,0,1,1.64,1.86l-1.17.23-.15.3,5.27,2.84-2,2.52-2.62-2.28L132,110c1,.93,2.83,1.59,2.43,3.91l-1.49-.15.64,1.54c-1.85-.76-3.68-.82-4.86-2.47a2.77,2.77,0,0,0-3-1,4.06,4.06,0,0,1-1.46-.24c.08-.41.14-.82.24-1.22a1.9,1.9,0,0,1,.28-.72,2.62,2.62,0,0,1,.86-.77c.14-.07.47.28.7.44l-.87,1.12,1.89-.2v-.32l-.63-.22c.31-1,2.18-1.08,1.53-2.54A2.37,2.37,0,0,0,125.61,105.73Z" fill="#68e1fd"/><path d="M117.15,89.36c-1.21.71-2.32-.5-3.67-1.48a35.35,35.35,0,0,1,5.62-.57,16.56,16.56,0,0,0,5-.9,14,14,0,0,1,3.78-.14c2.32.06,4.63.15,6.94.32a10,10,0,0,1,2.13.69c-.49.27-.91.53-1.35.72q-3,1.31-6.11,2.56a6.32,6.32,0,0,1-1.35.39,2.4,2.4,0,0,0-2.17,2.1l-2.9,1.19,1.26.73c-1.09.15-1.94,1.14-2.95.09-.1-.1-.49.06-.75.1a12.8,12.8,0,0,1-6-.25l2-.59-.25-.65,1.82.14.12-.31-1.57-.74c.92-1.45,2.24-.22,3.42-.51l-2.83-1.69c.29-.25.33-.3.35-.29,1.69.66,3.24-.35,5-.37C121.09,88.7,119.18,90.17,117.15,89.36Z" fill="#68e1fd"/><path d="M93.39,103.85l3.63-.22,0-.25c-.74-.06-1.49-.15-2.24-.18s-1.48,0-2.22,0l0-.42,1.51-.57L92,101.7c.71-1.66,2.2-1.89,3.84-2.12l-.09.9c.2,0,.36,0,.43,0,.69-.67,1.26-.43,1.9.12s.89-1,1.52-.2a5.49,5.49,0,0,0,1.3,1.29l-.48-2.09h1.92a11.08,11.08,0,0,0,1.32,3c.61.74,1.73,1.07,2.51,1.84l-1.21.11.54,1a7.08,7.08,0,0,1-2.13,0c-1.63-.61-3,.06-4.54.47-.81.23-2,.68-2.63-.66-.08-.18-.53-.19-.8-.27l-2.1-.59Z" fill="#68e1fd"/><path d="M311.58,187.12l-1,.71,3,3.13c-1.22-.21-2.53-.42-3.36-1.84a1.3,1.3,0,0,0-2.44.1,1.1,1.1,0,0,1-1.8.42c-.8-.93-1.67-.9-3-.49l1.08-1.5a2.52,2.52,0,0,0-1.91-2,18,18,0,0,1-2.79-.86c-.3-.12-.46-.57-.72-.9l1-.45-2.52-1.2a10.34,10.34,0,0,1,1.61-.62,1.16,1.16,0,0,1,1.51.93,18.74,18.74,0,0,0,.62,1.78l.42.06a4.3,4.3,0,0,1,.62-.82c.79-.67,1.45-1.29,2.67-.36.94.71,2.43.68,3.5,1.27A29.42,29.42,0,0,1,311.58,187.12Z" fill="#68e1fd"/><path d="M279.72,179.28l1.24.41,5.3-5,1.58,1.59c-1.55,1.46-1.62,2.47-.18,4-1.13.45-2.06,2.47-2,4.61l-5-1C280.43,182.46,279.07,181.17,279.72,179.28Z" fill="#68e1fd"/><path d="M226.16,196.13c2.62.12,2.77-2.28,4.23-3.37a2.26,2.26,0,0,1,.41,3c-.11.15-.08.39-.13.59-.7,2.51-1.37,5-2.13,7.52a1.47,1.47,0,0,1-2.37.61c-.79-.68-.92-2.58-.46-3.57a7.08,7.08,0,0,0,.43-2.32C226.21,197.77,226.16,197,226.16,196.13Z" fill="#68e1fd"/><path d="M187,121.45l-1.09-.33c0-.6,0-1.08,0-1.56,0-.18.28-.5.33-.48.66.28,1-.19.92-.62s-.72-.67-1.13-1c-.09-.07-.25,0-.47-.07l.16-.81c-1.14-1.08-1.58-1.88-1.28-2.31.66-.93,2.1-1.5,2.74-1.09,1,.66,1,1.17.28,2.53l2.85,3.92a1.26,1.26,0,0,1,.69.32c.11.14-.2.61-.31.93l-.44,1.2-5.2.83Z" fill="#68e1fd"/><path d="M276.88,186.62l-1.48-.12c-1.13-1.62-2.4-3.46-3.68-5.27s-2.46-3.43-3.81-5.31c2.7.3,3.73,2.45,5.42,3.66a10.46,10.46,0,0,1,2.73,3.37c.2.34.81.44,1.17.62l-.39,3.09Z" fill="#68e1fd"/><path d="M237.22,99.14c-2.17.08-3.94-.1-5.32-1.45a31.92,31.92,0,0,0,3.14-3c1.1-1.36,2.67-1.61,4.13-2A47.63,47.63,0,0,1,244,92a20.51,20.51,0,0,0,2.17-.6l.23.49a4.24,4.24,0,0,1-1.15.64,30,30,0,0,0-4.49.89,11.61,11.61,0,0,0-5,3.41c-.19.24,0,1,.21,1.31S236.62,98.72,237.22,99.14Z" fill="#68e1fd"/><path d="M168.14,112.52l-1.87-.54,1.68-.88h-1.86l-.18-.23,1.73-1-.15-.43,1,1.29,4-1,.1-.43a9.3,9.3,0,0,1,1.88,1.82c.55,1-.6,1.28-1.1,1.7a6.39,6.39,0,0,1-2.25,1.06,3.29,3.29,0,0,1-1.56,0c-.77-.17-1.52-.46-2.31-.71Z" fill="#68e1fd"/><path d="M300.92,140.9l-3.18.79c.95-1.57,1.46-1.81,3.87-1.81.19-.35.41-.71.59-1.09s.27-.69.28-.7c.52,0,1.12,0,1.2-.11.47-1,.84-2,1.22-3,.24-.64,0-1.62,1.22-1.58a3,3,0,0,1,0,3.36,4.18,4.18,0,0,0-.41,2.51c.15,1.38-1.09,1.39-1.67,1.54-1.08.29-2,.57-2.31,1.82l-.4-.06Z" fill="#68e1fd"/><path d="M87.55,97.9A20,20,0,0,1,94.67,99c-1.27.79-2.27,1.39-3.24,2s-1.67,1.18-2.34,1.65l-2.25-1.47C87.05,100.31,88.38,99.5,87.55,97.9Z" fill="#68e1fd"/><path d="M111.76,92.09l.7-.6-2.8-.54c.53-1.42,1.19-2.24,2.56-2a5.82,5.82,0,0,1,1,.38,3.4,3.4,0,0,0,1.2.28c.55.56,1,1.39,1.9.63l1.22,1C116.14,93.17,114.39,93.46,111.76,92.09Z" fill="#68e1fd"/><path d="M198.79,88.41l4.24.37-.43-1,7.13,2.85,0,.47h-2.53c-.16-.36-.21-.76-.43-.91a1,1,0,0,0-.88,0c-.76.51-1.45,1.12-2.31,1.8l-2-.52.86-.45-1.28-.11-.05-.23,1.61-.58,0-.32a5.71,5.71,0,0,1-2.08.27,6.54,6.54,0,0,1-1.83-1.23Z" fill="#68e1fd"/><path d="M112.7,95.28l1-.28v.7c2.91,2,6.11,0,9.16,1a1.94,1.94,0,0,1-2.67,1.14,5.79,5.79,0,0,0-1.23.07c-1.78,0-3.57,0-5.34-.17-.29,0-.62-.59-.77-1A6.05,6.05,0,0,1,112.7,95.28Z" fill="#68e1fd"/><path d="M94.44,96.42l-.39.08c-.12,0-.24,0-.35,0s0-.21,0-.25c1.28-1.65,2.68-.66,4-.18.59.21,1.16.43,2,.77L99,95.25l.83-.56c.12.1.25.16.29.25.29.71.49,1.49,1.57.91.15-.09.71.23.78.44a1,1,0,0,1-.41.82c-2,.37-4,.67-6,1-.08,0-.19-.15-.45-.38l2-.52,0-.3-4.45.37-.06-.2,1.34-.49Z" fill="#68e1fd"/><path d="M326.7,223.77l5.5-4.77a3.06,3.06,0,0,1,.67.4c.19.16.4.62.33.69-.59.63-.63,1.75-1.71,2a1.11,1.11,0,0,0-.61.44C329.33,224.64,329.33,224.64,326.7,223.77Z" fill="#68e1fd"/><path d="M290,183l1,2.13-.85.62-1-2c0,2.19,0,2.33-.75,2.81-.17-.8-.35-1.61-.53-2.43l-.27.08c.42-1.38.83-2.76,1.26-4.19,1.29-.19,2.8,1.25,4-.62-.42,1.39-.57,1.48-1.67,1.41a5.42,5.42,0,0,0-1.8,0c-1.18.39-.42,1-.17,1.52l2.11-.71.12.29Z" fill="#68e1fd"/><path d="M181.45,120.61v-2c.51-.49,1-.84,1.33-1.27.69-.79,1.41-.24,2,0s.51.81-.1,1.18c-.1.06-.14.27-.14.42,0,.49.13,1.29-.09,1.41a13,13,0,0,1-2.74,1c-.17,0-.45-.34-.67-.52Z" fill="#68e1fd"/><path d="M109.23,99.13l-.87.71,1.26.56c.38,1.35-1,1.31-1.54,1.84-.1.09-.71-.39-1.09-.61l-2.2-1.27.11-.4,1.91.33-1-1.06C107,98.32,108.35,98.26,109.23,99.13Z" fill="#68e1fd"/><path d="M308.47,124l-1.09.06c.12,1.13.24,2.23.36,3.25h-1.09c.71-3-.94-6.21.77-9.54C307.79,120,308.12,122,308.47,124Z" fill="#68e1fd"/><path d="M276.84,186.66a15.64,15.64,0,0,0,2.28.6c1.24.14,2.5.14,3.76.2a1.31,1.31,0,0,1,.86.24l-.74.39,1.94.79,0,.29c-1-.06-2,0-2.91-.19a35.7,35.7,0,0,1-4.46-.94,1,1,0,0,1-.66-1.42Z" fill="#68e1fd"/><path d="M305.92,131.89l-.58,1.31c-.53-1.63-.29-2.16.81-2.2l.39-2.74c1,.6,1.23,2.21,2.75,1.69l.25,1.15-2.11,1.22Z" fill="#68e1fd"/><path d="M305.34,94.21a17.69,17.69,0,0,1-2-.21c-.22,0-.54-.5-.49-.69s.4-.47.66-.65a.62.62,0,0,1,.5-.11c1.49.57,3,0,4.48.11.28,0,.55.37.82.56-.24.23-.46.62-.74.66C307.5,94.05,306.43,94.11,305.34,94.21Z" fill="#68e1fd"/><path d="M336.9,216.17a6.26,6.26,0,0,1-.51,1c-.62.84-1.27,1.67-1.94,2.47a.21.21,0,0,1-.32-.24c-.32-.64-.65-1.29-.93-1.83l.83-2.21c.86-.39,1.48,2.06,2.82.35Z" fill="#68e1fd"/><path d="M105.38,96l-.09-.8,1.51.8-.37-.87a6.7,6.7,0,0,1,1.78,0c.23,0,.49.67.44,1s-.34,1.17-.63,1.22c-.46.08-1-.3-1.5-.46-.35-.11-.71-.16-1.06-.25a5,5,0,0,1-1.09-.35,7.28,7.28,0,0,1-1-.72c.16-.18.4-.52.45-.49a7.09,7.09,0,0,1,1.09.72,1.27,1.27,0,0,1,.21.29Z" fill="#68e1fd"/><path d="M119.66,161.26a3.17,3.17,0,0,1,4-1.34c1.58.79,3.11,1.68,4.85,2.63l-2.4.27c-.53-.62-.85-1.27-1.37-1.53a8.62,8.62,0,0,0-3-1C121.13,160.24,120.45,160.87,119.66,161.26Z" fill="#68e1fd"/><path d="M288.82,163.8c1.79.53,2.09,1.32,1.4,2.37s-.42,1.5.83,1.75a10.16,10.16,0,0,1,1.1.37l-.43.93c-.82-.78-2.18-.61-3-1.7C287.81,166.14,289.7,165.26,288.82,163.8Z" fill="#68e1fd"/><path d="M114.26,98.8a1.72,1.72,0,0,1-1.89,1.56c-.17,0-.47.07-.48.14-.16,1-.91.67-1.12.27s-.45-1.47-.16-1.82a2.89,2.89,0,0,1,1.88-.51A7.23,7.23,0,0,1,114.26,98.8Z" fill="#68e1fd"/><path d="M293.09,174.79l.18.94-.36.22-1.42-1.84-1.08.22-.17-.28,3.38-1.9.23,2.64Z" fill="#68e1fd"/><path d="M270.29,87.58l-5.57,1.29c.06-.37,0-.85.19-1C266.56,86.82,268.32,86.31,270.29,87.58Z" fill="#68e1fd"/><path d="M89.12,95.6a17.93,17.93,0,0,1,2.65-1.36,15.85,15.85,0,0,1,2.77-.45l.22.45a13.9,13.9,0,0,1-1.37,1.19c-.07,0-.45-.33-.7-.51C91.8,96,89.56,96.43,89.12,95.6Z" fill="#68e1fd"/><path d="M128.29,163.9l2,.18-1-1.15c1.9-.51,4,.22,3.89,1.4C131.53,164.19,129.84,165,128.29,163.9Z" fill="#68e1fd"/><path d="M122.52,113.83c-.71,0-1.34.26-1.59,0-.71-.61-1.17-.11-1.79.09a7.11,7.11,0,0,1-2,0c1.35-2.14,1.72-2.27,3.4-1.31l.34.19Z" fill="#68e1fd"/><path d="M272.15,88l-.36,1.29c-2.71.42-3.45.32-4.82-.84Z" fill="#68e1fd"/><path d="M211.82,88.63a32.17,32.17,0,0,1-3.91.18,9.42,9.42,0,0,1-2.79-.92h6.7Z" fill="#68e1fd"/><path d="M107.5,93.47l-4.4-.88,1-.43-1.44-.39,0-.43a17.46,17.46,0,0,1,1.77.22,7.11,7.11,0,0,1,1.69.55,13,13,0,0,1,1.57,1Z" fill="#68e1fd"/><path d="M276.58,90.11l-4.9.39-.2-.21c.8-.47,1.57-1.23,2.41-1.31a8.25,8.25,0,0,1,2.8.73Z" fill="#68e1fd"/><path d="M255.89,172a14.61,14.61,0,0,1,1.33,2.37c.1.27-.41,1-.79,1.14-.72.28-1-.23-.94-.93s0-1.6,0-2.4Z" fill="#68e1fd"/><path d="M310.33,221.88l-1.28-2.8a12.25,12.25,0,0,1,2.27,0c.23,0,.56.81.45,1.06A9,9,0,0,1,310.33,221.88Z" fill="#68e1fd"/><path d="M297.2,141.87c1.42,1.16,1.34,2.54-.19,3.38l.09-2-.59-.34Z" fill="#68e1fd"/><path d="M235.09,86.9l3.32-1.11.16.24c-.3.42-.54,1.13-.91,1.21a12.41,12.41,0,0,1-2.66.06Z" fill="#68e1fd"/><path d="M196.63,133.82l.86-.35c.1.25.31.53.24.68-.3.64.38,1.84-1.1,1.91Z" fill="#68e1fd"/><path d="M202,138.71l-2.17-1.31.07-.28h2.37Z" fill="#68e1fd"/><path d="M121.89,98.87l3.26.62L125,100C124,99.63,122.58,101.1,121.89,98.87Z" fill="#68e1fd"/><path d="M108,91.92c1.06.21,1.78.33,2.5.5a.48.48,0,0,1,.18.42.71.71,0,0,1-.4.4C109.31,93.55,108.63,93.19,108,91.92Z" fill="#68e1fd"/><path d="M290.36,157.65l-1.06,3.17C288.42,159.41,288.64,158.57,290.36,157.65Z" fill="#68e1fd"/><path d="M312.23,186.25a4.71,4.71,0,0,0,1.64,0c.44-.18.74-.72,1.39-1a5.62,5.62,0,0,1-.71,1.16A1.44,1.44,0,0,1,312.23,186.25Z" fill="#68e1fd"/><path d="M109.54,97l2.14-.71.19,1.34a11.64,11.64,0,0,1-1.32,0,6.22,6.22,0,0,1-1-.32Z" fill="#68e1fd"/><path d="M294.48,189l-3.32,2.26C291.85,189.52,292.75,188.9,294.48,189Z" fill="#68e1fd"/><path d="M108.56,107.16l1.82,1.09-.07.27-2.91-.25Z" fill="#68e1fd"/><path d="M109.39,94.52l2.66.24c-1,1.19-1.81.45-2.69.1Z" fill="#68e1fd"/><path d="M96.32,93.45,99,93C98.54,94.25,97.62,94.44,96.32,93.45Z" fill="#68e1fd"/><path d="M300.36,141.32c.74,1.72-1.26,1-1.27,1.91C298.4,141.87,299.8,142,300.36,141.32Z" fill="#68e1fd"/><path d="M297.54,184.54H295c.12-.26.21-.73.34-.74C296.19,183.74,297.11,183.56,297.54,184.54Z" fill="#68e1fd"/><path d="M238.61,87.11l2-.17.07.61-2,.25Z" fill="#68e1fd"/><rect x="37.08" y="70.68" width="326.2" height="1" fill="#d1d3d4"/><polygon points="48.96 243.73 50.86 239.84 48.96 235.94 52.85 237.85 56.75 235.94 54.85 239.84 56.75 243.73 52.85 241.83 48.96 243.73" fill="#fff"/><path d="M56.75,244l-.11,0-3.79-1.85L49.07,244a.26.26,0,0,1-.28-.05.24.24,0,0,1,0-.29l1.84-3.78-1.84-3.79a.25.25,0,0,1,.33-.33l3.78,1.85,3.79-1.85a.25.25,0,0,1,.33.33l-1.85,3.79L57,243.62a.24.24,0,0,1,0,.29A.22.22,0,0,1,56.75,244Zm-3.9-2.4.11,0,3.24,1.59L54.62,240a.28.28,0,0,1,0-.22l1.58-3.24L53,238.07a.26.26,0,0,1-.21,0l-3.24-1.58,1.58,3.24a.28.28,0,0,1,0,.22l-1.58,3.24,3.24-1.59Z" fill="#d1d3d4"/><polygon points="52.85 246.32 51.2 241.5 46.38 239.84 51.2 238.18 52.85 233.36 54.51 238.18 59.33 239.84 54.51 241.5 52.85 246.32" fill="#fff"/><path d="M52.85,246.57h0a.25.25,0,0,1-.23-.17L51,241.69l-4.71-1.62a.24.24,0,0,1-.16-.23.25.25,0,0,1,.16-.24L51,238l1.62-4.7a.25.25,0,0,1,.47,0l1.62,4.7,4.71,1.62a.25.25,0,0,1,.16.24.24.24,0,0,1-.16.23l-4.71,1.62-1.62,4.71A.25.25,0,0,1,52.85,246.57Zm-5.7-6.73,4.13,1.42a.23.23,0,0,1,.15.15l1.42,4.14,1.43-4.14a.23.23,0,0,1,.15-.15l4.13-1.42-4.13-1.42a.26.26,0,0,1-.15-.16l-1.43-4.13-1.42,4.13a.26.26,0,0,1-.15.16Z" fill="#d1d3d4"/><polygon points="52.85 233.36 52.85 239.84 54.51 238.18 52.85 233.36" fill="#d1d3d4"/><path d="M52.85,240.09l-.09,0a.26.26,0,0,1-.16-.23v-6.48a.26.26,0,0,1,.21-.25.25.25,0,0,1,.28.17l1.66,4.82a.25.25,0,0,1-.06.26L53,240A.25.25,0,0,1,52.85,240.09Zm.25-5.23v4.37l1.12-1.12Z" fill="#d1d3d4"/><polygon points="52.85 239.84 51.2 241.5 52.85 246.32 52.85 239.84" fill="#d1d3d4"/><path d="M52.85,246.57a.25.25,0,0,1-.23-.17L51,241.58a.25.25,0,0,1,.06-.26l1.66-1.66a.25.25,0,0,1,.27,0,.25.25,0,0,1,.15.23v6.48a.24.24,0,0,1-.2.24Zm-1.36-5,1.11,3.26v-4.38Z" fill="#d1d3d4"/><polygon points="52.85 239.84 59.33 239.84 54.51 241.5 52.85 239.84" fill="#d1d3d4"/><path d="M54.51,241.74a.26.26,0,0,1-.18-.07L52.68,240a.25.25,0,0,1-.06-.27.25.25,0,0,1,.23-.15h6.48a.25.25,0,0,1,.25.21.24.24,0,0,1-.16.27l-4.83,1.66Zm-1-1.65,1.12,1.12,3.26-1.12Z" fill="#d1d3d4"/><polygon points="52.85 239.84 46.38 239.84 51.2 238.18 52.85 239.84" fill="#d1d3d4"/><path d="M52.85,240.09H46.38a.25.25,0,0,1-.25-.21.26.26,0,0,1,.16-.28l4.83-1.66a.3.3,0,0,1,.26.06L53,239.66a.25.25,0,0,1,0,.27A.23.23,0,0,1,52.85,240.09Zm-5-.5h4.38l-1.12-1.12Z" fill="#d1d3d4"/><path d="M52.85,248.33a8.49,8.49,0,1,1,8.49-8.49A8.49,8.49,0,0,1,52.85,248.33Zm0-16a7.49,7.49,0,1,0,7.49,7.49A7.5,7.5,0,0,0,52.85,232.35Z" fill="#d1d3d4"/><path d="M172.76,58.88h1.09L175.56,65h0l1.81-6.16h1.2L180.4,65h0l1.7-6.16h1.09L181,66.59h-1.11L178,60.3h0l-1.85,6.29H175Z"/><path d="M183.2,64a2.67,2.67,0,0,1,.21-1.06,3,3,0,0,1,.58-.86,2.88,2.88,0,0,1,.87-.58,2.81,2.81,0,0,1,1.08-.21,2.74,2.74,0,0,1,1.08.21,2.88,2.88,0,0,1,.87.58,2.78,2.78,0,0,1,.58.86,2.78,2.78,0,0,1,0,2.12,2.56,2.56,0,0,1-.58.86,2.88,2.88,0,0,1-.87.58,2.74,2.74,0,0,1-1.08.21,2.81,2.81,0,0,1-1.08-.21,2.88,2.88,0,0,1-.87-.58,2.72,2.72,0,0,1-.58-.86A2.67,2.67,0,0,1,183.2,64Zm1,0a2.09,2.09,0,0,0,.12.72,1.8,1.8,0,0,0,.34.57,1.68,1.68,0,0,0,.53.37,2,2,0,0,0,1.42,0,1.58,1.58,0,0,0,.53-.37,1.63,1.63,0,0,0,.34-.57,2.22,2.22,0,0,0,0-1.44,1.55,1.55,0,0,0-.34-.57,1.45,1.45,0,0,0-.53-.37,1.87,1.87,0,0,0-1.42,0,1.54,1.54,0,0,0-.53.37,1.69,1.69,0,0,0-.34.57A2.09,2.09,0,0,0,184.24,64Z"/><path d="M189.91,61.43h1v.79h0a1.31,1.31,0,0,1,.26-.37,2,2,0,0,1,.36-.29,2,2,0,0,1,.44-.19,1.59,1.59,0,0,1,.48-.07,1.27,1.27,0,0,1,.44.07l-.05,1.05-.24-.05-.24,0a1.45,1.45,0,0,0-1.1.41,1.78,1.78,0,0,0-.38,1.25v2.59h-1Z"/><path d="M194,58.36h1v8.23h-1Z"/><path d="M201.72,66.59h-1v-.74h0a1.9,1.9,0,0,1-.78.64,2.45,2.45,0,0,1-1,.23,2.67,2.67,0,0,1-1.08-.21,2.44,2.44,0,0,1-.83-.58,2.47,2.47,0,0,1-.52-.85A2.9,2.9,0,0,1,196.3,64a2.87,2.87,0,0,1,.19-1.07,2.42,2.42,0,0,1,.52-.86,2.28,2.28,0,0,1,.83-.57,2.67,2.67,0,0,1,1.08-.21,2.51,2.51,0,0,1,1.05.23,1.89,1.89,0,0,1,.75.64h0V58.36h1ZM199,65.8a1.8,1.8,0,0,0,.71-.13,1.58,1.58,0,0,0,.53-.37,1.63,1.63,0,0,0,.34-.57,2.22,2.22,0,0,0,0-1.44,1.55,1.55,0,0,0-.34-.57,1.45,1.45,0,0,0-.53-.37,1.87,1.87,0,0,0-1.42,0,1.54,1.54,0,0,0-.53.37,1.69,1.69,0,0,0-.34.57,2.22,2.22,0,0,0,0,1.44,1.8,1.8,0,0,0,.34.57,1.68,1.68,0,0,0,.53.37A1.8,1.8,0,0,0,199,65.8Z"/><path d="M206.4,58.88H208l2.45,5.84h0l2.42-5.84h1.56v7.71h-1.05V60.25h0l-2.6,6.34h-.7l-2.6-6.34h0v6.34h-1Z"/><path d="M216.1,62.06a2.91,2.91,0,0,1,1-.57,3.21,3.21,0,0,1,1.09-.19,3.06,3.06,0,0,1,1,.14,2,2,0,0,1,.67.38,1.59,1.59,0,0,1,.39.55,1.78,1.78,0,0,1,.12.65v2.63c0,.18,0,.35,0,.5s0,.3,0,.44h-.87c0-.26,0-.52,0-.79h0a1.85,1.85,0,0,1-.77.71,2.4,2.4,0,0,1-1,.21,2.26,2.26,0,0,1-.69-.1,1.54,1.54,0,0,1-.57-.29,1.46,1.46,0,0,1-.39-.49,1.67,1.67,0,0,1,.08-1.5,1.71,1.71,0,0,1,.61-.55,2.71,2.71,0,0,1,.91-.31,6.36,6.36,0,0,1,1.1-.09h.72v-.22a1.09,1.09,0,0,0-.08-.39.89.89,0,0,0-.23-.35.94.94,0,0,0-.38-.25,1.27,1.27,0,0,0-.54-.1,2.27,2.27,0,0,0-.88.19,2.46,2.46,0,0,0-.32.19l-.27.21Zm2.77,2a5.9,5.9,0,0,0-.72,0,2.66,2.66,0,0,0-.66.14,1.29,1.29,0,0,0-.49.31.66.66,0,0,0-.19.5.71.71,0,0,0,.3.64,1.47,1.47,0,0,0,.81.19,1.6,1.6,0,0,0,.69-.13,1.33,1.33,0,0,0,.45-.35,1.34,1.34,0,0,0,.25-.49,2,2,0,0,0,.08-.53v-.32Z"/><path d="M221.73,61.43h1v.74h0a1.83,1.83,0,0,1,.78-.64,2.45,2.45,0,0,1,1-.23,2.7,2.7,0,0,1,1.08.21,2.41,2.41,0,0,1,.83.57A2.72,2.72,0,0,1,227,63a2.85,2.85,0,0,1,.19,1.06,2.9,2.9,0,0,1-.19,1.07,2.38,2.38,0,0,1-1.35,1.43,2.7,2.7,0,0,1-1.08.21,2.38,2.38,0,0,1-1.05-.24,1.68,1.68,0,0,1-.75-.63h0v3.81h-1Zm2.68.78a1.76,1.76,0,0,0-.71.14,1.45,1.45,0,0,0-.53.37,1.55,1.55,0,0,0-.34.57,2.22,2.22,0,0,0,0,1.44,1.63,1.63,0,0,0,.34.57,1.58,1.58,0,0,0,.53.37,2,2,0,0,0,1.41,0,1.73,1.73,0,0,0,.54-.37,1.78,1.78,0,0,0,.33-.57,2.22,2.22,0,0,0,0-1.44,1.68,1.68,0,0,0-.33-.57,1.58,1.58,0,0,0-.54-.37A1.75,1.75,0,0,0,224.41,62.21Z"/><path d="M351.3,241.33H303.68a.5.5,0,0,1-.5-.5.51.51,0,0,1,.5-.5H351.3a.51.51,0,0,1,.5.5A.5.5,0,0,1,351.3,241.33Z" fill="#d1d3d4"/><path d="M102.5,240.34H67.29a.5.5,0,0,1-.5-.5.5.5,0,0,1,.5-.5H102.5a.5.5,0,0,1,.5.5A.5.5,0,0,1,102.5,240.34Z" fill="#d1d3d4"/><path d="M297.45,241.33h-5.06a.5.5,0,0,1-.5-.5.51.51,0,0,1,.5-.5h5.06a.5.5,0,0,1,.5.5A.5.5,0,0,1,297.45,241.33Z" fill="#d1d3d4"/><path d="M363.64,54.31,200.2,27,36.75,54.31l-.16-1L200.11,26h.17L363.8,53.33Z" fill="#d1d3d4"/><circle cx="200.2" cy="26.48" r="2.22" fill="#d1d3d4"/><rect x="32.82" y="48.72" width="334.09" height="5.85" fill="#fff"/><path d="M366.92,55H32.82a.46.46,0,0,1-.45-.46V48.72a.46.46,0,0,1,.45-.46h334.1a.46.46,0,0,1,.45.46v5.85A.46.46,0,0,1,366.92,55ZM33.28,54.11H366.46V49.18H33.28Z" fill="#231f20"/><rect x="33.08" y="253.09" width="334.09" height="5.85" fill="#fff"/><path d="M367.18,259.4H33.08a.45.45,0,0,1-.45-.45v-5.86a.45.45,0,0,1,.45-.45h334.1a.45.45,0,0,1,.45.45V259A.45.45,0,0,1,367.18,259.4Zm-333.64-.91H366.72v-4.94H33.54Z" fill="#231f20"/></g></svg>