<svg id="_130_world_map_flatline" data-name="#130_world_map_flatline" xmlns="http://www.w3.org/2000/svg" viewBox="0 0 400 300"><rect x="76.69" y="49.26" width="246.05" height="152.98" fill="#fff"/><path d="M322.75,202.7H76.69a.46.46,0,0,1-.45-.46v-153a.46.46,0,0,1,.45-.46H322.75a.46.46,0,0,1,.45.46v153A.46.46,0,0,1,322.75,202.7Zm-245.6-.92H322.29V49.72H77.15Z" fill="#231f20"/><path d="M313.25,194.18H86.19a.5.5,0,0,1-.5-.5V57.81a.5.5,0,0,1,.5-.5H313.25a.5.5,0,0,1,.5.5V193.68A.5.5,0,0,1,313.25,194.18Zm-226.56-1H312.75V58.31H86.69Z" fill="#d1d3d4"/><path d="M107.15,194.18a.5.5,0,0,1-.5-.5V57.81a.51.51,0,0,1,.5-.5.5.5,0,0,1,.5.5V193.68A.5.5,0,0,1,107.15,194.18Z" fill="#d1d3d4"/><path d="M130.29,194.18a.5.5,0,0,1-.5-.5V57.81a.51.51,0,0,1,.5-.5.5.5,0,0,1,.5.5V193.68A.5.5,0,0,1,130.29,194.18Z" fill="#d1d3d4"/><path d="M153.44,194.18a.5.5,0,0,1-.5-.5V57.81a.5.5,0,0,1,.5-.5.51.51,0,0,1,.5.5V193.68A.5.5,0,0,1,153.44,194.18Z" fill="#d1d3d4"/><path d="M176.58,194.18a.5.5,0,0,1-.5-.5V57.81a.5.5,0,0,1,.5-.5.51.51,0,0,1,.5.5V193.68A.5.5,0,0,1,176.58,194.18Z" fill="#d1d3d4"/><path d="M199.72,194.18a.5.5,0,0,1-.5-.5V57.81a.5.5,0,1,1,1,0V193.68A.5.5,0,0,1,199.72,194.18Z" fill="#d1d3d4"/><path d="M222.86,194.18a.5.5,0,0,1-.5-.5V57.81a.5.5,0,0,1,1,0V193.68A.5.5,0,0,1,222.86,194.18Z" fill="#d1d3d4"/><path d="M246,194.18a.5.5,0,0,1-.5-.5V57.81a.51.51,0,0,1,.5-.5.5.5,0,0,1,.5.5V193.68A.5.5,0,0,1,246,194.18Z" fill="#d1d3d4"/><path d="M269.14,194.18a.5.5,0,0,1-.5-.5V57.81a.51.51,0,0,1,.5-.5.5.5,0,0,1,.5.5V193.68A.5.5,0,0,1,269.14,194.18Z" fill="#d1d3d4"/><path d="M292.29,194.18a.5.5,0,0,1-.5-.5V57.81a.5.5,0,0,1,.5-.5.51.51,0,0,1,.5.5V193.68A.5.5,0,0,1,292.29,194.18Z" fill="#d1d3d4"/><path d="M313.25,80H86.19a.5.5,0,0,1-.5-.5.5.5,0,0,1,.5-.5H313.25a.5.5,0,0,1,.5.5A.5.5,0,0,1,313.25,80Z" fill="#d1d3d4"/><path d="M313.25,103.11H86.19a.5.5,0,0,1-.5-.5.5.5,0,0,1,.5-.5H313.25a.5.5,0,0,1,.5.5A.5.5,0,0,1,313.25,103.11Z" fill="#d1d3d4"/><path d="M313.25,126.25H86.19a.5.5,0,0,1,0-1H313.25a.5.5,0,0,1,0,1Z" fill="#d1d3d4"/><path d="M313.25,149.39H86.19a.5.5,0,0,1-.5-.5.5.5,0,0,1,.5-.5H313.25a.5.5,0,0,1,.5.5A.5.5,0,0,1,313.25,149.39Z" fill="#d1d3d4"/><path d="M313.25,172.53H86.19a.5.5,0,0,1-.5-.5.5.5,0,0,1,.5-.5H313.25a.5.5,0,0,1,.5.5A.5.5,0,0,1,313.25,172.53Z" fill="#d1d3d4"/><path d="M195.79,91.93a1.65,1.65,0,0,1-.31,1.84c-.09.1,0,.55.16.67a1.67,1.67,0,0,0,1,.47c.54,0,1.14-.52,1.46.31,1.06-.08,1.85-1.14,3-.57.28.14.85-.32,1.32-.52a5.7,5.7,0,0,1,0-1c.27-1.44.52-1.53,1.66-.6.45-.4.63-.76.07-1.27s-.34-.79.26-.92a12.06,12.06,0,0,1,1.33-.16l1.7-.15v-.4a2.67,2.67,0,0,0-.94-.19,10.6,10.6,0,0,1-1.92.4,4.63,4.63,0,0,1-2-.66c-.34-.2.1-2,.47-2.29l2.22-1.75c-.45-.15-.86-.44-1.17-.35a4.24,4.24,0,0,0-1.48.82c-.37.3-.6.79-1,1.11s-.9.55-1.24.92c-.65.7-.56,1.19.19,1.73a.75.75,0,0,1-.09,1.39,1.55,1.55,0,0,0-.87,1.32c0,.55-.06,1.35-1,1.14-1.2,1.56-1.17.05-1.48-.6a3.84,3.84,0,0,0-.18-.35c-.34-.55-.58-1.34-1.07-1.57-.33-.15-1,.51-1.56.78a1.27,1.27,0,0,1-1.58-.7,8,8,0,0,1-.48-1.7,1.45,1.45,0,0,1,.38-1.09,6.22,6.22,0,0,1,2.49-1.42c.68-.19,1.24-.93,1.76-1.51.76-.84,1.43-1.76,2.06-2.53l-1.39.33a7.13,7.13,0,0,1,1.05-.8,5.5,5.5,0,0,1,1.22-.27c.4-.25,1.08-1,1.59-.91.91.18,1.59-.51,2.46-.31.4.09.93-.39,1.6-.7l-.35.75a3.34,3.34,0,0,1,1.16-.38,13.69,13.69,0,0,1,2,.42l-.23.36c1.43.33,2.85.6,4.23,1a13,13,0,0,1,2.28,1c.61.31.64.75,0,1.07a5.27,5.27,0,0,1-3.67,0,2.64,2.64,0,0,0-1.17-.15l1.11.6c0,1.33.82,2,2.11,1.62l-.87-.57.09-.21,2.27.37-.42-.85a11.89,11.89,0,0,1,1.38-.57,10.84,10.84,0,0,1,1.48-.23,2.55,2.55,0,0,1-.34-.72,6,6,0,0,1,.08-1.21l1.7.36,0,.34-.84.29c.63,1,.89.9,1.71.24a9.63,9.63,0,0,1,2.38-1.12,5.56,5.56,0,0,1,.95-.2c.67,1.08,1.65,0,2.54.09.4,0,.84-.58,1.18.15a6.69,6.69,0,0,0,1-.33l-1.81-1.3a32.17,32.17,0,0,1,3.65.69c1,.3,1.91,1,3.07.92a2.38,2.38,0,0,1-1.24-2.11,7.42,7.42,0,0,1,1.26-1.41,3.17,3.17,0,0,1,1.49-.33,4.27,4.27,0,0,1,1.15.26l-.57.82.43,2.85.41.13-1.8,1.64a2,2,0,0,0,2.53-2c.58,0,1.31-.29,1.37.74.67-.58.52-1.09-.31-1.13-.53,0-1.06,0-1.64,0L235,79.55l1.17-.76v1l1,.14-.77-.66,1.22.17.1-.21-.6-.41.07-.22,2.32.71a6.65,6.65,0,0,0,.91.16,1,1,0,0,0,.06-.25c-.27-.13-.55-.24-1-.42l-.29-.88,4-.33-.59-.63a11.27,11.27,0,0,1,5.87-1.09,8.61,8.61,0,0,0,2.1-.31c.06,0,.11-.09.17-.09a3.34,3.34,0,0,0,1.74-.72c.73-.52,1.63-1.15,2.45.07.15.22.65.21,1,.3a21.35,21.35,0,0,1,3.2.06c.39,0,.68.74,1,1.16L255.73,78l0,.19c.3,0,.6,0,.9,0s.73.09,1-.07c1-.73,2-.3,3.07-.18.41,0,.86-.24,1.25-.17a3.64,3.64,0,0,1,1.33.64,2,2,0,0,0,2.65-.52,1,1,0,0,1,.73-.17c1,.12,2,.3,3,.47-.12,1.15-.07,2.12,1.44,2.15l.39-.67h4.77l-.5-.81a10.87,10.87,0,0,1,3.47-.18c1.14.31,2.39.06,3.51.92.75.56,2.06.48,3.12.52s2.18-.2,2.94.94c.17.26.82.22,1.25.25a15,15,0,0,0,2,0c.49,0,1-.19,1.47-.26a6.91,6.91,0,0,1,.91,0l.18.31-.6.18.07.2,1.63.48L295.39,81a23.26,23.26,0,0,1,5.13.71c1.49.55,3.33.78,4.27,2.4.51-.71,1-.65,2.84.51-.61.51-1.6.54-1.79,1.46l-1.94-.58c-.33-.11-.65-.25-1-.38a3.67,3.67,0,0,1-.74-.29,1.74,1.74,0,0,1-.39-.45c-.06.2-.11.4-.16.59s0,.19-.07.32l-1.77.61a2,2,0,0,1,.91,1.9c-2.41-.43-4,.93-5.77,2a1.43,1.43,0,0,0-2-.2,1.34,1.34,0,0,1-.82.12c-1.3-.11-1.49,1.11-2.34,1.8l.79.16.19,1.49c-.88.07-1.17.48-.64,1.26-.46.48-1.72.11-1.28,1.4-1.46-.21-1,1.62-2.14,1.92-.36-2-1.5-4,.06-5.82,1.87-1.28,3.69-2.36,4.82-4.22l-.17-.24c-.2.07-.58.14-.58.19.05.69-.48.78-.92.95s-1.08,1.22-1.34-.22a4.7,4.7,0,0,0-1.81.15,3,3,0,0,0-1.14,1c-.15.19-.11.54-.18,1l-2.27.32.44-.69a12.62,12.62,0,0,1-3.18.18c-2.23-.47-3.49,1-4.91,2.16-.7.58-1.39,1.18-2,1.69a7.09,7.09,0,0,0,.93,1,1.17,1.17,0,0,0,.81,0c.33-.09.74-.47.92-.37.37.2.9.71.84,1-.35,1.55-.1,3.26-1.08,4.66s-1.74,2.56-2.63,3.83a1.52,1.52,0,0,1-2.08.36c-.43.65-1.31.89-1.39,2,0,.45-.89.84-1,1.27a23.28,23.28,0,0,1,1,2.77c.33,1.49-1.1,1.41-2,2,.07-1,.16-1.82.18-2.68,0-.22-.25-.65-.34-.64-1.19.13-.6-.56-.5-1a1.72,1.72,0,0,1,.17-.38,1.46,1.46,0,0,0-2.2.45l-.29-.2.43-1.47c-.92-.2-1.18.71-1.74,1.08-.14.1-.23.3-.38.39a2.88,2.88,0,0,1-.59.18c.14.22.28.45.43.66s.35.51.4.57h2.45l-2.21,1.91,1.54,3.77-.73.67,1.1.17c-.48.94-1,1.89-1.45,2.83a11,11,0,0,1-1.15,2.11c-.6.69-1,1.6-2.19,1.71a6,6,0,0,0-2.15.88c-.33.18-.55.57-.89.93l-.13-.89a2.2,2.2,0,0,0-2.39,1.63c-.31,1.52.88,2.4,1.7,3.31l1.35-.34.16.22c-.26.34-.54.66-.79,1a1.19,1.19,0,0,0-.28.62c.09,1.37.18,2.66-1.47,3.34-.46.19-.67,1-1.21,1.45v-1l-2.77-3.25c-.09.13-.27.28-.31.47a5.42,5.42,0,0,1-.19,1.15c-.66,1.37.24,2.54.5,3.77.1.5.9.83,1.21,1.34a6.58,6.58,0,0,1,.59,1.77,7.82,7.82,0,0,1,.29,2.29A7.45,7.45,0,0,1,252.3,140a9.19,9.19,0,0,1-.58-2.15,3.16,3.16,0,0,0-.47-1.27,3.73,3.73,0,0,1-.68-3.44c.33-1.94-.58-3.66-.85-5.6-.64.54-.83,1.52-1.91.94.68-1.53-.2-2.69-1-3.91a5.29,5.29,0,0,1-.52-1.56c-.75.16-1.48.28-2.19.47-.26.06-.65.24-.68.42-.27,1.43-1.65,2-2.35,3.08-.45.71-1.22,1.2-1.69,1.9a2.54,2.54,0,0,0-.18,1.42,7.51,7.51,0,0,1-1.77,5.38,32.08,32.08,0,0,1-2-6.16c-.53-2.09-.81-4.23-1.16-6.07l-.75.92L232,123.07l.64-.27-2.23-2.53c-1.22,0-2.59.06-3.94,0s-1.43-.24-1.89-1.4a2.49,2.49,0,0,1-3.5-1.4,5.38,5.38,0,0,0-.24-.55c-.63-1.22-.82-1.24-1.71-.24l1.68,3.6.38-.91c.11.5.17.73.21,1s.12.7.18,1c.55-.11,1.23.4,1.65-.43a9.89,9.89,0,0,1,1.11-1.43,6.21,6.21,0,0,0,.14,1.29,1.49,1.49,0,0,0,.63.8c1.46.72,1.69,1.79.59,3a4.51,4.51,0,0,0-.46.73c-.15.25-.28.5-.44.74a7,7,0,0,1-2.3,1.85c-.95.56-1.74,1.39-2.67,2a29.7,29.7,0,0,1-2.73,1.46c-.52.26-.76.05-.86-.52-.29-1.59-.26-3.27-1.24-4.69a11.43,11.43,0,0,1-.94-1.47c-.22-.44-.3-1-.48-1.43-.24-.65-.5-1.3-.78-1.94s-.71-1.57-1.09-2.35c-.23-.45-.5-.89-.7-1.23l-1.43.43-.09-.29.72-.56-1.48-1.56c.18-.11.54-.51.91-.52.95,0,1.24-.6,1.41-1.35.27-1.18.54-2.36.87-3.84l-1.62.74s-.06,0-.09,0c-.64-.16-1.58-.65-1.86-.41-.89.79-1.33-.11-1.84-.35s-.64-.85-.93-1.28l.14-1.82c-.65-.38-.63-.36-1.38.31-.15.14-.55,0-1,0a11.38,11.38,0,0,1,.77,1.24,1.32,1.32,0,0,1,.09.91,8.22,8.22,0,0,1-.77,1.36c-.68-1.52-2.05-2.7-2.06-4.62,0-.42-.6-1-1.06-1.23-.73-.45-1.54-.73-1.79-1.69,0-.09-.36-.08-.46-.2a2.92,2.92,0,0,1-.33-.61c-.95.25-1.08.71-.38,1.55.28.34.45.77.72,1.12s.4.52.65.57c.91.2,1.33,1,2,1.5.05,0,0,.17.08.36l-1.19-.51.34,1.2-.72,1c.44-1.68-.79-2.23-1.82-3a10.81,10.81,0,0,1-1.59-1.71c-.29-.34-.56-.7-.83-1a9.07,9.07,0,0,0-1.12.77,1.2,1.2,0,0,1-1.47.26c-.57-.22-1.18-.28-1.13.75,0,.32-.44.69-.71,1a18.64,18.64,0,0,0-1.28,1.39c-.14.2,0,.59,0,1.13-.48,1.37-2,1.6-3.61,2l-.62-.82L184,110c-1-1.74.41-3.58-.46-5.36,1.54-.93,3.13-.19,4.72-.32.11-.88.73-1.81,0-2.67a19.1,19.1,0,0,1-1.77-2l1.89.09-.1-.9a1.56,1.56,0,0,0,2.12-.82c.11-.2.37-.32.55-.49.49-.48,1-1,1.66-1.65l2.14-.85a4.76,4.76,0,0,0-.06-.91C194.36,92.72,194.35,92.72,195.79,91.93Z" fill="#68e1fd"/><path d="M112.57,104h1.11a3.35,3.35,0,0,0-2-1.78A5.56,5.56,0,0,1,109,99.1c-.14-.35-.67-.53-1-.75l-.24.69c-.39-.88-1.49-1.24-.65-2.3,0-.07-.55-.9-.75-.86a3.32,3.32,0,0,1-2.34-.73,5.7,5.7,0,0,0-1.51-.5c-1.18-.25-2.38-.44-3.63-.67l.11.55-2.52.65.19-1.32L95.21,95.1c.3.58-2.11,2.61-3.62,3l.51.48,0,.31c-1.16-1-2.11,0-3.25,0L90.41,98a11.2,11.2,0,0,0,1.71-.92,10.27,10.27,0,0,0,1.33-1.5H90.53l-.2-1.18c-1.59,1.13-1.48-.76-2.29-1.07.43-1.59,1.88-1.37,3-1.75l-.19-.86c-1.7.15-2.09.67-3.93-.74.39-.14.76-.24,1.1-.38s.69-.34,1-.51c.61.77,1.11.79,2,.18l-3.69-1.46c.56-.22.89-.33,1.21-.48s.82-.46,1.25-.63c.83-.34,1.67-.66,2.52-.94a8,8,0,0,1,4.16.16,28.89,28.89,0,0,0,3.35.4,19.44,19.44,0,0,1,5.07,1,5.5,5.5,0,0,0,1.15.16c0-1.32,1-.26,1.47-.63a3.28,3.28,0,0,1,1.91-.41l-2.06.84.13.28,3.2-1.38,1.06.94.74-.6.4.66c.48-.81,1.15-.54,1.85-.37,1,.24,1.94.36,2.91.54.31.06.61.17,1,.29l-.62.48,0,.24a16.23,16.23,0,0,1,2.3-.14,11.49,11.49,0,0,1,2,.52l-.11-.75c.74,0,1.41,0,2.08,0,1.24.09,2.47.62,3.73-.15.24-.16.9.34,1.47.58l1.13-.89-1.69-1.27c-.14-.66.18-1.2,1-1.28.71-.06,1.59,1,1.49,1.73l1.07.19L132.55,88l.93-1.09,1,2.1,1.62-2.3,1.71.32v1.66l.21.26-1.62.35.54.85-1.86-1c.2.89-.24,1.08-.81,1a6.82,6.82,0,0,0-1.64-.21l2.2.64-1.63.77a2,2,0,0,0-.63.42c-.83,1-2.53,1.43-2.44,3.15,0,.26.22.67.41.72.82.19.89.75.84,1.48,1.07-.6,1.85,0,2.74.49a27.59,27.59,0,0,0,3.28,1.25c.07.68-.06,1.76,1,2.38.2.13.55.38.6.33.26-.25.64-.59.62-.88a7.43,7.43,0,0,0-.43-1.7c.58-.5,1.49-.91,1.63-1.5s-.54-1.33-.91-2.11c.93-.66,0-1.66.11-2.68,1.81-.5,3.37.42,5,1.25a1.31,1.31,0,0,0,1,1.85c1.2.3,1.33-1,1.82-1.64a24.08,24.08,0,0,1,1.47,2.08c.25.43.14,1.13.46,1.42A12.93,12.93,0,0,0,151.77,99l-.57.37a4.68,4.68,0,0,1,1.29.31,1.3,1.3,0,0,1,.52.9,1,1,0,0,1-.5.7c-1.46.71-2.83,1.63-4.67,1.22-1.17-.27-2,.8-2.77,1.57a12.63,12.63,0,0,1,1.47-.61,3.13,3.13,0,0,1,1.14-.09c.1,0,.27.51.21.58-.74.69-.49,1.26.2,1.75.92.67,1.26.6,1.88-.33a.45.45,0,0,1,.36-.22l-.23.81.43-.25.15.27-3.43,1.83-.25-.06.71-1.52a32.35,32.35,0,0,0-3.24,1.68c-.26.18-.13.93-.18,1.41l.27.13a5.5,5.5,0,0,1-1,.21c-.83,0-1.32.24-1.41,1.22-.05.55-.56,1.07-.92,1.69l-.37-1.44a8.55,8.55,0,0,0,0,1.69c.39,1.73.3,2-1.2,2.85-.89.51-1.92,2.07-1.76,2.73.22.92.54,1.83.72,2.76a6.35,6.35,0,0,1-.08,1.5l-.49.06-1.54-4-.83.37c-.73-1.26-1.81-.46-2.77-.51l.41.92c-.87-.18-1.56-.29-2.23-.47-.52-.14-.9-.14-1.22.4-.16.26-.52.4-.76.62s-.56.43-.57.66c-.05,1.65-.08,3.32,0,5a2.83,2.83,0,0,0,.6,1.54c.33.41.94.94,1.34.87.74-.12,1.79.08,2-1.17s.67-1.48,2.16-1.29l-1.05,4.5c.49,0,1,0,1.45-.07,1.26-.16,1.78.42,1.6,1.65-.22,1.53-.47,3.13,1.3,4.07,1.43-.71,1.42-.7,2.58.5a5,5,0,0,0,1,.65c.34-2,2-2.5,3.47-3.39-.12.81-.62,1.58-.12,2.36l.73-2c.79.38,1.44.7,2.11,1a3.42,3.42,0,0,0,2.19,0c.69-.15,1.07.61,1.58,1a4.06,4.06,0,0,1,.49.52,7.49,7.49,0,0,0,1,1,3.49,3.49,0,0,0,1.53.73c1.87.11,2.75.61,3.21,2.4a3.68,3.68,0,0,0,3.14,2.75c.64.15,1,.35.83,1,1.5,0,3-.3,4.11,1.14a.63.63,0,0,0,.38.29,1.69,1.69,0,0,1,1.59,1.89,5.52,5.52,0,0,1-1.17,2.28c-.42.65-1,1.22-1.44,1.84a.89.89,0,0,0-.08.38,28.63,28.63,0,0,1-.41,3.58A10.71,10.71,0,0,1,163.6,158c-.09.17-.35.27-.55.35-.93.35-1.89.62-2.78,1a2,2,0,0,0-1.14,1.9,8.78,8.78,0,0,1-1,2.46c-.13.3-.3.58-.5,1l-.17-.95c-1,1.92-1.75,4.07-4.48,2.23.36.62.62,1,.82,1.45a1.17,1.17,0,0,1-.83,1.76c-.72.2-1.47.29-2.22.43.09,1.38-.22,1.63-1.84,1.15.74,1.79-.21,2.84-1.65,3.66a4.72,4.72,0,0,0,.65.56c.79.42.79.55.08,1.16-.49.42-1.19.88-1.3,1.42a3.06,3.06,0,0,0,.51,2c.29.46,1,.67,1.64,1.06a10,10,0,0,1-3,.23,5.74,5.74,0,0,1-2.68-1.6,4.37,4.37,0,0,1-.66-2.22c-.13-.74-.25-1.56.73-2l-.72-.09.85-2.16.2,0,.15.88.13,0,.39-2.24c-.93-.11-.93-.65-.61-1.32.06-.11.24-.26.21-.32-.65-1.41.62-2.38.81-3.59s.25-2.36.4-3.53c.2-1.53.48-3,.66-4.56a7.35,7.35,0,0,0,.06-2.64,2.51,2.51,0,0,0-1.36-1.54c-2-.68-2.48-2.45-3.25-4-.6-1.22-.9-2.57-2-3.57a1.09,1.09,0,0,1,.07-1.61,4,4,0,0,0,.55-.73c-.71-.23-.9-.72-.56-1.31a17.09,17.09,0,0,1,1.51-2.32c.88-1.07.83-1.93-.17-2.77a4.85,4.85,0,0,1-.83-1.4c-.13-.23-.25-.47-.37-.71h-.3l-.56,1.39c-.08-.06-.31-.24-.54-.4a2,2,0,0,0-.59-.36c-.43-.09-.87-.1-.84-.71,0,0,0-.07-.06-.07-1-.27-1.08-1.16-1.4-1.92A2.75,2.75,0,0,0,133,132a3.49,3.49,0,0,1-2-1.49c-.42-.49-.83-.82-1.52-.33a1.13,1.13,0,0,1-1-.05c-1.45-.84-2.88-1.7-4.27-2.62a1.22,1.22,0,0,1-.5-1,3.19,3.19,0,0,0-.79-2.64c-.7-1-1.46-2-2.12-3s-1-1.89-1.53-2.79c-.19-.32-.63-.49-1-.72l-.29.21c.31.64.62,1.28,1,1.92q.84,1.67,1.71,3.33c.12.24.28.46.39.7s.24.63.35.94l-.4.18a21.16,21.16,0,0,0-1.35-2.59,5.36,5.36,0,0,0-1.29-1.1c0-.59.2-1,0-1.18-1-.92-1.17-2.25-1.74-3.38-.14-.28-.36-.65-.62-.71-1.5-.38-1.71-1.79-2.36-2.85a7.34,7.34,0,0,1-.74-1.45,9.51,9.51,0,0,1-.29-4A19.75,19.75,0,0,0,112.57,104Z" fill="#68e1fd"/><path d="M201.58,166.66a1.66,1.66,0,0,1-.92-1.79,3.27,3.27,0,0,0-1-2.2,5.12,5.12,0,0,1-1.25-3.46,6.93,6.93,0,0,0-1.28-3.33c-1-1.7-.33-3.19.38-4.64.32-.66.62-1.13.13-1.78a1,1,0,0,1-.14-.56,5.25,5.25,0,0,0-1.4-4,3.49,3.49,0,0,1-.75-3.88,2,2,0,0,0-.26-1.42,1.24,1.24,0,0,0-1-.37c-.72.07-1.22.1-1.5-.79s-1.21-.58-1.87-.44a20.22,20.22,0,0,0-1.93.69,4.28,4.28,0,0,1-.95.15,12.54,12.54,0,0,0-2.47.24,1.43,1.43,0,0,1-1.54-.22,26.33,26.33,0,0,1-2.27-1.91,22.83,22.83,0,0,1-1.71-2.49c-.13-.17-.35-.28-.49-.45s-.37-.4-.38-.62a7.58,7.58,0,0,1,.24-3,3.08,3.08,0,0,0-.07-2.3c-.62-1,0-1.56.34-2.23.48-1,1-1.88,1.61-2.8a1.1,1.1,0,0,1,.6-.42c1-.29,1.61-.71,1.59-1.92a2,2,0,0,1,1.12-1.82A8,8,0,0,0,186,117.3c1.07.86,2.22.42,3.41-.07a10.11,10.11,0,0,1,2.34-.62c1.12-.15,2.26-.19,3.4-.23a8.57,8.57,0,0,1,1.3.18l-.7,2.07c.52,1,1.8.48,2.73.88.11,0,.33,0,.34.06.22,1.16,1.4.88,2.06,1.37s.9.1.95-.54a1.11,1.11,0,0,1,1.67-1,27.68,27.68,0,0,0,3,1,3.21,3.21,0,0,0,1.56-.12c.68-.18,1.16-.26,1.45.6a35.25,35.25,0,0,0,1.38,3.44c.42.9,1.26,1.71,1.35,2.62.15,1.48,1.13,2.51,1.55,3.81a2.94,2.94,0,0,0,.69,1c.52.54,1.15,1,1.62,1.56.26.31.23.84.44,1.21a.84.84,0,0,0,.71.33c1.29-.28,2.57-.63,4-1a7.2,7.2,0,0,1-.37,1.89c-1,2-2,4-3.86,5.53-1.42,1.16-2.32,3-3.42,4.49-.1.14-.14.49-.06.56.68.57.25,1.31.37,2s.5,1.12.59,1.71a7.44,7.44,0,0,1,.13,2.61c-.12.57-.74,1.07-1.22,1.52-.73.68-1.54,1.29-2.28,2-.11.1-.08.41,0,.6.09.35.25.69.35,1a1.47,1.47,0,0,1-.9,2,7.53,7.53,0,0,0-.75.42c0,.63.09,1.18-.12,1.51-1.13,1.8-2.22,3.71-4.44,4.35a18.44,18.44,0,0,1-2.69.28A5.1,5.1,0,0,0,201.58,166.66Z" fill="#68e1fd"/><path d="M154.5,87.44l-1.08-.85,2.35-1.2v-1l-2-.73,0-.31,2.05.29-1.6-1.11c-1,.56-1.25.34-1.28-1.1l.66,0c-.43-.62-.79-1.21-1.22-1.75a4.43,4.43,0,0,0-4.88-1.76,2.66,2.66,0,0,1-1.13.17c-.41-.08-1.15.37-1.19-.6,0-.12-.79-.21-1.21-.31v-.33l2-.12-3.36-1a3.53,3.53,0,0,1,.75-.4c1-.16,2-.25,2.94-.45.57-.11,1.31-.12,1.31-1.08h-1.42l-.06-.34,3.25-.84.06-.6c.08,0,.15-.07.2-.06.94.34,1.71-.38,2.6-.39a1.83,1.83,0,0,1,1.39.57c.25.23.79-.8,1.43-.22.12.12.44,0,.75,0l-.39-.64,3.41.86.08-.3a4.37,4.37,0,0,1-.83-.19.78.78,0,0,1-.39-.47c0-.12.26-.37.42-.39.85-.09,1.72-.1,2.58-.17.6,0,1.21-.23,1.81-.23,2.39,0,4.78,0,7.15.2a17.52,17.52,0,0,1,3.18.82l-2.57.44,0,.4c.23,0,.47,0,.7,0l1.27-.14-.5.81a23.37,23.37,0,0,0,3.23-.65,4.33,4.33,0,0,1,3.62.23c-2,1-4.29,1.61-5.61,3.59a4.33,4.33,0,0,1,1.42.1c.29.13.43.61.69,1l-1.42.09c-.09.59,1.41,1,.27,1.75l.65.68L173.2,80l.66.74h-2.29c-.44.6-.35,1.06.5,1.39a1.43,1.43,0,0,1,1,1.81l-2-.84-.67.82,2.5.26a13.19,13.19,0,0,1-5.7,2.13c-.35,0-.75.43-1,.75a3.64,3.64,0,0,1-3.45,1.86c-.21,0-.69.51-.69.78a1.85,1.85,0,0,1-.95,1.94c-.09.05-.14.24-.17.37-.18.72-.38,1.44-.5,2.17s-.55.54-1,.35a14.62,14.62,0,0,1-1.71-.77,2.59,2.59,0,0,1-.94-.92c-.8-1.49-1.56-3-2.3-4.53C154.4,88.08,154.5,87.77,154.5,87.44Z" fill="#68e1fd"/><path d="M278.64,152.06a5.28,5.28,0,0,1,.89.86,2.87,2.87,0,0,1,.48,1.36c-.06,1.1.77,1.49,1.41,2.07a1.9,1.9,0,0,1,.33.3,3.51,3.51,0,0,0,1.1,1.4,5.84,5.84,0,0,1,1.63,2.57,4.7,4.7,0,0,1-.44,4.15,12.05,12.05,0,0,0-1.56,3.61c-.06.33-2.43,1-2.77.87l-.5-.29a2.12,2.12,0,0,1-3.13-1.13,7.67,7.67,0,0,0-1-1.39l-.37.26.28-1.46-1.33,1.49c-.42-.68-.66-1.51-1.21-1.86a3.84,3.84,0,0,0-2.31-.49,9.08,9.08,0,0,0-3.16.88,4,4,0,0,1-2.35.76,3.17,3.17,0,0,0-1.7.59,1.33,1.33,0,0,1-1.78-.2,1,1,0,0,1-.16-.73c0-.44.26-.91.16-1.3a22.91,22.91,0,0,0-.86-2.49c-.16-.43-.47-.84,0-1.31.08-.07-.14-.39-.16-.6-.08-.68-.41-1.57-.1-2s1.32-.81,2-1.2c1-.58,2.56-.15,3-1.66.07-.21.06-.45.15-.65a2.78,2.78,0,0,1,.38-.54l.36.28a17.82,17.82,0,0,1,1.61-1.84c.68-.6,1.09-.23,1.34.82a13.79,13.79,0,0,1,1.13-1.48,10.52,10.52,0,0,1,1.27-.87,3.57,3.57,0,0,0,.43-.45l2.57.62c0-.09,0,0,0,0-1,1.5-1,1.5.5,2.63l.85.58,1.08.68c.18-1,.33-1.79.46-2.59s.26-1.64.39-2.46l.33,0Z" fill="#68e1fd"/><path d="M141.1,85.49c.1-1.13-1-1.08-1.48-1.63-.26.59-.43,1.23-1.16.56-.15-.14-.5,0-.75-.07-1.21-.14-2.42-.26-3.62-.43-.24,0-.44-.27-.72-.44l1.08-.35c-1-.19-1.9-.26-1.45-1.4a2.07,2.07,0,0,1,2.55-1.34c-.21.47-.62,1-.58,1.39s.51.89.84,1.3c-.34-2.09-.16-2.45,1.33-2.66.79-.11,1.11.34,1.19,1.64a3.55,3.55,0,0,1,4,.25,2.37,2.37,0,0,0,1,.26c.09,0,.21,0,.29,0a13.73,13.73,0,0,1,2,1,8.5,8.5,0,0,1,1.23,1.41l-.88.17-.11.23,4,2.14-1.52,1.9-2-1.72-.37,1c.75.7,2.14,1.2,1.84,2.94l-1.13-.11.49,1.16c-1.4-.58-2.78-.62-3.66-1.86a2.09,2.09,0,0,0-2.3-.79,3.08,3.08,0,0,1-1.1-.17c.06-.31.1-.62.18-.93a1.69,1.69,0,0,1,.21-.54,2.11,2.11,0,0,1,.65-.58c.1,0,.35.21.53.33L141,89l1.43-.15v-.24l-.47-.17c.23-.74,1.64-.81,1.15-1.92A1.8,1.8,0,0,0,141.1,85.49Z" fill="#68e1fd"/><path d="M134.73,73.16c-.91.54-1.75-.37-2.76-1.11a25.71,25.71,0,0,1,4.23-.43,12.57,12.57,0,0,0,3.78-.68,10.82,10.82,0,0,1,2.85-.11c1.75,0,3.49.12,5.23.25a7.35,7.35,0,0,1,1.6.52c-.37.2-.68.39-1,.54-1.52.65-3.06,1.29-4.6,1.93a5.07,5.07,0,0,1-1,.29,1.81,1.81,0,0,0-1.64,1.58l-2.18.89.95.56c-.83.11-1.47.86-2.22.07-.08-.08-.38,0-.57.07a9.58,9.58,0,0,1-4.48-.19l1.53-.44-.19-.49,1.37.1.09-.23-1.19-.56c.7-1.09,1.69-.16,2.58-.38L135,74.07l.26-.23c1.28.5,2.44-.26,3.8-.27C137.7,72.66,136.26,73.77,134.73,73.16Z" fill="#68e1fd"/><path d="M116.84,84.08l2.73-.17,0-.19c-.56,0-1.12-.11-1.69-.14s-1.11,0-1.67,0v-.32l1.13-.42-1.57-.38c.54-1.25,1.66-1.43,2.9-1.6l-.07.68c.15,0,.27,0,.33,0,.51-.51.94-.32,1.42.09s.67-.76,1.15-.15a3.93,3.93,0,0,0,1,1l-.37-1.58h1.45a8.65,8.65,0,0,0,1,2.28c.47.56,1.31.81,1.9,1.39l-.92.08.41.75a5.23,5.23,0,0,1-1.6,0c-1.23-.45-2.28,0-3.42.36-.61.17-1.52.51-2-.5-.06-.13-.4-.14-.61-.2l-1.58-.45Z" fill="#68e1fd"/><path d="M281.19,146.8l-.74.53c.8.84,1.56,1.62,2.28,2.36a3.1,3.1,0,0,1-2.54-1.38,1,1,0,0,0-1.83.07.82.82,0,0,1-1.36.31c-.6-.7-1.25-.67-2.3-.36l.82-1.13a1.9,1.9,0,0,0-1.44-1.52A13.8,13.8,0,0,1,272,145c-.23-.09-.35-.43-.54-.68l.76-.34-1.89-.9a7.39,7.39,0,0,1,1.21-.47.88.88,0,0,1,1.14.7,13.42,13.42,0,0,0,.46,1.35l.32,0a2.89,2.89,0,0,1,.47-.62c.59-.5,1.09-1,2-.27.71.54,1.82.51,2.63,1A23.23,23.23,0,0,1,281.19,146.8Z" fill="#68e1fd"/><path d="M257.19,140.9l.94.3,4-3.76,1.19,1.19c-1.17,1.11-1.22,1.86-.14,3-.85.34-1.55,1.86-1.52,3.47l-3.78-.73C257.73,143.29,256.7,142.32,257.19,140.9Z" fill="#68e1fd"/><path d="M216.84,153.59c2,.09,2.09-1.72,3.19-2.54a1.7,1.7,0,0,1,.31,2.23c-.08.11-.06.29-.1.44-.53,1.89-1,3.79-1.6,5.67a1.11,1.11,0,0,1-1.79.46,2.73,2.73,0,0,1-.34-2.69,5.32,5.32,0,0,0,.32-1.75C216.88,154.82,216.84,154.23,216.84,153.59Z" fill="#68e1fd"/><path d="M187.33,97.33l-.82-.24c0-.46,0-.82,0-1.18,0-.13.22-.38.25-.36.5.21.79-.15.7-.47s-.55-.51-.85-.74c-.07,0-.19,0-.36,0l.12-.61c-.85-.81-1.18-1.42-1-1.74.5-.7,1.58-1.13,2.06-.82.77.5.8.88.22,1.91.71,1,1.37,1.9,2.14,3a.88.88,0,0,1,.52.24c.08.1-.15.45-.23.69s-.16.42-.33.91l-3.92.62Z" fill="#68e1fd"/><path d="M255.05,146.42l-1.11-.09c-.86-1.22-1.81-2.6-2.78-4s-1.85-2.58-2.87-4c2,.23,2.81,1.85,4.09,2.76a7.87,7.87,0,0,1,2.05,2.54c.15.26.61.33.89.46l-.3,2.34Z" fill="#68e1fd"/><path d="M225.17,80.53c-1.63.06-3-.08-4-1.09a23,23,0,0,0,2.36-2.24,5.27,5.27,0,0,1,3.12-1.5,35.46,35.46,0,0,1,3.6-.53,15.94,15.94,0,0,0,1.64-.45l.17.37a3.22,3.22,0,0,1-.86.48,23.37,23.37,0,0,0-3.39.67A8.75,8.75,0,0,0,224,78.81c-.15.18,0,.71.16,1S224.73,80.21,225.17,80.53Z" fill="#68e1fd"/><path d="M173.14,90.61l-1.41-.41,1.27-.67h-1.4l-.14-.16,1.31-.76-.12-.32.73,1,3-.72.08-.32a7.12,7.12,0,0,1,1.42,1.37c.41.71-.46,1-.83,1.28a5.11,5.11,0,0,1-1.7.8,2.44,2.44,0,0,1-1.17,0c-.59-.13-1.15-.35-1.74-.53Z" fill="#68e1fd"/><path d="M273.16,112l-2.39.6c.71-1.19,1.09-1.36,2.91-1.37.14-.26.3-.53.44-.81s.21-.53.21-.53c.4,0,.85,0,.91-.09.35-.72.63-1.49.92-2.26.18-.48,0-1.22.92-1.19a2.26,2.26,0,0,1,0,2.54,3.15,3.15,0,0,0-.3,1.88c.11,1-.82,1-1.26,1.17-.81.21-1.48.43-1.74,1.37l-.3,0Z" fill="#68e1fd"/><path d="M112.44,79.59a15.51,15.51,0,0,1,5.36.81c-1,.6-1.71,1-2.44,1.54s-1.26.88-1.76,1.24l-1.7-1.1C112.06,81.41,113.06,80.8,112.44,79.59Z" fill="#68e1fd"/><path d="M130.67,75.22l.53-.45-2.11-.41c.4-1.07.9-1.69,1.93-1.54a4,4,0,0,1,.77.29,2.75,2.75,0,0,0,.91.21c.41.42.75,1,1.43.47l.92.79C134,76,132.65,76.25,130.67,75.22Z" fill="#68e1fd"/><path d="M196.23,72.45l3.2.27L199.1,72l5.37,2.15,0,.35h-1.91c-.11-.27-.15-.57-.31-.68a.72.72,0,0,0-.67,0c-.57.39-1.09.84-1.74,1.35l-1.53-.39.65-.33-1-.09,0-.17,1.22-.44,0-.24a4.35,4.35,0,0,1-1.56.2,5,5,0,0,1-1.39-.92Z" fill="#68e1fd"/><path d="M131.38,77.62l.77-.21v.53c2.19,1.5,4.6,0,6.9.72a1.47,1.47,0,0,1-2,.86,4.24,4.24,0,0,0-.93,0c-1.34,0-2.69,0-4-.12-.22,0-.47-.46-.58-.74A4.4,4.4,0,0,1,131.38,77.62Z" fill="#68e1fd"/><path d="M117.62,78.48a2.47,2.47,0,0,1-.29.06h-.27c0-.08,0-.16,0-.19,1-1.24,2-.5,3.05-.13.44.15.87.32,1.54.57l-.58-1.19.63-.43c.09.08.19.12.22.2.21.53.36,1.12,1.18.68.11-.07.54.17.58.33a.72.72,0,0,1-.3.62c-1.5.28-3,.51-4.51.74-.06,0-.14-.12-.34-.29l1.51-.39v-.23l-3.35.28,0-.15,1-.37Z" fill="#68e1fd"/><path d="M292.58,174.41l4.14-3.6a2.35,2.35,0,0,1,.51.31c.14.12.3.46.24.52-.44.47-.47,1.31-1.28,1.47a.91.91,0,0,0-.47.33C294.56,175.06,294.56,175.06,292.58,174.41Z" fill="#68e1fd"/><path d="M264.9,143.68l.75,1.6-.64.47-.74-1.54c0,1.65,0,1.76-.56,2.12l-.41-1.83-.19.06.94-3.15c1-.15,2.11.93,3-.47-.32,1-.43,1.12-1.27,1.06a4.06,4.06,0,0,0-1.35,0c-.89.29-.32.76-.13,1.14l1.59-.53.09.22Z" fill="#68e1fd"/><path d="M183.16,96.7V95.15a13.82,13.82,0,0,0,1-1c.52-.6,1.06-.18,1.5,0s.38.61-.08.89c-.07,0-.1.2-.11.31,0,.37.1,1-.06,1.07a10.42,10.42,0,0,1-2.07.75c-.12,0-.33-.25-.5-.39Z" fill="#68e1fd"/><path d="M128.77,80.52l-.66.54.95.42c.28,1-.72,1-1.16,1.38-.08.07-.54-.29-.82-.46l-1.66-1,.09-.31,1.43.26-.76-.81A1.92,1.92,0,0,1,128.77,80.52Z" fill="#68e1fd"/><path d="M278.85,99.26l-.82,0,.26,2.46h-.81c.53-2.25-.71-4.69.57-7.19C278.33,96.23,278.59,97.72,278.85,99.26Z" fill="#68e1fd"/><path d="M255,146.46a11.73,11.73,0,0,0,1.72.44c.94.11,1.88.11,2.83.15a1,1,0,0,1,.65.19l-.56.29,1.46.6,0,.21c-.73,0-1.47,0-2.19-.14a27.45,27.45,0,0,1-3.36-.7.78.78,0,0,1-.5-1.08Z" fill="#68e1fd"/><path d="M276.93,105.2l-.44,1c-.4-1.22-.22-1.62.61-1.65l.29-2.07c.72.45.93,1.67,2.07,1.28l.19.86-1.59.92Z" fill="#68e1fd"/><path d="M276.49,76.81a11.34,11.34,0,0,1-1.53-.16.63.63,0,0,1-.37-.51c0-.2.31-.36.5-.5a.46.46,0,0,1,.37-.08c1.13.43,2.26,0,3.38.09.21,0,.41.27.62.42-.19.17-.35.46-.56.5C278.11,76.69,277.31,76.74,276.49,76.81Z" fill="#68e1fd"/><path d="M300.26,168.68a4.15,4.15,0,0,1-.38.76c-.47.63-1,1.25-1.46,1.85-.07.08-.31,0-.24-.17l-.7-1.38.62-1.66c.65-.3,1.11,1.55,2.13.26Z" fill="#68e1fd"/><path d="M125.87,78.13l-.08-.6,1.15.6-.28-.65a5.09,5.09,0,0,1,1.34,0c.17,0,.37.51.33.75s-.26.88-.47.92-.75-.23-1.14-.35-.53-.12-.79-.19a3.27,3.27,0,0,1-.82-.26,5.51,5.51,0,0,1-.73-.54c.12-.13.3-.39.34-.37a6.45,6.45,0,0,1,.82.54.73.73,0,0,1,.16.22Z" fill="#68e1fd"/><path d="M136.62,127.32a2.39,2.39,0,0,1,3-1c1.19.59,2.33,1.26,3.65,2l-1.81.21c-.4-.47-.64-1-1-1.16a6.61,6.61,0,0,0-2.29-.74C137.73,126.55,137.22,127,136.62,127.32Z" fill="#68e1fd"/><path d="M264,129.23c1.35.4,1.58,1,1.06,1.79s-.32,1.13.62,1.32a7.52,7.52,0,0,1,.84.28l-.33.7c-.62-.59-1.65-.46-2.22-1.29C263.29,131,264.7,130.33,264,129.23Z" fill="#68e1fd"/><path d="M132.56,80.27a1.32,1.32,0,0,1-1.43,1.18c-.13,0-.36,0-.36.1-.12.8-.69.51-.85.21s-.33-1.12-.12-1.37.93-.37,1.42-.39A5.5,5.5,0,0,1,132.56,80.27Z" fill="#68e1fd"/><path d="M267.26,137.51l.14.71-.27.17L266.06,137l-.82.16-.12-.21,2.54-1.42.17,2Z" fill="#68e1fd"/><path d="M250.09,71.82l-4.2,1c.05-.28,0-.64.14-.73A3.43,3.43,0,0,1,250.09,71.82Z" fill="#68e1fd"/><path d="M113.62,77.86a14.55,14.55,0,0,1,2-1,12.72,12.72,0,0,1,2.08-.34l.17.35a11.08,11.08,0,0,1-1,.89s-.34-.24-.52-.38C115.64,78.2,114,78.49,113.62,77.86Z" fill="#68e1fd"/><path d="M143.12,129.31l1.49.14-.75-.87c1.42-.39,3,.17,2.92,1C145.56,129.53,144.29,130.13,143.12,129.31Z" fill="#68e1fd"/><path d="M138.78,91.6c-.54,0-1,.19-1.2,0-.54-.47-.88-.09-1.35.06a5.1,5.1,0,0,1-1.52,0c1-1.61,1.3-1.71,2.56-1l.26.14Z" fill="#68e1fd"/><path d="M251.49,72.15l-.27,1c-2.05.32-2.6.24-3.64-.63Z" fill="#68e1fd"/><path d="M206,72.61a26.42,26.42,0,0,1-2.94.14,6.89,6.89,0,0,1-2.11-.7h5Z" fill="#68e1fd"/><path d="M127.47,76.26l-3.32-.67.72-.32-1.09-.3,0-.32a11.5,11.5,0,0,1,1.33.17,5.62,5.62,0,0,1,1.28.41,9.86,9.86,0,0,1,1.18.76Z" fill="#68e1fd"/><path d="M254.83,73.72l-3.7.3-.14-.16a5.5,5.5,0,0,1,1.81-1,6.53,6.53,0,0,1,2.11.55Z" fill="#68e1fd"/><path d="M239.24,135.41a10.87,10.87,0,0,1,1,1.79c.08.2-.31.74-.59.85-.55.22-.73-.17-.71-.7s0-1.2,0-1.81Z" fill="#68e1fd"/><path d="M280.25,173l-1-2.12a9.87,9.87,0,0,1,1.72,0,.92.92,0,0,1,.33.8A7.13,7.13,0,0,1,280.25,173Z" fill="#68e1fd"/><path d="M270.36,112.72c1.07.87,1,1.91-.15,2.54l.07-1.48-.44-.26Z" fill="#68e1fd"/><path d="M223.57,71.31l2.51-.84.11.18c-.22.32-.4.86-.69.92a9.51,9.51,0,0,1-2,0Z" fill="#68e1fd"/><path d="M194.6,106.65l.65-.26c.07.18.24.4.18.51-.22.48.29,1.38-.83,1.44Z" fill="#68e1fd"/><path d="M198.67,110.33l-1.63-1,.06-.2h1.78Z" fill="#68e1fd"/><path d="M138.31,80.32l2.45.47-.09.37C139.91,80.9,138.82,82,138.31,80.32Z" fill="#68e1fd"/><path d="M127.83,75.09c.8.15,1.35.25,1.88.37a.37.37,0,0,1,.14.32.57.57,0,0,1-.3.31C128.83,76.31,128.32,76.05,127.83,75.09Z" fill="#68e1fd"/><path d="M265.2,124.6l-.79,2.39C263.74,125.93,263.91,125.29,265.2,124.6Z" fill="#68e1fd"/><path d="M281.68,146.14a3.65,3.65,0,0,0,1.24,0c.33-.13.55-.54,1-.74a3.71,3.71,0,0,1-.54.88A1.08,1.08,0,0,1,281.68,146.14Z" fill="#68e1fd"/><path d="M129,78.9l1.61-.54.15,1a8.28,8.28,0,0,1-1,0,3.86,3.86,0,0,1-.73-.23Z" fill="#68e1fd"/><path d="M268.31,148.25l-2.5,1.7A2.17,2.17,0,0,1,268.31,148.25Z" fill="#68e1fd"/><path d="M128.26,86.57l1.37.82,0,.2-2.19-.18Z" fill="#68e1fd"/><path d="M128.88,77l2,.19c-.72.89-1.37.34-2,.07Z" fill="#68e1fd"/><path d="M119,76.24l2-.31C120.72,76.85,120,77,119,76.24Z" fill="#68e1fd"/><path d="M272.74,112.3c.55,1.3-.95.76-1,1.44C271.26,112.71,272.32,112.82,272.74,112.3Z" fill="#68e1fd"/><path d="M270.61,144.86h-1.89c.08-.2.16-.55.25-.56C269.59,144.26,270.29,144.12,270.61,144.86Z" fill="#68e1fd"/><path d="M226.22,71.46l1.55-.12,0,.46L226.3,72Z" fill="#68e1fd"/><path d="M111.93,197.93H86.19a.5.5,0,0,1-.5-.5.5.5,0,0,1,.5-.5h25.74a.5.5,0,0,1,.5.5A.5.5,0,0,1,111.93,197.93Z" fill="#d1d3d4"/><path d="M313.25,197.93H297.16a.5.5,0,0,1-.5-.5.51.51,0,0,1,.5-.5h16.09a.5.5,0,0,1,.5.5A.5.5,0,0,1,313.25,197.93Z" fill="#d1d3d4"/><path d="M136.53,124.63H137a3.95,3.95,0,0,1,3.95,3.95v31.31a0,0,0,0,1,0,0h-8.38a0,0,0,0,1,0,0V128.58a3.95,3.95,0,0,1,3.95-3.95Z" transform="translate(147.55 339.32) rotate(-139.26)" fill="#fff"/><path d="M128,157.23a4.4,4.4,0,0,1-2.89-1.07l-.37-.32a4.46,4.46,0,0,1-.47-6.27l20.44-23.73a.51.51,0,0,1,.71,0l6.35,5.47a.51.51,0,0,1,.17.34.5.5,0,0,1-.12.37L131.4,155.69a4.4,4.4,0,0,1-3,1.53Zm17.14-30.36-20.11,23.35a3.47,3.47,0,0,0-.83,2.5,3.43,3.43,0,0,0,1.19,2.36h0l.37.32a3.46,3.46,0,0,0,4.86-.36l20.12-23.35Z" fill="#231f20"/><rect x="142.28" y="124.22" width="13.53" height="7.6" transform="translate(178.41 322.29) rotate(-139.26)" fill="#fff"/><path d="M151.69,135.82a.49.49,0,0,1-.32-.12l-10.26-8.84a.49.49,0,0,1-.05-.7l5-5.76a.52.52,0,0,1,.34-.18.53.53,0,0,1,.37.12L157,129.18a.49.49,0,0,1,.05.7l-5,5.76A.49.49,0,0,1,151.69,135.82Zm-9.55-9.39,9.5,8.18,4.31-5-9.5-8.18Z" fill="#231f20"/><rect x="108.56" y="140.53" width="13.53" height="53.26" rx="4.78" transform="translate(93.61 369.07) rotate(-139.26)" fill="#fff"/><path d="M102.57,190.29A5.25,5.25,0,0,1,99.13,189l-3-2.6a5.28,5.28,0,0,1-.56-7.44l28.53-33.11a5.28,5.28,0,0,1,7.44-.56l3,2.6a5.28,5.28,0,0,1,.56,7.44l-28.53,33.12A5.25,5.25,0,0,1,102.57,190.29ZM128.09,145h-.32a4.27,4.27,0,0,0-2.93,1.47L96.32,179.62a4.26,4.26,0,0,0,.45,6h0l3,2.6a4.29,4.29,0,0,0,6-.45l28.52-33.11a4.26,4.26,0,0,0-.45-6l-3-2.6A4.28,4.28,0,0,0,128.09,145Z" fill="#231f20"/><path d="M195.12,74.55a35.93,35.93,0,1,0,3.77,50.68A35.94,35.94,0,0,0,195.12,74.55Zm-1.35,46.27a29.18,29.18,0,1,1-3.06-41.16A29.19,29.19,0,0,1,193.77,120.82Z" fill="#fff"/><path d="M171.61,138.21a36.44,36.44,0,1,1,23.84-64h0a36.43,36.43,0,0,1-21.08,63.93C173.44,138.17,172.52,138.21,171.61,138.21Zm.07-71.86a35.4,35.4,0,1,0,23.11,8.57A35.37,35.37,0,0,0,171.68,66.35Zm-.05,65.1a29.68,29.68,0,1,1,22.52-10.3h0A29.66,29.66,0,0,1,171.63,131.45Zm.07-58.37c-.72,0-1.44,0-2.17.09a28.69,28.69,0,0,0-16.6,50.34,28.72,28.72,0,0,0,40.46-3h0A28.69,28.69,0,0,0,171.7,73.08Z" fill="#231f20"/><path d="M98.62,211a115.61,115.61,0,0,1,5.57-10.78c1.41-2.41,2.93-5.55,4.93-7.53s5.06-3.32,7.32-5.37c8.75-7.93,17.64-16.84,20.26-28.35.42-1.85.08-4.53-1.82-4.64a3.37,3.37,0,0,0-1.95.74c-4.7,3.07-8.19,8.21-12.77,11,1.21-.81,1.56-10.57,2.32-12.48,1.48-3.76,3.84-7.23,5.6-11,.7-1.49,1.42-3.2.8-4.72a4.06,4.06,0,0,0-3.71-2.26,11.44,11.44,0,0,0-4.46,1q-8.07,3-16,6.53A20,20,0,0,0,99.89,146,20.65,20.65,0,0,0,96,151c-4,6.37-15.51,28.16-17.22,33.12-.61,1.77-7.28,22.28-8.21,22.12Z" fill="#fff"/><path d="M98.62,211.49h-.09l-28.06-4.79h0a.49.49,0,0,1-.41-.57.52.52,0,0,1,.31-.39c.51-.61,2.23-4.7,7.39-20.24l.53-1.57C80,179,91.35,157.37,95.56,150.7a20.49,20.49,0,0,1,4-5.1,20.11,20.11,0,0,1,5-2.81c5.24-2.32,10.62-4.52,16-6.55a12.35,12.35,0,0,1,4.64-1.06,4.62,4.62,0,0,1,4.17,2.57c.68,1.7-.07,3.53-.82,5.12s-1.59,3.1-2.42,4.59a55.81,55.81,0,0,0-3.17,6.33,33.8,33.8,0,0,0-.78,5,57.43,57.43,0,0,1-.86,5.91,49.08,49.08,0,0,0,5-4.52,42.13,42.13,0,0,1,6.39-5.55,3.72,3.72,0,0,1,2.25-.82,2.25,2.25,0,0,1,1.7.92,5.68,5.68,0,0,1,.58,4.33c-2.69,11.77-12,20.94-20.41,28.61a27.38,27.38,0,0,1-3.6,2.6,23,23,0,0,0-3.7,2.76,27.09,27.09,0,0,0-4,5.85c-.3.54-.6,1.07-.89,1.57a117.62,117.62,0,0,0-5.55,10.74A.49.49,0,0,1,98.62,211.49Zm-27.18-5.65,26.88,4.59A117.12,117.12,0,0,1,103.76,200c.29-.5.58-1,.88-1.56a27.63,27.63,0,0,1,4.13-6.07,23.77,23.77,0,0,1,3.87-2.89,26,26,0,0,0,3.46-2.5c8.36-7.57,17.49-16.6,20.11-28.09a4.77,4.77,0,0,0-.4-3.51,1.22,1.22,0,0,0-.95-.52,3.1,3.1,0,0,0-1.66.66A41.32,41.32,0,0,0,127,160.9a37.65,37.65,0,0,1-6.56,5.61.49.49,0,0,1-.68-.15.5.5,0,0,1,.14-.69c.54-.45,1-4.54,1.29-7a30.13,30.13,0,0,1,.84-5.26,55.47,55.47,0,0,1,3.23-6.45c.81-1.47,1.66-3,2.38-4.53s1.33-3,.8-4.32a3.61,3.61,0,0,0-3.27-1.94,10.84,10.84,0,0,0-4.26,1c-5.35,2-10.72,4.22-15.94,6.53a19.8,19.8,0,0,0-4.74,2.66,20.33,20.33,0,0,0-3.81,4.87c-4.18,6.64-15.49,28.16-17.17,33l-.52,1.56C74.2,199.37,72.36,204.17,71.44,205.84Zm-.81-.13h0Z" fill="#231f20"/><polygon points="104.91 207.21 66.49 195.14 60 212.21 99.19 222.46 104.91 207.21" fill="#231f20"/><path d="M99.19,223l-.12,0L59.88,212.69a.45.45,0,0,1-.32-.25.49.49,0,0,1,0-.41L66,195a.5.5,0,0,1,.62-.3l38.42,12.07a.46.46,0,0,1,.3.26.48.48,0,0,1,0,.39l-5.72,15.25A.5.5,0,0,1,99.19,223ZM60.67,211.87l38.21,10,5.38-14.33L66.79,195.76Z" fill="#231f20"/><polygon points="103.57 220.43 56.16 206.24 39.8 241.54 93.68 258.27 103.57 220.43" fill="#68e1fd"/><path d="M97.81,210.12a2.68,2.68,0,0,0-.69-1.17l-.53-.42a2.68,2.68,0,0,0-1.35-.36h-.39a2,2,0,0,0-1,.23A2,2,0,0,0,93,209a2,2,0,0,0-.55.85,2,2,0,0,0-.23,1l.09.7a2.71,2.71,0,0,0,.69,1.18l.54.41a2.61,2.61,0,0,0,1.34.36h.39a2,2,0,0,0,1-.22,2,2,0,0,0,.85-.55,1.93,1.93,0,0,0,.55-.86,1.89,1.89,0,0,0,.23-1Z" fill="#fff"/><path d="M316.88,229V207.19a52.72,52.72,0,0,1-9.77-11.49c-4.49-7.13-20.21-33.28-12.94-35.66s27.34,22.21,27.34,22.21l1-36.09s15.75,12.3,20.5,25.77,2.77,64.19,2.77,64.19Z" fill="#fff"/><path d="M345.8,236.62l-.12,0-28.92-7.13a.51.51,0,0,1-.38-.49V207.42a54.7,54.7,0,0,1-9.7-11.45c-4-6.41-17-27.83-14.6-34.48a3,3,0,0,1,1.93-1.92c3.21-1,8.89,2.43,16.9,10.33,4.46,4.41,8.45,9,10.14,11l1-34.78a.5.5,0,0,1,.81-.38c.16.13,15.91,12.55,20.66,26s2.88,62.3,2.8,64.37a.47.47,0,0,1-.2.38A.46.46,0,0,1,345.8,236.62Zm-28.42-8,27.95,6.89c.2-5.81,1.62-50.95-2.77-63.38-4.05-11.48-16.34-22.24-19.56-24.92l-1,35.09a.51.51,0,0,1-.34.46.52.52,0,0,1-.55-.16c-5.52-6.76-21.1-23.92-26.8-22a2,2,0,0,0-1.3,1.31c-1.79,4.95,6.7,21.2,14.51,33.61a53,53,0,0,0,9.67,11.37.49.49,0,0,1,.18.38Z" fill="#231f20"/><polygon points="350.23 219.35 309.94 219.35 309.94 236.61 354.22 244.88 350.23 219.35" fill="#231f20"/><path d="M354.22,245.38h-.1l-44.27-8.27a.49.49,0,0,1-.41-.49V219.35a.5.5,0,0,1,.5-.5h40.29a.5.5,0,0,1,.49.42l4,25.53a.5.5,0,0,1-.49.58Zm-43.78-9.19,43.17,8.07-3.81-24.41H310.44Z" fill="#231f20"/><polygon points="356.21 232.12 306.35 229.72 306.35 269.21 360.2 263.63 356.21 232.12" fill="#68e1fd"/><path d="M317.52,221.48c-3.42,0-3.42,5.31,0,5.31S320.94,221.48,317.52,221.48Z" fill="#fff"/></svg>