<svg xmlns="http://www.w3.org/2000/svg" viewBox="0 0 400 300"><g id="_96_yoga" data-name="#96_yoga"><path d="M337,152.89H63a.5.5,0,0,1-.5-.5v-112a.51.51,0,0,1,.5-.5H337a.51.51,0,0,1,.5.5v112A.5.5,0,0,1,337,152.89Zm-273.5-1h273v-111H63.5Z" fill="#d1d3d4"/><path d="M200,152.89a.5.5,0,0,1-.5-.5v-112a.5.5,0,1,1,1,0v112A.5.5,0,0,1,200,152.89Z" fill="#d1d3d4"/><path d="M127.65,152.89a.5.5,0,0,1-.5-.5v-112a.5.5,0,0,1,.5-.5.51.51,0,0,1,.5.5v112A.5.5,0,0,1,127.65,152.89Z" fill="#d1d3d4"/><path d="M272.35,152.89a.5.5,0,0,1-.5-.5v-112a.51.51,0,0,1,.5-.5.5.5,0,0,1,.5.5v112A.5.5,0,0,1,272.35,152.89Z" fill="#d1d3d4"/><path d="M337,96.87H63a.5.5,0,0,1-.5-.5.51.51,0,0,1,.5-.5H337a.51.51,0,0,1,.5.5A.5.5,0,0,1,337,96.87Z" fill="#d1d3d4"/><path d="M337,189.25H63a.5.5,0,0,1,0-1H337a.5.5,0,0,1,0,1Z" fill="#d1d3d4"/><polygon points="322.24 214.12 77.76 214.12 51.51 259.65 348.49 259.65 322.24 214.12" fill="#fff"/><path d="M348.49,260.15h-297a.5.5,0,0,1-.43-.25.5.5,0,0,1,0-.5l26.25-45.53a.5.5,0,0,1,.43-.25H322.24a.5.5,0,0,1,.43.25l26.25,45.53a.5.5,0,0,1,0,.5A.5.5,0,0,1,348.49,260.15Zm-296.11-1H347.62L322,214.62H78.05Z" fill="#d1d3d4"/><path d="M124.92,230.88s-9.63-1.55-10.69-2.39-3.56-2.49-4.56-2.19a66.63,66.63,0,0,0-6.43,3.76c-1.11.69-9.5,1.12-14.35,3.4s-8.76,5.64-7.12,6.39,18.35-.87,19.87-1,15.52-1.21,22.19,2.4" fill="#fff"/><path d="M123.83,241.75a.39.39,0,0,1-.23-.07c-6.53-3.52-20.36-2.46-21.91-2.33l-.84.08c-15.87,1.45-18.61,1.19-19.29.88a1.06,1.06,0,0,1-.67-1c0-1.65,4-4.51,7.79-6.31,3.13-1.47,7.58-2.17,10.83-2.68a19.49,19.49,0,0,0,3.46-.69l.53-.34a49.55,49.55,0,0,1,6-3.48c1.54-.47,4.88,2.17,5,2.28.66.52,6.52,1.65,10.46,2.28a.5.5,0,0,1,.41.58.49.49,0,0,1-.57.41c-1.63-.26-9.81-1.61-10.92-2.49-1.44-1.14-3.5-2.29-4.11-2.1a60.16,60.16,0,0,0-5.77,3.37l-.54.34a14.35,14.35,0,0,1-3.84.83c-3.19.5-7.56,1.18-10.55,2.59-4.41,2.08-7.22,4.59-7.22,5.41,0,0,0,0,.09.08.4.19,3,.47,18.77-1l.85-.08c1.59-.13,15.69-1.21,22.47,2.46a.48.48,0,0,1,.2.67A.5.5,0,0,1,123.83,241.75Z" fill="#231f20"/><path d="M259.28,242.79s-19,.38-26.28.89-11.86,2.88-11.69,0,11.4-6.74,13.94-8.52,3.22-5.21,5-5.09a120.38,120.38,0,0,0,16.19-.63Z" fill="#fff"/><path d="M222.9,245.58a2.31,2.31,0,0,1-1.59-.46,1.72,1.72,0,0,1-.5-1.47c.12-2.1,4.32-4.19,9.8-6.71a37.41,37.41,0,0,0,4.35-2.19,10.07,10.07,0,0,0,2.48-2.85c.83-1.24,1.6-2.42,2.89-2.33a119,119,0,0,0,16.1-.63.49.49,0,0,1,.54.39l2.8,13.36a.53.53,0,0,1-.1.42.49.49,0,0,1-.38.18c-.19,0-19.06.39-26.25.89a57.15,57.15,0,0,0-6.52.9A21.77,21.77,0,0,1,222.9,245.58Zm17.3-15c-.64,0-1.16.72-1.93,1.88a10.86,10.86,0,0,1-2.73,3.12,37.22,37.22,0,0,1-4.51,2.27c-3.64,1.68-9.13,4.2-9.23,5.87,0,.49.12.62.17.66.5.44,2.29.11,4.37-.27a58,58,0,0,1,6.63-.92c6.49-.45,22.4-.8,25.7-.87L256.09,230a119.85,119.85,0,0,1-15.83.59Z" fill="#231f20"/><path d="M236.14,202s58.8,9.41,70.21,20.35.74,15.51-2.82,17.8-44.25,2.67-44.25,2.67l-2.8-13.35s-30.77,2.42-40.18-7.06S236.14,202,236.14,202Z" fill="#231f20"/><path d="M259.28,243.29a.49.49,0,0,1-.49-.39L256.08,230c-3.95.27-31.17,1.79-40.13-7.23a5.84,5.84,0,0,1-1.88-5.54c1.77-8.08,21.07-15.39,21.89-15.7a.74.74,0,0,1,.26,0c2.41.39,59.09,9.56,70.48,20.48,3.82,3.66,5.59,7,5.24,10-.45,4-4.41,6.34-7,7.9-.41.24-.78.46-1.1.67-3.64,2.34-42.85,2.74-44.51,2.75Zm-2.8-14.35a.49.49,0,0,1,.49.39l2.72,13c11.57-.12,40.78-.8,43.57-2.59.32-.21.71-.44,1.13-.69,2.46-1.46,6.16-3.66,6.56-7.15.3-2.66-1.36-5.75-4.94-9.18-10.91-10.46-66.7-19.68-69.82-20.19-1.66.64-19.56,7.68-21.14,14.93a4.8,4.8,0,0,0,1.61,4.61c9.14,9.21,39.48,6.93,39.78,6.91Z" fill="#231f20"/><path d="M244,163.83s3,24.92-1.52,36.36a37.33,37.33,0,0,1-29.25-11.44s4.84-8.9,1.95-15.94Z" fill="#fff"/><path d="M240.28,200.79A38.64,38.64,0,0,1,212.9,189.1a.5.5,0,0,1-.09-.59c.05-.09,4.69-8.78,1.93-15.51a.51.51,0,0,1,0-.4.48.48,0,0,1,.31-.26l28.81-9a.51.51,0,0,1,.42.06.49.49,0,0,1,.23.36c.12,1,3,25.18-1.56,36.61a.49.49,0,0,1-.4.31S241.69,200.79,240.28,200.79Zm-26.42-12.13a37.33,37.33,0,0,0,28.28,11.07c3.94-10.33,1.87-31.43,1.45-35.24l-27.73,8.64C218.14,179.51,214.71,187,213.86,188.66Z" fill="#231f20"/><path d="M218.06,124.73a23.67,23.67,0,0,0,1.07,3.8c1.07,2.84,2.78,5.59,2.66,8.62-.14,3.66-3,6.78-6.41,8.2s-7.15,1.47-10.81,1.3c-7.2-.32-15.9-2.38-21.49-7.18-3.45-3-5.7-7.67-4.71-12.12s4.87-7.67,7.09-11.67c2.58-4.63,2.86-10.15,4.32-15.24s4.89-10.38,10.15-11a17.05,17.05,0,0,1,4.45.25c3.81.56,7.9,1.24,10.66,3.94a3.64,3.64,0,0,1,4.47,2.65,9.72,9.72,0,0,1,.14,4C218.77,108.38,216.53,116.84,218.06,124.73Z" fill="#fff"/><path d="M207.17,147.22c-.88,0-1.76,0-2.63-.07-8.77-.39-16.92-3.12-21.78-7.3-3.92-3.36-5.83-8.31-4.88-12.6.65-2.93,2.49-5.33,4.27-7.66a35.46,35.46,0,0,0,2.88-4.16c1.67-3,2.37-6.48,3.05-9.85.35-1.74.72-3.54,1.22-5.28,1.44-5.06,5-10.7,10.57-11.37a17.47,17.47,0,0,1,4.58.26c4.24.61,8,1.34,10.73,3.87a3.68,3.68,0,0,1,2.6.34A4.58,4.58,0,0,1,220,96.12a10.25,10.25,0,0,1,.16,4.16c-.23,2.14-.56,4.34-.88,6.46-.9,6-1.83,12.15-.72,17.89h0a22.86,22.86,0,0,0,1,3.72c.27.72.59,1.44.9,2.15.92,2.11,1.88,4.3,1.79,6.67-.16,4.08-3.48,7.28-6.71,8.64A21.49,21.49,0,0,1,207.17,147.22Zm-6.08-57.36a8,8,0,0,0-1.1.07c-5.11.61-8.38,5.9-9.73,10.64-.49,1.7-.85,3.49-1.2,5.21-.7,3.44-1.42,7-3.16,10.14a36.18,36.18,0,0,1-3,4.28c-1.79,2.34-3.48,4.55-4.08,7.26-.88,3.94.91,8.51,4.55,11.63,4.7,4,12.62,6.68,21.18,7.06,3.57.16,7.33.12,10.6-1.26,2.94-1.24,6-4.12,6.1-7.76.08-2.14-.79-4.13-1.71-6.23-.32-.73-.64-1.46-.91-2.19a23.25,23.25,0,0,1-1.1-3.89h0c-1.15-5.91-.21-12.17.71-18.23.32-2.11.65-4.3.88-6.42a9.5,9.5,0,0,0-.13-3.76,3.55,3.55,0,0,0-1.71-2.12,2.73,2.73,0,0,0-2.13-.2.49.49,0,0,1-.5-.12c-2.54-2.48-6.21-3.19-10.38-3.79A21.82,21.82,0,0,0,201.09,89.86Z" fill="#231f20"/><path d="M217.47,102.78s6.95,2.88,7,4.43-2.82,2.44-2.82,2.44" fill="#fff"/><path d="M221.61,110.15a.5.5,0,0,1-.15-1c.64-.2,2.48-1,2.47-2,0-.65-3.11-2.51-6.65-4a.5.5,0,0,1,.38-.92c2.18.9,7.26,3.18,7.27,4.89,0,1.88-2.85,2.82-3.18,2.92A.36.36,0,0,1,221.61,110.15Z" fill="#231f20"/><path d="M212.1,96.41c3.39.3,5.31,4.51,6.94,7q3.47,5.2,6.68,10.57c1.35,2.26-4.28,6.14-5.72,6.16l15.76,19.43c-10.32,2.52-24-6.74-24-6.74l-6.36-11.41s3.77-2.5,3-8.45S212.46,104.44,212.1,96.41Z" fill="#fff"/><path d="M231.9,140.48c-9.57,0-20-6.93-20.45-7.26a.52.52,0,0,1-.16-.17l-6.35-11.42a.5.5,0,0,1,.16-.66c.14-.09,3.49-2.42,2.74-8-.4-3,.6-5.2,1.65-7.51a17.84,17.84,0,0,0,2.11-9.06.51.51,0,0,1,.16-.39.5.5,0,0,1,.39-.13c3.07.28,4.95,3.36,6.46,5.84.3.48.58.94.85,1.36,2.3,3.46,4.55,7,6.68,10.58a2.35,2.35,0,0,1-.15,2.5,11.66,11.66,0,0,1-5.11,4.21l15.27,18.83a.5.5,0,0,1,.08.47.49.49,0,0,1-.35.33A17,17,0,0,1,231.9,140.48Zm-19.8-8c1.22.79,13.31,8.49,22.76,6.76l-15.25-18.8a.47.47,0,0,1-.06-.52.48.48,0,0,1,.44-.29c.79,0,4-2,5.13-3.91a1.46,1.46,0,0,0,.17-1.49c-2.13-3.55-4.37-7.1-6.66-10.55-.28-.42-.57-.89-.87-1.39-1.29-2.11-2.88-4.71-5.14-5.27a19.14,19.14,0,0,1-2.22,8.9c-1,2.27-1.93,4.24-1.57,7,.69,5.13-1.83,7.82-2.81,8.65Z" fill="#231f20"/><path d="M223.89,111.43s-1.56,3.45-4.85,1.65" fill="#fff"/><path d="M220.86,114.1a4.27,4.27,0,0,1-2.06-.58.5.5,0,0,1,.48-.88,2.88,2.88,0,0,0,2.3.35,3.67,3.67,0,0,0,1.86-1.77.49.49,0,0,1,.66-.24.5.5,0,0,1,.25.66,4.62,4.62,0,0,1-2.44,2.29A3.39,3.39,0,0,1,220.86,114.1Z" fill="#231f20"/><path d="M220,120.11s-3,1.82-5.73.73c0,0,2.48,3.4,8,1.88Z" fill="#231f20"/><path d="M219.52,123.61a7.06,7.06,0,0,1-5.65-2.47.5.5,0,0,1,.59-.76c2.46,1,5.25-.68,5.28-.7a.49.49,0,0,1,.64.1l2.27,2.61a.49.49,0,0,1-.24.81A11,11,0,0,1,219.52,123.61Zm-3.5-1.92a7.26,7.26,0,0,0,5.34.73l-1.47-1.68A8.63,8.63,0,0,1,216,121.69Z" fill="#231f20"/><ellipse cx="215.18" cy="101.9" rx="0.58" ry="1.49" transform="translate(-22.12 121.3) rotate(-30.01)" fill="#231f20"/><path d="M211.63,109.3a5.66,5.66,0,0,0-2.57-1.72,7.85,7.85,0,0,0-2.31-.72,2.74,2.74,0,0,0-2.24.69,2.53,2.53,0,0,0-.63,2,4.87,4.87,0,0,0,.72,2,9,9,0,0,0,7.86,4.26l-.33-.08" fill="#fff"/><path d="M212.15,116.3a9.51,9.51,0,0,1-8-4.51,5.2,5.2,0,0,1-.79-2.21,3,3,0,0,1,.77-2.38,3.19,3.19,0,0,1,2.65-.84,8.63,8.63,0,0,1,2.46.76A6.13,6.13,0,0,1,212,109a.51.51,0,0,1-.13.7.49.49,0,0,1-.69-.13,5.22,5.22,0,0,0-2.36-1.54,7.34,7.34,0,0,0-2.16-.68,2.21,2.21,0,0,0-1.83.54,2,2,0,0,0-.49,1.59,4.17,4.17,0,0,0,.65,1.79,8.49,8.49,0,0,0,6.83,4,.46.46,0,0,1,.38-.06l.33.07a.5.5,0,0,1,.38.54.49.49,0,0,1-.47.45Z" fill="#231f20"/><path d="M211.41,160.08s22.44-5.15,12.14-24.73c-2.45-4.67-20-35.86-24-41.71S156.39,53,153.8,53.21s-2.34,5.09-1.07,6.87a33.28,33.28,0,0,0,3.05,3.56c-2.29,2,3.05,4.32,4.32,5.34s24.52,27.93,25.61,31.26S211.41,160.08,211.41,160.08Z" fill="#fff"/><path d="M211.41,160.58a.51.51,0,0,1-.46-.3c-1-2.31-24.62-56.58-25.71-59.89-1-3-23.93-29.81-25.45-31a12.16,12.16,0,0,0-1.2-.78c-1.66-1-3.73-2.24-3.86-3.73a1.74,1.74,0,0,1,.36-1.22,31.89,31.89,0,0,1-2.77-3.27,7.24,7.24,0,0,1-.59-6.11,2.45,2.45,0,0,1,2-1.55h0c2.09,0,16.51,12.6,22.65,18.05,9.79,8.7,21.32,19.48,23.49,22.6,4.07,5.85,21.51,36.9,24.06,41.76,3,5.78,3.58,10.92,1.58,15.26-3.53,7.69-13.62,10.09-14,10.19ZM153.82,53.71a1.45,1.45,0,0,0-1.18,1,6.27,6.27,0,0,0,.5,5.12,32.84,32.84,0,0,0,3,3.49.5.5,0,0,1,.14.37.46.46,0,0,1-.17.36c-.42.38-.4.66-.39.76.09,1,2.15,2.23,3.38,3a11.9,11.9,0,0,1,1.32.85c1.34,1.07,24.63,28.05,25.77,31.49,1,3.12,23.32,54.38,25.51,59.41,1.89-.53,10-3.12,13-9.53,1.85-4.05,1.33-8.89-1.56-14.38-2.55-4.85-20-35.83-24-41.65S156.6,54,153.82,53.71Z" fill="#231f20"/><path d="M231.93,134.45s12.09,3.78,14.47,13.27-1.19,19.84-1.19,19.84l-30.94,10.23-4.83-19s18.06-8.54,13-26.61Z" fill="#68e1fd"/><path d="M242.5,200.19s-4.41,15.35-31.54,32S118.75,241,118.75,241L121.11,229s56-3.67,70.87-18.59c0,0,3.56-19.67,21.27-21.7Z" fill="#231f20"/><path d="M152.63,243.25a322.44,322.44,0,0,1-33.94-1.79.49.49,0,0,1-.35-.2.49.49,0,0,1-.08-.39l2.36-11.93a.5.5,0,0,1,.46-.4c.56,0,55.66-3.81,70.44-18.34.4-1.89,4.65-20,21.68-21.95a.5.5,0,0,1,.24,0l29.24,11.45a.5.5,0,0,1,.3.6c-.18.64-4.77,15.72-31.75,32.25C197.18,241.18,172.83,243.25,152.63,243.25Zm-33.29-2.72c6.31.69,66,6.73,91.36-8.81,24.15-14.79,30.21-28.65,31.17-31.24l-28.68-11.22c-17,2-20.69,21.09-20.72,21.28a.51.51,0,0,1-.14.26c-6.26,6.27-20.15,11.32-41.29,15-14.25,2.5-27.15,3.51-29.51,3.68Z" fill="#231f20"/><path d="M221,225.87a.52.52,0,0,1-.42-.22.51.51,0,0,1,.15-.7c13.13-8.47,20.18-22.17,20.25-22.31a.5.5,0,0,1,.67-.22.49.49,0,0,1,.22.67c-.07.14-7.25,14.09-20.6,22.7A.43.43,0,0,1,221,225.87Z" fill="#fff"/><path d="M106.62,174.68l-.73-.08c0-.28,3-27.81-6.54-40l.57-.44C109.64,146.58,106.65,174.4,106.62,174.68Z" fill="#d1d3d4"/><path d="M103.56,178.15a2.79,2.79,0,0,1,.1-.91c2.28-14.44-1.59-21.18-5.24-24.29l.47-.56c3.79,3.24,7.82,10.19,5.49,25,0,.33-.1.63-.1.7Z" fill="#d1d3d4"/><path d="M98.52,147A5.4,5.4,0,0,0,96,146.2a5.75,5.75,0,0,0-4.47,1.23c-.32.3-.59.81-.31,1.14a1.12,1.12,0,0,0,.61.29,3.77,3.77,0,0,1,2.61,2.6c-.65-.48-1.21-1.09-1.87-1.57a3.19,3.19,0,0,0-2.27-.75,3.9,3.9,0,0,0-2.21,1.48,8.81,8.81,0,0,0-1.54,2.2,4.13,4.13,0,0,0-.34,2.63,6.35,6.35,0,0,1,2.67-.19,3.19,3.19,0,0,1,1.73.72.8.8,0,0,1,.3.46.75.75,0,0,1-.6.8,2.37,2.37,0,0,1-1.09-.05,23.3,23.3,0,0,0-2.35-.33,2.16,2.16,0,0,0-.88.06,1.88,1.88,0,0,0-1,2,1.12,1.12,0,0,0,.33.86c.39.3,1,.08,1.4-.11a7,7,0,0,1,2.51-.53.54.54,0,0,1,.28.05.41.41,0,0,1,.08.62,1.13,1.13,0,0,1-.61.35,13.66,13.66,0,0,1-2,.46c-.39.06-.85.14-1,.49a1.19,1.19,0,0,0-.1.49A6.12,6.12,0,0,0,87,165.18a1.83,1.83,0,0,0,.46.5,2,2,0,0,0,.84.23,13.88,13.88,0,0,0,6.62-1,.54.54,0,0,0,.28-.19c.12-.22-.09-.47-.25-.67-.7-.86-.54-2.11-.34-3.2a1,1,0,0,1,.24-.56.65.65,0,0,1,.86.13,1.62,1.62,0,0,1,.31.89,8.24,8.24,0,0,1-.27,3.35,17.12,17.12,0,0,0,3.19-1.08,10,10,0,0,0,2.31-1.28,3.7,3.7,0,0,0,1.41-2.18.74.74,0,0,0,0-.49.88.88,0,0,0-.29-.25,6,6,0,0,1-2.24-2.64c-.09-.22-.14-.54.07-.65a.52.52,0,0,1,.28,0c1.19.2,1.8,1.54,2.78,2.25a.63.63,0,0,0,.28.12.55.55,0,0,0,.32-.14,2.57,2.57,0,0,0,.77-1.39,5,5,0,0,0-.17-3.16,3.57,3.57,0,0,0-2.31-2.08,4.34,4.34,0,0,0-1.48-.07c-.17,0-1.09.32-1.21.21s.36-.79.47-1A3.27,3.27,0,0,0,98.52,147Z" fill="#d1d3d4"/><path d="M112.86,138.35a4.57,4.57,0,0,0-3.74,2,5.23,5.23,0,0,0-.67,3.28,15.78,15.78,0,0,0,.82,3.3,4.67,4.67,0,0,1,3.62-2.37c1.55-.13-.25,1.36-.52,1.67-.87,1-1.71,2.08-2.53,3.14a1.9,1.9,0,0,0-.47.91,1.92,1.92,0,0,0,.33,1.07,9.52,9.52,0,0,0,2.81,3.63,1.16,1.16,0,0,0,1.23.2,1.34,1.34,0,0,0,.42-.6,10.58,10.58,0,0,1,1.75-2.63c.18-.19.45-.39.67-.25s.18.36.16.57l-.2,2.12a5.15,5.15,0,0,0,.13,2.28c.51,1.35,2,2,3.44,2.29a2.25,2.25,0,0,0,1.18,0c.76-.27,1.07-1.17,1.21-2a5.72,5.72,0,0,1,1.24-2.82,10.55,10.55,0,0,0,1.3,3.92,5.37,5.37,0,0,0,1.39,1.68,5.29,5.29,0,0,0,2.06.86,15.68,15.68,0,0,0,3.81.2,9.06,9.06,0,0,0,2.6-.34,3.44,3.44,0,0,0,2-1.54c.75-1.35.17-3.08-.79-4.29s-2.28-2.08-3.29-3.25a9.32,9.32,0,0,1,3.43,1.79,1.31,1.31,0,0,0,1,.44.85.85,0,0,0,.44-.25c1.5-1.5-.23-4-1-5.39a4.39,4.39,0,0,0-2.13-2.18,3.53,3.53,0,0,0-1.71,0c-.85.15-5.09,2.07-3.29-.46a5,5,0,0,1,3.94-1.72c.73.06,1.84.65,1.82-.71a2.63,2.63,0,0,0-.55-1.34,27.83,27.83,0,0,0-1.9-2.53,1.27,1.27,0,0,0-.71-.51,1.35,1.35,0,0,0-.72.2,16.18,16.18,0,0,1-5.63,2.11c-.45,0-1.1-.14-1-.59a.67.67,0,0,1,.3-.39c1.2-.91,3-.54,4.24-1.41a1.47,1.47,0,0,0,.67-1.06c0-.65-.52-1.15-1-1.54a9.06,9.06,0,0,0-4.52-2.1c-2.49-.2-4.77,1.45-6.43,3.32-.56.63-1,2.29-1.81,2.19a13.78,13.78,0,0,1-1.62-.66A5.82,5.82,0,0,0,112.86,138.35Z" fill="#d1d3d4"/><path d="M100.78,125.22a4.24,4.24,0,0,0-1.25-2.54c-1.27-1.15-3.18-1.21-4.88-1a25.14,25.14,0,0,0-3.74,1.11c-1.22.35-1.59.63-.49,1.62.77.7,2.87,3.18,1.92,4.36s-2.54-1.84-3.16-2.35a4.5,4.5,0,0,0-3-1.28,4.67,4.67,0,0,0-2.57,1.37,25.89,25.89,0,0,0-2.11,2.08.9.9,0,0,0-.25.37c-.16.55.59.88,1.16,1,1.6.3,3.39,1.12,3.71,2.73-1.64.4-3.2-1.27-4.89-1.09a3.85,3.85,0,0,0-2.71,2.4,6.05,6.05,0,0,0-.4,3.39,8.93,8.93,0,0,1,4.44-.38.72.72,0,0,1,.49.22.54.54,0,0,1-.21.74,1.6,1.6,0,0,1-.84.15l-2.75,0a1.16,1.16,0,0,0-.78.17,1.09,1.09,0,0,0-.29.72,14.57,14.57,0,0,0-.05,3.79,3.18,3.18,0,0,0,.86,2.1,3.31,3.31,0,0,0,1.46.63,19.53,19.53,0,0,0,4.24.53,3.36,3.36,0,0,1-.43-3.07c.57-1.33,1.54-.56,1.6.65,0,.57-.12,1.13-.13,1.69a.59.59,0,0,0,.06.32.47.47,0,0,0,.22.17,3.47,3.47,0,0,0,2.47.32,1.59,1.59,0,0,0,.65-.29,2.09,2.09,0,0,0,.4-1.85l-.39-3.43a.53.53,0,0,1,.09-.46c.18-.18.47,0,.66.13a3.08,3.08,0,0,1,1,2.5c0,.54-.22,1.06-.26,1.59a1.54,1.54,0,0,0,.56,1.43,2,2,0,0,0,1.47.08,2.83,2.83,0,0,0,1.66-.87,2.51,2.51,0,0,0,.31-2,12,12,0,0,1-.39-2.05c0-1.41,1.43-3.42,1.68-1a21.83,21.83,0,0,1-.15,2.42.49.49,0,0,0,.59.56,5.9,5.9,0,0,0,3.24-.62,5.07,5.07,0,0,0,1.76-1.42,8.86,8.86,0,0,0,.89-1.59c1.14-2.44,3-4.34.84-7-.73-.9-2.09-1.14-2.78-2-.8-1.08.45-2.8.49-4.15A5.38,5.38,0,0,0,100.78,125.22Z" fill="#d1d3d4"/><path d="M93.93,171.83h24.21L116.27,190a5.41,5.41,0,0,1-5.38,4.86h-9.71A5.41,5.41,0,0,1,95.79,190Z" fill="#fff"/><path d="M110.89,195.36h-9.71a5.9,5.9,0,0,1-5.89-5.31l-1.86-18.17a.47.47,0,0,1,.12-.38.5.5,0,0,1,.38-.17h24.21a.5.5,0,0,1,.37.17.47.47,0,0,1,.12.38l-1.86,18.17A5.89,5.89,0,0,1,110.89,195.36Zm-16.41-23L96.29,190a4.89,4.89,0,0,0,4.89,4.41h9.71a4.9,4.9,0,0,0,4.89-4.41l1.8-17.62Z" fill="#d1d3d4"/><path d="M109.5,172.14c0-.17-1.92-17.52,6.6-31.5l.62.38c-8.39,13.76-6.52,30.87-6.5,31Z" fill="#d1d3d4"/><path d="M302.1,139.53a8.91,8.91,0,0,0-1-4.77,33,33,0,0,1-2.14-3c-.91-1.94-.27-4.22-.49-6.34a8,8,0,0,0-2.23-4.74c-1.11-1.12-2.55-1.89-3.61-3.06-1.74-1.93-2.24-4.64-3.23-7a17.57,17.57,0,0,0-7-8.19c1.9,3.82-2.43,8.68-.47,12.47.63,1.2,1.81,2.08,2.27,3.35,1.1,3.08-2.57,6.41-1.39,9.46.58,1.52,2.21,2.4,3,3.85,1,1.95.22,4.31.3,6.51.12,3,2,5.75,4.16,7.85,1.37,1.31,2.88,2.44,4.36,3.62,1.77,1.41,2.51,2.9,4.07.63A19.61,19.61,0,0,0,302.1,139.53Z" fill="#d1d3d4"/><path d="M304.07,141.27c-.57-2.34-1-4.89,0-7.11,1.08-2.5,3.78-4.27,4.1-7,.21-1.78-.7-3.58-.34-5.33s1.78-2.95,3-4.24a17.79,17.79,0,0,0,4.58-10.85,27.23,27.23,0,0,1,4.36,7.22,9.23,9.23,0,0,1-.64,8.14,7.49,7.49,0,0,0-1.1,1.81c-.53,1.73.95,3.34,1.71,5a5.71,5.71,0,0,1-.54,5.88c-1.55,1.93-4.54,2.69-5.3,5a11.4,11.4,0,0,0-.27,2.68,7.84,7.84,0,0,1-5.65,6.73c-1.83.45-1.8-.28-2.12-1.82C305.36,145.34,304.57,143.34,304.07,141.27Z" fill="#d1d3d4"/><path d="M298.23,124.39c-1.3-4.51-1.83-9.22-3.2-13.71a75.3,75.3,0,0,0-4.27-10.22l5.6,2.36c1.79.76,3.73,1.65,4.58,3.4,1.47,3-1.17,7,.37,10a25.51,25.51,0,0,0,2.22,2.78c1.64,2.31,1.39,5.49.49,8.18-.39,1.16-2.09,7.14-3.6,5.48-.61-.66-.66-3.14-.91-4C299.12,127.18,298.64,125.8,298.23,124.39Z" fill="#d1d3d4"/><path d="M301.28,184.29c-1.11-7.37-4.6-33.34-4.64-33.6l1-.13c0,.26,3.53,26.23,4.64,33.59Z" fill="#d1d3d4"/><path d="M302.6,191.25h-1c.06-8.75,3.71-42.2,5.82-44.5l.71.66C306.77,148.93,302.69,179.27,302.6,191.25Z" fill="#d1d3d4"/><path d="M304.5,189.59l-1-.05c.83-18.86-3.17-58.49-3.21-58.89l1-.09C301.32,131,305.33,170.65,304.5,189.59Z" fill="#d1d3d4"/><path d="M291.7,166.53h20.82l-1.45,21.08a7,7,0,0,1-6.94,6.47h-4a7,7,0,0,1-6.94-6.47Z" fill="#fff"/><path d="M304.13,194.58h-4a7.48,7.48,0,0,1-7.44-6.94l-1.45-21.08a.5.5,0,0,1,.5-.53h20.81a.5.5,0,0,1,.5.53l-1.45,21.08A7.48,7.48,0,0,1,304.13,194.58ZM292.24,167l1.42,20.54a6.47,6.47,0,0,0,6.44,6h4a6.47,6.47,0,0,0,6.44-6L312,167Z" fill="#d1d3d4"/></g></svg>